<svg xmlns="http://www.w3.org/2000/svg" width="1000" height="1000" viewBox="0 0 1000 1000"><path fill="#e42223" d="M170 178.413v438.87c0 28.664 1.6 66.87 14.08 108.216 14.047 46.53 39.765 89.527 76.443 127.8 92.07 96.071 228.338 119.801 234.095 120.764l5.597.937 5.596-.937c5.756-.963 142.021-24.693 234.09-120.764 36.68-38.273 62.398-81.27 76.443-127.8 12.483-41.346 14.083-79.552 14.083-108.216v-438.87zM500.206 52.17c-4.814-2.003-6.356-6.888-4.573-10.678 1.856-3.926 6.765-3.959 8.951-1.837 3.502 3.394 2.858 8.755-1.325 12.787-5.499 5.301-11.199 7.354-17.36 7.399h-29.682l-6.633 17.853 20.603 14.438.344.232-9.955 32.327 15.946 11.432 23.68-19.236 23.698 19.236 15.942-11.454-9.819-31.884-.124-.414 20.948-14.68-6.608-17.85h-25.476l-.156.194a27.4 27.4 0 0 1-2.725 3.244c-4.474 4.554-8.605 7.602-12.72 9.61l-.46.203h31.617c-7.065 4.95-14.202 9.956-19.497 13.663l-.426.305 9.973 32.375-24.144-19.596-.428.328-23.738 19.268 9.971-32.373-.267-.194-19.655-13.776h18.382c11.148.045 19.077-2.119 28.971-12.19 9.896-10.07 8.13-25.443-1.589-32.334-9.717-6.89-23.674-3.535-28.446 7.773-3.164 7.499-1.898 15.544 2.765 21.398l.405-.033c5.161-.181 9.585-1.94 13.749-5.48z"/><path fill="#fee813" d="M285.005 829.837c-74.436-77.675-81.096-155.838-81.096-212.554V212.32h592.609v404.962c0 56.716-6.663 134.88-81.098 212.554-85.341 89.05-215.205 110.782-215.205 110.782s-129.869-21.731-215.21-110.782"/><path fill="#e42223" d="m343.844 808.638 22.261-9.014 17.494 47.705h61.486l13.25 36.044h83.757l13.25-36.044h61.487l17.492-47.705 22.261 9.014 27.562-53.008 14.311 7.95c38.696-54.065 42.937-106.012 42.937-161.667V398.9s-72.617-2.65-122.973 18.022c0 0-48.766-32.333-118.204-31.805h-.003c-69.44-.528-118.206 31.805-118.206 31.805-50.354-20.671-122.972-18.022-122.972-18.022v203.012c0 55.655 4.241 107.602 42.936 161.668l14.695-7.19zM305.679 352.123v21.866h-46.645V259.574h143.122v31.803h-96.378l-.1 1.38v26.182h84.463v31.804h-84.327zM566.473 357.028H454.731c-19.008 0-34.56-15.552-34.56-34.559v-28.338c0-19.006 15.552-34.557 34.56-34.557h111.742v31.803h-96.385c-4.132 0-7.511 3.381-7.511 7.512v18.822c0 4.132 3.38 7.512 7.511 7.512h96.385zM698.986 324.607l1.802 1.942v-66.975h40.604v114.415H691.21l-56.486-58.185-2.209-2.153v60.338h-42.018V259.574h45.322z"/><path fill="#fee813" d="m555.341 582.303-37.633-50.359 83.749-41.696c14.843 9.541 26.856 24.914 26.856 24.914l-55.831 29.33 52.118 66.432 75.978-36.928c-2.556-9.827-6.094-19.33-10.163-28.296l-55.741 27.768-15.019-22.086 57.409-30.737c-15.884-26.016-32.672-43.296-32.672-43.296 12.544-4.24 36.222-10.6 36.222-10.6 7.774 7.773 26.324 35.335 26.324 35.335v-68.2c-26.502-1.059-76.859 10.072-119.245 27.082-26.252 10.537-45.074 20.626-45.074 20.626l26.506-49.827c-12.725-4.771-33.926-9.541-33.926-9.541l-34.987 66.258-34.984-66.258s-21.203 4.77-33.926 9.54l26.505 49.828s-18.82-10.089-45.073-20.626c-42.388-17.01-92.743-28.14-119.245-27.081v68.2s18.55-27.563 26.325-35.336c0 0 23.675 6.36 36.222 10.6 0 0-16.79 17.28-32.674 43.296l57.41 30.737-15.02 22.086-55.738-27.768c-4.072 8.967-7.61 18.47-10.164 28.296l75.975 36.928 52.12-66.433-55.83-29.329s12.014-15.373 26.854-24.914l83.75 41.696-37.634 50.36 55.127 27.558zM454.311 765.098l-19.926-56.316h43.464z"/><path fill="#fee813" d="m407.45 632.658 20.56-27.508 54.709 27.508v43.463h-59.897zM400.133 809.6h31.624l-33.034-93.363-53.381 26.12 12.99 24.932 22.97-10.598zM302.676 689.903c3.71 15.547 12.667 29.502 12.667 29.502l72.059-35.143-16.784-47.462-76.777-29.938s-.53 22.61 1.06 45.585h49.825l5.834 17.313zM464.882 794.975l18.898 53.415h32.864l18.901-53.415-35.33 27.972zM546.115 765.098l19.926-56.316h-43.464zM592.976 632.658l-20.558-27.508-54.71 27.508v43.463h59.897zM600.294 809.6H568.67l33.035-93.363 53.38 26.12-12.99 24.932-22.971-10.598zM697.75 689.903c-3.711 15.547-12.667 29.502-12.667 29.502l-72.059-35.143 16.784-47.462 76.778-29.938s.528 22.61-1.06 45.585H655.7l-5.832 17.313z"/></svg>