<svg xmlns="http://www.w3.org/2000/svg" width="1000" height="1000" viewBox="0 0 1000 1000"><g transform="translate(3.926 3.902)scale(1.49684)"><path fill="#fff" d="M331.416 648.765c175.256 0 317.332-142.081 317.332-317.336S506.672 14.095 331.416 14.095c-175.258 0-317.337 142.078-317.337 317.334 0 175.255 142.079 317.336 317.337 317.336"/><ellipse cx="331.374" cy="331.428" fill="#006bb6" rx="308.516" ry="308.517" transform="rotate(-45 331.374 331.428)"/><ellipse cx="331.375" cy="331.429" fill="#fff" rx="298.753" ry="298.754" transform="rotate(-45 331.374 331.429)"/><ellipse cx="331.376" cy="331.428" fill="#006bb6" rx="242.616" ry="242.615" transform="rotate(-45 331.376 331.428)"/><circle cx="331.375" cy="331.428" r="232.365" fill="#fff" transform="rotate(-45 331.375 331.428)"/><ellipse cx="331.375" cy="331.429" fill="#006bb6" rx="222.603" ry="222.601" transform="rotate(-5.071 331.504 331.547)"/><path fill="#fff" d="M334.384 331.887c-.065 52.969-22.06 126.594-93.575 126.375h-.124c-71.516.219-94.891-73.406-94.957-126.375-.081-66.098 31.493-124.861 95.646-124.737h.124c64.156-.124 92.966 58.639 92.886 124.737m-94.387 70.65h.04c22.072-.307 32.127-36.719 32.127-70.419 0-31.01-8.414-67.337-32.169-67.654-23.71.317-32.124 36.644-32.124 67.654.001 33.699 10.054 70.111 32.126 70.419M437.692 207.163c29.686 0 62.133 25.544 62.133 62.823 0 37.281-26.926 52.469-26.926 52.469s36.826 14.76 35.21 62.478c-2.33 68.686-68.347 74.213-68.347 74.213h-85.604V207.163zM412.149 265.5v31.756s28.993 2.417 28.993-15.877c0-18.297-28.993-15.879-28.993-15.879m0 92.852v42.805s36.85 7.245 37.279-21.058c.344-22.781-22.783-21.747-37.279-21.747"/><path fill="#006bb6" d="M289.744 241.223c-12.577-12.567-28.8-18.923-48.215-18.883h-.183c-20.038-.04-36.932 6.669-50.211 19.94-19.252 19.238-30.266 51.89-30.219 89.589.037 29.476 8.31 69.172 31.416 92.179 12.738 12.684 28.99 19.083 48.306 19.025h.217c19.321.059 34.837-6.009 47.435-18.551 19.304-19.22 30.857-53.857 30.908-92.653.046-38.857-10.689-71.894-29.454-90.646m3.902 188.68c-13.901 13.843-31.671 20.827-52.814 20.765h-.17c-21.403.066-39.466-7.079-53.686-21.237-24.753-24.648-33.615-66.554-33.653-97.554-.049-39.701 11.777-74.316 32.446-94.969 14.758-14.749 33.463-22.207 55.593-22.163 21.659-.043 39.693 7.058 53.752 21.106 20.478 20.465 31.727 54.567 31.676 96.025-.02 15.275-2.466 67.481-33.144 98.027"/><path fill="#006bb6" d="m239.872 251.346-.051.001c-11.013.147-26.208 5.152-36.055 28.158-5.809 13.577-9.01 32.261-9.01 52.612 0 38.246 11.8 83.071 45.059 83.535l.299.001c33.365-.465 45.166-45.29 45.166-83.536 0-38.755-11.839-80.325-45.066-80.77l-.291-.001zm37.813 80.771c0 37.54-11.617 75.58-37.572 75.942h-.193c-25.954-.363-37.573-38.402-37.573-75.942 0-35.132 9.871-72.807 37.575-73.178h.19c27.704.372 37.573 38.046 37.573 73.178M445.842 261.835c-11.671-10.741-31.023-9.721-34.784-9.408l-12.027 1.002v55.896l12.027 1.001c3.76.315 23.112 1.333 34.784-9.408 5.507-5.067 8.418-11.825 8.418-19.541s-2.911-14.474-8.418-19.542m-5.143 33.496c-9.537 8.775-27.045 7.592-29.011 7.428l-5.065-.421v-41.921l5.065-.421c1.966-.165 19.474-1.348 29.011 7.429 3.904 3.59 5.968 8.415 5.968 13.954 0 5.535-2.064 10.361-5.968 13.952M453.734 356.273c-10.985-11.121-28.331-11.073-39.807-11.041l-14.869.029-.026 13.091v53.593l10.585 2.082c2.607.512 25.895 4.651 41.031-7.606 5.311-4.302 11.687-12.325 11.895-26.123.151-9.873-2.815-17.956-8.809-24.025m-7.867 44.245c-12.665 10.26-33.888 6.232-34.785 6.058l-4.458-.877v-47.347l.012-5.511 7.315-.016c10.818-.029 25.635-.073 34.382 8.784 4.508 4.565 6.734 10.815 6.617 18.575-.132 8.719-3.187 15.562-9.083 20.334"/><path fill="#006bb6" d="m470.039 329.487-14.206-5.913 13.296-7.712c.944-.546 23.101-13.77 23.101-45.876 0-32.547-28.743-55.228-54.538-55.228h-75.94v236.794h77.641c4.777-.488 59.109-7.366 61.126-66.877q.048-1.4.048-2.755c-.001-39.348-29.257-51.905-30.528-52.433m22.891 54.931c-.767 22.598-9.775 39.354-26.771 49.805-12.362 7.601-24.909 9.447-27.248 9.734h-69.565V222.352h68.346c22.203 0 46.945 19.564 46.945 47.635 0 27.427-14.771 37.42-14.771 37.42s-13.727 11.596-31.311 17.284c14.824 3.518 29.438 10.668 29.438 10.668 4.424 2.864 24.978 12.606 24.978 46.629a80 80 0 0 1-.041 2.43"/></g></svg>