<svg xmlns="http://www.w3.org/2000/svg" data-name="Layer 1" viewBox="0 0 566 535.23"><title>achilles_29 [Converted]</title><path d="M505.52 471.56c-2.35 4.2-4.77 5.59-7.26 4.2-1.43-.81-2.14-1.78-2.11-2.91s.72-3.09 2.12-5.87a30.2 30.2 0 0 0 2.57-6.44 10.24 10.24 0 0 0-.13-4.91 12.8 12.8 0 0 0-2.89-5.56 25.6 25.6 0 0 0-3.88-3.39 66 66 0 0 0-5.65-3.49l-16.53-9.27-17.59 31.35 20.55 11.54 13.57-24.18.19.1a12.3 12.3 0 0 1 4.32 3.45 5.18 5.18 0 0 1 .58 4c-.1.45-.19.89-.3 1.29a11 11 0 0 1-.53 1.49c-.24.58-.59 1.32-1.05 2.21s-1 2-1.73 3.41a26.8 26.8 0 0 0-2.45 6.33 10 10 0 0 0 .4 5 11 11 0 0 0 2.75 4.72c.51.55 1 1.05 1.55 1.51a18 18 0 0 0 1.84 1.41c.71.49 1.56 1 2.54 1.62s2.21 1.3 3.7 2.14a61 61 0 0 0 5.43 2.79 16.3 16.3 0 0 0 3.8 1.12 13.7 13.7 0 0 0 6.57-.77 18 18 0 0 0 2.57-1.29 11.3 11.3 0 0 0 2.19-1.83 22 22 0 0 0 2.2-2.83c.76-1.14 1.65-2.62 2.67-4.42l7.92-14.13-20.54-11.53ZM494.82 330.3l23.55-.71-.47-15.63 47.84-1.44-.24-8.09-71.39 2.14zM459.33 172.81l-15.19 14.17 5.52 5.92 35.4-33 2.19-2.05c1.25-1.17 2.33-2.24 3.21-3.22a19.3 19.3 0 0 0 2.21-2.9 13.8 13.8 0 0 0 1.36-2.86 17.5 17.5 0 0 0 .75-3.2 18.6 18.6 0 0 0-.62-8.52 19 19 0 0 0-4.27-7.4 18.4 18.4 0 0 0-4.86-3.72 20.6 20.6 0 0 0-5.71-2 19 19 0 0 0-5.93-.24 14.2 14.2 0 0 0-5.38 1.69 33 33 0 0 0-6.33 4.68l-2.35 2.19-35.39 33 5.52 5.92 15.19-14.17Zm-5.67-24.13 1.8-1.68a10 10 0 0 1 1.25-1c.36-.24.68-.45.94-.64a7 7 0 0 1 1.08-.64 18 18 0 0 1 2-.82 9.7 9.7 0 0 1 2.09-.43 11.6 11.6 0 0 1 4.65.75 10.4 10.4 0 0 1 4 2.72 9.87 9.87 0 0 1 2.87 7.86 12.43 12.43 0 0 1-4.3 8l-1.33 1.24-4.39 4.09-14.68-15.74ZM538.73 446.08a9.1 9.1 0 0 0-2.92-2.21 7.78 7.78 0 0 0-9.07 1.29l-6.67-5.19-3.86 8 9.35 10.68a7.9 7.9 0 0 0 2.41 1.91 8.57 8.57 0 0 0 6.89.37 8.92 8.92 0 0 0 5.21-4.75 8.4 8.4 0 0 0 .87-3.52 10 10 0 0 0-.5-3.51 9.1 9.1 0 0 0-1.71-3.07M555.28 392.25a18.4 18.4 0 0 0-4.93-5.17 21.7 21.7 0 0 0-7.11-3.28 21.2 21.2 0 0 0-8.08-.67 14.5 14.5 0 0 0-6.69 2.45 22.6 22.6 0 0 0-3.78 3.12 49 49 0 0 0-4.13 4.87 18.5 18.5 0 0 1-3.71 3.71 3.81 3.81 0 0 1-3.16.42 3.28 3.28 0 0 1-2.37-2.13 6.9 6.9 0 0 1 0-4.12 8.2 8.2 0 0 1 3.2-4.88 12.3 12.3 0 0 1 6.65-1.67l2-7.5-7.55-2c-1.72-.46-3.19-.84-4.41-1.13s-2.28-.51-3.2-.68a24 24 0 0 0-2.57-.34c-.79-.06-1.6-.09-2.42-.08a14.56 14.56 0 0 0-7.62 2 17.75 17.75 0 0 0-5.8 4.88 19.55 19.55 0 0 0-4 14.61 17.6 17.6 0 0 0 2.49 6.87 19.6 19.6 0 0 0 5.13 5.45 22 22 0 0 0 7.44 3.49q11.27 3 18.1-3.42c.49-.48.9-.89 1.21-1.23s.69-.77 1.13-1.3.94-1.19 1.52-1.95 1.37-1.82 2.39-3.15a6.75 6.75 0 0 1 2.32-2.25 3.65 3.65 0 0 1 2.53-.13 2.86 2.86 0 0 1 2 1.81 5.44 5.44 0 0 1 0 3.45q-1.41 5.25-7.5 5.22l-2.09 7.83 6.72 1.8q4.14 1.11 7 1.69a29 29 0 0 0 5 .65 13 13 0 0 0 3.83-.41 20 20 0 0 0 3.47-1.37 15.26 15.26 0 0 0 5.44-4.57 19.8 19.8 0 0 0 3.41-6.95 17.75 17.75 0 0 0 .48-7.4 17 17 0 0 0-2.34-6.54M494.8 336.56l-2.43 30.85 23.48 1.85 1.8-22.78 8.96.71-1.58 20.13 6.72.53 1.59-20.13 8.54.67-1.67 21.24 23.48 1.85 2.31-29.31zM497.31 506.86a34.8 34.8 0 0 0-5.19-5.75 41.5 41.5 0 0 0-7.73-5.83 13.6 13.6 0 0 0-6.71-1.87 12.1 12.1 0 0 0-6.5 2.16 39 39 0 0 0-7 6.21l-7 7.6a10.47 10.47 0 0 1-1.1-7.42 16.7 16.7 0 0 1 4.36-7.67l1.2-1.31 8.43-9.17-17.34-15.94-11.19 12.17q-2.32 2.54-3.29 3.75a17 17 0 0 0-1.86 3 14 14 0 0 0-1.12 3 18 18 0 0 0-.5 3.08 11.93 11.93 0 0 0 1.65 6.27 29.5 29.5 0 0 0 5.68 6.64l23.1 21.23 3 2.76a25 25 0 0 0 2.05 1.72c.58.43 1.1.79 1.57 1.07s1.07.6 1.79 1a14.4 14.4 0 0 0 7 1.74 17.5 17.5 0 0 0 7.82-1.55 19.7 19.7 0 0 0 6.75-4.8 19.1 19.1 0 0 0 4.39-7.87 17.3 17.3 0 0 0 .29-8.62 16.5 16.5 0 0 0-2.55-5.6m-20.71 5.29a11.9 11.9 0 0 1-7.19 3.94 11.78 11.78 0 0 1-8-1.79l4.88-5.31q4.2-4.57 6.76-5.69a3.86 3.86 0 0 1 4.52.69q3.5 3.26-.97 8.16M485.745 263.26l68.382-20.607 2.337 7.756-68.382 20.606zM420.59 315.98c0-30.18-18.9-69-41.88-91.8-31.49-31.19-75.88-47-116.57-44.67-32.18 1.83-66.25 14.89-92.86 37.6a151.22 151.22 0 0 0-53.5 116c0 15.75 3.86 31.78 5.45 47.75 1.77 17.76 6.25 38.77 6.1 49.6-.26 19.35-6.26 27.42-16.26 43.13 22.25 16.55 69.39 37.68 101.54 40.53 11.15 1 20-5.23 26.31-11.57 5.28-5.29 8.28-19 1.46-37.9-8.81-24.33-11.83-58.24-10.77-84.86 1-25.65 4.46-46.1 26.24-46 12.56 0 20 6.29 23.3 15.22 3.09 8.29-1.11 17.55-1.5 30.25-.44 13.95-.49 31.24 1.67 43.54 6 34 17.8 65.37 39.47 90.87l2.49-1.29c-10.94-31.09-5.43-60 16.89-79.65-16.41-35.21-23.32-70.41-14.94-105.62ZM473.46 233.8l22.19-9.93 7.84 17.52-22.18 9.93 3.35 7.49 65.19-29.17-3.35-7.49-21.51 9.62-7.84-17.52 21.5-9.62-3.3-7.39-65.19 29.17zM493.88 300.84l23.2-4.09-2.71-15.4 47.13-8.31-1.4-7.98-70.34 12.4z"/><path d="M270.27 117.19a216.54 216.54 0 0 1 121.61 37.14l53.85-78.09A260.68 260.68 0 0 0 261.14 0C116.94 0 0 116.62 0 260.41a259.5 259.5 0 0 0 90.55 197.15 216.6 216.6 0 0 1-37.89-122.75c0-120.16 97.41-217.62 217.61-217.62M490.23 167.37l-21.22 13.92-1.88 1.23q-2.6 1.71-4.4 3.16a24.4 24.4 0 0 0-3.05 2.86 12.2 12.2 0 0 0-3 6.15 20.2 20.2 0 0 0-.14 8 19.6 19.6 0 0 0 2.86 7.48 19 19 0 0 0 4.09 4.48 20.5 20.5 0 0 0 5.16 3 17.6 17.6 0 0 0 5.68 1.25 14.3 14.3 0 0 0 5.52-.77 31.8 31.8 0 0 0 7.2-3.66l2.6-1.7 7.25-4.76-4.09-6.2a10.7 10.7 0 0 1-6.9-.58 12.46 12.46 0 0 1-5.57-4.77 12.9 12.9 0 0 1-1.88-4.54 11.8 11.8 0 0 1 1.64-8.91 11.6 11.6 0 0 1 7.78-5 12.2 12.2 0 0 1 4.64.14 12 12 0 0 1 4.26 1.92 13.1 13.1 0 0 1 3.47 3.62 12.2 12.2 0 0 1 2.13 6.57 11.77 11.77 0 0 1-1.95 6.59l4.07 6.21 6.36-4.17 3-1.93q2.5-1.65 4.14-3a20.4 20.4 0 0 0 2.73-2.66 11 11 0 0 0 1.75-2.8 25 25 0 0 0 1.15-3.41 21 21 0 0 0 .13-7.91 18.7 18.7 0 0 0-2.81-7.31 19.6 19.6 0 0 0-5.46-5.51 20 20 0 0 0-7.19-3.05 23 23 0 0 0-3.72-.41 11.1 11.1 0 0 0-3.39.5 22 22 0 0 0-3.67 1.54q-1.95 1-4.55 2.72Z"/></svg>