<svg id="Layer_1" data-name="Layer 1" xmlns="http://www.w3.org/2000/svg" viewBox="0 0 390.95 566"><defs><style>.cls-1{fill:#fff;}.cls-2{fill:#0054a4;}</style></defs><title>ado_20_2 [Converted]</title><path class="cls-1" d="M501.4,115.82a3.48,3.48,0,0,0-1.94-.59,3.55,3.55,0,0,0-1.36.27c-.42.18-42.07,17.41-92.69,17.41-52.7,0-96.05-19-96.48-19.22a3.56,3.56,0,0,0-2.86,0c-.43.2-43.78,19.22-96.48,19.22-50.62,0-92.27-17.23-92.69-17.41a3.55,3.55,0,0,0-1.36-.27,3.52,3.52,0,0,0-3.51,3.52V577.69c0,21.75,10.49,43,29.54,60,23.83,21.18,46.46,29.82,78.1,29.82,46.43,0,74.45,0,85.35,10.88a3.5,3.5,0,0,0,5,0c10.9-10.88,38.92-10.88,85.35-10.88,31.64,0,54.27-8.64,78.1-29.82,19.05-16.93,29.54-38.22,29.54-60V118.75A3.51,3.51,0,0,0,501.4,115.82Z" transform="translate(-112.03 -113.39)"/><path class="cls-2" d="M307.5,116.9s43.78,19.52,97.91,19.52c52,0,94-17.67,94-17.67V577.69c0,22-11.21,42.11-28.36,57.34-23.25,20.67-45,28.94-75.77,28.94-48.49,0-75.9,0-87.83,11.9C295.57,664,268.16,664,219.67,664c-30.79,0-52.52-8.27-75.77-28.94-17.15-15.23-28.36-35.32-28.36-57.34V118.75s42.07,17.67,94.05,17.67c54.13,0,97.91-19.52,97.91-19.52" transform="translate(-112.03 -113.39)"/><path class="cls-1" d="M121.35,127.12V577.69c0,19,9.37,37.87,26.4,53,19.15,17,36.77,25.08,60.13,27V142.21C168.91,141.93,136,132.21,121.35,127.12Z" transform="translate(-112.03 -113.39)"/><path class="cls-1" d="M407.12,142.21V657.7c23.36-1.92,41-10,60.13-27,17-15.14,26.41-34,26.41-53V127.12C479,132.21,446.09,141.93,407.12,142.21Z" transform="translate(-112.03 -113.39)"/><polygon class="cls-2" points="143.52 77.14 140.94 84.23 146.22 84.23 143.59 77.14 143.52 77.14"/><path class="cls-2" d="M399.68,194.31V197c0,2.91,1.33,3.2,4.27,3.2,1.71,0,2.66-.16,3.16-.78v-2h-3.42v-3h3.42v-3.05c-.67-.6-1.93-.6-3.16-.6-4.08,0-4.2.94-4.27,3.59" transform="translate(-112.03 -113.39)"/><path class="cls-2" d="M333.74,191.05h-4.41v4.44h4.41c2.45,0,2.37-.69,2.37-2.55,0-1.47-.49-1.89-2.37-1.89" transform="translate(-112.03 -113.39)"/><path class="cls-2" d="M237.59,198.38c0-1.36-.66-1.53-2.5-1.53h-4.4V200H235c1.84,0,2.62-.32,2.62-1.65" transform="translate(-112.03 -113.39)"/><path class="cls-2" d="M237.25,192.23c0-1-.2-1.36-1.78-1.39h-4.79v2.95h4.11c2,0,2.46-.24,2.46-1.56" transform="translate(-112.03 -113.39)"/><polygon class="cls-2" points="44.33 90.23 50.55 73.86 44.67 73.86 39.97 86.48 39.81 86.48 35.22 73.86 29.44 73.86 35.46 90.23 44.33 90.23"/><path class="cls-2" d="M173.77,203.75c5.77,0,9.87-1,9.87-6v-4.63c0-5-4.1-6-9.87-6s-9.86,1-9.86,6v4.63c0,5,4.09,6,9.86,6m-4-10.17c.09-2.4,1.05-2.65,4-2.65s4,.25,4,2.65v3.69c0,2.45-1,2.7-4,2.7s-3.92-.25-4-2.7Z" transform="translate(-112.03 -113.39)"/><polygon class="cls-2" points="90.78 86.66 80.89 86.66 80.89 83.47 89.99 83.47 89.99 80.44 80.89 80.44 80.89 77.43 90.58 77.43 90.58 73.88 75.22 73.88 75.22 90.23 90.78 90.23 90.78 86.66"/><rect class="cls-2" x="93.54" y="73.88" width="2.32" height="3.8"/><polygon class="cls-1" points="98.99 77.66 98.99 90.24 104.69 90.24 104.69 77.66 110.41 77.66 110.41 73.88 95.85 73.88 95.85 77.66 98.99 77.66"/><path class="cls-1" d="M243.27,199c0-2-.54-3.5-3.71-3.65v-.17c2.84-.34,3.38-1.7,3.38-3.79,0-3.57-2.51-4.16-6.73-4.16H225v16.35h11.32c4.51,0,7-.55,7-4.58m-12.59-8.22h4.79c1.58.05,1.78.44,1.78,1.41,0,1.3-.48,1.58-2.46,1.58h-4.11Zm0,9.23v-3.22h4.4c1.86,0,2.5.2,2.5,1.55s-.76,1.67-2.6,1.67Z" transform="translate(-112.03 -113.39)"/><path class="cls-1" d="M251.18,187.27l-6.41,16.36h5.91l1.06-2.84h7.64l1.11,2.84h5.79l-6.47-16.36ZM253,197.62l2.58-7.09h.07l2.64,7.09Z" transform="translate(-112.03 -113.39)"/><polygon class="cls-1" points="171 86.43 162.11 86.43 162.11 73.86 156.41 73.86 156.41 90.23 171 90.23 171 86.43"/><polygon class="cls-1" points="186.68 90.23 192.9 73.86 187.02 73.86 182.32 86.48 182.16 86.48 177.56 73.86 171.79 73.86 177.81 90.23 186.68 90.23"/><polygon class="cls-1" points="208.98 86.66 199.09 86.66 199.09 83.47 208.19 83.47 208.19 80.44 199.09 80.44 199.09 77.43 208.79 77.43 208.79 73.88 193.41 73.88 193.41 90.23 208.98 90.23 208.98 86.66"/><path class="cls-1" d="M341.74,203.62v-3.28c0-1.86-1.5-2.86-3.82-2.93v-.16c4-.73,4-2.31,4-5,0-4.09-2.4-4.9-7.34-5H323.66v16.35h5.67v-4.35h4.41c1.7,0,2.38.84,2.33,2.07v2.28Zm-8-8.13h-4.41v-4.44h4.41c1.88,0,2.37.42,2.37,1.89,0,1.86.08,2.55-2.37,2.55" transform="translate(-112.03 -113.39)"/><polygon class="cls-1" points="247.62 86.66 237.75 86.66 237.75 83.47 246.83 83.47 246.83 80.44 237.75 80.44 237.75 77.43 247.42 77.43 247.42 73.88 232.05 73.88 232.05 90.23 247.62 90.23 247.62 86.66"/><polygon class="cls-1" points="255.72 77.66 255.95 77.66 261.97 90.24 271.65 90.24 271.65 73.88 265.98 73.88 266.31 86.43 266.09 86.43 259.99 73.88 250.37 73.88 250.37 90.24 256.07 90.24 255.72 77.66"/><rect class="cls-1" x="274.29" y="73.86" width="5.69" height="16.37"/><path class="cls-2" d="M413.38,197.22v-2.86h-6.25v3h.48a3,3,0,0,1-.48,2v4.27c4.91-.36,6.25-1.79,6.25-6.43" transform="translate(-112.03 -113.39)"/><path class="cls-2" d="M407.61,192.34h5.78c0-4.12-2.5-5-6.27-5.15v4.13a1.42,1.42,0,0,1,.49,1" transform="translate(-112.03 -113.39)"/><rect class="cls-1" x="291.66" y="80.98" width="3.42" height="3.02"/><path class="cls-1" d="M404,200.18c-2.94,0-4.27-.31-4.27-3.22v-2.65c.07-2.65.18-3.6,4.27-3.6,1.23,0,2.49,0,3.17.61v-4.14c-1,0-2-.06-3.17-.06-6.26,0-10.11.81-10.11,6.22v4.23c0,5.3,3.41,6.19,10.11,6.19,1.23,0,2.23,0,3.17-.13v-4.25c-.51.6-1.47.8-3.17.8" transform="translate(-112.03 -113.39)"/><rect class="cls-2" x="303.34" y="73.86" width="5.69" height="16.37"/><polygon class="cls-2" points="317.01 77.66 317.23 77.66 323.26 90.24 332.94 90.24 332.94 73.88 327.27 73.88 327.6 86.43 327.38 86.43 321.28 73.88 311.66 73.88 311.66 90.24 317.36 90.24 317.01 77.66"/><path class="cls-2" d="M456.88,203.75c7.62,0,9.45-1,9.45-6.52v-2.86h-9.72v3h3.94c0,2.27-.77,2.76-3.67,2.76s-4.27-.29-4.27-3.2v-2.65c.08-2.65.18-3.6,4.27-3.6,1.7,0,3.55,0,3.67,1.65h5.78c0-5.21-3.93-5.24-9.45-5.24-6.26,0-10.11.81-10.11,6.22v4.23c0,5.3,3.41,6.18,10.11,6.18" transform="translate(-112.03 -113.39)"/><path class="cls-2" d="M160.23,235,141.3,280.2h17.5l3.12-7.77h22.65l3.27,7.77H205L185.84,235Zm5.32,28.65,7.66-19.6h.17l7.82,19.6Z" transform="translate(-112.03 -113.39)"/><path class="cls-1" d="M207.65,280.17H241.9c17.61,0,23.15-5.84,23.15-18.2v-9.46c0-12.83-7.83-17.53-25.42-17.53h-32m40.06,27c0,4.77-2.28,7.71-8.5,7.71H224.46V245.46h14.75c5.89,0,8.5,1.21,8.5,7Z" transform="translate(-112.03 -113.39)"/><path class="cls-1" d="M301.27,234.59c-17.09,0-29.22,2.66-29.22,16.59V264c0,13.93,12.13,16.58,29.22,16.58s29.22-2.65,29.22-16.58V251.18c0-13.93-12.13-16.59-29.22-16.59m11.88,28c0,6.75-3.13,7.43-11.88,7.43s-11.62-.68-11.88-7.43v-10.2c.26-6.67,3.13-7.35,11.88-7.35s11.88.68,11.88,7.35Z" transform="translate(-112.03 -113.39)"/><path class="cls-1" d="M373.59,270.78c0-6.09,3.62-4.83,16.43-7.3,13.2-2.6,17.34-4.51,17.34-14.64,0-12.71-10-14.24-24.84-14.24-16.09,0-24.93,2.36-24.93,14.66v2.21h16v-2.21c.09-4.83,1.26-5.25,8.93-5.25,6.72-.07,8.84.48,8.84,5s-.76,4.54-11.54,6.33c-19.11,3.2-22.23,5-22.23,15.45v9.42h49.8v-9.42Z" transform="translate(-112.03 -113.39)"/><path class="cls-2" d="M443.57,234.6c-13.3,0-26.27.62-26.27,15.87v14.2c0,15.27,13,15.87,26.27,15.87s26.28-.6,26.28-15.87v-14.2c0-15.25-13-15.87-26.28-15.87m10.28,28.17c0,7.7-1.93,7.83-10.28,7.83s-10.27-.13-10.27-7.83V252.38c0-7.71,1.93-7.84,10.27-7.84s10.28.13,10.28,7.84Z" transform="translate(-112.03 -113.39)"/><rect class="cls-1" x="227.45" y="121.09" width="8.01" height="25.46"/><polygon class="cls-1" points="127.69 487.58 123.88 487.58 123.88 480.33 114.67 480.33 114.67 487.58 110.86 487.58 110.86 470.57 114.67 470.57 114.67 477.53 123.88 477.53 123.88 470.57 127.69 470.57 127.69 487.58"/><polygon class="cls-1" points="134.7 477.6 143.97 477.6 143.97 480.28 134.7 480.28 134.7 484.79 144.55 484.79 144.55 487.58 130.91 487.58 130.91 470.55 144.47 470.55 144.47 473.35 134.7 473.35 134.7 477.6"/><polygon class="cls-1" points="151.04 477.6 160.29 477.6 160.29 480.28 151.04 480.28 151.04 484.79 160.88 484.79 160.88 487.58 147.24 487.58 147.24 470.55 160.8 470.55 160.8 473.35 151.04 473.35 151.04 477.6"/><polygon class="cls-1" points="177.09 487.58 173.69 487.58 167.39 473.32 167.31 473.32 167.64 487.58 163.84 487.58 163.84 470.57 169.94 470.57 175.32 483.2 175.42 483.2 180.7 470.57 186.93 470.57 186.93 487.58 183.13 487.58 183.44 473.22 183.31 473.22 177.09 487.58"/><path class="cls-1" d="M305.37,595.54v.79c0,2,1,2.09,4.48,2.09s3.94-.53,3.94-2.5c0-2.44-1.5-2.12-4.46-2.27-4.25-.22-7.66-.08-7.66-5,0-4.67,3.44-4.8,8.18-4.8,4,0,7.34.1,7.34,4.59v.54H313.4v-.54c0-1.85-.88-1.9-3.55-1.9-3.76,0-4.38.32-4.38,2.11,0,2.09.5,2.17,4.37,2.39,6.09.29,7.74.57,7.74,4.92,0,4.79-2.63,5.2-7.73,5.2-4.38,0-8.27.11-8.27-4.79v-.79Z" transform="translate(-112.03 -113.39)"/><polygon class="cls-1" points="211.98 477.5 213.75 477.5 220.35 470.55 225.01 470.55 216.98 478.86 225.84 487.58 221.03 487.58 213.75 480.3 211.98 480.3 211.98 487.58 208.19 487.58 208.19 470.55 211.98 470.55 211.98 477.5"/><polygon class="cls-1" points="230.58 477.6 239.85 477.6 239.85 480.28 230.58 480.28 230.58 484.79 240.43 484.79 240.43 487.58 226.79 487.58 226.79 470.55 240.34 470.55 240.34 473.35 230.58 473.35 230.58 477.6"/><path class="cls-1" d="M359.08,595.35V601h-3.8v-17h10.1c4.33.08,6,1.26,6,5.11,0,2.52-.17,4.36-3.52,4.78v.11c2.7.2,3.35,1.46,3.35,3.85V601h-3.79v-3.18a2.21,2.21,0,0,0-2.5-2.44Zm5-2.8c2.8,0,3.47-.46,3.47-3s-.49-2.83-3.21-2.83h-5.27v5.81Z" transform="translate(-112.03 -113.39)"/><polygon class="cls-1" points="266.24 477.5 268.01 477.5 274.61 470.55 279.28 470.55 271.25 478.86 280.09 487.58 275.29 487.58 268.01 480.3 266.24 480.3 266.24 487.58 262.43 487.58 262.43 470.55 266.24 470.55 266.24 477.5"/><polygon class="cls-1" points="148.96 516.91 145.16 516.91 145.16 509.65 135.96 509.65 135.96 516.91 132.15 516.91 132.15 499.89 135.96 499.89 135.96 506.86 145.16 506.86 145.16 499.89 148.96 499.89 148.96 516.91"/><path class="cls-1" d="M280.56,619.36V624c0,5.42-2.45,6.48-8.43,6.48s-8.36-.9-8.36-6.48v-4.6c0-5.3,2.07-6.22,8.36-6.22,5.7,0,8.43.74,8.43,6.22m-13,0V624c0,3.36.78,3.69,4.57,3.69,3.46,0,4.64-.42,4.64-3.69v-4.6c.09-3.2-1.26-3.43-4.64-3.43-4.09,0-4.48.73-4.57,3.43" transform="translate(-112.03 -113.39)"/><polygon class="cls-1" points="175.12 514.13 184.34 514.13 184.34 516.92 171.31 516.92 171.31 499.88 175.12 499.88 175.12 514.13"/><polygon class="cls-1" points="190.03 514.13 199.26 514.13 199.26 516.92 186.23 516.92 186.23 499.88 190.03 499.88 190.03 514.13"/><path class="cls-1" d="M316.52,627.08l-1.24,3.23h-3.95l6.59-17h5.6l6.69,17h-3.85l-1.29-3.23Zm4.3-11.31h-.05l-3.38,8.82h6.84Z" transform="translate(-112.03 -113.39)"/><polygon class="cls-1" points="234.39 499.88 238.18 499.88 238.18 516.91 231.89 516.91 223.47 502.67 223.32 502.67 223.64 516.91 219.85 516.91 219.85 499.88 226.13 499.88 234.6 514.13 234.71 514.13 234.39 499.88"/><path class="cls-1" d="M353.6,613.27h9.45c5.46,0,7.77,1.69,7.77,6.33v4c0,3.54-1.15,6.69-7.14,6.69H353.6Zm10.08,14.25c2.56,0,3.35-2,3.35-3.9v-4c0-2.84-1.09-3.54-4-3.54h-5.66v11.46Z" transform="translate(-112.03 -113.39)"/><path class="cls-1" d="M294.07,325.31c-1.8.89-3.54,5.49-3.37,6.91s.72,5,2.66,3.72,1.43-4.43,2-6,2.29-2.84,2.65-3.54-.7-2.68-3.9-1.06" transform="translate(-112.03 -113.39)"/><path class="cls-1" d="M303.65,321.93c1.7.52,4.59-.34,5.32.54s3.36,2.84,2.3,7.26c-2.49.89-4.78,3-6.39,4.26s-.17,2.66,1.77,2.66,3-1.24,3.89-.71-.16,3.89-.34,5.3a35.12,35.12,0,0,1-1.59,5.69c-.9,2.82,1.95,3.55,3,.71s4.07-9.57,3.89-13.12,1.24-9.73-.18-11.15-7.43-4.8-9.74-5.15-3.72,3.18-1.94,3.71" transform="translate(-112.03 -113.39)"/><path class="cls-1" d="M298.86,351.71a14.93,14.93,0,0,0-.18,6.74c.36,1.42,3.38,6.36,3.55,1.95s.88-3.91.17-6.74-3.2-3-3.54-2" transform="translate(-112.03 -113.39)"/><path class="cls-1" d="M296.55,355.09c.88,1.3,1.43,2.13,1.25,3.36s-1.59,3-2.49,1.06-.16-6.57,1.24-4.42" transform="translate(-112.03 -113.39)"/><path class="cls-1" d="M291.24,347.28a6.13,6.13,0,0,0,.18,6.21c1.06,1.22,3.36,1.95,3.54.35a16.78,16.78,0,0,0-.18-5.14c-.35-1.95-2.67-2.66-3.54-1.42" transform="translate(-112.03 -113.39)"/><path class="cls-1" d="M284.5,345.5c-2.1-.34-5.14-1.24-6.91-.53a8.3,8.3,0,0,0-5.13,6c-1.06,3.91-2.48,5.15-2.48,5.15s-.19,5.3-.37,7.61-3.54,3.56-3.54-.89-.34-8.32.72-10.26a62.49,62.49,0,0,1,3.71-5.86c.9-1.25,2.47-4.07,5.49-5a18.7,18.7,0,0,1,9.39.18c2.31.71,1.25,3.89-.88,3.53" transform="translate(-112.03 -113.39)"/><path class="cls-1" d="M262,351c-1.26,1-.89,2.49-.89,3.54s.18,4.08,1.95,1.95,3.55-3.88,2.48-5-1.93-1.76-3.54-.53" transform="translate(-112.03 -113.39)"/><path class="cls-1" d="M278.3,356.67c-.53,3.54-1.41,8.69-1.06,12.94s.53,10.1,1.61,12.59,3.7,3.91,4.06.53-.54-11.16-1.07-13.65.36-5.14-.17-7.45,0-2.65-1.24-6.21-2.13,1.25-2.13,1.25" transform="translate(-112.03 -113.39)"/><path class="cls-1" d="M311.26,352.6c-1.07.9.72,2.49-.34,2.82s-1.79,2.33-.54,3.2.88,1.6.88,3.19,2.49,2.15,2.49-.36-1.77-4.43.52-4.78,2.49-.36,6.39.53a51.43,51.43,0,0,1,8.85,3.18c2.66,1.07,3.2-.71-1.05-4.07s-14.71-5.85-17.2-3.71" transform="translate(-112.03 -113.39)"/><path class="cls-1" d="M258.8,359.69a23.44,23.44,0,0,1-5.13,8c-3,3-9.75,10.64-12.77,13.65s-5.49,5.85-4.78-.18c-.35-3.36.35-3.73-1.61-4.78s-6.36-.71-7.42-2.67,1.24-4.07,2.83-4.78,4.43,1.24,7.1,1.24,5.65.55,7.78-1.4,6.21-8,8.51-9.05,5.49,0,5.49,0" transform="translate(-112.03 -113.39)"/><path class="cls-1" d="M256.5,370.14s-4.25,2.65-6,3.91-2.3,2.85.35,1.59,10.63-3,11.88-4.79.69-3-.9-3a7.4,7.4,0,0,0-5.31,2.29" transform="translate(-112.03 -113.39)"/><path class="cls-1" d="M263.94,379.71c-1.55,1.05-5.32,6.75-6.2,9.4s1.42,3,3.37,2.83,4.08-.87,5.66-.87a71.52,71.52,0,0,1,7.81,1.05c2.12.35,9.4,1.24,11.87,1.24s13.83.71,16.12-.53,2-2.3-1.06-1.76-10.1-.72-14.17-1.78-9-2.49-12.23-3.56c-2.65-.87-4.43-3-6-4.41s-3-3-5.15-1.61" transform="translate(-112.03 -113.39)"/><path class="cls-1" d="M306.47,384.51c-1.22.9-.52,2.29.88,1.4s.55-2.49-.88-1.4" transform="translate(-112.03 -113.39)"/><path class="cls-1" d="M311.44,373.86a13.35,13.35,0,0,1-.53,4.6c-.71,2,.88,1.09,1.77-.35s3.54-4.77,3.2-7.63c-1.61.91-4.09,2-4.44,3.38" transform="translate(-112.03 -113.39)"/><path class="cls-1" d="M318.53,376.88a34.07,34.07,0,0,1,3.91,1.76c1.94,1.07,4.94,2.67,3.17-1.05-3.71-1.6-5.66-1.6-7.08-.71" transform="translate(-112.03 -113.39)"/><path class="cls-1" d="M333.24,367.83a55.79,55.79,0,0,1-4.6,8.7c-2.32,3.18,1.59,4.78,2.46,2.29s2.32-8,2.14-11" transform="translate(-112.03 -113.39)"/><path class="cls-1" d="M326.68,382.2s-5.33,4.07-8.15,6.73-6.9,6.72-6.9,6.72,1.58,3.56,2.48,5.69c3.88-1.6,8-5.85,9.74-9.56s3.17-5.51,3.17-7.11a7.4,7.4,0,0,0-.34-2.47" transform="translate(-112.03 -113.39)"/><path class="cls-1" d="M332.53,384c-1.49-1.34-2.48.9-1.6,2s3.37-.34,1.6-2" transform="translate(-112.03 -113.39)"/><path class="cls-1" d="M311.44,403.81s-7.79-2.48-12-2.65-15.79-3.55-15.79-3.55a12.1,12.1,0,0,0,5.5,3.91c3.19.89,4.78,2.47,7.81,3.54a111.44,111.44,0,0,0,11,2.49s3-.91,3.54-3.74" transform="translate(-112.03 -113.39)"/><path class="cls-1" d="M270.5,408.6c-2.3,3.19-7.26,11.16-7.26,12.76s-.19,3.39,4.78,1.6,16.84-3.2,21.26-2.13c5.86-.36,6.92-1.78,6.75-3.91-4.61-1.23-6.55-1.41-8.52-.88s-10.81.71-13.28,1.25-2.85-.37-2.48-1.94,1.4-3.56.88-5.34a1.84,1.84,0,0,0-2.13-1.41" transform="translate(-112.03 -113.39)"/><path class="cls-1" d="M308.07,409.84a35.64,35.64,0,0,0,1.25,7.79,20.65,20.65,0,0,1,.52,3.74l-9.39-3s5.67,6,8.5,7.11a27.15,27.15,0,0,1,6,3.54l-.51,3s-3.56,5.33-3.56,9.23-.35,9.74,4.44,4.6c.89-5.67,5.14-10.65,8-15.78-3.72-4.25-4.6-4.59-6.73-5.68a8.73,8.73,0,0,1-5.33-7.61c-.35-4.62-.16-2.47-.35-6s-2.83-.87-2.83-.87" transform="translate(-112.03 -113.39)"/><path class="cls-1" d="M265.54,426.14s-.9,6.56.71,8.52,6.71,9.21,13.47,9,7.62-.19,7.62-.19l8.67-6s3.74,4.94,5.33,6.54a7.61,7.61,0,0,0,6,1.78c-.71-2.31-3.88-6-5.67-7.62a39.38,39.38,0,0,1-3.89-4.43,5.5,5.5,0,0,0-4.25.16,57.44,57.44,0,0,1-8,3.57c-4.39,1.5-12.07-.91-14.18-3.38s-2.32-5.33-2.85-7.11-3-.87-3-.87" transform="translate(-112.03 -113.39)"/><path class="cls-1" d="M326,436.61c.55,1.68,6.2,5.14,11.14,6.72s8.89,3.56,11.19,3.91,6.37-1.26,5.12-3.73-4.59-4.6-7.62-5-4.05-.18-9-2.49-6.21-3.89-8.51-3-2.83,1.94-2.29,3.55" transform="translate(-112.03 -113.39)"/><path class="cls-1" d="M357.7,442.8c-1.17.74-.55,4.78.88,6.2s3,.71,2.66-3.55-2.12-3.52-3.54-2.65" transform="translate(-112.03 -113.39)"/><path class="cls-1" d="M363.55,443.51c-1.47.45-.71,1.42-.54,3.38s2.83,7.78,3.54,2.29-.71-6.38-3-5.67" transform="translate(-112.03 -113.39)"/><path class="cls-1" d="M322.25,449.71c2.48.18,8-.17,12.05,2.14s5.67,3.52,8,6.19,4.59-1.59,2.46-3.72-4.42-5.85-7.08-6.37a66.24,66.24,0,0,0-12-.53c-3.2.16-5.86,2.12-3.38,2.29" transform="translate(-112.03 -113.39)"/><path class="cls-1" d="M348.66,467.26c3-3,9.22-8,11.51-9s3.2-3.91,5.32-5.16,7.8-4.42,11.18-5a19.79,19.79,0,0,1,6.55.18s-5.49,6.93-9,9.23-9.05,2.11-11.7,4.25-6,5-7.45,7.27-3.37,3.71-5.31,1.93a3.24,3.24,0,0,1-1.07-3.71" transform="translate(-112.03 -113.39)"/><path class="cls-1" d="M281.84,450.78A183.94,183.94,0,0,1,279.2,469c-1.61,6.91-.73,9.21-3.21,12s-3.18,3.19-4.6,4.79,1.58,5.12,3.19,2.85,4.25-4.45,5-6.4,3.37-12.39,6-16.84,7.08-13.62,8.5-14.7a74.1,74.1,0,0,0-8.16-.55Z" transform="translate(-112.03 -113.39)"/><path class="cls-1" d="M309.85,453.61C306.77,457.47,297.27,471,291.6,476s-8,5.84-8.16,7.63,3,2.82,4.44,2.82,3.88-1.41,7.08-4.95,7.63-8.5,10.82-14.9,4.78-13.82,4.07-12.94" transform="translate(-112.03 -113.39)"/><path class="cls-1" d="M270,496.15c2.14,2.31,4.26,4.78,7.79,5.33a16.08,16.08,0,0,0,7.27-.18c1.77-.55,1.07-3.91-1.23-4.09s-5.67-.53-7.63-2.31-5.14-2.65-6-1.4a2.73,2.73,0,0,0-.18,2.65" transform="translate(-112.03 -113.39)"/><path class="cls-1" d="M264.83,495.62a18.89,18.89,0,0,0-2.83,5.86c-.55,2.65,0,10.08,0,10.08s2.83-.36,3.54-4.26a32.28,32.28,0,0,0,.35-9.91c-.35-1.77-1.06-1.77-1.06-1.77" transform="translate(-112.03 -113.39)"/><path class="cls-1" d="M257,512.27s-.35,3.73-2,5.5a11.44,11.44,0,0,1-4.44,2.66,9,9,0,0,1,.71-5.67c1.43-2.67,3.21-3.89,5.69-2.49" transform="translate(-112.03 -113.39)"/><path class="cls-1" d="M274.58,508s.71,2.65-1.78,6-5.3,4.25-8,6.91-4.61-2.3-2.66-4.62,3.37-4.42,6.38-5.83,6-2.49,6-2.49" transform="translate(-112.03 -113.39)"/><path class="cls-1" d="M247.11,529.82c-2.3.18-2.14,3.37-2,5s1.59,8.51,3.19,10.82,2.12-1.79,2.12-3.55a41.16,41.16,0,0,0-.53-7.79c-.53-2.31-.53-5.31-2.65-5s-.18.54-.18.54" transform="translate(-112.03 -113.39)"/><path class="cls-1" d="M265.54,525.75a7.31,7.31,0,0,1-3.72,2c-1.94.18-3,.7-4.6-.53s-2.83.87-1.78,2.11l1.07,1.25s-1.42.34-3,.55-1.43,1.92,0,1.92,4.94.19,3.19,3-1.6,1.76-3.19,3.72.34,4.78,2.46,2,7.81-7.62,8.52-9.56,1.77-2.67,1.06-6.38" transform="translate(-112.03 -113.39)"/></svg>