<?xml version="1.0" encoding="iso-8859-1"?>
<!-- Generator: Adobe Illustrator 24.0.1, SVG Export Plug-In . SVG Version: 6.00 Build 0)  -->
<svg version="1.1" id="Layer_1" xmlns="http://www.w3.org/2000/svg" xmlns:xlink="http://www.w3.org/1999/xlink" x="0px" y="0px"
	 viewBox="0 0 612 792" style="enable-background:new 0 0 612 792;" xml:space="preserve">
<path d="M306.028,112.688C148.925,112.69,21.559,240.042,21.559,397.16c0,157.096,127.366,284.455,284.469,284.458
	c157.095-0.003,284.461-127.362,284.461-284.458C590.489,240.042,463.123,112.69,306.028,112.688z"/>
<path style="fill:#FFFFFF;" d="M505.096,596.229c-50.953,50.948-121.326,82.458-199.069,82.458
	c-77.746,0-148.121-31.51-199.074-82.458C56,545.275,24.49,474.904,24.49,397.16c0-77.753,31.51-148.13,82.463-199.083
	c50.953-50.949,121.328-82.457,199.074-82.459c77.743,0.002,148.116,31.51,199.069,82.459
	c50.95,50.953,82.461,121.33,82.463,199.083C587.557,474.904,556.046,545.275,505.096,596.229z"/>
<path d="M305.561,617.363c-0.002,0.002-0.07-0.07-0.293-0.245l0,0c-0.226-0.178-0.587-0.441-1.119-0.777l0,0
	c-1.062-0.674-2.8-1.637-5.469-2.758l0,0c-5.336-2.242-14.392-5.113-29.178-7.571l0,0c-11.611-1.949-46.925-12.962-79.469-34.788
	l0,0c-32.517-21.816-62.284-54.517-62.288-99.786l0,0c-0.019-30.169,14.558-44.434,28.895-59.57l0,0
	c14.341-15.19,28.511-31.271,28.532-65.696l0,0c0-6.971-0.585-14.696-1.877-23.317l0,0c-0.125-0.415-1.044-3.449-2.698-7.943l0,0
	c-1.78-4.835-4.403-11.347-7.768-18.023l0,0c-6.712-13.37-16.48-27.329-28.072-30.012l0,0l-1.178-0.277l44.041-42.622l0.437,0.269
	c0.004,0,1.318,0.806,3.885,2.04l0,0c2.567,1.231,6.368,2.878,11.282,4.525l0,0c9.831,3.296,24.113,6.594,41.904,6.594l0,0
	c17.213,0,37.711-3.085,60.652-12.259l0,0l0.245-0.1l0.247,0.1c22.937,9.172,43.435,12.259,60.65,12.259l0,0
	c26.685,0,45.48-7.421,53.185-11.119l0,0c2.567-1.233,3.881-2.038,3.885-2.04l0,0l0.438-0.269l44.043,42.622l-1.179,0.277
	c-17.436,3.991-30.555,33.507-35.842,48.036l0,0c-1.653,4.494-2.573,7.529-2.698,7.943l0,0c-1.294,8.619-1.879,16.344-1.879,23.315
	l0,0c0.022,34.427,14.19,50.508,28.534,65.698l0,0c14.335,15.139,28.914,29.404,28.895,59.57l0,0
	c-0.005,45.269-29.771,77.97-62.288,99.786l0,0c-32.544,21.826-67.858,32.839-79.47,34.788l0,0
	c-25.88,4.301-34.195,9.873-35.766,11.106l0,0c-0.225,0.175-0.294,0.245-0.294,0.245l0,0l-0.462,0.451L305.561,617.363
	L305.561,617.363z"/>
<path style="fill:#9A8348;" d="M174.011,296.292c6.791,13.477,10.56,26.211,10.568,26.235l0,0l0.013,0.044l0.006,0.044
	c1.305,8.693,1.898,16.499,1.898,23.556l0,0c0.021,34.812-14.525,51.433-28.895,66.604l0,0
	c-14.379,15.22-28.516,28.97-28.532,58.663l0,0c-0.006,44.634,29.354,76.976,61.701,98.685l0,0
	c32.32,21.697,67.609,32.691,78.95,34.582l0,0c25.741,4.283,34.359,9.825,36.305,11.325l0,0c1.945-1.5,10.564-7.042,36.304-11.325
	l0,0c11.343-1.891,46.63-12.885,78.95-34.582l0,0c32.348-21.71,61.708-54.052,61.703-98.685l0,0
	c-0.018-29.693-14.155-43.443-28.534-58.663l0,0c-14.37-15.169-28.916-31.792-28.896-66.605l0,0c0-7.057,0.592-14.861,1.898-23.554
	l0,0l0.009-0.048l0.013-0.04c0.006-0.023,3.774-12.758,10.565-26.235l0,0c6.596-13.042,15.955-26.857,27.806-30.397l0,0
	l-41.605-40.263c-3.264,1.862-24.329,13.093-57.316,13.095l0,0c-17.31,0-37.897-3.096-60.896-12.256l0,0
	c-23.001,9.162-43.59,12.256-60.898,12.256l0,0c-32.99-0.002-54.053-11.233-57.317-13.095l0,0l-41.605,40.263
	C158.056,269.435,167.415,283.25,174.011,296.292L174.011,296.292z"/>
<path d="M171.391,277.071l0.483-0.452l0.533-0.392l-0.533,0.392L171.391,277.071l-0.032-0.033l-0.021-0.029
	c-3.474-4.748-7.368-9.064-11.657-12.423l0,0l-0.598-0.469l30.137-29.166l0.412,0.188c9.374,4.273,28.79,11.266,55.495,11.266l0,0
	c19.953,0,40.344-3.9,60.661-11.606l0,0l0.234-0.09l0.236,0.09c20.318,7.706,40.707,11.606,60.662,11.606l0,0
	c26.699,0,46.119-6.993,55.495-11.268l0,0l0.41-0.188l30.139,29.168l-0.598,0.469c-4.292,3.36-8.186,7.677-11.664,12.427l0,0
	l-0.026,0.036l-134.654,143.44L171.391,277.071L171.391,277.071z"/>
<path style="fill:#ED1B2E;" d="M306.023,418.554L439.66,276.199c3.365-4.591,7.128-8.806,11.298-12.183l0,0l-28.403-27.488
	c-9.653,4.346-29.083,11.199-55.634,11.199l0,0c-20.05,0-40.52-3.904-60.897-11.604l0,0c-20.377,7.699-40.847,11.604-60.896,11.604
	l0,0c-26.555,0-45.98-6.853-55.634-11.199l0,0l-28.404,27.487c4.168,3.375,7.931,7.59,11.294,12.18l0,0L306.023,418.554
	L306.023,418.554z"/>
<path d="M191.108,372.515l0.088-0.35c1.878-7.506,2.975-16.05,2.975-25.957l0,0c0-7.433-0.615-15.631-1.98-24.732l0,0l-0.086-0.571
	l-0.165-0.557c-0.386-1.303-1.512-4.966-3.355-9.901l0,0l1.103-0.684l116.335,123.925l116.336-123.925l1.103,0.684
	c-1.841,4.937-2.969,8.599-3.353,9.901l0,0l-0.165,0.555l-0.087,0.573c-1.368,9.099-1.983,17.3-1.983,24.732l0,0
	c0,9.908,1.097,18.453,2.978,25.957l0,0l-0.642,0.161l0.642-0.161l0.088,0.35L306.023,494.929L191.108,372.515L191.108,372.515z"/>
<path d="M450.445,419.711c-9.509-10.021-19.575-20.67-25.961-36.403l-0.39-0.955L306.024,508.126L187.952,382.353l-0.388,0.955
	c-6.387,15.733-16.453,26.383-25.961,36.405c-13.23,13.929-24.877,26.248-24.858,51.725c-0.002,18.975,5.843,37.009,17.344,53.556
	c9.749,14.028,23.532,27.063,40.956,38.755c30.748,20.622,64.917,31.535,75.939,33.387c18.469,3.07,28.962,6.872,34.742,9.782
	l0.297,0.15l0.297-0.15c5.782-2.91,16.276-6.714,34.749-9.784c11.016-1.85,45.182-12.763,75.933-33.385
	c17.424-11.692,31.207-24.727,40.956-38.755c11.501-16.547,17.347-34.581,17.345-53.556
	C475.322,445.961,463.678,433.642,450.445,419.711z"/>
<path style="fill:#ED1B2E;" d="M456.873,524.238c-9.635,13.863-23.294,26.792-40.608,38.411
	c-30.522,20.491-64.681,31.392-75.412,33.178c-18.26,3.038-28.833,6.793-34.829,9.759c-5.995-2.966-16.566-6.721-34.82-9.757
	c-10.74-1.788-44.898-12.689-75.42-33.18c-17.315-11.619-30.976-24.548-40.608-38.411c-11.36-16.354-17.107-34.101-17.108-52.801
	c0.018-25.027,11.244-36.823,24.495-50.814c9.314-9.82,19.326-20.391,25.833-35.867L306.024,510.06l117.628-125.303
	c6.508,15.477,16.519,26.047,25.834,35.865c13.251,13.992,24.476,25.788,24.495,50.815
	C473.979,490.138,468.232,507.885,456.873,524.238z"/>
<path d="M336.537,327.78c-1.06-1.106-1.792-3.101-2.868-6.322l-23.103-69.239h-7.73l-0.15,0.448l-20.428,59.973
	c-2.5,7.278-5.649,16.11-12.279,16.844l-0.58,0.072v7.23h27.247v-7.322l-0.673,0.015c-0.143,0.002-0.281,0.004-0.417,0.004
	c-1.984,0.002-4.002-0.388-5.461-1.441c-1.454-1.057-2.461-2.738-2.473-5.701c-0.008-3.587,1.504-7.086,2.531-10.402h22.07
	l3.736,12.293c0.346,1.065,0.704,2,0.696,2.783c-0.004,0.514-0.122,0.966-0.504,1.485c-0.482,0.77-2.44,0.993-4.138,0.956
	c-0.252,0-0.497-0.003-0.729-0.003c-0.353,0-0.68,0.004-0.973,0.025l-0.615,0.046v7.262h32.954v-7.284l-0.638-0.023
	C339.02,329.362,337.571,328.879,336.537,327.78z M310.149,303.613h-16.43l8.376-25.321L310.149,303.613z"/>
<path d="M186.781,464.633v7.308h3.018c1.759,0.108,3.559-0.086,4.947,0.607l0.038,0.019l0.029,0.011
	c1.304,0.343,1.503,2.724,1.459,4.805v55.907c0.002,1.665-0.002,3.396-0.252,5.005c-0.199,0.426-0.283,0.827-0.395,1.018
	c-0.056,0.119-0.291,0.305-0.583,0.539c-0.731,0.345-1.381,0.351-2.262,0.351h-6.089v7.308h0.662h37.163v-7.27l-6.309-0.374
	c-2.575-0.113-3.534-0.509-3.972-1.294c-0.509-0.825-0.571-2.628-0.555-5.62v-24.41l0.243,0.002
	c5.881,0.074,8.549,1.843,11.218,8.717c0.949,2.502,1.315,5.373,1.48,8.058l0.04,0.621h5.896v-40.41h-5.833l-0.094,0.551
	c-0.896,5.282-1.998,9.127-3.842,11.564c-1.843,2.421-4.376,3.602-8.633,3.618c-0.156,0-0.314-0.001-0.475-0.005v-22.631
	c0-0.428-0.01-0.875-0.01-1.328c-0.015-1.536,0.157-3.097,0.915-3.864c1.357-1.206,3.147-1.397,5.073-1.397
	c0.672,0,1.355,0.025,2.029,0.025c12.808,0.044,17.718,7.978,20.863,23.08l0.107,0.528h5.73l-0.655-31.035H186.781z"/>
<path d="M418.956,516.293l-0.108,0.758c-1.896,13.098-8.545,23.982-19.584,23.946c-4.196-0.015-7.56-1.282-10.723-4.763
	c-3.228-3.722-4.352-7.267-5.347-12.668c-1.076-5.713-1.52-11.307-1.52-17.148c0-4.392,0.092-9.691,0.71-13.931
	c0.998-6.446,1.435-10.36,4.518-15.678c3.107-5.032,6.56-6.747,11.636-6.779c5.56,0,9.811,3.564,13.06,8.79
	c3.233,5.215,5.369,12.015,6.619,18.119l0.122,0.595l5.814-0.701l-0.848-33.672h-4.748l-0.197,0.234l-4.76,5.641
	c-0.184-0.145-0.348-0.295-0.44-0.421l-0.054-0.073l-0.061-0.049c-5.604-4.483-10.293-5.566-16.764-5.552
	c-9.161-0.006-17.414,4.298-23.827,12.338c-6.809,8.498-9.995,19.841-9.995,31.696c0,10.944,2.542,21.707,8.898,29.784
	c6.76,8.69,14.443,12.468,24.196,12.448c0.051,0.001,0.104,0.001,0.154,0.001c16.833,0,26.317-9.97,29.773-30.372l0.101-0.58
	L418.956,516.293z"/>
<path style="fill:#9A8348;" d="M332.414,321.879l-22.803-68.337h-5.829l-20.275,59.529c-2.484,6.991-5.392,16.175-12.787,17.629
	v4.763h24.601v-4.658c-2.077-0.032-4.259-0.443-6-1.687c-1.813-1.288-3.04-3.508-3.025-6.776c0.006-4.143,1.763-7.926,2.729-11.25
	l0.138-0.477h24.04l4.018,13.227c0.313,0.997,0.748,2.025,0.756,3.175c0.007,0.749-0.215,1.547-0.767,2.278
	c-1.233,1.521-3.482,1.447-5.197,1.486c-0.254,0-0.5-0.002-0.729-0.002c-0.091,0-0.18,0-0.265,0.001v4.684h30.308v-4.691
	c-2.706-0.159-4.473-0.717-5.756-2.085C334.215,327.223,333.506,325.094,332.414,321.879z M291.886,304.936l10.234-30.931
	l9.564,30.068l0.274,0.863H291.886z"/>
<path style="fill:#9A8348;" d="M223.193,541.486l-5.052-0.301c-2.584-0.105-4.2-0.505-5.052-1.956
	c-0.777-1.411-0.714-3.287-0.731-6.279v-25.731h0.662h0.905c6.227-0.075,9.859,2.452,12.458,9.573
	c0.945,2.503,1.332,5.253,1.52,7.822l3.331-0.002V486.85h-3.394c-0.898,5.069-1.984,8.909-3.993,11.587
	c-2.081,2.787-5.203,4.16-9.69,4.146c-0.376,0-0.766-0.008-1.166-0.026l-0.632-0.029v-23.903c0-0.406-0.01-0.854-0.01-1.328
	c0.015-1.582,0.067-3.454,1.317-4.813c1.801-1.596,4.012-1.771,5.995-1.771c0.704,0,1.386,0.025,2.029,0.025
	c13.416-0.046,19.01,8.747,22.052,23.608h3.295l-0.599-28.389h-58.332v4.661l1.74,0.002c1.603,0.125,3.581-0.15,5.441,0.722
	c2.466,1.038,2.269,4.073,2.313,6.041v55.907c-0.002,1.7,0.002,3.532-0.287,5.315l-0.019,0.111l-0.055,0.1
	c-0.115,0.188-0.207,0.648-0.45,1.129c-0.312,0.532-0.753,0.783-0.965,0.977l-0.061,0.051l-0.073,0.037
	c-1.055,0.524-2.022,0.516-2.908,0.516h-4.766v4.661h35.178V541.486z"/>
<path style="fill:#9A8348;" d="M399.264,542.32c-4.471,0.013-8.346-1.46-11.713-5.208c-3.44-3.944-4.664-7.857-5.656-13.303
	c-1.094-5.802-1.544-11.483-1.544-17.392c0.002-4.414,0.088-9.75,0.725-14.128c0.988-6.392,1.466-10.609,4.691-16.157
	c3.227-5.353,7.37-7.457,12.772-7.426c6.188,0,10.84,4.002,14.185,9.416c3.254,5.257,5.378,11.905,6.665,17.952l3.413-0.413
	l-0.786-31.18h-2.843l-5.324,6.313l-0.488-0.312c-0.364-0.236-0.831-0.556-1.194-0.997c-5.403-4.267-9.554-5.207-15.884-5.222
	c-8.735,0.007-16.563,4.055-22.794,11.839c-6.574,8.204-9.707,19.247-9.707,30.872c-0.002,10.745,2.509,21.215,8.617,28.968
	c6.618,8.444,13.747,11.923,23.156,11.941c16.157-0.058,24.883-8.907,28.521-28.694l-4.03-1.194
	C417.99,531.004,411.116,542.285,399.264,542.32z"/>
<path d="M261.934,662.091l-7.933-1.501l3.986-21.164l-9.851-1.858l0.944-4.99c5.517,1.133,10.915,0.517,12.694-4.315l6.322,1.183
	L261.934,662.091z"/>
<path d="M287.968,631.026c9.891,0.726,12.872,6.66,12.634,9.881c-0.239,3.261-2.495,5.767-6.322,6.621l0.01-0.1l-0.01,0.05v0.05
	c4.642,1.252,7.147,4.483,6.829,8.648c-0.517,6.948-8.26,9.851-15.636,9.304c-7.684-0.576-14.881-4.354-14.334-11.491
	c0.318-4.215,3.37-6.988,8.101-7.594v-0.08c-3.787-1.192-5.576-3.997-5.338-7.258C274.34,633.094,281.507,630.549,287.968,631.026
	 M285.841,660.411c3.867,0.298,6.988-1.769,7.227-5.069c0.239-3.182-2.664-5.527-6.421-5.815c-3.907-0.288-7.177,1.322-7.425,4.722
	C278.962,657.657,281.974,660.123,285.841,660.411 M286.935,645.023c3.29,0.248,6.073-1.063,6.292-3.908
	c0.119-1.699-0.636-4.662-5.626-5.039c-3.241-0.229-6.203,1.213-6.422,4.145C280.97,643.113,283.694,644.785,286.935,645.023"/>
<path d="M314.877,656.922c0.646,2.186,2.803,3.967,5.597,3.798c5.845-0.349,6.998-6.829,7.008-10.537l-0.119-0.09
	c-2.058,2.733-4.9,3.996-8.758,4.225c-3.409,0.209-6.958-0.924-9.353-2.862c-2.227-1.919-3.36-4.603-3.509-7.207
	c-0.398-6.78,4.901-12.467,13.201-12.964c12.048-0.705,15.815,7.863,16.313,16.254c0.487,8.092-3.29,17.585-14.603,18.261
	c-6.869,0.407-12.197-2.645-13.449-8.42L314.877,656.922z M326.289,642.597c-0.18-3.081-2.754-6.014-6.79-5.785
	c-3.866,0.238-5.904,3.439-5.716,6.442c0.18,3.121,2.297,6.123,6.452,5.885C324.549,648.88,326.487,645.868,326.289,642.597"/>
<path d="M364.798,630.967l-16.153,3.131l-0.129,7.704l0.129,0.079c1.77-2.227,4.096-3.399,7.167-4.006
	c7.714-1.501,13.042,2.644,14.235,8.759c1.292,6.699-4.364,13.161-12.267,14.553c-7.605,1.471-15.1-0.696-16.541-7.535l7.942-1.53
	c0.954,2.803,3.916,4.314,7.376,3.648c4.135-0.805,6.173-4.344,5.547-7.604c-0.666-3.399-3.698-5.617-7.953-4.791
	c-2.843,0.547-4.254,1.7-5.477,3.768l-7.157,1.382l0.367-18.768l21.859-4.234L364.798,630.967z"/>
<path d="M134.726,603.649l-7.764-6.74l14.215-42.446l7.863,6.799l-3.429,9.226l12.873,11.153l8.747-4.632l7.664,6.64
	L134.726,603.649z M152.072,585.06l-8.927-7.733l-5.597,15.248l0.09,0.08L152.072,585.06z"/>
<polygon points="105.203,576.552 96.823,565.208 113.384,539.711 113.314,539.622 84.418,548.438 76.038,537.097 109.348,512.483 
	114.915,520.028 91.316,537.465 91.386,537.574 121.634,529.104 126.217,535.317 109.487,561.56 109.557,561.659 132.927,544.393 
	138.493,551.938 "/>
<path d="M90.57,504.223c5.03-2.246,5.07-7.435,2.883-12.326c-1.431-3.202-4.463-7.715-8.32-5.985
	c-4.085,1.829-1.988,8.352-0.735,15.131c1.272,6.849,1.879,14.046-5.209,17.217c-7.744,3.459-15.03-2.923-18.39-10.437
	c-3.877-8.688-3.996-18.202,4.731-22.108l3.966,8.848c-4.434,2.336-4.006,6.401-2.058,10.775c1.302,2.902,3.926,5.806,7.107,4.374
	c2.903-1.303,2.386-3.449,0.169-14.961c-0.666-3.341-3.071-13.44,5.497-17.277c6.938-3.091,14.812,0.587,19.861,11.889
	c4.105,9.206,3.827,19.674-5.537,23.719L90.57,504.223z"/>
<polygon points="54.666,464.997 57.926,478.247 50.5,480.076 41.564,443.843 48.989,442.014 52.26,455.274 85.034,447.183 
	87.439,456.925 "/>
<polygon points="39.854,431.327 37.667,397.33 45.312,396.843 46.853,420.84 55.709,420.273 54.288,398.244 61.355,397.787 
	62.767,419.816 72.896,419.17 71.326,394.656 78.96,394.159 81.187,428.673 "/>
<path d="M38.045,382.195l3.092-24.37c1.014-8.102,6.789-12.58,12.992-11.785c4.841,0.611,8.201,3.216,9.403,8.445l0.12,0.025
	c1.769-4.737,6.252-5.582,10.438-5.378c2.614,0.144,7.445,0.815,9.96-0.661l-1.252,9.936c-2.744,0.875-6.7,0.243-10.04,0.333
	c-4.404,0.154-6.531,1.754-7.168,6.75l-1.262,9.936l16.054,2.038l-1.252,9.936L38.045,382.195z M57.886,374.61l1.372-10.89
	c0.577-4.428-0.854-7.053-4.99-7.575c-3.977-0.497-6.014,1.68-6.571,6.119l-1.372,10.88L57.886,374.61z"/>
<path d="M46.524,328.56l6.401-18.574c3.847-11.169,13.082-17.357,26.084-12.888c11.362,3.907,17.604,13.211,13.072,26.363
	l-6.392,18.579L46.524,328.56z M81.704,330.081l2.913-8.449c1.889-5.487,0.626-11.8-8.042-14.772
	c-7.893-2.719-13.986-1.446-17.217,7.973l-2.326,6.75L81.704,330.081z"/>
<path d="M72.598,266.192l5.219-8.847l44.314,6.322l-5.268,8.957l-9.692-1.71l-8.648,14.683l6.143,7.753l-5.139,8.743L72.598,266.192
	z M94.01,279.905l5.984-10.169l-16.014-2.759l-0.06,0.1L94.01,279.905z"/>
<polygon points="93.94,232.254 103.582,221.961 131.645,233.665 131.734,233.576 117.847,206.742 127.499,196.462 157.698,224.779 
	151.287,231.618 129.875,211.558 129.795,211.647 143.573,239.864 138.285,245.496 109.447,233.77 109.368,233.86 130.561,253.731 
	124.149,260.571 "/>
<path d="M162.44,204.818c3.122,4.543,8.221,3.638,12.645,0.602c2.893-1.993,6.779-5.79,4.383-9.285
	c-2.535-3.673-8.579-0.428-15.02,2.028c-6.501,2.496-13.469,4.399-17.873-2.003c-4.801-6.974,0.159-15.314,6.939-19.976
	c7.833-5.383,17.167-7.227,22.594,0.651l-7.992,5.498c-3.092-3.927-7.018-2.769-10.955-0.06c-2.644,1.799-4.99,4.906-3.032,7.769
	c1.819,2.634,3.827,1.74,14.751-2.535c3.171-1.252,12.664-5.467,17.992,2.281c4.295,6.257,2.108,14.667-8.101,21.681
	c-8.3,5.711-18.638,7.327-24.324-1.153L162.44,204.818z"/>
<path d="M215.93,159.811c-2.217-3.534-7.436-4.687-12.008-2.719c-8.26,3.564-8.608,11.298-5.735,17.953
	c2.733,6.332,8.598,11.392,16.859,7.829c5.616-2.431,7.267-7.307,5.815-12.62l8.907-3.837c3.141,9.881-1.441,19.066-11.7,23.48
	c-12.942,5.591-24.344,0.084-29.076-10.88c-4.871-11.297-1.044-23.371,11.898-28.947c9.195-3.971,19.036-2.405,23.947,5.9
	L215.93,159.811z"/>
<polygon points="234.19,138.712 244.021,136.724 247.153,152.311 265.234,148.668 262.083,133.081 271.904,131.107 280.095,171.7 
	270.264,173.679 266.745,156.168 248.664,159.811 252.202,177.322 242.381,179.305 "/>
<polygon points="288.564,129.706 322.631,129.522 322.67,137.176 298.614,137.311 298.664,146.188 320.731,146.063 320.781,153.136 
	298.694,153.26 298.764,163.41 323.326,163.276 323.366,170.93 288.783,171.114 "/>
<polygon points="366.239,135.954 397.035,144.771 394.928,152.132 373.765,146.073 371.13,155.273 389.471,160.527 387.512,167.327 
	369.182,162.073 364.47,178.524 354.838,175.766 "/>
<path d="M428.596,157.992c12.545,6.427,15.567,18.723,9.98,29.663c-5.447,10.637-17.177,15.383-29.732,8.971
	c-12.555-6.426-15.576-18.723-10.148-29.359C404.302,156.327,416.041,151.581,428.596,157.992 M412.323,189.802
	c8.012,4.096,14.195-0.557,17.326-6.705c3.311-6.457,3.459-14.19-4.532-18.281c-8.022-4.105-14.195,0.557-17.506,7.013
	C404.48,177.978,404.321,185.712,412.323,189.802"/>
<path d="M477.244,189.952c10.875,8.957,11.193,21.621,3.38,31.109c-7.595,9.22-20.09,11.327-30.964,2.361
	c-10.885-8.957-11.203-21.621-3.608-30.847C453.874,183.093,466.359,180.985,477.244,189.952 M454.52,217.518
	c6.948,5.721,13.977,2.505,18.37-2.829c4.603-5.591,6.432-13.111-0.517-18.833c-6.939-5.721-13.977-2.505-18.589,3.097
	C449.392,204.271,447.582,211.796,454.52,217.518"/>
<polygon points="504.253,228.462 495.585,217.92 501.489,213.054 525.197,241.882 519.282,246.748 510.614,236.201 484.541,257.638 
	478.179,249.899 "/>
<path d="M532.394,252.568l10.348,18.768c4.185,7.605,4.791,13.977-1.958,17.705c-3.569,1.954-7.128,1.372-10.567-1.253
	c1.412,5.557-0.636,9.896-5.148,12.386c-7.376,4.06-14.305-1.068-18.27-8.276l-10.667-19.33L532.394,252.568z M507.165,277.922
	l5.18,9.384c1.898,3.464,4.592,5.915,8.34,3.852c3.708-2.047,3.757-5.427,1.699-9.175l-5.269-9.558L507.165,277.922z
	 M522.553,269.433l4.891,8.887c1.69,3.066,4.226,4.662,7.287,2.982c3.449-1.903,2.564-5.199,0.825-8.335l-4.523-8.216
	L522.553,269.433z"/>
<path d="M560.158,311.437l3.131,9.782l-34.295,28.809l-3.161-9.916l7.754-6.079l-5.169-16.233l-9.881-0.602l-3.081-9.672
	L560.158,311.437z M535.675,318.237l3.578,11.238l12.733-10.08l-0.039-0.119L535.675,318.237z"/>
<polygon points="570.237,348.745 571.519,358.681 538.04,362.985 540.873,385.013 533.279,385.992 529.163,354.028 "/>
<polygon points="574.651,393.443 574.273,403.443 540.545,402.171 539.71,424.349 532.057,424.06 533.269,391.872 "/>
<path d="M545.009,485.573c4.105,0.637,8.409-2.545,9.931-7.276c2.724-8.568-2.873-13.906-9.771-16.123
	c-6.581-2.088-14.245-0.984-16.969,7.594c-1.858,5.825,0.735,10.259,5.686,12.665l-2.941,9.235
	c-9.523-4.106-13.44-13.6-10.04-24.236c4.284-13.439,15.925-18.42,27.306-14.792c11.721,3.738,18.301,14.544,14.017,27.983
	c-3.042,9.543-10.687,15.945-20.169,14.176L545.009,485.573z"/>
<polygon points="548.915,512.513 544.144,521.32 514.472,505.227 503.885,524.739 497.155,521.102 512.523,492.771 "/>
<path d="M481.837,565.715c-8.678-7.077-8.31-16.163-0.606-25.607c7.744-9.483,16.441-11.621,25.159-4.503l19.961,16.272
	l-6.332,7.754l-19.961-16.263c-3.499-2.863-7.773-4.691-12.893,1.591c-4.513,5.526-3.758,9.105,1.004,12.982l19.95,16.284
	l-6.321,7.764L481.837,565.715z"/>
<path d="M489.898,593.719l-16.591,13.579c-6.72,5.497-12.883,7.237-17.763,1.263c-2.575-3.141-2.654-6.75-0.686-10.607
	c-5.209,2.395-9.851,1.163-13.121-2.833c-5.318-6.501-1.531-14.255,4.851-19.463l17.078-13.978L489.898,593.719z M460.386,573.489
	l-8.28,6.8c-3.072,2.495-5,5.566-2.287,8.906c2.685,3.261,6.024,2.704,9.324,0l8.449-6.908L460.386,573.489z M471.519,587.088
	l-7.843,6.422c-2.724,2.227-3.817,5.01-1.62,7.694c2.495,3.061,5.576,1.59,8.34-0.677l7.267-5.944L471.519,587.088z"/>
<polygon points="306.024,406.905 301.083,411.845 296.43,407.189 301.369,402.25 296.43,397.309 301.083,392.656 306.024,397.595 
	310.963,392.658 315.618,397.309 310.677,402.25 315.616,407.189 310.963,411.845 306.024,406.905 "/>
<polygon style="fill:#FFFFFF;" points="310.963,410.608 314.38,407.189 309.44,402.25 314.38,397.31 310.963,393.893 
	306.024,398.833 301.083,393.893 297.665,397.31 302.607,402.248 297.665,407.189 301.083,410.608 306.024,405.667 310.963,410.608 
	"/>
<polygon points="306.024,358.532 301.083,363.471 296.43,358.816 301.369,353.876 296.43,348.935 301.083,344.282 306.024,349.221 
	310.963,344.284 315.618,348.935 310.677,353.876 315.616,358.816 310.963,363.471 306.024,358.532 "/>
<polygon style="fill:#FFFFFF;" points="310.963,362.235 314.38,358.816 309.44,353.876 314.38,348.937 310.963,345.52 
	306.024,350.459 301.083,345.52 297.665,348.937 302.607,353.875 297.665,358.816 301.083,362.235 306.024,357.293 310.963,362.235 
	"/>
<polygon points="306.024,382.719 301.083,387.658 296.43,383.003 301.369,378.063 296.43,373.122 301.083,368.469 306.024,373.408 
	310.963,368.471 315.618,373.122 310.677,378.063 315.616,383.003 310.963,387.658 306.024,382.719 "/>
<polygon style="fill:#FFFFFF;" points="310.963,386.422 314.38,383.003 309.44,378.063 314.38,373.124 310.963,369.707 
	306.024,374.646 301.083,369.707 297.665,373.124 302.607,378.061 297.665,383.003 301.083,386.422 306.024,381.48 310.963,386.422 
	"/>
</svg>
