<svg xmlns="http://www.w3.org/2000/svg" xml:space="preserve" viewBox="0 0 792 612"><path d="m127.387 172.965 43.519-143.666 473.05 5.468-81.05 195.4-153.26 23.554z" style="fill:#fff"/><path d="m212.213 52.97-46.275 126.827 291.771 141.492L588.746 52.97z"/><path d="m186.245 43.62-46.223 123.609 200.321 97.143L87.047 303.3 31.476 19.731h650.757L580.438 227.474l-46.729 7.181 93.47-191.035z" style="fill:#005b9f"/><path d="m379.163 142.564-11.583-31.82 11.123-4.048 4.236 11.643 11.419-4.154-4.239-11.645 11.145-4.057 11.58 31.822-11.145 4.056-4.288-11.785-11.419 4.156 4.292 11.785zm-18.172-16.569c-1.913-.337-3.76-.441-5.545-.297-1.789.14-3.523.545-5.201 1.224-2.602 1.052-4.4 2.621-5.397 4.699q-1.495 3.123-.043 6.713c.962 2.377 2.528 3.99 4.704 4.823q3.262 1.257 7.167-.322a17 17 0 0 0 4.479-2.673c1.367-1.127 2.656-2.537 3.854-4.222l3.707 8.399a26.1 26.1 0 0 1-4.802 4.393 30.084 30.084 0 0 1-6.004 3.233q-3.66 1.482-7.232 1.552a18.4 18.4 0 0 1-7.006-1.246c-2.285-.874-4.237-2.104-5.868-3.672a17 17 0 0 1-2.137-2.645 18.8 18.8 0 0 1-1.665-3.21q-1.43-3.54-1.335-6.924.098-3.376 1.645-6.718a17.4 17.4 0 0 1 4.291-5.77q2.738-2.422 6.821-4.074a28 28 0 0 1 2.862-.976 24 24 0 0 1 2.944-.615q2.944-.478 6.289-.268zm-51.372 44.197-3.789-8.512q3.049.547 5.516.43 2.462-.113 4.032-.814 1.596-.71 2.207-1.62.617-.905.132-1.992c-.335-.752-1.78-1.227-4.345-1.429l-1.595-.137q-4.693-.487-7.32-1.951-2.625-1.467-3.846-4.21-1.843-4.133.012-8.123c1.23-2.658 3.408-4.686 6.515-6.07 1.961-.87 3.879-1.406 5.739-1.598q2.799-.295 5.851.442l3.634 8.156q-3.397-1.028-5.712-1.113-2.315-.08-4.148.734-1.307.583-1.83 1.438c-.343.568-.38 1.173-.097 1.809q.345.77 1.335 1.201c.657.257 2.094.465 4.302.63 4.262.277 7.157.854 8.697 1.735 1.543.873 2.739 2.29 3.607 4.234 1.312 2.949 1.251 5.717-.195 8.303-1.448 2.588-4.165 4.77-8.163 6.548-.837.374-1.663.685-2.47.944-.804.249-1.647.456-2.537.608-.881.154-1.774.268-2.675.328-.895.066-1.852.08-2.857.029m-48.424 7.746c-1.156-2.27-1.798-4.528-1.932-6.783-.129-2.249.222-4.543 1.061-6.869a18.3 18.3 0 0 1 3.657-5.994 20.3 20.3 0 0 1 2.693-2.428 21.6 21.6 0 0 1 3.252-2.013q3.495-1.782 7.078-2.21a17.7 17.7 0 0 1 7.057.578c2.316.671 4.356 1.729 6.131 3.176a17.8 17.8 0 0 1 2.375 2.476 18.8 18.8 0 0 1 1.949 3.088q1.716 3.373 1.951 6.724c.152 2.239-.2 4.521-1.067 6.846q-1.185 3.325-3.662 6.081a21.3 21.3 0 0 1-2.702 2.433 21.4 21.4 0 0 1-3.22 1.995c-2.345 1.193-4.701 1.923-7.069 2.176a18.3 18.3 0 0 1-7.089-.63c-2.35-.673-4.405-1.727-6.164-3.146a17 17 0 0 1-2.359-2.448 18.6 18.6 0 0 1-1.94-3.052m10.463-5.386q1.473 2.89 4.2 3.902c1.82.681 3.623.56 5.406-.347q2.649-1.351 3.449-4.136.795-2.783-.7-5.715-1.48-2.907-4.199-3.903-2.727-.989-5.372.359-2.68 1.364-3.471 4.148c-.532 1.855-.3 3.752.687 5.692M233.9 212.52l-16.415-29.615 13.081-7.251c4.442-2.463 8.11-3.709 10.991-3.741 2.879-.033 4.977 1.145 6.288 3.514q1.224 2.202.799 4.636-.423 2.434-2.483 4.798 3.775-1.07 6.624-.129c1.899.628 3.369 1.888 4.419 3.778 1.557 2.807 1.615 5.537.183 8.194-1.432 2.656-4.324 5.197-8.67 7.603zm7.274-10.896 2.14-1.186c2.014-1.119 3.298-2.177 3.842-3.178.542-1.005.465-2.123-.225-3.371q-1.091-1.966-2.824-2.152c-1.158-.122-2.681.337-4.571 1.386l-2.352 1.304zm-6.947-12.529 2.032-1.126q2.94-1.633 3.562-2.945.612-1.309-.41-3.153-.949-1.716-2.42-1.823c-.981-.072-2.38.391-4.204 1.401l-2.14 1.187zM177.045 245.687l-16.931-29.326 9.223-5.326 21.583 7.131-8.482-14.692 10.045-5.8L209.414 227l-9.225 5.326-21.574-7.106 8.47 14.671zm-29.275 19.241-17.944-28.718 20.976-13.108 3.911 6.261-11.103 6.937 3.132 5.015 10.672-6.67 3.76 6.016-10.674 6.67 3.232 5.17 11.476-7.173 3.911 6.26zm-38.356 26.182-18.936-28.071 13.924-9.393c2.46-1.661 4.819-2.81 7.071-3.439q3.372-.948 7.098-.511c2.482.29 4.664 1.008 6.538 2.159q2.813 1.721 4.953 4.895 2.136 3.168 2.69 6.416.553 3.246-.426 6.946c-.653 2.346-1.7 4.457-3.149 6.325-.708.912-1.557 1.81-2.539 2.706a29 29 0 0 1-3.298 2.575zm-4.292-27.523 9.282 13.761 3.632-2.448c1.968-1.329 3.149-3.053 3.554-5.169a7.45 7.45 0 0 0-.058-3.133c-.24-1.032-.704-2.064-1.401-3.098-1.376-2.043-3.124-3.278-5.236-3.717-2.114-.435-4.158.018-6.141 1.354z" style="fill:#fff"/><path d="M73.816 289.954c-1.936.169-3.746.548-5.437 1.148a17.5 17.5 0 0 0-4.704 2.527q-3.36 2.537-3.997 5.94c-.426 2.266.142 4.431 1.695 6.495 1.544 2.048 3.474 3.199 5.792 3.439 2.319.25 4.596-.476 6.84-2.163a17.2 17.2 0 0 0 3.635-3.742q1.547-2.167 2.63-5.078l5.754 7.152a26 26 0 0 1-3.5 5.487 30 30 0 0 1-2.277 2.413 31 31 0 0 1-2.687 2.265c-2.1 1.585-4.297 2.708-6.582 3.371-2.29.662-4.655.869-7.091.611-2.431-.254-4.639-.936-6.618-2.029a16.7 16.7 0 0 1-2.749-2 19 19 0 0 1-2.44-2.67q-2.296-3.05-3.079-6.344c-.521-2.194-.571-4.496-.153-6.917a17.4 17.4 0 0 1 2.653-6.684c1.347-2.031 3.189-3.931 5.534-5.699a27 27 0 0 1 2.511-1.683c.871-.51 1.767-.968 2.687-1.357q2.718-1.223 6.003-1.888zm-36.771 57.951-21.311-26.316 19.224-15.567 4.644 5.736-10.175 8.239 3.873 4.781 9.67-7.828 4.522 5.584-9.67 7.828 8.271 10.216z"/><path d="M479.293 6.258c36.892 0 66.986 30.093 66.986 66.986 0 36.895-30.094 66.987-66.986 66.987-36.896 0-66.987-30.091-66.987-66.987 0-36.893 30.091-66.986 66.987-66.986" style="fill:#fff"/><path d="m443.882 43.577-12.235-2.713a57.04 57.04 0 0 0-9.739 25.788l7.905 4.498 13.611-10.851zM516.513 62.113l12.84 13.742 6.829-1.886v-4.202c0-11.162-4.582-21.41-10.744-29.928l-8.701 3.575zM491.828 122.103l7.915 4.819c10.487-4.089 19.47-11.166 25.912-20.193l-.087-8.501-21.961 2.736zM456.266 98.869l-19.113-3.101-4.876 11.126c6.652 9.255 15.978 16.455 26.861 20.448l5.371-9.739zM498.011 26.732l-2.084-8.138a57.4 57.4 0 0 0-17.021-2.568c-5.9 0-11.591.895-16.946 2.548l1.347 7.756 16.792 8.031zM461.833 61.754l6.572 22.378h22.428l8.586-19.536-19.275-16.66z"/></svg>