<svg xmlns="http://www.w3.org/2000/svg" width="1000" height="1000" viewBox="0 0 1000 1000"><path fill="#acabb4" d="M1877.682 466.836H1602.48l76.185-61.476h270.364ZM2007.678 354.837l-420.436-.004 86.34-82.521 429.881.003ZM2152.508 230.05H1574.54l93.966-77.287 573.727.003ZM2407.521.2l-129.717 111.75-743.895-.007V.2ZM1811.512 513.678l-64.278 55.384h-119.366l59.447-55.384Z"/><path fill="#fff" stroke="#ed5f42" stroke-width="5.07790082" d="m1305.345 523.348 139.676 78.729 12.703 144.755-114.287 81.269-128.249-62.223-11.427-140.942Z"/><path fill="#fff" stroke="#ed5f42" stroke-width="5.07790082" d="m1508.513 320.186-132.058-30.474-101.584 118.513 30.474 115.123 148.98 44.02 101.584-101.588Z"/><path fill="#ed5f42" d="m1373.062 262.631-40.636-142.22h135.45l44.03 142.22ZM1501.727 733.29l115.13-84.653-37.237-145.6-111.743 84.649ZM1132.65 408.225h142.22l30.475 115.123-101.584 101.588-101.585-101.588ZM1098.79 858.578 1217.303 950l108.363-98.201-121.905-74.49ZM902.394 733.29l-115.126-84.653 37.243-145.6 111.747 84.649ZM1034.452 262.631l40.637-142.22H939.644l-44.022 142.22Z"/><path fill="#fff" stroke="#ed5f42" stroke-width="5.07790082" d="m899.008 320.186 132.058-30.474 101.584 118.513-30.474 115.123-148.986 44.02L851.605 465.78ZM1132.65 137.333l-68.566 132.061 68.566 138.831h142.22l66.033-138.83-66.032-132.062Z"/><path fill="#fff" stroke="#ed5f42" stroke-width="5.07790082" d="M1102.176 523.348 962.5 602.077l-12.697 144.755 114.28 81.269 128.25-62.223 11.428-140.942Z"/><path fill="#acabb4" d="M529.846 466.836h275.196l-76.188-61.476-270.371-.003ZM399.843 354.83l420.436.003-86.34-82.521-429.885-.003ZM255.006 230.046l577.976.004-93.966-77.287-573.727-.003ZM0 .197l129.711 111.746h743.9V.197ZM596.003 513.678l64.285 55.384h119.365l-59.44-55.384Z"/><path fill="#ed5f42" d="M1020.802 109.4h-80.755V0h79.69v13.103h-64.908v33.523h59.886v13.106h-59.886v36.561h65.97V109.4zM1125.635 109.4V44.8c0-3.206.308-17.076.308-27.281h-.308l-30.776 91.88h-14.627l-30.779-91.72h-.308c0 10.045.308 23.915.308 27.12v64.6h-14.325V0h21.18l31.231 92.484h.308L1118.931 0h21.03v109.4zM1247.99 109.4V44.8c0-3.206.308-17.076.308-27.281h-.308l-30.779 91.88h-14.627l-30.782-91.72h-.302c0 10.045.302 23.915.302 27.12v64.6h-14.323V0h21.184l31.231 92.484h.308L1241.292 0h21.017v109.4zM1362.582 109.4h-80.771V0h79.699v13.103h-64.918v33.523h59.88v13.106h-59.88v36.561h65.987V109.4zM1449.886 0h14.32v109.4H1447.6l-55.614-88.374h-.295V109.4h-14.326V0h17.522l54.703 88.376h.295z"/></svg>