<svg xmlns="http://www.w3.org/2000/svg" viewBox="0 0 612 792"><path d="m369.307 214.691-.616-3.693H65.997l-.616 3.693c-.112.667-11 67.73 1.892 151.424 7.581 49.211 21.769 94.52 42.175 134.67 25.55 50.274 60.957 92.533 105.265 125.6l2.649 1.977 2.645-1.977c44.277-33.066 79.685-75.325 105.236-125.6 20.402-40.15 34.594-85.458 42.174-134.671 12.89-83.693 2.001-150.755 1.89-151.423"/><path fill="#fff" d="M364.657 276.872c-.184-28.416-2.485-49.004-3.545-57.03H73.576c-1.06 8.026-3.36 28.614-3.544 57.03z"/><path fill="#ee3124" d="M211.883 560.098c-54.895-56.228-80.11-117.055-91.611-158.465-12.681-45.646-11.94-77.404-11.903-78.733l.112-3.939h103.404v-31.17H70.067c1.112 86.088 22.687 230.712 141.816 325.239zM222.81 287.79v31.17h103.234l.276 3.755c.021.287.835 33.104-11.892 78.917-11.504 41.413-36.722 102.248-91.62 158.479v52.939c119.126-94.527 140.701-239.166 141.813-325.261z"/><path fill="#ee3124" d="m222.81 412.106-.001 136.248c43.241-46.35 66.896-95.633 79.835-136.248zM211.884 401.179v-74.111h-95.376c.252 9.93 1.942 37.785 12.256 74.111z"/><path fill="#fff" d="M305.935 401.18c10.313-36.328 12.004-64.183 12.255-74.113h-95.38v74.111zM132.056 412.106c12.941 40.611 36.591 89.885 79.829 136.231V412.106z"/><path d="M106.426 254.706c.575 0 1.044-.463 1.044-1.028v-6.472c0-.565-.469-1.028-1.044-1.028H93.88a1.04 1.04 0 0 1-1.045-1.027v-5.194c0-.565.468-1.026 1.045-1.026h12.545c.575 0 1.044-.463 1.044-1.028v-8.18c0-.565-.469-1.026-1.044-1.026h-22.71c-.574 0-1.045.461-1.045 1.026v39.73c0 .565.471 1.026 1.045 1.026h22.71c.575 0 1.044-.461 1.044-1.026v-6.472c0-.565-.469-1.026-1.044-1.026H93.88a1.04 1.04 0 0 1-1.045-1.028v-5.193c0-.566.468-1.027 1.045-1.027h12.546zM204.402 254.706a1.04 1.04 0 0 0 1.044-1.028v-6.472a1.04 1.04 0 0 0-1.044-1.028h-12.547a1.04 1.04 0 0 1-1.045-1.027v-5.194a1.04 1.04 0 0 1 1.045-1.028h12.547c.573 0 1.044-.461 1.044-1.026v-8.18c0-.565-.471-1.026-1.044-1.026l-22.71-.001a1.04 1.04 0 0 0-1.045 1.028v39.73c0 .565.47 1.026 1.045 1.026h22.71c.573 0 1.044-.461 1.044-1.026v-6.472c0-.565-.471-1.026-1.044-1.026h-12.547a1.04 1.04 0 0 1-1.045-1.028v-5.193c0-.566.471-1.027 1.045-1.027h12.547zM221.3 229.728a1.04 1.04 0 0 0-1.044-1.028l-8.075-.003c-.575 0-1.045.461-1.045 1.025v39.731c0 .565.471 1.026 1.045 1.026h21.5c.575 0 1.046-.461 1.046-1.026v-6.472a1.04 1.04 0 0 0-1.046-1.028h-11.337a1.04 1.04 0 0 1-1.044-1.027zM175.769 238.826v-10.129h-22.36c-2.567 1.111-4.621 3.244-5.692 5.908v29.969c1.071 2.664 3.124 4.795 5.692 5.905h22.36v-10.127h-18.295v-21.526z"/><path d="m148.162 269.051-13.233-18.82c-.24-.343-.24-.942 0-1.284l13.233-18.821c.238-.339.289-.696.14-.981s-.472-.448-.888-.448h-8.074c-.693 0-1.549.442-1.947 1.009l-8.15 11.592c-.088.126-.193.196-.297.196s-.21-.07-.299-.196l-8.15-11.592c-.398-.566-1.253-1.009-1.947-1.009h-8.073c-.418 0-.74.163-.888.448s-.097.642.14.982l13.233 18.82c.241.342.241.94 0 1.284l-13.233 18.82c-.238.339-.289.698-.141.983.149.284.472.446.89.446h8.073c.694 0 1.549-.442 1.947-1.006l8.15-11.596c.089-.125.195-.194.299-.194s.208.069.297.194l8.151 11.596c.398.564 1.253 1.006 1.947 1.006h8.073c.417 0 .742-.163.89-.446.147-.285.094-.644-.143-.983M280.654 269.453c0 .565-.47 1.026-1.043 1.026h-6.449a1.04 1.04 0 0 1-1.044-1.026v-39.73c0-.565.47-1.028 1.044-1.028h6.449a1.04 1.04 0 0 1 1.043 1.028zM249.251 243.931c-.951 0-1.729-.833-1.729-1.852v-2.392c0-1.018.778-1.85 1.729-1.85h13.007c.951 0 1.727-.833 1.727-1.852v-5.439c0-1.018-.776-1.852-1.727-1.852h-21.546c-.95 0-1.727.834-1.727 1.852v20.671c0 1.02.776 1.853 1.727 1.853h13.213c.95 0 1.727.833 1.727 1.852v4.566c0 1.019-.778 1.852-1.727 1.852H240.51c-.951 0-1.729.833-1.729 1.85v5.44c0 1.017.778 1.849 1.729 1.849h21.951c.951 0 1.729-.832 1.729-1.849v-22.848c0-1.019-.778-1.852-1.729-1.852h-13.21zM341.409 256.552h3.68c1.902 0 3.458-1.613 3.458-3.587v-20.679c0-1.974-1.556-3.59-3.458-3.59h-20.324c-1.901 0-3.456 1.616-3.456 3.59l.012 38.194h8.933v-13.927h2.617l10.799 13.927h8.536zm-1.4-9.813c0 .986-.777 1.794-1.728 1.794h-6.707c-.951 0-1.729-.807-1.729-1.794v-7.807c0-.988.778-1.795 1.729-1.795h6.707c.95 0 1.728.807 1.728 1.795zM312.667 228.697h-22.354c-1.903 0-3.458 1.582-3.458 3.519v34.748c0 1.935 1.555 3.516 3.458 3.516h22.354c1.902 0 3.457-1.581 3.457-3.516v-34.748c0-1.937-1.555-3.519-3.457-3.519m-5.281 29.681c0 .97-.779 1.759-1.727 1.759h-8.335c-.951 0-1.729-.789-1.729-1.759v-17.579c0-.968.778-1.76 1.729-1.76h8.335c.949 0 1.727.793 1.727 1.76zM270.482 390.1l1.526.269-.443-1.486c-.141-.477-3.44-11.284-10.839-16.198l3.91-3.375c1.108 2.81 5.435 12.42 13.129 13.777l1.274.225-.157-1.282c-.051-.424-1.362-10.204-10.448-15.994l2.915-2.514c1.3 2.378 6.46 10.967 14.061 12.702l1.562.355-.425-1.541c-.099-.361-2.484-8.73-10.635-15.45q1.034-.894 2.055-1.774c1.74 2.925 6.925 10.779 13.793 13.463l1.56.604-.264-1.649c-.077-.478-1.92-11.226-10.923-16.011q1.284-1.105 2.521-2.173c1.078 1.811 4.678 7.417 9.76 10.569l1.289.799.169-1.507c.035-.29.688-7.118-6.683-13.773q1.437-1.238 2.738-2.361c.892 1.526 3.151 5.191 6.25 8.794l1.317 1.534.352-1.991c.064-.359 1.402-8.299-2.794-12.757 2.359-2.036 3.755-3.237 3.755-3.237 1.458-1.26 1.678-3.403.49-4.781-1.186-1.375-3.341-1.474-4.798-.217l-3.758 3.243c-3.771-4.872-11.887-4.719-12.251-4.708l-2.021.054 1.32 1.53c3.158 3.653 6.503 6.458 7.842 7.531l-2.757 2.377c-5.502-8.339-12.389-8.699-12.682-8.71l-1.515-.055.599 1.392c2.403 5.564 7.518 10 9.081 11.268l-2.557 2.207c-3.375-9.68-13.795-13.107-14.254-13.252l-1.596-.506.373 1.632c1.652 7.256 8.777 13.591 11.348 15.685l-2.079 1.792c-5.445-9.114-13.418-12.726-13.759-12.878l-1.465-.643.125 1.594c.603 7.884 8.54 14.316 10.566 15.838l-2.951 2.544c-4.368-9.916-13.909-12.669-14.322-12.783l-1.245-.344.034 1.294c.211 7.906 9.292 13.643 11.781 15.066l-3.96 3.414c-3.734-8.097-14.016-12.992-14.467-13.204l-1.404-.655.039 1.548c.227 8.501 8.734 14.606 11.273 16.243l-3.263 2.815c-2.845-6.564-11.535-11.082-11.921-11.279l-1.363-.7-.029 1.535c-.14 7.475 5.161 12.896 7.846 15.16l-1.619 1.395c-2.379-4.179-8.819-8.504-9.109-8.697l-1.538-1.024.049 1.847c.175 6.465 4.548 11.255 5.527 12.25l-.868.745c-1.457 1.26-1.678 3.402-.49 4.778s3.341 1.475 4.798.221l.858-.743c.988 1.284 5.036 6.087 11.234 7.179l1.82.324-.786-1.674c-.149-.315-3.428-7.213-7.177-10.222.509-.435 1.035-.889 1.593-1.371 1.882 3.022 6.446 8.948 13.781 9.9l1.52.198-.49-1.453c-.136-.408-3.291-9.577-9.303-13.393 1.033-.894 2.108-1.822 3.216-2.774 1.303 2.859 6.069 11.986 14.359 13.449"/><path fill="#fff" d="M269.15 387.775c-6.878-2.351-10.855-10.915-11.511-12.432q.778-.668 1.573-1.353c5.464 3.341 8.707 10.538 9.938 13.785M276.685 380.827c-6.668-2.368-10.308-12.3-10.504-12.849l.744-.642c6.727 4.031 9.044 10.61 9.76 13.491M284.06 373.773c-6.27-2.571-10.576-10.309-11.226-11.535q.807-.692 1.609-1.384c5.678 4.582 8.482 10.138 9.617 12.919M290.705 368.646c-5.645-3.127-9.958-9.89-11.261-12.104q.563-.49 1.125-.974c6.494 3.081 9.181 9.789 10.136 13.078M293.899 359.918c-4.197-3.232-7.147-8.064-7.774-9.143q.817-.702 1.602-1.38c4.656 4.119 5.878 8.248 6.172 10.523M298.16 351.527a63 63 0 0 1-4.758-7.025q1.174-1.011 2.192-1.892c2.356 2.453 2.65 6.427 2.566 8.917M282.796 333.706c2.495.285 6.419 1.176 8.483 3.915l-2.172 1.872a62 62 0 0 1-6.311-5.787M273.869 336.681c2.215.627 6.149 2.457 9.545 7.723l-1.582 1.366c-.824-.652-5.323-4.349-7.963-9.089M264.765 338.554c3.126 1.434 9.411 5.104 11.471 12.041l-1.09.939c-1.926-1.551-8.094-6.869-10.381-12.98M258.715 344.374c2.596 1.535 7.71 5.15 11.409 11.492l-1.581 1.364c-.727-.529-8.157-6.058-9.828-12.856M261.858 362.934c-.105-.054-9.814-5.207-11.206-12.308 2.752 1.138 8.964 4.415 11.943 11.733l-.794.684zM242.668 357.052c3.046 1.706 9.747 6.011 12.212 11.959l-1.525 1.316c-1.176-.723-9.352-5.993-10.687-13.275M237.253 365.72c2.649 1.608 8.095 5.381 9.792 10.048l-2.462 2.123c-2.128-1.767-6.678-6.187-7.33-12.171M233.033 374.698c2.141 1.613 5.661 4.538 6.959 7.153l-2.126 1.833c-.497-.501-3.914-4.089-4.833-8.986M250.28 394.703c-4.535-1.57-7.516-5.238-8.111-6.019l2.153-1.852c2.362 1.704 4.692 5.547 5.958 7.871M259.782 391.85c-5.747-1.507-9.432-6.542-10.904-8.948q1.194-1.034 2.503-2.159c4.311 2.403 7.209 8.27 8.401 11.107M238.606 389.229c-.658.567-1.599.56-2.096-.017-.5-.579-.368-1.51.29-2.079l60.946-52.56c.661-.567 1.6-.561 2.1.015.497.577.367 1.511-.292 2.079 0 0-36.398 31.387-52.936 45.654l-.21.1c.005.008.021.043.028.058z"/><path d="m184.251 464.304 1.219.217-.354-1.189c-.112-.382-2.753-9.027-8.672-12.96l3.129-2.698c.888 2.247 4.347 9.935 10.503 11.021l1.019.179-.126-1.025c-.04-.338-1.088-8.166-8.358-12.796l2.333-2.009c1.041 1.901 5.168 8.773 11.249 10.159l1.248.287-.339-1.234c-.081-.287-1.987-6.983-8.509-12.361q.827-.712 1.643-1.417c1.393 2.34 5.542 8.624 11.036 10.77l1.247.484-.213-1.323c-.059-.379-1.534-8.978-8.736-12.807q1.027-.883 2.016-1.738c.861 1.45 3.743 5.934 7.81 8.457l1.029.638.136-1.204c.027-.233.549-5.696-5.347-11.018q1.15-.991 2.19-1.89c.714 1.22 2.521 4.152 5.001 7.036l1.054 1.227.281-1.594c.051-.287 1.122-6.639-2.235-10.206 1.888-1.628 3.005-2.589 3.005-2.589 1.167-1.006 1.341-2.722.392-3.824s-2.672-1.179-3.837-.174l-3.009 2.594c-3.017-3.898-9.507-3.775-9.801-3.766l-1.616.043 1.058 1.225c2.524 2.921 5.201 5.166 6.271 6.024l-2.204 1.901c-4.403-6.673-9.913-6.958-10.147-6.967l-1.212-.044.479 1.114c1.923 4.452 6.015 8.001 7.268 9.014l-2.048 1.765c-2.699-7.742-11.036-10.487-11.403-10.601l-1.276-.405.297 1.307c1.323 5.806 7.021 10.873 9.079 12.548l-1.662 1.433c-4.356-7.293-10.736-10.182-11.008-10.302l-1.172-.515.098 1.275c.484 6.307 6.833 11.452 8.454 12.671l-2.361 2.035c-3.494-7.933-11.125-10.135-11.456-10.225l-.997-.276.027 1.036c.169 6.325 7.434 10.912 9.427 12.052l-3.17 2.733c-2.985-6.479-11.212-10.397-11.573-10.566l-1.122-.523.032 1.239c.182 6.8 6.986 11.687 9.018 12.995l-2.611 2.25c-2.275-5.25-9.228-8.864-9.536-9.023l-1.091-.559-.023 1.229c-.112 5.981 4.128 10.316 6.275 12.128l-1.294 1.117c-1.902-3.345-7.055-6.804-7.287-6.96l-1.233-.818.042 1.476c.139 5.173 3.637 9.007 4.42 9.801l-.693.596c-1.166 1.008-1.341 2.722-.393 3.823.95 1.101 2.675 1.18 3.839.176l.688-.594c.79 1.027 4.029 4.87 8.987 5.744l1.458.258-.628-1.337c-.121-.253-2.745-5.771-5.743-8.178q.608-.519 1.274-1.098c1.504 2.419 5.158 7.158 11.025 7.921l1.216.156-.392-1.161c-.11-.326-2.633-7.662-7.442-10.716l2.571-2.219c1.04 2.285 4.853 9.586 11.486 10.755"/><path fill="#fff" d="M183.183 462.445c-5.501-1.88-8.683-8.732-9.208-9.943q.621-.538 1.258-1.085c4.372 2.673 6.966 8.431 7.95 11.028M189.211 456.886c-5.332-1.895-8.246-9.84-8.402-10.278l.595-.514c5.382 3.224 7.235 8.488 7.807 10.792M195.112 451.243c-5.016-2.057-8.462-8.247-8.98-9.228q.646-.555 1.285-1.106c4.542 3.663 6.789 8.108 7.695 10.334M200.428 447.142c-4.516-2.501-7.967-7.913-9.008-9.684q.45-.392.9-.776c5.194 2.461 7.344 7.83 8.108 10.46M202.983 440.159c-3.357-2.584-5.717-6.45-6.219-7.313q.654-.562 1.282-1.104c3.725 3.293 4.702 6.599 4.937 8.417M206.392 433.446a50 50 0 0 1-3.805-5.62q.94-.808 1.753-1.512c1.884 1.964 2.119 5.142 2.052 7.132M194.102 419.191c1.997.226 5.135.939 6.786 3.131l-1.737 1.498a50 50 0 0 1-5.049-4.629M186.959 421.569c1.771.502 4.918 1.966 7.636 6.18l-1.266 1.091c-.659-.522-4.257-3.478-6.37-7.271M179.676 423.069c2.501 1.146 7.528 4.082 9.177 9.632l-.871.751c-1.542-1.241-6.476-5.495-8.306-10.383M174.836 427.724c2.076 1.228 6.168 4.121 9.128 9.195l-1.266 1.09c-.581-.423-6.524-4.845-7.862-10.285M177.351 442.573c-.084-.044-7.853-4.167-8.965-9.847 2.203.911 7.173 3.531 9.556 9.386l-.635.548zM161.999 437.867c2.438 1.366 7.797 4.808 9.77 9.567l-1.22 1.054c-.941-.579-7.483-4.796-8.55-10.621M157.666 444.801c2.121 1.287 6.476 4.306 7.835 8.04l-1.97 1.699c-1.703-1.415-5.342-4.953-5.865-9.739M154.292 451.982c1.711 1.29 4.528 3.633 5.566 5.724l-1.699 1.465c-.399-.4-3.133-3.27-3.867-7.189M168.087 467.988c-3.627-1.258-6.012-4.192-6.487-4.817l1.721-1.483c1.891 1.368 3.755 4.441 4.766 6.3M175.689 465.705c-4.596-1.205-7.544-5.233-8.723-7.158q.958-.828 2.003-1.727c3.45 1.922 5.766 6.616 6.72 8.885M158.749 463.609c-.526.452-1.28.446-1.677-.015-.4-.461-.294-1.208.233-1.66-.003 0 48.756-42.051 48.756-42.051.527-.453 1.28-.449 1.679.011.398.462.295 1.208-.232 1.664.001-.002-29.12 25.109-42.349 36.522l-.167.081c.002.007.016.034.021.046z"/><path d="M198.428 368.507c-.037-.19-.21-.377-.369-.483-.412-.279-.996-.275-1.523-.206 0-.269.21-.471.304-.698q.123-.313.249-.634l.118-.431c.071-.256.187-.554.183-.838-.012-.745-.67-1.277-1.33-1.418-.256-.055-.583-.024-.86-.024-.386 0-.891-.067-1.191.109-.413 0-.679.211-1.008.369q-.337.13-.674.266c-.412.237-.775.554-1.148.865-.178.146-.378.264-.554.422-.14.163-.281.32-.422.479q-.273.27-.545.536c-.24.299-.61.895-.716 1.257-.244.844-.4 1.74-.548 2.63-.09.543.062 1.072-.254 1.497a1.24 1.24 0 0 1-.561.436l-.356.121c-.522 0-.934.255-1.375.425-.612.234-1.264.424-1.826.751-.233.133-.413.315-.626.484 0 .054-.021.037-.071.037 0-.257-.105-.463-.179-.688-.107-.318-.183-.631-.285-.941-.08-.243-.116-.51-.206-.748q-.326-.736-.652-1.473c-.096-.165-.203-.324-.288-.491-.254-.507-.394-.967-.756-1.421l-.217-.21c-.086-.095-.146-.206-.251-.288l-.297-.215c-.334-.295-.725-.623-1.201-.638-.049-.106-.097-.217-.144-.325-.226-.457-.502-.96-.974-1.226v-.036c-.049 0-.037.011-.037-.037.067 0 .129-.14.147-.194.054-.168.024-.376.095-.535q.155-.337.308-.676c.146-.269.318-.484.37-.802.067-.4-.028-.807-.151-1.141-.23-.623-.887-1.14-1.564-1.193-.316-.025-.715.055-.999-.042l-.027-.011-.342-.464q-.36-.454-.72-.904c-.165-.192-.405-.388-.489-.619-.139-.375-.132-.795-.132-1.252 0-.688.026-1.3.162-1.911.038-.176.156-.316.207-.482.096-.327.147-.632.226-.962.076-.317.192-.651.253-.982q.01-.302.018-.608c0-.543.004-.983-.311-1.354-.132-.155-.368-.221-.555-.27v-.037c.198-.175.417-.121.685-.16.365-.054.673-.416.782-.747.128-.388.091-1.059.058-1.478q-.01-.268-.024-.537c-.264-1.606-1.414-3.689-3.232-3.864v-.038c.085 0 .237-.347.274-.42.082-.172.219-.311.299-.483q.176-.471.355-.942l.244-.685c.081-.433.019-.95.019-1.403 0-.432.069-1.013-.025-1.402-.093-.379-.248-.661-.428-.989q-.12-.192-.238-.385l-.343-.234q-.138-.15-.278-.296a4.4 4.4 0 0 0-1.357-.813c-.254-.1-.491-.114-.793-.153-.248-.034-.488-.125-.722.012q-.558.01-1.118.015c-.303.044-.56.176-.836.267-.33.102-.622.202-.921.359-.164.085-.281.236-.425.353-.596.479-1.113 1.085-1.265 1.828a6.4 6.4 0 0 0-.128 1.367l.012.758.087.433c.016.203.002.406.071.583.3.782.388.871 1.308.9.1.002.263-.012.33.063.143.16.245.992.344 1.26.149.406.431.698.735 1.02.047 0 .036-.011.036.037-.078 0-.382.426-.433.507-.178 0-.791-.373-.977-.467-.304-.152-.716-.226-.95-.492l-.156-.312a6.6 6.6 0 0 1-.42-1.109c-.077-.251-.202-.461-.296-.697-.194-.468-.353-.924-.54-1.393l-.297-.631c-.019-.172.194-.385.253-.543.066-.184.069-.422.055-.639-.019-.27-.3-.745-.272-.898.035-.187.509-.533.665-.667l1.443-1.297q2.998-2.69 5.992-5.38.438-.39.875-.785c.231-.191.508-.351.659-.627.106-.201.13-.475.171-.705.093-.521-.059-.65-.502-.793-.257.192-.566.335-.817.523-.211.156-.393.362-.607.502l-.655.369c-.433.31-.795.684-1.222 1.005-.188.139-.379.273-.566.411l-1.741 1.726c-.487.427-1.014.799-1.528 1.184q-.943.767-1.889 1.535-.733.547-1.467 1.1l-.503.499c-.502.349-1.274.637-1.479 1.293-.145.473-.011.94.189 1.319.106.205.295.363.281.627-.018.363-.225.673-.187 1.081.04.426.261.777.389 1.156.055.163.028.363.042.543q.047.252.089.506c.003.174-.055.308-.081.471l-.032.392-.083.364-.024.429c-.032.187-.09.372-.083.58.011.328.139.632.273.907l.147.324c.463.694 1.218.984 2.061.684 0 .047.01.043.034.073.382.513.813.961 1.375 1.261q.554.294 1.107.592c.099.091.073.262.113.386.058.185.167.284.255.453.076.147.044.311.206.413.397.247 1.04.179 1.567.179 0 .487.001.95.044 1.406.04.419.121.824.136 1.265a.7.7 0 0 0-.326.071c-.386 0-.747.109-1.09.199l-.354.09q-.107.02-.215.037c-.436 0-1.051.094-1.396-.099-.271-.149-.286-.593-.46-.832-.11-.154-.278-.194-.397-.319-.211-.226-.418-.541-.69-.71q-.266-.13-.533-.259l-.681-.215c-.268-.057-.973-.099-1.104-.338l-.11-.614c-.081-.253-.273-.444-.346-.701q-.142-.701-.285-1.399-.133-.4-.264-.802c-.09-.287-.165-.652-.362-.881l-.294-.243c-.215-.195-.399-.431-.661-.533q-.12-.029-.242-.06l-.344-.161c-.237-.081-.462-.11-.653-.273-.242-.206-.153-.697-.178-1.017-.024-.307-.124-.701-.343-.912-.322-.314-.782-.438-1.148-.666l-.417-.402c-.29-.228-.568-.482-.874-.673-.136-.071-.271-.148-.408-.221-.171-.105-.335-.222-.528-.277q-.301-.064-.605-.125c-.433-.028-.839.023-1.179-.172q-.162-.108-.321-.215c-.109-.103-.183-.222-.304-.31q-.226-.118-.454-.238-.357-.322-.716-.648c-.148-.148-.191-.332-.341-.487-.479-.497-1.366-.768-2.131-.627-.536.097-.829.94-.858 1.426-.014.207.059.394.083.579q.018.214.032.427l.143.374q.077.32.152.645c.019.214-.058.357-.083.54-.023.148-.023.294-.065.426l-.256.769q-.025.232-.051.465-.153.411-.308.823c-.074.188-.202.349-.254.552-.051.186-.04.406-.067.608q-.041.199-.085.401c-.051.533.143.958.085 1.476-.096.834-.486 1.54-.62 2.349-.172 1.042.175 2.037.589 2.818.154.293.246.538.526.775.586.5 1.873.269 2.505-.038.178-.087.468-.361.694-.303.251.065.741.258.911.452.099.113-.035.533-.041.698-.007.248.023.478.121.677.184.381.426.778.791 1.036.198.139.491.203.635.418-.054 0-.059.059-.075.105-.146.351-.275.72-.386 1.087-.094.293-.186.615-.368.864v.035c-.192 0-.395-.187-.551-.273q-.459-.234-.915-.468c-.165-.108-.269-.275-.427-.393a3 3 0 0 0-.679-.363c-.487-.198-1.02-.369-1.58-.404-.25-.018-.449.101-.683.051l-.369-.152q-.27-.057-.539-.112c-1.79-.264-3.056.051-3.707 1.685l-.284 1.072c-.087.245-.178.486-.265.73h-.036c0-.147-.71-.106-.83-.036-.22 0-.482.044-.65.144-.131 0-.261.013-.361.073-.201 0-.463.043-.614.144-.226 0-.508.04-.686.143-.249 0-.912-.067-1.083 0-.19.009-.384.016-.573.023-.405.093-.824.576-1.134.869-.324.304-.77.478-1.015.858l-.218.481c-.166.336-.338.688-.427 1.062l-.164 1.474q-.01.486-.018.973c-.077.778-.35 1.506-.269 2.347.028.297.175.569.233.868.062.318.054.727.043 1.081-.016.489-.207 2.076.369 2.17.433.069.752-.233 1.018-.498.155-.158.338-.245.474-.424.493-.655.648-1.36.592-2.294-.019-.271-.22-.557-.171-.821.055-.317.451-.566.601-.845.292-.539.477-1.146.747-1.701.239-.494.359-.792.928-.985.287-.1.678-.038 1.002-.06.272-.023 1.02-.265 1.242-.161.236.111.438.822.584 1.06.14.231.462.338.58.526.175.278.246.605.435.876l.424.5c.077.125.062.284.149.405.192.269.435.507.608.786.419.677.374 1.461 1.325 1.708.269.07.517.066.791.012.187-.035.404-.073.561-.171.322-.201.513-.556.755-.828a2.6 2.6 0 0 1 .502-.426c.185-.125.398-.288.609-.354.197-.062.411-.066.594-.157.202-.101.347-.303.549-.418l.68-.264c.238-.132.387-.425.638-.521l.062-.016c.286-.055.608.061.864.018a5 5 0 0 0 .855-.206c.158-.056.396-.189.579-.155.253.051.661.596.915.746.23.135.503.194.752.3.649.281 1.206.59 1.802.978.169.109.354.183.511.32h.035v.036c-.047 0-.988.534-1.066.598q-.12.13-.242.258c-.33.291-.649.589-.977.898-.324.303-.764.517-.927.952-.05.13-.013.312.015.438l.05.322c.114.333.382.579.668.773.167.113.412.09.638.09.444 0 .911-.03 1.249-.24.333-.206.633-.517 1.031-.602.277-.061.543.023.792.066l.682.015.795-.096.614-.015q.176-.018.355-.032c.197.038.544.464.687.621l.347.333q.215.278.431.549l.362.387q.279.376.56.747c.274.266.622.424.939.616.549.333 1.071.681 1.671.912.349.133.714.214 1.066.333.421.144.809.286 1.309.303 0 .229.261.614.348.834.209.54.477 1.232.857 1.679.234.277.525.499.762.784q.164.274.325.549c.237.327.549.668.845.955q.415.342.834.681c.129.141.097.347.229.495.281.32.829.54.829 1.023 0 .449-.375.757-.604 1.099l-.791 1.335-1.048 1.979q-.058.196-.12.389c-.031.238.025.54-.12.723-.347.433-.803.755-1.21 1.103q-.18.178-.363.353-.351.245-.705.489a4.3 4.3 0 0 0-.599.633c-.114.144-.308.215-.396.389-.082.152-.168.312-.184.497-.025.257.001.517-.067.751-.09.312-.199.688-.361.97-.316.542-1.234 1.375-.713 2.05q.18.159.359.322c.142.151.288.345.462.471 1.249.9 2.017-.025 2.64-1.05l.381-.554c.098-.167.248-.295.381-.447.171-.194.326-.409.53-.587.157-.141.356-.245.471-.428.179-.289.195-.698.287-1.028.102-.384.278-.743.464-1.083.321-.596.855-1.055 1.295-1.589q.55-.694 1.1-1.386.242-.318.488-.637c0-.048-.014-.035.035-.035 0 .107.161.255.202.363.146.398.048.881-.11 1.252-.202.461-.493.853-.78 1.269l-.213.399c-.326.467-.642.924-.843 1.455-.24.619-.06 1.432-.251 2.079-.146.494-.55.916-.652 1.415-.193.923 1.165 1.764 1.96 1.751.329-.006.783-.12 1.032-.298q.23-.2.462-.398c.106-.09.24-.166.322-.284q.183-.34.362-.677c.109-.304.117-.658.228-.958.397-1.075.923-2.138 1.219-3.264.054-.208.116-.419.126-.642.015-.34-.033-.707.109-.977.172-.332.475-.612.732-.896q.114-.137.226-.278c.255-.24.566-.514.714-.824.136-.29.211-.712.255-1.036.022-.161-.049-.284-.071-.431-.126-.865-.438-1.597-1.051-2.208-.129-.132-.246-.275-.403-.353v-.072c.245 0 .538-.436.56-.651.019-.212-.064-.383-.082-.579-.035-.351-.063-1.181.044-1.471.102-.281.172-.569.328-.823.269-.448.681-.789 1.051-1.18l.676-.844.936-1.111c.235-.342.458-.73.636-1.102.107-.222.183-.547.359-.728l.508-.245c.838-.404 1.187-.194 1.95.137q.446.175.891.354.116.087.237.175.175.045.354.087.18.069.361.136c.478.096.974-.012 1.399-.153.297-.1.556-.245.846-.356.669-.267 1.325-.509 1.891-.974.375-.315.694-.671 1.047-1.011l.33-.211c.165-.126.346-.302.496-.441q.165-.197.33-.395c.087-.079.175-.163.261-.241.267-.331.537-.673.826-.979.186-.199.393-.36.584-.534q.156-.17.307-.34l.589-.427c.464-.348.984-.946 1.287-1.414q.198-.346.398-.694c.36-.535 1.278-1.746 1.153-2.424"/><path d="M175.377 338.854c.534-.172.954-.568 1.593-.559.488.007.966.133 1.333.395.206.144.294.352.484.525.363.331.972.663 1.531.529.254-.063.529-.221.753-.357.44-.265 1.091-.903 1.318-1.366.069-.146.05-.331.092-.492.15-.573.125-1.344-.14-1.834-.117-.219-.29-.395-.445-.596-.281-.366-.645-.723-1.07-.911-.912-.404-2.112-.303-3.243-.303-.199.1-.435.112-.65.179l-.857.347c-.218.089-.382.267-.56.438q-.168.157-.336.313c-.215.248-.512.804-.608 1.113-.084.257-.121.527-.201.788q-.064.2-.127.4c-.045.241-.068.943.051 1.13.194.309.739.37 1.082.261"/><path fill="#fff" d="M148.376 341.142c-.01-.144-.044-.265.006-.397.431.054.621.246.952.487.252.181.595.339.784.618.241.349.245.789.297 1.239q.043.2.087.399.005.31.008.613c0 .357.061.758-.143 1.011v.036c-.086 0-.133-.219-.153-.285-.07-.219-.19-.359-.316-.546-.118-.173-.196-.362-.34-.527-.312-.367-.701-.766-.9-1.196-.202-.438-.252-.934-.282-1.452m3.563 7.12-.187.519q-.126.175-.253.346a9 9 0 0 1-.611.877c-.285.357-.753.7-1.105.986-.254.21-.483.472-.789.584v.035c-.097 0 .053-.343.077-.397q.155-.257.308-.513c.077-.176.064-.372.101-.566l.086-.402.005-1.444c0-.244-.034-.527.071-.72h2.528c.002.228-.158.488-.231.695m23.15 14.915q.202.039.402.082c.233.024.6-.051.799.058.27.147.118 1.187-.091 1.331-.086.058-.284-.004-.385-.004-.294-.006-.636-.021-.866.105-.327 0-.619.112-.908.195l-.752.202-.839.377c-.596.244-1.192.514-1.756.821l-.343.262q-.263.173-.526.345v.038h-.071l-.259-.484c-.141-.334-.167-.779-.129-1.177.046-.478.285-.571.547-.918.256-.339.573-.661.828-1.013.109-.15.182-.311.31-.452.202-.223.441-.419.579-.685.262.051.517.18.764.271.49.181.997.353 1.512.474.38.086.781.105 1.184.172m.942 3.151c-.039.058-.629.185-.756.263-.19 0-.344.062-.502.12-.779.288-1.433.762-2.146 1.195q-.205.109-.409.221l-.781.541q-.244.159-.484.317c-.321.265-.586.593-.912.853v.038c-.085 0-.245-.215-.312-.271-.61-.506.221-1.067.572-1.418q.24-.226.477-.452c.211-.139.445-.228.669-.351.592-.334 1.167-.658 1.801-.908q.562-.196 1.124-.39c.359 0 1.203-.074 1.471.054.097.045.117.134.188.188m-7.038-3.746v-.035c-.058 0-.058-.199-.071-.253l-.2-.69q-.007-.43-.019-.862l-.059-.542c.015-.482.149-.918.278-1.335.393.211.778.467 1.231.564.56.117 1.154-.018 1.69-.105.266-.043 1.017-.209 1.254-.136.071.021.12.083.162.144l.447.857.456.681q.015.057.034.113c-.016.083-.182.077-.257.081-.225.006-.507.024-.714-.023-.315-.07-.585-.253-.874-.369l-.565-.176c-.352-.137-.573-.494-1.016-.349-.392.128-.63.835-.825 1.157q-.094.16-.186.319l-.201.218c-.176.244-.284.502-.527.707v.035zm4.757-9.565c-.082.725-.32 1.43-.588 2.067-.078.184-.133.405-.289.549-.145.13-.329.137-.487.237-.327 0-.724-.039-.974.107-.242 0-.468-.016-.686-.035 0-.225.232-.479.343-.661.194-.322.445-.615.665-.933.246-.357.475-.696.773-1.032l.853-.878h.397v.038c.075 0 0 .459-.007.541m-1.364-1.695s-1.663 1.823-1.763 1.987l-.354.618c-.07.143-.15.413-.289.508-.046-.017-.043-.111-.047-.157-.112-.938-.11-1.914-.11-2.92l1.3-.067c.196-.013.396.007.577-.043h.686zm-4.693-11.49q-.432.003-.866.011c0-.154-.119-.266-.116-.435.003-.144.127-.243.179-.366.093-.21.165-.474.342-.637.214-.202.6-.241.858-.369l2.091.015c.206.029.358.184.551.254 1.11.398 1.652.852 1.652 2.186 0 .621-.055 1.033-.229 1.548-.086.249-.26.446-.402.665q-.362.548-.725 1.091c-.092.133-.192.216-.23.378-.284 0-.615-.038-.872.024q-.358.115-.717.227c0-.13-.353-.58-.425-.728-.132-.265-.101-.556-.079-.859h.035c0-.065.187-.05.245-.066.506-.147 1.145-.429 1.313-.991.069-.233.031-.56.031-.82 0-.305-.027-.635-.201-.852-.323-.402-1.476-.445-2.037-.36-.131.03-.265.055-.398.084m.181 10.263c0-.277-.143-.513-.136-.795.008-.299.109-.599.183-.875.11-.421.179-.81.397-1.177.257-.441 1.07-1.051 1.507-1.227.279-.113.566-.214.868-.276.189-.039.373-.034.538-.126.767 0 1.557.045 2.11.456.132.098.229.269.324.397.182.243.397.46.519.736.199.451.31 1.138.377 1.658.025.201.125.418.071.643-.028.106-.112.126-.19.188-.314 0-.698-.034-.938.109-.168 0-.373.035-.507.108h-1.335c-.163 0-.371-.026-.506.036a.65.65 0 0 0-.323.071l-1.551.011q-.184.041-.368.078c-.301.051-.753.052-1.04-.015m-1.493 8.563c.081-.197.287-.264.445-.369.716.137.524 1.516.588 2.162q.044.236.089.472l.023.756c.02.184.081.343.095.542h-.038c0 .047.012.037-.035.037-.322 0-.562.089-.867.107v-.035c-.061 0-.035-.421-.035-.507l-.009-1.371-.129-.76c-.098-.315-.274-.681-.127-1.034m-2.068 1.057q.427-.228.853-.452c.191.078.175.259.264.426.156.3.3.577.336.946.049.501-.26 1.229-.606 1.544-.198.176-.628.025-.859.152-.573 0-2.883-.157-2.841-.829a1 1 0 0 0 .028-.08c.17-.219.631-.394.871-.526.666-.368 1.303-.779 1.954-1.181m-11.039-9.006c.113-.549.431-1.042.605-1.565l.141-.492.185-.48c.064-.247.093-.493.151-.746q.155-.361.305-.727c.26.156.412.386.628.6l.762.522c.27.144.81-.038 1.025.149q.017.018.037.034.126.181.253.358c.269.339.514.677.708 1.056.155.303.258.661.503.913.148.152.379.276.573.353.114.044.32.081.404.178q.058.15.114.3l.28.6c.093.26.184.593.36.809.195.234.456.351.72.451.177.066.366.042.558.09.407.102.864.406 1.058.803.032.066.098.195.035.269-.071.085-.479.058-.618.066l-.397.047c-.383-.02-1.309-.195-1.593-.375-.717-.458-.9-1.208-1.908-1.192-.264.004-.444.071-.659.16-.221.09-.436.152-.638.276-.797.487-1.244 1.031-2.383.846-.205-.034-.392-.143-.556-.26-.764-.552-.527-1.028-.57-1.963-.015-.353-.163-.695-.083-1.08m-7.564 13.462c-.053 0-.051-.035-.065-.077-.091-.274-.402-1.055-.188-1.294.163.009.291.018.413.1.215.142.303.459.451.659.094.126.199.249.255.396-.277 0-.674.243-.866.216m2.477 3.339c-.034.094-.165.112-.238.164l-.609.004c-.504-.072-.65-.605-.691-1.053-.013-.135-.113-.355-.027-.468.114-.153.697-.343.892-.432.094.124.109.292.175.436.129.268.61 1.028.498 1.349m8.494 1.858c-.004.093.011.272-.056.327-.089.07-.68-.354-.771-.432h-.037v-.037q.2-.073.397-.145h.433v.035c.065 0 .034.193.034.252m2.477-.578-.156.507c-.071.224-.128.444-.225.65-.115 0-.156-.171-.188-.251-.156-.367-.117-.786-.144-1.228l-.091-.507q.005-.216.009-.433c0-.525-.078-1.122.09-1.588.066 0 .124-.039.179-.071.507.114.392 1.012.445 1.478l.084.401c.035.315.043.727-.003 1.042m.27-5.088c-.227 0-.545.07-.721.182l-.615.008c-.155.015-.328.12-.481.05s-.131-.374-.131-.527c0-.253.054-.44.09-.654l.048-.456c.075-.262.39-.556.628-.677q.284-.1.566-.2c.231.029.31.133.456.301.096.107.257.23.303.363.151.429-.014 1.242-.143 1.61m.787-3.629c-.204.074-.448.021-.678.021-1.002 0-1.967-.113-2.578.632-.377.455-.498 1.047-.616 1.638l-.086.401c-.02.313.069.752-.047 1.026l-.035.054c-.323.44-.915.612-1.364.839-.399.199-.782.463-1.157.717-.323.216-.57.623-.878.813a1.4 1.4 0 0 1-.501.165l-.463-.008c-.869 0-1.098-.45-1.454-1.098-.146-.262-.223-.54-.438-.766-.285-.307-.764-.31-.987-.669-.163-.26-.19-.516-.268-.821a2.4 2.4 0 0 0-.289-.647c-.264-.433-.751-.701-1.117-1.012-.538-.459-1.113-1.106-1.908-1.043-.461.037-1.088.522-1.395.872-.144.162-.295.383-.482.493 0 .038-.012.025-.036 0-.055 0-.051-.033-.066-.077-.103-.278-.144-.553-.205-.859-.042-.194-.182-.494-.114-.708.024-.082.497-.549.596-.636.607-.553 1.292-.837 2.207-.779q.272.036.542.074.165-.023.326-.05c.238.025.467.054.72.087.526.067 1.616.39 2.006.725.238.204.409.52.611.764.217.263.518.459.792.642.241.16.523.246.782.376.404.202.753.487 1.006.874l.271.379c.119.126.235.205.326.354q.138.227.274.456c.11.189.142.426.324.576a.33.33 0 0 0 .357.034c.16-.093.182-.289.126-.456-.229-.682-.694-1.239-1.051-1.857-.081-.14-.068-.311-.132-.458q-.128-.223-.254-.448l-.186-.634c-.043-.163-.148-.369-.136-.545.012-.191.16-.357.237-.52.19-.401.593-1.515 1.035-1.655q.435-.066.869-.133c.296-.015.582.001.83-.112l1.586.005.471.093c.192.019.424-.02.596.048.35.136.624.516.924.749.396.304.955.475 1.446.595.495.12 1.12-.115 1.577-.207.124-.023.225-.077.363-.077.248 0 .464.171.688.238v.035q-.257.12-.513.238l-.54.263-.584.346c-.203.089-.408.173-.609.261-.242.135-.46.297-.721.392m6.866 16.336-.837-.198c-.991-.19-1.977-.475-2.76-1.086-.249-.192-.435-.452-.657-.674-.256-.255-.414-.517-.618-.79q-.128-.178-.255-.358c.058 0 .095-.128.121-.174l.214-.381c.157-.376.237-1.144.107-1.564-.203-.66-.912-.989-1.464-1.293-.134-.077-.413-.173-.486-.33l-.008-.024c-.103-.334.207-.642.266-.93.092-.443.093-.79.139-1.261q.085-.36.171-.723c.054-.304.077-.612.146-.9.284.026.611.073.868.174.44.173.779.503 1.167.782.552.397 1.071.739 1.584 1.236l.3.273c.082.111.093.285.18.406q.173.233.343.464c.096.21.04.467.09.703l.183.655c.116.898-.374 1.651-.178 2.555.11.514.437 1.02.846 1.37.331.281.658.491.735.95.074.448-.138.736-.197 1.118m1.053-7.76c-.044.261-.05.621-.176.852-.11.194-.278.329-.409.517-.579 0-.87-1.458-.896-1.912q-.007-.541-.016-1.082c-.02-.208-.098-.383-.098-.613q.004-.613.003-1.228l.025-.434c-.025-.495-.137-.92-.137-1.443h.038c0-.017.385-.094.468-.144.201 0 .612-.065.729.093.14.192.161.85.179 1.133.012.215.091.392.1.615q.007 1.119.009 2.238.048.236.092.471l.025.465c.024.148.091.307.064.472m8.563 22.652c-.123.16-.249.297-.355.463l-.257.517c-.252.431-.488.83-.576 1.35q-.012.214-.028.428-.042.237-.085.471-.017.345-.032.684l-.137.48c-.045.141-.045.311-.132.435l-.212.177c-.074.054-.148.109-.249.092-.444-.082-.007-1.654.069-1.903.188-.65.613-1.158.85-1.774.214-.56.182-1.208.342-1.798.075-.277.169-.503.299-.752.062-.124.139-.24.173-.377.076-.317.05-.813.019-1.147-.03-.306-.209-.404-.028-.687.461.376.655.671.81 1.223.052.187.151.365.148.581-.009.486-.343 1.167-.619 1.537m4.73-15.403c-.052.275-.269.478-.432.705-.273.374-.626.782-.832 1.185-.172.333-.263.712-.397 1.066q-.213.498-.427.992c-.113.308-.176.722-.378.978l-.283.218c-.316.268-.659.441-.967.696-.139.113-.182.303-.29.433-.183.22-.376.411-.537.643-.434.624-.605 1.231-.52 2.111.034.339.21.815.058 1.175-.19.441-.746.568-1.105.757a2.4 2.4 0 0 0-.643.503c-.303.34-.492.787-.712 1.17q-.111.153-.225.307-.162.258-.327.515c-.214.294-.448.573-.69.856q-.193.238-.39.478c-.187.175-.397.333-.585.531q-.275.321-.553.639v.038h-.037q.01-.014.015-.029l.436-.74c.175-.332.303-.645.548-.939.222-.268.339-.569.54-.841q.15-.134.3-.269c.162-.221.283-.474.421-.707.194-.336.425-.674.573-1.033.117-.289.178-.595.274-.892l.257-.576c.083-.273.064-1.115-.029-1.363-.31-.803-1.127-1.4-1.803-1.907l-.641-.655a81 81 0 0 0-.662-.495c-.211-.18-.388-.377-.582-.571-.37-.369-.728-.709-.95-1.165-.484-.993-.92-2.322-.667-3.588l.136-.544c.117-.3.264-.522.302-.869.085-.835-1.105-.798-1.009-1.511.036-.281.723-1.784.971-1.853.194-.056.402.241.7.001.135-.11.126-.262.178-.415.066-.205.244-.376.419-.498.762-.53 1.565-1.009 2.413-1.378l2.454-.861q.343-.098.678-.198c.295 0 .506.044.762.09q.17.031.34.057c.134.056.233.159.383.199.526.133 1.293.258 1.694.627.475.43.508 1.11.689 1.696.12.382.327.735.47 1.117l.089.391q.066.189.136.379c.071.271.107.538.169.821q.082.219.165.437c.031.17.087.342.107.503l.015.974zm15.217-6.671h-.037c0 .133-.59.748-.695.918-.233.374-.358.789-.624 1.157-.315.438-.647.881-1.036 1.271-.176.176-.39.31-.553.491-.213.233-.373.502-.575.731-.253.286-.534.535-.802.818l-.264.314q-.164.107-.326.217l-.958.741c-.292.226-.532.504-.825.719q-.244.14-.485.284-.254.105-.509.207c-.202 0-.312.106-.476.162-.225.075-.516.112-.715.235-1.053 0-1.948-.351-2.577-1.108-.143-.172-.305-.378-.26-.622.053-.294.346-.471.584-.6.338-.19.576-.392.954-.512.419-.134.912-.208 1.291-.421.23-.13.417-.323.636-.47.296-.203.616-.388.876-.647.383-.386.686-.923.819-1.439q.04-.264.084-.526c.047-.177.151-.325.178-.517.094-.636.128-1.414.359-1.974.218-.539.521-1.056.969-1.475q.312-.247.622-.501.341-.306.678-.615c.298-.231.619-.415.939-.608l.599-.241c.373 0 1.125.027 1.292.35l.047.265c.008.077.051.207.016.281-.134.285-.386.488-.579.745-.138.183-.223.406-.319.611-.13.271-.17.876-.036 1.167.068.148.226.277.346.4.108.107.214.196.361.233.355.086.682-.04 1.001-.08zM175.702 336.844c.186-.553.355-.897.785-1.313.118-.115.229-.241.376-.31.169-.079.355-.159.544-.198.191-.04.374-.046.538-.126l.721.011.399.086c.525.066 1.22.149 1.524.605.092.136.106.301.162.456.09.268.152.548.152.863 0 .433-.079.957-.375 1.247-.203.194-.425.303-.738.249-.288-.048-.559-.335-.812-.46-.614-.307-1.258-.386-2.044-.386-.268 0-.554-.014-.757.107a6 6 0 0 1-.217.036c-.219 0-.41.044-.413-.218-.006-.227.087-.454.155-.649"/><path d="M286.054 451.184c-.035-.182-.203-.359-.354-.464-.393-.265-.954-.261-1.457-.194 0-.259.199-.453.289-.668q.12-.302.24-.607l.113-.413c.069-.245.179-.531.175-.802-.01-.715-.641-1.222-1.273-1.358-.244-.054-.559-.023-.822-.023-.371 0-.853-.064-1.142.103-.395 0-.65.205-.965.353q-.32.13-.645.257c-.393.226-.742.53-1.098.828-.171.139-.363.251-.53.406q-.2.23-.406.458-.259.257-.519.513c-.23.285-.585.854-.685 1.203-.234.808-.385 1.664-.526 2.518-.088.521.061 1.027-.244 1.435-.137.184-.33.346-.538.416q-.169.06-.339.117c-.5 0-.893.245-1.317.408-.587.223-1.208.404-1.748.718-.224.127-.393.302-.598.463 0 .051-.023.035-.07.035 0-.246-.1-.443-.171-.658-.102-.304-.176-.604-.273-.899-.076-.234-.11-.49-.198-.716q-.31-.706-.625-1.413c-.09-.157-.194-.309-.276-.468-.241-.487-.376-.927-.724-1.36l-.207-.203c-.082-.09-.14-.196-.238-.276l-.284-.204c-.322-.281-.696-.596-1.152-.611l-.139-.311c-.215-.438-.48-.919-.931-1.175v-.032c-.047 0-.035.009-.035-.036.064 0 .122-.132.14-.186.053-.16.024-.359.092-.511q.149-.322.293-.647c.142-.258.307-.463.355-.766.065-.385-.025-.774-.144-1.095-.221-.596-.849-1.091-1.498-1.141-.303-.025-.685.052-.955-.04q-.013-.004-.026-.011l-.328-.445q-.343-.432-.689-.865c-.156-.183-.386-.37-.468-.589-.132-.36-.125-.763-.125-1.201 0-.658.025-1.245.155-1.829.035-.168.149-.303.199-.462.092-.312.14-.604.215-.92.071-.306.183-.623.242-.94q.012-.291.016-.582c0-.522.004-.942-.297-1.296-.125-.149-.351-.212-.53-.261v-.035c.189-.165.399-.114.655-.151.348-.052.645-.398.749-.716.121-.371.086-1.014.055-1.414q-.013-.257-.024-.515c-.253-1.538-1.353-3.532-3.092-3.699v-.035c.081 0 .226-.332.261-.404.078-.164.208-.297.287-.461q.168-.45.34-.901l.233-.657c.077-.415.018-.908.018-1.343 0-.413.065-.969-.025-1.341-.089-.365-.237-.633-.41-.949l-.226-.368-.33-.225q-.131-.14-.268-.282a4.3 4.3 0 0 0-1.298-.779c-.245-.093-.468-.107-.759-.145-.238-.032-.468-.121-.692.012l-1.068.014c-.292.042-.537.169-.802.254a5 5 0 0 0-.883.344c-.157.081-.268.226-.406.338-.57.458-1.066 1.036-1.212 1.749a6.2 6.2 0 0 0-.121 1.308l.011.725q.041.208.085.416c.014.194.003.389.067.557.288.748.371.833 1.252.863.096.001.253-.014.316.059.134.153.234.95.328 1.207.144.389.415.667.705.977.044 0 .035-.011.035.034-.075 0-.367.408-.416.484-.169 0-.756-.357-.936-.447-.29-.145-.683-.215-.907-.472q-.075-.15-.152-.297a6.3 6.3 0 0 1-.401-1.061c-.073-.241-.192-.443-.283-.668-.186-.448-.338-.884-.517-1.332l-.286-.605c-.017-.164.188-.369.242-.518.065-.178.066-.405.053-.612-.016-.26-.287-.713-.258-.858.032-.18.486-.511.635-.641q.688-.62 1.383-1.242 2.867-2.574 5.735-5.151l.837-.749c.221-.184.487-.337.63-.601.104-.192.126-.455.166-.674.087-.499-.059-.623-.481-.759-.247.183-.543.32-.782.499-.202.151-.375.347-.58.482l-.63.352c-.412.299-.761.655-1.169.963l-.541.392-1.668 1.652c-.465.409-.97.766-1.461 1.133-.601.491-1.207.981-1.808 1.471q-.703.524-1.403 1.052l-.482.477c-.482.334-1.223.609-1.416 1.241-.14.449-.011.898.178 1.261.104.195.284.347.27.599-.018.349-.215.645-.179 1.036.039.408.249.744.374 1.106.051.155.026.347.041.518q.042.243.084.484c.004.168-.054.296-.077.452q-.016.187-.034.376-.039.173-.078.348l-.023.412c-.029.179-.086.354-.079.554.009.313.132.607.26.868l.141.311c.442.663 1.167.942 1.974.654 0 .046.008.041.031.071.366.49.779.917 1.317 1.206l1.059.566c.096.087.07.252.109.37.057.178.16.273.245.433.071.142.041.297.198.395.379.239.994.173 1.501.173 0 .467.001.91.043 1.346.036.401.116.789.128 1.211a.65.65 0 0 0-.311.07c-.372 0-.713.101-1.044.189l-.338.086q-.104.02-.206.035c-.417 0-1.006.089-1.336-.093-.26-.146-.274-.569-.44-.798-.105-.148-.267-.185-.381-.306-.202-.216-.399-.519-.661-.681l-.511-.248c-.215-.069-.435-.136-.651-.206-.254-.054-.931-.094-1.055-.324l-.105-.585c-.078-.244-.263-.427-.332-.672l-.273-1.34q-.127-.382-.252-.767c-.087-.274-.16-.624-.346-.842l-.284-.234c-.206-.187-.382-.413-.631-.51l-.232-.059q-.164-.076-.329-.155c-.227-.077-.444-.105-.624-.261-.234-.196-.147-.668-.171-.974-.024-.294-.12-.67-.329-.873-.309-.299-.75-.42-1.099-.635l-.399-.386c-.276-.219-.544-.462-.836-.643l-.39-.212c-.164-.101-.321-.213-.506-.267l-.58-.118c-.414-.028-.804.02-1.128-.167q-.155-.102-.31-.205c-.104-.098-.175-.212-.289-.296q-.218-.113-.435-.228l-.687-.622c-.143-.143-.183-.317-.325-.467-.46-.475-1.308-.736-2.042-.6-.513.093-.792.898-.822 1.366-.014.199.056.376.081.554l.031.409c.047.121.09.239.137.356q.07.308.143.618c.021.205-.052.342-.078.517-.021.142-.021.281-.062.408q-.124.367-.244.736-.027.223-.048.445-.15.393-.297.787c-.071.18-.194.335-.244.53-.047.176-.039.388-.063.582l-.081.382c-.05.513.136.919.081 1.413-.092.8-.464 1.478-.594 2.251-.167.997.167 1.95.564 2.696.148.28.235.514.503.742.561.479 1.79.257 2.399-.035.17-.085.449-.344.663-.29.242.062.711.248.874.433.096.108-.035.51-.039.669-.008.237.02.456.114.647.176.365.409.744.759.992.19.133.468.195.608.4-.054 0-.057.06-.073.101a12 12 0 0 0-.37 1.042c-.09.281-.177.589-.353.826v.034c-.183 0-.378-.179-.526-.26l-.878-.451c-.157-.101-.255-.262-.408-.375a2.7 2.7 0 0 0-.65-.346c-.467-.191-.976-.355-1.514-.389-.238-.015-.428.098-.654.049l-.353-.145q-.258-.052-.515-.107c-1.712-.253-2.924.048-3.55 1.612l-.269 1.027-.256.698h-.033c0-.139-.683-.101-.795-.034-.209 0-.461.043-.622.137a.7.7 0 0 0-.347.069c-.19 0-.441.043-.586.14-.216 0-.487.038-.659.138-.235 0-.872-.065-1.035 0q-.274.009-.549.021c-.389.087-.788.55-1.086.83-.31.292-.736.459-.972.821q-.103.232-.21.463c-.157.323-.321.659-.406 1.016q-.08.706-.157 1.412l-.018.93c-.073.747-.335 1.442-.257 2.247.028.285.169.545.223.832.059.303.051.696.042 1.033-.015.468-.199 1.989.353 2.079.415.066.719-.224.973-.477.149-.152.324-.235.453-.406.474-.628.623-1.302.566-2.196-.016-.26-.207-.534-.163-.787.054-.303.432-.541.577-.808.28-.518.455-1.101.714-1.629.23-.472.346-.757.888-.942.276-.095.648-.035.961-.059.258-.021.976-.251 1.188-.152.225.105.42.783.559 1.013.134.222.442.324.556.504.168.265.235.579.415.838l.406.478c.074.12.058.273.143.39.184.257.417.484.583.751.402.646.358 1.398 1.267 1.633.26.069.495.064.758.014.18-.037.387-.073.537-.166.308-.191.491-.532.724-.791.141-.162.308-.293.48-.408.177-.12.382-.276.583-.338.189-.06.393-.064.569-.153.194-.096.331-.289.525-.4q.325-.126.651-.253c.228-.126.37-.405.612-.498l.056-.018c.275-.051.583.059.828.019.28-.047.559-.104.819-.198.151-.054.378-.18.553-.146.242.047.632.57.877.713.221.128.48.184.718.286.622.27 1.154.567 1.727.938.161.103.339.174.487.304h.034v.035c-.041 0-.946.512-1.018.573l-.233.247c-.315.277-.622.564-.935.86-.309.291-.73.495-.888.913-.047.124-.012.297.015.418l.048.308c.109.319.365.553.641.74.159.108.394.086.611.086.425 0 .872-.028 1.193-.228.32-.198.607-.495.989-.579.264-.058.518.024.756.064q.326.008.654.015c.251-.031.509-.061.76-.093q.295-.007.585-.015.173-.013.342-.029c.188.035.52.444.657.595q.166.158.332.32l.412.526q.173.187.349.37.266.36.534.714c.264.254.596.405.899.589.526.32 1.025.651 1.601.874.334.128.684.205 1.019.32.404.136.775.272 1.254.287 0 .222.25.588.333.8.202.517.456 1.18.821 1.607.225.266.504.478.732.752l.31.525c.228.312.526.64.809.915q.399.327.798.65c.124.137.094.333.219.476.271.307.793.517.793.978 0 .429-.358.726-.577 1.051q-.377.641-.756 1.279-.503.945-1.003 1.895l-.114.371c-.031.229.022.518-.115.691-.332.416-.77.724-1.158 1.056q-.173.171-.347.338-.338.235-.677.468a4 4 0 0 0-.571.607c-.111.136-.295.206-.381.371-.077.147-.16.299-.176.477-.022.248 0 .494-.064.718-.086.302-.191.66-.344.929-.303.521-1.182 1.317-.684 1.963q.173.153.344.308c.136.144.276.33.443.452 1.193.862 1.929-.025 2.525-1.006q.183-.267.368-.529c.093-.16.235-.284.362-.428.163-.186.313-.392.508-.563.148-.135.342-.234.45-.409.172-.277.188-.669.273-.983.1-.366.269-.712.447-1.039.308-.57.817-1.009 1.241-1.519l1.052-1.328q.231-.304.467-.609c0-.047-.014-.034.034-.034 0 .104.155.245.194.349.14.381.047.842-.107 1.199-.192.441-.471.817-.746 1.215q-.103.191-.205.384c-.311.445-.612.884-.808 1.391-.229.593-.056 1.371-.238 1.99-.139.472-.528.877-.626 1.355-.184.884 1.117 1.687 1.877 1.676.314-.005.748-.114.988-.285q.221-.19.441-.381c.104-.087.229-.157.308-.273q.175-.323.347-.648c.104-.291.11-.628.216-.915.379-1.031.883-2.048 1.168-3.126.053-.198.11-.403.121-.615.015-.326-.034-.674.105-.935.165-.316.454-.587.7-.857q.108-.131.217-.268c.244-.228.542-.491.684-.787.13-.277.202-.681.246-.992.019-.155-.05-.272-.07-.413-.121-.827-.42-1.528-1.004-2.112-.126-.125-.238-.265-.388-.339v-.068c.236 0 .516-.417.534-.623.021-.202-.06-.366-.078-.553-.034-.338-.06-1.133.043-1.409.098-.269.166-.545.315-.788.257-.43.651-.755 1.004-1.13l.648-.808.895-1.063c.228-.327.438-.699.611-1.056.102-.211.176-.524.343-.695q.244-.117.487-.236c.802-.385 1.137-.184 1.868.132l.853.338q.111.085.224.169.171.045.339.082.174.068.346.132c.459.09.933-.012 1.34-.148.284-.095.531-.232.81-.342.64-.254 1.268-.485 1.81-.932.359-.299.666-.642 1.001-.965q.158-.103.318-.205c.156-.118.331-.288.475-.421l.315-.378q.125-.117.251-.231c.254-.316.515-.643.791-.935.178-.192.374-.346.561-.513l.292-.326.564-.41c.444-.333.94-.903 1.231-1.351l.381-.666c.347-.516 1.227-1.677 1.108-2.325"/><path d="M263.988 422.8c.511-.165.914-.545 1.523-.536.469.007.926.128 1.277.377.199.14.284.337.464.501.349.318.933.637 1.467.506.242-.061.506-.21.72-.34.421-.253 1.046-.864 1.262-1.308.066-.14.047-.315.087-.471.144-.547.121-1.286-.133-1.756-.113-.208-.279-.378-.427-.57-.271-.35-.618-.69-1.025-.871-.873-.388-2.021-.291-3.104-.291-.188.095-.414.106-.623.171l-.819.332c-.21.086-.365.256-.536.42q-.16.152-.321.299c-.206.239-.49.77-.583 1.067-.078.245-.116.503-.192.753-.04.126-.079.256-.12.382-.045.23-.065.903.047 1.083.188.298.707.354 1.036.252"/><path fill="#fff" d="M238.14 424.989c-.007-.139-.04-.254.006-.381.413.05.595.237.91.466.242.173.571.326.753.592.23.334.234.755.283 1.187q.043.189.083.381l.008.588c0 .34.058.724-.138.967v.035c-.083 0-.127-.211-.146-.273-.067-.212-.18-.344-.301-.523-.113-.167-.188-.347-.326-.506-.3-.351-.671-.732-.862-1.145-.192-.418-.241-.891-.27-1.388m3.412 6.815q-.091.248-.179.498l-.243.331c-.182.29-.369.569-.584.841-.273.34-.723.668-1.059.943-.242.199-.46.452-.753.558v.033c-.093 0 .048-.329.073-.379l.296-.491c.075-.166.061-.355.097-.542l.081-.385q.002-.692.005-1.382c0-.234-.031-.503.07-.69h2.419c0 .22-.153.467-.223.665m22.162 14.279q.19.037.384.077c.222.024.576-.047.765.057.259.141.116 1.134-.087 1.274-.083.055-.273-.003-.369-.005-.282-.005-.608-.02-.829.102-.312 0-.593.106-.871.187q-.361.094-.719.192l-.804.359c-.571.234-1.141.494-1.682.787l-.328.251q-.25.164-.502.329v.036h-.07q-.123-.232-.248-.463c-.134-.32-.16-.747-.122-1.128.042-.456.272-.545.524-.877.244-.326.546-.634.791-.969.105-.147.175-.299.297-.436.192-.212.422-.401.554-.655.25.05.494.174.73.261.468.173.956.338 1.448.452.365.086.751.104 1.138.169m.899 3.017c-.036.055-.603.178-.724.249-.179 0-.328.06-.479.117-.745.274-1.371.73-2.054 1.143l-.393.211-.747.518-.464.304c-.304.253-.56.569-.872.818v.035c-.081 0-.234-.206-.3-.26-.583-.484.212-1.022.547-1.357q.231-.215.459-.432c.202-.133.426-.218.639-.338.566-.319 1.119-.628 1.726-.869l1.074-.372c.345 0 1.153-.071 1.409.051.093.044.113.131.179.182m-6.736-3.587v-.032c-.057 0-.057-.191-.07-.244q-.094-.331-.192-.659-.007-.412-.017-.825l-.055-.52c.014-.461.143-.881.265-1.278.377.202.747.445 1.179.538.538.113 1.105-.016 1.619-.1.254-.042.974-.199 1.2-.13.068.02.114.078.155.137l.428.822.436.65q.018.056.032.109c-.015.081-.175.074-.246.077-.214.007-.484.023-.682-.02-.303-.069-.563-.242-.838-.354q-.27-.083-.541-.169c-.337-.129-.547-.472-.971-.332-.379.122-.604.799-.79 1.109q-.091.151-.179.304l-.193.209c-.168.232-.27.48-.504.677v.032zm4.555-9.157c-.079.694-.307 1.371-.564 1.979-.074.176-.128.388-.277.525-.139.124-.314.13-.467.228-.311 0-.692-.039-.931.104a8 8 0 0 1-.657-.034c0-.217.221-.461.327-.635.187-.307.426-.586.636-.891.237-.342.455-.666.74-.986q.41-.423.819-.842h.379v.037c.073-.001.002.437-.005.515m-1.308-1.624s-1.591 1.747-1.688 1.904q-.167.298-.339.591c-.067.139-.143.396-.276.487-.043-.016-.039-.106-.045-.149-.106-.898-.105-1.832-.105-2.797l1.243-.063c.187-.012.381.007.553-.042h.655zm-4.492-10.997q-.415.002-.829.011c0-.148-.114-.254-.112-.417.001-.137.121-.233.172-.349.089-.202.156-.455.326-.611.207-.194.574-.23.823-.353.668.007 1.332.009 2 .013.196.03.343.178.53.245 1.061.379 1.581.814 1.581 2.091 0 .595-.053.989-.22 1.483-.082.238-.248.427-.383.636q-.348.523-.696 1.046c-.087.126-.184.206-.221.36-.271 0-.588-.035-.834.023q-.342.11-.686.218c0-.124-.338-.556-.408-.697-.126-.251-.097-.532-.077-.824h.035c0-.061.179-.047.233-.062.486-.14 1.097-.411 1.259-.95.064-.222.028-.536.028-.784 0-.292-.025-.608-.192-.815-.308-.385-1.413-.427-1.948-.346-.126.03-.254.054-.381.082m.174 9.823c0-.262-.139-.49-.131-.759.01-.287.105-.573.176-.837.105-.406.171-.776.378-1.129.247-.422 1.026-1.005 1.444-1.173a5 5 0 0 1 .83-.267c.183-.036.359-.029.517-.12.733 0 1.489.044 2.02.436.126.094.218.258.31.381.173.232.381.441.498.705.189.431.296 1.09.36 1.586.024.193.12.401.067.615-.026.104-.107.123-.18.182-.303 0-.669-.031-.897.104-.162 0-.358.035-.487.103h-1.277c-.156 0-.358-.024-.483.035a.6.6 0 0 0-.311.068l-1.484.011q-.179.037-.353.075c-.289.048-.724.05-.997-.016m-1.429 8.198c.077-.187.274-.253.427-.354.685.133.502 1.452.561 2.072l.087.451q.01.363.02.724c.021.176.078.33.092.518h-.035c0 .047.011.035-.035.035-.308 0-.535.086-.829.107v-.036c-.058 0-.034-.402-.034-.484l-.009-1.312q-.062-.365-.123-.729c-.098-.302-.262-.653-.122-.992m-1.979 1.011q.407-.217.817-.433c.182.077.167.249.253.409.147.287.286.553.32.905.047.479-.248 1.176-.581 1.478-.19.169-.6.024-.822.146-.547 0-2.758-.151-2.719-.794.011-.023.019-.051.028-.075.162-.211.603-.377.831-.502.64-.356 1.248-.748 1.873-1.134m-10.569-8.619c.109-.526.415-.999.582-1.501.044-.156.09-.315.136-.468l.176-.461c.059-.237.089-.471.144-.713l.293-.694c.247.146.393.367.6.573l.73.499c.258.137.775-.036.982.142q.013.017.034.032.12.173.242.345c.257.324.491.647.677 1.009.148.29.248.634.483.874.141.146.363.265.547.339.11.043.307.077.388.171.037.096.071.191.11.287l.267.575c.089.248.175.568.346.772.186.228.436.339.688.434.169.063.351.04.537.086.389.097.825.39 1.011.77.031.064.094.187.035.257-.071.081-.462.055-.592.063l-.379.044c-.367-.018-1.254-.186-1.524-.358-.689-.441-.862-1.157-1.827-1.142-.253.004-.425.068-.632.155-.21.083-.417.145-.611.264-.762.467-1.189.987-2.279.809-.197-.031-.376-.136-.533-.247-.732-.528-.504-.985-.545-1.88-.023-.341-.163-.668-.086-1.036m-7.239 12.887c-.051 0-.05-.033-.063-.072-.087-.266-.385-1.013-.179-1.242.153.008.277.018.394.097.206.136.29.439.432.63.09.121.191.238.245.379-.266 0-.646.233-.829.208m2.37 3.195c-.032.09-.16.108-.229.156l-.584.004c-.48-.068-.621-.579-.661-1.006-.012-.13-.108-.34-.024-.451.109-.146.666-.326.853-.413.092.12.104.28.169.417.123.258.583.986.476 1.293m8.13 1.777c-.004.089.011.261-.054.314-.083.066-.65-.339-.737-.414h-.035v-.035q.191-.067.379-.137h.415v.034c.063-.001.034.183.032.238m2.374-.551-.151.487c-.068.211-.123.424-.215.62-.109 0-.149-.164-.18-.241-.149-.351-.112-.751-.137-1.174a26 26 0 0 1-.087-.486q.003-.207.007-.416c0-.502-.071-1.074.087-1.519.064 0 .12-.039.172-.068.486.11.375.969.425 1.414q.041.192.081.385a4.4 4.4 0 0 1-.002.998m.255-4.871c-.216 0-.52.067-.69.172l-.588.009c-.148.014-.314.114-.46.047s-.125-.358-.125-.506c0-.241.05-.419.084-.624q.023-.215.047-.438c.071-.25.373-.531.602-.647q.27-.095.543-.191c.219.028.294.126.436.286.09.105.245.221.289.35.145.411-.014 1.191-.138 1.542m.753-3.473c-.192.068-.427.017-.648.017-.96 0-1.882-.106-2.468.605-.362.436-.475 1.003-.59 1.567l-.082.385c-.019.3.066.72-.046.982q-.016.025-.031.051c-.313.421-.877.588-1.308.804-.381.189-.747.442-1.107.688-.31.207-.546.597-.839.776a1.4 1.4 0 0 1-.482.16q-.219-.003-.442-.01c-.831 0-1.051-.43-1.393-1.049-.138-.25-.212-.517-.417-.732-.273-.295-.733-.297-.947-.641-.155-.25-.18-.494-.254-.787a2.3 2.3 0 0 0-.278-.619c-.252-.415-.717-.67-1.067-.968-.517-.44-1.067-1.059-1.829-.998-.44.035-1.04.498-1.335.833-.139.156-.282.366-.461.473 0 .035-.011.024-.034 0-.052 0-.05-.031-.063-.073-.098-.268-.139-.532-.197-.824-.04-.187-.173-.472-.11-.677.026-.079.478-.526.572-.611.58-.529 1.235-.802 2.111-.745l.519.07.314-.046c.226.024.445.053.688.082.504.065 1.547.374 1.921.696.228.196.39.497.584.73.209.251.497.44.759.614.231.155.5.237.748.359.386.194.721.468.965.838q.128.184.26.365c.112.12.223.195.31.338q.133.216.264.436c.104.183.136.408.309.553.091.074.235.09.34.03.155-.089.176-.274.122-.436-.218-.651-.665-1.187-1.007-1.777-.075-.135-.064-.297-.128-.436l-.241-.431q-.088-.303-.179-.605c-.041-.157-.142-.354-.129-.522.012-.183.152-.343.226-.5.183-.38.569-1.449.99-1.582l.832-.128c.283-.013.557.003.795-.106l1.519.004q.226.045.449.089c.187.017.407-.018.572.047.333.129.599.493.885.716.378.292.915.456 1.383.569.476.116 1.072-.109 1.511-.198.117-.023.215-.073.349-.073.235 0 .442.161.657.227v.034q-.245.115-.491.228-.257.126-.514.251-.28.164-.56.33-.294.127-.585.252c-.232.129-.439.283-.692.375m6.574 15.637-.801-.19c-.949-.182-1.892-.455-2.643-1.039-.237-.183-.415-.433-.628-.645-.246-.245-.397-.496-.591-.756q-.122-.17-.245-.34c.055 0 .093-.124.116-.167q.102-.184.206-.365c.15-.362.226-1.095.102-1.5-.195-.63-.874-.946-1.401-1.237-.129-.073-.395-.166-.465-.315q-.002-.012-.008-.024c-.097-.32.199-.615.256-.89.086-.422.09-.755.132-1.207l.165-.69c.051-.293.073-.587.137-.864.272.025.586.068.832.167.421.165.746.48 1.117.749.529.38 1.025.707 1.515 1.184l.287.261c.081.108.09.273.173.389q.167.224.329.444c.091.202.041.448.086.673l.178.627c.109.86-.361 1.58-.172 2.446.105.492.42.975.813 1.312.314.268.627.47.701.91.07.425-.134.702-.191 1.067m1.009-7.428c-.042.25-.049.595-.17.814-.105.186-.265.315-.392.497-.554 0-.83-1.398-.858-1.833l-.015-1.035c-.02-.201-.091-.366-.091-.588v-1.174q.013-.207.024-.414c-.024-.474-.129-.881-.129-1.382h.035c0-.016.369-.091.448-.139.191 0 .586-.062.697.089.135.183.155.814.174 1.085.011.205.086.374.093.589q.007 1.07.011 2.142.044.226.086.451.014.223.026.444c.022.143.088.296.061.454m8.197 21.683c-.117.153-.238.284-.34.444q-.122.248-.247.494c-.241.412-.468.795-.55 1.293l-.027.409-.082.449q-.014.33-.031.654l-.132.462c-.043.134-.043.297-.125.416q-.101.086-.204.168c-.069.054-.14.106-.238.09-.427-.079-.007-1.583.066-1.823.182-.62.588-1.108.814-1.698.205-.534.175-1.159.327-1.721.072-.265.163-.483.285-.721.06-.118.134-.228.167-.359.072-.304.048-.777.017-1.098-.028-.292-.199-.388-.025-.658.441.359.627.643.776 1.171.047.179.144.348.14.556-.007.464-.327 1.118-.591 1.472m4.528-14.744c-.051.262-.257.456-.415.674-.261.359-.599.747-.795 1.134-.165.318-.251.683-.381 1.022q-.202.476-.408.949c-.107.294-.169.691-.362.935l-.271.21c-.303.257-.631.422-.927.666-.132.109-.174.289-.276.413-.175.211-.361.394-.516.618-.416.597-.579 1.177-.495 2.022.032.323.201.778.054 1.123-.181.422-.712.543-1.057.725-.214.11-.455.297-.617.481-.288.327-.47.753-.68 1.121l-.215.293-.314.494c-.205.281-.428.547-.659.819l-.374.456c-.178.167-.379.32-.561.509q-.266.308-.528.613v.035h-.035l.012-.028q.21-.355.418-.709c.165-.317.289-.616.523-.899.213-.257.325-.544.517-.805l.287-.258c.154-.21.271-.453.403-.677.187-.321.406-.645.548-.99.111-.274.171-.569.264-.853l.246-.55c.081-.261.062-1.068-.029-1.304-.295-.77-1.077-1.342-1.724-1.828l-.614-.625q-.315-.24-.635-.475c-.202-.172-.37-.359-.557-.546-.354-.354-.695-.678-.909-1.116-.462-.951-.88-2.223-.637-3.435q.064-.26.129-.52c.112-.288.254-.499.288-.832.081-.801-1.056-.766-.966-1.447.035-.269.693-1.707.933-1.773.183-.054.385.232.668.001.128-.107.121-.25.169-.397.065-.194.233-.36.401-.476a13.6 13.6 0 0 1 2.307-1.319l2.352-.823q.326-.095.649-.191c.281 0 .484.042.728.088q.163.027.326.054c.128.054.222.15.366.19.504.128 1.238.249 1.624.599.453.414.484 1.065.661 1.625.113.369.314.704.448 1.07l.083.376.131.36c.067.26.102.516.161.786l.158.419c.032.163.084.326.103.482q.009.468.013.931-.003.292-.013.583m14.566-6.389h-.035c0 .129-.566.719-.667.88-.224.358-.342.755-.598 1.11-.301.416-.619.841-.992 1.215-.169.168-.373.296-.529.47-.203.222-.356.48-.549.701-.244.273-.513.512-.768.783q-.127.15-.254.3l-.31.206q-.466.359-.919.71c-.279.217-.507.484-.789.688l-.464.272q-.244.102-.488.199c-.192 0-.297.101-.455.153-.217.071-.493.107-.685.226-1.006 0-1.864-.336-2.468-1.061-.136-.165-.29-.362-.246-.596.05-.281.331-.451.56-.575.322-.18.549-.373.911-.488.401-.129.873-.201 1.236-.404.219-.125.398-.309.61-.449.284-.194.588-.37.837-.62.369-.368.658-.883.784-1.376q.041-.252.081-.503c.044-.169.143-.312.171-.494.089-.61.121-1.353.342-1.889.21-.516.5-1.011.927-1.413q.302-.236.597-.478l.647-.589c.287-.222.593-.398.9-.581q.287-.115.572-.231c.358 0 1.079.024 1.236.334l.046.254c.006.074.05.198.015.269-.128.273-.369.468-.553.714-.132.175-.214.389-.305.584-.125.26-.163.838-.035 1.116.066.144.217.266.332.383.104.105.203.188.343.225.34.081.654-.039.961-.078zM264.299 420.874c.178-.528.339-.858.751-1.255.111-.11.218-.233.36-.297.162-.076.339-.152.521-.189.183-.039.357-.044.514-.121l.69.011q.192.039.383.082c.502.064 1.168.142 1.46.579.086.13.101.288.152.437.087.257.147.525.147.826 0 .414-.077.917-.359 1.194-.195.186-.408.289-.708.239-.275-.046-.534-.32-.775-.442-.588-.292-1.205-.368-1.956-.368-.257 0-.53-.013-.727.103q-.104.018-.206.035c-.21 0-.393.042-.397-.208-.004-.222.084-.439.15-.626"/><path d="M217.195 44.502c-12.02.023-21.8 9.814-21.8 21.849 0 5.057 1.742 9.703 4.635 13.41-9.852 1.119-28.032 4.443-39.875 14.149a6.9 6.9 0 0 0 .783-3.188c0-3.824-3.108-6.935-6.932-6.935a6.9 6.9 0 0 0-4.752 1.9c-1.23-1.951-3.397-3.255-5.868-3.255a6.9 6.9 0 0 0-4.704 1.855 6.94 6.94 0 0 0-6.106-3.65 6.91 6.91 0 0 0-5.607 2.874c-1.269-1.69-3.279-2.791-5.547-2.791a6.93 6.93 0 0 0-5.797 3.137 6.92 6.92 0 0 0-5.465-2.685c-2.906 0-5.398 1.799-6.428 4.342a6.9 6.9 0 0 0-4.56-1.728c-3.574 0-6.525 2.72-6.893 6.196a6.9 6.9 0 0 0-3.823-1.152 6.94 6.94 0 0 0-6.932 6.932c0 .042.004.081.004.123a7 7 0 0 0-1.265-.123c-3.823 0-6.932 3.112-6.932 6.932 0 1.156.285 2.241.786 3.201a7 7 0 0 0-.786-.05 6.943 6.943 0 0 0-6.935 6.935 6.88 6.88 0 0 0 1.309 4.037c-2.929.81-5.09 3.493-5.09 6.679a6.91 6.91 0 0 0 2.539 5.356 6.9 6.9 0 0 0-2.539 5.354c0 2.679 1.526 5 3.748 6.155a6.9 6.9 0 0 0-1.228 3.934c0 3.184 2.161 5.865 5.091 6.675a6.87 6.87 0 0 0-1.311 4.038c0 3.822 3.112 6.933 6.934 6.933l.036-.001a7 7 0 0 0-.307 2.045c0 3.824 3.107 6.934 6.931 6.934.128 0 .249-.012.374-.02-.06.37-.103.744-.103 1.124a6.944 6.944 0 0 0 6.937 6.937c3.822 0 6.931-3.111 6.931-6.937 0-.253-.014-.501-.042-.753.713.58 1.34 1.056 1.849 1.436L92.5 185.277l2.29.698 13.693 4.167 7.452 13.544 1.737-.791c.291-.132 29.97-13.2 99.521-13.209 69.56.009 99.244 13.077 99.532 13.209l1.738.791.922-1.675 6.53-11.869 15.978-4.865-5.951-12.571a58 58 0 0 0 1.847-1.436 7 7 0 0 0-.042.753c0 3.826 3.109 6.937 6.932 6.937s6.934-3.111 6.934-6.937c0-.38-.039-.754-.099-1.124.126.008.247.02.373.02a6.938 6.938 0 0 0 6.624-8.979l.035.001c3.824 0 6.932-3.111 6.932-6.933 0-1.507-.488-2.9-1.308-4.038 2.931-.81 5.091-3.492 5.091-6.675a6.9 6.9 0 0 0-1.23-3.934 6.94 6.94 0 0 0 3.751-6.155 6.92 6.92 0 0 0-2.539-5.354 6.93 6.93 0 0 0 2.539-5.356c0-3.187-2.161-5.87-5.091-6.679a6.9 6.9 0 0 0 1.308-4.037c0-3.824-3.11-6.935-6.932-6.935-.268 0-.53.02-.787.05.499-.96.787-2.045.787-3.201 0-3.82-3.11-6.932-6.934-6.932-.431 0-.856.046-1.268.123.001-.042.008-.081.008-.123 0-3.824-3.109-6.932-6.936-6.932a6.9 6.9 0 0 0-3.818 1.152c-.369-3.477-3.32-6.196-6.895-6.196a6.9 6.9 0 0 0-4.564 1.728c-1.028-2.543-3.518-4.342-6.424-4.342a6.92 6.92 0 0 0-5.465 2.685 6.93 6.93 0 0 0-5.797-3.137 6.92 6.92 0 0 0-5.547 2.791 6.91 6.91 0 0 0-5.608-2.874 6.94 6.94 0 0 0-6.104 3.65 6.9 6.9 0 0 0-4.705-1.855 6.93 6.93 0 0 0-5.864 3.255 6.9 6.9 0 0 0-4.756-1.9c-3.822 0-6.929 3.111-6.929 6.935 0 1.149.282 2.232.782 3.188-11.842-9.707-30.023-13.03-39.876-14.149 2.894-3.707 4.637-8.353 4.637-13.41.001-12.034-9.777-21.826-21.809-21.849m128.848 111.842c-.517.154-8.449 2.326-17.776-1.225 1.811-1.016 3.054-2.931 3.054-5.152 0-.572-.109-1.114-.261-1.639h.007c3.267 0 5.927-2.656 5.927-5.921 0-.899-.217-1.746-.577-2.51 2.504-.69 4.359-2.963 4.359-5.689 0-2.423-1.472-4.511-3.57-5.428 1.396-1.084 2.306-2.757 2.306-4.653 0-2.632-1.734-4.841-4.11-5.613.602-.926.96-2.025.96-3.213a5.93 5.93 0 0 0-5.923-5.923c-.226 0-.44.04-.659.067.167-.545.28-1.111.28-1.705a5.933 5.933 0 0 0-5.923-5.927c-.811 0-1.588.167-2.292.464.001-.071.02-.136.02-.211 0-2.686-1.811-4.939-4.269-5.659 7.77.546 17.944 2.535 25.835 8.559 6.651 5.077 12.761 11.67 12.426 25.413-.258 10.642-4.737 19.556-9.731 26.246zm-257.688 0-.082.281c-4.991-6.69-9.471-15.604-9.73-26.246-.336-13.743 5.774-20.336 12.425-25.413 7.891-6.024 18.062-8.013 25.835-8.559-2.458.72-4.269 2.973-4.269 5.659 0 .075.018.14.02.211a5.9 5.9 0 0 0-2.291-.464 5.93 5.93 0 0 0-5.924 5.927c0 .594.116 1.16.281 1.705-.218-.027-.432-.067-.659-.067a5.93 5.93 0 0 0-5.926 5.923c0 1.188.36 2.288.962 3.213-2.376.772-4.112 2.981-4.112 5.613 0 1.896.913 3.568 2.306 4.653-2.095.917-3.565 3.005-3.565 5.428 0 2.726 1.853 4.999 4.356 5.689a5.9 5.9 0 0 0-.576 2.51 5.93 5.93 0 0 0 5.924 5.921h.007c-.149.525-.26 1.067-.26 1.639 0 2.222 1.243 4.136 3.054 5.152-9.326 3.551-17.255 1.38-17.776 1.225m220.55-15.471c-.654.478-12.105 8.535-26.911 4.851 15.806-14.93 10.439-31.316 5.99-39.579 5.982-1.113 23.961-3.124 33.591 10.355 11.38 15.938 1.788 25.457-4.633 31.267-1.839-1.797-3.642-3.917-5.366-6.433 0 0-1.097-1.6-1.102-1.596zm-183.412 0-1.573-1.134c-.001-.004-1.098 1.596-1.098 1.596-1.722 2.516-3.526 4.636-5.364 6.433-6.424-5.81-16.013-15.33-4.634-31.267 9.631-13.479 27.609-11.468 33.591-10.355-4.45 8.263-9.816 24.649 5.992 39.579-14.805 3.683-26.261-4.374-26.914-4.852m101.328-5.474V96.467c8.793.748 15.758 9.182 15.758 19.467s-6.965 18.719-15.758 19.465m-19.241 0c-8.794-.747-15.756-9.181-15.756-19.466s6.962-18.719 15.756-19.467z"/><path fill="#fff" d="m278.281 144.571-.498-.573c16.327-14.12 10.312-29.716 6.161-36.781 1.065 2.996 1.665 6.309 1.665 9.977 0 14.862-8.143 22.317-12.192 25.11a37 37 0 0 0 4.864 2.267M156.119 144.571l.498-.573c-16.328-14.12-10.312-29.716-6.161-36.781-1.063 2.996-1.665 6.309-1.665 9.977 0 14.862 8.142 22.317 12.193 25.11a37 37 0 0 1-4.865 2.267M237.661 141.343c12.456-3.666 20.503-12.139 20.503-21.628 0-9.237-7.628-17.238-18.676-21.047 4.206 4.268 6.872 10.417 6.872 17.266 0 11.69-7.722 21.37-17.742 23.04a29.7 29.7 0 0 0 9.043 2.369M196.74 141.343c-12.459-3.666-20.506-12.139-20.506-21.628 0-9.237 7.629-17.238 18.676-21.047-4.208 4.268-6.871 10.417-6.871 17.266 0 11.69 7.721 21.37 17.741 23.04a29.7 29.7 0 0 1-9.04 2.369"/><path fill="#fff" d="M217.195 185.566c-61.876.006-92.106 10.003-99.455 12.849l-5.3-9.634 13.565-13.567-24.113-5.116c-1.177-.831-5.619-4.109-10.318-9.421 7.139.659 21.836-.238 33.304-15.732 5.755 3.353 26.168 12.854 46.967-5.842 3.303 2.001 12.586 6.861 23.746 6.199q.074.024.149.052l.019-.061c4.657-.298 9.634-1.554 14.644-4.392l.959-.545V87.372c1.859.521 3.813.824 5.833.828a21.8 21.8 0 0 0 5.842-.828v52.984l.958.545c5.011 2.838 9.987 4.093 14.645 4.392l.016.061c.054-.019.101-.038.149-.052 11.163.662 20.444-4.198 23.747-6.199 20.802 18.696 41.213 9.195 46.971 5.842 11.465 15.494 26.16 16.391 33.303 15.732-4.702 5.312-9.142 8.591-10.32 9.421l-24.113 5.116 13.564 13.567-5.297 9.634c-7.349-2.846-37.579-12.843-99.465-12.849"/><path d="m237.441 163.576-18.952-9.5-.848-.424-.849.425-18.868 9.498-3.353 1.69 3.353 1.688 18.868 9.505.849.428.849-.428 18.952-9.502 3.369-1.691zM257.534 165.066l18.966-5.815.766.561 18.198 13.372-3.588 1.107-18.898 5.83-.766-.56-18.282-13.392zm-80.67 0-18.06-5.537-.907-.278-.763.561-15.175 11.152-3.027 2.22 3.59 1.107 17.991 5.55.908.28.766-.56 15.241-11.163 3.043-2.23z"/><path fill="#fff" d="m102.229 174.385 15.49 3.284-8.415 8.414-11.025-3.353ZM332.17 174.385l3.954 8.345-11.027 3.353-8.415-8.414zM160.722 175.951l-13.497-4.164 11.382-8.363 13.544 4.153ZM273.679 175.951l13.497-4.164-11.383-8.363-13.545 4.153zM202.979 165.268l14.664-7.383 14.733 7.381-14.733 7.388ZM226.821 92.204c19.722.729 35.464 12.788 35.464 27.511 0 8.084-4.672 15.478-12.495 20.596 7-1.816 11.781-5.064 11.874-5.127l1.262-.88c.001-.001 1.118 1.056 1.118 1.056a49 49 0 0 0 5.486 4.499c1.147-.587 11.951-6.536 11.951-22.664 0-27.102-39.28-32.606-50.9-33.64a22 22 0 0 1-3.761 2.363v6.286zM207.58 92.204c-19.724.729-35.467 12.788-35.467 27.511 0 8.084 4.674 15.478 12.493 20.596-6.999-1.816-11.779-5.064-11.872-5.127l-1.262-.88c-.003-.001-1.12 1.056-1.12 1.056a49 49 0 0 1-5.481 4.499c-1.149-.587-11.954-6.536-11.954-22.664 0-27.102 39.28-32.606 50.901-33.64a21.7 21.7 0 0 0 3.761 2.363v6.286zM217.239 48.283c-.077 0-.155.011-.234.011 8.615 2.998 14.803 11.079 14.803 20.604 0 4.289-1.271 8.279-3.434 11.655 4.211-3.312 6.932-8.439 6.932-14.202.001-9.962-8.103-18.068-18.067-18.068M213.512 65.776c-1.671-3.794 1.998-9.091 6.127-9.949a11.15 11.15 0 0 0-5.799-1.605c-5.79 0-10.483 4.288-10.483 9.583 0 2.345.923 4.492 2.455 6.159 1.719-2.702 4.876-5.032 7.7-4.188"/><path fill="#fff" d="M215.04 78.784s8.68-4.794 4.489-11.682c0 0-1.198-3.895 2.995-3.895 4.191 0 5.691 14.376-7.484 15.577M341.531 172.026a3.155 3.155 0 0 0 3.15 3.154 3.155 3.155 0 0 0 3.152-3.154 3.155 3.155 0 0 0-3.152-3.149 3.154 3.154 0 0 0-3.15 3.149M348.736 163.988a3.153 3.153 0 0 0 6.304 0 3.153 3.153 0 0 0-6.304 0M355.397 155.011a3.154 3.154 0 0 0 3.151 3.152 3.156 3.156 0 0 0 3.153-3.152 3.157 3.157 0 0 0-3.153-3.153 3.156 3.156 0 0 0-3.151 3.153M359.178 144.297a3.154 3.154 0 0 0 3.151 3.15 3.152 3.152 0 0 0 0-6.302 3.155 3.155 0 0 0-3.151 3.152M361.701 134.208a3.154 3.154 0 0 0 3.15 3.154 3.156 3.156 0 0 0 3.151-3.154 3.155 3.155 0 0 0-3.151-3.148 3.15 3.15 0 0 0-3.15 3.148M361.701 123.499a3.15 3.15 0 0 0 3.15 3.148 3.154 3.154 0 0 0 3.151-3.148 3.156 3.156 0 0 0-3.151-3.153 3.153 3.153 0 0 0-3.15 3.153M357.92 112.783a3.153 3.153 0 0 0 3.15 3.151 3.155 3.155 0 0 0 3.151-3.151 3.157 3.157 0 0 0-3.151-3.153 3.154 3.154 0 0 0-3.15 3.153M350.985 102.696a3.155 3.155 0 0 0 3.151 3.151 3.154 3.154 0 0 0 3.15-3.151 3.154 3.154 0 0 0-3.15-3.151 3.154 3.154 0 0 0-3.151 3.151M342.79 95.764a3.157 3.157 0 0 0 3.15 3.153 3.16 3.16 0 0 0 3.154-3.153 3.16 3.16 0 0 0-3.154-3.151 3.16 3.16 0 0 0-3.15 3.151M332.078 90.723a3.154 3.154 0 0 0 3.15 3.151 3.156 3.156 0 0 0 3.151-3.151 3.155 3.155 0 0 0-3.151-3.151 3.15 3.15 0 0 0-3.15 3.151M321.087 88.105a3.156 3.156 0 0 0 3.152 3.153 3.157 3.157 0 0 0 3.153-3.153 3.156 3.156 0 0 0-3.153-3.15 3.156 3.156 0 0 0-3.152 3.15M309.828 87.653a3.15 3.15 0 0 0 3.15 3.15 3.153 3.153 0 0 0 3.151-3.15 3.155 3.155 0 0 0-3.151-3.151 3.154 3.154 0 0 0-3.15 3.151M298.673 87.571a3.153 3.153 0 0 0 3.148 3.151 3.155 3.155 0 0 0 3.153-3.151 3.156 3.156 0 0 0-3.153-3.154 3.155 3.155 0 0 0-3.148 3.154M287.863 89.366a3.155 3.155 0 0 0 3.149 3.15 3.155 3.155 0 0 0 3.152-3.15 3.155 3.155 0 0 0-3.152-3.151 3.155 3.155 0 0 0-3.149 3.151M277.243 90.723a3.153 3.153 0 0 0 3.148 3.151 3.156 3.156 0 0 0 3.154-3.151 3.151 3.151 0 0 0-6.302 0M323.252 149.967c0 1.183.961 2.144 2.145 2.144a2.146 2.146 0 0 0 2.142-2.144 2.146 2.146 0 0 0-2.142-2.142 2.146 2.146 0 0 0-2.145 2.142M328.925 142.407c0 1.18.962 2.141 2.142 2.141a2.145 2.145 0 0 0 2.143-2.141 2.146 2.146 0 0 0-2.143-2.145c-1.18 0-2.142.961-2.142 2.145M332.707 134.208c0 1.186.961 2.146 2.144 2.146a2.15 2.15 0 0 0 2.143-2.146c0-1.18-.965-2.141-2.143-2.141a2.146 2.146 0 0 0-2.144 2.141M331.446 124.128c0 1.182.962 2.142 2.143 2.142a2.145 2.145 0 0 0 0-4.287c-1.18 0-2.143.961-2.143 2.145M328.295 115.301c0 1.182.961 2.144 2.143 2.144a2.145 2.145 0 0 0 2.142-2.144c0-1.18-.961-2.142-2.142-2.142a2.146 2.146 0 0 0-2.143 2.142M321.993 107.741a2.143 2.143 0 1 0 4.287-.003 2.143 2.143 0 0 0-4.287.003M313.797 102.067c0 1.183.963 2.145 2.143 2.145a2.15 2.15 0 0 0 2.145-2.145c0-1.18-.963-2.142-2.145-2.142a2.147 2.147 0 0 0-2.143 2.142M304.975 98.917a2.144 2.144 0 0 0 4.287 0 2.143 2.143 0 0 0-4.287 0M295.518 98.283c0 1.184.962 2.144 2.145 2.144 1.18 0 2.143-.96 2.143-2.144a2.145 2.145 0 0 0-4.288 0M286.064 98.917a2.144 2.144 0 0 0 4.287 0 2.145 2.145 0 0 0-4.287 0M92.868 172.026a3.155 3.155 0 0 1-3.149 3.154 3.156 3.156 0 0 1-3.153-3.154 3.155 3.155 0 0 1 3.153-3.149 3.153 3.153 0 0 1 3.149 3.149M85.663 163.988a3.155 3.155 0 0 1-3.152 3.151 3.154 3.154 0 0 1-3.152-3.151 3.154 3.154 0 0 1 3.152-3.15 3.155 3.155 0 0 1 3.152 3.15M79.003 155.011a3.156 3.156 0 0 1-3.153 3.152 3.156 3.156 0 0 1-3.15-3.152 3.157 3.157 0 0 1 3.15-3.153 3.16 3.16 0 0 1 3.153 3.153M75.219 144.297a3.154 3.154 0 0 1-3.15 3.15 3.156 3.156 0 0 1-3.153-3.15 3.156 3.156 0 0 1 3.153-3.152 3.155 3.155 0 0 1 3.15 3.152M72.7 134.208a3.157 3.157 0 0 1-3.151 3.154 3.16 3.16 0 0 1-3.153-3.154 3.156 3.156 0 0 1 3.153-3.148 3.155 3.155 0 0 1 3.151 3.148M72.7 123.499a3.155 3.155 0 0 1-3.151 3.148 3.156 3.156 0 0 1-3.153-3.148 3.157 3.157 0 0 1 3.153-3.153 3.156 3.156 0 0 1 3.151 3.153M76.481 112.783a3.156 3.156 0 0 1-3.15 3.151 3.156 3.156 0 0 1-3.153-3.151 3.157 3.157 0 0 1 3.153-3.153 3.157 3.157 0 0 1 3.15 3.153M83.413 102.696a3.154 3.154 0 0 1-3.15 3.151 3.157 3.157 0 0 1-3.153-3.151 3.157 3.157 0 0 1 3.153-3.151 3.154 3.154 0 0 1 3.15 3.151M91.607 95.764a3.154 3.154 0 0 1-3.151 3.153 3.156 3.156 0 0 1-3.152-3.153 3.157 3.157 0 0 1 3.152-3.151 3.155 3.155 0 0 1 3.151 3.151M102.323 90.723a3.155 3.155 0 0 1-3.151 3.151 3.156 3.156 0 0 1-3.151-3.151 3.155 3.155 0 0 1 3.151-3.151 3.153 3.153 0 0 1 3.151 3.151M113.31 88.105c0 1.739-1.413 3.153-3.15 3.153s-3.152-1.414-3.152-3.153c0-1.736 1.415-3.15 3.152-3.15s3.15 1.415 3.15 3.15M124.573 87.653a3.152 3.152 0 0 1-6.304 0 3.156 3.156 0 0 1 3.153-3.151 3.154 3.154 0 0 1 3.151 3.151M135.729 87.571a3.155 3.155 0 0 1-3.152 3.151 3.156 3.156 0 0 1-3.151-3.151 3.157 3.157 0 0 1 3.151-3.154 3.157 3.157 0 0 1 3.152 3.154M146.537 89.366a3.154 3.154 0 0 1-3.151 3.15 3.153 3.153 0 0 1-3.15-3.15 3.154 3.154 0 0 1 3.15-3.151 3.155 3.155 0 0 1 3.151 3.151M157.156 90.723a3.156 3.156 0 0 1-3.15 3.151 3.155 3.155 0 0 1-3.152-3.151 3.154 3.154 0 0 1 3.152-3.151 3.154 3.154 0 0 1 3.15 3.151M111.146 149.967a2.145 2.145 0 0 1-2.142 2.144 2.145 2.145 0 0 1-2.144-2.144c0-1.181.961-2.142 2.144-2.142a2.145 2.145 0 0 1 2.142 2.142M105.475 142.407a2.143 2.143 0 1 1-4.286-.004 2.143 2.143 0 0 1 4.286.004M101.691 134.208c0 1.186-.96 2.146-2.141 2.146a2.146 2.146 0 0 1-2.144-2.146c0-1.18.961-2.141 2.144-2.141a2.145 2.145 0 0 1 2.141 2.141M102.953 124.128a2.145 2.145 0 0 1-4.288 0c0-1.184.962-2.145 2.144-2.145s2.144.961 2.144 2.145M106.103 115.301a2.146 2.146 0 0 1-2.142 2.144 2.147 2.147 0 0 1-2.142-2.144c0-1.18.963-2.142 2.142-2.142 1.181 0 2.142.963 2.142 2.142M112.407 107.741a2.143 2.143 0 1 1-4.285-.003 2.143 2.143 0 0 1 4.285.003M120.603 102.067a2.147 2.147 0 0 1-2.144 2.145 2.145 2.145 0 0 1 0-4.287c1.181 0 2.144.962 2.144 2.142M129.425 98.917a2.142 2.142 0 1 1-4.284-.002 2.142 2.142 0 0 1 4.284.002M138.877 98.283a2.143 2.143 0 1 1-4.286.002 2.143 2.143 0 0 1 4.286-.002M148.332 98.917a2.142 2.142 0 0 1-4.283 0 2.142 2.142 0 0 1 4.283 0"/><path d="M268.523 99.726c3.824 0 6.935 3.107 6.935 6.931a6.943 6.943 0 0 1-6.935 6.935c-3.824 0-6.932-3.111-6.932-6.935a6.937 6.937 0 0 1 6.932-6.931m-102.65 0a6.94 6.94 0 0 0-6.931 6.931c0 3.824 3.111 6.935 6.931 6.935a6.943 6.943 0 0 0 6.936-6.935c0-3.824-3.111-6.931-6.936-6.931M257.072 90.848a4.29 4.29 0 0 1 4.288 4.286 4.294 4.294 0 0 1-4.288 4.288 4.293 4.293 0 0 1-4.287-4.288 4.29 4.29 0 0 1 4.287-4.286m-79.745 0a4.29 4.29 0 0 0-4.287 4.286 4.293 4.293 0 0 0 4.287 4.288 4.29 4.29 0 0 0 4.286-4.288 4.29 4.29 0 0 0-4.286-4.286M242.452 87.029a3.065 3.065 0 0 1 3.062 3.06 3.07 3.07 0 0 1-3.062 3.068 3.07 3.07 0 0 1-3.064-3.068 3.065 3.065 0 0 1 3.064-3.06m-50.504 0a3.066 3.066 0 0 0-3.063 3.06 3.07 3.07 0 0 0 3.063 3.068 3.07 3.07 0 0 0 3.065-3.068 3.07 3.07 0 0 0-3.065-3.06M270.307 118.832a5.93 5.93 0 0 1 5.926 5.924 5.93 5.93 0 0 1-5.926 5.926 5.93 5.93 0 0 1-5.923-5.926 5.93 5.93 0 0 1 5.923-5.924m-106.217 0a5.93 5.93 0 0 0-5.923 5.924 5.93 5.93 0 0 0 5.923 5.926 5.93 5.93 0 0 0 5.924-5.926 5.93 5.93 0 0 0-5.924-5.924"/><path fill="#fff" d="M265.375 106.656c0 1.74 1.41 3.153 3.147 3.153a3.157 3.157 0 0 0 3.154-3.153 3.156 3.156 0 0 0-3.154-3.15 3.15 3.15 0 0 0-3.147 3.15M169.026 106.656a3.156 3.156 0 0 1-3.154 3.153 3.155 3.155 0 0 1-3.15-3.153 3.153 3.153 0 0 1 3.15-3.15 3.154 3.154 0 0 1 3.154 3.15M255.309 95.133a1.766 1.766 0 0 0 3.53 0c0-.973-.792-1.764-1.766-1.764-.972 0-1.764.792-1.764 1.764M179.09 95.133a1.765 1.765 0 1 1-3.525.001 1.765 1.765 0 0 1 3.525-.001M241.279 90.089c0 .648.526 1.176 1.173 1.176.644 0 1.172-.527 1.172-1.176a1.173 1.173 0 0 0-2.345 0M193.121 90.089c0 .648-.524 1.176-1.173 1.176a1.173 1.173 0 1 1 1.173-1.176M268.167 124.756c0 1.183.961 2.145 2.141 2.145a2.145 2.145 0 0 0 0-4.289 2.146 2.146 0 0 0-2.141 2.144M166.233 124.756c0 1.183-.96 2.145-2.144 2.145a2.146 2.146 0 0 1-2.142-2.145c0-1.181.962-2.144 2.142-2.144a2.146 2.146 0 0 1 2.144 2.144"/></svg>