<?xml version="1.0" encoding="iso-8859-1"?>
<!-- Generator: Adobe Illustrator 24.0.1, SVG Export Plug-In . SVG Version: 6.00 Build 0)  -->
<svg version="1.1" id="Layer_1" xmlns="http://www.w3.org/2000/svg" xmlns:xlink="http://www.w3.org/1999/xlink" x="0px" y="0px"
	 viewBox="0 0 612 792" style="enable-background:new 0 0 612 792;" xml:space="preserve">
<path d="M500.614,203.937c5.379-16.357,1.555-29.073-3.284-37.453c-13.104-22.697-47.063-37.893-103.816-46.455
	c-43.508-6.564-84.299-6.639-86.014-6.639c-1.715,0-42.505,0.075-86.013,6.639c-56.753,8.563-90.712,23.758-103.817,46.455
	c-4.839,8.379-8.663,21.096-3.285,37.453c-69.395,50.805-57.897,109.843-39.81,166.164c24.888,77.497,60.685,153.425,98.212,208.315
	c20.936,30.622,42.223,54.709,63.272,71.591c24.308,19.496,48.344,29.382,71.441,29.382c23.097,0,47.133-9.886,71.44-29.382
	c21.05-16.882,42.336-40.969,63.273-71.591c37.525-54.891,73.322-130.818,98.211-208.316
	C558.513,313.78,570.009,254.742,500.614,203.937z"/>
<path style="fill:#FFFFFF;" d="M530.038,250.717c-8.892-14.964-22.806-29.168-43.165-42.772c3.485-6.901,5.19-13.441,5.19-19.616
	c0.02-8.141-3.027-15.443-8.082-21.537c-8.876-10.684-23.544-18.213-40.685-24.009c-51.393-17.224-126.317-18.2-135.796-18.233
	c-7.205,0.008-52.464,0.623-96.287,8.483c-21.921,3.948-43.47,9.661-59.927,18.269c-8.226,4.316-15.216,9.371-20.271,15.487
	c-5.055,6.097-8.104,13.4-8.085,21.541c0,6.173,1.704,12.716,5.193,19.618c-20.36,13.605-34.273,27.806-43.168,42.771
	c-9.338,15.689-13.037,32.146-13.024,49.068c0.012,21.391,5.785,43.558,13.273,66.901c23.663,73.661,57.972,148.624,96.799,205.43
	c19.422,28.4,39.969,52.274,61.039,69.182c21.059,16.882,42.767,26.911,64.459,26.928c21.686-0.017,43.398-10.044,64.454-26.928
	c63.065-50.722,122.273-164.108,157.841-274.611c7.482-23.345,13.259-45.51,13.269-66.901
	C543.075,282.864,539.378,266.406,530.038,250.717z"/>
<path d="M522.294,364.278c-23.448,73.025-57.559,147.463-95.802,203.389c-19.112,27.964-39.261,51.287-59.468,67.485
	c-20.219,16.222-40.362,25.211-59.524,25.192c-19.164,0.019-39.307-8.971-59.526-25.192
	c-60.765-48.594-120.172-161.345-155.27-270.874c-7.421-23.077-12.907-44.545-12.893-64.492c0.011-15.808,3.368-30.64,11.917-45.045
	c8.558-14.395,22.419-28.434,43.718-42.175l3.15-2.033l-1.875-3.249c-4.181-7.245-5.912-13.516-5.912-18.954
	c0.017-6.194,2.173-11.509,6.282-16.525c7.164-8.76,20.655-16.054,37.118-21.554c49.42-16.667,124.306-17.851,133.289-17.82
	c6.86-0.006,51.917,0.633,94.89,8.358c21.479,3.847,42.449,9.506,57.662,17.495c7.609,3.982,13.742,8.53,17.849,13.521
	c4.109,5.016,6.265,10.333,6.285,16.525c0,5.439-1.736,11.709-5.912,18.957l-1.872,3.246l3.149,2.033
	c21.297,13.742,35.158,27.78,43.715,42.175c8.548,14.406,11.907,29.238,11.919,45.045
	C535.194,319.73,529.707,341.198,522.294,364.278z"/>
<path style="fill:#F4EB3C;" d="M155.654,176.922c10.066-3.803,15.145-5.542,25.376-8.693c1.064,3.456,1.596,5.184,2.66,8.638
	c-5.946,1.832-8.906,2.803-14.797,4.859c0.968,2.774,1.451,4.159,2.419,6.934c4.944-1.726,7.427-2.549,12.411-4.113
	c1.016,3.241,1.525,4.861,2.542,8.103c-4.881,1.533-7.313,2.339-12.154,4.029c2.265,6.49,3.398,9.735,5.664,16.225
	c-3.714,1.298-5.566,1.97-9.255,3.363C165.567,203.152,160.609,190.037,155.654,176.922"/>
<path style="fill:#F4EB3C;" d="M214.778,184.806c3.778,0.527,5.659,0.815,9.391,1.432c0.083,3.247-0.261,6.047-1.021,8.408
	c-0.759,2.36-1.902,4.27-3.436,5.745c-1.534,1.475-3.657,2.538-6.388,3.224c-3.313,0.83-6.176,0.909-8.628,0.204
	c-2.452-0.706-4.903-2.438-7.381-5.203c-2.48-2.764-4.489-6.632-5.971-11.637c-1.977-6.67-2.078-12.227-0.175-16.653
	c1.903-4.427,5.633-7.403,11.091-8.778c4.27-1.076,7.891-0.817,10.8,0.719c2.909,1.538,5.408,4.366,7.49,8.459
	c-3.398,1.768-5.084,2.671-8.425,4.508c-0.606-1.173-1.154-2.006-1.635-2.501c-0.801-0.825-1.678-1.408-2.633-1.726
	c-0.956-0.318-1.95-0.348-2.975-0.091c-2.321,0.585-3.791,2.209-4.413,4.809c-0.465,1.938-0.213,4.734,0.766,8.37
	c1.21,4.501,2.574,7.441,4.072,8.833c1.499,1.393,3.186,1.845,5.09,1.365c1.846-0.465,3.076-1.483,3.699-3.07
	C214.722,189.634,214.95,187.497,214.778,184.806"/>
<path style="fill:#F4EB3C;" d="M264.879,176.313c3.665,0.998,5.484,1.522,9.094,2.603c-0.321,3.232-1.008,5.967-2.053,8.211
	c-1.044,2.246-2.414,3.997-4.112,5.267c-1.698,1.269-3.925,2.057-6.704,2.39c-3.371,0.406-6.203,0.119-8.534-0.89
	c-2.33-1.01-4.53-3.038-6.63-6.094c-2.101-3.058-3.601-7.148-4.441-12.3c-1.122-6.866-0.532-12.39,1.894-16.538
	c2.424-4.15,6.47-6.628,12.025-7.302c4.347-0.528,7.892,0.184,10.572,2.077c2.68,1.892,4.794,5.011,6.34,9.334
	c-3.576,1.326-5.351,2.009-8.878,3.411c-0.453-1.24-0.892-2.137-1.304-2.688c-0.686-0.919-1.481-1.606-2.383-2.042
	c-0.904-0.436-1.882-0.591-2.925-0.465c-2.362,0.285-4.016,1.711-4.953,4.212c-0.698,1.863-0.797,4.667-0.283,8.395
	c0.635,4.619,1.617,7.709,2.921,9.279c1.304,1.57,2.914,2.231,4.854,1.996c1.878-0.23,3.218-1.083,4.032-2.578
	C264.224,181.096,264.714,179.003,264.879,176.313"/>
<path style="fill:#F4EB3C;" d="M276.862,150.317c4.273-0.303,6.413-0.428,10.693-0.625c0.269,5.882,0.401,8.824,0.671,14.705
	c4.515-0.207,6.774-0.28,11.29-0.364c-0.109-5.887-0.16-8.829-0.269-14.715c4.301-0.08,6.452-0.095,10.754-0.066
	c-0.089,14.021-0.192,28.041-0.279,42.062c-3.88-0.025-5.821-0.013-9.699,0.058c-0.126-6.804-0.188-10.206-0.314-17.011
	c-4.406,0.081-6.609,0.15-11.01,0.353c0.311,6.797,0.469,10.201,0.78,16.999c-3.86,0.178-5.788,0.289-9.642,0.563
	C278.843,178.289,277.855,164.303,276.862,150.317"/>
<path style="fill:#F4EB3C;" d="M335.833,185.405c-4.455-0.326-6.684-0.457-11.144-0.654c-0.743,2.746-1.108,4.122-1.829,6.872
	c-3.941-0.159-5.916-0.214-9.858-0.273c4.295-13.999,8.831-27.837,13.652-41.665c4.667,0.212,7.002,0.351,11.664,0.69
	c3.16,14.299,6.029,28.576,8.646,42.984c-4.027-0.417-6.043-0.6-10.078-0.912C336.476,189.629,336.267,188.221,335.833,185.405
	 M334.414,176.187c-1.025-6.132-1.565-9.196-2.699-15.322c-1.827,5.952-2.714,8.931-4.436,14.902
	C330.135,175.91,331.56,175.994,334.414,176.187"/>
<path style="fill:#F4EB3C;" d="M354.709,151.883c7.978,0.891,11.962,1.428,19.901,2.693c3.309,0.525,5.679,1.958,7.083,4.248
	c1.403,2.29,1.816,4.896,1.279,7.812c-0.45,2.447-1.449,4.429-2.976,5.962c-1.018,1.023-4.02,2.152-4.02,2.152
	c-0.017,0.155,3.73,2.658,4.507,4.6c0.776,1.941,0.903,4.23,0.408,6.861c-0.403,2.143-1.148,3.997-2.221,5.57
	c-1.07,1.572-2.35,2.737-3.821,3.506c-0.913,0.476-2.207,0.72-3.873,0.733c-2.217,0.017-3.672-0.016-4.376-0.125
	c-6.608-1.027-9.923-1.468-16.559-2.208C351.598,179.752,353.158,165.818,354.709,151.883 M363.203,169.563
	c1.777,0.245,2.666,0.37,4.442,0.634c1.593,0.235,2.751,0.066,3.482-0.526c0.732-0.592,1.207-1.541,1.415-2.843
	c0.192-1.21,0.025-2.204-0.5-2.984c-0.526-0.78-1.578-1.291-3.156-1.525c-1.838-0.273-2.759-0.406-4.6-0.658
	C363.852,164.821,363.636,166.401,363.203,169.563 M360.956,185.935c2,0.274,3.003,0.417,5.001,0.717
	c1.688,0.254,2.937,0.051,3.754-0.621c0.818-0.674,1.341-1.67,1.554-2.992c0.198-1.228,0.013-2.27-0.564-3.128
	c-0.578-0.857-1.748-1.423-3.5-1.688c-2.033-0.305-3.053-0.452-5.088-0.732C361.649,180.87,361.42,182.559,360.956,185.935"/>
<path style="fill:#F4EB3C;" d="M403.471,196.317c-4.36-1.099-6.547-1.619-10.93-2.592c-1.212,2.575-1.81,3.868-3.001,6.451
	c-3.874-0.846-5.816-1.241-9.706-1.985c6.669-13.043,13.553-25.883,20.719-38.661c4.585,1.023,6.87,1.566,11.434,2.716
	c0.667,14.639,1.048,29.204,1.154,43.858c-3.926-1.119-5.892-1.654-9.84-2.666C403.381,200.59,403.411,199.167,403.471,196.317
	 M403.658,186.99c0.043-6.218,0.037-9.333-0.028-15.566c-2.841,5.543-4.232,8.326-6.971,13.906
	C399.464,185.968,400.862,186.301,403.658,186.99"/>
<path style="fill:#F4EB3C;" d="M427.992,166.611c7.768,2.282,11.635,3.517,19.314,6.172c3.199,1.107,5.311,2.94,6.314,5.447
	c1.002,2.506,0.967,5.15-0.07,7.927c-0.87,2.33-2.209,4.104-3.991,5.342c-1.19,0.828-4.37,1.405-4.37,1.405
	c-0.045,0.147,3.252,3.283,3.69,5.336c0.438,2.051,0.173,4.33-0.773,6.834c-0.772,2.04-1.834,3.734-3.173,5.091
	c-1.338,1.357-2.811,2.28-4.409,2.774c-0.993,0.308-2.313,0.317-3.975,0.034c-2.209-0.378-3.656-0.671-4.338-0.903
	c-6.395-2.185-9.612-3.204-16.072-5.1C420.092,193.517,424.039,180.063,427.992,166.611 M433.378,185.527
	c1.726,0.554,2.585,0.837,4.305,1.41c1.543,0.515,2.73,0.553,3.56,0.1c0.83-0.453,1.465-1.303,1.896-2.55
	c0.4-1.157,0.404-2.167,0.016-3.029c-0.389-0.861-1.351-1.555-2.88-2.065c-1.779-0.595-2.671-0.886-4.456-1.46
	C434.842,180.971,434.354,182.49,433.378,185.527 M428.317,201.26c1.942,0.626,2.911,0.943,4.846,1.593
	c1.635,0.549,2.916,0.569,3.846,0.051c0.93-0.518,1.617-1.403,2.059-2.668c0.41-1.174,0.405-2.235-0.021-3.183
	c-0.426-0.946-1.491-1.713-3.188-2.283c-1.969-0.662-2.957-0.986-4.933-1.622C429.882,196.393,429.361,198.015,428.317,201.26"/>
<path style="fill:#ECE830;" d="M307.5,221.774c-35.907,0.219-193.823,6.296-179.264,96.563
	c15.667,97.134,126.349,288.756,179.264,300.339V221.774z"/>
<path style="fill:#ECE830;" d="M82.213,656.443c31.857-11.576,63.937-20.872,97.05-28.111c-5.717-1.122-8.595-1.653-14.387-2.644
	c-15.211-2.596-30.52-4.601-45.886-6.032c-3.697-12.414-5.545-18.617-9.242-31.032c-0.605-2.029-0.907-3.048-1.513-5.078
	c-16.022,4.773-31.873,10.12-47.51,16.032c2.964,1.144,4.439,1.726,7.375,2.902c12.072,4.83,23.99,10.043,35.73,15.631
	c-7.721,12.329-11.371,18.551-18.239,31.067C84.219,652.081,83.544,653.535,82.213,656.443"/>
<path style="fill:#ECE830;" d="M100.654,558.073c0.742,2.49,1.114,3.738,1.855,6.229c4.826,16.212,9.659,32.423,14.484,48.637
	c0.8,2.688,1.199,4.03,2.001,6.718c124.756-35.354,252.255-35.352,377.013,0c0.8-2.688,1.2-4.03,2.002-6.718
	c4.826-16.213,9.65-32.426,14.483-48.637c0.741-2.49,1.112-3.738,1.854-6.229C377.645,519.185,237.354,519.181,100.654,558.073"/>
<path style="fill:#ECE830;" d="M511.168,618.111c11.737-5.586,23.653-10.804,35.725-15.634c2.935-1.176,4.417-1.755,7.382-2.899
	c-15.642-5.908-31.49-11.254-47.513-16.033c-0.605,2.03-0.911,3.05-1.515,5.079c-3.697,12.414-5.543,18.618-9.24,31.032
	c-15.366,1.429-30.671,3.441-45.884,6.032c-5.793,0.99-8.671,1.521-14.389,2.644c33.114,7.237,65.194,16.535,97.052,28.112
	c-1.33-2.909-2.003-4.363-3.377-7.266C522.54,636.66,518.89,630.44,511.168,618.111"/>
<path style="fill:#58595B;" d="M481.269,615.453c-13.52-3.691-27.157-6.943-40.885-9.761c-1.365,6.641-2.043,9.959-3.408,16.601
	c-0.495,2.415-0.745,3.624-1.241,6.039c20.051-3.655,40.006-6.517,60.272-8.676C490.126,617.904,487.178,617.065,481.269,615.453"/>
<path style="fill:#58595B;" d="M118.99,619.656c20.267,2.163,40.223,5.021,60.274,8.676c-0.496-2.415-0.743-3.624-1.239-6.039
	c-1.365-6.643-2.047-9.96-3.412-16.601c-13.725,2.816-27.359,6.072-40.877,9.762C127.825,617.066,124.873,617.904,118.99,619.656"/>
<path d="M147.295,590.289c-5.204,1.258-7.799,1.915-12.983,3.277c-0.135,2.414-0.201,3.617-0.324,6.031
	c-4.62,1.227-6.926,1.863-11.529,3.174c1.396-12.521,3.027-25.014,4.902-37.472c5.194-1.359,7.797-2.015,13.01-3.277
	c7.546,10.082,14.896,20.311,22.039,30.681c-4.778,1.05-7.161,1.595-11.923,2.732C149.217,593.374,148.579,592.347,147.295,590.289
	 M143.121,583.549c-2.85-4.461-4.288-6.688-7.196-11.122c-0.438,5.28-0.644,7.919-1.021,13.194
	C138.186,584.771,139.83,584.356,143.121,583.549"/>
<path d="M158.604,557.862c6.313-1.353,9.475-1.99,15.811-3.198c4.032,7.867,6.015,11.813,9.903,19.729
	c0.841-8.774,1.297-13.166,2.285-21.944c6.347-1.096,9.523-1.607,15.888-2.558c2.06,13.788,3.093,20.682,5.153,34.47
	c-3.771,0.562-5.656,0.857-9.421,1.475c-1.719-10.492-2.579-15.736-4.298-26.229c-1.296,10.986-1.886,16.477-2.95,27.457
	c-3.401,0.594-5.102,0.905-8.498,1.546c-4.854-9.906-7.336-14.842-12.412-24.67c2.08,10.426,3.121,15.639,5.202,26.065
	c-3.748,0.747-5.619,1.135-9.357,1.937C162.988,578.31,161.526,571.494,158.604,557.862"/>
<path d="M211.37,572.167c4.425-0.885,6.639-1.307,11.079-2.118c0.446,1.622,1.095,2.821,1.941,3.595
	c1.371,1.253,3.172,1.745,5.401,1.49c1.664-0.191,2.906-0.692,3.731-1.507c0.825-0.814,1.189-1.695,1.088-2.642
	c-0.095-0.898-0.614-1.654-1.558-2.269c-0.942-0.614-3.034-1.061-6.26-1.324c-5.286-0.434-9.174-1.363-11.619-2.804
	c-2.459-1.445-3.896-3.508-4.272-6.209c-0.247-1.773,0.094-3.53,1.04-5.266c0.944-1.736,2.53-3.215,4.759-4.422
	c2.227-1.206,5.397-2.063,9.495-2.534c5.027-0.578,8.954-0.143,11.751,1.246c2.795,1.388,4.598,3.87,5.424,7.424
	c-4.503,0.652-6.751,0.996-11.241,1.721c-0.469-1.526-1.225-2.595-2.268-3.196c-1.045-0.602-2.42-0.808-4.123-0.608
	c-1.4,0.164-2.424,0.555-3.068,1.168c-0.643,0.614-0.917,1.299-0.824,2.055c0.066,0.552,0.437,1.003,1.056,1.377
	c0.615,0.372,2.015,0.645,4.163,0.799c5.325,0.385,9.182,1.05,11.538,1.857c2.356,0.809,4.114,1.938,5.274,3.373
	c1.163,1.436,1.822,3.104,1.991,4.999c0.201,2.227-0.288,4.342-1.451,6.344c-1.164,2.003-2.891,3.603-5.177,4.814
	c-2.288,1.212-5.233,2.011-8.851,2.426c-6.353,0.73-10.883,0.187-13.642-1.745C213.993,578.278,212.19,575.605,211.37,572.167"/>
<path d="M247.123,544.658c12.331-1.05,24.688-1.78,37.057-2.186c0.113,3.44,0.17,5.161,0.283,8.602
	c-4.917,0.161-7.377,0.263-12.292,0.511c0.528,10.484,0.792,15.729,1.322,26.214c-4.64,0.233-6.958,0.369-11.594,0.683
	c-0.709-10.476-1.064-15.71-1.773-26.184c-4.91,0.332-7.365,0.521-12.27,0.938C247.563,549.806,247.415,548.089,247.123,544.658"/>
<path d="M289.673,542.313c13.083-0.328,19.63-0.341,32.715-0.066c-0.064,2.976-0.094,4.463-0.157,7.438
	c-8.105-0.17-12.16-0.198-20.266-0.134c0.017,2.217,0.026,3.324,0.044,5.541c7.46-0.06,11.192-0.039,18.652,0.103
	c-0.055,2.843-0.08,4.266-0.134,7.108c-7.384-0.14-11.077-0.16-18.461-0.103c0.022,2.748,0.032,4.121,0.054,6.869
	c8.107-0.065,12.164-0.036,20.272,0.141c-0.069,3.156-0.103,4.734-0.172,7.891c-12.667-0.276-19.004-0.265-31.672,0.054
	C290.199,563.218,290.022,556.25,289.673,542.313"/>
<path d="M328.625,577.271c0.436-13.936,0.651-20.9,1.088-34.834c8.135,0.254,12.204,0.441,20.331,0.929
	c3.769,0.226,6.624,0.71,8.571,1.424c1.946,0.713,3.471,1.89,4.562,3.526c1.089,1.637,1.535,3.564,1.354,5.775
	c-0.157,1.928-0.749,3.553-1.773,4.879c-1.024,1.326-2.366,2.356-4.02,3.107c-1.055,0.477-4.268,1.082-4.268,1.082
	c-0.005,0.045,2.382,1.03,2.994,1.499c0.411,0.315,1,0.974,1.754,1.969c0.754,0.995,1.245,1.757,1.481,2.285
	c1.964,4.206,2.93,6.308,4.825,10.525c-5.233-0.451-7.848-0.651-13.086-1c-2.194-4.415-3.311-6.617-5.585-11.016
	c-0.717-1.422-1.385-2.366-1.989-2.802c-0.81-0.586-1.775-0.905-2.857-0.959c-0.418-0.021-0.628-0.031-1.046-0.052
	c-0.274,5.652-0.412,8.476-0.686,14.128C335.617,577.512,333.287,577.415,328.625,577.271 M341.283,557.032
	c2.017,0.098,3.023,0.151,5.039,0.265c0.545,0.031,1.625-0.089,3.196-0.291c0.789-0.102,1.47-0.419,2.008-0.973
	c0.539-0.553,0.835-1.208,0.883-1.968c0.072-1.123-0.271-2.014-1.031-2.664c-0.762-0.651-2.243-1.044-4.446-1.167
	c-2.12-0.119-3.184-0.175-5.305-0.277C341.49,552.788,341.421,554.202,341.283,557.032"/>
<path d="M372.576,545.076c7.231,0.664,10.845,1.043,18.063,1.893c3.555,0.42,6.372,1.208,8.444,2.341
	c2.073,1.133,3.707,2.595,4.907,4.376c1.196,1.782,1.962,3.771,2.294,5.965c0.334,2.193,0.323,4.467-0.015,6.82
	c-0.531,3.685-1.406,6.475-2.612,8.377c-1.207,1.903-2.718,3.429-4.525,4.583c-1.807,1.152-3.664,1.838-5.572,2.058
	c-2.612,0.302-4.945,0.336-7.002,0.094c-6.863-0.808-10.296-1.168-17.173-1.801C370.662,565.898,371.301,558.959,372.576,545.076
	 M383.882,554.148c-0.829,7.572-1.245,11.356-2.074,18.927c1.147,0.126,1.723,0.192,2.868,0.323c2.44,0.277,4.206,0.237,5.298-0.133
	c1.094-0.371,2.01-1.137,2.751-2.297c0.741-1.162,1.286-3.123,1.637-5.891c0.463-3.664,0.116-6.258-1.055-7.776
	c-1.171-1.518-3.317-2.466-6.429-2.82C385.679,554.346,385.081,554.279,383.882,554.148"/>
<path d="M431.482,582.563c-5.249-0.971-7.877-1.432-13.139-2.298c-1.105,2.15-1.656,3.223-2.75,5.377
	c-4.693-0.761-7.042-1.118-11.746-1.795c6.354-10.866,12.913-21.61,19.685-32.221c5.271,0.872,7.905,1.333,13.164,2.305
	c2.761,12.282,5.293,24.617,7.579,36.997c-4.786-0.988-7.182-1.46-11.98-2.362C431.977,586.166,431.813,584.966,431.482,582.563
	 M430.43,574.709c-0.777-5.234-1.179-7.851-2.018-13.088c-2.548,4.643-3.806,6.968-6.295,11.632
	C425.446,573.814,427.105,574.106,430.43,574.709"/>
<path d="M455.014,557.568c6.315,1.341,9.468,2.047,15.759,3.532c0.477,8.829,0.677,13.239,1.005,22.056
	c4.355-7.667,6.568-11.483,11.062-19.093c6.267,1.596,9.395,2.429,15.633,4.169c-3.748,13.428-5.621,20.142-9.369,33.571
	c-3.696-1.031-5.547-1.537-9.254-2.516c2.712-10.28,4.067-15.422,6.78-25.702c-5.68,9.497-8.466,14.274-13.928,23.862
	c-3.363-0.848-5.046-1.262-8.416-2.066c-0.396-11.025-0.655-16.543-1.282-27.588c-2.355,10.368-3.529,15.551-5.884,25.92
	c-3.731-0.849-5.603-1.259-9.344-2.053C450.67,578.023,452.119,571.207,455.014,557.568"/>
</svg>
