<?xml version="1.0" encoding="iso-8859-1"?>
<!-- Generator: Adobe Illustrator 24.0.1, SVG Export Plug-In . SVG Version: 6.00 Build 0)  -->
<svg version="1.1" id="Layer_1" xmlns="http://www.w3.org/2000/svg" xmlns:xlink="http://www.w3.org/1999/xlink" x="0px" y="0px"
	 viewBox="0 0 612 792" style="enable-background:new 0 0 612 792;" xml:space="preserve">
<path style="fill:#FFCB05;" d="M121.68,501.928l-91.008-338.76l-2.52-9.288l-5.04-18.648l17.568,7.992l8.784,4.032l169.92,77.616
	l6.048,2.736l12.024,5.544l-9.504,9.216l-4.752,4.608c-4.968,4.896-8.136,9.432-9.792,13.608c-1.584,3.96-1.8,7.416-0.936,10.224
	c0.288,0.864,0.648,1.8,1.224,2.664c0.576,0.936,1.224,1.8,2.016,2.52c0.864,0.72,1.8,1.44,2.808,2.016
	c1.08,0.576,2.232,1.008,3.528,1.368c3.6,1.008,7.776,0.864,12.024-0.648c4.176-1.44,8.424-4.248,12.456-8.64
	c2.88-3.168,5.544-7.128,7.92-11.592c2.592-4.68,4.968-10.08,7.128-15.984c1.944-5.184,3.816-10.872,5.616-16.848
	c1.224-4.032,2.376-8.064,3.456-12.024c-0.504-0.288-1.008-0.576-1.44-0.936c-2.592-1.728-4.968-3.528-7.128-5.472
	c-5.184-4.752-9.144-10.152-11.52-15.912c-2.448-6.048-3.24-12.312-2.016-18.648l0,0c1.296-6.336,4.32-11.952,8.784-16.56l0,0
	c4.32-4.536,10.008-8.208,16.56-10.8c5.904-2.304,12.528-3.816,19.512-4.32c6.48-0.504,13.536-0.144,20.88,1.224
	c7.272,1.296,14.04,3.456,20.088,6.192c6.408,2.952,12.096,6.696,16.704,10.872c5.184,4.68,9.144,10.08,11.52,15.912
	c2.448,5.976,3.24,12.312,2.016,18.648l0,0c-1.296,6.336-4.32,11.88-8.784,16.56l0,0c-3.24,3.384-7.272,6.264-11.808,8.64
	c0.936,3.456,1.944,6.768,2.952,9.864c1.656,5.472,3.456,10.8,5.472,15.84c2.088,5.4,4.32,10.368,6.768,14.688
	c2.232,4.032,4.752,7.632,7.416,10.656c4.032,4.392,8.28,7.2,12.456,8.64c4.248,1.512,8.424,1.656,12.024,0.648
	c1.296-0.36,2.448-0.792,3.528-1.368c1.008-0.576,1.944-1.296,2.808-2.016c0.792-0.72,1.44-1.584,2.016-2.52
	c0.576-0.864,0.936-1.8,1.224-2.664c0.864-2.808,0.648-6.264-0.936-10.224c-1.656-4.176-4.824-8.712-9.792-13.608l-4.752-4.608
	l-9.504-9.216l12.024-5.544l6.048-2.736l169.92-77.616l8.784-4.032l17.568-7.992L585,153.88l-2.52,9.288l-91.008,338.76h43.632
	V604.96h-100.8c-16.416,15.984-35.784,28.872-57.169,37.8c-21.816,9.144-45.648,14.184-70.559,14.184
	c-24.768,0-48.456-4.968-70.056-13.968c-21.672-9-41.184-21.96-57.672-38.016h-100.8V501.928H121.68z"/>
<path style="fill:#1D5CA6;" d="M133.56,511.072l-94.104-350.28l-2.52-9.288l8.784,4.032l169.848,77.544l6.048,2.808l-4.752,4.608
	c-12.6,12.24-15.696,23.976-13.104,32.832c1.08,3.6,3.096,6.768,5.76,9.288c2.736,2.592,6.264,4.464,10.08,5.544
	c10.08,2.736,22.824-0.144,33.624-11.952c6.768-7.416,12.168-18,16.92-30.528c4.104-10.944,7.632-23.4,11.088-36.504
	c-5.04-2.448-9.432-5.4-13.032-8.64c-8.28-7.56-12.528-16.848-10.728-26.136l0,0c1.8-9.288,9.216-16.488,19.728-20.592
	c9.792-3.816,22.392-5.04,35.496-2.664c13.176,2.304,24.552,7.848,32.256,14.832c8.28,7.56,12.528,16.848,10.728,26.136l0,0
	c-1.8,9.216-9.216,16.416-19.728,20.592c-0.936,0.36-1.872,0.648-2.808,1.008v-0.072c3.24,12.384,6.768,24.048,10.8,34.416
	c4.464,11.448,9.648,21.168,15.984,28.152c10.8,11.808,23.544,14.688,33.624,11.952c3.816-1.08,7.344-2.952,10.08-5.544
	c2.664-2.52,4.68-5.688,5.76-9.288c2.592-8.856-0.504-20.592-13.104-32.832l-4.752-4.608l6.048-2.808l169.848-77.544l8.784-4.032
	l-2.52,9.288l-94.104,350.28h46.368v84.816h-95.4c-31.68,32.04-75.6,51.912-123.984,51.912c-48.024,0-91.656-19.584-123.264-51.192
	c-0.288-0.216-0.504-0.504-0.72-0.72h-95.4v-84.816H133.56z"/>
<rect x="96.264" y="520.144" style="fill:#FFFFFF;" width="420.624" height="66.6"/>
<path style="fill:#FFFFFF;" d="M481.104,470.608l81.36-302.832l-155.376,70.92c11.592,13.392,14.112,26.568,11.016,37.152
	c-1.512,5.256-4.464,9.792-8.28,13.392c-3.816,3.6-8.64,6.264-13.896,7.704c-13.032,3.6-29.304,0-42.696-14.616
	c-7.2-7.848-12.888-18.504-17.712-30.96c-4.752-12.024-8.712-25.776-12.456-40.32c-0.072-0.072-1.008-3.96-1.008-4.104
	c3.6-0.576,7.128-1.368,10.584-2.736c7.632-3.024,12.96-7.848,14.112-13.824l0,0c1.152-5.976-1.944-12.24-7.92-17.64
	c-6.552-5.976-16.272-10.656-27.72-12.672c-11.376-2.088-22.248-1.08-30.6,2.232c-7.632,2.952-12.96,7.848-14.112,13.824l0,0
	c-1.152,5.904,1.944,12.24,7.92,17.64c5.184,4.752,11.16,7.632,17.64,10.08c-0.144,0.576-0.576,2.376-0.72,2.952
	c-3.6,15.048-7.848,29.376-12.6,42.12c-5.112,13.464-11.088,25.056-18.72,33.408c-13.392,14.616-29.664,18.216-42.696,14.616
	c-5.256-1.44-10.08-4.104-13.896-7.704c-3.816-3.6-6.768-8.136-8.28-13.392c-3.096-10.584-0.576-23.76,11.016-37.152l-155.376-70.92
	l81.432,302.832c1.368-94.824,79.2-171.792,174.456-171.792c48.024,0,91.656,19.584,123.264,51.192
	C460.944,381.04,480.384,423.592,481.104,470.608z"/>
<path style="fill:#1D5CA6;" d="M308.232,174.544c7.704,1.44,13.248,6.408,12.312,11.232c-0.936,4.752-7.992,7.56-15.624,6.12
	c-7.704-1.368-13.248-6.408-12.312-11.16C293.544,175.984,300.6,173.176,308.232,174.544z"/>
<path style="fill:#FFCB05;" d="M303.552,373.408l-72.432-33.624c-9.576,5.832-18.576,11.664-27,18.288
	c-8.568,6.696-16.704,14.184-24.552,23.184l7.2,58.248l44.28,17.064l72.504-55.152V373.408z"/>
<path style="fill:#FFCB05;" d="M426.384,439.504l7.2-58.248c-7.848-9-15.984-16.488-24.552-23.184
	c-8.424-6.624-17.424-12.456-27-18.288L309.6,373.408v28.008l72.504,55.152L426.384,439.504z"/>
<path style="fill:#FFCB05;" d="M444.312,376.576c-5.616-7.92-11.88-15.408-18.72-22.248c-12.888-12.96-27.936-23.76-44.424-31.968
	l3.744,12.096c9.792,5.904,19.008,11.952,27.864,18.864c8.784,6.912,17.136,14.544,25.2,23.76L444.312,376.576z"/>
<path style="fill:#FFCB05;" d="M474.264,489.256c0.504-5.256,0.792-10.584,0.792-15.984c0-33.48-9.864-64.728-26.784-90.864
	l-8.784,0.648l-7.2,57.96L460.872,493L474.264,489.256z"/>
<path style="fill:#FFCB05;" d="M350.208,635.992c27.216-7.344,51.696-21.312,71.712-40.104h-45.432
	c-4.104,5.112-8.424,10.08-12.96,15.048c-5.688,6.12-11.808,12.24-18.216,18.216L350.208,635.992z"/>
<path style="fill:#FFCB05;" d="M269.28,637.576c12.024,2.736,24.48,4.176,37.296,4.176c12.816,0,25.272-1.44,37.296-4.176
	l-3.96-5.472c-22.248,4.824-44.424,4.824-66.672,0L269.28,637.576z"/>
<path style="fill:#FFCB05;" d="M191.232,595.888c19.944,18.792,44.496,32.76,71.712,40.104l4.968-6.84
	c-6.48-5.976-12.6-12.096-18.288-18.216c-4.536-4.968-8.856-9.936-12.96-15.048H191.232z"/>
<polygon style="fill:#FFCB05;" points="246.456,511.072 229.176,462.328 185.328,445.48 156.888,497.248 163.224,511.072 "/>
<polygon style="fill:#FFCB05;" points="360.288,511.072 378,461.032 306.576,406.744 235.152,461.032 252.864,511.072 "/>
<polygon style="fill:#FFCB05;" points="449.928,511.072 456.264,497.248 427.824,445.48 383.976,462.328 366.696,511.072 "/>
<path style="fill:#FFCB05;" d="M470.736,511.072c1.152-5.04,2.088-10.152,2.808-15.336l-11.376,3.168l-5.616,12.168H470.736z"/>
<path style="fill:#FFCB05;" d="M244.512,595.888c3.096,3.672,6.264,7.344,9.576,10.944c6.048,6.48,12.456,12.816,19.152,19.008
	c22.248,5.112,44.424,5.112,66.672,0c6.696-6.192,13.104-12.528,19.152-19.008c3.312-3.6,6.552-7.272,9.576-10.944H244.512z"/>
<path style="fill:#FFCB05;" d="M139.608,495.736c0.72,5.184,1.656,10.296,2.808,15.336H156.6l-5.544-12.168L139.608,495.736z"/>
<path style="fill:#FFCB05;" d="M164.88,382.408c-16.92,26.136-26.784,57.384-26.784,90.864c0,5.4,0.288,10.728,0.792,15.984
	L152.28,493l28.584-51.984l-7.2-57.96L164.88,382.408z"/>
<path style="fill:#FFCB05;" d="M231.984,322.36c-25.272,12.528-47.016,31.32-63.144,54.216l6.336,0.504
	c8.064-9.216,16.416-16.848,25.2-23.76c8.856-6.912,18.072-12.96,27.864-18.864L231.984,322.36z"/>
<path style="fill:#FFCB05;" d="M306.576,304.864c-23.832,0-46.584,4.968-67.176,14.039l-4.896,15.768l72.072,33.48l72.072-33.48
	l-4.896-15.768C353.16,309.832,330.408,304.864,306.576,304.864z"/>
<path style="fill:#1D5CA6;" d="M176.04,561.76h11.448l-5.688-18.144L176.04,561.76L176.04,561.76z M152.568,579.688l20.016-52.416
	h18.432l20.016,52.416H192.96l-2.16-6.984h-18.072l-2.232,6.984H152.568z"/>
<path style="fill:#1D5CA6;" d="M256.896,549.808h8.064c2.808,0,4.752-0.36,5.76-1.08c1.08-0.72,1.656-2.016,1.656-3.816
	c0-1.872-0.576-3.096-1.656-3.888c-1.008-0.648-3.096-1.08-6.264-1.08h-7.56V549.808L256.896,549.808z M239.472,579.688v-52.416
	h26.28c8.28,0,14.112,1.152,17.64,3.528c3.528,2.376,5.328,6.192,5.328,11.52c0,3.24-0.72,5.904-2.16,7.992
	c-1.44,2.088-3.672,3.816-6.696,5.04c3.024,0.576,5.256,1.8,6.696,3.6c1.368,1.872,2.088,4.536,2.232,7.992l0.288,7.344
	c0,0,0,0.072,0,0.144c0.072,2.088,0.648,3.168,1.584,3.24v2.016H272.88c-0.288-1.296-0.576-2.376-0.72-3.312
	c-0.144-0.936-0.216-1.656-0.216-2.16v-5.256c0-2.736-0.576-4.608-1.728-5.688c-1.08-1.152-3.024-1.656-5.832-1.656h-7.488v18.072
	H239.472z"/>
<polygon style="fill:#1D5CA6;" points="323.136,579.688 323.136,527.272 340.776,527.272 340.776,544.624 356.616,527.272 
	377.208,527.272 357.48,546.568 379.8,579.688 358.632,579.688 345.096,558.664 340.776,562.984 340.776,579.688 "/>
<path style="fill:#1D5CA6;" d="M425.592,561.76h11.448l-5.688-18.144L425.592,561.76L425.592,561.76z M402.12,579.688l20.016-52.416
	h18.432l20.016,52.416h-18.072l-2.16-6.984H422.28l-2.232,6.984H402.12z"/>
<path style="fill:#1D5CA6;" d="M399.528,502.72h-11.88v-37.944h15.984l5.688,18.936c0.072,0.216,0.216,0.792,0.432,1.728
	c0.216,0.936,0.504,2.232,0.936,3.816c0.216-1.296,0.504-2.376,0.72-3.312c0.216-1.008,0.432-1.656,0.576-2.16l5.76-19.008h15.984
	v37.944h-11.88l0.144-18.72c0-1.08,0-2.232,0-3.24c0-1.08,0-2.232,0-3.384c-0.432,1.944-0.936,4.104-1.584,6.408l-0.072,0.36
	l-5.04,18.576h-9.144l-5.112-18.144c-0.216-0.864-0.504-1.8-0.72-2.88c-0.216-1.08-0.576-2.52-0.936-4.32
	c0.072,1.656,0.072,3.024,0.144,4.176c0,1.224,0,2.16,0,2.808V502.72z"/>
<polygon style="fill:#1D5CA6;" points="179.424,502.72 179.424,464.776 192.528,464.776 192.528,477.664 204.768,477.664 
	204.768,464.776 217.872,464.776 217.872,502.72 204.768,502.72 204.768,488.032 192.528,488.032 192.528,502.72 "/>
<polygon style="fill:#1D5CA6;" points="300.168,502.72 300.168,461.824 267.264,461.824 267.264,451.816 345.888,451.816 
	345.888,461.824 312.984,461.824 312.984,502.72 "/>
</svg>
