<svg xmlns="http://www.w3.org/2000/svg" xml:space="preserve" viewBox="0 0 612 792"><path d="M344.148 421.856c-116.017 56.826-80.976-140.574 20.036-75.113l8.733-31.139c-44.186-14.591-78.304-10.583-102.039 3.085l-40.795 67.409c-1.954 44.393 32.779 87.549 104.918 69.67zM97.009 309.027l-24.764 91.048c-6.271 23.428-22.092 26.51-41.002 19.728l-8.631 31.65c36.172 17.365 74.499-1.027 84.878-39.974l27.437-102.452zM230.908 309.131l-63.609 115.503-3.804-115.503h-24.97l-10.38 38.843 8.223 107.281h47.577l88.579-146.124zM486.162 465.532H476.4l-8.02 28.462c-1.538 5.654-3.389 9.766-5.546 12.125-2.158 2.468-4.833 3.702-8.222 3.702-2.673 0-4.829-.821-6.268-2.567-1.542-1.75-2.264-4.113-2.056-6.99 0-.927.102-1.849.308-2.877.206-.823.414-1.849.722-2.877l7.909-28.978h-9.967l-7.604 27.436c-.512 1.335-.823 2.67-1.028 4.008 0 .206 0 .41-.101.615-.208 1.131-.208 2.262-.31 3.289-.104 1.952 0 3.696.31 5.343.617 2.673 1.849 4.931 3.698 6.782 3.083 2.877 7.292 4.315 12.948 4.315 6.575 0 11.817-1.744 15.825-5.139 4.008-3.492 6.986-8.939 8.938-16.233l6.989-26.001zM507.638 465.532h-10.072l-12.638 46.14-1.133 4.52h9.969l10.379-38.023zM537.334 465.532h-10.069l-9.454 34.627c-.823 2.674-1.952 4.729-3.392 6.065q-2.311 2.158-5.858 2.157c-.72 0-1.436-.102-2.26-.308-.617-.1-1.337-.308-2.158-.516-.207-.1-.513-.1-.719-.204l-2.773 8.224c1.231.41 2.364.819 3.492 1.027.208.1.313.1.514.1 1.337.206 2.775.411 4.11.411 4.933 0 8.836-1.232 11.819-3.695 3.183-2.366 5.342-6.166 6.782-11.307l8.424-30.929zM588.611 465.532h-12.536l-23.841 21.783 5.96-21.783h-10.067l-12.335 45.007-1.543 5.653h10.073l6.883-24.969 14.079 24.969H577l-16.031-26.511zM436.938 467.278c-.104-.103-.206-.103-.41-.206-2.571-.823-5.036-1.54-7.398-1.848-2.465-.516-4.935-.823-7.092-.823-4.212 0-8.118.617-11.612 1.54-3.494 1.131-6.679 2.674-9.25 4.727-3.7 2.877-6.573 6.27-8.732 10.277s-3.291 8.323-3.595 12.742c-.516 7.294 1.335 12.948 5.442 17.262 4.008 4.111 9.865 6.268 17.368 6.268 2.058 0 4.109-.204 6.267-.514 2.059-.204 4.112-.717 6.27-1.335l1.543-8.834c-1.954.923-3.908 1.439-5.754 1.947-1.851.414-3.7.618-5.446.618-5.035 0-8.942-1.438-11.612-4.315-2.773-2.773-4.01-6.575-3.7-11.406.206-2.569.823-5.24 1.95-7.81 1.029-2.567 2.571-4.932 4.218-6.783 2.054-2.26 4.518-3.902 7.292-5.034 2.675-1.027 5.756-1.645 9.353-1.645 1.954 0 4.01.311 6.064.821 1.952.413 3.903 1.236 5.855 2.263l2.571-6.884z" style="fill:#ed1c24"/><path d="M300.886 520.301c-.617 0-.309-.72-.927-.514l-1.025-8.323c-.206-.821-1.544-.41-2.363-.613-.104-.208-.311-.412-.311-.62l1.544-.82c.102-.514.409-1.029.308-1.853-.206-.204-.412-.304-.308-.821-.516-.617-.516-1.644-1.233-2.26l-4.521-.617-.208.105c-1.436 3.594-5.446 6.063-8.735 7.5-1.129.208-.615 1.234-1.232 1.748-.514.512-.104-.514-.614-.31.1-.512-.723-.306-.619-.72l-.823-.205-2.877-.718c.102-.409-.308-1.232.412-1.439l-1.232-3.085c-.62.31-.62-.617-1.233-.717l-.617 1.026c-.102.308-.102.616.206.823-.102.512.514.204.514.718.719.104.31 1.028.412 1.644 0 .62.923.104.719.924.615.619.204 1.748-.104 2.365 0 .925-1.129 1.027-1.336 1.85-1.025.31-2.056 2.055-3.185.928.102-.516-.204-1.235.411-1.439-.102-.414.104-.823-.411-1.031-.1-.308.102-.718.411-.821-.102-.925.412-2.056-.31-2.775-.717.104-1.027-.717-1.539-.513.1-.308-.208-.308-.411-.308-.31-.72.511-.514.511-1.131 1.438.308.619-1.233 1.337-1.849-.204-.514.515-.311.411-.721.208-.718.925-.31 1.542-.514-.206.514.512.411.719.514 0-.617.615-.206.719-.718.514-1.028-1.233-1.028-1.748-1.748-.1-.514.615-.825.412-1.232-.308-1.029-1.335-.615-2.056-.925-1.952.31-2.671 2.465-3.289 4.006-.616 1.234-2.673 1.85-2.673 3.494-1.336 1.336-1.233 3.288-2.052 4.833l-.102 6.778c1.744 1.029.717 2.981.717 4.522l1.543 1.234c-.206.615.721.72.412 1.438.31-.102.411.31.511.516 1.852 1.127 3.085 3.389 5.035 4.519.927-.412 2.264 1.336 2.777-.31.514 0 1.231-.103 1.643.104 0 .617.925.925.925 1.44h2.264c.202.206.41.308.613.411 1.749.817 4.008.101 5.962.309 3.596-.928 7.398-1.438 9.967-4.934.206-.513-.104-1.336.206-1.951 1.335.411 1.952-.823 2.879-1.439.511-.724.511-1.44.102-2.16.41 0 .618-.821 1.025-.617.617-.204.411-1.027.513-1.436-.204-.104-.613-.104-.41-.412.512-.102.614-.821.822-1.13M441.769 278.819c1.025-.206.718-1.236 1.746-1.75.103-.615-.721-.41-.413-1.129-.204-.308-.514-.412-.921-.516l-2.879.825-4.214 1.333v2.571c.103 1.335 1.541 1.233 2.26 2.158.619.206 1.337.104 1.954.206q.463-.001.925.306c.308-.408.925-.206 1.438-.512-.1-.308.308-.102.411-.308 0-1.233-1.438-2.362-.307-3.184M509.487 331.224c.104.515-.206.925-.31 1.133.413 0 .206.41.31.717h.821c.31 0 .31.206.31.513a26.4 26.4 0 0 0 3.698-1.23c1.746-.618 3.391-1.339 5.139-1.852v-1.231c-.412.102-.412-.31-.412-.412-.308 0-.308-.513-.822-.411-1.337.204-2.67.617-3.904 1.027-1.647.615-3.185 1.232-4.83 1.746M398.197 357.736c1.028 0 2.056.616 2.978.208.104-.616.518-1.235.722-1.746l2.159-.721 1.233-.41c1.333.306 2.672-.721 4.11-1.133.308-.309 1.131-.719.923-1.334-.41.208-.512-.104-.72-.31-.818-.41-.511.823-1.436.31-1.028.823-2.57.31-3.907.513-.103.102-.202.102-.202.206-1.027.41-2.467-.206-3.496.511-.408 0-.408.618-.821.414-.927.615-1.848 1.129-1.954 2.362-.41.619.513.515.411 1.13"/><path d="m393.882 473.342.104-.413c.514.309.102-.51.617-.308 0-.718-1.026-1.129-1.131-1.849-1.642-1.026-3.393-2.058-5.139-2.774 1.643-.616 3.393-1.129 5.139-1.749.615-1.951.923-4.625-.31-6.265 0-.72.105-1.438-.308-2.059.823-.102 1.952 0 2.671.412l.412 2.467h.204c.411.72 1.542.307 2.261.41.618-.104.311-.923 1.029-.923-.206-.308.308-1.131-.516-1.027v-2.262c-.617 0-.923-.514-1.44-.514 0-.205-.1-.515.104-.721 1.133-.102 2.572.31 3.596-.308 1.135.103 1.954-.206 2.881-.617 1.337-.718 2.566-2.052 4.006-2.672 1.337-1.542 1.748-3.492 2.877-5.138.104-1.129-.204-2.26.206-3.185-.206-1.439 1.131-2.363.312-3.802-.414-.925-1.442-1.439-2.365-1.439v.103c0 .31-.308.207-.516.31-.308 2.259-.615 4.623-1.234 6.78-.616-.205-.924.41-1.439.41-.101.719-.51 1.236-.821 1.85-.512.208-.823.516-1.025 1.029-.105.102-.105.102-.208.205-1.129.823-2.363 1.543-3.288 2.569-.512.101-1.027.41-1.54.823-.722.104-1.644.204-2.262-.206l-2.773-3.598 1.027-1.642c.102-.312.203-.823-.31-.823-.101-1.644 1.544-2.774.411-4.521l-3.389-.823v-.308l3.8-4.01.104.31h2.98c.306-.31.615-.51.923-.613.823-.724 1.543-1.44 2.16-2.262.409-.615-.518-.823-.31-1.439-.514.102-.41-.414-.823-.516.413-.104.31-.516.823-.617 0-.514.615-.514 1.028-.718.204-.515.922-.515 1.645-.619.202 0 .514 0 .718-.104 7.298-.613 13.975.723 20.654 1.542.102 1.031-1.337 1.339-1.541 2.262-1.131 1.232-3.802 1.439-3.7 3.802-.821 1.029-3.286 1.133-2.774 2.982-.101.719.925.103.824.823.512-.105.718.203 1.027.409l-6.781 7.296v.72c.819.514 1.436-.823 2.156-.308 4.109-3.496 7.398-7.192 11.2-10.996q.464-.462.925-.926c2.262-3.082 5.037-5.137 8.016-6.986.927-.516 1.849-1.025 2.773-1.643l1.748-.413 2.467-.514c0-.516.1-1.026-.104-1.54-.718-.104-1.131-.514-1.438-1.029 1.542-1.54 3.494-2.567 4.831-4.315.204-.206.308-.409.514-.719.409-.206 1.232.31 1.54-.412.615.206.516-.721 1.129-.721-.102-.41.208-.617.516-.922 1.336-.207.308-1.542.617-2.469-.516-.72-1.543.31-2.361 0-.208-.204-.823-.204-.722-.72.102-.1.204-.1.412-.1 0-.411-.104-.721.31-.927.507 0 1.229-.41 1.538.206.514.31.823-.103 1.234-.307.41-1.75 1.127-3.496 1.437-5.242-.205.206-.409.308-.721.206-.613.306-1.127 1.026-1.849 1.335-.203-.103-.613-.103-.411-.514l11.51-13.666c0-.31.103-.927-.204-1.234-.617-1.95-2.367-3.289-2.673-5.342-1.335-2.673 0-5.758.411-8.427.821-3.596 3.081-6.985 2.262-10.789l1.233-2.669 2.877-6.065c.102-.206.308-.923-.311-.923.516-2.158 1.439-4.319 2.47-6.066 3.49-2.978 5.033-7.294 8.014-10.89 2.877-6.167 5.857-12.435 8.323-18.808.514-1.229.925-2.465 1.44-3.698.202 0 .407.206.615.41.41.31.821.619 1.438.515.208.412.72.823.615 1.544l2.365.406c.616-.51 1.335-.51 1.952-1.229-.308-.617.514-.927.514-1.44.617.618.617 1.645 1.027 2.669.821.207 1.334-.306 1.953-.613l8.527-12.847c1.542 1.235 2.262 2.877 3.291 4.417 0 1.75 1.848 2.573 1.644 4.421.512.308.512 1.131.924 1.436.101.206.308.206.617.206-.103.514.613.104.613.617-.202.925-.923 1.543-.613 2.569-.204.104-.412.308-.617.514-.924.823-1.952 1.543-2.877 2.158l-.311-2.879-1.951-2.156c1.436-2.054-.924-3.804-1.543-5.65h-2.772c0 .306.205.923-.412.923 0 .414.106.923.516 1.235.719 2.261-.31 4.211-.208 6.369l-.201.102c.201 1.544-1.44 1.954-1.954 2.981-.72.104-.31.927-.412 1.644.204.513.722.308 1.131.41-.104.205 0 .413-.104.515h-.204c-.102 0-.31 0-.31-.206-4.419-1.231-8.732-3.288-12.639-5.446h-.104c-.104 0-.204.102-.204.206-.719.311-1.029 1.337-1.029 1.952.31.514.618 1.336 1.233 1.438h.104c1.847 1.439 3.802 3.085 6.371 3.393 2.258.31 3.494 2.671 5.035 4.211 0 1.543 1.44 2.465 1.746 4.01.613 1.027-.72.617-.306 1.642l6.473 3.906c1.229.41 1.952 2.054 3.597 1.335.411-.202.821-.512.923-1.129.206.104.308 0 .412-.102 0-.104.101-.104.101-.208l4.421-.104c.204-.512 0-1.744 1.027-1.848 0-.204.206-.204.308-.308.308-.104.721 0 .619-.412.923-.925-.208-1.85-.311-2.773l5.652-1.85.719-1.029c.514-.412.104-1.744 1.335-1.337-.103-.511 0-1.23-.103-1.848l-1.746-.618-6.165 1.337-5.652 1.128-.205-.102-1.952-1.233-2.771.719-5.45-4.213v-.308c.414-.308.615-.618 1.335-.412.619.308 1.234.104 1.542.617.927.617 1.335-.513 1.952-.927 1.133 0 2.879.823 3.702-.921h2.362l5.139-4.215 2.157-1.746-.102-1.337c-.413-.103-.206-.617-.514-.719-.207.102-.207-.204-.207-.41-.41.206-.924.306-1.335.511-.823.31-1.746.719-2.671.927-.208-.618-.928-.208-1.545-.31.104-.103.208-.513-.1-.617.308 0 .409-.717 1.026-.511v-1.131c-.103-.102-.617-.102-.409-.412.409-.208.615-.927 1.129-.823v-3.187c-.102-2.363-1.439-4.521-3.288-6.268a25 25 0 0 0-2.567-1.952c-1.135-.41-1.645-2.26-3.291-1.642l-5.546-7.4c-1.029-.31-1.44.821-2.058.925v3.494l2.363 2.26c.717.721-.72.516-.204 1.438-1.234 2.468-1.956 5.037-3.288 7.4-1.645 1.848-3.395 3.8-4.933 5.754-1.027.31-1.235-.823-1.954-.823-.72-.31-.512-1.027-1.127-1.437.1-1.133 1.332-2.158 1.846-3.291.104-.204.208-.719-.102-.823-.722.104-.412-.718-.925-.923l2.262-4.112h-.308c-.617-.719-1.441-.306-2.261-.409 0 .721-.72.207-.821.823-.516-.102-.927-.102-1.337-.102-.719.102-1.439.306-2.056.615-1.029.512-1.952 1.335-2.877 1.95-5.96.927-9.456 6.783-14.075 10.073-1.544.717-2.98 1.644-4.421 2.773-3.906 2.981-7.299 6.781-11.614 9.454-.204.102-.514.412-.717.102 2.052-4.623 4.625-9.044 6.885-13.561.925-.823-.514-1.133-.72-1.746-2.26-.518-5.344-.518-7.81 0l-1.746-.719-1.027-.516-1.028-5.14 1.951-2.26h.104l2.877-.41.306-.206c.208-.514.516-.923.617-1.337.516-.308.722-1.131.617-1.848.925-1.338.925-2.673.925-4.215-.102-.41-.308-.821-.615-.927-.103.517-.721.207-.927.723.103.514-.617.618-.512 1.131-.207.102-.516.206-.719 0 .411-.927-.412-1.336-.615-2.158-.31-.31-.518-.617-.93-.515-.409-.514-.409-1.233-.409-1.748.409-.308.204-.923.821-.923-.306-1.336 1.441-2.056 1.133-3.494 1.024-.719-.208-1.336-.308-2.056.921-1.54 2.773-2.569 3.181-4.417.311 0 .516.308.721.412 0 2.361.102 4.725.308 6.885l3.186-3.083c.618-.719.206-1.954.206-2.877.927-1.029.412-2.469.412-3.492 1.746-1.544 1.129-3.804 1.232-5.756l.208-.62c-.208-1.128.818-2.156.405-3.286 1.031-.72-.306-1.438.105-2.26-.511-.925-1.336-.823-2.363-.823-.512.306-.512 1.027-1.024 1.541-.823-.616-1.646-1.235-2.262-1.952l.203-.206c-.927-.923.821-.102.928-.923.308.1 1.131-.206 1.131.408.306.104.513-.102.717-.408.615.306.206-.513.72-.308-.206-1.029.719-1.544.409-2.671-.615-.617-1.54-.617-2.466-.823-1.026-.104-.719-1.44-.923-2.16.615-1.129 1.543-2.056 2.567-2.875.514 0 .617-.927 1.234-.617l.103-1.44c-.516-.104-.31-.923-.925-.821-1.029-1.335-4.112-.925-3.393-3.289h-1.029c.104-.615-.717-.204-.512-.819l-.513-.723-1.748-.412-.204.412h-.308l-1.235 1.85-1.334 1.438-.104.104c-2.056 2.979-1.024 1.233-1.439 1.644l-3.494 3.287h-.822l-4.111 1.029v-.102l1.541-2.157.617-1.131h-.101c.101.102-.207-.104-.207-.206-.104.308-.206-.207-.31-.412l-.718-.104-1.131.721-8.941 6.062-5.446 3.7v1.027l.31.308.204.412 4.623-.308.309.308v.515l-.102.512h-.104l-.514.414.72 5.137v.41l-.309.311c-.308.616.103.923.309 1.333v.208c.825.206 1.645.512 2.262.823.103.306-.104.512-.414.719.206.514-.407.615-.203 1.127-.412.414-1.027.617-1.335 1.031-.516-.104-.31.512-.31.925.617.513.825 1.335 1.129 2.054 1.236.719.516 2.26 1.956 2.877.409 2.26 2.359 3.906 4.006 5.548.1.206.717.104.515.62.616.204.819.819 1.129 1.335h.206c1.54.308 3.085.717 4.521 1.129.104.104.207.104.308.104-.101.206-.204.513-.308.719a.8.8 0 0 1-.41.411c.101.412-.515.31-.823.31-.411-.618-1.336-.31-1.953-.31-.613.31-.204 1.027-.308 1.539.617.208.203.823.821 1.133 0 .412-.101.719-.101 1.025-.617-.408-1.131-1.025-1.748-1.64-.516-.618-1.133-1.133-1.85-1.645-.204.616-.926.206-1.337.304-.102.207-.204.517-.409.413.409 3.083 1.746 5.962 2.671 8.837h.206c.513-.206.411-.819.615-1.333 0-.208.104-.412.104-.618.103-.206.208-.413.514-.413.413 1.646.514 3.496 1.026 5.24.412 2.16 1.748 4.01 2.982 5.858.823 1.236 1.542 2.365 2.155 3.596.619 1.542 1.44 3.186 1.75 4.832l-3.905 7.5-4.521 8.631c-2.054 1.232-4.214 2.673-6.473 3.804-.31.206-.62-.31-.722-.617-.617-1.237-1.025-2.981-1.746-4.215-.512-.921-1.234-1.641-2.26-2.054v-.103c-.206-.204.104-.204.204-.204l.411-1.952c-.103 0-.308.102-.308 0 0-.719-.821-.206-1.232-.515.101-.514-.514-.615-.412-1.027h-.308c-.617-.514-.205-1.643-.308-2.26-.721-.308-1.44-.412-1.954-.823.208-1.027-1.232-1.54-1.436-2.259.204-.62.718-1.233.924-1.85l-2.981-2.364v-.204c.926-.516 0-1.647.823-2.16.204-.719-.31-1.233-.514-1.85-1.746.104-3.288.927-5.032 1.131l-.414-.102c-.104-.102-.205-.412-.205-.619-.516-.1-.617-1.129-1.439-.819-1.543 1.438-3.597 1.541-5.343 2.36a8.4 8.4 0 0 0-1.027.621c-3.699 1.23-7.399 2.463-10.381 5.033l-2.569 3.906c-.513-.412-.721-1.027-1.026-1.437h-2.363v1.95c.822 1.13 1.644 2.259 2.363 3.596-.104.103-.204.103-.412.103-.308.819.512 1.129-.104 1.848-.1.414-.715.516-1.127.31-.104-.31-.927-.413-.721-1.029l-2.981.412v-.102l2.877-2.879c.514-.412-.511-.615-.205-1.129-.306-.308-.616-.823-1.027-.927-2.877.516-5.137 2.467-7.603 3.908-.823.717-1.747 1.54-2.26 2.465.409 1.025 1.95.104 2.567.719-.617.512-1.335.925-1.849 1.129-.31.412-1.133-.102-1.335.412-1.75 1.235-4.009 1.44-5.552 3.185-.409.62-.925 1.237-.617 1.954l3.291 1.438-1.235 1.543c-.512.408.208.719.104 1.129.613-.204.207.517.82.413 0 .104 0 .308-.102.41-.512-.204-.206.616-.823.414-.819.921-1.95 1.436-2.977 2.156-1.133.619-2.367 1.231-3.599 1.85-2.467 1.027-5.036 1.954-7.707 2.262-1.027.1-2.057.204-3.187.1l-.407-.308c.204-.511-.615-.1-.411-.719-.722-.412-.31-1.027-.31-1.642l4.315-3.085.925-.717-.308-.104c.205-.719-.208-.719-.617-.823-.31-.104-.514-.104-.718-.206l-6.783 1.954c-2.155-1.131-4.01 1.027-5.754 2.262-.413.823-.927 1.438-1.852 1.438-.72 1.234-2.054 1.234-3.185 1.642v1.339c.308.717-.718.409-.819.923-3.189 1.233-5.55 4.315-8.635 6.065-2.877 2.669-5.754 4.929-8.323 8.012v.923c-.411.619-.72 1.031-1.131 1.646 0 .311.102.619.31.823-.208.615.718.204.718.719.824 0 1.026.927 1.542 1.13-.102 1.747-.617 3.493-.617 5.135l1.44.31c.719-.613 1.232-1.23 1.232-2.054 1.952-3.083 1.439-7.398 4.623-10.171l.106-.619c.308-.41.407-.925.715-1.233.615 0 1.438-.31 1.853.206.717-.102.205.617.717.823-.409 1.95-1.131 3.8-1.439 5.857.308-.308.308.408.411.408.72-.408.928.619 1.543.208-.208-.412.308-.104.409-.308l4.112-7.504c.103-.408-.105-1.027.413-1.23.202-.927 1.538-1.85 2.464-2.262.102.104.411-.104.31-.412.819-.512 1.746-.819 2.669-1.231.721-1.236 2.157-1.132 3.29-1.748 3.595-.31 6.987-.823 10.378-1.646 1.646-.412 3.288-.925 4.935-1.437.921-.412 1.846-.823 2.773-1.334 6.68-3.085 13.154-6.681 19.318-10.897l-.308-2.054c1.646-.823 3.697-1.025 5.445-1.748 0-.513-.104-1.025 0-1.44l5.962-2.359 4.314 3.39h1.541c-.204-.927.517-2.259-.512-2.877-1.646-.823-2.979-2.158-4.315-3.186-1.339 0-1.131-1.746-2.571-2.054-.512-.412-.72-1.131-1.027-1.646.72-1.23 1.131-2.669 2.056-3.696 0 0 .204.102.204.204.823.206 1.748 1.336 2.058 2.158-.411 1.131-1.438 1.954-1.234 3.186.516 0 .925.308 1.339.618.1.202.719.202.719-.31.613-.308.923.511 1.335.821-.104.719 1.233 1.133 1.233 1.954.821.513 2.26.308 3.391.308 0-.204.104-.41.308-.308.719-.206.31-.925.411-1.542-.102 0-.411-.102-.308-.412-.103-.207.104-.511.308-.41-.102-.102 0-.206 0-.308h.208c.41.102.1-.721.617-.412.306-.515.922-.823 1.229-1.029 1.439.719 2.98 1.029 4.213 1.95-.204.414-.102.927-.102 1.34.206.202.411.514.823.41.308.823 1.334.516 1.439 1.436l-1.439 2.877 1.234 3.291c.204.102.304-.104.512-.104.204 1.131-.208 2.469-.208 3.493.518-.102.208.617.619.823l-2.98 3.395c-.412.619.721.308.411.819l1.95.723c.309-.208.619-.723 1.135-.619v1.027c-.617.208-.309.823-.723 1.131.105.516-.412 1.235.207 1.542-.102 1.233-.923 2.361-1.026 3.698.104 0 .515.104.407.412h.208c.411.513.516 1.335.821 2.056-1.541 2.262 1.748 2.361 2.569 3.7.617.204 1.544-.208 2.056.412.719 0 .308 1.027.308 1.538.719-.308.103.618.719.31.516.823 1.337.308 2.055.41.927-.511 2.159-.204 2.776-1.027.718-.412.615.516 1.027.412 0 .925.413 1.438.925 1.642 1.129.62 3.187.104 4.214.62-.308.41-.514.717-.924.821a11.7 11.7 0 0 1-3.29 1.848q-1.543.467-3.083.927c-.719.927-2.26.515-2.772 1.642-1.646.104-2.981 1.235-4.216 2.162-.923.412-1.849.615-2.567 1.331-2.056.31-3.494 2.365-5.548 2.677-.516 1.127-1.75.921-2.364 1.643-.413.204-.822.513-1.233.821-.619.31-1.131.618-1.746.618-2.777-1.235-5.345.411-7.811 1.442v-.104c-.923 1.642-3.085.923-4.315 2.154-4.42-1.331-7.912-4.931-11.305-8.427-.721-1.335-1.54-2.565-2.671-3.8v-.823h.206c1.127-1.127 2.054-1.95 2.877-3.289l4.315-3.081c1.746-.618 3.187-2.362 5.343-1.747.203-.823-.819-1.338-1.335-1.85-2.158.719-4.419 1.642-6.783 2.158-.411-.719.72-.923.41-1.542-.821-.512.619-1.027.721-1.438 3.802-2.158 8.323-2.879 12.329-4.625v-1.027c.619-.208 0-1.233.619-1.233.615-.617 1.543-.206 2.362-.308.513-.516 1.026-.927 1.338-1.543.103-.104.41 0 .306-.204-.103-.208-.203-.208-.306-.208-.413-.819-1.645-.923-2.262-1.642.31-1.338-1.028-1.031-1.646-1.235-1.127-.719-1.333.923-1.849 1.339 0 .719-.516 1.335-.721 1.95-.304.412 0 1.027-.408 1.336-4.833 3.904-10.79 5.137-16.031 8.118-1.44 1.439-4.83 2.158-4.01 4.935-.717.921-2.259.204-3.187.512l-.407 3.289c-.823.208-2.056-.204-2.675.412-.514-.204-.204.719-.722.515 0 .715.518.923.722 1.539-.204.208-.41.311-.306.719-.309-.104-.616.208-.926.312-.205.1-.409.204-.617-.208-.31 0-.925-.208-1.133.208-.203 1.639-.513 3.285-1.23 4.721l-2.156 1.338c-.104.206-.104.719-.515.616-.204.413-.617.925-1.131.925-.308.412-.617.823-.925 1.135-4.519 5.444-9.249 10.477-13.356 16.029-2.47 4.621 1.127 2.054.512 5.96 1.645-.927 2.054-1.542 3.596-2.881.615 0 1.541 0 1.956-.306l1.744 7.296c.204.308.72 0 .516.514l5.033 1.129 3.494.821 4.213-1.023 4.625-1.236c0-.204.102-.514.308-.409v-.309c.204-.103.309-.619.722-.411.613-.925 1.538-.823 2.464-.823 1.026.308-.618.412-.103 1.131-.617 0-.205.821-.308 1.131.41.927.206 1.746.72 2.567-.412 1.339.821 1.852 1.232 2.877 1.54 1.029 3.904 1.029 5.55.31 2.877-.719 5.446-1.952 8.016-3.187 2.875-2.157 5.444-5.034 7.603-7.704 1.746-2.264 2.772-4.936 4.933-6.679 1.439-1.031 2.671-2.569 4.111-3.804.718-.516 1.439-1.027 2.361-1.231l.104.616-2.466 3.8-1.027 1.439c0 .31-.413 1.232.305 1.131-.408.821.822.308.413 1.232-.821.823 0 2.056-1.131 2.671-.411 1.235-1.44 1.954-1.952 3.085-1.131.823.512 1.542 0 2.567-1.025 1.852-3.392 3.29-4.625 4.833l.619 3.185c-1.133 1.232-2.467 2.26-3.701 3.391.31 2.155-2.055 2.978-1.647 5.24-2.158 3.188-4.004 6.577-6.47 9.658v1.54c0 .311.512.413.408.721.411-.104.207.618.719.514-.1.308.106.617-.204.72-.411-.206 0 .514-.411.409 0 .518-.719.312-.923.617.306 2.571-1.954 4.114-2.365 6.272-.307.204-.307.615-.514.819-2.156 1.232-4.625 1.952-6.783 3.391.514.823-.819 1.028-.31 1.956.518.82 1.44 1.64 1.956 2.567l-.206.102c-.31.104-.411.615-1.03.411.104.722-.819.204-1.23.41-.311.312-.825.617-.719 1.135-.311.201-.412.511-.617.409-.928-.617-.412-1.954-.514-2.773h-.206c-.31-.517-1.236-.621-1.852-.621a196 196 0 0 0-3.7 11.718c-.925 1.335-1.539 2.877-2.156 4.315-.719 1.849-1.439 3.802-2.877 5.448-1.646 2.158-3.082 4.417-4.623 6.679-.105.101-.105.204-.207.308-2.773 3.493-5.446 6.781-8.529 10.172-2.879 1.85-3.391 5.446-5.444 8.016-.617.721-1.748.617-2.058 1.542-1.849 3.185-3.597 6.476-4.726 9.863-1.746 2.057-2.776 4.42-4.213 6.577.31 2.262-1.131 3.803-1.545 5.754.621.206 1.341.514 1.854.823-.928 2.363-2.058 4.726-2.678 7.297.416.308.722.717 1.339.717.106.206.206.31.411.31h.516c.204 0 .308-.104.512-.104-.1-.512.516-.615.722-1.027-.518-1.024.925-1.232.82-1.952 2.16-2.363 5.241-1.848 8.222-1.951 1.44.719 3.286.617 4.727.205-.102-.617.614-.515.821-.515v-.307c.926-.104.206-1.13.412-1.644-.412-.104-.412-.516-.72-.722 1.543-2.054 4.727-3.698 4.523-6.577a19 19 0 0 1-2.777 1.543c-.203-.104-.203-.308-.203-.41-1.339-.721-.516-2.367-.823-3.702.203-.205.514-.409.514-.923l-2.773-.823v-.717c-.514.103-.206-.516-.72-.516 0-.204-.104-.308 0-.411 1.645-.412 3.389-.823 4.827-1.437.925-2.877 1.645-5.962 2.363-8.943-.203-.102-.407-.409-.407-.615-.312.206-.619.412-.722.924-.409-.101-.82.103-1.132-.204-.305-.617.619-.514.411-1.027.411-.308.619-.721.927-.721.308-.104.72 0 .72.31.923-.823 2.155-.516 3.082-1.234.206-.926 1.436-.926 1.747-1.745v-.31c-.102-.103-.102-.103-.206-.103 0-1.335-1.644-.927-2.262-1.54.823-1.131 1.542-2.364 2.468-3.493.409-.617.925-1.234 1.439-1.748l.207.307-1.131 2.263.41.104c-.102.717.721.717.721 1.022 1.437.105 2.466-1.228 3.799-1.022v.203c0 .309.513.101.721.101.411-.304 1.029-.408 1.542-.408.617 0 1.337.104 1.952.104 1.647-1.956 5.037-2.981 4.728-6.168l6.782-5.548-1.028-1.954c2.058-1.234 3.392-3.596 4.933-5.24-.514-.615-1.335-.72-1.853-1.131l-12.227 7.4-.615.308c1.131-2.26 3.185-4.214 4.419-6.474 2.158-2.159 4.006-4.829 6.064-6.885 1.027-.925 1.54-2.363 2.671-2.776-.104-.926.512-2.156-.719-2.672-.72.104-1.645.516-1.952 1.133-.721-.205-.206.514-.413.821-.204 0-.512 0-.512-.104.512-1.851 1.232-3.904 2.877-5.139 1.54-1.333 1.645 1.234 3.185 1.234.72.72 1.746 1.231 1.85 2.363-.205.206-.413.514-.719.514-.206.72-1.23.923-1.95 1.131.306.821-.825 1.131-.415 2.054.207.516.927 0 .823.619.411-.103 1.131.204 1.336-.207 1.335-.412 1.952-2.258 3.595-2.258 2.476-.62 4.122 1.745 6.894.922m114.577-133.074c1.132.308 2.159.617 3.186 1.027v.104c-.412-.104-.208.613-.825.408-.202.619-.819.206-1.023.721-.516-.412-.206-1.541-1.03-1.643 0-.206-.206-.206-.308-.31-.206 0-.514.104-.72-.208l-2.468-1.025c1.131.207 2.161.619 3.188.926m-69.157-46.447-2.262.308v-.206c.617.104 1.234.104 1.44-.513-.103-.514.615-.206.512-.721.104 0 .207-.102.31-.102 1.232-.617 3.286-.41 3.083-2.363.409-.823-.616-.514-.309-1.439-.207-.103-.925.206-.82-.205-.618-.206-1.235-.31-1.954-.206-.41 0-.718 0-1.027.103l-.721-.412c.312-.409.823-1.025.721-1.644-.823-.721-.308-2.158-.409-3.288-.619.104-.927-.615-1.545-.412.104.516-.818.206-.613.618-.619 0-.205.717-.719.925.1.414 0 .925-.208 1.232a.93.93 0 0 1-.615.618h-.72c.72-.104 1.129-.516 1.335-1.131-.104-.306 0-.617 0-.927.208-.923.617-1.745 0-2.669v-.104c.103-1.337-.615-2.054-1.232-3.083.204-.41-.31-.514-.518-.821h-4.825l-.721-4.829c1.336-.411 2.673-1.75 4.109-.719 1.133-.207 2.262-.617 3.187-1.234 1.644-.821 3.085-2.056 4.521-3.183.617-.515 1.232-.927 1.85-1.338l2.26.721c-.204.617.619.202.518.823.306.304.717.613 1.129.819.409.204.923.412 1.334.513.102.31 0 .618-.31.823.412.617 1.237.617 1.545 1.129l.512-.104 3.905-3.387c-.721 1.127-.615 3.387-2.569 3.387-.411.31-.925.721-1.54.823-.416.412-.923.823-.308 1.336-.208.618.512.618.411 1.027.308.823 1.335 0 1.541.618.205.102.513.102.82.102-.308.617-.925 1.03-1.13 1.44-1.029-.308-1.231.717-2.055.41-.309.719-1.542 1.131-1.133 2.058.412.512 1.029.821 1.237 1.127.407.31 1.642.102 1.538 1.029-.409-.104-.512.31-.512.513-1.026.309-2.264.619-3.288 1.133-1.44.615-2.571 1.54-2.981 3.285-.411.414 0 1.133-.104 1.544.412.412 1.029.308 1.438.925.103-.719.927-.31 1.438-.41-1.232 1.641-1.748 3.698-2.669 5.65zm-1.954 131.43c-.202-.208-.409.102-.409.306-.72-.102-1.436-.306-2.158-.514-.308 0-.719-.104-1.028-.104-.105-.202-.105-.306-.105-.51-.717.1-.306-.617-.717-.823h-6.883c-.103-.103-.103-.103-.208-.103-3.392-.512-6.474-1.233-9.66-2.055-.411-1.028 1.027-2.773-.615-2.98l-1.746-.512.102-.31 11.92 2.979 8.941 2.157.722.208 2.363 1.334c-.002.31-.21.615-.519.927m23.431-96.902c2.361-2.877 5.444-5.858 8.526-7.606-2.361 3.084-5.649 5.652-8.526 8.221-.414.412-.926.821-1.341 1.231.415-.613.828-1.231 1.341-1.846m-12.741 29.699 2.361-1.235c-.102-.408.821-1.027 0-1.131-.308-.412-.407-1.131-.82-1.234.205-2.262.413-4.624 2.567-6.165 2.157-1.643 4.009-3.185 5.445-5.446 0-.41.31-.925-.308-1.231-.205-.104-.411-.104-.411-.309-1.645.615-3.288 1.85-4.933 2.877l.413-2.877 8.426-7.708 12.742-11.51c-.821 3.906-4.111 7.196-6.166 10.587-2.671 2.363-4.728 5.342-6.576 8.323-.414.819-.926 1.642-1.341 2.361.312.62.725 1.133 1.341 1.337.203 0 .411.1.617.1 1.026 0 1.949-.717 2.979-.509l2.262-.927c-1.236 2.877-3.395 5.141-5.857 7.196-2.468 2.054-5.345 4.006-7.706 6.163l-.104-.511c-1.646.511-3.288 1.538-4.931 2.154zm-3.907-4.626c.308-.31.615-.615.927-.823.308-.208.717-.514 1.024-.719.31.206.412-.104.516-.312h.104l-1.029 3.804c-.206.104-.411.21-.615.31a.79.79 0 0 0-.412.412c-.615-.512-.717-1.336-1.234-1.85-.102-.515.412-.822.719-.822m-12.946 4.314 3.596-2.569 3.7-2.671-.514 1.85-.31-.102c0 .719-1.028-.104-.925.615-.308-.102-.308.412-.412.618-.513.41-1.026.825-1.54 1.232-1.028.823-2.157 1.543-3.288 2.469-.722-.207-.208-1.031-.307-1.442m-17.059 51.484c-.721.206-.516-.412-1.131-.412.104-.308-.102-.411-.207-.411 2.98-5.133 6.268-10.171 9.042-15.514 1.031-1.031 1.339-2.465 1.954-3.804.619-.516 1.336-.721 2.056-1.029.721-.206 1.337-.511 1.848-1.13 1.442-.516 2.777-.921 3.805-1.952 1.234.31 2.056-1.129 3.288-.927 1.644-.616 2.877-1.946 4.521-2.258.104 0 .104 0 .207-.1.718-.516 1.541-1.135 2.36-1.031.823-.719-.1-2.054 1.028-2.258.412.615 1.337.412 2.16.412h.204c.615-.311.205-1.031.82-1.338v-.308c2.158-2.058 4.729-3.289 6.887-4.935v-.408l3.393-3.392h.304c-.1 5.035-1.95 9.658-2.769 14.489-1.029 2.261-1.339 4.829-.62 7.192 1.133 1.234 1.543 2.777 2.571 4.215l-3.804 6.165c-.925.309-1.645-1.644-2.671-.411-.925 0-1.543.819-2.158 1.438l-.617 2.258-1.54 4.421-4.523 12.639h-.615l-.617-.102-4.521-1.133-8.941-2.054-13.871-3.287c.925-1.028 1.437-2.161 2.262-3.189-.621-.717.922-1.233-.105-1.846m-54.566 4.417-3.082-1.438-3.595-1.644c-.311-.514-.925-1.436-.208-2.055.72-.721 0-1.544.927-2.261v-.514c.512.104.307.823.616 1.23.513.619 1.645 1.339 1.85 2.162.1.102.204.203.41.308 1.234.719 2.467 1.746 4.111 1.642-.312.928-1.337 1.647-1.029 2.57m6.166-9.554c-.514.204-.615-.615-1.232-.312q-.154.312-.309.312c-.409.204-1.026-.208-1.234.411-.409.101-.719.101-.921-.207.1-.308-.208-.619-.311-.619l-2.67-5.137c.41-1.333 1.541-2.364 1.025-4.11.204 0 .411 0 .411-.204-.102-.308.62-.103.412-.615 1.335 0 2.262.719 3.288 1.439.309.308.617.512 1.027.715 1.129 1.442 2.056 2.879 2.056 4.831 0 .615 1.027-.101.823.719.407-.104.821.416 1.23.416z"/><path d="M383.195 327.628c.308.513-.512.617-.309 1.027-.615-.102-.311.619-.822.514-.408 1.232.822.925 1.336 1.44.821.513 1.029-.927 1.952-.823.204-.204.104-.512.204-.717.823-.31.927-1.646 1.75-1.852.719-.308 1.334-.308 2.052-.412 2.775-1.644 5.244-3.904 8.222-5.446 2.261-1.744 3.596-4.725 6.477-5.342h.202c3.395-2.362 4.833-6.27 8.635-7.706 1.026-1.029 2.567-1.029 3.596-2.058.514-2.054 2.877-2.875 4.418-4.315.617-.306 1.336-.923.721-1.541l-.413-.204c-.718 0-1.748-.618-2.054.098-.823-.304-1.235 1.031-2.158.723-2.877 1.645-5.446 3.802-8.016 5.548l-.821-.511c-.31-1.029.821-1.029 1.025-1.748-.615-.208 0-1.031-.716-1.232-.619 0-1.646-.104-2.265.308-.308 1.129-1.436 1.438-2.154 2.156-.105 0-.105.104-.208.104-1.334 0-2.363.821-3.288 1.644-.103.206 0 .615-.408.414-1.236 2.156-3.905 3.183-5.14 5.442-2.981 2.365-5.037 5.241-8.12 7.094-1.644 1.846-4.517 3.287-5.032 5.96-.824.921 1.026.82 1.334 1.435M276.016 501.396c1.235-.617 2.465-1.133 3.802-1.44a19.6 19.6 0 0 1 5.55-.516l-.104-1.333c-.306.204-.206-.207-.306-.411h-1.954c-1.131.308-2.158.514-3.187 1.026-.308.104-.613.204-.821.41-1.235-.306-2.262.516-3.085 1.131-.819-.104-1.129.31-1.744.719.103.822 1.234.208 1.849.414M462.73 286.833c.308.719-.615.927-.411 1.54.308.308.821.308 1.337.719 2.159.721 3.39-1.437 5.344-1.333-.719 1.333-1.852 2.464-2.363 3.698l2.363 1.129v.309h1.438c4.008-2.056 8.222-3.804 11.198-7.708l.105-.511c-.925-.621.103-1.338.41-2.06.104-.1.104-.202.104-.306 0-.102 0-.206-.104-.206-.516-.925-1.952-.41-3.085-.719-.512.515-1.23.823-1.948 1.231-.413 0-1.338.515-1.338-.408-.103.102-.308.102-.308.102-2.158-1.952-5.448-1.232-7.809-1.852-2.058.619-4.215 1.646-6.58.721l-.306.308-2.674 3.39v.413l2.674.925zM439.199 256.415c0 .104.103.104.103.104.617.615 1.542.204 2.264.308.615-.514 1.332-.204 1.846-1.029.413 0 .927-.204 1.131.208.103-.208.308-.208.516-.31.308-.102.514-.102.409-.615l-.409-.512-2.673-2.981c-.204 0-.516-.104-.309-.413h-2.467q-.152.157-.308.309c-.41.308-.925.308-.925.721-.72.613-.41 1.333-1.029 1.846 0 .823-.202 1.542.206 1.954.619.308.926.718 1.645.41M482.358 292.485l-.206.204c-.206.413 0 1.031 0 1.44v.204c.206.412.312.721.719.617.41.308.821.206 1.337 0 .204 0 .308-.102.516-.206 0-.615.407-1.335.717-2.056.414-.308-.31-1.131.414-1.029-.107-.718.407-.614.407-1.023-.717.102.104-1.031-.717-.823-.308-.513-.821-.413-1.337-.31-.208 0-.413 0-.615-.104.202.823-.722.206-.722.927.206.82-.719 1.132-.513 2.159M422.757 265.252c.206-.102.412-.41.823-.308.412-.821 2.054-1.439 1.54-2.466.208-.411.41-.923.72-1.233 0-.104.105-.104.105-.104 1.023.104 1.539 1.027 2.668 1.027l2.571-2.361c1.642-.925 2.877-2.364 3.596-4.112.308-.615.514-1.438.617-2.158-.104-.412-.409-.412-.617-.512 0-.104-.104-.104 0-.312l-1.232-.104c-1.235.415-2.466 2.367-3.906 1.338-1.437-.104-2.673.719-3.802 1.542-.411.306-.925.613-1.337.923-1.026.208-1.334 1.233-1.746 1.954l1.027 1.644c-.101.412-.204 1.129-.821 1.129-.925.719-2.361 1.44-1.748 2.981-.104.824.927.824 1.542 1.132M55.291 402.744l.923-2.157c-.412-.304-.615-.615-.821-.821-.102-.308-.102-.719 0-1.131.206-.613.514-1.029.719-1.232.308-.204.719-.204 1.129-.103l.31.103c0 .516 0 1.336-.104 2.569 0 .923 0 1.646.104 2.054.104.619.306 1.03.721 1.442.408.304.719.512 1.333.715.306.105.514.105.823.105.512 0 1.027-.105 1.438-.412.719-.407 1.031-1.131 1.335-2.153.208-.52.208-1.031.102-1.646-.102-.413-.306-1.028-.613-1.544.104 0 .208-.102.308-.102h.821l.617-2.467c-.412.103-.925.205-1.336.103q-.614 0-1.848-.31l-.823-.204-2.054-.616c-1.237-.311-1.954-.411-2.364-.311-.517.104-.927.415-1.336.927-.412.513-.823 1.233-1.131 2.469-.204 1.229-.204 2.157 0 2.873.203.827.82 1.338 1.747 1.849m3.802-4.931.511.105c.306.103.616.103.823.203.208.104.31.104.41.208.31.202.518.409.719.819.208.514.208.927.102 1.439-.102.411-.304.719-.719.927-.102.104-.304.104-.512.104h-.412c-.412-.104-.615-.311-.821-.723-.102-.308-.102-.819-.102-1.436.103-.824.103-1.338.001-1.646M65.67 391.544l-4.315-1.127c-1.031-.208-1.75-.516-2.16-.723-.308-.308-.516-.615-.721-.923-.1-.513-.202-.927 0-1.336.102-.31.206-.617.413-.823.206-.207.514-.31.821-.31.41-.1 1.029.102 2.056.31l4.829 1.233.721-2.463-5.959-1.543a5.7 5.7 0 0 0-1.75-.309c-.409 0-.717 0-1.13.206-.41.204-.717.41-1.129.925-.208.412-.41.823-.618 1.338-.308 1.231-.1 2.565.719 3.596l-1.334-.415-.619 2.366 9.456 2.569zM68.547 380.344l-4.214-1.027c-1.132-.308-1.748-.616-2.158-.823-.412-.308-.619-.512-.821-.923a2.9 2.9 0 0 1 0-1.338c.1-.308.202-.615.511-.821.208-.206.512-.31.719-.31.412-.102 1.129.104 2.054.412l4.935 1.235.617-2.465-5.858-1.645c-.721-.104-1.336-.206-1.748-.206-.41 0-.821 0-1.23.102-.416.206-.618.514-.927.925-.412.412-.615.927-.823 1.438-.308 1.335 0 2.465.823 3.496l-1.437-.312-.517 2.262 9.456 2.569zM63.612 369.759c.721.619 1.337 1.031 2.26 1.235.516.1.927.204 1.442.204.514.104 1.025 0 1.437-.104.925-.204 1.646-.615 2.262-1.335.615-.719.923-1.438 1.232-2.361.31-1.44.206-2.671-.517-3.908-.715-1.127-1.846-1.848-3.285-2.26-.412-.104-.823-.206-1.129-.206q-1.39 0-2.777.618a5.15 5.15 0 0 0-2.26 3.187c-.204.923-.204 1.85 0 2.673.205.923.62 1.538 1.335 2.257m.824-4.417c0-.615.412-1.131 1.131-1.438.408-.207 1.027-.31 1.748-.207.204 0 .408.104.615.104a3.4 3.4 0 0 1 1.952 1.232c.31.516.41 1.233.31 1.85-.207.619-.515 1.131-1.236 1.439-.408.308-1.025.308-1.641.204-.208 0-.516-.1-.721-.1-.819-.208-1.539-.616-1.954-1.235a2.31 2.31 0 0 1-.204-1.849M64.64 350.236c.415.925.615 1.748.615 2.467l2.365.616a9.6 9.6 0 0 0-1.129-3.802l9.556 2.569.617-2.569-13.154-3.39-.614 1.95c.818.616 1.438 1.232 1.744 2.159M68.853 343.659c.412.102.823.206 1.131.206.823 0 1.644-.104 2.261-.516 1.027-.513 1.646-1.336 1.848-2.361.308-.925.104-1.748-.511-2.671 1.642.51 2.465 1.027 2.877 1.436.412.516.515 1.029.412 1.647-.104.308-.31.613-.618.821-.308.206-.823.206-1.234.206l-.41 2.463c1.131.104 2.158-.104 2.773-.51.719-.619 1.235-1.234 1.545-2.367.308-1.332.102-2.669-.721-3.8-.923-1.235-2.465-2.16-4.831-2.671a10.9 10.9 0 0 0-3.39-.514c-.823 0-1.541.102-2.054.41-1.236.615-2.058 1.54-2.363 2.879-.41 1.233-.207 2.364.408 3.288.515 1.025 1.543 1.744 2.877 2.054m-1.233-4.625c.102-.615.412-.923.927-1.129.408-.309.925-.309 1.437-.206.207 0 .413 0 .617.102.819.103 1.233.515 1.541.923.31.414.414.925.31 1.338-.206.514-.516.925-.927 1.129-.406.208-.923.208-1.54.104-.102 0-.308-.104-.41-.104-.927-.204-1.543-.511-1.746-.923-.209-.411-.31-.823-.209-1.234M70.601 332.97l1.027-2.26c-.51-.102-.925-.412-1.231-.821-.206-.412-.206-.821-.106-1.235.106-.41.31-.719.721-1.027.308-.206.715-.206 1.129-.104.513.206.925.516 1.131.927.208.411.208.925 0 1.642l2.056.823c-.104-.412 0-.823 0-1.235.102-.513.412-.819.925-1.027.514-.204.925-.306 1.645-.102.615.206 1.131.412 1.438.925.31.412.412.923.204 1.439-.102.515-.412.823-.719 1.131-.513.207-1.029.31-1.642.207l-.308 2.463c1.128.206 2.158 0 2.979-.513.923-.719 1.437-1.644 1.85-2.773.308-1.236.206-2.467-.414-3.392-.615-1.131-1.437-1.747-2.567-2.056-.927-.206-1.541-.206-2.26.104-.719.308-1.131.821-1.543 1.54-.412-1.436-1.131-2.364-2.262-2.569-.927-.206-1.642-.104-2.463.206a4.63 4.63 0 0 0-1.956 2.775c-.204.719-.204 1.336-.204 2.054.204.617.412 1.131.821 1.646.413.517 1.03.823 1.749 1.232M72.655 319.614c.412 1.027.618 1.848.719 2.567l2.158.617c-.102-1.336-.308-2.671-1.027-3.702l9.558 2.366.617-2.467-13.156-3.391-.511 2.056c.715.412 1.232 1.131 1.642 1.954"/></svg>