<?xml version="1.0" encoding="iso-8859-1"?>
<!-- Generator: Adobe Illustrator 24.0.1, SVG Export Plug-In . SVG Version: 6.00 Build 0)  -->
<svg version="1.1" id="Calque_1" xmlns="http://www.w3.org/2000/svg" xmlns:xlink="http://www.w3.org/1999/xlink" x="0px" y="0px"
	 viewBox="0 0 595.276 841.89" style="enable-background:new 0 0 595.276 841.89;" xml:space="preserve">
<path d="M441.013,138.89l-4.803,3.729c-0.146,0.113-14.876,11.458-39.019,22.635c-22.122,10.242-56.942,22.451-97.191,22.451
	c-40.25,0-75.069-12.209-97.192-22.451c-24.142-11.177-38.872-22.522-39.018-22.635l-4.798-3.724l-4.55,4.025l-78.759,69.829
	l-4.649,4.122l3.318,5.263c0.201,0.318,20.148,32.35,25.808,74.988c7.473,56.297-12.324,103.827-58.84,141.267l-4.83,3.888
	l3.041,5.402c52.957,94.095,105.689,152.09,140.602,184.172c30.978,28.624,57.11,45.874,73.574,55.304
	c19.684,11.271,36.557,17.736,46.294,17.736s26.611-6.465,46.295-17.736c16.464-9.43,42.596-26.68,73.589-55.317
	c34.897-32.068,87.63-90.063,140.587-184.158l3.04-5.402l-4.83-3.888c-46.66-37.557-66.434-85.252-58.773-141.762
	c5.769-42.554,25.539-74.174,25.737-74.488l3.33-5.26l-4.658-4.13l-78.76-69.829L441.013,138.89L441.013,138.89z"/>
<path style="fill:#FFFFFF;" d="M440.702,148.395l78.76,69.829c0,0-83.028,131.163,34.631,225.865
	c-45.154,80.232-94.441,141.265-139.176,182.372c-54.216,50.098-100.17,71.11-114.917,71.11s-60.702-21.013-114.917-71.11
	C140.349,585.354,91.062,524.32,45.907,444.089c117.659-94.703,34.631-225.865,34.631-225.865l78.759-69.829
	c0,0,59.861,46.627,140.702,46.628C380.841,195.022,440.702,148.395,440.702,148.395"/>
<path d="M490.094,243.412c-5.237,13.702-10.367,30.864-12.978,50.125c-5.736,42.313-0.018,102.372,56.923,154.038
	c-49.276,84.889-97.442,137.667-129.764,167.371c-29.388,27.153-53.94,43.387-69.363,52.222
	C313.967,679.168,302.4,681.886,300,681.89c-2.4-0.004-13.967-2.722-34.912-14.723c-15.422-8.835-39.976-25.068-69.394-52.253
	c-16.125-14.816-36.208-35.396-58.41-62.856L490.094,243.412"/>
<path d="M439.51,168.294l48.512,43.012L121.57,531.886c-17.81-23.686-36.625-51.608-55.609-84.311
	c56.942-51.666,62.659-111.726,56.923-154.038c-4.289-31.641-15.376-57.639-22.567-71.892l60.174-53.351
	c21.689,13.988,73.841,42.41,139.509,42.41C365.668,210.704,417.819,182.282,439.51,168.294"/>
<linearGradient id="SVGID_1_" gradientUnits="userSpaceOnUse" x1="0.0117" y1="841.9186" x2="1.0569" y2="841.9186" gradientTransform="matrix(-155.5048 -155.5048 -155.5048 155.5048 131362.4844 -130338.2813)">
	<stop  offset="0" style="stop-color:#D9D9DA"/>
	<stop  offset="0.6259" style="stop-color:#FFFFFF"/>
	<stop  offset="1" style="stop-color:#FFFFFF"/>
</linearGradient>
<path style="fill:url(#SVGID_1_);" d="M473.895,347.243c-15.193-11.397-25.336-16.98-47.523-16.98
	c-12.614,0-23.443,0.99-33.029,2.65L142.349,552.488c18.352,22.464,37.121,42.548,55.821,59.732
	c29.169,26.952,53.479,43.03,68.737,51.771c20.433,11.708,31.31,14.21,33.103,14.238c1.772-0.028,12.648-2.53,33.084-14.238
	c15.258-8.741,39.563-24.813,68.698-51.734c31.389-28.847,78.87-80.626,127.604-163.983
	C494.335,415.591,479.067,379.755,473.895,347.243z"/>
<path style="fill:#F4F4F4;" d="M473.895,347.243c-3.146-19.783-2.555-38.336-0.405-54.199c1.696-12.516,4.568-25.159,8.567-37.741
	l-88.715,77.61c9.586-1.66,20.415-2.65,33.029-2.65C448.56,330.263,458.702,335.846,473.895,347.243z"/>
<path style="fill:#EA7A24;" d="M254.571,370.608c-38.123-2.118-86.676-26.407-126.84-66.046c0-0.001-0.002-0.004-0.002-0.005
	c3.147,41.065-5.702,95.781-57.126,143.718c16.28,27.844,33.596,54.14,51.531,78.255l183.829-160.817
	C292.267,369.605,276.088,371.804,254.571,370.608z"/>
<linearGradient id="SVGID_2_" gradientUnits="userSpaceOnUse" x1="293.6619" y1="172.8613" x2="293.6619" y2="370.9338">
	<stop  offset="0" style="stop-color:#F1A872"/>
	<stop  offset="1" style="stop-color:#F08621"/>
</linearGradient>
<path style="fill:url(#SVGID_2_);" d="M439.146,172.861c-21.68,13.604-74.094,41.501-139.146,41.502
	c-65.055-0.001-117.467-27.898-139.146-41.502l-56.016,49.665c6.793,13.926,17.487,39.648,21.671,70.518
	c0.501,3.696,0.915,7.542,1.22,11.512c0,0.001,0.002,0.004,0.002,0.005c40.164,39.639,88.717,63.928,126.84,66.046
	c21.517,1.196,37.695-1.003,51.393-4.896l176.521-154.425L439.146,172.861z"/>
<path d="M303.191,502.489c7.573,8.572,7.273,18.543-0.913,25.777c-8.224,7.269-18.231,5.07-24.759-2.315
	c-6.841-7.745-7.21-18.392,0.899-25.557C286.957,492.848,296.906,495.38,303.191,502.489 M284.933,519.187
	c4.398,4.978,9.285,6.146,12.708,3.12c3.425-3.026,2.468-8.157-1.757-12.937c-4.049-4.58-9.168-6.251-12.594-3.221
	C279.906,509.139,280.604,514.29,284.933,519.187"/>
<path d="M320.67,512.303c-2.363,2.09-5.551,1.814-7.681-0.596c-2.164-2.45-1.977-5.647,0.386-7.732
	c2.361-2.087,5.482-1.887,7.723,0.565c2.13,2.411,2.009,5.609-0.392,7.728L320.67,512.303z"/>
<path d="M326.831,506.146l-23.528-26.622l8.383-7.408l11.438,4.451c3.797,1.362,8.473,3.562,12.409,5.636l0.12-0.103
	c-3.498-3.169-6.936-6.742-10.463-10.731l-5.55-6.279l6.492-5.738l23.529,26.621l-7.481,6.607l-12.305-4.88
	c-4.009-1.525-8.882-3.549-13.004-5.675l-0.117,0.103c3.335,3.457,6.969,7.416,10.776,11.723l5.794,6.557L326.831,506.146z"/>
<path d="M356.771,480.569c-2.362,2.089-5.549,1.811-7.681-0.6c-2.163-2.448-1.974-5.645,0.386-7.729
	c2.364-2.087,5.485-1.887,7.72,0.566c2.131,2.411,2.017,5.606-0.386,7.729L356.771,480.569z"/>
<path d="M358.127,465.925c2.344-0.599,5.719-2.099,8.356-4.431c2.436-2.154,2.886-4.029,1.701-5.37
	c-1.153-1.303-2.999-1.009-6.899,0.606c-5.881,2.381-11.032,2.505-14.523-1.442c-4.149-4.7-3.428-11.816,3.264-17.725
	c3.189-2.818,5.954-4.208,8.423-4.983l3.531,7.006c-1.596,0.494-4.227,1.484-6.902,3.852c-2.168,1.913-2.646,3.744-1.6,4.929
	c1.185,1.342,3.094,0.643,7.554-1.05c6.294-2.464,10.731-1.815,14.014,1.899c4.049,4.582,3.954,11.698-3.795,18.547
	c-3.188,2.817-7.067,4.698-9.259,5.228L358.127,465.925z"/>
<path d="M388.798,452.516c-2.361,2.087-5.554,1.814-7.683-0.599c-2.163-2.448-1.973-5.643,0.39-7.73
	c2.361-2.087,5.481-1.887,7.72,0.564c2.131,2.411,2.011,5.611-0.389,7.73L388.798,452.516z"/>
<path d="M239.132,598.95c1.379-1.698,4.65-5.063,7.932-7.942c3.794-3.335,6.252-5.079,9.287-5.845
	c2.889-0.855,6.137-0.271,8.398,2.308c1.982,2.257,2.669,5.511,0.593,9.439l0.069,0.08c4.08-1.969,8.14-1.254,10.924,1.913
	c2.189,2.497,2.745,5.521,2.151,8.43c-0.694,3.272-3.215,7.1-8.905,12.098c-3.241,2.847-5.779,4.658-7.452,5.703L239.132,598.95z
	 M254.904,602.644l1.421-1.25c3.044-2.675,3.568-5.029,2.072-6.734c-1.393-1.586-3.449-1.533-5.861,0.586
	c-1.183,1.04-1.788,1.709-2.191,2.208L254.904,602.644z M264.924,614.051c0.581-0.374,1.213-0.93,2.121-1.728
	c2.371-2.083,3.553-4.805,1.501-7.143c-1.984-2.257-4.801-1.321-7.492,1.037l-1.699,1.497L264.924,614.051z"/>
<path d="M300.339,567.726c7.551,8.597,7.219,18.567-0.995,25.777c-8.248,7.246-18.251,5.015-24.758-2.392
	c-6.817-7.764-7.154-18.414,0.979-25.557C284.132,558.03,294.077,560.595,300.339,567.726 M282.024,584.371
	c4.382,4.99,9.267,6.173,12.7,3.161c3.435-3.02,2.493-8.157-1.718-12.95c-4.033-4.597-9.149-6.276-12.584-3.259
	C277.026,574.305,277.707,579.458,282.024,584.371"/>
<path d="M310.499,570.539c2.353-0.599,5.738-2.097,8.394-4.431c2.457-2.158,2.918-4.033,1.734-5.385
	c-1.15-1.305-2.999-1.011-6.915,0.605c-5.907,2.385-11.074,2.497-14.553-1.464c-4.141-4.715-3.378-11.84,3.359-17.757
	c3.21-2.82,5.993-4.209,8.469-4.982l3.505,7.026c-1.599,0.496-4.244,1.482-6.939,3.849c-2.182,1.918-2.673,3.751-1.627,4.939
	c1.183,1.346,3.096,0.648,7.576-1.043c6.326-2.467,10.771-1.808,14.038,1.915c4.034,4.597,3.905,11.723-3.899,18.579
	c-3.211,2.818-7.105,4.703-9.309,5.231L310.499,570.539z"/>
<path d="M351.613,522.831c7.551,8.597,7.205,18.578-1.025,25.807c-8.271,7.263-18.279,5.039-24.785-2.369
	c-6.818-7.761-7.142-18.426,1.008-25.583C335.395,513.143,345.351,515.699,351.613,522.831 M333.255,539.516
	c4.382,4.991,9.273,6.169,12.717,3.147c3.44-3.026,2.5-8.164-1.708-12.956c-4.037-4.595-9.158-6.275-12.596-3.251
	C328.266,529.445,328.942,534.604,333.255,539.516"/>
<path d="M369.576,518.829c2.372-0.608,5.786-2.128,8.472-4.479c2.488-2.179,2.958-4.066,1.776-5.416
	c-1.145-1.307-3.008-1.008-6.956,0.632c-5.962,2.417-11.158,2.556-14.631-1.411c-4.134-4.719-3.321-11.88,3.492-17.853
	c3.247-2.843,6.055-4.25,8.555-5.04l3.479,7.049c-1.613,0.5-4.28,1.505-7.004,3.892c-2.205,1.93-2.716,3.78-1.671,4.969
	c1.18,1.35,3.108,0.641,7.628-1.078c6.38-2.504,10.847-1.858,14.11,1.868c4.027,4.599,3.854,11.758-4.043,18.68
	c-3.247,2.844-7.177,4.751-9.396,5.29L369.576,518.829z"/>
<path d="M385.981,494.023c-2.262-2.572-4.32-4.76-5.968-6.473l6.178-5.425l2.51,2.213l0.16-0.137
	c-0.184-1.664,0.02-5.209,3.288-8.08c4.586-4.028,9.77-3.107,14.464,2.242l10.088,11.486l-7.174,6.301l-9.325-10.616
	c-1.982-2.258-3.927-2.864-5.641-1.359c-1.396,1.225-1.196,2.736-0.851,3.768c0.151,0.496,0.595,1.088,1.049,1.603l9.705,11.053
	l-7.175,6.302L385.981,494.023z"/>
<path d="M420.52,473.674c1.596,1.334,4.643,0.2,7.169-2.016c1.882-1.653,3.47-3.397,4.744-5.505l5.095,3.945
	c-1.527,3.028-3.811,5.597-6.256,7.741c-6.928,6.087-14.19,5.729-19.619-0.449c-4-4.556-6.152-12.978,1.101-19.348
	c6.369-5.591,13.159-3.349,17.858,1.999c1.041,1.187,1.789,2.36,2.084,2.94L420.52,473.674z M422.083,463.74
	c-0.976-1.111-3.304-2.712-5.586-0.705c-2.121,1.862-1.259,4.546-0.302,5.877L422.083,463.74z"/>
<path d="M441.852,454.846c1.598,1.331,4.645,0.195,7.168-2.018c1.879-1.654,3.471-3.402,4.745-5.503l5.095,3.942
	c-1.529,3.024-3.811,5.596-6.256,7.741c-6.926,6.085-14.195,5.729-19.62-0.449c-3.999-4.554-6.146-12.982,1.101-19.35
	c6.37-5.593,13.16-3.351,17.86,1.999c1.04,1.185,1.785,2.357,2.082,2.939L441.852,454.846z M443.412,444.907
	c-0.973-1.11-3.302-2.714-5.584-0.708c-2.122,1.868-1.261,4.551-0.301,5.878L443.412,444.907z"/>
<path d="M460.683,430.563l0.08-0.073c-0.324-1.258-0.621-2.399-0.805-3.502l-1.628-8.392l8.61-7.564l0.079,13.823l18.038,4.786
	l-8.889,7.809l-10.426-4.035l0.228,3.165l4.87,5.548l-7.209,6.332l-24.7-28.125l7.21-6.331L460.683,430.563z"/>
</svg>
