<svg xmlns="http://www.w3.org/2000/svg" viewBox="0 0 600 800"><defs><radialGradient id="a" cx="3834.119" cy="4726.639" r="1.22" gradientTransform="matrix(381.2423 0 0 -381.2422 -1461706.25 1802268.75)" gradientUnits="userSpaceOnUse"><stop offset="0" stop-color="#a8b5d8"/><stop offset=".084" stop-color="#a8b5d8"/><stop offset=".122" stop-color="#98a8d1"/><stop offset=".321" stop-color="#5073b1"/><stop offset=".461" stop-color="#0c5ba1"/><stop offset=".528" stop-color="#00529b"/><stop offset=".781" stop-color="#00529b"/><stop offset=".848" stop-color="#004c92"/><stop offset=".94" stop-color="#004587"/><stop offset="1" stop-color="#004383"/></radialGradient><radialGradient id="j" cx="3815.393" cy="4743.019" r="1.221" gradientTransform="matrix(257.8028 0 0 -257.8026 -983409.313 1223065.25)" gradientUnits="userSpaceOnUse"><stop offset="0" stop-color="#fff"/><stop offset=".438" stop-color="#fff"/><stop offset=".655" stop-color="#fbfbfb"/><stop offset=".79" stop-color="#f2f3f3"/><stop offset=".901" stop-color="#e6e7e8"/><stop offset="1" stop-color="#d5d7d8"/></radialGradient><radialGradient id="k" cx="3815.397" cy="4743.017" r="1.22" gradientTransform="matrix(257.8217 0 0 -257.8217 -983483.188 1223155)" gradientUnits="userSpaceOnUse"><stop offset="0" stop-color="#fff"/><stop offset=".438" stop-color="#fff"/><stop offset=".655" stop-color="#fbfbfb"/><stop offset=".79" stop-color="#f2f3f3"/><stop offset=".901" stop-color="#e6e7e8"/><stop offset="1" stop-color="#d5d7d8"/></radialGradient><radialGradient id="l" cx="3504.947" cy="5013.756" r="1.221" gradientTransform="matrix(40.5339 0 0 -40.5339 -141631.406 203673.453)" gradientUnits="userSpaceOnUse"><stop offset="0" stop-color="#fabeab"/><stop offset=".006" stop-color="#fabba8"/><stop offset=".109" stop-color="#f69881"/><stop offset=".216" stop-color="#f47a64"/><stop offset=".325" stop-color="#f1604e"/><stop offset=".437" stop-color="#ef473e"/><stop offset=".553" stop-color="#ee3334"/><stop offset=".677" stop-color="#ee222f"/><stop offset=".82" stop-color="#ed1b2e"/><stop offset="1" stop-color="#ed1b2e"/></radialGradient><radialGradient id="m" cx="3514.724" cy="5004.879" r="1.221" gradientTransform="matrix(41.7882 0 0 -41.7882 -146733.156 209413.094)" gradientUnits="userSpaceOnUse"><stop offset="0" stop-color="#fabeab"/><stop offset=".006" stop-color="#fabba8"/><stop offset=".109" stop-color="#f69881"/><stop offset=".216" stop-color="#f47a64"/><stop offset=".325" stop-color="#f1604e"/><stop offset=".437" stop-color="#ef473e"/><stop offset=".553" stop-color="#ee3334"/><stop offset=".677" stop-color="#ee222f"/><stop offset=".82" stop-color="#ed1b2e"/><stop offset="1" stop-color="#ed1b2e"/></radialGradient><radialGradient id="n" cx="3522.503" cy="4999.436" r="1.222" gradientTransform="matrix(42.536 0 0 -42.536 -149345.438 212911.672)" gradientUnits="userSpaceOnUse"><stop offset="0" stop-color="#fabeab"/><stop offset=".006" stop-color="#fabba8"/><stop offset=".109" stop-color="#f69881"/><stop offset=".216" stop-color="#f47a64"/><stop offset=".325" stop-color="#f1604e"/><stop offset=".437" stop-color="#ef473e"/><stop offset=".553" stop-color="#ee3334"/><stop offset=".677" stop-color="#ee222f"/><stop offset=".82" stop-color="#ed1b2e"/><stop offset="1" stop-color="#ed1b2e"/></radialGradient><radialGradient id="o" cx="3541.231" cy="4980.905" r="1.221" gradientTransform="matrix(45.1307 0 0 -45.1307 -159692.781 225266.781)" gradientUnits="userSpaceOnUse"><stop offset="0" stop-color="#fabeab"/><stop offset=".006" stop-color="#fabba8"/><stop offset=".109" stop-color="#f69881"/><stop offset=".216" stop-color="#f47a64"/><stop offset=".325" stop-color="#f1604e"/><stop offset=".437" stop-color="#ef473e"/><stop offset=".553" stop-color="#ee3334"/><stop offset=".677" stop-color="#ee222f"/><stop offset=".82" stop-color="#ed1b2e"/><stop offset="1" stop-color="#ed1b2e"/></radialGradient><radialGradient id="p" cx="3534.248" cy="4987.162" r="1.221" gradientTransform="matrix(44.1211 0 0 -44.1211 -155658.453 220598)" gradientUnits="userSpaceOnUse"><stop offset="0" stop-color="#fabeab"/><stop offset=".006" stop-color="#fabba8"/><stop offset=".109" stop-color="#f69881"/><stop offset=".216" stop-color="#f47a64"/><stop offset=".325" stop-color="#f1604e"/><stop offset=".437" stop-color="#ef473e"/><stop offset=".553" stop-color="#ee3334"/><stop offset=".677" stop-color="#ee222f"/><stop offset=".82" stop-color="#ed1b2e"/><stop offset="1" stop-color="#ed1b2e"/></radialGradient><radialGradient id="q" cx="3570.525" cy="4957.268" r="1.221" gradientTransform="matrix(49.3695 0 0 -49.3695 -175941.094 244903.5)" gradientUnits="userSpaceOnUse"><stop offset="0" stop-color="#fabeab"/><stop offset=".006" stop-color="#fabba8"/><stop offset=".109" stop-color="#f69881"/><stop offset=".216" stop-color="#f47a64"/><stop offset=".325" stop-color="#f1604e"/><stop offset=".437" stop-color="#ef473e"/><stop offset=".553" stop-color="#ee3334"/><stop offset=".677" stop-color="#ee222f"/><stop offset=".82" stop-color="#ed1b2e"/><stop offset="1" stop-color="#ed1b2e"/></radialGradient><linearGradient id="b" x1="3817.982" x2="3822.469" y1="4742.033" y2="4742.033" gradientTransform="matrix(75.6111 0 0 -75.6111 -288544.031 358683.844)" gradientUnits="userSpaceOnUse"><stop offset="0" stop-color="#1b5da3"/><stop offset="1" stop-color="#95a6cf"/><stop offset="1" stop-color="#00529b"/></linearGradient><linearGradient id="c" x1="3967.738" x2="3972.227" y1="4806.776" y2="4806.776" gradientTransform="rotate(-90.676 160366 -16009.653)scale(36.7143 -36.7143)" gradientUnits="userSpaceOnUse"><stop offset="0" stop-color="#1b5da3"/><stop offset=".173" stop-color="#3164a7"/><stop offset=".512" stop-color="#5a79b5"/><stop offset=".982" stop-color="#93a4ce"/><stop offset="1" stop-color="#95a6cf"/><stop offset="1" stop-color="#00529b"/></linearGradient><linearGradient id="d" x1="3772.463" x2="3776.95" y1="4723.451" y2="4723.451" gradientTransform="rotate(21.762 -536214.493 -625473.576)scale(51.4206 -51.4206)" gradientUnits="userSpaceOnUse"><stop offset="0" stop-color="#1b5da3"/><stop offset=".461" stop-color="#95a6cf"/><stop offset="1" stop-color="#00529b"/></linearGradient><linearGradient id="e" x1="3311.987" x2="3316.473" y1="5191.592" y2="5191.592" gradientTransform="matrix(6.9534 0 0 -6.9534 -22514.646 36596.684)" gradientUnits="userSpaceOnUse"><stop offset="0" stop-color="#00275a"/><stop offset=".371" stop-color="#00275a"/><stop offset=".511" stop-color="#003067"/><stop offset=".983" stop-color="#00275a"/><stop offset="1" stop-color="#00275a"/></linearGradient><linearGradient id="f" x1="3790.957" x2="3795.444" y1="4760.873" y2="4760.873" gradientTransform="matrix(49.2598 0 0 -49.2598 -186435.563 235143.734)" gradientUnits="userSpaceOnUse"><stop offset="0" stop-color="#00275a"/><stop offset=".278" stop-color="#003067"/><stop offset=".511" stop-color="#003a75"/><stop offset=".722" stop-color="#003168"/><stop offset=".983" stop-color="#00275a"/><stop offset="1" stop-color="#00275a"/></linearGradient><linearGradient id="g" x1="3578.722" x2="3583.208" y1="4965.277" y2="4965.277" gradientTransform="matrix(13.2501 0 0 -13.2501 -46905.227 66101.625)" gradientUnits="userSpaceOnUse"><stop offset="0" stop-color="#00275a"/><stop offset=".155" stop-color="#00285b"/><stop offset=".289" stop-color="#002c61"/><stop offset=".414" stop-color="#00336a"/><stop offset=".511" stop-color="#003a75"/><stop offset=".722" stop-color="#003168"/><stop offset=".983" stop-color="#00275a"/><stop offset="1" stop-color="#00275a"/></linearGradient><linearGradient id="h" x1="3783.572" x2="3788.061" y1="4637.744" y2="4637.744" gradientTransform="rotate(252.156 -192164.375 50575.59)scale(-53.6835 53.6835)" gradientUnits="userSpaceOnUse"><stop offset="0" stop-color="#1b5da3"/><stop offset=".395" stop-color="#5878b4"/><stop offset=".801" stop-color="#8497c7"/><stop offset="1" stop-color="#95a6cf"/><stop offset="1" stop-color="#00529b"/></linearGradient><linearGradient id="i" x1="3660.894" x2="3665.38" y1="4683.737" y2="4683.737" gradientTransform="rotate(226.122 -72280.339 40038.982)scale(-25.6542 25.6542)" gradientUnits="userSpaceOnUse"><stop offset="0" stop-color="#778bbc"/><stop offset=".253" stop-color="#778bbc"/><stop offset=".539" stop-color="#3e5b8e"/><stop offset=".849" stop-color="#003467"/><stop offset="1" stop-color="#00275a"/></linearGradient></defs><path fill="url(#a)" d="M76.514 524.777c0 67.414 80.955 81.721 116.644 90.167 25.033 5.924 79.64 10.828 113.078 44.248 33.433-33.42 88.026-38.324 113.06-44.248 35.703-8.446 116.653-22.753 116.653-90.167 0-31.856-23.469-111.016-23.469-203.054 0-42.632 25.171-98.045 45.931-118.817v-.019l-84.192-84.297h-.038c-49.445 27.555-109.886 41.745-167.944 41.745-58.072 0-118.513-14.19-167.957-41.745h-.038L54.04 202.898c20.761 20.765 45.939 76.188 45.939 118.826 0 92.037-23.465 171.197-23.465 203.053"/><path fill="url(#b)" d="M475.847 106.776v-.053h-.003l-6.28 3.507c-46.93 26.149-104.936 40.552-163.328 40.552-58.41 0-116.412-14.403-163.333-40.552l-6.298-3.507h-.011l1.66 11.855c49.449 27.564 109.901 41.759 167.982 41.759 58.068 0 118.519-14.195 167.968-41.759z"/><path fill="url(#c)" d="M76.514 524.777c0-19.703 8.974-57.512 15.828-105.265h-9.667c-2.686 18.555-5.683 35.617-8.303 50.494-4.145 23.546-7.41 42.14-7.41 54.771 0 21.314 7.129 37.867 18.141 50.838l13.098.041c-12.972-12.359-21.687-28.751-21.687-50.879"/><path fill="url(#d)" d="M306.236 659.192c-33.438-33.42-88.044-38.324-113.078-44.248-23.977-5.675-68.427-14.035-94.994-39.329l-13.071-.044c25.691 30.252 72.511 41.014 99.161 47.124l6.7 1.554 15.511 3.164c26.808 5.13 67.345 12.882 93.009 38.542l6.76 6.76.001-.002v-13.521z"/><path fill="url(#e)" d="M545.496 524.24c-.089-12.618-3.33-31.012-7.405-54.233-2.62-14.898-5.64-31.928-8.325-50.516l-8.08-.046h-1.573c6.857 47.789 15.835 85.62 15.835 105.332 0 22.095-8.694 38.477-21.642 50.827l12.808.304c11.083-12.933 18.292-29.454 18.382-50.737z"/><path fill="url(#f)" d="m405.992 627.413 15.512-3.164 6.695-1.554c26.57-6.088 73.167-16.762 99.06-46.945v-.005l-12.332-.283h-.479c-26.7 25.483-71.162 33.809-95.153 39.483-25.033 5.924-84.407 10.828-113.06 44.248v13.524l6.756-6.761c25.657-25.661 66.193-33.412 93.001-38.543"/><path fill="url(#g)" d="m565.179 209.649 6.744-6.743v-.001h-13.512c-20.76 20.772-45.932 76.186-45.932 118.818 0 35.076 3.414 68.308 7.633 97.741l9.662.059c-4.251-29.426-7.739-62.8-7.739-97.8.001-38.807 23.198-92.113 43.144-112.074"/><path fill="url(#h)" d="M54.04 202.898H40.526l6.753 6.752c19.955 19.955 43.144 73.26 43.144 112.074 0 35.032-3.488 68.426-7.747 97.87l9.667-.066c4.224-29.441 7.637-62.695 7.637-97.804-.001-42.638-25.18-98.061-45.94-118.826"/><path fill="url(#i)" d="m475.855 106.716-1.651 11.861 84.214 84.321h13.513v-.001Z"/><path fill="#afbadb" d="M138.254 118.577 54.04 202.898H40.526l90.967-91.073 5.1-5.109Z"/><path fill="url(#j)" d="M521.059 248.245c2.01-4.697 4.073-9.316 6.267-13.698v-.011l-132.572-76.458c-28.557 7.038-58.506 10.788-88.627 10.788-37.343 0-74.414-5.817-108.91-16.556h-.011l228.269 131.794c-38.253 13.085-80.213 24.264-114.708 30.303a670 670 0 0 0-12.51 2.34L78.793 190.037c-6.279 6.272-11.187 11.191-13.317 13.325 20.165 24.567 40.642 72.726 42.727 111.952l63.151 36.454c-24.035 8.855-46.982 19.048-66.07 30.441-.271 2.831-.578 5.622-.88 8.411 60.701-38.08 168.818-62.923 207.501-69.572 73.847-12.687 175.107-48.373 209.154-72.803"/><path fill="url(#k)" d="M425.851 604.802 179.706 462.691c46.369-16.616 94.752-27.917 125.583-33.591l215.41 124.361c4.125-8.069 6.568-17.337 6.613-28.175v-.971c-.177-15.74-6.484-45.188-12.528-82.551l-80.823-46.667c29.898-10.588 55.605-21.688 71.499-30.929-.184-2.515-.272-5.093-.437-7.623h-.014c-30.124 18.558-115.933 51.267-194.242 64.729-52.695 9.055-165.896 37.197-223.311 79.484-.902 5.861-1.608 11.143-2.028 15.687L309.18 645.729c32.544-26.643 78.703-32.938 111.031-39.699 1.871-.402 3.759-.816 5.64-1.228"/><path fill="url(#l)" d="M486.403 443.177c-12.493-7.207-21.962-2.064-24.363 2.099-.706 1.229-2.086 2.147-3.545 1.304-1.367-.786-1.521-2.427-.736-3.782 2.401-4.158 2.218-14.876-10.253-22.078-12.378-7.149-24.775.831-29.187 8.479-7.664 13.261-8.773 41.406 17.536 56.591 26.304 15.199 50.133.164 57.788-13.11 4.411-7.642 5.116-22.365-7.24-29.503"/><path fill="url(#m)" d="M189.552 271.843c-12.488-7.21-21.957-2.066-24.359 2.092-.718 1.24-2.094 2.152-3.545 1.306-1.371-.791-1.52-2.423-.741-3.777 2.397-4.163 2.208-14.88-10.262-22.089-12.379-7.136-24.761.846-29.187 8.486-7.65 13.272-8.759 41.414 17.545 56.596 26.305 15.195 50.124.16 57.788-13.102 4.408-7.651 5.126-22.376-7.239-29.512"/><path fill="url(#n)" d="M497.73 238.315c-12.361-7.151-24.766.833-29.179 8.483-4.066 7.048-6.239 18.31-3.466 29.591 17.316-7.022 32.491-14.079 44.068-20.652.22-5.083-2.314-12.174-11.423-17.422"/><path fill="url(#o)" d="M127.497 522.451c26.313 15.191 50.132.153 57.783-13.104 4.412-7.653 5.131-22.372-7.239-29.514-12.475-7.207-21.953-2.064-24.35 2.099-.714 1.237-2.094 2.141-3.553 1.304-1.372-.794-1.512-2.423-.741-3.784 1.401-2.41 1.835-7.02-.386-11.872h-.025c-15.692 6.592-30.456 13.785-43.587 21.539 1.069 11.891 7.147 24.706 22.098 33.332"/><path fill="url(#p)" d="M326.475 565.808c-12.479-7.195-21.958-2.055-24.358 2.11-.71 1.227-2.09 2.151-3.545 1.304-1.372-.794-1.521-2.435-.74-3.784 2.401-4.152 2.217-14.87-10.249-22.082-12.383-7.147-24.788.83-29.192 8.483-7.659 13.264-8.755 41.406 17.537 56.593 26.308 15.186 50.123.162 57.787-13.11 4.411-7.642 5.117-22.371-7.24-29.514"/><path fill="url(#q)" d="M331.29 217.357c26.304 15.195 50.124.157 57.774-13.103 4.426-7.65 5.131-22.371-7.238-29.511-12.48-7.21-21.949-2.068-24.35 2.095-.706 1.238-2.086 2.147-3.545 1.305-1.38-.79-1.52-2.427-.736-3.781 1.182-2.038 1.974-4.656.761-8.661h-.092c-13.996 1.943-28.8 2.656-43.261 3.091-4.096 14.543-1.261 35.897 20.687 48.565"/><path fill="#fff" d="M127.742 418.969c-1.84-.283-3.08-.132-4.154.379-1.485.708-1.998 2.121-1.258 3.666 1.074 2.248 3.598 3.01 6.31 4.706 2.244 1.402 5.245 2.739 6.713 5.826 2.099 4.386.837 10.529-7.178 14.351-3.256 1.553-6.975 2.679-10.201 2.25l-.701-7.241c1.836.283 4.514.392 6.328-.471.535-.256 3.172-1.593 1.876-4.323-.934-1.956-3.041-2.918-6.095-4.515-2.975-1.567-5.192-3.203-6.446-5.81-2.063-4.333-.56-10.512 5.95-13.621 2.673-1.277 6.38-2.029 9.47-1.317zM165.101 428.377c-3.094 3.387-6.712 6.424-10.389 7.92-7.392 3.01-13.106-1.761-15.718-8.643-5.143-13.739 3.12-23.561 9.75-26.262 3.453-1.402 6.152-1.512 8.786-1.023l-.561 6.48c-1.345-.164-2.8-.284-4.548.434-4.439 1.806-6.039 8.702-3.659 14.546 2.729 6.695 6.31 6.086 7.843 5.466 1.762-.717 3.488-2.419 4.443-3.517zM215.313 414.077l-10.648 3.413-3.133-21.567-11.038 3.538 3.124 21.572-10.643 3.414-6.674-46.183 10.648-3.415 2.397 16.769 11.037-3.543-2.352-16.436 10.652-3.413ZM246.818 400.739c-3.356 3.641-8.141 7.675-13.847 9.239-7.708 2.11-12.378-5.543-13.426-9.819-3.681-15.008 5.24-23.653 12.545-25.654 5.591-1.529 10.836-.512 12.506 5.574 1.875 6.847-6.179 13.279-14.583 15.302.272 1.428 1.306 7.011 6.669 5.538 2.739-.751 4.386-2.561 6.577-4.658zm-17.803-10.806c5.775-1.31 8.194-3.88 7.489-7.368-.391-1.869-1.893-2.887-3.716-2.388-3.3 1.175-4.102 5.21-3.773 9.756M277.894 393.288c-3.479 3.527-8.4 7.392-14.162 8.755-7.769 1.838-12.168-5.968-13.066-10.282-3.155-15.129 6.056-23.456 13.426-25.202 5.639-1.334 10.849-.136 12.304 6.007 1.63 6.908-6.643 13.054-15.1 14.789.219 1.433 1.056 7.046 6.468 5.764 2.76-.653 4.478-2.414 6.73-4.436zm-17.414-11.417c5.814-1.106 8.325-3.593 7.738-7.101-.325-1.882-1.792-2.954-3.628-2.518-3.339 1.061-4.272 5.064-4.11 9.619M293.178 368.309l.49.035.456-1.365c.416-1.556 1.416-7.057 5.24-7.826 2.209-.442 3.751.32 5.25 1.494l-2.98 10.387c-.626-.14-1.292-.41-2.975-.072-2.371.478-5.219 2.524-4.999 9.32l.442 14.261-10.433 2.097-1.079-33.309 10.438-2.099zM333.03 382.723c-3.646 3.369-8.733 7.015-14.535 8.124-7.852 1.494-11.901-6.498-12.606-10.847-2.493-15.253 7.081-23.167 14.517-24.585 5.696-1.086 10.849.344 12.037 6.543 1.323 6.974-7.208 12.749-15.743 14.107.153 1.444.753 7.085 6.208 6.044 2.791-.532 4.575-2.212 6.923-4.131zm-16.905-12.173c5.867-.849 8.487-3.221 8.053-6.753-.237-1.895-1.66-3.027-3.523-2.675-3.377.914-4.486 4.871-4.53 9.428M348.683 355.889l.153.098c2.108-5.265 5.933-8.516 9.368-9.372 4.426-1.098 6.775.757 8.076 5.245.438 1.516.688 3.282.85 5.407l1.661 21.399-10.337 2.567-1.639-20.86c-.013-.537-.153-1.11-.285-1.623-.889-2.621-2.195-2.706-2.892-2.535-3.899.971-4.171 7.473-3.825 12.061l1.174 14.811-10.328 2.567-2.585-33.225 10.284-2.554zM382.956 374.638l-13.469-29.332 10.047-4.614c2.239 5.92 4.566 11.883 7.129 20.377l.11-.033c.552-9.417 1.468-16.335 2.467-23.211l8.177-.703-7.077 35.335zM430.167 354.87c-3.142 3.835-7.686 8.146-13.282 10.037-7.567 2.554-12.677-4.811-13.982-9.02-4.543-14.767 3.852-23.918 11.034-26.341 5.49-1.854 10.783-1.144 12.808 4.833 2.27 6.726-5.394 13.617-13.663 16.13.346 1.408 1.704 6.917 6.976 5.138 2.695-.91 4.229-2.815 6.296-5.04zm-18.404-9.743c5.687-1.643 7.957-4.353 7.045-7.791-.5-1.845-2.055-2.774-3.847-2.169-3.229 1.365-3.785 5.442-3.198 9.96M444.105 324.416c1.761-.679 3.37.182 3.935 2.002 1.064 3.401-1.086 6.203-6.709 8.083-.78-4.489-.39-8.582 2.774-10.085m12.033 14.946c-1.967 2.307-3.422 4.279-6.077 5.3-5.184 2-6.77-3.446-7.186-4.838 8.154-2.861 15.524-10.069 12.97-16.69-2.27-5.889-7.585-6.374-13.001-4.29-7.064 2.724-15.078 12.219-9.903 26.782 1.468 4.154 6.893 11.297 14.337 8.424 5.521-2.129 9.881-6.624 12.848-10.588zM469.38 314.831l.162.07c1.078-5.565 4.228-9.478 7.457-10.963 4.132-1.906 6.783-.524 8.904 3.641.714 1.407 1.293 3.091 1.858 5.151l5.63 20.709-9.675 4.46-5.521-20.185c-.109-.525-.359-1.063-.579-1.54-1.367-2.408-2.664-2.248-3.313-1.952-3.655 1.685-2.699 8.124-1.503 12.567l3.935 14.329-9.675 4.456-8.759-32.154 9.618-4.432z"/></svg>