<svg xmlns="http://www.w3.org/2000/svg" xml:space="preserve" viewBox="0 0 612 792"><path d="M588.932 396.278c0 156.301-126.704 282.999-282.991 282.999-156.307 0-283.009-126.698-283.009-282.999 0-156.299 126.702-283.001 283.009-283.001 156.286 0 282.991 126.702 282.991 283.001" style="fill:#12090d"/><path d="M88.173 266.367c-2.324.93-4.436 2.583-5.654 4.84-.916 1.69-1.152 4.483.824 5.551 2.068 1.121 4.214-.942 5.596-2.256l1.979-1.97c4.127-4.15 8.678-6.607 14.415-3.504 3.528 1.908 6.688 4.712 7.561 8.83.847 4.047-.173 8.296-2.108 11.868-2.414 4.466-6.288 8.023-10.784 10.271l-5.288-7.969c3.263-1.21 6.388-3.044 8.087-6.197 1.172-2.162 1.336-5.049-1.155-6.397-2.583-1.401-5.435 1.737-7.071 3.406-4.77 4.894-8.336 7.884-15.202 4.17-7.195-3.893-9.119-11.561-5.279-18.657 1.933-3.576 5.429-7.339 8.92-9.521zM108.118 251.015l1.057-1.412c2.281-3.033 4.528-6.025.596-8.979-4.058-3.052-6.189-.307-8.629 2.941l-1.06 1.413zm-21.083-2.736 9.637-12.821c5.202-6.921 12.002-9.299 19.392-3.746 7.609 5.72 7.857 12.326 2.368 19.632l-3.563 4.745 10.683 8.029-6.296 8.375zM131.799 224.165c4.727 5.098 11.941 5.334 16.53 1.085 4.588-4.25 4.902-11.461.179-16.56-3.776-4.08-10.994-4.315-15.579-.065-4.592 4.25-4.903 11.46-1.13 15.54m24.673-22.926c8.862 9.568 8.249 22.672-1.242 31.463-9.49 8.79-22.601 8.403-31.463-1.166-8.284-8.94-6.253-22.481 2.255-30.365 8.511-7.88 22.169-8.871 30.45.068M170.466 190.822l.855-.546c2.886-1.835 5.792-4.439 3.442-8.14-2.353-3.699-5.942-2.177-8.831-.343l-.858.546zm31.372 6.412-11.008 6.996-16.662-7.781-.092.056 8.315 13.083-8.842 5.623-21.616-34.021 13.22-8.4c6.72-4.27 13.857-4.306 18.471 2.96 2.981 4.692 2.943 10.414-1.339 14.339zM218.022 190.409l-9.548 4.32-12.953-28.641-7.888 3.572-3.658-8.087 25.326-11.456 3.657 8.088-7.889 3.568zM240.09 166.009l2.811-26.215 10.968-3.07-5.705 43.454-7.82 2.194-27.193-34.242 10.966-3.07zM272.634 143.594l.809 6.686 11.734-1.416 1.063 8.81-11.734 1.415.832 6.9 12.377-1.493 1.062 8.81-22.774 2.748-4.836-40.014 22.772-2.748 1.062 8.807zM305.117 150.829l1.002.02c3.422.081 7.284-.477 7.373-4.86.118-4.382-3.715-5.108-7.137-5.184l-1.034-.022zm22.532 22.745-13.036-.291-9.557-15.718-.086-.003-.354 15.499-10.472-.233.887-40.295 15.66.349c7.964.177 13.92 4.106 13.713 12.709-.115 5.559-3.33 10.298-9.053 11.19zM344.579 144.947l-1.092 6.645 11.651 1.935-1.475 8.753-11.65-1.933-1.12 6.853 12.269 2.042-1.446 8.753-22.621-3.757 6.607-39.76 22.621 3.757-1.445 8.754zM369.855 140.43l9.909 3.417 10.115 29.555.09.036 8.052-23.293 9.879 3.417-13.125 38.101-9.908-3.418-10.086-29.609-.121-.036-8.054 23.344-9.907-3.418zM408.698 199.532l-9.354-4.772 18.379-35.88 9.32 4.773zM459.84 206.171c-3.45 4.763-6.665 8.638-12.478 10.712-6.399 2.251-12.652.831-18.168-3.023-10.381-7.249-12.682-19.354-5.455-29.741 7.491-10.745 19.7-12.727 30.349-5.294 6.811 4.739 9.911 11.477 8.465 19.647l-10.559-2.268c1.031-3.983 0-7.83-3.479-10.248-5.634-3.943-12.333-.599-15.87 4.444-3.568 5.13-4.127 12.484 1.535 16.432 3.716 2.601 7.9 2.657 10.913-.912l-7.019-4.894 4.718-6.751zM456.743 234.736l-7.727-7.094 27.281-29.663 7.728 7.095zM492.487 212.526l6.636 8.099-6.875 30.468.089.082 19.053-15.634 6.636 8.095-31.141 25.575-6.664-8.099 6.929-30.504-.092-.082-19.079 15.67-6.636-8.099zM528.233 298.342c-5.248 2.66-9.879 4.636-15.988 3.825-6.725-.915-11.615-5.029-14.772-10.981-5.956-11.19-2.477-23.013 8.73-28.951 11.561-6.135 23.329-2.33 29.404 9.146 3.894 7.32 3.568 14.741-1.443 21.341l-8.347-6.831c2.713-3.079 3.568-6.972 1.593-10.703-3.246-6.093-10.74-6.172-16.164-3.298-5.516 2.932-9.378 9.219-6.164 15.311 2.151 4.014 5.839 5.981 10.145 4.182l-4.01-7.561 7.284-3.854zM83.559 454.486l-.023-.107-13.776-1.495 1.924 8.71zm-22.455-2.715-7.609-1.233-2.457-11.109 43.707 6.59 2.523 11.432-36.927 24.076-2.466-11.167 6.417-4.165zM75.681 495.08l4.655 11.985-8.463 3.292-8.542-21.982 38.457-14.94 3.882 9.998zM99.616 515.438l.881 1.578c1.896 3.387 3.759 6.733 8.157 4.28 4.539-2.532 2.851-5.663.826-9.295l-.878-1.575zm11.308-18.589 7.998 14.332c4.317 7.742 3.721 15.09-4.542 19.701-8.505 4.753-14.793 2.244-19.352-5.928l-2.961-5.302-11.941 6.667-5.228-9.366zM131.601 556.634l12.347-10.049 6.769 8.315-31.994 26.04-6.768-8.318 13.113-10.668-9.775-12.011-13.114 10.668-6.768-8.314 31.996-26.041 6.769 8.318-12.351 10.047zM156.316 571.81l-4.586 5.144 9.027 8.048-6.04 6.779-9.029-8.041-4.73 5.309 9.517 8.481-6.04 6.78-17.526-15.613 27.443-30.804 17.523 15.617-6.04 6.779zM174.839 576.648l9.096 5.678 3.317 31.798.09.055 13.352-21.395 9.099 5.674-21.838 35.001-9.099-5.677-3.283-31.844-.092-.055-13.379 21.446-9.098-5.677zM243.739 624.149l-.101-.028-7.849 11.417 8.577 2.437zm-13.033 18.481-4.692 6.12-10.948-3.107 26.527-35.358 11.262 3.197 3.686 43.93-10.999-3.122-.622-7.627zM285.327 631.817l-.118-.012-5.576 12.682 8.88.798zm-9.381 20.576-3.477 6.884-11.334-1.022 19.503-39.658 11.679 1.049 11.766 42.483L292.7 661.1l-2.036-7.379zM308.389 620.947l10.648-1.129 22.209 23.019.087-.012-2.652-25.081 10.676-1.129 4.332 41.027-10.674 1.129-22.178-23.078-.118.012 2.684 25.139-10.676 1.129zM392.417 636.696l2.24-.898c5.931-2.394 9.704-7.688 6.696-15.148-2.776-6.852-8.818-8.886-15.219-6.308l-2.33.941zm-21.974-25.83 14.125-5.686c10.65-4.298 22.803.541 27.137 11.296 4.335 10.761-1.12 22.693-11.708 26.965l-14.127 5.688zM420.05 597.902l3.542 5.916 10.378-6.207 4.663 7.797-10.381 6.207 3.627 6.103 10.938-6.538 4.663 7.797-20.146 12.04-21.145-35.411 20.142-12.044 4.663 7.799zM430.199 581.675l8.14-6.982 31.322 6.363.087-.076-16.397-19.141 8.139-6.982 26.841 31.314-8.143 6.981-31.351-6.402-.086.075 16.455 19.185-8.14 6.982zM496.911 539.459l.591-.858c1.975-2.9 3.629-6.526-.087-9.047-3.721-2.52-6.46.375-8.437 3.269l-.561.864zm32.092-6.745-7.492 11.049-18.819-.527-.058.092 13.126 8.909-6.018 8.871-34.153-23.151 8.995-13.269c4.57-6.742 11.268-9.681 18.551-4.738 4.719 3.191 7.02 8.583 4.571 14.01zM536.315 517.521l-4.924 9.53-36.661-18.917 4.926-9.528zM509.506 475.225l25.865 10.322c8.082 3.223 11.768 9.589 8.378 18.076-1.682 4.269-5.132 6.723-9.557 7.61l-3.775-8.157c1.976-.51 4.335-1.397 4.867-2.719 1.178-2.946-2.361-4.246-4.513-5.096l-25.251-10.078zM511.629 471.175l2.302-10.479 28.813-13.813.028-.107-24.625-5.378 2.273-10.478 40.317 8.794-2.302 10.478-28.874 13.805-.029.103 24.687 5.389-2.273 10.482zM229.822 379.071h-.239l-9.68 28.675h19.476zm-16.371 46.599-6.213 15.654h-24.857l34.652-90.095h25.574l33.932 90.095h-24.972l-5.855-15.654zM307.234 391.617h2.272c7.667 0 16.25-1.433 16.25-11.23s-8.583-11.234-16.25-11.234h-2.272zm51.495 49.707H329.59l-22.12-34.655h-.236v34.655h-23.405v-90.095h34.998c17.815 0 31.322 8.482 31.322 27.724 0 12.425-6.933 23.177-19.732 25.449zM429.482 381.46c-4.775-6.454-12.564-9.918-20.553-9.918-14.335 0-24.007 10.994-24.007 24.975 0 14.22 9.787 24.496 24.36 24.496 7.636 0 15.306-3.707 20.199-9.557v28.073c-7.782 2.394-13.387 4.186-20.671 4.186-12.535 0-24.479-4.781-33.8-13.264-9.939-8.961-14.481-20.672-14.481-34.055 0-12.308 4.66-24.135 13.271-32.978 8.849-9.08 21.619-14.578 34.301-14.578 7.521 0 14.453 1.672 21.38 4.542z" style="fill:#fd0"/><path d="M349.376 339.74V194.602a207 207 0 0 0-43.438-4.598 207 207 0 0 0-43.45 4.599V339.74zM128.94 452.815v49.441c20.622 34.365 50.962 62.23 87.229 79.786V452.815zM482.924 339.74V290.3c-20.622-34.367-50.962-62.233-87.229-79.79v129.23zM216.169 339.74V210.512c-36.267 17.557-66.607 45.422-87.229 79.788v49.44zM262.488 452.815v145.137a207 207 0 0 0 43.45 4.599c14.902 0 29.432-1.595 43.438-4.598V452.815zM395.695 452.815v129.23c36.267-17.557 66.607-45.422 87.229-79.789v-49.44z" style="fill:#ed1c24"/></svg>