<svg xmlns="http://www.w3.org/2000/svg" viewBox="0 0 612 792"><path fill="#00a160" d="M116.727 445.748V315.079h119.102V188.613h143.343v126.466h119.101v130.669H590.5v158.418h-566V445.748Z"/><path fill="#fff200" d="M34.384 464.889h546.231v120.138H34.384ZM245.727 207.476h123.544v238.272H245.727ZM126.646 325h108.742v120.421H126.646ZM379.612 325h108.742v120.421H379.612Z"/><path d="M321.08 277.497c.205-4.081-4.708-7.818-15.052-7.964-7.325-.065-12.744 1.661-13.247 5.808-.4 3.464 1.306 4.158 4.611 5.063 1.714 1.246 15.561 2.763 18.363 3.114 4.021.482 12.654 1.73 17.266 4.983 8.43 6.094 4.515 18.067-4.62 22.149-6.214 2.768-14.756 3.452-22.885 3.525-3.713.066-12.541-.834-17.959-3.533-6.521-3.254-9.732-8.234-10.232-13.015l14.649-.001c0 1.317.598 3.397 3.114 5.201 3.308 2.348 8.722 3.113 13.742 2.976 5.021-.069 9.737-1.104 11.648-2.352 3.204-2.078 3.91-6.023.3-8.516-4.817-3.456-19.277-3.458-28.707-5.675-7.927-1.871-14.448-5.814-13.244-13.988 1.209-8.026 9.638-13.976 27.499-13.97 3.918 0 17.565.208 24.693 6.44 3.81 3.39 4.812 8.1 4.216 9.762zM338.76 346.177l-24.797 50.448h-12.942l-24.782-50.46 15.157-.001 16.149 38.074 16.063-38.067ZM152.455 498.933l.002 18.96-29.001-.002V498.93l-15.049-.003-.009 50.45 15.053.002.003-22.832 29.001.003-.009 22.838 15.056-.003.008-50.449ZM247.188 498.954l-.002 34.806c0 4.434-1.612 11.075-13.751 15.158-4.517 1.38-9.835 2.072-14.955 2.069-5.115.003-10.138-.613-14.147-1.661-12.136-4.647-15.15-10.596-15.15-15.574l.004-34.814 15.055.009-.008 34.942c.202 3.182 1.605 8.103 13.853 8.103 11.935 0 14.044-4.916 14.045-8.099l.009-34.945zM267.857 498.958h15.053v50.449h-15.053ZM354.964 498.972l-.003 8.653-37.429 33.139 37.423.008-.006 8.648-54.982-.009.001-8.653 37.346-33.135-37.337-.009-.001-8.649ZM426.722 498.983l-.001 8.655-37.937-.007-.006 11.48 35.02.006v8.654l-35.02-.009v13.018l39.632.001.003 8.651-54.69-.006.008-50.449ZM461.944 498.994l29.593 34.673.012-34.67 15.051.004-.012 50.447h-14.851l-29.592-35.163-.006 35.158-15.066-.001.012-50.447Z"/></svg>