<svg enable-background="new 0 0 612 792" viewBox="0 0 612 792" xmlns="http://www.w3.org/2000/svg"><path d="M 75.565 404.218 l 1.181 3.564 v -.005 c 34.2 -11.329 71.007 -17.544 111.646 -17.549 c 25.535 0 52.584 2.455 81.443 7.655 l .664 -3.691 c -29.055 -5.237 -56.332 -7.713 -82.107 -7.713 C 147.372 386.476 110.142 392.762 75.565 404.218 z" fill="#00539f"/><path d="M 288.953 379.5 l .694 -3.688 c -35.572 -6.697 -68.647 -9.645 -99.336 -9.645 c -65.911 0 -120.822 13.603 -165.811 32.888 l 1.478 3.447 c 44.566 -19.097 98.944 -32.582 164.334 -32.582 C 220.764 369.921 253.599 372.847 288.953 379.5 z" fill="#00539f"/><path d="M 118.885 412.859 l .647 3.696 c 20.331 -3.556 42.357 -5.943 65.78 -5.943 c 25.138 0 51.884 2.742 79.895 9.75 l .914 -3.637 c -28.334 -7.093 -55.396 -9.862 -80.809 -9.862 C 161.632 406.863 139.391 409.274 118.885 412.859 z" fill="#00539f"/><path d="M 396.574 443.163 c -4.087 -2.217 -7.641 -3.854 -7.53 -6.668 c 0 -.009 .004 -.05 .008 -.118 c .177 -2.714 1.277 -4.298 4.98 -4.392 c .11 0 .228 .005 .357 .011 c 2.749 .109 4.416 1.684 5.374 4.389 l .162 .483 l .52 .022 l .809 .031 l .56 .021 l .181 -.537 c .597 -1.816 1.186 -3.566 1.876 -5.237 l .19 -.463 l -.348 -.348 c -1.404 -1.393 -4.868 -2.938 -8.955 -3.096 c -.22 -.017 -.443 -.013 -.646 -.013 c -8.147 -.05 -12.807 5.276 -12.967 11.677 c -.013 .168 -.013 .347 -.013 .506 c -.026 6.554 4.261 9.387 8.159 11.366 c 4.008 2.049 7.405 3.448 7.35 6.967 c 0 .074 -.004 .141 -.004 .2 c -.125 3.154 -2.486 4.632 -5.472 4.687 c -.102 0 -.19 0 -.255 0 c -3.423 -.142 -5.887 -2.142 -6.542 -5.569 l -.109 -.593 l -1.632 -.054 l -.651 -.021 l -.109 .645 c -.392 2.251 -1.043 4.47 -1.758 6.703 l -.173 .528 l .463 .317 c 2.644 1.808 5.928 2.633 9.015 2.738 c .23 .005 .458 .009 .69 .009 c .029 .002 .06 .002 .087 .002 c 8.258 0 14.459 -4.986 14.684 -12.158 c .004 -.172 .004 -.325 .004 -.466 C 404.893 448.419 400.555 445.353 396.574 443.163 z" fill="#00539f"/><path d="M 422.109 438.461 c -.243 0 -.485 .004 -.728 .017 c -8.385 .238 -13.471 6.244 -13.408 14.598 c 0 .26 .008 .521 .019 .784 c .226 8.059 5.656 13.285 13.551 13.285 c .042 0 .081 0 .12 -.002 c .225 0 .45 -.004 .674 -.013 c 8.619 -.263 13.632 -6.574 13.576 -14.708 c 0 -.236 -.004 -.482 -.01 -.735 C 435.667 443.584 430.185 438.398 422.109 438.461 z M 417.474 453.357 l -.747 .035 l 0 0 L 417.474 453.357 c -.023 -.556 -.031 -1.093 -.031 -1.626 c .018 -5.618 1.167 -9.319 4.409 -9.342 c .112 -.013 .116 -.009 .116 -.009 c 2.714 -.087 4.242 3.627 4.414 8.772 c .013 .485 .024 .979 .024 1.472 c .052 5.507 -1.305 10.566 -4.222 10.574 c -.008 0 -.022 -.002 -.037 -.002 c -.031 0 -.07 .002 -.072 .002 c -1.809 .007 -2.887 -1.37 -3.631 -3.489 C 417.732 457.626 417.531 455.028 417.474 453.357 z" fill="#00539f"/><path d="M 471.593 434.184 c -.543 0 -1.109 .039 -1.7 .109 c -3.36 .398 -5.853 2.433 -7.495 5.08 c -1.527 -2.202 -3.897 -3.352 -6.562 -3.338 c -.406 0 -.813 .026 -1.229 .078 c -2.647 .33 -5.138 1.877 -6.766 3.96 l -.319 -2.699 l -.8 .166 c -1.242 .266 -2.438 .561 -3.605 .698 c -1.17 .142 -2.399 .129 -3.67 .173 l -.819 .026 l .101 .809 l 3.191 26.825 l .804 -.164 c 1.246 -.262 2.438 -.561 3.608 -.699 c 1.167 -.141 2.398 -.132 3.663 -.172 l .817 -.021 l -1.962 -16.475 c -.066 -.53 -.102 -1.063 -.102 -1.586 c .07 -2.363 .614 -4.107 3.146 -4.439 c .155 -.022 .296 -.03 .445 -.03 c 1.242 .021 1.883 .617 2.476 1.801 c .56 1.18 .849 2.88 1.047 4.563 l 1.825 15.335 l .798 -.16 c 1.246 -.259 2.442 -.56 3.614 -.696 c 1.163 -.142 2.395 -.129 3.663 -.168 l .817 -.031 l -2.032 -17.053 c -.081 -.633 -.124 -1.22 -.124 -1.754 c .113 -2.231 .48 -3.256 3.234 -3.685 c .153 -.023 .294 -.031 .441 -.031 c 1.246 .023 1.891 .62 2.482 1.804 c .558 1.178 .848 2.88 1.043 4.56 l 1.824 15.342 l .805 -.163 c 1.246 -.262 2.438 -.563 3.605 -.699 c 1.169 -.141 2.398 -.128 3.67 -.168 l .823 -.026 l -2.14 -17.918 C 479.656 437.992 477.066 434.125 471.593 434.184 z" fill="#00539f"/><path d="M 508.576 448.238 l -.366 .473 c -1.232 1.593 -3.303 3.018 -5.244 3.417 c -.624 .126 -1.204 .192 -1.739 .192 c -3.635 0 -5.685 -2.836 -6.641 -7.148 l 15.057 -3.195 l -.09 -.69 c -.857 -6.815 -4.549 -12.044 -11.282 -12.023 c -1.026 0 -2.119 .124 -3.274 .369 c -6.729 1.378 -10.429 6.384 -10.389 12.493 c 0 1.178 .133 2.399 .394 3.643 c 1.528 7.458 6.129 12.103 13.035 12.103 c .029 0 .058 0 .089 0 c 1.252 0 2.583 -.143 3.983 -.439 c 2.755 -.587 5.52 -2.146 7.444 -4.198 l .156 -.168 l .663 -3.987 l -1.252 -.585 L 508.576 448.238 z M 493.483 437.959 c .026 -2.337 .561 -4.132 2.384 -4.495 c .124 -.031 .234 -.046 .363 -.046 c .054 -.006 .105 -.01 .159 -.01 c 1.623 0 3.122 3.775 3.709 6.404 l -6.327 1.346 C 493.62 440.198 493.483 439.061 493.483 437.959 z" fill="#00539f"/><path d="M 527.375 422.04 l -.145 -.825 l -.803 .23 c -3.819 1.073 -5.762 3.51 -6.561 6.334 l -1.062 -3.703 l -.762 .292 c -1.188 .458 -2.321 .945 -3.447 1.267 c -1.128 .33 -2.348 .515 -3.591 .751 l -.803 .157 l .226 .786 l 7.445 25.964 l .771 -.292 c 1.184 -.456 2.318 -.947 3.446 -1.271 c 1.126 -.323 2.349 -.508 3.589 -.748 l .807 -.155 l -2.92 -10.187 c -.491 -1.656 -1.414 -4.412 -1.399 -5.817 l .005 -.031 l .012 -.164 l -.015 -.039 c .065 -1.99 1.265 -3.332 3.253 -3.929 c .421 -.125 .998 -.216 1.51 -.216 c .342 0 .661 .043 .877 .122 l .564 .19 l .663 -1.049 l .199 -.315 l -.122 -.344 C 528.338 426.929 527.809 424.534 527.375 422.04 z" fill="#00539f"/><path d="M 557.144 432.552 l -.293 .524 c -.977 1.761 -2.805 3.487 -4.658 4.176 c -.989 .362 -1.877 .53 -2.677 .53 c -3.023 .015 -5.228 -2.388 -6.679 -6.128 l 14.403 -5.451 l -.194 -.665 c -1.732 -5.968 -5.461 -10.311 -11.132 -10.307 c -1.563 0 -3.234 .327 -5.028 1.005 c -5.62 2.097 -8.563 6.559 -8.539 11.684 c 0 1.868 .381 3.821 1.121 5.786 c 2.372 6.339 6.755 10.139 12.533 10.139 c .015 0 .027 0 .042 0 c 1.907 0 3.947 -.4 6.106 -1.217 c 2.631 -1.001 5.127 -2.967 6.718 -5.289 l .122 -.185 l .05 -4.043 l -1.318 -.39 L 557.144 432.552 z M 547.48 425.525 l -6.052 2.287 c -.44 -1.369 -.908 -3.142 -.904 -4.653 c .031 -1.634 .448 -2.738 1.8 -3.265 c .213 -.086 .396 -.116 .591 -.116 c .043 -.007 .089 -.009 .133 -.009 C 544.611 419.77 546.539 423.137 547.48 425.525 z" fill="#00539f"/><path d="M 582.813 409.366 c -2.195 -4.233 -4.843 -7.34 -8.813 -7.357 c -1.47 0 -3.054 .439 -4.777 1.337 c -2.641 1.377 -4.246 3.799 -5.168 6.469 l -1.358 -2.605 l -.688 .44 c -1.022 .652 -1.986 1.333 -2.977 1.845 c -1.046 .548 -2.152 .941 -3.276 1.403 l -.757 .311 l .373 .729 l 12.461 23.977 l .692 -.44 c 1.067 -.68 2.084 -1.387 3.124 -1.93 c 1.046 -.537 2.2 -.964 3.374 -1.445 l .757 -.311 l -6.108 -11.752 c -.982 -1.862 -2.395 -4.686 -2.378 -6.819 c .027 -1.306 .415 -2.247 1.743 -2.965 c .581 -.305 1.078 -.425 1.537 -.429 c 1.743 -.085 3.57 2.199 5.393 5.782 l 6.574 12.662 l .692 -.444 c 1.072 -.684 2.084 -1.383 3.129 -1.924 c 1.045 -.543 2.199 -.971 3.379 -1.453 l .76 -.315 L 582.813 409.366 z" fill="#00539f"/><path d="M 249.51 364.775 c .838 .097 1.654 .148 2.456 .148 c .023 0 .046 0 .067 0 c 7.388 .001 13.149 -4.304 13.928 -10.909 c .062 -.555 .097 -1.083 .097 -1.598 c 0 -5.668 -3.88 -8.806 -7.462 -11.202 c -3.671 -2.408 -6.899 -4.306 -6.8 -6.868 c 0 -.144 .014 -.292 .031 -.45 c .371 -2.5 1.47 -3.905 4.529 -3.976 c .358 0 .746 .021 1.161 .074 c 2.727 .345 4.25 2.056 4.97 4.835 l .122 .502 l .52 .065 l .804 .092 l .559 .069 l .222 -.52 c .746 -1.754 1.488 -3.442 2.322 -5.058 l .227 -.441 l -.315 -.379 c -1.277 -1.501 -4.594 -3.342 -8.656 -3.849 c -.765 -.091 -1.506 -.135 -2.213 -.135 c -7.2 -.035 -11.682 4.643 -12.35 10.577 c -.078 .607 -.113 1.192 -.113 1.75 c -.009 5.787 3.827 8.676 7.322 10.857 c 3.587 2.226 6.677 3.91 6.62 7.021 c 0 .219 -.014 .442 -.039 .673 c -.371 2.906 -2.496 4.18 -5.185 4.224 c -.306 0 -.614 -.017 -.925 -.052 c -3.395 -.433 -5.678 -2.636 -6.031 -6.105 l -.062 -.607 l -1.618 -.192 l -.65 -.079 l -.166 .632 c -.579 2.212 -1.423 4.359 -2.335 6.523 l -.218 .515 l .436 .358 C 243.243 363.3 246.447 364.41 249.51 364.775 z" fill="#00539f"/><path d="M 279.654 367.723 l .105 .604 l .616 .013 c .796 .018 1.527 -.009 2.226 .109 c .386 .064 .792 .188 1.219 .331 l -.183 .325 h 1.281 l .108 -.691 l .545 .307 c 6.572 -11.731 13.802 -22.766 21.007 -33.985 l .707 -1.102 l -1.306 -.052 c -.784 -.035 -1.615 -.124 -2.381 -.25 c -.769 -.131 -1.584 -.323 -2.326 -.551 l -.599 -.188 l -.288 .556 c -4.066 7.777 -8.632 15.42 -13.361 23.002 c -1.642 -8.755 -3.58 -17.408 -4.617 -26.016 l -.074 -.595 l -.593 -.061 c -1.58 -.162 -3.185 -.272 -4.686 -.524 c -1.491 -.254 -3.048 -.678 -4.589 -1.046 l -1.176 -.284 l .267 1.181 C 274.521 341.738 277.284 354.575 279.654 367.723 z" fill="#00539f"/><path d="M 300.827 388.893 l -.227 .889 l .919 -.047 c 1.924 -.11 3.663 -.154 5.237 -.154 c 5.869 0 9.34 .657 11.303 1.288 c .981 .315 1.587 .622 1.936 .835 c .347 .216 .371 .294 .386 .282 l .446 .512 l 16.342 -14.217 l -.031 -.338 l .006 -.018 c -.159 -1.976 -3.116 -4.915 -6.068 -7.965 c -2.952 -2.948 -5.893 -5.555 -5.898 -5.56 l -.205 -.18 l -.271 .009 c -5.944 .267 -17.141 5.705 -17.192 5.708 l -.149 .07 l -.091 .123 C 304.577 373.642 300.866 388.831 300.827 388.893 z" fill="#00539f"/><path d="M 298.16 422.753 l -.105 -.294 c -3.34 -9.11 -3.786 -20.768 -3.798 -20.785 l -.027 -.661 l -13.431 .24 l -.197 .297 c -3.017 4.536 -3.587 11.055 -3.595 15.765 c 0 3.424 .323 5.893 .329 5.911 l .009 .073 l .024 .066 c 1.2 3.103 2.154 9.01 5.14 10.341 c 5.509 2.069 9.204 2.08 9.268 2.08 h .627 l .043 -.626 c .146 -2.536 5.564 -12.119 5.561 -12.131 L 298.16 422.753 z" fill="#00539f"/><path d="M 346.582 421.206 c 0 -3.914 .04 -6.852 .04 -6.86 l .004 -.565 l -.547 -.108 c -5.476 -1.084 -20.157 -7.401 -20.18 -7.405 l -.52 -.223 l -.314 .469 c -3.997 6.005 -15.952 19.315 -15.964 19.336 l -.382 .421 l .354 .448 c 4.944 6.298 14.409 19.595 14.424 19.613 l .297 .417 l .482 -.168 c 3.81 -1.346 22.305 -7.207 22.326 -7.216 l .534 -.17 l -.068 -.558 C 346.665 435.195 346.582 427.091 346.582 421.206 z" fill="#00539f"/><path d="M 364.88 379.954 l -.164 -.131 l -.201 -.018 c -.299 -.026 -.589 -.035 -.873 -.035 c -5.503 .027 -10.816 3.979 -10.874 4.001 l -.476 .346 l .278 .522 c 4.667 8.647 6.46 20.526 6.477 20.544 l .044 .299 l .255 .166 c 4.141 2.689 6.406 4.743 7.624 6.096 c .609 .678 .958 1.178 1.146 1.494 c .192 .319 .192 .398 .205 .398 l .102 .334 l .334 .109 c .53 .173 1.06 .256 1.571 .256 c 4.692 -.138 7.305 -6.241 7.379 -6.254 l .056 -.118 l .005 -.128 c .045 -.657 .07 -1.305 .07 -1.94 C 377.809 390.287 364.923 380.007 364.88 379.954 z" fill="#00539f"/><path d="M 368.648 430.468 l -.696 -.431 l -.29 .765 c -1.626 4.228 -4.922 7.599 -7.833 9.896 c -2.907 2.298 -5.381 3.496 -5.381 3.504 l -.307 .149 l -.062 .334 c -1.334 7.139 -4.935 17.032 -4.935 17.049 l -.483 1.327 l 1.335 -.452 c 19.091 -6.465 25.002 -24.971 25.035 -25.037 l .042 -.131 l -.015 -.133 C 374.6 433.891 368.672 430.576 368.648 430.468 z" fill="#00539f"/><path d="M 334.022 464.277 c -7.692 -3.284 -15.092 -11.569 -15.112 -11.569 l -.168 -.189 l -.249 -.031 c -13.728 -1.797 -23.368 -4.272 -23.389 -4.272 l -.676 -.17 l -.153 .676 c -.181 .783 -.251 1.494 -.251 2.127 c -.009 2.529 1.19 3.819 1.536 4.13 c 6.989 9.716 24.395 12.587 33.59 12.622 c 1.762 0 3.232 -.109 4.302 -.314 c 1.006 -.276 1.896 -.303 2.115 -1.475 C 335.457 464.903 334.824 464.672 334.022 464.277 z" fill="#00539f"/></svg>