<?xml version="1.0" encoding="iso-8859-1"?>
<!-- Generator: Adobe Illustrator 24.0.1, SVG Export Plug-In . SVG Version: 6.00 Build 0)  -->
<svg version="1.1" id="Layer_1" xmlns="http://www.w3.org/2000/svg" xmlns:xlink="http://www.w3.org/1999/xlink" x="0px" y="0px"
	 viewBox="0 0 612 792" style="enable-background:new 0 0 612 792;" xml:space="preserve">
<path d="M103.306,295.695l-72.388-11.08l7.494-13.566l53.182,8.911l-36.14-39.765l7.33-13.271l47.899,55.416L103.306,295.695z"/>
<path d="M123.388,263.225l-10.387-8.1l8.343-10.699l10.388,8.101L123.388,263.225z"/>
<path d="M153.433,229.588L89.348,194.15l11.725-10.137l46.815,26.759l-20.153-49.811l11.47-9.916l25.77,68.564L153.433,229.588z"/>
<path d="M183.522,206.051l-6.945-11.192l11.527-7.154l6.946,11.192L183.522,206.051z"/>
<path d="M222.794,158.126l-4.079-10.837l28.83-10.853l9.645,25.622c-1.811,3.687-4.998,7.533-9.561,11.537
	c-4.563,4.005-9.571,7.034-15.023,9.087c-6.93,2.608-13.5,3.471-19.714,2.587c-6.214-0.883-11.605-3.462-16.171-7.736
	c-4.567-4.274-8.013-9.497-10.335-15.669c-2.521-6.697-3.316-13.193-2.384-19.488c0.933-6.294,3.661-11.88,8.188-16.757
	c3.444-3.734,8.329-6.792,14.655-9.173c8.224-3.096,15.278-3.839,21.164-2.232c5.884,1.609,10.602,5.118,14.151,10.526
	l-12.377,7.414c-2.123-2.807-4.816-4.64-8.08-5.498c-3.264-0.858-6.824-0.562-10.68,0.89c-5.845,2.2-9.814,5.748-11.909,10.644
	c-2.096,4.896-1.81,10.883,0.855,17.961c2.873,7.634,6.774,12.701,11.707,15.202c4.931,2.502,10.228,2.686,15.892,0.554
	c2.802-1.054,5.41-2.645,7.825-4.773c2.415-2.128,4.345-4.332,5.791-6.613l-3.071-8.16L222.794,158.126z"/>
<path d="M294.961,151.98l13.678,0.74c-1.211,4.972-3.547,8.909-7.005,11.813c-3.458,2.904-7.988,4.658-13.589,5.262
	c-8.864,0.957-15.728-1.146-20.592-6.311c-3.847-4.142-6.141-9.647-6.882-16.514c-0.885-8.203,0.63-14.865,4.545-19.987
	c3.915-5.121,9.249-8.047,16.002-8.776c7.584-0.819,13.831,0.967,18.74,5.356c4.909,4.39,7.81,11.612,8.7,21.669l-33.795,3.647
	c0.516,3.874,1.93,6.778,4.243,8.713c2.313,1.936,5.021,2.735,8.126,2.399c2.112-0.228,3.828-0.979,5.148-2.252
	C293.6,156.465,294.493,154.546,294.961,151.98z M294.301,138.661c-0.506-3.78-1.824-6.552-3.957-8.319
	c-2.134-1.766-4.576-2.5-7.328-2.203c-2.945,0.317-5.265,1.621-6.96,3.91s-2.335,5.218-1.917,8.788L294.301,138.661z"/>
<path d="M322.525,115.232l12.337,2.049l-1.114,6.705c5.278-4.476,10.967-6.209,17.064-5.197c3.239,0.538,5.941,1.652,8.108,3.343
	c2.166,1.69,3.794,3.973,4.882,6.846c2.658-2.251,5.381-3.811,8.168-4.678c2.787-0.868,5.642-1.059,8.564-0.574
	c3.716,0.617,6.737,1.872,9.065,3.763c2.33,1.892,3.893,4.361,4.691,7.408c0.573,2.249,0.47,5.717-0.308,10.403l-5.215,31.398
	l-13.385-2.223l4.662-28.07c0.81-4.871,0.871-8.092,0.186-9.663c-0.931-2.055-2.683-3.297-5.254-3.724
	c-1.874-0.311-3.729-0.049-5.565,0.787c-1.835,0.835-3.297,2.264-4.382,4.285c-1.088,2.021-2.014,5.344-2.782,9.968l-3.917,23.584
	l-13.384-2.223l4.47-26.914c0.794-4.778,1.068-7.901,0.821-9.367c-0.245-1.466-0.813-2.622-1.699-3.466
	c-0.888-0.844-2.19-1.409-3.903-1.694c-2.064-0.343-4.012-0.111-5.843,0.693c-1.83,0.805-3.271,2.165-4.323,4.081
	c-1.053,1.917-1.971,5.233-2.754,9.95l-3.963,23.861l-13.386-2.223L322.525,115.232z"/>
<path d="M426.433,178.406l11.351,7.667c-3.596,3.642-7.624,5.817-12.082,6.529c-4.46,0.712-9.246-0.112-14.359-2.474
	c-8.096-3.737-12.901-9.071-14.417-16.001c-1.169-5.53-0.307-11.431,2.589-17.702c3.458-7.491,8.184-12.426,14.175-14.806
	c5.991-2.379,12.069-2.146,18.236,0.701c6.926,3.198,11.365,7.941,13.319,14.23c1.954,6.289,0.727,13.976-3.68,23.059l-30.86-14.249
	c-1.55,3.587-1.831,6.805-0.841,9.654c0.989,2.85,2.9,4.928,5.735,6.236c1.93,0.891,3.787,1.129,5.573,0.715
	C422.959,181.553,424.712,180.365,426.433,178.406z M432.714,166.643c1.511-3.502,1.805-6.558,0.884-9.17
	c-0.921-2.611-2.64-4.497-5.152-5.657c-2.689-1.242-5.349-1.316-7.979-0.225c-2.631,1.091-4.685,3.275-6.163,6.551L432.714,166.643z
	"/>
<path d="M446.623,209.055l-11.181-7.685l28.201-41.026l10.385,7.139l-4.01,5.833c3.671-1.534,6.518-2.251,8.539-2.151
	c2.02,0.1,3.933,0.77,5.737,2.01c2.546,1.751,4.53,4.12,5.953,7.107l-9.967,7.085c-1.07-2.48-2.413-4.275-4.032-5.387
	c-1.564-1.076-3.179-1.569-4.841-1.479c-1.663,0.089-3.56,1.014-5.687,2.774c-2.129,1.761-5.592,6.131-10.389,13.109
	L446.623,209.055z"/>
<path d="M513.873,200.042l-7.022,7.808l-6.893-6.199l-13.416,14.917c-2.717,3.02-4.234,4.84-4.552,5.458
	c-0.318,0.618-0.39,1.3-0.216,2.044c0.174,0.746,0.597,1.419,1.266,2.022c0.934,0.839,2.568,1.741,4.904,2.707l-5.973,8.373
	c-3.224-1.134-6.318-3.035-9.286-5.704c-1.818-1.636-3.192-3.407-4.119-5.313c-0.927-1.905-1.308-3.635-1.143-5.189
	c0.165-1.555,0.835-3.252,2.015-5.092c0.808-1.332,2.77-3.73,5.884-7.191l14.514-16.138l-4.631-4.165l7.021-7.808l4.631,4.166
	l6.614-7.354l15.265,3.389l-11.755,13.07L513.873,200.042z"/>
<path d="M519.441,250.904c3.554-2.21,6.866-3.534,9.938-3.971c2.271-0.311,4.538-0.22,6.805,0.273
	c2.265,0.494,4.246,1.347,5.945,2.557c2.271,1.602,4.291,3.821,6.058,6.662c3.196,5.141,4.159,10.245,2.89,15.314
	c-1.27,5.068-4.745,9.37-10.425,12.901c-5.632,3.503-10.991,4.712-16.076,3.628c-5.085-1.083-9.222-4.188-12.408-9.311
	c-3.226-5.189-4.208-10.298-2.948-15.328C510.481,258.599,513.889,254.357,519.441,250.904z M524.193,258.015
	c-3.951,2.456-6.378,5.231-7.282,8.323c-0.904,3.092-0.483,6.042,1.264,8.851c1.746,2.809,4.19,4.483,7.333,5.026
	c3.143,0.543,6.737-0.443,10.782-2.96c3.998-2.486,6.436-5.218,7.314-8.194c0.876-2.976,0.412-5.916-1.393-8.819
	c-1.806-2.903-4.256-4.625-7.353-5.163C531.762,254.539,528.206,255.519,524.193,258.015z"/>
<path d="M524.065,297.9l37.898-15.866l5.14,12.279c1.949,4.652,3.029,7.765,3.242,9.337c0.34,2.409-0.136,4.745-1.427,7.008
	c-1.291,2.262-3.444,4.023-6.46,5.286c-2.326,0.975-4.459,1.371-6.398,1.19c-1.94-0.181-3.633-0.732-5.082-1.654
	c-1.45-0.923-2.602-1.994-3.458-3.216c-1.127-1.675-2.415-4.245-3.866-7.709l-2.088-4.989l-14.296,5.985L524.065,297.9z
	 M558.755,292.37l-10.753,4.502l1.753,4.188c1.262,3.016,2.305,4.949,3.127,5.8c0.822,0.852,1.776,1.389,2.862,1.612
	c1.086,0.224,2.19,0.102,3.31-0.368c1.379-0.577,2.347-1.458,2.904-2.644c0.556-1.185,0.686-2.444,0.392-3.779
	c-0.211-0.985-0.893-2.857-2.047-5.614L558.755,292.37z"/>
<path d="M556.39,344.653l6.729-1.618l4.182,17.384l-15.913,3.827c-2.041-1.296-4.07-3.398-6.085-6.305
	c-2.016-2.906-3.419-6.004-4.209-9.291c-1.005-4.179-1.005-8.031,0.002-11.56c1.006-3.527,2.95-6.465,5.836-8.811
	c2.884-2.347,6.243-3.98,10.076-4.902c4.159-1.001,8.065-1.018,11.719-0.052c3.652,0.966,6.746,2.922,9.279,5.867
	c1.942,2.242,3.372,5.271,4.289,9.086c1.193,4.958,1.084,9.082-0.324,12.37c-1.409,3.289-3.853,5.773-7.33,7.456l-3.425-7.65
	c1.826-1.035,3.12-2.465,3.883-4.292c0.761-1.825,0.863-3.901,0.304-6.227c-0.848-3.524-2.639-6.057-5.374-7.6
	c-2.733-1.543-6.3-1.785-10.694-0.728c-4.742,1.14-8.044,3.049-9.907,5.727c-1.864,2.677-2.385,5.723-1.563,9.139
	c0.405,1.688,1.145,3.303,2.216,4.842c1.071,1.539,2.226,2.804,3.463,3.793l5.069-1.219L556.39,344.653z"/>
<path d="M546.146,369.268l40.964-3.142l2.329,30.373l-6.93,0.532l-1.694-22.103l-9.082,0.696l1.577,20.565l-6.901,0.529
	l-1.577-20.565l-11.15,0.855l1.755,22.884l-6.901,0.529L546.146,369.268z"/>
<path d="M548.557,403.534l40.972,3.032l-1.289,17.41c-0.323,4.379-0.928,7.533-1.81,9.463c-0.883,1.931-2.31,3.421-4.279,4.475
	c-1.971,1.053-4.167,1.49-6.588,1.311c-3.075-0.227-5.547-1.318-7.416-3.274c-1.869-1.955-2.932-4.75-3.186-8.385
	c-1.176,1.711-2.432,3.103-3.766,4.176c-1.335,1.071-3.668,2.477-7,4.217l-8.363,4.411l0.731-9.894l9.358-5.321
	c3.344-1.888,5.458-3.192,6.346-3.914c0.887-0.722,1.517-1.508,1.889-2.361c0.372-0.853,0.628-2.229,0.768-4.13l0.125-1.678
	l-17.104-1.265L548.557,403.534z M571.589,413.556l-0.453,6.12c-0.294,3.97-0.31,6.459-0.047,7.473
	c0.262,1.012,0.782,1.828,1.561,2.447c0.779,0.62,1.782,0.975,3.013,1.066c1.379,0.101,2.519-0.184,3.421-0.858
	c0.902-0.674,1.516-1.672,1.837-2.997c0.144-0.663,0.339-2.673,0.587-6.026l0.479-6.456L571.589,413.556z"/>
<path d="M544.954,440.489l40.429,7.304l-1.475,8.163l-40.428-7.304L544.954,440.489z"/>
<path d="M550.341,482.066l-4.704,7.004c-3.958-2.441-6.579-5.344-7.864-8.708c-1.284-3.363-1.308-7.161-0.07-11.392
	c1.53-5.237,4.576-9.019,9.14-11.344c4.563-2.325,9.947-2.581,16.151-0.768c6.563,1.918,11.166,5.103,13.806,9.554
	c2.641,4.45,3.154,9.438,1.539,14.961c-1.409,4.823-3.981,8.325-7.712,10.505c-2.211,1.3-5.024,1.938-8.443,1.912l0.421-8.433
	c2.181,0.131,4.079-0.369,5.695-1.503c1.616-1.134,2.733-2.759,3.353-4.874c0.854-2.924,0.498-5.602-1.068-8.035
	c-1.565-2.434-4.698-4.336-9.396-5.71c-4.986-1.457-8.799-1.599-11.438-0.424c-2.641,1.175-4.38,3.197-5.219,6.065
	c-0.618,2.116-0.478,4.134,0.421,6.05C545.852,478.846,547.647,480.558,550.341,482.066z"/>
<path d="M532.348,488.502l37.088,17.674l-3.568,7.488l-14.598-6.956l-6.992,14.673l14.597,6.957l-3.568,7.488l-37.087-17.675
	l3.568-7.489l16.216,7.728l6.992-14.673l-16.216-7.729L532.348,488.502z"/>
<path d="M510.598,529.727l28.353,19.008l6.788-10.127l5.773,3.871l-18.181,27.118l-5.773-3.87l6.773-10.102l-28.353-19.007
	L510.598,529.727z"/>
<path d="M499.275,607.351l-29.11-29.975l8.282-8.043l19.075,19.641c0.352-2.32,0.848-4.404,1.488-6.251
	c0.643-1.847,1.628-3.976,2.958-6.388l6.521,6.715c-1.916,3.604-3.031,6.786-3.35,9.543c-0.317,2.757-0.014,5.482,0.911,8.178
	L499.275,607.351z"/>
<path d="M484.38,619.234l-21.965,15.871l-5.335-7.382l14.878-10.751l-2.816-5.571c-0.679,1.229-1.435,2.328-2.267,3.298
	c-0.832,0.97-1.74,1.81-2.725,2.522c-3.331,2.406-6.762,3.353-10.292,2.838c-3.529-0.515-6.4-2.301-8.61-5.36
	c-1.555-2.15-2.515-4.604-2.88-7.358c-0.366-2.756,0.055-5.364,1.26-7.827c1.207-2.462,3.339-4.797,6.397-7.008
	c2.195-1.587,4.228-2.738,6.096-3.454c1.868-0.717,3.649-1.058,5.344-1.026c1.694,0.031,3.26,0.324,4.696,0.876
	c1.437,0.553,2.944,1.445,4.526,2.677l-8.619,7.784c-1.311-1.335-2.664-2.091-4.061-2.27c-1.396-0.179-2.67,0.148-3.821,0.981
	c-1.287,0.931-1.998,2.188-2.133,3.771c-0.135,1.584,0.498,3.345,1.899,5.284c1.435,1.982,2.909,3.13,4.424,3.441
	c1.516,0.311,2.976-0.042,4.386-1.06c0.894-0.646,1.598-1.488,2.113-2.53c0.391-0.766,0.657-1.834,0.797-3.202l8.702-4.561
	L484.38,619.234z"/>
<path d="M447.897,625.516l-14.421,8.203l-4.365-7.674l14.421-8.203L447.897,625.516z"/>
<path d="M414.407,660.213l-16.585-38.352l10.598-4.583l10.868,25.13c1.15-2.045,2.354-3.817,3.608-5.317
	c1.255-1.499,2.932-3.141,5.031-4.923l3.714,8.591c-3.069,2.691-5.241,5.269-6.517,7.734c-1.274,2.464-1.957,5.121-2.049,7.971
	L414.407,660.213z"/>
<path d="M394.508,645.471c1.99,7.552,2.023,13.193,0.099,16.928c-1.923,3.733-5.667,6.333-11.232,7.8
	c-2.673,0.705-4.955,0.954-6.846,0.746c-1.89-0.207-3.516-0.696-4.878-1.468c-1.363-0.771-2.51-1.657-3.44-2.657
	c-0.931-1.001-1.79-2.228-2.578-3.683c-1.521-2.769-2.707-5.759-3.554-8.976c-1.899-7.208-2.071-12.805-0.513-16.789
	c1.558-3.985,5.318-6.764,11.28-8.335c3.342-0.88,6.184-1.059,8.523-0.536c2.341,0.523,4.441,1.641,6.304,3.353
	c1.343,1.21,2.614,3.015,3.817,5.413C392.692,639.665,393.698,642.399,394.508,645.471z M383.553,648.329
	c-1.333-5.059-2.691-8.396-4.073-10.012c-1.383-1.616-2.923-2.2-4.62-1.753c-1.12,0.295-1.987,0.943-2.604,1.946
	c-0.614,1.003-0.893,2.403-0.833,4.204c0.059,1.801,0.563,4.498,1.509,8.094c1.391,5.275,2.773,8.703,4.145,10.283
	c1.373,1.58,2.953,2.134,4.742,1.663c1.825-0.48,2.9-1.755,3.225-3.82C385.367,656.868,384.871,653.333,383.553,648.329z"/>
<path d="M360.102,657.249l-16.407,2.453l-1.305-8.731l16.408-2.452L360.102,657.249z"/>
<path d="M315.171,679.39l-1.682-41.75l11.536-0.465l1.103,27.356c1.81-1.494,3.569-2.715,5.279-3.662
	c1.71-0.948,3.865-1.876,6.465-2.784l0.376,9.352c-3.832,1.407-6.786,3.032-8.862,4.873c-2.076,1.841-3.669,4.074-4.778,6.699
	L315.171,679.39z"/>
<path d="M302.693,647.015l-11.438,0.207c-0.127-1.611-0.509-2.78-1.145-3.506c-0.637-0.727-1.465-1.145-2.487-1.254
	c-1.819-0.196-3.34,0.57-4.56,2.3c-0.889,1.275-1.755,4.085-2.599,8.43c1.507-1.248,3.01-2.119,4.51-2.615s3.189-0.643,5.064-0.441
	c3.659,0.394,6.607,2.026,8.845,4.897c2.237,2.872,3.142,6.295,2.714,10.271c-0.292,2.712-1.198,5.113-2.72,7.205
	c-1.523,2.091-3.469,3.587-5.839,4.486c-2.371,0.901-5.256,1.168-8.655,0.803c-4.086-0.439-7.289-1.494-9.609-3.163
	c-2.318-1.668-4.053-4.109-5.2-7.323c-1.148-3.216-1.452-7.33-0.912-12.347c0.793-7.373,2.926-12.607,6.397-15.7
	c3.472-3.094,7.956-4.345,13.454-3.753c3.251,0.351,5.773,1.003,7.569,1.956c1.795,0.955,3.236,2.223,4.325,3.807
	C301.497,642.855,302.258,644.769,302.693,647.015z M279.834,662.988c-0.237,2.211,0.133,4.003,1.113,5.377
	c0.979,1.373,2.267,2.146,3.865,2.318c1.505,0.162,2.815-0.271,3.931-1.297c1.115-1.025,1.795-2.672,2.039-4.939
	c0.246-2.284-0.081-4.086-0.982-5.404c-0.901-1.319-2.122-2.061-3.664-2.227c-1.598-0.172-2.988,0.27-4.173,1.326
	C280.778,659.2,280.068,660.814,279.834,662.988z"/>
<path d="M233.573,667.852l10.628-40.41l11.166,2.938l-6.964,26.479c2.168-0.898,4.208-1.55,6.121-1.954s4.245-0.66,6.997-0.768
	l-2.381,9.053c-4.076,0.222-7.377,0.908-9.901,2.061c-2.524,1.152-4.702,2.82-6.532,5.005L233.573,667.852z"/>
<path d="M204.541,611.702l31.438,13.581c-1.701,2.948-4.057,5.396-7.064,7.342c-3.009,1.947-7.829,3.695-14.462,5.247
	c-4.056,0.954-6.767,1.839-8.137,2.651c-1.368,0.813-2.282,1.751-2.742,2.814c-0.496,1.148-0.496,2.315,0.001,3.495
	c0.497,1.182,1.389,2.051,2.675,2.605c1.338,0.578,2.612,0.63,3.825,0.157c1.212-0.474,2.423-1.711,3.633-3.711l10.13,5.383
	c-1.687,2.771-3.436,4.748-5.248,5.93c-1.813,1.181-3.909,1.781-6.288,1.802c-2.38,0.019-5.336-0.734-8.87-2.26
	c-3.687-1.594-6.373-3.253-8.061-4.979c-1.686-1.726-2.74-3.713-3.163-5.961c-0.423-2.249-0.168-4.453,0.766-6.614
	c0.993-2.299,2.614-4.203,4.865-5.713c2.25-1.512,5.691-2.752,10.323-3.722c2.739-0.547,4.591-0.958,5.555-1.233
	c0.963-0.276,2.13-0.678,3.497-1.206l-16.362-7.068L204.541,611.702z"/>
<path d="M312.934,176.229c-99.737,0.005-184.385,64.557-214.467,154.16H25.471v3.131v229.677l110.272,70.72l59.629-38.24
	c34.258,20.883,74.503,32.918,117.561,32.919c124.923-0.004,226.178-101.262,226.182-226.182
	C539.111,277.494,437.856,176.236,312.934,176.229z"/>
<polygon style="fill:#FFFFFF;" points="277.331,253.909 372.167,246.65 405.576,300.195 355.111,365.153 295.619,363.393 
	246.357,301.281 "/>
<polygon style="fill:#FFFFFF;" points="368.806,505.692 278.271,506.174 246.445,455.349 295.933,376.975 354.66,378.713 
	402.65,450.521 "/>
<polygon style="fill:#FFFFFF;" points="246.018,480.224 266.554,513.022 246.018,546.685 "/>
<path style="fill:#FFFFFF;" d="M416.406,565.881l26.885-1.034l0.969,4.786c-29.378,23.106-64.975,38.627-103.886,43.639
	L416.406,565.881z"/>
<polygon style="fill:#FFFFFF;" points="444.848,551.21 411.373,552.498 380.817,512.058 415.071,456.217 481.585,438.418 
	496.73,463.927 "/>
<path style="fill:#FFFFFF;" d="M487.336,280.793l-0.889,45.337l-67.942-30.838l-34.15-54.732l14.061-14.063l-1.588-19.499
	c24.976,10.738,47.488,26.117,66.448,45.073C472.111,260.908,480.161,270.524,487.336,280.793z"/>
<path style="fill:#FFFFFF;" d="M162.591,252.071c17.029-17.025,36.923-31.166,58.894-41.651l43.114,38.175l-31.186,47.694
	l-75.929,34.101h-11.769l-21.931-25.168C133.931,285.521,147.061,267.604,162.591,252.071z"/>
<path style="fill:#FFFFFF;" d="M117.472,318.626l10.25,11.764h-14.887C114.267,326.412,115.813,322.49,117.472,318.626z"/>
<path style="fill:#FFFFFF;" d="M208.178,587.464l28.206-18.09l80.79,45.602c-1.411,0.027-2.822,0.054-4.24,0.054
	C274.828,615.027,239.096,605.006,208.178,587.464z"/>
<path style="fill:#FFFFFF;" d="M517.278,461.319l-8.062-2.936l-17.588-29.625l2.44-90.332l24.61,10.19
	c4.479,17.181,6.869,35.206,6.87,53.798C525.548,422.857,522.658,442.617,517.278,461.319z"/>
<polygon style="fill:#FFFFFF;" points="31.733,559.775 135.743,626.479 239.756,559.775 239.756,336.651 31.733,336.651 
	31.733,559.775 "/>
<polygon points="114.781,422.632 108.949,416.8 108.949,408.624 43.569,343.405 43.569,366.102 62.398,392.45 43.569,386.711 
	43.569,401.059 61.091,412.538 43.569,412.538 43.569,428.19 63.183,427.93 43.569,447.495 43.569,463.235 70.374,452.8 
	43.569,480.627 43.569,497.323 70.244,479.845 43.045,511.385 43.045,522.89 113.656,483.236 116.795,490.018 95.123,507.063 
	93.754,516.629 70.957,531.238 51.393,520.803 43.045,526.89 66.071,538.173 43.045,555.761 43.045,562.196 68.482,547.412 
	71.896,574.719 77.189,577.849 78.554,547.587 95.669,554.065 99.569,551.239 83.047,536.281 99.396,522.368 104.961,526.021 
	124.989,516.629 125.758,526.021 106.296,544.282 120.124,544.282 95.285,573.762 118.588,573.762 113.21,581.066 135.744,602.979 
	158.279,581.066 152.901,573.762 176.204,573.762 151.365,544.282 165.193,544.282 145.731,526.021 146.5,516.629 166.528,526.021 
	172.094,522.368 188.442,536.281 171.92,551.239 175.82,554.065 192.935,547.587 194.301,577.849 199.593,574.719 203.007,547.412 
	228.444,562.196 228.444,555.761 205.418,538.173 228.444,526.89 220.096,520.803 200.532,531.238 177.735,516.629 176.366,507.063 
	154.694,490.018 157.833,483.236 228.444,522.89 228.444,511.385 201.245,479.845 227.921,497.323 227.921,480.627 201.115,452.8 
	227.921,463.235 227.921,447.495 208.307,427.93 227.921,428.19 227.921,412.538 210.398,412.538 227.921,401.059 227.921,386.711 
	209.092,392.45 227.921,366.102 227.921,343.405 162.54,408.624 162.54,416.8 156.708,422.632 157.311,386.189 164.789,388.972 
	158.876,361.145 155.484,357.753 158.528,352.1 147.397,352.274 143.745,354.71 134.352,355.405 105.83,371.406 105.135,374.536 
	90.525,372.972 96.438,383.58 110.179,384.102 112.613,386.711 122.179,387.928 "/>
<polygon style="fill:#FFFFFF;" points="131.744,364.102 131.744,367.405 127.57,367.405 "/>
</svg>
