<svg xmlns="http://www.w3.org/2000/svg" xml:space="preserve" viewBox="0 0 612 792"><path d="m97.648 464.553 2.775 7.785-58.708 20.933-2.782-7.793zM75.726 442.886c8.607-2.074 16.164-2.451 18.703 8.075.545 2.257.7 5.018.061 7.301l-8.196 1.98c.572-1.839 1.279-3.879.808-5.813-1.3-5.381-5.738-4.397-9.833-3.407l-45.165 10.89-1.94-8.034zM34.232 414.734c-1.34 2.303-2.182 4.472-1.892 7.267.491 4.52 4.485 6.917 8.755 6.466 2.714-.29 4.532-1.151 6.499-3.018l6.149-6.978c5.078-6.196 8.85-9.84 17.235-10.728 8.709-.937 16.77 3.69 17.74 12.816.344 3.206-.208 6.587-1.994 9.355l-8.297.889c1.542-2.66 2.681-5.28 2.337-8.48-.552-5.099-4.802-6.802-9.409-6.317-12.325 1.32-12.944 18.926-29.216 20.663-8.715.936-16.359-2.909-17.343-12.197-.336-3.125-.162-6.136 1.125-8.931zM34.145 377.059c-1.637 2.102-2.781 4.132-2.869 6.94-.141 4.546 3.489 7.473 7.786 7.607 2.728.087 4.654-.516 6.85-2.102l7.058-6.064c5.873-5.439 10.109-8.53 18.535-8.268 8.762.276 16.103 5.967 15.82 15.14-.101 3.22-1.118 6.5-3.26 8.992l-8.351-.26c1.899-2.421 3.381-4.856 3.482-8.079.162-5.122-3.819-7.398-8.446-7.546-12.392-.387-15.423 16.966-31.782 16.457-8.755-.279-15.8-5.132-15.511-14.47.108-3.135.694-6.099 2.344-8.691zM30.306 335.086l7.085 1.209-2.35 13.773 19.315 3.297 2.102-12.301 7.085 1.212-2.101 12.301 20.865 3.566 2.351-13.773 7.085 1.212-3.738 21.919-61.443-10.497zM36.818 311.672l52.613 16.511 4.156-13.251 6.863 2.152-6.634 21.138-59.47-18.659zM51.474 274.092l43.973 12.9.081-.141-2.162-1.408-12.129-9.103-21.868-17.43 3.354-6.456 57.967 23.626-3.738 7.189-21.296-9.399-10.493-4.899-7.341-3.63-.067.148 7.267 5.368 27.236 21.434-2.626 5.061-41.837-12.722-.081.145 37.029 21.963-3.623 6.967-52.93-33.308zM90.253 214.016l5.698 4.395-8.533 11.059 15.511 11.968 7.624-9.883 5.698 4.395-7.624 9.883 16.756 12.924 8.533-11.059 5.691 4.391-13.584 17.606-49.347-38.069zM116.984 186.517l5.044 5.126-9.954 9.803 13.746 13.961 8.89-8.755 5.051 5.125-8.897 8.755 14.837 15.083 9.961-9.803 5.044 5.125-15.847 15.602-43.723-44.424zM129.949 175.61l8.028-5.832c4.883-3.543 12.702-8.816 21.882 3.826 3.449 4.751 7.294 12.992 2.465 18.029l27.128 17.793-6.957 5.051-27.021-18.07-.135.094 17.929 24.684-6.688 4.856zm23.882 4.617c-3.496-4.815-7.004-8.395-11.995-4.566l-1.071.778 12.096 16.655c5.261-3.31 4.668-7.786.97-12.867M170.204 149.121l27.721 38.463.142-.077-1.408-3.644-6.634-20.191-6.654-21.306 6.991-3.583 17.558 61.045-5.886 3.017-39.177-49.953zM245.177 152.789c3.361 10.728 9.416 30.577-5.893 35.375-15.302 4.795-21.666-14.951-25.034-25.68-3.361-10.729-9.409-30.577 5.893-35.372 15.302-4.799 21.667 14.948 25.034 25.677m-22.562 7.071c3.961 12.621 8.116 22.841 14.346 20.888 6.23-1.957 3.812-12.719-.148-25.34-3.953-12.618-8.116-22.838-14.345-20.885-6.231 1.957-3.813 12.719.147 25.337M289.763 144.444l.115.983c1.428 11.816 5.65 32.294-10.85 34.284-14.689 1.771-18.124-12.14-20.225-29.617-2.088-17.319-2.458-32.096 11.82-33.82 8.789-1.057 13.503 2.869 16.635 10.82l-7.415 4.139c-1.32-4.004-2.95-7.887-8.042-7.274-6.728.815-6.115 10.062-4.311 25 2.593 21.505 6.499 23.532 10.109 23.094 3.367-.404 6.998-1.344 5.219-16.117l-.404-3.364-6.896.832-.855-7.139zM327.6 115.76l-.263 7.186-13.962-.508-.714 19.579 12.474.457-.256 7.187-12.48-.458-.774 21.147 13.962.512-.263 7.186-22.219-.808 2.27-62.291zM351.569 119.08l-9.328 54.344 13.692 2.347-1.212 7.088-21.842-3.748 10.54-61.429zM395.037 140.11c-1.576-2.148-3.227-3.791-5.9-4.64-4.337-1.371-8.143 1.333-9.435 5.428-.821 2.6-.761 4.613.162 7.163l3.926 8.436c3.643 7.132 5.469 12.046 2.936 20.083-2.646 8.358-10.116 13.888-18.857 11.123-3.078-.97-5.961-2.835-7.779-5.577l2.513-7.961c1.818 2.479 3.765 4.566 6.829 5.539 4.89 1.543 8.162-1.67 9.557-6.088 3.738-11.823-12.149-19.441-7.22-35.049 2.64-8.354 9.22-13.82 18.13-11.005 2.997.946 5.685 2.313 7.732 4.61zM281.263 632.986c-.963-.889-1.906-1.535-3.28-1.684-2.209-.256-3.792 1.401-4.034 3.489-.155 1.333.061 2.296.754 3.435l2.667 3.704c2.417 3.092 3.765 5.294 3.287 9.402-.499 4.269-3.576 7.631-8.048 7.112-1.569-.176-3.132-.809-4.27-1.96l.472-4.075c1.111 1.03 2.236 1.859 3.805 2.034 2.505.296 3.778-1.563 4.041-3.818.693-6.049-7.671-8.237-6.749-16.211.498-4.284 3.159-7.523 7.711-6.998 1.529.175 2.95.586 4.155 1.502zM318.676 659.59l-2.249-30.51 4.855-.356c3.476-.256 7.947-.263 8.533 7.59.451 6.183-1.765 9.24-8.096 9.456l.997 13.518zm2.048-27.371.747 10.116c3.495-.014 4.324-1.987 4.081-5.388-.208-2.748-1.191-4.998-4.263-4.768zM367.369 620.742l14.359 27.803-3.953 1.07-2.661-5.462-5.872 1.602.465 6.049-3.84 1.043-1.589-31.263zm4.385 16.475-4.397-10.332-.081.021L369 642.538l4.694-1.273zM407.395 605.481l6.587 13.119-1.482-15.692 3.738-1.872 1.279 15.928 12.878 11.188-4.169 2.101-12.063-11.287 6.95 13.847-3.697 1.859-13.719-27.331zM452.432 576.615l2.155 2.788-5.415 4.196 5.88 7.61 4.85-3.751 2.161 2.788-4.849 3.744 6.351 8.217 5.422-4.19 2.162 2.789-8.628 6.681-18.723-24.192zM485.399 557.568l8.136 6.277 8.479 7.382-2.667 3.058-23.074-20.084 2.566-2.937 22.219 9.874-.007-.121-9.881-7.301-8.23-7.166 2.653-3.058 23.074 20.069-2.472 2.856-22.475-10.089.014.114zM532.005 530.346l-26.644-15.032 2.485-4.418c2.715-4.795 6.122-4.648 10.614-2.114 2.613 1.468 4.863 3.435 4.008 6.681l.074.04c2.667-2.505 5.394-1.893 8.357-.215 4.917 2.767 6.264 5.899 3.496 10.816zm-21.41-17.295-.337.607 8.735 4.916c1.987-3.206.195-4.815-2.626-6.411-2.088-1.173-4.432-1.563-5.772.888m20.305 12.244c1.873-2.997.714-4.674-2.216-6.324-2.937-1.656-5.111-2.095-6.869 1.206zM526.354 469.517l21.363 6.836c3.751 1.198 4.883.323 5.395-1.26.849-2.667-.774-3.441-3.158-4.243l-21.788-6.978 1.232-3.865 20.67 6.613c3.825 1.226 8.863 2.802 6.708 9.523-1.967 6.142-6.311 5.348-11.563 3.664l-20.091-6.426zM536.376 426.358l.518-4.836c.316-2.942.963-7.529 8.594-6.714 2.869.303 7.133 1.623 7.382 5.03l15.397-4.027-.445 4.196-15.47 3.899-.014.081 14.885 1.582-.432 4.034zm9.537-7.179c-2.896-.31-5.354-.201-5.604 2.869l-.067.647 10.042 1.078c.519-3.011-1.3-4.264-4.371-4.594M550.977 364.128l.485-.047c5.812-.542 15.921-2.34 16.676 5.779.673 7.229-6.196 8.725-14.797 9.53-8.526.798-15.78.781-16.44-6.25-.397-4.317 1.59-6.583 5.536-8.008l1.927 3.687c-1.98.593-3.906 1.344-3.671 3.849.31 3.311 4.85 3.132 12.204 2.445 10.58-.99 11.631-2.879 11.463-4.654-.155-1.66-.567-3.455-7.833-2.775l-1.657.155.316 3.394-3.516.327z"/><path d="M508.669 319.684c8.715 23.556 13.49 49.017 13.49 75.6 0 120.32-97.543 217.855-217.855 217.855-26.583 0-52.048-4.768-75.6-13.483l-2.492 6.735c24.333 9.005 50.633 13.935 78.092 13.935 124.286 0 225.027-100.755 225.027-225.041 0-27.458-4.916-53.765-13.921-78.092z" style="fill:#ed1c24"/><path d="M561.101 300.294c10.95 29.59 16.932 61.591 16.932 94.99 0 151.179-122.55 273.735-273.728 273.735-33.399 0-65.396-5.994-94.99-16.945l-2.492 6.749c30.368 11.233 63.208 17.376 97.482 17.376 155.14 0 280.907-125.769 280.907-280.915 0-34.274-6.135-67.114-17.369-97.482zM287.311 335.278l-26.919 18.343a3.06 3.06 0 0 0-.808 4.257 3.067 3.067 0 0 0 4.256.808l26.92-18.346a3.07 3.07 0 0 0 .809-4.256 3.07 3.07 0 0 0-4.258-.806" style="fill:#ed1c24"/><path d="M463.685 276.691c-.006-.017-.02-.034-.026-.047-.027-.03-.061-.064-.081-.091-.094-.108-.182-.212-.283-.313a2 2 0 0 0-.107-.108 4 4 0 0 0-.31-.293 1 1 0 0 1-.108-.085 5 5 0 0 0-.35-.259c-.034-.027-.067-.047-.102-.071a4 4 0 0 0-.377-.226q-.052-.03-.094-.054c-.142-.071-.27-.135-.411-.195-.034-.013-.06-.027-.088-.037a6 6 0 0 0-.431-.158c-.027-.01-.061-.017-.088-.027a4 4 0 0 0-.451-.115q-.032-.008-.074-.017a5 5 0 0 0-.471-.078q-.03 0-.067-.006a6 6 0 0 0-.485-.03h-.054c-.169 0-.33.003-.498.013-.02.003-.041.003-.055.007q-.25.02-.491.06-.04.007-.061.014a7 7 0 0 0-.485.107c-.02.007-.04.017-.074.021-.147.047-.296.098-.458.155-.02.01-.054.02-.073.034-.148.057-.29.118-.438.192-.026.017-.061.034-.087.054a4 4 0 0 0-.404.229c-.034.021-.067.047-.101.067-.094.061-.182.115-.269.179-.041.03-.074.064-.115.094-.013.01-.013.014-.026.023-.66.519-16.11 12.827-20.44 16.494-6.022 5.102-11.652 13.679-15.08 22.932-2.849 7.722-37.063 101.334-37.406 102.27a5.75 5.75 0 0 0 3.422 7.368 5.736 5.736 0 0 0 7.361-3.421c.344-.943 34.55-94.535 37.392-102.24 2.728-7.371 7.22-14.325 11.733-18.147 2.741-2.32 10.412-8.476 15.463-12.521 19.41 27.785 30.664 59.877 32.968 93.774-5.94 6.129-17.262 17.814-20.036 20.673l-42.693-47.649a3.05 3.05 0 0 0-4.317-.239 3.054 3.054 0 0 0-.242 4.324l43.696 48.771-11.233 33.311a3.055 3.055 0 0 0 1.919 3.879 3.053 3.053 0 0 0 3.873-1.926l11.591-34.349 17.834-18.397c.033 1.543.061 3.091.061 4.644 0 8.472-.565 16.979-1.684 25.296v.067c-.007.04-.02.067-.02.094-.855 7.16-5.186 30.51-25.088 30.51h-45.925c-4.405 0-7.503.539-9.995.97-1.798.31-3.226.56-4.802.56h-.128l-.128.006c-5.401.243-9.301-2.195-12.662-7.893-3.044-5.186-8.762-12.5-12.177-16.864l-1.893-2.452c-2.62-3.502-14.311-14.695-21.915-18.716-5.308-2.809-31.237-17.72-31.5-17.872a5.73 5.73 0 0 0-7.832 2.115 5.74 5.74 0 0 0 2.107 7.836c1.078.616 26.374 15.167 31.856 18.07 5.698 3.017 16.05 12.716 18.07 15.43l2.061 2.653c3.024 3.88 8.661 11.093 11.335 15.625 5.516 9.375 13.241 13.921 22.933 13.537 2.512-.014 4.613-.37 6.641-.721 2.269-.397 4.613-.808 8.028-.808h45.925c19.512 0 33.486-15.551 36.49-40.599v-.026a202 202 0 0 0 1.785-26.819c0-43.185-13.544-84.163-39.171-118.501q-.043-.041-.084-.088" style="fill:#ed1c24"/><path d="M589.447 190.908H436.086c-22.057 0-42.471 7.452-56.364 20.511-23.869-9.796-49.22-14.77-75.418-14.77-53.058 0-102.944 20.659-140.457 58.18-37.52 37.514-58.176 87.396-58.176 140.454 0 26.576 5.112 52.256 15.18 76.415a177 177 0 0 1-4.209 3.96c-11.564 10.446-18.46 30.065-18.46 52.479v145.394l11.483-15.497V528.137c0-18.939 5.623-35.775 14.668-43.959 2.539-2.296 4.984-4.667 7.348-7.044.067-.067.135-.128.195-.195 4.768-4.822 9.186-9.698 13.234-14.178 9.739-10.775 18.932-20.952 25.122-20.952 2.397 0 6.163.754 10.527 1.616 6.667 1.327 14.965 2.977 23.66 2.977 10.204 0 20.616-2.768 26.415-4.606 9.436 14.811 21.484 22.393 38.14 31.682 9.988 5.569 21.302 11.88 33.479 16.022 5.893 2.014 11.604 3.145 17.12 4.249 5.853 1.159 11.383 2.264 16.393 4.284 10.358 4.189 14.783 10.378 14.783 20.703v39.291c0 9.921-6.958 20.852-22.502 22.899q-.02.009-.026.007a191 191 0 0 1-23.916 1.502c-22.327 0-43.946-3.813-64.231-11.207 8.715-4.385 19.814-9.954 20.562-10.332h80.119c1.69 0 3.058-1.374 3.058-3.065s-1.367-3.063-3.058-3.063h-79.082l-17.787-30.456a3.06 3.06 0 0 0-4.183-1.105 3.06 3.06 0 0 0-1.104 4.189l17.026 29.162-23.229 11.665a185.7 185.7 0 0 1-40.12-22.979 12847 12847 0 0 0 10.123-12.769c.417-.444 3.354-3.482 7.981-6.048 3.145-1.738 12.358-4.755 17.464-6.25.148-.041 63.497-17.094 63.497-17.094a5.74 5.74 0 0 0 4.249-5.543 5.4 5.4 0 0 0-.202-1.488 5.725 5.725 0 0 0-7.031-4.055l-63.632 17.134-.067.014c-1.475.431-14.555 4.311-19.841 7.233-6.768 3.758-10.897 8.352-11.065 8.54l-.108.121-13.975 17.618a5.73 5.73 0 0 0 .02 7.153.6.6 0 0 0 .074.094c.041.054.094.108.142.162.208.229.431.451.687.653 35.365 28.26 78.145 43.197 123.714 43.197 8.594 0 17.248-.545 25.721-1.637.128-.02.263-.047.398-.073 21.841-3.199 31.809-19.875 31.809-34.181v-39.291c0-15.127-7.186-25.378-21.969-31.345-6.008-2.432-12.332-3.69-18.447-4.903-5.159-1.03-10.479-2.088-15.659-3.852-11.194-3.813-22.03-9.86-31.594-15.194-21.667-12.069-32.079-19.626-40.841-41.266-2.384-5.886-9.618-12.998-17.154-14.224-5.078-.828-10.493-3.953-16.225-7.264-4.324-2.502-9.011-5.172-14.116-7.203 2.741-1.771 4.694-2.684 4.728-2.701l1.758-.795.936-1.707c7.078-13.083 18.777-19.444 35.776-19.444 5.159 0 7.159 1.219 10.163 3.064 4.405 2.697 9.88 6.055 23.512 6.055 39.662 0 50.836-38.908 60.695-73.233.836-2.899 1.125-6.466 1.408-9.917.189-2.226.377-4.526.687-6.139 1.569-8.082 3.496-11.598 8.607-15.682 3.099-2.482 20.064-19.683 40.248-40.225l11.699-11.867c11.759-11.759 29.855-18.504 49.642-18.504h137.339zm-417.478 72.037c22.669-22.673 50.142-38.8 80.119-47.462l-11.22 23.343-66.185 48.175-25.673 3.741a189 189 0 0 1 22.959-27.797m-27.351 34.628 28.456-4.146 4.883 62.362c-5.725 6.317-37.474 41.322-41.023 45.242-2.727-2.725-13.523-13.527-19.302-19.299 2.147-30.118 11.415-58.819 26.986-84.159m221.937-72.859c-12.723 12.951-36.416 37.049-39.238 39.305-8.257 6.607-10.91 13.241-12.695 22.461-.438 2.236-.653 4.853-.861 7.385-.236 2.896-.479 5.887-1.004 7.688-11.254 39.218-20.797 64.925-49.657 64.925-10.392 0-13.847-2.118-17.511-4.364-3.637-2.229-7.759-4.758-16.164-4.758-20.582 0-35.675 8.028-44.916 23.822-2.909 1.529-8.957 5.092-14.763 10.9l-8.499 8.503 11.948 1.266c7.584.805 14.615 4.859 21.41 8.786 6.372 3.677 12.965 7.482 20.118 8.654 3.084.498 7.24 4.445 8.365 7.199.7 1.744 1.421 3.401 2.162 4.998-5.28 1.549-13.261 3.441-20.831 3.441-7.563 0-14.925-1.469-21.424-2.762-4.95-.983-9.234-1.832-12.763-1.832-11.288 0-21.154 10.911-33.641 24.73-2.216 2.452-4.546 5.031-6.978 7.645-8.264-21.41-12.466-44.047-12.466-67.423 0-1.771.034-3.536.081-5.297l17.079 17.083 7.456 26.637c.465 1.623 2.155 2.58 3.778 2.122a3.05 3.05 0 0 0 2.122-3.772l-7.22-25.781 41.555-45.822 7.112 2.624a3.065 3.065 0 0 0 3.933-1.815c.122-.351.189-.708.189-1.058 0-1.25-.768-2.418-2.007-2.872l-7.206-2.657c-.283-3.593-4.715-60.14-4.957-63.282 2.6-1.893 62.029-45.151 64.642-47.057 2.916 1.223 54.095 22.606 57.53 24.044v24.882a3.065 3.065 0 0 0 3.071 3.058 3.064 3.064 0 0 0 3.065-3.058v-24.838l10.183-4.001c1.569-.62 2.351-2.398 1.725-3.967a3.06 3.06 0 0 0-3.967-1.734l-10.972 4.314-56.883-23.771 12.426-25.849a188.3 188.3 0 0 1 44.424-5.287c23.073 0 45.44 4.095 66.615 12.157z" style="fill:#ed1c24"/><path d="m429.822 549.244-19.673-12.298-31.593-34.031a3.06 3.06 0 0 0-4.324-.169 3.06 3.06 0 0 0-.162 4.338l31.837 34.301 9.846 18.339zM455.335 523.874l-22.677-7.536-37.797-27.412a3.074 3.074 0 0 0-4.283.681 3.065 3.065 0 0 0 .681 4.276l36.092 26.172 14.79 18.252zM148.645 605.407c-7.253-31.796-6.109-68.561-6.041-70.468a4.21 4.21 0 0 1 4.351-4.068 4.21 4.21 0 0 1 4.061 4.352c-.014.424-.99 31.917 4.378 61.079zm22.71-30.65c-3.738-18.912-3.388-35.413-3.381-35.683a3.07 3.07 0 0 0-2.983-3.138 3.07 3.07 0 0 0-3.145 2.983c-.027 1.205-.444 20.973 4.62 42.436zm-37.244 50.276c-1.818-14.204-3.401-31.702-3.401-49.462v-43.285a5.358 5.358 0 1 0-10.715 0v43.285c0 23.411 2.593 45.98 4.984 61.793zm400.73-394.981 12.493-8.957c-15.82-2.593-45.333-6.658-74.853-6.658h-43.292a5.355 5.355 0 0 0-5.354 5.354 5.357 5.357 0 0 0 5.354 5.361h43.292c22.798 0 46.035 2.576 62.36 4.9m-28.118 20.154 9.192-6.593c-33.216-8.247-74.979-6.543-77.054-6.452a4.217 4.217 0 0 0-4.028 4.395 4.21 4.21 0 0 0 4.392 4.02c.458-.02 36.59-1.495 67.498 4.63m-17.243 12.355c-21.565-5.621-41.487-5.637-42.679-5.637a3.07 3.07 0 0 0-3.058 3.074 3.06 3.06 0 0 0 3.07 3.051c.263 0 16.979.023 36.032 4.263z" style="fill:#ed1c24"/><path d="M204.902 386.023s3.361-3.267 7.51-3.267c1.501 0 5.038.708 5.038.708s-2.391 6.799-6.809 6.799c-2.822 0-5.739-4.24-5.739-4.24"/></svg>