<svg xmlns="http://www.w3.org/2000/svg" xml:space="preserve" viewBox="0 0 612 792"><path d="M532.38 412.245c-18.344-36.337-39.137-77.522-39.137-112.125 0-61.851 21.649-97.878 37.933-119.597l2.24-2.988-2.917-2.333c-19.136-15.307-74.917-59.548-75.479-59.993l-2.294-1.82-2.368 1.723c-8.985 6.538-33.392 14.246-65.285 20.621-29.176 5.833-59.624 9.601-77.573 9.601s-48.398-3.768-77.573-9.601c-31.894-6.375-56.3-14.084-65.286-20.621l-2.368-1.723-2.294 1.82c-.561.445-56.343 44.686-75.479 59.993l-2.917 2.333 2.241 2.988c16.284 21.718 37.932 57.746 37.932 119.597 0 34.602-20.792 75.788-39.136 112.125-15.339 30.384-28.586 56.624-28.586 75.578 0 21.123 3.547 40.295 10.542 56.98 7.282 17.371 18.581 32.744 33.586 45.696 31.114 26.854 78.523 44.518 144.937 54.002 12.03 1.723 27.213 7.674 40.614 15.92 14.624 9.001 19.934 16.274 19.934 18.968h7.707c0-2.693 5.309-9.967 19.935-18.968 13.399-8.246 28.582-14.197 40.614-15.92 66.413-9.483 113.822-27.148 144.937-54.002 15.004-12.952 26.305-28.325 33.586-45.696 6.995-16.686 10.541-35.858 10.541-56.98-.001-18.954-13.247-45.194-28.587-75.578" style="fill:#0a4e9b"/><path d="M452.418 122.983c-25.45 15.446-108.085 30.059-144.918 30.059s-119.469-14.613-144.918-30.059c-9.998 7.931-51.608 40.943-70.37 55.923 16.625 22.874 37.252 59.825 37.252 121.214 0 36.438-21.232 78.493-39.963 115.599-14.275 28.275-27.759 54.984-27.759 72.104 0 41.087 13.561 72.764 41.456 96.84 14.622 12.622 33.607 23.358 56.428 31.913 23.501 8.811 51.953 15.639 84.562 20.295 21.595 3.092 52.556 19.227 63.312 33.35 10.755-14.123 41.716-30.258 63.31-33.35 32.611-4.656 61.063-11.484 84.564-20.295 22.82-8.555 41.805-19.291 56.428-31.913 27.896-24.076 41.456-55.753 41.456-96.84 0-17.119-13.482-43.828-27.759-72.104-18.731-37.106-39.964-79.162-39.964-115.599 0-61.389 20.628-98.34 37.253-121.214-18.762-14.979-60.373-47.992-70.37-55.923" style="fill:#feeb04"/><path d="M360.711 603.17c15.068 0 27.29-12.222 27.29-27.304 0-15.075-12.222-27.297-27.29-27.297s-27.29 12.222-27.29 27.297c0 15.082 12.222 27.304 27.29 27.304M349.102 384.267c9.068 0 16.422-7.349 16.422-16.421 0-9.065-7.353-16.415-16.422-16.415-9.068 0-16.421 7.35-16.421 16.415.001 9.073 7.353 16.421 16.421 16.421" style="fill:#0a4e9b"/><path d="M383.69 578.299v-.002c-4.937-5.629-10.583-8.278-15.973-8.264q-.55 0-1.094.036a2.9 2.9 0 0 0-2.141-1.441c-1.353-.193-2.03-.572-2.573-1.053-.797-.703-1.432-2.072-1.884-4.115-.466-2.016-.739-4.523-1.329-7.109a2.903 2.903 0 1 0-5.658 1.305h-.002c.681 2.852.887 6.286 2.028 9.569.583 1.637 1.462 3.296 2.925 4.636q.372.345.79.647c-2.178 1.263-4.118 2.941-5.745 4.876-3.631 4.324-5.865 10.009-5.876 15.908a2.904 2.904 0 0 0 5.808 0c-.011-4.396 1.737-8.891 4.509-12.167 2.784-3.297 6.435-5.291 10.24-5.284 3.486.015 7.436 1.59 11.617 6.297a2.907 2.907 0 0 0 4.099.257 2.9 2.9 0 0 0 .259-4.096" style="fill:#feeb04"/><path d="m330.603 488.541-21.668 51.566-21.671 51.573s-3.069 7.346-13.359 3.175c-10.506-4.27-7.318-11.832-7.318-11.832l21.66-51.58 21.678-51.588 10.338 4.346zM301.513 476.319l-22.801 54.259s-3.069 7.352-13.352 3.174c-10.513-4.262-7.332-11.823-7.332-11.823l22.798-54.302 10.338 4.354zM302.825 415.398h-61.567s-7.959.014-8.105-11.093c-.14-11.332 8.078-11.823 8.078-11.823h110.872l44.409 18.911-.041.014.181.084-24.723 58.082s-3.069 7.346-13.352 3.174c-10.506-4.262-6.153-11.356-6.153-11.356l15.32-36.01-9.042-3.711-26.535 62.762-49.819-20.795 20.478-48.308zM167.529 328.334c2.393 2.128 1.89 1.573 6.662 6.638-1.695-2.316-2.211-3.143-3.244-4.954a51 51 0 0 1-1.681-3.055l-5.922-11.364 5.385-4.238 12.689 28.124-4.576 3.606-24.36-18.95 5.428-4.272zM185.192 316.396c2.037 2.466 1.626 1.842 5.566 7.572-1.311-2.543-1.702-3.442-2.448-5.385-.488-1.172-.956-2.55-1.193-3.272l-4.116-12.145 5.971-3.363 8.239 29.735-5.079 2.867-21.165-22.459 6.014-3.387zM220.533 306.416c1.29 3.673.969 6.031-.928 6.7-2.232.788-4.339-1.629-6.397-7.464-1.842-5.242-1.709-8.445.376-9.181.83-.293 2.016-.035 2.77.551.851.729 1.535 1.887 2.197 3.774zm-2.372-26.788-6.271 2.207 3.592 10.21c-1.556-1.765-3.237-2.201-5.434-1.438-2.965 1.043-4.597 3.387-4.89 6.885-.209 2.986.335 6.558 1.626 10.237 1.332 3.781 2.902 6.686 4.96 9.122 2.63 3.143 5.615 4.157 8.775 3.045 2.386-.837 3.802-2.85 3.704-5.309l1.067 3.028 5.539-1.95zM223.497 278.229l4.27-1.178 2.818 11.936-3.377.938zM246.309 279.321c3.286-.659 6.167 3.492 7.722 11.242 1.611 8.029.593 12.965-2.734 13.631-3.383.677-6.174-3.495-7.779-11.524-1.548-7.75-.495-12.693 2.791-13.349m-1.452-7.244c-3.585.722-6.132 2.692-7.722 5.807-1.925 4.008-2.323 9.871-1.06 16.216 2.511 12.522 8.685 18.936 16.672 17.335 2.825-.561 5.267-2.04 6.683-4.133 2.763-4.06 3.544-10.646 2.114-17.775-2.504-12.522-8.748-19.044-16.687-17.45M264.14 269.771l7.17-.798 3.418 30.621 8.707-.97.809 7.342-15.877 1.772zM293.613 298.094l-.732-23.418 1.862-.056c2.679-.08 3.711.171 4.828 1.113 1.957 1.66 3.059 5.288 3.212 10.551.14 4.36-.53 7.646-2.009 9.637-.994 1.409-2.369 2.023-4.531 2.086zm-6.983 7.607 10.206-.314c3.911-.129 6.408-1.123 8.654-3.592 3.293-3.544 5.064-9.39 4.855-16.031-.168-5.437-1.549-10.143-4.032-13.564-2.692-3.756-5.72-5.152-10.614-5.002l-10.261.321zM316.078 267.005l17.245.862-.362 7.38-10.046-.498-.349 7.15 10.033.499-.364 7.377-10.046-.505-.446 8.866 10.046.506-.377 7.38-17.245-.865zM356.441 287.285c.126 1.468.237 4.165.237 6.02.014 1.221-.126 2.358-.404 4.636.6-2.626.753-3.244 1.604-5.536.712-2.03 1.479-4.109 1.8-4.806l6.698-15.316 7.366 1.235-16.06 36.038-6.459-1.078-3.46-39.31 7.38 1.235zM378.598 274.773l16.685 4.416-1.883 7.143-9.724-2.57-1.828 6.92 9.711 2.57-1.884 7.144-9.71-2.571-2.275 8.581 9.71 2.57-1.882 7.144-16.687-4.416zM411.343 295.833c.753-2.713.14-4.112-2.232-5.012-1.911-.736-3.906.286-4.701 2.372-.488 1.283-.308 2.399.488 3.498.432.593 1.311 1.479 2.93 2.885 3.348 2.937 4.366 4.301 5.147 6.746.768 2.623.656 5.215-.376 7.942-2.554 6.693-8.79 9.588-15.193 7.15-4.047-1.541-6.586-4.712-7.229-8.821-.334-2.33-.153-4.102.823-7.102l7.089 2.7c-.907 3.394-.224 5.494 2.148 6.393 2.106.809 4.199-.178 5.051-2.428.529-1.385.432-2.713-.252-3.83-.404-.649-.962-1.228-2.901-2.947-3.209-2.874-4.367-4.301-5.148-6.188-.99-2.459-.893-5.486.237-8.43 2.428-6.366 8.398-9.177 14.523-6.85 6.167 2.35 8.58 7.743 6.585 14.579zM428.656 300.456l-5.134-2.736 3.474-6.522 16.604 8.842-3.474 6.523-5.093-2.714-14.482 27.192-6.376-3.39zM449.264 303.636l13.895 10.251-4.38 5.944-8.093-5.965-4.241 5.759 8.078 5.972-4.38 5.943-8.092-5.964-5.26 7.143 8.092 5.965-4.395 5.943-13.883-10.244zM108.771 546.148c-.084-.544-.37-.879-.753-1.081-.37-.202-.83-.286-1.339-.286-1.144 0-1.653.328-1.653.899 0 2.386 9.124.9 9.124 6.684 0 3.677-3.062 5.448-7.422 5.448-4.186 0-6.92-2.428-7.039-5.288h4.988c.112.558.426.983.858 1.248.412.266.962.398 1.472.398 1.297 0 2.163-.419 2.163-1.172 0-2.4-9.118-.747-9.118-6.809 0-3.369 2.902-5.064 6.872-5.064 4.409 0 6.411 2.253 6.794 5.022zM118.879 541.544h14.538v4.158h-4.667v11.692h-5.197v-11.692h-4.674zM139.074 557.401v-15.857h12.934v3.704h-7.73v2.254h6.537v3.704h-6.537v2.49h8.036v3.705zM158.286 557.401v-15.857h12.926v3.704h-7.729v2.254h6.537v3.704h-6.537v2.49h8.037v3.705zM187.843 550.208l-.195-3.613v-5.051h4.981v15.864h-4.87l-5.65-8.637.202 3.607v5.023h-4.987v-15.857h4.869zM212.497 551.352h.041l1.786-9.808h5.023l-3.942 15.864h-5.113l-1.828-9.223h-.042l-1.807 9.223h-5.113l-3.941-15.864h5.022l1.786 9.808h.042l1.89-9.808h4.304zM224.474 541.544h5.198v15.851h-5.198zM239.891 550.501c0 1.646 0 3.433 1.36 3.433.795 0 1.326-.663 1.326-1.933v-10.457h5.197v9.725c0 4.187-1.989 6.544-6.195 6.544-4.576 0-6.732-2.553-6.32-7.312zM254.31 541.544h5.197v5.128l4.563-5.128h6.097l-5.79 5.965 6.403 9.892h-6.229l-3.816-6.321-1.228 1.298v5.023h-5.197zM424.29 563.282h-4.576v-9.056h-3.6v-3.125c2.428-.042 4.186-.879 4.701-3.572h3.475zM439.023 555.021c-1.13 0-1.939-.837-1.939-2.079 0-1.318.684-2.162 2.037-2.162 1.088 0 2.064.886 2.064 2.016 0 1.214-.585 2.184-2.162 2.225m-6.138 4.508c.655 3.146 3.432 4.095 6.348 4.095 4.311 0 6.781-3.216 6.781-8.002 0-5.651-2.791-8.106-7.297-8.106-3.502 0-6.209 1.702-6.209 5.497 0 2.226 1.633 5.037 5.246 5.037 1.479 0 2.399-.265 3.642-1.13.014 2.023-.684 3.571-2.386 3.571-.907 0-1.604-.376-1.855-1.228zM452.682 547.76h9.962v3.746h-6.738l-.517 2.315c.977-.697 2.051-.837 3.223-.837 2.972 0 5.288 1.814 5.288 4.926 0 4.298-3.419 5.721-6.962 5.721-3.391 0-5.595-1.528-6.474-4.395l4.603-.468c0 .049.042.118.042.16.266.81 1.145 1.256 1.981 1.256 1.339 0 2.218-.907 2.218-2.051 0-1.283-.613-2.26-1.995-2.26-.684 0-1.492.181-1.855.864l-4.311-.153zM475.661 551.896v4.744h-3.697zm-7.157 8.149h7.157v3.237h4.367v-3.237h1.939v-3.404h-1.939v-8.881h-4.283l-7.241 8.616zM449.676 140.336c-23.649 15.501-83.413 32.738-142.176 32.738s-118.527-17.237-142.175-32.738c-.718.606-51.441 43.017-52.369 43.795 8.671 11.671 21.807 33.433 25.769 55.347h49.111v-31.266l.656-.666h44.514l.656.666v31.266h53.833v-31.266l.656-.666h38.7l.655.666v31.266h53.833v-31.266l.655-.666h44.514l.656.666v31.266h49.111c3.962-21.915 17.098-43.676 25.77-55.347-.929-.778-51.651-43.189-52.369-43.795" style="fill:#0a4e9b"/></svg>