<?xml version="1.0" encoding="iso-8859-1"?>
<!-- Generator: Adobe Illustrator 24.0.1, SVG Export Plug-In . SVG Version: 6.00 Build 0)  -->
<svg version="1.1" id="Layer_1" xmlns="http://www.w3.org/2000/svg" xmlns:xlink="http://www.w3.org/1999/xlink" x="0px" y="0px"
	 viewBox="0 0 612 792" style="enable-background:new 0 0 612 792;" xml:space="preserve">
<path style="fill:#FFFFFF;" d="M578.037,426.511l0.001,0.002l-9.513,0.525c-22.683-0.053-43.196-9.28-58.114-24.192
	c-14.954-14.962-24.19-35.549-24.193-58.303c-0.014-31.796,18.665-61.188,47.488-74.706l11.9-5.589L474.161,154.79l-8.041,2.181
	l0.012,0.077l-0.018-0.077c-0.564,0.132-4.11,0.897-9.815,0.897c-9.946-0.014-26.382-2.268-45.612-14.274
	c-22.399-14.017-42.412-18.93-59.052-18.916c-0.006,0-0.017,0-0.037,0c-0.025,0-0.07,0-0.146,0.003
	c-20.44,0.049-35.442,7.368-43.95,12.979c-8.514-5.614-23.529-12.939-43.991-12.979c-0.031,0-0.057,0-0.078,0
	c-0.044,0-0.064,0-0.064-0.003c-16.642-0.014-36.655,4.896-59.052,18.916c-19.232,12.007-35.664,14.261-45.61,14.274
	c-3.263,0-5.815-0.25-7.513-0.489c-0.848-0.119-1.482-0.235-1.883-0.317c-0.2-0.039-0.341-0.072-0.421-0.091l-0.001,0.002
	l-8.05-2.183L69.393,264.244l11.898,5.592c28.825,13.518,47.506,42.91,47.49,74.706c-0.002,22.754-9.239,43.341-24.19,58.303
	c-14.921,14.912-35.437,24.14-58.117,24.192l-9.527-0.526L24.5,425.798l0.17,16.194c0.484,43.931,16.619,81.129,47.145,109.312
	c30.5,28.222,74.883,47.584,131.99,57.979c40.823,7.418,63.72,18.768,76.385,28.583c12.661,9.841,15.317,18.038,15.932,20.331
	c0.479,1.665,0.802,3.762,2.818,6.289c1.005,1.222,2.521,2.303,4.069,2.867c1.555,0.58,3.057,0.746,4.49,0.748
	c1.433-0.002,2.935-0.168,4.49-0.748c2.382-0.823,4.428-2.917,5.297-4.678c0.937-1.778,1.251-3.198,1.593-4.481
	c0.612-2.29,3.272-10.487,15.932-20.328c12.662-9.815,35.561-21.165,76.386-28.583c57.106-10.395,101.487-29.757,131.989-57.979
	c30.524-28.184,46.659-65.382,47.144-109.299l0.17-16.208L578.037,426.511z"/>
<path style="fill:#006227;" d="M578.413,433.035l-9.7,0.536c-49.091,0-89.027-39.938-89.027-89.029
	c0-34.357,20.114-66.003,51.245-80.619l5.1-2.395l-64.741-99.188l-3.458,0.938c-0.105,0.028-4.347,1.124-11.533,1.124
	c-10.944,0-28.716-2.543-49.074-15.268c-21.526-13.453-40.232-17.922-55.594-17.921c-22.332,0.001-37.592,9.447-44.129,14.458
	c-6.537-5.011-21.796-14.457-44.128-14.458c-15.362-0.001-34.068,4.468-55.594,17.921c-20.358,12.725-38.13,15.268-49.074,15.268
	c-7.187,0-11.428-1.096-11.533-1.124l-3.459-0.938l-64.741,99.188l5.099,2.395c31.131,14.616,51.246,46.262,51.246,80.619
	c0,49.091-39.937,89.029-89.027,89.029l-9.7-0.536l-5.482-0.314c0,0,0.097,9.2,0.097,9.202
	c1.06,84.806,61.15,140.453,173.77,160.932c83.073,15.107,95.673,46.565,97.483,53.745c0.8,3.174,1.462,4.97,5.044,4.97
	c3.583,0,4.244-1.796,5.044-4.97c1.811-7.181,14.41-38.639,97.483-53.745c112.62-20.479,172.709-76.126,173.77-160.932
	c0-0.002,0.097-9.202,0.097-9.202L578.413,433.035z"/>
<path style="fill:#FFFFFF;" d="M569.253,443.355l-0.269,0.017h-0.271c-17.021,0-33.052-4.326-47.05-11.937
	c-55.614,53.802-130.591,86.97-214.138,86.968c-0.005,0-0.021,0-0.025,0c-83.554,0.006-158.545-33.161-214.162-86.968
	c-13.998,7.61-30.027,11.937-47.049,11.937h-0.27l-0.27-0.017l-4.725-0.261c0.783,38.836,14.873,71.207,41.889,96.228
	c27.974,25.907,69.631,44.039,123.814,53.892c36.824,6.695,64.904,17.374,83.46,31.735c8.729,6.757,14.06,13.328,17.314,18.811
	c3.254-5.483,8.584-12.055,17.313-18.811c18.557-14.361,46.637-25.04,83.461-31.735c54.182-9.853,95.839-27.984,123.813-53.892
	c27.017-25.021,41.105-57.392,41.889-96.228L569.253,443.355z"/>
<path style="fill:#006227;" d="M154.076,500.23c-10.503-5.58-20.626-0.232-27.187,12.115c-6.56,12.347-5.546,23.907,5.049,29.539
	c10.456,5.555,20.84-0.172,27.309-12.344C165.718,517.367,164.436,505.736,154.076,500.23z M152.34,525.871
	c-3.862,7.269-10.261,13.263-17.028,9.667c-6.762-3.595-5.377-12.255-1.516-19.523c3.772-7.096,10.331-12.933,16.907-9.436
	C157.278,510.072,156.113,518.774,152.34,525.871z"/>
<polygon style="fill:#006227;" points="182.55,514.634 166.33,557.253 186.909,565.085 189.466,558.368 175.895,553.205 
	189.561,517.304 "/>
<path style="fill:#006227;" d="M224.188,528.535l-9.929-2.458l-10.96,44.265l9.931,2.459c11.13,2.755,22.089,0.622,26.438-16.944
	C244.017,538.288,235.318,531.292,224.188,528.535z M232.076,553.977c-2.387,9.639-9.628,13.702-15.711,12.197l-4.057-1.006
	l7.503-30.312l4.057,1.003C229.951,537.364,234.46,544.339,232.076,553.977z"/>
<polygon style="fill:#006227;" points="253.258,581.067 275.284,583.683 276.132,576.549 261.557,574.815 263.067,562.101 
	276.312,563.675 277.161,556.537 263.913,554.964 265.239,543.806 279.711,545.523 280.559,538.389 258.639,535.784 "/>
<path style="fill:#006227;" d="M312.795,561.345l0.001-0.131c4.439-1.005,7.421-4.81,7.391-10.233
	c-0.056-9.995-7.296-11.653-12.119-11.626l-13.071,0.069l0.251,45.603l13.07-0.073c4.716-0.025,13.169-1.769,13.107-13.268
	C321.392,566.066,317.891,561.905,312.795,561.345z M302.537,546.57l2.891-0.017c3.429-0.019,7.235,0.352,7.265,5.644
	c0.026,4.704-3.879,5.574-7.041,5.591l-3.052,0.018L302.537,546.57z M306.244,577.779l-3.537,0.02l-0.073-13.197l3.539-0.021
	c3.748-0.019,7.717,0.873,7.749,6.818C313.95,576.691,309.725,577.76,306.244,577.779z"/>
<path style="fill:#006227;" d="M355.027,559.446l-0.015-0.129c4.646-1.328,7.063-6.08,6.445-11.4
	c-1.46-12.592-10.946-11.163-18.928-10.239l-8.036,0.932l5.249,45.298l7.449-0.864l-2.182-18.82l2.396-0.276
	c3.139-0.364,4.246,0.823,5.701,4.073l6.11,13.631l8.302-0.962l-8.013-17.025C358.528,561.737,357.073,559.407,355.027,559.446z
	 M346.631,556.801l-2.446,0.284l-1.413-12.201l2.446-0.282c3.727-0.433,7.929-0.459,8.56,4.993
	C354.433,555.241,350.305,556.376,346.631,556.801z"/>
<path style="fill:#006227;" d="M389.746,528.526c-11.531,2.917-15.436,13.679-12.006,27.232
	c3.428,13.553,11.946,21.439,23.577,18.494c11.478-2.905,15.324-14.122,11.943-27.484
	C409.879,533.404,401.118,525.647,389.746,528.526z M399.556,567.285c-7.429,1.88-12.215-5.467-14.235-13.446
	c-1.97-7.792-1.031-16.52,6.189-18.347c7.217-1.827,12.198,5.405,14.17,13.192C407.699,556.665,406.983,565.406,399.556,567.285z"/>
<polygon style="fill:#006227;" points="441.448,553.137 436.735,541.232 449.137,536.321 446.491,529.64 434.089,534.551 
	429.952,524.104 443.501,518.738 440.852,512.058 420.334,520.182 437.118,562.58 457.742,554.416 455.096,547.734 "/>
<polygon style="fill:#006227;" points="494.416,535.998 503.032,531.317 477.451,517.779 480.703,491.552 472.606,495.95 
	470.098,519.615 460.743,502.393 454.153,505.972 475.913,546.046 482.505,542.467 472.403,523.865 472.499,523.813 "/>
<polygon style="fill:#FFFFFF;" points="224.586,192.315 241.521,192.315 256.572,236.413 256.808,236.413 271.39,192.315 
	287.148,192.315 264.806,252.877 247.047,252.877 "/>
<rect x="287.975" y="236.414" style="fill:#FFFFFF;" width="16.461" height="16.463"/>
<polygon style="fill:#FFFFFF;" points="311.607,192.315 328.543,192.315 343.594,236.413 343.83,236.413 358.411,192.315 
	374.17,192.315 351.826,252.877 334.068,252.877 "/>
<rect x="374.999" y="236.414" style="fill:#FFFFFF;" width="16.462" height="16.463"/>
<path style="fill:#FFFFFF;" d="M187.688,273.913c21.117,0,32.982,17.405,32.982,42.218S209,358.818,187.688,358.818
	c-21.599,0-32.979-17.522-32.979-42.688C154.709,290.965,166.28,273.913,187.688,273.913 M187.688,345.883
	c13.79,0,18.901-14.936,18.901-29.752c0-14.464-5.497-29.281-18.901-29.281c-13.401,0-18.9,14.817-18.9,29.281
	C168.787,330.947,173.897,345.883,187.688,345.883"/>
<polygon style="fill:#FFFFFF;" points="223.078,275.323 237.254,275.323 249.791,340.943 249.982,340.943 261.456,275.323 
	279.779,275.323 291.64,340.943 291.832,340.943 304.462,275.323 317.576,275.323 300.028,357.407 282.673,357.407 270.522,291.787 
	270.327,291.787 258.372,357.407 240.919,357.407 "/>
<rect x="322.109" y="275.323" style="fill:#FFFFFF;" width="13.5" height="82.084"/>
<path style="fill:#FFFFFF;" d="M376.686,273.913c21.118,0,32.979,17.405,32.979,42.218s-11.67,42.688-32.979,42.688
	c-21.599,0-32.978-17.522-32.978-42.688C343.708,290.965,355.278,273.913,376.686,273.913 M376.686,345.883
	c13.791,0,18.901-14.936,18.901-29.752c0-14.464-5.496-29.281-18.901-29.281c-13.405,0-18.9,14.817-18.9,29.281
	C357.786,330.947,362.897,345.883,376.686,345.883"/>
<path style="fill:#FFFFFF;" d="M455.084,290.378c-4.242-2.235-8.968-3.529-13.691-3.529c-4.628,0-10.607,2.469-10.607,11.407
	c0,14.229,29.509,8.232,29.509,35.749c0,17.992-11.671,24.814-25.265,24.814c-7.33,0-10.607-1.176-17.262-3.175l1.254-14.818
	c4.628,3.058,9.931,5.058,15.235,5.058c5.11,0,11.957-3.174,11.957-10.584c0-15.641-29.509-9.173-29.509-36.338
	c0-18.346,11.668-25.047,23.529-25.047c5.786,0,11.187,0.941,16.104,2.94L455.084,290.378z"/>
<path style="fill:#FFFFFF;" d="M352.388,433.384c0.351-4.042,0.185-8.19-0.615-12.369c-2.301,2.98-4.98,4.729-8.023,5.159
	c-4.319,0.61-8.09-1.577-10.603-3.554c-2.113,5.891-5.338,9.893-9.759,11.691c-6.39,2.601-13.086-0.078-15.935-1.513
	c-2.163,1.506-6.023,4.762-6.636,9.28c-0.516,3.825,1.436,7.953,5.755,12.272C312.685,454.137,344.958,452.073,352.388,433.384"/>
<path style="fill:#FFFFFF;" d="M286.366,399.967c1.903,2.436,2.466,5.402,2.466,8.05c0,1.005-0.087,1.939-0.205,2.806
	c6.171-1.126,11.221-0.262,14.992,2.672c5.873,4.57,6.587,12.518,6.654,15.209c2.411,1.118,7.104,2.777,11.293,1.06
	c3.578-1.466,6.185-5.222,7.776-11.115c-3.288-5.254-21.628-32.823-41.877-29.023l-1.206,0.228
	c-3.011,1.608-5.774,3.563-8.303,5.762C281.658,396.122,284.487,397.563,286.366,399.967"/>
<path style="fill:#FFFFFF;" d="M301.168,455.652c-3.489-4.108-5.333-8.232-5.333-12.315c0-0.651,0.045-1.303,0.134-1.951
	c0.954-6.909,6.751-11.386,9.382-13.088c-0.137-2.387-0.874-7.944-4.763-10.952c-3.061-2.37-7.63-2.745-13.555-1.164
	c-2.906,5.457-17.676,35.112-4.275,50.713l0.364,0.422c3.104,1.996,6.45,3.608,9.97,4.795c-0.678-1.767-1.029-3.462-1.029-5.068
	c0-1.389,0.256-2.715,0.762-3.977C294.428,459.077,298.208,456.853,301.168,455.652"/>
<path style="fill:#FFFFFF;" d="M283.131,413.097c0.65-1.957,1.691-7.17-0.632-10.122c-1.604-2.039-4.765-2.872-9.282-2.58
	c-8.581,10.08-12.674,23.802-9.93,37.787c1.553,7.935,5.136,14.945,10.067,20.659C268.617,439.817,281.521,415.967,283.131,413.097"
	/>
<path style="fill:#FFFFFF;" d="M305.852,459.273c-2.029,0.419-7.088,2.137-8.488,5.635c-0.922,2.308-0.224,5.278,2.05,8.832
	c5.392,0.982,11.048,1.032,16.755-0.087c15.762-3.087,27.944-14.047,33.348-27.973C335.149,458.492,309.049,459.232,305.852,459.273
	"/>
<path style="fill:#FFFFFF;" d="M333.973,416.814c1.378,1.545,5.378,5.04,9.104,4.504c2.584-0.37,4.902-2.647,6.916-6.725
	c-7.276-20.755-28.863-33.591-51.123-29.227c-0.038,0.009-0.074,0.021-0.112,0.028C317.859,390.583,332.301,414.008,333.973,416.814
	"/>
</svg>
