<?xml version="1.0" encoding="iso-8859-1"?>
<!-- Generator: Adobe Illustrator 24.0.1, SVG Export Plug-In . SVG Version: 6.00 Build 0)  -->
<svg version="1.1" id="Calque_1" xmlns="http://www.w3.org/2000/svg" xmlns:xlink="http://www.w3.org/1999/xlink" x="0px" y="0px"
	 viewBox="0 0 595.276 841.89" style="enable-background:new 0 0 595.276 841.89;" xml:space="preserve">
<path d="M63.197,203.792c0.716-0.637,77.887-65.372,235.714-65.356c157.827-0.016,234.998,64.72,235.714,65.356l2.095,1.77v2.742
	c0.03,196.121-58.429,320.05-117.216,394.72c-58.776,74.691-117.633,100.133-118.258,100.405l-2.336,1.006l-2.336-1.006
	c-0.625-0.272-59.481-25.714-118.257-100.405c-58.787-74.67-117.246-198.599-117.217-394.72v-2.742L63.197,203.792z"/>
<path style="fill:#B3B3B3;" d="M89.84,336.771c-2.36,1.329-4.544,2.597-6.534,3.772c-0.151,0.093-0.283,0.181-0.428,0.272
	c18.505,116.45,60.12,197.029,102.04,251.462c20.077,26.058,40.252,46.116,58.034,61.203
	c-48.288-48.531-126.298-148.976-152.06-309.708C90.52,341.462,90.189,339.107,89.84,336.771z"/>
<path style="fill:#333333;" d="M412.902,592.277c41.921-54.434,83.535-135.013,102.041-251.462
	c-0.145-0.091-0.277-0.179-0.429-0.272c-1.989-1.175-4.173-2.443-6.533-3.772c-0.35,2.336-0.68,4.691-1.053,7.001
	c-25.763,160.736-103.775,261.18-152.063,309.71C372.646,638.396,392.824,618.337,412.902,592.277z"/>
<path style="fill:#FFD400;" d="M507.982,336.772c2.218-14.849,4.029-30.163,5.291-46.031c0.497-6.31,0.906-12.711,1.24-19.18
	c1.118-21.526,1.305-43.944,0.41-67.279c-26.707-17.118-97.931-54.026-216.013-54.037c-118.083,0.011-189.306,36.919-216.014,54.037
	c-0.894,23.334-0.707,45.752,0.411,67.279c0.334,6.469,0.743,12.87,1.241,19.18c1.261,15.869,3.072,31.183,5.29,46.031
	c0,0,0.002,0,0.002-0.001c0,0,0,0,0,0.001c33.387-18.819,102.313-51.099,209.07-51.244c106.757,0.145,175.684,32.424,209.071,51.244
	c0-0.001,0-0.001,0-0.001C507.982,336.772,507.982,336.772,507.982,336.772z"/>
<path style="fill:#FFF200;" d="M83.307,271.561c-1.118-21.526-1.304-43.944-0.411-67.279c-4.694,3.009-8.024,5.412-9.98,6.889
	c0.147,47.496,3.755,90.586,9.962,129.643c0.145-0.091,0.276-0.178,0.428-0.272c0.457-0.27,0.926-0.545,1.403-0.825
	c0.613-0.359,1.243-0.725,1.888-1.097c1.04-0.601,2.119-1.217,3.241-1.849c-2.218-14.849-4.028-30.163-5.29-46.031
	C84.05,284.431,83.641,278.03,83.307,271.561z"/>
<path style="fill:#BD9806;" d="M514.943,340.815c6.207-39.058,9.814-82.147,9.961-129.644c-1.955-1.477-5.285-3.88-9.981-6.889
	c0.895,23.334,0.708,45.752-0.41,67.279c-0.334,6.469-0.743,12.87-1.24,19.18c-1.262,15.869-3.073,31.183-5.291,46.031
	c1.383,0.778,2.697,1.532,3.954,2.262c0.471,0.274,0.936,0.544,1.389,0.809c0.401,0.236,0.803,0.471,1.189,0.7
	C514.666,340.637,514.798,340.724,514.943,340.815z"/>
<path style="fill:#FFFFFF;" d="M298.91,285.528c-106.757,0.145-175.684,32.424-209.07,51.244c0.349,2.335,0.68,4.69,1.053,7.001
	c25.762,160.732,103.772,261.176,152.06,309.708c27.342,23.199,49.021,34.638,55.958,38.01L298.91,285.528L298.91,285.528z"/>
<linearGradient id="SVGID_1_" gradientUnits="userSpaceOnUse" x1="-4.2671" y1="844.6507" x2="-1.2911" y2="844.6507" gradientTransform="matrix(-106.6742 -30.6976 -30.6976 106.6742 26103.0879 -89659.4766)">
	<stop  offset="0" style="stop-color:#BCBEC0"/>
	<stop  offset="1" style="stop-color:#000000"/>
</linearGradient>
<path style="fill:url(#SVGID_1_);" d="M298.911,285.528V691.49c6.936-3.372,28.614-14.81,55.955-38.007
	c48.288-48.53,126.301-148.975,152.063-309.71c0.373-2.311,0.703-4.665,1.053-7.001
	C474.594,317.953,405.667,285.673,298.911,285.528z"/>
<path d="M183.096,243.098l1.988-0.982l-1.099-4.037l-12.917,3.892l1.098,4.037l2.182-0.273c2.028-0.307,2.5,1.162,2.779,4.6
	l1.79,18.082l-12.559-25.028l-5.787,1.746l3.438,27.622l-8.567-16.499c-1.498-2.845-1.893-4.026-0.539-4.666l2.056-1.001
	l-1.098-4.037l-15.474,4.662l1.1,4.037l2.18-0.274c1.471-0.213,2.905,1.578,4.097,3.821l17.275,33.26l5.447-1.642l-3.428-27.853
	l12.643,25.074l5.452-1.64l-3.372-34.079C181.279,246.863,181.288,243.947,183.096,243.098z"/>
<path d="M211.649,275.261c-1.784,0.006-2.736-1.973-3.374-5.293l-4.813-24.984c-0.65-3.395-0.234-5.665,1.084-6.247l2.125-0.827
	l-0.793-4.117l-16.534,3.526l0.795,4.119l2.265-0.107c1.425-0.005,2.652,1.915,3.306,5.307l4.812,24.987
	c0.639,3.32,0.493,5.531-1.085,6.245l-2.127,0.828l0.794,4.116l16.602-3.542l-0.793-4.115L211.649,275.261z"/>
<path d="M235.091,234.364c2.98-0.439,4.648,4.148,5.221,8.457l0.544,4.085l4.089-0.6l-2.433-18.315l-29.807,4.385l2.433,18.313
	l4.089-0.6l-0.543-4.089c-0.573-4.305-0.162-9.196,2.821-9.636c2.634-0.388,3.481,3.874,3.849,6.65l3.103,23.349
	c0.446,3.356,0.17,5.553-1.514,6.171l-2.171,0.692l0.555,4.158l16.775-2.465l-0.552-4.161l-2.199-0.046
	c-1.851-0.103-2.686-2.135-3.132-5.492l-3.1-23.352C232.749,239.098,232.457,234.749,235.091,234.364z"/>
<path d="M292.761,256.217l0.137,4.051c0.117,3.534-1.507,5.288-6.401,5.469l-4.616,0.166c-1.118,0.042-2.187-0.508-2.222-1.464
	c-0.036-1.107,0.204-2.366,0.663-3.195l15.945-32.281l-0.139-4.2l-28.257,1.042l0.5,15.02l4.404-0.163l-0.134-3.976
	c-0.118-3.605,1.574-5.363,6.469-5.542l3.29-0.122c1.187-0.046,2.118,0.508,2.149,1.467c0.028,0.882-0.146,1.922-0.737,3.122
	l-15.799,32.428l0.14,4.194l29.516-1.084l-0.501-15.094L292.761,256.217z"/>
<path d="M344.537,230.966l2.185-0.271l0.171-4.194l-13.428-0.607l-0.167,4.193l2.149,0.466c2.017,0.386,2.025,1.937,1.256,5.292
	l-3.74,17.75l-4.391-27.924l-6.015-0.272l-5.042,27.349l-3.164-18.503c-0.569-3.196-0.587-4.454,0.888-4.607l2.255-0.265l0.17-4.196
	l-16.082-0.729l-0.171,4.196l2.15,0.464c1.46,0.29,2.283,2.465,2.741,4.99l6.39,37.308l5.663,0.255l5.12-27.566l4.46,28l5.662,0.257
	l7.044-33.45C341.684,233.935,342.568,231.171,344.537,230.966z"/>
<path d="M371.363,263.731l-4.377-34.47l-6.465-0.819l-11.546,30.076c-2.81,7.285-4.243,9.331-6.046,9.697l-1.588,0.318l-0.477,4.168
	l14.733,1.869l0.478-4.169l-1.75-0.743c-1.46-0.78-2.144-4.052-0.608-8.239l0.808-2.124l8.408,1.063l0.235,2.259
	c0.476,5.699-0.574,7.496-2.447,7.852l-1.868,0.284l-0.478,4.169l17.099,2.165l0.478-4.167l-1.855-1.051
	C372.968,271.281,372.028,269.009,371.363,263.731z M356.867,252.988l4.2-10.821l0.277,0.034l1.016,11.482L356.867,252.988z"/>
<path d="M414.907,273.043c-0.327,1.585-1.083,3.9-2.109,3.668c-1.095-0.247-0.974-2.254-0.479-6.437
	c0.466-4.039,0.136-6.979-1.821-9.304l0.028-0.141c2.909-0.928,5.963-3.628,7.145-9.388c1.515-7.419-1.654-12.958-10.413-14.939
	l-19.291-4.362l-0.841,4.105l2.113,0.855c1.315,0.599,1.708,2.875,1.018,6.259l-5.085,24.921c-0.681,3.314-1.65,5.277-3.368,5.267
	l-2.263-0.138l-0.84,4.108l16.905,3.82l0.834-4.103l-1.526-0.572c-2.406-0.846-2.689-3.322-2.012-6.633l1.94-9.508l6.435,1.452
	c3.145,0.712,3.31,5.497,2.872,9.769c-0.836,9.002,0.59,12.19,5.519,13.303c4.034,0.915,7.162-1.09,9.208-11.103l0.674-3.315
	l-3.965-0.895L414.907,273.043z M409.324,250.23c-0.796,3.891-3.646,5.582-5.902,5.073l-7.186-1.624l1.676-8.212
	c0.708-3.456,1.77-4.122,3.21-3.796l4.857,1.096C408.239,243.281,410.254,245.694,409.324,250.23z"/>
<path d="M430.508,242.196l-5.195,17.663l3.947,1.284l1.156-3.94c1.221-4.152,3.571-8.399,6.444-7.461
	c2.54,0.828,1.589,5.069,0.805,7.743L431.033,280c-0.947,3.238-2.086,5.103-3.855,4.911l-2.245-0.345l-1.18,4.012l16.177,5.27
	l1.18-4.009l-1.969-1.03c-1.638-0.917-1.566-3.13-0.618-6.369l6.626-22.52c0.787-2.673,2.276-6.738,4.816-5.911
	c2.873,0.938,2.53,5.837,1.311,9.99l-1.159,3.939l3.94,1.286l5.196-17.662L430.508,242.196z"/>
<path d="M194.011,188.694c0.151-5.108,0.203-8.075,1.637-8.732l2.1-0.9l-0.916-4.086l-13.145,3.265l0.916,4.087l2.263-0.182
	c1.833-0.155,2.833,1.415,2.637,4.718l-0.749,25.844l-10.23-23.496c-1.234-2.946-1.01-4.517,0.439-5.104l2.098-0.9l-0.915-4.088
	l-16.484,4.097l0.917,4.086l2.262-0.184c1.406-0.122,2.899,1.703,3.921,4.023l14.745,34.333l7.357-1.828L194.011,188.694z"/>
<path d="M204.231,178.206c1.417-0.007,2.766,1.932,3.619,4.327l12.187,35.438l7.47-1.225l3.707-34.763
	c0.526-5.079,0.795-8.036,2.272-8.574l2.16-0.728l-0.613-4.15l-13.349,2.189l0.614,4.149l2.266,0.001
	c1.841-0.002,2.722,1.643,2.288,4.921l-2.64,25.711l-8.48-24.262c-1.015-3.038-0.678-4.587,0.811-5.052l2.159-0.729l-0.614-4.149
	l-16.739,2.746l0.613,4.149H204.231z"/>
<path d="M274.106,212.258c7.125-0.424,12.274-6.342,11.831-14.654c-0.478-8.825-4.745-12.557-14.052-14.877
	c-5.398-1.302-7.986-2.477-8.144-6.676c-0.153-2.868,1.492-6.14,5.406-6.374c3.007-0.179,6.559,2.044,7.911,3.664
	c1.123,1.334,2.071,3.342,2.679,5.519l3.427-0.205l-0.749-13.827l-3.422,0.205c-0.462,0.543-0.989,1.163-1.829,1.213
	c-1.047,0.065-2.115-0.243-3.254-0.54c-1.353-0.366-3.681-0.669-5.846-0.54c-6.918,0.415-12.319,5.605-11.898,13.403
	c0.396,7.356,3.134,11.327,9.576,13.746l5.575,2.029c2.363,0.891,6.163,2.435,6.385,6.63c0.161,2.942-1.865,5.721-4.796,5.895
	c-4.754,0.282-8.379-1.938-10.284-4.775c-1.219-1.772-2.003-3.347-2.46-5.314l-3.495,0.208l0.851,15.816l3.495-0.209
	c0.557-1.362,1.249-2.876,2.365-2.945c1.12-0.064,2.413,0.521,4.063,1.236C269.021,211.602,271.449,212.416,274.106,212.258z"/>
<path d="M304.802,206.882l-1.536-0.394c-1.743-0.471-2.272-2.545-2.221-5.931l0.383-25.489l0.142,0.004l11.708,36.148l8.113,0.135
	l0.541-35.945c0.052-3.461,0.922-5.585,2.4-5.854l2.173-0.33l0.062-4.202l-13.436-0.222l-0.061,4.198l2.232,0.404
	c1.396,0.319,2.201,2.468,2.15,5.931l-0.24,15.988l-0.067-0.005l-8.84-26.595l-15.675-0.262l-0.065,4.198l2.233,0.404
	c1.395,0.317,2.204,2.468,2.15,5.933l-0.38,25.484c-0.052,3.389-0.646,5.516-2.327,5.856l-2.246,0.33l-0.066,4.201l12.809,0.213
	L304.802,206.882z"/>
<path d="M358.912,197.73l-4.393-0.412l-0.3,3.596c-0.385,4.552-1.884,8.181-6.765,7.727c-3.555-0.333-4.42-2.558-4.176-5.49
	l1.015-12.035l6.9,0.643l0.439-5.209l-6.901-0.643l0.804-9.54c0.285-3.378,1.474-5.039,5.033-4.708
	c3.274,0.306,5.823,3.428,5.357,8.93l-0.26,3.084l4.395,0.409l1.346-15.997l-27.397-2.553l-0.353,4.179l2.199,0.575
	c1.373,0.423,2.029,2.632,1.738,6.08l-2.134,25.388c-0.286,3.376-1.028,5.525-2.725,5.661l-2.26,0.161l-0.357,4.181l27.398,2.557
	L358.912,197.73z"/>
<path d="M392.93,203.182l-4.355-0.74l-0.544,3.565c-0.692,4.509-2.437,8.018-7.274,7.198c-3.521-0.598-4.237-2.883-3.792-5.792
	l1.83-11.93l6.843,1.162l0.787-5.165l-6.841-1.16l1.448-9.458c0.517-3.346,1.817-4.916,5.347-4.318
	c3.247,0.553,5.573,3.859,4.736,9.315l-0.464,3.055l4.349,0.74l2.429-15.858l-27.153-4.613l-0.635,4.149l2.156,0.737
	c1.338,0.527,1.842,2.778,1.319,6.194l-3.857,25.169c-0.512,3.345-1.397,5.434-3.103,5.443l-2.269-0.01l-0.633,4.147l27.158,4.609
	L392.93,203.182z"/>
<path d="M396.081,220.578l16.431,4.338l0.966-4.073l-2.084-0.934c-1.609-0.804-1.666-3.021-0.875-6.306l0.85-3.574l3.871-3.23
	l3.06,10.456c0.36,1.232,0.508,2.412,0.342,3.126c-0.189,0.786-0.728,1.249-1.307,1.249l-1.546-0.179l-0.972,4.072l17.377,4.59
	l0.97-4.075l-2.355-1.002c-1.699-0.751-2.886-3.646-3.868-7.098l-4.823-16.69l11.21-9.191c2.516-2.071,4.299-3.5,5.281-3.393
	l2.326,0.234l0.969-4.07l-16.358-4.322l-0.969,4.073l1.509,0.626c0.85,0.376,1.631,1.039,1.528,1.467
	c-0.088,0.357-0.478,0.786-0.818,0.999l-11.328,9.39c-0.29,0.304-0.782,0.554-1.123,0.462l2.065-8.645
	c0.797-3.356,2.106-5.215,3.53-5.141l2.26,0.217l0.97-4.076l-16.357-4.317l-0.973,4.071l2.084,0.931
	c1.292,0.645,1.613,2.931,0.813,6.29l-5.89,24.722c-0.785,3.289-1.823,5.217-3.536,5.145l-2.26-0.217L396.081,220.578z"/>
<path d="M291.3,360.432l1.085-4.297c2.145-0.035,4.49-0.75,6.525-1.581v-2.452c-1.063-0.013-2.031-0.06-2.84-0.135
	c0.925-0.166,1.881-0.438,2.84-0.752v-6.756l-0.138-0.009l0.138-0.003v-6.707l-0.423,0.007c0.143,0,0.283-0.011,0.423-0.02v-20.59
	c-6.168,1.364-14.013,0.207-14.013,0.207l3.035-3.995c-11.452,0.213-19.92,3.71-19.92,3.71l-1.036-2.568
	c0,0-2.538,3.138-9.195,6.563c-4.741,2.438-2.795,7.332-1.28,9.952l-3.693-3.958l2.747,6.706c0,0,0.737,7.325,3.238,9.614
	c0.108,0.541,0.227,1.092,0.355,1.656l4.488,16.265c0,0-21.292-5.424-38.646,5.135c0,0-19.516,9.703-19.721,17.977
	c0,0-1.773,26.253,14.558,44.227c2.692,2.967,0.479,12.558,0.856,13.7c0,0-0.442,13.695,10.279,14.55c0,0,6.512,0.289,10.351-10.554
	c0,0,0.349-1.781-0.861-4.569c0.539-1.19,0.749-3.186-1.957-5.42c-2.233-1.846-4.521-2.949-5.635-3.428
	c-1.78-2.662-3.788-7.372-5.104-15.693c0,0-3.934-19.891-1.401-24.253c0.666-1.14,9.944-1.715,14.269-0.001
	c0,0,2.937,0.859,5.111,27.682c0,0,3.986,34.523,9.66,39.377c0,0,2.311,38.521,6.858,50.221l5.868,19.686l3.919,0.291
	c0,0,12.171,28.247,23.813,30.528c0,0,1.163,0.448,3.057-0.694V361.582C296.399,361.191,293.835,360.828,291.3,360.432z"/>
<path d="M246.408,612.479c7.306-4.192,12.388-11.835,13.008-20.693c0.042-0.602,0.063-1.214,0.065-1.824
	c-0.004-13.69-10.659-24.933-24.122-25.877c-0.604-0.042-1.215-0.062-1.829-0.061c-13.686,0.002-24.929,10.653-25.873,24.104
	c-0.043,0.605-0.062,1.215-0.063,1.83c-0.001,13.697,10.653,24.944,24.11,25.886c0.603,0.042,1.212,0.062,1.823,0.063
	c0.003,0,0.006,0,0.01,0l65.372-0.001v-3.427L246.408,612.479z"/>
<path style="fill:#FFFFFF;" d="M299.567,344.431c7.938-0.24,13.163-6.9,13.163-6.9l-13.163,0.197l-0.657,0.011v6.707
	L299.567,344.431z"/>
<path style="fill:#FFFFFF;" d="M299.565,337.67c7.427-0.773,12.904-9.198,12.904-9.198c-3.094,1.847-7.669,2.663-10.722,3.016
	c5.256-3.64,7.37-11.861,7.37-11.861c-0.562,1.936-5.22,4.111-8.44,5.408l3.181-9.976c-1.153,0.892-2.65,1.511-4.294,1.929
	c-0.214,0.055-0.436,0.099-0.655,0.147v20.59C299.132,337.71,299.35,337.69,299.565,337.67z"/>
<path style="fill:#FFFFFF;" d="M388.04,612.479h-6.583c-0.397-2.692-1.686-7.504-5.897-9.505c0,0,1.966-6.279-5.439-10.271
	c0,0,0.398-42.519-9.641-65.059l-6.5-20.831l0.977-3.14c0,0-4.567-19.688-34.232-49.078c0,0,5.768-7.135,15.54-13.126
	c0,0,14.036-7.419,7.186-18.834c0,0-10.417-21.115-11.107-27.965c0,0-2.913-17.264-16.174-27.612
	c-3.829-2.989-9.98-4.325-16.603-5.377c-0.216-0.034-0.438-0.066-0.655-0.1v198.466c0.212-0.127,0.428-0.269,0.657-0.438
	c1.683-1.25,3.827-3.723,6.203-8.568c0,0,14.684,17.118,18.664,17.974c0,0,10.806,1.717,2.776-16.262l-11.892-20.259
	c0,0-5.35-14.558-10.452-16.266c-2.842-0.951-3.693-0.578-3.897-0.063l-1.404-13.997l-0.248-2.486l0.248,0.204l31.982,26.328
	c0,0,11.746,13.698,12.321,21.973c0,0,0.706,19.977,7.07,29.102c0,0,8.633,21.405,5.717,28.538c0,0-0.247,3.883,0.007,6.654
	l-57.753-0.002v3.427l89.129-0.002V612.479z M312.092,404.8l10.495,19.261l-9.428,10.703L312.092,404.8z"/>
<path style="fill:#FFFFFF;" d="M299.568,354.279v-0.001c2.646-1.151,4.617-2.409,4.617-2.409c-1.632,0.168-3.201,0.235-4.618,0.238
	c-0.225,0.001-0.44-0.003-0.657-0.005v2.452C299.133,354.463,299.354,354.371,299.568,354.279z"/>
<path style="fill:#FFFFFF;" d="M299.566,351.007c5.65-1.982,11.216-5.771,11.216-5.771l-11.217-0.733l-0.655-0.044v6.756
	C299.13,351.143,299.348,351.084,299.566,351.007z"/>
<path style="fill-rule:evenodd;clip-rule:evenodd;fill:#FFFFFF;" d="M253.439,577.203c0.155,1.488,0.07,2.909-0.053,4.254
	c1.318,3.291,2.43,6.494,2.434,9.564c0.435,0.819,0.797,1.634,1.1,2.503c0.178-1.165,0.273-2.354,0.27-3.567
	C257.191,585.262,255.809,580.891,253.439,577.203"/>
<path style="fill-rule:evenodd;clip-rule:evenodd;fill:#FFFFFF;" d="M248.339,605.637c-2.319,2.313-5.31,4.134-8.305,5.055
	c-0.685,1.153-1.3,1.896-2.074,2.503c5.393-1.025,10.139-3.886,13.568-7.902C250.442,605.517,249.375,605.635,248.339,605.637"/>
<path style="fill-rule:evenodd;clip-rule:evenodd;fill:#FFFFFF;" d="M223.191,608.544c-3.263-1.271-6.01-3.702-7.97-7.061
	c-1.083-0.428-2.171-1.043-3.245-1.808c2.507,5.541,7.077,9.942,12.725,12.225C224.034,610.9,223.456,609.743,223.191,608.544"/>
<path style="fill-rule:evenodd;clip-rule:evenodd;fill:#FFFFFF;" d="M231.867,568.583c0.374,0.168,0.756,0.335,1.144,0.501
	c3.051,0.114,5.751,0.499,8.339,1.201c1.486-0.324,3.24-0.374,5.07-0.141c-3.711-2.417-8.137-3.834-12.891-3.835
	c-1.998,0.001-3.937,0.256-5.792,0.725C229.221,567.401,230.515,567.975,231.867,568.583"/>
<path style="fill:#FFFFFF;" d="M218.036,592.013c2.509-0.806,5.295-1.258,6.817-1.46c0.355-1.183,1.222-3.134,2.124-4.945
	c0.506-1.01,1.017-1.957,1.452-2.665c0.215-0.355,0.415-0.647,0.598-0.873l0.124-0.131c-1.238-1.954-2.396-4.251-3.185-6.321
	c-2.193-0.116-4.548,0.273-7.343,1.251l-0.352,0.616v0.002c-1.638,2.855-3.146,5.5-4.028,8.789c0.266,2.103,1.53,3.404,2.916,4.802
	l-0.001,0.004C217.465,591.392,217.752,591.701,218.036,592.013z"/>
<path style="fill:#FFFFFF;" d="M232.611,581.415c1.414,0.099,3.142,0.303,4.642,0.543c1.238,0.207,2.272,0.409,2.96,0.649
	c1.381-1.441,2.974-3.167,4.23-4.736c-0.915-2.362-2.041-4.694-3.817-6.522c-1.943-0.499-3.965-0.821-6.181-0.977
	c-0.482-0.034-0.976-0.058-1.477-0.076c-2.225,0.96-3.981,2.446-5.388,4.57c0.787,2.098,2.027,4.538,3.3,6.487
	C231.36,581.345,231.947,581.368,232.611,581.415z"/>
<path style="fill:#FFFFFF;" d="M242.667,594.625l-0.229,0.214c-0.909,0.67-2.641,1.667-4.367,2.571
	c-1.528,0.789-2.994,1.487-3.933,1.801l-1.388,6.829c2.146,1.388,4.542,3.06,6.89,3.518c2.818-0.862,5.661-2.596,7.854-4.785
	c0.9-1.921,1.426-3.859,1.552-5.651c0.037-0.52,0.031-1.023,0.001-1.516C247.107,596.844,245.025,595.874,242.667,594.625z"/>
<path style="fill:#FFFFFF;" d="M230.97,598.035c-1.152-0.924-2.605-2.225-3.81-3.391c-0.604-0.584-1.144-1.13-1.553-1.589
	c-0.249-0.289-0.44-0.509-0.589-0.725c-1.54,0.209-4.364,0.677-6.732,1.477c-0.814,1.866-1.622,4.131-1.792,6.559
	c-0.02,0.277-0.026,0.556-0.029,0.835c1.864,3.043,4.411,5.216,7.404,6.317l0.165,0.062c2.832-0.146,5.053-0.942,6.961-1.872
	l1.355-6.661C231.969,598.815,231.523,598.475,230.97,598.035z"/>
<path style="fill:#FFFFFF;" d="M245.787,579.049c-1.297,1.605-2.887,3.335-4.274,4.775c0.168,0.396,0.33,0.906,0.502,1.521
	c0.351,1.262,0.707,2.904,0.965,4.407c0.224,1.292,0.371,2.429,0.381,3.223c2.354,1.25,4.411,2.214,6.314,2.963
	c2.242-1.635,3.738-3.234,4.925-5.246c-0.072-2.778-1.13-5.806-2.399-8.949C250.145,580.022,247.97,579.432,245.787,579.049z"/>
<path style="fill-rule:evenodd;clip-rule:evenodd;fill:#FFFFFF;" d="M213.057,586.021c0.926-3.478,2.499-6.23,4.164-9.134
	l0.514-0.908c-0.141-1.083-0.145-2.247-0.008-3.595c-4.813,4.329-7.845,10.604-7.848,17.575c0,0.312,0.013,0.619,0.025,0.932
	C210.991,588.51,211.551,587.739,213.057,586.021"/>
</svg>
