<svg xmlns="http://www.w3.org/2000/svg" xml:space="preserve" viewBox="0 0 612 792"><path d="M586.465 407.323c-1.123.426-2.635 2.68-3.771 2.295 1.439-3.842 2.091-10.344 3.615-13.863.864-1.548 3.044-5.126 4.19-7.471-2.268.15-6.121 2.774-6.988 4.343-.844 1.18-2.26 3.21-3.756 4.831 4.346-10.27 9.354-24.66 9.132-37.834.081-3.094.043-6.194-.122-9.285-1.861 1-3.634 3.307-4.848 5.226-3.71-9.227-4.534-18.403-3.287-28.858-2.282 2.322-2.215 2.555-3.115 4.454-1.078 2.527-2.703 7.016-3.852 10.662-.107-7.333-.155-11.933-.107-22.937-.361-5.434-.829-7.495-3.954-14.518-1.483 2.441-1.653 5.519-2.396 8.287-.643-4.783-.819-11.021-4.275-16.76-2.389-3.056-9.177-6.051-14.349-.788-1.443 1.565-1.025 4.511 1.3 3.178 7.527 5.036 7.514 14.668 6.985 22.713-1.713-.136-6.343-4.345-5.93-.008 6.742 4.445 12.185 14.808 15.637 21.981.813 1.601 1.761 4.87 2.552 8.308-2.661-5.686-8.983-13.491-15.807-15.504a.595.595 0 0 0-.248.79c5.71 5.85 9.03 11.926 11.147 18.002-2.268-1.028-7.602-8.966-11.026-6.989 6.301 4.183 6.628 9.359 8.637 13.914 1.848 5.513 5.211 16.197 8.293 25.191.59 1.841 1.123 3.649 1.429 4.672.65 2.199.614 2.176.332 3.066a4642 4642 0 0 1-8.376-17.547c-1.164-2.468-2.064-4.375-2.545-5.402-1.156-2.484-.812-1.694-1.571-2.767-.229-.271-.371-.294-.56-.331.404 7.698 1.143 13.306 2.545 18.111 1.092 3.567 3.194 8.952 4.577 13.737 1.176 3.34 1.204 6.963 1.049 11.678-2.005-6.333-4.219-14.086-9.817-21.04-.929-1.409-1.294-1.385-1.954-1.32.393 1.676.913 3.326 1.156 4.996.337 1.114.108 6.046.067 11.509-.033 3.702-.026 7.798-.026 10.123-.022 4.24-.007 3.582.148 5.07-.218 5.132 6.871 11.153 4.678 15.631-.337 1.097-1.462 3.466-2.614 5.79-4.202 2.486-6.519 6.544-11.102 3.053-3.054-2.732-4.04-4.621-5.295-6.743-2.146-3.417-4.262-8.578-10.151-12.894-5.693-2.689-15.18-12.349-18.516-19.164-2.768-5.165-4.149-8.282-5.058-15.556 2.322-1.087 4.74-4.784 7.185-.686 4.549 5.06 6.178 5.714 11.656 6.86-1.004-2.492-5.459-5.248-6.133-8.933-1.111-4.526-2.038-9.479-1.794-14.588 1.428 3.747 4.283 15.702 11.303 15.94 1.388.043 3.603 1.688 5.012.897-9.688-4.311-8.328-9.504-10.108-15.214a36.4 36.4 0 0 1-.487-7.478c2.519 4.465 4.745 11.261 10.737 14.379.846.433 2.936-.268.527-1.905-2.482-2.821-3.999-5.542-4.121-7.766-.15-1.832-1.667-5.165-.97-7.499 3.142 2.589 6.494 6.06 11.719 8.237.75.113 1.441-.049 2.377-.221-3.02-2.607-6.785-5.095-8.24-7.75-1.015-1.747-3.526-4.329-3.987-7.021 4.157 1.975 9.416 8.154 14.232 7.723a112 112 0 0 1-8.821-8.389c-2.75-2.942-5.046-5.49-5.588-7.125 3.44 1.179 7.137 3.123 10.163 4.141 1.217.234 4.284 1.982 4.479.524-1.584-1.428-5.948-5.47-9.489-7.648-.155-.08-2.864-3.074-5.327-5.813 3.193.333 2.47.697 5.246 2.085 1.245.701 2.836 1.589 3.688 2.064 2.119 1.181 1.721.866 2.614 1.037.251-.003.499-.057.757-.198-5.616-5.879-9.585-6.173-13.979-11.936 4.896 1.686 10.863 6.898 16.086 6.334-5.013-2.495-11.592-9.353-16.525-16.212-1.049-1.44-3.142-3.091-4.169-5.044 6.1 1.137 9.915 9.611 18.012 14.947.649.272 1.287.669 2.207.542-6.579-8.238-6.817-14.075-18.121-23.408 2.938-.439 7.898 2.51 9.755 5.319 2.795 2.683 7.805 9.343 10.925 8.866-5.301-7.237-14.676-21.243-24.727-23.714a9.04 9.04 0 0 1 4.874.218c.182.045.363.074 2.036.947 1.667.865 4.821 2.567 6.548 3.502 3.749 2.032 2.375 1.279 4.026 2.011.767.286 1.003.183 1.524-.202-6.616-5.925-12.612-10.663-19.936-13.767a13 13 0 0 0-3.535-.796c5.774.158 11.088.832 18.212 5.819-1.262-4.371-11.565-12.042-15.465-11.718-1.703-.154-3.933-.135-5.93-.034 1.151-3.106 4.869-3.424 7.265-3.194 4.819-.369 6.864 2.169 10.143 2.223-1.795-1.995-7.901-5.824-9.616-5.807-2.638.264-7.824-1.898-13.788 2.652-3.282-4.531.404-8.082-.834-12.821-1.727 3.184-5.657 8.474-8.865 8.474-.936-3.855.816-4.555 1.264-10.462-4.184.054-8.733 7.432-9.246 11.406-1.267-.186-4.081-2.346-4.232-2.087-1.326-.69-7.189.37-8.089-4.14a32 32 0 0 1-.806-3.111c-2.688 3.059-1.51 6.322-2.418 9.616-1.698.153-3.242-.876-5.036-1.94-.521-.209-2.539-2.046-4.516-3.981-.547 3.692 3.637 7.655 9.017 9.892l-.019.112c-4.917.135-8.537-.143-13.377-4.472-1.214 2.762 3.201 6.113 5.34 8.399-1.443 1.368-2.984 3.326-4.169 5.415a73 73 0 0 1-3.006 4.464c-1.402 1.932-3.397 4.542-4.468 5.951-2.289 3.031-1.632 2.057-2.511 2.904-2.098 1.808-8.61 7.417-12.213 12.748-2.578 3.666-1.558 6.592-.013 9.728.444 1.941 2.659 5.188 5.07 3.148 1.913-1.3 2.435-2.496 5.889-5.82 1.09-.71 2.205-1.085 3.343-.866-.695 3.951-6.524 6.317-5.381 10.04 3.176 3.087 7.609-.062 9.518-3.89a25.6 25.6 0 0 1 3.541-3.631c5.036.371 10.146-.273 15.311-2.259-1.495 4.872-6.777 7.272-12.693 10.893-5.11 3.177-9.124 3.289-14.499 9.905-4.482 4.587-5.931 9.854-11.819 14.877-7.738-2.199-13.783-4.756-20.573-11.175-.886-.847-1.746-1.727-4.245-4.664-2.497-2.937-6.632-7.935-10.708-12.977-4.468.877-8.278-2.186-12.063-2.947-2.853.03-7.617 2.599-8.775 5.801.686 1.114 1.949 2.313 2.953 2.9 2.828 1.895 3.053 4.183 6.694 6.51 1.517-.281 3.939-2.839 5.55 1.377.339.751.563 1.538.671 2.321 2.304-.596 7.307 2.206 5.878 4.263-1.24 5.23 8.771 9.846 12.609 16.586 2.606 3.778 5.342 7.379 5.978 12.262-5.624 1.958-8.455 2.891-17.003 4.994-2.127.768-6.42 5.317-8.498 9.224-.371 1.527.263 6.138.41 11.41.246 7.515.431 13.298.01 18.81-.195 2.375-.554 3.953-.583 5.7-.236.984.561 7.618 1.45 13.988 6.012 5.967 4.767 10.947 10.262 15.112a105 105 0 0 0 6.797 6.387c4.508-1.013 8.665-13.291 8.28-19.682-3.583-2.147-9.473.075-11.807-5.832 1.285-1.418 5.318-.585 4.124-4.275-6.575-9.178-5.356-16.818-5.221-28.474.033-4.31 5.307-8.595 9.105-8.113 3.444.553 9.116-3.517 11.468 4.117 3.7 7.721 11.336 16.928 20.348 23.527 4.353 3.724 9.722 7.064 14.426 11.435a45 45 0 0 1 1.605 3.676c-2.566.023-5.14.033-7.026.029-7.122-.161-6.08.167-11.32 2.271-6.668 3.082-5.848 9.303-6.701 13.196.994 6.643 3.947 14.733 9.7 24.129 1.617 3.926 1.214 6.33 1.173 10.035-3.075 2.271-6.19 4.495-8.341 5.967-5.97 3.811-7.859 5.508-11.637 7.693-2.215 1.382-4.907 3.897-7.474 6.239-1.472 1.725-5.672-.211-8.739 6.468-1.72 2.915-3.391 5.74-8.042 7.656-3.515 2.572-7.101 7.524-10.356 11.739-1.498 2.064-2.96 4.324-4.509 6.462h-70.852c37.672-8.466 65.822-42.095 65.822-82.321V349.375c.094-.419.206-.608.352-.771-1.845-2.34-4.253-5.962-7.712-8.529-4.073-1.738-7.583 3.442-10.374 8.555h-3.763a6.7 6.7 0 0 0 1.25-2.227c.97-2.944-.31-6.012-2.877-6.782q-.165-.048-.327-.095c3.213-.262 5.976-2.427 6.642-5.564.528-2.49-.392-4.966-2.207-6.657.177.02.354.043.53.043 1.913 0 3.7-1.154 4.374-3.04.743-2.078-.189-4.389-2.122-5.53 4.654-1.369 11.241-7.978 12.94-14.186a6.1 6.1 0 0 0 2.35.926q.496.08.984.08c3.169 0 5.996-2.46 6.552-5.894.6-3.703-1.666-7.155-5.083-7.846.767-1.41 1.608-3.153 2.508-5.345 0 0 1.724 1.666 3.854 1.666a5.07 5.07 0 0 0 5.075-5.075c0-5.457-6.13-9.872-11.648-9.872-3.673 0-8.94 3.56-8.389 5.372.013 1.28.351 3.672-.935 3.682-3.398-2.473-4.794-5.311-9.787-5.475-6.194 0-11.206 6.066-11.206 13.564 0 7.562 5.241 14.986 13.561 13.68 0 0-3.35 5.156-9.69 5.156-5.008 0-10.557-7.54-9.53-19.352 2.42-1.564 4.023-4.26 4.023-7.33 0-4.836-3.97-8.757-8.866-8.757-4.897 0-8.866 3.92-8.866 8.757 0 2.551 1.111 4.839 2.873 6.44-2.446 5.153-8.997 13.283-15.985 13.283-7.759 0-13.109-6.077-13.924-10.391 0 0 4.34 4.749 9.703 4.749 8.009 0 13.192-6.761 13.192-14.092 0-8.036-4.551-14.998-14.194-14.538 5.417-8.629-7.255-16.388-17.674-16.388s-23.092 7.759-17.673 16.388c-9.645-.46-14.195 6.502-14.195 14.538 0 7.332 5.185 14.092 13.192 14.092 5.363 0 9.705-4.749 9.705-4.749-.815 4.314-6.165 10.391-13.925 10.391-6.988 0-13.538-8.131-15.985-13.284 1.762-1.601 2.872-3.889 2.872-6.439 0-4.836-3.968-8.757-8.865-8.757s-8.866 3.92-8.866 8.757c0 3.07 1.602 5.766 4.023 7.33 1.026 11.813-4.524 19.352-9.531 19.352-6.339 0-9.689-5.156-9.689-5.156 8.319 1.306 13.561-6.118 13.561-13.68 0-7.498-5.012-13.564-11.206-13.564-4.995.164-6.389 3.001-9.787 5.475-1.286-.01-.947-2.402-.936-3.682.551-1.811-4.715-5.372-8.388-5.372-5.519 0-11.649 4.415-11.649 9.872a5.07 5.07 0 0 0 5.076 5.075c2.13 0 3.855-1.666 3.855-1.666.899 2.192 1.74 3.936 2.507 5.345-3.417.691-5.684 4.143-5.084 7.846.557 3.435 3.384 5.894 6.552 5.894q.488 0 .985-.08a6.1 6.1 0 0 0 2.35-.926c1.699 6.207 8.285 12.816 12.939 14.186-1.933 1.141-2.866 3.452-2.122 5.53.674 1.886 2.461 3.04 4.374 3.04.177 0 .354-.024.53-.043-1.815 1.691-2.735 4.167-2.208 6.657.667 3.137 3.428 5.302 6.643 5.564q-.164.047-.329.095c-2.566.77-3.846 3.837-2.876 6.782a6.7 6.7 0 0 0 1.249 2.227h-3.763c-2.79-5.113-6.3-10.293-10.374-8.555-3.46 2.567-5.868 6.189-7.711 8.529.145.163.257.352.35.771v115.494c0 40.227 28.151 73.855 65.823 82.321h-70.852c-1.547-2.138-3.009-4.398-4.507-6.462-3.256-4.215-6.842-9.167-10.356-11.739-4.652-1.916-6.322-4.741-8.042-7.656-3.067-6.679-7.269-4.743-8.739-6.468-2.566-2.342-5.26-4.857-7.473-6.239-3.779-2.186-5.667-3.883-11.639-7.693-2.15-1.472-5.266-3.696-8.339-5.967-.041-3.705-.446-6.109 1.172-10.035 5.753-9.396 8.706-17.486 9.701-24.129-.853-3.893-.034-10.114-6.703-13.196-5.24-2.104-4.198-2.433-11.319-2.271a676 676 0 0 1-7.026-.029 45 45 0 0 1 1.604-3.676c4.705-4.371 10.072-7.711 14.425-11.435 9.012-6.6 16.648-15.807 20.35-23.527 2.35-7.634 8.021-3.564 11.468-4.117 3.799-.482 9.071 3.804 9.105 8.113.136 11.655 1.355 19.296-5.22 28.474-1.196 3.69 2.837 2.857 4.124 4.275-2.335 5.907-8.225 3.685-11.807 5.832-.385 6.391 3.771 18.669 8.281 19.682a106 106 0 0 0 6.797-6.387c5.495-4.165 4.251-9.146 10.26-15.112.889-6.37 1.686-13.004 1.45-13.988-.027-1.747-.387-3.325-.583-5.7-.419-5.512-.235-11.295.01-18.81.148-5.272.782-9.883.411-11.41-2.079-3.906-6.371-8.455-8.497-9.224-8.55-2.103-11.379-3.036-17.005-4.994.637-4.882 3.373-8.483 5.978-12.262 3.839-6.74 13.851-11.355 12.611-16.586-1.429-2.058 3.574-4.859 5.877-4.263a8.5 8.5 0 0 1 .671-2.321c1.611-4.216 4.034-1.658 5.551-1.377 3.641-2.327 3.865-4.614 6.694-6.51 1.002-.587 2.268-1.786 2.952-2.9-1.158-3.202-5.923-5.771-8.774-5.801-3.784.761-7.595 3.824-12.063 2.947-4.076 5.043-8.211 10.04-10.709 12.977s-3.358 3.817-4.244 4.664c-6.791 6.418-12.835 8.976-20.574 11.175-5.888-5.022-7.337-10.29-11.819-14.877-5.374-6.615-9.388-6.728-14.499-9.905-5.915-3.621-11.198-6.021-12.693-10.893 5.167 1.986 10.277 2.63 15.313 2.259a25.6 25.6 0 0 1 3.541 3.631c1.908 3.829 6.343 6.978 9.518 3.89 1.143-3.723-4.686-6.089-5.381-10.04 1.137-.219 2.254.156 3.343.866 3.454 3.324 3.975 4.52 5.889 5.82 2.41 2.04 4.624-1.206 5.07-3.148 1.545-3.136 2.566-6.062-.013-9.728-3.602-5.331-10.114-10.939-12.212-12.748-.879-.847-.222.128-2.512-2.904-1.069-1.41-3.065-4.02-4.467-5.951a72 72 0 0 1-3.004-4.464c-1.185-2.089-2.727-4.046-4.17-5.415 2.138-2.286 6.553-5.637 5.341-8.399-4.84 4.329-8.461 4.606-13.378 4.472l-.019-.112c5.381-2.237 9.565-6.2 9.017-9.892-1.976 1.935-3.995 3.772-4.516 3.981-1.794 1.064-3.337 2.093-5.036 1.94-.908-3.294.271-6.557-2.417-9.616a32 32 0 0 1-.805 3.111c-.901 4.51-6.764 3.449-8.089 4.14-.151-.259-2.966 1.902-4.231 2.087-.515-3.974-5.063-11.353-9.247-11.406.447 5.907 2.2 6.606 1.265 10.462-3.208 0-7.14-5.29-8.867-8.474-1.238 4.739 2.45 8.29-.834 12.821-5.963-4.55-11.15-2.388-13.788-2.652-1.714-.018-7.821 3.812-9.615 5.807 3.278-.054 5.322-2.591 10.141-2.223 2.397-.23 6.114.088 7.265 3.194-1.998-.102-4.225-.12-5.93.034-3.899-.324-14.204 7.347-15.464 11.718 7.123-4.986 12.437-5.661 18.212-5.819-1.193.106-2.39.356-3.537.796-7.321 3.104-13.319 7.842-19.934 13.767.521.384.757.488 1.523.202 1.651-.731.277.021 4.027-2.011 1.728-.935 4.881-2.637 6.547-3.502 1.672-.872 1.855-.902 2.037-.947a9.05 9.05 0 0 1 4.874-.218c-10.051 2.471-19.427 16.477-24.728 23.714 3.12.477 8.129-6.184 10.926-8.866 1.855-2.809 6.816-5.758 9.753-5.319-11.304 9.333-11.542 15.169-18.12 23.408.918.127 1.556-.27 2.206-.542 8.097-5.336 11.914-13.81 18.013-14.947-1.027 1.953-3.12 3.604-4.169 5.044-4.935 6.86-11.514 13.717-16.525 16.212 5.221.564 11.19-4.648 16.085-6.334-4.394 5.764-8.361 6.058-13.979 11.936.258.141.506.195.759.198.892-.171.493.145 2.613-1.037.853-.475 2.443-1.363 3.689-2.064 2.775-1.387 2.051-1.752 5.246-2.085-2.464 2.739-5.172 5.733-5.328 5.813-3.541 2.179-7.907 6.22-9.491 7.648.196 1.458 3.263-.29 4.479-.524 3.028-1.018 6.724-2.962 10.163-4.141-.542 1.635-2.837 4.183-5.587 7.125a112 112 0 0 1-8.82 8.389c4.815.431 10.075-5.748 14.23-7.723-.46 2.692-2.971 5.274-3.987 7.021-1.455 2.655-5.219 5.143-8.239 7.75.937.171 1.625.333 2.377.221 5.225-2.177 8.576-5.648 11.717-8.237.698 2.333-.818 5.667-.969 7.499-.122 2.224-1.639 4.945-4.122 7.766-2.408 1.637-.318 2.338.528 1.905 5.992-3.118 8.219-9.915 10.738-14.379a36.5 36.5 0 0 1-.487 7.478c-1.78 5.71-.422 10.903-10.108 15.214 1.409.792 3.623-.854 5.011-.897 7.019-.238 9.875-12.192 11.304-15.94.244 5.109-.685 10.062-1.794 14.588-.675 3.685-5.13 6.441-6.133 8.933 5.477-1.146 7.108-1.8 11.657-6.86 2.444-4.098 4.86-.401 7.183.686-.907 7.273-2.288 10.391-5.057 15.556-3.337 6.815-12.822 16.475-18.516 19.164-5.889 4.315-8.007 9.477-10.152 12.894-1.254 2.122-2.24 4.011-5.294 6.743-4.583 3.491-6.898-.566-11.102-3.053-1.152-2.324-2.276-4.693-2.614-5.79-2.193-4.478 4.895-10.499 4.679-15.631.155-1.488.168-.83.147-5.07 0-2.325.008-6.421-.026-10.123-.041-5.463-.27-10.395.068-11.509.244-1.67.763-3.319 1.156-4.996-.661-.065-1.026-.088-1.954 1.32-5.598 6.954-7.813 14.707-9.817 21.04-.155-4.715-.128-8.338 1.049-11.678 1.382-4.785 3.486-10.17 4.576-13.737 1.402-4.805 2.141-10.414 2.546-18.111-.19.037-.331.06-.561.331-.76 1.073-.414.283-1.572 2.767-.48 1.026-1.38 2.934-2.544 5.402a4723 4723 0 0 1-8.375 17.547c-.283-.891-.319-.867.332-3.066.305-1.022.838-2.831 1.429-4.672 3.081-8.994 6.444-19.678 8.292-25.191 2.01-4.555 2.336-9.731 8.638-13.914-3.425-1.977-8.76 5.961-11.027 6.989 2.118-6.076 5.438-12.152 11.149-18.002a.596.596 0 0 0-.25-.79c-6.823 2.014-13.145 9.819-15.805 15.504.79-3.439 1.739-6.707 2.55-8.308 3.453-7.173 8.896-17.536 15.637-21.981.415-4.337-4.217-.127-5.93.008-.527-8.044-.541-17.677 6.987-22.713 2.323 1.333 2.741-1.613 1.298-3.178-5.171-5.264-11.96-2.268-14.349.788-3.454 5.739-3.63 11.977-4.273 16.76-.744-2.768-.913-5.846-2.397-8.287-3.125 7.023-3.593 9.084-3.953 14.518.046 11.004 0 15.604-.109 22.937-1.149-3.646-2.774-8.135-3.851-10.662-.9-1.899-.833-2.132-3.114-4.454 1.246 10.455.421 19.631-3.288 28.858-1.214-1.919-2.985-4.226-4.848-5.226-.164 3.09-.203 6.191-.122 9.285-.222 13.174 4.787 27.564 9.132 37.834-1.497-1.622-2.912-3.651-3.757-4.831-.866-1.568-4.72-4.192-6.987-4.343 1.146 2.346 3.324 5.923 4.19 7.471 1.523 3.519 2.175 10.021 3.614 13.863-1.135.385-2.646-1.869-3.769-2.295-2.194-2.174-1.511 1.573-1.112 2.548 1.532 4.155 4.131 8.965 6.243 12.639-3.574.228-6.661 4.804-5.509 8.311 2.428-2.647 4.994-1.987 7.148-.867 5.313 4.489 6.565 7.509 10.067 12.887 2.559 4.238 5.103 7.308 9.349 10.556 4.949 3.93 12.793 1.913 16.07 3.067 1.828 5.917 1.748 9.562 7.148 15.694 9.253 11.212 22.746 19.034 18.988 28.088 4.056 2.518.706 5.939-1.069 5.217-4.623 6.075-9.26 11.914-14.256 15.089l-1.686 7.433c4.99 6.86 5.91 11.197 7.745 18.091.683 3.983.982 5.652.534 12.474a605 605 0 0 1-.853 11.329c2.708 1.455 4.638 1.267 6.985.24 1.413 3.427 2.662 6.18 1.423 7.496l-13.804-.009c-1.586 0-2.688.083-3.581.65-1.75 1.108-4.895 5.536-4.895 11.919 0 5.637.657 7.492 3.61 7.492h460.84c2.953 0 3.61-1.856 3.61-7.492 0-6.383-3.145-10.811-4.896-11.919-.894-.567-1.995-.65-3.581-.65l-13.805.009c-1.237-1.316.01-4.069 1.424-7.496 2.347 1.026 4.276 1.215 6.986-.24a589 589 0 0 1-.854-11.329c-.449-6.821-.15-8.49.533-12.474 1.835-6.894 2.755-11.231 7.745-18.091l-1.687-7.433c-4.995-3.175-9.633-9.014-14.256-15.089-1.775.723-5.125-2.699-1.067-5.217-3.759-9.054 9.732-16.876 18.986-28.088 5.401-6.133 5.32-9.777 7.148-15.694 3.278-1.154 11.122.862 16.072-3.067 4.245-3.248 6.79-6.317 9.349-10.556 3.5-5.378 4.752-8.398 10.065-12.887 2.154-1.12 4.721-1.779 7.148.867 1.152-3.507-1.935-8.082-5.509-8.311 2.112-3.674 4.711-8.483 6.243-12.639.401-.972 1.084-4.719-1.109-2.545m-409.88 139.866c-1.586 0-2.688.083-3.583.649-1.749 1.109-4.894 5.539-4.894 11.92 0 1.006.023 1.886.073 2.662l-27.473-.017c-1.586 0-2.688.083-3.581.648-1.75 1.109-4.896 5.539-4.896 11.922 0 1.004.021 1.885.074 2.66l-10.141-.006c-2.533-4.52-4.38-8.393-8.699-11.732-7.888-3.292-9.458-12.345-10.615-18.855-.941-5.33-1.301-15.637-.697-17.207.454-1.392 1.13-2.885 1.822-4.215 1.882-4.234 7.749-10.119 12.199-14.008 7.785-6.5 14.527-17.541 15.811-24.191q.287-1.025.529-2.063c1.817 3.438 1.544 6.865 1.45 10.103-.204 1.731-.42 5.847 3.403 7.807 4.028.018 14.784 5.591 17.574 6.578 1.836.858 1.921.705 5.139 2.93 6.539 4.731 11.08 8.286 13.857 10.723 2.394 2.115 4.169 4.116 4.778 6.63.46 4.919 6.423 2.744 9.335 4.49 3.267 2.438 2.719 9.207 4.309 12.571zm172.038-243.751a16.15 16.15 0 0 0 3.156 8.526 209 209 0 0 0-11.22-2.127c4.817-1.973 8.064-6.399 8.064-6.399m-41.123-5.544c2.527 4.707 5.41 7.707 7.444 9.432a208 208 0 0 0-7.444-.142h-.001c-2.482 0-4.965.052-7.446.142 2.036-1.724 4.918-4.725 7.447-9.432m-33.061 11.942a208 208 0 0 0-11.218 2.127 16.16 16.16 0 0 0 3.156-8.526c0 .001 3.247 4.426 8.062 6.399m-9.17 38.793c-2.137 0-2.271-1.69-.677-2.147a202 202 0 0 1 42.909-4.624c14.386 0 28.771 1.55 42.907 4.624 1.594.457 1.46 2.147-.676 2.147h-84.463m246.879 198.413c-1.158 6.51-2.728 15.563-10.614 18.855-4.32 3.34-6.167 7.213-8.699 11.732l-10.142.006a40 40 0 0 0 .074-2.66c0-6.383-3.145-10.813-4.895-11.922-.894-.565-1.995-.648-3.581-.648l-27.473.017c.05-.776.074-1.656.074-2.662 0-6.381-3.146-10.81-4.895-11.92-.894-.566-1.997-.649-3.581-.649h-15.778c1.591-3.364 1.042-10.134 4.31-12.571 2.912-1.746 8.875.429 9.334-4.49.609-2.514 2.384-4.515 4.778-6.63 2.778-2.436 7.317-5.992 13.857-10.723 3.219-2.225 3.305-2.071 5.14-2.93 2.79-.987 13.546-6.561 17.574-6.578 3.825-1.96 3.607-6.075 3.404-7.807-.096-3.237-.368-6.665 1.45-10.103q.24 1.038.528 2.063c1.285 6.65 8.027 17.691 15.81 24.191 4.451 3.889 10.316 9.773 12.199 14.008.692 1.33 1.369 2.823 1.823 4.215.603 1.569.245 11.876-.697 17.206" style="fill:#ed9e21"/><path d="M248.295 336.567c2.571-.546 4.26-2.874 3.768-5.188-.409-1.926-2.283-3.325-4.456-3.325-.364 0-.733.039-1.097.117-2.569.546-4.26 2.874-3.768 5.189.409 1.926 2.283 3.324 4.455 3.324.364 0 .735-.039 1.098-.117M368.489 328.171a5.2 5.2 0 0 0-1.097-.117c-2.173 0-4.047 1.398-4.455 3.325-.492 2.314 1.196 4.642 3.768 5.188a5.2 5.2 0 0 0 1.098.117c2.172 0 4.046-1.398 4.454-3.324.492-2.315-1.198-4.642-3.768-5.189M367.942 342.391a210.2 210.2 0 0 0-60.442-8.872c-20.485 0-40.82 2.985-60.442 8.872q-.539.162-.854.767c-.337.646-.377 1.521-.106 2.34.46 1.396 1.5 2.15 2.246 2.15a1 1 0 0 0 .282-.041 204.7 204.7 0 0 1 58.875-8.642c19.956 0 39.765 2.908 58.875 8.642q.136.04.282.041c.745 0 1.786-.754 2.246-2.15.27-.819.23-1.694-.106-2.34q-.316-.605-.856-.767" style="fill:#fff"/><path d="M366.184 325.259a199.3 199.3 0 0 0-58.683-8.853h-.002c-19.776 0-39.55 2.958-58.683 8.853 2.971.457 5.45 2.566 6.078 5.519.587 2.772-.619 5.526-2.86 7.198a213.3 213.3 0 0 1 55.466-7.35 213.2 213.2 0 0 1 55.466 7.35c-2.241-1.672-3.447-4.426-2.859-7.198.627-2.953 3.106-5.062 6.077-5.519" style="fill:#fff"/><path d="M375.195 322a2.25 2.25 0 0 0-1.324-1.15 205.2 205.2 0 0 0-66.371-11.017h-.001a205.2 205.2 0 0 0-66.37 11.017 2.25 2.25 0 0 0-1.325 1.15 1.83 1.83 0 0 0-.097 1.416c.278.78 1.017 1.284 1.881 1.284q.356 0 .704-.118a201.6 201.6 0 0 1 65.206-10.824h.002c22.21 0 44.15 3.642 65.206 10.824q.348.117.704.118c.865 0 1.603-.503 1.882-1.284a1.82 1.82 0 0 0-.097-1.416" style="fill:#fff"/><path d="m331.078 324.521 10.338 6.724 11.975-2.917-10.331-6.722zm10.74 4.359-5.266-3.426 6.104-1.484 5.262 3.424zM261.607 328.328l11.974 2.917 10.338-6.724-11.981-2.914zm16.839-2.874-5.267 3.426-6.1-1.486 5.262-3.424zM314.803 318.548h-14.607a4.967 4.967 0 0 0-4.967 4.968 4.967 4.967 0 0 0 4.967 4.967h14.607a4.968 4.968 0 0 0 0-9.935m0 7.733h-14.607c-1.524 0-2.766-1.241-2.766-2.766s1.241-2.766 2.766-2.766h14.607c1.525 0 2.767 1.241 2.767 2.766s-1.242 2.766-2.767 2.766" style="fill:#ed9e21"/><path d="M562.776 316.563c-.655-2.834-1.244-5.688-1.596-7.698-.732-4.207-.609-5.46-.488-7.439.847 4.132 3.771 10.081 2.084 15.137M405.602 340.314l-2.342-2.882c-5.383 1.977-8.82-1.86-13.791 1.869-2.917 1.118-.697-3.409 1.802-4.72.25-.103.507-.16.764-.18 2.803.403 5.6.823 7.184 1.069 3.722.583 3.168.654 4.746 1.976.655.773 2.477 2.046 1.637 2.868M379.533 347.359c1.88-1.81 2.661-3.871 4.686-5.061 3.688 1.132-.177 4.258-2.593 6.331h-2.783c-.073-.438.095-.918.69-1.27M230.78 342.298c2.024 1.19 2.805 3.251 4.685 5.061.598.352.762.832.69 1.27h-2.783c-2.415-2.073-6.279-5.199-2.592-6.331M211.034 337.446c1.578-1.322 1.024-1.392 4.746-1.976a688 688 0 0 1 7.183-1.069c.257.02.514.077.764.18 2.499 1.311 4.719 5.838 1.802 4.72-4.971-3.729-8.409.108-13.792-1.869l-2.341 2.882c-.839-.822.982-2.095 1.638-2.868M54.307 301.426c.121 1.979.243 3.233-.488 7.439-.352 2.01-.941 4.864-1.596 7.698-1.687-5.056 1.237-11.005 2.084-15.137M45.358 322.7c1.027-.942.979.68 1.007.832 1.205 3.954-.013 3.457-.06 4.223-1.312-2-1.334-4.274-.947-5.055M37.438 348.183c1.104 5.044 1.657 9.495.284 14.019-.712-2.67-.97-2.883-1.504-5.724-.197-2.5.661-5.878 1.22-8.295M36.679 381.366c4.062-2.104 5.381-7.725 7.711-10.897 1.055-1.445 1.874-3.992 2.979-3.369-.679 3.51-1.997 5.383-3.555 9.913-2.09 5.635-2.403 8.124-5.252 12.592-.603-1.808-1.382-4.02-1.834-5.307-.068-.848-1.999-3.409-.049-2.932M36.332 422.681c-3.058-4.435-5.006-7.199-5.792-10.135a19 19 0 0 1-.354-1.682c4.936 5.838 10.392 10.798 13.73 13.684a59.5 59.5 0 0 0-7.584-1.867M49.865 429.842 47.788 428c4.569-3.953 4.265-14.104 4.935-17.29a29.5 29.5 0 0 1 1.374-5.36c1.204 4.208.561 11.93.71 13.445.529 2.562-2.727 7.462-4.942 11.047M89.969 426.57c.21-.478.467-.956.75-1.414-.319 3.668 1.504 8.161 1.841 10.644-4.589-1.341-3.846-5.266-2.591-9.23M84.193 427.763a.8.8 0 0 1 .374.035c.629 6.022.318 4.498.428 5.701-1.852-.229-.747-1.268-1.302-1.376-2.721-4.821.426-3.682.5-4.36M79.313 455.034c1.138-3.682 3.223-7.809 5.7-11.106.251-.207.548-.807.786-.484 2.639 1.668.109 3.576-1.334 6.147-2.179 3.468-3.602 5.828-5.496 8.948-.083-1.166.182-2.615.344-3.505M82.21 468.807c-2.253-3.695-.209-7.283 1.225-10.833.591-1.328 2.032-5.033 3.981-4.808-1.237 5.789-3.284 12.01-5.206 15.641M87.728 475.097c-.04.014-.082.02-.121.027-2.852-4.073-1.247-8.27.459-12.688a7.6 7.6 0 0 1 1.462-1.852c.393.499.54.976.569 1.453-1.584 6.566-2.878 6.306-2.369 13.06M92.487 471.675c-.725 5.683-1.477 1.766-1.314 1.966-1.008-4.397.318-3.893.496-5.176 1.988 3.095.798 2.533.818 3.21M95.268 424.796c.191-1.217.949-3.206 2.303-3.438 0 4.997.38 10.383.344 14.643-3.276-3.742-3.14-7.396-2.647-11.205M515.328 527.082a22 22 0 0 0-.655-2.379 8.8 8.8 0 0 1 1.408 1.877c2.288 5.173 2.417 11.339 1.767 15.07-1.423 6.039-.088 17.669-9.186 24.2-2.005-.039 2.2-5.218 2.579-7.485 2.329-6.556 3.357-11.23 4.482-19.573.046-.73.48-8.874-.395-11.71M499.246 384.606c-.435-1.474-.468-2.716-.163-4.097.216.406.453.805.697 1.194 1.523 2.915 6.56 6.625 10.302 7.086-3.635 1.682-9.68.574-10.836-4.183M496.443 487.321c-3.095-2.792-6.134-6.847-6.562-10.233q.295.408.609.815c.787 1.733 6.379 4.975 5.688 8.647q.121.39.265.771M496.992 495.504c-1.456-.332-5.404-3.326-6.966-9.275.379.023.656.527.851.826.686 2.894 7.068 4.827 6.115 8.449M493.017 496.924c.941.763 2.79 2.032 4.463 2.797.735 1.85 1.575 3.544 1.42 5.732-4.318-2.795-6.525-5.848-9.383-11.286 1.058-1.048 1.991 2.026 3.5 2.757M488.922 423.4c4.205.935 8.665-1.27 12.15-1.969.387.608.421 1.261.095 1.906-3.344 2.868-8.286 3.954-12.245.063M485.625 452.026c.467 1.107.799 2.408.921 3.604.155.927.114 3.255.081 6.124-2.675-3.362-.759-5.376-1.002-9.728M485.15 418.762c4.609.915 8.922-.743 13.954-1.95.628.71-.008 1.448-.795 2.026-2.062 1.532-6.648 3.147-9.51 1.765-1.395-.394-2.546-.711-3.649-1.841M480.095 479.81c.216-.272.181-.842.953-.97.008 0 .008-.005.008-.005.155-.687.813-.894-.379 3.805.783-.362-2.423 5.111-.582-2.83M473.806 450.658l-1.117-6.162c.399.313.798.636 1.199.957 1.679 1.486 9.375 7.107 9.597 11.417-3.479-1.985-6.762-3.999-9.679-6.212M475.876 489.025c1.179 1.408 2.81 3.906 2.627 5.245-.014 2.522.272 5.87-3.424 7.294 3.959-5.03-.184-8.024.797-12.539M483.304 414.804c-.854.064-1.855-.67-2.215-1.879 4.206-.674 11.462-.497 15.557-2.654-.04.978.732 1.963-.122 2.939-5.354 3.502-5.85 1.231-13.22 1.594M492.359 369.088c.8.475.849-.718 3.081 3.087.284-.483 2.466 2.563-3.061-2.434-.127-.132-1.196-1.428-.02-.653M505.262 326.073c.029.319.057.538.111.834.486 1.062.365 4.399-.955 6.055-.122 1.557 2.376 2.498-.069 5.205.563.955 3.947 1.79 1.071 2.617-1.476.774-4.341 2.774.689 4.241-1.598 1.381-3.007 3.601-2.606 4.826-1.245 1.652 2.837 2.631.832 4.323.156 1.653-2.889 4.136-2.624 1.022.162-3.993-1.458-11.618.074-15.353.31-1.29 2.524-9.743 2.585-13.04-.169-1.025 1.178-3.893.892-.73M501.297 376.92c.866.705.522-.607 1.806 4.389.307.283.529 1.503-1.129-.313-.075-1.002-1.808-1.079-.92-4.1.087.005.161.001.243.024" style="fill:#fff"/><path d="M513.421 289.223c.487 1.703-3.973 2.97-.467 5.251 1.942 1.429 4.318-.116 4.468 3.299 1.076.758 5.991 1.494 2.207 2.997-.09.033-.17.066-.258.099-.095 3.26 5.383 6.168 2.051 9.147 3.96.712-.521 4.63 2.211 6.869-3.091 1.362 1.641 3.851-.106 5.719.121 1.508.365 3.335-.134 4.9.222 1.466 2.218 2.765 1.705 4.268-2.857.735-.599 3.57-1.429 5.213 1.604 1.537-1.929 3.026-.399 4.783.677 2.071-2.148 3.404-.345 5.053-1.077 1.009-1.205 3.341-2.44 5.023-3.728-.315 1.593 3.971-2.227 4.382-.006 1.311.131 1.417-1.354 2.279-.444 1.551 1.267 3.208-.154 4.871-2.355 1.611-.954 3.956-2.843 6.218-3.135.999 1.815 3.37-1.761 4.64.027 1.169.777 3.234 1.085 5.012-1.132-1.956-3.793-1.572-2.526-.075.236.553.677 1.577 1.049 2.391-2.207 1.312-4.236 2.454-5.91 1.954 3.122-4.656 2.559-7.009 4.129-11.286.875-2.679 2.141-6.43 4.048-12.167 2.425-6.748 2.473-9.41 4.146-15.872 2.808-13.194 4.352-23.012.562-36.339-1.401-2.566-3.974-8.972-10.479-12.89 3.553 11.306 5.225 21.789 1.582 34.139-.485-2.09 1.361-6.4.956-8.839.46-1.903-.515-3.172-1.877-3.495 1.931-2.063.448-3.466.048-5.229 1.942-2.126-1.449-2.974-2.036-4.272 1.097-1.311 1.543-3.865-.711-4.286-.469-2.585.107-7.505-3.284-9.019 2.37-2.182 6.736-6.129 10.493-4.738M500.282 290.667c4.209-3.823 4.703-6.076 5.706-9.516.014-.581-.345-1.82.663-2.003.183 1.153.122 2.366-.102 3.247-.852 4.362-2.62 9.175-7.988 12.424-3.343 1.352-.501-2.587 1.721-4.152M496.01 280.613c-.169.067 2.707.735.238.914-.407.304-2.96-.812-.238-.914M499.063 321.997l1.082-4.348c.122 1.297.211 2.708-.048 4.259-.494 2.914-2.693 4.988-5.822 6.189-.378.031-1.666.211-2.905.411 1.594-1.404 4.706-3.528 7.693-6.511M484.218 285.074c.966 1.105 1.72 2.492 1.313 3.957-2.132-.983-3.811 1.636-1.489 3.935-.719 1.71-2.816.005-4.366.203-.056 1.226 1.462 4.563-1.069 2.488-1.368-1.122-3.1-2.274-4.916-3.425 3.391-1.248 7.221-3.843 10.527-7.158M472.654 294.355c.034.051.06.116.082.172-.487 1.18 1.881 4.737 3.574 1.325.338.39 6.377 2.881-1.666 3.589-1.407.364-7.121-5.242-1.99-5.086M469.764 299.81c.13-.079.298-.072.468-.036.581-.243 4.867 1.696-3.136 2.435.056-.407-3.019-.973 2.668-2.399M452.068 320.445c-1.184-.822-6.756-1.147-3.867 1.332 4.836-1.406 1.748 9.355-5.34 4.792 1.287-1.355 6.553.683 5.431-3.364-1.179-2.255-2.879-.36-4.74-1.102-.405-3.222 4.793-3.186 7.293-3.602 1.331-3.029 4.812-3.972 7.581-7.866 2.314-1.943 4.65-6.093 7.176-5.652-2.453 4.421-10.981 8.915-13.534 15.462M469.494 317.349c-2.458.869-5.249 3.27-8.145 3.564 3.358-2.112 9.39-6.286 10.385-9.523 1.786-3.086 2.071-4.548-.23-7.036.596 0 1.232.009 1.747.209 5.076 2.538-5.03 10.091 3.885 11.563 4.195 1.23 8.422 1.631 13.805-.654-.042 3.263-4.185 5.213-6.37 4.685-5.418.809-9.893-4.684-15.077-2.808M454.471 352.408c1.997-2.222 5.802-5.036 6.194-5.2 1.171-.899 8.895-7.291 10.663-6.417 3.311-2.174 9.62-4.986 10.899-9.907.101-.345.195-.695.271-1.043 2.747.663 5.72-.939 8.428-.908.067.586-.67 1.614.576 2.065.358.119.852.149 1.279.067 1.359 2.861 2.273 4.692 3.478 7.439 3.859 8.818 2.451 18.588 2.215 28.049-.677.459-1.996-.312-2.328-1.264-.095-6.507-.239-12.598.493-17.416-1.646-3.172-1.441-6.912-4.576-10.143-1.456 4.136-2.315 10.727-7.913 15.609a3.8 3.8 0 0 1-1.612-.099c.65-1.549.678-2.47.563-3.782h2.215c.108-3.101 2.111-4.543 3.27-8.611.548-1.496-.698-3.295 1.509-4.942-1.219-1.755 1.002-6.275-3.026-5.432-2.335.759-1.569 2.789-4.164 3.285.76 3.03-3.669.397-2.179 3.24.264.648.515 1.513.65 2.273-1.794-.16-4.415-.675-5.999 1.681-.98-.318-1.639.907-1.86 2.031-1.598-.092-3.959-.23-3.865 2.322-1.571 1.429-3.466-1.414-5.307 1.672-2.053-1.005-2.979.93-5.612 3.579-1.205 1.388-2.296 3.073-3.622 4.508-.881.463-2.014.74-3.025.883.584-1.768 1.208-2.304 2.385-3.539" style="fill:#fff"/><path d="M479.485 352.929c.04-.003.087 0 .128.005-.345.712 2.892-1.365.272 1.464.549.123-4.226 2.311-.4-1.469M435.2 372.518c1.075-3.058 3.025-4.838 5.542-5.783-.831.748-1.636 1.633-2.248 2.543-1.597 2.855-2.938 6.993 1.091 8.005.881-.409 1.984-1.134 3.102-1.552.316-2.908-.042-6.226 1.569-8.362v8.576l-10.039 4.183c.094-2.228-.257-5.844.983-7.61M452.622 399.487c-1.575 2.719-4.311 2.478-5.951 2.463 1.046-2.571-2.794-4.412-2.747-7.097.171-.049.332.024.454.093 2.376 1.614 5.681 4.961 8.244 4.541M448.372 377.496c.299.921.637.6.859 3.907-.054-.203-.913 4.319-2.938-2.177-.066-.589-1.016-1.111 2.079-1.73M453.619 374.162c.29 1.175.542.15.798 5.363-.466-.264-.183 1.664-3.311-3.199-1.508-.423.401-1.331 2.513-2.164M443.776 384.748c-.191-.36-1.118 2.713-2.168-3.068-.221-.314-1.19-2.051 1.206-1.879 1.125.8-.12.142.962 4.947M403.603 429.685c-1.555 5.139-.06 9.996-.864 15.538-.935-3.339-1.245-6.585-1.3-10.338.332-2.128.168-4.612 2.146-6.624.27.475.082 1.139.018 1.424M403.585 426.997c.472-.343-.117-1.076.403-1.625.012-.064.035-.098.076-.086-.033.027-.049.058-.076.086-.079.412.336 2.142-.403 1.625M420.556 461.081c-.068 1.366-1.793 3.672-3.303.976-1.658-2.529-3.508-2.957-3.556-5.429.773-1.225 1.775-1.167 2.459.202 1.369 1.289 3.689 1.553 4.4 4.251M413.44 452.214c1.058-1.265 2.716-4.48 4.671-2.622-.792 2.072-4.615 7.148-9.72 7.391-1.578-2.861 3.142-1.931 5.049-4.769M426.094 389.849c-1.99.409-6.329 1.428-7.439 1.993-1.096.62-7.055 2.022-9.532 3.087-3.817 2.88-4.827 6.299-5.239 9.86-1.26-4.241-1.882-9.734 4.372-13.398 6.047-2.546 10.244-1.824 16.91-3.018 1.618-.303 4.354-3.12 5.776-2.408a8 8 0 0 1 2.815 1.006c-2.35 1.455-6.268 2.606-7.663 2.878M433.748 382.677c.923-.455.294 0 3.888-1.148.277.34 1.178 1.571-.163 3.632-.798-.427.228.379-3.725-2.484M438.793 398.001c-.507-1.045-1.144-2.051-1.929-3.149.739-.145 1.435-.187 1.97.419 1.388 2.067 4.143 4.628 5.491 6.716-1.139.046-5.098-.323-5.532-3.986M461.62 421.909c-3.786-.106-10.344-8.524-13.763-11.986-1.076-1.381-2.857-2.952-2.262-3.852 3.528-.29 5.329-1.424 8.915-3.179 1.966 3.419 1.844 5.217 4.016 7.864 1.029 1.077 5.037 4.352 7.236 5.608 1.103 2.342-2.471-.347-3.979-1.124-3.33-1.533-6.534-5.749-9.855-7.971-1.222 3.388 4.765 10.091 9.687 13.193 1.305.742 2.423 2.315.005 1.447M458.411 372.657c.366 1.472.947 2.983.677 4.343-1.299-1.681-1.875-3.631-4.171-4.189 2.235-1.638 2.534-4.832 4.923-4.467a2 2 0 0 1 .175.168c1.415 1.626 3.256 4.852.171 4.796-.333-.712-2.134-2.928-1.775-.651M466.109 423.728c.018.042-1.504-.253-1.538-1.542.115.009.5-.021.679.03.255.121 2.727.69.859 1.512M467.463 359.397c-.225.277-5.768-2.877-6.438.604-1.228-2.642-4.381-1.611-4.61.781-1.633-1.052-4.706-.543-4.062 1.936-1.361-1.513-4.625-.531-3.643 1.608-1.292.212-8.82 2.227-4.589-1.825 3.872-2.648 6.059-4.233 10.27-5.237 5.247-1.603 7.601-.692 12.158-.043 6.932 1.054 9.836 2.59 17.08 5.672 1.746.848 4.696 3.115 7.995 5.664-4.535-1.709-7.434-3.892-12.085-5.793-3.765-2.238-8.569.034-12.076-3.367M465.87 449.945c.969.065 1.023 1.108 1.207 1.52.864 3.289 2.32 6.095 2.566 10.08-1.872-2.848-6.384-8.422-3.773-11.6M460.375 449.331c-.048 1.907-.128 4.039.298 5.58.291 2.521 4.021 5.844 4.915 7.923.196.576.516 1.593.818 2.609-4.94-4.059-8.861-9.86-9.83-15.451 1.713-1.07 2.384-.712 3.799-.661M452.218 452.444c.142-.408.277-1.092.819-1.183a9 9 0 0 0 .182 2.176c1.305 4.609 5.457 10.624 10.365 15.447q.21.067.433.1c-2.471-.015-5.836-2.997-7.025-4.923-2.508-3.921-7.332-6.806-4.774-11.617M455.806 475.149c-.204-.45-.414-.904-.617-1.349.211.358.413.717.623 1.077 1.091 2.14 3.419 5.564 3.894 8.229-2.357-3.036-2.06-4.14-3.9-7.957M465.443 497.507c.422-.135.881.193 1.045.606.29.617.432 1.526.418 2.346-3.708 2.581-7.676 5.507-10.863 6.173 2.355-3.337 5.802-5.893 9.4-9.125M500.01 577.515c-3.554-.243.609-3.753 1.178-5.922.149-.468.651-1.415 1.503-.514.345 2.229-.21 3.903-2.681 6.436M430.095 532.332c-3.688-2.838-.299-5.881 2.505-8.188.656-.527.969-.744 1.334-.899q0 .298.015.595c-.787.755 3.008 9.562-3.854 8.492M451.159 503.923c.287-.156.53-.265.747-.355-.597 1.591-4.001 4.46-7.081 4.534 1.258-1.398 4.556-2.613 6.334-4.179M423.9 520.368c6.446-3.064 13.085-8.351 20.35-11.668.197.141-.047.247-.164.308-2.267.999-3.724 3.242-6.165 5.155-.477.405-.949.81-2.148 1.835-1.205 1.025-3.14 2.678-4.156 3.546-2.099 1.813-1.069.975-1.462 1.396-.216.45-4.279 9.572-7.265 3.142.327-.943-3.125-2.421 1.01-3.714M413.572 529.727c-.151.331.767 2.643-1.904 1.599.038-.443.304-.775 1.904-1.599M415.011 536.719c.754 2.201 6.263 4.759 6.066 7.626a2.3 2.3 0 0 1-.174.451c-2.877-2.9-6.073-5.811-9.939-9.9-2.471-2.956 2.261-.015 4.047 1.823M401.054 547.09c2.342-2.883 4.946-8.703 8.942-10.461.581.642.344 1.409.012 2.029-1.307 1.336-3.846 7.464-6.888 8.531h-1.777c-.097-.033-.193-.05-.289-.099M213.945 547.09c-.097.049-.192.066-.289.1h-1.777c-3.042-1.067-5.58-7.195-6.888-8.531-.332-.62-.57-1.388.012-2.029 3.996 1.757 6.6 7.577 8.942 10.46M201.427 529.727c1.601.823 1.866 1.155 1.904 1.599-2.671 1.044-1.753-1.268-1.904-1.599M199.988 536.719c1.786-1.838 6.518-4.778 4.047-1.823-3.866 4.089-7.063 7-9.939 9.9a2.3 2.3 0 0 1-.174-.451c-.197-2.868 5.312-5.425 6.066-7.626M170.749 508.7c7.264 3.317 13.903 8.604 20.349 11.668 4.136 1.293.684 2.771 1.01 3.713-2.985 6.431-7.048-2.691-7.264-3.142-.393-.421.637.417-1.462-1.396-1.017-.868-2.951-2.521-4.156-3.546-1.198-1.025-1.671-1.43-2.148-1.835-2.441-1.913-3.898-4.156-6.165-5.155-.118-.06-.361-.166-.164-.307M181.051 523.84q.013-.295.015-.595c.365.155.677.372 1.334.899 2.804 2.307 6.193 5.35 2.505 8.188-6.863 1.07-3.068-7.737-3.854-8.492M163.84 503.923c1.778 1.566 5.076 2.781 6.333 4.179-3.079-.074-6.484-2.943-7.08-4.534.216.09.46.199.747.355M158.956 506.632c-3.188-.666-7.155-3.592-10.863-6.173-.014-.819.128-1.728.418-2.346.164-.413.622-.741 1.044-.606 3.599 3.232 7.046 5.788 9.401 9.125M159.193 475.149c-1.841 3.816-1.543 4.921-3.899 7.958.474-2.666 2.802-6.09 3.893-8.229.21-.36.412-.719.624-1.077-.204.444-.414.898-.618 1.348M161.962 451.262c.542.091.677.774.819 1.183 2.558 4.81-2.267 7.695-4.773 11.617-1.19 1.926-4.555 4.908-7.025 4.923a3 3 0 0 0 .433-.1c4.908-4.823 9.061-10.838 10.365-15.447.147-.725.208-1.46.181-2.176M154.326 454.911c.425-1.541.345-3.673.297-5.58 1.416-.051 2.086-.409 3.799.661-.969 5.591-4.89 11.393-9.83 15.451.303-1.017.622-2.033.818-2.609.895-2.079 4.625-5.401 4.916-7.923M147.922 451.465c.183-.411.238-1.454 1.207-1.52 2.611 3.178-1.901 8.752-3.773 11.6.245-3.985 1.701-6.791 2.566-10.08M148.89 423.728c-1.867-.822.604-1.392.859-1.512.179-.052.564-.021.679-.03-.034 1.289-1.556 1.585-1.538 1.542M167.142 409.923c-3.419 3.462-9.977 11.88-13.763 11.986-2.418.868-1.3-.705.006-1.446 4.922-3.103 10.908-9.806 9.686-13.193-3.322 2.222-6.526 6.438-9.856 7.971-1.509.777-5.083 3.466-3.979 1.124 2.199-1.257 6.207-4.531 7.236-5.608 2.172-2.647 2.05-4.445 4.015-7.864 3.586 1.755 5.387 2.889 8.915 3.179.597.899-1.184 2.47-2.26 3.851M154.813 373.309c-3.085.056-1.245-3.17.171-4.796.06-.064.122-.125.174-.168 2.389-.364 2.688 2.83 4.923 4.467-2.296.558-2.871 2.508-4.17 4.189-.271-1.359.311-2.871.676-4.343.36-2.278-1.442-.062-1.774.651M170.621 394.946c.122-.069.283-.142.454-.093.046 2.685-3.793 4.526-2.748 7.097-1.64.015-4.375.256-5.951-2.463 2.564.42 5.869-2.927 8.245-4.541M165.768 381.403c.222-3.307.561-2.986.859-3.907 3.095.619 2.146 1.14 2.079 1.73-2.026 6.497-2.885 1.974-2.938 2.177M163.892 376.326c-3.127 4.864-2.844 2.936-3.31 3.199.256-5.212.508-4.188.798-5.363 2.112.833 4.021 1.741 2.512 2.164M176.206 398.001c-.435 3.663-4.394 4.032-5.532 3.985 1.349-2.088 4.103-4.648 5.491-6.716.534-.606 1.23-.564 1.97-.419-.786 1.099-1.423 2.105-1.929 3.15M172.185 379.801c2.396-.172 1.426 1.565 1.205 1.879-1.05 5.781-1.977 2.708-2.168 3.068 1.082-4.805-.162-4.147.963-4.947M197.746 462.057c-1.51 2.696-3.235.391-3.303-.976.711-2.698 3.031-2.962 4.4-4.251.683-1.369 1.686-1.427 2.459-.202-.049 2.472-1.898 2.899-3.556 5.429M206.607 456.982c-5.104-.242-8.928-5.318-9.72-7.391 1.956-1.857 3.613 1.357 4.671 2.622 1.908 2.839 6.628 1.909 5.049 4.769M211.01 425.372c-.027-.028-.043-.059-.076-.086.042-.012.064.023.076.086.521.549-.068 1.282.404 1.625-.739.517-.325-1.213-.404-1.625M212.26 445.224c-.805-5.542.69-10.399-.865-15.538-.063-.285-.252-.949.019-1.424 1.977 2.012 1.813 4.496 2.146 6.624-.055 3.753-.366 6.999-1.3 10.338M189.833 388.374c6.667 1.194 10.863.472 16.91 3.018 6.254 3.663 5.632 9.157 4.372 13.398-.412-3.561-1.422-6.98-5.239-9.86-2.478-1.066-8.436-2.467-9.532-3.087-1.111-.565-5.45-1.584-7.439-1.993-1.395-.272-5.313-1.422-7.663-2.877.941-.564 1.917-.857 2.815-1.006 1.423-.713 4.159 2.103 5.776 2.407M177.526 385.16c-1.34-2.061-.44-3.292-.163-3.632 3.593 1.148 2.965.693 3.887 1.148-3.953 2.864-2.926 2.058-3.724 2.484M175.414 377.283c4.028-1.012 2.688-5.15 1.091-8.005-.612-.91-1.417-1.795-2.248-2.543 2.517.945 4.467 2.725 5.542 5.783 1.24 1.766.889 5.382.983 7.609l-10.039-4.183v-8.576c1.611 2.137 1.253 5.455 1.569 8.362 1.118.418 2.221 1.144 3.102 1.553M166.289 364.328c.982-2.139-2.282-3.121-3.644-1.608.645-2.479-2.429-2.988-4.062-1.936-.229-2.393-3.383-3.423-4.61-.781-.67-3.481-6.213-.328-6.438-.604-3.507 3.4-8.312 1.129-12.077 3.369-4.65 1.901-7.549 4.084-12.084 5.793 3.298-2.548 6.249-4.816 7.995-5.664 7.244-3.082 10.148-4.619 17.08-5.672 4.557-.649 6.911-1.56 12.158.043 4.211 1.003 6.397 2.588 10.27 5.237 4.232 4.05-3.296 2.035-4.588 1.823M139.92 501.564c-3.696-1.424-3.411-4.771-3.424-7.294-.184-1.339 1.448-3.837 2.627-5.245.981 4.515-3.162 7.509.797 12.539M131.515 456.87c.221-4.31 7.917-9.931 9.596-11.417.401-.321.8-.645 1.199-.957l-1.117 6.162c-2.917 2.213-6.2 4.227-9.678 6.212M133.943 478.836s0 .005.007.005c.772.128.738.697.953.97 1.841 7.94-1.365 2.468-.582 2.83-1.19-4.699-.533-4.492-.378-3.805M128.372 461.755c-.034-2.869-.074-5.197.081-6.124.122-1.196.454-2.498.921-3.604-.244 4.351 1.672 6.365-1.002 9.728M126.199 420.603c-2.862 1.383-7.448-.232-9.51-1.765-.787-.578-1.422-1.316-.795-2.026 5.032 1.207 9.344 2.865 13.954 1.95-1.102 1.13-2.254 1.447-3.649 1.841M124.507 477.903q.315-.407.609-.815c-.428 3.387-3.467 7.441-6.562 10.233q.145-.382.265-.771c-.691-3.672 4.901-6.913 5.688-8.647M124.122 487.056c.195-.299.472-.803.851-.826-1.562 5.948-5.509 8.942-6.965 9.275-.955-3.623 5.428-5.556 6.114-8.449M121.982 496.924c1.508-.73 2.441-3.805 3.5-2.757-2.857 5.439-5.065 8.491-9.383 11.286-.155-2.189.685-3.882 1.42-5.732 1.673-.765 3.522-2.035 4.463-2.797M113.831 423.338c-.326-.646-.291-1.298.095-1.906 3.485.699 7.946 2.903 12.151 1.969-3.959 3.89-8.902 2.804-12.246-.063M118.475 413.21c-.853-.977-.081-1.961-.122-2.939 4.095 2.157 11.351 1.98 15.557 2.654-.359 1.209-1.36 1.943-2.214 1.879-7.371-.363-7.867 1.908-13.221-1.594M119.559 372.175c2.232-3.805 2.281-2.612 3.081-3.087 1.177-.775.107.521-.021.653-5.526 4.997-3.345 1.951-3.06 2.434M135.385 352.934c.042-.005.088-.007.128-.005 3.826 3.78-.947 1.592-.399 1.469-2.62-2.829.616-.752.271-1.464M156.573 310.636c2.769 3.893 6.25 4.837 7.581 7.866 2.5.417 7.699.38 7.293 3.602-1.861.742-3.561-1.153-4.74 1.102-1.121 4.047 4.144 2.009 5.431 3.364-7.087 4.563-10.175-6.199-5.34-4.792 2.889-2.479-2.683-2.153-3.867-1.332-2.553-6.547-11.081-11.041-13.533-15.461 2.525-.442 4.861 3.707 7.175 5.651M144.767 299.773c.17-.036.338-.043.468.036 5.686 1.426 2.611 1.992 2.667 2.398-8.002-.738-3.716-2.677-3.135-2.434M142.262 294.527a1 1 0 0 1 .083-.172c5.13-.156-.583 5.45-1.99 5.086-8.043-.708-2.004-3.2-1.666-3.589 1.693 3.412 4.06-.145 3.573-1.325M130.781 285.074c3.306 3.315 7.135 5.911 10.528 7.159-1.816 1.151-3.548 2.304-4.915 3.425-2.531 2.074-1.014-1.263-1.069-2.488-1.55-.198-3.648 1.507-4.366-.203 2.321-2.299.643-4.919-1.489-3.935-.409-1.466.345-2.853 1.311-3.958M137.863 316.127c8.915-1.473-1.191-9.026 3.885-11.563.515-.2 1.151-.209 1.748-.209-2.302 2.488-2.017 3.95-.23 7.036.995 3.237 7.026 7.411 10.384 9.523-2.895-.295-5.686-2.696-8.145-3.564-5.183-1.876-9.659 3.617-15.076 2.809-2.186.528-6.329-1.422-6.371-4.685 5.383 2.284 9.609 1.883 13.805.653" style="fill:#fff"/><path d="M124.073 328.934c2.708-.032 5.681 1.571 8.428.908.075.348.17.697.271 1.043 1.279 4.921 7.589 7.733 10.899 9.907 1.768-.874 9.492 5.518 10.663 6.417.393.164 4.197 2.978 6.195 5.2 1.177 1.235 1.8 1.771 2.388 3.539-1.012-.143-2.145-.419-3.025-.883-1.326-1.435-2.417-3.12-3.622-4.508-2.633-2.649-3.56-4.585-5.612-3.579-1.841-3.086-3.735-.243-5.307-1.672.094-2.552-2.268-2.414-3.865-2.322-.222-1.124-.88-2.349-1.861-2.031-1.584-2.355-4.205-1.841-5.999-1.681.136-.76.387-1.624.651-2.273 1.49-2.843-2.938-.21-2.179-3.24-2.595-.497-1.829-2.526-4.165-3.285-4.028-.843-1.807 3.677-3.026 5.432 2.207 1.646.96 3.446 1.509 4.942 1.158 4.068 3.161 5.51 3.27 8.611h2.215c-.116 1.313-.088 2.233.563 3.782a3.8 3.8 0 0 1-1.612.099c-5.598-4.883-6.457-11.474-7.913-15.609-3.136 3.231-2.931 6.971-4.576 10.143.732 4.818.588 10.909.493 17.416-.332.952-1.652 1.723-2.328 1.264-.236-9.461-1.645-19.23 2.215-28.049 1.204-2.747 2.118-4.579 3.477-7.439.427.081.921.051 1.28-.067 1.243-.451.506-1.479.573-2.065M123.628 328.509c-1.239-.201-2.527-.38-2.905-.411-3.128-1.202-5.328-3.276-5.822-6.189-.258-1.551-.169-2.962-.048-4.259l1.082 4.348c2.988 2.982 6.1 5.106 7.693 6.511M118.989 280.613c2.722.103.169 1.218-.238.914-2.469-.179.407-.847.238-.914M108.348 279.147c1.008.184.649 1.423.663 2.003 1.003 3.44 1.497 5.693 5.706 9.516 2.222 1.565 5.064 5.504 1.72 4.151-5.368-3.249-7.135-8.063-7.988-12.424-.223-.879-.284-2.092-.101-3.246M111.496 349.852c.4-1.225-1.009-3.445-2.606-4.826 5.03-1.467 2.165-3.467.689-4.241-2.876-.828.509-1.662 1.071-2.617-2.445-2.707.053-3.649-.069-5.205-1.321-1.656-1.442-4.993-.956-6.055.055-.296.083-.515.111-.834-.286-3.164 1.061-.295.892.729.06 3.298 2.274 11.75 2.585 13.04 1.532 3.735-.088 11.36.074 15.353.264 3.114-2.781.631-2.624-1.022-2.004-1.692 2.078-2.67.833-4.322M111.896 381.309c1.284-4.996.939-3.684 1.805-4.389.082-.023.156-.019.244-.024.887 3.022-.845 3.099-.92 4.1-1.658 1.815-1.436.596-1.129.313" style="fill:#fff"/><path d="M101.767 379.247c.307-1.777 1.057-3.843 1.084-5.012-3.575-1.27 1.374-3.641-1.761-4.64-1.889-2.262-.487-4.607-2.843-6.218-1.42-1.662.29-3.32-.154-4.871-1.485-.863-1.349-.969-1.354-2.279-3.819-.411 1.503-4.697-2.227-4.382-1.234-1.682-1.362-4.014-2.439-5.023 1.803-1.649-1.021-2.982-.344-5.053 1.529-1.757-2.003-3.246-.4-4.783-.83-1.643 1.429-4.478-1.429-5.213-.513-1.503 1.483-2.802 1.706-4.268-.499-1.565-.255-3.392-.134-4.9-1.746-1.869 2.985-4.357-.106-5.719 2.732-2.239-1.749-6.157 2.211-6.869-3.332-2.979 2.146-5.888 2.051-9.147-.088-.033-.168-.066-.258-.099-3.784-1.503 1.131-2.239 2.208-2.997.149-3.416 2.525-1.871 4.468-3.299 3.506-2.281-.955-3.549-.467-5.251 3.757-1.391 8.123 2.556 10.493 4.74-3.391 1.513-2.815 6.434-3.284 9.019-2.254.421-1.808 2.975-.711 4.286-.587 1.298-3.979 2.146-2.037 4.272-.4 1.763-1.883 3.167.048 5.229-1.362.322-2.336 1.592-1.877 3.495-.405 2.44 1.441 6.749.956 8.839-3.643-12.35-1.97-22.833 1.583-34.139-6.505 3.918-9.077 10.324-10.479 12.89-3.79 13.327-2.246 23.145.562 36.339 1.672 6.461 1.72 9.124 4.145 15.872 1.908 5.737 3.173 9.488 4.048 12.167 1.57 4.276 1.007 6.629 4.128 11.286-1.674.5-3.703-.642-5.91-1.954.372-.814.813-1.837 1.049-2.391 1.267-1.499-1.395-1.883-2.526.073M104.916 388.789c3.743-.461 8.779-4.17 10.302-7.086.244-.389.481-.788.697-1.194.305 1.381.271 2.623-.164 4.097-1.155 4.757-7.199 5.865-10.835 4.183M112.309 571.079c.852-.901 1.354.046 1.503.514.568 2.169 4.731 5.679 1.178 5.922-2.472-2.533-3.028-4.207-2.681-6.436M99.276 538.792c1.125 8.343 2.153 13.018 4.482 19.573.379 2.268 4.584 7.446 2.579 7.485-9.098-6.531-7.763-18.161-9.186-24.2-.65-3.731-.521-9.897 1.767-15.07a8.9 8.9 0 0 1 1.409-1.877 22 22 0 0 0-.656 2.379c-.875 2.836-.441 10.98-.395 11.71M91.661 569.521c-6.703-.008.041-6.15-.135-7.612.364-.921.467-1.794.724-2.515-.142 3.479.493 7.134-.589 10.127M92.892 557.431c-.595-1.137.109-1.29.015-1.876.67-1.982-.244-1.766.487-2.456.833 4.201-.474 3.479-.502 4.332M92.487 532.511c-7.515 1.139-4.327-1.582-4.19-.99 3.628-1.816 3.98-.734 4.521-1.657 2.051 1.482 0 2.755-.331 2.647M92.203 527.386c-2.282 1.073-7.976 3.059-6.614-.811 3.311-.055 5.401-1.939 8.287-2.933 3.382.493-.422 3.672-1.673 3.744M86.143 523.845a2.3 2.3 0 0 1-.155-.969c2.641-2.917 6.837-2.214 9.673-5.206 1.212-1.322 2.146-2.501 3.385-2.59a1.8 1.8 0 0 1-.068.796c-3.724 3.389-8.475 6.932-12.835 7.969M100.868 573.739c1.913-1.354 4.494-3.315 5.929-4.309 1.706-1.495 4.186-1.673 6.256-.874-5.437 2.667-8.861 6.242-12.726 8.604-.496.277-.864.428-1.15.455l-.263-.001c-1.184-.23.126-3.162 1.954-3.875" style="fill:#fff"/><path d="M533.056 582.435c.567 0 .905.015 1.106.03.7.767 2.538 3.464 2.538 7.708 0 1.225-.037 2.075-.085 2.663H78.384a34 34 0 0 1-.085-2.663c0-4.244 1.837-6.941 2.539-7.708.201-.016.539-.03 1.105-.03h81.483l2.382 6.131 2.382-6.131h45.67v-4.8h-76.714a34 34 0 0 1-.085-2.661c0-4.242 1.835-6.94 2.537-7.709.201-.017.54-.031 1.106-.031h63.465l2.383 6.131 2.383-6.131h4.924v-4.814h-40.837a34 34 0 0 1-.085-2.662c0-4.24 1.835-6.938 2.539-7.707.201-.017.538-.031 1.106-.031h261.833c.568 0 .905.015 1.107.031.703.769 2.538 3.467 2.538 7.707 0 1.224-.038 2.074-.086 2.662h-40.838v4.814h4.926l2.382 6.131 2.382-6.131h63.466c.567 0 .905.015 1.106.031.703.77 2.537 3.467 2.537 7.709 0 1.223-.036 2.073-.084 2.661h-76.715v4.8h45.671l2.382 6.131 2.382-6.131z" style="fill:#fff"/><path d="M515.823 577.615c-.288-.027-.654-.178-1.15-.455-3.865-2.361-7.29-5.937-12.727-8.604 2.069-.799 4.55-.621 6.256.874 1.435.993 4.016 2.954 5.929 4.309 1.828.713 3.138 3.644 1.954 3.875zM522.106 557.431c-.027-.852-1.334-.131-.502-4.332.731.69-.183.474.487 2.456-.093.586.61.739.015 1.876M523.338 569.521c-1.082-2.993-.447-6.648-.589-10.127.257.721.359 1.594.724 2.515-.175 1.462 6.568 7.605-.135 7.612M522.512 532.511c-.331.108-2.382-1.165-.331-2.647.541.923.893-.159 4.521 1.657.136-.592 3.324 2.128-4.19.99M522.796 527.386c-1.251-.071-5.056-3.251-1.673-3.744 2.885.994 4.976 2.879 8.287 2.933 1.361 3.869-4.333 1.884-6.614.811M519.338 517.67c2.836 2.992 7.032 2.289 9.673 5.206.015.322-.027.642-.155.969-4.359-1.036-9.11-4.58-12.835-7.969a1.8 1.8 0 0 1-.068-.796c1.239.089 2.172 1.268 3.385 2.59M530.432 427.798a.8.8 0 0 1 .374-.035c.074.679 3.222-.461.5 4.36-.556.108.55 1.147-1.302 1.376.109-1.203-.202.32.428-5.701M524.279 425.156c.283.458.54.937.75 1.414 1.256 3.964 1.999 7.889-2.591 9.229.337-2.482 2.161-6.975 1.841-10.643M517.083 436.001c-.035-4.26.345-9.645.345-14.643 1.354.232 2.111 2.221 2.303 3.438.493 3.809.629 7.463-2.648 11.205M522.512 471.675c.021-.677-1.17-.115.818-3.21.178 1.283 1.504.778.495 5.176.164-.201-.589 3.716-1.313-1.966M527.392 475.124c-.038-.008-.08-.014-.121-.027.509-6.754-.784-6.494-2.368-13.059.028-.478.175-.954.568-1.453a7.6 7.6 0 0 1 1.462 1.852c1.706 4.417 3.31 8.614.459 12.687M532.788 468.807c-1.922-3.631-3.968-9.852-5.206-15.641 1.95-.226 3.391 3.48 3.982 4.808 1.433 3.549 3.477 7.137 1.224 10.833M536.03 458.538c-1.895-3.12-3.317-5.48-5.496-8.948-1.443-2.57-3.973-4.479-1.334-6.147.237-.322.535.277.786.484 2.478 3.298 4.562 7.425 5.7 11.106.162.891.427 2.34.344 3.505M565.134 429.842c-2.215-3.585-5.472-8.484-4.942-11.047.149-1.516-.493-9.237.711-13.445a29.7 29.7 0 0 1 1.374 5.36c.67 3.186.365 13.337 4.935 17.29zM577.56 348.183c.559 2.417 1.417 5.794 1.22 8.296-.534 2.84-.792 3.053-1.504 5.724-1.373-4.525-.819-8.975.284-14.02M568.693 327.755c-.047-.766-1.266-.268-.06-4.223.027-.153-.021-1.774 1.007-.832.387.781.366 3.055-.947 5.055M571.185 377.013c-1.558-4.53-2.877-6.403-3.556-9.913 1.106-.624 1.925 1.923 2.979 3.369 2.329 3.172 3.649 8.793 7.711 10.897 1.949-.477.019 2.084-.048 2.932-.453 1.288-1.231 3.5-1.835 5.307-2.847-4.468-3.161-6.957-5.251-12.592M584.459 412.546c-.786 2.936-2.734 5.7-5.792 10.135a59.5 59.5 0 0 0-7.585 1.867c3.339-2.886 8.795-7.846 13.731-13.684-.094.58-.216 1.157-.354 1.682M386.956 353.569l-79.457 75.093-79.457-75.093zM307.5 544.325c-30.454 0-56.945-17.23-70.278-42.445l70.277-66.25 70.279 66.25c-13.334 25.215-39.825 42.445-70.278 42.445" style="fill:#fff"/><path d="M245.436 556.722h-23.539v31.413h23.869v-5.801h-17.031v-7.737h15.331v-5.374h-15.331v-6.7h16.701zM286.234 556.722h-9.627l-4.528 13.583a355 355 0 0 0-1.272 4.201c-.705 2.401-.893 3.252-1.417 5.801-.798-3.964-1.509-6.699-2.64-9.907l-4.67-13.678h-9.762v31.413h6.506v-10.14a355 355 0 0 0-.237-11.18l-.183-3.869c.374 1.652.658 2.88.892 3.678.286.992.705 2.407 1.276 4.296.427 1.414.757 2.452 1.035 3.157l5.05 14.058h5.374l4.955-14.338c.285-.897.657-1.983 1.037-3.257.898-2.924 1.273-4.196 2.172-7.732l-.14 2.354c-.047 1.414-.097 2.787-.143 4.106a117 117 0 0 0-.096 4.809c-.046 1.981-.046 3.539-.046 4.673l-.048 9.385h6.513v-31.413zM328.115 556.722h-9.627l-4.529 13.583a359 359 0 0 0-1.269 4.201c-.705 2.401-.895 3.252-1.414 5.801-.801-3.964-1.512-6.699-2.642-9.907l-4.671-13.678h-9.762v31.413h6.505v-10.14c-.049-5.095-.095-6.936-.237-11.18l-.183-3.869c.372 1.652.657 2.88.895 3.678a370 370 0 0 0 1.272 4.296c.427 1.414.757 2.452 1.036 3.157l5.05 14.058h5.374l4.954-14.338c.285-.897.656-1.983 1.035-3.257.899-2.924 1.273-4.196 2.173-7.732l-.141 2.354c-.05 1.414-.096 2.787-.143 4.106a119 119 0 0 0-.095 4.809c-.047 1.981-.047 3.539-.047 4.673l-.046 9.385h6.511zM359.666 556.722H336.13v31.413h23.862v-5.801h-17.023v-7.737h15.332v-5.374h-15.332v-6.7h16.697zM393.102 556.722h-6.601l.049 13.064.047 2.973.048 2.64c.093 1.841.093 1.984.19 3.398-.994-1.984-2.031-3.774-4.149-7.264l-9.107-14.812H366.6v31.413h6.599l-.046-13.396c0-3.396-.095-6.651-.285-8.822.285.618.476 1.039.618 1.323.473.989.655 1.229 2.164 3.772.664 1.134 1.091 1.794 1.186 1.983l9.383 15.14h6.885v-31.412zM281.736 211.973h-11.418l-5.041 21.186c-.552 2.362-1.574 7.088-2.279 11.106-.71 3.542-.866 4.962-1.34 8.896-.473-4.172-.712-5.905-1.26-8.506l-1.029-5.275-1.175-5.825-5.593-21.581h-10.873l-5.664 22.133c-.557 1.967-1.422 6.377-2.289 11.025-.629 3.228-.786 4.485-1.175 8.03-.394-3.699-.557-4.88-1.186-8.346-.788-4.333-1.415-7.479-2.201-10.791l-5.126-22.052h-11.575l14.102 52.451h11.574l5.593-22.758c.473-2.048.948-4.015 1.259-5.83.08-.394.392-1.811.868-4.251.709-3.781.709-4.174 1.183-7.167.394 3.071.468 3.623 1.179 7.167l.784 4.41 1.341 5.985 5.748 22.443h11.418zM336.701 195.113h-14.566l-16.225 17.172-2.6 2.915-1.807 2.125.08-3.073v-19.139h-11.418v52.451h11.418v-16.929l6.614-6.616 15.981 23.545h14.414l-22.524-31.735zM385.761 211.973h-39.298v52.451h39.854v-9.683h-28.434v-12.919h25.595v-8.977h-25.595V221.66h27.878z" style="fill:#ed9e21"/><path d="M262.625 288.539c3.374 0 6.12-2.696 6.12-6.011s-2.745-6.012-6.12-6.012-6.121 2.697-6.121 6.012 2.745 6.011 6.121 6.011M223.186 294.51c-.124-.014-.247-.03-.374-.03q-.272 0-.544.044c-2.045.332-3.409 2.458-3.04 4.74.331 2.042 1.979 3.581 3.835 3.581q.273 0 .544-.044c.831-.134 1.538-.573 2.069-1.191-.367-1.513-.412-3.054-.412-4.36-.494-.607-1.201-1.432-2.078-2.74M352.375 288.539c3.375 0 6.121-2.696 6.121-6.011s-2.746-6.012-6.121-6.012-6.12 2.697-6.12 6.012 2.745 6.011 6.12 6.011M392.732 294.524a3.5 3.5 0 0 0-.545-.044c-.127 0-.251.016-.375.03-.876 1.309-1.583 2.133-2.076 2.74 0 1.306-.046 2.847-.414 4.36.532.618 1.239 1.057 2.07 1.191q.272.044.545.044c1.855 0 3.504-1.54 3.835-3.581.37-2.282-.995-4.409-3.04-4.74" style="fill:#fff"/><path d="M393.863 276.695c-2.231.032-4.333 1.015-5.652 2.786.148.627.136 1.179.934 1.902-.325 1.041-1.232 1.521-2.134 1.957l-1.839 3.896c-1.673 5.116-3.332 1.568-3.332.044 0-3.734-3.641-7.738-8.142-7.738-4.605 0-8.331 4.846-8.331 10.834 0 5.634 3.784 10.191 7.183 10.191 2.909 0 4.094-2.012 7.72-1.773 2.102 5.146-5.864 13.111-13.11 13.111-6.655 0-13.356-8.001-12.685-20.879a9 9 0 0 1-2.1.257 8.9 8.9 0 0 1-3.686-.8c-3.494 6.33-10.816 14.366-17.603 14.366-13.948 0-20.136-13.534-17.776-19.371 0 0 7.197 8.794 13.06 8.794 5.474 0 10.69-6.466 9.674-13.324.814-5.405-4.106-9.778-9.184-9.778-5.349 0-5.702 2.256-9.676 2.256.411-1.974 3.85-3.663 4.744-5.791 3.344-7.81-6.452-12.858-14.429-12.858-7.976 0-17.773 5.049-14.429 12.858.895 2.128 4.334 3.817 4.745 5.791-3.974 0-4.328-2.256-9.676-2.256-5.077 0-9.997 4.374-9.184 9.778-1.016 6.857 4.2 13.324 9.673 13.324 5.863 0 13.059-8.794 13.059-8.794 2.359 5.837-3.827 19.371-17.775 19.371-6.787 0-14.11-8.037-17.603-14.366a8.9 8.9 0 0 1-3.685.8 9 9 0 0 1-2.1-.257c.671 12.878-6.029 20.879-12.684 20.879-7.246 0-15.213-7.966-13.11-13.111 3.625-.239 4.81 1.773 7.719 1.773 3.398 0 7.183-4.558 7.183-10.191 0-5.988-3.726-10.834-8.331-10.834-4.501 0-8.142 4.004-8.142 7.738 0 1.524-1.659 5.072-3.332-.044l-1.84-3.896c-.901-.437-1.809-.916-2.133-1.957.798-.723.786-1.275.934-1.902-1.32-1.772-3.421-2.754-5.653-2.786-3.952 0-7.872 2.613-7.872 5.844 0 1.397.776 2.527 1.734 2.527 1.238 0 1.786-1.376 3.156-2.883.96-1.056 3.077-2.93 4.605-2.93 1.72 0 2.393.971 2.393.971-.29 3.08-4.492.022-4.492 3.155 0 2.92 4.559 9.315 4.559 9.315.713 2.167 1.579 2.422 7.115 2.054-2.025.419-3.663 2.15-3.663 4.807 0 3.648 3.185 9.183 6.413 12.068 4.462 3.987 10.587 5.624 16.623 4.17 6.58-1.584 11.821-4.145 13.309-17.588 7.882 10.883 14.485 11.479 20.723 10.984 12.259-.971 18.379-7.169 21.76-18.458 3.379 11.289 9.5 17.487 21.759 18.458 6.238.494 12.843-.102 20.725-10.984 1.487 13.444 6.728 16.004 13.309 17.588 6.036 1.454 12.161-.183 16.622-4.17 3.229-2.885 6.414-8.42 6.414-12.068 0-2.657-1.638-4.388-3.663-4.807 5.536.369 6.402.114 7.115-2.054 0 0 4.559-6.395 4.559-9.315 0-3.133-4.201-.075-4.492-3.155 0 0 .673-.971 2.394-.971 1.527 0 3.645 1.875 4.604 2.93 1.37 1.507 1.919 2.883 3.156 2.883.958 0 1.734-1.13 1.734-2.527.001-3.231-3.92-5.844-7.871-5.844" style="fill:#fff"/><path d="M307.5 271.207a6.946 6.946 0 0 1 6.946 6.947 6.947 6.947 0 1 1-6.946-6.947" style="fill:#ed9e21"/><path d="M307.5 274.448a3.71 3.71 0 0 0-3.707 3.706 3.71 3.71 0 0 0 3.707 3.706 3.71 3.71 0 0 0 3.705-3.706 3.71 3.71 0 0 0-3.705-3.706" style="fill:#fff"/><path d="M245.913 290.162c.134.969-.373 4.314.134 5.804 2.079-3.542 2.196-6.521-.601-9.666-.346 1.079.609 2.666.467 3.862M283.341 286.647c.081-.036-1.76.347.719 1.199-.317-.226.182-.641-.719-1.199M283.031 277.493c-1.532 1.513-1.538 3.267-1.517 4.976.048.782.622 5.612 1.536 2.751-.955-2.839.467-5.163-.019-7.727M369.086 290.162c-.134.969.372 4.314-.134 5.804-2.079-3.542-2.196-6.521.601-9.666.346 1.079-.61 2.666-.467 3.862M331.657 286.647c-.081-.036 1.76.347-.719 1.199.318-.226-.181-.641.719-1.199M331.968 277.493c1.532 1.513 1.538 3.267 1.518 4.976-.048.782-.622 5.612-1.536 2.751.953-2.839-.468-5.163.018-7.727" style="fill:#ed9e21"/><path d="M332.955 519.29a4.16 4.16 0 0 0-4.158 4.157 4.166 4.166 0 0 0 4.158 4.155 4.164 4.164 0 0 0 4.152-4.155 4.16 4.16 0 0 0-4.152-4.157m0 7.296a3.14 3.14 0 0 1-3.146-3.139 3.145 3.145 0 1 1 6.287 0 3.14 3.14 0 0 1-3.141 3.139" style="fill:#fff"/><path d="M332.955 520.302a3.141 3.141 0 1 0 0 6.285 3.143 3.143 0 0 0 0-6.285m0 6.031a2.895 2.895 0 0 1-2.895-2.886 2.9 2.9 0 0 1 2.895-2.893 2.897 2.897 0 0 1 2.889 2.893 2.89 2.89 0 0 1-2.889 2.886" style="fill:#ed9e21"/><path d="M332.955 519.038a4.406 4.406 0 1 0 0 8.813 4.407 4.407 0 0 0 0-8.813m0 8.564a4.166 4.166 0 0 1-4.158-4.155 4.16 4.16 0 0 1 4.158-4.157 4.16 4.16 0 0 1 4.152 4.157 4.163 4.163 0 0 1-4.152 4.155" style="fill:#ed9e21"/><path d="M337.977 524.66c-.022-4.156-2.58-6.141-5.075-6.155-2.421.018-4.842 1.863-4.913 6.051l-.892-.014c.025-4.552 2.889-6.95 5.805-6.93 2.997.006 5.961 2.494 5.967 7.048h-.311l-.564.152a.4.4 0 0 1-.017-.152m-9.989-.104h.002z" style="fill:#ed9e21"/><path d="M282.042 519.29a4.16 4.16 0 0 1 4.159 4.157 4.166 4.166 0 0 1-4.159 4.155 4.163 4.163 0 0 1-4.152-4.155 4.16 4.16 0 0 1 4.152-4.157m0 7.296a3.142 3.142 0 1 0 0-6.285 3.143 3.143 0 0 0 0 6.285" style="fill:#fff"/><path d="M282.042 520.302a3.142 3.142 0 1 1 0 6.285 3.143 3.143 0 0 1 0-6.285m0 6.031a2.895 2.895 0 0 0 2.895-2.886 2.9 2.9 0 0 0-2.895-2.893 2.896 2.896 0 0 0-2.888 2.893 2.89 2.89 0 0 0 2.888 2.886" style="fill:#ed9e21"/><path d="M282.042 519.038a4.406 4.406 0 1 1 0 8.813 4.407 4.407 0 0 1 0-8.813m0 8.564a4.167 4.167 0 0 0 4.159-4.155 4.16 4.16 0 0 0-4.159-4.157 4.16 4.16 0 0 0-4.152 4.157 4.163 4.163 0 0 0 4.152 4.155" style="fill:#ed9e21"/><path d="M277.021 524.66c.022-4.156 2.581-6.141 5.076-6.155 2.42.018 4.841 1.863 4.913 6.051l.891-.014c-.025-4.552-2.889-6.95-5.804-6.93-2.998.006-5.961 2.494-5.967 7.048h.311l.564.152a.5.5 0 0 0 .016-.152m9.989-.104h-.003zM290.141 517.797h34.718v7.283h-34.718z" style="fill:#ed9e21"/><path d="M292.816 519.234h7.666c.602 0 1.097.521 1.097 1.158v2.09c0 .639-.495 1.159-1.097 1.159h-7.666c-.603 0-1.097-.521-1.097-1.159v-2.09c.001-.636.494-1.158 1.097-1.158M303.669 519.234h7.668c.603 0 1.096.521 1.096 1.158v2.09c0 .639-.493 1.159-1.096 1.159h-7.668c-.602 0-1.095-.521-1.095-1.159v-2.09c0-.636.493-1.158 1.095-1.158M314.516 519.234h7.668c.602 0 1.096.521 1.096 1.158v2.09c0 .639-.494 1.159-1.096 1.159h-7.668c-.602 0-1.094-.521-1.094-1.159v-2.09c0-.636.492-1.158 1.094-1.158" style="fill:#fff"/><path d="M349.091 517.718h-13.546c1.29.969 2.532 1.136 4.016 5.311h8.238zM265.907 517.715h13.547c-1.292.97-2.534 1.137-4.018 5.312H267.2zM262.842 494.31h89.313v23.28h-89.313zM346.505 487.96h-78.012c-7.17 0-11.302 2.162-12.662 6.059h103.337c-1.361-3.897-5.492-6.059-12.663-6.059" style="fill:#ed9e21"/><path d="M342.402 488.923h6.523v1.195h-6.523zM334.77 488.923h6.522v1.195h-6.522zM327.138 488.923h6.523v1.195h-6.523zM319.504 488.923h6.523v1.195h-6.523zM311.871 488.923h6.523v1.195h-6.523zM304.238 488.923h6.522v1.195h-6.522zM296.608 488.923h6.52v1.195h-6.52zM288.974 488.923h6.523v1.195h-6.523zM281.34 488.923h6.523v1.195h-6.523zM273.707 488.923h6.522v1.195h-6.522zM266.074 488.923h6.523v1.195h-6.523zM272.888 495.018h16.822v12.33h-16.822z" style="fill:#fff"/><path d="M288.817 506.457v-10.546H273.78v10.546z" style="fill:#ed9e21"/><path d="M287.195 496.497h-11.794q-.065 1.007-.946 1.127v8.247h13.686v-8.247q-.881-.12-.946-1.127M325.288 495.018h16.823v12.33h-16.823z" style="fill:#fff"/><path d="M341.219 506.457v-10.546h-15.038v10.546z" style="fill:#ed9e21"/><path d="M339.597 496.497h-11.794q-.065 1.007-.946 1.127v8.247h13.687v-8.247q-.882-.12-.947-1.127M299.088 495.018h16.823v12.33h-16.823z" style="fill:#fff"/><path d="M315.019 506.457v-10.546H299.98v10.546z" style="fill:#ed9e21"/><path d="M313.395 496.497h-11.793q-.065 1.007-.946 1.127v8.247h13.685v-8.247q-.88-.12-.946-1.127" style="fill:#fff"/><path d="M307.5 360.984c-11.626 0-21.049 9.424-21.049 21.049s9.424 21.049 21.049 21.049 21.048-9.424 21.048-21.049-9.424-21.049-21.048-21.049" style="fill:#ed9e21"/><path d="M299.51 397.138q-.016-.032-.041-.089c-.297-.659-1.489-3.538-1.516-6.986a260 260 0 0 1 4.186-3.038c.992-.706 1.747-1.236 2.008-1.42l7.288 2.418 2.007 7.168-.049.079c-.468.756-2.602 3.85-5.914 4.736-2.576-.366-4.58-1.091-5.94-1.726a15 15 0 0 1-1.556-.83 9 9 0 0 1-.393-.254q-.051-.038-.08-.058M291.691 385.846q-.01-.056-.026-.168c-.069-.46-.21-1.605-.21-3.317 0-1.444.101-3.291.428-5.471l.056-.082c.405-.573 2.292-2.982 6.048-4.162 1.605.94 3.138 2.015 4.275 2.86.581.431 1.057.802 1.39 1.065.199.158.345.277.43.346.001.151.004.453.004.882 0 1.414-.029 4.193-.214 7.402a305 305 0 0 0-6.225 4.479c-1.619-.273-3.112-1.222-4.2-2.121a15 15 0 0 1-1.672-1.618q-.055-.06-.084-.095M299.642 366.321l.098-.067c.737-.496 3.976-2.492 7.819-2.502 2.103.722 3.548 1.702 4.467 2.5.461.401.789.757 1.002 1.01.107.126.183.228.233.295l.033.046q.007.17.007.34c0 1.498-.382 3.083-.767 4.288a21 21 0 0 1-.726 1.937 60 60 0 0 1-2.248.822 60 60 0 0 1-5.177 1.545c-.525-.43-3.182-2.566-6.111-4.288q.009-.117.031-.324c.1-.914.418-3.061 1.339-5.602M323.394 380.909c-.068.056-.113.068-.15.069l-6.608-.243-4.367-6.401c.281-.639 1.518-3.589 1.521-6.391q0-.11-.005-.22a9.6 9.6 0 0 1 1.865-.178c1.125 0 2.148.176 2.887.353a11 11 0 0 1 1.161.34q.034.024.127.094c.696.527 3.586 2.925 4.69 6.895-.009 1.621-.177 3.084-.436 4.136-.133.542-.293.976-.455 1.254a1.1 1.1 0 0 1-.23.292M320.226 395.114q-.06.052-.096.08l-.048.008c-.221.034-.809.106-1.84.106-1.004 0-2.431-.069-4.346-.305l-1.99-7.107c.555-.624 3.528-4.002 4.752-6.671l6.442.237.014.022c.355.629 1.792 3.395 1.803 6.685-.761 2.216-1.967 3.982-2.985 5.194a17 17 0 0 1-1.31 1.394c-.168.158-.305.278-.396.357" style="fill:#fff"/><path d="m326.941 375.704-1.984-.7c-1.226-4.259-4.364-6.714-4.92-7.123l-.381-2.282q1.209.899 2.294 1.982a20.3 20.3 0 0 1 4.991 8.123M308.887 361.643l-1.399 1.622c-4.182.045-7.57 2.274-8.114 2.649l-3.919-.395a20.3 20.3 0 0 1 12.046-3.923q.697 0 1.386.047M289.136 373.042l2.258 3.81a37.6 37.6 0 0 0-.428 5.509c0 1.955.181 3.189.239 3.537-.248.373-1.245 1.94-1.868 3.867-.259-.069-.556-.285-.788-.527a4 4 0 0 1-.32-.371 20.4 20.4 0 0 1-1.166-6.834 20.4 20.4 0 0 1 2.073-8.991M289.266 390.249c.006.417.03.807.062 1.154a21 21 0 0 1-.672-1.433c.182.128.386.231.61.279M295.209 398.364c2.149-.273 3.646-.678 4.06-.798.557.39 3.396 2.239 8.103 2.915l1.761 1.923q-.812.065-1.634.065a20.28 20.28 0 0 1-12.29-4.105M321.95 396.484a21 21 0 0 1-2.104 1.837l-.001-.049a6.6 6.6 0 0 1 .518-2.536q.043-.101.067-.154l.003-.005c.398-.329 3.409-2.903 4.902-7.131.78-.055 1.404-.466 1.837-.86q.004-.002.005-.005a20.3 20.3 0 0 1-5.227 8.903" style="fill:#fff"/></svg>