<svg height="1000" viewBox="0 0 1000 1000" width="1000" xmlns="http://www.w3.org/2000/svg"><g transform="matrix(9.2272427 0 0 9.2272427 -3161.6609 -2326.1107)"><path d="m 377.179 337.996 c .707 0 .939 .62 1.142 1.297 c .197 .645 .48 1.275 .733 1.908 c .08 .045 .169 .041 .273 .055 c .055 .041 .089 .035 .138 .035 l 2.707 .05 c .647 .099 .908 .554 .908 .983 c 0 1.045 -2.705 2.238 -2.705 2.582 c 0 .123 .836 2.705 .836 2.828 c 0 .627 -.491 .983 -.983 .983 c -.529 0 -2.957 -1.771 -3.049 -1.771 c -.092 0 -2.509 1.771 -3.049 1.771 c -.504 0 -.959 -.38 -.984 -.986 l .886 -2.819 c -.484 -.38 -1.04 -.883 -1.662 -1.252 c -.725 -.436 -1.094 -.862 -1.094 -1.336 c 0 -.43 .237 -.885 .908 -.983 l 2.756 -.05 c .099 0 .192 -.049 .28 -.062 c .238 -.514 .441 -1.108 .663 -1.643 c .307 -.732 .392 -1.59 1.296 -1.59 z" fill="#fff"/><path d="m 389.102 347.037 c .706 0 .939 .619 1.142 1.295 c .196 .646 .478 1.277 .732 1.909 c .08 .044 .169 .04 .274 .056 c .055 .04 .088 .035 .138 .035 l 2.708 .048 c .645 .1 .906 .554 .906 .984 c 0 1.045 -2.705 2.237 -2.705 2.581 c 0 .124 .836 2.706 .836 2.828 c 0 .627 -.49 .984 -.982 .984 c -.529 0 -2.958 -1.771 -3.049 -1.771 c -.094 0 -2.509 1.771 -3.05 1.771 c -.504 0 -.96 -.381 -.983 -.986 l .886 -2.818 c -.484 -.381 -1.04 -.884 -1.662 -1.252 c -.726 -.437 -1.094 -.863 -1.094 -1.337 c 0 -.431 .236 -.885 .908 -.984 l 2.757 -.048 c .099 0 .192 -.049 .28 -.063 c .238 -.514 .441 -1.108 .662 -1.644 c .307 -.731 .391 -1.588 1.296 -1.588 z" fill="#fff"/><path d="m 396.84 267.199 c .716 0 5.055 2.92 5.587 3.209 c 3.039 1.645 6.268 3.408 9.436 4.261 c 1.689 .449 3.604 .593 5.414 .753 l 2.984 .122 h 5.594 c .662 0 1.744 .213 1.744 1.074 V 288.6 c 0 7.37 .092 6.979 .016 7.565 c -.207 1.507 -.1 1.763 -.123 2.738 c -.031 1.035 -.053 2.081 -.137 2.926 c -.305 3.053 -.541 6.109 -1.182 9.14 c -.479 2.261 -1.088 4.716 -1.789 7.067 c -.586 1.957 -1.486 4.123 -2.438 6.156 c -1.227 2.619 -3.119 5.572 -5.158 8.107 c -1.873 2.329 -4.451 5.037 -6.805 6.803 c -1.324 .998 -2.719 2.064 -4.143 3.047 c -.518 .358 -7.874 4.779 -9.001 4.779 c -.426 0 -3.349 -1.512 -3.882 -1.793 c -3.616 -1.941 -7.483 -4.42 -11.091 -7.74 c -2.445 -2.246 -4.541 -4.693 -6.324 -7.107 c -.685 -.929 -1.235 -1.997 -1.806 -2.926 c -2.779 -4.545 -4.228 -9.021 -5.486 -13.529 c -1.118 -4.004 -1.454 -8.304 -1.866 -12.309 l -.366 -8.042 v -16.94 c 0 -.312 .679 -1.126 1.131 -.997 l 10.105 -.122 c 2.687 -.16 5.555 -.493 8.334 -1.665 c .913 -.381 1.915 -.851 2.859 -1.399 c 2.52 -1.462 5.168 -3.159 7.794 -5.016 c .163 -.116 .447 -.144 .599 -.144 z" fill="#fff"/><path d="m 396.265 268.836 c -11.676 7.949 -13.845 7.949 -27.949 7.949 h -1.079 l -.01 7.042 c -.103 23.293 -.21 47.381 29.157 61.664 l .469 .228 l .47 -.225 c 29.613 -14.162 29.367 -38.17 29.131 -61.387 l -.051 -7.315 l -1.072 -.007 c -13.01 0 -14.682 0 -27.898 -7.98 l -.594 -.358 z m .642 2.174 c 12.824 7.706 15.244 7.929 27.351 7.934 c .01 1.48 .033 5.185 .033 5.185 c .022 2.045 .043 4.104 .043 6.165 c 0 9.349 -.434 18.738 -3.281 27.173 c -3.875 11.475 -11.576 19.694 -24.192 25.842 c -12.516 -6.2 -20.179 -14.469 -24.078 -25.998 c -3.078 -9.103 -3.406 -19.303 -3.406 -29.37 c 0 -1.373 .005 -2.742 .012 -4.105 c 0 0 .004 -3.439 .007 -4.892 c 13.185 -.004 16.085 -.212 27.511 -7.934 z" fill="#162577"/><path d="m 409.557 287.672 c -.228 -.426 -.326 -1.197 -.31 -2.296 c .016 -.902 .115 -1.543 .295 -1.936 c .264 -.508 .607 -.722 1.066 -.623 c .197 .033 .377 .115 .541 .279 c .148 .147 .295 .344 .395 .59 c .066 .131 .115 .361 .18 .656 l 1.773 -.311 c -.215 -.984 -.543 -1.756 -1.002 -2.314 c -.459 -.574 -1.082 -.968 -1.902 -1.164 c -1.035 -.247 -1.839 0 -2.412 .771 c -.592 .804 -.902 2.083 -.936 3.806 c -.016 1.313 .148 2.379 .476 3.232 c .312 .837 .69 1.428 1.132 1.755 c .443 .313 1.017 .477 1.725 .477 c .572 0 1.049 -.131 1.426 -.361 c .377 -.246 .689 -.591 .935 -1.051 c .246 -.458 .443 -1.033 .559 -1.706 l -1.74 -.902 c -.082 .59 -.246 1.034 -.426 1.346 c -.197 .295 -.492 .442 -.871 .426 c -.395 -.034 -.69 -.247 -.904 -.674 z m 9.187 2.773 h 2.084 l -2.313 -8.351 l -2.184 -.132 l -2.525 8.467 h 2.035 l .31 -1.41 l 1.148 .016 l 1.133 .032 z m -42.769 -3.118 c .787 -.032 1.394 -.294 1.788 -.804 c .165 -.229 .296 -.475 .394 -.77 c .132 -.378 .197 -.822 .197 -1.314 c 0 -.508 -.05 -.879 -.181 -1.224 c -.082 -.246 -.197 -.442 -.345 -.607 c -.36 -.41 -.885 -.558 -1.624 -.509 l -.542 .017 l -2.789 .075 v 8.252 h 2.002 v -3.084 l .771 -.033 h .329 z m 6.923 3.085 h 2.099 l -2.331 -9.165 l -2.246 .208 l -2.264 8.285 l -.181 .689 h .181 h 1.854 l .312 -1.477 l 1.131 -.049 l 1.133 -.033 z m 8.038 -1.623 c .263 -.607 .46 -1.362 .574 -2.281 l -1.755 -.739 c -.082 .722 -.23 1.28 -.427 1.674 c -.18 .377 -.476 .59 -.87 .606 c -.394 .033 -.689 -.164 -.902 -.591 c -.23 -.41 -.329 -1.197 -.311 -2.362 c 0 -.952 .098 -1.657 .278 -2.133 c .246 -.656 .591 -1.05 1.05 -1.165 c .198 -.049 .378 -.017 .542 .083 c .165 .099 .296 .278 .411 .508 c .065 .147 .115 .395 .181 .722 l 1.772 -1.082 c -.213 -1.182 -.558 -2.018 -1.017 -2.478 c -.459 -.442 -1.1 -.525 -1.92 -.263 c -1.033 .329 -1.837 1.034 -2.428 2.084 c -.558 1.033 -.87 2.362 -.87 4.019 c -.016 1.23 .148 2.248 .476 3.019 c .311 .804 .705 1.362 1.148 1.69 c .443 .311 1.018 .492 1.723 .492 c .574 0 1.05 -.148 1.411 -.442 c .377 -.312 .688 -.755 .934 -1.361 z m 7.695 1.574 l .099 -12.583 l -2.018 -.164 l -.033 4.462 l -2.165 .131 l .033 -4.38 l -2.003 .442 l -.065 12.107 l 1.986 -.016 l .016 -5.07 l 2.165 -.082 l -.016 5.151 h 2.001 z m 7.514 -4.315 l .1 -6.414 l -1.986 -.493 l -.098 6.858 c 0 .623 -.099 1.116 -.295 1.428 c -.197 .344 -.46 .492 -.805 .475 c -.361 -.033 -.623 -.23 -.82 -.607 c -.18 -.361 -.295 -.886 -.279 -1.526 l .1 -7.218 l -2.002 -.509 l -.082 7.35 c -.017 .607 .049 1.313 .18 2.1 c .066 .492 .197 .968 .411 1.427 c .196 .46 .442 .804 .689 1.051 c .246 .262 .559 .409 .935 .492 c .361 .082 .705 .131 1.018 .131 c .541 0 1.018 -.131 1.394 -.378 c .277 -.163 .541 -.475 .804 -.901 c .246 -.428 .442 -.903 .558 -1.478 c .112 -.558 .178 -1.148 .178 -1.788 z m 15.988 -5.453 l .084 11.163 h -50.736 l -.017 -11.214 c 12.57 0 14.847 .051 25.426 -7.164 c 11.952 7.215 13.71 7.215 25.243 7.215 z m -4.832 3.829 l .066 -.247 l .641 3.069 l -.707 -.033 l -.705 -.034 z m -41.655 -.64 c .263 0 .46 .082 .559 .23 c .147 .163 .196 .394 .196 .655 c 0 .262 -.065 .492 -.229 .672 c -.115 .148 -.294 .23 -.525 .279 c -.099 .017 -.18 .017 -.278 .033 l -.493 .017 v -1.854 l .574 -.033 c .065 .001 .131 -.015 .196 .001 z m 5.808 -.115 l .722 3.199 l -.722 .066 l -.706 .049 z" fill="#162577"/><path d="m 406.133 328.436 l -.521 -.33 l -.313 -4.256 l -.255 -.412 l -.276 -6.538 l -2.655 -1.3 l .313 -.121 c 0 0 1.795 .957 2.369 1.148 c .243 -.383 .313 -.695 .627 -.888 c .139 -.261 -.384 -.958 -.384 -.958 l -.958 -2.299 l -.473 .096 l -.346 -2.899 v -.452 c .818 -3.884 .959 -2.107 -.191 -5.521 l -3.256 -.767 v -1.289 l .19 -.122 c .069 .07 .697 .575 .697 .697 l -.123 .07 c 0 .261 .507 .504 .646 .696 h .436 c .191 -.191 .383 -.382 .453 -.435 c .191 .191 .191 .121 .191 .244 c .07 0 -.262 .383 -.191 .383 l .452 -.052 c .122 -.14 .505 -.575 .122 -.905 c -.122 -.505 -.574 -.697 -.645 -1.081 l -.505 -.452 v -1.271 l -.122 -.122 v -.262 l -.574 -.505 c -.263 0 0 0 -.576 .191 c 0 .07 0 .07 0 .07 c -.068 0 -.191 .052 -.191 0 c 0 -.07 -.069 -.14 0 -.331 c -.069 -.191 -.451 -.505 -.574 -.628 l -.331 .244 c -.052 -.122 -.191 -.244 -.243 -.122 l -.262 .314 c -.191 0 -.191 -.575 -.191 -.697 c 0 -.07 -.123 -.07 -.123 -.07 v .331 l -.33 .628 h -.053 c -.574 -.505 -.695 -.819 -1.41 -.767 l -.435 .383 l -.122 -.122 c -.191 .505 -.627 .505 -.383 .888 c 0 .191 0 .382 -.122 .522 c -.191 .053 -.122 0 -.26 -.14 c -.053 .14 -.123 .192 -.315 .332 c 0 -.07 -.069 -.139 -.122 -.139 l -.383 .191 c 0 0 0 0 -.069 0 c -.192 .14 -.314 .193 -.453 .315 l -.052 .574 c -.332 0 -.192 0 -.192 .07 c 0 .191 -.261 .069 -.261 .069 c 0 0 -.07 -.261 -.191 -.069 c 0 .191 0 .453 .191 .453 c .383 .191 .575 .314 .644 .505 c 0 .122 -.069 .575 -.069 .888 l -.575 .383 c 0 .139 -.122 .139 -.122 .139 c 0 .122 .244 .314 .244 .314 c 0 .122 0 .122 -.121 .192 c -.122 0 -.191 -.07 -.261 -.07 c -.052 0 -.191 .07 -.191 .191 c 0 .192 0 .505 0 .888 c 0 -.383 -.052 .436 -.174 .436 l -.453 .26 l .122 .888 l .14 .192 c .191 .121 .052 .574 .052 .574 l -.653 6.718 l -.619 .039 c 0 0 0 0 -.123 0 c .123 .192 .123 .453 .123 .575 c -.07 0 -.191 0 -.191 .069 l -.192 .122 c 0 .14 0 .14 -.122 .14 l -.139 .557 l -.384 .262 v .574 l .846 .683 l -.202 3.532 l -.122 .122 l -.139 2.995 l -.384 .383 l -.052 .959 v .068 l -.139 1.969 l -.122 1.289 l -.453 .435 v 1.411 l 9.878 .584 l 6.698 -.657 z m -1.01 -3.257 l -.053 .209 l -2.524 -.261 l .036 .766 h -.523 l .139 -1.01 z m -.505 -1.254 l -3.691 -.244 l .138 -.679 l .959 .122 l .818 .191 l .053 .296 l 1.898 .053 z m -1.009 -3.082 l .416 .679 l .401 .14 l .035 .835 l -.558 -.051 l -.504 -.07 z m .173 1.968 l -1.706 -.07 l -1.499 -.104 l .419 -.608 l .836 .469 l .992 -.017 z m -3.307 -1.551 l -.002 -4.094 l .596 -1.357 l .204 .604 l .004 5.127 z m 2.048 .954 l -1.066 -.036 v -1.162 l 1.066 .19 z m -.308 -5.343 l .315 .697 l -.006 3.239 l -1.066 -.194 v -3.488 l .393 -.148 z m -.174 -6.181 c .086 .105 .209 .191 .297 .261 l -.471 .401 l -.244 -.367 z m .644 2.472 l -1.08 .018 l -.836 -.018 l 1.027 -.627 c .088 .087 .786 .539 .889 .627 z m -1.968 -4.371 l .088 -2.039 l .4 .21 l .035 1.933 l .017 1.862 c -.156 .141 -.365 .175 -.575 .07 c -.017 -.852 .052 -.852 .035 -2.036 z m -.174 3.36 c .088 .088 .191 .175 .297 .263 l -.488 .382 l -.227 -.348 z m -.627 1.253 l 3.588 -.086 c .088 .105 -.279 .366 -.174 .453 l -3.919 .297 z m -7.837 2.563 l -.609 -.279 l 5.486 -.715 l .174 -.016 l -.035 .209 l -.226 .19 z m .122 .348 l -.4 .088 c 0 0 -.175 .139 -.244 .277 c -.035 0 -.249 -.121 -.231 -.207 c .017 -.019 .439 -.398 .439 -.398 z m 1.394 -2.752 l .673 -.495 l .936 .22 l -.914 .902 z m 2.525 7.001 l .086 -3.499 l .522 -.402 l .21 -.418 l .418 .158 l -.002 3.949 z m 1.233 .137 V 322 l -1.408 .097 l .087 -1.149 z m -1.094 -4.509 c .035 -.052 .365 -.696 .469 -.663 l .106 .192 l -.367 .61 z m -.366 5.243 l -.017 .505 l -.401 -.156 l -.418 .505 l -1.707 -.018 v -.749 z m -2.717 -4.442 l -.018 1.394 l -.313 .105 l .053 -1.377 h .07 l .139 -.209 z m -.366 2.351 l .209 -.469 l .104 .208 l -.034 3.292 l -.471 .209 l .105 -3.204 z m .436 3.275 l 2.142 -.227 l 1.985 -.174 l -.383 .33 l -1.566 .156 l -3.1 .279 z m 4.389 -.297 l .818 .07 l 1.672 .103 l -.627 .279 l -1.098 .088 l -1.306 -.176 z m -.087 -16.693 l .522 .219 v 3.784 c -.141 .157 -.297 .188 -.522 .083 c 0 -.023 0 -4.086 0 -4.086 z m .003 4.307 l .52 .16 v 2.631 l -.522 .311 z m 1.025 2.93 c .086 .087 .853 .47 .957 .558 l -.992 .539 l -.697 -.609 z m -.506 9.282 l -.521 -.148 l -.001 -5.633 l .296 .103 l .227 -.418 v 6.096 z m .311 .03 l .002 -5.429 l .819 -.208 l .569 -1.672 l .406 .66 l .001 6.668 z m .349 -19.814 l .873 -.418 l -.004 1.003 l -.973 .303 z m -5.467 1.202 c .052 .122 .07 .105 .227 .035 l .208 .086 l .662 -.574 l .14 .086 l .574 -.436 c .07 -.069 -.383 -.539 -.418 -.574 l .243 -.157 l .349 .262 l .244 .174 l .609 -.436 c -.034 -.104 -.54 -.47 -.644 -.591 c .156 -.21 .278 -.21 .435 -.366 v .018 l .383 .47 l -.017 .209 l .557 .54 l .348 -.017 l .088 .104 c -.053 .278 .713 .244 .992 .139 c .123 0 .244 0 .332 .035 c -.071 .819 -1.168 .453 -1.168 1.185 c -.156 .017 -.731 -.402 -.609 -.663 l .227 -.279 c 0 -.052 -.836 -.54 -.731 -.47 c -.697 -.157 -1.655 1.167 -2.213 1.671 l .14 .14 c 0 0 -.156 .191 -.174 .209 l -.94 .053 c 0 0 -.052 -.714 -.052 -.749 c .035 -.069 .103 -.121 .208 -.104 z m 2.682 .575 l -.244 -.122 l .244 -.348 l .261 -.018 c -.052 .122 -.208 .366 -.261 .488 z m .088 .645 c -.035 .105 -.21 .383 -.262 .505 l -.261 -.122 l .261 -.366 z m .209 -.645 l .034 -.105 l .158 -.104 h .017 c .053 0 .087 .018 .123 .053 l -.105 .121 c -.017 0 -.034 0 -.051 .018 c -.018 .018 -.035 .052 -.035 .07 c -.105 .052 -.122 .122 -.191 .208 c -.053 -.017 -.069 -.069 -.088 -.121 c -.002 -.071 .085 -.088 .138 -.14 z m -.837 .348 l -.173 .209 l -.279 -.349 l .07 -.278 c .086 .087 .295 .331 .382 .418 z m -1.707 .628 c .087 .086 .158 1.028 .244 1.114 l -.731 .052 l -.191 -.662 z m -.843 1.603 l 1.14 .469 l -.365 4.858 l -1.324 .488 z m -.563 6.093 l 1.497 -.608 l .342 -4.979 c 0 0 .142 -.123 .09 -.244 c .244 -.297 .435 -.522 .714 -.784 c -.174 -.139 -.401 -.296 -.592 -.383 c .069 -.175 -.052 -.697 .173 -.75 l 1.167 1.045 c .139 -.018 .035 -.191 .017 -.227 l -.679 -.505 l .07 -.034 c .103 .018 .25 .155 .477 .23 c .355 .118 .842 -.112 .968 -.245 c .038 -.044 1.034 -.967 1.114 -1.031 c .365 .157 .139 .418 .348 .575 c .244 -.105 .297 -.174 .488 -.279 c .558 .087 .558 .209 1.027 -.052 l .191 .086 c 0 .105 .053 7.629 .053 7.629 l -.297 .174 c -.052 .105 -.174 .191 -.313 .209 c -.07 0 -.104 -.07 -.14 -.052 c -.069 -.019 -.069 .052 -.122 .086 l -.498 -.27 v -7.039 l -.407 -.423 l -.645 .366 l -.069 1.985 c -.209 -.087 -.296 -.297 -.435 -.453 c -.175 -.157 .035 -.436 -.106 -.592 l -.243 -.227 c .07 -.191 .226 -.227 .296 -.417 c .121 -.035 .191 -.228 .052 -.262 c -.14 .034 -.21 .227 -.331 .313 c -.069 .121 -.14 .174 -.208 .261 l .086 .297 l .226 .174 l -.034 .296 l -.297 .087 l -.069 -.105 l -.539 .453 c -.018 -.018 -.244 -.192 -.279 -.175 c -.07 .088 -.697 .609 -.819 .871 c 0 .052 .07 .052 .105 .105 c .104 0 .54 -.47 .593 -.574 l .156 .14 c -.349 .365 -.593 .8 -.94 1.166 l -.105 1.933 l -.052 .785 c .052 .033 .14 .069 .209 .051 c .105 -.278 .07 -.644 .087 -.975 c .069 -.523 .122 -1.08 .122 -1.603 l .8 -.957 l .07 .104 c 0 .036 -.314 .662 -.347 .68 v 2.021 l -.019 .73 l .035 .123 c .14 0 .558 0 .732 .121 l -.07 .35 c -.018 .033 -.035 .051 -.053 .103 h -.818 c -.017 .019 -.017 .035 -.017 .054 c 0 .053 .052 .103 .122 .139 c .088 -.069 .227 -.069 .314 0 l .14 -.052 l .21 .069 l -.018 .122 l -.159 .423 c 0 0 -.98 -.283 -1.181 -.35 c -.201 -.067 -.29 -.065 -.421 .029 c -.119 .092 -1.784 1.328 -1.888 1.417 z m 4.629 -.295 l -.087 -.087 l -.314 -.14 l .069 -.121 c 0 -.035 -.034 -.054 -.069 -.07 l -.122 .035 c -.017 .017 -.017 .069 -.017 .105 c -.018 -.035 -.018 -.069 -.069 -.088 c .017 0 .069 -.017 .069 -.069 c .017 -.035 -.018 -.068 -.052 -.103 c -.017 0 -.034 0 -.053 0 l -.034 -.279 c .034 -.035 .121 0 .156 -.053 c .035 .018 .035 .035 .069 .053 c .088 -.053 .421 -.25 .421 -.25 l -.002 -3.215 l -.436 -.523 l -.069 -.209 l .575 .227 l -.784 -.522 c -.103 .035 -.33 .313 -.295 .296 l -.192 -.069 l .453 -.523 l .784 .383 l .174 .209 c .018 0 .035 .035 .052 .07 l .106 1.654 l -.018 3.378 z m .313 .33 l -.035 .454 l -1.463 -.4 l .453 -.61 c .087 .104 .941 .487 1.045 .556 z m -1.393 -2.926 v 1.15 c 0 0 -.262 .156 -.314 .139 l -.122 -2.315 c .192 .4 .262 .609 .436 1.026 z m -5.294 5.453 l 3.726 -2.753 l 3.606 1.046 l -.54 .033 l -3.1 -.766 l -3.71 2.734 z m .034 .486 l .644 -.131 l .386 .249 l -.419 .369 z m .767 1.238 l .313 -.054 l .661 -.614 l .314 .302 l -.122 3.953 l -1.399 .234 z m -.284 4.151 l 1.438 -.228 l -.128 1.318 l -1.374 .078 z m -.102 2.018 l .037 -.527 l 1.289 -.121 l -.279 .592 l -.226 .365 l -1.15 -.017 z m 1.065 5.115 c 0 .088 .018 .035 .018 .158 l -1.08 .033 l -1.062 -.104 l -.035 -.157 z m -2.315 1.121 v -.369 l 2.471 .113 l -.003 .374 z m 2.594 -1.416 l -1.672 -.401 l 1.672 .069 c 0 .105 0 .191 0 .332 z m -.053 -.889 l -1.847 .018 l .262 -1.133 l .14 -1.254 l 1.411 .053 l .174 1.219 z m .54 -2.351 l .017 -.627 l .54 .14 l 1.794 -.104 l .139 .296 l -.331 .209 z m 4.319 1.289 l -.157 1.097 l -1.985 .088 l .104 -1.516 l .453 -.94 l 1.62 .139 z m .954 3.449 l -.525 .068 l .01 -5.252 l .516 .127 v 5.057 z m 1.954 .104 h -1.55 c -.07 -.053 .088 -.053 .227 -.069 h .157 h 1.427 c -.052 .016 -.103 .051 -.261 .069 z m -1.688 -2.438 l .209 -1.446 l .486 -.14 l -.139 -1.08 l 1.324 .279 l .068 1.219 l .088 1.254 z m -2.613 -3.641 l -3.587 .088 l 1.393 -.609 l 2.404 -.105 l 4.546 .105 l .14 .591 z m 5.765 2.578 l -.088 1.149 l -.696 .035 l .157 -.939 l .139 -.628 l .14 -.888 l .4 .016 z m 1.166 1.968 c -.018 .052 -.068 .052 -.087 .105 l -.226 .087 c -.018 0 -.053 0 -.07 0 c -.035 0 -.053 -.018 -.07 -.053 l -.227 -.156 l -.087 -.104 c .018 0 .036 0 .053 -.018 c .034 .018 .069 .018 .087 0 l .104 .018 c .017 -.035 .088 0 .141 0 c .018 -.035 .07 0 .121 0 c .035 -.035 .087 0 .141 0 c 0 -.018 .017 -.018 .053 -.018 l .068 .07 c -.001 0 -.001 .052 -.001 .069 z m 3.135 1.323 l -2.857 .242 l -.104 -.678 l .992 -.034 l 1.186 .069 l .836 .018 z" fill="#162577"/><path d="m 377.833 305.116 l -.026 -.615 c .317 -.249 .544 -.519 .684 -.809 c .139 -.29 .201 -.619 .185 -.986 c -.025 -.58 -.261 -1.065 -.707 -1.456 c -.447 -.389 -.973 -.571 -1.579 -.544 c -.61 .026 -1.121 .254 -1.532 .684 c -.411 .43 -.603 .933 -.578 1.508 c .015 .36 .104 .679 .266 .958 c .161 .279 .398 .52 .708 .722 l .026 .604 c -.461 -.222 -.818 -.526 -1.074 -.913 c -.256 -.387 -.395 -.838 -.417 -1.353 c -.032 -.742 .202 -1.377 .704 -1.905 c .501 -.528 1.137 -.809 1.908 -.842 c .363 -.016 .71 .038 1.042 .161 c .33 .123 .632 .311 .905 .563 c .26 .238 .46 .507 .598 .807 c .139 .299 .216 .627 .232 .982 c .022 .515 -.083 .983 -.315 1.405 c -.235 .421 -.577 .764 -1.03 1.029 z" fill="#162577"/><path d="m 379.31 306.054 l .061 .51 l -4.651 .569 l .221 1.811 l -.498 .06 l -.284 -2.32 z" fill="#162577"/><path d="m 379.727 309.313 l .106 .502 l -3.055 .645 c -.329 .069 -.563 .134 -.704 .193 c -.141 .061 -.259 .136 -.352 .223 c -.143 .14 -.242 .299 -.296 .48 c -.054 .182 -.06 .369 -.018 .568 c .042 .199 .126 .373 .25 .518 c .124 .146 .278 .252 .462 .317 c .124 .044 .261 .063 .414 .061 c .153 -.003 .392 -.039 .721 -.107 l 3.055 -.645 l .103 .49 l -3.229 .682 c -.658 .139 -1.177 .111 -1.556 -.082 c -.379 -.193 -.624 -.559 -.737 -1.094 c -.12 -.567 -.049 -1.018 .21 -1.355 c .261 -.335 .726 -.574 1.399 -.716 z" fill="#162577"/><path d="m 378.531 315.762 c .13 .391 .149 .708 .059 .955 c -.091 .248 -.292 .423 -.604 .526 c -.314 .105 -.578 .088 -.793 -.052 c -.215 -.141 -.388 -.408 -.52 -.803 l -.229 -.687 l 1.86 -.62 z m 2.066 -.907 c .122 .365 .145 .661 .07 .889 c -.076 .229 -.249 .388 -.521 .479 c -.304 .1 -.553 .079 -.748 -.066 c -.195 -.146 -.371 -.456 -.53 -.932 l -.1 -.299 l 1.666 -.555 z m -4.773 .538 l .365 1.094 c .188 .565 .457 .948 .807 1.15 c .351 .201 .773 .221 1.268 .055 c .277 -.092 .495 -.239 .654 -.441 c .159 -.203 .238 -.433 .237 -.689 c .153 .127 .323 .205 .51 .236 c .189 .029 .388 .01 .598 -.06 c .408 -.138 .687 -.378 .838 -.724 c .15 -.347 .149 -.75 -.005 -1.209 l -.352 -1.054 z" fill="#162577"/><path d="m 383.218 320.875 c .314 .541 .401 1.063 .26 1.563 c -.142 .5 -.487 .91 -1.038 1.23 c -.559 .325 -1.094 .433 -1.604 .325 c -.511 -.106 -.914 -.413 -1.207 -.918 l -.603 -1.038 l 3.637 -2.113 z m -4.866 .977 l .679 1.168 c .235 .404 .444 .695 .625 .874 c .182 .178 .398 .321 .648 .432 c .387 .167 .782 .236 1.189 .206 c .406 -.032 .806 -.162 1.201 -.391 c .66 -.385 1.076 -.903 1.25 -1.559 c .174 -.654 .066 -1.317 -.323 -1.988 l -.785 -1.35 z" fill="#162577"/><path d="m 385.472 323.522 l 1.685 2.107 l -.382 .307 l -1.365 -1.706 l -1.443 1.153 l 1.361 1.701 l -.383 .306 l -1.36 -1.7 l -1.46 1.169 l 1.36 1.7 l -.382 .307 l -1.681 -2.102 z" fill="#162577"/><path d="m 414.688 302.635 l .016 -.512 l 4.684 .136 l .053 -1.823 l .502 .015 l -.068 2.337 z" fill="#162577"/><path d="m 415.559 305.309 c .471 -.369 .998 -.52 1.584 -.453 c .625 .069 1.129 .331 1.514 .783 c .383 .452 .541 .97 .475 1.556 c -.066 .596 -.334 1.075 -.801 1.439 c -.467 .363 -1.008 .511 -1.619 .441 c -.605 -.066 -1.098 -.328 -1.48 -.785 c -.383 -.455 -.541 -.972 -.477 -1.55 c .065 -.587 .333 -1.064 .804 -1.431 z m -1.213 2.382 c .092 .321 .246 .618 .463 .891 c .232 .294 .5 .527 .809 .701 c .307 .173 .641 .28 1.002 .32 c .768 .086 1.44 -.093 2.016 -.537 c .578 -.445 .908 -1.038 .99 -1.779 c .045 -.388 .012 -.754 -.098 -1.102 c -.109 -.348 -.293 -.669 -.551 -.963 c -.225 -.255 -.484 -.456 -.777 -.604 c -.291 -.147 -.621 -.242 -.986 -.283 c -.369 -.041 -.723 -.013 -1.061 .085 c -.336 .099 -.642 .263 -.924 .492 c -.279 .227 -.498 .487 -.658 .781 c -.162 .295 -.262 .623 -.303 .984 c -.041 .357 -.014 .696 .078 1.014 z" fill="#162577"/><path d="m 416.088 312.797 c .094 -.399 .246 -.681 .453 -.844 c .205 -.162 .469 -.205 .789 -.13 c .322 .075 .537 .229 .647 .462 c .111 .231 .117 .551 .021 .955 l -.166 .705 l -1.908 -.45 z m -2.235 -.313 c .088 -.374 .225 -.639 .408 -.793 c .184 -.156 .416 -.199 .693 -.134 c .313 .073 .514 .223 .602 .448 c .09 .227 .076 .584 -.039 1.072 l -.07 .305 l -1.711 -.402 z m 4.344 2.05 l .264 -1.123 c .137 -.579 .109 -1.046 -.082 -1.402 c -.191 -.357 -.541 -.593 -1.049 -.713 c -.285 -.067 -.547 -.056 -.789 .032 c -.242 .09 -.43 .244 -.564 .462 c -.063 -.188 -.166 -.345 -.311 -.469 c -.145 -.124 -.324 -.212 -.539 -.263 c -.42 -.1 -.783 -.041 -1.094 .176 c -.311 .215 -.52 .559 -.631 1.03 l -.256 1.081 z" fill="#162577"/><path d="m 411.973 316.901 l .859 -2.466 l .484 .17 l -.346 .99 l 4.414 1.539 l -.168 .484 l -4.416 -1.539 l -.344 .99 z" fill="#162577"/><path d="m 410.068 320.938 l .228 -.459 l 2.793 1.396 c .301 .149 .523 .245 .672 .286 c .148 .041 .287 .056 .414 .046 c .199 -.021 .375 -.086 .531 -.193 c .154 -.107 .275 -.252 .367 -.432 c .092 -.184 .135 -.371 .127 -.563 c -.006 -.191 -.061 -.369 -.164 -.535 c -.07 -.111 -.164 -.213 -.285 -.306 c -.121 -.093 -.332 -.214 -.633 -.364 l -2.793 -1.397 l .225 -.448 l 2.953 1.476 c .602 .302 .99 .645 1.166 1.032 c .176 .387 .143 .825 -.102 1.315 c -.26 .52 -.596 .828 -1.008 .93 c -.412 .102 -.926 -.002 -1.539 -.309 z" fill="#162577"/><path d="m 407.895 324.191 l 1.464 -2.107 l .422 .293 l -1.178 1.695 l 1.49 1.033 l 1.176 -1.695 l .422 .293 l -1.178 1.695 l 1.93 1.34 l -.285 .412 z" fill="#162577"/><path d="m 396.776 254.801 c .706 0 .938 .62 1.142 1.296 c .197 .646 .479 1.277 .733 1.909 c .079 .044 .169 .041 .273 .055 c .054 .04 .089 .035 .138 .035 l 2.707 .049 c .647 .099 .908 .554 .908 .983 c 0 1.046 -2.705 2.238 -2.705 2.582 c 0 .123 .836 2.705 .836 2.828 c 0 .627 -.491 .983 -.983 .983 c -.529 0 -2.957 -1.77 -3.049 -1.77 c -.092 0 -2.508 1.77 -3.049 1.77 c -.504 0 -.959 -.38 -.984 -.986 l .887 -2.818 c -.484 -.381 -1.04 -.883 -1.662 -1.252 c -.725 -.437 -1.094 -.863 -1.094 -1.337 c 0 -.43 .237 -.885 .908 -.983 l 2.756 -.049 c .099 0 .192 -.048 .28 -.063 c .239 -.513 .441 -1.109 .663 -1.643 c .307 -.732 .392 -1.589 1.295 -1.589 z" fill="#fff"/><path d="M 394.785 261.232 L 391.852 259.137 L 395.549 259.046 L 396.776 255.784 L 398.018 259.046 L 401.701 259.137 L 398.767 261.232 L 399.83 264.54 L 396.776 262.579 L 393.738 264.54 Z" fill="#162577"/><path d="m 409.648 259.389 c .707 0 .94 .62 1.143 1.296 c .195 .646 .479 1.276 .732 1.909 c .078 .044 .168 .041 .273 .055 c .055 .04 .088 .035 .139 .035 l 2.707 .049 c .647 .099 .908 .554 .908 .984 c 0 1.045 -2.707 2.237 -2.707 2.582 c 0 .123 .836 2.705 .836 2.828 c 0 .627 -.49 .984 -.982 .984 c -.529 0 -2.957 -1.771 -3.049 -1.771 c -.092 0 -2.51 1.771 -3.05 1.771 c -.505 0 -.959 -.38 -.983 -.986 l .886 -2.818 c -.483 -.382 -1.04 -.884 -1.661 -1.252 c -.725 -.437 -1.094 -.864 -1.094 -1.337 c 0 -.43 .236 -.885 .908 -.984 l 2.756 -.049 c .098 0 .191 -.049 .279 -.063 c .239 -.513 .441 -1.109 .664 -1.643 c .307 -.732 .391 -1.59 1.295 -1.59 z" fill="#fff"/><path d="M 407.657 265.82 L 404.724 263.725 L 408.422 263.635 L 409.648 260.372 L 410.891 263.635 L 414.572 263.725 L 411.639 265.82 L 412.701 269.128 L 409.648 267.167 L 406.609 269.128 Z" fill="#162577"/><path d="m 421.707 262.922 c .707 0 .941 .62 1.143 1.296 c .197 .645 .479 1.276 .732 1.909 c .08 .044 .17 .041 .273 .055 c .055 .04 .09 .035 .141 .035 l 2.705 .049 c .646 .099 .908 .554 .908 .984 c 0 1.045 -2.705 2.238 -2.705 2.582 c 0 .123 .836 2.705 .836 2.828 c 0 .627 -.49 .984 -.982 .984 c -.529 0 -2.959 -1.771 -3.051 -1.771 c -.09 0 -2.508 1.771 -3.049 1.771 c -.504 0 -.959 -.38 -.982 -.987 l .885 -2.818 c -.484 -.382 -1.039 -.883 -1.66 -1.252 c -.727 -.437 -1.096 -.864 -1.096 -1.337 c 0 -.43 .238 -.885 .91 -.984 l 2.756 -.049 c .098 0 .191 -.049 .279 -.063 c .238 -.514 .441 -1.109 .662 -1.643 c .307 -.732 .393 -1.589 1.295 -1.589 z" fill="#fff"/><path d="M 419.717 269.353 L 416.783 267.257 L 420.48 267.168 L 421.709 263.904 L 422.949 267.168 L 426.633 267.257 L 423.697 269.353 L 424.762 272.661 L 421.709 270.7 L 418.67 272.661 Z" fill="#162577"/><path d="m 372.007 262.922 c .707 0 .939 .62 1.142 1.296 c .197 .645 .479 1.276 .733 1.909 c .08 .044 .168 .041 .273 .055 c .055 .04 .089 .035 .138 .035 l 2.707 .049 c .647 .099 .908 .554 .908 .984 c 0 1.045 -2.706 2.238 -2.706 2.582 c 0 .123 .836 2.705 .836 2.828 c 0 .627 -.491 .984 -.983 .984 c -.529 0 -2.957 -1.771 -3.049 -1.771 c -.093 0 -2.508 1.771 -3.049 1.771 c -.504 0 -.959 -.38 -.984 -.987 l .886 -2.818 c -.483 -.382 -1.041 -.883 -1.661 -1.252 c -.725 -.437 -1.094 -.864 -1.094 -1.337 c 0 -.43 .236 -.885 .908 -.984 l 2.755 -.049 c .099 0 .192 -.049 .28 -.063 c .239 -.514 .441 -1.109 .663 -1.643 c .309 -.732 .393 -1.589 1.297 -1.589 z" fill="#fff"/><path d="M 370.016 269.353 L 367.083 267.257 L 370.78 267.168 L 372.007 263.904 L 373.249 267.168 L 376.931 267.257 L 373.997 269.353 L 375.06 272.661 L 372.007 270.7 L 368.969 272.661 Z" fill="#162577"/><path d="m 383.579 259.451 c .707 0 .939 .62 1.142 1.295 c .197 .646 .479 1.277 .733 1.909 c .08 .044 .169 .041 .273 .055 c .055 .04 .089 .035 .138 .035 l 2.707 .049 c .647 .099 .908 .554 .908 .984 c 0 1.045 -2.705 2.238 -2.705 2.582 c 0 .123 .835 2.704 .835 2.828 c 0 .627 -.491 .984 -.983 .984 c -.529 0 -2.957 -1.771 -3.049 -1.771 c -.092 0 -2.508 1.771 -3.049 1.771 c -.504 0 -.959 -.38 -.983 -.987 l .886 -2.818 c -.483 -.381 -1.04 -.884 -1.662 -1.253 c -.725 -.436 -1.094 -.863 -1.094 -1.336 c 0 -.43 .237 -.885 .908 -.984 l 2.756 -.049 c .099 0 .192 -.049 .28 -.063 c .238 -.514 .441 -1.109 .663 -1.643 c .308 -.731 .393 -1.588 1.296 -1.588 z" fill="#fff"/><path d="M 381.588 265.881 L 378.655 263.786 L 382.352 263.695 L 383.579 260.433 L 384.821 263.695 L 388.503 263.786 L 385.569 265.881 L 386.633 269.189 L 383.579 267.228 L 380.541 269.189 Z" fill="#162577"/><path d="m 371.467 296.461 c .465 20.57 5.197 34.57 25.41 44.347 c 20.288 -9.621 24.981 -23.656 25.35 -44.347 z m 25.408 43.852 c -19.76 -9.559 -24.386 -23.246 -24.84 -43.354 h 49.625 c -.365 20.227 -4.951 33.947 -24.785 43.354 z" fill="#162577"/><path d="M 371.38199 292.76599 H 389.73599 V 295.52699 H 371.38199 Z" fill="#12692c"/><path d="M 403.785 292.76599 H 422.139 V 295.52699 H 403.785 Z" fill="#d8141d"/><path d="M 387.049 353.406 L 384.116 351.311 L 387.813 351.221 L 389.04 347.957 L 390.281 351.221 L 393.965 351.311 L 391.03 353.406 L 392.094 356.715 L 389.04 354.753 L 386.002 356.715 Z" fill="#ab830d"/><path d="M 375.188 344.366 L 372.254 342.272 L 375.952 342.182 L 377.179 338.918 L 378.42 342.182 L 382.102 342.272 L 379.169 344.366 L 380.232 347.674 L 377.179 345.713 L 374.14 347.674 Z" fill="#ab830d"/><path d="m 416.849 337.996 c -.706 0 -.938 .62 -1.142 1.297 c -.197 .645 -.48 1.275 -.732 1.908 c -.08 .045 -.17 .041 -.273 .055 c -.055 .041 -.09 .035 -.139 .035 l -2.707 .05 c -.647 .099 -.908 .554 -.908 .983 c 0 1.045 2.705 2.238 2.705 2.582 c 0 .123 -.836 2.705 -.836 2.828 c 0 .627 .491 .983 .983 .983 c .529 0 2.958 -1.771 3.049 -1.771 c .093 0 2.509 1.771 3.05 1.771 c .504 0 .959 -.38 .983 -.986 l -.886 -2.819 c .483 -.38 1.039 -.883 1.661 -1.252 c .726 -.436 1.094 -.862 1.094 -1.336 c 0 -.43 -.237 -.885 -.908 -.983 l -2.756 -.05 c -.099 0 -.192 -.049 -.28 -.062 c -.238 -.514 -.441 -1.108 -.662 -1.643 c -.308 -.732 -.393 -1.59 -1.296 -1.59 z" fill="#fff"/><path d="m 404.926 347.037 c -.706 0 -.939 .619 -1.142 1.295 c -.196 .646 -.478 1.277 -.732 1.909 c -.08 .044 -.169 .04 -.275 .056 c -.055 .04 -.088 .035 -.138 .035 l -2.708 .048 c -.645 .1 -.906 .554 -.906 .984 c 0 1.045 2.705 2.237 2.705 2.581 c 0 .124 -.836 2.706 -.836 2.828 c 0 .627 .49 .984 .983 .984 c .529 0 2.958 -1.771 3.049 -1.771 c .094 0 2.509 1.771 3.05 1.771 c .505 0 .96 -.381 .983 -.986 l -.887 -2.818 c .484 -.381 1.041 -.884 1.662 -1.252 c .726 -.437 1.094 -.863 1.094 -1.337 c 0 -.431 -.236 -.885 -.907 -.984 l -2.757 -.048 c -.099 0 -.191 -.049 -.279 -.063 c -.238 -.514 -.441 -1.108 -.662 -1.644 c -.309 -.731 -.393 -1.588 -1.297 -1.588 z" fill="#fff"/><path d="M 406.978 353.406 L 409.911 351.311 L 406.215 351.221 L 404.987 347.957 L 403.746 351.221 L 400.063 351.311 L 402.997 353.406 L 401.934 356.715 L 404.987 354.753 L 408.025 356.715 Z" fill="#ab830d"/><path d="M 418.84 344.366 L 421.773 342.272 L 418.076 342.182 L 416.849 338.918 L 415.607 342.182 L 411.925 342.272 L 414.858 344.366 L 413.795 347.674 L 416.849 345.713 L 419.887 347.674 Z" fill="#ab830d"/></g></svg>