<svg height="1000" viewBox="0 0 1000 1000" width="1000" xmlns="http://www.w3.org/2000/svg"><g transform="matrix(.53206385 0 0 .53206385 170.12041 23.616632)"><path d="m 620 195.6 c 0 0 130.5 13.2 303.9 70.8 c 157.7 52.4 308.1 135.5 308.1 135.5 v 23.8 c 0 567.7 -118.1 916.5 -612 1218.7 c 0 0 -79 -48.4 -152.3 -105 C 88.5 1245.8 8 914.9 8 425.7 v -23.8 c 0 0 150.3 -83.1 308 -135.5 c 173.4 -57.6 304 -70.8 304 -70.8" fill="#1b2741"/><path d="M 320.2 279.1 C 492.1 222 620 209 620 209 c 0 0 128 13 299.8 70.1 c 156.5 52 298.9 130.7 298.9 130.7 v 15.9 c 0 487.1 -79.9 813.1 -454.5 1103 c -72.7 56.2 -144.2 99.9 -144.2 99.9 c 0 0 -71.6 -43.7 -144.2 -99.9 C 101.2 1238.8 21.3 912.8 21.3 425.7 v -15.9 c 0 0 142.4 -78.7 298.9 -130.7" fill="#fff"/><path d="M 712.2 553 L 620 719.2 L 527.7 553 L 281.3 553 L 131.2 996.8 L 356.4 1059.7 L 405.9 919.3 L 447.4 1058.1 L 792.5 1058.1 L 834.1 919.3 L 883.6 1059.7 L 1108.8 996.8 L 958.7 553 Z" fill="#1b2741"/><path d="m 254.3 331.3 v 190 l -148.5 441 c -35.6 -124.4 -58 -291.4 -58 -536.6 c 0 0 87.9 -48.6 206.5 -94.4 m 0 733.4 v 199 C 207.4 1196.9 163 1127.4 127.5 1030.4 Z m 515.3 24.8 v 401 c -81.1 65 -149.6 106.9 -149.6 106.9 c 0 0 -70.3 -43 -152.7 -109.3 v -398.5 h 302.3 z m 213 178.6 v -203 l 130.4 -36 c -36.4 99.8 -82.2 170.5 -130.4 239 M 769.6 521.3 H 696.3 L 620 660.7 L 543.6 521.3 H 467.2 V 264.7 c 93.1 -22.6 152.7 -28.8 152.7 -28.8 c 0 0 58.3 6 149.6 28 v 257.4 z m 213 0 V 330.1 c 120.1 46.2 209.6 95.6 209.6 95.6 c 0 248.5 -22.9 416.6 -59.2 541.8 z" fill="#1b2741"/><path d="M 364.6 77.5 L 380.7 127.8 L 435.9 127.8 L 390.7 158.8 L 406.9 209 L 364.6 178 L 322.3 209 L 338.5 158.8 L 296.2 127.8 L 348.4 127.8 Z" fill="#1b2741"/><path d="M 868.9 74 L 885.1 124.3 L 937.4 124.2 L 895.1 155.3 L 911.3 205.5 L 868.9 174.5 L 826.7 205.5 L 842.8 155.3 L 800.5 124.2 L 852.8 124.3 Z" fill="#1b2741"/><path d="M 104.2 179.1 L 120.3 229.3 L 172.6 229.3 L 133.3 260.3 L 149.4 310.6 L 107.1 279.5 L 64.8 310.6 L 81 260.3 L 35.7 229.3 L 88 229.3 Z" fill="#1b2741"/><path d="M 1127.3 180.5 L 1143.5 230.7 L 1195.8 230.7 L 1153.5 261.8 L 1169.7 312 L 1127.3 280.9 L 1085 312 L 1101.2 261.8 L 1058.9 230.7 L 1111.1 230.7 Z" fill="#1b2741"/><path d="M 273.3 1453.5 L 292.4 1512.8 L 354.3 1512.8 L 304.3 1549.5 L 323.4 1608.9 L 273.3 1572.2 L 223.4 1608.9 L 242.5 1549.5 L 192.5 1512.8 L 254.2 1512.8 Z" fill="#be9600"/><path d="M 969.3 1455.5 L 988.4 1514.9 L 1050.2 1514.8 L 1000.2 1551.5 L 1019.3 1610.9 L 969.3 1574.2 L 919.3 1610.9 L 938.5 1551.5 L 888.4 1514.8 L 950.2 1514.9 Z" fill="#be9600"/><path d="M 773.2 1632.7 L 792.3 1692.1 L 854.1 1692 L 804.1 1728.7 L 823.3 1788.1 L 773.2 1751.4 L 723.2 1788.1 L 742.4 1728.7 L 692.3 1692 L 754.1 1692.1 Z" fill="#be9600"/><path d="M 469.2 1632.7 L 488.3 1692.1 L 550.1 1692 L 500.1 1728.7 L 519.2 1788.1 L 469.2 1751.4 L 419.2 1788.1 L 438.4 1728.7 L 388.3 1692 L 450.1 1692.1 Z" fill="#be9600"/><path d="M 616.8 2.6 L 632.9 52.8 L 688.1 52.8 L 642.9 83.8 L 659.1 134.1 L 616.8 103 L 574.5 134.1 L 590.6 83.8 L 548.3 52.8 L 600.6 52.8 Z" fill="#1b2741"/></g></svg>