<svg height="1000" viewBox="0 0 1000 1000" width="1000" xmlns="http://www.w3.org/2000/svg"><g transform="matrix(7.8463114 0 0 7.8463114 -1775.6196 -2650.9453)"><path d="M 264.502 361.682 L 263.534 356.881 L 267.213 353.551 L 262.218 353.048 L 260.205 348.595 L 258.23 352.97 L 253.235 353.628 L 256.914 356.881 L 256.023 361.605 L 260.205 359.359 Z" fill="#ffd804"/><path d="M 264.502 361.682 L 263.534 356.881 L 267.213 353.551 L 262.218 353.048 L 260.205 348.595 L 258.23 352.97 L 253.235 353.628 L 256.914 356.881 L 256.023 361.605 L 260.205 359.359 Z" fill="#ffd804"/><path d="M 264.502 361.682 L 263.534 356.881 L 267.213 353.551 L 262.218 353.048 L 260.205 348.595 L 258.23 352.97 L 253.235 353.628 L 256.914 356.881 L 256.023 361.605 L 260.205 359.359 Z" fill="#ffd804"/><path d="M 264.502 361.682 L 263.534 356.881 L 267.213 353.551 L 262.218 353.048 L 260.205 348.595 L 258.23 352.97 L 253.235 353.628 L 256.914 356.881 L 256.023 361.605 L 260.205 359.359 Z" fill="#ffd804"/><path d="M 325.486 361.682 L 324.518 356.881 L 328.119 353.551 L 323.201 353.048 L 321.188 348.595 L 319.175 352.97 L 314.257 353.628 L 317.935 356.881 L 316.968 361.605 L 321.11 359.359 Z" fill="#ffd804"/><path d="M 325.486 361.682 L 324.518 356.881 L 328.119 353.551 L 323.201 353.048 L 321.188 348.595 L 319.175 352.97 L 314.257 353.628 L 317.935 356.881 L 316.968 361.605 L 321.11 359.359 Z" fill="#ffd804"/><path d="M 325.486 361.682 L 324.518 356.881 L 328.119 353.551 L 323.201 353.048 L 321.188 348.595 L 319.175 352.97 L 314.257 353.628 L 317.935 356.881 L 316.968 361.605 L 321.11 359.359 Z" fill="#ffd804"/><path d="M 325.486 361.682 L 324.518 356.881 L 328.119 353.551 L 323.201 353.048 L 321.188 348.595 L 319.175 352.97 L 314.257 353.628 L 317.935 356.881 L 316.968 361.605 L 321.11 359.359 Z" fill="#ffd804"/><path d="M 293.271 354.093 L 292.303 349.292 L 295.981 346.04 L 290.986 345.498 L 288.973 341.045 L 286.999 345.498 L 282.004 346.117 L 285.682 349.37 L 284.714 354.016 L 288.896 351.809 Z" fill="#ffd804"/><path d="M 293.271 354.093 L 292.303 349.292 L 295.981 346.04 L 290.986 345.498 L 288.973 341.045 L 286.999 345.498 L 282.004 346.117 L 285.682 349.37 L 284.714 354.016 L 288.896 351.809 Z" fill="#ffd804"/><path d="M 293.271 354.093 L 292.303 349.292 L 295.981 346.04 L 290.986 345.498 L 288.973 341.045 L 286.999 345.498 L 282.004 346.117 L 285.682 349.37 L 284.714 354.016 L 288.896 351.809 Z" fill="#ffd804"/><path d="M 293.271 354.093 L 292.303 349.292 L 295.981 346.04 L 290.986 345.498 L 288.973 341.045 L 286.999 345.498 L 282.004 346.117 L 285.682 349.37 L 284.714 354.016 L 288.896 351.809 Z" fill="#ffd804"/><path d="m 289.516 355.835 c -12.158 12.236 -27.801 16.185 -46.89 11.887 c -2.943 14.52 -2.013 29.66 2.749 45.418 c 7.938 22.225 22.535 38.409 43.869 48.516 l .968 .465 l .891 -.465 c 12.661 -6.467 23.696 -15.836 33.145 -28.071 c 13.28 -20.019 17.655 -42.127 13.126 -66.366 c -17.154 5.305 -33.146 1.549 -47.858 -11.384 z m -44.451 16.108 c 17.346 2.788 32.137 -1.045 44.45 -11.539 c 13.396 11.074 28.536 14.598 45.418 10.493 c 3.291 23.968 -1.665 44.954 -14.714 62.804 c -8.673 10.764 -18.817 19.05 -30.356 25.012 c -19.476 -8.673 -33.337 -24.432 -41.701 -47.237 c -4.103 -14.017 -5.149 -27.143 -3.097 -39.533 z" fill="#ed1c24"/><path d="m 289.516 360.404 c -12.313 10.493 -27.104 14.327 -44.45 11.539 c -2.052 12.39 -1.007 25.516 3.097 39.533 c 8.364 22.806 22.225 38.564 41.701 47.237 c 11.538 -5.962 21.683 -14.248 30.356 -25.012 c 13.049 -17.85 18.005 -38.836 14.714 -62.804 c -16.882 4.105 -32.022 .582 -45.418 -10.493 z m 1.044 3.64 l 1.588 1.433 c .697 .774 2.439 2.168 5.149 4.259 c 2.711 2.014 7.705 3.679 14.984 4.801 c 7.318 1.162 14.171 .813 20.561 -.852 l 1.2 18.004 l -.155 1.239 h .155 h -.155 h -87.506 l -.078 -2.168 l 1.045 -15.836 l .116 -.735 l .31 .039 c 5.537 1.007 10.803 1.123 15.836 .581 c 9.566 -.349 18.549 -3.951 26.95 -10.765 z" fill="#fff"/><path d="m 292.148 365.477 l -1.588 -1.433 c -8.402 6.814 -17.385 10.416 -26.949 10.764 c -5.034 .542 -10.299 .426 -15.836 -.581 v 0 l -.31 -.039 l -.116 .735 l -1.045 15.836 l .078 2.168 h 87.506 l .155 -1.239 l -1.162 -18.004 c -6.428 1.665 -13.28 2.013 -20.599 .852 c -7.279 -1.122 -12.273 -2.788 -14.984 -4.801 c -2.71 -2.09 -4.453 -3.484 -5.15 -4.258 z m 11.538 24.47 v 0 h .077 z m -2.284 .156 v -.078 l .116 .078 z m .968 -.078 l .077 .193 h -.077 z m 1.394 0 v 0 h -.077 z m 11.035 .078 v -.078 l .155 .078 z m 5.227 0 h -.233 v -.078 z m -68.185 -10.919 h .077 v .077 z m 8.557 -1.24 l .078 .039 h -.078 z m 4.569 .117 v .078 z" fill="#ed1c24"/><path d="M 301.402 390.103 L 301.519 390.103 L 301.402 390.025 Z" fill="#cbccce"/><path d="M 314.799 390.103 L 314.954 390.103 L 314.799 390.025 Z" fill="#cbccce"/><path d="M 320.026 390.103 L 319.794 390.025 L 319.794 390.103 Z" fill="#cbccce"/><path d="M 251.841 379.184 L 251.918 379.261 L 251.918 379.184 Z" fill="#cbccce"/><path d="M 260.398 377.944 L 260.398 377.983 L 260.476 377.983 Z" fill="#cbccce"/><path d="m 258.114 395.91 h -10.841 v 5.499 c 1.82 9.641 5.266 18.469 10.26 26.33 h .581 z" fill="#ed1c24"/><path d="m 277.435 395.794 h -10.841 v 42.863 c 3.059 3.175 6.389 6.156 10.067 8.943 h .774 z" fill="#ed1c24"/><path d="M 284.249 395.794 L 284.249 453.177 L 289.786 456.506 L 295.207 453.177 L 295.207 395.794 Z" fill="#ed1c24"/><path d="m 313.482 395.794 h -10.841 v 51.807 h .852 c 3.601 -2.787 7.008 -5.769 9.989 -8.943 z" fill="#ed1c24"/><path d="m 332.455 395.446 h -10.842 v 31.789 h .542 c 4.995 -7.821 8.402 -16.572 10.3 -26.329 z" fill="#ed1c24"/><path d="m 308.875 383.056 l -4.065 -7.628 l -3.64 -1.316 l 5.575 9.641 l -3.136 5.227 h -.077 l -.62 .968 h .077 l -.077 .078 h 3.214 l 2.749 -5.15 l 3.484 5.266 h 2.788 l -3.833 -5.885 l 4.53 -6.892 l -3.253 -.194 z m 5.305 7.047 h -.155 v -.078 z" fill="#fff"/><path d="M 314.18 390.103 L 314.024 390.025 L 314.024 390.103 Z" fill="#cbccce"/><path d="m 290.406 368.69 l -.271 .62 c -.194 .542 -.271 1.394 -.271 2.362 v 18.275 h .077 v .078 h 2.401 v -5.924 l 4.956 .581 l 1.937 5.537 h 2.438 l -.077 -.193 c -1.858 -6.118 -3.872 -11.964 -5.962 -17.656 l -.426 -1.239 c -.852 -1.742 -2.168 -2.711 -3.833 -3.059 c -.387 .077 -.697 .27 -.89 .619 h -.079 z m 2.284 3.253 l .852 .349 l 2.362 8.015 h .077 l .271 .968 l -3.252 -.31 z m 8.093 18.16 h -.155 v -.078 z" fill="#fff"/><path d="M 300.783 390.103 L 300.628 390.025 L 300.628 390.103 Z" fill="#cbccce"/><path d="m 316.464 390.025 v .078 l 2.981 .039 l .852 -2.478 h 4.221 l 1.395 2.478 h 2.284 l -4.569 -10.609 c -.775 -1.393 -1.665 -2.013 -2.594 -1.935 c -.658 .039 -1.162 .464 -1.588 1.162 h -.077 l -.388 1.045 z m 7.356 -4.607 l -2.903 -.271 l .696 -4.182 z m -4.8 4.607 l .233 .078 h -.233 z" fill="#fff"/><path d="M 319.02 390.025 L 319.02 390.103 L 319.252 390.103 Z" fill="#cbccce"/><path d="m 251.105 379.184 c -.155 .271 -.232 .542 -.155 .891 v 10.222 v .078 h 1.742 v -9.332 l 5.614 8.828 l .155 .155 c .814 .542 1.665 .542 2.478 0 l .233 -.155 c .348 -.697 .542 -1.471 .542 -2.362 v -9.912 l -2.013 .387 h -.078 v 8.015 l .078 .039 v 1.743 l -5.421 -8.479 l -.464 -.465 c -.658 -.426 -1.278 -.503 -1.897 -.155 l -.271 .155 l -.503 .426 z" fill="#fff"/><path d="M 251.144 379.261 L 251.144 379.184 L 251.105 379.184 Z" fill="#cbccce"/><path d="M 259.624 377.944 L 259.624 377.983 L 259.701 377.983 Z" fill="#cbccce"/><path d="m 276.815 375.854 l -.155 1.045 c -.503 3.446 -.503 7.124 0 10.957 v .155 c .426 .968 .89 1.665 1.471 2.013 c .271 .116 .542 .193 .813 .193 h 8.828 v -3.755 l -9.177 .581 v -10.222 l 9.177 -4.608 v -4.143 l -9.603 6.04 c -.542 .271 -.968 .697 -1.162 1.316 h -.077 z" fill="#fff"/><path d="M 264.309 378.138 L 264.231 378.061 Z" fill="#cbccce"/><path d="m 264.309 378.138 l -.077 -.078 l -.232 .349 c -.271 .426 -.465 .968 -.542 1.587 v 7.744 l .155 .465 c .271 .852 .736 1.394 1.51 1.82 l 1.045 .349 h 8.48 v -3.292 l -8.983 .349 v -2.052 l 8.983 -.774 v -3.059 l -9.022 1.045 v -2.865 l 9.022 -1.239 v -3.136 l -8.983 1.665 c -.543 .27 -1.008 .619 -1.356 1.122 z" fill="#fff"/></g></svg>