<svg xmlns="http://www.w3.org/2000/svg" width="1000" height="1000" viewBox="0 0 1000 1000"><path fill="#231f20" d="M500.117 975c347.669-119.021 492.34-536.922 338.951-913.986-58.583 34.168-109.476 49.966-155.646 42.067-34.064-6.256-46.02-43.71-46.02-78.081H363.045c0 34.372-11.798 71.825-46.17 78.081-46.175 7.899-96.964-7.899-156.266-42.067C7.832 438.083 152.196 855.979 500.117 975"/><path fill="#fff" d="M500.117 966.482c340.385-119.121 478.08-528.404 336.59-894.39-56.227 32.527-121.79 50.383-164.165 36.942-30.115-9.237-39.551-41.148-42.22-74.593H369.917c-2.361 33.45-11.599 65.356-41.967 74.593-42.682 13.44-108.146-4.415-164.572-36.941-141.08 365.99-3.383 775.268 336.74 894.389"/><path fill="#231f20" d="M500.117 936.52c340.385-125.07 428.414-525.938 319.558-826.364-57.968 29.961-109.477 36.634-150.72 27.4-28.989-6.672-55.666-34.063-63.153-74.696H394.541c-7.18 40.633-34.368 68.024-63.406 74.697-41.04 9.233-92.137 2.56-151.032-27.4C71.853 410.581 159.995 811.45 500.117 936.52"/><path fill="#0b72ba" d="M500.117 928.83c336.59-131.231 416.516-522.559 314.527-805.13-54.996 23.09-101.781 32.427-140.668 23.909-27.6-6.053-63.36-25.65-75.466-76.131H401.824c-12.314 50.48-47.916 70.078-75.412 76.13-39.095 8.52-85.88-.823-140.469-23.908C83.967 406.271 163.383 797.6 500.117 928.83"/><path fill="#f69320" d="M554.91 71.478h43.61c12.105 50.48 47.866 70.078 75.465 76.13l-1.434 673.587c-34.222 31.703-73.209 59.922-117.637 82.8V71.477M777.816 685.042c93.163-170.937 99.628-387.017 36.833-561.342-12.518 5.135-25.239 9.75-36.833 13.857zM445.126 71.478h-43.298c-12.313 50.48-47.916 70.078-75.411 76.13l1.538 673.587c33.964 31.703 72.851 59.922 117.17 82.8zM222.477 685.042c-93.262-170.937-99.315-387.017-36.53-561.342 12.523 5.135 24.624 9.75 36.43 13.857z"/><path fill="#231f20" d="M500.117 758.097c157.755 0 285.697-128.051 285.697-286.158 0-158.012-127.942-285.955-285.697-285.955-157.695 0-285.85 127.943-285.85 285.955.004 158.107 128.155 286.158 285.85 286.158"/><path fill="#fff" d="M500.117 750.402c154.063 0 278.31-124.762 278.31-278.463 0-153.597-124.251-278.567-278.31-278.567-153.696 0-278.463 124.97-278.463 278.567.005 153.7 124.771 278.463 278.463 278.463"/><path fill="#231f20" d="M500.117 677.044c113.276 0 205.05-91.725 205.05-205.105s-91.774-205.001-205.05-205.001c-113.063 0-205 91.625-205 205 0 113.377 91.937 205.106 205 205.106"/><path fill="#0b72ba" d="M500.117 670.679c109.68 0 198.69-88.852 198.69-198.74s-89.01-198.64-198.69-198.64c-109.883 0-198.74 88.752-198.74 198.64.005 109.888 88.857 198.74 198.74 198.74"/><path fill="#f69320" d="M338.73 588.807c-23.189-32.834-37.348-73.06-37.348-116.868 0-72.236 38.475-135.538 96.65-170.426l.924 3.285c2.872 5.849 6.053 10.468 6.464 15.598.512 5.13 0 14.259 2.972 19.9 2.466 5.542 4.416 9.54 5.85 12.21.823 1.954 3.18 1.954 5.645 1.022 2.253-1.022 4.818-2.05 4.818-2.05l4.931 9.437 32.834 12.726s-.72 9.948-2.972 14.567c-2.158 4.618-20.42 43.61-29.038 59.714-8.315 15.906-19.598 16.729-24.112 21.954-4.515 5.542-15.906 25.139-17.643 27.604-1.34 2.05-1.34 3.796-.308 7.596.923 4.306 11.794 36.217 11.794 36.217s-25.035 30.265-29.55 34.883c-4.614 4.416-12.309 13.857-28.622 13.337zM589.797 294.434c49.047 24.935 86.545 69.155 101.424 123.02l-1.746.923-9.03 1.954-12.825-5.641-15.697 17.34.51-11.292-8.16-7.075-7.695-21.65v-11.184l12.775.72s1.642-2.362 3.08-5.438c2.05-2.461 4.72-7.08 5.027-9.952.715-3.18-.308-11.694-2.357-16.318-2.67-4.311-16.06-12.413-20.063-16.213-4.207-3.791-10.355-8.718-15.906-8.102-5.85.51-10.875 0-21.954-7.596-10.875-7.283-7.387-15.385-7.387-21.031v-2.465M501.868 376.826c2.045-5.338 2.045-12.106 1.23-15.386-1.23-3.492-5.134-12.621-7.7-15.91-2.152-3.384-4.102-5.537-1.641-7.075 2.976-1.027 4.515 0 8.726 3.691 4.004 3.384 9.849 6.157 13.54 5.75 4.212-.823 8.726 1.434 14.259.923 5.85-.511 10.468-3.9 11.495-8.822 2.045 5.845 3.691 12.518 3.691 12.518l9.437 1.954s-3.488 5.334-9.025 7.387c-5.542 2.461-6.768 5.334-8.618 7.18-1.642 1.538-3.9 7.799-3.388 11.798.62 4.003 1.746 10.26 1.746 10.26s-16.516-9.536-21.135-7.795c-4.619 1.538-8.518 4.411-9.744 8.718 0 0-4.004-2.05-5.75-.923-1.335 1.235-1.027 3.8 1.126 5.85 2.362 1.542 6.365 2.768 8.618 1.542 2.054-1.131 3.592 2.669.62 3.483-2.873 1.131-5.442 3.492-4.619 6.88.507 3.176 2.253 6.768-2.873 5.85-5.134-1.031-5.134-3.8-5.134-6.26 0-2.978-1.846-6.158-3.488-6.877-1.746-1.23-3.7-4.623-1.746-7.184 2.253-2.366 4.922-6.36 2.253-8.007-2.461-1.846-6.257-5.542-3.89-6.564 2.058-1.34 5.03-3.393 12.01-2.981M507.301 427.203c-1.13-5.13-5.433-12.518 1.647-9.749 7.075 2.67 32.829 14.983 32.829 19.905 0 5.234 1.126 10.567.72 18.878-.417 8.726-12.215 60.949-18.064 65.464-5.746 4.822-8.614 9.129-11.387 11.798-3.18 2.669-4.718 4.415-5.026 5.437-.719 1.539-1.027 1.539-4.31-.307-3.593-1.746-4.615-2.158-4.72-1.131-.718.927.105 4.107 1.127 5.646 1.027 1.845 1.75 5.645 1.75 5.645l-1.75 3.076s-.208 7.904 0 8.722c.416 1.643-1.845 2.977-3.384 4.103-1.845 1.231-5.849 5.542-5.849 5.542l-9.952-8.206.62-9.848-5.339-2.878s-3.487 1.747-5.13 2.878c-1.746 1.434-9.341 2.773-11.594 4.514-2.158 1.638-7.596 5.542-10.061 7.695a218 218 0 0 0-2.769 3.484l-3.895-1.335-3.691 4.619-1.543 4.311s-3.587 7.899-10.156 6.36c-6.464-1.334-14.57-3.8-6.975-11.182 7.59-7.08 12.924-13.033 15.593-15.182 2.357-2.158 3.895-7.496 13.133-10.061 9.337-2.565 12.617-5.334 15.494-8.93 2.56-3.687 2.56-6.256 8.107-4.41l4.306.719 5.542-6.569-2.873-6.053 7.695-8.107z"/><path fill="#f69320" d="m450.256 570.644 4.311 2.357 4.51-4.922 1.032-3.389 4.926-3.18 4.307.511 5.026 3.692-1.638 15.91-4.415-3.596-6.465 3.596-.615 4.714-5.234 1.135 1.85 8.514-13.34-7.487-.82-12.621M425.221 584.084s9.749 4.004 11.6 7.387c2.256 3.18 6.256 14.775 6.256 14.775s-3.18 1.439-3.484 3.176c-.516 1.547 4.099 12.526 4.099 12.526s-4.099 8.614-6.876 10.057l-1.846-5.75-3.18-1.638v7.388c-4.416-4.103-5.75-5.234-7.085-10.057-1.226-4.618-2.357-9.436-2.357-9.436v-6.266l-3.591-4.306-4.42 1.334 1.13 5.641-3.28 2.054-1.334 2.67-1.33-9.754-3.591.719-2.154-4.307 9.025-6.464zM612.367 633.642l-12.721-4.003-14.264 11.39c-4.307-1.13-13.648-8.31-13.648-8.31l-27.6 9.948s-6.976 10.26-9.337 12.925c-2.258 2.565-3.488 3.9-5.85 4.718-2.768.828-13.128 6.365-18.565 8.007l-2.362 2.158c38.778-1.334 75.512-14.055 105.477-34.982z"/><path fill="#f69320" d="M430.455 285.716c18.977 57.249 126.508 353.771 137.795 373.165l5.642-2.466c-10.365-17.131-117.172-311.093-137.696-372.753z"/><path fill="#f69320" d="M477.037 274.633s-2.362 0-5.95.62c-3.899.51-6.047 1.13-6.047 1.13-17.856 17.236-17.345 18.05-23.09 25.542l-3.08 3.8c-28.32 34.779-47.917 79.004-56.838 127.53-8.106 44.33-6.464 91.01 3.484 131.435 12.521 47.917 36.629 83.623 66.798 100.149 0 0 4.41 1.33 10.26 2.56 6.058 1.23 11.495 1.742 11.495 1.742l-11.083-4.818c-31.911-14.576-58.692-50.685-71.409-100.858-10.264-39.706-11.594-85.876-3.487-128.87 8.617-47.505 27.703-90.802 55.2-125.075l3.383-3.79c5.75-7.08 10.056-12.522 27.4-29.247z"/><path fill="#f69320" d="M396.49 305.725c14.88 0 28.21 1.638 44.22 4.922 34.58 7.903 121.587 35.602 181.197 124.767 22.778 33.856 35.965 63.202 40.683 88.956 4.311 24.107-5.13 53.046-6.36 62.075-1.127 8.926-1.747 10.98-1.747 10.98s3.692-4.823 6.058-7.795c1.637-2.976 2.669-4.211 2.669-4.211 4.614-21.032 9.337-40.841 5.333-62.076-4.723-26.781-18.362-56.643-41.71-91.422-60.949-90.802-149.796-118.917-184.887-127.128-14.572-3.284-27.61-4.818-41.144-4.818 0 0-1.435.303-3.692 2.258z"/><path fill="#f69320" d="M347.14 353.533c38.99-18.878 74.385-34.58 95.014-43.09 23.189-9.133 130.715-28.115 191.655 20.317l-3.592-6.772-3.383-5.438c-32.934-21.24-74.078-25.858-104.45-25.858-36.015 0-69.975 7.283-82.492 12.106-20.724 8.518-56.123 25.242-94.905 43.505z"/><path fill="#f69320" d="M494.476 273.506c12.617 2.878 16.62 3.796 16.62 3.796 19.086 3.08 31.4 15.39 32.427 20.009 2.56 11.083-9.65 59.406-77.674 78.492-49.553 14.16-90.286 13.337-106.603-2.153-7.804-6.88-9.233-16.421-6.772-28.527l-3.488-.724-3.08 2.674c-1.95 12.725.827 23.189 9.137 30.784 9.03 8.822 24.727 13.44 45.139 14.155 19.7.312 42.885-3.28 67.002-10.255 38.783-10.776 58.692-30.165 69.155-44.533 11.903-16.516 15.083-33.037 12.825-41.347-1.23-5.23-9.644-15.494-24.826-21.24 0 0-4.515-.51-11.084-1.126-6.365-.525-18.778-.005-18.778-.005M635.243 331.986v1.637c1.543 25.655 5.646 79.42-136.252 135.642-123.844 49.251-168.471 35.503-182.12 27.292-7.491-4.822-11.798-11.078-12.413-18.57h-2.054l.104 12.825c2.56 3.696 5.745 7.695 11.183 10.776 17.851 10.776 65.46 21.755 187.657-26.677 62.487-24.827 104.45-52.635 125.178-82.388 17.132-25.347 15.386-46.889 14.775-59.302l-.412-1.538zM693.067 431.822l-1.23 3.388c-19.082 38.575-47.56 97.167-157.959 128.562-97.058 27.08-158.31 29.857-200.074 8.722l-1.543 3.384c.928.62.308 2.872.308 2.872 42.994 20.937 105.785 18.06 202.848-9.332 49.553-14.368 87.825-34.784 116.194-63.207 23.492-24.112 34.58-46.075 44.324-65.767l-.823-2.361zM685.471 543.347l-10.667 12.626c-33.91 39.393-71.462 64.944-113.837 77.873-61.872 18.774-113.783 23.289-146.626 13.336l-12.82-2.664s6.157 3.483 9.138 5.225a656 656 0 0 0 7.487 3.492c42.578 13.44 108.454-2.674 144.567-13.752 42.682-13.128 80.443-37.964 114.656-76.955 0 0 .72-2.05 3.08-7.07 2.561-4.416 5.022-12.11 5.022-12.11"/><path fill="#f69320" d="M445.126 321.11c10.567-4.003 17.34-12.205 15.082-18.565-2.361-6.058-12.517-8.111-22.881-4.515-10.364 3.587-16.928 11.282-14.979 17.643 2.353 6.464 12.622 9.133 22.778 5.437"/><path fill="#eb2030" d="M773.301 387.497h66.08l-9.754 28.111h-29.753l-9.03 22.986h29.242l-9.233 26.37h-29.55l-12.517 34.575h29.138l-9.645 27.292h-66.794M616.167 387.497h37.497L611.855 500.05h26.47l-9.646 26.473h-64.02M364.172 429.153h30.369l14.987-41.144c-7.695-2.258-43.501-7.284-65.564 9.337-26.16 20.108-24.93 46.577-13.951 61.768 7.487 9.952 12.413 11.386 12.413 22.266 0 5.23-4.619 11.798-13.54 14.467l7.795-19.805h-32.933l-18.466 49.762c21.234 3.384 42.478 3.999 61.867-3.895 19.697-7.804 32.834-23.293 32.834-42.072 0-9.952-2.158-18.977-9.233-27.495-8.31-9.541-11.902-14.056-11.902-21.647 0-5.546 5.234-10.364 9.54-12.522zM713.28 431.822h30.155l16.213-42.787c-7.794-1.95-43.605-7.283-65.871 9.745-25.958 19.805-24.52 46.075-13.336 61.356 7.08 9.749 12.314 11.292 12.314 22.167 0 5.437-4.922 12.002-13.649 14.567l6.36-19.9h-31.499l-18.728 49.86c20.986 3.389 42.225 4.004 61.822-3.69 19.9-7.696 32.934-23.601 32.934-41.864 0-12.002-2.054-18.263-9.134-26.88-8.206-9.948-12.21-14.875-11.798-22.57 0-5.13 4.926-10.567 9.233-12.725zM518.792 387.497h37.86l-40.63 109.065c-1.433 3.895-.822 6.157 2.77 6.26 4.415.204 5.64-2.152 7.595-6.875l40.628-108.45 36.322.204-41.556 112.349c-6.36 17.855-15.702 31.295-43.917 31.295-31.291 0-45.247-17.85-37.552-38.886zM436.816 484.863l-16.006 41.66h-35.914l51.92-139.437h8.31c41.764 0 55.407 22.881 46.17 55.511-6.768 22.063-31.088 43.397-54.48 42.266m23.293-62.383-10.152 26.27c8.505-2.972 13.947-17.444 10.152-26.27"/><path fill="#eb2030" d="M380.485 441.978h37.046l-8.008 22.682h-36.728"/><path fill="#fff" d="M776.789 393.243h54.584l-5.953 16.724h-29.753l-12.414 34.476h29.858l-6.36 15.693h-28.935l-16.928 44.637h29.237l-6.46 16.928h-54.584M619.758 392.32h26.261L604.16 505.08h26.677l-6.148 16.62h-52.643M721.485 426.692h17.548l13.128-33.042c-6.876-1.642-37.86-4.515-57.76 10.979-19.597 14.467-20.009 40.628-10.364 53.05 6.772 8.515 13.033 12.93 13.033 24.624 0 12.31-14.57 22.266-26.27 21.135l6.673-20.52h-20.52l-15.032 39.706c18.728 3.18 38.117 1.746 54.638-4.719 16.725-7.08 27.7-21.958 27.7-38.375 0-10.464-2.77-16.309-9.338-24.103-6.975-8.83-11.074-13.653-11.074-24.117 0-5.13 4.406-18.262 22.669-19.805zM371.763 424.434h18.055l12.006-32.114c-8.613-2.57-37.14-4.311-57.253 10.771-18.874 14.67-20.208 39.705-9.849 53.046 6.668 8.826 13.34 13.133 13.34 25.243 0 11.798-14.878 21.855-26.477 20.724l6.569-20.624h-20.629l-15.286 39.809c18.774 3.592 38.575 1.746 54.892-5.13 16.725-6.772 28.007-21.551 28.007-38.172 0-10.156-3.384-15.182-10.26-22.98-7.08-9.234-10.776-13.034-10.776-25.447-.203-4.619 4.723-18.06 22.782-18.978zM523.51 392.32h25.347l-38.272 102.907c-1.226 3.488-2.253 12.11 5.954 12.925 8.21.61 12.001-3.076 14.779-9.744l39.298-106.088h25.035l-38.99 106.088c-5.945 15.494-13.129 28.115-38.783 28.115-28.003 0-39.19-14.467-32.318-33.345zM432.916 479.837l-16.417 41.452h-24.216l48.631-129.281h7.7c33.548.312 45.862 21.551 37.755 49.97-6.052 20.108-30.368 39.293-53.453 37.86m24.935-66.795-16.932 45.451c30.78-5.13 30.164-41.755 16.932-45.45"/><path fill="#fff" d="M384.285 447.926h29.446l-4.208 12.007H379.77"/><path fill="#eb2030" d="M213.76 526.83c14.16-5.745 22.678-18.257 18.055-28.11-3.692-9.441-18.878-12.93-33.345-6.98-13.952 5.953-22.47 17.448-18.367 28.423 4.415 9.64 19.389 12.621 33.657 6.668M260.749 489.279c10.771-4.312 17.548-13.857 13.951-21.755-2.768-7.184-14.462-9.849-25.442-5.23-11.39 4.718-17.756 13.44-14.467 21.855 3.076 7.799 15.083 9.848 25.958 5.13M303.02 468.143c7.803-3.488 12.521-9.952 10.056-15.29-2.253-4.927-10.36-7.184-17.544-3.8-7.595 3.289-12.205 9.441-10.26 15.087 2.665 5.641 10.26 6.975 17.747 4.003"/><path fill="#231f20" d="M284.454 349.325c-1.85-1.434-4.416-1.746-6.677-.411-2.565 1.434-3.488 3.08-4.104 4.614-3.795 6.673 2.769 11.604 6.36 9.441 1.132-.923 3.181-2.054 4.416-3.691 1.841-2.158 4-4.207 5.74-6.153 2.566-2.157 7.08-2.976 10.568-1.438 6.773 3.388 7.804 11.287 4.312 17.34-2.362 4.003-4.212 6.772-9.03 7.387-3.795.412-5.949-.615-8.514-1.746l1.95-3.488c1.846.923 6.876 2.877 10.364-1.746.615-.511 1.538-2.258 2.153-4.103.72-1.434 1.027-3.28.72-4.62-.72-3.18-4.103-6.672-8.315-4.41-2.153 1.23-4.207 3.488-5.641 5.135-2.764 3.284-1.434 1.637-5.23 4.818-.923 1.13-3.8 2.768-8.314.922-5.334-2.46-8.822-8.617-5.334-15.593 1.638-2.67 3.592-5.338 5.537-6.465 4.822-2.669 9.242-.723 10.88.407zM309.38 327.783l-9.948 14.359 14.259 9.853-2.664 3.591-30.989-21.442 3.18-3.592 12.93 9.138 9.848-14.164-13.237-9.134 2.773-3.691 30.776 21.542-2.868 3.492M302.404 304.39l3.08-3.492 28.32 24.628-2.773 3.071M313.691 291.769l17.444-16.829 2.972 3.081 5.442 35.091 14.567-13.956 2.976 3.077-18.773 17.647-2.67-2.873-5.64-35.09-13.133 12.928M339.341 268.888l15.702 21.646c2.05 2.158 6.257 4.822 11.595 1.027 5.13-4.307 4.103-9.233 2.158-11.694l-15.703-21.443 3.384-2.465 16.214 21.65c2.46 3.077 4.415 11.283-3.895 17.24-8.008 5.746-14.676 1.638-17.345-2.157l-15.797-21.343zM387.565 241.695c5.646 1.95 10.468 6.772 12.617 11.079 2.669 5.03 4.103 11.39 2.366 17.032-.72 2.158-3.18 5.953-7.492 8.215-4.103 2.357-8.514 2.357-10.567 1.543-6.257-1.543-10.26-6.266-12.726-10.672-2.56-5.026-4.207-11.079-2.357-16.928.516-2.357 2.977-6.36 7.076-8.315 4.722-2.158 8.726-2.158 11.083-1.954m-14.567 12.621c-.615 3.488.204 8.103 2.565 12.002 1.742 4.307 5.641 7.487 8.926 8.618 3.08 1.439 5.948.823 8.726-.72 2.764-1.23 4.818-3.899 5.637-7.179.515-3.18-.407-8.007-2.362-11.698-1.954-4.103-5.541-7.388-8.717-8.826-3.289-1.027-6.47-.715-9.03 1.027-2.773 1.13-4.822 3.904-5.745 6.776M402.34 231.946l6.36 17.548 9.441-23.393 5.334-2.053-8.007 19.294 20.836 15.693-4.514 1.954-17.548-13.445-3.384 7.704 4.61 11.69-4.099 1.95-13.336-35.191M444.407 257.189l-4.515.923 4.31-39.095 4.927-1.226 19.186 34.169-4.41.818-5.954-9.744-12.825 2.461zm1.543-15.698 10.057-2.257-8.31-15.186M566.816 232.462c.204-1.95.204-4.307-1.642-6.36-1.742-2.054-3.384-2.566-5.23-2.67-7.595-1.845-10.775 5.75-7.595 8.822.823 1.022 2.362 2.054 4.619 2.872a71 71 0 0 0 7.491 4.515c2.56 1.85 4.307 5.85 3.687 9.749-1.325 7.184-8.817 10.364-15.792 8.414-4.416-1.23-7.392-2.465-9.442-7.387-1.126-3.289-.922-5.55-.407-8.727l3.588 1.335c-.204 2.054-.616 7.18 4.623 9.744 1.43 0 2.461.923 4.203.923 2.053.308 3.9.308 5.03-.407 2.769-1.335 5.334-5.234 2.357-9.138-2.158-1.43-4.103-3.076-6.36-3.995-3.8-2.47-1.955-1.13-5.95-3.804-1.542-1.127-3.899-3.08-3.184-7.899 1.13-6.053 6.062-10.979 14.164-9.034 2.873.724 6.053 1.955 7.591 3.805 3.488 4.415 2.669 9.025 2.054 10.667zM596.465 253.294l-16.109-6.265-6.464 15.498-3.9-1.438 14.06-34.675 3.895 1.741-6.36 15.083 16.317 6.256 5.85-15.082 4.098 1.538-13.748 34.783-4.307-1.741M622.319 243.645l3.691 1.845-17.747 32.943-3.696-2.054M630.837 292.692l10.667-29.753-18.054 24.211-3.692-2.669 22.158-29.961 4.976 3.592-11.44 31.5 26.934-19.806 5.234 3.7-22.415 29.957-3.7-2.565 18.52-24.42-25.7 19.186M678.396 283.866l3.18 3.08-26.27 26.777-2.872-2.977M690.497 295.664l15.191 18.263-2.669 3.08-35.195 3.389 12.929 15.286-3.284 2.669-16.824-19.398 3.175-2.56 35.4-3.692-11.695-14.06M717.59 330.963 694.704 344.4c-2.46 1.647-5.64 5.75-2.357 11.803 3.588 5.437 8.614 4.718 11.495 3.08l22.67-13.752 2.157 3.8-23.288 13.648c-2.977 2.258-10.98 3.796-16.313-5.026-5.338-8.518-.616-14.67 3.18-16.928l22.777-14.055zM500.533 201.786l6.56 20.212 21.447.204-16.724 12.924 6.053 20.42-17.336-12.204-17.443 12.205 5.849-20.42-16.829-12.925 21.14-.204"/><path fill="#fff" d="m500.533 210.196 4.714 13.752 14.576.1-11.803 9.233 4.312 13.856-11.799-8.21-12.11 8.21 4-13.856-11.491-9.233 14.467-.1"/><path fill="#231f20" d="m407.062 677.044 19.39 7.279-1.539 3.7-15.39-5.75-4.207 11.08 15.083 5.437-1.642 3.904-15.083-5.641-4.307 11.694 16.417 6.668-1.447 3.795-20-7.799M446.872 700.233c.823-1.95.823-4.311-.923-6.266-1.542-2.044-2.877-2.46-4.415-2.868-6.564-1.438-9.744 5.433-7.283 8.614 1.031 1.13 2.053 2.157 4.103 2.976 2.361 1.335 4.31 2.873 6.36 4.515 2.158 1.335 3.9 5.542 2.977 9.134-1.746 7.283-8.618 10.056-14.78 8.41-3.284-1.127-6.464-2.973-8.002-7.08-1.027-3.588-.511-5.433 0-8.31l3.592.823c-.824 2.158-1.439 7.184 3.284 10.056.823.204 2.153.72 4.207.72 1.335.307 2.873.307 4.103-.516 2.565-1.23 5.026-5.022 2.565-9.025-1.75-1.638-3.8-2.972-5.849-4.103-3.492-2.05-1.538-.715-5.026-3.488-1.235-.919-2.972-2.972-2.158-7.899 1.335-5.541 5.85-10.36 13.033-8.618 2.357.512 5.026 2.054 6.36 3.592 3.285 4.411 1.847 8.822 1.335 10.364zM466.88 698.075l-9.956-1.543.615-4.41 23.393 3.388-.615 4.004-9.75-1.23-3.89 32.209-4.107-.303M483.705 727.217l4.207.095-.412 5.338-3.795-.307M506.993 731.936l-.506-25.144h-6.573l-.407-3.284c5.745-1.33 6.464-1.638 7.59-7.59h2.262l1.027 36.013h-3.393M527.821 722.802c.412 2.67 2.461 4.415 4.718 4.51 2.258 0 4.723-1.334 5.85-5.13.723-1.95 1.13-6.767.723-9.03-1.235 1.236-1.85 2.878-2.98 3.489-.715.719-1.335 1.027-2.258 1.13-1.226.412-1.95.412-3.384.412-4.103-.615-6.564-4.103-7.283-7.59a6 6 0 0 1-.824-2.977c0-1.027-.1-2.054 0-3.081 0-1.846.824-3.587 1.127-4.822 2.158-3.18 3.085-4.927 6.98-5.433 2.968 0 5.85 1.225 7.899 4.003 1.642 2.352 2.669 5.745 3.388 10.052 0 1.23.204 2.054.303 3.08.308 1.127.308 1.95.308 3.493.104 1.95 0 4.307-.308 6.36-.303 3.285-1.334 5.95-3.587 7.592-1.335 1.334-2.877 2.361-4.515 2.361-2.67.516-4.822 0-6.47-1.534-1.637-2.053-2.763-4.008-3.08-6.469zm0-10.567c1.126 1.741 2.67 2.157 4.718 1.845 1.643-.208 3.592-1.334 4.212-2.972 1.638-2.773.923-7.6-.62-10.156-1.334-1.85-3.488-2.262-5.23-2.262-1.745.104-3.388 1.027-4.514 3.493-.72 2.148-.72 6.256 1.434 10.052M553.987 717.776c.411 2.665 2.976 3.796 5.026 3.592 2.054 0 4.514-1.846 4.926-5.23.308-2.668.308-7.595-.507-8.93-.719 1.127-1.339 2.357-2.465 3.9-.823.303-1.642.715-2.158 1.127-.615.303-1.746.51-2.872.51-4.515.209-7.284-2.564-9.139-6.152-.407-1.031-.714-2.053-.818-2.773-.1-.918-.1-1.95-.412-2.868-.1-1.85 0-3.492.412-5.03 1.13-3.8 2.46-5.026 6.36-6.261 2.56-.824 5.85 0 7.8 2.361 2.157 2.262 3.795 5.646 5.13 9.238.515 1.226.614 2.253 1.03 3.284.304 1.126.512 2.253.715 3.388.412 1.846.62 4.307.62 6.153 0 3.488-.62 6.356-2.366 8.102-1.334 1.75-2.56 2.565-4.207 3.289-2.67.615-4.415.506-6.673-.72-2.049-1.538-3.284-3.591-4.103-5.944zm-1.85-10.468c1.032 1.746 3.29 2.257 4.927 1.23 1.746-.208 3.08-1.75 3.9-3.487 1.334-2.873 0-7.388-2.566-9.75-1.434-1.637-3.487-2.152-5.23-1.74-1.745.406-3.18 1.74-4.003 4.102-.51 2.258 0 6.365 2.973 9.645M583.125 706.792c-.923.516-3.796 5.547-2.665 8.83l14.567-5.441 1.642 3.795-18.168 6.98c-1.533-6.052-2.764-9.848 1.85-16.928l3.18-4.31c.924-1.539 1.846-4.208.924-7.696-1.335-4.718-5.542-5.333-7.998-4.415-3.9 1.75-3.9 5.546-2.054 10.06l-3.493 1.127c-.923-2.357-2.357-6.772-.615-10.77 1.95-3.394 4.515-4.104 5.949-4.62 4.212-1.334 8.618 1.226 10.776 5.338 3.175 4.818 1.334 10.772-.72 13.744z"/></svg>