<svg xmlns="http://www.w3.org/2000/svg" width="1000" height="1000" viewBox="0 0 1000 1000"><path fill="#413b6f" d="M944.992 30.535v635.44c.984 46.38-25.533 133.214-92.314 181.561-66.777 48.354-184.623 36.507-184.623 36.507C529.59 871.22 494.233 960.02 494.233 960.02s-35.27-88.8-173.734-75.978c0 0-117.846 11.847-184.623-36.507-66.778-48.347-93.293-135.182-92.314-181.56V30.536z"/><path fill="#f36830" fill-rule="evenodd" d="M110.99 293.567H178.7v-53.189H110.99zM43.562 240.147h67.225v-24.669H43.562zM40.634 342.285h70.275v-48.674H40.634zM110.99 393.55h72.592v-51.055H110.99zM45.515 440.827h65.394v-47.308H45.515zM110.99 492.164h62.83v-51.175h-62.83zM40.634 545.297h70.153v-52.92H40.634zM110.99 593.376h59.9V545.58h-59.9zM111.274 680.431l82.511-6.947-11.613-29.528-71.272-.062zM144.452 746.527l84.933-30.9-19.516-22.797-90.058 20.835zM211.455 797.252l70.445-53.54-20.789-7.484-85.293 43.206zM295.302 821.054l46.008-60.903-31.852-9.887L252.83 810.8zM41.61 643.894h69.299v-50.676h-69.3z"/><path fill="#f36830" fill-rule="evenodd" d="m56.915 728.19 62.896-14.525-8.537-33.234-64.637 6.18zM103.812 816.171l72.006-36.737-31.366-32.907-67.735 24.607zM193.391 874.748l59.44-63.948-41.376-13.548-68.346 51.258zM307.098 882.938l27.012-58.347-38.808-3.537-46.377 61.505zM409.048 887.934l2.073-55.655-33.745-4.835-13.854 58.9zM450.053 843.63l-2.753-60.903-33.917-11.118-2.262 60.67zM487.399 940.29l-5.003-72.854-32.343-23.805 3.541 63.587z"/><path fill="#f36830" fill-rule="evenodd" d="m493.965 890.722-.276-43.296-15.027-33.512 3.734 53.522zM377.314 827.155l13.845-60.34-27.112-5.993-29.937 63.77zM877.068 293.81h-67.713V240.62h67.713zM944.486 240.392H877.26v-24.67h67.225zM947.418 342.53h-70.274v-48.674h70.274zM877.068 393.794h-72.596v-51.051h72.596zM942.535 441.071h-65.39v-47.308h65.39zM877.068 492.405h-62.83v-51.176h62.83zM947.418 545.542H877.26v-52.924h70.157zM877.068 593.62h-59.905v-47.796h59.905zM876.776 680.68l-82.5-6.952 11.607-29.527 71.275-.062zM843.604 746.772l-84.936-30.898 19.518-22.804 90.063 20.84zM776.6 797.496l-70.442-53.54 20.784-7.48 85.297 43.203zM692.755 821.295l-46.01-60.897 31.853-9.89 56.63 60.536z"/><path fill="#f36830" fill-rule="evenodd" d="M946.44 644.139h-69.296v-50.68h69.296zM931.141 728.434 868.25 713.91l8.527-33.23 64.637 6.176zM884.243 816.412l-72.004-36.733 31.365-32.907 67.734 24.607zM794.662 874.996l-59.434-63.952 41.372-13.548 68.343 51.262zM680.955 883.179l-27.012-58.343 38.812-3.541 46.378 61.512zM579.01 888.175l-2.075-55.652 33.747-4.838 13.85 58.904z"/><path fill="#f36830" fill-rule="evenodd" d="m538 843.872 2.753-60.897 33.918-11.121 2.264 60.669zM500.657 940.531l5.004-72.85L538 843.87l-3.538 63.588zM493.62 890.86l.07-43.434 15.7-33.271-3.73 53.525zM610.74 827.396l-13.843-60.332 27.109-5.998 29.937 63.77z"/><path fill="none" stroke="#413b6f" stroke-width="11.0713083" d="M944.992 30.535v635.44c.984 46.38-25.533 133.214-92.314 181.561-66.777 48.354-184.623 36.507-184.623 36.507C529.59 871.22 494.233 960.02 494.233 960.02s-35.27-88.8-173.734-75.978c0 0-117.846 11.847-184.623-36.507-66.778-48.347-93.293-135.182-92.314-181.56V30.536z"/><path fill="#f36830" d="M921.613 184.564H66.939V62.044h854.674z"/><path fill="#413b6f" d="M181.174 108.802c-2.982-11.811-14.578-13.967-22.199-13.967-14.357 0-25.954 8.998-25.954 26.715 0 15.84 6.626 28.025 26.285 28.025 6.958 0 18.996-2.811 22.64-18.464h10.382c-4.417 25.401-28.714 26.527-34.68 26.527-18.001 0-35.673-9.938-35.673-35.808 0-20.714 13.918-35.056 37-35.056 20.432 0 31.034 10.78 32.58 22.028zM279.134 88.555h10.714v67.3h-10.714v-31.4h-41.417v31.4h-10.712v-67.3h10.712v27.84h41.417zM340.65 155.855h-10.714v-67.3h10.714zM436.292 108.802c-2.983-11.811-14.58-13.967-22.198-13.967-14.358 0-25.954 8.998-25.954 26.715 0 15.84 6.626 28.025 26.284 28.025 6.958 0 18.999-2.811 22.643-18.464h10.381c-4.418 25.401-28.715 26.527-34.68 26.527-18.002 0-35.674-9.938-35.674-35.808 0-20.714 13.917-35.056 37-35.056 20.43 0 31.035 10.78 32.58 22.028zM519.122 81.994h-7.398l9.831-13.217h11.927zm-2.54 12.84c-17.229 0-27.61 11.53-27.61 27.371 0 15.843 10.381 27.37 27.61 27.37 17.23 0 27.612-11.527 27.612-27.37 0-15.84-10.382-27.37-27.611-27.37m0 62.804c-29.596 0-38.653-20.905-38.653-35.433s9.057-35.43 38.654-35.43c29.6 0 38.657 20.902 38.657 35.43s-9.057 35.433-38.657 35.433M653.75 155.855h-10.712v-67.3h54.892v8.062h-44.18v20.62h38.877v8.062H653.75zM727.196 155.855H715.71v-9.934h11.486zM822.507 108.802c-2.98-11.811-14.576-13.967-22.198-13.967-14.357 0-25.953 8.998-25.953 26.715 0 15.84 6.628 28.025 26.286 28.025 6.958 0 18.995-2.811 22.64-18.464h10.38c-4.417 25.401-28.715 26.527-34.678 26.527-18 0-35.674-9.938-35.674-35.808 0-20.714 13.916-35.056 36.999-35.056 20.433 0 31.035 10.78 32.583 22.028zM877.619 155.855h-11.486v-9.934h11.486z"/><path fill="#fff" d="M822.125 603.974c1.951 47.511-22.776 81.364-22.776 81.364-37.105 66.392-143.854 76.158-143.854 76.158-161.42 16.923-162.07 76.774-162.07 76.774s1.052-59.85-160.368-76.774c0 0-106.743-9.766-143.845-76.158 0 0-24.727-33.853-22.776-81.364.64-48.821-.016-382.408-.016-382.408h655.63s-.575 333.587.075 382.408"/><path fill="none" stroke="#413b6f" stroke-width="7.81193205" d="M822.125 603.974c1.951 47.511-22.776 81.364-22.776 81.364-37.105 66.392-143.854 76.158-143.854 76.158-161.42 16.923-162.07 76.774-162.07 76.774s1.052-59.85-160.368-76.774c0 0-106.743-9.766-143.845-76.158 0 0-24.727-33.853-22.776-81.364.64-48.821-.016-382.408-.016-382.408h655.63s-.575 333.587.075 382.408z"/><path fill="#fff" fill-rule="evenodd" d="m483.975 647.993-3.059-.675c.1-.02.203-.082.358-.103a24 24 0 0 1 2.701.778m37.88 8.206-19.315-4.18c3.073-1.229 6.538-1.976 10.144-2.161 3.259 1.885 6.307 4.03 9.17 6.341m-9.171-6.341c3.348 1.896 6.342 4.036 9.17 6.341l11.39 2.478c-7.112-9.35-16.579-14.752-28.227-17.78 2.887 2.89 5.182 5.905 7.667 8.96m-23.355 23.502c2.289-1.524 4.704-2.942 7.313-3.97.247-4.884.337-9.887.506-14.519-4.181-2.76-8.483-5.31-13.173-6.878l-3.059-.675c-6.125 2.192-11.342 6.242-15.66 10.695-.465 3.63-.238 6.934.13 10.148zm29.329 6.366-10.45-2.268c-3.26-3.059-7.041-6.032-11.608-8.069.227-4.845.334-9.704.548-14.518 1.6-1.142 3.417-2.082 5.392-2.852l19.314 4.18a81 81 0 0 1 6.256 5.616c.434 5.726.152 10.93-1.366 16.29-2.784.282-5.499.87-8.086 1.621m11.579 2.505-11.555-2.505c2.828-.812 5.636-1.407 8.062-1.62a29.4 29.4 0 0 1 3.493 4.125m10.877 2.36-.458-.103c.159-.247.338-.492.475-.722a4 4 0 0 0-.017.826zm-19.26-28.392a110 110 0 0 1 6.27 5.589c2.866.292 5.833 1.084 8.558 2.01a46 46 0 0 0-3.438-5.12zm-13.647 21.26a73 73 0 0 1 4.219 4.294c2-.723 4.088-1.442 6.232-2.027zm-26.386 1.572-11.424-2.491a82 82 0 0 1-4.219-2.444c-.571.351-1.136.775-1.693 1.18l5.912 1.264c-1.456-.747-2.884-1.621-4.233-2.512-.237-1.993-.537-3.9-.777-5.867l23.942 5.2c-2.787 1.826-5.292 3.846-7.508 5.67m52.19 11.321-22.597-4.907a81 81 0 0 0 1.012-3.692 67 67 0 0 1 6.256-2.027l11.555 2.505c1.817 2.519 3.152 5.217 3.775 8.121m6.212 1.339-4.188-.905c1.7-2.034 3.286-4.16 4.621-6.298l.458.104a48 48 0 0 1-.891 7.099m-55.773 8.193-29.277-6.339q-.578-2.688-.536-5.753c2.03-5.348 5.457-9.274 9.848-12.515l5.912 1.263c3.31 1.792 6.775 3.117 9.982 3.764.461-.427.94-.833 1.442-1.273l-11.424-2.491c3.097 1.675 6.262 2.98 10.037 3.733.733 6.18 2.602 12.694 4.997 18.572-.327.344-.671.677-.981 1.039m38.296 8.313c2.192-.56 4.218-1.235 6.077-2.12 2.23-4.15 4.387-8.13 5.54-13.185a20 20 0 0 0-.351-2.54l-22.598-4.907c-1.559 5.186-3.702 10.137-6.228 14.759a56 56 0 0 0 3.097 4.852l-23.833-5.172c.33-.351.692-.678 1.019-1.04 6.675.926 13.52 1.56 19.717 1.36.956 1.617 2 3.272 3.138 4.859zm8.953 1.938-3.18-.692c.2-1.132.29-2.26.303-3.365 2.292-4.081 4.543-8.544 5.582-13.386.523-.637 1.084-1.263 1.63-1.906l4.189.905c-1.373 6.81-4.326 13.179-8.524 18.444zm-19.555.062-30.946-6.707a84 84 0 0 1 3.252-3.606l-29.277-6.339c.334 1.594.844 3.128 1.425 4.604l24.576 5.334a98 98 0 0 1 3.276-3.6l23.833 5.173c1.228 1.724 2.519 3.362 3.912 5.051 3.861-.568 7.378-1.125 10.55-1.91l-14.42-3.134a68 68 0 0 0 3.87 5.044c-.035.035-.051.069-.051.09zm16.341 3.547-.953-.216c.447-1.356.76-2.684.988-4.085l3.18.692a34 34 0 0 1-3.215 3.61m-.953-.216.953.216c-.492.472-.994.936-1.497 1.418.207-.544.393-1.09.544-1.634m-29.524 10.667a44 44 0 0 0 5.265-1.001c4.538-3.717 6.575-7.265 8.87-12.997l-30.945-6.707a75 75 0 0 0-5.598 7.264c-5.327-1.277-10.995-3.579-15.643-6.531-1.346-1.982-2.471-3.988-3.359-6.074l24.576 5.334c-1.996 2.295-3.892 4.69-5.574 7.271 1.173 4.064 3.379 7.192 5.898 9.855zm12.419 2.69-12.42-2.69c1.818-.207 3.542-.564 5.266-1.001 3.103 1.534 7.033 2.35 10.054 2.133-.877.568-1.847 1.063-2.9 1.559m-28.93-6.276c.93.978 1.92 1.896 2.898 2.829 5.306 1.053 9.549 1.266 13.613.757zm3.104 8.3-.488-.13a47.3 47.3 0 0 1-10.667-3.7c4.242-.144 7.873-.254 10.949-1.641 4.934 1.022 9.487 1.252 13.613.757l12.419 2.69c-6.239 2.83-15.805 4.127-25.826 2.024"/><path fill="none" stroke="#413b6f" stroke-linecap="round" stroke-linejoin="round" stroke-width=".70120635" d="M496.6 669.39c6.762 3.024 11.8 8.037 15.826 12.363 4.47-1.573 9.208-3.09 14.318-3.648 1.518-5.36 1.8-10.564 1.366-16.29-4.477-4.435-9.666-8.568-15.426-11.957-5.864.337-11.448 2.14-15.536 5.013-.214 4.814-.32 9.673-.548 14.518m15.826 12.363c4.487-1.642 10.068-3.255 14.318-3.648 4.253 4.333 7.24 9.198 7.619 14.787-1.153 5.054-3.31 9.036-5.54 13.186-4.536 2.22-10.097 3.076-16.628 4.03-2.653-3.17-4.858-6.226-7.01-9.904 3.14-5.72 5.637-11.893 7.24-18.451q0 0 0 0m28.705 2.013c-1.82 3.073-4.27 6.208-6.727 8.926-1.04 4.842-3.29 9.305-5.581 13.386-.055 3.124-.723 6.163-1.835 9.084 8.624-7.615 13.895-19.297 14.143-31.396q0 0 0 0m-35.945 16.438c1.992 3.458 4.456 6.851 7.01 9.903-2.313 5.795-4.333 9.38-8.923 13.087-5.943 1.534-11.297 1.785-18.878.244-3.623-3.328-7.171-7.061-8.795-12.684 2.904-4.325 6.238-8.183 9.869-11.91 6.675.926 13.52 1.56 19.717 1.36q0 0 0 0m-1.913 22.99c-5.54 1.51-11.748 1.754-18.878.244-3.076 1.387-6.707 1.497-10.95 1.641 15.434 7.536 32.116 5.313 39.882.248-3.02.217-6.95-.599-10.054-2.133q0 0 0 0m-22.839-42.92c.733 6.18 2.602 12.693 4.997 18.57-3.524 3.7-6.996 7.736-9.831 11.91-5.327-1.277-10.995-3.579-15.643-6.531-3.252-4.818-5.39-9.9-5.32-16.431 2.281-6.001 6.376-10.251 11.541-13.696 4.618 2.85 8.795 5.114 14.256 6.177q0 0 0 0m-14.27-6.246c4.484 2.986 9.635 5.388 14.215 6.276 4.216-3.606 9.818-8.23 16.263-10.915.247-4.883.337-9.886.506-14.518-4.97-3.296-10.145-6.27-15.874-7.656-6.3 2.164-11.596 6.245-16.018 10.798-.726 5.86.32 10.798.908 16.015q0 0 0 0m46.52-24.17c5.967 3.403 10.784 7.508 15.44 11.93 2.866.292 5.833 1.084 8.558 2.01-7.367-12.567-17.98-19.322-31.665-22.9 2.887 2.89 5.182 5.904 7.667 8.96q0 0 0 0"/><path fill="#fff" fill-rule="evenodd" d="M481.274 647.215c-6.662 2.333-11.81 6.534-15.998 10.777-2.126.048-4.635.448-6.624.96 5.878-8.977 21.067-16.558 30-18.306-3.077 1.748-5.424 3.857-7.378 6.569m-26.637 40.577c-.172 6.397 2.298 12.075 5.32 16.431-.561 2.508-1.394 5.248-.878 7.897-6.194-8.692-9.24-19.387-8.314-31.97 1.022 3.234 2.12 5.47 3.872 7.642"/><path fill="none" stroke="#413b6f" stroke-linecap="round" stroke-linejoin="round" stroke-width=".7082536500000001" d="M481.274 647.215c-6.662 2.333-11.81 6.534-15.998 10.777-2.126.048-4.635.448-6.624.96 5.878-8.977 21.067-16.558 30-18.306-3.077 1.748-5.424 3.857-7.378 6.569m-26.637 40.577c-.172 6.397 2.298 12.075 5.32 16.431-.561 2.508-1.394 5.248-.878 7.897-6.194-8.692-9.24-19.387-8.314-31.97 1.022 3.234 2.12 5.47 3.872 7.642q0 0 0 0"/><path fill="#413b6f" fill-rule="evenodd" d="M496.6 669.39c6.659 3.161 11.356 7.535 15.826 12.363-1.631 6.758-3.999 12.629-7.24 18.45-6.184.2-13.159-.474-19.755-1.358a70.9 70.9 0 0 1-4.997-18.572c4.814-4.126 10.262-8.451 16.166-10.884m31.51-7.575c.434 5.382.12 10.998-1.366 16.29 4.707 4.622 7.385 10.048 7.619 14.621 2.519-2.849 4.796-5.619 6.768-8.96.792-6.992-.275-13.293-4.45-19.969-2.724-.925-5.615-1.74-8.57-1.982m.713 44.263c-4.536 2.22-10.613 3.18-16.628 4.03-2.044 4.834-3.726 8.967-8.909 13.034 3.173 1.631 6.883 2.343 10.041 2.185 6.132-2.096 10.76-5.526 13.661-10.203a26.7 26.7 0 0 0 1.835-9.046m-53.223 4.676c1.469 5.21 4.566 8.81 8.795 12.684-3.076 1.449-7.37 1.504-10.901 1.648-6.35-2.698-11.518-7.116-14.408-13.007-.523-2.385.19-4.986.87-7.856a52.9 52.9 0 0 0 15.644 6.531m13.052-70.108c-3.373 1.817-5.327 3.954-7.395 6.603 6.249 1.483 11.163 4.58 15.89 7.622 4.257-2.839 9.422-4.607 15.537-5.013-2.464-3.001-4.683-5.964-7.667-8.96-5-2.272-11.806-2.227-16.365-.252"/><path fill="none" stroke="#231f20" stroke-linecap="round" stroke-linejoin="round" stroke-width=".17618250000000002" d="M496.6 669.39c6.659 3.161 11.356 7.535 15.826 12.363-1.631 6.758-3.999 12.629-7.24 18.45-6.184.2-13.159-.474-19.755-1.358a70.9 70.9 0 0 1-4.997-18.572c4.814-4.126 10.262-8.451 16.166-10.884m31.51-7.575c.434 5.382.12 10.998-1.366 16.29 4.707 4.622 7.385 10.048 7.619 14.621 2.519-2.849 4.796-5.619 6.768-8.96.792-6.992-.275-13.293-4.45-19.969-2.724-.925-5.615-1.74-8.57-1.982q0 0 0 0m.713 44.263c-4.536 2.22-10.613 3.18-16.628 4.03-2.044 4.834-3.726 8.967-8.909 13.034 3.173 1.631 6.883 2.343 10.041 2.185 6.132-2.096 10.76-5.526 13.661-10.203a26.7 26.7 0 0 0 1.835-9.046q0 0 0 0m-53.223 4.676c1.469 5.21 4.566 8.81 8.795 12.684-3.076 1.449-7.37 1.504-10.901 1.648-6.35-2.698-11.518-7.116-14.408-13.007-.523-2.385.19-4.986.87-7.856a52.9 52.9 0 0 0 15.644 6.531q0 0 0 0m13.052-70.108c-3.373 1.817-5.327 3.954-7.395 6.603 6.249 1.483 11.163 4.58 15.89 7.622 4.257-2.839 9.422-4.607 15.537-5.013-2.464-3.001-4.683-5.964-7.667-8.96-5-2.272-11.806-2.227-16.365-.252q0 0 0 0"/><path fill="#413b6f" fill-rule="evenodd" d="M466.154 674.103c-5.812 3.83-9.738 8.81-11.517 13.73-1.752-2.185-2.967-4.662-3.844-7.598.183-7.704 3.317-15.478 7.866-21.276a31 31 0 0 1 6.597-.946c-.74 5.21.302 11.025.898 16.09"/><path fill="none" stroke="#413b6f" stroke-linecap="round" stroke-linejoin="round" stroke-width=".281892" d="M466.154 674.103c-5.812 3.83-9.738 8.81-11.517 13.73-1.752-2.185-2.967-4.662-3.844-7.598.183-7.704 3.317-15.478 7.866-21.276a31 31 0 0 1 6.597-.946c-.74 5.21.302 11.025.898 16.09"/><path fill="#413b6f" fill-rule="evenodd" d="M496.6 669.39c-14.772 10.708-14.724 8.874-11.17 29.455a70.9 70.9 0 0 1-4.996-18.572c4.814-4.126 10.262-8.451 16.166-10.884m31.51-7.575c.434 5.382.12 10.998-1.366 16.29 4.838-8.114-.626-15.536 9.938-14.308-2.725-.925-5.616-1.74-8.572-1.982m.713 44.263c-4.536 2.22-10.613 3.18-16.628 4.03-2.044 4.834-3.726 8.967-8.909 13.034 6.342-1.122 6.913-8.035 11.566-10.605 4.69-2.609 9.686-1.587 13.97-6.46m-53.223 4.676c-17.354-2.8-14.7-4.435-16.514 1.325-.523-2.385.19-4.986.87-7.856a52.9 52.9 0 0 0 15.644 6.531m13.052-70.108c-3.373 1.817-5.327 3.954-7.395 6.603 9.246-4.528 5.25-6.83 23.76-6.352-5-2.271-11.806-2.226-16.365-.251"/><path fill="none" stroke="#413b6f" stroke-linecap="round" stroke-linejoin="round" stroke-width=".17618250000000002" d="M496.6 669.39c-14.772 10.708-14.724 8.874-11.17 29.455a70.9 70.9 0 0 1-4.996-18.572c4.814-4.126 10.262-8.451 16.166-10.884m31.51-7.575c.434 5.382.12 10.998-1.366 16.29 4.838-8.114-.626-15.536 9.938-14.308-2.725-.925-5.616-1.74-8.572-1.982q0 0 0 0m.713 44.263c-4.536 2.22-10.613 3.18-16.628 4.03-2.044 4.834-3.726 8.967-8.909 13.034 6.342-1.122 6.913-8.035 11.566-10.605 4.69-2.609 9.686-1.587 13.97-6.46q0 0 0 0m-53.223 4.676c-17.354-2.8-14.7-4.435-16.514 1.325-.523-2.385.19-4.986.87-7.856a52.9 52.9 0 0 0 15.644 6.531q0 0 0 0m13.052-70.108c-3.373 1.817-5.327 3.954-7.395 6.603 9.246-4.528 5.25-6.83 23.76-6.352-5-2.271-11.806-2.226-16.365-.251q0 0 0 0"/><path fill="none" stroke="#474156" stroke-width="4.42922805" d="M394.798 420.745h204.085"/><path fill="none" stroke="#474156" stroke-width="2.6497848" d="M395.705 463.376s105.974-51.093 203.608 2.278"/><path fill="none" stroke="#474156" stroke-width="2.6497848" d="M395.705 484.208s104.877-50.934 202.51 2.44"/><path fill="none" stroke="#474156" stroke-width="2.8294909500000003" d="M425.642 472.98v-20.75"/><path fill="none" stroke="#474156" stroke-width="2.8400619000000003" d="M454.678 465.571v-20.907"/><path fill="none" stroke="#474156" stroke-width="2.8823456999999997" d="M483.714 462.73v-21.56"/><path fill="none" stroke="#474156" stroke-width="2.8612038" d="M512.746 462.73v-21.24"/><path fill="none" stroke="#474156" stroke-width="2.8929166499999996" d="M541.785 465.87v-21.695"/><path fill="none" stroke="#474156" stroke-width="2.8999639499999996" d="M570.817 474.935v-21.81"/><path fill="none" stroke="#474156" stroke-width="2.748447" d="M413.929 456.14v-36.373"/><path fill="none" stroke="#474156" stroke-width="2.4313184999999997" d="M442.149 448.37v-28.434"/><path fill="none" stroke="#474156" stroke-width="2.20228125" d="M470.373 443.246v-23.31"/><path fill="none" stroke="#474156" stroke-width="2.1353318999999997" d="M498.596 441.86v-21.924"/><path fill="none" stroke="#474156" stroke-width="2.1917103" d="M526.82 443.002v-23.066"/><path fill="none" stroke="#474156" stroke-width="2.4454130999999997" d="M555.043 448.693v-28.757"/><path fill="none" stroke="#474156" stroke-width="2.8118727" d="M583.264 458.011v-38.075"/><path fill="none" stroke="#474156" stroke-width="2.8788220499999997" d="M436.261 420.5h-27.095v-21.723h27.095zM473.562 420.5h-27.094v-21.723h27.094zM510.87 420.5h-27.094v-21.723h27.094zM548.178 420.5h-27.094v-21.723h27.094zM585.476 420.5h-27.095v-21.723h27.095z"/><path fill="none" stroke="#413b6f" stroke-linecap="square" stroke-width="4.42922805" d="M219.134 683.012V391.91h-4.167v-16.4h-5.205v-11.714h-9.764v-37.101l.007-11.397c125.95-45.89 213.27 11.397 213.27 11.397v37.101h-9.762v11.714h-5.206v16.4h-4.168v291.103s-58.83 46-175.005 0z"/><path fill="none" stroke="#413b6f" stroke-linecap="square" stroke-width="4.42922805" d="M220.242 404.998s63.83-29.166 172.208 4.03"/><path fill="none" stroke="#413b6f" stroke-width="4.42922805" d="M218.655 639.448s67.368 28.313 173.795.978M218.655 427.114s67.368-28.316 173.795-.98M218.655 621.871s101.541 19.528 175.746 0M218.655 449.46s67.368-28.31 173.795-.973M218.655 467.037s101.541-19.528 175.746 0M219.631 600.881s100.565 18.066 175.745 1.466M219.631 485.691s100.565-18.058 175.745-1.462M217.802 660.074s94.705 33.196 176.721 1.955M372.275 693.803v-24.08"/><path fill="none" stroke="#413b6f" stroke-width="3.8407785000000003" d="M372.275 644.338v-18.1M372.275 605.286v-18.104"/><path fill="none" stroke="#413b6f" stroke-width="4.33056585" d="M372.275 380.027v23.02"/><path fill="none" stroke="#413b6f" stroke-width="4.12619415" d="M372.275 421.474v20.915"/><path fill="none" stroke="#413b6f" stroke-width="3.8407785000000003" d="M372.275 463.345v18.104M372.275 563.79v-18.104"/><path fill="none" stroke="#413b6f" stroke-width="4.2636164999999995" d="M372.275 522.414v-22.342"/><path fill="none" stroke="#413b6f" stroke-width="4.42922805" d="M384.067 666.14v-24.083"/><path fill="none" stroke="#413b6f" stroke-width="3.9535353000000004" d="M384.067 624.604v-19.208"/><path fill="none" stroke="#413b6f" stroke-width="4.157907" d="M384.067 586.115v-21.234"/><path fill="none" stroke="#413b6f" stroke-width="3.85134945" d="M384.067 405.77V424"/><path fill="none" stroke="#413b6f" stroke-width="3.9042042" d="M384.067 446.174v18.713"/><path fill="none" stroke="#413b6f" stroke-width="4.4045625" d="M384.067 545.03v-23.834"/><path fill="none" stroke="#413b6f" stroke-width="3.85839675" d="M384.067 500.32v-18.273"/><path fill="none" stroke="#413b6f" stroke-width="4.42922805" d="M358.194 671.997v-24.084"/><path fill="none" stroke="#413b6f" stroke-width="3.9535353000000004" d="M358.194 628.385v-19.204"/><path fill="none" stroke="#413b6f" stroke-width="4.157907" d="M358.194 586.115v-21.234"/><path fill="none" stroke="#413b6f" stroke-width="3.85134945" d="M358.194 400.77v18.227"/><path fill="none" stroke="#413b6f" stroke-width="3.9042042" d="M358.194 441.78v18.712"/><path fill="none" stroke="#413b6f" stroke-width="4.4045625" d="M358.194 545.03v-23.834"/><path fill="none" stroke="#413b6f" stroke-width="4.2706637999999995" d="M358.194 500.32V477.9"/><path fill="none" stroke="#413b6f" stroke-width="4.44332265" d="M328.415 674.802v-24.246"/><path fill="none" stroke="#413b6f" stroke-width="3.9535353000000004" d="M328.415 628.385v-19.204"/><path fill="none" stroke="#413b6f" stroke-width="4.157907" d="M328.415 586.115v-21.234"/><path fill="none" stroke="#413b6f" stroke-width="4.059244799999999" d="M328.415 395.6v20.224"/><path fill="none" stroke="#413b6f" stroke-width="4.2248563500000005" d="M328.415 437.021v21.923"/><path fill="none" stroke="#413b6f" stroke-width="4.369326" d="M292.614 674.802v-23.454"/><path fill="none" stroke="#413b6f" stroke-width="4.12619415" d="M292.614 630.102v-20.921"/><path fill="none" stroke="#413b6f" stroke-width="4.059244799999999" d="M292.614 393.199v20.223"/><path fill="none" stroke="#413b6f" stroke-width="4.2248563500000005" d="M292.614 437.021v21.923"/><path fill="none" stroke="#413b6f" stroke-width="4.02048465" d="M260.07 670.411v-19.855"/><path fill="none" stroke="#413b6f" stroke-width="3.9535353000000004" d="M260.07 626.434V607.23"/><path fill="none" stroke="#413b6f" stroke-width="4.157907" d="M260.07 395.6v21.24"/><path fill="none" stroke="#413b6f" stroke-width="4.2248563500000005" d="M260.07 439.953v21.92"/><path fill="none" stroke="#413b6f" stroke-width="4.4045625" d="M328.415 545.03v-23.834"/><path fill="none" stroke="#413b6f" stroke-width="4.2706637999999995" d="M328.415 500.32V477.9M293.78 500.32V477.9M258.243 503.03v-22.418"/><path fill="none" stroke="#413b6f" stroke-width="4.2636164999999995" d="M232.735 664.954V642.62"/><path fill="none" stroke="#413b6f" stroke-width="4.09095765" d="M232.735 623.75V603.2"/><path fill="none" stroke="#413b6f" stroke-width="4.157907" d="M232.735 586.115v-21.234"/><path fill="none" stroke="#413b6f" stroke-width="4.3340895" d="M232.735 399.507v23.065"/><path fill="none" stroke="#413b6f" stroke-width="4.1297178" d="M232.735 444.1v20.948"/><path fill="none" stroke="#413b6f" stroke-width="4.4045625" d="M232.735 545.03v-23.834"/><path fill="none" stroke="#413b6f" stroke-width="3.70335615" d="M232.735 500.32v-16.845"/><path fill="none" stroke="#413b6f" stroke-width="4.8203532000000004" d="M341.028 702.461v-28.523"/><path fill="none" stroke="#413b6f" stroke-width="4.2072381" d="M341.028 649.92v-21.727"/><path fill="none" stroke="#413b6f" stroke-width="4.24599825" d="M341.028 608.355v-22.14"/><path fill="none" stroke="#413b6f" stroke-width="4.4820828" d="M341.028 372.48v24.687"/><path fill="none" stroke="#413b6f" stroke-width="3.6223122" d="M344.934 357.756v16.125M349.053 344.924v16.125"/><path fill="none" stroke="#413b6f" stroke-width="3.68221425" d="M257.65 359.28v16.659"/><path fill="none" stroke="#413b6f" stroke-width="3.6223122" d="M253.53 344.924v16.125"/><path fill="none" stroke="#413b6f" stroke-width="3.68221425" d="M242.142 364.635v16.658"/><path fill="none" stroke="#413b6f" stroke-width="3.6223122" d="M238.023 350.279v16.124M362.02 360.681v16.125M366.14 347.853v16.125M376.975 366.892v16.125M381.094 354.06v16.129"/><path fill="none" stroke="#413b6f" stroke-width="4.3552314" d="M341.028 415.948v23.279"/><path fill="none" stroke="#413b6f" stroke-width="4.06981575" d="M341.028 458.562v20.354"/><path fill="none" stroke="#413b6f" stroke-width="3.8407785000000003" d="M341.028 563.79v-18.104"/><path fill="none" stroke="#413b6f" stroke-width="4.2636164999999995" d="M341.028 522.414v-22.342"/><path fill="none" stroke="#413b6f" stroke-width="4.5560794499999995" d="M245.02 692.417v-25.509"/><path fill="none" stroke="#413b6f" stroke-width="4.1931435" d="M245.02 647.869v-21.6"/><path fill="none" stroke="#413b6f" stroke-width="4.03457925" d="M245.02 377.167v20"/><path fill="none" stroke="#413b6f" stroke-width="4.4750355" d="M245.02 418.694v24.583"/><path fill="none" stroke="#413b6f" stroke-width="4.02048465" d="M245.02 462.385v19.862"/><path fill="none" stroke="#413b6f" stroke-width="4.76749845" d="M275.288 700.6v-27.918"/><path fill="none" stroke="#413b6f" stroke-width="4.33761315" d="M275.288 651.3v-23.107"/><path fill="none" stroke="#413b6f" stroke-width="4.2636164999999995" d="M275.288 371.252v22.343"/><path fill="none" stroke="#413b6f" stroke-width="4.3552314" d="M275.288 414.97v23.28"/><path fill="none" stroke="#413b6f" stroke-width="4.06981575" d="M275.288 458.562v20.354"/><path fill="none" stroke="#413b6f" stroke-width="4.8203532000000004" d="M306.526 702.461v-28.523"/><path fill="none" stroke="#413b6f" stroke-width="4.3904679" d="M306.526 653.467v-23.654"/><path fill="none" stroke="#413b6f" stroke-width="4.2636164999999995" d="M306.526 371.782v22.343"/><path fill="none" stroke="#413b6f" stroke-width="4.35170775" d="m306.506 413.711.043 23.262"/><path fill="none" stroke="#413b6f" stroke-width="4.06981575" d="M306.526 458.562v20.354"/><path fill="none" stroke="#413b6f" stroke-width="4.6159815" d="M219.117 586.26h27.772"/><path fill="none" stroke="#413b6f" stroke-width="4.42922805" d="M307.218 586.26h87.644M394.862 564.13h-87.644"/><path fill="none" stroke="#413b6f" stroke-width="4.6159815" d="M246.89 564.13h-27.773"/><path fill="none" stroke="#413b6f" stroke-width="4.42922805" d="M307.218 543.955h87.644"/><path fill="none" stroke="#413b6f" stroke-width="4.63359975" d="M219.117 543.955h28.018"/><path fill="none" stroke="#413b6f" stroke-width="4.75340385" d="M248.6 522.476h-29.483"/><path fill="none" stroke="#413b6f" stroke-width="4.42922805" d="M307.218 522.476h87.644M394.862 500.347h-93.02"/><path fill="none" stroke="#413b6f" stroke-width="4.62655245" d="M252.706 500.347h-33.59"/><path fill="#413b6f" d="M307.218 608.341v-96.79s3.21-20.829-30.632-22.783c0 0-22.05-1.752-30.591 18.224-.65 26.038 0 97.636 0 97.636z"/><path fill="none" stroke="#413b6f" stroke-width="4.62655245" d="M215.44 376.045s84.693-48.33 183.083.998"/><path fill="none" stroke="#413b6f" stroke-width="4.62655245" d="M209.762 363.795s82.61-52.404 193.75 0"/><path fill="none" stroke="#413b6f" stroke-width="4.62655245" d="M201.75 331.718s101.038-42.463 212.179 9.94M215.44 390.69s84.693-48.33 183.083.998"/><path fill="none" stroke="#413b6f" stroke-width="4.42922805" d="m397.427 360.065-.096-16.944-17.943-6.713-.611 16.723M344.934 343.61V328.11l18.062 3.538v16.682M315.315 340.682v-15.867l14.158.977v15.378M296.764 340.682v-15.867l-17.085.609v15.258M267.72 342.392l-.246-15.134-19.528 3.173v16.596M219.308 356.793l-.164-19.164 18.39-5.123-.085 17.697M250.55 300.979v-27.987l-14.643-.977-30.593 10.416-.204 30.21 31.241-8.139-.444-32.487"/><path fill="none" stroke="#413b6f" stroke-width="4.2706637999999995" d="m302.535 296.977.495-26.655-14.466-6.2-30.994 3.612v30.485l30.476-1.549 1.034-31.51M314.909 296.67v-25.828l13.43-4.653 27.384 5.682.07 32.15-27.142-5.176-.312-32.656M366.052 306.484v-27.893l9.814-1.555 29.446 13.434.008 31.781-26.73-12.013-.303-33.202"/><path fill="none" stroke="#fff" stroke-width="3.97115355" d="M280.491 524.407v63.6"/><path fill="none" stroke="#fff" stroke-width="3.5377446" d="M256.49 542.682h50.496M256.486 571.973h50.496"/><path fill="none" stroke="#fff" stroke-width="3.735069" d="M267.08 527.855v56.323M298.113 527.855v56.323"/><path fill="none" stroke="#413b6f" stroke-width="2.6427375" d="m395.368 526.124 49.85-18.18"/><path fill="none" stroke="#413b6f" stroke-width="2.6497848" d="m394.914 541.554 50.16-18.293"/><path fill="none" stroke="#413b6f" stroke-width="2.64626115" d="m395.368 555.586 50.016-18.227"/><path fill="none" stroke="#413b6f" stroke-width="2.6356902" d="m395.856 570.317 49.562-18.069"/><path fill="none" stroke="#413b6f" stroke-width="2.6638794" d="m394.394 585.049 50.646-18.472"/><path fill="none" stroke="#413b6f" stroke-width="2.677974" d="m393.905 599.783 51.183-18.654"/><path fill="none" stroke="#413b6f" stroke-width="2.64626115" d="m395.368 614.511 49.995-18.22"/><path fill="none" stroke="#413b6f" stroke-width="2.677974" d="m393.905 629.242 51.258-18.688"/><path fill="none" stroke="#413b6f" stroke-width="2.68854495" d="m393.417 643.973 51.65-18.836"/><path fill="none" stroke="#413b6f" stroke-width="2.6497848" d="m394.88 658.708 50.187-18.296"/><path fill="none" stroke="#413b6f" stroke-width="2.6427375" d="m394.88 673.44 49.857-18.18"/><path fill="none" stroke="#413b6f" stroke-width="3.5377446" d="M444.196 493.73v171.592M427.72 499.586v171.592M411.245 504.466V676.06"/><path fill="none" stroke="#413b6f" stroke-linecap="square" stroke-width="4.42922805" d="M774.511 683.012V391.91h4.164v-16.4h5.203v-11.714h9.762v-37.101l-.007-11.397c-125.953-45.89-213.267 11.397-213.267 11.397v37.101h9.762v11.714h5.203v16.4h4.167v291.103s58.832 46 175.013 0z"/><path fill="none" stroke="#413b6f" stroke-linecap="square" stroke-width="4.42922805" d="M773.396 404.998s-63.828-29.166-172.208 4.03"/><path fill="none" stroke="#413b6f" stroke-width="4.42922805" d="M774.986 639.448s-67.37 28.313-173.798.978M774.986 427.114s-67.37-28.316-173.798-.98M774.986 621.871s-101.546 19.528-175.749 0M774.986 449.46s-67.37-28.31-173.798-.973M774.986 467.037s-101.546-19.528-175.749 0M774.005 600.881s-100.565 18.066-175.742 1.466M774.005 485.691s-100.565-18.058-175.742-1.462M775.836 660.074s-94.705 33.196-176.72 1.955M621.366 693.803v-24.08"/><path fill="none" stroke="#413b6f" stroke-width="3.8407785000000003" d="M621.366 644.338v-18.1M621.366 605.286v-18.104"/><path fill="none" stroke="#413b6f" stroke-width="4.33056585" d="M621.366 380.027v23.02"/><path fill="none" stroke="#413b6f" stroke-width="4.12619415" d="M621.366 421.474v20.915"/><path fill="none" stroke="#413b6f" stroke-width="3.8407785000000003" d="M621.366 463.345v18.104M621.366 563.79v-18.104"/><path fill="none" stroke="#413b6f" stroke-width="4.2636164999999995" d="M621.366 522.414v-22.342"/><path fill="none" stroke="#413b6f" stroke-width="4.42922805" d="M609.564 666.14v-24.083"/><path fill="none" stroke="#413b6f" stroke-width="3.9535353000000004" d="M609.564 624.604v-19.208"/><path fill="none" stroke="#413b6f" stroke-width="4.157907" d="M609.564 586.115v-21.234"/><path fill="none" stroke="#413b6f" stroke-width="3.85134945" d="M609.564 405.77V424"/><path fill="none" stroke="#413b6f" stroke-width="3.9042042" d="M609.564 446.174v18.713"/><path fill="none" stroke="#413b6f" stroke-width="4.4045625" d="M609.564 545.03v-23.834"/><path fill="none" stroke="#413b6f" stroke-width="3.85839675" d="M609.564 500.32v-18.273"/><path fill="none" stroke="#413b6f" stroke-width="4.42922805" d="M635.44 671.997v-24.084"/><path fill="none" stroke="#413b6f" stroke-width="3.9535353000000004" d="M635.44 628.385v-19.204"/><path fill="none" stroke="#413b6f" stroke-width="4.157907" d="M635.44 586.115v-21.234"/><path fill="none" stroke="#413b6f" stroke-width="3.85134945" d="M635.44 400.77v18.227"/><path fill="none" stroke="#413b6f" stroke-width="3.9042042" d="M635.44 441.78v18.712"/><path fill="none" stroke="#413b6f" stroke-width="4.4045625" d="M635.44 545.03v-23.834"/><path fill="none" stroke="#413b6f" stroke-width="4.2706637999999995" d="M635.44 500.32V477.9"/><path fill="none" stroke="#413b6f" stroke-width="4.44332265" d="M665.22 674.802v-24.246"/><path fill="none" stroke="#413b6f" stroke-width="3.9535353000000004" d="M665.22 628.385v-19.204"/><path fill="none" stroke="#413b6f" stroke-width="4.157907" d="M665.22 586.115v-21.234"/><path fill="none" stroke="#413b6f" stroke-width="4.059244799999999" d="M665.22 395.6v20.224"/><path fill="none" stroke="#413b6f" stroke-width="4.2248563500000005" d="M665.22 437.021v21.923"/><path fill="none" stroke="#413b6f" stroke-width="4.369326" d="M701.02 674.802v-23.454"/><path fill="none" stroke="#413b6f" stroke-width="4.12619415" d="M701.02 630.102v-20.921"/><path fill="none" stroke="#413b6f" stroke-width="4.059244799999999" d="M701.02 393.199v20.223"/><path fill="none" stroke="#413b6f" stroke-width="4.2248563500000005" d="M701.02 437.021v21.923"/><path fill="none" stroke="#413b6f" stroke-width="4.02048465" d="M733.566 670.411v-19.855"/><path fill="none" stroke="#413b6f" stroke-width="3.9535353000000004" d="M733.566 626.434V607.23"/><path fill="none" stroke="#413b6f" stroke-width="4.157907" d="M733.566 395.6v21.24"/><path fill="none" stroke="#413b6f" stroke-width="4.2248563500000005" d="M733.566 439.953v21.92"/><path fill="none" stroke="#413b6f" stroke-width="4.4045625" d="M665.22 545.03v-23.834"/><path fill="none" stroke="#413b6f" stroke-width="4.2706637999999995" d="M665.22 500.32V477.9M705.297 500.32V477.9M735.242 502.002v-22.419"/><path fill="none" stroke="#413b6f" stroke-width="4.2636164999999995" d="M760.902 664.954V642.62"/><path fill="none" stroke="#413b6f" stroke-width="4.09095765" d="M760.902 623.75V603.2"/><path fill="none" stroke="#413b6f" stroke-width="4.157907" d="M760.902 586.115v-21.234"/><path fill="none" stroke="#413b6f" stroke-width="4.3340895" d="M760.902 399.507v23.065"/><path fill="none" stroke="#413b6f" stroke-width="4.1297178" d="M760.902 444.1v20.948"/><path fill="none" stroke="#413b6f" stroke-width="4.4045625" d="M760.902 545.03v-23.834"/><path fill="none" stroke="#413b6f" stroke-width="3.70335615" d="M760.902 500.32v-16.845"/><path fill="none" stroke="#413b6f" stroke-width="4.8203532000000004" d="M652.611 702.461v-28.523"/><path fill="none" stroke="#413b6f" stroke-width="4.2072381" d="M652.611 649.92v-21.727"/><path fill="none" stroke="#413b6f" stroke-width="4.24599825" d="M652.611 608.355v-22.14"/><path fill="none" stroke="#413b6f" stroke-width="4.4820828" d="M652.611 372.48v24.687"/><path fill="none" stroke="#413b6f" stroke-width="3.6223122" d="M648.706 357.756v16.125M644.587 344.924v16.125"/><path fill="none" stroke="#413b6f" stroke-width="3.68221425" d="M735.988 359.28v16.659"/><path fill="none" stroke="#413b6f" stroke-width="3.6223122" d="M740.107 344.924v16.125"/><path fill="none" stroke="#413b6f" stroke-width="3.68221425" d="M751.497 364.635v16.658"/><path fill="none" stroke="#413b6f" stroke-width="3.6223122" d="M755.616 350.279v16.124M631.617 360.681v16.125M627.498 347.853v16.125M616.66 366.892v16.125M612.54 354.06v16.129"/><path fill="none" stroke="#413b6f" stroke-width="4.3552314" d="M652.611 415.948v23.279"/><path fill="none" stroke="#413b6f" stroke-width="4.06981575" d="M652.611 458.562v20.354"/><path fill="none" stroke="#413b6f" stroke-width="3.8407785000000003" d="M652.611 563.79v-18.104"/><path fill="none" stroke="#413b6f" stroke-width="4.2636164999999995" d="M652.611 522.414v-22.342"/><path fill="none" stroke="#413b6f" stroke-width="4.5560794499999995" d="M748.62 692.417v-25.509"/><path fill="none" stroke="#413b6f" stroke-width="4.1931435" d="M748.62 647.869v-21.6"/><path fill="none" stroke="#413b6f" stroke-width="4.03457925" d="M748.62 377.167v20"/><path fill="none" stroke="#413b6f" stroke-width="4.4750355" d="M748.62 418.694v24.583"/><path fill="none" stroke="#413b6f" stroke-width="4.02048465" d="M748.62 462.385v19.862"/><path fill="none" stroke="#413b6f" stroke-width="4.76749845" d="M718.353 700.6v-27.918"/><path fill="none" stroke="#413b6f" stroke-width="4.33761315" d="M718.353 651.3v-23.107"/><path fill="none" stroke="#413b6f" stroke-width="4.2636164999999995" d="M718.353 371.252v22.343"/><path fill="none" stroke="#413b6f" stroke-width="4.3552314" d="M718.353 414.97v23.28"/><path fill="none" stroke="#413b6f" stroke-width="4.06981575" d="M718.353 458.562v20.354"/><path fill="none" stroke="#413b6f" stroke-width="4.8203532000000004" d="M687.111 702.461v-28.523"/><path fill="none" stroke="#413b6f" stroke-width="4.3904679" d="M687.111 653.467v-23.654"/><path fill="none" stroke="#413b6f" stroke-width="4.2636164999999995" d="M687.111 371.782v22.343"/><path fill="none" stroke="#413b6f" stroke-width="4.35170775" d="m687.132 413.711-.038 23.262"/><path fill="none" stroke="#413b6f" stroke-width="4.06981575" d="M687.111 458.562v20.354"/><path fill="none" stroke="#413b6f" stroke-width="4.6159815" d="M774.525 586.26h-27.78"/><path fill="none" stroke="#413b6f" stroke-width="4.42922805" d="M686.427 586.26h-87.648M598.78 564.13h87.647"/><path fill="none" stroke="#413b6f" stroke-width="4.6159815" d="M746.745 564.13h27.78"/><path fill="none" stroke="#413b6f" stroke-width="4.42922805" d="M686.427 543.955h-87.648"/><path fill="none" stroke="#413b6f" stroke-width="4.63359975" d="M774.525 543.955H746.5"/><path fill="none" stroke="#413b6f" stroke-width="4.75340385" d="M745.035 522.476h29.49"/><path fill="none" stroke="#413b6f" stroke-width="4.42922805" d="M686.427 522.476h-87.648M598.78 500.347h93.015"/><path fill="none" stroke="#413b6f" stroke-width="4.62655245" d="M740.933 500.347h33.592"/><path fill="#413b6f" d="M686.427 608.341v-96.79s-3.221-20.829 30.629-22.783c0 0 22.046-1.752 30.587 18.224.65 26.038 0 97.636 0 97.636z"/><path fill="none" stroke="#413b6f" stroke-width="4.62655245" d="M778.2 376.045s-84.699-48.33-183.079.998"/><path fill="none" stroke="#413b6f" stroke-width="4.62655245" d="M783.878 363.795s-82.61-52.404-193.75 0"/><path fill="none" stroke="#413b6f" stroke-width="4.62655245" d="M791.885 331.718s-101.037-42.463-212.176 9.94M778.2 390.69s-84.699-48.33-183.079.998"/><path fill="none" stroke="#413b6f" stroke-width="4.42922805" d="m596.212 360.065.097-16.944 17.941-6.713.613 16.723M648.706 343.61V328.11l-18.062 3.538v16.682M678.326 340.682v-15.867l-14.16.977v15.378M696.874 340.682v-15.867l17.085.609v15.258M725.92 342.392l.244-15.134 19.528 3.173v16.596M774.329 356.793l.165-19.164-18.382-5.123.079 17.697M743.084 300.979v-27.987l14.645-.977 30.594 10.416.207 30.21-31.242-8.139.44-32.487"/><path fill="none" stroke="#413b6f" stroke-width="4.2706637999999995" d="m691.106 296.977-.502-26.655 14.473-6.2 30.987 3.612v30.485l-30.47-1.549-1.033-31.51M678.729 296.67v-25.828l-13.434-4.653-27.384 5.682-.058 32.15 27.136-5.176.306-32.656M627.584 306.484v-27.893l-9.81-1.555-29.442 13.434-.017 31.781 26.733-12.013.3-33.202"/><path fill="none" stroke="#fff" stroke-width="3.97115355" d="M713.15 524.407v63.6"/><path fill="none" stroke="#fff" stroke-width="3.5377446" d="M737.148 542.682h-50.494M737.148 571.973h-50.494"/><path fill="none" stroke="#fff" stroke-width="3.735069" d="M726.563 527.855v56.323M695.532 527.855v56.323"/><path fill="none" stroke="#413b6f" stroke-width="2.6427375" d="m598.27 526.124-49.85-18.18"/><path fill="none" stroke="#413b6f" stroke-width="2.6497848" d="m598.724 541.554-50.16-18.293"/><path fill="none" stroke="#413b6f" stroke-width="2.64626115" d="m598.27 555.586-50.016-18.227"/><path fill="none" stroke="#413b6f" stroke-width="2.6356902" d="m597.781 570.317-49.558-18.069"/><path fill="none" stroke="#413b6f" stroke-width="2.6638794" d="m599.247 585.049-50.649-18.472"/><path fill="none" stroke="#413b6f" stroke-width="2.677974" d="M599.733 599.783 548.55 581.13"/><path fill="none" stroke="#413b6f" stroke-width="2.64626115" d="m598.27 614.511-49.995-18.22"/><path fill="none" stroke="#413b6f" stroke-width="2.677974" d="m599.733 629.242-51.259-18.688"/><path fill="none" stroke="#413b6f" stroke-width="2.68854495" d="m600.221 643.973-51.647-18.836"/><path fill="none" stroke="#413b6f" stroke-width="2.6497848" d="m598.759 658.708-50.185-18.296"/><path fill="none" stroke="#413b6f" stroke-width="2.6427375" d="M598.759 673.44 548.9 655.26"/><path fill="none" stroke="#413b6f" stroke-width="3.5377446" d="M549.445 493.73v171.592M565.92 499.586v171.592M582.393 504.466V676.06"/></svg>