<svg height="1000" viewBox="0 0 1000 1000" width="1000" xmlns="http://www.w3.org/2000/svg"><g transform="matrix(1.5992324 0 0 1.5992324 18.739795 22.082991)"><path d="m 300.932 1.824 c 163.591 0 297.018 133.425 297.018 297.019 c 0 163.592 -133.427 297.016 -297.018 297.016 C 137.34 595.859 3.914 462.435 3.914 298.843 C 3.913 135.25 137.34 1.824 300.932 1.824 Z" fill="#ee3124"/><path d="m 300.932 22.374 c 152.272 0 276.471 124.195 276.471 276.47 c 0 152.271 -124.199 276.47 -276.471 276.47 C 148.658 575.314 24.463 451.115 24.463 298.844 C 24.462 146.568 148.657 22.374 300.932 22.374 Z" fill="#fff"/><path d="m 300.932 37.317 c 53.213 0 102.787 16.046 144.17 43.529 c -8.681 80.309 -38.006 166.268 -144.17 217.997 C 194.766 350.57 165.442 436.524 156.761 516.834 C 86.13 469.923 39.406 389.67 39.406 298.843 C 39.406 154.8 156.889 37.317 300.932 37.317 Z" fill="#ee3124"/><path d="m 445.102 80.846 c 70.63 46.912 117.353 127.167 117.353 217.997 c 0 144.042 -117.479 261.525 -261.523 261.525 c -53.216 0 -102.79 -16.051 -144.171 -43.534 c 8.682 -80.31 38.005 -166.264 144.171 -217.991 c 106.164 -51.729 135.489 -137.688 144.17 -217.997 z"/><path d="M 155.881 525.616 C 163.397 442.855 190.887 352.46 300.931 298.843 C 410.487 245.462 438.22 155.633 445.879 73.172" fill="none" stroke="#fff" stroke-miterlimit="20" stroke-width="15.2731"/><path d="m 367.808 358.749 v 89.966 h 11.324 v 0 c 8.352 0 14.114 -2.861 17.257 -8.612 c 3.176 -5.718 4.744 -17.854 4.744 -36.371 c 0 -18.516 -1.568 -30.649 -4.744 -36.369 c -3.143 -5.751 -8.905 -8.613 -17.257 -8.613 v 0 h -11.324 z m -26.693 -19.751 h 41.534 v 0 c 16.186 0 27.566 4.787 34.145 14.393 c 6.551 9.574 9.838 26.464 9.838 50.7 c 0 24.179 -3.287 41.044 -9.838 50.616 c -6.578 9.604 -17.959 14.389 -34.145 14.389 v 0 H 341.115 Z M 256.673 215.812 c .116 .693 .174 1.474 .203 2.286 c .029 .844 .059 2.081 .059 3.706 c 0 12.945 -3.377 22.913 -10.159 29.959 c -6.753 7.014 -16.416 10.536 -28.991 10.536 c -5.792 0 -11.207 -.783 -16.243 -2.378 c -5.036 -1.598 -9.052 -3.763 -12.08 -6.534 c -5.152 -4.637 -8.819 -11.231 -11.003 -19.751 c -2.152 -8.521 -3.231 -22.34 -3.231 -41.46 c 0 -13.097 .67 -23.275 2.008 -30.499 c 1.339 -7.256 3.552 -13.277 6.696 -18.096 c 3.115 -4.876 7.568 -8.609 13.331 -11.17 c 5.791 -2.56 12.574 -3.825 20.346 -3.825 c 12.75 0 22.325 3.344 28.788 10.057 c 6.462 6.714 9.692 16.68 9.692 29.9 v 0 v 2.467 h -26.372 v -2.467 v 0 c 0 -6.897 -1.018 -11.986 -3.115 -15.297 c -2.068 -3.341 -5.237 -4.998 -9.516 -4.998 c -5.909 0 -9.957 2.92 -12.197 8.732 c -2.212 5.81 -3.32 19.359 -3.32 40.585 c 0 17.795 1.166 29.658 3.465 35.588 c 2.3 5.9 6.433 8.853 12.398 8.853 c 4.279 0 7.482 -1.807 9.606 -5.389 c 2.126 -3.585 3.203 -9.003 3.203 -16.321 c 0 -.451 -.03 -1.174 -.087 -2.136 c -.058 -.994 -.087 -1.747 -.087 -2.348 v 0 z" fill="#fff"/></g></svg>