<svg xmlns="http://www.w3.org/2000/svg" viewBox="0 0 600 600"><ellipse cx="292.267" cy="294.84" fill="#fff" stroke="#204d96" stroke-width="2.27" rx="293.208" ry="293.207" transform="rotate(-45 292.267 294.84)"/><path fill="#204d96" d="M292.268 30.954c-145.739 0-263.886 118.148-263.886 263.887 0 145.735 118.147 263.885 263.886 263.885 11.175 0 22.169-.776 32.982-2.123V33.08c-10.814-1.349-21.808-2.126-32.982-2.126"/><g fill="#ef3824"><path d="M391.81 50.516v488.646c8.155-3.324 16.126-7.008 23.852-11.102V61.619c-7.727-4.092-15.697-7.779-23.852-11.103M344.099 36.198v517.284a262 262 0 0 0 23.855-5.929s.408-500.422 0-505.43a263 263 0 0 0-23.855-5.925M534.936 191.152v207.374c13.627-31.829 21.214-66.859 21.214-103.685s-7.587-71.859-21.214-103.689M487.226 117.137v355.406c8.648-9.472 16.651-19.544 23.857-30.205V147.341c-7.206-10.661-15.209-20.733-23.857-30.204M439.518 75.967v437.742c8.292-5.587 16.267-11.607 23.855-18.073V94.044c-7.589-6.467-15.563-12.489-23.855-18.077"/></g><path fill="#fff" d="M157.531 164.195v-87.76h60.227v14.873h-42.41v20.763h36.667v14.871h-36.667v37.254h-17.817zM232.368 164.195v-87.76h17.815v38.966l36.015-38.966h23.845l-33.238 34.233 34.858 53.527H288.74L264.55 123l-14.367 14.702v26.494h-17.815z"/><path fill="#ef3824" stroke="#fff" stroke-width="3.783" d="M115.924 183.046c-1.556 39.226.556 121.229 35.731 204.643 25.31 60.025 67.731 120.772 138.25 166.822h.369c168.515-110.046 176.659-304.017 173.983-371.465z"/><path fill="#fff" d="M133.341 201.619c-1.398 35.305.501 109.104 32.155 184.178 2.471 5.852 5.158 11.71 8.001 17.561l265.531-201.739z"/><path fill="#ef3824" stroke="#fff" stroke-width="3.783" d="M176.409 301.484h90.073l27.846-85.762 27.842 85.762h90.075l-72.796 52.869 27.841 85.662-72.962-52.977-72.963 52.977 27.84-85.662z"/></svg>