<svg xmlns="http://www.w3.org/2000/svg" xml:space="preserve" viewBox="0 0 600 600"><path d="m451.778-1 79.571 96.207s-27.43 7.451-27.233 46.85c.183 38.226 32.559 45.942 32.559 45.942s.594 38.758.594 79.098c0 40.334-.594 112.818-80.019 215.503-76.109 98.381-154.147 109.739-154.147 109.739S225.128 580.981 149.017 482.6C69.579 379.915 69 307.431 69 267.097c0-40.324.579-79.082.579-79.082s32.376-7.732 32.57-45.939C102.33 102.658 74.9 95.207 74.9 95.207L154.49-1z" style="fill:#dd5043"/><path d="m159.273 19.693-53.069 65.424h393.825l-53.082-65.424zM110.771 105.677s10.306 14.026 10.306 35.525c0 21.492-10.732 40.369-10.732 40.369h385.546s-10.748-18.877-10.748-40.369c0-21.499 10.319-35.525 10.319-35.525zM88.914 201.697s-.429 12.648-.429 73.704c0 68.494 31.422 142.726 84.867 205.879 70.879 83.742 129.798 89.413 129.798 89.413s58.885-5.671 129.754-89.413c53.459-63.153 84.88-137.385 84.88-205.879 0-61.056-.445-73.704-.445-73.704z" style="fill:#fff"/><path d="M419.286 248.3s-12.018-7.698-17.886-12.213c-2.836-2.178-6.544-16.666-25.733-15.48-13.155.806-22.683 9.149-28.139 24.414-5.028 14.095-2.242 34.519-13.946 52.785-9.381 14.604-16.156 18.742-16.156 18.742s-33.86 4.4-52.105 8.077c-24.861 5.012-59.762 22.024-59.762 22.024s-18.758.213-50.376-5.44c-27.118-4.88-48.861-10.913-48.861-10.913s-.81 6.726 2.621 12.874c6.116 10.897 19.416 13.946 19.416 13.946s-1.974 7.93 1.519 11.787c4.37 4.797 10.042 3.264 10.042 3.264s-2.656 7.897 4.35 14.392c8.951 8.291 14.194 7.006 27.482 4.583 19.201-3.495 35.06-7.022 37.306-6.33 3.478 1.104 17.653 9.824 33.132 16.583s27.696 10.896 27.696 10.896 3.262 4.27 6.756 10.683c3.942 7.204 6.544 16.583 8.735 29.441 1.832 10.83 3.267 18.528 8.939 30.102 5.456 11.128 15.922 23.771 33.576 22.684 3.76-.23-7.285-12.661-11.341-20.722-7.023-13.996-10.484-31.618-10.023-44.048.561-15.661 3.924-20.722 3.924-20.722s28.123 3.05 47.757-7.847c27.067-15.051 37.766-35.162 32.097-73.983-4.896-33.53-9.184-44.771-3.529-57.085 3.71-8.076 8.639-13.532 11.772-19.188 2.192-3.942 2.406-6.33 2.406-6.33l18.975-6.761z" style="fill:#dd5043"/><path d="M304.566 437.595h163.988v13.073H304.566zM307.188 468.999h140.448v13.518H307.188zM322.882 500.402h102.504v4.798H322.882zM328.701 414.912h154.695v4.797H328.701z" style="fill:#dd5043"/><path d="M276.938 414.039s6.267 2.176 14.759 3.494c9.245 1.418 9.245 1.236 13.597 1.599 0 0-1.451 4.056-2.553 9.825-3.148 16.436.063 35.476 6.807 51.647 6.099 14.655 11.539 19.138 10.139 19.221-2.819.133-14.08-5.935-20.213-18.462-10.004-20.475-9.131-33.729-12.576-46.603-3.268-12.199-9.96-20.721-9.96-20.721M222.359 378.266s38.379 18.546 70.439 15.711c32.046-2.835 44.311-8.639 51.02-20.063 6.94-11.803 4.583-31.403-9.594-44.047-9.841-8.803-14.82-8.078-14.82-8.078s-20.573 2.078-44.277 6.331c-37.737 6.759-67.392 23.77-67.392 23.77s-16.268.429-45.151-4.368c-30.662-5.11-49.671-10.155-49.671-10.155s-.243 3.891 4.09 7.978c6.544 6.149 17.721 8.936 17.721 8.936s-4.896 7.401-.182 11.341c3.493 2.901 10.814 1.962 10.814 1.962s-2.638 10.484 2.838 15.925c4.845 4.78 8.288 5.012 25.304 1.516 15.922-3.263 36.625-5.67 36.625-5.67S235.217 393.96 262.251 404c42.45 15.744 82.869 13.089 102.502-3.923 20.573-17.837 24.728-34.107 17.656-74.148-3.083-17.541-9.479-36.892 1.532-53.64 10.468-15.922 22.666-30.58 3.924-42.978-7.847-5.191-19.535-1.696-26.606 3.499-6.545 4.793-11.127 22.683-12.216 35.11-1.089 12.428-5.686 26.456-13.517 37.287-5.671 7.847-11.556 12.874-11.556 12.874s18.1 5.012 26.162 24.859c7.088 17.408 2.488 38.723-12.858 46.668-29.194 15.101-66.696 10.848-88.54 3.495-20.72-6.989-27.481-10.254-27.481-10.254z" style="fill:#fff"/><path d="M382.641 248.3a6.105 6.105 0 0 1-6.1-6.098c0-3.348 2.736-6.082 6.1-6.082 3.347 0 6.083 2.735 6.083 6.082 0 3.364-2.737 6.098-6.083 6.098M128.359 238.065h-7.152v-3.759c1.832.085 3.46-.278 4.913-1.09 1.467-.822 2.574-1.978 3.312-3.493h4.816v26.869h-5.888v-18.527zM152.215 257.284c-2.506 0-4.564-.641-6.147-1.928-1.601-1.282-2.456-2.984-2.559-5.078h5.786c-.017.841.266 1.522.829 2.03.572.495 1.333.756 2.292.756h.278c1.764 0 3.084-.756 3.925-2.275.674-1.202 1.088-2.967 1.253-5.292q-2.451 2.276-5.837 2.275c-2.671 0-4.865-.822-6.561-2.456-1.713-1.646-2.569-3.74-2.569-6.313 0-2.718.971-4.945 2.899-6.676 1.927-1.729 4.402-2.604 7.435-2.604 3.381 0 5.951 1.14 7.699 3.396 1.763 2.275 2.637 5.588 2.637 9.955q.002 7.197-2.917 10.835c-1.797 2.275-4.419 3.409-7.833 3.409zm5.521-18.411c0-1.401-.426-2.571-1.265-3.495-.862-.941-1.929-1.401-3.233-1.401-1.469 0-2.586.414-3.346 1.253-.777.824-1.152 2.042-1.152 3.643q-.001 2.102 1.236 3.363c.841.857 1.913 1.288 3.262 1.288q2.027-.001 3.262-1.288c.828-.841 1.236-1.962 1.236-3.363M179.875 237.556c0-1.055-.346-1.9-1.004-2.557-.675-.643-1.566-.971-2.673-.971-1.282 0-2.275.375-2.984 1.117-.689.728-1.054 1.782-1.084 3.133h-5.411c.051-2.735.925-4.845 2.64-6.331q2.574-2.223 7.219-2.224c2.671 0 4.867.709 6.561 2.111 1.715 1.401 2.553 3.198 2.553 5.405 0 1.899-.873 3.463-2.62 4.683l-.772.478a6.6 6.6 0 0 1 1.781.923c1.697 1.187 2.553 2.983 2.553 5.372 0 2.656-.925 4.748-2.77 6.297-1.865 1.554-4.349 2.325-7.486 2.325q-4.84-.001-7.514-2.308c-1.781-1.515-2.689-3.71-2.735-6.528h5.718c.035 1.502.414 2.654 1.14 3.447.725.79 1.781 1.187 3.148 1.187 1.333 0 2.406-.397 3.211-1.187.826-.81 1.224-1.848 1.224-3.148 0-1.156-.398-2.075-1.224-2.771-.708-.608-1.611-.938-2.718-1.022-.611-.033-1.168-.045-1.695-.063-.528 0-.862.018-1.01.047v-3.903c.165.029.511.029 1.039.012a19 19 0 0 0 1.684-.132c.924-.097 1.662-.379 2.208-.855.675-.596 1.021-1.453 1.021-2.537M193.561 256.609c.443-4.04 1.644-8.027 3.641-11.968 1.86-3.676 4.187-6.922 6.954-9.74h-14.799v-4.633h21.101v4.004q-4.552 4.452-7.417 10.385c-1.913 3.958-3.052 7.931-3.431 11.952zM144.712 169.455l22.899-28.172-20.274-26.129h9.343l10.912 13.961c2.26 2.887 3.83 5.061 4.715 6.563a144 144 0 0 1 4.764-6.201l11.804-14.324h8.604l-20.602 25.832 22.236 28.469h-9.627l-14.985-19.301a121 121 0 0 1-2.508-3.398c-1.269 1.816-2.172 3.081-2.768 3.806l-15.064 18.894zM199.739 169.455l22.735-54.301h8.586l24.221 54.301h-8.951l-6.942-16.47h-24.846l-6.493 16.47zm17.05-22.353h20.21l-6.217-14.986c-1.86-4.583-3.278-8.339-4.237-11.292a68 68 0 0 1-3.245 10.34zM257.669 153.993l7.09-.89c.181 4.135 1.037 6.971 2.552 8.503 1.531 1.519 3.63 2.279 6.312 2.279 1.98 0 3.677-.414 5.129-1.236 1.435-.829 2.421-1.945 2.967-3.365.544-1.418.811-3.674.811-6.794v-37.336h7.845v36.957c0 4.554-.596 8.063-1.8 10.551-1.201 2.489-3.114 4.401-5.718 5.706-2.62 1.302-5.688 1.961-9.198 1.961-5.227 0-9.214-1.368-12.003-4.124-2.768-2.734-4.101-6.805-3.987-12.212M321.366 115.338h8.72l14.508 47.67 5.77.085v10.334h-7.337l-.081-3.971h-39.254v3.89h-7.628l-.217-10.337h5.458c-.232-.133 20.061-47.671 20.061-47.671m4.137 6.246s-16.353 41.292-16.137 41.424h27.364zM352.44 115.154l8.836-.033 22.684 22.451 12.676-22.418h7.814s-30.892 55.191-30.959 55.142c0 0-8.127-.035-8.077 0 0 0 14.606-26.608 14.837-26.608zM412.691 169.455v-54.301h7.848v26.753l29.475-26.753h10.649l-24.893 21.993 25.998 32.308h-10.385l-21.118-27.463-9.726 8.586v18.877zM270.692 31.724v-6.858h7.418v6.875c7.517.363 13.434 2.457 17.79 6.262 4.349 3.81 6.527 8.558 6.527 14.214 0 5.537-2.109 10.233-6.318 14.107-4.219 3.874-10.216 6.019-17.999 6.414v6.858h-7.418v-6.858c-7.006-.249-12.858-2.223-17.522-5.903-4.667-3.692-7.011-8.572-7.011-14.618 0-6.087 2.327-10.948 6.994-14.607 4.645-3.646 10.501-5.604 17.539-5.886m0 6.232c-4.914.2-8.871 1.517-11.919 3.989q-4.548 3.688-4.547 10.285c0 4.354 1.497 7.781 4.497 10.253 2.984 2.491 6.972 3.841 11.969 4.039zm7.418-.118v28.785c5.029-.231 9.003-1.583 11.902-4.089 2.903-2.489 4.333-5.935 4.333-10.304 0-4.301-1.413-7.699-4.249-10.2-2.836-2.525-6.841-3.909-11.986-4.192M311.985 79.596V25.295h7.849v26.757l29.474-26.757h10.649l-24.908 21.994 25.997 32.307h-10.369l-21.118-27.447-9.725 8.588v18.859z" style="fill:#dd5043"/></svg>