<svg xmlns="http://www.w3.org/2000/svg" width="1000" height="1000" viewBox="0 0 1000 1000"><path fill="#ee3124" d="M25 499.996C25 761.918 238.085 975 500.002 975c261.92 0 475.001-213.082 475.001-475.004 0-261.91-213.08-474.996-475-474.996S25 238.085 25 499.996"/><path fill="#fff" d="M43.068 499.996c0 251.953 204.982 456.936 456.933 456.936 251.952 0 456.934-204.983 456.934-456.936C956.935 248.048 751.955 43.07 500 43.07 248.05 43.068 43.068 248.047 43.068 499.996"/><path d="M938.867 499.996c0 242.383-196.485 438.866-438.865 438.866-242.377 0-438.864-196.483-438.864-438.866 0-242.374 196.486-438.858 438.864-438.858 242.38 0 438.865 196.484 438.865 438.858"/><path fill="#fff" d="M822.993 499.996c0 178.38-144.609 322.987-322.992 322.987-178.38 0-322.987-144.607-322.987-322.987 0-178.377 144.606-322.98 322.987-322.98 178.383-.002 322.992 144.603 322.992 322.98"/><g fill="#fff"><path d="m204.906 203.013 52.42-44.508 9.781 11.514-30.15 25.6 8.551 10.075 28.258-23.992 9.776 11.518-28.258 23.992 8.556 10.074 30.453-25.855 9.778 11.514-52.727 44.766zM307.084 154.347l25.94 42.614-24.955 15.19-25.943-42.614zm-11.367-18.676 7.543 12.395-24.96 15.19-7.54-12.394ZM326.155 164.428c-2.451-6.192-4.962-12.25-7.77-17.979l26.786-10.626 3.595 7.984.185-.076c1.832-8.314 7.813-14.535 17.232-18.274 8.316-3.298 23.728-6.207 30.729 11.44l10.992 27.71-27.159 10.774-9.857-24.85c-2.71-6.836-6.346-8.174-11.054-6.307-6.28 2.492-7.33 7.397-4.507 14.511l9.16 23.094-27.16 10.773zM430.24 92.421l3.456 17.45 14.428-2.856 2.7 13.65-14.428 2.856 2.817 14.234c1.193 6.043 4.741 8.075 11.272 6.784 1.365-.27 3.18-.833 5.03-1.704l2.586 13.06c-3.353 1.475-12.21 4.344-19.13 5.713-18.13 3.589-24.54-.107-27.565-15.413l-3.38-17.06-8.089 1.602-2.701-13.649 7.8-1.541-1.7-8.585ZM458.527 124.618c-.362-7.643-.677-14.197-1.484-18.535l27.993-1.338 1.302 12.671.2-.009c3.391-12.3 10.144-14.613 22.133-15.686l.92 19.26-5.46.258c-12.605.605-16.205 6.446-15.767 15.681l.842 17.57-29.183 1.395zM556.599 137.65l-.208 1.58c-.774 5.911-5.928 10.045-13.12 9.098-5.03-.66-7.128-3.742-6.751-6.599.545-4.14 5.203-6.034 16.436-4.554zm-15.842-16.714c.894-2.99 3.313-5.379 10.013-4.496 6.406.84 7.982 4.857 7.44 8.994l-.362 2.76-7.982-1.05c-20.59-2.707-39.396-2.272-41.338 12.508-.87 6.6 2.825 11.297 7.603 13.83 3.933 2.12 10.099 3.23 16.309 4.046 10.148 1.337 18.104.276 24.526-5.893l-.435 7.156 25.813 3.394c-.13-2.822-.064-4.818.18-6.69l3.097-23.55c2.073-15.765-8.845-22.712-34.756-26.12-7.589-.997-16.064-1.31-22.995.286-6.92 1.594-12.18 5.011-13.418 11.366zM637.632 149.908c.631-2.621.756-5.01.022-7.07-.733-2.062-2.169-3.64-4.88-4.62-6.169-2.23-10.714 2.148-13.52 9.906-3.01 8.317-3.497 15.22 3.136 17.621 6.261 2.266 9.964-1.255 11.591-5.743l26.913 9.737c-2.662 7.069-8.507 10.662-16.231 11.567-7.727.906-17.331-.881-27.517-4.565-19.903-7.204-33.128-20.019-26.535-38.242 6.388-17.663 23.2-20.033 46.848-11.48 16.07 5.815 32.338 16.352 26.525 32.427zM693.03 127.916l24.598 15.766-16.52 25.772.167.107c7.823-3.365 16.364-2.14 24.397 3.006 7.53 4.828 18.889 15.65 8.643 31.631l-16.086 25.098-24.6-15.766 14.427-22.506c3.97-6.19 2.94-9.923-1.33-12.654-5.692-3.649-10.284-1.636-14.415 4.804l-13.404 20.916-24.6-15.766zM789.905 205.214l-12.132 13.012 10.761 10.027-9.493 10.179-10.757-10.03-9.895 10.613c-4.201 4.504-3.78 8.57 1.093 13.111 1.018.946 2.535 2.088 4.325 3.081l-9.078 9.743c-3.16-1.862-10.665-7.364-15.828-12.176-13.52-12.605-14.267-19.963-3.63-31.372l11.862-12.722-6.033-5.625 9.487-10.177 5.812 5.422 5.966-6.397zM255.459 740.42l50.236 42.787-9.797 11.5-27.233-23.2L259 782.859l25.874 22.036-9.797 11.501-25.87-22.038-17.275 20.273-23-19.587zM285.011 816.698c3.913-6.577 7.266-12.214 8.99-16.276l24.085 14.33-5.904 11.29.169.099c9.614-8.39 16.525-6.589 27.112-.87l-9.858 16.57-4.699-2.794c-10.842-6.454-17.072-3.569-21.798 4.377l-8.997 15.114-25.108-14.94zM371.097 870.805l-.551 1.492c-2.08 5.59-8.029 8.464-14.828 5.936-4.748-1.765-6.106-5.242-5.1-7.944 1.454-3.913 6.417-4.714 17.035-.766zm-11.701-19.836c1.535-2.715 4.429-4.503 10.763-2.144 6.054 2.25 6.692 6.522 5.235 10.43l-.969 2.607-7.542-2.808c-19.469-7.24-37.888-11.022-43.089 2.952-2.32 6.237.23 11.64 4.321 15.177 3.357 2.946 9.12 5.408 14.986 7.591 9.597 3.572 17.589 4.32 25.232-.262l-2.031 6.88 24.401 9.08c.507-2.78 1.01-4.714 1.671-6.484l8.282-22.262c5.545-14.9-3.536-24.114-28.034-33.227-7.171-2.671-15.367-4.868-22.473-4.862-7.105.01-12.997 2.165-15.625 8.077zM404.588 872.999c.996-6.58 1.88-13.081 2.34-19.447l28.493 4.315-.918 8.71.2.031c5.77-6.264 14.07-8.623 24.094-7.108 8.842 1.343 23.625 6.596 20.782 25.363l-4.465 29.479-28.887-4.375 4-26.434c1.103-7.27-1.36-10.258-6.37-11.016-6.682-1.013-10.057 2.697-11.204 10.264l-3.722 24.564-28.887-4.376zM514.476 886.728l16.088-24.436 33.632-1.97-18.98 22.712 27.846 26.74-36.805 2.159zm-32.018-43.518 29.169-1.707 4.194 71.627-29.168 1.706z"/><path d="m574.446 870.406-8.104 2.002-3.331-13.507 8.107-2.001-.573-2.316c-3.21-13.025-.194-21.955 21.126-27.217 5.213-1.285 11.506-2.326 17.148-2.695l3.116 12.641c-1.854-.053-3.518.253-5.933.848-5.594 1.38-8.304 4.506-7.093 9.427l.572 2.317 13.799-3.406 3.332 13.509-13.8 3.405 8.618 34.926-28.369 7zM696.628 843.348c2.742 6.067 5.535 12.003 8.61 17.595l-26.262 11.87-3.965-7.805-.184.08c-1.434 8.398-7.115 14.89-16.352 19.065-8.154 3.68-23.416 7.315-31.235-9.98l-12.285-27.168 26.627-12.038 11.011 24.358c3.027 6.705 6.72 7.872 11.337 5.783 6.159-2.785 6.974-7.735 3.82-14.709l-10.232-22.639 26.623-12.037zM700.476 826.1c-4.402-6.257-8.174-11.625-11.175-14.858l22.926-16.118 7.882 10.005.162-.113c-3.718-12.205.745-17.778 10.298-25.1l11.09 15.774-4.473 3.141c-10.324 7.26-10.238 14.121-4.92 21.687l10.115 14.388-23.9 16.804zM747.589 741.462l12.333 12.822 10.595-10.195 9.65 10.023-10.602 10.2 10.058 10.455c4.27 4.44 8.35 4.24 13.152-.378 1.002-.964 2.224-2.416 3.313-4.15l9.229 9.593c-2.025 3.056-7.93 10.25-13.015 15.141-13.32 12.813-20.706 13.164-31.525 1.918l-12.057-12.535-5.943 5.722-9.646-10.03 5.729-5.511-6.062-6.304z"/></g><g fill="#ee3124"><path d="M662.079 696.77c-.582.556-.582 1.987-.582 1.987s.246-.753.582-1.987M337.932 696.77c.33 1.234.577 1.987.577 1.987s.001-1.43-.577-1.987"/><path d="M804.541 516.187c-15.06 0-115.94-31.62-123.472-36.14-7.532-4.517 0-7.53 0-7.53s31.622 7.53 67.757-3.013c36.142-10.54 28.614-33.125 28.614-33.125s-78.302 3.013-93.36 3.013c-15.056 0-7.526-3.013-1.505-6.022 6.022-3.011 47.035-41.484 52.705-48.184 8.287-9.79 0-34.638 0-34.638-45.173 40.659-78.298 51.95-78.298 51.95v-15.81c24.088-9.034 19.572-45.172 22.585-55.712 3.008-10.54-18.07-39.15-21.085-27.101-3.011 12.048-13.546 37.641-27.1 45.172-13.55 7.529-27.104 21.078-27.104 21.078v24.095h-16.56l-37.65 33.124-9.03-6.776-3.012-51.196s9.036 3.013 21.078-2.258c12.042-5.269 6.774-19.576 6.774-19.576-21.078 7.53-23.335-5.269-24.84-13.549-1.513-8.284 4.513-15.06 16.563-22.587 12.046-7.529 7.531-21.082 7.531-21.082 0 3.767-8.286 9.035-13.554 9.788-5.27.752-37.646-1.505-37.646-1.505.746-13.553-24.843-7.53-24.843-7.53s-39.907 3.767-57.974 11.292c-18.07 7.531-12.045 17.321-12.045 17.321 3.01-8.283 21.832-14.308 30.862-11.295 5.29 1.763 10.813 13.062 12.993 22.89-59.625 8.962-59.669-12.353-59.669-12.353s-13.551 36.897 57.22 16.566l2.757-2.76c1.212 6.361.9 11.85-2.005 13.3-7.533 3.765-32.373 0-32.373 0 3.012 12.797 15.81 12.801 15.81 12.801h29.363c2.83 5.22 4.268 11.889 4.895 18.728-7.661.381-18.447-1.413-18.447-1.413s5.243 20.223 18.722 5.374c.75 15.566-2.16 30.764-2.16 30.764l-12.047 15.058h-15.06l-37.639-33.125h-16.564v-24.094s-13.553-13.55-27.105-21.078c-13.55-7.531-24.09-33.125-27.102-45.173-3.01-12.048-24.09 16.562-21.082 27.102 3.01 10.54-1.503 46.677 22.588 55.712v15.81s-33.127-11.292-78.3-51.95c0 0-7.527 24.095 0 34.638 5.101 7.142 46.682 45.174 52.704 48.184 6.018 3.009 13.553 6.022-1.505 6.022-15.061 0-93.357-3.013-93.357-3.013s-7.53 22.586 28.608 33.124c36.138 10.543 67.759 3.013 67.759 3.013s7.527 3.013 0 7.53c-7.53 4.52-108.415 36.14-123.471 36.14 0 0-12.051 54.206 150.574-1.507 0 0 10.54-3.01 6.021 4.513-4.513 7.534-110.273 80.069-117.804 80.069 0 0 12.406 52.434 149.428-46.937 0 0 10.164-2.64 4.514 7.527-5.647 10.162-22.585 29.36-33.876 33.878-11.295 4.52 10.163 10.163 10.163 10.163s-2.258 16.941-27.106 35.01c-24.842 18.07-20.325-4.514-20.325-4.514s-39.526-13.556-42.912 9.034c0 0 13.55-6.777 20.326-2.26s5.646 10.162 18.07 12.422c12.421 2.26-1.132 9.035-9.037 7.907s-27.104 23.713-19.2 32.747c0 0 9.038-16.94 14.68-14.678 5.652 2.258 15.813 2.258 21.46-3.388 5.646-5.648-6.777 20.33 0 25.973 6.775 5.65 4.518 18.071 14.681 21.458 0 0-5.646-16.94-1.128-23.715 2.242-3.363 3.37-3.665 3.94-3.115-1.096-4.086-3.152-13.665-.553-20.6 3.39-9.034 14.68 9.034 14.68 9.034l4.519-1.129s13.553 10.163 14.684 16.941c0 0 2.257-15.812-4.518-21.456l3.387-4.518s-4.518-13.55-21.456-15.81c-16.943-2.257 5.646-12.421 5.646-12.421l23.716-29.363s20.331 19.2 16.939 3.387c-3.386-15.808 25.975-42.914 25.975-42.914s31.623-15.812 25.973 22.587c0 0-39.525 54.206-51.948 58.724-12.425 4.518-7.905 42.914-7.905 42.914s5.648-22.584 12.424-10.163c6.775 12.425 5.645 25.975 12.42 29.363 0 0-3.387-30.493 3.388-28.234 6.778 2.26 12.42 7.906 13.553 13.553 0 0 2.259-28.236 5.645-32.75 3.39-4.518 9.037-22.588 21.458-28.233 12.423-5.65 23.715-4.518 18.07 23.716-5.648 28.233-36.77 66.402-4.518 92.604 0 0 1.128-39.525 11.291-32.75 10.165 6.775 16.943 15.81 19.2 27.106 2.26-11.294 9.038-20.33 19.204-27.106 10.158-6.775 11.288 32.75 11.288 32.75 32.248-26.202 1.129-64.37-4.516-92.604s5.645-29.364 18.066-23.716c12.423 5.645 18.068 23.716 21.46 28.233 3.388 4.514 5.646 32.75 5.646 32.75 1.127-5.647 6.774-11.292 13.552-13.553 6.773-2.259 3.388 28.234 3.388 28.234 6.78-3.388 5.645-16.938 12.424-29.363 6.772-12.423 12.423 10.163 12.423 10.163s4.514-38.396-7.909-42.914-51.949-58.724-51.949-58.724c-5.648-38.399 25.973-22.587 25.973-22.587s29.363 27.106 25.976 42.914c-3.385 15.813 16.938-3.387 16.938-3.387l23.72 29.363s22.584 10.164 5.646 12.421c-16.94 2.26-21.456 15.81-21.456 15.81l3.386 4.518c-6.773 5.645-4.516 21.456-4.516 21.456 1.128-6.778 14.684-16.94 14.684-16.94l4.514 1.128s11.294-18.067 14.681-9.034c2.602 6.937.547 16.514-.548 20.6.565-.55 1.696-.248 3.936 3.115 4.52 6.775-1.131 23.715-1.131 23.715 10.166-3.387 7.91-15.809 14.683-21.458 6.78-5.645-5.647-31.623 0-25.973 5.65 5.646 15.81 5.646 21.46 3.388 5.646-2.261 14.683 14.678 14.683 14.678 7.9-9.034-11.294-33.876-19.204-32.747-7.902 1.128-21.454-5.647-9.031-7.907 12.418-2.258 11.29-7.905 18.07-12.423 6.773-4.516 20.324 2.261 20.324 2.261-3.385-22.59-42.916-9.034-42.916-9.034s4.522 22.584-20.324 4.513c-24.85-18.07-27.103-35.009-27.103-35.009s21.457-5.642 10.164-10.163c-11.296-4.518-28.235-23.716-33.88-33.878-5.649-10.168 4.518-7.527 4.518-7.527 137.018 99.371 149.425 46.937 149.425 46.937-7.526 0-113.29-72.535-117.804-80.069-4.514-7.524 6.02-4.513 6.02-4.513 162.626 55.713 150.572 1.506 150.572 1.506"/></g><path fill="#ee3124" d="M500.002 270.746h38.777V254.18s12.048-18.824 19.57-23.338c7.535-4.518-27.853 6.023-33.88 14.306 0 0-16.559-19.909-24.467-22.378-7.905 2.47-24.468 22.378-24.468 22.378-6.02-8.281-41.409-18.824-33.877-14.306 7.53 4.514 19.574 23.338 19.574 23.338v16.565z"/><path fill="#fff" d="M479.296 321.19s-9.786-19.575 17.318-14.305c0 0-7.53 15.807-17.318 14.305M539.53 455.955s2.258 104.329-39.525 128.96h-.004c-41.784-24.631-39.525-128.96-39.525-128.96zM448.427 486.445c-36.676 0-61.122-44.428-66.016-54.114 9.692-2.148 27.653-7.561 23-17.449-4.062-8.623-18.391 6.326-25.184 14.192-.573-.368-1.219-.616-1.907-.597-.525-10.095-2.667-31.814-11.358-27.344-10.242 5.275 2.481 21.933 8.596 29.027-.306.518-.508 1.083-.512 1.69-9.711.372-29.298 2.447-26.354 13.237 2.544 9.321 19.645-3.375 27.57-9.876 5.163 10.45 30.941 58.012 72.166 58.012a3.39 3.39 0 1 0-.001-6.778M625.048 431.847c-.005-.607-.205-1.173-.514-1.69 6.113-7.094 18.836-23.75 8.589-29.027-8.684-4.47-10.826 17.25-11.354 27.344-.691-.02-1.338.23-1.907.6-6.796-7.866-21.125-22.817-25.184-14.193-4.652 9.889 13.314 15.299 23 17.45-4.895 9.684-29.347 54.112-66.022 54.112a3.39 3.39 0 0 0 0 6.777c41.23 0 67.008-47.564 72.174-58.013 7.92 6.502 25.024 19.198 27.567 9.877 2.945-10.79-16.638-12.865-26.35-13.237"/><path fill="#ee3124" d="M479.73 535.753v-64.246h37.623v7.122h-24.917v20.646h23.132v7.12h-23.132v22.244h25.454v7.115h-38.16z"/></svg>