<svg xmlns="http://www.w3.org/2000/svg" width="1000" height="1000" viewBox="0 0 1000 1000"><path fill="#fff" d="M974.76 493.293c-3.336-7.865-144.272-50.053-170.127-56.953-1.524-.406-4.619-1.415-4.619-1.415s-.165-2.742-.054-4.322c.232-3.137.11-7.877.175-11.009 0 0 15.653.873 19.044-.45 9.63-3.75 13.326-16.673 9.938-25.816-1.766-4.772-9.302-7.771-10.848-11.78-1.482-3.774-2.436-6.763-6.452-8.798-6.504-3.291-22.97-6.165-30.22-5.534-6.112.538-7.285 7.59-11.058 9.22-15.128 6.506-21.862 3.461-21.72 26.015l.33 2.034c-5.946-2.874-14.326-7.033-20.404-9.616V250H271.25v144.869c-6.078 2.583-14.458 6.74-20.403 9.616l.329-2.034c.143-22.554-6.593-19.51-21.72-26.015-3.773-1.63-4.946-8.682-11.055-9.22-7.251-.63-23.717 2.243-30.22 5.534-4.016 2.035-4.97 5.024-6.451 8.797-1.546 4.01-9.082 7.01-10.848 11.781-3.39 9.144.307 22.065 9.938 25.816 3.39 1.323 19.044.45 19.044.45.067 3.132-.056 7.872.176 11.01.11 1.579-.055 4.321-.055 4.321s-3.094 1.01-4.618 1.415c-25.855 6.9-166.791 49.088-170.126 56.953-.9 1.707 1.02 2.146 1.02 2.146 3.466.35 92.188-20.065 108.994-23.151 19.076-3.505 34.017-6.593 57.986-10.158l-.133 1.35c-.044 7.76 1.645 7.705 8.085 9.927l-.198 1.442c-8.085 1.63-33.534 5.48-39.128 9.22-6.121 4.092-20.48-.965-30.518 12.687-2.643 3.597-2.697 18.473-.099 22.026 4.223 5.793 8.623 3.292 14.425 4.103 3.531.505 5.277 3.927 8.206 5.528 2.862 1.558 6.866.966 10.025 1.031 7.59.154 10.027-6.67 15.368-10.356 2.578-1.778 5.65-.57 8.502-1.316 4.3-1.141 7.098-6.054 10.871-8.008 2.194-1.141 7.415-.769 9.51.525 13.515 8.316 49.342-.24 63.097-8.709v87.756s-1.076 16.016 7.777 31.198C322.217 694.666 413.945 737.339 500 737.38c86.056-.042 177.784-42.715 220.97-116.847 8.853-15.182 7.779-31.198 7.779-31.198v-87.754c13.754 8.47 49.583 17.024 63.098 8.71 2.094-1.295 7.314-1.668 9.51-.526 3.773 1.952 6.57 6.866 10.871 8.008 2.852.745 5.923-.46 8.501 1.316 5.343 3.686 7.778 10.51 15.368 10.356 3.16-.066 7.164.527 10.026-1.03 2.929-1.602 4.673-5.024 8.206-5.53 5.804-.81 10.201 1.69 14.426-4.102 2.6-3.553 2.545-18.428-.099-22.026-10.037-13.653-24.396-8.596-30.52-12.688-5.594-3.74-31.042-7.59-39.127-9.22l-.198-1.441c6.44-2.22 8.128-2.167 8.085-9.928l-.133-1.35c23.968 3.565 38.91 6.654 57.986 10.158 16.806 3.087 105.527 23.502 108.993 23.151-.003 0 1.919-.44 1.017-2.147"/><path fill="#001a4b" d="M499.997 326.957c14.502-.033 28.334 2.743 41.015 7.805-.428 2.034-1.964 7.843-6.395 15.198-22.882-2.94-48.365-.537-48.365-.537l-21.182-16.712c10.959-3.708 22.706-5.72 34.927-5.754"/><path fill="#ccc" d="M565.972 482.768a116.9 116.9 0 0 1-33.999 26.568c-38.184 20.533-86.99 16.556-121.6-8.47 19.905 27.752 52.485 45.8 89.235 45.8 42.22 0 78.853-23.832 97.246-58.765-8.537-2.135-16.427-6.227-24.898-8.582-2.395 1.27-4.357 2.417-5.984 3.449"/><path fill="#001a4b" d="M540.596 420.188c5.683 11.886 12.551 24.409 17.234 32.69 6.286-9.237 7.229-16.311 12.9-32.339 2.216-6.213 9.962-15.1 17.223-22.355-11.165-7.278-26.195-14.354-26.195-14.354-11.553 16.262-21.162 36.358-21.162 36.358M425.284 356.285c-9.785 9.099-17.892 19.997-23.859 32.119a134 134 0 0 1 4.18 3.444c.899-1.168 1.82-2.347 2.764-3.527 6.79-15.138 14.347-27.835 16.915-32.036M493.283 421.033s-13.69-21.802-28.016-38.064c0 0-30.155 13.464-41.279 19.252 0 0-.394 3.909-.668 10.278 6.724 11.426 10.004 23.678 18.549 41.312 2.063 1.383 3.698 3.17 5.222 5.057a559 559 0 0 0 20.536 5.392c0-.002 19.031-30.377 25.656-43.227M490.717 502.525l47.509-1.296 9.203 25.912C529.46 537.803 507.85 543.4 507.85 543.4c-22.696-4.937-35.74-14.766-35.74-14.766zM412.778 483.938c-3.96 1.564-7.766 3.098-10.069 3.84-.275.094-.559.17-.779.24a95.5 95.5 0 0 0 13.426 18.764c4.75 5.156 9.972 9.589 15.566 13.427 1.076-.769 2.271-1.756 3.115-2.699 0 0-13.437-19.339-21.259-33.572"/><path fill="#d1d3d4" d="M594.586 391.838a178 178 0 0 1 3.346-3.001c-.482-.484.517-.225.198-.153l.45-.363c-2.129-4.288-4.475-8.446-7.107-12.422 1.427 5.198 2.413 10.514 3.113 15.939"/><path fill="#001a4b" d="M293.933 571.325c0 24.09 2.896 31.659 9.51 43.154l.209.351.218.351C348 681.065 421.397 713.71 499.995 713.71c78.6 0 151.996-32.645 196.126-98.529l.22-.35.208-.352c6.615-11.495 9.51-19.063 9.51-43.154v-63.93h-11.945v63.93c0 22.686-2.632 28.017-7.91 37.21-40.388 60.311-108.793 93.261-186.207 93.261s-145.819-32.951-186.207-93.262c-5.278-9.192-7.91-14.523-7.91-37.21v-63.93h-11.945v63.93zM284.49 263.597v125.349l6.625-3.099v-115.63H708.88v115.63l6.625 3.099V263.597Z"/><path fill="#001a4b" d="M706.06 384.52V273.049H293.934v111.47l11.936-5.587v-93.955h388.256v93.955ZM708.89 571.325c0 24.792-3.015 32.602-9.884 44.581l-.251.44-.296.416c-44.647 66.652-118.91 99.801-198.462 99.801s-153.815-33.15-198.462-99.8l-.295-.417-.252-.44c-6.867-11.979-9.883-19.789-9.883-44.581v-63.93h-6.615v63.93c0 26.263 3.456 35.148 10.761 47.873l.373.636.406.614c45.875 68.494 122.211 102.718 203.967 102.718 81.758 0 158.094-34.225 203.967-102.718l.407-.614.372-.636c7.307-12.725 10.76-21.61 10.76-47.873v-63.93h-6.612z"/><path fill="#e31b4d" d="M452.718 472.962c-4.65-3.224-7.338-8.244-11.035-12.378-1.36-1.514-3.258-2.593-4.542-4.01-.823-.922-6.066-12.165-6.966-14.13l-1.12-.609c-9.531.527-19.109.642-28.652.888-4.136.11-9.5.954-13.547.438-.603-.077-.757-.575-.614-1.124 9.038-3.055 25.537 1.81 31.746-6.56.844-1.134.713-3.076 2.26-3.47 1.634.8 3.356 1.562 5.22 1.124l.823-1.125c-1.437-5.95-2.984-12.209-6.856-17.106-6.153-7.762-21.095-24.095-29.608-28.373-3.817-1.92-8.523-8.639-10.037-6.247.065.822-.385 1.564-.922 2.155-3.73.757-3.608-6.313-8.61-9.324-5.036-3.038-11.617-4.634-17.41-3.379-7.096 1.553-14.436 5.326-20.884 8.606-14.207 7.19-28.423 14.364-42.695 21.467-6.736 3.357-13.491 7.065-20.392 10.076-1.634.707-3.97.953-4.716 2.874-.987 2.54 1.185 6.279 3.268 7.672 4.4 2.919 11.167-.685 15.368-2.358l.713.41c-3.093 3.902-6.615 4.006-11.046 4.91-3.533.73-7.064 2.605-10.574 3.609-4.783 1.361-9.476 2.852-14.216 4.382-1.986.637-5.244 1.096-4.717 3.998-.68 1.607-2.479 1.367-3.882 1.629-15.522 2.82-31.055 6.747-46.512 10.048-9.63 2.046-19.23 4.371-28.784 6.857-31.845 8.266-63.722 16.185-95.171 25.91-3.094.97-19.482 5.742-20.865 7.07 1.986.461 51.656-13.075 59.016-14.875 46.335-11.265 93.34-19.602 140.29-27.72 44.526-7.717 89.665-13.717 134.488-19.466 7.778-1.004 15.643-2.138 23.463-2.868 5.002-.472 5.846 1.233 9.314 4.503-.012 2.215-9.292 1.618-11.375 1.843-.33-.257-.307-.697-.1-1.02 1.471-.796 3.017-1.427 4.103-2.765l-.515-1.136c-16.323 1.404-32.765 4.416-48.957 6.911-24.791 3.795-49.67 7.491-74.353 11.93-16.562 2.989-32.93 7.201-49.472 10.355v.707c29.903-3.164 59.41-10.354 89.205-14.536l.099.818c-7.207 2.227-14.688 3.385-22.016 5.123-33.764 8.012-67.837 14.775-101.612 22.828 5.978-.834 11.957-1.584 17.936-2.348 2.259 1.383-.571 3.807.614 6.648 2.02 4.91 5.945.297 6.34 2.777.164.965-1.12 4.113-2.15 4.706-13.613 1.608-26.953 5.473-40.555 7.179l-.198 1.124 8.5.203.922.719c.044 2.111-3.07 1.383-4.42 1.64-4.784.9-9.554 2.067-14.326 2.962-10.62 2.02-9.171 10.093-16.597 11.98-.757.197-1.306.679-1.843 1.228-.152 2.982 3.938-1.382 5.123 1.447-.767 3.028-2.501 5.903-1.229 9.105.46 1.142 1.162 2.392 2.458 2.763 6.394 1.8 8.895-9.61 12.91-11.868 3.28-1.843 7.261 2.26 11.464-.11 2.392-1.337 4.816-2.677 7.174-4.102 2.534-1.512 5.748-7.392 9.423-6.646 2.885.592 3.882 4.934 8.598 5.33 7.58.615 15.588.878 23.146-.196 12.364-1.777 33.205-7.827 42.41-16.41-1.195-3.456-11.617-.356-14.14 0 2.359-4.953-.822-7.162 1.754-8.386l10.64-1.025c3.149-.29 6.363-1.212 9.566-1.546 3.214-.34 6.636-.148 9.795-.61 1.954-.29 5.144-.877 6.143-2.776-.285-1.535-1.393-3.56-.307-5.006 1.35-1.832 5.002-2.216 7.065-2.978 2.774-1.009 5.033-3.066 7.887-3.872 3.236.977.406 6.007 4.2 7.054 3.51.966 12.067-3.565 14.338-.723-.012 1.53-1.054 3.855.416 5.024 2.281 1.843 5.145 2.188 7.46 4.607 2.972 3.077 7.151 8.852 5.846 13.42-1.35 4.75-12.451 10.028-16.587 7.373-2.743-1.744-2.5-5.677-6.351-4.499-4.53 1.383-9.203 1.696-13.723 2.966-3.742 1.05-9.007 1.838-12.407 3.473-.506.252-1.404 1.108-.811 1.744 1.766 1.908 18.637-.133 21.917-.505 1.526-.175 2.897-.264 3.993 1.01 2.051 2.39-2.6 3.07-1.228 5.242 1.886 2.962 6.844 4.037 10.037 3.27 5.836-1.427 12-3.906 17.496-6.32 1.756-.79 3.664-2.017 5.452-2.588 4.322-1.427 9.093.921 12.078-3.993 2.687-4.433 6.296-9.396 6.351-14.744.044-4.36-2.72-7.103-4.3-10.866-.56-1.371-3.324-8.298-3.28-9.324.044-.668 2.929-7.387 3.575-7.47l18.955-2.359c.373-.043 1.47.769 1.536 1.125.8 3.833-5.002 8.337-7.065 10.952-.779.987-2.37 3.62-1.942 4.92.702 2.166 3.795-1.125 4.191 1.337.296 1.739-3.686 4.471-3.27 7.684.341 2.66.528 6.581 3.27 7.882 4.574 2.155 4.992-1.574 7.075-1.64.822-.022 2.106.483 3.06.494 2.841.033 5.507-.873 8.206-1.613 5.376-1.488 21.665-9.128 26.009-8.519 5.1.707 7.942 9.494 23.564 9.955l.822-1.238c-5.32-5.135-9.236-1.728-14.753-12.906-1.47-2.99-4.003-6.358-6.34-8.704-.12-.472.087-1.021.603-1.125 9.444 3.35 10.881 18.144 24.989 16.998l.725-.823c-.621-1.58-3.42-2.111-4.813-3.065m-124.032-73.43c1.086-1.343 2.544-2.266 3.993-3.176 1.908.203 3.028.653 4.924 0 4.267-1.438 21.27-5.935 24.99-5.21.23 1.163-1.58 1.311-2.359 1.524-10.158 2.82-20.788 5.272-31.132 7.268zm67.813 10.75c-19.57 2.88-60.136 8.606-60.136 8.606l2.754-1.268 58.577-9.526c.602-.111 1.228.087 1.744.406.408 1.436-2.139 1.683-2.94 1.782m-144.722 79.216-19.965 5.111c-.406 0-1.141-.136-1.448-.653.099-.822.987-1.98 1.81-2.292 5.113-1.427 10.125-1.843 15.149-2.864 3.071-.63 4.344-.575 6.702-.772zm107.437 3.336c-.516-.1-1.142-.407-1.24-1.031 1.13-4.295 3.489-10.235.209-14.535l-4.706-10.148c.406-1.437 1.942-1.64 3.17-2.04.922-.115 1.833.806 2.051 1.74l5.53 12.994c1.228 5.133-1.745 9.74-5.014 13.02m52.15-21.906c-1.58.215-3.784.745-5.058-.208-.735-1.475.428-2.946 1.064-4.317 1.47-1.783 3.686-2.326 5.891-2.326.527.428.648.955.648 1.487-.22 2.111-.648 4.322-2.546 5.364"/><path fill="#e31b4d" d="M322.236 486.071c1.842.213 2.04-2.046 3.685-2.457 3.072 2.254 2.864 6.143 5.935 8.298 1.645.307 3.894-.718 5.747-1.135 1.219-.604 2.448-1.837 2.448-3.165-.603-2.462-2.04-4.618-2.567-7.179-1.316-3.988-6.143-1.322-9.104-1.322-3.28.817-6.143-.51-9.016-1.135-.813.109-1.328.718-1.833 1.234-.626 1.223-.416 2.66.099 3.784.92 1.744 2.763 2.874 4.606 3.077M158.153 496.93c-.34-1.075-7.108.11-7.48 1.427-.54 1.93 5.758 2.874 7.48-1.426M192.575 410.183c6.361-1.146 13.032-2.237 19.252-3.986 2.346-3.182 6.9-2.216 10.235-3.28 2.786 1.053-7.108 8.874-8.293 10.444-1.26 1.678-3.444 6.663-3.785 8.709-.745 4.438 1.887 9.797 5.945 11.783 3.609 1.765 6.801.784 10.245-.517 2.896-1.113 11.848-3.505 12.691-6.664-.822-2.32-15.861.395-18.856-1.64-1.415-.965.714-3.219 1.142-4.3 1.974-4.996 18.231-16.558 19.35-21.093 2.392-9.66-13.964-11.616-20.074-12.907-1.26-.269-8.917-1.732-7.778-3.79.133-.23 2.995-2.842 3.686-3.785l-.723-.817c-2.348-.182-19.361 3.889-22.213 4.909-.735.269-1.141.977-1.437 1.64 1.722 2.736-.911 5.304-.307 8.083.406 1.937 7.667 1.442 4.191 5.036l-5.529.706c-2.457-1.08.724-3.571-2.15-4.2-2.28.855-5.89 1.574-7.064 3.997-1.03 2.112-1.019 5.72.307 7.684 2.412 3.594 7.063 4.728 11.165 3.988M144.331 500.617c-5.221 1.448-3.686 7.459-4.815 11.672.208.307.614.921 1.03.81 1.942-.81 5.123-.196 6.55-2.04.614-2.15 1.436-3.685 1.634-6.142-.505-1.845-2.457-4.102-4.399-4.3M547.276 472.962c4.65-3.224 7.34-8.244 11.036-12.378 1.36-1.514 3.256-2.593 4.54-4.01.822-.922 6.066-12.165 6.965-14.13l1.12-.609c9.532.527 19.11.642 28.651.888 4.136.11 9.5.954 13.547.438.603-.077.757-.575.614-1.124-9.038-3.055-25.537 1.81-31.746-6.56-.844-1.134-.713-3.076-2.26-3.47-1.634.8-3.356 1.562-5.22 1.124l-.823-1.125c1.438-5.95 2.984-12.209 6.856-17.106 6.153-7.762 21.093-24.095 29.608-28.373 3.817-1.92 8.523-8.639 10.036-6.247-.066.822.384 1.564.921 2.155 3.731.757 3.609-6.313 8.612-9.324 5.036-3.038 11.617-4.634 17.41-3.379 7.096 1.553 14.436 5.326 20.884 8.606 14.207 7.19 28.423 14.364 42.695 21.467 6.736 3.357 13.491 7.065 20.391 10.076 1.635.707 3.97.953 4.715 2.874.989 2.54-1.183 6.279-3.268 7.672-4.399 2.919-11.166-.685-15.368-2.358l-.713.41c3.093 3.902 6.615 4.006 11.046 4.91 3.531.73 7.065 2.605 10.576 3.609 4.783 1.361 9.476 2.852 14.216 4.382 1.986.637 5.244 1.096 4.718 3.998.68 1.607 2.48 1.367 3.884 1.629 15.523 2.82 31.055 6.747 46.51 10.048 9.631 2.046 19.23 4.371 28.784 6.857 31.845 8.266 63.723 16.185 95.172 25.91 3.093.97 19.482 5.742 20.865 7.07-1.986.461-51.655-13.075-59.016-14.875-46.334-11.265-93.34-19.602-140.289-27.72-44.526-7.717-89.666-13.717-134.488-19.466-7.778-1.004-15.641-2.138-23.463-2.868-5.002-.472-5.846 1.233-9.313 4.503.011 2.215 9.291 1.618 11.374 1.843.33-.257.31-.697.1-1.02-1.47-.796-3.018-1.427-4.103-2.765l.516-1.136c16.323 1.404 32.766 4.416 48.957 6.911 24.792 3.795 49.67 7.491 74.352 11.93 16.563 2.989 32.93 7.201 49.474 10.355v.707c-29.903-3.164-59.41-10.354-89.205-14.536l-.099.818c7.207 2.227 14.688 3.385 22.016 5.123 33.764 8.012 67.835 14.775 101.61 22.828-5.978-.834-11.957-1.584-17.935-2.348-2.261 1.383.57 3.807-.615 6.648-2.017 4.91-5.945.297-6.34 2.777-.164.965 1.12 4.113 2.15 4.706 13.613 1.608 26.954 5.473 40.554 7.179l.198 1.124-8.501.203-.922.719c-.043 2.111 3.072 1.383 4.421 1.64 4.784.9 9.554 2.067 14.326 2.962 10.62 2.02 9.171 10.093 16.598 11.98.757.197 1.304.679 1.843 1.228.154 2.982-3.938-1.382-5.123 1.447.767 3.028 2.501 5.903 1.227 9.105-.46 1.142-1.161 2.392-2.457 2.763-6.395 1.8-8.896-9.61-12.91-11.868-3.28-1.843-7.262 2.26-11.463-.11-2.392-1.337-4.815-2.677-7.173-4.102-2.535-1.512-5.75-7.392-9.423-6.646-2.886.592-3.884 4.934-8.599 5.33-7.582.615-15.588.878-23.146-.196-12.363-1.777-33.205-7.827-42.41-16.41 1.196-3.456 11.617-.356 14.14 0-2.357-4.953.822-7.162-1.754-8.386l-10.641-1.025c-3.15-.29-6.363-1.212-9.566-1.546-3.214-.34-6.637-.148-9.795-.61-1.952-.29-5.145-.877-6.144-2.776.286-1.535 1.394-3.56.31-5.006-1.35-1.832-5.002-2.216-7.065-2.978-2.775-1.009-5.036-3.066-7.887-3.872-3.236.977-.407 6.007-4.201 7.054-3.512.966-12.067-3.565-14.338-.723.012 1.53 1.053 3.855-.416 5.024-2.281 1.843-5.145 2.188-7.46 4.607-2.972 3.077-7.153 8.852-5.845 13.42 1.35 4.75 12.45 10.028 16.586 7.373 2.743-1.744 2.5-5.677 6.35-4.499 4.53 1.383 9.203 1.696 13.725 2.966 3.74 1.05 9.004 1.838 12.407 3.473.505.252 1.403 1.108.81 1.744-1.767 1.908-18.635-.133-21.917-.505-1.526-.175-2.897-.264-3.993 1.01-2.053 2.39 2.6 3.07 1.229 5.242-1.887 2.962-6.845 4.037-10.036 3.27-5.837-1.427-12-3.906-17.498-6.32-1.755-.79-3.664-2.017-5.451-2.588-4.322-1.427-9.094.921-12.077-3.993-2.689-4.433-6.297-9.396-6.351-14.744-.044-4.36 2.72-7.103 4.3-10.866.56-1.371 3.324-8.298 3.28-9.324-.042-.668-2.927-7.387-3.575-7.47l-18.957-2.359c-.372-.043-1.468.769-1.535 1.125-.801 3.833 5.001 8.337 7.064 10.952.779.987 2.37 3.62 1.942 4.92-.703 2.166-3.796-1.125-4.19 1.337-.296 1.739 3.685 4.471 3.269 7.684-.341 2.66-.529 6.581-3.27 7.882-4.574 2.155-4.992-1.574-7.075-1.64-.822-.022-2.106.483-3.06.494-2.841.033-5.506-.873-8.205-1.613-5.376-1.488-21.666-9.128-26.01-8.519-5.1.707-7.94 9.494-23.562 9.955l-.822-1.238c5.32-5.135 9.236-1.728 14.753-12.906 1.47-2.99 4.005-6.358 6.34-8.704.12-.472-.087-1.021-.603-1.125-9.444 3.35-10.881 18.144-24.989 16.998l-.725-.823c.621-1.58 3.418-2.111 4.81-3.065m124.032-73.43c-1.085-1.343-2.546-2.266-3.993-3.176-1.91.203-3.027.653-4.924 0-4.267-1.438-21.27-5.935-24.989-5.21-.232 1.163 1.58 1.311 2.358 1.524 10.158 2.82 20.788 5.272 31.132 7.268zm-67.812 10.75c19.569 2.88 60.134 8.606 60.134 8.606l-2.755-1.268-58.576-9.526c-.603-.111-1.227.087-1.744.406-.405 1.436 2.138 1.683 2.94 1.782m144.72 79.216 19.966 5.111c.406 0 1.141-.136 1.449-.653-.101-.822-.989-1.98-1.811-2.292-5.111-1.427-10.125-1.843-15.148-2.864-3.072-.63-4.344-.575-6.703-.772zm-107.435 3.336c.517-.1 1.141-.407 1.238-1.031-1.13-4.295-3.487-10.235-.208-14.535l4.707-10.148c-.405-1.437-1.94-1.64-3.17-2.04-.922-.115-1.834.806-2.052 1.74l-5.529 12.994c-1.228 5.133 1.746 9.74 5.014 13.02m-52.148-21.906c1.578.215 3.783.745 5.057-.208.735-1.475-.428-2.946-1.064-4.317-1.47-1.783-3.686-2.326-5.891-2.326-.527.428-.648.955-.648 1.487.22 2.111.648 4.322 2.546 5.364"/><path fill="#e31b4d" d="M677.759 486.071c-1.843.213-2.041-2.046-3.686-2.457-3.07 2.254-2.862 6.143-5.933 8.298-1.645.307-3.894-.718-5.75-1.135-1.218-.604-2.445-1.837-2.445-3.165.603-2.462 2.04-4.618 2.567-7.179 1.316-3.988 6.141-1.322 9.104-1.322 3.28.817 6.143-.51 9.016-1.135.813.109 1.328.718 1.833 1.234.626 1.223.416 2.66-.099 3.784-.921 1.744-2.764 2.874-4.607 3.077M841.841 496.93c.34-1.075 7.108.11 7.483 1.427.537 1.93-5.76 2.874-7.483-1.426M807.42 410.183c-6.364-1.146-13.034-2.237-19.253-3.986-2.346-3.182-6.9-2.216-10.235-3.28-2.786 1.053 7.107 8.874 8.292 10.444 1.262 1.678 3.446 6.663 3.785 8.709.745 4.438-1.887 9.797-5.945 11.783-3.609 1.765-6.803.784-10.246-.517-2.895-1.113-11.848-3.505-12.69-6.664.822-2.32 15.86.395 18.855-1.64 1.417-.965-.713-3.219-1.141-4.3-1.974-4.996-18.231-16.558-19.35-21.093-2.391-9.66 13.964-11.616 20.075-12.907 1.26-.269 8.918-1.732 7.778-3.79-.133-.23-2.994-2.842-3.686-3.785l.725-.817c2.347-.182 19.361 3.889 22.213 4.909.735.269 1.141.977 1.437 1.64-1.722 2.736.91 5.304.307 8.083-.406 1.937-7.667 1.442-4.191 5.036l5.529.706c2.458-1.08-.724-3.571 2.15-4.2 2.28.855 5.891 1.574 7.064 3.997 1.03 2.112 1.02 5.72-.307 7.684-2.414 3.594-7.065 4.728-11.167 3.988M855.663 500.617c5.22 1.448 3.684 7.459 4.816 11.672-.209.307-.615.921-1.031.81-1.942-.81-5.124-.196-6.55-2.04-.612-2.15-1.436-3.685-1.634-6.142.505-1.845 2.457-4.102 4.4-4.3"/><path fill="#001a4b" d="m569.611 585.674 5.44-3.4 18.285 57.503 4.41 7.041 20.37-12.79-12.79-20.403-7.326 4.586 8.205 13.075-5.454 3.422-18.285-57.524-4.387-7.02-20.393 12.769 12.79 20.403 7.34-4.587ZM448.363 585.149l-24.583 71.257 22.73 7.855 7.865-22.774-8.172-2.808-5.036 14.59-6.395-2.218 21.775-63.094ZM669.367 562.463l-25.889-16.323-6.385 10.112 7.317 4.63 1.777-2.83 20.909 13.184-3.61 5.725-49.132-30.978 3.608-5.725 9.885 6.23 4.605-7.304-7.534-4.762a12 12 0 0 0-6.397-1.843c-4.19 0-8.006 2.083-10.213 5.595-3.532 5.616-1.843 13.053 3.763 16.586L656.53 582.8a12 12 0 0 0 6.396 1.843c4.19 0 7.996-2.085 10.224-5.595 3.523-5.592 1.834-13.051-3.783-16.584M641.548 615.884l.34.331 6.132-6.078-52.774-53.203-.317-.351-6.155 6.1ZM473.209 601.602l-6.966 58.622c-.525 4.476 2.678 8.557 7.164 9.084l15.764 1.886 1.032-8.6-15.314-1.821 2.919-24.55 11.486 1.36 1.018-8.576-11.483-1.382 2.907-24.529 15.314 1.8 1.009-8.577-15.764-1.889a8.18 8.18 0 0 0-9.086 7.172M552.87 594.187c-1.076-3.466-4.201-5.79-7.81-5.79-.822 0-1.613.108-2.402.35l-15.205 4.651 21.896 71.653.13.44 8.272-2.524L548 631.046l6.932-2.107a8.14 8.14 0 0 0 4.827-3.97 8.12 8.12 0 0 0 .593-6.255zm-7.392 28.587-7.219-23.629 6.472-1.974 7.23 23.628zM507.638 595.512l8.61-.748 6.53 75.116-8.61.749ZM397.695 546.403l-9.104-13.01-61.758 43.242 4.946 7.089 27.347-19.153 3.872 5.55-22.42 15.687c-1.712 1.207-2.963 3.226-3.72 4.717l-.13.263 5.154 7.372.362-.725c.835-1.732 1.635-3.379 3.292-4.54l20.338-14.219c2.939-2.06 4.213-4.08 4.003-6.384a5.9 5.9 0 0 0 2.392.525c1.327 0 2.665-.482 4.113-1.512l19.308-13.515a8.08 8.08 0 0 0 3.367-5.266 8.12 8.12 0 0 0-1.362-6.12m-7.175 4.826-20.512 14.37-4.235-6.078.252-.175L386.527 545l4.245 6.054zM421.335 573.542a8.01 8.01 0 0 0-2.82-5.572l-12.033-10.377-49.22 57.128 12.032 10.356a8.2 8.2 0 0 0 5.331 1.996c2.38 0 4.641-1.054 6.209-2.852l14.765-17.157c2.358-2.72 3.093-4.958 2.315-7.152a9 9 0 0 0 1.018.066c1.887 0 3.5-.835 5.046-2.632l15.391-17.86a8.1 8.1 0 0 0 1.966-5.944m-30.375 26.152-16.345 18.955-5.606-4.826 16.565-19.198 5.606 4.827zm5.42-6.76-5.123-4.408 16.125-18.737 5.134 4.411z"/></svg>