<svg height="1000" viewBox="0 0 1000 1000" width="1000" xmlns="http://www.w3.org/2000/svg"><g transform="matrix(4.3736396 0 0 4.3736396 -663.62685 360.80537)"><path d="M 266.501 -76.5 L 195.785 31.5 L 266.501 139.5 L 337.215 31.5 L 266.495 -76.5" fill="#00ad94"/><path d="M 266.501 -76.5 L 195.785 31.5 L 266.501 139.5 L 337.215 31.5 L 266.495 -76.5" fill="none" stroke="#fff" stroke-width="1.02"/><path d="M 266.501 -69.327 L 200.503 31.5 L 266.501 132.327 L 332.498 31.5 L 266.495 -69.327" fill="#fff"/><path d="M 329.33 31.5 L 266.501 -64.543 L 203.672 31.5 L 266.501 127.543 Z" fill="#00ad94"/><path d="m 295.484 -11.978 c -3.732 -6.751 -10.953 -16.039 -19.368 -18.684 c -5.225 -1.649 -13.352 -1.93 -17.922 1.027 c -4.856 3.146 -8.06 8.496 -7.991 13.295 c .08 5.769 3.859 10.19 10.035 10.631 c 5.051 .362 8.369 -2.916 8.369 -2.916 c 3.065 -.218 9.679 2.556 14.811 10.534 c 3.603 5.572 7.899 16.107 7.899 31.733 c 0 15.854 -7.406 34.304 -7.406 34.304 L 266.38 26.479 L 247.977 67.843 c -7.705 -16.596 -7.796 -37.704 -7.796 -42.405 c 0 -5.286 1.252 -15.43 1.252 -15.43 c 10.126 0 12.388 -6.934 12.364 -10.723 c -.058 -8.128 -7.268 -9.827 -9.644 -9.953 c -6.533 -.345 -10.735 4.116 -12.962 8.587 c -3.272 6.568 -3.892 13.587 -3.892 18.835 c 0 4.993 2.043 21.491 5.855 35.567 c 3.823 14.064 18.208 44.833 18.208 44.833 l 15.017 -31.016 l 15.155 30.98 c 0 0 3.662 -6.423 9.874 -22.141 c 6.36 -16.073 11.355 -37.205 11.331 -51.088 c -.045 -16.699 -3.73 -29.489 -7.255 -35.867" fill="#fff"/></g></svg>