<svg height="1000" viewBox="0 0 1000 1000" width="1000" xmlns="http://www.w3.org/2000/svg"><g transform="matrix(1.641925 0 0 1.6419254 11.526329 11.774291)"><path d="M 562.595 8.055 H 28.017 l -.203 5.01 c -.037 .917 -3.351 92.943 27.755 208.641 c 18.278 67.98 44.686 130.786 78.492 186.674 c 42.303 69.93 96.361 129.153 160.675 176.022 l 3.077 2.242 l 3.076 -2.242 C 365.202 537.533 419.262 478.31 461.563 408.38 C 495.371 352.492 521.78 289.686 540.057 221.706 C 571.163 106.008 567.851 13.981 567.813 13.066 L 567.61 8.055 Z" fill="#ee3124"/><path d="m 562.595 13.277 c 0 0 14.708 363.228 -264.783 566.904 C 18.321 376.504 33.031 13.277 33.031 13.277 Z" fill="#fff" stroke="#ee3124"/><path d="m 424.522 329.939 h .006 C 402.421 391.781 379.245 456.657 299.764 517.01 C 220.28 456.657 197.106 391.781 174.999 329.939 h .005 c 84.46637 3.71731 167.46359 -.85314 249.518 0 z" fill="#fff200" stroke="#000" stroke-linejoin="round" stroke-miterlimit="1" stroke-width="3.3947"/><path d="m 280.087 440.948 c 2.063 -.277 4.17 -.536 6.313 -.775 c -6.31 -12.178 2.138 -22.49 13.412 -22.715 c -8.573 8.175 -8.33 17.086 -2.11 21.622 c 4.076 -.331 4.994 -.445 9.176 -.657 c -7.313 -10.967 .75 -20.513 11.867 -21.772 c -5.373 5.358 -8.129 15.282 -1.531 21.394 c 3.772 -.092 5.696 -.125 9.436 -.111 c -4.311 -11.332 4.252 -18.372 13.577 -18.71 c -5.111 4.554 -9.016 13.698 -3.002 19.698 c 2.91 .596 5.953 .543 10.847 1.989 c 3.204 1.624 5.801 4.149 6.557 6.178 c -39.516 -4.793 -45.378 -3.573 -74.647 1.266 c -11.822 6.188 -17.37 7.837 -23.277 2.315 c -1.013 -1.46 -.151 -5.284 3.913 -6.146 c -.045 -2.678 1.908 -4.17 4.065 -4.828 c 5.611 -1.704 8.489 3.031 15.404 1.252 z M 262.005 406.85 c 2.205 -.318 4.46 -.616 6.75 -.894 c -7.456 -12.214 .869 -24.055 12.927 -24.313 c -8.462 9.394 -7.491 17.853 -.839 23.06 c 4.361 -.378 8.803 -.69 13.279 -.929 c -8.887 -10.47 1.507 -22.497 13.398 -23.948 c -5.746 6.153 -9.404 16.496 -2.349 23.51 c 4.04 -.106 8.073 -.146 12.069 -.126 c -6.027 -11.596 4.552 -21.11 14.524 -21.494 c -5.468 5.237 -9.478 14.851 -3.042 21.739 c 4.263 .159 8.447 .404 12.498 .73 c -3.765 -8.182 1.539 -14.964 11.776 -16.94 c -4.404 4.878 -6.936 11.748 -2.488 17.869 c 5.617 .683 12.293 3.215 17.053 4.29 c 4.72 2.717 6.126 3.56 9.896 6.277 c -43.962 -6.755 -91.792 -5.218 -115.569 -.323 c -12.644 7.101 -18.577 9.004 -24.896 2.652 c -1.083 -1.67 -.163 -6.061 4.186 -7.055 c -.088 -5.471 4.608 -5.741 9.206 -5.741 c 3.744 3.467 7.432 2.79 11.621 1.636 z m -14.986 -32.241 c 2.739 -.347 7.306 -1.739 10.147 -2.05 c -8.37 -15.442 2.839 -31.161 18.15 -29.67 c -11.378 10.371 -12.117 21.474 -3.864 27.224 c 5.409 -.417 9.147 -1.114 14.699 -1.379 c -8.192 -13.148 2.205 -30.187 16.1 -28.484 c -7.839 7.147 -10.79 20.607 -2.036 28.358 c 5.01 -.121 10.011 -.166 14.971 -.139 c -5.718 -14.375 4.94 -29.147 20.143 -24.613 c -7.844 2.236 -13.884 17.272 -5.901 24.878 c 5.294 .179 10.482 .451 15.507 .808 c -3.355 -10.994 2.97 -22.715 17.089 -18.153 c -6.527 4.316 -11.081 12.418 -5.571 19.18 c 6.975 .752 15.255 2.321 21.156 3.502 c 5.868 2.709 11.039 7.068 13.339 8.36 c -54.534 -7.459 -106.915 -6.663 -143.006 .695 c -15.688 7.844 -24.111 9.588 -31.949 2.58 c -1.344 -1.843 -.201 -6.697 5.192 -7.785 c -.108 -6.046 5.72 -6.345 11.423 -6.345 c 4.638 3.827 9.215 4.311 14.411 3.033 z"/><g fill="#ee3124"><path d="m 187.42 286.826 l 1.987 -3.512 h 7.432 v 33.962 h -3.818 v -30.45 z" fill="#ee3124"/><path d="m 247.403 286.267 c 3.259 0 5.909 2.645 5.909 5.903 c 0 3.26 -2.65 5.908 -5.909 5.908 c -3.258 0 -5.906 -2.648 -5.906 -5.908 c 0 -3.258 2.648 -5.903 5.906 -5.903 z m -5.346 13.339 c -3.31 1.731 -5.042 4.532 -5.042 8.199 c 0 5.754 4.379 10.031 10.287 10.031 c 5.956 0 10.286 -4.226 10.286 -10.031 c 0 -3.667 -1.834 -6.671 -4.939 -8.199 c 2.597 -1.475 4.277 -4.429 4.277 -7.484 c 0 -5.296 -4.125 -9.32 -9.471 -9.32 c -5.501 0 -9.575 4.023 -9.575 9.367 c 0 3.108 1.528 5.86 4.177 7.437 z m 5.245 1.731 c 3.615 0 6.568 2.904 6.568 6.468 c 0 3.617 -2.953 6.517 -6.568 6.517 c -3.617 0 -6.568 -2.9 -6.568 -6.517 c 0 -3.564 2.951 -6.468 6.568 -6.468 z" fill="#ee3124"/><path d="m 344.761 286.267 c 4.43 0 7.995 3.563 7.995 7.942 c 0 4.429 -3.564 7.993 -7.995 7.993 c -4.427 0 -7.995 -3.564 -7.995 -7.993 c 0 -4.379 3.567 -7.942 7.995 -7.942 z m -2.698 31.825 l 11.609 -16.043 c 1.831 -2.545 2.797 -5.245 2.797 -7.688 c 0 -6.365 -5.243 -11.56 -11.709 -11.56 c -6.467 0 -11.711 5.194 -11.711 11.56 c 0 6.263 4.837 11.202 10.996 11.202 c 1.021 0 1.732 -.102 3.008 -.457 l -7.79 10.896 z" fill="#ee3124"/><path d="m 400.11 297.823 c 2.036 -.05 2.951 -.253 4.021 -.866 c 1.627 -.915 2.701 -2.801 2.701 -4.939 c 0 -3.259 -2.446 -5.752 -5.704 -5.752 c -2.139 0 -3.819 .762 -4.788 2.186 c -.507 .767 -.766 1.479 -1.07 3.26 h -3.718 c .359 -2.442 .713 -3.613 1.582 -4.989 c 1.526 -2.496 4.376 -3.921 7.84 -3.921 c 5.551 0 9.572 3.873 9.572 9.116 c 0 3.31 -1.525 5.957 -4.327 7.536 c 3.107 1.476 4.836 4.428 4.836 8.301 c 0 5.752 -4.53 10.081 -10.541 10.081 c -3.818 0 -7.28 -1.882 -8.912 -4.94 c -.709 -1.272 -.963 -2.342 -1.119 -4.428 h 3.666 c .259 1.68 .511 2.444 1.173 3.309 c 1.122 1.527 3.309 2.546 5.345 2.546 c 3.719 0 6.673 -2.955 6.673 -6.773 c 0 -2.596 -1.273 -4.786 -3.361 -5.703 c -1.072 -.509 -1.934 -.662 -3.869 -.712 z" fill="#ee3124"/></g><path d="m 514.079 168.298 c -5.941 -25.036 -19.52 -33.099 -38.613 -33.947 l -.78 -1.815 c 19.247 -11.701 20.103 -8.332 39.817 -16.857 l -1.414 -3.393 c -24.613 -.284 -29.418 -27.158 -29.418 -27.158 c 0 0 -6.789 -18.386 -8.772 -23.762 c -1.464 -3.983 -7.341 -6.105 -11.219 -4.851 c -7.08 2.288 -12.93 4.37 -17.82 6.251 c -.327 .111 -.613 .175 -.946 .297 c -3.027 1.097 -6.011 2.389 -8.923 3.794 c -7.908 3.567 -11.354 5.982 -12.675 7.093 c -15.551 9.832 -26.777 20.937 -26.777 20.937 l -2.878 3.518 C 376.817 82.342 376.97 68.972 381.204 59.712 C 394.54 45.438 408.292 59.19 416.906 63.063 l 3.453 -12.534 c -15.47 -6.453 -31.619 -6.749 -44.519 -1.368 c -12.199 4.568 -27.34 15.091 -33.047 39.362 c -4.561 19.379 2.397 36.021 11.463 48.508 c -1.641 12.767 -10.303 11.963 -10.303 11.963 c 0 0 -14.739 -.498 -18.702 -2.478 c -3.961 -1.981 -19.52 -5.094 -26.591 -21.783 c -7.071 -16.69 10.186 -24.612 27.159 .849 c 0 0 6.955 -20.994 10.184 -30.269 c 2.259 -6.505 -37.344 -18.385 -37.344 -18.385 c 0 0 -2.827 27.722 -26.025 35.923 c 0 0 11.6 16.974 11.6 35.364 c 0 0 -13.321 7.537 -22.221 -7.797 c -1.119 -2.249 -2.34 -4.542 -3.805 -6.914 c -19.668 -31.844 18.671 -45.827 18.671 -45.827 l -.849 -3.395 c 0 0 -19.52 1.696 -33.099 -13.579 c 0 0 -12.446 -11.315 -14.992 -14.711 c -2.547 -3.396 -7.072 -5.375 -10.468 -3.112 c 0 0 -47.994 37.967 -60.78 47.766 c -19.897 -16.511 -20.051 -30.874 -16.074 -40.541 c 12.93 -12.115 26.086 .909 34.421 4.657 l 3.454 -12.534 c -9.493 -3.959 -19.236 -5.549 -28.348 -5.003 c 0 0 -37.906 -1.981 -48.09 41.299 c -10.184 43.283 37.057 72.985 37.057 72.985 c 0 0 25.103 13.042 14.712 28.855 c -6.506 9.899 -20.368 7.638 -20.368 7.638 c 0 0 -30.058 -4.379 -37.697 24.321 c -5.57 16.812 5.174 38.767 27.507 39.207 c -3.257 -10.434 -3.411 -16.918 -1.559 -20.619 c -7.808 0 -18.854 2.803 -18.835 -8.447 c .01 -5.119 3.904 -7.134 8.685 -7.595 c -.008 -.02 -.019 -.042 -.026 -.062 c 8.878 -.338 20.467 2.083 32.959 12.231 c 27.156 22.066 56.859 20.368 56.859 20.368 c 0 0 0 -26.307 31.4 -40.734 c 31.4 -14.427 33.947 -33.947 33.947 -33.947 c 0 0 4.581 -10.102 1.119 -26.116 c 3.357 1.743 6.235 1.503 6.235 1.503 h 10.468 l .847 124.472 h 3.678 c 0 0 9.901 -25.745 21.783 -31.401 c 11.88 -5.657 12.163 -26.025 12.163 -26.025 v -67.609 l 21.217 -.566 c 0 0 10.124 1.409 14.793 -13.971 c 10.13 11.743 20.851 18.497 20.851 18.497 c 0 0 19.446 11.769 9.052 27.582 c -6.506 9.901 -22.064 7.639 -22.064 7.639 c 0 0 -23.066 -2.6 -31.675 21.199 c -1.598 3.444 -2.428 7.933 -2.553 11.729 c -.497 14.764 10.376 29.969 28.917 30.335 c -3.255 -10.435 -3.412 -16.919 -1.559 -20.618 c -7.806 0 -18.853 2.801 -18.833 -8.447 c .008 -5.11 3.775 -7.639 8.543 -8.108 c 6.205 .421 13.965 3.492 23.1 12.098 c 29.278 27.581 61.104 24.612 61.104 24.612 c 0 0 -2.548 -20.793 28.853 -34.372 c 0 0 25.036 -6.789 31.824 -9.335 c 6.663 -2.498 25.462 -22.49 19.521 -47.525 z M 220.02 162.357 c 16.125 22.914 16.973 32.248 5.091 46.676 c -11.88 14.427 -59.69 1.698 -67.891 -8.204 l -.285 -.567 c 0 0 22.915 -7.922 27.159 -14.427 c 0 0 41.037 -35.929 -21.464 -80.596 C 173.98 91.678 179 90.222 179 90.222 c 0 0 14.393 -5.912 29.986 13.579 c 6.79 8.486 28.854 11.032 28.854 11.032 c 0 0 -33.946 24.611 -17.82 47.524 z M 417.756 91.494 c 14.427 -1.272 17.397 1.698 19.518 4.245 c 2.122 2.545 8.91 8.062 12.308 18.245 c 3.393 10.185 -.425 18.247 -6.366 21.216 c -4.899 2.452 -10.65 4.839 -15.379 3.478 c -3.978 -10.601 -12.193 -22.348 -27.478 -34.454 c -.414 -.328 -.772 -.646 -1.171 -.972 c 2.05 -3.47 7.613 -10.791 18.568 -11.758 z m 37.342 123.903 c -11.882 14.427 -58.135 -8.627 -66.339 -18.526 l -.282 -.568 c 0 0 19.52 -1.272 33.099 -12.307 c 0 0 11.698 -13.925 9.052 -34.258 c 11.485 -12.395 23.621 2.01 23.621 2.01 c 16.125 22.915 12.729 49.223 .849 63.649 z" fill="#ee3124"/></g></svg>