<svg height="1000" viewBox="0 0 1000 1000" width="1000" xmlns="http://www.w3.org/2000/svg"><g transform="matrix(1.6005607 0 0 1.6005607 15.565495 17.928723)"><path d="m 517.035 292.295 c 0 118.391 -95.973 214.366 -214.363 214.366 c -118.388 0 -214.361 -95.976 -214.361 -214.366 c 0 -118.388 95.973 -214.36 214.361 -214.36 c 118.391 0 214.363 95.972 214.363 214.36 z" fill="#fff"/><path d="m 455.362 105.026 l -6.34 9.242 l 1.061 .897 c 51.881 43.793 81.636 107.694 81.636 175.314 c 0 126.484 -102.903 229.386 -229.389 229.386 c -126.482 0 -229.383 -102.901 -229.383 -229.386 c 0 -67.587 29.73 -131.463 81.567 -175.254 l 1.06 -.897 l -7.298 -10.636 l -1.295 1.088 c -55.211 46.265 -86.877 113.951 -86.877 185.7 c 0 133.566 108.663 242.228 242.227 242.228 c 133.566 0 242.231 -108.662 242.231 -242.228 c 0 -71.787 -31.69 -139.494 -86.951 -185.759 l -1.293 -1.085 z" fill="#fff"/><path d="m 456.908 108.196 c 53.756 45.649 84.586 111.973 84.586 182.284 c 0 131.877 -107.287 239.161 -239.164 239.161 c -131.871 0 -239.157 -107.284 -239.157 -239.161 c 0 -70.272 30.799 -136.574 84.511 -182.226 c 1.109 1.616 2.906 4.238 3.811 5.553 c -51.871 44.348 -81.616 108.648 -81.616 176.673 c 0 128.177 104.278 232.456 232.451 232.456 c 128.181 0 232.456 -104.279 232.456 -232.456 c 0 -68.063 -29.771 -132.38 -81.684 -176.731 c .902 -1.32 2.699 -3.94 3.806 -5.553 z" fill="#fff"/><path d="m 129.909 71.854 c 0 0 63.872 -64.366 172.424 -64.366 c 0 0 108.657 .612 172.353 64.309 l -42.486 70.9 l -248.081 2.281 z" fill="#fff"/><path d="m 456.629 105.897 l -5.557 8.096 c 50.218 42.39 82.181 105.771 82.181 176.487 c 0 127.332 -103.591 230.919 -230.923 230.919 c -127.326 0 -230.915 -103.587 -230.915 -230.919 c 0 -70.683 31.927 -134.037 82.107 -176.427 l -5.556 -8.097 c -52.733 44.19 -86.327 110.503 -86.327 184.524 c 0 132.719 107.973 240.697 240.691 240.697 c 132.723 0 240.697 -107.979 240.697 -240.697 c 0 -74.057 -33.626 -140.397 -86.398 -184.583 z" fill="#fff"/><path d="m 455.362 105.026 l -6.34 9.242 l 1.061 .897 c 51.881 43.793 81.636 107.694 81.636 175.314 c 0 126.484 -102.903 229.386 -229.389 229.386 c -126.482 0 -229.383 -102.901 -229.383 -229.386 c 0 -67.587 29.73 -131.463 81.567 -175.254 l 1.06 -.897 l -7.298 -10.636 l -1.295 1.088 c -55.211 46.265 -86.877 113.951 -86.877 185.7 c 0 133.566 108.663 242.228 242.227 242.228 c 133.566 0 242.231 -108.662 242.231 -242.228 c 0 -71.787 -31.69 -139.494 -86.951 -185.759 l -1.293 -1.085 z m 1.546 3.17 c 53.756 45.649 84.586 111.973 84.586 182.284 c 0 131.877 -107.287 239.161 -239.164 239.161 c -131.871 0 -239.157 -107.284 -239.157 -239.161 c 0 -70.272 30.799 -136.574 84.511 -182.226 c 1.109 1.616 2.906 4.238 3.811 5.553 c -51.871 44.348 -81.616 108.648 -81.616 176.673 c 0 128.177 104.278 232.456 232.451 232.456 c 128.181 0 232.456 -104.279 232.456 -232.456 c 0 -68.063 -29.771 -132.38 -81.684 -176.731 c .902 -1.32 2.699 -3.94 3.806 -5.553 z" fill="#f7941d"/><path d="m 225.713 593.243 c -.03 .029 -.105 .115 -.105 .115 c 0 0 .091 -.121 .165 -.217 l .019 .006 c -.029 .031 -.055 .06 -.079 .096 z" fill="#f7941d"/><path d="m 58.994 324.516 c 0 0 0 0 .003 .006 z m 27.022 82.352 z" fill="#f7941d"/><path d="m 225.713 593.005 c -.03 .027 -.105 .115 -.105 .115 c 0 0 .091 -.121 .165 -.219 l .019 .006 c -.029 .038 -.055 .066 -.079 .098 z m 149.039 0 c -.025 -.032 -.049 -.06 -.079 -.098 l .018 -.006 c .071 .098 .158 .219 .158 .219 c 0 0 -.069 -.088 -.097 -.115 z" fill="#f7941d"/><path d="m 225.713 593.243 c -.03 .029 -.105 .115 -.105 .115 c 0 0 .091 -.121 .165 -.217 l .019 .006 c -.029 .031 -.055 .06 -.079 .096 z" fill="#f7941d"/><path d="m 166.298 127.59 c 0 0 2.921 4.255 4.02 5.857 c -.443 .377 -.541 .457 -1.026 .87 c -1.232 -1.789 -4.816 -7.014 -4.816 -7.014 l -1.296 1.113 C 116 168.994 88.943 227.918 88.943 290.08 c 0 117.523 95.616 213.142 213.144 213.142 c 117.529 0 213.144 -95.618 213.144 -213.142 c 0 -62.042 -26.966 -120.893 -73.993 -161.458 l -1.299 -1.119 c 0 0 -3.43 4.998 -4.636 6.756 c -.483 -.416 -.586 -.498 -1.024 -.872 c 1.08 -1.578 3.837 -5.594 3.837 -5.594 l -2.53 -1.736 l -5.406 7.88 l 5.718 4.842 l .98 -1.386 c 0 0 2.4 -3.503 3.631 -5.292 c 45.538 39.943 71.655 97.402 71.655 157.979 c 0 115.835 -94.237 210.073 -210.075 210.073 c -115.838 0 -210.077 -94.238 -210.076 -210.073 c 0 -60.697 26.204 -118.226 71.9 -158.181 c 1.25 1.821 4.772 6.957 4.772 6.957 l 5.724 -4.851 l -.772 -1.149 l -4.804 -7 z" fill="#f7941d"/><path d="m 484.926 70.08 l -46.787 68.18 l -1.946 2.778 l -8.061 -6.825 c 0 0 39.308 -57.279 42.363 -61.736 C 421.886 34.864 363.82 14.964 302.333 14.964 c -61.516 0 -119.609 19.921 -168.239 57.568 c 3.06 4.457 40.804 59.456 40.804 59.456 l 1.545 2.302 l -8.061 6.836 l -48.356 -70.541 l 2.96 -2.789 C 173.634 26.926 237.328 4.418 302.333 4.418 c 64.823 0 128.38 22.397 178.96 63.069" fill="#f7941d"/><path d="m 480.888 70.889 l -45.277 65.634 c -1.113 -.967 -2.248 -1.916 -3.383 -2.862 L 474.687 71.797 C 427.232 34.317 367.356 11.896 302.334 11.896 c -65.061 0 -124.956 22.443 -172.424 59.958 l 42.461 61.867 c -1.136 .946 -2.267 1.897 -3.38 2.866 l -45.129 -65.599 l 1.053 -.802 C 173.48 30.992 235.209 7.488 302.333 7.488 c 66.945 0 128.522 23.384 177.04 62.392" fill="#fff"/><path d="m 582.544 306.257 c -4.009 -.454 -8.138 .371 -12.165 1.87 c 1.318 -1.777 2.429 -3.361 3.117 -4.38 c 4.771 -7.113 12.194 -19.879 12.194 -30.499 c 0 -1.223 -.101 -2.423 -.311 -3.579 l -1.07 -5.811 l -5.849 .853 c -5.593 .817 -9.538 4.191 -14.859 10.135 c -.07 .08 -.148 .189 -.218 .271 c .912 -2.395 3.516 -9.183 3.516 -9.183 l -11.31 2.688 c -3.265 .779 -6.274 2.18 -9.116 3.943 c .402 -1.824 .733 -3.798 1.021 -5.859 c 1.106 .415 2.288 .634 3.491 .391 l .115 -.025 c 6.135 -1.353 13.683 -16.103 17.63 -24.773 c 7.422 -16.275 9.231 -28.103 5.391 -35.152 l -1.797 -3.297 l -3.751 .098 c -2.111 .057 -4.6 .602 -7.181 2.012 c 1.438 -7.546 2.166 -15.585 2.166 -22.389 c 0 -3.221 -.154 -6.158 -.466 -8.632 c -.719 -5.794 -2.614 -13.27 -7.533 -15.999 l -2.78 -1.539 l -2.866 1.386 c -5.878 2.835 -8.46 12.529 -9.395 23.526 c -.863 -1.208 -1.821 -2.283 -2.882 -3.254 c 0 0 -2.216 -2.017 -3.886 -3.543 c 4.25 -7.727 5.608 -18.492 5.608 -27.397 c 0 -2.341 -.087 -4.561 -.252 -6.557 c -1.121 -13.942 -5.021 -21.393 -11.582 -22.148 l -.096 -.012 c -2.108 -.208 -4.197 .449 -5.879 1.849 c -1.413 1.178 -2.524 2.877 -3.393 5.179 c -2.204 -12.682 -8 -39.566 -21.97 -50.254 l -9.862 -7.555 v 12.425 c 0 6.514 .927 26.192 2.605 33.687 c -1.47 -2.311 -2.95 -4.44 -4.682 -6.567 l -8.261 -10.15 l -2.521 12.84 c -1.137 5.797 -1.705 11.336 -1.705 16.647 c 0 10.74 2.329 20.554 7.027 29.703 c 1.001 1.955 2.171 3.831 3.327 5.718 c -.883 -.509 -1.72 -.905 -2.513 -1.168 l -7.424 -2.436 l -.61 7.787 c -.099 1.247 -.147 2.48 -.147 3.692 c 0 17.669 10.023 31.669 20.654 41.07 c 3.703 8.896 6.789 18.1 9.22 27.573 c -.032 .585 -.06 1.197 -.06 1.87 c 0 4.637 .853 11.43 3.463 21.476 c .609 2.348 1.251 4.56 1.951 6.665 c .705 6.916 1.091 13.924 1.091 21.027 c 0 1.591 -.024 3.18 -.06 4.763 l -.823 2.469 c -4.055 12.263 -9.035 27.33 -9.035 43.192 c 0 3.393 .247 6.827 .761 10.273 c -2.338 7.537 -5.107 14.879 -8.258 22.021 c -15.02 6.521 -24.97 29.121 -28.689 46.795 c -4.901 6.016 -10.139 11.752 -15.684 17.183 c -15.515 2.587 -33.583 18.739 -43.668 32.691 c -5.572 3.123 -11.306 5.985 -17.183 8.581 c -18.604 -3.219 -46.934 6.922 -61.889 16.383 c -6.868 .695 -13.833 1.057 -20.882 1.057 c -6.781 0 -13.48 -.342 -20.092 -.982 c -15.052 -9.567 -43.832 -19.854 -62.472 -16.361 c -5.547 -2.444 -10.97 -5.124 -16.249 -8.037 c -10.157 -14.339 -29.023 -31.303 -44.953 -33.471 c -5.147 -5.05 -10.04 -10.359 -14.637 -15.922 c -3.589 -18.148 -13.934 -42.108 -29.743 -48.266 c -2.893 -6.579 -5.451 -13.333 -7.649 -20.246 c .675 -3.926 .987 -7.842 .987 -11.699 c 0 -15.862 -4.985 -30.929 -9.044 -43.192 l -1.521 -4.602 c -.01 -.877 -.033 -1.752 -.033 -2.63 c 0 -6.212 .302 -12.354 .847 -18.43 c 1.084 -2.865 2.004 -5.922 2.873 -9.263 c 2.607 -10.046 3.46 -16.839 3.46 -21.476 c 0 -1.485 -.093 -2.737 -.238 -3.814 c 2.263 -8.458 5.056 -16.704 8.335 -24.7 c 11.023 -9.395 21.72 -23.744 21.72 -41.999 c 0 -1.212 -.047 -2.445 -.146 -3.692 l -.608 -7.787 l -7.425 2.436 c -.791 .263 -1.637 .659 -2.513 1.168 c 1.155 -1.887 2.323 -3.763 3.324 -5.718 c 4.698 -9.149 7.032 -18.962 7.032 -29.703 c 0 -5.311 -.57 -10.85 -1.709 -16.647 l -2.52 -12.84 l -8.262 10.15 c -1.73 2.127 -3.212 4.257 -4.68 6.567 c 1.68 -7.495 2.607 -24.106 2.607 -30.616 V 71.69 l -9.868 7.558 c -13.964 10.686 -19.76 34.501 -21.965 47.184 c -.876 -2.302 -1.979 -4.001 -3.395 -5.179 c -1.684 -1.4 -3.773 -2.057 -5.877 -1.849 l -.099 .012 c -6.56 .754 -10.46 8.206 -11.582 22.148 c -.16 1.996 -.255 4.216 -.255 6.557 c 0 8.905 1.361 19.671 5.611 27.397 c -1.669 1.526 -3.881 3.543 -3.881 3.543 c -1.063 .971 -2.02 2.046 -2.885 3.254 c -.938 -10.997 -3.522 -20.69 -9.399 -23.526 l -2.863 -1.386 l -2.781 1.539 c -4.919 2.729 -6.814 10.205 -7.536 15.999 c -.309 2.475 -.465 5.412 -.465 8.632 c 0 6.803 .728 14.842 2.172 22.389 c -2.588 -1.411 -5.071 -1.956 -7.179 -2.012 l -3.756 -.098 l -1.797 3.297 c -3.84 7.049 -2.029 18.877 5.385 35.152 c 3.951 8.67 11.494 23.42 17.634 24.773 l .117 .025 c 1.202 .244 2.386 .025 3.492 -.391 c .289 2.061 .618 4.036 1.022 5.859 c -2.841 -1.763 -5.851 -3.164 -9.119 -3.943 l -11.308 -2.688 c 0 0 2.602 6.787 3.518 9.183 c -.071 -.082 -.152 -.191 -.224 -.271 c -5.32 -5.944 -9.263 -9.318 -14.854 -10.135 l -5.848 -.853 l -1.073 5.811 c -.214 1.156 -.313 2.356 -.313 3.579 c 0 10.62 7.423 23.387 12.195 30.499 c .689 1.018 1.799 2.603 3.114 4.38 c -4.026 -1.499 -8.153 -2.324 -12.162 -1.87 l -6.354 .727 l .983 6.316 c .678 4.354 2.685 8.318 6.929 13.683 c 6.589 8.334 19.909 19.991 32.956 23.581 c -3.149 -.667 -6.67 -1.408 -6.67 -1.408 l 3.757 10.374 c .716 1.977 1.684 4.143 2.761 6.371 c -.012 -.009 -.212 -.167 -.212 -.167 l -1.866 -1.274 c -6.952 -4.784 -13.679 -8.987 -19.527 -7.793 l -5.849 1.187 l 1.025 5.88 c 2.506 14.383 16.67 28.076 30.02 36.699 c -4.891 -.82 -9.841 -1.143 -14.709 -.699 l -10.085 .916 l 5.479 8.518 c 4.659 7.237 10.732 13.267 18.054 17.928 l .151 .097 l .155 .09 c 8.08 4.509 17.62 6.719 26.585 7.998 c -1.316 -.011 -4.228 -.044 -4.228 -.044 c 0 0 14.916 9.299 17.253 10.763 c -8.159 -2.976 -16.81 -4.413 -26.479 -3.771 l -10.181 .671 l 5.365 8.679 c 8.558 13.846 28.008 23.291 44.184 27.149 c -4.8 1.091 -9.168 2.811 -12.794 5.646 l -7.341 5.747 l 8.178 4.469 c 18.933 10.353 38.954 10.035 54.263 7.139 c -.745 .452 -2.259 1.354 -2.259 1.354 c 0 0 1.958 .749 3.271 1.251 c -9.291 -.06 -17.215 1.559 -23.894 6.351 l -8.445 6.045 l 9.372 4.477 c 4.565 2.183 17.061 7.407 34.46 8.804 c 13.914 1.116 27.662 -.508 40.854 -4.817 c 0 0 -.227 -2.789 -.457 -5.546 c 17.674 4.233 37.108 6.893 54.801 .811 l 21.49 -7.384 c 0 0 -4.234 -.845 -7.75 -1.548 c 5.372 -.292 10.142 -1.284 12.345 -3.619 l 4.405 -4.668 l -4.085 -3.523 l 10.237 -.214 l 16.306 1.393 l -2.718 2.344 l 4.406 4.668 c 2.204 2.335 6.979 3.327 12.347 3.619 c -3.518 .703 -7.749 1.548 -7.749 1.548 l 21.491 7.384 c 17.691 6.083 37.124 3.423 54.799 -.811 c -.227 2.757 -.459 5.546 -.459 5.546 c 13.195 4.31 26.944 5.934 40.85 4.817 c 17.408 -1.397 29.903 -6.621 34.471 -8.804 l 9.372 -4.477 l -8.445 -6.045 c -6.681 -4.791 -14.604 -6.41 -23.896 -6.351 c 1.313 -.502 3.273 -1.251 3.273 -1.251 c 0 0 -1.515 -.902 -2.264 -1.354 c 15.313 2.896 35.336 3.214 54.269 -7.139 l 8.178 -4.469 l -7.342 -5.747 c -3.625 -2.835 -7.994 -4.555 -12.803 -5.646 c 16.183 -3.858 35.635 -13.304 44.188 -27.149 l 5.364 -8.679 l -10.177 -.671 c -9.671 -.642 -18.32 .796 -26.482 3.771 c 2.344 -1.464 17.253 -10.763 17.253 -10.763 c 0 0 -2.906 .033 -4.225 .044 c 8.966 -1.279 18.506 -3.489 26.583 -7.998 l .159 -.09 l .146 -.097 c 7.324 -4.661 13.394 -10.69 18.06 -17.928 l 5.478 -8.518 l -10.089 -.916 c -4.871 -.443 -9.817 -.121 -14.706 .699 c 13.346 -8.623 27.507 -22.316 30.019 -36.699 l 1.027 -5.88 l -5.852 -1.187 c -5.849 -1.194 -12.573 3.009 -19.523 7.793 l -1.869 1.274 c 0 0 -.201 .158 -.214 .167 c 1.082 -2.229 2.045 -4.395 2.767 -6.371 l 3.751 -10.374 c 0 0 -3.521 .741 -6.672 1.408 c 13.055 -3.59 26.371 -15.247 32.96 -23.581 c 4.244 -5.364 6.25 -9.329 6.93 -13.683 l .983 -6.316 z" fill="#f7941d"/><path d="m 166.311 501.861 c 13.421 -8.047 22.259 -7.509 34.247 -6.015 c 21.366 2.665 38.266 14.518 59.759 18.803 c -22.791 7.829 -48.997 -.106 -71.043 -6.223 c -10.168 -3.639 -18.607 -4.894 -22.963 -6.565 z m 3.754 9.759 c 11.908 2.893 23.148 5.78 35.998 7.736 c -14.068 4.596 -27.246 5.431 -38.46 4.53 c -15.372 -1.228 -27.058 -5.712 -32.306 -8.222 c 8.139 -5.826 19.251 -6.089 34.768 -4.044 z m 113.866 -7.929 c -3.697 3.918 -55.212 2.587 -67.256 -17.948 c 16.734 -6.601 54.569 7.011 67.256 17.948 z m -79.286 -17.982 c -12.491 .543 -49.361 -28.528 -48.466 -42.747 c 19.662 1.075 46.024 31.488 48.466 42.747 z m -19.682 -.65 c -35.936 3.889 -57.895 -29.043 -80.942 -43.421 c 24.721 .302 33.9 7.08 42.572 12.546 c 16.432 11.653 27.083 26.785 38.37 30.875 z m -53.749 -10.932 c -18.736 -16.744 -35.476 -27.26 -57.878 -25.776 c 11.192 18.098 46.317 28.511 57.878 25.776 z m -27.926 15.078 c 25.079 13.712 52.39 6.953 65.186 2.488 c -10.38 -6.137 -22.085 -8.774 -34.327 -8.679 c -11.498 .082 -23.627 .533 -30.859 6.191 z M 80.621 286.066 c 7.656 -6.464 10.982 -12.884 14.087 -24.827 c 1.141 -4.392 5.318 -21.99 2.045 -25.949 c -5.577 -1.408 -13.012 15.247 -14.258 20.021 c -2.909 11.134 -1.359 22.405 -1.874 30.755 z M 65.19 198.793 c -3.068 25.489 -4.625 72.098 3.043 81.148 c .446 1.27 9.358 -24.478 10.909 -52.209 c .872 -15.563 -.19 -31.745 -7.29 -44.137 c -2.348 2.143 -4.838 5.599 -6.662 15.198 z m -9.624 62.29 c 3.463 .694 -.805 -50.511 -18.951 -50.998 c -6.544 12.006 15.125 50.153 18.951 50.998 z m 1.012 -37.813 c -6.54 -8.537 -9.957 -33.802 -8.237 -47.566 c .718 -5.764 2.459 -10.306 4.42 -11.391 c 10.35 5 5.188 62.681 3.817 58.957 z m .151 96.79 c 1.181 -9.768 -10.072 -30.526 -19.558 -41.119 c -5.352 -5.977 -8.018 -7.7 -11.169 -8.156 c -2.726 14.757 21.665 47.59 30.727 49.275 z m 28.85 40.943 c -5.536 -4.577 -13.71 -21.146 -20.9 -38.8 c -7.192 -17.652 -11.396 -34.704 -16.341 -47.607 c 27.015 6.423 37.132 58.408 37.241 86.407 z m 9.412 6.885 C 92.88 353.659 81.043 315.773 92.656 299.64 c 6.414 19.385 14.658 44.687 2.335 68.248 z m -65.82 -44.711 c 8.774 11.099 25.692 23.761 37.501 22.328 c -.313 -6.496 -26.466 -35.054 -43.177 -33.151 c .379 2.439 1.367 5.371 5.676 10.823 z m 61.63 -104.315 c 9.084 -3.049 39.166 -21.773 36.858 -51.275 c -8.735 2.873 -31.983 35.066 -36.858 51.275 z M 89.21 196.585 c 12.015 -15.301 24.497 -27.789 31.888 -42.182 c 5.057 -9.85 8.49 -23.349 4.759 -42.361 c -6.836 8.4 -9.767 17.234 -26.518 42.108 c -8.835 13.126 -10.834 38.648 -10.129 42.435 z m 3.446 -46.521 c 13.286 -13.286 20.23 -48.231 20.23 -65.946 c -20.505 15.694 -22.071 51.167 -20.23 65.946 z m -8.325 29.106 c -.005 -5.758 .092 -27.316 -1.029 -40.542 c -.83 -9.781 -2.734 -13.322 -4.777 -13.117 c -8.295 .953 -10.62 49.019 5.806 53.659 z M 60.173 357.438 c 4.304 11.889 16.252 29.564 30.409 45.332 c 12.489 13.915 25.347 25.451 31.272 26.931 c -2.369 -17.667 -35.883 -66.811 -61.681 -72.263 z m 78.894 78.928 c -4.007 -2.751 -34.52 -45.745 -27.396 -57.924 c 17.509 6.449 29.074 43.991 27.396 57.924 z M 81.977 403.44 c -7.868 -12.783 -16.202 -22.831 -28.67 -32.768 c -3.736 -2.483 -12.173 -8.882 -16.526 -7.995 c 3.349 19.211 34.084 39.434 45.196 40.763 z m 28.045 28.136 c -3.588 -3.828 -35.741 -28.251 -63.422 -25.732 c 4.572 7.095 10.178 12.25 16.188 16.074 c 14.951 8.34 36.769 8.189 47.234 9.658 z" fill="#00a651"/><path d="M 86.915 204.203 L 127.829 107.036 L 126.415 106.443 L 85.5 203.61 Z" fill="#f7941d"/><path d="M 21.834 231 H 118.249001 V 232.534 H 21.834 Z" fill="#f7941d" transform="matrix(.0375 -.9993 .9993 .0375 -164.1884 293.0686)"/><path d="M 84.875 361.309 L 86.283 360.697 L 48.049 272.129 L 46.641 272.739 Z" fill="#f7941d"/><path d="M 90.247002 346.065 H 91.781002 V 441.074003 H 90.247002 Z" fill="#f7941d" transform="matrix(.7606 -.6492 .6492 .7606 -233.7232 153.3071)"/><path d="M 143.72501 417.42001 H 145.25801 V 509.271008 H 143.72501 Z" fill="#f7941d" transform="matrix(.4727 -.8812 .8812 .4727 -332.1202 371.6489)"/><path d="M 213.804 457.108 H 215.336 V 555.178999 H 213.804 Z" fill="#f7941d" transform="matrix(.1355 -.9908 .9908 .1355 -315.9835 650.1376)"/><path d="M 133.73801 455.953 H 135.26601 V 523.986997 H 133.73801 Z" fill="#f7941d" transform="matrix(.0507 -.9987 .9987 .0507 -361.6586 599.4502)"/><path d="M 100.273 427.716 H 101.807 V 493.744999 H 100.273 Z" fill="#f7941d" transform="matrix(.4058 -.914 .914 .4058 -361.053 366.1175)"/><path d="M 76.382004 382.39899 H 77.914004 V 453.554988 H 76.382004 Z" fill="#f7941d" transform="matrix(.3824 -.924 .924 .3824 -338.5642 329.4354)"/><path d="M 139.725 439.483 L 141.109 438.821 L 110.426 374.385 L 109.041 375.047 Z" fill="#f7941d"/><path d="M 94.224 367.913 L 95.758 367.861 L 93.111 295.932 L 91.58 295.986 Z" fill="#f7941d"/><path d="M 44.018002 298.20801 H 45.555002 V 358.14501 H 44.018002 Z" fill="#f7941d" transform="matrix(.5973 -.8021 .8021 .5973 -245.1769 168.0925)"/><path d="M 39.505001 263.552 H 41.040001 V 324.851 H 39.505001 Z" fill="#f7941d" transform="matrix(.8437 -.5369 .5369 .8437 -151.6496 67.6135)"/><path d="M 58.963001 259.90302 H 117.547001 V 261.43702 H 58.963001 Z" fill="#f7941d" transform="matrix(.2798 -.9601 .9601 .2798 -186.6979 272.465)"/><path d="M 177.90199 429.246 H 179.43299 V 497.661001 H 177.90199 Z" fill="#f7941d" transform="matrix(.6507 -.7593 .7593 .6507 -289.5072 297.5511)"/><path d="M 248.231 457.64499 H 249.761 V 530.196992 H 248.231 Z" fill="#f7941d" transform="matrix(.2693 -.9631 .9631 .2693 -293.7287 600.7222)"/><path d="M 167.869 479.603 H 169.407 V 554.590999 H 167.869 Z" fill="#f7941d" transform="matrix(.0603 -.9982 .9982 .0603 -357.681 654.2699)"/><path d="M 59.264 349.62399 H 60.798 V 418.663991 H 59.264 Z" fill="#f7941d" transform="matrix(.6584 -.7527 .7527 .6584 -268.6365 176.423)"/><path d="M 45.042 205.02699 H 46.577 V 266.198991 H 45.042 Z" fill="#f7941d" transform="matrix(.9363 -.3511 .3511 .9363 -79.817 31.089)"/><path d="M 52.400002 158.771 H 53.935002 V 225.553997 H 52.400002 Z" fill="#f7941d" transform="matrix(.9949 -.1013 .1013 .9949 -19.1879 6.3725)"/><path d="M 79.900002 122.866 H 81.434002 V 179.407 H 79.900002 Z" fill="#f7941d" transform="matrix(.9916 -.1296 .1296 .9916 -18.9068 11.7289)"/><path d="M 66.839996 114.848 H 138.618995 V 116.385 H 66.839996 Z" fill="#f7941d" transform="matrix(.2811 -.9597 .9597 .2811 -37.1037 181.702)"/><path d="M 74.345001 191.888 H 143.078003 V 193.422 H 74.345001 Z" fill="#f7941d" transform="matrix(.595 -.8038 .8038 .595 -110.8152 165.4118)"/><path d="m 522.346 195.483 c .005 -.361 .03 -.683 .03 -1.105 c 0 -2.313 -.186 -5.458 -.594 -9.051 c .187 -.052 .899 -.254 .899 -.254 c 1.492 -.418 2.841 -1.058 4.094 -1.84 c -1.859 3.725 -3.326 7.793 -4.429 12.25 z" fill="#f7941d"/><path d="m 519.75 210.664 c 0 0 .359 -1.906 .544 -2.925 c -.226 2.482 -.35 5.096 -.415 7.795 c -1.034 -2.978 -2.608 -6.488 -4.594 -10.314 c 2.226 2.713 4.465 5.444 4.465 5.444 z" fill="#f7941d"/><path d="m 533.6 285.235 c -.88 1.258 -1.718 2.559 -2.532 3.91 c -.079 -1.266 -.219 -3.456 -.219 -3.456 c -.075 -1.279 -.102 -2.682 -.102 -4.161 c 0 -.121 0 -.257 0 -.377 c 1.031 2.298 1.937 3.471 2.853 4.084 z" fill="#f7941d"/><path d="m 546.348 324.522 c 0 -.006 0 -.006 0 -.006 z" fill="#f7941d"/><path d="m 544.561 351.296 c -.079 .017 -.659 .143 -.659 .143 c -4.357 .919 -8.854 2.961 -13.36 5.676 c 1.165 -1.845 2.333 -3.841 3.501 -5.987 c 1.673 .202 3.892 .473 3.892 .473 c 2.151 .258 4.378 .046 6.626 -.305 z" fill="#f7941d"/><path d="M 519.332 406.868 Z" fill="#f7941d"/><path d="m 476.207 437.844 c 0 0 4.038 -1.004 6.526 -1.631 c -.463 .512 -.911 .995 -1.218 1.327 c -4.278 .904 -7.939 2.032 -11.112 3.314 c 1.337 -1.197 3.615 -3.836 6.41 -7.509 c -.305 2.254 -.606 4.499 -.606 4.499 z" fill="#f7941d"/><path d="m 419.458 488.953 c -2.569 -.176 -5.135 -.096 -7.743 .073 c 2.373 -1.049 4.817 -2.367 7.289 -3.841 c .224 1.881 .317 2.625 .454 3.768 z" fill="#f7941d"/><path d="m 394.385 491.584 c -1.021 .246 -1.99 .563 -2.991 .847 c .82 -.989 1.574 -2.022 2.247 -3.11 c -.203 .945 -.479 2.211 -.479 2.211 c 0 0 .878 .034 1.223 .052 z" fill="#f7941d"/><path d="m 439.036 501.861 c -4.355 1.671 -12.794 2.926 -22.964 6.565 c -22.043 6.116 -48.249 14.052 -71.043 6.223 c 21.493 -4.284 38.393 -16.138 59.756 -18.803 c 11.988 -1.493 20.828 -2.031 34.251 6.015 z" fill="#00a651"/><path d="m 435.278 511.62 c 15.518 -2.045 26.627 -1.782 34.771 4.045 c -5.247 2.51 -16.934 6.994 -32.306 8.222 c -11.215 .9 -24.395 .065 -38.465 -4.53 c 12.858 -1.957 24.095 -4.844 36 -7.737 z" fill="#00a651"/><path d="m 321.414 503.691 c 12.686 -10.938 50.521 -24.55 67.259 -17.948 c -12.045 20.535 -63.56 21.866 -67.259 17.948 z" fill="#00a651"/><path d="m 400.7 485.709 c 2.439 -11.259 28.804 -41.672 48.464 -42.747 c .895 14.219 -35.973 43.29 -48.464 42.747 z" fill="#00a651"/><path d="m 420.382 485.059 c 11.288 -4.09 21.941 -19.222 38.374 -30.875 c 8.671 -5.466 17.844 -12.244 42.568 -12.546 c -23.046 14.378 -45.001 47.309 -80.942 43.421 z" fill="#00a651"/><path d="m 474.134 474.127 c 11.56 2.735 46.685 -7.678 57.872 -25.776 c -22.403 -1.484 -39.14 9.032 -57.872 25.776 z" fill="#00a651"/><path d="m 502.06 489.205 c -7.233 -5.658 -19.362 -6.109 -30.862 -6.19 c -12.239 -.096 -23.942 2.542 -34.321 8.679 c 12.79 4.464 40.1 11.223 65.183 -2.489 z" fill="#00a651"/><path d="m 524.724 286.066 c -.514 -8.35 1.039 -19.621 -1.875 -30.755 c -1.247 -4.774 -8.679 -21.429 -14.258 -20.021 c -3.27 3.959 .906 21.557 2.046 25.949 c 3.104 11.943 6.428 18.363 14.087 24.827 z" fill="#00a651"/><path d="m 540.157 198.793 c -1.821 -9.598 -4.315 -13.054 -6.663 -15.198 c -7.097 12.392 -8.162 28.574 -7.288 44.137 c 1.544 27.732 10.461 53.479 10.904 52.209 c 7.672 -9.05 6.115 -55.659 3.047 -81.148 z" fill="#00a651"/><path d="m 549.781 261.083 c 3.823 -.845 25.495 -38.992 18.948 -50.998 c -18.143 .487 -22.409 51.692 -18.948 50.998 z" fill="#00a651"/><path d="m 548.769 223.27 c -1.373 3.724 -6.535 -53.957 3.818 -58.957 c 1.957 1.085 3.701 5.627 4.418 11.391 c 1.718 13.764 -1.698 39.029 -8.236 47.566 z" fill="#00a651"/><path d="m 548.617 320.06 c 9.062 -1.685 33.457 -34.518 30.729 -49.275 c -3.152 .457 -5.819 2.179 -11.173 8.156 c -9.487 10.593 -20.735 31.351 -19.556 41.119 z" fill="#00a651"/><path d="m 519.769 361.003 c .11 -27.999 10.225 -79.984 37.242 -86.407 c -4.945 12.903 -9.154 29.955 -16.346 47.607 c -7.191 17.653 -15.366 34.223 -20.896 38.8 z" fill="#00a651"/><path d="m 510.352 367.888 c -12.321 -23.561 -4.079 -48.862 2.338 -68.248 c 11.608 16.133 -.226 54.018 -2.338 68.248 z" fill="#00a651"/><path d="m 576.173 323.177 c 4.309 -5.452 5.3 -8.384 5.677 -10.823 c -16.706 -1.902 -42.863 26.655 -43.181 33.151 c 11.812 1.433 28.732 -11.23 37.504 -22.328 z" fill="#00a651"/><path d="m 514.541 218.862 c -4.869 -16.209 -28.119 -48.403 -36.854 -51.275 c -2.306 29.502 27.776 48.226 36.854 51.275 z" fill="#00a651"/><path d="m 516.139 196.585 c .7 -3.787 -1.296 -29.309 -10.136 -42.434 c -16.752 -24.874 -19.679 -33.708 -26.513 -42.108 c -3.731 19.012 -.298 32.511 4.758 42.361 c 7.391 14.392 19.873 26.88 31.891 42.181 z" fill="#00a651"/><path d="m 512.69 150.064 c 1.841 -14.779 .276 -53.319 -20.231 -69.017 c 0 17.715 6.945 55.73 20.231 69.017 z" fill="#00a651"/><path d="m 521.017 179.17 c 16.428 -4.64 14.101 -52.706 5.807 -53.659 c -2.044 -.205 -3.95 3.336 -4.776 13.117 c -1.124 13.227 -1.027 34.784 -1.031 40.542 z" fill="#00a651"/><path d="m 545.171 357.438 c -25.798 5.452 -59.313 54.597 -61.678 72.263 c 5.92 -1.479 18.782 -13.016 31.272 -26.931 c 14.154 -15.769 26.102 -33.444 30.406 -45.332 z" fill="#00a651"/><path d="m 466.28 436.366 c -1.679 -13.934 9.883 -51.476 27.396 -57.924 c 7.123 12.179 -23.392 55.173 -27.396 57.924 z" fill="#00a651"/><path d="m 523.371 403.44 c 11.109 -1.328 41.844 -21.552 45.192 -40.763 c -4.35 -.887 -12.788 5.512 -16.524 7.995 c -12.467 9.936 -20.802 19.984 -28.668 32.768 z" fill="#00a651"/><path d="m 495.325 431.576 c 10.461 -1.469 32.281 -1.318 47.229 -9.658 c 6.015 -3.824 11.619 -8.979 16.192 -16.074 c -27.679 -2.519 -59.833 21.904 -63.421 25.732 z" fill="#00a651"/><path d="M 518.424 204.203 L 519.84 203.61 L 478.935 106.443 L 477.519 107.036 Z" fill="#f7941d"/><path d="M 534.53497 183.55901 H 536.07097 V 279.974011 H 534.53497 Z" fill="#f7941d" transform="matrix(.9993 -.0376 .0376 .9993 -8.3269 20.2681)"/><path d="M 490.64999 315.95099 H 587.118992 V 317.48599 H 490.64999 Z" fill="#f7941d" transform="matrix(.3989 -.917 .917 .3989 33.4883 684.5253)"/><path d="M 484.076 430.198 L 545.754 357.936 L 544.592 356.94 L 482.905 429.203 Z" fill="#f7941d"/><path d="M 414.92999 462.57901 H 506.780988 V 464.11101 H 414.92999 Z" fill="#f7941d" transform="matrix(.8807 -.4738 .4738 .8807 -164.5147 273.6377)"/><path d="M 341.73801 505.37799 H 439.812007 V 506.90999 H 341.73801 Z" fill="#f7941d" transform="matrix(.991 -.1342 .1342 .991 -64.3839 57.0146)"/><path d="M 436.827 489.20599 H 504.862004 V 490.73399 H 436.827 Z" fill="#f7941d" transform="matrix(.9987 -.0506 .0506 .9987 -24.1758 24.438)"/><path d="M 471.293 459.96399 H 537.316003 V 461.49799 H 471.293 Z" fill="#f7941d" transform="matrix(.9136 -.4067 .4067 .9136 -143.7898 244.9307)"/><path d="M 492.61899 417.211 H 563.773989 V 418.743 H 492.61899 Z" fill="#f7941d" transform="matrix(.9235 -.3835 .3835 .9235 -119.917 234.5512)"/><path d="M 465.624 439.483 L 496.306 375.047 L 494.921 374.385 L 464.237 438.821 Z" fill="#f7941d"/><path d="M 511.121 367.913 L 513.765 295.986 L 512.229 295.932 L 509.586 367.861 Z" fill="#f7941d"/><path d="M 530.59003 327.409 H 590.530029 V 328.944 H 530.59003 Z" fill="#f7941d" transform="matrix(.8026 -.5965 .5965 .8026 -85.1071 399.178)"/><path d="M 534.42401 293.43399 H 595.721011 V 294.96899 H 534.42401 Z" fill="#f7941d" transform="matrix(.5371 -.8435 .8435 .5371 13.3989 612.8195)"/><path d="M 516.32202 231.379 H 517.85802 V 289.961001 H 516.32202 Z" fill="#f7941d" transform="matrix(.9602 -.2793 .2793 .9602 -52.2266 154.794)"/><path d="M 392.47101 462.68799 H 460.886011 V 464.21899 H 392.47101 Z" fill="#f7941d" transform="matrix(.7579 -.6523 .6523 .7579 -199.039 390.5088)"/><path d="M 320.07101 493.15601 H 392.628009 V 494.68701 H 320.07101 Z" fill="#f7941d" transform="matrix(.9624 -.2717 .2717 .9624 -120.7799 115.3839)"/><path d="M 399.328 520.124 L 474.18 515.606 L 474.084 514.07 L 399.238 518.588 Z" fill="#f7941d"/><path d="M 519.836 407.448 L 571.804 361.993 L 570.791 360.842 L 518.829 406.292 Z" fill="#f7941d"/><path d="M 549.519 264.52 L 570.996 207.244 L 569.556 206.706 L 548.081 263.984 Z" fill="#f7941d"/><path d="M 518.78699 191.397 H 585.569987 V 192.928 H 518.78699 Z" fill="#f7941d" transform="matrix(.1036 -.9946 .9946 .1036 303.8359 721.4584)"/><path d="M 496.40701 150.37 H 552.947011 V 151.904 H 496.40701 Z" fill="#f7941d" transform="matrix(.13 -.9915 .9915 .13 306.6332 651.7219)"/><path d="M 501.85001 76.718002 H 503.38201 V 151.448005 H 501.85001 Z" fill="#f7941d" transform="matrix(.963 -.2696 .2696 .963 -12.1473 139.7079)"/><path d="M 495.867 158.289 H 497.401 V 227.021002 H 495.867 Z" fill="#f7941d" transform="matrix(.8036 -.5952 .5952 .8036 -17.1187 333.4362)"/><path d="M 161.427 131.08299 H 170.422 V 136.10399 H 161.427 Z" fill="#fff" transform="matrix(.7456 -.6664 .6664 .7456 -46.814 144.5655)"/><path d="M 440.212 138.172 L 443.358 134.656 L 437.049 129.006 L 433.9 132.534 Z" fill="#fff"/><path d="m 315.83 516.438 c 23.387 0 46.778 -4.027 58.479 -12.08 v 49.475 v 40.273 c -.497 -.384 .478 .377 0 0 c -.482 -.384 -.229 -.263 -.691 -.64 c .462 .401 -1.258 -.831 -.779 -.454 c .476 .383 .968 .749 1.471 1.094 c -11.7 -8.053 -35.092 -12.081 -58.479 -12.081 v -65.587 z" fill="#fff"/><path d="m 285.146 582.023 c -23.39 0 -46.782 4.028 -58.477 12.081 c .503 -.345 -.173 .121 .303 -.257 c .477 -.383 -.458 .404 0 0 c -.462 .378 .733 -.635 .256 -.258 c -.48 .378 -.063 .131 -.56 .515 v -40.273 v -49.475 c 11.695 8.053 35.087 12.08 58.477 12.08 v 65.587 z" fill="#fff"/><path d="m 225.135 504.357 v 93.603 c 0 0 2.368 -2.53 2.429 -2.603 c .016 -.012 .018 -.012 .032 -.023 c 10.6 -7.262 32.636 -11.774 57.55 -11.774 h 1.534 v -68.658 h -1.534 c -24.955 0 -47.026 -4.527 -57.606 -11.81 l -2.405 -1.658 z m 3.069 49.475 c 0 0 0 -42.034 0 -46.81 c 11.542 6.716 31.794 10.746 55.404 10.916 c 0 2.797 0 59.791 0 62.583 c -23.611 .175 -43.862 4.2 -55.404 10.916 c 0 -4.655 0 -37.605 0 -37.605 z m -2.431 39.069 l .019 .006 c -.028 .038 -.054 .065 -.078 .098 c -.03 .027 -.105 .115 -.105 .115 c 0 0 .09 -.121 .164 -.219 z" fill="#f7941d"/><path d="m 375.326 501.434 l -2.402 1.658 c -10.58 7.282 -32.652 11.81 -57.604 11.81 h -1.538 v 68.658 h 1.538 c 24.915 0 46.947 4.513 57.552 11.774 c .011 .012 .011 .012 .026 .023 c .061 .072 2.429 2.603 2.429 2.603 v -93.603 v -2.923 z m -3.067 90.003 c -11.545 -6.716 -31.795 -10.741 -55.409 -10.916 c 0 -2.792 0 -59.786 0 -62.583 c 23.614 -.17 43.864 -4.2 55.409 -10.916 c 0 4.776 0 46.81 0 46.81 c 0 0 0 32.95 0 37.605 z m 2.591 1.683 c 0 0 -.069 -.088 -.098 -.115 c -.025 -.032 -.049 -.06 -.079 -.098 l .018 -.006 c .072 .098 .159 .219 .159 .219 z" fill="#f7941d"/><path d="m 242.011 490.55 v 89.748 c .995 -.763 -.493 .624 .433 -.131 c -.921 .808 .57 -.565 -.433 .131 c 23.392 -16.107 93.563 -16.107 116.953 0 c -1.007 -.696 .612 .419 -.307 -.383 c .925 .755 -.688 -.38 .307 .383 V 490.55 c -23.39 16.105 -93.561 16.105 -116.953 0 z" fill="#fff"/><path d="M 240.778 581.95801 L 285.146 582.02301" fill="#fff"/><path d="M 315.82999 582.02301 L 360.19299 581.95801" fill="#fff"/><path d="m 360.501 580.197 c 0 -.205 0 -92.573 0 -92.573 l -2.404 1.66 c -22.609 15.568 -92.603 15.568 -115.214 0 l -2.406 -1.66 v 2.926 c 0 0 0 88.845 0 89.442 c -.169 .199 -.359 .419 -.359 .419 c 0 0 .189 .229 .359 .431 c 0 .733 0 2.489 0 2.489 c 0 0 .122 -.087 .302 -.221 v .381 l 44.365 .068 l .008 -3.069 l -40.369 -.061 c 23.703 -14.035 87.85 -14.045 111.51 0 l -40.466 .061 l .006 3.069 l 44.36 -.068 v -.321 c .182 .134 .308 .227 .308 .227 v -3.183 c 0 -.005 0 -.005 0 -.005 c 0 -.006 0 -.012 0 -.012 z m -116.956 -2.554 c 0 -4.842 0 -79.603 0 -84.445 c 24.998 14.508 88.884 14.508 113.888 0 c 0 4.842 0 79.603 0 84.445 c -25.003 -14.508 -88.89 -14.508 -113.888 0 z" fill="#f7941d"/><path d="m 506.238 290.567 c 0 112.567 -91.251 203.816 -203.813 203.816 c -112.562 0 -203.811 -91.249 -203.811 -203.816 c 0 -112.561 91.249 -203.808 203.812 -203.808 c 112.561 0 203.812 91.247 203.812 203.808 z" fill="#fff"/><path d="m 97.079 290.567 c 0 113.234 92.119 205.351 205.347 205.351 c 113.227 0 205.346 -92.117 205.346 -205.351 c 0 -113.223 -92.119 -205.342 -205.345 -205.342 c -113.23 0 -205.348 92.119 -205.348 205.342 z m 3.069 0 c 0 -111.533 90.742 -202.274 202.279 -202.274 c 111.536 0 202.276 90.741 202.276 202.274 c 0 111.539 -90.74 202.28 -202.277 202.28 c -111.536 0 -202.278 -90.742 -202.278 -202.28 z" fill="#f7941d"/><path d="m 200.188 381.456 v -181.86 c -13.997 15.706 -24.433 34.644 -30.034 55.545 v 70.775 c 5.602 20.895 16.038 39.834 30.034 55.54 z" fill="#00a651"/><path d="m 199.042 198.573 c -14.33 16.081 -24.835 35.502 -30.371 56.169 l -.048 .197 v 71.174 l .048 .196 c 5.539 20.664 16.041 40.089 30.371 56.169 l 2.679 3.008 V 195.565 Z m -.387 5.234 c 0 7.845 0 165.594 0 173.439 c -12.586 -15.03 -21.9 -32.746 -26.967 -51.559 c 0 -.438 0 -69.881 0 -70.321 c 5.067 -18.813 14.381 -36.526 26.967 -51.559 z" fill="#f7941d"/><path d="m 434.513 325.916 v -70.781 c -5.605 -20.896 -16.038 -39.834 -30.031 -55.539 V 381.45 c 13.993 -15.7 24.425 -34.639 30.031 -55.534 z" fill="#00a651"/><path d="M 402.948 199.596 V 385.48 l 2.68 -3.011 c 14.327 -16.071 24.827 -35.488 30.364 -56.154 l .056 -.197 v -71.185 l -.056 -.196 c -5.537 -20.662 -16.036 -40.082 -30.364 -56.164 l -2.68 -3.005 z m 3.069 4.211 c 12.577 15.033 21.89 32.746 26.96 51.553 c 0 .441 0 69.89 0 70.336 c -5.07 18.804 -14.383 36.52 -26.96 51.544 c 0 -7.845 0 -165.586 0 -173.433 z" fill="#f7941d"/><path d="M 375.934 405.824 V 175.223 c -9.308 -5.959 -19.385 -10.823 -30.04 -14.413 v 259.429 c 10.655 -3.592 20.732 -8.452 30.04 -14.415 z" fill="#00a651"/><path d="m 344.36 160.81 v 261.562 l 2.026 -.678 c 10.647 -3.588 20.873 -8.493 30.372 -14.574 l .706 -.456 V 174.385 l -.706 -.454 c -9.493 -6.081 -19.712 -10.987 -30.372 -14.574 l -2.026 -.684 z m 3.07 2.206 c 9.427 3.347 18.493 7.722 26.967 13.076 c 0 1.72 0 227.145 0 228.862 c -8.482 5.36 -17.546 9.735 -26.967 13.079 c 0 -4.296 0 -250.718 0 -255.017 z" fill="#f7941d"/><path d="m 302.33 427.346 c 5.076 0 10.087 -.281 15.021 -.828 V 154.529 c -4.934 -.542 -9.944 -.831 -15.021 -.831 c -5.071 0 -10.084 .289 -15.016 .831 v 271.988 c 4.932 .548 9.945 .829 15.016 .829 z" fill="#00a651"/><path d="m 287.147 153.003 l -1.368 .15 v 274.742 l 1.368 .153 c 5.056 .55 10.163 .831 15.183 .831 c 5.021 0 10.129 -.281 15.188 -.831 l 1.366 -.153 V 153.153 l -1.366 -.15 c -5.059 -.558 -10.167 -.836 -15.188 -.836 c -5.02 0 -10.127 .278 -15.183 .836 z m 15.183 2.231 c 4.461 0 8.985 .257 13.485 .706 c 0 2.784 0 266.383 0 269.164 c -4.5 .451 -9.024 .709 -13.485 .709 c -4.453 0 -8.982 -.258 -13.482 -.709 c 0 -2.78 0 -266.38 0 -269.164 c 4.5 -.448 9.029 -.706 13.482 -.706 z" fill="#f7941d"/><path d="M 258.768 420.239 V 160.812 c -10.654 3.588 -20.727 8.452 -30.031 14.416 v 230.597 c 9.304 5.962 19.377 10.822 30.031 14.414 z" fill="#00a651"/><path d="m 258.281 159.358 c -10.661 3.587 -20.879 8.492 -30.374 14.576 l -.705 .454 v 232.276 l .705 .451 c 9.495 6.08 19.713 10.991 30.374 14.574 l 2.023 .683 V 158.674 Z m -1.045 3.661 c 0 4.296 0 250.712 0 255.014 c -9.428 -3.344 -18.49 -7.719 -26.966 -13.079 c 0 -1.717 0 -227.143 0 -228.857 c 8.475 -5.359 17.537 -9.734 26.966 -13.078 z" fill="#f7941d"/><path d="m 98.462 290.48 c 0 112.413 91.455 203.873 203.871 203.873 c 112.417 0 203.875 -91.46 203.875 -203.873 c 0 -112.417 -91.458 -203.877 -203.875 -203.877 c -112.416 0 -203.871 91.46 -203.871 203.877 z m 8.579 0 c 0 -107.684 87.608 -195.297 195.292 -195.297 c 107.686 0 195.294 87.613 195.294 195.297 c 0 107.685 -87.608 195.291 -195.294 195.291 c -107.684 0 -195.292 -87.606 -195.292 -195.291 z" fill="#fff"/><path d="m 96.927 290.48 c 0 113.261 92.143 205.408 205.403 205.408 c 113.262 0 205.411 -92.147 205.411 -205.408 C 507.741 177.219 415.592 85.072 302.33 85.072 C 189.07 85.071 96.927 177.218 96.927 290.48 Z m 3.068 0 c 0 -111.572 90.769 -202.34 202.335 -202.34 c 111.571 0 202.34 90.768 202.34 202.34 c 0 111.571 -90.768 202.34 -202.34 202.34 C 190.763 492.819 99.995 402.051 99.995 290.48 Z" fill="#f7941d"/><path d="m 105.507 290.48 c 0 108.531 88.297 196.827 196.826 196.827 c 108.531 0 196.824 -88.296 196.824 -196.827 C 499.157 181.949 410.864 93.652 302.333 93.652 C 193.804 93.651 105.507 181.949 105.507 290.48 Z m 3.07 0 c 0 -106.841 86.918 -193.76 193.756 -193.76 c 106.842 0 193.758 86.919 193.758 193.76 c 0 106.841 -86.916 193.759 -193.758 193.759 C 195.495 484.238 108.577 397.32 108.577 290.48 Z" fill="#f7941d"/><path d="m 169.457 290.529 c 0 -73.39 59.488 -132.877 132.876 -132.877 c 73.381 0 132.88 59.488 132.88 132.877 c 0 73.383 -59.499 132.866 -132.88 132.866 c -73.388 0 -132.876 -59.483 -132.876 -132.866 z" fill="none"/><path d="m 300.468 319.458 c 45.065 0 87.524 11.358 124.673 31.352 c .784 -1.58 1.533 -3.183 2.252 -4.802 c -37.84 -20.308 -81.056 -31.847 -126.925 -31.847 c -44.649 0 -86.785 10.938 -123.898 30.255 c .7 1.622 1.431 3.235 2.191 4.83 c 36.439 -19.015 77.837 -29.788 121.707 -29.788 z" fill="#f7941d"/><path d="m 165.549 287.086 c -.028 1.146 -.044 2.289 -.044 3.443 c 0 19.704 4.194 38.45 11.726 55.392 c 36.909 -19.233 78.822 -30.116 123.237 -30.116 c 45.631 0 88.618 11.481 126.247 31.702 c 7.99 -17.354 12.446 -36.656 12.446 -56.978 c 0 -.569 -.016 -1.127 -.022 -1.69 c -42.099 -19.897 -89.103 -31.045 -138.672 -31.045 c -48.098 0 -93.789 10.494 -134.918 29.292 z" fill="#fff"/><path d="m 165.665 283.906 c -.092 1.928 -.139 3.866 -.152 5.807 c 41.098 -18.957 86.811 -29.555 134.96 -29.555 c 49.604 0 96.629 11.247 138.678 31.297 c 0 -.309 .01 -.615 .01 -.927 c 0 -1.629 -.038 -3.244 -.093 -4.856 c -42.135 -19.692 -89.097 -30.717 -138.595 -30.717 c -48.017 0 -93.654 10.358 -134.808 28.951 z" fill="#f7941d"/><path d="m 165.513 290.529 c 0 75.445 61.38 136.817 136.829 136.817 c 75.449 0 136.834 -61.372 136.834 -136.817 c 0 -75.451 -61.386 -136.831 -136.834 -136.831 c -75.448 0 -136.829 61.38 -136.829 136.831 z m 7.902 0 c 0 -71.09 57.838 -128.929 128.927 -128.929 c 71.093 0 128.929 57.838 128.929 128.929 c 0 71.087 -57.836 128.918 -128.929 128.918 c -71.089 -.001 -128.927 -57.831 -128.927 -128.918 z" fill="#fff"/><path d="m 163.979 290.529 c 0 76.288 62.069 138.351 138.363 138.351 c 76.298 0 138.367 -62.064 138.367 -138.351 c 0 -76.293 -62.069 -138.362 -138.367 -138.362 c -76.294 0 -138.363 62.069 -138.363 138.362 z m 3.068 0 c 0 -74.603 60.695 -135.294 135.295 -135.294 c 74.603 0 135.299 60.691 135.299 135.294 c 0 74.597 -60.695 135.284 -135.299 135.284 c -74.6 0 -135.295 -60.687 -135.295 -135.284 z" fill="#f7941d"/><path d="m 171.882 290.529 c 0 71.932 58.524 130.455 130.46 130.455 c 71.939 0 130.466 -58.522 130.466 -130.455 c -.001 -71.937 -58.526 -130.463 -130.466 -130.463 c -71.936 0 -130.46 58.526 -130.46 130.463 z m 3.068 0 c 0 -70.245 57.15 -127.393 127.392 -127.393 c 70.244 0 127.395 57.147 127.395 127.393 c 0 70.239 -57.15 127.383 -127.395 127.383 c -70.242 0 -127.392 -57.144 -127.392 -127.383 z" fill="#f7941d"/><path d="m 302.24 405.731 l -32.081 6.19 c 0 0 0 30.093 0 32.189 c -1.181 1.389 -6.445 7.585 -6.445 7.585 c -2.875 3.33 -4.463 7.833 -4.463 12.649 c 0 4.834 1.592 9.346 4.487 12.714 l 26.389 31.029 c 3.074 3.645 7.486 5.747 12.099 5.753 c 4.618 0 9.035 -2.103 12.139 -5.769 l 26.848 -31.399 c 2.901 -3.426 4.496 -7.945 4.496 -12.729 c 0 -4.776 -1.586 -9.282 -4.464 -12.698 c -.018 -.019 -4.878 -5.712 -5.808 -6.803 c 0 -2.103 0 -31.973 0 -31.973 l -32.588 -6.854 z" fill="#f7941d"/><path d="m 302.219 408.859 l -28.991 5.589 c 0 0 0 28.7 0 30.789 c -1.203 1.41 -7.176 8.448 -7.176 8.448 c -2.487 2.883 -3.732 6.77 -3.732 10.659 c 0 3.904 1.247 7.804 3.742 10.712 l 26.403 31.041 c 2.496 2.964 6.057 4.67 9.765 4.675 c .005 0 .011 0 .011 0 c 3.702 0 7.263 -1.705 9.781 -4.678 l 26.861 -31.415 c 2.505 -2.964 3.758 -6.847 3.758 -10.735 c 0 -3.882 -1.247 -7.759 -3.746 -10.721 c -.006 -.014 -4.72 -5.536 -6.524 -7.653 c 0 -2.092 0 -30.605 0 -30.605 l -29.547 -6.221 z" fill="#fff"/><path d="m 336.554 455.2 l -7.255 -8.498 V 417.45 l -26.5 -5.578 l -26.501 5.113 v 29.375 l -7.905 9.311 c -4.092 4.737 -3.998 12.733 0 17.384 l 26.41 31.054 c 3.998 4.747 10.785 4.837 14.875 0 l 26.876 -31.426 c 4.091 -4.835 3.997 -12.742 0 -17.483 z" fill="#00a651"/><path d="m 273.933 461.26 c 3.283 -2.032 9.438 -5.843 11.505 -7.12 c .712 1.141 2.599 4.155 4.646 7.438 l -11.435 7.229 l 2.144 3.429 l 11.435 -7.23 c 1.996 3.193 3.817 6.106 4.512 7.221 c -2.123 1.343 -8.421 5.316 -11.441 7.222 l 2.145 3.43 l 14.863 -9.38 l -15.574 -24.92 l -1.713 1.061 l -13.228 8.186 z" fill="#f7941d"/><path d="m 319.371 479.448 c -3.024 -1.905 -9.321 -5.879 -11.448 -7.222 c .694 -1.114 2.519 -4.027 4.515 -7.221 l 11.44 7.23 l 2.139 -3.429 l -11.436 -7.229 c 2.052 -3.279 3.933 -6.297 4.646 -7.438 c 2.067 1.277 8.223 5.088 11.507 7.12 l 2.146 -3.435 l -14.945 -9.247 l -1.069 1.709 l -14.503 23.211 l 14.86 9.386 z" fill="#f7941d"/><path d="m 312.973 429.87 c -.012 3.708 -.041 10.4 -.054 13.171 c -1.436 0 -4.598 0 -8.049 0 l -.063 -13.171 h -4.771 l .066 13.171 c -3.351 0 -6.385 0 -7.788 0 c -.01 -2.862 -.043 -9.731 -.06 -13.171 h -4.769 l .081 17.942 h 30.101 l .078 -17.942 z" fill="#f7941d"/><path d="M 149.985 384.256 L 144.194 388.314 L 156.044 405.239 L 190.171 381.344 L 185.513 374.691 L 170.484 385.21 L 163.738 375.571 L 157.942 379.63 L 164.693 389.265 L 157.18 394.528 L 149.985 384.256 L 149.985 384.256" fill="#f7941d"/><path d="M 135.697 355.513 L 129.287 358.504 L 138.391 378.029 L 176.149 360.424 L 167.041 340.897 L 160.633 343.889 L 166.308 356.054 L 156.092 360.817 L 150.627 349.104 L 144.219 352.084 L 149.683 363.803 L 141.371 367.681 L 135.697 355.513 L 135.697 355.513" fill="#f7941d"/><path d="m 144.496 325.238 c -2.263 -5.19 -8.117 -6.743 -13.264 -5.463 c -8.632 2.154 -10.793 8.556 -8.798 16.542 l 2.659 10.67 l 40.42 -10.082 l -1.966 -7.88 l -16.294 4.063 l -.027 -.107 l 13.85 -13.873 l -2.379 -9.541 l -14.201 15.671 v 0 m -14.935 12.26 l -.27 -1.066 c -1.039 -4.183 -.865 -7.585 4.121 -8.831 c 4.931 -1.23 6.982 1.509 8.063 5.846 l .256 1.023 l -12.17 3.028 v 0" fill="#f7941d"/><path d="M 123.403 288.243 L 116.34 288.609 L 117.471 310.129 L 159.074 307.946 L 157.949 286.427 L 150.882 286.799 L 151.585 300.208 L 140.331 300.799 L 139.653 287.887 L 132.592 288.256 L 133.269 301.17 L 124.107 301.647 L 123.403 288.243 L 123.403 288.243" fill="#f7941d"/><path d="M 157.393 283.567 L 158.802 275.566 L 130.943 270.655 L 130.961 270.546 L 163.446 254.001 L 164.461 248.234 L 122.615 240.862 L 121.207 248.857 L 148.797 253.719 L 148.775 253.828 L 116.29 270.374 L 115.274 276.141 L 157.393 283.567 L 157.393 283.567" fill="#f7941d"/><path d="m 138.879 203.823 c -2.522 1.99 -4.589 4.594 -5.862 7.596 c -4.769 11.238 1.585 22.996 12.467 27.613 c 10.581 4.49 23.278 .457 27.854 -10.327 c 1.313 -3.101 1.536 -6.311 1.398 -9.664 l -8.898 -3.778 c 1.508 3.095 1.824 7.016 .464 10.221 c -2.958 6.964 -11.229 8.493 -17.69 5.753 c -6.609 -2.805 -11.473 -9.732 -8.432 -16.901 c 1.36 -3.202 4.225 -5.71 7.653 -6.716 l -8.954 -3.797 v 0" fill="#f7941d"/><path d="M 146.843 188.851 L 141.713 195.91 L 185.662 208.17 L 188.454 204.326 L 163.368 166.101 L 158.237 173.161 L 175.491 197.162 L 175.427 197.252 L 146.843 188.851 L 146.843 188.851" fill="#f7941d"/><path d="m 224.715 148.951 c 4.426 -3.527 4.414 -9.586 1.844 -14.224 c -4.313 -7.779 -11.058 -8.208 -18.258 -4.216 l -9.616 5.326 l 20.203 36.432 l 7.1 -3.937 l -8.144 -14.689 l .095 -.055 l 16.987 9.789 l 8.601 -4.769 l -18.812 -9.657 v 0 m -15.711 -11.249 l .965 -.536 c 3.769 -2.089 7.1 -2.806 9.594 1.69 c 2.462 4.446 .353 7.131 -3.561 9.302 l -.918 .508 l -6.08 -10.964 v 0" fill="#f7941d"/><path d="m 262.204 153.386 c 11.625 -3.554 16.766 -15.646 13.278 -27.053 c -3.41 -11.147 -14.482 -18.454 -26.105 -14.899 c -11.624 3.555 -16.721 15.802 -13.31 26.952 c 3.489 11.407 14.514 18.552 26.137 15 v 0 m -10.488 -34.289 c 6.817 -2.088 13.664 2.926 15.636 9.374 c 1.842 6.023 -.887 15.236 -7.491 17.253 c -6.605 2.021 -14.021 -4.093 -15.86 -10.117 c -1.972 -6.442 .901 -14.429 7.715 -16.51 v 0" fill="#f7941d"/><path d="m 303.794 108.239 c -2.685 -2.677 -7.913 -4.23 -11.61 -4.039 c -7.005 .367 -11.844 6.207 -11.482 13.105 c .337 6.45 4.394 8.955 9.862 10.877 c 3.32 1.102 7.357 2.108 7.586 6.412 c .169 3.199 -1.728 6.12 -5.037 6.29 c -3.476 .186 -6.551 -2.532 -7.821 -5.674 l -4.975 5.405 c 3.121 4.651 7.487 7.739 13.228 7.44 c 8.492 -.445 13.37 -6.62 12.933 -14.954 c -.732 -13.956 -17.073 -10.169 -17.439 -17.177 c -.142 -2.701 2.234 -4.815 4.828 -4.955 c 2.702 -.139 4.759 1.08 6.416 3.095 l 3.511 -5.825 v 0" fill="#f7941d"/><path d="M 324.249 106.257 L 316.156 105.549 L 312.524 147.047 L 320.615 147.753 L 324.249 106.257 L 324.249 106.257" fill="#f7941d"/><path d="M 369.677 125.135 L 377.573 128.006 L 379.988 121.362 L 356.574 112.836 L 354.151 119.481 L 362.046 122.357 L 350.219 154.857 L 357.849 157.635 L 369.677 125.135 L 369.677 125.135" fill="#f7941d"/><path d="m 381.193 171.662 c 10.188 6.617 22.762 2.789 29.258 -7.213 c 6.346 -9.778 4.828 -22.955 -5.37 -29.578 c -10.189 -6.62 -22.845 -2.655 -29.198 7.123 c -6.496 10.006 -4.883 23.046 5.31 29.668 v 0 m 19.525 -30.072 c 5.982 3.882 6.545 12.348 2.864 18.002 c -3.429 5.28 -12.238 9.111 -18.027 5.348 c -5.787 -3.759 -5.87 -13.365 -2.444 -18.648 c 3.666 -5.653 11.634 -8.585 17.607 -4.702 v 0" fill="#f7941d"/><path d="m 422.882 183.13 c 4.492 3.439 10.368 1.969 14.245 -1.651 c 6.502 -6.064 5.289 -12.712 -.325 -18.736 l -7.497 -8.039 l -30.47 28.404 l 5.54 5.945 l 12.282 -11.457 l .08 .085 l -5.389 18.847 l 6.707 7.191 l 4.827 -20.589 v 0 m 7.112 -17.965 l .754 .805 c 2.944 3.152 4.436 6.214 .678 9.72 c -3.716 3.467 -6.832 2.07 -9.889 -1.205 l -.718 -.769 l 9.175 -8.551 v 0" fill="#f7941d"/><path d="M 418.074 202.839 L 422.018 209.94 L 446.759 196.228 L 446.804 196.326 L 431.978 229.624 L 434.819 234.743 L 471.975 214.148 L 468.03 207.044 L 443.539 220.626 L 443.485 220.527 L 458.313 187.231 L 455.469 182.107 L 418.074 202.839 L 418.074 202.839" fill="#f7941d"/><path d="m 451.013 256.536 l -7.661 5.365 l 2.246 8.381 l 37.213 -26.33 l -1.631 -6.087 l -45.499 -4.621 l 2.212 8.274 l 9.374 1.034 l 3.746 13.984 v 0 m 5.812 -3.908 l -2.554 -9.551 l 15.811 .514 l .021 .104 l -13.278 8.933 v 0" fill="#f7941d"/><path d="m 484.775 319.42 c 1.739 -2.707 2.847 -5.841 3.073 -9.092 c .853 -12.179 -8.982 -21.232 -20.775 -22.058 c -11.459 -.801 -22.153 7.148 -22.968 18.834 c -.237 3.361 .602 6.465 1.818 9.596 l 9.644 .675 c -2.434 -2.438 -4.003 -6.037 -3.765 -9.515 c .528 -7.547 7.851 -11.69 14.85 -11.2 c 7.17 .503 14.017 5.469 13.476 13.239 c -.24 3.473 -2.136 6.775 -5.049 8.843 l 9.696 .678 v 0" fill="#f7941d"/><path d="M 481.085 339.213 L 483.327 331.407 L 443.28 319.923 L 437.877 338.775 L 444.671 340.726 L 447.835 329.679 L 481.085 339.213 L 481.085 339.213" fill="#f7941d"/><path d="m 452.738 348.201 c -9.137 -4.457 -17.924 -3.948 -22.824 6.084 c -4.889 10.026 .121 17.272 9.256 21.724 l 22.396 10.927 l 3.565 -7.301 l -20.958 -10.216 c -4.621 -2.253 -10.924 -5.826 -7.905 -12.036 c 3.032 -6.206 9.733 -3.429 14.347 -1.179 l 20.953 10.224 l 3.566 -7.301 l -22.396 -10.926 v 0" fill="#f7941d"/><path d="m 431.063 388.746 l -.835 1.03 c -2.578 3.175 -5.525 6.472 -9.733 3.063 c -4.209 -3.404 -2.278 -6.677 .467 -10.07 l 1.08 -1.329 l 9.021 7.306 v 0 m -8.974 -17.722 l -8.028 9.917 c -4.767 5.885 -5.551 12.646 .802 17.79 c 3.565 2.887 8.823 4.301 12.602 1.033 c -.339 3.063 1.663 6.037 3.977 7.913 c 6.44 5.218 11.79 3.435 16.657 -2.578 l 6.366 -7.855 l -32.376 -26.22 v 0 m 22.196 28.423 l -.656 .815 c -2.16 2.669 -4.549 3.861 -7.852 1.187 c -3.356 -2.718 -3.03 -4.949 -.534 -8.041 l .629 -.774 l 8.413 6.813 v 0" fill="#f7941d"/><path d="m 178.458 150.641 l -3.63 3.379 l -.342 -.344 l -4.647 4.654 l 1.841 1.837 l 3.057 -3.058 l 16.403 40.179 l 6.263 -5.841 l -3.49 -8.763 l 10.588 -9.871 l 8.336 4.241 l 6.343 -5.917 z m 12.634 25.612 l -6.974 -14.199 l .081 -.071 l 14.122 7.525 z" fill="#f7941d"/><path d="m 190.85 312.22 l 1.195 -.459 c 3.676 -1.411 7.73 -2.731 9.636 2.239 c 1.909 4.966 -1.276 6.771 -5.203 8.274 l -1.539 .59 l -4.089 -10.644 v 0 m -.918 19.429 l 11.48 -4.404 c 6.805 -2.611 10.689 -7.94 7.809 -15.443 c -1.616 -4.205 -5.354 -8.009 -10.093 -7.12 c 1.754 -2.42 1.491 -5.925 .441 -8.662 c -2.923 -7.607 -8.265 -8.755 -15.22 -6.087 l -9.094 3.489 l 14.677 38.227 v 0 m -5.076 -35.047 l .942 -.364 c 3.081 -1.181 5.658 -1.006 7.156 2.899 c 1.521 3.956 .191 5.686 -3.389 7.06 l -.891 .345 l -3.818 -9.94 v 0" fill="#f7941d"/><path d="m 219.99 304.808 l 3.751 -1.001 c 7.916 -2.122 11.294 -7.41 9.044 -15.804 c -2.403 -8.975 -8.585 -10.861 -16.71 -8.682 l -10.28 2.753 l 10.603 39.555 l 7.556 -2.023 l -3.964 -14.798 v 0 m -4.922 -18.359 l 1.335 -.355 c 4.216 -1.133 7.293 -1.17 8.655 3.918 c 1.38 5.144 -.767 6.789 -5.242 7.987 l -1.544 .413 l -3.204 -11.963 v 0" fill="#f7941d"/><path d="M 256.425 277.54 L 255.096 270.716 L 234.72 274.675 L 242.535 314.869 L 262.911 310.913 L 261.586 304.091 L 248.892 306.557 L 246.774 295.68 L 259.001 293.307 L 257.673 286.482 L 245.449 288.855 L 243.729 280.006 L 256.425 277.54 L 256.425 277.54" fill="#f7941d"/><path d="m 286.25 271.353 c -2.679 -2.545 -7.769 -3.902 -11.32 -3.593 c -6.734 .591 -11.186 6.483 -10.595 13.247 c .554 6.333 4.55 8.657 9.884 10.369 c 3.237 .973 7.16 1.826 7.528 6.048 c .276 3.139 -1.443 6.07 -4.627 6.343 c -3.34 .296 -6.397 -2.274 -7.731 -5.32 l -4.597 5.474 c 3.169 4.469 7.484 7.361 12.999 6.88 c 8.164 -.717 12.64 -6.94 11.927 -15.109 c -1.197 -13.689 -16.801 -9.439 -17.402 -16.308 c -.232 -2.652 1.983 -4.808 4.476 -5.026 c 2.599 -.227 4.62 .905 6.282 2.832 l 3.176 -5.837 v 0" fill="#f7941d"/><path d="M 307.469 274.965 L 315.557 275.107 L 315.682 268.156 L 291.681 267.735 L 291.56 274.686 L 299.647 274.826 L 299.055 308.821 L 306.878 308.958 L 307.469 274.965 L 307.469 274.965" fill="#f7941d"/><path d="m 316.863 300.793 c -2.601 -.18 -4.877 1.783 -5.059 4.436 c -.19 2.657 1.78 5.025 4.389 5.211 c 2.604 .181 4.879 -1.895 5.059 -4.55 c .192 -2.653 -1.788 -4.913 -4.389 -5.097 v 0" fill="#f7941d"/><path d="M 337.811 270.044 L 330.023 269.223 L 325.754 309.947 L 333.534 310.766 L 337.811 270.044 L 337.811 270.044" fill="#f7941d"/><path d="M 351.406 291.491 L 335.011 310.602 L 344.024 312.193 L 354.179 298.761 L 359.533 314.93 L 368.501 316.513 L 360.104 293.025 L 374.407 275.971 L 365.288 274.364 L 357.317 285.858 L 353.23 272.236 L 344.108 270.623 L 351.406 291.491 L 351.406 291.491" fill="#f7941d"/><path d="m 376.622 310.751 c -2.513 -.719 -5.138 .73 -5.867 3.29 c -.739 2.557 .693 5.285 3.199 6.005 c 2.51 .719 5.173 -.834 5.903 -3.394 c .736 -2.559 -.725 -5.178 -3.235 -5.901 v 0" fill="#f7941d"/><path d="M 398.995 301.925 L 398.896 301.89 L 404.8 285.662 L 397.447 282.982 L 383.447 321.465 L 390.794 324.145 L 397.091 306.842 L 397.195 306.875 L 402.948 328.568 L 412.403 332.009 L 404.841 305.789 L 425.607 293.236 L 416.551 289.94 L 398.995 301.925 L 398.995 301.925" fill="#f7941d"/><path d="m 421.268 327.311 c -2.416 -1.121 -5.279 -.126 -6.398 2.292 c -1.123 2.406 -.098 5.343 2.319 6.47 c 2.406 1.126 5.321 .026 6.442 -2.385 c 1.118 -2.415 .054 -5.25 -2.363 -6.377 v 0" fill="#f7941d"/><path d="m 253.802 524.089 h 1.227 c 8.285 0 10.496 -4.295 10.678 -7.544 h 7.059 v 43.569 h -8.594 v -30.007 h -10.371 v -6.018 z" fill="#f7941d"/><path d="m 288.351 538.882 c 0 -11.232 1.353 -15.463 6.262 -15.463 c 4.91 0 6.259 4.231 6.259 15.463 c 0 11.231 -1.349 15.525 -6.259 15.525 c -4.91 0 -6.262 -4.295 -6.262 -15.525 z m -8.836 0 c 0 15.282 4.85 22.399 15.098 22.399 c 10.248 0 15.096 -7.117 15.096 -22.399 c 0 -15.282 -4.848 -22.337 -15.096 -22.337 c -10.249 0 -15.098 7.055 -15.098 22.337 z" fill="#f7941d"/><path d="m 322.475 538.882 c 0 -11.232 1.349 -15.463 6.256 -15.463 c 4.913 0 6.265 4.231 6.265 15.463 c 0 11.231 -1.352 15.525 -6.265 15.525 c -4.908 0 -6.256 -4.295 -6.256 -15.525 z m -8.84 0 c 0 15.282 4.848 22.399 15.096 22.399 c 10.254 0 15.102 -7.117 15.102 -22.399 c 0 -15.282 -4.848 -22.337 -15.102 -22.337 c -10.249 0 -15.096 7.055 -15.096 22.337 z" fill="#f7941d"/><path d="m 156.126 84.995 l 1.032 -.662 c 6.982 -4.462 6.529 -9.269 4.931 -12.107 l 5.947 -3.803 l 23.472 36.708 l -7.238 4.626 l -16.165 -25.281 l -8.737 5.589 z" fill="#f7941d"/><path d="m 199.452 71.663 c -3.33 1.569 -6.254 -.169 -7.353 -2.499 c -1.361 -2.887 -.474 -5.753 3.023 -7.402 c 2.497 -1.178 5.443 -.26 6.856 2.737 c 1.334 2.83 .527 5.72 -2.526 7.164 z m 19.126 5.29 c -2.409 -5.104 -5.698 -6.609 -10.362 -6.713 c 2.378 -3.155 2.403 -6.699 .805 -10.084 c -2.566 -5.441 -9.173 -8.225 -17.333 -4.374 c -6.881 3.248 -10.352 9.841 -7.183 16.559 c 1.729 3.659 4.572 5.371 8.413 5.458 c -4.684 5.605 -2.221 10.822 -1.278 12.818 c 2.54 5.387 9.154 10.341 19.31 5.545 c 10.434 -4.927 9.984 -14.213 7.628 -19.209 z m -7.837 4.105 c 1.284 2.723 1.381 6.95 -2.672 8.861 c -3.551 1.676 -6.895 .2 -8.675 -3.574 c -2.016 -4.271 -.161 -7.388 2.669 -8.726 c 4.329 -2.041 7.37 .666 8.678 3.439 z" fill="#f7941d"/><path d="m 226.02 57.493 c -1.789 -5.999 1.717 -8.197 3.833 -8.827 c 4.235 -1.263 7.17 1.063 8.592 5.825 c 1.472 4.943 -1.091 7.946 -3.971 8.807 c -3.116 .927 -6.578 .489 -8.454 -5.805 z m -1.957 20.5 c 2.685 6.434 9.032 9.026 16.146 6.904 c 7.527 -2.245 13.614 -9.756 8.791 -25.932 c -1.756 -5.878 -6.635 -21.394 -21.102 -17.079 c -8.175 2.437 -12.812 9.007 -9.761 19.239 c 2.085 7 8.54 11.67 16.537 9.286 c 2.823 -.842 5.847 -2.51 6.888 -5.895 l .151 .082 c 2.553 8.78 .004 12.682 -3.41 13.696 c -2.525 .755 -4.72 .063 -6.048 -2.68 l -.017 -.058 z" fill="#f7941d"/><path d="m 261.745 48.697 c -.866 -6.199 2.935 -7.845 5.121 -8.152 c 4.375 -.612 6.928 2.131 7.616 7.052 c .713 5.105 -2.271 7.692 -5.25 8.107 c -3.22 .452 -6.577 -.505 -7.487 -7.007 z m -5.014 19.969 c 1.69 6.767 7.57 10.284 14.923 9.256 c 7.779 -1.085 14.927 -7.599 12.592 -24.314 c -.85 -6.079 -3.343 -22.15 -18.295 -20.062 c -8.448 1.182 -14.022 6.978 -12.543 17.555 c 1.012 7.234 6.686 12.818 14.952 11.667 c 2.917 -.408 6.158 -1.605 7.695 -4.794 l .141 .104 c 1.204 9.067 -1.908 12.535 -5.43 13.026 c -2.614 .367 -4.676 -.645 -5.58 -3.554 l -.009 -.063 z" fill="#f7941d"/><path d="m 312.776 61.433 l -17.121 -.125 l .061 -7.976 l 17.119 .126 z" fill="#f7941d"/><path d="m 321.881 38.946 l 1.218 .156 c 8.216 1.045 10.955 -2.936 11.546 -6.141 l 7.001 .894 l -5.507 43.222 l -8.522 -1.085 l 3.79 -29.769 l -10.286 -1.312 z" fill="#f7941d"/><path d="m 358.636 51.784 c 1.594 -6.057 5.73 -6.108 7.869 -5.544 c 4.272 1.123 5.567 4.637 4.304 9.443 c -1.313 4.985 -5.064 6.218 -7.973 5.455 c -3.145 -.828 -5.874 -3.005 -4.2 -9.354 z m -12.341 16.485 c -1.046 6.893 3.022 12.409 10.203 14.298 c 7.59 2.002 16.701 -1.253 21 -17.571 c 1.558 -5.934 5.463 -21.721 -9.134 -25.566 c -8.255 -2.17 -15.633 1.026 -18.354 11.353 c -1.857 7.061 1.224 14.408 9.298 16.532 c 2.844 .752 6.297 .897 8.946 -1.451 l .088 .15 c -2.39 8.827 -6.596 10.828 -10.035 9.92 c -2.553 -.667 -4.064 -2.4 -3.779 -5.43 l .021 -.061 z" fill="#f7941d"/><path d="m 393.756 62.874 c 2.485 -5.747 6.59 -5.173 8.619 -4.295 c 4.049 1.758 4.807 5.428 2.826 9.989 c -2.051 4.729 -5.944 5.383 -8.701 4.188 c -2.985 -1.296 -5.353 -3.856 -2.744 -9.882 z m -14.678 14.438 c -2.087 6.655 1.109 12.72 7.923 15.673 c 7.209 3.123 16.696 1.28 23.406 -14.205 c 2.439 -5.63 8.68 -20.653 -5.178 -26.651 c -7.826 -3.391 -15.598 -1.346 -19.847 8.455 c -2.9 6.705 -.966 14.426 6.694 17.746 c 2.7 1.17 6.095 1.837 9.066 -.082 l .061 .159 c -3.686 8.367 -8.149 9.709 -11.42 8.295 c -2.419 -1.05 -3.651 -2.985 -2.902 -5.941 l .021 -.058 z" fill="#f7941d"/><path d="m 426.795 79.122 c 3.318 -5.308 7.286 -4.126 9.157 -2.953 c 3.746 2.346 3.937 6.087 1.302 10.297 c -2.735 4.37 -6.684 4.43 -9.237 2.836 c -2.757 -1.726 -4.712 -4.616 -1.222 -10.18 z M 410.11 91.193 c -3.058 6.271 -.811 12.743 5.481 16.682 c 6.661 4.17 16.318 3.773 25.273 -10.532 c 3.262 -5.198 11.678 -19.113 -1.116 -27.125 c -7.227 -4.528 -15.227 -3.669 -20.893 5.381 c -3.876 6.19 -3.119 14.12 3.956 18.549 c 2.495 1.565 5.751 2.729 8.974 1.277 l .042 .166 c -4.91 7.722 -9.515 8.379 -12.538 6.492 c -2.232 -1.402 -3.161 -3.505 -1.98 -6.311 l .028 -.055 z" fill="#f7941d"/></g></svg>