<?xml version="1.0" encoding="UTF-8" standalone="no"?>
<svg
   xmlns:dc="http://purl.org/dc/elements/1.1/"
   xmlns:cc="http://creativecommons.org/ns#"
   xmlns:rdf="http://www.w3.org/1999/02/22-rdf-syntax-ns#"
   xmlns:svg="http://www.w3.org/2000/svg"
   xmlns="http://www.w3.org/2000/svg"
   xmlns:sodipodi="http://sodipodi.sourceforge.net/DTD/sodipodi-0.dtd"
   xmlns:inkscape="http://www.inkscape.org/namespaces/inkscape"
   width="1000"
   height="1000"
   viewBox="0 0 749.99997 749.99995"
   version="1.1"
   id="svg33"
   sodipodi:docname="Alianza Petrolera.svg"
   inkscape:version="1.0.1 (3bc2e813f5, 2020-09-07)">
  <metadata
     id="metadata37">
    <rdf:RDF>
      <cc:Work
         rdf:about="">
        <dc:format>image/svg+xml</dc:format>
        <dc:type
           rdf:resource="http://purl.org/dc/dcmitype/StillImage" />
        <dc:title></dc:title>
      </cc:Work>
    </rdf:RDF>
  </metadata>
  <sodipodi:namedview
     pagecolor="#ffffff"
     bordercolor="#666666"
     borderopacity="1"
     objecttolerance="10"
     gridtolerance="10"
     guidetolerance="10"
     inkscape:pageopacity="0"
     inkscape:pageshadow="2"
     inkscape:window-width="1920"
     inkscape:window-height="1017"
     id="namedview35"
     showgrid="false"
     units="px"
     inkscape:zoom="0.63375"
     inkscape:cx="666.66667"
     inkscape:cy="666.66667"
     inkscape:window-x="-8"
     inkscape:window-y="-8"
     inkscape:window-maximized="1"
     inkscape:current-layer="svg33" />
  <defs
     id="defs8">
    <clipPath
       id="clip1">
      <path
         d="M 0,0 H 167.82813 V 177.73828 H 0 Z m 0,0"
         id="path2" />
    </clipPath>
    <clipPath
       id="clip2">
      <path
         d="M 57.898438,2 H 110 V 177 H 57.898438 Z m 0,0"
         id="path5" />
    </clipPath>
  </defs>
  <g
     id="surface1"
     transform="matrix(4.0088351,0,0,4.0088351,38.607775,18.726508)">
    <path
       style="fill:#f5e628;fill-opacity:1;fill-rule:nonzero;stroke:none"
       d="m 163.94922,116.23828 c -7.44531,-26.062499 -22.44531,-56.796874 -10.05078,-91.585936 4.77734,-13.398438 5.95703,-16.382813 5.95703,-16.382813 0,0 -28.65234,24.945313 -75.945314,-6.328125 C 36.621094,33.214844 7.96875,8.269531 7.96875,8.269531 c 0,0 1.183594,2.984375 5.957031,16.382813 C 26.324219,59.441406 11.320313,90.175781 3.875,116.23828 c -7.445313,26.0625 6.703125,26.0625 40.582031,32.76172 33.878907,6.70313 39.453125,26.80859 39.453125,26.80859 0,0 5.582032,-20.10546 39.460934,-26.80859 33.87891,-6.69922 48.02735,-6.69922 40.57813,-32.76172"
       id="path10" />
    <g
       clip-path="url(#clip1)"
       clip-rule="nonzero"
       id="g14">
      <path
         style="fill:#191919;fill-opacity:1;fill-rule:nonzero;stroke:none"
         d="m 11.855469,13.175781 c 0.902344,2.476563 2.164062,5.964844 3.894531,10.828125 10.464844,29.371094 1.902344,55.652344 -5.65625,78.839844 -1.582031,4.85547 -3.074219,9.4375 -4.355469,13.92578 -2.390625,8.35938 -2.464843,13.9375 -0.234375,17.5586 3.6875,5.97656 14.441407,8.02343 30.722657,11.11718 2.710937,0.51172 5.578125,1.0586 8.605468,1.65625 25.410157,5.02735 35.441407,17.3711 39.082032,23.94141 3.636718,-6.57031 13.671875,-18.91406 39.082027,-23.94141 3.02344,-0.59765 5.89454,-1.14453 8.60157,-1.65625 16.28125,-3.09375 27.03906,-5.14062 30.72265,-11.11718 2.23047,-3.6211 2.15625,-9.19922 -0.23047,-17.5586 -1.28125,-4.48828 -2.77734,-9.07031 -4.35937,-13.92578 -7.55469,-23.1875 -16.12109,-49.46875 -5.65625,-78.839844 1.73437,-4.867187 2.99219,-8.355468 3.89453,-10.832031 -5.15625,2.859375 -14.06641,6.457031 -26.26562,6.460938 h -0.004 c -14.63281,0 -30.027345,-5.171875 -45.785157,-15.378907 -15.757813,10.203125 -31.160157,15.378907 -45.792969,15.378907 -12.199219,0 -21.109375,-3.597657 -26.265625,-6.457032 M 83.914063,177.73828 c -0.0039,0 -0.0039,0 -0.0078,0 -0.867187,-0.004 -1.625,-0.57422 -1.855469,-1.40625 -0.08594,-0.28906 -5.90625,-19.08984 -37.96875,-25.42969 -3.015625,-0.59765 -5.875,-1.14062 -8.578125,-1.65625 -17.90625,-3.40234 -28.714843,-5.45312 -33.292968,-12.88671 -2.882813,-4.67579 -2.945313,-11.04297 -0.199219,-20.65235 1.304687,-4.55859 2.808594,-9.17578 4.402344,-14.0625 C 13.777344,79.046875 22.125,53.429688 12.101563,25.300781 7.414063,12.136719 6.179688,9.011719 6.167969,8.984375 5.839844,8.152344 6.121094,7.207031 6.851563,6.691406 7.582031,6.175781 8.566406,6.222656 9.242188,6.8125 c 0.097656,0.085938 10.582031,8.945313 28.878906,8.945313 14.191406,0 29.238281,-5.191407 44.722656,-15.429688 0.648438,-0.429688 1.488281,-0.429688 2.136719,0 15.484371,10.238281 30.531251,15.429688 44.718751,15.429688 h 0.004 c 18.38671,0 28.77734,-8.859375 28.88281,-8.945313 0.67187,-0.589844 1.66015,-0.636719 2.39062,-0.121094 0.72657,0.515625 1.00782,1.460938 0.67969,2.292969 -0.0117,0.027344 -1.24219,3.152344 -5.93359,16.316406 -10.02344,28.128907 -1.67578,53.746094 5.6914,76.343749 1.58985,4.88672 3.09766,9.50391 4.39844,14.0625 2.74609,9.60938 2.68359,15.97656 -0.19531,20.65235 -4.58203,7.43359 -15.39063,9.48437 -33.29688,12.88671 -2.69922,0.51563 -5.55859,1.0586 -8.57422,1.65625 -32.148434,6.35547 -37.914059,25.24219 -37.968746,25.42969 -0.238281,0.83203 -1,1.40625 -1.863281,1.40625"
         id="path12" />
    </g>
    <g
       clip-path="url(#clip2)"
       clip-rule="nonzero"
       id="g18">
      <path
         style="fill:#191919;fill-opacity:1;fill-rule:nonzero;stroke:none"
         d="m 163.94922,117.18359 c -7.44531,-26.062496 -22.44531,-56.796871 -10.05078,-91.585934 4.77734,-13.402343 5.95703,-16.382812 5.95703,-16.382812 0,0 -28.65234,24.945312 -75.945314,-6.328125 C 36.621094,34.160156 7.96875,9.214844 7.96875,9.214844 c 0,0 1.183594,2.980469 5.957031,16.382812 C 26.324219,60.386719 11.320313,91.121094 3.875,117.18359 c -7.445313,26.0625 6.703125,26.0625 40.582031,32.76172 33.878907,6.70313 39.453125,26.8086 39.453125,26.8086 0,0 5.582032,-20.10547 39.460934,-26.8086 33.87891,-6.69922 48.02735,-6.69922 40.57813,-32.76172"
         id="path16" />
    </g>
    <path
       style="fill:#191919;fill-opacity:1;fill-rule:nonzero;stroke:none"
       d="M 41.425781,54.171875 39.160156,43.097656 C 38.511719,40 37.867188,36.128906 37.328125,33.027344 H 37.21875 c -0.539062,3.101562 -1.078125,7.050781 -1.671875,10.070312 l -2.15625,11.074219 z M 32.203125,63 29.613281,76.394531 H 21.089844 L 32.203125,24.203125 H 42.992188 L 54.265625,76.394531 H 45.417969 L 42.613281,63"
       id="path20" />
    <path
       style="fill:#191919;fill-opacity:1;fill-rule:nonzero;stroke:none"
       d="m 127.86328,107.96094 c 0.70313,0.23047 1.56641,0.30859 2.75391,0.30859 4.36719,0 7.0664,-3.17578 7.0664,-8.51953 0,-4.800781 -2.32031,-7.664062 -6.42187,-7.664062 -1.67188,0 -2.80469,0.230468 -3.39844,0.460937 z m -8.14453,-23.699221 c 2.53516,-0.617188 6.09766,-1.082031 11.11328,-1.082031 5.07031,0 8.6836,1.390625 11.11328,4.179687 2.31641,2.636719 3.88282,6.96875 3.88282,12.082031 0,5.109374 -1.1875,9.445314 -3.34375,12.390624 -2.80469,3.79297 -6.96094,5.49609 -11.8125,5.49609 -1.08204,0 -2.05079,-0.0742 -2.8086,-0.23046 v 18.66406 h -8.14453"
       id="path22" />
    <path
       style="fill:#f5e628;fill-opacity:1;fill-rule:nonzero;stroke:none"
       d="m 83.882813,58.703125 c 0,0 -6.5,-1.933594 -3.6875,-8.609375 2.808593,-6.683594 3.511718,-4.746094 2.808593,-7.910156 0,0 2.773438,1.582031 2.878907,8.261719 0.109375,6.675781 0.988281,7.730468 -2,8.257812"
       id="path24" />
    <path
       style="fill:#f5e628;fill-opacity:1;fill-rule:nonzero;stroke:none"
       d="m 81.816406,58.703125 c 0,0 -5.273437,-1.582031 -3.34375,-8.257812 0,0 -4.566406,9.488281 3.34375,8.257812"
       id="path26" />
    <path
       style="fill:#f5e628;fill-opacity:1;fill-rule:nonzero;stroke:none"
       d="m 87.574219,56.945313 c 0,0 0.894531,-7.03125 -1.488281,-11.421875 0,0 9.21875,5.621093 1.488281,11.421875"
       id="path28" />
    <path
       style="fill:#ffffff;fill-opacity:1;fill-rule:nonzero;stroke:none"
       d="m 85.257813,116.41406 v -2.16797 h 12.714843 l 3.257814,25.09375 z M 93.054688,82.15625 H 85.257813 V 68.445313 Z m -1.5,-17.300781 1.59375,12.242187 L 86.1875,64.855469 Z m 5.4375,46.812501 H 85.257813 V 88.792969 Z M 94.140625,84.738281 96.871094,105.77344 86.082031,84.738281 Z M 82.570313,82.15625 h -7.796875 l 7.796875,-13.710937 z m 0,29.51172 H 70.832031 L 82.570313,88.792969 Z m 0,4.74609 -15.976563,22.92578 3.261719,-25.09375 H 82.570313 Z M 73.6875,84.738281 h 8.058594 L 70.957031,105.77344 Z m 2.582031,-19.882812 h 5.371094 L 74.679688,77.097656 Z M 93.96875,63.398438 c -0.08203,-0.644532 -0.628906,-1.125 -1.277344,-1.125 h -7.433593 v -1.636719 h -2.6875 v 1.636719 h -7.433594 c -0.648438,0 -1.195313,0.480468 -1.28125,1.125 l -10.5,80.847652 c -0.07813,0.58594 0.257812,1.15235 0.8125,1.36719 0.152344,0.0586 0.308594,0.0898 0.464844,0.0898 0.414062,0 0.816406,-0.19922 1.0625,-0.55469 l 16.875,-24.22266 v 4.91406 h 2.6875 v -4.91015 l 16.874997,24.21875 c 0.2461,0.35547 0.64453,0.55469 1.0586,0.55469 0.15625,0 0.3125,-0.0312 0.46484,-0.0898 0.55469,-0.21484 0.89453,-0.78125 0.81641,-1.36719"
       id="path30" />
  </g>
</svg>
