<svg height="1000" viewBox="0 0 1000 1000" width="1000" xmlns="http://www.w3.org/2000/svg"><g transform="matrix(1.5412474 0 0 1.5412474 34.908414 33.204395)"><path d="m 301.763 603.064 c -34.044 -31.93 -53.914 -38.056 -75.447 -39.578 c -27.49 -1.944 -61.839 -10.891 -90.135 -23.172 C 102.957 525.892 77.364 506.73 57.948 484.24 C 41.263 464.913 26.903 438.095 20.477 408.233 C 16.736 390.854 15.567 371.166 17.33 352.819 C 20.307 321.801 28.286 293.746 40.766 269.936 C 60.035 233.173 87.89 206.756 85.741 162.971 C 85.219 135.767 62.02 114.781 36.655 87.067 v 0 L 105.242 2.838 v 0 c 10.729 5.491 22.478 11.449 33.346 15.629 c 23.256 8.943 45.365 13.189 66.233 13.033 c 33.363 -.252 64.723 -10.817 96.943 -30.032 c 32.22 19.215 63.58 29.78 96.942 30.032 c 20.868 .158 42.977 -4.09 66.234 -13.033 c 10.868 -4.18 22.615 -10.138 33.342 -15.628 v 0 l 68.592 84.231 v 0 c -25.364 27.712 -48.564 48.698 -49.085 75.902 c -2.148 43.785 25.703 70.202 44.97 106.965 c 12.484 23.81 20.462 51.864 23.438 82.883 c 1.762 18.347 .592 38.035 -3.146 55.414 c -6.428 29.862 -20.784 56.683 -37.471 76.007 c -19.418 22.49 -45.009 41.652 -78.232 56.074 c -28.297 12.281 -62.648 21.232 -90.136 23.172 c -21.536 1.522 -41.404 7.648 -75.449 39.577 z" fill="#fff" stroke="#2e3192" stroke-miterlimit="20" stroke-width="11.6655"/><path d="m 47.078 418.222 c -5.835 -18.318 -8.364 -38.71 -6.833 -61.215 c 1.462 -21.526 6.69 -42.948 14.909 -63.162 c 10.144 -24.951 26.17 -43.589 38.303 -66.658 c 10.537 -20.034 16.086 -41.459 15.648 -63.217 c -.521 -26.029 -12.271 -46.804 -41.493 -77.984 v 0 l 43.934 -54.094 v 0 c 31.738 15.472 62.762 23.062 93.387 22.9 c 32.599 -.171 64.748 -9.128 96.831 -26.713 c 32.084 17.586 64.233 26.542 96.831 26.713 c 30.624 .162 61.646 -7.428 93.386 -22.9 v 0 l 43.935 54.094 v 0 c -25.286 26.983 -37.487 46.173 -40.655 67.719 v 0 z" fill="#ee3124"/><path d="M 301.763 572.22 C 280.27 553.601 256.828 542.937 231.848 540.591 C 172.34 535.003 115.009 512.625 78.724 472.71 C 68.085 461.008 59.259 447.798 52.713 433.059 v 0 l 441.83 -260.768 v 0 c .939 18.888 6.337 37.423 15.527 54.897 c 12.131 23.069 28.159 41.707 38.303 66.658 c 8.219 20.213 13.443 41.635 14.906 63.162 c 3.272 48.103 -11.996 86.576 -38.481 115.703 c -36.28 39.915 -93.612 62.293 -153.12 67.881 c -24.98 2.345 -48.425 13.009 -69.915 31.628 z" fill="#2e3192"/><path d="m 150.493 213.663 c 3.78 -1.687 8.21 -6.083 8.21 -9.028 v 0 v -101.26 v 0 c 0 -4.254 -3.583 -6.842 -8.21 -9.675 v 0 h 26.264 v 0 c 13.462 0 23.001 .873 28.584 2.607 c 5.574 1.73 10.492 4.63 14.717 8.679 c 5.478 5.268 9.642 11.98 12.494 20.188 c 2.848 8.208 4.265 17.581 4.265 28.062 c 0 10.511 -1.417 20.953 -4.265 29.162 c -2.852 8.208 -7.008 14.927 -12.494 20.185 c -4.174 4.004 -8.953 6.864 -14.333 8.57 c -5.374 1.704 -13.705 2.551 -24.985 2.551 v 0 h -3.982 z m 32.108 -23.937 h 3.964 v 0 c 9.277 0 15.555 -5.284 19.827 -10.519 c 4.257 -5.218 6.388 -14.575 6.388 -25.972 c 0 -11.368 -2.123 -19.716 -6.388 -25.012 c -4.264 -5.295 -10.551 -11.004 -19.827 -11.004 v 0 h -3.964 z m 96.595 145.055 c 4.719 -2.269 8.223 -6.539 8.223 -9.812 v 0 v -98.755 v 0 c 0 -4.7 -3.55 -7.769 -8.223 -10.367 v 0 l 45.05 .008 v 0 c -4.673 2.599 -8.222 5.666 -8.222 10.369 v 0 l .081 98.918 v 0 c 0 3.27 3.505 7.543 8.225 9.813 v 0 z M 476.45 453.633 h -34.182 l -9.875 -78.058 l -20.482 78.058 h -20.406 l -20.402 -77.976 l -9.85 77.976 h -34.268 v 0 c 3.089 -2.038 7.186 -5.081 7.787 -9.163 v 0 L 349.55 344.41 v 0 c .61 -4.114 -4.73 -7.669 -7.824 -9.712 v 0 h 39.406 l 20.589 77.505 l 20.56 -77.505 h 39.599 v 0 c -4.802 3.171 -8.334 6.019 -7.808 9.609 v 0 l 14.47 98.797 v 0 c .709 4.827 2.631 6.86 7.908 10.529 z" fill="#fff"/></g></svg>