<?xml version="1.0" encoding="UTF-8" standalone="no"?>
<svg
   xmlns:dc="http://purl.org/dc/elements/1.1/"
   xmlns:cc="http://creativecommons.org/ns#"
   xmlns:rdf="http://www.w3.org/1999/02/22-rdf-syntax-ns#"
   xmlns:svg="http://www.w3.org/2000/svg"
   xmlns="http://www.w3.org/2000/svg"
   xmlns:sodipodi="http://sodipodi.sourceforge.net/DTD/sodipodi-0.dtd"
   xmlns:inkscape="http://www.inkscape.org/namespaces/inkscape"
   version="1.1"
   id="Layer_1"
   x="0px"
   y="0px"
   viewBox="0 0 1000 1000"
   xml:space="preserve"
   sodipodi:docname="Once Caldas S.A.svg"
   width="1000"
   height="1000"
   inkscape:version="1.0.1 (3bc2e813f5, 2020-09-07)"><metadata
   id="metadata23"><rdf:RDF><cc:Work
       rdf:about=""><dc:format>image/svg+xml</dc:format><dc:type
         rdf:resource="http://purl.org/dc/dcmitype/StillImage" /><dc:title /></cc:Work></rdf:RDF></metadata><defs
   id="defs21" /><sodipodi:namedview
   pagecolor="#ffffff"
   bordercolor="#666666"
   borderopacity="1"
   objecttolerance="10"
   gridtolerance="10"
   guidetolerance="10"
   inkscape:pageopacity="0"
   inkscape:pageshadow="2"
   inkscape:window-width="1920"
   inkscape:window-height="1017"
   id="namedview19"
   showgrid="false"
   inkscape:zoom="0.80557995"
   inkscape:cx="500"
   inkscape:cy="500"
   inkscape:window-x="-8"
   inkscape:window-y="-8"
   inkscape:window-maximized="1"
   inkscape:current-layer="Layer_1"
   inkscape:document-rotation="0" />








<g
   id="g886"
   transform="matrix(1.5903361,0,0,1.5903361,8.5853499,17.674916)"><rect
     x="231.248"
     y="9.2130003"
     style="fill:#ffffff"
     width="155.504"
     height="390.828"
     id="rect2" /><rect
     x="75.539001"
     y="9.2130003"
     style="fill:#348c41"
     width="155.71001"
     height="390.828"
     id="rect4" /><rect
     x="386.75201"
     y="9.2130003"
     style="fill:#ee3124"
     width="155.70799"
     height="390.828"
     id="rect6" /><path
     style="fill:#ffffff"
     d="M 363.013,280.099 V 130.194 c 30.893,0 47.998,4.976 67.278,31.619 2.488,3.525 4.253,5.494 11.817,5.494 l 21.877,-0.104 c 13.581,0 15.239,-5.805 10.158,-16.793 C 463.57,130.401 450.508,115.265 433.404,104.381 416.298,93.392 398.674,87.586 377.318,87.586 l -118.597,0.103 c -14.723,0 -28.509,2.801 -41.158,8.19 -12.646,5.495 -24.258,13.684 -34.728,24.57 -10.989,11.299 -19.282,24.051 -25.087,38.357 -5.702,14.203 -8.605,29.236 -8.605,44.992 0,33.589 10.471,61.788 31.411,84.491 21.046,22.807 46.963,34.21 77.855,34.21 l 93.095,0.105 c 5.703,-0.105 27.162,-0.105 27.782,-0.105 20.53,-0.309 37.528,-6.116 54.118,-16.689 17.104,-10.99 30.166,-25.918 40.739,-46.03 5.081,-10.885 3.423,-16.69 -10.158,-16.795 h -21.877 c -7.565,0 -9.329,1.971 -11.817,5.392 -19.28,26.746 -36.386,31.722 -67.278,31.722 z"
     id="path8" /><path
     style="fill:#21409a"
     d="M 70.931,4.606 V 404.65 H 547.07 V 4.606 Z m 466.921,9.215 c 0,8.891 0,372.722 0,381.61 -8.941,0 -448.764,0 -457.705,0 0,-8.889 0,-372.72 0,-381.61 8.942,0 448.764,0 457.705,0 z"
     id="path10" /><path
     style="fill:#21409a"
     d="m 70.931,416.583 v 101.539 c 0,12.569 5.092,24.563 14.336,33.775 9.891,9.846 23.732,15.466 37.978,15.411 h 134.75 c 21.166,0.356 39.798,17.35 47.138,28.684 l 3.867,5.972 3.867,-5.972 c 6.317,-9.751 24.314,-28.299 47.215,-28.684 h 134.691 c 14.229,0.055 28.07,-5.565 37.959,-15.411 9.244,-9.213 14.337,-21.206 14.337,-33.775 V 416.583 Z"
     id="path12" /><polygon
     style="fill:#ffffff"
     points="273.752,537.196 287.334,495.521 251.878,469.809 295.628,469.809 309,428.137 322.371,469.809 366.123,469.809 330.668,495.521 344.246,537.196 309,511.282 "
     id="polygon14"
     transform="translate(-56.370024,5.817836)" /><path
     style="fill:#21409a"
     d="m 296.765,284.868 c 1.659,-0.83 3.318,-1.659 4.978,-2.487 -0.517,-0.519 -1.036,-1.037 -1.556,-1.557 -1.14,-1.244 -2.28,-2.487 -3.422,-3.834 v -40.948 c 3.836,11.402 10.059,21.665 18.349,30.789 0.935,0.932 1.868,1.969 2.802,2.901 1.039,-1.037 1.968,-1.969 2.901,-3.109 15.654,-17.105 23.429,-38.151 23.429,-63.031 0,-23.326 -7.983,-43.333 -24.154,-60.23 -0.725,-0.725 -1.45,-1.555 -2.176,-2.282 -0.934,0.934 -1.867,1.866 -2.696,2.799 -8.396,9.02 -14.618,19.075 -18.455,29.961 v -39.808 c 1.557,-1.867 3.318,-3.732 5.082,-5.494 -1.763,-0.934 -3.422,-1.867 -5.082,-2.696 v -21.563 c 1.454,0.623 3.011,1.141 4.565,1.762 5.699,2.489 11.197,5.392 16.378,8.916 5.183,-3.524 10.572,-6.428 16.275,-8.916 11.817,-4.976 24.672,-7.463 38.463,-7.463 19.904,0 37.734,4.873 53.596,14.824 15.864,9.952 28.405,24.052 37.629,42.297 h -23.633 c -8.918,-12.751 -18.971,-22.186 -30.066,-28.199 -10.985,-6.012 -23.638,-9.018 -37.734,-9.018 -14.096,0 -26.744,3.421 -38.254,10.16 10.161,10.16 17.728,21.563 22.808,34.21 5.079,12.751 7.673,26.333 7.673,41.053 0,14.513 -2.176,27.783 -6.637,40.016 -4.352,12.129 -10.884,23.221 -19.696,33.173 -1.449,1.659 -3.005,3.317 -4.56,4.874 11.504,6.738 24.36,10.158 38.666,10.158 13.789,0 26.227,-2.903 37.424,-8.811 11.092,-5.805 20.839,-14.721 29.03,-26.436 h 23.322 c -9.121,17.52 -21.355,30.893 -36.7,40.431 -15.443,9.539 -32.653,14.307 -51.728,14.307 -21.357,0 -40.119,-5.495 -56.29,-16.275 -4.252,2.902 -8.813,5.39 -13.479,7.464 -2.282,1.14 -4.664,2.072 -7.051,2.902 v -20.84 z M 181.281,204.111 c 0,24.983 7.878,45.924 23.74,62.822 15.757,16.795 35.248,25.191 58.47,25.191 12.128,0 23.22,-2.383 33.275,-7.256 v 20.837 c -10.78,3.939 -22.39,5.909 -34.623,5.909 -28.613,0 -52.767,-10.367 -72.257,-30.996 -19.489,-20.631 -29.131,-46.341 -29.131,-76.715 0,-14.307 2.592,-27.991 7.982,-40.845 5.392,-12.96 13.063,-24.569 23.222,-34.833 9.745,-9.849 20.526,-17.208 32.345,-22.289 11.714,-4.873 24.465,-7.36 38.149,-7.36 12.232,0 23.636,1.865 34.313,5.701 v 21.563 c -10.571,-5.184 -22.081,-7.775 -34.623,-7.775 -9.226,0 -18.144,1.659 -26.644,4.872 -8.603,3.318 -16.483,8.087 -23.635,14.307 -9.538,8.189 -17.003,18.35 -22.497,30.27 -5.392,11.924 -8.086,24.155 -8.086,36.597 z m 115.484,72.878 v -40.948 c -3.417,-9.746 -5.077,-20.424 -5.077,-31.93 0,-10.782 1.659,-20.837 5.077,-30.272 v -39.808 c -7.67,8.812 -13.682,18.452 -17.932,29.027 -5.289,12.854 -7.982,26.435 -7.982,40.845 0,28.819 8.603,53.286 25.914,73.086 z"
     id="path16" /><polygon
     style="fill:#ffffff"
     points="322.371,469.809 366.123,469.809 330.668,495.521 344.246,537.196 309,511.282 273.752,537.196 287.334,495.521 251.878,469.809 295.628,469.809 309,428.137 "
     id="polygon14-3"
     transform="translate(-170.61502,5.817836)" /><polygon
     style="fill:#ffffff"
     points="309,428.137 322.371,469.809 366.123,469.809 330.668,495.521 344.246,537.196 309,511.282 273.752,537.196 287.334,495.521 251.878,469.809 295.628,469.809 "
     id="polygon14-9"
     transform="translate(57.874976,5.817836)" /><polygon
     style="fill:#ffffff"
     points="309,428.137 322.371,469.809 366.123,469.809 330.668,495.521 344.246,537.196 309,511.282 273.752,537.196 287.334,495.521 251.878,469.809 295.628,469.809 "
     id="polygon14-94"
     transform="translate(172.11998,5.817836)" /></g></svg>
