<?xml version="1.0" encoding="UTF-8" standalone="no"?>
<svg
   xmlns:dc="http://purl.org/dc/elements/1.1/"
   xmlns:cc="http://creativecommons.org/ns#"
   xmlns:rdf="http://www.w3.org/1999/02/22-rdf-syntax-ns#"
   xmlns:svg="http://www.w3.org/2000/svg"
   xmlns="http://www.w3.org/2000/svg"
   xmlns:sodipodi="http://sodipodi.sourceforge.net/DTD/sodipodi-0.dtd"
   xmlns:inkscape="http://www.inkscape.org/namespaces/inkscape"
   width="1000"
   height="1000"
   viewBox="0 0 749.99998 750.00002"
   version="1.1"
   id="svg59"
   sodipodi:docname="Ãguilas Doradas Rionegro.svg"
   inkscape:version="1.0.1 (3bc2e813f5, 2020-09-07)">
  <metadata
     id="metadata65">
    <rdf:RDF>
      <cc:Work
         rdf:about="">
        <dc:format>image/svg+xml</dc:format>
        <dc:type
           rdf:resource="http://purl.org/dc/dcmitype/StillImage" />
        <dc:title></dc:title>
      </cc:Work>
    </rdf:RDF>
  </metadata>
  <defs
     id="defs63" />
  <sodipodi:namedview
     pagecolor="#ffffff"
     bordercolor="#666666"
     borderopacity="1"
     objecttolerance="10"
     gridtolerance="10"
     guidetolerance="10"
     inkscape:pageopacity="0"
     inkscape:pageshadow="2"
     inkscape:window-width="1920"
     inkscape:window-height="1017"
     id="namedview61"
     showgrid="false"
     units="px"
     inkscape:zoom="0.845"
     inkscape:cx="500"
     inkscape:cy="500"
     inkscape:window-x="-8"
     inkscape:window-y="-8"
     inkscape:window-maximized="1"
     inkscape:current-layer="svg59" />
  <g
     id="surface1"
     transform="matrix(1.694931,0,0,1.694931,18.750004,40.085604)">
    <path
       style="fill:#877038;fill-opacity:1;fill-rule:nonzero;stroke:none"
       d="M 377.57813,0.00390625 282.55078,27.058594 210.19141,3.78125 137.82031,27.058594 42.792969,0.00390625 45.3125,81.171875 0,54.117188 21.089844,91.566406 3.160156,91.871094 48.457031,138.44141 H 3.777344 l 15.730469,139.71093 h 37.761718 l 0.320313,14.77735 152.601566,102.26172 152.60547,-102.26172 0.30859,-14.77735 h 37.75781 l 15.73438,-139.71093 h -44.6836 l 45.3125,-46.570316 -17.92968,-0.304688 21.07421,-37.449218 -45.30859,27.054687"
       id="path2" />
    <path
       style="fill:#171719;fill-opacity:1;fill-rule:nonzero;stroke:none"
       d="m 209.33984,349.13672 -0.0156,0.12109 -0.082,-0.0508 -0.0859,0.0508 -0.0117,-0.12109 -101.14062,-67.21094 85.58984,44.04688 15.73047,-14.23828 15.56641,14.23828 85.58984,-44.04688 z m 77.75782,-82.56641 C 261.19531,305.98047 214.96094,308.03516 209.55078,308 v -0.0117 c 0,0 -0.11328,0.004 -0.30859,0.004 -0.19531,0 -0.29297,-0.004 -0.29297,-0.004 L 208.93359,308 c -5.39843,0.0352 -51.64453,-2.01953 -77.53125,-41.42969 l -43.605465,0.60157 v 7.97265 l 121.445315,81.6836 121.45703,-81.6836 v -7.97265"
       id="path4" />
    <path
       style="fill:#171719;fill-opacity:1;fill-rule:nonzero;stroke:none"
       d="M 148.76953,265.71875 C 168,295.14063 204.44531,295.96094 208.99219,295.9375 v -0.0117 c 0,0 0.082,0 0.25,0.008 0.16797,-0.008 0.26562,-0.008 0.26562,-0.008 v 0.0117 c 4.53125,0.0234 40.9336,-2.05469 60.21875,-30.21875"
       id="path6" />
    <path
       style="fill:#171719;fill-opacity:1;fill-rule:nonzero;stroke:none"
       d="M 293.71094,57.65625 330.75781,44.449219 312.8125,77.242188 Z M 106.49609,77.242188 88.550781,44.449219 125.61328,57.65625 Z M 283.25,59.746094 209.73047,38.699219 137.16406,59.746094 85.8125,42.050781 140.33984,145.76172 c 0,0 26.42969,-28.63281 69.39063,-29.28906 42.97656,0.65625 69.41016,28.34375 69.41016,28.34375 L 333.66406,42.050781"
       id="path8" />
    <path
       style="fill:#171719;fill-opacity:1;fill-rule:nonzero;stroke:none"
       d="m 157.77734,149.46094 103.21094,-0.32031 c 0,0 -19.66406,-18.71875 -50.1914,-18.40625 0,0 -27.84766,-0.78125 -53.01954,18.72656"
       id="path10" />
    <path
       style="fill:#171719;fill-opacity:1;fill-rule:nonzero;stroke:none"
       d="M 373.76172,252.34766 H 46.527344 L 36.457031,162.98438 H 384.13672 Z M 141.75,263.04688 h 133.98828 c -24.47265,35.51953 -61.67187,35.58984 -66.70703,35.5625 v -0.0117 c 0,0 -0.0977,0.004 -0.27734,0.0117 -0.19532,-0.008 -0.29297,-0.0117 -0.29297,-0.0117 v 0.0117 c -5.02344,0.0273 -42.23438,-0.043 -66.71094,-35.5625 M 334.74219,276.89063 209.19922,360.99609 83.65625,276.89063 v -13.21485 l 50.34766,-0.6289 c 26.97656,41.04687 69.23828,42.20703 74.875,42.17187 v -0.0156 c 0,0 0.10937,0.008 0.32031,0.008 0.21094,0 0.30859,-0.008 0.30859,-0.008 l 0.0156,0.0156 c 5.62109,0.0352 47.89844,-1.125 74.875,-42.17187 l 50.34375,0.6289 z M 127.89062,151.97656 75.964844,152.28516 70.929688,44.992188 Z m 141.09376,0 H 149.57031 c 25.95313,-25.01562 60.41407,-25.01562 60.41407,-25.01562 37.28125,0 59,25.01562 59,25.01562 m 79.78515,-106.984372 -5.03515,107.292972 -51.91407,-0.3086 z m -211.99609,10.699218 72.95703,-21.3125 72.96094,21.3125 59.47656,-20.765625 -61.82813,117.988279 c 0,0 -25.03125,-31.35156 -70.60937,-32.0664 -45.5625,0.71484 -70.59375,32.0664 -70.59375,32.0664 L 77.308594,34.925781 Z m 261.96484,96.593754 h -45.3125 L 360.97656,18.246094 279.16406,40.902344 210.5,19.679688 l -0.0703,-0.171875 -0.23828,0.07422 -0.23828,-0.07422 -0.082,0.171875 -68.66796,21.222656 -81.808599,-22.65625 7.550782,134.039066 h -45.3125 l 10.699218,109.5039 h 41.535157 l -0.628907,21.39453 136.953129,92.85547 136.9414,-92.85547 -0.6289,-21.39453 h 41.53515"
       id="path12" />
    <path
       style="fill:#171719;fill-opacity:1;fill-rule:nonzero;stroke:none"
       d="M 74.636719,59.230469 122.77344,149.22266 H 79.042969"
       id="path14" />
    <path
       style="fill:#171719;fill-opacity:1;fill-rule:nonzero;stroke:none"
       d="m 344.91016,59.230469 -48.13672,89.992191 h 43.73047"
       id="path16" />
    <path
       style="fill:#877038;fill-opacity:1;fill-rule:nonzero;stroke:none"
       d="m 197.32813,68.320313 c 0,0 1.59375,-6.320313 8.85156,-2.308594 0,0 2.76953,-1.886719 5.77734,1.183594 0,0 4.06641,4.777343 6.90625,4.777343 0,0 0.11328,1.300782 1.0625,1.71875 0,0 -1.9414,0.992188 -7.14453,-3.546875 0,0 -1.70703,-1.59375 -3.41406,-1.355468 0,0 1.46875,1.355468 2.23828,2.59375 0,0 1.46875,2.125 4.36328,2.246093 0,0 -3.42578,1.417969 -5.53906,-1.953125 0,0 -2.89453,-4.011718 -6.13672,-3.949218 0,0 2.53125,2.125 1.23047,5.308593 0,0 -0.82813,2.480469 -3.94531,1.832032 0,0 4.01562,-0.882813 2,-3.777344 0,0 -2.82422,-3.894531 -6.25,-2.769531"
       id="path18" />
    <path
       style="fill:#877038;fill-opacity:1;fill-rule:nonzero;stroke:none"
       d="m 206.65625,70.851563 c 0,0 0.64453,3.957031 -0.30859,5.902343 0,0 2.07031,2.832032 2.48828,3.65625 0,0 2.35156,-2.480468 3.94531,-3.65625 0,0 -3.89062,-2.300781 -5.13281,-5.316406 0,0 3.66406,4.199219 9.80469,3.777344 0,0 -5.97266,4.253906 -7.625,10.390625 0,0 -1.52344,-5.3125 -5.95704,-9.328125 0,0 2.60157,-0.824219 2.78516,-5.425781"
       id="path20" />
    <path
       style="fill:#877038;fill-opacity:1;fill-rule:nonzero;stroke:none"
       d="m 191.95703,81.648438 c 0,0 -2.23828,2.949218 -4.94922,3.832031 0,0 1.83203,0.53125 3.53907,0.183594 0,0 -5.02344,3.425781 -11.45704,-1.304688 0,0 6.5586,0.773438 12.86719,-2.710937"
       id="path22" />
    <path
       style="fill:#877038;fill-opacity:1;fill-rule:nonzero;stroke:none"
       d="m 183.17578,88.492188 c 0,0 7.84375,-1 10.79297,-3.597657 0,0 -1.12891,2.363282 -4.19531,3.832032 0,0 2.76953,0.363281 4.78515,-0.296875 0,0 -5.13281,4.015625 -11.38281,0.0625"
       id="path24" />
    <path
       style="fill:#877038;fill-opacity:1;fill-rule:nonzero;stroke:none"
       d="m 187.77344,92.03125 c 0,0 6.07031,-0.648437 8.91015,-3.539062 0,0 -0.65625,2.183593 -2.07031,3.363281 0,0 1.2461,0.414062 2.29297,0.175781 0,0 -4.06641,3.601563 -9.13281,0"
       id="path26" />
    <path
       style="fill:#877038;fill-opacity:1;fill-rule:nonzero;stroke:none"
       d="m 228.65234,81.648438 c 0,0 2.23829,2.949218 4.95313,3.832031 0,0 -1.82031,0.53125 -3.53906,0.183594 0,0 5.01953,3.425781 11.45312,-1.304688 0,0 -6.55859,0.773438 -12.86719,-2.710937"
       id="path28" />
    <path
       style="fill:#877038;fill-opacity:1;fill-rule:nonzero;stroke:none"
       d="m 237.44922,88.492188 c 0,0 -7.84375,-1 -10.79688,-3.597657 0,0 1.1211,2.363282 4.1836,3.832032 0,0 -2.76953,0.363281 -4.78125,-0.296875 0,0 5.1289,4.015625 11.39453,0.0625"
       id="path30" />
    <path
       style="fill:#877038;fill-opacity:1;fill-rule:nonzero;stroke:none"
       d="m 232.84766,92.03125 c 0,0 -6.08203,-0.648437 -8.90625,-3.539062 0,0 0.64062,2.183593 2.05468,3.363281 0,0 -1.23046,0.414062 -2.29296,0.175781 0,0 4.07031,3.601563 9.14453,0"
       id="path32" />
    <path
       style="fill:#877038;fill-opacity:1;fill-rule:nonzero;stroke:none"
       d="m 189.59375,77.523438 c 0,0 -9.78906,3.539062 -18.64453,-0.238282 0,0 5.26172,7.726563 16.35156,4.894532 0,0 -3.90234,0.476562 -5.66406,-1.0625 0,0 6.96484,0.355468 7.95703,-3.59375"
       id="path34" />
    <path
       style="fill:#877038;fill-opacity:1;fill-rule:nonzero;stroke:none"
       d="m 231.12891,77.523438 c 0,0 9.80468,3.539062 18.64062,-0.238282 0,0 -5.24609,7.726563 -16.33203,4.894532 0,0 3.88672,0.476562 5.66406,-1.0625 0,0 -6.96484,0.355468 -7.97265,-3.59375"
       id="path36" />
    <path
       style="fill:#877038;fill-opacity:1;fill-rule:nonzero;stroke:none"
       d="m 209.96875,108.91797 -0.19531,-0.36328 c 0,0 -5.65235,-8.16797 0.30469,-16.781252 l 0.0859,0.183593 c 5.27344,8.492189 -0.19531,16.960939 -0.19531,16.960939 m 54.71094,-52.050782 c -3.65235,5.433593 -16.99219,7.320312 -16.99219,7.320312 3.77344,-3.542969 3.42578,-7.433594 3.42578,-7.433594 -7.90234,11.679688 -24.41797,14.042969 -24.41797,14.042969 7.42578,-7.902344 14.26563,-8.964844 14.26563,-8.964844 -0.69922,1.648438 -5.0625,5.070313 -5.0625,5.070313 11.78906,-5.546875 11.91406,-13.8125 11.91406,-13.8125 -2.83984,5.554687 -9.67578,7.441406 -9.67578,7.441406 -13.45703,6.011719 -17.46875,10.972656 -17.46875,10.972656 2.16797,0.390625 3.03516,1.179688 3.03516,1.179688 -9.67969,5.511719 -11.48047,11.480469 -11.48047,11.480469 1.41015,-1.496094 4.79687,-2.433594 4.79687,-2.433594 -2.77344,1.765625 -6.96484,7.035156 -6.96484,7.035156 -0.64453,-0.671875 -5.07813,-5.285156 -7.1211,-7.035156 0,0 3.38672,0.9375 4.79688,2.433594 0,0 -1.80078,-5.96875 -11.48047,-11.480469 0,0 0.86719,-0.789063 3.01953,-1.179688 0,0 -4.01172,-4.960937 -17.45312,-10.972656 0,0 -6.85157,-1.886719 -9.67578,-7.441406 0,0 0.11328,8.265625 11.91406,13.8125 0,0 -4.36328,-3.421875 -5.07422,-5.070313 0,0 6.83594,1.0625 14.27734,8.964844 0,0 -16.51953,-2.363281 -24.43359,-14.042969 0,0 -0.34766,3.890625 3.42969,7.433594 0,0 -13.32813,-1.886719 -16.99219,-7.320312 0,0 0.82422,14.277343 26.77734,14.277343 0,0 -12.375,-2.355468 -16.7539,-5.773437 0,0 19.24609,1.761719 33.98437,12.738281 0,0 -11.5664,-5.1875 -19.46484,-6.136719 0,0 -11.44141,-0.113281 -17.57813,-4.007812 0,0 6.72266,13.207031 23.82813,9.671875 0,0 -7.78906,-0.699219 -10.375,-3.183594 0,0 10.85156,-1.53125 16.27734,3.308594 0,0 1.53516,6.132812 7.44141,13.328125 0,0 -2.83985,3.1875 -5.31641,3.539062 0,0 5.90235,0.949219 7.66406,-3.652343 0,0 -7.07421,-7.203125 -6.83984,-12.152344 0,0 1.77734,0.460937 2.23828,1.292969 0,0 -0.11328,6.609375 8.26563,12.035156 0,0 -8.61328,8.460936 -9.08985,12.781246 0,0 2.75391,0.62891 5.59375,-3.22265 0,0 -3.07812,2.27734 -1.88672,-0.31641 0,0 2.34766,-5.117186 6.92188,-9.523436 0,0 -5.83203,-4.082031 -6.22266,-8.640625 0,0 5.90235,2.746094 7.71875,6.445312 0,0 -6.69922,14.726559 1.45313,24.863279 h 0.14062 c 8.16797,-10.13672 1.46875,-24.863279 1.46875,-24.863279 1.80469,-3.699218 7.70703,-6.445312 7.70703,-6.445312 -0.39453,4.558594 -6.21093,8.640625 -6.21093,8.640625 4.55859,4.40625 6.92187,9.523436 6.92187,9.523436 1.17578,2.59375 -1.88672,0.31641 -1.88672,0.31641 2.82422,3.85156 5.57813,3.22265 5.57813,3.22265 -0.47266,-4.32031 -9.07422,-12.781246 -9.07422,-12.781246 8.375,-5.425781 8.25,-12.035156 8.25,-12.035156 0.47656,-0.832032 2.23828,-1.292969 2.23828,-1.292969 0.23828,4.949219 -6.83984,12.152344 -6.83984,12.152344 1.77734,4.601562 7.66406,3.652343 7.66406,3.652343 -2.47266,-0.351562 -5.30078,-3.539062 -5.30078,-3.539062 5.90234,-7.195313 7.42578,-13.328125 7.42578,-13.328125 5.42578,-4.839844 16.29297,-3.308594 16.29297,-3.308594 -2.60156,2.484375 -10.39063,3.183594 -10.39063,3.183594 17.11719,3.535156 23.83203,-9.671875 23.83203,-9.671875 -6.125,3.894531 -17.57812,4.007812 -17.57812,4.007812 -7.90234,0.949219 -19.46875,6.136719 -19.46875,6.136719 14.75391,-10.976562 33.98437,-12.738281 33.98437,-12.738281 -4.36718,3.417969 -16.7539,5.773437 -16.7539,5.773437 25.95312,0 26.78125,-14.277343 26.78125,-14.277343"
       id="path38" />
    <path
       style="fill:#171719;fill-opacity:1;fill-rule:nonzero;stroke:none"
       d="m 165.10547,194.53516 -2.125,16.09765 h 4.26562 l -2.05468,-16.09765 z m 0,0"
       id="path40" />
    <path
       style="fill:#171719;fill-opacity:1;fill-rule:nonzero;stroke:none"
       d="m 315.52734,199.03906 c -0.043,-4.21875 -1.25781,-4.46093 -4.85156,-4.55468 v 23 c 4.9375,0.375 4.97656,-1.91797 4.85156,-6.71485"
       id="path42" />
    <path
       style="fill:#171719;fill-opacity:1;fill-rule:nonzero;stroke:none"
       d="m 263.92188,194.48438 v 8.82031 h 2.51953 c 2.13672,0 2.6289,-2.25391 2.6289,-4.46094 0,-4.26562 -1.53906,-4.45703 -5.14843,-4.35937"
       id="path44" />
    <path
       style="fill:#171719;fill-opacity:1;fill-rule:nonzero;stroke:none"
       d="m 222.37109,199.03906 c -0.0391,-4.21875 -1.2539,-4.46093 -4.86328,-4.55468 v 23 c 4.94922,0.375 4.99219,-1.91797 4.86328,-6.71485"
       id="path46" />
    <path
       style="fill:#171719;fill-opacity:1;fill-rule:nonzero;stroke:none"
       d="m 289.68359,194.53516 -2.14062,16.09765 h 4.28125 l -2.05859,-16.09765 z m 0,0"
       id="path48" />
    <path
       style="fill:#171719;fill-opacity:1;fill-rule:nonzero;stroke:none"
       d="m 336.26563,194.53516 -2.13672,16.09765 h 4.27734 l -2.05469,-16.09765 z m 0,0"
       id="path50" />
    <path
       style="fill:#171719;fill-opacity:1;fill-rule:nonzero;stroke:none"
       d="m 243.18359,193.625 c -2.33593,0 -2.6289,2.62891 -2.6289,4.83984 v 14.75391 c 0,2.05469 0.29297,5.125 2.67187,5.125 2.39063,0 2.5586,-3.07031 2.5586,-5.125 v -14.75391 c 0,-2.21093 -0.16797,-4.83984 -2.60157,-4.83984"
       id="path52" />
    <path
       style="fill:#171719;fill-opacity:1;fill-rule:nonzero;stroke:none"
       d="m 358.21094,224.8125 c -6.74219,0 -9.59375,-4.30859 -9.59375,-9.05469 v -3.83203 h 6.83594 v 2.53906 c 0,2.0625 0.58593,3.87891 2.92578,3.87891 1.71875,0 2.47265,-1.76953 2.47265,-3.59375 0,-3.01562 -2.17968,-4.16797 -4.10937,-5.51172 -2.25391,-1.48047 -4.1836,-2.87109 -5.56641,-4.6914 -1.34375,-1.81641 -2.14062,-4.02735 -2.14062,-7.1875 0,-6.75391 3.5664,-10.20704 9.25781,-10.20704 6.42187,0 9.67969,4.89454 9.34375,11.64844 h -6.78516 c -0.082,-2.11328 0,-4.98828 -2.43359,-5.17578 -1.50781,-0.14453 -2.37891,0.8125 -2.54688,2.39063 -0.20703,2.15625 0.74219,3.25781 2.21485,4.40625 2.76562,2.01562 5.15625,3.25781 6.8789,5.07812 1.70704,1.82422 2.71094,4.22266 2.71094,8.57813 0,6.90234 -3.33984,10.73437 -9.46484,10.73437 m -18.05469,-0.85937 -1.05078,-7 h -5.77734 l -0.87891,7 h -7.41016 l 6.86328,-35.9336 h 8.88282 l 6.82422,35.9336 z m -17.26172,-9.44141 c -0.0391,3.58594 -1.0039,6.23047 -3.1289,7.76172 -1.92969,1.43359 -4.28125,1.67969 -6.54688,1.67969 h -9.91406 v -35.9336 h 8 c 2.67187,0 5.89844,0.0977 8.29297,1.67578 2.83984,1.91797 3.29687,5.41407 3.29687,8.85938 z m -29.30859,9.44141 -1.05078,-7 h -5.78907 l -0.86718,7 h -7.41016 l 6.86719,-35.9336 h 8.8789 l 6.82422,35.9336 z m -16.09766,0 h -8.04297 c -0.21093,-0.67188 -0.375,-1.34375 -0.41797,-2.0625 -0.125,-3.16407 0.043,-6.13282 -0.16796,-8.33594 -0.21094,-2.21094 -0.78125,-3.64453 -2.50391,-3.78906 h -2.43359 v 14.1875 h -7.36719 v -35.9336 h 10.76562 c 6.03125,0 9.05078,2.78125 9.05078,9.91406 0,3.83204 -0.79687,6.56641 -3.90234,8.19532 v 0.0977 c 2.05469,0.52344 3.52344,2.15235 3.64844,4.64063 0.21094,2.88281 0.2539,9.0625 0.65625,11.35547 0.16797,0.47656 0.3789,0.91015 0.71484,1.24609 z M 253.15625,212.5 c 0,8.09375 -2.47656,12.3125 -9.92969,12.3125 -7.45703,0 -10.04297,-4.21875 -10.04297,-12.3125 v -14.61719 c 0,-6.90234 3.59375,-10.73047 10.04297,-10.73047 6.46094,0 9.92969,3.82813 9.92969,10.73047 z m -23.41406,2.01172 c -0.0391,3.58594 -1.00781,6.23047 -3.14453,7.76172 -1.91407,1.43359 -4.26563,1.67969 -6.53125,1.67969 h -9.92969 v -35.9336 h 8 c 2.68359,0 5.90234,0.0977 8.29297,1.67578 2.85156,1.91797 3.3125,5.41407 3.3125,8.85938 z M 187.0625,224.8125 c -6.74219,0 -9.59375,-4.30859 -9.59375,-9.05469 v -3.83203 h 6.82422 v 2.53906 c 0,2.0625 0.58594,3.87891 2.9375,3.87891 1.71875,0 2.47266,-1.76953 2.47266,-3.59375 0,-3.01562 -2.17969,-4.16797 -4.10938,-5.51172 -2.26562,-1.48047 -4.19531,-2.87109 -5.56641,-4.6914 -1.33984,-1.81641 -2.13671,-4.02735 -2.13671,-7.1875 0,-6.75391 3.5625,-10.20704 9.2539,-10.20704 6.40625,0 9.67969,4.89454 9.34375,11.64844 h -6.78515 c -0.082,-2.11328 0,-4.98828 -2.42969,-5.17578 -1.51172,-0.14453 -2.39453,0.8125 -2.5586,2.39063 -0.21093,2.15625 0.75391,3.25781 2.22266,4.40625 2.76563,2.01562 5.14453,3.25781 6.86719,5.07812 1.71875,1.82422 2.72656,4.22266 2.72656,8.57813 0,6.90234 -3.35937,10.73437 -9.46875,10.73437 m -18.05469,-0.85937 -1.04687,-7 h -5.77735 l -0.88281,7 h -7.41015 l 6.86718,-35.9336 h 8.87891 l 6.82422,35.9336 z m -16.16797,0 h -16.375 v -35.9336 h 7.3711 v 28.74219 h 9.0039 z m -20.0664,0 h -7.3711 v -35.9336 h 7.3711 z m -11.23047,-9.92188 c 0,6.08203 -2.37891,10.78125 -9.92969,10.78125 -6.23437,0 -9.87109,-3.39844 -9.87109,-10.78125 v -26.01172 h 7.36718 v 27.11328 c 0,1.72266 0.46094,3.21094 2.54688,3.21094 1.92969,0 2.51562,-1.91406 2.51562,-3.44922 v -26.875 h 7.3711 z M 98.132813,224 h -5.023438 l -0.332031,-3.21484 h -0.08594 c -1.511718,3.07031 -3.1875,4.02734 -6.375,4.02734 -6.238281,0 -8.253906,-4.9375 -8.253906,-11.45312 v -14.75391 c 0,-7.80469 3.148438,-11.45313 9.886719,-11.45313 6.28125,0 10.015625,3.06641 10.015625,10.40235 v 2.67969 H 90.59375 v -1.96485 c 0,-3.0625 -0.335937,-4.60156 -2.308594,-4.64453 -2.304687,-0.0547 -2.851562,1.38672 -2.851562,3.73438 v 17.77343 c 0,2.01563 0.796875,3.21094 2.726562,3.21094 2.519532,0 2.601563,-2.30078 2.601563,-4.59375 v -2.83203 h -2.644531 v -6.46875 h 10.015625 z m -29.242188,-0.0469 -1.050781,-7 h -5.773438 l -0.882812,7 h -7.410156 l 6.867187,-35.9336 h 8.878906 l 6.824219,35.9336 z m -27.648437,-57.27735 9.242187,81.98047 H 369.60547 l 9.52344,-81.98047 z m 0,0"
       id="path54" />
    <path
       style="fill:#171719;fill-opacity:1;fill-rule:nonzero;stroke:none"
       d="m 65,194.53516 -2.140625,16.09765 h 4.28125 l -2.054687,-16.09765 z m 0,0"
       id="path56" />
  </g>
</svg>
