<?xml version="1.0" encoding="UTF-8" standalone="no"?>
<svg
   xmlns:dc="http://purl.org/dc/elements/1.1/"
   xmlns:cc="http://creativecommons.org/ns#"
   xmlns:rdf="http://www.w3.org/1999/02/22-rdf-syntax-ns#"
   xmlns:svg="http://www.w3.org/2000/svg"
   xmlns="http://www.w3.org/2000/svg"
   xmlns:sodipodi="http://sodipodi.sourceforge.net/DTD/sodipodi-0.dtd"
   xmlns:inkscape="http://www.inkscape.org/namespaces/inkscape"
   width="1000"
   height="1000"
   viewBox="0 0 750.00002 750.00002"
   version="1.1"
   id="svg17"
   sodipodi:docname="Club Atlético Unión de Sunchales.svg"
   inkscape:version="1.0.1 (3bc2e813f5, 2020-09-07)">
  <metadata
     id="metadata23">
    <rdf:RDF>
      <cc:Work
         rdf:about="">
        <dc:format>image/svg+xml</dc:format>
        <dc:type
           rdf:resource="http://purl.org/dc/dcmitype/StillImage" />
        <dc:title></dc:title>
      </cc:Work>
    </rdf:RDF>
  </metadata>
  <defs
     id="defs21" />
  <sodipodi:namedview
     pagecolor="#ffffff"
     bordercolor="#666666"
     borderopacity="1"
     objecttolerance="10"
     gridtolerance="10"
     guidetolerance="10"
     inkscape:pageopacity="0"
     inkscape:pageshadow="2"
     inkscape:window-width="1920"
     inkscape:window-height="1017"
     id="namedview19"
     showgrid="false"
     units="px"
     inkscape:zoom="0.845"
     inkscape:cx="500"
     inkscape:cy="500"
     inkscape:window-x="-8"
     inkscape:window-y="-8"
     inkscape:window-maximized="1"
     inkscape:current-layer="svg17" />
  <g
     id="g856"
     transform="matrix(1.2069559,0,0,1.2069559,56.72668,18.825441)">
    <g
       id="surface1">
      <path
         style="fill:#009430;fill-opacity:1;fill-rule:evenodd;stroke:none"
         d="M 407.58203,-0.0625 H 119.81641 c 0,40.132813 -69.011722,108.74609 -119.7968787,108.74609 0,266.1875 100.2656287,400.01954 263.6796887,481.58203 163.41797,-81.56249 263.67969,-215.39453 263.67969,-481.58203 -50.78125,0 -119.79688,-68.613277 -119.79688,-108.74609 z m 0,0"
         id="path2" />
      <path
         style="fill:#ffffff;fill-opacity:1;fill-rule:evenodd;stroke:none"
         d="m 397.58594,11.449219 c -17.94922,0 -249.82031,0 -267.77344,0 C 120.28125,53.828125 62.636719,111.12109 11.757813,119.19141 14.105469,347.65625 92.132813,489.51172 263.69922,577.20312 435.26563,489.51172 513.29297,347.65625 515.64062,119.19141 464.76563,111.12109 407.11719,53.828125 397.58594,11.449219 Z m 0,0"
         id="path4" />
      <path
         style="fill:#009430;fill-opacity:1;fill-rule:evenodd;stroke:none"
         d="m 90.394531,406.99219 c 38.406249,64.9375 95.332029,116.35937 173.304689,157.17187 77.97266,-40.8125 134.89844,-92.23437 173.30469,-157.17187 24.91406,-42.12891 42.65234,-90.73828 53.6289,-146.53125 H 36.765625 c 10.976563,55.79297 28.714844,104.40234 53.628906,146.53125 z m 0,0"
         id="path6" />
      <path
         style="fill:#009430;fill-opacity:1;fill-rule:evenodd;stroke:none"
         d="M 503.91016,128.28906 C 456.38672,115.21875 403.75,66.902344 388.80078,22.960938 c -30.53125,0 -219.67187,0 -250.19922,0 -14.94922,43.941406 -67.585935,92.257812 -115.113279,105.328122 0.183594,9.3086 0.546875,18.41407 0.988282,27.42188 H 502.92578 c 0.44141,-9.00781 0.79688,-18.11328 0.98438,-27.42188 z m 0,0"
         id="path8" />
      <path
         style="fill:#009430;fill-opacity:1;fill-rule:evenodd;stroke:none"
         d="m 114.96094,214.72656 19.80078,6.00782 c -1.33203,5.5625 -3.43359,10.21093 -6.30078,13.9414 -2.8711,3.73047 -6.42969,6.54297 -10.67969,8.44141 -4.25391,1.89844 -9.66406,2.84765 -16.23047,2.84765 -7.972655,0 -14.484374,-1.15625 -19.535155,-3.46875 -5.054687,-2.3125 -9.414062,-6.38281 -13.082031,-12.21093 -3.667969,-5.83203 -5.503906,-13.28907 -5.503906,-22.375 0,-12.1211 3.226562,-21.42969 9.675781,-27.9375 6.449219,-6.51172 15.574219,-9.76953 27.375001,-9.76953 9.23047,0 16.48437,1.87109 21.76953,5.59765 5.28516,3.72656 9.20703,9.45313 11.77734,17.17578 l -20.04687,4.41016 c -0.70313,-2.21484 -1.4375,-3.83203 -2.20313,-4.85547 -1.26953,-1.71875 -2.82031,-3.03906 -4.65234,-3.96484 -1.83594,-0.92578 -3.88672,-1.38672 -6.15234,-1.38672 -5.140629,0 -9.074222,2.0625 -11.812504,6.1875 -2.066406,3.05859 -3.097656,7.86719 -3.097656,14.41797 0,8.11718 1.238281,13.68359 3.714844,16.6914 2.480469,3.01172 5.96875,4.51563 10.457026,4.51563 4.35547,0 7.64844,-1.21485 9.875,-3.65235 2.23047,-2.4375 3.84766,-5.97265 4.85157,-10.61328 z m 0,0"
         id="path10" />
      <path
         style="fill:#009430;fill-opacity:1;fill-rule:evenodd;stroke:none"
         d="m 274.89063,232.68359 h -25.66797 l -3.67188,12.05079 H 222.4375 l 27.62109,-73.29688 h 24.71094 l 27.48438,73.29688 h -23.69532 z m -4.80469,-15.86718 -7.98438,-26.36719 -8.03906,26.36719 z m 0,0"
         id="path12" />
      <path
         style="fill:#009430;fill-opacity:1;fill-rule:evenodd;stroke:none"
         d="m 441.33594,171.4375 h 22.6289 v 43.65625 c 0,4.33203 -0.67578,8.41797 -2.01953,12.26563 -1.35547,3.84375 -3.46875,7.20703 -6.35156,10.08984 -2.88281,2.87891 -5.91016,4.90234 -9.07031,6.06641 -4.40235,1.63281 -9.6836,2.44921 -15.84766,2.44921 -3.5664,0 -7.45703,-0.25 -11.66797,-0.75 -4.21484,-0.5 -7.74218,-1.48828 -10.57031,-2.96875 -2.83594,-1.48046 -5.42578,-3.58593 -7.76953,-6.32031 -2.35547,-2.73047 -3.96094,-5.54297 -4.82813,-8.4414 -1.39843,-4.66407 -2.09765,-8.79297 -2.09765,-12.39063 V 171.4375 h 22.6289 v 44.69922 c 0,3.99609 1.10547,7.10937 3.3125,9.35937 2.21485,2.25 5.27344,3.375 9.19141,3.375 3.89063,0 6.93359,-1.10937 9.14844,-3.32031 2.20703,-2.21484 3.3125,-5.35156 3.3125,-9.41406 z m 0,0"
         id="path14" />
    </g>
  </g>
</svg>
