<svg height="1000" viewBox="0 0 999.99998 1000" width="1000" xmlns="http://www.w3.org/2000/svg"><g transform="translate(-2420.9926 -737.75384)"><g transform="matrix(.05354418 0 0 .05354385 2398.2106 730.36123)"><g transform="matrix(3.508191 0 0 3.508191 408.54755 120.60974)"><path d="m 2653.3334 5189.0882 c -103.3611 -62.9522 -139.2611 -85.5492 -206 -129.6656 C 2245.1429 4925.7688 2059.2635 4781.7477 1887.9783 4626.0288 C 1796.379 4542.7539 1693.3275 4439.7123 1610.245 4348.322 C 1307.6802 4015.5029 1064.8001 3635.523 881.36032 3208.0001 C 610.64971 2577.0846 463.51761 1830.4937 432.03636 928.00003 c -8.15844 -233.88341 -8.71068 -493.18926 -1.60492 -753.59021 c .53415 -19.5746 1.29895 -35.91796 1.69956 -36.31858 c .40061 -.40061 12.38503 4.11696 26.63204 10.03906 c 184.27254 76.59707 370.70512 138.83323 550.39876 183.73776 c 324.4446 81.07705 636.5012 109.10307 936.1716 84.07825 c 240.2796 -20.06524 471.8501 -73.53201 698.8705 -161.3605 l 23.5373 -9.10596 l 19.1294 7.3657 c 27.531 10.60067 91.9692 33.3907 123.7962 43.78323 c 208.1505 67.96804 417.9218 109.42294 630.6666 124.63199 c 71.4487 5.10784 99.5912 6.01363 187.3334 6.02946 c 98.1893 .0177 146.9999 -1.93614 233.3333 -9.34008 c 323.1999 -27.7176 660.951 -115.42351 999.7386 -259.60835 c 18.9228 -8.05338 34.666 -14.38174 34.9847 -14.063 c .692 .69191 3.9378 78.36457 5.9224 141.72121 c 3.1405 100.2572 4.0922 153.4302 4.8806 272.66667 c 1.488 225.05501 -4.0776 426.9006 -17.5552 636.66672 c -56.8644 885.0355 -251.5353 1638.0643 -588.7303 2277.3334 c -363.8493 689.8016 -893.6913 1252.4721 -1606.3749 1705.9046 c -14.1904 9.0284 -26.7904 16.6412 -28 16.9173 c -1.2095 .2761 -7.2993 -2.6041 -13.5326 -6.4005 z m 59.4316 -83.4842 c 347.9403 -233.8013 644.6603 -486.9651 900.8507 -768.6123 c 466.8576 -513.2478 794.209 -1116.1601 990.8795 -1824.9916 c 172.9047 -623.1752 246.8148 -1340.7135 223.4528 -2169.33342 c -1.9506 -69.18552 -3.4656 -107.96225 -4.2488 -108.74535 c -.3566 -.35676 -4.7849 1.21281 -9.8405 3.48793 c -17.9618 8.08325 -88.3166 37.07756 -117.8586 48.57136 c -148.5492 57.79548 -301.1577 105.32622 -442.779 137.90589 c -158.3254 36.4224 -303.7418 56.97884 -474.5543 67.08423 c -45.3851 2.68501 -221.4291 2.22866 -268 -.69472 c -290.7895 -18.25367 -549.8586 -75.36447 -834.6667 -183.99906 l -8.6667 -3.30574 l -20 7.91687 c -51.7672 20.49169 -132.5635 48.80099 -192 67.27266 c -189.6285 58.93272 -388.0989 96.72614 -580 110.4456 c -67.7681 4.84491 -86.4887 5.39367 -184 5.39367 c -97.6486 0 -115.4578 -.52535 -184 -5.42768 c -314.3237 -22.48131 -635.32292 -101.81159 -970.51621 -239.84899 c -15.31721 -6.30785 -28.09387 -11.22444 -28.39255 -10.92574 c -3.42153 3.42153 -5.00217 433.87536 -2.02525 551.53575 c 2.86329 113.16941 5.08329 178.15519 8.97305 262.66664 c 45.84638 996.0878 236.56902 1790.0308 589.66516 2454.6668 c 232.7779 438.1599 540.2285 823.7788 924.9625 1160.1315 c 155.383 135.8433 321.6578 262.6152 502.6666 383.2453 c 56.5914 37.7144 131.237 85.7568 133.4316 85.8778 c .7875 .043 21.7875 -13.5995 46.6667 -30.3174 z m -70.8685 -245.7406 c -13.8763 -8.8783 -48.1798 -31.4224 -76.2298 -50.098 l -51 -33.9555 v -974.5716 v -974.5715 h 146 h 146.0001 v 977.2685 v 977.2686 l -24.3334 16.9984 c -20.059 14.0125 -99.301 67.6117 -111.7702 75.6013 c -3.4103 2.1851 -3.6322 2.0771 -28.6667 -13.9402 z m -490.5631 -360.6695 c -81.5155 -69.3354 -152.7633 -134.481 -224.9975 -205.7266 l -34.3358 -33.8661 v -715.8006 v -715.8005 h 146 h 146 v 848.6667 c 0 466.7667 -.45 848.6543 -1 848.6391 c -.55 -.015 -14.8 -11.7656 -31.6667 -26.112 z m 990 -825.1938 v -847.3333 h 146 h 146 v 711.3717 v 711.3718 l -43 42.9972 c -61.7082 61.7042 -116.2456 113.1864 -178.2516 168.2661 c -31.8846 28.3231 -69.2788 60.6599 -70.1469 60.6599 c -.3308 0 -.6015 -381.3 -.6015 -847.3334 z m -1599.5531 173 c -93.7871 -129.0373 -181.5087 -269.1376 -257.6041 -411.4196 l -14.8428 -27.7528 V 3117.9138 V 2828.0001 H 1412.6667 H 1556 v 518.6667 c 0 285.2666 -.2013 518.6667 -.4473 518.6667 c -.246 0 -6.4436 -8.25 -13.7724 -18.3334 z m 2227.5532 -509.6667 v -512 h 138 h 138 v 294.242 v 294.242 l -22.2035 40.0914 c -51.844 93.6113 -102.6177 176.819 -163.1837 267.4246 c -35.3824 52.9314 -88.1928 128.0001 -90.0475 128.0001 c -.3109 0 -.5653 -230.4001 -.5653 -512.0001 z M 1080 2640.5083 c -34.8333 -37.7406 -67.7317 -73.3944 -73.1075 -79.2305 l -9.77426 -10.6111 h 107.10756 h 107.1076 l -.4375 10.752 c -.5708 14.0316 2.6686 29.8906 8.6993 42.5876 c 3.7904 7.9804 7.2057 12.4236 16.9106 22 c 13.445 13.2672 27.0736 21.4346 46.7802 28.0347 c 43.2951 14.5004 115.4031 14.5032 158.7614 0 c 28.9042 -9.6644 46.0356 -26.7253 48.235 -48.0367 l .7574 -7.3373 h -31.5199 c -29.1272 0 -31.5204 .1771 -31.5273 2.3333 c -.061 19.3476 -24.689 32.1708 -61.9926 32.279 c -53.3637 .1548 -86.1029 -20.9332 -91.2155 -58.7538 c -.754 -5.5778 -1.0054 -13.2278 -.5586 -17 l .8122 -6.8585 h 123.5113 h 123.5113 l .053 12.3333 c .1134 25.9978 11.5803 47.9927 34.5306 66.2304 c 20.8502 16.569 46.3083 27.1443 77.3553 32.1335 c 26.1218 4.1979 71.6371 3.8573 96.554 -.7223 c 66.065 -12.1422 109.9744 -52.6964 107.8859 -99.6416 l -.4596 -10.3333 h 29.0099 h 29.0098 v 55.3333 v 55.3334 h 30.6667 h 30.6667 v -41.4907 v -41.4905 l 39 .6616 c 62.1306 1.0541 62.6372 1.3517 74.2898 43.6529 c 3.1311 11.3667 7.5022 24.7167 9.7135 29.6667 l 4.0204 9 h 33.1661 h 33.1663 l -3.9464 -7 c -2.1815 -3.8692 -7.2731 -18.6284 -11.3844 -33 c -4.0908 -14.3 -8.9872 -29.1972 -10.8809 -33.105 c -6.5595 -13.5352 -15.5882 -19.3057 -33.1086 -21.1606 l -7.9641 -.8432 l 13.4023 -3.4834 c 7.3713 -1.916 17.3288 -5.4165 22.1277 -7.779 l 8.7255 -4.2955 h 38.1697 h 38.1697 v 55.3333 v 55.3334 h 30.6667 h 30.6667 v -41.3334 v -41.3333 l 31 .013 c 45.7932 .016 59.3762 2.0886 68.119 10.3931 c 5.4872 5.2123 6.5738 7.8551 13.5367 32.9293 c 3.462 12.4667 7.9931 26.4167 10.0691 31 l 3.7746 8.3334 h 33.5078 h 33.5077 l -2.6049 -3.6667 c -4.0626 -5.7184 -6.5519 -12.5495 -13.7228 -37.6568 c -3.6638 -12.8279 -8.2148 -26.7849 -10.1135 -31.0157 c -5.9184 -13.188 -16.0031 -19.9131 -33.0737 -22.0555 l -8 -1.004 l 13.0581 -3.1736 c 7.182 -1.7455 17.0476 -5.1807 21.9236 -7.634 l 8.8653 -4.4604 h 38.4099 h 38.4097 v 55.3333 v 55.3334 h 32 h 32 v -55.3334 v -55.3333 h 38.6667 h 38.6667 v 55.3333 v 55.3334 h 112 h 112 v -15.3334 v -15.3333 h -82 h -82 v -28 v -28 h 72.667 h 72.6666 v -12 v -12 H 2894 h 35.3333 v 55.3333 v 55.3334 H 2958 h 28.6666 v -55.3334 v -55.3333 h 16.3622 h 16.3621 l 49.0275 55.3333 l 49.0274 55.3334 h 44.6104 h 44.6104 v -55.3334 v -55.3333 H 3282 h 75.3333 v 55.3333 v 55.3334 H 3388.6666 H 3420 v -55.3334 v -55.3333 h 76 h 76 v 55.3333 v 55.3334 h 112 h 112 v -15.3334 v -15.3333 h -81.3334 h -81.3333 v -27.9885 v -27.9886 l 72.3333 -.3448 l 72.3334 -.3448 l .3852 -11.6666 l .3853 -11.6667 h 36.4515 c 31.3741 0 36.6916 .2893 38.1751 2.0768 c 8.8609 10.6768 47.1861 20.9412 106.6558 28.5651 c 53.533 6.8628 70.6138 13.0206 70.6138 25.4576 c 0 9.4769 -13.6951 19.121 -33.3334 23.4737 c -14.4902 3.2116 -55.2434 3.2203 -70.6666 .015 c -19.7856 -4.1119 -34.6194 -13.5062 -36.7588 -23.2794 c -.4386 -2.0033 -1.0283 -4.3922 -1.3107 -5.3089 c -.3896 -1.2647 -7.3211 -1.6667 -28.7379 -1.6667 h -28.2244 l .6835 8.5151 c 2.1983 27.3856 30.8256 46.4311 80.6621 53.6637 c 19.315 2.8031 69.2814 3.1488 89.0195 .6159 c 19.6599 -2.5228 41.5671 -8.4712 54.5392 -14.8088 c 24.3529 -11.8976 36.8117 -32.1343 32.8017 -53.2792 c -4.1978 -22.1352 -20.9865 -32.6829 -68.6742 -43.1456 c -1.4667 -.3217 56.0333 -.6547 127.7778 -.7397 l 130.4446 -.1547 l -2.4446 3.2651 c -1.3445 1.7957 -30.3445 37.4814 -64.4445 79.3016 l -62 76.0365 l -1503.3334 -.071 l -1503.3334 -.071 l -63.3333 -68.6195 z m 583.3334 -9.7792 c -19.9 -2.2768 -36.4459 -8.0585 -49.7012 -17.3674 c -20.0459 -14.0776 -28.779 -32.1564 -27.2258 -56.3616 l .4064 -6.3334 h 92.4382 h 92.438 l .804 3 c 1.2321 4.5979 .9303 16.9943 -.5728 23.5138 c -5.7875 25.1037 -29.3643 44.53 -62.4329 51.4421 c -11.5244 2.4089 -34.39 3.4525 -46.1539 2.1065 z m 1455.5504 -47.3957 l -28.4496 -32 l 28.3114 -.3604 c 15.5713 -.1983 28.5346 -.1372 28.8076 .1357 c .2729 .2728 .335 14.8351 .1381 32.3604 l -.3579 31.8643 z m 1310.5549 -210.3896 c -.057 -.5809 -10.9052 -47.9899 -24.1052 -105.3532 l -24 -104.2969 V 1405.9674 V 648.64102 l 35.6666 -11.68296 c 41.926 -13.73325 90.1468 -30.97503 128.3334 -45.88661 l 27.3333 -10.67351 l .8567 16.13437 c 3.1096 58.57078 4.4753 156.81674 4.4592 320.80105 c -.016 169.53474 -.5924 208.29274 -4.684 315.33334 c -15.5791 407.566 -61 775.3878 -138.0216 1117.7084 c -4.7216 20.985 -5.6418 24.5418 -5.8384 22.5687 z m -3528.10534 -3.9677 c 0 -.4411 -2.95603 -14.7911 -6.56893 -31.889 C 798.42861 1881.1845 753.5515 1358.3415 757.96798 743.33336 c .53715 -74.80001 1.3641 -140.89449 1.83767 -146.87662 l .86104 -10.87662 l 19.33333 7.26577 c 32.18705 12.09637 92.24418 32.99452 123.33334 42.91642 l 29.33334 9.36155 l .33584 793.10474 l .33582 793.1048 l -15.46252 68.6667 c -13.47752 59.8516 -16.54248 72.6313 -16.54248 68.976 z m 759.96124 -64.6212 c -.021 -.5619 18.4057 -71.9715 40.9488 -158.6882 l 40.9875 -157.6666 h 68.1106 h 68.1107 l 39.1937 99 c 46.2091 116.7208 42.724 108.0746 43.3227 107.4758 c .2635 -.2633 11.0525 -44.8782 23.9759 -99.144 c 12.9233 -54.2658 24.0957 -100.9152 24.8276 -103.6652 l 1.3308 -5 h 34.6406 h 34.6407 l -.9184 3.6667 c -.5051 2.0167 -18.4073 72.9667 -39.7827 157.6667 l -38.8644 154 h -69.7876 h -69.7876 l -39.2846 -105.0594 c -21.6066 -57.7826 -39.5232 -104.8206 -39.8148 -104.529 c -.2918 .2916 -11.5263 48.1684 -24.9659 106.3926 l -24.4356 105.8624 l -36.2047 .3548 c -19.9124 .1951 -36.222 -.1053 -36.2433 -.6666 z m -503.6016 -1.7603 c -13.6686 -2.6977 -23.7683 -9.7116 -29.4252 -20.4349 c -3.3749 -6.3975 -3.5957 -7.8732 -3.5155 -23.493 l .086 -16.6666 l 28.9665 -122.6667 c 15.9316 -67.4667 29.5663 -124.9167 30.2992 -127.6667 l 1.3326 -5 h 64.3898 h 64.3897 l -31.8057 121.6667 c -19.2691 73.7105 -31.662 123.5061 -31.4411 126.3333 l .3645 4.6667 h 67.9469 h 67.9468 l 2.8948 -4.2955 c 1.637 -2.429 4.7743 -12.278 7.2204 -22.6666 c 2.3792 -10.1042 12.0888 -48.0712 21.5771 -84.3712 c 13.7479 -52.5968 27.6371 -107.3714 35.0772 -138.3334 l .7209 -3 h 38.0644 c 35.6307 0 38.0196 .1492 37.362 2.3334 c -.3864 1.2833 -15.4473 57.2333 -33.4686 124.3333 c -18.0214 67.1 -34.5975 127.8013 -36.8359 134.8919 c -8.8661 28.0849 -23.0428 44.3102 -45.9951 52.6414 l -8.6322 3.1334 l -120.9394 -.1462 c -66.5166 -.08 -123.4775 -.6469 -126.5797 -1.2593 z m 1076.2428 -2.2475 c 2.0883 -8.5545 84.9552 -313.0157 85.2851 -313.3456 c .1992 -.1993 27.3853 -.2061 60.4137 -.015 l 60.0515 .347 l -42.9235 158 l -42.9233 158 l -60.401 .3471 l -60.4009 .3469 l .8984 -3.6802 z m 373.1829 -4.3464 c 9.0424 -9.7668 16.9804 -22.8154 21.505 -35.3502 c 1.8497 -5.1244 14.2154 -58.8171 27.4794 -119.3171 c 22.3535 -101.9589 24.1159 -110.9747 24.1083 -123.3333 c -.013 -11.6287 -1.1544 -20.6608 -3.6834 -29 c -.6711 -2.2128 7.1305 -2.3319 151.0489 -2.304 c 145.0788 .028 151.9912 .1382 157.0899 2.5077 c 10.9408 5.0843 20.0432 18.3591 23.9484 34.9263 c 2.5638 10.8772 2.5817 30.121 .037 40.9108 c -3.8717 16.4218 -61.0189 197.073 -64.2524 203.112 c -7.4717 13.9542 -20.9048 25.5477 -37.0672 31.9912 l -8 3.1893 l -149.8412 .3667 l -149.8411 .3666 l 7.4676 -8.066 z m 236.9885 -54.7246 c 3.2997 -1.7659 7.9296 -9.2055 11.5813 -18.6094 c 1.5661 -4.0333 11.3716 -38.2333 21.7899 -76 c 15.8497 -57.4558 18.9498 -70.1905 18.9888 -78 c .059 -11.9021 -2.5896 -17.2768 -10.2222 -20.7421 c -5.0662 -2.3003 -9.1492 -2.5353 -44.4884 -2.5619 c -35.9166 -.027 -38.964 .1502 -39.6096 2.304 c -2.1232 7.0826 -50.1469 192.5471 -50.1469 193.6642 c 0 1.8676 88.6136 1.8149 92.1071 -.055 z m 394.9122 60.6685 c -17.0549 -4.5931 -30.9888 -15.476 -37.9785 -29.6629 c -3.7841 -7.6806 -4.4321 -10.5014 -4.8044 -20.9132 c -.404 -11.3018 .7936 -17.7222 19.6539 -105.3684 c 11.0461 -51.3334 21.2852 -96.5248 22.7533 -100.4254 c 5.5364 -14.7093 18.1855 -29.9389 33.5083 -40.3445 c 10.5953 -7.1951 19.7668 -11.3031 32.5142 -14.5633 c 10.0091 -2.5599 14.7615 -2.6662 118.5472 -2.651 c 117.5162 .017 114.5323 -.1568 129.8691 7.5719 c 10.0384 5.0585 19.1255 14.4657 24.4813 25.3437 c 4.1032 8.3342 4.4324 9.9638 4.3847 21.7063 c -.045 11.2501 -2.2869 23.0187 -19.6848 103.3623 c -10.7983 49.8666 -20.9079 94.2666 -22.4656 98.6666 c -7.5365 21.287 -25.4005 39.5842 -49.3443 50.5408 c -19.8288 9.0738 -15.5866 8.802 -135.8722 8.7048 c -89.0372 -.072 -109.838 -.4261 -115.5622 -1.9677 z m 171.7183 -53.9808 c 5.3865 -2.7479 11.6977 -10.1743 14.3705 -16.9095 c 1.8666 -4.7033 33.5586 -165.382 33.5586 -170.1417 c 0 -6.226 -4.023 -14.0425 -8.722 -16.9467 c -4.265 -2.6358 -6.0284 -2.7354 -41.7538 -2.359 l -37.3008 .3932 l -5.64 4 c -11.2641 7.9888 -11.6352 9.2378 -29.3437 98.8093 c -18.3137 92.6319 -18.4312 93.8041 -10.1603 101.3839 l 4.8814 4.4734 h 37.4061 c 34.9417 0 37.7549 -.178 42.704 -2.7029 z m 346.5958 16.814 v -37.9509 l 11 5.804 c 14.045 7.4108 25.0064 10.7328 48.7726 14.7812 c 18.2342 3.1061 21.7387 3.2546 76.8028 3.2546 c 57.6684 0 57.6991 0 62.2274 -3.0108 c 8.8422 -5.8761 13.0528 -20.2441 8.508 -29.0328 c -4.3451 -8.4022 -5.32 -8.5478 -62.6442 -9.3569 c -55.8141 -.7877 -54.202 -.594 -69.5072 -8.3497 c -21.123 -10.7039 -36.8712 -32.036 -44.508 -60.2896 c -3.7537 -13.8874 -4.9834 -42.0694 -2.6912 -61.6754 c 5.4774 -46.848 23.7267 -78.5557 51.7191 -89.8604 l 7.654 -3.091 l 137 -.3578 l 137 -.3577 v 29.2844 v 29.2843 l -7 -3.0863 c -13.2735 -5.8521 -17.2943 -6.1003 -98.8684 -6.1003 h -77.7372 l -4.408 3 c -7.3513 5.0034 -9.8105 9.4508 -10.3299 18.6811 c -.5432 9.6565 2.1168 15.2607 9.3314 19.6595 c 4.1272 2.5164 6.8028 2.6497 53.2798 2.6545 c 31.134 0 51.5046 .5503 56 1.5041 c 37.7563 8.0111 54.5292 53.18 43.0136 115.8342 c -10.2609 55.828 -27.0522 90.0836 -50.107 102.2225 l -7.1743 3.7775 l -133.6667 .3642 l -133.6666 .3644 z M 1101.3334 1875.3339 v -23.3338 h 1551.3648 h 1551.3649 l -.3648 23 l -.3648 23 l -1551.0001 .3338 l -1551 .334 z m 11.5293 -106.3338 c .561 -.9167 5.0409 -6.7667 9.9554 -13 c 11.9382 -15.1422 20.3722 -29.0696 25.2268 -41.658 c 2.6641 -6.9082 24.1217 -100.9799 64.1779 -281.3601 c 60.145 -270.844 60.1756 -270.9898 60.1761 -286.3153 c .0003 -10.3097 -.7524 -18.1416 -2.2974 -23.9048 c -2.3674 -8.8306 -7.6221 -20.445 -10.9778 -24.264 c -1.7587 -2.0013 16.339 -2.2424 234.4853 -3.1228 c 130.0151 -.5247 275.0911 -.7049 322.3911 -.4003 c 75.6012 .4867 87.0337 .8282 94.549 2.8243 c 28.9764 7.6962 48.1171 27.3841 55.287 56.8676 c 3.6913 15.179 5.0209 38.4225 3.4636 60.5496 c -6.4307 91.3725 -29.0291 146.7709 -71.2996 174.7857 c -12.7286 8.4359 -23.3588 13.0556 -39.0442 16.9679 c -9.6052 2.3959 -15.6142 2.9104 -34.6197 2.9645 c -22.7141 .065 -22.9973 .1014 -23 2.9696 c 0 2.5502 .9316 3.0059 7.6639 3.7394 c 32.6185 3.5533 52.4488 11.3412 67.7668 26.6138 c 23.2209 23.1522 28.2846 61.1003 17.8018 133.4095 c -10.6545 73.4932 -26.9918 117.1051 -55.7949 148.942 c -21.8832 24.1882 -54.9465 39.8474 -92.2083 43.6711 c -21.2478 2.1805 -635.0427 1.9095 -633.7028 -.2797 z m 490.8184 -123.8351 c 28.8298 -13.9561 54.4947 -113.7123 37.1916 -144.5591 c -1.6022 -2.8565 -4.9429 -6.5615 -7.4234 -8.2331 l -4.5103 -3.0394 H 1543.4695 H 1458 l -15.9098 76.3292 c -8.7503 41.9811 -16.1703 77.6792 -16.4887 79.3292 l -.5791 3 h 86.4012 c 85.3863 0 86.4699 -.033 92.2575 -2.8351 z m 63.3618 -285.6406 c 10.9566 -4.6196 23.7784 -24.7793 32.2945 -50.7769 c 13.6291 -41.6056 15.3639 -80.3283 4.338 -96.8312 c -6.4201 -9.6096 -2.6144 -9.2452 -96.5855 -9.2475 c -79.086 0 -84.2849 .1408 -84.9207 2.3312 c -.3725 1.2834 -7.65 35.9334 -16.1722 77 c -8.5223 41.0667 -15.7984 75.7167 -16.1692 77 c -.6371 2.2052 4.0913 2.3334 86.1252 2.3334 c 70.0843 0 87.6256 -.3484 91.0899 -1.809 z m 359.2621 407.8085 c -45.2687 -7.6762 -80.4024 -32.4455 -97.5661 -68.7846 c -7.9936 -16.9237 -9.416 -24.4328 -9.3226 -49.2149 l .083 -22 L 1961.7566 1432 c 23.2417 -107.4333 43.4321 -199.2333 44.8677 -204 c 3.5863 -11.908 12.1211 -29.1295 21.1452 -42.6666 c 8.5318 -12.7985 33.8259 -38.8895 46.5582 -48.0248 c 30.686 -22.0172 62.7248 -35.2489 98.3528 -40.6187 c 19.4638 -2.9336 439.9194 -3.0225 459.3249 -.097 c 48.0563 7.2445 86.416 34.9909 102.1175 73.8636 c 6.4973 16.0859 7.8263 23.7046 7.7116 44.2104 l -.108 19.3333 l -42.1948 195.3333 c -23.2072 107.4334 -43.7567 200.4167 -45.6655 206.6298 c -8.9071 28.9914 -29.8945 59.6276 -55.6387 81.2177 c -28.5968 23.9825 -57.6796 38.6328 -94.8942 47.8024 l -14.6667 3.6139 l -226 .2464 c -181.7613 .1981 -228.0283 -.097 -236.3617 -1.5107 z m 347.6951 -115.9076 c 14.3212 -6.9964 28.922 -24.345 34.4741 -40.9622 c 1.1401 -3.412 17.4565 -84.112 36.2589 -179.3333 c 38.547 -195.2154 37.0187 -184.4018 28.4694 -201.4293 c -5.0451 -10.0483 -12.428 -16.6711 -21.2254 -19.04 c -3.4801 -.9371 -30.4838 -1.2856 -80.2772 -1.0363 l -75.0332 .3758 l -7.7096 3.6126 c -4.2401 1.9869 -10.4729 5.8769 -13.8505 8.6446 c -7.8316 6.4175 -17.9277 20.7672 -21.5963 30.695 c -1.5678 4.243 -18.1917 85.4145 -36.942 180.3812 c -30.9944 156.981 -34.0436 173.6356 -33.565 183.3333 c .6226 12.6196 4.109 21.5402 11.396 29.159 c 10.184 10.6478 5.8177 10.1894 93.6008 9.8284 l 78 -.3207 z m 420.0809 115.7094 c -11.3278 -2.4301 -23.0268 -7.0857 -31.5508 -12.5556 c -8.2665 -5.3046 -21.0362 -18.9768 -26.273 -28.1298 c -5.5786 -9.7503 -11.7292 -28.767 -13.6711 -42.2679 c -1.8735 -13.026 -.9977 -53.4967 1.4464 -66.848 c 3.9228 -21.4279 88.3367 -388.4116 91.3949 -397.3334 c 10.2367 -29.8621 41.5635 -68.284 75.2848 -92.3352 c 15.3846 -10.9729 40.4503 -23.6483 56.6212 -28.6327 l 12 -3.6987 l 227.8412 -.3594 l 227.8411 -.3594 l -.9833 68.3594 c -.5408 37.5977 -1.2547 68.8094 -1.5866 69.3594 c -.3317 .55 -6.3374 1 -13.3462 1 h -12.7431 l -7.7564 -7.1811 c -5.286 -4.8939 -10.4387 -8.1806 -16.1781 -10.3195 l -8.4219 -3.1384 l -121.146 -.3878 c -74.9956 -.24 -123.8327 .109 -128.1985 .916 c -22.7218 4.2003 -35.5003 18.9099 -45.8491 52.7774 c -6.05 19.7998 -72.1261 328.6619 -73.0227 341.3334 c -2.197 31.0505 11.4066 50.6153 39.8574 57.3232 c 12.8545 3.0307 233.7216 2.974 242.6326 -.063 c 7.8867 -2.6872 15.755 -9.5002 19.819 -17.1608 l 3.2361 -6.1001 h 16.3356 c 12.1895 0 16.3309 .4231 16.3171 1.6667 c -.013 .9166 -11.0343 29.5666 -24.498 63.6666 l -24.4794 62 l -235.8353 .2266 c -204.3992 .1962 -237.0688 -.039 -245.0879 -1.7586 z m 491.2524 -3.0616 v -5.2602 l 5.9179 -.4064 l 5.9179 -.4064 l 224.7085 -306.0001 l 224.7087 -306 l .04 -16.3761 c .047 -18.7122 -1.3064 -23.4339 -8.9621 -31.2905 l -4.8722 -5 l 148.2707 -.2667 c 81.5488 -.1467 150.5205 -.2967 153.2705 -.3333 l 5 -.067 l 59.487 312.2133 l 59.487 312.2134 l 12.1796 14.9037 l 12.1798 14.9038 v 11.2162 v 11.2163 h -171.3334 c -94.2333 0 -171.3333 -.32 -171.3333 -.7111 c 0 -.3912 4.1097 -6.8412 9.1327 -14.3333 c 13.4085 -20 13.2056 -19.4273 14.947 -42.1935 c 1.7543 -22.9356 .295 -48.84 -4.133 -73.3612 c -2.7418 -15.1837 -11.3888 -48.0431 -13.0904 -49.7447 c -.5736 -.5736 -64.901 -1.5822 -142.9497 -2.2414 c -107.8665 -.911 -142.2774 -.8247 -143.4525 .36 c -.8501 .8572 -20.5001 30.5963 -43.6667 66.0868 l -42.1208 64.5284 v 19.1383 v 19.1384 h 6.6667 h 6.6667 v 6.6666 v 6.6667 h -101.3334 h -101.3333 v -5.2603 z m 533.3334 -301.3701 v -17.2971 l -22.1088 -84.3672 c -12.1599 -46.402 -22.224 -84.4825 -22.3647 -84.6233 c -.1408 -.1408 -29.3418 42.1582 -64.8913 93.9977 l -64.6352 94.2536 l -.4518 7.6667 l -.4517 7.6666 h 87.4517 h 87.4518 z M 1269.3334 891.33336 c 0 -163.80047 .014 -164.66667 2.6677 -164.66667 c 1.4673 0 14.2173 1.78255 28.3334 3.96121 c 76.5457 11.81404 155.8634 20.31704 226.6315 24.29532 L 1556 756.5554 V 906.27771 V 1056 h -143.3333 h -143.3333 z m 622.6667 11.46865 V 749.604 l 9.6666 -.88792 c 72.038 -6.61696 156.4671 -18.34278 232.3334 -32.26723 c 22 -4.03788 42.25 -7.66972 45 -8.07077 l 5 -.72918 V 881.82447 V 1056 h -146 h -146 z m 622.6666 -64.04282 V 621.51834 l 43 -14.13539 c 23.65 -7.77446 58.2246 -19.4973 76.8323 -26.05075 c 24.9881 -8.80053 34.4419 -11.5892 36.1638 -10.66765 c 1.2822 .68625 31.7622 11.10393 67.7332 23.1504 c 35.971 12.04648 66.0473 22.30163 66.8364 22.78923 c 1.0142 .62689 1.4344 65.10457 1.4344 220.14121 V 1056 h -146.0001 h -146 z m 626.6667 41.24084 c 0 -96.80001 .3886 -176.00001 .8635 -176.00001 c .4748 0 14.5833 2.69342 31.3521 5.98538 c 74.7022 14.66501 196.541 32.37061 254.4511 36.97677 l 4.6667 .37119 l .3389 154.33333 L 3433.3446 1056 H 3287.339 H 3141.3334 Z m 628.3277 26.33333 l .339 -149.66667 l 28.6667 -1.63493 c 65.9203 -3.75959 138.9192 -11.05202 204.6667 -20.44574 c 20.5333 -2.93372 38.3833 -5.65616 39.6666 -6.04986 c 2.2135 -.67906 2.3334 7.71416 2.3334 163.37401 V 1056 H 3907.3277 H 3769.322 Z" fill="#fdef11" stroke-width="1.33333"/><path d="M 2624.0001 5109.826 C 2249.9799 4870.5471 1934.4989 4606.7065 1666.3721 4308.9505 C 1359.5906 3968.2681 1115.766 3580.6701 934.38088 3145.3334 C 690.19467 2559.2701 553.25915 1875.1509 515.37244 1052 c -3.88976 -84.51145 -6.10976 -149.49723 -8.97305 -262.66664 c -2.97692 -117.66039 -1.39628 -548.11422 2.02525 -551.53575 c .29868 -.2987 13.07534 4.61789 28.39255 10.92574 c 335.19329 138.0374 656.19251 217.36768 970.51621 239.84899 c 68.5422 4.90233 86.3514 5.42768 184 5.42768 c 97.5113 0 116.2319 -.54876 184 -5.39367 c 191.9011 -13.71946 390.3715 -51.51288 580 -110.4456 c 59.4365 -18.47167 140.2328 -46.78097 192 -67.27266 l 20 -7.91687 l 8.6667 3.30574 c 260.9783 99.54519 510.756 157.96388 765.3333 178.99831 c 78.6808 6.50099 101.2384 7.30032 207.3334 7.34692 c 100.5053 .0441 118.5339 -.47287 186.6667 -5.35289 c 281.1761 -20.13933 566.7009 -86.91651 860.6666 -201.28868 c 29.542 -11.4938 99.8968 -40.48811 117.8586 -48.57136 c 5.0556 -2.27512 9.4839 -3.84469 9.8405 -3.48793 c .7832 .7831 2.2982 39.55983 4.2488 108.74535 c 6.424 227.84995 5.2684 460.6402 -3.339 672.66672 c -46.2466 1139.1788 -310.1763 2054.4904 -809.3015 2806.6667 c -201.9607 304.3524 -439.8342 578.8224 -722.7015 833.888 c -154.0884 138.9439 -325.3092 274.053 -507.9392 400.8114 c -43.2215 29.9987 -117.0195 79.3071 -118.5685 79.2219 c -.7873 -.044 -19.7316 -11.7863 -42.0982 -26.0954 z m 81.3333 -166.3021 c 137.3642 -91.4999 268.4644 -188.2436 394 -290.7467 c 587.8695 -480.0112 1004.1782 -1055.1714 1262.4107 -1744.1104 c 235.7566 -628.9753 345.5978 -1363.081 335.5103 -2242.32574 c -1.5723 -137.03979 -4.6011 -250.34105 -6.6923 -250.34105 c -.589 0 -15.8906 5.72484 -34.0036 12.72186 c -341.8201 132.04551 -678.2436 194.99411 -1019.8917 190.8332 c -126.7827 -1.54408 -234.2111 -10.00294 -360 -28.34629 c -189.8214 -27.68092 -396.466 -79.52476 -590.6667 -148.18875 l -18.6667 -6.60003 l -14 5.15845 c -51.1173 18.83475 -160.2933 53.7417 -226 72.25923 c -494.4741 139.3533 -970.4319 145.96377 -1452.91334 20.17916 c -105.29427 -27.45057 -229.59681 -67.17481 -322.99803 -103.22275 c -5.81789 -2.2454 -10.75178 -3.90874 -10.9642 -3.69633 c -.21242 .21241 -1.00769 56.75232 -1.76726 125.64423 c -3.28364 297.81964 4.96438 589.64411 24.02198 849.92471 c 71.05455 970.4327 299.74319 1721.6079 714.01605 2345.3334 c 191.6577 288.5583 424.6499 550.675 705.2715 793.4322 c 113.1138 97.8514 242.2124 197.9833 376 291.6348 c 82.0336 57.4235 205.0653 138.3024 207.8601 136.6436 c .8103 -.4809 18.5732 -12.2649 39.4732 -26.1868 z m 101.3334 -1139.3606 v -977.4965 h 167.3344 h 167.3344 l -.3344 848.2866 l -.3344 848.2866 l -29.3334 24.5479 c -80.2798 67.1826 -181.3021 145.3108 -270 208.8112 c -17.2333 12.3376 -32.0833 23.0236 -33 23.7465 c -1.333 1.0512 -1.6666 -194.3728 -1.6666 -976.1823 z m 165.3333 -674.8299 c 0 -.7333 -.2645 -1.3333 -.588 -1.3333 c -.3233 0 -.9588 .6 -1.412 1.3333 c -.4532 .7334 -.1887 1.3334 .588 1.3334 c .7765 0 1.412 -.6 1.412 -1.3334 z m -478.6667 1631.7663 c -101.8525 -70.9385 -196.8923 -142.3916 -283.6107 -213.2252 l -25.7309 -21.0176 v -849.4204 v -849.4204 l -105.6687 -.3413 c -58.1178 -.1878 16.2812 -.4695 165.3312 -.6262 l 271 -.2848 v 973.9515 c 0 535.6734 -.45 973.9286 -1 973.9006 c -.55 -.028 -9.7 -6.1102 -20.3333 -13.5162 z m -144 -1631.7663 c 0 -.7333 -.2645 -1.3333 -.588 -1.3333 c -.3233 0 -.9588 .6 -1.412 1.3333 c -.4532 .7334 -.1887 1.3334 .588 1.3334 c .7765 0 1.412 -.6 1.412 -1.3334 z m 852 1340.8299 c 0 -.2768 1.05 -1.3268 2.3334 -2.3333 c 2.1148 -1.6584 2.1618 -1.6113 .5034 .5035 c -1.7418 2.2209 -2.8368 2.9273 -2.8368 1.8298 z m 53.3334 -48 c 0 -.2768 1.05 -1.3268 2.3333 -2.3333 c 2.1148 -1.6584 2.1619 -1.6113 .5035 .5035 c -1.7419 2.2209 -2.8368 2.9273 -2.8368 1.8298 z m -1198.8369 -5.8298 c -1.6584 -2.1148 -1.6113 -2.1619 .5035 -.5035 c 1.2833 1.0065 2.3333 2.0565 2.3333 2.3333 c 0 1.0975 -1.0949 .3911 -2.8368 -1.8298 z m 1214.8369 -8.8368 c 0 -.2768 1.05 -1.3268 2.3333 -2.3334 c 2.1148 -1.6584 2.1619 -1.6113 .5035 .5035 c -1.7419 2.2209 -2.8368 2.9273 -2.8368 1.8299 z m 20 -18.6667 c 0 -.2768 1.05 -1.3268 2.3333 -2.3333 c 2.1148 -1.6584 2.1619 -1.6114 .5035 .5034 c -1.7419 2.221 -2.8368 2.9274 -2.8368 1.8299 z m -1282.8369 -16.4965 c -1.6584 -2.1148 -1.6113 -2.1619 .5035 -.5035 c 1.2833 1.0065 2.3333 2.0565 2.3333 2.3333 c 0 1.0975 -1.0949 .3911 -2.8368 -1.8298 z m 1308.1702 -7.6667 c 1.7223 -1.8333 3.4315 -3.3333 3.7981 -3.3333 c .3667 0 -.7425 1.5 -2.4648 3.3333 c -1.7222 1.8333 -3.4314 3.3333 -3.7981 3.3333 c -.3667 0 .7425 -1.5 2.4648 -3.3333 z m -1330.1267 -13 l -2.54 -3 l 3 2.54 c 1.65 1.3969 3 2.7469 3 3 c 0 1.0669 -1.0731 .2792 -3.46 -2.54 z m 1367.4043 -22.6667 c 5.5253 -5.8869 6.7224 -6.9454 6.7224 -5.9442 c 0 .214 -2.85 3.064 -6.3333 6.3333 l -6.3334 5.9443 z m -1397.3786 -6 l -3.2324 -3.6666 l 3.6667 3.2324 c 3.4271 3.0212 4.2781 4.1009 3.2324 4.1009 c -.2388 0 -1.8888 -1.65 -3.6667 -3.6667 z m 1464.7677 -61.6666 c 2.8642 -2.9334 5.5078 -5.3334 5.8745 -5.3334 c .3667 0 -1.6769 2.4 -4.5412 5.3334 c -2.8643 2.9333 -5.5079 5.3333 -5.8745 5.3333 c -.3667 0 1.6769 -2.4 4.5412 -5.3333 z m -1556.9339 -31 c -110.2108 -114.77 -204.002 -224.6936 -290.955 -341 l -17.4445 -23.3334 l .335 -519 l .335 -519 h 167.9984 h 167.9983 v 715.3333 c 0 393.4334 -.2384 715.3334 -.5298 715.3334 c -.2912 0 -12.773 -12.75 -27.7374 -28.3333 z m 1569.6667 -692.6609 l -.067 -710.9941 l -145.6667 -.3451 c -80.1166 -.1898 -4.5166 -.4925 168 -.6726 l 313.6673 -.3274 v 512.0787 c 0 359.7235 .4196 511.8194 1.4105 511.207 c 3.4097 -2.1074 -50.6111 69.0949 -90.5739 119.381 c -71.2031 89.5964 -157.9787 189.0078 -229.2804 262.6667 l -17.424 18 l -.067 -710.9942 z m 611.9721 -418.0058 l -.038 -294.3334 h 128.1426 c 121.506 0 128.0946 .1214 127.2128 2.3334 c -.5114 1.2833 -4.71 13.1333 -9.3301 26.3333 c -63.7955 182.2688 -143.7169 365.8785 -233.3096 536 l -12.6393 24 l -.039 -294.3333 z m -2796.9832 247.3333 c -66.4699 -130.7104 -128.541 -274.3359 -180.9898 -418.7903 c -17.157 -47.2536 -40.732 -115.7213 -40.732 -118.2957 c 0 -1.6491 16.7951 -1.914 121.3333 -1.914 h 121.3334 v 289.3333 c 0 159.1334 -.174 289.3334 -.3867 289.3334 c -.2126 0 -9.4638 -17.85 -20.5582 -39.6667 z M 1353 2664.3462 c 4.5834 -.2604 12.0834 -.2604 16.6667 0 c 4.5833 .2604 .8333 .4733 -8.3333 .4733 c -9.1667 0 -12.9167 -.2129 -8.3334 -.4733 z m 324.0001 .047 c 1.65 -.3179 4.35 -.3179 6 0 c 1.65 .3177 .3 .5777 -3 .5777 c -3.3 0 -4.65 -.26 -3 -.5777 z m 2274.0555 -.049 c 4.9805 -.2572 12.7805 -.2553 17.3333 0 c 4.5528 .2596 .4779 .47 -9.0554 .4678 c -9.5334 0 -13.2584 -.2148 -8.2779 -.472 z m -2300.6389 -1.2541 c .9626 -.3852 2.1126 -.3379 2.5556 .1053 c .4431 .4431 -.3445 .7583 -1.75 .7004 c -1.5533 -.064 -1.8692 -.38 -.8056 -.8056 z m 57.3334 0 c .9625 -.3852 2.1125 -.3379 2.5556 .1053 c .443 .4431 -.3446 .7583 -1.75 .7004 c -1.5534 -.064 -1.8692 -.38 -.8056 -.8056 z m 2216 0 c .9626 -.3852 2.1126 -.3379 2.5556 .1053 c .4431 .4431 -.3445 .7583 -1.75 .7004 c -1.5533 -.064 -1.8692 -.38 -.8056 -.8056 z m 69.3334 0 c .9625 -.3852 2.1125 -.3379 2.5556 .1053 c .443 .4431 -.3446 .7583 -1.75 .7004 c -1.5534 -.064 -1.8692 -.38 -.8056 -.8056 z m -1417.421 -99.4225 l .5546 -97 h -32.1085 h -32.1085 v 42 v 42 h -38.769 h -38.769 l 4.1285 -3.4739 c 7.4564 -6.2741 11.1343 -14.3368 11.802 -25.8725 c .7816 -13.5015 -1.8881 -21.6544 -10.0708 -30.7556 c -7.2717 -8.0879 -13.9535 -12.5435 -24.1801 -16.124 c -19.4079 -6.7951 -20.061 -6.8356 -119.1416 -7.3964 l -93 -.5266 v 42.0746 v 42.0744 h -38.1699 h -38.1697 l 5.4476 -5.91 c 7.6728 -8.324 9.9444 -14.2192 10.0777 -26.1538 c .099 -8.805 -.4343 -11.1741 -4.2593 -18.944 c -7.3522 -14.9345 -21.1592 -24.0001 -44.7251 -29.3661 c -11.6052 -2.6425 -16.7447 -2.8025 -105.2013 -3.2767 l -93 -.4984 v 42.0746 v 42.0744 h -29.0272 h -29.0272 l -3.0019 -9.6667 c -9.5524 -30.7616 -41.5285 -57.0567 -84.5291 -69.5109 c -42.4702 -12.3007 -107.6758 -11.2071 -148.4797 2.4904 c -37.6895 12.6518 -67.0575 38.2972 -75.94 66.3137 l -3.0776 9.7068 l -124.1524 .3403 l -124.1525 .3401 l .8583 -3.6735 c 1.9867 -8.5029 8.8734 -20.3946 15.8529 -27.3741 c 8.1726 -8.1725 23.4801 -16.7996 36.0097 -20.2944 c 12.487 -3.4829 49.1428 -4.294 63.4101 -1.4031 c 19.4276 3.9366 30.1961 10.7912 33.9039 21.5811 l 1.7697 5.1503 l 30.3096 .3588 l 30.3095 .3589 l -.8476 -6.1836 c -3.8735 -28.2604 -31.8588 -47.2663 -79.5219 -54.0063 c -14.8209 -2.0958 -61.2231 -2.1189 -77.3333 -.039 c -50.861 6.568 -86.3851 23.5714 -104.2702 49.9084 c -5.5371 8.1537 -13.011 26.8321 -13.0453 32.6021 l -.018 3.0001 l -32.3333 -.069 l -32.3333 -.069 l -72.4637 -65.5978 l -72.4637 -65.5976 l 820.1303 -.3344 c 451.0718 -.184 1189.0561 -.184 1639.9653 0 l 819.8348 .3344 l -63.6961 65.3334 l -63.6962 65.3333 l -68.472 .6667 c -37.6596 .3666 -70.582 .245 -73.1608 -.2702 c -2.5788 -.5152 -19.052 -2.7789 -36.607 -5.0305 c -48.9855 -6.2828 -69.4767 -11.2832 -77.6316 -18.9443 c -7.079 -6.6504 -2.3207 -18.0462 10.18 -24.3808 c 19.1482 -9.7032 66.9364 -11.168 91.0268 -2.7901 c 11.4028 3.9655 18.1293 8.9885 20.9105 15.6149 l 2.1435 5.1072 l 27.6666 .013 l 27.6667 .013 v -3.1215 c 0 -5.6313 -3.5908 -15.2062 -8.0111 -21.3612 c -16.0522 -22.3524 -61.9544 -34.5969 -121.3222 -32.363 c -56.9756 2.1438 -92.8118 14.9404 -106.3544 37.9776 c -3.3155 5.6398 -3.6456 7.4089 -3.6456 19.5348 c 0 14.35 1.4541 18.9077 8.4017 26.3333 l 3.4305 3.6667 h -36.2494 h -36.2495 v -3.3334 v -3.3333 H 3706 H 3633.3333 v -24 v -24 H 3712 h 78.6667 v -14.6667 v -14.6666 H 3681.3333 H 3572 v 42 v 42 h -76 h -76 l -.306 55.6666 c -.1925 35.0364 -.4739 44.7956 -.7592 26.3334 c -.2493 -16.1334 -.041 -52.8834 .4621 -81.6667 l .9155 -52.3333 h 53.1772 h 53.1771 v -16 v -16 H 3388 H 3249.3333 v 16 v 16 h 54 h 54 v 26 v 26 h -75.3186 h -75.3188 l -.4608 55 c -.2534 30.25 -.2111 11.35 .093 -42 l .5547 -97 h -29.4419 h -29.4419 v 42 v 42 h -29.0916 h -29.0916 l -37.1818 -42 l -37.1819 -42 h -43.0599 h -43.0598 v 42 v 42 h -35.3334 h -35.3333 v -3.3334 v -3.3333 h -72.6667 h -72.6666 v -24 v -24 h 79.3333 h 79.3333 v -14.6667 v -14.6666 h -109.3333 h -109.3334 v 42 v 42 h -38.652 h -38.6521 l -.4608 55 c -.2533 30.25 -.2111 11.35 .093 -42 z m 1368.0876 68.7558 c .9626 -.3852 2.1126 -.3378 2.5556 .1054 c .4431 .443 -.3445 .7582 -1.75 .7004 c -1.5533 -.064 -1.8692 -.38 -.8056 -.8056 z m 34.6667 0 c .9625 -.3852 2.1125 -.3378 2.5556 .1054 c .4431 .443 -.3445 .7582 -1.75 .7004 c -1.5533 -.064 -1.8692 -.38 -.8056 -.8056 z m -2310.7501 -1.3057 c .9167 -.3699 2.4167 -.3699 3.3334 0 c .9166 .3699 .1666 .6725 -1.6667 .6725 c -1.8333 0 -2.5833 -.3026 -1.6667 -.6725 z m 21.3334 0 c .9166 -.3699 2.4166 -.3699 3.3333 0 c .9167 .3699 .1667 .6725 -1.6667 .6725 c -1.8333 0 -2.5833 -.3026 -1.6666 -.6725 z m 1943.6259 -28.7828 l .041 -28.3341 l 72.3335 -.017 l 72.3335 -.017 l -71.9737 .3623 l -71.9737 .3621 l -.4005 27.9893 l -.4006 27.9895 l .04 -28.3343 z m 456.9673 -.3341 c .027 -2.2 .326 -2.9386 .6642 -1.6414 c .338 1.2974 .3158 3.0974 -.049 4 c -.3652 .9028 -.6417 -.1586 -.6146 -2.3586 z m -226.9265 -.6667 l -26 -.754 l 25.588 -.2896 c 15.9407 -.1805 25.8987 .2129 26.412 1.0436 c .4532 .7333 .6387 1.2029 .412 1.0436 c -.2265 -.1593 -12.112 -.6289 -26.412 -1.0436 z M 2025.0834 2579.09 c .9625 -.3852 2.1125 -.3379 2.5556 .1053 c .4431 .4431 -.3445 .7583 -1.75 .7004 c -1.5533 -.064 -1.8692 -.38 -.8056 -.8056 z m 308 0 c .9625 -.3852 2.1125 -.3379 2.5556 .1053 c .4431 .4431 -.3445 .7583 -1.75 .7004 c -1.5533 -.064 -1.8692 -.38 -.8056 -.8056 z m 417.25 -5.4216 c 19.9834 -.2075 52.6834 -.2075 72.6667 0 c 19.9833 .2073 3.6333 .377 -36.3333 .377 c -39.9667 0 -56.3167 -.1697 -36.3334 -.377 z m -1476.8948 -3.7787 c .064 -1.5533 .38 -1.8692 .8056 -.8056 c .3851 .9625 .3378 2.1125 -.1052 2.5556 c -.4431 .4431 -.7582 -.3445 -.7003 -1.75 z m 312.1546 -2.5556 c .027 -2.2 .326 -2.9385 .6642 -1.6413 c .338 1.2973 .3158 3.0973 -.049 4 c -.3652 .9028 -.6417 -.1587 -.6146 -2.3587 z m -63.8785 -4 c .013 -3.6667 .2689 -5.0084 .5755 -2.9817 c .3064 2.0268 .2982 5.0268 -.019 6.6666 c -.3164 1.64 -.5672 -.019 -.5572 -3.6849 z m 63.8292 -3.3333 c 0 -1.8334 .3027 -2.5834 .6725 -1.6667 c .3699 .9167 .3699 2.4167 0 3.3333 c -.3698 .9167 -.6725 .1667 -.6725 -1.6666 z m -312.1053 -2.1111 c .064 -1.5533 .38 -1.8692 .8056 -.8056 c .3851 .9625 .3378 2.1125 -.1052 2.5556 c -.4431 .4431 -.7582 -.3445 -.7003 -1.75 z M 1588 2548.213 c 0 -5.7973 8.3298 -18.9351 17.2203 -27.1599 c 16.4712 -15.238 37.7015 -23.0578 66.7798 -24.5976 c 49.562 -2.6244 89.7948 18.1211 99.3164 51.2112 l .8633 3 h -92.0899 c -88.5368 0 -92.0899 -.095 -92.0899 -2.4537 z m 1398.6668 -15.5463 c 0 -9.9 .2177 -18 .4837 -18 c .5025 0 25.0101 27.5747 29.2797 32.944 l 2.4302 3.056 h -16.0968 h -16.0968 z m -1029.3334 -9.9802 v -25.6342 l 46.3333 .634 c 48.5651 .6644 58.6691 1.6723 67.6271 6.7459 c 8.0213 4.5432 10.7063 9.116 10.7063 18.2345 c 0 12.5824 -5.8892 18.2935 -22.8584 22.1666 c -6.9446 1.585 -20.2775 2.2549 -55.475 2.7869 l -46.3333 .7004 z m 308 -.027 v -25.6273 l 46.3333 .6585 c 27.6548 .3929 49.593 1.2999 54.4191 2.2495 c 16.0617 3.1606 23.5553 10.3844 23.5553 22.707 c 0 12.6604 -7.7728 19.5672 -25.641 22.7847 c -4.894 .8812 -28.2555 1.8423 -53.6667 2.2079 l -45 .6472 z m -604.4607 -216.9931 c -.3398 -.55 16.0674 -1 36.4607 -1 c 20.3933 0 36.8005 .45 36.4607 1 c -.3399 .55 -16.7472 1 -36.4607 1 c -19.7135 0 -36.1208 -.45 -36.4607 -1 z m 1643.4607 -1.3328 c 27.6834 -.2013 72.9834 -.2013 100.6667 0 c 27.6833 .2012 5.0333 .3659 -50.3333 .3659 c -55.3667 0 -78.0167 -.1647 -50.3334 -.3659 z m -109.2853 -55.6672 c .013 -3.6666 .2689 -5.0084 .5755 -2.9817 c .3064 2.0268 .2982 5.0268 -.019 6.6667 c -.3164 1.64 -.5672 -.019 -.5572 -3.685 z m -1909.2882 -9.6658 c 18.9346 -.2087 49.5345 -.2086 68 .0004 c 18.4655 .209 2.9735 .3798 -34.4265 .3796 c -37.4 -.0003 -52.5081 -.1712 -33.5735 -.38 z M 933.42654 1438.1907 c -.0833 -708.96508 .12186 -793.06015 1.93252 -792.36532 c 5.18481 1.9896 59.16024 17.65431 87.30764 25.33836 c 75.0151 20.47863 160.8709 39.69674 232.6667 52.08051 c 10.2666 1.77085 17.6166 3.26535 16.3333 3.32109 c -2.2091 .096 -2.3333 8.87012 -2.3333 164.76802 V 1056 h -35.6668 h -35.6668 l -123.9385 551.0001 c -68.1661 303.05 -127.67415 567.5 -132.24002 587.6666 l -8.30157 36.6667 l -.0932 -793.1427 z m 2950.99156 771.4779 c 12.3299 -.2203 32.1299 -.2199 44 .0009 c 11.8702 .2208 1.782 .401 -22.418 .4004 c -24.2 -.0004 -33.9118 -.181 -21.582 -.4013 z m 201.2247 -43.0019 c 0 -2.5666 .2744 -3.6166 .6097 -2.3333 c .3355 1.2833 .3355 3.3833 0 4.6667 c -.3353 1.2833 -.6097 .2333 -.6097 -2.3334 z m 276.0573 -86.344 c -10.4317 -45.2774 -47.511 -205.3226 -82.3984 -355.656 c -57.094 -246.024 -148.4481 -641.4213 -152.7198 -661 L 4124.9091 1056 h -39.7878 h -39.7878 V 892.00003 c 0 -91.0226 .5117 -164.00001 1.1501 -164.00001 c 2.8709 0 64.2707 -11.28249 90.4588 -16.62226 c 74.4864 -15.18774 169.7777 -39.48571 232.0577 -59.1715 l 12.3334 -3.89839 v 757.17933 c 0 416.4489 -.15 757.1747 -.3334 757.1689 c -.1833 0 -8.8684 -37.0559 -19.3 -82.3334 z m -276.1068 73.6774 c .027 -2.2 .326 -2.9386 .6642 -1.6414 c .338 1.2974 .3158 3.0974 -.049 4 c -.3652 .9028 -.6417 -.1586 -.6146 -2.3586 z m -1189.2569 -85.3334 c .015 -2.9333 .2878 -3.9764 .6068 -2.3177 c .3189 1.6585 .3068 4.0585 -.027 5.3333 c -.3337 1.2747 -.5947 -.083 -.5799 -3.0156 z m 1222.6357 -53.6601 l -.3053 -29.6601 l -131 -.3466 l -131 -.3464 l 131.0419 -.3268 c 105.1965 -.2622 131.1704 .013 131.694 1.373 c .3588 .9348 .4773 14.5848 .2636 30.3333 l -.3888 28.6337 z m -1438.7615 3.6601 c 0 -1.8333 .3027 -2.5833 .6726 -1.6666 c .3698 .9166 .3698 2.4166 0 3.3333 c -.3699 .9167 -.6726 .1667 -.6726 -1.6667 z m 691.4562 -31.6661 c 28.05 -.2011 73.95 -.2011 102 0 c 28.05 .2009 5.1 .3655 -51 .3655 c -56.1 0 -79.05 -.1646 -51 -.3655 z M 1876.3334 1851.0001 c 426.6167 -.1846 1124.7167 -.1846 1551.3334 0 c 426.6167 .1845 77.5666 .3356 -775.6667 .3356 c -853.2334 0 -1202.2834 -.1511 -775.6667 -.3356 z m -718 -79.9995 c 26.5833 -.2019 70.0833 -.2019 96.6666 0 c 26.5834 .2019 4.8334 .3671 -48.3333 .3671 c -53.1667 0 -74.9167 -.1652 -48.3333 -.3671 z m 581.4167 -1.2447 c .9625 -.3852 2.1125 -.3378 2.5556 .1054 c .443 .443 -.3446 .7582 -1.75 .7004 c -1.5534 -.064 -1.8692 -.38 -.8056 -.8056 z m 1547.9167 -.031 c 1.65 -.3179 4.35 -.3179 6 0 c 1.65 .3177 .3 .5777 -3 .5777 c -3.3 0 -4.65 -.26 -3 -.5777 z m 637.3333 -.059 c 47.1167 -.1941 124.2167 -.1941 171.3334 0 c 47.1166 .1943 8.5666 .3532 -85.6667 .3532 c -94.2333 0 -132.7833 -.1589 -85.6667 -.3532 z m 608.4386 -7.7779 c .064 -1.5533 .38 -1.8692 .8056 -.8056 c .3852 .9626 .3378 2.1126 -.1054 2.5556 c -.443 .4431 -.7582 -.3445 -.7004 -1.75 z m -1246.7719 -3.9665 c 4.9544 -1.0779 11.7524 -1.2668 11.161 -.3101 c -.3584 .58 -3.4664 .985 -6.9064 .9 c -3.4401 -.085 -5.3546 -.3506 -4.2546 -.5899 z M 801.43863 1741.889 c .064 -1.5533 .37992 -1.8692 .80554 -.8056 c .38516 .9625 .3378 2.1125 -.1052 2.5556 c -.44305 .4431 -.75818 -.3445 -.70029 -1.75 z m -4.00001 -38.6667 c .064 -1.5533 .37992 -1.8692 .80555 -.8056 c .38516 .9626 .3378 2.1126 -.1052 2.5556 c -.44305 .4431 -.75819 -.3445 -.70029 -1.75 z m 3067.04218 -11.2222 c 0 -6.9667 .2247 -9.8167 .4993 -6.3334 c .2747 3.4834 .2747 9.1834 0 12.6667 c -.2746 3.4833 -.4993 .6333 -.4993 -6.3333 z M 796.10529 1689.889 c .064 -1.5533 .37992 -1.8692 .80555 -.8056 c .38516 .9625 .3378 2.1125 -.1052 2.5556 c -.44306 .4431 -.75819 -.3445 -.7003 -1.75 z M 4542.772 1675.2223 c .064 -1.5533 .38 -1.8692 .8056 -.8056 c .3852 .9626 .3379 2.1126 -.1053 2.5556 c -.4431 .4431 -.7583 -.3445 -.7004 -1.75 z m -1822.3344 -17.2222 c 0 -5.1334 .2469 -7.07 .5356 -4.3036 c .2886 2.7664 .2837 6.9664 -.013 9.3333 c -.2945 2.3669 -.5306 .104 -.5248 -5.0297 z m -1926.99898 3.8889 c .064 -1.5533 .37992 -1.8692 .80555 -.8056 c .38516 .9625 .3378 2.1125 -.1052 2.5556 c -.44305 .4431 -.75819 -.3445 -.70029 -1.75 z m 3750.66668 0 c .064 -1.5533 .38 -1.8692 .8056 -.8056 c .3852 .9625 .3379 2.1125 -.1053 2.5556 c -.4431 .4431 -.7583 -.3445 -.7004 -1.75 z m -2626.3344 -11.8889 c 0 -5.1334 .2469 -7.07 .5356 -4.3036 c .2886 2.7664 .2837 6.9664 -.013 9.3333 c -.2945 2.3669 -.5306 .104 -.5248 -5.0297 z M 4546.772 1633.889 c .064 -1.5533 .38 -1.8692 .8056 -.8056 c .3852 .9625 .3379 2.1125 -.1053 2.5556 c -.4431 .4431 -.7583 -.3445 -.7004 -1.75 z m -3757.33338 -16 c .064 -1.5533 .37992 -1.8692 .80555 -.8056 c .38516 .9625 .3378 2.1125 -.1052 2.5556 c -.44305 .4431 -.75819 -.3445 -.70029 -1.75 z m 2195.99998 -13.3333 c .064 -1.5534 .38 -1.8692 .8056 -.8056 c .3852 .9625 .3379 2.1125 -.1053 2.5556 c -.4431 .443 -.7583 -.3446 -.7004 -1.75 z m -2197.33331 -1.3334 c .064 -1.5533 .37992 -1.8692 .80555 -.8056 c .38516 .9626 .3378 2.1126 -.1052 2.5556 c -.44306 .4431 -.75819 -.3445 -.7003 -1.75 z M 4550.772 1589.889 c .064 -1.5534 .38 -1.8692 .8056 -.8056 c .3852 .9625 .3379 2.1125 -.1053 2.5556 c -.4431 .443 -.7583 -.3446 -.7004 -1.75 z m -3764.00004 -2.6667 c .064 -1.5533 .37992 -1.8692 .80554 -.8056 c .38516 .9625 .3378 2.1125 -.1052 2.5556 c -.44305 .4431 -.75818 -.3445 -.70029 -1.75 z m 2961.56154 -.2151 c 6.4166 -.2444 16.9166 -.2444 23.3333 0 c 6.4167 .2444 1.1667 .4444 -11.6667 .4444 c -12.8333 0 -18.0833 -.2 -11.6666 -.4444 z m -177.3334 -1.3316 c 5.6833 -.25 14.9833 -.25 20.6667 0 c 5.6833 .2499 1.0333 .4544 -10.3334 .4544 c -11.3666 0 -16.0166 -.2045 -10.3333 -.4544 z M 785.43862 1571.2223 c .064 -1.5533 .37992 -1.8692 .80555 -.8056 c .38516 .9625 .3378 2.1125 -.1052 2.5556 c -.44305 .4431 -.75819 -.3445 -.70029 -1.75 z m 3768.00008 -12 c .064 -1.5533 .38 -1.8692 .8056 -.8056 c .3852 .9625 .3378 2.1125 -.1054 2.5556 c -.443 .4431 -.7582 -.3445 -.7004 -1.75 z m -3769.33341 -4 c .064 -1.5533 .37992 -1.8692 .80555 -.8056 c .38516 .9625 .3378 2.1125 -.1052 2.5556 c -.44306 .4431 -.75819 -.3445 -.7003 -1.75 z M 4554.772 1541.889 c .064 -1.5534 .38 -1.8692 .8056 -.8056 c .3852 .9625 .3379 2.1125 -.1053 2.5556 c -.4431 .443 -.7583 -.3446 -.7004 -1.75 z m -3772.00004 -4 c .064 -1.5534 .37992 -1.8692 .80554 -.8056 c .38516 .9625 .3378 2.1125 -.1052 2.5556 c -.44305 .443 -.75818 -.3446 -.70029 -1.75 z m 1115.99994 -1.3334 c .064 -1.5533 .38 -1.8692 .8056 -.8056 c .3852 .9626 .3379 2.1126 -.1053 2.5556 c -.4431 .4431 -.7583 -.3445 -.7004 -1.75 z m 2657.3334 -10.6666 c .064 -1.5534 .38 -1.8692 .8056 -.8056 c .3852 .9625 .3379 2.1125 -.1053 2.5556 c -.4431 .443 -.7583 -.3446 -.7004 -1.75 z m -3774.66668 -5.3334 c .064 -1.5533 .37992 -1.8692 .80555 -.8056 c .38516 .9626 .3378 2.1126 -.1052 2.5556 c -.44305 .4431 -.75819 -.3445 -.70029 -1.75 z m 3776.00008 -12 c .064 -1.5533 .38 -1.8692 .8056 -.8056 c .3852 .9626 .3378 2.1126 -.1054 2.5556 c -.443 .4431 -.7582 -.3445 -.7004 -1.75 z m -3777.33341 -5.3333 c .064 -1.5533 .37992 -1.8692 .80555 -.8056 c .38516 .9625 .3378 2.1125 -.1052 2.5556 c -.44306 .4431 -.75819 -.3445 -.7003 -1.75 z M 4558.772 1489.889 c .064 -1.5534 .38 -1.8692 .8056 -.8056 c .3852 .9625 .3379 2.1125 -.1053 2.5556 c -.4431 .443 -.7583 -.3446 -.7004 -1.75 z m -3780.00004 -5.3334 c .064 -1.5533 .37992 -1.8692 .80554 -.8056 c .38516 .9626 .3378 2.1126 -.1052 2.5556 c -.44305 .4431 -.75818 -.3445 -.70029 -1.75 z m 2865.64134 -11.8889 c .013 -4.4 .2564 -6.0392 .5531 -3.6428 c .2968 2.3965 .2906 5.9965 -.013 8 c -.3041 2.0036 -.5469 .043 -.5394 -4.3572 z m 915.692 -1.4444 c .064 -1.5533 .38 -1.8692 .8056 -.8056 c .3852 .9625 .3379 2.1125 -.1053 2.5556 c -.4431 .4431 -.7583 -.3445 -.7004 -1.75 z m -3782.56142 -5.8889 c 0 -1.8334 .30264 -2.5834 .67252 -1.6667 c .36988 .9167 .36988 2.4167 0 3.3333 c -.36988 .9167 -.67252 .1667 -.67252 -1.6666 z M 4561.544 1452 c 0 -1.8333 .3027 -2.5833 .6725 -1.6666 c .3699 .9166 .3699 2.4166 0 3.3333 c -.3698 .9167 -.6725 .1667 -.6725 -1.6667 z m -3785.33346 -6.6666 c 0 -1.8334 .30264 -2.5834 .67252 -1.6667 c .36988 .9167 .36988 2.4167 0 3.3333 c -.36988 .9167 -.67252 .1667 -.67252 -1.6666 z M 4562.8773 1432 c 0 -1.8333 .3027 -2.5833 .6726 -1.6666 c .3698 .9166 .3698 2.4166 0 3.3333 c -.3699 .9167 -.6726 .1667 -.6726 -1.6667 z m -3788.00009 -6.6666 c 0 -1.8334 .30264 -2.5834 .67252 -1.6667 c .36988 .9167 .36988 2.4167 0 3.3333 c -.36988 .9167 -.67252 .1667 -.67252 -1.6666 z m 3789.33349 -14.6667 c 0 -1.8333 .3026 -2.5833 .6725 -1.6667 c .3699 .9167 .3699 2.4167 0 3.3334 c -.3699 .9166 -.6725 .1666 -.6725 -1.6667 z m -3790.66682 -8 c 0 -1.8333 .30264 -2.5833 .67252 -1.6667 c .36988 .9167 .36988 2.4167 0 3.3334 c -.36988 .9166 -.67252 .1666 -.67252 -1.6667 z M 4565.544 1388 c 0 -1.8333 .3027 -2.5833 .6725 -1.6666 c .3699 .9166 .3699 2.4166 0 3.3333 c -.3698 .9167 -.6725 .1667 -.6725 -1.6667 z m -3793.28404 -7.3333 c .0272 -2.2 .326 -2.9385 .66405 -1.6413 c .33805 1.2973 .31583 3.0973 -.0495 4 c -.36524 .9028 -.64182 -.1587 -.61465 -2.3587 z m 3794.61734 -15.3333 c 0 -1.8334 .3027 -2.5834 .6726 -1.6667 c .3698 .9167 .3698 2.4167 0 3.3333 c -.3699 .9167 -.6726 .1667 -.6726 -1.6666 z m -3796.00009 -8 c 0 -1.8334 .30264 -2.5834 .67252 -1.6667 c .36988 .9167 .36988 2.4167 0 3.3333 c -.36988 .9167 -.67252 .1667 -.67252 -1.6666 z M 4568.2107 1340 c 0 -1.8333 .3026 -2.5833 .6725 -1.6666 c .3699 .9166 .3699 2.4166 0 3.3333 c -.3699 .9167 -.6725 .1667 -.6725 -1.6667 z m -3798.61741 -7.3333 c .0272 -2.2 .326 -2.9386 .66405 -1.6413 c .33806 1.2973 .31583 3.0973 -.0495 4 c -.36524 .9028 -.64183 -.1587 -.61466 -2.3587 z M 4569.5933 1314 c .027 -2.2 .326 -2.9385 .6642 -1.6413 c .338 1.2973 .3158 3.0973 -.049 4 c -.3652 .9028 -.6417 -.1587 -.6146 -2.3587 z m -3801.33334 -8 c .0272 -2.2 .326 -2.9385 .66405 -1.6413 c .33805 1.2973 .31583 3.0973 -.0495 4 c -.36524 .9028 -.64182 -.1587 -.61465 -2.3587 z m 3802.66674 -21.3333 c .027 -2.2 .326 -2.9386 .6641 -1.6413 c .338 1.2973 .3159 3.0973 -.049 4 c -.3652 .9027 -.6418 -.1587 -.6147 -2.3587 z M 766.92662 1278 c .0272 -2.2 .326 -2.9385 .66406 -1.6413 c .33805 1.2973 .31582 3.0973 -.0495 4 c -.36524 .9028 -.64183 -.1587 -.61465 -2.3587 z m 3805.38288 -24.6666 c 0 -2.5667 .2744 -3.6167 .6097 -2.3334 c .3355 1.2834 .3355 3.3834 0 4.6667 c -.3353 1.2833 -.6097 .2333 -.6097 -2.3333 z M 765.64269 1248 c 0 -2.5666 .2744 -3.6166 .60977 -2.3333 c .33536 1.2833 .33536 3.3833 0 4.6667 c -.33537 1.2833 -.60977 .2333 -.60977 -2.3334 z m 945.12921 -3.4444 c .064 -1.5533 .38 -1.8692 .8056 -.8056 c .3852 .9625 .3379 2.1125 -.1053 2.5556 c -.4431 .4431 -.7583 -.3445 -.7004 -1.75 z M 4573.6697 1218 c .015 -2.9333 .2879 -3.9763 .6068 -2.3177 c .319 1.6585 .3068 4.0585 -.027 5.3333 c -.3338 1.2748 -.5947 -.082 -.5799 -3.0156 z m -3809.36034 -3.3333 c 0 -2.5667 .2744 -3.6167 .60977 -2.3333 c .33536 1.2833 .33536 3.3833 0 4.6666 c -.33537 1.2834 -.60977 .2334 -.60977 -2.3333 z m 1205.28394 -7.3333 c .027 -2.2 .326 -2.9386 .6641 -1.6413 c .338 1.2973 .3159 3.0973 -.049 4 c -.3652 .9027 -.6418 -.1587 -.6147 -2.3587 z m 0 -22.6667 c .027 -2.2 .326 -2.9386 .6641 -1.6413 c .338 1.2973 .3159 3.0973 -.049 4 c -.3652 .9027 -.6418 -.1587 -.6147 -2.3587 z m 1444.2135 -8 c 0 -6.6 .2213 -9.4681 .5009 -6.3736 c .2797 3.0946 .2829 8.4946 .013 12 c -.2756 3.5055 -.5044 .9736 -.5084 -5.6264 z m -2650.77696 2 c 0 -3.3 .26002 -4.65 .57782 -3 c .31782 1.65 .31782 4.35 0 6 c -.3178 1.65 -.57782 .3 -.57782 -3 z m 3812.00016 0 c 0 -3.3 .26 -4.65 .5777 -3 c .3179 1.65 .3179 4.35 0 6 c -.3177 1.65 -.5777 .3 -.5777 -3 z m -3302.6304 -32 c 0 -4.0333 .2499 -5.6833 .5554 -3.6667 c .3055 2.0167 .3055 5.3167 0 7.3334 c -.3055 2.0166 -.5554 .3666 -.5554 -3.6667 z M 761.7147 1138 c .0107 -3.6666 .26896 -5.0084 .57543 -2.9816 c .30648 2.0267 .29828 5.0267 -.0181 6.6666 c -.31648 1.64 -.56723 -.018 -.55723 -3.685 z m 3814.685 -7.3333 c 0 -4.0333 .2499 -5.6833 .5555 -3.6667 c .3055 2.0167 .3055 5.3167 0 7.3334 c -.3056 2.0166 -.5555 .3666 -.5555 -3.6667 z M 3414.772 1096.5556 c .064 -1.5533 .38 -1.8692 .8056 -.8056 c .3852 .9625 .3378 2.1125 -.1054 2.5556 c -.443 .443 -.7582 -.3445 -.7004 -1.75 z m -2654.37243 -5.8889 c 0 -4.0333 .24996 -5.6833 .55545 -3.6667 c .30551 2.0167 .30551 5.3167 0 7.3334 c -.30549 2.0166 -.55545 .3666 -.55545 -3.6667 z m 556.03423 4.3336 c 32.872 -.1987 86.272 -.1986 118.6666 .0002 c 32.3948 .1987 5.4996 .3613 -59.767 .3612 c -65.2667 -.0001 -91.7715 -.1627 -58.8996 -.3614 z m 576.6496 .089 c .9625 -.3851 2.1125 -.3378 2.5556 .1052 c .4431 .4431 -.3445 .7582 -1.75 .7003 c -1.5533 -.064 -1.8692 -.3799 -.8056 -.8055 z m 2063.9167 -2.7539 c 13.3834 -.2175 35.2834 -.2175 48.6667 0 c 13.3833 .2175 2.4333 .3954 -24.3333 .3954 c -26.7667 0 -37.7167 -.1779 -24.3334 -.3954 z m 620.7904 -25.0019 c 0 -5.8667 .2394 -8.1008 .521 -4.9648 c .2816 3.1361 .2777 7.9361 -.013 10.6667 c -.2865 2.7306 -.5169 .1647 -.5121 -5.7019 z M 1556 906.66669 V 757.33336 l 6.3334 .0189 c 3.4833 .0107 29.4333 .62009 57.6667 1.35485 c 51.9808 1.35279 131.3836 .16246 182.219 -2.73165 c 30.4988 -1.73632 76.8007 -5.06401 84.1143 -6.04524 l 5.6667 -.76028 V 902.58501 V 1056 h -168 H 1556 V 906.66671 Z m 628.0001 -24.66666 c 0 -138.26063 -.3423 -174.01945 -1.6667 -174.09467 c -.9167 -.052 4.0333 -1.27446 11 -2.71642 c 96.8296 -20.04179 198.1393 -46.08052 295.8151 -76.03071 c 11.9982 -3.67901 22.6482 -7.00885 23.6666 -7.39965 c 1.5752 -.60448 1.8516 31.74691 1.8516 216.76546 V 1056 h -165.3333 h -165.3333 z m 622.3412 -46.01478 c -.2268 -146.26598 .1053 -219.84511 .9921 -219.50856 c .7334 .27841 15.4334 4.81541 32.6667 10.0822 c 89.1359 27.2414 182.6573 51.6836 268 70.04277 l 32.6667 7.02736 l .3382 176.18551 l .3383 176.18547 h -167.3304 h -167.3304 z m 626.6699 65.62886 l -.3444 -154.38591 l 8.6666 .98252 c 28.0382 3.17865 93.6459 7.23057 150 9.26398 c 40.5624 1.46359 167.3737 .78607 175.3334 -.93677 l 3.3333 -.72148 l -.3446 150.09179 L 3769.3107 1056 H 3601.3332 H 3433.3556 Z M 759.09345 1032 c 0 -4.7666 .242 -6.7166 .53777 -4.3333 c .29576 2.3833 .29576 6.2833 0 8.6667 c -.29577 2.3833 -.53777 .4333 -.53777 -4.3334 z M 4579.2695 916.00003 c 0 -26.76667 .1778 -37.71667 .3954 -24.33334 c .2175 13.38334 .2175 35.28334 0 48.66667 c -.2176 13.38334 -.3954 2.43334 -.3954 -24.33333 z M 757.83758 946.6667 c 0 -8.43334 .2165 -11.88334 .4811 -7.66667 c .2646 4.21667 .2646 11.11667 0 15.33333 c -.2646 4.21667 -.4811 .76667 -.4811 -7.66666 z M 4577.7905 762.00002 c 0 -5.86666 .2394 -8.10081 .521 -4.96476 c .2816 3.13606 .2777 7.93606 -.013 10.66667 c -.2865 2.73061 -.5169 .16476 -.5121 -5.70191 z M 1533 755.11698 c .9167 -.36988 2.4167 -.36988 3.3334 0 c .9166 .36988 .1666 .67252 -1.6667 .67252 c -1.8333 0 -2.5833 -.30264 -1.6667 -.67252 z m 2254.6668 0 c .9167 -.36988 2.4167 -.36988 3.3333 0 c .9167 .36988 .1667 .67252 -1.6666 .67252 c -1.8334 0 -2.5834 -.30264 -1.6667 -.67252 z M 1511.75 753.75588 c .9626 -.38516 2.1126 -.3378 2.5556 .1052 c .4431 .44305 -.3445 .75818 -1.75 .70029 c -1.5533 -.064 -1.8692 -.37992 -.8056 -.80555 z m 2299.9168 .0277 c .9167 -.36988 2.4167 -.36988 3.3333 0 c .9167 .36988 .1667 .67252 -1.6666 .67252 c -1.8334 0 -2.5834 -.30264 -1.6667 -.67252 z M 1493.0834 752.4225 c .9625 -.38516 2.1125 -.3378 2.5556 .1052 c .443 .44306 -.3446 .75819 -1.75 .7003 c -1.5534 -.064 -1.8692 -.37992 -.8056 -.80555 z m 2338.5834 .0277 c .9167 -.36988 2.4167 -.36988 3.3333 0 c .9167 .36988 .1667 .67252 -1.6666 .67252 c -1.8334 0 -2.5834 -.30264 -1.6667 -.67252 z M 1475.75 751.08913 c .9626 -.38516 2.1126 -.3378 2.5556 .1052 c .4431 .44305 -.3445 .75819 -1.75 .70029 c -1.5533 -.064 -1.8692 -.37992 -.8056 -.80554 z m 2374.6668 0 c .9625 -.38516 2.1125 -.3378 2.5556 .1052 c .4431 .44305 -.3445 .75819 -1.75 .70029 c -1.5533 -.064 -1.8692 -.37992 -.8056 -.80554 z M 1459.75 749.7558 c .9626 -.38516 2.1126 -.3378 2.5556 .1052 c .4431 .44305 -.3445 .75818 -1.75 .70029 c -1.5533 -.064 -1.8692 -.37992 -.8056 -.80555 z m 2406.6668 0 c .9625 -.38516 2.1125 -.3378 2.5556 .1052 c .4431 .44305 -.3445 .75818 -1.75 .70029 c -1.5533 -.064 -1.8692 -.37992 -.8056 -.80555 z m -2421.3334 -1.33334 c .9625 -.38516 2.1125 -.3378 2.5556 .1052 c .443 .44306 -.3446 .75819 -1.75 .7003 c -1.5534 -.064 -1.8692 -.37992 -.8056 -.80555 z m 468 -1.33333 c .9625 -.38516 2.1125 -.3378 2.5556 .1052 c .4431 .44305 -.3445 .75819 -1.75 .70029 c -1.5533 -.064 -1.8692 -.37992 -.8056 -.80554 z m 1505.3334 -1.33333 c .9625 -.38516 2.1125 -.3378 2.5556 .1052 c .443 .44305 -.3446 .75818 -1.75 .70029 c -1.5534 -.064 -1.8692 -.37992 -.8056 -.80555 z M 757.83758 686.66669 c 0 -8.43334 .2165 -11.88334 .4811 -7.66667 c .2646 4.21667 .2646 11.11667 0 15.33334 c -.2646 4.21666 -.4811 .76666 -.4811 -7.66667 z m 3818.56212 8 c 0 -4.03334 .2499 -5.68334 .5555 -3.66667 c .3055 2.01667 .3055 5.31667 0 7.33334 c -.3056 2.01666 -.5555 .36666 -.5555 -3.66667 z m -1.3516 -51.33334 c .013 -3.66666 .269 -5.00841 .5755 -2.98166 c .3064 2.02674 .2983 5.02674 -.019 6.66666 c -.3164 1.63992 -.5672 -.0184 -.5572 -3.685 z m -1.3514 -43.33333 c 0 -3.3 .26 -4.65 .5777 -3 c .3179 1.65 .3179 4.35 0 6 c -.3177 1.65 -.5777 .3 -.5777 -3 z M 759.10421 595.33335 c .005 -5.13333 .24691 -7.06994 .53555 -4.3036 c .28862 2.76636 .28378 6.96636 -.0107 9.33334 c -.29455 2.36698 -.53071 .1036 -.52479 -5.02974 z" fill="#ea3035" stroke-width="1.33333"/><path d="M 2626.5269 4946.2299 C 2263.2182 4712.5149 1952.8286 4450.9001 1696.0765 4161.9912 C 1193.8511 3596.865 884.33147 2914.4493 739.36145 2052.6667 C 665.99859 1616.557 632.46934 1116.9948 638.69057 552.74199 c .75957 -68.89191 1.55484 -125.43182 1.76726 -125.64423 c .21242 -.21241 5.14631 1.45093 10.9642 3.69633 c 24.80412 9.57308 89.24734 32.51628 122.57799 43.64046 c 411.05438 137.19024 811.51068 179.31808 1218.89428 128.22715 c 165.6183 -20.77058 326.2375 -55.48174 500.4391 -108.14904 c 35.1823 -10.63686 133.3452 -43.11295 160 -52.93421 l 14 -5.15845 l 18.6667 6.60003 c 238.3476 84.27313 482.8968 140.1924 715.3828 163.58131 c 139.8235 14.06672 282.9217 17.01629 421.2839 8.68359 c 277.2319 -16.69598 555.0799 -78.85771 833.8917 -186.56306 c 18.113 -6.99702 33.4146 -12.72186 34.0036 -12.72186 c 2.0912 0 5.12 113.30126 6.6923 250.34105 c 2.8865 251.60006 -4.3403 497.62784 -21.2961 724.99234 c -63.3014 848.8212 -263.604 1550.0023 -613.9912 2149.342 c -305.1508 521.9627 -731.449 971.3657 -1283.967 1353.5565 c -27.7581 19.2009 -105.6311 71.6155 -112.1399 75.4788 c -.8104 .4809 -18.5104 -10.0855 -39.3333 -23.4808 z m 85.8191 -100.0029 c 408.5264 -274.4338 742.3958 -582.6854 1011.146 -933.5602 c 240.8529 -314.453 432.324 -671.4099 567.8668 -1058.6667 c 4.6201 -13.2 8.8569 -25.1499 9.4153 -26.5553 c .9999 -2.5174 -12.0573 -2.542 -875.5461 -1.6563 c -1981.851 2.0328 -2397.926 2.582 -2398.5613 3.166 c -.7125 .6551 12.2707 39.4051 29.6115 88.3789 c 213.2839 602.3556 551.5584 1103.1285 1031.7851 1527.4277 c 142.9466 126.2989 309.8221 253.8534 481.8772 368.3321 c 42.0086 27.9508 95.7436 62.7314 97.0721 62.8311 c .557 .041 20.957 -13.322 45.3334 -29.6973 z m 1502.0845 -2215.8968 l 64.4306 -78.9968 l -61.9599 -.6667 l -61.9597 -.6666 l 63.6974 -65.3334 l 63.6975 -65.3333 l -819.8348 -.3344 c -450.9092 -.184 -1188.8959 -.184 -1639.9706 0 l -820.1358 .3344 l 72.3266 65.3333 l 72.3266 65.3334 l -74.7208 .6666 l -74.72089 .6667 l 72.86329 78.9161 l 72.8634 78.9163 l 1503.3333 .08 l 1503.3334 .081 l 64.4304 -78.9969 z m -2887.7638 32.8205 c -21.9674 -2.6373 -48.1726 -9.8621 -63.3333 -17.461 c -17.8464 -8.9452 -35.8019 -25.9266 -43.1098 -40.771 c -6.8291 -13.8717 -8.8153 -23.4857 -8.7292 -42.252 c .066 -14.4928 .5483 -18.0578 3.6936 -27.3333 c 13.1195 -38.6892 51.0918 -62.0347 114.1454 -70.1772 c 16.1102 -2.0805 62.5124 -2.0575 77.3333 .039 c 47.6631 6.74 75.6484 25.7458 79.5219 54.0062 l .8476 6.1836 l -30.3095 -.3589 l -30.3096 -.3588 l -1.7697 -5.1503 c -3.7078 -10.7898 -14.4763 -17.6445 -33.9039 -21.581 c -8.9489 -1.8132 -15.5904 -2.1218 -33.2945 -1.5467 c -25.2701 .8209 -32.9263 2.4876 -48.4566 10.5488 c -27.6042 14.3284 -40.2314 41.2703 -33.7268 71.9608 c 2.8 13.2113 7.9989 22.6395 17.5313 31.7929 c 15.3344 14.7248 34.554 21.1519 66.6221 22.2784 c 22.2505 .7818 36.25 -1.1648 49.0314 -6.8174 c 11.3511 -5.02 19.5496 -15.1307 19.5496 -24.1094 v -3.3761 h 31.487 h 31.4869 l -.8988 7.6667 c -1.9727 16.8246 -12.514 30.4457 -30.9384 39.9769 c -24.7813 12.8199 -45.3209 16.6097 -92.47 17.0619 c -19.4333 .1864 -37.4333 .087 -40 -.2215 z m 322.6667 .039 c -15.574 -1.8137 -32.9829 -5.2999 -44 -8.8109 c -41.6215 -13.2644 -72.6991 -40.671 -80.6251 -71.1012 c -3.1783 -12.202 -2.678 -30.5055 1.1644 -42.6054 c 10.9489 -34.4782 48.8499 -62.3961 98.6075 -72.6341 c 38.4024 -7.9016 91.7895 -6.4388 125.9345 3.4507 c 42.1779 12.216 73.9995 37.9486 84.0887 67.9986 c 13.7737 41.0242 -9.2751 83.4448 -57.8367 106.447 c -12.5057 5.9236 -31.8721 11.9557 -47.3333 14.7432 c -12.1583 2.192 -67.758 3.9378 -80 2.5121 z m 63.4848 -35.0712 c 37.712 -9.2659 60.5152 -33.4271 60.5152 -64.1181 c 0 -30.243 -21.998 -54.0002 -59.4529 -64.2074 c -15.547 -4.2369 -50.8667 -4.2881 -67.5692 -.097 c -41.0838 10.3068 -65.7158 40.5148 -59.8119 73.3519 c 2.3776 13.2241 7.3132 22.3326 17.6308 32.5365 c 13.2943 13.148 31.1333 21.2216 55.3145 25.0344 c 12.1859 1.9215 40.8446 .5797 53.3735 -2.4988 z m 2210.5153 35.0907 c -29.7699 -3.9924 -42.0158 -7.0908 -57.4246 -14.5296 c -21.1414 -10.2062 -31.969 -23.2155 -33.5176 -40.2712 l -.7029 -7.742 l 27.1559 .3934 c 14.9357 .2164 27.8205 .615 28.6329 .8855 c .8124 .2705 1.8376 2.2943 2.2781 4.4972 c 1.9159 9.5793 14.1452 18.2073 32.706 23.0747 c 14.4592 3.7917 49.3087 4.8321 67.6326 2.019 c 23.8038 -3.6544 38.0968 -11.4225 40.0361 -21.7596 c 2.7513 -14.6664 -13.2132 -21.386 -67.5169 -28.4186 c -68.0518 -8.8131 -95.757 -16.5258 -111.5039 -31.0407 c -9.7757 -9.0103 -11.7757 -14.0463 -11.7757 -29.6503 c 0 -12.1258 .3301 -13.8949 3.6456 -19.5348 c 13.5426 -23.0372 49.3788 -35.8337 106.3544 -37.9776 c 59.3678 -2.2338 105.27 10.0107 121.3222 32.3631 c 4.4203 6.1549 8.0111 15.7299 8.0111 21.3612 v 3.1215 l -27.6667 -.013 l -27.6666 -.013 l -2.1435 -5.1072 c -2.7812 -6.6264 -9.5077 -11.6495 -20.9105 -15.6149 c -18.1143 -6.2996 -50.4524 -7.3282 -74.8672 -2.3814 c -18.4232 3.733 -29.4122 11.8282 -29.4122 21.6671 c 0 12.7401 18.2899 18.8244 80.6199 26.8187 c 64.8553 8.3181 93.3983 17.2872 105.5611 33.1704 c 5.8228 7.604 7.5836 14.4941 6.8508 26.8077 c -1.3648 22.9336 -18.419 39.5492 -51.0318 49.7199 c -20.9892 6.5456 -33.1978 7.9317 -73.3333 8.326 c -20.5333 .2017 -39.1333 .1253 -41.3333 -.1698 z M 1896.0001 2563.925 v -97.4079 l 93 .4984 c 88.4566 .4742 93.5961 .6342 105.2013 3.2767 c 23.5659 5.366 37.3729 14.4316 44.7251 29.3661 c 3.825 7.7699 4.3577 10.139 4.2593 18.944 c -.1293 11.626 -2.3493 17.6544 -9.3541 25.408 c -7.9622 8.8131 -21.708 15.2162 -43.165 20.107 l -7.3333 1.6716 l 10.3779 1.7674 c 23.95 4.0792 29.2648 10.8332 40.8261 51.8803 c 3.7017 13.1429 8.7407 27.9564 11.1976 32.9189 l 4.4671 9.0228 l -32.7676 -.3561 l -32.7678 -.3561 l -3.6342 -7.3334 c -1.999 -4.0333 -6.7463 -18.3277 -10.5499 -31.7654 c -7.7543 -27.3954 -11.0709 -33.5534 -20.2415 -37.5812 c -9.0054 -3.9554 -24.3113 -5.32 -59.6709 -5.32 h -33.2368 v 41.3333 v 41.3333 h -30.6667 h -30.6666 z m 163.1416 -19.0924 c 16.9692 -3.8731 22.8584 -9.5841 22.8584 -22.1665 c 0 -9.1186 -2.685 -13.6914 -10.7063 -18.2346 c -8.958 -5.0736 -19.062 -6.0814 -67.6271 -6.7458 l -46.3333 -.634 v 25.6341 v 25.6341 l 46.3333 -.7004 c 35.1975 -.532 48.5304 -1.2018 55.475 -2.7869 z m 144.8584 19.0924 v -97.4079 l 93 .5266 c 99.0806 .5608 99.7337 .6013 119.1416 7.3964 c 10.2266 3.5805 16.9084 8.0361 24.1801 16.124 c 8.1827 9.1012 10.8524 17.2541 10.0708 30.7556 c -.6736 11.636 -4.3432 19.5886 -12.0331 26.077 c -6.8874 5.8115 -21.6125 12.2342 -35.5438 15.5034 l -12.8156 3.0073 l 8.3649 1.0765 c 12.3231 1.586 22.1101 5.6859 27.0772 11.3431 c 5.964 6.7927 9.4793 15.4193 16.5243 40.5504 c 6.8081 24.2861 10.4529 34.2671 14.2996 39.1572 l 2.5942 3.2981 h -33.3333 h -33.3333 l -3.4882 -7.3733 c -1.9184 -4.0553 -6.5089 -17.9757 -10.2009 -30.9343 c -7.4905 -26.2905 -8.5347 -28.7833 -14.4973 -34.6129 c -7.7936 -7.6197 -14.7204 -8.7235 -59.0072 -9.402 l -39.6667 -.6079 v 41.4652 v 41.4652 h -30.6667 h -30.6666 z m 160 -18.494 c 17.8682 -3.2175 25.641 -10.1243 25.641 -22.7847 c 0 -12.3226 -7.4936 -19.5464 -23.5553 -22.707 c -4.8261 -.9496 -26.7643 -1.8566 -54.4191 -2.2495 l -46.3333 -.6585 v 25.6273 v 25.6275 l 45 -.6472 c 25.4112 -.3656 48.7727 -1.3267 53.6667 -2.2079 z m 148 18.5684 v -97.3333 h 32.2176 h 32.2176 l -.8828 63 c -.4855 34.65 -.8834 78.45 -.8842 97.3333 v 34.3333 h -31.3333 h -31.3333 v -97.3333 z m 141.3333 0 v -97.3333 h 109.3334 h 109.3333 v 14.6666 v 14.6667 h -79.3333 h -79.3334 v 24 v 24 h 72.6667 h 72.6667 v 14.6552 v 14.6552 l -72.3334 .3448 l -72.3333 .3448 l -.3599 28.3333 l -.3598 28.3334 h 82.0265 h 82.0265 v 15.3333 v 15.3333 h -112 h -112 z m 276 0 v -97.3333 h 43.0578 h 43.0578 l 48.6088 54.9446 c 26.735 30.2195 56.109 63.4748 65.2756 73.9006 c 9.1667 10.4258 17.1167 19.0008 17.6667 19.0554 c .55 .055 1 -33.2006 1 -73.9006 v -74 h 29.5509 h 29.551 l -.8828 63 c -.4855 34.65 -.8834 78.45 -.8842 97.3333 v 34.3333 h -43.8725 h -43.8725 l -65.1275 -73.443 l -65.1275 -73.4431 l -.3446 73.4431 l -.3446 73.443 h -28.6554 h -28.6554 v -97.3333 z m 428 16 v -81.3333 h -54 h -54 v -16 v -16 h 138.6667 h 138.6667 v 16 v 16 h -53.1186 h -53.1185 l -.8791 39 c -.4833 21.45 -.88 58.05 -.8814 81.3333 v 42.3333 h -30.6667 h -30.6667 v -81.3333 z m 214.6667 -16 v -97.3333 h 109.3333 h 109.3334 v 14.6666 v 14.6667 h -78.6667 h -78.6667 v 24 v 24 h 72.6667 h 72.6667 v 14.6553 v 14.6552 l -73 .3448 l -73 .3447 l -.3599 28.3333 l -.3599 28.3334 h 82.0266 h 82.0265 v 15.3333 v 15.3333 h -112 h -112 z m 868.0635 -234.0795 c 107.8777 -485.6434 152.6356 -1036.8864 135.8592 -1673.25321 c -.812 -30.8 -1.8768 -60.56999 -2.3661 -66.15554 l -.8899 -10.15553 l -22 8.54088 c -243.2719 94.44347 -485.7163 148.99812 -730.6667 164.41402 c -12.8333 .80766 -32.0333 2.05482 -42.6666 2.77146 c -10.6334 .71666 -46.9334 1.67203 -80.6667 2.12308 c -116.7972 1.56167 -226.5654 -4.8594 -347.3334 -20.31781 c -210.1529 -26.8998 -424.677 -78.76412 -647.3312 -156.50178 l -34.4278 -12.02013 l -37.4538 13.15361 c -165.3364 58.06538 -320.5493 100.66726 -469.4539 128.85277 c -190.0685 35.97724 -369.3757 51.56825 -544 47.30156 c -30.8 -.75256 -58.4 -1.6588 -61.3333 -2.01388 c -2.9334 -.35508 -15.8334 -1.25858 -28.6667 -2.00779 c -186.6537 -10.89672 -379.0811 -45.30556 -566.66667 -101.32834 c -37.49588 -11.1982 -131.45544 -42.65392 -168.66667 -56.46609 c -16.86667 -6.26063 -31.16582 -10.88551 -31.77588 -10.27752 c -.61006 .608 -1.4411 73.92629 -1.84675 162.92958 c -.88453 194.07439 .89765 313.37846 7.00837 469.15746 c 16.30132 415.5658 59.87217 789.8778 130.72365 1123.0319 c 3.23984 15.2341 5.89061 28.0841 5.89061 28.5556 c 0 4.0867 3.33149 -9.7408 17.10075 -70.9771 c 8.73237 -38.8357 75.20704 -334.4604 147.72149 -656.9437 L 1198 1056.0001 L 2661.4546 1056 h 1463.4545 l 1.6754 7.6667 c 4.5984 21.0426 88.889 385.8809 148.0935 641 c 36.7593 158.4 86.3195 372.6 110.1337 476 c 45.4374 197.2867 44.4674 193.1656 45.2786 192.3543 c .2824 -.2823 4.7704 -19.6775 9.9733 -43.1004 z M 1758.4799 2198.8157 c 13.602 -58.9511 24.917 -106.6511 25.1443 -106 c .2272 .651 17.9745 47.9837 39.4383 105.1837 l 39.0252 104 l 69.9562 .3361 l 69.9562 .3362 l 39.2157 -155.6695 c 21.5685 -85.6181 39.4912 -156.7296 39.828 -158.0252 c .5756 -2.2147 -1.4916 -2.3345 -34.4883 -2 l -35.1006 .3557 l -24.7008 103.6463 c -20.745 87.0476 -24.9402 103.1692 -26.1955 100.6667 c -.822 -1.6388 -19.3769 -48.1296 -41.2332 -103.313 l -39.7387 -100.3333 h -68.2765 h -68.2764 l -5.1439 19.6667 c -48.3661 184.9176 -77.3432 297.2006 -76.9109 298.0212 c .2959 .5617 16.7903 .8617 36.654 .6666 l 36.116 -.3545 z m 1716.1155 102.7162 c 20.2123 -6.1489 35.9634 -15.852 49.2238 -30.3234 c 14.9832 -16.3516 15.0117 -16.4439 38.269 -123.9978 c 18.9292 -87.538 20.69 -96.8058 20.2427 -106.5446 c -.5433 -11.8259 -4.3929 -22.1528 -11.6952 -31.3726 c -5.7375 -7.2441 -18.6556 -15.4672 -29.8089 -18.975 l -9.4934 -2.9858 h -108.6666 c -120.993 0 -114.3914 -.4537 -135.5663 9.3187 c -22.8055 10.5251 -40.9807 28.7435 -48.5507 48.6663 c -2.6601 7.0008 -41.5481 185.0462 -43.2729 198.1213 c -1.0997 8.3371 1.23 20.3076 5.658 29.0708 c 8.3468 16.5189 26.0832 28.266 47.6013 31.5271 c 3.7384 .5665 53.8972 .9142 111.4639 .7728 c 104.5847 -.257 104.6744 -.2596 114.5953 -3.2778 z m -147.1088 -53.6502 c -4.7726 -3.7542 -7.4861 -9.3642 -7.4886 -15.4827 c 0 -8.5145 32.015 -168.5503 34.7541 -173.7089 c 3.3069 -6.228 6.2877 -9.5994 11.9147 -13.4758 c 4.6106 -3.1762 5.1025 -3.2198 40.9672 -3.6264 c 39.877 -.452 42.9296 .028 47.3024 7.4331 c 4.7785 8.0924 4.5296 10.0293 -12.2166 95.0389 c -8.8778 45.0667 -16.7413 83.7358 -17.4745 85.9312 c -2.2283 6.6722 -8.0872 13.9987 -13.9355 17.4259 c -5.5184 3.234 -5.7169 3.2491 -42.9137 3.2491 c -35.8775 0 -37.5111 -.1107 -40.9095 -2.7844 z m -1906.0518 49.8661 c 16.8211 -8.3641 28.6491 -22.05 36.012 -41.6681 c 2.2739 -6.0586 73.2199 -266.4751 73.2199 -268.7631 c 0 -.3803 -17.1453 -.5323 -38.1007 -.3376 l -38.1006 .3537 l -13.7587 54.6667 c -7.5673 30.0667 -16.8744 66.3667 -20.6823 80.6667 c -3.8078 14.3 -11.6433 44.8129 -17.4122 67.8065 c -5.7688 22.9936 -11.4304 43.2436 -12.5812 45 l -2.0924 3.1935 h -68.636 h -68.6359 l .056 -4.3334 c .031 -2.3833 14.3492 -58.9333 31.8189 -125.6666 l 31.7632 -121.3334 l -64.0727 -.3462 c -35.24 -.1906 -64.4885 .1093 -64.9968 .6666 c -.5082 .5571 -14.5183 59.0536 -31.1335 129.9922 c -27.6311 117.9712 -30.211 130.014 -30.2286 141.1024 c -.023 14.5916 2.3771 22.7273 8.9818 30.4434 c 5.1425 6.0079 12.3004 10.2458 21.8119 12.9139 c 4.6636 1.3083 33.7892 1.6324 130.7681 1.4555 l 124.7681 -.2278 l 11.2319 -5.5849 z m 975.1226 -150.7608 c 23.4064 -86.3432 42.8207 -157.7376 43.1427 -158.6543 c .4626 -1.3174 -12.1354 -1.6666 -60.1342 -1.6666 c -56.6729 0 -60.7661 .1554 -61.4184 2.3333 c -3.0684 10.2448 -84.8141 312.4749 -84.8141 313.5749 c 0 .9904 18.4032 1.4214 60.3333 1.4127 l 60.3334 -.013 l 42.5573 -156.9878 z m 504.6014 155.0753 c 12.8356 -3.4162 21.6849 -8.6666 31.508 -18.6941 c 5.1333 -5.2401 10.6662 -12.1919 12.2954 -15.4481 c 2.9184 -5.833 58.1347 -180.5736 63.1351 -199.8007 c 4.7383 -18.2193 3.0811 -42.2029 -4.0265 -58.2708 c -3.186 -7.2024 -12.494 -17.3308 -18.9576 -20.6283 c -4.8468 -2.4726 -9.8694 -2.5542 -157.1498 -2.5542 c -144.269 0 -152.1077 .1213 -151.4608 2.3333 c 2.0266 6.9316 3.4975 19.5244 3.4975 29.942 c 0 10.3501 -3.0183 25.5457 -24.7796 124.7552 c -21.9198 99.9309 -25.3667 114.2272 -29.8656 123.8672 c -5.9138 12.6713 -11.5568 21.244 -19.8152 30.1023 l -5.9046 6.3333 l 147.1826 -.016 c 123.3143 -.013 148.3433 -.3248 154.3411 -1.9212 z m -148.5535 -63.0622 c .4919 -2.0167 11.9569 -46.1294 25.4779 -98.0283 c 13.5209 -51.8989 24.5836 -94.6813 24.5836 -95.0721 c 0 -.3907 18.15 -.528 40.3333 -.3051 c 37.2603 .3745 40.6619 .6041 44.6451 3.0136 c 5.9604 3.6052 8.3549 9.3881 8.3549 20.1777 c 0 7.4724 -3.0303 20.1023 -17.3861 72.4652 c -9.5624 34.8786 -18.617 67.6156 -20.1212 72.749 c -3.7364 12.7508 -10.1231 24.407 -14.6578 26.752 c -2.9993 1.551 -12.0985 1.9146 -47.9132 1.9146 h -44.2108 z m 1273.7324 61.6409 c 13.4967 -4.0081 27.4408 -18.9489 36.884 -39.5205 c 13.2942 -28.9604 24.7216 -83.2812 22.8622 -108.676 c -2.2674 -30.9643 -12.4244 -53.5203 -29.2912 -65.0478 c -11.9242 -8.1493 -16.7146 -8.7297 -72.0727 -8.7321 c -44.3835 0 -49.8497 -.2381 -53.9584 -2.3333 c -6.6224 -3.3768 -9.7803 -8.4196 -10.4011 -16.6092 c -.6269 -8.2731 3.2256 -17.1394 9.4047 -21.644 c 3.7035 -2.6998 5.1 -2.7447 85.3333 -2.7447 h 81.5683 l 8.6667 3.1475 c 4.7666 1.731 9.2366 3.681 9.9333 4.3333 c .6967 .6523 2.0581 1.1859 3.0255 1.1859 c 1.4142 0 1.6885 -5.8118 1.4 -29.6667 l -.3588 -29.6667 l -128 -.3793 c -82.1686 -.2435 -131.8194 .112 -138.6667 .9919 c -44.5187 5.7226 -70.4563 53.0125 -68.3335 124.5869 c .5422 18.2776 1.1696 23.2404 4.2235 33.4015 c 10.0413 33.4106 30.7677 55.8265 59.4535 64.2997 c 5.939 1.7541 16.8997 2.3145 57.9898 2.9645 c 55.3274 .8752 54.4172 .7376 58.8064 8.8879 c 4.788 8.8908 -.864 24.4396 -10.5556 29.0385 c -4.0972 1.9443 -11.2037 2.2084 -59.412 2.2084 c -58.9153 0 -69.1646 -.7882 -97.811 -7.5228 c -9.4212 -2.2149 -18.6398 -5.5369 -27 -9.7298 l -12.6944 -6.3667 v 37.8097 v 37.8096 h 131.0913 c 113.3851 0 132.0127 -.2736 137.9129 -2.0257 z m 177.3599 -425.6409 l -.3641 -23.6667 l -1551.0001 -.3339 l -1551 -.334 v 24.0007 v 24.0005 H 2652.6975 H 4204.0616 Z M 1736.6667 1770.0334 c 74.2732 -3.0252 123.9306 -47.3317 145.8863 -130.1664 c 4.5813 -17.2845 9.2319 -41.7752 13.6469 -71.867 c 4.2968 -29.2865 4.3755 -74.3888 .1562 -89.5246 c -4.3223 -15.5051 -10.2164 -25.9586 -20.202 -35.8283 c -14.3862 -14.2191 -33.1772 -22.0125 -61.291 -25.4199 c -11.6702 -1.4145 -13.5297 -1.978 -13.5297 -4.1001 c 0 -2.2816 1.4447 -2.4604 19.8827 -2.4604 c 40.6301 0 68.0078 -9.7956 92.3338 -33.0364 c 29.0587 -27.7625 46.2375 -71.4004 53.6558 -136.2969 c 10.12 -88.5331 -5.4676 -128.5995 -55.8723 -143.6135 c -7.572 -2.2555 -25.2824 -2.4019 -331 -2.7367 c -177.65 -.1945 -323 -.066 -323 .2853 c 0 .3514 1.8249 3.5098 4.0554 7.0186 c 7.6487 12.0322 9.9534 22.5472 9.8737 45.0463 l -.071 20 L 1211.4536 1436 c -40.2383 180.9685 -61.0196 271.9107 -63.6642 278.6049 c -4.9095 12.4272 -10.7636 22.1041 -23.6669 39.1213 c -5.5674 7.3424 -10.9379 14.446 -11.9345 15.7857 c -1.7538 2.3578 8.01 2.4148 304 1.7774 c 168.1967 -.3622 312.412 -.9274 320.4787 -1.2559 z m -311.2749 -122.9965 c .032 -.5703 7.4273 -36.1368 16.4336 -79.0369 l 16.375 -78 l 84.2522 -.3433 c 70.5743 -.2875 84.9923 -.033 88.8115 1.5617 c 14.858 6.2082 19.2881 37.5979 10.7449 76.1339 c -8.7277 39.369 -21.4971 66.441 -36.0089 76.3422 l -5.3334 3.6389 l -87.6667 .3701 c -48.2166 .2036 -87.6404 -.096 -87.6082 -.6666 z M 1490.145 1359 c .8754 -3.6348 32.5217 -155.3469 32.5217 -155.9091 c 0 -.2747 38.55 -.3325 85.6667 -.1286 c 96.5549 .4182 89.7684 -.3497 96.2832 10.8935 c 14.9491 25.7988 -1.2227 108.2851 -26.8089 136.7431 c -10.276 11.4296 -3.6998 10.7344 -101.551 10.7344 c -81.8716 0 -86.6425 -.1293 -86.1117 -2.3333 z m 1904.7174 410.3334 h 93.1377 v -6.6667 v -6.6666 h -6.6667 h -6.6666 l .029 -19 l .029 -19 l 42.9576 -65.6667 l 42.9578 -65.6667 h 60.7934 c 33.4363 0 97.776 .3983 142.9771 .8849 l 82.1838 .885 l 2.6728 8.115 c 9.6884 29.4146 14.7516 62.6833 14.689 96.5167 c -.069 37.3118 -.4121 38.8246 -13.1737 58.0899 c -5.9304 8.9529 -10.7827 17.0071 -10.7827 17.8983 c 0 1.2649 37.5111 1.5461 171 1.282 l 171 -.3384 l .382 -11.44 l .3819 -11.44 l -11.9869 -14.9822 c -6.5928 -8.2402 -12.2667 -15.9922 -12.6086 -17.2266 c -.3418 -1.2346 -27.2026 -141.9915 -59.6908 -312.7933 l -59.0693 -310.5486 l -79.9239 .882 c -43.9585 .4851 -112.8764 .882 -153.1512 .882 h -73.2269 l 5.4309 6.1697 c 6.9664 7.9144 8.1326 12.4391 8.0314 31.1636 l -.083 15.3333 l -224.3099 305.3334 l -224.31 305.3333 l -6.2664 .4064 l -6.2664 .4064 v 6.7835 v 6.7836 l 8.1956 -.8565 c 4.5076 -.4712 50.1076 -.8567 101.3333 -.8567 z m 250.471 -297.269 v -7.9357 l 61.5192 -89.7309 c 72.4083 -105.6138 66.6546 -97.3351 67.2407 -96.749 c .2579 .2579 10.3924 38.318 22.5212 84.5779 l 22.0523 84.1089 V 1463.1678 V 1480 h -86.6667 h -86.6667 z m -1141.3232 293.0478 c 60.2407 -15.0195 108.9472 -50.2244 137.1233 -99.1121 c 11.8134 -20.4971 12.2567 -22.2839 57.7331 -232.6667 l 43.088 -199.3334 l .016 -20 c .013 -16.8159 -.4617 -21.6526 -2.9861 -30.3806 c -13.3187 -46.0482 -52.1872 -78.1716 -105.1499 -86.9026 c -11.8764 -1.9579 -35.2065 -2.127 -237.8348 -1.7248 l -224.6667 .446 l -12 2.956 c -45.6712 11.2504 -81.4292 31.2976 -111.419 62.4655 c -6.2806 6.5272 -14.5864 16.354 -18.4575 21.8374 c -8.3196 11.7846 -18.6096 31.8266 -22.5749 43.9698 c -1.5566 4.7667 -22.1259 98.0667 -45.7096 207.3333 l -42.8796 198.6667 l .013 17.3334 c .015 21.2172 2.7143 32.692 12.2356 52 c 7.482 15.1726 21.1999 31.207 35.3168 41.2808 c 10.238 7.3056 27.8875 15.9205 40.1433 19.5945 c 21.4691 6.4357 13.9267 6.2593 256 5.9867 l 228 -.2568 l 14.0102 -3.4931 z m -297.0567 -110.7668 c -6.6445 -2.1611 -15.7218 -10.9249 -19.6664 -18.9872 c -2.5741 -5.2613 -3.7038 -10.03 -4.1741 -17.6192 c -.5935 -9.5792 2.0651 -24.1196 33.4724 -183.0723 c 18.7644 -94.9667 34.7819 -174.7667 35.5944 -177.3333 c 5.6529 -17.8574 20.1328 -35.3705 35.5019 -42.9389 l 8.9238 -4.3945 l 73.2258 -.3873 c 50.1525 -.2653 75.4837 .081 80.3917 1.1003 c 10.248 2.1275 17.4309 8.0885 23.0813 19.1547 c 8.3863 16.4244 9.2892 10.1472 -29.7453 206.799 c -33.64 169.4756 -34.2223 172.164 -39.6689 183.177 c -6.6994 13.5456 -18.1564 25.6124 -29.8986 31.4897 l -7.9914 4 l -77.3334 .2183 c -51.816 .1462 -78.7785 -.2518 -81.7132 -1.2063 z m 1090.3646 58.3213 c 12.134 -30.8 23.3809 -59.45 24.9932 -63.6666 l 2.9313 -7.6667 l -16.9546 .083 l -16.9546 .084 l -5.3333 8.1526 c -3.9973 6.1106 -7.1704 9.1792 -12.6667 12.25 l -7.3333 4.0972 h -118 c -117.974 0 -118.002 -.0006 -127.3512 -2.9425 c -16.2399 -5.1103 -25.8687 -13.7575 -31.5341 -28.3196 c -2.3506 -6.0417 -2.8682 -10.1039 -2.813 -22.0712 c .065 -14.0374 1.534 -21.4754 34.2364 -173.3334 c 18.7928 -87.2666 35.7099 -164.0539 37.5935 -170.6383 c 4.6271 -16.175 9.1392 -26.5499 15.4836 -35.6026 c 5.944 -8.4814 11.9741 -13.1586 22.548 -17.4892 l 7.1701 -2.9364 l 118.6667 -.3796 c 80.0617 -.2561 121.6908 .088 127.9625 1.058 c 12.4102 1.9192 23.0958 6.9152 30.1383 14.091 l 5.7877 5.8973 h 13.5678 h 13.5676 l .8424 -45.6667 c .4632 -25.1167 .9828 -56.3272 1.1546 -69.3568 l .3124 -23.6901 l -228.6666 .3714 l -228.6667 .3714 l -10 3.0685 c -14.5459 4.4634 -42.8313 18.6659 -56.628 28.4338 c -13.4268 9.506 -38.9037 33.484 -48.8256 45.9529 c -9.536 11.984 -20.3676 29.749 -25.1653 41.2738 c -4.7764 11.4735 -90.3919 383.065 -93.8344 407.2641 c -4.4418 31.222 -3.8716 55.854 1.8065 78.0553 c 7.6512 29.916 27.6111 53.7171 53.1191 63.3419 c 17.5372 6.6172 7.812 6.3874 260.1558 6.143 l 236.6282 -.2292 z" fill="#010100" stroke-width="1.33333"/></g></g></g></svg>