<svg xmlns="http://www.w3.org/2000/svg" width="1000" height="1000" viewBox="0 0 750 750"><defs><clipPath id="a"><path d="M0 0h572.898v625.5H0Zm0 0"/></clipPath></defs><g clip-path="url(#a)" transform="translate(48.615 18.75)scale(1.13923)"><path fill="#fff" fill-rule="evenodd" stroke="#191717" stroke-width=".21600000000000003" d="M.2 38.04v78.003c.038.074.073.11.085.238.012.133.063.184.074.246l.957 23.02c.48 7.988.73 15.621 1.407 23.48 4.964 57.887 13.93 112.45 30.804 167.782 7.285 23.894 13.547 41.312 23.196 63.574 3.629 8.367 8.078 17.176 12.117 25.277 2.824 5.66 5.73 10.637 8.758 16.074 8.707 15.63 28.28 45.68 40.015 59.301 4.403 5.106 9.356 11.473 13.887 16.934 4.805 5.789 11.625 12.008 16.453 17.648l17.496 16.91c8.438 8.383 34.02 29.121 44.52 35.953 1.351.883 2.492 1.614 3.754 2.536 12.945 9.437 24.918 15.808 38.523 23.699 12.211 7.082 21.461 10.37 31.969 15.87l1.23.727h1.739c1.773-1.73 5.27-2.703 7.68-3.898 2.706-1.34 5.109-2.7 7.698-3.988 10.575-5.262 19.516-11.477 29.442-17.512 7.402-4.504 26.793-18.742 33.973-24.656l25.175-21.793c2.102-1.852 4.446-3.543 6.422-5.547l6.098-5.574a16.6 16.6 0 0 0 2.781-2.89c.899-1.177 1.856-2.009 2.922-3.071 3.102-3.094 6.074-5.778 8.824-8.832l8.555-9.09c1.035-1.04 1.594-1.922 2.668-3.02 1.308-1.332 1.781-1.828 2.84-3.144.867-1.078 1.851-1.98 2.656-3.031l2.777-3.204c5.13-5.625 11.364-13.3 16.094-19.203 6.781-8.472 14.055-17.918 20.215-26.75 23.176-33.222 43.32-68.785 57.379-107.164 20.027-54.683 36.91-123.715 40.691-182.066.13-1.977.235-3.754.301-5.649.04-1.011.145-1.988.145-3.007.003-.996-.118-1.965.28-2.797v-30.61c-1.253-2.601-.648-57.437-1.35-68.199-.47-7.176.448-15.406-.473-22.484-5.942 4.133-12.95 9.246-18.97 12.96-23.984 14.81-48.054 19.509-75.081 8.65-15.91-6.391-30.57-17.696-42.488-29.59-1.38-1.38-2.739-2.622-4.043-4.04l-5.692-6.277c-2.168-2.066-6.836-8.152-9.148-10.883-3.133-3.691-4.325-5.754-6.844-8.867h-.625c-.68 1.293-4.45 4.883-5.77 6.023-1.277 1.102-1.937 1.653-3.132 2.852l-6.047 5.613c-1.192.906-2.016 1.594-3.168 2.528-6.485 5.265-11.934 10.488-19.176 15.515-37.309 25.89-77.637 39.973-124.105 24.028-23.567-8.086-39.84-19.57-58.231-34.211l-6.336-5.336c-1.172-.871-1.863-1.825-2.93-2.743-1.21-1.039-1.843-1.55-2.988-2.699l-5.96-5.699c-1.59-1.594-4.368-3.914-5.466-5.871h-.843c-1.266 2.394-10.27 13.492-12.512 16.004-2.156 2.414-3.133 3.754-5.684 6.281l-7.77 8.383c-1.874 1.941-3.09 2.75-4.046 3.73-1.977 2.032-10.61 9.047-13.207 11.016-23.34 17.723-50.34 25.598-79.742 15.816C26.574 56.527 20.98 51.895 9.695 44.43 7.988 43.3 1.36 38.559.2 38.04zm0 0"/></g><path fill="#1e4794" fill-rule="evenodd" d="M62.046 87.567c-2.412 80.538 4.219 162.131 20.44 239.501 9.358 44.64 21.814 85.074 38.671 126.255 5.932 14.499 10.796 24.093 17.391 37.813 5.198 10.805 13.618 24.787 19.986 34.884 12.322 19.55 25.312 38.178 39.993 55.774 1.206 1.446 1.931 2.43 3.053 3.765l16.323 18.428c6.506 7.276 13.555 13.884 20.533 20.71 1.233 1.207 2.007 2.324 3.306 3.507 1.26 1.148 2.457 2.03 3.614 3.209 1.98 2.011 4.882 4.637 7.187 6.435 2.634 2.051 5.015 4.214 7.436 6.541 2.18 2.092 5.01 4.25 7.463 6.177 2.67 2.096 5.01 4.094 7.77 6.195 10.342 7.872 20.697 16.154 31.894 22.98.836.512 1.166.788 1.985 1.42 1.824 1.402 4.44 2.666 6.337 3.89 17.08 11.013 35.213 20.39 53.526 29.286 4.16 2.016 5.473 2.928 9.968.583 11.94-6.235 23.764-12.59 35.04-19.826 5.67-3.64 11.264-7.28 16.59-11.01 10.712-7.489 21.334-15.08 31.16-23.705l15.024-12.576c5.1-4.295 9.617-8.7 14.596-13.017 1.286-1.121 2.172-2.278 3.436-3.378 4.32-3.769 7.227-7.373 10.333-10.12 2.537-2.242 4.566-4.334 6.871-6.754 2.096-2.203 4.606-5.296 6.795-7.183 3.596-3.097 10.089-10.511 13.27-14.33 3.596-4.307 7.588-8.259 11.117-12.736l24.32-30.559c.645-.961.966-1.081 1.722-2.02 7.178-8.883 27.173-38.988 33.114-49.365l10.075-17.525c6.506-11.339 12.692-24.551 18.174-37.038 11.192-25.495 20.942-52.832 28.926-81.153 6.902-24.476 13.306-49.744 18.201-75.599 7.271-38.369 11.277-97.329 10.56-136.01-.414-22.463-1.353-56.351-1.508-63.614-19.728 9.742-37.137 18.793-65.653 18.437-11.014-.231-21.984-2.287-33.247-6.72-6.63-2.612-16.555-7.4-22.242-11.503-2.287-1.651-4.232-2.928-6.626-4.61-2.279-1.603-4.183-2.906-6.342-4.575-2.149-1.656-4.103-3.369-6.167-5.078-4.175-3.453-8.34-6.83-11.798-10.69-5.291-5.909-11.094-11.378-16.185-17.555l-6.057-6.36-6.532 5.337c-2.261 2.305-4.277 4.027-6.671 5.927-10.6 8.42-16.688 14.227-29.024 22.104-10.395 6.64-21.467 12.892-32.828 17.96-26.016 11.607-64.874 16.47-93.124 10.61-18.196-3.778-34.568-10.64-49.405-18.704-17.53-9.528-30.83-20.466-45.841-32.895l-5.095-4.45-6.925-6.004-3.907 4.246c-1.206 1.37-2.505 3.137-3.725 4.463-5.3 5.74-10.226 11.468-15.918 16.8-1.473 1.379-2.559 2.879-4.067 4.107-1.562 1.273-2.813 2.367-4.406 3.778-11.388 10.053-24.93 19.39-39.695 25.753-26.216 11.294-54.23 11.633-81.224.4-6.092-2.536-10.845-5.242-16.51-8.032Zm0 0"/><path fill="#e10c14" fill-rule="evenodd" d="m311.503 97.784-.058 576.088c.244.987 2.599 2.216 3.529 2.772 1.437.859 2.514 1.584 3.782 2.354 8.705 5.278 13.991 8.878 23.724 14.107 8.642 4.646 19.95 10.805 29.126 14.837 2.176.957 2.292 1.775 4.374.667 10.939-5.83 22.224-11.575 32.113-18.01 11.094-7.218 19.442-12.82 30.051-20.31l-.164-571.468c-21.32 7.574-42.423 12.091-64.736 11.9-23.6-.196-40.857-4.054-61.741-12.937M68.472 98.772c-.387 11.473.129 23.395.17 34.93.044 11.703.337 23.39.813 35.07 4.059 100.08 23.724 202.584 62.96 293.393 7.157 16.56 15.43 32.798 24.125 47.1 9.942 16.373 16.942 28.263 28.232 43.27l.04-456.936-11.976 6.342c-12.447 6.466-30.194 10.952-44.723 11.49-33.479 1.233-56.713-14.325-59.641-14.659M564.83 130.293l.036 411.405c1.491-1.184 4.846-6.515 6.373-8.66 34.916-49.09 55.515-91.57 75.185-151.108 4.97-15.046 9.332-31.151 13.377-46.963 11.886-46.432 21.57-114.666 21.61-160.369.017-25.299-.873-50.634-1.442-75.937-26.358 13.715-50.598 21.815-88.29 9.216-5.043-1.686-9.293-3.47-13.876-5.54-3.503-1.58-9.394-4.944-12.972-6.893zm0 0"/><path fill="#fff" fill-rule="evenodd" d="M623.532 286.439c-12.558 0-22.815-4.179-30.723-12.514q-11.893-12.504-11.891-33.452c0-13.363 3.778-24.377 11.352-33.09 7.579-8.719 18.081-13.075 31.534-13.075 12.442 0 22.566 4.112 30.412 12.313 7.819 8.202 11.753 19.171 11.753 32.869 0 14.191-3.956 25.544-11.864 34.101-7.89 8.558-18.081 12.848-30.573 12.848m-535.395-1.384v-89.363h34.569c14.992 0 26.233 4.45 33.696 13.363 7.463 8.896 11.197 19.194 11.197 30.884q0 20.045-12.002 32.58c-8.02 8.357-18.41 12.536-31.196 12.536zm27.417-20.56h7.152c4.534 0 8.357-2.212 11.486-6.613 3.106-4.4 4.668-10.413 4.668-17.987 0-6.529-1.384-12.113-4.157-16.826-2.768-4.717-6.768-7.085-11.997-7.085h-7.152zm164.317-.783v21.343h-67.215v-89.363h67.215v20.626h-40.314v12.963h32.602v19.839h-32.602v14.592zm87.13-11.125v32.468h-27.819v-89.363h38.165c9.5 0 16.737 1.094 21.698 3.266 4.962 2.19 8.874 5.54 11.776 10.03 2.905 4.495 4.36 9.52 4.36 15.109 0 8.513-2.972 15.393-8.895 20.622-5.946 5.25-13.876 7.868-23.777 7.868zm-.401-19.194h9.162c8.09 0 12.11-2.955 12.11-8.896q0-8.379-11.193-8.38H366.6zm176.385 51.662h-30.434l-13.03-34.168h-8.647v34.168h-27.417v-89.363h46.677c10.28 0 18.281 2.416 23.977 7.24 5.701 4.828 8.562 11.174 8.562 19.087 0 5.135-1.05 9.696-3.15 13.653-2.1 3.93-6.324 7.418-12.696 10.435zm-52.111-53.295h11.73q5.162-.002 8.313-2.145c2.079-1.455 3.129-3.578 3.129-6.368 0-5.7-3.507-8.562-10.525-8.562h-12.647zm132.525 34.368c4.628 0 7.957-2.011 9.99-6.056 2.034-4.023 3.04-11.42 3.04-22.144 0-15.553-4.157-23.31-12.492-23.31-9.007 0-13.497 8.851-13.497 26.572 0 16.625 4.334 24.938 12.959 24.938m0 0"/></svg>