<?xml version="1.0" encoding="UTF-8" standalone="no"?>
<svg
   xmlns:dc="http://purl.org/dc/elements/1.1/"
   xmlns:cc="http://creativecommons.org/ns#"
   xmlns:rdf="http://www.w3.org/1999/02/22-rdf-syntax-ns#"
   xmlns:svg="http://www.w3.org/2000/svg"
   xmlns="http://www.w3.org/2000/svg"
   xmlns:sodipodi="http://sodipodi.sourceforge.net/DTD/sodipodi-0.dtd"
   xmlns:inkscape="http://www.inkscape.org/namespaces/inkscape"
   width="1000"
   height="1000"
   viewBox="0 0 749.99998 749.99998"
   version="1.1"
   id="svg21"
   sodipodi:docname="Club Ferro Carril Oeste (General Pico).svg"
   inkscape:version="1.0.1 (3bc2e813f5, 2020-09-07)">
  <metadata
     id="metadata27">
    <rdf:RDF>
      <cc:Work
         rdf:about="">
        <dc:format>image/svg+xml</dc:format>
        <dc:type
           rdf:resource="http://purl.org/dc/dcmitype/StillImage" />
        <dc:title></dc:title>
      </cc:Work>
    </rdf:RDF>
  </metadata>
  <defs
     id="defs25" />
  <sodipodi:namedview
     pagecolor="#ffffff"
     bordercolor="#666666"
     borderopacity="1"
     objecttolerance="10"
     gridtolerance="10"
     guidetolerance="10"
     inkscape:pageopacity="0"
     inkscape:pageshadow="2"
     inkscape:window-width="1920"
     inkscape:window-height="1017"
     id="namedview23"
     showgrid="false"
     units="px"
     inkscape:zoom="0.845"
     inkscape:cx="500"
     inkscape:cy="500"
     inkscape:window-x="-8"
     inkscape:window-y="-8"
     inkscape:window-maximized="1"
     inkscape:current-layer="svg21" />
  <g
     id="g887"
     transform="matrix(1.1935057,0,0,1.1935057,54.305944,18.790931)">
    <path
       style="fill:#016525;fill-opacity:1;fill-rule:evenodd;stroke:#000000;stroke-width:0.216;stroke-linecap:butt;stroke-linejoin:miter;stroke-miterlimit:4;stroke-opacity:1"
       d="m 285.3125,27.02734 c 25.60938,41.86329 66.01563,47.91407 112.25781,41.10547 l 15.03125,-2.21484 5.72266,14.07422 c 17.88672,43.99609 44.09765,68.8164 92.625,54.05078 l 26.3164,-8.00781 -1.34375,27.47265 c -9.3789,191.60938 -76.26953,357.55469 -259.32421,439.75781 l -7.9336,3.5625 -7.93359,-3.5625 C 77.71875,511.04297 10.855469,345 1.4765625,153.4375 l -1.34375,-27.47266 26.3164065,8.00782 C 74.976562,148.73828 101.1875,123.91797 119.07422,79.92188 l 5.72265,-14.07422 15.03125,2.21484 c 46.19532,6.80078 86.61329,1.21094 112.25782,-40.71094 l 0.0469,-0.07812 16.75391,-27.10156 z m 0,0"
       id="path2" />
    <path
       style="fill:#ffffff;fill-opacity:1;fill-rule:evenodd;stroke:#ffffff;stroke-width:0.216;stroke-linecap:butt;stroke-linejoin:miter;stroke-miterlimit:4;stroke-opacity:1"
       d="m 277.05469,32.07813 c 5.02344,8.21093 10.92187,15.86718 17.93359,22.48437 28.3125,26.71875 67.375,28.53516 103.99219,23.14453 l 7.51562,-1.10547 2.85938,7.03516 c 19.80078,48.69141 50.89453,75.94922 104.41406,59.66406 l 13.15625,-4.0039 -0.67187,13.73828 c -9.19532,187.86718 -74.01172,350.74218 -253.625,431.40234 l -3.96485,1.78125 -3.96484,-1.78125 C 85.132812,503.76172 20.339844,340.78516 11.144531,152.96484 l -0.671875,-13.73828 13.15625,4.00391 C 77.148437,159.51563 108.24219,132.25781 128.04297,83.56641 l 2.85937,-7.03516 7.51563,1.10547 c 36.39844,5.35937 75.54687,3.77344 103.83984,-22.66406 7.08594,-6.6211 13.03125,-14.3086 18.08594,-22.57032 l 0.0234,-0.03906 8.47656,-13.71484 z m 0,0"
       id="path4" />
    <path
       style="fill:#016525;fill-opacity:1;fill-rule:evenodd;stroke:#006330;stroke-width:0.216;stroke-linecap:butt;stroke-linejoin:miter;stroke-miterlimit:4;stroke-opacity:1"
       d="M 476.57422,357.12109 C 459.44141,400.79688 436.625,439.82031 407.5,473.74219 L 20.8125,152.49219 C 74,168.67578 112.73047,146.91406 137.00781,87.21484 Z m 0,0"
       id="path6" />
    <path
       style="fill:#ffffff;fill-opacity:1;fill-rule:evenodd;stroke:#016525;stroke-width:0.216;stroke-linecap:butt;stroke-linejoin:miter;stroke-miterlimit:4;stroke-opacity:1"
       d="M 464.90625,360.21094 140.79687,102.58984 c -18.96093,39.5586 -47.273433,64.40625 -86.933589,64.77735 L 406.26172,460.12891 c 24.5625,-30.19532 43.85937,-63.91016 58.64453,-99.91797 z m 0,0"
       id="path8" />
    <path
       style="fill:#016525;fill-opacity:1;fill-rule:evenodd;stroke:#016525;stroke-width:0.216;stroke-linecap:butt;stroke-linejoin:miter;stroke-miterlimit:4;stroke-opacity:1"
       d="M 137.00781,87.21484 C 207.17188,97.54297 245.21094,75.6875 268.59766,37.45313 l 0.20312,-0.32422 c 23.38672,38.23437 61.42578,60.48437 131.58985,50.15625 24.27734,59.69922 63.00781,81.46093 116.19531,65.27734 -3.72657,76.13281 -16.53125,144.71094 -40.01172,204.55859 z m 0,0"
       id="path10" />
    <path
       style="fill:#016525;fill-opacity:1;fill-rule:evenodd;stroke:#016525;stroke-width:0.216;stroke-linecap:butt;stroke-linejoin:miter;stroke-miterlimit:4;stroke-opacity:1"
       d="M 407.5,473.74219 C 371.33984,515.85547 325.45703,550.10156 268.66406,575.60547 103.5,501.40625 30.636719,353.13672 20.8125,152.49219 Z m 0,0"
       id="path12" />
    <path
       style="fill:#fe0000;fill-opacity:1;fill-rule:evenodd;stroke:#fe0000;stroke-width:1.3778;stroke-linecap:butt;stroke-linejoin:miter;stroke-miterlimit:4;stroke-opacity:1"
       d="m 224.83203,267.01172 9.58985,-48.92188 c 2.0625,-8.66797 11,-11.77343 21.71875,-5.42578 17.23046,10.75 32.21875,25.03906 42.13671,46.13672 4.17579,10.3125 4.90235,20.12109 0.59766,29.19531 l -25.28125,-21.98047 2.05469,-10.0039 c 0.60937,-3.65235 1.20312,-5.35547 -0.39844,-7.89844 -7.48437,-11.91797 -13.94922,-15.56641 -16.62109,-5.53125 l -8.75782,44.79297 c -4.05468,11.39453 13.73438,23.91406 14.96094,18.46484 l 4.15625,-15.99609 24.81641,21.51953 c -0.84375,18.16797 -6.28516,26.89844 -19.75391,22.29688 -33.71875,-18.86719 -51.23828,-40.86719 -49.21875,-66.64844 z m 0,0"
       id="path14" />
    <path
       style="fill:#fe0000;fill-opacity:1;fill-rule:evenodd;stroke:#fe0000;stroke-width:1.3778;stroke-linecap:butt;stroke-linejoin:miter;stroke-miterlimit:4;stroke-opacity:1"
       d="m 316.34375,343.875 8.51563,-42.88281 c 2.12109,-11.60547 10.08984,-15.96875 23.86328,-6.77344 14.90625,8.74219 25.02734,19.94141 33.8125,31.82422 8.73437,12.14844 12.48047,24.92187 8.84375,38.21875 l -8.25391,40.64844 c -1.75391,14.51562 -11.32422,14.45703 -25.28125,6.22656 -25.69922,-18.9961 -43.92578,-40.14844 -41.5,-67.26172 z m 0,0"
       id="path16" />
    <path
       style="fill:#ffffff;fill-opacity:1;fill-rule:evenodd;stroke:#ffffff;stroke-width:1.3778;stroke-linecap:butt;stroke-linejoin:miter;stroke-miterlimit:4;stroke-opacity:1"
       d="m 340.85938,368.69922 9.55859,-48.28125 c 2.26562,-8.58594 19.16016,2.53515 16.86719,13.26562 l -9.8086,50.19141 c -3.58593,10.71484 -19.90625,-3.63281 -16.61718,-15.17578 z m 0,0"
       id="path18" />
    <path
       style="fill:#fe0000;fill-opacity:1;stroke:none;stroke-width:1.15724px;stroke-linecap:butt;stroke-linejoin:miter;stroke-opacity:1"
       d="m 163.12049,136.73349 -18.10366,100.53309 35.43697,28.69623 8.11031,-42.60918 21.74146,17.95738 4.06929,-18.95253 -22.4689,-18.13923 3.57001,-18.95254 23.64252,19.82626 4.09075,-20.59663 z"
       id="path875"
       sodipodi:nodetypes="ccccccccccc" />
  </g>
</svg>
