<svg xmlns="http://www.w3.org/2000/svg" width="1000" height="1000" viewBox="0 0 1000 1000"><g transform="translate(25.801 -3.522)scale(.99225)"><path fill="#f8ac00" fill-rule="evenodd" d="m196.383 34.08 14.429 41.894 44.297-.771-35.387 26.664 14.429 41.901-36.293-25.42-35.387 26.663 12.953-42.365-36.293-25.421 44.298-.772Z" clip-rule="evenodd"/><path fill="#2e3192" fill-rule="evenodd" d="M480.882 581.306c-.085-.084-.179-.16-.264-.244l.373.375c-.038-.042-.07-.089-.109-.13"/><g fill-rule="evenodd" stroke-width="15"><path fill="#ec0300" stroke="#ec0000" d="m192.086 185.8-57.416-.102V755.19c0 38.438 10.567 69.658 31.858 93.694 7.756 8.022 16.326 15.138 25.558 21.523z"/><path fill="#fefefd" stroke="#fefefe" d="m247.79 185.897-55.704-.097v684.607c16.202 11.206 34.788 19.783 55.703 25.82z"/><path fill="#ec0100" stroke="#ec0000" d="m295.809 185.981-48.02-.084v710.33c4.769 1.377 9.532 2.759 14.559 3.854 11.495 4.22 22.633 7.836 33.46 11.053z"/><path fill="#fefefd" stroke="#fefefe" d="m351.514 186.079-55.705-.098v725.153c19.602 5.822 38.089 10.277 55.705 14.427z"/><path fill="#ec0000" stroke="#ec0000" d="m405.297 186.175-53.783-.096v739.482c18.948 4.465 36.813 8.586 53.783 13.62z"/><path fill="#fefefd" stroke="#fefefe" d="m453.317 186.259-48.02-.084V939.18c16.854 4.999 32.81 10.925 48.02 19.024z"/><path fill="#ec0000" stroke="#ec0002" d="M453.317 186.259v771.945c9.442 5.027 18.6 10.882 27.498 17.902 61.361-45.109 123.623-45.03 192.896-69.34 9.384-3.44 18.078-5.245 26.432-6.695h-.518c39.48-8.676 71.314-26.05 95.834-51.549v.54c20.859-24.06 31.48-55.348 31.48-93.883V186.917l-346.134-.61z"/><path fill="#ec0000" stroke="#ec0000" d="m769.524 184.58 57.416-.1V753.97c0 38.438-10.567 69.658-31.858 93.694-7.756 8.022-16.326 15.138-25.558 21.523z"/><path fill="#fefefd" stroke="#fefefe" d="m713.82 184.679 55.704-.098v684.607c-16.202 11.206-34.788 19.783-55.703 25.82z"/><path fill="#ec0000" stroke="#ec0000" d="m665.801 184.763 48.02-.084v710.33c-4.77 1.376-9.532 2.758-14.56 3.853-11.494 4.22-22.632 7.837-33.46 11.053z"/><path fill="#fefefd" stroke="#fefefe" d="m610.096 184.86 55.705-.098v725.153c-19.602 5.822-38.09 10.277-55.705 14.427z"/><path fill="#ec0000" stroke="#ec0000" d="m556.313 184.956 53.783-.096v739.482c-18.948 4.465-36.813 8.586-53.783 13.62z"/><path fill="#fefefd" stroke="#fefefe" d="m508.293 185.04 48.02-.084v753.006c-16.854 4.998-32.81 10.924-48.02 19.023z"/></g><path fill="none" stroke="#000" stroke-width="15.093" d="m829.623 182.971-348.453-.613-348.454-.613v572.76c0 38.658 10.637 70.056 32.071 94.23 24.636 25.454 56.553 42.807 96.462 51.491 91.33 33.498 161.045 30.045 219.932 76.46 61.772-45.367 124.45-45.287 194.188-69.736 9.446-3.46 18.2-5.277 26.61-6.735h-.522c39.745-8.726 71.79-26.198 96.475-51.844v.542c20.999-24.198 31.691-55.664 31.691-94.42z"/><path fill="#fefefe" fill-rule="evenodd" stroke="#000" stroke-width="12" d="m264.482 185.84-127.892-.227v234.919l501.634 501.184c11.568-3.129 23.25-6.498 35.205-10.735 9.346-3.461 18.004-5.28 26.324-6.738h-.515c39.318-8.728 71.02-26.203 95.44-51.854v.543c20.773-24.204 31.352-55.678 31.352-94.443v-54.52z"/><path fill="#f8ac00" fill-rule="evenodd" d="m342.15 139.676 12.954-42.366-36.293-25.421 44.297-.771 12.954-42.373 14.43 41.894 44.297-.772-35.387 26.664 14.428 41.902-36.293-25.421ZM521.83 142.392l12.954-42.366-36.294-25.42 44.298-.772 12.954-42.373 14.429 41.894 44.297-.771-35.387 26.664 14.429 41.901-36.293-25.42ZM701.51 147.825l12.953-42.366-36.293-25.42 44.297-.772 12.954-42.373 14.43 41.894 44.297-.771-35.387 26.664 14.429 41.901-36.294-25.42Z" clip-rule="evenodd"/><text x="341.429" y="559.589" font-family="Calibri" font-size="13.333" letter-spacing="0" word-spacing="0"><tspan x="341.429" y="559.589" font-family="Times New Roman" font-size="192" font-weight="bold">S</tspan></text><text x="187.142" y="420.708" font-family="Calibri" font-size="13.333" letter-spacing="0" word-spacing="0"><tspan x="187.142" y="420.708" font-family="Times New Roman" font-size="192" font-weight="bold">C</tspan></text><text x="611.238" y="802.438" font-family="Calibri" font-size="13.333" letter-spacing="0" word-spacing="0"><tspan x="611.238" y="802.438" font-family="Times New Roman" font-size="192" font-weight="bold">D</tspan></text><text x="482.357" y="687.424" font-family="Calibri" font-size="13.333" letter-spacing="0" word-spacing="0"><tspan x="482.357" y="687.424" font-family="Times New Roman" font-size="192" font-weight="bold">S</tspan></text><circle cx="761.487" cy="792.3" r="10.092" stroke="#fefefe" stroke-width="9.816"/><circle cx="332.144" cy="412.818" r="10.092" stroke="#fefefe" stroke-width="9.816"/><circle cx="456.997" cy="551.197" r="10.092" stroke="#fefefe" stroke-width="9.816"/><circle cx="597.138" cy="683.813" r="10.092" stroke="#fefefe" stroke-width="9.816"/></g></svg>