<?xml version="1.0" encoding="UTF-8" standalone="no"?>
<svg
   xmlns:dc="http://purl.org/dc/elements/1.1/"
   xmlns:cc="http://creativecommons.org/ns#"
   xmlns:rdf="http://www.w3.org/1999/02/22-rdf-syntax-ns#"
   xmlns:svg="http://www.w3.org/2000/svg"
   xmlns="http://www.w3.org/2000/svg"
   xmlns:sodipodi="http://sodipodi.sourceforge.net/DTD/sodipodi-0.dtd"
   xmlns:inkscape="http://www.inkscape.org/namespaces/inkscape"
   xml:space="preserve"
   width="1000"
   height="1000"
   version="1.1"
   style="clip-rule:evenodd;fill-rule:evenodd;image-rendering:optimizeQuality;shape-rendering:geometricPrecision;text-rendering:geometricPrecision"
   viewBox="0 0 2785.7143 2787.3418"
   id="svg39"
   sodipodi:docname="Sportivo Atlético Club(Las Parejas).svg"
   inkscape:version="1.0.1 (3bc2e813f5, 2020-09-07)"><metadata
   id="metadata43"><rdf:RDF><cc:Work
       rdf:about=""><dc:format>image/svg+xml</dc:format><dc:type
         rdf:resource="http://purl.org/dc/dcmitype/StillImage" /><dc:title></dc:title></cc:Work></rdf:RDF></metadata><sodipodi:namedview
   pagecolor="#ffffff"
   bordercolor="#666666"
   borderopacity="1"
   objecttolerance="10"
   gridtolerance="10"
   guidetolerance="10"
   inkscape:pageopacity="0"
   inkscape:pageshadow="2"
   inkscape:window-width="1920"
   inkscape:window-height="1017"
   id="namedview41"
   showgrid="false"
   inkscape:zoom="0.845"
   inkscape:cx="500"
   inkscape:cy="500"
   inkscape:window-x="-8"
   inkscape:window-y="-8"
   inkscape:window-maximized="1"
   inkscape:current-layer="svg39" />
 <defs
   id="defs7">
  <style
   type="text/css"
   id="style2">
   <![CDATA[
    .fil4 {fill:none}
    .fil0 {fill:#009933}
    .fil1 {fill:red}
    .fil2 {fill:white}
    .fil3 {fill:black;fill-rule:nonzero}
   ]]>
  </style>
   <clipPath
   id="id0">
    <path
   d="M 113,0 0,154 c 101,104 151,177 107,267 -123,241 -148,422 172,570 113,53 160,69 208,110 l 1,-1 1,1 c 48,-40 95,-57 208,-110 C 1016,842 992,662 869,421 825,331 875,258 976,154 L 863,0 C 750,75 615,104 489,106 v 0 C 363,104 228,76 115,0 Z"
   id="path4" />
   </clipPath>
 
  
  
  
  
 </defs>
 <g
   id="g10"
   transform="translate(-60.770582,14.732262)">
  </g><g
   clip-path="url(#id0)"
   id="g34"
   transform="matrix(2.4050633,0,0,2.4050633,222.17359,69.683545)">
   <g
   id="g32">
    <g
   id="_151575384">
     <rect
   class="fil0"
   x="187"
   y="-173"
   width="200"
   height="1363"
   id="rect12" />
     <rect
   class="fil0"
   x="588"
   y="-173"
   width="200"
   height="1363"
   id="rect14" />
    </g>
    <g
   id="_151574592">
     <rect
   class="fil1"
   x="-13"
   y="-173"
   width="200"
   height="1363"
   id="rect17" />
     <rect
   class="fil1"
   x="387"
   y="-173"
   width="200"
   height="1363"
   id="rect19" />
     <rect
   class="fil1"
   x="788"
   y="-173"
   width="200"
   height="1363"
   id="rect21" />
    </g>
    <rect
   class="fil2"
   transform="matrix(-1.99057,-1.98792,1.98792,-1.99057,931.518,1097.02)"
   width="492.10501"
   height="77.043602"
   id="rect24"
   x="0"
   y="0" />
    <path
   class="fil3"
   d="m 267,275 c 0,7 -1,12 -4,17 -2,5 -6,9 -10,12 -4,3 -9,6 -15,8 -6,2 -12,3 -18,3 -4,0 -8,0 -12,-1 -4,-1 -7,-2 -10,-3 -3,-1 -5,-2 -7,-3 -2,-1 -3,-2 -4,-3 -1,-1 -1,-2 -2,-4 0,-2 -1,-4 -1,-7 0,-2 0,-4 0,-5 0,-1 0,-2 1,-3 0,-1 1,-1 1,-2 0,0 1,-1 2,-1 1,0 2,1 4,2 2,1 4,2 6,4 3,1 6,2 9,4 4,1 8,2 12,2 3,0 6,0 8,-1 2,-1 5,-2 6,-3 2,-1 3,-3 4,-5 1,-2 1,-4 1,-7 0,-3 -1,-5 -2,-7 -2,-2 -4,-4 -6,-5 -2,-2 -5,-3 -8,-4 -3,-1 -6,-3 -10,-4 -3,-2 -7,-3 -10,-5 -3,-2 -6,-4 -9,-7 -2,-3 -5,-6 -6,-10 -2,-4 -2,-8 -2,-14 0,-6 1,-11 3,-16 2,-5 5,-8 9,-11 4,-3 8,-5 13,-7 5,-1 11,-2 16,-2 3,0 6,0 9,1 3,0 6,1 8,2 3,1 5,2 7,3 2,1 3,2 4,2 1,1 1,1 1,2 0,0 0,1 1,2 0,1 0,2 0,3 0,1 0,3 0,4 0,2 0,3 0,5 0,1 0,2 0,3 0,1 -1,1 -1,2 0,0 -1,1 -2,1 -1,0 -2,0 -3,-1 -2,-1 -3,-2 -6,-3 -2,-1 -5,-2 -8,-3 -3,-1 -6,-1 -10,-1 -3,0 -5,0 -7,1 -2,1 -4,2 -5,3 -1,1 -2,3 -3,4 -1,2 -1,3 -1,5 0,3 1,5 2,7 2,2 4,4 6,5 3,2 5,3 9,4 3,1 7,3 10,4 3,2 7,3 10,5 3,2 6,4 9,7 3,3 5,6 6,10 2,4 2,8 2,13 z m 47,24 c 0,6 -1,10 -3,12 -2,2 -6,3 -11,3 -5,0 -9,-1 -11,-3 -2,-2 -3,-6 -3,-12 0,-6 1,-10 3,-12 2,-2 6,-3 11,-3 5,0 9,1 11,3 2,2 3,6 3,12 z"
   id="path26" />
    <path
   class="fil3"
   d="m 544,534 c 1,2 1,4 1,6 0,1 0,2 -1,3 -1,1 -2,1 -4,1 -2,0 -4,0 -7,0 -3,0 -6,0 -8,0 -2,0 -3,0 -4,-1 -1,0 -2,-1 -2,-1 0,-1 -1,-1 -1,-2 l -8,-25 h -47 l -8,25 c 0,1 -1,2 -1,2 0,1 -1,1 -2,1 -1,0 -2,1 -4,1 -2,0 -4,0 -7,0 -3,0 -5,0 -7,0 -2,0 -3,-1 -3,-1 -1,-1 -1,-2 -1,-3 0,-1 1,-3 1,-5 l 39,-111 c 0,-1 1,-2 1,-3 1,-1 1,-1 2,-2 1,0 3,-1 5,-1 2,0 5,0 8,0 4,0 7,0 9,0 2,0 4,0 5,1 1,0 2,1 3,2 1,1 1,2 1,3 l 39,111 z m -58,-92 v 0 l -18,53 h 36 z m 104,88 c 0,6 -1,10 -3,12 -2,2 -6,3 -11,3 -5,0 -9,-1 -11,-3 -2,-2 -3,-6 -3,-12 0,-6 1,-10 3,-12 2,-2 6,-3 11,-3 5,0 9,1 11,3 2,2 3,6 3,12 z"
   id="path28" />
    <path
   class="fil3"
   d="m 750,769 c 0,2 0,3 0,4 0,1 0,2 0,3 0,1 0,2 -1,2 0,1 -1,1 -2,2 -1,1 -2,2 -4,3 -2,1 -5,2 -7,3 -3,1 -6,2 -10,3 -4,1 -8,1 -12,1 -9,0 -16,-1 -23,-4 -7,-3 -13,-7 -18,-12 -5,-5 -9,-12 -11,-20 -3,-8 -4,-17 -4,-28 0,-11 1,-20 4,-28 3,-8 7,-15 12,-21 5,-6 11,-10 18,-13 7,-3 15,-4 24,-4 4,0 7,0 10,1 3,1 6,1 9,2 3,1 5,2 7,3 2,1 4,2 5,3 1,1 1,2 2,2 0,1 1,1 1,2 0,1 0,2 0,3 0,1 0,3 0,5 0,2 0,4 0,5 0,1 0,2 -1,3 0,1 -1,1 -1,2 0,0 -1,1 -2,1 -1,0 -2,-1 -4,-2 -1,-1 -3,-2 -6,-4 -2,-1 -5,-3 -8,-4 -3,-1 -7,-2 -12,-2 -5,0 -9,1 -13,3 -4,2 -7,5 -10,9 -3,4 -5,8 -6,14 -1,5 -2,11 -2,18 0,7 1,14 2,19 2,5 4,10 7,13 3,3 6,6 10,8 4,2 8,3 13,3 5,0 8,-1 12,-2 3,-1 6,-2 9,-4 2,-1 4,-2 6,-4 2,-1 3,-2 4,-2 1,0 1,0 2,0 0,0 1,1 1,2 0,1 0,2 1,3 0,1 0,3 0,6 z m 46,5 c 0,6 -1,10 -3,12 -2,2 -6,3 -11,3 -5,0 -9,-1 -11,-3 -2,-2 -3,-6 -3,-12 0,-6 1,-10 3,-12 2,-2 6,-3 11,-3 5,0 9,1 11,3 2,2 3,6 3,12 z"
   id="path30" />
   </g>
  </g><path
   class="fil4"
   d="m 52.229418,14.732262 -113,153.999998 c 101,104 151,177 107,267 -123,241 -147.999998,422 172.000002,570.00004 113,53 160,69 208,110 l 1,-1 1,1 c 48,-40 95,-57 208,-110 319,-149.00004 295,-329.00004 172,-570.00004 -44,-90 6,-163 107,-267 l -113,-153.999998 c -113,75 -248,103.999998 -374,105.999998 v 0 c -126,-2 -261,-29.999998 -374.000002,-105.999998 z"
   id="path36" />
</svg>
