<svg height="1000" viewBox="0 0 1000 1000" width="1000" xmlns="http://www.w3.org/2000/svg"><g transform="matrix(4.5055956 0 0 4.5055956 -1450.4098 -879.27182)"><path d="m 400.001 406 c 43.124 0 78.086 -34.962 78.086 -78.088 c 0 -43.125 -34.962 -78.086 -78.086 -78.086 c -43.127 0 -78.088 34.961 -78.088 78.086 c 0 43.126 34.961 78.088 78.088 78.088" fill="#3b59a1"/><path d="M 394.263 399.991 C 347.55 346.049 368.039 258.624 400.001 250.16" fill="none" stroke="#fff" stroke-width=".721"/><path d="M 405.736 399.991 C 452.451 346.049 431.962 258.624 400.001 250.16" fill="none" stroke="#fff" stroke-width=".721"/><path d="m 406.663 401.171 c 33.13 -5.934 62.836 -36.808 62.836 -77.237 c 0 -43.125 -26.374 -74.107 -69.498 -74.107 c -39.681 0 -75.029 30.982 -75.029 74.107 c 0 40.628 33.45 71.398 68.545 77.286" fill="none" stroke="#fff" stroke-width=".721"/><path d="m 400.015 404.657 c 3.713 0 6.721 -1.433 6.721 -3.201 c 0 -1.766 -3.008 -3.199 -6.721 -3.199 c -3.712 0 -6.722 1.434 -6.722 3.199 c 0 1.769 3.01 3.201 6.722 3.201 z" fill="none" stroke="#fff" stroke-width=".721"/><path d="M 356.663 365.984 L 362.19 360.877 L 366.269 365.364 L 360.742 370.472 L 368.514 379.092 L 362.666 384.343 L 343.555 363.246 L 357.923 350.295 L 362.001 354.782 L 353.481 362.483 Z" fill="#fff"/><path d="m 404.586 384.707 c -.743 1.706 -2.402 2.69 -4.585 2.69 c -3.44 0 -5.522 -2.029 -5.522 -5.29 c 0 -3.241 2.285 -5.26 5.188 -5.26 c 2.25 0 3.799 .759 4.606 2.119 l 6.815 -5.346 c -2.1 -3.523 -6.113 -5.497 -11.951 -5.497 c -7.533 0 -13.454 5.235 -13.454 13.648 c 0 8.448 5.397 13.719 14.315 13.719 c 5.661 0 9.973 -2.557 11.898 -6.979 z" fill="#fff"/><path d="m 443.111 359.871 l .945 .352 c 1.659 .871 4.03 2.48 2.908 4.623 c -1.039 1.983 -2.736 1.989 -4.563 1.034 l -1.973 -.894 l 2.683 -5.115 l -4.434 -9.246 l -14.047 26.742 l 7.251 3.873 l 5.73 -10.881 l 1.511 .677 c 6.87 3.601 10.983 1.834 13.583 -3.121 c 2.482 -4.731 1.336 -9.277 -5.534 -12.88 l -8.493 -4.41" fill="#fff"/><path d="m 461.216 296.778 c 3.63 .938 7.491 2.809 10.067 5.15 l .467 2.224 c -1.639 -1.521 -6.438 -4.099 -9.831 -4.916 z" fill="#fff"/><path d="m 462.736 303.334 c 3.629 .935 7.492 2.808 10.068 5.148 l .467 2.225 c -1.639 -1.521 -6.438 -4.097 -9.832 -4.917 z" fill="#fff"/><path d="m 463.439 309.889 c 3.627 .936 7.492 2.808 10.065 5.148 l .117 2.107 c -1.638 -1.521 -6.437 -4.097 -9.832 -4.915 z" fill="#fff"/><path d="m 463.79 316.441 c 3.631 .938 7.493 2.809 10.067 5.151 l -.118 2.107 c -1.638 -1.522 -6.437 -4.098 -9.831 -4.916 z" fill="#fff"/><path d="m 423.527 252.302 c -10.271 -7.42 -36.703 -5.615 -47.521 .233" fill="#7d6054"/><path d="m 370.27 230.178 c -3.16 .233 -7.49 -.436 -9.715 -1.522 c -2.225 -1.086 -4.448 .236 -6.672 1.874 c .47 -1.874 1.991 -3.162 4.565 -4.096 c -1.521 -.352 -4.798 -1.64 -6.087 -3.63 c 3.513 1.055 7.023 1.055 9.715 .469 c 2.694 -.586 7.728 -.702 10.068 2.225" fill="#e03865"/><path d="m 370.27 230.178 c -3.16 .233 -7.49 -.436 -9.715 -1.522 c -2.225 -1.086 -4.448 .236 -6.672 1.874 c .47 -1.874 1.991 -3.162 4.565 -4.096 c -1.521 -.352 -4.798 -1.64 -6.087 -3.63 c 3.513 1.055 7.023 1.055 9.715 .469 c 2.694 -.586 7.728 -.702 10.068 2.225" fill="none" stroke="#343536" stroke-width=".721"/><path d="m 425.633 222.335 c 2.575 -.233 4.565 -.233 6.555 2.343 c 1.99 2.574 7.023 2.456 8.192 -.936 c .119 1.756 -.7 4.096 -.7 4.096 c 1.872 -.818 3.16 -1.873 3.861 -2.69 c -.352 3.158 -4.098 12.289 -16.503 6.202" fill="#e03865"/><path d="m 425.633 222.335 c 2.575 -.233 4.565 -.233 6.555 2.343 c 1.99 2.574 7.023 2.456 8.192 -.936 c .119 1.756 -.7 4.096 -.7 4.096 c 1.872 -.818 3.16 -1.873 3.861 -2.69 c -.352 3.158 -4.098 12.289 -16.503 6.202" fill="none" stroke="#343536" stroke-width=".721"/><path d="m 388.178 205.364 c -1.639 -1.054 -4.448 -2.224 -5.969 -.937 c -1.521 1.288 -3.512 1.989 -4.682 .584 c .702 1.172 2.925 2.108 4.565 .822 c 1.638 -1.288 3.393 -1.055 4.331 0" fill="#e03865"/><path d="m 388.178 205.364 c -1.639 -1.054 -4.448 -2.224 -5.969 -.937 c -1.521 1.288 -3.512 1.989 -4.682 .584 c .702 1.172 2.925 2.108 4.565 .822 c 1.638 -1.288 3.393 -1.055 4.331 0" fill="none" stroke="#343536" stroke-width=".721"/><path d="m 396.137 212.152 c -.116 -1.989 -2.4 -7.115 -3.628 -5.148 c -.585 .936 -2.106 1.052 -2.809 .468 c -.702 -.587 -2.691 -1.055 -3.512 -.468 c -.819 .584 -2.341 0 -2.341 -.936 c 0 -.938 .821 -1.288 1.99 -1.056 c 1.172 .236 4.097 .236 4.798 -.35 c .703 -.586 -.115 -1.873 -1.755 -1.99 c -1.638 -.115 -5.734 -.233 -6.788 1.054 c -.938 -1.054 -1.287 -4.329 1.054 -3.98 c 2.339 .352 2.691 -.585 3.16 -1.288 c .466 -.701 1.99 -1.521 3.628 -1.639 c 1.639 -.116 2.809 -.466 4.565 0 c 1.755 .468 2.341 0 2.575 -.819 c .936 1.405 .936 2.691 .702 3.161 c 1.638 -.47 4.213 .116 4.682 1.171 c .468 1.053 1.171 .937 2.106 .937 c .939 0 1.639 .233 1.99 1.638 c .352 1.404 1.172 .47 1.873 .819 c .702 .351 2.691 1.171 3.045 2.342 c .348 1.17 1.284 1.52 2.924 2.574" fill="#df9b3d"/><path d="m 396.137 212.152 c -.116 -1.989 -2.4 -7.115 -3.628 -5.148 c -.585 .936 -2.106 1.052 -2.809 .468 c -.702 -.587 -2.691 -1.055 -3.512 -.468 c -.819 .584 -2.341 0 -2.341 -.936 c 0 -.938 .821 -1.288 1.99 -1.056 c 1.172 .236 4.097 .236 4.798 -.35 c .703 -.586 -.115 -1.873 -1.755 -1.99 c -1.638 -.115 -5.734 -.233 -6.788 1.054 c -.938 -1.054 -1.287 -4.329 1.054 -3.98 c 2.339 .352 2.691 -.585 3.16 -1.288 c .466 -.701 1.99 -1.521 3.628 -1.639 c 1.639 -.116 2.809 -.466 4.565 0 c 1.755 .468 2.341 0 2.575 -.819 c .936 1.405 .936 2.691 .702 3.161 c 1.638 -.47 4.213 .116 4.682 1.171 c .468 1.053 1.171 .937 2.106 .937 c .939 0 1.639 .233 1.99 1.638 c .352 1.404 1.172 .47 1.873 .819 c .702 .351 2.691 1.171 3.045 2.342 c .348 1.17 1.284 1.52 2.924 2.574" fill="none" stroke="#343536" stroke-width=".721"/><path d="m 370.972 221.165 c -.118 -1.872 -2.107 -3.978 -3.512 -5.267 c -1.403 -1.287 -1.287 -3.16 .82 -4.682 c 2.107 -1.521 10.299 -4.915 16.504 -3.044 c 6.203 1.875 19.196 3.161 29.964 -1.053 l 11.236 12.173" fill="#e03865"/><path d="m 370.972 221.165 c -.118 -1.872 -2.107 -3.978 -3.512 -5.267 c -1.403 -1.287 -1.287 -3.16 .82 -4.682 c 2.107 -1.521 10.299 -4.915 16.504 -3.044 c 6.203 1.875 19.196 3.161 29.964 -1.053 l 11.236 12.173" fill="none" stroke="#343536" stroke-width=".721"/><path d="m 418.376 217.653 c 5.737 1.993 9.015 .703 9.131 -.584 c .116 -1.288 -3.542 -.966 -4.946 -.849 c -1.052 .087 -2.814 .026 -3.084 -.354" fill="#992e46"/><path d="m 418.376 217.653 c 5.737 1.993 9.015 .703 9.131 -.584 c .116 -1.288 -3.542 -.966 -4.946 -.849 c -1.052 .087 -2.814 .026 -3.084 -.354" fill="none" stroke="#343536" stroke-width=".721"/><path d="m 419.477 215.866 c .27 .381 2.032 .441 3.084 .354 c 1.404 -.117 5.063 -.439 4.946 .849 c .234 -.645 -.059 -1.756 -.411 -2.458 h -7.492" fill="#e03865"/><path d="m 419.477 215.866 c .27 .381 2.032 .441 3.084 .354 c 1.404 -.117 5.063 -.439 4.946 .849 c .234 -.645 -.059 -1.756 -.411 -2.458 h -7.492" fill="none" stroke="#343536" stroke-width=".721"/><path d="m 429.027 213.791 c .938 1.055 0 2.928 -2.459 2.225 c -2.455 -.702 -5.5 -1.463 -6.787 -.643 c -.322 .204 -.396 .366 -.305 .494 c -.324 -.351 -.252 -1.694 -.691 -2.455 l 8.253 -1.054" fill="#992e46"/><path d="m 429.027 213.791 c .938 1.055 0 2.928 -2.459 2.225 c -2.455 -.702 -5.5 -1.463 -6.787 -.643 c -.322 .204 -.396 .366 -.305 .494 c -.324 -.351 -.252 -1.694 -.691 -2.455 l 8.253 -1.054" fill="none" stroke="#343536" stroke-width=".721"/><path d="m 418.193 212.974 c -.012 .616 .724 1.066 2.759 .583 c 4.448 -1.052 7.139 -.818 8.075 .234 c -.174 -.643 -.762 -1.814 -.995 -2.574 h -10.533" fill="#e03865"/><path d="m 418.193 212.974 c -.012 .616 .724 1.066 2.759 .583 c 4.448 -1.052 7.139 -.818 8.075 .234 c -.174 -.643 -.762 -1.814 -.995 -2.574 h -10.533" fill="none" stroke="#343536" stroke-width=".721"/><path d="m 415.218 211.686 c -.118 -1.054 1.753 -3.277 3.977 -2.575 c 2.224 .701 5.268 .586 6.908 -.353 c 1.638 -.936 4.094 -.936 5.265 -.116 c .936 .936 0 3.16 -1.638 3.628 c -1.64 .469 -7.023 -.817 -9.248 -.936 c -1.205 -.064 -2.272 .906 -2.289 1.64 c -.519 -1.114 -.928 -1.405 -1.34 -1.757 c -.466 .235 -1.227 .877 -1.635 .469" fill="#992e46"/><path d="m 415.218 211.686 c -.118 -1.054 1.753 -3.277 3.977 -2.575 c 2.224 .701 5.268 .586 6.908 -.353 c 1.638 -.936 4.094 -.936 5.265 -.116 c .936 .936 0 3.16 -1.638 3.628 c -1.64 .469 -7.023 -.817 -9.248 -.936 c -1.205 -.064 -2.272 .906 -2.289 1.64 c -.519 -1.114 -.928 -1.405 -1.34 -1.757 c -.466 .235 -1.227 .877 -1.635 .469 z" fill="none" stroke="#343536" stroke-width=".721"/><path d="m 431.368 208.642 c -.935 -.938 -1.171 -2.106 -1.873 -3.63 c -.702 -1.52 -1.754 -2.573 -4.095 -.818 c -2.342 1.757 -7.375 .818 -9.365 .353 c -1.99 -.47 -3.393 0 -3.628 1.288 c -.233 1.286 1.405 4.564 2.811 5.852 c -.118 -1.054 1.753 -3.277 3.977 -2.575 c 2.224 .701 5.268 .586 6.908 -.353 c 1.638 -.937 4.094 -.937 5.265 -.117" fill="#e03865"/><path d="m 431.368 208.642 c -.935 -.938 -1.171 -2.106 -1.873 -3.63 c -.702 -1.52 -1.754 -2.573 -4.095 -.818 c -2.342 1.757 -7.375 .818 -9.365 .353 c -1.99 -.47 -3.393 0 -3.628 1.288 c -.233 1.286 1.405 4.564 2.811 5.852 c -.118 -1.054 1.753 -3.277 3.977 -2.575 c 2.224 .701 5.268 .586 6.908 -.353 c 1.638 -.937 4.094 -.937 5.265 -.117 z" fill="none" stroke="#343536" stroke-width=".721"/><path d="m 427.038 241.18 l 3.044 -4.095 c 5.734 -5.15 -.936 -9.718 -3.395 -11.004 c 5.035 -6.555 -.352 -8.544 -1.873 -8.192 c -.586 -1.288 -2.342 -1.873 -3.629 -1.99 c -1.289 -.117 -2.34 .232 -3.393 -.819 c -1.053 -1.054 -4.214 -1.17 -6.906 .352 c -2.692 1.52 -7.141 1.872 -9.715 .117 c -2.575 -1.758 -8.546 -.938 -10.768 1.17 c -2.225 2.105 -4.215 3.862 -8.194 -.469 c -5.433 -5.91 -12.29 1.403 -11.704 5.852 c .585 4.449 -1.524 8.076 -4.332 8.663 l 5.619 9.129" fill="#df9b3d"/><path d="m 427.038 241.18 l 3.044 -4.095 c 5.734 -5.15 -.936 -9.718 -3.395 -11.004 c 5.035 -6.555 -.352 -8.544 -1.873 -8.192 c -.586 -1.288 -2.342 -1.873 -3.629 -1.99 c -1.289 -.117 -2.34 .232 -3.393 -.819 c -1.053 -1.054 -4.214 -1.17 -6.906 .352 c -2.692 1.52 -7.141 1.872 -9.715 .117 c -2.575 -1.758 -8.546 -.938 -10.768 1.17 c -2.225 2.105 -4.215 3.862 -8.194 -.469 c -5.433 -5.91 -12.29 1.403 -11.704 5.852 c .585 4.449 -1.524 8.076 -4.332 8.663 l 5.619 9.129" fill="none" stroke="#343536" stroke-width=".721"/><path d="m 400.001 231.238 c 1.131 2.988 7.804 3.713 9.727 .974 c .793 2.987 5.994 3.955 7.918 1.588 c .565 2.99 5.769 4.235 7.125 2.99 c 1.02 2.865 4.524 3.237 6.449 1.245 l 1.922 -2.242 c 1.586 .125 1.811 -1.119 2.603 -2.115 c .792 -.998 1.472 -1.496 3.396 -1.745 c -.567 -.622 -.906 -1.619 -2.037 -1.369 l -4.299 -2.492 l -2.603 5.231 l 1.357 .872 c -3.392 4.982 -6.108 2.117 -5.656 -1.495 l -1.244 -.25 c -1.471 3.737 -5.203 2.866 -5.203 -1.246 l -1.697 -.62 c -2.035 3.735 -7.236 2.396 -7.124 -2.134 l -1.696 -.125 c -.227 4.28 -7.918 4.179 -8.936 -1.053 c -1.02 5.231 -8.712 4.982 -8.938 .701 l -1.698 .124 c .114 4.53 -5.203 5.403 -7.238 1.665 l -1.699 .624 c 0 4.108 -3.733 4.982 -5.204 1.245 l -1.245 .249 c .454 3.612 -2.261 6.477 -5.655 1.493 l 1.357 -.87 l -2.603 -5.231 l -4.298 2.49 c -1.132 -.249 -1.471 .748 -2.036 1.372 c 1.923 .248 2.601 .746 3.394 1.742 c .791 .997 1.017 2.243 2.601 2.118 l 1.923 2.241 c 1.924 1.994 5.432 1.619 6.449 -1.245 c 1.359 1.245 6.563 0 7.127 -2.989 c 1.924 2.367 7.241 1.869 8.033 -1.121 c 1.92 2.741 8.595 2.367 9.728 -.622" fill="#f4c676"/><path d="m 400.001 231.238 c 1.131 2.988 7.804 3.713 9.727 .974 c .793 2.987 5.994 3.955 7.918 1.588 c .565 2.99 5.769 4.235 7.125 2.99 c 1.02 2.865 4.524 3.237 6.449 1.245 l 1.922 -2.242 c 1.586 .125 1.811 -1.119 2.603 -2.115 c .792 -.998 1.472 -1.496 3.396 -1.745 c -.567 -.622 -.906 -1.619 -2.037 -1.369 l -4.299 -2.492 l -2.603 5.231 l 1.357 .872 c -3.392 4.982 -6.108 2.117 -5.656 -1.495 l -1.244 -.25 c -1.471 3.737 -5.203 2.866 -5.203 -1.246 l -1.697 -.62 c -2.035 3.735 -7.236 2.396 -7.124 -2.134 l -1.696 -.125 c -.227 4.28 -7.918 4.179 -8.936 -1.053 c -1.02 5.231 -8.712 4.982 -8.938 .701 l -1.698 .124 c .114 4.53 -5.203 5.403 -7.238 1.665 l -1.699 .624 c 0 4.108 -3.733 4.982 -5.204 1.245 l -1.245 .249 c .454 3.612 -2.261 6.477 -5.655 1.493 l 1.357 -.87 l -2.603 -5.231 l -4.298 2.49 c -1.132 -.249 -1.471 .748 -2.036 1.372 c 1.923 .248 2.601 .746 3.394 1.742 c .791 .997 1.017 2.243 2.601 2.118 l 1.923 2.241 c 1.924 1.994 5.432 1.619 6.449 -1.245 c 1.359 1.245 6.563 0 7.127 -2.989 c 1.924 2.367 7.241 1.869 8.033 -1.121 c 1.92 2.741 8.595 2.367 9.728 -.622 z" fill="none" stroke="#343536" stroke-width=".721"/><path d="M 395.435 221.16499 H 404.564 V 229.12499 H 395.435 Z" fill="#f4c676"/><path d="M 395.436 221.16499 H 404.564 V 229.12499 H 395.436 Z" fill="none" stroke="#343536" stroke-width=".721"/><path d="M 423.415 224.433 L 414.588 222.098 L 414.543 229.792 L 423.368 232.127 Z" fill="#f4c676"/><path d="M 423.415 224.433 L 414.588 222.098 L 414.543 229.792 L 423.368 232.127 Z" fill="none" stroke="#343536" stroke-width=".721"/><path d="M 376.703 224.433 L 385.529 222.098 L 385.458 229.792 L 376.632 232.127 Z" fill="#f4c676"/><path d="M 376.703 224.433 L 385.529 222.098 L 385.458 229.792 L 376.632 232.127 Z" fill="none" stroke="#343536" stroke-width=".721"/><path d="m 373.898 232.681 c 1.189 0 2.153 -.964 2.153 -2.151 c 0 -1.187 -.964 -2.152 -2.153 -2.152 c -1.189 0 -2.152 .965 -2.152 2.152 c 0 1.187 .963 2.151 2.152 2.151" fill="#f4c676"/><path d="m 373.898 232.681 c 1.189 0 2.153 -.964 2.153 -2.151 c 0 -1.187 -.964 -2.152 -2.153 -2.152 c -1.189 0 -2.152 .965 -2.152 2.152 c 0 1.187 .963 2.151 2.152 2.151 z" fill="none" stroke="#343536" stroke-width=".721"/><path d="m 390.05 228.351 c 1.188 0 2.152 -.964 2.152 -2.152 c 0 -1.188 -.964 -2.151 -2.152 -2.151 c -1.188 0 -2.152 .963 -2.152 2.151 c 0 1.188 .964 2.152 2.152 2.152" fill="#f4c676"/><path d="m 390.05 228.351 c 1.188 0 2.152 -.964 2.152 -2.152 c 0 -1.188 -.964 -2.151 -2.152 -2.151 c -1.188 0 -2.152 .963 -2.152 2.151 c 0 1.188 .964 2.152 2.152 2.152 z" fill="none" stroke="#343536" stroke-width=".721"/><path d="m 426.103 232.681 c -1.19 0 -2.154 -.964 -2.154 -2.151 c 0 -1.187 .964 -2.152 2.154 -2.152 c 1.187 0 2.15 .965 2.15 2.152 c 0 1.187 -.963 2.151 -2.15 2.151" fill="#f4c676"/><path d="m 426.103 232.681 c -1.19 0 -2.154 -.964 -2.154 -2.151 c 0 -1.187 .964 -2.152 2.154 -2.152 c 1.187 0 2.15 .965 2.15 2.152 c 0 1.187 -.963 2.151 -2.15 2.151 z" fill="none" stroke="#343536" stroke-width=".721"/><path d="m 409.948 228.351 c -1.186 0 -2.151 -.964 -2.151 -2.152 c 0 -1.188 .965 -2.151 2.151 -2.151 c 1.191 0 2.151 .963 2.151 2.151 c .001 1.188 -.96 2.152 -2.151 2.152" fill="#f4c676"/><path d="m 409.948 228.351 c -1.186 0 -2.151 -.964 -2.151 -2.152 c 0 -1.188 .965 -2.151 2.151 -2.151 c 1.191 0 2.151 .963 2.151 2.151 c .001 1.188 -.96 2.152 -2.151 2.152 z" fill="none" stroke="#343536" stroke-width=".721"/><path d="m 423.527 252.302 c -10.271 -7.42 -36.703 -5.615 -47.521 .233 c -1.757 .233 -3.161 -2.575 -1.639 -3.981 l -2.458 -6.438 c -1.055 -.115 -1.757 -1.403 -1.055 -2.456 c .703 -1.054 9.482 -5.854 29.147 -5.854 c 19.663 0 27.27 6.321 28.207 7.258 c .938 .938 .47 2.575 -.701 2.575 l -2.809 4.682 c .935 1.403 -.001 3.744 -1.171 3.981" fill="#f4c676"/><path d="m 423.527 252.302 c -10.271 -7.42 -36.703 -5.615 -47.521 .233 c -1.757 .233 -3.161 -2.575 -1.639 -3.981 l -2.458 -6.438 c -1.055 -.115 -1.757 -1.403 -1.055 -2.456 c .703 -1.054 9.482 -5.854 29.147 -5.854 c 19.663 0 27.27 6.321 28.207 7.258 c .938 .938 .47 2.575 -.701 2.575 l -2.809 4.682 c .935 1.403 -.001 3.744 -1.171 3.981 z" fill="none" stroke="#343536" stroke-width=".721"/><path d="m 427.507 243.639 c 1.171 0 1.64 -1.638 .701 -2.575 c -.937 -.937 -8.544 -7.258 -28.207 -7.258 c -19.665 0 -28.444 4.801 -29.147 5.854 c -.702 1.053 0 2.341 1.055 2.456 c 3.979 -1.872 15.802 -5.149 28.56 -5.149 c 10.065 0 21.886 2.809 27.038 6.672" fill="#f4c676"/><path d="m 427.507 243.639 c 1.171 0 1.64 -1.638 .701 -2.575 c -.937 -.937 -8.544 -7.258 -28.207 -7.258 c -19.665 0 -28.444 4.801 -29.147 5.854 c -.702 1.053 0 2.341 1.055 2.456 c 3.979 -1.872 15.802 -5.149 28.56 -5.149 c 10.065 0 21.886 2.809 27.038 6.672 z" fill="none" stroke="#343536" stroke-width=".721"/><path d="m 423.527 252.302 c -10.271 -7.42 -36.703 -5.615 -47.521 .233 c -1.757 .233 -3.161 -2.575 -1.639 -3.981 c 3.393 -1.871 16.737 -4.915 25.634 -4.915 c 8.895 0 20.834 2.575 24.696 4.682 c .936 1.403 0 3.744 -1.17 3.981" fill="#f4c676"/><path d="m 423.527 252.302 c -10.271 -7.42 -36.703 -5.615 -47.521 .233 c -1.757 .233 -3.161 -2.575 -1.639 -3.981 c 3.393 -1.871 16.737 -4.915 25.634 -4.915 c 8.895 0 20.834 2.575 24.696 4.682 c .936 1.403 0 3.744 -1.17 3.981 z" fill="none" stroke="#343536" stroke-width=".721"/><path d="m 400.001 243.091 c 1.508 0 2.729 -1.221 2.729 -2.727 c 0 -1.51 -1.222 -2.733 -2.729 -2.733 c -1.509 0 -2.732 1.224 -2.732 2.733 c 0 1.506 1.223 2.727 2.732 2.727" fill="#e03865"/><path d="m 400.001 243.091 c 1.508 0 2.729 -1.221 2.729 -2.727 c 0 -1.51 -1.222 -2.733 -2.729 -2.733 c -1.509 0 -2.732 1.224 -2.732 2.733 c 0 1.506 1.223 2.727 2.732 2.727 z" fill="none" stroke="#343536" stroke-width=".721"/><path d="m 384.784 244.496 c 1.509 0 2.731 -1.222 2.731 -2.73 c 0 -1.509 -1.222 -2.732 -2.731 -2.732 c -1.509 0 -2.731 1.224 -2.731 2.732 c 0 1.508 1.222 2.73 2.731 2.73" fill="#e03865"/><path d="m 384.784 244.496 c 1.509 0 2.731 -1.222 2.731 -2.73 c 0 -1.509 -1.222 -2.732 -2.731 -2.732 c -1.509 0 -2.731 1.224 -2.731 2.732 c 0 1.508 1.222 2.73 2.731 2.73 z" fill="none" stroke="#343536" stroke-width=".721"/><path d="m 375.537 247.073 c 1.508 0 2.732 -1.223 2.732 -2.731 c 0 -1.51 -1.224 -2.732 -2.732 -2.732 c -1.509 0 -2.73 1.223 -2.73 2.732 c 0 1.509 1.221 2.731 2.73 2.731" fill="#e03865"/><path d="m 375.537 247.073 c 1.508 0 2.732 -1.223 2.732 -2.731 c 0 -1.51 -1.224 -2.732 -2.732 -2.732 c -1.509 0 -2.73 1.223 -2.73 2.732 c 0 1.509 1.221 2.731 2.73 2.731 z" fill="none" stroke="#343536" stroke-width=".721"/><path d="m 414.279 244.496 c -1.508 0 -2.731 -1.222 -2.731 -2.73 c 0 -1.509 1.224 -2.732 2.731 -2.732 c 1.509 0 2.732 1.224 2.732 2.732 c .001 1.508 -1.223 2.73 -2.732 2.73" fill="#e03865"/><path d="m 414.279 244.496 c -1.508 0 -2.731 -1.222 -2.731 -2.73 c 0 -1.509 1.224 -2.732 2.731 -2.732 c 1.509 0 2.732 1.224 2.732 2.732 c .001 1.508 -1.223 2.73 -2.732 2.73 z" fill="none" stroke="#343536" stroke-width=".721"/><path d="m 423.527 247.073 c -1.508 0 -2.732 -1.223 -2.732 -2.731 c 0 -1.51 1.225 -2.732 2.732 -2.732 c 1.51 0 2.732 1.223 2.732 2.732 c 0 1.509 -1.222 2.731 -2.732 2.731" fill="#e03865"/><path d="m 423.527 247.073 c -1.508 0 -2.732 -1.223 -2.732 -2.731 c 0 -1.51 1.225 -2.732 2.732 -2.732 c 1.51 0 2.732 1.223 2.732 2.732 c 0 1.509 -1.222 2.731 -2.732 2.731 z" fill="none" stroke="#343536" stroke-width=".721"/><path d="m 380.031 244.056 c .655 0 1.186 -.53 1.186 -1.186 c 0 -.654 -.531 -1.186 -1.186 -1.186 c -.654 0 -1.186 .532 -1.186 1.186 c 0 .655 .532 1.186 1.186 1.186" fill="#e03865"/><path d="m 380.031 244.056 c .655 0 1.186 -.53 1.186 -1.186 c 0 -.654 -.531 -1.186 -1.186 -1.186 c -.654 0 -1.186 .532 -1.186 1.186 c 0 .655 .532 1.186 1.186 1.186 z" fill="none" stroke="#343536" stroke-width=".721"/><path d="m 390.917 241.716 c .655 0 1.185 -.53 1.185 -1.188 c 0 -.653 -.53 -1.186 -1.185 -1.186 c -.655 0 -1.188 .533 -1.188 1.186 c 0 .658 .533 1.188 1.188 1.188" fill="#e03865"/><path d="m 390.917 241.716 c .655 0 1.185 -.53 1.185 -1.188 c 0 -.653 -.53 -1.186 -1.185 -1.186 c -.655 0 -1.188 .533 -1.188 1.186 c 0 .658 .533 1.188 1.188 1.188 z" fill="none" stroke="#343536" stroke-width=".721"/><path d="m 418.917 244.056 c -.657 0 -1.189 -.53 -1.189 -1.186 c 0 -.654 .531 -1.186 1.189 -1.186 c .653 0 1.186 .532 1.186 1.186 c 0 .655 -.533 1.186 -1.186 1.186" fill="#e03865"/><path d="m 418.917 244.056 c -.657 0 -1.189 -.53 -1.189 -1.186 c 0 -.654 .531 -1.186 1.189 -1.186 c .653 0 1.186 .532 1.186 1.186 c 0 .655 -.533 1.186 -1.186 1.186 z" fill="none" stroke="#343536" stroke-width=".721"/><path d="m 408.031 241.716 c -.656 0 -1.188 -.53 -1.188 -1.188 c 0 -.653 .531 -1.186 1.188 -1.186 c .654 0 1.186 .533 1.186 1.186 c 0 .658 -.532 1.188 -1.186 1.188" fill="#e03865"/><path d="m 408.031 241.716 c -.656 0 -1.188 -.53 -1.188 -1.188 c 0 -.653 .531 -1.186 1.188 -1.186 c .654 0 1.186 .533 1.186 1.186 c 0 .658 -.532 1.188 -1.186 1.188 z" fill="none" stroke="#343536" stroke-width=".721"/><path d="m 400.001 332.126 c .817 -2.107 3.979 -2.926 6.672 -2.926 h 20.484 c 1.989 0 3.393 -2.224 3.393 -3.861 v -72.804 h -61.1 v 72.804 c 0 1.638 1.404 3.861 3.395 3.861 h 20.483 c 2.693 0 5.853 .82 6.673 2.926" fill="#fff"/><path d="m 400.001 332.126 c .817 -2.107 3.979 -2.926 6.672 -2.926 h 20.484 c 1.989 0 3.393 -2.224 3.393 -3.861 v -72.804 h -61.1 v 72.804 c 0 1.638 1.404 3.861 3.395 3.861 h 20.483 c 2.693 0 5.853 .82 6.673 2.926 z" fill="none" stroke="#343536" stroke-width=".721"/><path d="M 370.62201 253.70599 H 399.06301 V 289.988991 H 370.62201 Z" fill="#e03865"/><path d="M 370.62201 253.70599 H 399.06301 V 289.988991 H 370.62201 Z" fill="none" stroke="#343536" stroke-width=".721"/><path d="M 400.936 253.70599 H 429.379001 V 289.988991 H 400.936 Z" fill="#fff"/><path d="M 400.936 253.70599 H 429.379001 V 289.988991 H 400.936 Z" fill="none" stroke="#343536" stroke-width=".721"/><path d="m 399.063 327.912 v -36.284 h -28.441 v 33.593 c 0 1.171 1.052 2.691 2.457 2.691 z" fill="#fff"/><path d="m 399.063 327.912 v -36.284 h -28.441 v 33.593 c 0 1.171 1.052 2.691 2.457 2.691 z" fill="none" stroke="#343536" stroke-width=".721"/><path d="m 429.379 324.869 v -33.241 h -28.443 v 36.284 h 25.869 c 1.17 0 2.574 -1.638 2.574 -3.043" fill="#e03865"/><path d="m 429.379 324.869 v -33.241 h -28.443 v 36.284 h 25.869 c 1.17 0 2.574 -1.638 2.574 -3.043 z" fill="none" stroke="#343536" stroke-width=".721"/><path d="m 400.001 364.471 c -6.034 0 -10.927 -4.89 -10.927 -10.924 c 0 -6.034 4.893 -10.926 10.927 -10.926 c 6.033 0 10.924 4.892 10.924 10.926 c 0 6.034 -4.891 10.924 -10.924 10.924 v .994 c 6.58 0 11.918 -5.337 11.918 -11.918 c 0 -6.582 -5.338 -11.92 -11.918 -11.92 c -6.583 0 -11.919 5.338 -11.919 11.92 c 0 6.581 5.336 11.918 11.919 11.918" fill="#343536"/><path d="M 398.713 358.696 L 399.531 363.963 L 400.585 363.963 L 401.288 358.696" fill="#fff"/><path d="M 398.713 358.696 L 399.531 363.963 L 400.585 363.963 L 401.288 358.696" fill="none" stroke="#343536" stroke-width=".721"/><path d="M 394.896 355.006 L 390.744 358.35 L 391.271 359.26 L 396.184 357.237" fill="#fff"/><path d="M 394.896 355.006 L 390.744 358.35 L 391.271 359.26 L 396.184 357.237" fill="none" stroke="#343536" stroke-width=".721"/><path d="M 396.184 349.855 L 391.212 347.932 L 390.686 348.846 L 394.896 352.086" fill="#fff"/><path d="M 396.184 349.855 L 391.212 347.932 L 390.686 348.846 L 394.896 352.086" fill="none" stroke="#343536" stroke-width=".721"/><path d="M 401.288 348.397 L 400.467 343.129 L 399.414 343.129 L 398.713 348.397" fill="#fff"/><path d="M 401.288 348.397 L 400.467 343.129 L 399.414 343.129 L 398.713 348.397" fill="none" stroke="#343536" stroke-width=".721"/><path d="M 405.103 352.084 L 409.255 348.741 L 408.728 347.83 L 403.816 349.855" fill="#fff"/><path d="M 405.103 352.084 L 409.255 348.741 L 408.728 347.83 L 403.816 349.855" fill="none" stroke="#343536" stroke-width=".721"/><path d="M 403.816 357.235 L 408.788 359.16 L 409.314 358.247 L 405.103 355.006" fill="#fff"/><path d="M 403.816 357.235 L 408.788 359.16 L 409.314 358.247 L 405.103 355.006" fill="none" stroke="#343536" stroke-width=".721"/><path d="m 400.001 359.2 c 3.122 0 5.653 -2.531 5.653 -5.653 c 0 -3.123 -2.531 -5.656 -5.653 -5.656 c -3.124 0 -5.655 2.533 -5.655 5.656 c 0 3.122 2.531 5.653 5.655 5.653" fill="#fff"/><path d="m 400.001 359.2 c 3.122 0 5.653 -2.531 5.653 -5.653 c 0 -3.123 -2.531 -5.656 -5.653 -5.656 c -3.124 0 -5.655 2.533 -5.655 5.656 c 0 3.122 2.531 5.653 5.655 5.653 z" fill="none" stroke="#343536" stroke-width=".721"/><path d="m 400.001 356.58 c 1.674 0 3.031 -1.358 3.031 -3.033 c 0 -1.677 -1.357 -3.033 -3.031 -3.033 c -1.676 0 -3.034 1.356 -3.034 3.033 c 0 1.675 1.358 3.033 3.034 3.033" fill="#fff"/><path d="m 400.001 356.58 c 1.674 0 3.031 -1.358 3.031 -3.033 c 0 -1.677 -1.357 -3.033 -3.031 -3.033 c -1.676 0 -3.034 1.356 -3.034 3.033 c 0 1.675 1.358 3.033 3.034 3.033 z" fill="none" stroke="#343536" stroke-width=".721"/><path d="m 437.924 319.603 c -1.055 .936 -1.404 2.34 -1.638 3.161 c -.353 -.702 -1.524 .234 -1.524 1.872 c -.35 -.352 -1.287 1.872 -1.052 3.276 c -.702 0 -.706 2.789 -.585 3.979 c -.586 .234 -.586 1.288 -.469 2.575 l 1.054 1.405 c 1.873 -.937 4.214 -3.276 3.159 -3.159 c .587 -1.873 1.173 -3.63 .587 -3.161 c .936 -2.341 1.286 -4.098 .701 -3.746 c .936 -1.288 1.989 -2.69 1.286 -2.457 c 1.172 -1.171 2.459 -2.575 1.639 -2.459 c .939 -.703 1.289 -1.287 1.289 -1.64" fill="#00a48d"/><path d="m 442.957 319.25 c -.232 1.288 .115 2.343 .468 3.397 c -.7 -.236 -.819 .117 -.468 1.404 c -.702 .233 -.352 2.224 .352 3.51 c -.469 .352 -.584 1.522 -.119 2.577 c -.7 0 -1.168 2.809 -1.053 3.627 c -.701 -.233 -1.404 .936 -2.107 1.989 c -.35 -.585 -1.403 -.349 -2.105 .586 c -.468 -.232 -3.861 .938 -4.799 1.757 l .35 3.275 c 1.405 .469 4.799 .233 3.982 -.701 c 1.637 .117 3.626 -.936 2.924 -1.171 c 2.109 -.35 3.747 -1.755 2.929 -1.872 c 1.637 -.935 2.691 -2.809 1.873 -2.809 c 1.051 -.469 3.043 -3.745 1.87 -3.63 c 1.056 -1.403 1.173 -4.565 .235 -3.629 c .354 -1.637 .354 -4.212 -.467 -3.51 c .232 -1.873 .582 -3.161 -.235 -2.692 c .117 -.82 .235 -1.756 0 -2.225" fill="#00a48d"/><path d="m 400.001 335.754 c 2.106 -1.054 2.808 -.701 2.69 .118 c 1.756 -.233 4.215 .235 3.396 1.054 c 1.521 -.586 3.861 -.233 3.16 .819 c 1.522 -.468 3.276 -1.522 3.276 -.702 c 1.756 -.936 4.216 -1.054 3.512 0 c 1.288 -.351 2.691 -.936 3.861 -.585 l .119 2.224 c -.82 .937 -2.692 1.403 -3.511 1.755 c .701 .468 -.118 .936 -1.405 .586 c 0 .467 -1.639 1.053 -3.043 .233 c .117 .585 -.82 .819 -1.873 -.117 c -.235 .467 -.703 .936 -2.223 -.351 c -.471 .234 -1.406 0 -2.109 -.937 c -.467 .468 -1.754 0 -2.574 -.937 c -.702 .352 -.819 .235 -1.521 -.585 c -.703 -.819 -1.054 -1.404 -1.755 -1.521" fill="#00a48d"/><path d="m 400.001 340.436 c 1.17 .819 3.862 .118 4.563 1.522 c .47 -.233 1.287 0 1.639 .82 c .82 -.351 1.99 0 2.458 .936 c 1.171 -.233 2.225 0 3.044 .702 c .938 -.702 1.873 -.936 2.225 -.119 c 1.637 -1.286 3.276 -2.107 3.276 -.816 c .469 -.703 2.342 -1.757 3.16 -1.757 l .469 1.169 c -.585 1.172 -1.873 2.342 -2.459 2.693 c .47 .35 -.817 1.171 -1.405 1.405 c .235 .702 -.82 1.286 -1.871 .818 c -.234 .819 -1.287 .586 -2.81 -.585 c .117 .819 -2.106 1.286 -3.16 .585 c -.586 .468 -2.575 -.234 -3.159 -1.404 c -.703 .352 -1.757 0 -2.226 -1.054 c -.701 .584 -1.404 .234 -1.756 -.936 c -.818 .233 -2.105 -1.405 -1.988 -3.045" fill="#00a48d"/><path d="m 438.273 286.712 c -1.17 .936 -1.871 1.991 -.934 2.927 c -.819 .935 -1.872 1.639 -.937 3.044 c -.235 1.287 .117 2.341 .937 2.927 c -.703 .701 -1.053 2.924 0 3.393 c -.235 1.17 -.47 1.64 .818 2.342 c -.585 .937 -.353 3.51 .702 4.798 h 2.927 c .116 -1.873 .351 -3.979 -.234 -4.798 c .234 -.937 .47 -2.459 -.233 -3.161 c .468 -1.404 .35 -3.744 -.236 -3.159 c .704 -2.225 .119 -4.099 -.467 -3.396 c .703 -1.872 1.053 -3.392 .467 -3.159 c .353 -.937 1.99 -3.161 .704 -2.811" fill="#00a48d"/><path d="m 443.425 285.893 c -.352 1.405 .818 2.459 1.287 3.276 c -1.054 -.117 -.469 .939 .351 2.575 c -.935 0 -.819 .704 -.351 2.694 c -.701 .115 -.701 1.638 -.353 2.925 c -.701 .233 -.349 1.757 -.116 2.927 c -.585 .233 -.585 1.639 -.349 2.691 c -.47 .116 -1.523 2.575 -1.055 3.513 l 2.223 .35 c 1.522 -1.521 2.927 -3.979 2.108 -3.746 c 1.287 -1.754 2.808 -5.382 1.519 -4.915 c .821 -1.522 1.408 -4.446 .472 -3.861 c .233 -1.991 0 -4.213 -.472 -3.397 c .237 -1.403 -.582 -3.627 -.934 -2.925 c -.115 -.819 -.115 -2.107 -1.054 -2.692" fill="#00a48d"/><path d="m 438.232 256.088 c -.893 .895 -1.129 2.182 -.543 2.768 c -.586 1.169 .353 2.458 1.053 3.042 c -.818 1.404 -.7 3.396 0 3.746 c -.585 .82 -.818 2.224 -.116 2.809 c -.702 1.052 -.353 2.809 .817 3.745 l 2.578 .117 c 0 -1.522 .35 -2.575 -.353 -3.629 c -.701 -1.053 0 -1.522 0 -2.691 c 0 -1.171 0 -1.171 -.586 -2.341 c -.583 -1.17 1.173 -3.395 .236 -4.448 c -.939 -1.053 -.352 -2.926 -.819 -3.863 c -.47 -.936 -.586 -.936 -1.17 -1.287" fill="#00a48d"/><path d="m 441.201 252.886 c .234 1.054 .467 2.224 1.17 3.159 c .701 .938 .353 1.404 .938 2.811 c .586 1.404 .232 2.106 -.119 3.277 c -.35 1.169 .119 1.873 .586 3.044 c .468 1.17 -.234 1.872 -.351 2.809 c -.116 .936 -1.522 3.745 -.468 4.798 h 2.105 c .703 -1.288 .82 -2.107 .703 -3.043 c -.117 -.938 .234 -1.521 .819 -2.106 c .586 -.585 1.056 -2.575 .467 -3.044 c -.583 -.469 -.7 -1.521 -.232 -1.988 c .467 -.469 .467 -1.521 .115 -1.756 c .467 -.702 .82 -2.108 .235 -2.576 c .231 -1.17 0 -2.342 -1.171 -2.69 c .116 -.938 -2.342 -3.98 -3.395 -3.98" fill="#00a48d"/><path d="m 362.076 319.603 c 1.054 .936 1.405 2.34 1.639 3.161 c .351 -.702 1.522 .234 1.522 1.872 c .351 -.352 1.287 1.872 1.053 3.276 c .702 0 .706 2.789 .585 3.979 c .585 .234 .585 1.288 .469 2.575 l -1.054 1.405 c -1.872 -.937 -4.214 -3.276 -3.16 -3.159 c -.585 -1.873 -1.171 -3.63 -.585 -3.161 c -.937 -2.341 -1.288 -4.098 -.703 -3.746 c -.936 -1.288 -1.989 -2.69 -1.287 -2.457 c -1.171 -1.171 -2.459 -2.575 -1.639 -2.459 c -.937 -.703 -1.288 -1.287 -1.288 -1.64" fill="#00a48d"/><path d="m 357.045 319.25 c .233 1.288 -.118 2.343 -.47 3.397 c .703 -.236 .82 .117 .47 1.404 c .701 .233 .35 2.224 -.353 3.51 c .469 .352 .586 1.522 .117 2.577 c .703 0 1.17 2.809 1.054 3.627 c .702 -.233 1.404 .936 2.107 1.989 c .35 -.585 1.404 -.349 2.106 .586 c .469 -.232 3.863 .938 4.799 1.757 l -.351 3.275 c -1.405 .469 -4.798 .233 -3.979 -.701 c -1.639 .117 -3.629 -.936 -2.926 -1.171 c -2.107 -.35 -3.745 -1.755 -2.927 -1.872 c -1.639 -.935 -2.691 -2.809 -1.873 -2.809 c -1.054 -.469 -3.043 -3.745 -1.873 -3.63 c -1.052 -1.403 -1.17 -4.565 -.233 -3.629 c -.352 -1.637 -.352 -4.212 .468 -3.51 c -.235 -1.873 -.585 -3.161 .234 -2.692 c -.116 -.82 -.234 -1.756 0 -2.225" fill="#00a48d"/><path d="m 400.001 335.754 c -2.107 -1.054 -2.809 -.701 -2.692 .118 c -1.757 -.233 -4.215 .235 -3.396 1.054 c -1.521 -.586 -3.863 -.233 -3.16 .819 c -1.522 -.468 -3.277 -1.522 -3.277 -.702 c -1.754 -.936 -4.213 -1.054 -3.511 0 c -1.287 -.351 -2.694 -.936 -3.862 -.585 l -.119 2.224 c .821 .937 2.694 1.403 3.512 1.755 c -.702 .468 .117 .936 1.405 .586 c 0 .467 1.638 1.053 3.042 .233 c -.117 .585 .82 .819 1.874 -.117 c .233 .467 .703 .936 2.223 -.351 c .469 .234 1.404 0 2.107 -.937 c .469 .468 1.757 0 2.577 -.937 c .701 .352 .817 .235 1.52 -.585 c .701 -.819 1.054 -1.404 1.757 -1.521" fill="#00a48d"/><path d="m 400.001 340.436 c -1.171 .819 -3.864 .118 -4.565 1.522 c -.469 -.233 -1.289 0 -1.64 .82 c -.818 -.351 -1.989 0 -2.458 .936 c -1.17 -.233 -2.223 0 -3.042 .702 c -.938 -.702 -1.873 -.936 -2.225 -.119 c -1.638 -1.286 -3.277 -2.107 -3.277 -.816 c -.468 -.703 -2.342 -1.757 -3.161 -1.757 l -.468 1.169 c .585 1.172 1.872 2.342 2.458 2.693 c -.469 .35 .818 1.171 1.404 1.405 c -.233 .702 .82 1.286 1.874 .818 c .233 .819 1.287 .586 2.81 -.585 c -.118 .819 2.106 1.286 3.16 .585 c .584 .468 2.573 -.234 3.159 -1.404 c .701 .352 1.757 0 2.224 -1.054 c .703 .584 1.404 .234 1.757 -.936 c .819 .233 2.107 -1.405 1.99 -3.045" fill="#00a48d"/><path d="m 361.726 286.712 c 1.17 .936 1.873 1.991 .935 2.927 c .82 .935 1.873 1.639 .938 3.044 c .233 1.287 -.118 2.341 -.938 2.927 c .703 .701 1.054 2.924 0 3.393 c .235 1.17 .469 1.64 -.819 2.342 c .586 .937 .352 3.51 -.702 4.798 h -2.926 c -.118 -1.873 -.351 -3.979 .233 -4.798 c -.233 -.937 -.468 -2.459 .236 -3.161 c -.469 -1.404 -.351 -3.744 .233 -3.159 c -.702 -2.225 -.117 -4.099 .468 -3.396 c -.701 -1.872 -1.052 -3.392 -.468 -3.159 c -.351 -.937 -1.989 -3.161 -.702 -2.811" fill="#00a48d"/><path d="m 356.575 285.893 c .352 1.405 -.817 2.459 -1.287 3.276 c 1.054 -.117 .47 .939 -.35 2.575 c .936 0 .82 .704 .35 2.694 c .703 .115 .703 1.638 .352 2.925 c .702 .233 .351 1.757 .118 2.927 c .584 .233 .584 1.639 .349 2.691 c .468 .116 1.521 2.575 1.054 3.513 l -2.223 .35 c -1.523 -1.521 -2.927 -3.979 -2.108 -3.746 c -1.288 -1.754 -2.809 -5.382 -1.522 -4.915 c -.82 -1.522 -1.406 -4.446 -.468 -3.861 c -.234 -1.991 0 -4.213 .468 -3.397 c -.234 -1.403 .586 -3.627 .936 -2.925 c .117 -.819 .117 -2.107 1.055 -2.692" fill="#00a48d"/><path d="m 361.767 256.088 c .894 .895 1.129 2.182 .545 2.768 c .584 1.169 -.353 2.458 -1.055 3.042 c .819 1.404 .702 3.396 0 3.746 c .585 .82 .819 2.224 .117 2.809 c .702 1.052 .352 2.809 -.819 3.745 l -2.576 .117 c 0 -1.522 -.351 -2.575 .353 -3.629 c .701 -1.053 0 -1.522 0 -2.691 c 0 -1.171 0 -1.171 .584 -2.341 c .585 -1.17 -1.17 -3.395 -.233 -4.448 c .936 -1.053 .35 -2.926 .818 -3.863 c .469 -.936 .585 -.936 1.17 -1.287" fill="#00a48d"/><path d="m 358.799 252.886 c -.234 1.054 -.467 2.224 -1.171 3.159 c -.701 .938 -.35 1.404 -.936 2.811 c -.585 1.404 -.234 2.106 .117 3.277 c .352 1.169 -.117 1.873 -.584 3.044 c -.467 1.17 .233 1.872 .35 2.809 c .117 .936 1.521 3.745 .47 4.798 h -2.107 c -.704 -1.288 -.821 -2.107 -.704 -3.043 c .119 -.938 -.233 -1.521 -.819 -2.106 c -.585 -.585 -1.054 -2.575 -.469 -3.044 c .585 -.469 .703 -1.521 .235 -1.988 c -.468 -.469 -.468 -1.521 -.117 -1.756 c -.468 -.702 -.82 -2.108 -.234 -2.576 c -.234 -1.17 0 -2.342 1.171 -2.69 c -.118 -.938 2.341 -3.98 3.394 -3.98" fill="#00a48d"/><path d="M 445.298 311.643 L 438.859 311.643 L 436.286 319.924 L 447.873 319.924 Z" fill="#f4c676"/><path d="M 445.298 311.643 L 438.859 311.643 L 436.286 319.924 L 447.873 319.924 Z" fill="none" stroke="#343536" stroke-width=".721"/><path d="M 438.85901 307.78201 H 445.29701 V 311.64101 H 438.85901 Z" fill="#f4c676"/><path d="M 438.85901 307.78201 H 445.29701 V 311.64201 H 438.85901 Z" fill="none" stroke="#343536" stroke-width=".721"/><path d="m 445.298 307.782 h -6.439 l -2.34 -2.459 c .703 -.821 1.17 -.821 1.873 -1.055 l 1.051 1.288 h 1.289 V 303.8 h 2.34 v 1.872 h 1.523 l .702 -1.287 c .818 .468 1.638 1.051 1.989 1.521 z" fill="#f4c676"/><path d="m 445.298 307.782 h -6.439 l -2.34 -2.459 c .703 -.821 1.17 -.821 1.873 -1.055 l 1.051 1.288 h 1.289 V 303.8 h 2.34 v 1.872 h 1.523 l .702 -1.287 c .818 .468 1.638 1.051 1.989 1.521 z" fill="none" stroke="#343536" stroke-width=".721"/><path d="M 440.97101 307.78201 H 442.94401 V 311.64101 H 440.97101 Z" fill="#f4c676"/><path d="M 440.97101 307.78201 H 442.94401 V 311.64201 H 440.97101 Z" fill="none" stroke="#343536" stroke-width=".721"/><path d="m 439.443 319.924 l .82 -3.832 c .352 -1.872 2.461 -1.872 3.045 0 l .935 3.832 z" fill="#f4c676"/><path d="m 439.443 319.924 l .82 -3.832 c .352 -1.872 2.461 -1.872 3.045 0 l .935 3.832 z" fill="none" stroke="#343536" stroke-width=".721"/><path d="M 445.298 278.284 L 438.859 278.284 L 436.286 286.567 L 447.873 286.567 Z" fill="#f4c676"/><path d="M 445.298 278.284 L 438.859 278.284 L 436.286 286.567 L 447.873 286.567 Z" fill="none" stroke="#343536" stroke-width=".721"/><path d="M 438.85901 274.423 H 445.29701 V 278.284 H 438.85901 Z" fill="#f4c676"/><path d="M 438.85901 274.423 H 445.29701 V 278.284 H 438.85901 Z" fill="none" stroke="#343536" stroke-width=".721"/><path d="m 445.298 274.423 h -6.439 l -2.34 -2.458 c .703 -.82 1.17 -.82 1.873 -1.054 l 1.051 1.287 h 1.289 v -1.756 h 2.34 v 1.873 h 1.523 l .702 -1.287 c .818 .467 1.638 1.052 1.989 1.521 z" fill="#f4c676"/><path d="m 445.298 274.423 h -6.439 l -2.34 -2.458 c .703 -.82 1.17 -.82 1.873 -1.054 l 1.051 1.287 h 1.289 v -1.756 h 2.34 v 1.873 h 1.523 l .702 -1.287 c .818 .467 1.638 1.052 1.989 1.521 z" fill="none" stroke="#343536" stroke-width=".721"/><path d="M 440.97101 274.423 H 442.94401 V 278.284 H 440.97101 Z" fill="#f4c676"/><path d="M 440.97101 274.423 H 442.94401 V 278.284 H 440.97101 Z" fill="none" stroke="#343536" stroke-width=".721"/><path d="m 439.443 286.567 l .82 -3.835 c .352 -1.872 2.461 -1.872 3.045 0 l .935 3.835 z" fill="#f4c676"/><path d="m 439.443 286.567 l .82 -3.835 c .352 -1.872 2.461 -1.872 3.045 0 l .935 3.835 z" fill="none" stroke="#343536" stroke-width=".721"/><path d="M 437.372 245.982 L 432.449 250.132 L 435.816 258.122 L 444.677 250.656 Z" fill="#f4c676"/><path d="M 437.372 245.982 L 432.449 250.132 L 435.816 258.122 L 444.677 250.656 Z" fill="none" stroke="#343536" stroke-width=".721"/><path d="M 430.44601 244.64799 H 436.88401 V 248.51199 H 430.44601 Z" fill="#f4c676" transform="matrix(.7648 -.6442 .6442 .7648 -56.8688 337.3746)"/><path d="M 430.44601 244.64799 H 436.88401 V 248.51199 H 430.44601 Z" fill="none" stroke="#343536" stroke-width=".721" transform="matrix(.7648 -.6442 .6442 .7648 -56.8688 337.3746)"/><path d="m 434.882 243.029 l -4.924 4.147 l -3.373 -.369 c .011 -1.079 .366 -1.382 .753 -2.013 l 1.635 .305 l .985 -.828 l -1.131 -1.342 l 1.789 -1.509 l 1.207 1.43 l 1.163 -.981 l -.291 -1.436 c .928 -.17 1.931 -.25 2.5 -.117 z" fill="#f4c676"/><path d="m 434.882 243.029 l -4.924 4.147 l -3.373 -.369 c .011 -1.079 .366 -1.382 .753 -2.013 l 1.635 .305 l .985 -.828 l -1.131 -1.342 l 1.789 -1.509 l 1.207 1.43 l 1.163 -.981 l -.291 -1.436 c .928 -.17 1.931 -.25 2.5 -.117 z" fill="none" stroke="#343536" stroke-width=".721"/><path d="M 432.586 244.728 H 434.559 V 248.591 H 432.586 Z" fill="#f4c676" transform="matrix(.7644 -.6447 .6447 .7644 -56.8865 337.6314)"/><path d="M 432.586 244.728 H 434.559 V 248.591 H 432.586 Z" fill="none" stroke="#343536" stroke-width=".721" transform="matrix(.7644 -.6447 .6447 .7644 -56.8865 337.6314)"/><path d="m 438.232 256.088 l -1.844 -3.461 c -.939 -1.657 .674 -3.015 2.326 -1.961 l 3.186 2.329 z" fill="#f4c676"/><path d="m 438.232 256.088 l -1.844 -3.461 c -.939 -1.657 .674 -3.015 2.326 -1.961 l 3.186 2.329 z" fill="none" stroke="#343536" stroke-width=".721"/><path d="M 428.066 342.582 L 427.266 336.195 L 418.727 334.673 L 420.172 346.169 Z" fill="#f4c676"/><path d="M 428.066 342.582 L 427.266 336.195 L 418.727 334.673 L 420.172 346.169 Z" fill="none" stroke="#343536" stroke-width=".721"/><path d="M 427.651 335.92999 H 431.512 V 342.36699 H 427.651 Z" fill="#f4c676" transform="matrix(.9922 -.1247 .1247 .9922 -38.9338 56.2079)"/><path d="M 427.651 335.92999 H 431.512 V 342.36699 H 427.651 Z" fill="none" stroke="#343536" stroke-width=".721" transform="matrix(.9922 -.1247 .1247 .9922 -38.9338 56.2079)"/><path d="m 431.898 342.102 l -.803 -6.388 l 2.147 -2.63 c .903 .594 .96 1.059 1.278 1.727 l -1.144 1.204 l .159 1.279 l 1.742 -.22 l .291 2.323 l -1.856 .233 l .188 1.51 l 1.367 .537 c -.365 .872 -.844 1.758 -1.264 2.164 z" fill="#f4c676"/><path d="m 431.898 342.102 l -.803 -6.388 l 2.147 -2.63 c .903 .594 .96 1.059 1.278 1.727 l -1.144 1.204 l .159 1.279 l 1.742 -.22 l .291 2.323 l -1.856 .233 l .188 1.51 l 1.367 .537 c -.365 .872 -.844 1.758 -1.264 2.164 z" fill="none" stroke="#343536" stroke-width=".721"/><path d="M 427.63501 338.04001 H 431.49701 V 340.01301 H 427.63501 Z" fill="#f4c676" transform="matrix(.9922 -.1247 .1247 .9922 -38.926 56.2171)"/><path d="M 427.63501 338.04001 H 431.49701 V 340.01301 H 427.63501 Z" fill="none" stroke="#343536" stroke-width=".721" transform="matrix(.9922 -.1247 .1247 .9922 -38.926 56.2171)"/><path d="m 419.122 337.809 l 3.905 .334 c 1.902 .116 2.164 2.207 .38 3.02 l -3.686 1.408 z" fill="#f4c676"/><path d="m 419.122 337.809 l 3.905 .334 c 1.902 .116 2.164 2.207 .38 3.02 l -3.686 1.408 z" fill="none" stroke="#343536" stroke-width=".721"/><path d="M 354.703 311.643 L 361.14 311.643 L 363.715 319.924 L 352.127 319.924 Z" fill="#f4c676"/><path d="M 354.703 311.643 L 361.14 311.643 L 363.715 319.924 L 352.127 319.924 Z" fill="none" stroke="#343536" stroke-width=".721"/><path d="M 354.703 307.78201 H 361.14 V 311.64101 H 354.703 Z" fill="#f4c676"/><path d="M 354.703 307.78201 H 361.14 V 311.64201 H 354.703 Z" fill="none" stroke="#343536" stroke-width=".721"/><path d="m 354.703 307.782 h 6.437 l 2.341 -2.459 c -.702 -.821 -1.169 -.821 -1.873 -1.055 l -1.053 1.288 h -1.288 V 303.8 h -2.34 v 1.872 h -1.522 l -.702 -1.287 c -.82 .468 -1.639 1.051 -1.99 1.521 z" fill="#f4c676"/><path d="m 354.703 307.782 h 6.437 l 2.341 -2.459 c -.702 -.821 -1.169 -.821 -1.873 -1.055 l -1.053 1.288 h -1.288 V 303.8 h -2.34 v 1.872 h -1.522 l -.702 -1.287 c -.82 .468 -1.639 1.051 -1.99 1.521 z" fill="none" stroke="#343536" stroke-width=".721"/><path d="M 357.05701 307.78201 H 359.03101 V 311.64101 H 357.05701 Z" fill="#f4c676"/><path d="M 357.05701 307.78201 H 359.03001 V 311.64201 H 357.05701 Z" fill="none" stroke="#343536" stroke-width=".721"/><path d="m 360.555 319.924 l -.819 -3.832 c -.352 -1.872 -2.458 -1.872 -3.044 0 l -.934 3.832 z" fill="#f4c676"/><path d="m 360.555 319.924 l -.819 -3.832 c -.352 -1.872 -2.458 -1.872 -3.044 0 l -.934 3.832 z" fill="none" stroke="#343536" stroke-width=".721"/><path d="M 354.703 278.284 L 361.14 278.284 L 363.715 286.567 L 352.127 286.567 Z" fill="#f4c676"/><path d="M 354.703 278.284 L 361.14 278.284 L 363.715 286.567 L 352.127 286.567 Z" fill="none" stroke="#343536" stroke-width=".721"/><path d="M 354.703 274.423 H 361.14 V 278.284 H 354.703 Z" fill="#f4c676"/><path d="M 354.703 274.423 H 361.14 V 278.284 H 354.703 Z" fill="none" stroke="#343536" stroke-width=".721"/><path d="m 354.703 274.423 h 6.437 l 2.341 -2.458 c -.702 -.82 -1.169 -.82 -1.873 -1.054 l -1.053 1.287 h -1.288 v -1.756 h -2.34 v 1.873 h -1.522 l -.702 -1.287 c -.82 .467 -1.639 1.052 -1.99 1.521 z" fill="#f4c676"/><path d="m 354.703 274.423 h 6.437 l 2.341 -2.458 c -.702 -.82 -1.169 -.82 -1.873 -1.054 l -1.053 1.287 h -1.288 v -1.756 h -2.34 v 1.873 h -1.522 l -.702 -1.287 c -.82 .467 -1.639 1.052 -1.99 1.521 z" fill="none" stroke="#343536" stroke-width=".721"/><path d="M 357.05701 274.423 H 359.03101 V 278.284 H 357.05701 Z" fill="#f4c676"/><path d="M 357.05701 274.423 H 359.03001 V 278.284 H 357.05701 Z" fill="none" stroke="#343536" stroke-width=".721"/><path d="m 360.555 286.567 l -.819 -3.835 c -.352 -1.872 -2.458 -1.872 -3.044 0 l -.934 3.835 z" fill="#f4c676"/><path d="m 360.555 286.567 l -.819 -3.835 c -.352 -1.872 -2.458 -1.872 -3.044 0 l -.934 3.835 z" fill="none" stroke="#343536" stroke-width=".721"/><path d="M 362.63 245.982 L 367.551 250.132 L 364.185 258.122 L 355.322 250.656 Z" fill="#f4c676"/><path d="M 362.63 245.982 L 367.551 250.132 L 364.185 258.122 L 355.322 250.656 Z" fill="none" stroke="#343536" stroke-width=".721"/><path d="M 364.40302 243.362 H 368.26602 V 249.799 H 364.40302 Z" fill="#f4c676" transform="matrix(.6444 -.7647 .7647 .6444 -58.2871 367.8203)"/><path d="M 364.40302 243.362 H 368.26602 V 249.799 H 364.40302 Z" fill="none" stroke="#343536" stroke-width=".721" transform="matrix(.6444 -.7647 .7647 .6444 -58.2871 367.8203)"/><path d="m 365.118 243.029 l 4.922 4.147 l 3.375 -.369 c -.01 -1.079 -.368 -1.382 -.754 -2.013 l -1.635 .305 l -.984 -.828 l 1.131 -1.342 l -1.79 -1.509 l -1.205 1.43 l -1.164 -.981 l .293 -1.436 c -.928 -.17 -1.932 -.25 -2.503 -.117 z" fill="#f4c676"/><path d="m 365.118 243.029 l 4.922 4.147 l 3.375 -.369 c -.01 -1.079 -.368 -1.382 -.754 -2.013 l -1.635 .305 l -.984 -.828 l 1.131 -1.342 l -1.79 -1.509 l -1.205 1.43 l -1.164 -.981 l .293 -1.436 c -.928 -.17 -1.932 -.25 -2.503 -.117 z" fill="none" stroke="#343536" stroke-width=".721"/><path d="M 364.49701 245.673 H 368.35901 V 247.646 H 364.49701 Z" fill="#f4c676" transform="matrix(.645 -.7642 .7642 .645 -58.4045 367.6038)"/><path d="M 364.49701 245.673 H 368.35901 V 247.646 H 364.49701 Z" fill="none" stroke="#343536" stroke-width=".721" transform="matrix(.645 -.7642 .7642 .645 -58.4045 367.6038)"/><path d="m 361.767 256.088 l 1.844 -3.461 c .939 -1.657 -.673 -3.015 -2.328 -1.961 l -3.185 2.329 z" fill="#f4c676"/><path d="m 361.767 256.088 l 1.844 -3.461 c .939 -1.657 -.673 -3.015 -2.328 -1.961 l -3.185 2.329 z" fill="none" stroke="#343536" stroke-width=".721"/><path d="M 371.934 342.582 L 372.735 336.195 L 381.271 334.673 L 379.828 346.169 Z" fill="#f4c676"/><path d="M 371.934 342.582 L 372.735 336.195 L 381.271 334.673 L 379.828 346.169 Z" fill="none" stroke="#343536" stroke-width=".721"/><path d="M 367.20001 337.21701 H 373.63701 V 341.08001 H 367.20001 Z" fill="#f4c676" transform="matrix(.1245 -.9922 .9922 .1245 -12.2181 664.449)"/><path d="M 367.20001 337.21701 H 373.63701 V 341.08001 H 367.20001 Z" fill="none" stroke="#343536" stroke-width=".721" transform="matrix(.1245 -.9922 .9922 .1245 -12.2181 664.449)"/><path d="m 368.101 342.102 l .802 -6.388 l -2.149 -2.63 c -.9 .594 -.957 1.059 -1.277 1.727 l 1.146 1.204 l -.16 1.279 l -1.742 -.22 l -.292 2.323 l 1.856 .233 l -.187 1.51 l -1.366 .537 c .362 .872 .839 1.758 1.263 2.164 z" fill="#f4c676"/><path d="m 368.101 342.102 l .802 -6.388 l -2.149 -2.63 c -.9 .594 -.957 1.059 -1.277 1.727 l 1.146 1.204 l -.16 1.279 l -1.742 -.22 l -.292 2.323 l 1.856 .233 l -.187 1.51 l -1.366 .537 c .362 .872 .839 1.758 1.263 2.164 z" fill="none" stroke="#343536" stroke-width=".721"/><path d="M 369.44699 337.095 H 371.41999 V 340.957 H 369.44699 Z" fill="#f4c676" transform="matrix(.1247 -.9922 .9922 .1247 -12.1414 664.2903)"/><path d="M 369.44699 337.095 H 371.41999 V 340.957 H 369.44699 Z" fill="none" stroke="#343536" stroke-width=".721" transform="matrix(.1247 -.9922 .9922 .1247 -12.1414 664.2903)"/><path d="m 380.878 337.809 l -3.904 .334 c -1.903 .116 -2.165 2.207 -.38 3.02 l 3.688 1.408 z" fill="#f4c676"/><path d="m 380.878 337.809 l -3.904 .334 c -1.903 .116 -2.165 2.207 -.38 3.02 l 3.688 1.408 z" fill="none" stroke="#343536" stroke-width=".721"/><path d="m 431.723 268.687 c -.824 .702 0 2.342 1.049 1.287 l 1.875 -1.988 c 1.054 .701 2.108 .817 3.396 .936 c -2.108 -1.288 -4.449 -3.863 -5.034 -5.735 c -.236 1.17 .117 2.809 .467 3.745 z" fill="#343536"/><path d="m 434.529 265.878 l 14.397 -14.162 c 1.052 -.938 1.638 -.819 2.339 -.938 c -.231 .586 -.818 1.287 -1.287 1.99 l -14.512 14.163" fill="#343536"/><path d="m 431.863 301.474 c -.889 .608 -.249 2.326 .908 1.391 l 2.076 -1.778 c .971 .811 2.006 1.037 3.274 1.291 c -1.957 -1.502 -4.011 -4.314 -4.394 -6.237 c -.358 1.141 -.184 2.806 .066 3.774 z" fill="#343536"/><path d="m 434.955 298.978 l 15.82 -12.55 c 1.147 -.82 1.718 -.642 2.43 -.684 c -.296 .558 -.952 1.192 -1.493 1.843 l -15.939 12.539" fill="#343536"/><path d="m 429.56 329.237 c -1.039 .293 -.985 2.123 .414 1.61 l 2.535 -1.016 c .662 1.079 1.567 1.628 2.685 2.275 c -1.368 -2.054 -2.41 -5.375 -2.154 -7.321 c -.706 .965 -1.075 2.601 -1.148 3.597 z" fill="#343536"/><path d="m 433.29 327.869 l 19.017 -6.796 c 1.351 -.407 1.832 -.055 2.519 .134 c -.459 .434 -1.285 .824 -2.005 1.265 l -19.125 6.748" fill="#343536"/><path d="m 407.563 331.471 c -.528 -.94 -2.293 -.456 -1.465 .782 l 1.588 2.224 c -.893 .897 -1.215 1.906 -1.58 3.147 c 1.674 -1.814 4.654 -3.61 6.605 -3.82 c -1.103 -.457 -2.779 -.432 -3.767 -.271 z" fill="#343536"/><path d="m 409.773 334.772 l 11.092 16.876 c .714 1.216 .486 1.768 .464 2.479 c -.528 -.343 -1.103 -1.055 -1.701 -1.65 l -11.069 -16.991" fill="#343536"/><path d="m 368.28 268.687 c .82 .702 0 2.342 -1.053 1.287 l -1.873 -1.988 c -1.053 .701 -2.108 .817 -3.395 .936 c 2.107 -1.288 4.447 -3.863 5.033 -5.735 c .235 1.17 -.117 2.809 -.468 3.745 z" fill="#343536"/><path d="m 365.472 265.878 l -14.398 -14.162 c -1.053 -.938 -1.638 -.819 -2.34 -.938 c .234 .586 .819 1.287 1.287 1.99 l 14.513 14.163" fill="#343536"/><path d="m 368.137 301.474 c .888 .608 .25 2.326 -.91 1.391 l -2.074 -1.778 c -.973 .811 -2.008 1.037 -3.276 1.291 c 1.959 -1.502 4.014 -4.314 4.395 -6.237 c .357 1.141 .182 2.806 -.067 3.774 z" fill="#343536"/><path d="m 365.045 298.978 l -15.82 -12.55 c -1.15 -.82 -1.717 -.642 -2.428 -.684 c .294 .558 .952 1.192 1.49 1.843 l 15.94 12.539" fill="#343536"/><path d="m 370.44 329.237 c 1.039 .293 .984 2.123 -.415 1.61 l -2.535 -1.016 c -.66 1.079 -1.568 1.628 -2.686 2.275 c 1.369 -2.054 2.411 -5.375 2.154 -7.321 c .706 .965 1.077 2.601 1.15 3.597 z" fill="#343536"/><path d="m 366.711 327.869 l -19.018 -6.796 c -1.348 -.407 -1.832 -.055 -2.518 .134 c .459 .434 1.285 .824 2.006 1.265 l 19.123 6.748" fill="#343536"/><path d="m 392.436 331.471 c .53 -.94 2.295 -.456 1.466 .782 l -1.587 2.224 c .895 .897 1.213 1.906 1.58 3.147 c -1.673 -1.814 -4.656 -3.61 -6.605 -3.82 c 1.103 -.457 2.778 -.432 3.764 -.271 z" fill="#343536"/><path d="m 390.227 334.772 l -11.092 16.876 c -.715 1.216 -.486 1.768 -.464 2.479 c .528 -.343 1.103 -1.055 1.701 -1.65 l 11.069 -16.991" fill="#343536"/><path d="m 400.001 343.024 c 2.011 0 3.642 -1.63 3.642 -3.641 c 0 -2.013 -1.631 -3.641 -3.642 -3.641 c -2.011 0 -3.643 1.628 -3.643 3.641 c 0 2.012 1.632 3.641 3.643 3.641" fill="#e03865"/><path d="m 400.001 343.024 c 2.011 0 3.642 -1.63 3.642 -3.641 c 0 -2.013 -1.631 -3.641 -3.642 -3.641 c -2.011 0 -3.643 1.628 -3.643 3.641 c 0 2.012 1.632 3.641 3.643 3.641 z" fill="none" stroke="#343536" stroke-width=".721"/><path d="m 376.239 296.897 c 3.979 -3.279 12.172 -3.63 17.089 -.352 l 1.989 -1.64 c -5.734 -3.98 -15.8 -3.862 -20.95 .234" fill="#f4c676"/><path d="m 376.239 296.897 c 3.979 -3.279 12.172 -3.63 17.089 -.352 l 1.989 -1.64 c -5.734 -3.98 -15.8 -3.862 -20.95 .234" fill="none" stroke="#343536" stroke-width=".721"/><path d="m 388.296 296.545 c .702 -.353 1.99 .116 2.107 .936 c .117 .819 1.313 2.881 3.627 2.225 c 2.316 -.656 .469 -4.215 1.639 -5.384 c -1.053 .467 -2.458 1.404 -3.044 2.224 c -.585 .818 -1.17 .469 -1.403 -.586 c -.235 -1.054 -1.288 -1.521 -1.874 -.819 c -.585 .7 -1.052 1.404 -1.052 1.404" fill="#7d6054"/><path d="m 388.296 296.545 c .702 -.353 1.99 .116 2.107 .936 c .117 .819 1.313 2.881 3.627 2.225 c 2.316 -.656 .469 -4.215 1.639 -5.384 c -1.053 .467 -2.458 1.404 -3.044 2.224 c -.585 .818 -1.17 .469 -1.403 -.586 c -.235 -1.054 -1.288 -1.521 -1.874 -.819 c -.585 .7 -1.052 1.404 -1.052 1.404 z" fill="none" stroke="#343536" stroke-width=".721"/><path d="M 391.116 300.875 L 394.953 300.875 L 396.488 323.317 L 389.583 323.317 Z" fill="#f4c676"/><path d="M 391.116 300.875 L 394.953 300.875 L 396.488 323.317 L 389.583 323.317 Z" fill="none" stroke="#343536" stroke-width=".721"/><path d="m 390.399 311.175 h 5.152 l 1.874 -2.457 c -.562 -.819 -.938 -.819 -1.498 -1.055 l -.844 1.288 h -1.03 v -1.756 h -1.874 v 1.873 h -1.218 l -.562 -1.286 c -.656 .467 -1.31 1.052 -1.592 1.521 z" fill="#f4c676"/><path d="m 390.399 311.175 h 5.152 l 1.874 -2.457 c -.562 -.819 -.938 -.819 -1.498 -1.055 l -.844 1.288 h -1.03 v -1.756 h -1.874 v 1.873 h -1.218 l -.562 -1.286 c -.656 .467 -1.31 1.052 -1.592 1.521 z" fill="none" stroke="#343536" stroke-width=".721"/><path d="m 394.604 323.317 l -.488 -3.832 c -.208 -1.873 -1.464 -1.873 -1.812 0 l -.559 3.832 z" fill="#f4c676"/><path d="m 394.604 323.317 l -.488 -3.832 c -.208 -1.873 -1.464 -1.873 -1.812 0 l -.559 3.832 z" fill="none" stroke="#343536" stroke-width=".721"/><path d="m 391.126 300.875 h 3.827 l 1.393 -1.826 c -.418 -.608 -.696 -.608 -1.115 -.782 l -.627 .955 h -.764 v -1.304 h -1.392 v 1.393 h -.905 l -.417 -.957 c -.487 .348 -.974 .782 -1.183 1.13 z" fill="#f4c676"/><path d="m 391.126 300.875 h 3.827 l 1.393 -1.826 c -.418 -.608 -.696 -.608 -1.115 -.782 l -.627 .955 h -.764 v -1.304 h -1.392 v 1.393 h -.905 l -.417 -.957 c -.487 .348 -.974 .782 -1.183 1.13 z" fill="none" stroke="#343536" stroke-width=".721"/><path d="m 380.57 296.545 c -.704 -.353 -1.991 .116 -2.108 .936 c -.116 .819 -1.314 2.881 -3.626 2.225 c -2.316 -.656 -.469 -4.215 -1.641 -5.384 c 1.054 .467 2.459 1.404 3.044 2.224 c .586 .818 1.172 .469 1.406 -.586 c .233 -1.054 1.287 -1.521 1.872 -.819 c .586 .7 1.053 1.404 1.053 1.404" fill="#7d6054"/><path d="m 380.57 296.545 c -.704 -.353 -1.991 .116 -2.108 .936 c -.116 .819 -1.314 2.881 -3.626 2.225 c -2.316 -.656 -.469 -4.215 -1.641 -5.384 c 1.054 .467 2.459 1.404 3.044 2.224 c .586 .818 1.172 .469 1.406 -.586 c .233 -1.054 1.287 -1.521 1.872 -.819 c .586 .7 1.053 1.404 1.053 1.404 z" fill="none" stroke="#343536" stroke-width=".721"/><path d="M 377.749 300.875 L 373.91 300.875 L 372.377 323.317 L 379.283 323.317 Z" fill="#f4c676"/><path d="M 377.749 300.875 L 373.91 300.875 L 372.377 323.317 L 379.283 323.317 Z" fill="none" stroke="#343536" stroke-width=".721"/><path d="m 378.466 311.175 h -5.153 l -1.874 -2.457 c .564 -.819 .939 -.819 1.499 -1.055 l .844 1.288 h 1.03 v -1.756 h 1.875 v 1.873 h 1.216 l .563 -1.286 c .655 .467 1.31 1.052 1.593 1.521 z" fill="#f4c676"/><path d="m 378.466 311.175 h -5.153 l -1.874 -2.457 c .564 -.819 .939 -.819 1.499 -1.055 l .844 1.288 h 1.03 v -1.756 h 1.875 v 1.873 h 1.216 l .563 -1.286 c .655 .467 1.31 1.052 1.593 1.521 z" fill="none" stroke="#343536" stroke-width=".721"/><path d="m 374.26 323.317 l .489 -3.832 c .208 -1.873 1.465 -1.873 1.813 0 l .559 3.832 z" fill="#f4c676"/><path d="m 374.26 323.317 l .489 -3.832 c .208 -1.873 1.465 -1.873 1.813 0 l .559 3.832 z" fill="none" stroke="#343536" stroke-width=".721"/><path d="m 377.738 300.875 h -3.828 l -1.39 -1.826 c .416 -.608 .695 -.608 1.112 -.782 l .627 .955 h .766 v -1.304 h 1.393 v 1.393 h .905 l .415 -.957 c .488 .348 .977 .782 1.184 1.13 z" fill="#f4c676"/><path d="m 377.738 300.875 h -3.828 l -1.39 -1.826 c .416 -.608 .695 -.608 1.112 -.782 l .627 .955 h .766 v -1.304 h 1.393 v 1.393 h .905 l .415 -.957 c .488 .348 .977 .782 1.184 1.13 z" fill="none" stroke="#343536" stroke-width=".721"/><path d="m 381.506 310.474 l -.818 13.108 h 6.905 l -1.054 -13.343 c -.116 -.818 0 -1.989 .47 -2.809 c .467 -.819 .349 -3.396 .349 -5.149 c 0 -1.757 -.935 -2.575 -1.521 -2.693 l -1.287 -.233 h -1.17 c -1.99 .7 -2.226 1.521 -2.458 3.044 c -.234 1.521 -.234 3.51 -.586 4.33 c -.352 .817 -.233 3.041 1.17 3.745" fill="#008fce"/><path d="m 381.506 310.474 l -.818 13.108 h 6.905 l -1.054 -13.343 c -.116 -.818 0 -1.989 .47 -2.809 c .467 -.819 .349 -3.396 .349 -5.149 c 0 -1.757 -.935 -2.575 -1.521 -2.693 l -1.287 -.233 h -1.17 c -1.99 .7 -2.226 1.521 -2.458 3.044 c -.234 1.521 -.234 3.51 -.586 4.33 c -.352 .817 -.233 3.041 1.17 3.745 z" fill="none" stroke="#343536" stroke-width=".721"/><path d="M 382.678 296.428 L 382.092 294.554 L 383.027 295.14 L 383.73 294.321 L 384.081 295.374 L 385.134 294.554 L 385.604 295.726 L 386.306 295.14 L 385.485 297.246" fill="#f4c676"/><path d="M 382.678 296.428 L 382.092 294.554 L 383.027 295.14 L 383.73 294.321 L 384.081 295.374 L 385.134 294.554 L 385.604 295.726 L 386.306 295.14 L 385.485 297.246" fill="none" stroke="#343536" stroke-width=".721"/><path d="m 382.678 299.12 c -.137 -.817 -.352 -3.044 .468 -3.044 c .819 0 2.339 -.037 2.339 1.64 c 0 2.574 -2.458 3.511 -2.807 1.404" fill="#f1b698"/><path d="m 382.678 299.12 c -.137 -.817 -.352 -3.044 .468 -3.044 c .819 0 2.339 -.037 2.339 1.64 c 0 2.574 -2.458 3.511 -2.807 1.404 z" fill="none" stroke="#343536" stroke-width=".721"/><path d="m 381.976 307.663 c -.822 .938 -.939 2.342 -.119 2.575 c .821 .235 1.406 -.818 1.406 -1.638 c 0 -.818 -1.054 -1.405 -1.287 -.937" fill="#f1b698"/><path d="m 381.976 307.663 c -.822 .938 -.939 2.342 -.119 2.575 c .821 .235 1.406 -.818 1.406 -1.638 c 0 -.818 -1.054 -1.405 -1.287 -.937 z" fill="none" stroke="#343536" stroke-width=".721"/><path d="m 407.023 260.144 c 3.98 -3.277 12.172 -3.63 17.09 -.353 l 1.99 -1.638 c -5.737 -3.98 -15.803 -3.862 -20.955 .234" fill="#f4c676"/><path d="m 407.023 260.144 c 3.98 -3.277 12.172 -3.63 17.09 -.353 l 1.99 -1.638 c -5.737 -3.98 -15.803 -3.862 -20.955 .234" fill="none" stroke="#343536" stroke-width=".721"/><path d="m 419.079 259.791 c .702 -.35 1.989 .117 2.106 .938 c .117 .818 1.314 2.879 3.629 2.223 c 2.315 -.655 .468 -4.214 1.639 -5.384 c -1.053 .469 -2.459 1.405 -3.043 2.224 c -.585 .82 -1.171 .469 -1.405 -.585 c -.233 -1.053 -1.288 -1.522 -1.873 -.818 c -.584 .7 -1.053 1.402 -1.053 1.402" fill="#7d6054"/><path d="m 419.079 259.791 c .702 -.35 1.989 .117 2.106 .938 c .117 .818 1.314 2.879 3.629 2.223 c 2.315 -.655 .468 -4.214 1.639 -5.384 c -1.053 .469 -2.459 1.405 -3.043 2.224 c -.585 .82 -1.171 .469 -1.405 -.585 c -.233 -1.053 -1.288 -1.522 -1.873 -.818 c -.584 .7 -1.053 1.402 -1.053 1.402 z" fill="none" stroke="#343536" stroke-width=".721"/><path d="M 421.902 264.121 L 425.736 264.121 L 427.271 286.567 L 420.366 286.567 Z" fill="#f4c676"/><path d="M 421.902 264.121 L 425.736 264.121 L 427.271 286.567 L 420.366 286.567 Z" fill="none" stroke="#343536" stroke-width=".721"/><path d="m 421.184 274.423 h 5.152 l 1.872 -2.458 c -.562 -.82 -.937 -.82 -1.498 -1.054 l -.843 1.287 h -1.029 v -1.756 h -1.874 v 1.873 h -1.218 l -.563 -1.287 c -.656 .467 -1.313 1.052 -1.593 1.521 z" fill="#f4c676"/><path d="m 421.184 274.423 h 5.152 l 1.872 -2.458 c -.562 -.82 -.937 -.82 -1.498 -1.054 l -.843 1.287 h -1.029 v -1.756 h -1.874 v 1.873 h -1.218 l -.563 -1.287 c -.656 .467 -1.313 1.052 -1.593 1.521 z" fill="none" stroke="#343536" stroke-width=".721"/><path d="m 425.389 286.567 l -.488 -3.835 c -.211 -1.872 -1.463 -1.872 -1.815 0 l -.557 3.835 z" fill="#f4c676"/><path d="m 425.389 286.567 l -.488 -3.835 c -.211 -1.872 -1.463 -1.872 -1.815 0 l -.557 3.835 z" fill="none" stroke="#343536" stroke-width=".721"/><path d="m 421.91 264.121 h 3.826 l 1.394 -1.825 c -.418 -.609 -.696 -.609 -1.114 -.783 l -.625 .958 h -.767 v -1.307 h -1.393 v 1.392 h -.902 l -.418 -.956 c -.487 .348 -.973 .781 -1.182 1.13 z" fill="#f4c676"/><path d="m 421.91 264.121 h 3.826 l 1.394 -1.825 c -.418 -.609 -.696 -.609 -1.114 -.783 l -.625 .958 h -.767 v -1.307 h -1.393 v 1.392 h -.902 l -.418 -.956 c -.487 .348 -.973 .781 -1.182 1.13 z" fill="none" stroke="#343536" stroke-width=".721"/><path d="m 411.353 259.791 c -.701 -.35 -1.988 .117 -2.106 .938 c -.117 .818 -1.312 2.879 -3.628 2.223 c -2.316 -.655 -.471 -4.214 -1.639 -5.384 c 1.054 .469 2.457 1.405 3.043 2.224 c .584 .82 1.17 .469 1.404 -.585 c .233 -1.053 1.287 -1.522 1.873 -.818 c .586 .7 1.053 1.402 1.053 1.402" fill="#7d6054"/><path d="m 411.353 259.791 c -.701 -.35 -1.988 .117 -2.106 .938 c -.117 .818 -1.312 2.879 -3.628 2.223 c -2.316 -.655 -.471 -4.214 -1.639 -5.384 c 1.054 .469 2.457 1.405 3.043 2.224 c .584 .82 1.17 .469 1.404 -.585 c .233 -1.053 1.287 -1.522 1.873 -.818 c .586 .7 1.053 1.402 1.053 1.402 z" fill="none" stroke="#343536" stroke-width=".721"/><path d="M 408.532 264.121 L 404.695 264.121 L 403.16 286.567 L 410.066 286.567 Z" fill="#f4c676"/><path d="M 408.532 264.121 L 404.695 264.121 L 403.16 286.567 L 410.066 286.567 Z" fill="none" stroke="#343536" stroke-width=".721"/><path d="m 409.25 274.423 h -5.152 l -1.875 -2.458 c .564 -.82 .938 -.82 1.5 -1.054 l .842 1.287 h 1.033 v -1.756 h 1.873 v 1.873 h 1.217 l .563 -1.287 c .652 .467 1.313 1.052 1.591 1.521 z" fill="#f4c676"/><path d="m 409.25 274.423 h -5.152 l -1.875 -2.458 c .564 -.82 .938 -.82 1.5 -1.054 l .842 1.287 h 1.033 v -1.756 h 1.873 v 1.873 h 1.217 l .563 -1.287 c .652 .467 1.313 1.052 1.591 1.521 z" fill="none" stroke="#343536" stroke-width=".721"/><path d="m 405.043 286.567 l .49 -3.835 c .209 -1.872 1.465 -1.872 1.813 0 l .559 3.835 z" fill="#f4c676"/><path d="m 405.043 286.567 l .49 -3.835 c .209 -1.872 1.465 -1.872 1.813 0 l .559 3.835 z" fill="none" stroke="#343536" stroke-width=".721"/><path d="m 408.521 264.121 h -3.826 l -1.393 -1.825 c .418 -.609 .697 -.609 1.113 -.783 l .627 .958 h .766 v -1.307 h 1.392 v 1.392 h .905 l .416 -.956 c .487 .348 .976 .781 1.186 1.13 z" fill="#f4c676"/><path d="m 408.521 264.121 h -3.826 l -1.393 -1.825 c .418 -.609 .697 -.609 1.113 -.783 l .627 .958 h .766 v -1.307 h 1.392 v 1.392 h .905 l .416 -.956 c .487 .348 .976 .781 1.186 1.13 z" fill="none" stroke="#343536" stroke-width=".721"/><path d="m 412.29 273.721 l -.817 13.11 h 6.903 l -1.053 -13.345 c -.117 -.82 0 -1.991 .469 -2.81 c .468 -.818 .351 -3.394 .351 -5.15 c 0 -1.754 -.936 -2.574 -1.521 -2.692 l -1.288 -.231 h -1.172 c -1.987 .7 -2.222 1.519 -2.456 3.042 c -.232 1.521 -.232 3.512 -.586 4.33 c -.35 .818 -.234 3.044 1.17 3.746" fill="#008fce"/><path d="m 412.29 273.721 l -.817 13.11 h 6.903 l -1.053 -13.345 c -.117 -.82 0 -1.991 .469 -2.81 c .468 -.818 .351 -3.394 .351 -5.15 c 0 -1.754 -.936 -2.574 -1.521 -2.692 l -1.288 -.231 h -1.172 c -1.987 .7 -2.222 1.519 -2.456 3.042 c -.232 1.521 -.232 3.512 -.586 4.33 c -.35 .818 -.234 3.044 1.17 3.746 z" fill="none" stroke="#343536" stroke-width=".721"/><path d="M 413.461 259.675 L 412.875 257.801 L 413.813 258.388 L 414.514 257.567 L 414.865 258.62 L 415.918 257.801 L 416.387 258.973 L 417.088 258.388 L 416.271 260.493" fill="#f4c676"/><path d="M 413.461 259.675 L 412.875 257.801 L 413.813 258.388 L 414.514 257.567 L 414.865 258.62 L 415.918 257.801 L 416.387 258.973 L 417.088 258.388 L 416.271 260.493" fill="none" stroke="#343536" stroke-width=".721"/><path d="m 413.461 262.366 c -.137 -.816 -.352 -3.043 .469 -3.043 c .818 0 2.342 -.038 2.342 1.639 c -.001 2.575 -2.459 3.512 -2.811 1.404" fill="#f1b698"/><path d="m 413.461 262.366 c -.137 -.816 -.352 -3.043 .469 -3.043 c .818 0 2.342 -.038 2.342 1.639 c -.001 2.575 -2.459 3.512 -2.811 1.404 z" fill="none" stroke="#343536" stroke-width=".721"/><path d="m 412.757 270.911 c -.817 .936 -.936 2.341 -.114 2.575 c .818 .234 1.402 -.82 1.402 -1.64 c 0 -.818 -1.054 -1.404 -1.288 -.935" fill="#f1b698"/><path d="m 412.757 270.911 c -.817 .936 -.936 2.341 -.114 2.575 c .818 .234 1.402 -.82 1.402 -1.64 c 0 -.818 -1.054 -1.404 -1.288 -.935 z" fill="none" stroke="#343536" stroke-width=".721"/><path d="M 426.56 320.648 L 423.027 320.648 L 421.615 325.19 L 427.975 325.19 Z" fill="#f4c676"/><path d="M 426.56 320.648 L 423.027 320.648 L 421.615 325.19 L 427.975 325.19 Z" fill="none" stroke="#343536" stroke-width=".721"/><path d="m 426.56 320.634 h -3.533 l -.916 -1.349 c .386 -.45 .643 -.45 1.029 -.578 l .209 .707 h .707 v -.965 h 1.282 v 1.028 h .47 l .383 -.706 c .453 .256 .795 .578 .988 .835 z" fill="#f4c676"/><path d="m 426.56 320.634 h -3.533 l -.916 -1.349 c .386 -.45 .643 -.45 1.029 -.578 l .209 .707 h .707 v -.965 h 1.282 v 1.028 h .47 l .383 -.706 c .453 .256 .795 .578 .988 .835 z" fill="none" stroke="#343536" stroke-width=".721"/><path d="m 423.35 325.19 l .449 -2.102 c .191 -1.028 1.35 -1.028 1.67 0 l .516 2.102 z" fill="#f4c676"/><path d="m 423.35 325.19 l .449 -2.102 c .191 -1.028 1.35 -1.028 1.67 0 l .516 2.102 z" fill="none" stroke="#343536" stroke-width=".721"/><path d="M 426.257 307.186 L 422.725 307.186 L 421.31 311.73 L 427.669 311.73 Z" fill="#f4c676"/><path d="M 426.257 307.186 L 422.725 307.186 L 421.31 311.73 L 427.669 311.73 Z" fill="none" stroke="#343536" stroke-width=".721"/><path d="m 426.257 307.173 h -3.532 l -.916 -1.349 c .385 -.45 .641 -.45 1.026 -.577 l .21 .705 h .706 v -.963 h 1.286 v 1.028 h .465 l .387 -.706 c .447 .255 .795 .577 .986 .835 z" fill="#f4c676"/><path d="m 426.257 307.173 h -3.532 l -.916 -1.349 c .385 -.45 .641 -.45 1.026 -.577 l .21 .705 h .706 v -.963 h 1.286 v 1.028 h .465 l .387 -.706 c .447 .255 .795 .577 .986 .835 z" fill="none" stroke="#343536" stroke-width=".721"/><path d="m 423.045 311.73 l .449 -2.103 c .193 -1.028 1.35 -1.028 1.669 0 l .517 2.103 z" fill="#f4c676"/><path d="m 423.045 311.73 l .449 -2.103 c .193 -1.028 1.35 -1.028 1.669 0 l .517 2.103 z" fill="none" stroke="#343536" stroke-width=".721"/><path d="M 426.56 295.481 L 423.027 295.481 L 421.615 300.026 L 427.975 300.026 Z" fill="#f4c676"/><path d="M 426.56 295.481 L 423.027 295.481 L 421.615 300.026 L 427.975 300.026 Z" fill="none" stroke="#343536" stroke-width=".721"/><path d="m 426.56 295.469 h -3.533 l -.916 -1.349 c .386 -.45 .643 -.45 1.029 -.579 l .209 .707 h .707 v -.965 h 1.282 v 1.028 h .47 l .383 -.706 c .453 .258 .795 .579 .988 .835 z" fill="#f4c676"/><path d="m 426.56 295.469 h -3.533 l -.916 -1.349 c .386 -.45 .643 -.45 1.029 -.579 l .209 .707 h .707 v -.965 h 1.282 v 1.028 h .47 l .383 -.706 c .453 .258 .795 .579 .988 .835 z" fill="none" stroke="#343536" stroke-width=".721"/><path d="m 423.35 300.026 l .449 -2.104 c .191 -1.027 1.35 -1.027 1.67 0 l .516 2.104 z" fill="#f4c676"/><path d="m 423.35 300.026 l .449 -2.104 c .191 -1.027 1.35 -1.027 1.67 0 l .516 2.104 z" fill="none" stroke="#343536" stroke-width=".721"/><path d="M 406.424 320.648 L 402.893 320.648 L 401.478 325.19 L 407.838 325.19 Z" fill="#f4c676"/><path d="M 406.424 320.648 L 402.893 320.648 L 401.478 325.19 L 407.838 325.19 Z" fill="none" stroke="#343536" stroke-width=".721"/><path d="m 406.424 320.634 h -3.531 l -.918 -1.349 c .385 -.45 .643 -.45 1.029 -.578 l .209 .707 h .707 v -.965 h 1.284 v 1.028 h .467 l .386 -.706 c .449 .256 .793 .578 .986 .835 z" fill="#f4c676"/><path d="m 406.424 320.634 h -3.531 l -.918 -1.349 c .385 -.45 .643 -.45 1.029 -.578 l .209 .707 h .707 v -.965 h 1.284 v 1.028 h .467 l .386 -.706 c .449 .256 .793 .578 .986 .835 z" fill="none" stroke="#343536" stroke-width=".721"/><path d="m 403.213 325.19 l .45 -2.102 c .192 -1.028 1.349 -1.028 1.671 0 l .512 2.102 z" fill="#f4c676"/><path d="m 403.213 325.19 l .45 -2.102 c .192 -1.028 1.349 -1.028 1.671 0 l .512 2.102 z" fill="none" stroke="#343536" stroke-width=".721"/><path d="M 406.424 307.186 L 402.893 307.186 L 401.478 311.73 L 407.838 311.73 Z" fill="#f4c676"/><path d="M 406.424 307.186 L 402.893 307.186 L 401.478 311.73 L 407.838 311.73 Z" fill="none" stroke="#343536" stroke-width=".721"/><path d="m 406.424 307.173 h -3.531 l -.918 -1.349 c .385 -.45 .643 -.45 1.029 -.577 l .209 .705 h .707 v -.963 h 1.284 v 1.028 h .467 l .386 -.706 c .449 .255 .793 .577 .986 .835 z" fill="#f4c676"/><path d="m 406.424 307.173 h -3.531 l -.918 -1.349 c .385 -.45 .643 -.45 1.029 -.577 l .209 .705 h .707 v -.963 h 1.284 v 1.028 h .467 l .386 -.706 c .449 .255 .793 .577 .986 .835 z" fill="none" stroke="#343536" stroke-width=".721"/><path d="m 403.213 311.73 l .45 -2.103 c .192 -1.028 1.349 -1.028 1.671 0 l .512 2.103 z" fill="#f4c676"/><path d="m 403.213 311.73 l .45 -2.103 c .192 -1.028 1.349 -1.028 1.671 0 l .512 2.103 z" fill="none" stroke="#343536" stroke-width=".721"/><path d="M 406.424 295.481 L 402.893 295.481 L 401.478 300.026 L 407.838 300.026 Z" fill="#f4c676"/><path d="M 406.424 295.481 L 402.893 295.481 L 401.478 300.026 L 407.838 300.026 Z" fill="none" stroke="#343536" stroke-width=".721"/><path d="m 406.424 295.469 h -3.531 l -.918 -1.349 c .385 -.45 .643 -.45 1.029 -.579 l .209 .707 h .707 v -.965 h 1.284 v 1.028 h .467 l .386 -.706 c .449 .258 .793 .579 .986 .835 z" fill="#f4c676"/><path d="m 406.424 295.469 h -3.531 l -.918 -1.349 c .385 -.45 .643 -.45 1.029 -.579 l .209 .707 h .707 v -.965 h 1.284 v 1.028 h .467 l .386 -.706 c .449 .258 .793 .579 .986 .835 z" fill="none" stroke="#343536" stroke-width=".721"/><path d="m 403.213 300.026 l .45 -2.104 c .192 -1.027 1.349 -1.027 1.671 0 l .512 2.104 z" fill="#f4c676"/><path d="m 403.213 300.026 l .45 -2.104 c .192 -1.027 1.349 -1.027 1.671 0 l .512 2.104 z" fill="none" stroke="#343536" stroke-width=".721"/><path d="M 416.834 295.481 L 413.302 295.481 L 411.889 300.026 L 418.248 300.026 Z" fill="#f4c676"/><path d="M 416.834 295.481 L 413.302 295.481 L 411.889 300.026 L 418.248 300.026 Z" fill="none" stroke="#343536" stroke-width=".721"/><path d="m 416.834 295.469 h -3.532 l -.916 -1.349 c .384 -.45 .642 -.45 1.029 -.579 l .209 .707 h .705 v -.965 h 1.284 v 1.028 h .467 l .387 -.706 c .449 .258 .794 .579 .986 .835 z" fill="#f4c676"/><path d="m 416.834 295.469 h -3.532 l -.916 -1.349 c .384 -.45 .642 -.45 1.029 -.579 l .209 .707 h .705 v -.965 h 1.284 v 1.028 h .467 l .387 -.706 c .449 .258 .794 .579 .986 .835 z" fill="none" stroke="#343536" stroke-width=".721"/><path d="m 413.624 300.026 l .448 -2.104 c .193 -1.027 1.349 -1.027 1.669 0 l .516 2.104 z" fill="#f4c676"/><path d="m 413.624 300.026 l .448 -2.104 c .193 -1.027 1.349 -1.027 1.669 0 l .516 2.104 z" fill="none" stroke="#343536" stroke-width=".721"/><path d="m 421.063 301.139 v 14.455 c 0 2.137 -.982 3.424 -2.836 3.424 h -2.283 c -.576 0 -1.254 .205 -1.43 .732 c -.175 -.527 -.851 -.732 -1.43 -.732 h -2.281 c -1.855 0 -2.835 -1.287 -2.835 -3.424 v -14.455 z" fill="#fff"/><path d="m 421.063 301.139 v 14.455 c 0 2.137 -.982 3.424 -2.836 3.424 h -2.283 c -.576 0 -1.254 .205 -1.43 .732 c -.175 -.527 -.851 -.732 -1.43 -.732 h -2.281 c -1.855 0 -2.835 -1.287 -2.835 -3.424 v -14.455 z" fill="none" stroke="#343536" stroke-width=".721"/><path d="M 413.578 305.907 L 415.218 305.907 L 415.802 302.572 L 412.875 302.572 Z" fill="#008fce"/><path d="M 413.578 311.76 L 415.218 311.76 L 415.802 315.096 L 412.875 315.096 Z" fill="#008fce"/><path d="M 412.174 309.42 L 412.174 307.782 L 408.838 307.195 L 408.838 310.122 Z" fill="#008fce"/><path d="M 416.271 309.42 L 416.271 307.782 L 419.603 307.195 L 419.603 310.122 Z" fill="#008fce"/><path d="M 413.34399 307.54599 H 415.33299 V 310.00499 H 413.34399 Z" fill="#008fce"/><path d="M 396.598 283.894 L 393.063 283.894 L 391.65 288.44 L 398.011 288.44 Z" fill="#f4c676"/><path d="M 396.598 283.894 L 393.063 283.894 L 391.65 288.44 L 398.011 288.44 Z" fill="none" stroke="#343536" stroke-width=".721"/><path d="m 396.598 283.882 h -3.535 l -.916 -1.351 c .385 -.449 .643 -.449 1.029 -.577 l .209 .706 h .707 v -.965 h 1.284 v 1.029 h .466 l .387 -.706 c .45 .257 .793 .577 .986 .834 z" fill="#f4c676"/><path d="m 396.598 283.882 h -3.535 l -.916 -1.351 c .385 -.449 .643 -.449 1.029 -.577 l .209 .706 h .707 v -.965 h 1.284 v 1.029 h .466 l .387 -.706 c .45 .257 .793 .577 .986 .834 z" fill="none" stroke="#343536" stroke-width=".721"/><path d="m 393.385 288.44 l .45 -2.104 c .192 -1.028 1.35 -1.028 1.67 0 l .515 2.104 z" fill="#f4c676"/><path d="m 393.385 288.44 l .45 -2.104 c .192 -1.028 1.35 -1.028 1.67 0 l .515 2.104 z" fill="none" stroke="#343536" stroke-width=".721"/><path d="M 396.292 270.433 L 392.76 270.433 L 391.346 274.977 L 397.706 274.977 Z" fill="#f4c676"/><path d="M 396.292 270.433 L 392.76 270.433 L 391.346 274.977 L 397.706 274.977 Z" fill="none" stroke="#343536" stroke-width=".721"/><path d="m 396.292 270.421 h -3.532 l -.917 -1.35 c .386 -.449 .643 -.449 1.028 -.577 l .211 .706 h .705 v -.963 h 1.285 v 1.026 h .466 l .387 -.706 c .449 .257 .793 .578 .985 .835 z" fill="#f4c676"/><path d="m 396.292 270.421 h -3.532 l -.917 -1.35 c .386 -.449 .643 -.449 1.028 -.577 l .211 .706 h .705 v -.963 h 1.285 v 1.026 h .466 l .387 -.706 c .449 .257 .793 .578 .985 .835 z" fill="none" stroke="#343536" stroke-width=".721"/><path d="m 393.082 274.977 l .448 -2.103 c .193 -1.027 1.35 -1.027 1.67 0 l .514 2.103 z" fill="#f4c676"/><path d="m 393.082 274.977 l .448 -2.103 c .193 -1.027 1.35 -1.027 1.67 0 l .514 2.103 z" fill="none" stroke="#343536" stroke-width=".721"/><path d="M 396.598 258.729 L 393.063 258.729 L 391.65 263.273 L 398.011 263.273 Z" fill="#f4c676"/><path d="M 396.598 258.729 L 393.063 258.729 L 391.65 263.273 L 398.011 263.273 Z" fill="none" stroke="#343536" stroke-width=".721"/><path d="m 396.598 258.716 h -3.535 l -.916 -1.349 c .385 -.451 .643 -.451 1.029 -.579 l .209 .708 h .707 v -.965 h 1.284 v 1.028 h .466 l .387 -.707 c .45 .257 .793 .579 .986 .836 z" fill="#f4c676"/><path d="m 396.598 258.716 h -3.535 l -.916 -1.349 c .385 -.451 .643 -.451 1.029 -.579 l .209 .708 h .707 v -.965 h 1.284 v 1.028 h .466 l .387 -.707 c .45 .257 .793 .579 .986 .836 z" fill="none" stroke="#343536" stroke-width=".721"/><path d="m 393.385 263.273 l .45 -2.103 c .192 -1.028 1.35 -1.028 1.67 0 l .515 2.103 z" fill="#f4c676"/><path d="m 393.385 263.273 l .45 -2.103 c .192 -1.028 1.35 -1.028 1.67 0 l .515 2.103 z" fill="none" stroke="#343536" stroke-width=".721"/><path d="M 376.461 283.894 L 372.926 283.894 L 371.515 288.44 L 377.873 288.44 Z" fill="#f4c676"/><path d="M 376.461 283.894 L 372.926 283.894 L 371.515 288.44 L 377.873 288.44 Z" fill="none" stroke="#343536" stroke-width=".721"/><path d="m 376.461 283.882 h -3.535 l -.915 -1.351 c .385 -.449 .642 -.449 1.029 -.577 l .209 .706 h .706 v -.965 h 1.285 v 1.029 h .467 l .384 -.706 c .451 .257 .794 .577 .988 .834 z" fill="#f4c676"/><path d="m 376.461 283.882 h -3.535 l -.915 -1.351 c .385 -.449 .642 -.449 1.029 -.577 l .209 .706 h .706 v -.965 h 1.285 v 1.029 h .467 l .384 -.706 c .451 .257 .794 .577 .988 .834 z" fill="none" stroke="#343536" stroke-width=".721"/><path d="m 373.249 288.44 l .449 -2.104 c .193 -1.028 1.349 -1.028 1.671 0 l .513 2.104 z" fill="#f4c676"/><path d="m 373.249 288.44 l .449 -2.104 c .193 -1.028 1.349 -1.028 1.671 0 l .513 2.104 z" fill="none" stroke="#343536" stroke-width=".721"/><path d="M 376.461 270.433 L 372.926 270.433 L 371.515 274.977 L 377.873 274.977 Z" fill="#f4c676"/><path d="M 376.461 270.433 L 372.926 270.433 L 371.515 274.977 L 377.873 274.977 Z" fill="none" stroke="#343536" stroke-width=".721"/><path d="m 376.461 270.421 h -3.535 l -.915 -1.35 c .385 -.449 .642 -.449 1.029 -.577 l .209 .706 h .706 v -.963 h 1.285 v 1.026 h .467 l .384 -.706 c .451 .257 .794 .578 .988 .835 z" fill="#f4c676"/><path d="m 376.461 270.421 h -3.535 l -.915 -1.35 c .385 -.449 .642 -.449 1.029 -.577 l .209 .706 h .706 v -.963 h 1.285 v 1.026 h .467 l .384 -.706 c .451 .257 .794 .578 .988 .835 z" fill="none" stroke="#343536" stroke-width=".721"/><path d="m 373.249 274.977 l .449 -2.103 c .193 -1.027 1.349 -1.027 1.671 0 l .513 2.103 z" fill="#f4c676"/><path d="m 373.249 274.977 l .449 -2.103 c .193 -1.027 1.349 -1.027 1.671 0 l .513 2.103 z" fill="none" stroke="#343536" stroke-width=".721"/><path d="M 376.461 258.729 L 372.926 258.729 L 371.515 263.273 L 377.873 263.273 Z" fill="#f4c676"/><path d="M 376.461 258.729 L 372.926 258.729 L 371.515 263.273 L 377.873 263.273 Z" fill="none" stroke="#343536" stroke-width=".721"/><path d="m 376.461 258.716 h -3.535 l -.915 -1.349 c .385 -.451 .642 -.451 1.029 -.579 l .209 .708 h .706 v -.965 h 1.285 v 1.028 h .467 l .384 -.707 c .451 .257 .794 .579 .988 .836 z" fill="#f4c676"/><path d="m 376.461 258.716 h -3.535 l -.915 -1.349 c .385 -.451 .642 -.451 1.029 -.579 l .209 .708 h .706 v -.965 h 1.285 v 1.028 h .467 l .384 -.707 c .451 .257 .794 .579 .988 .836 z" fill="none" stroke="#343536" stroke-width=".721"/><path d="m 373.249 263.273 l .449 -2.103 c .193 -1.028 1.349 -1.028 1.671 0 l .513 2.103 z" fill="#f4c676"/><path d="m 373.249 263.273 l .449 -2.103 c .193 -1.028 1.349 -1.028 1.671 0 l .513 2.103 z" fill="none" stroke="#343536" stroke-width=".721"/><path d="M 386.869 258.729 L 383.337 258.729 L 381.924 263.273 L 388.283 263.273 Z" fill="#f4c676"/><path d="M 386.869 258.729 L 383.337 258.729 L 381.924 263.273 L 388.283 263.273 Z" fill="none" stroke="#343536" stroke-width=".721"/><path d="m 386.869 258.716 h -3.532 l -.915 -1.349 c .384 -.451 .641 -.451 1.028 -.579 l .209 .708 h .706 v -.965 h 1.284 v 1.028 h .467 l .386 -.707 c .449 .257 .793 .579 .986 .836 z" fill="#f4c676"/><path d="m 386.869 258.716 h -3.532 l -.915 -1.349 c .384 -.451 .641 -.451 1.028 -.579 l .209 .708 h .706 v -.965 h 1.284 v 1.028 h .467 l .386 -.707 c .449 .257 .793 .579 .986 .836 z" fill="none" stroke="#343536" stroke-width=".721"/><path d="m 383.659 263.273 l .448 -2.103 c .194 -1.028 1.351 -1.028 1.67 0 l .516 2.103 z" fill="#f4c676"/><path d="m 383.659 263.273 l .448 -2.103 c .194 -1.028 1.351 -1.028 1.67 0 l .516 2.103 z" fill="none" stroke="#343536" stroke-width=".721"/><path d="m 391.097 264.386 v 14.456 c 0 2.134 -.983 3.424 -2.835 3.424 h -2.283 c -.578 0 -1.253 .204 -1.429 .73 c -.176 -.526 -.853 -.73 -1.43 -.73 h -2.282 c -1.855 0 -2.834 -1.29 -2.834 -3.424 v -14.456 z" fill="#fff"/><path d="m 391.097 264.386 v 14.456 c 0 2.134 -.983 3.424 -2.835 3.424 h -2.283 c -.578 0 -1.253 .204 -1.429 .73 c -.176 -.526 -.853 -.73 -1.43 -.73 h -2.282 c -1.855 0 -2.834 -1.29 -2.834 -3.424 v -14.456 z" fill="none" stroke="#343536" stroke-width=".721"/><path d="M 383.613 269.155 L 385.252 269.155 L 385.837 265.819 L 382.911 265.819 Z" fill="#008fce"/><path d="M 383.613 275.008 L 385.252 275.008 L 385.837 278.344 L 382.911 278.344 Z" fill="#008fce"/><path d="M 382.209 272.666 L 382.209 271.028 L 378.874 270.442 L 378.874 273.37 Z" fill="#008fce"/><path d="M 386.306 272.666 L 386.306 271.028 L 389.641 270.442 L 389.641 273.37 Z" fill="#008fce"/><path d="M 383.38 270.793 H 385.369 V 273.252 H 383.38 Z" fill="#008fce"/><path d="m 389.466 199.746 c -1.17 -.35 -1.99 -.469 -2.694 0 c -.701 .469 .119 1.17 .821 .938 c .703 -.236 1.17 -.938 1.873 -.938" fill="#e03865"/><path d="m 389.466 199.746 c -1.17 -.35 -1.99 -.469 -2.694 0 c -.701 .469 .119 1.17 .821 .938 c .703 -.236 1.17 -.938 1.873 -.938 z" fill="none" stroke="#343536" stroke-width=".721"/></g></svg>