<svg id="Layer_1" data-name="Layer 1" xmlns="http://www.w3.org/2000/svg" viewBox="0 0 505.94 631.38"><defs><style>.cls-1{fill:#34327e;}.cls-10,.cls-11,.cls-12,.cls-13,.cls-14,.cls-15,.cls-16,.cls-18,.cls-19,.cls-2,.cls-3,.cls-5,.cls-6,.cls-7,.cls-8,.cls-9{fill:none;}.cls-10,.cls-11,.cls-12,.cls-13,.cls-14,.cls-16,.cls-18,.cls-19,.cls-2,.cls-3,.cls-6,.cls-7,.cls-8,.cls-9{stroke:#c8ad85;}.cls-10,.cls-11,.cls-12,.cls-13,.cls-2,.cls-22,.cls-3,.cls-7,.cls-8,.cls-9{stroke-width:1.59px;}.cls-2{stroke-dasharray:1.91 1.27 2.54;}.cls-3{stroke-dasharray:0.64 1.27 1.91;}.cls-17,.cls-20,.cls-22,.cls-4{fill:#c8ad85;}.cls-15,.cls-17,.cls-22,.cls-4,.cls-5{stroke:#34327e;}.cls-4{stroke-width:0.32px;}.cls-5{stroke-width:0.64px;}.cls-10,.cls-11,.cls-12,.cls-13,.cls-16,.cls-6,.cls-7,.cls-8,.cls-9{stroke-linecap:round;}.cls-6{stroke-width:1.27px;}.cls-10,.cls-11,.cls-12,.cls-13,.cls-7,.cls-8,.cls-9{stroke-miterlimit:1;}.cls-7{stroke-dasharray:2.54 3.81 3.18 3.81 3.18 0;}.cls-8{stroke-dasharray:2.54 3.81 3.81 3.81 3.18 0;}.cls-9{stroke-dasharray:4.45 3.81 4.45 3.81 3.81 0;}.cls-10{stroke-dasharray:3.81 3.81 3.81 3.81 0.64 0;}.cls-11{stroke-dasharray:0.95 3.18 2.54 3.18 4.45 0;}.cls-13{stroke-dasharray:3.81 3.81 3.81 3.18 3.81 0;}.cls-14{stroke-width:0.95px;}.cls-15{stroke-width:2.54px;}.cls-16{stroke-width:3.18px;}.cls-17,.cls-18{stroke-width:1.91px;}.cls-19{stroke-width:0.79px;}.cls-21{fill:#fff200;}</style></defs><title>aik-fotbol-stockholm</title><path class="cls-1" d="M286.87,56.23s44.57-6.88,100.6-.23l-7.66,43.85-88.91.72Z" transform="translate(-81.87 -19.09)"/><path class="cls-2" d="M301.57,61.21s5.93-.47,14.93-.47" transform="translate(-81.87 -19.09)"/><path class="cls-3" d="M301.33,70.69a172,172,0,0,1,18-.47" transform="translate(-81.87 -19.09)"/><path class="cls-3" d="M301.33,91.56a173.41,173.41,0,0,1,18-.48" transform="translate(-81.87 -19.09)"/><path class="cls-2" d="M303.46,80.18s5.93-.48,14.94-.48" transform="translate(-81.87 -19.09)"/><path class="cls-2" d="M369.19,61.21s-5.93-.47-14.94-.47" transform="translate(-81.87 -19.09)"/><path class="cls-3" d="M369.42,70.69a171.69,171.69,0,0,0-18-.47" transform="translate(-81.87 -19.09)"/><path class="cls-3" d="M369.42,91.56a173.12,173.12,0,0,0-18-.48" transform="translate(-81.87 -19.09)"/><path class="cls-2" d="M367.29,80.18s-5.93-.48-14.94-.48" transform="translate(-81.87 -19.09)"/><polygon class="cls-4" points="236.06 77.21 236.06 24.82 228.47 17.23 228.47 0.4 239.61 0.4 239.61 9.64 247.67 9.64 247.67 0.16 258.58 0.16 258.58 9.64 266.64 9.64 266.64 0.4 277.78 0.4 277.78 17.23 270.2 24.82 270.2 77.21 236.06 77.21"/><rect class="cls-5" x="243.17" y="30.27" width="6.4" height="6.4"/><rect class="cls-5" x="256.44" y="30.27" width="6.4" height="6.4"/><path class="cls-5" d="M340.78,96.54v-24s.47-5.93-5.69-5.93H335c-6.17,0-5.69,5.93-5.69,5.93v24Z" transform="translate(-81.87 -19.09)"/><polygon class="cls-1" points="228.52 17.28 277.83 17.28 270.43 24.63 235.87 24.63 228.52 17.28"/><polygon class="cls-4" points="284.19 77.87 290.57 25.87 283.97 17.41 286.02 0.7 297.08 2.06 295.95 11.24 303.95 12.22 305.11 2.81 315.93 4.14 314.78 13.55 322.78 14.53 323.9 5.36 334.96 6.71 332.91 23.42 324.46 30.03 318.07 82.03 284.19 77.87"/><rect class="cls-5" x="378.43" y="51.6" width="6.4" height="6.4" transform="translate(198.87 407.82) rotate(-83)"/><rect class="cls-5" x="391.6" y="53.22" width="6.4" height="6.4" transform="translate(208.85 422.33) rotate(-83)"/><path class="cls-5" d="M388.71,100l2.92-23.77s1.19-5.82-4.92-6.57l-.1,0c-6.11-.75-6.37,5.19-6.37,5.19l-2.91,23.77Z" transform="translate(-81.87 -19.09)"/><polygon class="cls-1" points="284.01 17.46 332.95 23.47 324.72 29.87 290.41 25.66 284.01 17.46"/><polygon class="cls-4" points="188.82 82.19 182.43 30.19 173.98 23.58 171.93 6.87 182.99 5.52 184.11 14.69 192.12 13.71 190.96 4.3 201.78 2.97 202.94 12.38 210.94 11.4 209.81 2.22 220.87 0.86 222.93 17.57 216.32 26.03 222.71 78.03 188.82 82.19"/><rect class="cls-5" x="272.4" y="53.4" width="6.4" height="6.4" transform="translate(-86.72 14.97) rotate(-7.01)"/><rect class="cls-5" x="285.58" y="51.79" width="6.4" height="6.4" transform="translate(-86.42 16.49) rotate(-7)"/><path class="cls-5" d="M293.4,98.73,290.48,75s-.25-5.94-6.36-5.19H284c-6.11.75-4.92,6.58-4.92,6.58L282,100.13Z" transform="translate(-81.87 -19.09)"/><polygon class="cls-1" points="174.03 23.62 222.98 17.61 216.53 25.81 182.22 30.02 174.03 23.62"/><path class="cls-1" d="M335.16,179l81.56-9.64C396.17,157.47,397,134.39,397,134.39s-1.15-4.95,4-18.81c6.17-16.75-8.06-19.28-8.06-19.28-21.81-5-57.61-4.74-57.61-4.74s-35.33-.48-57.78,4.74c0,0-14.22,2.53-8.06,19.28,5.1,13.86,4,18.81,4,18.81s.79,23.08-19.76,34.93L335.16,179Z" transform="translate(-81.87 -19.09)"/><path class="cls-6" d="M273.36,105.55s58.32-13.52,123.52-.24" transform="translate(-81.87 -19.09)"/><path class="cls-7" d="M276,114.08s27.5-5.22,50-5.45" transform="translate(-81.87 -19.09)"/><path class="cls-8" d="M279.05,134.47a251.26,251.26,0,0,1,48.84-6.16" transform="translate(-81.87 -19.09)"/><path class="cls-9" d="M335.71,108.15s25.37-.47,59,5.93" transform="translate(-81.87 -19.09)"/><path class="cls-10" d="M338.32,128.07A281.94,281.94,0,0,1,391.9,134" transform="translate(-81.87 -19.09)"/><path class="cls-11" d="M278.33,123.56a276.45,276.45,0,0,1,37.94-5.21" transform="translate(-81.87 -19.09)"/><path class="cls-12" d="M326.23,117.64a64,64,0,0,1,10.67,0" transform="translate(-81.87 -19.09)"/><path class="cls-13" d="M346.38,117.87a285.33,285.33,0,0,1,46.47,5.46" transform="translate(-81.87 -19.09)"/><line class="cls-14" x1="214.24" y1="131.27" x2="214.24" y2="154.98"/><line class="cls-14" x1="219.93" y1="131.27" x2="219.93" y2="154.98"/><line class="cls-14" x1="225.62" y1="129.37" x2="225.62" y2="154.98"/><line class="cls-14" x1="231.31" y1="129.37" x2="231.31" y2="154.98"/><line class="cls-14" x1="299.6" y1="131.27" x2="299.6" y2="154.98"/><line class="cls-14" x1="237" y1="127.48" x2="237" y2="154.98"/><line class="cls-14" x1="242.69" y1="127.48" x2="242.69" y2="154.98"/><line class="cls-14" x1="248.38" y1="127.48" x2="248.38" y2="154.98"/><line class="cls-14" x1="254.07" y1="127.48" x2="254.07" y2="158.77"/><line class="cls-14" x1="259.76" y1="127.48" x2="259.76" y2="154.98"/><line class="cls-14" x1="265.46" y1="129.37" x2="265.46" y2="154.98"/><line class="cls-14" x1="271.14" y1="129.37" x2="271.14" y2="154.98"/><line class="cls-14" x1="276.83" y1="129.37" x2="276.83" y2="154.98"/><line class="cls-14" x1="282.52" y1="131.27" x2="282.52" y2="154.98"/><line class="cls-14" x1="288.21" y1="131.27" x2="288.21" y2="154.98"/><line class="cls-14" x1="293.91" y1="131.27" x2="293.91" y2="154.98"/><line class="cls-14" x1="208.55" y1="131.27" x2="208.55" y2="154.98"/><path class="cls-15" d="M273.36,155.57s48.12-20.15,130.87,0" transform="translate(-81.87 -19.09)"/><path class="cls-16" d="M279.76,146.33s43.62-15.18,111.19-.24" transform="translate(-81.87 -19.09)"/><path class="cls-17" d="M96.42,273.17s-13.59.63-13.59,16.28c0,0,.31,14.07,15.33,14.07,0,0,16.82-.63,23.3-23.55C121.46,280,112.45,272.54,96.42,273.17Z" transform="translate(-81.87 -19.09)"/><path class="cls-17" d="M232.1,127.64a13.92,13.92,0,1,0-13.92-13.91A13.92,13.92,0,0,0,232.1,127.64Z" transform="translate(-81.87 -19.09)"/><polygon class="cls-1" points="130.07 89.9 139.32 81.95 136.95 92.03 130.07 89.9"/><path class="cls-17" d="M573.26,273.17s13.6.63,13.6,16.28c0,0-.32,14.07-15.33,14.07,0,0-16.82-.63-23.3-23.55C548.23,280,557.24,272.54,573.26,273.17Z" transform="translate(-81.87 -19.09)"/><path class="cls-17" d="M437.59,127.64a13.92,13.92,0,1,1,13.91-13.91A13.92,13.92,0,0,1,437.59,127.64Z" transform="translate(-81.87 -19.09)"/><polygon class="cls-1" points="375.87 89.9 366.62 81.95 368.99 92.03 375.87 89.9"/><path class="cls-17" d="M335,649.52C221.46,583.13,234.42,526.86,234.42,526.86,188,581.23,90.58,463.32,90.58,463.32c57.54-75.55,53.11-121.71,53.11-121.71,0-84.4-56.58-66.86-56.58-66.86l22.6-56.27c33.51-.16,51.69,2.37,51.69,2.37l18.17-19.6c-9.8-16.59-15.49-46.63-15.49-46.63L217.19,108c10.91,31.13,37,41.25,59,46S335,177.86,335,177.86s36.83-19.13,58.8-23.87,48.05-14.86,58.95-46l53.11,46.62s-5.69,30-15.49,46.63l18.18,19.6s18.18-2.53,51.69-2.37l22.6,56.27s-56.59-17.54-56.59,66.86c0,0-4.42,46.16,53.11,121.71,0,0-97.36,117.91-143.83,63.54,0,0,13,56.27-100.53,122.66Z" transform="translate(-81.87 -19.09)"/><path class="cls-1" d="M335.32,632.6c-84.88-50.26-80.62-84.88-80.62-84.88,13,0,13.28-13.51,13.28-13.51,0-14.94-15.17-15.18-15.17-15.18-15.18.24-16.44,15.42-16.44,15.42l-4.9-8.78a19.94,19.94,0,0,0,2.37-11.14c0-15.17-14-16.36-14-16.36-14,0-12.8,13.51-12.8,13.51,0,10,5.93,13.05,5.93,13.05C180,539,107.23,461.42,107.23,461.42c52.16-69.23,48.84-121.07,48.84-121.07,0-80-50.58-79.67-50.58-79.67L116.24,231c33.19,0,47.11,5.69,47.11,5.69l33.5-34.14c-16.44-26.56-18-44-18-44l34.78-29.71c13.59,22.76,35.09,31,58.48,37.62S335,193,335,193s39.83-19.91,63.22-26.55,44.89-14.86,58.49-37.62l34.77,29.71s-1.58,17.39-18,44L507,236.66s13.91-5.69,47.1-5.69l10.75,29.71s-50.58-.31-50.58,79.67c0,0-3.32,51.84,48.84,121.07,0,0-72.79,77.53-105.74,63.31,0,0,5.92-3.09,5.92-13.05,0,0,1.19-13.51-12.8-13.51,0,0-14,1.19-14,16.36a19.89,19.89,0,0,0,2.38,11.14l-5.22,9.41S433,519.27,417.51,519c0,0-15.18.24-15.18,15.18,0,0,.24,13.51,13.28,13.51,0,0,4.27,34.62-80.61,84.88Z" transform="translate(-81.87 -19.09)"/><line class="cls-18" x1="40.22" y1="465.57" x2="382.58" y2="123.45"/><line class="cls-18" x1="157.82" y1="497.7" x2="448.49" y2="207.34"/><polyline class="cls-19" points="173.46 158.3 165.88 230.85 155.92 157.82 165.88 230.85 139.32 159.72 165.88 230.85 133.16 184.85 165.88 230.85 121.3 196.71 165.88 230.85 112.29 210.46 165.88 230.85 98.54 227.06 165.88 230.85 91.9 249.34 165.88 230.85 90.95 272.1 165.88 230.85 97.12 295.81 165.88 230.85 110.39 317.15 165.88 230.85 131.73 345.13 165.88 230.85 157.81 301.5 165.88 230.85 178.2 297.24 165.88 230.85 194.8 290.6 165.88 230.85 208.55 273.53 165.88 230.85 217.56 261.67 165.88 230.85 227.99 248.87 165.88 230.85 244.59 231.32 165.88 230.85 268.77 199.08 165.88 230.85 234.16 192.44 165.88 230.85 221.35 184.38 165.88 230.85 208.08 176.32 165.88 230.85 191.01 167.31"/><path class="cls-1" d="M247.75,292.92a43,43,0,1,0-43-43A43,43,0,0,0,247.75,292.92Z" transform="translate(-81.87 -19.09)"/><path class="cls-20" d="M247.75,274.75a24.82,24.82,0,1,0-24.81-24.82A24.81,24.81,0,0,0,247.75,274.75Z" transform="translate(-81.87 -19.09)"/><path class="cls-21" d="M237.79,507.42c-3.79-13.75-19-13.75-19-13.75-14.22,0-16.16,14.25-16.16,14.25-.43,12.77,2.41,14.2,2.41,14.2-31.77-3.32-69.23-40.31-69.23-40.31l334.3-334.3,16.12,13.75s-3.32,19.44-19.91,42.2l37.46,37.94Z" transform="translate(-81.87 -19.09)"/><path class="cls-20" d="M514,445.29a4,4,0,1,0-4-4A4,4,0,0,0,514,445.29Z" transform="translate(-81.87 -19.09)"/><path class="cls-20" d="M362.26,445.29a4,4,0,1,0-4-4A4,4,0,0,0,362.26,445.29Z" transform="translate(-81.87 -19.09)"/><path class="cls-18" d="M417.51,458a14.09,14.09,0,1,0-14.09-14.08A14.09,14.09,0,0,0,417.51,458Z" transform="translate(-81.87 -19.09)"/><path class="cls-18" d="M417.51,429.36a10.14,10.14,0,1,0-10.14-10.14A10.14,10.14,0,0,0,417.51,429.36Z" transform="translate(-81.87 -19.09)"/><polygon class="cls-20" points="307.18 437.12 307.18 402.5 295.8 411.99 301.97 411.99 301.97 437.12 307.18 437.12"/><polygon class="cls-20" points="415.3 437.12 415.3 402.5 403.92 411.99 410.08 411.99 410.08 437.12 415.3 437.12"/><path class="cls-20" d="M458.05,423.49c9.48-.12,9.25,13.27,9.25,13.27,0,16.48-9.73,15.06-9.73,15.06-9.6,0-8.65-15.89-8.65-15.89C448.92,423,458.05,423.49,458.05,423.49Zm15.77,15.17s2.13-20-16.48-20c0,0-14.23-.71-14.23,19.32,0,0-.71,18.61,13.52,18.61,0,0,5.21.36,6.4-1.78,0,0,.12,5.46-9.6,11.26C453.43,466,473.82,469.25,473.82,438.66Z" transform="translate(-81.87 -19.09)"/><path class="cls-1" d="M245.54,382.39c64.17,38.25,75.55,33.83,75.55,33.83l-21.81,22.12C292,421,284.1,429.18,284.1,429.18l-15.17,15.17c-11.06,10.75,6,18,6,18l-21.5,21.18c0-18-5.69-30.35-5.69-30.35-17.39-51.84-24.34-49-24.34-49Zm-.64,22.44,13,28.14,14.22-14.23Z" transform="translate(-81.87 -19.09)"/><path class="cls-20" d="M245.85,387.45c54.06,31.61,66.07,32.24,66.07,32.24l-11.38,11.38c-10.11-15.17-18.65-5.69-18.65-5.69l-18,18c-9.48,9.49,4.43,19.92,4.43,19.92l-11.07,11.06c0-24-26.55-71.76-26.55-71.76ZM238.26,401,256,440.87l23.39-23.39L241.74,398.2Z" transform="translate(-81.87 -19.09)"/><path class="cls-1" d="M293.59,333.71s5.69-1.27,13,6l37.62,37.94A17.89,17.89,0,0,1,348.28,389l22.44-22.45a13.68,13.68,0,0,1-11.06-4.11l-37.94-37.93a22.91,22.91,0,0,1-6-12.33Z" transform="translate(-81.87 -19.09)"/><polygon class="cls-20" points="221.83 310.51 270.2 359.2 278.42 350.98 229.73 302.61 221.83 310.51"/><path class="cls-1" d="M342.59,284.55s4.74-.95,13.51,7.82L390,326.52s7.35,6.63,7.35,13.27L420.12,317A20.37,20.37,0,0,1,403,311.34l-7.35-7.58s-8.06-6.64-2.13-12.33c0,0,18.49-20.63,39.59,12.09l23.24-23.24s-11.62,2.85-20.86-5a35.92,35.92,0,0,0-28.69-5.69s.47-10.9-3.8-20.62c0,0-4.5-11.15-3.55-21.11l-19.21,19.21s21.82,16.12,6.17,32.24c0,0-7.83,10.67-17.07-.94,0,0-6.88-7.83-5.69-14.47Z" transform="translate(-81.87 -19.09)"/><path class="cls-20" d="M352.07,281l45.52,45.53a8.82,8.82,0,0,1,1.66,5.69l11.62-11.62s-5,.71-7.35-1.66l-13.28-13.28s-8.77-8.3-.24-16.83c0,0,17.55-23,44.34,8.06l13.28-13.28s-8.06,1.42-14-4.5c0,0-12.33-10.91-32.25-3.8,0,0,2.14-14.46-3.55-27.5,0,0-2.14-5.45-2.14-9.48l-9,9s20.16,18.25,3.09,35.32c0,0-9.49,12.57-19.68,2.37l-11-11Z" transform="translate(-81.87 -19.09)"/><path class="cls-22" d="M374.59,358.51a8,8,0,1,0-8-8.05A8,8,0,0,0,374.59,358.51Z" transform="translate(-81.87 -19.09)"/><path class="cls-22" d="M458.76,272.44a8,8,0,1,0-8.05-8A8,8,0,0,0,458.76,272.44Z" transform="translate(-81.87 -19.09)"/><path class="cls-22" d="M324.33,408.77a8,8,0,1,0-8.05-8A8.05,8.05,0,0,0,324.33,408.77Z" transform="translate(-81.87 -19.09)"/></svg>