<svg id="Layer_1" data-name="Layer 1" xmlns="http://www.w3.org/2000/svg" viewBox="0 0 316.03 373.02"><defs><style>.cls-1{fill:#ffd41c;}.cls-2{fill:#0066b3;}.cls-3{fill:#fff;}</style></defs><title>all_Svenskan_logo_2</title><polygon class="cls-1" points="0 0 316.03 0 316.03 373.02 0 373.02 0 0 0 0"/><path class="cls-2" d="M260.07,220.31c-5.25-10.5-53.21-117.13-103.29-117.13-51.89,0-74.69,87.74-74.69,87.74s46.75-127.65,129.94,51c24.84,53.34,34.51,95.35,27.17,122.35-11.53,42.47-74.09,19.85-74.09,19.85,41.67,18.32,111.93,41.32,125.43-16.93,13.2-57-30.47-146.9-30.47-146.9ZM174.78,387.54c117.1,36.09,103.27-55.78,58.75-154.6C201.7,162.27,137.9,62.59,84.39,184.56c49.84-122.64,114-41.36,153.93,44.88,21.84,47.13,87.22,209-63.54,158.1Z" transform="translate(-31.28 -69.64)"/><path class="cls-3" d="M160.67,381.67l.44.22-.3-.19-.95-.52C160.12,381.35,160.39,381.51,160.67,381.67Z" transform="translate(-31.28 -69.64)"/><path class="cls-3" d="M243.76,163.85a63.77,63.77,0,0,0-65.63,51.61c-13.22,5.79-26.46,11.84-37.62,17.42-61.1,30.56-70.58,55.09-66,77.62,8.45,41.23,89.41,73,89.41,73s-33.36-21.54-26.78-52.67c5-23.56,36.5-35.94,69.61-49.27a63.77,63.77,0,1,0,37-117.67ZM131.54,355.75c7.77,11.28,24.8,23,29.27,25.95l.66.33c.1.05.13.1-.08,0l-.28-.14.81.53-1.25-.75C14,309,128.59,256.44,146.77,246.73c4.56-2.43,16.38-7.84,30.42-14.1a63.27,63.27,0,0,0,4,17.74l-5.28,2.2c-76.07,31.77-83,63.26-62.87,91.74,12.07,17.05,39.33,32.84,46.82,36.87-116.77-70.13-2.22-115.07,19.14-124l4.34-1.82a64.27,64.27,0,0,0,9.94,14.78L189,271.75C106.36,303.22,120.63,339.94,131.54,355.75Z" transform="translate(-31.28 -69.64)"/><path class="cls-2" d="M304.6,281.24h-1.44v-3.78h0l-1.84,3.78h-.9l-1.84-3.78h0v3.78h-1.44v-4.71h2.27l1.49,2.78,1.42-2.78h2.34v4.71Zm-8.27-3.78H294.4v3.78h-1.61v-3.78h-2v-.93h5.49v.93Z" transform="translate(-31.28 -69.64)"/><path class="cls-2" d="M243.49,199.73a62.86,62.86,0,0,1-9.7-1.21l-.91,2.86c9.27,3.85,17.18,12.13,21,23.33a43,43,0,0,1,1.81,7.49l2.53-.14c0-1.19,0-2.4.05-3.63.63-13.19,5.6-24.55,12.54-30.68l-2-2.56c-6.41,3.22-15.41,5-25.28,4.54Z" transform="translate(-31.28 -69.64)"/><path class="cls-2" d="M233.06,274.41l-.59-2c-12,3.38-24.46-1.19-32.84-11l-1.81,1.73c11.85,12.84,14.75,18.8,13.5,21.05a26.24,26.24,0,0,0,5.25,2.37,4.25,4.25,0,0,1-.06-.83c.48-4.86,6-7.69,16.55-11.33Z" transform="translate(-31.28 -69.64)"/><path class="cls-2" d="M193.13,257.35l2.17-2a42.84,42.84,0,0,1-3.33-7.4,41,41,0,0,1,.84-29.12l-2-1.38c-6.5,11-10.83,13.93-13.68,15.25a64,64,0,0,0,1.29,8.82c5.23,2.95,7.56,6.28,14.67,15.85Z" transform="translate(-31.28 -69.64)"/><path class="cls-2" d="M207.77,179.4c-.93,6.36-6,18.91-13.6,32.29l1.82,1.24a31.11,31.11,0,0,1,14.92-12.08,29.07,29.07,0,0,1,15.36-1.4l.87-2.72c-10.44-3.56-17.32-9.82-17-16.62a10,10,0,0,1,.21-1.55l-2.55.84Z" transform="translate(-31.28 -69.64)"/><path class="cls-2" d="M229.71,164.71a63.52,63.52,0,0,0-26.81,11.48c1.85-1,3.3-1.33,4.06-1.05.51.19.81.74.92,1.59l3.8-1.46c2.23-4.16,8.89-8.52,17.79-10.53l.24,0Z" transform="translate(-31.28 -69.64)"/><path class="cls-2" d="M238.45,270.2l1,2.24c3.39-.95,7-1.79,10.61-2.49,9.39-1.81,18.26-2.36,24.7-1.68l.86-2.91c-8.26-2.77-14.62-12.56-16.69-25.16l-2.86.16c-.62,12.75-7.12,24.26-17.6,29.84Z" transform="translate(-31.28 -69.64)"/><path class="cls-2" d="M278.49,183.33c-.15,3.22-1.91,6.16-4.85,8.64l2,2.5a15.23,15.23,0,0,1,7.5-1.57c7.66.47,14.45,4.64,17.05,11.43a63.61,63.61,0,0,0-27.52-32c4.8,3.36,6.06,6.63,5.85,11Z" transform="translate(-31.28 -69.64)"/><path class="cls-2" d="M280.15,266.14l-.87,2.9c3.52.92,5.6,2.43,5.59,4.51a61.47,61.47,0,0,0,15-22.13c-4.66,8.41-10.21,14.89-19.76,14.72Z" transform="translate(-31.28 -69.64)"/></svg>