<svg height="1000" viewBox="0 0 1000 999.99998" width="1000" xmlns="http://www.w3.org/2000/svg"><g transform="matrix(2.2659349 0 0 2.2659349 -9.068826 -62.999788)"><path d="M 152.662 447.056 C 252.017 382.662 310.675 237.634 300.093 126.261 C 248.885 121.524 194.772 94.774 152.662 27.803 C 110.549 94.775 56.436 121.525 5.228 126.261 C -5.353 237.634 53.306 382.662 152.662 447.056 Z" fill="#00854a"/><path d="M 152.662 439.841 C 59.778 375.233 2.402 237.185 11.019 132.173 c 38.023 -3.976 96.915 -24.445 141.643 -92.98 c 44.725 68.536 103.619 89.004 141.641 92.98 c 8.617 105.012 -48.761 243.06 -141.641 307.668 z" fill="#fff"/><path d="M 152.662 423.704 C 70.904 364.023 18.448 237.265 23.646 144.211 c 34.638 -5.369 91.763 -28.048 129.017 -83.014 c 37.252 54.966 94.377 77.646 129.014 83.014 c 5.197 93.054 -47.26 219.812 -129.015 279.493 z" fill="#00854a"/><path d="m 205.155 167.393 l 8.049 -38.498 l -33.425 20.731 l 7.105 10.167 l -79.649 113.747 l -13.927 -3.047 l -21.752 31.067 l 13.927 3.047 l -4.178 5.965 l 6.288 4.404 l 4.177 -5.965 l 7.628 12.043 l 21.753 -31.066 l -7.627 -12.045 l 79.646 -113.749 z" fill="#fff"/><path d="m 72.689 258.019 v -78.051 h 17.244 v 78.051 z" fill="#fff"/><path d="m 195.128 258.019 v -78.051 h 17.085 v 33.391 l 23.907 -33.391 h 20.111 l -25.863 34.61 l 27.955 43.441 H 236.119 L 212.212 218.33 v 39.689 z" fill="#fff"/><path d="m 142.17 338.662 v 17.665 h 11.645 v 0 c 5.566 0 9.305 -.66 11.205 -1.979 c 1.909 -1.323 2.858 -3.658 2.858 -7.017 c 0 -3.128 -.898 -5.368 -2.7 -6.693 c -1.788 -1.313 -5.578 -1.976 -11.363 -1.976 v 0 z m 0 -30.234 v 16.471 h 10.379 v 0 c 4.823 0 8.132 -.634 9.919 -1.909 c 1.781 -1.27 2.677 -3.482 2.677 -6.626 c 0 -2.951 -.827 -5.024 -2.458 -6.19 c -1.634 -1.163 -5.011 -1.746 -10.138 -1.746 v 0 z m -16.636 63.084 v -78.054 h 30.532 v 0 c 4.958 0 8.779 .22 11.445 .637 c 1.391 .218 2.604 .468 3.642 .773 c 1.034 .304 2.026 .733 3.022 1.232 c 2.821 1.411 5.046 3.63 6.645 6.758 c 1.592 3.115 2.387 6.747 2.387 10.879 c 0 4.442 -1.058 8.045 -3.171 10.822 c -2.103 2.763 -5.44 4.809 -9.993 6.11 c 2.406 0 4.565 .471 6.477 1.422 c 1.927 .958 3.587 2.311 5.012 4.021 c 2.656 3.194 4.007 7.64 4.007 13.386 c 0 3.561 -.523 6.717 -1.56 9.468 c -1.034 2.748 -2.596 5.091 -4.697 7.015 c -2.095 1.921 -4.813 3.318 -8.15 4.201 c -3.338 .88 -8.36 1.328 -15.066 1.328 v 0 h -30.532 z" fill="#fff"/><path d="m 99.338 167.393 l -8.047 -38.498 l 33.423 20.731 l -7.105 10.167 l 79.648 113.749 l 13.928 -3.047 l 21.752 31.066 l -13.927 3.047 l 4.178 5.965 l -6.287 4.404 l -4.178 -5.965 l -7.626 12.043 l -21.755 -31.066 l 7.628 -12.045 l -79.647 -113.749 z" fill="#fff"/></g></svg>