<?xml version="1.0" encoding="iso-8859-1"?>
<!-- Generator: Adobe Illustrator 24.0.1, SVG Export Plug-In . SVG Version: 6.00 Build 0)  -->
<svg version="1.1" id="Layer_1" xmlns="http://www.w3.org/2000/svg" xmlns:xlink="http://www.w3.org/1999/xlink" x="0px" y="0px"
	 viewBox="0 0 612 792" style="enable-background:new 0 0 612 792;" xml:space="preserve">
<path style="fill:#EF4135;" d="M303.207,91.772C147.26,91.776,20.229,218.746,20.225,374.65
	c0.004,156.112,127.035,283.097,282.982,283.101c155.959-0.004,282.992-126.988,282.997-283.101
	C586.199,218.746,459.166,91.776,303.207,91.772z"/>
<path style="fill:#FFFFFF;" d="M500.451,572.005c-50.562,50.565-120.332,81.877-197.244,81.877
	c-76.906,0-146.675-31.311-197.234-81.877c-50.557-50.57-81.879-120.366-81.881-197.355c0.002-76.885,31.324-146.626,81.881-197.165
	c50.559-50.536,120.328-81.843,197.234-81.843c76.912,0,146.683,31.307,197.246,81.843c50.559,50.54,81.881,120.281,81.881,197.165
	C582.334,451.639,551.012,521.435,500.451,572.005z"/>
<path style="fill:#EF4135;" d="M303.214,637.454c95.079-0.006,178.561-50.848,224.679-126.763H78.536
	C124.657,586.605,208.143,637.447,303.214,637.454z"/>
<path style="fill:#EF4135;" d="M341.708,375.884c0.072,1.35,0.121,2.731,0.121,4.188v51.31c0.004,5.81-0.231,10.668-1.122,14.748
	c-0.898,4.086-2.387,7.378-5.004,10.415l-0.029,0.034l-0.025,0.031c-3.767,4.64-9.323,7.235-17.846,8.698
	c-8.485,1.446-19.699,1.634-33.918,1.627c-26.393,0.065-41.917-1.374-49.986-7.178c-4.061-2.871-6.631-6.743-8.346-12.735
	c-1.695-5.977-2.362-14.001-2.355-24.459v-36.469h49.437v34.432c0.023,4.378,0.463,7.744,2.151,10.437
	c1.705,2.764,4.901,4.033,8.187,3.955c3.092,0.005,5.86-1.071,7.841-2.907c1.985-1.827,3.162-4.422,3.155-7.186v-37.296
	c-0.012-4.149-0.233-7.603-2.057-10.744c-0.192-0.326-0.407-0.635-0.627-0.94l-8.092-0.007c2.244,1.247,3.465,2.412,4.168,3.621
	c1.002,1.665,1.341,4.088,1.331,8.07v37.296c-0.04,2.512-1.947,4.739-5.72,4.816c-2.364-0.077-3.016-0.509-3.747-1.532
	c-0.75-1.095-1.335-3.608-1.314-7.582v-39.711h-59.993v2.64v39.108c0.006,10.675,0.642,19.093,2.556,25.892
	c1.434,5.092,3.638,9.306,6.86,12.619c4.854,4.993,11.712,7.726,20.846,9.247c9.163,1.525,20.778,1.889,35.705,1.893
	c14.268-0.006,25.654-0.155,34.802-1.703c9.074-1.526,16.166-4.566,21.008-10.513v0.001c3.255-3.747,5.151-8.024,6.17-12.748
	c1.025-4.734,1.24-9.93,1.244-15.87v-51.31c0-1.426-0.034-2.817-0.102-4.183L341.708,375.884z"/>
<path style="fill:#EF4135;" d="M363.549,240.912v77.558l5.277-0.012v-72.269h46.935v72.165l8.772-0.02l16.78-72.146h47.574
	l-21.077,76.008l13.243,53.801l-10.379-0.008l24.538,88.684h-48.276l-21.736-88.722l-9.44-0.007v88.729h-46.935v-88.768
	l-5.277-0.004v94.051h57.492v-88.809l21.754,88.809h59.354l-4.44-16.049l31.152,55.151c23.505-39.329,37.04-85.268,37.043-134.301
	c-0.009-144.317-117.137-261.891-261.272-262.667l72.767,128.824H363.549z"/>
<path style="fill:#EF4135;" d="M105.103,469.953h2.64h95.352v-41.662h-42.747v-63.668h42.747v-40.987H182.3l119.494-211.547
	c-144.121,0.778-261.265,118.35-261.273,262.667c0.003,49.034,13.539,94.971,37.045,134.299l27.537-48.75V469.953z M110.38,246.189
	h87.436v30.207H155.07v52.516h42.747v30.433H155.07v74.225h42.747v31.103H110.38V246.189z"/>
<path style="fill:#EF4135;" d="M320.765,241.365c-10.012-2.124-22.57-2.484-37.794-2.488c-13.554,0.003-24.294,0.32-32.906,1.484
	c-6.456,0.877-11.737,2.229-16.095,4.385c-6.562,3.2-10.839,8.452-13.106,15.587c-2.307,7.14-2.937,16.163-2.947,27.957v25.331
	c-0.001,1.778,0.071,3.49,0.179,5.17l5.29-0.012c-0.114-1.657-0.189-3.36-0.189-5.158V288.29
	c-0.006-10.306,0.535-18.255,2.069-24.193c1.152-4.462,2.813-7.755,5.164-10.312c3.507-3.814,8.864-6.267,17.398-7.742
	c8.504-1.467,19.993-1.89,35.143-1.888c20.168-0.027,35.364,0.756,44.888,4.873c4.774,2.055,8.114,4.787,10.415,8.696
	c2.291,3.913,3.556,9.18,3.556,16.341v36.004h-47.862v-21.078c-0.025-3.921-0.387-7.132-2.21-9.761
	c-0.912-1.294-2.229-2.309-3.739-2.898c-1.513-0.6-3.185-0.832-5.048-0.834c-1.922,0-3.64,0.311-5.134,1.044
	c-2.276,1.088-3.72,3.174-4.374,5.334c-0.684,2.181-0.823,4.542-0.829,7.115v21.457c0.009,3.098,0.138,5.778,0.922,8.222
	l5.737-0.013c-0.009-0.015-0.02-0.03-0.029-0.045c-1.019-1.652-1.364-4.054-1.354-8.164v-21.457
	c-0.025-3.136,0.354-5.473,1.032-6.557c0.335-0.556,0.657-0.865,1.221-1.153c0.564-0.28,1.451-0.503,2.808-0.503
	c1.417-0.002,2.429,0.189,3.097,0.458c0.981,0.432,1.387,0.836,1.888,2.002c0.467,1.16,0.743,3.109,0.735,5.753v26.357h58.418
	v-41.284c0-7.757-1.364-14.019-4.279-19.006C338.434,247.526,330.723,243.461,320.765,241.365z"/>
<path style="fill:#EF4135;" d="M210.696,370.17h14.427v-16.092h3.793l7.445,16.092h14.876l-9.65-19.28
	c5.563-1.91,7.824-6.319,7.824-11.613c0-7.288-4.256-14.562-18.149-14.562h-20.565V370.17z M225.123,334.924h2.276
	c3.723,0,6.686,1.362,6.686,4.788c0,3.525-3.119,5.182-6.392,5.182c-0.899,0-1.742-0.07-2.571-0.183V334.924z"/>
<path style="fill:#EF4135;" d="M254.356,355.496c2.261,1.517,6.673,3.946,11.154,3.946c3.807,0,5.914-1.096,5.914-3.188
	c0-5.546-18.206-3.188-18.206-18.325c0-6.432,5.001-13.972,19.428-13.972c4.86,0,10.395,1.278,12.066,2.359v12.259
	c-3.035-1.924-6.293-3.132-9.412-3.132c-3.259,0-6.153,1.096-6.153,3.328c0,5.729,18.233,2.485,18.233,17.426
	c0,6.698-5.099,14.73-20.271,14.73c-5.773,0-9.805-1.081-12.755-2.485V355.496z"/>
<path style="fill:#EF4135;" d="M306.654,334.924h2.515c4.397,0,6.672,0.969,6.672,3.848c0,2.163-1.6,3.693-5.169,3.693h-4.018
	V334.924z M292.228,370.17h20.354c13.135,0,18.754-6.698,18.754-13.214c0-6.824-4.79-9.759-9.426-10.728v-0.127
	c4.945-1.334,7.979-4.662,7.979-9.324c0-6.305-5.016-12.062-16.773-12.062h-20.888V370.17z M306.654,351.284h3.947
	c4.032,0,5.845,1.151,5.845,4.072c0,2.429-1.602,4.212-5.001,4.212h-4.791V351.284z"/>
<path style="fill:#EF4135;" d="M380.235,347.436c-0.099-12.357-6.097-23.479-22.785-23.479s-22.7,11.122-22.771,23.479
	c-0.084,13.158,6.518,23.493,22.771,23.493S380.306,360.594,380.235,347.436 M349.541,347.127c0-8.228,3.203-11.683,7.909-11.683
	c4.706,0,7.895,3.455,7.895,11.683c0,8.229-3.188,11.669-7.895,11.669C352.744,358.796,349.541,355.356,349.541,347.127"/>
<path style="fill:#EF4135;" d="M385.012,370.17h16.463c17.995,0,24.077-11.739,24.077-23.24c0-10.068-4.41-22.215-22.25-22.215
	h-18.29V370.17z M399.438,334.924c4.692,0.07,10.774,0.519,10.774,11.697c0,10.265-5.099,12.063-8.189,12.063h-2.585V334.924z"/>
<path style="fill:#EF4135;" d="M427.14,370.17h15.031l1.362-7.667h10.634l1.363,7.667h15.031l-10.55-45.455h-22.322L427.14,370.17z
	 M452.355,352.295h-6.996l3.413-18.761h0.155L452.355,352.295z"/>
<path style="fill:#FFFFFF;" d="M162.015,548.1c1.475,1.165,4.313,3.033,7.192,3.033c2.458,0,3.835-0.829,3.835-2.443
	c0-4.269-11.758-2.458-11.758-14.057c0-4.957,3.217-10.729,12.545-10.729c3.118,0,6.7,0.97,7.782,1.812v9.394
	c-1.953-1.46-4.074-2.401-6.069-2.401c-2.121,0-3.975,0.843-3.975,2.556c0,4.409,11.757,1.91,11.757,13.368
	c0,5.153-3.287,11.318-13.078,11.318c-3.723,0-6.321-0.843-8.232-1.91V548.1z"/>
<path style="fill:#FFFFFF;" d="M188.902,559.361h9.328v-11.318h2.627c7.459,0,12.854-4.395,12.854-11.753
	c0-7.484-4.847-11.796-12.657-11.796h-12.151V559.361z M198.229,532.33h0.969c2.444,0,4.608,0.871,4.608,4.002
	c0,2.851-2.009,3.876-4.453,3.876h-1.124V532.33z"/>
<path style="fill:#FFFFFF;" d="M247.269,541.935c-0.056-9.506-3.933-18.03-14.708-18.03s-14.637,8.525-14.694,18.03
	c-0.056,10.083,4.214,18.017,14.694,18.017C243.055,559.951,247.311,552.018,247.269,541.935 M227.476,541.683
	c0-6.319,2.051-8.974,5.085-8.974s5.099,2.654,5.099,8.974c0,6.318-2.065,8.959-5.099,8.959S227.476,548.001,227.476,541.683"/>
<path style="fill:#FFFFFF;" d="M252.79,559.361h9.314v-12.343h2.444l4.804,12.343h9.594l-6.208-14.801
	c3.568-1.46,5.043-4.845,5.043-8.902c0-5.589-2.739-11.164-11.715-11.164H252.79V559.361z M262.103,532.33h1.475
	c2.402,0,4.298,1.011,4.298,3.665c0,2.696-1.995,3.974-4.116,3.974c-0.576,0-1.123-0.056-1.657-0.154V532.33z"/>
<polygon style="fill:#FFFFFF;" points="286.813,532.625 280.829,532.625 280.829,524.494 302.082,524.494 302.082,532.625 
	296.112,532.625 296.112,559.361 286.813,559.361 "/>
<polygon style="fill:#FFFFFF;" points="306.689,524.494 316.003,524.494 316.003,540.404 316.088,540.404 322.366,524.494 
	331.919,524.494 324.965,540.657 332.214,559.361 322.114,559.361 316.088,541.935 316.003,541.935 316.003,559.361 
	306.689,559.361 "/>
<polygon style="fill:#FFFFFF;" points="336.372,524.494 345.685,524.494 345.685,550.838 353.819,550.838 353.819,559.361 
	336.372,559.361 "/>
<path style="fill:#FFFFFF;" d="M358.777,524.494h9.3v23.31c0,1.966,0.675,3.328,2.838,3.328c2.163,0,2.852-1.362,2.852-3.328v-23.31
	h9.3v23.31c0,9.197-5.535,12.147-12.151,12.147c-6.617,0-12.138-2.949-12.138-12.147V524.494z"/>
<path style="fill:#FFFFFF;" d="M398.645,532.33h1.614c2.852,0,4.313,0.73,4.313,2.935c0,1.657-1.026,2.837-3.345,2.837h-2.583
	V532.33z M389.346,559.361h13.12c8.484,0,12.109-5.153,12.109-10.139c0-5.237-3.092-7.498-6.083-8.229v-0.099
	c3.189-1.025,5.141-3.566,5.141-7.148c0-4.845-3.217-9.254-10.83-9.254h-13.457V559.361z M398.645,544.87h2.542
	c2.613,0,3.778,0.87,3.778,3.131c0,1.853-1.024,3.229-3.23,3.229h-3.09V544.87z"/>
<path style="fill:#FFFFFF;" d="M429.226,538.102h2.599c2.29,0,3.316-1.18,3.316-2.837c0-2.204-1.461-2.935-4.313-2.935h-1.603
	V538.102z M429.226,551.23h3.076c2.206,0,3.232-1.376,3.232-3.229c0-2.261-1.181-3.131-3.779-3.131h-2.529V551.23z M419.913,524.494
	h13.472c7.585,0,10.816,4.409,10.816,9.254c0,3.581-1.953,6.123-5.142,7.148v0.099c2.992,0.731,6.082,2.991,6.082,8.229
	c0,4.985-3.624,10.139-12.095,10.139h-13.134V524.494z"/>
<path style="fill:#FFFFFF;" d="M243.35,580.916h9.313v23.31c0,1.951,0.688,3.328,2.838,3.328c2.149,0,2.837-1.377,2.837-3.328
	v-23.31h9.314v23.31c0,9.197-5.535,12.146-12.151,12.146c-6.617,0-12.151-2.949-12.151-12.146V580.916z"/>
<polygon style="fill:#FFFFFF;" points="273.917,580.916 287.094,580.916 290.578,603.146 290.662,603.146 294.146,580.916 
	307.336,580.916 307.336,615.783 298.809,615.783 298.809,587.979 298.711,587.979 293.471,615.783 287.304,615.783 282.5,589.047 
	282.542,589.047 282.444,589.047 282.444,615.783 273.917,615.783 "/>
<polygon style="fill:#FFFFFF;" points="313.615,580.916 331.287,580.916 331.287,589.047 322.9,589.047 322.9,594.046 
	330.248,594.046 330.248,602.162 322.9,602.162 322.9,607.667 331.386,607.667 331.386,615.783 313.615,615.783 "/>
<path style="fill:#FFFFFF;" d="M335.051,615.783h9.722l0.871-5.884h6.855l0.884,5.884h9.693l-6.798-34.867h-14.414L335.051,615.783z
	 M347.554,574.64c0-0.829,0.69-1.503,1.518-1.503s1.517,0.674,1.517,1.503c0,0.842-0.689,1.53-1.517,1.53
	S347.554,575.481,347.554,574.64 M344.014,574.64c0,2.794,2.263,5.055,5.058,5.055c2.781,0,5.043-2.261,5.043-5.055
	c0-2.78-2.262-5.041-5.043-5.041C346.276,569.599,344.014,571.859,344.014,574.64 M351.333,602.063h-4.51l2.206-14.393h0.084
	L351.333,602.063z"/>
<polygon style="fill:#EF4135;" points="273.032,180.769 269.015,184.462 266.893,181.962 273.355,176.599 276.642,176.599 
	276.642,197.942 273.032,197.942 "/>
<path style="fill:#EF4135;" d="M293.387,197.942l5.451-8.594c1.18-1.868,1.98-3.623,1.98-5.841c0-4.522-3.132-7.274-7.6-7.274
	c-4.369,0-7.586,2.864-7.586,7.302c0,3.707,2.641,6.811,6.406,6.811c0.745,0,1.574-0.112,2.009-0.365l0.056,0.056l-5.127,7.906
	H293.387z M297.025,183.563c0,2.134-1.742,3.89-3.891,3.89c-2.135,0-3.891-1.755-3.891-3.89c0-2.135,1.756-3.89,3.891-3.89
	C295.283,179.674,297.025,181.429,297.025,183.563"/>
<path style="fill:#EF4135;" d="M312.591,188.085c1.952,0,3.581,1.39,3.581,3.356c0,2.008-1.517,3.426-3.581,3.426
	c-2.094,0-3.598-1.418-3.598-3.426C308.993,189.475,310.609,188.085,312.591,188.085 M312.591,176.233
	c-3.625,0-6.547,2.036-6.547,5.617c0,2.261,1.083,4.157,3.217,4.789v0.056c-2.009,0.435-3.877,2.57-3.877,5.196
	c0,4.212,3.217,6.403,7.207,6.403c3.961,0,7.192-2.19,7.192-6.403c0-2.626-1.827-4.761-3.893-5.196v-0.056
	c2.149-0.632,3.232-2.528,3.232-4.789C319.123,178.27,316.2,176.233,312.591,176.233 M312.591,179.323
	c1.644,0,2.921,1.292,2.921,2.878c0,1.699-1.334,2.991-2.921,2.991c-1.785,0-2.936-1.292-2.936-2.991
	C309.654,180.614,310.75,179.323,312.591,179.323"/>
<path style="fill:#EF4135;" d="M331.793,176.599l-5.465,8.594c-1.18,1.881-1.995,3.609-1.995,5.841c0,4.536,3.148,7.26,7.601,7.26
	c4.369,0,7.6-2.864,7.6-7.288c0-3.707-2.655-6.81-6.42-6.81c-0.716,0-1.573,0.126-1.994,0.365l-0.057-0.07l5.127-7.892H331.793z
	 M328.141,190.978c0-2.148,1.756-3.876,3.877-3.876c2.149,0,3.905,1.727,3.905,3.876c0,2.148-1.756,3.89-3.905,3.89
	C329.896,194.867,328.141,193.126,328.141,190.978"/>
</svg>
