<svg enable-background="new 0 0 612 792" viewBox="0 0 612 792" xmlns="http://www.w3.org/2000/svg"><path d="M 24.593 575.922 L 114.407 485.975 L 114.407 344.784 L 127.221 331.973 L 127.221 575.922 L 217.164 485.975 L 217.164 344.784 L 229.977 331.973 L 229.977 575.922 L 589.494 216.403 L 24.593 216.403 L 24.593 575.922" fill="#ee3124"/><path d="M 37.406 344.784 L 50.217 331.973 L 50.217 550.169 L 37.406 563.109 Z" fill="#fff"/><path d="M 140.163 344.784 L 152.973 331.973 L 152.973 550.169 L 140.163 563.109 Z" fill="#fff"/><path d="M 114.407 344.784 L 127.221 331.973 L 127.221 473.161 L 114.407 485.975 Z" fill="#fff"/><path d="M 88.783 344.784 L 101.597 331.973 L 101.597 498.918 L 88.783 511.729 Z" fill="#fff"/><path d="M 63.031 344.784 L 75.842 331.973 L 75.842 524.544 L 63.031 537.355 Z" fill="#fff"/><path d="M 345.543 344.784 L 358.358 331.973 L 358.358 447.54 L 345.543 460.351 Z" fill="#fff"/><path d="M 268.544 344.784 L 281.355 331.973 L 281.355 524.544 L 268.544 537.355 Z" fill="#fff"/><path d="M 242.788 344.784 L 255.598 331.973 L 255.598 550.169 L 242.788 563.109 Z" fill="#fff"/><path d="M 217.164 344.784 L 229.977 331.973 L 229.977 473.161 L 217.164 485.975 Z" fill="#fff"/><path d="M 191.411 344.784 L 204.352 331.973 L 204.352 498.918 L 191.411 511.729 Z" fill="#fff"/><path d="M 165.787 344.784 L 178.598 331.973 L 178.598 524.544 L 165.787 537.355 Z" fill="#fff"/><path d="M 448.3 344.784 L 461.111 331.973 L 461.111 344.784 L 448.3 357.598 Z" fill="#fff"/><path d="M 294.165 344.784 L 306.977 331.973 L 306.977 498.918 L 294.165 511.729 Z" fill="#fff"/><path d="M 319.918 344.784 L 332.734 331.973 L 332.734 473.166 L 319.918 485.975 Z" fill="#fff"/><path d="M 371.169 344.784 L 384.111 331.973 L 384.111 421.788 L 371.169 434.73 Z" fill="#fff"/><path d="M 396.922 344.784 L 409.734 331.973 L 409.734 396.162 L 396.922 408.973 Z" fill="#fff"/><path d="M 422.547 344.784 L 435.358 331.973 L 435.358 370.409 L 422.547 383.349 Z" fill="#fff"/><path d="M 410.64 319.159 L 410.64 289.005 L 407.017 289.005 L 398.734 297.807 L 401.324 301.041 L 405.981 296.511 L 405.981 319.159 L 410.64 319.159" fill="#fff"/><path d="M 466.16 319.159 L 466.16 289.005 L 462.536 289.005 L 454.254 297.807 L 456.843 301.041 L 461.502 296.511 L 461.502 319.159 L 466.16 319.159" fill="#fff"/><path d="M 423.84 288.164 c -6.081 -.129 -9.665 4.389 -9.576 9.707 c .079 4.571 3.329 8.933 7.897 8.671 c 2.119 -.12 3.494 -.753 4.916 -2.331 c -1.551 4.143 -4.143 9.19 -8.93 12.814 l 3.108 2.976 c 5.822 -5.306 10.613 -10.481 10.999 -21.353 C 432.382 293.6 429.017 288.164 423.84 288.164 z M 423.081 302.058 c -2.601 0 -4.708 -2.106 -4.708 -4.709 c 0 -2.599 2.108 -4.708 4.708 -4.708 c 2.599 0 4.709 2.109 4.709 4.708 C 427.79 299.952 425.68 302.058 423.081 302.058 z" fill="#fff"/><path d="M 444.159 288.1 c -6.73 0 -8.668 7.377 -8.668 16.048 c 0 8.669 1.938 15.917 8.668 15.917 c 7.119 0 8.799 -7.248 8.799 -15.917 C 452.958 295.477 451.407 288.1 444.159 288.1 z M 444.159 315.536 c -3.232 -.258 -4.139 -5.564 -4.139 -11.387 c 0 -5.826 .906 -11.261 4.139 -11.389 c 3.754 .128 4.142 5.563 4.142 11.389 C 448.3 309.972 447.913 315.278 444.159 315.536 z" fill="#fff"/><path d="M 50.217 319.159 L 50.217 254.969 L 85.418 254.969 L 85.418 270.37 L 70.017 270.37 L 70.017 281.369 L 81.794 281.369 L 81.794 298.971 L 70.017 298.971 L 70.017 319.159 L 50.217 319.159" fill="#fff"/><path d="M 183.775 279.492 l 5.435 -20.706 c -4.85 -4.418 -9.615 -6.472 -16.178 -6.472 c -16.195 0 -23.941 17.838 -23.941 34.749 c 0 16.911 7.746 34.748 23.941 34.75 c 7.688 0 12.795 -2.22 18.119 -7.765 l -7.117 -22.001 c -2.592 3.365 -4.756 3.624 -8.412 3.624 c -4.195 0 -7.116 -5.113 -7.116 -9.253 c 0 -6.083 2.921 -9.254 7.116 -9.254 C 178.975 277.164 181.34 277.272 183.775 279.492 z" fill="#fff"/><path d="M 289.508 277.227 c -3.883 -6.083 -9.472 -10.484 -12.553 -10.484 c -1.942 0 -4.271 .647 -4.271 4.014 c 0 6.082 23.294 6.082 23.294 27.824 c 0 14.881 -9.319 22.908 -22.261 22.908 c -8.281 0 -14.405 -1.219 -20.446 -7.12 l 3.881 -22.646 c 3.239 6.47 9.19 10.223 12.167 10.224 c 2.262 .001 4.013 -.879 4.013 -4.011 c 0 -4.739 -18.376 -4.336 -18.376 -24.331 c 0 -11.21 6.469 -20.965 19.41 -20.965 c 7.637 0 13.372 .724 19.025 6.082 L 289.508 277.227 z" fill="#fff"/><path d="M 23.494 216.403 H 25.692 V 575.923 H 23.494 Z"/><path d="M 228.877 216.403 H 231.076 V 575.923 H 228.877 Z"/><path d="M 126.122 216.403 H 128.32 V 575.923 H 126.122 Z"/></svg>