<svg height="1000" viewBox="0 0 1000 1000" width="1000" xmlns="http://www.w3.org/2000/svg"><g transform="matrix(2.6400036 0 0 2.6400036 18.271465 -2.653217)"><path d="M 89.229 8.244 L 52.725 8.244 L 52.725 353.615 L 89.768 353.615 L 89.768 8.244 Z" fill="#5c2d91"/><ellipse cx="71.246002" cy="180.929" fill="#54bceb" rx="58.311001" ry="179.923"/><path d="M 148.394 8.244 L 111.892 8.244 L 111.892 353.615 L 148.935 353.615 L 148.935 8.244 Z" fill="#5c2d91"/><ellipse cx="130.412" cy="180.929" fill="#54bceb" rx="58.323002" ry="179.91901"/><path d="M 207.563 8.244 L 171.059 8.244 L 171.059 353.615 L 208.103 353.615 L 208.103 8.244 Z" fill="#5c2d91"/><ellipse cx="189.58" cy="180.929" fill="#54bceb" rx="58.307999" ry="179.924"/><path d="m 267.749 181.467 c 0 -70.356 -61.487 -127.393 -137.335 -127.393 c -75.846 0 -137.335 57.036 -137.335 127.393 c 0 70.358 61.489 127.394 137.335 127.394 c 17.052 0 33.372 -2.891 48.436 -8.159 l 14.905 17.974 h 56.804 l -32.471 -39.155 c 30.34 -23.368 49.661 -58.616 49.661 -98.054 z m -137.336 82.756 c -49.27 0 -89.213 -37.051 -89.213 -82.756 c 0 -45.704 39.943 -82.754 89.213 -82.754 c 49.273 0 89.214 37.051 89.214 82.754 c 0 25.03 -11.995 47.445 -30.924 62.62 l -5.97 -7.196 h -56.802 l 21.416 25.824 c -5.485 .977 -11.141 1.508 -16.934 1.508 z" fill="#5c2d91"/><path d="m 18.956 149.56 l -12.752 -3.113 l 2.259 -7.967 l 33.042 8.066 l -2.259 7.968 l -13.542 -3.306 l -3.264 11.504 l 13.541 3.306 l -2.262 7.968 l -33.042 -8.067 l 2.262 -7.967 l 12.753 3.114 z" fill="#fff"/><path d="m 31.521 103.348 l 15.836 10.092 c 3.623 2.308 7.107 4.732 7.908 9.068 c .699 3.659 -1.018 7.612 -3.278 10.66 c -2.257 3.049 -5.62 5.956 -9.552 6.663 c -4.651 .861 -8.339 -1.286 -11.962 -3.595 l -15.837 -10.092 l 5.03 -6.792 l 14.829 9.451 c 3.661 2.333 7.836 4.636 11.069 .271 c 3.232 -4.366 -.583 -7.154 -4.244 -9.488 l -14.828 -9.449 z" fill="#fff"/><path d="m 61.332 90.221 c -2.122 -.053 -4.32 .483 -6.029 1.734 c -1.28 .937 -2.4 2.878 -1.221 4.265 c 1.234 1.453 3.598 .635 5.115 .112 l 2.2 -.806 c 4.605 -1.709 8.977 -2.068 12.399 1.96 c 2.105 2.476 3.623 5.486 2.921 8.731 c -.698 3.186 -2.919 5.935 -5.625 7.912 c -3.38 2.473 -7.588 3.838 -11.843 4.059 l -1.444 -7.401 c 2.951 .144 5.997 -.21 8.38 -1.954 c 1.638 -1.197 2.735 -3.232 1.248 -4.98 c -1.542 -1.817 -4.815 -.439 -6.646 .257 c -5.359 2.045 -9.139 3.098 -13.236 -1.722 c -4.292 -5.05 -3.219 -11.188 2.154 -15.118 c 2.705 -1.978 6.688 -3.606 10.138 -4.094 z" fill="#fff"/><path d="m 98.928 84.756 l -7.556 3.502 l 6.982 3.061 c -.749 .558 -1.557 .956 -2.413 1.236 c -4.998 1.64 -10.577 -.768 -12.541 -5.92 c -1.569 -4.121 1.141 -9.245 6.14 -10.883 c 5.041 -1.653 10.597 1.073 12.304 5.551 c .574 1.506 .681 3.299 .182 4.889 z M 117.774 93.6 L 110.4 90.267 c 1.515 -3.975 1.654 -7.898 .144 -11.861 c -3.701 -9.71 -13.877 -13.462 -23.917 -10.17 c -9.272 3.039 -15.402 12.182 -11.959 21.217 c 3.686 9.671 13.759 14.036 24.1 10.647 c 3.46 -1.135 6.154 -2.642 8.103 -4.841 l 3.637 1.974 z" fill="#fff"/><path d="m 132.181 81.624 l 8.66 -19.113 l 9.652 .159 l -15.196 31.45 l -6.887 -.114 l -13.756 -31.925 l 9.649 .159 z" fill="#fff"/><path d="m 167.367 88.189 l -7.028 -2.107 l 6.837 -8.552 l .085 .026 z m .194 6.685 l .287 5.873 l 9.013 2.702 l -1.737 -33.83 l -9.226 -2.768 l -23.015 26.41 l 8.969 2.688 l 4.069 -4.567 z" fill="#fff"/><path d="m 200.051 88.635 l .694 .472 c 2.341 1.587 4.656 3.781 2.464 6.563 c -2.194 2.783 -5.149 1.406 -7.49 -.181 l -.694 -.471 z m -.789 14.823 c 4.423 2.009 8.953 .393 11.732 -3.138 c 4.301 -5.464 2.067 -10.676 -3.386 -14.37 l -10.722 -7.266 l -20.155 25.59 l 7.173 4.86 l 7.75 -9.843 l .073 .05 l -.98 14.43 l 8.927 6.051 z" fill="#fff"/><path d="m 227.962 101.748 l 5.027 6.793 l -8.025 23.406 l .053 .069 l 17.225 -10.962 l 5.025 6.794 l -28.176 17.929 l -5.023 -6.794 l 8.061 -23.429 l -.05 -.07 l -17.265 10.985 l -5.023 -6.795 z" fill="#fff"/><path d="m 236.727 162.306 l -1.761 -6.654 l 11.435 .903 l .023 .081 z m -6.029 3.667 l -5.236 3.314 l 2.258 8.531 l 30.114 -19.15 l -2.312 -8.736 l -36.314 -4.282 l 2.246 8.492 l 6.328 .809 z" fill="#fff"/><path d="m 51.053 242.389 l -4.418 3.354 l 6.17 6.994 l -5.821 4.421 l -6.17 -6.995 l -10.38 7.879 l -5.625 -6.376 l 26.441 -20.073 l 12.426 14.085 l -5.82 4.419 z" fill="#fff"/><path d="m 74.357 261.949 c 4.426 2.707 5.688 8.262 3.095 11.912 c -3.242 4.563 -9.243 5.676 -13.67 2.968 c -4.425 -2.707 -5.688 -8.262 -2.447 -12.824 c 2.594 -3.649 8.595 -4.762 13.022 -2.056 z m 4.737 -6.668 c -8.209 -5.02 -19.766 -4.031 -25.454 3.971 c -6.084 8.563 -3.752 18.648 5.403 24.247 c 9.155 5.597 20.066 3.61 26.151 -4.954 c 5.687 -8.002 2.111 -18.243 -6.1 -23.264 z" fill="#fff"/><path d="m 98.815 298.68 l -8.533 -2.286 l 7.388 -23.748 l -7.052 -1.888 l 2.086 -6.704 l 22.639 6.061 l -2.085 6.705 l -7.053 -1.888 z" fill="#fff"/><path d="m 125.175 289.057 l .906 .012 c 2.9 .038 7.302 -.284 7.245 3.541 c -.053 3.489 -4.492 3.304 -7.119 3.271 l -1.133 -.015 z m 4.607 13.174 c 6.253 .082 12.402 -2.025 12.502 -8.667 c .065 -4.414 -1.971 -7.509 -6.857 -8.159 l .001 -.084 c 2.784 -1.267 3.815 -3.567 3.856 -6.425 c .091 -6.053 -3.956 -8.291 -10.026 -8.367 l -12.686 -.164 l -.475 31.69 z m -4.424 -25.447 l .634 .007 c 2.402 .032 5.163 .234 5.121 3.135 c -.04 2.69 -2.494 3.038 -4.85 3.007 l -.996 -.013 z" fill="#fff"/><path d="m 162.216 272.748 c 5.036 -1.538 10.513 .997 11.984 5.149 c 1.84 5.191 -.948 10.245 -5.985 11.78 c -5.036 1.536 -10.514 -.997 -12.352 -6.189 c -1.473 -4.153 1.318 -9.206 6.353 -10.74 z m -2.688 -7.587 c -9.342 2.848 -15.686 11.862 -12.462 20.967 c 3.453 9.742 13.421 14.314 23.837 11.138 c 10.418 -3.176 15.519 -12.341 12.066 -22.085 c -3.227 -9.105 -14.101 -12.869 -23.441 -10.02 z" fill="#fff"/><path d="m 200.149 274.707 l 8.719 -5.669 l 4.319 5.713 l -15.993 10.4 l -19.611 -25.955 l 7.272 -4.728 z" fill="#fff"/><path d="m 219.262 259.131 l 7.263 -7.222 l 5.5 4.76 l -13.321 13.247 l -24.983 -21.623 l 6.057 -6.023 z" fill="#fff"/><path d="m 74.309 181.946 v -8.155 h 5.92 v 21.128 h -5.92 v -8.659 h -8.55 v 8.659 H 59.84 V 173.79 h 5.919 v 8.155 h 8.55 z" fill="#5c2d91"/><path d="m 129.461 178.442 v 3.53 h 6.496 v 4.652 h -6.496 v 8.294 h -5.919 V 173.79 h 13.08 v 4.652 z" fill="#5c2d91"/><path d="m 187.601 178.442 v 3.53 h 6.494 v 4.652 h -6.494 v 8.294 h -5.922 V 173.79 h 13.082 v 4.652 z" fill="#5c2d91"/><path d="m 103.923 184.173 c 0 1.856 -1.623 3.361 -3.623 3.361 c -2.002 0 -3.622 -1.505 -3.622 -3.361 c 0 -1.855 1.621 -3.359 3.622 -3.359 c 2 -.001 3.623 1.503 3.623 3.359 z" fill="#5c2d91"/><path d="m 163.094 184.173 c 0 1.856 -1.621 3.361 -3.623 3.361 c -2.001 0 -3.622 -1.505 -3.622 -3.361 c 0 -1.855 1.621 -3.359 3.622 -3.359 c 2.002 -.001 3.623 1.503 3.623 3.359 z" fill="#5c2d91"/></g></svg>