<svg height="1000" viewBox="0 0 1000 1000" width="1000" xmlns="http://www.w3.org/2000/svg"><g transform="matrix(1.6756978 0 0 1.6756978 -70.330274 -188.72379)"><path d="m 168.12 112.624 c 41.472 29.376 87.696 43.488 138.456 43.488 c 50.76 0 96.984 -14.112 138.456 -43.488 l 108.36 116.208 c -15.84 23.04 -27.72 46.8 -30.24 74.952 c -4.68 52.632 28.44 84.312 41.976 130.176 c 22.248 75.456 -18.864 162.36 -90 194.976 c -25.272 11.592 -49.536 13.968 -73.44 16.344 c -38.088 3.672 -64.512 10.44 -95.112 34.272 c -30.6 -23.832 -57.024 -30.6 -95.112 -34.272 c -23.904 -2.376 -48.168 -4.752 -73.44 -16.344 C 66.888 596.32 25.776 509.416 48.024 433.96 C 61.56 388.096 94.68 356.416 90 303.784 C 87.48 275.632 75.6 251.872 59.76 228.832 Z" fill="#115da8"/><path d="M 170.064 130.984 L 77.544 230.2 c 14.112 21.816 24.048 46.368 26.352 72.432 c 5.04 56.376 -28.296 86.976 -42.552 135.216 c -20.304 68.832 17.64 148.752 82.44 178.488 c 23.184 10.584 46.296 12.888 68.976 15.12 c 36.216 3.528 64.08 8.784 93.816 30.528 c 29.736 -21.744 57.6 -27 93.816 -30.528 c 22.68 -2.232 45.792 -4.536 68.976 -15.12 c 64.8 -29.736 102.744 -109.656 82.44 -178.488 c -14.256 -48.24 -47.592 -78.84 -42.552 -135.216 c 2.304 -26.064 12.312 -50.616 26.352 -72.432 l -92.52 -99.216 c -39.24 26.064 -87.912 39.096 -136.512 39.096 c -48.6 0 -97.344 -13.032 -136.512 -39.096 z" fill="#fff"/><path d="M 172.368 148.84 L 94.896 232 c 12.168 21.24 20.736 44.928 22.968 69.408 c 3.6 40.248 -10.152 67.752 -24.336 96.192 c -6.264 12.672 -12.672 25.488 -17.28 39.312 L 369.936 176.848 c -20.664 4.752 -42.048 7.128 -63.36 7.128 c -25.92 0 -51.912 -3.528 -76.68 -10.584 c -20.232 -5.832 -39.6 -13.968 -57.528 -24.552 z" fill="#115da8"/><path d="m 70.848 460.24 c -3.312 25.416 1.368 51.696 12.24 75.24 c 9.576 20.736 23.976 39.312 41.832 53.208 L 510.264 247.48 c 2.448 -5.256 5.112 -10.44 7.992 -15.48 l -77.472 -83.16 c -12.456 7.344 -25.632 13.536 -39.24 18.576 z" fill="#115da8"/><path d="m 80.712 465.424 c -.936 10.224 -.576 20.664 1.152 30.96 c 1.944 11.88 5.544 23.616 10.656 34.704 c 4.536 9.72 10.152 18.936 16.776 27.36 c 4.68 5.904 9.792 11.448 15.408 16.488 L 501.696 241.144 c 1.008 -2.088 2.016 -4.104 3.096 -6.192 c .216 -.504 .504 -.936 .72 -1.368 l -66.744 -71.568 c -4.104 2.232 -8.28 4.32 -12.6 6.336 c -6.336 3.024 -12.744 5.76 -19.224 8.208 z" fill="#fff"/><path d="m 136.656 596.824 c 4.176 2.52 8.496 4.824 12.888 6.912 c 20.448 9.36 42.48 11.736 64.512 13.896 c 33.336 3.24 64.008 9 92.52 27.504 c 28.512 -18.504 59.184 -24.264 92.52 -27.504 c 22.032 -2.16 44.064 -4.536 64.512 -13.896 c 29.448 -13.536 52.776 -38.664 66.456 -68.256 c 13.536 -29.304 17.496 -62.784 8.352 -93.672 c -4.608 -15.768 -11.736 -30.096 -18.792 -44.208 c -14.184 -28.44 -27.936 -55.944 -24.336 -96.192 c .792 -8.928 2.448 -17.784 4.824 -26.424 z" fill="#115da8"/><path d="M 194.328 498.832 L 178.344 513.016 L 116.424 470.608 L 165.6 524.392 L 155.592 533.32 L 95.904 466.36 L 111.744 452.248 L 174.744 495.376 L 124.632 440.8 L 134.712 431.872 Z" fill="#115da8"/><path d="m 207.288 397.456 l 29.592 33.264 c 6.192 6.912 9 12.816 8.496 17.856 c -.504 4.968 -4.248 10.584 -11.304 16.848 c -6.696 6.048 -12.6 9 -17.64 8.784 c -5.04 -.144 -10.584 -3.6 -16.632 -10.44 l -29.664 -33.264 c -6.12 -6.912 -8.928 -12.816 -8.424 -17.784 c .504 -4.968 4.32 -10.584 11.376 -16.848 c 6.84 -6.048 12.672 -9 17.64 -8.856 c 4.896 .216 10.44 3.672 16.56 10.44 z m -13.608 9.072 c -3.24 -3.672 -5.976 -5.76 -8.064 -6.192 c -2.088 -.504 -4.392 .36 -6.768 2.52 c -2.448 2.16 -3.528 4.248 -3.384 6.336 c .216 2.16 1.944 5.04 5.328 8.784 l 32.616 36.648 c 3.384 3.816 6.048 5.904 8.136 6.336 c 2.016 .36 4.248 -.504 6.624 -2.664 c 2.448 -2.16 3.6 -4.32 3.384 -6.408 c -.216 -2.16 -1.944 -5.04 -5.256 -8.712 z" fill="#115da8"/><path d="m 230.184 358.936 l 20.016 22.536 l 2.448 -2.232 c 3.672 -3.24 5.76 -5.976 6.12 -8.136 c .36 -2.16 -.792 -4.752 -3.528 -7.848 l -6.48 -7.2 c -2.736 -3.096 -5.184 -4.608 -7.344 -4.464 c -2.16 .144 -5.112 1.872 -8.784 5.184 z m -17.424 3.456 l 16.056 -14.328 c 7.2 -6.408 12.96 -10.008 17.352 -10.872 c 4.464 -.936 8.424 .72 12.024 4.752 l 9.648 10.8 c 3.096 3.456 4.32 6.84 3.744 10.152 c -.504 3.384 -3.024 7.344 -7.416 11.88 c 5.184 -4.104 9.504 -6.264 12.96 -6.336 c 3.456 -.216 6.912 1.728 10.368 5.616 l 20.736 23.256 l -12.168 10.944 l -20.88 -23.4 c -2.88 -3.24 -5.4 -4.752 -7.416 -4.536 c -2.088 .144 -5.04 1.944 -8.928 5.4 l -2.664 2.376 l 27.648 31.032 l -11.448 10.152 z" fill="#115da8"/><path d="m 286.128 309.112 l 20.088 22.464 l 2.376 -2.16 c 3.672 -3.312 5.688 -6.048 6.12 -8.136 c .36 -2.16 -.864 -4.824 -3.528 -7.848 l -6.408 -7.272 c -2.736 -3.096 -5.256 -4.536 -7.344 -4.392 c -2.232 .144 -5.184 1.872 -8.856 5.112 z m -17.424 3.456 l 16.128 -14.328 c 7.128 -6.408 12.96 -10.008 17.352 -10.944 c 4.392 -.864 8.28 .72 11.952 4.824 l 9.576 10.8 c 3.096 3.384 4.32 6.84 3.816 10.152 c -.576 3.311 -3.096 7.344 -7.488 11.88 c 5.184 -4.104 9.504 -6.264 12.96 -6.408 c 3.456 -.144 6.912 1.728 10.44 5.688 l 20.736 23.328 l -12.24 10.872 l -20.88 -23.4 c -2.88 -3.24 -5.328 -4.752 -7.416 -4.608 c -2.016 .216 -5.04 2.016 -8.856 5.472 l -2.736 2.376 l 27.72 31.104 l -11.448 10.152 z" fill="#115da8"/><path d="m 410.688 286.072 l -12.384 -13.897 c -2.736 -3.096 -5.76 -4.608 -9.144 -4.392 c -3.312 .144 -7.344 2.016 -11.952 5.472 c 3.672 -4.032 5.688 -7.56 6.048 -10.8 c .432 -3.168 -.792 -6.264 -3.528 -9.432 l -9.648 -10.8 c -3.6 -4.032 -7.632 -5.616 -12.024 -4.752 c -4.392 .864 -10.152 4.536 -17.352 10.872 l -16.128 14.328 l 59.688 67.032 l 16.992 -15.12 c 7.272 -6.48 11.52 -11.808 12.888 -16.056 c 1.368 -4.175 .216 -8.351 -3.456 -12.455 z m -46.584 -6.984 l -2.448 2.16 l -19.585 -22.032 l 2.448 -2.16 c 3.672 -3.312 6.552 -5.04 8.712 -5.184 c 2.16 -.144 4.536 1.224 7.2 4.176 l 6.408 7.2 c 2.664 3.024 3.744 5.544 3.312 7.704 c -.359 2.16 -2.375 4.896 -6.047 8.136 z m 35.064 22.752 c -.504 2.233 -2.736 5.184 -6.768 8.784 l -2.592 2.304 l -22.248 -25.056 l 2.592 -2.304 c 4.032 -3.6 7.2 -5.472 9.504 -5.688 c 2.232 -.216 4.752 1.224 7.56 4.32 l 8.424 9.504 c 2.808 3.096 3.96 5.832 3.528 8.136 z" fill="#115da8"/><path d="M 434.592 234.88 L 459.432 262.744 L 447.408 273.472 L 422.568 245.536 L 373.896 218.824 L 386.136 207.952 L 419.616 229.48 L 402.768 193.12 L 414.072 183.04 Z" fill="#115da8"/><path d="M 293.832 511 L 316.224 490.984 L 375.84 557.944 L 353.376 577.96 Z" fill="#fff"/><path d="M 395.928 469.744 L 433.008 436.696 L 445.536 450.808 L 408.456 483.856 L 430.848 508.984 L 408.888 528.496 L 349.272 461.536 L 422.856 396.016 L 435.6 410.2 L 383.904 456.208 Z" fill="#fff"/></g></svg>