<svg height="1000" viewBox="0 0 1000 1000" width="1000" xmlns="http://www.w3.org/2000/svg"><g transform="matrix(1.5852912 0 0 1.5852912 34.956412 21.921355)"><path d="m 357.952 549.083 c 39.278 -18.039 81.087 -27.48 116.322 -54.114 c 32.538 -23.942 54.622 -59.682 59.509 -99.804 c 1.855 -20.735 -.505 -42.145 -3.539 -62.544 c -6.743 -43.495 -24.277 -86.651 -24.277 -131.156 c 1.518 -35.068 10.792 -60.356 25.458 -93.06 l -72.83 -87.156 c -22.757 5.224 -43.83 10.282 -67.264 10.282 c -27.816 -.843 -51.247 -5.733 -77.884 -14.499 L 293.215 9.447 C 256.129 23.44 220.05 34.735 179.593 30.689 C 161.721 29.677 145.537 25.124 128.007 21.25 L 55.01 108.406 c 10.282 23.267 18.88 43.497 23.095 68.277 c 6.405 40.461 -3.711 78.899 -13.993 117.67 c -9.102 47.203 -20.903 94.239 -1.01 140.598 c 16.183 30.85 34.727 51.924 64.23 70.637 c 38.268 21.073 80.582 33.549 119.863 52.259 c 17.026 9.781 30.176 21.241 46.02 34.225 c 23.096 -19.22 37.931 -31.358 64.737 -42.989 z" fill="#fff"/><g><path d="m 421.845 98.123 l -10.79 -6.577 l -11.97 8.767 l -3.54 2.698 l 3.54 13.823 l 12.983 49.901 l 9.776 -7.248 l 5.059 -3.71 l -3.544 -11.294 l 18.378 -13.824 l 10.113 6.408 l 15.344 -11.465 z m 0 31.694 l -2.698 2.021 l -6.743 -21.238 l 9.44 6.067 l 9.441 6.069 z"/><path d="M 393.861 97.615 L 399.085 93.57 L 399.592 93.234 L 402.793 71.993 L 399.085 74.52 L 392.005 79.915 Z"/><path d="m 385.431 173.479 c -1.349 -1.684 -2.361 -2.865 -3.203 -3.878 c -2.868 -3.37 -5.228 -5.393 -7.25 -6.068 c -2.021 -.674 -4.552 -.506 -7.585 .504 c 1.853 -3.54 2.865 -6.912 2.865 -9.777 c 0 -3.033 -1.182 -5.899 -3.204 -8.766 c -3.371 -4.551 -7.586 -6.744 -12.642 -6.405 c -3.204 .167 -6.746 1.347 -10.791 3.54 c -2.36 1.18 -4.718 2.865 -7.249 4.72 l -18.207 13.655 l -8.261 6.067 l 8.261 11.126 l 25.456 33.887 l 2.865 3.879 l 13.995 -10.621 l -13.657 -18.209 l 9.608 -7.081 c 2.361 -1.855 4.553 -2.865 6.408 -2.865 c 1.856 0 3.71 .844 5.395 2.528 c .674 .846 2.191 2.529 4.553 5.565 c 2.358 2.865 4.551 4.888 6.573 6.069 l 14.835 -11.128 l -1.347 -1.684 c -1.854 .506 -4.217 -1.18 -7.418 -5.058 z m -30.009 -9.946 c -.506 1.854 -2.358 3.878 -5.227 6.068 l -6.574 5.058 l -3.876 2.867 l -8.429 -11.129 l 10.956 -8.258 c .505 -.339 .844 -.675 1.349 -.845 c 2.024 -1.516 4.044 -2.191 5.563 -2.359 c 2.024 0 3.709 .843 5.059 2.529 c 1.514 2.024 1.855 4.045 1.179 6.069 z"/><path d="m 281.248 203.318 l -10.79 -6.744 l -15.341 11.632 l 16.519 63.724 l 9.612 -7.247 l 5.054 -3.71 l -3.539 -11.293 l 18.543 -13.825 l 9.947 6.407 l 6.912 -5.226 l 8.427 -6.238 l -8.427 -5.058 z m 0 31.695 l -2.698 2.023 l -6.743 -21.243 l 9.441 6.069 l 9.439 6.069 z"/><path d="M 196.281 267.888 L 224.266 246.98 L 216.849 237.036 L 176.893 266.875 L 174.703 268.391 L 176.893 271.255 L 211.283 317.28 L 254.104 285.081 L 246.686 275.134 L 217.858 296.713 L 210.104 286.261 L 235.559 267.212 L 228.311 257.435 L 202.855 276.483 Z"/><path d="m 175.713 317.112 l -13.152 9.947 c 1.351 2.865 1.687 5.731 .846 8.598 c -1.013 2.864 -3.036 5.391 -6.238 7.753 c -3.878 3.036 -7.922 4.046 -12.138 3.036 c -4.045 -1.01 -7.924 -3.877 -11.632 -8.765 c -3.541 -4.722 -5.227 -9.442 -4.891 -13.826 c .17 -4.55 2.361 -8.258 6.238 -11.294 c 3.034 -2.191 5.733 -3.371 8.429 -3.542 c 2.698 -.166 5.396 .675 7.755 2.529 l 13.318 -9.947 c -4.72 -4.888 -10.284 -7.417 -16.858 -7.417 c -6.576 .169 -13.149 2.699 -19.893 7.757 c -8.597 6.237 -13.487 13.655 -15.003 22.252 c -.339 1.686 -.506 3.371 -.506 5.058 v .167 c 0 6.575 2.36 12.98 7.079 19.387 c 5.564 7.587 12.645 11.801 21.243 12.814 c 8.428 .842 16.688 -1.688 24.78 -7.757 c 5.564 -4.216 9.441 -8.766 11.802 -13.993 c .335 -1.01 .843 -2.19 1.179 -3.201 c 1.52 -5.565 1.18 -11.296 -1.179 -17.029 c -.336 -.841 -.843 -1.684 -1.179 -2.527 z"/></g><path d="m 355.02 542.7 c .011 -.006 .1 -.045 .137 -.06 z"/><path d="m 293.212 16.949 c 3.799 1.424 17.902 6.712 17.902 6.712 l .136 .044 c 29.148 9.594 53.034 14.034 79.866 14.849 l .108 .002 h .106 c 22.766 0 43.166 -4.564 64.637 -9.498 c 4.909 5.875 62.287 74.54 67.263 80.498 c -14.608 33.052 -22.827 58.062 -24.282 91.603 l -.005 .153 v .152 c 0 28.532 6.982 56.5 13.735 83.547 c 3.993 16.001 8.122 32.547 10.625 48.685 c 2.107 14.159 4.107 30.206 4.107 46.185 c 0 4.873 -.19 9.737 -.616 14.541 c -4.558 37.152 -25.211 71.731 -56.683 94.885 c -22.991 17.38 -48.57 27.095 -75.652 37.377 c -12.963 4.924 -26.365 10.012 -39.408 16.001 c -26.251 11.406 -41.943 23.747 -61.858 40.27 c -.5 -.41 -1.384 -1.137 -1.384 -1.137 c -13.229 -10.912 -25.724 -21.22 -41.116 -30.062 l -.235 -.135 l -.244 -.116 c -16.776 -7.992 -34.281 -14.931 -51.21 -21.643 c -22.816 -9.046 -46.405 -18.403 -68.099 -30.328 c -27.611 -17.552 -45.44 -37.163 -61.436 -67.574 c -7.497 -17.565 -10.245 -35.204 -10.245 -53.08 c 0 -23.435 4.709 -47.276 9.571 -71.891 c 0 0 2.075 -10.599 2.166 -11.064 c 7.985 -30.115 16.162 -61.03 16.162 -93.18 c 0 -8.955 -.633 -18.005 -2.082 -27.163 c -4.03 -23.691 -11.626 -42.71 -21.851 -66.007 c 4.968 -5.934 62.533 -74.663 67.439 -80.523 c 2.987 .683 6.226 1.423 6.226 1.423 c 14.121 3.283 27.459 6.382 42.339 7.223 l -.304 -.023 c 42.313 4.234 79.671 -7.741 114.322 -20.726 z M 290.735 2.875 C 256.947 15.623 220.587 27.729 180.291 23.699 l -.152 -.015 l -.151 -.01 c -13.673 -.773 -26.437 -3.74 -39.952 -6.88 l -14.707 -3.363 l -2.71 3.306 l -75.802 90.509 l 1.767 3.999 c 10.722 24.26 18.619 43.24 22.594 66.615 c 1.312 8.284 1.888 16.535 1.888 24.752 c 0 30.571 -7.977 60.65 -15.745 89.941 l -.057 .222 l -2.254 11.495 c -4.84 24.514 -9.773 49.497 -9.773 74.601 c 0 19.599 3.004 39.27 11.408 58.85 l .109 .251 l .127 .243 c 17.082 32.567 37.026 54.491 66.686 73.304 l .185 .117 l .189 .105 c 22.521 12.401 46.599 21.949 69.886 31.183 c 16.629 6.592 33.817 13.411 50.095 21.151 c 14.259 8.22 25.709 17.66 38.949 28.581 l 10.382 8.545 l 4.456 -3.728 c 22.061 -18.359 36.634 -30.488 63.04 -41.947 l .137 -.059 c 12.619 -5.796 25.807 -10.804 38.564 -15.648 c 26.813 -10.183 54.541 -20.711 79.061 -39.249 c 34.535 -25.41 57.249 -63.537 62.247 -104.555 l .014 -.112 l .01 -.112 c .472 -5.282 .679 -10.606 .679 -15.915 c 0 -16.856 -2.074 -33.559 -4.265 -48.289 c -2.608 -16.814 -6.815 -33.674 -10.886 -49.978 c -6.537 -26.184 -13.292 -53.258 -13.312 -80.022 c 1.444 -32.726 9.5 -56.107 24.837 -90.308 l 1.798 -4.008 l -78.409 -93.834 l -6.783 1.558 c -21.239 4.884 -41.305 9.496 -63.013 9.509 c -25.33 -.78 -47.98 -5.002 -75.684 -14.112 c -.33 -.124 -22.536 -8.45 -22.536 -8.45 z"/><path d="m 498.539 286.969 c -7.232 -30.055 -14.066 -58.44 -14.066 -82.977 c 0 -32.291 6.813 -63.477 20.251 -92.692 l 1.402 -3.048 l -53.681 -64.307 l -3.233 .81 C 399.754 57.162 347.877 52.699 295.025 31.492 l -1.977 -.794 l -1.979 .794 C 238.214 52.7 186.339 57.163 136.882 44.755 l -3.232 -.81 l -53.692 64.319 l 1.42 3.057 c 13.543 29.106 20.41 60.285 20.41 92.671 c 0 24.554 -6.867 52.967 -14.138 83.047 c -11.995 49.626 -24.4 100.94 -6.273 140.034 c 25.514 54.401 74.447 72.759 121.77 90.511 c 30.364 11.39 61.762 23.168 86.431 44.453 l 3.47 2.992 l 3.468 -2.992 c 24.67 -21.285 56.067 -33.064 86.43 -44.453 c 47.322 -17.752 96.256 -36.11 121.761 -90.493 c 18.144 -39.128 5.784 -90.47 -6.168 -140.122 z m -373.57 125.421 l 49.395 -37.102 v 119.621 c -17.947 -7.63 -34.798 -16.385 -49.395 -28.425 z m 97.273 -73.067 l 48.045 -36.089 v 232.35 c -15.294 -8.874 -31.646 -15.783 -48.045 -22.119 z m 96.598 -72.559 l 47.205 -35.457 v 281.315 c -16.05 6.153 -32.105 12.783 -47.205 21.218 z m 95.249 -71.547 l 48.552 -36.471 v 306.458 c -14.308 12.163 -30.863 21.033 -48.552 28.698 z M 222.242 60.359 c 15.891 -1.908 31.92 -5.342 48.045 -10.297 v 113.437 l -48.045 36.391 z m 96.598 -9.378 c 15.844 4.684 31.59 7.896 47.205 9.636 V 90.973 L 318.84 126.724 Z M 137.604 55.78 c 12.13 2.863 24.39 4.753 36.76 5.691 v 174.684 l -49.395 37.411 V 70.917 c 6.346 -7.604 11.422 -13.684 12.635 -15.137 z m -44.618 254.728 l .293 .385 l 329.413 -249.504 l -.7 -.923 c 8.894 -1.063 17.732 -2.618 26.498 -4.686 c 3.62 4.336 41.589 49.823 45.249 54.205 c -2.517 5.684 -4.793 11.438 -6.836 17.256 L 91.733 424.069 c -.24 -.499 -.494 -.98 -.731 -1.487 c -5.856 -12.628 -8.145 -26.983 -8.145 -42.379 c 0 -21.789 4.589 -45.665 10.129 -69.695 z"/></g></svg>