<svg xmlns="http://www.w3.org/2000/svg" width="1000" height="1000" viewBox="0 0 1000 1000"><path fill="#fff" d="M500.016 972.597C69.388 709.84 116.828 187.975 116.828 187.975 408.782 191.625 500.016 27.4 500.016 27.4h-.034s91.236 164.224 383.192 160.574c0 0 47.441 521.865-383.192 784.624h.034z"/><path fill="none" stroke="#000" stroke-linejoin="round" stroke-width="1.20035436" d="M500.013 920.61q-.005-.001-.014-.007l-.015.008z"/><path stroke="#000" stroke-width="1.20035436" d="M841.022 222.297c-259.31 3.242-340.69-142.291-341.023-142.884-.328.595-81.713 146.127-341.022 142.884 0 0-6.418 70.66 8.487 170.729h665.074c14.904-100.07 8.484-170.73 8.484-170.73zM447.614 414.92v470.311c16.539 12.257 33.922 24.104 52.385 35.372 18.873-11.517 36.63-23.63 53.493-36.182v-469.5zM308.89 414.92v331.993c29.321 39.414 64.277 77.383 105.878 112.376v-444.37c-33.088.002-68.339.002-105.878.002zM171.01 414.92c14.685 84.47 44.795 186.365 105.035 283.652V414.921zM725.06 414.92v281.882c59.51-96.752 89.336-197.924 103.932-281.881zM586.337 414.92v443.44c41.632-35.173 76.592-73.32 105.876-112.911V414.92z"/><g fill="#fff"><path d="M358.095 327.248c-5.205 12.803-14.53 21.44-25.28 21.44-16.385 0-29.667-19.872-29.667-44.387 0-24.51 13.282-44.384 29.668-44.384 10.699 0 19.991 8.552 25.213 21.257h31.214c-7.727-27.877-30.44-45.845-59.169-45.845-35.631 0-56.568 31.256-56.568 71.163 0 39.903 22.762 66.782 58.389 66.782 27.896 0 48.958-18.751 56.815-46.025zM526.682 368.53h29.195l-51.093-133.203h-26.912L426.78 368.531h29.197l8.748-25.547h53.208zm-53.83-49.266 18.478-53.959 18.48 53.96zM597.509 368.76V235.328h40.43L662 326.347l24.043-91.018h40.45v133.43h-24.977l-.17-105.035-26.763 105.035H649.03l-26.376-105.035-.173 105.035z"/></g><path fill="none" stroke="#fff" stroke-linejoin="round" stroke-width="12.00507858" d="M500.016 944.242C95.223 697.25 139.82 206.694 139.82 206.694c274.434 3.43 360.164-150.94 360.164-150.94s85.762 154.37 360.197 150.94c0 0 44.597 490.556-360.197 737.548z"/><path fill="none" stroke="#000" stroke-linejoin="round" stroke-width="4.80141744" d="M500.016 972.597C69.388 709.84 116.828 187.975 116.828 187.975 408.782 191.623 499.98 27.4 499.98 27.4s91.236 164.224 383.191 160.574c0 0 47.442 521.865-383.191 784.624h.035z"/></svg>