<svg xmlns="http://www.w3.org/2000/svg" xmlns:xlink="http://www.w3.org/1999/xlink" width="1000" height="1000" viewBox="0 0 1000 1000"><defs><clipPath id="S"><use xlink:href="#a" width="100%" height="100%"/></clipPath><clipPath id="T"><use xlink:href="#b" width="100%" height="100%"/></clipPath><clipPath id="U"><use xlink:href="#c" width="100%" height="100%"/></clipPath><clipPath id="V"><use xlink:href="#d" width="100%" height="100%"/></clipPath><clipPath id="W"><use xlink:href="#e" width="100%" height="100%"/></clipPath><clipPath id="X"><use xlink:href="#f" width="100%" height="100%"/></clipPath><clipPath id="Y"><use xlink:href="#g" width="100%" height="100%"/></clipPath><clipPath id="Z"><use xlink:href="#h" width="100%" height="100%"/></clipPath><clipPath id="aa"><use xlink:href="#i" width="100%" height="100%"/></clipPath><clipPath id="ab"><use xlink:href="#j" width="100%" height="100%"/></clipPath><clipPath id="ac"><use xlink:href="#k" width="100%" height="100%"/></clipPath><clipPath id="ad"><use xlink:href="#l" width="100%" height="100%"/></clipPath><clipPath id="ae"><use xlink:href="#m" width="100%" height="100%"/></clipPath><clipPath id="af"><use xlink:href="#n" width="100%" height="100%"/></clipPath><clipPath id="ag"><use xlink:href="#o" width="100%" height="100%"/></clipPath><clipPath id="ah"><use xlink:href="#p" width="100%" height="100%"/></clipPath><clipPath id="ai"><use xlink:href="#q" width="100%" height="100%"/></clipPath><clipPath id="aj"><use xlink:href="#r" width="100%" height="100%"/></clipPath><clipPath id="ak"><use xlink:href="#s" width="100%" height="100%"/></clipPath><clipPath id="al"><use xlink:href="#t" width="100%" height="100%"/></clipPath><clipPath id="am"><use xlink:href="#u" width="100%" height="100%"/></clipPath><clipPath id="an"><use xlink:href="#v" width="100%" height="100%"/></clipPath><path id="a" d="M56.723 11.663h484.855v580.913H56.723Z"/><path id="b" d="M56.723 11.663h484.855v580.913H56.723Z"/><path id="c" d="M56.723 11.663h484.855v580.913H56.723Z"/><path id="d" d="M56.723 11.663h484.855v580.913H56.723Z"/><path id="e" d="M56.723 11.663h484.855v580.913H56.723Z"/><path id="f" d="M56.723 11.663h484.855v580.913H56.723Z"/><path id="g" d="M56.723 11.663h484.855v580.913H56.723Z"/><path id="h" d="M56.723 11.663h484.855v580.913H56.723Z"/><path id="i" d="M56.723 11.663h484.855v580.913H56.723Z"/><path id="j" d="M56.723 11.663h484.855v580.913H56.723Z"/><path id="k" d="M56.723 11.663h484.855v580.913H56.723Z"/><path id="l" d="M56.723 11.663h484.855v580.913H56.723Z"/><path id="m" d="M56.723 11.663h484.855v580.913H56.723Z"/><path id="n" d="M56.723 11.663h484.855v580.913H56.723Z"/><path id="o" d="M56.723 11.663h484.855v580.913H56.723Z"/><path id="p" d="M56.723 11.663h484.855v580.913H56.723Z"/><path id="q" d="M56.723 11.663h484.855v580.913H56.723Z"/><path id="r" d="M56.723 11.663h484.855v580.913H56.723Z"/><path id="s" d="M56.723 11.663h484.855v580.913H56.723Z"/><path id="t" d="M56.723 11.663h484.855v580.913H56.723Z"/><path id="u" d="M56.723 11.663h484.855v580.913H56.723Z"/><path id="v" d="M56.723 11.663h484.855v580.913H56.723Z"/></defs><path fill="#00726c" d="M299.151 565.842c116.214 0 210.502-94.176 210.502-210.273 0-115.986-94.288-210.158-210.502-210.158S88.645 239.583 88.645 355.569c-.004 116.115 94.285 210.273 210.506 210.273" clip-path="url(#S)" transform="translate(-33.287 -35.387)scale(1.78563)"/><path fill="#fff" d="M299.151 557.31c111.368 0 201.733-90.365 201.733-201.731 0-111.255-90.365-201.62-201.733-201.62-111.366 0-201.733 90.365-201.733 201.62-.004 111.38 90.36 201.741 201.733 201.741" clip-path="url(#T)" transform="translate(-33.287 -35.387)scale(1.78563)"/><path fill="#00726c" d="M299.151 549.351c106.98 0 193.652-86.784 193.652-193.769 0-106.87-86.669-193.54-193.652-193.54-106.984 0-193.655 86.67-193.655 193.54-.004 106.967 86.667 193.759 193.655 193.759" clip-path="url(#U)" transform="translate(-33.287 -35.387)scale(1.78563)"/><path fill="#fff" d="M299.151 498.212c78.709 0 142.645-63.819 142.645-142.643 0-78.709-63.936-142.53-142.645-142.53-78.708 0-142.645 63.821-142.645 142.53-.006 78.834 63.93 142.643 142.645 142.643" clip-path="url(#V)" transform="translate(-33.287 -35.387)scale(1.78563)"/><path fill="#00726c" d="M299.151 491.053c74.783 0 135.488-60.588 135.488-135.486 0-74.671-60.705-135.374-135.488-135.374-74.786 0-135.489 60.703-135.489 135.374-.006 74.9 60.699 135.486 135.489 135.486" clip-path="url(#W)" transform="translate(-33.287 -35.387)scale(1.78563)"/><path fill="#fff" d="M387.89 345.87c-.116-13.038-5.079-20.194-13.963-20.194-9.814 0-14.89 10.386-14.89 30.815 0 9.233.809 19.502 6.232 25.041 2.422 2.426 5.655 3.694 9.583 3.694 7.615 0 13.038-6.693 14.307-17.658l13.736.923c-1.731 18.927-12.584 30.123-28.968 30.123-7.502 0-13.966-2.54-19.16-7.733-7.499-7.501-11.886-20.426-11.886-35.313 0-14.775 4.387-27.586 11.886-35.201 5.31-5.19 11.887-7.849 19.735-7.849 16.85 0 26.43 10.733 28.392 32.084l-14.982 1.257z" clip-path="url(#X)" transform="translate(-33.287 -35.387)scale(1.78563)"/><path fill="#fff" d="M295.446 381.777h-11.189v-56.443h34.039v10.977h-22.85v12.807h18.251v10.611h-18.251Z" clip-path="url(#Y)" transform="translate(-33.287 -35.387)scale(1.78563)"/><path fill="#fff" d="M240.401 345.87c-.23-13.038-5.076-20.194-13.964-20.194-9.808 0-14.887 10.386-14.887 30.815 0 9.233.808 19.502 6.232 25.041 2.424 2.426 5.655 3.694 9.58 3.694 7.615 0 13.04-6.693 14.311-17.658l13.733.923c-1.847 18.927-12.581 30.123-28.971 30.123-7.5 0-13.963-2.54-19.156-7.733-7.502-7.501-11.887-20.426-11.887-35.313 0-14.775 4.385-27.586 11.887-35.201 5.31-5.19 11.886-7.849 19.735-7.849 16.851 0 26.312 10.733 28.392 32.084l-15.003 1.257z" clip-path="url(#Z)" transform="translate(-33.287 -35.387)scale(1.78563)"/><path fill="#fff" d="M470.634 413.979v-4.386c.925-.23 1.731-.692 2.54-1.499 1.27-1.154 1.617-2.77 2.077-4.386l2.08-7.5-6.697-1.848v-4.503l11.195 3.002-3.347 12.695c-.691 2.539-1.385 4.616-3.461 6.463a8.95 8.95 0 0 1-4.392 1.988m.001-36.475v-3.692l13.85.922-.229 3.579-13.631-.8zm0-19.623v-4.385l15.118.922-.347 4.387-14.773-.915zm0-28.266v-4.387l12.235-1.617.576 4.389-12.808 1.624zm0-14.891v-5.079c2.77-2.193 4.501-5.192 3.231-9.232-.691-1.962-1.847-3.347-3.231-4.27v-4.732c3.003 1.5 5.426 4.155 6.811 8.194 2.079 6.611-1.144 11.916-6.814 15.141m-.001-23.305v4.733c-3.694-2.309-9.117-1.732-13.159-.347-.577.116-1.27.347-1.845.578v-4.963l.691-.345c4.985-1.51 10.179-1.624 14.316.343m.001 18.227v5.079l-1.96-3.692c.709-.366 1.28-.824 1.97-1.396m0 15.575v4.387l-15.005 1.844v-4.382l15.005-1.854zm0 28.268v4.384l-7.041-.46c-2.076-.116-4.962-.232-6.812.923-.46.23-.804.578-1.152.922v-5.193c2.537-1.153 5.311-1.153 8.197-.922l6.814.344zm0 20.331v3.693l-8.309-.459c-2.426-.233-4.619-.465-6.696-1.385v-4.503l.117.116c1.844 1.845 4.502 1.961 6.808 2.077l8.073.478zm0 16.035v4.502l-4.271-1.154-1.729 6.464c-.58 2.077-1.272 4.384-.348 6.461.575 1.617 2.193 2.886 3.806 3.232.924.347 1.73.347 2.542.23v4.387c-1.041.116-2.078 0-3.119-.232-3.805-1.039-6.114-4.038-5.998-7.962-1.269 2.423-3.463 4.156-5.888 4.733V406.4c.925-.232 1.846-.578 2.653-1.155 1.733-1.269 2.31-3.348 2.768-5.309l2.078-7.616-7.5-1.963v-4.614l15.005 4.116v.034zm-15.005-71.082v-3.923c.576 0 1.268 0 1.961-.115l.347 4.038c-.802.091-1.602.091-2.313-.024m0-27.353v4.963c-2.193.922-4.386 2.077-5.998 3.462-2.426 2.194-4.044 5.54-2.887 9.002 1.386 4.387 4.963 5.888 8.885 6.003v3.923c-5.771-.116-10.386-2.653-12.346-8.773-3.02-9.353 4.368-15.917 12.325-18.57m0 35.655v4.384l-2.885.347 2.077 16.043-3.925.462-2.423-20.311 7.158-.916zm0 27.008v5.193c-1.385 1.501-1.847 3.808-1.963 5.654-.113 2.194.35 4.617 1.963 6.234v4.5c-.923-.462-1.729-1.038-2.538-1.73-2.656-2.54-3.463-6.002-3.232-9.579.23-3.346 1.154-6.924 3.924-9.117.573-.456 1.145-.8 1.829-1.144m0 31.609v4.614l-4.846-1.385-2.193 8.194c-.463 1.846-.925 4.041-.116 5.77.691 1.733 2.193 2.886 3.924 3.348 1.039.232 2.193.347 3.231.116v4.154c-1.385.347-3.001.23-4.502-.116-2.884-.809-5.076-2.423-6.231-5.192-1.385-3.116-.81-5.771.116-8.771l3.346-12.694 7.274 1.99zm-29.548 81.946V454.98c.348-.115.694-.115 1.154-.115a6.453 6.453 0 0 1 6.464 6.463 6.454 6.454 0 0 1-6.464 6.464c-.433-.024-.777-.024-1.143-.136m0-195.157v-6.924l8.773 13.042-3.231 2.193-5.56-8.301zm0-7.388v-5.194l22.853-15.464 2.54 3.578-25.389 17.085zm0-34.967v-6.001l2.772-2.654 2.999 3.117-5.763 5.54zm0-6.001v6.001l-16.733 15.697 11.08 11.655-2.77 2.655-9.462-10.04v-9.119l17.907-16.838zm0 35.777-5.885 3.924 5.885 8.655v-6.923l-.23-.347.23-.116v-5.191zm0 195.039v12.693c-3-.576-5.31-3.228-5.31-6.346 0-3.246 2.31-5.784 5.306-6.355M408.167 221.03v-15.927l.46-.461 4.038 3.001-4.505 13.388zm0-15.927v15.927l-2.54 7.499v-13.155l1.962-5.768-1.962 1.501v-4.273l2.537-1.731zm0 35.88v9.119l-2.54-2.771v-3.922l2.537-2.424zm-2.54-34.149v4.271l-5.195 3.577v-4.154l5.194-3.696zm0 8.54v13.155l-4.73 13.735-.466-.462V230.03l.233-.692-.233-.116v-4.154l1.391 1.038 3.794-10.737zm0 28.034v3.923l-2.076-2.076 2.082-1.853zm-5.189-32.882v4.155l-7.154 5.078 7.154 5.309v4.154l-10.039-7.501-6.81 4.848v-4.152l16.856-11.887zm0 19.506v11.771l-3.116-2.193 3.11-9.583zm-16.834 285.517v-6.352l8.543 9.005-4.044 1.845-4.481-4.505zm0-33.346v-3.117l1.73 1.269-1.736 1.853zm0-277.787v-5.885c.461-1.27.461-2.423 0-3.578v-5.655c1.385.922 2.654 1.847 3.579 3.461 1.385 2.424 1.501 5.194.344 7.734-.915 1.843-2.309 3.229-3.911 3.921m0-15.119v5.655c-.113-.347-.345-.693-.575-1.038-.925-1.5-2.423-2.194-3.924-2.886l-7.041-3.46-3.001 6.116v-9.925l.58-1.27 11.77 5.77c.802.345 1.488.694 2.197 1.039m.001 9.231v5.885c-1.5.692-3.233.809-5.079.462v.116c3.463 2.653 4.619 7.039 2.653 10.963-1.269 2.654-3.345 4.499-6.23 5.191-2.193.462-4.038.118-5.888-.575v-3.926c1.385.461 2.886.809 4.275.461 1.845-.344 3.23-1.499 4.038-3.229.808-1.847.92-4.155 0-5.887-.925-1.961-2.887-2.885-4.619-3.808l-3.694-1.731v-3.693l4.042 1.961c1.962.923 4.154 1.962 6.348 1.5 1.729-.23 3.23-1.614 3.923-3.116.069-.117.069-.348.183-.579m-.001 23.895v4.155l-1.736 1.381-3-2.192 4.735-3.346zm0 256.677v3.113l-6.114 7.045-1.734-1.389 6.58-9.811 1.261 1.055zm0 30.121v6.338l-2.997-3.117-11.543 5.543v-3.694l9.233-4.386-9.233-9.811v-6.114l14.546 15.255zm-14.544 19.964v-10.733l1.501 10.042-1.51.685zm0-345.413v9.926l-1.961 4.039 1.961 1.036v3.694l-3.461-1.73-5.54 11.54 7.616 3.693c.46.231.925.461 1.385.691v3.926c-.925-.233-1.845-.694-2.77-1.155l-11.77-5.655 14.522-30.003zm0 310.217v6.114l-2.77-2.886 2.426 17.311.344-.229v3.694h-.113l.113.46v10.733l-1.732.809-4.846-36.124 4.501-2.192 2.08 2.331zm-61.295 38.08v-3.351l5.311-.229-5.311-14.195v-6.923h1.85l13.038 34.043-4.382.231-4.042-9.925-6.447.344zm0-337.115v-17.195c1.041 2.423 1.501 5.193 1.616 7.962 0 3.002-.455 6.234-1.62 9.235m14.201 10.504 5.194-30.467-9.81-1.732.692-3.693 23.659 3.924-.576 3.808-9.695-1.615-5.192 30.467-4.276-.694zm31.607 329.038-24.576-25.043 7.383 29.314-3.462.921-8.543-33.585 5.31-1.382 22.851 23.427-6.922-27.471 3.578-.919 8.424 33.696-4.026 1.028zm-45.808-356.736v17.195c-1.962 5.078-5.889 9.117-12.119 9.233h-.461v-3.463h.345c7.387-.23 9.465-8.77 9.232-14.656 0-3.117-.576-6.695-2.192-9.464-1.612-2.654-4.154-4.501-7.385-4.501v-3.578c6.357-.002 10.498 4.037 12.58 9.232m0 329.611v6.923l-.807-2.192-4.501 16.966 5.308-.35v3.351l-6.346.347-2.424 10.155-3.694.229 9.351-35.2 3.086-.228zm-12.58-338.851v3.578h-.116c-7.732.23-9.694 8.54-9.579 14.773.115 5.884 2.654 13.733 9.694 13.848v3.463c-9.58 0-14.08-8.656-14.195-17.197-.232-8.655 3.809-18.233 13.85-18.465h.348zm-17.998 357.421v-3.578c2.191.348 4.037.348 6.001-1.152 1.268-1.037 2.075-2.538 2.309-4.271.344-1.962-.233-3.694-1.732-5.079-1.386-1.269-2.77-1.501-4.617-1.728l-1.961-.232v-3.81l2.423.348c2.885.348 5.538 1.153 7.616 3.117 2.078 2.078 3.001 5.191 2.539 8.076-.461 4.038-3.462 7.389-7.617 7.965l4.615 16.85-4.499-.576-4.271-15.813-.812-.112zm0-19.851v3.81l-6.58-.926-1.73 12.235 8.078 1.152h.232v3.578l-8.772-1.152-2.078 14.888-4.27-.581 4.733-34.386 10.386 1.371zM259.38 208.813v-3.693c1.038.116 2.191.116 3.345-.23 7.273-1.731 7.503-10.503 6.119-16.273-.809-3.001-2.078-6.347-4.271-8.655-1.385-1.616-3.23-2.655-5.192-3.001v-3.692c7.27.462 12.117 7.042 13.85 14.08 1.96 8.194 0 18.696-9.58 21.004-1.504.349-2.888.462-4.274.462m-.001-35.545v3.693c-1.04-.115-2.078-.115-3.115.115-7.621 1.847-7.734 10.504-6.234 16.503 1.154 4.847 4.271 10.619 9.349 11.542v3.693c-7.272-.462-12.119-7.038-13.85-14.196-1.962-8.425 0-18.58 9.694-21.004q2.252-.519 4.156-.346m-16.272 350.033v-3.578l4.961 1.734.23-17.431-5.192 6.929v-5.655l4.731-6.348 4.731 1.613-.346 36.467-4.268-1.498-.116-10.618-4.73-1.623zm0-17.996v5.654L237.91 518l5.194 1.731v3.577l-7.388-2.536-4.846 6.808v-5.773l12.233-16.51zm-12.234 3.702c1.385-.92 2.541-2.304 3.345-3.805 1.386-2.543 1.731-6.004.693-8.773-.923-1.962-2.308-3.463-4.038-4.615v5.54c.576 1.616.461 3.229 0 4.729v6.92zm0-289.335v-7.501l2.77 6.232zm0-18.004v-3.806l7.386-3.349 1.385 3.232-8.77 3.924zm0-15.925v-4.039l3.922-1.847 1.617 3.462zm0-4.038v4.038l-8.195 3.693v-4.154zm0 16.158v3.807l-3.925 1.732 3.925 8.771v7.501l-1.155.579-7.04-15.466v-10.618l2.771 6.117zm0 293.956v5.538c-.116 0-.116-.114-.116-.114-.808-1.73-1.962-2.539-3.577-3.348l-4.502-2.423v-4.05l5.885 3.002c.81.456 1.504.915 2.31 1.395m0 10.269v6.925c-.923.578-1.846 1.039-2.769 1.27-1.847.576-3.693.46-5.424 0v-3.811c1.153.35 2.423.463 3.693.116 1.731-.575 3.116-1.845 3.923-3.345.231-.367.345-.824.577-1.168m0 19.739v5.771l-1.27 1.732-3.462-1.168zm-8.195-336.542v4.155l-1.731.807 1.731 3.924v10.618l-7.27-16.156zm0 302.144v4.039l-2.194-1.153-6.23 11.77 6.462 3.461c.693.347 1.385.693 1.962.924v3.81c-1.038-.347-2.194-.81-3.23-1.385l-6.925-3.578-6.578 12.462-3.809-2.076 16.157-30.697 4.391 2.401zM184.59 255.556v-10.848c1.155 1.499 1.849 3.346 1.731 5.309 0 2.196-.692 3.935-1.731 5.536m0-26.308 7.156 18.003 2.77-2.308-4.038-9.693 9.923-8.193 9.118 5.538 3.462-2.886-28.392-17.887v4.962l12.926 8.31-8.194 6.81-4.732-11.772v9.12zm0-17.426v4.962l-1.73-1.155 1.73 4.502v9.117l-2.308-5.656v-13.271zm0 32.892v10.848c-.576.807-1.269 1.615-1.96 2.539l-.348.462v-16.158c.232.116.348.347.578.461.579.573 1.27 1.167 1.73 1.853m-2.307-34.393v13.272l-2.077-5.309v-6.462l1.847-1.616.229.118zm0 32.084v16.158l-2.077 2.539v-5.886c1.039-1.269 1.847-2.885 1.847-4.5.115-1.732-.578-3.232-1.847-4.386v-5.077c.692.366 1.383.71 2.077 1.165m-2.079-30.583v6.463l-1.962-4.847zm0 29.44v5.076c-.115-.114-.23-.229-.345-.229-1.617-1.385-3.81-1.962-5.771-1.501-2.077.462-3.463 2.077-4.732 3.693l-2.077 2.539v-5.309c.923-1.268 1.731-2.653 1.731-4.153.115-1.616-.578-3.232-1.731-4.272v-5.191c.692.23 1.385.691 1.962 1.152 3.001 2.539 3.808 6.233 2.077 9.696l.114.115c2.656-2.195 5.888-2.647 8.771-1.601m.001 13.95v5.885l-5.771 7.042-7.155-5.771v-5.654l7.04 5.768 5.309-6.577c.233-.228.349-.457.577-.686M167.28 467.831v-12.928h.346a6.454 6.454 0 0 1 6.463 6.464 6.454 6.454 0 0 1-6.463 6.464zm0-189.14v-5.078l2.885 1.729-2.308 3.81-.577-.48zm-17.659 110.211c1.615 1.502 2.77 3.467 3.464 6.004 1.5 5.195-.231 9.461-3.464 12.695v-7.849c.347-1.152.347-2.421 0-3.694v-7.145zm17.659-156.961v5.191l-.346-.344c-1.616-1.271-3.23-1.616-5.194-.925-1.614.577-2.653 1.847-3.694 3.118l-4.96 6.117 8.77 7.154 4.27-5.193c.347-.462.809-.923 1.155-1.501v5.309l-2.886 3.578 2.886 2.309v5.654l-17.658-14.426v-4.357l6.232-7.501c1.731-2.077 3.116-3.694 5.77-4.501 1.961-.576 3.924-.461 5.654.347m0 41.672v5.078l-17.658-10.619v-5.077l17.659 10.613zm0 181.296v12.928c-3.463-.233-6.117-3.003-6.117-6.464 0-3.463 2.653-6.334 6.116-6.45M149.62 324.657v-4.27l1.269-.347-.692 4.5-.576.114v.003zm0-11.665v-4.498l4.615 1.385-1.152 4.154-3.463-1.055zm0-21.108v-4.732l11.541 5.079-1.849 3.923-9.693-4.277v.007zm-10.848 93.7c4.27-.116 8.195.809 10.848 3.346v7.156-.112c-1.385-5.194-5.884-6.463-10.618-6.352l-.23-4.025zm10.848 22.049c-2.653 2.768-6.462 4.73-10.272 5.769-3 .809-6.116 1.155-9.002.809v-4.604c2.655.233 5.655-.228 8.08-.92 2.653-.692 5.77-1.963 7.847-3.81 1.615-1.385 2.885-3.115 3.347-5.076v7.846zm0-163.983v4.385l-2.077-1.731 2.076-2.653zm0 19.371v5.077l-11.425-6.923 2.193-3.692 9.232 5.534zm0 24.129v4.732l-18.465-8.194-.809 1.615v-9.349l3.002-6.807 3.462 1.499-3.924 9.003 16.736 7.479zm0 21.337v4.5l-19.274-5.771v-4.499l19.273 5.763zm0 11.894v4.27l-15.234 4.038-1.385 9.582 14.887 2.077-.577 4.385-16.965-2.54v-10.039l.347-2.54c.347-1.847.462-3.462-.347-5.079v-6.117c1.963 1.387 3.347 3.464 3.694 6.004l15.582-4.095zm-19.274 59.784v-4.613h.923c5.887-.349 13.849-3.235 13.389-10.618-.462-7.04-8.425-9.005-14.312-8.773v-4.498c8.195-.116 17.197 3.689 17.774 13.039.692 9.926-7.963 14.889-16.619 15.348-.459.139-.805.139-1.152.139m0 34.052c-5.424-.692-10.041-3.811-11.771-10.155-1.847-6.693 1.615-11.887 7.386-14.888l1.846 3.693c-3.925 2.31-7.04 5.423-5.655 10.386 1.153 4.271 4.5 5.886 8.194 6.347v4.636zm0-138.275v9.348l-3.231 7.388-3.462-1.499 6.694-15.232zm0 26.781v4.501l-10.619-3.114 1.272-4.162 9.347 2.768zm0 15.691v6.117q-.171-.519-.692-1.038c-1.039-1.385-2.539-2.194-4.269-2.424-1.962-.346-3.693.229-5.079 1.731-1.27 1.27-1.5 2.771-1.73 4.616l-1.269 8.541 12.232 1.73.808-5.539v10.039l-17.427-2.539 1.961-12.809c.347-2.77 1.154-5.425 3.232-7.502 2.077-2.077 5.078-3 7.964-2.54 1.615.229 3.114.8 4.27 1.602m0 33.253v4.498h-.692c-3.116.232-6.692.925-9.348 2.657-2.653 1.728-4.386 4.499-4.155 7.732.347 7.385 8.08 9.233 14.195 9.001v4.614c-8.308.116-17.196-3.689-17.772-13.272-.116 0-.116-.115-.116-.227v-1.269c.347-8.772 8.541-13.275 16.62-13.735h1.268z" clip-path="url(#aa)" transform="translate(-33.287 -35.387)scale(1.78563)"/><path fill="#fff" d="M270.871 235.782c-22.85 13.272-45.585 51.817-47.893 55.743-2.424 3.924-22.852-15.234-20.199-19.159 9.926-15.002 30.006-29.774 47.204-36.007 15.465-5.537 26.429-4.499 20.889-.576" clip-path="url(#ab)" transform="translate(-33.287 -35.387)scale(1.78563)"/><path fill="#fff" d="M281.604 243.273c-13.501 18.582-23.66 57.819-24.814 62.206-1.154 4.499-28.392-5.656-26.658-10.502 1.846-4.963 8.079-16.733 18.003-30.005 5.886-7.962 17.89-21.697 27.352-26.314 4.846-2.421 10.855-1.729 6.117 4.608" clip-path="url(#ac)" transform="translate(-33.287 -35.387)scale(1.78563)"/><path fill="#fff" d="M296.498 310.216c0 5.077-33.469 1.961-32.661-3.811.808-5.654 9.696-45.931 24.121-63.704.923-1.155 1.385-1.731 2.653-2.655 2.078-1.616 5.31-.116 5.194 2.655.688 23.556.688 62.322.688 67.514" clip-path="url(#ad)" transform="translate(-33.287 -35.387)scale(1.78563)"/><path fill="#fff" d="M270.871 474.448c-22.85-13.387-45.585-51.815-47.893-55.738-2.424-3.926-22.852 15.116-20.199 19.038 9.926 15.005 30.006 29.778 47.204 36.008 15.465 5.65 26.429 4.485 20.889.688" clip-path="url(#ae)" transform="translate(-33.287 -35.387)scale(1.78563)"/><path fill="#fff" d="M281.604 466.948c-13.501-18.582-23.66-57.936-24.814-62.438-1.154-4.382-28.392 5.888-26.658 10.734 1.846 4.847 8.079 16.733 18.003 30.005 5.886 7.964 17.89 21.699 27.352 26.315 4.846 2.426 10.855 1.715 6.117-4.619" clip-path="url(#af)" transform="translate(-33.287 -35.387)scale(1.78563)"/><path fill="#fff" d="M296.498 399.892c0-5.193-33.469-1.961-32.661 3.694.808 5.769 9.696 46.16 24.121 63.934.923 1.04 1.385 1.732 2.653 2.653 2.078 1.502 5.426.463 5.194-1.385.688-23.532.688-63.809.688-68.886" clip-path="url(#ag)" transform="translate(-33.287 -35.387)scale(1.78563)"/><path fill="#fff" d="M327.761 474.448c22.853-13.387 45.589-51.815 47.895-55.738 2.425-3.926 22.851 15.116 20.31 19.038-9.925 15.005-30.12 29.778-47.201 36.008-15.577 5.65-26.53 4.485-20.996.688" clip-path="url(#ah)" transform="translate(-33.287 -35.387)scale(1.78563)"/><path fill="#fff" d="M317.035 466.948c13.618-18.582 23.661-57.936 24.814-62.438 1.156-4.382 28.391 5.888 26.658 10.734-1.728 4.847-8.076 16.733-18.001 30.005-5.889 7.964-17.891 21.699-27.352 26.315-4.873 2.426-10.863 1.715-6.131-4.619" clip-path="url(#ai)" transform="translate(-33.287 -35.387)scale(1.78563)"/><path fill="#fff" d="M302.147 399.892c0-5.193 33.469-1.961 32.657 3.694-.808 5.769-9.693 46.16-24.121 63.934-.804 1.04-1.385 1.732-2.538 2.653-2.192 1.502-5.423.463-5.307-1.385-.688-23.532-.688-63.809-.688-68.886" clip-path="url(#aj)" transform="translate(-33.287 -35.387)scale(1.78563)"/><path fill="#fff" d="M327.189 235.782c22.736 13.272 45.588 51.817 47.894 55.743 2.426 3.924 22.852-15.234 20.199-19.159-9.925-15.002-30.009-29.774-47.204-36.007-15.459-5.537-26.415-4.499-20.881-.576" clip-path="url(#ak)" transform="translate(-33.287 -35.387)scale(1.78563)"/><path fill="#fff" d="M316.464 243.273c13.501 18.582 23.657 57.819 24.813 62.206 1.153 4.499 28.392-5.656 26.658-10.502-1.844-4.963-8.076-16.733-18.002-30.005-5.887-7.962-17.889-21.697-27.351-26.314-4.872-2.421-10.863-1.729-6.131 4.608" clip-path="url(#al)" transform="translate(-33.287 -35.387)scale(1.78563)"/><path fill="#fff" d="M301.576 310.216c0 5.077 33.468 1.961 32.656-3.811-.804-5.654-9.692-45.931-24.116-63.704-.924-1.155-1.385-1.731-2.658-2.655-2.077-1.616-5.307-.116-5.19 2.655-.688 23.556-.688 62.322-.688 67.514" clip-path="url(#am)" transform="translate(-33.287 -35.387)scale(1.78563)"/><path fill="#f7d22d" d="m299.151 99.948-27.587 19.042 9.577-32.198-26.776-20.429 33.579-.808 11.207-31.737 11.184 31.737 33.596.808-26.78 20.429 9.582 32.198Z" clip-path="url(#an)" transform="translate(-33.287 -35.387)scale(1.78563)"/></svg>