<svg height="1000" viewBox="0 0 1000 1000" width="1000" xmlns="http://www.w3.org/2000/svg"><g transform="matrix(4.5238102 0 0 4.5238095 226.30948 -45.119045)"><path d="M 39.576 211.651 L 36.124 210.331 L 32.545 209.094 L 28.795 207.943 L 24.916 206.835 L 21.039 205.686 L 17.033 204.577 L 12.985 203.385 L 8.979 202.233 L 4.888 200.998 L .755 199.676 L -3.251 198.27 L -7.214 196.736 L -11.177 195.116 L -15.055 193.37 L -18.848 191.409 L -22.427 189.321 L -25.964 186.977 L -29.33 184.506 L -32.526 181.736 L -35.552 178.711 L -38.237 175.429 L -40.793 171.935 L -43.009 168.058 L -44.97 163.881 L -46.589 159.405 L -47.484 156.423 L -48.038 153.398 L -48.507 150.415 L -48.634 147.56 L -48.549 144.618 L -48.336 141.85 L -47.91 139.036 L -47.314 136.353 L -46.589 133.625 L -45.779 130.983 L -44.757 128.426 L -43.734 125.868 L -42.541 123.396 L -41.305 120.883 L -40.069 118.498 L -38.664 116.068 L -37.384 113.639 L -35.978 111.295 L -34.572 108.952 L -33.208 106.608 L -31.802 104.307 L -30.481 102.006 L -29.161 99.746 L -27.924 97.489 L -26.731 95.229 L -25.667 93.014 L -24.643 90.756 L -23.748 88.54 L -22.938 86.367 L -22.299 84.15 L -21.788 81.978 L -21.405 79.762 L -21.277 78.824 L -21.191 77.844 L -21.106 76.906 L -21.106 75.884 L -21.106 74.946 L -21.106 73.923 L -21.191 72.943 L -21.277 71.921 L -21.405 70.983 L -21.575 69.96 L -21.703 69.023 L -21.917 68 L -22.128 66.978 L -22.342 65.997 L -22.64 65.06 L -22.938 64.037 L -23.322 63.058 L -23.664 62.119 L -24.046 61.182 L -24.472 60.159 L -24.941 59.265 L -25.368 58.327 L -25.878 57.347 L -26.39 56.409 L -26.901 55.557 L -27.499 54.662 L -28.052 53.768 L -28.649 52.914 L -29.33 52.022 L -29.97 51.21 L -30.651 50.358 L -33.123 47.503 L -.396 15.5 L 3.184 17.332 L 4.888 18.142 L 6.636 18.994 L 8.383 19.762 L 10.129 20.528 L 11.877 21.296 L 13.709 22.02 L 15.499 22.745 L 17.332 23.384 L 19.079 24.065 L 20.911 24.704 L 22.743 25.301 L 24.576 25.898 L 26.408 26.409 L 28.24 26.921 L 30.116 27.432 L 31.948 27.857 L 33.866 28.327 L 35.698 28.668 L 37.573 29.094 L 39.491 29.393 L 41.323 29.775 L 43.24 30.074 L 45.116 30.287 L 47.033 30.5 L 48.994 30.713 L 50.911 30.884 L 52.829 31.012 L 54.704 31.182 L 56.706 31.225 L 58.582 31.31 L 60.499 31.31 L 62.416 31.31 L 64.291 31.225 L 66.294 31.182 L 68.169 31.012 L 70.086 30.884 L 72.004 30.713 L 73.965 30.5 L 75.882 30.287 L 77.757 30.074 L 79.676 29.775 L 81.507 29.393 L 83.426 29.094 L 85.301 28.668 L 87.132 28.327 L 89.05 27.857 L 90.881 27.432 L 92.756 26.921 L 94.59 26.409 L 96.42 25.898 L 98.254 25.301 L 100.088 24.704 L 101.919 24.065 L 103.667 23.384 L 105.499 22.745 L 107.29 22.02 L 109.121 21.296 L 110.868 20.528 L 112.617 19.762 L 114.361 18.994 L 116.109 18.142 L 117.814 17.332 L 121.395 15.5 L 154.121 47.503 L 151.648 50.358 L 150.966 51.21 L 150.329 52.022 L 149.648 52.914 L 149.05 53.768 L 148.495 54.662 L 147.898 55.557 L 147.389 56.409 L 146.878 57.347 L 146.366 58.327 L 145.938 59.265 L 145.471 60.159 L 145.043 61.182 L 144.663 62.119 L 144.32 63.058 L 143.936 64.037 L 143.639 65.06 L 143.339 65.997 L 143.127 66.978 L 142.915 68 L 142.702 69.023 L 142.573 69.96 L 142.402 70.983 L 142.273 71.921 L 142.189 72.943 L 142.105 73.923 L 142.105 74.946 L 142.105 75.884 L 142.105 76.906 L 142.189 77.844 L 142.273 78.824 L 142.402 79.762 L 142.786 81.978 L 143.297 84.15 L 143.936 86.367 L 144.745 88.54 L 145.641 90.756 L 146.664 93.014 L 147.73 95.229 L 148.923 97.489 L 150.158 99.746 L 151.48 102.006 L 152.799 104.307 L 154.207 106.608 L 155.57 108.952 L 156.977 111.295 L 158.383 113.639 L 159.662 116.068 L 161.068 118.498 L 162.302 120.883 L 163.54 123.396 L 164.732 125.868 L 165.753 128.426 L 166.777 130.983 L 167.586 133.625 L 168.311 136.353 L 168.908 139.036 L 169.335 141.85 L 169.548 144.618 L 169.634 147.56 L 169.504 150.415 L 169.038 153.398 L 168.482 156.423 L 167.586 159.405 L 165.969 163.881 L 164.008 168.058 L 161.792 171.935 L 159.234 175.429 L 156.55 178.711 L 153.523 181.736 L 150.329 184.506 L 146.962 186.977 L 143.426 189.321 L 139.761 191.409 L 136.052 193.37 L 132.175 195.116 L 128.212 196.736 L 124.25 198.27 L 120.244 199.676 L 116.109 200.998 L 112.02 202.233 L 108.014 203.385 L 103.965 204.577 L 99.959 205.686 L 96.081 206.835 L 92.205 207.943 L 88.454 209.094 L 84.874 210.331 L 81.421 211.651 L 78.055 212.973 L 74.988 214.463 L 72.046 215.998 L 69.361 217.575 L 66.848 219.364 L 64.591 221.239 L 60.499 225.5 L 56.408 221.239 L 54.15 219.364 L 51.636 217.575 L 48.951 215.998 L 46.011 214.463 L 42.942 212.973 Z"/><path d="m 148.879 106.225 l .13 .298 l 1.406 2.344 l 1.405 2.259 l 1.363 2.344 l 1.404 2.343 l 1.324 2.344 l 1.32 2.345 l 1.234 2.345 l 1.151 2.428 l 1.106 2.345 l 1.025 2.386 l .895 2.43 l .811 2.472 l .637 2.429 l .514 2.472 l .384 2.514 l .213 2.558 l .086 2.556 l -.172 2.642 l -.343 2.644 l -.51 2.641 l -.768 2.77 l -1.533 4.092 l -1.834 3.792 l -2.045 3.539 l -2.257 3.279 l -2.558 3.026 l -2.727 2.77 l -1.663 1.365 V 106.225 Z M 90.244 96.723 v 107.3 l -3.154 1.023 l -3.664 1.236 l -3.665 1.319 l -3.409 1.407 l -3.326 1.534 l -1.445 .809 V 110.784 Z m 38.565 -29.064 v 124.134 l -2.173 .938 l -3.879 1.491 l -3.964 1.322 l -3.96 1.32 l -4.008 1.235 l -.681 .128 V 81.721 Z m -172.586 72.911 l .086 -.766 l .554 -2.472 l .681 -2.429 l .725 -2.472 l .938 -2.43 l 1.022 -2.386 l 1.107 -2.345 l 1.194 -2.428 l 1.237 -2.345 l 1.235 -2.345 l 1.406 -2.344 l 1.321 -2.343 l 1.364 -2.344 l 1.407 -2.259 l 1.405 -2.344 l 1.364 -2.344 l 1.321 -2.344 l 1.236 -2.259 l 1.236 -2.344 l 1.192 -2.43 l 1.024 -2.343 l 1.022 -2.344 l .81 -2.43 l .724 -2.386 l .596 -2.429 l .427 -2.472 l .171 -1.108 l .042 -1.107 l .086 -1.108 l .085 -1.064 v -1.193 l -.085 -1.107 l -.086 -1.066 l -.042 -1.107 l -.171 -1.107 l -.128 -1.151 l -.213 -1.108 l -.255 -1.108 l -.214 -1.107 l -.298 -1.064 l -.256 -1.108 l -.383 -1.107 l -.384 -1.108 l -.426 -1.022 l -.425 -1.108 l -.47 -1.022 l -.426 -1.022 l -.596 -1.065 l -.511 -1.022 l -.555 -.98 l -.596 -1.022 l -.597 -1.023 l -.64 -.938 l -.682 -.979 l -.723 -.938 l -.725 -.938 l -.597 -.725 l 27.615 -27.02 l .852 .426 l 1.789 .895 l 1.747 .853 l 1.833 .81 l 1.832 .81 l 1.833 .725 l 1.832 .81 l 1.79 .725 l 1.832 .682 l 1.918 .64 l 1.918 .682 l 1.832 .639 l 1.875 .597 l 1.918 .512 l 1.916 .597 l 1.875 .426 l 2.004 .511 l 1.875 .427 l 1.917 .469 l 1.961 .34 l 2.003 .385 l 1.874 .341 l 2.003 .298 l 1.961 .213 l 2.002 .299 l 1.961 .213 l 1.96 .171 l 2.003 .127 l 1.96 .086 l 1.96 .128 h 2.003 h 2.045 h 1.96 h 2.045 l 2.005 -.128 l 1.959 -.086 l 2.003 -.127 l 1.961 -.171 l 1.961 -.213 l 2.002 -.299 l 1.961 -.213 l 1.961 -.298 l 2 -.341 l 1.961 -.385 l 1.918 -.34 l 1.959 -.469 l 1.92 -.427 l 1.917 -.511 l 1.875 -.426 l 2.002 -.597 l 1.833 -.512 l 1.875 -.597 l 1.917 -.639 l 1.875 -.682 l 1.834 -.64 l 1.833 -.682 l 1.917 -.725 l 1.833 -.81 l .638 -.213 z m 30.512 34.177 v 14.701 l -3.495 -1.832 l -3.451 -1.961 l -3.282 -2.214 l -.724 -.513 z m 32.003 -24.076 v 49.9 l -.511 -.129 l -4.049 -1.192 l -4.006 -1.15 l -4.048 -1.235 l -2.856 -.98 v -33.579 z m 34.176 62.64 l -1.833 -1.106 l -3.153 -1.662 l -3.366 -1.534 l -3.452 -1.407 l -3.58 -1.319 l -1.448 -.513 v -68.224 l 16.832 -12.657 z" fill="#fff"/><path d="m 17.928 66.423 c 2.686 -1.874 5.753 -2.258 6.988 -.511 c 1.151 1.577 -.127 4.475 -2.897 6.307 c -2.6 1.875 -5.667 2.174 -6.904 .512 c -1.15 -1.663 .128 -4.432 2.813 -6.308 z M 10.726 38.682 c 12.529 0 22.969 10.1 22.969 22.629 c 0 12.527 -10.44 22.798 -22.969 22.798 c -12.4 0 -22.628 -10.228 -22.628 -22.798 c 0 -12.53 10.228 -22.629 22.628 -22.629 z" fill="none" stroke="#343536" stroke-miterlimit="1" stroke-width="1.321"/><path d="m 19.59 73.54 c .554 3.323 .127 6.476 -1.151 9.29" fill="none" stroke="#343536" stroke-miterlimit="1" stroke-width="1.321"/><path d="m 24.106 70.43 c 2.899 .596 5.115 1.32 7.373 1.15" fill="none" stroke="#343536" stroke-miterlimit="1" stroke-width="1.321"/><path d="m 25.002 65.912 c 3.877 -1.363 6.946 -4.56 8.565 -7.074" fill="none" stroke="#343536" stroke-miterlimit="1" stroke-width="1.321"/><path d="M 22.829 64.591 C 25.002 56.665 25.002 48.909 20.74 41.281" fill="none" stroke="#343536" stroke-miterlimit="1" stroke-width="1.321"/><path d="M 19.419 65.741 C 15.755 56.452 12.09 47.461 5.314 39.491" fill="none" stroke="#343536" stroke-miterlimit="1" stroke-width="1.321"/><path d="M 15.712 68.981 C 6.209 64.336 -1.802 57.773 -8.194 49.421" fill="none" stroke="#343536" stroke-miterlimit="1" stroke-width="1.321"/><path d="M 15.03 71.75 C 4.462 74.606 -4.188 70.812 -11.816 65.912" fill="none" stroke="#343536" stroke-miterlimit="1" stroke-width="1.321"/><path d="m 15.967 73.241 c -3.28 5.497 -9.63 8.522 -14.105 8.948" fill="none" stroke="#343536" stroke-miterlimit="1" stroke-width="1.321"/><path d="m 110.698 68.895 c .342 -.255 .682 -.426 1.065 -.553 c .338 0 .637 .084 .854 .212 c .168 .298 .298 .555 .298 1.066 c 0 .383 -.13 .895 -.298 1.32 c -.217 .554 -.516 .98 -.854 1.492 c -.384 .597 -.724 .937 -1.065 1.235 c -.683 .511 -1.149 .554 -1.662 .511 c -.386 -.298 -.599 -.596 -.599 -1.235 c 0 -.511 .086 -.938 .213 -1.449 c .217 -.511 .515 -.937 .898 -1.491 c .341 -.383 .679 -.81 1.15 -1.108 M 94.889 59.051 L 95.145 56.58 c .213 -1.705 -.896 -2.216 -2.389 -1.406 c -1.363 .767 -3.749 1.789 -6.433 3.963 c -1.365 1.149 -1.618 4.219 -1.618 6.604 v 14.745 c 0 3.962 1.831 3.749 1.831 3.749 c 3.323 -.213 8.438 -4.176 8.353 -5.752 l -.214 -6.563 l 6.563 -4.603 l -.299 10.1 c -.129 4.219 -6.096 8.054 -10.356 11.207 c -3.108 2.258 -6.177 4.048 -7.753 4.857 c -3.709 1.833 -6.352 .554 -6.352 -6.349 L 76.392 71.407 c 0 -13.892 3.623 -16.192 12.826 -21.136 c 1.152 -.683 4.092 -1.748 5.969 -1.534 c .424 -.853 .17 -3.75 1.106 -4.944 l 4.944 -2.684 l -.129 13.124 z m -34.56 47.087 c .383 -.298 .724 -.425 1.106 -.596 c .342 0 .641 .086 .854 .256 c .127 .256 .297 .555 .297 1.065 c 0 .342 -.17 .852 -.297 1.278 c -.213 .597 -.512 1.022 -.854 1.577 c -.383 .512 -.724 .895 -1.106 1.15 c -.64 .513 -1.151 .597 -1.662 .513 c -.341 -.215 -.554 -.555 -.554 -1.195 c 0 -.468 .085 -.937 .213 -1.448 c .298 -.511 .511 -.938 .852 -1.533 c .384 -.342 .809 -.766 1.151 -1.067 M 35.229 92.375 L 61.225 73.284 V 84.32 l -5.2 3.366 v -1.49 c 0 -.854 -.298 -2.472 -.298 -2.6 c 0 -.299 -.427 -.341 -.853 -.341 c -.596 0 -7.202 5.369 -8.992 7.201 v 10.27 L 51.72 96.55 v 6.436 l -5.923 4.004 l .085 5.071 c 0 .683 -.298 3.154 1.45 3.026 c .34 0 2.428 -2.046 3.792 -2.77 l .128 4.857 l -15.81 11.635 v -4.816 c 2.088 -1.364 3.239 -2.002 3.239 -5.326 V 97.999 c 0 -2.386 -1.023 -2.939 -3.41 -2.087 z m -11.335 40.994 c .383 -.212 .724 -.383 1.108 -.597 c .341 0 .639 .086 .852 .299 c .128 .214 .298 .512 .298 1.022 c 0 .426 -.17 .853 -.298 1.364 c -.213 .511 -.511 .937 -.852 1.491 c -.384 .511 -.725 .936 -1.108 1.235 c -.639 .427 -1.151 .554 -1.662 .427 c -.341 -.214 -.554 -.556 -.554 -1.151 c 0 -.511 .086 -1.023 .213 -1.448 c .298 -.554 .511 -.98 .852 -1.492 c .384 -.425 .725 -.894 1.151 -1.15 m -31.108 15.598 l 5.71 -3.494 c 0 1.404 .511 2.641 2.216 3.067 c 1.449 .384 6.776 -3.153 8.012 -5.369 c 1.661 -3.024 1.15 -8.309 -.896 -8.309 c -2.429 0 -7.883 5.965 -11.377 5.965 c -.427 0 -2.642 .724 -3.452 -2.643 c -.213 -.852 -.213 -9.288 -.213 -10.951 c 0 -6.904 2.599 -8.268 8.224 -11.932 c 1.96 -1.236 6.818 -3.495 10.142 -4.177 l .938 -3.537 l 3.622 -1.96 l .043 12.613 l -5.455 2.088 c 0 -1.235 -1.023 -1.576 -1.449 -1.533 c -2.215 .382 -5.965 2.683 -8.139 5.283 c 0 0 -1.491 5.668 .298 7.116 c 1.023 .853 9.375 -6.774 12.614 -5.923 c 0 0 2.642 .896 2.855 1.619 c 1.023 2.855 .895 13.936 0 15.811 c -1.705 3.919 -8.991 8.564 -12.571 10.226 c -.171 0 -5.284 1.449 -6.435 2.898 v 2.939 l -4.73 2.727 z" fill="#fff"/></g></svg>