<svg xmlns="http://www.w3.org/2000/svg" width="1000" height="1000" viewBox="0 0 1000 1000"><g transform="translate(226.307 -45.119)scale(4.5238)"><path fill="#e25645" d="M60.5 225.5c57.99 0 105.001-47.011 105.001-105S118.49 15.5 60.5 15.5c-57.989 0-105 47.011-105 105s47.011 105 105 105"/><ellipse cx="60.5" cy="120.5" fill="none" stroke="#fff" stroke-width="7.392" rx="97.125" ry="97.126" transform="rotate(-9.218 60.493 120.49)"/><path fill="#fff" d="M72.399 188.477c0 7.083 4.928 7.393 4.928 7.393 3.389 0 6.16-2.619 6.16-2.619 0 10.781-8.777 11.397-8.777 11.397-4.929 0-6.313-2.156-6.313-2.156-2.62 4.311-6.161 5.391-6.161 5.391s-3.728-1.079-6.345-5.391c0 0-1.387 2.156-6.314 2.156 0 0-8.779-.616-8.779-11.397 0 0 2.773 2.619 6.161 2.619 0 0 4.928-.31 4.928-7.393V53.723c0-7.084-4.928-7.392-4.928-7.392-3.388 0-6.161 2.617-6.161 2.617 0-10.779 8.779-11.396 8.779-11.396 4.928 0 6.314 2.157 6.314 2.157 2.617-4.312 6.345-5.391 6.345-5.391s3.541 1.078 6.161 5.391c0 0 1.385-2.157 6.313-2.157 0 0 8.777.617 8.777 11.396 0 0-2.771-2.617-6.16-2.617 0 0-4.928.308-4.928 7.392z"/><path fill="#fff" d="M59.678 166.66c47.64 0 67.353-25.256 67.353-25.256l-6.775-5.34c-28.338 20.328-58.317 17.248-58.317 17.248-48.256 0-51.745-31.621-51.745-31.621 0-32.238 51.745-32.856 51.745-32.856 39.631 0 57.084 21.152 57.084 21.152h3.286l1.644-1.849c-5.134-8.829-3.492-27.516-3.492-27.516l-5.749-1.849-5.545 7.598C84.938 74.874 61.938 75.078 61.938 75.078c-44.148 0-63.244 26.9-70.021 35.318-6.775 8.419-11.909 10.885-11.909 10.885s4.928 4.312 9.857 11.087c4.926 6.778 24.844 34.292 69.813 34.292"/><path fill="none" stroke="#e25645" stroke-width="6.16" d="M59.678 166.66c47.64 0 67.353-25.256 67.353-25.256l-6.775-5.34c-28.338 20.328-58.317 17.248-58.317 17.248-48.256 0-51.745-31.621-51.745-31.621 0-32.238 51.745-32.856 51.745-32.856 39.631 0 57.084 21.152 57.084 21.152h3.286l1.644-1.849c-5.134-8.829-3.492-27.516-3.492-27.516l-5.749-1.849-5.545 7.598C84.938 74.874 61.938 75.078 61.938 75.078c-44.148 0-63.244 26.9-70.021 35.318-6.775 8.419-11.909 10.885-11.909 10.885s4.928 4.312 9.857 11.087c4.926 6.778 24.844 34.292 69.813 34.292z"/><path fill="#fff" d="M59.678 166.66c47.64 0 67.353-25.256 67.353-25.256l-6.775-5.34c-28.338 20.328-58.317 17.248-58.317 17.248-48.256 0-51.745-31.621-51.745-31.621 0-32.238 51.745-32.856 51.745-32.856 39.631 0 57.084 21.152 57.084 21.152h3.286l1.644-1.849c-5.134-8.829-3.492-27.516-3.492-27.516l-5.749-1.849-5.545 7.598C84.938 74.874 61.938 75.078 61.938 75.078c-44.148 0-63.244 26.9-70.021 35.318-6.775 8.419-11.909 10.885-11.909 10.885s4.928 4.312 9.857 11.087c4.926 6.778 24.844 34.292 69.813 34.292"/><path fill="none" stroke="#e25645" stroke-width="6.16" d="M75.511 113.785v22.022s17.248 7.085 17.248 20.174c0 0 1.694 18.79-17.095 18.79v12.781s37.424-2.31 37.269-36.037c.001.001 4.928-25.564-37.422-37.73zM48.497 127.184v-22.64s-15.246-7.083-15.4-20.481c0 0 .617-15.863 15.4-16.633V54.647s-33.572 5.852-33.572 34.807c0-.001-3.851 27.103 33.572 37.73zM75.633 54.647V67.43s10.781 3.541 10.781 14.169c0 0-.154 6.313-3.85 13.089s.615 11.551 4.466 11.551c0 0 5.852 1.849 8.47-11.396 2.618-13.243 12.167-21.714 12.167-21.714V66.66s-3.851 2.465-8.933.925c0-.001-18.018-12.938-23.101-12.938zM48.591 174.771v12.627s-13.091-2.155-36.653-18.48l-8.778-.615-1.694-6.624s9.948-1.35 19.405-18.941c6.622-12.321 12.32-11.551 12.32-11.551s8.778 0 8.778 9.549c0 0-.771 13.398-10.781 23.1 0 0 5.236 9.241 17.403 10.935z"/><path fill="#fff" d="M75.511 113.785v22.022s17.248 7.085 17.248 20.174c0 0 1.694 18.79-17.095 18.79v12.781s37.424-2.31 37.269-36.037c.001.001 4.928-25.564-37.422-37.73M48.497 127.184v-22.64s-15.246-7.083-15.4-20.481c0 0 .617-15.863 15.4-16.633V54.647s-33.572 5.852-33.572 34.807c0-.001-3.851 27.103 33.572 37.73M75.633 54.647V67.43s10.781 3.541 10.781 14.169c0 0-.154 6.313-3.85 13.089s.615 11.551 4.466 11.551c0 0 5.852 1.849 8.47-11.396 2.618-13.243 12.167-21.714 12.167-21.714V66.66s-3.851 2.465-8.933.925c0-.001-18.018-12.938-23.101-12.938M48.591 174.771v12.627s-13.091-2.155-36.653-18.48l-8.778-.615-1.694-6.624s9.948-1.35 19.405-18.941c6.622-12.321 12.32-11.551 12.32-11.551s8.778 0 8.778 9.549c0 0-.771 13.398-10.781 23.1 0 0 5.236 9.241 17.403 10.935"/></g></svg>