<svg height="1000" viewBox="0 0 1000 1000" width="1000" xmlns="http://www.w3.org/2000/svg"><g transform="matrix(1.6043419 0 0 1.6043419 -26.486455 -26.869802)"><path d="M 623.588 256.76 L 623.586 37.355 L 437.257 37.355 L 219.065 37.355 L 32.739 37.355 L 32.739 256.759 L 332.437 619.073 Z" fill="#fff" stroke="#000" stroke-width="1.2941"/><path d="m 288.421 518.111 c 0 -281.041 0 -281.041 0 -281.041 H 58.277 Z" fill="#ee3124"/><path d="m 366.98 518.111 c 0 -281.041 0 -281.041 0 -281.041 h 230.144 z"/><path d="M 57.860001 57.16 H 596.704971 V 216.49099 H 57.860001 Z"/><path d="M 155.909 168.478 L 95.771 168.478 L 95.771 189.731 L 177.162 189.731 L 177.162 125.974 L 116.119 125.974 L 116.119 106.982 L 177.162 106.982 L 177.162 84.826 L 95.771 84.826 L 95.771 149.488 L 155.909 149.488 Z" fill="#fff"/><path d="M 303.769 149.034 V 84.826 h -81.39 v 104.905 h 20.8 v -40.696 h 60.59 z m -60.59 -43.408 h 42.503 v 22.609 h -42.503 z" fill="#fff"/><path d="M 368.883 188.826 L 368.883 149.034 L 429.473 149.034 L 429.473 127.331 L 368.883 127.331 L 368.883 106.531 L 429.473 106.531 L 429.473 83.922 L 348.083 83.922 L 348.083 188.826 Z" fill="#fff"/><path d="M 558.795 166.217 L 498.204 166.217 L 498.204 106.531 L 558.795 106.531 L 558.795 83.922 L 477.404 83.922 L 477.404 188.826 L 558.795 188.826 Z" fill="#fff"/></g></svg>