<svg xmlns="http://www.w3.org/2000/svg" width="1000" height="1000" viewBox="0 0 1000 1000"><path fill="#004d9d" d="m850.7 129.249-10.688-6.954c-60.41-39.022-268.373-93.02-340.018-93.02-71.104 0-279.602 53.463-340.012 93.02l-9.085 5.879c-16.044 10.16-25.663 26.731-25.663 44.378V611.47c0 53.463 60.41 146.484 146.484 226.672 76.448 70.57 182.84 132.584 227.748 132.584s151.293-62.007 227.747-132.584c91.945-85.004 146.484-170.002 146.484-226.672v-435.71c.534-14.97-5.35-35.282-22.997-46.51"/><path fill="#007ec3" d="M500 29.275c71.104 0 279.608 53.463 340.018 93.02l10.688 6.954c17.647 11.228 23.525 31.54 23.525 47.044v435.17c0 56.67-55.066 141.674-146.484 226.672C651.3 908.711 544.907 970.725 500 970.725S348.707 908.718 272.253 838.14c-86.608-80.188-146.484-173.215-146.484-226.678V172.018c0-17.113 9.625-33.685 25.663-44.379l9.084-5.878C220.4 82.738 428.896 29.275 500 29.275M500 25c-71.639 0-281.739 53.992-342.15 93.555l-9.084 5.35c-17.113 11.222-27.807 29.397-27.807 48.113v438.917c0 54.532 60.945 149.155 148.087 229.885C346.03 912.452 454.024 975 500 975s153.965-62.548 230.954-134.187C823.98 754.74 879.04 668.673 879.04 610.935V175.753c0-16.573-6.954-38.489-25.657-50.786l-10.7-6.953C781.745 78.992 572.174 25 500 25"/><path fill="#00468f" d="m850.7 129.249-10.688-6.954c-60.41-39.022-268.373-93.02-340.018-93.02v940.916c44.907 0 151.3-62.008 227.741-132.584 91.958-85.004 146.484-170.003 146.484-226.672V175.753c.012-14.963-5.872-35.276-23.52-46.504"/><path fill="#007ec3" d="M307.54 779.869v20.319h56.664v-528.73c-19.244 5.343-38.488 10.693-56.67 16.037v492.374zM418.202 859.523h56.67V247.397c-16.045 2.144-35.289 5.879-56.67 10.694zM531.541 859.523h56.67V259.688c-20.847-4.81-40.638-8.55-56.67-11.228zM645.415 274.123v526.059h56.663V290.695c-17.634-5.878-36.878-11.756-56.663-16.572"/><path fill="#1d1d1b" d="m856.056 198.75-10.694-6.953c-54.532-35.282-258.76-87.67-323.446-87.67-64.685 0-268.908 52.394-323.44 87.67l-9.084 5.884c-6.42 4.269-11.763 11.222-11.763 18.703v438.923c0 37.42 48.12 121.89 136.865 204.75 44.907 41.701 94.623 75.386 135.255 97.302 20.313 8.55 37.954 13.36 50.251 13.36 44.907 0 151.3-62.008 227.741-132.584 70.564-65.22 119.224-130.446 137.934-182.834V487.442H595.158l45.441 90.883h134.187v75.38c-2.672 11.768-26.726 64.15-107.99 139.536-60.416 56.129-121.36 87.67-145.414 97.83-24.06-10.16-84.47-41.701-145.415-97.83-75.38-70.036-103.714-127.24-107.99-141.674V257.55c60.945-25.129 208.498-63.083 253.405-63.083 44.378 0 192.459 37.954 253.404 63.083v111.73l90.889 26.731V219.597c.006-6.947-2.666-16.038-9.62-20.847" opacity=".15"/><path fill="#fff" d="M848.034 367.684V175.753c0-8.016-3.206-19.245-11.763-24.588l-10.694-6.954C770.517 108.401 565.22 55.472 500 55.472c-65.226 0-270.517 52.93-325.577 88.74l-9.085 5.884c-6.419 4.275-13.366 12.297-13.366 21.916v438.916c0 38.489 48.648 124.034 138.462 207.429 81.264 75.385 180.169 125.642 209.572 125.642 29.404 0 128.302-50.257 209.572-125.642 83.936-78.051 137.928-159.315 137.928-207.429V439.316H547.573l49.188 98.37h152.368v71.105c-3.212 13.36-28.87 65.22-106.927 137.393-64.685 59.876-127.245 89.814-142.743 96.76-15.503-6.946-78.057-36.89-142.743-96.76-72.173-66.83-101.042-122.424-106.926-139.003V215.85c60.41-24.06 204.756-62.013 249.129-62.013s189.253 37.419 249.135 62.013v122.424z"/><g fill="#1d1d1b" opacity=".15"><path d="M464.178 571.906h8.55v14.434h2.143l11.763-14.434h10.16v.534l-14.435 17.641 15.503 19.785v.534h-10.16l-12.296-16.038h-1.603V610.4h-9.625zM502.138 571.906h13.894c8.562 0 14.44 2.672 14.44 12.825 0 5.878-3.212 9.09-5.878 11.228 3.747 3.213 8.016 11.229 8.55 13.9v.535h-9.619c-.54-2.144-3.747-9.09-6.953-11.228h-5.344v11.228h-8.556v-38.488zm12.297 19.785c4.803 0 6.947-1.61 6.947-6.42 0-4.803-2.138-5.343-6.947-5.343h-3.747v11.769h3.747zM535.288 592.76v-3.748c0-11.228 8.016-17.647 19.244-17.647 3.753 0 8.022.54 10.694 1.61v11.228h-8.016v-4.81c-.54 0-2.678-.534-3.747-.534-5.884 0-9.09 3.747-9.09 9.625v4.275c0 5.879 3.206 10.16 9.09 10.16h2.138c2.684 0 6.953-1.075 8.556-1.61h.54v7.488c-1.074.534-5.884 1.603-9.096 1.603h-2.138c-11.228 0-18.175-5.884-18.175-17.64M366.348 668.139v-8.016c0-25.129 19.25-35.823 41.7-35.823 8.022 0 16.573 1.07 24.595 4.276v15.497h-.535c-8.022-2.672-17.64-4.275-24.594-4.275-12.831 0-21.916 7.481-21.916 20.319v8.015c0 11.763 8.022 20.32 19.779 20.32h4.275c1.603 0 5.878-.535 7.481-1.075v-12.298h-11.228v-15.503h27.8v39.563c-4.275 1.603-13.9 4.275-23.525 4.275h-4.275c-24.054.54-39.557-12.284-39.557-35.275M448.14 682.033v-57.198h50.791v15.503h-32.61v15.504h29.404v15.503H466.32v7.481c0 6.413 1.603 9.091 8.022 9.091h26.198v15.504h-32.61c-13.372-.535-19.791-8.557-19.791-21.388M514.963 624.835h16.578l29.404 46.51v-46.51h18.175v78.586h-16.572l-29.404-46.51v46.51h-18.181zM595.158 624.835h18.181v29.938h4.275l23.526-29.938h20.313v1.069l-29.932 35.822 32.075 40.632v1.069h-21.381l-25.663-33.15h-3.74v33.15H594.63v-78.592Z"/></g><g fill="#e9e9e9"><path d="M848.034 610.935V439.316h-299.92l49.188 98.37H749.67v71.105c-3.213 13.36-28.87 65.22-106.92 137.393-64.692 59.882-127.247 89.82-142.75 96.767v101.048c29.404 0 128.302-50.257 209.572-125.642 83.93-78.045 138.462-159.31 138.462-207.422M749.67 215.85v122.424l98.364 28.87V175.752c0-8.016-3.206-19.245-11.763-24.588l-10.694-6.954C770.517 108.401 565.22 55.472 500 55.472v98.365c44.907.534 189.253 37.953 249.67 62.013"/></g><g fill="#fff"><path d="M450.812 556.402h8.556v14.429h2.138l11.762-14.429h10.16v.535l-14.435 17.64 15.504 19.785v.535h-10.16l-12.297-16.038h-1.603v16.038h-8.55v-38.488h-1.075zM488.772 556.402h13.9c8.55 0 14.435 2.672 14.435 12.826 0 5.878-3.213 9.09-5.879 11.234 3.741 3.207 8.022 11.229 8.557 13.894v.535h-9.625c-.535-2.138-3.747-9.091-6.954-11.229h-5.344v11.229h-8.55v-38.489zm12.297 19.245c4.815 0 6.953-1.604 6.953-6.413s-2.138-5.344-6.953-5.344h-3.74v11.763h3.74zM521.382 577.256v-3.747c0-11.228 8.022-17.64 19.25-17.64 3.74 0 8.016.533 10.694 1.602V568.7h-8.022v-4.81c-.535 0-2.672-.534-3.74-.534-5.885 0-9.092 3.747-9.092 9.625v4.275c0 5.878 3.207 10.16 9.091 10.16h2.138c2.672 0 6.947-1.07 8.556-1.61h.534v7.488c-1.075.534-5.884 1.603-9.09 1.603h-2.138c-11.222-.006-18.181-6.419-18.181-17.641M352.982 652.1v-8.021c0-25.122 19.244-35.823 41.7-35.823 8.023 0 16.573 1.075 24.595 4.276v15.503h-1.069c-8.022-2.672-17.64-4.275-24.594-4.275-12.832 0-21.922 7.481-21.922 20.313v8.022c0 11.762 8.022 20.319 19.784 20.319h4.275c1.604 0 5.885-.535 7.488-1.069v-12.297h-11.228v-15.503h27.8v39.563c-4.275 1.603-13.9 4.275-23.525 4.275h-4.275c-24.06.534-39.029-11.763-39.029-35.282M434.24 666.001v-57.204h50.785V624.3h-32.61v15.504h29.403v15.503h-29.403v7.482c0 6.412 1.603 9.09 8.022 9.09h26.197v15.498h-32.616c-12.825 0-19.778-8.016-19.778-21.376M501.603 608.797h16.572l29.391 46.51v-46.51h18.188v78.58h-16.572l-29.404-46.504v46.504h-18.175zM581.264 608.797h18.181v29.932h4.275l23.52-29.932h20.319v1.069l-29.938 35.822 32.075 40.626v1.069h-21.381l-25.657-33.138h-3.747v33.138h-18.175v-78.586Z"/></g><g fill="#e9e9e9"><path d="M509.625 594.362h9.625v-.534c-.534-2.678-4.81-10.694-8.556-13.9 3.206-2.138 5.878-4.81 5.878-11.228 0-10.16-5.344-12.826-14.434-12.826H500v7.482h.534c4.81 0 6.947.534 6.947 5.344 0 4.809-2.137 6.412-6.947 6.412H500v7.482h2.672c3.212 2.143 6.419 9.63 6.953 11.768M540.098 594.89h2.137c3.206 0 8.022-1.068 9.09-1.603V585.8h-.534c-1.603.54-5.884 1.61-8.556 1.61h-2.137c-5.885 0-9.091-4.276-9.091-10.16v-4.275c0-5.879 3.206-9.626 9.09-9.626.535 0 3.207 0 3.741.535v4.81h8.022v-11.229c-2.672-1.069-6.953-1.603-10.694-1.603-11.228 0-19.25 6.413-19.25 17.64v3.748c-.534 11.228 6.425 17.64 18.182 17.64M519.25 640.873l29.398 46.504h16.572v-78.58h-18.175v46.51l-29.398-46.51h-16.044v78.58h17.647ZM599.445 608.797h-18.181v78.58h18.181v-33.139h3.735l25.663 33.139h21.388v-1.07l-32.082-40.625 29.938-35.816v-1.069h-20.313l-24.06 29.932h-4.269Z"/></g></svg>