<?xml version="1.0" encoding="iso-8859-1"?>
<!-- Generator: Adobe Illustrator 24.0.1, SVG Export Plug-In . SVG Version: 6.00 Build 0)  -->
<svg version="1.1" id="Layer_1" xmlns="http://www.w3.org/2000/svg" xmlns:xlink="http://www.w3.org/1999/xlink" x="0px" y="0px"
	 viewBox="0 0 660 660" style="enable-background:new 0 0 660 660;" xml:space="preserve">
<path style="fill:#034EA2;" d="M12.665,155.327v194.681l129.625-27.437l26.637-21.714l65.166-41.124l19.216-0.249l17.838,16.145
	l41.33,51.213l3.506,6.776l-1.876,5.94l-4.855,1.374l-57.203-21.265l-21.99,19.947l9.406,6.705l76.68,7.902l158.276,25.612
	l-0.785,5.649l-84.307-0.353l-178.471,7.212L46.973,475.789v29.741l0,0c0,15.999,13.062,29.062,29.061,29.062l0,0h543.067l0,0
	c15.997,0,29.06-13.063,29.06-29.062l0,0V155.327l0,0c0-15.998-13.063-29.06-29.06-29.06l0,0H41.725l0,0
	C25.749,126.266,12.665,139.354,12.665,155.327L12.665,155.327z"/>
<path style="fill:#E97724;" d="M619.071,155.327l0.029,350.535l0,0c-71.628,0-543.398,0.145-543.398-0.331
	c0-4.733-0.001-12.597-0.004-22.851l0,0l140.724-73.565l264.988-14.268l16.659,18.181l5.814-0.897l-11.425-41.444l-164.813-47.813
	l-32.384-52.997l-48.497-48.633l-40.305-28.125l-21.303,13.154l19.435,18.75l-9.124,5.76l-19.763-18.688l-20.879,12.891
	l20.669,18.385l-9.228,5.816l-21.476-18.06l-21.66,13.371l22.022,17.959l-8.581,5.446l-22.038-18.099l-24.387,15.122l23.03,13.941
	l12.381,4.405l6.948,5.47l0.233,6.59l-48.523,12.347l-42.836,3.075l-0.016-155.397L619.071,155.327L619.071,155.327z"/>
</svg>
