<?xml version="1.0" encoding="utf-8"?>
<!-- Generator: Adobe Illustrator 15.0.0, SVG Export Plug-In . SVG Version: 6.00 Build 0)  -->
<!DOCTYPE svg PUBLIC "-//W3C//DTD SVG 1.1//EN" "http://www.w3.org/Graphics/SVG/1.1/DTD/svg11.dtd">
<svg version="1.1" id="Layer_1" xmlns="http://www.w3.org/2000/svg" xmlns:xlink="http://www.w3.org/1999/xlink" x="0px" y="0px"
	 width="500px" height="500px" viewBox="0 0 500 500" enable-background="new 0 0 500 500" xml:space="preserve">
<path fill="#274E9B" d="M250,0c138.071,0,250,111.929,250,250c0,138.07-111.929,250-250,250C111.929,500,0,388.07,0,250
	C0,111.929,111.929,0,250,0"/>
<path fill="#F2BE37" d="M250,21.31c-30.882,0-60.83,6.044-89.01,17.963c-27.229,11.518-51.688,28.01-72.698,49.019
	c-21.009,21.01-37.501,45.469-49.019,72.698C27.354,189.17,21.311,219.118,21.311,250s6.043,60.83,17.963,89.01
	c11.517,27.229,28.009,51.688,49.019,72.698c21.01,21.009,45.469,37.501,72.698,49.018c28.18,11.92,58.128,17.963,89.01,17.963
	c30.882,0,60.83-6.043,89.01-17.963c27.229-11.517,51.688-28.009,72.698-49.018c21.009-21.01,37.501-45.47,49.018-72.698
	c11.92-28.18,17.963-58.127,17.963-89.01s-6.043-60.83-17.963-89.01c-11.517-27.229-28.009-51.688-49.018-72.698
	c-21.01-21.009-45.469-37.501-72.698-49.019C310.83,27.354,280.882,21.31,250,21.31L250,21.31z"/>
<path fill="#FFFFFF" d="M453.075,301.522l-43.589-36.695c-2.527-2.114-6.463-4.613-10.983-4.613c-1.541,0-2.991,0.307-4.312,0.86
	c2.924-11.612,4.485-23.759,4.485-36.266c0-7.179-0.522-14.236-1.509-21.145c1.723,0.86,3.592,1.437,5.582,1.716
	c0.854,0.129,1.738,0.192,2.698,0.192c0.515,0,1.047-0.019,1.625-0.056c0.22-0.014,0.439-0.035,0.657-0.064
	c1.059-0.138,2.195-0.34,3.48-0.621c0.082-0.018,0.165-0.037,0.247-0.057c2.02-0.495,3.944-1.242,5.883-2.285
	c2.365-1.272,4.271-2.857,5.825-4.847c1.672-2.144,2.783-4.603,3.311-7.315c0.036-0.181,0.066-0.361,0.091-0.542
	c0.349-2.513,0.157-5.158-0.587-8.083l-2.08-8.309c-0.586-2.335-1.935-4.278-3.714-5.63c0.593-2.135,0.499-4.454-0.383-6.604
	l-2.408-5.863c-1.131-2.756-3.385-4.816-6.102-5.756c0.179-1.368,0.213-2.74,0.055-4.104c-0.002-0.028-0.006-0.057-0.01-0.085
	c-0.136-1.094-0.374-2.014-0.516-2.562c-0.046-0.177-0.097-0.353-0.152-0.527c-0.551-1.735-1.278-3.326-2.221-4.859l-4.332-7.34
	c-0.535-0.907-1.199-1.688-1.94-2.36c-0.331-1.146-0.853-2.24-1.575-3.22l-6.794-9.216c-0.018-0.024-0.036-0.048-0.055-0.072
	l-2.516-3.35c-0.753-1.004-1.659-1.83-2.66-2.469c-0.419-0.929-0.977-1.799-1.667-2.574l-3.904-4.398
	c-1.333-1.504-3.017-2.508-4.816-3.022c-0.886-1.876-2.275-3.874-4.44-5.798l-5.664-5.18c-0.012-0.012-0.025-0.023-0.038-0.035
	l-1.445-1.309c-1.948-1.765-4.396-2.638-6.839-2.638c-2.69,0-5.373,1.06-7.372,3.152l-1.232,1.29l0.934-4.566
	c0.857-4.198-1.001-8.485-4.655-10.727l-5.458-3.35c-1.641-1.007-3.489-1.505-5.331-1.505c-2.146,0-4.285,0.675-6.083,2.014
	l-1.445,1.075c0.326-1.817,0.167-3.704-0.507-5.457c-0.979-2.545-2.938-4.592-5.438-5.683l-5.402-2.357
	c-1.327-0.579-2.71-0.852-4.07-0.852c-3.883,0-7.586,2.229-9.29,5.989l-2.168,4.785c-0.9-0.722-1.931-1.305-3.073-1.692l0.904-3.814
	c0.627-2.647,0.17-5.435-1.27-7.744s-3.743-3.945-6.396-4.546l-5.778-1.31c-0.757-0.171-1.516-0.254-2.261-0.254
	c-1.39,0-2.738,0.292-3.976,0.819c-2.346-1.553-5.479-2.874-9.608-3.361l-0.13-0.016c-0.478-0.06-1.178-0.146-2.024-0.16
	c-0.279-0.01-0.557-0.015-0.83-0.015c-3.541,0-6.751,0.793-9.588,2.346c-2.056-1.532-5.25-3.071-9.795-3.071
	c-0.182,0-0.366,0.002-0.552,0.008l-2.396,0.051l-8.559,0.104c-1.276,0.015-2.523,0.278-3.685,0.746
	c-0.604-0.112-1.223-0.173-1.852-0.173c-0.572,0-1.151,0.048-1.734,0.148l-17.708,3.036c-1.036,0.179-2.025,0.517-2.943,0.99
	c-0.641,0.038-1.284,0.118-1.929,0.284l-5.724,1.466c-1.114,0.285-2.16,0.754-3.1,1.376c-0.225-0.015-0.45-0.022-0.677-0.022
	c-0.865,0-1.743,0.111-2.619,0.343l-5.724,1.518c-1.667,0.442-3.176,1.298-4.404,2.464c-0.951,0.117-1.901,0.362-2.824,0.763
	l-13.375,5.811c-2.508,1.09-4.474,3.143-5.454,5.697c-0.245,0.638-0.423,1.295-0.536,1.96c-1.214-0.488-2.507-0.753-3.813-0.753
	c-1.985,0-3.988,0.578-5.746,1.78l-10.486,7.173c-0.035,0.023-0.069,0.047-0.103,0.071l-2.46,1.727
	c-1.945,1.367-3.259,3.291-3.894,5.404c-0.375,0.096-0.749,0.197-1.118,0.318c-0.048,0.015-0.095,0.031-0.143,0.047
	c-2.366,0.812-4.665,2.237-7.028,4.356c-0.023,0.021-0.046,0.042-0.069,0.062l-6.42,5.865c-2.022,1.847-3.216,4.431-3.312,7.168
	c-0.052,1.479,0.23,2.934,0.789,4.274c-0.17-0.005-0.338-0.02-0.509-0.02c-0.001,0-0.001,0-0.002,0c-0.936,0-1.882,0.09-2.814,0.27
	c-1.259,0.228-2.203,0.594-2.67,0.776c-0.065,0.025-0.145,0.057-0.209,0.083c-2.753,1.135-5.133,3.034-7.074,5.644
	c-0.048,0.064-0.095,0.129-0.142,0.195l-0.898,1.27l-5.443,7.344c-0.738,0.996-1.269,2.11-1.602,3.279
	c-1.122,0.86-2.085,1.962-2.792,3.292l-2.729,5.131c-0.498,0.936-0.841,1.933-1.028,2.957c-0.792,0.733-1.48,1.605-2.025,2.604
	l-2.121,3.891l-0.618,1.11c-1.356,2.438-1.654,5.326-0.824,7.989c-2.025,1.067-3.707,2.814-4.654,5.09l-2.247,5.394
	c-0.901,2.164-1.019,4.56-0.365,6.787c-1.856,2.204-3.218,4.975-4.061,8.276c-1.802,7.051,0.051,12.168,1.934,15.229
	c1.845,3.031,5.553,6.975,12.757,8.712c1.966,0.481,3.912,0.726,5.783,0.726c0.814,0,1.624-0.046,2.408-0.138
	c0.328-0.039,0.654-0.093,0.977-0.163l0.746-0.162l0.7-0.152c0.366-0.08,0.728-0.18,1.083-0.299
	c0.857-0.288,1.676-0.622,2.456-0.996c-0.994,6.932-1.52,14.013-1.52,21.217c0,12.506,1.561,24.654,4.485,36.267
	c-1.321-0.554-2.771-0.861-4.312-0.861c-4.521,0-8.457,2.499-10.963,4.597l-43.583,36.689c-7.844,6.657-5.284,15.538-4.166,19.367
	c5.505,19.528,14.085,39.125,26.979,61.6c0.416,1.397,0.902,2.729,1.374,3.99c2.005,5.472,5.689,10.875,11.264,16.518
	c4.27,4.371,9.756,8.976,16.773,14.077c0.051,0.037,0.102,0.074,0.154,0.11l0.704,0.487c1.419,0.984,3.081,1.485,4.75,1.485
	c1.239,0,2.483-0.276,3.637-0.835c1.58-0.767,2.848-1.995,3.667-3.482c1.161-0.479,2.189-1.213,3.016-2.13
	c1.401-0.321,2.708-1,3.786-1.99c20.837,13.702,41.643,24.32,61.94,31.604c23.232,8.337,46.505,12.564,69.172,12.564
	c22.668,0,45.942-4.227,69.173-12.564c20.297-7.285,41.104-17.903,61.94-31.604c1.077,0.99,2.384,1.669,3.785,1.99
	c0.828,0.917,1.856,1.651,3.015,2.13c0.819,1.486,2.086,2.715,3.666,3.481c1.154,0.56,2.399,0.836,3.639,0.836
	c1.67,0,3.331-0.5,4.75-1.485l0.704-0.487c0.051-0.036,0.103-0.073,0.153-0.11c7.017-5.1,12.503-9.706,16.773-14.077
	c5.579-5.648,9.265-11.054,11.269-16.529c0.468-1.254,0.953-2.579,1.369-3.978c12.892-22.476,21.474-42.074,26.979-61.6
	C458.331,317.042,460.894,308.159,453.075,301.522z"/>
<path fill="#274E9B" d="M341.67,251.037l-14.253-12.515c5.437-7.331,9.862-15.452,13.059-24.158l49.841,12.086
	c0.006-0.547,0.021-1.092,0.021-1.641c0-77.335-63.058-140.394-140.339-140.394c-77.281,0-140.339,63.059-140.339,140.394
	c0,0.549,0.015,1.094,0.021,1.642l49.841-12.087c3.198,8.704,7.623,16.826,13.061,24.155l-14.255,12.518
	c5.895-23.092-2.271-30.501-12.492-27.905l-35.973,9.198c1.039,19.494,6.095,37.947,14.344,54.556l49.623-46.726
	c6.159,7.945,13.53,14.907,21.833,20.605l-8.564,12.66c-2.217-17.738-12.816-22.173-19.414-15.845l-39.065,37.504
	c7.556,12.974,17.134,24.634,28.296,34.551l40.736-67.54c8.184,5.325,17.22,9.439,26.854,12.093l-5.825,20.979
	c-4.759-23.038-19.36-22.173-24.66-13.089l-30.805,52.845c12.407,9.795,26.494,17.548,41.749,22.74l22.246-82.772
	c7.319,1.789,14.958,2.743,22.816,2.743c7.837,0,15.458-0.952,22.761-2.735l22.244,82.765c15.253-5.192,29.342-12.946,41.747-22.742
	l-30.805-52.843c-5.3-9.084-19.9-9.949-24.659,13.089l-5.821-20.97c9.634-2.653,18.671-6.769,26.856-12.095l40.73,67.531
	c11.162-9.917,20.741-21.576,28.296-34.55l-39.064-37.504c-6.598-6.328-17.197-1.893-19.415,15.845l-8.559-12.653
	c8.302-5.699,15.671-12.663,21.83-20.61l49.62,46.723c8.249-16.609,13.306-35.064,14.344-54.556l-35.973-9.198
	C343.94,220.536,335.774,227.945,341.67,251.037z"/>
<path fill="#274E9B" d="M249.999,287.055c-11.357,0-18.445,2-19.797,7.625l-15.494,65.903c11.283,2.94,23.11,4.509,35.292,4.509
	c12.182,0,24.009-1.569,35.292-4.509l-15.495-65.903C268.445,289.056,261.356,287.055,249.999,287.055z"/>
<polygon fill="#274E9B" points="159.198,98.854 157.059,95.817 164.602,90.688 162.355,87.545 154.811,92.676 153.046,90.267 
	161.177,84.666 158.823,81.42 148.337,88.593 145.878,90.32 148.337,93.829 156.845,105.66 170.059,96.603 167.544,93.094 "/>
<path fill="#274E9B" d="M148.337,101.473c-0.213-0.315-0.48-0.576-0.747-0.891c-0.911-0.89-1.873-1.676-2.89-2.303
	c-1.016-0.629-2.086-1.047-3.209-1.205c-0.321-0.052-0.643-0.052-1.016-0.052c-0.75,0-1.499,0.104-2.3,0.366
	c-1.071,0.368-2.248,1.152-3.532,2.304l-6.419,5.864l12.251,12.88l0.803,0.837l6.419-5.864c0.214-0.209,0.427-0.418,0.641-0.68
	c0.536-0.576,1.072-1.256,1.605-2.042c0.482-0.838,0.803-1.78,0.91-2.88c0.054-1.099-0.107-2.199-0.536-3.298
	C149.997,103.565,149.301,102.571,148.337,101.473z M145.342,109.168c-0.214,0.575-0.75,1.257-1.659,2.043l-1.07,0.994l-2.14-2.251
	l-4.976-5.235l1.07-0.996c1.124-0.995,2.193-1.466,3.21-1.36c0.213,0,0.48,0.053,0.695,0.157c0.856,0.314,1.766,1.046,2.834,2.146
	c1.07,1.101,1.712,1.99,1.98,2.671C145.503,108.016,145.557,108.645,145.342,109.168z"/>
<polygon fill="#274E9B" points="187.927,75.031 181.132,77.964 179.795,74.979 187.713,71.524 186.054,67.859 172.68,73.671 
	180.491,90.791 185.893,88.436 182.738,81.42 189.478,78.487 "/>
<path fill="#274E9B" d="M102.008,180.425c-0.803-0.943-1.818-1.78-3.156-2.409l-2.782,4.555c1.124,0.524,1.926,1.153,2.408,1.833
	s0.589,1.57,0.268,2.67c-0.268,1.1-0.856,1.884-1.765,2.303c-0.375,0.156-0.75,0.21-1.286,0.262
	c-0.854,0.052-1.925-0.052-3.209-0.419c-1.658-0.366-2.835-0.942-3.477-1.624c-0.857-0.942-1.124-2.042-0.804-3.297
	c0.161-0.576,0.375-1.048,0.749-1.467c0.322-0.419,0.803-0.681,1.284-0.89c0.321-0.158,0.803-0.209,1.392-0.262l0.161-5.236
	c-2.14,0.157-3.853,0.786-5.135,1.885c-1.284,1.047-2.194,2.723-2.782,5.027c-0.749,2.931-0.482,5.392,0.748,7.382
	c1.231,2.042,3.424,3.403,6.475,4.136c1.711,0.42,3.263,0.524,4.599,0.368c0.483-0.105,0.964-0.21,1.445-0.315
	c1.713-0.576,2.997-1.413,3.905-2.513c0.91-1.1,1.606-2.67,2.087-4.607c0.428-1.623,0.535-3.036,0.32-4.241
	C103.239,182.415,102.758,181.367,102.008,180.425z"/>
<path fill="#274E9B" d="M128.705,124.927c-0.963-0.679-1.979-0.994-2.997-0.941c-1.017,0.053-2.032,0.471-3.049,1.309
	c-0.054,0.053-0.106,0.053-0.106,0.105c0-0.105,0.053-0.262,0.106-0.368c0.16-0.732,0.16-1.413,0.054-1.989
	c-0.054-0.106-0.054-0.209-0.054-0.262c-0.32-0.942-0.856-1.675-1.712-2.251c-1.069-0.785-2.3-1.048-3.584-0.785
	c-0.321,0.052-0.589,0.157-0.857,0.261c-1.016,0.419-1.925,1.152-2.782,2.303l-0.963,1.362l-5.51,7.434l5.51,3.875l3.745,2.67
	l6.153,4.398l0.054,0.053l5.992-8.064c0.267-0.366,0.749-1.099,1.391-2.25c0.48-0.891,0.748-1.623,0.803-2.146
	c0.107-0.943-0.055-1.78-0.429-2.618C130.096,126.235,129.507,125.504,128.705,124.927z M118.325,128.645l-1.498,2.042l-0.322-0.262
	l-2.621-1.832l1.551-2.096c0.322-0.471,0.696-0.837,1.07-1.046c0.107-0.052,0.268-0.104,0.429-0.157c0.428-0.105,0.91,0,1.337,0.314
	c0.482,0.366,0.749,0.784,0.802,1.256C119.128,127.335,118.86,127.912,118.325,128.645z M124.691,132.624l-1.765,2.357l-0.268-0.157
	l-2.889-2.042l1.767-2.409c0.374-0.523,0.748-0.89,1.123-1.099c0.16-0.157,0.375-0.262,0.589-0.313c0.481-0.105,1.017,0,1.443,0.313
	c0.482,0.367,0.749,0.786,0.803,1.309C125.548,131.158,125.28,131.786,124.691,132.624z"/>
<polygon fill="#274E9B" points="103.453,169.587 95.694,166.55 90.079,164.299 87.832,169.692 95.694,172.781 105.593,176.708 
	111.264,162.938 106.93,161.209 "/>
<path fill="#274E9B" d="M209.593,60.477l-5.724,1.466l2.995,11.046c0.322,1.047,0.215,1.886-0.161,2.566
	c-0.427,0.681-1.123,1.151-2.086,1.413c-1.015,0.263-1.871,0.21-2.566-0.21c-0.696-0.418-1.23-1.097-1.499-2.093l-2.996-11.046
	l-5.724,1.517l2.942,10.786c0.268,0.889,0.695,1.833,1.391,2.931c0.429,0.629,1.017,1.205,1.766,1.728
	c0.802,0.524,1.604,0.89,2.408,1.048c0.802,0.208,1.766,0.208,2.888,0.052c1.069-0.157,2.086-0.367,2.996-0.576
	c1.552-0.419,2.835-0.995,3.799-1.675c0.749-0.472,1.391-1.204,1.925-2.095c0.481-0.889,0.803-1.884,0.91-2.931
	c0.054-0.995-0.054-2.095-0.321-3.143L209.593,60.477z"/>
<path fill="#274E9B" d="M116.506,143.723c-0.053-0.052-0.107-0.104-0.16-0.156c-0.695-0.733-1.55-1.414-2.567-1.938l-1.018-0.523
	l-9.094-4.712l-2.729,5.13l10.271,5.341c0.696,0.367,1.23,0.786,1.551,1.309c0.108,0.209,0.162,0.366,0.215,0.576
	c0.268,0.733,0.16,1.518-0.215,2.304c-0.052,0.053-0.106,0.105-0.106,0.157c-0.481,0.891-1.122,1.468-1.926,1.676
	c-0.803,0.262-1.658,0.106-2.568-0.367l-10.325-5.34l-2.141,3.928l-0.64,1.151l0.64,0.314l9.47,4.922
	c0.803,0.471,1.873,0.785,3.104,1.047c0.749,0.157,1.605,0.104,2.514-0.105c0.75-0.157,1.391-0.366,1.979-0.681
	c0.162-0.104,0.322-0.208,0.483-0.315c0.695-0.47,1.337-1.097,1.978-2.041c0.481-0.628,0.91-1.31,1.284-1.937
	c0.107-0.21,0.214-0.418,0.322-0.576c0.749-1.413,1.178-2.67,1.338-3.875c0.16-0.838,0.053-1.78-0.268-2.775
	C117.63,145.295,117.148,144.456,116.506,143.723z"/>
<path fill="#274E9B" d="M416.097,184.195l-2.085-8.325l-7.598,1.833l-5.458,1.361l-5.562,1.361l2.139,8.324
	c0.267,0.996,0.695,2.095,1.391,3.247c0.428,0.785,1.124,1.519,2.032,2.094l0.056,0.053c0.961,0.627,2.031,0.995,3.208,1.153
	c0.643,0.104,1.39,0.104,2.194,0.052c0.802-0.104,1.659-0.262,2.621-0.472c1.284-0.314,2.406-0.785,3.477-1.36
	c1.072-0.576,1.927-1.257,2.624-2.147c0.694-0.89,1.123-1.885,1.336-2.984C416.631,187.231,416.524,185.87,416.097,184.195z
	 M411.283,187.336c-0.589,0.786-1.82,1.413-3.8,1.885c-0.375,0.105-0.748,0.157-1.069,0.261c-0.965,0.158-1.713,0.209-2.248,0.105
	c-0.749-0.105-1.339-0.367-1.711-0.786c-0.375-0.471-0.749-1.256-1.017-2.46l-0.374-1.361l5.35-1.309l4.815-1.152l0.32,1.414
	C411.925,185.397,411.868,186.499,411.283,187.336z"/>
<path fill="#274E9B" d="M269.565,56.446c-0.428-0.052-0.802-0.105-1.177-0.105c-2.569-0.104-4.654,0.471-6.368,1.78
	c-1.924,1.467-3.101,3.719-3.477,6.755c-0.267,2.198-0.054,4.031,0.642,5.602c0.695,1.57,1.66,2.722,2.997,3.56
	c1.336,0.838,3.048,1.415,5.189,1.676c0.375,0.052,0.696,0.052,1.016,0.052c1.66,0.105,3.156-0.104,4.441-0.576
	c1.498-0.627,2.728-1.57,3.638-2.879c0.908-1.309,1.498-3.038,1.764-5.184c0.375-3.036-0.161-5.445-1.658-7.329
	C275.075,57.964,272.722,56.812,269.565,56.446z M272.4,66.341c-0.267,2.042-0.802,3.455-1.604,4.189
	c-0.644,0.576-1.446,0.89-2.409,0.89c-0.213,0-0.428,0-0.642-0.053c-1.23-0.158-2.194-0.68-2.782-1.571
	c-0.588-0.89-0.802-2.304-0.536-4.188c0.214-1.886,0.75-3.195,1.552-3.928c0.695-0.627,1.498-0.89,2.408-0.942
	c0.213,0,0.428,0.053,0.588,0.053c1.285,0.157,2.195,0.68,2.835,1.57C272.4,63.251,272.614,64.561,272.4,66.341z"/>
<path fill="#274E9B" d="M333.976,80.896l-12.946,9.686l-0.64,0.472l0.64,0.418l4.496,2.723l2.462-2.146l5.723,3.508l-0.91,3.089
	l1.176,0.732l4.121,2.513l4.012-19.634l-5.458-3.35L333.976,80.896z M334.835,91.472l-0.859-0.524l-2.727-1.675l2.727-2.303
	l2.729-2.303L334.835,91.472z"/>
<polygon fill="#274E9B" points="321.671,86.55 321.029,86.289 313.274,82.885 319.103,70.006 313.701,67.649 305.945,84.77 
	319.747,90.791 321.029,88.017 "/>
<path fill="#274E9B" d="M363.242,111.733c1.604,0,3.047-0.681,4.384-2.094c1.285-1.361,1.872-2.722,1.819-4.188
	c-0.107-1.413-0.908-2.88-2.514-4.293l-5.724-5.235l-1.445-1.31l-13.053,13.666l4.333,3.98l4.868-5.08l2.355,2.146
	c1.016,0.942,1.979,1.624,2.942,1.99C361.903,111.577,362.599,111.733,363.242,111.733z M359.603,105.398l-1.07-0.995l2.676-2.827
	l0.212-0.208l1.231,1.099c0.857,0.734,1.231,1.413,1.231,1.988c0,0.524-0.16,1.048-0.588,1.467c-0.428,0.471-0.91,0.681-1.551,0.628
	c-0.162,0-0.323-0.053-0.535-0.104C360.726,106.288,360.191,105.922,359.603,105.398z"/>
<polygon fill="#274E9B" points="374.582,131.158 377.631,129.011 383.034,136.289 385.604,134.509 386.191,134.037 385.604,133.2 
	380.788,126.759 383.249,124.98 385.604,128.121 389.08,132.886 392.398,130.53 385.604,121.313 383.088,117.964 373.458,124.823 
	367.575,128.96 373.458,136.865 377.096,141.733 380.574,139.272 "/>
<polygon fill="#274E9B" points="290.163,60.373 284.384,59.063 280.105,77.335 294.87,80.687 295.886,76.183 286.899,74.143 "/>
<polygon fill="#274E9B" points="231.367,56.34 213.659,59.377 214.461,63.985 220.4,62.938 222.915,76.811 228.746,75.817 
	226.231,61.943 232.169,60.896 "/>
<polygon fill="#274E9B" points="379.289,113.566 375.385,109.168 373.458,110.843 361.208,121.211 360.94,121.472 361.208,121.734 
	364.846,125.817 373.458,118.54 "/>
<path fill="#274E9B" d="M406.414,168.54l3.959-3.508l-2.408-5.865h-1.552l-5.458,0.157l-13.427,0.315l2.247,5.497l3.262-0.314
	l2.516,6.126l-2.568,1.99l2.301,5.602l5.67-5.026L406.414,168.54z M398.923,168.278l-1.55-3.822l3.583-0.313l3.586-0.314
	l-3.586,2.88L398.923,168.278z"/>
<path fill="#274E9B" d="M250.894,64.3c0.91-0.314,1.605-0.733,2.033-1.257c0.698-0.837,1.017-1.78,1.017-2.879
	c0-1.309-0.534-2.409-1.551-3.298c-1.017-0.89-2.408-1.31-4.28-1.257l-2.461,0.053l-8.613,0.104l0.375,18.744l8.238-0.104
	l1.925-0.053c0.481,0,1.338-0.105,2.676-0.315c1.014-0.157,1.764-0.366,2.246-0.627c0.802-0.472,1.391-1.1,1.819-1.886
	c0.481-0.785,0.695-1.676,0.695-2.618c-0.054-1.204-0.375-2.2-1.07-2.985C253.301,65.136,252.285,64.613,250.894,64.3z
	 M243.083,59.482l2.568-0.053h0.053c0.909,0,1.499,0.157,1.872,0.419c0.375,0.314,0.589,0.732,0.589,1.308
	c0,0.577-0.161,0.995-0.536,1.31c-0.32,0.367-0.962,0.524-1.926,0.524h-0.053l-2.515,0.052L243.083,59.482z M248.433,69.796
	c-0.375,0.367-1.123,0.524-2.14,0.524l-0.642,0.052h-2.354l-0.053-3.77l2.407-0.052h0.588c1.016,0,1.765,0.156,2.141,0.472
	c0.428,0.313,0.641,0.784,0.695,1.308C249.075,68.959,248.862,69.43,248.433,69.796z"/>
<path fill="#274E9B" d="M391.434,156.55c1.231-0.156,2.727-0.732,4.494-1.727c1.124-0.629,2.086-1.361,2.942-2.199
	c0.857-0.837,1.5-1.78,1.926-2.827c0.053-0.106,0.107-0.262,0.16-0.419c0.267-0.891,0.375-1.832,0.267-2.775
	c-0.051-0.418-0.158-0.838-0.267-1.256c-0.266-0.839-0.642-1.728-1.229-2.67l-4.387-7.435l-9.736,5.498l-6.848,3.873l4.385,7.436
	c0.536,0.89,1.285,1.78,2.249,2.723c0.053,0.104,0.106,0.158,0.215,0.209c0.642,0.576,1.443,0.994,2.407,1.309
	C389.08,156.603,390.202,156.708,391.434,156.55z M386.191,148.697l-0.587-1.046l-0.109-0.158l0.109-0.052l8.932-5.079l0.75,1.256
	c0.75,1.309,0.964,2.409,0.643,3.351c-0.321,0.89-1.339,1.884-3.104,2.879c-1.336,0.734-2.354,1.153-3.103,1.258
	c-0.748,0.052-1.337-0.053-1.818-0.367C387.368,150.424,386.832,149.745,386.191,148.697z"/>
<path fill="#274E9B" d="M447.679,307.879l-43.563-36.673c-3.309-2.767-7.595-4.231-8.41,0c-0.266,1.412-0.541,2.816-0.823,4.217
	c-19.243,56.565-76.721,102.662-144.883,102.662c-68.164,0-125.64-46.097-144.883-102.662c-0.282-1.401-0.558-2.805-0.823-4.217
	c-0.815-4.231-5.103-2.767-8.41,0l-43.564,36.673c-3.581,3.039-2.661,6.784-1.52,10.689c6.014,21.352,15.55,41.297,26.71,60.646
	c0.382,1.473,0.924,2.955,1.446,4.347c1.683,4.612,4.991,9.117,9.386,13.564c4.341,4.449,9.764,8.843,15.734,13.184l0.704,0.487
	l0.054-0.867l0.164-2.713l3.47-0.109h0.435v-2.983l3.798,0.378l0.542,0.055l-0.054-0.543l-0.054-3.037l3.473,1.085l0.16,0.054
	l0.435,0.107v-0.596l0.083-2.055c44.238,30.407,88.476,46.954,132.712,46.954c44.238,0,88.475-16.547,132.712-46.954l0.083,2.055
	v0.596l0.436-0.107l0.161-0.054l3.472-1.085l-0.054,3.037l-0.055,0.543l0.544-0.055l3.797-0.378v2.983h0.435l3.47,0.109l0.165,2.713
	l0.053,0.867l0.704-0.487c5.971-4.34,11.393-8.735,15.734-13.184c4.395-4.447,7.704-8.952,9.387-13.564
	c0.521-1.393,1.063-2.874,1.445-4.347c11.16-19.349,20.696-39.294,26.71-60.646C450.339,314.664,451.259,310.918,447.679,307.879z"
	/>
<path fill="#FFF200" d="M388.582,370.026c4.967-5.868,8.495-12.751,9.202-17.848l-3.403-2.967
	c-0.893,5.639-4.514,13.036-9.182,18.588c-4.093,4.876-9.564,10.059-17.684,16.746c0.048,0.825,0.139,2.516,0.17,3.044
	c0.595-0.146,2.653-0.652,3.186-0.784C376.459,382.185,383.452,376.149,388.582,370.026z"/>
<path fill="#FFF200" d="M383.917,366.716c4.586-5.417,8.374-13.269,9.093-18.698l-2.749-2.401
	c-0.886,5.74-4.488,13.237-9.132,18.819c-3.918,4.666-9.157,8.885-14.707,13.352l-3.504,2.838c0.078,0.953,0.256,3.11,0.304,3.688
	c0.631-0.187,2.78-0.828,3.12-0.93C371.907,378.779,378.829,372.792,383.917,366.716z"/>
<path fill="#FFF200" d="M379.846,363.355c4.563-5.453,8.335-13.406,9.046-18.934l-2.356-2.053c-1.012,6.2-5.849,13.822-9.909,18.703
	c-4.249,5.06-9.944,9.74-15.975,14.695l-2.259,1.859c0.023,0.813,0.063,2.332,0.08,2.879c0.621-0.197,2.582-0.813,3.162-0.994
	l3.638-2.945C370.792,372.13,376.006,367.939,379.846,363.355z"/>
<path fill="#FFF200" d="M367.262,354.079c4.425-5.291,7.68-9.528,8.49-14.57c-0.616,0.166-1.24,0.381-1.875,0.642
	c-0.745,7.511-20.677,27.152-25.992,29.592c-0.083,0.611-0.209,1.565-0.279,2.085c0.767-0.27,2.519-0.884,2.519-0.884l0.143-0.049
	C356.459,365.767,362.323,359.969,367.262,354.079z"/>
<path fill="#FFF200" d="M371.595,341.455c-4.597,5.975-9.297,11.436-13.977,16.221c-4.053,4.105-8.093,7.693-12.04,10.736
	c0.739-0.071,1.484-0.144,1.484-0.144l0.068-0.007C351.996,365.536,369.563,348.13,371.595,341.455z"/>
<path fill="#FFF200" d="M392.435,373.283c4.521-5.344,8.019-12.636,8.757-18.131l-2.047-1.784
	c-0.87,5.255-4.246,11.757-9.279,17.739c-5.046,6.083-11.833,11.939-17.87,16.902c0,1.116,0,2.556,0,3.043
	c0.416-0.152,1.649-0.603,2.64-0.962C382.847,383.351,388.346,378.16,392.435,373.283z"/>
<path fill="#FFF200" d="M375.345,359.993c4.278-5.117,9.046-13.029,9.809-18.773c-0.656-0.487-1.343-0.908-2.085-1.261
	c-0.047-0.02-0.096-0.034-0.146-0.056c-0.785,6.163-5.985,13.479-10.312,18.62c-4.066,4.844-9.499,9.995-17.533,16.621
	c-0.048,0.614-0.132,1.628-0.177,2.18c0.739-0.318,2.303-0.999,2.303-0.999l0.271-0.111l1.369-1.122
	C365.105,369.98,371.021,365.153,375.345,359.993z"/>
<path fill="#FFF200" d="M371.331,357.442c2.797-3.309,9.208-11.502,10.123-18.037c-0.931-0.245-1.876-0.367-2.831-0.333
	c-0.426,0.01-0.861,0.05-1.3,0.114c-0.547,5.689-3.699,9.864-8.78,15.973c-4.928,5.872-10.917,11.783-17.336,17.136
	c-0.011,0.712-0.029,1.914-0.037,2.44c0.731-0.249,2.862-0.97,2.862-0.97l0.145-0.048
	C362.03,367.24,367.349,362.191,371.331,357.442z"/>
<path fill="#FFF200" d="M408.925,386.087c4.994-5.97,7.884-11.79,8.39-16.868l-2.678-2.335c-0.702,5.315-3.574,11.003-8.554,16.922
	c-4.204,4.959-9.908,10.352-17.928,16.95c-0.011,0.626-0.032,1.886-0.04,2.353c0.559-0.055,2.521-0.254,3.133-0.316
	C397.254,397.817,403.993,391.973,408.925,386.087z"/>
<path fill="#FFF200" d="M404.803,382.722c5.049-6.022,7.962-11.908,8.451-17.045l-2.807-2.449
	c-0.819,5.249-3.984,11.41-8.866,17.159c-4.135,4.925-9.771,10.278-17.691,16.808c0.031,0.79,0.105,2.682,0.13,3.279
	c0.64-0.198,2.657-0.818,3.014-0.928C393.393,394.244,399.926,388.544,404.803,382.722z"/>
<path fill="#FFF200" d="M396.275,407.128c0.024,0.34,0.056,0.823,0.085,1.218c6.013-4.386,10.738-8.349,14.374-12.081
	c4.599-4.714,7.572-9.019,9.086-13.164c0.387-1.002,0.787-2.089,1.124-3.184c-1.415,3.261-3.645,6.674-6.776,10.397
	C409.193,396.24,402.646,401.892,396.275,407.128z"/>
<path fill="#FFF200" d="M400.301,379.361c4.894-5.844,8.124-12.245,8.776-17.328l-2.788-2.435c-0.821,5.519-4.2,12.446-8.884,18.076
	c-4.965,5.915-11.619,11.71-17.588,16.666c0.011,0.851,0.029,2.313,0.038,2.881c0.593-0.238,2.098-0.844,2.668-1.072
	C388.551,391.155,395.34,385.279,400.301,379.361z"/>
<path fill="#FFF200" d="M396.123,376.594c4.686-5.602,8.146-12.805,8.789-18.196l-2.353-2.053
	c-0.888,5.659-4.235,12.54-8.844,18.019c-5.001,5.958-11.708,11.79-17.706,16.762c0,1.038,0,2.295,0,2.75
	c0.713-0.259,2.642-0.958,2.642-0.958l0.458-0.167C386.885,386.331,392.167,381.313,396.123,376.594z"/>
<path fill="#FFF200" d="M418.707,370.434c-0.668,5.186-3.455,10.671-8.498,16.734c-5.029,5.991-11.789,11.856-17.815,16.852
	c0,0.718,0,1.515,0,1.799c0.463,0.017,2.121,0.069,2.773,0.089c6.328-5.279,12.885-10.904,17.72-16.674
	c5.013-5.926,7.702-11.281,8.221-16.357c-0.26-0.464-0.598-0.876-1.018-1.238L418.707,370.434z"/>
<path fill="#FFF200" d="M111.416,370.026c-4.966-5.868-8.494-12.751-9.201-17.848l3.403-2.967
	c0.893,5.639,4.513,13.036,9.182,18.588c4.092,4.876,9.564,10.059,17.683,16.746c-0.047,0.825-0.138,2.516-0.168,3.044
	c-0.596-0.146-2.654-0.652-3.188-0.784C123.538,382.185,116.546,376.149,111.416,370.026z"/>
<path fill="#FFF200" d="M116.083,366.716c-4.586-5.417-8.376-13.269-9.095-18.698l2.749-2.401c0.886,5.74,4.487,13.237,9.132,18.819
	c3.919,4.666,9.159,8.885,14.707,13.352l3.505,2.838c-0.079,0.953-0.257,3.11-0.304,3.688c-0.631-0.187-2.779-0.828-3.119-0.93
	C128.092,378.779,121.17,372.792,116.083,366.716z"/>
<path fill="#FFF200" d="M120.152,363.355c-4.563-5.453-8.335-13.406-9.046-18.934l2.356-2.053c1.012,6.2,5.849,13.822,9.908,18.703
	c4.25,5.06,9.944,9.74,15.976,14.695l2.259,1.859c-0.023,0.813-0.064,2.332-0.08,2.879c-0.62-0.197-2.582-0.813-3.161-0.994
	l-3.639-2.945C129.205,372.13,123.992,367.939,120.152,363.355z"/>
<path fill="#FFF200" d="M132.737,354.079c-4.425-5.291-7.68-9.528-8.49-14.57c0.615,0.166,1.24,0.381,1.875,0.642
	c0.744,7.511,20.676,27.152,25.992,29.592c0.083,0.611,0.208,1.565,0.278,2.085c-0.765-0.27-2.519-0.884-2.519-0.884l-0.142-0.049
	C143.54,365.767,137.675,359.969,132.737,354.079z"/>
<path fill="#FFF200" d="M128.403,341.455c4.597,5.975,9.297,11.436,13.977,16.221c4.053,4.105,8.093,7.693,12.04,10.736
	c-0.739-0.071-1.484-0.144-1.484-0.144l-0.069-0.007C148.002,365.536,130.435,348.13,128.403,341.455z"/>
<path fill="#FFF200" d="M107.563,373.283c-4.521-5.344-8.019-12.636-8.757-18.131l2.046-1.784c0.87,5.255,4.247,11.757,9.279,17.739
	c5.049,6.083,11.833,11.939,17.87,16.902c0,1.116,0,2.556,0,3.043c-0.416-0.152-1.649-0.603-2.64-0.962
	C117.15,383.351,111.652,378.16,107.563,373.283z"/>
<path fill="#FFF200" d="M124.654,359.993c-4.279-5.117-9.046-13.029-9.81-18.773c0.655-0.487,1.343-0.908,2.086-1.261
	c0.047-0.02,0.095-0.034,0.144-0.056c0.786,6.163,5.986,13.479,10.313,18.62c4.066,4.844,9.499,9.995,17.532,16.621
	c0.048,0.614,0.132,1.628,0.177,2.18c-0.737-0.318-2.302-0.999-2.302-0.999l-0.271-0.111l-1.37-1.122
	C134.894,369.98,128.979,365.153,124.654,359.993z"/>
<path fill="#FFF200" d="M128.667,357.442c-2.797-3.309-9.206-11.502-10.123-18.037c0.932-0.245,1.877-0.367,2.83-0.333
	c0.427,0.01,0.862,0.05,1.301,0.114c0.546,5.689,3.7,9.864,8.78,15.973c4.928,5.872,10.916,11.783,17.335,17.136
	c0.011,0.712,0.029,1.914,0.038,2.44c-0.732-0.249-2.862-0.97-2.862-0.97l-0.145-0.048
	C137.968,367.24,132.648,362.191,128.667,357.442z"/>
<path fill="#FFF200" d="M91.073,386.087c-4.994-5.97-7.884-11.79-8.39-16.868l2.678-2.335c0.702,5.315,3.574,11.003,8.554,16.922
	c4.204,4.959,9.908,10.352,17.929,16.95c0.011,0.626,0.032,1.886,0.04,2.353c-0.559-0.055-2.521-0.254-3.133-0.316
	C102.745,397.817,96.005,391.973,91.073,386.087z"/>
<path fill="#FFF200" d="M95.195,382.722c-5.049-6.022-7.961-11.908-8.451-17.045l2.807-2.449c0.819,5.249,3.983,11.41,8.866,17.159
	c4.135,4.925,9.77,10.278,17.691,16.808c-0.031,0.79-0.106,2.682-0.13,3.279c-0.641-0.198-2.657-0.818-3.016-0.928
	C106.607,394.244,100.072,388.544,95.195,382.722z"/>
<path fill="#FFF200" d="M103.723,407.128c-0.023,0.34-0.056,0.823-0.084,1.218c-6.014-4.386-10.738-8.349-14.375-12.081
	c-4.6-4.714-7.571-9.019-9.086-13.164c-0.387-1.002-0.789-2.089-1.125-3.184c1.415,3.261,3.646,6.674,6.776,10.397
	C90.804,396.24,97.352,401.892,103.723,407.128z"/>
<path fill="#FFF200" d="M99.698,379.361c-4.896-5.844-8.125-12.245-8.776-17.328l2.788-2.435c0.821,5.519,4.199,12.446,8.883,18.076
	c4.966,5.915,11.619,11.71,17.589,16.666c-0.012,0.851-0.03,2.313-0.038,2.881c-0.593-0.238-2.099-0.844-2.669-1.072
	C111.446,391.155,104.659,385.279,99.698,379.361z"/>
<path fill="#FFF200" d="M103.875,376.594c-4.687-5.602-8.147-12.805-8.789-18.196l2.353-2.053c0.887,5.659,4.234,12.54,8.844,18.019
	c5.001,5.958,11.708,11.79,17.706,16.762c0,1.038,0,2.295,0,2.75c-0.713-0.259-2.64-0.958-2.64-0.958l-0.459-0.167
	C113.112,386.331,107.831,381.313,103.875,376.594z"/>
<path fill="#FFF200" d="M81.292,370.434c0.667,5.186,3.455,10.671,8.498,16.734c5.028,5.991,11.789,11.856,17.815,16.852
	c0,0.718,0,1.515,0,1.799c-0.464,0.017-2.122,0.069-2.774,0.089c-6.328-5.279-12.885-10.904-17.72-16.674
	c-5.012-5.926-7.702-11.281-8.22-16.357c0.26-0.464,0.597-0.876,1.018-1.238L81.292,370.434z"/>
<path fill="#FFFFFF" d="M250.026,272.074c49.972,0,90.746-40.776,90.746-90.746c0-50.024-40.774-90.801-90.746-90.801
	c-50.022,0-90.8,40.777-90.8,90.801C159.226,231.298,200.003,272.074,250.026,272.074z"/>
<path fill="#274E9B" d="M250.024,95.145c-47.481,0.004-86.178,38.699-86.18,86.183c0.002,47.43,38.699,86.124,86.18,86.128
	c47.43-0.004,86.126-38.698,86.13-86.128C336.15,133.844,297.455,95.149,250.024,95.145z"/>
<polygon fill="#F2BE37" points="303.811,221.775 284.85,226.502 272.583,209.619 285.634,171.461 304.753,165.249 317.314,180.218 
	"/>
<polygon fill="#F2BE37" points="271.872,244.982 228.177,244.982 217.821,228.41 230.098,211.512 269.95,211.512 282.227,228.408 
	"/>
<polygon fill="#F2BE37" points="196.237,221.775 182.733,180.217 195.293,165.249 214.413,171.46 227.464,209.619 215.197,226.503 
	"/>
<polygon fill="#F2BE37" points="230.284,116.987 248.402,124.307 248.402,144.592 215.404,168.373 196.296,162.164 194.934,142.671 
	"/>
<polygon fill="#F2BE37" points="269.764,116.988 305.115,142.671 303.75,162.165 284.643,168.374 251.646,144.594 251.646,124.307 
	"/>
<path fill="#F2BE37" d="M191.691,142.786l1.4,20.042l-12.914,15.391l-14.398-0.443c0.662-15.871,5.74-30.626,14.039-43.071
	L191.691,142.786z"/>
<path fill="#F2BE37" d="M319.87,178.22l-12.916-15.392l1.402-20.042l11.841-8.06c8.287,12.441,13.359,27.188,14.022,43.05
	L319.87,178.22z"/>
<path fill="#F2BE37" d="M272.68,100.107l-4.028,13.832l-18.627,7.526l-18.631-7.527l-4.029-13.835
	c7.214-2.02,14.813-3.103,22.659-3.103C257.869,96.999,265.466,98.084,272.68,100.107z"/>
<path fill="#F2BE37" d="M184.018,233.667l11.325-8.772l19.496,4.862l10.648,17.038l-4.855,13.508
	c-11.434-4.272-21.708-10.958-30.19-19.437C188.166,238.591,186.023,236.186,184.018,233.667z"/>
<path fill="#F2BE37" d="M309.563,240.867c-8.474,8.473-18.732,15.155-30.15,19.428l-4.851-13.501l10.647-17.039l19.494-4.86
	l11.298,8.751C313.993,236.173,311.844,238.586,309.563,240.867z"/>
<polygon fill="#F2BE37" points="152.951,185.33 140.675,185.33 137.051,174.838 133.428,185.33 121.152,185.33 131.103,191.928 
	127.371,202.366 137.051,195.984 146.732,202.366 143,191.928 "/>
<polygon fill="#F2BE37" points="347.047,185.33 359.323,185.33 362.946,174.838 366.57,185.33 378.846,185.33 368.895,191.928 
	372.627,202.366 362.946,195.984 353.266,202.366 356.998,191.928 "/>
<polygon fill="#F2BE37" points="228.244,174.075 245.042,174.075 249.998,159.718 254.957,174.075 271.754,174.075 258.137,183.103 
	263.245,197.384 249.998,188.651 236.753,197.384 241.859,183.103 "/>
<path fill="#F2BE37" d="M226.246,330.59c0.648-0.703,1.297-1.732,2-2.977l-0.325,25.582l4.219,0.379l0.542-39.101l-3.462-0.324
	c-0.486,2.377-1.136,4.38-1.947,5.948c-0.812,1.569-1.947,2.866-3.353,3.948l-0.163,8.707
	C224.786,332.049,225.596,331.346,226.246,330.59z"/>
<path fill="#F2BE37" d="M267.779,330.914c0.596-0.866,1.243-1.947,1.947-3.354l0.325,25.635l4.271-0.377l-0.541-39.102l-3.462,0.271
	c-0.431,2.485-1.026,4.542-1.783,6.271c-0.757,1.731-1.838,3.246-3.245,4.545l0.106,8.706
	C266.319,332.644,267.13,331.833,267.779,330.914z"/>
<path fill="#F2BE37" d="M263.021,340.108c0-3.57-0.487-6.491-1.462-8.762c-0.971-2.216-2.214-3.354-3.729-3.3
	c-0.434,0.054-0.866,0.217-1.353,0.488c-0.433,0.324-0.865,0.756-1.298,1.353l0.325-5.788l6.706-0.323l-0.054-8.545l-9.951,0.433
	l-1.134,20.712l3.568,1.19c0.326-0.972,0.596-1.678,0.921-2.057c0.324-0.54,0.702-0.81,1.081-0.81
	c0.651-0.054,1.191,0.485,1.569,1.513c0.379,1.083,0.594,2.759,0.594,5.032c0,2.27-0.162,3.946-0.541,5.081
	c-0.379,1.137-0.866,1.732-1.406,1.788c-0.54,0-0.973-0.433-1.353-1.299c-0.378-0.92-0.594-2.216-0.703-3.948l-4.271,1.406
	c0.215,1.785,0.485,3.243,0.81,4.488c0.324,1.135,0.756,2.216,1.242,3.137c0.487,0.975,1.137,1.623,1.84,2.109
	c0.703,0.433,1.513,0.648,2.488,0.594c1.406-0.054,2.542-0.702,3.408-1.946c0.864-1.241,1.567-3.028,2.054-5.354
	C262.803,344.976,263.021,342.596,263.021,340.108z"/>
<path fill="#F2BE37" d="M242.577,354.925c2.055-0.054,3.624-1.675,4.76-4.867c1.136-3.245,1.677-8.327,1.677-15.251
	c0-4.76-0.271-8.49-0.813-11.356c-0.541-2.92-1.243-5.031-2.163-6.329c-0.866-1.241-2.001-1.891-3.462-2c-0.053,0-0.107,0-0.215,0
	c-1.244,0-2.272,0.542-3.083,1.622c-0.865,1.082-1.513,2.65-2.001,4.759c-0.433,2.108-0.703,4.435-0.703,7.031
	c0,3.677,0.488,6.759,1.407,9.248c0.919,2.433,2.056,3.677,3.407,3.677c0.433,0,0.865-0.16,1.189-0.378
	c0.271-0.162,0.488-0.324,0.649-0.54c0.542-0.649,1.083-1.624,1.568-2.921c-0.163,4.164-0.378,6.869-0.649,8.113
	c-0.377,1.729-0.864,2.595-1.568,2.595c-0.378,0-0.702-0.271-0.918-0.92c-0.271-0.594-0.488-1.623-0.595-3.136l-4.164,1.352
	c0.271,2.056,0.596,3.732,1.082,5.138c0.433,1.352,1.027,2.379,1.73,3.082c0.703,0.703,1.623,1.082,2.813,1.082
	C242.577,354.925,242.577,354.925,242.577,354.925z M244.037,333.131c-0.378,1.136-0.865,1.676-1.46,1.676
	c-0.594,0-1.027-0.54-1.459-1.676c-0.379-1.137-0.541-2.812-0.541-4.922c0-2.107,0.162-3.731,0.541-4.813
	c0.378-1.026,0.812-1.568,1.406-1.568h0.053c0.596,0.054,1.029,0.649,1.46,1.784c0.379,1.137,0.594,2.813,0.594,4.869
	C244.631,330.482,244.416,332.049,244.037,333.131z"/>
<path fill="#F2BE37" d="M179.432,382.83c-0.865-0.916-2.217-1.674-3.948-2.378l-2.542-0.973l-6.922-2.651l-3.894,33.26l5.679,2.218
	l1.567-13.521l0.541,0.217c0.487,0.163,0.92,0.595,1.298,1.299c0.27,0.486,0.487,1.513,0.704,2.918l1.026,6.329l0.812,5.029
	l6.435,2.488l-1.622-10.707c-0.054-0.542-0.271-1.353-0.542-2.38c-0.27-1.027-0.54-1.731-0.703-2.11
	c-0.27-0.485-0.702-1.135-1.351-1.784c0.919,0,1.622-0.216,2.163-0.542c0.864-0.54,1.567-1.405,2.164-2.541
	c0.594-1.189,1.027-2.704,1.244-4.543c0.216-2.108,0.162-4.056-0.217-5.732C180.892,385.048,180.298,383.75,179.432,382.83z
	 M175.7,391.052c-0.054,0.758-0.271,1.351-0.541,1.837c-0.324,0.435-0.648,0.65-1.081,0.65c-0.487,0-0.866,0-1.136,0
	c-0.162-0.053-0.325-0.053-0.433-0.107l-2.379-0.921l0.811-6.76l2.001,0.757l0.487,0.216c1.027,0.378,1.73,0.919,2,1.676
	C175.754,389.104,175.863,389.97,175.7,391.052z"/>
<polygon fill="#F2BE37" points="268.664,420.849 268.449,414.198 277.481,413.332 277.264,406.411 268.287,407.276 268.124,401.867 
	277.858,400.95 277.642,393.701 262.066,395.16 263.041,429.125 278.886,427.609 278.67,419.931 "/>
<polygon fill="#F2BE37" points="181.92,418.417 197.604,422.904 198.251,415.333 188.355,412.466 188.95,405.869 197.874,408.413 
	198.468,401.542 189.544,399.001 189.978,393.647 199.604,396.404 200.253,389.266 184.894,384.831 "/>
<path fill="#F2BE37" d="M315.39,388.347c-1.569-2.108-3.57-3.029-5.947-2.757c-0.542,0.053-1.029,0.162-1.569,0.271
	c-3.03,0.864-5.247,3.082-6.652,6.596c-0.487,1.299-0.919,2.65-1.137,4.166c-0.486,2.703-0.595,5.838-0.271,9.408
	c0.054,0.758,0.164,1.569,0.271,2.272c0.379,2.867,0.974,5.245,1.84,7.137c1.081,2.381,2.38,3.949,3.839,4.76
	c1.081,0.594,2.273,0.811,3.68,0.702c0.538-0.054,1.079-0.217,1.674-0.376c2.055-0.595,3.732-1.786,4.976-3.57
	c1.297-1.785,2.164-4.057,2.651-6.76c0.539-2.705,0.593-6.057,0.269-9.95C318.525,394.837,317.337,390.835,315.39,388.347z
	 M312.956,409.818c-0.54,1.675-1.459,2.648-2.704,3.028c-0.271,0.053-0.542,0.108-0.809,0.108c-0.866-0.055-1.569-0.541-2.218-1.515
	c-0.813-1.297-1.407-3.623-1.677-7.031c-0.325-3.404-0.163-5.948,0.378-7.625c0.594-1.73,1.459-2.705,2.596-3.028
	c0.325-0.109,0.596-0.164,0.921-0.109c0.809,0,1.512,0.541,2.161,1.459c0.812,1.244,1.407,3.461,1.677,6.653
	C313.604,405.492,313.497,408.195,312.956,409.818z"/>
<path fill="#F2BE37" d="M230.809,394.35c-0.163,0-0.326,0-0.487,0c-2.812-0.108-5.083,1.19-6.813,3.949
	c-1.785,2.92-2.759,7.192-2.921,12.708c-0.108,4.001,0.217,7.354,1.028,10.057c0.756,2.706,1.838,4.76,3.19,6.111
	c1.352,1.353,3.083,2.11,5.192,2.326c0.107,0,0.216,0,0.325,0c1.946,0.161,3.624-0.432,4.976-1.621
	c1.406-1.299,2.541-3.138,3.353-5.626c0.811-2.488,1.297-5.677,1.406-9.68c0.162-5.461-0.595-9.789-2.163-12.978
	C236.271,396.404,233.945,394.674,230.809,394.35z M234.27,411.925c-0.108,3.787-0.541,6.384-1.243,7.788
	c-0.704,1.299-1.569,1.95-2.705,1.95c-0.109,0-0.163,0-0.27-0.057c-1.19-0.108-2.164-0.92-2.813-2.487
	c-0.648-1.567-0.919-4.056-0.864-7.518c0.107-3.46,0.54-5.894,1.297-7.3c0.703-1.352,1.569-2.001,2.65-2.001
	c0.055,0,0.161,0,0.216,0c1.243,0.108,2.164,0.973,2.867,2.488C234.053,406.357,234.377,408.681,234.27,411.925z"/>
<path fill="#F2BE37" d="M297.112,414.25c-0.163-0.486-0.435-1.135-0.921-1.945c-0.431-0.813-0.812-1.351-1.027-1.623
	c-0.324-0.325-0.865-0.649-1.568-0.919c0.866-0.542,1.514-1.135,1.947-1.732c0.701-1.025,1.297-2.216,1.624-3.677
	c0.377-1.46,0.487-3.082,0.377-4.973c-0.108-2.165-0.486-3.95-1.19-5.302c-0.649-1.405-1.458-2.27-2.432-2.649
	c-0.975-0.378-2.382-0.378-4.166-0.052l-0.702,0.106l-8.922,1.731l2,33.799l5.785-1.081l-0.81-13.737l0.541-0.107
	c0.486-0.109,0.973,0.053,1.406,0.485c0.055,0,0.055,0.055,0.055,0.055c0.323,0.325,0.702,1.135,1.188,2.379l3.68,9.734l6.108-1.135
	l0.434-0.11l-0.434-1.188L297.112,414.25z M291.539,403.327c-0.215,0.649-0.485,1.027-0.864,1.244
	c-0.758,0.487-1.243,0.703-1.513,0.756h-0.108l-2.326,0.488l-0.377-6.867l2.542-0.488c0.054-0.054,0.108-0.054,0.162-0.054
	c0.972-0.161,1.622,0,2.054,0.486c0.378,0.541,0.649,1.354,0.703,2.436C291.863,402.029,291.756,402.732,291.539,403.327z"/>
<path fill="#F2BE37" d="M213.448,392.186l-3.19-0.594l-7.625-1.458l-1.948,33.854l9.573,1.785l0.378,0.108
	c0.432,0.054,1.298,0.054,2.649,0c0.974-0.054,1.731-0.271,2.218-0.704c0.866-0.649,1.514-1.623,2.055-2.975
	c0.541-1.298,0.865-2.812,0.974-4.597c0.108-2.109-0.109-4.002-0.649-5.516c-0.541-1.568-1.514-2.758-2.812-3.569
	c0.92-0.378,1.623-1.028,2.163-1.894c0.758-1.298,1.19-2.92,1.353-4.92c0.107-2.381-0.271-4.489-1.135-6.274
	C216.586,393.592,215.233,392.567,213.448,392.186z M212.8,415.333c-0.054,1.083-0.325,1.894-0.757,2.489
	c-0.378,0.487-0.974,0.649-1.785,0.596c-0.107,0-0.271-0.055-0.379-0.055l-2.974-0.541l0.432-6.867l2.921,0.539
	c1.027,0.216,1.676,0.649,2.054,1.354C212.692,413.495,212.854,414.36,212.8,415.333z M212.8,402.192
	c-0.054,1.026-0.271,1.838-0.648,2.326c-0.379,0.487-1.028,0.649-1.893,0.487h-0.055l-2.488-0.487l0.379-6.436l2.164,0.432
	l0.378,0.054c0.865,0.164,1.46,0.596,1.785,1.19C212.746,400.407,212.854,401.22,212.8,402.192z"/>
<path fill="#F2BE37" d="M254.009,420.795c-0.595,1.136-1.406,1.677-2.542,1.677s-2.055-0.703-2.65-2.108
	c-0.649-1.352-0.974-3.948-0.974-7.734c0-3.028,0.271-5.299,0.812-6.707c0.703-1.893,1.677-2.865,3.028-2.865
	c0.596,0,1.081,0.215,1.568,0.648c0.487,0.433,0.865,1.028,1.189,1.838c0.218,0.486,0.379,1.245,0.542,2.271l5.083-2.055
	c-0.647-3.569-1.622-6.22-3.028-7.95c-1.298-1.784-3.136-2.651-5.515-2.651c-3.029,0-5.354,1.516-7.031,4.544
	c-1.623,3.027-2.488,7.354-2.488,12.977c0,4.222,0.487,7.683,1.46,10.385c0.92,2.705,2.055,4.597,3.353,5.679
	c1.245,1.08,2.921,1.621,4.976,1.621c1.676,0,3.082-0.431,4.163-1.296c1.028-0.919,1.948-2.217,2.706-3.948
	c0.703-1.731,1.244-3.893,1.622-6.437l-5.083-2.812C254.982,418.037,254.549,419.661,254.009,420.795z"/>
<path fill="#F2BE37" d="M337.726,398.406c-0.217-1.783-0.65-3.353-1.298-4.65c-0.649-1.245-1.568-2.164-2.76-2.759
	c-1.189-0.596-3.082-0.864-5.676-0.919c-1.083,0.055-1.731-0.108-2.057-0.487c-0.324-0.325-0.54-0.704-0.595-1.245
	c-0.108-0.757,0-1.406,0.271-2.054c0.271-0.65,0.758-1.083,1.407-1.353c0.811-0.27,1.458-0.163,2,0.324
	c0.541,0.487,0.972,1.46,1.297,2.922l5.301-2.652c-0.649-3.352-1.677-5.569-3.083-6.65c-1.46-1.137-3.301-1.245-5.679-0.323
	c-1.893,0.755-3.352,1.729-4.38,3.027c-0.973,1.297-1.676,2.812-2.055,4.544c-0.326,1.729-0.433,3.46-0.216,5.137
	c0.27,2.649,1.08,4.542,2.324,5.84c1.299,1.242,3.192,1.892,5.843,2c1.565,0,2.595,0.273,3.135,0.758
	c0.486,0.541,0.757,1.245,0.865,2.11c0.108,0.918,0,1.783-0.379,2.649c-0.323,0.866-0.918,1.405-1.729,1.731
	c-1.083,0.432-2,0.107-2.758-1.029c-0.432-0.702-0.812-1.838-1.135-3.352l-5.356,2.649c0.596,3.298,1.569,5.842,3.029,7.517
	c1.46,1.73,3.786,2.001,6.923,0.812c1.729-0.703,3.19-1.73,4.219-3.136c1.081-1.352,1.838-3.083,2.27-5.137
	C337.887,402.624,337.994,400.57,337.726,398.406z"/>
</svg>
