<svg enable-background="new 0 0 500 627.918" height="627.918" viewBox="0 0 500 627.918" width="500" xmlns="http://www.w3.org/2000/svg" xmlns:xlink="http://www.w3.org/1999/xlink"><defs><linearGradient id="a" gradientTransform="matrix(-.000015 246.4976 -246.4976 -.000015 22665.7656 50312.4453)" gradientUnits="userSpaceOnUse" x1="-203.2803" x2="-201.895" y1="91.1997" y2="91.1997"><stop offset="0" stop-color="#414143"/><stop offset=".0982" stop-color="#414143"/><stop offset=".1251" stop-color="#444446"/><stop offset=".5314" stop-color="#6a6a6c"/><stop offset=".8327" stop-color="#848587"/><stop offset=".9939" stop-color="#8f9093"/><stop offset="1" stop-color="#8f9093"/></linearGradient><linearGradient id="b" gradientTransform="matrix(-.000015 230.1323 -230.1323 -.000015 21262.3047 46983.5781)" gradientUnits="userSpaceOnUse" x1="-203.2588" x2="-201.874" y1="91.0283" y2="91.0283"><stop offset="0" stop-color="#414143"/><stop offset=".0982" stop-color="#414143"/><stop offset=".1251" stop-color="#444446"/><stop offset=".5314" stop-color="#6a6a6c"/><stop offset=".8327" stop-color="#848587"/><stop offset=".9939" stop-color="#8f9093"/><stop offset="1" stop-color="#8f9093"/></linearGradient><linearGradient id="c" gradientTransform="matrix(-.000015 232.334 -232.334 -.000015 21418.6523 47421.2969)" gradientUnits="userSpaceOnUse" x1="-203.2817" x2="-201.897" y1="91.1074" y2="91.1074"><stop offset="0" stop-color="#540f0f"/><stop offset=".0184" stop-color="#540f0f"/><stop offset=".1073" stop-color="#6c1717"/><stop offset=".2324" stop-color="#8c1d1e"/><stop offset=".3633" stop-color="#a92022"/><stop offset=".4995" stop-color="#c02024"/><stop offset=".6435" stop-color="#d22025"/><stop offset=".8003" stop-color="#dd1f26"/><stop offset=".9939" stop-color="#e21f26"/><stop offset="1" stop-color="#e21f26"/></linearGradient><linearGradient id="d" gradientTransform="matrix(-.000015 174.6675 -174.6675 -.000015 16157.0205 35707.2578)" gradientUnits="userSpaceOnUse" x1="-203.1611" x2="-201.7764" y1="90.9961" y2="90.9961"><stop offset="0" stop-color="#707063"/><stop offset=".1196" stop-color="#6b695b"/><stop offset=".3369" stop-color="#5c5748"/><stop offset=".625" stop-color="#443b2a"/><stop offset=".7791" stop-color="#362b18"/><stop offset="1" stop-color="#362b18"/></linearGradient><linearGradient id="e" gradientTransform="matrix(-.000015 275.667 -275.667 -.000015 25275.3398 56141.0078)" gradientUnits="userSpaceOnUse" x1="-203.4526" x2="-202.0674" y1="91.2974" y2="91.2974"><stop offset="0" stop-color="#707063"/><stop offset=".8528" stop-color="#362b18"/><stop offset="1" stop-color="#362b18"/></linearGradient><linearGradient id="f" gradientTransform="matrix(-.000015 274.0005 -274.0005 -.000015 25330.5449 55801.4688)" gradientUnits="userSpaceOnUse" x1="-203.4521" x2="-202.0669" y1="91.0049" y2="91.0049"><stop offset="0" stop-color="#707063"/><stop offset=".9325" stop-color="#362b18"/><stop offset="1" stop-color="#362b18"/></linearGradient></defs><path d="M 108.515 1.605 c 0 0 -39.612 72.235 -39.029 93.206 c .582 20.971 38.446 28.544 177.672 50.098 l 31.449 95.017 h 1.422 v -98.07 c 0 0 148.872 -9.817 150.258 -43.981 C 431.67 63.739 385.042 0 385.042 0 S 500 69.251 500 127.885 c 0 54.94 -110.341 71.098 -110.341 71.098 l 8.771 240.074 L 252.538 564.634 L 104.34 439.519 l 8.771 -246.076 c 0 0 -113.573 -11.079 -113.11 -64.633 C .462 75.253 88.221 13.369 108.515 1.605" fill="#fff"/><path d="M 85.522 27.613 c 0 0 -24.254 34.358 -24.758 66.19 c -.506 31.833 37.895 38.4 179.369 60.127 l 46.684 142.211 h 1.682 V 150.506 c 0 0 50.768 -7.815 88.316 -14.373 c 41.116 -7.183 95.485 -13.79 39.159 -105.202 c 0 0 69.251 53.093 74.33 91.874 c 5.079 38.781 -49.398 54.018 -111.265 68.791 l 10.156 242.844 L 252.078 552.63 L 114.036 435.362 l 9.234 -248.845 c 0 0 -109.28 -14.373 -114.036 -57.708 C 5.079 90.95 85.522 27.613 85.522 27.613"/><path d="M 134.31 207.148 L 127.225 204.315 L 118.252 434.282 L 252.361 545.724 L 252.361 525.892 L 125.81 429.56 Z" fill="url(#a)"/><path d="M 357.19 209.038 L 369.468 429.56 L 252.361 516.446 L 252.361 525.892 L 375.133 431.92 L 363.33 207.149 Z" fill="url(#b)"/><path d="M 336.565 198.52 c -29.549 138.042 22.159 224.375 22.159 224.375 l -70.176 47.093 c -6.003 -26.778 -69.252 -232.687 -69.252 -232.687 c 11.08 126.961 -10.156 228.53 -10.156 228.53 l -67.868 -41.088 c 0 0 31.396 -73.406 31.857 -157.895 c .293 -54.019 -13.389 -74.792 -13.389 -74.792 h -10.619 L 136.196 429.36 l 116.07 84.486 l 113.847 -84.026 l -12.927 -233.147 L 336.565 198.52 z" fill="url(#c)"/><path d="M 292.705 463.523 L 308.402 451.52 L 217.452 221.604 Z" fill="url(#d)"/><path d="M 190.673 166.202 c 0 0 -91.873 -16.159 -121.421 -23.083 c -29.548 -6.927 -51.248 -38.781 -7.388 -87.258 c 0 0 -42.935 36.473 -44.783 70.175 c -1.846 33.702 73.406 53.555 150.969 59.556 c 0 0 39.244 91.646 -18.582 237.421 l 24.122 14.656 C 173.591 437.67 214.681 322.25 190.673 166.202 z" fill="url(#e)"/><path d="M 439.058 55.399 c 33.241 39.243 29.549 77.101 -1.846 86.333 c -31.394 9.234 -126.039 24.932 -126.039 24.932 c -11.543 173.591 21.698 268.234 21.698 268.234 l 18.469 -11.541 c -51.71 -124.655 -16.16 -238.229 -16.16 -238.229 c 69.252 -8.309 146.814 -22.621 146.814 -58.171 C 481.994 91.41 439.058 55.399 439.058 55.399 z" fill="url(#f)"/><path d="M 250.259 568.356 l -4.658 10.26 v -10.35 l -100.827 -.061 v -.005 h -30.417 v 8.928 l -6.194 -8.928 H 76.65 v 58.269 h 30.418 v -9.01 l 6.202 8.901 h 31.503 v -.008 h 112.973 l 2.121 -4.502 h 8.99 l 2.121 4.502 h 33.717 l -24.01 -57.998 L 250.259 568.356 L 250.259 568.356 z M 192.531 598.337 v -4.844 l 5.445 -.033 L 192.531 598.337 z M 235.326 601.25 h -3.715 l 6.048 -5.137 L 235.326 601.25 z"/><path d="M 426.69 586.666 c -.172 -.786 -4.555 -19.235 -35.328 -19.235 c -9.463 0 -16.617 1.563 -21.995 4.127 v -3.354 h -58.332 l -.041 58.144 l 30.986 .033 v -16.795 h 14.16 c 3.639 9.875 13.187 18.334 35.222 18.334 c 30.773 0 35.157 -18.449 35.328 -19.235 l .177 -.803 v -20.41 L 426.69 586.666 z M 394.18 602.058 c 0 .04 -.002 .074 -.003 .106 c -.536 .285 -1.813 .615 -3.159 .615 l -.064 -.021 l -.322 .013 c -4.104 -.077 -4.104 -3.058 -4.104 -4.657 c 0 -1.622 0 -5.406 3.969 -5.536 l .14 .011 l .374 -.018 c 1.354 0 2.632 .327 3.168 .613 c .001 .03 .003 .066 .003 .105 L 394.18 602.058 L 394.18 602.058 z"/><path d="M 84.268 575.821 L 104.176 575.821 L 120.844 599.851 L 121.973 599.851 L 121.973 575.821 L 137.155 575.821 L 137.157 618.745 L 117.248 618.745 L 100.579 594.822 L 99.45 594.822 L 99.45 618.854 L 84.268 618.854 Z" fill="#fff"/><path d="M 275.596 575.974 h -20.43 l -17.487 38.522 v -5.628 h -24.15 v -2.251 l 24.454 -20.774 v -9.957 h -45.446 v 9.957 h 22.742 v 2.347 L 192.152 608.9 h -32.376 v -7.238 h 25.137 v -10.558 h -25.237 v -5.229 h 30.265 V 575.82 h -45.348 l -.059 42.915 h 108.38 l 2.12 -4.501 h 18.655 l 2.119 4.501 h 17.487 L 275.596 575.974 z M 258.309 604.021 l 5.192 -14.544 h 1.879 l 5.193 14.544 H 258.309 z" fill="#fff"/><path d="M 334.363 618.753 L 334.363 601.967 L 356.295 601.967 L 356.295 592.798 L 334.264 592.798 L 334.264 585.876 L 361.75 585.876 L 361.75 575.821 L 318.647 575.821 L 318.618 618.736 Z" fill="#fff"/><path d="M 390.66 584.958 c 0 0 11.137 -.524 11.137 8.333 h 17.452 v -4.999 c 0 0 -2.893 -13.243 -27.887 -13.243 c -24.995 0 -29.557 11.751 -29.557 22.625 c 0 10.875 4.562 22.626 29.557 22.626 c 24.994 0 27.887 -13.242 27.887 -13.242 v -5 h -17.452 c 0 8.856 -11.137 8.332 -11.137 8.332 s -11.751 .267 -11.751 -12.274 C 378.909 584.608 390.66 584.958 390.66 584.958" fill="#fff"/></svg>