<svg xmlns="http://www.w3.org/2000/svg" xml:space="preserve" viewBox="0 0 600 600"><path d="M90.721 7.206v273.502c0 149.599 215.682 242.295 215.682 242.295s215.682-92.696 215.682-242.295V7.206z" style="fill:#fff"/><path d="M522.085 1.698H85.215v279.01c0 62.931 38.027 125.727 109.97 181.598 53.853 41.822 108.499 65.523 109.043 65.758l2.175.934 2.176-.934c.546-.234 55.189-23.936 109.042-65.758 71.942-55.871 109.972-118.667 109.972-181.598V1.698zm-5.506 11.014v178.969H96.228V12.712zm-.091 271.849H96.32c-.034-1.285-.092-2.56-.092-3.853v-8.353h420.351v8.353c0 1.293-.058 2.568-.091 3.853M136.251 388.455h340.307a281 281 0 0 1-9.735 12.207H145.986a277 277 0 0 1-9.735-12.207m-7.841-11.013a231 231 0 0 1-7.67-12.203h371.327a230 230 0 0 1-7.671 12.203zm-13.662-23.219a189 189 0 0 1-5.651-12.209H503.71a186 186 0 0 1-5.651 12.209zm-9.854-23.219a165 165 0 0 1-3.685-12.21h410.39a164 164 0 0 1-3.685 12.21zm-6.162-23.221A151 151 0 0 1 97 295.574h418.809c-.42 4.116-.995 8.188-1.734 12.209zm-2.504-46.441v-12.208h420.351v12.208zm0-23.222v-12.206h420.351v12.206zm0-23.219v-12.207h420.351v12.207zm145.229 266.436h129.89a587 587 0 0 1-20.068 12.204h-89.751a588 588 0 0 1-20.071-12.204m-16.635-11.017a505 505 0 0 1-16.967-12.202h197.099a515 515 0 0 1-17.783 12.761v-.559zm-31.044-23.219a409 409 0 0 1-14.307-12.202h253.867a412 412 0 0 1-14.308 12.202zm112.625 69.873c-3.865-1.754-12.867-5.956-25.056-12.417h50.106c-12.186 6.461-21.185 10.663-25.05 12.417m138.727-93.092H167.674a343 343 0 0 1-11.942-12.206h301.345a344 344 0 0 1-11.947 12.206"/><path d="M133.083 7.206v37.169h21.569v138.128h39.923V7.206h-61.492M256.264 139.843c-5.031-4.519-11.318-6.9-18.191-6.9-7.046 0-13.39 2.431-18.346 7.028-5.229 4.863-7.984 11.16-7.984 18.217 0 7.117 2.841 13.388 8.215 18.135 4.938 4.348 11.197 6.639 18.115 6.639 6.87 0 13.118-2.268 18.071-6.557 5.483-4.765 8.373-11.059 8.373-18.217.001-7.14-2.853-13.484-8.253-18.345M278.213 7.206v175.298h41.761v-72.506h43.379V72.827h-43.379V44.375h47.269V7.206h-89.03M451.757 42.999c1.922 0 4.071.288 6.381.854 2.431.598 5.052 1.557 7.779 2.849l13.109 6.216V12.036l-5.701-2.333a64.4 64.4 0 0 0-11.89-3.558c-4.148-.818-8.568-1.234-13.142-1.234-21.469 0-37.997 8.354-49.115 24.83-10.496 15.549-15.605 37.278-15.605 66.427 0 28.571 4.81 49.646 14.693 64.435 10.53 15.751 26.444 23.738 47.305 23.738 5.021 0 9.891-.498 14.474-1.48 4.565-.98 9.151-2.52 13.634-4.578l5.349-2.456v-41.422l-13.386 6.903c-3.344 1.725-6.435 3.017-9.183 3.838-2.447.736-4.861 1.108-7.189 1.108-7.964 0-13.201-3.04-16.985-9.856-4.612-8.288-6.95-21.859-6.95-40.344 0-19.94 2.459-34.337 7.298-42.792 4.009-7.002 10.086-10.263 19.124-10.263M125.93 488.558c-3.047 1.641-5.474 2.201-8.851 1.978-5.965-.358-10.755-3.304-14.719-8.996-3.551-5.097-4.708-9.765-3.792-15.157 1.072-5.977 4.663-11.458 10.032-15.197 11.388-7.929 24.052-6.279 31.302 4.132 6.004 8.623 5.518 17.173-1.336 24.445l-4.986-7.158c3.497-3.885 3.68-8.362.546-12.861-4.268-6.127-12.786-6.798-20.215-1.624-3.743 2.602-6.274 6.138-7.258 10.043-.826 3.558-.252 6.458 2.013 9.712 3.021 4.337 7.243 5.665 12.431 3.746zm17.798-47.984 3.891 5.585-2.485 5.915 6.412-.273 3.852 5.531-9.449.536-5.892-8.458zM161.236 484.405l22.893 22.997-4.919 4.894-16.737-16.81-7.399 7.363 14.64 14.707-4.919 4.894-14.638-14.706-9.085 9.046 17.063 17.141-4.915 4.894-23.218-23.321zM211.576 542.511c1.808-4.26.551-7.431-4.277-10.553-4.051-2.615-7.862-2.564-9.621.158-1.04 1.607-1.048 3.571.019 5.201.564.837 1.235 1.746 2.146 2.648.951 1.086 2.309 2.517 4.15 4.412 4.241 4.395 5.964 6.845 6.754 9.641.887 3.008.275 6.389-1.592 9.275-4.265 6.602-13.621 7.325-22.279 1.732-9.38-6.063-12.247-14.287-7.741-22.233l7.047 4.556c-2.483 4.453-1.148 8.227 4.182 11.669 4.884 3.156 9.155 3.238 11.127.19.791-1.221.952-2.69.459-3.873-.325-.84-.904-1.768-1.669-2.652a96 96 0 0 0-4.621-5.27c-4.541-4.9-6.019-6.879-6.986-9.154-1.291-3.116-.849-6.846 1.123-9.894 4.376-6.773 12.831-7.679 21.101-2.338 5.494 3.551 8.503 7.541 9.135 12.039.331 2.654-.092 5.137-1.633 8.861zM236.102 588.544l-8.321-2.61 13.191-42.054 8.322 2.61-5.536 17.653 21.804-12.551 10.465 3.281-21.713 11.816 9.784 30.635-9.836-3.084-7.2-24.075-6.292 3.497zM299.438 584.657l6.084-19.756 6.139 19.762zm-1.986 6.407 16.125.006 2.973 9.384 9.051.003-14.924-44.08-9.712-.002-15.54 44.071 9.054.005zm8.072-47.045-3.04 8.06 5.286.006 6.544-8.061zM408.644 566.35l2.935 6.286-27.911 13.019-18.631-39.942 7.901-3.688 15.701 33.655zM413.002 518.572l25.623 35.865-7.097 5.071-25.625-35.864zm-3.798-12.474-.636 10.364-4.301 3.075-2.215-8.329zM450.116 515.363 439.78 505.04l4.347-4.346c2.287-2.291 3.221-3.043 4.436-3.602 2.614-1.121 5.702-.375 7.944 1.864 3.227 3.224 2.713 7.29-1.351 11.357zm4.905 4.906 5.746-5.751c2.011-2.011 3.688-4.068 4.53-5.657 2.986-5.422 1.956-11.496-2.765-16.212-3.693-3.69-9.068-5.229-13.648-3.92-2.614.752-4.763 2.154-7.799 5.19l-12.378 12.389 31.181 31.151 6.166-6.169zM489.83 480.154l-12.592-16.394 19.67 6.427zm4.079 5.328 9.33-13.145 9.376 3.005 5.242-7.38-44.583-13.342-5.626 7.922 26.949 38.18 5.239-7.38z"/><ellipse cx="305.486" cy="343.118" rx="128.494" ry="128.49" style="fill:#fff;stroke:#000;stroke-width:5.5066" transform="rotate(-2.98 305.629 343.27)"/><path d="m278.411 229.77-9.18-10.096M321.549 228.393l21.109-8.26M406.445 285.757l-2.296-24.323M419.292 336.693h14.228M381.662 292.18l-55.065-38.09M395.888 358.72s8.262 33.957-26.153 67.916M201.316 298.605c25.698-34.418 58.739-43.595 58.739-43.595M197.185 333.02l52.315 28.451M238.486 444.991l25.699-41.301M339.443 444.073l-33.5-42.218M317.417 363.767l57.361-29.829M282.999 336.693l10.554-66.998" style="fill:none;stroke:#000;stroke-width:5.5066"/><path d="M217.837 437.19s12.849 1.835 23.403 3.672c4.13 10.096 9.636 18.815 9.636 18.815-16.521-7.803-33.039-22.487-33.039-22.487M189.844 286.674c7.341 2.751 17.438 3.21 17.438 3.21s-4.589 29.827-4.13 45.889c-9.636 9.179-23.864 33.04-23.864 33.04s-10.096-41.301 10.556-82.139M310.075 471.149s15.143-10.557 25.241-32.583c18.811-3.668 42.216-21.568 42.216-21.568s5.967 12.851 15.603 19.733c-35.334 36.253-83.06 34.418-83.06 34.418M275.199 224.722s-11.014 17.897-24.78 33.042c0 0 23.861 10.094 41.299 22.028 19.732-14.227 42.22-20.652 42.22-20.652s-3.671-16.979-6.422-33.499c-16.525-4.59-52.317-.919-52.317-.919M375.697 288.05s-2.295 26.159-9.636 50.478c16.059 11.014 31.204 31.205 31.204 31.205s14.685-20.191 28.452-34.417c-2.755-40.84-20.651-56.442-20.651-56.442-9.637 6.883-29.369 9.176-29.369 9.176M283.917 328.893c-19.732 18.353-41.76 28.451-41.76 28.451s12.39 35.333 16.521 55.066c22.945-1.378 52.771-3.213 52.771-3.213 4.134-19.733 14.227-50.478 14.227-50.478s-22.485-10.557-41.759-29.826"/></svg>