<svg xmlns="http://www.w3.org/2000/svg" xml:space="preserve" viewBox="0 0 660 660"><path d="M580.104 47.89v313.198c0 159.098-133.839 252.802-235.698 252.802h-24.811c-101.858 0-235.698-93.704-235.698-252.802V47.89z"/><path d="M571.56 60.628 93.635 386.253c2.6 27.389 9.466 53.513 20.544 77.925 9.293 20.477 21.366 39.423 36.008 56.598L571.56 233.682zM284.087 246.155V56.431h-95.824v255.012zM475.736 115.578V56.431h-95.824v124.436zM188.263 505.171v51.735c16.964 13.011 35.581 23.902 54.836 31.979 13.587 5.699 27.39 9.96 40.988 12.725V439.884zM379.912 374.596V601.61c13.598-2.765 27.401-7.025 40.989-12.725 19.255-8.076 37.871-18.969 54.835-31.977V309.307z" style="fill:#fff"/><path d="M134.794 425.539c.304.53.578.976.819 1.439 1.679 3.208.921 6.487-2.295 9.568-1.167 1.117-2.468 2.094-3.761 3.181.765.945 1.484 1.838 2.273 2.818l8.754-5.819 18.675 25.727 5.268-3.509c-8.626-12.185-17.138-24.212-25.693-36.295zM178.51 441.951l-5.835 4.107c1.182 1.591 2.292 3.081 3.498 4.702 2.038-1.435 3.909-2.751 5.858-4.125zM396.762 241.277l31.486 23.955-12.231-37.398 7.589-5.283 25.682 36.276-5.247 3.548-20.904-29.998-.296.135c.359 1.216.71 2.434 1.082 3.648 3.253 10.614 6.493 21.231 9.79 31.83.321 1.032.264 1.652-.699 2.259-1.214.767-2.321 1.704-3.571 2.643l-30.545-23.243-.264.22c6.949 9.982 13.897 19.964 20.903 30.034l-5.27 3.517c-8.557-12.084-17.079-24.119-25.69-36.276zM314.86 301.703c2.297-.213 4.514.811 6.528 2.284 8.012 5.858 13.264 13.683 16.049 23.14 1.372 4.662.116 8.887-3.156 12.413-3.338 3.601-7.199 6.367-12.333 6.79-3.455.284-6.581-.623-9.392-2.582-5.406-3.768-9.474-8.735-12.367-14.597-1.368-2.781-2.321-5.776-3.332-8.72-.979-2.855-.329-5.602.945-8.232 2.973-6.142 9.915-10.483 17.058-10.496m8.514 39.618c5.737-.024 10.183-6.384 8.086-12.151-1.641-4.513-4.04-8.603-6.789-12.497-2.315-3.283-5.075-6.163-8.396-8.451a9.7 9.7 0 0 0-2.7-1.281c-3.917-1.164-10.652 4.497-10.95 7.825-.246 2.725.363 5.217 1.669 7.46 2.074 3.564 4.254 7.096 6.725 10.387 1.857 2.471 4.145 4.65 6.432 6.749 1.461 1.341 3.376 2.01 5.923 1.959M377.665 257.809c3.99-.111 7.01 2.011 9.612 4.612 5.069 5.066 9.195 10.867 12.136 17.428 2.645 5.9 1.861 11.334-2.605 16.136-4.583 4.928-9.959 7.741-16.855 5.989-3.499-.887-6.232-3.181-8.732-5.676a46.7 46.7 0 0 1-10.381-15.649c-3.476-8.588.302-17.279 9.166-21.039 2.393-1.016 5.022-1.48 7.542-2.198q.056.199.117.397m-1.987 4.81q-.086.182-.172.358c-2.386-.095-4.153 1.171-5.954 2.527-3.807 2.864-5.027 5.866-3.429 10.296 2.763 7.661 7.286 14.2 13.657 19.297 4.593 3.676 9.357 3.067 13.307-1.31 2.092-2.318 2.735-4.969 1.584-7.878-.987-2.496-2.047-4.983-3.333-7.333-3.006-5.487-6.663-10.484-11.885-14.107-1.139-.789-2.511-1.242-3.775-1.85M231.629 411.522l-4.674 3.541c-4.102-5.868-8.143-11.649-12.26-17.544-5.454 3.905-10.833 7.757-16.316 11.685l12.24 16.958-5.261 4.113-25.689-36.278 5.261-4.118 11.093 15.191 15.73-11.068-10.495-15.243 5.282-3.489c8.352 12.07 16.665 24.08 25.089 36.252M478.751 231.915c-.223 2.645-1.076 4.985-2.546 7.066-2.9 4.105-6.803 6.898-11.602 8.367-4.251 1.304-8.239.652-11.688-2.191-6.887-5.682-12.083-12.63-15.117-21.073-1.438-4.001-.952-7.913 1.381-11.468 3.378-5.139 7.885-8.655 14.234-9.249 4.267-.398 8.159.791 11.076 3.86 5.281 5.558 9.964 11.613 12.794 18.848.727 1.855.992 3.889 1.468 5.84m-15.256 10.882c6.349.012 10.755-6.008 8.728-12.045-1.622-4.831-4.332-9.114-7.182-13.282-2.104-3.078-4.712-5.715-7.95-7.657-2.078-1.246-4.247-1.658-6.632-.948-5.774 1.72-8.734 7.075-6.636 12.814 2.674 7.314 7.073 13.531 13.087 18.525 1.88 1.564 4.062 2.566 6.585 2.593M486.637 178.096c1.78-1.391 3.474-2.715 5.249-4.1 2.157 3.09 4.276 6.123 6.389 9.159q5.729 8.232 11.455 16.466c.028.038.054.08.084.117 5.548 6.77 3.101 12.912-1.667 17.694-2.952 2.963-6.45 5.184-10.511 6.358-4.813 1.391-9.066.297-12.221-3.6-3.082-3.806-5.833-7.884-8.695-11.867-3.424-4.767-6.811-9.56-10.215-14.342-.272-.383-.537-.774-.873-1.26l5.818-4.09c.923 1.314 1.803 2.559 2.673 3.81 4.781 6.87 9.53 13.761 14.357 20.601 1.602 2.271 3.203 4.692 6.078 5.506 1.235.35 2.701.503 3.913.183 2.918-.77 5.36-2.522 6.966-5.066 2.015-3.193 1.479-6.426-.619-9.443-5.629-8.096-11.271-16.184-16.906-24.276-.408-.584-.808-1.171-1.275-1.85M270.127 329.638l-1.652 12.234c-.553 4.099-1.072 8.202-1.686 12.29-.145.968.123 1.324 1.021 1.639 8.934 3.124 17.851 6.3 26.772 9.464.533.189 1.061.392 1.801.664-1.917 1.336-3.61 2.6-5.399 3.707-.405.25-1.193.081-1.728-.109-7.249-2.56-14.484-5.158-21.725-7.743-.444-.16-.899-.295-1.468-.48-.388 2.627-.804 5.136-1.088 7.659-.053.478.354 1.063.663 1.522 2.624 3.903 5.277 7.791 8.008 11.809l-5.266 3.517c-8.578-12.118-17.102-24.161-25.684-36.288l5.258-4.102 12.807 18.652c.237-1.881.44-3.397.621-4.918.948-7.974 1.877-15.951 2.861-23.922.067-.541.422-1.163.837-1.52 1.521-1.318 3.124-2.538 5.047-4.075M537.422 176.91c1.787-1.195 3.46-2.311 5.129-3.426 5.432 7.475 5.468 16.452-3.305 22.7-.274.196-.566.366-.84.562-7.911 5.643-16.081 3.198-21.508-2.743a59.1 59.1 0 0 1-9.97-14.959c-3.685-7.917-1.571-15.1 5.615-20.055 2.761-1.903 5.58-3.623 8.979-4.038 5.443-.664 9.346 1.785 12.298 6.246-1.481.987-2.937 2.011-4.46 2.923-.316.19-.996.117-1.315-.109-.976-.694-1.803-1.599-2.787-2.279-2.476-1.708-5.086-1.833-7.773-.463-5.341 2.723-7.305 7.093-5.333 12.714 2.631 7.511 6.943 13.957 13.313 18.815 5.75 4.385 14.009.916 14.935-6.187.288-2.215-.052-4.42-1.134-6.436-.567-1.057-1.178-2.089-1.844-3.265M247.964 369.409l2.346 3.519-17.495 12.293 12.227 16.953-5.25 4.12c-8.56-12.09-17.082-24.132-25.697-36.3l23.348-16.965 2.948 4.095-18.084 12.877 8.146 11.674c5.847-4.097 11.619-8.139 17.511-12.266M330.823 287.495c7.611 10.76 15.162 21.429 22.765 32.169l18.085-12.859 2.929 4.112c-7.778 5.458-15.484 10.869-23.364 16.398-8.553-12.09-17.067-24.122-25.672-36.289 1.782-1.197 3.479-2.338 5.257-3.531"/></svg>