<?xml version="1.0" encoding="iso-8859-1"?>
<!-- Generator: Adobe Illustrator 24.0.1, SVG Export Plug-In . SVG Version: 6.00 Build 0)  -->
<svg version="1.1" id="Layer_1" xmlns="http://www.w3.org/2000/svg" xmlns:xlink="http://www.w3.org/1999/xlink" x="0px" y="0px"
	 viewBox="0 0 595 842" style="enable-background:new 0 0 595 842;" xml:space="preserve">
<path d="M337.526,769.666c138.296-20.987,245.392-148.097,245.392-300.707c0-49.235-11.178-95.728-30.791-136.919
	c-12.75-28.639-21.189-63.359-23.147-100.825c-1.965-41.193,3.92-79.833,15.69-111.416H50.159
	c11.768,31.583,17.653,70.029,15.494,111.222c-1.961,38.642-10.591,74.148-23.93,103.175l0,0
	c-19.027,40.608-29.816,86.51-29.816,134.763c0,152.609,106.903,279.72,245.196,300.707c25.109,4.317,32.564,10.596,37.272,20.6
	h6.471C305.947,780.262,313.794,773.983,337.526,769.666z"/>
<path style="fill:#EE3124;" d="M335.963,757.505c132.988-20.207,235.778-142.216,235.778-288.939
	c0-47.273-10.788-91.996-29.619-131.619c-12.361-27.463-21.971-60.81-23.738-96.904c-2.153-39.622,0.393-78.856,11.771-109.257
	H65.261c11.183,30.401,13.145,69.635,11.183,109.062c-1.962,37.074-11.967,71.207-24.717,99.061l0,0
	c-18.243,39.036-28.639,83.17-28.639,129.658c0,146.532,102.786,268.733,235.585,288.745c23.54,4.117,33.543,8.825,38.252,17.654
	h0.982C303.005,766.136,313.597,761.627,335.963,757.505z"/>
<path style="fill:#00A651;" d="M546.043,345.381c-1.372-2.746-2.547-5.689-3.92-8.434c-12.361-27.463-21.971-60.81-23.738-96.904
	c-2.153-39.622,0.393-78.856,11.771-109.257H65.261c11.183,30.401,13.145,69.635,11.183,109.062
	c-1.962,37.074-11.967,71.207-24.717,99.061l0,0c-0.982,2.158-1.962,4.314-2.94,6.473H546.043z"/>
<path style="fill:#FFFFFF;" d="M571.542,456.603c-1.568-39.623-10.589-77.091-25.499-111.222H48.787
	c-14.911,34.13-23.933,71.599-25.502,111.222H571.542z"/>
<path style="fill:#EE3124;" d="M282.801,435.22v-8.042c0.392,0,0.981-0.195,1.374-0.589c0.392-0.392,0.784-0.786,0.784-1.372
	v-12.948h12.357v12.556c0,3.531-0.586,5.885-1.764,7.256c-1.176,1.374-2.355,2.353-3.727,2.747
	c-0.784,0.197-1.375,0.392-1.961,0.392c-0.786,0-1.374,0-1.765,0H282.801L282.801,435.22z M282.801,406.383v-6.864h2.158v-18.045
	c0-0.588-0.392-0.983-0.784-1.372c-0.392-0.396-0.981-0.59-1.374-0.59v-8.042h5.101c0.392,0,0.98,0,1.766,0.198
	c0.981,0,1.96,0.392,2.941,0.979c1.178,0.586,2.353,1.569,3.335,2.943c0.981,1.372,1.372,3.529,1.372,6.275v24.52H282.801
	L282.801,406.383z M308.302,402.069l-5.493-29.424h13.533l2.355,25.305l2.157-25.305h13.142l-4.906,29.424l5.885,31.972h-12.943
	l-3.335-27.265l-3.137,27.265H302.81L308.302,402.069L308.302,402.069z M340.468,372.646h12.558v28.639l6.275-28.639h12.557v61.396
	h-12.557v-30.794l-6.275,30.794h-12.558V372.646L340.468,372.646z M410.5,372.646h12.945v61.396h-12.359v-30.6l-6.077,30.6h-7.258
	l-6.083-30.6v30.6h-12.36v-61.396h12.953l9.018,36.488L410.5,372.646L410.5,372.646z M430.902,372.646h12.355v28.639l6.474-28.639
	h12.554v61.396h-12.554v-30.794l-6.474,30.794h-12.355V372.646L430.902,372.646z M469.545,372.646h12.549v26.873l4.712-26.873
	h12.749l-6.279,29.618l8.241,31.778h-12.749l-6.673-28.245v28.245h-12.549V372.646z M282.801,371.469v8.042
	c-0.196,0-0.196,0-0.392,0c-0.589,0-0.982,0.194-1.177,0.392c-0.194,0.394-0.392,0.586-0.586,0.981v0.194c0,0.198,0,0.198,0,0.394
	v18.045h2.156v6.864h-2.156v18.834c0,0.194,0,0.194,0,0.393v0.193c0.194,0.393,0.392,0.786,0.586,0.981
	c0.196,0.393,0.588,0.393,1.177,0.393c0.196,0,0.196,0,0.392,0v8.042H277.7c-3.137,0-5.295-0.589-6.472-1.766
	c-1.374-1.179-2.159-2.552-2.747-3.924c-0.196-0.98-0.392-1.765-0.392-2.548c0-0.786,0-1.373,0-1.962v-0.197v-42.762
	c0-3.533,0.98-6.081,2.747-7.848c1.766-1.767,3.923-2.746,6.864-2.746H282.801L282.801,371.469z M211.008,433.258v-6.275
	c0.196,0,0.392,0,0.392,0c0.196,0,0.196,0,0.394,0c0.391-0.198,0.784-0.394,0.979-0.786c0.393-0.393,0.589-0.786,0.589-1.176
	v-42.765c0-0.586-0.196-0.98-0.589-1.178c-0.194-0.39-0.588-0.589-0.979-0.782c-0.198,0-0.198,0-0.394,0c0,0-0.196,0-0.392,0v-6.866
	c0.786-0.199,1.372-0.588,1.961-0.983c1.57-0.588,3.333-0.979,5.099-0.979c2.355,0,3.923,0.59,4.906,1.763
	c1.174,1.181,1.766,2.356,2.352,3.728c0.197,0.983,0.394,1.767,0.394,2.745c0,0.784,0,1.571,0,1.965v43.351c0,0.589,0,1.176,0,1.962
	c0,0.783-0.197,1.568-0.394,2.353c-0.194,1.373-0.979,2.745-1.96,4.118c-0.983,1.177-2.747,1.766-4.905,1.766
	c-0.196,0-0.394,0-0.394,0c-0.194,0-0.194,0-0.392,0c-1.374,0-2.745-0.392-4.119-0.787
	C212.772,434.042,211.988,433.652,211.008,433.258L211.008,433.258z M240.627,380.689h-9.417v-8.043h31.385v8.043h-9.415v53.353
	h-12.553V380.689z M211.008,373.431v6.866l0,0h-0.197c-0.392,0-0.979,0.193-1.374,0.588c-0.392,0.392-0.586,0.786-0.586,1.372
	v42.765c0,0.39,0.194,0.98,0.586,1.374c0.395,0.39,0.981,0.588,1.374,0.588h0.197l0,0v6.275c-0.589-0.389-1.374-0.982-2.157-1.57
	v22.755h-12.359v-22.755c-0.784,0.588-1.571,1.181-2.157,1.57v-6.275l0,0c0.194,0,0.194,0,0.194,0c0.197,0,0.197,0,0.392,0
	c0.395-0.198,0.787-0.394,0.983-0.786c0.392-0.196,0.588-0.587,0.588-1.176v-42.765c0-0.586-0.196-0.98-0.588-1.372
	c-0.196-0.196-0.588-0.395-0.983-0.588c-0.195,0-0.195,0-0.392,0c0,0,0,0-0.194,0l0,0v-6.866c0.784,0.586,1.569,0.981,2.157,1.568
	v-18.83h12.359V375C209.634,374.413,210.224,374.017,211.008,373.431z M194.334,373.431v6.866c-0.198,0-0.198,0-0.392,0
	c0,0-0.198,0-0.394,0c-0.196,0.193-0.588,0.392-0.98,0.782c-0.198,0.198-0.394,0.591-0.394,1.178v42.568
	c0,0.587,0.196,1.177,0.394,1.372c0.392,0.392,0.784,0.588,0.98,0.786c0.196,0,0.394,0,0.394,0c0.194,0,0.194,0,0.392,0v6.275
	c-0.982,0.589-1.963,0.982-2.943,1.176c-1.372,0.591-2.941,0.787-4.315,0.787c-2.354,0-3.923-0.589-4.904-1.766
	c-0.98-1.374-1.764-2.552-2.156-4.118c-0.197-0.786-0.197-1.57-0.197-2.353c-0.198-0.786-0.198-1.373-0.198-1.962V381.67
	c0-3.337,0.589-5.689,1.767-7.066c1.178-1.566,2.352-2.352,3.727-2.938c0.392,0,0.784,0,1.176-0.198c0.394,0,0.786,0,1.178,0
	c0.392,0,0.784,0,1.178,0c0.392,0.198,0.784,0.198,1.374,0.198c1.177,0.392,2.352,0.781,3.529,1.372
	C193.745,373.232,193.942,373.232,194.334,373.431L194.334,373.431z M157.652,435.22v-8.042c0.59,0,0.982-0.195,1.373-0.589
	c0.589-0.392,0.786-0.786,0.786-1.372v-12.948h12.357v12.556c0,3.531-0.392,5.885-1.569,7.256c-1.176,1.374-2.549,2.353-3.921,2.747
	c-0.786,0.197-1.375,0.392-1.964,0.392c-0.587,0-1.176,0-1.764,0H157.652L157.652,435.22z M157.652,406.383v-6.864h2.159v-18.045
	c0-0.588-0.197-0.983-0.786-1.372c-0.391-0.396-0.784-0.59-1.373-0.59v-8.042h5.297c0.194,0,0.783,0,1.764,0.198
	c0.787,0,1.766,0.392,2.747,0.979c1.178,0.586,2.355,1.569,3.335,2.943c0.982,1.372,1.374,3.529,1.374,6.275v24.52H157.652z
	 M100.571,357.344h14.71v32.37h4.316v-32.37h14.71v76.697h-14.71v-35.895h-4.316v35.895h-14.71V357.344L100.571,357.344z
	 M157.652,371.469v8.042c-0.195,0-0.195,0-0.391,0c-0.393,0-0.786,0.194-1.178,0.392c-0.195,0.394-0.393,0.586-0.587,0.981v0.194
	c0,0.198,0,0.198,0,0.394v18.045h2.156v6.864h-2.156v18.834c0,0.194,0,0.194,0,0.393v0.193c0.194,0.393,0.392,0.786,0.587,0.981
	c0.392,0.393,0.785,0.393,1.178,0.393c0.196,0,0.196,0,0.391,0v8.042h-5.098c-2.944,0-5.102-0.589-6.474-1.766
	c-1.373-1.179-2.158-2.552-2.549-3.924c-0.394-0.98-0.394-1.765-0.394-2.548c-0.196-0.786-0.196-1.373-0.196-1.962v-0.197v-42.762
	c0-3.533,0.981-6.081,2.747-7.848c1.764-1.767,4.117-2.746,6.866-2.746H157.652z"/>
<g>
	<path d="M291.235,305.363c31.386,0,57.278-25.893,57.278-57.474c0-31.778-25.893-57.67-57.278-57.67
		c-31.778,0-57.669,25.893-57.669,57.67C233.565,279.47,259.457,305.363,291.235,305.363z"/>
	<path style="fill:#FFF200;" d="M291.235,296.733c26.874,0,48.648-21.97,48.648-48.844c0-27.067-21.774-49.039-48.648-49.039
		c-27.071,0-49.039,21.972-49.039,49.039C242.196,274.763,264.164,296.733,291.235,296.733z"/>
	<rect x="286.33" y="147.263" width="11.377" height="186.347"/>
	<rect x="309.086" y="147.263" width="11.182" height="168.891"/>
	<rect x="268.677" y="263.582" width="87.68" height="11.378"/>
</g>
<g>
	<g>
		<path style="fill:#939598;" d="M194.529,598.815c0-57.276,46.49-104.159,103.964-104.159c57.478,0,103.771,46.883,103.771,104.159
			c0,57.866-46.293,104.357-103.771,104.357C241.019,703.172,194.529,656.682,194.529,598.815z"/>
		<g>
			<path style="fill:#FFFFFF;stroke:#000000;stroke-width:0.1862;stroke-linecap:round;stroke-linejoin:round;" d="M298.493,703.364
				c57.279,0,103.771-46.683,103.771-104.159c0-57.475-46.493-104.159-103.771-104.159c-57.474,0-104.356,46.684-104.356,104.159
				C194.137,656.682,241.019,703.364,298.493,703.364z"/>
			<polygon style="fill:#FFFFFF;stroke:#000000;stroke-width:0.1862;stroke-linecap:round;stroke-linejoin:round;" points="
				275.935,580.767 322.426,580.767 341.255,614.311 298.885,643.931 256.907,612.352 			"/>
			<path style="fill:#FFFFFF;stroke:#000000;stroke-width:0.1862;stroke-linecap:round;stroke-linejoin:round;" d="M260.047,502.699
				l4.315,5.296l-28.246,41.781l-11.376,4.513l-1.571-26.286C233.565,516.821,245.334,508.189,260.047,502.699z"/>
			<path style="fill:#FFFFFF;stroke:#000000;stroke-width:0.1862;stroke-linecap:round;stroke-linejoin:round;" d="M376.758,530.354
				l-2.746,22.363l-12.751-1.961l-25.694-42.566l5.099-4.117C355.378,510.546,366.559,517.998,376.758,530.354z"/>
			<path style="fill:#FFFFFF;stroke:#000000;stroke-width:0.1862;stroke-linecap:round;stroke-linejoin:round;" d="M385.194,656.292
				l-24.325,4.313l0.787-37.663l20.987-22.164l17.854,16.279C398.139,631.179,392.646,644.715,385.194,656.292z"/>
			<path style="fill:#FFFFFF;stroke:#000000;stroke-width:0.1862;stroke-linecap:round;stroke-linejoin:round;" d="M279.662,701.602
				l-10.199-20.401l31.384-15.496l30.799,15.496l-7.846,19.027c-8.632,2.352-16.283,3.136-25.307,3.136
				C293.394,703.364,284.762,702.579,279.662,701.602z"/>
			<path style="fill:#FFFFFF;stroke:#000000;stroke-width:0.1862;stroke-linecap:round;stroke-linejoin:round;" d="M195.316,614.311
				l17.85-19.223l20.988,24.714l1.375,34.916h-25.109l-0.392-0.393C202.574,641.97,197.669,628.827,195.316,614.311z"/>
			<g>
				<path style="fill:none;stroke:#000000;stroke-width:0.1862;stroke-linecap:round;stroke-linejoin:round;" d="M224.935,554.289
					c-5.099,3.136-11.377,16.674-11.769,40.8"/>
			</g>
			<g>
				<path style="fill:none;stroke:#000000;stroke-width:0.1862;stroke-linecap:round;stroke-linejoin:round;" d="M256.907,612.352
					c-3.921,2.746-18.634,6.665-22.753,7.45"/>
			</g>
			<g>
				<path style="fill:none;stroke:#000000;stroke-width:0.1862;stroke-linecap:round;stroke-linejoin:round;" d="M341.061,614.311
					c6.079,1.961,17.456,6.278,20.595,8.63"/>
			</g>
			<g>
				<path style="fill:none;stroke:#000000;stroke-width:0.1862;stroke-linecap:round;stroke-linejoin:round;" d="M235.528,654.718
					c1.961,6.277,26.873,26.092,33.935,26.482"/>
			</g>
			<g>
				<path style="fill:none;stroke:#000000;stroke-width:0.1862;stroke-linecap:round;stroke-linejoin:round;" d="M374.013,552.717
					c5.103,5.101,9.808,32.956,8.63,48.06"/>
			</g>
			<g>
				<path style="fill:none;stroke:#000000;stroke-width:0.1862;stroke-linecap:round;stroke-linejoin:round;" d="M360.869,660.604
					c-3.92,5.1-20.201,17.852-29.417,20.596"/>
			</g>
		</g>
		<path d="M350.865,688.068c33.545-17.261,50.413-47.866,50.413-88.469c0-6.275,0.393-9.61-0.781-15.494
			c-11.18-1.768-24.913-14.516-33.149-29.032c-7.851-13.931-11.576-29.816-7.064-38.841c-4.707-3.92-9.613-7.258-14.712-10.003
			v23.735c2.352,3.925,3.726,7.649,3.92,11.967c0,4.707-1.373,9.023-3.92,13.337v26.092c5.886-1.767,11.771-2.16,16.868-0.784
			c18.635,5.098,26.089,30.206,18.245,52.37c-5.494,16.089-20.4,29.032-35.113,32.957v17.261
			C347.727,684.535,349.492,686.301,350.865,688.068z M345.572,506.228c-14.121-7.648-29.425-11.375-47.274-11.375
			c-17.066,0-31.19,2.746-44.332,9.417v24.322c8.238-11.182,25.501-19.028,44.135-19.419c20.205-0.393,39.425,8.433,47.471,20.791
			V506.228L345.572,506.228z M253.966,683.357c10.789-6.08,27.657-9.217,43.349-9.414c18.637-0.199,37.661,1.961,48.256,9.219
			v-17.261c-5.491,1.372-10.99,1.568-15.888,0.194c-18.244-4.903-27.071-29.224-19.422-51.196
			c5.496-15.888,20.4-29.032,35.31-33.541v-26.092c-8.045,12.751-26.874,22.754-46.687,23.148
			c-19.025,0.394-36.484-8.241-44.919-20.011v21.579c14.71,4.707,29.619,18.439,35.111,34.132
			c7.652,21.97-0.784,48.451-19.223,53.354c-5.099,1.372-10.397,0.981-15.888-0.586V683.357z M253.966,504.27
			c-4.905,2.548-9.612,5.686-14.516,9.415c4.707,9.02-0.786,26.477-8.828,40.604c-8.434,15.101-22.558,28.443-34.131,29.617
			c-1.176,6.083-1.374,9.22-1.374,15.694c0,39.431,19.421,71.599,51.393,89.448c1.961-2.156,4.512-3.922,7.455-5.69v-16.474
			c-14.713-4.711-29.226-18.833-34.72-34.919c-7.846-21.966-1.178-48.058,17.261-52.959c5.494-1.573,11.379-0.983,17.46,0.978
			v-21.579c-3.335-4.508-5.298-9.606-5.298-14.708c-0.196-5.494,1.767-10.591,5.298-15.104V504.27z"/>
	</g>
	<path style="fill:#EE3124;" d="M310.067,560.563v-3.529l0,0c0.389,0,0.589,0,0.785-0.194c0.198,0,0.393-0.199,0.393-0.394
		c0,0,0,0,0-0.2c0,0,0,0,0-0.191v-10.596c-0.393,0.195-0.789,0.588-1.178,0.784v-2.745l0,0c0.389,0,0.589-0.196,0.982-0.391
		c0.195-0.199,0.195-0.394,0.195-0.589v-10.397c0-0.196,0-0.39-0.195-0.585c-0.198-0.199-0.593-0.398-0.982-0.398l0,0v-3.529h3.136
		c2.159,0,3.532,0.394,4.317,1.18c0.787,0.586,1.374,1.37,1.568,2.157c0,0.391,0,0.784,0,1.174c0,0.394,0,0.784,0,0.983v22.163
		c0,1.767-0.194,2.944-0.979,3.729c-0.784,0.784-1.568,1.174-2.548,1.373c-0.394,0-0.787,0.194-1.18,0.194c-0.39,0-0.784,0-1.178,0
		H310.067L310.067,560.563z M328.113,535.651c-0.394,0.199-0.781,0.398-1.175,0.589c-0.593,0-0.986,0.198-1.767,0.394
		c-0.2,0-0.395,0-0.395,0.194c-0.199,0-0.39,0-0.584,0v-4.507c1.372-0.2,2.352-0.59,3.33-1.374c0.983-0.592,1.568-1.571,1.767-2.748
		h6.673v31.972h-7.85V535.651z M310.067,527.609v3.529c-0.391,0-0.784,0.199-0.981,0.398c-0.393,0.194-0.393,0.389-0.393,0.585
		v10.397c0,0.196,0.195,0.39,0.393,0.589c0.197,0.194,0.59,0.194,0.785,0.391c0,0,0,0,0.196,0l0,0v2.745
		c-0.784,0.394-1.57,0.788-2.157,0.788c-0.982,0.194-1.767,0.39-2.354,0.39c-1.767,0-2.944-0.39-3.532-1.178
		c-0.589-0.784-0.981-1.764-1.179-2.548c0-0.394,0-0.588,0-0.787c0-0.194,0-0.39,0-0.784v-9.021c0,0,0-0.199,0-0.395
		c0-0.195,0-0.195,0-0.389c0-0.2,0-0.59,0-0.784c0-0.199,0-0.59,0.198-0.789c0.198-0.784,0.587-1.568,1.374-2.156
		c0.784-0.589,2.156-0.982,4.119-0.982H310.067L310.067,527.609z M310.067,557.034v3.529h-3.335l0,0c-0.393,0-0.589,0-0.981,0
		c-0.392,0-0.786,0-1.178-0.194c-0.98-0.199-1.764-0.59-2.548-1.178c-0.783-0.788-1.179-1.961-1.179-3.924v-5.885h8.042v6.673
		c0,0.191,0,0.191,0,0.191c0,0.2,0,0.2,0,0.2c0,0.194,0.198,0.394,0.395,0.394C309.478,557.034,309.676,557.034,310.067,557.034
		L310.067,557.034z M286.33,560.563v-3.529c0.198,0,0.198,0,0.198,0c0.392,0,0.59,0,0.784-0.194c0.197,0,0.197-0.199,0.392-0.394
		c0,0,0,0,0-0.2c0,0,0,0,0-0.191v-10.596c-0.392,0.195-0.784,0.588-1.374,0.784v-2.745c0.198,0,0.198,0,0.198,0
		c0.392,0,0.59-0.196,0.784-0.391c0.392-0.199,0.392-0.394,0.392-0.589v-10.397c0-0.196,0-0.39-0.194-0.585
		c-0.197-0.199-0.589-0.398-0.982-0.398c0,0,0,0-0.198,0v-3.529h3.337c1.96,0,3.529,0.394,4.316,1.18
		c0.784,0.586,1.176,1.37,1.372,2.157c0.196,0.391,0.196,0.784,0.196,1.174c0,0.394,0,0.784,0,0.983v22.163
		c0,1.767-0.392,2.944-0.982,3.729c-0.784,0.784-1.569,1.174-2.549,1.373c-0.393,0-0.786,0.194-1.178,0.194c-0.588,0-0.98,0-1.176,0
		H286.33z M263.578,535.651c-0.394,0.199-0.786,0.398-1.374,0.589c-0.394,0-0.981,0.198-1.569,0.394c-0.196,0-0.392,0-0.588,0.194
		c0,0-0.198,0-0.392,0v-4.507c1.372-0.2,2.354-0.59,3.333-1.374c0.981-0.592,1.374-1.571,1.568-2.748h6.866v31.972h-7.845V535.651
		L263.578,535.651z M286.33,527.609v3.529c-0.392,0-0.588,0.199-0.978,0.398c-0.198,0.194-0.198,0.389-0.198,0.585v10.397
		c0,0.196,0,0.39,0.392,0.589c0.196,0.194,0.392,0.194,0.784,0.391l0,0l0,0v2.745c-0.588,0.394-1.372,0.788-1.961,0.788
		c-0.978,0.194-1.96,0.39-2.549,0.39c-1.568,0-2.747-0.39-3.334-1.178c-0.786-0.784-0.981-1.764-1.178-2.548
		c0-0.394,0-0.588,0-0.787c0-0.194,0-0.39,0-0.784v-9.021c0,0,0-0.199,0-0.395c0-0.195,0-0.195,0-0.389c0-0.2,0-0.59,0-0.784
		c0-0.199,0-0.59,0.196-0.789c0.196-0.784,0.589-1.568,1.374-2.156c0.784-0.589,2.159-0.982,4.119-0.982H286.33L286.33,527.609z
		 M286.33,557.034v3.529h-3.137l0,0c-0.392,0-0.784,0-1.176,0c-0.394,0-0.786,0-1.178-0.194c-0.786-0.199-1.569-0.59-2.354-1.178
		c-0.786-0.788-1.178-1.961-1.178-3.924v-5.885h7.846v6.673c0,0.191,0,0.191,0,0.191c0.198,0.2,0.198,0.2,0.198,0.2
		c0,0.194,0.194,0.394,0.39,0.394C285.939,557.034,286.136,557.034,286.33,557.034z"/>
</g>
<path style="fill:#EE3124;" d="M72.127,411.879c7.847,0,14.124-6.28,14.124-14.126s-6.276-14.123-14.124-14.123
	c-7.846,0-14.123,6.276-14.123,14.123S64.281,411.879,72.127,411.879z"/>
<path style="fill:#EE3124;" d="M523.875,411.879c7.851,0,14.123-6.28,14.123-14.126s-6.271-14.123-14.123-14.123
	c-7.843,0-14.121,6.276-14.121,14.123S516.032,411.879,523.875,411.879z"/>
</svg>
