<?xml version="1.0" encoding="iso-8859-1"?>
<!-- Generator: Adobe Illustrator 24.0.1, SVG Export Plug-In . SVG Version: 6.00 Build 0)  -->
<svg version="1.1" id="Layer_1" xmlns="http://www.w3.org/2000/svg" xmlns:xlink="http://www.w3.org/1999/xlink" x="0px" y="0px"
	 viewBox="0 0 612 792" style="enable-background:new 0 0 612 792;" xml:space="preserve">
<path style="fill:#284E96;" d="M307.415,4.921c167.175,0,303.525,136.327,303.525,303.475S474.59,611.87,307.415,611.87
	c-167.179,0-303.529-136.325-303.529-303.474S140.236,4.921,307.415,4.921L307.415,4.921z"/>
<path style="fill:#FFFFFF;" d="M307.315,14.174c162.112,0,294.329,132.194,294.329,294.276
	c0,162.083-132.217,294.277-294.329,294.277c-162.108,0-294.329-132.194-294.329-294.277
	C12.986,146.369,145.207,14.174,307.315,14.174L307.315,14.174z"/>
<path style="fill:#284E96;" d="M267.146,530.024l-8.683,40.647l0,0c-0.729,3.166-0.892,5.031-0.892,5.843
	c0,0.974,0.65,1.703,1.379,2.598c0.731,0.487,1.866,1.297,3.731,1.704l0,0l1.057,0.242l-0.083,1.298l-26.204-5.597l0.325-1.382
	l1.458,0.49l0,0c2.111,0.405,3.652,0.405,4.707,0.08c0.893-0.245,1.54-0.811,2.353-1.54c0.161-0.65,0.974-2.923,1.54-5.761l0,0
	l5.518-25.964l0,0c0.405-2.109,0.405-3.649,0.488-4.382c-0.163-0.321-0.405-1.216-0.65-1.54c-0.65-0.568-1.379-1.055-2.191-1.217
	c-1.137-0.162-2.677-0.245-4.786,0.325l0,0l-0.406-1.378l20.122-4.626L267.146,530.024L267.146,530.024z M271.446,584.951v-0.89l0,0
	c4.299-0.65,7.788-1.787,10.79-3.57c3.083-1.624,5.436-3.732,7.381-6.41c1.87-2.273,3.249-5.6,4.139-9.007
	c-1.624,0.731-2.918,0.974-4.139,1.381c-1.053,0.242-2.19,0.324-3.569,0.242c-3.57-0.163-6.814-1.948-9.087-4.706
	c-2.353-3.002-3.407-6.98-3.082-11.766c0.242-3.163,1.216-6.167,2.758-8.762c1.461-2.92,3.814-4.868,6.409-6.247
	c2.598-1.379,5.276-2.111,8.033-1.787c3.002,0.166,5.679,1.217,8.275,3.247c2.516,1.784,4.544,4.381,5.681,7.706
	c1.378,3.41,1.948,7.059,1.624,11.118c-0.408,5.354-1.949,10.463-5.031,14.927c-2.436,4.948-6.654,8.438-12.011,11.195
	C284.265,583.98,278.339,585.359,271.446,584.951L271.446,584.951L271.446,584.951z M294.486,561.993
	c0.406-2.599,0.811-5.193,0.895-7.464c0.404-4.381,0.079-8.762-0.65-12.577c-0.408-2.107-1.3-3.973-2.273-5.031
	c-0.729-0.403-1.621-0.892-2.433-0.892c-1.216-0.162-2.353,0.405-3.002,1.46c-1.053,1.219-1.624,3.976-1.866,8.115
	c-0.566,6.896-0.245,11.764,1.379,14.522c0.974,1.704,2.353,2.678,4.139,2.841C291.646,562.967,293.027,562.559,294.486,561.993
	L294.486,561.993z M315.987,535.139l23.692-1.22l-3.164,9.898l-19.96,1.058l-1.46,5.11l0,0c8.356-0.324,15.171,1.542,19.958,5.436
	c4.057,3.165,6.167,6.814,6.41,11.927c0.083,2.92-0.65,6.005-2.029,9.086c-1.703,3.083-4.136,5.599-7.22,7.301
	c-3.165,1.787-6.652,2.92-10.628,3.083c-4.057,0.162-7.139-0.567-9.575-1.946c-1.542-0.974-2.352-2.273-2.513-3.652
	c0.16-1.137,0.405-1.866,1.055-2.677c0.891-1.134,1.945-1.379,2.757-1.621c1.053-0.083,2.19,0.08,3.002,0.566
	c1.053,0.324,2.919,1.379,5.518,2.76c1.379,0.892,2.837,1.7,3.811,1.866c0.813,0.405,1.705,0.405,2.841,0.326
	c1.785,0,3.568-0.895,4.947-2.436c1.137-1.624,1.949-3.407,1.869-5.436c-0.324-4.381-2.516-7.788-7.303-10.386
	c-4.462-2.595-9.9-3.568-16.471-3.165c-0.729,0-1.866,0.083-3.163,0.163l0,0L315.987,535.139L315.987,535.139z M352.336,556.799
	l-0.326-1.296l0,0c2.757-1.298,4.381-2.68,5.273-3.41c0.974-0.891,2.028-2.108,2.353-3.731c0.568-1.541,0.568-3.082,0.408-4.544
	c-0.487-2.19-1.461-3.731-3.247-4.784c-1.784-1.3-3.812-1.462-5.923-1.055c-3.407,0.647-5.922,3.081-7.788,6.976l0,0l-1.379-0.324
	l0,0c1.055-4.302,2.678-7.709,5.031-10.304c2.271-2.597,4.949-4.302,8.275-4.95c3.407-0.731,6.733-0.244,9.167,1.624
	c2.92,1.378,4.544,3.894,5.031,6.733c0.242,1.866,0.242,3.489-0.566,5.518c-0.57,1.945-2.112,3.731-3.978,5.273
	c3.002,0.811,5.76,2.273,7.383,3.894c2.029,1.948,3.165,4.302,3.733,7.301c1.216,5.275,0,9.818-2.92,14.28
	c-3.086,4.381-7.954,7.221-13.876,8.357c-4.218,0.974-7.626,0.974-9.815-0.242c-1.379-0.569-2.516-1.866-2.678-3.571
	c-0.242-0.976,0-1.784,0.325-2.758c0.891-1.137,1.785-1.786,2.677-1.786c0.812-0.242,1.783-0.323,2.515,0.163
	c0.487,0.082,2.028,0.811,4.949,2.352c2.598,1.461,5.113,1.703,7.141,1.379c1.866-0.242,3.163-1.379,4.056-2.92
	c1.134-1.621,1.297-3.652,0.892-5.842c-0.65-3.407-2.353-6.327-5.192-8.68C361.015,558.26,357.121,556.881,352.336,556.799
	L352.336,556.799z"/>
<path style="fill:#284E96;" d="M307.335,99.292c115.199,0,209.154,93.939,209.154,209.116c0,115.176-93.956,209.118-209.154,209.118
	c-115.199,0-209.158-93.942-209.158-209.118C98.177,193.23,192.136,99.292,307.335,99.292L307.335,99.292z"/>
<path style="fill:#FFFFFF;" d="M196.561,214.503c50.304-20.425,85.025-55.221,110.894-87.068
	c25.872,31.847,60.365,66.491,110.973,87.068l0,0H196.561L196.561,214.503z"/>
<path style="fill:#FFFFFF;" d="M307.671,492.995c-54.578-11.114-126.727-77.788-138.999-151.068l0,0h277.407l0,0
	C428.018,415.207,362.837,481.673,307.671,492.995L307.671,492.995z"/>
<path style="fill:#284E96;" d="M82.161,460.264l57.118-6.084l-6.085-7.87l0,0c-2.76-3.57-5.031-5.923-6.654-6.978
	c-2.595-1.948-5.518-3.002-8.679-3.165c-3.328-0.242-6.898,0.65-10.632,2.516l0,0l-0.971-1.216l16.063-9.816l29.127,37.32
	l-57.2,6.084l4.705,6.006l0,0c1.787,2.352,3.165,3.813,3.815,4.463c1.298,1.134,2.92,2.108,4.705,2.757
	c1.621,0.566,3.489,0.809,5.356,0.566c1.866,0,4.056-0.729,6.41-1.866l0,0l0.89,1.137l-12.817,8.193L82.161,460.264L82.161,460.264z
	 M69.26,432.436l18.742-9.491l-0.488-1.058l0,0c-1.458-2.839-3.486-4.46-6.002-4.865c-2.515-0.408-5.6,0.079-9.412,1.621l0,0
	l-0.65-1.297l24.096-12.251l0.57,1.297l0,0c-2.436,1.544-4.222,3.244-5.518,4.95c-1.216,1.705-1.866,3.407-1.787,4.786
	c0,1.462,0.571,3.328,1.703,5.518l0,0l12.982-6.654l0,0c2.515-1.295,3.976-2.271,4.463-2.674c0.488-0.488,0.65-1.137,0.65-1.949
	c0.08-0.65-0.162-1.787-0.811-3.082l0,0l-1.462-2.841l0,0c-2.19-4.218-4.868-7.138-8.191-8.681
	c-3.248-1.621-7.222-1.946-11.848-0.973l0,0l-0.729-1.219l15.738-5.518l20.123,39.755l-1.137,0.731l-0.811-1.54l0,0
	c-0.73-1.381-1.459-2.273-2.354-2.841c-0.566-0.408-1.458-0.566-2.353-0.566c-0.566,0.08-2.108,0.647-4.381,1.782l0,0
	l-30.261,15.497l0,0c-2.111,1.055-3.327,1.787-3.813,2.029c-0.65,0.649-1.055,1.46-1.217,2.273
	c-0.161,1.134,0.163,2.516,0.892,3.974l0,0l0.813,1.542l-1.299,0.569l-19.632-38.458l13.627-6.897l0.65,1.298l0,0
	c-3,2.273-4.868,4.464-5.76,6.33c-0.812,1.945-1.055,4.218-0.568,6.734c0.242,1.46,1.217,3.894,3.002,7.383l0,0L69.26,432.436
	L69.26,432.436z M37.455,351.223l1.379-0.408l0,0c0.733,1.542,1.542,2.76,2.515,3.407c1.462,0.895,4.789,2.031,10.062,3.409l0,0
	l21.015,5.598l12.089-3.489l0,0c2.596-0.729,4.136-1.296,4.623-1.784c0.568-0.325,0.892-1.137,1.137-1.949
	c0.326-0.971,0.242-2.107-0.161-3.486l0,0l-0.813-2.76l1.378-0.324l8.033,27.831l-1.461,0.321l-0.729-2.514l0,0
	c-0.405-1.542-0.892-2.596-1.704-3.407c-0.487-0.405-1.298-0.813-2.19-0.892c-0.649-0.163-2.191,0.161-4.707,0.811l0,0l-9.978,2.92
	l-17.932,17.77l0,0c-3.491,3.57-5.518,5.922-6.005,7.056c-0.405,1.219-0.486,2.598-0.081,4.139l0,0l-1.299,0.408l-6.897-23.775
	l1.379-0.403l0.326,1.053l0,0c0.487,1.379,0.895,2.436,1.461,2.76c0.57,0.484,1.217,0.647,1.624,0.484
	c0.892-0.242,2.841-1.865,5.681-4.786l0,0l13.953-13.63l-17.526-4.623l0,0c-4.298-1.137-7.058-1.624-8.192-1.299
	c-0.732,0.242-1.219,0.729-1.381,1.46c-0.405,0.974-0.405,2.68,0.163,4.871l0,0l-1.38,0.405L37.455,351.223L37.455,351.223z
	 M35.102,296.862l13.956-0.487v1.461l0,0c-3.165,0.813-5.518,1.785-6.814,2.839c-1.298,1.055-2.435,2.434-3.165,4.22
	c-0.487,0.973-0.569,2.678-0.487,5.11l0,0l0.081,3.815l39.755-1.462l0,0c2.597-0.081,4.302-0.244,4.95-0.487
	c0.65-0.324,1.217-0.974,1.621-1.865c0.488-0.811,0.649-2.029,0.649-3.49l0,0l-0.079-1.703l1.458-0.081l0.895,27.099l-1.461,0.081
	v-1.785l0,0c0-1.461-0.325-2.677-0.892-3.571c-0.326-0.648-1.055-1.135-1.866-1.542c-0.65-0.242-2.191-0.324-4.788-0.242l0,0
	l-39.836,1.379l0.163,3.732l0,0c0.163,3.406,0.974,6.005,2.433,7.546c2.111,2.108,5.113,3.406,8.925,3.813l0,0l0.082,1.46
	l-14.038,0.566L35.102,296.862L35.102,296.862z M88.571,272.847l1.378,0.082l-1.866,26.855l-1.378-0.082l0.079-1.624l0,0
	c0.083-1.54,0-2.757-0.487-3.731c-0.324-0.65-0.974-1.216-1.703-1.623c-0.567-0.324-2.191-0.487-4.786-0.73l0,0l-33.916-2.354l0,0
	c-2.595-0.162-4.299-0.162-4.948,0c-0.65,0.325-1.217,0.731-1.786,1.541c-0.568,0.813-0.892,2.03-0.974,3.409l0,0l-0.16,1.705
	l-1.461-0.082l1.945-26.936l1.382,0.163l-0.163,1.704l0,0c0,1.46,0.081,2.677,0.568,3.651c0.324,0.649,0.974,1.137,1.786,1.624
	c0.566,0.405,2.19,0.648,4.705,0.729l0,0l33.913,2.435l0,0c2.595,0.162,4.298,0.162,4.947-0.163c0.65-0.163,1.3-0.73,1.866-1.46
	c0.488-0.893,0.813-2.028,0.976-3.407l0,0L88.571,272.847L88.571,272.847z M45.081,238.771l37.809-15.577l-21.256-6.167l0,0
	c-3.086-0.811-5.194-0.974-6.493-0.487c-1.703,0.893-3.002,2.596-3.731,5.437l0,0l-1.379-0.487l4.706-16.391l1.379,0.408l0,0
	c-0.325,2.108-0.405,3.731-0.163,4.462c0.163,0.811,0.813,1.703,1.623,2.352c0.81,0.567,2.433,1.379,4.786,1.948l0,0l41.379,11.926
	l-0.408,1.217l-50.951,21.662l31.561,9.086l0,0c2.839,0.813,4.868,0.733,6.329-0.242c1.297-1.055,2.271-2.434,2.758-4.139l0,0
	l0.325-1.135l1.379,0.406l-5.031,17.607l-1.379-0.487l0,0c0.732-2.598,0.732-4.706-0.079-6.085c-0.733-1.38-2.436-2.434-5.114-3.246
	l0,0l-35.049-10.06l-1.621,0.73l0,0c-1.623,0.65-2.76,1.298-3.41,2.028c-0.568,0.729-1.218,1.785-1.621,3.245l0,0l-1.379-0.403
	L45.081,238.771L45.081,238.771z M95.467,181.328c3.407-3.732,6.327-6.003,8.762-6.897c3.325-1.298,6.733-1.137,9.896,0.731
	c3.328,1.946,5.356,4.95,6.004,8.843c0.73,4.87-0.729,10.467-4.381,16.876l0,0l-13.064,22.636l-1.216-0.73l0,0
	c1.136-1.945,1.704-3.488,1.786-4.381c0-0.973-0.163-1.866-0.57-2.432c-0.484-0.649-1.945-1.786-4.298-3.085l0,0l-29.045-16.793l0,0
	c-2.435-1.379-3.976-2.029-4.789-2.111c-0.811-0.163-1.624,0.163-2.515,0.568c-0.729,0.569-1.703,1.868-2.84,3.896l0,0l-1.297-0.73
	l12.332-21.42l0,0c3.002-5.11,5.598-8.518,7.709-10.06c2.19-1.622,4.542-2.515,6.976-2.678c2.595-0.16,4.786,0.326,6.896,1.461
	c2.108,1.217,3.652,3.246,4.381,5.68C96.925,173.214,96.764,176.704,95.467,181.328L95.467,181.328z M87.676,192.769
	c1.786-3.165,2.678-5.599,2.839-7.546c0.246-1.866-0.161-3.65-0.974-5.11c-0.809-1.542-2.19-2.922-4.219-4.057
	c-1.946-1.136-3.731-1.624-5.515-1.624c-1.624,0.081-3.328,0.65-4.789,1.703c-1.458,1.056-3.165,3.246-4.949,6.409l0,0
	L87.676,192.769L87.676,192.769z M90.191,194.229l14.363,8.193l1.621,1.137l0,0c1.216,0.648,2.353,0.811,3.244,0.568
	c0.895-0.244,1.706-0.973,2.435-2.109c0.975-1.786,1.541-3.652,1.623-5.597c0-1.949-0.324-3.734-1.382-5.356
	c-1.053-1.624-2.515-3.002-4.297-4.056c-2.111-1.217-4.22-1.787-6.493-1.867c-2.19,0.081-4.136,0.73-5.76,2.109
	C93.844,188.468,92.22,190.821,90.191,194.229L90.191,194.229z M84.027,151.472l17.442-20.122l1.057,1.055l-0.895,0.972l0,0
	c-1.216,1.382-2.028,2.597-2.191,3.489c-0.161,0.73-0.079,1.624,0.245,2.272c0.405,0.73,1.704,2.109,3.894,4.058l0,0l19.066,16.55
	l0,0c3.491,3.003,6.085,4.787,7.627,5.273c1.624,0.407,3.247,0.324,5.03-0.163c1.786-0.566,3.57-1.784,5.111-3.569
	c1.869-2.111,2.922-4.382,3.247-6.735c0.405-2.27,0-4.544-1.057-6.734c-1.053-2.109-3.569-4.949-7.705-8.601l0,0l-15.821-13.872l0,0
	c-1.786-1.461-3.244-2.273-4.302-2.597c-0.974-0.325-1.945-0.405-2.757,0c-1.137,0.408-2.353,1.461-3.815,3.083l0,0l-1.053-0.973
	l11.765-13.469l1.055,0.975l-0.729,0.729l0,0c-0.976,1.053-1.462,2.19-1.705,3.326c-0.163,1.055,0,2.191,0.568,3.325
	c0.403,0.811,1.378,1.867,3.082,3.247l0,0l14.688,12.819l0,0c4.623,3.975,7.625,7.221,9.167,9.573
	c1.542,2.27,2.11,5.436,1.786,9.167c-0.325,3.894-2.273,7.87-5.762,11.846c-3.001,3.409-5.599,5.599-8.193,6.734
	c-3.328,1.298-6.492,1.704-9.249,1.135c-2.841-0.566-5.922-2.271-9.17-5.11l0,0l-19.065-16.634l0,0
	c-2.191-1.865-3.733-3.002-4.462-3.244c-0.732-0.245-1.624-0.245-2.435,0.163c-0.892,0.324-2.029,1.379-3.407,3.001l0,0
	L84.027,151.472L84.027,151.472z M154.775,118.855l8.925,11.36l0,0c1.705,2.19,3.002,3.487,3.649,3.812
	c0.732,0.408,1.624,0.487,2.516,0.324c0.895-0.242,2.273-1.053,4.139-2.515l0,0l0.892,1.137l-20.77,16.226l-0.974-1.135l0,0
	c1.949-1.46,3.083-2.677,3.489-3.408c0.405-0.892,0.488-1.784,0.326-2.514c-0.163-0.73-1.137-2.272-2.841-4.381l0,0l-20.606-26.451
	l0,0c-1.707-2.271-2.923-3.488-3.652-3.812c-0.729-0.406-1.542-0.569-2.515-0.324c-0.892,0.163-2.353,1.053-4.22,2.515l0,0
	l-0.811-1.137l18.903-14.767l0,0c4.868-3.894,8.762-6.327,11.603-7.464c2.76-1.137,5.681-1.216,8.438-0.65
	c2.922,0.813,5.355,2.354,7.303,4.787c2.27,3.001,3.083,6.409,2.516,10.06c-0.487,2.273-1.623,4.705-3.652,7.303l0,0l20.528,6.085
	l0,0c2.677,0.811,4.543,1.135,5.434,1.135c1.217,0,2.436-0.324,3.57-1.135l0,0l0.895,1.135l-12.822,9.981l-27.503-8.277
	L154.775,118.855L154.775,118.855z M139.196,98.815l13.876,17.849l1.783-1.379l0,0c2.761-2.109,4.626-3.976,5.679-5.518
	c0.892-1.622,1.3-3.325,0.976-5.355c-0.245-1.946-1.137-3.975-2.841-6.084c-2.435-3.164-4.95-4.869-7.546-5.273
	c-2.595-0.325-5.518,0.811-8.679,3.245l0,0L139.196,98.815L139.196,98.815z M195.18,60.601l35.7,20.123l-8.358-20.609l0,0
	c-1.137-2.84-2.353-4.625-3.569-5.274c-1.704-0.813-3.894-0.813-6.493,0.406l0,0l-0.566-1.38l15.821-6.409l0.566,1.298l0,0
	c-1.866,1.055-3.164,1.948-3.649,2.678c-0.487,0.65-0.811,1.622-0.811,2.678c0,1.054,0.405,2.757,1.379,5.029l0,0l16.064,39.836
	l-1.216,0.569L191.611,72.69l12.331,30.506l0,0c1.055,2.677,2.434,4.3,3.975,4.705c1.703,0.406,3.41,0.324,4.95-0.324l0,0
	l1.134-0.487l0.57,1.38l-16.958,6.814l-0.487-1.298l0,0c2.515-1.055,4.139-2.354,4.788-3.813c0.566-1.459,0.403-3.488-0.65-5.923
	l0,0l-13.631-33.833l-1.54-0.972l0,0c-1.542-0.813-2.76-1.219-3.733-1.38c-0.893,0-2.19,0.161-3.571,0.73l0,0l-0.487-1.379
	L195.18,60.601L195.18,60.601z M233.798,45.916l26.288-4.625l0.245,1.38l-1.219,0.242l0,0c-2.028,0.324-3.407,0.813-3.975,1.299
	c-0.65,0.566-1.056,1.297-1.298,1.946c-0.163,0.893-0.084,2.677,0.487,5.679l0,0l4.381,24.746l0,0
	c0.729,4.626,1.624,7.627,2.677,8.925c0.892,1.379,2.191,2.433,3.894,3.083c1.784,0.648,3.894,0.81,6.328,0.406
	c2.76-0.487,4.951-1.542,6.654-3.084c1.786-1.54,2.92-3.57,3.407-5.921c0.65-2.354,0.487-6.166-0.487-11.684l0,0l-3.649-20.607l0,0
	c-0.408-2.273-0.974-3.896-1.624-4.789c-0.568-0.811-1.379-1.542-2.111-1.703c-1.217-0.325-2.92-0.405-4.948,0l0,0l-0.324-1.461
	l17.687-3.083l0.245,1.379l-1.057,0.245l0,0c-1.379,0.242-2.595,0.729-3.407,1.459c-0.811,0.73-1.379,1.704-1.703,2.922
	c-0.163,0.972,0,2.353,0.405,4.462l0,0l3.327,19.229l0,0c1.055,6.003,1.379,10.386,1.137,13.225
	c-0.324,2.757-1.787,5.597-4.463,8.275c-2.675,2.759-6.651,4.705-11.924,5.597c-4.381,0.732-7.872,0.732-10.548,0
	c-3.489-0.972-6.085-2.758-7.951-4.947c-1.786-2.191-3.084-5.518-3.894-9.738l0,0l-4.381-24.825l0,0
	c-0.407-2.923-0.974-4.789-1.381-5.436c-0.405-0.569-1.134-1.135-2.028-1.298c-0.809-0.408-2.353-0.245-4.46,0.079l0,0
	L233.798,45.916L233.798,45.916z M358.825,39.75l-1.621,17.119l-1.542-0.163l0,0c-0.245-4.381-1.706-8.112-4.139-10.953
	c-2.595-3.082-5.518-4.705-8.846-5.192c-2.514-0.325-4.623,0.163-6.408,1.38c-1.622,1.217-2.515,2.677-2.757,4.462
	c-0.163,1.137,0.079,2.11,0.403,3.083c0.57,1.298,1.624,2.677,3.086,3.976c1.134,0.973,3.731,2.84,7.625,5.435
	c5.68,3.732,9.412,6.977,11.115,9.817c1.786,2.922,2.515,6.005,2.028,9.41c-0.487,4.22-2.677,7.79-6.41,10.387
	c-3.652,2.677-8.194,3.731-13.225,3.082c-1.621-0.163-3.162-0.486-4.544-1.053c-1.378-0.406-3.162-1.299-5.11-2.515
	c-1.137-0.65-2.191-1.055-2.92-1.137c-0.732,0-1.379,0.082-2.191,0.569c-0.811,0.405-1.46,1.055-2.027,2.108l0,0l-1.462-0.242
	l2.353-19.311l1.462,0.243l0,0c0.405,5.516,2.029,9.897,4.868,13.145c2.837,3.325,6.002,5.112,9.733,5.598
	c2.76,0.242,5.114-0.245,6.98-1.542c1.865-1.299,2.919-3.002,3.244-5.031c0.163-1.216-0.079-2.515-0.65-3.731
	c-0.405-1.137-1.299-2.353-2.433-3.489c-1.135-1.137-3.406-2.841-6.492-4.87c-4.381-2.839-7.462-5.273-9.328-7.058
	c-1.867-1.866-3.246-3.894-3.978-6.004c-0.974-2.028-1.136-4.381-0.892-6.735c0.488-4.137,2.434-7.382,5.681-9.897
	c3.407-2.516,7.383-3.49,11.924-2.923c1.706,0.163,3.247,0.65,4.706,1.22c1.219,0.405,2.598,1.135,4.218,2.19
	c1.544,1.055,2.678,1.542,3.41,1.621c0.65,0.083,1.216-0.079,1.621-0.404c0.408-0.325,0.895-1.217,1.382-2.759l0,0L358.825,39.75
	L358.825,39.75z M378.215,75.53l-4.623,13.63l0,0c-0.892,2.515-1.299,4.299-1.216,5.031c0.079,0.811,0.487,1.541,1.134,2.271
	c0.732,0.65,2.193,1.38,4.381,2.112l0,0l-0.484,1.377l-24.828-8.52l0.487-1.379l0,0c2.19,0.813,3.894,1.137,4.789,1.056
	c0.891-0.164,1.703-0.568,2.19-1.056c0.647-0.566,1.296-2.19,2.189-4.785l0,0l10.955-31.726l0,0
	c0.892-2.675,1.379-4.381,1.297-5.191c-0.163-0.811-0.566-1.543-1.137-2.272c-0.729-0.569-2.19-1.3-4.461-2.109l0,0l0.487-1.38
	l21.339,7.304l0,0c6.976,2.432,11.599,5.434,13.71,9.004c2.191,3.49,2.757,7.14,1.462,10.873c-1.137,3.164-3.085,5.516-5.762,7.219
	c-2.758,1.543-6.086,2.191-9.817,1.706C387.79,78.532,383.816,77.478,378.215,75.53L378.215,75.53z M386.49,51.676l-7.218,21.096
	l0,0c0.729,0.243,1.216,0.569,1.703,0.648c2.92,1.058,5.436,0.974,7.708-0.242c2.19-1.216,3.811-3.731,5.11-7.303
	c1.216-3.571,1.379-6.571,0.405-8.762c-1.055-2.191-3.162-3.895-6.327-4.95l0,0L386.49,51.676L386.49,51.676z M441.175,71.475
	c7.142,3.731,11.848,9.249,13.714,16.225c1.866,6.979,0.971,13.793-2.923,20.365c-3.245,5.76-7.868,9.817-13.63,12.169
	c-7.625,3.165-15.496,2.515-23.526-2.108c-8.114-4.707-12.74-11.116-13.956-19.069c-0.974-6.247,0.242-12.332,3.649-18.255
	c3.813-6.734,9.331-10.953,16.308-12.737C427.953,66.281,434.686,67.334,441.175,71.475L441.175,71.475z M440.283,73.827
	c-4.056-2.353-8.437-2.11-12.901,0.81c-3.649,2.515-7.463,6.896-11.194,13.306c-4.382,7.545-6.248,14.036-5.68,19.23
	c0.324,3.569,2.273,6.409,5.597,8.354c2.273,1.299,4.465,1.786,6.572,1.624c2.84-0.243,5.681-1.703,8.438-4.137
	c2.922-2.515,5.842-6.248,8.682-11.115c3.407-5.924,5.356-10.71,6.004-14.278c0.568-3.489,0.326-6.493-0.648-8.602
	C444.177,76.748,442.475,75.124,440.283,73.827L440.283,73.827z M465.842,124.21l-10.062,10.384l0,0
	c-1.865,1.948-2.92,3.409-3.244,4.138c-0.245,0.65-0.163,1.624,0.079,2.515c0.326,0.813,1.379,2.11,3.002,3.733l0,0l-0.974,1.055
	l-18.986-18.336l0.976-1.054l0,0c1.703,1.622,3.084,2.596,3.894,2.92c0.974,0.325,1.866,0.242,2.514,0
	c0.733-0.245,2.112-1.461,3.978-3.407l0,0l23.367-24.097l0,0c1.945-2.111,3.003-3.488,3.324-4.137
	c0.163-0.813,0.163-1.704-0.079-2.598c-0.326-0.81-1.379-2.109-3.083-3.812l0,0l0.972-1.056l17.282,16.715l0,0
	c4.544,4.381,7.463,7.788,8.925,10.466c1.54,2.595,2.027,5.434,1.866,8.356c-0.405,2.922-1.542,5.598-3.733,7.789
	c-2.677,2.758-5.842,4.056-9.573,3.975c-2.353-0.163-4.949-0.893-7.709-2.596l0,0l-3.245,21.256l0,0
	c-0.405,2.678-0.487,4.544-0.405,5.356c0.163,1.216,0.729,2.433,1.621,3.406l0,0l-0.974,1.056l-11.682-11.278l4.381-28.397
	L465.842,124.21L465.842,124.21z M483.446,105.874l-15.659,16.308l1.542,1.542l0,0c2.515,2.435,4.626,3.976,6.329,4.868
	c1.705,0.65,3.491,0.813,5.357,0.243c1.945-0.568,3.81-1.785,5.678-3.651c2.76-2.922,4.139-5.598,4.139-8.194
	c-0.081-2.596-1.542-5.436-4.383-8.195l0,0L483.446,105.874L483.446,105.874z M531.722,195.041l-12.09,26.53l0,0
	c-1.623,3.652-2.595,6.653-2.678,8.844c-0.162,1.542,0.083,3.001,0.813,4.299l0,0l-1.299,0.65l-12.249-23.934l1.297-0.65l0,0
	c0.974,1.379,1.703,2.272,2.19,2.515c0.57,0.242,1.219,0.324,1.624,0.081c0.974-0.487,2.191-2.516,3.815-5.841l0,0l7.867-17.282
	l-2.271-0.975l-12.577,6.33l0,0c-2.353,1.216-3.813,2.109-4.298,2.758c-0.408,0.57-0.649,1.38-0.649,2.273
	c-0.083,0.973,0.405,2.271,1.216,3.974l0,0l-1.299,0.65l-11.844-23.204l1.299-0.649l0.808,1.542l0,0
	c0.65,1.297,1.382,2.271,2.353,2.92c0.65,0.324,1.382,0.567,2.273,0.487c0.65,0,2.191-0.567,4.462-1.786l0,0l30.346-15.414l0,0
	c2.353-1.217,3.731-2.111,4.136-2.678c0.487-0.487,0.811-1.299,0.811-2.272c0-0.972-0.245-2.109-0.892-3.409l0,0l-0.811-1.54
	l1.298-0.65l11.682,22.879l-1.298,0.732l0,0c-0.729-1.543-1.621-2.678-2.516-3.246c-0.487-0.405-1.378-0.567-2.271-0.567
	c-0.649,0-2.273,0.649-4.544,1.783l0,0l-14.359,7.304l22.555,10.06l0,0c3.082,1.38,5.273,1.784,6.409,1.216
	c0.892-0.406,1.295-1.298,1.295-2.514c0-0.65-0.403-1.949-1.379-3.978l0,0l1.218-0.648l9.249,17.932l-1.3,0.729l0,0
	c-0.971-1.622-1.945-2.758-2.836-3.407c-0.894-0.65-3.652-2.028-7.954-3.977l0,0L531.722,195.041L531.722,195.041z M564.742,216.622
	l6.005,25.964l-1.461,0.324l-0.245-1.217l0,0c-0.484-1.948-0.971-3.246-1.542-3.895c-0.566-0.648-1.379-0.972-2.108-1.134
	c-0.732-0.163-2.598,0.08-5.436,0.729l0,0l-24.665,5.681l0,0c-4.46,1.053-7.463,2.108-8.683,3.082
	c-1.378,0.974-2.271,2.434-2.837,4.139c-0.649,1.783-0.731,3.894-0.163,6.247c0.65,2.839,1.866,4.949,3.486,6.572
	c1.625,1.621,3.652,2.757,6.088,3.081c2.35,0.488,6.165,0.163,11.6-1.053l0,0l20.446-4.789l0,0c2.191-0.485,3.812-1.134,4.625-1.866
	c0.893-0.649,1.461-1.378,1.703-2.271c0.245-1.217,0.163-2.76-0.321-4.789l0,0l1.458-0.405l3.976,17.443l-1.378,0.406l-0.245-1.137
	l0,0c-0.324-1.378-0.892-2.433-1.703-3.326c-0.729-0.73-1.787-1.297-3.003-1.459c-0.892-0.082-2.354,0.081-4.381,0.487l0,0
	l-19.066,4.381l0,0c-5.923,1.379-10.304,2.028-13.144,1.867c-2.758-0.163-5.679-1.541-8.52-4.057
	c-2.919-2.516-4.948-6.41-6.165-11.603c-0.974-4.301-1.135-7.79-0.569-10.549c0.894-3.488,2.352-6.247,4.463-8.193
	c2.191-1.948,5.435-3.409,9.492-4.3l0,0l24.666-5.681l0,0c2.92-0.729,4.706-1.297,5.352-1.785c0.571-0.405,1.138-1.134,1.3-2.027
	c0.245-0.811,0-2.354-0.487-4.544l0,0L564.742,216.622L564.742,216.622z M545.515,321.121l-18.174-1.299l-1.624-45.84l1.46-0.08
	v1.785l0,0c0.08,1.379,0.405,2.596,0.892,3.568c0.406,0.65,1.053,1.135,1.866,1.38c0.649,0.326,2.273,0.405,4.789,0.326l0,0
	l33.995-1.219l0,0c2.674-0.081,4.381-0.324,4.865-0.568c0.65-0.244,1.3-0.892,1.787-1.785c0.403-0.81,0.648-1.947,0.566-3.409l0,0
	l-0.08-1.703l1.461-0.082l0.971,27.505l-1.458,0.082l-0.082-2.272l0,0c-0.081-1.462-0.242-2.678-0.892-3.57
	c-0.408-0.65-1.055-1.137-1.866-1.542c-0.733-0.163-2.273-0.245-4.868-0.163l0,0l-32.78,1.135l0,0
	c-2.678,0.082-4.381,0.245-5.11,0.65c-0.65,0.324-1.299,0.892-1.463,1.703c-0.242,0.65-0.324,2.273-0.242,4.706l0,0l0.162,4.302l0,0
	c0.079,2.678,0.65,5.029,1.621,6.814c1.056,1.703,2.678,3.327,4.706,4.544c2.191,1.298,5.356,2.435,9.412,3.406l0,0L545.515,321.121
	L545.515,321.121z M579.752,326.964l-4.543,26.204l-1.461-0.242l0.245-1.216l0,0c0.242-2.028,0.324-3.41,0.08-4.22
	c-0.242-0.811-0.892-1.461-1.458-1.866c-0.732-0.408-2.437-0.974-5.356-1.461l0,0l-24.826-4.381l0,0
	c-4.544-0.813-7.791-0.974-9.249-0.57c-1.624,0.408-3.085,1.299-4.302,2.678c-1.216,1.46-2.108,3.326-2.516,5.76
	c-0.487,2.76-0.242,5.196,0.65,7.386c0.813,2.107,2.271,3.891,4.381,5.19c2.029,1.382,5.599,2.516,11.116,3.489l0,0l20.689,3.652
	l0,0c2.19,0.405,3.894,0.405,4.947,0.079c1.055-0.242,1.866-0.649,2.436-1.378c0.729-1.053,1.297-2.595,1.621-4.626l0,0l1.461,0.245
	l-3.082,17.605l-1.46-0.242l0.161-1.055l0,0c0.326-1.46,0.242-2.677-0.161-3.734c-0.488-0.971-1.218-1.866-2.273-2.595
	c-0.73-0.405-2.109-0.813-4.299-1.217l0,0l-19.229-3.327l0,0c-6.004-1.054-10.223-2.271-12.738-3.489
	c-2.515-1.217-4.623-3.649-6.327-7.056c-1.624-3.489-2.029-7.791-1.137-12.985c0.813-4.46,2.028-7.705,3.652-9.978
	c2.108-2.92,4.623-4.949,7.301-5.76c2.758-0.974,6.326-1.055,10.465-0.405l0,0l24.909,4.462l0,0
	c2.839,0.487,4.786,0.648,5.518,0.487c0.729-0.163,1.542-0.65,2.028-1.462c0.566-0.648,0.971-2.108,1.379-4.218l0,0L579.752,326.964
	L579.752,326.964z M588.919,362.417c-0.242,1.462-0.892,2.516-2.028,3.328c-1.134,0.811-2.433,1.137-3.812,0.811
	c-1.298-0.245-2.435-0.811-3.244-2.111c-0.895-1.137-1.058-2.353-0.895-3.731c0.245-1.379,0.976-2.516,2.111-3.245
	c1.217-0.892,2.515-1.057,3.812-0.892c1.299,0.324,2.436,0.971,3.247,2.107C588.919,359.822,589.165,361.119,588.919,362.417
	L588.919,362.417z M591.435,348.465c-0.326,1.295-0.892,2.432-2.028,3.324c-1.134,0.732-2.434,0.974-3.812,0.732
	c-1.379-0.245-2.435-0.895-3.327-2.031c-0.813-1.134-1.055-2.432-0.813-3.731c0.245-1.379,0.974-2.595,2.11-3.324
	c1.217-0.895,2.354-1.057,3.733-0.895c1.379,0.245,2.516,0.974,3.327,2.111C591.435,345.785,591.68,347.084,591.435,348.465
	L591.435,348.465z M534.561,406.15c-2.923,4.136-5.518,6.733-7.708,7.95c-3.164,1.867-6.571,2.028-9.899,0.733
	c-3.569-1.462-6.002-4.222-7.221-8.033c-1.379-4.628-0.81-10.467,2.028-17.284l0,0l9.818-24.258l1.296,0.566l0,0
	c-0.892,2.191-1.216,3.734-1.216,4.626c0.082,0.975,0.408,1.866,0.974,2.354c0.405,0.566,2.107,1.458,4.623,2.432l0,0l31.076,12.659
	l0,0c2.595,1.055,4.219,1.379,5.03,1.379c0.813,0,1.621-0.324,2.433-0.974c0.57-0.65,1.461-2.028,2.353-4.218l0,0l1.3,0.566
	l-9.249,22.963l0,0c-2.273,5.435-4.302,9.087-6.168,10.953c-1.946,1.945-4.22,3.163-6.651,3.649
	c-2.436,0.569-4.707,0.406-6.98-0.487c-2.269-0.973-4.056-2.678-5.11-4.949C534.238,414.342,533.912,410.773,534.561,406.15
	L534.561,406.15z M540.646,393.736c-1.378,3.326-1.865,5.922-1.703,7.788c0,1.866,0.568,3.652,1.542,5.031
	c1.053,1.298,2.595,2.435,4.705,3.327c2.191,0.892,4.136,1.137,5.76,0.813c1.705-0.326,3.245-1.058,4.625-2.273
	c1.218-1.297,2.597-3.733,3.976-7.057l0,0L540.646,393.736L540.646,393.736z M537.969,392.602l-15.416-6.167l-1.705-0.813l0,0
	c-1.295-0.487-2.432-0.566-3.324-0.162c-0.813,0.324-1.624,1.216-2.11,2.515c-0.73,1.785-0.976,3.652-0.813,5.679
	c0.163,1.866,0.892,3.652,2.11,5.112c1.297,1.46,2.92,2.677,4.868,3.406c2.191,0.975,4.382,1.137,6.651,0.975
	c2.112-0.405,3.978-1.299,5.436-2.841C535.128,398.683,536.428,396.17,537.969,392.602L537.969,392.602z M549.326,433.978
	l-14.522,22.31l-1.216-0.729l0.729-1.055l0,0c1.056-1.703,1.623-3.082,1.703-3.813c0.083-0.892-0.242-1.704-0.566-2.27
	c-0.487-0.729-1.946-1.866-4.381-3.489l0,0l-21.176-13.793l0,0c-3.894-2.433-6.735-3.812-8.275-4.057
	c-1.622-0.242-3.246,0-4.949,0.811c-1.787,0.813-3.247,2.191-4.626,4.299c-1.542,2.355-2.191,4.706-2.271,7.062
	c-0.082,2.271,0.566,4.46,1.945,6.489c1.379,1.949,4.302,4.544,8.925,7.546l0,0l17.608,11.44l0,0
	c1.866,1.295,3.489,1.866,4.544,2.029c1.053,0.161,2.028,0.079,2.757-0.408c1.053-0.568,2.19-1.784,3.327-3.57l0,0l1.217,0.812
	l-9.737,15.009l-1.216-0.811l0.569-0.892l0,0c0.809-1.216,1.217-2.436,1.296-3.489c0-1.137-0.405-2.271-1.054-3.244
	c-0.566-0.65-1.703-1.625-3.489-2.841l0,0l-16.388-10.545l0,0c-5.11-3.41-8.52-6.087-10.386-8.195
	c-1.784-2.191-2.92-5.114-3.002-9.008c-0.16-3.732,1.137-8.03,4.058-12.411c2.434-3.814,4.786-6.329,7.139-7.708
	c3.083-1.949,6.248-2.678,9.006-2.516c2.921,0.161,6.25,1.461,9.818,3.731l0,0l21.176,13.875l0,0
	c2.513,1.541,4.138,2.433,4.867,2.596c0.732,0.079,1.623-0.081,2.352-0.487c0.895-0.408,1.787-1.624,3.003-3.407l0,0
	L549.326,433.978L549.326,433.978z M543.892,470.246c-0.813,1.216-1.866,1.945-3.165,2.19c-1.459,0.405-2.678,0.081-3.812-0.648
	c-1.137-0.813-1.948-1.787-2.273-3.328c-0.242-1.299,0-2.515,0.813-3.652c0.65-1.216,1.703-2.028,3.082-2.271
	c1.462-0.245,2.76,0.081,3.897,0.813c1.134,0.65,1.866,1.703,2.191,3.082C544.945,467.81,544.623,469.11,543.892,470.246
	L543.892,470.246z M551.599,458.319c-0.729,1.134-1.866,1.945-3.165,2.189c-1.379,0.326-2.595,0-3.732-0.648
	c-1.137-0.732-1.948-1.867-2.271-3.248c-0.324-1.38,0-2.596,0.647-3.732c0.813-1.134,1.949-1.945,3.247-2.271
	c1.379-0.245,2.675,0,3.812,0.73c1.137,0.811,1.948,1.866,2.19,3.164C552.654,455.883,552.328,457.183,551.599,458.319
	L551.599,458.319z M26.99,277.31c2.92,0,5.194,2.272,5.194,5.11c0,2.839-2.273,5.113-5.194,5.113c-2.758,0-4.949-2.273-4.949-5.113
	C22.041,279.582,24.232,277.31,26.99,277.31L26.99,277.31z"/>
<path style="fill:#FFFFFF;" d="M291.646,241.529l-48.517,69.126h15.742l0,0c7.3,0,12.656-0.569,15.496-1.299
	c4.707-1.297,9.087-3.651,12.493-7.139c3.491-3.407,5.844-8.033,7.222-13.956l0,0h2.353l-3.326,26.451h-75.534l48.597-69.208
	h-12.251l0,0c-4.865,0-7.951,0.163-9.409,0.326c-2.84,0.487-5.518,1.379-7.954,2.759c-2.512,1.38-4.623,3.407-6.247,5.678
	c-1.621,2.191-2.999,5.031-3.894,8.683l0,0h-2.27l2.27-21.42H291.646L291.646,241.529z M385.195,275.848
	c7.95,1.624,13.385,3.571,16.551,5.843c4.463,3.326,6.815,7.625,6.815,12.819c0,5.436-2.435,10.223-7.465,13.63
	c-6.085,4.3-15.01,6.572-26.691,6.572l0,0h-41.946v-2.029l0,0c3.731,0,6.328-0.325,7.706-0.892c1.382-0.732,2.353-1.461,2.922-2.436
	c0.567-0.974,0.813-3.569,0.813-7.545l0,0v-47.382l0,0c0-4.057-0.245-6.652-0.813-7.463c-0.569-1.137-1.54-1.949-2.922-2.515
	c-1.379-0.569-3.975-0.976-7.706-0.976l0,0v-1.946h39.592l0,0c9.412,0,16.147,0.73,20.121,2.272
	c3.815,1.379,7.059,3.652,9.249,6.571c2.273,3.004,3.407,6.248,3.407,9.494c0,3.65-1.542,6.732-4.381,9.41
	C397.609,272.116,392.495,274.308,385.195,275.848L385.195,275.848z M363.127,274.469c5.76,0,10.06-0.648,12.735-1.703
	c2.76-1.216,4.868-2.92,6.331-4.948c1.54-1.948,2.189-4.788,2.189-7.951c0-3.246-0.649-5.842-2.189-7.871
	c-1.462-2.272-3.407-3.813-6.168-4.868c-2.596-0.974-7.06-1.461-12.898-1.461l0,0V274.469L363.127,274.469z M363.127,278.688v23.448
	l-0.084,2.759l0,0c0,1.866,0.57,3.325,1.704,4.299c1.137,0.892,2.84,1.542,4.95,1.542c3.245,0,6.247-0.73,8.925-1.946
	c2.758-1.299,4.868-3.084,6.328-5.518c1.54-2.433,2.272-5.194,2.272-8.114c0-3.489-0.891-6.571-2.76-9.167
	c-1.782-2.678-4.218-4.705-7.3-5.842C373.997,279.095,369.29,278.688,363.127,278.688L363.127,278.688z"/>
</svg>
