<?xml version="1.0" encoding="UTF-8" standalone="no"?>
<svg
   xmlns:dc="http://purl.org/dc/elements/1.1/"
   xmlns:cc="http://creativecommons.org/ns#"
   xmlns:rdf="http://www.w3.org/1999/02/22-rdf-syntax-ns#"
   xmlns:svg="http://www.w3.org/2000/svg"
   xmlns="http://www.w3.org/2000/svg"
   xmlns:sodipodi="http://sodipodi.sourceforge.net/DTD/sodipodi-0.dtd"
   xmlns:inkscape="http://www.inkscape.org/namespaces/inkscape"
   version="1.1"
   id="Layer_1"
   x="0px"
   y="0px"
   viewBox="0 0 1000 1000"
   xml:space="preserve"
   sodipodi:docname="Mainz Fsv  .svg"
   width="1000"
   height="1000"
   inkscape:version="1.0.1 (3bc2e813f5, 2020-09-07)"><metadata
   id="metadata43"><rdf:RDF><cc:Work
       rdf:about=""><dc:format>image/svg+xml</dc:format><dc:type
         rdf:resource="http://purl.org/dc/dcmitype/StillImage" /><dc:title></dc:title></cc:Work></rdf:RDF></metadata><defs
   id="defs41" /><sodipodi:namedview
   pagecolor="#ffffff"
   bordercolor="#666666"
   borderopacity="1"
   objecttolerance="10"
   gridtolerance="10"
   guidetolerance="10"
   inkscape:pageopacity="0"
   inkscape:pageshadow="2"
   inkscape:window-width="1920"
   inkscape:window-height="1017"
   id="namedview39"
   showgrid="false"
   inkscape:zoom="0.863"
   inkscape:cx="500"
   inkscape:cy="500"
   inkscape:window-x="-8"
   inkscape:window-y="-8"
   inkscape:window-maximized="1"
   inkscape:current-layer="Layer_1" />

















<g
   id="g886"
   transform="matrix(1.6608479,0,0,1.6608479,-2.8690278,-2.3823993)"><ellipse
     transform="matrix(0.7071,-0.7071,0.7071,0.7071,-125.2104,302.6895)"
     style="fill:#ffffff"
     cx="302.77301"
     cy="302.487"
     rx="279.05701"
     ry="279.05801"
     id="ellipse2" /><path
     style="fill:#ee3124"
     d="m 16.78,302.488 c 0,157.699 128.295,285.996 285.993,285.996 157.698,0 285.997,-128.297 285.997,-285.996 C 588.77,144.786 460.472,16.487 302.773,16.487 145.075,16.487 16.78,144.786 16.78,302.488 Z m 13.877,0 c 0,-150.05 122.068,-272.122 272.115,-272.122 150.047,0 272.12,122.072 272.12,272.122 0,150.046 -122.073,272.119 -272.12,272.119 C 152.726,574.606 30.657,452.534 30.657,302.488 Z"
     id="path4" /><path
     style="fill:#ee3124"
     d="m 98.215,302.489 c 0,112.795 91.764,204.56 204.557,204.56 112.796,0 204.562,-91.765 204.562,-204.56 0,-112.793 -91.766,-204.561 -204.562,-204.561 -112.793,0 -204.557,91.767 -204.557,204.561 z m 5.046,0 c 0,-110.012 89.498,-199.515 199.511,-199.515 110.014,0 199.517,89.503 199.517,199.515 0,110.012 -89.503,199.515 -199.517,199.515 -110.012,0 -199.511,-89.503 -199.511,-199.515 z"
     id="path6" /><path
     style="fill:#ee3124"
     d="m 154.928,523.818 -7.968,-6.523 27.952,-34.148 -0.113,-0.093 -35.58,27.903 -8.366,-6.847 20.499,-40.251 -0.117,-0.094 -27.951,34.15 -7.967,-6.524 33.447,-40.863 12.464,10.202 -18.969,38.271 0.113,0.093 33.655,-26.25 12.35,10.109 z"
     id="path8" /><path
     style="fill:#ee3124"
     d="m 214.237,508.34 0.136,0.058 -2.247,21.774 -12.363,-5.32 z m -20.78,23.725 17.901,7.704 -1.194,11.335 11.01,4.741 3.786,-55.864 -11.686,-5.03 -38.172,41.063 10.673,4.594 z"
     id="path10" /><path
     style="fill:#ee3124"
     d="m 251.814,562.559 -10.781,-2.337 11.18,-51.611 10.783,2.336 z"
     id="path12" /><path
     style="fill:#ee3124"
     d="m 309.4,514.778 10.296,0.219 -1.125,52.796 -11.03,-0.232 -20.743,-38.109 -0.146,-0.004 -0.802,37.65 -10.295,-0.22 1.123,-52.796 11.621,0.247 20.171,37.211 0.148,0.005 z"
     id="path14" /><path
     style="fill:#ee3124"
     d="m 381.4,556.378 -40.25,9.074 -2.054,-9.113 19.113,-39.292 -25.899,5.837 -2.057,-9.111 39.39,-8.879 1.912,8.465 -19.329,40.02 27.122,-6.115 z"
     id="path16" /><path
     style="fill:#ee3124"
     d="m 424.181,509.072 c -7.19,-11.377 -8.533,-16.532 -3.559,-19.676 4.972,-3.143 9.052,0.281 16.246,11.657 7.19,11.38 8.574,16.594 3.598,19.738 -4.97,3.146 -9.091,-0.344 -16.285,-11.719 z m -8.949,5.658 c 9.785,15.481 19.254,19.587 29.636,13.025 10.383,-6.563 10.735,-16.878 0.949,-32.359 -9.786,-15.482 -19.216,-19.525 -29.598,-12.963 -10.382,6.563 -10.773,16.817 -0.987,32.297 z"
     id="path18" /><path
     style="fill:#ee3124"
     d="m 460.301,475.118 c 0.445,-2.283 1.053,-5.031 4.688,-8.573 5.003,-4.876 14.713,-7.561 23.08,1.026 4.98,5.109 10.509,15.947 -0.5,26.676 -5.845,5.697 -15.187,8.021 -22.897,0.848 l 7.375,-7.186 c 3.292,2.75 6.93,3.21 10.194,0.03 3.529,-3.442 2.658,-8.444 -1.244,-12.449 -3.234,-3.317 -8.1,-5.149 -11.998,-1.351 -1,0.976 -3.479,3.493 -2.334,7.512 l -6.891,6.102 -17.438,-23.061 20.541,-20.017 6.057,6.213 -15.222,14.836 z"
     id="path20" /><path
     style="fill:#ee3124"
     d="m 211.129,69.954 1.128,-0.381 c 7.621,-2.572 8.319,-7.21 7.477,-10.258 l 6.493,-2.192 13.528,40.082 -7.903,2.669 -9.316,-27.606 -9.541,3.219 z"
     id="path22" /><path
     style="fill:#ee3124"
     d="m 255.714,93.02 -8.68,2.132 -2.074,-8.448 8.678,-2.133 z"
     id="path24" /><path
     style="fill:#ee3124"
     d="m 278.477,89.197 -8.898,0.808 -3.854,-42.606 30.32,-2.744 0.683,7.537 -21.422,1.938 0.871,9.613 18.75,-1.697 0.683,7.536 -18.752,1.696 z"
     id="path26" /><path
     style="fill:#ee3124"
     d="m 317.454,75.012 c -0.186,2.379 0.538,7.004 8.301,7.804 4.21,0.432 8.993,-0.091 9.459,-4.596 0.341,-3.32 -2.766,-4.539 -7.162,-6.068 l -4.451,-1.538 c -6.712,-2.308 -13.191,-4.532 -12.226,-13.898 0.488,-4.742 3.898,-12.836 17.706,-11.413 13.039,1.343 15.656,10.238 15.178,15.459 l -8.533,-0.879 c -0.044,-1.922 -0.29,-6.496 -8.052,-7.299 -3.379,-0.349 -7.538,0.482 -7.934,4.335 -0.344,3.319 2.311,4.311 4.047,4.908 l 10.108,3.616 c 5.663,2.022 10.752,4.942 9.966,12.587 -1.32,12.8 -14.477,12.584 -18.209,12.199 -15.527,-1.599 -17.271,-10.824 -16.73,-16.097 z"
     id="path28" /><path
     style="fill:#ee3124"
     d="m 389.322,59.853 8.863,2.798 -26.74,36.418 -8.125,-2.563 -0.874,-45.136 9.148,2.888 -1.007,33.669 0.115,0.038 z"
     id="path30" /><path
     style="fill:#ee3124"
     d="M 494.57,300.396 C 486.282,136.953 340.761,113.18 340.761,113.18 c -7.525,-1.279 -14.549,4.875 -14.549,10.897 0,6.018 3.465,9.791 9.025,10.898 16.167,5.386 30.171,11.747 42.318,18.748 l -74.783,69.411 -74.554,-69.538 c 12.094,-6.953 26.023,-13.268 42.087,-18.621 5.564,-1.107 9.022,-4.881 9.022,-10.898 0,-6.022 -7.021,-12.176 -14.547,-10.897 0,0 -145.519,23.773 -153.807,187.217 0,0 -11.053,111.934 112.361,177.314 l 16.577,-50.521 c 0,0 -77.363,-24.761 -90.259,-141.65 0,0 -6.228,-65.931 54.366,-115.363 L 285.04,247.9 v 149.573 c 0,0 -14.737,77.266 -28.551,90.144 0,0 28.783,9.221 46.281,7.242 17.497,1.979 46.28,-7.242 46.28,-7.242 -13.815,-12.877 -28.551,-90.144 -28.551,-90.144 V 247.899 l 81.433,-77.389 c 60.166,49.393 53.953,115.029 53.953,115.029 -12.897,116.889 -90.254,141.65 -90.254,141.65 l 16.574,50.521 C 505.623,412.33 494.57,300.396 494.57,300.396 Z"
     id="path32" /><path
     style="fill:#ee3124"
     d="m 343.711,258.08 v 68.463 c 0,0 31.918,-34.693 41.632,-19.428 9.716,15.266 8.788,43.021 -33.768,64.76 l 8.326,23.128 c 0,0 65.685,-39.318 63.373,-94.827 -2.313,-55.512 -53.196,-15.731 -53.196,-15.731 v -20.351 l 30.992,-25.905 v -28.68 z"
     id="path34" /><path
     style="fill:#ee3124"
     d="m 214.651,227.551 c 0,0 -38.854,0.463 -40.705,68.464 -1.852,67.997 38.855,94.133 52.732,92.051 12.761,-1.914 38.856,-4.163 40.245,-75.865 1.388,-71.698 -44.406,-87.889 -52.272,-84.65 z m 29.142,78.177 c -0.923,36.543 -12.824,38.11 -19.22,39.77 -6.396,1.657 -27.951,-12.317 -27.003,-47.137 0.948,-34.819 20.844,-35.06 20.844,-35.06 3.639,-0.595 26.294,6.345 25.379,42.427 z"
     id="path36" /></g>
</svg>
