<?xml version="1.0" encoding="UTF-8" standalone="no"?>
<svg
   xmlns:dc="http://purl.org/dc/elements/1.1/"
   xmlns:cc="http://creativecommons.org/ns#"
   xmlns:rdf="http://www.w3.org/1999/02/22-rdf-syntax-ns#"
   xmlns:svg="http://www.w3.org/2000/svg"
   xmlns="http://www.w3.org/2000/svg"
   xmlns:sodipodi="http://sodipodi.sourceforge.net/DTD/sodipodi-0.dtd"
   xmlns:inkscape="http://www.inkscape.org/namespaces/inkscape"
   version="1.1"
   id="Layer_1"
   x="0px"
   y="0px"
   viewBox="0 0 1000 1000"
   xml:space="preserve"
   sodipodi:docname="Arminia.svg"
   width="1000"
   height="1000"
   inkscape:version="1.0.1 (3bc2e813f5, 2020-09-07)"><metadata
   id="metadata33"><rdf:RDF><cc:Work
       rdf:about=""><dc:format>image/svg+xml</dc:format><dc:type
         rdf:resource="http://purl.org/dc/dcmitype/StillImage" /><dc:title></dc:title></cc:Work></rdf:RDF></metadata><defs
   id="defs31" /><sodipodi:namedview
   pagecolor="#ffffff"
   bordercolor="#666666"
   borderopacity="1"
   objecttolerance="10"
   gridtolerance="10"
   guidetolerance="10"
   inkscape:pageopacity="0"
   inkscape:pageshadow="2"
   inkscape:window-width="1920"
   inkscape:window-height="1017"
   id="namedview29"
   showgrid="false"
   inkscape:zoom="1.9812734"
   inkscape:cx="267"
   inkscape:cy="31"
   inkscape:window-x="-8"
   inkscape:window-y="-8"
   inkscape:window-maximized="1"
   inkscape:current-layer="Layer_1" />












<g
   id="g871"
   transform="matrix(4.4233891,0,0,4.4233891,-701.10876,335.65842)"><path
     style="fill:#414c76"
     d="m 212.792,-32.841 c 0.228,0.01 0.274,0.023 0.455,0.12 0.497,0.273 0.544,0.574 0.19,0.857 -0.334,0.264 -2.788,1.259 -3.613,1.763 -1.216,0.745 -1.993,2.154 -2.771,3.696 -1.268,2.523 -3.119,6.643 -3.737,7.685 -2.013,3.392 -7.472,8.788 -11.336,11.756 -1.876,1.439 -4.247,2.958 -5.836,4.24 -1.89,1.52 -6.969,5.97 -7.934,7.6 -0.651,1.092 -1.385,2.731 -1.385,2.731 0,0 0.888,1.139 1.008,1.439 0.06,0.154 0.017,1.072 -0.057,1.209 -0.063,0.11 -0.13,0.197 -0.113,0.297 0.02,0.117 0.614,0.608 0.965,0.959 0.16,0.156 0.5,0.817 0.547,1.062 0.354,1.824 -0.207,2.701 -1.512,3.767 -0.201,0.16 -1.499,0.697 -1.733,0.711 -0.488,0.037 -1.122,0 -1.122,0 0,0 -0.1,1.459 -0.21,1.943 -0.024,0.1 -0.047,0.16 -0.067,0.234 -0.097,0.334 0.096,7.707 0.096,7.707 0,0 -0.731,-0.882 -1.161,-1.444 -0.358,-0.46 -0.514,-0.72 -0.632,-1.048 -0.23,-0.654 -0.38,-1.739 -0.644,-2.414 -0.334,-0.858 -1.169,-2.18 -1.185,-2.397 -0.024,-0.314 0.841,-3.489 0.781,-3.64 -0.063,-0.153 -0.374,-0.37 -0.631,-0.621 -0.134,-0.13 -0.524,-1.005 -0.548,-1.228 -0.049,-0.511 0,-1.205 0,-1.205 0,0 -1.402,-0.475 -2.013,-0.799 -0.597,-0.316 -1.225,-1.058 -1.483,-1.702 -0.657,-1.67 0.745,-3.046 2.448,-3.713 0.634,-0.247 1.536,-0.545 1.536,-0.545 0,0 -0.384,-0.748 -0.601,-1.285 -0.204,-0.511 -0.264,-0.832 -0.33,-1.182 -0.268,-1.359 -0.685,-3.176 -0.899,-4.856 -0.1,-0.788 -0.1,-5.502 0,-6.604 0.875,-9.569 3.182,-16.177 8.608,-24.074 0.865,-1.259 9.065,-11.526 13.63,-17.269 0.14,-0.177 0.167,-0.197 0.277,-0.194 0.508,0.014 0.564,0.631 0.608,1.249 0.083,1.292 -0.107,3.57 -0.067,5.48 0.1,4.53 0.704,5.438 0.23,8.153 -0.337,1.927 -1.633,6.922 -2.167,7.79 -0.571,0.932 -1.345,1.129 -2.895,2.391 -2.32,1.893 -3.786,4.491 -6.467,5.292 -0.444,0.134 -0.992,0.247 -0.992,0.247 0,0 0.504,-1.582 0.992,-2.768 0.28,-0.681 1.452,-2.674 2.14,-3.736 0.347,-0.534 3.496,-7.653 3.736,-8.451 0.231,-0.755 0.692,-3.238 0.642,-3.445 -0.014,-0.058 -0.044,-0.108 -0.147,-0.111 -0.037,0 -0.054,0.021 -0.191,0.2 -3.927,5.259 -6.077,8.054 -8.364,13.109 -2.527,5.583 -1.759,6.18 -3.693,13.674 -0.344,1.328 -2.327,6.981 -3.192,9.432 -0.08,0.233 -0.08,2.571 0,2.744 0.197,0.414 0.491,0.879 0.491,0.879 0,0 0.237,-0.201 0.35,-0.374 0.064,-0.1 0.06,-0.434 0,-0.644 -0.053,-0.178 1.566,-5.402 1.887,-6.104 2.558,-5.559 3.039,-7.772 6.888,-12.091 1.894,-2.124 8.361,-7.89 9.867,-9.028 0.615,-0.465 5.56,-3.269 6.214,-3.526 1.376,-0.538 3.162,-1.125 4.114,-1.596 0.487,-0.241 0.941,-0.512 1.429,-0.755 0.524,-0.264 3.001,-1.061 3.596,-1.159 0.915,-0.149 2.117,-0.283 2.621,-0.45 0.053,-0.017 0.104,-0.037 0.15,-0.068 0.064,-0.04 0.094,-0.043 0.321,-0.033 z m -34.181,31.36 c 0.23,-0.127 0.798,-0.722 1.192,-1.203 1.259,-1.529 2.171,-2.728 3.276,-3.947 0.901,-0.991 9.646,-8.991 10.958,-10.369 1.142,-1.203 3.253,-3.901 5.753,-6.842 0.812,-0.958 1.857,-2.371 1.847,-2.498 -0.004,-0.043 -0.023,-0.074 -0.057,-0.09 -0.107,-0.058 -3.159,1.365 -4.014,1.873 -1.198,0.705 -2.003,1.225 -2.858,1.847 -3.245,2.374 -9.713,8.788 -12.511,13.269 -0.738,1.181 -3.653,6.497 -3.693,7.485 -0.01,0.24 0.05,0.508 0.107,0.475"
     id="path2" /><path
     style="fill:#414c76"
     d="m 175.8,62.143 c 0,0 -0.695,-1.352 -1.369,-2.518 -0.428,-0.73 -4.307,-5.636 -6.131,-8.145 -3.789,-5.215 -6.27,-11.982 -7.599,-18.193 -0.548,-2.567 -1.597,-10.31 -0.999,-13.519 0.05,-0.278 0.114,-0.535 0.171,-0.815 0.581,-2.885 0.377,-6.902 -0.348,-9.489 -0.25,-0.889 -0.574,-1.767 -0.841,-2.715 -0.31,-1.105 -0.27,-1.619 0.451,-1.452 0.18,0.04 0.978,0.603 1.188,0.838 0.378,0.424 2.214,3.8 2.939,4.784 0.457,0.625 2.17,2.225 3.275,3.446 1.393,1.536 2.304,3.102 3.022,4.701 0.424,0.942 2.037,5.723 2.227,6.605 0.487,2.264 0.995,6.017 1.342,7.362 0.488,1.887 1.252,4.268 1.252,4.268 0,0 0.004,-3.847 0.144,-5.396 0.317,-3.442 3.342,-12.268 4.695,-14.519 0.51,-0.854 1.105,-1.626 1.636,-2.561 0.728,-1.286 1.983,-4.361 2.561,-5.333 0.925,-1.556 2.427,-3.025 3.987,-3.819 0.347,-0.177 0.825,-0.361 0.965,-0.341 0.334,0.047 0.441,0.475 0.38,0.748 -0.117,0.531 -1.021,2.438 -1.512,3.72 -0.181,0.47 -0.665,3.011 -0.672,3.526 -0.033,2.116 0.154,2.32 0.555,3.746 0.481,1.72 0.764,4.394 0.904,5.934 0.134,1.483 0.301,8.588 0.221,9.44 -0.451,4.771 -1.816,7.284 -3.947,12.19 -0.454,1.042 -1.278,3.525 -1.596,4.799 -0.597,2.399 -2.11,10.246 -2.11,10.246 0,0 -0.805,-0.391 -1.249,-0.684 -0.704,-0.473 -0.998,-1.656 -1.115,-3.046 -0.047,-0.584 -0.03,-1.202 -0.117,-1.622 -0.016,-0.084 -0.037,-0.161 -0.053,-0.237 -0.087,-0.366 0.016,-3.569 0.147,-4.558 0.17,-1.333 0.35,-2.397 0.551,-3.639 0.273,-1.697 4.11,-18.906 4.284,-19.217 0.116,-0.211 0.233,-0.395 0.334,-0.699 0.147,-0.44 0.604,-5.896 0.604,-5.896 0,0 -0.207,0.214 -0.394,0.411 -1.756,1.85 -2.952,4.481 -3.509,6.791 -0.408,1.68 -1.627,9.557 -1.907,10.534 -0.197,0.696 -0.985,2.571 -1.219,2.907 -0.254,0.373 -0.557,0.746 -0.628,0.983 -0.06,0.2 0.532,2.774 0.839,4.447 0.09,0.478 0.09,2.922 0,3.419 -0.187,1.074 -0.531,2.061 -0.635,2.947 -0.04,0.328 1.052,5.938 1.366,7.029 0.314,1.09 0.668,2.338 0.668,2.338 0,0 1.602,-0.078 2.24,0 0.241,0.03 1.035,0.383 1.232,0.547 1.449,1.209 1.917,2.308 1.68,4.101 -0.034,0.247 -0.548,1.379 -0.715,1.565 -0.32,0.365 -0.798,0.791 -0.798,0.791 0,0 0.684,1.156 1.303,2.402 0.644,1.303 2.196,5.332 2.196,5.332 0,0 -0.791,-0.602 -1.693,-1.136 -0.791,-0.468 -4.156,-1.899 -4.156,-1.899 0,0 0.08,-2.188 0,-2.494 -0.097,-0.367 -0.314,-0.625 -0.334,-0.865 -0.024,-0.247 0,-0.617 0,-0.617 0,0 -0.434,0.043 -0.785,0 -0.197,-0.027 -1.072,-0.504 -1.373,-0.752 -0.547,-0.443 -0.817,-0.5 -1.819,-0.801 -1.369,-0.411 -2.221,-0.981 -2.715,-2.207 -0.24,-0.607 -0.17,-1.377 0.18,-1.95 0.294,-0.48 1.326,-1.435 2.144,-1.636 0.284,-0.071 0.655,-0.127 0.655,-0.127 m -3.062,-12.819 c 0,0 -0.792,-4.203 -1.122,-5.262 -0.207,-0.678 -0.421,-1.125 -0.628,-1.649 -2.097,-5.256 -3.84,-14.134 -4.578,-17.831 -0.177,-0.891 -1.535,-5.161 -1.889,-5.936 -0.558,-1.226 -1.303,-2.691 -1.303,-2.691 0,0 -0.007,0.838 0,1.629 0.011,0.781 1.663,12.654 1.933,13.867 1.042,4.664 2.241,11.506 5.38,15.372 0.794,0.979 2.207,2.501 2.207,2.501"
     id="path4" /><path
     style="fill:#414c76"
     d="m 201.82,99.736 -0.056,0.115 c 0,0 -1.396,-0.748 -2.518,-1.387 -5.068,-2.882 -12.254,-8.722 -15.453,-11.924 -1.636,-1.643 -13.856,-15.159 -13.856,-15.159 0,0 0.27,-0.063 0.534,-0.083 0.17,-0.014 2.965,1.415 3.289,1.68 0.577,0.477 1.112,0.871 1.679,1.342 2.725,2.264 6.651,6.66 8.648,9.072 0.407,0.487 5.115,4.617 5.459,4.784 0.344,0.167 0.711,0.331 0.711,0.331 0,0 0.04,-0.458 0,-0.861 -0.02,-0.228 -1.145,-2.237 -1.802,-3.334 -0.341,-0.563 -1.029,-2.653 -1.557,-3.651 -1.716,-3.272 -11.132,-9.59 -12.888,-10.705 -1.305,-0.835 -7.807,-4.394 -8.732,-4.788 -0.671,-0.284 -1.322,-0.531 -1.946,-0.755 -0.194,-0.069 -1.136,-0.069 -1.232,0 -0.134,0.097 -0.267,0.237 -0.267,0.237 0,0 0.317,0.555 0.587,0.938 0.254,0.353 0.765,0.784 1.092,1.093 0.277,0.256 2.044,3.081 2.521,4.029 3.112,6.193 4.661,8.818 9.783,15.409 4.665,6.004 7.917,8.435 15.116,13.353 2.481,1.693 4.421,2.932 6.845,3.987 1.622,0.708 5.76,2.069 8.521,3.147 0.531,0.207 1.065,0.488 1.092,0.582 0.02,0.073 -0.06,0.137 -0.11,0.293 -0.338,1.065 0.337,2.664 0.824,3.283 0.909,1.155 2.772,1.656 3.934,1.346 0.35,-0.098 1.563,-0.715 1.733,-0.883 0.21,-0.209 0.354,-0.434 0.477,-0.463 0.137,-0.033 1.389,0.57 2.267,0.84 0.558,0.172 1.299,0.172 1.987,0.334 0.581,0.138 2.928,1.289 3.723,1.514 0.705,0.197 1.519,0.004 2.087,-0.676 0.371,-0.439 0.253,-0.937 -0.294,-1.299 -0.277,-0.183 -1.142,-0.353 -2.1,-0.752 -0.658,-0.278 -4.478,-2.689 -4.478,-2.689 0,0 0.334,-0.734 0.491,-1.372 0.057,-0.228 -0.134,-2.174 -0.234,-2.381 -0.487,-1.015 -1.579,-2.087 -2.637,-2.254 -1.052,-0.163 -2.254,-0.146 -2.969,0.381 -0.401,0.297 -1.008,0.849 -1.008,0.849 0,0 -2.478,-2.766 -3.022,-3.199 -0.27,-0.221 -1.105,-0.75 -1.58,-0.848 -0.267,-0.058 -0.547,-0.023 -0.777,-0.094 -0.698,-0.2 -2.601,-2.738 -2.682,-2.838 -0.881,-1.129 -3.966,-5.697 -4.534,-6.719 -1.644,-2.955 -4.434,-9.313 -5.666,-12.638 -1.115,-3.002 -2.482,-7.155 -3.182,-8.799 -0.411,-0.958 -1.443,-4.22 -1.523,-4.808 -0.03,-0.234 -0.06,-0.484 -0.06,-0.484 0,0 2.785,3.884 3.673,5.355 0.374,0.621 2.725,6.334 4.114,9.66 1.078,2.578 6.824,14.582 6.951,15.099 0.304,1.223 1.099,2.729 2.301,4.204 0.557,0.688 1.312,1.342 1.733,1.186 0.117,-0.044 0.494,-0.531 0.561,-0.729 0.414,-1.202 -0.722,-2.879 -1.426,-4.688 -0.25,-0.642 -1.459,-6.435 -2.144,-9.361 -1.058,-4.541 -2.237,-5.354 -4.828,-10.289 -1.122,-2.137 -2.163,-4.711 -3.065,-6.34 -0.35,-0.635 -2.594,-3.63 -3.021,-4.031 -0.895,-0.838 -2.263,-1.993 -2.604,-2.434 -0.678,-0.878 -2.117,-4.076 -2.504,-5.613 -0.024,-0.104 -0.314,-2.336 -0.655,-2.841 -0.117,-0.174 -0.327,-0.413 -0.327,-0.413 0,0 -0.314,0.286 -0.544,0.553 -1.019,1.166 -1.316,5.924 -1.386,6.938 -0.06,0.865 0.177,5.763 0.334,6.945 0.494,3.673 1.015,5.884 2.06,9.292 2.174,7.104 4.508,12.789 8.859,18.015 1.679,2.013 3.673,4.12 5.539,6.153 0.153,0.17 0.166,0.195 0.142,0.243"
     id="path6" /><path
     style="fill:#414c76"
     d="m 285.796,110.298 c 0.174,-0.147 0.214,-0.167 0.397,-0.221 0.141,-0.043 0.264,-0.116 0.384,-0.193 0.388,-0.243 0.722,-0.511 1.092,-0.755 0.513,-0.334 2.357,-1.162 3.692,-1.683 3.561,-1.376 9.201,-3.572 10.649,-4.009 2.144,-0.649 4.431,-1.164 6.233,-1.785 2.033,-0.697 6.568,-2.688 8.272,-4.49 0.693,-0.737 3.281,-3.002 3.455,-3.021 0.374,-0.05 0.785,0 0.785,0 0,0 0.016,0.394 0,0.781 -0.011,0.178 -9.166,12.227 -9.615,12.651 -3.668,3.473 -4.767,5.329 -8.412,6.217 -0.345,0.084 -2.778,0.084 -3.08,0 -0.664,-0.187 -1.451,-0.507 -1.451,-0.507 0,0 0.478,0.013 0.91,-0.023 0.291,-0.024 3.166,-1.249 3.594,-1.527 0.41,-0.272 0.813,-0.523 1.176,-0.84 0.396,-0.348 0.755,-0.775 1.219,-1.219 0.418,-0.402 2.237,-2.781 2.223,-2.912 -0.019,-0.18 -0.084,-0.361 -0.084,-0.361 0,0 -3.164,1.834 -5.414,3.106 -1.76,0.991 -4.067,2.144 -5.039,2.517 -1.309,0.504 -2.76,0.922 -4.327,1.474 -1.052,0.367 -8.752,3.88 -9.569,4.362 -0.758,0.449 -1.396,0.873 -2.354,1.514 -0.615,0.414 -2.241,1.793 -2.268,1.924 -0.017,0.083 0.014,0.141 0.11,0.193 0.701,0.374 1.939,-0.407 2.577,-0.774 0.498,-0.284 6.314,-2.351 7.557,-2.684 13.256,-3.573 14.969,-2.484 32.204,-4.157 1.068,-0.103 2.09,-0.214 3.097,-0.421 1.401,-0.287 2.771,-0.758 4.223,-1.008 1.8,-0.308 5.132,-0.488 5.854,-0.672 1.053,-0.271 3.682,-1.666 5.135,-2.854 0.271,-0.224 0.741,-0.478 0.936,-0.504 0.387,-0.058 0.951,0 0.951,0 0,0 0.01,0.315 -0.03,0.604 -0.023,0.177 -1.553,2.313 -1.857,2.586 -1.055,0.959 -1.92,1.972 -2.981,2.983 -0.567,0.54 -7.993,5.974 -9.406,6.886 -3.853,2.479 -7.774,4.446 -12.485,5.582 -6.549,1.579 -16.653,1.235 -23.398,1.008 -1.459,-0.049 -9.139,-0.845 -9.74,-1.008 -0.982,-0.268 -2.748,-0.802 -3.753,-1.553 -0.554,-0.414 -1.215,-1.025 -1.215,-1.025 0,0 -2.095,0.774 -3.276,1.235 -0.851,0.331 -1.412,0.604 -2.14,1.049 -0.472,0.287 -1.079,0.677 -1.079,0.677 0,0 2.098,0.759 3.514,1.34 1.806,0.738 4.51,2.24 5.877,3.527 0.573,0.539 1.127,1.237 1.766,1.762 0.798,0.658 3.244,2.224 3.244,2.224 0,0 -1.481,0.254 -2.52,0.508 -0.471,0.11 -2.208,0.861 -2.545,1.093 -0.504,0.356 -1.277,0.863 -1.512,0.92 -1.086,0.261 -1.129,-1.262 -1.833,-2.938 -0.525,-1.246 -1.925,-2.818 -2.731,-3.402 -0.595,-0.428 -6.298,-3.336 -6.298,-3.336 0,0 -5.947,3.108 -6.465,3.506 -0.708,0.537 -1.923,1.996 -2.394,3.062 -0.637,1.44 -0.634,2.752 -1.442,3.108 -0.501,0.225 -0.738,-0.123 -1.369,-0.627 -0.264,-0.213 -1.105,-0.621 -1.639,-0.802 -1.49,-0.493 -4.107,-1.157 -4.107,-1.157 0,0 3.025,-1.908 3.729,-2.496 0.732,-0.607 1.169,-1.222 1.773,-1.746 0.935,-0.808 3.677,-2.407 4.692,-2.871 1.673,-0.762 4.307,-1.713 4.307,-1.713 0,0 -1.446,-0.844 -2.712,-1.476 -0.854,-0.431 -3.075,-1.289 -3.579,-1.39 -0.304,-0.057 -0.301,0.047 -0.701,0.465 -1.025,1.064 -4.287,1.996 -5.262,2.227 -0.668,0.153 -10.702,0.978 -12.261,1.004 -4.909,0.088 -10.768,0.158 -15.5,-0.396 -5.916,-0.689 -12.577,-3.048 -17.74,-6.821 -2.02,-1.479 -5.302,-4.188 -6.09,-4.661 -0.548,-0.334 -1.069,-0.584 -1.593,-0.925 -0.47,-0.304 -2.484,-2.151 -3.025,-2.772 -0.745,-0.858 -1.456,-1.79 -2.1,-2.421 -0.237,-0.237 -0.661,-0.879 -0.698,-1.059 -0.063,-0.322 -0.057,-0.761 -0.057,-0.761 0,0 0.535,-0.054 0.952,0 0.193,0.022 1.269,0.631 1.569,0.881 1.383,1.172 3.185,2.15 4.504,2.478 0.835,0.207 5.393,0.574 6.692,0.838 1.115,0.228 2.117,0.592 3.218,0.842 0.919,0.207 3.296,0.468 5.109,0.588 7.577,0.494 15.36,0.878 21.663,2.018 0.725,0.129 9.029,1.873 11.884,2.98 1.944,0.748 5.55,2.391 6.017,2.475 0.324,0.059 0.798,0.047 0.929,-0.024 0.24,-0.131 0.086,-0.307 -0.311,-0.604 -1.299,-0.981 -2.504,-1.896 -3.82,-2.731 -0.738,-0.465 -6.842,-3.405 -7.937,-3.819 -2.424,-0.919 -4.851,-1.687 -7.139,-2.603 -0.904,-0.366 -5.619,-2.844 -6.38,-3.357 -1.356,-0.919 -3.423,-2.454 -3.526,-1.891 -0.021,0.107 0.734,1.256 1.215,1.847 0.718,0.878 2.327,2.551 2.751,2.86 0.758,0.553 2.758,1.718 3.73,1.928 0.678,0.144 1.509,0.207 1.509,0.207 0,0 -0.835,0.308 -1.536,0.464 -0.35,0.077 -2.21,0.044 -2.895,-0.053 -0.671,-0.093 -0.838,-0.114 -1.406,-0.36 -3.131,-1.373 -5.275,-3.689 -7.569,-6.432 -1.185,-1.416 -6.077,-8.088 -9.085,-12.157 -0.137,-0.181 -0.15,-0.214 -0.15,-0.351 v -0.297 c 0,0 0.504,-0.063 0.951,0 0.181,0.023 2.675,2.233 3.793,3.359 0.327,0.327 2.211,1.609 2.895,1.973 3.459,1.816 4.952,2.117 10.144,3.676 2.481,0.746 4.875,1.557 7.239,2.455 5.383,2.041 8.715,3.393 12.471,6.508 2.738,2.271 7.65,6.668 7.65,6.668 0,0 0.2,-0.557 0.413,-0.959 0.11,-0.217 0.888,-0.991 1.132,-1.135 0.374,-0.217 0.844,-0.451 1.232,-0.548 0.307,-0.073 1.75,-0.073 2.07,0 0.33,0.08 0.604,0.197 0.895,0.382 1.656,1.034 2.073,2.272 2.017,3.933 -0.011,0.243 -0.398,1.358 -0.545,1.565 -0.394,0.551 -1.078,1.282 -1.078,1.282 l 2.968,2.468 3.142,-2.481 c 0,0 -0.704,-0.729 -1.038,-1.136 -0.201,-0.243 -0.265,-0.363 -0.324,-0.537 -0.117,-0.344 -0.313,-2.219 -0.271,-2.563 0.101,-0.784 0.805,-1.724 1.68,-2.364 1.352,-0.996 4.134,-0.925 5.332,0.797 0.324,0.465 0.664,1.177 0.664,1.177 z m -35.243,12.872 c 0,0 -10.367,-1.586 -17.772,-2.661 -4.445,-0.649 -15.911,-2.057 -19.146,-2.354 -0.848,-0.076 -5.279,-1.021 -5.516,-1.176 -0.334,-0.213 -1.035,-0.506 -1.202,-0.5 -0.311,0.006 -0.702,0.106 -0.702,0.106 0,0 0.862,0.567 1.597,1.022 1.065,0.664 3.078,1.716 4.197,2.187 4.304,1.81 7.085,2.651 11.813,3.402 8.989,1.423 11.009,1.299 19.035,1.339 0.672,0.007 6.512,-0.848 6.886,-1.005 0.396,-0.167 0.81,-0.36 0.81,-0.36 m 76.054,-6.588 c -1.821,0.395 -4.533,1.129 -7.26,1.684 -1.324,0.267 -22.996,2.791 -24.486,3.082 -1.151,0.223 -2.26,0.483 -3.553,0.67 -2.471,0.36 -7.037,0.635 -8.037,0.842 -0.304,0.063 -0.857,0.307 -0.834,0.369 0.172,0.453 6.56,1.213 7.89,1.307 5.226,0.374 12.037,-0.393 17.957,-1.255 4.116,-0.602 8.397,-1.439 12.051,-3.152 1.529,-0.715 3.349,-1.786 4.704,-2.351 0.345,-0.144 1.58,-0.981 1.593,-1.082 0.011,-0.057 0.007,-0.118 -0.025,-0.114 m 24.146,-140.318 c 0.095,0.204 0.124,0.247 0.277,0.413 0.159,0.174 0.294,0.371 0.417,0.569 0.264,0.43 1.797,3.793 1.553,4.033 -0.272,0.27 -2.07,-0.705 -2.352,-0.882 -0.557,-0.354 -5.125,-4.434 -7.662,-6.678 -0.17,-0.149 -0.2,-0.189 -0.295,-0.396 -0.226,-0.491 -0.504,-1.055 -0.606,-1.506 -0.11,-0.468 -0.073,-0.901 -0.17,-1.316 -0.095,-0.4 -0.312,-0.781 -0.501,-1.202 -0.2,-0.44 -0.969,-3.757 -1.009,-4.367 -0.163,-2.361 0.159,-3.006 0.278,-5.646 0.123,-2.718 0.006,-7.309 0.116,-7.833 0.06,-0.298 0.226,-0.668 0.334,-0.742 0.667,-0.47 2.123,2.331 2.839,3.443 0.533,0.828 10.704,13.199 11.506,14.36 3.496,5.063 5.83,10.308 7.265,16.348 1.256,5.293 1.807,12.915 0.444,17.843 -0.416,1.503 -1.078,3.496 -1.078,3.496 0,0 2.059,0.728 2.48,0.982 0.484,0.294 1.282,1.326 1.473,1.877 0.478,1.365 -0.709,2.851 -2.315,3.416 -0.52,0.183 -1.102,0.35 -1.175,0.45 -0.067,0.094 0.06,0.564 0,1.045 -0.03,0.244 -0.361,0.989 -0.546,1.232 -0.25,0.331 -0.549,0.602 -0.631,0.812 -0.056,0.15 0.058,1.218 0.168,1.569 0.285,0.901 0.638,2.19 0.598,2.357 -0.036,0.151 -0.396,0.471 -0.721,0.888 -0.188,0.241 -0.852,1.8 -0.881,2.07 -0.039,0.318 0.008,0.558 0,0.816 -0.011,0.193 -0.521,1.316 -0.716,1.566 -0.491,0.631 -1.282,1.423 -1.282,1.423 0,0 -0.033,-0.511 -0.076,-0.758 -0.021,-0.107 -0.041,-0.167 -0.057,-0.234 -0.07,-0.304 0.008,-2.494 0.113,-3.088 0.055,-0.294 0.109,-0.501 0.137,-0.811 0.057,-0.642 -0.304,-4.762 -0.304,-4.762 0,0 -1.202,-0.037 -1.793,-0.167 -0.562,-0.12 -1.56,-0.859 -2.03,-1.342 -0.611,-0.635 -0.855,-1.68 -0.711,-2.632 0.036,-0.26 0.393,-1.061 0.544,-1.231 0.341,-0.385 0.908,-0.823 0.968,-0.979 0.07,-0.207 -0.076,-1.646 0,-1.82 0.133,-0.32 0.902,-1.295 0.902,-1.295 0,0 -0.533,-1.306 -1.115,-2.374 -0.171,-0.317 -5.035,-5.256 -5.709,-5.794 -1.316,-1.055 -2.942,-2.527 -4.072,-3.318 -0.637,-0.445 -1.284,-0.828 -1.933,-1.259 -0.921,-0.611 -3.643,-2.809 -5.204,-4.197 -2.955,-2.628 -7.027,-6.868 -9.029,-10.371 -0.551,-0.965 -2.367,-5.422 -3.105,-6.802 -0.628,-1.165 -1.658,-2.784 -2.563,-3.402 -0.522,-0.358 -3.133,-1.426 -3.611,-1.763 -0.109,-0.08 -0.21,-0.16 -0.294,-0.294 -0.28,-0.45 -0.11,-0.567 0.538,-0.781 1.785,-0.591 5.578,0.087 6.754,0.447 4.074,1.246 11.043,4.351 13.827,6.254 0.778,0.531 7.089,5.92 8.063,6.885 1.957,1.94 4.063,4.241 5.667,6.679 2.06,3.124 4.259,8.53 5.208,12.09 0.379,1.422 0.825,3.302 0.825,3.302 0,0 0.203,-0.198 0.349,-0.365 0.142,-0.156 0.362,-0.684 0.379,-0.891 0.101,-1.362 0.014,-2.147 -0.394,-3.402 -0.678,-2.071 -1.903,-5.059 -2.461,-6.928 -0.399,-1.339 -1.528,-7.392 -2.185,-9.881 -1.873,-7.148 -5.161,-11.165 -10.387,-18.578 -0.127,-0.183 -0.147,-0.203 -0.184,-0.203 -0.023,0 -0.051,0.007 -0.077,0.018 -0.09,0.037 0.679,3.646 0.965,4.523 0.314,0.968 0.668,1.913 0.88,2.232 0.059,0.092 0.129,0.183 0.195,0.28 0.354,0.492 2.137,4.369 3.172,6.572 m 3.91,21.933 c -1.663,-4.036 -3.185,-7.141 -5.232,-9.782 -2.561,-3.302 -8.055,-9.313 -12.469,-12.134 -0.664,-0.424 -4.845,-2.864 -5.353,-2.691 -0.088,0.034 -0.109,0.074 -0.105,0.18 0.019,0.494 6.727,8.361 6.93,8.602 2.834,3.402 3.564,3.732 6.506,6.17 3.039,2.52 5.059,4.791 7.56,7.81 0.715,0.868 1.767,1.972 1.964,2.056 0.036,0.017 0.073,0.027 0.116,-0.016 0.046,-0.044 0.1,-0.144 0.083,-0.195"
     id="path8" /><path
     style="fill:#414c76"
     d="m 354.566,61.893 c 0,0 0.467,-1.479 0.787,-2.658 0.338,-1.256 1.26,-6.131 1.176,-7.111 -0.047,-0.498 -0.338,-1.352 -0.508,-2.041 -0.106,-0.443 -0.22,-2.511 -0.168,-3.081 0.102,-1.072 0.616,-3.366 0.959,-5.042 0.043,-0.225 0.035,-0.268 -0.119,-0.436 -0.713,-0.795 -1.342,-2.346 -1.51,-2.863 -0.257,-0.795 -2.281,-12.215 -2.518,-12.905 -0.243,-0.708 -0.791,-1.86 -1.219,-2.575 -0.478,-0.798 -1.92,-3.008 -2.207,-2.751 -0.09,0.077 0.124,3.258 0.281,4.19 0.267,1.59 1.973,8.902 2.471,10.598 0.34,1.152 0.703,2.342 1.008,3.557 1.249,4.951 2.484,12.564 1.964,16.662 -0.264,2.086 -0.251,2.817 -1.644,3.869 -0.213,0.16 -0.37,0.254 -0.65,0.215 -0.117,-0.018 -0.134,-0.045 -0.184,-0.269 -0.008,-0.028 -2.228,-10.853 -3.223,-13.565 -0.468,-1.27 -1.296,-2.83 -1.93,-4.281 -1.463,-3.34 -2.348,-7.108 -2.508,-10.487 -0.104,-2.291 0.283,-10.655 1.122,-13.811 0.174,-0.661 0.391,-1.235 0.504,-1.873 0.067,-0.4 -0.095,-3.265 -0.22,-3.903 -0.125,-0.631 -0.271,-1.219 -0.512,-1.847 -0.227,-0.59 -2.14,-3.92 -0.904,-4.129 0.137,-0.028 1.002,0.299 1.299,0.487 1.371,0.864 2.74,2.263 3.486,3.485 0.514,0.846 2.053,4.541 2.6,5.456 0.454,0.759 0.972,1.386 1.429,2.101 2.094,3.273 3.95,10.227 4.855,14.087 0.05,0.22 0.057,0.271 0.066,0.498 l 0.24,5.232 0.171,-0.054 c 0.073,-0.027 0.083,-0.047 0.08,-0.2 0,-0.117 0.026,-0.23 0.054,-0.341 0.373,-1.516 0.941,-3.258 1.293,-4.918 0.383,-1.813 0.506,-3.526 0.84,-5.179 0.465,-2.307 2.004,-6.594 3.232,-8.788 1.245,-2.22 2.527,-2.991 5.165,-6.09 0.429,-0.501 0.792,-0.979 1.092,-1.51 0.444,-0.794 0.968,-2.019 1.3,-2.477 0.207,-0.284 1.389,-1.686 1.886,-1.793 0.237,-0.05 0.595,-0.053 0.595,-0.053 0,0 -0.047,1.282 -0.17,1.789 -0.07,0.301 -0.219,0.505 -0.334,0.698 -0.147,0.24 -0.982,4.825 -1.01,5.543 -0.133,3.349 0.218,4.11 0.451,7.325 0.315,4.294 -0.681,11.313 -1.625,15.321 -1.086,4.588 -3.603,10.764 -6.424,14.668 -2.008,2.774 -6.479,8.614 -6.846,9.278 -0.565,1.032 -1.132,2.187 -1.132,2.187 0,0 0.769,0.231 1.299,0.502 0.237,0.121 1.067,0.898 1.255,1.168 0.641,0.949 0.762,1.957 -0.12,2.988 -0.374,0.434 -1.76,1.453 -2.534,1.512 -0.24,0.018 -0.416,-0.063 -0.645,0 -0.221,0.062 -0.824,0.539 -1.271,0.84 -0.188,0.123 -0.367,0.227 -0.545,0.293 -0.451,0.171 -0.932,0.171 -1.135,0.294 -0.094,0.057 -0.367,0.828 -0.378,1.065 -0.043,0.911 -0.126,2.641 -0.22,2.797 -0.215,0.358 -1.376,0.648 -2.574,1.22 -1.263,0.601 -2.919,1.553 -2.919,1.553 0,0 0.642,-2.021 1.219,-3.358 0.524,-1.213 2.084,-3.984 2.084,-3.984 0,0 -0.525,-0.641 -0.858,-1.088 -0.24,-0.331 -0.541,-0.936 -0.594,-1.199 -0.345,-1.699 0.147,-2.784 1.174,-3.934 0.154,-0.17 1.367,-0.85 1.567,-0.881 0.558,-0.082 2.354,-0.003 2.354,-0.003 m 6.154,-12.946 c 0.05,0.014 0.073,-0.008 0.218,-0.18 3.198,-3.851 3.775,-4.862 5.328,-9.688 0.332,-1.021 1.576,-6.634 1.767,-7.963 0.411,-2.856 0.935,-7.253 1.343,-9.406 0.18,-0.948 0.587,-5.779 0.486,-5.816 -0.022,-0.01 -0.049,-0.017 -0.076,-0.017 -0.036,-0.004 -0.051,0.019 -0.135,0.23 -0.633,1.566 -1.281,3.092 -1.828,4.721 -0.358,1.063 -2.633,11.48 -3.569,14.976 -0.53,1.99 -1.95,5.9 -3.192,9.938 -0.158,0.514 -0.52,3.102 -0.44,3.158 0.026,0.024 0.066,0.038 0.098,0.047"
     id="path10" /><path
     style="fill:#414c76"
     d="m 371.141,64.413 c 0,0 -0.921,-0.073 -1.459,0 -0.257,0.034 -0.755,0.247 -1.037,0.435 -0.916,0.598 -6.131,3.125 -9.431,4.981 -0.7,0.397 -9.042,6.578 -9.739,7.223 -1.041,0.958 -2.711,2.507 -3.319,3.652 -0.451,0.856 -1.075,2.832 -1.427,3.442 -0.709,1.239 -1.957,3.439 -1.973,3.666 -0.02,0.297 0,0.615 0,0.615 h 0.301 c 0.133,0 0.168,-0.014 0.344,-0.156 1.256,-1.006 2.468,-1.947 3.724,-3.076 1.099,-0.988 9.897,-10.344 10.998,-11.336 0.446,-0.4 1.089,-0.854 1.68,-1.176 1.278,-0.694 3.569,-1.692 3.569,-1.692 0,0 -0.251,0.454 -0.504,0.894 -0.219,0.382 -14.525,15.636 -15.156,16.164 -3.927,3.273 -6.454,5.7 -10.918,8.565 -2.277,1.466 -5.576,3.433 -5.576,3.433 0,0 4.621,-5.189 6.123,-7.085 5.954,-7.496 10.025,-20.044 10.792,-29.446 0.077,-0.972 -0.05,-6.842 -0.17,-7.613 -0.127,-0.825 -0.555,-3.025 -1.216,-3.92 -0.421,-0.564 -0.711,-0.447 -0.969,0.224 -0.123,0.334 -0.183,1.63 -0.334,2.494 -0.243,1.393 -2.299,5.36 -2.897,6.101 -0.396,0.487 -1.728,1.594 -2.603,2.434 -0.422,0.404 -2.5,3.216 -2.857,3.867 -0.895,1.629 -2.142,4.681 -3.276,6.801 -2.397,4.492 -3.318,4.959 -4.49,9.375 -0.756,2.843 -1.733,8.025 -2.141,9.351 -0.447,1.452 -1.009,2.842 -1.55,4.251 -0.08,0.21 -0.08,0.26 0.015,0.467 0.43,0.936 0.483,1.246 1.078,0.936 1.182,-0.611 2.397,-2.354 3.061,-3.807 0.417,-0.922 0.882,-2.718 1.426,-4.115 0.334,-0.856 2.033,-3.875 3.108,-5.963 0.734,-1.435 3.299,-7.782 4.447,-10.16 0.387,-0.795 0.795,-1.569 1.105,-2.311 0.414,-0.994 0.648,-1.93 1.079,-2.894 0.3,-0.672 2.27,-3.659 3.358,-5.372 0.17,-0.271 0.338,-0.538 0.461,-0.593 0.213,-0.086 0.207,0.242 0.17,0.535 -0.066,0.515 -2.744,8.496 -3.402,10.131 -5.158,12.882 -5.663,14.815 -12.428,23.851 -0.317,0.424 -1.457,1.553 -1.609,1.593 -0.24,0.066 -0.65,-0.029 -0.979,0 -0.172,0.016 -0.967,0.481 -1.231,0.715 -0.853,0.758 -3.192,3.369 -3.192,3.369 0,0 -0.488,-0.41 -0.842,-0.682 -0.304,-0.233 -0.818,-0.497 -1.063,-0.548 -2.504,-0.487 -4.276,0.558 -4.98,2.745 -0.077,0.24 -0.077,2.074 0,2.24 0.207,0.438 0.567,0.905 0.567,0.905 0,0 -2.023,1.345 -3.339,2.13 -0.789,0.471 -1.405,0.774 -1.974,0.969 -1.155,0.391 -2.114,0.607 -1.807,1.539 0.321,0.972 1.87,1.059 2.802,0.725 1.115,-0.395 3.232,-1.409 3.721,-1.51 0.686,-0.14 1.625,-0.2 1.989,-0.336 0.868,-0.332 1.329,-0.85 1.763,-0.672 0.244,0.1 0.765,0.625 1.176,0.911 1.068,0.751 2.914,0.589 3.97,-0.159 0.849,-0.605 1.569,-1.332 1.651,-2.332 0.024,-0.264 0.022,-0.58 0.119,-0.777 0.063,-0.135 0.119,-0.184 0.086,-0.287 -0.017,-0.057 -0.06,-0.11 -0.086,-0.204 -0.078,-0.243 -0.058,-0.761 -0.058,-0.761 0,0 1.394,-0.689 2.603,-1.219 1.441,-0.631 6.39,-2.213 7.515,-2.729 4.207,-1.927 11.684,-7.652 14.407,-9.786 4.662,-3.649 8.017,-8.254 11.877,-14.061 0.949,-1.429 1.88,-2.868 2.689,-4.367 0.728,-1.356 1.358,-2.765 2.097,-4.117 0.233,-0.421 2.134,-3.813 2.814,-4.407 0.523,-0.458 1.322,-1.31 1.346,-1.443 0.042,-0.276 0.001,-0.617 0.001,-0.617 M 291.713,-51.756 c 0.113,0.106 0.15,0.117 0.377,0.11 3.483,-0.117 10.051,-0.364 10.451,-0.274 0.077,0.02 0.152,0.04 0.236,0.057 0.66,0.14 1.978,0.166 2.966,0.246 0.692,0.058 2.468,0.432 3.353,0.708 3.213,0.999 10.531,3.63 10.531,3.63 0,0 -0.236,-0.24 -0.468,-0.454 -0.267,-0.247 -3.386,-1.873 -3.863,-2.017 -5.873,-1.75 -11.803,-3.602 -15.703,-6.13 -0.827,-0.537 -7.61,-6.087 -11.393,-9.162 -0.177,-0.144 -0.21,-0.177 -0.351,-0.358 -0.348,-0.437 -0.707,-0.894 -0.978,-1.355 -0.541,-0.918 -1.102,-2.464 -1.35,-2.775 -0.207,-0.263 -2.664,-1.736 -3.859,-2.688 -0.391,-0.312 -0.918,-0.871 -1.172,-1.255 -0.237,-0.351 -0.981,-1.723 -0.885,-2.127 0.186,-0.772 1.977,0.247 2.604,0.574 0.701,0.364 2.845,0.979 4.284,1.596 1.195,0.514 2.511,1.373 3.633,1.877 0.351,0.16 0.691,0.287 1.055,0.4 0.655,0.204 5.493,0.855 8.284,1.292 3.576,0.555 8.923,2.191 12.054,3.653 5.006,2.334 10.392,7.022 13.938,11.67 0.486,0.638 3.542,5.911 3.823,6.595 0.594,1.452 1.495,3.582 1.76,3.946 0.394,0.532 0.551,0.167 1.375,-0.193 0.606,-0.27 1.797,-0.194 2.392,-0.06 1.98,0.451 2.922,2.19 2.911,3.976 0,0.224 -0.413,1.413 -0.548,1.566 -0.357,0.424 -1.648,1.48 -1.648,1.48 0,0 2.791,3.382 3.328,4.23 0.527,0.831 2.484,4.968 2.484,4.968 0,0 -1.264,-0.977 -1.573,-1.104 -0.29,-0.117 -2.715,-0.334 -2.715,-0.334 0,0 0.034,-0.578 0,-1.039 -0.013,-0.184 -1.278,-2.284 -1.556,-2.575 -0.737,-0.784 -1.746,-1.936 -1.746,-1.936 0,0 -0.2,0.607 -0.434,1.015 -0.314,0.538 -1.306,1.155 -1.709,1.305 -0.211,0.077 -1.474,0.104 -1.721,0.037 -1.292,-0.354 -2.01,-1.392 -2.406,-2.741 -0.072,-0.234 -0.045,-1.463 0.032,-1.726 0.167,-0.551 0.472,-1.292 0.472,-1.292 0,0 -1.761,-1.292 -2.158,-1.463 -0.174,-0.074 -3.518,0.287 -4.133,0.448 -0.385,0.1 -12.127,0.006 -18.189,-0.027 -0.228,0 -0.276,-0.003 -0.504,-0.027 -1.061,-0.106 -2.604,-0.237 -3.179,-0.394 -0.367,-0.1 -0.685,-0.237 -1.035,-0.337 -0.508,-0.145 -1.078,-0.217 -1.652,-0.334 -2.578,-0.528 -9.132,-3.509 -10.806,-4.411 -0.66,-0.357 -3.224,-2.187 -3.522,-2.518 -0.488,-0.537 -1.145,-1.235 -1.318,-1.302 -0.2,-0.077 -0.865,-0.02 -1.465,-0.047 -1.353,-0.06 -2.182,-0.584 -3.518,-1.085 -1.441,-0.543 -3.945,-1.251 -3.945,-1.251 0,0 0.106,-0.301 0.209,-0.471 0.131,-0.224 0.838,-0.632 1.109,-0.809 0.434,-0.284 0.798,-0.468 1.088,-0.534 0.384,-0.09 2.371,0.087 3.499,0 0.815,-0.063 2.949,-0.647 3.554,-0.671 0.627,-0.026 2.012,0.214 2.954,0.274 0.154,0.013 0.308,0.016 0.351,-0.024 0.063,-0.059 -0.193,-0.38 -0.41,-0.65 -1.539,-1.95 -1.863,-1.688 -4.124,-2.498 -0.671,-0.241 -1.693,-0.768 -2.686,-1.342 -3.978,-2.301 -11.618,-6.846 -11.618,-6.846 0,0 -0.761,0.588 -1.482,1.132 -0.595,0.451 -11.797,6.742 -12.261,6.886 -1.182,0.373 -2.06,0.57 -2.815,1.052 -0.364,0.23 -2.204,1.996 -2.224,2.132 -0.06,0.432 0.912,0.127 1.92,-0.069 1.77,-0.345 2.882,0.4 4.939,0.624 0.804,0.087 2.614,-0.04 3.499,0 0.194,0.007 1.379,0.548 1.566,0.715 0.474,0.417 1.095,1.082 1.095,1.082 0,0 -0.988,0.163 -1.797,0.387 -0.854,0.234 -3.766,1.599 -4.223,1.676 -0.488,0.083 -1.032,0.08 -1.469,0.21 -0.077,0.024 -0.154,0.05 -0.234,0.071 -0.401,0.106 -0.972,0.016 -1.272,0.113 -0.16,0.05 -0.661,0.524 -1.003,0.908 -0.31,0.352 -2.661,2.117 -3.359,2.522 -1.145,0.667 -3.529,1.819 -5.206,2.517 -6.497,2.711 -8.955,3.142 -15.192,3.512 -1.402,0.084 -15.242,-0.086 -15.754,-0.193 -0.908,-0.191 -3.629,-0.488 -3.846,-0.421 -0.341,0.107 -2.067,1.145 -2.157,1.482 -0.037,0.141 0.371,1.086 0.504,1.764 0.047,0.24 -0.06,1.242 -0.17,1.569 -0.297,0.915 -1.289,2.09 -2.25,2.37 -1.099,0.318 -2.591,-0.093 -3.249,-0.971 -0.324,-0.434 -0.698,-1.246 -0.698,-1.246 0,0 -0.795,0.789 -1.359,1.457 -0.374,0.447 -1.95,2.633 -2.013,3.289 -0.031,0.306 0,0.701 0,0.701 0,0 -1.747,0.203 -2.548,0.334 -0.22,0.036 -0.892,0.38 -1.065,0.547 -0.204,0.197 -0.478,0.477 -0.478,0.477 0,0 1.76,-3.87 2.284,-4.718 0.504,-0.821 3.369,-4.367 3.369,-4.367 0,0 -0.895,-0.718 -1.352,-1.176 -0.207,-0.203 -0.484,-0.661 -0.548,-0.894 -0.107,-0.401 -0.22,-1.797 -0.167,-2.073 0.111,-0.581 0.698,-1.607 1.176,-2.031 0.908,-0.808 2.841,-1.296 3.973,-0.881 0.538,0.197 1.216,0.59 1.216,0.59 0,0 4.033,-8.12 4.761,-9.322 2.568,-4.25 8.01,-9.075 12.217,-11.717 2.585,-1.619 7.623,-3.609 10.972,-4.407 2.044,-0.487 13.293,-2.394 13.633,-2.561 0.842,-0.411 1.536,-0.935 2.438,-1.429 0.815,-0.445 4.237,-1.779 6.371,-2.634 0.21,-0.084 0.256,-0.094 0.484,-0.094 h 0.701 c 0,0 0.027,0.445 0,0.784 -0.074,0.989 -1.653,2.635 -2.351,3.207 -0.711,0.577 -3.225,2.009 -3.442,2.266 -0.227,0.264 -0.888,1.894 -1.473,2.983 -0.457,0.85 -0.894,1.304 -1.636,1.969 -1.405,1.27 -6.434,5.332 -9.195,7.433 -2.445,1.863 -3.58,2.41 -6.759,3.819 -1.446,0.643 -6.297,2.431 -6.941,2.565 -0.638,0.127 -1.226,0.187 -1.823,0.334 -0.592,0.147 -2.254,0.848 -3.747,1.555 -0.865,0.409 -2.374,1.286 -2.437,1.416 -0.017,0.04 -0.023,0.074 0.017,0.12 0.016,0.017 0.04,0.034 0.06,0.044 0.029,0.017 0.056,0.01 0.27,-0.067 6.962,-2.511 11.026,-4.384 16.525,-4.524 2.167,-0.053 10.965,0.237 10.965,0.237 0,0 0.05,-0.191 0.043,-0.32 -0.006,-0.08 -0.337,-0.294 -0.477,-0.308 -1.583,-0.15 -6.301,-0.53 -6.692,-0.671 -0.834,-0.301 -1.686,-0.741 -1.686,-0.741 0,0 3.623,-0.795 5.79,-1.36 1.052,-0.273 2.124,-0.643 2.688,-0.924 1.125,-0.561 2.888,-1.646 3.456,-1.846 0.538,-0.19 4.297,-0.595 5.179,-0.839 1.476,-0.41 5.145,-2.761 7.319,-4.18 0.187,-0.124 0.21,-0.14 0.207,-0.177 -0.01,-0.327 -0.651,-0.163 -1.095,-0.237 -0.094,-0.013 -0.161,-0.037 -0.237,-0.053 -2.198,-0.555 -7.58,1.579 -9.487,2.237 -0.661,0.227 -2.965,0.708 -3.509,0.731 -0.952,0.037 -2.17,0 -2.17,0 0,0 0.34,-0.093 0.627,-0.211 0.251,-0.103 1.326,-1.044 1.934,-1.595 0.501,-0.451 1.572,-1.066 2.267,-1.597 1.012,-0.774 1.696,-1.723 2.224,-3.064 0.277,-0.702 0.611,-1.673 0.611,-1.673 0,0 1.269,0.891 2.037,1.379 1.078,0.687 1.205,0.52 2.335,0.27 1.986,-0.444 4.774,-0.247 6.761,0.445 0.531,0.183 1.012,0.407 1.539,0.503 0.377,0.071 2.832,-0.05 3.446,-0.17 0.264,-0.05 0.508,-0.104 0.805,-0.114 0.594,-0.019 1.486,0.12 1.833,0.057 0.083,-0.013 0.154,-0.04 0.234,-0.053 0.253,-0.051 1.355,0.11 2.1,0.224 0.539,0.08 2.054,0.08 2.535,0 1.666,-0.278 4.68,-1.104 5.256,-1.119 3.699,-0.123 3.902,1.062 5.883,-0.421 0.451,-0.337 1.082,-0.834 1.339,-0.925 0.319,-0.109 0.264,0.167 0.37,0.691 0.221,1.052 1.376,2.812 1.8,3.256 0.481,0.504 5.249,4.117 5.249,4.117 0,0 -1.891,-0.087 -3.035,-0.217 -1.763,-0.201 -3.266,-0.915 -5.252,-1.633 -0.861,-0.312 -4.197,-1.115 -4.868,-1.175 -0.521,-0.044 -2.608,0.1 -2.774,0.193 -0.194,0.111 -0.15,0.231 0.14,0.438 1.735,1.228 5.93,3.726 7.686,4.157 0.924,0.227 3.092,0.347 4.101,0.588 0.44,0.103 2.032,0.798 2.407,1.048 0.365,0.244 0.685,0.511 1.092,0.755 1.693,1.021 2.831,1.038 4.561,1.385 1.663,0.337 4.602,1.153 4.602,1.153 0,0 -0.922,0.443 -1.746,0.697 -0.487,0.15 -6.348,0.534 -6.691,0.671 -0.348,0.138 -0.715,0.317 -0.715,0.317 z M 240.927,-67.63 c 0,0 -4.278,1.846 -7.169,3.015 -1.529,0.621 -3.309,1.222 -4.087,1.389 -0.374,0.077 -0.745,0.134 -1.135,0.217 -0.671,0.137 -6.067,2.121 -7.289,2.678 -5.386,2.451 -5.606,3.639 -10.348,9.974 -0.137,0.18 -0.15,0.213 -0.137,0.323 0.01,0.084 0.027,0.184 0.071,0.241 0.063,0.084 4.053,-2.474 5.122,-2.978 0.407,-0.194 0.737,-0.274 1.091,-0.421 0.518,-0.214 2.351,-1.466 3.613,-2.267 3.018,-1.917 6.044,-2.615 9.463,-4.321 2.046,-1.018 5.603,-3.293 7.249,-4.665 1.439,-1.202 3.556,-3.185 3.556,-3.185 m 81.508,17.62 c -1.543,-2.194 -4.905,-6.842 -6.302,-7.97 -2.901,-2.348 -9.72,-4.501 -13.853,-5.627 -1.253,-0.34 -3.942,-1.302 -4.704,-1.679 -1.83,-0.912 -4.621,-2.15 -4.758,-2.1 -0.09,0.03 -0.125,0.077 -0.11,0.177 0.083,0.67 5.699,4.714 5.793,4.781 3.947,2.761 5.78,3.216 10.665,5.288 1.052,0.447 2.116,0.96 3.023,1.513 1.22,0.738 2.746,1.833 3.611,2.263 0.918,0.461 2.334,1.039 2.938,1.43 1.412,0.908 3.566,2.15 3.633,2.08 0.051,-0.05 0.087,-0.123 0.064,-0.156 m -1.008,6.18 c 0,0 -4.614,-0.63 -5.823,-0.924 -0.809,-0.198 -2.774,-0.965 -4,-1.47 -1.102,-0.45 -3.646,-1.255 -4.929,-1.553 -0.831,-0.193 -5.314,-0.69 -6.043,-0.671 -2.675,0.073 -8.077,0.101 -8.542,0 -1.262,-0.272 -2.928,-0.684 -3.135,-0.64 -0.055,0.012 -0.107,0.043 -0.107,0.146 -0.003,0.037 0.021,0.05 0.228,0.141 2.478,1.089 7.108,2.701 9.146,3.042 0.614,0.099 1.192,0.153 1.819,0.334 0.755,0.217 1.819,0.633 2.211,0.671 0.229,0.023 0.431,0 0.645,0 0.473,0.003 2.771,0.671 4.059,0.84 0.805,0.108 6.404,-0.049 6.839,0.054 0.076,0.021 0.153,0.04 0.236,0.057 0.642,0.14 1.727,0.134 2.458,0.284 0.408,0.083 0.703,0.221 1.049,0.277 0.193,0.034 3.455,0.027 3.766,-0.384 0.069,-0.09 0.123,-0.204 0.123,-0.204 m -77.592,-4.905 c 0,0 -0.037,-0.11 -0.06,-0.157 -0.06,-0.104 -0.551,-0.069 -0.641,-0.06 -0.341,0.04 -0.661,0.271 -1.032,0.334 -0.314,0.057 -0.701,-0.004 -0.965,0.047 -0.087,0.013 -0.16,0.04 -0.234,0.067 -0.32,0.103 -5.482,0.153 -8.514,0.117 -0.684,-0.01 -6.865,0.835 -7.376,1.005 -2.194,0.734 -6.778,2.451 -7.603,2.628 -1.763,0.383 -5.823,0.924 -5.823,0.924 0,0 0.007,0.104 0.02,0.151 0.01,0.033 0.027,0.036 0.043,0.039 1.266,0.32 2.942,0.657 3.997,0.397 0.588,-0.143 1.453,-0.467 1.877,-0.505 0.551,-0.045 1.232,0.038 1.632,-0.049 0.084,-0.017 0.157,-0.04 0.234,-0.06 0.381,-0.107 4.338,-0.02 6.832,-0.117 2,-0.08 12.007,-2.504 15.008,-3.677 1.203,-0.47 2.605,-1.084 2.605,-1.084"
     id="path12" /><path
     d="m 320.107,-22.287 c -14.364,-14.364 -33.461,-22.274 -53.777,-22.274 -20.311,0 -39.41,7.91 -53.775,22.274 -14.364,14.364 -22.278,33.464 -22.278,53.778 0,20.315 7.914,39.413 22.278,53.778 14.365,14.363 33.464,22.273 53.775,22.273 20.316,0 39.413,-7.91 53.777,-22.273 14.365,-14.365 22.278,-33.463 22.278,-53.778 0.001,-20.314 -7.912,-39.414 -22.278,-53.778"
     id="path14" /><path
     style="fill:#ffffff"
     d="m 317.689,82.848 c -13.719,13.721 -31.957,21.276 -51.359,21.276 -17.967,0 -34.939,-6.487 -48.246,-18.345 0.685,0.608 1.373,1.205 2.074,1.783 l -0.487,-25.437 c 9.045,-7.416 23.009,-8.925 23.169,-8.94 l 0.04,-0.004 0.037,-0.007 c 8.611,-1.329 13.002,0.043 16.458,1.722 l 2.13,1.039 v -53.5 l -1.533,-2.043 c -1.095,-1.49 -2.337,-3.179 -4.093,-4.862 -5.596,-5.353 -20.044,-4.568 -20.926,-4.514 -0.598,0.016 -4.287,0.296 -16.568,4.394 l -0.06,-3.082 c 1.306,-0.828 2.12,-2.079 2.12,-3.453 0,-0.123 -0.007,-0.247 -0.02,-0.367 -0.247,-2.364 -2.818,-3.966 -5.846,-3.649 -1.686,0.177 -3.179,0.929 -4.097,2.063 -0.655,0.812 -0.962,1.777 -0.862,2.722 0.147,1.421 1.135,2.564 2.558,3.185 l 1.343,69.733 c -1.88,2.299 -3.607,5.113 -3.811,7.895 -0.781,0.57 -1.275,1.482 -1.275,2.501 0,1.716 1.399,3.115 3.119,3.115 0.861,0 1.642,-0.354 2.21,-0.918 l 0.124,6.581 C 200.859,68.152 193.7,50.373 193.7,31.491 c 0,-19.399 7.556,-37.64 21.273,-51.357 13.72,-13.719 31.957,-21.276 51.357,-21.276 19.402,0 37.641,7.557 51.359,21.276 13.721,13.717 21.273,31.958 21.273,51.357 0,19.399 -7.552,37.641 -21.273,51.357"
     id="path16" /><path
     d="m 282.391,36.223 1.365,8.04 h 7.069 l -6.386,-30.044 h -13.375 l -6.384,30.044 h 7.066 l 1.369,-8.04 z m -8.108,-7.296 1.313,-8.211 h 4.314 l 1.309,8.211 z"
     id="path18" /><path
     style="fill:#414c76"
     d="m 325.057,17.297 c -3.74,-2.745 -11.634,-3.343 -16.973,0.186 -2.861,1.891 -4.578,0.562 -4.792,0.374 -7.803,-7.623 -15.14,-9.456 -17.935,-9.358 -17.135,0.403 -21.024,-2.437 -24.273,-6.611 v 4.414 c 3.576,3.255 9.473,5.512 24.361,5.158 1.496,-0.05 5.814,0.798 11.14,4.611 V 50.62 c -10.778,-0.901 -14.161,0.431 -18.058,1.967 -1.98,0.781 -4.03,1.589 -7.383,2.226 -3.97,0.763 -6.034,-0.303 -8.889,-1.778 -0.381,-0.193 -0.768,-0.394 -1.172,-0.595 v 3.33 c 2.932,1.508 5.747,2.891 10.618,1.959 3.623,-0.694 5.903,-1.593 7.914,-2.384 3.789,-1.495 6.784,-2.678 17.52,-1.698 11.56,1.047 14.14,-2.676 16.871,-6.616 1.446,-2.083 2.942,-4.243 6.052,-6.05 l 0.022,-0.01 0.022,-0.018 c 0.043,-0.026 4.309,-2.674 9.209,-2.81 4.218,-0.121 7.717,-4.496 9.637,-7.747 -0.033,-2.354 -0.18,-4.692 -0.434,-7.002 -5.951,-0.067 -8.865,-2.427 -11.686,-4.708 -0.603,-0.488 -1.176,-0.949 -1.771,-1.389"
     id="path20" /><path
     style="fill:#ffffff"
     d="m 214.245,-6.544 h 2.05 c 0.023,1.246 0.731,38.075 1.252,64.964 -0.547,0.48 -1.252,1.132 -2.017,1.91 -0.521,-27.003 -1.262,-65.548 -1.285,-66.874 m 4.274,8.809 h 0.02 c 0.083,0 2.043,0.026 4.084,2.173 2.173,2.281 4.614,7.172 4.614,17.621 0,1.128 -0.027,2.32 -0.091,3.586 -1.091,22.833 -4.931,28.578 -7.582,31.055 L 218.519,2.265 m -2.331,63.364 c 0.458,-0.578 0.948,-1.129 1.462,-1.656 0.214,11.082 0.378,19.631 0.421,21.795 -0.708,-0.629 -1.402,-1.273 -2.09,-1.935 -0.064,-3.285 -0.184,-9.613 -0.334,-17.46 0.19,-0.283 0.374,-0.534 0.541,-0.744"
     id="path22" /><path
     d="m 213.677,70.689 c -0.1,-0.092 -0.203,-0.183 -0.313,-0.258 0.091,-0.205 0.191,-0.412 0.298,-0.629 l 0.015,0.887"
     id="path24" /><path
     style="fill:#ffffff"
     d="m 215.25,-8.751 c -1.823,0.19 -3.466,-0.641 -3.589,-1.819 -0.054,-0.511 0.196,-0.945 0.417,-1.216 0.571,-0.704 1.583,-1.195 2.714,-1.311 1.824,-0.195 3.466,0.64 3.593,1.819 0.124,1.179 -1.312,2.334 -3.135,2.527"
     id="path26" /></g>
</svg>
