<?xml version="1.0" encoding="UTF-8" standalone="no"?>
<svg
   xmlns:dc="http://purl.org/dc/elements/1.1/"
   xmlns:cc="http://creativecommons.org/ns#"
   xmlns:rdf="http://www.w3.org/1999/02/22-rdf-syntax-ns#"
   xmlns:svg="http://www.w3.org/2000/svg"
   xmlns="http://www.w3.org/2000/svg"
   xmlns:sodipodi="http://sodipodi.sourceforge.net/DTD/sodipodi-0.dtd"
   xmlns:inkscape="http://www.inkscape.org/namespaces/inkscape"
   style="fill-rule:evenodd"
   width="1000"
   height="1000"
   viewBox="0 0 749.99997 749.99998"
   version="1.1"
   id="svg74"
   sodipodi:docname="WSG Swarovski Tirol Fußball.svg"
   inkscape:version="1.0.1 (3bc2e813f5, 2020-09-07)">
  <sodipodi:namedview
     pagecolor="#ffffff"
     bordercolor="#666666"
     borderopacity="1"
     objecttolerance="10"
     gridtolerance="10"
     guidetolerance="10"
     inkscape:pageopacity="0"
     inkscape:pageshadow="2"
     inkscape:window-width="1920"
     inkscape:window-height="1017"
     id="namedview41"
     showgrid="false"
     units="px"
     inkscape:zoom="0.827"
     inkscape:cx="500"
     inkscape:cy="500"
     inkscape:window-x="-8"
     inkscape:window-y="-8"
     inkscape:window-maximized="1"
     inkscape:current-layer="svg74" />
  <metadata
     id="metadata80">
    <rdf:RDF>
      <cc:Work
         rdf:about="">
        <dc:format>image/svg+xml</dc:format>
        <dc:type
           rdf:resource="http://purl.org/dc/dcmitype/StillImage" />
        <dc:title></dc:title>
      </cc:Work>
    </rdf:RDF>
  </metadata>
  <defs
     id="defs78" />
  <g
     transform="matrix(1.2567715,0,0,1.2567715,0.93753449,-154.03169)"
     id="g72">
    <g
       id="g70">
      <path
         style="fill:#000000;stroke:none"
         d="m 297.638,192.296 c 95.525,0 173.068,77.095 173.816,172.444 h 109.631 c 0.002,0.464 0.017,0.925 0.017,1.39 0,156.526 -126.938,283.464 -283.464,283.464 -156.527,0 -283.4648,-126.938 -283.4648,-283.464 0,-0.465 0.0156,-0.926 0.0177,-1.39 H 123.821 c 0.749,-95.349 78.291,-172.444 173.817,-172.444 z"
         id="path2" />
      <path
         style="fill:#ffffff;stroke:none"
         d="m 227.989,371.396 -41.859,15.19 c -5.17,1.875 -12.732,-3.14 -18.581,-10.065 -7.764,-9.193 -12.753,-20.524 -15.298,-25.526 -3.223,-6.332 0.141,-27.328 5.99,-44.18 4.341,-12.506 9.787,-22.574 14.275,-28.406 1.604,-2.084 3.625,-3.782 5.676,-5.428 4.753,-3.815 11.472,-7.902 18.399,-10.707 3.821,-1.547 9.348,-2.864 14.397,-3.655 6.919,-1.085 13.795,-0.926 17.333,3.368 l 13.558,16.455 6.608,1.807 -17.297,-20.572 c -5.75,-6.838 2.522,-18.279 6.609,-23.895 5.438,-7.474 11.358,-14.08 18.575,-18.798 2.464,-1.611 5.651,-3.037 9.272,-4.037 9.255,-2.557 21.367,-3.178 31.652,-3.238 13.871,-0.082 31.324,0.511 40.082,5.497 3.26,1.856 10.013,6.2 16.561,13.561 5.328,5.99 10.516,13.716 12.511,20.135 1.365,4.392 0.917,8.387 -1.195,10.833 l -17.738,20.541 7.362,-1.894 15.462,-17.977 c 4.628,-5.38 22.247,-2.408 36.77,4.788 7.607,3.769 14.231,9.465 18.015,13.877 8.606,12.601 18.583,37.367 19.848,62.727 0.213,4.27 0.169,6.411 -1.568,10.305 -2.909,6.523 -7.022,13.831 -11.75,20.084 -7.375,9.754 -16.05,16.975 -22.323,14.588 l -43.357,-16.509 5.872,6.405 32.476,12.038 c 10.375,3.728 12.062,13.465 12.08,23.527 0.032,18.052 -7.075,40.819 -12.154,47.055 -4.324,5.309 -8.037,9.316 -12.988,13.771 -6.944,6.248 -14.72,11.774 -22.219,16.166 -2.712,1.588 -5.409,3.2 -8.052,4.526 -6.227,3.128 -15.428,0.919 -24.663,-2.197 -12.795,-4.317 -26.295,-11.025 -34.674,-21.995 -1.956,-2.562 -2.634,-4.066 -3.965,-4.114 -1.752,-0.063 -2.28,1.717 -4.714,4.81 -1.658,2.108 -4.214,4.827 -8.166,7.987 -5.09,4.072 -16.208,10.362 -27.781,13.918 -5.645,1.735 -12.051,3.462 -16.619,3.658 -4.77,0.205 -8.648,-1.753 -13.549,-4.618 -7.163,-4.187 -15.159,-10.316 -20.08,-14.45 -6.935,-5.826 -13.171,-10.733 -18.576,-19.083 -1.865,-2.88 -4.949,-9.007 -6.618,-15.507 -2.606,-10.142 -3.75,-23.052 -2.682,-33.601 0.473,-4.675 1.325,-8.729 3.065,-12.03 1.635,-3.1 4.072,-5.555 7.186,-6.704 l 33.577,-12.398 z M 426.996,275.07 c -0.472,-3.998 0.004,-12.88 1.465,-18.702 25.894,30.716 40,69.191 40,109.834 l 0.051,1.745 c -9.917,-10.936 -16.008,-18.063 -18.999,-22.422 -1.094,-8.17 -2.524,-18.271 -5.276,-29.233 -3.292,-13.115 -7.812,-27.3 -17.241,-41.222 z m -279.785,67.134 c -0.805,4.761 -3.627,7.738 -7.417,11.655 -0.699,0.721 -7.694,8.824 -12.715,13.535 -0.254,-41.531 15.286,-81.319 41.274,-111.188 0.774,-0.66 0.91,2.583 1.301,6.841 0.255,2.779 0.584,5.154 0.606,7.205 0.037,3.42 -0.511,5.946 -1.713,7.964 -4.282,7.187 -9.091,15.016 -13.64,29.15 -5.156,16.02 -5.828,23.788 -7.696,34.838 z m 37.599,118.209 c -1.232,-1.495 -3.715,-3.473 -6.988,-4.504 -3.377,-1.063 -7.504,-1.591 -11.978,-2.294 -5.07,-0.797 -10.739,-1.738 -16.12,-2.389 14.145,26.464 36.609,47.325 60.269,61.504 15.166,9.089 30.887,15.257 45.363,18.976 -4.042,-5.659 -8.793,-14.529 -13.342,-21.814 -3.112,-4.984 -5.734,-9.23 -9.553,-11.196 -10.493,-5.405 -18.704,-11.006 -25.976,-16.816 -7.741,-6.184 -14.424,-12.671 -21.675,-21.467 z m 61.226,-256.338 c 5.152,2.526 6.961,3.295 10.062,4.728 2.207,1.02 3.426,0.915 5.731,0.509 3.105,-0.548 6.176,-1.212 9.244,-1.672 18.757,-2.811 41.955,-2.964 64.73,1.489 6.388,1.249 10.598,-0.693 16.998,-4.748 -35.011,-12.025 -74.702,-11.508 -107.794,-0.805 z m 90.783,328.247 c 0.003,-2.603 4.435,-7.914 8.883,-14.967 2.959,-4.692 6.105,-10.524 9.203,-14.518 1.858,-2.397 3.83,-3.595 5.631,-4.499 11.179,-5.613 20.547,-12.061 28.912,-18.886 6.931,-5.656 12.726,-11.432 19.194,-18.482 0.898,-0.978 3.77,-3.55 6.82,-4.54 9.552,-3.101 20.983,-2.314 30.196,-4.702 -11.08,18.463 -24.375,33.987 -39.823,46.6 -19.587,15.993 -42.636,27.803 -69.016,33.994 z"
         id="path4" />
      <g
         id="g28">
        <path
           style="fill:#000000;stroke:none"
           d="m 281.725,253.198 c -3.028,2.518 -5.655,5.475 -7.737,8.795 3.011,-3.252 7.23,-5.189 11.294,-5.271 0.237,-0.012 0.335,0.11 0.19,0.33 -2.579,4.145 -7.803,7.462 -13.226,8.062 -0.369,0.749 -0.71,1.512 -1.024,2.29 -1.867,4.625 -2.748,9.828 -2.101,14.812 0.842,-5.238 4.097,-10.731 8.055,-12.965 0.204,-0.123 0.347,-0.062 0.324,0.201 -0.304,4.835 -3.568,11.572 -8.026,14.792 1.67,7.755 5.274,14.495 11.586,19.476 0.214,0.169 0.43,0.334 0.648,0.497 -2.887,-4.444 -4.21,-9.983 -2.634,-14.664 0.069,-0.228 0.216,-0.279 0.374,-0.067 3.066,3.872 4.272,9.864 2.92,15.209 1.945,1.369 4.043,2.502 6.238,3.411 2.707,-3.696 4.755,-8.279 5.525,-12.862 -0.448,0.439 -0.918,0.829 -1.318,0.992 l -1.272,0.521 0.483,-1.288 c 1.387,-3.695 1.494,-6.834 1.495,-10.722 -1.263,0.141 -2.548,0.454 -3.617,1.097 -0.409,0.246 -0.718,-0.269 -0.31,-0.515 1.472,-0.885 3.294,-1.189 4.988,-1.267 0.48,-0.022 0.955,-0.002 1.439,0.033 1.238,0.09 2.454,0.239 3.549,-0.385 1.245,-0.71 -0.84,-1.95 -1.414,-2.226 -0.638,-0.306 -1.798,-0.711 -2.657,-1.26 -0.811,-0.201 -1.831,-0.274 -2.584,-0.364 -1.01,-0.119 -2.228,-0.271 -3.153,-0.703 -0.633,-0.295 -1.106,-0.702 -1.604,-1.178 -0.23,-0.219 -0.601,-0.602 -0.905,-0.702 -0.155,-0.05 -0.305,-0.031 -0.454,0.017 -0.566,0.454 -1.5,2.094 -1.794,2.704 l -0.478,0.992 -0.576,-0.939 c -0.833,-1.36 -1.613,-3.463 -1.686,-5.063 -0.038,-0.841 0.079,-1.286 0.687,-1.918 1.101,-1.146 5.038,-1.034 7.354,-0.721 l 0.362,-0.289 c 2.416,-1.927 6.45,-1.443 9.376,-1.306 2.75,0.129 5.711,0.196 8.442,-0.191 l 2.098,-0.297 -1.629,1.354 c -1.346,1.118 -2.835,2.155 -4.534,2.573 1.464,1.667 2.509,3.793 3.296,5.816 1.179,3.029 1.792,6.059 2.785,9.091 1.267,3.467 2.312,7.161 3.334,10.71 0.719,2.494 1.419,4.995 2.102,7.5 1.554,-0.75 3.048,-1.62 4.462,-2.615 -1.351,-5.345 -0.145,-11.337 2.92,-15.209 0.159,-0.212 0.306,-0.161 0.375,0.067 1.576,4.681 0.253,10.22 -2.635,14.664 0.219,-0.163 0.435,-0.328 0.649,-0.497 6.311,-4.981 9.915,-11.721 11.586,-19.476 -4.459,-3.22 -7.723,-9.957 -8.027,-14.792 -0.023,-0.263 0.121,-0.324 0.324,-0.201 3.959,2.234 7.213,7.727 8.055,12.965 0.648,-4.984 -0.233,-10.187 -2.1,-14.812 -0.314,-0.778 -0.656,-1.541 -1.024,-2.29 -5.423,-0.6 -10.648,-3.917 -13.226,-8.062 -0.145,-0.22 -0.048,-0.342 0.19,-0.33 4.064,0.082 8.282,2.019 11.294,5.271 -2.083,-3.32 -4.709,-6.277 -7.737,-8.795 -5.206,-0.689 -9.472,-3.119 -12.964,-8.168 -0.142,-0.223 -0.042,-0.342 0.195,-0.326 4.906,0.188 9.895,3.021 12.794,7.583 3.246,2.623 6.057,5.732 8.271,9.241 -1.331,-4.211 -1.224,-8.803 0.343,-12.428 0.098,-0.246 0.253,-0.234 0.379,-0.032 2.822,4.248 3.5,10.6 0.958,15.427 0.433,0.86 0.833,1.74 1.195,2.639 1.751,4.338 2.65,9.165 2.283,13.866 1.491,-4.437 4.49,-8.699 7.836,-10.726 0.222,-0.143 0.343,-0.044 0.328,0.194 -0.163,5.139 -3.775,11.765 -8.73,14.237 -0.359,1.612 -0.801,3.18 -1.334,4.698 0.325,-0.187 0.702,-0.294 1.104,-0.294 1.222,0 2.212,0.99 2.212,2.211 0,1.222 -0.99,2.212 -2.212,2.212 -0.993,0 -1.834,-0.655 -2.113,-1.558 -1.885,4.31 -4.587,8.149 -8.273,11.351 4.246,-2.154 9.49,-3.112 14.654,-2.26 0.256,0.067 0.264,0.223 0.08,0.373 -3.889,3.365 -8.466,4.919 -17.036,3.705 -1.541,1.103 -3.178,2.059 -4.883,2.875 0.69,2.541 1.364,5.087 2.023,7.636 0.265,1.025 0.528,2.051 0.788,3.078 0.125,0.003 0.251,0.004 0.378,0.002 5.823,0.039 12.048,-1.286 16.521,-5.234 5.263,-4.644 7.489,-11.862 6.232,-18.715 -0.057,-0.31 -0.282,-0.819 -0.398,-1.122 -0.247,-0.644 -0.487,-1.288 -0.682,-1.949 -0.22,-0.749 -0.41,-1.592 -0.38,-2.375 0.045,-1.193 0.355,-2.377 1.056,-3.357 1.461,-2.042 3.072,-2.19 5.303,-2.785 3.476,-0.927 6.994,-1.429 10.484,-2.45 5.379,-1.575 10.288,-4.008 15.018,-7 l 1.312,-0.83 -0.412,1.497 c -1.661,6.027 -9.406,9.323 -14.703,11.636 1.209,0.282 2.546,0.854 3.385,1.798 1.889,-0.714 3.974,-1.681 6.217,-2.897 -1.502,1.427 -3.249,2.67 -5.633,3.804 0.084,0.195 0.15,0.401 0.193,0.618 0.225,1.14 -0.184,2.411 -0.788,3.49 5.466,-1.4 10.948,-3.531 15.776,-5.849 l 1.184,-0.569 -0.344,1.268 c -1.108,4.077 -4.99,7.388 -8.441,9.538 -1.397,0.87 -3.278,1.861 -5.28,2.696 -0.323,0.899 -0.97,1.755 -1.984,2.459 1.485,0.912 3.309,2.056 3.549,3.906 3.468,-0.675 7.354,-1.796 11.12,-3.711 -2.53,1.905 -5.652,3.718 -11.17,5.077 -0.265,1.569 -1.193,2.863 -2.564,3.786 0.006,0.004 0.011,0.008 0.016,0.012 0.42,0.313 0.801,0.707 1.123,1.151 1.715,0.566 3.458,1.05 5.134,1.469 4.526,1.129 9.221,1.887 13.879,2.169 l 1.108,0.067 -0.663,0.891 c -4.504,6.057 -14.541,5.934 -21.945,3.919 1.151,2.094 0.439,4.218 -1.437,5.073 5.183,3.104 11.002,4.552 16.64,5.305 -2.041,0.087 -4.217,0.319 -7.9,-0.46 -2.909,-0.615 -6.927,-1.983 -10.549,-4.454 -0.214,0.005 -0.435,-0.003 -0.663,-0.023 0.749,1.113 0.979,2.587 0.417,3.832 -0.184,0.406 -0.425,0.742 -0.709,1.016 1.419,1.417 2.901,2.785 4.322,4.08 3.572,3.257 7.279,6.393 11.045,9.424 2.185,1.758 4.397,3.483 6.64,5.166 l 1.092,0.819 -1.341,0.252 c -6.129,1.15 -12.809,-1.549 -17.804,-4.976 -3.179,-2.181 -6.628,-5.276 -9.612,-8.581 -0.979,0.305 -2.113,0.169 -3.049,-0.176 -0.029,-0.011 -0.069,-0.025 -0.114,-0.042 0.019,0.098 0.037,0.189 0.047,0.246 0.422,2.4 -0.503,4.108 -2.02,4.807 4.263,4.459 11.939,10.608 17.341,15.263 -5.193,-2.823 -15.517,-10.797 -19.542,-14.944 -0.717,-0.083 -1.474,-0.331 -2.229,-0.765 0.092,0.75 0.048,1.544 -0.157,2.284 4.243,6.26 8.601,12.416 13.302,18.381 2.782,3.531 5.684,7.008 8.774,10.274 l 0.981,1.038 -1.428,-0.025 c -8.497,-0.145 -16.726,-6.564 -21.973,-12.851 -2.724,-3.265 -5.18,-6.828 -7.345,-10.487 -0.54,-0.912 -1.102,-1.884 -1.645,-2.882 -0.666,0.698 -1.57,1.167 -2.615,1.341 -2.025,0.338 -4.684,-0.616 -5.844,-2.35 -0.018,-0.028 -0.052,-0.075 -0.089,-0.118 -0.014,0.028 -0.026,0.054 -0.033,0.072 -0.353,0.822 -0.921,1.562 -1.62,2.155 2.805,6.27 7.742,12.202 12.282,16.14 -1.753,-1.049 -4.285,-2.646 -6.934,-5.322 -1.869,-1.887 -4.638,-6.045 -6.489,-10.042 -0.958,0.51 -2.039,0.769 -3.102,0.669 -2.218,-0.209 -3.854,-1.536 -5.138,-3.208 l 13.903,24.199 -2.462,-1.959 c -1.912,-1.52 -3.85,-2.98 -5.776,-4.458 l 8.499,17.682 12.459,-7.243 0.002,0.004 c 0.987,-0.547 2.46,-1.23 4.028,-1.237 2.786,-0.014 3.066,2.605 1.309,4.723 -0.518,-1.534 -0.348,-2.721 -1.512,-2.542 -0.281,0.043 -1.3,0.708 -2.282,1.384 0.085,0.07 0.177,0.138 0.276,0.205 l 0.084,0.057 0.53,0.705 c 0.283,0.377 0.558,0.646 0.419,1.169 -0.432,1.624 -3.025,0.622 -4.228,0.323 l -9.079,4.829 c 0.964,0.056 1.929,0.08 2.897,0.088 1.387,0.011 2.791,-0.069 4.176,-0.148 1.374,-0.078 6.156,-0.497 7.271,0.065 l 0.295,0.149 0.001,0.013 c 1.119,0.035 2.407,0.193 3.348,0.601 2.557,1.109 2.49,4.563 -0.787,5.753 0.526,-1.886 0.395,-2.95 -0.234,-3.427 -0.491,-0.372 -1.365,-0.394 -2.293,-0.358 -0.157,1.42 -0.688,2.816 -2.127,2.941 -1.484,0.129 -2.344,-0.983 -2.786,-2.23 l -10.671,-0.152 c 0.997,2.17 2.272,3.99 3.758,5.904 0.739,0.951 1.407,1.499 1.863,2.686 0.288,0.75 0.404,1.423 0.446,2.219 l 0.019,0.366 c 0.471,2.157 0.474,4.888 -1.857,5.604 -1.498,0.46 -3.603,-0.052 -4.304,-2.325 1.958,0.895 3.35,0.609 3.668,-0.113 0.179,-0.406 0.22,-1.216 0.132,-1.959 -1.721,-0.124 -2.549,0.466 -3.817,-1.46 -0.585,-0.888 1.456,-2.654 0.728,-3.826 l -4.348,-6.996 -8.686,0.165 c -2.365,0.044 -1.341,1.243 -2.243,1.974 -0.275,0.223 -0.614,0.251 -0.949,0.177 -1.428,-0.316 -2.468,-1.952 -2.736,-3.336 -0.769,0.016 -1.463,0.101 -1.88,0.417 -0.63,0.477 -0.675,1.111 -0.149,2.998 -3.277,-1.191 -3.086,-4.387 -1.088,-5.453 0.903,-0.481 2.275,-0.625 3.466,-0.636 0.491,-0.423 1.11,-0.525 1.787,-0.454 1.223,0.129 2.661,0.938 3.725,0.908 l 1.037,-0.029 c 1.889,-0.12 3.702,-0.236 5.58,-0.213 l -9.393,-16.855 c 0,1.553 0.071,3.137 0.234,4.82 l 0.328,3.391 -8.882,-18.595 c -1.365,5.857 -2.827,12.334 -2.682,18.246 0.111,4.532 0.874,9.428 2.915,13.522 1.213,2.433 3.132,5.001 5.695,6.119 l 1.302,0.569 -1.315,0.538 c -2.886,1.181 -5.609,-0.182 -7.684,-2.186 0.834,3.474 3.909,6.84 6.815,8.623 3.405,2.09 6.948,2.92 10.843,1.735 l 2.096,-0.638 -1.477,1.617 c -2.279,2.496 -5.891,4.149 -9.304,3.554 -3.445,-0.6 -7.971,-4.351 -10.498,-6.96 0.66,4.129 3.308,7.941 5.874,11.117 l 0.683,0.843 -1.078,0.131 c -2.22,0.268 -4.572,-1.608 -6.02,-3.278 -0.013,2.638 -0.351,7.328 -2.897,8.452 l -0.248,0.109 -0.246,-0.112 c -2.855,-1.312 -3.011,-5.505 -2.932,-8.379 -1.484,1.692 -4.108,3.475 -6.317,3.208 l -1.129,-0.137 0.749,-0.855 c 2.817,-3.219 5.233,-6.524 5.903,-10.809 -2.496,2.684 -6.849,6.053 -10.392,6.67 -3.476,0.607 -6.722,-1.151 -9.132,-3.531 l -1.511,-1.494 2.069,0.481 c 4.413,1.025 6.943,0.603 10.732,-1.724 2.775,-1.702 6.125,-5.221 6.989,-8.605 -2.194,2.109 -4.75,3.239 -7.825,2.18 l -1.168,-0.402 1.037,-0.671 c 7.005,-4.524 8.801,-11.737 8.995,-19.687 0.16,-6.459 -1.616,-13.802 -3.497,-20.105 l -8.9,19.332 -0.251,-2.117 c -0.156,-1.319 -0.303,-2.693 -0.411,-4.083 l -9.232,16.566 c 1.878,-0.022 3.691,0.093 5.58,0.213 l 1.036,0.029 c 1.065,0.03 2.503,-0.779 3.726,-0.907 0.676,-0.071 1.296,0.031 1.787,0.454 1.191,0.011 2.562,0.154 3.466,0.636 1.997,1.066 2.189,4.262 -1.088,5.452 0.526,-1.886 0.481,-2.52 -0.149,-2.997 -0.417,-0.316 -1.111,-0.402 -1.881,-0.417 -0.267,1.384 -1.308,3.02 -2.735,3.335 -0.335,0.075 -0.674,0.047 -0.949,-0.176 -0.902,-0.731 0.122,-1.93 -2.243,-1.974 l -8.686,-0.165 -4.349,6.996 c -0.728,1.171 1.314,2.938 0.729,3.826 -1.268,1.925 -2.096,1.335 -3.818,1.46 -0.088,0.743 -0.047,1.553 0.132,1.959 0.319,0.721 1.711,1.008 3.669,0.112 -0.701,2.274 -2.806,2.786 -4.304,2.326 -2.331,-0.716 -2.328,-3.448 -1.857,-5.604 l 0.019,-0.366 c 0.042,-0.797 0.157,-1.469 0.445,-2.219 0.457,-1.187 1.125,-1.735 1.864,-2.686 1.486,-1.914 2.761,-3.734 3.757,-5.904 l -10.67,0.152 c -0.442,1.247 -1.302,2.359 -2.786,2.229 -1.439,-0.124 -1.97,-1.52 -2.127,-2.94 -0.928,-0.036 -1.802,-0.014 -2.293,0.358 -0.63,0.477 -0.76,1.54 -0.234,3.427 -3.278,-1.191 -3.344,-4.645 -0.787,-5.753 0.94,-0.408 2.229,-0.567 3.347,-0.602 l 0.002,-0.012 0.295,-0.149 c 1.115,-0.563 5.897,-0.143 7.271,-0.065 1.385,0.078 2.789,0.159 4.176,0.147 0.968,-0.007 1.933,-0.032 2.897,-0.087 l -9.079,-4.829 c -1.203,0.299 -3.796,1.301 -4.229,-0.324 -0.138,-0.522 0.136,-0.791 0.42,-1.169 l 0.53,-0.705 0.084,-0.056 c 0.099,-0.067 0.191,-0.135 0.276,-0.205 -0.982,-0.676 -2.001,-1.342 -2.282,-1.384 -1.164,-0.179 -0.994,1.007 -1.512,2.542 -1.757,-2.119 -1.478,-4.737 1.309,-4.724 1.568,0.008 3.041,0.691 4.028,1.237 l 0.002,-0.003 12.459,7.243 8.468,-17.619 c -1.889,1.329 -3.744,2.577 -5.563,4.068 l -2.525,2.07 13.171,-22.986 c -1.345,1.143 -2.973,1.796 -4.911,1.289 -1.481,-0.388 -2.54,-1.183 -3.282,-2.403 -1.734,4.539 -5.168,9.882 -7.361,12.097 -2.649,2.676 -5.181,4.273 -6.934,5.322 4.791,-4.156 10.024,-10.532 12.728,-17.184 -1.315,1.057 -3.237,1.665 -4.749,1.274 -1.851,-0.48 -3.433,-1.731 -3.825,-3.652 -0.882,1.871 -1.955,3.761 -2.949,5.442 -2.166,3.659 -4.622,7.222 -7.346,10.487 -5.529,6.624 -12.986,12.6 -21.956,13.001 l -1.484,0.066 1.021,-1.079 c 3.082,-3.258 5.985,-6.718 8.779,-10.226 3.855,-4.84 7.533,-9.834 11.105,-14.886 1.46,-2.065 2.889,-4.145 4.32,-6.226 -1.8,1.046 -3.589,1.076 -4.821,0.287 -3.634,3.976 -14.598,12.494 -20.004,15.433 6.084,-5.242 15.049,-12.38 18.779,-16.863 -0.366,-0.804 -0.489,-1.833 -0.274,-3.057 0.012,-0.066 0.036,-0.21 0.048,-0.337 -0.154,0.039 -0.336,0.105 -0.414,0.133 -1.136,0.419 -2.54,0.501 -3.604,-0.159 -0.494,-0.307 -0.832,-0.712 -1.051,-1.172 -3.243,3.835 -7.235,7.53 -10.874,10.025 -4.972,3.411 -11.368,6.128 -17.503,4.976 l -1.342,-0.252 1.092,-0.819 c 2.04,-1.529 4.053,-3.097 6.041,-4.694 3.828,-3.074 7.59,-6.265 11.211,-9.581 2.209,-2.021 4.551,-4.21 6.596,-6.484 -0.123,-0.989 0.178,-2.025 0.738,-2.851 -1.27,0.281 -2.351,0.059 -3.151,-0.467 -3.797,2.786 -8.151,4.294 -11.249,4.949 -3.684,0.779 -5.859,0.547 -7.9,0.46 6.22,-0.831 12.659,-2.507 18.224,-6.321 -0.895,-1.322 -0.826,-3.273 0.683,-4.831 0.027,-0.028 0.074,-0.077 0.12,-0.13 -0.07,-0.024 -0.138,-0.044 -0.178,-0.056 -0.125,-0.036 -0.249,-0.074 -0.372,-0.114 -7.398,2.854 -19.877,4.051 -25.052,-2.907 l -0.663,-0.891 1.109,-0.067 c 7.56,-0.458 15.809,-2.1 22.953,-4.887 -1.126,-0.785 -2.058,-1.716 -2.417,-2.97 -7.527,-1.397 -11.315,-3.507 -14.286,-5.745 4.908,2.496 10.021,3.642 14.144,4.213 0.189,-2.064 1.947,-3.718 3.616,-4.743 0.014,-0.009 0.035,-0.023 0.056,-0.038 l -0.02,-0.015 c -3.314,-0.79 -7.258,-2.866 -9.548,-4.303 -3.221,-2.022 -8.225,-5.836 -8.977,-9.81 l -0.221,-1.167 1.072,0.514 c 5.8,2.785 12.411,5.218 18.9,6.482 -0.766,-1.084 -1.337,-2.482 -1.263,-3.818 -3.898,-1.442 -6.375,-3.035 -8.407,-4.965 3.28,1.778 6.22,3.024 8.707,3.724 0.693,-1.446 2.497,-2.172 4.026,-2.499 -5.312,-2.322 -13.146,-5.762 -14.799,-11.762 l -0.413,-1.497 1.313,0.83 c 4.73,2.992 9.638,5.425 15.018,7 3.489,1.021 7.008,1.523 10.483,2.45 2.232,0.595 3.843,0.743 5.304,2.785 1.792,2.505 1.086,6.408 -0.422,8.909 -1.198,7.227 1.202,14.058 6.7,18.91 4.472,3.946 10.272,4.972 16.077,4.933 5.351,0.086 9.961,-4.439 12.645,-9.083 -0.436,-0.146 -0.869,-0.301 -1.299,-0.463 -0.119,0.019 -0.24,0.034 -0.361,0.045 l -1.339,0.122 0.485,-0.653 c -2.258,-0.949 -4.414,-2.131 -6.41,-3.559 -8.569,1.214 -13.146,-0.34 -17.035,-3.705 -0.184,-0.15 -0.176,-0.306 0.08,-0.373 5.164,-0.852 10.408,0.106 14.654,2.26 -3.687,-3.202 -6.388,-7.041 -8.273,-11.351 -0.279,0.903 -1.12,1.558 -2.114,1.558 -1.221,0 -2.212,-0.99 -2.212,-2.212 0,-1.221 0.991,-2.211 2.212,-2.211 0.402,0 0.779,0.107 1.104,0.294 -0.532,-1.518 -0.974,-3.086 -1.333,-4.698 -4.955,-2.472 -8.567,-9.098 -8.73,-14.237 -0.015,-0.238 0.105,-0.337 0.327,-0.194 3.346,2.027 6.346,6.289 7.837,10.726 -0.368,-4.701 0.531,-9.528 2.282,-13.866 0.363,-0.899 0.762,-1.779 1.196,-2.639 -2.542,-4.827 -1.864,-11.179 0.958,-15.427 0.125,-0.202 0.281,-0.214 0.379,0.032 1.567,3.625 1.674,8.217 0.343,12.428 2.214,-3.509 5.025,-6.618 8.27,-9.241 2.9,-4.562 7.889,-7.395 12.794,-7.583 0.237,-0.016 0.337,0.103 0.196,0.326 -3.493,5.049 -7.758,7.479 -12.964,8.168 z m 3.665,8.028 c 2.181,2.552 4.643,6.162 5.342,9.521 2.562,-0.308 7.631,-0.681 13.32,-0.128 0.493,-4.503 2.278,-7.912 4.955,-10.494 -3.836,0.589 -6.608,2.938 -8.145,6.746 l -3.77,-8.857 -3.601,8.662 c -1.068,-1.446 -2.186,-2.842 -3.295,-3.712 -1.621,-1.272 -3.381,-2.063 -4.806,-1.738 z m 5.215,47.638 c 0.143,0.05 0.287,0.098 0.431,0.146 0.076,-0.14 0.15,-0.279 0.221,-0.419 -0.214,0.1 -0.431,0.192 -0.652,0.273 z m 5.387,-26.846 c -1.786,-0.81 -3.874,-0.706 -5.223,-0.586 -4.019,0.357 -7.493,2.397 -9.299,1.72 -0.75,-0.28 -1.583,-1.144 -2.289,-3.02 -1.847,3.493 0.026,5.831 2.105,6.013 2.816,0.247 5.792,-1.414 8.489,-2.418 1.849,-0.689 4.523,-1.256 6.089,-1.252 0.39,10e-4 0.318,-0.371 0.128,-0.457 z"
           id="path6" />
        <path
           style="fill:#06872e;stroke:none"
           d="m 282.27,252.511 c 4.844,-0.79 8.494,-3.163 11.446,-7.152 -4.64,0.456 -8.924,3.262 -11.446,7.152 z m 38.226,0 c -4.844,-0.79 -8.493,-3.163 -11.446,-7.152 4.64,0.456 8.925,3.262 11.446,7.152 z m 13.204,37.198 c -0.889,0 -1.611,0.722 -1.611,1.611 0,0.89 0.722,1.612 1.611,1.612 0.89,0 1.612,-0.722 1.612,-1.612 0,-0.889 -0.722,-1.611 -1.612,-1.611 z m -12.937,13.852 c -0.829,-4.392 0.003,-9.431 2.577,-13.099 1.171,4.386 -0.196,9.276 -2.577,13.099 z m 12.427,-20.149 c -3.709,-2.953 -6.692,-8.618 -7.254,-13.243 3.984,2.662 6.794,8.434 7.254,13.243 z m -3.261,-18.982 c -4.502,-0.694 -9.095,-3.352 -11.71,-7.071 4.69,0.36 9.13,3.164 11.71,7.071 z m -7.822,40.254 c 4.369,-2.68 9.814,-3.78 14.883,-3.153 -4.453,3.486 -9.427,3.827 -14.883,3.153 z m 12.278,-20.914 c 0.886,-4.596 3.826,-9.903 7.626,-12.569 -0.443,4.647 -3.559,10.118 -7.626,12.569 z m -3.598,-20.168 c -1.913,-4.123 -2.409,-9.276 -0.833,-13.568 2.319,3.967 2.751,9.357 0.833,13.568 z m -61.721,26.107 c 0.89,0 1.611,0.722 1.611,1.611 0,0.89 -0.721,1.612 -1.611,1.612 -0.89,0 -1.611,-0.722 -1.611,-1.612 0,-0.889 0.721,-1.611 1.611,-1.611 z m 12.937,13.852 c 0.83,-4.392 -0.002,-9.431 -2.576,-13.099 -1.172,4.386 0.195,9.276 2.576,13.099 z m -12.427,-20.149 c 3.71,-2.953 6.693,-8.618 7.254,-13.243 -3.983,2.662 -6.794,8.434 -7.254,13.243 z m 3.262,-18.982 c 4.502,-0.694 9.094,-3.352 11.71,-7.071 -4.69,0.36 -9.13,3.164 -11.71,7.071 z m 7.822,40.254 c -4.37,-2.68 -9.814,-3.78 -14.883,-3.153 4.453,3.486 9.427,3.827 14.883,3.153 z M 268.382,283.77 c -0.887,-4.596 -3.826,-9.903 -7.627,-12.569 0.443,4.647 3.559,10.118 7.627,12.569 z m 3.597,-20.168 c 1.913,-4.123 2.409,-9.276 0.833,-13.568 -2.319,3.967 -2.751,9.357 -0.833,13.568 z"
           id="path8" />
        <path
           style="fill:#da121a;stroke:none"
           d="m 361.596,293.58 c 5.318,-1.321 11.067,-3.424 16.483,-6.024 -1.365,5.026 -7.412,9.301 -12.952,11.666 0.155,-0.925 -0.012,-1.865 -0.456,-2.705 2.957,-1.273 5.873,-2.872 8.387,-4.503 l 0.252,-0.163 -0.326,-0.504 -0.252,0.163 c -2.509,1.627 -5.425,3.224 -8.38,4.49 -0.65,-0.921 -1.663,-1.674 -2.97,-2.083 -0.007,-0.002 -0.015,-0.005 -0.024,-0.007 0.08,-0.106 0.16,-0.217 0.238,-0.33 z m -126.274,0.684 c -5.922,-1.194 -12.475,-3.446 -18.773,-6.47 0.995,5.257 10.638,11.387 16.969,13.325 -1.137,-1.29 -1.497,-2.756 -1.127,-4.036 -3.942,-1.287 -8.118,-3.088 -11.405,-5.219 l -0.252,-0.163 0.327,-0.504 0.252,0.163 c 3.25,2.107 7.392,3.89 11.293,5.161 0.463,-0.961 1.377,-1.773 2.716,-2.257 z m -2.499,17.909 c -5.64,2.097 -13.568,4.098 -22.35,4.629 5.137,6.907 17.315,5.18 23.713,2.935 -1.189,-0.536 -2.178,-1.35 -2.647,-2.608 -4.643,1.526 -9.65,2.048 -14.502,1.613 l -0.3,-0.027 0.054,-0.598 0.299,0.026 c 4.777,0.429 9.708,-0.086 14.278,-1.591 -0.338,-1.519 0.383,-3.213 1.455,-4.379 z m 5.468,17.956 c -4.953,5.363 -14.657,13.796 -23.65,20.54 5.659,1.062 11.799,-1.277 17.053,-4.881 4.424,-3.035 8.268,-6.981 10.976,-10.229 -0.232,-1.038 -0.037,-2.23 0.257,-3.221 0.01,-0.033 0.026,-0.088 0.04,-0.147 l -0.096,0.012 c -2.023,2.244 -4.684,4.496 -6.871,6.287 -4.393,3.598 -9.112,6.913 -13.976,9.842 l -0.257,0.155 -0.31,-0.515 0.257,-0.155 c 4.84,-2.914 9.534,-6.212 13.905,-9.792 2.003,-1.64 4.422,-3.682 6.358,-5.739 -1.439,0.037 -2.875,-0.424 -3.553,-1.836 -0.051,-0.105 -0.094,-0.213 -0.133,-0.321 z m 16.038,12.824 c -5.066,7.366 -14.817,21.241 -23.849,30.791 8.597,-0.384 15.902,-6.052 21.521,-12.786 4.681,-5.609 8.287,-11.849 10.102,-15.605 -1.462,1.206 -3.68,2.365 -5.463,1.627 -4.586,7.933 -10.811,16.785 -17.982,21.908 l -0.244,0.175 -0.349,-0.489 0.244,-0.175 c 7.089,-5.064 13.261,-13.851 17.803,-21.705 -1.259,-0.85 -1.779,-2.286 -1.783,-3.741 z M 365.5,313.401 c 5.081,1.621 11.715,3.053 18.504,3.464 -4.707,6.33 -15.328,5.407 -21.995,3.482 -0.036,-0.045 -0.077,-0.099 -0.118,-0.154 0.014,-0.004 0.027,-0.007 0.038,-0.011 1.324,-0.381 2.651,-1.114 3.435,-2.247 3.986,1.013 8.17,1.322 12.245,0.957 l 0.299,-0.027 -0.053,-0.598 -0.3,0.027 c -3.95,0.354 -8.005,0.063 -11.874,-0.899 0.124,-0.256 0.223,-0.529 0.29,-0.82 0.246,-1.052 0.031,-2.186 -0.471,-3.174 z m -7.619,18.395 c 5.358,5.361 14.109,12.789 22.106,18.785 -5.66,1.063 -12.1,-1.277 -17.354,-4.881 -3.597,-2.467 -6.812,-5.538 -9.343,-8.346 0.055,-0.031 0.11,-0.064 0.164,-0.099 0.747,-0.489 1.115,-1.203 1.25,-1.991 1.332,1.216 2.711,2.369 3.941,3.376 4.394,3.598 9.112,6.913 13.976,9.842 l 0.258,0.155 0.309,-0.515 -0.257,-0.155 c -4.839,-2.914 -9.534,-6.212 -13.905,-9.792 -1.325,-1.085 -2.831,-2.345 -4.26,-3.67 0.002,-0.735 -0.149,-1.492 -0.347,-2.161 0.043,0.006 0.082,0.012 0.109,0.017 1.178,0.179 2.415,0.053 3.353,-0.565 z m -15.179,13.207 c 5.397,7.954 13.826,19.821 21.896,28.353 -7.85,-0.135 -15.902,-5.901 -21.521,-12.636 -3.889,-4.66 -7.036,-9.756 -9.031,-13.501 0.383,-0.555 0.641,-1.214 0.741,-1.954 0.01,-0.073 0.039,-0.238 0.079,-0.356 0.054,0.04 0.108,0.088 0.136,0.115 1.021,0.976 2.534,1.984 4.043,2.161 4.578,7.81 10.54,16.357 17.393,21.253 l 0.244,0.174 0.349,-0.489 -0.244,-0.174 c -6.679,-4.772 -12.524,-13.095 -17.034,-20.745 0.534,-0.037 1.058,-0.198 1.549,-0.522 0.638,-0.42 1.097,-1.009 1.4,-1.679 z m -53.363,68.818 c 3.854,-4.403 5.587,-7.644 6.096,-11.463 0.141,-1.059 -0.461,-0.836 -0.887,-0.366 -2.671,2.953 -7.02,6.14 -10.253,6.704 -1.945,0.339 -5.156,0.041 -8.606,-3.368 4.999,1.161 7.654,0.368 11.182,-1.797 4.182,-2.566 7.005,-6.874 7.419,-9.786 0.103,-0.726 -0.15,-0.811 -0.656,-0.275 -2.758,2.919 -5.276,3.397 -7.719,2.556 4.969,-3.21 8.984,-8.466 9.27,-20.178 0.121,-4.904 -0.871,-11.443 -3.637,-20.67 -0.345,-1.329 -0.753,-2.632 -1.25,-3.847 -0.684,-1.673 -1.618,-3.288 -2.604,-4.801 -1.328,-2.038 -2.942,-3.962 -4.008,-6.154 -0.775,-1.594 -1.439,-3.243 -2.002,-4.924 -1.744,-5.207 -2.426,-10.696 -3.174,-16.123 5.498,-0.191 10.815,-5.116 13.66,-11.226 0.246,-0.441 0.027,-0.691 -0.331,-0.501 -0.742,0.442 -1.768,0.931 -2.876,1.032 2.698,-3.629 5.161,-8.706 5.888,-14.131 1.402,-1.973 1.936,-4.276 2.226,-6.721 0.056,-0.474 -0.54,-0.544 -0.596,-0.071 -0.272,2.29 -0.759,4.467 -2.042,6.332 -0.611,0.679 -1.349,1.431 -1.853,1.637 1.376,-3.666 1.533,-6.517 1.533,-10.959 2.071,-0.359 3.788,0.628 5.747,-0.489 1.483,-0.847 0.432,-2.385 -1.452,-3.289 -1.663,-0.798 -3.188,-1.254 -3.38,-2.041 -1.268,-2.443 -2.264,-4.386 -3.993,-6.373 0.401,-0.32 0.851,-0.566 1.339,-0.755 0.269,0.91 0.88,1.749 1.604,2.135 0.279,0.148 0.732,0.217 1.257,0.242 l 0.006,0.141 c 0.067,1.768 0.744,3.36 2.094,4.536 l 0.148,0.129 0.178,-0.084 c 1.799,-0.858 2.568,-2.828 2.92,-4.671 l 0.01,-0.052 c 0.192,0.006 0.389,0.013 0.591,0.018 -0.237,1.882 -0.744,3.529 -2.267,4.756 -0.372,0.299 0.005,0.767 0.377,0.468 1.669,-1.345 2.239,-3.139 2.493,-5.209 v -10e-4 c 0.601,0.01 1.215,0.01 1.789,-0.011 3.273,3.354 4.728,9.417 5.834,13.378 0.837,4.602 1.179,9.461 1.376,14.129 0.189,4.491 0.223,9.001 0.137,13.495 -0.009,0.477 0.592,0.489 0.601,0.012 0.086,-4.507 0.052,-9.029 -0.138,-13.532 -0.146,-3.457 -0.372,-7.015 -0.816,-10.499 1.893,5.722 5.123,17.19 7.871,28.072 -2.015,2.146 -3.611,5.281 -3.851,7.923 -0.193,2.128 0.136,4.522 0.489,6.622 0.49,2.916 1.149,5.823 1.78,8.712 0.102,0.466 0.688,0.338 0.587,-0.128 -0.629,-2.88 -1.287,-5.777 -1.775,-8.684 -0.343,-2.044 -0.671,-4.396 -0.483,-6.468 0.239,-2.632 1.926,-5.822 3.983,-7.867 l 0.143,-0.001 c 6.208,0.041 12.447,-1.438 16.918,-5.384 5.403,-4.767 7.727,-12.18 6.426,-19.274 -0.132,-0.722 -1.521,-3.462 -1.451,-5.315 0.042,-1.111 0.33,-2.171 0.945,-3.031 1.353,-1.891 2.924,-2.008 4.969,-2.554 6.048,-1.613 13.39,-1.756 25.668,-9.522 -1.666,6.042 -10.186,9.415 -14.693,11.388 -0.408,0.179 -0.507,0.811 0.016,0.906 2.132,0.384 3.834,1.465 4.125,2.94 0.22,1.112 -0.298,2.732 -1.495,4.229 -0.33,0.413 -0.078,0.606 0.457,0.773 3.422,1.069 4.895,5.078 1.333,7.473 -0.585,0.393 -0.36,0.669 0.047,0.919 2.377,1.459 3.34,2.415 3.346,3.83 0.007,1.469 -0.608,3.08 -2.411,4.276 -0.301,0.199 -0.482,0.587 0.027,0.968 1.537,1.149 2.161,3.107 1.841,4.482 -0.362,1.558 -1.828,2.65 -3.623,3.166 -0.883,0.254 -0.704,0.49 -0.173,1.181 1.865,2.427 0.732,5.658 -3.106,5.176 -0.643,-0.08 -0.783,0.359 -0.431,0.841 1.57,2.151 0.569,5.575 -3.434,4.964 -0.805,-0.123 -1.017,-0.063 -0.777,0.742 1.345,4.532 -1.738,5.2 -4.002,4.366 -1.148,-0.422 -1.054,-0.201 -0.865,0.872 0.676,3.851 -2.513,5.668 -5.797,3.593 -0.364,-0.231 -0.813,-0.375 -0.67,0.641 0.291,2.07 -0.561,3.557 -1.537,4.2 -1.426,0.942 -3.615,0.263 -5.554,-1.591 -0.699,-0.668 -1.105,-0.297 -1.225,0.595 -0.258,1.91 -1.661,3.03 -3.281,3.3 -1.119,0.186 -3.925,-0.118 -5.245,-2.092 -0.361,-0.54 -0.84,-0.728 -1.174,0.051 -0.885,2.062 -3.2,3.432 -5.255,3.239 -1.02,-0.096 -2.216,-0.401 -3.587,-1.721 -1.214,-1.168 -2.486,-2.888 -3.337,-4.132 -0.231,-0.361 -0.575,-0.388 -0.758,-0.058 -2.465,3.18 -4.299,6.921 -5.586,10.843 -0.476,1.45 -0.85,2.79 -1.218,4.445 -0.166,0.745 -0.314,1.491 -0.446,2.236 -1.38,6.428 -1.945,10.499 -1.845,14.552 0.286,11.712 4.664,18.299 8.969,20.178 -2.322,0.951 -4.973,0.204 -7.587,-2.622 -0.191,-0.206 -0.77,-0.771 -0.604,0.354 0.486,3.311 3.298,7.356 7.236,9.773 3.527,2.165 7.245,3.041 11.332,1.797 -3.036,3.325 -6.811,3.707 -8.757,3.368 -3.131,-0.546 -7.611,-4.079 -10.406,-7.033 -0.404,-0.428 -0.963,-0.544 -0.846,0.364 0.508,3.921 2.734,7.681 6.058,11.794 -1.937,0.234 -4.254,-1.52 -5.786,-3.423 -0.373,-0.464 -0.77,-0.352 -0.764,0.238 0.039,3.995 -0.632,7.565 -2.538,8.407 -2.511,-1.154 -2.689,-5.011 -2.564,-8.358 0.019,-0.523 -0.437,-0.661 -0.76,-0.246 -1.302,1.675 -3.991,3.638 -6.104,3.382 z m 3.611,-142.238 c 2.071,-0.592 4.679,-0.341 7.064,-0.229 3.606,0.169 6.353,0.116 8.555,-0.196 -1.312,1.09 -2.566,1.923 -3.885,2.338 -1.775,0.198 -4.85,0.012 -5.987,-0.022 -0.916,-0.027 -3.759,0.262 -4.43,-0.095 -0.574,-0.306 -1.092,-1.027 -1.317,-1.796 z m 5.246,30.602 c 1.959,-2.665 2.514,-6 2.672,-9.266 0.023,-0.477 0.623,-0.448 0.6,0.029 -0.178,3.69 -0.859,7.422 -3.348,10.296 -0.114,0.205 -0.541,0.285 -0.528,-0.196 -0.005,-1.081 0.031,-2.167 0.031,-3.251 -10e-4,-2.273 -0.073,-4.547 -0.18,-6.818 -0.023,-0.477 0.577,-0.505 0.6,-0.029 0.108,2.28 0.179,4.564 0.181,6.847 0,0.796 -0.019,1.593 -0.028,2.388 z m -2.942,15.368 c 3.235,-2.286 4.472,-7.113 5.026,-10.8 0.07,-0.471 0.664,-0.383 0.594,0.089 -0.627,4.178 -2.088,9.572 -6.093,11.707 -0.331,0.176 -0.583,0.023 -0.419,-0.38 1.487,-3.557 2.085,-7.188 2.45,-11.006 0.045,-0.475 0.643,-0.418 0.598,0.057 -0.342,3.579 -0.889,6.989 -2.156,10.333 z m -1.287,-7.518 c -2.232,3.116 -5.208,6.73 -8.98,7.97 l -0.285,0.093 -0.187,-0.57 0.285,-0.094 c 3.626,-1.192 6.534,-4.755 8.678,-7.749 0.278,-0.387 0.766,-0.038 0.489,0.35 z m 8.357,-31.793 c 3.325,5.374 5.32,11.292 5.382,17.641 0.005,0.478 -0.596,0.483 -0.601,0.006 -0.061,-6.239 -2.026,-12.051 -5.291,-17.331 -0.251,-0.406 0.259,-0.722 0.51,-0.316 z m 17.448,61.594 c -0.562,-3.718 -0.894,-7.472 -0.566,-11.229 0.191,-2.185 1.072,-3.97 3.139,-4.866 1.207,-0.523 2.723,-0.575 4.022,-0.735 3.683,-0.456 7.248,-1.504 10.454,-3.402 2.59,-1.535 4.836,-3.528 6.905,-5.703 0.329,-0.345 0.764,0.069 0.435,0.414 -2.108,2.216 -4.395,4.242 -7.034,5.805 -3.277,1.942 -6.921,3.016 -10.686,3.482 -1.217,0.15 -2.731,0.203 -3.856,0.69 -1.861,0.807 -2.609,2.407 -2.78,4.367 -0.098,1.116 -0.136,2.231 -0.127,3.346 5.523,-0.812 10.755,-2.701 15.616,-5.611 5.911,-3.539 10.513,-8.578 14.222,-14.317 -2.464,-0.161 -5.354,-1.18 -5.401,-4.023 -0.012,-0.746 0.221,-1.474 0.629,-2.095 0.378,-0.574 0.895,-1.033 1.521,-1.321 1.847,-0.85 3.72,0.008 5.05,1.351 0.229,-2.126 1.063,-4.434 3.237,-4.983 0.608,-0.153 1.241,-0.126 1.843,0.042 0.297,0.083 0.578,0.213 0.833,0.387 1.134,0.774 1.51,2.182 1.286,3.486 -0.246,1.431 -1.135,2.657 -2.213,3.619 1.354,0.446 2.652,1.213 3.316,2.491 0.612,1.177 0.526,2.565 -0.211,3.664 -0.771,1.149 -2.276,1.584 -3.593,1.335 -1.36,-0.257 -2.541,-1.26 -3.322,-2.433 -2.834,5.212 -6.668,9.944 -11.253,13.709 -5.95,4.885 -13.543,8.298 -21.22,9.853 0.1,0.864 0.218,1.727 0.348,2.588 0.071,0.471 -0.523,0.561 -0.594,0.089 z M 229.81,278.257 c 3.242,2.102 7.321,3.763 10.938,5.104 3.245,1.204 6.735,1.905 9.882,3.348 1.849,0.848 3.655,2.358 3.505,4.581 -0.08,1.188 -0.538,2.169 -1.295,3.079 -0.305,0.367 -0.767,-0.017 -0.462,-0.384 0.675,-0.813 1.086,-1.675 1.157,-2.735 0.132,-1.955 -1.549,-3.259 -3.155,-3.995 -3.125,-1.433 -6.614,-2.133 -9.841,-3.33 -3.661,-1.358 -7.774,-3.037 -11.056,-5.164 -0.4,-0.26 -0.073,-0.764 0.327,-0.504 z m 82.012,66.154 14.036,24.432 c -0.808,-0.642 -2.194,-1.685 -3.829,-2.934 l -9.253,-17.171 c -0.198,-0.367 -0.738,-0.103 -0.529,0.285 l 8.62,15.995 c -2.222,-1.708 -4.731,-3.681 -6.839,-5.51 -0.244,2.16 -0.484,4.263 -0.561,6.653 l -5.537,-10.258 c -0.179,-0.333 -0.701,-0.034 -0.528,0.286 l 6.041,11.191 c -0.012,1.642 0.057,3.432 0.255,5.47 l -7.727,-16.177 c 1.242,-4.42 3.151,-8.688 5.851,-12.262 z m -20.986,10.427 -8.303,18.035 c -0.373,-3.15 -0.851,-8.008 -0.374,-11.967 0.134,-1.112 -0.528,-1.056 -1.04,-0.509 -2.439,2.609 -4.321,3.846 -6.608,5.42 l 9.182,-16.338 c 0.242,-0.432 -0.304,-0.687 -0.524,-0.295 l -9.79,17.421 c -0.991,0.701 -2.074,1.501 -3.313,2.517 l 12.191,-21.275 c 0.425,-0.742 0.809,-1.512 1.156,-2.294 0.155,-0.347 0.317,-0.708 0.496,-1.007 0.511,-0.852 1.118,-0.521 1.613,0.018 0.444,0.482 0.806,1.018 1.176,1.558 0.167,0.244 0.332,0.489 0.493,0.736 0.964,1.481 1.882,3.063 2.551,4.7 0.425,1.04 0.785,2.147 1.094,3.28 z m -8.503,-8.409 c -2.401,3.227 -4.525,3.335 -6,2.949 -1.354,-0.354 -2.553,-1.123 -3.33,-2.934 -0.334,-0.779 -0.813,-0.591 -1.174,-0.051 -1.319,1.973 -3.998,2.376 -5.095,2.092 -1.619,-0.42 -3.174,-1.54 -3.431,-3.451 -0.12,-0.89 -0.376,-1.263 -1.075,-0.595 -1.94,1.855 -4.324,2.719 -5.751,1.777 -0.975,-0.644 -1.781,-2.015 -1.49,-4.085 0.143,-1.016 -0.456,-1.022 -0.82,-0.791 -3.285,2.075 -6.324,0.408 -5.647,-3.443 0.188,-1.073 -0.018,-1.294 -1.166,-0.871 -2.264,0.833 -5.196,0.015 -3.851,-4.517 0.239,-0.806 0.027,-1.015 -0.778,-0.892 -4.003,0.611 -4.854,-2.663 -3.284,-4.814 0.353,-0.482 0.062,-0.921 -0.58,-0.841 -3.631,0.898 -5.306,-2.75 -2.957,-5.176 0.607,-0.626 0.56,-0.927 -0.323,-1.181 -1.794,-0.516 -3.226,-1.435 -3.623,-3.166 -0.315,-1.375 0.455,-3.333 1.992,-4.482 0.509,-0.381 0.327,-0.769 0.026,-0.968 -1.802,-1.196 -2.568,-2.356 -2.561,-3.825 0.007,-1.415 0.969,-3.122 3.346,-4.581 0.407,-0.25 0.632,-0.677 0.047,-1.07 -3.285,-2.602 -2.193,-5.976 1.334,-6.872 0.543,-0.138 0.637,-0.51 0.306,-0.923 -1.197,-1.497 -1.564,-3.117 -1.345,-4.229 0.292,-1.475 1.993,-2.406 4.126,-2.79 0.522,-0.094 0.573,-0.727 0.166,-0.906 -4.507,-1.972 -13.178,-5.496 -14.843,-11.538 12.278,7.766 19.62,7.909 25.667,9.522 2.046,0.546 3.617,0.663 4.97,2.554 1.64,2.293 0.949,6.005 -0.507,8.346 -1.296,7.59 1.265,14.622 6.877,19.574 4.442,3.92 10.184,5.11 16.346,5.084 0.22,1.598 0.435,3.2 0.672,4.799 -8.306,-0.018 -15.266,-2.732 -19.784,-9.933 -0.253,-0.404 -0.762,-0.085 -0.509,0.319 4.647,7.406 11.828,10.217 20.383,10.215 0.381,2.509 0.826,5.006 1.444,7.462 -6.072,-0.675 -11.808,-2.633 -17.103,-5.803 -5.911,-3.539 -10.514,-8.578 -14.223,-14.317 2.465,-0.161 5.354,-1.18 5.401,-4.023 0.012,-0.746 -0.22,-1.474 -0.629,-2.095 -0.378,-0.574 -0.895,-1.033 -1.52,-1.321 -1.848,-0.85 -3.721,0.008 -5.051,1.351 -0.229,-2.126 -1.063,-4.434 -3.236,-4.983 -0.608,-0.153 -1.242,-0.126 -1.844,0.042 -0.297,0.083 -0.578,0.213 -0.833,0.387 -1.134,0.774 -1.51,2.182 -1.286,3.486 0.246,1.431 1.135,2.657 2.214,3.619 -1.354,0.446 -2.653,1.213 -3.317,2.491 -0.612,1.177 -0.526,2.565 0.212,3.664 0.77,1.149 2.275,1.584 3.592,1.335 1.361,-0.257 2.541,-1.26 3.323,-2.433 2.833,5.212 6.667,9.944 11.252,13.709 6.88,5.647 15.956,9.328 24.817,10.444 0.385,0.979 0.806,1.943 1.266,2.889 0.477,0.98 1.057,1.902 1.671,2.804 -0.499,-0.105 -1.003,0.091 -1.423,0.794 -0.276,0.46 -0.506,1.041 -0.737,1.531 -0.106,0.223 -0.213,0.443 -0.324,0.661 z"
           id="path10" />
        <path
           style="fill:#ffffff;stroke:none"
           d="m 297.593,274.101 c 0.424,-0.02 0.805,-0.035 1.086,-0.026 0.331,0.009 0.786,0.03 1.311,0.051 -0.304,1.565 -0.936,3.308 -2.404,4.114 -0.303,-1.332 -0.397,-2.645 0.007,-4.139 z"
           id="path12" />
        <path
           style="fill:#fadd07;stroke:none"
           d="m 286.65,261.809 c 1.365,1.712 2.721,3.73 3.656,5.799 0.932,-0.136 1.899,-0.245 2.885,-0.326 l -0.184,-0.249 c -0.895,-1.213 -1.993,-2.664 -3.182,-3.597 -0.806,-0.632 -2.015,-1.414 -3.175,-1.627 z m 3.902,6.371 c 0.262,0.636 0.48,1.275 0.643,1.909 4.025,-0.445 8.303,-0.474 12.332,-0.121 0.087,-0.635 0.201,-1.258 0.343,-1.867 -4.221,-0.556 -9.113,-0.52 -13.318,0.079 z m 13.464,-0.665 c 0.619,-2.323 1.664,-4.447 3.196,-6.326 -2.728,0.969 -4.638,3.048 -5.792,5.907 l -0.06,0.146 c 0.906,0.067 1.795,0.158 2.656,0.273 z m -3.676,-0.337 -3.242,-7.615 -3.186,7.665 c 2.116,-0.144 4.305,-0.162 6.428,-0.05 z"
           id="path14" />
        <path
           style="fill:#fadd07;stroke:none"
           d="m 284.462,279.737 c 0.847,-1.756 1.869,-2.912 2.069,-2.986 1.432,-0.532 1.863,1.106 3.483,1.862 1.171,0.547 3.088,0.633 4.632,0.852 -0.034,-0.049 -0.064,-0.099 -0.091,-0.15 -1.364,-0.406 -2.664,-1.28 -3.57,-2.323 -0.987,-1.137 -1.77,-2.41 -2.793,-3.554 -0.318,-0.355 0.13,-0.756 0.448,-0.4 1.026,1.147 1.811,2.422 2.799,3.56 0.706,0.814 1.683,1.523 2.732,1.947 -1.029,-1.976 -2.03,-3.814 -3.509,-5.535 -2.109,-0.336 -6.325,-0.517 -7.279,0.476 -0.533,0.555 -0.547,0.881 -0.52,1.475 0.07,1.519 0.845,3.545 1.599,4.776 z"
           id="path16" />
        <path
           style="fill:#da121a;stroke:none"
           d="m 279.206,281.647 c -0.235,0.821 -0.274,1.694 0.098,2.475 0.381,0.8 1.149,1.347 2.034,1.425 2.666,0.233 5.756,-1.463 8.227,-2.383 1.196,-0.445 2.82,-0.884 4.323,-1.117 -1.016,-0.142 -2.071,-0.105 -3.066,-0.017 -1.855,0.165 -3.587,0.703 -5.363,1.226 -1.197,0.352 -2.982,0.915 -4.199,0.459 -0.901,-0.337 -1.569,-1.174 -2.054,-2.068 z"
           id="path18" />
        <path
           style="fill:#fadd07;stroke:none"
           d="m 281.636,337.113 c -9.484,-1.254 -18.144,-5.307 -24.192,-10.272 -4.828,-3.964 -8.797,-9.007 -11.622,-14.508 -0.728,1.657 -2.123,2.857 -3.445,3.107 -1.167,0.22 -2.389,-0.194 -2.982,-1.079 -1.13,-1.685 -0.65,-4.607 3.92,-5.548 -4.135,-2.892 -3.412,-6.583 -1.247,-7.186 2.354,-0.657 4.496,1.357 4.385,5.998 2.057,-3.301 5.244,-3.399 6.602,-1.335 1.423,2.16 0.096,5.399 -5.351,5.204 4.057,6.516 8.929,11.783 14.995,15.415 5.062,3.031 10.912,5.207 17.573,5.91 0.251,0.948 0.53,1.89 0.843,2.824 0.165,0.493 0.338,0.983 0.521,1.47 z m 38.316,-0.551 c 8.185,-1.663 15.564,-5.336 20.905,-9.721 4.829,-3.964 8.797,-9.007 11.622,-14.508 0.729,1.657 2.123,2.857 3.446,3.107 1.166,0.22 2.388,-0.194 2.982,-1.079 1.13,-1.685 0.65,-4.607 -3.921,-5.548 4.135,-2.892 3.413,-6.583 1.248,-7.186 -2.355,-0.657 -4.497,1.357 -4.386,5.998 -2.057,-3.301 -5.244,-3.399 -6.602,-1.335 -1.423,2.16 -0.096,5.399 5.352,5.204 -4.057,6.516 -8.929,11.783 -14.996,15.415 -4.637,2.776 -9.936,4.836 -15.914,5.702 0.031,1.32 0.125,2.637 0.264,3.951 z"
           id="path20" />
        <g
           id="g26">
          <path
             style="fill:#fadd07;stroke:none"
             d="m 277.021,364.799 -9.22,19.185 -12.478,-7.254 c -0.532,1.02 -0.878,1.63 -1.727,2.2 l -0.469,0.624 c -0.206,0.275 -0.384,0.41 -0.319,0.654 0.279,1.05 3.049,-0.022 3.733,-0.157 l 11.084,5.895 c -1.726,0.189 -3.382,0.244 -4.982,0.257 -3.793,0.031 -10.018,-0.734 -11.182,-0.147 -0.26,2.687 0.319,4.428 1.579,4.537 1.284,0.112 1.951,-0.994 2.291,-2.225 l 12.034,-0.172 c -1.258,3.081 -2.991,5.324 -4.204,6.886 -0.68,0.876 -1.347,1.415 -1.777,2.534 -0.276,0.717 -0.368,1.311 -0.406,2.034 0.412,0.163 1.082,0.497 1.495,0.96 1.588,-0.159 2.428,0.514 3.562,-1.208 0.23,-0.349 -1.609,-2.411 -0.737,-3.813 l 4.529,-7.286 9.027,0.171 c 3.224,0.061 1.781,2.446 3.051,2.165 0.584,-0.129 2.027,-1.055 2.304,-3.036 -0.057,-0.743 -0.088,-0.959 0.021,-1.72 -0.387,-0.496 -0.921,-0.588 -1.532,-0.524 -1.38,0.145 -2.603,0.945 -3.806,0.911 l -1.041,-0.03 c -2.032,-0.128 -3.97,-0.294 -6.596,-0.184 l 10.194,-18.293 c -0.098,-1.594 -0.134,-3.199 -0.062,-4.761 l -12.102,22.226 c -0.265,0.488 -0.8,0.213 -0.555,-0.236 l 12.755,-23.426 c 0.023,-0.246 0.049,-0.49 0.078,-0.732 0.001,-0.01 0.002,-0.022 0.004,-0.036 -0.003,0.003 -0.006,0.006 -0.009,0.009 -1.418,1.516 -2.87,2.783 -4.537,3.992 z m -22.22,11.632 c -1.142,-0.632 -2.437,-1.162 -3.752,-1.169 -1.909,-0.01 -2.078,1.339 -1.539,2.604 0.245,-0.942 0.632,-1.802 1.836,-1.617 0.44,0.067 1.631,0.847 2.63,1.541 0.323,-0.387 0.548,-0.827 0.815,-1.338 z m -7.332,14.468 c -0.149,-1.032 -0.083,-2.148 0.736,-2.769 0.663,-0.502 1.628,-0.527 2.611,-0.479 -0.022,-0.493 -0.006,-0.967 0.023,-1.369 -1.095,0.04 -2.257,0.206 -3.053,0.552 -0.703,0.305 -1.252,0.868 -1.405,1.634 -0.202,1.018 0.325,1.861 1.088,2.431 z m 37.319,-3.611 c 0.85,0.009 1.655,0.108 2.226,0.54 0.77,0.583 0.832,1.447 0.688,2.31 0.807,-0.619 1.31,-1.544 0.896,-2.632 -0.184,-0.485 -0.536,-0.88 -0.993,-1.124 -0.681,-0.363 -1.728,-0.516 -2.759,-0.556 l -0.021,0.143 c -0.076,0.532 -0.07,0.853 -0.037,1.319 z m -23.877,12.985 c -0.384,1.864 -0.389,4.167 1.481,4.741 1.104,0.34 2.158,0.034 2.86,-0.713 -1.169,0.239 -2.473,0.174 -2.95,-0.908 -0.251,-0.567 -0.271,-1.49 -0.178,-2.271 l -0.1,-0.112 c -0.27,-0.303 -0.719,-0.565 -1.113,-0.737 z"
             id="path22" />
          <path
             style="fill:#fadd07;stroke:none"
             d="m 318.649,364.038 9.298,19.345 12.478,-7.254 c 0.532,1.02 0.878,1.63 1.727,2.201 l 0.469,0.624 c 0.206,0.274 0.384,0.409 0.319,0.653 -0.28,1.05 -3.049,-0.022 -3.733,-0.157 l -11.084,5.895 c 1.726,0.189 3.381,0.245 4.982,0.257 3.793,0.031 10.017,-0.734 11.181,-0.147 0.261,2.688 -0.319,4.428 -1.578,4.537 -1.284,0.112 -1.952,-0.994 -2.291,-2.225 l -12.035,-0.172 c 1.259,3.081 2.992,5.324 4.204,6.887 0.681,0.875 1.347,1.414 1.778,2.533 0.276,0.718 0.368,1.311 0.406,2.035 -0.413,0.162 -1.083,0.496 -1.495,0.959 -1.589,-0.159 -2.428,0.514 -3.563,-1.208 -0.229,-0.349 1.609,-2.411 0.738,-3.813 l -4.529,-7.286 -9.027,0.171 c -3.224,0.061 -1.782,2.446 -3.051,2.165 -0.585,-0.129 -2.027,-1.055 -2.305,-3.036 0.058,-0.743 0.089,-0.959 -0.021,-1.719 0.388,-0.497 0.922,-0.589 1.533,-0.525 1.379,0.146 2.603,0.945 3.805,0.911 l 1.042,-0.029 c 2.032,-0.129 3.97,-0.295 6.596,-0.185 l -10.416,-18.691 c 0.034,-1.459 0.128,-2.907 0.262,-4.403 l 12.123,22.267 c 0.266,0.487 0.8,0.213 0.556,-0.237 l -12.577,-23.099 0.06,-0.589 c 1.362,1.15 2.75,2.251 4.148,3.335 z m 22.297,11.793 c 1.143,-0.633 2.438,-1.163 3.753,-1.17 1.909,-0.009 2.078,1.34 1.539,2.605 -0.245,-0.942 -0.633,-1.803 -1.837,-1.618 -0.439,0.068 -1.63,0.848 -2.629,1.542 -0.323,-0.388 -0.548,-0.828 -0.815,-1.339 z m 7.332,14.467 c 0.15,-1.032 0.084,-2.148 -0.736,-2.769 -0.662,-0.502 -1.627,-0.527 -2.61,-0.478 0.022,-0.494 0.006,-0.968 -0.024,-1.37 1.095,0.041 2.257,0.207 3.054,0.552 0.703,0.305 1.252,0.868 1.405,1.634 0.201,1.018 -0.325,1.861 -1.089,2.431 z m -37.318,-3.611 c -0.85,0.009 -1.655,0.108 -2.226,0.54 -0.77,0.583 -0.832,1.447 -0.689,2.311 -0.807,-0.62 -1.309,-1.544 -0.895,-2.633 0.184,-0.485 0.536,-0.88 0.993,-1.124 0.681,-0.363 1.727,-0.516 2.759,-0.555 l 0.021,0.142 c 0.076,0.533 0.07,0.853 0.037,1.319 z m 23.877,12.985 c 0.384,1.865 0.389,4.168 -1.481,4.742 -1.105,0.339 -2.159,0.033 -2.861,-0.714 1.169,0.239 2.474,0.174 2.951,-0.908 0.25,-0.567 0.27,-1.49 0.177,-2.271 l 0.101,-0.112 c 0.269,-0.303 0.718,-0.565 1.113,-0.737 z"
             id="path24" />
        </g>
      </g>
      <path
         style="fill:#009b46;stroke:none"
         d="m 578.078,367.743 c -0.87,154.124 -126.112,278.848 -280.44,278.848 -154.329,0 -279.57,-124.724 -280.4408,-278.848 H 123.824 c 0.868,95.246 78.363,172.221 173.814,172.221 95.45,0 172.945,-76.975 173.814,-172.221 z"
         id="path30" />
      <path
         style="fill:#ffffff;stroke:none"
         d="m 578.078,367.743 c -0.87,154.124 -126.112,278.848 -280.44,278.848 -0.272,0 -0.542,-0.01 -0.814,-0.011 V 539.954 c 0.272,0.001 0.542,0.01 0.814,0.01 95.45,0 172.945,-76.975 173.814,-172.221 z"
         id="path32" />
      <path
         style="fill:#000000;stroke:none"
         d="m 245.028,431.194 v 30.2 h -7.461 v -30.2 h -8.239 v -6.183 h 23.835 v 6.183 z"
         id="path34" />
      <path
         style="fill:#000000;stroke:none"
         d="m 261.538,461.394 v -36.383 h 7.566 v 36.383 z"
         id="path36" />
      <path
         style="fill:#000000;stroke:none"
         d="m 296.299,461.394 c -0.277,-0.477 -0.484,-1.116 -0.622,-1.916 -0.138,-0.801 -0.242,-1.917 -0.311,-3.347 l -0.104,-2.964 c -0.034,-1.022 -0.077,-1.865 -0.129,-2.529 -0.052,-0.665 -0.121,-1.218 -0.207,-1.661 -0.087,-0.443 -0.208,-0.809 -0.363,-1.099 -0.156,-0.289 -0.354,-0.57 -0.596,-0.843 -0.38,-0.409 -0.872,-0.681 -1.477,-0.817 -0.604,-0.137 -1.511,-0.205 -2.72,-0.205 h -2.902 v 15.381 h -7.409 v -36.383 h 12.591 c 1.658,0 3.161,0.171 4.508,0.511 1.347,0.341 2.487,0.895 3.42,1.661 0.932,0.767 1.658,1.763 2.176,2.989 0.518,1.227 0.777,2.743 0.777,4.548 0,4.838 -2.038,7.733 -6.114,8.687 1.382,0.204 2.452,0.579 3.212,1.124 0.76,0.545 1.339,1.227 1.736,2.044 0.397,0.818 0.648,1.738 0.752,2.76 0.103,1.021 0.172,2.095 0.206,3.219 l 0.104,3.015 c 0,0.408 0,0.885 0,1.43 0,0.546 0.043,1.082 0.13,1.61 0.086,0.528 0.242,1.023 0.466,1.482 0.224,0.46 0.579,0.492 1.062,0.696 v 0.607 z m -0.778,-25.808 c 0,-1.908 -0.509,-3.078 -1.528,-3.81 -1.019,-0.732 -2.428,-1.099 -4.223,-1.099 h -2.902 v 10.175 h 2.902 c 1.865,0 3.29,-0.383 4.275,-1.15 0.984,-0.766 1.476,-2.038 1.476,-4.116 z"
         id="path38" />
      <path
         style="fill:#000000;stroke:none"
         d="m 337.121,442.896 c 0,1.567 -0.026,3.134 -0.078,4.701 -0.052,1.567 -0.207,3.058 -0.467,4.472 -0.258,1.413 -0.656,2.742 -1.191,3.985 -0.536,1.243 -1.27,2.317 -2.202,3.219 -0.933,0.903 -2.116,1.61 -3.55,2.121 -1.433,0.511 -3.186,0.766 -5.259,0.766 -2.971,0 -5.285,-0.579 -6.943,-1.737 -1.658,-1.158 -2.893,-2.649 -3.705,-4.471 -0.811,-1.823 -1.312,-3.867 -1.503,-6.132 -0.189,-2.265 -0.285,-4.505 -0.285,-6.72 0,-1.533 0.035,-3.074 0.104,-4.624 0.069,-1.55 0.242,-3.023 0.518,-4.42 0.277,-1.397 0.683,-2.691 1.218,-3.884 0.536,-1.192 1.269,-2.231 2.202,-3.117 0.933,-0.885 2.099,-1.575 3.498,-2.069 1.399,-0.494 3.1,-0.741 5.104,-0.741 1.968,0 3.652,0.247 5.051,0.741 1.399,0.494 2.556,1.175 3.472,2.044 0.915,0.868 1.641,1.899 2.176,3.091 0.535,1.193 0.942,2.479 1.218,3.858 0.276,1.38 0.449,2.828 0.518,4.344 0.069,1.516 0.104,3.04 0.104,4.573 z m -7.669,0.715 c 0,-2.214 -0.035,-3.748 -0.104,-5.502 -0.068,-1.754 -0.259,-3.237 -0.57,-4.446 -0.31,-1.208 -0.803,-2.138 -1.476,-2.785 -0.673,-0.646 -1.598,-0.97 -2.772,-0.97 -1.175,0 -2.091,0.315 -2.746,0.945 -0.656,0.63 -1.15,1.533 -1.477,2.708 -0.328,1.175 -0.536,2.598 -0.622,4.267 -0.086,1.669 -0.13,3.092 -0.13,5.17 0,2.146 0.044,3.629 0.13,5.349 0.086,1.721 0.303,3.186 0.647,4.395 0.346,1.209 0.847,2.138 1.503,2.785 0.656,0.647 1.537,0.971 2.643,0.971 1.14,0 2.038,-0.29 2.694,-0.869 0.656,-0.578 1.149,-1.431 1.477,-2.555 0.328,-1.124 0.544,-2.513 0.647,-4.164 0.104,-1.652 0.156,-3.118 0.156,-5.299 z"
         id="path40" />
      <path
         style="fill:#000000;stroke:none"
         d="m 346.134,461.394 v -36.383 h 7.461 v 30.353 h 13.265 v 6.03 z"
         id="path42" />
      <g
         id="g68">
        <path
           style="fill:#000000;stroke:none"
           d="m 46.2865,408.152 46.574,-24.326 2.9702,10.807 -21.2415,9.672 c -1.6694,0.742 -4.1419,1.791 -7.4125,3.122 -1.6424,0.66 -3.3851,1.362 -5.2076,2.084 -1.8262,0.712 -3.7518,1.463 -5.8071,2.238 3.5138,-0.535 6.9205,-0.966 10.2202,-1.293 3.3109,-0.331 6.5836,-0.577 9.8406,-0.746 l 23.4192,-1.21 3.314,12.056 -21.1492,10.546 c -1.7361,0.859 -4.1699,1.96 -7.2903,3.298 l -10.8483,4.658 c 2.9333,-0.449 6.1765,-0.847 9.7232,-1.218 3.5496,-0.36 6.992,-0.615 10.3533,-0.763 l 23.4193,-1.21 2.501,9.099 -52.565,2.528 -3.1751,-11.551 24.7621,-12.649 5.9497,-2.794 c 1.1819,-0.497 2.4789,-1.026 3.8837,-1.61 2.3229,-0.921 3.8541,-1.539 4.5849,-1.839 -1.6694,0.249 -2.8477,0.4 -3.5265,0.488 -0.6929,0.08 -1.861,0.179 -3.5193,0.29 -2.6275,0.217 -5.5698,0.409 -8.7989,0.545 l -27.8368,1.192 z"
           id="path44" />
        <path
           style="fill:#000000;stroke:none"
           d="m 82.4438,470.174 5.6609,9.355 -1.1591,0.702 c -2.2881,1.384 -3.671,2.749 -4.1552,4.084 -0.4943,1.341 -0.2033,2.901 0.8798,4.691 0.8428,1.393 1.9406,2.243 3.3096,2.553 1.3688,0.311 2.8006,0.015 4.2954,-0.89 2.0644,-1.249 3.197,-4.588 3.4031,-10.033 l 0.0114,-0.785 c 0.052,-1.796 0.085,-2.774 0.0928,-2.946 0.0535,-1.519 0.1277,-2.841 0.2196,-3.953 0.0495,-0.905 0.1117,-1.651 0.1871,-2.239 0.0871,-0.705 0.1784,-1.288 0.2847,-1.755 0.492,-2.493 1.2045,-4.438 2.1491,-5.816 0.9386,-1.387 2.3668,-2.654 4.268,-3.805 3.661,-2.215 7.342,-2.72 11.058,-1.538 3.716,1.183 6.857,3.894 9.429,8.145 2.634,4.352 3.611,8.262 2.925,11.719 -0.691,3.474 -3.013,6.408 -6.989,8.814 l -1.16,0.701 -5.5,-9.091 0.233,-0.141 c 2.095,-1.268 3.413,-2.579 3.975,-3.947 0.61,-1.355 0.468,-2.784 -0.443,-4.289 -0.818,-1.352 -1.887,-2.178 -3.197,-2.483 -1.309,-0.305 -2.654,-0.047 -4.016,0.778 -2.349,1.421 -3.495,5.588 -3.459,12.512 l -0.042,4.178 c -0.08,3.952 -0.617,7.014 -1.622,9.164 -1.005,2.15 -2.664,3.932 -4.9821,5.335 -4.2504,2.572 -8.2205,3.265 -11.9164,2.071 -3.6896,-1.185 -7.0113,-4.218 -9.9647,-9.098 -2.769,-4.576 -3.7785,-8.564 -3.0288,-11.962 0.7431,-3.409 3.3145,-6.437 7.7072,-9.095 l 0.7425,-0.45 z"
           id="path46" />
        <path
           style="fill:#000000;stroke:none"
           d="m 143.164,532.29 -18.469,18.407 c -1.461,-0.994 -2.703,-1.887 -3.744,-2.661 -1.032,-0.767 -2.165,-1.651 -3.391,-2.611 -1.871,-1.491 -3.499,-2.923 -4.892,-4.32 -2.232,-2.239 -3.901,-4.318 -5.015,-6.244 -1.115,-1.926 -1.733,-3.793 -1.865,-5.642 -0.155,-2.782 0.649,-5.697 2.418,-8.72 1.77,-3.022 5.299,-7.176 10.594,-12.454 1.936,-1.929 3.62,-3.523 5.033,-4.764 1.406,-1.25 2.769,-2.307 4.056,-3.17 2.424,-1.627 4.77,-2.656 7.057,-3.09 2.278,-0.441 4.614,-0.168 7.015,0.827 1.193,0.507 2.402,1.198 3.619,2.048 1.209,0.86 2.434,1.904 3.684,3.158 3.751,3.763 5.677,7.582 5.763,11.456 0.094,3.883 -1.677,7.629 -5.305,11.245 l -0.547,0.545 -7.45,-7.476 0.446,-0.444 c 2.054,-2.047 3.225,-3.92 3.514,-5.634 0.28,-1.705 -0.322,-3.303 -1.799,-4.784 -1.854,-1.861 -3.946,-2.31 -6.284,-1.372 -2.338,0.937 -6.335,4.216 -11.976,9.837 -5.901,5.882 -9.21,10.02 -9.92,12.405 -0.727,2.385 0.084,4.748 2.408,7.08 0.411,0.413 0.772,0.741 1.074,0.977 0.302,0.236 0.596,0.463 0.873,0.674 0.277,0.227 0.604,0.455 0.965,0.699 0.362,0.244 0.823,0.539 1.394,0.893 l 8.14,-8.113 -4.186,-4.201 5.699,-5.68 z"
           id="path48" />
        <path
           style="fill:#000000;stroke:none"
           d="m 178.939,573.723 9.927,4.583 -0.568,1.23 c -1.12,2.429 -1.502,4.333 -1.156,5.711 0.34,1.388 1.455,2.517 3.354,3.394 1.479,0.683 2.864,0.773 4.172,0.264 1.308,-0.509 2.329,-1.556 3.061,-3.143 1.012,-2.19 0.081,-5.591 -2.796,-10.218 l -0.43,-0.657 c -0.962,-1.517 -1.482,-2.347 -1.572,-2.493 -0.806,-1.289 -1.485,-2.426 -2.031,-3.399 -0.465,-0.777 -0.831,-1.43 -1.098,-1.959 -0.323,-0.634 -0.573,-1.168 -0.747,-1.615 -0.988,-2.341 -1.486,-4.352 -1.474,-6.022 0.001,-1.675 0.475,-3.524 1.406,-5.542 1.794,-3.885 4.562,-6.364 8.303,-7.464 3.741,-1.101 7.862,-0.612 12.373,1.47 4.618,2.132 7.616,4.825 8.983,8.075 1.372,3.265 1.09,6.996 -0.858,11.215 l -0.568,1.23 -9.647,-4.453 0.114,-0.248 c 1.027,-2.224 1.385,-4.048 1.084,-5.496 -0.253,-1.465 -1.169,-2.569 -2.767,-3.306 -1.435,-0.663 -2.783,-0.748 -4.039,-0.268 -1.256,0.481 -2.226,1.446 -2.893,2.893 -1.151,2.492 0.232,6.587 4.138,12.304 l 2.304,3.485 c 2.146,3.321 3.414,6.158 3.785,8.503 0.371,2.344 -0.006,4.749 -1.142,7.209 -2.082,4.51 -4.983,7.308 -8.715,8.386 -3.72,1.084 -8.17,0.43 -13.35,-1.961 -4.856,-2.242 -7.924,-4.981 -9.206,-8.216 -1.292,-3.241 -0.856,-7.19 1.296,-11.851 l 0.364,-0.788 z"
           id="path50" />
        <path
           style="fill:#000000;stroke:none"
           d="m 233.411,613.523 -3.746,-52.41 11.095,1.583 0.404,23.336 c 0.016,1.827 -0.007,4.513 -0.091,8.043 -0.049,1.769 -0.1,3.647 -0.164,5.607 -0.075,1.958 -0.154,4.024 -0.263,6.217 0.91,-3.435 1.873,-6.732 2.888,-9.889 1.016,-3.168 2.095,-6.267 3.239,-9.322 l 8.224,-21.961 12.378,1.767 1.242,23.599 c 0.096,1.935 0.135,4.606 0.119,8.001 l -0.052,11.806 c 0.758,-2.869 1.685,-6.002 2.759,-9.403 1.085,-3.399 2.222,-6.658 3.427,-9.799 l 8.224,-21.961 9.342,1.333 -18.632,49.217 -11.86,-1.693 -1.731,-27.751 -0.191,-6.57 c 0.015,-1.283 0.047,-2.683 0.072,-4.204 0.08,-2.498 0.124,-4.148 0.14,-4.938 -0.437,1.63 -0.767,2.771 -0.957,3.429 -0.204,0.667 -0.578,1.778 -1.137,3.343 -0.849,2.496 -1.845,5.271 -3.008,8.287 l -10.002,26.005 z"
           id="path52" />
        <path
           style="fill:#000000;stroke:none"
           d="m 314.697,600.914 10.869,-1.489 -8.295,-21.32 z m 18.155,17.019 -4.283,-10.942 -14.765,2.023 -1.135,11.684 -10.692,1.464 7.372,-52.845 13.565,-1.858 21.112,48.943 z"
           id="path54" />
        <path
           style="fill:#000000;stroke:none"
           d="m 362.85,558.1 c 5.837,-2.306 10.154,-2.989 12.953,-2.05 2.81,0.934 5.127,3.725 6.961,8.367 1.45,3.67 2.014,6.617 1.676,8.833 -0.339,2.217 -1.645,4.152 -3.945,5.801 3.083,-0.541 5.415,-0.299 6.989,0.741 1.585,1.035 3.189,3.608 4.809,7.709 l 0.472,1.194 0.476,1.205 c 0.852,2.155 1.685,3.973 2.484,5.446 0.804,1.485 1.681,2.799 2.643,3.94 l -10.446,4.127 c -0.575,-0.744 -1.235,-1.864 -1.959,-3.341 -0.74,-1.484 -1.583,-3.425 -2.526,-5.813 -0.215,-0.541 -0.446,-1.127 -0.695,-1.758 -0.244,-0.618 -0.511,-1.293 -0.79,-2 -0.481,-1.216 -0.984,-2.167 -1.513,-2.891 -0.536,-0.709 -1.129,-1.241 -1.797,-1.604 -1.213,-0.645 -2.776,-0.589 -4.699,0.171 l -4.178,1.65 7.778,19.687 -10.004,3.952 -18.87,-47.763 z m 3.972,22.277 2.464,-0.974 c 2.675,-1.057 4.342,-2.303 4.991,-3.735 0.652,-1.421 0.469,-3.406 -0.527,-5.926 -0.965,-2.443 -2.095,-3.913 -3.4,-4.433 -1.304,-0.519 -3.329,-0.243 -6.082,0.844 l -2.652,1.048 z"
           id="path56" />
        <path
           style="fill:#000000;stroke:none"
           d="m 435.066,580.851 c -1.923,1.336 -3.921,2.335 -5.995,2.994 -2.068,0.67 -3.903,0.903 -5.509,0.716 -2.716,-0.284 -5.458,-1.606 -8.23,-3.949 -2.771,-2.344 -6.125,-6.338 -10.059,-11.999 -3.017,-4.343 -5.167,-7.915 -6.437,-10.723 -1.271,-2.807 -1.917,-5.34 -1.947,-7.591 -0.027,-2.268 0.639,-4.497 2.001,-6.702 1.372,-2.212 3.364,-4.219 5.999,-6.05 2.021,-1.403 4.058,-2.429 6.093,-3.061 2.039,-0.649 3.923,-0.874 5.638,-0.676 2.663,0.292 5.272,1.504 7.802,3.625 2.536,2.13 5.569,5.725 9.089,10.79 3.669,5.281 6.137,9.311 7.394,12.1 1.257,2.788 1.91,5.373 1.957,7.772 0.052,2.221 -0.6,4.469 -1.945,6.721 -1.344,2.251 -3.294,4.257 -5.851,6.033 z m -20.673,-18.025 c 4.327,6.227 7.573,10.065 9.723,11.494 2.151,1.429 4.241,1.439 6.262,0.035 2.079,-1.445 2.859,-3.405 2.33,-5.874 -0.536,-2.479 -3.106,-7.032 -7.711,-13.659 -4.103,-5.905 -7.206,-9.538 -9.296,-10.879 -2.09,-1.341 -4.163,-1.305 -6.202,0.113 -2.04,1.417 -2.787,3.383 -2.241,5.898 0.546,2.515 2.924,6.811 7.135,12.872 z"
           id="path58" />
        <path
           style="fill:#000000;stroke:none"
           d="m 475.229,548.45 -46.831,-24.869 7.51,-8.319 23.431,14.057 8.902,5.41 c 1.818,1.145 3.658,2.405 5.52,3.766 -2.268,-2.543 -4.301,-4.938 -6.098,-7.169 -1.797,-2.231 -3.324,-4.282 -4.589,-6.144 l -15.802,-22.51 7.255,-8.037 29.192,44.411 z"
           id="path60" />
        <path
           style="fill:#000000;stroke:none"
           d="m 493.023,505.017 5.287,-9.571 1.186,0.655 c 2.341,1.293 4.214,1.812 5.612,1.566 1.409,-0.24 2.616,-1.27 3.628,-3.102 0.787,-1.425 0.977,-2.8 0.564,-4.142 -0.413,-1.341 -1.385,-2.434 -2.914,-3.279 -2.112,-1.167 -5.571,-0.484 -10.394,2.052 l -0.686,0.381 c -1.582,0.851 -2.447,1.31 -2.6,1.389 -1.343,0.711 -2.527,1.306 -3.535,1.78 -0.81,0.408 -1.488,0.726 -2.035,0.954 -0.655,0.276 -1.206,0.488 -1.664,0.629 -2.406,0.816 -4.447,1.168 -6.112,1.036 -1.671,-0.122 -3.481,-0.728 -5.427,-1.802 -3.745,-2.069 -6.018,-5.009 -6.846,-8.82 -0.827,-3.81 -0.043,-7.885 2.359,-12.234 2.459,-4.452 5.362,-7.249 8.701,-8.378 3.355,-1.133 7.057,-0.582 11.124,1.665 l 1.186,0.655 -5.137,9.301 -0.239,-0.132 c -2.144,-1.184 -3.938,-1.673 -5.403,-1.478 -1.48,0.147 -2.647,0.982 -3.498,2.522 -0.764,1.383 -0.946,2.722 -0.558,4.009 0.389,1.287 1.282,2.324 2.676,3.094 2.404,1.328 6.587,0.244 12.571,-3.24 l 3.643,-2.047 c 3.466,-1.9 6.388,-2.961 8.753,-3.162 2.364,-0.201 4.736,0.348 7.108,1.659 4.349,2.402 6.929,5.497 7.736,9.297 0.813,3.789 -0.16,8.18 -2.919,13.174 -2.586,4.681 -5.539,7.544 -8.858,8.589 -3.326,1.055 -7.233,0.336 -11.727,-2.146 l -0.76,-0.42 z"
           id="path62" />
        <path
           style="fill:#000000;stroke:none"
           d="m 534.426,461.477 -49.34,-14.246 2.964,-10.265 21.444,6.192 -17.745,-19.004 3.112,-10.779 18.563,20.798 30.777,-6.552 -3.448,11.944 -27.342,4.723 23.979,6.924 z"
           id="path64" />
        <path
           style="fill:#000000;stroke:none"
           d="m 548.801,404.875 -50.899,-6.839 1.396,-10.389 50.899,6.839 z"
           id="path66" />
      </g>
    </g>
  </g>
</svg>
