<?xml version="1.0" encoding="UTF-8" standalone="no"?>
<svg
   xmlns:dc="http://purl.org/dc/elements/1.1/"
   xmlns:cc="http://creativecommons.org/ns#"
   xmlns:rdf="http://www.w3.org/1999/02/22-rdf-syntax-ns#"
   xmlns:svg="http://www.w3.org/2000/svg"
   xmlns="http://www.w3.org/2000/svg"
   xmlns:sodipodi="http://sodipodi.sourceforge.net/DTD/sodipodi-0.dtd"
   xmlns:inkscape="http://www.inkscape.org/namespaces/inkscape"
   width="1000"
   height="1000"
   viewBox="0 0 749.99998 750.00001"
   version="1.1"
   id="svg54"
   sodipodi:docname="Club Atlético Victoriano Arenas.svg"
   inkscape:version="1.0.1 (3bc2e813f5, 2020-09-07)">
  <metadata
     id="metadata58">
    <rdf:RDF>
      <cc:Work
         rdf:about="">
        <dc:format>image/svg+xml</dc:format>
        <dc:type
           rdf:resource="http://purl.org/dc/dcmitype/StillImage" />
        <dc:title></dc:title>
      </cc:Work>
    </rdf:RDF>
  </metadata>
  <sodipodi:namedview
     pagecolor="#ffffff"
     bordercolor="#666666"
     borderopacity="1"
     objecttolerance="10"
     gridtolerance="10"
     guidetolerance="10"
     inkscape:pageopacity="0"
     inkscape:pageshadow="2"
     inkscape:window-width="1920"
     inkscape:window-height="1017"
     id="namedview56"
     showgrid="false"
     units="px"
     inkscape:zoom="0.845"
     inkscape:cx="500"
     inkscape:cy="500"
     inkscape:window-x="-8"
     inkscape:window-y="-8"
     inkscape:window-maximized="1"
     inkscape:current-layer="svg54" />
  <defs
     id="defs11">
    <clipPath
       id="clip1">
      <path
         d="M 46,231 H 372 V 627.80078 H 46 Z m 0,0"
         id="path2" />
    </clipPath>
    <clipPath
       id="clip2">
      <path
         d="M 0,134 H 422.39844 V 626 H 0 Z m 0,0"
         id="path5" />
    </clipPath>
    <clipPath
       id="clip3">
      <path
         d="M 0,131 H 422.39844 V 627.80078 H 0 Z m 0,0"
         id="path8" />
    </clipPath>
  </defs>
  <g
     id="surface1"
     transform="matrix(1.1370228,0,0,1.1370228,134.95035,18.783697)">
    <path
       style="fill:#0097ca;fill-opacity:1;fill-rule:evenodd;stroke:none"
       d="m 367.84766,539.61719 c -26.16016,49.01953 -73.63672,80.58984 -152.27344,86.66015 -77.375,1.46875 -128.882814,-32.13672 -165.890626,-85.42187 1.234375,-102.13672 2.476562,-204.26953 3.714844,-306.40234 104.816402,0 209.632812,0 314.449222,0 0,101.71875 0,203.4414 0,305.16406 z m 0,0"
       id="path13" />
    <g
       clip-path="url(#clip1)"
       clip-rule="nonzero"
       id="g17">
      <path
         style="fill:none;stroke:#0097ca;stroke-width:5.666;stroke-linecap:butt;stroke-linejoin:miter;stroke-miterlimit:4;stroke-opacity:1"
         d="M 3678.4766,881.82812 C 3416.875,391.63281 2942.1094,75.929688 2155.7422,15.226563 1381.9922,0.539063 866.91406,336.59375 496.83594,869.44531 c 12.34375,1021.36719 24.76562,2042.69529 37.14843,3064.02349 1048.16403,0 2096.32813,0 3144.49223,0 0,-1017.1875 0,-2034.4141 0,-3051.64068 z m 0,0"
         transform="matrix(0.1,0,0,-0.1,0,627.8)"
         id="path15" />
    </g>
    <path
       style="fill:#ffffff;fill-opacity:1;fill-rule:evenodd;stroke:none"
       d="m 362.31641,535.81641 c -25.25,47.3164 -71.07422,77.78906 -146.97657,83.64453 -74.68359,1.42187 -124.406246,-31.01563 -160.12109,-82.44922 1.195313,-98.58203 2.386719,-197.16406 3.578125,-295.74609 101.175785,0 202.347655,0 303.519535,0 0,98.18359 0,196.36718 0,294.55078 z m 0,0"
       id="path19" />
    <g
       clip-path="url(#clip2)"
       clip-rule="nonzero"
       id="g23">
      <path
         style="fill:#0097ca;fill-opacity:1;fill-rule:evenodd;stroke:none"
         d="m 0.328125,134.83984 c 0,152.57032 0,305.14063 0,457.71485 -0.140625,23.3164 12.457031,30.70312 30.855469,30.85156 26.476562,-0.17188 37.652344,-14.91797 37.582031,-37.58203 0,-114.80469 0,-229.60547 0,-344.41016 19.070313,0 38.140625,0 57.214845,0 0,118.03907 0,241.38672 0,359.42969 23.19531,13.26172 43.86328,15.60937 56.08984,16.85547 0,-125.27344 0,-251.01172 0,-376.28516 19.44532,0 38.89063,0 58.33594,0 0,124.52735 0,250.52735 0,375.05469 33.27734,-4.53125 49.66016,-13.05859 56.08984,-17.19141 0,-119.66406 0,-238.19921 0,-357.86328 18.32813,0 36.65235,0 54.97266,0 0,118.03907 0,236.07813 0,354.1211 0.22266,20.66015 15.77344,29.64453 33.65234,29.54687 25.27735,-0.0391 37.13282,-18.16406 37.02344,-37.01562 0,-150.78125 0,-301.5625 0,-452.34375 C 281.53906,135.42578 140.9375,135.13281 0.328125,134.83984 Z m 0,0"
         id="path21" />
    </g>
    <g
       clip-path="url(#clip3)"
       clip-rule="nonzero"
       id="g27">
      <path
         style="fill:none;stroke:#0097ca;stroke-width:5.666;stroke-linecap:butt;stroke-linejoin:miter;stroke-miterlimit:4;stroke-opacity:1"
         d="m 3.28125,4929.6016 c 0,-1525.7032 0,-3051.4063 0,-4577.14847 C 1.875,119.28906 127.85156,45.421875 311.83594,43.9375 c 264.76562,1.71875 376.52343,149.17969 375.82031,375.82031 0,1148.04689 0,2296.05469 0,3444.10159 190.70312,0 381.40625,0 572.14845,0 0,-1180.3906 0,-2413.8672 0,-3594.2969 231.9531,-132.61719 438.6328,-156.09375 560.8984,-168.55469 0,1252.73439 0,2510.11719 0,3762.85159 194.4531,0 388.9063,0 583.3594,0 0,-1245.2735 0,-2505.2735 0,-3750.5469 332.7734,45.3125 496.6016,130.58594 560.8984,171.91406 0,1196.64064 0,2381.99224 0,3578.63284 183.2813,0 366.5235,0 549.7266,0 0,-1180.3906 0,-2360.7813 0,-3541.21096 2.2266,-206.60157 157.7344,-296.445315 336.5234,-295.468752 252.7735,0.390625 371.3282,181.640622 370.2344,370.156252 0,1507.81246 0,3015.62496 0,4523.43746 -1406.0547,2.9688 -2812.0703,5.8985 -4218.16405,8.8282 z m 0,0"
         transform="matrix(0.1,0,0,-0.1,0,627.8)"
         id="path25" />
    </g>
    <path
       style="fill:#ffffff;fill-opacity:1;fill-rule:evenodd;stroke:none"
       d="M 69.886719,230.19922 H 357.07813 V 144.9375 H 69.886719 Z m 0,0"
       id="path29" />
    <path
       style="fill:#191717;fill-opacity:1;fill-rule:evenodd;stroke:none"
       d="m 128.84766,195.36719 14.16797,4.125 c -2.17579,7.27344 -5.78516,12.67187 -10.85157,16.20703 -5.03515,3.51953 -11.46094,5.28906 -19.23828,5.28906 -9.60937,0 -17.51953,-3.02344 -23.710936,-9.05469 -6.1875,-6.05078 -9.292969,-14.3164 -9.292969,-24.78515 0,-11.08985 3.121094,-19.69531 9.347656,-25.83594 6.21875,-6.125 14.394529,-9.19922 24.550779,-9.19922 8.85547,0 16.05078,2.40625 21.58594,7.23047 3.30469,2.83594 5.76953,6.92969 7.42188,12.26563 l -14.48829,3.17968 c -0.84375,-3.46093 -2.6289,-6.1875 -5.36328,-8.1914 -2.71094,-2 -6.02344,-2.99219 -9.89844,-2.99219 -5.36328,0 -9.73046,1.76562 -13.0664,5.32031 -3.343751,3.53516 -5.015626,9.27344 -5.015626,17.21485 0,8.42187 1.640625,14.42187 4.945312,17.99218 3.289064,3.57813 7.574214,5.36328 12.835934,5.36328 3.89453,0 7.23438,-1.13281 10.03125,-3.41015 2.80078,-2.26563 4.8086,-5.84766 6.03907,-10.71875 z m 92.04297,24.48828 h -15.91797 l -6.32422,-15.13672 h -28.95703 l -5.96875,15.13672 h -15.51953 l 28.21875,-66.60938 h 15.46484 z m -26.92969,-26.34766 -9.98438,-24.72265 -9.78125,24.72265 z m 45.64844,26.34766 -25.88672,-66.60938 h 15.87109 l 18.3125,49.30469 17.74219,-49.30469 h 15.51562 l -25.9375,66.60938 z m 106.83593,0 h -15.92187 l -6.32422,-15.13672 h -28.95313 l -5.97265,15.13672 h -15.51563 l 28.21485,-66.60938 h 15.46484 z m -26.93359,-26.34766 -9.98438,-24.72265 -9.78125,24.72265 z m 0,0"
       id="path31" />
    <path
       style="fill:#979730;fill-opacity:1;fill-rule:evenodd;stroke:none"
       d="m 146.01563,2.238281 7.26953,22.878907 24.0039,-0.15625 -19.51172,13.984375 7.56641,22.78125 -19.32812,-14.234375 -19.32813,14.234375 7.55859,-22.78125 -19.5039,-13.984375 24.0039,0.15625 z m 0,0"
       id="path33" />
    <path
       style="fill:#cccc30;fill-opacity:1;fill-rule:evenodd;stroke:none"
       d="m 163.28906,58.894531 -16.64453,-12.257812 -0.74609,-11.691406 -17.15625,23.949218 6.51562,-19.617187 10.28125,-4.742188 -27.46875,-8.496093 20.66797,0.136718 7.23047,8.121094 0.0469,-28.558594 6.25781,19.699219 -5.90625,8.800781 27.59375,-8.199218 -16.80078,12.039062 -10.85157,-3.308594 z m 0,0"
       id="path35" />
    <path
       style="fill:#979730;fill-opacity:1;fill-rule:evenodd;stroke:#979730;stroke-width:5.669;stroke-linecap:butt;stroke-linejoin:miter;stroke-miterlimit:4;stroke-opacity:1"
       d="m 2764.6484,6268.9375 72.6954,-228.75 240.039,1.6016 -195.1172,-139.8829 75.625,-227.8125 -193.2422,142.3438 -193.2812,-142.3438 75.625,227.8125 -195.0781,139.8829 240.039,-1.6016 z m 0,0"
       transform="matrix(0.1,0,0,-0.1,0,627.8)"
       id="path37" />
    <path
       style="fill:#cccc30;fill-opacity:1;fill-rule:evenodd;stroke:none"
       d="M 293.73828,57.5625 277.09375,45.304688 276.34766,33.613281 259.19141,57.5625 l 6.51172,-19.617187 10.28906,-4.746094 -27.47266,-8.496094 20.66797,0.140625 7.22656,8.121094 0.0508,-28.558594 6.25782,19.695313 -5.90625,8.804687 27.59375,-8.203125 -16.80078,12.042969 -10.85157,-3.3125 z m 0,0"
       id="path39" />
    <path
       style="fill:#b3b3b3;fill-opacity:1;fill-rule:evenodd;stroke:none"
       d="m 71.441406,62.078125 7.269532,22.875 24.003902,-0.152344 -19.511715,13.984375 7.566406,22.781254 -19.328125,-14.23829 -19.328125,14.23829 7.558594,-22.781254 -19.507812,-13.984375 24.003906,0.152344 z m 0,0"
       id="path41" />
    <path
       style="fill:#cccccc;fill-opacity:1;fill-rule:evenodd;stroke:none"
       d="m 88.710938,118.73437 -16.640625,-12.25781 -0.75,-11.691404 -17.15625,23.949214 6.519531,-19.613276 10.285156,-4.75 -27.472656,-8.488281 20.667969,0.132812 7.230468,8.121094 0.04688,-28.558594 6.257813,19.699219 -5.910156,8.800781 L 99.386724,85.882813 82.585943,97.925781 71.73438,94.609375 Z m 0,0"
       id="path43" />
    <path
       style="fill:#b3b3b3;fill-opacity:1;fill-rule:evenodd;stroke:none"
       d="m 205.5625,61.777344 7.27344,22.875 24.0039,-0.15625 -19.51171,13.984375 7.5664,22.785151 -19.33203,-14.23828 -19.32812,14.23828 7.5664,-22.785151 -19.51172,-13.984375 24,0.15625 z m 0,0"
       id="path45" />
    <path
       style="fill:#cccccc;fill-opacity:1;fill-rule:evenodd;stroke:none"
       d="m 222.83594,118.43359 -16.64453,-12.25781 -0.7461,-11.691405 -17.15625,23.949215 6.51563,-19.617184 10.28906,-4.746093 -27.47266,-8.492188 20.66797,0.136719 7.22657,8.121094 0.0469,-28.558594 6.26172,19.695312 -5.91016,8.804688 27.59375,-8.199219 -16.79687,12.042969 -10.85156,-3.3125 z m 0,0"
       id="path47" />
    <path
       style="fill:#b3b3b3;fill-opacity:1;fill-rule:evenodd;stroke:none"
       d="m 351.03906,61.777344 7.26953,22.875 24.00391,-0.15625 -19.51172,13.984375 7.56641,22.785151 -19.32813,-14.23828 -19.32812,14.23828 7.5625,-22.785151 -19.50781,-13.984375 24.0039,0.15625 z m 0,0"
       id="path49" />
    <path
       style="fill:#cccccc;fill-opacity:1;fill-rule:evenodd;stroke:none"
       d="m 368.3125,118.43359 -16.64844,-12.25781 -0.74218,-11.691405 -17.15625,23.949215 6.51562,-19.617184 10.28516,-4.746093 -27.47266,-8.492188 20.66797,0.136719 7.23047,8.121094 0.0469,-28.558594 6.25782,19.695312 -5.90625,8.804688 27.59375,-8.199219 -16.80079,12.042969 -10.85546,-3.3125 z m 0,0"
       id="path51" />
  </g>
</svg>
