<svg height="1000" viewBox="0 0 999.99999 1000" width="1000" xmlns="http://www.w3.org/2000/svg"><g transform="matrix(1.5159903 0 0 1.5159903 46.975075 -138.16221)"><path d="m 255.9674 146.1895 c -.023 .0385 -.046 .0774 -.0689 .1151 z" fill="none"/><path d="m 286.976 723.0025 c -7.1013 -7.4066 -15.8387 -16.9393 -26.7988 -17.3839 c -33.9241 -1.1802 -77.2432 -2.5692 -108.6933 -14.8487 l -.7882 -.3082 l -.7471 -.3948 C 61.1587 643.102 14.6597 572.2002 42.214 471.1819 l .0937 -.3451 l .1108 -.3409 C 57.8481 423.1177 80.0722 374.2071 80.9272 323.6504 l .0043 -.169 l .0057 -.1704 C 82.6855 279.5118 60.7838 243.2854 31.8149 212.2316 l -9.8793 -10.5894 l 96.7419 -93.8772 l 9.8821 6.4266 c 46.4451 30.2102 113.2737 55.1995 168.8012 54.1585 l .277 -.006 l .2769 .006 c 55.5276 1.041 122.3562 -23.9483 168.8013 -54.1585 l 9.8821 -6.4266 l 96.7419 93.8772 l -9.8793 10.5894 c -28.9689 31.0538 -50.8706 67.2802 -49.1223 111.0794 l .006 .1704 l .004 .169 c .855 50.5567 23.0791 99.4673 38.5087 146.8455 l .1108 .3409 l .0937 .3451 C 580.6159 572.2002 534.1169 643.102 445.327 690.0669 l -.7471 .3948 l -.7882 .3082 c -31.4501 12.2795 -74.7692 13.6685 -108.6507 14.8473 c -11.0027 .446 -19.7401 9.9787 -26.8414 17.3853 l -10.6618 11.122 z" fill="#09120a" fill-rule="evenodd" stroke="#09120a" stroke-width=".216"/><path d="M 58.7855 579.371 C 46.8497 548.8867 45.7817 514.2297 56.4634 475.0691 C 72.3532 426.2764 94.8017 376.7266 95.6964 323.9004 C 97.6067 276.0151 74.9139 236.7793 42.6159 202.1564 l 77.8895 -75.583 c 54.8388 35.6696 124.4055 57.533 177.1324 56.5445 c 36.2491 .6789 80.4601 -9.4419 122.3689 -27.4251 z" fill="#fff" fill-rule="evenodd" stroke="#fff" stroke-width=".216"/><path d="M 156.8553 677.0105 C 107.4476 650.8765 74.1327 618.57 58.7855 579.371 L 420.0067 155.6928 c 19.0513 -8.1735 37.6267 -17.9733 54.7635 -29.1194 l 77.8895 75.583 c -20.1861 21.6389 -36.6212 45.0802 -45.6413 71.308 z" fill="#f00" fill-rule="evenodd" stroke="#f00" stroke-width=".216"/><path d="m 507.0184 273.4644 c -5.4125 15.7378 -8.155 32.4797 -7.4392 50.436 c .8947 52.8262 23.3432 102.376 39.233 151.1687 c 24.4156 89.5114 -12.555 155.4807 -100.3919 201.9414 c -27.6978 10.8138 -69.2359 12.6431 -103.856 13.8475 c -16.6311 .6732 -27.9818 12.5933 -36.9265 21.923 c -8.9448 -9.3297 -20.2954 -21.2498 -36.9266 -21.923 c -34.62 -1.2044 -76.1581 -3.0337 -103.8559 -13.8475 z" fill="#fff" fill-rule="evenodd" stroke="#fff" stroke-width=".216"/><path d="m 297.6364 309.0104 c 61.8193 0 111.933 50.1137 111.933 111.9331 c 0 61.8191 -50.1137 111.9328 -111.933 111.9328 c -61.8191 0 -111.9328 -50.1137 -111.9328 -111.9328 c 0 -61.8194 50.1137 -111.9331 111.9328 -111.9331 z" fill="#09120a" fill-rule="evenodd" stroke="#09120a" stroke-width=".216"/><path d="m 297.6364 319.3642 c 56.1013 0 101.5792 45.4779 101.5792 101.5793 c 0 56.101 -45.4779 101.5789 -101.5792 101.5789 c -56.1011 0 -101.579 -45.4779 -101.579 -101.5789 c 0 -56.1014 45.4779 -101.5793 101.579 -101.5793 z" fill="#fff" fill-rule="evenodd" stroke="#fff" stroke-width=".216"/><path d="m 346.2715 482.5709 c -14.0349 11.5836 -32.0267 18.5428 -51.6404 18.5428 c -44.8317 0 -81.1887 -36.357 -81.1887 -81.1887 c 0 -44.8317 36.357 -81.1887 81.1887 -81.1887 c 16.8115 0 32.4315 5.1129 45.3899 13.8674 c 10.7981 7.2958 19.7486 17.1211 25.9977 28.6251 l -14.1457 7.8952 l -.009 -.0156 l -.4346 -.784 l -.1477 -.2627 l -.3948 -.6945 l -.338 -.5724 c -.2344 -.392 -.4701 -.7826 -.7116 -1.1703 l -.2116 -.338 c -.72 -1.1419 -1.4756 -2.2611 -2.2639 -3.3532 l -.2371 -.3253 c -1.2215 -1.6702 -2.5181 -3.2807 -3.8901 -4.826 l -.003 -.003 c -.6561 -.7357 -1.3265 -1.4586 -2.0139 -2.1659 l -.2925 -.2997 l -.6306 -.632 l -.1236 -.1207 c -.4005 -.3934 -.8053 -.7811 -1.2157 -1.1632 l -.3224 -.2997 l -.659 -.5979 l -.1818 -.1619 c -.4091 -.3636 -.8252 -.7229 -1.2427 -1.0766 l -.3239 -.2726 l -.5212 -.4304 l -.6306 -.507 l -.5567 -.4389 l -.8408 -.6462 l -.4374 -.3238 l -.6761 -.4942 l -.4843 -.3466 l -.3863 -.2684 c -.4247 -.2954 -.8522 -.5866 -1.2839 -.8721 l -.2997 -.1974 l -.7371 -.4743 l -.0369 -.0242 l -.9203 -.5723 l -.6193 -.3707 l -.4346 -.2571 l -.7399 -.4261 l -.2528 -.1406 c -.49 -.2741 -.9843 -.5439 -1.4813 -.8053 l -.3409 -.1803 l -.659 -.3366 l -.6817 -.3395 l -.5014 -.2457 l -.9842 -.4615 l -.0611 -.027 l -.7215 -.3253 l -.4743 -.2073 l -.9985 -.4218 l -.8479 -.3466 l -.4786 -.186 l -.7967 -.3026 l -.5653 -.2101 l -.9388 -.331 l -.855 -.2869 l -.6164 -.2002 l -.7598 -.2372 l -.0724 -.0227 l -1.061 -.3153 l -.0454 -.0128 l -.1591 -.0426 l -1.0098 -.2741 l -.7272 -.1875 l -.7413 -.1804 l -.8905 -.2073 l -.9118 -.1989 l -.6093 -.1235 l -.9587 -.1832 l -.3593 -.0668 l -1.264 -.2102 l -.5852 -.0895 l -1.0382 -.1434 l -.4332 -.0568 c -.4388 -.054 -.8791 -.1065 -1.3208 -.152 l -.5127 -.0483 l -1.0837 -.0951 l -.267 -.0227 c -.4914 -.037 -.9828 -.0696 -1.477 -.0938 l -.4218 -.0199 l -1.105 -.0412 l -.4403 -.0127 c -.4914 -.0114 -.9856 -.0199 -1.4799 -.0199 c -35.8912 0 -64.9978 29.1066 -64.9978 64.9978 c 0 35.8912 29.1066 64.9978 64.9978 64.9978 c .4943 0 .9857 -.008 1.4771 -.0198 l .311 -.007 c .4573 -.0128 .9118 -.0299 1.3663 -.0526 l .3352 -.0156 c .4971 -.027 .9942 -.0597 1.4898 -.0966 l .071 -.006 c .5341 -.0412 1.0666 -.0866 1.5964 -.1406 h .001 c 1.0538 -.1065 2.0949 -.24 3.1331 -.3962 l .2656 -.0412 c .4871 -.0767 .9729 -.1562 1.4572 -.2429 l .0127 -.001 c .5298 -.0951 1.0553 -.1946 1.5808 -.3011 l .001 -.001 c 4.7266 -.9658 9.2643 -2.4428 13.5563 -4.3744 l .1733 -.0781 c .4161 -.1889 .828 -.3835 1.2399 -.5809 l .311 -.1505 l 1.1078 -.5497 l .3039 -.1576 c .8167 -.4218 1.622 -.8593 2.4173 -1.3137 l .2116 -.1193 c .4048 -.2344 .8053 -.4716 1.203 -.713 l .1406 -.0852 c .3636 -.2202 .7215 -.446 1.0794 -.6732 l .3778 -.2429 c .774 -.4999 1.5367 -1.0169 2.288 -1.5481 l .2059 -.1448 c .7812 -.5582 1.5481 -1.132 2.3037 -1.7228 l .3422 -.2698 c 1.1377 -.9033 2.244 -1.8407 3.3178 -2.8164 l .0397 -.0355 c 1.5026 -1.3677 2.9442 -2.8064 4.3133 -4.3076 l .1974 -.2202 c .304 -.338 .6065 -.6746 .9047 -1.0183 l .054 -.0625 c .3039 -.3508 .6022 -.7058 .8976 -1.0638 l .0582 -.0695 l .0114 -.0128 l .5511 -.6817 l 19.4702 .1789 c -.1108 .1903 -.223 .3821 -.3352 .5709 l -.3451 .5767 c -4.755 7.854 -10.8081 14.8388 -17.8554 20.6561 z" fill-rule="evenodd" stroke="#000" stroke-width=".216"/><path d="m 262.9565 398.4007 h 6.2796 v 19.2089 c 0 2.9897 .0708 4.9306 .2301 5.8306 c .2744 1.5693 .9389 2.7749 1.9837 3.6335 c 1.0454 .8509 2.4268 1.2804 4.1361 1.2804 c 1.4527 0 2.6393 -.3056 3.5608 -.9085 c .9119 -.6027 1.5409 -1.4454 1.8777 -2.5189 c .3362 -1.065 .5046 -3.3695 .5046 -6.9038 v -19.6222 h 6.3059 v 18.631 c 0 4.7568 -.2744 8.2006 -.8147 10.3149 c -.549 2.1221 -1.7716 3.8401 -3.6844 5.1531 c -1.9134 1.3216 -4.4371 1.9738 -7.5637 1.9738 c -3.2508 0 -5.7923 -.5451 -7.617 -1.6353 c -1.8241 -1.0817 -3.1439 -2.6178 -3.9676 -4.5916 c -.8235 -1.974 -1.2311 -5.616 -1.2311 -10.9261 z m 42.76 0 h 6.306 v 22.4546 c 0 3.6255 -.3895 6.3261 -1.169 8.1017 c -.7793 1.7753 -1.9395 3.138 -3.4895 4.0876 c -1.5497 .9581 -3.4543 1.4289 -5.7214 1.4289 c -2.9934 0 -5.3405 -.9581 -7.0325 -2.874 c -1.6914 -1.9239 -2.5506 -4.8147 -2.5682 -8.6877 l 5.9429 -.7764 c .0708 2.0812 .3543 3.5592 .8591 4.4263 c .6733 1.1977 1.683 1.7924 3.0289 1.7924 c 1.3195 0 2.285 -.4295 2.9049 -1.2966 c .629 -.8592 .9388 -2.7748 .9388 -5.7478 z m 41.095 35.4699 h -6.8459 l -2.7278 -8.06 h -12.4529 l -2.5685 8.06 h -6.6954 l 12.1422 -35.4699 h 6.6694 z m -11.5931 -14.0309 l -4.2866 -13.1639 l -4.2247 13.1639 z m 14.9941 14.0309 v -35.4699 h 6.1291 l 12.7621 23.6851 v -23.6851 h 5.8635 v 35.4699 h -6.3329 L 356.0757 410.739 v 23.1316 z" fill="#1b1918" fill-rule="evenodd"/><path d="m 247.7245 389.462 h 5.5079 v 50.0849 H 375.746 v 5.1885 H 247.7159 v -5.1885 h .009 V 389.462 Z" fill-rule="evenodd" stroke="#000" stroke-width=".216"/></g></svg>