<?xml version="1.0" encoding="UTF-8" standalone="no"?>
<svg
   xmlns:dc="http://purl.org/dc/elements/1.1/"
   xmlns:cc="http://creativecommons.org/ns#"
   xmlns:rdf="http://www.w3.org/1999/02/22-rdf-syntax-ns#"
   xmlns:svg="http://www.w3.org/2000/svg"
   xmlns="http://www.w3.org/2000/svg"
   xmlns:sodipodi="http://sodipodi.sourceforge.net/DTD/sodipodi-0.dtd"
   xmlns:inkscape="http://www.inkscape.org/namespaces/inkscape"
   viewBox="0 0 999.99999 1000"
   id="svg2"
   height="1000"
   width="1000"
   version="1.1"
   sodipodi:docname="Club Luján.svg"
   inkscape:version="1.0.1 (3bc2e813f5, 2020-09-07)">
  <sodipodi:namedview
     pagecolor="#ffffff"
     bordercolor="#666666"
     borderopacity="1"
     objecttolerance="10"
     gridtolerance="10"
     guidetolerance="10"
     inkscape:pageopacity="0"
     inkscape:pageshadow="2"
     inkscape:window-width="1920"
     inkscape:window-height="1017"
     id="namedview16"
     showgrid="false"
     inkscape:zoom="0.71015416"
     inkscape:cx="164.80057"
     inkscape:cy="502.09541"
     inkscape:window-x="-8"
     inkscape:window-y="-8"
     inkscape:window-maximized="1"
     inkscape:current-layer="svg2" />
  <metadata
     id="metadata29">
    <rdf:RDF>
      <cc:Work
         rdf:about="">
        <dc:format>image/svg+xml</dc:format>
        <dc:type
           rdf:resource="http://purl.org/dc/dcmitype/StillImage" />
        <dc:title></dc:title>
      </cc:Work>
    </rdf:RDF>
  </metadata>
  <defs
     id="defs27" />
  <g
     id="Layer1000"
     transform="matrix(1.5159903,0,0,1.5159903,46.975075,-138.16221)">
    <path
       id="path5"
       style="fill:none;stroke:#000000;stroke-width:0;stroke-dasharray:none"
       d="m 255.9674,146.1895 c -0.023,0.0385 -0.046,0.0774 -0.0689,0.1151 z" />
    <path
       id="path7"
       style="fill:#09120a;fill-rule:evenodd;stroke:#09120a;stroke-width:0.216;stroke-linecap:butt;stroke-linejoin:miter;stroke-dasharray:none"
       d="m 286.976,723.0025 c -7.1013,-7.4066 -15.8387,-16.9393 -26.7988,-17.3839 -33.9241,-1.1802 -77.2432,-2.5692 -108.6933,-14.8487 l -0.7882,-0.3082 -0.7471,-0.3948 C 61.1587,643.102 14.6597,572.2002 42.214,471.1819 l 0.0937,-0.3451 0.1108,-0.3409 C 57.8481,423.1177 80.0722,374.2071 80.9272,323.6504 l 0.0043,-0.169 0.0057,-0.1704 C 82.6855,279.5118 60.7838,243.2854 31.8149,212.2316 l -9.8793,-10.5894 96.7419,-93.8772 9.8821,6.4266 c 46.4451,30.2102 113.2737,55.1995 168.8012,54.1585 l 0.277,-0.006 0.2769,0.006 c 55.5276,1.041 122.3562,-23.9483 168.8013,-54.1585 l 9.8821,-6.4266 96.7419,93.8772 -9.8793,10.5894 c -28.9689,31.0538 -50.8706,67.2802 -49.1223,111.0794 l 0.006,0.1704 0.004,0.169 c 0.855,50.5567 23.0791,99.4673 38.5087,146.8455 l 0.1108,0.3409 0.0937,0.3451 C 580.6159,572.2002 534.1169,643.102 445.327,690.0669 l -0.7471,0.3948 -0.7882,0.3082 c -31.4501,12.2795 -74.7692,13.6685 -108.6507,14.8473 -11.0027,0.446 -19.7401,9.9787 -26.8414,17.3853 l -10.6618,11.122 z" />
    <path
       id="path9"
       style="fill:#ffffff;fill-rule:evenodd;stroke:#ffffff;stroke-width:0.216;stroke-linecap:butt;stroke-linejoin:miter;stroke-dasharray:none"
       d="M 58.7855,579.371 C 46.8497,548.8867 45.7817,514.2297 56.4634,475.0691 72.3532,426.2764 94.8017,376.7266 95.6964,323.9004 97.6067,276.0151 74.9139,236.7793 42.6159,202.1564 l 77.8895,-75.583 c 54.8388,35.6696 124.4055,57.533 177.1324,56.5445 36.2491,0.6789 80.4601,-9.4419 122.3689,-27.4251 z" />
    <path
       id="path11"
       style="fill:#ff0000;fill-rule:evenodd;stroke:#ff0000;stroke-width:0.216;stroke-linecap:butt;stroke-linejoin:miter;stroke-dasharray:none"
       d="M 156.8553,677.0105 C 107.4476,650.8765 74.1327,618.57 58.7855,579.371 L 420.0067,155.6928 c 19.0513,-8.1735 37.6267,-17.9733 54.7635,-29.1194 l 77.8895,75.583 c -20.1861,21.6389 -36.6212,45.0802 -45.6413,71.308 z" />
    <path
       id="path13"
       style="fill:#ffffff;fill-rule:evenodd;stroke:#ffffff;stroke-width:0.216;stroke-linecap:butt;stroke-linejoin:miter;stroke-dasharray:none"
       d="m 507.0184,273.4644 c -5.4125,15.7378 -8.155,32.4797 -7.4392,50.436 0.8947,52.8262 23.3432,102.376 39.233,151.1687 24.4156,89.5114 -12.555,155.4807 -100.3919,201.9414 -27.6978,10.8138 -69.2359,12.6431 -103.856,13.8475 -16.6311,0.6732 -27.9818,12.5933 -36.9265,21.923 -8.9448,-9.3297 -20.2954,-21.2498 -36.9266,-21.923 -34.62,-1.2044 -76.1581,-3.0337 -103.8559,-13.8475 z" />
    <path
       id="path15"
       style="fill:#09120a;fill-rule:evenodd;stroke:#09120a;stroke-width:0.216;stroke-linecap:butt;stroke-linejoin:miter;stroke-dasharray:none"
       d="m 297.6364,309.0104 c 61.8193,0 111.933,50.1137 111.933,111.9331 0,61.8191 -50.1137,111.9328 -111.933,111.9328 -61.8191,0 -111.9328,-50.1137 -111.9328,-111.9328 0,-61.8194 50.1137,-111.9331 111.9328,-111.9331 z" />
    <path
       id="path17"
       style="fill:#ffffff;fill-rule:evenodd;stroke:#ffffff;stroke-width:0.216;stroke-linecap:butt;stroke-linejoin:miter;stroke-dasharray:none"
       d="m 297.6364,319.3642 c 56.1013,0 101.5792,45.4779 101.5792,101.5793 0,56.101 -45.4779,101.5789 -101.5792,101.5789 -56.1011,0 -101.579,-45.4779 -101.579,-101.5789 0,-56.1014 45.4779,-101.5793 101.579,-101.5793 z" />
    <path
       id="path19"
       style="fill:#000000;fill-rule:evenodd;stroke:#000000;stroke-width:0.216;stroke-linecap:butt;stroke-linejoin:miter;stroke-dasharray:none"
       d="m 346.2715,482.5709 c -14.0349,11.5836 -32.0267,18.5428 -51.6404,18.5428 -44.8317,0 -81.1887,-36.357 -81.1887,-81.1887 0,-44.8317 36.357,-81.1887 81.1887,-81.1887 16.8115,0 32.4315,5.1129 45.3899,13.8674 10.7981,7.2958 19.7486,17.1211 25.9977,28.6251 l -14.1457,7.8952 -0.009,-0.0156 -0.4346,-0.784 -0.1477,-0.2627 -0.3948,-0.6945 -0.338,-0.5724 c -0.2344,-0.392 -0.4701,-0.7826 -0.7116,-1.1703 l -0.2116,-0.338 c -0.72,-1.1419 -1.4756,-2.2611 -2.2639,-3.3532 l -0.2371,-0.3253 c -1.2215,-1.6702 -2.5181,-3.2807 -3.8901,-4.826 l -0.003,-0.003 c -0.6561,-0.7357 -1.3265,-1.4586 -2.0139,-2.1659 l -0.2925,-0.2997 -0.6306,-0.632 -0.1236,-0.1207 c -0.4005,-0.3934 -0.8053,-0.7811 -1.2157,-1.1632 l -0.3224,-0.2997 -0.659,-0.5979 -0.1818,-0.1619 c -0.4091,-0.3636 -0.8252,-0.7229 -1.2427,-1.0766 l -0.3239,-0.2726 -0.5212,-0.4304 -0.6306,-0.507 -0.5567,-0.4389 -0.8408,-0.6462 -0.4374,-0.3238 -0.6761,-0.4942 -0.4843,-0.3466 -0.3863,-0.2684 c -0.4247,-0.2954 -0.8522,-0.5866 -1.2839,-0.8721 l -0.2997,-0.1974 -0.7371,-0.4743 -0.0369,-0.0242 -0.9203,-0.5723 -0.6193,-0.3707 -0.4346,-0.2571 -0.7399,-0.4261 -0.2528,-0.1406 c -0.49,-0.2741 -0.9843,-0.5439 -1.4813,-0.8053 l -0.3409,-0.1803 -0.659,-0.3366 -0.6817,-0.3395 -0.5014,-0.2457 -0.9842,-0.4615 -0.0611,-0.027 -0.7215,-0.3253 -0.4743,-0.2073 -0.9985,-0.4218 -0.8479,-0.3466 -0.4786,-0.186 -0.7967,-0.3026 -0.5653,-0.2101 -0.9388,-0.331 -0.855,-0.2869 -0.6164,-0.2002 -0.7598,-0.2372 -0.0724,-0.0227 -1.061,-0.3153 -0.0454,-0.0128 -0.1591,-0.0426 -1.0098,-0.2741 -0.7272,-0.1875 -0.7413,-0.1804 -0.8905,-0.2073 -0.9118,-0.1989 -0.6093,-0.1235 -0.9587,-0.1832 -0.3593,-0.0668 -1.264,-0.2102 -0.5852,-0.0895 -1.0382,-0.1434 -0.4332,-0.0568 c -0.4388,-0.054 -0.8791,-0.1065 -1.3208,-0.152 l -0.5127,-0.0483 -1.0837,-0.0951 -0.267,-0.0227 c -0.4914,-0.037 -0.9828,-0.0696 -1.477,-0.0938 l -0.4218,-0.0199 -1.105,-0.0412 -0.4403,-0.0127 c -0.4914,-0.0114 -0.9856,-0.0199 -1.4799,-0.0199 -35.8912,0 -64.9978,29.1066 -64.9978,64.9978 0,35.8912 29.1066,64.9978 64.9978,64.9978 0.4943,0 0.9857,-0.008 1.4771,-0.0198 l 0.311,-0.007 c 0.4573,-0.0128 0.9118,-0.0299 1.3663,-0.0526 l 0.3352,-0.0156 c 0.4971,-0.027 0.9942,-0.0597 1.4898,-0.0966 l 0.071,-0.006 c 0.5341,-0.0412 1.0666,-0.0866 1.5964,-0.1406 h 10e-4 c 1.0538,-0.1065 2.0949,-0.24 3.1331,-0.3962 l 0.2656,-0.0412 c 0.4871,-0.0767 0.9729,-0.1562 1.4572,-0.2429 l 0.0127,-0.001 c 0.5298,-0.0951 1.0553,-0.1946 1.5808,-0.3011 l 10e-4,-10e-4 c 4.7266,-0.9658 9.2643,-2.4428 13.5563,-4.3744 l 0.1733,-0.0781 c 0.4161,-0.1889 0.828,-0.3835 1.2399,-0.5809 l 0.311,-0.1505 1.1078,-0.5497 0.3039,-0.1576 c 0.8167,-0.4218 1.622,-0.8593 2.4173,-1.3137 l 0.2116,-0.1193 c 0.4048,-0.2344 0.8053,-0.4716 1.203,-0.713 l 0.1406,-0.0852 c 0.3636,-0.2202 0.7215,-0.446 1.0794,-0.6732 l 0.3778,-0.2429 c 0.774,-0.4999 1.5367,-1.0169 2.288,-1.5481 l 0.2059,-0.1448 c 0.7812,-0.5582 1.5481,-1.132 2.3037,-1.7228 l 0.3422,-0.2698 c 1.1377,-0.9033 2.244,-1.8407 3.3178,-2.8164 l 0.0397,-0.0355 c 1.5026,-1.3677 2.9442,-2.8064 4.3133,-4.3076 l 0.1974,-0.2202 c 0.304,-0.338 0.6065,-0.6746 0.9047,-1.0183 l 0.054,-0.0625 c 0.3039,-0.3508 0.6022,-0.7058 0.8976,-1.0638 l 0.0582,-0.0695 0.0114,-0.0128 0.5511,-0.6817 19.4702,0.1789 c -0.1108,0.1903 -0.223,0.3821 -0.3352,0.5709 l -0.3451,0.5767 c -4.755,7.854 -10.8081,14.8388 -17.8554,20.6561 z" />
    <path
       id="path21"
       style="fill:#1b1918;fill-rule:evenodd"
       d="m 262.9565,398.4007 h 6.2796 v 19.2089 c 0,2.9897 0.0708,4.9306 0.2301,5.8306 0.2744,1.5693 0.9389,2.7749 1.9837,3.6335 1.0454,0.8509 2.4268,1.2804 4.1361,1.2804 1.4527,0 2.6393,-0.3056 3.5608,-0.9085 0.9119,-0.6027 1.5409,-1.4454 1.8777,-2.5189 0.3362,-1.065 0.5046,-3.3695 0.5046,-6.9038 v -19.6222 h 6.3059 v 18.631 c 0,4.7568 -0.2744,8.2006 -0.8147,10.3149 -0.549,2.1221 -1.7716,3.8401 -3.6844,5.1531 -1.9134,1.3216 -4.4371,1.9738 -7.5637,1.9738 -3.2508,0 -5.7923,-0.5451 -7.617,-1.6353 -1.8241,-1.0817 -3.1439,-2.6178 -3.9676,-4.5916 -0.8235,-1.974 -1.2311,-5.616 -1.2311,-10.9261 z m 42.76,0 h 6.306 v 22.4546 c 0,3.6255 -0.3895,6.3261 -1.169,8.1017 -0.7793,1.7753 -1.9395,3.138 -3.4895,4.0876 -1.5497,0.9581 -3.4543,1.4289 -5.7214,1.4289 -2.9934,0 -5.3405,-0.9581 -7.0325,-2.874 -1.6914,-1.9239 -2.5506,-4.8147 -2.5682,-8.6877 l 5.9429,-0.7764 c 0.0708,2.0812 0.3543,3.5592 0.8591,4.4263 0.6733,1.1977 1.683,1.7924 3.0289,1.7924 1.3195,0 2.285,-0.4295 2.9049,-1.2966 0.629,-0.8592 0.9388,-2.7748 0.9388,-5.7478 z m 41.095,35.4699 h -6.8459 l -2.7278,-8.06 h -12.4529 l -2.5685,8.06 h -6.6954 l 12.1422,-35.4699 h 6.6694 z m -11.5931,-14.0309 -4.2866,-13.1639 -4.2247,13.1639 z m 14.9941,14.0309 v -35.4699 h 6.1291 l 12.7621,23.6851 v -23.6851 h 5.8635 v 35.4699 h -6.3329 L 356.0757,410.739 v 23.1316 z" />
    <path
       id="path23"
       style="fill:#000000;fill-rule:evenodd;stroke:#000000;stroke-width:0.216;stroke-linecap:butt;stroke-linejoin:miter;stroke-dasharray:none"
       d="m 247.7245,389.462 h 5.5079 v 50.0849 H 375.746 v 5.1885 H 247.7159 v -5.1885 h 0.009 V 389.462 Z" />
  </g>
</svg>
