<svg height="1000" viewBox="0 0 749.99998 750.00001" width="1000" xmlns="http://www.w3.org/2000/svg" xmlns:xlink="http://www.w3.org/1999/xlink"><defs><clipPath id="a"><path d="M 46 231 H 372 V 627.80078 H 46 Z m 0 0"/></clipPath><clipPath id="b"><path d="M 0 134 H 422.39844 V 626 H 0 Z m 0 0"/></clipPath><clipPath id="c"><path d="M 0 131 H 422.39844 V 627.80078 H 0 Z m 0 0"/></clipPath></defs><g transform="matrix(1.1370228 0 0 1.1370228 134.95035 18.783697)"><path d="m 367.84766 539.61719 c -26.16016 49.01953 -73.63672 80.58984 -152.27344 86.66015 c -77.375 1.46875 -128.882814 -32.13672 -165.890626 -85.42187 c 1.234375 -102.13672 2.476562 -204.26953 3.714844 -306.40234 c 104.816402 0 209.632812 0 314.449222 0 c 0 101.71875 0 203.4414 0 305.16406 z m 0 0" fill="#0097ca" fill-rule="evenodd"/><g clip-path="url(#a)"><path d="M 3678.4766 881.82812 C 3416.875 391.63281 2942.1094 75.929688 2155.7422 15.226563 C 1381.9922 .539063 866.91406 336.59375 496.83594 869.44531 c 12.34375 1021.36719 24.76562 2042.69529 37.14843 3064.02349 c 1048.16403 0 2096.32813 0 3144.49223 0 c 0 -1017.1875 0 -2034.4141 0 -3051.64068 z m 0 0" fill="none" stroke="#0097ca" stroke-width="5.666" transform="matrix(.1 0 0 -.1 0 627.8)"/></g><path d="m 362.31641 535.81641 c -25.25 47.3164 -71.07422 77.78906 -146.97657 83.64453 c -74.68359 1.42187 -124.406246 -31.01563 -160.12109 -82.44922 c 1.195313 -98.58203 2.386719 -197.16406 3.578125 -295.74609 c 101.175785 0 202.347655 0 303.519535 0 c 0 98.18359 0 196.36718 0 294.55078 z m 0 0" fill="#fff" fill-rule="evenodd"/><g clip-path="url(#b)"><path d="m .328125 134.83984 c 0 152.57032 0 305.14063 0 457.71485 c -.140625 23.3164 12.457031 30.70312 30.855469 30.85156 c 26.476562 -.17188 37.652344 -14.91797 37.582031 -37.58203 c 0 -114.80469 0 -229.60547 0 -344.41016 c 19.070313 0 38.140625 0 57.214845 0 c 0 118.03907 0 241.38672 0 359.42969 c 23.19531 13.26172 43.86328 15.60937 56.08984 16.85547 c 0 -125.27344 0 -251.01172 0 -376.28516 c 19.44532 0 38.89063 0 58.33594 0 c 0 124.52735 0 250.52735 0 375.05469 c 33.27734 -4.53125 49.66016 -13.05859 56.08984 -17.19141 c 0 -119.66406 0 -238.19921 0 -357.86328 c 18.32813 0 36.65235 0 54.97266 0 c 0 118.03907 0 236.07813 0 354.1211 c .22266 20.66015 15.77344 29.64453 33.65234 29.54687 c 25.27735 -.0391 37.13282 -18.16406 37.02344 -37.01562 c 0 -150.78125 0 -301.5625 0 -452.34375 C 281.53906 135.42578 140.9375 135.13281 .328125 134.83984 Z m 0 0" fill="#0097ca" fill-rule="evenodd"/></g><g clip-path="url(#c)"><path d="m 3.28125 4929.6016 c 0 -1525.7032 0 -3051.4063 0 -4577.14847 C 1.875 119.28906 127.85156 45.421875 311.83594 43.9375 c 264.76562 1.71875 376.52343 149.17969 375.82031 375.82031 c 0 1148.04689 0 2296.05469 0 3444.10159 c 190.70312 0 381.40625 0 572.14845 0 c 0 -1180.3906 0 -2413.8672 0 -3594.2969 c 231.9531 -132.61719 438.6328 -156.09375 560.8984 -168.55469 c 0 1252.73439 0 2510.11719 0 3762.85159 c 194.4531 0 388.9063 0 583.3594 0 c 0 -1245.2735 0 -2505.2735 0 -3750.5469 c 332.7734 45.3125 496.6016 130.58594 560.8984 171.91406 c 0 1196.64064 0 2381.99224 0 3578.63284 c 183.2813 0 366.5235 0 549.7266 0 c 0 -1180.3906 0 -2360.7813 0 -3541.21096 c 2.2266 -206.60157 157.7344 -296.445315 336.5234 -295.468752 c 252.7735 .390625 371.3282 181.640622 370.2344 370.156252 c 0 1507.81246 0 3015.62496 0 4523.43746 c -1406.0547 2.9688 -2812.0703 5.8985 -4218.16405 8.8282 z m 0 0" fill="none" stroke="#0097ca" stroke-width="5.666" transform="matrix(.1 0 0 -.1 0 627.8)"/></g><path d="M 69.886719 230.19922 H 357.07813 V 144.9375 H 69.886719 Z m 0 0" fill="#fff" fill-rule="evenodd"/><path d="m 128.84766 195.36719 l 14.16797 4.125 c -2.17579 7.27344 -5.78516 12.67187 -10.85157 16.20703 c -5.03515 3.51953 -11.46094 5.28906 -19.23828 5.28906 c -9.60937 0 -17.51953 -3.02344 -23.710936 -9.05469 c -6.1875 -6.05078 -9.292969 -14.3164 -9.292969 -24.78515 c 0 -11.08985 3.121094 -19.69531 9.347656 -25.83594 c 6.21875 -6.125 14.394529 -9.19922 24.550779 -9.19922 c 8.85547 0 16.05078 2.40625 21.58594 7.23047 c 3.30469 2.83594 5.76953 6.92969 7.42188 12.26563 l -14.48829 3.17968 c -.84375 -3.46093 -2.6289 -6.1875 -5.36328 -8.1914 c -2.71094 -2 -6.02344 -2.99219 -9.89844 -2.99219 c -5.36328 0 -9.73046 1.76562 -13.0664 5.32031 c -3.343751 3.53516 -5.015626 9.27344 -5.015626 17.21485 c 0 8.42187 1.640625 14.42187 4.945312 17.99218 c 3.289064 3.57813 7.574214 5.36328 12.835934 5.36328 c 3.89453 0 7.23438 -1.13281 10.03125 -3.41015 c 2.80078 -2.26563 4.8086 -5.84766 6.03907 -10.71875 z m 92.04297 24.48828 h -15.91797 l -6.32422 -15.13672 h -28.95703 l -5.96875 15.13672 h -15.51953 l 28.21875 -66.60938 h 15.46484 z m -26.92969 -26.34766 l -9.98438 -24.72265 l -9.78125 24.72265 z m 45.64844 26.34766 l -25.88672 -66.60938 h 15.87109 l 18.3125 49.30469 l 17.74219 -49.30469 h 15.51562 l -25.9375 66.60938 z m 106.83593 0 h -15.92187 l -6.32422 -15.13672 h -28.95313 l -5.97265 15.13672 h -15.51563 l 28.21485 -66.60938 h 15.46484 z m -26.93359 -26.34766 l -9.98438 -24.72265 l -9.78125 24.72265 z m 0 0" fill="#191717" fill-rule="evenodd"/><path d="m 146.01563 2.238281 l 7.26953 22.878907 l 24.0039 -.15625 l -19.51172 13.984375 l 7.56641 22.78125 l -19.32812 -14.234375 l -19.32813 14.234375 l 7.55859 -22.78125 l -19.5039 -13.984375 l 24.0039 .15625 z m 0 0" fill="#979730" fill-rule="evenodd"/><path d="m 163.28906 58.894531 l -16.64453 -12.257812 l -.74609 -11.691406 l -17.15625 23.949218 l 6.51562 -19.617187 l 10.28125 -4.742188 l -27.46875 -8.496093 l 20.66797 .136718 l 7.23047 8.121094 l .0469 -28.558594 l 6.25781 19.699219 l -5.90625 8.800781 l 27.59375 -8.199218 l -16.80078 12.039062 l -10.85157 -3.308594 z m 0 0" fill="#cccc30" fill-rule="evenodd"/><path d="m 2764.6484 6268.9375 l 72.6954 -228.75 l 240.039 1.6016 l -195.1172 -139.8829 l 75.625 -227.8125 l -193.2422 142.3438 l -193.2812 -142.3438 l 75.625 227.8125 l -195.0781 139.8829 l 240.039 -1.6016 z m 0 0" fill="#979730" fill-rule="evenodd" stroke="#979730" stroke-width="5.669" transform="matrix(.1 0 0 -.1 0 627.8)"/><path d="M 293.73828 57.5625 L 277.09375 45.304688 L 276.34766 33.613281 L 259.19141 57.5625 l 6.51172 -19.617187 l 10.28906 -4.746094 l -27.47266 -8.496094 l 20.66797 .140625 l 7.22656 8.121094 l .0508 -28.558594 l 6.25782 19.695313 l -5.90625 8.804687 l 27.59375 -8.203125 l -16.80078 12.042969 l -10.85157 -3.3125 z m 0 0" fill="#cccc30" fill-rule="evenodd"/><path d="m 71.441406 62.078125 l 7.269532 22.875 l 24.003902 -.152344 l -19.511715 13.984375 l 7.566406 22.781254 l -19.328125 -14.23829 l -19.328125 14.23829 l 7.558594 -22.781254 l -19.507812 -13.984375 l 24.003906 .152344 z m 0 0" fill="#b3b3b3" fill-rule="evenodd"/><path d="m 88.710938 118.73437 l -16.640625 -12.25781 l -.75 -11.691404 l -17.15625 23.949214 l 6.519531 -19.613276 l 10.285156 -4.75 l -27.472656 -8.488281 l 20.667969 .132812 l 7.230468 8.121094 l .04688 -28.558594 l 6.257813 19.699219 l -5.910156 8.800781 L 99.386724 85.882813 L 82.585943 97.925781 L 71.73438 94.609375 Z m 0 0" fill="#ccc" fill-rule="evenodd"/><path d="m 205.5625 61.777344 l 7.27344 22.875 l 24.0039 -.15625 l -19.51171 13.984375 l 7.5664 22.785151 l -19.33203 -14.23828 l -19.32812 14.23828 l 7.5664 -22.785151 l -19.51172 -13.984375 l 24 .15625 z m 0 0" fill="#b3b3b3" fill-rule="evenodd"/><path d="m 222.83594 118.43359 l -16.64453 -12.25781 l -.7461 -11.691405 l -17.15625 23.949215 l 6.51563 -19.617184 l 10.28906 -4.746093 l -27.47266 -8.492188 l 20.66797 .136719 l 7.22657 8.121094 l .0469 -28.558594 l 6.26172 19.695312 l -5.91016 8.804688 l 27.59375 -8.199219 l -16.79687 12.042969 l -10.85156 -3.3125 z m 0 0" fill="#ccc" fill-rule="evenodd"/><path d="m 351.03906 61.777344 l 7.26953 22.875 l 24.00391 -.15625 l -19.51172 13.984375 l 7.56641 22.785151 l -19.32813 -14.23828 l -19.32812 14.23828 l 7.5625 -22.785151 l -19.50781 -13.984375 l 24.0039 .15625 z m 0 0" fill="#b3b3b3" fill-rule="evenodd"/><path d="m 368.3125 118.43359 l -16.64844 -12.25781 l -.74218 -11.691405 l -17.15625 23.949215 l 6.51562 -19.617184 l 10.28516 -4.746093 l -27.47266 -8.492188 l 20.66797 .136719 l 7.23047 8.121094 l .0469 -28.558594 l 6.25782 19.695312 l -5.90625 8.804688 l 27.59375 -8.199219 l -16.80079 12.042969 l -10.85546 -3.3125 z m 0 0" fill="#ccc" fill-rule="evenodd"/></g></svg>