<?xml version="1.0" encoding="UTF-8" standalone="no"?>
<svg
   xmlns:dc="http://purl.org/dc/elements/1.1/"
   xmlns:cc="http://creativecommons.org/ns#"
   xmlns:rdf="http://www.w3.org/1999/02/22-rdf-syntax-ns#"
   xmlns:svg="http://www.w3.org/2000/svg"
   xmlns="http://www.w3.org/2000/svg"
   xmlns:sodipodi="http://sodipodi.sourceforge.net/DTD/sodipodi-0.dtd"
   xmlns:inkscape="http://www.inkscape.org/namespaces/inkscape"
   width="1000"
   height="1000"
   viewBox="0 0 750.00002 750.00001"
   version="1.1"
   id="svg35"
   sodipodi:docname="Club Atlético Argentino (Merlo).svg"
   inkscape:version="1.0.1 (3bc2e813f5, 2020-09-07)">
  <metadata
     id="metadata41">
    <rdf:RDF>
      <cc:Work
         rdf:about="">
        <dc:format>image/svg+xml</dc:format>
        <dc:type
           rdf:resource="http://purl.org/dc/dcmitype/StillImage" />
        <dc:title></dc:title>
      </cc:Work>
    </rdf:RDF>
  </metadata>
  <defs
     id="defs39" />
  <sodipodi:namedview
     pagecolor="#ffffff"
     bordercolor="#666666"
     borderopacity="1"
     objecttolerance="10"
     gridtolerance="10"
     guidetolerance="10"
     inkscape:pageopacity="0"
     inkscape:pageshadow="2"
     inkscape:window-width="1920"
     inkscape:window-height="1017"
     id="namedview37"
     showgrid="false"
     units="px"
     inkscape:zoom="0.827"
     inkscape:cx="500"
     inkscape:cy="500"
     inkscape:window-x="-8"
     inkscape:window-y="-8"
     inkscape:window-maximized="1"
     inkscape:current-layer="svg35" />
  <g
     id="g883"
     transform="matrix(1.0692112,0,0,1.0692112,81.714541,18.848149)">
    <g
       id="surface1">
      <path
         style="fill:#003097;fill-opacity:1;fill-rule:evenodd;stroke:#003097;stroke-width:2.16;stroke-linecap:butt;stroke-linejoin:miter;stroke-miterlimit:4;stroke-opacity:1"
         d="M 2743.0078,4.59375 C 2587.3047,0.21875 2443.75,32.835938 2306.1719,107.28906 1793.9453,384.63281 697.96875,1102.3672 553.90625,1684.3594 l -5.97656,24.1015 L 1.875,5645.8047 2743.0078,6665.7656 5484.1406,5645.8047 4938.0859,1708.4609 l -5.9765,-24.1796 C 4788.0469,1102.3672 3692.0703,384.59375 3179.8047,107.28906 3042.2656,32.835938 2898.7109,0.21875 2743.0078,4.59375 Z m 0,0"
         transform="matrix(0.1,0,0,-0.1,0,666.6)"
         id="path2" />
      <path
         style="fill:#00a6eb;fill-opacity:1;fill-rule:evenodd;stroke:#00a6eb;stroke-width:2.16;stroke-linecap:butt;stroke-linejoin:miter;stroke-miterlimit:4;stroke-opacity:1"
         d="m 2743.0078,169.90625 c -128.164,-4.29688 -244.0234,20.89844 -358.164,82.65625 C 1915.7422,506.50781 841.67969,1209.3594 714.29687,1723.9688 l -3.90625,15.7031 -526.64062,3797.5 2559.2578,952.3047 2559.2578,-952.3047 -526.6406,-3797.5 -3.9063,-15.7031 C 4644.3359,1209.3594 3570.2734,506.50781 3101.1719,252.5625 c -114.1406,-61.75781 -230,-86.95313 -358.1641,-82.65625 z m 0,0"
         transform="matrix(0.1,0,0,-0.1,0,666.6)"
         id="path4" />
      <path
         style="fill:#ffffff;fill-opacity:1;fill-rule:evenodd;stroke:#ffffff;stroke-width:2.16;stroke-linecap:butt;stroke-linejoin:miter;stroke-miterlimit:4;stroke-opacity:1"
         d="m 613.78906,4686.9375 -90.82031,651.7187 2220.03905,821.9922 2220.0391,-821.9922 -92.8907,-666.4453 z m 0,0"
         transform="matrix(0.1,0,0,-0.1,0,666.6)"
         id="path6" />
      <path
         style="fill:#ffffff;fill-opacity:1;fill-rule:evenodd;stroke:#ffffff;stroke-width:2.16;stroke-linecap:butt;stroke-linejoin:miter;stroke-miterlimit:4;stroke-opacity:1"
         d="M 1006.875,1874.8672 621.09375,4656.7031 v 30.1563 H 1006.875 Z m 0,0"
         transform="matrix(0.1,0,0,-0.1,0,666.6)"
         id="path8" />
      <path
         style="fill:#00a6eb;fill-opacity:1;fill-rule:evenodd;stroke:#00a6eb;stroke-width:2.16;stroke-linecap:butt;stroke-linejoin:miter;stroke-miterlimit:4;stroke-opacity:1"
         d="m 1392.6953,1340.2188 c -204.2969,185.1171 -347.9687,356.4453 -377.8516,477.1484 l -7.9687,57.5 v 2811.9922 h 385.8203 z m 0,0"
         transform="matrix(0.1,0,0,-0.1,0,666.6)"
         id="path10" />
      <path
         style="fill:#ffffff;fill-opacity:1;fill-rule:evenodd;stroke:#ffffff;stroke-width:2.16;stroke-linecap:butt;stroke-linejoin:miter;stroke-miterlimit:4;stroke-opacity:1"
         d="m 1778.4766,1026.3125 c -141.211,104.7266 -272.7344,211.4063 -385.7813,313.9063 v 3346.6406 h 385.7813 z m 0,0"
         transform="matrix(0.1,0,0,-0.1,0,666.6)"
         id="path12" />
      <path
         style="fill:#00a6eb;fill-opacity:1;fill-rule:evenodd;stroke:#00a6eb;stroke-width:2.16;stroke-linecap:butt;stroke-linejoin:miter;stroke-miterlimit:4;stroke-opacity:1"
         d="m 2164.2969,760.88281 c -131.9531,84.17969 -262.5391,174.0625 -385.8203,265.42969 v 3660.5469 h 385.8203 z m 0,0"
         transform="matrix(0.1,0,0,-0.1,0,666.6)"
         id="path14" />
      <path
         style="fill:#ffffff;fill-opacity:1;fill-rule:evenodd;stroke:#ffffff;stroke-width:2.16;stroke-linecap:butt;stroke-linejoin:miter;stroke-miterlimit:4;stroke-opacity:1"
         d="m 2550.0781,534.20312 c -5.664,2.77344 -11.4062,5.66407 -17.1093,8.75 -120.8594,65.42969 -245.3516,139.21875 -368.6719,217.92969 V 4686.8594 h 385.7812 z m 0,0"
         transform="matrix(0.1,0,0,-0.1,0,666.6)"
         id="path16" />
      <path
         style="fill:#00a6eb;fill-opacity:1;fill-rule:evenodd;stroke:#00a6eb;stroke-width:2.16;stroke-linecap:butt;stroke-linejoin:miter;stroke-miterlimit:4;stroke-opacity:1"
         d="m 2935.8984,532.79687 c -23.5546,-11.21093 -46.7578,-19.49218 -70.4296,-25.27343 h -242.0313 c -24.6094,6.01562 -48.7891,14.76562 -73.3594,26.67968 V 4686.8594 h 385.8203 z m 0,0"
         transform="matrix(0.1,0,0,-0.1,0,666.6)"
         id="path18" />
      <path
         style="fill:#ffffff;fill-opacity:1;fill-rule:evenodd;stroke:#ffffff;stroke-width:2.16;stroke-linecap:butt;stroke-linejoin:miter;stroke-miterlimit:4;stroke-opacity:1"
         d="m 3321.6797,759.00781 c -122.3828,-77.96875 -245.8984,-151.17187 -365.7813,-216.05469 -6.7187,-3.59375 -13.3593,-6.99218 -20,-10.15625 V 4686.8594 h 385.7813 z m 0,0"
         transform="matrix(0.1,0,0,-0.1,0,666.6)"
         id="path20" />
      <path
         style="fill:#00a6eb;fill-opacity:1;fill-rule:evenodd;stroke:#00a6eb;stroke-width:2.16;stroke-linecap:butt;stroke-linejoin:miter;stroke-miterlimit:4;stroke-opacity:1"
         d="M 3707.5,1024.1641 C 3584.1797,932.83594 3453.5938,843.10937 3321.6797,759.00781 V 4686.8594 H 3707.5 Z m 0,0"
         transform="matrix(0.1,0,0,-0.1,0,666.6)"
         id="path22" />
      <path
         style="fill:#ffffff;fill-opacity:1;fill-rule:evenodd;stroke:#ffffff;stroke-width:2.16;stroke-linecap:butt;stroke-linejoin:miter;stroke-miterlimit:4;stroke-opacity:1"
         d="M 4093.2813,1337.5234 C 3980.1563,1235.1406 3848.5938,1128.6563 3707.5,1024.1641 v 3662.6953 h 385.7813 z m 0,0"
         transform="matrix(0.1,0,0,-0.1,0,666.6)"
         id="path24" />
      <path
         style="fill:#00a6eb;fill-opacity:1;fill-rule:evenodd;stroke:#00a6eb;stroke-width:2.16;stroke-linecap:butt;stroke-linejoin:miter;stroke-miterlimit:4;stroke-opacity:1"
         d="m 4479.1016,1854.2422 -5.1172,-36.875 c -30.0391,-121.2891 -174.8438,-293.6719 -380.7031,-479.8438 v 3349.336 h 1.0546 l 384.7657,-1.3282 z m 0,0"
         transform="matrix(0.1,0,0,-0.1,0,666.6)"
         id="path26" />
      <path
         style="fill:#ffffff;fill-opacity:1;fill-rule:evenodd;stroke:#ffffff;stroke-width:2.16;stroke-linecap:butt;stroke-linejoin:miter;stroke-miterlimit:4;stroke-opacity:1"
         d="M 4864.8828,4636.1953 4479.1016,1854.2422 v 2831.289 l 385.7812,-1.3281 z m 0,0"
         transform="matrix(0.1,0,0,-0.1,0,666.6)"
         id="path28" />
      <path
         style="fill:#191717;fill-opacity:1;fill-rule:evenodd;stroke:none"
         d="m 198.38281,128.42187 -4.10547,13.60547 h 7.80469 z m -4.10547,36.67579 h -17.25 v -11.75782 h 3.32422 l 8.16406,-25.62109 h -3.5039 v -11.76953 h 31.3164 v 11.76953 h -3.5039 l 8.32422,25.62109 h 3.19531 v 11.75782 h -22.73438 v -10.76954 h 3.81641 l -1.65625,-6.1875 h -11.14844 l -1.91406,6.1875 h 3.57031 z m 51.27344,0 h -15.62891 v -12.85547 h 15.62891 z m 83.69922,-36.67579 -4.10547,13.60547 h 7.80078 z m -4.10547,36.67579 h -17.25 v -11.75782 h 3.32422 l 8.16406,-25.62109 h -3.5039 v -11.76953 h 31.3164 v 11.76953 h -3.50781 l 8.32812,25.62109 h 3.19532 v 11.75782 h -22.73438 v -10.76954 h 3.81641 l -1.65625,-6.1875 h -11.14844 l -1.91406,6.1875 h 3.57031 z m 51.26953,0 h -15.625 v -12.85547 h 15.625 z m 0,0"
         id="path30" />
      <path
         style="fill:#191717;fill-opacity:1;fill-rule:evenodd;stroke:none"
         d="m 272.76172,103.65625 10.80078,4.82422 c -0.91797,5.64062 -3.02344,10.26562 -6.30859,13.85937 -3.32813,3.61329 -7.92188,5.42969 -13.76172,5.42969 -7.97266,0 -13.875,-2.64844 -17.71485,-7.93359 -3.84765,-5.27735 -5.76562,-11.70703 -5.76562,-19.28906 0,-7.648442 1.88672,-14.144536 5.65625,-19.48438 3.76562,-5.339844 8.65625,-8.011719 14.67969,-8.011719 4.89062,0 8.87109,1.527344 11.93359,4.601563 v -3.539063 h 9.99609 v 19.289063 h -10.38281 c -0.53125,-2.394531 -1.44141,-4.300781 -2.71875,-5.6875 -1.27344,-1.363281 -2.73437,-2.050781 -4.36719,-2.050781 -4.51172,0 -6.75781,4.925781 -6.75781,14.765627 0,9.86719 2.32813,14.80469 6.99219,14.80469 4.09375,0 6.66797,-3.86329 7.71875,-11.57813 z m 17.77344,12.61328 h 8.40234 v 10.67188 h -8.40234 z m 0,0"
         id="path32" />
    </g>
  </g>
</svg>
