<svg enable-background="new 0 0 600 600" viewBox="0 0 600 600" xmlns="http://www.w3.org/2000/svg"><g><path d="M 520.254 161.377 C 474.259 89.371 393.637 41.63 301.867 41.63 c -143.012 0 -258.944 115.933 -258.944 258.943 c 0 143.011 115.933 258.945 258.944 258.945 c 143.015 0 258.944 -115.934 258.944 -258.945 H 433.711" fill="none" stroke="#303081" stroke-width="68.293"/><path d="M 437.266 214.267 c -28.511 -44.638 -78.497 -74.239 -135.398 -74.239 c -88.668 0 -160.547 71.878 -160.547 160.545 c 0 88.667 71.879 160.545 160.547 160.545 c 62.393 0 116.471 -35.59 143.046 -87.576" fill="none" stroke="#303081" stroke-width="56.9108"/></g><g><path d="M 214.607 217.103 H 389.134 V 255.046 H 214.607 Z" fill="#303081"/><path d="M 214.607 346.102 H 389.134 V 384.044 H 214.607 Z" fill="#303081"/><path d="M 389.013 255.066 L 239.139 376.435 L 214.601 346.144 L 364.48 224.766 Z" fill="#303081"/></g></svg>