<svg xmlns="http://www.w3.org/2000/svg" xmlns:xlink="http://www.w3.org/1999/xlink" width="1000" height="1000" viewBox="0 0 1000 1000"><defs><clipPath id="s"><use xlink:href="#a" width="100%" height="100%"/></clipPath><clipPath id="u"><use xlink:href="#b" width="100%" height="100%"/></clipPath><clipPath id="w"><use xlink:href="#c" width="100%" height="100%"/></clipPath><clipPath id="y"><use xlink:href="#d" width="100%" height="100%"/></clipPath><clipPath id="A"><use xlink:href="#e" width="100%" height="100%"/></clipPath><clipPath id="C"><use xlink:href="#f" width="100%" height="100%"/></clipPath><clipPath id="E"><use xlink:href="#g" width="100%" height="100%"/></clipPath><clipPath id="G"><use xlink:href="#h" width="100%" height="100%"/></clipPath><clipPath id="I"><use xlink:href="#i" width="100%" height="100%"/></clipPath><clipPath id="ac"><use xlink:href="#j" width="100%" height="100%"/></clipPath><clipPath id="ae"><use xlink:href="#k" width="100%" height="100%"/></clipPath><clipPath id="ag"><use xlink:href="#l" width="100%" height="100%"/></clipPath><clipPath id="ai"><use xlink:href="#m" width="100%" height="100%"/></clipPath><clipPath id="ak"><use xlink:href="#n" width="100%" height="100%"/></clipPath><clipPath id="am"><use xlink:href="#o" width="100%" height="100%"/></clipPath><clipPath id="ao"><use xlink:href="#p" width="100%" height="100%"/></clipPath><clipPath id="aq"><use xlink:href="#q" width="100%" height="100%"/></clipPath><clipPath id="as"><use xlink:href="#r" width="100%" height="100%"/></clipPath><path id="a" d="m76.184 273.476 3.557.819 8.213 1.682c14.212 2.719 35.696 6.83 49.303 20.437l3.583 3.581v-7.173c-17.721-17.718-46.669-20.313-59.94-23.451-12.699-3.008-36.268-7.438-50.353-20.844l-6.921-.023c13.612 16.031 38.432 21.734 52.558 24.972"/><path id="b" d="M200.76 269.371c-13.269 3.138-44.735 5.733-59.92 23.451v7.173l3.58-3.581c13.596-13.606 35.08-17.718 49.291-20.437l8.226-1.682 3.548-.819c14.07-3.221 38.777-8.877 52.503-24.885l-6.783-.159c-14.151 13.513-37.725 17.931-50.445 20.939"/><path id="c" d="M140.84 28.417c-30.786 0-62.833-7.526-89.039-22.13L7.167 50.984c11.006 10.998 24.348 40.379 24.348 62.975 0 48.785-12.436 90.744-12.436 107.625 0 35.731 42.906 43.311 61.822 47.787 13.271 3.138 42.219 5.733 59.94 23.451 17.721-17.718 46.651-20.313 59.92-23.451 18.924-4.477 61.834-12.056 61.834-47.787 0-16.881-12.439-58.84-12.439-107.625 0-22.596 13.342-51.978 24.354-62.975L229.871 6.288c-26.212 14.604-58.254 22.129-89.031 22.129"/><path id="d" d="M227.405 1.861c-24.869 13.861-55.616 21.496-86.564 21.496-30.959 0-61.704-7.635-86.574-21.496L50.92-.006l.882 6.293c26.206 14.604 58.253 22.13 89.039 22.13 30.776 0 62.818-7.526 89.03-22.13l.879-6.293z"/><path id="e" d="M22.346 165.787c-1.418 9.838-3.008 18.874-4.403 26.763-2.191 12.484-3.925 22.334-3.925 29.034 0 11.295 3.775 20.065 9.614 26.943l6.639.023.301-.006c-6.872-6.553-11.493-15.241-11.493-26.961 0-10.451 4.76-30.484 8.39-55.797h-5.123z"/><path id="f" d="M262.594 221.583c0 11.708-4.612 20.396-11.467 26.938l6.783.159c5.904-6.896 9.75-15.719 9.75-27.097 0-6.7-1.746-16.55-3.935-29.034-1.397-7.895-2.984-16.919-4.412-26.769l-5.113-.035c3.628 25.337 8.394 45.387 8.394 55.838"/><path id="g" d="M274.508 50.984c-11.012 10.998-24.354 40.379-24.354 62.975 0 18.591 1.805 36.209 4.046 51.804l5.12.029c-2.26-15.601-4.111-33.277-4.111-51.833 0-20.579 12.304-48.825 22.885-59.4l3.285-3.297v-.277h-6.871z"/><path id="h" d="m.006 50.984 3.58 3.575c10.575 10.575 22.867 38.822 22.867 59.4 0 18.568-1.849 36.268-4.108 51.875l5.123-.041c2.241-15.606 4.046-33.225 4.046-51.833 0-22.596-13.342-51.978-24.348-62.975H.006z"/><path id="i" d="M274.508 50.984h6.871v-.286L230.75-.006l-.879 6.294Z"/><path id="j" d="M204.04 94.023c-20.275 6.927-42.521 12.852-60.802 16.058-2.023.357-4.276.773-6.632 1.239L20.281 44.157c-3.324 3.33-5.925 5.931-7.048 7.066 10.685 13.023 21.543 38.547 22.643 59.336l33.472 19.322c-12.74 4.698-24.902 10.092-35.021 16.132-.139 1.504-.301 2.981-.463 4.462 32.172-20.184 89.473-33.352 109.978-36.879 39.138-6.721 92.812-25.639 110.854-38.583 1.068-2.498 2.159-4.945 3.327-7.27l-70.271-40.521c-15.132 3.725-31.01 5.718-46.967 5.718-19.803 0-39.456-3.09-57.737-8.782z"/><path id="k" d="M143.238 166.715c-27.934 4.802-87.927 19.727-118.362 42.128-.478 3.108-.853 5.916-1.068 8.316l118.589 68.52c17.25-14.108 41.712-17.447 58.852-21.033.991-.212 1.994-.437 2.99-.654l-130.47-75.315c24.581-8.812 50.22-14.798 66.57-17.813l114.163 65.919c2.212-4.313 3.516-9.284 3.516-15.094 0-8.252-3.392-24.023-6.642-44.106l-42.836-24.734c15.846-5.612 29.465-11.493 37.888-16.397-.089-1.336-.142-2.702-.23-4.041-15.949 9.839-61.443 27.179-102.96 34.304"/><path id="l" d="M200.247 170.921c-4.063 7.03-4.65 21.941 9.29 29.995 13.946 8.057 26.574.088 30.626-6.948 2.336-4.046 2.714-11.855-3.827-15.636-6.618-3.819-11.638-1.101-12.917 1.103-.378.654-1.104 1.142-1.876.702-.731-.422-.809-1.292-.39-2.006 1.274-2.212 1.168-7.883-5.438-11.705-1.806-1.038-3.604-1.475-5.32-1.475-4.53.001-8.458 3.033-10.148 5.97"/><path id="m" d="M42.898 80.112c-4.052 7.031-4.636 21.947 9.301 29.992 13.946 8.057 26.563.086 30.635-6.945 2.33-4.052 2.71-11.855-3.843-15.642-6.618-3.816-11.637-1.094-12.911 1.112-.375.658-1.112 1.141-1.878.687-.726-.416-.811-1.28-.386-2 1.268-2.203 1.165-7.886-5.438-11.705-1.805-1.032-3.609-1.471-5.326-1.471-4.53.001-8.449 3.032-10.154 5.972"/><path id="n" d="M226.869 74.247c-2.153 3.733-3.303 9.703-1.835 15.68 9.178-3.722 17.218-7.464 23.357-10.944.112-2.692-1.227-6.45-6.052-9.234-1.799-1.047-3.609-1.474-5.32-1.474-4.523 0-8.452 3.031-10.15 5.972"/><path id="o" d="M34.39 202.68c.566 6.305 3.787 13.1 11.711 17.671 13.952 8.051 26.574.076 30.626-6.948 2.344-4.058 2.719-11.855-3.834-15.647-6.615-3.816-11.634-1.086-12.908 1.114-.38.66-1.112 1.133-1.878.69-.729-.425-.808-1.286-.393-2.006.737-1.273.967-3.719-.212-6.293-8.317 3.491-16.149 7.308-23.112 11.419"/><path id="p" d="M115.478 235.922c-4.058 7.036-4.645 21.947 9.295 29.998 13.946 8.045 26.569.083 30.635-6.954 2.336-4.046 2.71-11.861-3.849-15.636-6.606-3.822-11.631-1.092-12.899 1.12-.377.649-1.112 1.139-1.888.685-.716-.419-.802-1.292-.392-2 1.277-2.206 1.18-7.886-5.435-11.708-1.799-1.038-3.604-1.48-5.32-1.48-4.529 0-8.448 3.032-10.147 5.975"/><path id="q" d="M143.152 32.9c-2.167 7.706-.669 19.024 10.961 25.74 13.946 8.051 26.569.085 30.63-6.945 2.342-4.052 2.716-11.855-3.843-15.642-6.612-3.825-11.631-1.094-12.899 1.118-.374.652-1.111 1.136-1.885.688-.726-.416-.805-1.286-.386-2.005.622-1.08 1.044-2.475.403-4.595-7.433 1.031-15.298 1.411-22.981 1.641"/><path id="r" d="M0 0h281.379v299.995H0Z"/><radialGradient id="x" cx="-147.839" cy="578.734" r="6.04" gradientTransform="matrix(40.8412 0 0 -40.8412 6027.927 23725.119)" gradientUnits="userSpaceOnUse"><stop offset="0" stop-color="#b2bcdc"/><stop offset=".084" stop-color="#b2bcdc"/><stop offset=".104" stop-color="#a8b6d8"/><stop offset=".256" stop-color="#6187bb"/><stop offset=".382" stop-color="#2c66a5"/><stop offset=".476" stop-color="#0c5198"/><stop offset=".528" stop-color="#004993"/><stop offset=".781" stop-color="#004993"/><stop offset=".906" stop-color="#004082"/><stop offset="1" stop-color="#003c7b"/></radialGradient><radialGradient id="ad" cx="-146.311" cy="578.877" r="6.043" gradientTransform="matrix(27.6196 0 0 -27.6196 4130.432 16092.299)" gradientUnits="userSpaceOnUse"><stop offset="0" stop-color="#fff"/><stop offset=".438" stop-color="#fff"/><stop offset=".667" stop-color="#fcfcfd"/><stop offset=".814" stop-color="#f4f4f4"/><stop offset=".936" stop-color="#e5e6e6"/><stop offset="1" stop-color="#dadbdc"/></radialGradient><radialGradient id="af" cx="-146.308" cy="578.88" r="6.038" gradientTransform="matrix(27.6195 0 0 -27.6195 4130.42 16092.23)" gradientUnits="userSpaceOnUse"><stop offset="0" stop-color="#fff"/><stop offset=".438" stop-color="#fff"/><stop offset=".667" stop-color="#fcfcfd"/><stop offset=".814" stop-color="#f4f4f4"/><stop offset=".936" stop-color="#e5e6e6"/><stop offset="1" stop-color="#dadbdc"/></radialGradient><radialGradient id="ah" cx="-131.314" cy="571.743" r="6.039" gradientTransform="matrix(4.3432 0 0 -4.3432 780.998 2663.08)" gradientUnits="userSpaceOnUse"><stop offset="0" stop-color="#f8bfae"/><stop offset=".027" stop-color="#f6b1a4"/><stop offset=".129" stop-color="#f18281"/><stop offset=".234" stop-color="#ed5a63"/><stop offset=".341" stop-color="#e93a4a"/><stop offset=".451" stop-color="#e72037"/><stop offset=".564" stop-color="#e50e2a"/><stop offset=".684" stop-color="#e30322"/><stop offset=".82" stop-color="#e3001f"/><stop offset=".905" stop-color="#cf0317"/><stop offset="1" stop-color="#bd060f"/></radialGradient><radialGradient id="aj" cx="-161.058" cy="589.508" r="6.042" gradientTransform="matrix(4.4772 0 0 -4.4772 774.336 2724.838)" gradientUnits="userSpaceOnUse"><stop offset="0" stop-color="#f8bfae"/><stop offset=".027" stop-color="#f6b1a4"/><stop offset=".129" stop-color="#f18281"/><stop offset=".234" stop-color="#ed5a63"/><stop offset=".341" stop-color="#e93a4a"/><stop offset=".451" stop-color="#e72037"/><stop offset=".564" stop-color="#e50e2a"/><stop offset=".684" stop-color="#e30322"/><stop offset=".82" stop-color="#e3001f"/><stop offset=".905" stop-color="#cf0317"/><stop offset="1" stop-color="#bd060f"/></radialGradient><radialGradient id="al" cx="-127.103" cy="590.518" r="6.039" gradientTransform="matrix(4.5563 0 0 -4.5563 816.223 2769.398)" gradientUnits="userSpaceOnUse"><stop offset="0" stop-color="#f8bfae"/><stop offset=".027" stop-color="#f6b1a4"/><stop offset=".129" stop-color="#f18281"/><stop offset=".234" stop-color="#ed5a63"/><stop offset=".341" stop-color="#e93a4a"/><stop offset=".451" stop-color="#e72037"/><stop offset=".564" stop-color="#e50e2a"/><stop offset=".684" stop-color="#e30322"/><stop offset=".82" stop-color="#e3001f"/><stop offset=".905" stop-color="#cf0317"/><stop offset="1" stop-color="#bd060f"/></radialGradient><radialGradient id="an" cx="-161.303" cy="569.645" r="6.039" gradientTransform="matrix(4.8353 0 0 -4.8353 824.777 2949.838)" gradientUnits="userSpaceOnUse"><stop offset="0" stop-color="#f8bfae"/><stop offset=".027" stop-color="#f6b1a4"/><stop offset=".129" stop-color="#f18281"/><stop offset=".234" stop-color="#ed5a63"/><stop offset=".341" stop-color="#e93a4a"/><stop offset=".451" stop-color="#e72037"/><stop offset=".564" stop-color="#e50e2a"/><stop offset=".684" stop-color="#e30322"/><stop offset=".82" stop-color="#e3001f"/><stop offset=".905" stop-color="#cf0317"/><stop offset="1" stop-color="#bd060f"/></radialGradient><radialGradient id="ap" cx="-147.578" cy="561.612" r="6.041" gradientTransform="matrix(4.7267 0 0 -4.7267 822.286 2894.463)" gradientUnits="userSpaceOnUse"><stop offset="0" stop-color="#f8bfae"/><stop offset=".027" stop-color="#f6b1a4"/><stop offset=".129" stop-color="#f18281"/><stop offset=".234" stop-color="#ed5a63"/><stop offset=".341" stop-color="#e93a4a"/><stop offset=".451" stop-color="#e72037"/><stop offset=".564" stop-color="#e50e2a"/><stop offset=".684" stop-color="#e30322"/><stop offset=".82" stop-color="#e3001f"/><stop offset=".905" stop-color="#cf0317"/><stop offset="1" stop-color="#bd060f"/></radialGradient><radialGradient id="ar" cx="-142.44" cy="596.206" r="6.039" gradientTransform="matrix(5.2882 0 0 -5.2882 908.652 3184.234)" gradientUnits="userSpaceOnUse"><stop offset="0" stop-color="#f8bfae"/><stop offset=".027" stop-color="#f6b1a4"/><stop offset=".129" stop-color="#f18281"/><stop offset=".234" stop-color="#ed5a63"/><stop offset=".341" stop-color="#e93a4a"/><stop offset=".451" stop-color="#e72037"/><stop offset=".564" stop-color="#e50e2a"/><stop offset=".684" stop-color="#e30322"/><stop offset=".82" stop-color="#e3001f"/><stop offset=".905" stop-color="#cf0317"/><stop offset="1" stop-color="#bd060f"/></radialGradient><linearGradient id="t" x1="-147.581" x2="-141.542" y1="571.816" y2="571.816" gradientTransform="rotate(201.762 418.634 6199.677)scale(-20.2479 20.2479)" gradientUnits="userSpaceOnUse"><stop offset="0" stop-color="#18569c"/><stop offset=".461" stop-color="#9eabd2"/><stop offset=".591" stop-color="#7592c2"/><stop offset=".872" stop-color="#215ea0"/><stop offset="1" stop-color="#004993"/></linearGradient><linearGradient id="v" x1="-144.744" x2="-138.705" y1="572.142" y2="572.142" gradientTransform="matrix(19.3968 0 0 -19.3968 2948.65 11371.941)" gradientUnits="userSpaceOnUse"><stop offset="0" stop-color="#002553"/><stop offset=".511" stop-color="#00346e"/><stop offset=".983" stop-color="#002553"/><stop offset="1" stop-color="#002553"/></linearGradient><linearGradient id="z" x1="-147.269" x2="-141.229" y1="581.292" y2="581.292" gradientTransform="matrix(29.7728 0 0 -29.7728 4435.789 17320.91)" gradientUnits="userSpaceOnUse"><stop offset="0" stop-color="#18569c"/><stop offset="1" stop-color="#9eabd2"/><stop offset="1" stop-color="#7592c2"/><stop offset="1" stop-color="#215ea0"/><stop offset="1" stop-color="#004993"/></linearGradient><linearGradient id="B" x1="-150.383" x2="-144.342" y1="584.355" y2="584.355" gradientTransform="rotate(89.324 5246.748 3260.018)scale(-14.4571 14.4571)" gradientUnits="userSpaceOnUse"><stop offset="0" stop-color="#18569c"/><stop offset=".168" stop-color="#2860a3"/><stop offset=".499" stop-color="#537bb4"/><stop offset=".956" stop-color="#97a7cf"/><stop offset="1" stop-color="#9eabd2"/><stop offset="1" stop-color="#7592c2"/><stop offset="1" stop-color="#215ea0"/><stop offset="1" stop-color="#004993"/></linearGradient><linearGradient id="D" x1="-111.022" x2="-104.983" y1="560.048" y2="560.048" gradientTransform="matrix(2.738 0 0 -2.738 555.366 1740.602)" gradientUnits="userSpaceOnUse"><stop offset="0" stop-color="#002553"/><stop offset=".371" stop-color="#002553"/><stop offset=".511" stop-color="#002d61"/><stop offset=".983" stop-color="#002553"/><stop offset="1" stop-color="#002553"/></linearGradient><linearGradient id="F" x1="-127.211" x2="-121.171" y1="584.14" y2="584.14" gradientTransform="matrix(5.2173 0 0 -5.2173 914.124 3156.04)" gradientUnits="userSpaceOnUse"><stop offset="0" stop-color="#002553"/><stop offset=".201" stop-color="#002757"/><stop offset=".386" stop-color="#002d62"/><stop offset=".511" stop-color="#00346e"/><stop offset=".983" stop-color="#002553"/><stop offset="1" stop-color="#002553"/></linearGradient><linearGradient id="H" x1="-150.076" x2="-144.038" y1="573.273" y2="573.273" gradientTransform="rotate(72.156 -9940.164 -3856.132)scale(21.1388 -21.1388)" gradientUnits="userSpaceOnUse"><stop offset="0" stop-color="#18569c"/><stop offset=".43" stop-color="#587fb6"/><stop offset=".813" stop-color="#8a9fca"/><stop offset="1" stop-color="#9eabd2"/><stop offset="1" stop-color="#7592c2"/><stop offset="1" stop-color="#215ea0"/><stop offset="1" stop-color="#004993"/></linearGradient><linearGradient id="ab" x1="-148.874" x2="-142.833" y1="591.492" y2="591.492" gradientTransform="matrix(7.0013 7.2811 7.2811 -7.0013 -3036.313 5222.065)" gradientUnits="userSpaceOnUse"><stop offset="0" stop-color="#7b8ebd"/><stop offset=".253" stop-color="#7b8ebd"/><stop offset=".283" stop-color="#7488b7"/><stop offset=".519" stop-color="#425e8c"/><stop offset=".725" stop-color="#1e3f6d"/><stop offset=".893" stop-color="#082c5a"/><stop offset="1" stop-color="#002553"/></linearGradient></defs><path fill="url(#t)" d="m5.896 292.917 33.843-84.775 118.831 47.439-33.843 84.775Z" clip-path="url(#s)" transform="translate(54.475 25.019)scale(3.16666)"/><path fill="url(#v)" d="M140.84 248.438h117.147v51.557H140.84Z" clip-path="url(#u)" transform="translate(54.475 25.019)scale(3.16666)"/><path fill="url(#x)" d="M7.167 6.288h267.336v286.534H7.167Z" clip-path="url(#w)" transform="translate(54.475 25.019)scale(3.16666)"/><path fill="url(#z)" d="M50.919 0h179.824v28.417H50.919Z" clip-path="url(#y)" transform="translate(54.475 25.019)scale(3.16666)"/><path fill="url(#B)" d="m31.55 248.539-17.53.206-.979-82.947 17.53-.206Z" clip-path="url(#A)" transform="translate(54.475 25.019)scale(3.16666)"/><path fill="url(#D)" d="M251.127 165.749h16.533v82.932h-16.533Z" clip-path="url(#C)" transform="translate(54.475 25.019)scale(3.16666)"/><path fill="url(#F)" d="M250.155 50.984h31.225v114.809h-31.225Z" clip-path="url(#E)" transform="translate(54.475 25.019)scale(3.16666)"/><path fill="url(#H)" d="m-33.496 61.766 62.052-19.974 36.457 113.26-62.049 19.974Z" clip-path="url(#G)" transform="translate(54.475 25.019)scale(3.16666)"/><path fill="url(#ab)" d="M204.396 24.489 256.63-25.74l50.224 52.229-52.24 50.229Z" clip-path="url(#I)" transform="translate(54.475 25.019)scale(3.16666)"/><path fill="#b8c1df" d="M77.177 186.44H54.494L207.174 33.6l8.544-8.581 2.793 19.912Z"/><path fill="url(#ad)" d="M13.233 24.162h244.79v126.313H13.233Z" clip-path="url(#ac)" transform="translate(54.475 25.019)scale(3.16666)"/><path fill="url(#af)" d="M23.808 132.412h234.209V285.68H23.808Z" clip-path="url(#ae)" transform="translate(54.475 25.019)scale(3.16666)"/><path fill="url(#ah)" d="M195.596 164.952h47.28v44.016h-47.28Z" clip-path="url(#ag)" transform="translate(54.475 25.019)scale(3.16666)"/><path fill="url(#aj)" d="M38.262 74.141h47.283v44.021H38.262Z" clip-path="url(#ai)" transform="translate(54.475 25.019)scale(3.16666)"/><path fill="url(#al)" d="M223.566 68.275h24.938v21.652h-24.938Z" clip-path="url(#ak)" transform="translate(54.475 25.019)scale(3.16666)"/><path fill="url(#an)" d="M34.39 191.261h45.056v37.135H34.39Z" clip-path="url(#am)" transform="translate(54.475 25.019)scale(3.16666)"/><path fill="url(#ap)" d="M110.836 229.947h47.282v44.019h-47.282Z" clip-path="url(#ao)" transform="translate(54.475 25.019)scale(3.16666)"/><path fill="url(#ar)" d="M140.985 31.258h46.475v35.433h-46.475Z" clip-path="url(#aq)" transform="translate(54.475 25.019)scale(3.16666)"/><g fill="#fff"><path d="M46.23 165.498c-.979-.15-1.631-.064-2.197.2-.793.381-1.064 1.124-.672 1.944.575 1.188 1.908 1.595 3.347 2.494 1.188.743 2.778 1.448 3.557 3.085 1.112 2.333.442 5.589-3.798 7.611-1.728.826-3.701 1.419-5.412 1.188l-.375-3.833c.979.15 2.397.203 3.359-.248.283-.139 1.684-.847.991-2.295-.495-1.034-1.607-1.548-3.226-2.392-1.578-.828-2.76-1.698-3.418-3.081-1.094-2.295-.298-5.574 3.152-7.223 1.419-.673 3.383-1.07 5.02-.696z" clip-path="url(#as)" transform="translate(54.475 25.019)scale(3.16666)"/><path d="M66.031 170.488c-1.643 1.793-3.557 3.406-5.5 4.196-3.919 1.596-6.951-.935-8.337-4.583-2.722-7.278 1.657-12.483 5.173-13.917 1.828-.75 3.262-.802 4.657-.543l-.304 3.43c-.705-.086-1.48-.15-2.409.229-2.351.962-3.2 4.615-1.938 7.712 1.448 3.545 3.344 3.227 4.161 2.899.929-.381 1.846-1.28 2.354-1.858z" clip-path="url(#as)" transform="translate(54.475 25.019)scale(3.16666)"/><path d="m89.131 138.602 3.515 24.304-5.642 1.804-1.66-11.427-5.854 1.878 1.66 11.433-5.644 1.806-3.536-24.478 5.642-1.805L78.88 151l5.854-1.879-1.245-8.708Z" clip-path="url(#as)" transform="translate(54.475 25.019)scale(3.16666)"/><path d="M109.347 155.833c-1.787 1.935-4.317 4.072-7.343 4.898-4.082 1.117-6.559-2.935-7.116-5.199-1.95-7.959 2.781-12.54 6.65-13.595 2.967-.817 5.745-.277 6.633 2.946.991 3.63-3.28 7.037-7.73 8.113.139.761.693 3.713 3.533 2.94 1.448-.398 2.324-1.365 3.483-2.477zm-9.44-5.724c3.064-.69 4.344-2.056 3.97-3.902-.207-.991-1.003-1.537-1.97-1.268-1.746.623-2.168 2.761-2 5.17" clip-path="url(#as)" transform="translate(54.475 25.019)scale(3.16666)"/><path d="M125.818 151.888c-1.843 1.867-4.454 3.919-7.509 4.639-4.12.973-6.45-3.164-6.927-5.453-1.672-8.016 3.211-12.431 7.113-13.354 2.996-.708 5.756-.068 6.523 3.182.87 3.66-3.516 6.921-8.001 7.838.115.761.56 3.734 3.43 3.059 1.469-.351 2.374-1.277 3.568-2.351zm-9.231-6.052c3.082-.587 4.415-1.908 4.102-3.763-.171-.997-.949-1.563-1.929-1.333-1.769.56-2.264 2.681-2.173 5.096" clip-path="url(#as)" transform="translate(54.475 25.019)scale(3.16666)"/><path d="m133.919 138.649.259.018.236-.725c.224-.826.755-3.74 2.784-4.144 1.168-.242 1.982.171 2.781.793l-1.578 5.5c-.339-.071-.681-.215-1.575-.036-1.265.254-2.775 1.336-2.654 4.94l.236 7.556-5.532 1.112-.572-17.653 5.533-1.112z" clip-path="url(#as)" transform="translate(54.475 25.019)scale(3.16666)"/><path d="M155.038 146.287c-1.926 1.787-4.619 3.722-7.7 4.306-4.161.799-6.312-3.441-6.686-5.75-1.315-8.081 3.763-12.277 7.7-13.026 3.02-.581 5.75.18 6.379 3.465.698 3.698-3.816 6.759-8.34 7.479.077.767.392 3.757 3.285 3.2 1.48-.277 2.427-1.171 3.671-2.186zm-8.957-6.45c3.111-.448 4.494-1.71 4.27-3.577-.133-1.009-.882-1.604-1.867-1.418-1.793.483-2.385 2.58-2.403 4.995" clip-path="url(#as)" transform="translate(54.475 25.019)scale(3.16666)"/><path d="m163.339 132.067.076.053c1.118-2.79 3.146-4.518 4.973-4.969 2.341-.581 3.586.404 4.275 2.778.23.802.363 1.746.452 2.869l.875 11.342-5.47 1.357-.876-11.05c-.006-.292-.08-.593-.15-.864-.473-1.389-1.162-1.433-1.531-1.342-2.07.513-2.209 3.958-2.028 6.391l.622 7.851-5.471 1.359-1.371-17.612 5.446-1.354z" clip-path="url(#as)" transform="translate(54.475 25.019)scale(3.16666)"/><path d="m181.505 142.002-7.14-15.544 5.326-2.448c1.186 3.135 2.415 6.299 3.774 10.799l.063-.018c.289-4.99.778-8.655 1.303-12.298l4.336-.375-3.755 18.73z" clip-path="url(#as)" transform="translate(54.475 25.019)scale(3.16666)"/><path d="M206.523 131.527c-1.667 2.029-4.07 4.317-7.043 5.32-4.002 1.354-6.715-2.554-7.402-4.784-2.412-7.827 2.041-12.678 5.846-13.964 2.91-.979 5.718-.604 6.782 2.566 1.207 3.565-2.852 7.219-7.236 8.546.188.749.908 3.666 3.698 2.725 1.43-.478 2.241-1.492 3.332-2.669zm-9.753-5.164c3.014-.87 4.22-2.309 3.739-4.132-.269-.973-1.094-1.469-2.05-1.147-1.701.723-1.999 2.881-1.689 5.279" clip-path="url(#as)" transform="translate(54.475 25.019)scale(3.16666)"/><path d="M213.917 115.384c.926-.357 1.781.097 2.082 1.062.56 1.802-.572 3.291-3.557 4.282-.413-2.38-.207-4.548 1.475-5.344m6.375 7.924c-1.045 1.224-1.812 2.271-3.221 2.808-2.749 1.062-3.592-1.822-3.811-2.56 4.323-1.522 8.229-5.341 6.871-8.85-1.203-3.121-4.022-3.374-6.889-2.277-3.745 1.451-7.992 6.482-5.249 14.194.778 2.206 3.65 5.993 7.597 4.471 2.932-1.129 5.237-3.509 6.813-5.618z" clip-path="url(#as)" transform="translate(54.475 25.019)scale(3.16666)"/><path d="m227.305 110.305.088.036c.572-2.949 2.235-5.02 3.952-5.81 2.194-1.008 3.604-.28 4.725 1.932.377.743.684 1.637.979 2.731l2.985 10.974-5.126 2.368-2.926-10.702c-.059-.28-.188-.563-.307-.817-.726-1.274-1.415-1.194-1.752-1.032-1.94.888-1.438 4.3-.808 6.656l2.094 7.597-5.132 2.362-4.636-17.043 5.091-2.351z" clip-path="url(#as)" transform="translate(54.475 25.019)scale(3.16666)"/></g></svg>