<svg xmlns="http://www.w3.org/2000/svg" width="1000" height="1000" viewBox="0 0 1000 1000"><path fill="#c8c7c7" d="M496.579 25C220.627 25 164.81 46.665 164.81 46.665v187.007s-2.282 36.49 13.682 53.596c15.965 17.102 17.105 26.225 17.105 44.47s-.112 305.598-.112 305.598S182.674 974.63 500.056 975c316.637-.37 304.348-337.664 304.348-337.664V331.738c0-18.245 1.142-27.368 17.105-44.47 15.963-17.105 13.68-39.91 13.68-39.91V60.347S770.25 25 496.58 25"/><path fill="#1a5dad" d="M606.301 924.472V289.328c78.961 2.548 131.687 10.944 166.27 15.965 0 18.245.103 293.056.103 293.056s22.107 258.854-166.373 326.123"/><path fill="none" stroke="#1a5dad" stroke-miterlimit="3.864" stroke-width="4.560086399999999" d="M606.301 924.472V289.328c78.961 2.548 131.687 10.944 166.27 15.965 0 18.245.103 293.056.103 293.056s22.107 258.854-166.373 326.123z"/><path fill="#1a5dad" d="M390.476 923.55V288.407c-78.956 2.548-131.684 10.941-166.269 15.962 0 18.246-.1 293.056-.1 293.056s-22.11 258.855 166.369 326.123"/><path fill="none" stroke="#1a5dad" stroke-miterlimit="3.864" stroke-width="4.560086399999999" d="M390.476 923.55V288.407c-78.956 2.548-131.684 10.941-166.269 15.962 0 18.246-.1 293.056-.1 293.056s-22.11 258.855 166.369 326.123z"/><path fill="#231f20" d="M417.842 287.268v647.686c24.33 6.671 51.415 10.263 82.215 10.263 29.672 0 56.131-3.661 79.724-10.217l.065-648.017c-24.387-.551-51.05-.855-80.016-.855-29.79 0-57.05.57-81.988 1.14"/><path fill="none" stroke="#231f20" stroke-miterlimit="3.864" stroke-width="4.560086399999999" d="M417.842 287.268v647.686c24.33 6.671 51.415 10.263 82.215 10.263 29.672 0 56.131-3.661 79.724-10.217l.065-648.017c-24.387-.551-51.05-.855-80.016-.855-29.79 0-57.05.57-81.988 1.14z"/><path fill="#231f20" d="M795.96 283.845c9.123-11.402 9.053-35.348 9.053-35.348V80.873C764.24 72.8 676.642 56.928 501.14 56.928c-174.474 0-262.324 6.777-303.318 14.823l-.552 176.746s-.014 22.975 9.108 34.38c44.377-7.8 127.837-18.415 290.2-18.415 163.293 0 255.113 11.524 299.381 19.383"/><path fill="none" stroke="#231f20" stroke-miterlimit="3.864" stroke-width="4.560086399999999" d="M795.96 283.845c9.123-11.402 9.053-35.348 9.053-35.348V80.873C764.24 72.8 676.642 56.928 501.14 56.928c-174.474 0-262.324 6.777-303.318 14.823l-.552 176.746s-.014 22.975 9.108 34.38c44.377-7.8 127.837-18.415 290.2-18.415 163.293 0 255.113 11.524 299.381 19.383z"/><path fill="#deddde" d="m262.861 195.64-30.862.54.218 12.525c.525 30.061 7.29 38.713 43.365 38.085 28.26-.493 40.972-7.188 40.338-43.512-.677-38.83-4.733-41.475-40.374-50.458-9.864-2.336-12.298-3.963-12.465-13.567l-.175-10.02c-.125-7.097.412-10.865 9.23-11.02 8.418-.147 9.438.88 9.67 14.241l.129 7.307 29.66-.52-.316-18.16c-.37-21.086-10.133-29.269-38.993-28.764-31.666.55-42.026 4.282-41.41 39.562l.16 9.188c.47 26.93 5.593 33.314 31.56 39.333 17.512 4.08 19.728 4.67 19.91 15.106l.285 16.286c.112 6.468-2.249 9.016-9.665 9.147-9.82.171-9.892-4.005-10.075-14.444zM337.193 240.607l33.954-1.232-2.494-157.198-33.815 1.208z"/><path fill="#deddde" fill-rule="evenodd" d="m398.845 238.568-2.42-158.374 45.517-.797c39.52-.69 50.765 7.256 51.287 37.172l.333 19.136c.423 24.194-9.028 29.86-24.525 32.771 16.5 3.674 25.209 6.381 25.552 25.957l.263 42.927-17.088-.265-18.813.57-1.259-44.787c-.115-6.599-3.939-9.393-16.373-9.176l-6.217.111.471 53.852-18.815.57zm34.912-131.742.87 49.711 7.105-.125c13.098-.23 15.258-3.788 15.076-14.125l-.417-23.977c-.143-8.137-3.539-11.82-11.531-11.68z"/><path fill="#deddde" d="m519.954 237.928 33.07-.263V78.95l-33.07-.358zM666.34 87.187l-34.021-2.355-2.392 120.905c-.103 6.021-2.538 9.85-9.634 9.726-7.094-.123-9.396-4.036-9.287-10.055l1.952-122.088-35.988-1.877-1.643 122.267c-.604 34.616 15.878 39.208 44.476 39.708 28.597.497 43.861-3.005 44.465-37.626zM718.538 194.136l-30.827-1.616-.662 12.637c-1.589 30.324 4.553 39.514 40.585 41.403 28.218 1.478 41.376-4.379 43.296-41.019 2.05-39.171-1.806-42.12-36.73-53.663-9.675-3.04-11.991-4.852-11.482-14.538l.527-10.108c.38-7.161 1.176-10.92 9.982-10.458 8.408.44 9.355 1.546 8.647 15.023l-.386 7.372 29.626 1.55.961-18.32c1.114-21.271-8.053-30.196-36.874-31.708-31.631-1.657-42.227 1.377-44.09 36.966l-.485 9.268c-1.425 27.165 3.234 33.957 28.713 41.838 17.185 5.335 19.352 6.082 18.804 16.612l-.863 16.427c-.345 6.528-2.876 8.929-10.284 8.54-9.806-.514-9.586-4.724-9.033-15.255z"/><path fill="#deddde" fill-rule="evenodd" d="M640.13 386.037c0 14.904 6.463 18.303 22.795 18.303s22.798-3.399 22.798-18.303v-42.198c0-17.21-6.465-20.608-22.798-20.608-15.564 0-23.018 3.73-22.795 20.608zm18.192-46.253c0-2.742 1.314-3.619 4.603-3.619s4.604.768 4.604 2.96v48.665c0 2.739-1.316 3.618-4.604 3.618-3.29 0-4.603-.879-4.603-3.618z"/><path fill="#deddde" d="M695.928 337.702h22.36l-17.426 65.76h18.412l16.987-65.872v-13.482h-40.333zM253.753 346.03l9.755 9.535 11.728-17.863h.218v65.76h18.195v-79.354h-23.017z"/><path fill="#deddde" fill-rule="evenodd" d="M311.635 389.76c0 10.307 1.645 14.58 20.058 14.58 20.058 0 25.977-1.974 25.977-26.743v-37.376c0-14.14-5.7-16.99-23.127-16.99-21.922 0-23.565 3.947-23.565 27.84 0 15.126 1.206 20.607 16.55 20.607 6.576 0 8.878-1.643 11.289-5.7h.439v20.935c0 3.836-1.864 4.495-5.261 4.495-4.386 0-4.822-1.096-4.822-3.946v-7.894h-17.538zm17.538-49.868c0-2.959 1.095-3.727 5.151-3.727s5.151.768 5.151 3.727v15.347c0 3.067-1.863 4.164-5.15 4.164-4.166 0-5.152-1.208-5.152-4.386z"/><path fill="#fde012" d="m573.634 721.186-46.366 33.689 17.709 54.51L498.61 775.7l-46.369 33.686 17.712-54.51-46.37-33.687H480.9l17.711-54.508 17.714 54.508z"/><path fill="none" stroke="#fde012" stroke-miterlimit="3.864" stroke-width=".79294299" d="m573.634 721.186-46.366 33.689 17.709 54.51L498.61 775.7l-46.369 33.686 17.712-54.51-46.37-33.687H480.9l17.711-54.508 17.714 54.508z"/></svg>