<?xml version="1.0" encoding="UTF-8" standalone="no"?>
<svg
   xmlns:dc="http://purl.org/dc/elements/1.1/"
   xmlns:cc="http://creativecommons.org/ns#"
   xmlns:rdf="http://www.w3.org/1999/02/22-rdf-syntax-ns#"
   xmlns:svg="http://www.w3.org/2000/svg"
   xmlns="http://www.w3.org/2000/svg"
   xmlns:sodipodi="http://sodipodi.sourceforge.net/DTD/sodipodi-0.dtd"
   xmlns:inkscape="http://www.inkscape.org/namespaces/inkscape"
   version="1.1"
   id="Layer_1"
   x="0px"
   y="0px"
   viewBox="0 0 1000 1000"
   xml:space="preserve"
   sodipodi:docname="Amiens.svg"
   width="1000"
   height="1000"
   inkscape:version="1.0.1 (3bc2e813f5, 2020-09-07)"><metadata
   id="metadata175"><rdf:RDF><cc:Work
       rdf:about=""><dc:format>image/svg+xml</dc:format><dc:type
         rdf:resource="http://purl.org/dc/dcmitype/StillImage" /><dc:title></dc:title></cc:Work></rdf:RDF></metadata><defs
   id="defs173" /><sodipodi:namedview
   pagecolor="#ffffff"
   bordercolor="#666666"
   borderopacity="1"
   objecttolerance="10"
   gridtolerance="10"
   guidetolerance="10"
   inkscape:pageopacity="0"
   inkscape:pageshadow="2"
   inkscape:window-width="1920"
   inkscape:window-height="1017"
   id="namedview171"
   showgrid="false"
   inkscape:zoom="0.66125"
   inkscape:cx="583.40297"
   inkscape:cy="515.39871"
   inkscape:window-x="-8"
   inkscape:window-y="-8"
   inkscape:window-maximized="1"
   inkscape:current-layer="Layer_1" />


















































































<g
   id="g1084"
   transform="matrix(3.6355009,0,0,3.6355009,-1084.8094,-996.71153)"><g
     id="g4">
	<path
   d="m 435.79,537.701 37.362,-19.17 c 40.259,-0.857 65.642,-23.469 65.642,-23.469 28.615,-22.79 17.097,-66.139 17.097,-66.139 l 10.691,-8.57 c -19.767,-8.949 -6.164,-24.314 -6.164,-24.314 -30.55,-5.642 -21.663,-36.415 -21.663,-36.415 6.886,-28.459 23.901,-49.06 23.901,-49.06 L 553.198,298.1 c -40.215,10.061 -61.13,-14.312 -61.13,-14.312 h -20.041 c 0,0 -10.332,8.819 -36.237,8.94 -22.95,0.106 -36.909,-8.94 -36.909,-8.94 h -19.794 c 0,0 -20.807,24.172 -61.065,14.312 l -9.397,12.464 c 0,0 16.911,19.35 24.157,49.682 0,0 9.06,28.782 -21.469,35.794 0,0 14.76,11.161 -6.043,24.314 l 10.739,8.57 c 0,0 -11.475,46.682 17.448,66.753 0,0 25.499,23.019 65.762,23.672 l 36.571,18.352"
   id="path2" />
</g><path
     style="fill:#f1f1f2"
     d="m 435.244,295.259 c -22.145,0.351 -37.705,-8.705 -37.705,-8.705 h -18.102 c 0,0 -21.361,23.65 -60.083,14.511 l -7.046,9.401 c 0,0 18.054,23.013 24.07,51.331 0,0 6.259,27.563 -20.755,35.781 0,0 8.09,10.54 -2.749,20.186 H 435.243 V 295.259"
     id="path6" /><path
     style="fill:#f1f1f2"
     d="m 557.864,417.765 h -122.62 v 116.08 l 36.515,-17.95 c 37.904,-0.835 62.875,-21.707 62.875,-21.707 29.633,-22.343 17.708,-66.276 17.708,-66.276 l 9.777,-7.255 c -2.428,-1.053 -3.869,-2.433 -4.255,-2.892"
     id="path8" /><path
     style="fill:#949698"
     d="m 557.864,417.765 c -9.211,-8.679 -1.8,-20.186 -1.8,-20.186 -29.287,-7.168 -20.392,-38.495 -20.392,-38.495 6.298,-28.087 22.776,-48.357 22.776,-48.357 l -7.294,-9.466 c -39.41,8.549 -61.053,-14.706 -61.053,-14.706 h -17.794 c 0,0 -12.318,8.735 -36.805,8.705 -0.087,0 -0.173,0 -0.26,0 v 122.505 h 122.622"
     id="path10" /><path
     style="fill:#949698"
     d="m 312.875,417.765 c -0.996,0.886 -2.147,1.767 -3.484,2.628 l 9.579,7.518 c 0,0 -11.366,46.799 16.431,65.299 0,0 26.694,22.853 64.598,23.494 l 35.246,17.141 v -116.08 h -122.37"
     id="path12" /><path
     d="m 342.862,401.875 c -0.563,-0.603 -1.381,-0.541 -1.381,-0.541 l 0.255,-0.435 c 0,0 -1.549,-2.898 -1.718,-3.493 -0.143,-0.513 -0.368,-2.762 -0.368,-2.762 l 0.549,0.004 c 0,0 -0.056,-4.492 0.178,-4.978 0.554,-1.146 3.688,-0.677 3.688,-0.677 0,0 -0.813,4.38 0.874,7.477 1.692,3.104 4.147,9.901 4.147,9.901 0,0 -4.587,-2.76 -6.224,-4.496 z m 85.534,-44.343 c -3.319,-0.986 -3.913,-1.29 -10.38,-5.447 -6.466,-4.161 -6.583,-6.784 -9.838,-7.086 -3.251,-0.303 -7.67,1.494 -10.956,1.377 -3.281,-0.114 -7.795,-0.55 -7.795,-0.55 0,0 -2.346,-2.45 -4.896,-3.682 -2.545,-1.237 -5.48,-3.099 -5.48,-3.099 0,0 -2.129,-1.37 -2.935,-2.575 -0.813,-1.206 -2.363,-2.353 -2.363,-2.353 0,0 0.589,0.296 1.649,0.008 1.057,-0.287 1.238,-0.833 1.238,-0.833 l 8.215,6.887 c 0,0 -3.77,-5.261 -2.554,-5.406 0.653,-0.08 0.892,0.617 1.48,0.153 -1.692,1.34 4.021,1.77 4.03,1.907 -0.177,-2.251 1.775,-4.068 -1.883,-10.802 -3.662,-6.732 -5.367,-10.416 -5.367,-10.416 l 19.772,-14.799 -24.828,10.411 c 0,0 -2.688,-4.821 -4.16,-4.8 -1.467,0.021 -2.723,5.956 -2.723,5.956 0,0 -10.501,6.965 -11.033,16.595 -0.523,9.636 2.476,14.823 5.45,25.047 2.974,10.226 -6.653,24.211 -16.634,28.56 -9.977,4.348 -3.978,1.874 -7.414,2.694 -3.437,0.82 -6.601,3.324 -8.133,8.726 -1.532,5.404 -1.19,7.778 -1.19,7.778 l 1.458,-0.504 c 0,0 -0.26,3.803 0.238,6.88 0.502,3.075 3.276,6.276 3.276,6.276 l 0.212,-0.731 c 0,0 0.545,0.58 1.151,1.363 0.606,0.785 1.996,1.23 1.996,1.23 0,0 0.004,-0.576 0.056,-0.858 0.044,-0.283 0.571,0.972 2.97,1.987 2.402,1.015 3.778,1.549 3.778,1.549 l 4.268,6.367 c 0,0 5.25,7.112 4.441,10.341 -0.81,3.221 -1.125,4.025 -1.125,4.025 l 8.648,2.636 c 0,0 0.173,-1.605 -1.576,-4.332 -1.757,-2.728 -2.004,-2.866 -2.004,-2.866 0,0 -1.554,-4.519 -3.437,-6.982 -1.887,-2.458 -3.134,-7.691 -3.134,-7.691 0,0 3.472,-1.584 4.861,-0.563 1.32,0.97 4.186,-1.457 4.186,-1.457 0,0 3.727,0.199 4.532,2.556 0.801,2.364 3.701,2.026 1.735,0.026 -1.965,-1.986 -5.956,-7.821 -5.956,-7.821 l 0.065,-0.948 -3.117,-0.566 5.324,-5.58 c 0,0 6.852,4.036 7.852,8.554 0.996,4.51 -2.247,9.704 -2.779,12.397 -0.537,2.696 4.562,4.584 4.562,4.584 0,0 3.783,3.198 4.735,5.77 0.948,2.58 0.143,3.593 0.143,3.593 l 8.189,1.488 c 0,0 -0.269,-2.268 -2.424,-4.198 -2.16,-1.931 -4.674,-5.566 -4.674,-5.566 0,0 -5.013,-4.666 -4.602,-8.83 0.411,-4.164 7.982,-12.795 6.493,-14.896 -1.484,-2.102 -6.28,-10.293 -6.28,-10.293 0,0 -4.138,-6.624 -1.749,-10.521 2.385,-3.901 12.505,-1.867 17.634,-11.816 5.125,-9.951 5.194,-14.269 6.35,-16.277 1.156,-2.001 7.748,-6.386 9.216,-5.832 1.467,0.554 4.029,4.49 3.631,6.344 -0.397,1.853 -2.385,6.111 -5.389,7.104 -3.013,0.996 -5.51,2.272 -5.51,2.272 l 2.584,7.114 c 0,0 2.082,-0.39 3.298,-2.192 1.212,-1.801 -0.701,-2.439 3.411,-6.792 4.107,-4.357 7.102,-4.681 7.237,-6.099 0.147,-1.417 -1.139,-2.521 -2.705,-6.369 -1.567,-3.848 -0.823,-3.904 -0.823,-3.904 0,0 2.667,1.063 6.294,2.978 3.632,1.91 6.523,2.725 7.229,5.647 0.714,2.921 -0.714,3.239 -0.714,3.239 l 7.688,1.206 c 0.003,-10e-4 0.31,-6.303 -3.015,-7.293"
     id="path14" /><path
     style="fill:#d1d3d4"
     d="m 370.43,389.1 c 0,0 -0.437,5.988 2.727,10.704 3.164,4.716 4.107,6.232 4.683,9.419 0.571,3.188 -4.558,11.499 -4.887,14.61 -0.333,3.126 2.926,6.701 4.463,8.519 1.537,1.818 3.376,4.563 3.376,4.563 0,0 1.939,1.025 3.043,3.251 1.099,2.22 0.641,1.653 0.641,1.653 l -4.528,-0.918 c 0,0 -2.268,-5.709 -4.852,-7.813 -2.588,-2.112 -4.359,-3.584 -4.926,-5.714 -0.571,-2.121 2.082,-8.189 2.407,-12.366 0.32,-4.182 -9.553,-9.925 -9.553,-9.925 0,0 1.774,-1.311 2.796,-5.271 1.022,-3.954 0.749,-4.001 1.407,-6.289 0.649,-2.287 3.203,-4.423 3.203,-4.423"
     id="path16" /><path
     style="fill:none;stroke:#000000;stroke-width:1.1081"
     d="m 370.43,389.1 c 0,0 -0.437,5.988 2.727,10.704 3.164,4.716 4.107,6.232 4.683,9.419 0.571,3.188 -4.558,11.499 -4.887,14.61 -0.333,3.126 2.926,6.701 4.463,8.519 1.537,1.818 3.376,4.563 3.376,4.563 0,0 1.939,1.025 3.043,3.251 1.099,2.22 0.641,1.653 0.641,1.653 l -4.528,-0.918 c 0,0 -2.268,-5.709 -4.852,-7.813 -2.588,-2.112 -4.359,-3.584 -4.926,-5.714 -0.571,-2.121 2.082,-8.189 2.407,-12.366 0.32,-4.182 -9.553,-9.925 -9.553,-9.925 0,0 1.774,-1.311 2.796,-5.271 1.022,-3.954 0.749,-4.001 1.407,-6.289 0.649,-2.287 3.203,-4.423 3.203,-4.423 z"
     id="path18" /><path
     style="fill:#d1d3d4"
     d="m 379.866,316.259 c 0,0 3.779,5.83 7.09,11.249 3.943,6.436 3.584,5.896 3.779,8.627 -0.013,-0.164 -2.554,3.688 -2.554,3.688 0,0 -0.615,-1.513 -0.892,-1.707 -1.086,-0.79 -2.523,-2.424 -2.771,-2.216 -0.381,0.322 -0.168,-0.055 -0.667,0.118 -1.259,0.431 1.943,1.861 2.108,3.028 0.152,1.05 1.329,0.735 1.221,0.872 -0.498,0.645 -1.995,1.225 -1.995,1.225 l -1.559,-2.097 -5.216,-5.595 c 0,0 -1.978,0.214 -3.402,-0.091 -2.839,-0.612 -2.286,1.028 -2.286,1.028 0,0 0.888,-1.477 3.108,2.3 2.221,3.771 2.108,3.363 2.108,3.363 0,0 3.38,0.617 6.45,2.039 3.065,1.429 5.125,3.917 5.125,3.917 0,0 5.069,0.439 9.111,0.409 4.039,-0.037 6.969,-1.145 9.151,-0.457 2.181,0.688 10.327,6.883 15.274,9.136 4.947,2.246 4.814,2.513 5.986,4.839 1.178,2.338 0.29,3.813 0.29,3.813 l -5.12,-0.642 c 0,0 0.696,-4.673 -1.347,-5.735 -3.718,-1.929 -6.536,-3.21 -6.536,-3.21 l -5.887,-2.921 c 0,0 -0.017,-2.97 -3.696,-3.443 -2.744,-0.593 -4.935,-0.085 -8.276,0.151 -3.346,0.238 -8.596,-0.794 -8.596,-0.794 l 8.371,1.645 c 0,0 7.531,-0.532 9.73,-0.178 1.303,0.212 3.168,6.648 3.527,7.551 1.044,2.595 2.238,3.68 2.052,5.383 -0.19,1.696 -3.926,3.232 -5.449,4.686 -1.523,1.456 -3.493,5.047 -3.493,5.047 0,0 -0.723,1.602 -1.814,2.655 -1.684,1.628 -1.728,0.457 -1.728,0.457 l -1.783,-4.753 c 0,0 2.636,-0.868 5.112,-2.632 3.221,-2.305 3.844,-3.83 4.588,-6.679 0.745,-2.85 -3.982,-7.562 -3.982,-7.562 -1.008,-0.279 -7.232,3.549 -9.007,6.501 -0.883,1.472 -2.195,6.246 -4.333,10.572 -2.138,4.331 -2.086,6.408 -6.207,9.707 -4.121,3.294 -14.293,5.486 -16.786,6.67 -2.484,1.184 -3.718,10.877 -4.761,14.444 -1.047,3.564 -4.852,8.267 -7.839,10.804 -2.986,2.538 -5.285,7.033 -5.285,7.033 0,0 2.489,-2.892 3.354,-3.949 0.862,-1.065 3.177,-2.859 3.177,-2.859 l 2.926,0.63 -0.247,0.918 1.961,2.568 4.497,5.541 c 0,0 -0.476,2.895 -1.822,-0.619 -0.957,-2.495 -4.774,-3.857 -4.774,-3.857 0,0 -2.29,2.826 -3.952,2.268 -4.341,-1.465 -4.848,1.043 -4.848,1.043 0,0 0.325,3.048 1.671,5.982 1.35,2.943 1.948,2.671 2.679,4.341 0.731,1.676 1.931,4.394 1.931,4.394 0,0 1.433,1.9 2.532,4.125 1.104,2.221 0.844,2.653 0.844,2.653 l -7.839,-2.484 c 0,0 0.991,-2.13 1.195,-4.502 0.212,-2.371 -1.801,-5.722 -3.956,-10.444 -3.359,-4.652 -3.45,-5.25 -3.385,-7.836 0.061,-2.589 4.554,-6.488 4.796,-9.622 0.243,-3.134 -1.502,-4.801 -4.073,-9.216 -2.576,-4.415 -2.428,-9.202 -2.428,-9.202 0,0 -1.732,-0.607 -3.922,-0.137 -1.792,0.386 -1.173,5.47 -1.173,5.47 0,0 -0.875,-0.331 -0.866,0.227 0.039,3.089 0.671,4.84 0.671,4.84 l 1.446,1.805 -0.849,0.132 8.609,6.188 c 0,0 0.81,0.63 -0.074,2.105 -0.887,1.477 -1.874,3.032 -3.332,5.173 -1.45,2.145 -0.87,3.6 -0.87,3.6 l -6.583,-3.413 -0.39,0.694 -2.852,-2.406 -0.26,0.688 c 0,0 -0.788,-1.657 -2.493,-5.462 -0.939,-2.095 -0.697,-7.445 -0.697,-7.445 0,0 -0.662,0.626 -0.61,-0.203 0.121,-1.827 0.61,-5.38 2.281,-8.255 2.433,-4.179 4.311,-5.57 7.527,-6.717 3.216,-1.149 9.9,-3.303 15.479,-7.684 9.587,-8.079 11.895,-10.578 10.501,-21.389 -1.394,-10.814 -7.445,-17.567 -7.155,-28.358 0.294,-10.797 9.791,-16.361 9.791,-16.361 0,0 1.419,-4.328 2.177,-4.479 0.758,-0.151 5.735,6.919 5.735,6.919 l 21.27,-11.715 -18.514,14.065"
     id="path20" /><path
     style="fill:none;stroke:#000000;stroke-width:1.1081"
     d="m 379.866,316.259 c 0,0 3.779,5.83 7.09,11.249 3.943,6.436 3.584,5.896 3.779,8.627 -0.013,-0.164 -2.554,3.688 -2.554,3.688 0,0 -0.615,-1.513 -0.892,-1.707 -1.086,-0.79 -2.523,-2.424 -2.771,-2.216 -0.381,0.322 -0.168,-0.055 -0.667,0.118 -1.259,0.431 1.943,1.861 2.108,3.028 0.152,1.05 1.329,0.735 1.221,0.872 -0.498,0.645 -1.995,1.225 -1.995,1.225 l -1.559,-2.097 -5.216,-5.595 c 0,0 -1.978,0.214 -3.402,-0.091 -2.839,-0.612 -2.286,1.028 -2.286,1.028 0,0 0.888,-1.477 3.108,2.3 2.221,3.771 2.108,3.363 2.108,3.363 0,0 3.38,0.617 6.45,2.039 3.065,1.429 5.125,3.917 5.125,3.917 0,0 5.069,0.439 9.111,0.409 4.039,-0.037 6.969,-1.145 9.151,-0.457 2.181,0.688 10.327,6.883 15.274,9.136 4.947,2.246 4.814,2.513 5.986,4.839 1.178,2.338 0.29,3.813 0.29,3.813 l -5.12,-0.642 c 0,0 0.696,-4.673 -1.347,-5.735 -3.718,-1.929 -6.536,-3.21 -6.536,-3.21 l -5.887,-2.921 c 0,0 -0.017,-2.97 -3.696,-3.443 -2.744,-0.593 -4.935,-0.085 -8.276,0.151 -3.346,0.238 -8.596,-0.794 -8.596,-0.794 l 8.371,1.645 c 0,0 7.531,-0.532 9.73,-0.178 1.303,0.212 3.168,6.648 3.527,7.551 1.044,2.595 2.238,3.68 2.052,5.383 -0.19,1.696 -3.926,3.232 -5.449,4.686 -1.523,1.456 -3.493,5.047 -3.493,5.047 0,0 -0.723,1.602 -1.814,2.655 -1.684,1.628 -1.728,0.457 -1.728,0.457 l -1.783,-4.753 c 0,0 2.636,-0.868 5.112,-2.632 3.221,-2.305 3.844,-3.83 4.588,-6.679 0.745,-2.85 -3.982,-7.562 -3.982,-7.562 -1.008,-0.279 -7.232,3.549 -9.007,6.501 -0.883,1.472 -2.195,6.246 -4.333,10.572 -2.138,4.331 -2.086,6.408 -6.207,9.707 -4.121,3.294 -14.293,5.486 -16.786,6.67 -2.484,1.184 -3.718,10.877 -4.761,14.444 -1.047,3.564 -4.852,8.267 -7.839,10.804 -2.986,2.538 -5.285,7.033 -5.285,7.033 0,0 2.489,-2.892 3.354,-3.949 0.862,-1.065 3.177,-2.859 3.177,-2.859 l 2.926,0.63 -0.247,0.918 1.961,2.568 4.497,5.541 c 0,0 -0.476,2.895 -1.822,-0.619 -0.957,-2.495 -4.774,-3.857 -4.774,-3.857 0,0 -2.29,2.826 -3.952,2.268 -4.341,-1.465 -4.848,1.043 -4.848,1.043 0,0 0.325,3.048 1.671,5.982 1.35,2.943 1.948,2.671 2.679,4.341 0.731,1.676 1.931,4.394 1.931,4.394 0,0 1.433,1.9 2.532,4.125 1.104,2.221 0.844,2.653 0.844,2.653 l -7.839,-2.484 c 0,0 0.991,-2.13 1.195,-4.502 0.212,-2.371 -1.801,-5.722 -3.956,-10.444 -3.359,-4.652 -3.45,-5.25 -3.385,-7.836 0.061,-2.589 4.554,-6.488 4.796,-9.622 0.243,-3.134 -1.502,-4.801 -4.073,-9.216 -2.576,-4.415 -2.428,-9.202 -2.428,-9.202 0,0 -1.732,-0.607 -3.922,-0.137 -1.792,0.386 -1.173,5.47 -1.173,5.47 0,0 -0.875,-0.331 -0.866,0.227 0.039,3.089 0.671,4.84 0.671,4.84 l 1.446,1.805 -0.849,0.132 8.609,6.188 c 0,0 0.81,0.63 -0.074,2.105 -0.887,1.477 -1.874,3.032 -3.332,5.173 -1.45,2.145 -0.87,3.6 -0.87,3.6 l -6.583,-3.413 -0.39,0.694 -2.852,-2.406 -0.26,0.688 c 0,0 -0.788,-1.657 -2.493,-5.462 -0.939,-2.095 -0.697,-7.445 -0.697,-7.445 0,0 -0.662,0.626 -0.61,-0.203 0.121,-1.827 0.61,-5.38 2.281,-8.255 2.433,-4.179 4.311,-5.57 7.527,-6.717 3.216,-1.149 9.9,-3.303 15.479,-7.684 9.587,-8.079 11.895,-10.578 10.501,-21.389 -1.394,-10.814 -7.445,-17.567 -7.155,-28.358 0.294,-10.797 9.791,-16.361 9.791,-16.361 0,0 1.419,-4.328 2.177,-4.479 0.758,-0.151 5.735,6.919 5.735,6.919 l 21.27,-11.715 z"
     id="path22" /><path
     d="m 375.607,319.592 0.571,-0.535 c 0,0 1.554,-0.182 2.563,1.117 1.009,1.299 1.121,4.065 1.121,4.065 0,0 -0.896,-1.769 -1.718,-3.151 -0.827,-1.384 -2.537,-1.496 -2.537,-1.496"
     id="path24" /><path
     style="fill:none;stroke:#000000;stroke-width:1.1081"
     d="m 375.607,319.592 0.571,-0.535 c 0,0 1.554,-0.182 2.563,1.117 1.009,1.299 1.121,4.065 1.121,4.065 0,0 -0.896,-1.769 -1.718,-3.151 -0.827,-1.384 -2.537,-1.496 -2.537,-1.496 z"
     id="path26" /><path
     d="m 439.3,364.832 7.688,-1.205 c 0,0 -1.429,-0.314 -0.719,-3.24 0.71,-2.919 3.602,-3.735 7.233,-5.647 3.623,-1.91 6.293,-2.974 6.293,-2.974 0,0 0.745,0.059 -0.826,3.904 -1.563,3.849 -2.849,4.952 -2.706,6.365 0.144,1.42 3.13,1.742 7.242,6.099 4.107,4.356 2.198,4.991 3.41,6.796 1.217,1.799 3.294,2.194 3.294,2.194 l 2.589,-7.12 c 0,0 -2.502,-1.277 -5.51,-2.269 -3.009,-0.993 -4.995,-5.252 -5.39,-7.109 -0.397,-1.853 2.165,-5.784 3.632,-6.343 1.468,-0.555 8.06,3.835 9.216,5.837 1.155,2.004 1.225,6.326 6.35,16.273 5.125,9.949 15.249,7.915 17.634,11.816 2.385,3.9 -1.753,10.527 -1.753,10.527 0,0 -4.792,8.19 -6.28,10.286 -1.485,2.102 6.081,10.741 6.492,14.9 0.416,4.16 -4.597,8.83 -4.597,8.83 0,0 -2.515,3.632 -4.675,5.566 -2.155,1.936 -2.424,4.199 -2.424,4.199 l 8.189,-1.493 c 0,0 -0.806,-1.005 0.143,-3.584 0.948,-2.58 4.735,-5.774 4.735,-5.774 0,0 5.095,-1.892 4.558,-4.588 -0.532,-2.692 -3.774,-7.878 -2.774,-12.397 1,-4.512 7.852,-8.553 7.852,-8.553 l 5.324,5.579 -3.116,0.567 0.061,0.952 c 0,0 -3.986,5.831 -5.951,7.826 -1.966,1.991 0.935,2.328 1.735,-0.026 0.805,-2.365 4.532,-2.56 4.532,-2.56 0,0 2.865,2.421 4.185,1.452 1.389,-1.021 4.857,0.563 4.857,0.563 0,0 -1.247,5.232 -3.13,7.695 -1.887,2.459 -3.437,6.977 -3.437,6.977 0,0 -0.251,0.144 -2,2.866 -1.753,2.727 -1.58,4.332 -1.58,4.332 l 8.645,-2.627 c 0,0 -0.316,-0.813 -1.121,-4.034 -0.81,-3.221 4.437,-10.341 4.437,-10.341 l 4.273,-6.358 c 0,0 1.376,-0.543 3.773,-1.559 2.402,-1.011 2.931,-2.264 2.975,-1.986 0.052,0.285 0.052,0.861 0.052,0.861 0,0 1.394,-0.448 1.995,-1.233 0.61,-0.779 1.155,-1.359 1.155,-1.359 l 0.213,0.731 c 0,0 2.769,-3.205 3.276,-6.28 0.498,-3.078 0.238,-6.88 0.238,-6.88 l 1.458,0.506 c 0,0 0.343,-2.372 -1.194,-7.775 -1.532,-5.402 -4.696,-7.906 -8.133,-8.727 -3.433,-0.82 2.566,1.649 -7.415,-2.699 -9.977,-4.343 -19.604,-18.333 -16.63,-28.557 2.974,-10.226 5.974,-15.413 5.445,-25.044 -0.528,-9.631 -11.029,-16.596 -11.029,-16.596 0,0 -1.255,-5.939 -2.727,-5.956 -1.472,-0.021 -4.155,4.801 -4.155,4.801 l -24.832,-10.412 19.772,14.797 c 0,0 -1.706,3.685 -5.363,10.418 -3.662,6.733 -1.705,8.551 -1.887,10.798 0.013,-0.137 5.727,-0.567 4.033,-1.9 0.585,0.461 0.827,-0.236 1.48,-0.156 1.217,0.146 -2.554,5.404 -2.554,5.404 l 8.216,-6.884 c 0,0 0.182,0.541 1.237,0.833 1.057,0.288 1.649,-0.014 1.649,-0.014 0,0 -1.55,1.151 -2.363,2.357 -0.81,1.205 -2.935,2.575 -2.935,2.575 0,0 -2.939,1.861 -5.48,3.095 -2.55,1.236 -4.9,3.684 -4.9,3.684 0,0 -4.51,0.433 -7.795,0.55 -3.281,0.119 -7.705,-1.682 -10.951,-1.374 -3.255,0.301 -3.376,2.919 -9.843,7.081 -6.467,4.164 -7.056,4.465 -10.38,5.454 -3.319,0.989 -3.011,7.287 -3.011,7.287 z m 82.327,41.554 c 0,0 2.454,-6.803 4.142,-9.901 1.688,-3.098 0.878,-7.478 0.878,-7.478 0,0 3.13,-0.474 3.688,0.68 0.229,0.479 0.178,4.971 0.178,4.971 l 0.549,-0.004 c 0,0 -0.221,2.248 -0.367,2.766 -0.174,0.591 -1.723,3.489 -1.723,3.489 l 0.26,0.435 c 0,0 -0.818,-0.059 -1.381,0.541 -1.636,1.739 -6.224,4.501 -6.224,4.501"
     id="path28" /><path
     style="fill:#d1d3d4"
     d="m 500.283,389.108 c 0,0 0.438,5.988 -2.731,10.704 -3.164,4.716 -4.103,6.237 -4.679,9.423 -0.575,3.184 4.558,11.494 4.887,14.615 0.329,3.116 -2.931,6.691 -4.467,8.514 -1.532,1.814 -3.372,4.559 -3.372,4.559 0,0 -1.943,1.03 -3.043,3.25 -1.095,2.225 -0.641,1.658 -0.641,1.658 l 4.528,-0.918 c 0,0 2.264,-5.709 4.852,-7.813 2.584,-2.108 4.359,-3.588 4.931,-5.714 0.563,-2.125 -2.091,-8.193 -2.416,-12.37 -0.315,-4.175 9.558,-9.921 9.558,-9.921 0,0 -1.774,-1.316 -2.796,-5.271 -1.018,-3.953 -0.754,-4.001 -1.407,-6.293 -0.65,-2.287 -3.204,-4.423 -3.204,-4.423"
     id="path30" /><path
     style="fill:none;stroke:#000000;stroke-width:1.1081"
     d="m 500.283,389.108 c 0,0 0.438,5.988 -2.731,10.704 -3.164,4.716 -4.103,6.237 -4.679,9.423 -0.575,3.184 4.558,11.494 4.887,14.615 0.329,3.116 -2.931,6.691 -4.467,8.514 -1.532,1.814 -3.372,4.559 -3.372,4.559 0,0 -1.943,1.03 -3.043,3.25 -1.095,2.225 -0.641,1.658 -0.641,1.658 l 4.528,-0.918 c 0,0 2.264,-5.709 4.852,-7.813 2.584,-2.108 4.359,-3.588 4.931,-5.714 0.563,-2.125 -2.091,-8.193 -2.416,-12.37 -0.315,-4.175 9.558,-9.921 9.558,-9.921 0,0 -1.774,-1.316 -2.796,-5.271 -1.018,-3.953 -0.754,-4.001 -1.407,-6.293 -0.65,-2.287 -3.204,-4.423 -3.204,-4.423 z"
     id="path32" /><path
     style="fill:#d1d3d4"
     d="m 490.843,316.272 c 0,0 -3.77,5.826 -7.09,11.25 -3.938,6.436 -3.774,8.622 -3.774,8.622 l 2.554,3.692 c 0,0 0.61,-1.513 0.888,-1.712 1.091,-0.79 2.527,-2.424 2.774,-2.212 0.377,0.324 0.169,-0.059 0.662,0.114 1.264,0.436 -1.939,1.868 -2.103,3.032 -0.151,1.052 -1.329,0.731 -1.225,0.874 0.502,0.639 1.999,1.224 1.999,1.224 l 1.555,-2.098 5.216,-5.592 c 0,0 1.982,0.212 3.406,-0.098 2.835,-0.612 2.281,1.032 2.281,1.032 0,0 -0.779,-1.404 -3.108,2.296 -1.969,3.125 -2.104,3.368 -2.104,3.368 0,0 -3.381,0.616 -6.449,2.038 -3.064,1.424 -5.129,3.92 -5.129,3.92 0,0 -5.064,0.437 -9.107,0.402 -4.038,-0.035 -6.969,-1.139 -9.15,-0.452 -2.182,0.684 -10.327,6.884 -15.279,9.131 -4.947,2.246 -4.809,2.513 -5.981,4.846 -1.178,2.331 -0.29,3.807 -0.29,3.807 l 5.12,-0.642 c 0,0 -0.701,-4.673 1.346,-5.732 3.714,-1.928 6.532,-3.209 6.532,-3.209 l 5.891,-2.922 c 0,0 0.018,-2.97 3.696,-3.443 2.745,-0.598 4.935,-0.089 8.276,0.151 3.342,0.234 8.592,-0.799 8.592,-0.799 l -8.366,1.649 c 0,0 -7.536,-0.536 -9.735,-0.178 -1.298,0.213 -3.164,6.645 -3.527,7.549 -1.039,2.598 -2.233,3.682 -2.048,5.381 0.19,1.696 3.927,3.235 5.45,4.69 1.523,1.459 3.493,5.047 3.493,5.047 0,0 0.723,1.602 1.814,2.656 1.679,1.623 1.723,0.456 1.723,0.456 l 1.787,-4.755 c 0,0 -2.636,-0.865 -5.111,-2.634 -3.225,-2.301 -3.844,-3.828 -4.588,-6.675 -0.745,-2.85 3.981,-7.562 3.981,-7.562 1.005,-0.279 7.233,3.545 9.008,6.497 0.879,1.477 2.194,6.246 4.328,10.577 2.139,4.33 2.091,6.408 6.212,9.702 4.12,3.298 14.292,5.49 16.781,6.674 2.488,1.184 3.723,10.878 4.766,14.44 1.047,3.569 4.852,8.268 7.834,10.809 2.986,2.539 5.285,7.029 5.285,7.029 0,0 -2.488,-2.887 -3.354,-3.949 -0.861,-1.059 -3.177,-2.855 -3.177,-2.855 l -2.922,0.63 0.247,0.918 -1.966,2.571 -4.492,5.534 c 0,0 0.476,2.899 1.817,-0.619 0.961,-2.491 4.774,-3.853 4.774,-3.853 0,0 2.294,2.831 3.956,2.268 4.342,-1.465 4.848,1.044 4.848,1.044 0,0 -0.324,3.043 -1.671,5.986 -1.35,2.943 -1.947,2.661 -2.684,4.337 -0.731,1.675 -1.93,4.398 -1.93,4.398 0,0 -1.429,1.895 -2.532,4.116 -1.1,2.221 -0.845,2.662 -0.845,2.662 l 7.844,-2.489 c 0,0 -0.991,-2.134 -1.199,-4.506 -0.208,-2.363 1.805,-5.713 3.961,-10.44 3.358,-4.658 3.445,-5.246 3.385,-7.837 -0.06,-2.589 -4.554,-6.493 -4.801,-9.622 -0.238,-3.134 1.507,-4.801 4.082,-9.216 2.566,-4.419 2.424,-9.204 2.424,-9.204 0,0 1.732,-0.603 3.917,-0.134 1.792,0.381 1.178,5.464 1.178,5.464 0,0 0.87,-0.326 0.865,0.232 -0.043,3.084 -0.671,4.835 -0.671,4.835 l -1.441,1.805 0.845,0.136 -8.609,6.188 c 0,0 -0.814,0.63 0.073,2.106 0.888,1.476 1.874,3.027 3.328,5.172 1.455,2.141 0.87,3.595 0.87,3.595 l 6.588,-3.412 0.39,0.698 2.853,-2.41 0.26,0.692 c 0,0 0.788,-1.658 2.493,-5.461 0.936,-2.097 0.692,-7.446 0.692,-7.446 0,0 0.667,0.625 0.61,-0.208 -0.121,-1.822 -0.61,-5.376 -2.281,-8.255 -2.428,-4.175 -4.311,-5.566 -7.523,-6.713 -3.221,-1.149 -9.899,-3.307 -15.482,-7.684 -9.584,-8.078 -11.891,-10.578 -10.497,-21.393 1.394,-10.811 7.441,-17.561 7.15,-28.358 -0.289,-10.797 -9.786,-16.361 -9.786,-16.361 0,0 -1.42,-4.324 -2.177,-4.476 -0.758,-0.151 -5.735,6.915 -5.735,6.915 l -21.274,-11.711 18.513,14.07"
     id="path34" /><path
     style="fill:none;stroke:#000000;stroke-width:1.1081"
     d="m 490.843,316.272 c 0,0 -3.77,5.826 -7.09,11.25 -3.938,6.436 -3.774,8.622 -3.774,8.622 l 2.554,3.692 c 0,0 0.61,-1.513 0.888,-1.712 1.091,-0.79 2.527,-2.424 2.774,-2.212 0.377,0.324 0.169,-0.059 0.662,0.114 1.264,0.436 -1.939,1.868 -2.103,3.032 -0.151,1.052 -1.329,0.731 -1.225,0.874 0.502,0.639 1.999,1.224 1.999,1.224 l 1.555,-2.098 5.216,-5.592 c 0,0 1.982,0.212 3.406,-0.098 2.835,-0.612 2.281,1.032 2.281,1.032 0,0 -0.779,-1.404 -3.108,2.296 -1.969,3.125 -2.104,3.368 -2.104,3.368 0,0 -3.381,0.616 -6.449,2.038 -3.064,1.424 -5.129,3.92 -5.129,3.92 0,0 -5.064,0.437 -9.107,0.402 -4.038,-0.035 -6.969,-1.139 -9.15,-0.452 -2.182,0.684 -10.327,6.884 -15.279,9.131 -4.947,2.246 -4.809,2.513 -5.981,4.846 -1.178,2.331 -0.29,3.807 -0.29,3.807 l 5.12,-0.642 c 0,0 -0.701,-4.673 1.346,-5.732 3.714,-1.928 6.532,-3.209 6.532,-3.209 l 5.891,-2.922 c 0,0 0.018,-2.97 3.696,-3.443 2.745,-0.598 4.935,-0.089 8.276,0.151 3.342,0.234 8.592,-0.799 8.592,-0.799 l -8.366,1.649 c 0,0 -7.536,-0.536 -9.735,-0.178 -1.298,0.213 -3.164,6.645 -3.527,7.549 -1.039,2.598 -2.233,3.682 -2.048,5.381 0.19,1.696 3.927,3.235 5.45,4.69 1.523,1.459 3.493,5.047 3.493,5.047 0,0 0.723,1.602 1.814,2.656 1.679,1.623 1.723,0.456 1.723,0.456 l 1.787,-4.755 c 0,0 -2.636,-0.865 -5.111,-2.634 -3.225,-2.301 -3.844,-3.828 -4.588,-6.675 -0.745,-2.85 3.981,-7.562 3.981,-7.562 1.005,-0.279 7.233,3.545 9.008,6.497 0.879,1.477 2.194,6.246 4.328,10.577 2.139,4.33 2.091,6.408 6.212,9.702 4.12,3.298 14.292,5.49 16.781,6.674 2.488,1.184 3.723,10.878 4.766,14.44 1.047,3.569 4.852,8.268 7.834,10.809 2.986,2.539 5.285,7.029 5.285,7.029 0,0 -2.488,-2.887 -3.354,-3.949 -0.861,-1.059 -3.177,-2.855 -3.177,-2.855 l -2.922,0.63 0.247,0.918 -1.966,2.571 -4.492,5.534 c 0,0 0.476,2.899 1.817,-0.619 0.961,-2.491 4.774,-3.853 4.774,-3.853 0,0 2.294,2.831 3.956,2.268 4.342,-1.465 4.848,1.044 4.848,1.044 0,0 -0.324,3.043 -1.671,5.986 -1.35,2.943 -1.947,2.661 -2.684,4.337 -0.731,1.675 -1.93,4.398 -1.93,4.398 0,0 -1.429,1.895 -2.532,4.116 -1.1,2.221 -0.845,2.662 -0.845,2.662 l 7.844,-2.489 c 0,0 -0.991,-2.134 -1.199,-4.506 -0.208,-2.363 1.805,-5.713 3.961,-10.44 3.358,-4.658 3.445,-5.246 3.385,-7.837 -0.06,-2.589 -4.554,-6.493 -4.801,-9.622 -0.238,-3.134 1.507,-4.801 4.082,-9.216 2.566,-4.419 2.424,-9.204 2.424,-9.204 0,0 1.732,-0.603 3.917,-0.134 1.792,0.381 1.178,5.464 1.178,5.464 0,0 0.87,-0.326 0.865,0.232 -0.043,3.084 -0.671,4.835 -0.671,4.835 l -1.441,1.805 0.845,0.136 -8.609,6.188 c 0,0 -0.814,0.63 0.073,2.106 0.888,1.476 1.874,3.027 3.328,5.172 1.455,2.141 0.87,3.595 0.87,3.595 l 6.588,-3.412 0.39,0.698 2.853,-2.41 0.26,0.692 c 0,0 0.788,-1.658 2.493,-5.461 0.936,-2.097 0.692,-7.446 0.692,-7.446 0,0 0.667,0.625 0.61,-0.208 -0.121,-1.822 -0.61,-5.376 -2.281,-8.255 -2.428,-4.175 -4.311,-5.566 -7.523,-6.713 -3.221,-1.149 -9.899,-3.307 -15.482,-7.684 -9.584,-8.078 -11.891,-10.578 -10.497,-21.393 1.394,-10.811 7.441,-17.561 7.15,-28.358 -0.289,-10.797 -9.786,-16.361 -9.786,-16.361 0,0 -1.42,-4.324 -2.177,-4.476 -0.758,-0.151 -5.735,6.915 -5.735,6.915 L 472.33,302.202 Z"
     id="path36" /><path
     d="m 495.106,319.601 -0.575,-0.53 c 0,0 -1.546,-0.186 -2.563,1.116 -1.005,1.299 -1.121,4.065 -1.121,4.065 0,0 0.896,-1.768 1.718,-3.155 0.828,-1.384 2.541,-1.496 2.541,-1.496"
     id="path38" /><path
     style="fill:none;stroke:#000000;stroke-width:1.1081"
     d="m 495.106,319.601 -0.575,-0.53 c 0,0 -1.546,-0.186 -2.563,1.116 -1.005,1.299 -1.121,4.065 -1.121,4.065 0,0 0.896,-1.768 1.718,-3.155 0.828,-1.384 2.541,-1.496 2.541,-1.496 z"
     id="path40" /><path
     style="fill:#007ac1"
     d="m 482.61,442.771 c -2.445,2.428 -4.688,4.241 -6.735,5.44 -3.558,2.121 -7.453,3.182 -11.678,3.182 -2.333,0 -4.502,-0.381 -6.51,-1.108 -3.025,-1.095 -5.684,-2.99 -7.978,-5.73 -0.217,-0.264 -0.402,-0.541 -0.607,-0.81 -3.393,-4.472 -5.111,-10.289 -5.111,-17.504 0,-0.117 0.009,-0.226 0.009,-0.347 l -0.135,-7.773 c 0.256,0.162 0.489,0.326 0.74,0.491 0.801,-4.779 2.398,-8.776 4.826,-11.951 1.299,-1.696 2.735,-3.079 4.299,-4.17 -0.563,-1.591 -1.19,-3.041 -1.888,-4.357 -3.714,1.48 -6.99,3.777 -9.804,6.936 -5.025,5.666 -7.531,12.663 -7.531,21.006 0,0.078 0.004,0.156 0.004,0.238 l -1.203,-0.783 0.523,2.381 c 0.29,0.701 0.347,2.354 0.84,3.778 0.498,1.433 0.84,2.9 0.84,3.151 0,0.139 0.043,0.203 0.103,0.221 1.139,4.298 3.143,8.094 6.025,11.393 1.692,1.931 3.597,3.515 5.675,4.813 2.233,1.395 4.691,2.416 7.367,3.082 2.436,0.602 5.033,0.936 7.843,0.936 5.342,0 10.289,-1.532 14.864,-4.602 2.684,-1.814 4.93,-3.917 6.734,-6.319 l -1.512,-1.594"
     id="path42" /><path
     style="fill:none;stroke:#000000;stroke-width:1.1081"
     d="m 482.61,442.771 c -2.445,2.428 -4.688,4.241 -6.735,5.44 -3.558,2.121 -7.453,3.182 -11.678,3.182 -2.333,0 -4.502,-0.381 -6.51,-1.108 -3.025,-1.095 -5.684,-2.99 -7.978,-5.73 -0.217,-0.264 -0.402,-0.541 -0.607,-0.81 -3.393,-4.472 -5.111,-10.289 -5.111,-17.504 0,-0.117 0.009,-0.226 0.009,-0.347 l -0.135,-7.773 c 0.256,0.162 0.489,0.326 0.74,0.491 0.801,-4.779 2.398,-8.776 4.826,-11.951 1.299,-1.696 2.735,-3.079 4.299,-4.17 -0.563,-1.591 -1.19,-3.041 -1.888,-4.357 -3.714,1.48 -6.99,3.777 -9.804,6.936 -5.025,5.666 -7.531,12.663 -7.531,21.006 0,0.078 0.004,0.156 0.004,0.238 l -1.203,-0.783 0.523,2.381 c 0.29,0.701 0.347,2.354 0.84,3.778 0.498,1.433 0.84,2.9 0.84,3.151 0,0.139 0.043,0.203 0.103,0.221 1.139,4.298 3.143,8.094 6.025,11.393 1.692,1.931 3.597,3.515 5.675,4.813 2.233,1.395 4.691,2.416 7.367,3.082 2.436,0.602 5.033,0.936 7.843,0.936 5.342,0 10.289,-1.532 14.864,-4.602 2.684,-1.814 4.93,-3.917 6.734,-6.319 z"
     id="path44" /><path
     style="fill:#007ac1"
     d="m 463.444,399.547 c 5.652,0 10.158,2.203 13.509,6.609 1.753,2.344 3.173,5.43 4.264,9.25 h 1.874 l -0.758,-19.249 h -1.714 c -0.268,0.948 -0.744,1.643 -1.436,2.091 -0.693,0.448 -1.42,0.671 -2.19,0.671 -0.372,0 -2.112,-0.463 -5.221,-1.385 -3.107,-0.918 -6.142,-1.377 -9.089,-1.377 -2.104,0 -4.108,0.182 -6.017,0.55 l 0.394,4.011 c 1.96,-0.771 4.082,-1.171 6.384,-1.171"
     id="path46" /><path
     style="fill:none;stroke:#000000;stroke-width:1.1081"
     d="m 463.444,399.547 c 5.652,0 10.158,2.203 13.509,6.609 1.753,2.344 3.173,5.43 4.264,9.25 h 1.874 l -0.758,-19.249 h -1.714 c -0.268,0.948 -0.744,1.643 -1.436,2.091 -0.693,0.448 -1.42,0.671 -2.19,0.671 -0.372,0 -2.112,-0.463 -5.221,-1.385 -3.107,-0.918 -6.142,-1.377 -9.089,-1.377 -2.104,0 -4.108,0.182 -6.017,0.55 l 0.394,4.011 c 1.96,-0.771 4.082,-1.171 6.384,-1.171 z"
     id="path48" /><path
     style="fill:#007ac1"
     d="m 428.596,389.074 -2.134,-5.105 -5.419,-12.957 h -1.913 l -20.422,50.463 c -3.064,7.57 -5.22,12.201 -6.48,13.911 -1.264,1.71 -3.151,2.71 -5.67,3.018 v 1.853 h 19.417 v -1.853 c -2.294,-0.208 -3.857,-0.507 -4.688,-0.909 -1.338,-0.667 -2.009,-1.87 -2.009,-3.614 0,-0.87 0.251,-2.048 0.74,-3.541 0.498,-1.489 2.017,-5.597 4.57,-12.327 h 17.63 c -1.324,-1.076 -2.484,-2.153 -3.436,-3.24 -0.264,-0.305 -0.493,-0.621 -0.731,-0.931 h -11.743 l 11.193,-28.318 1.472,3.675 4.727,11.816 c 0,0 1.701,3.066 2.68,4.272 1.701,2.118 4.337,4.335 7.921,6.64 l 5.289,3.428 -10.994,-26.281"
     id="path50" /><path
     style="fill:none;stroke:#000000;stroke-width:1.1081"
     d="m 428.596,389.074 -2.134,-5.105 -5.419,-12.957 h -1.913 l -20.422,50.463 c -3.064,7.57 -5.22,12.201 -6.48,13.911 -1.264,1.71 -3.151,2.71 -5.67,3.018 v 1.853 h 19.417 v -1.853 c -2.294,-0.208 -3.857,-0.507 -4.688,-0.909 -1.338,-0.667 -2.009,-1.87 -2.009,-3.614 0,-0.87 0.251,-2.048 0.74,-3.541 0.498,-1.489 2.017,-5.597 4.57,-12.327 h 17.63 c -1.324,-1.076 -2.484,-2.153 -3.436,-3.24 -0.264,-0.305 -0.493,-0.621 -0.731,-0.931 h -11.743 l 11.193,-28.318 1.472,3.675 4.727,11.816 c 0,0 1.701,3.066 2.68,4.272 1.701,2.118 4.337,4.335 7.921,6.64 l 5.289,3.428 z"
     id="path52" /><path
     style="fill:#d1d3d4"
     d="m 456.51,428.776 c -2.342,-3.099 -6.319,-6.484 -11.903,-10.165 -0.251,-0.165 -5.017,-3.258 -5.017,-3.258 l -5.289,-3.428 c -3.584,-2.305 -6.038,-4.679 -7.921,-6.64 -1.087,-1.134 -2.68,-4.272 -2.68,-4.272 l -4.727,-11.816 c -3.194,3.701 -4.813,8.241 -4.813,13.635 0,3.984 1.308,7.654 3.892,11.009 0.238,0.31 0.468,0.626 0.731,0.931 0.952,1.087 2.112,2.164 3.436,3.24 0.991,0.801 2.064,1.602 3.26,2.394 l 7.83,5.125 1.467,0.956 c 5.346,3.498 8.856,6.121 10.522,7.865 1.637,1.771 2.74,3.739 3.324,5.904 0.304,1.107 0.455,2.276 0.48,3.488 0.204,0.269 0.39,0.546 0.607,0.81 2.294,2.74 4.952,4.636 7.978,5.73 1.618,-2.93 2.436,-6.229 2.436,-9.903 0.001,-4.463 -1.202,-8.332 -3.613,-11.605"
     id="path54" /><path
     style="fill:none;stroke:#000000;stroke-width:1.1081"
     d="m 456.51,428.776 c -2.342,-3.099 -6.319,-6.484 -11.903,-10.165 -0.251,-0.165 -5.017,-3.258 -5.017,-3.258 l -5.289,-3.428 c -3.584,-2.305 -6.038,-4.679 -7.921,-6.64 -1.087,-1.134 -2.68,-4.272 -2.68,-4.272 l -4.727,-11.816 c -3.194,3.701 -4.813,8.241 -4.813,13.635 0,3.984 1.308,7.654 3.892,11.009 0.238,0.31 0.468,0.626 0.731,0.931 0.952,1.087 2.112,2.164 3.436,3.24 0.991,0.801 2.064,1.602 3.26,2.394 l 7.83,5.125 1.467,0.956 c 5.346,3.498 8.856,6.121 10.522,7.865 1.637,1.771 2.74,3.739 3.324,5.904 0.304,1.107 0.455,2.276 0.48,3.488 0.204,0.269 0.39,0.546 0.607,0.81 2.294,2.74 4.952,4.636 7.978,5.73 1.618,-2.93 2.436,-6.229 2.436,-9.903 0.001,-4.463 -1.202,-8.332 -3.613,-11.605 z"
     id="path56" /><path
     style="fill:#d1d3d4"
     d="m 445.325,453.717 c -2.532,2.308 -5.532,3.459 -9.008,3.459 -6.414,0 -11.777,-2.658 -16.097,-7.978 -2.485,-3.048 -4.645,-7.143 -6.489,-12.275 h -2.493 l 3.238,24.325 h 2.393 c 0.139,-0.934 0.433,-1.8 0.874,-2.623 0.446,-0.822 1.303,-1.228 2.58,-1.228 0.532,0 2.627,0.671 6.293,2.008 3.671,1.342 7.186,2.009 10.549,2.009 6.7,0 12.197,-2.009 16.504,-6.025 0.359,-0.338 0.68,-0.688 1.014,-1.039 -2.676,-0.666 -5.134,-1.688 -7.367,-3.082 -0.546,0.899 -1.199,1.721 -1.991,2.449"
     id="path58" /><path
     style="fill:none;stroke:#000000;stroke-width:1.1081"
     d="m 445.325,453.717 c -2.532,2.308 -5.532,3.459 -9.008,3.459 -6.414,0 -11.777,-2.658 -16.097,-7.978 -2.485,-3.048 -4.645,-7.143 -6.489,-12.275 h -2.493 l 3.238,24.325 h 2.393 c 0.139,-0.934 0.433,-1.8 0.874,-2.623 0.446,-0.822 1.303,-1.228 2.58,-1.228 0.532,0 2.627,0.671 6.293,2.008 3.671,1.342 7.186,2.009 10.549,2.009 6.7,0 12.197,-2.009 16.504,-6.025 0.359,-0.338 0.68,-0.688 1.014,-1.039 -2.676,-0.666 -5.134,-1.688 -7.367,-3.082 -0.546,0.899 -1.199,1.721 -1.991,2.449 z"
     id="path60" /><path
     style="fill:#d1d3d4"
     d="m 434.936,387.318 c 3.827,0 7.696,1.45 11.609,4.352 2.069,1.534 3.826,3.701 5.298,6.462 0.697,1.316 1.324,2.767 1.888,4.357 0.502,1.404 0.952,2.904 1.342,4.525 h 2.605 l -0.619,-6.298 -0.394,-4.011 -1.381,-14.016 h -2.229 c -0.281,1.223 -0.68,2.171 -1.194,2.84 -0.516,0.671 -1.446,1.008 -2.788,1.008 -0.497,0 -2.493,-0.645 -5.981,-1.924 -3.489,-1.285 -6.476,-1.924 -8.951,-1.924 -2.822,0 -5.376,0.433 -7.679,1.277 l 2.134,5.105 c 1.879,-1.151 3.986,-1.753 6.34,-1.753"
     id="path62" /><path
     style="fill:none;stroke:#000000;stroke-width:1.1081"
     d="m 434.936,387.318 c 3.827,0 7.696,1.45 11.609,4.352 2.069,1.534 3.826,3.701 5.298,6.462 0.697,1.316 1.324,2.767 1.888,4.357 0.502,1.404 0.952,2.904 1.342,4.525 h 2.605 l -0.619,-6.298 -0.394,-4.011 -1.381,-14.016 h -2.229 c -0.281,1.223 -0.68,2.171 -1.194,2.84 -0.516,0.671 -1.446,1.008 -2.788,1.008 -0.497,0 -2.493,-0.645 -5.981,-1.924 -3.489,-1.285 -6.476,-1.924 -8.951,-1.924 -2.822,0 -5.376,0.433 -7.679,1.277 l 2.134,5.105 c 1.879,-1.151 3.986,-1.753 6.34,-1.753 z"
     id="path64" /><path
     d="m 404.422,325.842 -4,-4.148 0.247,5.936 z m -3.74,3.363 c 0.178,1.893 0.242,3.472 0.493,5.143 -0.333,0.138 -0.662,0.24 -0.991,0.393 -0.329,0.16 -0.636,0.359 -0.957,0.536 l -0.589,-17.72 c 0.286,-0.083 0.541,-0.183 0.805,-0.31 0.268,-0.124 0.506,-0.267 0.753,-0.431 l 12.193,12.234 c -0.614,0.24 -1.212,0.452 -1.809,0.735 -0.598,0.283 -1.143,0.621 -1.719,0.948 -1.16,-1.37 -2.225,-2.628 -3.402,-3.807 l -4.777,2.279"
     id="path66" /><path
     d="m 424.817,309.872 c 0.32,-0.018 0.645,-0.013 0.952,-0.08 0.307,-0.065 0.627,-0.203 0.926,-0.313 1.87,6.094 3.338,11.039 4.97,15.5 -0.633,0.084 -1.238,0.136 -1.861,0.266 -0.619,0.128 -1.156,0.314 -1.767,0.491 -0.874,-3.652 -1.991,-7.104 -2.999,-10.607 -1.005,3.896 -1.987,7.791 -2.874,11.715 -0.299,0.013 -0.564,0.05 -0.84,0.178 -2.018,-2.902 -4.45,-6.136 -6.817,-9.423 0.264,4.188 0.524,7.485 1.073,10.743 -0.354,0.032 -0.701,0.032 -1.056,0.102 -0.355,0.075 -0.654,0.208 -0.996,0.329 -0.091,-4.826 -0.407,-10.354 -0.771,-16.379 0.32,-0.018 0.623,-0.009 0.931,-0.069 0.312,-0.067 0.602,-0.199 0.905,-0.316 2.28,3.311 4.713,6.561 7.15,9.837 0.966,-3.626 2.148,-7.66 3.074,-11.974"
     id="path68" /><path
     d="m 433.431,309.221 c 0.563,0.034 1.13,0.098 1.692,0.084 0.559,-0.009 1.121,-0.093 1.684,-0.145 l 0.303,16.212 c -0.563,-0.034 -1.125,-0.098 -1.688,-0.084 -0.563,0.013 -1.126,0.097 -1.688,0.155 l -0.303,-16.222"
     id="path70" /><path
     d="m 449.48,310.13 c -0.073,0.329 -0.178,0.673 -0.208,1.002 -0.03,0.326 0.005,0.686 0.018,1.02 -1.351,-0.334 -2.856,-0.68 -5.146,-0.875 l -0.489,5.058 2.333,0.249 c 1.013,0.107 1.94,0.11 2.779,0.08 -0.074,0.323 -0.178,0.669 -0.208,0.998 -0.03,0.331 0,0.69 0.013,1.023 -0.814,-0.205 -1.727,-0.396 -2.735,-0.502 l -2.329,-0.244 -0.571,5.975 c 2.286,0.219 3.822,0.263 5.207,0.219 -0.077,0.322 -0.177,0.669 -0.207,0.996 -0.035,0.333 0,0.692 0.013,1.03 l -8.54,-0.905 1.536,-16.023 8.534,0.899"
     id="path72" /><path
     d="m 454.406,310.933 2.139,0.664 c 2.077,4.467 4.323,8.912 6.336,13.51 l 2.991,-10.611 c 0.268,0.134 0.567,0.249 0.845,0.337 0.281,0.085 0.593,0.16 0.883,0.199 l -4.385,15.559 -1.831,-0.595 c -1.68,-3.705 -3.225,-7.216 -4.904,-10.672 l -1.623,-3.32 -3.1,10.973 c -0.267,-0.105 -0.563,-0.246 -0.839,-0.335 -0.286,-0.085 -0.598,-0.135 -0.888,-0.199 l 4.376,-15.51"
     id="path74" /><path
     d="m 477.688,323.635 c 0.147,-1.329 -0.264,-2.455 -1.402,-3.071 -1.579,-0.855 -2.623,-0.329 -3.211,0.867 -1.395,2.838 4.951,5.604 2.588,10.417 -1.32,2.69 -4.467,3.43 -7.57,1.755 -1.1,-0.597 -2.151,-1.506 -2.779,-2.645 0.671,-0.755 1.325,-1.522 1.888,-2.359 l 0.381,0.208 c -0.411,1.61 0.247,3.059 1.628,3.803 1.242,0.675 2.7,0.532 3.41,-0.915 1.653,-3.366 -4.908,-5.37 -2.424,-10.436 1.186,-2.415 3.744,-3.558 6.787,-1.913 1.441,0.779 2.441,2.039 2.666,2.721 -0.571,0.541 -1.112,1.125 -1.662,1.733 l -0.3,-0.165"
     id="path76" /><path
     d="m 379.502,468.373 c -0.398,-0.472 -0.779,-0.952 -1.207,-1.385 -0.437,-0.434 -0.913,-0.81 -1.381,-1.204 l 11.28,-12.431 6.575,6.57 c -0.269,0.217 -0.563,0.441 -0.796,0.692 -0.229,0.256 -0.424,0.58 -0.619,0.875 -0.939,-1.186 -1.943,-2.433 -3.752,-4.242 l -3.537,3.896 1.831,1.826 c 0.667,0.671 1.424,1.29 2.233,1.927 -0.268,0.216 -0.563,0.437 -0.796,0.692 -0.229,0.251 -0.424,0.575 -0.619,0.87 -0.658,-0.801 -1.264,-1.584 -1.957,-2.277 l -1.809,-1.809 -5.446,6"
     id="path78" /><path
     d="m 394.085,470.948 c -1.558,2.813 -2.004,6.54 1.086,8.437 3.173,1.938 6.445,-0.528 8.441,-4.116 1.545,-2.788 2.086,-6.748 -1.005,-8.636 -2.86,-1.753 -5.83,-0.529 -8.522,4.315 z m 0.268,9.666 c -4.558,-2.783 -6.064,-7.479 -3.342,-12.384 2.39,-4.303 7.311,-5.961 12.44,-2.822 5.873,3.593 5.19,8.999 3.35,12.366 -2.324,4.234 -7.405,5.93 -12.448,2.84"
     id="path80" /><path
     d="m 412.935,480.588 c -0.723,3.164 -0.121,6.869 3.358,7.743 3.575,0.896 6.03,-2.454 6.952,-6.492 0.714,-3.143 0.143,-7.095 -3.338,-7.969 -3.223,-0.813 -5.729,1.264 -6.972,6.718 z m 2.914,9.176 c -5.125,-1.289 -7.865,-5.319 -6.601,-10.847 1.104,-4.848 5.358,-7.925 11.133,-6.476 6.609,1.658 7.444,7.043 6.609,10.821 -1.056,4.758 -5.459,7.93 -11.141,6.502"
     id="path82" /><path
     d="m 437.071,491.842 c -0.594,-0.052 -1.195,-0.121 -1.788,-0.117 -0.598,0 -1.19,0.083 -1.792,0.135 l -0.078,-15.4 c -1.692,0.008 -3.194,0.198 -4.432,0.381 0.043,-0.355 0.116,-0.706 0.112,-1.078 0,-0.351 -0.078,-0.701 -0.126,-1.057 l 12.28,-0.065 c -0.044,0.347 -0.113,0.701 -0.108,1.048 0,0.381 0.073,0.727 0.125,1.077 -1.41,-0.169 -2.821,-0.333 -4.276,-0.324 l 0.083,15.4"
     id="path84" /><path
     d="m 449.9,488.838 1.169,-0.256 c 1.285,-0.289 2.51,-1.787 2.104,-3.821 -0.546,-2.697 -2.16,-3.308 -4.614,-2.554 z m -1.631,-8.056 c 1.004,-0.221 1.913,-0.324 2.558,-1.207 0.594,-0.801 0.684,-1.818 0.489,-2.77 -0.355,-1.766 -1.506,-2.506 -3.047,-2.164 -0.372,0.082 -0.714,0.187 -1.169,0.363 z m -4.953,-6.419 6.017,-1.342 c 2.354,-0.527 4.81,-0.203 5.39,2.658 0.467,2.307 -1.113,4.038 -3.03,4.774 l 0.043,0.221 c 1.762,-0.208 4.402,0.069 5.017,3.103 0.684,3.38 -1.922,5.449 -4.675,6.064 l -5.384,1.203 -3.378,-16.681"
     id="path86" /><path
     d="m 466.811,477.351 -4.268,-4.346 0.312,6.28 z m -3.925,3.6 c 0.203,2.004 0.285,3.675 0.571,5.436 -0.355,0.148 -0.701,0.265 -1.048,0.434 -0.346,0.164 -0.671,0.381 -1.004,0.575 l -0.796,-18.755 c 0.303,-0.091 0.571,-0.199 0.853,-0.338 0.276,-0.13 0.532,-0.281 0.787,-0.459 l 13.029,12.821 c -0.649,0.26 -1.281,0.489 -1.913,0.796 -0.624,0.304 -1.199,0.667 -1.806,1.021 -1.242,-1.436 -2.38,-2.753 -3.64,-3.99 l -5.033,2.459"
     id="path88" /><path
     d="m 480.818,474.082 c 1.662,-1.303 2.978,-2.549 4.182,-3.7 0.16,0.312 0.315,0.653 0.515,0.939 0.199,0.281 0.472,0.533 0.706,0.788 l -7.251,5.657 -9.686,-13.686 c 0.506,-0.329 1.03,-0.641 1.506,-1.017 0.48,-0.373 0.914,-0.81 1.364,-1.217 l 8.664,12.236"
     id="path90" /><path
     d="m 491.047,464.642 c 1.428,-1.584 2.519,-3.051 3.506,-4.41 0.212,0.276 0.42,0.589 0.666,0.826 0.243,0.243 0.555,0.441 0.827,0.654 l -6.207,6.899 -11.808,-11.709 c 0.445,-0.424 0.908,-0.826 1.315,-1.281 0.411,-0.458 0.767,-0.961 1.143,-1.449 l 10.558,10.47"
     id="path92" /><path
     style="fill:#d1d3d4"
     d="m 516.861,458.44 2.112,-1.424 c -0.1,1.017 -0.727,2.744 -0.762,3.796 1.242,0 2.908,0.817 3.563,1.904 -1.411,-0.108 -3.018,0 -3.619,1.766 -0.276,0.758 0.021,1.874 0.151,2.758 0,0 -0.727,0.415 -0.904,0.225 -0.19,-0.203 -0.402,-1.376 -0.454,-1.402 -0.594,-0.476 -1.121,-0.948 -2.108,-0.338 l -1.749,2.416 c -0.164,-1.48 -0.558,-3.091 0.503,-4.398 -0.26,-0.233 -0.827,-0.506 -0.827,-0.506 -1.034,-0.472 -2.42,-1.069 -3.42,-1.719 0.957,-0.532 1.892,-0.814 2.671,-2.013 1.637,-3.077 1.477,-6.73 0.546,-10.202 1.722,2.678 2.955,6.314 4.297,9.137"
     id="path94" /><path
     style="fill:none;stroke:#000000;stroke-width:1.1081"
     d="m 516.861,458.44 2.112,-1.424 c -0.1,1.017 -0.727,2.744 -0.762,3.796 1.242,0 2.908,0.817 3.563,1.904 -1.411,-0.108 -3.018,0 -3.619,1.766 -0.276,0.758 0.021,1.874 0.151,2.758 0,0 -0.727,0.415 -0.904,0.225 -0.19,-0.203 -0.402,-1.376 -0.454,-1.402 -0.594,-0.476 -1.121,-0.948 -2.108,-0.338 l -1.749,2.416 c -0.164,-1.48 -0.558,-3.091 0.503,-4.398 -0.26,-0.233 -0.827,-0.506 -0.827,-0.506 -1.034,-0.472 -2.42,-1.069 -3.42,-1.719 0.957,-0.532 1.892,-0.814 2.671,-2.013 1.637,-3.077 1.477,-6.73 0.546,-10.202 1.722,2.678 2.955,6.314 4.297,9.137 z"
     id="path96" /><path
     style="fill:#d1d3d4"
     d="m 519.216,472.792 c 1.515,0 3.143,-2.289 4.519,-3.155 l 0.559,0.719 c -1.545,1.264 -5.068,4.848 -7.405,8.501 0.484,0.329 1.389,0.354 2.008,0.061 l -0.116,2.112 c -6.1,2.134 -10.631,4.896 -14.432,11.405 l 0.649,0.719 c 2.151,-1.415 4.627,-1.826 7.107,-1.826 1.146,-1.208 1.139,-2.628 0.931,-3.97 0.865,0.728 1.783,1.991 1.783,1.991 0.653,-1.48 2.771,-3.411 4.077,-4.281 -0.233,0.767 -0.689,1.875 -1.03,3.354 -0.1,0.183 1.619,-0.289 1.723,-0.034 2.48,-0.039 4.913,-0.377 7.294,1.324 -2.347,0.217 -6.324,0.121 -8.324,1.641 0.065,1.411 0.455,2.931 0.97,4.091 -1.653,-0.147 -3.35,-0.667 -4.107,-2.441 -1.272,0.614 -1.744,2.242 -3.744,2.757 0.065,-0.792 0.922,-2.342 0.402,-2.995 -0.931,-0.429 -2.588,0.208 -3.691,0.39 -4.104,1.155 -7.58,2.97 -11.232,5.319 -0.329,-0.65 -0.806,-2.372 -0.646,-2.848 3.147,-1.835 4.116,-2.511 5.883,-4.207 3.705,-3.982 6.891,-7.285 9.734,-10.181 3.104,-3.134 6.203,-7.086 6.029,-11.825 l 0.736,-0.135 0.323,3.514"
     id="path98" /><path
     style="fill:none;stroke:#000000;stroke-width:1.1081"
     d="m 519.216,472.792 c 1.515,0 3.143,-2.289 4.519,-3.155 l 0.559,0.719 c -1.545,1.264 -5.068,4.848 -7.405,8.501 0.484,0.329 1.389,0.354 2.008,0.061 l -0.116,2.112 c -6.1,2.134 -10.631,4.896 -14.432,11.405 l 0.649,0.719 c 2.151,-1.415 4.627,-1.826 7.107,-1.826 1.146,-1.208 1.139,-2.628 0.931,-3.97 0.865,0.728 1.783,1.991 1.783,1.991 0.653,-1.48 2.771,-3.411 4.077,-4.281 -0.233,0.767 -0.689,1.875 -1.03,3.354 -0.1,0.183 1.619,-0.289 1.723,-0.034 2.48,-0.039 4.913,-0.377 7.294,1.324 -2.347,0.217 -6.324,0.121 -8.324,1.641 0.065,1.411 0.455,2.931 0.97,4.091 -1.653,-0.147 -3.35,-0.667 -4.107,-2.441 -1.272,0.614 -1.744,2.242 -3.744,2.757 0.065,-0.792 0.922,-2.342 0.402,-2.995 -0.931,-0.429 -2.588,0.208 -3.691,0.39 -4.104,1.155 -7.58,2.97 -11.232,5.319 -0.329,-0.65 -0.806,-2.372 -0.646,-2.848 3.147,-1.835 4.116,-2.511 5.883,-4.207 3.705,-3.982 6.891,-7.285 9.734,-10.181 3.104,-3.134 6.203,-7.086 6.029,-11.825 l 0.736,-0.135 z"
     id="path100" /><path
     style="fill:#d1d3d4"
     d="m 534.413,475.034 c 3.796,-1.484 5.778,-0.671 8.15,0.507 -2.826,-0.035 -4.354,0.632 -8.15,2.458 -0.758,1.048 -0.429,2.455 0.048,3.645 -1.827,0.29 -3.498,-0.493 -4.666,-1.904 -1.277,1.904 -2.939,2.649 -4.078,3.082 1.338,-1.402 1.815,-3.394 1.035,-4.744 -1.931,-0.039 -3.55,0.952 -5.273,1.386 0.112,-0.576 -0.182,-1.29 0.229,-1.516 0.966,-0.506 3.216,-0.445 4.182,-1.052 0.52,0.147 1.143,-0.16 1.251,-0.636 -0.277,-0.792 -0.477,-2.303 -1.035,-3.299 2.667,0.226 2.446,1.511 3.446,2.489 0.991,-1.58 1.419,-2.895 4.263,-3.849 0,10e-4 0.114,2.997 0.598,3.433"
     id="path102" /><path
     style="fill:none;stroke:#000000;stroke-width:1.1081"
     d="m 534.413,475.034 c 3.796,-1.484 5.778,-0.671 8.15,0.507 -2.826,-0.035 -4.354,0.632 -8.15,2.458 -0.758,1.048 -0.429,2.455 0.048,3.645 -1.827,0.29 -3.498,-0.493 -4.666,-1.904 -1.277,1.904 -2.939,2.649 -4.078,3.082 1.338,-1.402 1.815,-3.394 1.035,-4.744 -1.931,-0.039 -3.55,0.952 -5.273,1.386 0.112,-0.576 -0.182,-1.29 0.229,-1.516 0.966,-0.506 3.216,-0.445 4.182,-1.052 0.52,0.147 1.143,-0.16 1.251,-0.636 -0.277,-0.792 -0.477,-2.303 -1.035,-3.299 2.667,0.226 2.446,1.511 3.446,2.489 0.991,-1.58 1.419,-2.895 4.263,-3.849 0,10e-4 0.114,2.997 0.598,3.433 z"
     id="path104" /><path
     style="fill:#d1d3d4"
     d="m 499.188,480.008 c 1.034,0.477 2.748,-0.939 3.653,-1.299 -0.411,1.338 -2.156,3.71 -3.277,4.294 0,1.178 0.563,2.719 0.736,4.433 -0.991,-1.178 -1.714,-1.861 -2.719,-1.9 -0.792,1.523 -1.203,3.221 -1.268,5.029 h -1.523 c 0.207,-1.406 0.814,-3.355 0.436,-4.476 -0.956,-1.052 -2.545,0.407 -3.54,0.624 0.337,-0.905 0.472,-2.762 1.159,-3.346 -0.584,-1.594 -1.402,-4.139 -1.099,-5.454 0.732,0.182 1.956,2.095 3.134,1.917 0.848,-3.7 2.532,-6.96 5.159,-9.128 -1.288,1.623 -2.92,7.895 -0.851,9.306"
     id="path106" /><path
     style="fill:none;stroke:#000000;stroke-width:1.1081"
     d="m 499.188,480.008 c 1.034,0.477 2.748,-0.939 3.653,-1.299 -0.411,1.338 -2.156,3.71 -3.277,4.294 0,1.178 0.563,2.719 0.736,4.433 -0.991,-1.178 -1.714,-1.861 -2.719,-1.9 -0.792,1.523 -1.203,3.221 -1.268,5.029 h -1.523 c 0.207,-1.406 0.814,-3.355 0.436,-4.476 -0.956,-1.052 -2.545,0.407 -3.54,0.624 0.337,-0.905 0.472,-2.762 1.159,-3.346 -0.584,-1.594 -1.402,-4.139 -1.099,-5.454 0.732,0.182 1.956,2.095 3.134,1.917 0.848,-3.7 2.532,-6.96 5.159,-9.128 -1.288,1.623 -2.92,7.895 -0.851,9.306 z"
     id="path108" /><path
     style="fill:#d1d3d4"
     d="m 493.579,497.885 c 0.735,0.229 1.294,-0.364 1.294,-0.364 l 0.429,2.217 c -0.944,1.947 -5.203,2.969 -6.865,4.319 -4.554,2.155 -9.09,2.895 -14.847,3.146 -1.139,0.762 -5.198,1.372 -6.506,2.126 -3.173,1.228 -5.237,5.332 -6.722,8.371 -1.29,0.723 -4.805,3.337 -5.77,3.935 0.125,-4.883 5.77,-10.358 8.142,-12.574 5.081,-4.39 20.417,-3.35 27.053,-8.549 1.636,-0.904 3.748,-6.333 4.047,-7.873 l 0.995,-0.494 c 0.603,-0.095 -0.476,3.614 -1.25,5.74"
     id="path110" /><path
     style="fill:none;stroke:#000000;stroke-width:1.1081"
     d="m 493.579,497.885 c 0.735,0.229 1.294,-0.364 1.294,-0.364 l 0.429,2.217 c -0.944,1.947 -5.203,2.969 -6.865,4.319 -4.554,2.155 -9.09,2.895 -14.847,3.146 -1.139,0.762 -5.198,1.372 -6.506,2.126 -3.173,1.228 -5.237,5.332 -6.722,8.371 -1.29,0.723 -4.805,3.337 -5.77,3.935 0.125,-4.883 5.77,-10.358 8.142,-12.574 5.081,-4.39 20.417,-3.35 27.053,-8.549 1.636,-0.904 3.748,-6.333 4.047,-7.873 l 0.995,-0.494 c 0.603,-0.095 -0.476,3.614 -1.25,5.74 z"
     id="path112" /><path
     style="fill:#d1d3d4"
     d="m 540.936,466.659 -0.368,2.692 c -1.096,-0.113 -2.29,-1.576 -2.986,-2.264 l -3.281,3.294 c 0.264,-2.009 0.29,-2.788 -0.234,-3.662 -0.593,-0.697 -1.787,-0.667 -2.484,-0.52 l -1.228,0.164 -2.312,0.537 c -1.112,0.182 -1.632,2.484 -2.852,0.874 1.878,-3.177 4.173,-5.986 6.307,-9.271 1.237,-2.307 3.44,-4.579 1.389,-6.7 -1.67,-0.632 -2.194,-1.004 -5.544,0.484 1.696,-3.332 2.463,-4.432 4.592,-5.345 -1.212,-2.147 -1.974,-4.735 -1.657,-6.532 6.224,0.641 6.773,-1.853 8.428,-3.497 4.479,-6.397 4.09,-7.679 5.389,-11.834 0.454,0.441 0.783,2.441 0.835,3.225 0.649,5.268 0.706,8.401 -0.308,13.448 -0.449,1.429 -0.605,1.965 0.308,3.732 0.905,1.021 3.58,0.385 4.038,0.476 -0.696,1.372 -2.177,2.516 -3.722,3.58 -1.151,0.732 -2.351,0.438 -3.536,1.169 -0.057,2.436 0.961,6.215 -0.485,7.886 -1.082,-2.082 -3.225,-4.449 -5.168,-4.522 -3.143,3.973 -4.739,7.895 -7.839,11.765 l 1.986,-0.511 c 1.728,-0.221 2.567,-0.918 4.445,-0.884 0.42,-0.805 0.044,-1.783 -0.216,-3.107 0.874,0.294 1.614,-0.043 2.978,1.692 0.242,-1.246 1.251,-2.082 2.333,-2.636 l 0.174,2.817 c 5.021,0.753 7.523,-0.082 9.79,-1.182 -1.024,1.221 -6.399,4.251 -8.772,4.632"
     id="path114" /><path
     style="fill:none;stroke:#000000;stroke-width:1.1081"
     d="m 540.936,466.659 -0.368,2.692 c -1.096,-0.113 -2.29,-1.576 -2.986,-2.264 l -3.281,3.294 c 0.264,-2.009 0.29,-2.788 -0.234,-3.662 -0.593,-0.697 -1.787,-0.667 -2.484,-0.52 l -1.228,0.164 -2.312,0.537 c -1.112,0.182 -1.632,2.484 -2.852,0.874 1.878,-3.177 4.173,-5.986 6.307,-9.271 1.237,-2.307 3.44,-4.579 1.389,-6.7 -1.67,-0.632 -2.194,-1.004 -5.544,0.484 1.696,-3.332 2.463,-4.432 4.592,-5.345 -1.212,-2.147 -1.974,-4.735 -1.657,-6.532 6.224,0.641 6.773,-1.853 8.428,-3.497 4.479,-6.397 4.09,-7.679 5.389,-11.834 0.454,0.441 0.783,2.441 0.835,3.225 0.649,5.268 0.706,8.401 -0.308,13.448 -0.449,1.429 -0.605,1.965 0.308,3.732 0.905,1.021 3.58,0.385 4.038,0.476 -0.696,1.372 -2.177,2.516 -3.722,3.58 -1.151,0.732 -2.351,0.438 -3.536,1.169 -0.057,2.436 0.961,6.215 -0.485,7.886 -1.082,-2.082 -3.225,-4.449 -5.168,-4.522 -3.143,3.973 -4.739,7.895 -7.839,11.765 l 1.986,-0.511 c 1.728,-0.221 2.567,-0.918 4.445,-0.884 0.42,-0.805 0.044,-1.783 -0.216,-3.107 0.874,0.294 1.614,-0.043 2.978,1.692 0.242,-1.246 1.251,-2.082 2.333,-2.636 l 0.174,2.817 c 5.021,0.753 7.523,-0.082 9.79,-1.182 -1.024,1.221 -6.399,4.251 -8.772,4.632 z"
     id="path116" /><path
     style="fill:#d1d3d4"
     d="m 354.376,457.379 -2.117,-1.429 c 0.104,1.013 0.731,2.744 0.762,3.796 -1.238,0 -2.909,0.818 -3.566,1.909 1.42,-0.112 3.021,0 3.623,1.762 0.277,0.758 -0.022,1.874 -0.152,2.757 0,0 0.732,0.416 0.905,0.226 0.19,-0.204 0.407,-1.377 0.455,-1.402 0.597,-0.477 1.121,-0.944 2.112,-0.338 l 1.74,2.424 c 0.173,-1.484 0.563,-3.099 -0.498,-4.406 0.264,-0.233 0.827,-0.507 0.827,-0.507 1.035,-0.472 2.419,-1.068 3.424,-1.718 -0.956,-0.532 -1.9,-0.813 -2.675,-2.013 -1.636,-3.078 -1.472,-6.723 -0.541,-10.198 -1.724,2.679 -2.957,6.315 -4.299,9.137"
     id="path118" /><path
     style="fill:none;stroke:#000000;stroke-width:1.1081"
     d="m 354.376,457.379 -2.117,-1.429 c 0.104,1.013 0.731,2.744 0.762,3.796 -1.238,0 -2.909,0.818 -3.566,1.909 1.42,-0.112 3.021,0 3.623,1.762 0.277,0.758 -0.022,1.874 -0.152,2.757 0,0 0.732,0.416 0.905,0.226 0.19,-0.204 0.407,-1.377 0.455,-1.402 0.597,-0.477 1.121,-0.944 2.112,-0.338 l 1.74,2.424 c 0.173,-1.484 0.563,-3.099 -0.498,-4.406 0.264,-0.233 0.827,-0.507 0.827,-0.507 1.035,-0.472 2.419,-1.068 3.424,-1.718 -0.956,-0.532 -1.9,-0.813 -2.675,-2.013 -1.636,-3.078 -1.472,-6.723 -0.541,-10.198 -1.724,2.679 -2.957,6.315 -4.299,9.137 z"
     id="path120" /><path
     style="fill:#d1d3d4"
     d="m 352.021,471.728 c -1.515,0 -3.147,-2.29 -4.523,-3.155 l -0.558,0.719 c 1.549,1.264 5.068,4.848 7.41,8.505 -0.485,0.325 -1.394,0.347 -2.013,0.057 l 0.117,2.112 c 6.099,2.134 10.635,4.891 14.431,11.409 l -0.65,0.715 c -2.151,-1.416 -4.622,-1.822 -7.103,-1.822 -1.151,-1.208 -1.138,-2.632 -0.935,-3.97 -0.861,0.728 -1.784,1.987 -1.784,1.987 -0.649,-1.48 -2.766,-3.411 -4.077,-4.276 0.234,0.762 0.692,1.869 1.03,3.35 0.099,0.182 -1.615,-0.29 -1.719,-0.034 -2.48,-0.039 -4.917,-0.373 -7.293,1.324 2.342,0.221 6.324,0.121 8.324,1.645 -0.074,1.411 -0.458,2.926 -0.97,4.086 1.654,-0.142 3.346,-0.666 4.103,-2.44 1.272,0.609 1.745,2.241 3.749,2.761 -0.069,-0.796 -0.922,-2.346 -0.402,-2.995 0.926,-0.436 2.588,0.203 3.692,0.386 4.099,1.155 7.575,2.974 11.228,5.319 0.329,-0.649 0.81,-2.372 0.645,-2.848 -3.143,-1.836 -4.112,-2.511 -5.882,-4.208 -3.701,-3.981 -6.891,-7.28 -9.73,-10.176 -3.104,-3.139 -6.207,-7.086 -6.034,-11.83 l -0.731,-0.134 -0.325,3.513"
     id="path122" /><path
     style="fill:none;stroke:#000000;stroke-width:1.1081"
     d="m 352.021,471.728 c -1.515,0 -3.147,-2.29 -4.523,-3.155 l -0.558,0.719 c 1.549,1.264 5.068,4.848 7.41,8.505 -0.485,0.325 -1.394,0.347 -2.013,0.057 l 0.117,2.112 c 6.099,2.134 10.635,4.891 14.431,11.409 l -0.65,0.715 c -2.151,-1.416 -4.622,-1.822 -7.103,-1.822 -1.151,-1.208 -1.138,-2.632 -0.935,-3.97 -0.861,0.728 -1.784,1.987 -1.784,1.987 -0.649,-1.48 -2.766,-3.411 -4.077,-4.276 0.234,0.762 0.692,1.869 1.03,3.35 0.099,0.182 -1.615,-0.29 -1.719,-0.034 -2.48,-0.039 -4.917,-0.373 -7.293,1.324 2.342,0.221 6.324,0.121 8.324,1.645 -0.074,1.411 -0.458,2.926 -0.97,4.086 1.654,-0.142 3.346,-0.666 4.103,-2.44 1.272,0.609 1.745,2.241 3.749,2.761 -0.069,-0.796 -0.922,-2.346 -0.402,-2.995 0.926,-0.436 2.588,0.203 3.692,0.386 4.099,1.155 7.575,2.974 11.228,5.319 0.329,-0.649 0.81,-2.372 0.645,-2.848 -3.143,-1.836 -4.112,-2.511 -5.882,-4.208 -3.701,-3.981 -6.891,-7.28 -9.73,-10.176 -3.104,-3.139 -6.207,-7.086 -6.034,-11.83 l -0.731,-0.134 z"
     id="path124" /><path
     style="fill:#d1d3d4"
     d="m 336.824,473.97 c -3.8,-1.484 -5.783,-0.671 -8.15,0.507 2.822,-0.035 4.35,0.632 8.15,2.458 0.757,1.052 0.429,2.459 -0.052,3.649 1.826,0.29 3.497,-0.498 4.67,-1.909 1.273,1.909 2.939,2.648 4.073,3.082 -1.333,-1.398 -1.809,-3.39 -1.034,-4.744 1.93,-0.043 3.549,0.952 5.272,1.385 -0.117,-0.575 0.182,-1.29 -0.229,-1.511 -0.965,-0.511 -3.216,-0.445 -4.181,-1.056 -0.515,0.147 -1.143,-0.16 -1.247,-0.632 0.277,-0.792 0.472,-2.308 1.035,-3.303 -2.675,0.225 -2.445,1.511 -3.45,2.493 -0.987,-1.584 -1.42,-2.9 -4.264,-3.853 0,10e-4 -0.108,3.001 -0.593,3.434"
     id="path126" /><path
     style="fill:none;stroke:#000000;stroke-width:1.1081"
     d="m 336.824,473.97 c -3.8,-1.484 -5.783,-0.671 -8.15,0.507 2.822,-0.035 4.35,0.632 8.15,2.458 0.757,1.052 0.429,2.459 -0.052,3.649 1.826,0.29 3.497,-0.498 4.67,-1.909 1.273,1.909 2.939,2.648 4.073,3.082 -1.333,-1.398 -1.809,-3.39 -1.034,-4.744 1.93,-0.043 3.549,0.952 5.272,1.385 -0.117,-0.575 0.182,-1.29 -0.229,-1.511 -0.965,-0.511 -3.216,-0.445 -4.181,-1.056 -0.515,0.147 -1.143,-0.16 -1.247,-0.632 0.277,-0.792 0.472,-2.308 1.035,-3.303 -2.675,0.225 -2.445,1.511 -3.45,2.493 -0.987,-1.584 -1.42,-2.9 -4.264,-3.853 0,10e-4 -0.108,3.001 -0.593,3.434 z"
     id="path128" /><path
     style="fill:#d1d3d4"
     d="m 372.049,478.943 c -1.039,0.476 -2.753,-0.939 -3.653,-1.299 0.411,1.338 2.151,3.705 3.272,4.294 0,1.177 -0.558,2.718 -0.732,4.433 0.987,-1.174 1.714,-1.861 2.71,-1.896 0.797,1.52 1.208,3.221 1.277,5.03 h 1.519 c -0.212,-1.411 -0.814,-3.359 -0.433,-4.48 0.956,-1.052 2.54,0.407 3.54,0.628 -0.346,-0.909 -0.472,-2.762 -1.16,-3.351 0.585,-1.593 1.398,-4.138 1.095,-5.449 -0.732,0.182 -1.961,2.091 -3.129,1.913 -0.857,-3.701 -2.537,-6.956 -5.164,-9.129 1.295,1.628 2.923,7.895 0.858,9.306"
     id="path130" /><path
     style="fill:none;stroke:#000000;stroke-width:1.1081"
     d="m 372.049,478.943 c -1.039,0.476 -2.753,-0.939 -3.653,-1.299 0.411,1.338 2.151,3.705 3.272,4.294 0,1.177 -0.558,2.718 -0.732,4.433 0.987,-1.174 1.714,-1.861 2.71,-1.896 0.797,1.52 1.208,3.221 1.277,5.03 h 1.519 c -0.212,-1.411 -0.814,-3.359 -0.433,-4.48 0.956,-1.052 2.54,0.407 3.54,0.628 -0.346,-0.909 -0.472,-2.762 -1.16,-3.351 0.585,-1.593 1.398,-4.138 1.095,-5.449 -0.732,0.182 -1.961,2.091 -3.129,1.913 -0.857,-3.701 -2.537,-6.956 -5.164,-9.129 1.295,1.628 2.923,7.895 0.858,9.306 z"
     id="path132" /><path
     style="fill:#d1d3d4"
     d="m 377.654,496.824 c -0.731,0.225 -1.294,-0.364 -1.294,-0.364 l -0.429,2.217 c 0.948,1.943 5.203,2.965 6.869,4.315 4.549,2.155 9.085,2.896 14.842,3.15 1.142,0.762 5.194,1.368 6.51,2.126 3.168,1.225 5.237,5.328 6.718,8.366 1.294,0.724 4.809,3.338 5.773,3.939 -0.13,-4.887 -5.773,-10.362 -8.146,-12.579 -5.082,-4.389 -20.413,-3.35 -27.053,-8.548 -1.636,-0.905 -3.749,-6.333 -4.047,-7.874 l -0.996,-0.493 c -0.599,-0.095 0.478,3.619 1.253,5.745"
     id="path134" /><path
     style="fill:none;stroke:#000000;stroke-width:1.1081"
     d="m 377.654,496.824 c -0.731,0.225 -1.294,-0.364 -1.294,-0.364 l -0.429,2.217 c 0.948,1.943 5.203,2.965 6.869,4.315 4.549,2.155 9.085,2.896 14.842,3.15 1.142,0.762 5.194,1.368 6.51,2.126 3.168,1.225 5.237,5.328 6.718,8.366 1.294,0.724 4.809,3.338 5.773,3.939 -0.13,-4.887 -5.773,-10.362 -8.146,-12.579 -5.082,-4.389 -20.413,-3.35 -27.053,-8.548 -1.636,-0.905 -3.749,-6.333 -4.047,-7.874 l -0.996,-0.493 c -0.599,-0.095 0.478,3.619 1.253,5.745 z"
     id="path136" /><path
     style="fill:#d1d3d4"
     d="m 321.532,460.967 c 2.259,1.096 4.77,1.931 9.787,1.178 l 0.173,-2.813 c 1.082,0.55 2.09,1.39 2.337,2.632 1.363,-1.736 2.103,-1.398 2.974,-1.692 -0.264,1.324 -0.637,2.303 -0.217,3.107 1.879,-0.034 2.718,0.667 4.445,0.883 l 1.987,0.52 c -3.099,-3.878 -4.692,-7.8 -7.835,-11.773 -1.948,0.074 -4.09,2.441 -5.168,4.523 -1.446,-1.675 -0.429,-5.449 -0.485,-7.882 -1.186,-0.736 -2.385,-0.441 -3.541,-1.173 -1.545,-1.061 -3.026,-2.208 -3.723,-3.576 0.459,-0.095 3.134,0.542 4.039,-0.484 0.913,-1.762 0.757,-2.298 0.307,-3.727 -1.013,-5.047 -0.961,-8.181 -0.307,-13.448 0.052,-0.779 0.385,-2.783 0.84,-3.225 1.294,4.155 0.9,5.437 5.384,11.834 1.653,1.645 2.207,4.138 8.428,3.497 0.316,1.801 -0.441,4.389 -1.662,6.531 2.134,0.918 2.9,2.013 4.597,5.346 -3.346,-1.484 -3.87,-1.116 -5.54,-0.484 -2.056,2.121 0.147,4.392 1.39,6.7 2.129,3.289 4.423,6.095 6.302,9.275 -1.221,1.606 -1.736,-0.696 -2.857,-0.878 l -2.303,-0.537 -1.233,-0.164 c -0.693,-0.147 -1.892,-0.174 -2.485,0.519 -0.52,0.875 -0.493,1.654 -0.233,3.662 l -3.281,-3.294 c -0.697,0.697 -1.892,2.151 -2.983,2.264 l -0.368,-2.692 c -2.376,-0.378 -7.752,-3.412 -8.769,-4.629"
     id="path138" /><path
     style="fill:none;stroke:#000000;stroke-width:1.1081"
     d="m 321.532,460.967 c 2.259,1.096 4.77,1.931 9.787,1.178 l 0.173,-2.813 c 1.082,0.55 2.09,1.39 2.337,2.632 1.363,-1.736 2.103,-1.398 2.974,-1.692 -0.264,1.324 -0.637,2.303 -0.217,3.107 1.879,-0.034 2.718,0.667 4.445,0.883 l 1.987,0.52 c -3.099,-3.878 -4.692,-7.8 -7.835,-11.773 -1.948,0.074 -4.09,2.441 -5.168,4.523 -1.446,-1.675 -0.429,-5.449 -0.485,-7.882 -1.186,-0.736 -2.385,-0.441 -3.541,-1.173 -1.545,-1.061 -3.026,-2.208 -3.723,-3.576 0.459,-0.095 3.134,0.542 4.039,-0.484 0.913,-1.762 0.757,-2.298 0.307,-3.727 -1.013,-5.047 -0.961,-8.181 -0.307,-13.448 0.052,-0.779 0.385,-2.783 0.84,-3.225 1.294,4.155 0.9,5.437 5.384,11.834 1.653,1.645 2.207,4.138 8.428,3.497 0.316,1.801 -0.441,4.389 -1.662,6.531 2.134,0.918 2.9,2.013 4.597,5.346 -3.346,-1.484 -3.87,-1.116 -5.54,-0.484 -2.056,2.121 0.147,4.392 1.39,6.7 2.129,3.289 4.423,6.095 6.302,9.275 -1.221,1.606 -1.736,-0.696 -2.857,-0.878 l -2.303,-0.537 -1.233,-0.164 c -0.693,-0.147 -1.892,-0.174 -2.485,0.519 -0.52,0.875 -0.493,1.654 -0.233,3.662 l -3.281,-3.294 c -0.697,0.697 -1.892,2.151 -2.983,2.264 l -0.368,-2.692 c -2.376,-0.378 -7.752,-3.412 -8.769,-4.629 z"
     id="path140" /><path
     style="fill:#fec35a"
     d="m 476.983,506.477 c 2.463,-0.061 4.614,1.047 7.09,2.445 2.484,1.372 4.623,1.68 7.09,1.45 -2.727,0.926 -5.09,0.939 -7.83,0.048 -2.731,-0.893 -5.099,-0.893 -7.825,0.034 -2.731,0.935 -5.095,0.982 -7.826,0.091 -2.74,-0.888 -5.103,-0.926 -7.83,0 -0.018,-3.06 -0.03,-5.974 -0.048,-9.033 2.675,-0.909 4.999,-0.909 7.683,-0.035 2.688,0.884 5.013,0.97 7.688,0.069 2.68,-0.909 5,-1.125 7.688,-0.26 2.684,0.875 5.008,1.169 7.688,0.295 -0.151,0.112 -2.835,1.801 -6.068,1.575 -3.238,-0.255 -6.354,0.242 -7.471,0.87 -2.226,1.285 -4.671,2.056 -4.805,2.749 1.664,0.182 3.11,-0.177 4.776,-0.298"
     id="path142" /><path
     style="fill:none;stroke:#000000;stroke-width:1.1081"
     d="m 476.983,506.477 c 2.463,-0.061 4.614,1.047 7.09,2.445 2.484,1.372 4.623,1.68 7.09,1.45 -2.727,0.926 -5.09,0.939 -7.83,0.048 -2.731,-0.893 -5.099,-0.893 -7.825,0.034 -2.731,0.935 -5.095,0.982 -7.826,0.091 -2.74,-0.888 -5.103,-0.926 -7.83,0 -0.018,-3.06 -0.03,-5.974 -0.048,-9.033 2.675,-0.909 4.999,-0.909 7.683,-0.035 2.688,0.884 5.013,0.97 7.688,0.069 2.68,-0.909 5,-1.125 7.688,-0.26 2.684,0.875 5.008,1.169 7.688,0.295 -0.151,0.112 -2.835,1.801 -6.068,1.575 -3.238,-0.255 -6.354,0.242 -7.471,0.87 -2.226,1.285 -4.671,2.056 -4.805,2.749 1.664,0.182 3.11,-0.177 4.776,-0.298 z"
     id="path144" /><path
     style="fill:#fec35a"
     d="m 394.185,504.961 c -2.472,-0.047 -4.614,1.074 -7.086,2.48 -2.472,1.385 -4.614,1.705 -7.077,1.489 2.731,0.917 5.09,0.917 7.826,0.009 2.731,-0.909 5.095,-0.918 7.83,0 2.727,0.917 5.095,0.952 7.826,0.047 2.735,-0.904 5.099,-0.956 7.826,-0.038 0,-3.061 0,-5.982 0,-9.038 -2.68,-0.892 -5,-0.888 -7.684,0.009 -2.684,0.892 -4.999,0.991 -7.687,0.104 -2.679,-0.892 -5.004,-1.1 -7.683,-0.221 -2.684,0.892 -5.004,1.199 -7.688,0.338 0.156,0.108 2.844,1.778 6.077,1.545 3.233,-0.277 6.354,0.208 7.476,0.822 2.229,1.281 4.683,2.043 4.813,2.728 -1.662,0.19 -3.107,-0.166 -4.769,-0.274"
     id="path146" /><path
     style="fill:none;stroke:#000000;stroke-width:1.1081"
     d="m 394.185,504.961 c -2.472,-0.047 -4.614,1.074 -7.086,2.48 -2.472,1.385 -4.614,1.705 -7.077,1.489 2.731,0.917 5.09,0.917 7.826,0.009 2.731,-0.909 5.095,-0.918 7.83,0 2.727,0.917 5.095,0.952 7.826,0.047 2.735,-0.904 5.099,-0.956 7.826,-0.038 0,-3.061 0,-5.982 0,-9.038 -2.68,-0.892 -5,-0.888 -7.684,0.009 -2.684,0.892 -4.999,0.991 -7.687,0.104 -2.679,-0.892 -5.004,-1.1 -7.683,-0.221 -2.684,0.892 -5.004,1.199 -7.688,0.338 0.156,0.108 2.844,1.778 6.077,1.545 3.233,-0.277 6.354,0.208 7.476,0.822 2.229,1.281 4.683,2.043 4.813,2.728 -1.662,0.19 -3.107,-0.166 -4.769,-0.274 z"
     id="path148" /><polyline
     points="411.512,509.329 411.512,500.321 404.253,502.2 404.253,509.329 411.512,509.329 "
     id="polyline150" /><polygon
     style="fill:none;stroke:#000000;stroke-width:1.1081"
     points="411.512,500.321 404.253,502.2 404.253,509.329 411.512,509.329 "
     id="polygon152" /><polyline
     points="466.678,510.675 466.751,502.429 459.423,501.667 459.423,510.675 466.678,510.675 "
     id="polyline154" /><polygon
     style="fill:none;stroke:#000000;stroke-width:1.1081"
     points="466.751,502.429 459.423,501.667 459.423,510.675 466.678,510.675 "
     id="polygon156" /><path
     style="fill:#fec35a"
     d="m 467.219,512.22 c 0,-3.341 0,-6.535 0,-9.882 -2.892,0.533 -5.653,0.996 -8.536,0.991 -2.892,-0.008 -1.904,-0.363 -4.791,-0.9 -2.892,-0.536 -5.653,-0.999 -8.54,-0.999 -2.888,0.004 -5.65,0.472 -8.54,1.008 -2.888,0.537 -5.645,1.005 -8.536,1.014 -2.887,-0.005 -5.648,-0.468 -8.54,-1.005 -2.887,-0.536 -4.389,-1.125 -7.276,-1.138 -2.887,0 -5.649,0.454 -8.54,0.991 0,3.35 0,6.544 0,9.886 2.892,-0.532 5.653,-0.996 8.54,-0.996 2.888,0.017 4.39,0.602 7.276,1.139 2.892,0.541 5.653,1 8.54,1.009 2.892,-0.013 5.648,-0.477 8.536,-1.018 2.891,-0.536 5.652,-1 8.54,-1.008 2.887,0 5.648,0.463 8.54,1.004 2.887,0.537 1.899,0.892 4.791,0.9 2.882,0 5.644,-0.459 8.536,-0.996"
     id="path158" /><path
     style="fill:none;stroke:#000000;stroke-width:1.1081"
     d="m 467.219,512.22 c 0,-3.341 0,-6.535 0,-9.882 -2.892,0.533 -5.653,0.996 -8.536,0.991 -2.892,-0.008 -1.904,-0.363 -4.791,-0.9 -2.892,-0.536 -5.653,-0.999 -8.54,-0.999 -2.888,0.004 -5.65,0.472 -8.54,1.008 -2.888,0.537 -5.645,1.005 -8.536,1.014 -2.887,-0.005 -5.648,-0.468 -8.54,-1.005 -2.887,-0.536 -4.389,-1.125 -7.276,-1.138 -2.887,0 -5.649,0.454 -8.54,0.991 0,3.35 0,6.544 0,9.886 2.892,-0.532 5.653,-0.996 8.54,-0.996 2.888,0.017 4.39,0.602 7.276,1.139 2.892,0.541 5.653,1 8.54,1.009 2.892,-0.013 5.648,-0.477 8.536,-1.018 2.891,-0.536 5.652,-1 8.54,-1.008 2.887,0 5.648,0.463 8.54,1.004 2.887,0.537 1.899,0.892 4.791,0.9 2.882,0 5.644,-0.459 8.536,-0.996 z"
     id="path160" /><path
     d="m 428.656,506.598 c -0.329,0.216 -0.589,0.368 -0.879,0.515 -0.082,-0.139 -0.182,-0.255 -0.307,-0.363 0,-0.018 0,-0.035 0,-0.06 0.762,-0.281 1.454,-0.667 2.164,-1.091 0.017,0.009 0.034,0.018 0.056,0.026 0,1.73 0,3.385 0,5.111 -0.173,0.005 -0.342,0 -0.515,0.021 -0.178,0.018 -0.347,0.052 -0.52,0.082 0.001,-1.437 0.001,-2.809 0.001,-4.241"
     id="path162" /><path
     d="m 433.262,505.485 c -0.523,0.103 -0.689,0.848 -0.658,1.237 0.005,0.373 0.074,1.174 0.667,1.082 0.523,-0.103 0.632,-0.778 0.632,-1.182 -0.001,-0.436 -0.031,-1.224 -0.641,-1.137 z m -1.312,4.38 c 0.19,0.108 0.416,0.229 0.662,0.19 0.97,-0.182 1.26,-1.433 1.308,-2.207 0,-0.026 0,-0.052 0,-0.078 -0.018,-0.009 -0.035,-0.004 -0.057,-0.013 -0.229,0.29 -0.559,0.48 -0.892,0.536 -0.831,0.135 -1.463,-0.281 -1.476,-1.138 0,-0.559 0.1,-0.9 0.497,-1.377 0.325,-0.363 0.724,-0.537 1.169,-0.614 0.563,-0.105 1.073,-0.03 1.429,0.359 0.303,0.354 0.42,0.883 0.424,1.389 -0.004,0.728 -0.155,1.532 -0.571,2.226 -0.398,0.653 -1.095,1.116 -1.796,1.246 -0.151,0.026 -0.281,0.035 -0.425,0.009 -0.107,-0.039 -0.13,0.018 -0.16,-0.091 -0.047,-0.135 -0.095,-0.256 -0.164,-0.372 0.018,-0.017 0.04,-0.038 0.052,-0.065"
     id="path164" /><path
     d="m 437.438,509.185 c 0.555,-0.116 0.662,-0.913 0.662,-2.358 0,-1.645 -0.138,-2.182 -0.648,-2.103 -0.598,0.121 -0.706,0.917 -0.706,2.445 0,1.381 0.057,2.107 0.692,2.016 z m 1.776,-2.687 c 0,0.762 -0.044,1.567 -0.555,2.268 -0.329,0.429 -0.744,0.671 -1.229,0.754 -0.648,0.112 -1.077,-0.026 -1.406,-0.537 -0.324,-0.52 -0.386,-1.056 -0.39,-1.705 0.004,-0.511 0.103,-1.308 0.359,-1.81 0.342,-0.614 0.81,-0.97 1.459,-1.082 1.419,-0.226 1.753,0.925 1.762,2.112"
     id="path166" /><path
     d="m 441.174,504.671 c -0.328,0.226 -0.588,0.381 -0.878,0.555 -0.083,-0.139 -0.187,-0.242 -0.308,-0.338 0,-0.018 0,-0.034 0,-0.061 0.762,-0.347 1.45,-0.749 2.16,-1.155 0.022,0.013 0.043,0.025 0.065,0.034 0,1.728 0,3.381 0,5.112 -0.178,0 -0.346,-0.009 -0.52,0.004 -0.177,0.021 -0.346,0.057 -0.52,0.091 10e-4,-1.436 10e-4,-2.809 10e-4,-4.242"
     id="path168" /></g>
</svg>
