<?xml version="1.0" encoding="iso-8859-1"?>
<!-- Generator: Adobe Illustrator 24.0.1, SVG Export Plug-In . SVG Version: 6.00 Build 0)  -->
<svg version="1.1" id="Layer_1" xmlns="http://www.w3.org/2000/svg" xmlns:xlink="http://www.w3.org/1999/xlink" x="0px" y="0px"
	 viewBox="0 0 120 240" style="enable-background:new 0 0 120 240;" xml:space="preserve">
<path style="fill:#006394;" d="M59.5,15.5c36.332,0,58.185,12.098,64.66,16.283v87.969c0,0.464-0.326,47.511-22.65,76.324
	l-0.063,0.087l-0.069,0.094c-0.149,0.204-14.956,20.609-41.878,29.243c-26.922-8.634-41.732-29.039-41.881-29.243l-0.063-0.087
	l-0.069-0.094C-4.834,167.263-5.16,120.216-5.16,119.745V31.783C1.312,27.598,23.168,15.5,59.5,15.5"/>
<path style="fill:#FACA4F;" d="M59.5,19.401c34.514,0,55.277,11.692,61.432,15.731v85.034c-0.004,0.451-0.315,45.922-21.517,73.772
	l-0.063,0.083l-0.065,0.09c-0.142,0.201-14.208,19.921-39.786,28.27c-25.574-8.349-39.644-28.068-39.786-28.27l-0.062-0.083
	l-0.066-0.09C-1.62,166.089-1.928,120.618-1.928,120.16V35.133C4.222,31.094,24.987,19.401,59.5,19.401"/>
<path style="fill:#006394;" d="M59.846,22.657c32.784,0.111,52.48,11.454,58.31,15.375c-0.014,5.817-0.239,82.024-0.239,82.024
	c-0.003,0.437-0.426,44.293-20.651,71.09l-0.059,0.082l-0.059,0.092c-0.135,0.19-13.557,19.165-37.88,27.14
	c-24.272-8.134-37.582-27.202-37.714-27.396l-0.055-0.076l-0.066-0.09C1.37,163.965,1.204,120.102,1.204,119.661
	c0,0,0.225-76.196,0.239-82.02C7.301,33.761,27.059,22.547,59.846,22.657"/>
<path style="fill:#FACA4F;" d="M84.039,59.18c1.468,3.703,1.999,5.272,2.473,7.802c0.379,2.006,0.178,3.825-0.609,4.878
	c-0.911,1.233-3.336,3.174-8.11,2.051l0.007-0.007c-1.476-2.162-4.123-6.073-5.453-8.128c0.953-3.471,1.379-4.316,2.127-7.618
	c0,0,2.086,1.133,2.184,0.732c0.336-1.462,2.709-8.374,3.128-10.602c0,0,0.37,0.987,0.845,2.433
	C81.704,53.879,82.973,56.449,84.039,59.18 M60.557,35.185c-0.9,0.398-2.55,0.978-3.897,1.424c-0.308-0.737-0.339-1.33-0.215-2.203
	c1.137-0.177,2.786-0.398,3.873-0.398C61.003,34.007,61.193,34.88,60.557,35.185 M93.302,51.149c0.052-0.693,0.25-1.331,0.477-2.072
	c0.262-0.831,0.736-2.03,0.885-3.284c0.45-3.971-1.857-7.629-5.703-8.159c-1.008-0.131-5.082-0.786-7.93,3.469
	c-0.536,0.82-1.309,2.886-1.233,4.469c-1.399-3.34-3.108-7.116-4.981-9.922c-0.405-0.558-2.502-3.024-3.088-3.194
	c-2.625-0.686-5.75-1.414-8.237-1.805c-1.026,0.107-8.675,2.833-8.928,3.17c0,0-0.873,0.921-0.873,0.942
	c-1.819,0.443-5.56,1.018-5.834,1.378c-0.807,0.978-0.243,1.885,0.018,2.294c0.086,0.152,0.689,2.27,1.77,2.27h2.893
	c1.413-2.359,5.543-2.484,6.693,0.703c-1.088,0.45-1.947,0.952-4.078,0.686c-2.581-0.367-5.165,0.506-5.145,0.863
	c0.011,0.567,3.028,0.766,3.822,0.775c1.323,0.038,3.318,0.156,5.058,0.025c-0.87,1.227-2.567,1.704-3.739,1.704H50.51
	c0.218,0.977,0.613,1.885,1.167,2.644h1.902c1.254,0.073,0.877,0.544,0.603,1.313c-0.492,1.406-1.379,3.533-2.768,4.773
	c-4.705-4.095-10.999-9.215-15.437-12.472c-1.303-0.953-6.645-1.615-9.32-0.603c-0.762,0.291-1.247,0.925-1.524,1.42l1.33,0.389
	c-2.442,1.462-0.921,4.205-0.921,4.205c1.178-0.263,3.027-0.845,4.978,2.021l-1.649,1.313c0.838,0.599,5.858,1.171,7.289,0.277
	c0,0,5.924,7.909,6.562,8.252c0.336,0.174-2.411,0.333-5.492,0.551c-2.632,0.031-5.109,0.091-7.049,0.132
	c-1.746,0.038-3.018,1.354-3.441,2.502c-0.429,1.125-0.886,3.509-0.678,4.548l0.962-0.305c1.227,2.023,1.279,2.48,2.872,3.077
	c0.877-2.238,4.217-2.007,4.217-2.007l-0.038,2.041c4.621-0.021,5.068-3.367,5.068-3.367l9.022-0.145l5.702,6.918
	c-4.684,4.868-7.948,10.903-11.478,17.34c1.705,1.538,1.109,4.681-1.677,4.979c-1.905,0.197-4.008-1.556-6.565-0.978
	c-3.139,0.68-2.484,3.191-4.947,6.465c2.463,0.613,5.034,2.211,6.728,4.171c3.378-2.151,10.23-0.488,12.908,0.402
	c0.6,0.19,0.846-0.891,0.458-1.805c-0.322-0.742-0.762-1.892,0.031-3.776c0.72-1.697,8.776-9.881,14.478-15.067
	c0.034-0.031,2.01,1.452,3.981,2.917c3.091,2.259,7.206,4.564,7.206,4.564l0.821-0.063c3.752-0.808,4.385,2.494,3.967,3.606
	c-0.412,1.119-1.524,1.78-2.875,1.694c-1.483-0.125-3.142-0.846-5.148,0.332c-2.023,1.119-1.154,4.892-2.377,6.485
	c3.389,0,6.102,1.722,7.438,2.543c5.52-2.321,7.151-1.614,12.744-0.669c0.394,0.073,0.695-1.011,0.27-1.639
	c-0.406-0.582-1.033-2.134-0.911-3.43V87.602c-3.579,0.475-5.218-1.005-5.838-2.935c-0.472-1.431-1.819-4.368-2.692-6.232
	c0,0,5.51-0.152,8.485-3.71c1.108-1.341,2.063-4.05,1.555-6.6c-0.706-3.527-1.163-4.698-2.415-7.795
	c-1.029-2.574-2.93-7.248-3.724-9.93c-1.119-3.773-1.278-5.46-0.095-7.552c0.722-1.269,2.277-2.46,4.043-1.58
	c1.176,0.562,0.916,0.894,0.812,1.105c-1.444,2.221-2.026,5.116-1.424,7.153c0.842,2.852,3.534,5.148,4.712,5.903
	c0,0,1.969,1.275,2.363,0.974C95.641,55.698,93.199,52.268,93.302,51.149"/>
<path style="fill:#FACA4F;" d="M50.867,152.189h-0.769c-0.957-3.7-5.194-7.764-11.094-7.764c-2.809,0-5.674,1.402-5.674,4.198
	c0,6.77,18.77,7.671,18.77,16.921c0,3.831-3.821,8.162-11.859,8.162c-4.271,0-7.026-1.535-8.713-1.535
	c-1.181,0-1.742,0.765-1.742,1.486h-1.234l-1.687-9.562h1.296c1.063,2.123,3.932,7.981,11.519,7.981
	c4.497,0,6.738-2.566,6.738-5.002c0-2.574-0.894-4.109-9.153-7.989c-5.172-2.391-8.772-4.372-8.772-8.841
	c0-5.145,5.117-7.667,10.175-7.667c3.374,0,6.406,1.534,7.812,1.534c1.574,0,1.854-1.039,1.965-1.534h1.181L50.867,152.189"/>
<path style="fill:#FACA4F;" d="M95.146,143.652c-3.271,0.226-4.519,0.496-4.519,4.058v20.031c0,3.479,1.195,3.88,4.519,4.061v0.858
	H80.619v-0.858c4.043-0.181,4.722-0.857,4.722-4.553v-20.257h-0.106L72.059,172.66h-0.728l-12.919-24.632h-0.107v18.001
	c0,4.646,1.091,5.637,4.875,5.773v0.858H50.988v-0.858c3.946-0.226,5.033-0.901,5.033-5.773V147.71c0-3.517-1.087-3.881-4.926-4.058
	v-0.855h10.272l11.986,22.782l11.461-22.782h10.332V143.652"/>
<path style="fill:#FACA4F;" d="M56.552,117.725l-1.234-9.61h-1.181c-0.118,0.496-0.395,1.532-1.971,1.532H27.443v0.91
	c3.327,0.236,4.591,0.521,4.591,4.282v20.606c0,3.904-0.631,4.618-4.591,4.809v0.908h14.776v-0.908
	c-3.748-0.142-4.802-0.714-4.802-4.285v-10.421l6.25,0.094c3.96,0.048,5.225,0.522,5.807,4.524h1.213v-11.045h-1.213
	c-0.527,3.568-1.476,4.518-5.807,4.518h-6.25v-10.566c0-1.421,0.368-1.614,1.688-1.614h8.106c2.651,0.094,4.293,0.492,5.651,1.722
	c0.305,0.28,0.586,0.537,0.846,0.786c1.035,1.171,1.752,2.487,2.082,3.759H56.552"/>
<path style="fill:#FACA4F;" d="M28.341,178.762h4.282v1.319h-0.18c-0.167-0.683-0.371-1.095-1.67-1.095
	c-0.405,0-0.544,0.028-0.544,0.305v1.524c0.936,0.015,1.05-0.45,1.157-0.977h0.188v2.221h-0.188
	c-0.087-0.537-0.208-1.019-1.157-1.019v1.527c0,0.436,0.305,0.451,0.832,0.465v0.166h-2.72v-0.166
	c0.43-0.035,0.668-0.056,0.668-0.465v-3.177c0-0.433-0.311-0.446-0.668-0.464V178.762"/>
<path style="fill:#FACA4F;" d="M35.769,178.661c-1.452,0-2.671,0.9-2.671,2.335c0,1.379,1.126,2.328,2.671,2.328
	c1.552,0,2.678-0.949,2.678-2.328C38.447,179.561,37.227,178.661,35.769,178.661 M35.769,178.883c1.063,0,1.337,1.157,1.337,2.113
	c0,0.568-0.042,2.113-1.337,2.113c-1.289,0-1.334-1.545-1.334-2.113C34.435,180.04,34.715,178.883,35.769,178.883"/>
<path style="fill:#FACA4F;" d="M41.645,178.661c-1.459,0-2.672,0.9-2.672,2.335c0,1.379,1.126,2.328,2.672,2.328
	c1.551,0,2.674-0.949,2.674-2.328C44.319,179.561,43.103,178.661,41.645,178.661 M41.645,178.883c1.056,0,1.336,1.157,1.336,2.113
	c0,0.568-0.041,2.113-1.336,2.113c-1.29,0-1.334-1.545-1.334-2.113C40.311,180.04,40.591,178.883,41.645,178.883"/>
<path style="fill:#FACA4F;" d="M48.154,183.199h-2.692v-0.166c0.551-0.035,0.731-0.049,0.731-0.597v-3.464
	c-0.53,0.027-1.306,0.056-1.459,1.108H44.52l0.021-1.319h4.527l0.021,1.319h-0.221c-0.153-1.053-0.929-1.081-1.452-1.108v3.464
	c0,0.555,0.18,0.568,0.738,0.597V183.199"/>
<path style="fill:#FACA4F;" d="M49.439,183.199h2.432c1.594-0.027,2.124-0.669,2.124-1.221c0-0.747-0.797-1.076-1.431-1.17v-0.014
	c0.319-0.083,1.171-0.253,1.171-0.98c0-1.025-1.538-1.053-1.961-1.053h-2.335v0.166c0.347,0.018,0.665,0.031,0.665,0.464v3.177
	c0,0.402-0.239,0.43-0.665,0.465V183.199z M51.313,179.281c0.007-0.152,0.014-0.322,0.399-0.322c0.613,0,0.779,0.388,0.779,0.845
	c0,0.673-0.166,0.946-1.178,0.946V179.281z M51.313,180.947h0.226c0.488,0.021,1.157,0.118,1.157,1.061
	c0,0.401-0.101,0.983-0.928,0.983c-0.319,0-0.455-0.104-0.455-0.401V180.947"/>
<path style="fill:#FACA4F;" d="M59.333,183.033c-0.363,0.018-0.481-0.205-0.824-0.908l-1.684-3.457h-0.211l-1.673,3.604
	c-0.229,0.488-0.333,0.713-0.742,0.762v0.166h1.528v-0.166c-0.253-0.014-0.617-0.028-0.617-0.277c0-0.107,0.122-0.378,0.337-0.849
	h1.697c0.107,0.211,0.347,0.696,0.347,0.873c0,0.218-0.139,0.225-0.607,0.253v0.166h2.449V183.033z M55.558,181.648l0.71-1.594
	l0.762,1.594H55.558"/>
<path style="fill:#FACA4F;" d="M64.087,183.199h-4.358v-0.166c0.419-0.042,0.644-0.063,0.644-0.465v-3.177
	c0-0.433-0.305-0.446-0.644-0.464v-0.166h2.628v0.166c-0.522,0.018-0.762,0.024-0.762,0.603v3.101c0,0.315,0.166,0.367,0.676,0.367
	c1.137,0,1.56-0.547,1.91-1.288h0.217L64.087,183.199"/>
<path style="fill:#FACA4F;" d="M69.124,183.199h-4.36v-0.166c0.418-0.042,0.646-0.063,0.646-0.465v-3.177
	c0-0.433-0.309-0.446-0.646-0.464v-0.166h2.633v0.166c-0.527,0.018-0.764,0.024-0.764,0.603v3.101c0,0.315,0.166,0.367,0.672,0.367
	c1.141,0,1.563-0.547,1.913-1.288h0.218L69.124,183.199"/>
<path style="fill:#FACA4F;" d="M76.725,182.368c-0.547,0.547-1.136,0.956-2.103,0.956c-1.761,0-2.709-1.074-2.709-2.303
	c0-1.335,1.085-2.36,2.671-2.36c0.684,0,1.266,0.325,1.458,0.325c0.205,0,0.274-0.139,0.351-0.305h0.2v1.538h-0.19
	c-0.26-0.571-0.896-1.337-1.76-1.337c-1.098,0-1.393,1.005-1.393,2.113c0,0.395,0.042,1.021,0.322,1.44
	c0.318,0.479,0.914,0.575,1.146,0.575c0.59,0,1.157-0.2,1.784-0.811L76.725,182.368"/>
<path style="fill:#FACA4F;" d="M81.502,183.199h-4.365v-0.166c0.424-0.042,0.652-0.063,0.652-0.465v-3.177
	c0-0.433-0.313-0.446-0.652-0.464v-0.166h2.635v0.166c-0.524,0.018-0.764,0.024-0.764,0.603v3.101c0,0.315,0.166,0.367,0.676,0.367
	c1.137,0,1.56-0.547,1.905-1.288h0.222L81.502,183.199"/>
<path style="fill:#FACA4F;" d="M87.323,178.928c-0.416,0.049-0.589,0.121-0.589,0.558v2.096c0,0.385-0.108,0.974-0.424,1.265
	c-0.377,0.354-1.035,0.479-1.49,0.479c-0.331,0-1.038-0.042-1.53-0.409c-0.322-0.253-0.522-0.479-0.522-1.191v-2.193
	c0-0.554-0.194-0.564-0.617-0.603v-0.166h2.55v0.166c-0.495,0.018-0.728,0.024-0.728,0.603v2.193c0,0.374,0,1.281,1.084,1.281
	c1.33,0,1.344-1.004,1.344-1.424v-2.006c0-0.401-0.09-0.623-0.74-0.647v-0.166h1.663V178.928"/>
<path style="fill:#FACA4F;" d="M87.604,183.199h2.433c1.589-0.027,2.12-0.669,2.12-1.221c0-0.747-0.797-1.076-1.432-1.17v-0.014
	c0.318-0.083,1.174-0.253,1.174-0.98c0-1.025-1.541-1.053-1.963-1.053h-2.332v0.166c0.342,0.018,0.666,0.031,0.666,0.464v3.177
	c0,0.402-0.244,0.43-0.666,0.465V183.199z M89.475,180.947h0.225c0.496,0.021,1.156,0.118,1.156,1.061
	c0,0.401-0.096,0.983-0.928,0.983c-0.314,0-0.453-0.104-0.453-0.401V180.947z M89.475,179.281c0.01-0.152,0.018-0.322,0.398-0.322
	c0.613,0,0.779,0.388,0.779,0.845c0,0.673-0.166,0.946-1.178,0.946V179.281"/>
<path style="fill:#FACA4F;" d="M30.489,186.934c-0.09-0.346-0.392-0.918-0.977-0.918c-0.26,0-0.533,0.149-0.533,0.472
	c0,0.27,0.096,0.377,0.516,0.585l0.731,0.36c0.166,0.09,0.547,0.374,0.547,0.915c0,0.443-0.322,1.039-1.237,1.039
	c-0.471,0-0.689-0.166-0.845-0.166c-0.108,0-0.128,0.09-0.149,0.166h-0.146v-1.227h0.146c0.097,0.499,0.384,1.067,1.015,1.067
	c0.596,0,0.624-0.495,0.624-0.558c0-0.336-0.236-0.454-0.558-0.606l-0.333-0.159c-0.849-0.409-0.849-0.835-0.849-1.061
	c0-0.305,0.153-0.98,1.095-0.98c0.399,0,0.634,0.163,0.779,0.163c0.111,0,0.136-0.076,0.164-0.17h0.148v1.077H30.489"/>
<path style="fill:#FACA4F;" d="M32.917,185.863c-0.959,0-1.76,0.683-1.76,1.764c0,1.043,0.742,1.76,1.76,1.76
	c1.019,0,1.76-0.717,1.76-1.76C34.677,186.546,33.877,185.863,32.917,185.863 M32.917,186.026c0.693,0,0.88,0.873,0.88,1.601
	c0,0.43-0.031,1.6-0.88,1.6c-0.852,0-0.879-1.171-0.879-1.6C32.038,186.899,32.221,186.026,32.917,186.026"/>
<path style="fill:#FACA4F;" d="M38.263,188.659c-0.364,0.416-0.752,0.728-1.386,0.728c-1.16,0-1.784-0.811-1.784-1.742
	c0-1.009,0.717-1.781,1.76-1.781c0.447,0,0.828,0.239,0.956,0.239c0.135,0,0.177-0.104,0.229-0.225h0.135v1.161h-0.125
	c-0.173-0.43-0.589-1.012-1.157-1.012c-0.727,0-0.918,0.759-0.918,1.601c0,0.298,0.028,0.772,0.212,1.091
	c0.211,0.357,0.602,0.434,0.754,0.434c0.389,0,0.763-0.149,1.175-0.61L38.263,188.659"/>
<path style="fill:#FACA4F;" d="M42.206,189.297h-1.687v-0.128c0.259-0.028,0.446-0.049,0.446-0.35v-1.143h-1.198v1.143
	c0,0.302,0.187,0.322,0.45,0.35v0.128H38.54v-0.128c0.263-0.035,0.423-0.056,0.423-0.35v-2.404c0-0.325-0.212-0.336-0.423-0.354
	v-0.124h1.677v0.124c-0.222,0.015-0.45,0.021-0.45,0.354v1.025h1.198v-1.025c0-0.332-0.228-0.339-0.446-0.354v-0.124h1.687v0.124
	c-0.212,0.015-0.437,0.028-0.437,0.354v2.404c0,0.298,0.173,0.315,0.437,0.35V189.297"/>
<path style="fill:#FACA4F;" d="M44.208,188.122l-0.502-1.205l-0.465,1.205H44.208z M45.726,189.297h-1.612v-0.128
	c0.309-0.024,0.399-0.028,0.399-0.191c0-0.135-0.159-0.506-0.229-0.666h-1.119c-0.135,0.365-0.218,0.566-0.218,0.646
	c0,0.188,0.239,0.201,0.409,0.212v0.128h-1.008v-0.128c0.266-0.035,0.336-0.208,0.481-0.582l1.105-2.72h0.142l1.106,2.611
	c0.225,0.53,0.304,0.7,0.544,0.69V189.297"/>
<path style="fill:#FACA4F;" d="M49.124,186.061c-0.274,0.042-0.388,0.094-0.388,0.42v1.59c0,0.291-0.069,0.734-0.277,0.956
	c-0.25,0.271-0.679,0.36-0.977,0.36c-0.222,0-0.69-0.027-1.012-0.312c-0.215-0.188-0.343-0.364-0.343-0.901v-1.659
	c0-0.412-0.128-0.426-0.405-0.454v-0.124h1.677v0.124c-0.329,0.015-0.482,0.018-0.482,0.454v1.659c0,0.284,0,0.971,0.717,0.971
	c0.873,0,0.884-0.759,0.884-1.074v-1.518c0-0.305-0.059-0.475-0.489-0.492v-0.124h1.095V186.061"/>
<path style="fill:#FACA4F;" d="M52.647,186.061c-0.45,0.042-0.547,0.174-1.33,1.278l0.904,1.403c0.26,0.409,0.34,0.416,0.482,0.427
	v0.128h-1.691v-0.128c0.26-0.015,0.399-0.024,0.399-0.16c0-0.048-0.056-0.18-0.104-0.253l-0.503-0.807l-0.19,0.253
	c-0.412,0.554-0.468,0.665-0.468,0.759c0,0.173,0.229,0.193,0.402,0.208v0.128h-1.244v-0.128c0.174-0.024,0.34-0.049,0.523-0.277
	l0.866-1.095l-0.984-1.448c-0.104-0.152-0.19-0.277-0.398-0.288v-0.124h1.722v0.124c-0.295,0.018-0.395,0.018-0.395,0.163
	c0,0.065,0.014,0.097,0.076,0.184l0.482,0.748c0.564-0.789,0.564-0.789,0.564-0.921c0-0.156-0.138-0.159-0.356-0.174v-0.124h1.243
	V186.061"/>
<path style="fill:#FACA4F;" d="M58.63,189.297h-1.645v-0.128c0.298-0.028,0.44-0.042,0.44-0.371v-2.509h-0.01l-1.244,3.008h-0.132
	l-1.24-2.931h-0.014v2.314c0,0.347,0.093,0.465,0.502,0.489v0.128H54.13v-0.128c0.381-0.035,0.447-0.107,0.447-0.397v-2.357
	c0-0.26-0.087-0.332-0.44-0.354v-0.124h1.254l0.994,2.342l0.998-2.342h1.247v0.124c-0.277,0.018-0.433,0.028-0.433,0.454v2.196
	c0,0.402,0.108,0.416,0.433,0.458V189.297"/>
<path style="fill:#FACA4F;" d="M60.678,185.863c-0.96,0-1.757,0.683-1.757,1.764c0,1.043,0.742,1.76,1.757,1.76
	c1.022,0,1.76-0.717,1.76-1.76C62.438,186.546,61.639,185.863,60.678,185.863 M60.678,186.026c0.696,0,0.885,0.873,0.885,1.601
	c0,0.43-0.033,1.6-0.885,1.6c-0.849,0-0.877-1.171-0.877-1.6C59.801,186.899,59.981,186.026,60.678,186.026"/>
<path style="fill:#FACA4F;" d="M62.693,189.169c0.299-0.035,0.438-0.066,0.438-0.397v-2.351c-0.277-0.346-0.359-0.36-0.423-0.36
	v-0.124h1.046l1.725,2.12h0.008v-1.504c0-0.298-0.059-0.464-0.461-0.492v-0.124h1.07v0.124c-0.359,0.042-0.388,0.156-0.388,0.396
	v2.931H65.57l-2.215-2.695h-0.01v1.988c0,0.357,0.107,0.454,0.475,0.489v0.128h-1.127V189.169"/>
<path style="fill:#FACA4F;" d="M68.743,189.297h-1.774v-0.128c0.367-0.028,0.489-0.035,0.489-0.458v-2.615
	c-0.354,0.02-0.862,0.041-0.96,0.838H66.35l0.018-0.997h2.982l0.01,0.997h-0.142c-0.103-0.797-0.614-0.817-0.96-0.838v2.615
	c0,0.423,0.121,0.434,0.485,0.458V189.297"/>
<path style="fill:#FACA4F;" d="M69.592,189.297h1.6c1.048-0.024,1.396-0.506,1.396-0.925c0-0.568-0.523-0.818-0.938-0.884v-0.014
	c0.211-0.063,0.769-0.194,0.769-0.741c0-0.776-1.015-0.797-1.289-0.797h-1.538v0.124c0.229,0.015,0.436,0.021,0.436,0.354v2.404
	c0,0.302-0.158,0.322-0.436,0.35V189.297z M70.825,186.328c0.007-0.115,0.01-0.246,0.263-0.246c0.402,0,0.51,0.298,0.51,0.644
	c0,0.506-0.108,0.714-0.772,0.714V186.328z M70.825,187.592h0.149c0.321,0.015,0.758,0.087,0.758,0.797
	c0,0.306-0.065,0.745-0.609,0.745c-0.211,0-0.298-0.08-0.298-0.305V187.592"/>
<path style="fill:#FACA4F;" d="M72.907,185.936h2.864v0.997h-0.125c-0.113-0.703-0.463-0.831-1.139-0.831
	c-0.27,0-0.361,0.021-0.361,0.235v1.154c0.479,0.003,0.735-0.125,0.805-0.742h0.132v1.677h-0.132
	c-0.055-0.62-0.311-0.766-0.805-0.766v1.202c0,0.219,0.095,0.277,0.416,0.277c0.489,0,0.998-0.132,1.311-0.88h0.138l-0.2,1.036
	h-2.903v-0.128c0.284-0.028,0.44-0.042,0.44-0.35v-2.404c0-0.332-0.216-0.339-0.44-0.354V185.936z M74.396,185.628H74.12
	l0.675-0.779c0.118-0.129,0.212-0.139,0.26-0.139c0.094,0,0.246,0.038,0.246,0.222c0,0.132-0.083,0.18-0.197,0.255L74.396,185.628"
	/>
<path style="fill:#FACA4F;" d="M79.109,189.297h-2.873v-0.128c0.277-0.035,0.427-0.049,0.427-0.35v-2.404
	c0-0.332-0.205-0.339-0.427-0.354v-0.124h1.733v0.124c-0.346,0.015-0.503,0.018-0.503,0.454v2.349c0,0.239,0.108,0.277,0.444,0.277
	c0.752,0,1.025-0.412,1.257-0.974h0.144L79.109,189.297"/>
<path style="fill:#FACA4F;" d="M81.291,189.297h-1.734v-0.128c0.262-0.024,0.459-0.042,0.459-0.35v-2.404
	c0-0.332-0.234-0.339-0.459-0.354v-0.124h1.734v0.124c-0.232,0.011-0.471,0.015-0.471,0.354v2.404c0,0.315,0.201,0.333,0.471,0.35
	V189.297"/>
<path style="fill:#FACA4F;" d="M82.324,188.122l0.468-1.205l0.502,1.205H82.324z M84.809,189.169c-0.236,0.01-0.319-0.16-0.537-0.69
	l-1.112-2.611h-0.14l-1.102,2.72c-0.145,0.374-0.218,0.547-0.488,0.582v0.128h1.008v-0.128c-0.166-0.011-0.408-0.024-0.408-0.212
	c0-0.079,0.082-0.28,0.222-0.646h1.119c0.069,0.16,0.229,0.531,0.229,0.666c0,0.163-0.092,0.167-0.399,0.191v0.128h1.608V189.169"/>
<path style="fill:#FACA4F;" d="M88.525,189.297h-1.02l-1.025-1.56h-0.135v0.974c0,0.402,0.107,0.416,0.437,0.458v0.128h-1.681
	v-0.128c0.336-0.035,0.438-0.053,0.438-0.458v-2.196c0-0.426-0.153-0.437-0.438-0.454v-0.124h1.602c0.346,0,1.4,0.041,1.4,0.873
	c0,0.609-0.511,0.762-0.78,0.852l1.001,1.414c0.066,0.086,0.142,0.094,0.201,0.094V189.297z M86.346,187.585
	c0.648-0.014,0.907-0.117,0.907-0.766c0-0.499-0.204-0.717-0.599-0.717c-0.274,0-0.284,0.056-0.309,0.211V187.585"/>
<path style="fill:#FACA4F;" d="M88.632,189.297h1.57c1.247-0.042,1.787-0.818,1.787-1.732c0-0.762-0.453-1.628-1.847-1.628h-1.511
	v0.124c0.191,0.018,0.412,0.028,0.412,0.333v2.449c0,0.184-0.103,0.326-0.412,0.326V189.297z M89.85,186.338
	c-0.009-0.107-0.016-0.235,0.303-0.235c0.856,0,0.972,1.06,0.972,1.511c0,1.191-0.437,1.507-0.995,1.507
	c-0.234,0-0.279-0.09-0.279-0.291V186.338"/>
<path style="fill:#FACA4F;" d="M87.889,135.515c-0.621,1.365-1.699,2.578-3.098,3.559l-3.036-1.206l-5.108,1.563l-1.013,2.189
	c-0.26,0.014-0.516,0.027-0.78,0.027c-5.164,0-9.686-3.031-12.201-7.573l2.048-0.952l0.356-6.024l-3.834-3.568l-0.565,0.312
	c0.464-4.154,2.38-7.815,5.173-10.331c0.918-0.911,2.068-1.688,3.391-2.276l2.475,1.784l5.41-0.415l2.106-2.249
	c3.763,0.891,6.711,3.091,7.806,5.865c0.271,0.562,0.457,1.144,0.537,1.732h0.793l-1.223-9.655h-1.164
	c-0.014,1.527-1.833,1.527-2.113,1.527c-1.088,0-4.07-1.337-8.193-1.621c-0.703-0.083-1.42-0.132-2.144-0.132
	c-10.126,0-18.33,8.204-18.33,18.32c0,10.126,8.204,18.327,18.33,18.327c6.379,0,11.997-3.264,15.275-8.211L87.889,135.515"/>
<polygon style="fill:#FACA4F;" points="69.869,125.696 74.13,130.977 79.859,129.806 81.52,124.339 77.857,119.638 72.359,120.153 
	"/>
</svg>
