<?xml version="1.0" encoding="iso-8859-1"?>
<!-- Generator: Adobe Illustrator 24.0.1, SVG Export Plug-In . SVG Version: 6.00 Build 0)  -->
<svg version="1.1" id="Layer_1" xmlns="http://www.w3.org/2000/svg" xmlns:xlink="http://www.w3.org/1999/xlink" x="0px" y="0px"
	 viewBox="0 0 660 660" style="enable-background:new 0 0 660 660;" xml:space="preserve">
<path style="fill:#EE3124;" d="M651.001,287.273c-2.952,174.507-146.148,315.916-321.338,315.916S11.277,461.777,8.325,287.27l0,0
	l58.493,33.772l64.393-64.392h396.904l64.393,64.392L651.001,287.273L651.001,287.273z"/>
<path style="fill:#FFFFFF;" d="M631.496,318.552c-18.252,150.244-146.799,267.299-301.833,267.299
	c-155.033,0-283.581-117.055-301.836-267.299l0,0L69.67,342.71l73.801-73.799h372.386l73.798,73.799L631.496,318.552
	L631.496,318.552z"/>
<path style="fill:#EE3124;" d="M329.663,56.394c124.14,0,225.388,101.247,225.388,225.385c0,124.14-101.248,225.388-225.388,225.388
	c-124.137,0-225.387-101.248-225.387-225.388C104.276,157.642,205.526,56.394,329.663,56.394L329.663,56.394z"/>
<path style="fill:#FFFFFF;" d="M329.663,73.732c114.59,0,208.05,93.459,208.05,208.048s-93.46,208.05-208.05,208.05
	s-208.048-93.461-208.048-208.05S215.073,73.732,329.663,73.732L329.663,73.732z"/>
<path style="fill:#EE3124;" d="M303.237,273.456h48.89v26.686h-48.89v175.899l0,0c-9.107-1.236-18.016-3.103-26.685-5.558l0,0
	V93.075l0,0c16.9-4.778,34.717-7.341,53.112-7.341c9.929,0,19.688,0.753,29.227,2.189l0,0v27.018l0,0
	c-9.499-1.664-19.265-2.532-29.227-2.532c-8.986,0-17.812,0.704-26.426,2.065l0,0V273.456L303.237,273.456z M402.178,128.775v306.01
	l0,0c36.109-17.212,65.241-46.836,81.804-83.304l0,0l22.482,14.867l0,0c-25.246,52.482-73.193,92.122-130.971,106.049l0,0V91.17l0,0
	c53.754,12.959,98.996,48.171,125.366,95.279l0,0l-22.297,14.747l0,0C461.438,169.728,434.625,144.237,402.178,128.775
	L402.178,128.775z M259.95,464.971c-9.251-3.539-18.166-7.764-26.687-12.603l0,0v-31.475l0,0l0,0l0,0V300.142h-71.97l0,0
	c3.236,29.779,14.249,57.275,30.948,80.422l0,0L171.664,397.6l0,0c-23.897-32.488-38.047-72.552-38.047-115.821
	c0-83.442,52.601-154.98,126.333-183.189l0,0V464.971L259.95,464.971z M233.263,273.456V142.665l0,0
	c-41.902,29.149-70.124,76.702-72.765,130.791l0,0H233.263L233.263,273.456z"/>
<path style="fill:#ED1C24;stroke:#ED1C24;stroke-width:0.6127;stroke-miterlimit:1;" d="M554.453,474.649l-38.578-32.372
	l-11.559,13.773l-7.863-6.594l30.967-36.903l7.858,6.594l-11.527,13.744l38.577,32.369L554.453,474.649L554.453,474.649z
	 M494.767,528.111l-38.149-47.112l34.923-28.282l6.458,7.976l-25.414,20.58l8.458,10.44l23.647-19.15l6.423,7.931l-23.649,19.15
	l10.383,12.824l26.313-21.31l6.433,7.941L494.767,528.111L494.767,528.111z M250.993,566.175l14.666-58.821l11.873,2.959
	l-14.665,58.82L250.993,566.175L250.993,566.175z M161.872,445.387l8.78,8.481l-26.659,27.607l0,0
	c-3.48,3.603-6.492,6.072-8.994,7.406c-3.303,1.713-6.816,2.262-10.542,1.629c-3.732-0.621-7.422-2.715-11.087-6.254
	c-4.307-4.155-6.461-8.552-6.454-13.212c0.011-4.641,2.246-9.315,6.735-13.983l0,0l9.216,7.056l0,0
	c-2.31,2.595-3.649,4.715-4.023,6.358c-0.555,2.486,0.142,4.67,2.082,6.541c1.958,1.895,3.891,2.679,5.79,2.336
	c1.892-0.333,4.544-2.267,7.956-5.798l0,0L161.872,445.387L161.872,445.387z M74.287,383.936l6.452,10.085l0,0
	c-3.249,2.447-5.207,5.074-5.879,7.891c-0.669,2.794-0.171,5.85,1.521,9.171c1.788,3.51,3.882,5.786,6.282,6.796
	c2.392,1.028,4.584,1.039,6.57,0.027c1.284-0.656,2.172-1.584,2.681-2.794c0.53-1.203,0.64-2.907,0.339-5.115
	c-0.194-1.499-0.9-4.815-2.082-9.931c-1.531-6.584-1.838-11.596-0.92-15.022c1.275-4.833,4.049-8.34,8.327-10.518
	c2.752-1.403,5.716-1.932,8.913-1.593c3.182,0.341,6.153,1.664,8.906,3.954c2.745,2.304,5.172,5.518,7.286,9.669
	c3.462,6.792,4.572,12.64,3.355,17.586c-1.239,4.939-4.282,8.755-9.162,11.464l0,0l-6.032-10.662l0,0
	c2.541-1.88,4.026-3.904,4.454-6.053c0.438-2.155-0.129-4.766-1.695-7.835c-1.614-3.168-3.525-5.332-5.743-6.451
	c-1.417-0.736-2.833-0.745-4.23-0.033c-1.283,0.656-2.1,1.751-2.457,3.297c-0.456,1.959,0.042,5.92,1.5,11.86
	c1.446,5.946,2.15,10.533,2.112,13.752c-0.053,3.223-0.863,6.141-2.453,8.774c-1.597,2.619-4.099,4.797-7.507,6.534
	c-3.09,1.576-6.432,2.201-10.002,1.848c-3.581-0.347-6.83-1.748-9.739-4.225c-2.925-2.469-5.577-6.06-7.967-10.753
	c-3.48-6.827-4.581-12.872-3.288-18.142C65.122,392.252,68.608,387.718,74.287,383.936L74.287,383.936z M96.777,441.993
	c3.821,0,6.935,3.115,6.935,6.933c0,3.821-3.114,6.936-6.935,6.936c-3.82,0-6.933-3.115-6.933-6.936
	C89.844,445.108,92.957,441.993,96.777,441.993L96.777,441.993z M148.682,499.272c3.819,0,6.935,3.117,6.935,6.935
	c0,3.82-3.115,6.936-6.935,6.936c-3.821,0-6.937-3.116-6.937-6.936C141.746,502.389,144.861,499.272,148.682,499.272
	L148.682,499.272z M213.791,514.871l8.2,3.825l0,0c5.322,2.48,8.747,3.815,10.289,3.987c1.524,0.167,2.925-0.131,4.193-0.878
	c1.255-0.755,2.275-1.945,3.045-3.597c0.866-1.853,1.061-3.57,0.606-5.167c-0.456-1.599-1.515-2.964-3.177-4.112
	c-0.84-0.534-3.51-1.856-8.012-3.957l0,0l-8.648-4.029L213.791,514.871L213.791,514.871z M187.901,541.405l25.619-54.941
	l23.357,10.893l0,0c5.875,2.736,9.899,5.223,12.1,7.447c2.202,2.225,3.52,4.975,3.948,8.242c0.416,3.279-0.133,6.525-1.649,9.774
	c-1.919,4.119-4.729,6.968-8.397,8.528c-3.665,1.544-8.09,1.553-13.235-0.004c1.747,2.528,3.016,4.986,3.793,7.389
	c0.78,2.406,1.495,6.352,2.148,11.856l0,0l1.718,13.853l-13.265-6.186l-2.442-15.699l0,0c-0.863-5.606-1.551-9.195-2.084-10.8
	c-0.528-1.603-1.29-2.873-2.271-3.844c-0.986-0.959-2.746-2.028-5.303-3.222l0,0l-2.238-1.043l-10.698,22.933L187.901,541.405
	L187.901,541.405z M279.331,544.338c0.537-6.156,1.892-11.247,4.112-15.254c1.635-2.951,3.754-5.555,6.348-7.792
	c2.587-2.226,5.354-3.798,8.278-4.743c3.913-1.264,8.309-1.682,13.231-1.251c8.899,0.778,15.77,4.161,20.633,10.149
	c4.858,5.984,6.861,13.893,5.999,23.721c-0.85,9.754-4.172,17.15-9.958,22.193c-5.779,5.038-13.11,7.17-21.969,6.396
	c-8.987-0.786-15.892-4.151-20.711-10.085C280.469,561.725,278.489,553.942,279.331,544.338L279.331,544.338z M291.922,545.028
	c-0.596,6.834,0.534,12.166,3.379,15.965c2.85,3.812,6.708,5.916,11.572,6.341c4.851,0.424,8.998-0.969,12.428-4.211
	c3.414-3.23,5.43-8.338,6.045-15.34c0.604-6.917-0.455-12.218-3.186-15.89c-2.732-3.677-6.629-5.724-11.644-6.164
	c-5.034-0.439-9.239,0.932-12.618,4.109C294.529,533.01,292.531,538.071,291.922,545.028L291.922,545.028z M435.576,558.325
	l-25.62-54.943l23.357-10.892l0,0c5.871-2.736,10.364-4.225,13.482-4.481c3.122-0.255,6.076,0.497,8.849,2.274
	c2.784,1.785,4.915,4.296,6.431,7.545c1.92,4.121,2.304,8.104,1.133,11.914c-1.168,3.802-4.011,7.2-8.51,10.139
	c3.061,0.285,5.759,0.895,8.102,1.841c2.341,0.948,5.809,2.962,10.464,5.978l0,0l11.712,7.589l-13.263,6.183l-13.599-8.222l0,0
	c-4.85-2.933-8.043-4.721-9.611-5.343c-1.567-0.626-3.035-0.867-4.407-0.733c-1.368,0.131-3.32,0.798-5.875,1.991l0,0l-2.239,1.045
	l10.694,22.936L435.576,558.325L435.576,558.325z M431.892,521.434l8.199-3.823l0,0c5.321-2.482,8.549-4.249,9.666-5.318
	c1.113-1.061,1.789-2.326,2.025-3.777c0.234-1.445-0.027-2.994-0.795-4.644c-0.866-1.854-2.058-3.106-3.574-3.785
	c-1.515-0.679-3.25-0.771-5.191-0.211c-0.957,0.277-3.676,1.499-8.181,3.595l0,0l-8.646,4.036L431.892,521.434L431.892,521.434z
	 M377.675,574.819L363.008,516l19.052-4.752l0,0c7.215-1.8,12-2.662,14.341-2.63c3.586,0.049,6.898,1.248,9.909,3.638
	c3.014,2.391,5.103,5.93,6.267,10.598c0.9,3.618,0.997,6.823,0.297,9.602c-0.702,2.792-1.872,5.136-3.551,7.053
	c-1.663,1.9-3.475,3.362-5.454,4.313c-2.688,1.289-6.732,2.582-12.114,3.92l0,0l-7.739,1.932l5.531,22.185L377.675,574.819
	L377.675,574.819z M377.367,522.994l4.157,16.681l6.491-1.619l0,0c4.682-1.167,7.745-2.253,9.164-3.261
	c1.422-1.007,2.423-2.272,2.993-3.816c0.57-1.53,0.636-3.169,0.202-4.905c-0.533-2.137-1.604-3.746-3.21-4.829
	c-1.59-1.073-3.413-1.539-5.415-1.417c-1.49,0.092-4.373,0.671-8.645,1.733l0,0L377.367,522.994L377.367,522.994z M553.344,428.276
	c-5.406-2.997-9.496-6.311-12.263-9.959c-2.021-2.7-3.542-5.692-4.535-8.969c-0.978-3.27-1.306-6.435-0.966-9.494
	c0.426-4.089,1.842-8.273,4.238-12.593c4.332-7.816,10.214-12.722,17.663-14.723c7.442-2.007,15.48-0.618,24.11,4.164
	c8.566,4.751,13.964,10.793,16.225,18.128c2.248,7.331,1.218,14.895-3.095,22.67c-4.373,7.889-10.253,12.825-17.636,14.818
	C569.69,434.303,561.775,432.949,553.344,428.276L553.344,428.276z M559.096,417.056c6,3.324,11.328,4.453,15.958,3.407
	c4.639-1.061,8.132-3.724,10.5-7.994c2.362-4.261,2.773-8.613,1.206-13.067c-1.561-4.43-5.406-8.354-11.554-11.761
	c-6.073-3.368-11.344-4.545-15.815-3.555c-4.467,1.011-7.921,3.728-10.365,8.133c-2.451,4.419-2.903,8.817-1.378,13.198
	C549.184,409.782,552.984,413.666,559.096,417.056L559.096,417.056z"/>
</svg>
