<?xml version="1.0" encoding="iso-8859-1"?>
<!-- Generator: Adobe Illustrator 24.0.1, SVG Export Plug-In . SVG Version: 6.00 Build 0)  -->
<svg version="1.1" id="Layer_1" xmlns="http://www.w3.org/2000/svg" xmlns:xlink="http://www.w3.org/1999/xlink" x="0px" y="0px"
	 viewBox="0 0 612 792" style="enable-background:new 0 0 612 792;" xml:space="preserve">
<path style="fill:#8B3A3E;" d="M589.118,404.196c0,110.128-126.7,199.408-282.985,199.408c-156.314,0-283.015-89.28-283.015-199.408
	c0-110.137,126.7-199.417,283.015-199.417C462.418,204.78,589.118,294.059,589.118,404.196z"/>
<path style="fill:#FFFFFF;" d="M306.132,217.895c149.042,0,269.87,83.408,269.87,186.301c0,102.885-120.828,186.292-269.87,186.292
	c-149.07,0-269.899-83.407-269.899-186.292C36.233,301.303,157.062,217.895,306.132,217.895"/>
<path style="fill:#8B3A3E;" d="M306.131,231.011c141.799,0,256.755,77.535,256.755,173.186
	c0,95.642-114.956,173.177-256.755,173.177c-141.825,0-256.782-77.535-256.782-173.177
	C49.349,308.546,164.306,231.011,306.131,231.011"/>
<path style="fill:#8B3A3E;" d="M191.34,626.583l-8.232-2.607l7.086-8.053L191.34,626.583L191.34,626.583z M191.703,629.599
	l0.783,6.634l3.107,0.982l-3.409-27.607l-18.695,20.604l3.107,0.984l4.49-4.958L191.703,629.599z"/>
<path style="fill:#8B3A3E;" d="M206.083,617.573l0.757,0.196c2.893,0.754,6.271,2.188,5.304,5.864
	c-0.963,3.733-4.341,3.453-7.326,2.687l-0.937-0.24L206.083,617.573L206.083,617.573z M207.594,629.327
	c3.496,0.473,6.45-1.75,7.325-5.111c0.573-2.236,0.031-4.744-1.627-6.406c-1.598-1.541-3.83-2.148-5.908-2.691l-3.558-0.92
	l-6.091,23.487l2.923,0.758l2.595-9.939l1.204,0.315l4.346,11.724l3.553,0.919L207.594,629.327z"/>
<path style="fill:#8B3A3E;" d="M230.358,639.008l1.475,6.512l3.199,0.648l-6.302-27.099l-16.402,22.464l3.195,0.648l3.921-5.405
	L230.358,639.008L230.358,639.008z M229.663,636.045l-8.441-1.728l6.184-8.754L229.663,636.045z"/>
<path style="fill:#8B3A3E;" d="M252.13,648.684l-3.619-0.548l-5.518-11.225l-1.238-0.188l-1.567,10.144l-2.984-0.451l3.649-23.985
	l3.615,0.547c2.145,0.328,4.433,0.709,6.184,2.083c1.807,1.479,2.621,3.912,2.262,6.206c-0.512,3.435-3.226,5.947-6.788,5.833
	L252.13,648.684L252.13,648.684z M242.118,634.242l0.967,0.145c3.042,0.464,6.451,0.398,7.024-3.422
	c0.573-3.755-2.923-4.832-5.882-5.287l-0.783-0.118L242.118,634.242z"/>
<path style="fill:#8B3A3E;" d="M268.804,641.555l-8.596-0.866l5.309-9.335L268.804,641.555L268.804,641.555z M269.767,644.435
	l2.144,6.332l3.226,0.333l-8.954-26.332L252.1,648.754l3.226,0.323l3.378-5.767L269.767,644.435z"/>
<path style="fill:#8B3A3E;" d="M291.81,642.692l-3.768-0.157l5.335,5.658c-1.505,0.876-3.404,1.247-4.884,1.186
	c-5.247-0.22-9.496-4.684-9.256-10.21c0.21-5.335,4.403-9.642,10.07-9.4c5.697,0.236,9.497,4.87,9.29,10.21
	c-0.122,2.314-1.177,5.072-3.137,6.665L291.81,642.692L291.81,642.692z M301.039,652.731l-3.593-3.85
	c2.477-2.15,4.013-5.339,4.162-8.775c0.276-6.941-5.247-12.874-12.179-13.167c-6.936-0.29-12.936,5.163-13.207,12.104
	c-0.302,7.2,5.155,12.871,12.152,13.164c2.32,0.097,4.945-0.568,6.994-1.863l2.021,2.24L301.039,652.731z"/>
<path style="fill:#8B3A3E;" d="M306.886,627.849l0.24,14.313c0.061,3.962,1.3,7.607,5.974,7.532c4.674-0.074,5.785-3.767,5.73-7.72
	l-0.241-14.323l3.046-0.043l0.241,15.347c0.087,5.339-3.169,9.475-8.718,9.567c-5.575,0.091-8.954-3.936-9.046-9.278l-0.241-15.347
	L306.886,627.849z"/>
<path style="fill:#8B3A3E;" d="M340.145,644.645l3.167,5.872l3.258-0.218l-13.301-24.441l-9.828,26.025l3.256-0.229l2.351-6.248
	L340.145,644.645L340.145,644.645z M338.696,641.97l-8.59,0.587l3.619-10.087L338.696,641.97z"/>
<path style="fill:#8B3A3E;" d="M363.392,648.241l-3.615,0.43l-8.293-9.366l-1.237,0.145l1.177,10.193l-3.016,0.354l-2.805-24.091
	l3.65-0.429c2.14-0.249,4.433-0.49,6.481,0.376c2.141,0.941,3.558,3.072,3.829,5.383c0.425,3.443-1.536,6.596-4.976,7.418
	L363.392,648.241L363.392,648.241z M349.943,636.955l0.968-0.113c3.046-0.354,6.302-1.317,5.846-5.155
	c-0.419-3.768-4.07-3.899-7.054-3.541l-0.783,0.088L349.943,636.955z"/>
<path style="fill:#8B3A3E;" d="M377.295,637.025l-8.503,1.418l2.621-10.389L377.295,637.025L377.295,637.025z M378.984,639.541
	l3.737,5.55l3.194-0.534l-15.588-23.041l-7.233,26.852l3.193-0.532l1.721-6.456L378.984,639.541z"/>
<polygon style="fill:#8B3A3E;" points="393.727,630.977 394.302,633.323 401.145,631.717 400.603,629.366 "/>
<path style="fill:#8B3A3E;" d="M422.677,613.227c-1.93-1.874-4.433-2.499-7.028-1.72c-3.527,1.054-6.18,4.297-5.063,8.057
	c0.993,3.242,3.829,4.026,6.845,4.371l1.808,0.197c2.231,0.232,4.551,0.718,5.308,3.212c0.722,2.434-0.424,5.063-2.927,5.813
	c-2.504,0.743-5.065-0.49-5.816-3.064l-2.749,1.501c1.633,3.579,5.37,5.475,9.138,4.35c4.162-1.252,6.517-5.247,5.247-9.466
	c-1.142-3.891-4.162-4.967-7.838-5.268l-1.868-0.154c-1.633-0.118-3.681-0.542-4.224-2.358c-0.634-2.035,1.024-3.903,2.894-4.464
	c1.751-0.524,3.076-0.118,4.371,1.072L422.677,613.227z"/>
<path style="fill:#8B3A3E;" d="M428.253,610.852l0.752-0.263c2.836-0.989,6.362-1.751,7.632,1.829c1.265,3.65-1.689,5.3-4.617,6.319
	l-0.901,0.315L428.253,610.852L428.253,610.852z M431.993,621.599l1.659-0.572c4.341-1.515,7.355-4.648,5.667-9.484
	c-1.448-4.188-4.494-5.855-11.549-3.392l-3.287,1.139l8.022,22.909l2.831-0.994L431.993,621.599z"/>
<polygon style="fill:#8B3A3E;" points="229.952,150.143 237.129,164.689 253.198,167.017 241.588,178.347 244.332,194.338 
	229.952,186.794 215.598,194.338 218.341,178.347 206.732,167.017 222.774,164.689 "/>
<polygon style="fill:#8B3A3E;" points="306.135,140.506 313.308,155.057 329.352,157.386 317.741,168.715 320.484,184.702 
	306.135,177.157 291.751,184.702 294.495,168.715 282.884,157.386 298.959,155.057 "/>
<polygon style="fill:#8B3A3E;" points="382.253,150.143 389.43,164.689 405.504,167.017 393.894,178.347 396.638,194.338 
	382.253,186.794 367.898,194.338 370.647,178.347 359.037,167.017 375.075,164.689 "/>
<path style="fill:#FFFFFF;" d="M306.131,277.57c19.295,0,38.15,1.809,56.328,5.381V255.64c-18.273-3.263-37.113-4.913-56.328-4.913
	c-22.35,0-44.19,2.238-65.221,6.645v293.642c12.015,2.518,24.302,4.302,36.79,5.391V414.13l65.612,4.119v-33.631l-65.612,3.1
	V278.912C287.049,278.022,296.535,277.57,306.131,277.57z"/>
<path style="fill:#FFFFFF;" d="M486.639,454.812c-8.577,12.158-20.233,23.594-34.709,33.856
	c-8.379,5.939-17.451,11.304-27.144,16.079v-95.243h42.607v-28.353h-42.607v-77.515c9.691,4.775,18.764,10.139,27.142,16.08
	c8.06,5.714,15.237,11.795,21.507,18.158l20.799-17.13c-7.771-8.112-16.715-15.79-26.78-22.927
	c-20.682-14.663-44.873-26.207-71.904-34.313c-2.472-0.741-4.963-1.439-7.462-2.116v285.606c2.499-0.678,4.99-1.375,7.462-2.116
	c27.031-8.106,51.223-19.65,71.905-34.313c13.392-9.493,24.793-19.949,34.086-31.109L486.639,454.812z"/>
<path style="fill:#FFFFFF;" d="M144.785,297.818c-40.779,28.909-63.237,66.688-63.237,106.378c0,33.669,16.172,65.961,45.975,92.632
	l23.706-15.05c-23.028-18.711-37.35-40.671-41.54-63.529h78.751v116.449c8.593,3.645,17.545,6.901,26.844,9.742V263.943
	C188.822,272.025,165.105,283.413,144.785,297.818z M188.439,391.553h-78.995c4.324-26.243,21.996-51.37,50.866-71.836
	c8.663-6.142,18.065-11.67,28.129-16.565V391.553z"/>
</svg>
