<svg xmlns="http://www.w3.org/2000/svg" viewBox="0 0 600 600"><path fill="#00aeef" d="M591.408 189.744s3.365-98.894-35.35-188.11H56.362c-38.716 89.216-35.35 188.11-35.35 188.11 0 267.65 285.323 407.471 285.323 407.471s285.073-139.822 285.073-407.471"/><path fill="#fff" d="M187.345 168.281H116.71l.166 267.403c22.375 28.139 46.7 52.532 70.228 73.121zM424.759 168.281h70.636l-.167 267.403c-22.375 28.139-46.7 52.532-70.229 73.121zM341.442 572.219c-21.809 13.656-35.109 19.038-35.109 19.038s-13.747-6.86-35.478-20.447l-.121-402.528h70.636zM584.084 156.92c0-59.337-29.669-145.187-29.669-145.187H58.256S28.587 97.583 28.587 156.92z"/><path fill="#00aeef" d="M120.153 63.9h.244l10.785 34.367h-22.179zm-15.998 49.359h32.118l5.576 17.99h19.758l-30.666-86.954h-20.97l-31.028 86.954h19.149zM214.056 44.295h18.905l-29.567 86.954h-17.33L156.74 44.295h19.51l18.661 65.881h.242zM269.108 63.9h.243l10.787 34.367h-22.182zm-15.999 49.359h32.119l5.577 17.99h19.757l-30.666-86.954h-20.97l-31.028 86.954h19.151zM335.057 35.482h-12.211l11.365-17.675h18.62zm3.844 95.767h-18.148V44.295h18.148zM407.708 131.249H389.56V44.311h61.901v15.436h-43.753v19.44h38.298v15.435h-38.298zM519.275 72.813c-1.454-5.186-4.241-14.957-19.27-14.957-8.727 0-21.573 5.79-21.573 30.28 0 15.562 6.181 29.554 21.573 29.554 10.059 0 17.089-5.67 19.27-16.285h18.18c-3.635 18.829-15.997 32.041-37.813 32.041-23.154 0-39.802-15.635-39.802-45.553 0-30.281 17.621-45.794 40.044-45.794 26.059 0 36.601 17.928 37.571 30.714z"/></svg>