<svg xmlns="http://www.w3.org/2000/svg" viewBox="0 0 612 792"><circle cx="306" cy="396.334" r="283" fill="#751245"/><circle cx="306" cy="396.334" r="254.188" fill="#fff" transform="rotate(-45 306 396.334)"/><circle cx="306" cy="396.334" r="233.699" fill="#751245" transform="rotate(-45 306 396.334)"/><path fill="#fff" d="M218.496 506.033c0 23.904 28.255 49.515 63.174 49.515 33.294 0 53.783-26.465 53.783-89.638 0-187.813 0-204.463-10.972-220.122-9.297-13.269-25.051-20.176-51.348-27.449 45.364-19.753 100.736-8.963 118.237 43.539 34.918-8.11 49.514-.427 62.746 17.927-18.567-4.483-36.281 8.11-43.538 15.367-6.829 6.829-6.829 104.239-6.829 233.059 5.283 8.965 17.073 16.22 17.073 16.22s-51.222 50.368-133.176 50.368c-85.37 0-129.761-54.601-129.761-122.079 0-30.671 24.818-55.49 55.49-55.49 28.312 0 51.222 22.528 51.222 50.368-.001 21.232-11.953 41.83-46.101 38.415"/></svg>