<?xml version="1.0" encoding="iso-8859-1"?>
<!-- Generator: Adobe Illustrator 24.0.1, SVG Export Plug-In . SVG Version: 6.00 Build 0)  -->
<svg version="1.1" id="Layer_1" xmlns="http://www.w3.org/2000/svg" xmlns:xlink="http://www.w3.org/1999/xlink" x="0px" y="0px"
	 viewBox="0 0 600 600" style="enable-background:new 0 0 600 600;" xml:space="preserve">
<polygon style="fill:#FFF200;" points="329.405,231.401 329.405,390.33 481.515,223.772 407.489,146.499 "/>
<path d="M404.323,143.587l-79.221,86.137V401.42l162.303-177.717l-79.98-83.489L404.323,143.587z M407.553,152.784
	c5.582,5.827,63.143,65.915,68.072,71.059c-4.971,5.444-128.649,140.869-141.918,155.396c0-18.974,0-143.106,0-146.16
	C335.821,230.778,401.918,158.912,407.553,152.784z"/>
<polygon style="fill:#FFF200;" points="362.357,423.449 516.417,423.449 593.367,338.544 519.34,261.272 "/>
<path d="M516.249,258.28L352.207,427.751h166.117l80.922-89.287l-79.89-83.394L516.249,258.28z M519.323,267.473
	c5.454,5.692,63.247,66.021,68.163,71.154c-4.925,5.435-70.585,77.882-72.977,80.518c-3.47,0-124.518,0-141.999,0
	C385.123,406.116,513.626,273.358,519.323,267.473z"/>
<polygon style="fill:#FFF200;" points="271.287,231.401 271.287,390.33 119.013,223.772 192.878,146.499 "/>
<path d="M189.767,143.527l-76.643,80.18l162.465,177.706V229.718l-82.658-89.501L189.767,143.527z M192.823,152.782
	c5.643,6.111,72.034,77.998,74.16,80.302c0,3.063,0,127.206,0,146.164c-13.266-14.508-137.107-149.969-142.082-155.41
	C129.819,218.693,187.254,158.607,192.823,152.782z"/>
<polygon style="fill:#FFF200;" points="238.168,423.449 83.948,423.449 7.161,338.544 81.188,261.272 "/>
<path d="M78.081,258.297L1.285,338.461l80.752,89.29h166.283L81.171,255.07L78.081,258.297z M81.206,267.473
	c5.695,5.885,134.2,138.643,146.813,151.672c-17.483,0-138.684,0-142.16,0c-2.389-2.642-67.904-75.081-72.819-80.517
	C17.95,333.504,75.751,273.167,81.206,267.473z"/>
<g>
	<path d="M368.363,456.241h-4.057l-20.778,56.006h7.792l6.007-16.883h11.037h11.042l6.005,16.883h8.28l-20.941-56.006H368.363z
		 M368.363,488.871h-8.764l8.764-24.514l0.165-0.16l8.604,24.674H368.363z"/>
	<path d="M523.073,502.669c-2.922,2.921-6.656,4.384-11.201,4.384c-5.357,0-9.741-2.111-12.986-6.332
		c-3.248-4.059-4.871-9.578-4.871-16.558c0-7.144,1.462-12.823,4.707-16.885c3.085-3.733,7.468-5.843,13.149-5.843
		c4.382,0,7.793,1.138,10.388,3.085c2.762,1.786,4.385,4.708,5.197,8.442h7.469c-0.651-5.684-3.087-10.065-7.143-13.313
		c-4.059-3.248-9.254-4.871-15.585-4.871c-7.957,0-14.286,2.598-18.993,7.63c-4.71,5.033-7.145,12.013-7.145,20.943
		c0,9.415,2.273,16.882,6.818,22.401c4.546,5.358,10.715,7.954,18.508,7.954c6.978,0,12.499-1.947,16.881-6.007
		c4.384-4.056,6.658-9.579,6.982-16.395h-7.467C527.618,496.012,526.158,499.747,523.073,502.669z"/>
	<rect x="542.716" y="503.644" width="7.793" height="8.602"/>
	<polygon points="428.43,486.271 458.464,486.271 458.464,479.78 428.43,479.78 428.43,463.221 460.898,463.221 460.898,456.241 
		420.799,456.241 420.799,512.247 461.546,512.247 461.546,505.265 428.43,505.265 	"/>
	<rect x="470.315" y="503.644" width="7.789" height="8.602"/>
	<polygon points="265.929,437.896 258.3,437.896 250.507,451.207 255.053,451.207 	"/>
	<path d="M137.357,508.512c-0.486-0.973-0.648-2.433-0.811-4.383l-0.648-9.253c-0.327-3.408-0.812-6.006-1.788-7.305
		c-0.811-1.46-2.435-2.599-4.707-3.246c2.598-1.137,4.544-2.762,5.845-5.034c1.298-2.11,1.946-4.708,1.946-7.792
		c0-3.085-0.647-5.845-1.784-7.956c-1.299-2.273-3.085-4.056-5.52-5.355c-1.299-0.814-2.76-1.3-4.384-1.625
		c-1.623-0.163-4.22-0.323-7.791-0.323h-1.298H95.962v56.006h7.468V488.22h12.337c0.163,0,0.325,0,0.65,0
		c5.031,0,8.277,0.487,9.577,1.624c1.3,1.135,2.11,3.57,2.272,7.305l0.488,7.305c0,0,0,0.163,0,0.325
		c0.325,3.733,0.812,6.332,1.461,7.467h8.928v-1.623C138.333,510.299,137.682,509.489,137.357,508.512z M126.48,479.292
		c-1.946,1.625-5.355,2.435-10.063,2.435H103.43v-18.993h12.987c4.869,0,8.277,0.811,10.226,2.109c1.786,1.136,2.76,3.572,2.76,6.82
		C129.403,475.235,128.429,477.83,126.48,479.292z"/>
	<rect x="145.636" y="456.241" width="7.63" height="56.006"/>
	<path d="M314.793,498.934c-0.326,0.813-0.487,1.464-0.647,2.113c-0.326,0.811-0.489,1.622-0.653,2.598
		c-0.162-0.489-0.323-1.136-0.485-1.787c-0.161-0.648-0.487-1.623-0.813-2.923l-13.959-42.693h-10.877v56.006h6.982V464.52
		c0.162,0.812,0.323,1.623,0.486,2.435c0.325,0.813,0.488,1.622,0.813,2.273l14.122,43.019h7.142l14.45-43.019
		c0.325-0.813,0.489-1.623,0.812-2.435c0.163-0.813,0.324-1.624,0.487-2.273v47.727h7.468v-56.006h-10.878L314.793,498.934z"/>
	<path d="M197.748,502.669c-2.923,2.921-6.656,4.384-11.364,4.384c-5.357,0-9.742-2.111-12.988-6.332
		c-3.246-4.059-4.869-9.578-4.869-16.558c0-7.144,1.623-12.823,4.708-16.885c3.085-3.733,7.63-5.843,13.312-5.843
		c4.221,0,7.631,1.138,10.389,3.085c2.598,1.786,4.383,4.708,5.032,8.442h7.469c-0.648-5.684-2.921-10.065-6.982-13.313
		c-4.059-3.248-9.252-4.871-15.584-4.871c-8.116,0-14.447,2.598-19.155,7.63c-4.708,5.033-6.98,12.013-6.98,20.943
		c0,9.415,2.271,16.882,6.655,22.401c4.546,5.358,10.714,7.954,18.669,7.954c6.818,0,12.5-1.947,16.721-6.007
		c4.383-4.056,6.817-9.579,7.143-16.395h-7.469C202.292,496.012,200.67,499.747,197.748,502.669z"/>
	<path d="M270.312,490.979c0,5.196-1.298,9.094-3.571,11.528c-2.435,2.596-6.006,3.896-10.877,3.896
		c-4.869,0-8.442-1.3-10.877-3.735c-2.271-2.596-3.408-6.493-3.408-11.689v-34.739h-7.631v34.577c0,7.63,1.786,13.474,5.196,17.208
		c3.571,3.897,8.766,5.681,15.909,5.681c7.467,0,13.15-1.784,17.045-5.681c3.896-3.897,5.844-9.579,5.844-17.208v-34.577h-7.631
		V490.979z"/>
	<rect x="216.741" y="456.241" width="7.629" height="56.006"/>
	<path d="M77.13,502.669c-2.922,2.921-6.657,4.384-11.364,4.384c-5.357,0-9.74-2.111-12.988-6.332
		c-3.247-4.059-4.869-9.578-4.869-16.558c0-7.144,1.623-12.823,4.708-16.885c3.085-3.733,7.63-5.843,13.312-5.843
		c4.22,0,7.631,1.138,10.389,3.085c2.599,1.786,4.385,4.708,5.035,8.442h7.465c-0.648-5.684-2.922-10.065-6.979-13.313
		c-4.057-3.248-9.254-4.871-15.584-4.871c-8.118,0-14.449,2.598-19.157,7.63c-4.707,5.033-6.979,12.013-6.979,20.943
		c0,9.415,2.271,16.882,6.654,22.401c4.545,5.358,10.715,7.954,18.669,7.954c6.818,0,12.501-1.947,16.721-6.007
		c4.382-4.056,6.655-9.579,6.981-16.395h-7.306C81.675,496.012,80.052,499.747,77.13,502.669z"/>
</g>
<polygon points="275.507,150.072 263.981,189.193 299.858,165.979 335.248,189.193 322.423,150.072 354.242,125.394 
	314.956,125.394 299.858,86.271 284.598,125.394 244.663,125.394 "/>
</svg>
