<svg height="1000" viewBox="0 0 1000 1000" width="1000" xmlns="http://www.w3.org/2000/svg"><g transform="matrix(2.1694905 0 0 2.1694905 -214.77772 -386.16947)"><g><path d="m 304.357 184.06 c -44.469 21.963 -88.125 23.59 -138.288 -2.44 c -21.15 18.438 -42.3 36.877 -63.45 55.315 c 84.581 93.255 -125.982 283.266 202.332 374.941 l .487 .395 l .826 -.65 c 327.039 -91.769 116.955 -281.515 201.458 -374.686 c -21.15 -18.438 -42.3 -36.877 -63.45 -55.315 c -50.163 26.031 -93.819 24.404 -138.288 2.44 h -.814 z" style="clip-rule:evenodd;fill:#187543;fill-rule:evenodd;stroke:#000;stroke-width:7.24;stroke-linejoin:round;stroke-miterlimit:2.6131"/><path d="m 219.758 199.566 v 381.019 c -23.586 -11.463 -42.266 -23.773 -56.942 -36.719 v -359.41 l 3.254 -2.836 c 18.672 9.69 36.441 15.544 53.688 17.946 z m 84.599 -15.506 c -9.231 4.559 -18.43 8.237 -27.657 10.977 v 408.269 c 8.94 2.942 18.344 5.802 28.251 8.569 l .487 .395 l .826 -.65 c 9.595 -2.693 18.687 -5.479 27.378 -8.335 V 195.039 c -9.228 -2.741 -18.424 -6.418 -27.657 -10.979 h -.814 z m 86.227 396.509 c 23.58 -11.464 42.269 -23.772 56.942 -36.717 V 184.456 l -3.254 -2.836 c -18.672 9.689 -36.441 15.544 -53.688 17.945 z" style="clip-rule:evenodd;fill:#fff;fill-rule:evenodd;stroke:#000;stroke-width:7.24;stroke-linejoin:round;stroke-miterlimit:2.6131"/><path d="m 305.171 261.417 c 72.003 0 130.394 58.391 130.394 130.393 c 0 72.003 -58.391 130.394 -130.394 130.394 c -72.003 0 -130.394 -58.391 -130.394 -130.394 c 0 -72.002 58.391 -130.393 130.394 -130.393 z" style="clip-rule:evenodd;fill:#fff;fill-rule:evenodd;stroke:#000;stroke-width:7.2468;stroke-linejoin:round;stroke-miterlimit:2.6131"/><path d="m 276.478 338.817 c 0 8.541 1.375 15.021 4.173 19.488 c 2.798 4.467 6.872 6.676 12.272 6.676 c 5.449 0 9.572 -2.209 12.37 -6.676 c 2.798 -4.467 4.173 -10.947 4.173 -19.488 c 0 -8.541 -1.375 -14.972 -4.173 -19.39 c -2.798 -4.418 -6.921 -6.627 -12.37 -6.627 c -5.4 0 -9.474 2.209 -12.272 6.627 c -2.799 4.418 -4.173 10.849 -4.173 19.39 z m 9.67 98.668 c -6.921 1.915 -12.125 4.172 -15.61 6.823 c -3.485 2.651 -5.252 5.645 -5.252 8.983 c 0 4.713 3.043 8.394 9.179 11.094 c 6.136 2.7 14.678 4.025 25.624 4.025 c 10.897 0 19.684 -1.424 26.213 -4.222 c 6.578 -2.847 9.867 -6.578 9.867 -11.192 c 0 -4.32 -3.387 -7.609 -10.112 -9.818 c -6.774 -2.257 -20.077 -4.171 -39.909 -5.693 z m -30.091 -59.004 c -7.167 -4.762 -12.616 -10.456 -16.396 -16.936 c -3.731 -6.529 -5.596 -13.745 -5.596 -21.599 c 0 -14.285 5.596 -26.213 16.837 -35.883 c 11.192 -9.621 25.281 -14.432 42.265 -14.432 c 7.952 0 15.463 1.276 22.531 3.878 c 7.02 2.602 13.45 6.48 19.341 11.683 c 4.222 -5.105 8.836 -8.934 13.843 -11.438 c 5.056 -2.553 10.456 -3.829 16.199 -3.829 c 6.431 0 11.781 1.767 16.052 5.302 c 4.222 3.583 6.382 7.854 6.382 12.959 c 0 5.35 -2.111 9.867 -6.234 13.45 c -4.173 3.583 -9.474 5.4 -15.905 5.4 c -3.24 0 -6.332 -.982 -9.278 -2.945 c -2.896 -1.964 -4.811 -2.945 -5.694 -2.945 c -.344 0 -.933 .196 -1.718 .589 c -.393 .245 -.638 .442 -.834 .54 c 1.129 3.093 2.062 6.136 2.7 9.13 c .687 3.044 1.031 5.891 1.031 8.541 c 0 14.383 -5.252 26.115 -15.806 35.245 c -10.554 9.081 -24.151 13.647 -40.694 13.647 c -2.209 0 -6.234 -.344 -12.125 -1.031 c -.835 -.049 -1.424 -.098 -1.718 -.098 c -1.227 .344 -2.16 .982 -2.7 1.865 c -.589 .835 -.884 2.111 -.884 3.731 c 0 3.436 8.05 5.989 24.201 7.609 c 3.927 .393 6.922 .687 9.032 .884 c 24.348 2.504 41.48 7.167 51.396 14.088 c 9.916 6.921 14.874 17.132 14.874 30.631 c 0 14.187 -7.068 25.673 -21.157 34.362 c -14.088 8.738 -32.84 13.107 -56.206 13.107 c -23.66 0 -42.167 -3.338 -55.519 -10.063 c -13.303 -6.725 -19.979 -15.905 -19.979 -27.637 c 0 -7.363 2.651 -13.352 8.001 -17.868 c 5.302 -4.565 13.352 -7.756 24.053 -9.572 c -6.234 -2.209 -11.094 -5.449 -14.678 -9.719 c -3.534 -4.271 -5.301 -8.983 -5.301 -14.187 c 0 -5.449 1.62 -10.357 4.909 -14.727 c 3.239 -4.369 8.197 -8.247 14.775 -11.732 z" fill="#187543" stroke="#000" stroke-linejoin="round" stroke-miterlimit="2.6131" stroke-width="7.2377"/></g></g></svg>