<svg xmlns="http://www.w3.org/2000/svg" width="1000" height="1000" viewBox="0 0 1000 1000"><path d="M304.357 184.06c-44.469 21.963-88.125 23.59-138.288-2.44l-63.45 55.315C187.2 330.19-23.363 520.201 304.951 611.876l.487.395.826-.65c327.039-91.769 116.955-281.515 201.458-374.686l-63.45-55.315c-50.163 26.031-93.819 24.404-138.288 2.44h-.814z" style="clip-rule:evenodd;fill:#187543;fill-rule:evenodd;stroke:#000;stroke-width:7.24;stroke-linejoin:round;stroke-miterlimit:2.6131" transform="translate(-214.778 -386.17)scale(2.1695)"/><path d="M219.758 199.566v381.019c-23.586-11.463-42.266-23.773-56.942-36.719v-359.41l3.254-2.836c18.672 9.69 36.441 15.544 53.688 17.946zm84.599-15.506c-9.231 4.559-18.43 8.237-27.657 10.977v408.269a648 648 0 0 0 28.251 8.569l.487.395.826-.65a651 651 0 0 0 27.378-8.335V195.039c-9.228-2.741-18.424-6.418-27.657-10.979h-.814zm86.227 396.509c23.58-11.464 42.269-23.772 56.942-36.717V184.456l-3.254-2.836c-18.672 9.689-36.441 15.544-53.688 17.945z" style="clip-rule:evenodd;fill:#fff;fill-rule:evenodd;stroke:#000;stroke-width:7.24;stroke-linejoin:round;stroke-miterlimit:2.6131" transform="translate(-214.778 -386.17)scale(2.1695)"/><path d="M305.171 261.417c72.003 0 130.394 58.391 130.394 130.393s-58.391 130.394-130.394 130.394-130.394-58.391-130.394-130.394c0-72.002 58.391-130.393 130.394-130.393z" style="clip-rule:evenodd;fill:#fff;fill-rule:evenodd;stroke:#000;stroke-width:7.2468;stroke-linejoin:round;stroke-miterlimit:2.6131" transform="translate(-214.778 -386.17)scale(2.1695)"/><path fill="#187543" stroke="#000" stroke-linejoin="round" stroke-miterlimit="2.613" stroke-width="15.702768620000002" d="M385.039 348.89c0 18.53 2.983 32.589 9.053 42.28 6.07 9.69 14.909 14.483 26.624 14.483 11.821 0 20.766-4.792 26.837-14.483 6.07-9.691 9.053-23.75 9.053-42.28 0-18.529-2.983-32.48-9.053-42.066q-9.105-14.376-26.837-14.377c-11.715 0-20.554 4.793-26.624 14.377-6.072 9.585-9.053 23.537-9.053 42.067zm20.979 214.06c-15.015 4.155-26.305 9.051-33.866 14.803-7.56 5.75-11.394 12.246-11.394 19.488 0 10.225 6.601 18.21 19.913 24.068s31.844 8.733 55.592 8.733c23.64 0 42.704-3.09 56.868-9.16q21.407-9.265 21.407-24.281c0-9.372-7.348-16.508-21.938-21.3-14.696-4.897-43.557-9.049-86.582-12.35zm-65.282-128.009c-15.55-10.33-27.37-22.684-35.571-36.742-8.095-14.165-12.14-29.82-12.14-46.859 0-30.991 12.14-56.869 36.527-77.848 24.28-20.872 54.847-31.31 91.693-31.31 17.252 0 33.547 2.769 48.881 8.414 15.23 5.645 29.18 14.058 41.96 25.346 9.16-11.076 19.17-19.383 30.032-24.815q16.455-8.308 35.144-8.307 20.927 0 34.825 11.503c9.16 7.773 13.845 17.039 13.845 28.114 0 11.607-4.58 21.406-13.524 29.18-9.053 7.773-20.554 11.715-34.506 11.715q-10.543 0-20.128-6.39c-6.283-4.26-10.438-6.388-12.354-6.388-.746 0-2.024.425-3.727 1.278-.852.531-1.384.958-1.81 1.171 2.45 6.71 4.474 13.312 5.859 19.808q2.236 9.905 2.236 18.53c0 31.203-11.394 56.655-34.29 76.463-22.898 19.701-52.396 29.607-88.286 29.607-4.792 0-13.525-.746-26.305-2.237-1.812-.106-3.09-.212-3.727-.212-2.662.746-4.686 2.13-5.858 4.046-1.278 1.811-1.918 4.58-1.918 8.094 0 7.454 17.465 12.993 52.504 16.508 8.52.852 15.017 1.49 19.595 1.917 52.823 5.433 89.99 15.55 111.503 30.564q32.27 22.524 32.27 66.454c0 30.778-15.335 55.697-45.9 74.548-30.565 18.957-71.247 28.435-121.94 28.435-51.33 0-91.48-7.241-120.447-21.831-28.86-14.59-43.344-34.506-43.344-59.958 0-15.974 5.751-28.967 17.358-38.765 11.502-9.904 28.967-16.826 52.183-20.766-13.525-4.793-24.069-11.822-31.844-21.085-7.667-9.266-11.5-19.489-11.5-30.779 0-11.822 3.514-22.47 10.65-31.95 7.026-9.479 17.783-17.892 32.054-25.453z"/></svg>