<svg xmlns="http://www.w3.org/2000/svg" width="1000" height="1000" viewBox="0 0 1000 1000"><path fill="#e25645" d="M799.796 25v230.714c-32.798 0-59.384 26.591-59.384 59.393s26.586 59.389 59.384 59.389V762.39c0 66.224-74.955 141.681-140.718 141.681H577.46c-18.33 0-58.122 12.214-77.366 58.461L494.9 975l-5.189-12.468c-19.253-46.247-59.03-58.46-77.37-58.46h-81.614C264.964 904.071 190 828.61 190 762.39V374.496c32.802 0 59.393-26.586 59.393-59.389 0-32.802-26.59-59.393-59.393-59.393V25z"/><path fill="#fff" d="M788.554 36.246v209.688c-33.354 5.383-58.832 34.3-58.832 69.173 0 34.879 25.478 63.795 58.832 69.178V762.39c0 59.728-70.196 130.43-129.476 130.43H577.46c-26.985 0-62.492 18.476-82.56 56.725-20.067-38.25-55.57-56.725-82.56-56.725h-81.613c-59.285 0-129.476-70.702-129.476-130.43V384.285c33.354-5.383 58.832-34.299 58.832-69.178 0-34.874-25.478-63.79-58.832-69.173V36.246Z"/><path fill="#e25645" d="M743.52 82.222v126.933c-37.887 20.167-63.691 60.036-63.691 105.952 0 45.913 25.804 85.785 63.69 105.953v330.975c-1.537 14.065-4.546 26.12-8.762 36.462-8.726 21.37-22.655 35.326-39.651 44.279-18.964 10.002-41.768 12.368-65.432 13.219l-52.214-.105s-10.477.634-23.094 3.963c-19.335 5.044-38.566 11.939-59.466 28.898-20.89-16.96-40.121-23.85-59.46-28.898-12.618-3.33-23.1-3.963-23.1-3.963l-52.213.1c-23.664-.85-46.464-3.216-65.432-13.219-16.996-8.952-30.92-22.908-39.647-44.279-4.216-10.337-7.22-22.392-8.763-36.462V421.06c37.883-20.168 63.686-60.036 63.686-105.953 0-45.916-25.803-85.785-63.686-105.952V82.222Z"/><path fill="#1e64ab" d="M622.508 122.56h17.815l-11.247 15.01h-13.132zm24.374 38.466v101.325H627.19v-3.75c-.941.94-3.768 2.809-5.623 2.809-.941.94-4.714 1.882-6.573 1.882-3.764 0-8.446-1.882-10.328-4.692-1.882-3.754-2.791-10.318-2.791-18.773v-27.202c0-2.814 0-6.569.909-8.432 1.882-1.887 4.71-4.7 9.387-6.569l15.019-7.505v-31.906c-.941 0-1.882-.941-1.882-.941-2.8 0-3.741.94-3.741.94v26.279H601.87v-23.465c0-6.564.91-11.246 4.673-13.132 2.828-2.81 9.396-3.755 16.874-3.755 9.392 0 15.956.946 17.838 3.755 4.69 1.886 5.627 6.568 5.627 13.132M627.19 205.13l-4.682 2.814-.941 1.873v38.47s.94.937 3.741.937l.941-.937c.941 0 .941-1.873.941-3.755zm-32.83-38.466v95.692h-19.7V161.026c0-1.872-.941-2.813-.941-2.813s-.941-.941-1.882-.941-1.882.94-1.882.94c0 .942-1.887 2.814-1.887 4.696v99.443h-18.755V145.085h18.755v4.695c1.887-1.886 3.769-2.823 5.65-4.695.942-.946 4.683-.946 6.57-.946 4.686 0 8.45.946 10.309 4.7 2.818 2.81 3.764 9.374 3.764 19.697zm-53.493-5.637v101.325H522.11v-3.75c-1.873.94-3.755 2.809-5.637 2.809-1.882.94-4.69 1.882-6.555 1.882-5.623 0-8.45-1.882-11.264-4.692-.941-3.754-2.814-10.318-2.814-18.773v-27.202c0-2.814.946-6.569 1.873-8.432.941-1.887 4.696-4.7 7.51-6.569l16.891-7.505v-31.906c-1.872 0-2.818-.941-3.754-.941-.937 0-1.882.94-1.882.94 0 .942-.937 2.814-.937 4.696v21.583h-19.696v-23.465c0-6.564 1.873-11.246 5.627-13.132 2.828-2.81 8.45-3.755 16.888-3.755 8.441 0 14.078.946 17.819 3.755 3.768 1.886 4.687 6.568 4.687 13.132m-18.752 44.103-4.69 2.814-.946 1.868s-.937.941-.937 1.891v32.825c0 1.882.937 3.755.937 3.755s.945.936 1.882.936 1.882-.936 1.882-.936c1.872 0 1.872-1.873 1.872-3.755zm-28.156-38.466v25.324h-20.642v-33.77c-1.868 0-2.81-.94-2.81-.94-.927 0-2.808.94-2.808.94v104.138h-19.702v-117.27H467.7v4.695c.94-1.886 2.809-2.823 3.75-4.695 2.814-.946 4.696-.946 7.51-.946 4.681 0 8.436.946 10.318 4.7 1.873 2.81 4.682 9.374 4.682 17.824m-53.471-5.637v101.325H420.79v-3.75c-.94.94-4.696 2.809-5.636 2.809-1.869.94-3.755 1.882-6.57 1.882-5.622 0-8.431-1.882-10.313-4.692-2.814-3.754-3.755-10.318-3.755-18.773v-27.202c0-2.814.94-6.569 2.81-8.432.945-1.887 3.754-4.7 7.509-6.569l15.955-7.505v-29.093c0-1.872-.94-2.813-.94-2.813s-.942-.941-1.883-.941c-1.873 0-2.813.94-2.813.94 0 .942-.928 2.814-.928 4.696v21.583h-19.71v-23.465c0-6.564 2.81-11.246 5.637-13.132 1.868-2.81 8.432-3.755 15.941-3.755 9.378 0 15.942.946 18.77 3.755 3.755 1.886 5.623 6.568 5.623 13.132M420.79 205.13l-4.696 2.814c-.94 0-.94 1.868-.94 1.868s-.928.941-.928 1.891v32.825c0 1.882.928 3.755.928 3.755s.94.936 2.813.936c.941 0 1.882-.936 1.882-.936s.941-1.873.941-3.755zM453.62 558.819c-14.073 0-25.32-11.242-25.32-24.38 0-14.086 11.247-24.41 25.32-24.41 13.138 0 23.456 10.324 23.456 24.41 0 13.138-10.318 24.38-23.456 24.38m123.84-106.007c-31.884-32.847-110.702-41.284-142.595-15.014l-188.58 162.228-26.265 22.592h118.216c46.903 0 61.918 25.329 75.05 56.294l79.452 198.17c.72.552 1.443 1.095 2.162 1.665 20.896-16.96 40.126-23.85 59.466-28.898 12.617-3.33 23.094-3.963 23.094-3.963l52.218.1c23.66-.851 46.464-3.217 65.432-13.22 16.996-8.952 30.925-22.908 39.652-44.278 4.216-10.337 7.224-22.393 8.762-36.462V621.672zM341.986 142.275h23.452c10.323 0 15.946.923 17.828 3.75 2.814 2.814 4.682 10.32 4.682 20.638v28.152c0 11.246-1.868 17.815-3.754 20.642-2.81 2.814-8.433 4.682-16.888 4.682h-4.677v42.22h-20.643zm20.643 15.938v45.98h.927c.94 0 3.75-1.887 3.75-1.887.946 0 .946-2.814.946-4.682v-31.902c0-2.814 0-6.568-.946-6.568 0-.941-2.81-.941-3.75-.941zM627.19 417.155v-42.22h9.387v34.715h14.073v7.505zm-43.157-42.22h9.382v42.22h-9.382zm-61.918 36.593 5.628-6.564c0 2.81 1.868 4.682 2.814 4.682 0 0 2.823.94 4.682.94.941 0 4.71-.94 4.71-.94.918 0 1.859-1.873 1.859-4.682 0-.946-1.86-3.76-5.628-4.696-.941 0-1.886-2.814-2.8-2.814-3.769-.94-6.578-2.814-6.578-3.75-2.805-2.814-3.75-4.696-3.75-7.51 0-3.754 1.882-6.568 3.75-9.377 2.81-.941 7.492-2.81 10.323-2.81 2.823 0 5.624.928 6.565 1.869 1.886 0 3.736 1.868 5.618 4.695l-5.618 3.75c0-.94-1.882-2.822-1.882-2.822-.941 0-1.86-.928-3.742-.928-1.886 0-2.827.928-2.827 1.869-.945.94-1.86 1.882-1.86 3.755 0 1.881 1.86 3.754 4.687 5.627l1.882 1.882c3.742.936 5.628 2.81 7.478 3.75 1.882 2.814 3.773 5.628 3.773 7.51 0 3.755-1.89 7.491-3.773 9.373-3.736 1.873-7.478 3.764-12.187 3.764-1.86 0-5.628-.95-7.496-.95-2.81-.936-5.628-2.81-5.628-5.623m-67.554 5.627 15.02-42.22h10.318l16.888 42.22h-10.324l-3.75-9.377h-15.955l-2.814 9.377zm26.266-15.95-5.623-13.129V381.5c0 1.882-.941 2.823-.941 2.823 0 1.873-.946 3.754-.946 3.754l-4.677 13.129zm-73.168-7.501h1.868c2.814 0 6.568-1.882 7.51-1.882 0 0 .931-2.814.931-3.746 0-1.881-.932-3.754-.932-4.695-.94-.941-4.695-1.882-7.51-1.882h-1.867zm22.51 23.451h-12.2l-10.31-19.696v19.696h-8.446v-42.22h13.128c4.695 0 8.45.94 11.264 1.882 1.868 2.809 3.755 6.564 3.755 11.26 0 1.872-.941 5.627-1.887 6.563-1.868 1.873-4.682 2.814-6.564 2.814zm-90.064 0v-42.22h7.505c2.813 0 6.568.94 8.44.94.942 0 2.824.942 5.633.942 0 .927 1.873 3.754 2.814 3.754.94 1.869.94 3.75.94 5.624 0 2.813 0 4.695-1.881 5.627-1.873 1.882-4.682 3.75-6.564 3.75 3.75 0 5.637.941 7.505 2.823.94 2.81 3.755 4.687 3.755 6.569 0 2.81-.946 4.682-2.814 5.623 0 1.868-1.882 3.75-3.755 4.696-.94 0-3.75.927-4.691.927-1.873 0-6.569.941-10.323.941h-6.564Zm9.377-25.333h.941c1.882 0 4.696-.932 5.628-.932.94 0 .94-1.882.94-3.75 0-2.818 0-3.76-.94-3.76-.932-.94-3.746-1.881-5.628-1.881h-.94zm0 17.824h7.51c0-.927.94-2.81.94-4.682 0-1.882-.94-3.76-.94-3.76-.941-.936-2.814-2.809-5.628-2.809h-1.882z"/><path fill="#fff" d="M601.87 331.782c.91 0 4.673-2.81 7.5-6.564 4.683-4.7 6.57-10.323 7.479-14.073.945 0 0-1.887.945-2.814-.945 0-1.855-.941-1.855-.941-.95 0-3.773 1.868-8.45 6.568-3.764 5.619-6.564 9.378-7.51 12.187-.936 1.882-.936 2.828 0 3.75.005 1.887.95 1.887 1.891 1.887m-7.51 2.814c-.945.94-1.881 4.696-1.881 5.623-.946.946-2.828 2.827-3.741 5.637-.941 2.814-.941 6.568-.941 7.51.94.931 1.854 1.868 3.736 1.868 3.764 0 8.446-1.869 14.074-5.624 6.56-3.754 12.187-9.391 17.815-15.955 0-.932.945-1.868 2.827-3.755 1.882-1.868 3.764-3.75 3.764-3.75s.918 0 .918.941c1.882.94 1.882 1.886 1.882 2.81-1.882 1.886-2.8 3.754-4.682 5.636-1.882 3.755-6.564 6.568-10.332 10.319-5.628 4.682-11.251 9.378-15.929 11.25-5.655 2.823-9.391 4.692-14.073 4.692-5.65 0-7.51-1.869-9.396-4.692-1.882-1.872-1.882-6.568.945-11.25 1.882-5.637 5.628-13.133 10.305-22.52 4.71-7.514 11.274-15.005 17.838-21.574 1.882-.94 4.677-2.827 5.618-3.755 1.882-1.882 3.742-1.882 4.687-1.882h2.827c.941 0 .941 1.882 1.882 2.81h3.742c2.827.945 4.682 2.827 3.763 7.51-2.823 7.509-7.505 15.014-14.069 21.582-7.505 5.623-13.16 8.437-16.896 8.437h-2.828c-1.854 0-1.854-.932-2.8-1.873h.946zM577.46 309.258c.94 0 1.886.946 1.886 2.827v2.81c-1.886 2.809-3.768 8.441-8.45 14.078-4.682 5.618-10.301 13.128-14.074 18.756-3.737 2.809-6.564 6.568-8.446 7.505-2.796.945-4.682.945-6.564.945-2.8 0-3.741 0-4.682-.945 0-.937 0-3.755.94-5.624.942-4.695 3.742-8.445 6.565-14.073 3.741-2.814 7.505-7.505 12.187-12.196 3.773-3.76 9.392-8.442 13.133-10.324 2.823-2.813 6.564-3.759 7.505-3.759m-87.242-20.642c7.496-10.319 16.892-23.451 25.324-36.584h3.755v1.873q-1.404 5.635-16.883 25.342c-8.45 13.128-20.637 27.206-31.902 41.275l-.927.946c5.619-10.323 14.055-20.642 20.633-32.852m104.143-28.143c0-.927-.946-1.868-1.882-2.813h-1.882c-.946 0-3.741.945-5.623 3.754-.941 2.81-5.628 6.564-9.396 13.128-13.128 17.829-24.379 34.716-32.83 49.73a385 385 0 0 0-3.84 6.053c-.602.44-1.199 1.213-1.787 2.394l-.946.931c-5.623 6.565-10.323 11.26-13.128 15.015-3.754 2.81-5.627 3.755-7.51 3.755 0 0-.945 0-.945-.946.946 0 .946-1.868 1.882-4.695 1.882-8.433 9.378-20.638 20.647-34.698 1.882-1.882 2.823-3.755 2.823-3.755 1.86-.94 0-4.691 0-5.636-.941-.928-2.823-.928-3.769-.928-.94 0-3.74.928-4.686 1.873-1.882.936-3.75 3.75-3.75 5.619-11.265 15.014-19.715 26.278-25.334 32.847-5.623 6.564-11.26 9.373-13.132 9.373-.941 0-1.882 0-1.882-.94 0 0 0-1.869.94-4.683.942-2.81 2.814-7.505 7.506-14.069 4.7-6.564 9.382-14.078 15.942-21.583.945 0 2.809-.945 2.809-1.873l.945-.94v-5.62c-.945-.94-2.809-.94-4.682-.94-.936 0-1.882 0-2.827.94-.919 0-3.732 1.874-4.673 2.81-5.641 6.569-11.265 14.074-15.02 21.574-2.18 3.488-3.944 6.759-5.5 9.844-1.891 1.705-3.361 3.718-4.818 5.175-4.7 3.75-7.51 8.446-11.26 10.314-1.873.946-5.628 2.819-6.568 2.819-.928 0-1.869-1.873-1.869-2.819 0-.94 0-5.623.941-8.432.928-.941.928-3.755 1.868-4.696 0-1.882 1.869-3.755 2.814-4.695 16.883-16.883 31.898-33.77 44.085-49.717 12.21-15.01 18.774-25.333 20.637-30.952 0-1.891 0-5.646-1.868-7.51-1.868-2.818-4.687-4.7-6.56-4.7-1.881 0-4.7.941-7.509 1.882-2.81 1.873-4.7 3.755-4.7 4.682-.919.946 0 1.882 0 1.882l-.919 1.873c-7.51 11.26-16.891 24.397-25.337 36.598-8.455 13.132-15.947 26.27-24.397 40.338-.941.946-4.696 2.81-6.564 2.81-1.873 0-3.755.945-3.755.945v3.75c0 .932 1.882 1.873 2.81 1.873h.945l.94-.94v.94c0 .941-.94 3.755-1.886 4.696 0 .941-.927 2.81-.927 3.75-1.882 4.682-1.882 8.442 0 11.251.927 2.823 3.741 5.637 7.496 5.637 1.886 0 4.695-.946 6.564-.946 1.886-1.868 3.76-3.755 6.582-4.691 1.769-1.773 4.41-4.361 7.871-6.234-.113.217-.217.448-.375.606q0 1.42 2.823 2.819c0 1.882.927 3.745 1.873 3.745h4.69c1.874 0 4.687-.936 9.379-3.745 1.732-1.737 6.69-6.687 11.884-11.129-.272.58-.616 1.163-.616 1.746 0 .941-1.886 1.869-1.886 1.869-.927 4.695-.927 7.514 0 10.323 1.886 2.823 3.75 3.75 6.56 3.75s4.69-.927 6.573-1.868c2.348-.778 4.682-2.226 7.563-4.827-.027.045-.045.095-.067.136 0 .936 0 1.882 1.886 1.882 0 0 1.868.927 4.696 1.863 1.855.946 3.74 3.755 4.686 3.755.941 0 2.823.946 4.683.946 2.822 0 7.5-.946 10.327-1.887 3.746-2.814 6.564-4.677 10.31-7.491 4.7-5.637 11.269-12.201 15.951-18.77 4.687-6.564 7.514-13.128 8.455-17.823 2.796-3.755 2.796-8.437.941-10.32 0-3.754-1.882-4.681-4.71-4.681-3.74 0-6.568.927-11.25 3.736-4.406 1.778-8.025 4.398-13.123 8.614 6.247-11.355 12.503-20.267 18.75-28.31 6.574-10.32 10.338-15.001 13.138-17.829 0 0 1.882-.927 2.818-1.868 2.8-.94 3.746-1.886 3.746-1.886v-2.819c.009 0-.937-.94-2.791-.94M465.826 245.472c4.682.937 8.437 3.746 10.319 7.51.931 2.805 2.813 6.56.931 10.31-.931 3.754-2.813 5.627-4.686 7.51-1.882.927-4.691 1.868-6.564 1.868-.941 0-2.828 0-2.828-.941-.927-.928-.927-4.683 0-8.437 0-1.882 0-3.75-.927-5.637-.941-.927-3.75-.927-5.637-.927-3.754 0-9.378.927-15.946 4.682-6.564 5.636-14.07 11.26-20.638 19.71-11.264 8.437-21.578 20.642-28.147 31.888-8.437 13.133-15.014 25.338-17.828 34.716-1.869 7.505-1.869 12.2 0 15.951.94 4.682 5.64 6.569 11.264 6.569 3.75 0 8.45 0 12.187-1.887 4.696-.927 10.333-4.682 15.96-7.505 2.81-.927 6.564-3.75 11.26-5.623 4.682-2.81 6.564-5.623 8.437-5.623.94 0 1.882 1.868 1.882 1.868-.941 0 0 .946 0 1.887-.941 1.868-1.882 3.74-4.696 5.623-1.868 1.868-7.51 4.691-10.319 8.446-6.564 3.741-13.132 7.496-18.77 8.437-6.563 3.75-12.19 5.623-15.941 5.623-11.264 0-18.774-3.755-23.456-9.374-4.691-5.632-5.632-15.014-1.882-24.396 1.882-10.32 9.392-21.584 18.774-35.644 9.373-15.014 22.506-30.033 36.58-44.107 7.505-10.319 15.014-17.814 22.524-21.57 5.623-4.695 11.26-7.504 15-7.504.941 0 3.755 1.868 5.642 1.868 2.809.941 4.677 3.755 6.564 4.7h.94zM692.849 669.53c0 12.187-9.36 21.578-21.552 21.578-7.876 0-14.548-3.908-18.303-9.938-3.764 6.03-10.446 9.938-18.299 9.938-8.193 0-15.1-4.248-18.76-10.726a20.92 20.92 0 0 1-12.205 9.763V854.34h-11.256V690.615c-6.442-1.348-11.69-5.442-14.544-11.092-3.52 6.962-10.671 11.585-19.226 11.585-7.849 0-14.526-3.908-18.299-9.948-3.764 6.04-10.445 9.948-18.29 9.948-12.191 0-21.574-9.387-21.574-21.578 0-12.192 9.378-21.579 21.574-21.579 7.845 0 14.526 3.913 18.29 9.944 3.773-6.03 10.45-9.944 18.299-9.944 8.555 0 15.707 4.619 19.226 11.586 3.524-6.967 10.68-11.586 19.235-11.586 8.202 0 15.11 4.244 18.77 10.726 3.664-6.482 10.572-10.726 18.76-10.726 7.853 0 14.535 3.909 18.299 9.939 3.755-6.03 10.427-9.939 18.303-9.939 12.192-.004 21.552 9.383 21.552 21.579"/></svg>