<svg height="1000" viewBox="0 0 1000 1000" width="1000" xmlns="http://www.w3.org/2000/svg"><g transform="matrix(4.5238526 0 0 4.5238526 -1386.4151 -882.15126)"><path d="m 493.486 320.772 v 0 c -.092 -1.05 -.17 -2.242 -3.453 -9.826 c 0 -.025 -1.981 -4.508 -1.981 -4.508 c -.703 -1.59 -1.381 -3.095 -2.527 -4.196 c -.495 -2.749 -2.378 -5.46 -5.114 -7.231 c -3.903 -2.488 -8.725 -2.652 -13.22 -.424 c -.014 0 -.794 .397 -1.818 1.036 c -1.466 -8.516 -3.993 -23.95 -4.515 -27.306 c -.352 -2.307 2.352 -7.694 4.007 -9.271 c 4.255 -4.066 14.223 -12.405 14.314 -12.482 l 1.837 -1.525 l -17.337 -33.371 l -4.965 2.307 c -.124 .058 -13.617 6.228 -23.006 5.414 c -11.206 -.971 -26.51 -14.601 -31.462 -19.872 l -4.254 -4.517 l -4.235 4.522 c -4.951 5.265 -20.263 18.894 -31.469 19.865 c -9.382 .814 -22.868 -5.355 -23.012 -5.414 l -4.964 -2.307 l -17.332 33.371 l 1.838 1.525 c .091 .077 10.066 8.416 14.32 12.482 c 1.642 1.577 4.352 6.965 3.994 9.271 c -.502 3.355 -3.049 18.79 -4.502 27.306 c -1.029 -.639 -1.805 -1.036 -1.824 -1.036 c -4.496 -2.228 -9.317 -2.064 -13.213 .424 c -2.75 1.771 -4.633 4.482 -5.121 7.231 c -1.146 1.102 -1.824 2.607 -2.521 4.17 c -.007 .026 -1.98 4.509 -1.98 4.509 c -3.283 7.609 -3.382 8.802 -3.46 9.857 c -.287 3.778 .73 8.567 6.886 11.018 c .189 6.254 2.809 16.9 11.853 26.419 c 12.281 12.952 25.814 18.771 38.596 23.148 c 10.64 3.623 25.189 10.432 31.144 17.616 l 5.004 6.021 l 5.003 -6.021 c 5.975 -7.185 20.511 -13.993 31.149 -17.616 c 12.79 -4.378 26.315 -10.196 38.603 -23.148 c 9.043 -9.519 11.662 -20.165 11.858 -26.419 c 6.149 -2.449 7.178 -7.238 6.879 -11.022" fill="#0066b3"/><path d="m 490.528 321.005 c -.065 -.69 -.143 -1.739 -3.219 -8.88 l -1.98 -4.496 c -.873 -1.947 -1.46 -3.251 -2.658 -3.771 c 0 -.02 0 -.045 .013 -.072 c .065 -2.223 -1.499 -4.736 -3.89 -6.255 c -2.99 -1.935 -6.75 -2.032 -10.281 -.279 c -.189 .084 -4.274 2.293 -5.141 4.124 c -.788 -4.014 -4.808 -28.394 -5.453 -32.609 c -.541 -3.636 2.887 -9.955 4.894 -11.871 c 4.378 -4.169 14.463 -12.613 14.463 -12.613 l -14.926 -28.725 l -2.378 1.114 c -.15 .066 -14.295 6.541 -24.511 5.682 c -14.725 -1.277 -33.234 -20.699 -33.424 -20.895 l -2.045 -2.183 l -2.033 2.183 c -.183 .195 -18.692 19.617 -33.417 20.895 c -10.223 .859 -24.373 -5.616 -24.51 -5.682 l -2.379 -1.114 l -14.925 28.725 c 0 0 10.078 8.444 14.463 12.613 c 2 1.916 5.44 8.235 4.88 11.871 c -.632 4.216 -4.665 28.596 -5.447 32.609 c -.873 -1.831 -4.939 -4.04 -5.121 -4.124 c -3.544 -1.753 -7.304 -1.655 -10.307 .279 c -2.384 1.518 -3.941 4.032 -3.87 6.249 v .078 c -1.199 .52 -1.785 1.824 -2.658 3.771 l -1.98 4.496 c -3.075 7.141 -3.153 8.19 -3.206 8.894 c -.54 6.606 4.782 8.079 6.926 8.619 c -.41 4.841 1.329 16.36 10.991 26.523 c 11.845 12.483 24.993 18.139 37.411 22.38 c 11.532 3.942 26.119 10.894 32.478 18.55 l 2.704 3.257 l 2.723 -3.257 c 6.359 -7.656 20.941 -14.607 32.473 -18.55 c 12.424 -4.241 25.565 -9.896 37.41 -22.38 c 9.656 -10.163 11.402 -21.683 10.985 -26.523 c 2.156 -.54 7.48 -2.013 6.945 -8.633 m -5.786 -13.519 c .014 -.117 .014 -.248 .014 -.358 c 0 .11 0 .241 -.014 .358 m -169.481 0 c -.02 -.117 -.02 -.248 -.02 -.358 c 0 .11 0 .241 .02 .358" fill="#fff"/><path d="m 461.014 303.857 c .534 2.319 2.541 8.561 .847 15.746 c -1.688 7.2 -5.923 15.65 -18.281 22.42 c -12.379 6.77 -20.986 8.607 -27.82 11.63 c -8.34 3.7 -15.767 10.789 -15.767 10.789 c 0 0 -7.408 -7.089 -15.768 -10.789 c -6.814 -3.023 -15.415 -4.86 -27.801 -11.63 c -12.372 -6.77 -16.594 -15.22 -18.295 -22.42 c -1.688 -7.186 .319 -13.427 .853 -15.746 c .528 -2.326 5.154 -30.336 5.818 -34.682 c .736 -4.86 -3.395 -12.046 -5.714 -14.274 c -4.495 -4.287 -12.899 -11.311 -12.899 -11.311 l 12.685 -24.426 c 0 0 14.803 6.874 25.904 5.923 c 15.995 -1.382 35.216 -21.846 35.216 -21.846 c 0 0 19.227 20.464 35.221 21.846 c 11.115 .951 25.905 -5.923 25.905 -5.923 l 12.691 24.426 c 0 0 -8.404 7.023 -12.894 11.311 c -2.326 2.229 -6.457 9.414 -5.714 14.274 c .652 4.347 5.291 32.356 5.813 34.682 M 352.867 237.141 h -3.16 l -.788 11.088 h -.209 l -.88 -11.088 h -3.166 l 1.805 14.575 h 4.803 l 1.595 -14.575 m 7.343 11.832 h -2.737 v -3.59 h 2.242 v -2.75 h -2.242 v -2.756 h 2.659 v -2.736 h -5.813 v 14.575 h 5.891 v -2.743 m 8.697 -11.832 h -2.964 v 7.017 h -.039 l -2.021 -7.017 h -2.645 v 14.575 h 2.971 v -7.089 h .026 l 2.046 7.089 h 2.625 v -14.575 m 7.944 0 h -6.711 v 2.736 h 1.772 v 11.839 h 3.16 v -11.839 h 1.778 v -2.736 m 6.946 0 h -6.124 v 14.575 h 3.153 v -6.333 h 2.41 v -2.75 h -2.41 v -2.756 h 2.971 v -2.736 m 13.239 -19.357 c -.013 1.863 1.003 3.615 2.202 4.893 c .169 .189 .364 .248 .195 -.091 c -.449 -1.023 -.639 -2.241 -.56 -3.721 c -.273 -.117 -.449 -.391 -.43 -.71 c .013 -.195 .104 -.365 .246 -.488 c .145 -.124 .327 -.189 .516 -.17 c .189 .007 .372 .085 .489 .241 c .137 .143 .195 .326 .183 .515 c -.02 .307 -.235 .56 -.509 .639 c 0 .11 -.013 .227 .013 .391 c .065 1.114 .353 2.307 .548 2.971 c .052 .196 .183 .424 .397 .026 c 0 0 .41 -1.166 .488 -1.837 c .014 -.137 .026 -.3 .026 -.47 c -.19 -.123 -.3 -.325 -.3 -.566 c .02 -.365 .326 -.651 .678 -.626 c .364 .014 .639 .313 .639 .665 c -.014 .313 -.222 .561 -.521 .612 c -.013 .899 -.17 1.642 -.469 2.28 c -.078 .17 -.131 .443 .156 .111 c 1.094 -1.258 1.993 -2.913 1.967 -4.665 c 0 -2.307 -1.583 -3.838 -2.977 -4.672 c -1.381 .834 -2.971 2.366 -2.977 4.672 m -7.636 3.029 c .371 1.584 1.328 3.559 3.531 4.281 c 1.667 .554 3.518 .202 5.056 -.442 c .391 -.17 .13 -.202 -.065 -.177 c -.697 .085 -1.453 .007 -2.307 -.247 c -.144 .247 -.442 .378 -.742 .286 c -.339 -.091 -.534 -.449 -.456 -.794 c .117 -.353 .469 -.561 .82 -.456 c .222 .071 .392 .247 .436 .462 c .17 .053 .333 .092 .456 .111 c .665 .142 1.896 .11 1.896 .11 c .456 -.078 .273 -.273 .11 -.398 c -.572 -.391 -1.615 -1.022 -2.665 -1.439 c -.143 -.053 -.26 -.098 -.364 -.132 c -.156 .249 -.456 .373 -.756 .301 c -.195 -.052 -.346 -.169 -.449 -.345 c -.085 -.15 -.124 -.346 -.072 -.535 c .039 -.176 .156 -.337 .326 -.43 c .169 -.105 .358 -.13 .533 -.091 c .301 .078 .522 .345 .535 .625 c 1.446 .391 2.541 .939 3.375 1.694 c .273 .254 .273 .059 .149 -.163 c -.84 -1.531 -2.183 -3.036 -3.974 -3.603 c -2.207 -.709 -4.142 .327 -5.373 1.382 m 2.873 18.439 l -2.163 -2.111 h -3.368 l -2.085 2.111 v 10.352 l 2.085 2.112 h 3.505 l 2.026 -2.112 v -10.352 m 1.206 -5.988 c 1.615 .124 3.779 -.169 5.153 -2.039 c 1.036 -1.407 1.284 -3.277 1.134 -4.939 c -.039 -.423 -.149 -.183 -.189 -.007 c -.131 .704 -.443 1.395 -.945 2.124 c .189 .216 .215 .548 .053 .802 c -.202 .287 -.606 .365 -.906 .17 c -.3 -.196 -.378 -.594 -.183 -.899 c .144 -.195 .353 -.3 .574 -.288 c .103 -.143 .188 -.273 .26 -.39 c .339 -.593 .691 -1.766 .691 -1.766 c .059 -.47 -.182 -.358 -.352 -.222 c -.534 .417 -1.472 1.205 -2.189 2.078 c -.104 .105 -.176 .209 -.235 .299 c .177 .235 .196 .568 .026 .822 c -.091 .163 -.254 .28 -.436 .313 c -.189 .053 -.384 .014 -.541 -.091 c -.169 -.104 -.28 -.254 -.319 -.443 c -.039 -.195 -.006 -.385 .099 -.547 c .156 -.255 .476 -.372 .762 -.314 c .808 -1.251 1.661 -2.117 2.639 -2.684 c .332 -.182 .131 -.234 -.091 -.195 c -1.733 .345 -3.584 1.152 -4.678 2.671 c -1.357 1.877 -.959 4.047 -.327 5.545 m 7.883 5.988 l -2.124 -2.111 h -5.434 v 14.575 h 3.146 v -5.832 h 1.336 v 5.832 h 3.075 v -5.832 l -1.597 -1.433 l 1.597 -1.395 v -3.804 m 5.174 -5.988 c .625 -1.498 1.017 -3.668 -.339 -5.544 c -1.088 -1.519 -2.945 -2.326 -4.652 -2.671 c -.247 -.039 -.456 .014 -.123 .195 c .983 .566 1.844 1.433 2.651 2.684 c .287 -.059 .6 .059 .756 .314 c .104 .162 .143 .352 .091 .547 c -.025 .189 -.149 .339 -.314 .443 c -.155 .104 -.357 .144 -.533 .091 c -.195 -.032 -.346 -.149 -.449 -.313 c -.163 -.254 -.137 -.587 .039 -.822 c -.072 -.09 -.124 -.194 -.229 -.299 c -.717 -.873 -1.66 -1.661 -2.203 -2.078 c -.155 -.137 -.402 -.248 -.338 .222 c 0 0 .338 1.173 .678 1.766 c .065 .117 .17 .247 .261 .39 c .215 -.012 .436 .093 .573 .288 c .195 .306 .124 .703 -.183 .899 c -.3 .195 -.703 .117 -.898 -.17 c -.17 -.254 -.15 -.586 .052 -.802 c -.508 -.729 -.821 -1.42 -.958 -2.124 c -.032 -.176 -.149 -.416 -.176 .007 c -.156 1.661 .085 3.531 1.121 4.939 c 1.381 1.869 3.557 2.162 5.173 2.038 m 2.254 15.709 h -2.749 v -3.59 h 2.241 v -2.75 h -2.241 v -2.756 h 2.665 v -2.736 h -5.818 v 14.575 h 5.902 v -2.743 m 1.805 -28.16 c -1.218 -1.055 -3.159 -2.091 -5.375 -1.38 c -1.779 .566 -3.113 2.071 -3.968 3.603 c -.124 .222 -.137 .417 .15 .163 c .834 -.756 1.928 -1.304 3.368 -1.694 c .026 -.28 .228 -.547 .534 -.625 c .188 -.039 .378 -.014 .541 .091 c .169 .093 .286 .254 .325 .43 c .053 .189 .026 .385 -.078 .535 c -.091 .176 -.261 .293 -.436 .345 c -.3 .072 -.6 -.052 -.762 -.301 c -.105 .034 -.222 .079 -.365 .132 c -1.042 .417 -2.085 1.049 -2.658 1.439 c -.176 .124 -.352 .319 .104 .398 c 0 0 1.225 .031 1.902 -.11 c .124 -.02 .273 -.059 .456 -.111 c .052 -.215 .208 -.391 .436 -.462 c .346 -.104 .711 .104 .801 .456 c .111 .345 -.104 .703 -.442 .794 c -.3 .092 -.593 -.039 -.73 -.286 c -.86 .254 -1.629 .332 -2.32 .247 c -.195 -.025 -.455 .007 -.059 .177 c 1.531 .645 3.382 .996 5.05 .442 c 2.197 -.725 3.155 -2.699 3.526 -4.283 m 6.027 16.328 h -6.725 v 2.736 h 1.785 v 11.839 h 3.147 v -11.839 h 1.792 v -2.736 m 14.412 14.575 l -3.153 -7.754 l 2.73 -6.821 h -3.232 l -2.078 6.229 h -.039 v -6.229 h -3.141 v 14.575 h 3.141 V 245.5 h .039 l 2.307 6.216 h 3.426 m 7.871 -12.464 l -2.157 -2.111 h -3.375 l -2.078 2.111 v 10.352 l 2.078 2.112 h 3.512 l 2.021 -2.112 v -10.352 m 7.621 -2.111 h -6.124 v 14.575 h 3.166 v -6.333 h 2.398 v -2.75 h -2.398 v -2.756 h 2.958 v -2.736 m 8.784 12.463 v -12.463 h -3.153 v 11.832 h -1.395 v -11.832 h -3.153 v 12.463 l 2.098 2.112 h 3.558 l 2.045 -2.112 m -67.512 -.631 h 1.316 v -9.096 h -1.316 z m 46.637 0 h 1.316 v -9.096 h -1.316 z m -37.483 -9.096 h 1.336 v 3.258 h -1.336 z" fill="#0066b3"/><path d="m 327.835 312.157 c -3.525 .854 -8.619 -1.017 -9.075 -5.029 c 0 -.026 -5.616 12.287 -5.772 14.171 c -.314 4.007 2.541 4.463 4.841 5.075 l 10.006 -14.217" fill="#0066b3"/><path d="m 327.086 305.18 c 5.577 6.58 .365 6.697 -2.802 4.319 l 2.802 -4.319" fill="#0066b3"/><path d="m 472.168 312.157 c 3.524 .854 8.626 -1.017 9.069 -5.029 c 0 -.026 5.622 12.287 5.773 14.171 c .332 4.007 -2.541 4.463 -4.834 5.075 l -10.008 -14.217" fill="#0066b3"/><path d="m 472.91 305.18 c -5.57 6.58 -.364 6.697 2.796 4.319 l -2.796 -4.319" fill="#0066b3"/><path d="m 470.031 353.744 c -11.767 12.425 -24.76 17.624 -35.984 21.468 c -6.117 2.099 -25.546 9.395 -34.055 19.618 c -8.49 -10.223 -27.925 -17.52 -34.036 -19.618 c -11.239 -3.844 -24.211 -9.043 -36.003 -21.468 c -9.604 -10.118 -10.32 -20.946 -10.021 -23.936 c .521 -5.277 8.958 -13.22 8.958 -13.22 c 2.3 -2.528 3.323 -10.92 -1.753 -12.77 l -4.039 5.361 c -1.277 -1.198 -2.163 -2.781 -2.254 -5.505 c -.065 -1.746 3.596 -5.994 9.082 -3.271 c 2.749 1.355 5.251 7.01 5.511 14.086 c 1.096 28.96 30.929 36.447 44.553 42.648 c 12.802 5.831 20.002 13.227 20.002 13.227 c 0 0 7.205 -7.396 20.015 -13.227 c 13.617 -6.201 43.463 -13.689 44.551 -42.648 c .268 -7.076 2.763 -12.731 5.513 -14.086 c 5.485 -2.724 9.134 1.524 9.095 3.271 c -.098 2.724 -.978 4.307 -2.254 5.505 l -4.053 -5.361 c -5.082 1.85 -4.053 10.241 -1.746 12.77 c 0 0 8.438 7.942 8.952 13.22 c .299 2.99 -.419 13.818 -10.034 23.936 m -137.726 -14.613 l 6.385 -.534 l -1.498 -2.652 l -3.694 .809 l -.013 -.033 l 2.612 -2.723 l -1.493 -2.691 l -3.804 5.167 l -3.662 2.039 l 1.506 2.69 l 3.661 -2.072 m 2.768 11.545 l 6.998 -7.467 l -2.593 -3.609 l -9.246 4.326 l 1.733 2.417 l 1.661 -.859 l 1.043 1.446 l -1.355 1.303 l 1.759 2.443 m 9.115 7.831 l 6.19 -7.896 l -2.834 -2.208 l -3.792 3.198 l -.222 -.183 l 2.15 -4.482 l -2.834 -2.234 l -6.189 7.916 l 2.202 1.72 l 3.934 -5.01 l .098 .078 l -2.913 5.811 l .881 .69 l 4.945 -4.222 l .104 .086 l -3.922 5.022 l 2.202 1.714 m 8.151 5.213 l 3.428 -9.63 l -3.818 -2.28 l -6.75 7.662 l 2.567 1.524 l 1.166 -1.46 l 1.544 .912 l -.723 1.733 l 2.586 1.539 m 7.896 3.87 l 4.365 -9.037 l -2.6 -1.251 l -2.091 4.346 l -.039 -.013 l .313 -5.199 l -2.3 -1.107 l -4.346 9.029 l 2.58 1.251 l 2.124 -4.404 l .025 .026 l -.313 5.265 l 2.282 1.094 m 8.731 3.596 l 2.021 -10.033 l -4.118 -1.707 l -5.565 8.561 l 2.763 1.141 l .945 -1.597 l 1.648 .672 l -.47 1.81 l 2.776 1.153 m 8.144 1.74 l 1.146 -2.822 l -1.407 -2.137 l -2.02 -.964 l .762 -1.89 l 1.167 .456 l -.495 1.251 l 2.84 1.146 l .672 -1.642 l -1.467 -2.156 l -2.996 -1.219 l -2.398 .606 l -1.134 2.795 l 1.446 2.137 l 1.994 .939 l -.795 1.961 l -1.173 -.488 l .509 -1.231 l -2.854 -1.141 l -.664 1.642 l 1.316 2.092 l 3.153 1.271 l 2.398 -.606 m 7.245 4.775 l 4.156 -9.141 l -2.788 -1.258 l -1.682 3.7 l -1.186 -.527 l 1.694 -3.707 l -2.795 -1.271 l -4.15 9.128 l 2.795 1.271 l 1.688 -3.701 l 1.173 .528 l -1.694 3.707 l 2.789 1.271 m 9.134 -6.411 l -2.684 -1.499 l -4.88 8.776 l 2.678 1.492 l 4.886 -8.769 m 22.914 6.131 l -1.016 -1.602 l -2.235 1.427 l -1.315 -2.098 l 1.824 -1.167 l -1.017 -1.59 l -1.838 1.167 l -1.01 -1.577 l 2.182 -1.407 l -1.009 -1.59 l -4.768 3.036 l 5.375 8.464 l 4.827 -3.063 m 7.363 -5.636 l -1.412 -2.697 l -2.529 -.307 l -2.059 .906 l -.939 -1.811 l 1.121 -.573 l .625 1.186 l 2.71 -1.434 l -.82 -1.576 l -2.593 -.287 l -2.867 1.506 l -1.095 2.228 l 1.395 2.658 l 2.573 .293 l 2 -.905 l .977 1.863 l -1.12 .587 l -.612 -1.18 l -2.718 1.427 l .815 1.558 l 2.438 .371 l 3.022 -1.59 l 1.088 -2.223 m 5.811 -.886 l -3.134 -7.513 l 1.59 -.671 l -.723 -1.746 l -6.027 2.528 l .73 1.746 l 1.59 -.678 l 3.14 7.519 l 2.834 -1.185 m 5.05 -2.006 l -.756 -1.779 l -2.827 1.192 l .749 1.779 l 2.834 -1.192 m 11.011 -5.082 l -4.443 -8.984 l -1.602 .788 l -2.02 1.616 l .612 1.237 l 1.114 -.547 l 3.59 7.245 l 2.749 -1.355 m 7.525 -6.014 l -3.662 -6.131 l -2.469 -.208 l -2.919 1.752 l -.912 2.228 l 1.693 2.835 l 2.242 .17 l 2.092 -1.251 l 1.074 1.805 l -1.121 .664 l -.677 -1.153 l -2.548 1.538 l .905 1.512 l 2.456 .221 l 2.86 -1.72 l .986 -2.262 m 7.682 -5.694 l -1.942 -2.534 l -2.306 .091 l -1.929 1.492 l -1.329 -1.739 l 1.081 -.814 l .809 1.049 l 2.358 -1.812 l -1.068 -1.4 l -2.497 .078 l -2.611 1.987 l -.697 2.378 l 4.32 5.648 l 2.476 -.052 l 2.651 -2.033 l .684 -2.339 m 6.866 -6.724 l -2.449 -2.392 l -2.346 .436 l -1.648 1.609 l -1.322 -1.296 l 2.397 -2.443 l -1.355 -1.316 l -4.482 4.561 l 3.036 2.977 l 2.522 -.527 l 1.453 -1.414 l 1.733 1.688 l -.834 .86 l -1.069 -1.049 l -2.149 2.189 l 1.375 1.349 l 2.442 -.397 l 2.359 -2.417 l .337 -2.418 m -20.62 8.248 l 1.166 1.935 l -1.107 .664 l -1.173 -1.941 l 1.114 -.658 m -94.452 1.063 l -2.541 3.349 l 1.146 .69 l 1.643 -3.877 l -.248 -.162 m 13.299 11.199 l 1.23 .502 l 1.068 -4.078 l -.273 -.104 l -2.025 3.68 m 89.876 -13.245 l 1.316 1.739 l 1.088 -.834 l -1.322 -1.727 l -1.082 .822 m -120.519 -8.073 l .782 1.081 l 3.049 -2.893 l -.176 -.248 l -3.655 2.06" fill="#0066b3"/><path d="m 455.098 258.165 c -1.863 3.479 -3.329 7.825 -2.782 11.435 c .561 3.675 5.271 32.329 5.857 34.883 c .065 .287 .156 .612 .234 .996 c .691 2.705 1.962 7.761 .619 13.468 c -1.31 5.584 -4.495 13.786 -16.88 20.563 c -8.015 4.397 -14.295 6.619 -19.84 8.567 c -2.756 .971 -5.362 1.909 -7.753 2.965 c -6.17 2.731 -11.702 7.121 -14.549 9.565 c -2.853 -2.443 -8.379 -6.834 -14.556 -9.565 c -2.391 -1.056 -4.99 -1.994 -7.753 -2.965 c -5.538 -1.948 -11.811 -4.17 -19.839 -8.567 c -12.386 -6.776 -15.559 -14.979 -16.868 -20.563 c -1.354 -5.707 -.078 -10.763 .6 -13.468 c .099 -.384 .183 -.709 .248 -.996 c .586 -2.554 5.29 -31.208 5.851 -34.883 c .56 -3.609 -.912 -7.955 -2.775 -11.435 h 110.186 m -53.178 32.89 c .235 -5.251 .652 -10.62 1.095 -16.288 c 5.825 -1.192 8.503 5.336 8.503 5.336 l 6.222 -10.607 c 0 0 -3.244 -4.078 -7.806 -3.935 c -1.107 .032 -3.596 .671 -5.166 2.228 c -1.558 1.584 -10.914 10.281 -10.914 10.281 l .014 12.712 l -6.997 6.17 c 0 0 3.733 2.052 7.075 2.41 c .229 14.236 -.762 26.752 -.762 30.251 c 0 3.524 -3.629 12.679 -3.629 12.679 l 12.274 -10.842 l -.078 -32.791 c 6.476 -2.743 13.981 -7.603 13.981 -7.603 c 0 0 -9.408 .865 -13.812 -.001 m -21.135 -5.806 l -7.676 9.089 c 0 0 1.551 .326 2.385 .619 c .809 .3 3.05 3.063 3.609 7.135 c 1.056 7.538 -3.434 11.629 -3.434 11.629 c -2.156 -1.524 -7.355 -9.714 -7.355 -10.477 c 0 -.957 3.382 -9.604 3.382 -9.604 l -5.74 -7.427 l -8.509 8.274 c 0 0 5.615 3.095 7.844 8.443 c -1.837 4.496 -3.427 7.401 -3.863 7.969 c 0 0 .51 3.29 4.854 8.307 c 3.296 3.792 7.844 4.717 7.844 4.717 c 0 0 5.564 -10.281 9.669 -17.942 c 4.841 -9.122 .658 -17.004 -3.01 -20.732 m 50.403 20.348 l 5.654 -4.202 c 0 0 -4.593 -6.528 -7.277 -6.464 c -1.622 .046 -5.851 2.997 -5.936 3.05 l .522 -12.262 l 3.636 -2.111 l -7.298 -5.082 l -7.739 5.252 c 0 0 1.791 .996 2.527 1.537 c .273 .215 .887 .736 1.107 2.046 c .183 1.068 .013 6.639 .013 7.18 c 0 10.913 -.859 22.569 -1.094 23.247 l -1.043 1.381 l 6.607 2.984 l 7.7 -5.767 l -5.107 -2.521 c 0 0 .006 -3.466 .006 -3.817 c 3.811 3.941 10.229 11.453 10.229 11.453 l 8.372 -4.6 c 0 0 -1.975 -1.831 -2.919 -2.841 c -4.755 -5.081 -6.795 -7.656 -7.96 -8.463 m -8.223 -3.59 c 0 -.43 .11 -1.505 2.385 .332 c 1.315 1.056 2.234 1.961 2.202 2.378 c -.039 .431 -1.226 .77 -2.496 1.153 c -1.271 .391 -2.183 .905 -2.183 .371 c 0 -.637 .092 -3.075 .092 -4.234" fill="#fff"/><path d="m 347.315 259.176 c .189 .384 .385 .808 .581 1.271 l 7.974 4.788 l 10.099 -6.059 h -18.654" fill="#b7274c"/><path d="M 388.029 259.176 L 367.839 259.176 L 377.944 265.234 Z" fill="#b7274c"/><path d="M 410.103 259.176 L 389.919 259.176 L 400.005 265.234 Z" fill="#b7274c"/><path d="M 432.164 259.176 L 411.978 259.176 L 422.072 265.234 Z" fill="#b7274c"/><path d="m 452.7 259.176 h -18.653 l 10.093 6.059 l 7.975 -4.788 c .2 -.464 .39 -.887 .585 -1.271" fill="#b7274c"/><path d="m 355.87 265.234 l -5.929 3.727 c -.013 .417 -.026 .809 -.091 1.219 c -.117 .697 -.372 2.358 -.729 4.58 l 6.749 4.053 l 11.037 -6.625 l -11.037 -6.954" fill="#b7274c"/><path d="M 377.944 265.234 L 366.907 272.188 L 377.944 278.813 L 388.968 272.188 Z" fill="#b7274c"/><path d="m 401.992 266.485 l -1.987 -1.251 l -11.037 6.953 l 4.274 2.553 c 2.625 -2.468 6.88 -6.45 8.75 -8.255" fill="#b7274c"/><path d="m 421.192 269.261 l -3.909 6.672 l 1.017 .612 l 2.215 -1.479 l 3.609 2.508 l 8.979 -5.387 l -11.031 -6.953 l -2.756 1.733 c .391 .417 .625 .71 .664 .742 l 1.212 1.552" fill="#b7274c"/><path d="m 450.889 274.76 c -.364 -2.222 -.612 -3.883 -.723 -4.58 c -.065 -.41 -.098 -.802 -.098 -1.219 l -5.929 -3.727 l -11.036 6.953 l 11.036 6.625 l 6.75 -4.052" fill="#b7274c"/><path d="m 355.87 278.813 l -8.248 5.18 c -.169 1.029 -.346 2.091 -.508 3.114 l 8.541 5.146 l 8.464 -8.261 l -8.249 -5.179" fill="#b7274c"/><path d="m 377.944 278.813 l -9.486 5.961 l 2.749 3.558 l 2.144 1.277 l 7.298 -8.613 l 2.195 2.248 c 1.198 1.212 2.293 2.645 3.231 4.247 l 2.893 -1.746 l -11.024 -6.932" fill="#b7274c"/><path d="m 407.295 284.024 l .489 -.332 l -2.456 -1.538 c -.15 2.105 -.3 4.242 -.411 6.353 c .463 .026 .945 .046 1.434 .046 l 4.392 -2.626 l -3.448 -1.903" fill="#b7274c"/><path d="M 388.968 285.744 L 391.026 286.97 L 391.014 284.468 Z" fill="#b7274c"/><path d="M 426.938 287.399 L 426.86 289.497 L 433.103 285.744 L 431.532 284.754 Z" fill="#b7274c"/><path d="m 444.14 292.377 l 8.763 -5.271 c -.176 -1.023 -.346 -2.085 -.515 -3.108 l -8.248 -5.185 l -11.036 6.932 l 11.036 6.632" fill="#b7274c"/><path d="m 356.065 297.003 l -3.388 -1.863 l 2.189 -2.144 l -9.76 6.15 c -.02 .104 -.033 .202 -.053 .3 l 10.815 6.496 l 5.916 -3.545 c -2.122 -3.361 -5.685 -5.381 -5.719 -5.394" fill="#b7274c"/><path d="m 374.204 297.557 c -.254 -.071 -.547 -.149 -.854 -.222 c -.697 1.818 -1.342 3.59 -1.739 4.809 l 4.775 2.866 c .033 -.781 .014 -1.615 -.11 -2.527 c -.384 -2.717 -1.616 -4.438 -2.072 -4.926" fill="#b7274c"/><path d="m 409.243 298.176 c -1.485 .808 -3.049 1.609 -4.612 2.346 v 2.651 l 6.411 -3.863 l -1.799 -1.134" fill="#b7274c"/><path d="m 413.452 300.756 c .026 -.971 .039 -1.98 .053 -2.997 l -2.463 1.551 l 2.41 1.446" fill="#b7274c"/><path d="m 439.188 299.752 l 1.616 2.287 l -1.421 1.056 l 4.757 2.848 l 10.828 -6.496 c -.026 -.098 -.053 -.195 -.065 -.3 l -10.763 -6.77 l -7.181 4.509 c .873 1.011 1.629 2.019 2.229 2.866" fill="#b7274c"/><path d="m 342.944 314.015 l 1.902 -1.134 l -1.902 -1.193 c -.026 .743 -.026 1.525 0 2.327" fill="#b7274c"/><path d="m 358.606 311.323 l -.188 -1.198 c 0 0 .463 -.743 1.101 -1.89 l -3.648 -2.293 l -11.023 6.939 l 11.023 6.626 l 4.913 -2.958 c -1.773 -2.978 -2.138 -4.939 -2.178 -5.226" fill="#b7274c"/><path d="m 375.371 309.154 c .267 -.58 .521 -1.258 .71 -2.033 l -1.499 .944 c .261 .378 .528 .75 .789 1.089" fill="#b7274c"/><path d="m 384.746 310.235 c -1.095 2.033 -2.619 4.88 -4.124 7.655 l 8.346 -5.01 l -4.222 -2.645" fill="#b7274c"/><path d="M 411.042 312.881 L 404.644 308.86 L 404.67 316.712 Z" fill="#b7274c"/><path d="m 390.942 314.073 c .032 -.809 .059 -1.643 .084 -2.475 l -2.059 1.283 l 1.975 1.192" fill="#b7274c"/><path d="m 412.82 313.956 c .059 -.691 .098 -1.46 .163 -2.294 l -1.941 1.219 l 1.778 1.075" fill="#b7274c"/><path d="m 438.712 309.355 c .905 .991 1.844 2.007 2.534 2.75 c .704 .768 5.669 5.388 5.669 5.388 c 0 0 -1.355 .75 -3.192 1.772 l .417 .241 l 11.023 -6.626 l -11.023 -6.939 l -5.428 3.414" fill="#b7274c"/><path d="m 457.053 311.688 l -1.89 1.193 l 1.896 1.134 c .033 -.802 .033 -1.584 -.006 -2.327" fill="#b7274c"/><path d="m 355.87 319.507 l -9.343 5.883 c .691 1.134 1.499 2.339 2.476 3.558 l 6.867 4.138 l 11.037 -6.64 l -11.037 -6.939" fill="#b7274c"/><path d="m 377.944 333.085 l 11.023 -6.64 l -9.669 -6.085 c -2.006 3.72 -3.668 6.802 -3.668 6.802 l -2.078 -.417 c -.13 -.026 -2.059 -.443 -4.417 -1.694 l -2.228 1.395 l 11.037 6.639" fill="#b7274c"/><path d="m 390.382 327.306 c .02 -.554 .059 -1.141 .085 -1.805 l -1.499 .944 l 1.414 .861" fill="#b7274c"/><path d="M 404.67 322.438 L 404.683 330.257 L 411.042 326.445 Z" fill="#b7274c"/><path d="M 421.231 325.462 L 416.215 323.194 L 411.042 326.445 L 422.072 333.085 L 433.103 326.445 L 425.929 321.943 Z" fill="#b7274c"/><path d="m 444.14 333.085 l 6.88 -4.138 c .951 -1.219 1.771 -2.424 2.456 -3.558 l -9.336 -5.883 l -11.036 6.939 l 11.036 6.64" fill="#b7274c"/><path d="m 354.15 334.153 c 1.576 1.276 3.328 2.502 5.336 3.609 c 2.117 1.186 4.098 2.195 5.987 3.114 l 1.434 -.86 l -11.037 -6.932 l -1.72 1.069" fill="#b7274c"/><path d="m 387.665 339.196 l -9.721 -6.111 l -11.037 6.932 l 8.614 5.192 c 1.041 .372 2.019 .75 2.996 1.089 l 8.326 -5.004 c .124 -.248 .15 -.339 .195 -.431 c .196 -.508 .418 -1.074 .627 -1.667" fill="#b7274c"/><path d="M 400.005 346.656 L 411.042 340.017 L 402.533 334.674 L 393.516 342.76 Z" fill="#b7274c"/><path d="m 411.042 340.017 l 10.443 6.281 c .984 -.339 1.975 -.717 2.991 -1.089 l 8.627 -5.192 l -11.031 -6.932 l -11.03 6.932" fill="#b7274c"/><path d="m 434.536 340.877 c 1.883 -.919 3.87 -1.929 5.993 -3.114 c 1.994 -1.107 3.767 -2.333 5.316 -3.609 l -1.706 -1.068 l -11.036 6.932 l 1.433 .859" fill="#b7274c"/><path d="m 400.005 359.08 c 2.007 -1.693 5.108 -4.502 8.73 -6.951 l -8.73 -5.473 l -8.73 5.473 c 3.621 2.449 6.736 5.258 8.73 6.951" fill="#b7274c"/></g></svg>