<svg height="1000" viewBox="0 0 1000 1000" width="1000" xmlns="http://www.w3.org/2000/svg"><g transform="matrix(1.5107734 0 0 1.5107734 2.275703 2.250776)"><path d="m 329.672 643.875 c 173.034 0 314.074 -141.269 314.074 -314.521 c 0 -173.03 -141.04 -314.296 -314.074 -314.296 c -173.251 0 -314.518 141.266 -314.518 314.296 c .001 173.252 141.268 314.521 314.518 314.521 z" fill="#0062aa"/><path d="m 38.031 329.799 c 0 161.057 131.03 292.084 292.086 292.084 c 161.056 0 292.087 -131.027 292.087 -292.084 c 0 -161.18 -131.031 -292.307 -292.087 -292.307 c -161.056 0 -292.086 131.127 -292.086 292.307 z m 18.215 0 c 0 -151.137 122.858 -274.094 273.871 -274.094 c 151.012 0 273.871 122.957 273.871 274.094 c 0 151.013 -122.859 273.869 -273.871 273.869 c -151.013 0 -273.871 -122.856 -273.871 -273.869 z" fill="#fff"/><path d="m 330.34 493.056 c -89.736 0 -162.812 -73.076 -162.812 -162.813 c 0 -89.514 73.076 -162.591 162.812 -162.591 c 89.291 0 162.593 73.077 162.593 162.591 c 0 89.737 -73.302 162.813 -162.593 162.813 z" fill="#fff"/><path d="m 135.875 330.465 c 0 106.983 86.937 194.019 193.797 194.019 c 106.74 0 193.577 -87.036 193.577 -194.019 c 0 -106.861 -86.836 -193.798 -193.577 -193.798 c -106.86 0 -193.797 86.937 -193.797 193.798 z m 17.992 0 c 0 -96.941 78.865 -175.806 175.805 -175.806 c 96.818 0 175.584 78.865 175.584 175.806 c 0 97.062 -78.766 176.027 -175.584 176.027 c -96.94 0 -175.805 -78.965 -175.805 -176.027 z" fill="#fff"/><path d="m 213.949 203.635 c 61.75 -29.098 91.514 .665 136.604 5.552 c 41.536 15.327 80.848 -2.443 118.608 -7.995 C 439.4 321.803 482.044 376.443 489.378 463.96 C 405.86 459.959 338.557 405.319 239.492 453.517 C 250.822 370 241.27 285.597 213.949 203.635 Z" fill="#ee3124"/><path d="m 345.444 207.411 v 58.862 h 114.615 l 9.772 -65.305 c -48.202 11.33 -86.849 18.66 -124.387 6.443 z" fill="#fff"/><g><path d="M 560.009 362.228 L 556.679 384.219 L 538.91 381.331 L 532.468 380.219 L 530.691 391.547 L 538.91 392.877 L 560.454 396.21 L 586.001 400.211 L 587.773 389.106 L 566.009 385.551 L 569.341 363.782 L 591.107 367.114 L 592.885 356.009 L 560.454 350.899 L 538.91 347.567 L 537.574 347.346 L 535.8 358.453 L 538.91 358.894 Z" fill="#fff"/><path d="M 560.454 413.539 L 538.91 406.206 L 525.362 401.32 L 521.582 411.984 L 538.91 417.98 L 560.454 425.528 L 574.449 430.196 L 578.226 419.535 Z" fill="#fff"/><path d="m 538.91 287.374 l -3.552 -1.111 l .443 11.773 l 3.109 1.11 l 9.553 3.109 l .885 22.434 l -10.438 4.443 l -1.997 .888 l .44 12.216 l 1.557 -.665 l 21.544 -9.552 l 31.987 -13.992 l -.444 -11.995 l -31.542 -11.106 z m 40.203 24.877 l -18.66 7.551 l -1.776 .889 l -.664 -15.326 l 2.441 .889 z" fill="#fff"/><path d="m 520.698 417.534 l -6.221 10.219 l 8.438 10.439 l -11.552 19.104 l -13.325 -2.224 l -6.44 10.44 l 47.312 7.773 l 12.216 1.777 l 6.217 -10.219 l -18.433 -23.54 z m 22.432 45.756 l -4.22 -.887 l -17.549 -3.331 l 7.776 -13.105 l 9.773 11.992 z" fill="#fff"/><path d="M 534.465 178.313 L 538.91 174.317 L 541.353 172.094 L 538.91 169.208 L 513.588 141.22 L 479.828 171.651 L 472.052 178.535 L 479.828 187.198 L 500.483 210.298 L 507.592 203.856 L 486.712 180.757 L 498.038 170.541 L 516.697 191.418 L 523.807 185.199 L 504.922 164.32 L 514.253 155.879 Z" fill="#fff"/><path d="m 516.031 239.174 l 6.884 17.768 c 2.669 6.665 4.444 10.885 5.332 12.662 c 1.332 2.667 3.11 4.665 5.11 5.997 c 1.555 1.111 3.556 1.999 5.553 2.221 c .441 .224 1.11 .224 1.555 .224 c 2.665 .221 5.108 0 7.553 -.889 c 3.109 -1.333 5.333 -3.111 6.885 -5.775 c 1.556 -2.443 2.219 -5.554 1.998 -9.107 c 1.113 1.11 2.22 1.998 3.554 2.665 c 1.111 .444 2 .888 3.11 .888 c 2.445 .667 4.888 .446 7.33 -.443 c 2.221 -.889 4.218 -2.221 5.554 -3.999 c 1.334 -1.776 2.443 -3.775 2.888 -5.774 c .444 -2 .444 -3.999 0 -6.22 c -.444 -2.222 -1.333 -5.331 -3.11 -9.329 l -7.998 -20.879 l -7.774 2.888 l -21.544 8.218 z m 44.423 -5.109 l 3.11 -1.11 l 2.445 5.996 c 1.777 5.11 2.886 7.998 3.332 9.107 c .443 1.999 .222 3.554 -.446 4.666 c -.667 1.331 -1.777 2.22 -3.333 2.887 c -1.777 .666 -3.331 .666 -4.663 0 c -.222 0 -.222 0 -.444 0 c -1.109 -.667 -2.218 -2 -3.111 -3.555 c -.443 -.889 -1.553 -3.332 -3.109 -7.551 l -2.662 -6.886 z m -17.548 6.887 l 3.333 8.44 c 1.778 4.887 2.666 7.996 2.666 9.773 c .22 1.555 -.224 2.888 -1.113 4.22 c -.664 1.111 -1.999 2 -3.555 2.666 c -1.778 .667 -3.331 .667 -4.887 .224 c -.222 0 -.222 -.224 -.441 -.224 c -1.336 -.666 -2.221 -1.554 -3.109 -2.887 c -.666 -.889 -1.557 -3.332 -3.112 -7.108 l -3.775 -9.774 l 9.996 -3.774 z" fill="#fff"/><path d="m 474.718 157.213 c 1.554 -2.888 2.221 -5.775 1.997 -8.663 c -.443 -3.109 -1.774 -5.775 -4.221 -8.441 c 2.667 .223 5.11 -.222 7.333 -1.11 l .22 -.222 c 2.22 -1.112 4.221 -2.886 5.553 -5.108 c 1.111 -1.999 1.777 -4.221 1.777 -6.442 c 0 -2.219 -.223 -4.219 -1.109 -6.218 c -.892 -1.777 -2.223 -3.555 -4 -4.888 c -.666 -.665 -1.554 -1.333 -2.44 -1.998 c -1.558 -1.11 -3.332 -2.22 -5.778 -3.776 l -9.328 -5.554 l -9.773 -5.774 l -25.322 42.201 l -3.555 5.777 l 3.555 1.999 l 12.882 7.772 c 6.221 3.553 10.216 5.777 11.771 6.663 c 2.889 1.112 5.555 1.778 7.998 1.556 c .889 0 1.554 -.223 2.443 -.444 c 1.554 -.445 3.109 -1.112 4.663 -1.997 c 2.225 -1.336 3.999 -3.333 5.334 -5.333 z m -9.773 -6.665 c 0 .222 0 .222 -.223 .446 c -.889 1.553 -2.223 2.441 -3.555 2.886 c -1.555 .444 -3.109 .444 -4.664 -.224 c -1.111 -.221 -3.332 -1.554 -6.887 -3.552 l -8.885 -5.554 l 7.776 -12.661 l 7.772 4.666 c 4.441 2.666 7.11 4.44 8.219 5.774 c 0 .223 .223 .223 .223 .444 c .889 1.111 1.331 2.445 1.331 3.555 c .224 1.554 -.221 2.887 -1.107 4.22 z m 1.777 -18.878 c -.446 -.224 -1.111 -.444 -2 -.889 c -1.112 -.889 -2.886 -1.777 -5.109 -3.11 l -6.441 -3.775 l 6.664 -11.108 l 4.887 2.888 l .666 .444 c 4.666 2.667 7.328 4.444 8.217 5.111 c 1.556 1.11 2.444 2.443 2.667 3.776 c .224 1.555 0 2.885 -.89 4.441 c -1.11 1.555 -2.218 2.443 -3.773 2.888 c -1.556 .444 -3.113 .222 -4.888 -.666 z" fill="#fff"/><path d="m 432.956 88.579 l -3.329 -1.113 l -7.329 -2.442 l -10.219 29.098 c -1.332 4.219 -2.664 7.33 -3.556 8.885 c -.886 1.777 -2.44 2.886 -4.218 3.555 c -2.001 .889 -4.444 .664 -7.552 -.446 c -3.11 -.889 -5.107 -2.442 -6.442 -4.441 c -1.334 -1.777 -1.777 -3.999 -1.334 -6.221 c 0 -1.553 .891 -4.441 2.446 -9.106 l 9.996 -28.655 l -10.665 -3.552 l -9.551 28.209 c -2 5.996 -3.108 10.437 -3.554 13.769 c -.223 2.222 0 4.444 .892 6.887 c .886 2.442 2.44 4.664 4.44 6.662 c 2.221 2.001 5.775 4 10.882 5.777 c 4.224 1.333 7.775 2 10.884 1.778 c 2.889 0 5.333 -.889 7.553 -2.002 c 2.224 -1.33 3.997 -3.107 5.553 -5.553 c 1.558 -2.443 3.332 -6.884 5.552 -13.326 l 6.221 -17.991 z" fill="#fff"/><path d="M 211.284 96.796 L 181.077 114.787 L 175.746 118.12 L 181.077 127.003 L 204.399 166.097 L 240.826 144.107 L 236.161 136.11 L 209.286 152.103 L 201.51 138.998 L 225.501 124.56 L 220.615 116.564 L 196.625 131.002 L 190.183 120.342 L 216.171 104.792 Z" fill="#fff"/><path d="m 298.577 115.011 c -1.777 2.221 -4.219 3.554 -7.108 3.998 c -3.999 .666 -7.553 -.223 -10.661 -2.889 c -2.889 -2.443 -4.888 -7.329 -5.998 -14.215 c -1.108 -6.662 -.667 -11.55 1.555 -14.881 c 1.999 -3.331 5.108 -5.329 9.329 -5.997 c 2.888 -.444 5.552 0 7.775 1.333 c 2.442 1.333 4.22 3.332 5.33 5.995 l 10.439 -4.441 c -1.776 -4.221 -4.219 -7.107 -7.107 -9.109 c -4.887 -3.331 -10.662 -4.441 -17.548 -3.552 c -7.774 1.333 -13.548 4.886 -17.547 10.662 c -3.776 5.775 -5.11 13.327 -3.555 22.655 c 1.333 8.663 4.667 15.104 10.221 19.325 c 5.551 4.219 11.992 5.773 19.322 4.663 c 5.998 -.888 10.662 -3.11 13.994 -6.662 c 3.332 -3.555 5.331 -8.44 6.22 -14.66 l -11.55 -1.778 c -.224 4.222 -1.335 7.33 -3.111 9.553 z" fill="#fff"/><path d="M 327.674 69.254 L 325.675 124.56 L 364.991 125.893 L 365.436 116.564 L 337.226 115.675 L 338.781 69.476 Z" fill="#fff"/><path d="M 145.982 162.321 L 179.3 190.085 L 181.077 187.865 L 186.408 181.424 L 181.077 176.98 L 150.869 151.659 L 161.53 138.998 L 154.201 132.78 L 145.982 142.553 L 125.77 166.763 L 132.876 172.983 L 143.539 160.321 Z" fill="#fff"/><path d="m 145.982 204.745 c -1.332 .223 -2.665 .445 -3.554 .666 c -2.222 .667 -4.665 1.556 -7.11 3.111 c 1.778 -4.665 2.002 -8.663 .889 -12.217 c -1.109 -3.553 -3.552 -6.22 -7.328 -8.219 c -2.888 -1.777 -5.775 -2.443 -8.885 -2.221 c -1.11 0 -2.222 .223 -3.332 .667 c -1.554 .444 -3.109 1.333 -4.442 2.443 c -2.222 1.776 -4.887 5.331 -7.774 10.662 l -11.328 20.879 l 23.544 13.104 l 25.322 13.994 l 3.998 -7.33 l 1.333 -2.665 l -1.333 -.667 l -18.879 -10.662 l 1.109 -1.999 c 1.111 -2.221 2.222 -3.775 3.11 -4.664 c 1.11 -.889 2.222 -1.333 3.776 -1.777 c 1.555 -.445 4.886 -.889 9.995 -1.334 h .889 l 13.772 -1.11 l 6.663 -11.772 l -12.882 .665 c -3.111 .002 -5.554 .224 -7.553 .446 z m -18.436 .666 c -.223 1.556 -1.776 4.665 -4.22 9.331 l -4.22 7.329 l -2.444 -1.333 l -9.994 -5.552 l 4.442 -7.775 c 2.221 -3.999 3.552 -6.442 3.998 -7.108 c .666 -.666 1.11 -1.111 1.554 -1.555 c .889 -.444 1.555 -.888 2.444 -1.108 c 1.554 -.224 3.109 0 4.886 .886 c 1.333 .889 2.442 1.778 3.111 3.11 c .443 1.111 .666 2.443 .443 3.775 z" fill="#fff"/><path d="M 116.662 439.302 L 116.439 439.302 L 116.662 439.748 L 130.878 463.514 L 120.438 469.731 L 116.662 463.735 L 104.89 443.966 L 96.672 448.853 L 116.662 482.172 L 117.996 484.39 L 145.982 467.515 L 165.972 455.518 L 145.982 422.201 L 144.206 419.087 L 135.987 423.975 L 145.982 440.635 L 152.202 450.63 L 145.982 454.41 L 139.095 458.627 L 124.657 434.415 Z" fill="#fff"/><path d="m 116.662 360.896 l 9.107 -.669 l -.667 -11.326 l -8.44 .667 l -12.66 .887 l -.445 -7.33 c -.444 -5.108 -.889 -9.106 -1.556 -11.772 c -.664 -1.777 -1.777 -3.776 -3.108 -5.552 c -1.556 -1.777 -3.555 -3.332 -5.775 -4.443 c -1.999 -.887 -4.221 -1.332 -6.885 -1.332 c -.668 0 -1.333 0 -1.999 .221 c -4.444 .224 -7.997 1.557 -10.662 4 c -2.666 2.22 -4.221 5.108 -4.886 8.217 c -.445 2.221 -.445 6.664 .221 13.549 l 1.11 17.991 l 16.216 -1.108 z m -37.982 -8.663 l -.222 -5.554 c -.444 -3.998 -.444 -6.662 -.223 -7.995 c .223 -1.999 .889 -3.554 1.999 -4.887 c 1.333 -1.11 2.888 -1.999 4.887 -1.999 c .444 0 .889 0 1.112 0 c 1.331 0 2.443 .444 3.331 .889 c 1.333 .889 2.443 1.999 3.111 3.332 c .665 1.554 1.11 4.442 1.554 8.885 l .222 6.22 l -8.217 .443 z" fill="#fff"/><path d="m 101.337 422.421 c 4.219 -1.332 7.33 -4.218 9.106 -8.44 c 1.333 -2.888 1.777 -7.551 1.333 -13.769 c -.222 -4.887 -.444 -7.998 -.444 -9.331 c 0 -1.997 .444 -3.552 1.11 -4.664 c .668 -.889 1.556 -1.777 2.888 -1.998 c .445 -.222 .889 -.445 1.333 -.445 c 1.555 0 3.109 .445 4.665 1.33 c 1.999 1.333 3.553 3.555 4.664 7.11 c 1.112 3.333 1.112 6.22 0 8.662 c -.889 2.445 -3.109 4.443 -6.441 6.22 l 4.442 10.219 c 5.775 -2.666 9.552 -6.221 11.551 -10.884 c 1.777 -4.665 1.777 -10.439 -.445 -17.103 c -1.554 -4.664 -3.332 -8.218 -5.775 -10.885 c -2.22 -2.663 -5.108 -4.441 -8.219 -5.33 c -1.555 -.223 -2.888 -.443 -4.442 -.443 c -1.554 0 -3.332 .22 -4.886 .663 c -3.332 1.112 -5.997 2.889 -7.774 4.887 c -2.001 2.224 -3.109 4.667 -3.554 7.774 c -.444 2.891 -.444 7.108 0 12.664 c .445 5.772 .222 9.327 -.444 11.105 c -.444 1.331 -1.333 2.223 -2.666 2.665 c -1.332 .443 -2.665 .221 -3.775 -.665 c -1.999 -1.336 -3.332 -3.555 -4.442 -6.664 c -.889 -3.108 -1.112 -5.556 -.444 -7.332 c .666 -1.998 2.443 -3.552 5.108 -4.888 l -3.997 -10.658 c -1.333 .443 -2.444 1.108 -3.553 1.555 c -2.888 1.777 -5.109 4.44 -6.443 7.549 c -1.999 4.444 -1.776 9.772 .445 16.66 c 1.333 4 3.111 7.33 5.331 9.773 c .223 .223 .444 .668 .668 .889 c 1.999 1.997 4.219 3.332 6.885 3.997 c 2.661 .669 5.549 .669 8.215 -.223 z" fill="#fff"/><path d="m 77.57 288.263 c 1.554 2.886 3.554 5.107 5.775 7.107 c .888 .888 1.999 1.554 2.888 2.221 c 2.887 1.776 6.218 3.11 10.217 4.22 c 7.774 2.222 14.437 2.222 20.212 -.222 c .666 -.444 1.333 -.665 1.999 -1.11 c 6.22 -3.332 10.439 -8.884 12.884 -16.881 c 2.221 -7.996 1.555 -14.881 -1.999 -21.101 c -2.666 -4.665 -6.887 -8.219 -12.884 -10.885 c -1.554 -.666 -3.553 -1.332 -5.552 -2 c -8.663 -2.443 -16.216 -1.999 -22.434 1.333 c -.889 .444 -1.556 .889 -2.443 1.333 c -4.887 3.553 -8.442 8.662 -10.441 15.548 c -1.11 4.443 -1.554 8.44 -1.11 12.217 c .222 2.666 1.333 5.554 2.888 8.22 z m 7.551 -17.992 c .444 -1.111 .667 -2 1.112 -2.888 c 1.554 -2.888 3.775 -5.109 6.441 -6.442 c 3.997 -1.999 8.884 -1.999 15.104 -.222 c 3.554 1.11 6.664 2.444 8.884 4.221 c 1.778 1.11 2.888 2.443 3.998 3.999 c 2.222 3.776 2.666 7.774 1.555 11.994 c -.887 3.331 -2.886 5.997 -5.553 7.996 c -.666 .444 -1.333 .889 -2.22 1.333 c -3.999 1.999 -9.107 1.999 -15.104 .221 c -6.22 -1.777 -10.44 -4.442 -12.661 -7.995 c -.223 -.223 -.223 -.444 -.444 -.668 c -1.999 -3.331 -2.222 -7.33 -1.112 -11.549 z" fill="#fff"/></g><g><path d="m 389.869 527.26 l -8.441 2.225 c 0 3.775 -1.555 7.104 -4.001 10.435 c -2.218 3.111 -4.441 5.332 -6.661 6.887 c -.224 .222 -.443 .447 -.667 .447 l .667 2.661 l 1.774 6.889 c 4.666 -3.111 8.442 -6.889 11.107 -11.552 l 10.439 39.092 l 10.219 -2.663 z" fill="#fff"/><path d="m 368.1 565.244 c -2 -2.223 -4.664 -3.555 -7.996 -4.22 c 5.332 -3.112 7.773 -7.107 7.549 -11.992 c -.22 -3.556 -1.774 -6.666 -4.44 -9.112 c -3.332 -3.331 -7.771 -4.664 -12.882 -4.44 c -3.109 .222 -5.775 .889 -8.219 2.224 c -2.441 1.331 -4.44 2.885 -5.553 5.107 c -1.332 1.996 -2.221 4.665 -2.665 8.217 l 9.773 1.111 c .223 -2.444 .889 -4.443 2.225 -5.774 c 1.107 -1.336 2.661 -2.001 4.439 -2.001 c 2 -.22 3.555 .224 4.663 1.334 c 1.112 1.109 1.778 2.663 2.001 4.441 c 0 2.224 -.668 3.999 -2.224 5.555 c -1.331 1.332 -3.552 2 -6.44 2.218 l -.667 8.665 c 1.777 -.666 3.555 -.889 4.887 -1.108 c 2.001 0 3.775 .663 5.329 2.217 c 1.558 1.555 2.446 3.555 2.446 6.221 c .223 2.889 -.446 5.11 -1.778 6.884 c -1.554 1.777 -3.332 2.669 -5.555 2.889 c -1.996 0 -3.773 -.443 -5.329 -1.777 c -1.555 -1.332 -2.443 -3.33 -2.889 -5.998 l -10.438 1.778 c .889 4.663 2.888 8.44 6.442 11.106 c 3.552 2.667 7.772 3.998 12.884 3.775 c 5.332 -.446 9.549 -2.22 13.103 -5.994 c 1.778 -2.001 3.109 -4.225 3.999 -6.666 c .443 -2 .665 -4 .665 -5.998 c 0 -1.554 -.223 -2.889 -.665 -3.996 c -.665 -1.778 -1.554 -3.334 -2.665 -4.666 z" fill="#fff"/><path d="m 312.125 535.256 c -.444 0 -.666 0 -1.111 0 c -4.663 0 -8.663 1.554 -11.993 4.664 c -3.555 3.111 -5.552 7.775 -5.775 13.329 c -.223 5.554 1.112 9.995 3.998 13.55 c 3.109 3.555 6.886 5.33 11.107 5.552 c 1.11 .22 1.999 0 2.664 0 c 2.888 -.443 5.553 -1.778 7.775 -3.998 c -.889 6.218 -2 10.439 -3.776 12.436 c -1.111 1.335 -2.443 2.225 -3.999 2.669 c -.444 0 -1.11 0 -1.777 0 c -1.555 0 -3.109 -.668 -3.998 -1.777 c -1.11 -.892 -1.555 -2.667 -1.776 -4.667 l -10.44 .667 c .446 4.663 1.999 8.217 4.666 10.665 c 2.443 2.439 5.996 3.771 10.438 3.994 c .889 0 1.999 0 2.887 0 c 4.887 -.443 8.885 -2.441 12.217 -5.996 c 3.998 -4.443 6.22 -11.551 6.885 -21.768 c .444 -9.998 -.888 -17.323 -4.442 -21.987 c -3.332 -4.667 -7.774 -7.109 -13.55 -7.333 z m 3.776 27.323 c -1.333 1.331 -2.888 1.998 -4.887 1.998 c 0 0 -.221 0 -.444 0 c -1.998 0 -3.775 -.887 -5.107 -2.665 c -1.333 -1.777 -1.999 -4.443 -1.778 -7.995 c .224 -3.555 1.11 -6.221 2.443 -7.775 c 1.333 -1.335 3.109 -1.998 4.886 -1.998 c .224 0 .224 0 .224 0 c 1.999 .22 3.775 1.109 5.329 3.111 c 1.333 1.996 2.001 4.662 2.001 8.217 c -.223 3.109 -1.112 5.552 -2.667 7.107 z" fill="#fff"/><path d="m 272.367 537.704 c -3.775 1.553 -7.33 2.44 -10.217 2.662 l -2.443 9.329 c 5.551 -.222 10.663 -1.556 15.548 -4.218 l -10.662 39.092 l 10.438 2.663 l 14.66 -54.195 l -8.439 -2.22 c -2.221 2.887 -5.108 5.328 -8.885 6.887 z" fill="#fff"/></g><path d="m 460.944 531.483 c 8.442 0 15.329 -6.884 15.329 -15.327 c 0 -8.441 -6.887 -15.327 -15.329 -15.327 c -8.218 0 -15.102 6.886 -15.102 15.327 c 0 8.443 6.884 15.327 15.102 15.327 z" fill="#fff"/><path d="m 195.736 537.034 c 8.219 0 15.105 -6.886 15.105 -15.326 c 0 -8.442 -6.886 -15.326 -15.105 -15.326 c -8.439 0 -15.325 6.884 -15.325 15.326 c 0 8.44 6.885 15.326 15.325 15.326 z" fill="#fff"/><path d="m 209.525 191.946 l -25.574 2.94 l 39.355 342.195 l 28.639 -3.292 l -39.355 -342.194 z" fill="#fff"/><path d="m 491.589 463.773 c -2.423 -28.943 -8.771 -54.644 -14.907 -79.502 c -12.395 -50.203 -25.211 -102.113 -5.363 -182.547 l .796 -3.209 l -3.275 .481 c -9.938 1.461 -20.164 3.804 -30.054 6.068 c -28.214 6.46 -57.383 13.14 -87.465 2.041 l -.256 -.095 l -.272 -.03 c -13.365 -1.447 -25.603 -5.189 -37.434 -8.807 c -27.738 -8.481 -56.419 -17.251 -100.355 3.454 l -1.784 .841 l .623 1.871 c 27.926 83.775 36.489 167.511 25.451 248.884 l -.557 4.11 l 3.729 -1.814 c 65.575 -31.909 115.862 -18.566 169.101 -4.436 c 25.497 6.767 51.861 13.762 79.705 15.093 l 2.529 .121 z m -80.884 -16.986 c -50.754 -13.466 -103.234 -27.289 -168.614 3.118 c 2.798 -21.875 4.313 -43.898 4.313 -66.058 c 0 -1.556 -.045 -3.11 -.058 -4.663 c -.145 -15.817 -.98 -31.692 -2.544 -47.61 c 32.519 -12.492 66.772 -17.01 103.198 -10.647 l -.649 -110.059 c 1.229 .175 2.457 .351 3.707 .49 c 31.221 11.418 60.958 4.622 89.72 -1.964 c 9.14 -2.092 17.82 -3.999 26.511 -5.423 c -6.941 29.176 -9.725 54.702 -9.725 77.675 c 0 16.89 1.458 32.444 3.724 47.193 c 2.965 19.289 7.318 37.188 11.675 54.839 c .135 .55 .271 1.104 .406 1.657 c 5.905 23.905 11.927 48.654 14.482 76.154 c -26.406 -1.615 -51.693 -8.214 -76.146 -14.702 z" fill="#0062aa"/><path d="M 206.62 195.19701 H 229.277 V 533.47802 H 206.62 Z" fill="#0062aa" transform="matrix(.9935 -.1143 .1143 .9935 -40.1991 27.2867)"/><path d="m 471.962 383.678 c -78.333 3.822 -144.892 -24.822 -225.617 -4.494 c .013 1.553 .058 3.107 .058 4.663 c 0 22.16 -1.514 44.183 -4.313 66.058 c 65.38 -30.407 117.86 -16.584 168.614 -3.118 c 24.454 6.489 49.74 13.087 76.146 14.702 c -2.556 -27.499 -8.577 -52.249 -14.482 -76.154 c -.136 -.553 -.271 -1.107 -.406 -1.657 z" fill="none"/><path d="m 460.287 328.838 c -2.266 -14.748 -3.724 -30.303 -3.724 -47.193 c 0 -22.973 2.784 -48.499 9.725 -77.675 c -8.691 1.423 -17.371 3.331 -26.511 5.423 c -28.762 6.585 -58.5 13.382 -89.72 1.964 c -1.25 -.139 -2.478 -.314 -3.707 -.49 l .641 109.931 c 36.625 3.488 74.912 9.983 113.296 8.04 z" fill="none"/><path d="m 471.962 383.678 c -4.356 -17.651 -8.71 -35.551 -11.675 -54.839 c -38.384 1.942 -113.289 -7.912 -113.289 -7.912 c -36.425 -6.363 -70.679 -1.845 -103.198 10.647 c 1.564 15.918 2.399 31.793 2.544 47.61 c 80.726 -20.328 147.285 8.316 225.618 4.494 z" fill="#fff"/><path d="m 284.583 309.585 c -23.545 0 -42.646 -22.878 -42.646 -50.865 c 0 -28.21 19.1 -51.087 42.646 -51.087 c 23.325 0 42.646 22.878 42.646 51.087 c 0 27.987 -19.321 50.865 -42.646 50.865 z" fill="#fff"/><path d="m 261.248 231.177 c 12.349 -5.821 18.302 .133 27.319 1.11 c 8.308 3.065 16.17 -.488 23.721 -1.6 c -5.951 24.123 2.578 35.051 4.044 52.555 c -16.703 -.801 -30.164 -11.729 -49.977 -2.089 c 2.266 -16.704 .356 -33.584 -5.107 -49.976 z" fill="#ee3124"/><path d="m 287.545 231.932 v 11.774 h 22.924 l 1.954 -13.062 c -9.641 2.266 -17.37 3.731 -24.878 1.288 z" fill="#fff"/><path d="m 260.362 228.839 l -5.116 .588 l 7.872 68.438 l 5.727 -.657 l -7.871 -68.439 z" fill="#fff"/><path d="m 316.774 283.204 c -.483 -5.788 -1.753 -10.928 -2.98 -15.901 c -2.48 -10.04 -5.043 -20.422 -1.073 -36.51 l .159 -.642 l -.656 .097 c -1.987 .291 -4.033 .76 -6.01 1.213 c -5.642 1.291 -11.478 2.628 -17.494 .408 l -.051 -.019 l -.055 -.006 c -2.672 -.29 -5.12 -1.037 -7.487 -1.761 c -5.547 -1.696 -11.283 -3.45 -20.071 .691 l -.355 .168 l .124 .374 c 5.584 16.754 7.297 33.502 5.09 49.777 l -.111 .822 l .746 -.363 c 13.115 -6.382 23.173 -3.714 33.82 -.887 c 5.101 1.353 10.374 2.751 15.941 3.018 l .506 .023 z m -16.176 -3.397 c -10.152 -2.692 -20.647 -5.458 -33.724 .624 c .56 -4.375 .863 -8.78 .863 -13.211 c 0 -.311 -.009 -.623 -.012 -.933 c -.028 -3.163 -.195 -6.339 -.509 -9.523 c 6.504 -2.498 13.354 -3.402 20.639 -2.128 l -.129 -22.012 c .246 .034 .493 .07 .742 .098 c 6.244 2.284 12.191 .924 17.944 -.393 c 1.828 -.419 3.565 -.8 5.303 -1.084 c -1.389 5.835 -1.946 10.94 -1.946 15.534 c 0 3.379 .292 6.491 .745 9.439 c .593 3.858 1.464 7.438 2.335 10.968 c .026 .111 .054 .221 .082 .332 c 1.18 4.78 2.385 9.729 2.895 15.231 c -5.28 -.324 -10.337 -1.644 -15.228 -2.942 z" fill="#0062aa"/><path d="M 259.78101 229.489 H 264.31201 V 297.144998 H 259.78101 Z" fill="#0062aa" transform="matrix(.9935 -.1142 .1142 .9935 -28.3644 31.6584)"/><path d="m 312.85 267.186 c -15.668 .765 -28.978 -4.965 -45.124 -.899 c .003 .31 .012 .622 .012 .933 c 0 4.432 -.303 8.836 -.863 13.211 c 13.077 -6.082 23.572 -3.316 33.724 -.624 c 4.891 1.298 9.948 2.618 15.228 2.941 c -.51 -5.502 -1.715 -10.451 -2.895 -15.231 c -.029 -.11 -.056 -.221 -.082 -.331 z" fill="none"/><path d="m 310.514 256.217 c -.453 -2.948 -.745 -6.06 -.745 -9.439 c 0 -4.594 .557 -9.698 1.946 -15.534 c -1.738 .284 -3.475 .665 -5.303 1.084 c -5.753 1.317 -11.7 2.677 -17.944 .393 c -.249 -.028 -.496 -.064 -.742 -.098 l .128 21.985 c 7.326 .699 14.983 1.997 22.66 1.609 z" fill="none"/><path d="m 312.85 267.186 c -.872 -3.531 -1.743 -7.11 -2.335 -10.968 c -7.677 .388 -22.659 -1.582 -22.659 -1.582 c -7.285 -1.273 -14.135 -.37 -20.639 2.128 c .314 3.184 .481 6.36 .509 9.523 c 16.145 -4.067 29.456 1.663 45.124 .899 z" fill="#fff"/><path d="m 275.374 252.367 c -4.711 0 -8.531 -4.576 -8.531 -10.173 c 0 -5.643 3.82 -10.217 8.531 -10.217 c 4.663 0 8.528 4.575 8.528 10.217 c .001 5.597 -3.864 10.173 -8.528 10.173 z" fill="#fff"/></g></svg>