<svg height="1000" viewBox="0 0 750.00002 750.00002" width="1000" xmlns="http://www.w3.org/2000/svg"><g transform="matrix(1.2679255 0 0 1.2679255 18.663415 18.782283)"><path d="m 2810.3516 5574.7656 c 1526.6406 0 2764.2578 -1237.5781 2764.2578 -2764.2187 c 0 -1526.6406 -1237.6172 -2764.218775 -2764.2578 -2764.218775 c -1526.5625 0 -2764.179725 1237.578175 -2764.179725 2764.218775 c 0 1526.6406 1237.617225 2764.2187 2764.179725 2764.2187 z m 0 0" fill="#ff6300" fill-rule="evenodd" stroke="#000" stroke-width="90.978" transform="matrix(.1 0 0 -.1 0 562)"/><path d="m 2810.3516 5018.5937 c 1219.4531 0 2208.0468 -988.5937 2208.0468 -2208.0468 c 0 -1219.4531 -988.5937 -2208.00784 -2208.0468 -2208.00784 c -1219.4532 0 -2208.00785 988.55474 -2208.00785 2208.00784 c 0 1219.4531 988.55465 2208.0468 2208.00785 2208.0468 z m 0 0" fill="#fff" fill-rule="evenodd" stroke="#000" stroke-width="85.147" transform="matrix(.1 0 0 -.1 0 562)"/><path d="m 4034.7656 2767.8516 c 7.1875 -256.7188 5.586 -513.5938 .039 -770.3125 l -.078 -3.3203 l -.2735 -3.3204 c -8.8672 -110.664 -53.164 -232.4218 -107.7343 -328.2812 c -75.9375 -133.3984 -185.1563 -244.1797 -325.7422 -308.5938 c -258.8672 -118.6718 -514.9219 -261.9921 -757.3438 -411.40621 l -59.5312 -36.71875 l -59.4532 36.71875 c -242.4609 149.41411 -498.4765 292.73441 -757.3828 411.40621 c -140.5468 64.4141 -249.8437 175.1954 -325.7422 308.5938 c -54.5703 95.8594 -98.8671 217.6172 -107.7343 328.2812 l -.2735 3.3204 l -.078 3.3203 c -5.5469 256.7187 -7.1484 513.5937 0 770.3125 l .078 1.4062 c 11.1328 276.9141 -82.5781 521.875 -293.9062 703.5547 l -76.1328 65.4297 l 437.7343 656.6406 l 83.0079 -28.9453 c 332.6562 -116.0937 742.3828 -236.3672 1097.539 -228.9844 l 2.3438 .039 l 2.3828 -.039 c 355.1562 -7.3828 764.8828 112.8907 1097.539 228.9844 l 83.0079 28.9453 l 437.7343 -656.6406 l -76.0937 -65.4297 c -211.3672 -181.6797 -305.0781 -426.6406 -293.9453 -703.5547 z m 0 0" fill-rule="evenodd" stroke="#000" stroke-width="2.16" transform="matrix(.1 0 0 -.1 0 562)"/><path d="m 1643.5156 2191.1719 c -2.4218 191.1719 -1.9922 382.3437 3.3203 573.5156 c 13.0079 323.5156 -101.3671 594.7656 -333.3203 794.1406 l 333.3203 500 c 442.3829 -154.3359 825.5469 -241.7578 1137.2657 -235.2734 c 311.7968 -6.4844 694.9609 80.9375 1137.3047 235.2734 z m 0 0" fill="#fff" fill-rule="evenodd" stroke="#fff" stroke-width="2.16" transform="matrix(.1 0 0 -.1 0 562)"/><path d="m 1926.5625 1507.8906 c -189.3359 134.1016 -269.7656 367.6953 -279.7266 492.0703 c -1.3671 63.75 -2.539 127.461 -3.3203 191.211 l 2277.8907 1867.6562 l 333.3203 -500 c -115.9375 -99.6875 -202.5782 -217.3437 -258.5157 -350.5078 z m 0 0" fill="#ff6300" fill-rule="evenodd" stroke="#ff6300" stroke-width="2.16" transform="matrix(.1 0 0 -.1 0 562)"/><path d="m 3996.2109 3208.3203 c -55.9765 -133.164 -81.289 -281.875 -74.8046 -443.6328 c 7.1093 -254.8828 5.5078 -509.8047 0 -764.7266 c -11.3672 -142.1484 -114.7657 -426.9531 -367.6954 -542.8515 c -252.1093 -115.5469 -533.5546 -272.4219 -769.6093 -417.9297 c -236.0157 145.5078 -517.461 302.3828 -769.5703 417.9297 c -31.5625 14.4922 -60.8985 31.6406 -87.9688 50.7812 z m 0 0" fill="#fff" fill-rule="evenodd" stroke="#fff" stroke-width="2.16" transform="matrix(.1 0 0 -.1 0 562)"/><path d="m 2382.5391 2284.0625 l 87.1875 34.0234 c 20.625 -47.3828 26.1718 -90.4687 16.5625 -129.3359 c -9.5703 -38.7109 -33.5157 -73.5547 -71.6407 -104.3359 c -47.1875 -38.0078 -98.9843 -53.1641 -155.3125 -45.4688 c -56.3671 7.7735 -107.1484 39.6094 -152.1875 95.4297 c -47.6953 59.1406 -69.414 117.4219 -65.3125 174.8047 c 4.1797 57.2656 31.1329 106.0156 80.8985 146.1719 c 43.4375 35.039 89.1015 50.7031 136.9922 46.8359 c 28.3984 -2.0703 58.125 -14.1406 89.1797 -36.0937 l -57.3829 -74.2579 c -18.9843 15.1172 -39.5312 22.6172 -61.5625 22.461 c -21.914 -.039 -42.3828 -7.8516 -61.4062 -23.1641 c -26.3281 -21.2109 -40.1563 -47.9297 -41.25 -80.0781 c -1.1719 -32.0703 15.3125 -69.2969 49.4922 -111.6406 c 36.2109 -44.9219 70.039 -70.4688 101.6015 -76.4453 c 31.5625 -6.0938 60.2344 1.3671 86.0547 22.1484 c 19.1016 15.4297 30.625 34.6875 34.5313 57.8906 c 3.9844 23.1641 -1.5625 50.1953 -16.4453 81.0547 z m 235.9375 -25.2734 l -54.9219 68.0859 l 68.0859 54.8828 l 54.9219 -68.0859 z m 578.2422 466.289 l -78.086 -62.9687 l -96.0937 55.7422 l -142.0703 -114.5703 l 35.8203 -104.336 l -76.0938 -61.3672 l -148.0859 466.9141 l 75.8594 61.1719 z m -245.4297 34.0235 l -155.3125 92.3828 l 58.3203 -170.586 z m 283.0078 -3.711 l -54.9219 68.0469 l 68.0859 54.9219 l 54.9219 -68.086 z m 278.2422 224.336 l -284.1797 352.4218 l 71.6797 57.8125 l 235.8593 -292.5 l 178.3594 143.8282 l 48.3203 -59.9219 z m 300.7422 242.539 l -54.8829 68.086 l 68.0469 54.9218 l 54.9219 -68.0859 z m 0 0" fill-rule="evenodd" stroke="#000" stroke-width="5.669" transform="matrix(.1 0 0 -.1 0 562)"/><path d="m 84.242188 132.07031 l 4.023437 -2.96875 c 1.726563 2.15625 2.613281 4.30078 2.65625 6.4375 c .04297 2.12891 -.703125 4.25781 -2.242187 6.375 c -1.902344 2.61719 -4.363282 4.1211 -7.371094 4.50781 c -3.015625 .38672 -6.078125 -.54687 -9.175781 -2.80078 c -3.28125 -2.38281 -5.214844 -5.08593 -5.796875 -8.10156 c -.582032 -3.01172 .125 -5.89844 2.128906 -8.66406 c 1.753906 -2.41016 3.886719 -3.85156 6.414062 -4.32031 c 1.492188 -.28907 3.191407 -.0781 5.097657 .61718 l -1.925782 4.62891 c -1.191406 -.51562 -2.347656 -.61328 -3.484375 -.30078 c -1.128906 .30859 -2.078125 .99609 -2.84375 2.05078 c -1.0625 1.46094 -1.402343 3.02734 -1.007812 4.70312 c .382812 1.66797 1.75 3.35938 4.101562 5.06641 c 2.492188 1.8125 4.59375 2.65625 6.304688 2.52344 c 1.714844 -.125 3.089844 -.90625 4.125 -2.33985 c .773437 -1.05859 1.097656 -2.21484 .976562 -3.46484 c -.117187 -1.25 -.78125 -2.56641 -1.980468 -3.94922 z m 12.75 -1.80078 l -17.96875 -16.17578 l 3.292968 -3.65625 l 14.914063 13.42578 l 8.191411 -9.09375 l 3.05078 2.75 z m -2.933594 -33.218749 l 3.597656 -3.355468 l 9.00391 9.652347 c 1.42968 1.53515 2.40234 2.48828 2.91406 2.85937 c .83203 .58594 1.75 .82813 2.73437 .73047 c .9961 -.0977 1.9961 -.61719 3 -1.55469 c 1.01954 -.95312 1.59766 -1.8789 1.72657 -2.78515 c .13672 -.89844 -.0312 -1.70313 -.5 -2.40625 c -.46094 -.710941 -1.35157 -1.765629 -2.66797 -3.175785 l -9.19531 -9.863281 l 3.59765 -3.355469 l 8.73438 9.363281 c 2 2.144532 3.30859 3.742188 3.9375 4.808594 c .63281 1.066406 .96875 2.14063 1.01172 3.24219 c .043 1.09375 -.19922 2.23047 -.73829 3.40625 c -.53906 1.17578 -1.51953 2.42578 -2.92968 3.73828 c -1.69922 1.58984 -3.17578 2.59766 -4.42188 3.02344 c -1.25 .42578 -2.41797 .5625 -3.51562 .41015 c -1.09375 -.14843 -2.04297 -.49609 -2.84375 -1.03515 c -1.19532 -.79688 -2.71485 -2.19532 -4.57813 -4.19532 z m 19.914066 -17.933593 l 7.67968 -6 c 1.51954 -1.1875 2.70313 -2.011719 3.55079 -2.464844 c .84765 -.457031 1.71875 -.714844 2.625 -.773438 c .90234 -.05859 1.80859 .08984 2.72656 .453125 c .91406 .359375 1.69922 .957032 2.34375 1.785157 c .69922 .898437 1.10547 1.914062 1.21093 3.042968 c .10157 1.132813 -.11718 2.210938 -.64843 3.234375 c 1.42968 -.574218 2.78515 -.699218 4.05078 -.367187 c 1.27344 .328125 2.34375 1.050781 3.21094 2.160156 c .67968 .871094 1.14062 1.878906 1.38281 3.023438 c .23437 1.140625 .19922 2.238281 -.1211 3.277343 c -.3125 1.039063 -.94921 2.023438 -1.89062 2.945313 c -.58984 .570312 -2.11719 1.835937 -4.57422 3.785156 l -6.53906 5.109375 z m 6.3789 .164062 l 3.47266 4.441406 l 2.53906 -1.984375 c 1.51563 -1.179687 2.43359 -1.9375 2.76563 -2.269531 c .60156 -.589844 .94531 -1.226562 1.03125 -1.90625 c .082 -.675781 -.1211 -1.324219 -.60938 -1.945312 c -.46094 -.59375 -1 -.953125 -1.61719 -1.070313 c -.62109 -.109375 -1.28515 .04687 -1.98828 .472656 c -.41797 .257813 -1.53906 1.097657 -3.36718 2.523438 z m 5.96875 7.640625 l 4.01563 5.132813 l 3.58593 -2.800782 c 1.39844 -1.09375 2.25391 -1.820312 2.56641 -2.195312 c .49609 -.554688 .76563 -1.179688 .8125 -1.867188 c .043 -.6875 -.19922 -1.378906 -.73047 -2.058593 c -.44922 -.574219 -.97656 -.953125 -1.5664 -1.136719 c -.59766 -.183594 -1.23047 -.164063 -1.89844 .06641 c -.67188 .226563 -1.89063 1.035156 -3.65235 2.414063 z m 73.9961 -30.382812 l -4.89454 2.179687 l -4.19531 -4.195312 l -8.90234 3.964843 l .41797 5.875 l -4.77344 2.125 l -1.23828 -26.128906 l 4.7539 -2.117187 z m -12.20313 -5.121094 l -6.74609 -6.898438 l .67187 9.601563 z m 17.83594 3.890625 l -5.92188 -19.367188 l -6.91406 2.113282 l -1.20703 -3.945313 l 18.52344 -5.664062 l 1.20703 3.945312 l -6.89844 2.109375 l 5.92188 19.367188 z m 14.72265 -4.6875 l -5.03125 -23.648438 l 4.8125 -1.023437 l 4.17579 19.628906 l 11.96484 -2.542969 l .85547 4.019532 z m 20.36329 -4.183594 l -2.97266 -24.195312 l 17.94141 -2.203125 l .5 4.09375 l -13.05469 1.605468 l .66015 5.363282 l 12.14454 -1.492188 l .5 4.070313 l -12.14454 1.492187 l .8125 6.585938 l 13.51172 -1.660157 l .5 4.078125 z m 27.875 -3.105469 v -20.25 h -7.23047 v -4.125 h 19.36718 v 4.125 h -7.20703 v 20.25 z m 15.16406 -24.375 h 4.91797 v 24.375 h -4.91797 z m 25.78906 16.695313 l 4.65234 1.839844 c -.91796 2.605468 -2.26171 4.488281 -4.05078 5.664062 c -1.78515 1.164063 -3.98828 1.660156 -6.59765 1.476563 c -3.22657 -.226563 -5.80469 -1.515625 -7.73047 -3.863282 c -1.92188 -2.351562 -2.75391 -5.441406 -2.48828 -9.265625 c .28515 -4.046875 1.55078 -7.117187 3.79687 -9.210937 c 2.2461 -2.089844 5.07031 -3.019531 8.48047 -2.78125 c 2.97266 .207031 5.32813 1.253906 7.0625 3.144531 c 1.03516 1.113281 1.75781 2.664063 2.17578 4.652344 l -4.94531 .820312 c -.19141 -1.28125 -.72266 -2.320312 -1.58984 -3.113281 c -.85938 -.796875 -1.94532 -1.234375 -3.2461 -1.328125 c -1.79687 -.125 -3.3125 .417969 -4.52344 1.636719 c -1.21093 1.210937 -1.91796 3.265625 -2.12109 6.167969 c -.21484 3.074218 .18359 5.300781 1.19922 6.683593 c 1.01172 1.382813 2.40625 2.136719 4.17187 2.257813 c 1.3125 .09375 2.45704 -.242188 3.45313 -1.007813 c 1 -.761718 1.76562 -2.023437 2.30078 -3.773437 z m 9.28125 -1.59375 c .39063 -2.457031 1.07813 -4.453125 2.07813 -6.003906 c .74218 -1.132813 1.66406 -2.121094 2.76562 -2.945313 c 1.10156 -.820312 2.25 -1.378906 3.45313 -1.671875 c 1.60546 -.402344 3.3789 -.441406 5.34375 -.128906 c 3.55078 .558594 6.20703 2.109375 7.98828 4.648437 c 1.78515 2.535157 2.36328 5.765625 1.74218 9.683594 c -.61328 3.890625 -2.15625 6.757813 -4.61718 8.621094 c -2.46094 1.859375 -5.46094 2.511719 -8.99219 1.949219 c -3.58203 -.566407 -6.25391 -2.109375 -8.02344 -4.625 c -1.76562 -2.523438 -2.34375 -5.699219 -1.73828 -9.527344 z m 5.03125 .628906 c -.42969 2.726563 -.125 4.894531 .91406 6.5 c 1.03125 1.605469 2.51953 2.5625 4.45703 2.867188 c 1.9375 .308593 3.63672 -.136719 5.10547 -1.339844 c 1.45703 -1.199219 2.41016 -3.191406 2.85547 -5.984375 c .4336 -2.757813 .15625 -4.910156 -.83203 -6.464844 c -.99609 -1.546875 -2.5 -2.480469 -4.5 -2.796875 c -2.00391 -.316406 -3.73047 .117188 -5.17187 1.292969 c -1.44141 1.179687 -2.38672 3.152344 -2.82813 5.925781 z m 46.83594 26.050781 l 9.83203 -22.085937 l 4.49609 2 l -8.16015 18.335937 l 11.17578 4.976563 l -1.67188 3.753906 z m 30.66797 -12.679687 l 4.30468 2.382812 l -6.39453 11.546875 c -1.01953 1.832032 -1.625 3.054688 -1.82031 3.652344 c -.30078 .976563 -.24609 1.921875 .15234 2.828125 c .39844 .917969 1.19922 1.707031 2.40235 2.371094 c 1.22265 .679687 2.28125 .941406 3.17969 .785156 c .89453 -.152344 1.60937 -.5625 2.13671 -1.21875 c .53125 -.65625 1.26172 -1.832031 2.19922 -3.519531 l 6.53907 -11.792969 l 4.30078 2.382813 l -6.21094 11.199218 c -1.41797 2.5625 -2.53516 4.304688 -3.35156 5.234375 c -.82032 .929688 -1.73828 1.578125 -2.76953 1.960938 c -1.02735 .378906 -2.1875 .496094 -3.46875 .351562 c -1.28907 -.148437 -2.77735 -.695312 -4.46485 -1.632812 c -2.03515 -1.128906 -3.44922 -2.214844 -4.24219 -3.269531 c -.78906 -1.058594 -1.28125 -2.125 -1.47656 -3.214844 c -.1914 -1.085938 -.15625 -2.101563 .10547 -3.03125 c .39453 -1.378906 1.25391 -3.257813 2.57813 -5.644531 z m 23.6914 32.976562 l 2.35938 -3.363281 l 8.6914 6.082031 l -5.57421 7.957032 c -1.41797 .222656 -3.14454 .08984 -5.1875 -.410157 c -2.03125 -.507812 -3.875 -1.332031 -5.51563 -2.480468 c -2.08984 -1.460938 -3.60547 -3.175782 -4.54687 -5.136719 c -.9375 -1.964844 -1.23047 -4.03125 -.86719 -6.210938 c .36328 -2.179687 1.21094 -4.222656 2.55469 -6.140625 c 1.45312 -2.078125 3.1875 -3.621093 5.1875 -4.628906 c 2.0039 -1.003906 4.14843 -1.351562 6.43359 -1.035156 c 1.74219 .230469 3.57031 1.019531 5.47656 2.351562 c 2.47656 1.738282 4.05078 3.613282 4.71485 5.625 c .66406 2.019532 .55468 4.082032 -.32813 6.199219 l -4.52734 -2.054687 c .40234 -1.179688 .41406 -2.328125 .0351 -3.4375 c -.3789 -1.109375 -1.14453 -2.070313 -2.30859 -2.886719 c -1.75781 -1.234375 -3.54688 -1.65625 -5.375 -1.269531 c -1.82422 .394531 -3.5 1.6875 -5.03906 3.886718 c -1.65625 2.367188 -2.37891 4.511719 -2.15235 6.4375 c .21875 1.921875 1.1875 3.480469 2.89453 4.671875 c .84375 .59375 1.8086 1.019532 2.89063 1.285157 c 1.07422 .261718 2.08984 .367187 3.02734 .324218 l 1.77344 -2.53125 z m 23.72266 31.128904 l -4.04297 -3.51562 l 2.02734 -5.57813 l -7.35546 -6.390622 l -5.15235 2.859375 l -3.9375 -3.425782 l 23.15625 -12.167968 l 3.92969 3.417968 z m -.51563 -13.22656 l 3.39844 -9.03125 l -8.41797 4.667969 z m 2.17579 15.08984 l 18.39453 -15.992184 l 3.14062 3.613284 l -5.73828 18.21094 l 12.28906 -10.67969 l 3 3.45312 l -18.39843 15.99219 l -3.2461 -3.73437 l 5.5586 -17.84375 l -12 10.42968 z m 25.36718 10.60547 c 2.01172 -1.46484 3.91407 -2.39062 5.71875 -2.77734 c 1.32422 -.27734 2.67188 -.32422 4.03907 -.12891 c 1.35546 .19922 2.5625 .61719 3.625 1.26172 c 1.41796 .84766 2.69531 2.07813 3.86328 3.6836 c 2.11328 2.90624 2.90234 5.88281 2.36328 8.93749 c -.53125 3.05469 -2.40625 5.75 -5.61328 8.07813 c -3.1875 2.31641 -6.30469 3.25781 -9.36328 2.83203 c -3.05469 -.42578 -5.63672 -2.08594 -7.73829 -4.97656 c -2.1289 -2.9336 -2.92578 -5.91797 -2.40234 -8.94531 c .53516 -3.03516 2.37109 -5.6875 5.50781 -7.96485 z m 3.11328 4 c -2.23046 1.625 -3.54687 3.3711 -3.95312 5.23828 c -.40234 1.8711 -.0273 3.59766 1.12891 5.1836 c 1.15234 1.58593 2.66796 2.47656 4.55468 2.66015 c 1.88282 .1836 3.96485 -.55078 6.25 -2.21093 c 2.26172 -1.64063 3.58594 -3.35938 3.98438 -5.16016 c .39062 -1.79688 -.0117 -3.51953 -1.20313 -5.16016 c -1.19531 -1.64062 -2.71875 -2.55468 -4.57422 -2.74218 c -1.85156 -.1836 -3.91406 .54297 -6.1875 2.1914 z m 0 0" fill-rule="evenodd"/><path d="m 48.839844 323.10937 l 2.023437 9.53125 c .398438 1.88672 .621094 3.3125 .660157 4.27735 c .03906 .95703 -.113282 1.85547 -.457032 2.69531 c -.34375 .83594 -.875 1.58203 -1.601562 2.25 c -.726563 .66406 -1.605469 1.10547 -2.628906 1.32422 c -1.121094 .23828 -2.207032 .15625 -3.269532 -.24609 c -1.0625 -.40625 -1.9375 -1.07422 -2.621093 -2.00391 c -.109375 1.53906 -.597657 2.81641 -1.449219 3.80859 c -.851563 1 -1.96875 1.64453 -3.347656 1.9375 c -1.082032 .23047 -2.183594 .20313 -3.320313 -.0859 c -1.132812 -.28516 -2.101562 -.80079 -2.894531 -1.54297 c -.796875 -.73828 -1.402344 -1.73828 -1.820313 -2.98828 c -.253906 -.78125 -.722656 -2.70704 -1.394531 -5.77344 l -1.726562 -8.11719 z m -2.949219 5.66016 l -5.511719 1.17188 l .667969 3.15625 c .398438 1.875 .675781 3.03515 .832031 3.47656 c .265625 .80469 .6875 1.39453 1.257813 1.76562 c .578125 .3711 1.246094 .47266 2.015625 .3086 c .738281 -.16016 1.300781 -.48438 1.675781 -.98828 c .367188 -.50782 .515625 -1.17188 .441406 -1.99219 c -.04687 -.48828 -.304687 -1.86719 -.792968 -4.13281 z m -9.480469 2.01563 l -6.375 1.35546 l .949219 4.45313 c .367188 1.73828 .644531 2.82812 .847656 3.27344 c .277344 .6875 .722657 1.20312 1.316407 1.54687 c .605468 .33985 1.328125 .42578 2.171875 .2461 c .714843 -.15235 1.28125 -.45704 1.710937 -.91016 c .429688 -.45703 .683594 -1.03125 .773438 -1.73438 c .08594 -.70703 -.101563 -2.15625 -.570313 -4.34375 z m 17.183594 13.92578 l 1.523438 4.67968 l -12.554688 4.07813 c -1.992187 .64844 -3.269531 1.12891 -3.820312 1.43359 c -.886719 .50782 -1.488282 1.23828 -1.820313 2.17188 c -.332031 .94531 -.28125 2.0664 .144531 3.375 c .429688 1.32812 1.027344 2.24219 1.789063 2.74219 c .761719 .49609 1.5625 .68359 2.398437 .5625 c .835938 -.11719 2.164063 -.47657 4 -1.07422 l 12.828125 -4.16797 l 1.519532 4.67969 l -12.179688 3.95703 c -2.785156 .90625 -4.789062 1.42187 -6.019531 1.53906 c -1.234375 .12109 -2.351563 -.0273 -3.363281 -.45313 c -1.011719 -.42187 -1.9375 -1.1289 -2.777344 -2.10937 c -.839844 -.98828 -1.550781 -2.40234 -2.152344 -4.23828 c -.71875 -2.21094 -1.011719 -3.97266 -.867187 -5.28516 c .140625 -1.30859 .511718 -2.42578 1.109375 -3.35547 c .605468 -.92968 1.316406 -1.64453 2.144531 -2.14843 c 1.226562 -.73829 3.136719 -1.52344 5.734375 -2.36719 z m -15.363281 30.96875 l 22.273437 -9.91407 l 7.34375 16.50782 l -3.761718 1.67968 l -5.355469 -12.01562 l -4.933594 2.19922 l 4.976563 11.17969 l -3.75 1.66796 l -4.976563 -11.17968 l -6.0625 2.69922 l 5.539063 12.4375 l -3.753907 1.67187 z m 9.570312 20.75781 l 21.71875 -11.06641 l 2.175782 4.26563 l -9.972657 16.28125 l 14.503907 -7.39063 l 2.074218 4.07813 l -21.714843 11.0664 l -2.246094 -4.40625 l 9.703125 -15.96875 l -14.164063 7.21485 z m 20.539063 13.85156 c 2.03125 -1.42578 3.949219 -2.32031 5.757812 -2.67578 c 1.332032 -.25391 2.679688 -.27734 4.039063 -.0586 c 1.355469 .22265 2.558594 .66406 3.601562 1.32422 c 1.402344 .875 2.664063 2.125 3.804688 3.75 c 2.0625 2.94531 2.796875 5.93359 2.210937 8.98046 c -.589843 3.04297 -2.507812 5.70313 -5.757812 7.98047 c -3.226563 2.25782 -6.363281 3.14453 -9.410156 2.66797 c -3.046875 -.48047 -5.597657 -2.1875 -7.648438 -5.11328 c -2.082031 -2.97266 -2.828125 -5.96875 -2.246094 -8.98828 c .585938 -3.02344 2.46875 -5.64453 5.648438 -7.86719 z m 3.039062 4.0586 c -2.261718 1.58203 -3.609375 3.30859 -4.042968 5.16406 c -.4375 1.86328 -.08984 3.59765 1.035156 5.20312 c 1.125 1.60547 2.625 2.52344 4.507812 2.74219 c 1.878907 .21484 3.972657 -.48437 6.289063 -2.10547 c 2.292969 -1.60156 3.640625 -3.29687 4.070312 -5.08594 c .421875 -1.79296 .05078 -3.51953 -1.109375 -5.17968 c -1.164062 -1.66407 -2.671875 -2.60547 -4.527343 -2.82422 c -1.847657 -.21485 -3.921875 .47265 -6.222657 2.08594 z m 8.84375 19.17578 l 3.320313 3.48437 c -1.097656 1.21485 -1.664063 2.40235 -1.710938 3.56641 c -.05469 1.15234 .378907 2.32031 1.300782 3.5039 c .972656 1.2461 1.972656 1.98438 3 2.19922 c 1.023437 .22266 1.886718 .0586 2.59375 -.49609 c .457031 -.35547 .738281 -.78906 .84375 -1.30469 c .117187 -.51562 .03125 -1.19922 -.257813 -2.04687 c -.191406 -.57813 -.722656 -1.83203 -1.582031 -3.76172 c -1.113281 -2.48047 -1.617188 -4.4336 -1.515625 -5.85938 c .128906 -2.0039 .957031 -3.60156 2.476562 -4.78906 c .980469 -.76562 2.109375 -1.19922 3.398438 -1.3125 c 1.28125 -.10937 2.554687 .18359 3.816406 .875 c 1.261719 .70313 2.464844 1.78516 3.621094 3.26172 c 1.886716 2.41406 2.773436 4.63672 2.671876 6.68359 c -.10938 2.04297 -1.01953 3.78516 -2.734376 5.22657 l -3.203125 -3.7461 c .859375 -.9375 1.292969 -1.84765 1.296875 -2.73047 c .0078 -.88281 -.417969 -1.87109 -1.269531 -2.96093 c -.882813 -1.12891 -1.800782 -1.83594 -2.765625 -2.10547 c -.613282 -.1836 -1.171875 -.0781 -1.671875 .3125 c -.453125 .35547 -.691407 .85156 -.714844 1.48828 c -.03125 .80859 .46875 2.33203 1.5 4.5664 c 1.027344 2.23829 1.660156 3.99219 1.890625 5.26563 c .226562 1.27734 .128906 2.49219 -.296875 3.65234 c -.425781 1.15625 -1.246094 2.20703 -2.460938 3.15235 c -1.097656 .85937 -2.371093 1.36328 -3.804687 1.5 c -1.441406 .13672 -2.832031 -.16797 -4.167969 -.92188 c -1.339844 -.75 -2.667969 -1.96484 -3.96875 -3.63281 c -1.898437 -2.42969 -2.796875 -4.73047 -2.691406 -6.91016 c .105469 -2.17578 1.132812 -4.23437 3.085937 -6.16015 z m 30.261724 44.73828 l -3.85547 -3.72266 l 2.3164 -5.46094 l -7.00781 -6.76953 l -5.292969 2.58985 l -3.757812 -3.62891 l 23.761721 -10.9375 l 3.74609 3.61328 z m .17578 -13.23047 l 3.86718 -8.84375 l -8.64843 4.22266 z m 2.07812 14.48047 l 16.3125 -18.11328 l 3.66016 3.29297 l -16.31641 18.11328 z m 7.36328 6.3789 l 14.32813 -19.71875 l 8.38281 6.08985 c 2.10937 1.53125 3.50781 2.82031 4.20703 3.86719 c .69922 1.04687 1.00781 2.23437 .92188 3.55468 c -.0859 1.32813 -.55079 2.56641 -1.39454 3.73438 c -1.07812 1.47656 -2.40625 2.38672 -3.97265 2.71875 c -1.56641 .33203 -3.3125 -.008 -5.22266 -1.01563 c .4961 1.13282 .80469 2.19922 .92969 3.21094 c .12109 1.00781 .10156 2.61719 -.0625 4.84375 l -.37891 5.59766 l -4.76562 -3.45703 l .23828 -6.38672 c .0898 -2.27735 .0937 -3.75 .008 -4.42188 c -.0859 -.67187 -.28906 -1.23437 -.60156 -1.6914 c -.31641 -.45313 -.92969 -1.01172 -1.84766 -1.67969 l -.80468 -.58203 l -5.97657 8.23047 z m 12.25391 -8.48828 l 2.94531 2.14063 c 1.91406 1.38672 3.16406 2.17578 3.75391 2.36328 c .58984 .18359 1.16406 .17187 1.72265 -.0273 c .5586 -.19922 1.04688 -.58985 1.48047 -1.1836 c .48047 -.66406 .69141 -1.32812 .63281 -1.99219 c -.0508 -.66796 -.37109 -1.28906 -.9375 -1.86718 c -.28906 -.27735 -1.23828 -1.00391 -2.85937 -2.17578 l -3.10547 -2.25782 z m 7.70312 22.56641 l 12.1875 -21.10938 l 15.64844 9.03516 l -2.05859 3.57031 l -11.39063 -6.57422 l -2.70312 4.67969 l 10.59765 6.11719 l -2.05078 3.55469 l -10.59765 -6.11719 l -3.3125 5.74609 l 11.78515 6.8086 l -2.05469 3.55859 z m 22.3086 3.57422 l 4.45312 1.83203 c -.50781 1.55859 -.54687 2.875 -.11719 3.95703 c .42579 1.07422 1.29297 1.96484 2.61719 2.67188 c 1.39844 .74218 2.60938 1.00781 3.64063 .78906 c 1.01953 -.21485 1.74218 -.71875 2.16797 -1.50781 c .26953 -.51172 .34765 -1.02344 .23437 -1.53907 c -.10156 -.51562 -.45703 -1.10547 -1.06641 -1.76172 c -.41015 -.44921 -1.40625 -1.3789 -2.97656 -2.79296 c -2.02344 -1.81641 -3.27344 -3.39454 -3.76953 -4.73438 c -.69141 -1.88672 -.58594 -3.67969 .32031 -5.38672 c .58203 -1.09765 1.4375 -1.95312 2.56641 -2.58203 c 1.12891 -.62109 2.41016 -.87109 3.84375 -.75 c 1.4375 .12891 2.98047 .625 4.63281 1.50391 c 2.70703 1.4414 4.42578 3.10937 5.16016 5.01953 c .73047 1.91406 .60937 3.87109 -.375 5.89062 l -4.44531 -2.12109 c .40625 -1.20703 .42578 -2.21484 .0703 -3.02344 c -.35156 -.80859 -1.14063 -1.53906 -2.35938 -2.1875 c -1.26562 -.67187 -2.39453 -.94531 -3.3789 -.80078 c -.64063 .0859 -1.10938 .41016 -1.40625 .96484 c -.26953 .51172 -.28907 1.0625 -.0469 1.65235 c .30078 .75 1.37891 1.9414 3.22656 3.5625 c 1.85547 1.625 3.13672 2.97265 3.86719 4.04297 c .72656 1.07422 1.13281 2.22265 1.21875 3.45312 c .0781 1.23047 -.24609 2.52735 -.96875 3.88281 c -.65234 1.23438 -1.60937 2.21094 -2.86719 2.91797 c -1.25781 .71094 -2.64843 1 -4.18359 .85547 c -1.53125 -.14062 -3.23437 -.71094 -5.10156 -1.70312 c -2.72266 -1.44922 -4.48047 -3.1875 -5.26953 -5.21875 c -.78907 -2.03516 -.6836 -4.33203 .3125 -6.88672 z m 0 0" fill-rule="evenodd"/><path d="m 427.53125 494.25 l -4.49219 2.91797 l -4.80469 -3.48828 l -8.17187 5.30859 l 1.33203 5.73828 l -4.37891 2.84375 l -5.3125 -25.61328 l 4.36329 -2.83594 z m -12.85156 -3.15234 l -7.7461 -5.75782 l 2.16407 9.37891 z m 15.11718 1.96484 l -15.33593 -18.94531 l 8.05078 -6.51953 c 2.02344 -1.64063 3.63281 -2.65625 4.82812 -3.0625 c 1.19141 -.40235 2.41407 -.39454 3.67188 .0273 c 1.25781 .42969 2.33594 1.19922 3.24219 2.32031 c 1.14843 1.41797 1.68359 2.9375 1.60156 4.53906 c -.0899 1.59375 -.86719 3.19532 -2.33594 4.78125 c 1.22266 -.1875 2.33594 -.21093 3.33984 -.0703 c 1.00782 .14453 2.5625 .58203 4.66407 1.31641 l 5.3125 1.82031 l -4.57813 3.70313 l -6.10547 -1.88282 c -2.17578 -.67968 -3.59375 -1.0625 -4.26953 -1.15234 c -.66797 -.0898 -1.26562 -.0391 -1.78906 .14062 c -.51953 .1875 -1.21484 .63672 -2.09766 1.35157 l -.77343 .625 l 6.40625 7.90625 z m -5.02343 -14.03516 l 2.82812 -2.28906 c 1.83203 -1.48437 2.91797 -2.48828 3.25391 -3.01562 c .32812 -.51954 .46875 -1.07813 .42187 -1.66797 c -.0508 -.58985 -.30078 -1.16797 -.76172 -1.73438 c -.51953 -.64062 -1.10546 -1.01562 -1.76171 -1.13281 c -.66016 -.11719 -1.33985 .0273 -2.04297 .42578 c -.34375 .20703 -1.28907 .94141 -2.84766 2.19922 l -2.98047 2.41406 z m 26.28906 -15.42578 l -2.85156 -2.95703 l 7.6289 -7.36719 l 6.7461 6.98438 c -.0508 1.4375 -.51563 3.10547 -1.39453 5.01172 c -.88282 1.90625 -2.04297 3.55468 -3.48047 4.94531 c -1.83985 1.76953 -3.8086 2.93359 -5.91407 3.48047 c -2.10937 .54687 -4.19531 .4375 -6.26171 -.33203 c -2.07032 -.76953 -3.91797 -1.9961 -5.53907 -3.67578 c -1.76562 -1.82813 -2.94922 -3.82032 -3.55859 -5.98047 c -.59766 -2.15625 -.53516 -4.32813 .21484 -6.51172 c .5625 -1.66797 1.6836 -3.3086 3.35157 -4.92578 c 2.17578 -2.10157 4.32031 -3.28907 6.42187 -3.55469 c 2.10547 -.26953 4.11328 .23047 6.02344 1.50391 l -2.88281 4.05078 c -1.07813 -.6211 -2.20313 -.85157 -3.36719 -.69141 c -1.16406 .16016 -2.25 .73047 -3.27344 1.71875 c -1.54687 1.49219 -2.29687 3.16797 -2.26953 5.03125 c .0352 1.86719 .98437 3.75781 2.85156 5.69141 c 2.00391 2.07812 3.97656 3.19531 5.91406 3.33984 c 1.92188 .15234 3.63672 -.5 5.13282 -1.94922 c .74609 -.71875 1.34375 -1.58203 1.8125 -2.59375 c .46875 -1.00781 .76172 -1.98047 .89843 -2.91015 l -2.14843 -2.22266 z m 17.24609 -3.875 l -18.39453 -15.99219 l 11.85547 -13.63671 l 3.11328 2.70703 l -8.6289 9.92578 l 4.08203 3.54297 l 8.02343 -9.23438 l 3.10157 2.69141 l -8.03125 9.23437 l 5.00781 4.35157 l 8.93359 -10.27344 l 3.10157 2.69531 z m 15.38672 -17.22265 l -19.96875 -13.98047 l 2.7461 -3.92578 l 19.05859 1.16406 l -13.33594 -9.33594 l 2.625 -3.74609 l 19.96875 13.98047 l -2.83594 4.05078 l -18.65625 -1.07032 l 13.01954 9.11719 z m 16.8086 -24.77344 l -17.17579 -10.73438 l -3.83203 6.13282 l -3.5 -2.1836 l 10.26563 -16.42969 l 3.5 2.1875 l -3.82422 6.11719 l 17.17187 10.73047 z m 7.75781 -13.03125 l -21.71485 -11.06641 l 2.23047 -4.38281 l 21.71875 11.06641 z m 4.66406 -8.40625 l -22.26953 -9.91406 l 1.94922 -4.375 l 18.92969 -2.4961 l -14.8711 -6.62109 l 1.85938 -4.17578 l 22.27343 9.91406 l -2.01562 4.51562 l -18.51563 2.50782 l 14.52344 6.46875 z m 16.82031 -43.42969 l -1.65234 5.09375 l -5.92188 .3125 l -3.01562 9.26953 l 4.64453 3.6211 l -1.61328 4.96484 l -20.24609 -16.5625 l 1.60546 -4.94922 z m -11.96875 5.64063 l -9.64453 .39843 l 7.58985 5.92578 z m 0 0" fill-rule="evenodd"/><path d="m 2280.9375 4751.7578 l 74.5313 -230.7812 l 242.5 .4687 l -196.4844 -142.1875 l 75.3906 -230.5078 l -195.9375 142.9297 l -195.8984 -142.9297 l 75.3515 230.5078 l -196.4843 142.1875 l 242.539 -.4687 z m 0 0" fill="#fc0" fill-rule="evenodd" stroke="#fc0" stroke-width="2.16" transform="matrix(.1 0 0 -.1 0 562)"/><path d="m 3241.7578 4751.7578 l 74.5313 -230.7812 l 242.5 .4687 l -196.4844 -142.1875 l 75.3906 -230.5078 l -195.9375 142.9297 l -195.8984 -142.9297 l 75.3515 230.5078 l -196.4843 142.1875 l 242.539 -.4687 z m 0 0" fill="#fc0" fill-rule="evenodd" stroke="#fc0" stroke-width="2.16" transform="matrix(.1 0 0 -.1 0 562)"/></g></svg>