<?xml version="1.0" encoding="UTF-8" standalone="no"?>
<svg
   xmlns:dc="http://purl.org/dc/elements/1.1/"
   xmlns:cc="http://creativecommons.org/ns#"
   xmlns:rdf="http://www.w3.org/1999/02/22-rdf-syntax-ns#"
   xmlns:svg="http://www.w3.org/2000/svg"
   xmlns="http://www.w3.org/2000/svg"
   xmlns:sodipodi="http://sodipodi.sourceforge.net/DTD/sodipodi-0.dtd"
   xmlns:inkscape="http://www.inkscape.org/namespaces/inkscape"
   viewBox="0 0 999.99999 1000"
   id="svg2"
   height="1000"
   width="1000"
   version="1.1"
   sodipodi:docname="Club Atlético Puerto Nuevo.svg"
   inkscape:version="1.0.1 (3bc2e813f5, 2020-09-07)">
  <sodipodi:namedview
     pagecolor="#ffffff"
     bordercolor="#666666"
     borderopacity="1"
     objecttolerance="10"
     gridtolerance="10"
     guidetolerance="10"
     inkscape:pageopacity="0"
     inkscape:pageshadow="2"
     inkscape:window-width="1920"
     inkscape:window-height="1017"
     id="namedview16"
     showgrid="false"
     inkscape:zoom="0.863"
     inkscape:cx="500"
     inkscape:cy="500"
     inkscape:window-x="-8"
     inkscape:window-y="-8"
     inkscape:window-maximized="1"
     inkscape:current-layer="svg2" />
  <metadata
     id="metadata30">
    <rdf:RDF>
      <cc:Work
         rdf:about="">
        <dc:format>image/svg+xml</dc:format>
        <dc:type
           rdf:resource="http://purl.org/dc/dcmitype/StillImage" />
        <dc:title></dc:title>
      </cc:Work>
    </rdf:RDF>
  </metadata>
  <defs
     id="defs28" />
  <g
     id="g4"
     transform="matrix(1.6889267,0,0,1.6889267,1.0882164,-210.90806)">
    <path
       id="path6"
       style="fill:#0001fc;fill-rule:evenodd;stroke:#0001fc;stroke-width:0.6074;stroke-linecap:butt;stroke-linejoin:miter;stroke-dasharray:none"
       d="m 44.4887,220.96 c 85.0992,5.9608 169.5244,-19.0618 253.1491,-80.903 83.6246,61.8412 168.0498,86.8638 253.149,80.903 6.8207,192.0562 -68.5792,396.101 -253.149,480.8725 C 113.0679,617.061 37.668,413.0162 44.4887,220.96 Z" />
    <path
       id="path8"
       style="fill:#ffcc00;fill-rule:evenodd;stroke:#ffcc00;stroke-width:0.6074;stroke-linecap:butt;stroke-linejoin:miter;stroke-dasharray:none"
       d="m 297.6378,155.2251 c -72.121,51.5013 -152.3558,81.7182 -241.2117,78.6451 -0.4376,26.3757 0.7086,52.7937 3.4846,79.0218 16.5643,156.5018 91.1511,305.4644 237.7271,375.3924 57.6219,-27.4925 105.9092,-68.0881 143.8986,-119.5089 54.6618,-73.9876 84.2108,-165.0151 93.8284,-255.8835 2.776,-26.2281 3.9223,-52.6461 3.4846,-79.0218 -88.8559,3.0731 -169.0907,-27.1438 -241.2116,-78.6451 z" />
    <path
       id="path10"
       style="fill:#0001fc;fill-rule:evenodd;stroke:#0001fc;stroke-width:0.6074;stroke-linecap:butt;stroke-linejoin:miter;stroke-dasharray:none"
       d="m 199.6471,560.2464 65.6957,-39.474 V 656.5228 C 241.0455,641.2305 219.18,623.4573 199.6471,603.6702 Z" />
    <path
       id="path12"
       style="fill:#0001fc;fill-rule:evenodd;stroke:#0001fc;stroke-width:0.6074;stroke-linecap:butt;stroke-linejoin:miter;stroke-dasharray:none"
       d="m 331.0382,481.2987 65.6957,-39.4739 v 160.7247 c -19.8147,20.2333 -41.7446,38.0699 -65.6957,53.2693 z" />
    <path
       id="path14"
       style="fill:#0001fc;fill-rule:evenodd;stroke:#0001fc;stroke-width:0.6074;stroke-linecap:butt;stroke-linejoin:miter;stroke-dasharray:none"
       d="m 462.4296,402.3511 51.3589,-30.8595 c -10.3298,49.3907 -27.142,97.6574 -51.3589,141.7841 z" />
    <path
       id="path16"
       style="fill:#0001fc;fill-rule:evenodd;stroke:#ffcc00;stroke-width:0.6074;stroke-linecap:butt;stroke-linejoin:miter;stroke-dasharray:none"
       d="M 167.0904,566.1161 516.8145,355.9808 c 2.6724,-14.7483 4.7802,-29.5684 6.348,-44.3802 2.2934,-21.6684 3.4524,-43.4579 3.5053,-65.2478 -16.3949,0.004 -32.6877,-1.0933 -48.8383,-3.2731 L 109.5958,464.3365 c 14.8634,36.4912 33.9371,70.8472 57.4946,101.7796 z" />
    <path
       id="path18"
       style="fill:#0001fc;fill-rule:evenodd;stroke:#0001fc;stroke-width:0.6074;stroke-linecap:butt;stroke-linejoin:miter;stroke-dasharray:none"
       d="m 105.5229,454.0103 28.4285,-17.0815 v -196.463 c -21.5326,3.915 -43.3467,5.8922 -65.3437,5.887 0.0529,21.7899 1.2119,43.5794 3.5053,65.2478 5.1772,48.9148 16.1458,97.1772 33.4099,142.4097 z" />
    <path
       id="path20"
       style="fill:#0001fc;fill-rule:evenodd;stroke:#0001fc;stroke-width:0.6074;stroke-linecap:butt;stroke-linejoin:miter;stroke-dasharray:none"
       d="m 199.6471,397.4548 65.6957,-39.474 V 190.7574 c -21.0105,12.2478 -42.9184,22.8662 -65.6957,31.4402 z" />
    <path
       id="path22"
       style="fill:#0001fc;fill-rule:evenodd;stroke:#0001fc;stroke-width:0.6074;stroke-linecap:butt;stroke-linejoin:miter;stroke-dasharray:none"
       d="m 331.0382,318.5069 65.6957,-39.474 v -56.421 c -22.7742,-8.4957 -44.6821,-19.0387 -65.6957,-31.2125 z" />
    <path
       id="path24"
       style="fill:#ffcc00;fill-rule:evenodd"
       d="m 214.1358,508.5449 c -1.4642,3.8384 -3.5508,7.3006 -6.253,10.3618 -2.687,3.052 -6.1154,5.8408 -10.2788,8.3426 -4.715,2.8328 -9.5587,4.6183 -14.5224,5.3719 -4.9731,0.738 -9.8217,0.4012 -14.5847,-1.0075 -5.2167,-1.5739 -9.9927,-4.1834 -14.3347,-7.8038 -4.3265,-3.6294 -8.1758,-8.2329 -11.5329,-13.8202 -2.2442,-3.7348 -4.017,-7.4821 -5.3269,-11.2577 -1.3103,-3.7752 -2.106,-7.4223 -2.3958,-10.9561 -0.6053,-7.4907 0.524,-14.1066 3.3868,-19.8476 2.8629,-5.7412 7.405,-10.4908 13.6501,-14.2435 3.6738,-2.2072 7.4151,-3.8512 11.218,-4.907 3.8032,-1.056 7.7597,-1.579 11.8697,-1.5696 l 9.9241,16.5163 c -3.5016,-1.3542 -6.978,-1.87 -10.4201,-1.5307 -3.4418,0.3389 -6.8498,1.5323 -10.2175,3.5557 -5.8013,3.4858 -9.2127,8.3483 -10.2259,14.6028 -1.0218,6.2391 0.5533,12.8134 4.7013,19.717 4.2399,7.0563 9.3542,11.5459 15.3369,13.4928 5.9882,1.9228 12.0486,1.0521 18.1865,-2.636 3.429,-2.0602 6.205,-4.5826 8.3226,-7.5423 2.102,-2.9507 3.5456,-6.3387 4.2903,-10.161 z m 19.2277,-3.7822 c -2.5564,1.5359 -5.2234,1.9511 -8.0262,1.2392 -2.8091,-0.6871 -4.9688,-2.3059 -6.5047,-4.862 -1.5268,-2.5409 -1.9451,-5.248 -1.2608,-8.0966 0.6992,-2.858 2.2843,-5.0396 4.81,-6.557 2.541,-1.5268 5.2574,-1.9299 8.1246,-1.2149 2.8668,0.715 5.0761,2.3456 6.6026,4.8866 1.5176,2.5257 1.9082,5.1869 1.1839,8.0385 -0.7177,2.8274 -2.3578,5.0212 -4.9294,6.5662 z m 26.8425,-35.6286 4.4018,15.8555 -16.0574,9.6479 -19.6234,-85.084 17.3583,-10.43 65.9119,57.2714 -15.9654,9.5927 -11.9328,-11.33 z m -4.5837,-12.6208 18.3839,-11.046 -29.3237,-28.1722 z M 331.16,446.0006 c -2.5564,1.5359 -5.2234,1.9511 -8.0261,1.2392 -2.8091,-0.687 -4.9689,-2.3058 -6.5048,-4.862 -1.5268,-2.5409 -1.945,-5.2479 -1.2607,-8.0965 0.6991,-2.8581 2.2843,-5.0397 4.81,-6.5574 2.5409,-1.5265 5.2574,-1.9295 8.1245,-1.2146 2.8668,0.715 5.0761,2.3457 6.6026,4.8866 1.5177,2.5257 1.9083,5.1869 1.1839,8.0386 -0.7177,2.8273 -2.3578,5.0211 -4.9294,6.5661 z m 15.153,-63.8548 7.179,-4.3138 c 5.48,-3.2926 8.8043,-6.2897 9.9876,-9.0007 1.1927,-2.6962 0.6821,-5.8685 -1.4883,-9.481 -2.2442,-3.7348 -4.7383,-5.7364 -7.4673,-6.013 -2.7289,-0.277 -7.0092,1.3366 -12.8413,4.8407 l -7.179,4.3137 z m 7.2291,12.0313 16.5002,27.4609 -15.8885,9.5468 -42.7678,-71.1778 29.7567,-17.8795 c 7.7604,-4.663 14.7943,-6.41 21.0855,-5.2322 6.3159,1.1845 11.5311,5.2177 15.679,12.1212 4.3872,7.3015 5.5827,14.1455 3.6112,20.5382 -1.9711,6.393 -7.036,12.0401 -15.1948,16.9425 z m 57.3978,3.887 c -2.5562,1.5359 -5.2231,1.9511 -8.0262,1.2392 -2.8088,-0.6874 -4.9688,-2.3059 -6.5047,-4.8623 -1.5269,-2.5409 -1.9451,-5.248 -1.2608,-8.0966 0.6995,-2.858 2.2846,-5.0393 4.81,-6.557 2.541,-1.5268 5.2574,-1.9299 8.1246,-1.2146 2.8668,0.7147 5.076,2.3456 6.6028,4.8866 1.5174,2.5254 1.9083,5.1866 1.184,8.0385 -0.7177,2.8271 -2.3581,5.0208 -4.9297,6.5662 z m 63.1438,-38.9407 -46.9282,-25.1568 c -1.3385,-0.7372 -2.8553,-1.8054 -4.5561,-3.1794 -1.7002,-1.3737 -3.5022,-3.0202 -5.3901,-4.9488 1.9681,2.6512 3.7676,5.1951 5.4226,7.6379 1.6553,2.4429 3.1238,4.7481 4.4206,6.9064 l 20.7493,34.5327 -13.8682,8.3326 -42.7678,-71.1776 13.761,-8.2682 45.0229,24.3435 c 2.3314,1.2447 4.4729,2.6248 6.4341,4.1546 1.9611,1.5302 3.7749,3.2316 5.4545,5.0561 -2.0999,-2.8012 -3.9848,-5.4184 -5.6401,-7.8612 -1.6708,-2.4337 -3.0901,-4.6223 -4.2582,-6.5665 l -20.9148,-34.8082 13.9599,-8.3878 42.7679,71.1775 z m 37.4387,-21.4955 c -2.5564,1.5362 -5.2233,1.9511 -8.0261,1.2395 -2.8091,-0.6873 -4.9689,-2.3062 -6.5051,-4.8623 -1.5265,-2.5409 -1.9447,-5.248 -1.2604,-8.0966 0.6992,-2.858 2.2843,-5.0396 4.81,-6.557 2.5409,-1.5268 5.2574,-1.9298 8.1242,-1.2149 2.8672,0.715 5.0761,2.346 6.6029,4.8866 1.5177,2.5257 1.9083,5.1869 1.1839,8.0386 -0.7177,2.8273 -2.3578,5.0211 -4.9294,6.5661 z" />
  </g>
</svg>
