<svg height="1000" viewBox="0 0 749.99998 749.99996" width="1000" xmlns="http://www.w3.org/2000/svg"><g transform="translate(4.955701)"><g transform="matrix(1.3513113 0 0 1.3513113 892.88608 185.97343)"><g><path d="m -119.42332 -97.959378 c -115.80954 9.38231 -214.13979 27.27393 -272.86894 -25.789632 c -58.7291 53.063562 -146.5245 39.433063 -262.3341 30.050753 c -25.5806 234.690667 64.6396 415.688497 264.7589 497.214867 c 200.11923 -81.52637 295.912743 -266.78532 270.44414 -501.475988 z" fill="#d22c12" fill-rule="evenodd"/><path d="m -131.99758 -86.787899 c -110.36997 8.941623 -204.08165 25.992876 -260.0523 -24.578301 c -55.9706 50.571177 -139.64226 37.580901 -250.0123 28.639277 c -24.37908 223.667263 61.60349 396.163653 252.32321 473.860723 c 190.71965 -77.69707 282.01375 -254.25444 257.74139 -477.921699 z" fill="#fff" fill-rule="evenodd"/><path d="m -147.22949 -73.255262 c -103.78071 8.407796 -191.89766 24.441054 -244.52679 -23.110938 c -52.62905 47.551992 -131.30539 35.337262 -235.08618 26.929466 c -22.9236 210.313994 57.92568 372.512074 237.25914 445.570534 c 179.3334 -73.05846 265.1771 -239.07508 242.35383 -449.389062 z" fill="#70cce3" fill-rule="evenodd"/></g><path d="m -499.60127 1.9020975 l -6.5581 6.70019 l -23.60449 24.1215905 l -6.55811 6.7002 l 10.72119 10.491229 l 6.55665 -6.700199 l 115.7871 113.310072 V 262.8655 h -9.375 v 15 h 52.5 v -15 h -9.375 V 156.55735 l 114.2871 -111.842243 l 6.55665 6.7002 l 10.72119 -10.49123 l -6.55665 -6.700199 l -23.60595 -24.121591 l -6.55664 -6.7001895 l -10.7212 10.4912095 l 6.55665 6.700201 l -107.54004 105.240242 l -109.07226 -106.740242 l 6.55664 -6.700201 z" fill="#d22c12" opacity=".998"/></g><g fill="#d22c12" stroke-width=".75" transform="translate(729.16232 -391.69877)"><path d="m -546.77344 580.66748 l -.29145 -.65701 q 1.59022 -.80798 2.45385 -1.63551 q .86363 -.82754 1.29598 -2.01075 q .48004 -1.30692 .17335 -2.84602 q -.30669 -1.5391 -1.61188 -4.48135 l -2.44242 -5.58295 q -.53221 -1.19975 -1.66408 -2.44118 q -1.29038 -1.4446 -4.10353 -3.2393 l -12.32777 -7.83003 l -2.20103 -1.41669 q -2.4199 -1.52472 -4.17442 -1.70364 q -.90421 -.11169 -1.69438 .0337 q -.79017 .1454 -2.10096 .65849 l -.29145 -.65701 l 18.62473 -8.26195 l .29145 .65701 q -2.30758 1.19458 -2.83787 1.77168 q -1.29555 1.39519 -.49723 3.19482 q .29145 .65701 1.00172 1.33335 q .73883 .66367 2.09622 1.56574 l 13.11407 8.67776 l 2.04004 -13.28057 l .22317 -1.50065 q .32196 -2.12565 -.38765 -3.72532 q -.81099 -1.8282 -2.42569 -2.30845 q -1.6147 -.48025 -3.72855 .45745 l -.29145 -.65701 l 13.14015 -5.82898 l .29145 .65701 q -1.40938 .83032 -2.05715 1.52791 q -.66045 .66903 -1.15938 1.77921 q -1.13147 2.68988 -1.8931 7.36945 l -2.10319 12.82996 q -.38554 2.2906 -.27515 3.23305 q .11039 .94245 .98473 2.91347 l 3.10457 6.99856 q 1.35588 3.05651 2.2371 4.27237 q .89712 1.17463 2.22939 1.7118 q 2.30606 .95986 5.21974 -.33266 l .29145 .65701 z" fill="#d22c12" stroke-width=".75"/><path d="m -504.41179 516.72795 l .24854 .67441 q -1.63894 .70392 -2.55406 1.47414 q -.91511 .77021 -1.39343 1.91232 q -.60022 1.35356 -.38245 2.93853 q .24709 1.57417 1.56545 5.15147 l 6.11632 16.59633 q 1.49126 4.04646 2.45446 5.75637 q .98173 1.66978 2.48196 2.84874 q 2.26115 1.79775 4.70273 2.09691 q 2.46009 .25903 5.59756 -.89724 q 3.0495 -1.12384 5.47079 -3.04861 q 2.4398 -1.9649 3.68195 -4.28774 q .76535 -1.44771 .85009 -2.84443 q .11406 -1.40753 -.39079 -3.31966 q -.32577 -1.24543 -1.97912 -5.73172 l -6.04068 -16.39108 q -1.11304 -3.02018 -1.99441 -4.32729 q -.85205 -1.31792 -2.10684 -1.92123 q -1.1344 -.54777 -2.33048 -.53993 q -1.16675 -.003 -2.87053 .52501 l -.24855 -.67441 l 13.51751 -4.98166 l .24855 .6744 q -1.63895 .70393 -2.55406 1.47414 q -.8858 .7594 -1.39344 1.91232 q -.56319 1.2733 -.37474 2.86908 q .20696 1.55566 1.3092 4.54652 l 6.81872 18.50227 q 1.51287 4.1051 1.5918 6.30742 q .0974 2.16219 -1.18483 4.46651 q -2.91944 5.27229 -10.86574 8.20078 q -8.29817 3.05816 -13.51328 1.01686 q -3.3723 -1.28834 -5.21075 -4.74058 q -.6514 -1.22534 -1.89412 -4.59738 l -6.55938 -17.79854 q -1.11304 -3.02019 -1.96509 -4.3381 q -.85204 -1.31792 -2.13615 -1.91043 q -1.10508 -.55857 -2.30116 -.55074 q -1.16675 -.003 -2.89986 .53583 l -.24854 -.67441 z" fill="#d22c12" stroke-width=".75"/><path d="m -444.46294 520.30538 l 2.61363 10.91005 q .74259 3.09979 1.44089 4.53922 q .72142 1.40175 1.89648 2.14854 q 1.02438 .65436 2.18996 .82501 q 1.18869 .13298 2.97316 -.1981 l .16745 .69897 l -19.41929 4.65211 l -.16745 -.69897 q 1.74079 -.51343 2.7098 -1.16331 q .99212 -.68756 1.6088 -1.73505 q .73952 -1.20545 .71707 -2.77465 q -.0224 -1.5692 -.77231 -4.69938 l -5.36558 -22.39752 q -.62611 -2.61356 -1.20412 -3.95326 q -.55491 -1.37737 -1.31306 -2.12764 q -1.08136 -1.02632 -2.43529 -1.31252 q -1.36121 -.31659 -3.3353 .0278 l -.21273 .051 l -.16744 -.69897 l 18.32524 -4.39002 q 4.80164 -1.15029 7.19739 -1.21007 q 2.39574 -.0598 4.62938 .94757 q 5.10167 2.24833 6.41213 7.71855 q 1.33229 5.56139 -2.42506 9.19292 q -1.95893 1.88318 -5.14515 2.93569 q -1.01142 .3387 -4.96214 1.28514 z m -.23297 -.97249 l 2.97823 -.71347 q 3.00862 -.72075 4.51737 -1.53206 q 1.53187 -.84899 2.52432 -2.33998 q 2.33029 -3.41819 1.2528 -7.91593 q -.59698 -2.49199 -1.97336 -4.34739 q -1.35326 -1.89307 -3.27699 -2.81399 q -2.22509 -1.1058 -4.84339 -.76776 q -.71353 .10666 -3.20552 .70365 l -2.55277 .61154 z" fill="#d22c12" stroke-width=".75"/><path d="m -362.71821 530.77177 l -20.49371 1.241 l -.0435 -.71744 q 2.76106 -.41765 3.81125 -1.17 q 1.86029 -1.33364 1.72996 -3.48594 q -.0774 -1.27891 -1.08118 -3.37833 l -.60961 -1.27799 l -3.44029 -7.18018 l -13.72486 .83111 l -1.36136 4.40283 l -.66271 1.98118 q -1.19591 3.51622 -1.07691 5.48137 q .0699 1.15413 .62942 2.12208 q .59073 .96606 1.5019 1.53703 q 1.26752 .76854 3.17973 .80929 l .0435 .71743 l -13.9744 .84622 l -.0435 -.71744 q 1.64756 -.19369 2.85183 -.98668 q 1.20427 -.79299 2.29326 -2.4556 q .92073 -1.33935 1.73563 -3.39236 q .8442 -2.08609 2.16018 -6.20442 l 9.63537 -30.1062 l 1.77799 -.10766 l 15.55411 31.96203 q 1.75323 3.6194 2.75415 5.15546 q 1.00093 1.53605 2.1106 2.28285 q .78263 .51613 1.76849 .76951 q .98398 .22218 2.93116 .32342 z m -20.70356 -17.21757 l -7.52894 -15.76123 l -5.19775 16.5319 z" fill="#d22c12" stroke-width=".75"/><path d="m -338.31014 495.94302 l -3.75183 26.92738 q -.44418 3.18796 -.31503 4.752 q .1601 1.56834 .98158 2.69246 q .74157 1.01833 1.7688 1.57163 q 1.05817 .55761 2.80944 .89627 l -.0992 .71188 l -14.26841 -1.98804 l .0992 -.71188 q 1.77715 .15296 2.9165 -.0985 q 1.17029 -.24711 2.16198 -1.02394 q 1.09748 -.85675 1.64925 -2.32591 q .58704 -1.4958 1.02691 -4.65281 l 3.18259 -22.84184 q .43555 -3.12606 .27545 -4.69441 q -.12484 -1.59498 -.94632 -2.7191 q -.71062 -1.01402 -1.76879 -1.57163 q -1.02722 -.5533 -2.80945 -.89627 l .0992 -.71188 l 11.91614 1.6603 l 20.66453 35.56696 l 3.11359 -22.34664 q .44418 -3.18795 .28408 -4.7563 q -.12916 -1.56404 -.95064 -2.68815 q -.74157 -1.01833 -1.79974 -1.57594 q -1.02722 -.5533 -2.77849 -.89197 l .0992 -.71187 l 14.26842 1.98804 l -.0992 .71187 q -3.0951 -.43124 -5.07848 1.12242 q -1.09748 .85675 -1.68451 2.35255 q -.55177 1.46916 -.98733 4.59521 l -4.5367 32.56047 l -1.39279 -.19406 z" fill="#d22c12" stroke-width=".75"/><path d="m -263.07857 549.65865 q 1.44626 1.6486 3.45922 2.90668 q 2.0344 1.29673 4.25781 1.93244 q 1.89289 .54122 3.70433 .57161 q 1.83289 .069 3.06923 -.39004 q 1.09037 -.40329 1.85028 -1.12858 q .79855 -.74675 1.66592 -2.18887 l .46355 .19755 q -.74731 2.15899 -1.80781 3.48088 q -1.03905 1.36054 -2.79488 2.38612 q -4.64072 2.7034 -11.40107 .77049 q -3.93603 -1.12539 -6.20636 -3.30212 q -2.03428 -1.97924 -3.8063 -6.12614 l -.12014 -.26187 q -2.64405 -.75598 -5.25788 -2.41339 q -2.59237 -1.61877 -4.65666 -3.8341 q -4.08565 -4.35339 -5.45391 -9.91246 q -1.33821 -5.55048 .26825 -11.16908 q 1.43465 -5.01768 4.82644 -8.69572 q 3.40037 -3.7081 8.46593 -5.7375 q 3.71331 -1.50597 7.67964 -1.73701 q 3.97492 -.26109 7.61049 .77838 q 4.26653 1.21989 7.80302 4.08366 q 2.67811 2.22833 4.66927 5.26781 q 2.02978 3.01802 3.04647 6.39643 q 1.80173 5.97552 .10076 11.92463 q -1.09102 3.81584 -3.49543 6.99614 q -2.36577 3.15885 -5.80021 5.3946 q -2.83771 1.85383 -5.65806 2.73755 q -2.82035 .88373 -6.4819 1.07191 z m -15.27088 -10.02163 q 2.37376 -.004 4.53707 .61469 q 2.67409 .76457 4.83719 2.52062 q .92275 .75137 1.82827 1.79033 q .90553 1.03896 2.8839 3.55475 l .21028 .28764 q 2.25367 -.49322 4.06959 -1.50162 q 1.84598 -.9998 3.85094 -2.89672 q 4.90721 -4.54484 7.01194 -11.90611 q 1.37451 -4.80736 1.29814 -9.54202 q -.0463 -4.72607 -1.56947 -8.37929 q -1.2271 -2.98354 -3.27428 -4.80395 q -2.01714 -1.81183 -5.17197 -2.71385 q -3.18488 -.91062 -5.88496 -.44754 q -2.66145 .44163 -5.28883 2.35559 q -3.19407 2.30448 -5.76175 6.28316 q -2.52904 3.95722 -3.90356 8.76458 q -1.27142 4.44681 -1.19488 8.27145 q .0851 3.79461 1.52238 7.74829 z m 7.15414 7.8309 l -.1416 -.3005 q -1.3816 -3.12521 -2.56176 -4.56772 q -1.18017 -1.44251 -2.71252 -1.88064 q -.57087 -.16322 -1.33066 -.12044 q 1.26578 2.73457 2.77645 4.27158 q 1.54072 1.5456 3.97009 2.59772 z" fill="#d22c12" stroke-width=".75"/><path d="m -200.35385 525.65985 l -.24622 .67526 q -1.70559 -.52212 -2.90169 -.52584 q -1.19609 -.004 -2.29924 .55866 q -1.33283 .64494 -2.19104 1.99515 q -.82885 1.3609 -2.13488 4.94272 l -6.05914 16.6173 q -1.47731 4.05157 -1.84744 5.97889 q -.33007 1.90867 .0528 3.77791 q .56353 2.83322 2.23328 4.63952 q 1.70982 1.78764 4.85126 2.93309 q 3.05335 1.11334 6.14497 1.20949 q 3.13169 .0775 5.58081 -.89219 q 1.51969 -.61007 2.48707 -1.6211 q .99674 -1.00033 1.84732 -2.78572 q .55635 -1.16091 2.19424 -5.65286 l 5.9842 -16.41179 q 1.10263 -3.02399 1.27488 -4.59105 q .2016 -1.55636 -.36597 -2.82772 q -.51161 -1.15116 -1.42937 -1.91821 q -.8884 -.75635 -2.52976 -1.45463 l .24622 -.67526 l 13.53458 4.93509 l -.24622 .67526 q -1.70559 -.52212 -2.90169 -.52583 q -1.16674 .007 -2.29924 .55866 q -1.2527 .60763 -2.14027 1.94713 q -.84751 1.32084 -1.93944 4.31548 l -6.75497 18.52564 q -1.49872 4.11028 -2.86187 5.84184 q -1.32309 1.71289 -3.79086 2.64252 q -5.63529 2.1363 -13.59163 -.76481 q -8.30865 -3.02957 -10.96886 -7.9578 q -1.74066 -3.16265 -.91232 -6.98518 q .29487 -1.35603 1.52597 -4.73234 l 6.49804 -17.82102 q 1.10264 -3.024 1.30424 -4.58036 q .2016 -1.55635 -.39532 -2.83841 q -.48225 -1.14046 -1.40001 -1.90751 q -.88841 -.75636 -2.55913 -1.46533 l .24622 -.67526 z" fill="#d22c12" stroke-width=".75"/><path d="m -144.00412 547.29055 l -.2648 .66819 q -1.69049 -.5691 -2.88603 -.60591 q -1.16649 -.0253 -2.31382 .49482 q -1.59356 .71305 -2.67248 2.6721 q -.78452 1.47067 -1.57894 3.47524 l -8.48538 21.41113 q -.95562 2.4113 -1.27585 3.89789 q -.32023 1.48659 -.13118 2.53633 q .29481 1.46142 1.25566 2.51451 q .97237 1.02403 2.90183 1.92315 l -.26481 .66819 l -18.56406 -7.35707 l .26481 -.66819 q 1.71954 .58062 2.88602 .60592 q 1.20705 .008 2.31383 -.49483 q 1.29808 -.56123 2.18181 -1.85811 q .88372 -1.29689 2.0696 -4.28922 l 8.48538 -21.41114 q 1.18589 -2.99233 1.43047 -4.54251 q .24459 -1.55019 -.31664 -2.84827 q -.4505 -1.15336 -1.34669 -1.94552 q -.89619 -.79215 -2.5176 -1.53557 l .26481 -.66819 z" fill="#d22c12" stroke-width=".75"/></g><g fill="#d22c12" stroke-width=".75" transform="translate(1226.8141 145.16209)"><path d="m -716.51995 409.19516 q 3.95687 3.90956 5.74773 7.74375 q 1.79059 3.79 1.6581 7.48108 q -.13248 3.69107 -2.03323 7.30439 q -1.90102 3.56913 -5.67879 7.39262 l -6.78681 6.86894 q -.72481 .73358 -1.65234 .82754 q -.92779 .0498 -1.90589 -.91663 l -25.07497 -24.77516 q -.9781 -.96641 -.91726 -1.87277 q .0606 -.95056 .78538 -1.68413 l 7.29198 -7.38022 q 3.79974 -3.84572 7.34681 -5.61275 q 3.5468 -1.81123 7.1262 -1.87695 q 3.57913 -.10992 7.12443 1.50397 q 3.54531 1.6139 6.96866 4.99632 z m -5.77408 6.24412 q -2.04512 -2.02067 -4.28446 -3.26676 q -2.21738 -1.26832 -4.56096 -1.4752 q -2.32161 -.22911 -4.68024 .73527 q -2.3589 .92018 -5.01652 3.60996 l -2.92119 2.95654 l 19.56203 19.32814 l 3.00904 -3.04545 q 2.37209 -2.4008 3.37499 -4.66077 q 1.00289 -2.25998 .83426 -4.5792 q -.1689 -2.36342 -1.50905 -4.74189 q -1.31819 -2.40069 -3.8079 -4.86064 z" fill="#d22c12" stroke-width=".75"/><path d="m -680.04904 395.50431 q .66926 .61105 1.06761 1.10169 q .39634 .4465 .56792 .81474 q .17158 .36824 .14148 .67928 q -.0321 .2669 -.22174 .4746 l -13.69589 15.00067 q -.69533 .76157 -1.61844 .89203 q -.92511 .0863 -1.94054 -.84081 l -26.03193 -23.76765 q -1.01543 -.9271 -.99036 -1.83516 q .0231 -.95221 .7184 -1.71378 l 13.61161 -14.90835 q .18964 -.20771 .45252 -.2639 q .26289 -.0562 .66825 .10234 q .38229 .13745 .88599 .51271 q .50169 .33111 1.19403 .96323 q .64618 .58997 1.04453 1.08062 q .39634 .4465 .56792 .81473 q .17159 .36824 .16256 .65621 q -.0321 .2669 -.22174 .4746 l -9.73462 10.66202 l 7.29263 6.65831 l 8.23861 -9.02348 q .18963 -.2077 .4756 -.24282 q .28395 -.0793 .66624 .0582 q .35921 .11639 .86291 .49165 q .50169 .3311 1.14788 .92108 q .66926 .61105 1.04453 1.08062 q .39634 .4465 .56792 .81474 q .1485 .34716 .0953 .63714 q -.0321 .2669 -.22174 .4746 l -8.23861 9.02348 l 8.42345 7.69077 l 9.81891 -10.75432 q .18963 -.2077 .47559 -.24283 q .28396 -.0793 .66625 .0582 q .38228 .13746 .88599 .51272 q .50169 .3311 1.17095 .94215 z" fill="#d22c12" stroke-width=".75"/><path d="m -673.50685 349.31237 q 2.61034 2.18831 3.93938 4.68894 q 1.32905 2.50063 1.41308 5.22168 q .0601 2.70096 -1.12871 5.57831 q -1.16872 2.85341 -3.73847 5.91876 l -2.16823 2.58639 l 9.89055 8.29146 q .23948 .20076 .29053 .52901 q .0711 .3043 -.11027 .7639 q -.18141 .4596 -.61147 1.11853 q -.43006 .65893 -1.21303 1.5929 q -.76289 .91003 -1.35672 1.47245 q -.57375 .53847 -.99463 .79731 q -.42088 .25884 -.73293 .24192 q -.31204 -.0169 -.55152 -.21768 l -27.87553 -23.36868 q -1.12556 -.94359 -1.19454 -1.98009 q -.0728 -1.08053 .7302 -2.03845 l 6.12324 -7.30416 q .92351 -1.10161 1.84242 -2.00317 q .91505 -.94559 2.36684 -2.09367 q 1.42785 -1.16815 3.35473 -1.95872 q 1.94696 -.81452 3.93967 -.85668 q 1.96876 -.0622 3.94311 .69578 q 1.9504 .73794 3.8423 2.32396 z m -5.06594 6.96716 q -1.62847 -1.36518 -3.16401 -1.67378 q -1.53554 -.30859 -2.74112 .10799 q -1.20557 .41658 -2.10829 1.25017 q -.90658 .78957 -1.7297 1.77144 l -2.24854 2.68218 l 10.5132 8.81345 l 2.36899 -2.82587 q 1.2648 -1.50873 1.70088 -2.85584 q .45616 -1.37106 .27978 -2.61995 q -.20034 -1.26896 -.92509 -2.44743 q -.7487 -1.19855 -1.9461 -2.20236 z" fill="#d22c12" stroke-width=".75"/><path d="m -639.78594 317.16686 q 4.03624 3.0037 6.47385 6.37588 q 2.43761 3.37217 3.19496 7.01312 q .73228 3.62229 -.27226 7.43232 q -1.01094 3.7663 -3.86539 7.60198 q -2.81714 3.78554 -5.90305 5.89083 q -3.09233 2.06156 -6.52222 2.43062 q -3.4299 .36905 -7.27257 -1.01036 q -3.82402 -1.40448 -8.11096 -4.59475 q -3.93597 -2.92907 -6.32343 -6.26393 q -2.41254 -3.35352 -3.14482 -6.97581 q -.73228 -3.62229 .2536 -7.40725 q 1.00453 -3.81003 3.87764 -7.67078 q 2.74251 -3.68527 5.80976 -5.76548 q 3.08591 -2.10529 6.51581 -2.47435 q 3.44855 -.39412 7.26616 .96663 q 3.81119 1.31703 8.02292 4.45133 z m -4.79822 7.18047 q -2.55713 -1.90297 -4.93643 -3.05035 q -2.40437 -1.16603 -4.61109 -1.28904 q -2.21314 -.16674 -4.20939 .84072 q -2.02132 .98881 -3.81235 3.39551 q -1.80968 2.43177 -2.09478 4.7516 q -.31016 2.30118 .47284 4.44202 q .783 2.14084 2.52156 4.09686 q 1.73216 1.9123 4.01351 3.61004 q 2.6574 1.9776 5.08684 3.16228 q 2.40437 1.16604 4.61751 1.33277 q 2.21314 .16674 4.20939 -.84072 q 1.97118 -1.02611 3.78087 -3.45789 q 1.80968 -2.43177 2.11984 -4.73294 q .31016 -2.30118 -.49791 -4.46068 q -.80806 -2.15949 -2.56528 -4.09045 q -1.76364 -1.97468 -4.09513 -3.70973 z" fill="#d22c12" stroke-width=".75"/><path d="m -601.36369 293.95976 q .28952 .18532 .43269 .42537 q .11685 .22321 -.004 .70225 q -.12111 .47903 -.55704 1.276 q -.43592 .79697 -1.27828 2.11297 q -.70758 1.10543 -1.1814 1.72973 q -.47382 .62431 -.85813 .93487 q -.39378 .26739 -.70542 .29053 q -.33796 .006 -.72119 -.0906 l -9.56071 -1.81572 q -1.64346 -.27279 -2.98056 -.38659 q -1.3371 -.11379 -2.41628 .12303 q -1.08865 .19365 -1.96991 .81687 q -.88127 .62322 -1.58885 1.72866 l -1.38147 2.15823 l 12.9757 8.30565 q .2632 .16847 .35583 .48748 q .10947 .2927 -.0116 .77173 q -.12111 .47904 -.46333 1.18758 q -.34222 .70853 -.99926 1.73501 q -.64019 1.00015 -1.15718 1.63393 q -.50014 .60746 -.88444 .91802 q -.38431 .31056 -.69595 .3337 q -.31164 .0231 -.57484 -.14533 l -30.92585 -19.79541 q -1.15808 -.74127 -1.28752 -1.64041 q -.13891 -.9423 .41704 -1.81085 l 5.6438 -8.81716 q .85921 -1.34231 1.4678 -2.17718 q .6086 -.83486 1.14243 -1.49495 q 1.6036 -1.86763 3.35876 -3.04459 q 1.77201 -1.20328 3.65451 -1.59376 q 1.87303 -.43365 3.83971 -.0282 q 1.94035 .38863 3.96698 1.68586 q 1.7108 1.09507 2.84567 2.45225 q 1.1254 1.31402 1.69172 2.86383 q .56633 1.54982 .59043 3.30912 q .0241 1.75929 -.48666 3.65858 q .85705 -.52741 1.80463 -.84847 q .96442 -.34737 2.09833 -.43784 q 1.12445 -.13364 2.43522 -.0367 q 1.28446 .0801 2.81527 .35499 l 8.54791 1.42716 q 1.25286 .24539 1.81086 .41704 q .53167 .15481 .79487 .32328 z m -28.82004 -5.86937 q -1.68447 -1.07822 -3.33111 -1.05622 q -1.64664 .022 -3.23231 1.45587 q -.46855 .44216 -.98553 1.07593 q -.50014 .60746 -1.25826 1.79185 l -1.98797 3.10575 l 9.6594 6.18291 l 2.25752 -3.52687 q .94344 -1.47391 1.30886 -2.79836 q .3391 -1.34129 .17915 -2.48258 q -.18628 -1.15814 -.8453 -2.09942 q -.65901 -.94128 -1.76445 -1.64886 z" fill="#d22c12" stroke-width=".75"/><path d="m -615.18752 244.35806 q .79701 .43134 1.32954 .82614 q .51992 .35245 .80283 .68323 q .25543 .3159 .30134 .62501 q .0608 .28163 -.0731 .52898 l -4.81915 8.90457 l 28.66503 15.5135 q .27484 .14873 .39059 .46011 q .13062 .28389 .0449 .77051 q -.0857 .48662 -.38997 1.2458 q -.2894 .73171 -.85461 1.77607 q -.5652 1.04436 -1.03438 1.7143 q -.45429 .64246 -.81482 .98034 q -.36052 .33788 -.68451 .41127 q -.30911 .0459 -.58394 -.10283 l -28.66503 -15.51349 l -4.81915 8.90457 q -.14874 .27483 -.41776 .37797 q -.26901 .10314 -.67318 .0621 q -.43165 -.0559 -1.02594 -.27097 q -.6069 -.25739 -1.40391 -.68873 q -.8245 -.44622 -1.3719 -.81354 q -.53252 -.3948 -.78795 -.7107 q -.28292 -.33078 -.31622 -.59753 q -.0608 -.28163 .088 -.55646 l 13.56502 -25.06473 q .13386 -.24735 .40288 -.35049 q .25641 -.14549 .68806 -.0896 q .40417 .0411 1.01106 .29846 q .62177 .2299 1.44627 .67612 z" fill="#d22c12" stroke-width=".75"/><path d="m -576.1777 245.3095 q .28385 .1307 .41944 .43396 q .14866 .27488 .0945 .76601 q -.0541 .49113 -.29574 1.23998 q -.24161 .74884 -.75136 1.85586 q -.49668 1.07864 -.92167 1.77745 q -.41192 .67042 -.74991 1.03084 q -.33798 .36043 -.65656 .45456 q -.3055 .0658 -.58936 -.065 l -34.68677 -15.97226 q -.28385 -.1307 -.43251 -.40558 q -.13559 -.30326 -.0815 -.79439 q .0672 -.51952 .30881 -1.26836 q .24161 -.74885 .73829 -1.82749 q .50975 -1.10702 .92167 -1.77744 q .41192 -.67042 .74991 -1.03084 q .33798 -.36043 .64349 -.42618 q .31857 -.0941 .60243 .0366 z" fill="#d22c12" stroke-width=".75"/><path d="m -563.99548 213.96253 q .44519 .32931 .68209 .68221 q .20755 .34217 .19031 .93485 q -.0466 .58194 -.35016 1.50242 q -.27423 .93122 -.81121 2.39855 q -.42959 1.17387 -.77038 2.01418 q -.30071 .82171 -.5742 1.38716 q -.27348 .56545 -.53048 .904 q -.24626 .3092 -.519 .50888 q -.262 .17034 -.55047 .23115 q -.30708 .0207 -.73154 -.001 l -37.79531 -1.01989 q -1.18535 -.0345 -1.83385 -.17196 q -.63776 -.16684 -.80235 -.62639 q -.18319 -.49965 .0803 -1.40152 q .23415 -.91262 .81409 -2.49734 q .49402 -1.34994 .83194 -2.09147 q .33793 -.74154 .63501 -1.09869 q .29709 -.35715 .64426 -.39649 q .3579 -.0687 .8518 -.0543 l 32.67089 1.47394 l .0107 -.0293 l -25.82265 -19.73253 q -.45593 -.29996 -.68496 -.58344 q -.25837 -.29422 -.2841 -.76951 q -.015 -.50463 .21629 -1.31847 q .23128 -.81384 .73604 -2.19313 q .49402 -1.34994 .85055 -2.05139 q .36727 -.73079 .81609 -.86604 q .43021 -.17533 1.00353 .16759 q .58406 .31357 1.48231 1.04162 z" fill="#d22c12" stroke-width=".75"/><path d="m -568.18428 154.27169 q 4.912 1.0889 8.51615 3.16822 q 3.60415 2.07933 5.78518 5.0915 q 2.15051 3.00542 2.79313 6.89289 q .61888 3.8502 -.41592 8.51812 q -1.02127 4.60691 -2.97539 7.7907 q -1.97787 3.14651 -4.95638 4.88687 q -2.97851 1.74037 -7.04919 2.0543 q -4.06391 .28342 -9.281 -.87311 q -4.78997 -1.06186 -8.3331 -3.12765 q -3.57364 -2.07256 -5.72415 -5.07797 q -2.15052 -3.00542 -2.7999 -6.86238 q -.64263 -3.88747 .39893 -8.58591 q .99422 -4.48487 2.94158 -7.63814 q 1.95413 -3.18378 4.93264 -4.92415 q 2.98527 -1.77088 7.02543 -2.09157 q 4.01642 -.35797 9.14199 .77828 z m -1.43956 8.51526 q -3.11195 -.68986 -5.75244 -.76307 q -2.671 -.08 -4.73482 .71084 q -2.08757 .75356 -3.49672 2.48973 q -1.43967 1.7294 -2.08895 4.6583 q -.65605 2.9594 .0332 5.19275 q .65872 2.22659 2.24926 3.85953 q 1.59053 1.63294 3.97732 2.7062 q 2.36304 1.03598 5.13939 1.65145 q 3.23399 .71691 5.93549 .80365 q 2.671 .08 4.75857 -.67357 q 2.08757 -.75356 3.49672 -2.48973 q 1.37865 -1.74293 2.0347 -4.70233 q .65604 -2.95941 -.003 -5.186 q -.65872 -2.22658 -2.27976 -3.86629 q -1.62105 -1.6397 -4.0146 -2.68245 q -2.41729 -1.08001 -5.25466 -1.70901 z" fill="#d22c12" stroke-width=".75"/></g><g fill="#d22c12" stroke-width=".75" transform="translate(1034.4865 -480.08208)"><path d="m -951.94353 790.47286 q -.78031 -.0382 -1.33908 -.12822 q -.52908 -.0572 -.93025 -.17075 q -.36996 -.112 -.64322 -.28183 q -.27327 -.16984 -.63099 -.53154 q -.3265 -.36017 -.83937 -1.38651 q -.51439 -.99513 -.97462 -2.45691 q -.43054 -1.42905 -.68361 -3.28742 q -.25459 -1.82716 -.15054 -3.94961 q .2035 -4.15126 1.64693 -7.42827 q 1.44343 -3.277 4.0864 -5.49401 q 2.67419 -2.21547 6.54332 -3.2773 q 3.86913 -1.06183 8.92556 -.81396 q 5.15006 .25247 9.07794 1.82167 q 3.92788 1.5692 6.52249 4.16811 q 2.59461 2.5989 3.83087 6.10114 q 1.23472 3.53344 1.03122 7.6847 q -.0826 1.68548 -.44004 3.23234 q -.35742 1.54685 -.88987 2.83483 q -.50277 1.32071 -1.14783 2.35287 q -.64506 1.03215 -1.10193 1.41649 q -.42718 .41709 -.71574 .55938 q -.28857 .14229 -.73013 .21451 q -.44157 .0722 -1.03614 .0743 q -.59609 .0334 -1.47004 -.009 q -.93638 -.0459 -1.58878 -.14046 q -.6524 -.0945 -1.05052 -.27051 q -.39811 -.17595 -.57467 -.40362 q -.17657 -.22767 -.1628 -.50858 q .023 -.46819 .58876 -1.16006 q .59702 -.69035 1.30909 -1.81308 q .74176 -1.08999 1.35041 -2.65582 q .63833 -1.53308 .74543 -3.71796 q .11782 -2.40336 -.78765 -4.35629 q -.87578 -1.92018 -2.65152 -3.35259 q -1.74607 -1.39968 -4.30304 -2.21335 q -2.55698 -.81367 -5.80308 -.9728 q -3.55823 -.17443 -6.21527 .41493 q -2.62736 .62211 -4.37863 1.88162 q -1.7528 1.29073 -2.68888 3.15338 q -.90639 1.89539 -1.0242 4.29875 q -.10711 2.18488 .31426 3.8012 q .45257 1.61785 1.02174 2.7721 q .56764 1.18547 1.03185 1.92784 q .46268 .77358 .44278 1.17934 q -.0153 .31213 -.14933 .49328 q -.13403 .18116 -.5147 .28765 q -.38067 .10648 -1.0704 .13525 q -.65853 .0303 -1.78218 -.0248 z" fill="#d22c12" stroke-width=".75"/><path d="m -952.89558 822.8689 q -.93583 .056 -1.59651 .002 q -.62761 -.025 -1.07366 -.15489 q -.41486 -.13171 -.61696 -.37006 q -.20023 -.20716 -.2189 -.5191 l -1.1069 -18.49816 q -.0616 -1.02941 .48816 -1.78235 q .58282 -.7236 1.95536 -.80573 l 36.65319 -2.19327 q .31194 -.0187 .5727 .15356 q .26262 .20343 .44659 .66201 q .18397 .45858 .32421 1.23284 q .14212 .80545 .21305 1.99083 q .0728 1.21657 .0259 2.00202 q -.0469 .78546 -.17489 1.2627 q -.12797 .47725 -.36632 .67935 q -.23649 .23329 -.54843 .25196 l -32.47317 1.94314 l .75971 12.69604 q .0187 .31194 -.15543 .5415 q -.14104 .25889 -.53723 .43913 q -.365 .17837 -1.01634 .27995 q -.61829 .13092 -1.55411 .18692 z" fill="#d22c12" stroke-width=".75"/><path d="m -934.49766 860.72257 q -3.65209 .70097 -6.7431 .18054 q -3.09101 -.52044 -5.48641 -2.22446 q -2.39539 -1.70402 -4.0279 -4.57272 q -1.6325 -2.8687 -2.39827 -6.85838 q -.71865 -3.74415 -.36934 -6.89778 q .38 -3.15952 1.8881 -5.58095 q 1.50811 -2.42143 4.11951 -4.06819 q 2.64798 -1.62196 6.45352 -2.35239 l 24.15287 -4.63586 q .3069 -.0589 .58776 .0781 q .28086 .13702 .52267 .56791 q .2477 .46159 .48703 1.21116 q .23933 .74957 .46906 1.94648 q .22385 1.16621 .27904 1.95112 q .0552 .78492 -.01 1.27472 q -.0651 .4898 -.27526 .72106 q -.20429 .26196 -.51119 .32086 l -23.44701 4.50037 q -2.36311 .45358 -4.00051 1.37244 q -1.60671 .91298 -2.53606 2.20507 q -.92347 1.32279 -1.21793 2.93851 q -.25789 1.64052 .10143 3.51259 q .36521 1.90277 1.23695 3.29465 q .87175 1.39188 2.17686 2.22328 q 1.3358 .8255 3.06839 1.06572 q 1.76917 .26501 3.85608 -.13554 l 23.90735 -4.58873 q .3069 -.0589 .58776 .0781 q .28086 .13701 .52267 .56791 q .24181 .43089 .48114 1.18046 q .24522 .78027 .46906 1.94648 q .22385 1.16621 .27315 1.92044 q .0552 .78491 -.01 1.27471 q -.0651 .4898 -.27526 .72107 q -.21018 .23126 -.51708 .29017 z" fill="#d22c12" stroke-width=".75"/><path d="m -924.32217 900.22602 q -2.03327 .71779 -3.88111 .74045 q -1.84785 .0227 -3.46865 -.53191 q -1.6104 -.52512 -3.01283 -1.58762 q -1.39203 -1.03303 -2.56393 -2.47516 q -1.17191 -1.44214 -2.13236 -3.22405 q -.92058 -1.76284 -1.732 -4.06132 l -3.57854 -10.13689 q -.34329 -.97243 -.0227 -1.84784 q .3605 -.85635 1.65708 -1.31407 l 33.23957 -11.73428 q 1.29658 -.45772 2.08532 -.007 q .82862 .46971 1.17191 1.44214 l 3.38089 9.577 q 1.23792 3.50666 1.50159 6.13107 q .27408 2.65387 -.35154 4.73058 q -.58576 2.09576 -2.10067 3.62476 q -1.51492 1.52901 -3.99021 2.40284 q -1.38498 .48892 -2.74745 .57223 q -1.33301 .0729 -2.57418 -.25117 q -1.24116 -.32406 -2.36102 -1.05549 q -1.10945 -.70197 -2.02825 -1.80263 q .27748 1.72475 .0193 3.34033 q -.24776 1.64505 -1.07278 3.06306 q -.78514 1.43708 -2.13888 2.57778 q -1.35373 1.1407 -3.2986 1.82728 z m 12.52297 -15.68851 q 1.14924 -.40571 1.9379 -1.08181 q .78867 -.67609 1.12836 -1.59137 q .36916 -.92569 .3084 -2.13042 q -.0503 -1.17527 -.68492 -2.9728 l -1.38357 -3.9192 l -9.90114 3.49532 l 1.5292 4.33175 q .59295 1.67966 1.32973 2.54632 q .76624 .85627 1.67286 1.26529 q .94648 .4281 1.97441 .42976 q 1.0574 -.009 2.08877 -.37284 z m -15.62813 7.73745 q 1.32605 -.46812 2.20138 -1.27424 q .9048 -.81651 1.31034 -1.92074 q .40555 -1.10423 .3205 -2.56551 q -.085 -1.46128 -.83404 -3.58296 l -1.62282 -4.59696 l -10.84412 3.82821 l 1.97652 5.59886 q .57215 1.62073 1.2812 2.5966 q .74891 .99494 1.67808 1.56171 q .96903 .58583 2.09751 .68456 q 1.16834 .11779 2.43545 -.32953 z" fill="#d22c12" stroke-width=".75"/><path d="m -899.91991 946.61208 q -2.7616 1.59176 -5.43935 1.76456 q -2.67775 .17279 -5.09999 -.77556 q -2.39516 -.96396 -4.45678 -2.9137 q -2.06162 -1.94974 -3.60657 -4.63011 q -1.04557 -1.814 -1.65287 -3.55598 q -.5917 -1.71491 -.87223 -3.14027 q -.25345 -1.44097 -.26135 -2.5185 q .008 -1.05045 .1568 -1.60529 q .1491 -.55484 .70526 -1.09182 q .59883 -.52551 1.84426 -1.24337 q .83931 -.48377 1.43908 -.75734 q .59978 -.27357 1.01417 -.36814 q .43 -.0675 .67461 .044 q .28729 .12297 .44335 .39371 q .21847 .37904 .14835 1.3212 q -.0275 .95363 .0553 2.34872 q .0827 1.39509 .48077 3.14948 q .44072 1.76586 1.57992 3.7423 q .74907 1.29958 1.6399 2.15675 q .91791 .84157 1.89222 1.21779 q .98991 .40329 2.0477 .29856 q 1.05779 -.10473 2.08662 -.69774 q 1.19128 -.68664 1.65605 -1.8202 q .49185 -1.14917 .53303 -2.57961 q .0839 -1.41897 -.11226 -3.07334 q -.16903 -1.66997 -.33073 -3.45238 q -.1617 -1.7824 -.11414 -3.57722 q .0746 -1.81043 .60315 -3.52176 q .57119 -1.69987 1.76698 -3.25479 q 1.19579 -1.55491 3.38882 -2.81896 q 2.51793 -1.45131 4.94374 -1.62317 q 2.46848 -.16038 4.61903 .69208 q 2.19323 .86394 4.04879 2.6439 q 1.87115 1.80703 3.26005 4.21666 q .71785 1.24543 1.24619 2.60009 q .52833 1.35467 .82766 2.62492 q .29933 1.27025 .37698 2.34364 q .0777 1.07339 -.037 1.50019 q -.11469 .4268 -.2574 .61727 q -.1271 .21753 -.42078 .45895 q -.251 .25288 -.72274 .56086 q -.44466 .29237 -1.1486 .69811 q -.78516 .45256 -1.35786 .71052 q -.5571 .28504 -.97149 .37961 q -.39878 .12165 -.67047 .0258 q -.25608 -.0688 -.42774 -.36663 q -.17166 -.29782 -.16715 -1.16608 q .005 -.86827 -.10849 -2.06557 q -.0859 -1.2129 -.45182 -2.6612 q -.33881 -1.4639 -1.19711 -2.953 q -.67104 -1.16421 -1.46824 -1.85893 q -.77012 -.71033 -1.62786 -1.00946 q -.81506 -.28767 -1.69066 -.17974 q -.85999 .135 -1.64515 .58756 q -1.16421 .67104 -1.67166 1.79313 q -.46478 1.13356 -.53302 2.5796 q -.0256 1.45752 .15907 3.15457 q .21171 1.68144 .37341 3.46385 q .1617 1.7824 .10267 3.6199 q -.032 1.82189 -.58755 3.54884 q -.52851 1.71134 -1.7243 3.26625 q -1.16871 1.5393 -3.28052 2.75654 z" fill="#d22c12" stroke-width=".75"/><path d="m -866.17131 978.93436 q -4.04161 2.99648 -7.97417 4.35604 q -3.93257 1.35955 -7.63707 1.03284 q -3.6794 -.34532 -7.03682 -2.40764 q -3.31369 -2.05583 -6.16128 -5.89662 q -2.81036 -3.79057 -3.93446 -7.35308 q -1.08038 -3.55602 -.4429 -6.94631 q .63749 -3.39028 3.06814 -6.67066 q 2.44926 -3.25527 6.7419 -6.43786 q 3.94119 -2.92204 7.82356 -4.24437 q 3.90746 -1.34094 7.58686 -.99562 q 3.6794 .34532 7.0182 2.38254 q 3.35741 2.06232 6.22361 5.92821 q 2.73591 3.69016 3.8414 7.22757 q 1.12409 3.56251 .48661 6.95279 q -.61887 3.41539 -3.02442 6.67716 q -2.36183 3.26825 -6.57916 6.39501 z m -5.48826 -6.6679 q 2.56052 -1.89839 4.34629 -3.84481 q 1.81088 -1.96503 2.56611 -4.04214 q .79895 -2.07062 .4111 -4.2728 q -.36274 -2.22079 -2.14946 -4.63069 q -1.80533 -2.43501 -3.9439 -3.37808 q -2.11348 -.96168 -4.38923 -.8305 q -2.27576 .13119 -4.65062 1.23059 q -2.33114 1.10589 -4.61553 2.79955 q -2.66094 1.97284 -4.49692 3.95648 q -1.81088 1.96503 -2.60982 4.03565 q -.79895 2.07062 -.4111 4.2728 q .41295 2.18356 2.21828 4.61857 q 1.80533 2.435 3.9188 3.39669 q 2.11347 .96168 4.41434 .81189 q 2.30086 -.1498 4.6571 -1.27431 q 2.39996 -1.11801 4.73456 -2.84889 z" fill="#d22c12" stroke-width=".75"/><path d="m -851.61949 1016.5617 q -.57704 .5266 -1.03464 .8597 q -.41345 .335 -.77672 .5396 q -.34017 .1836 -.65324 .2578 q -.31307 .074 -.82178 .073 q -.48563 -.022 -1.57523 -.3816 q -1.06854 -.3363 -2.42999 -1.04 q -1.3173 -.7016 -2.81412 -1.8316 q -1.47576 -1.1071 -2.90829 -2.6766 q -2.80185 -3.0699 -4.10962 -6.4033 q -1.30778 -3.3335 -1.01816 -6.77101 q .31271 -3.45858 2.28601 -6.95197 q 1.97329 -3.49338 5.71252 -6.90617 q 3.80847 -3.47598 7.68985 -5.15691 q 3.88138 -1.68092 7.55374 -1.69026 q 3.67237 -.009 7.02836 1.58164 q 3.37706 1.61407 6.17892 4.68393 q 1.13759 1.24641 1.98318 2.59009 q .8456 1.34368 1.38417 2.62911 q .58272 1.28744 .86043 2.47248 q .27771 1.18504 .22843 1.78004 q -.005 .59701 -.10753 .90201 q -.1024 .30501 -.36234 .66919 q -.25995 .36417 -.67743 .78752 q -.39642 .44643 -1.04271 1.03629 q -.69245 .632 -1.21929 1.02823 q -.52685 .39624 -.93225 .55469 q -.40539 .15846 -.69135 .12329 q -.28595 -.0352 -.47555 -.24291 q -.316 -.34622 -.40814 -1.23523 q -.0691 -.91008 -.36381 -2.2065 q -.2506 -1.2944 -.93261 -2.8297 q -.63786 -1.53328 -2.11251 -3.14899 q -1.62213 -1.77729 -3.6458 -2.51114 q -1.97953 -.73184 -4.24721 -.48142 q -2.22353 .25243 -4.60277 1.49316 q -2.37924 1.24073 -4.77973 3.43165 q -2.63131 2.40159 -4.08564 4.70206 q -1.41018 2.30248 -1.75072 4.43263 q -.31948 2.1531 .34237 4.1299 q .706 1.9788 2.32813 3.7561 q 1.47466 1.6157 2.91836 2.4558 q 1.46678 .819 2.68681 1.2287 q 1.2411 .4326 2.09494 .6265 q .8749 .2169 1.14876 .5169 q .21067 .2308 .24474 .4536 q .0341 .2227 -.15864 .5679 q -.19271 .3451 -.65837 .8547 q -.44259 .4886 -1.27353 1.247 z" fill="#d22c12" stroke-width=".75"/><path d="m -841.72322 1033.067 q -.21779 .2241 -.54889 .2509 q -.3087 .049 -.75376 -.166 q -.44505 -.2146 -1.07066 -.6918 q -.6256 -.4773 -1.49962 -1.3267 q -.85161 -.8276 -1.36896 -1.461 q -.49493 -.6117 -.7222 -1.0505 q -.22726 -.4387 -.20991 -.7705 q .0398 -.3099 .25756 -.534 l 26.6138 -27.38598 q .21779 -.2241 .52649 -.27272 q .3311 -.0268 .77616 .1878 q .46747 .2364 1.09307 .7136 q .62561 .4773 1.47722 1.3049 q .87402 .8494 1.36895 1.4611 q .49493 .6117 .7222 1.0504 q .22727 .4387 .1875 .7487 q -.0174 .3317 -.23515 .5559 z" fill="#d22c12" stroke-width=".75"/><path d="m -805.67636 1062.7347 q -.45625 1.0945 -.81664 1.6509 q -.3604 .5564 -.84539 .5898 q -.46446 .01 -1.16525 -.5178 q -.72133 -.5041 -1.87588 -1.51 q -1.20167 -1.0469 -1.84392 -1.6893 q -.63921 -.5984 -.91053 -1.0005 q -.2508 -.4258 -.22795 -.7374 q .0229 -.3117 .19546 -.7001 l 3.28728 -7.9121 l -11.45122 -9.9764 l -7.1256 4.2779 q -.38164 .2478 -.75185 .3397 q -.32612 .089 -.80272 -.078 q -.43251 -.1696 -1.10975 -.6767 q -.65367 -.4866 -1.66684 -1.3693 q -1.08387 -.9443 -1.6349 -1.5487 q -.55103 -.6044 -.56085 -1.0689 q .0107 -.488 .51248 -.9212 q .50176 -.4332 1.50298 -1.0116 l 32.96709 -18.8588 q .49034 -.2774 .88411 -.3488 q .41431 -.095 .9175 .1362 q .54729 .2281 1.29824 .8409 q .77149 .5892 1.97316 1.6361 q 1.39017 1.2112 2.17379 1.9768 q .80415 .742 1.12866 1.2734 q .36861 .5284 .3313 .9518 q -.0137 .4439 -.26239 1.0147 z m 5.48482 -34.554 l -.0236 -.02 l -15.6021 9.2026 l 8.64732 7.5337 z" fill="#d22c12" stroke-width=".75"/><path d="m -779.82695 1082.4761 q -.57792 .7382 -1.05628 1.1972 q -.43449 .4536 -.82722 .7017 q -.37346 .2236 -.68589 .2171 q -.28783 .013 -.53389 -.1798 l -14.59143 -11.4236 q -.812 -.6357 -1.01193 -1.5463 q -.15605 -.9159 .69156 -1.9986 l 22.63519 -28.9122 q .19264 -.246 .49439 -.3273 q .32636 -.062 .79177 .1039 q .46541 .166 1.13835 .5737 q .69756 .4271 1.63259 1.1591 q .95964 .7513 1.517 1.3067 q .55736 .5554 .83013 .9674 q .27277 .412 .2663 .7245 q .0181 .3317 -.17451 .5777 l -20.05382 25.615 l 10.01469 7.8404 q .24607 .1927 .30272 .4752 q .10053 .2771 -.0269 .6933 q -.10814 .3916 -.46347 .9468 q -.31146 .55 -.88938 1.2881 z" fill="#d22c12" stroke-width=".75"/></g><text style="font-size:64;font-family:Calibri;letter-spacing:0;word-spacing:0;fill:#d22c12;stroke-width:.75" x="369.75897" y="643.75659"><tspan style="font-weight:bold;font-size:64;font-family:Calibri;letter-spacing:4.8;text-anchor:middle;fill:#d22c12;stroke-width:.75" x="372.15897" y="643.75659">Y</tspan></text></g></svg>