<?xml version="1.0" encoding="UTF-8" standalone="no"?>
<svg
   xmlns:dc="http://purl.org/dc/elements/1.1/"
   xmlns:cc="http://creativecommons.org/ns#"
   xmlns:rdf="http://www.w3.org/1999/02/22-rdf-syntax-ns#"
   xmlns:svg="http://www.w3.org/2000/svg"
   xmlns="http://www.w3.org/2000/svg"
   xmlns:sodipodi="http://sodipodi.sourceforge.net/DTD/sodipodi-0.dtd"
   xmlns:inkscape="http://www.inkscape.org/namespaces/inkscape"
   width="1000"
   height="1000"
   viewBox="0 0 749.99998 749.99996"
   version="1.1"
   id="svg16"
   sodipodi:docname="Club Social y Deportivo Yupanqui.svg"
   inkscape:version="1.0.1 (3bc2e813f5, 2020-09-07)">
  <metadata
     id="metadata20">
    <rdf:RDF>
      <cc:Work
         rdf:about="">
        <dc:format>image/svg+xml</dc:format>
        <dc:type
           rdf:resource="http://purl.org/dc/dcmitype/StillImage" />
        <dc:title />
      </cc:Work>
    </rdf:RDF>
  </metadata>
  <sodipodi:namedview
     pagecolor="#ffffff"
     bordercolor="#666666"
     borderopacity="1"
     objecttolerance="10"
     gridtolerance="10"
     guidetolerance="10"
     inkscape:pageopacity="0"
     inkscape:pageshadow="2"
     inkscape:window-width="1920"
     inkscape:window-height="1017"
     id="namedview18"
     showgrid="false"
     inkscape:zoom="0.863"
     inkscape:cx="500"
     inkscape:cy="500"
     inkscape:window-x="-8"
     inkscape:window-y="-8"
     inkscape:window-maximized="1"
     inkscape:current-layer="svg16"
     units="px"
     inkscape:document-rotation="0" />
  <defs
     id="defs5">
    <inkscape:perspective
       sodipodi:type="inkscape:persp3d"
       inkscape:vp_x="0 : 456.14998 : 1"
       inkscape:vp_y="0 : 999.99999 : 0"
       inkscape:vp_z="581.49997 : 456.14998 : 1"
       inkscape:persp3d-origin="290.74998 : 358.19998 : 1"
       id="perspective915" />
    <clipPath
       id="clip1">
      <path
         d="M 21,0 H 561 V 587.69922 H 21 Z m 0,0"
         id="path2" />
    </clipPath>
    <clipPath
       id="clip1-2">
      <path
         d="M 21,0 H 561 V 587.69922 H 21 Z m 0,0"
         id="path2-9" />
    </clipPath>
  </defs>
  <g
     id="g1031"
     transform="translate(4.9557006)">
    <g
       id="g1122"
       transform="matrix(1.3513113,0,0,1.3513113,892.88608,185.97343)">
      <g
         id="g1115">
        <path
           style="clip-rule:nonzero;fill:#d22c12;fill-opacity:1;fill-rule:evenodd;stroke:none;stroke-width:0.953025"
           d="m -119.42332,-97.959378 c -115.80954,9.38231 -214.13979,27.27393 -272.86894,-25.789632 -58.7291,53.063562 -146.5245,39.433063 -262.3341,30.050753 -25.5806,234.690667 64.6396,415.688497 264.7589,497.214867 200.11923,-81.52637 295.912743,-266.78532 270.44414,-501.475988 z"
           id="path7-5"
           sodipodi:nodetypes="ccccc" />
        <path
           style="clip-rule:nonzero;fill:#ffffff;fill-opacity:1;fill-rule:evenodd;stroke:none;stroke-width:0.908262"
           d="m -131.99758,-86.787899 c -110.36997,8.941623 -204.08165,25.992876 -260.0523,-24.578301 -55.9706,50.571177 -139.64226,37.580901 -250.0123,28.639277 -24.37908,223.667263 61.60349,396.163653 252.32321,473.860723 190.71965,-77.69707 282.01375,-254.25444 257.74139,-477.921699 z"
           id="path7-5-3"
           sodipodi:nodetypes="ccccc" />
        <path
           style="clip-rule:nonzero;fill:#70cce3;fill-opacity:1;fill-rule:evenodd;stroke:none;stroke-width:0.854041"
           d="m -147.22949,-73.255262 c -103.78071,8.407796 -191.89766,24.441054 -244.52679,-23.110938 -52.62905,47.551992 -131.30539,35.337262 -235.08618,26.929466 -22.9236,210.313994 57.92568,372.512074 237.25914,445.570534 179.3334,-73.05846 265.1771,-239.07508 242.35383,-449.389062 z"
           id="path7-5-3-2"
           sodipodi:nodetypes="ccccc" />
      </g>
      <path
         id="rect917"
         style="opacity:0.998;fill:#d22c12;fill-opacity:1;stroke-width:0"
         d="m -499.60127,1.9020975 -6.5581,6.70019 -23.60449,24.1215905 -6.55811,6.7002 10.72119,10.491229 6.55665,-6.700199 115.7871,113.310072 V 262.8655 h -9.375 v 15 h 52.5 v -15 h -9.375 V 156.55735 l 114.2871,-111.842243 6.55665,6.7002 10.72119,-10.49123 -6.55665,-6.700199 -23.60595,-24.121591 -6.55664,-6.7001895 -10.7212,10.4912095 6.55665,6.700201 -107.54004,105.240242 -109.07226,-106.740242 6.55664,-6.700201 z" />
    </g>
    <g
       aria-label="YUPANQUI"
       transform="translate(729.16232,-391.69877)"
       id="text852"
       style="font-size:64px;line-height:1.25;font-family:Calibri;-inkscape-font-specification:Calibri;letter-spacing:10.5525px;word-spacing:0px;fill:#d22c12;fill-opacity:1;stroke-width:0.75">
      <path
         d="m -546.77344,580.66748 -0.29145,-0.65701 q 1.59022,-0.80798 2.45385,-1.63551 0.86363,-0.82754 1.29598,-2.01075 0.48004,-1.30692 0.17335,-2.84602 -0.30669,-1.5391 -1.61188,-4.48135 l -2.44242,-5.58295 q -0.53221,-1.19975 -1.66408,-2.44118 -1.29038,-1.4446 -4.10353,-3.2393 l -12.32777,-7.83003 -2.20103,-1.41669 q -2.4199,-1.52472 -4.17442,-1.70364 -0.90421,-0.11169 -1.69438,0.0337 -0.79017,0.1454 -2.10096,0.65849 l -0.29145,-0.65701 18.62473,-8.26195 0.29145,0.65701 q -2.30758,1.19458 -2.83787,1.77168 -1.29555,1.39519 -0.49723,3.19482 0.29145,0.65701 1.00172,1.33335 0.73883,0.66367 2.09622,1.56574 l 13.11407,8.67776 2.04004,-13.28057 0.22317,-1.50065 q 0.32196,-2.12565 -0.38765,-3.72532 -0.81099,-1.8282 -2.42569,-2.30845 -1.6147,-0.48025 -3.72855,0.45745 l -0.29145,-0.65701 13.14015,-5.82898 0.29145,0.65701 q -1.40938,0.83032 -2.05715,1.52791 -0.66045,0.66903 -1.15938,1.77921 -1.13147,2.68988 -1.8931,7.36945 l -2.10319,12.82996 q -0.38554,2.2906 -0.27515,3.23305 0.11039,0.94245 0.98473,2.91347 l 3.10457,6.99856 q 1.35588,3.05651 2.2371,4.27237 0.89712,1.17463 2.22939,1.7118 2.30606,0.95986 5.21974,-0.33266 l 0.29145,0.65701 z"
         style="font-style:normal;font-variant:normal;font-weight:normal;font-stretch:normal;font-size:64px;font-family:'Baskerville Old Face';-inkscape-font-specification:'Baskerville Old Face';text-align:center;letter-spacing:10.5525px;text-anchor:middle;fill:#d22c12;fill-opacity:1;stroke-width:0.75"
         id="path935" />
      <path
         d="m -504.41179,516.72795 0.24854,0.67441 q -1.63894,0.70392 -2.55406,1.47414 -0.91511,0.77021 -1.39343,1.91232 -0.60022,1.35356 -0.38245,2.93853 0.24709,1.57417 1.56545,5.15147 l 6.11632,16.59633 q 1.49126,4.04646 2.45446,5.75637 0.98173,1.66978 2.48196,2.84874 2.26115,1.79775 4.70273,2.09691 2.46009,0.25903 5.59756,-0.89724 3.0495,-1.12384 5.47079,-3.04861 2.4398,-1.9649 3.68195,-4.28774 0.76535,-1.44771 0.85009,-2.84443 0.11406,-1.40753 -0.39079,-3.31966 -0.32577,-1.24543 -1.97912,-5.73172 l -6.04068,-16.39108 q -1.11304,-3.02018 -1.99441,-4.32729 -0.85205,-1.31792 -2.10684,-1.92123 -1.1344,-0.54777 -2.33048,-0.53993 -1.16675,-0.003 -2.87053,0.52501 l -0.24855,-0.67441 13.51751,-4.98166 0.24855,0.6744 q -1.63895,0.70393 -2.55406,1.47414 -0.8858,0.7594 -1.39344,1.91232 -0.56319,1.2733 -0.37474,2.86908 0.20696,1.55566 1.3092,4.54652 l 6.81872,18.50227 q 1.51287,4.1051 1.5918,6.30742 0.0974,2.16219 -1.18483,4.46651 -2.91944,5.27229 -10.86574,8.20078 -8.29817,3.05816 -13.51328,1.01686 -3.3723,-1.28834 -5.21075,-4.74058 -0.6514,-1.22534 -1.89412,-4.59738 l -6.55938,-17.79854 q -1.11304,-3.02019 -1.96509,-4.3381 -0.85204,-1.31792 -2.13615,-1.91043 -1.10508,-0.55857 -2.30116,-0.55074 -1.16675,-0.003 -2.89986,0.53583 l -0.24854,-0.67441 z"
         style="font-style:normal;font-variant:normal;font-weight:normal;font-stretch:normal;font-size:64px;font-family:'Baskerville Old Face';-inkscape-font-specification:'Baskerville Old Face';text-align:center;letter-spacing:10.5525px;text-anchor:middle;fill:#d22c12;fill-opacity:1;stroke-width:0.75"
         id="path937" />
      <path
         d="m -444.46294,520.30538 2.61363,10.91005 q 0.74259,3.09979 1.44089,4.53922 0.72142,1.40175 1.89648,2.14854 1.02438,0.65436 2.18996,0.82501 1.18869,0.13298 2.97316,-0.1981 l 0.16745,0.69897 -19.41929,4.65211 -0.16745,-0.69897 q 1.74079,-0.51343 2.7098,-1.16331 0.99212,-0.68756 1.6088,-1.73505 0.73952,-1.20545 0.71707,-2.77465 -0.0224,-1.5692 -0.77231,-4.69938 l -5.36558,-22.39752 q -0.62611,-2.61356 -1.20412,-3.95326 -0.55491,-1.37737 -1.31306,-2.12764 -1.08136,-1.02632 -2.43529,-1.31252 -1.36121,-0.31659 -3.3353,0.0278 l -0.21273,0.051 -0.16744,-0.69897 18.32524,-4.39002 q 4.80164,-1.15029 7.19739,-1.21007 2.39574,-0.0598 4.62938,0.94757 5.10167,2.24833 6.41213,7.71855 1.33229,5.56139 -2.42506,9.19292 -1.95893,1.88318 -5.14515,2.93569 -1.01142,0.3387 -4.96214,1.28514 z m -0.23297,-0.97249 2.97823,-0.71347 q 3.00862,-0.72075 4.51737,-1.53206 1.53187,-0.84899 2.52432,-2.33998 2.33029,-3.41819 1.2528,-7.91593 -0.59698,-2.49199 -1.97336,-4.34739 -1.35326,-1.89307 -3.27699,-2.81399 -2.22509,-1.1058 -4.84339,-0.76776 -0.71353,0.10666 -3.20552,0.70365 l -2.55277,0.61154 z"
         style="font-style:normal;font-variant:normal;font-weight:normal;font-stretch:normal;font-size:64px;font-family:'Baskerville Old Face';-inkscape-font-specification:'Baskerville Old Face';text-align:center;letter-spacing:10.5525px;text-anchor:middle;fill:#d22c12;fill-opacity:1;stroke-width:0.75"
         id="path939" />
      <path
         d="m -362.71821,530.77177 -20.49371,1.241 -0.0435,-0.71744 q 2.76106,-0.41765 3.81125,-1.17 1.86029,-1.33364 1.72996,-3.48594 -0.0774,-1.27891 -1.08118,-3.37833 l -0.60961,-1.27799 -3.44029,-7.18018 -13.72486,0.83111 -1.36136,4.40283 -0.66271,1.98118 q -1.19591,3.51622 -1.07691,5.48137 0.0699,1.15413 0.62942,2.12208 0.59073,0.96606 1.5019,1.53703 1.26752,0.76854 3.17973,0.80929 l 0.0435,0.71743 -13.9744,0.84622 -0.0435,-0.71744 q 1.64756,-0.19369 2.85183,-0.98668 1.20427,-0.79299 2.29326,-2.4556 0.92073,-1.33935 1.73563,-3.39236 0.8442,-2.08609 2.16018,-6.20442 l 9.63537,-30.1062 1.77799,-0.10766 15.55411,31.96203 q 1.75323,3.6194 2.75415,5.15546 1.00093,1.53605 2.1106,2.28285 0.78263,0.51613 1.76849,0.76951 0.98398,0.22218 2.93116,0.32342 z m -20.70356,-17.21757 -7.52894,-15.76123 -5.19775,16.5319 z"
         style="font-style:normal;font-variant:normal;font-weight:normal;font-stretch:normal;font-size:64px;font-family:'Baskerville Old Face';-inkscape-font-specification:'Baskerville Old Face';text-align:center;letter-spacing:10.5525px;text-anchor:middle;fill:#d22c12;fill-opacity:1;stroke-width:0.75"
         id="path941" />
      <path
         d="m -338.31014,495.94302 -3.75183,26.92738 q -0.44418,3.18796 -0.31503,4.752 0.1601,1.56834 0.98158,2.69246 0.74157,1.01833 1.7688,1.57163 1.05817,0.55761 2.80944,0.89627 l -0.0992,0.71188 -14.26841,-1.98804 0.0992,-0.71188 q 1.77715,0.15296 2.9165,-0.0985 1.17029,-0.24711 2.16198,-1.02394 1.09748,-0.85675 1.64925,-2.32591 0.58704,-1.4958 1.02691,-4.65281 l 3.18259,-22.84184 q 0.43555,-3.12606 0.27545,-4.69441 -0.12484,-1.59498 -0.94632,-2.7191 -0.71062,-1.01402 -1.76879,-1.57163 -1.02722,-0.5533 -2.80945,-0.89627 l 0.0992,-0.71188 11.91614,1.6603 20.66453,35.56696 3.11359,-22.34664 q 0.44418,-3.18795 0.28408,-4.7563 -0.12916,-1.56404 -0.95064,-2.68815 -0.74157,-1.01833 -1.79974,-1.57594 -1.02722,-0.5533 -2.77849,-0.89197 l 0.0992,-0.71187 14.26842,1.98804 -0.0992,0.71187 q -3.0951,-0.43124 -5.07848,1.12242 -1.09748,0.85675 -1.68451,2.35255 -0.55177,1.46916 -0.98733,4.59521 l -4.5367,32.56047 -1.39279,-0.19406 z"
         style="font-style:normal;font-variant:normal;font-weight:normal;font-stretch:normal;font-size:64px;font-family:'Baskerville Old Face';-inkscape-font-specification:'Baskerville Old Face';text-align:center;letter-spacing:10.5525px;text-anchor:middle;fill:#d22c12;fill-opacity:1;stroke-width:0.75"
         id="path943" />
      <path
         d="m -263.07857,549.65865 q 1.44626,1.6486 3.45922,2.90668 2.0344,1.29673 4.25781,1.93244 1.89289,0.54122 3.70433,0.57161 1.83289,0.069 3.06923,-0.39004 1.09037,-0.40329 1.85028,-1.12858 0.79855,-0.74675 1.66592,-2.18887 l 0.46355,0.19755 q -0.74731,2.15899 -1.80781,3.48088 -1.03905,1.36054 -2.79488,2.38612 -4.64072,2.7034 -11.40107,0.77049 -3.93603,-1.12539 -6.20636,-3.30212 -2.03428,-1.97924 -3.8063,-6.12614 l -0.12014,-0.26187 q -2.64405,-0.75598 -5.25788,-2.41339 -2.59237,-1.61877 -4.65666,-3.8341 -4.08565,-4.35339 -5.45391,-9.91246 -1.33821,-5.55048 0.26825,-11.16908 1.43465,-5.01768 4.82644,-8.69572 3.40037,-3.7081 8.46593,-5.7375 3.71331,-1.50597 7.67964,-1.73701 3.97492,-0.26109 7.61049,0.77838 4.26653,1.21989 7.80302,4.08366 2.67811,2.22833 4.66927,5.26781 2.02978,3.01802 3.04647,6.39643 1.80173,5.97552 0.10076,11.92463 -1.09102,3.81584 -3.49543,6.99614 -2.36577,3.15885 -5.80021,5.3946 -2.83771,1.85383 -5.65806,2.73755 -2.82035,0.88373 -6.4819,1.07191 z m -15.27088,-10.02163 q 2.37376,-0.004 4.53707,0.61469 2.67409,0.76457 4.83719,2.52062 0.92275,0.75137 1.82827,1.79033 0.90553,1.03896 2.8839,3.55475 l 0.21028,0.28764 q 2.25367,-0.49322 4.06959,-1.50162 1.84598,-0.9998 3.85094,-2.89672 4.90721,-4.54484 7.01194,-11.90611 1.37451,-4.80736 1.29814,-9.54202 -0.0463,-4.72607 -1.56947,-8.37929 -1.2271,-2.98354 -3.27428,-4.80395 -2.01714,-1.81183 -5.17197,-2.71385 -3.18488,-0.91062 -5.88496,-0.44754 -2.66145,0.44163 -5.28883,2.35559 -3.19407,2.30448 -5.76175,6.28316 -2.52904,3.95722 -3.90356,8.76458 -1.27142,4.44681 -1.19488,8.27145 0.0851,3.79461 1.52238,7.74829 z m 7.15414,7.8309 -0.1416,-0.3005 q -1.3816,-3.12521 -2.56176,-4.56772 -1.18017,-1.44251 -2.71252,-1.88064 -0.57087,-0.16322 -1.33066,-0.12044 1.26578,2.73457 2.77645,4.27158 1.54072,1.5456 3.97009,2.59772 z"
         style="font-style:normal;font-variant:normal;font-weight:normal;font-stretch:normal;font-size:64px;font-family:'Baskerville Old Face';-inkscape-font-specification:'Baskerville Old Face';text-align:center;letter-spacing:10.5525px;text-anchor:middle;fill:#d22c12;fill-opacity:1;stroke-width:0.75"
         id="path945" />
      <path
         d="m -200.35385,525.65985 -0.24622,0.67526 q -1.70559,-0.52212 -2.90169,-0.52584 -1.19609,-0.004 -2.29924,0.55866 -1.33283,0.64494 -2.19104,1.99515 -0.82885,1.3609 -2.13488,4.94272 l -6.05914,16.6173 q -1.47731,4.05157 -1.84744,5.97889 -0.33007,1.90867 0.0528,3.77791 0.56353,2.83322 2.23328,4.63952 1.70982,1.78764 4.85126,2.93309 3.05335,1.11334 6.14497,1.20949 3.13169,0.0775 5.58081,-0.89219 1.51969,-0.61007 2.48707,-1.6211 0.99674,-1.00033 1.84732,-2.78572 0.55635,-1.16091 2.19424,-5.65286 l 5.9842,-16.41179 q 1.10263,-3.02399 1.27488,-4.59105 0.2016,-1.55636 -0.36597,-2.82772 -0.51161,-1.15116 -1.42937,-1.91821 -0.8884,-0.75635 -2.52976,-1.45463 l 0.24622,-0.67526 13.53458,4.93509 -0.24622,0.67526 q -1.70559,-0.52212 -2.90169,-0.52583 -1.16674,0.007 -2.29924,0.55866 -1.2527,0.60763 -2.14027,1.94713 -0.84751,1.32084 -1.93944,4.31548 l -6.75497,18.52564 q -1.49872,4.11028 -2.86187,5.84184 -1.32309,1.71289 -3.79086,2.64252 -5.63529,2.1363 -13.59163,-0.76481 -8.30865,-3.02957 -10.96886,-7.9578 -1.74066,-3.16265 -0.91232,-6.98518 0.29487,-1.35603 1.52597,-4.73234 l 6.49804,-17.82102 q 1.10264,-3.024 1.30424,-4.58036 0.2016,-1.55635 -0.39532,-2.83841 -0.48225,-1.14046 -1.40001,-1.90751 -0.88841,-0.75636 -2.55913,-1.46533 l 0.24622,-0.67526 z"
         style="font-style:normal;font-variant:normal;font-weight:normal;font-stretch:normal;font-size:64px;font-family:'Baskerville Old Face';-inkscape-font-specification:'Baskerville Old Face';text-align:center;letter-spacing:10.5525px;text-anchor:middle;fill:#d22c12;fill-opacity:1;stroke-width:0.75"
         id="path947" />
      <path
         d="m -144.00412,547.29055 -0.2648,0.66819 q -1.69049,-0.5691 -2.88603,-0.60591 -1.16649,-0.0253 -2.31382,0.49482 -1.59356,0.71305 -2.67248,2.6721 -0.78452,1.47067 -1.57894,3.47524 l -8.48538,21.41113 q -0.95562,2.4113 -1.27585,3.89789 -0.32023,1.48659 -0.13118,2.53633 0.29481,1.46142 1.25566,2.51451 0.97237,1.02403 2.90183,1.92315 l -0.26481,0.66819 -18.56406,-7.35707 0.26481,-0.66819 q 1.71954,0.58062 2.88602,0.60592 1.20705,0.008 2.31383,-0.49483 1.29808,-0.56123 2.18181,-1.85811 0.88372,-1.29689 2.0696,-4.28922 l 8.48538,-21.41114 q 1.18589,-2.99233 1.43047,-4.54251 0.24459,-1.55019 -0.31664,-2.84827 -0.4505,-1.15336 -1.34669,-1.94552 -0.89619,-0.79215 -2.5176,-1.53557 l 0.26481,-0.66819 z"
         style="font-style:normal;font-variant:normal;font-weight:normal;font-stretch:normal;font-size:64px;font-family:'Baskerville Old Face';-inkscape-font-specification:'Baskerville Old Face';text-align:center;letter-spacing:10.5525px;text-anchor:middle;fill:#d22c12;fill-opacity:1;stroke-width:0.75"
         id="path949" />
    </g>
    <g
       aria-label="DEPORTIVO"
       transform="translate(1226.8141,145.16209)"
       id="text852-2"
       style="font-size:64px;line-height:1.25;font-family:Calibri;-inkscape-font-specification:Calibri;letter-spacing:0px;word-spacing:0px;fill:#d22c12;fill-opacity:1;stroke-width:0.75">
      <path
         d="m -716.51995,409.19516 q 3.95687,3.90956 5.74773,7.74375 1.79059,3.79 1.6581,7.48108 -0.13248,3.69107 -2.03323,7.30439 -1.90102,3.56913 -5.67879,7.39262 l -6.78681,6.86894 q -0.72481,0.73358 -1.65234,0.82754 -0.92779,0.0498 -1.90589,-0.91663 l -25.07497,-24.77516 q -0.9781,-0.96641 -0.91726,-1.87277 0.0606,-0.95056 0.78538,-1.68413 l 7.29198,-7.38022 q 3.79974,-3.84572 7.34681,-5.61275 3.5468,-1.81123 7.1262,-1.87695 3.57913,-0.10992 7.12443,1.50397 3.54531,1.6139 6.96866,4.99632 z m -5.77408,6.24412 q -2.04512,-2.02067 -4.28446,-3.26676 -2.21738,-1.26832 -4.56096,-1.4752 -2.32161,-0.22911 -4.68024,0.73527 -2.3589,0.92018 -5.01652,3.60996 l -2.92119,2.95654 19.56203,19.32814 3.00904,-3.04545 q 2.37209,-2.4008 3.37499,-4.66077 1.00289,-2.25998 0.83426,-4.5792 -0.1689,-2.36342 -1.50905,-4.74189 -1.31819,-2.40069 -3.8079,-4.86064 z"
         style="font-style:normal;font-variant:normal;font-weight:bold;font-stretch:normal;font-size:64px;font-family:Calibri;-inkscape-font-specification:'Calibri Bold';text-align:center;letter-spacing:4.8px;text-anchor:middle;fill:#d22c12;fill-opacity:1;stroke-width:0.75"
         id="path953" />
      <path
         d="m -680.04904,395.50431 q 0.66926,0.61105 1.06761,1.10169 0.39634,0.4465 0.56792,0.81474 0.17158,0.36824 0.14148,0.67928 -0.0321,0.2669 -0.22174,0.4746 l -13.69589,15.00067 q -0.69533,0.76157 -1.61844,0.89203 -0.92511,0.0863 -1.94054,-0.84081 l -26.03193,-23.76765 q -1.01543,-0.9271 -0.99036,-1.83516 0.0231,-0.95221 0.7184,-1.71378 l 13.61161,-14.90835 q 0.18964,-0.20771 0.45252,-0.2639 0.26289,-0.0562 0.66825,0.10234 0.38229,0.13745 0.88599,0.51271 0.50169,0.33111 1.19403,0.96323 0.64618,0.58997 1.04453,1.08062 0.39634,0.4465 0.56792,0.81473 0.17159,0.36824 0.16256,0.65621 -0.0321,0.2669 -0.22174,0.4746 l -9.73462,10.66202 7.29263,6.65831 8.23861,-9.02348 q 0.18963,-0.2077 0.4756,-0.24282 0.28395,-0.0793 0.66624,0.0582 0.35921,0.11639 0.86291,0.49165 0.50169,0.3311 1.14788,0.92108 0.66926,0.61105 1.04453,1.08062 0.39634,0.4465 0.56792,0.81474 0.1485,0.34716 0.0953,0.63714 -0.0321,0.2669 -0.22174,0.4746 l -8.23861,9.02348 8.42345,7.69077 9.81891,-10.75432 q 0.18963,-0.2077 0.47559,-0.24283 0.28396,-0.0793 0.66625,0.0582 0.38228,0.13746 0.88599,0.51272 0.50169,0.3311 1.17095,0.94215 z"
         style="font-style:normal;font-variant:normal;font-weight:bold;font-stretch:normal;font-size:64px;font-family:Calibri;-inkscape-font-specification:'Calibri Bold';text-align:center;letter-spacing:4.8px;text-anchor:middle;fill:#d22c12;fill-opacity:1;stroke-width:0.75"
         id="path955" />
      <path
         d="m -673.50685,349.31237 q 2.61034,2.18831 3.93938,4.68894 1.32905,2.50063 1.41308,5.22168 0.0601,2.70096 -1.12871,5.57831 -1.16872,2.85341 -3.73847,5.91876 l -2.16823,2.58639 9.89055,8.29146 q 0.23948,0.20076 0.29053,0.52901 0.0711,0.3043 -0.11027,0.7639 -0.18141,0.4596 -0.61147,1.11853 -0.43006,0.65893 -1.21303,1.5929 -0.76289,0.91003 -1.35672,1.47245 -0.57375,0.53847 -0.99463,0.79731 -0.42088,0.25884 -0.73293,0.24192 -0.31204,-0.0169 -0.55152,-0.21768 l -27.87553,-23.36868 q -1.12556,-0.94359 -1.19454,-1.98009 -0.0728,-1.08053 0.7302,-2.03845 l 6.12324,-7.30416 q 0.92351,-1.10161 1.84242,-2.00317 0.91505,-0.94559 2.36684,-2.09367 1.42785,-1.16815 3.35473,-1.95872 1.94696,-0.81452 3.93967,-0.85668 1.96876,-0.0622 3.94311,0.69578 1.9504,0.73794 3.8423,2.32396 z m -5.06594,6.96716 q -1.62847,-1.36518 -3.16401,-1.67378 -1.53554,-0.30859 -2.74112,0.10799 -1.20557,0.41658 -2.10829,1.25017 -0.90658,0.78957 -1.7297,1.77144 l -2.24854,2.68218 10.5132,8.81345 2.36899,-2.82587 q 1.2648,-1.50873 1.70088,-2.85584 0.45616,-1.37106 0.27978,-2.61995 -0.20034,-1.26896 -0.92509,-2.44743 -0.7487,-1.19855 -1.9461,-2.20236 z"
         style="font-style:normal;font-variant:normal;font-weight:bold;font-stretch:normal;font-size:64px;font-family:Calibri;-inkscape-font-specification:'Calibri Bold';text-align:center;letter-spacing:4.8px;text-anchor:middle;fill:#d22c12;fill-opacity:1;stroke-width:0.75"
         id="path957" />
      <path
         d="m -639.78594,317.16686 q 4.03624,3.0037 6.47385,6.37588 2.43761,3.37217 3.19496,7.01312 0.73228,3.62229 -0.27226,7.43232 -1.01094,3.7663 -3.86539,7.60198 -2.81714,3.78554 -5.90305,5.89083 -3.09233,2.06156 -6.52222,2.43062 -3.4299,0.36905 -7.27257,-1.01036 -3.82402,-1.40448 -8.11096,-4.59475 -3.93597,-2.92907 -6.32343,-6.26393 -2.41254,-3.35352 -3.14482,-6.97581 -0.73228,-3.62229 0.2536,-7.40725 1.00453,-3.81003 3.87764,-7.67078 2.74251,-3.68527 5.80976,-5.76548 3.08591,-2.10529 6.51581,-2.47435 3.44855,-0.39412 7.26616,0.96663 3.81119,1.31703 8.02292,4.45133 z m -4.79822,7.18047 q -2.55713,-1.90297 -4.93643,-3.05035 -2.40437,-1.16603 -4.61109,-1.28904 -2.21314,-0.16674 -4.20939,0.84072 -2.02132,0.98881 -3.81235,3.39551 -1.80968,2.43177 -2.09478,4.7516 -0.31016,2.30118 0.47284,4.44202 0.783,2.14084 2.52156,4.09686 1.73216,1.9123 4.01351,3.61004 2.6574,1.9776 5.08684,3.16228 2.40437,1.16604 4.61751,1.33277 2.21314,0.16674 4.20939,-0.84072 1.97118,-1.02611 3.78087,-3.45789 1.80968,-2.43177 2.11984,-4.73294 0.31016,-2.30118 -0.49791,-4.46068 -0.80806,-2.15949 -2.56528,-4.09045 -1.76364,-1.97468 -4.09513,-3.70973 z"
         style="font-style:normal;font-variant:normal;font-weight:bold;font-stretch:normal;font-size:64px;font-family:Calibri;-inkscape-font-specification:'Calibri Bold';text-align:center;letter-spacing:4.8px;text-anchor:middle;fill:#d22c12;fill-opacity:1;stroke-width:0.75"
         id="path959" />
      <path
         d="m -601.36369,293.95976 q 0.28952,0.18532 0.43269,0.42537 0.11685,0.22321 -0.004,0.70225 -0.12111,0.47903 -0.55704,1.276 -0.43592,0.79697 -1.27828,2.11297 -0.70758,1.10543 -1.1814,1.72973 -0.47382,0.62431 -0.85813,0.93487 -0.39378,0.26739 -0.70542,0.29053 -0.33796,0.006 -0.72119,-0.0906 l -9.56071,-1.81572 q -1.64346,-0.27279 -2.98056,-0.38659 -1.3371,-0.11379 -2.41628,0.12303 -1.08865,0.19365 -1.96991,0.81687 -0.88127,0.62322 -1.58885,1.72866 l -1.38147,2.15823 12.9757,8.30565 q 0.2632,0.16847 0.35583,0.48748 0.10947,0.2927 -0.0116,0.77173 -0.12111,0.47904 -0.46333,1.18758 -0.34222,0.70853 -0.99926,1.73501 -0.64019,1.00015 -1.15718,1.63393 -0.50014,0.60746 -0.88444,0.91802 -0.38431,0.31056 -0.69595,0.3337 -0.31164,0.0231 -0.57484,-0.14533 l -30.92585,-19.79541 q -1.15808,-0.74127 -1.28752,-1.64041 -0.13891,-0.9423 0.41704,-1.81085 l 5.6438,-8.81716 q 0.85921,-1.34231 1.4678,-2.17718 0.6086,-0.83486 1.14243,-1.49495 1.6036,-1.86763 3.35876,-3.04459 1.77201,-1.20328 3.65451,-1.59376 1.87303,-0.43365 3.83971,-0.0282 1.94035,0.38863 3.96698,1.68586 1.7108,1.09507 2.84567,2.45225 1.1254,1.31402 1.69172,2.86383 0.56633,1.54982 0.59043,3.30912 0.0241,1.75929 -0.48666,3.65858 0.85705,-0.52741 1.80463,-0.84847 0.96442,-0.34737 2.09833,-0.43784 1.12445,-0.13364 2.43522,-0.0367 1.28446,0.0801 2.81527,0.35499 l 8.54791,1.42716 q 1.25286,0.24539 1.81086,0.41704 0.53167,0.15481 0.79487,0.32328 z m -28.82004,-5.86937 q -1.68447,-1.07822 -3.33111,-1.05622 -1.64664,0.022 -3.23231,1.45587 -0.46855,0.44216 -0.98553,1.07593 -0.50014,0.60746 -1.25826,1.79185 l -1.98797,3.10575 9.6594,6.18291 2.25752,-3.52687 q 0.94344,-1.47391 1.30886,-2.79836 0.3391,-1.34129 0.17915,-2.48258 -0.18628,-1.15814 -0.8453,-2.09942 -0.65901,-0.94128 -1.76445,-1.64886 z"
         style="font-style:normal;font-variant:normal;font-weight:bold;font-stretch:normal;font-size:64px;font-family:Calibri;-inkscape-font-specification:'Calibri Bold';text-align:center;letter-spacing:4.8px;text-anchor:middle;fill:#d22c12;fill-opacity:1;stroke-width:0.75"
         id="path961" />
      <path
         d="m -615.18752,244.35806 q 0.79701,0.43134 1.32954,0.82614 0.51992,0.35245 0.80283,0.68323 0.25543,0.3159 0.30134,0.62501 0.0608,0.28163 -0.0731,0.52898 l -4.81915,8.90457 28.66503,15.5135 q 0.27484,0.14873 0.39059,0.46011 0.13062,0.28389 0.0449,0.77051 -0.0857,0.48662 -0.38997,1.2458 -0.2894,0.73171 -0.85461,1.77607 -0.5652,1.04436 -1.03438,1.7143 -0.45429,0.64246 -0.81482,0.98034 -0.36052,0.33788 -0.68451,0.41127 -0.30911,0.0459 -0.58394,-0.10283 l -28.66503,-15.51349 -4.81915,8.90457 q -0.14874,0.27483 -0.41776,0.37797 -0.26901,0.10314 -0.67318,0.0621 -0.43165,-0.0559 -1.02594,-0.27097 -0.6069,-0.25739 -1.40391,-0.68873 -0.8245,-0.44622 -1.3719,-0.81354 -0.53252,-0.3948 -0.78795,-0.7107 -0.28292,-0.33078 -0.31622,-0.59753 -0.0608,-0.28163 0.088,-0.55646 l 13.56502,-25.06473 q 0.13386,-0.24735 0.40288,-0.35049 0.25641,-0.14549 0.68806,-0.0896 0.40417,0.0411 1.01106,0.29846 0.62177,0.2299 1.44627,0.67612 z"
         style="font-style:normal;font-variant:normal;font-weight:bold;font-stretch:normal;font-size:64px;font-family:Calibri;-inkscape-font-specification:'Calibri Bold';text-align:center;letter-spacing:4.8px;text-anchor:middle;fill:#d22c12;fill-opacity:1;stroke-width:0.75"
         id="path963" />
      <path
         d="m -576.1777,245.3095 q 0.28385,0.1307 0.41944,0.43396 0.14866,0.27488 0.0945,0.76601 -0.0541,0.49113 -0.29574,1.23998 -0.24161,0.74884 -0.75136,1.85586 -0.49668,1.07864 -0.92167,1.77745 -0.41192,0.67042 -0.74991,1.03084 -0.33798,0.36043 -0.65656,0.45456 -0.3055,0.0658 -0.58936,-0.065 l -34.68677,-15.97226 q -0.28385,-0.1307 -0.43251,-0.40558 -0.13559,-0.30326 -0.0815,-0.79439 0.0672,-0.51952 0.30881,-1.26836 0.24161,-0.74885 0.73829,-1.82749 0.50975,-1.10702 0.92167,-1.77744 0.41192,-0.67042 0.74991,-1.03084 0.33798,-0.36043 0.64349,-0.42618 0.31857,-0.0941 0.60243,0.0366 z"
         style="font-style:normal;font-variant:normal;font-weight:bold;font-stretch:normal;font-size:64px;font-family:Calibri;-inkscape-font-specification:'Calibri Bold';text-align:center;letter-spacing:4.8px;text-anchor:middle;fill:#d22c12;fill-opacity:1;stroke-width:0.75"
         id="path965" />
      <path
         d="m -563.99548,213.96253 q 0.44519,0.32931 0.68209,0.68221 0.20755,0.34217 0.19031,0.93485 -0.0466,0.58194 -0.35016,1.50242 -0.27423,0.93122 -0.81121,2.39855 -0.42959,1.17387 -0.77038,2.01418 -0.30071,0.82171 -0.5742,1.38716 -0.27348,0.56545 -0.53048,0.904 -0.24626,0.3092 -0.519,0.50888 -0.262,0.17034 -0.55047,0.23115 -0.30708,0.0207 -0.73154,-10e-4 l -37.79531,-1.01989 q -1.18535,-0.0345 -1.83385,-0.17196 -0.63776,-0.16684 -0.80235,-0.62639 -0.18319,-0.49965 0.0803,-1.40152 0.23415,-0.91262 0.81409,-2.49734 0.49402,-1.34994 0.83194,-2.09147 0.33793,-0.74154 0.63501,-1.09869 0.29709,-0.35715 0.64426,-0.39649 0.3579,-0.0687 0.8518,-0.0543 l 32.67089,1.47394 0.0107,-0.0293 -25.82265,-19.73253 q -0.45593,-0.29996 -0.68496,-0.58344 -0.25837,-0.29422 -0.2841,-0.76951 -0.015,-0.50463 0.21629,-1.31847 0.23128,-0.81384 0.73604,-2.19313 0.49402,-1.34994 0.85055,-2.05139 0.36727,-0.73079 0.81609,-0.86604 0.43021,-0.17533 1.00353,0.16759 0.58406,0.31357 1.48231,1.04162 z"
         style="font-style:normal;font-variant:normal;font-weight:bold;font-stretch:normal;font-size:64px;font-family:Calibri;-inkscape-font-specification:'Calibri Bold';text-align:center;letter-spacing:4.8px;text-anchor:middle;fill:#d22c12;fill-opacity:1;stroke-width:0.75"
         id="path967" />
      <path
         d="m -568.18428,154.27169 q 4.912,1.0889 8.51615,3.16822 3.60415,2.07933 5.78518,5.0915 2.15051,3.00542 2.79313,6.89289 0.61888,3.8502 -0.41592,8.51812 -1.02127,4.60691 -2.97539,7.7907 -1.97787,3.14651 -4.95638,4.88687 -2.97851,1.74037 -7.04919,2.0543 -4.06391,0.28342 -9.281,-0.87311 -4.78997,-1.06186 -8.3331,-3.12765 -3.57364,-2.07256 -5.72415,-5.07797 -2.15052,-3.00542 -2.7999,-6.86238 -0.64263,-3.88747 0.39893,-8.58591 0.99422,-4.48487 2.94158,-7.63814 1.95413,-3.18378 4.93264,-4.92415 2.98527,-1.77088 7.02543,-2.09157 4.01642,-0.35797 9.14199,0.77828 z m -1.43956,8.51526 q -3.11195,-0.68986 -5.75244,-0.76307 -2.671,-0.08 -4.73482,0.71084 -2.08757,0.75356 -3.49672,2.48973 -1.43967,1.7294 -2.08895,4.6583 -0.65605,2.9594 0.0332,5.19275 0.65872,2.22659 2.24926,3.85953 1.59053,1.63294 3.97732,2.7062 2.36304,1.03598 5.13939,1.65145 3.23399,0.71691 5.93549,0.80365 2.671,0.08 4.75857,-0.67357 2.08757,-0.75356 3.49672,-2.48973 1.37865,-1.74293 2.0347,-4.70233 0.65604,-2.95941 -0.003,-5.186 -0.65872,-2.22658 -2.27976,-3.86629 -1.62105,-1.6397 -4.0146,-2.68245 -2.41729,-1.08001 -5.25466,-1.70901 z"
         style="font-style:normal;font-variant:normal;font-weight:bold;font-stretch:normal;font-size:64px;font-family:Calibri;-inkscape-font-specification:'Calibri Bold';text-align:center;letter-spacing:4.8px;text-anchor:middle;fill:#d22c12;fill-opacity:1;stroke-width:0.75"
         id="path969" />
    </g>
    <g
       aria-label="CLUB SOCIAL"
       transform="translate(1034.4865,-480.08208)"
       id="text852-2-8"
       style="font-size:64px;line-height:1.25;font-family:Calibri;-inkscape-font-specification:Calibri;letter-spacing:0px;word-spacing:0px;fill:#d22c12;fill-opacity:1;stroke-width:0.75">
      <path
         d="m -951.94353,790.47286 q -0.78031,-0.0382 -1.33908,-0.12822 -0.52908,-0.0572 -0.93025,-0.17075 -0.36996,-0.112 -0.64322,-0.28183 -0.27327,-0.16984 -0.63099,-0.53154 -0.3265,-0.36017 -0.83937,-1.38651 -0.51439,-0.99513 -0.97462,-2.45691 -0.43054,-1.42905 -0.68361,-3.28742 -0.25459,-1.82716 -0.15054,-3.94961 0.2035,-4.15126 1.64693,-7.42827 1.44343,-3.277 4.0864,-5.49401 2.67419,-2.21547 6.54332,-3.2773 3.86913,-1.06183 8.92556,-0.81396 5.15006,0.25247 9.07794,1.82167 3.92788,1.5692 6.52249,4.16811 2.59461,2.5989 3.83087,6.10114 1.23472,3.53344 1.03122,7.6847 -0.0826,1.68548 -0.44004,3.23234 -0.35742,1.54685 -0.88987,2.83483 -0.50277,1.32071 -1.14783,2.35287 -0.64506,1.03215 -1.10193,1.41649 -0.42718,0.41709 -0.71574,0.55938 -0.28857,0.14229 -0.73013,0.21451 -0.44157,0.0722 -1.03614,0.0743 -0.59609,0.0334 -1.47004,-0.009 -0.93638,-0.0459 -1.58878,-0.14046 -0.6524,-0.0945 -1.05052,-0.27051 -0.39811,-0.17595 -0.57467,-0.40362 -0.17657,-0.22767 -0.1628,-0.50858 0.023,-0.46819 0.58876,-1.16006 0.59702,-0.69035 1.30909,-1.81308 0.74176,-1.08999 1.35041,-2.65582 0.63833,-1.53308 0.74543,-3.71796 0.11782,-2.40336 -0.78765,-4.35629 -0.87578,-1.92018 -2.65152,-3.35259 -1.74607,-1.39968 -4.30304,-2.21335 -2.55698,-0.81367 -5.80308,-0.9728 -3.55823,-0.17443 -6.21527,0.41493 -2.62736,0.62211 -4.37863,1.88162 -1.7528,1.29073 -2.68888,3.15338 -0.90639,1.89539 -1.0242,4.29875 -0.10711,2.18488 0.31426,3.8012 0.45257,1.61785 1.02174,2.7721 0.56764,1.18547 1.03185,1.92784 0.46268,0.77358 0.44278,1.17934 -0.0153,0.31213 -0.14933,0.49328 -0.13403,0.18116 -0.5147,0.28765 -0.38067,0.10648 -1.0704,0.13525 -0.65853,0.0303 -1.78218,-0.0248 z"
         style="font-style:normal;font-variant:normal;font-weight:bold;font-stretch:normal;font-size:64px;font-family:Calibri;-inkscape-font-specification:'Calibri Bold';text-align:center;letter-spacing:4.8px;text-anchor:middle;fill:#d22c12;fill-opacity:1;stroke-width:0.75"
         id="path972" />
      <path
         d="m -952.89558,822.8689 q -0.93583,0.056 -1.59651,0.002 -0.62761,-0.025 -1.07366,-0.15489 -0.41486,-0.13171 -0.61696,-0.37006 -0.20023,-0.20716 -0.2189,-0.5191 l -1.1069,-18.49816 q -0.0616,-1.02941 0.48816,-1.78235 0.58282,-0.7236 1.95536,-0.80573 l 36.65319,-2.19327 q 0.31194,-0.0187 0.5727,0.15356 0.26262,0.20343 0.44659,0.66201 0.18397,0.45858 0.32421,1.23284 0.14212,0.80545 0.21305,1.99083 0.0728,1.21657 0.0259,2.00202 -0.0469,0.78546 -0.17489,1.2627 -0.12797,0.47725 -0.36632,0.67935 -0.23649,0.23329 -0.54843,0.25196 l -32.47317,1.94314 0.75971,12.69604 q 0.0187,0.31194 -0.15543,0.5415 -0.14104,0.25889 -0.53723,0.43913 -0.365,0.17837 -1.01634,0.27995 -0.61829,0.13092 -1.55411,0.18692 z"
         style="font-style:normal;font-variant:normal;font-weight:bold;font-stretch:normal;font-size:64px;font-family:Calibri;-inkscape-font-specification:'Calibri Bold';text-align:center;letter-spacing:4.8px;text-anchor:middle;fill:#d22c12;fill-opacity:1;stroke-width:0.75"
         id="path974" />
      <path
         d="m -934.49766,860.72257 q -3.65209,0.70097 -6.7431,0.18054 -3.09101,-0.52044 -5.48641,-2.22446 -2.39539,-1.70402 -4.0279,-4.57272 -1.6325,-2.8687 -2.39827,-6.85838 -0.71865,-3.74415 -0.36934,-6.89778 0.38,-3.15952 1.8881,-5.58095 1.50811,-2.42143 4.11951,-4.06819 2.64798,-1.62196 6.45352,-2.35239 l 24.15287,-4.63586 q 0.3069,-0.0589 0.58776,0.0781 0.28086,0.13702 0.52267,0.56791 0.2477,0.46159 0.48703,1.21116 0.23933,0.74957 0.46906,1.94648 0.22385,1.16621 0.27904,1.95112 0.0552,0.78492 -0.01,1.27472 -0.0651,0.4898 -0.27526,0.72106 -0.20429,0.26196 -0.51119,0.32086 l -23.44701,4.50037 q -2.36311,0.45358 -4.00051,1.37244 -1.60671,0.91298 -2.53606,2.20507 -0.92347,1.32279 -1.21793,2.93851 -0.25789,1.64052 0.10143,3.51259 0.36521,1.90277 1.23695,3.29465 0.87175,1.39188 2.17686,2.22328 1.3358,0.8255 3.06839,1.06572 1.76917,0.26501 3.85608,-0.13554 l 23.90735,-4.58873 q 0.3069,-0.0589 0.58776,0.0781 0.28086,0.13701 0.52267,0.56791 0.24181,0.43089 0.48114,1.18046 0.24522,0.78027 0.46906,1.94648 0.22385,1.16621 0.27315,1.92044 0.0552,0.78491 -0.01,1.27471 -0.0651,0.4898 -0.27526,0.72107 -0.21018,0.23126 -0.51708,0.29017 z"
         style="font-style:normal;font-variant:normal;font-weight:bold;font-stretch:normal;font-size:64px;font-family:Calibri;-inkscape-font-specification:'Calibri Bold';text-align:center;letter-spacing:4.8px;text-anchor:middle;fill:#d22c12;fill-opacity:1;stroke-width:0.75"
         id="path976" />
      <path
         d="m -924.32217,900.22602 q -2.03327,0.71779 -3.88111,0.74045 -1.84785,0.0227 -3.46865,-0.53191 -1.6104,-0.52512 -3.01283,-1.58762 -1.39203,-1.03303 -2.56393,-2.47516 -1.17191,-1.44214 -2.13236,-3.22405 -0.92058,-1.76284 -1.732,-4.06132 l -3.57854,-10.13689 q -0.34329,-0.97243 -0.0227,-1.84784 0.3605,-0.85635 1.65708,-1.31407 l 33.23957,-11.73428 q 1.29658,-0.45772 2.08532,-0.007 0.82862,0.46971 1.17191,1.44214 l 3.38089,9.577 q 1.23792,3.50666 1.50159,6.13107 0.27408,2.65387 -0.35154,4.73058 -0.58576,2.09576 -2.10067,3.62476 -1.51492,1.52901 -3.99021,2.40284 -1.38498,0.48892 -2.74745,0.57223 -1.33301,0.0729 -2.57418,-0.25117 -1.24116,-0.32406 -2.36102,-1.05549 -1.10945,-0.70197 -2.02825,-1.80263 0.27748,1.72475 0.0193,3.34033 -0.24776,1.64505 -1.07278,3.06306 -0.78514,1.43708 -2.13888,2.57778 -1.35373,1.1407 -3.2986,1.82728 z m 12.52297,-15.68851 q 1.14924,-0.40571 1.9379,-1.08181 0.78867,-0.67609 1.12836,-1.59137 0.36916,-0.92569 0.3084,-2.13042 -0.0503,-1.17527 -0.68492,-2.9728 l -1.38357,-3.9192 -9.90114,3.49532 1.5292,4.33175 q 0.59295,1.67966 1.32973,2.54632 0.76624,0.85627 1.67286,1.26529 0.94648,0.4281 1.97441,0.42976 1.0574,-0.009 2.08877,-0.37284 z m -15.62813,7.73745 q 1.32605,-0.46812 2.20138,-1.27424 0.9048,-0.81651 1.31034,-1.92074 0.40555,-1.10423 0.3205,-2.56551 -0.085,-1.46128 -0.83404,-3.58296 l -1.62282,-4.59696 -10.84412,3.82821 1.97652,5.59886 q 0.57215,1.62073 1.2812,2.5966 0.74891,0.99494 1.67808,1.56171 0.96903,0.58583 2.09751,0.68456 1.16834,0.11779 2.43545,-0.32953 z"
         style="font-style:normal;font-variant:normal;font-weight:bold;font-stretch:normal;font-size:64px;font-family:Calibri;-inkscape-font-specification:'Calibri Bold';text-align:center;letter-spacing:4.8px;text-anchor:middle;fill:#d22c12;fill-opacity:1;stroke-width:0.75"
         id="path978" />
      <path
         d="m -899.91991,946.61208 q -2.7616,1.59176 -5.43935,1.76456 -2.67775,0.17279 -5.09999,-0.77556 -2.39516,-0.96396 -4.45678,-2.9137 -2.06162,-1.94974 -3.60657,-4.63011 -1.04557,-1.814 -1.65287,-3.55598 -0.5917,-1.71491 -0.87223,-3.14027 -0.25345,-1.44097 -0.26135,-2.5185 0.008,-1.05045 0.1568,-1.60529 0.1491,-0.55484 0.70526,-1.09182 0.59883,-0.52551 1.84426,-1.24337 0.83931,-0.48377 1.43908,-0.75734 0.59978,-0.27357 1.01417,-0.36814 0.43,-0.0675 0.67461,0.044 0.28729,0.12297 0.44335,0.39371 0.21847,0.37904 0.14835,1.3212 -0.0275,0.95363 0.0553,2.34872 0.0827,1.39509 0.48077,3.14948 0.44072,1.76586 1.57992,3.7423 0.74907,1.29958 1.6399,2.15675 0.91791,0.84157 1.89222,1.21779 0.98991,0.40329 2.0477,0.29856 1.05779,-0.10473 2.08662,-0.69774 1.19128,-0.68664 1.65605,-1.8202 0.49185,-1.14917 0.53303,-2.57961 0.0839,-1.41897 -0.11226,-3.07334 -0.16903,-1.66997 -0.33073,-3.45238 -0.1617,-1.7824 -0.11414,-3.57722 0.0746,-1.81043 0.60315,-3.52176 0.57119,-1.69987 1.76698,-3.25479 1.19579,-1.55491 3.38882,-2.81896 2.51793,-1.45131 4.94374,-1.62317 2.46848,-0.16038 4.61903,0.69208 2.19323,0.86394 4.04879,2.6439 1.87115,1.80703 3.26005,4.21666 0.71785,1.24543 1.24619,2.60009 0.52833,1.35467 0.82766,2.62492 0.29933,1.27025 0.37698,2.34364 0.0777,1.07339 -0.037,1.50019 -0.11469,0.4268 -0.2574,0.61727 -0.1271,0.21753 -0.42078,0.45895 -0.251,0.25288 -0.72274,0.56086 -0.44466,0.29237 -1.1486,0.69811 -0.78516,0.45256 -1.35786,0.71052 -0.5571,0.28504 -0.97149,0.37961 -0.39878,0.12165 -0.67047,0.0258 -0.25608,-0.0688 -0.42774,-0.36663 -0.17166,-0.29782 -0.16715,-1.16608 0.005,-0.86827 -0.10849,-2.06557 -0.0859,-1.2129 -0.45182,-2.6612 -0.33881,-1.4639 -1.19711,-2.953 -0.67104,-1.16421 -1.46824,-1.85893 -0.77012,-0.71033 -1.62786,-1.00946 -0.81506,-0.28767 -1.69066,-0.17974 -0.85999,0.135 -1.64515,0.58756 -1.16421,0.67104 -1.67166,1.79313 -0.46478,1.13356 -0.53302,2.5796 -0.0256,1.45752 0.15907,3.15457 0.21171,1.68144 0.37341,3.46385 0.1617,1.7824 0.10267,3.6199 -0.032,1.82189 -0.58755,3.54884 -0.52851,1.71134 -1.7243,3.26625 -1.16871,1.5393 -3.28052,2.75654 z"
         style="font-style:normal;font-variant:normal;font-weight:bold;font-stretch:normal;font-size:64px;font-family:Calibri;-inkscape-font-specification:'Calibri Bold';text-align:center;letter-spacing:4.8px;text-anchor:middle;fill:#d22c12;fill-opacity:1;stroke-width:0.75"
         id="path980" />
      <path
         d="m -866.17131,978.93436 q -4.04161,2.99648 -7.97417,4.35604 -3.93257,1.35955 -7.63707,1.03284 -3.6794,-0.34532 -7.03682,-2.40764 -3.31369,-2.05583 -6.16128,-5.89662 -2.81036,-3.79057 -3.93446,-7.35308 -1.08038,-3.55602 -0.4429,-6.94631 0.63749,-3.39028 3.06814,-6.67066 2.44926,-3.25527 6.7419,-6.43786 3.94119,-2.92204 7.82356,-4.24437 3.90746,-1.34094 7.58686,-0.99562 3.6794,0.34532 7.0182,2.38254 3.35741,2.06232 6.22361,5.92821 2.73591,3.69016 3.8414,7.22757 1.12409,3.56251 0.48661,6.95279 -0.61887,3.41539 -3.02442,6.67716 -2.36183,3.26825 -6.57916,6.39501 z m -5.48826,-6.6679 q 2.56052,-1.89839 4.34629,-3.84481 1.81088,-1.96503 2.56611,-4.04214 0.79895,-2.07062 0.4111,-4.2728 -0.36274,-2.22079 -2.14946,-4.63069 -1.80533,-2.43501 -3.9439,-3.37808 -2.11348,-0.96168 -4.38923,-0.8305 -2.27576,0.13119 -4.65062,1.23059 -2.33114,1.10589 -4.61553,2.79955 -2.66094,1.97284 -4.49692,3.95648 -1.81088,1.96503 -2.60982,4.03565 -0.79895,2.07062 -0.4111,4.2728 0.41295,2.18356 2.21828,4.61857 1.80533,2.435 3.9188,3.39669 2.11347,0.96168 4.41434,0.81189 2.30086,-0.1498 4.6571,-1.27431 2.39996,-1.11801 4.73456,-2.84889 z"
         style="font-style:normal;font-variant:normal;font-weight:bold;font-stretch:normal;font-size:64px;font-family:Calibri;-inkscape-font-specification:'Calibri Bold';text-align:center;letter-spacing:4.8px;text-anchor:middle;fill:#d22c12;fill-opacity:1;stroke-width:0.75"
         id="path982" />
      <path
         d="m -851.61949,1016.5617 q -0.57704,0.5266 -1.03464,0.8597 -0.41345,0.335 -0.77672,0.5396 -0.34017,0.1836 -0.65324,0.2578 -0.31307,0.074 -0.82178,0.073 -0.48563,-0.022 -1.57523,-0.3816 -1.06854,-0.3363 -2.42999,-1.04 -1.3173,-0.7016 -2.81412,-1.8316 -1.47576,-1.1071 -2.90829,-2.6766 -2.80185,-3.0699 -4.10962,-6.4033 -1.30778,-3.3335 -1.01816,-6.77101 0.31271,-3.45858 2.28601,-6.95197 1.97329,-3.49338 5.71252,-6.90617 3.80847,-3.47598 7.68985,-5.15691 3.88138,-1.68092 7.55374,-1.69026 3.67237,-0.009 7.02836,1.58164 3.37706,1.61407 6.17892,4.68393 1.13759,1.24641 1.98318,2.59009 0.8456,1.34368 1.38417,2.62911 0.58272,1.28744 0.86043,2.47248 0.27771,1.18504 0.22843,1.78004 -0.005,0.59701 -0.10753,0.90201 -0.1024,0.30501 -0.36234,0.66919 -0.25995,0.36417 -0.67743,0.78752 -0.39642,0.44643 -1.04271,1.03629 -0.69245,0.632 -1.21929,1.02823 -0.52685,0.39624 -0.93225,0.55469 -0.40539,0.15846 -0.69135,0.12329 -0.28595,-0.0352 -0.47555,-0.24291 -0.316,-0.34622 -0.40814,-1.23523 -0.0691,-0.91008 -0.36381,-2.2065 -0.2506,-1.2944 -0.93261,-2.8297 -0.63786,-1.53328 -2.11251,-3.14899 -1.62213,-1.77729 -3.6458,-2.51114 -1.97953,-0.73184 -4.24721,-0.48142 -2.22353,0.25243 -4.60277,1.49316 -2.37924,1.24073 -4.77973,3.43165 -2.63131,2.40159 -4.08564,4.70206 -1.41018,2.30248 -1.75072,4.43263 -0.31948,2.1531 0.34237,4.1299 0.706,1.9788 2.32813,3.7561 1.47466,1.6157 2.91836,2.4558 1.46678,0.819 2.68681,1.2287 1.2411,0.4326 2.09494,0.6265 0.8749,0.2169 1.14876,0.5169 0.21067,0.2308 0.24474,0.4536 0.0341,0.2227 -0.15864,0.5679 -0.19271,0.3451 -0.65837,0.8547 -0.44259,0.4886 -1.27353,1.247 z"
         style="font-style:normal;font-variant:normal;font-weight:bold;font-stretch:normal;font-size:64px;font-family:Calibri;-inkscape-font-specification:'Calibri Bold';text-align:center;letter-spacing:4.8px;text-anchor:middle;fill:#d22c12;fill-opacity:1;stroke-width:0.75"
         id="path984" />
      <path
         d="m -841.72322,1033.067 q -0.21779,0.2241 -0.54889,0.2509 -0.3087,0.049 -0.75376,-0.166 -0.44505,-0.2146 -1.07066,-0.6918 -0.6256,-0.4773 -1.49962,-1.3267 -0.85161,-0.8276 -1.36896,-1.461 -0.49493,-0.6117 -0.7222,-1.0505 -0.22726,-0.4387 -0.20991,-0.7705 0.0398,-0.3099 0.25756,-0.534 l 26.6138,-27.38598 q 0.21779,-0.2241 0.52649,-0.27272 0.3311,-0.0268 0.77616,0.1878 0.46747,0.2364 1.09307,0.7136 0.62561,0.4773 1.47722,1.3049 0.87402,0.8494 1.36895,1.4611 0.49493,0.6117 0.7222,1.0504 0.22727,0.4387 0.1875,0.7487 -0.0174,0.3317 -0.23515,0.5559 z"
         style="font-style:normal;font-variant:normal;font-weight:bold;font-stretch:normal;font-size:64px;font-family:Calibri;-inkscape-font-specification:'Calibri Bold';text-align:center;letter-spacing:4.8px;text-anchor:middle;fill:#d22c12;fill-opacity:1;stroke-width:0.75"
         id="path986" />
      <path
         d="m -805.67636,1062.7347 q -0.45625,1.0945 -0.81664,1.6509 -0.3604,0.5564 -0.84539,0.5898 -0.46446,0.01 -1.16525,-0.5178 -0.72133,-0.5041 -1.87588,-1.51 -1.20167,-1.0469 -1.84392,-1.6893 -0.63921,-0.5984 -0.91053,-1.0005 -0.2508,-0.4258 -0.22795,-0.7374 0.0229,-0.3117 0.19546,-0.7001 l 3.28728,-7.9121 -11.45122,-9.9764 -7.1256,4.2779 q -0.38164,0.2478 -0.75185,0.3397 -0.32612,0.089 -0.80272,-0.078 -0.43251,-0.1696 -1.10975,-0.6767 -0.65367,-0.4866 -1.66684,-1.3693 -1.08387,-0.9443 -1.6349,-1.5487 -0.55103,-0.6044 -0.56085,-1.0689 0.0107,-0.488 0.51248,-0.9212 0.50176,-0.4332 1.50298,-1.0116 l 32.96709,-18.8588 q 0.49034,-0.2774 0.88411,-0.3488 0.41431,-0.095 0.9175,0.1362 0.54729,0.2281 1.29824,0.8409 0.77149,0.5892 1.97316,1.6361 1.39017,1.2112 2.17379,1.9768 0.80415,0.742 1.12866,1.2734 0.36861,0.5284 0.3313,0.9518 -0.0137,0.4439 -0.26239,1.0147 z m 5.48482,-34.554 -0.0236,-0.02 -15.6021,9.2026 8.64732,7.5337 z"
         style="font-style:normal;font-variant:normal;font-weight:bold;font-stretch:normal;font-size:64px;font-family:Calibri;-inkscape-font-specification:'Calibri Bold';text-align:center;letter-spacing:4.8px;text-anchor:middle;fill:#d22c12;fill-opacity:1;stroke-width:0.75"
         id="path988" />
      <path
         d="m -779.82695,1082.4761 q -0.57792,0.7382 -1.05628,1.1972 -0.43449,0.4536 -0.82722,0.7017 -0.37346,0.2236 -0.68589,0.2171 -0.28783,0.013 -0.53389,-0.1798 l -14.59143,-11.4236 q -0.812,-0.6357 -1.01193,-1.5463 -0.15605,-0.9159 0.69156,-1.9986 l 22.63519,-28.9122 q 0.19264,-0.246 0.49439,-0.3273 0.32636,-0.062 0.79177,0.1039 0.46541,0.166 1.13835,0.5737 0.69756,0.4271 1.63259,1.1591 0.95964,0.7513 1.517,1.3067 0.55736,0.5554 0.83013,0.9674 0.27277,0.412 0.2663,0.7245 0.0181,0.3317 -0.17451,0.5777 l -20.05382,25.615 10.01469,7.8404 q 0.24607,0.1927 0.30272,0.4752 0.10053,0.2771 -0.0269,0.6933 -0.10814,0.3916 -0.46347,0.9468 -0.31146,0.55 -0.88938,1.2881 z"
         style="font-style:normal;font-variant:normal;font-weight:bold;font-stretch:normal;font-size:64px;font-family:Calibri;-inkscape-font-specification:'Calibri Bold';text-align:center;letter-spacing:4.8px;text-anchor:middle;fill:#d22c12;fill-opacity:1;stroke-width:0.75"
         id="path990" />
    </g>
    <text
       xml:space="preserve"
       style="font-size:64px;line-height:1.25;font-family:Calibri;-inkscape-font-specification:Calibri;letter-spacing:0px;word-spacing:0px;fill:#d22c12;fill-opacity:1;stroke-width:0.75"
       id="text852-2-89"
       y="643.75659"
       x="369.75897"><tspan
         sodipodi:role="line"
         id="tspan850-4-9"
         x="372.15897"
         y="643.75659"
         style="font-style:normal;font-variant:normal;font-weight:bold;font-stretch:normal;font-size:64px;font-family:Calibri;-inkscape-font-specification:'Calibri Bold';text-align:center;letter-spacing:4.8px;text-anchor:middle;fill:#d22c12;fill-opacity:1;stroke-width:0.75">Y</tspan></text>
  </g>
</svg>
