<svg height="1000" viewBox="0 0 749.99997 750" width="1000" xmlns="http://www.w3.org/2000/svg" xmlns:xlink="http://www.w3.org/1999/xlink"><defs><clipPath id="a"><path d="M 0 104 H 463.60156 V 736.69922 H 0 Z m 0 0"/></clipPath><clipPath id="b"><path d="M 0 103 H 463.60156 V 736.69922 H 0 Z m 0 0"/></clipPath><clipPath id="c"><path d="M 356 0 H 463.60156 V 101 H 356 Z m 0 0"/></clipPath></defs><g transform="matrix(.96703961 0 0 .96703961 150.8202 18.845115)"><g clip-path="url(#a)"><path d="M .136719 104.21875 H 463.53906 V 621.38672 L 231.83594 736.57812 L .136719 621.38672 Z m 0 0" fill="#f00" fill-rule="evenodd"/></g><g clip-path="url(#b)"><path d="M 1.367188 6324.8125 H 4635.3906 V 1153.1328 L 2318.3594 1.21875 L 1.367188 1153.1328 Z m 0 0" fill="none" stroke="#f00" stroke-width="1.938" transform="matrix(.1 0 0 -.1 0 736.7)"/></g><path d="M 110.03906 6216.2187 H 4526.7187 V 1220.4375 L 2318.3594 122.54688 L 110.03906 1220.4375 Z m 0 0" fill="#fff" fill-rule="evenodd" stroke="#fff" stroke-width="1.938" transform="matrix(.1 0 0 -.1 0 736.7)"/><path d="M 218.67187 6107.5078 H 4418.0469 V 1287.7422 L 2318.3594 243.91406 L 218.67187 1287.7422 Z m 0 0" fill="#f00" fill-rule="evenodd" stroke="#f00" stroke-width="1.938" transform="matrix(.1 0 0 -.1 0 736.7)"/><path d="m 1837.1094 3537.7031 c 75.7422 .3516 146.0937 10.4297 210.3515 30.1563 c 64.2579 19.7265 122.7344 46.6797 175.8985 80.4297 c 53.125 34.0625 101.2109 72.5 143.5547 115.5468 c 42.3828 43.086 79.6875 88.3204 111.9922 135.7032 c 3.2421 5.4297 3.9843 9.3359 2.8906 12.1875 c -1.4453 2.8906 -3.5938 5.039 -7.1875 7.1875 l -28.0078 21.5625 c -3.2032 3.2422 -6.0938 4.2968 -8.5938 3.2422 c -2.5 -1.0938 -5.3906 -4.336 -8.6328 -9.7266 c -24.7656 -35.1563 -54.9219 -69.2578 -90.8203 -101.9531 c -35.5078 -32.3047 -75.7422 -61.3672 -120.9766 -87.2266 c -45.1953 -25.8203 -94.7656 -46.2891 -148.2422 -61.3672 c -53.8281 -15.0781 -110.8984 -22.6172 -171.9531 -22.9687 c -35.8984 -.3516 -70.7031 1.4453 -104.8047 5.3906 c -34.1015 3.5937 -67.8515 11.4844 -101.2109 23.6719 c -33.3984 12.2265 -67.1484 30.1562 -101.25 54.5703 c -34.4531 24.414 -69.6484 56.7187 -106.25 97.2656 c -41.6406 46.6797 -76.0938 95.8594 -103.0078 147.1875 c -27.3047 51.3281 -48.125 101.9531 -63.5547 152.2266 c -15.0781 50.2343 -25.4688 97.2656 -31.6016 141.0546 c -6.0937 43.7891 -8.9453 81.4844 -8.5937 113.125 c -.7031 63.4766 5.3906 126.2891 18.3203 189.1407 c 12.5391 62.4218 32.3047 122.0312 59.2187 178.0078 c 26.9141 56.0156 61.7188 105.5469 104.1016 148.9844 c 42.6953 43.4375 93.3203 77.8906 152.5391 102.6562 c 59.2578 24.7656 127.4609 37.6953 204.2578 38.0469 c 56.7187 -.3516 107.3437 -7.8906 152.5781 -22.2266 c 45.5859 -14.7265 86.1328 -34.4922 122.7734 -59.2187 c 36.25 -25.1563 69.6094 -53.1641 99.4141 -84.375 c 30.1563 -31.25 55.625 -62.461 77.1875 -94.375 c 21.1719 -31.9922 39.4922 -62.8516 53.8281 -92.3047 c 14.7266 -29.7656 27.3047 -56.3281 36.9922 -80.3906 c 3.2031 -8.2422 6.0938 -13.6329 9.336 -15.7813 c 2.8515 -2.1875 7.1484 -2.8906 12.1875 -1.4453 l 32.3046 8.5937 c 4.2969 1.0938 7.1875 3.5938 8.2813 7.5782 c 1.4062 3.9062 1.4062 8.5937 .3516 13.9843 c -1.7969 10.3907 -4.336 26.9141 -7.5391 49.1797 c -3.5938 22.2657 -7.1875 47.7344 -11.1328 76.836 c -3.9453 29.0625 -8.2422 59.1797 -12.2266 90.0781 c -4.2969 31.2109 -7.8906 60.6641 -11.4844 88.6719 c -3.2031 27.9687 -6.0937 52.0312 -8.2421 72.1484 c -2.1485 20.0781 -3.2422 33.75 -3.2422 40.8984 c .3906 14.7266 -1.4063 24.0625 -4.6485 28.711 c -3.2422 4.3359 -9.6875 6.1719 -19.0234 5.7812 c -9.3359 .3907 -15.8203 -.3906 -19.7656 -1.4453 c -3.5547 -1.4453 -6.4453 -5.3906 -8.2422 -11.4844 l -17.2266 -62.4609 c -1.7969 -7.5391 -6.0937 -11.4844 -12.5781 -12.2266 c -6.4453 -.3125 -16.4844 3.9454 -30.5078 12.2266 c -19.375 11.4844 -43.7891 24.0234 -73.2031 37.6953 c -29.1016 13.2813 -62.461 26.1719 -99.8047 38.3985 c -37.3438 12.1875 -78.2813 22.2656 -122.4219 30.1562 c -43.7891 7.8906 -90.4688 11.8359 -139.6484 12.1875 c -78.5938 -.3516 -151.836 -10.7422 -219.6485 -30.5078 c -67.5 -19.7266 -128.5156 -46.2891 -182.3828 -78.9844 c -54.1797 -32.6562 -99.4141 -68.5547 -136.4062 -108.0469 c -51.6797 -54.9218 -93.3204 -113.4375 -125.9766 -176.25 c -32.3047 -62.4609 -56.0156 -127.0703 -71.0938 -193.8281 c -15.0781 -66.7187 -22.6171 -133.5547 -22.6171 -200.664 c 0 -52.0313 4.6875 -105.5469 14.375 -160.8204 c 9.3359 -55.2343 23.6718 -109.4921 42.6953 -163.3203 c 19.0234 -53.8671 43.0859 -104.414 71.7968 -151.8359 c 29.1016 -47.7734 62.8125 -90.0781 101.6016 -127.0703 c 42.6953 -39.8438 90.0781 -74.3359 142.1484 -104.1016 c 52.0313 -29.4531 111.2891 -52.4218 177.3438 -68.9062 c 66.0156 -16.5235 141.0547 -24.8047 225.4297 -25.1563 z m 0 0" fill="#fff" fill-rule="evenodd" stroke="#fff" stroke-width="1.939" transform="matrix(.1 0 0 -.1 0 736.7)"/><path d="m 1793.0469 3604.6172 c 0 -28.9063 -.3516 -64.6484 -.7031 -107.5781 c -.3516 -43.0078 -1.0938 -89.1797 -1.7969 -139.4141 c -.7422 -50.1562 -1.4453 -100 -2.5391 -150.1562 c -1.0937 -50.1954 -2.1484 -96.7969 -3.2422 -140.1172 c -1.0937 -43.3203 -2.1875 -79.4141 -3.6328 -108.6328 c -1.0547 -29.2969 -2.1484 -47.6954 -3.2422 -56.0157 c -2.1484 -17.3047 -9.0234 -30.3125 -20.9375 -38.9843 c -11.5625 -8.6719 -27.8125 -13.0079 -48.3593 -13.0079 h -145.1563 c -5.4297 0 -9.7656 -1.0546 -12.6562 -3.2421 c -3.2422 -2.1094 -4.6875 -5.3907 -4.6875 -9.7266 v -56.3281 c 0 -5.4297 1.0937 -9.375 3.6328 -11.5625 c 2.1484 -2.5391 6.1328 -3.5938 11.5234 -3.5938 c 9.7656 0 26.7188 .7031 50.9375 1.7969 c 23.8281 1.0937 56.6797 1.7969 98.2031 2.8906 c 41.875 1.0938 93.8672 1.7969 156.3282 1.7969 c 33.2031 0 71.8359 -.7031 116.25 -1.7969 c 44.414 -1.0937 91.3671 -1.7969 140.0781 -2.8906 c 48.75 -1.0938 96.0547 -1.7969 142.2656 -1.7969 c 42.2266 -.7422 90.9766 .7031 146.6016 3.5938 c 55.2343 2.8906 113.3593 11.2109 174.7265 25.2734 c 61.3672 13.7109 122.3828 36.4844 183.0469 67.8906 c 60.3125 31.7578 116.9922 76.1719 169.3359 132.8516 c 47.6563 51.6406 87.3829 105.4297 119.1407 161.7578 c 31.7968 56.3281 55.625 117.7344 71.4843 184.1406 c 15.8985 66.7969 23.8282 141.1719 23.8282 223.8282 c -.3516 83.789 -10.8203 159.6093 -31.0157 227.8515 c -20.2343 68.5938 -48.3984 129.6094 -84.4921 183.3985 c -36.1329 53.789 -77.6563 100.7421 -124.9219 141.1718 c -47.6563 40.4297 -97.8516 73.2813 -150.9375 98.9063 c -53.4375 25.664 -109.0235 45.5468 -167.8906 59.5703 c -58.4766 14.1015 -119.8438 23.4765 -184.1407 28.9062 c -64.2578 5.4297 -131.0547 7.9297 -201.0937 7.5782 c -10.4688 0 -25.9766 -.3516 -47.3047 -.7032 c -20.9375 -.3906 -45.1172 -.7422 -71.4844 -1.4453 c -26.7187 -.7422 -53.4375 -1.4453 -80.5078 -2.1875 c -26.7187 -.3515 -51.25 -1.0937 -72.9297 -1.4453 c -22.0312 -.3516 -38.9844 -.7031 -50.5469 -.7031 c -64.6093 0 -119.1406 .7031 -162.8125 1.7969 c -44.0625 1.0937 -78.3593 2.1484 -103.9843 2.9296 c -25.2735 1.0547 -42.2657 1.7579 -51.6407 1.7579 c -4.3359 0 -7.9296 -.7032 -10.8203 -2.1485 c -2.8906 -1.4453 -4.3359 -4.3359 -4.3359 -8.6719 v -58.5156 c 0 -6.1328 1.4453 -10.4687 4.6875 -12.2656 c 2.8906 -2.1484 7.2266 -2.8906 12.6172 -2.8906 h 119.1406 c 19.5313 .3515 35.7422 -1.0938 48.75 -3.9453 c 13.0078 -3.2813 23.125 -9.0625 30.3516 -17.6954 c 7.1875 -8.9843 11.914 -21.6796 14.0625 -38.9843 c .7422 -6.5235 1.4453 -19.5313 2.1875 -38.6719 c 1.0547 -19.1016 1.7968 -42.2266 2.5 -68.9453 c .7422 -27.0703 1.7968 -55.5859 2.539 -85.5859 c .7032 -29.5704 1.0938 -58.8282 1.7969 -86.6407 c .7422 -28.164 1.0938 -52.6562 1.4453 -74.375 c .3516 -21.289 .3516 -36.8359 .3516 -46.5625 z m 199.2969 106.1719 c 0 7.539 0 23.0859 0 47.2656 c 0 23.8281 0 52.3437 0 85.5469 c .3906 33.2422 .3906 67.539 .3906 103.2812 c .3515 35.3906 .3515 68.5938 .7031 99.336 c .3516 30.625 .7422 55.1953 1.0938 73.9453 c .7031 23.8281 3.9843 44.414 10.1171 61.4453 c 5.7813 17.2656 16.25 30.625 31.0547 40.4297 c 12.9688 7.1875 29.6094 12.2265 50.5469 15.1171 c 20.9375 3.2422 42.5781 5.0391 64.9609 5.7813 c 22.0313 .7031 41.1719 1.0937 57.7735 .7031 c 80.5078 -.3515 154.5312 -9.0234 222.7734 -26.3281 c 68.2422 -17.3438 129.2578 -41.5234 183.3985 -72.9297 c 54.1796 -31.0547 100.039 -67.1875 137.5781 -108.7109 c 25.9765 -28.8672 50.1953 -62.0703 71.8359 -99.2578 c 21.3281 -37.5782 40.0781 -77.2657 55.9766 -119.8828 c 15.8594 -42.2266 28.164 -85.5469 36.8359 -129.6094 c 8.6328 -44.0625 12.9688 -87.3828 12.9688 -130 c -.3516 -66.0547 -7.2266 -128.8672 -20.5469 -188.8281 c -13.75 -59.9219 -32.5 -115.5079 -55.9766 -166.0547 c -23.8281 -50.5469 -50.8984 -94.5703 -81.6015 -132.5 c -36.0938 -46.6016 -79.8047 -87.3828 -131.0547 -122.4219 c -50.8985 -35 -108.3203 -62.0703 -171.875 -81.6016 c -63.5547 -19.8437 -132.1485 -29.5703 -206.1328 -29.9609 c -36.1328 0 -69.6875 2.5391 -100.0391 7.9687 c -30.3125 5.0391 -56.6797 12.9688 -78.7109 23.086 c -22.3828 10.4687 -38.9844 23.125 -50.8985 38.2812 c -13.7109 21.3282 -23.4765 41.5235 -28.8672 60.6641 c -5.4296 19.1406 -8.3203 39.3359 -7.9687 60.6641 c -.3516 22.7343 -.7031 50.8984 -1.0547 84.1406 c -.3906 32.8125 -.7422 68.5547 -1.0937 106.8359 c -.3516 38.2813 -.7422 76.1719 -.7422 114.1016 c -.3516 37.8906 -.7032 72.9297 -.7032 105.4297 c -.3515 32.1093 -.3515 59.1797 -.7421 80.5078 c 0 21.289 0 34.6484 0 39.6875 z m 0 0" fill="#fff" fill-rule="evenodd" stroke="#fff" stroke-width="1.939" transform="matrix(.1 0 0 -.1 0 736.7)"/><path d="m 3041.2891 1916.2188 c 75.7422 .3906 146.0937 10.3906 210.3515 30.1562 c 64.2578 19.7266 122.7735 46.6406 175.8985 80.3906 c 53.125 34.1016 101.2109 72.5 143.5937 115.586 c 42.3438 43.0859 79.6875 88.3203 111.9922 135.7031 c 3.2422 5.3906 3.9453 9.3359 2.8516 12.1875 c -1.4063 2.8906 -3.5547 5.0391 -7.1485 7.2266 l -28.0078 21.4843 c -3.2422 3.2422 -6.0937 4.336 -8.6328 3.2422 c -2.5 -1.0547 -5.3906 -4.2969 -8.5937 -9.6875 c -24.7657 -35.1953 -54.9219 -69.2969 -90.8204 -101.9531 c -35.5468 -32.2656 -75.7421 -61.3672 -120.9765 -87.2266 c -45.2344 -25.8203 -94.7656 -46.289 -148.2422 -61.3672 c -53.8672 -15.0781 -110.9375 -22.6171 -171.9531 -22.9687 c -35.8985 -.3906 -70.7032 1.4062 -104.8047 5.3516 c -34.1016 3.5937 -67.8516 11.5234 -101.25 23.7109 c -33.3985 12.1875 -67.1094 30.1562 -101.211 54.5703 c -34.4921 24.4141 -69.6484 56.7188 -106.25 97.2656 c -41.6406 46.7188 -76.1328 95.8985 -103.0468 147.1875 c -27.2657 51.3282 -48.086 101.9532 -63.5157 152.1875 c -15.0781 50.2735 -25.5078 97.3438 -31.6015 141.0938 c -6.0938 43.789 -8.9844 81.4844 -8.6328 113.0469 c -.7032 63.5546 5.3906 126.3671 18.3203 189.1796 c 12.5781 62.461 32.3047 122.0704 59.2187 178.0469 c 26.9532 56.0156 61.7578 105.586 104.1016 148.9844 c 42.7344 43.4375 93.3594 77.8906 152.5781 102.6562 c 59.2188 24.7657 127.4219 37.6954 204.2578 38.086 c 56.7188 -.3906 107.3047 -7.8906 152.5391 -22.2656 c 45.5859 -14.7266 86.1719 -34.4922 122.7734 -59.2579 c 36.25 -25.1171 69.6485 -53.125 99.4532 -84.2968 c 30.1171 -31.25 55.625 -62.5 77.1484 -94.4532 c 21.1719 -31.9531 39.4922 -62.8125 53.8672 -92.2265 c 14.6875 -29.8438 27.2656 -56.4063 36.9531 -80.3906 c 3.2422 -8.3204 6.0938 -13.711 9.3359 -15.8594 c 2.8907 -2.1485 7.1875 -2.8516 12.2266 -1.4063 l 32.3047 8.5938 c 4.2969 1.0937 7.1484 3.5937 8.2422 7.539 c 1.4453 3.9454 1.4453 8.6329 .3515 14.0235 c -1.7968 10.4297 -4.2968 26.914 -7.539 49.1797 c -3.5938 22.2265 -7.1875 47.7343 -11.1328 76.7968 c -3.9453 29.0625 -8.2422 59.2188 -12.1875 90.1172 c -4.2969 31.211 -7.8907 60.6641 -11.4844 88.6328 c -3.2422 28.0079 -6.0938 52.0704 -8.2422 72.1875 c -2.1875 20.0782 -3.2422 33.711 -3.2422 40.8985 c .3516 14.7265 -1.4453 24.0625 -4.6875 28.7109 c -3.2031 4.336 -9.6875 6.1328 -19.0234 5.7422 c -9.336 .3906 -15.7813 -.3516 -19.7266 -1.4062 c -3.5937 -1.4454 -6.4844 -5.3907 -8.2812 -11.4844 l -17.2266 -62.461 c -1.7969 -7.539 -6.0937 -11.4843 -12.5391 -12.2265 c -6.4843 -.3516 -16.5234 3.9453 -30.5078 12.2265 c -19.414 11.4844 -43.789 24.0235 -73.2422 37.6954 c -29.0625 13.2421 -62.4609 26.1718 -99.8046 38.3984 c -37.3047 12.1875 -78.2422 22.2266 -122.3829 30.1562 c -43.789 7.8907 -90.4687 11.836 -139.6484 12.1875 c -78.6328 -.3515 -151.8359 -10.7421 -219.6875 -30.5078 c -67.5 -19.7265 -128.5156 -46.3281 -182.3437 -78.9843 c -54.2188 -32.6563 -99.4532 -68.5547 -136.4063 -108.0469 c -51.7187 -54.8828 -93.3594 -113.4375 -126.0156 -176.25 c -32.3047 -62.461 -55.9766 -127.0703 -71.0547 -193.8281 c -15.0781 -66.7579 -22.6172 -133.5547 -22.6172 -200.625 c 0 -52.1094 4.6484 -105.586 14.3359 -160.8594 c 9.336 -55.2735 23.711 -109.4922 42.7344 -163.3203 c 19.0235 -53.8672 43.0469 -104.4532 71.7969 -151.875 c 29.0625 -47.6953 62.8125 -90.0782 101.5625 -127.0703 c 42.7344 -39.8047 90.1172 -74.2969 142.1484 -104.1016 c 52.0703 -29.4141 111.2891 -52.3828 177.3438 -68.9063 c 66.0547 -16.5234 141.0547 -24.7265 225.4297 -25.1171 z m 0 0" fill="#fff" fill-rule="evenodd" stroke="#fff" stroke-width="1.939" transform="matrix(.1 0 0 -.1 0 736.7)"/><path d="m 1445.7031 7321.8437 l 98.9844 -306.6015 l 322.1875 .625 l -261.0156 -188.8281 l 100.1562 -306.25 l -260.3125 189.8437 l -260.2734 -189.8437 l 100.1562 306.25 l -261.0156 188.8281 l 322.1875 -.625 z m 0 0" fill="#fff" fill-rule="evenodd" stroke="#f00" stroke-width="28.346" transform="matrix(.1 0 0 -.1 0 736.7)"/><path d="m 2344.4141 7321.8437 l 98.9843 -306.6015 l 322.1875 .625 l -261.0156 -188.8281 l 100.1563 -306.25 l -260.3125 189.8437 l -260.2735 -189.8437 l 100.1563 306.25 l -261.0547 188.8281 l 322.1875 -.625 z m 0 0" fill="#fff" fill-rule="evenodd" stroke="#f00" stroke-width="28.346" transform="matrix(.1 0 0 -.1 0 736.7)"/><path d="m 3243.125 7321.8437 l 98.9844 -306.6015 l 322.1875 .625 l -261.0156 -188.8281 l 100.1562 -306.25 l -260.3125 189.8437 l -260.3125 -189.8437 l 100.1563 306.25 l -261.0157 188.8281 l 322.1875 -.625 z m 0 0" fill="#fff" fill-rule="evenodd" stroke="#f00" stroke-width="28.346" transform="matrix(.1 0 0 -.1 0 736.7)"/><path d="m 414.18359 4.515625 l 9.89844 30.660156 l 32.21875 -.0625 l -26.10547 18.882813 l 10.01563 30.625 l -26.02735 -18.984375 l -26.03125 18.984375 l 10.01563 -30.625 l -26.10156 -18.882813 l 32.21875 .0625 z m 0 0" fill="#fff" fill-rule="evenodd"/><g clip-path="url(#c)"><path d="m 4141.8359 7321.8437 l 98.9844 -306.6015 l 322.1875 .625 l -261.0547 -188.8281 l 100.1563 -306.25 l -260.2735 189.8437 l -260.3125 -189.8437 l 100.1563 306.25 l -261.0156 188.8281 l 322.1875 -.625 z m 0 0" fill="none" stroke="#f00" stroke-width="28.346" transform="matrix(.1 0 0 -.1 0 736.7)"/></g><path d="m 494.92187 7321.8437 l 98.98438 -306.6015 l 322.1875 .625 l -261.05469 -188.8281 l 100.15625 -306.25 l -260.27344 189.8437 l -260.3125 -189.8437 l 100.15625 306.25 l -261.01562 188.8281 l 322.1875 -.625 z m 0 0" fill="#fff" fill-rule="evenodd" stroke="#f00" stroke-width="28.346" transform="matrix(.1 0 0 -.1 0 736.7)"/></g></svg>