<svg xmlns="http://www.w3.org/2000/svg" xml:space="preserve" viewBox="0 0 660 660"><path d="M330.452 28.5H140.596v556.442c0 12.59 10.684 22.892 23.731 22.892h131.175c20.067 0 30.293 17.016 31.21 23.122l.61.838h6.182l.61-.838c.917-6.181 11.141-23.122 31.285-23.122h131.1c13.048 0 23.732-10.302 23.732-22.892V28.5z" style="fill:#fff200"/><path d="M476.048 522.216c-10.455 0-19.917-4.884-26.709-12.743h-5.722c-6.791 7.859-16.253 12.743-26.709 12.743-10.454 0-19.917-4.884-26.707-12.743h-4.121c-6.792 7.859-16.252 12.743-26.708 12.743s-19.917-4.884-26.708-12.743h-4.426c-6.867 7.859-16.331 12.743-26.708 12.743-10.454 0-19.917-4.884-26.708-12.743h-4.197c-6.79 7.859-16.254 12.743-26.632 12.743-10.454 0-19.916-4.884-26.708-12.743h-5.724c-6.792 7.859-16.253 12.743-26.708 12.743s-19.915-4.884-26.709-12.743l-3.966-5.342v69.44c0 11.981 9.919 21.824 22.054 21.824h121.712c18.694 0 28.156 16.254 29.071 22.131l.536.838h5.722l.534-.838c.916-5.876 10.379-22.131 29.074-22.131H484.67c12.058 0 21.977-9.843 21.977-21.824v-69.44l-3.968 5.342c-6.792 7.859-16.253 12.743-26.631 12.743" style="fill:#007fb6"/><path d="M154.179 489.479c7.706 10.455 16.634 20.908 30.675 20.908 10.454 0 19.916-4.882 26.708-12.743l3.053-1.145 2.67 1.145c6.792 7.861 16.253 12.743 26.708 12.743 10.378 0 19.842-4.882 26.632-12.743l2.214-.687 1.983.687c6.79 7.861 16.254 12.743 26.708 12.743 10.377 0 19.841-4.882 26.708-12.743l2.442-.687 1.984.687c6.79 7.861 16.253 12.743 26.708 12.743 10.456 0 19.916-4.882 26.708-12.743l1.908-1.145 2.213 1.145c6.79 7.861 16.253 12.743 26.707 12.743 10.456 0 19.918-4.882 26.709-12.743l2.975-1.145 2.747 1.145c6.792 7.861 16.253 12.743 26.709 12.743 14.041 0 22.892-10.148 30.599-20.604V124.801H154.179z" style="fill:#ed1651"/><path d="M330.427 229.247h-61.883v.107h123.738v-.107z" style="fill:#fff200"/><path d="M330.427 229.247h-61.883v.107h123.738v-.107z" style="fill:#007fb6"/><path d="M268.544 229.193h123.738v.161H268.544z" style="fill:#fff200"/><path d="M268.544 229.354h123.738v24.512H268.544z" style="fill:#007fb6"/><path d="m204.925 572.274-8.394 14.575h-19.079l18.392-26.937-16.56-24.952h19.077l7.326 13.279 7.479-13.279h19.076l-17.55 24.952 17.703 26.937h-19.153zm49.981-9.844 17.705-27.471h15.871v51.889h-16.254l-.229-27.09-17.627 27.09h-15.949v-51.889h16.331zm86.381-3.814-8.774 26.556-11.446-.078-8.548-26.631.078 28.386h-15.264V534.96h20.528l9.156 32.356 9.081-32.356h20.527v51.889h-15.262zm41.665 3.814 17.626-27.471h15.95v51.889h-16.331l-.23-27.09-17.626 27.09h-15.949v-51.889h16.332zm43.419 24.419V534.96h17.017v16.788l14.957-16.788h19.915l-18.924 19.535 20.985 32.354h-20.452l-13.43-19.688-3.053 3.281v16.407z" style="fill:#fff200"/><path d="M170.891 569.146c5.493 0 10.073-4.502 10.073-9.996 0-5.57-4.58-10.073-10.073-10.073a10.064 10.064 0 0 0-10.073 10.073c-.001 5.493 4.502 9.996 10.073 9.996M491.005 569.146c5.57 0 10.073-4.502 10.073-9.996 0-5.57-4.503-10.073-10.073-10.073-5.496 0-9.998 4.503-9.998 10.073.001 5.493 4.503 9.996 9.998 9.996M304.843 242.668h3.348v-1.794h-3.348v-5.144h3.348v-1.768h-6.616v16.234h6.751v-1.768h-3.483zM282.314 233.962h-5.251l-1.42 14.493h-.589v4.581h3.268v-2.813h2.733l.026 2.813h3.241v-4.581h-.563zm-2.626 14.492h-.803l.75-11.841h.16l.696 11.841zM295.842 242.133q-.442-.322-1.366-.322h-.133v-.241c.589 0 1.044-.107 1.339-.295.295-.214.51-.455.617-.696.081-.188.134-.376.161-.536s.027-.295.027-.375v-3.698c0-.134 0-.268-.027-.375a2.65 2.65 0 0 0-.509-1.313c-.321-.402-.937-.616-1.902-.616h-2.572c-.803 0-1.366.188-1.714.509-.348.349-.589.697-.697 1.099-.053.214-.08.402-.107.589 0 .188-.026.348-.026.482v2.759h3.134v-3.349c0-.107.053-.214.161-.294.08-.08.241-.134.428-.134.134 0 .241.026.321.134.081.081.107.161.134.241v3.992c0 .375-.081.669-.188.884-.134.214-.482.321-1.071.321h-1.366v1.768h1.312c.536 0 .857.08 1.045.268a.97.97 0 0 1 .294.536.3.3 0 0 1 .027.134v4.742c-.027.054-.027.107-.054.161-.027.053-.081.107-.161.188-.081.054-.188.081-.349.081a.53.53 0 0 1-.375-.134.5.5 0 0 1-.161-.402v-3.724h-3.242v3.295c0 .91.161 1.527.482 1.875s.67.589 1.072.669c.187.054.348.081.536.081.161.027.321.027.456.027h2.974c.107 0 .188-.027.295-.027.482-.054.91-.214 1.312-.536s.589-1.018.589-2.089v-4.5c-.026-.134-.053-.295-.134-.429-.08-.269-.267-.509-.562-.75M358.956 240.793h-.963v-6.831h-3.269v16.234h3.269v-7.608h.963v7.608h3.242v-16.234h-3.242zM385.585 241.784l1.661-7.822h-3.242l-1.205 6.938v-6.938h-3.242v16.234h3.242v-7.528l1.553 7.528h3.215zM373.182 233.881c-.134-.026-.267-.053-.402-.053h-3.134c-.777 0-1.339.134-1.661.455a2.2 2.2 0 0 0-.643 1.018 2.4 2.4 0 0 0-.081.616c-.027.188-.027.348-.027.509v11.412c0 .991.188 1.634.536 1.982.348.322.75.536 1.179.59.134.026.241.026.375.026.107.027.214.027.348.027h2.732c.83 0 1.42-.188 1.742-.509a2.27 2.27 0 0 0 .589-1.152c.027-.161.027-.321.054-.509v-3.777h-3.242v3.778a.45.45 0 0 1-.188.268.5.5 0 0 1-.348.134.58.58 0 0 1-.321-.107.46.46 0 0 1-.188-.269v-12.483a.46.46 0 0 1 .188-.268c.08-.081.188-.107.321-.107.134 0 .268.027.348.134a.46.46 0 0 1 .188.268v3.563h3.242v-2.92c0-.991-.161-1.661-.509-2.009-.322-.349-.697-.563-1.098-.617M319.068 234.016a2.3 2.3 0 0 0-.429-.054h-5.545v16.234h3.242v-5.572h1.849c.107 0 .214-.027.348-.027.107 0 .214 0 .348-.027.429-.054.831-.268 1.179-.616.375-.321.563-1.018.563-2.009v-5.331c0-.964-.161-1.607-.482-1.956-.323-.348-.698-.562-1.073-.642m-1.715 2.518v5.572c0 .241-.054.429-.161.536-.054.08-.188.161-.349.188h-.508v-7.099h.322c.08 0 .134 0 .187.026.134 0 .215.054.295.134a.64.64 0 0 1 .188.348c0 .054.027.107.027.161zM337.097 233.962h-3.268l-1.206 6.938h-.081v-6.938h-3.026v7.045h-.081l-1.125-7.045h-3.402l1.848 7.93-1.928 8.304h3.214l1.393-7.019h.081v7.019h3.026v-7.019h.081l1.339 7.019h3.242l-1.955-8.304zM344.946 241.49v-7.528h-3.241v16.234h3.241l1.5-7.635v7.635h3.242v-16.234h-3.242zM449.035 302.371c-1.297-12.896-4.655-25.183-9.614-36.628-2.519-.077-5.191-.306-7.938-.612-4.349-.533-9.004-1.296-13.583-2.212a102.1 102.1 0 0 1 11.982 33.271c.533.457 1.068.915 1.601 1.297 5.724 4.655 11.751 9.08 17.551 12.896.153.152.383.229.534.381-.075-2.822-.305-5.645-.533-8.393M449.035 326.941c.153-1.373.228-2.746.305-4.196-.077 0-.228-.075-.305-.152-5.647-3.053-11.675-7.097-17.551-11.6-.075-.077-.153-.152-.23-.152.077.839.077 1.754.077 2.594 0 9.996-1.448 19.611-4.196 28.768 1.449 1.755 2.9 3.586 4.349 5.341 3.283 3.892 6.639 7.63 9.919 10.988a121.8 121.8 0 0 0 7.632-31.591M403.174 232.242c-2.747.993-5.647 1.909-8.623 2.824a96 96 0 0 1 8.623 8.09c2.136 2.289 4.197 4.579 6.104 7.021.458.075.839.228 1.296.305 6.945 1.602 14.117 3.052 20.909 3.968.84.153 1.602.228 2.44.383-.76-1.451-1.601-2.825-2.44-4.2-5.113-8.239-11.141-15.871-18.009-22.663-.916.458-1.907.916-2.9 1.373a114 114 0 0 1-7.4 2.899M443.311 252.313a840 840 0 0 0 5.724-8.547c1.07-1.679 2.138-3.358 3.128-5.037 1.297-2.137 2.595-4.274 3.816-6.411a242 242 0 0 0-3.816-5.57 86 86 0 0 0-3.128-4.273 163 163 0 0 0-17.551-19.383c-2.976-2.746-6.029-5.341-9.156-7.858-.764 8.239-2.137 16.787-3.663 24.648a141.4 141.4 0 0 1 12.82 14.192 131 131 0 0 1 11.826 18.239M403.174 386.921a29 29 0 0 1-.84-2.366c-4.807 4.96-10.149 9.386-15.796 13.278-2.594 1.754-5.265 3.432-8.011 4.884a336 336 0 0 0 8.011 12.132c1.069 1.603 2.213 3.128 3.283 4.73 4.655-2.822 9.155-5.876 13.354-9.309 2.595-1.983 5.036-4.122 7.4-6.334.155-.075.23-.228.382-.305-.152-.228-.227-.458-.382-.687-2.671-4.806-5.112-10.301-7.401-16.023M449.035 262.158c-.228.228-.381.457-.612.762.23.381.384.839.612 1.296 1.143 2.747 2.212 5.571 3.128 8.471 3.968 11.523 6.257 23.809 6.791 36.552 1.755-1.526 3.511-2.977 5.266-4.502 4.961-4.35 9.767-8.928 13.89-13.354-2.291-15.796-7.098-30.753-13.89-44.489-.687-1.374-1.374-2.745-2.136-4.044a195 195 0 0 1-9.921 14.958c-.99 1.449-2.059 2.899-3.128 4.35M431.483 378.527a124 124 0 0 0 5.495-9.843 87 87 0 0 1-5.495-5.266c-2.9-2.9-5.724-6.183-8.547-9.54-3.279 7.48-7.478 14.577-12.362 21.062-.151.153-.229.305-.381.46.151.381.229.685.381 1.067 2.442 6.715 5.19 13.276 8.089 19.229a128.7 128.7 0 0 0 12.82-17.169M479.482 305.042c-4.655 4.655-9.996 9.233-15.263 13.506-1.831 1.373-3.587 2.747-5.417 4.122-.688 11.674-2.977 23.121-6.64 33.804-.611 1.831-1.222 3.662-1.907 5.417.61 0 1.296-.075 1.907-.152 4.044-.38 8.089-.839 12.057-1.373 2.824-.381 5.647-.762 8.393-1.297a148.3 148.3 0 0 0 7.175-45.632c0-2.825-.153-5.572-.305-8.395M417.825 410.118c-2.29 2.215-4.732 4.35-7.251 6.411-2.365 1.907-4.805 3.815-7.4 5.57-2.519 1.755-5.036 3.511-7.708 5.113a330 330 0 0 0 7.708 9.69c1.449 1.68 2.9 3.357 4.272 5.037 1.07-.686 2.138-1.296 3.128-1.983a149 149 0 0 0 20.909-16.254c2.595-2.442 5.189-4.959 7.632-7.556-2.52-.609-5.113-1.219-7.632-1.906-4.579-1.222-9.156-2.672-13.658-4.122M452.163 372.27c-1.068.075-2.059.152-3.128.229-1.221.075-2.366.152-3.511.152a138.4 138.4 0 0 1-14.04 22.435 149 149 0 0 1-5.494 6.563l5.494 1.601a214 214 0 0 0 15.491 3.663q1.03-1.258 2.06-2.518c1.07-1.449 2.138-2.899 3.128-4.348 4.502-6.411 8.546-13.126 12.057-20.147 1.451-3.053 2.9-6.181 4.197-9.386-1.373.228-2.824.383-4.197.611-4.045.457-8.013.84-12.057 1.145M386.538 182.413l10.989 5.953c1.524.762 3.434 2.67 2.67 4.198l-.84 1.525c-.762 1.525-3.127.762-4.654 0l-8.165-4.045-9.996-4.883c-.075 2.06.153 5.187-.153 7.247 3.436 1.374 6.868 2.9 10.149 4.58a136 136 0 0 1 16.636 10.071c2.213 1.526 4.272 3.128 6.332 4.732.381-2.366.763-4.885 1.068-7.326a212 212 0 0 0 1.604-16.56c-.534-.381-1.07-.686-1.604-1.068-2.442-1.526-4.883-3.052-7.4-4.426a146 146 0 0 0-16.636-8.165c-3.662-1.525-7.478-2.976-11.294-4.196.61 2.288.992 4.654 1.297 7.02zM366.47 408.439a101.3 101.3 0 0 1-37.239 7.097c-13.278 0-25.87-2.519-37.544-7.174-4.351 7.25-9.157 14.27-14.117 20.985-5.037 6.715-10.302 13.049-15.569 18.696 5.038 2.592 10.226 4.806 15.569 6.789 16.1 5.877 33.499 9.158 51.661 9.158 20.22 0 39.603-4.045 57.306-11.446 2.672-1.068 5.341-2.289 8.013-3.587-2.748-3.128-5.418-6.486-8.013-9.919-7.249-9.613-14.117-19.992-20.067-30.599M386.538 228.428c5.798-1.526 11.37-3.511 16.636-5.495 1.22-.457 2.365-.915 3.509-1.374a139 139 0 0 0-3.509-2.747 136 136 0 0 0-16.636-10.988c-4.12-2.364-8.243-4.426-12.285-6.106-.535 1.604-1.755 4.123-2.442 5.648l14.115 6.944c.23.075.383.152.611.305 1.221.764 2.136 1.983 1.831 3.281l-.762 1.603a1.8 1.8 0 0 1-1.069.915c-1.068.383-2.594.078-3.662-.532l-13.507-7.251a96 96 0 0 1-3.664 5.419c6.335 2.442 14.347 7.02 19.994 10.605.228-.075.534-.151.84-.227" style="fill:#fff200"/><path d="M279.249 402.412c-.535-.305-1.145-.61-1.679-.992-30.22-17.78-50.517-50.594-50.517-87.984 0-37.467 20.297-70.28 50.517-88.06 4.96-2.977 10.148-5.494 15.566-7.479-6.945-9.158-11.142-20.984-11.142-33.804 0-4.961.611-9.693 1.756-14.195-1.908.534-4.045 1.299-6.181 1.985-2.595.915-5.113 1.756-7.402 2.365-.611 5.571-1.451 12.516-1.145 17.856-10.911 5.189-19.382 10.913-27.014 18.467l-13.505-9.004c-7.936 7.096-14.499 14.498-20.758 23.045l9.006 12.896c-7.173 10.759-13.05 22.664-15.644 33.958l-17.018 1.602c-3.127 11.217-4.958 23.044-5.417 35.101l14.499 5.647c.075 12.973 1.831 26.096 5.95 36.858l-12.744 10.378a148.5 148.5 0 0 0 15.645 32.735l14.957-3.663c7.477 10.608 16.482 20.451 26.021 26.862l-4.655 16.33c3.433 2.67 7.021 5.113 10.683 7.402 10.227-10.607 19.84-22.969 28.54-35.713.536-.839 1.146-1.679 1.681-2.593" style="fill:#fff200"/><path d="M392.566 301.913c1.373 0 2.441-1.145 2.441-2.671v-.763c0-1.45-1.068-2.671-2.441-2.671h-3.129c-.458-6.028-3.739-10.988-8.013-12.362v-9.767c0-11.828-6.41-21.519-14.346-21.519h-32.431v-12.667h-5.036v12.667h-32.203c-7.935 0-14.346 9.691-14.346 21.519v9.69c-4.426 1.297-7.783 6.257-8.241 12.439h-2.749c-1.296 0-2.364 1.221-2.364 2.671v.763c0 1.526 1.068 2.671 2.364 2.671h2.672v36.399h-2.672c-1.296 0-2.364 1.145-2.364 2.67v.765c0 1.448 1.068 2.671 2.364 2.671h2.672v11.903h21.596v-11.903h3.128c1.296 0 2.442-1.223 2.442-2.671v-.765c0-1.525-1.146-2.67-2.442-2.67h-3.128v-36.399h3.128c1.296 0 2.442-1.145 2.442-2.671v-.763c0-1.45-1.146-2.671-2.442-2.671h-3.128c-.458-6.105-3.816-11.065-8.089-12.362v-5.722c-.23-14.347 5.798-20.756 12.819-20.756h28.539v26.327c-4.425 1.145-7.936 6.257-8.393 12.514h-2.747c-1.297 0-2.366 1.221-2.366 2.671v.763c0 1.526 1.068 2.671 2.366 2.671h2.669v21.977c6.565-5.952 14.042-10.988 21.521-15.109v-6.868h3.128c1.298 0 2.366-1.145 2.366-2.671v-.763c0-1.45-1.068-2.671-2.366-2.671h-3.128c-.458-6.028-3.74-10.988-8.013-12.362v-26.478h28.768c7.022 0 12.973 6.867 12.821 20.756v5.645c-4.425 1.221-7.859 6.257-8.318 12.439h-2.67c-1.373 0-2.441 1.221-2.441 2.671v.763c0 1.526 1.068 2.671 2.441 2.671h2.67v36.399h-2.67c-1.373 0-2.441 1.145-2.441 2.67v.765c0 1.448 1.068 2.671 2.441 2.671h2.67v11.903h21.596v-11.903h3.052c1.373 0 2.441-1.223 2.441-2.671v-.765c0-1.525-1.068-2.67-2.441-2.67h-3.052v-36.399z" style="fill:#fff200"/><path d="M331.977 341.669c-1.372 0-2.67.154-3.968.383.762-2.138 2.136-4.272 3.968-6.257 2.747-3.053 6.639-5.724 10.301-7.25l.23-5.189c-3.587 1.145-7.173 2.9-10.531 5.189-9.157 6.105-17.322 15.949-21.29 27.622-1.07 2.596-1.602 5.419-1.602 8.394 0 12.591 10.301 22.893 22.892 22.893 12.514 0 22.74-10.302 22.74-22.893 0-12.59-10.225-22.892-22.74-22.892m0 38.384c-8.546 0-15.491-7.021-15.491-15.492 0-2.746.764-5.341 2.062-7.63h26.784c1.296 2.289 1.984 4.884 1.984 7.63 0 8.471-6.944 15.492-15.339 15.492" style="fill:#fff200"/><path d="M329.612 145.099c21.901 0 39.757 17.931 39.757 39.833 0 21.976-17.856 39.833-39.757 39.833s-39.835-17.857-39.835-39.833c0-21.902 17.934-39.833 39.835-39.833" style="fill:#fff"/><path d="M289.397 184.932c0 22.175 18.04 40.214 40.214 40.214 22.133 0 40.138-18.039 40.138-40.214s-18.004-40.214-40.138-40.214c-22.174 0-40.214 18.039-40.214 40.214m.763 0c0-21.754 17.699-39.452 39.452-39.452 21.711 0 39.374 17.697 39.374 39.452 0 21.753-17.663 39.452-39.374 39.452-21.753 0-39.452-17.698-39.452-39.452"/><path d="M312.056 187.038c-3.893.939-7.567 1.825-9.829 2.73l.284.707c2.211-.885 5.86-1.763 9.724-2.693l4.193-1.028-.187-.742zM342.881 190.772c6.04 2.799 10.801 6.248 13.09 7.905l.201.148.448-.619-.202-.145c-2.308-1.673-7.109-5.15-13.215-7.981zM294.896 180.376l.756.107c.662-4.704 6.066-14.87 8.789-18.838l-.631-.433c-2.655 3.871-8.209 14.142-8.914 19.164M317.255 158.37c1.31 7.111 5.19 12.468 6.795 14.441l.592-.481c-3.269-4.016-5.749-9.285-6.636-14.099zM327.286 150.277l.099-.758 15.262 1.984-.098.757zM339.466 176.15l9.074-11.07.59.485-9.073 11.07zM360.307 169.712l1.201 2.959c1.533 3.452 3.445 7.749 2.978 16.437l.761.042c.477-8.873-1.475-13.262-3.042-16.789l-1.172-2.885zM340.672 219.206l-2.382 1.175.346.679 2.37-1.17c4.8-2.339 10.775-5.252 15.447-10.515l-.573-.506c-4.57 5.15-10.469 8.026-15.208 10.337M325.435 213.81l2.061-16.712.758.093-2.061 16.712zM298.207 202.642c2.06 4.449 9.465 13.025 15.084 15.304l.287-.708c-5.623-2.28-12.882-11.038-14.677-14.915z"/><path d="M342.736 191.419v-8.929l1.297 8.317zm0-37.24v-2.593l6.64-1.146a41.1 41.1 0 0 1 12.592 11.447l-.689 9.538c-4.806-4.655-9.385-6.639-13.505-4.732 0-4.424-2.671-8.468-5.038-12.514m25.563 40.063a39.64 39.64 0 0 1-9.384 17.551c-1.604 0-3.128-.077-5.341-.077l1.678-14.041c3.281-2.67 8.012-6.868 10.074-10.836.073.535 1.524 4.198 2.973 7.403m-54.943 27.012c-.532-2.059-1.066-3.968-1.296-4.349q7.44-1.374 13.735-3.662c3.282 2.746 6.487 4.73 13.889 6.867l-2.9 3.968a36.8 36.8 0 0 1-7.173.687c-5.799.001-11.293-1.221-16.255-3.511m29.38-69.668v2.593c-.458-.839-.838-1.602-1.22-2.364zm0 30.904v8.929l-15.109 7.326-11.903-12.135 7.935-15.337 17.781 2.823zm-48.912 19.841c-2.594-5.189-3.968-11.065-4.046-17.247 2.291-2.213 6.03-6.409 6.03-7.02.993 1.45 4.272 10.302 7.936 11.6-2.747 4.348-4.043 11.064-4.426 14.269-2.443-.764-4.044-1.221-5.494-1.602m9.691-47.388c5.035-4.427 11.216-7.555 18.009-9.005 1.755 1.831 4.425 3.357 7.935 4.197-2.137.992-9.462 6.104-11.293 9.615-3.206 0-11.523.993-14.499 2.519-.457-1.831-.305-4.731-.152-7.326"/><path d="M325.666 212.883c-4.158 1.514-8.759 2.739-13.673 3.647l-.541.101.283.472c.081.134.365.819 1.253 4.247l.046.175.164.077c5.097 2.352 10.618 3.545 16.414 3.545 2.5 0 4.801-.221 7.245-.693l.146-.029 3.312-4.53-.524-.15c-7.23-2.086-10.409-3.997-13.749-6.794l-.168-.142zm.05.784c3.274 2.718 6.483 4.621 13.344 6.649-.482.663-2.333 3.194-2.489 3.409a36.6 36.6 0 0 1-6.959.659c-5.624 0-10.982-1.154-15.933-3.412-.589-2.258-.91-3.304-1.088-3.796 4.699-.889 9.114-2.065 13.125-3.509M349.311 150.065l-8.39 1.466 2.304 4.131c2.047 3.515 4.165 7.148 4.165 11.032v.597l.542-.25c3.713-1.718 8.114-.15 13.083 4.66l.587.568.755-10.492-.081-.111a41.2 41.2 0 0 0-12.708-11.553l-.12-.072zm-.018.777a40.5 40.5 0 0 1 12.283 11.166c-.02.264-.53 7.37-.622 8.632-4.775-4.417-9.099-5.927-12.863-4.454-.171-3.887-2.196-7.459-4.206-10.908l-1.773-3.181c.901-.156 6.916-1.208 7.181-1.255M364.986 186.663c-1.549 2.984-4.907 6.588-9.975 10.716l-.119.097-1.748 14.615 3.526.049 2.416.036.11-.125a40.1 40.1 0 0 0 9.475-17.721l.032-.125-.054-.122c-1.51-3.336-2.884-6.855-2.946-7.297l-.167-1.18zm.217 1.076c.492 1.398 1.613 4.138 2.691 6.527a39.3 39.3 0 0 1-9.16 17.142l-4.733-.068 1.61-13.473c4.697-3.836 7.878-7.225 9.592-10.128M295.43 178.029c-.149.601-3.522 4.467-5.917 6.782l-.119.114.003.165c.078 6.289 1.451 12.146 4.085 17.411l.075.15 6.078 1.772.059-.445c.488-4.087 1.926-10.24 4.371-14.11l.254-.405-.451-.158c-2.64-.936-5.245-6.383-6.644-9.308l-1.569-3.053zm.365.843.743 1.452c1.48 3.098 3.92 8.147 6.701 9.496-2.311 3.858-3.703 9.582-4.228 13.626-.694-.201-4.594-1.34-4.908-1.431-2.512-5.081-3.836-10.724-3.932-16.781 1.312-1.285 4.535-4.685 5.624-6.362M321.443 145.565c-6.772 1.447-13.059 4.59-18.181 9.091l-.12.106-.009.16c-.143 2.448-.323 5.496.164 7.439l.116.467.428-.22c2.837-1.455 10.989-2.476 14.326-2.476h.229l.108-.205c1.79-3.434 9.016-8.472 11.116-9.445l.996-.463-1.068-.254c-3.25-.778-5.93-2.192-7.75-4.09l-.147-.154zm-.013.796c1.731 1.737 4.157 3.053 7.043 3.874-2.676 1.536-8.638 5.818-10.513 9.14-3.284.034-10.716.939-13.989 2.359-.155-.825-.227-1.807-.227-2.869 0-1.269.074-2.59.142-3.727 4.959-4.324 11.015-7.355 17.544-8.777M323.321 171.097l-8.063 15.584 12.288 12.525 16.909-8.178-2.682-17.266-18.326-2.911zm.551.595 17.233 2.737c.082.522 2.427 15.628 2.508 16.158l-15.905 7.693-11.518-11.739z"/></svg>