<svg xmlns="http://www.w3.org/2000/svg" width="1000" height="1000" viewBox="0 0 1000 1000"><path d="m533.186 407.665 198.247-234.872-72.336-60.506zm231.031-226.992L505.27 487.465l72.838 234.631-79.018-185.372-10.459 208.227-10.463-208.222L399.15 722.1l72.834-234.632L213.04 180.678l-9.78-11.581 11.607-9.713 99.51-83.247 15.572-13.024 7.966 18.688 36.358 85.287-29.21-94.1-4.805-15.489 15.897-3.628 109.078-24.876L482.741 25l.9 17.973 4.995 99.343 4.99-99.343.9-17.973 17.502 3.995L621.102 53.87l15.901 3.628-4.809 15.49-29.21 94.1L639.337 81.8l7.967-18.688 15.57 13.024 99.511 83.247 11.604 9.713zM507.274 373.79 598.6 79.62l-75.678-17.253zm-37.294 0L454.336 62.362l-75.674 17.254zm-25.904 33.875-125.92-295.378-72.327 60.506z"/><path d="m488.631 909.269 31.78-61.619v-102.5l3.836-4.352 247.81-280.784v-216.97L499.13 508.965l-10.5 10.233-10.5-10.233-272.926-265.923v216.971l247.81 280.784 3.836 4.352v102.5zm60.266-51.128-46.87 90.897L488.63 975l-13.39-25.962-46.89-90.897-1.705-3.32V756.4l-247.81-280.783-3.836-4.348V171.562l25.605 24.954L488.63 477.14l288.027-280.634 25.604-24.954V471.26l-3.836 4.348L550.621 756.39v98.42z"/><path fill="#fff" d="m488.631 925.704 39.326-76.258V747.96l1.927-2.171 249.723-282.96V225.17L493.88 503.57l-5.248 5.116-5.247-5.117-285.729-278.4v237.659l249.724 282.96 1.918 2.171v101.487zm53.58-71.015-46.88 90.897-6.695 12.979-6.696-12.979-46.884-90.897-.86-1.655v-99.447L184.473 470.622l-1.918-2.176V189.431l12.802 12.468 293.274 285.756 293.279-285.76 12.802-12.468v279.015l-1.918 2.176-249.728 282.964v99.447z"/><path fill="#fff" d="m506.582 450.862 235.491-279.001-85.916-71.874-148.15 347.541zm251.88-275.06L496.852 485.754l30.291 97.587-33.964-79.678-4.547 90.635-4.555-90.635-33.965 79.678 30.296-97.587L218.8 175.8l-4.89-5.795 5.803-4.85L319.22 81.92l7.79-6.52 3.981 9.347 94.245 221.083-72.97-235.057-2.402-7.745 7.949-1.81 109.073-24.88 8.758-1.99.448 8.983 12.54 249.633 12.536-249.637.457-8.984 8.753 1.99 109.07 24.881 7.952 1.81-2.402 7.744-72.974 235.058 94.25-221.084 3.98-9.346 7.79 6.519 99.506 83.238 5.804 4.85zM496.72 433.182 608.2 74.088l-92.376-21.063zm-16.186 0-19.1-380.158-92.376 21.063zm-9.853 17.68-1.42-3.33L321.11 99.99l-85.92 71.874z"/><path fill="#df4a4c" fill-rule="evenodd" d="m488.631 443.629-20.09-399.946-109.078 24.872L476.19 444.588 324.06 87.695l-99.51 83.239L488.63 483.818l264.082-312.884-99.51-83.239-152.131 356.893L617.8 68.555 508.72 43.683Z" clip-rule="evenodd"/><path fill-rule="evenodd" d="M190.105 207.3v258.337l251.641 285.131v100.47l46.885 90.892 46.885-90.892v-100.47l251.641-285.13V207.3L488.631 498.163Z" clip-rule="evenodd"/><path fill="#fff" fill-rule="evenodd" d="m237.944 499.122-35.403-38.267V307.761l34.449-33.486 59.8 59.321v234.415l-36.833-41.14.19-41.686-23.157-22.425zm22.348-44.527.615-129.603-10.527-9.572-14.35 10.522.955 107.169zM402 686.155l-.733-115.014-32.24 77.249-21.24-134.742-.19 110.196-31.192-35.73V358.478l33.951 36.81 20.272 115.61 32.996-57.836 38.122 41.334v237.296ZM540.293 622.555l35.408 70.806-33.331 34.413-24.872-52.558-.308 168.661-28.55 61.045-29.676-61.293V513.472l29.486 36.005 27.695-29.45.538 92.353 16.761-111.48 41.298-49.445ZM674.248 579.497 651.22 605.17l-.076-35.245-27.89 25.631-.113 40.905-37.869 42.211V493.386l25.922-76.511 63.053-69.88zm-50.92-9.007 27.771-26.392-.271-141.559-18.62 19.249-8.546 30.658zM691.479 557.493l34.096-37.72.077-42.27 49.07-52.05V284.797l-20.67-22.556-62.569 61.786v233.465zm34.209-101.713.235-134.85 21.113-21.81.09 134.163z" clip-rule="evenodd"/><path fill="#fff" d="M489.106 166.5c-28.224 0-53.851 11.522-72.421 30.088-18.57 18.575-30.088 44.198-30.088 72.422 0 28.22 11.513 53.851 30.088 72.426 18.57 18.57 44.197 30.083 72.421 30.083 28.22 0 53.847-11.513 72.422-30.083 18.57-18.57 30.083-44.207 30.083-72.426s-11.513-53.843-30.083-72.422c-18.57-18.566-44.198-30.088-72.422-30.088m-87.793 14.716c22.506-22.51 53.57-36.462 87.798-36.462 34.227 0 65.296 13.952 87.793 36.462 22.51 22.502 36.462 53.567 36.462 87.794 0 34.218-13.956 65.296-36.462 87.798-22.501 22.506-53.566 36.457-87.793 36.457s-65.292-13.951-87.798-36.457-36.458-53.58-36.458-87.798c0-34.227 13.952-65.292 36.458-87.794"/><path fill="#fff" fill-rule="evenodd" d="M489.106 155.634c-62.451 0-113.39 50.93-113.39 113.38 0 62.456 50.934 113.385 113.39 113.385 62.447 0 113.38-50.934 113.38-113.385.005-62.455-50.933-113.38-113.38-113.38" clip-rule="evenodd"/><path d="M489.106 159.402c-30.178 0-57.583 12.31-77.438 32.17-19.855 19.854-32.165 47.25-32.165 77.433s12.314 57.584 32.165 77.439c19.855 19.86 47.26 32.169 77.438 32.169s57.584-12.314 77.439-32.17c19.86-19.854 32.164-47.255 32.164-77.438s-12.31-57.583-32.164-77.434c-19.855-19.86-47.26-32.169-77.439-32.169M406.33 186.23c21.216-21.222 50.512-34.377 82.776-34.377s61.556 13.15 82.781 34.377c21.222 21.225 34.381 50.512 34.381 82.78 0 32.27-13.155 61.556-34.38 82.782s-50.518 34.38-82.782 34.38c-32.268 0-61.56-13.154-82.776-34.38-21.222-21.221-34.386-50.513-34.386-82.781s13.164-61.551 34.386-82.781"/><path fill-rule="evenodd" d="m449.79 281.16 15.019-52.335h48.6l15.014 52.336-39.321 32.345ZM524.51 161.366c-23.447-9.084-46.885-9.247-70.323-.475 3.03 7.65 6.057 15.313 9.088 22.963q23.677-.24 47.36-.47c4.628-7.343 9.247-14.68 13.875-22.018M601.84 274.434c2.931-24.972-2.792-47.713-17.16-68.201-6.654 4.85-13.295 9.703-19.954 14.548 4.112 15.25 8.229 30.495 12.341 45.736 8.256 2.633 16.512 5.28 24.773 7.917M375.016 271.272c-.729-25.13 6.966-47.274 23.067-66.437 6.206 5.415 12.404 10.835 18.606 16.245a101621 101621 0 0 1-16.295 44.478c-8.455 1.905-16.919 3.814-25.378 5.714M520.094 377.296c24.556-5.42 44.157-18.29 58.792-38.579L558.6 324.644a84702 84702 0 0 0-39.158 26.658c.212 8.663.43 17.34.651 25.994M458.159 377.785c-24.55-5.433-44.148-18.3-58.792-38.593a32282 32282 0 0 1 20.294-14.064c13.051 8.88 26.103 17.76 39.15 26.65-.218 8.662-.44 17.33-.652 26.007" clip-rule="evenodd"/><path d="m472.06 168.075.815-1.055 1.312-.013 28.292-.222 1.56-.013.801 1.361 8.003 13.653 21.388 25.112 31.409 11.327v.005l16.77 5.736 1.407.484.362 1.434 6.536 26.632.326 1.316-.864 1.05-10.911 13.228-17.136 24.27-.81 32.232.543 14.666.054 1.511-1.285.85-25.07 16.68-1.091.724-1.249-.403-14.476-4.718-29.16-7.478-30.002 7.93-13.287 4.008-1.153.344-1.045-.638-24.46-15.064-1.177-.724-.122-1.348-1.402-15.603h.013l-3.673-32.974-15.055-25.175-15.413-16.932 4.008-3.656 15.585 17.114.172.194.145.25 15.516 25.934.308.507.063.584 3.746 33.62.022.073 1.28 14.25L445.9 352.83l12.138-3.664.086-.018 30.775-8.13.688-.185.665.172 29.861 7.654.168.046 13.368 4.36 22.718-15.1-.488-13.232v-.158l.841-33.142.023-.823.47-.67 17.634-24.985.131-.158 10.147-12.305-5.863-23.872-15.403-5.266-.046-.018-32.087-11.562-.67-.25-.475-.556-21.999-25.826-.15-.181-.13-.217-7.338-12.513-25.428.203-10.088 13.034.004.009-19.61 26.315-.457.606-.706.285-26.976 10.916-27.495 12.015-2.167-4.967 27.563-12.047.068-.032 26.265-10.63 19.159-25.71.031-.027Z"/><path d="m529.278 278.578 31.01 10.337-1.705 5.161-30.943-10.319-22.18-6.78-.706-.218-.511-.556-41.38-45.478-20.999-18.525 3.587-4.058 21.154 18.66.149.123.063.072 40.927 44.99 21.47 6.563Z"/><path d="m515.34 230.725-.068.077-48.68 45.948-.358.335-.439.185-14.942 6.383-.177.077-.1.027-33.878 10.337-1.574-5.198 33.784-10.31 14.313-6.111 48.296-45.591 19.19-19.574 3.868 3.804ZM491.825 313.506l.475 30.092-5.433.09-.484-30.141v-.041l.004-44.496h5.438v44.45Z"/></svg>