<svg xmlns="http://www.w3.org/2000/svg" width="1000" height="1000" viewBox="0 0 1000 1000"><path fill="#fff" d="M67.839 323.69c-12.842 4.61-25.028 6.26-34.576 5.598-5.271-.323-18.113-3.623-19.425-10.535 3.952-12.516 13.499-42.806 17.12-56.639L13.178 203.5c31.941 1.98 67.503-12.184 96.812-33.587l.326 119.532c-.003 10.54-16.794 25.685-42.477 34.246"/><path fill="#d13f3b" d="M849.565 312.169c-4.935-15.479-14.49-43.47-19.1-60.264l20.746-67.505c-38.525 2.306-81.661-14.82-116.897-40.5v138.96c.003 21.736 93.849 49.394 115.251 29.309"/><path fill="#fff" d="M839.032 307.886c-3.954-12.842-13.504-42.808-17.127-56.639l17.787-58.615c-31.944 1.98-67.508-12.508-96.812-33.584l-.33 119.529c-.658 19.102 76.394 39.844 96.482 29.309"/><path fill="#d13f3b" d="M1.651 323.036c4.94-15.48 14.159-43.466 18.768-60.262L0 195.27c38.527 2.306 81.667-14.487 116.897-40.497l-.329 139.291c.005 21.729-93.845 49.387-114.917 28.973"/><path fill="#fff" d="M11.858 318.753c3.952-12.516 13.502-42.806 17.125-56.639L11.524 203.5c31.615 1.98 67.508-12.184 96.483-33.587l.329 119.532c.662 19.428-76.392 39.844-96.478 29.309"/><path fill="#d13f3b" d="M427.42 933.538c172.218 0 313.157-140.606 313.157-313.486 0-172.544-140.94-313.152-313.157-313.152-172.55 0-313.484 140.605-313.484 313.152.003 172.878 140.935 313.486 313.484 313.486"/><path fill="#d13f3b" d="M427.42 950c181.11 0 328.957-147.518 329.617-328.96V0H97.472v621.04C98.129 802.482 245.98 950 427.42 950"/><path fill="#fff" d="M427.42 934.195c172.875 0 314.472-142.58 315.127-318.09v-600.3H111.962v600.297c.66 175.513 141.923 318.093 315.458 318.093"/><path fill="#d13f3b" d="M371.77 312.169V14.179H234.46v359.566c39.51-30.955 86.272-52.358 137.31-61.576M482.738 312.169V14.179h137.316v359.566c-39.516-30.955-86.276-52.358-137.316-61.576"/><path fill="none" stroke="#000" stroke-width=".98860685" d="M779.102 158.39c-90.885-27.989-209.76-45.114-339.17-45.114-140.936 0-269.026 20.086-362.543 53.015v115.585c93.19-29.64 221.61-48.082 362.544-48.082 129.412 0 248.286 15.481 339.169 40.833z"/><path fill="#fff" stroke="#d13f3b" stroke-width="14.24364207" d="M386.707 939.169c174.67 22.72 336.109-101.416 358.836-276.427 22.728-175.007-101.413-336.114-276.42-358.84-174.67-22.724-336.116 101.409-358.838 276.084-22.728 175.01 101.41 336.455 276.422 359.183Z"/><path fill="none" stroke="#d13f3b" stroke-width="14.24364207" d="m659.737 776.365 53.244-151.606"/><path fill="none" stroke="#d13f3b" stroke-width="13.83022466" d="M428.08 523.9V389.224"/><path fill="none" stroke="#d13f3b" stroke-width="14.24364207" d="m198.13 449.408 134.99-104.805M197.11 785.863l-52.232-164.16M363.64 895.75l132.615-2.034M295.47 806.55l59.692-111.924M561.714 797.731l-60.711-98.016M533.224 585.753l118.032-52.57M536.277 345.62l128.886 104.468M326.674 588.129 217.8 537.253"/><path fill="#d13f3b" d="M526.442 925.937c62.07-20.008 116.671-59.016 156.352-110.906l-15.939-52.571-112.603 23.403-67.154 107.517zm221.474-311.696c-1.353-65.456-23.059-127.528-59.35-178.74l-41.722-3.05-5.42 104.463 70.204 103.444zM535.26 319.844c-21.025-7.46-43.075-12.89-66.136-15.941-47.823-6.104-94.627-1.358-138.04 12.551l-9.838 31.88 105.82 43.414 118.026-40.022zM160.483 445.34c-26.117 39.34-43.753 85.125-50.198 134.648-1.017 9.154-2.036 18.313-2.373 27.134l43.073 33.915 73.6-100.393-18.315-102.43zm18.314 376.81c40.022 49.857 94.626 87.506 158.39 106.5l33.918-32.904-69.867-98.696L192.7 773.989zm161.443-99.035 175.346-.342 41.38-147.536-128.884-96.999-125.152 98.697z"/><path fill="#fff" stroke="#d13f3b" stroke-width="2.37265644" d="M376.87 861.156h181.793v-39.341c-26.792.675-44.094-3.056-64.783-15.263v-350.36h76.654l7.46 30.865h51.556v-88.864l-135.67-.678H230.69v89.542h55.282l8.481-30.865h79.705v349.004c-18.996 12.888-37.985 16.283-65.12 17.294l-.68 38.666z"/><path fill="#d13f3b" d="M388.74 849.963h153.643l.68-16.955c-21.027-2.039-43.413-4.412-62.41-14.924V443.302h103.786l4.411 30.865h26.454v-65.461H248.667v65.46h26.114l5.426-30.864h108.536v373.082c-19.335 11.193-43.075 14.585-65.12 16.621l.679 16.956h64.439zM736.625 136.659l-9.226-2.311-9.873-1.972-9.552-2.306-9.876-1.972-10.212-1.98-10.21-1.975-10.204-1.974-10.208-1.646-10.538-1.651-10.864-1.641-10.539-1.317-10.866-1.649-11.199-1.317-10.864-1.32-11.196-.989-11.524-.986-11.196-.983-11.53-.994-11.521-.989-11.856-.654-11.524-.66-11.855-.326-11.85-.663-12.188-.331-11.855-.324H426.76l-13.17.324h-12.845l-13.17.662-12.842.332-12.839.654-12.844.663-12.515.986-12.84.988-12.184.987-12.515 1.314-12.18 1.323-11.857 1.314-12.182 1.318-11.527 1.646-11.853 1.646-11.527 1.974-11.527 1.649-11.193 1.974-10.867 2.306-11.196 1.975-10.538 2.306-10.867 2.306-10.204 2.306-10.539 2.634-9.878 2.632-9.88 2.637-9.877 2.63-9.55 2.966-9.55 2.965-8.891 2.961-15.474 5.27v135.336l21.074-6.584 8.892-2.632 9.216-2.303 9.221-2.638 9.55-2.303 9.878-2.637 9.879-2.303 10.207-1.978 10.21-2.305 10.209-1.975 10.536-1.977 10.867-1.975 10.867-1.975 11.198-1.646 11.193-1.65 11.196-1.642 11.526-1.32 11.853-1.648 11.527-1.315 11.85-.988 12.185-1.315 12.184-.991 12.185-.986 12.513-.989 12.184-.66 12.841-.655 12.513-.662 12.845-.326 12.839-.331 12.844-.33h13.17l12.842-.328 11.853.329h12.184l11.856.329 11.853.33 11.855.327 11.524.331 11.53.66 11.522.655 11.524.66 11.193.991 11.198.655 11.196.991 11.198.986 10.867 1.317 10.867.989 10.536 1.315 10.533 1.32 10.538 1.645 10.541 1.318 10.207 1.646 9.879 1.646 10.21 1.646 9.878 1.646 9.55 1.977 9.546 1.975 9.55 1.98 9.219 1.971 9.223 1.975 8.89 2.306 8.892 1.977 8.559 2.303 20.748 5.93V151.146l-15.477-4.614-8.892-2.63-9.218-2.308-8.893-2.632Z"/><path fill="#fff" d="M779.102 158.39c-90.885-27.989-209.76-45.114-339.17-45.114-140.936 0-269.026 20.086-362.543 53.015v115.585c93.19-29.64 221.61-48.082 362.544-48.082 129.412 0 248.286 15.481 339.169 40.833z"/><path fill="#d13f3b" d="M620.386 211.405v-14.819l10.861 1.646L620.71 163h-.323v-19.428l10.535 1.644 29.964 89.239-19.102-2.635-5.595-18.442zm109.976-18.442c-.986-4.278-2.632-8.23-5.269-11.85-2.303-3.295-6.915-5.603-13.17-7.244-5.267-1.32-9.881 0-14.159 3.62-4.286 3.624-6.26 10.868-6.26 21.403 0 5.603.66 10.536 1.972 15.15 1.65 4.94 3.954 8.888 6.917 12.185 2.964 3.289 6.916 5.595 11.525 6.581 3.29.986 6.255.986 8.892.331 2.306-.662 4.61-1.98 6.258-3.952 1.643-2.306 2.632-4.94 3.29-8.232l17.458 4.28c-.991 5.927-3.3 10.865-6.26 14.817-2.966 4.285-7.247 6.915-12.185 8.232q-7.406 2.473-17.782 0c-7.246-1.643-13.83-4.938-19.757-9.547-5.6-4.94-10.207-10.867-13.17-18.44-3.297-7.572-4.94-16.136-4.94-25.683 0-9.55 1.643-17.45 4.94-23.38 3.292-5.926 7.899-10.21 13.828-12.181 5.603-1.977 12.184-2.306 19.428-.658a48.7 48.7 0 0 1 15.805 6.584c4.283 2.635 7.906 5.924 10.867 9.876 2.965 3.623 5.274 7.246 6.586 11.198 1.649 3.623 2.303 7.575 2.637 10.867zm-109.976-49.392V163l-10.541 31.939 10.54 1.648v14.82l-15.478-2.304-5.6 16.79-18.771-2.631 30.3-81.007zm-204.493 54.99v-14.49l10.867-.324-10.536-33.592h-.331v.332-19.429l10.867-.328 29.635 84.956-19.097.331-5.598-17.456zm143.903 22.394-16.791-.986v-61.907l-16.14 60.59-17.455-.989-15.474-63.225h-.326v61.905l-16.465-.986v-85.616l26.012 1.98 15.48 59.928 15.473-57.953 25.686 1.974zm-143.903-89.897v19.429l-10.865 33.586h10.865v14.49l-15.476.332-5.927 17.78-18.768.33 30.295-85.944h9.876zm-174.519 67.174v-14.816h1.649c5.595-.986 9.218-2.634 10.538-5.598 1.646-2.966 2.635-6.255 2.635-9.552 0-4.278-1.32-7.244-3.952-8.556-2.306-1.648-5.927-1.98-10.867-1.32v-14.819l6.258-.662c5.269-.986 9.878-.324 13.827 1.32 3.955 1.646 6.915 4.283 9.221 8.235 1.977 3.949 2.963 8.558 2.963 14.159 0 3.292-.66 7.243-2.305 11.524-1.318 4.607-4.281 8.561-8.233 12.184-3.952 3.952-9.547 6.255-16.465 7.241zm102.404-25.354c2.638 0 5.6.657 8.564 2.306 2.637 1.317 5.272 3.62 7.246 6.255 1.978 2.96 2.966 6.255 2.966 10.207 0 4.61-1.317 9.224-3.292 13.502-2.306 4.28-5.929 7.903-11.198 10.87-4.935 3.288-11.527 4.937-19.425 5.594-7.242.663-13.173.332-18.114-.986-4.938-1.643-8.558-3.62-11.195-6.257-2.635-2.63-4.61-5.596-5.6-8.562-.987-3.289-1.318-6.252-1.318-9.55l17.125-1.317c0 1.98.328 3.952 1.646 5.93.99 1.974 2.963 3.623 5.929 4.935 2.634 1.32 6.586 1.648 11.195 1.32 4.61-.655 8.564-1.977 11.527-4.61 3.295-2.634 4.938-5.597 4.938-9.552 0-2.632-.988-4.94-2.303-6.584-1.649-1.646-3.62-2.963-6.258-3.623-2.634-.986-5.266-.986-8.23-.655l-13.501.986V168.6l13.17-.986c4.61-.331 7.904-1.649 10.538-3.62 2.966-1.975 4.283-4.941 4.283-8.233 0-1.98-.657-3.952-1.977-5.272-1.317-1.646-3.294-2.632-5.598-3.292s-4.937-.66-7.572-.66c-4.61.66-8.232 1.649-10.538 3.297-2.637 1.644-3.952 3.623-4.94 5.596-.66 1.972-.99 3.623-.99 5.597l-17.122 1.318c0-3.95.989-8.233 2.966-12.51 1.977-4.284 5.598-8.236 10.541-11.859 4.938-3.29 11.524-5.264 19.426-5.926 8.232-.655 14.816 0 19.756 2.303 4.938 2.311 8.564 5.272 10.539 8.892 1.646 3.623 2.634 7.244 2.634 11.199 0 4.937-1.315 8.892-4.609 11.853-2.974 2.96-6.925 4.935-11.209 6.58m-195.923-12.842 10.538-2.303 29.304 78.7-19.097 4.281-5.272-16.467-15.476 3.62V213.05l10.538-2.306-10.204-31.281h-.331zm93.52-16.465v14.82h-.99l-13.83 1.974v25.354l14.82-2.303v14.819l-14.82 1.975v30.952l-17.78 2.635V148.18Zm-114.597 106.69-18.108 4.28 29.637-92.201 9.548-2.304v19.426l-10.539 36.221 10.539-2.632v14.82l-15.148 3.62z"/></svg>