<svg xmlns="http://www.w3.org/2000/svg" xml:space="preserve" viewBox="0 0 660 660"><path d="M330.343 625.307c154.757 0 280.994-126.377 280.994-280.995 0-154.755-126.237-280.994-280.994-280.994-154.617 0-280.854 126.238-280.854 280.994.001 154.617 126.238 280.995 280.854 280.995" style="fill:#464da1"/><path d="M330.343 620.554c152.24 0 276.382-124.144 276.382-276.242 0-152.241-124.142-276.379-276.382-276.379-152.099 0-276.242 124.138-276.242 276.379.001 152.099 124.144 276.242 276.242 276.242" style="fill:#fff"/><path d="M330.343 615.938c149.725 0 271.767-122.041 271.767-271.626S480.068 72.684 330.343 72.684c-149.444 0-271.486 122.044-271.486 271.628 0 149.585 122.042 271.626 271.486 271.626" style="fill:#464da1"/><path d="M330.343 611.328c147.068 0 267.013-120.09 267.013-267.016 0-147.068-119.945-267.014-267.013-267.014z" style="fill:#fff"/><path d="m330.485 234.851-31.878 14.679c5.592 11.884 10.207 26.004 12.583 42.359l2.517 60.811c-36.488 17.895-68.64 20.972-80.244 2.935-16.776-26.421-8.527-77.586 59.553-129.172 12.305-9.785 24.747-18.453 37.469-26.841v-10.205c-11.506 5.374-22.508 10.12-40.846 19.397l-12.082 6.471c-110.025 60.838-119.862 136.018-94.42 165.657 21.11 24.745 69.339 24.885 130.989-15.099l1.539 34.811c-7.129 2.935-15.237 5.589-21.669 6.287v23.907c7.551-1.956 14.958-4.471 22.509-8.388l8.944 223.397h5.036z" style="fill:#fff"/><path d="M330.485 199.621a12 12 0 0 1 1.396-.838c15.657-10.066 31.875-18.456 48.089-25.444v-.699c-16.496 4.195-31.173 8.248-48.089 16.216-.419.141-.978.422-1.396.56zM335.237 645.855l16.216-237.096c22.507-11.603 47.392-31.316 69.059-53.684 19.433-20.271 42.777-46.412 49.629-68.36 12.022-39.424-3.355-51.865-11.322-61.931-12.163-15.098-48.092-30.615-95.763 14.54l1.396-19.992-33.41 15.237-.558.281v411.005z" style="fill:#464da1"/><path d="m352.71 391.425 7.412-106.526c18.592-35.508 47.391-47.532 63.606-32.575 18.175 16.777 17.335 56.061-10.765 88.354-19.151 22.088-41.658 43.338-60.253 50.747M232.763 554.986l.56.141c4.754 2.516 7.829 5.733 9.227 9.787 1.258 3.773.979 7.41-.698 10.763-1.819 3.636-4.613 5.875-8.389 7.13-.279 0-.42.139-.7.139v-12.999c.28-.563.28-1.26 0-1.818zm0-411.702v-8.948l1.538-.56c1.54-.839 1.959-1.958 1.4-3.355-.42-.699-.842-1.118-1.539-1.258-.418-.141-.839-.141-1.399 0v-8.947c2.657-.978 5.172-1.258 7.41-.561 2.658.7 4.754 2.657 6.011 5.452 1.4 2.937 1.538 5.732.561 8.389-.98 2.655-2.795 4.753-5.592 6.01zm0-28.94v-7.548l2.938 6.151zm-4.892 436.031 4.474 2.237-.837 1.818 1.256.556v13.143c0-.28-.139-.56-.139-.841-.559-1.255-1.817-2.374-3.635-3.212q-.42-.42-.84-.42s-.138-.141-.279-.141zm4.892 32.571c-1.536.42-3.213.561-4.893.42v-9.648c.56 0 1.119 0 1.539-.14 1.397-.278 2.376-1.119 2.935-2.374q.42-.631.419-1.258zm0-476.15v7.548l-4.893 2.238v-7.69l4.893-2.236zm0 13.421v8.947c-.139 0-.279.14-.558.279l-2.518 1.119 2.098 4.332.978-.558v8.948l-4.893 2.377v-23.069l4.335-2.097c.279.001.419-.139.558-.278M212.354 546.18c2.516.141 5.172.979 7.83 2.379l1.677.979.978-1.822 5.032 2.659v13.141c-.141-.142-.559-.142-.838-.282l-4.194 8.109c.699.562 1.399.983 2.098 1.399 1.119.56 2.097.838 2.935.978v9.648c-2.515-.14-5.172-.977-7.828-2.236l-1.675-.979-1.12 2.098-4.893-2.52v-13.557c.28.138.559.138.839.279l4.191-8.108c-.697-.558-1.256-.98-1.816-1.26-1.258-.558-2.238-.978-3.215-.978v-9.927zm15.517-437.288v7.69l-3.774 1.819 2.238 4.89 1.537-.699v23.069l-2.374 1.117-13.143-28.24v-2.377zm-20.13 468.463.979-2.095-2.098-.979c-3.355-1.68-5.87-3.777-7.548-6.432v-15.237c1.815-2.798 4.473-4.755 7.689-5.735 1.817-.556 3.634-.838 5.591-.697v9.925c-.56 0-1.119 0-1.539.139-1.396.281-2.375 1.119-3.074 2.519-.698 1.256-.698 2.514-.279 3.633.56 1.259 1.677 2.237 3.354 3.216.56.139.98.42 1.539.559v13.557zm4.613-461.193v2.377l-.98-1.956zm-13.28 420.094v-2.798l2.375 1.819zm0-373.402v-39.563l3.495-2.377 3.215 37.605zm0 404.995c-.559-.978-1.119-2.097-1.537-3.215-1.121-3.634-.838-7.271.837-10.766.282-.417.56-.838.7-1.255zm0-444.558v39.563l-2.098 1.398-1.398-16.777-10.484-5.73v-9.367l1.258-.839 8.248 4.476-.839-9.369zm0 410.167v2.798l-13.002 5.87-.977 5.731v-15.518l8.107-3.494zm-13.98-359.419 7.828-6.85-7.828-6.152zm0-41.661v9.367l-7.83-4.335zm0 28.659v13.002l-.281.279-19.292-15.519v-11.741l.84-.84zm0 371.302v15.518l-2.658 14.819-8.525-6.71 1.676-9.228-8.667 3.776-1.399-1.117v-8.249zm-19.573-15.097V503.68l6.711 6.994zm0-325.59v-1.956l1.399.279zm0-9.925 3.634 6.151 7.971-6.99-11.605-19.851zm0-34.668V158.8l-.419-.28-.7.561 1.119 1.957v20.69l-13.56-22.928zm0 42.637v1.956l-5.592 6.71-13.839-2.795v-12.162l.838 2.517zm0 313.984v13.562l-10.624 10.206 4.334 4.614-6.432 6.292-6.709-6.852V518.5l1.259 1.26 17.475-16.776zm0 37.468v8.249l-6.848-5.313zm-19.431-40.543v-20.271l9.786 13.281zm0-289.799 1.957 1.676 6.851-8.248-8.808-7.27zm0-27.401v12.162l-2.097-.56 2.097 1.956v13.842l-6.152-5.172v-35.231l1.26-1.536zm0 296.929v20.271l-6.152 4.615v-13.281l3.077-2.236-1.679-2.238c-.419-.558-.979-.979-1.398-1.12v-10.902c2.239.697 4.196 2.097 5.732 4.193zm0 38.166v13.001l-6.152-6.432v-6.989l2.936-2.935zm-6.152-348.098v35.231l-16.636-13.981v-1.536l6.15-7.271 9.229 7.689-4.474-13.281zm0 305.041v10.902q-1.048-.42-2.095.421c-.699.417-.98.978-.98 1.677 0 .561.141 1.26.56 1.817l1.678 2.236.836-.558v13.281l-11.042 7.967-5.594-7.825v-11.886l4.895 6.854 4.472-3.077-3.915-5.314c-1.817-2.517-2.656-5.032-2.377-7.689.28-2.655 1.678-5.032 4.195-6.849 2.656-1.957 5.312-2.659 8.248-2.239.282.142.7.282 1.119.282m0 42.636v6.989l-3.494-3.633zm-16.636-42.776c3.497-2.236 6.012-5.173 7.27-8.945 1.677-4.476 1.119-9.228-1.539-14.122-1.537-2.936-3.494-5.174-5.731-6.848zm0-221.859v-6.152l2.098.699zm0-63.328v1.536l-.698-.558zm0 57.176v6.152l-1.816 4.613-7.41-2.796v-11.603zm0 198.095v29.915c-.279.141-.698.28-.978.558-2.795 1.399-5.451 2.097-8.248 2.097v-11.74c.839-.141 1.817-.421 2.656-.838 1.678-.98 2.938-2.098 3.636-3.636.839-1.536.839-3.217 0-4.893-.839-1.54-2.236-2.519-4.054-2.658a6.2 6.2 0 0 0-2.238 0v-11.741c1.399 0 2.797.28 4.055.558 1.957.56 3.634 1.258 5.171 2.378m0 48.088v11.886l-8.247-11.325 5.592-4.055zm-9.226-59.273v-10.625l2.238-.276 3.494 10.065zm0-156.853v-15.378l3.914 5.313zm0-33.691v11.603l-6.849-2.658 6.849 9.367v15.378l-19.571-7.55v-11.464l7.409 2.797-7.409-10.347v-14.538zm0 179.919v10.625l-19.571 2.935v-10.625zm0 18.874v11.741c-.979.139-1.817.561-2.655.977-1.819.984-3.076 2.099-3.776 3.497-.839 1.676-.699 3.356.141 4.893.837 1.68 2.097 2.518 3.773 2.799.84.136 1.678 0 2.517-.14v11.74c-1.398 0-2.794-.14-4.193-.557-4.612-1.12-8.249-4.195-10.904-9.087-2.658-4.895-3.076-9.648-1.539-14.259 1.539-4.053 4.334-7.129 8.388-9.367 2.655-1.4 5.454-2.237 8.248-2.237m-19.572-18.312 18.454-10.486-3.498-10.066-14.956 8.525zm0-23.35v-10.903l4.474-.977-.559-2.655q-.629-2.52-2.935-2.099c-.421 0-.699.137-.979.417v-12.161c2.516-.282 4.752.281 6.71 1.539 2.236 1.538 3.776 3.773 4.334 6.99l3.355 17.053zm0-35.787v-10.626l8.806-.417.422 10.764zm0-18.734v-10.624l8.247-.28.281 10.626zm0-20.548v-10.906l2.796.561.559-2.657c.279-1.817-.42-2.795-1.957-3.076-.558-.138-.977-.138-1.398.142V297.62c.979-.138 1.957 0 3.076.141 3.216.56 5.592 1.957 7.27 4.334 1.678 2.237 2.236 5.032 1.678 8.107l-3.077 17.196zm0-33.133v-10.905l16.495 2.935-1.816 10.625zm0-56.339v14.538l-3.774-5.312 3.494-9.365zm0 22.087v11.464l-8.67-3.355v-8.526l1.119-2.517zm0 23.348v10.905l-8.67-1.538v-10.765zm0 15.936v12.164c-.139 0-.42.139-.558.278-.422.42-.7.978-.841 1.818l-.558 2.656 1.957.278v10.906l-8.67-1.539v-17.754c.561-2.935 1.82-5.173 3.778-6.851 1.397-1.117 3.075-1.815 4.892-1.956m0 38.026v10.624l-3.774.142.279 8.107 3.496-.142v10.626l-8.67.28v-29.358zm0 36.767v12.161c-.28.141-.42.421-.558.562-.28.558-.422 1.255-.28 2.097l.558 2.654h.28v10.903l-8.67 1.68v-11.044h.561l-.561-2.236v-11.745c.141-.14.141-.281.282-.418 1.397-2.516 3.635-3.917 6.849-4.475.42-.139.982-.139 1.539-.139m0 39.701v12.026l-3.634 1.955.419.839 3.215-.421v10.625l-8.248 1.119-.422-.977v-20.41zm-8.669-159.789v-9.364l1.539-.559c1.4 2.377 1.819 4.751.979 6.849-.558 1.258-1.259 2.236-2.518 3.074m0-9.365v9.364c-.697.561-1.535.981-2.653 1.259l-1.401-2.797c1.68-.697 2.798-1.537 3.217-2.795.56-1.258.419-2.795-.558-4.472zm0 14.959v8.526l-2.794-.978zm0 22.367v10.765l-9.503-1.679 1.816-10.484zm0 26.142v17.754l-15.096-2.656 1.816-10.486 12.164 2.098 1.116-6.571zm0 29.497v29.358l-15.376.559-.419-10.624 12.72-.421-.278-8.107-12.723.42-.281-10.626zm0 41.519v11.745l-.837-4.333c-.419-2.796-.139-5.314.837-7.412m0 13.982v11.044l-9.644 1.816-1.957-10.486zm0 25.444v20.41l-5.729-17.058z" style="fill:#fff"/><path d="M577.225 413.512v-22.788c.421.563.842 1.119 1.26 1.68 2.656 4.055 3.215 8.666 1.957 14.12-.698 2.654-1.817 5.032-3.217 6.988m0-36.625V366.26c1.401 0 2.237-.698 2.379-2.236l.141-1.817-2.519-.142v-10.763l10.486.84-1.397 16.356c-.279 2.795-1.257 4.892-2.934 6.431-1.681 1.397-3.777 2.097-6.156 1.958m0-72.137v-3.916h.561l1.818-.279-.281-2.097 4.754-.839.98 5.873-6.571 1.119c-.42.139-.84.139-1.261.139m0-9.228v-4.054l.842-.139-.42-1.958 4.893-.837.977 5.87zm0-21.109v-2.795l.842 2.375zm0-2.796v2.795l-2.653 1.537v-12.72zm0 19.851v4.054h-.277c-.838.14-1.678.14-2.375-.139v-3.915c.419.281.977.281 1.675.14zm0 9.366v3.916q-1.467 0-2.515-.839c-.138 0-.138-.141-.138-.141v-3.914l.419-.419c.558.558.977.977 1.396 1.257.28.14.56.14.838.14m0 50.468v10.763l-2.374-.28-.141 1.821c-.138 1.677.559 2.513 2.237 2.655h.277v10.626h-.418c-.839-.141-1.677-.282-2.235-.421v-25.443zm0 39.423v22.788c-.838 1.118-1.676 2.096-2.653 2.935V388.21c.976.699 1.815 1.535 2.653 2.515m-2.653-127.496v12.72l-10.067 5.454V269.52l2.655-1.538-.277-.839-2.378.281v-10.485l7.551-.979zm0 28.239v3.915c-.559-.141-.979-.279-1.538-.699-.561-.281-1.259-.978-1.961-1.957l2.38-2.516c.278.559.697.978.978 1.119 0-.001 0 .138.141.138m0 8.388v3.914c-.559-.418-1.259-.979-1.957-1.957zm0 51.166v25.443c-.979-.28-1.678-.558-2.378-1.119-.979-.697-1.677-1.675-1.817-2.935q-.837 2.725-2.935 4.193c-.838.699-1.817 1.119-2.936 1.401V366.4c.699 0 1.119-.282 1.537-.7.42-.418.7-.978.842-1.817l.138-2.796-2.516-.141v-10.762zm0 37.187v28.238c-.84.561-1.678 1.119-2.516 1.54a18 18 0 0 1-7.551 2.097v-11.885c1.119.141 2.098 0 3.075-.417 1.679-.702 2.796-1.957 3.215-3.638.418-1.815.142-3.355-1.118-4.61-1.117-1.399-2.517-2.236-4.474-2.658-.141-.141-.419-.141-.699-.282v-11.881c1.259.142 2.378.281 3.635.558 2.378.561 4.614 1.54 6.433 2.938m-10.067 62.771v-20.274l7.551 3.076-5.594 13.982c-.559 1.253-1.118 2.237-1.957 3.216m0-209.56v-4.333l1.817 3.356zm0-4.333v4.333l-5.591 2.797-.979-1.957v-18.175zm0 19.851v10.485l-6.571.838v-10.486zm0 12.582v11.883l-6.571 3.635v-11.883zm0 80.665v10.762l-2.236-.278-.281 2.797c-.141 1.816.561 2.653 2.238 2.935h.279v11.605c-.837.276-1.816.276-2.794.135-1.401-.135-2.658-.417-3.776-.978v-27.539zm0 34.528v11.881c-1.538-.276-3.077-.135-4.333.421-.979.42-1.677.839-2.238 1.677v-12.999c2.097-.699 4.335-1.12 6.571-.98m0 23.486v11.885c-1.538 0-3.214-.141-4.893-.561-.56-.139-1.117-.417-1.678-.558v-13.842s.142.142.142.281c1.117 1.26 2.516 2.098 4.473 2.515.698.141 1.396.28 1.956.28m0 22.507v20.274c-.979 1.114-2.097 2.095-3.636 2.794q-1.468.626-2.935.838v-10.626c.142 0 .42-.135.699-.275.56-.282.979-.702 1.257-1.401l.702-1.535-2.658-1.117v-11.605zm-6.571-206.621v18.175l-3.914-7.551-3.914 1.957 3.494 6.712-7.407 3.773-3.497-6.708-3.355 1.676v-11.883l17.197-8.807zm0 33.691v10.486l-16.076 2.097-2.517-7.829v-2.376zm0 15.378v11.883l-9.646 5.173-3.355-10.066zm0 76.47v27.539a7.1 7.1 0 0 1-2.935-2.372c-1.538-1.819-2.237-4.475-1.957-7.833l1.539-17.612zm0 36.069v12.999c-.558.561-.838 1.259-.978 1.961-.418 1.677-.141 3.076.978 4.47v13.842c-3.774-1.258-6.569-3.497-8.667-6.571-2.657-4.054-3.356-8.806-1.957-14.12 1.396-5.453 4.194-9.226 8.387-11.603.7-.281 1.399-.697 2.237-.978m0 42.359v11.605l-1.816-.702-.699 1.54c-.56 1.536-.141 2.653 1.255 3.216.422.141.842.275 1.26.275v10.626c-1.678.14-3.495-.141-5.172-.838-3.217-1.258-5.172-3.216-6.151-6.01-.838-2.519-.558-5.314.7-8.529l1.396-3.356-9.366-3.773v-6.011l1.819-4.755zm-18.593 61.229v-11.6c.42-.421.842-.842 1.26-1.4.977-1.539 1.118-3.075.559-4.752-.419-.977-1.118-1.96-1.819-2.657V455.31c1.678.421 3.216 1.26 4.894 2.237 3.914 2.519 6.29 5.872 7.409 10.065 1.259 4.755.28 9.367-2.796 13.982-2.516 4.054-5.732 6.569-9.507 7.687m0-234.999 4.754-2.516-4.754-9.226zm0-41.24v-9.506l6.014-.28 6.289 8.948zm0-14.539v-4.054l1.819 2.655zm0-4.053v4.054l-7.967 5.591 7.967-.56v9.506l-5.59.28-8.808 17.615v-21.389l.7-1.538-.7.559v-13.001l10.065-7.129zm0 35.786-12.443 6.293 9.648 19.011 2.795-1.258V242.54l-.141-.279.141-.142zm0 29.919v2.376l-.838-2.235zm0 165.939v6.011l-2.096-.839zm0 29.216v13.562c-.559-.558-.979-.98-1.677-1.26-1.538-1.119-3.215-1.677-4.753-1.536-1.957 0-3.356.839-4.335 2.377-.978 1.536-1.119 3.213-.418 4.894q.84 2.304 3.355 3.771c1.536 1.121 3.216 1.681 4.752 1.54 1.258 0 2.238-.42 3.076-.978v11.6c-.699.281-1.397.422-2.096.563-4.333.696-8.387-.141-12.302-2.661v-29.215c2.095-1.68 4.333-2.657 6.99-3.074 2.516-.421 5.032-.281 7.408.417m-14.398 56.9v-14.259l7.969 6.988-7.129 7.967zm0-316.643v13.001l-10.065 6.99v-13.001zm0 13.98-6.571 13.141 6.292 8.806.279-.558zm0 248.421v29.076c-3.916-2.514-6.293-5.872-7.409-9.925-1.26-4.751-.281-9.365 2.795-13.978 1.397-2.237 2.937-3.914 4.614-5.173m0 39.983v14.259l-8.668-7.551-1.397 1.68v-17.057zm-10.065 27.678v-11.604l5.731 5.032zm0-340.826v-19.991l6.987 7.549zm0-19.991v19.991l-10.206 17.895-.558-.699v-18.732l3.213-5.873-3.213 1.539V167.75l9.367-4.474zm0 37.746-7.131 4.892 6.152 8.808.979-.699zm0 286.723v17.057l-3.917 4.336 3.917 3.351v11.604l-1.26 1.401-9.505-8.248v-14.124l.558.561 5.311-6.011-5.87-5.172v-6.712l3.634-4.335zm-10.765 46.834v-.838l.279.558zm0-368.366v11.183l-3.357 1.537 2.938 3.357.418-.559v18.732l-6.57-6.99 2.375-4.473-6.152-6.571-4.613 1.958-2.377-2.377v-7.689zm0 319.576v6.712l-3.357-2.935zm0 17.334v14.124l-15.658-13.562 6.99-7.967zm0 30.618-17.336-20.549v19.43l1.398-1.118 2.795 3.216-4.193 3.493v8.388l1.259 1.4 16.077-13.422zm-17.336-371.024v-21.53c2.656 2.518 4.193 5.453 4.754 8.53.559 3.913-.279 7.407-2.518 10.622-.698.84-1.397 1.678-2.236 2.378m0-21.53v21.53c-1.957 1.677-4.333 2.795-7.129 3.216-1.118.139-2.236.139-3.495.139v-10.065c.419.139.699.139.978 0 1.399 0 2.517-.699 3.358-1.957.837-1.119 1.119-2.377.837-3.636-.279-1.258-1.257-2.517-2.796-3.635-.7-.42-1.399-.839-2.236-1.256l-.141.139v-15.379l7.41 5.313-1.399 1.957 1.817 1.259c1.119.839 1.957 1.536 2.796 2.375m0 33.132v7.689l-4.892-5.312zm0 338.873v19.43l-4.473 3.775-5.312-6.432 5.87-4.893-2.656-3.075-4.054 3.497v-10.908l6.85-5.73zm0 25.021v8.388l-4.054-4.892zm-10.624 19.291v-3.774l3.495 1.817zm0-427.221v15.379l-5.172 7.27c.56.699 1.117 1.119 1.677 1.537 1.26.84 2.377 1.399 3.496 1.539v10.065c-3.076-.28-6.291-1.678-9.507-3.915l-1.535-1.257-1.119 1.675-1.54-1.117v-15.099l5.174-7.128c-.7-.7-1.26-1.26-1.817-1.678-1.258-.839-2.377-1.399-3.356-1.538v-9.786c3.078.28 6.292 1.539 9.367 3.774l1.539 1.26 1.397-1.958zm0 384.303v10.908l-4.194 3.491-5.313-6.431zm0 39.144-12.442-6.849-.42-20.27-.838.418v29.777l7.69 4.193 6.011-3.496zm-13.701 11.745v-3.075l1.259 2.236zm-14.258-445.536-2.238 4.191-4.752-2.375v-1.677l2.515-4.613c.7-1.259 1.678-2.097 3.076-2.516.56-.278 1.539-.42 2.797-.42l.558 3.355c-.697 0-1.258 0-1.535.141-.561.279-1.119.7-1.4 1.258l-.838 1.677zm14.258 6.29v9.786c-.417 0-.699-.14-.978 0-1.399 0-2.516.699-3.356 1.817q-1.259 1.888-.839 3.774c.42 1.398 1.4 2.658 3.078 3.916.278.279.558.417.699.558.277 0 .697.279 1.116.559l.28-.281v15.099l-7.268-5.172 1.258-1.677-1.678-.98c-4.334-3.216-6.851-6.851-7.549-11.183-.699-3.916 0-7.41 2.377-10.486 2.234-3.216 5.452-5.173 9.367-5.732 1.116-.136 2.234-.136 3.493.002m0 400.8v29.777l-4.753-2.516 4.753 8.109v3.075l-7.968 4.612-6.011-10.486-.559 14.123-6.71 3.913v-26.285l3.773 2.239-3.773-6.293v-8.107l5.871-3.352 7.129 12.438-.418-16.215zm-21.248-415.478v-3.356h.28l.418 3.356zm0 10.204-.561-.42.561-1.257zm0-13.56v3.356c-.42.14-.839.14-1.12.279-.42.281-.839.56-.978 1.119l-.978 1.538 1.817.979-2.237 4.333-5.314-2.796 3.216-5.871c.7-1.258 1.678-2.098 2.935-2.656.7-.141 1.539-.281 2.659-.281m0 430.996v8.107l-3.355-6.009zm0 12.161-10.206-6.15-9.505 5.453 17.333 10.626-.281 18.033 2.658-1.677z" style="fill:#464da1"/><path d="M283.093 159.08c15.515 12.861 63.048-3.494 102.891-36.208 26.702-21.947 42.917-50.468 44.595-73.954-11.184 11.326-29.079 17.895-43.339 20.271 8.529-17.893 26.982-32.152 41.24-38.303-40.398-5.173-62.068 5.871-92.965 34.529 4.615-21.528 20.83-38.585 32.013-46.413-8.806 1.958-29.637 8.389-49.626 29.499-29.499 25.302-50.468 97.718-34.809 110.579" style="fill:#ee3124"/></svg>