<?xml version="1.0" encoding="iso-8859-1"?>
<!-- Generator: Adobe Illustrator 24.0.1, SVG Export Plug-In . SVG Version: 6.00 Build 0)  -->
<svg version="1.1" id="Layer_1" xmlns="http://www.w3.org/2000/svg" xmlns:xlink="http://www.w3.org/1999/xlink" x="0px" y="0px"
	 viewBox="0 0 660 660" style="enable-background:new 0 0 660 660;" xml:space="preserve">
<path d="M126.048,35.167L77.063,143.395l5.621,3.446c26.55,16.281,41.495,32.811,45.687,50.533
	c6.536,27.63-13.048,59.126-35.722,95.592C59.59,346.136,18.442,412.311,33.816,501.983l0.07,0.422l0.12,0.409
	c19.907,68.157,66.389,112.06,130.888,123.625c20.224,3.637,40.94,3.981,60.975,4.316c37.488,0.624,72.899,1.216,100.089,22.993
	l4.684,3.751l4.673-3.762c27.044-21.766,62.418-22.358,99.869-22.982c20.027-0.335,40.736-0.68,60.966-4.316
	c64.35-11.54,110.757-55.442,130.667-123.625l0.121-0.409l0.074-0.422c15.373-89.671-25.776-155.847-58.835-209.018
	c-22.673-36.466-42.255-67.962-35.719-95.593c4.191-17.721,19.135-34.251,45.684-50.531l5.612-3.44L531.642,27.724l-7.125,4.014
	c-52.852,29.784-120.681,48.015-190.992,51.337c-0.803,0.038-1.822,0.091-2.901,0.241c-1.075-0.15-2.097-0.204-2.907-0.241
	c-70.56-3.322-138.458-21.55-191.185-51.333l-7.113-4.018L126.048,35.167z"/>
<path style="fill:#FFF200;" d="M535.715,55.035L38.847,444.526c-0.102,1.126-0.188,2.261-0.273,3.397
	c-0.369,5.227-0.576,10.538-0.573,15.948c0,0.405-0.009,0.803-0.006,1.208c0.012,1.554,0.058,3.127,0.102,4.701
	c0.033,1.123,0.063,2.246,0.114,3.378c0.054,1.195,0.121,2.393,0.193,3.596c0.105,1.672,0.226,3.352,0.367,5.042
	c0.071,0.822,0.138,1.646,0.217,2.471c0.214,2.25,0.472,4.516,0.761,6.797c0.052,0.393,0.09,0.78,0.144,1.175
	c0.374,2.801,0.798,5.626,1.287,8.479c4.513,15.459,10.315,29.225,17.151,41.446L572.73,137.243L535.715,55.035z"/>
<g>
	<g>
		<path d="M238.522,353.52c-0.648-0.428-1.076-0.861-1.722-1.291c-2.583-1.937-5.596-3.872-8.606-5.809
			c-2.154-1.292-4.307-2.368-6.458-3.443c-2.154-1.077-4.521-2.154-6.672-3.015l-1.722,1.292l-6.025,4.735
			c0.428,3.228,1.077,6.885,2.366,10.975c1.077,3.874,2.368,7.531,3.659,11.19c0.216,0.43,0.432,0.862,0.646,1.507
			c0.859,2.151,1.72,4.09,2.581,6.241c1.078,1.939,1.938,3.874,2.8,5.812l7.961-6.244c-0.86-1.506-1.505-3.227-2.367-4.948
			c-0.859-1.507-1.505-3.444-2.367-5.166c-0.861-2.153-1.505-4.304-2.367-6.671c-0.648-2.152-1.293-4.305-1.938-6.672
			c0.432,0.214,1.077,0.645,1.938,1.077c1.075,0.428,2.151,1.074,3.229,1.936c0.857,0.431,1.505,0.861,2.367,1.292
			c0.645,0.645,1.505,1.074,2.151,1.722l-4.951,3.657c0.646,1.292,1.079,2.367,1.506,3.446c0.646,1.289,1.078,2.365,1.721,3.656
			l7.964-6.239c0.215,0.216,0.429,0.429,0.429,0.429c0.216,0.214,0.432,0.432,0.647,0.644c0.213,0,0.213,0.215,0.213,0.215
			c0.217,0,0.433,0.216,0.433,0.433c0.216,0.213,0.429,0.429,0.645,0.645c0.215,0,0.215,0,0.215,0
			c0.213,0.217,0.429,0.43,0.646,0.646c0.216,0,0.216,0.215,0.429,0.428c0.216,0,0.216,0.217,0.432,0.217
			c0,0.216,0.216,0.216,0.429,0.431l4.305-3.445l3.659-2.795c-1.076-1.077-2.369-1.937-3.659-3.016
			C241.748,356.104,240.028,354.813,238.522,353.52z"/>
		<path d="M506.232,141.117c-2.366-3.229-5.38-4.951-8.819-5.597c-3.661-0.429-7.102,0.646-10.546,3.444
			c-0.433,0.214-1.079,0.645-1.506,1.075c-0.433,0.432-0.862,0.861-1.078,1.292c-0.217,0.216-0.646,0.431-0.861,0.861
			c-0.215,0.216-0.43,0.432-0.644,0.86l4.949,6.242v-0.216c0.216,0,0.216-0.215,0.216-0.215c0.213-0.429,0.429-0.86,0.646-1.074
			c0.429-0.432,0.861-0.862,1.289-1.079c1.723-1.291,3.229-1.936,4.735-1.505c1.289,0.432,2.584,1.077,3.443,2.369
			c1.507,1.935,1.723,3.658,1.075,4.95c-0.862,1.504-2.151,2.797-3.657,3.872c0,0.214,0,0.214-0.216,0.214c0,0,0,0.216-0.214,0.216
			l-2.367,1.937l-16.142-20.874l-0.862-0.861l-7.747,6.241l8.609,10.975l13.126,17l12.486-9.683c0.428-0.43,1.288-1.077,2.149-2.152
			c1.074-0.861,2.152-1.937,3.013-3.442c1.289-1.939,1.938-4.089,2.151-6.672C509.678,146.927,508.599,144.129,506.232,141.117z"/>
		<path d="M213.341,377.192c-0.429-0.213-1.075-0.646-1.507-0.862c-2.579-1.505-5.164-2.579-7.962-3.656
			c-2.796-1.077-5.809-1.721-8.607-2.151c0.646-1.507,1.078-3.444,1.506-5.379c0.431-1.94,0.645-3.662,0.645-5.597
			c0-0.861,0-1.938-0.214-2.799c0-1.075-0.215-1.936-0.215-2.583l-9.687,7.316c0.217,1.508,0.217,2.8-0.211,4.091
			c-0.217,1.506-0.648,2.796-1.077,4.089c-0.217,0.645-0.645,1.291-0.861,1.935c-0.216,0.431-0.645,1.077-0.861,1.508l-4.52-5.596
			l-7.961,6.242l21.949,27.974l7.963-6.239l-11.408-14.635c0.217-0.216,0.433-0.43,0.433-0.859c0.217-0.216,0.428-0.432,0.428-0.646
			c0.863,0,1.723,0.214,2.585,0.43c0.861,0,1.721,0.216,2.584,0.645c2.365,0.645,4.949,1.506,7.53,2.583
			c2.583,1.29,5.167,3.011,7.318,4.951l2.151-1.722l6.027-4.518c-1.077-1.079-2.154-1.939-3.445-2.8
			C215.063,378.269,214.202,377.842,213.341,377.192z"/>
		<polygon points="437.799,190.398 440.595,188.245 446.623,183.511 448.345,182.222 446.623,180.068 443.395,175.979 
			440.595,178.131 432.849,184.157 		"/>
		<path d="M263.27,328.558c-0.43-0.217-0.646-0.217-0.862-0.428c-1.507-0.433-3.229-0.217-5.163,0.428c-0.143,0-0.287,0-0.433,0
			c0-0.428,0.216-0.861,0.433-1.293c0.215-0.859,0.428-1.936,0.428-3.013c0.215-0.858,0-1.721-0.428-2.581
			c-0.217-0.647-0.646-1.293-1.079-1.721c-0.213-0.433-0.644-0.861-1.074-1.292c-0.432-0.432-0.86-0.862-1.506-1.08
			c-1.292-0.857-3.015-1.074-5.166-1.074c-1.507,0-3.229,0.646-5.379,1.938c-0.431,0.43-1.077,0.859-1.507,1.291l-4.734,3.445
			l-9.685,7.746l9.685,12.267l6.241,7.962l5.808,7.533l8.396-6.457l5.163-4.088l0.862-0.646c3.659-3.012,5.81-5.811,6.027-8.607
			c0.211-2.582-0.217-5.166-1.725-7.104C266.281,330.493,264.99,329.204,263.27,328.558z M258.966,340.611
			c-0.216,0.644-0.862,1.289-1.721,2.151c-0.217,0.215-0.433,0.215-0.646,0.429l-4.305,3.444l-9.253-11.625l-3.445-4.518
			l3.445-2.796l0.645-0.432c0.216,0,0.216-0.216,0.43-0.216l0.215-0.213c0.861-0.645,1.723-1.078,2.582-1.294
			c0.862-0.213,1.725,0,2.368,1.077c0.646,0.646,0.862,1.51,0.646,2.367c-0.43,0.648-0.861,1.291-1.507,1.938
			c0,0.216-0.217,0.216-0.429,0.43c-0.217,0.216-0.217,0.216-0.433,0.429l-3.012,2.155l4.734,5.593l2.796-2.15
			c0.217-0.217,0.65-0.433,0.861-0.648c0.432-0.215,0.861-0.428,1.078-0.428c0.645-0.43,1.505-0.43,2.366-0.43
			c0.217,0,0.645,0,0.863,0.217c0.428,0.213,0.859,0.426,1.29,1.073c0.216,0,0.216,0.217,0.432,0.433
			c0,0.213,0.213,0.646,0.213,0.859C259.395,339.102,259.179,339.75,258.966,340.611z"/>
		<path d="M102.943,446.489c-1.938-2.154-4.089-3.228-6.24-3.444c-2.8-0.429-5.379,0-7.747,0.862
			c-1.077,0.429-2.154,1.077-3.014,1.722c-0.863,0.429-1.72,1.073-2.369,1.723l-2.151,1.505l-2.151-3.014l-7.963,6.242l2.153,2.796
			l-1.937,1.723c-3.872,3.01-6.242,6.023-6.888,8.822c-0.645,2.795-0.645,5.163,0.216,7.318c0.43,1.074,0.862,1.934,1.29,2.795
			c0.648,0.863,1.077,1.723,1.722,2.368c3.012,3.874,6.028,5.813,9.255,5.813c3.226,0,6.025-0.861,8.607-2.368
			c0.214-0.216,0.429-0.432,0.862-0.432c0.213-0.213,0.43-0.429,0.644-0.646c0.431-0.215,0.863-0.645,1.292-1.077
			c0.432-0.428,0.646-0.644,1.077-1.074l-4.522-5.811c0,0-0.211,0-0.211,0.216c-0.217,0-0.217,0.216-0.433,0.216
			c0,0,0,0.213-0.213,0.213c0,0.216-0.217,0.216-0.217,0.216c-1.077,1.078-2.367,1.505-3.872,1.505c-1.292,0-2.8-1.076-4.306-3.011
			c-1.505-1.939-2.151-3.445-1.934-4.735c0.429-1.506,0.86-2.583,1.72-3.444c0.214-0.213,0.431-0.43,0.647-0.646
			c0.213-0.216,0.43-0.429,0.644-0.429c0.217-0.217,0.43-0.433,0.646-0.648c0.43-0.213,0.646-0.429,0.863-0.429l15.709,20.015
			l7.961-6.241l-15.709-20.016c0.216-0.214,0.429-0.43,0.646-0.644c0.214-0.216,0.428-0.432,0.645-0.646
			c0.214-0.216,0.643-0.432,0.86-0.647c0.217,0,0.646-0.214,0.861-0.429c1.077-0.432,2.367-0.645,3.657-0.645
			c1.293,0.213,2.799,1.074,4.089,2.796c1.294,1.939,1.938,3.444,1.722,4.733c0,1.507-0.862,2.583-2.151,3.661
			c-0.217,0.213-0.431,0.428-0.646,0.428c-0.216,0.216-0.431,0.429-0.646,0.429l4.52,5.813c0.646-0.217,1.074-0.43,1.506-0.861
			c0.429-0.217,0.862-0.43,1.291-0.863l0.216-0.213c0.216-0.216,0.216-0.216,0.216-0.216c0.214-0.216,0.429-0.431,0.646-0.431
			c2.366-2.15,3.874-4.735,4.733-7.963c0.646-3.229-0.432-6.669-3.444-10.542C104.449,447.997,103.805,447.134,102.943,446.489z"/>
		<path d="M137.161,434.438c-2.366-1.505-4.949-2.583-7.963-3.658c-2.799-1.077-5.595-1.722-8.607-2.152
			c0.86-1.72,1.291-3.442,1.72-5.38c0.215-1.936,0.431-3.874,0.648-5.597c0-1.074-0.217-1.936-0.217-3.011
			c0-0.863-0.216-1.723-0.216-2.368l-9.686,7.319c0.217,1.289,0,2.793-0.211,4.089c-0.217,1.505-0.648,2.795-1.077,4.086
			c-0.217,0.646-0.646,1.292-0.863,1.722c-0.214,0.646-0.646,1.292-0.86,1.723l-4.519-5.812l-2.367,1.939l-5.594,4.305l5.594,7.314
			l16.139,20.66l7.961-6.024l-11.187-14.635c0.213-0.213,0.213-0.646,0.428-0.861c0.216-0.213,0.216-0.43,0.429-0.86
			c0.862,0.215,1.51,0.215,2.369,0.43c0.86,0.217,1.937,0.43,2.798,0.646c2.367,0.646,4.952,1.507,7.531,2.8
			c2.583,1.29,4.951,2.797,7.318,4.948l8.177-6.456c-1.077-0.859-2.367-1.937-3.66-2.797
			C139.958,435.944,138.668,435.082,137.161,434.438z"/>
		<path d="M341.389,267.872c-0.433,0-0.86-0.216-1.293-0.216c-0.861-0.217-1.72-0.217-2.58-0.217c-0.65,0-1.293,0-1.723,0.217
			c-0.645,0.216-1.077,0.216-1.507,0.428c0.213-0.212,0.213-0.428,0.43-0.645c0.216-0.216,0.216-0.645,0.216-0.86
			c0.43-0.861,0.646-2.151,0.646-3.442c-0.215-1.292-0.646-2.582-1.722-3.874c-0.43-0.432-0.646-0.862-1.292-1.293
			c-0.429-0.43-0.86-0.859-1.291-1.075c-1.508-0.862-3.658-1.291-6.026-1.076c-1.721,0.214-3.444,0.86-5.595,2.151
			c-1.077,0.645-2.369,1.507-3.658,2.584c-0.431,0.43-1.29,1.077-2.583,2.151c-1.077,1.076-2.582,2.369-3.874,4.089l4.52,6.025
			c0.432-0.429,0.647-0.644,0.861-0.861c0.216-0.429,0.428-0.646,0.644-1.075c0.648-0.648,1.293-1.29,1.938-1.936
			c0.862-0.646,1.506-1.291,2.151-1.939c1.293-0.859,2.584-1.506,3.445-1.719c1.075-0.216,1.718-0.216,2.367,0.213
			c0.216,0,0.431,0.215,0.645,0.215c0.216,0.216,0.216,0.432,0.429,0.432c0,0.217,0.216,0.43,0.216,0.645
			c0.216,0,0.216,0.429,0.216,0.645c0.217,0.433,0.217,0.862,0,1.508c-0.216,0.646-0.86,1.076-1.723,1.721l-5.595,4.518
			l-0.212,0.215l0.212,0.217l4.305,5.592l6.242-4.946c0.216,0,0.432-0.217,0.645-0.43c0.216-0.216,0.43-0.216,0.646-0.433
			c0.647-0.431,1.505-0.644,2.367-0.644c0.861,0,1.507,0.429,2.154,1.29c1.074,1.077,1.289,2.367,0.857,3.443
			c-0.429,1.079-1.073,1.937-1.934,2.8c-0.433,0.427-0.646,0.858-1.077,1.074c-0.43,0.217-0.646,0.646-1.078,0.861
			c-0.214,0.213-0.43,0.213-0.43,0.43c-0.213,0.215-0.428,0.215-0.644,0.431c-0.431,0.43-1.29,1.075-2.154,1.506
			c-0.86,0.433-1.936,1.074-3.441,1.939l4.95,6.455c0.861-0.861,2.151-1.507,3.012-1.935c1.078-0.649,1.939-1.29,2.796-1.94
			c0.433-0.214,0.65-0.429,0.861-0.644c0.217-0.216,0.648-0.429,0.861-0.646c0.433-0.432,0.862-0.86,1.507-1.075
			c3.66-3.443,6.028-6.455,6.673-9.471c0.645-3.44,0-6.239-1.723-8.607C343.97,269.379,342.68,268.301,341.389,267.872z"/>
		<path d="M397.986,226.766c-2.796-1.935-5.596-3.872-8.609-5.81c-2.15-1.291-4.302-2.366-6.456-3.444
			c-2.151-1.076-4.518-2.15-6.669-3.011l-1.723,1.29l-6.023,4.735c0.429,3.228,1.073,6.886,2.364,10.975
			c1.077,3.659,2.154,7.532,3.659,11.191c0.217,0.43,0.429,0.858,0.646,1.505c0.861,1.937,1.723,4.088,2.582,6.24
			c0.863,1.939,1.936,3.874,2.797,5.595l7.963-6.025c-0.861-1.723-1.722-3.228-2.367-4.949c-0.861-1.723-1.721-3.444-2.366-5.165
			c-0.863-2.153-1.723-4.304-2.368-6.671c-0.862-2.154-1.292-4.306-1.934-6.672c0.212,0.215,0.859,0.429,1.934,1.077
			c0.861,0.432,1.938,1.076,3.228,1.721c0.861,0.647,1.507,1.078,2.151,1.507c0.861,0.432,1.506,1.076,2.367,1.722l-4.947,3.658
			c0.429,1.292,1.075,2.368,1.506,3.443c0.43,1.292,1.074,2.367,1.723,3.658l7.747-6.238c0.214,0.214,0.429,0.429,0.645,0.429
			c0.216,0.214,0.429,0.432,0.429,0.432c0.216,0.213,0.216,0.213,0.216,0.213s0.216,0,0.216,0.216c0.216,0,0.216,0.216,0.43,0.43
			c0.216,0.216,0.43,0.431,0.644,0.647h0.216c0.215,0.214,0.431,0.43,0.644,0.644c0,0,0.217,0.216,0.433,0.431
			c0.217,0,0.217,0.216,0.429,0.216c0,0.214,0.217,0.214,0.217,0.429l7.963-6.241c-2.152-2.15-4.952-4.517-8.18-6.884
			C399.063,227.628,398.63,227.198,397.986,226.766z"/>
		<path d="M428.976,205.893c-0.429-0.862-0.861-1.508-1.29-1.937c-1.294-1.723-2.582-2.798-4.089-3.659
			c-1.507-0.646-2.799-1.077-4.305-1.077c-3.441,0-6.884,1.291-10.544,4.089c-0.215,0.216-0.646,0.43-0.859,0.646
			c-0.216,0.429-0.646,0.645-0.861,0.859c-0.433,0.216-0.861,0.647-1.077,1.078c-0.43,0.431-0.646,0.645-1.075,1.075l4.518,6.026
			c0.216-0.43,0.43-0.647,0.646-0.861c0.429-0.43,0.645-0.645,0.859-0.86c0.217-0.216,0.429-0.432,0.646-0.646
			c0.217-0.217,0.433-0.432,0.646-0.432c1.505-1.291,2.8-1.722,4.089-1.505c1.505,0,2.583,0.646,3.444,1.72
			c0.646,1.079,1.074,2.154,0.861,3.228c-0.216,0.862-0.649,1.724-1.293,2.584c-0.212,0.428-0.645,0.645-1.075,1.077
			c-0.216,0.213-0.647,0.645-0.862,0.86l-3.872,3.012l-12.484-15.924l14.419-11.19l-4.95-6.244l-12.481,9.687l-9.685,7.747
			l9.685,12.481l12.052,15.496l12.913-10.115c0.213-0.214,0.429-0.214,0.645-0.43c3.228-2.582,5.164-5.166,6.024-7.747
			c0.646-2.584,0.86-4.735,0.216-6.672C429.621,207.399,429.191,206.538,428.976,205.893z"/>
		<path d="M296.841,312.633c-0.645-0.429-1.077-0.646-1.723-1.077c-2.583-1.29-5.162-2.581-7.961-3.658
			c-2.797-0.861-5.596-1.723-8.609-2.151c0.646-1.505,1.29-3.228,1.505-5.166c0.433-1.938,0.646-3.872,0.646-5.595
			c0-1.077,0-2.151,0-3.014c-0.213-0.861-0.213-1.721-0.429-2.583l-9.47,7.535c0,1.289,0,2.582-0.214,4.089
			c-0.43,1.29-0.646,2.795-1.289,3.869c-0.217,0.648-0.434,1.292-0.863,1.938c-0.216,0.649-0.432,1.077-0.862,1.505l-4.303-5.592
			l-0.862,0.643l-5.163,4.092l-1.939,1.505l1.939,2.581l5.163,6.456l14.635,18.722l7.963-6.025l-11.407-14.635
			c0.216-0.214,0.431-0.43,0.644-0.643c0-0.431,0.215-0.647,0.215-0.863c0.862,0,1.723,0.216,2.585,0.432
			c0.861,0.216,1.721,0.431,2.582,0.644c2.368,0.646,4.947,1.507,7.531,2.799c2.583,1.075,5.166,2.797,7.318,4.735l2.366-1.507
			l5.81-4.734c-1.074-1.078-2.152-1.938-3.441-2.8C298.348,313.495,297.485,313.062,296.841,312.633z"/>
		<polygon points="451.358,191.043 446.623,194.486 441.672,198.361 440.595,197.068 429.621,182.866 439.949,174.905 435,168.662 
			423.596,177.701 416.925,182.866 423.596,191.474 438.661,210.842 440.595,209.336 446.623,204.601 451.358,200.942 
			457.598,196.208 452.647,189.75 		"/>
		<path d="M374.529,251.731c-0.433-0.217-1.075-0.646-1.721-0.862c-2.369-1.505-4.951-2.582-7.748-3.658
			c-3.013-1.076-5.811-1.722-8.609-2.151c0.646-1.509,1.075-3.444,1.507-5.381c0.216-1.937,0.429-3.658,0.646-5.596
			c0-0.859,0-1.937-0.217-2.795c0-1.078-0.213-1.939-0.213-2.584l-9.684,7.317c0.212,1.291,0,2.797-0.216,4.088
			c-0.215,1.507-0.646,2.797-1.077,4.089c-0.213,0.646-0.646,1.291-0.858,1.937c-0.216,0.432-0.649,1.076-0.862,1.507l-4.522-5.596
			l-0.86,0.647l-7.102,5.379l7.102,9.039l14.634,19.154l7.964-6.242l-11.19-14.633c0.214-0.216,0.214-0.432,0.429-0.86
			c0.214-0.217,0.214-0.432,0.431-0.648c0.861,0,1.505,0.217,2.366,0.217c0.862,0.214,1.936,0.432,2.797,0.86
			c2.369,0.432,4.951,1.507,7.534,2.582c2.583,1.291,4.95,3.014,7.317,4.95l2.151-1.722l6.025-4.735
			c-1.072-0.859-2.368-1.721-3.656-2.582C376.252,252.806,375.393,252.377,374.529,251.731z"/>
		<path d="M319.652,287.239c-2.583-1.936-5.163-3.657-8.176-5.595c-1.938-1.074-4.089-2.369-6.459-3.445
			c-2.15-1.075-4.304-1.934-6.669-2.797l-1.507,1.291l-6.027,4.518c0.216,3.228,1.077,6.889,2.154,11.191
			c1.075,3.661,2.367,7.317,3.874,10.976c0,0.431,0.216,1.075,0.429,1.505c0.862,2.154,1.723,4.308,2.8,6.244
			c0.861,1.935,1.723,3.874,2.581,5.812l7.962-6.242c-0.646-1.505-1.506-3.226-2.367-4.734c-0.858-1.721-1.505-3.443-2.151-5.382
			c-0.862-2.151-1.723-4.302-2.583-6.456c-0.645-2.364-1.29-4.518-1.719-6.671c0.213,0,0.858,0.429,1.719,0.863
			c1.076,0.429,2.154,1.072,3.444,1.934c0.645,0.43,1.289,0.859,2.15,1.509c0.649,0.429,1.506,0.857,2.155,1.505l-4.734,3.871
			c0.429,1.078,0.86,2.155,1.504,3.444c0.43,1.077,0.862,2.367,1.507,3.444l7.963-6.241c0.216,0.216,0.433,0.43,0.646,0.646
			c0,0,0.216,0.213,0.429,0.429c0,0,0,0,0.217,0c0,0.215,0,0.215,0,0.215c0.215,0.217,0.432,0.217,0.647,0.433
			c0,0.213,0.212,0.213,0.212,0.429c0.216,0,0.216,0,0.43,0.213c0.215,0.215,0.431,0.433,0.647,0.648
			c0.216,0.217,0.433,0.217,0.433,0.433h0.211c0,0.212,0.216,0.212,0.216,0.428c0.213,0,0.213,0.213,0.429,0.213l7.963-6.24
			c-2.366-2.151-5.166-4.302-8.179-6.884C321.162,288.317,320.297,287.667,319.652,287.239z"/>
		<path d="M463.193,146.71l-11.835,9.256l-0.217,0.213c-0.645,0.43-1.29,1.077-1.934,1.722c-0.861,0.861-1.509,1.507-1.938,2.368
			c-0.216,0.43-0.433,0.646-0.646,1.076c-1.075,2.367-1.721,5.165-1.505,8.607c0,1.723,0.43,3.875,1.505,6.244
			c1.075,2.15,2.584,4.734,4.735,7.315c0,0.214,0.213,0.214,0.213,0.429c0.648,0.863,1.722,1.937,3.013,3.661
			c1.508,1.506,3.444,3.659,6.027,6.239l7.962-6.239c-0.646-0.645-1.291-1.292-1.937-2.152c-0.646-0.861-1.507-1.508-2.152-2.368
			c-0.862-1.076-1.722-1.938-2.583-3.013c-0.858-0.862-1.506-1.722-2.151-2.581c-2.584-3.228-4.089-6.244-4.302-8.393
			c-0.217-2.368,0-4.089,0.645-5.596c0.429-0.862,1.074-1.723,1.722-2.152c0.43-0.646,1.075-1.076,1.505-1.507l0.863-0.645
			l16.353,20.874l0.646,0.862l7.963-6.241l-8.609-11.191L463.193,146.71z"/>
	</g>
	<polygon points="162.338,405.599 165.135,405.599 165.135,405.599 179.556,405.599 179.556,402.587 165.135,402.587 
		165.135,388.168 162.338,388.168 162.338,402.587 162.124,402.587 162.124,405.599 162.338,405.599 	"/>
	<polygon points="156.311,411.41 159.328,411.41 159.328,411.41 173.744,411.41 173.744,408.399 159.328,408.399 159.328,393.978 
		156.311,393.978 156.311,408.399 156.311,408.399 156.311,411.41 156.311,411.41 	"/>
	<polygon points="518.93,124.546 518.93,127.559 518.93,127.559 518.93,141.976 516.132,141.976 516.132,127.559 501.715,127.559 
		501.715,124.546 516.132,124.546 516.132,124.546 518.93,124.546 518.93,124.546 	"/>
	<polygon points="524.739,118.736 524.739,121.532 524.739,121.532 524.739,135.95 521.729,135.95 521.729,121.532 507.525,121.532 
		507.525,118.736 521.729,118.736 521.729,118.736 524.739,118.736 524.739,118.736 	"/>
</g>
<path style="fill:#FFFFFF;" d="M561.711,296.938c-8.746-14.079-16.902-27.432-23.473-40.108c-0.02-0.04-0.042-0.081-0.062-0.122
	c-0.685-1.325-1.357-2.644-2.005-3.956c-0.041-0.083-0.078-0.166-0.121-0.249c-1.776-3.609-3.398-7.176-4.845-10.697
	c-0.175-0.433-0.365-0.865-0.533-1.297c-0.326-0.803-0.622-1.604-0.923-2.404c-0.245-0.649-0.492-1.297-0.724-1.944
	c-0.262-0.731-0.511-1.46-0.756-2.186c-0.243-0.718-0.476-1.435-0.701-2.15c-0.214-0.678-0.421-1.355-0.617-2.027
	c-0.229-0.788-0.44-1.573-0.647-2.357c-0.162-0.604-0.324-1.21-0.47-1.813c-0.236-0.966-0.44-1.93-0.64-2.892
	c-0.083-0.417-0.185-0.836-0.266-1.253c-0.26-1.389-0.482-2.772-0.668-4.151c-0.034-0.256-0.052-0.511-0.081-0.766
	c-0.141-1.142-0.255-2.279-0.333-3.412c-0.029-0.388-0.042-0.773-0.058-1.158c-0.056-1.019-0.087-2.037-0.094-3.052
	c0-0.386,0.007-0.771,0.011-1.158c0.018-1.052,0.061-2.104,0.135-3.152c0.02-0.316,0.04-0.631,0.066-0.947
	c0.109-1.239,0.255-2.477,0.44-3.712c0.019-0.107,0.031-0.216,0.048-0.322c1.011-6.376,3.12-12.675,6.587-18.937L62.815,549.695
	c0.128,0.205,0.25,0.419,0.38,0.622c0.06,0.096,0.121,0.189,0.182,0.285c3.321,5.208,6.84,10.097,10.544,14.68
	c0.107,0.135,0.219,0.268,0.327,0.405c3.645,4.477,7.466,8.658,11.441,12.558c0.38,0.372,0.764,0.728,1.147,1.096
	c1.573,1.513,3.173,2.982,4.797,4.41c0.701,0.612,1.409,1.215,2.122,1.813c1.31,1.108,2.634,2.191,3.972,3.249
	c1,0.784,2.011,1.555,3.027,2.311c1.067,0.794,2.141,1.576,3.225,2.337c1.223,0.859,2.454,1.703,3.696,2.519
	c1.004,0.664,2.015,1.303,3.028,1.934c1.28,0.801,2.563,1.587,3.862,2.344c0.844,0.492,1.694,0.967,2.545,1.443
	c1.647,0.917,3.302,1.821,4.977,2.672c0.453,0.229,0.915,0.449,1.37,0.675c1.941,0.962,3.897,1.898,5.873,2.773
	c0.255,0.116,0.511,0.22,0.768,0.331c8.985,3.924,18.281,6.961,26.92,9.83L561.711,296.938z"/>
<path style="fill:#00AEEF;" d="M611.382,394.046c-9.886-30.112-24.866-56.81-39.663-81.108c-3.35-5.458-6.693-10.798-9.964-16.014
	L157.86,617.328c0.241,0.058,0.48,0.128,0.723,0.183c0.085,0.022,0.168,0.044,0.252,0.06c2.449,0.559,4.908,1.064,7.376,1.512
	c2.735,0.49,5.485,0.905,8.243,1.281c0.496,0.066,0.987,0.14,1.483,0.204c2.631,0.339,5.266,0.634,7.91,0.887
	c0.55,0.056,1.1,0.103,1.65,0.153c2.684,0.243,5.366,0.456,8.057,0.628c0.236,0.014,0.472,0.021,0.71,0.038
	c2.542,0.156,5.086,0.283,7.631,0.391c0.599,0.025,1.196,0.055,1.79,0.08c2.513,0.094,5.023,0.174,7.533,0.24
	c0.929,0.025,1.857,0.048,2.782,0.071c1.845,0.042,3.686,0.08,5.525,0.114c15.842,0.295,31.531,0.384,46.613,1.83
	c0.245,0.025,0.487,0.047,0.732,0.071c2.775,0.274,5.534,0.592,8.266,0.972c0.088,0.011,0.175,0.026,0.263,0.04
	c2.804,0.391,5.581,0.844,8.331,1.37c0.015,0.001,0.027,0.005,0.043,0.008c2.644,0.508,5.259,1.094,7.849,1.742
	c0.294,0.077,0.592,0.15,0.888,0.226c2.545,0.657,5.063,1.387,7.548,2.2c0.195,0.065,0.385,0.135,0.577,0.2
	c2.555,0.854,5.083,1.784,7.567,2.83L611.382,394.046z"/>
<path style="fill:#EE3124;" d="M621.139,490.481c0.269-2.131,0.511-4.25,0.712-6.352c0.065-0.696,0.124-1.384,0.181-2.076
	c0.178-2.07,0.333-4.126,0.448-6.171c0.037-0.578,0.07-1.161,0.099-1.736c0.096-1.955,0.153-3.891,0.202-5.823
	c0.004-0.356,0.029-0.718,0.033-1.072c0.007-0.301,0.014-0.603,0.018-0.904c0.003-0.149-0.005-0.293-0.004-0.441
	c0.034-2.848,0.01-5.668-0.072-8.466c-0.035-1.168-0.107-2.321-0.16-3.482c-0.087-1.868-0.173-3.736-0.306-5.581
	c-0.085-1.194-0.198-2.377-0.304-3.558c-0.164-1.821-0.335-3.64-0.543-5.437c-0.125-1.1-0.265-2.196-0.409-3.287
	c-0.25-1.924-0.521-3.832-0.823-5.729c-0.144-0.926-0.291-1.848-0.449-2.768c-0.372-2.177-0.777-4.335-1.208-6.473
	c-0.127-0.62-0.243-1.236-0.371-1.853c-1.827-8.667-4.126-17.073-6.801-25.226l0,0c0,0.003,0.003,0.009,0.003,0.012L308.202,634.657
	c1.887,0.795,3.755,1.653,5.6,2.569c0.003,0,0.003,0,0.003,0c0.033,0.015,0.063,0.032,0.094,0.049
	c3.832,1.904,7.562,4.089,11.188,6.574c0.207,0.138,0.417,0.271,0.621,0.414c0.005,0.003,0.006,0.003,0.011,0.006
	c1.657,1.157,3.298,2.358,4.911,3.649c44.116-35.508,106.737-18.505,164.198-28.835c54.017-9.686,103.512-45.41,124.817-118.363
	c0.479-2.784,0.89-5.543,1.254-8.283C620.989,491.779,621.059,491.135,621.139,490.481z"/>
<path style="fill:#FFFFFF;" d="M120.59,167.801c0.096,0.111,0.181,0.226,0.278,0.337c-0.45-0.518-0.947-1.039-1.416-1.559
	c31.795,35.158,15.863,70.68-10.062,113.503L351.319,89.433c-13.022,1.068-20.688,1.152-20.688,1.327
	c0-0.425-44.928-0.298-102.041-14.894c2.304,0.589,4.59,1.161,6.853,1.704C235.293,77.632,120.59,167.801,120.59,167.801z"/>
<path style="fill:#00AEEF;" d="M114.276,161.229c1.257,1.201,2.446,2.404,3.589,3.605c0.551,0.582,1.06,1.164,1.587,1.745
	c0.469,0.52,0.966,1.041,1.416,1.559c-0.097-0.111-0.183-0.226-0.278-0.337c0,0,114.703-90.169,114.852-90.231
	c-2.263-0.543-4.549-1.115-6.853-1.704c-0.467-0.117-0.938-0.245-1.404-0.365c-2.044-0.53-4.098-1.079-6.168-1.643
	c-0.667-0.184-1.341-0.368-2.012-0.554c-2.229-0.623-4.473-1.267-6.733-1.935c-0.318-0.092-0.634-0.181-0.951-0.277
	c-2.581-0.769-5.178-1.573-7.79-2.407c-0.583-0.185-1.171-0.379-1.754-0.568c-2.056-0.665-4.118-1.349-6.187-2.055
	c-0.727-0.248-1.454-0.495-2.183-0.747c-2.357-0.82-4.722-1.659-7.092-2.53c-0.276-0.104-0.551-0.2-0.83-0.302
	c-2.64-0.977-5.287-1.994-7.941-3.042c-0.672-0.263-1.346-0.542-2.016-0.811c-2.04-0.817-4.081-1.656-6.128-2.517
	c-0.753-0.32-1.509-0.636-2.264-0.962c-2.493-1.068-4.983-2.163-7.476-3.299c-0.174-0.075-0.345-0.149-0.518-0.227
	c-2.646-1.212-5.291-2.47-7.936-3.758c-0.732-0.358-1.465-0.725-2.197-1.087c-1.995-0.989-3.985-2.001-5.973-3.035
	c-0.765-0.398-1.532-0.792-2.297-1.199c-2.633-1.394-5.262-2.817-7.885-4.297L86.589,140.471c2.089,1.281,4.086,2.559,6.028,3.836
	c0.635,0.418,1.235,0.836,1.854,1.254c1.274,0.859,2.533,1.72,3.74,2.579c0.704,0.497,1.384,0.994,2.064,1.494
	c1.068,0.78,2.111,1.564,3.126,2.344c0.681,0.524,1.354,1.045,2.01,1.568c0.966,0.768,1.896,1.537,2.807,2.304
	c0.617,0.519,1.249,1.036,1.843,1.554c0.965,0.841,1.884,1.681,2.79,2.521C113.324,160.361,113.822,160.795,114.276,161.229z"/>
<path style="fill:#00A651;" d="M531.843,46.428l-3.658-8.179c-2.439,1.372-4.891,2.697-7.343,3.996
	c-0.002,0.001-0.005,0.003-0.008,0.004c-1.308,0.692-2.619,1.371-3.931,2.044c-0.007,0.006-0.019,0.01-0.027,0.016
	c-8.092,4.152-16.226,7.923-24.341,11.355c-0.089,0.04-0.178,0.077-0.266,0.113c-10.636,4.49-21.222,8.398-31.607,11.793
	c-0.092,0.031-0.184,0.06-0.278,0.092c-10.327,3.37-20.44,6.242-30.189,8.686c-0.172,0.043-0.344,0.087-0.517,0.131
	c-3.17,0.791-6.303,1.54-9.388,2.245c-0.11,0.025-0.218,0.048-0.326,0.072c-6.148,1.399-12.106,2.627-17.844,3.71
	c-0.304,0.058-0.609,0.116-0.913,0.173c-2.729,0.511-5.408,0.989-8.033,1.436c-0.282,0.049-0.561,0.094-0.844,0.141
	c-2.644,0.446-5.242,0.866-7.761,1.252c-0.009,0-0.02,0.003-0.031,0.003c-2.484,0.38-4.885,0.724-7.237,1.047
	c-0.391,0.055-0.779,0.11-1.164,0.162c-2.23,0.301-4.404,0.582-6.507,0.841c-0.36,0.044-0.707,0.085-1.062,0.127
	c-2.067,0.249-4.081,0.482-6.011,0.69c-0.058,0.006-0.125,0.014-0.184,0.02c-0.021,0.003-0.038,0.004-0.059,0.006
	c-3.996,0.431-7.686,0.782-11.027,1.066l-241.886,190.67c-4.138,6.808-8.524,13.8-13.009,20.998c-0.02,0.037-0.043,0.07-0.063,0.106
	c-0.485,0.776-0.973,1.56-1.456,2.341c-0.617,0.997-1.235,1.991-1.857,2.993c-0.471,0.76-0.943,1.53-1.412,2.295
	c-0.637,1.033-1.277,2.067-1.916,3.112c-0.478,0.782-0.958,1.571-1.439,2.358c-0.629,1.039-1.262,2.085-1.896,3.13
	c-0.482,0.799-0.961,1.599-1.441,2.398c-0.643,1.072-1.282,2.148-1.921,3.228c-0.461,0.783-0.925,1.559-1.387,2.348
	c-0.676,1.156-1.354,2.322-2.028,3.491c-0.419,0.719-0.835,1.436-1.251,2.162c-0.816,1.426-1.624,2.863-2.433,4.307
	c-0.268,0.476-0.537,0.945-0.804,1.424c-1.069,1.92-2.128,3.855-3.176,5.805c-0.265,0.494-0.525,0.996-0.788,1.488
	c-0.782,1.466-1.561,2.937-2.329,4.419c-0.368,0.712-0.732,1.437-1.097,2.154c-0.653,1.286-1.307,2.571-1.95,3.868
	c-0.391,0.789-0.776,1.582-1.161,2.375c-0.611,1.252-1.216,2.509-1.811,3.771c-0.388,0.824-0.773,1.651-1.156,2.477
	c-0.585,1.264-1.161,2.537-1.732,3.814c-0.371,0.827-0.737,1.65-1.102,2.482c-0.583,1.335-1.157,2.688-1.722,4.04
	c-0.326,0.779-0.656,1.552-0.977,2.332c-0.646,1.576-1.271,3.164-1.889,4.759c-0.222,0.571-0.453,1.135-0.67,1.706
	c-0.831,2.179-1.639,4.372-2.417,6.585c-0.14,0.405-0.273,0.817-0.412,1.223c-0.625,1.804-1.238,3.616-1.825,5.446
	c-0.25,0.774-0.482,1.557-0.723,2.336c-0.462,1.478-0.913,2.963-1.348,4.456c-0.255,0.887-0.5,1.78-0.747,2.672
	c-0.395,1.417-0.777,2.841-1.148,4.276c-0.239,0.928-0.471,1.864-0.699,2.8c-0.349,1.426-0.682,2.859-1.002,4.302
	c-0.211,0.942-0.421,1.887-0.622,2.839c-0.312,1.488-0.602,2.985-0.884,4.488c-0.173,0.912-0.815,6.801-0.919,7.543L531.843,46.428z
	"/>
<path d="M256.382,102.595l-17.431,11.19l-0.861-0.646l-14.849-10.544l-58.534,41.748h52.295l21.088-12.697l0.861-0.43l25.611,13.127
	h46.699L256.382,102.595z M239.167,127.343l-1.077,0.432l-24.103,13.557h-39.383l47.776-33.356l15.709,9.684l1.077,0.646
	l17.644-10.762l44.765,33.788h-34.863L239.167,127.343z"/>
<path d="M273.599,237.742h-10.544c6.024-3.659,10.114-10.544,10.114-18.507c0-9.47-5.811-17.645-13.99-20.229
	c-1.934-0.645-3.873-1.077-6.023-1.077c-0.646,0-1.507,0-2.151,0.216c-1.508,0.216-3.013,0.43-4.523,1.076
	c-0.645,0.216-1.075,0.43-1.718,0.859c-1.294-0.643-2.8-1.074-4.089-1.505c-1.079-0.214-2.152-0.214-3.229-0.214
	c-0.217,0-0.433,0-0.433,0c-0.428,0-0.858,0-1.29,0c-0.43,0-1.077,0-1.506,0.214c-1.723,0.217-3.444,0.646-4.95,1.291
	c-0.43-0.215-1.074-0.43-1.507-0.645c-1.507-0.429-3.229-0.86-4.951-0.86c-0.429,0-0.645,0-1.074,0
	c-2.367,0-4.521,0.431-6.672,1.076c-7.747,3.012-13.342,10.974-13.342,20.013c0,7.963,4.089,14.849,10.113,18.51h-9.253
	c-3.011,0-6.023,0-9.039,0c-4.947,0-12.265-4.735-12.481-9.255v-12.053v-4.304v-34.432l4.951-4.52l14.848,15.927h5.166
	l-17.218-18.509l15.712-14.634v-5.164l-23.46,21.951v-21.951h-3.658v76.613c0,0.432,0,0.646,0,1.076
	c1.721,6.887,8.609,12.052,16.139,12.052c7.102,0,14.419,0,21.521,0c1.939,0,3.873,0,6.028,0c0.213,0,0.429,0,0.645,0
	c0.429,0,0.645,0,1.074,0c1.722,0,3.443-0.431,4.951-0.861c0.433-0.216,1.077-0.43,1.507-0.646c1.505,0.646,3.227,1.076,4.95,1.292
	c0.429,0.216,1.077,0.216,1.506,0.216c0.432,0,0.861,0,1.29,0c0.216,0,0.216,0,0.433,0c1.076,0,2.15-0.216,3.229-0.216
	c1.505-0.431,3.227-1.076,4.733-1.722c0.43,0.216,0.862,0.216,1.075,0.431c1.509,0.646,3.015,0.86,4.523,1.076
	c0.643,0,1.505,0.215,2.151,0.215c0.431,0,0.644,0,1.077,0h4.947h15.497L273.599,237.742z M234.217,201.374
	c0.429-0.216,1.077-0.216,1.506-0.216c0.432,0,0.861,0,1.29,0c0.216,0,0.216,0,0.433,0c1.076,0,2.15,0.216,3.229,0.432
	c0.215,0,0.645,0.213,1.074,0.213c-0.429,0.216-0.859,0.646-1.074,0.862c-1.294,1.076-2.368,2.367-3.229,3.442
	c0,0.217,0,0.217-0.217,0.217c-0.429-0.646-0.861-1.292-1.505-1.723c-0.43-0.645-1.077-1.075-1.506-1.722
	c-0.645-0.43-1.078-0.86-1.723-1.076C233.139,201.589,233.572,201.374,234.217,201.374z M238.735,219.449
	c0,2.584-0.429,4.733-1.29,6.888c0,0.214-0.217,0.429-0.217,0.429c-0.861-1.935-1.29-3.872-1.505-6.24c0-0.43,0-0.861,0-1.292
	c0-0.432,0-0.862,0-1.291c0.216-2.153,0.645-4.088,1.505-6.026c0,0.216,0.217,0.43,0.217,0.646
	C238.306,214.715,238.735,217.082,238.735,219.449z M222.81,237.959c-0.429,0-0.86,0-1.505,0c-2.153,0-4.302-0.432-6.241-1.292
	c-6.457-2.584-10.974-9.254-10.974-17.217c0-7.746,4.517-14.418,10.974-17.001c1.939-0.859,4.088-1.291,6.241-1.291
	c0.645,0,1.077,0,1.505,0c1.077,0.216,2.154,0.216,3.23,0.645c-1.076,0.862-2.153,1.723-3.23,2.798
	c-3.658,3.873-5.808,9.038-5.808,14.848c0,6.026,2.149,11.191,5.808,15.065c1.077,1.077,2.154,1.937,3.23,2.798
	C224.963,237.527,223.887,237.742,222.81,237.959z M227.76,235.161c-1.935-1.292-3.656-3.015-4.951-4.952
	c-1.936-3.011-3.228-6.67-3.228-10.76c0-3.874,1.292-7.532,3.228-10.544c1.294-1.937,3.016-3.658,4.951-4.949
	c0.433-0.216,0.861-0.646,1.507-0.861c1.721,1.076,3.443,2.368,4.95,4.088c0.429,0.646,1.077,1.291,1.506,1.938
	c-0.646,1.075-1.077,2.368-1.506,3.658c-0.645,1.937-1.078,4.089-1.078,6.456c0,2.151,0.433,4.52,1.078,6.456
	c0.429,1.29,0.861,2.583,1.506,3.874c0,0,0,0,0,0.216c-0.43,0.646-1.077,1.507-1.506,2.151c-1.506,1.722-3.229,3.012-4.95,4.089
	C228.621,235.807,228.193,235.375,227.76,235.161z M240.674,237.527c-1.079,0.214-2.152,0.432-3.229,0.432c-0.217,0-0.217,0-0.433,0
	c-0.428,0-0.858,0-1.29,0c-0.43,0-1.077-0.217-1.506-0.217c-0.645,0-1.078-0.214-1.723-0.43c0.645-0.431,1.079-0.861,1.723-1.291
	c0.429-0.43,1.077-0.86,1.506-1.507c0.645-0.646,1.29-1.291,1.723-1.937v-0.216c1.076,1.293,1.934,2.369,3.229,3.23
	c0.428,0.645,1.074,1.076,1.721,1.507C241.748,237.312,241.102,237.527,240.674,237.527z M245.191,235.807
	c-1.722-1.077-3.227-2.153-4.517-3.661c-0.646-0.645-1.294-1.29-1.723-2.15c0.644-1.079,1.29-2.368,1.723-3.659
	c0.645-2.154,1.074-4.52,1.074-6.888c0-2.367-0.429-4.518-1.074-6.671c-0.646-1.505-1.079-2.797-1.939-4.088
	c0.645-0.862,1.293-1.508,1.939-2.367c1.074-1.292,2.366-2.368,3.872-3.229c0.861,0.215,1.291,0.646,1.935,1.076
	c1.721,1.292,3.229,2.797,4.523,4.52c2.151,3.013,3.227,6.885,3.227,10.759c0,4.089-1.077,7.963-3.227,10.977
	c-1.294,1.72-2.801,3.228-4.523,4.517C246.053,235.161,245.623,235.591,245.191,235.807z M255.521,237.742h-1.29
	c-0.433,0-0.646,0-1.077,0c-0.646,0-1.507,0-2.151,0c-1.078-0.214-1.939-0.43-2.801-0.644c1.078-0.647,1.939-1.507,2.801-2.368
	c3.656-3.874,6.023-9.255,6.023-15.281c0-5.811-2.367-11.19-6.023-15.064c-1.078-1.075-2.156-1.937-3.446-2.796
	c1.079-0.432,2.152-0.648,3.446-0.86c0.643,0,1.505,0,2.151,0c2.15,0,4.089,0.213,6.023,1.074
	c6.673,2.583,11.408,9.471,11.408,17.432c0,7.963-4.735,14.848-11.408,17.432C257.888,237.098,256.811,237.527,255.521,237.742z"/>
<polygon points="220.658,189.323 220.658,177.915 225.609,173.396 240.457,189.323 245.623,189.323 228.404,170.813 244.115,156.18 
	244.115,151.015 220.658,172.966 220.658,151.015 217.002,151.015 217.002,189.323 "/>
<path style="fill:#00AEEF;" d="M38.454,448.818c0.155-2.224,0.344-4.429,0.566-6.623C38.798,444.389,38.609,446.594,38.454,448.818z
	"/>
<path style="fill:#00AEEF;" d="M38.072,456.531c0.055-1.717,0.143-3.415,0.239-5.111C38.215,453.116,38.127,454.814,38.072,456.531z
	"/>
<path style="fill:#00AEEF;" d="M38.684,480.761c-0.137-1.685-0.263-3.366-0.359-5.033C38.421,477.395,38.547,479.076,38.684,480.761
	z"/>
<path style="fill:#00AEEF;" d="M39.572,489.531c-0.228-1.873-0.448-3.745-0.621-5.595C39.124,485.786,39.344,487.658,39.572,489.531
	z"/>
<path style="fill:#00AEEF;" d="M37.969,464.409c-0.006-1.626,0.011-3.237,0.038-4.845C37.978,461.172,37.964,462.783,37.969,464.409
	z"/>
<path style="fill:#00AEEF;" d="M38.167,472.461c-0.071-1.624-0.123-3.24-0.155-4.845C38.045,469.221,38.096,470.837,38.167,472.461z
	"/>
<path style="fill:#00A651;" d="M39.674,490.396c-0.035-0.29-0.067-0.575-0.102-0.864c0.111,0.911,0.201,1.813,0.323,2.73
	c-0.003-0.032-0.007-0.068-0.013-0.101C39.805,491.569,39.749,490.985,39.674,490.396z"/>
<path style="fill:#00A651;" d="M37.984,465.441c-0.003-0.344-0.011-0.691-0.014-1.032c0.006,1.065,0.023,2.138,0.043,3.208
	c-0.003-0.23-0.006-0.462-0.009-0.691C37.995,466.431,37.989,465.934,37.984,465.441z"/>
<path style="fill:#00A651;" d="M38.754,481.619c-0.023-0.287-0.046-0.574-0.07-0.858c0.084,1.055,0.163,2.11,0.267,3.176
	c-0.006-0.065-0.012-0.125-0.018-0.188C38.865,483.035,38.816,482.331,38.754,481.619z"/>
<path style="fill:#00A651;" d="M38.211,473.36c-0.014-0.299-0.031-0.601-0.043-0.899c0.043,1.087,0.094,2.171,0.157,3.266
	c-0.006-0.11-0.011-0.225-0.017-0.336C38.27,474.712,38.24,474.038,38.211,473.36z"/>
<path style="fill:#00A651;" d="M38.045,457.78c0.011-0.414,0.011-0.835,0.028-1.249c-0.033,1.007-0.045,2.022-0.065,3.032
	c0.011-0.531,0.02-1.065,0.035-1.597C38.042,457.906,38.042,457.841,38.045,457.78z"/>
<path style="fill:#00A651;" d="M39.02,442.195c0.032-0.314,0.05-0.632,0.084-0.945C39.069,441.563,39.052,441.881,39.02,442.195z"/>
<path style="fill:#00A651;" d="M38.311,451.42c0.049-0.868,0.084-1.74,0.143-2.602C38.395,449.68,38.36,450.552,38.311,451.42z"/>
<path style="fill:#00A651;" d="M38.308,475.392c0.006,0.11,0.011,0.225,0.017,0.336c0.096,1.667,0.222,3.349,0.359,5.033
	c0.023,0.284,0.047,0.571,0.07,0.858C38.578,479.531,38.424,477.453,38.308,475.392z"/>
<path style="fill:#00A651;" d="M38.933,483.749c0.006,0.063,0.011,0.122,0.018,0.188c0.173,1.85,0.393,3.722,0.621,5.595
	c0.035,0.29,0.067,0.575,0.102,0.864C39.397,488.167,39.139,485.947,38.933,483.749z"/>
<path style="fill:#00A651;" d="M38.004,466.925c0.003,0.229,0.006,0.461,0.009,0.691c0.032,1.605,0.084,3.221,0.155,4.845
	c0.013,0.298,0.029,0.6,0.043,0.899C38.11,471.204,38.039,469.055,38.004,466.925z"/>
<path style="fill:#00A651;" d="M38.042,457.967c-0.015,0.532-0.023,1.065-0.035,1.597c-0.026,1.608-0.043,3.219-0.038,4.845
	c0.003,0.341,0.011,0.689,0.014,1.032C37.964,462.935,37.975,460.439,38.042,457.967z"/>
<path d="M38.211,473.36c0.029,0.677,0.06,1.352,0.097,2.032C38.27,474.712,38.24,474.038,38.211,473.36z"/>
<path d="M38.045,457.78c-0.003,0.061-0.003,0.126-0.003,0.187C38.042,457.906,38.045,457.841,38.045,457.78z"/>
<path d="M38.004,466.925c-0.009-0.495-0.015-0.991-0.021-1.484C37.989,465.934,37.995,466.431,38.004,466.925z"/>
<path d="M39.674,490.396c0.075,0.589,0.131,1.174,0.209,1.765C39.805,491.569,39.749,490.985,39.674,490.396z"/>
<path d="M38.754,481.619c0.063,0.712,0.111,1.416,0.179,2.13C38.865,483.035,38.816,482.331,38.754,481.619z"/>
<path style="fill:#FFFFFF;" d="M396.051,375.041c57.242-9.468,111.69,29.269,121.372,86.513
	c9.469,57.029-29.268,111.474-86.509,121.161c-57.03,9.681-111.262-29.268-120.948-86.297
	C300.282,439.171,339.022,384.727,396.051,375.041L396.051,375.041L396.051,375.041L396.051,375.041z"/>
<path d="M395.875,373.979l-0.006,0.002c-57.729,9.801-96.743,64.808-86.961,122.615c9.822,57.842,64.633,96.95,122.186,87.178
	c57.77-9.773,96.975-64.681,87.391-122.395C508.717,403.618,453.713,364.414,395.875,373.979z M516.364,461.73
	c9.386,56.55-29.025,110.347-85.628,119.923c-56.385,9.572-110.082-28.745-119.705-85.417c-0.993-5.861-1.471-11.697-1.471-17.455
	c0-49.863,35.962-94.066,86.669-102.676C452.898,366.728,506.79,405.143,516.364,461.73z"/>
<path d="M369.3,491.685c-10.018,4.293-19.482,8.349-25.036,11.779l1.134,1.832c5.417-3.349,14.807-7.372,24.749-11.634l9.77-4.226
	l-0.872-1.966L369.3,491.685z"/>
<path d="M450.862,488.201c14.952,4.01,27.359,10.02,34.778,13.607l3.354,1.608l0.909-1.948l-3.328-1.595
	c-7.484-3.623-20.008-9.687-35.154-13.751L450.862,488.201z"/>
<path d="M321.162,482.231l2.148-0.035c-0.211-12.983,9.492-41.762,14.538-52.91l-1.96-0.887
	C330.776,439.694,320.94,468.936,321.162,482.231z"/>
<path d="M369.641,414.999c4.395,12.449,13.359,25.411,23.982,34.669l1.413-1.623c-10.354-9.025-19.09-21.647-23.363-33.765
	L369.641,414.999z"/>
<rect x="392.163" y="386.771" transform="matrix(0.9993 -0.0382 0.0382 0.9993 -14.5096 16.0395)" width="40.916" height="2.15"/>
<rect x="426.916" y="434.654" transform="matrix(0.505 -0.8631 0.8631 0.505 -155.3857 600.5063)" width="37.908" height="2.15"/>
<path d="M486.985,425.676l4.609,7.588c5.463,8.325,12.262,18.687,14.863,41.11l2.136-0.245c-2.659-22.932-9.612-33.53-15.201-42.043
	l-4.492-7.392L486.985,425.676z"/>
<path d="M456.657,563.77l-4.854,3.435l1.257,1.746l4.832-3.418c11.792-8.279,26.469-18.58,36.557-34.76l-1.827-1.138
	C482.766,545.442,468.29,555.605,456.657,563.77z"/>
<rect x="414.128" y="511.249" transform="matrix(0.9993 -0.0384 0.0384 0.9993 -20.1882 16.3394)" width="2.149" height="44.794"/>
<path d="M339.206,538.773c7.341,10.776,30.527,29.963,46.288,33.368l0.455-2.101c-15.282-3.304-37.811-21.979-44.961-32.478
	L339.206,538.773z"/>
<path d="M387.01,580.776c-2.151-5.165-4.302-10.114-5.164-10.758c12.481-4.735,23.887-9.903,34.215-15.713
	c9.686,5.81,19.155,9.47,39.386,11.838l0,0l0,0l-5.811,11.621l0,0l0,0c-6.026,2.151-12.27,3.872-18.723,4.951
	C415.85,585.294,400.998,584.432,387.01,580.776L387.01,580.776L387.01,580.776L387.01,580.776L387.01,580.776z M450.065,380.206
	c14.202,5.381,27.116,13.557,37.876,24.318l0,0l0,0l2.369,25.179l0,0l0,0c-14.637-9.902-27.333-13.127-37.23-6.239
	c-2.368-13.99-14.419-24.75-23.028-36.155l0,0l0,0L450.065,380.206L450.065,380.206L450.065,380.206L450.065,380.206z
	 M518.501,486.087c-1.291,18.076-7.102,35.077-16.57,49.927c-4.089,0.646-8.395,1.292-14.205,2.151l0,0l0,0l-1.505-37.446l0,0l0,0
	c7.315-8.392,17.86-21.305,21.304-32.71C508.171,469.517,513.55,478.554,518.501,486.087L518.501,486.087L518.501,486.087
	L518.501,486.087L518.501,486.087z M328.043,539.888c-8.82-12.484-15.277-27.116-18.077-43.258
	c4.952-6.67,12.916-19.367,12.701-20.872c3.228,3.227,15.493,24.962,25.392,26.901c-5.166,12.48-5.597,30.341-5.166,39.165
	C336.224,540.749,331.92,540.102,328.043,539.888L328.043,539.888L328.043,539.888L328.043,539.888L328.043,539.888z
	 M332.349,412.056c11.191-13.559,25.826-24.533,43.044-31.204c5.377,4.089,13.125,6.671,22.594,7.532
	c-5.164,3.443-22.166,19.8-25.393,29.699c-8.392,1.507-29.699,7.746-36.583,13.127C334.071,426.69,332.994,419.158,332.349,412.056
	L332.349,412.056L332.349,412.056L332.349,412.056L332.349,412.056z M391.961,445.843l47.988-0.43l13.993,42.392l-39.385,27.979
	l-36.582-26.469L391.961,445.843L391.961,445.843L391.961,445.843z"/>
<path d="M415.534,553.368c-9.987,5.618-21.133,10.735-34.068,15.641l-1.621,0.618l1.337,1.238c0.578,0.533,2.204,4.005,4.837,10.325
	l0.205,0.491l0.516,0.136c14.649,3.83,29.573,4.49,44.354,1.957c6.111-1.02,12.472-2.701,18.902-4.997l0.405-0.146l6.693-13.378
	l-1.524-0.178c-20.232-2.368-29.605-6.083-38.955-11.692l-0.536-0.32L415.534,553.368z M416.03,555.524
	c9.184,5.44,18.614,9.106,37.782,11.487c-1.012,2.019-4.599,9.193-4.935,9.862c-6.172,2.182-12.276,3.801-18.141,4.779
	c-14.316,2.453-28.763,1.818-42.957-1.823c-2.255-5.387-3.481-8-4.284-9.334C395.736,565.792,406.434,560.886,416.03,555.524z"/>
<path d="M449.706,379.191l-21.449,7.613l7.673,9.459c7.051,8.399,14.347,17.083,16.089,27.38l0.281,1.67l1.394-0.966
	c8.883-6.183,20.664-4.137,36.011,6.246l1.889,1.278l-2.615-27.834l-0.274-0.273c-10.755-10.757-23.628-19.02-38.259-24.567
	l-0.369-0.141L449.706,379.191z M450.023,381.361c14.081,5.387,26.486,13.353,36.887,23.681c0.069,0.734,1.796,19.104,2.127,22.622
	c-14.591-9.396-26.168-11.241-35.299-5.714c-2.212-10.254-9.228-18.819-16.159-27.069c0,0-4.352-5.36-5.732-7.066
	C434.265,386.956,449.313,381.615,450.023,381.361z"/>
<path d="M506.496,467.699c-3.366,11.14-13.647,23.776-21.087,32.313l-0.28,0.322l1.571,39.074l15.881-2.404l0.255-0.412
	c9.678-15.179,15.466-32.615,16.739-50.43l0.027-0.362l-0.203-0.303c-4.916-7.484-10.262-16.456-10.884-17.911l-1.165-2.719
	L506.496,467.699z M507.628,470.491c1.958,3.48,6.077,10.229,9.755,15.849c-1.282,17.187-6.86,33.999-16.136,48.69
	c-0.873,0.13-10.582,1.601-12.492,1.891c-0.092-2.224-1.411-35.041-1.442-35.828C494.391,492.952,503.637,481.32,507.628,470.491z"
	/>
<path d="M321.596,475.792c-0.184,1.545-7.037,12.847-12.493,20.195l-0.275,0.371l0.08,0.455c2.72,15.703,8.863,30.402,18.259,43.697
	l0.299,0.424l0.52,0.028c3.946,0.216,8.398,0.902,14.738,1.924l1.31,0.21l-0.064-1.326c-0.536-10.894,0.478-27.567,5.084-38.701
	l0.503-1.215l-1.291-0.253c-6.97-1.364-15.582-13.71-20.724-21.087l-5.727-7.678L321.596,475.792z M322.983,477.971
	c1.12,1.513,2.795,3.775,2.795,3.775c5.407,7.753,13.437,19.169,20.949,21.567c-4.265,11.048-5.032,25.027-5.032,32.983
	c0,1.837,0.038,3.189,0.075,4.266c-5.382-0.859-9.497-1.46-13.096-1.69c-8.971-12.81-14.876-26.936-17.549-42.01
	C314.112,492.787,320.793,482.78,322.983,477.971z"/>
<path d="M375.001,379.849c-16.797,6.508-31.832,17.409-43.485,31.521l-0.279,0.342l0.042,0.441c0.834,9.188,2.06,15.558,3.742,19.48
	l0.551,1.285l1.102-0.863c6.527-5.099,27.382-11.348,36.109-12.913l0.632-0.114l0.199-0.614c3.157-9.683,19.89-25.746,24.972-29.134
	l2.534-1.693l-3.038-0.275c-9.227-0.841-16.846-3.368-22.039-7.314l-0.479-0.365L375.001,379.849z M375.319,382.071
	c4.958,3.582,11.829,5.954,19.976,7.014c-6.559,5.301-20.111,18.99-23.45,28.056c-7.764,1.477-27.215,7.045-35.261,12.431
	c-1.334-3.691-2.384-9.389-3.111-17.146C344.74,398.891,359.188,388.412,375.319,382.071z"/>
<path d="M439.942,444.335l-48.766,0.44l-14.465,44.955l37.84,27.378l40.661-28.885l-14.484-43.893L439.942,444.335z
	 M439.175,446.495c0.466,1.414,13.022,39.463,13.496,40.893c-1.235,0.876-36.912,26.22-38.109,27.07
	c-1.189-0.859-34.125-24.689-35.324-25.558c0.452-1.41,13.059-40.583,13.509-41.987C394.227,446.902,437.68,446.511,439.175,446.495
	z"/>
</svg>
