<svg xmlns="http://www.w3.org/2000/svg" xml:space="preserve" viewBox="0 0 612 792"><path d="m77.256 127.672 3.888-14.976L93.6 121.84c22.68 16.776 54.072 30.672 91.224 40.392 36.072 9.432 77.616 14.832 121.752 14.832s85.608-5.4 121.752-14.832c37.152-9.72 68.544-23.616 91.152-40.392l12.528-9.216 3.888 15.048c24.768 95.616 30.96 194.112-.216 288.072-31.176 94.104-99.576 183.384-223.632 260.352l-5.472 3.456-5.472-3.456C177.048 599.128 108.648 509.848 77.472 415.744c-31.176-93.96-24.984-192.456-.216-288.072" style="fill:#0061af"/><path d="M62.352 272.392c-.72 47.736 5.472 95.184 20.808 141.48 15.336 46.368 39.888 91.512 75.888 134.64 41.616 49.752 92.664 89.928 147.528 123.984 54.864-34.056 105.912-74.232 147.528-123.984 36-43.128 60.552-88.272 75.888-134.64 15.336-46.296 21.528-93.744 20.808-141.48-.792-50.976-9.576-100.44-22.392-149.688-14.76 10.944-29.808 20.016-46.728 27.504-54 23.904-116.424 32.832-175.104 32.832s-121.104-8.928-175.104-32.832c-16.92-7.488-31.968-16.56-46.728-27.504-12.816 49.248-21.6 98.712-22.392 149.688" style="fill:#fff200"/><path d="M93.96 147.328c-20.88 87.48-24.768 176.832 3.456 261.864 29.232 88.272 93.312 172.44 209.16 245.664 115.848-73.224 179.928-157.392 209.16-245.664 28.224-85.032 24.336-174.384 3.456-261.864-23.184 14.4-52.344 26.424-85.608 35.136-37.944 9.936-81.216 15.552-127.008 15.552s-89.064-5.616-127.008-15.552c-33.264-8.712-62.424-20.736-85.608-35.136" style="fill:#0061af"/><circle cx="306.576" cy="465.784" r="117.72" style="fill:#fff200" transform="rotate(-45 306.576 465.784)"/><path d="M314.856 400.336a65.6 65.6 0 0 1 32.112 13.32c-3.24-7.776-1.656-17.136 4.68-23.4 5.76-5.76 14.04-7.56 21.384-5.4-15.696-12.888-35.136-21.384-56.448-23.4 6.84 3.6 11.52 10.8 11.52 19.08 0 8.856-5.472 16.488-13.248 19.8M346.968 517.84a65.03 65.03 0 0 1-32.112 13.392c7.776 3.24 13.248 10.944 13.248 19.872 0 8.208-4.68 15.408-11.52 19.08 21.312-2.088 40.752-10.512 56.448-23.472-7.344 2.16-15.624.36-21.384-5.4-6.336-6.336-7.92-15.624-4.68-23.472M298.296 531.232a65.03 65.03 0 0 1-32.112-13.392c3.24 7.848 1.656 17.136-4.68 23.472-5.76 5.832-14.04 7.56-21.456 5.4 15.768 12.96 35.208 21.384 56.592 23.472-6.912-3.672-11.592-10.872-11.592-19.08 0-8.928 5.472-16.632 13.248-19.872M266.184 413.656a65.6 65.6 0 0 1 32.112-13.32c-7.776-3.312-13.248-10.944-13.248-19.8 0-8.28 4.68-15.48 11.52-19.08-21.312 2.016-40.752 10.512-56.448 23.4 7.344-2.16 15.624-.36 21.384 5.4 6.336 6.264 7.92 15.624 4.68 23.4" style="fill:#0061af"/><path d="m139.896 252.016-11.808-3.816 10.656-32.976c2.736-8.28 10.152-12.744 18.792-9.936l11.16 3.6-3.744 11.376-9.216-3.024c-3.096-1.008-4.536-.072-5.328 2.376l-1.44 4.464 13.32 4.32-3.528 11.016-13.392-4.32zM175.32 211.408l12.168 3.024-3.456 16.704c2.304.504 3.528.432 4.68-1.152l10.008-12.816 13.968 3.456-9.936 12.456c-1.368 1.8-3.6 3.96-5.832 4.752 6.264 3.312 7.704 8.064 6.696 12.6l-3.744 18.072-12.744-3.168 3.24-15.408c1.008-4.824-.936-5.688-8.712-7.56l-4.248 20.592-12.168-3.024zM244.44 236.392l-12.456-1.944c-1.584-.216-2.88.144-3.096 1.584-.432 4.176 17.424 12.456 16.056 24.048-.72 6.336-3.312 14.544-19.224 12.024l-13.248-2.088 1.296-11.376 12.888 1.944c2.808.504 4.68-.072 4.896-1.944.576-5.184-16.704-12.24-15.336-24.048 1.224-10.296 8.928-12.888 16.632-11.664l12.96 2.016zM279.792 226.456l8.568.144-.432 19.296-8.568-.216zm13.104.288 8.496.144-.36 19.296-8.568-.216zM334.584 239.2l-12.528.36c-1.584 0-2.88.576-2.808 2.088.072 4.248 18.864 9.216 19.08 20.88.216 6.48-1.224 15.048-17.208 15.408l-13.392.36-.216-11.592 12.888-.288c2.88-.072 4.608-1.008 4.536-2.808-.072-5.328-18.072-9.144-18.36-21.168-.216-10.368 6.984-14.256 14.76-14.472l12.96-.288zM376.128 224.152l.936 11.952-9.072.72 3.096 37.872-12.384 1.008-3.096-37.872-9.144.792-.936-11.952zM390.168 272.104l-5.04-32.4c-1.728-10.584 4.176-18.864 14.472-20.52 10.296-1.584 18.36 4.464 20.016 15.048l5.112 32.472-12.24 1.872-2.736-17.208-7.704 1.224-1.728-11.16 7.704-1.152-.72-4.68c-.576-3.672-2.952-5.76-5.976-5.256-3.024.432-4.608 3.169-4.032 6.84l5.184 32.976zM464.688 255.544l-9.144 2.376c-11.736 2.952-18.36-.072-21.24-11.232l-8.424-32.76 12.024-3.096 8.136 31.68c1.008 3.888 2.592 4.752 7.488 3.528l8.208-2.16zM455.616 205.864l8.064-2.88 6.48 18.072-8.064 2.952zm12.312-4.464 6.481 18.144 8.064-2.88-6.552-18.144zM210.528 282.616l8.856 1.224-1.656 12.456c1.728.144 2.592 0 3.384-1.224l6.48-10.08 10.08 1.368-6.408 9.864c-.864 1.44-2.376 3.168-3.888 3.888 4.608 1.944 5.832 5.256 5.4 8.64l-1.728 13.464-9.288-1.296 1.512-11.448c.504-3.6-.936-4.032-6.624-4.824l-2.016 15.336-8.856-1.224zM239.256 323.08l1.728-23.544c.648-8.64 6.12-13.104 13.752-12.456 7.056.504 11.664 4.824 11.16 11.664-.36 4.536-2.592 6.912-6.624 7.056v.072c3.168 1.008 6.552 2.016 6.192 6.552l-.936 12.6-9-.72.792-11.016c.216-2.16-1.224-2.952-5.112-3.24l.576-8.208c3.168.144 4.896-.432 5.112-3.312.144-2.016-1.584-2.952-2.952-3.096-2.16-.144-3.384 1.152-3.6 4.752l-1.8 23.616zM273.672 325.456l.576-23.976c.216-7.776 5.4-12.96 12.888-12.744 7.488.144 12.456 5.616 12.24 13.464l-.648 23.904-8.856-.216.288-12.744-5.616-.144.216-8.208 5.616.144.072-3.456c.072-2.664-1.296-4.464-3.528-4.536-2.16-.072-3.672 1.656-3.744 4.392l-.648 24.336zM326.016 297.808l-9 .144c-1.152 0-2.088.432-2.088 1.512.072 3.096 13.536 6.84 13.608 15.408.072 4.68-1.008 10.944-12.528 11.16l-9.504.072-.072-8.424 9.144-.144c2.088 0 3.384-.648 3.312-2.016 0-3.816-12.888-6.768-12.96-15.552-.144-7.56 5.04-10.368 10.656-10.44l9.288-.144zM336.024 325.6l-1.872-31.968c-.144-2.952 1.944-5.184 4.968-5.328 3.024-.216 4.896.864 6.408 3.456l8.856 15.552h.072l-1.08-19.224 8.856-.576 1.872 31.752c.216 3.312-2.16 5.472-4.392 5.544-2.304.144-4.032-.792-6.696-5.328l-9.216-15.696h-.144l1.296 21.312zM381.6 322.144l-8.856.936-3.6-36.288 8.856-.936zM385.128 285.136l8.784-1.296 1.8 12.384c1.656-.288 2.448-.648 2.88-2.088l3.528-11.52 10.08-1.512-3.528 11.304c-.432 1.584-1.368 3.672-2.664 4.824 4.968.576 7.056 3.384 7.56 6.84l1.944 13.392-9.216 1.368-1.656-11.448c-.576-3.6-2.088-3.672-7.704-2.808l2.232 15.336-8.784 1.296zM325.872 283.336l-4.752 4.752-7.56.36 3.024-4.824z" style="fill:#fff200"/><path d="M376.848 424.528a22.6 22.6 0 0 0 5.256-3.888c5.76-5.76 7.56-14.04 5.4-21.384 12.888 15.696 21.384 35.208 23.4 56.52-3.528-6.768-10.512-11.376-18.576-11.52v43.056a21.64 21.64 0 0 0 18.576-11.52c-2.016 21.312-10.512 40.752-23.4 56.448 2.16-7.344.36-15.624-5.4-21.384a20.4 20.4 0 0 0-5.256-3.816H339.84c-9.072 7.344-20.664 11.808-33.264 11.808s-24.192-4.464-33.264-11.808h-37.008a20.4 20.4 0 0 0-5.256 3.816c-5.76 5.76-7.56 14.112-5.4 21.456-12.888-15.696-21.384-35.208-23.4-56.52a21.64 21.64 0 0 0 18.576 11.52v-43.056c-8.064.144-15.048 4.752-18.576 11.52 2.016-21.312 10.512-40.824 23.4-56.52-2.16 7.344-.36 15.624 5.4 21.384a22.6 22.6 0 0 0 5.256 3.888h36.936c9.144-7.416 20.736-11.808 33.336-11.808s24.192 4.392 33.264 11.808z" style="fill:#0061af"/><path d="M230.04 427.264h153.072c3.528 0 6.48 3.312 6.48 7.416v62.136c0 4.104-2.952 7.416-6.48 7.416H230.04c-3.528 0-6.48-3.312-6.48-7.416V434.68c0-4.104 2.952-7.416 6.48-7.416" style="fill:#fff200"/><path d="M383.112 429.856H230.04c-2.304 0-4.176 2.16-4.176 4.824v62.136c0 2.664 1.872 4.824 4.176 4.824h153.072c2.304 0 4.176-2.16 4.176-4.824V434.68c0-2.664-1.872-4.824-4.176-4.824" style="fill:#0061af"/><path d="M383.112 432.52H230.04c-1.008 0-1.872.936-1.872 2.16v62.136c0 1.224.864 2.232 1.872 2.232h153.072c1.008 0 1.872-1.008 1.872-2.232V434.68c0-1.224-.864-2.16-1.872-2.16" style="fill:#fff200"/><path d="M260.784 486.736h-9.648v-31.68h-6.552v-9.504h16.2zM282.096 486.736l12.096-22.824c1.008-1.8 1.8-3.312 1.8-4.824 0-2.448-1.728-4.392-4.32-4.392-3.168 0-4.896 2.088-4.896 5.04 0 2.88 2.16 4.536 4.752 4.752l-5.184 9.144c-5.76-2.232-9.432-7.2-9.432-13.608 0-9 5.544-15.192 14.904-15.192 8.496 0 14.112 5.976 14.112 14.4 0 2.808-1.656 6.912-3.24 9.864l-9.432 17.64zM314.064 476.8h12.312c3.312 0 4.896-1.512 4.896-3.816 0-2.664-1.872-4.32-5.256-4.32h-11.16v-23.112h22.824v9.288h-12.888v4.248h2.16c8.208 0 14.184 4.536 14.184 13.824 0 9.216-7.488 13.824-13.824 13.824h-13.248zM368.568 486.736h-9.648v-31.68h-6.552v-9.504h16.2z" style="fill:#0061af"/></svg>