<svg xmlns="http://www.w3.org/2000/svg" width="1000" height="1000" viewBox="0 0 1000 1000"><path d="M474.908 950c261.824 0 475.275-213.454 475.275-475.092C950.183 213.451 736.732 0 474.908 0 213.451 0 0 213.449 0 474.906 0 736.546 213.451 950 474.908 950"/><path fill="#fff" d="M474.908 937.908c255.042 0 463-207.958 463-463.002 0-254.861-207.955-462.814-463-462.814-254.675 0-462.632 207.953-462.632 462.814 0 255.044 207.957 463.002 462.632 463.002"/><path fill="#f2d264" d="M474.908 919.583c244.968 0 444.675-199.707 444.675-444.675 0-244.781-199.707-444.491-444.675-444.491-244.6 0-444.313 199.707-444.313 444.491.002 244.965 199.712 444.675 444.313 444.675"/><path fill="#fff" d="M474.908 807.637c183.223 0 332.73-149.508 332.73-332.731 0-183.037-149.507-332.543-332.73-332.543-183.037 0-332.545 149.508-332.545 332.543 0 183.223 149.508 332.731 332.545 332.731"/><path d="M474.908 793.346c175.526 0 318.438-143.096 318.438-318.438 0-175.156-142.912-318.254-318.438-318.254-175.158 0-318.257 143.096-318.257 318.254 0 175.34 143.099 318.438 318.257 318.438"/><path fill="#fff" d="M474.908 785.285c170.945 0 310.374-139.432 310.374-310.377 0-170.761-139.429-310.193-310.374-310.193-170.761 0-310.01 139.43-310.01 310.193 0 170.945 139.249 310.377 310.01 310.377"/><path d="m715.476 598.947 6.049-.364c14.29-27.668 23.271-60.464 24.737-100.592 14.29-12.456 27.666-26.017 38.29-45.069-3.481-47.453-17.587-91.978-40.128-131.367-18.688-11.362-38.656-21.442-58.08-23.271-26.933-27.666-66.141-58.996-106.085-73.656-8.248-21.068-24.182-37.746-41.405-53.134a305.3 305.3 0 0 0-63.946-6.779c-21.803 0-43.239 2.382-63.943 6.78-14.476 14.107-28.032 29.131-37.926 46.723-34.264 16.853-65.228 36.826-95.645 63.21l.37.369c-19.974 4.578-40.128 11.54-60.099 20.518-26.933 39.944-44.89 86.298-50.754 136.319 10.446 11.543 21.987 25.281 35.73 35.908 8.98 44.341 24.92 88.68 43.604 131.006l.552-.186c-.366 25.473.552 50.754 3.481 76.221 44.341 3.298 85.932 0 126.242-6.779-7.697-14.657-14.476-29.87-20.34-45.44 16.495-17.77 30.781-36.644 44.161-56.248l-4.585-2.565c-13.19 19.607-28.033 38.656-43.97 56.064-35.178.73-67.793-8.98-100.59-24.001-19.423-40.494-33.345-83.181-42.875-126.79 18.141-33.343 37.193-62.843 64.126-84.832 23.636 11.912 48.373 22.538 72.557 29.684v-5.497c-23.635-7.692-47.27-17.955-70.908-29.68-3.112-32.067-3.297-65.962 6.965-100.407l.367.364c28.948-23.821 60.278-49.652 93.258-62.294 34.628 7.878 69.256 27.3 103.884 43.606v37.376h6.046v-37.562c31.147-23.266 60.645-33.529 93.625-37.193 35.727 11.911 78.42 46.72 105.719 73.29 3.481 32.612 4.214 66.51-2.748 97.105-23.819 9.71-48.92 16.853-72.555 21.436v6.047c24.552-4.764 49.836-11.726 74.02-21.803 21.987 27.482 42.693 57.164 58.447 89.96-2.19 39.76-8.426 73.661-25.648 103.523"/><path d="m578.61 616.355 6.781-.55c-9.893-14.474-19.79-30.414-28.035-46.356l-4.58 4.214c7.698 14.477 15.573 28.584 25.834 42.692"/><path fill="#fff" d="M893.938 623.684c-307.814-116.712-499.829 172.227-839.522-4.95 30.783 89.597 89.413 166.367 165.631 219.87 233.058 62.477 355.817-108.102 574.215-54.783 43.79-45.26 78.054-99.678 99.676-160.137"/><path fill="#8aaf40" d="M797.74 780.154c41.594-43.972 74.207-96.191 95.28-153.905-313.677-113.229-488.47 172.774-836.22-.916 30.228 83.73 85.01 155.735 155.369 207.769 243.318 65.778 356.366-109.93 585.572-52.948"/><path d="M560.474 381.465h-27.486V523.46l27.486-24.004ZM396.858 382.567h27.482v141.996l-27.482-24.001ZM594.552 408.947H567.07v87.029l27.482-23.816ZM362.776 411.512h27.486v87.031l-27.486-24.004ZM465.015 322.469h27.3V488.1h-27.3Z"/><path fill="#f2d264" d="M465.015 467.03h27.3V621.3h-27.3Z"/><path d="M498.91 351.05h27.483v137.047H498.91Z"/><path fill="#f2d264" d="M498.91 488.1h27.483v133.202H498.91Z"/><path d="M430.934 351.05h27.482v137.047h-27.482Z"/><path fill="#f2d264" d="M430.934 488.1h27.482v133.202h-27.482Z"/><g fill="#8aaf40"><path d="M304.147 102.785c-3.481-1.649-6.965-2.018-10.444-1.097-.732.184-1.649.367-2.745.917-2.565.913-6.05 2.745-10.263 4.946l-13.192 7.146-4.03 2.015 4.03 7.512 23.452 44.158.733 1.466 10.624-5.682-10.624-20.154 6.962-3.662c4.945-2.57 8.426-4.766 10.81-6.598 1.65-1.469 2.929-3.3 4.211-5.5q1.651-3.293 1.652-7.695c0-2.745-.919-5.863-2.565-9.158-2.199-4.214-5.13-7.148-8.611-8.614m-3.298 23.819c-1.1 1.282-3.848 3.114-8.064 5.313l-1.83 1.1-4.03 2.015-8.065-15.022 5.313-2.748c2.935-1.652 5.13-2.748 6.782-3.298.364-.186.733-.369 1.097-.369q2.754-1.102 5.496 0c1.835.547 3.3 2.015 4.217 3.848.916 1.649 1.1 3.114 1.1 4.76-.184 1.655-.917 3.12-2.016 4.4M254.675 174.426c-4.397-2.015-7.878-3.295-10.807-4.03-2.75-.736-5.499-.55-8.061.546.913-2.198 1.28-4.214 1.096-5.86-.183-1.652-.73-3.481-1.466-5.5-1.282-4.03-2.198-6.595-2.381-8.06-.184-1.467 0-2.747.366-4.032.552-1.099 1.835-2.565 3.664-4.033l1.466-1.1-5.682-6.964c-.733.552-1.1.918-1.463 1.099-4.212 3.481-6.965 6.78-7.881 9.527-.919 2.934-.367 7.515 1.835 14.291 1.646 5.13 2.381 8.428 2.381 9.894 0 1.652-1.099 3.298-2.931 5.13l-16.123-19.79-9.528 7.515 37.926 46.718 9.345-7.51-16.49-20.523c1.646-1.28 2.929-2.013 4.211-2.013s3.481.547 6.599 1.83c1.646.919 2.562 1.283 2.929 1.283.55.369 1.102.55 1.28.55l15.39 7.692 7.148-5.86 3.845-3.113-3.845-1.835zM123.672 272.084l13.744-24.918-8.794-4.95-19.79 35.73 52.586 29.13 6.046-10.624ZM717.86 151.888l6.596-10.258-6.596-4.397-28.215-18.322-1.283 2.015-2.198 3.298c-5.68 8.795-10.63 15.757-15.027 21.073-4.394 5.313-8.977 9.341-13.922 12.276l-4.214-2.749-10.443 16.12-2.199 3.301 2.199 1.466 6.23 4.034 7.142-10.996 31.697 20.706-7.146 10.99 7.879 5.13.55.364 12.644-19.42-4.395-2.932zm-29.5 23.088-1.28 2.015-19.24-12.459c6.046-4.214 12.825-11.726 20.52-22.721 1.832-2.565 3.664-5.128 5.499-8.06l15.021 9.711zM834.387 267.686c-.733-2.384-2.932-6.595-6.962-12.825l-10.26-16.492-5.497 3.484-38.662 24.182-6.779 4.216 6.413 10.258.366-.18 18.874-11.73 4.214 6.597c2.93 4.763 5.314 8.061 7.327 10.26 1.465 1.468 3.483 2.75 5.68 3.848.915.369 1.831.55 2.564.735 1.647.366 3.481.547 5.311.366 2.75-.185 5.68-1.28 8.98-3.114 4.031-2.565 6.596-5.68 8.062-9.161 1.285-3.664 1.468-7.146.369-10.444m-11.729 4.578c-.55 1.835-1.646 3.3-3.478 4.398-1.65.918-3.115 1.465-4.764 1.282a7.3 7.3 0 0 1-2.745-.55c-.547-.183-1.102-.55-1.835-1.099-1.283-.919-3.298-3.481-5.863-7.514l-3.481-5.68 11.179-6.96 3.295-2.018 3.117 4.947c2.382 3.664 3.665 6.23 4.212 7.512.735 1.835.918 3.847.363 5.682M190.185 262.007l7.143-9.164-9.158-6.96-7.148 8.978ZM642.555 123.858c2.932-8.062 2.932-15.574.367-21.986-.183-.37-.183-.55-.367-.733-2.931-6.78-8.43-11.726-16.306-14.84-4.028-1.65-7.876-2.563-11.543-2.75h-1.282c-3.115.187-6.227.734-9.344 2.2a25.1 25.1 0 0 0-8.245 5.496c-3.293 3.115-6.044 7.695-8.242 13.378-3.662 8.794-4.031 16.672-1.1 23.815 2.751 6.963 8.428 12.095 16.673 15.576a34.7 34.7 0 0 0 11.545 2.565c3.848 0 7.515-.732 11.18-2.379 6.959-3.117 12.272-9.163 15.756-18.14.361-.736.725-1.47.908-2.202m-12.459-2.748c-2.565 6.412-5.862 10.807-10.08 12.825-1.831.919-3.478 1.466-5.312 1.649-2.565.18-5.13-.186-7.693-1.283-4.583-1.835-7.512-4.947-9.16-9.346-1.65-4.398-1.1-9.894 1.465-16.124 2.565-6.41 5.86-10.626 10.077-12.642a13.7 13.7 0 0 1 5.313-1.646c2.565-.183 5.133.366 7.876 1.463 4.583 1.838 7.698 4.952 9.166 9.164q2.196 6.316-1.652 15.94M779.79 192.562l-6.781-7.326-1.83-2.016-17.041 6.78-36.278 14.471-6.598 2.568 6.598 7.145 2.2 2.382 13.371-5.677 16.307 17.589-6.413 13.003 8.975 9.713 1.835-4.03 18.871-39.945zm-25.286 26.02-.366-.184-10.81-11.728 10.81-4.58 10.993-4.764zM514.114 121.476l3.667-26.02 23.638 3.301-3.67 26.017 12.095 1.646 8.248-59.546-11.912-1.648-3.298 23.451-23.635-3.298 3.298-23.451-12.092-1.652-8.248 59.546ZM363.51 74.755l-12.276 3.479-5.866 64.129 12.276-3.481 1.102-14.477 8.61-2.565 14.473-4.031 8.794 11.726 12.642-3.667-35.91-46.354zm11.728 34.445-7.878 2.202-7.881 2.196 1.651-23.638 6.23 8.43zM456.77 107.363c-2.016 2.201-4.766 3.484-8.062 3.67-4.214.369-7.88-.92-10.993-3.848-2.934-2.934-4.766-8.247-5.499-15.76-.55-7.145.37-12.458 2.748-15.94 2.563-3.295 6.05-5.313 10.446-5.682 3.298-.18 6.047.37 8.426 2.018 2.387 1.65 4.214 3.85 5.132 6.963l11.543-3.848c-1.649-4.764-4.033-8.245-6.962-10.627-4.95-3.847-10.993-5.493-18.325-4.946-8.43.735-15.026 4.211-19.604 10.077-4.763 6.046-6.596 13.927-5.68 24.004.73 9.341 4.031 16.49 9.528 21.62 5.68 4.949 12.461 6.962 20.337 6.415 6.415-.553 11.543-2.749 15.573-6.23 3.848-3.484 6.23-8.611 7.515-15.39l-11.91-2.565c-.73 4.394-2.015 7.692-4.213 10.069"/></g><path fill="#fff" d="m269.338 740.577-.366-2.382-.733-2.201-.919-2.196-1.283-2.199-1.282-2.015-1.83-2.385-2.75-2.379-2.563-2.018-2.565-2.015-2.748-1.835-2.932-1.832-2.748-1.647-2.931-1.651-2.93-1.466-3.117-1.463-2.931-1.468-3.115-1.28-3.112-1.285-2.931-1.095-3.115-1.096-3.115-1.102-2.929-.919-3.117-.916-2.929-.73-2.931-.736-2.934-.733-2.932-.732-2.746-.55-2.75-.547-2.749-.367-.366-.18-2.199-.372-2.384-.364-2.382-.183-2.382-.366-2.199-.186-2.012-.183-1.835-.186h-2.199l-2.567.186-2.382.733-2.199.73-2.018 1.282-2.015 1.469-1.647 1.463-1.28 1.835-1.287 2.015-.916 2.199-.733 2.196-.552 2.2-.367 2.385-.183 2.377.183 2.565.183 2.565.547 2.565.55 2.562.919 2.563 1.094 2.565 1.282 2.565 1.469 2.565 1.649 2.562 1.832 2.385 2.015 2.382 2.385 2.382 2.565 2.198 2.745 2.016 2.934 2.018 3.115 1.83 3.479 1.65 3.48 1.647 3.301 1.1 3.298 1.099v20.154l33.343 9.53v-21.62l2.016.547.916.369 2.384.55 2.563.185 2.381.181h2.382l2.385-.18 2.196-.186 2.198-.55 2.202-.73 2.015-.736 2.018-.918 1.83-1.095 1.834-1.099 1.647-1.285 1.651-1.463 1.466-1.466 1.283-1.651 1.282-1.833.916-1.83.919-1.834.73-2.018.552-2.015.367-2.199v-4.214zm-74.025-10.444-1.28-.916-1.1-.547v-.186l-.916-.55-.735-.732-.55-.55-.369-.547-.178-.371-.188-.364-.183-.37v-.177l.183-.186.188-.183h.178l.186-.186h.367l.366-.18h1.469l.183.18h.366l.547.186.736.183.732.364.733.552.186 4.947zm38.478 8.978-.183.55-.186.364-.18.369-.553.366-.916.366h-.183l-2.015.736v-7.331h.55l1.101.55.364.368.55.367.55.733.551.733.367.735.183.544z"/><path fill="#fff" d="m333.464 760.914-.916-1.097-.919-1.102-1.099-1.096-1.097-.919-1.285-.91-1.099-.556.55-.73.55-.916.735-.916.55-.919.547-1.097.55-1.101.546-.917.552-1.096.55-1.283.55-1.104.366-1.094.55-1.283.369-1.102.366-1.28.364-1.102.55-1.28.183-1.282.364-1.283.369-1.102.366-1.282.184-1.283.363-1.099.186-1.282.183-1.1.367-1.282.183-1.1.186-1.096v-1.283l.547-3.85-33.346 1.1-.183 3.114v1.652l-.18.913v1.832l-.186 1.1-.184 1.099v.916l-.183 1.1-.183 1.099-.183 1.101-.183.917-.184 1.099-.366 1.094-.183.919-.367.918-.183.914-.369.919-.364.916-.366.73-.364.733-.37.733-.366.547-.55.555-.366.363-.183.186v-25.834l-32.798-.918v75.488l2.565.733.918.183.916.183.916.184.73.18.92.186.916.183h.73l.916.18.919.184.916.183h.733l.916.189.916.178h.916l.916.186h.735l.914.18h1.832l.916.186h12.276l.366-29.864.367.185.55.362.549.369.547.55.552.549.364.547.552.733.367.735.364.916.369.914.183.919.366.913.183 1.102.184 1.097.185 1.102.181 1.099.183 1.28v8.064l-.183 1.1v1.096l-.18 1.102v.916l-.553 3.662h33.898v-5.311l.18-1.466v-10.629l-.18-1.463v-1.649l-.183-1.468-.186-1.466-.183-1.466-.183-1.463-.367-1.285-.364-1.46-.369-1.283-.366-1.468-.547-1.286-.733-1.282-.735-1.283Z"/><path d="M307.261 795.362h28.766c0-15.762 2.2-33.715-13.009-39.395 7.146-6.596 11.724-22.533 13.009-33.712l-28.216.916c-.366 7.876-1.83 26.57-10.993 26.57v-26.936l-27.846-.916v71.086c8.977 2.198 17.955 3.3 27.665 2.934l.181-30.598c12.092.733 11.91 19.79 10.443 30.05"/><path fill="#fff" d="M375.421 790.595h3.664l.917-.186h1.649l.913-.175h.919l.916-.186h.916l.733-.183h.913l.916-.186h.919l.914-.18.916-.184.735-.185.914-.184h.918l.916-.18.914-.183.916-.186.735-.178.916-.372.917-.183.916-.18.916-.184.913-.183 2.565-.736.186-29.312h.183v-.186h.916l1.102.186.914.183.733.183.913.184.733.364.733.369.735.547.547.55.736.552.55.55.55.732.549.73.552.736.364.733.547.918.369.914.366.913.367 1.105.18.91.37 1.103.183 1.099.183.916.183 1.1v1.096l.183 1.102v4.578l-.183 1.1-.366 4.216 4.03-.733h.73l.92-.183.73-.184.921-.183.73-.183.914-.186.735-.183h.916l.736-.183.91-.18.734-.184.918-.183.733-.186.914-.18.735-.184.914-.369.735-.183.916-.18.73-.184.92-.186.732-.18.919-.184.73-.183.916-.366.733-.186.913-.18.736-.184.913-.18.736-.372.916-.184 2.565-.73v-6.415l-.183-1.466v-1.468l-.183-1.46v-1.466l-.181-1.466-.188-1.466-.184-1.468-.363-1.283-.184-1.465-.364-1.283-.369-1.466-.55-1.282-.363-1.28-.552-1.285-.553-1.28-.73-1.285-.733-1.28-.733-1.097-.732-1.105-.92-1.096-.915-1.102-1.097-.916-1.097-1.1-1.104-.916-1.28-.732-1.283-.733-.55-.364.184-.183 1.097-1.105.918-.91 1.1-1.103.918-.913.911-1.102.733-1.1.919-1.096.733-1.102.916-1.097.733-1.102.55-1.285.732-1.094.73-1.1.553-1.284.552-1.283.547-1.097.55-1.285.369-1.282.364-1.097.547-1.282.369-1.286.183-1.282.366-1.283.364-1.282.186-1.283.183-1.096.183-1.283v-1.288l.367-4.577-29.132 6.229-.186 2.382v.55l-.18.735-.186.913-.364.733-.186.919-.366.913-.364.917-.366 1.096-.553 1.102-.547.916-.55 1.1-.55 1.101-.551 1.097-.55 1.102-.733 1.097-.73.916-.55 1.1-.733.915-.733 1.1-.732.918-.733.916-.73.914-.736.735-.916.73-.736.736-.73.73-.735.55-.73.55-.55.369-.367.18v-23.632l-32.615 4.58-.366 74.753 3.483-.186Z"/><path d="M428.557 738.93c11.723-8.98 17.953-22.169 18.871-34.994l-24.184 5.127c-.37 7.143-10.446 25.653-19.238 28.763v16.678c13.372-.366 17.403 15.024 15.937 27.116a234 234 0 0 0 26.2-6.046c0-15.757-2.382-30.966-17.586-36.644M401.621 714.377l-27.666 3.847-.185 69.995c9.163 0 18.324-1.102 27.668-3.85l.183-29.684h.183v-16.487h-.183z"/><path fill="#fff" d="m485.901 770.991-.916.919-.913.73-.919.55-.916.552-.919.183-.73.18-.733-.18-.55-.183-.732-.552-.733-.73-1.832-3.301-22.533 5.865-.186 2.565v5.864l.186.913.178.919.183 1.096.186.919.366.919.366 1.096.367.92.55.91.732.916.733.736.733.73.916.735 1.1.733 1.101.547 1.097.552 1.283.364 1.282.37 1.466.363 1.649.183h5.133l2.012-.183 2.199-.183 2.199-.18 1.465-.184 1.652-.366 1.463-.367 1.468-.55 1.65-.366 1.465-.733 1.46-.552 1.652-.733 1.466-.916 1.466-.733 1.463-.919 1.468-1.094 1.466-1.096 1.282-1.102 1.28-1.1 1.469-1.099 1.096-1.282 1.286-1.283 1.099-1.468 1.1-1.285 1.104-1.464.91-1.463.917-1.649.918-1.468.73-1.646.733-1.65.553-1.646.364-1.651.552-1.832.18-1.65.184-1.834v-59.73l-26.75 8.062v35.361l-.18 1.65v21.253l-.187.55-.366.552-.55.916Z"/><path d="M490.115 768.243c.37 3.298-10.443 14.474-15.207 3.85l-19.054 4.761c-.547 9.344-.914 21.073 23.088 17.408 14.838-1.465 33.343-16.856 33.343-34.447v-54.6l-21.8 6.597c-.186 18.871-.186 37.56-.37 56.43"/><path fill="#fff" d="m555.89 712.91.553-.18.73-.369.919-.366.73-.18h2.748l.55.18.547.183.37.183.182.186.364.364.189.186.18.366v.367l.183.552v.919l-.183.363-.18.55-.189.552-.364.547-.366.55-.366.55-.55.369-.552.547-.73.55-.55.366-.73.366-.92.37-.732.183-.733.366h-.916l-.186.186v22.352l1.466-.55 1.651-.368 1.647-.55 1.835-.73 1.646-.736 1.832-.73 1.652-.733 1.83-.916 1.65-.919 1.647-1.094 1.65-1.096 1.648-1.102 1.652-1.097 1.465-1.282 1.469-1.283 1.463-1.466 1.282-1.468 1.28-1.466 1.283-1.646 1.1-1.652.915-1.832.916-1.832.733-1.835.733-2.015.366-2.016.367-2.015.369-2.201v-2.196l-.183-2.199-.186-2.201-.367-1.83-.366-2.018-.55-1.649-.733-1.649-.916-1.465-.918-1.28-.916-1.102-1.283-1.097-1.097-.916-1.28-.919-1.468-.547-1.28-.547-1.466-.371-1.468-.364-1.466-.184-1.649-.185h-3.117l-1.463.185-1.649.184-1.652.364-1.463.371-1.649.364-1.468.552-1.646.547-1.466.553-1.652.55-.733.366v22.156zm0-24.184v-23.638l.187-.178 2.745-.732 2.563-.733 2.748-.733 2.565-.55 2.565-.552 2.565-.366 2.562-.367 2.385-.366 2.382-.367 2.2-.183 4.945-.733.37 20.887-3.299.547-1.102.186-1.28.183-1.282.183-1.102.183-1.28.184-1.285.186-1.28.18-1.285.186-1.283.183-1.282.367-1.28.183-1.283.364-1.282.371-1.283.184-1.096.55-1.285.363-1.097.366-1.28.553-1.102.55-1.1.546-1.099.733-.916.55zm-4.944 5.31v2.016l-.183 1.105v14.469l.73 3.847 4.034-2.381.366-.186v-22.17l-.73.37-1.468.55-1.65.915.184-.18.733-1.102.916-.916.916-.733.916-.916h.183v-23.638l-2.379.733-2.748 1.099-2.563 1.283-2.567 1.28-2.385 1.468-2.565 1.649-2.382 1.83-2.198 2.198-2.201 2.199-2.016 2.381-1.832 2.749-1.649 2.745-1.649 3.118-1.28 3.298-1.282 3.661-.916 3.85-.92 4.031-.549 4.212-.364 4.58v11.54l.18 1.283.184 1.285.186 1.282.364 1.28.369 1.102.364 1.094.552 1.102.547 1.097.55.919.733 1.096.547.916.916.92.733.732.918.913.919.736.913.733 1.102.55.914.55 1.102.549 1.28.552 1.099.37 1.282.363 1.1.369 1.282.186 1.463.178 1.288.186 1.28.185h2.932l1.282-.185 1.466-.186 1.649-.178 1.466-.186 1.646-.37 1.651-.363h.184v-22.352h-2.016l-.733-.186h-.55l-.549-.367-.55-.183-.547-.183-.369-.367-.363-.185-.184-.367-.366-.366-.183-.553-.37-.732-.18-.55-.183-.73-.367-.736-.18-.55v-.732l-.186-.733-.183-.733-.184-.733v-1.466l-.18-.733v-2.381l.18-.733V705.2l.184-.733v-.733l.183-.733.186-.73v-.735l.18-.55.181-.735v-.55l.186-.736.183-.55.18-.549.186-.552v-.37l.55-1.28.733-1.101z"/><path d="M549.112 742.778c14.84-1.835 40.13-13.56 39.758-35.544-.18-23.088-20.884-20.154-35.544-12.645-.184 3.115-.364 16.859-.184 17.042 5.866-3.664 11.546-2.931 13.011.916 1.466 3.845-1.465 8.609-6.779 10.627-5.13 2.015-10.629.55-12.095-3.112-3.664-7.698-2.015-18.142-.183-24.007 7.329-15.757 25.098-15.937 37.013-17.955l-.183-16.121c-22.539 3.112-62.66 5.866-59.915 61.564v.18c0 12.823 10.263 20.885 25.1 19.055"/><path fill="#fff" d="m642.008 713.827-.183-16.306-4.95 2.565-1.282.552-.733.18v23.819l.916-.183 1.469-.367 1.649-.55 1.649-.552 29.134-5.13.366-2.562.183-.733v-.547l.184-.736v-1.465l.183-.733v-1.466l.183-.733v-2.931l.186-.733v-8.062l-.186-.918v-4.767l-.183-1.096-.183-1.102v-1.097l-.184-1.283v-1.282l-.369-1.102-.18-1.283-.37-1.094-.549-1.099-.366-1.1-.55-1.099-.736-1.096-.544-.919-.735-.916-.733-.914-.914-.735-.918-.916-.917-.733-.916-.55-1.102-.732-1.096-.548-1.097-.55-1.102-.549-1.097-.366-1.28-.367-1.282-.369-1.283-.183-1.282-.369h-1.466l-1.28-.18h-4.4l-1.465.18-1.466.186-1.649.183-1.649.183-1.649.183-.916.186v22.353l.916-.18h2.201l.733.18.55.183.547.186.552.366.364.184.55.366.18.37.372.363.183.369.18.186v1.829l.184.916v3.301l.186.916v2.565l-.186.916v4.403l-.183.916v1.835l-.18.73v1.633zm-7.15-13.008-.547.185-1.1.181-.916.183-.733.186-.733-.186h-.55l-.549-.183-.547-.18-.369-.367-.366-.186-.184-.366-.366-.367-.186-.369-.183-.55v-.366l-.183-.366v-.553l.183-.363v-.553l.183-.552.366-.547.37-.366.366-.553.369-.55.547-.549.736-.364.55-.371.732-.548.733-.183.73-.366.914-.186.733-.183v-22.353l-.733.18-1.644.187-1.837.547-1.83.366-1.649.55-1.835.547-1.83.55-1.832.732-1.651.733-1.832.916-1.65.916-1.648.92-1.65 1.096-1.468 1.282-1.646 1.283-1.282 1.282-1.466 1.65-1.283 1.465-1.096 1.832-1.1 1.838-1.096 1.83-.73 2.017-.736 2.199-.733 2.382-.366 2.381-.367 2.385-.186 2.746v2.198l.186 2.016.183 2.015.55 2.015.552 1.65.547 1.834.916 1.466.922 1.466 1.096 1.282 1.097 1.1 1.285 1.099 1.28.916 1.283.733 1.465.73 1.464.552 1.651.55 1.466.364 1.649.186 1.649.185 1.646.178h5.132l1.647-.178 1.647-.185 1.834-.367 1.652-.183 1.644-.37.733-.363z"/><path d="M643.84 670.404c-14.843.917-40.68 6.23-41.59 33.346-.919 23.088 21.984 22.355 37.376 17.04l-.183-19.239c-8.428 4.578-13.01 2.016-14.29-2.018-1.283-3.847 2.015-8.425 7.328-10.26 5.313-1.646 10.807 0 12.092 3.85.733 8.06.18 20.154-.918 26.936l23.82-4.4c1.097-7.328 1.097-14.29.733-25.1l-.185.368v-.369c.55-12.825-9.345-21.25-24.183-20.154"/><path fill="#fff" d="M688.18 716.575h1.465l1.28-.186h8.245l1.282.186h1.468l4.031.55v-19.604h8.06v19.24l4.033-.372 1.465-.183h1.283l1.463-.178h1.285l1.463-.183h2.568l1.463-.186h1.288l1.46.186h2.568l1.466.183h1.28l4.033.547v-54.968l-3.481-.366-1.468-.18h-1.464l-1.468-.184h-5.677l-1.463.183h-1.468l-1.466.18-1.466.187h-1.285l-1.468.18-1.458.186-3.487.37v17.22h-8.059v-17.04l-3.664-.367-1.466-.183h-1.288l-1.463-.186h-5.86l-1.285.186h-1.466l-1.466.183-1.465.186-1.466.18-1.463.184-1.466.183-3.484.55v54.413l4.031-.547 1.466-.183h1.282l1.466-.18Z"/><path d="M681.214 714.926c7.146-.913 15.027-1.646 22.17-.55V695.14h13.008v18.874c7.515-.736 14.843-1.105 22.353-.189v-50.02c-7.512-.914-14.838-.184-22.353.552v17.408h-13.008v-17.228c-7.33-.916-14.475-.544-22.17.736z"/><path fill="#fff" d="m799.756 723.54 2.568-.552 2.198-.733 2.016-.916 2.015-.914 1.65-1.101 1.468-1.283 1.282-1.28 1.094-1.466.919-1.468.733-1.466.735-1.463.367-1.649.363-1.468.184-1.65v-3.114l-.184-1.649-.185-1.466-.178-1.465-.367-1.469-.369-1.463-.366-1.282-.547-1.28-.37-1.285-.549-1.1-.364-1.096-.552-1.102-.364-.733-.372-.919-.547-.733-.55-.916-.73-.727-.552-.736-.733-.916-.916-.733-.733-.733-.913-.735-.919-.73-.918-.733-.914-.55-.919-.733-1.094-.733-1.102-.55-1.099-.552-1.097-.547-1.282-.55-1.105-.549-1.28-.547-1.282-.37-1.283-.366-1.282-.366-1.283-.364-1.282-.369-1.463-.183-1.286-.18-1.465-.186-1.28-.186h-5.133l-.18 2.931v.921l-.186 1.097v2.382l.186 1.283v5.31l.18 1.102v2.565l.183.547.547 2.565 4.767-.913h2.015l1.652.366 1.463.733 1.099.919 1.1 1.28.915 1.282.547 1.652.37 1.463v1.466l-.184 1.465-.364 1.1-.554.916-.73.55-.917.552-1.465.183h-1.466l-1.466-.183-1.282-.186-1.097-.367-1.105-.366-.913-.547-.919-.552-.733-.733-.547-.733-.55-.733-.546-.916-.37-.916-.363-.916-.372-.916v-1.1l-.18-.918-2.013-51.848-7.515-.736-5.497-.36-5.313-.553-5.313-.183-5.497-.37-5.313-.363-5.313-.184-5.314-.185-5.316-.181h-21.436l-5.313.18-5.311.186-5.316.367-5.31.18-5.314.553-5.313.366-5.314.547-5.318.555-5.491.725-5.316.736-5.314.918-5.313.92-5.497.913-5.313 1.099-5.313 1.1-5.497 1.282-5.316 1.465-5.494 1.28-7.145 2.202.55 19.054 7.509-1.466 4.766-.916 4.764-.918 4.583-.73 4.76-.92 4.581-.732 4.578-.733 4.766-.733 4.578-.73 4.583-.736 4.58-.547 4.764-.55 4.584-.549 4.577-.552 4.578-.55 4.586-.364 4.58-.366 4.58-.367 4.581-.369 4.578-.18 4.583-.367 4.58-.183h4.581l4.58-.183h9.161l4.58.183h4.581l4.58.183 4.581.367 4.58.18 2.38.186.735 29.318v1.643l.183 1.835.184 1.832.18 1.652.547 1.649.372 1.646.55 1.65.547 1.465.733 1.468.916 1.463.735 1.283.914 1.466 1.102 1.285.916 1.1 1.099 1.279 1.28 1.1 1.102.918 1.28 1.097 1.465.916 1.283.919 1.468.73 1.466.733 1.468.733 1.644.735 1.652.547 1.649.37 1.649.546 1.646.37 1.835.363 1.832.186 1.646.18 1.835.184h7.146l3.114-.184 2.932-.366Z"/><path d="M784.188 721.891c39.206 2.199 31.513-22.905 26.936-32.43-3.301-7.514-16.495-15.94-30.786-15.94-.18 3.113.186 15.386.369 15.386 15.021-4.578 19.785 18.324 8.061 18.324-9.71.547-14.293-5.865-14.474-12.461l-2.018-49.65c-57.53-5.132-113.045-4.763-170.578 12.093l.552 14.293c50.385-10.08 98.938-16.125 148.223-11.911l.73 31.332c0 18.503 14.294 30.046 32.985 30.964"/><path fill="#fff" d="m452.925 764.762.728.918.735.916.916.736 1.1.725.915.557 1.1.545 1.102.366 1.28.183 1.096.186 1.285.18 1.283.187h1.28l1.288-.186h1.28l1.282-.18 1.285-.187 1.28-.363 1.466-.37 1.282-.36 1.466-.372 1.283-.364 1.285-.547 1.46-.558 1.285-.547 1.283-.733 1.28-.55 2.568-1.462-.367-20.154-3.481.547h-2.199l-.369-.183-.366-.364v-.186l-.18-31.514-28.95 8.431v38.656l.184 1.466.183 1.283.364 1.102.552 1.099Z"/><path d="M453.289 758.535c1.099 12.642 18.321 10.81 30.96 3.478l-.18-15.754c-2.2.186-4.58.73-6.598-2.198v-29.135l-24.185 6.965v36.644zM261.098 729.107c-26.244-23.71-70.599-30.482-85.492-31.107-8.44.497-14.277 6.486-15.434 15.628-1.935 15.296 9.187 35 34.19 43.059l2.521.811-.222-23.802-1.068-.516c-7.907-3.8-8.452-7.423-8.433-8.446.023-1.246.819-2.301 2.185-2.89 2.057-.887 5.74-.602 9.564 2.523.005 1.932.183 53.934.183 53.934l27.815 7.858v-54.963c5.66.293 9.159 3.643 9.583 7.075.031.235.047.471.047.696 0 2.667-1.995 4.596-5.468 5.23l-1.568.285v20.937l1.322.426c12.587 4.065 26.001.113 32.62-9.608 5.657-8.31 4.78-18.45-2.345-27.13"/></svg>