<svg xmlns="http://www.w3.org/2000/svg" xml:space="preserve" viewBox="0 0 842 595"><path d="M113.961 44.605C50.358 44.605-1.463 92.37-1.463 151.033c0 58.536 51.821 106.298 115.424 106.298h372.624c62.717-1.01 113.523-48.399 113.523-106.298 0-58.029-50.806-105.414-113.523-106.428H113.961z" style="fill:#fff200;stroke:#000;stroke-width:.38"/><path d="M115.228 45.999C52.132 45.999.565 93.131.565 151.034c0 57.776 51.567 104.909 114.663 104.909h370.09c62.212-.889 112.764-47.768 112.764-104.909 0-57.269-50.551-104.149-112.764-105.035h-370.09z" style="fill:#00a651;stroke:#000;stroke-width:.38"/><path d="M274.744 89.71c-34.083 1.141-61.323 29.013-61.957 63.224h-.506c-4.308-15.584-18.625-27.113-35.476-27.113-15.205 0-28.382 9.502-33.956 22.806 2.914-70.825 60.815-127.715 131.895-128.854z" style="fill:#fff200"/><path d="M272.59 87.683c-31.676 1.14-59.803 29.394-61.829 60.943-5.449-13.304-18.625-22.806-33.956-22.806-13.43 0-25.214 7.348-31.676 18.244 4.181-66.391 61.07-120.617 127.967-121.758z" style="fill:#fff200"/><path d="M144.876 144.445c3.928-66.518 61.07-120.998 128.22-122.14l-.126 21.032c-58.029 7.223-90.464 33.195-103.134 83.242-10.642 2.029-19.765 8.743-24.96 17.866" style="fill:#fff"/><path d="M171.103 126.326c12.67-48.78 44.598-75.006 101.614-81.721v19.511c-51.188 5.829-72.726 26.481-82.355 64.364-4.183-1.646-8.743-2.66-13.557-2.66-1.901 0-3.802.252-5.702.506" style="fill:#0095da"/><path d="M191.755 129.114c10.009-39.532 33.069-58.029 80.835-63.856v22.3c-32.561 1.647-60.056 30.027-61.704 61.068-3.674-8.615-10.516-15.711-19.131-19.512" style="fill:#ee3124"/><path d="M457.443 190.057h27.242v-57.015h14.697v-19.259h-56.634v19.259h1.141c7.347.127 13.809 6.333 13.554 14.191zM350.131 189.045c0-8.235-1.521-17.233.887-22.554.633-2.66 3.166-5.068 5.193-6.716-.633 1.899.633 4.182 1.014 5.955 1.52 4.308 3.169 6.591 5.702 10.008 2.66 3.421 5.83 6.207 9.123 8.49 3.292 2.28 6.843 4.055 10.516 5.193 3.674 1.142 7.349 1.774 11.15 1.774 6.84 0 13.301-1.774 19.258-5.321 5.955-3.547 10.644-8.364 14.189-14.569 3.42-6.084 5.195-12.546 5.195-19.639 0-7.222-1.774-13.811-5.195-19.893-3.545-6.081-8.234-11.022-14.189-14.569-5.957-3.549-12.418-5.323-19.258-5.323-5.956 0-11.404 1.14-16.346 3.675-10.137 5.321-18.625 12.796-27.239 21.159v-22.68h-27.749v75.009z" style="fill:#fff200;stroke:#000;stroke-width:1.7737"/><path d="m346.457 160.662.505-.761.505-.632.509-.633.506-.634.509-.633.505-.509.508-.506.505-.506.509-.381.505-.509 16.093-13.048-4.817 19.133v.128l.128.251.127.382v.254l.128.377.25.381.128.506.126.635v.252l.255.509.252.633.254.508.255.377.126.509.254.505.251.381.382.506.255.383.25.502.381.51.378.506.381.508.383.505.506.633.38.507.379.507.509.508.377.504.508.384.379.505.509.508.504.377.509.509.506.378.381.382.505.504.636.384.505.38.505.379.509.381.506.378.509.254.505.381.509.253.631.38.509.255.505.251.506.38.635.254.506.255.636.123.504.255.505.254.636.255.506.124.637.254.505.128.632.126.508.255.632.128.509.124.633.126h.506l.635.128.505.127h.633l.507.127h.634l.508.125h3.292l.634-.125h1.013l.509-.127h.505l.508-.127h.505l.509-.128.506-.126.509-.124.504-.128.505-.127.509-.128.505-.126.509-.128.378-.127.509-.127.506-.251.509-.128.505-.254.381-.125.504-.253.509-.255.505-.125.382-.254.507-.255.508-.251.377-.255.509-.254.887-.633.886-.633.887-.635.887-.631.759-.633.888-.637.759-.758.763-.761.633-.758.759-.761.632-.763.636-.886.632-.887.633-.889.636-.886.505-1.012.254-.506.254-.381.252-.507.253-.508.254-.503.252-.509.127-.506.254-.381.128-.506.255-.505.126-.509.252-.507.126-.378.128-.508.127-.509.254-.503.124-.509.126-.506v-.633l.128-.509.127-.506.128-.506v-.508l.127-.634v-.506l.127-.509v-.503l.127-.636v-4.434l-.127-.506v-.634l-.127-.506v-.506l-.127-.507v-.635l-.128-.506-.127-.507-.128-.508-.126-.506v-.506l-.124-.507-.254-.507-.127-.634-.128-.506-.126-.508-.252-.505-.126-.38-.255-.508-.128-.506-.254-.507-.251-.506-.128-.508-.254-.506-.253-.508-.252-.506-.254-.381-.254-.506-.632-1.015-.509-.886-.633-.887-.632-.885-.636-.762-.759-.886-.632-.761-.761-.76-.759-.761-.763-.759-.76-.635-.759-.633-.887-.632-.887-.635-.886-.633-.887-.633-.509-.255-.377-.253-.508-.253-.507-.253-.508-.253-.379-.126-.509-.255-.504-.253-.509-.127-.377-.254-.509-.126-.506-.252-.509-.127-.505-.128-.382-.126-.505-.127-.509-.128-.505-.125-.504-.128-.509-.125-.506-.128-.509-.126h-.505l-.508-.127h-.505l-.509-.128h-1.013l-.634-.125h-3.419l-.509.125h-1.265l-.509.128h-.377l-.509.127h-.378l-.382.126h-.505l-.381.128-.382.125h-.378l-.508.128-.378.125-.381.128-.378.127-.383.126-.381.128-.379.127-.381.125-.379.127-.381.126-.38.254-.379.127-.381.128-.378.253-.254.127-.888.506-.886.379-.886.508-.759.506-.889.507-.762.506-.887.507-.759.507-.888.633-.758.507-.761.634-.886.506-.763.635-.759.633-.887.633-.761.634-.759.633-.759.634-.886.634-.763.633-.761.76-.759.634-.759.759-.888.634-.758.761-.764.759-.759.634-.759.761-.887.759-.76.762-.76.759-12.164 11.783v-31.801h-14.444v61.576h14.318l-.128-.761v-1.645l-.127-.763v-7.222l.127-.758.128-.887v-.76l.126-.76.252-.885.126-.764.255-.887.254-.76.255-.886.124-.381.128-.378.38-.888.378-.885.382-.636zM306.671 189.931v-53.088c-.128-5.321-1.899-10.008-5.195-13.809-3.294-3.929-7.6-6.844-12.796-8.745-5.32-1.899-10.769-2.913-16.598-2.913s-11.275 1.014-16.471 3.041c-5.067 2.027-9.248 5.068-12.289 9.122-3.169 4.056-4.815 8.87-4.815 14.572v21.285c0 2.663-.381 4.69-1.395 5.701-.886 1.14-2.66 1.649-4.94 1.649v23.185h4.94c8.11 0 14.319-1.015 18.625-2.788 4.434-1.899 7.475-4.943 9.123-9.248 1.776-4.185 2.662-10.391 2.662-18.12v-14.571c0-1.646.379-3.041 1.267-4.053.761-.887 1.899-1.394 3.294-1.394 1.268 0 2.407.506 3.168 1.519.887.887 1.267 2.282 1.267 3.928v44.726h30.153z" style="fill:#fff200;stroke:#000;stroke-width:1.7737"/><path d="m298.564 130.507-.381-.506-.253-.507-.38-.635-.381-.505-.379-.507-.38-.507-.508-.506-.506-.634-.507-.507-.507-.38-.506-.506-.635-.508-.633-.38-.507-.507-.633-.378-.761-.383-.632-.38-.634-.379-.761-.379-.76-.38-.759-.255-.888-.38-.38-.127-.379-.125-.381-.127-.508-.128-.379-.126-.507-.127-.379-.128-.381-.125-.506-.128-.382-.125-.505-.128-.381-.126h-.506l-.381-.127-.508-.128h-.377l-.508-.125h-.38l-.507-.126h-.381l-.505-.128h-.381l-.507-.127h-.888l-.506-.126h-5.576l-.505.126h-.888l-.379.127h-.508l-.378.128h-.509l-.378.126h-.507l-.382.125-.506.128h-.38l-.507.127-.379.126-.382.128h-.505l-.381.125-.38.128-.507.125-.38.128-.381.127-.378.126-.508.128-.379.252-.382.127-.379.126-.761.254-.76.38-.633.381-.759.38-.635.379-.635.381-.632.38-.633.507-.634.38-.506.507-.507.507-.507.507-.507.505-.508.507-.506.506-.506.634-.381.508-.379.506-.254.634-.379.506-.254.634-.254.507-.253.633-.253.634-.254.634-.128.76-.125.634-.127.76-.126.633v.76l-.127.76v24.074l-.128.633v.633l-.126.636-.127.633-.126.632-.127.633-.254.634-.254.633-.252.633-.381.635-.379.759-.507.632-.508.638-1.012.886-1.142.888-1.012.631v11.15h.252l.634-.128h2.535l.632-.127h.635l.505-.127h1.142l.633-.124.507-.127h.507l.506-.128h.507l.38-.126.507-.128h.381l.506-.125.38-.13.38-.123.382-.126h.378l.381-.129.38-.125.253-.129.381-.125.253-.129.253-.126.634-.251.506-.255.508-.254.379-.251.381-.254.38-.382.379-.251.38-.382.254-.253.252-.379.382-.38.252-.384.255-.377.252-.509.253-.505.254-.509v-.25l.128-.255.126-.38.127-.253.126-.38.127-.378v-.382l.126-.381.128-.377.127-.384v-.378l.126-.508.127-.378v-.509l.125-.504v-.508l.128-.507v-.508l.126-.506v-.508l.127-.632v-.507l.127-.633v-1.775l.127-.633v-18.751l.126-1.015.254-1.14.253-1.141.38-1.013.506-1.013.635-1.014.759-1.014.761-.886 1.014-.762.887-.632 1.14-.633 1.14-.381 1.14-.253 1.14-.253h2.281l1.14.253 1.268.253 1.14.506 1.014.634 1.013.634.887.886.76.762.634.886.634 1.014.506 1.013.38 1.14.253 1.014.254 1.14.126 1.015v39.023h16.851v-46.12l-.127-.759v-.761l-.126-.634-.126-.759-.127-.634-.128-.633-.251-.634-.128-.507-.254-.634zM189.601 188.029h27.874v-39.023c0-7.475-1.774-14.57-5.195-20.905-3.548-6.461-8.236-11.531-14.191-15.205-5.954-3.802-12.417-5.701-19.257-5.701-6.969 0-13.432 1.899-19.259 5.701-5.955 3.673-10.769 8.743-14.191 15.205-3.547 6.335-5.193 13.304-5.193 20.905 0 7.477 1.646 14.192 5.193 20.526 3.422 6.461 8.236 11.401 14.191 15.079 5.955 3.796 12.29 5.574 19.259 5.574l7.602-33.07c-.761.887-1.773 1.773-3.295 2.28-1.393.634-2.913 1.014-4.306 1.014q-2.852 0-5.321-1.521a12.4 12.4 0 0 1-4.055-4.053c-1.014-1.774-1.521-3.801-1.521-5.829 0-3.42 1.14-6.082 3.167-8.362 2.155-2.28 4.815-3.422 7.73-3.422 2.786 0 5.321 1.142 7.602 3.169 2.154 2.154 3.167 5.067 3.167 8.615v39.023z" style="fill:#fff200;stroke:#000;stroke-width:1.7737"/><path d="m198.851 121.766-.761-.761-.887-.634-.886-.633-.887-.634-.888-.632-.507-.255-.506-.253-.381-.255-.506-.251-.506-.253-.381-.253-.507-.255-.506-.253-.507-.126-.381-.255-.506-.126-.507-.253-.506-.127-.381-.126-.505-.255-.509-.126-.506-.127-.508-.126-.506-.127-.506-.127h-.381l-.508-.126-.506-.128h-.506l-.507-.126h-.507l-.507-.127h-1.14l-.506-.126h-2.027l-.634.126h-1.014l-.508.127h-.506l-.506.126h-.507l-.507.128-.507.126h-.507l-.507.127-.506.127-.507.126-.38.127-.507.126-.506.255-.508.126-.506.127-.508.253-.379.126-.508.255-.506.126-.506.253-.381.255-.508.253-.504.253-.381.251-.507.255-.508.253-.378.255-1.016.632-.885.634-.887.633-.761.634-.887.761-.761.76-.759.758-.76.762-.76.761-.634.886-.634.76-.76.887-.633 1.014-.508.887-.632 1.013-.634 1.014-.253.506-.255.507-.251.507-.255.507-.253.634-.253.507-.128.505-.253.507-.253.508-.126.506-.253.508-.127.633-.128.507-.253.506-.126.633-.127.509-.127.506-.127.632-.126.508-.126.506v.634l-.127.507-.128.634v.507l-.126.633v.633l-.127.507v1.774l-.128.633v1.14l.128.634v1.775l.127.632v.508l.126.632v.508l.128.633.127.507v.507l.126.634.126.505.127.634.127.506.127.509.126.506.253.633.128.509.127.503.253.509.126.508.253.378.253.507.128.633.253.509.253.503.255.509.251.508.255.508.253.504.634 1.015.506 1.012.634.887.633.887.634.887.76.886.634.761.76.887.76.763.759.759.761.631.887.761.761.636.887.631.885.634 1.016.635.378.251.508.254.507.254.381.253.504.254.508.254.506.255.381.249.506.129.508.254.507.125.38.255.506.123.508.13.506.253.507.126.38.128.507.127.506.124.507.127h.507l.507.127 3.674-16.215-.76-.127-1.141-.129-1.14-.253-1.14-.379-1.014-.379-1.013-.509-1.139-.633-.889-.632-1.013-.633-.886-.763-.762-.631-.759-.887-.759-.888-.636-.887-.632-1.015-.254-.631-.252-.509-.255-.505-.254-.509-.252-.632-.127-.507-.254-.633-.126-.508-.127-.632-.127-.508-.126-.632v-.508l-.127-.633v-.634l-.126-.634v-.506l.126-.886v-.887l.127-.888.126-.887.127-.888.253-.885.254-.888.254-.76.379-.886.381-.76.38-.761.507-.76.506-.76.507-.76.507-.634.634-.76.634-.634.633-.507.76-.633.633-.507.761-.507.76-.38.759-.38.761-.38.76-.381.887-.251.888-.256.76-.253.886-.127.887-.126h.886l.888-.127.887.127h.761l.885.126.888.127.76.127.886.254.762.253.759.381.759.379.761.38.76.381.76.506.635.506.633.508.634.507.76.633.633.634.506.759.634.634.506.761.508.759.379.887.381.76.38.888.381.887.253.887.128.887.252.887.126.886.128.887v34.208h14.444v-34.715l-.128-.633v-1.14l-.127-.633-.126-.507v-.634l-.127-.507-.127-.634-.125-.506v-.508l-.128-.632-.253-.506-.127-.509-.127-.633-.126-.506-.127-.507-.253-.633-.128-.508-.252-.506-.128-.508-.252-.507-.253-.505-.253-.507-.128-.634-.254-.507-.252-.507-.381-.507-.253-.506-.508-1.014-.632-1.013-.635-.887-.632-.888-.633-1.013-.636-.76-.759-.886-.76-.761-.633-.762-.888-.758zM97.491 107.195q-10.453-.001-19.385 5.701-8.933 5.51-14.064 15.205-5.32 9.503-5.321 20.905c0 7.477 1.774 14.192 5.321 20.526 3.422 6.461 8.109 11.401 14.064 15.079 5.955 3.796 12.417 5.574 19.385 5.574 6.715 0 12.921-1.649 18.624-5.196 5.702-3.422 10.644-8.49 14.57-15.206l-23.946-14.949c-.759 1.648-2.154 2.913-3.926 3.925a9.38 9.38 0 0 1-5.321 1.649c-3.041 0-5.576-1.14-7.729-3.422-2.154-2.152-3.167-4.815-3.167-7.981 0-3.294 1.014-6.082 3.167-8.362 2.154-2.28 4.689-3.422 7.729-3.422q2.85 0 5.699 1.901c1.902 1.142 3.169 2.535 3.675 4.181l23.187-16.597a34.5 34.5 0 0 0-8.617-10.517c-3.674-3.041-7.475-5.195-11.656-6.714s-8.234-2.28-12.289-2.28z" style="fill:#fff200;stroke:#000;stroke-width:1.7737"/><path d="m75.063 124.046-.759.761-.633.886-.762.76-.632.887-.634 1.014-.633.887-.508 1.013-.632 1.014-.253.506-.255.507-.251.507-.255.507-.253.634-.254.507-.252.505-.128.507-.253.508-.128.506-.253.508-.126.633-.254.507-.126.506-.127.633-.126.509-.127.506-.126.632-.128.508-.127.506-.126.634v.507l-.127.634-.126.507v.633l-.128.633v1.14l-.125.507v3.675l.125.506v1.267l.128.508v.632l.126.508v.633l.127.507.126.507.127.634.128.505.126.634.127.506.126.509.127.506.126.633.254.509.126.503.253.509.128.508.253.378.128.507.252.633.254.509.253.503.255.509.251.508.255.508.253.504.506 1.015.634 1.012.633.887.634.887.632.887.636.886.759.761.759.887.762.763.761.759.759.631.76.761.886.636.887.631.889.634 1.012.635.381.251.506.254.381.254.506.253.508.254.506.254.381.255.506.249.506.129.507.254.38.125.506.255.508.123.507.13.506.253.381.126.506.128.507.127.507.124.508.127h.504l.509.127.506.128h.508l.506.126h.508l.504.128h1.015l.506.127h2.154l.508-.127h1.013l.508-.128h1.014l.504-.126.508-.128h.506l.381-.127.506-.127.509-.124.506-.127.38-.128.506-.126.507-.128.38-.125.507-.13.506-.249.381-.129.507-.125.507-.254.38-.255.506-.123.379-.255.508-.254.381-.254.506-.253.381-.254.508-.254.885-.505.761-.637.886-.633.887-.631.76-.633.761-.763.887-.632.759-.886.761-.76.76-.885.38-.509-13.304-8.49-.633.509-.887.632-1.013.509-1.14.504-1.016.383-1.14.377-1.14.38-1.139.129-1.141.127-1.139.124-.887-.124h-.887l-.889-.127-.885-.129-.761-.253-.886-.255-.887-.249-.76-.254-.761-.384-.887-.503-.76-.384-.633-.503-.761-.509-.634-.633-.632-.507-.633-.508-.635-.631-.507-.634-.506-.762-.507-.759-.507-.761-.379-.758-.381-.762-.38-.759-.253-.89-.254-.757-.253-.888-.127-.885-.253-.889v-.759l-.128-.887v-1.773l.128-.887v-.888l.127-.887.253-.888.253-.885.254-.761.253-.887.38-.886.381-.76.379-.761.38-.76.508-.76.632-.634.507-.76.635-.633.506-.635.634-.633.759-.506.634-.508.76-.506.76-.507.76-.38.761-.38.887-.381.887-.251.759-.256.888-.253.885-.127.889-.126h.887l.887-.127.633.127h1.14l.634.126.634.127.633.127.632.126.634.128.508.253.634.253.506.254.633.253.507.254.633.253.507.38.507.254 1.013.632.128.255 12.923-9.249-.253-.253-.506-.508-.508-.506-.507-.509-.38-.505-.634-.508-.506-.505-.506-.38-.634-.508-.508-.507-.634-.38-.506-.381-.634-.378-.506-.381-.634-.379-.633-.381-.634-.382-.506-.251-.634-.381-.634-.253-.633-.255-.632-.251-.635-.255-.634-.253-.633-.253-.633-.253-.634-.128-.633-.253-.632-.126-.761-.127-.634-.127-.634-.126-.508-.128-.632-.126h-.633l-.634-.127h-.634l-.634-.126h-2.281l-.506.126h-1.015l-.504.127h-.508l-.506.126h-.508l-.506.128-.509.126h-.504l-.508.127-.507.127-.507.126-.506.127-.507.126-.38.255-.507.126-.508.127-.506.253-.506.126-.381.255-.506.126-.506.253-.508.255-.379.253-.508.253-.506.251-.381.255-.506.253-.508.255-.885.632-.889.634-.887.633-.886.634-.76.761-.759.76-.761.758z" style="fill:#fff200;stroke:#000;stroke-width:1.7737"/><path d="M473.282 84.895v-1.139h3.169c.633 0 1.014 0 1.14-.254.128-.128.252-.506.252-1.014V67.157h-4.561v-1.14h11.026v.506c-1.015 0-1.778.128-2.156.381-.381.381-.508 1.014-.508 2.027v13.177c0 .887.253 1.52.508 1.774.254.125.506.253.887.379.255.126.761.126 1.27.126v5.828h-.509q0-.95-.382-1.9c-.251-.634-.759-1.268-1.265-1.774-1.014-1.014-2.532-1.648-4.433-1.648h-4.438zm0-18.878v1.14h-.759v1.647c0 2.534-.254 5.321-.759 8.236-.382 3.041-1.397 5.195-3.042 6.716h4.561v1.139h-1.646c-1.775 0-3.292.507-4.306 1.648-1.015 1.015-1.648 2.153-1.774 3.673h-.509v-5.828c1.901-.381 3.425-1.647 4.56-4.054 1.142-2.28 1.65-6.335 1.65-11.911 0-.633-.128-1.139-.509-1.393-.254-.38-.887-.508-1.646-.508h-.509v-.506h4.688zm-19.64 19.259v-.887c1.524 0 2.915-.76 3.801-2.407 1.015-1.521 1.522-3.675 1.522-6.336 0-2.913-.507-5.195-1.522-6.715-1.014-1.521-2.277-2.281-3.801-2.281v-1.013c2.915 0 5.324.885 7.352 2.661 1.901 1.899 2.788 4.307 2.788 7.222 0 2.787-.887 5.067-2.788 6.968-1.777 1.901-4.31 2.788-7.352 2.788m0-19.639v1.013c-1.519 0-2.91.759-3.797 2.281q-1.521 2.28-1.521 6.463c0 2.66.507 4.813 1.395 6.46.886 1.648 2.152 2.535 3.924 2.535v.887c-1.899 0-3.547-.381-5.065-1.014-1.395-.76-2.66-1.9-3.674-3.421s-1.522-3.295-1.522-5.448c0-2.155.509-3.929 1.522-5.449 1.014-1.521 2.406-2.535 3.928-3.294 1.517-.76 3.165-1.013 4.81-1.013M434.131 76.28v-1.142c.763-.125 1.268-.378 1.774-.886.636-.632 1.014-1.646 1.014-3.041 0-1.267-.25-2.28-.887-3.041-.378-.634-1.013-.886-1.9-1.14v-1.013c2.664 0 4.436.506 5.702 1.52 1.142 1.014 1.773 2.155 1.773 3.549s-.505 2.535-1.773 3.675q-1.523 1.328-5.703 1.519m0-10.263v1.013h-2.66v8.236h1.396c.505 0 .886 0 1.264-.128v1.142h-2.66v5.702q0 1.33.381 1.901c.378.379.887.506 1.646.506h.509v.506h-9.63v-.506h.632c.759 0 1.268-.126 1.645-.506q.383-.572.382-1.901V69.058q.001-1.33-.382-1.901c-.251-.506-.759-.634-1.645-.634h-.632v-.506h9.754m-21.663 19.259v-.887c1.646 0 2.914-.76 3.925-2.407.887-1.521 1.395-3.675 1.395-6.336 0-2.913-.508-5.195-1.395-6.715q-1.518-2.281-3.797-2.281h-.128v-1.013c3.038 0 5.448.885 7.348 2.661 1.901 1.899 2.915 4.307 2.915 7.222 0 2.787-.887 5.067-2.788 6.968s-4.309 2.788-7.347 2.788zm0-19.639v1.013q-2.283-.001-3.8 2.281c-.889 1.52-1.397 3.675-1.397 6.463 0 2.66.382 4.813 1.397 6.46.886 1.648 2.15 2.535 3.8 2.535v.887c-1.774 0-3.423-.381-4.942-1.014-1.52-.76-2.66-1.9-3.675-3.421s-1.519-3.295-1.519-5.448c0-2.155.505-3.929 1.519-5.449 1.015-1.521 2.279-2.535 3.801-3.294 1.647-.76 3.165-1.013 4.816-1.013m-75.641 19.258v-1.012c.759-.127 1.264-.509 1.773-1.015.633-.759.887-1.773.887-2.913 0-1.013-.254-1.774-.633-2.535-.509-.634-1.014-1.012-1.649-1.267-.124-.127-.25-.127-.379-.127v-1.394h.505q3.615 0 5.324 1.521c1.138 1.14 1.646 2.407 1.646 3.675 0 1.14-.254 2.026-1.014 2.913-.633.887-1.518 1.521-2.41 1.774q-.567.19-1.52.379h-2.53zm0-17.738v-1.14h6.207v4.941h-.505a5.5 5.5 0 0 0-.759-2.154c-.509-.634-.892-1.013-1.396-1.268-.506-.251-1.142-.379-2.029-.379zm15.965-.126v7.73h.378c.886 0 1.522-.128 1.899-.381.509-.253.887-.632 1.142-1.267.382-.633.506-1.52.761-2.661h.507v9.63h-.507c-.254-1.14-.378-2.027-.761-2.662-.381-.634-.759-1.14-1.142-1.267-.504-.254-1.14-.381-1.899-.381h-.378v5.955c0 .887.126 1.394.378 1.774.127.254.636.381 1.395.381h1.9c3.038 0 4.939-1.521 5.953-4.816h.509l-.887 5.829h-16.473v-.506h.764q.946 0 1.518-.381c.382-.252.506-.886.506-2.026V69.058c0-1.14-.124-1.773-.506-2.154q-.572-.38-1.518-.381h-.764v-.506h15.965v5.321h-.378q-.381-1.519-1.141-2.66c-.509-.633-1.014-1.142-1.774-1.393-.631-.128-1.645-.255-2.915-.255zm18.498.126v5.449c0 4.687-.382 7.981-1.014 9.882q-.95 2.66-3.801 2.66-1.52 0-2.282-.759c-.506-.506-.761-1.015-.761-1.647s.254-1.14.509-1.521c.378-.252.761-.506 1.392-.506.887 0 1.396.506 1.522 1.648 0 .253 0 .506.124.634 0 .126 0 .252.128.378 0 .128.253.254.509.254.759 0 1.392-.887 1.773-2.408.505-1.52.759-4.306.759-8.108v-4.054c0-1.14-.254-1.773-.505-2.154-.254-.253-.886-.381-1.649-.381h-.506v-.506h15.457v.506h-.378c-.886 0-1.522.128-1.773.508-.381.255-.509.887-.509 1.901V82.11c0 .506 0 .887.128 1.139 0 .254.127.509.253.76.378.254.887.381 1.901.381h.378v.506h-9.5v-.506h.378c.759 0 1.395-.126 1.646-.506.253-.254.509-.887.509-1.647v-15.08zm29.646-1.14v4.941h-.505c-.254-.887-.509-1.774-.887-2.28-.382-.633-.764-1.014-1.142-1.268-.381-.125-1.014-.253-1.773-.253h-5.576v15.205c0 .76.124 1.267.506 1.646q.57.381 1.9.381h.759v.506h-10.389v-.506h.635c.887 0 1.52-.126 1.773-.506q.38-.38.378-1.901V68.678c0-.887-.124-1.521-.504-1.774q-.571-.38-1.901-.381h-.381v-.506zm-92.364 6.082h10.518v3.422h-.507c-.127-.888-.252-1.521-.634-1.9-.254-.381-.886-.636-1.901-.636h-2.66v9.378c0 .886.128 1.394.254 1.646.251.128.505.381.759.381v.506h-5.829v-.506c.508-.126.759-.253.887-.506.126-.254.126-.761.126-1.521V74.76c0-.761 0-1.268-.126-1.521-.128-.255-.379-.506-.887-.633zm28.255-6.082v1.14h-2.533v7.475h2.533v1.394a12 12 0 0 0-2.533-.254v6.082c0 .887.124 1.52.505 1.774.382.254.76.379 1.269.379.25 0 .505 0 .759-.125v1.012h-9.63v-.506h.253c1.015 0 1.647-.126 1.902-.506.378-.381.505-1.142.505-2.155V68.55c0-.759-.251-1.265-.505-1.646q-.57-.38-1.902-.381h-.253v-.506zm-13.81 14.825c.633 0 1.139.253 1.647.633.253.507.506 1.014.506 1.647 0 .634-.253 1.14-.506 1.52-.507.506-1.014.634-1.647.634-.509 0-1.013-.128-1.522-.634a2.1 2.1 0 0 1-.632-1.52c0-.634.256-1.14.632-1.647.509-.38 1.013-.633 1.522-.633M475.818 233.26v-1.012c.632-.123 1.265-.507 1.646-1.012.759-.762 1.014-1.777 1.014-2.913 0-1.015-.254-1.774-.635-2.411-.506-.758-1.011-1.142-1.646-1.391-.126 0-.251-.129-.378-.129v-1.395h.504c2.41 0 4.184.509 5.321 1.649 1.14 1.011 1.649 2.28 1.649 3.547 0 1.141-.381 2.152-1.014 2.915-.759.886-1.522 1.519-2.41 1.773-.505.128-1.014.251-1.52.378h-2.531zm0-17.737v-1.139h6.206v4.938h-.504c-.128-.76-.509-1.518-.89-2.151-.378-.637-.76-1.015-1.265-1.27-.509-.254-1.142-.379-2.029-.379h-1.518zm0-1.138v1.139h-2.66v7.474h2.66v1.395a13.6 13.6 0 0 0-2.66-.254v6.083c0 .889.251 1.52.631 1.774.378.253.761.378 1.265.378.254 0 .509 0 .764-.126v1.012h-9.63v-.378h.254c1.014 0 1.646-.254 1.901-.634.25-.379.505-1.139.505-2.152v-13.177c0-.761-.255-1.27-.631-1.647-.254-.254-.887-.381-1.774-.381h-.254v-.504h9.629zM343.415 233.26v-.378h.506c.635 0 1.268-.254 1.522-.634.251-.379.505-1.012.505-1.902v-12.924c0-.886-.254-1.518-.505-1.898-.254-.506-.763-.634-1.522-.634h-.506v-.504h9.504v.504h-.635c-.761 0-1.266.128-1.52.509-.381.378-.509 1.137-.509 2.023v12.924c0 .89.128 1.522.509 1.902.254.38.759.634 1.52.634h.635v.378zm0-3.926c.128-.379.128-.763.128-1.141 0-.38 0-.758-.128-1.267zm21.667-16.345c-1.901 0-3.169-.254-4.056-.758-.759-.509-1.14-1.142-1.14-1.774 0-.382.127-.762.381-1.015.251-.254.632-.254 1.014-.254.632 0 1.265.382 1.646 1.396.379.886 1.014 1.392 2.155 1.392.633 0 1.137-.128 1.392-.377.381-.129.632-.509.885-1.142.509-.887 1.015-1.27 1.774-1.27.382 0 .633 0 .887.254.254.253.381.633.381 1.015 0 .759-.381 1.265-1.268 1.774-.884.504-2.154.759-4.051.759m-11.152 1.396h9.502v.504c-1.014 0-1.647.128-2.027.381-.25.378-.505 1.015-.505 2.026v11.659l7.98-12.419c0-.25 0-.503-.123-.759a1 1 0 0 0-.509-.506c-.379-.254-.889-.381-1.774-.381v-.504h9.376v.504h-.254c-.887 0-1.392.128-1.773.381-.378.378-.504.887-.504 1.647V230.6c0 .635 0 1.14.25 1.395.126.253.381.506.635.633.128 0 .378.128.633.128s.633.127 1.014.127v.378h-9.376v-.378c.885 0 1.52-.254 1.9-.509.382-.378.505-1.014.505-1.899v-11.656l-7.98 12.291c.126.631.254 1.139.633 1.392q.572.381 1.899.381v.378h-9.502v-.378h.254c.886 0 1.522-.254 1.901-.509.254-.249.509-.887.509-1.645v-13.81c0-.761-.254-1.27-.509-1.52-.379-.381-.887-.509-1.901-.509h-.254zm50.553 0h9.504v.504c-.761 0-1.268 0-1.52.128-.255.127-.508.254-.764.631-.124.254-.25.761-.25 1.396v5.953h1.265c1.014 0 1.649 0 1.899-.126.254 0 .509-.252.763-.506.378-.381.506-.758.759-1.012.128-.378.379-1.393.761-2.915.504-1.519 1.014-2.66 1.646-3.293.633-.635 1.52-1.015 2.66-1.015 1.014 0 1.646.256 2.155.76.504.509.759 1.014.759 1.774 0 .509-.126 1.012-.504 1.396-.382.377-.764.503-1.27.503-1.014 0-1.518-.503-1.645-1.774 0-.379-.128-.631-.128-.756-.126-.129-.254-.256-.381-.256-.887 0-1.646 1.268-2.279 3.547-.381 1.521-.636 2.409-1.014 2.915a9.2 9.2 0 0 1-1.142 1.396c1.014.127 1.901.758 2.66 2.023l3.297 5.196c.378.633.886 1.142 1.264 1.52.509.254.887.509 1.396.509v.378h-5.957l-4.939-7.852c-.381-.509-.636-.887-.886-1.017a2.6 2.6 0 0 0-1.142-.254v6.591c0 .507.126 1.012.25 1.267.256.378.382.506.764.633.128.128.251.128.506.128.253 0 .631.127 1.014.127v.378h-9.504v-.378c.759 0 1.396-.127 1.646-.254.381-.126.509-.254.763-.633.124-.254.124-.759.124-1.395v-13.428c0-.763 0-1.27-.124-1.524a1.54 1.54 0 0 0-.637-.631c-.126 0-.377 0-.631-.128h-1.142v-.506zm28.129 1.138v5.451c0 4.81-.382 7.981-1.015 9.879q-.949 2.66-3.8 2.66-1.523 0-2.279-.758c-.509-.382-.763-1.015-.763-1.646 0-.635.254-1.142.509-1.397.381-.377.759-.631 1.391-.631.889 0 1.397.506 1.524 1.648 0 .254 0 .507.126.631 0 .126 0 .256.128.381 0 .128.251.254.505.254.759 0 1.392-.886 1.773-2.408.509-1.52.76-4.178.76-8.109v-4.056c0-1.136-.252-1.773-.506-2.151-.254-.254-.886-.381-1.645-.381h-.509v-.504h15.459v.504h-.381c-.887 0-1.52.128-1.774.509-.381.25-.509.887-.509 1.898v13.177c0 .509 0 .886.128 1.142 0 .253.126.509.254.758.381.254.886.509 1.9.509h.381v.378h-9.504v-.378h.378c.76 0 1.27-.254 1.65-.509.25-.378.505-.887.505-1.645v-15.205zm12.417-1.138h8.867v.504h-.505q-1.521 0-1.521.759c0 .254.126.637.381 1.015l5.192 8.745 3.93-7.732c.381-.631.509-1.14.509-1.519 0-.887-.763-1.268-2.282-1.268h-.382v-.504h6.083v.504c-.631.128-1.14.381-1.395.634-.379.253-.761.886-1.265 1.898l-6.211 12.29c-.376 1.017-1.011 1.904-1.646 2.79-.759.759-1.647 1.141-2.787 1.141-.887 0-1.647-.129-2.279-.632-.509-.382-.764-1.015-.764-1.774 0-.635.128-1.015.381-1.395.382-.382.759-.633 1.396-.633.504 0 .887.126 1.011.378.254.254.381.759.509 1.522.126.631.381 1.015 1.014 1.015.254 0 .631-.129 1.014-.638a18 18 0 0 0 1.014-1.774l-8.11-13.302c-.38-.633-.761-1.011-1.015-1.266-.124-.127-.631-.254-1.137-.254v-.504zm-101.614 0v.504h-.126v-.504zm0 12.541v2.408c-.254.886-.759 1.648-1.522 2.406q-1.897 1.521-5.698 1.52h-.126v-1.012c.505-.123 1.014-.379 1.518-.888.759-.759 1.014-1.648 1.014-2.913 0-1.139-.254-2.28-1.014-3.038-.381-.509-.886-.887-1.518-1.017v-1.395h.25c1.773 0 3.041.128 4.056.637.887.379 1.646 1.012 2.281 1.775q.568.755.759 1.517m0 5.956h-.126v.378h.126zm-7.347-17.993v-.504zm0-.504v.504c-1.015 0-1.774.128-2.155.381-.382.378-.505.887-.505 1.774v5.953h2.66v1.395c-.509-.125-.887-.254-1.524-.254h-1.136v5.83c0 .886.123 1.519.505 1.901.254.379.759.505 1.392.505.254 0 .507 0 .763-.126v1.012h-9.758v-.378c1.14 0 1.9-.254 2.155-.509.378-.249.506-1.014.506-2.027v-13.049c0-1.011-.128-1.648-.506-2.026-.255-.254-1.015-.381-2.155-.381v-.504h9.758zm-41.053 18.875v-1.012c.507-.123 1.14-.379 1.521-.888.761-.759 1.139-1.648 1.139-2.913 0-1.139-.378-2.28-1.013-3.038-.507-.509-1.013-.887-1.647-1.017v-1.395h.381c1.646 0 2.914.128 3.927.637.889.379 1.647 1.012 2.282 1.775.633.886.886 1.772.886 2.785 0 1.265-.506 2.407-1.646 3.547q-1.71 1.521-5.701 1.52zm0-18.371v-.504zm23.567 9.248h-7.983v6.208q.001 1.333.38 1.902c.379.38.888.634 1.649.634h.505v.378h-9.374v-.378h.379c.761 0 1.267-.254 1.648-.634q.379-.568.379-1.902v-12.924q-.001-1.329-.379-1.898c-.381-.506-.887-.634-1.648-.634h-.379v-.504h9.374v.504h-.505c-.761 0-1.27.128-1.649.509-.252.378-.38 1.137-.38 2.023v5.576h7.983v-5.576q0-1.329-.38-1.898c-.254-.506-.886-.634-1.649-.634h-.378v-.504h9.249v.504h-.508c-.634 0-1.14.128-1.395.509-.378.378-.505 1.137-.505 2.023v12.924q0 1.333.378 1.902c.381.38.887.634 1.521.634h.508v.378h-9.249v-.378h.378c.763 0 1.268-.254 1.649-.634q.38-.568.38-1.902zm-23.567-9.752v.504c-1.014 0-1.774.128-2.026.381-.381.378-.634.887-.634 1.774v5.953h2.66v1.395a4.8 4.8 0 0 0-1.52-.254h-1.14v5.83c0 .886.127 1.519.508 1.901.251.379.759.505 1.392.505.254 0 .508 0 .761-.126v1.012h-9.629v-.378c1.014 0 1.774-.254 2.154-.509.254-.249.507-1.014.507-2.027v-13.049c0-1.011-.253-1.648-.507-2.026-.379-.254-1.14-.381-2.154-.381v-.504h9.628zm-41.303 19.257v-.887c1.521 0 2.787-.761 3.801-2.41.886-1.52 1.394-3.674 1.394-6.333 0-2.915-.508-5.067-1.394-6.716q-1.521-2.28-3.801-2.279v-1.014c2.913 0 5.321.886 7.221 2.785 1.902 1.774 2.915 4.186 2.915 7.094 0 2.789-.887 5.072-2.788 6.97-1.9 1.903-4.309 2.79-7.348 2.79m19.131-18.119v5.451c0 4.81-.38 7.981-1.014 9.879q-1.14 2.66-3.8 2.66-1.713 0-2.28-.758c-.507-.382-.761-1.015-.761-1.646 0-.635.126-1.142.506-1.397.379-.377.759-.631 1.267-.631.887 0 1.395.506 1.521 1.648.126.254.126.507.126.631 0 .126.127.256.127.381.127.128.253.254.506.254.761 0 1.393-.886 1.901-2.408.381-1.52.633-4.178.633-8.109v-4.056c0-1.136-.127-1.773-.378-2.151-.381-.254-.887-.381-1.774-.381h-.381v-.504h15.331v.504h-.379c-.887 0-1.395.128-1.774.509-.254.25-.381.887-.381 1.898v14.319c.126.253.253.509.381.758.254.254.887.509 1.774.509h.379v.378h-9.375v-.378h.252c.887 0 1.395-.254 1.774-.509.253-.378.38-.887.38-1.645v-15.205zm-19.131-1.52v1.014c-1.647 0-2.913.759-3.928 2.279-.887 1.521-1.395 3.678-1.395 6.464 0 2.659.381 4.811 1.395 6.46.887 1.648 2.154 2.535 3.802 2.535h.126v.887c-1.902 0-3.548-.254-5.068-1.015-1.52-.759-2.661-1.899-3.675-3.419-1.014-1.524-1.521-3.296-1.521-5.448 0-2.028.507-3.928 1.521-5.45 1.014-1.521 2.28-2.534 3.801-3.293 1.646-.759 3.167-1.014 4.815-1.014zm-19.639 19.257v-1.012c.633-.123 1.267-.507 1.646-1.012.634-.762 1.014-1.777 1.014-2.913 0-1.015-.253-1.774-.634-2.411-.505-.758-1.012-1.142-1.646-1.391-.128 0-.253-.129-.379-.129v-1.395h.506c2.408 0 4.181.509 5.321 1.649 1.142 1.011 1.648 2.28 1.648 3.547 0 1.141-.381 2.152-1.014 2.915-.761.886-1.521 1.519-2.408 1.773-.506.128-1.014.251-1.52.378h-2.534zm0-17.737v-1.139h6.208v4.938h-.508c-.253-.76-.506-1.518-.886-2.151-.381-.637-.762-1.015-1.268-1.27-.507-.254-1.267-.379-2.026-.379h-1.52zm-56.888-1.138v.504h-.38v-.504zm-.38 2.787c.887.124 1.646.249 2.28.503 1.14.384 2.154 1.142 3.041 2.157.887 1.142 1.393 2.405 1.393 3.928 0 1.394-.381 2.659-1.141 3.547-.759 1.015-1.645 1.772-2.913 2.279q-1.14.571-2.66.759v-1.266c.126 0 .253 0 .253-.125.634-.254 1.14-.889 1.52-1.774.381-.887.508-2.027.508-3.547 0-1.524-.253-2.66-.634-3.551-.38-.887-.887-1.392-1.52-1.646l-.126-.127v-1.137zm0 15.71h.38v.378h-.38zm57.268-18.497v1.139h-2.661v7.474h2.661v1.395a13.6 13.6 0 0 0-2.661-.254v6.083c0 .889.253 1.52.634 1.774.253.253.761.378 1.14.378.38 0 .634 0 .887-.126v1.012h-9.629v-.378h.253c.887 0 1.52-.254 1.901-.634.252-.379.379-1.139.379-2.152v-13.177c0-.761-.127-1.27-.506-1.647-.381-.254-.887-.381-1.774-.381h-.253v-.504h9.629zm-49.159 0h8.868v.504h-.506c-1.015 0-1.648.254-1.648.759 0 .254.126.637.508 1.015l5.193 8.745 3.928-7.732c.254-.631.506-1.14.506-1.519 0-.887-.759-1.268-2.279-1.268h-.509v-.504h6.21v.504c-.761.128-1.141.381-1.521.634q-.379.38-1.139 1.898l-6.208 12.29c-.506 1.017-1.015 1.904-1.776 2.79q-.95 1.14-2.659 1.141c-1.015 0-1.775-.129-2.282-.632a2.22 2.22 0 0 1-.887-1.774c0-.635.253-1.015.508-1.395.379-.382.759-.633 1.267-.633q.761 0 1.14.378c.254.254.381.759.508 1.522 0 .631.38 1.015.887 1.015.378 0 .759-.129 1.012-.638.38-.377.76-1.012 1.013-1.774l-7.982-13.302c-.38-.633-.759-1.011-1.012-1.266a2.5 2.5 0 0 0-1.14-.254zm38.262 0v4.938h-.506c-.381-2.535-1.646-3.925-4.056-3.925h-1.771v14.947c0 .89.125 1.522.506 1.902.253.38.76.634 1.52.634h.761v.378h-9.883v-.378h.76c.506 0 1.014-.254 1.394-.509.381-.249.634-.887.634-2.027v-14.947h-2.027c-.634 0-1.267.125-1.774.378-.506.256-.886.759-1.267 1.396-.38.633-.633 1.391-.761 2.151h-.506v-4.938zm-46.371.504h-.126c-.761 0-1.393.128-1.648.509-.254.378-.38.887-.38 1.646.759 0 1.52 0 2.154.128v1.138a9.2 9.2 0 0 0-2.154-.25v11.399c.887 0 1.648-.124 2.154-.378v1.266c-.634.128-1.395.128-2.154.128 0 .886.125 1.395.38 1.774.254.38.887.634 1.648.634h.126v.378h-8.743v-.378h.126c.887 0 1.395-.254 1.648-.634.253-.379.38-.888.38-1.774-.759 0-1.52 0-2.154-.128v-1.266c.508.254 1.268.378 2.154.378V218.06a9.2 9.2 0 0 0-2.154.25v-1.138h.381c.633-.128 1.14-.128 1.773-.128 0-.759-.127-1.268-.38-1.646-.38-.381-.887-.509-1.648-.509h-.126v-.504h8.743zm-8.743 18.371h-.506v-.378h.506zm0-2.914c-1.014-.126-1.773-.378-2.533-.634-1.14-.503-2.154-1.265-2.916-2.276-.886-1.017-1.265-2.157-1.265-3.675q0-1.712.759-3.041c.506-.887 1.142-1.648 2.154-2.283.887-.506 1.776-1.015 2.663-1.14.253 0 .633-.124 1.139-.124v1.138l-.126.127c-.634.254-1.14.759-1.521 1.646-.378.892-.633 2.027-.633 3.551 0 1.52.127 2.785.508 3.674.379.759.887 1.393 1.52 1.647.127.125.127.125.253.125v1.265zm0-15.457h-.506v-.504h.506z" style="fill:#fff200"/><path d="M448.323 128.608h45.483v-10.391h-45.483z" style="fill:#fff200;stroke:#000;stroke-width:1.7737"/><path d="M448.323 118.217v10.391c12.545 0 15.331 9.627 15.331 13.936v40.038h15.078v-50.427c0-6.969-5.829-13.938-13.94-13.938z" style="fill:#fff200;stroke:#000;stroke-width:1.7737"/><path d="M238.381 54.108c0-19.765 15.964-35.857 35.603-35.857 19.893 0 35.73 16.092 35.73 35.857s-15.837 35.855-35.73 35.855c-19.639 0-35.603-16.09-35.603-35.855z" style="stroke:#000;stroke-width:.38"/><path d="M274.111 89.837c19.637 0 35.602-16.09 35.602-35.729 0-19.765-15.965-35.857-35.602-35.857-19.767 0-35.857 16.092-35.857 35.857 0 19.639 16.091 35.729 35.857 35.729" style="fill:none;stroke:#fff;stroke-width:.7602;stroke-linecap:round;stroke-linejoin:round"/><path d="m267.522 43.971 14.064.508 3.8 13.682-11.53 7.856-11.15-8.742zM260.807 20.911l7.349 3.802-5.955 10.389-11.277 2.916-2.788-8.49c3.549-3.802 7.73-6.716 12.671-8.617M300.97 30.415l-.887 7.728-11.911-3.041-6.335-8.995 6.842-4.687c4.943 2.153 8.744 4.687 12.291 8.995M303.885 73.62l-8.362 1.518.253-12.921 7.223-7.603 6.206 5.575c-.886 4.942-2.787 9.503-5.32 13.431M268.536 89.457l-4.434-7.222 10.768-5.321 10.896 3.673-2.281 8.109c-3.041.761-6.333 1.141-9.374 1.141-1.776 0-3.928-.127-5.575-.38M238.635 59.302l6.08-6.588 7.222 8.489.508 11.909h-8.617l-.126-.128c-2.66-4.179-4.181-8.74-5.067-13.682" style="fill:#fff"/><path d="M250.924 38.018c-1.772 1.139-5.955 6.333-6.208 14.697M262.201 35.102c1.14 1.648 5.321 8.87 5.321 8.87M288.173 35.102c-.506 1.648-5.954 8.995-6.587 9.377M262.706 57.275c-1.267 1.014-9.375 3.547-10.769 3.928M285.386 58.161c2.027.634 9.376 3.296 10.39 4.056M273.856 66.017c.255 1.14 1.014 9.882 1.014 10.897M252.445 73.112c.632 2.154 9.248 8.996 11.656 9.123M268.156 24.712c1.899 0 9.501-2.154 13.682 1.395M300.083 38.143c1.774 1.776 3.42 11.278 2.915 16.471M295.522 75.138c-1.268 1.776-6.716 5.196-9.883 6.21" style="fill:none;stroke:#fff;stroke-width:.7602;stroke-linecap:round;stroke-linejoin:round"/><path d="M361.281 152.047c0-9.376 3.166-17.358 9.5-23.82 6.211-6.714 13.814-10.01 22.681-10.01 8.994 0 16.597 3.295 22.931 9.883 6.21 6.588 9.252 14.57 9.252 23.946 0 9.502-3.169 17.359-9.376 23.946-6.337 6.461-13.937 9.754-22.808 9.754-8.867 0-16.47-3.293-22.681-9.881-6.333-6.588-9.499-14.443-9.499-23.818z" style="fill:#fff200;stroke:#000;stroke-width:1.7737"/><path d="M372.555 152.047c0-6.082 2.027-11.15 5.956-15.458 4.056-4.308 8.871-6.335 14.569-6.335 5.576 0 10.518 2.027 14.447 6.335 4.055 4.181 5.956 9.376 5.956 15.458 0 6.08-2.027 11.151-5.956 15.331-4.056 4.306-8.871 6.332-14.447 6.332-5.698 0-10.513-2.026-14.569-6.332-3.929-4.18-5.956-9.251-5.956-15.331z" style="fill:none;stroke:#000;stroke-width:1.7737"/><path d="M382.185 152.047c0-3.167 1.014-5.955 3.169-8.109 2.151-2.28 4.687-3.421 7.725-3.421 2.916 0 5.576 1.14 7.603 3.293 2.155 2.282 3.169 5.07 3.169 8.237 0 3.294-1.014 5.955-3.169 8.237-2.151 2.026-4.687 3.165-7.603 3.165-3.038 0-5.574-1.139-7.725-3.165-2.155-2.282-3.169-5.07-3.169-8.237z" style="fill:#00a651;stroke:#000;stroke-width:1.7737"/><path d="M448.323 123.159v5.449c11.276-.128 16.468 7.854 15.331 19.003v34.971h6.335v-45.487c0-6.967-5.829-13.937-13.936-13.937h-7.73z" style="fill:#fff200;stroke:#000;stroke-width:1.7737"/></svg>