<svg xmlns="http://www.w3.org/2000/svg" xml:space="preserve" viewBox="0 0 660 660"><path d="M487.37 470.091V213.762c0-93.646-76.385-169.861-169.858-169.861-93.475 0-169.692 76.215-169.692 169.861v256.842c0 93.647 76.217 169.861 169.692 169.861 93.473 0 169.858-76.214 169.858-169.861z" style="fill:#00ae4d"/><path d="M475.068 460.863V222.991c0-92.451-70.746-167.127-157.557-167.127-86.641 0-156.533 70.744-157.559 167.127v238.384c0 95.357 70.918 165.248 157.559 165.248 88.689 0 158.581-71.772 157.557-165.248z" style="fill:#fff"/><path d="m432.345 372.516 19.482 23.068-.171-38.961zM365.699 293.567l16.063 19.137 69.894-56.731v-32.299zM334.085 256.142l16.237 19.138 101.165-82.365v-32.3zM430.125 148.142h-39.817l-87.152 70.918 16.063 19.311zM352.372 148.142l-39.816.17-41.014 33.324 16.234 19.31zM276.67 148.312h-33.154l13.501 15.892z" style="fill:#00ae4d"/><path d="M165.593 138.059c-11.45 22.728-17.943 48.533-17.943 75.703v70.063l12.303 15.38v-76.213a194 194 0 0 1 4.273-37.939c2.562-12.132 6.321-23.582 11.107-34.518.172-.343-9.569-12.988-9.74-12.476z" style="fill:#fff;stroke:#fff;stroke-width:.1779"/><path d="m131.417 272.204 78.949 97.235v-8.886c-.172-.512-.172-1.027-.172-1.539l-78.777-96.893zM131.417 230.851l80.145 98.944c.342-2.052.855-3.931 1.366-5.981.172-.685.343-1.367.514-1.881l-82.025-101.164zM131.417 188.983l90.228 111.248c1.023-2.052 2.22-4.101 3.417-5.981l-93.645-115.52zM131.417 147.116l107.487 132.778c2.392-1.196 4.612-1.88 6.836-1.88L131.417 137.032z"/><path d="m312.896 331.161-16.063 11.961c-.343.172-8.031 5.64-8.373 5.813-11.449 6.663-19.482 6.32-21.704-1.2-2.563-9.397 1.881-27.681 11.279-41.523 2.905-4.786 4.444-8.545 4.444-14.184 0-7.519-3.589-15.039-8.031-20.164L132.441 96.363l.171 10.083L259.58 263.149h-.172l9.742 11.962c.17.169.342.341.512.341v.17c3.761 4.102 6.153 9.74 6.153 15.893.342 4.785-1.367 9.057-3.589 12.645-10.938 16.405-16.064 35.546-10.938 46.996 4.785 10.594 17.26 11.79 30.077 3.418h.169c1.027-.855 2.223-1.368 3.249-2.222l38.105-28.196c1.196-.684 3.931-.512 5.47.513l-24.094 18.114 4.27 2.05 9.569-7.175c4.103 7.347 15.895-.172 9.059-6.665l8.031-6.152c3.247-2.223 5.468-3.761 9.056-4.958 2.052-.511 4.615-.853 6.322-.168l-7.347 5.466v4.444l11.278-8.714c1.024-.854 3.419.683 4.1 1.366l-28.025 21.019L172.77 472.485l-1.369 9.399 200.621-156.533c3.249-2.394 1.538-4.614-1.708-7.519-4.616-2.052-9.569-2.905-15.38-2.052l-10.936 3.759c-4.787-1.022-11.11-1.878-15.037.342z" style="stroke:#000;stroke-width:.1779"/><path d="M332.036 338.68c2.221.171 4.444-1.366 4.784-3.76.172-1.024-.17-2.05-.683-2.904l-6.837 4.954c.686.856 1.541 1.54 2.736 1.71z" style="fill:#fff;stroke:#000;stroke-width:.2745"/><path d="M398.853 597.06v-7.007l1.71-1.198c.853-.681 1.537-1.364 1.707-1.879.342-.681.342-1.365-.17-1.88-.341-.681-1.026-.853-2.05-.681-.342 0-.686.169-1.196.342v-13.501c.854.343 1.538 1.025 2.22 1.709.685 1.026 1.026 2.052 1.026 3.248.17.853 0 1.88-.513 2.906 1.368-.514 2.392-.514 3.588-.172s2.222 1.027 2.905 2.05c1.538 2.052 2.051 4.1 1.196 6.322-.684 1.711-2.395 3.761-4.955 5.641zm0-25.804v13.501c-.514.339-1.026.683-1.71 1.023l-1.879 1.538 2.563 3.588 1.026-.852v7.007l-3.93 2.905-1.539-2.05v-14.697l1.708-1.366c.856-.514 1.369-1.2 1.369-1.709.171-.513 0-1.025-.342-1.539-.515-.512-1.027-.854-1.539-.854a8 8 0 0 1-1.196.511v-6.492c.857-.513 1.708-.684 2.564-.854 1.024-.174 2.051-.174 2.905.34m-5.469.513v6.492c-.339.173-.684.517-1.024.685l-2.222 1.707 2.392 3.248.854-.683v14.697l-11.449-15.209v-2.732l7.689-5.983c1.368-.857 2.564-1.71 3.76-2.222m-11.449 32.81c.171-.342.342-.853.511-1.196q1.796-4.613-.511-9.741zm0-24.605v2.732l-1.369-1.709zm0 13.668v10.937c-1.369 2.393-3.417 4.275-6.152 5.639-1.879.854-3.76 1.367-5.468 1.367v-6.492c1.026.34 1.88.169 2.904-.171 1.368-.685 2.052-1.708 2.392-3.249.171-1.535-.168-3.247-1.024-4.955-.683-1.708-1.706-2.904-2.905-3.759-.341-.171-.855-.513-1.367-.513v-6.492c1.708-.173 3.417.168 4.957.854 2.902 1.196 4.955 3.417 6.49 6.492 0 .173 0 .173.173.342m-11.62-7.688v6.492c-.855-.342-1.879-.17-2.907.171-1.365.683-2.219 1.879-2.219 3.591-.171 1.366.172 2.731.854 4.442.853 1.708 1.71 2.903 2.906 3.759.339.34.854.685 1.366.685v6.492c-1.366.171-2.907-.171-4.272-.513-3.079-1.196-5.297-3.587-7.006-7.176-1.711-3.419-1.879-6.666-.683-9.569 1.022-3.078 3.247-5.472 6.664-7.009 1.878-.855 3.586-1.365 5.297-1.365m-54.342 32.81v-4.958h2.563l-2.22-8.713-.343.853v-8.031l4.614.172 7.689 24.265-7.861-.341-.684-3.077zm15.719-15.211-1.196-6.149 21.534-4.104 1.196 6.154-6.836 1.196 3.417 17.43-7.688 1.537-3.417-17.43zm-15.719-5.638v8.031l-2.392 7.692 2.392.168v4.958l-4.101-.173-1.027 3.078-7.518-.168 9.229-23.756zm-25.634 13.842v-5.811c.685.172 1.368.172 1.881 0 .683-.34 1.195-1.023 1.538-1.88.17-1.024-.171-1.878-1.027-2.392-.511-.512-1.365-.855-2.392-1.196v-5.639l2.735.685c3.246.685 5.468 2.05 6.837 3.931 1.365 1.707 1.707 3.929 1.023 6.323-.683 2.561-1.88 4.442-3.758 5.47-1.71.85-4.102 1.02-6.837.509m0-16.919v5.639h-.169l-2.051-.512-1.369 5.128 3.247.853h.342v5.811c-.342 0-.683-.171-1.024-.171l-3.931-1.025-1.709 7.178-7.69-1.881 5.81-23.24zm-28.88 16.065v-.171l.514-3.074-.514-.344v-5.469l1.539.685 1.367-8.715-2.906 3.246v-8.886l2.563-2.563 7.178 3.417-2.734 25.292zm-12.646-22.728-.511-.343v-11.62c1.025 1.196 1.707 2.734 2.048 4.102.686 2.562.174 5.298-1.537 7.861m12.646 0-13.156 12.816v3.417l4.442 2.22 2.222-2.392 6.493 3.077v-5.469l-2.904-1.368 2.904-3.417v-8.884zm0 22.557v.171zm-13.156-22.9-5.297-4.101c.51-1.025.852-2.05.684-3.078-.173-1.022-.855-1.875-1.71-2.56-1.196-.854-2.392-1.027-3.76-.515-1.366.515-2.733 1.541-4.1 3.419q-1.795 2.307-2.051 4.1c-.171 1.367.513 2.735 1.879 3.759 1.025.686 2.052 1.028 2.907.854 1.024 0 1.876-.51 2.734-1.364l5.98 4.442q-3.078 3.589-7.177 3.589c-2.564.168-5.298-.683-7.86-2.563-3.077-2.394-4.785-5.127-5.297-8.375-.514-3.075.513-6.322 2.905-9.397 2.221-3.078 4.955-4.787 8.201-5.3 3.077-.339 6.152.343 8.887 2.392q1.794 1.54 3.077 3.078v11.62zm0 13.159v3.417l-2.392-1.026zM429.099 141.819v-5.127l1.026 1.196c.683 1.026 1.196 1.71 1.537 1.881.345.34.855.512 1.37.512.51.17 1.024 0 1.535-.342.685-.512 1.028-1.196 1.028-1.88-.171-.854-.684-1.708-1.539-2.904l-2.22-3.078-2.736 2.05v-4.784l8.886-6.664 8.376 11.107-2.393 1.879-6.153-8.031-3.587 2.563 3.075 3.93c.855 1.199 1.367 2.223 1.709 3.078.343 1.024.171 2.05-.17 3.075-.343 1.025-.856 2.05-1.88 2.734-1.027.683-2.051 1.196-3.248 1.196-1.025 0-2.051-.17-2.733-.685-.686-.338-1.199-.852-1.883-1.706m0-20.506v-3.588l3.418-1.368 2.564 3.076zm0-3.589v3.588l-8.714 2.903c-1.709.514-2.905.685-4.101.685h-.171v-3.076c.171 0 .341 0 .513.17.511 0 1.196-.17 2.22-.682l5.47-14.013 2.731 3.076-4.27 9.741zm0 11.62v4.784l-1.196.856 1.196 1.708v5.127c-.172-.169-.512-.513-.683-.855l-5.296-7.004zm-12.986-20.677 4.101-4.956-4.101-3.417zm0-8.373v8.373l-7.864 9.4-2.902-2.396 10.083-11.96-4.445-3.588-5.127 6.151c-1.367 1.71-2.562 2.904-3.247 3.416-.684.514-1.366.856-2.048.856v-3.931c.168-.17.511-.341.683-.683l2.05-2.564 7.007-8.031zm0 21.531v3.076c-1.028 0-1.879-.341-2.564-1.194q-1.025-1.284-1.539-2.052l2.052-1.88 1.022 1.025c.346.513.685.854 1.029 1.025m-15.55-29.221v-3.248h.511q1.28.001 3.588 1.538l.345.341-1.541 2.222-.342-.342c-.683-.343-1.197-.512-1.537-.684-.341.001-.684.001-1.024.173m0-3.248v3.248s-.172 0-.343.17c-.342.172-1.024.684-2.052 1.369-.511.512-1.025.683-1.536 1.024-.513.172-1.028.172-1.88.172.513.683.852 1.367.852 2.392.172.855 0 2.051-.168 3.42l-.684 5.808-3.76-2.564.853-5.296v-.341c0-.171.172-.514.172-1.026q.257-1.536 0-2.052c-.172-.34-.513-.853-1.024-1.196l-4.614 6.837-3.078-2.05 10.425-15.553 3.247 2.05-4.612 6.665c.853.341 1.366.513 1.881.341.339 0 1.363-.683 2.732-1.538 1.537-1.026 2.733-1.709 3.589-1.88m0 17.26c-.172.171-.343.171-.514.171-.342 0-.854-.171-1.538-.685l-.512-.513-1.88 2.224c.853.854 1.365 1.366 1.708 1.536 1.026.856 1.879 1.198 2.564 1.198h.172zm-25.12-17.26V76.199l1.706-1.197 3.417 1.367zm0-16.234v-1.879h1.024c.34-.172.855-.513 1.024-1.026l1.711.512c-.515 1.026-1.199 1.709-2.225 2.052-.51.341-1.023.341-1.534.341m0-1.879v1.879c-.515-.17-.856-.17-1.367-.34a5.2 5.2 0 0 1-2.224-2.052c-.341-.853-.341-1.88 0-2.905l1.539.683c-.172.513-.172 1.026.17 1.537.171.342.515.684 1.196 1.026.171 0 .342 0 .686.172m0 4.956-10.082 7.517 4.782-11.621-3.247-1.366-7.006 17.429 3.417 1.368 11.62-8.372-4.613 11.277 3.246 1.196 1.882-4.272V76.199zm-32.472 7.176v-3.248c.856.173 1.54.173 1.882.173.511 0 .854-.173 1.366-.513.513-.17.684-.683.856-1.196.168-.856 0-1.538-.513-2.052-.343-.512-1.367-1.026-2.905-1.366l-.686-.171v-3.247l2.564.683c1.367.17 2.392.683 3.249 1.196.854.684 1.538 1.368 1.879 2.564.341 1.025.513 2.05.171 3.246-.171 1.197-.854 2.221-1.711 2.905a4.7 4.7 0 0 1-2.561 1.366c-.855.002-2.05.002-3.591-.34m12.99-16.233 3.588.853-4.104 18.114-3.761-.854zm-12.99 4.614v3.247l-3.075-.683-1.024 4.785 3.589.854c.169 0 .338.168.51.168v3.248l-8.543-2.05 4.273-18.115 3.588.684-1.71 7.349zm-40.499 9.74v-3.077h.172c1.197-.17 1.88-.342 2.392-.511.514-.173.855-.513 1.196-.856.171-.513.341-1.025.341-1.539-.17-.853-.511-1.536-1.195-1.879-.513-.341-1.538-.341-2.906-.17v-3.248h.684q3.59-.511 5.127 1.026c1.198 1.024 1.878 2.392 2.049 3.93 0 1.196-.171 2.391-.683 3.246-.514 1.026-1.195 1.708-1.88 2.05-.683.341-1.879.685-3.418.855zm12.304-.854.683-18.628 3.76.173-.172 7.346 7.352.172.168-7.349 3.759.172-.512 18.626h-3.93l.342-8.203-7.346-.342-.345 8.202zm-12.304-10.425v3.248h-.168l-3.933.341.514 4.957 3.588-.343v3.077l-7.006.683-1.878-18.455 3.759-.514.683 7.52zm-40.499 22.729v-3.419c.853.172 1.877 0 2.735-.512 1.366-.512 2.22-1.537 2.734-2.905.341-1.538.17-3.076-.855-5.126-.854-1.878-2.05-3.074-3.246-3.759-.514-.172-.856-.343-1.367-.343v-3.416c1.025 0 2.049.17 2.905.513 2.222.854 4.1 2.732 5.296 5.468 1.368 2.734 1.54 5.297.857 7.519-.857 2.222-2.394 3.93-4.957 4.956q-2.051 1.023-4.102 1.024m11.619-24.096 12.647-3.418 4.786 17.943-3.59 1.026-4.101-15.037-5.468 1.538 2.221 7.689c.513 2.22.854 3.759.854 4.614.171 1.024 0 1.709-.513 2.392-.341.685-1.196 1.196-2.392 1.538-.513 0-1.196.172-2.392.343l-.684-2.735.684-.172c.854-.17 1.368-.512 1.538-.683.17-.339.17-.854 0-1.708l-.854-3.075zm-11.619 4.615v3.416c-.854 0-1.71.172-2.734.514-1.368.682-2.222 1.709-2.734 3.075-.342 1.368-.172 3.079.853 4.957.855 1.879 1.881 3.248 3.248 3.759.513.17.853.341 1.367.341v3.419c-1.025.171-2.051-.172-2.905-.513-2.223-.854-3.931-2.562-5.299-5.298-.682-1.708-1.196-3.247-1.196-4.612q0-1.54.514-3.077a9 9 0 0 1 1.366-2.564c.856-1.025 2.052-1.708 3.418-2.394q2.052-1.023 4.102-1.023m-17.43 30.076v-3.76l1.538-1.196q1.537-1.027 2.05-1.539c.172-.34.513-.854.513-1.368 0-.512 0-1.024-.341-1.536-.514-.684-1.196-1.026-1.881-1.026-.511 0-1.196.17-1.878.683V90.21c.341-.34.854-.512 1.367-.512.853-.342 1.878-.172 2.903.172 1.196.34 2.052 1.024 2.735 2.05.683 1.196 1.024 2.222 1.024 3.246-.17 1.197-.342 2.051-.853 2.904-.514.686-1.369 1.539-2.735 2.394zm0-18.799v-.172zm0-.171v.172l-8.375 5.64 2.394 3.588 4.1-2.904c.685-.343 1.196-.684 1.881-.856V93.8c-.342.17-.686.342-1.028.683l-3.247 2.052 2.737 4.101 1.538-.854v3.76l-2.906 1.879-8.545-12.816v-3.93l9.742-6.667zm-11.451 27.685v-3.589l1.709 2.22zm0-23.582v3.93l-1.88-2.734zm0 19.993v3.589l-1.196 1.025-9.912-11.961-4.102 3.418v-4.102l9.228-7.69 2.051 2.393-4.273 3.589zm-15.209 18.114v-10.937l1.196 3.075c.685 1.71.855 2.905 1.026 4.101 0 1.027-.341 1.88-1.197 2.734-.343.344-.681.686-1.025 1.027m-10.081 8.203 1.879 1.367-2.222 2.905-1.879-1.369c-.854 1.369-1.88 2.222-2.906 2.906v-4.102c.173-.17.342-.34.513-.684l-.513-.341v-4.615l2.734 2.052c.513-.855.855-1.537 1.025-2.393.173-.681.173-1.367-.169-1.879-.172-.684-.684-1.196-1.539-1.881q-1.025-.766-2.051-1.023v-3.418c1.539 0 2.906.511 4.273 1.539 1.707 1.196 2.562 2.733 2.904 4.612.343 1.71-.341 3.93-2.049 6.324m10.081-34.349v4.102l-.17.17-2.05-2.392zm0 15.21-4.442-11.279-2.734 2.734 4.271 9.399-9.912-3.76-2.392 2.392v.855l13.671 4.444c.514 1.024.683 1.708.683 2.22s-.34 1.026-1.023 1.709c-.173.171-.684.513-1.027.853l2.05 2.052c.173-.172.513-.34.855-.683zm-15.209 24.948c-.854.513-1.708.856-2.564.856-1.88.169-3.587-.344-5.298-1.541-1.707-1.366-2.564-2.903-2.903-4.782q-.516-2.565 2.05-6.153l-1.538-1.196 2.22-2.906 1.538 1.026c1.882-2.222 3.761-3.418 5.47-3.589h1.024v3.418c-1.368-.173-2.733.512-3.93 2.22l3.93 2.904v4.615l-6.15-4.615c-1.025 1.196-1.368 2.394-1.197 3.418 0 .857.682 1.881 1.878 2.736 1.881 1.538 3.761 1.366 5.469-.514v4.103zm0-25.462v.855l-.683-.171z"/><path d="M268.466 183.004c20.506-29.224 60.665-36.4 89.888-16.064 29.22 20.506 36.054 60.836 15.55 90.057-20.507 29.222-60.495 36.571-89.715 16.064-29.052-20.507-36.23-60.666-15.723-90.057" style="fill:#939598;stroke:#000;stroke-width:.8302;stroke-linecap:round;stroke-linejoin:round"/><path d="M284.189 273.06c29.05 20.507 69.208 13.158 89.715-16.064 20.337-29.221 13.5-69.38-15.723-89.885-29.219-20.336-69.548-13.331-89.885 15.893-20.507 29.22-13.33 69.55 15.893 90.056" style="fill:#fff;stroke:#000;stroke-width:.8302;stroke-linecap:round;stroke-linejoin:round"/><path d="m321.783 198.382 20.164 15.38-8.373 24.095-25.12-.172-7.347-24.435zM335.965 157.369l6.835 13.16-19.649 9.397-19.482-7.519 4.442-15.379c9.228-1.88 18.456-2.051 27.854.341M385.522 212.909l-9.569 10.593-14.352-16.747-.172-19.822h15.038c5.127 8.374 8.201 16.235 9.055 25.976M344.853 280.066l-13.843-6.492 13.843-18.8 18.455-3.758 3.417 14.525c-6.324 6.323-14.011 11.277-21.872 14.525M276.327 266.736l1.025-15.208 21.361 3.246 12.133 16.747-11.447 9.4a64.2 64.2 0 0 1-15.209-7.86c-2.737-1.881-5.471-4.104-7.863-6.325M263.511 191.204l15.893-3.417 1.88 19.994-11.792 18.113-12.647-8.884-.17-.342c.513-8.887 2.733-17.26 6.836-25.464" style="stroke:#000;stroke-width:.8302;stroke-linecap:round;stroke-linejoin:round"/><path d="M303.669 172.407c-3.758-.172-15.55 3.248-24.266 15.38M323.151 179.926c-.172 3.417-1.368 18.456-1.368 18.456M361.601 206.755c-2.564 1.88-18.116 7.178-19.654 7.007M301.107 213.25c-2.906 0-17.603-4.445-19.824-5.47M333.574 237.857c2.222 3.075 10.425 14.525 11.279 16.917M308.454 237.685c-.685 1.711-8.543 15.551-9.742 17.089M269.492 225.894c-1.196 3.932 4.442 22.9 7.86 25.634M342.8 170.529c5.811 2.392 12.646 6.663 18.629 16.404M375.954 223.502c.854 4.444-6.665 20.165-12.646 27.514M331.01 273.574c-3.76 1.196-15.379.683-21.017-1.199" style="fill:none;stroke:#000;stroke-width:.8302;stroke-linecap:round;stroke-linejoin:round"/><path d="M487.37 331.161v-96.208l-12.302 9.91v96.209zM150.554 501.707c5.298 28.193 17.602 53.997 35.033 75.532l10.765-8.889c-17.087-21.017-28.879-47.164-33.835-76.385z" style="fill:#fff;stroke:#fff;stroke-width:.1779"/><path d="M479.169 324.325v-2.222l1.711.854zm0-9.056v-42.552c.683 1.367 1.197 2.735 1.711 3.589 2.392 5.127 4.098 9.228 5.126 11.962q1.279 3.588 2.048 6.665c.171.511.345 1.366.511 2.392l12.479-9.913-18.116-22.728-3.759 3.075v-14.183l8.034-6.492 24.777 31.612 8.03-6.323 9.4 11.791-45.8 36.912zm0-61.691v14.183l-1.708 1.367c.513 1.367 1.196 2.564 1.708 3.589v42.552l-4.954-6.153c1.539-1.538 2.563-2.734 3.074-3.93.855-1.879.855-4.101.341-6.494-.682-3.075-2.22-7.517-4.783-13.33-.17-.511-.514-1.025-.683-1.537v-24.778zm0 68.525v2.222l-7.005 5.47v-10.767zm-7.005-63.056v24.778c-1.711-3.759-3.419-7.519-5.469-11.789-1.196-2.052-2.222-4.104-3.249-6.154zm0 59.981-27-12.133-.172-26.487-13.5 10.767 1.196 21.871-11.108-14.011-11.449 9.058 11.107 14.011-19.823-5.638v13.841l10.938 2.564 7.519 38.279 13.669-10.939-3.929-23.411 4.101 1.026 10.936 13.841 11.451-9.056-10.935-13.843-.172-4.273 22.213 9.229 4.959-3.93zm-70.749 59.81v-23.411l14.697 18.458-11.451 9.054zm0-62.373v13.841l-14.693-3.589 13.327-10.765zm0 38.962v23.411l-21.701-27.171-10.766 8.375 24.947 31.441-11.45 9.057-28.364-35.714v-12.303l27.512-21.876zm-47.333 67.671v-12.647l6.151 7.69zm0-70.575v12.303l-5.983-7.692zm0 57.928v12.647l-5.298 4.103-24.781-31.444-9.055 7.177c1.537 2.224 3.246 4.274 4.783 6.322 3.931 4.958 7.007 9.23 9.399 12.818 3.247 4.956 5.127 8.202 5.297 9.911.342 2.736-.17 5.298-1.539 7.861-1.197 1.879-2.731 3.589-4.613 5.298-1.196.854-2.05 1.538-2.563 1.878-.509.171-1.024.343-1.194.514l-6.837-9.058c.513-.683 1.027-1.366 1.199-1.879.51-1.708.167-3.758-1.199-6.15-2.05-3.591-4.957-7.863-8.546-12.989-2.049-3.077-4.1-5.81-5.636-8.032v-16.747l22.385-17.943zm-50.583 54.857c4.955-4.274 7.518-9.573 7.69-16.235.171-6.836-2.394-13.842-7.69-20.849zm0-72.627v16.747c-1.028-1.369-2.052-2.565-2.736-3.588-1.71-2.223-3.247-4.103-4.443-5.64v-1.879zm0 35.543v37.084c-.172 0-.172 0-.344.17-2.222 1.708-4.443 3.076-6.836 3.761v-16.235c.856-1.54 1.196-3.419.685-5.64-.172-.856-.343-1.711-.685-2.563v-23.752c2.392 1.88 4.614 4.099 6.836 6.835.173.169.173.169.344.34m-7.179-29.904v1.879c-.341-.512-.511-.855-.854-1.196zm0 22.729v23.752c-.854-2.564-2.392-5.127-4.614-7.863-2.563-3.414-5.296-5.638-8.031-7.007-2.392-1.022-4.614-1.365-6.494-.679v-14.185a23.5 23.5 0 0 1 9.058.683c3.589 1.024 7.005 2.734 10.081 5.299m0 31.955v16.235c-3.589 1.365-7.177 1.535-11.109.682-2.731-.682-5.466-1.709-8.03-3.417v-19.823c.342.341.513.684.854 1.023 2.733 3.418 5.298 5.812 8.033 7.349 3.246 1.879 6.151 1.71 8.715-.169.683-.513 1.196-1.196 1.537-1.88m-19.139 31.273v-5.64l4.442 2.051zm0-69.211v14.185c-.684.34-1.366.679-1.88 1.196-2.392 1.879-3.075 4.61-2.222 8.03q1.025 3.844 4.102 8.203v19.823c-2.392-1.369-4.785-3.418-7.007-5.641v-43.404c2.222-1.195 4.616-2.048 7.007-2.392m0 63.571v5.64l-7.007 5.466v-14.355zm-7.007-61.178v43.404c-1.196-1.367-2.392-2.731-3.588-4.1-5.468-6.836-8.032-13.671-8.032-20.335.172-6.835 2.904-12.303 8.374-16.746 1.025-.858 2.05-1.541 3.246-2.223m0 57.929-24.093-10.592-.171-26.488-13.33 10.593 1.025 22.046-11.109-14.184-1.536 1.197v20.335l24.607 31.102 11.449-9.058-10.936-13.842-.171-4.272 22.042 9.228 2.222-1.71v-14.355zm-49.213 55.198v-40.843c.511.684 1.024 1.368 1.707 2.053 5.641 7.177 8.375 14.182 8.203 21.188q-.255 9.998-8.203 16.408c-.513.341-1.196.853-1.707 1.194m0-72.627v20.335l-7.007-8.886v-5.809zm0 31.784v40.843c-2.222 1.539-4.616 2.562-7.007 3.247v-14.867s.171-.172.342-.172c2.05-1.706 2.732-4.272 2.222-7.519q-.513-3.075-2.563-6.664v-21.192c2.39 1.711 4.784 3.932 7.006 6.324m-28.712 52.976v2.736zm21.705-79.12v5.809l-2.905-3.589zm0 19.82v21.192c-.855-1.199-1.708-2.563-2.734-3.758-2.564-3.419-5.298-5.642-8.204-7.007-3.247-1.539-5.981-1.367-8.374.511-1.366 1.027-2.22 2.567-2.394 4.444v-18.628c4.275-1.706 8.717-1.878 13.501-.511 2.906.854 5.641 2.049 8.205 3.757m0 35.547c-2.392 1.71-5.298 1.71-8.545 0-2.561-1.539-5.298-3.931-7.86-7.349-2.564-3.245-4.272-6.324-4.958-9.228-.169-.683-.342-1.196-.342-1.878v26.657c3.931 3.417 8.033 5.639 12.477 6.665q4.615 1.026 9.228 0zm-28.88 11.279 1.879-1.541c3.248 4.787 4.957 9.571 5.296 14.014v3.074c-.511 5.301-2.902 9.571-7.175 13.16zm7.175-50.073V498.8a2.97 2.97 0 0 0 0 1.711v26.657c-2.22-1.88-4.27-4.101-6.322-6.667-.17-.339-.512-.683-.854-1.021v-34.865c.513-.338.854-.682 1.368-1.022 1.88-1.54 3.76-2.566 5.808-3.421m-13.669 38.45-10.766 8.546c-1.879-2.051-3.93-3.247-5.982-3.759-2.222-.342-4.102.169-5.81 1.537-2.05 1.707-2.735 3.931-2.221 7.005.513 3.076 2.563 6.664 5.809 10.767 2.906 3.758 5.297 6.15 7.52 7.176 2.905 1.539 5.64 1.199 8.375-.853 1.707-1.369 2.561-3.074 2.732-5.128 0-2.052-.682-4.27-2.221-6.494l9.057-7.175v28.707c-.17.339-.342.513-.684.683-5.64 4.615-11.791 5.98-18.285 4.615-6.664-1.539-12.645-5.812-18.285-12.988-5.467-6.836-8.204-13.671-8.204-20.333 0-6.837 2.564-12.135 7.52-16.065 5.127-4.274 10.595-5.982 15.893-5.296 5.469.684 10.596 3.76 15.552 9.055m6.494-34.007c-4.613 4.104-7.008 9.4-7.008 15.555-.168 6.491 2.224 12.814 7.008 19.311z"/><path d="M376.124 442.066 245.567 546.307h183.875l-.171-.853h-2.905l-.515-1.368-.851-1.54c7.688-24.777 13.669-42.551 1.879-65.963l-2.052-28.366-3.247-2.049-11.106-8.374c.34-1.367.172-2.905-.855-4.271-2.222-1.88-4.443-1.37-8.032 0z" style="fill:#00ae4d"/><path d="M398.168 545.111c8.886 2.735 18.116.17 26.147-2.736 11.108-36.739 9.57-53.484 1.88-65.618l-1.88-27c-11.621-8.202-22.729-7.519-34.519-4.956-3.246 1.024-2.736 1.024-4.786 1.879l-72.454 51.949-5.811 20.677 72.798-33.496c-.341 3.08-.513 5.984-.856 9.059l-121.499 47.165 121.331-42.381a131 131 0 0 0 0 11.621l-117.57 31.1 63.57-13.671-1.539 3.591-24.267 4.614v1.196l22.899-2.733-1.535 3.759-9.059.513-.172 2.391h25.805c-1.369-3.419-2.565-9.569 3.076-16.063 1.54-1.367 3.418-1.71 5.127-2.05l34.517-8.031c.515 4.785.345 9.91 2.225 14.182 3.587 8.715 9.053 12.475 16.572 15.039" style="fill:#fff"/><path d="M430.808 520.162c-3.588-2.223-11.448-5.297-20.505-5.81-11.279-.341-20.336 2.392-25.12 4.614v1.878c4.442-1.878 14.013-3.074 24.949-3.246 8.886.685 16.576 2.564 19.994 4.615zM432.007 491.795c-8.887-3.931-16.407-.513-21.361 6.663h-1.027c-5.296-6.836-15.551-10.936-23.24-8.031v3.93c7.005-2.734 16.063-.683 23.067 9.571h1.54c4.956-7.519 11.107-11.792 21.703-8.716z" style="fill:#00ae4d"/><path d="M430.296 484.277c-8.032-2.565-15.379-1.197-19.822 4.27h-.685c-5.466-5.639-13.841-7.52-23.41-4.614v3.247c9.226-1.881 16.063-.511 22.898 7.007h1.538c5.126-6.665 12.474-9.4 20.678-5.811zM394.067 509.569c2.221 0 3.932-1.713 3.932-3.933 0-2.224-1.71-3.929-3.932-3.929s-3.929 1.706-3.929 3.929c0 2.22 1.707 3.933 3.929 3.933M424.315 510.591c2.05 0 3.76-1.708 3.76-3.758 0-2.222-1.71-3.93-3.76-3.93-2.051 0-3.759 1.708-3.759 3.93 0 2.05 1.708 3.758 3.759 3.758M426.538 474.877c-2.907-1.708-8.545-3.931-16.749-4.956-11.105-.513-18.625 1.196-22.557 2.733l-.172 1.711c3.932-1.196 12.303-2.051 22.729-1.196 7.691.681 14.184 2.05 17.09 3.928l-.341-.853zM420.724 464.966c1.711.512 3.591 1.025 5.3 1.879L425 455.735c-1.37-.683-2.908-1.196-4.615-1.708zM401.246 463.086c4.442-.513 8.714-.343 13.158.684v-11.282c-4.444-1.196-7.861-1.535-12.817-1.023zM395.092 464.112c-2.221.511-4.271 1.023-6.492 1.879l.342-11.791c2.05-.856 4.271-1.369 6.494-1.712z" style="fill:#00ae4d"/><path d="M409.445 440.527c-3.587 1.882-7.176.855-7.518-3.077-.168-2.731 1.197-3.758 2.564-4.27-2.05.17-3.417 1.539-3.417 4.442.341 4.444 6.323 5.469 8.371 2.905" style="fill:#fff"/><path d="M343.143 542.375c1.539 0 2.906-3.074 2.906-6.836 0-3.588-1.366-6.662-2.906-6.662h-2.05c-1.709 0-3.077 3.074-3.077 6.835 0 3.588 1.368 6.662 3.077 6.662z" style="fill:#fff;stroke:#00ae4d;stroke-width:.1779"/><path d="M341.604 542.375c1.711 0 3.249-3.074 3.249-6.836 0-3.588-1.538-6.662-3.249-6.662h-.339c1.706 0 3.075 3.074 3.075 6.835 0 3.419-1.197 6.323-2.736 6.663" style="fill:#00ae4d"/><path d="M350.834 542.375c1.88 0 3.588-3.416 3.588-7.517s-1.708-7.348-3.588-7.348h-2.563c-1.88 0-3.588 3.419-3.588 7.518 0 4.103 1.708 7.347 3.588 7.347z" style="fill:#fff;stroke:#00ae4d;stroke-width:.1779"/><path d="M348.954 542.375c2.222 0 3.929-3.416 3.929-7.517s-1.707-7.348-3.76-7.348h-.512c2.052 0 3.761 3.419 3.761 7.518 0 3.759-1.538 6.834-3.418 7.347" style="fill:#00ae4d"/><path d="M360.573 541.862c2.225 0 4.103-3.587 4.103-8.029s-1.877-8.032-4.103-8.032h-2.732c-2.395 0-4.274 3.589-4.274 8.032s1.879 8.029 4.274 8.029z" style="fill:#fff;stroke:#00ae4d;stroke-width:.1779"/><path d="M358.524 541.862c2.561 0 4.44-3.587 4.44-8.029s-1.879-8.032-4.27-8.032h-.686c2.564 0 4.445 3.589 4.445 8.032.001 4.099-1.707 7.518-3.929 8.029" style="fill:#00ae4d"/><path d="M372.707 542.375c2.736 0 4.958-4.27 4.958-9.397 0-4.957-2.222-9.228-4.958-9.228h-3.247c-2.735.171-4.785 4.27-4.785 9.398s2.049 9.227 4.785 9.227z" style="fill:#fff;stroke:#00ae4d;stroke-width:.1779"/><path d="M370.484 542.375c2.735 0 5.127-4.27 5.127-9.397 0-4.957-2.392-9.228-5.127-9.228-.341 0-.511 0-.681.171 2.904 0 5.125 4.099 5.125 9.226 0 4.784-2.047 8.714-4.613 9.227z" style="fill:#00ae4d"/><path d="m300.08 521.697 4.443-17.256-5.296 3.415-3.933 12.134-37.252 19.993z" style="fill:#fff"/><path d="m364.504 482.736 12.818-6.663.681-22.046-16.918 11.792-.169 9.569 3.588-1.879z" style="fill:#00ae4d"/><path d="m374.587 474.705.512-16.233-11.961 8.032-.34 14.868z" style="fill:#fff"/><path d="m379.03 475.388 1.536-.854.515-24.607-1.538 1.365zM353.054 472.142l-9.911 6.833-1.024 15.213 12.987-7.008.172-11.279-2.395 1.368z" style="fill:#00ae4d"/><path d="m353.567 473.681-9.399 6.324-1.025 12.13 10.253-5.466z" style="fill:#fff"/><path d="m357.841 486.155 1.365-.856.344-19.308-1.026.855zM328.618 501.022l9.228-4.784 1.196-13.67-8.884 5.979z" style="fill:#00ae4d"/><path d="m329.643 499.483 6.666-3.417.855-10.936-6.154 3.93z" style="fill:#fff"/><path d="m308.283 511.96 56.221-29.224v-4.27l-55.539 31.442zM307.087 509.052l19.651-11.618.172-2.223-19.652 12.645zM305.72 505.808l13.327-8.374v-1.879l-13.157 9.569z" style="fill:#00ae4d"/><path d="M297.517 541.862H274.79l22.898-1.365zM288.632 519.48l.511-3.932-32.98 23.753z" style="fill:#fff"/><path d="M369.803 542.375c2.904 0 5.296-4.27 5.296-9.397 0-4.957-2.392-9.228-5.126-9.228-.341 0-.513 0-.685.171 2.907 0 5.127 4.099 5.127 9.226 0 4.785-2.05 8.715-4.612 9.228M358.181 541.862c2.392 0 4.445-3.587 4.445-8.029s-2.053-8.032-4.445-8.032h-.511c2.392 0 4.442 3.589 4.442 8.032 0 4.099-1.711 7.518-3.931 8.029M348.611 542.375c2.052 0 3.761-3.416 3.761-7.517s-1.708-7.348-3.761-7.348h-.512c2.051 0 3.759 3.419 3.759 7.518 0 3.76-1.367 6.835-3.417 7.347zM341.265 542.375c1.706 0 3.247-3.074 3.075-6.836.172-3.588-1.369-6.662-3.075-6.662h-.342c1.708 0 3.076 3.074 3.076 6.835 0 3.419-1.199 6.323-2.734 6.663" style="fill:#00ae4d"/></svg>