<svg xmlns="http://www.w3.org/2000/svg" width="1000" height="1000" viewBox="0 0 1000 1000"><path fill="#edd42f" d="M475.001 950c261.698 0 475.24-213.543 475.24-474.757C950.242 213.543 736.7 0 475.002 0 213.543 0 0 213.543 0 475.243 0 736.457 213.543 950 475.001 950"/><path fill="#0095da" d="M475.001 931.272c251.485 0 456.27-205.277 456.27-456.03 0-251.24-204.787-456.272-456.27-456.272C224 18.97 18.972 224.002 18.972 475.243 18.97 725.998 224 931.272 475.002 931.272"/><path fill="#edd42f" d="M475.001 826.2c193.602 0 350.96-157.841 350.96-350.957 0-193.6-157.358-350.96-350.96-350.96-193.113 0-350.719 157.36-350.719 350.96 0 193.116 157.606 350.958 350.72 350.958"/><path fill="#fff" d="M475.001 806.99c183.14 0 331.988-149.096 331.988-331.747 0-183.14-148.848-331.988-331.988-331.988-182.654 0-331.99 148.848-331.99 331.988 0 182.651 149.336 331.746 331.99 331.746"/><path fill="#edd42f" d="M475.001 782.668c169.764 0 307.911-138.147 307.911-307.425 0-169.764-138.147-307.911-307.91-307.911-169.276 0-307.67 138.145-307.67 307.91 0 169.279 138.392 307.426 307.67 307.426"/><path fill="#edd42f" stroke="#fffcd5" stroke-width=".73000854" d="M475.001 763.943c159.307 0 288.939-129.881 288.939-288.7 0-159.305-129.632-288.939-288.939-288.939-158.818 0-288.697 129.634-288.697 288.939-.002 158.819 129.879 288.7 288.697 288.7z"/><path fill="#007fb6" d="M475.001 763.943c159.307 0 288.939-129.881 288.939-288.7 0-159.305-129.632-288.939-288.939-288.939-5.107 0-10.459 0-15.81.247v576.903c5.349.242 10.703.489 15.81.489"/><path d="M396.444 337.096c6.32-2.918 12.888-6.321 18.967-10.457 11.92-8.999 19.7-20.43 19.214-35.996l1.218-7.78c3.404 3.16 5.105 7.78 6.08 12.404-.73 17.266-7.54 27.725-20.674 36.965-8.028 5.352-16.297 9.244-24.805 12.647zm0 11.43c6.565 3.167 11.428 6.814 11.914 8.27-.242.732-5.35.246-11.914 0zm0 54.724 6.32 41.107c10.457 14.345 15.809 34.048 11.431 57.153-3.647 23.35-5.349 29.19-10.945 35.996l-5.834 49.129-.972 11.675zm0 228.136 15.564.73-15.564 16.785zm0-309.122c2.673-2.434 5.105-5.351 7.536-8.513 3.406-4.377 7.784-9.732 8.516-16.3 1.702-7.297 2.188-15.08 1.214-22.375l-9.485-8.999.73 8.028c.488 7.053.73 14.106-.73 20.43-.972 4.133-4.13 8.999-6.08 12.643-.485.975-1.218 1.705-1.7 2.432zm-18 346.095v-36.24h6.567l-.489-46.214-2.429-39.885c-1.218 1.457-2.431 2.431-3.65 3.405V344.39c6.08-2.429 11.917-4.621 18.001-7.297v7.783c-1.704.73-3.164 1.216-4.866 1.702 1.704.732 3.164 1.46 4.866 1.943v8.269c-1.704-.242-3.65-.242-5.352-.486-.73.242-1.46.242-2.187.486.73 1.46.969 3.406.969 4.624v.486l6.573 41.345v195.06l-3.165 33.076h3.165v17.514l-11.434 12.158zm18-358.746v12.649c-2.678 2.429-5.352 4.13-8.027 5.351-2.92 3.403-6.324 6.08-9.974 8.752v-9.729q.368-.364.73-.73c7.054-4.863 12.888-10.698 17.271-16.293m-37.7 244.434 1.457 35.022.244 43.05h-6.081v54.238l3.647 3.889 20.43-21.887v-36.24h-6.565l1.455-43.05 3.408-37.937c.486-.488 1.216-.977 1.702-1.701V344.396c-1.46.244-2.679.73-3.89 1.215-2.434-.971-5.11-1.945-7.783-2.434 4.622-2.187 8.27-4.136 11.675-6.809v-9.729c-4.863 3.892-9.97 6.81-15.08 10.215-.73-2.187-1.216-5.108-1.458-7.54-2.187-2.187-5.107-2.672-7.539-1.698v229.348c1.46-.73 2.676-1.704 4.378-2.917m-4.378 78.071v54.239l-22.62-24.08v-30.159h7.298l-.974-38.183-3.162-32.352c-.971.489-2.19.73-3.162 1.219V435.113c1.216-1.945 1.949-3.403 2.92-5.107l11.431-27.241 3.65-22.132c-7.053-.244-13.379-2.19-18-4.621v-49.62c4.133 4.869 9.729 10.218 15.808 14.595.488.486.974.73 1.46 1.216.732-.242 1.457-.242 2.19-.242-4.864-4.135-8.758-8.757-11.675-14.597 1.46-2.918 5.349-4.378 8.999-2.676 1.218 2.92 2.917 5.837 4.866 8.269-.247-1.216-.733-2.432-.733-3.892.486-.73.969-1.215 1.704-1.457v229.348c-1.46.733-2.676 1.216-4.621 1.463l-1.463 34.292.73 39.4h5.354zm-22.62-305.723c-.971-1.216-2.187-2.43-3.159-4.13-1.704-3.895-5.11-8.272-5.84-12.406-1.704-6.809-1.215-13.623-.971-20.676l.971-8.025-9.484 8.996c-.972 7.545-.73 15.323.974 22.376.971 6.809 5.107 12.16 8.755 16.54 2.673 3.404 5.595 6.81 8.51 9-2.19-1.216-4.621-2.43-6.811-3.65-11.678-9-19.7-20.669-19.214-36.482l-1.216-7.54c-3.403 3.162-5.108 8.025-6.08 11.92.972 17.998 7.543 28.213 20.672 37.698 4.136 2.187 8.27 4.863 12.405 6.567-2.434 1.46-4.38 3.162-5.837 4.622-2.676.727-5.596 1.948-8.514 3.65-11.674 2.19-20.915 8.754-20.915 15.322v.733c.244 1.213 2.915 2.429 4.863 2.675 4.866.242 11.43 3.404 19.214 2.679 3.647 0 7.053-.489 9.973-1.216.486.486 1.219.727 1.702.972v-49.625zm0 108.718c-5.104 8.755-12.402 21.16-22.375 35.51-1.704 2.43-4.863 6.81-8.27 14.352-.488 5.349-2.675 10.21-3.163 16.535 0 20.918.732 22.376 7.786 38.672l2.675 17.998 3.404 16.058 3.889 28.94 2.917 28.94h-14.834l26.997 28.943.972 1.216v-30.159h-1.946l-3.403-34.289-1.946-33.081c2.432-.489 4.863-1.216 7.297-1.946z"/><path fill="#edd42f" d="m659.843 409.818-116.985 1.946c-1.946 23.105-21.648 41.83-45.725 41.83h-.728c-2.678 33.563.242 68.587 8.997 104.584 12.646 50.832 44.023 94.856 94.123 131.582 26.265-16.782 47.186-36.97 62.508-60.559 15.325-23.838 26.509-47.918 33.32-73.694 7.054-25.779 10.215-51.563 9.968-77.102 0-8.514-.241-16.539-.969-24.808-23.835-.73-43.293-19.944-44.51-43.78M599.77 377.472c-25.293 0-45.726-20.427-45.726-45.726 0-25.05 20.43-45.48 45.726-45.48 25.048 0 45.483 20.43 45.483 45.48 0 25.296-20.435 45.726-45.483 45.726"/><path fill="none" stroke="#000" stroke-width=".73000854" d="m590.282 346.095-8.755 14.109M599.77 317.154l-.489-18.73M584.447 328.1l-17.759-2.921"/><path d="M599.77 346.341h-9.488l-2.915-9.245-2.92-8.997 7.54-5.593 7.783-5.593 7.783 5.593 7.536 5.593-2.915 8.997-2.917 9.245ZM555.749 319.586l1.46-4.133 1.454-3.648 2.193-3.894 5.832 17.268-12.158 14.11-.486-6.082v-4.62l.486-3.164.483-2.673ZM577.152 371.634l-2.19-1.218-2.922-2.188-3.157-2.673-2.675-2.678-2.923-3.406 18.242.733 8.51 16.294-2.67-.486-2.92-.972-4.38-1.948ZM624.088 370.416l-1.213.733-1.701.971-1.46.73-2.432 1.216-3.65 1.46-4.622.972 8.758-16.053 18.723-1.699-3.887 4.86-3.647 3.165-2.434 1.946ZM643.552 319.83l.724 2.187.489 3.648.488 4.377v3.65l-.247 2.19-.241 2.432-12.16-13.62 5.348-17.755 1.46 2.918 1.46 2.19 1.943 4.619ZM593.688 286.754l2.92-.247 2.673-.242 3.648.242 4.135.486 3.895.732 4.619 1.458-16.297 9.24-16.296-8.754 3.406-1.214 2.434-.73 2.187-.485Z"/><path fill="none" stroke="#000" stroke-width=".73000854" d="m632.604 324.693-17.515 3.895M609.257 346.341l8.51 14.104"/><path fill="#edd42f" d="M838.85 381.36v-13.376c1.699.73 3.403.73 5.349 0 2.678-.727 4.377-2.187 5.107-4.863.486-2.19 0-6.079-1.457-10.703l-3.894-12.158-5.105 1.457v-13.376l35.024-11.431 14.595 44.751-9.973 3.647-10.703-33.078-13.863 4.621 5.35 16.055c1.215 4.622 1.945 8.513 1.945 11.917-.241 3.161-1.457 6.323-3.647 9.243-2.188 3.164-5.352 5.349-9.246 6.809-3.4.733-6.562.977-9.482.486m-45.723-84.636v-8.999l5.35-2.675c.73 1.457 1.46 3.161 2.192 4.619 1.213 2.19 2.673 4.135 4.13 4.865 1.466.486 3.65.73 6.815.24v10.22c-4.139 0-7.542-.245-10.22-.975q-5.474-1.822-8.025-6.567c0-.242-.242-.486-.242-.728m0-27.727v-15.566l18.487-13.135v15.566zm0-38.427v-15.323l14.837-10.459 3.65 5.108v18.728l-5.113-7.78zm45.723 73.208v-11.19l22.375-2.434 6.08 11.92zm0-25.054V258.54l3.65-5.108 6.32 12.403zm0-20.183-26.026 35.996c-.486 0-.727.24-1.21.24v10.22h3.403l23.835-1.217v-11.189l-12.404 1.46 12.404-15.325v-20.185zm0 69.802-24.807 8.025 9.238 28.457c1.704 5.108 3.408 8.51 5.349 10.945 1.948 2.188 4.621 4.139 8.269 5.352.49.241 1.218.241 1.948.241v-13.376c-1.704-.727-2.92-1.702-3.894-2.917-.728-1.702-1.943-4.134-3.16-8.025l-3.65-11.434 10.704-3.891v-13.377zm-27.236-72.48 21.64-15.081-21.64-30.889v18.728l5.59 7.783-5.59 3.892zm-18.487-40.616v15.323l-8.755 5.837c-5.596 3.892-9.973 6.809-12.646 8.269v-14.595l6.811-4.866zm0 38.186V269l-11.43 7.78-7.298-10.458zm0 34.292v9c-1.701-2.92-2.434-5.352-2.915-7.298zm-31.619-42.319c.24.244.73.486 1.214.486 2.675.73 5.351.244 8.024-.972.245-.241.489-.241.975-.241v-14.595l-1.946 1.462c-2.432 1.702-4.133 2.43-5.108 1.944-.974-.242-2.19-1.216-3.161-2.918v14.834zm0-51.563v-10.942c.97-.488 2.432-1.218 3.89-1.946 2.19-1.218 4.377-1.948 6.325-2.434v10.945a23 23 0 0 0-4.136 2.193 64 64 0 0 1-5.593 2.184zm0-23.591v-13.62l6.81 6.564zm10.215 19.214c1.702-.73 2.92-1.216 3.892-1.458 1.46-.485 2.676-.485 4.133-.244 1.218.489 2.92 1.46 4.624 3.406l1.213 1.46 6.568-6.812c-.727-.485-1.213-.968-1.213-1.213-4.378-4.38-8.025-6.57-10.945-7.297-1.946-.486-4.866 0-8.27 1.216v10.942zm-10.215-32.835v13.621l-11.919 12.402c2.188 1.704 4.136 2.432 5.835 2.432.972-.24 3.167-.972 6.084-2.185v10.942c-1.701.245-3.647 0-5.84-.241 1.458 2.431 1.949 4.863 1.704 8.266q-.726 4.382-2.92 11.675l-5.834 18-10.704-10.22 5.835-16.779c.244-.242.244-.73.489-1.46 0-.242.485-1.699.974-3.403.971-3.165 1.213-5.593 1.213-6.81-.242-1.212-1.213-2.917-2.678-4.377l-18.968 19.944-9.001-9.001 43.29-44.993zm0 73.939c-.244-.245-.485-.489-.732-.972l-1.702-2.193-8.027 5.596c1.945 3.162 3.405 5.835 4.377 6.807 1.948 2.92 3.894 4.624 6.084 5.595zm-143.254-92.423v-21.404l6.323-18.728v36.727l-1.702 4.863zm0-35.752 6.323-5.351v-15.32l-6.323 5.108zm0-34.538v-8.025.241c.971 1.219 2.428 2.432 4.619 3.162.732.242 1.213.488 1.701.488v6.324c-1.216 0-2.434-.733-3.647-.975-.97-.241-1.946-.724-2.673-1.215m6.323 66.885 18.728-54.48-11.92-4.378-6.808 5.835v15.32l.486-.245-.486 1.216zm0-64.693c2.187.242 4.38 0 6.081-1.218 3.16-1.219 5.352-3.648 6.81-7.053l-5.352-1.946q-1.46 2.918-3.65 3.647c-.974.486-2.432.486-3.89.244zm-6.323-10.217v8.025c-2.435-1.216-4.136-2.918-5.108-4.864-1.463-2.917-1.707-6.32-.974-9.97l5.593 1.704c-.483 1.946-.242 3.647.489 5.105m0 26.997-24.566 20.43 13.623-39.647-11.186-3.647-20.433 59.59 11.917 3.892 30.647-25.052V86.83zm0 29.914v21.404l-6.568-2.434Zm-328.827 37.212v-16.538c1.457 4.622 1.702 9 .727 13.624q.001 1.457-.727 2.914m0-54.963 11.675 24.807 4.377 9.971c1.219 2.187 1.702 3.889 1.219 5.107-.733.972-2.193 2.188-4.622 3.406l-2.431 1.216 4.133 8.755c3.65-1.213 6.079-2.676 7.539-3.162 3.891-1.948 6.323-3.65 7.297-6.081 1.216-2.676 1.216-5.352.489-8.028-.972-2.92-2.918-8.269-6.085-15.08l-11.428-24.32 17.024-8.03 22.132 47.672 10.947-5.352v-1.702l-26.028-55.454-36.238 16.78zm229.351 13.13v-10.7c3.164.485 5.35.485 6.81.485 1.462-.244 3.163-.972 4.38-2.434 1.457-.972 2.43-2.676 2.678-4.375.239-2.678-.489-5.352-2.19-6.812-1.702-1.701-5.108-2.92-10.218-3.403l-1.457-.247v-10.7l6.809.971c4.38.489 8.269 1.704 11.189 3.164 3.161 1.944 5.352 4.62 7.053 7.537 1.704 3.403 2.19 7.542 1.704 11.189-.483 4.624-2.187 8.027-4.863 10.459-2.673 2.676-5.349 4.622-8.266 5.349-2.679.488-6.812.488-11.922-.244zm40.13-57.883 12.649 1.46-8.758 62.26-12.646-1.701zm-40.13 19.7-9.97-1.217 3.403-25.295-12.403-1.704-8.754 62.266 27.727 4.133v-10.7c-.486 0-.972 0-1.458-.245l-12.163-1.946 2.187-16.052 11.434 1.46v-10.7zm-132.793 46.94v-10.945l1.946-.485c3.889-.972 6.565-1.946 8.025-2.674 1.46-.73 2.431-1.706 3.405-3.405.733-1.458.972-3.65.486-5.594-.73-2.675-2.187-4.377-4.621-5.11-1.944-.727-5.108-.485-9.241.245V81.963c7.783-1.699 13.862-1.457 18.24 1.463 4.377 2.429 7.053 6.323 8.271 11.675 1.214 3.891.972 8.024-.488 11.186-1.216 3.403-3.162 6.323-5.593 8.022-2.435 1.463-6.324 2.92-11.43 4.139zm41.587-8.027-5.593-62.505 12.89-1.46 1.943 24.81 24.81-2.19-2.19-24.808 12.647-.974 5.351 62.508-12.405 1.216-2.429-27.24-24.81 2.188 2.432 27.483zm-41.587-30.889v10.948c-.488.244-.974.244-1.463.485l-12.643 2.918 4.133 16.294 9.973-2.676v10.945l-19.7 4.863-14.592-58.616v-2.426l11.672-2.92 6.082 24.077 16.54-3.648zm-34.295 47.915v-1.701l.728 1.216zm0-65.18h-.73l.73 2.429zm-62.263 24.807v9.487l-1.218-2.678v-6.08zm0 47.912v16.538c-.242.977-.73 1.946-1.218 2.92v-22.617c.488.972.974 2.185 1.218 3.16m-120.15 111.636v-16.052l6.568 5.352v16.052zm0-60.073v-13.376l6.568-6.565v26.994zM288.21 90.235l-2.432 1.216 2.432 4.863zm0 44.02c-.972-2.675-2.432-5.348-4.136-8.027-5.35-8.51-12.16-13.376-19.942-15.322-1.945-.486-3.65-.972-5.595-.972v12.164c.488 0 1.215.241 1.704.241 4.622 1.46 8.757 4.866 12.646 11.19 4.134 5.834 5.594 11.43 4.864 16.05-.73 5.11-3.162 8.515-7.295 11.677-3.895 2.431-7.784 3.164-11.92 2.431v12.16c5.838.242 11.92-1.7 17.757-5.84 5.596-3.647 9.73-7.78 11.917-13.131zm-29.67-24.32v12.163c-4.137-.733-8.028.241-11.678 2.676-4.375 2.673-7.053 6.809-7.78 11.186-.73 5.107.97 10.215 4.862 16.54 3.89 5.838 8.267 9.486 12.891 10.946.483 0 1.216.244 1.702.244v12.16c-1.946 0-3.65-.244-5.596-.73-7.783-1.701-14.348-7.053-19.7-15.32-.733-.976-1.218-2.192-1.946-3.163v-32.108a42.2 42.2 0 0 1 9.485-8.999c5.843-3.65 11.922-5.596 17.76-5.596m-27.242 92.663v-24.804c2.676 2.914 4.136 6.32 4.624 9.484.728 3.648.242 7.295-.974 9.73-.73 1.699-1.948 3.403-3.65 5.59m0-78.069c-.244.245-.244.486-.486.73-1.943 2.432-3.164 5.835-3.892 9.244-.485 3.161-.727 6.809 0 10.459.486 3.403 1.949 7.783 4.378 11.675zm0 53.265c0-.245-.244-.489-.486-.733-2.917-2.673-6.082-4.616-9.973-5.352a17.06 17.06 0 0 0-9.97.972c-.245.247-.728.247-.975.488v13.133c1.948-1.216 3.403-1.946 4.866-2.188q3.648-.728 6.565 2.188c1.462 1.46 2.19 3.161 2.19 4.865.244 1.944-.245 3.648-1.216 5.108-.73.974-2.676 3.162-5.596 6.082l-6.809 6.564v14.84l17.512-17.269c1.463-1.46 2.918-2.434 3.892-3.894zm-21.404-4.625c-2.676 1.46-5.593 3.162-8.755 6.326l-12.16 11.672-9.976-10.459 24.565-23.835-7.295-7.54-20.427 19.703v26.995l30.159 31.374 3.889-3.647v-14.84l-1.946 1.702-11.675-11.916 9.244-9c1.701-1.457 3.164-2.675 4.377-3.402zm-34.048 81.236 5.593 4.377 7.784-9.97-13.377-10.46zm-6.567-78.801v13.376l-6.81-6.809Zm0 57.397v16.052l-28.943-22.62-3.65 4.38v-17.026l14.35-18.242 8.511 6.567-11.43 14.348zm-32.59 60.56v-19.945l9.245 12.161c3.162 4.622 5.35 8.757 6.565 11.922 1.216 3.403.73 7.053-1.216 10.215-1.704 3.164-3.406 5.84-4.866 7.541l-8.269-5.11c.975-1.216 1.946-2.917 2.676-4.136 1.463-2.187 1.946-4.621 1.704-6.079-.241-1.46-1.704-3.891-4.135-6.567h-1.705zm-11.19 53.266 6.81 2.679-3.89 11.672-6.809-2.43c-3.403 9.483-8.025 15.323-13.618 17.996-1.701.73-3.65 1.216-5.351 1.46v-11.919c3.891-1.215 6.809-4.863 8.754-10.703l-8.754-2.915v-12.893l12.649 3.894c.969-2.92 1.457-6.081.969-8.513-.242-2.679-1.214-4.622-2.674-6.082-1.457-1.946-3.891-3.161-7.294-4.133-1.216-.244-2.676-.73-3.65-.73v-12.402c2.431 0 5.107.483 7.78 1.457 6.568 2.19 11.43 6.08 14.595 11.43 2.915 5.347 3.162 12.645.483 22.132m11.19-133.04-16.294 20.918 8.269 6.565 8.024-10.456zm0 59.83-21.646-29.915-6.568 11.189 21.888 27.239-27.728-2.674v12.164l34.05 1.943v-19.947zm-34.051 104.585v-11.92c-2.676.49-5.596.49-8.755-.485-4.621-1.702-7.783-3.89-9.243-6.81-1.458-2.917-1.458-7.055.244-12.16l17.754 5.838V339.77l-14.106-4.619c2.675-8.271 7.297-11.919 14.106-10.945v-12.402c-3.647-.244-7.295.483-10.456 2.188-5.596 2.434-10.215 8.271-13.621 17.756l-5.838-1.701-3.891 11.43 5.835 1.946c-2.676 9.487-2.43 17.024.244 22.376 2.917 5.351 7.783 9.484 14.592 11.433 4.622 1.452 9 1.696 13.135.969m0-98.748v12.163l-14.837-.73 7.054-12.163z"/><path fill="none" stroke="#9e76b4" stroke-width=".73000854" d="M475.001 826.2c193.602 0 350.96-157.841 350.96-350.957 0-193.6-157.358-350.96-350.96-350.96-193.113 0-350.719 157.36-350.719 350.96 0 193.116 157.606 350.958 350.72 350.958M475.001 826.2"/><path fill="#edd42f" d="M689.516 856.365v-8.27l1.702 7.295zm0-18.49v-13.379l10.945-7.294-10.945-7.781v-16.297l46.211 33.077-12.16 7.786-13.377-9.488zm0-44.75-13.135-9-9.97 6.568v10.945l12.646 61.289 10.456-6.568v-8.269l-1.946-8.999 1.946-1.215v-13.38l-4.624 2.676-6.079-25.781 10.703 8.03v-16.297zm-23.106 91.203v-5.835l1.946 4.866zm0-93.635v10.945l-2.187-9.727zm0 87.8v5.835l-8.516 3.406-5.59-13.618-29.676 12.16v-12.648l17.757-6.81-16.78-41.589-.977.244v-12.405l9.246-3.647 21.157 52.293 5.599-2.435zm-43.78-65.425-34.05 13.863 2.674 6.567c4.38 10.7 7.544 19.947 9.485 27.483 2.187 7.298 2.92 14.35 2.434 20.916l-5.35 1.701 9.971 24.566 10.46-4.38-5.594-13.86 9.97-3.65v-12.65l-6.078 2.92c0-10.217-3.892-24.806-11.675-44.023l17.754-7.053zM482.78 912.3v-11.673h.73c5.595-.485 9.97-2.673 13.381-6.567 3.159-4.133 4.86-10.212 4.616-17.754-.485-8.025-2.19-13.62-5.834-17.27-3.406-3.404-7.781-5.352-12.894-5.352v-11.428c9.246 0 17.03 2.675 22.867 8.513 6.32 5.837 9.482 14.35 9.97 25.293.245 10.945-2.434 19.7-8.024 26.023-5.84 6.081-13.624 9.731-23.592 10.215zm47.917-72.476 44.993-8.752 2.187 10.945-31.616 6.079 10.948 55.207-13.624 2.92zm-47.918 2.432h-1.454c-5.352 0-9.974.974-14.11 3.164-3.161 1.457-6.079 3.406-8.513 6.323-2.676 2.676-4.619 5.835-6.079 9.485-1.946 4.866-2.673 10.7-2.429 17.268.242 10.945 3.645 19.46 9.727 25.057 5.84 5.834 13.62 8.75 22.86 8.75V900.63c-5.104 0-9.24-2.187-12.646-5.837-3.644-3.409-5.593-9.244-5.834-17.024q-.367-12.04 4.377-17.513c3.403-4.136 7.542-6.326 13.377-6.57h.727v-11.43zm-152.007 44.512v-12.65c1.943-.244 3.892-.971 5.838-1.698 4.619-2.193 8.51-7.056 11.43-14.598 2.918-6.809 3.404-12.89 1.705-17.756-1.705-4.866-5.108-8.27-10.218-10.462-3.162-1.452-6.082-1.938-8.755-1.7v-12.157c4.133.241 8.27 1.216 12.89 2.92 9.244 3.65 15.567 9.485 18.73 17.754 3.163 7.78 2.675 16.782-1.461 26.997-3.889 10.215-9.97 17.268-17.754 20.432-3.889 2.182-8.027 2.918-12.405 2.918m59.588-53.023 46.452 8.996-12.888 66.397-13.373-2.185 10.7-55.21-19.944-4.138-5.593 28.457c-1.46 8.025-2.917 13.62-4.136 16.785-1.216 3.156-2.917 5.349-5.349 6.562-2.431 1.701-5.837 1.95-10.461 1.218-1.458-.73-4.375-1.457-8.511-2.431l2.19-10.46 2.917.733c2.679.483 4.866.483 5.838 0 1.216-.732 1.946-2.19 2.676-5.351l1.943-11.192zm-123.797-53.506 12.16 7.536c4.378 3.165 7.54 5.35 9.486 7.295 2.19 1.702 3.647 3.895 4.621 6.324.972 1.95 1.219 4.865 1.219 7.544-.245 2.676-.975 5.349-2.676 7.78-1.702 2.676-3.894 4.625-6.81 5.596-2.92 1.21-5.837 1.943-9 1.21 2.675 3.407 4.135 7.054 4.62 10.463.242 3.644-.732 7.294-2.92 10.214-1.7 2.92-3.89 4.869-6.567 6.568-1.457.974-2.676 1.46-4.136 1.701v-17.753q1.096-2.188.73-3.648c0-.974-.244-2.193-.73-3.167v-15.81c.975.488 1.702.73 2.19.974 1.946 1.457 4.136 1.701 5.838 1.216 1.948-.242 3.406-1.702 4.622-3.165 1.215-1.945 1.704-3.891 1.46-5.349-.486-1.701-1.46-3.647-3.162-4.863-.972-.733-4.377-3.164-9.73-6.567l-1.218-.977v-13.122zm64.21 35.508h-1.708q-5.104.362-10.212 2.187c-3.65 1.704-6.809 3.892-9.487 6.565-3.645 3.167-6.812 8.274-9.244 14.595-4.133 9.973-4.621 18.972-1.457 27.241 3.406 7.54 9.485 13.374 18.97 17.268 4.621 1.949 8.755 2.92 13.135 3.167v-12.649q-4.377.365-8.758-1.46c-5.107-1.701-8.513-5.351-10.456-10.215-1.704-5.11-1.219-11.186 1.701-18.484 2.92-7.055 6.81-11.916 11.431-14.106 1.948-1.216 3.894-1.699 6.082-1.948v-12.161zm-74.913-42.808-36.724 57.156 19.214 12.16c7.298 5.108 12.16 8.025 14.107 9.002 3.164 1.458 6.325 2.188 9.487 1.943 1.702 0 3.162-.244 4.62-.73v-17.753c0 .483-.484.971-.728 1.46-1.216 1.945-2.923 3.403-4.866 3.889-1.702.488-3.65.241-5.593-.486-1.219-.728-3.892-2.185-8.028-4.863l-10.703-7.051 9.973-15.083 9.24 5.837c5.11 3.65 8.517 6.326 9.733 7.78.488.492.73.975.971 1.702v-15.81c-1.457-.728-3.65-2.188-6.323-4.131l-7.54-4.868 8.511-12.889 5.35 3.16v-13.13z"/><path fill="#007fb6" d="M618.254 450.677c-.245-3.891-4.136-6.32-6.568-7.541-11.43-3.892-23.347-.483-26.023 12.89-50.344 2.92-74.427 50.83-52.29 72.479 11.675 9.729 34.292 1.462 36.726-12.161-19.463 5.352-26.997-9.727-26.025-19.211 1.943-20.189 25.537-27.486 40.373-29.432-.244 2.92-.488 5.108-.73 8.028l-.488 11.919c.244 7.295.244 14.348.488 21.645 0 16.294-1.46 30.886-6.323 52.537-.974 4.378-2.92 9.24-5.596 13.618-9.243-4.136-17.754-8.76-24.565-9.487-6.32-.977-15.562 1.218-17.754 9.726-2.915 12.65 9.976 20.674 22.134 20.674 1.948 0 3.894 0 5.84-.486 6.323-.724 12.405-3.403 17.998-7.539 9.24 5.835 22.131 8.753 32.104 9.241 40.374 1.221 65.911-23.591 66.883-62.993 1.457-31.375-19.214-59.585-50.103-71.99-4.375-1.702-8.025-3.162-13.376-4.378-5.105-1.218-12.891-1.701-17.754-1.948 1.455-9 16.78-11.187 25.051-.486v-5.105z"/><path fill="#edd42f" d="M591.986 467.462c2.674 0 7.784.486 10.46.97 3.647.732 6.567 1.46 9.97 2.92 26.753 11.43 36.24 33.08 32.837 61.777-2.678 25.295-15.569 44.265-40.62 49.617-6.565 1.213-14.595-.244-21.404-2.435 15.08-15.563 24.807-42.56 31.133-68.83-19.456-5.108-23.833-18.482-22.62-37.454.244-2.429.244-4.863.244-6.565M550.4 588.58c-1.463 0-2.92 0-4.38-.241-2.918-.974-9.732-1.213-9.244-9.73 1.702-4.374 6.568-5.35 11.675-4.862 3.65.241 9.482 3.891 16.782 8.755-4.135 3.403-9.001 5.595-14.833 6.079"/></svg>