<svg height="1000" viewBox="0 0 999.99998 1000" width="1000" xmlns="http://www.w3.org/2000/svg" xmlns:xlink="http://www.w3.org/1999/xlink"><defs><clipPath id="a"><path d="M 0 600 H 800 V 0 H 0 Z"/></clipPath></defs><g transform="matrix(5.0666665 0 0 -5.0666665 -1013.6271 1453.1624)"><g transform="matrix(.57725879 0 0 .57725879 67.838798 14.946529)"><g clip-path="url(#a)"><g transform="translate(543.3008 250.0605)"><path d="m 0 0 c -.055 23.486 -6.529 42.465 -12.792 60.818 c -10.267 30.094 -19.134 56.085 1.874 97.582 l 3.111 6.145 l -5.06 4.671 l -42.241 38.993 l -4.48 4.136 l -5.534 -2.562 c -25.337 -11.729 -57.485 -19.921 -78.179 -19.921 c -20.693 0 -52.842 8.192 -78.179 19.921 l -5.534 2.562 l -4.48 -4.136 l -42.24 -38.993 l -5.061 -4.671 l 3.111 -6.145 c 21.009 -41.497 12.142 -67.488 1.874 -97.582 C -280.071 42.465 -286.547 23.486 -286.603 0 v -.084 l .001 -.082 c .28 -17.591 8.206 -31.411 24.23 -42.25 c 13.019 -8.809 29.45 -14.484 46.845 -20.494 c 25.703 -8.88 52.281 -18.062 64.524 -37.394 l 7.702 -12.162 l 7.701 12.162 c 12.245 19.332 38.823 28.514 64.525 37.394 c 17.395 6.01 33.826 11.687 46.846 20.494 c 16.024 10.839 23.95 24.659 24.229 42.25 l .001 .082 z" fill="#f60"/></g><g transform="translate(482.2461 453.0806)"><path d="m 0 0 l -.771 -.357 c -26.26 -12.157 -59.763 -20.648 -81.475 -20.648 c -21.711 0 -55.216 8.491 -81.476 20.648 l -.77 .357 l -.625 -.577 l -42.239 -38.992 l -.706 -.651 l .433 -.856 c 22.502 -44.447 12.69 -73.209 2.3 -103.659 c -6.057 -17.754 -12.32 -36.11 -12.372 -58.305 v -.008 l .001 -.036 c .238 -15.026 6.842 -26.424 20.779 -35.853 c 12.161 -8.228 28.115 -13.739 45.006 -19.574 c 26.985 -9.323 54.883 -18.961 68.596 -40.615 l 1.073 -1.694 l 1.072 1.694 c 13.714 21.654 41.611 31.292 68.591 40.612 c 16.893 5.836 32.849 11.349 45.013 19.577 c 13.933 9.426 20.537 20.821 20.778 35.863 v .005 v .029 c -.052 22.2 -6.314 40.554 -12.371 58.304 c -10.39 30.453 -20.202 59.215 2.3 103.66 l .433 .856 l -.706 .651 l -42.24 38.992 z" fill="#fff"/></g><g transform="translate(481.7695 450.0625)"><path d="m 0 0 c -26.442 -12.105 -59.941 -20.527 -81.77 -20.527 c -21.829 0 -55.328 8.422 -81.77 20.527 l -40.914 -37.769 c 22.425 -44.911 12.506 -73.994 2.006 -104.769 c -5.989 -17.554 -12.181 -35.704 -12.237 -57.471 l .001 -.017 c .225 -14.13 6.473 -24.867 19.663 -33.788 c 11.884 -8.041 27.684 -13.498 44.412 -19.278 c 26.721 -9.232 54.33 -18.768 68.839 -40.024 c 14.512 21.253 42.118 30.792 68.834 40.021 c 16.73 5.781 32.531 11.24 44.418 19.281 c 13.187 8.919 19.435 19.66 19.663 33.799 c -.051 21.768 -6.246 39.921 -12.237 57.477 c -10.498 30.776 -20.418 59.86 2.007 104.769 z"/></g><g transform="translate(423.4678 403.7603)"><path d="m 0 0 h 5.296 c .434 0 .762 -.093 .983 -.283 c .266 -.232 .4 -.611 .4 -1.133 c 0 -.543 -.134 -.927 -.4 -1.149 C 6.068 -2.742 5.74 -2.832 5.296 -2.832 H 0 Z m 9.195 -5.196 c .778 .589 1.165 1.849 1.165 3.78 c 0 1.922 -.394 3.184 -1.181 3.783 C 8.545 2.845 7.251 3.082 5.296 3.082 H 0 V 5.999 H -3.665 V -5.913 h 8.961 c 1.967 0 3.267 .239 3.899 .717" fill="#fff"/></g><g transform="translate(430.7529 384.6704)"><path d="m 0 0 h -6.363 v 1.865 h 6.346 C .351 1.865 .619 1.799 .791 1.666 C .964 1.533 1.05 1.273 1.05 .884 C 1.05 .295 .7 0 0 0 M 1.033 4.531 H -6.363 V 6.148 H 3.633 V 9.03 H -10.028 V -2.881 H 1.05 c 1.167 0 2.044 .266 2.633 .8 c .687 .621 1.033 1.66 1.033 3.115 c 0 1.176 -.295 2.054 -.883 2.632 c -.589 .576 -1.523 .865 -2.8 .865" fill="#fff"/></g><g transform="translate(448.2012 405.5776)"><path d="m 0 0 h -7.911 v 4.165 h -3.666 V -7.73 h 3.666 v 4.647 H 0 V -7.73 H 3.666 V 4.165 H 0 Z" fill="#fff"/></g><g transform="translate(405.0273 399.5796)"><path d="m 0 0 c .589 1.289 .884 3.655 .884 7.096 h 6.512 v -8.828 h 3.667 V 10.18 H -2.782 c 0 -4.421 -.072 -6.997 -.216 -7.731 c -.145 -.734 -.65 -1.1 -1.516 -1.1 v -3.081 h 1.732 c 1.322 0 2.25 .577 2.782 1.732" fill="#fff"/></g><g transform="translate(411.916 388.9854)"><path d="M 0 0 C -.088 -.144 -.142 -.389 -.157 -.732 C -.174 -1.078 -.2 -1.25 -.233 -1.25 c -.044 0 -.094 .096 -.15 .283 c -.123 .445 -.199 .684 -.233 .717 l -4.215 4.965 h -5.082 l 7.747 -8.465 c -.089 -.165 -.175 -.269 -.258 -.306 c -.083 -.039 -.253 -.059 -.508 -.059 h -3.982 v -3.081 h 3.799 c 1.166 0 2.077 .155 2.732 .465 c .566 .268 1.077 .74 1.532 1.417 c .123 .178 .589 .993 1.399 2.448 L 6.813 4.715 H 2.682 Z" fill="#fff"/></g><g transform="translate(487.7266 409.7593)"><path d="m 0 0 l -6.263 -8.797 c -.066 -.144 -.135 -.289 -.209 -.432 c -.072 -.146 -.145 -.217 -.224 -.217 c 0 .11 .006 .222 .015 .333 c .09 .299 .179 .605 .269 .916 V 0 h -3.666 v -11.896 h 5.997 L 2.2 -3.083 c .068 .133 .136 .275 .209 .425 c .07 .149 .148 .225 .224 .225 C 2.622 -2.544 2.616 -2.655 2.616 -2.766 C 2.427 -3.366 2.333 -3.672 2.333 -3.683 v -8.213 H 5.998 V 0 Z" fill="#fff"/></g><path d="m 471.154 397.847 h 3.665 v 11.912 h -3.665 z" fill="#fff"/><g transform="translate(465.0908 401.1953)"><path d="m 0 0 c -.212 -.177 -.539 -.267 -.983 -.267 h -5.298 v 2.832 h 5.298 C -.539 2.565 -.2 2.462 .033 2.258 C .267 2.053 .383 1.677 .383 1.133 C .383 .589 .255 .211 0 0 M 2.883 4.915 C 2.249 5.404 .961 5.647 -.983 5.647 H -6.281 V 8.564 H -9.945 V -3.348 h 8.962 c 1.955 0 3.25 .245 3.882 .734 c .767 .588 1.15 1.842 1.15 3.763 c 0 1.911 -.389 3.167 -1.166 3.766" fill="#fff"/></g><g transform="translate(380.5527 393.6846)"><path d="m 0 0 h -5.048 l -4.147 -4.166 h -1.916 V 0 h -3.665 v -11.896 h 3.665 v 4.648 h 1.916 l 4.648 -4.648 h 5.313 l -6.712 6.23 z" fill="#fff"/></g><g transform="translate(347.2803 406.6758)"><path d="M 0 0 H 5.264 V -8.829 H 8.929 V 0 h 5.248 V 3.083 H 0 Z" fill="#fff"/></g><g transform="translate(338.8037 405.043)"><path d="m 0 0 c -.087 -.143 -.141 -.389 -.157 -.731 c -.017 -.346 -.042 -.518 -.075 -.518 c -.044 0 -.094 .095 -.151 .283 c -.122 .445 -.199 .683 -.232 .717 L -4.83 4.716 h -5.081 l 7.747 -8.464 c -.09 -.167 -.176 -.269 -.259 -.307 c -.083 -.04 -.253 -.059 -.509 -.059 h -3.981 v -3.082 h 3.799 c 1.166 0 2.076 .156 2.731 .466 c .567 .268 1.078 .74 1.533 1.416 c .122 .178 .588 .994 1.4 2.449 l 4.263 7.581 h -4.13 z" fill="#fff"/></g><g transform="translate(322.6807 402.3281)"><path d="m 0 0 c -.222 -.233 -.556 -.35 -.999 -.35 h -3.332 v 3.533 h 3.332 c .443 0 .792 -.135 1.041 -.401 C .292 2.516 .417 2.061 .417 1.416 C .417 .761 .278 .289 0 0 m -7.995 -.35 h -3.333 c -.443 0 -.782 .123 -1.016 .367 c -.266 .278 -.4 .744 -.4 1.399 c 0 .655 .14 1.127 .418 1.416 c .221 .233 .555 .351 .998 .351 h 3.333 z M .218 6.265 H -4.331 V 7.431 H -7.995 V 6.265 h -4.55 c -1.153 0 -2.064 -.362 -2.731 -1.083 c -.755 -.811 -1.132 -2.034 -1.132 -3.666 c 0 -1.633 .372 -2.853 1.115 -3.664 c .667 -.724 1.584 -1.083 2.748 -1.083 h 4.55 v -1.25 h 3.664 v 1.25 h 4.549 c 1.165 0 2.082 .359 2.749 1.083 c .742 .811 1.115 2.031 1.115 3.664 C 4.082 3.16 3.705 4.387 2.95 5.198 C 2.282 5.909 1.372 6.265 .218 6.265" fill="#fff"/></g><g transform="translate(374.248 400.729)"><path d="m 0 0 h -6.363 v 1.866 h 6.345 c .367 0 .636 -.067 .809 -.2 C .963 1.532 1.05 1.272 1.05 .883 C 1.05 .295 .7 0 0 0 M 3.683 -2.082 C 4.37 -1.459 4.715 -.422 4.715 1.033 C 4.715 2.21 4.42 3.088 3.832 3.666 C 3.243 4.242 2.31 4.531 1.033 4.531 H -6.363 V 6.148 H 3.632 V 9.03 h -13.66 V -2.882 H 1.05 c 1.166 0 2.044 .266 2.633 .8" fill="#fff"/></g><g transform="translate(385.2979 385.9702)"><path d="m 0 0 c -.146 -.734 -.651 -1.1 -1.517 -1.1 v -3.081 h 1.733 c 1.322 0 2.25 .577 2.782 1.731 c .588 1.289 .883 3.656 .883 7.097 h 6.514 V -4.181 H 14.06 V 7.73 H .216 C .216 3.31 .144 .733 0 0" fill="#fff"/></g><g transform="translate(386.3154 406.4687)"><path d="m 0 0 c .35 .249 1.579 .374 3.689 .374 c 2.099 0 3.325 -.125 3.674 -.374 c .349 -.25 .525 -1.142 .525 -2.675 c 0 -1.52 -.176 -2.407 -.525 -2.656 c -.349 -.25 -1.58 -.376 -3.69 -.376 c -2.1 0 -3.323 .126 -3.673 .376 c -.351 .249 -.524 1.136 -.524 2.656 c 0 1.533 .173 2.425 .524 2.675 m 3.673 -8.788 c 3.798 0 6.074 .306 6.831 .917 c .698 .565 1.048 2.297 1.048 5.196 c 0 2.899 -.356 4.637 -1.066 5.215 C 9.73 3.151 7.46 3.457 3.673 3.457 C -.125 3.457 -2.402 3.145 -3.157 2.523 C -3.846 1.958 -4.19 .224 -4.19 -2.675 c 0 -2.11 .11 -3.493 .333 -4.148 c .289 -.855 .976 -1.41 2.066 -1.665 c .865 -.2 2.687 -.3 5.464 -.3" fill="#fff"/></g><g transform="translate(489.0098 412.0737)"><path d="M 0 0 L -5.896 -.017 V -1.649 H 0 Z" fill="#fff"/></g><g transform="translate(289.9463 220.9746)"><path d="m 0 0 c 2.108 -1.426 4.364 -2.773 6.746 -4.057 h 206.615 c 2.381 1.284 4.638 2.631 6.746 4.057 c 1.26 .853 2.431 1.72 3.543 2.601 H -3.543 C -2.431 1.72 -1.26 .853 0 0" fill="#f60"/></g><g transform="translate(281.748 227.7969)"><path d="m 0 0 c 78.836 .002 157.67 .002 236.505 0 c 1.761 1.85 3.255 3.775 4.48 5.801 C 159.162 5.803 77.341 5.803 -4.481 5.801 C -3.256 3.775 -1.762 1.85 0 0" fill="#f60"/></g><g transform="translate(519.2588 293.7451)"><path d="m 0 0 h -238.519 c -.071 -.223 -.144 -.444 -.215 -.669 H .216 C .145 -.444 .072 -.223 0 0" fill="#f60"/></g><g transform="translate(527.207 250.0889)"><path d="m 0 0 c -.003 1.196 -.031 2.382 -.074 3.558 c -84.756 .001 -169.512 .001 -254.266 0 c -.042 -1.176 -.07 -2.362 -.074 -3.558 c .003 -.181 .018 -.353 .023 -.532 c 84.788 .002 169.578 .002 254.368 0 C -.018 -.353 -.003 -.181 0 0" fill="#f60"/></g><g transform="translate(322.5107 206.0371)"><path d="m 0 0 h 154.978 c 6.709 2.393 13.121 4.832 18.994 7.513 c -64.322 0 -128.644 .001 -192.965 0 C -13.121 4.832 -6.708 2.393 0 0" fill="#f60"/></g><g transform="translate(274.8262 238.6768)"><path d="m 0 0 c 83.45 .001 166.898 .001 250.349 0 c .586 1.587 1.055 3.229 1.384 4.945 C 167.361 4.946 82.988 4.946 -1.386 4.945 C -1.057 3.229 -.588 1.587 0 0" fill="#f60"/></g><g transform="translate(333.0293 202.3623)"><path d="m 0 0 c 25.015 -8.642 50.781 -17.544 66.971 -36.104 c 16.188 18.56 41.956 27.462 66.97 36.104 c 1.125 .389 2.245 .776 3.361 1.163 H -3.36 C -2.245 .776 -1.125 .389 0 0" fill="#f60"/></g><g transform="translate(526.3174 263.6719)"><path d="m 0 0 h -252.634 c -.134 -1.07 -.255 -2.148 -.36 -3.235 c 84.452 .001 168.902 .001 253.353 0 C .254 -2.148 .133 -1.07 0 0" fill="#f60"/></g><g transform="translate(522.2471 283.7207)"><path d="m 0 0 h -244.494 c -.139 -.508 -.277 -1.014 -.412 -1.523 H .411 C .277 -1.014 .139 -.508 0 0" fill="#f60"/></g><g transform="translate(524.6553 273.6963)"><path d="m 0 0 h -249.311 c -.163 -.79 -.319 -1.583 -.468 -2.38 H .469 C .319 -1.583 .163 -.79 0 0" fill="#f60"/></g><g transform="translate(446.0088 250.1787)"><path d="m 0 0 c -2.99 12.673 -10.871 22.962 -21.172 29.333 c -10.299 6.37 -23.016 8.826 -35.685 5.836 c -12.671 -2.99 -22.957 -10.876 -29.328 -21.182 c -6.37 -10.306 -8.825 -23.033 -5.835 -35.705 c 2.988 -12.658 10.874 -22.937 21.18 -29.304 c 10.305 -6.366 23.029 -8.82 35.7 -5.829 c 12.667 2.99 22.944 10.87 29.308 21.166 C .536 -25.383 2.988 -12.661 0 0"/></g><g transform="translate(433.7324 261.9053)"><path d="m 0 0 c 1.131 -2.163 2.111 -4.346 2.974 -6.558 c .97 -2.486 1.79 -5.005 2.505 -7.57 c -.942 -6.598 -4.051 -11.221 -7.489 -14.644 c -2.37 .281 -4.921 .761 -7.425 1.367 c -2.412 .582 -4.782 1.282 -6.907 2.035 c -1.357 6.989 -3.137 11.679 -7.423 20.339 c 1.325 2.076 2.896 4.419 4.39 6.454 c .915 1.244 1.865 2.473 2.854 3.674 C -10.917 4.381 -5.038 3.247 0 0" fill="#fff"/></g><g transform="translate(389.3066 284.6943)"><path d="m 0 0 c 9.316 2.198 18.657 1.408 27.016 -1.741 c -3.335 -.314 -6.025 -1.316 -9.226 -2.403 c -2.909 .434 -6.192 .888 -9.021 1.041 c -3.32 .18 -6.538 .067 -9.535 -.576 c -2.377 .682 -4.577 1.039 -6.743 1.207 C -5.115 -1.456 -2.613 -.616 0 0" fill="#fff"/></g><g transform="translate(388.8877 280.7305)"><path d="m 0 0 c 2.885 .584 5.978 .685 9.169 .512 c 3.026 -.164 6.139 -.573 9.247 -1.045 c 5.457 -3.754 7.788 -8.692 9.592 -13.03 c -.976 -1.187 -1.914 -2.402 -2.819 -3.632 c -1.487 -2.026 -3.049 -4.352 -4.369 -6.424 c -1.992 .535 -11.743 1.068 -20.649 -1.346 c -.041 -.051 -.021 -.025 0 0 c -1.374 1.563 -2.956 2.84 -4.242 4.425 c -1.817 2.237 -3.531 4.497 -5.103 6.79 C -7.047 -8.445 -4.455 -4.062 0 0" fill="#fff"/></g><g transform="translate(353.4785 236.7656)"><path d="m 0 0 c -.531 9.697 2.004 19.104 6.915 27.047 c .758 1.228 1.576 2.419 2.445 3.572 c .014 -2.553 .3 -5.032 .874 -7.312 C 8.685 20.753 7.437 18.018 6.502 15.262 C 5.449 12.154 4.794 9.018 4.553 6.084 C 2.173 3.848 .884 2.134 0 0" fill="#fff"/></g><g transform="translate(360.3115 251.916)"><path d="m 0 0 c .899 2.652 2.092 5.284 3.564 7.75 c 5.165 4.313 10.586 6.691 15.445 7.271 c 1.607 -2.355 3.363 -4.673 5.224 -6.965 c 1.301 -1.604 2.9 -2.9 4.292 -4.483 C 23.854 -2.293 23.221 -8.609 21.75 -15.852 L 9.749 -23.25 C 5.759 -19.24 .071 -14.706 -1.932 -9.092 C -1.693 -6.186 -1.044 -3.08 0 0" fill="#fff"/></g><g transform="translate(375.5225 199.7246)"><path d="m 0 0 c -5.403 3.338 -10.121 7.776 -13.808 13.068 c 2.477 -.968 5.324 -1.673 8.035 -1.537 c 1.913 -2.717 4.211 -4.969 6.775 -6.804 c 2.92 -2.091 6.185 -3.64 9.611 -4.715 c 1.529 -2.283 3.501 -4.385 5.748 -6.271 C 10.526 -5.213 4.976 -3.072 0 0" fill="#fff"/></g><g transform="translate(401.0811 208.0762)"><path d="m 0 0 c -4.481 -3.441 -9.468 -6.562 -15.302 -7.793 c .018 -.027 .035 -.055 .054 -.083 c -3.242 1.058 -6.33 2.55 -9.105 4.536 c -2.629 1.883 -4.976 4.209 -6.906 7.028 c -1.452 6.556 -.754 11.945 .345 16.557 l 11.994 7.394 C -14.296 21.937 -8.243 17.352 -.273 14.193 C -.012 11.881 .238 9.077 .282 6.792 C .325 4.562 .247 2.303 0 0" fill="#fff"/></g><g transform="translate(401.7119 214.876)"><path d="m 0 0 c -.045 2.317 -.298 5.155 -.563 7.483 c 6.711 4.913 13.886 10.185 16.197 13.822 c 2.117 -.747 4.472 -1.441 6.87 -2.021 c 2.519 -.609 5.086 -1.092 7.468 -1.374 C 31.767 12.566 31.868 6.823 31.177 .895 C 30.804 .547 30.412 .181 30.023 -.183 C 25.433 -4.478 21.047 -8.581 15.191 -11.821 C 8.476 -13.071 4.154 -8.79 -.257 -6.59 C -.029 -4.356 .042 -2.163 0 0" fill="#fff"/></g><g transform="translate(439.6084 214.8477)"><path d="m 0 0 c -6.274 -10.15 -16.405 -17.92 -28.895 -20.867 c -.97 -.229 -1.941 -.414 -2.911 -.58 l .655 .363 c 4.511 3.469 5.627 4.849 8.514 8.932 c 5.944 3.267 10.369 7.408 15.002 11.742 c .409 .383 .821 .767 1.267 1.183 C -3.73 .981 -1.131 1.662 1.48 2.6 C 1.012 1.719 .524 .848 0 0" fill="#fff"/></g><g transform="translate(439.4424 248.2451)"><path d="m 0 0 c -.692 2.45 -1.483 4.857 -2.409 7.231 c -.918 2.35 -1.968 4.669 -3.189 6.967 c .055 3.653 -.916 7.617 -2.366 11.207 C -1.29 19.304 3.688 11.212 5.914 1.778 C 6.887 -2.345 7.263 -6.474 7.12 -10.522 C 5.223 -6.503 2.579 -3.541 0 0" fill="#fff"/></g><g transform="translate(417.3086 236.1279)"><path d="M 0 0 C .311 -.081 .624 -.171 .936 -.251 C .635 -.149 .329 -.05 .037 .053 C .025 .036 .011 .017 0 0" fill="#e6e6e6"/></g><g transform="translate(417.3906 236.5352)"><path d="M 0 0 C 2.125 -.753 4.495 -1.453 6.907 -2.035 C 9.286 -2.611 11.702 -3.066 13.969 -3.353 C 7.032 -.262 2.707 2.461 -1.577 6.447 C -.954 4.398 -.452 2.327 0 0" fill="#e6e6e6"/></g><g transform="translate(401.334 211.6152)"><path d="M 0 0 C .041 1.092 .05 2.176 .029 3.253 C .01 4.257 -.051 5.361 -.133 6.479 C -.018 4.207 .042 2.094 0 0" fill="#e6e6e6"/></g><g transform="translate(369.9111 227.1895)"><path d="m 0 0 c -.94 -4.357 -1.425 -9.397 -.089 -15.426 c 1.93 -2.818 4.276 -5.144 6.906 -7.027 c 2.775 -1.986 5.863 -3.479 9.105 -4.536 c -.019 .028 -.036 .055 -.054 .083 c 5.486 1.157 10.223 3.986 14.496 7.181 C 11.387 -25.386 1.798 -12.438 0 0" fill="#e6e6e6"/></g><g transform="translate(401.4502 219.3613)"><path d="m 0 0 c .133 -1.535 .235 -3.102 .262 -4.485 c .042 -2.163 -.03 -4.357 -.257 -6.59 c 3.931 -1.961 7.796 -5.564 13.343 -5.442 C 6.793 -15.111 1.857 -9.253 0 0" fill="#e6e6e6"/></g><g transform="translate(416.876 202.5605)"><path d="M 0 0 C -2.815 -3.975 -3.958 -5.367 -8.419 -8.797 L -9.073 -9.16 c .969 .166 1.94 .351 2.911 .58 c 12.489 2.947 22.62 10.717 28.894 20.867 c .076 .121 .144 .244 .217 .366 C 14.824 3.427 6.718 -.467 0 0" fill="#e6e6e6"/></g><g transform="translate(388.8369 255.4893)"><path d="M 0 0 C -.949 1.079 -1.99 2.028 -2.972 3.028 C -2.065 1.92 -1.145 .818 -.213 -.283 C -.141 -.188 -.075 -.094 0 0" fill="#e6e6e6"/></g><g transform="translate(410.2334 256.4902)"><path d="m 0 0 l -.078 .003 c .003 -.009 .008 -.017 .013 -.025 z" fill="#e6e6e6"/></g><g transform="translate(363.7129 260.0723)"><path d="M 0 0 C -.574 2.28 -.86 4.76 -.874 7.312 C -1.743 6.159 -2.562 4.969 -3.319 3.74 c -4.911 -7.943 -7.447 -17.349 -6.915 -27.047 c .883 2.134 2.172 3.848 4.552 6.084 c .242 2.934 .897 6.071 1.95 9.178 C -2.798 -5.289 -1.55 -2.554 0 0" fill="#e6e6e6"/></g><g transform="translate(360.3115 251.916)"><path d="M 0 0 C -1.044 -3.08 -1.693 -6.186 -1.932 -9.092 C -.177 -14.009 4.402 -18.098 8.193 -21.73 C .817 -11.898 .159 .997 4.244 8.301 C 4.018 8.119 3.791 7.939 3.564 7.75 C 2.092 5.284 .899 2.652 0 0" fill="#e6e6e6"/></g><g transform="translate(386.1357 199.7363)"><path d="m 0 0 c -3.427 1.075 -6.691 2.624 -9.611 4.715 c -2.564 1.836 -4.863 4.088 -6.776 6.805 c -2.711 -.137 -5.557 .568 -8.034 1.537 c 3.687 -5.292 8.404 -9.731 13.808 -13.069 C -5.638 -3.084 -.087 -5.225 5.748 -6.271 C 3.501 -4.385 1.528 -2.282 0 0" fill="#e6e6e6"/></g><g transform="translate(384.8164 260.1904)"><path d="m 0 0 c 1.286 -1.585 2.868 -2.862 4.242 -4.425 c -.02 -.025 -.041 -.051 0 0 c 2.392 .648 4.843 1.082 7.19 1.362 L 9.99 -2.997 C 4.139 -.513 -.832 3.274 -5.015 7.005 C -5.044 6.933 -5.074 6.862 -5.103 6.79 C -3.53 4.497 -1.816 2.237 0 0" fill="#e6e6e6"/></g><g transform="translate(319.7129 269.1602)"><path d="m 0 0 c -4.068 0 -7.797 .533 -11.091 1.609 l -.871 .287 l -4.804 1.577 l -.192 35.898 l 1.06 -.83 l -1.225 2.334 l -.036 .071 l -.024 .046 l -.173 .347 h -.225 h -7.02 V 66.986 H 23.628 V 80.343 H 50.699 C 60.731 80.326 67.873 78.97 73.1 75.894 C 75.269 74.62 77.134 73 78.66 71.091 l .59 1.884 h -1.63 v 25.648 h 42.443 l 4.404 -15.992 l 4.674 -1.158 l .337 -.083 c .198 1.69 .4 4.533 .442 9.161 h -5.689 v 25.646 h 60.871 V 90.551 h -4.499 V 76.055 h 4.569 V 50.41 h -39.498 v 1.601 c -2.673 -1.611 -5.765 -2.55 -9.082 -2.753 V 32.832 H 68.553 v 1.421 C 67.486 33.918 66.357 33.627 65.164 33.378 V 14.555 H 23.628 v 3.254 C 21.107 12.278 18.689 8.432 16.044 5.794 L 16.019 5.768 L 15.994 5.742 C 12.083 1.904 6.64 0 .04 0 Z" fill="#ff8000"/></g><g transform="translate(497.7734 362.2515)"><path d="M 0 0 H 4.499 V 20.564 H -51.288 V 0 h 5.698 l -.004 -1.273 c -.018 -7.151 -.388 -10.576 -.683 -12.223 l -.241 -1.321 l -1.304 .312 c -.065 .014 -.108 .026 -.143 .033 l -1.564 .388 l -6.118 1.516 l -4.285 15.558 H -97.9 v -20.565 h 2.546 l -3.236 -10.346 l -1.458 2.414 c -1.529 2.528 -3.599 4.589 -6.203 6.119 c -4.601 2.725 -11.295 4.091 -21.112 4.098 h -24.528 v -13.356 l -48.229 .001 v -20.566 h 4.478 h 1.796 l .875 -1.752 l .01 -.02 l .027 -.049 l 6.72 -12.81 l -6.235 4.884 l .155 -28.819 l 3.065 -1.006 l .869 -.285 c 2.988 -.975 6.452 -1.482 10.299 -1.481 c 6.16 .007 10.846 1.721 14.207 5.007 l .004 .003 l .029 .03 c 3.063 3.035 6.089 8.336 9.476 16.97 l 2.454 6.236 v -13.693 h 36.453 v 18.386 l 1.041 .192 c 2.139 .392 4.034 .91 5.704 1.55 l 1.724 .662 v -1.849 v -.664 h 62.959 v 16.378 l 1.264 .007 c 4.191 .026 7.905 1.315 10.831 3.68 l 2.069 1.67 v -4.158 H 4.57 v 20.564 H 1.271 H 0 Z"/></g><g transform="translate(494.8389 338.1953)"><path d="m 0 0 c -.749 -.008 -1.204 .133 -1.35 .215 c -.064 .11 -.203 .642 -.193 1.467 v 25.169 c 0 .437 .018 .783 .046 1.015 c .013 .115 .028 .201 .039 .248 l -.004 .001 c .052 .092 .091 .145 .297 .242 c .209 .095 .601 .179 1.165 .177 H 2.957 V 40.143 H -43.874 V 28.534 h 3.871 c .667 .004 1.15 -.072 1.396 -.155 c .079 -.026 .131 -.051 .16 -.067 c .119 -.3 .28 -1.271 .267 -2.655 v -2.32 c .001 -6.798 -.313 -11.597 -.883 -14.215 c -.371 -1.728 -.923 -2.924 -1.515 -3.605 c -.607 -.675 -1.162 -.928 -2.026 -.947 c -.182 -.005 -.792 .073 -1.638 .254 c -.882 .185 -1.509 .326 -1.854 .411 l -1.575 .39 v -16.396 l .701 -.351 c 1.502 -.753 3.005 -1.265 4.499 -1.524 c .725 -.109 1.533 -.158 2.468 -.158 h .082 c 4.093 0 7.539 1.52 9.904 4.479 c 1.93 2.355 3.233 5.711 4.057 10.053 c 1.153 6.055 1.735 14.685 1.776 25.963 h 5.408 V 1.612 C -18.774 1.053 -18.847 .649 -18.93 .426 C -19.017 .198 -19.072 .174 -19.087 .163 C -19.093 .141 -19.54 -.014 -20.319 0 h -.842 h -1.272 v -11.608 h 25.46 v 1.27 L 3.027 0 Z" fill="#ff8000"/></g><g transform="translate(423.0703 333.978)"><path d="m 0 0 h -5.187 l 2.705 8.866 z m -50.344 -13.107 v 9.117 c 1.652 -.12 2.892 -.483 3.725 -.999 c .853 -.538 1.374 -1.472 1.397 -3.452 c -.015 -1.941 -.52 -2.97 -1.344 -3.584 c -.723 -.543 -1.981 -.955 -3.778 -1.082 m 72.576 .696 c -.119 .26 -.382 1.074 -.701 2.261 L 11.36 26.785 H -18.718 V 15.176 h 2.466 c .605 0 1.089 -.02 1.428 -.054 c .066 -.007 .125 -.015 .179 -.022 c -.081 -.351 -.227 -.908 -.434 -1.598 l -6.816 -21.776 c -.72 -2.381 -1.403 -3.952 -1.782 -4.447 c -.287 -.374 -.681 -.618 -1.715 -.638 h -1.758 c .244 1.251 .362 2.588 .358 4.004 c .033 6.583 -2.308 11.609 -7.021 14.378 c -4.072 2.404 -10.31 3.472 -18.854 3.482 H -72.71 V -3.103 h 3.943 c .481 .001 .829 -.052 .991 -.103 c .015 -.005 .03 -.01 .041 -.014 c .067 -.193 .168 -.669 .158 -1.355 v -25.592 c .001 -.526 -.055 -.921 -.124 -1.152 c -.034 -.116 -.07 -.188 -.091 -.224 c -.001 -.001 -.002 -.003 -.003 -.004 c -.118 -.036 -.473 -.096 -.972 -.09 h -3.943 v -11.609 h 27.498 v 11.609 h -3.871 c -.432 -.002 -.767 .033 -.977 .076 c -.066 .015 -.119 .029 -.159 .042 c -.053 .199 -.135 .685 -.125 1.352 v 4.577 c 8.995 .135 15.238 1.48 18.883 4.507 c 1.686 1.426 2.905 3.243 3.675 5.389 v -9.274 h 21.38 v 11.609 h -1.973 c -.341 .001 -.567 .061 -.732 .143 c -.013 .044 -.029 .124 -.035 .243 c .037 .194 .077 .364 .121 .509 c .001 .004 .001 .007 .003 .01 H 3.549 c .057 -.222 .121 -.455 .19 -.7 c .014 -.069 .024 -.131 .031 -.185 c -.17 -.014 -.38 -.023 -.619 -.02 H .195 v -11.609 h 26.021 v 1.27 v 10.339 h -2.324 c -1.021 .056 -1.283 .251 -1.66 .948" fill="#ff8000"/></g><g transform="translate(351.7754 317.5176)"><path d="M 0 0 V 1.27 V 11.61 H -20.89 V 0 h 2.115 c .319 0 .587 -.011 .788 -.027 c -.034 -.135 -.082 -.315 -.145 -.527 c -.153 -.53 -.371 -1.19 -.647 -1.972 l -2.295 -6.154 l -3.744 7.23 c -.096 .189 -.249 .487 -.463 .888 c -.107 .203 -.154 .373 -.166 .549 c .081 .008 .173 .013 .274 .013 h .844 h 1.269 V 11.61 H -49.644 V 0 h 2.817 c 1.139 -.036 1.784 -.39 2.479 -1.466 c .46 -.918 .917 -1.835 1.377 -2.753 l 11.037 -21.045 c -.334 -.625 -.687 -.966 -1.007 -1.134 c -.493 -.266 -1.272 -.449 -2.357 -.449 c -.536 .001 -1.069 .076 -1.618 .234 c -1.003 .28 -1.975 .78 -2.94 1.535 l -2.067 1.619 l .088 -16.336 l .871 -.285 c 2.595 -.848 5.564 -1.259 8.901 -1.259 h .028 c 4.682 0 8.453 1.189 11.055 3.738 c 3.098 3.081 6.186 9.182 9.653 18.537 l 5.272 14.197 c .42 1.166 .88 2.456 1.387 3.882 c .126 .221 .335 .425 .849 .631 c .545 .211 1.406 .357 2.549 .354 z" fill="#ff8000"/></g><g transform="translate(414.4521 331.438)"><path d="M 0 0 L 5.062 16.6 H 7.318 L 11.516 1.612 L 11.967 0 Z m 28.536 -10.917 c -.25 .57 -.5 1.397 -.838 2.639 L 18.044 26.785 H -7.561 v -6.53 c 1.306 -.024 2.082 -.03 2.89 -.365 c .648 -.245 1.303 -1.068 1.259 -1.89 c -.029 -.689 -.234 -1.342 -.62 -2.698 L -10.85 -6.486 c -.779 -2.497 -1.409 -4.138 -2.153 -5.19 c -.813 -1.136 -2.178 -1.667 -3.625 -1.683 v -6.529 h 16.301 v 6.56 c -.537 .064 -1.055 .223 -1.519 .495 c -.931 .549 -1.243 1.603 -1.222 2.502 v .11 l .017 .102 c .055 .323 .122 .631 .212 .927 c .061 .204 .14 .494 .23 .859 l .242 .959 h 16.583 l .205 -1.02 c .084 -.422 .218 -.955 .398 -1.588 l .014 -.052 l .01 -.047 c .059 -.299 .095 -.589 .095 -.883 c -.003 -.393 -.043 -.782 -.232 -1.203 c -.175 -.415 -.613 -.852 -1.123 -.995 c -.54 -.16 -1.091 -.192 -1.813 -.197 h -.417 v -6.529 h 20.941 v 6.527 c -1.619 .027 -3.125 .944 -3.758 2.444" fill="#fff"/></g><g transform="translate(333.4258 320.0464)"><path d="M 0 0 C .741 -.019 1.26 -.047 1.906 -.356 C 2.747 -.823 2.97 -1.735 2.952 -2.385 C 2.929 -2.902 2.825 -3.164 2.656 -3.792 C 2.484 -4.39 2.253 -5.089 1.958 -5.92 L -2.346 -17.464 L -8.734 -5.13 c -.083 .169 -.234 .458 -.442 .851 c -.3 .562 -.466 1.191 -.465 1.823 c .004 .396 .046 .786 .226 1.197 c .17 .407 .563 .836 1.046 1.009 c .359 .137 .733 .213 1.119 .244 l -.001 6.547 h -21.503 v -6.53 h .276 c 1.944 .036 3.689 -1.01 4.675 -2.725 l .024 -.037 l .023 -.049 c .47 -.938 .938 -1.875 1.397 -2.789 l 11.594 -22.112 l -.228 -.551 c -.538 -1.288 -1.305 -2.328 -2.405 -2.917 c -1.007 -.533 -2.196 -.745 -3.55 -.747 c -.776 0 -1.554 .112 -2.31 .329 c -.596 .166 -1.18 .392 -1.749 .671 l .053 -9.54 c 2.087 -.574 4.501 -.872 7.241 -.872 c 4.302 .005 7.319 1.068 9.303 3.01 c 2.527 2.453 5.673 8.399 9.05 17.606 l 5.269 14.19 c .42 1.168 .889 2.479 1.404 3.93 l .024 .068 l .028 .058 c .441 .929 1.283 1.59 2.253 1.953 c .654 .249 1.381 .399 2.193 .471 V 6.541 H 0 Z" fill="#fff"/></g><g transform="translate(378.0088 319.9067)"><path d="m 0 0 c -1.603 -1.162 -3.788 -1.609 -6.552 -1.617 h -1.27 v 14.28 h 1.27 C -3.978 12.66 -1.867 12.245 -.229 11.246 C 1.59 10.142 2.404 8.052 2.38 5.63 C 2.396 3.258 1.662 1.216 0 0 M 9.952 16.912 C 6.62 18.914 .718 20.048 -7.605 20.037 h -17.503 v -6.529 h 1.403 c 1.236 -.039 2.355 -.105 3.157 -1.241 c .467 -.804 .56 -1.675 .572 -2.771 v -25.591 c -.022 -1.352 -.185 -2.521 -1.162 -3.367 c -.811 -.604 -1.564 -.612 -2.567 -.643 h -1.403 v -6.53 H -2.69 v 6.53 h -1.331 c -1.101 .022 -1.97 .085 -2.797 .7 c -.538 .451 -.712 .978 -.841 1.5 c -.119 .53 -.163 1.118 -.163 1.81 v 7.105 h 1.27 c 9.442 -.023 15.673 1.464 18.509 3.916 c 2.472 2.111 3.759 5.241 3.772 9.79 c -.033 6.069 -1.956 9.901 -5.777 12.196" fill="#fff"/></g><g transform="translate(491.9414 336.3955)"><path d="M 0 0 C -1.077 .903 -1.142 2.056 -1.185 3.482 V 28.65 c .025 1.025 .011 1.648 .345 2.396 c .32 .658 .907 1.166 1.561 1.442 c .661 .283 1.38 .385 2.176 .386 h .416 v 6.528 h -41.751 v -6.528 h 1.333 c .832 -.001 1.542 -.074 2.19 -.282 c .628 -.204 1.284 -.605 1.626 -1.317 c .441 -.977 .53 -2.138 .546 -3.818 v -2.32 C -32.745 18.25 -33.04 13.391 -33.685 10.385 C -34.114 8.411 -34.758 6.83 -35.757 5.66 C -36.745 4.484 -38.18 3.813 -39.706 3.83 c -.569 .005 -1.227 .114 -2.162 .308 c -.127 .027 -.249 .052 -.365 .077 V -7.383 c 1.059 -.47 2.087 -.785 3.069 -.956 c .518 -.079 1.214 -.126 2.059 -.126 c 3.555 .021 6.079 1.173 8.017 3.545 c 1.533 1.855 2.76 4.825 3.53 8.921 c 1.146 5.997 1.736 14.948 1.735 26.759 v 1.271 h 10.484 V 3.412 c -.005 -1.458 -.302 -2.821 -1.513 -3.608 c -.652 -.387 -1.333 -.5 -2.143 -.533 V -7.268 H 3.384 V -.74 H 2.897 C 1.777 -.73 .821 -.586 0 0" fill="#fff"/></g></g></g></g></svg>