<svg xmlns="http://www.w3.org/2000/svg" width="1000" height="1000" viewBox="0 0 1000 1000"><path d="M338.943 0h338.684v536.361c0 99.472-25.031 186.366-126.406 247.218-68.855 41.287-147.618 75.969-212.28 166.421-64.79-90.452-143.556-125.134-212.41-166.421C25.15 722.724 0 635.833 0 536.36V0Z"/><path fill="#fff" d="M153.461 366.509c16.01-10.925 29.856-25.536 33.032-36.336 3.938 12.324-3.179 38.111-11.564 47.643-4.315-1.144-15.367-10.546-21.468-11.307m-92.61-162.23c-18.548 10.419-25.028 36.336-4.954 52.722 13.844 11.182 56.023 2.922 65.042 46.75 5.082 24.644 67.712 36.079 47.133-22.23-3.686-19.438-14.865-61.996 8.892-73.051l3.938.13c21.722 14.226 22.104 31.251 16.386 70.758-17.277 44.08 43.317 58.946 53.608 22.865 4.831-17.15 6.989-35.061 37.351-45.224 34.173-18.546 8.895-56.025-20.963-51.833-21.343 1.529-56.022 9.911-70.126-14.353v-6.35c13.594-24.774 49.8-10.29 70.763-5.082 7.746 6.987 36.078 11.69 43.195-5.211 3.049-7.24 2.54-34.934-11.437-43.068-27.31-17.277-43.575-4.572-61.107-59.708-19.437-33.156-61.104-13.084-49.927 29.221 2.033 10.164 12.703 58.947-10.927 61.741-18.543 0-21.722-14.1-19.053-33.159 2.537-19.055 10.925-51.45-2.162-67.711-11.305-14.226-35.187-20.326-42.683 4.32-8.258 44.973-37.094 41.162-55.518 53.355-8.51 6.987-13.34 17.408-12.068 25.918-1.142 16.26 14.225 30.49 33.538 24.389 25.41-3.81 76.476-7.873 78.13 17.914-.256 18.294-24.263 18.166-47.64 15.879-16.76-1.648-33.531-8-49.41 1.019M554.013 400.302V15.627h107.605v384.675zm-215.2 0V15.627h107.478v384.675ZM15.88 520.864V400.302h107.602v360.79c-56.28-33.286-88.167-88.667-101.252-145.46-7.366-31.886-6.225-60.47-6.35-94.768M231.084 825.12V400.302h107.73v521.753c-27.823-35.192-56.153-63.524-107.73-96.935"/><path fill="#fff" stroke="#000" stroke-miterlimit="1" stroke-width=".16047108" d="M433.354 705.432c-1.977 1.536-4.048 2.7-6.022 3.451-1.994.734-4.86 1.253-6.874 1.253-5.416 0-9.593-2.853-12.413-6.549-3.917-5.137-4.264-9.737-4.269-15.733V668.11c-.005-5.416 1.44-11.063 4.794-15.416 3.434-4.906 10.454-9.116 18.467-9.116 3.925 0 6.977.932 9.9 2.274 4.056 1.855 7.11 4.585 9.242 7.915 2.567 4.019 3.785 8.912 3.785 14.18l-.03 50.614c-.108 5.181-.202 9.93-2.808 14.509-1.862 3.255-4.605 6.136-7.504 7.995-3.7 2.385-8.22 3.905-13.464 3.722-6.49-.191-12.593-3.306-16.286-7.563-4.101-4.567-6.167-10.086-6.012-18.01l16.251-.047c-.018 5.538 1.7 9.203 6.38 9.285 2.168 0 4.58-1.337 5.5-3.722.92-2.379 1.368-6.51 1.368-12.384l-.008-4.129v-2.786z"/><path stroke="#000" stroke-miterlimit="1" stroke-width=".16047108" d="M426.78 659.758c3.563 0 6.477 2.92 6.477 6.48v21.34c0 3.559-2.914 6.483-6.477 6.483-3.561 0-6.64-2.922-6.64-6.482v-21.34c0-3.559 3.079-6.48 6.64-6.48z"/><path fill="#fff" stroke="#000" stroke-miterlimit="1" stroke-width=".16047108" d="M379.95 742.607V674.81h-13.11v-13.788c7.825-3.767 13.655-9.13 18.296-16.078h12.374v97.663zM474.134 557.594c.586-9.49 4.19-17.634 12.524-22.326 3.742-2.106 8.202-3.148 13.386-3.148 5.28 0 9.74 1.044 13.37 3.115 8.28 4.743 11.903 13.597 12.478 22.507l.028 51.835c-.672 8.698-4.666 17.713-12.476 22.229-3.713 2.14-8.189 3.217-13.4 3.217-5.26 0-9.72-1.042-13.414-3.146-8.599-4.913-11.691-14.19-12.47-23.525z"/><path stroke="#000" stroke-miterlimit="1" stroke-width=".16047108" d="M507.757 599.666v-32.191c0-10.808-.563-11.111-1.7-13.72-1.12-2.608-3.163-3.914-6.113-3.914-2.89 0-4.89 1.32-6.003 3.945-1.103 2.65-1.664 2.654-1.664 13.409v33.031c0 10.622.56 10.614 1.664 13.304 1.113 2.697 3.138 4.05 6.095 4.05 2.927 0 4.947-1.325 6.052-3.95 1.106-2.642 1.669-3.208 1.669-13.964z"/><path fill="#fff" stroke="#000" stroke-miterlimit="1" stroke-width=".16047108" d="M599.533 424.418v98.191h-17.315l-18.149-49.723-.023 49.723h-17.333v-98.19h17.366l18.243 50.614-.046-50.615ZM469.215 522.609v-98.19h20.064c7.273 0 12.655.792 16.124 2.368 7.822 3.554 11.342 12.143 11.91 19.911l.031 53.748c-.492 7.884-4.162 16.144-12.048 19.743-3.528 1.618-8.874 2.42-16.017 2.42z"/><path stroke="#000" stroke-miterlimit="1" stroke-width=".16047108" d="M486.536 441.423v64.049l1.302.132h1.923c2.725 0 4.985-.835 6.684-2.272 2.48-2.101 3.762-5.476 3.535-9.376v-42.331c.122-4.007-1.681-6.992-4.447-8.666-1.656-1.003-3.714-1.536-6.004-1.536h-1.88z"/><path fill="#fff" stroke="#000" stroke-miterlimit="1" stroke-width=".16047108" d="M522.67 424.418h18.37v98.191h-18.37ZM448.726 424.418h18.61l-19.147 57.233v40.958h-18.38v-40.795l-19.374-57.396h18.405l9.911 31.063ZM402.757 504.29H387.8l-2.363 18.803H366.84l16.872-98.188h22.902l16.961 98.188h-18.439ZM366.853 599.393h16.075l.007 4.552c.008 4.893.698 13.041 7.31 13.041 1.99 0 4.67-.827 5.81-2.48 1.157-1.661 1.725-3.964 1.725-6.888 0-4.72-2.639-10.262-8.125-14.82l-2.086-1.729-.89-.703c-7.684-6.024-11.714-10.316-13.53-13.467-1.32-2.285-3.4-4.96-4.114-8.01-.703-3.04-1.342-5.747-1.342-9.224 0-8.505 2.043-15.227 6.118-20.158 4.07-4.929 9.657-7.392 16.733-7.392 7.738 0 13.655 2.397 17.73 7.198 5.744 6.788 6.119 15.612 6.119 24.04h-16.776c0-3.71-.076-7.57-1.75-10.968-1.085-2.205-2.661-3.314-4.745-3.314-1.775 0-3.19.782-4.277 2.364-1.08 1.57-1.615 3.61-1.615 6.124 0 4.157 2.884 9.562 8.885 14.363l2.552 2.035 2.028 1.605c6.495 5.107 10.756 10.454 12.608 13.981 1.123 2.117 1.984 4.361 2.61 7.28.628 2.906.936 5.515.936 8.908 0 9.778-1.811 15.95-5.978 21.289-4.168 5.336-10.136 7.995-17.89 7.995-9.327 0-15.132-3.871-18.858-9.552-3.61-5.507-5.283-12.687-5.283-20.723zM421.13 632.654V534.47h16.906c21.408 0 29.404 10.433 30.02 29.763-.797 17.39-7.878 30.8-29.608 30.8v37.622z"/><path stroke="#000" stroke-miterlimit="1" stroke-width=".16047108" d="m438.45 576.802.933.135h1.58c3.795 0 6.52-1.08 8.163-3.217 1.65-2.14 2.483-6.378 2.483-11.128q.001-5.845-2.687-8.487c-1.785-1.76-4.743-2.644-8.859-2.644h-1.612z"/><path fill="#fff" stroke="#000" stroke-miterlimit="1" stroke-width=".16047108" d="M533.394 632.787V534.6h16.905c21.412 0 29.405 10.428 30.026 29.764-.542 11.87-4.024 21.887-13.085 27.053l16.475 41.236h-18.477l-13.729-37.492c-.27 0-.527.005-.795.005v37.622h-17.32z"/><path stroke="#000" stroke-miterlimit="1" stroke-width=".16047108" d="m550.712 576.937.937.128h1.574c3.796 0 6.524-1.078 8.17-3.212 1.65-2.14 2.485-6.378 2.485-11.129 0-3.902-.899-6.722-2.692-8.487-1.786-1.763-4.74-2.644-8.854-2.644h-1.618v25.344z"/><path fill="#fff" stroke="#000" stroke-miterlimit="1" stroke-width=".16047108" d="M471.13 683.113c1.977-1.536 4.048-2.7 6.022-3.451 1.995-.739 4.865-1.253 6.88-1.253 5.41 0 9.588 2.855 12.407 6.551 3.918 5.138 4.27 9.738 4.27 15.734v19.745c.007 5.41-1.44 11.06-4.787 15.413-3.44 4.909-10.458 9.12-18.477 9.12-3.922 0-6.971-.938-9.9-2.275-4.056-1.855-7.107-4.588-9.242-7.917-2.567-4.02-3.785-8.905-3.785-14.177l.036-50.613c.102-5.18.199-9.928 2.807-14.51 1.86-3.254 4.603-6.134 7.499-7.996 3.706-2.382 8.22-3.9 13.464-3.72 6.495.192 12.593 3.31 16.287 7.566 4.106 4.564 6.171 10.087 6.01 18.01l-16.25.044c.018-5.537-1.699-9.198-6.376-9.282-2.167 0-4.58 1.338-5.499 3.72-.922 2.383-1.37 6.517-1.37 12.389l.012 4.129z"/><path stroke="#000" stroke-miterlimit="1" stroke-width=".16047108" d="M477.705 728.784c-3.563 0-6.477-2.914-6.477-6.483v-21.335c0-3.555 2.919-6.48 6.477-6.48 3.566 0 6.646 2.914 6.646 6.48v21.335c.002 3.564-3.085 6.483-6.646 6.483z"/><path fill="#fff" stroke="#000" stroke-miterlimit="1" stroke-width=".16047108" d="M521.944 683.113c1.982-1.536 4.048-2.7 6.024-3.451 1.99-.739 4.86-1.253 6.883-1.253 5.41 0 9.592 2.855 12.402 6.551 3.922 5.138 4.269 9.738 4.269 15.734l.007 19.745c0 5.41-1.441 11.06-4.793 15.413-3.444 4.909-10.456 9.12-18.472 9.12-3.928 0-6.972-.938-9.896-2.275-4.055-1.855-7.117-4.588-9.239-7.917-2.57-4.02-3.795-8.905-3.795-14.177l.036-50.613c.107-5.18.198-9.928 2.812-14.51 1.854-3.254 4.595-6.134 7.494-7.996 3.71-2.382 8.22-3.9 13.464-3.72 6.495.192 12.593 3.31 16.286 7.566 4.107 4.564 6.175 10.087 6.02 18.01l-16.26.044c.021-5.537-1.693-9.198-6.372-9.282-2.168 0-4.58 1.338-5.505 3.72s-1.372 6.517-1.372 12.389l.017 4.129z"/><path stroke="#000" stroke-miterlimit="1" stroke-width=".16047108" d="M528.524 728.784c-3.567 0-6.483-2.914-6.483-6.483v-21.335c0-3.555 2.924-6.48 6.483-6.48 3.563 0 6.643 2.914 6.643 6.48v21.335c0 3.564-3.088 6.483-6.643 6.483zM395.253 443.706l-5.494 42.86h10.945Z"/></svg>