<svg xmlns="http://www.w3.org/2000/svg" xml:space="preserve" viewBox="0 0 612 792"><path d="M22.442 228.934 345.585 73.966l-3.467-7.171c-21.166 9.371-41.663 15.227-57.224 15.227-39.573.167-116.963-39.07-136.456-79.48L8.47 69.724c-1.087 51.454 4.016 106.085 13.972 159.21" style="fill:#ee3124"/><path d="M345.585 73.966 22.445 228.912a906 906 0 0 0 9.124 42.365c34.353 143.363 119.8 285.695 253.324 358.049 133.523-72.355 218.652-214.686 253.324-358.049 15.867-65.611 24.516-136.062 23.087-201.594L421.352 2.564c-11.9 24.753-45.697 49.188-79.179 64.263z" style="fill:#357353"/><path d="M29.11 225.818c11.98 49.823 15.71 72.911 40.463 135.507l67.357-32.289v155.898c23.165 32.211 51.648 62.042 69.419 77.274l-.079-266.334 78.701-37.607-.078 362.333c21.659-11.743 53.235-33.164 69.34-48.873V225.025l78.544-37.685v299.1c27.609-41.652 47.682-77.988 69.657-126.781l-.159-205.404 49.745-23.88c1.507-24.04 2.062-42.048 1.429-55.854l-128.684-62.04c-19.042 26.576-37.067 39.657-77.37 60.603l-5.249 2.568z" style="fill:#fff"/><path d="m72.145 226.969 9.886-4.708 6.907-3.296c4.942-2.432 9.024-3.139 11.928-2.824 4.63 1.019 8.163 3.765 10.595 8.71 2.667 5.885 2.04 10.595-1.413 14.597l-1.883 2.118 3.609-.627c6.435-.472 11.222 2.667 14.205 9.181 1.805 3.768 2.275 7.769 1.333 11.379-.471 2.041-1.333 3.924-2.824 5.494-1.335 2.118-3.296 3.688-5.651 5.101-1.178.549-3.375 1.647-6.827 3.217l-4.786 2.354-8.79 4.236zm31.546 41.749 3.374-1.65 2.669-1.254c3.217-1.491 5.101-3.061 6.042-4.317 1.491-2.511 1.491-5.414.158-8.318-1.178-2.434-2.904-3.925-5.416-4.552-1.726-.627-3.924-.471-6.277.785l-4.71 1.962-3.374 1.568zm-11.692-24.17 3.453-1.569 3.061-1.885c4.944-2.589 6.277-5.885 4.394-9.966-2.04-4.393-5.885-5.493-11.222-3.138l-2.746 1.333-3.453 1.57zm26.681-39.943 14.753 30.683 1.491 3.061c4.552 9.025 9.966 12.085 16.166 9.025 6.356-2.982 7.613-8.869 3.767-17.108l-2.04-4.317-14.753-30.682 9.418-4.552 14.753 30.684c1.021 2.119 1.962 4.08 2.669 5.886 1.176 2.589 2.04 5.415 2.354 8.003.47 4.708-.549 8.711-2.982 12.87-2.197 3.139-5.022 5.886-9.025 8.005-4.001 1.883-8.16 2.354-12.319 2.04-4.709-.706-8.789-2.982-12.163-6.906a45.5 45.5 0 0 1-5.259-8.318l-1.491-3.218-14.673-30.605zm47.085-22.601 3.923-1.883c4.631-2.198 8.083-3.689 10.438-3.926 4.315-.314 8.083.944 11.144 4.16 1.411 1.334 2.589 3.06 3.609 5.024 1.728 3.531 2.197 7.141 1.491 10.201-.235 2.434-2.04 5.099-4.944 7.611 4.63-1.254 8.318-.155 10.829 3.14 1.336 1.649 2.747 3.609 4.238 6.121 1.963 3.218 3.768 5.886 5.337 8.162.941 1.568 1.725 2.59 2.589 3.453l1.413 1.334-10.203 4.866-1.098-1.413c-1.021-1.568-2.826-4.315-5.101-7.926-3.374-6.042-6.122-9.102-7.928-9.81-1.175-.314-2.981 0-5.179 1.021l-3.374 1.726-4.787 2.277 10.674 22.208-9.417 4.63-26.369-54.855zm8.318 25.503 5.651-2.824 2.118-1.256c5.179-3.062 6.749-7.142 4.395-11.771-.315-.864-.785-1.806-1.334-2.433-2.432-2.59-5.965-3.296-10.594-1.021l-3.219 1.413-4.55 2.355zm43.554-4.551 1.491 2.668c2.902 4.395 6.984 5.651 12.4 3.139 2.197-1.099 3.923-2.512 4.864-4.552 1.414-2.355 1.491-4.708.158-7.376-.786-1.649-2.276-2.747-4.552-3.061-1.806 0-3.767 0-5.728.079l-8.161.706c-2.198.393-4.16.157-5.886.157-5.808-.235-9.968-3.139-12.792-9.182-2.669-5.493-2.747-10.751-.708-15.537 1.805-4.473 5.181-7.848 9.966-10.201 3.062-1.413 6.123-2.042 9.574-2.12 1.883-.078 3.846.394 5.808 1.256 3.453 1.571 6.2 4.395 8.083 8.161l.786 1.648-9.339 4.551c-3.061-5.257-6.671-6.748-10.987-4.787-1.962 1.099-3.531 2.355-4.395 4.16-1.178 2.118-1.254 4.55-.235 6.67 1.099 2.197 3.141 3.453 5.885 3.609 1.571.157 3.062.079 4.318.079l10.435-1.256c2.827-.155 5.337-.155 7.613.472 4.081 1.256 6.985 4.393 9.26 8.867.941 2.197 1.805 4.394 2.04 6.357.315 2.197.158 4.393-.469 6.748-.707 2.746-1.728 4.944-3.297 6.592-2.119 2.824-4.866 5.023-8.16 6.592-11.694 5.651-20.719 2.982-26.605-8.396l-.784-1.413zm26.761-58.857 12.085-5.808 43.554 46.615-10.125 4.867-9.339-9.966-19.305 9.259 2.355 13.34-9.888 4.865zm15.145 35.236 14.753-7.142-19.932-22.521zm41.905-16.559 1.57 2.433c2.825 4.552 6.985 5.886 12.243 3.139 2.275-1.021 4.001-2.512 5.022-4.395 1.335-2.432 1.413-4.787.157-7.456-.864-1.725-2.355-2.746-4.707-3.059-1.728-.079-3.689 0-5.573 0l-8.318.784c-2.04.392-4.16.237-5.886.157-5.729-.157-9.886-3.139-12.713-9.181-2.746-5.493-2.824-10.752-.628-15.617 1.805-4.394 5.101-7.689 9.888-10.045 3.061-1.57 6.122-2.118 9.496-2.277 1.961-.078 3.923.472 5.807 1.334 3.454 1.648 6.278 4.316 8.083 8.163l.864 1.725-9.417 4.473c-3.061-5.258-6.749-6.749-10.83-4.709-2.04.942-3.609 2.275-4.473 4.16-1.254 2.12-1.254 4.394-.235 6.59 1.021 2.198 3.141 3.533 5.886 3.691 1.569.155 2.983 0 4.238 0l10.515-1.178c2.825-.237 5.335-.237 7.612.392q6.003 2 9.181 8.947c1.021 2.118 1.805 4.394 2.042 6.277.392 2.277.078 4.395-.471 6.749-.628 2.669-1.726 4.944-3.217 6.592-2.041 2.747-4.945 5.023-8.163 6.592-11.85 5.573-20.717 2.904-26.681-8.475l-.707-1.411zm13.027-52.42 13.184-6.358 2.825-1.334c1.805-.784 3.531-1.411 5.101-2.118 1.885-.627 3.61-.784 5.337-.706 3.059-.394 5.885.942 8.867 2.982a26.8 26.8 0 0 1 6.2 8.24c2.982 6.278 3.531 11.536 1.411 15.929-1.491 3.376-5.021 6.437-10.2 9.26l-3.141 1.805-3.845 1.805 10.046 20.796-9.339 4.552zm13.42 3.923 8.162 16.95 3.845-1.805a27 27 0 0 0 3.923-2.118c4.16-2.668 5.181-6.592 2.749-11.694-2.591-5.256-6.358-6.984-11.302-4.629l-3.533 1.491zm34.137 7.376c-2.668-5.493-4.473-10.83-5.1-16.086-.394-3.061-.472-6.201.627-9.105.706-2.981 1.805-5.335 3.609-7.376 2.118-2.747 4.944-5.021 8.398-6.67 6.12-2.902 12.477-3.061 18.128-.55 2.902 1.414 5.728 3.219 7.77 5.416 3.216 3.531 6.277 7.926 8.867 13.262 9.259 19.148 6.592 32.097-7.221 39.081-14.282 6.671-26.053.706-35.078-17.972m9.102-5.179c6.593 13.654 13.812 18.441 21.738 14.597 7.848-3.688 8.632-12.4 2.119-25.74-2.277-4.866-4.944-8.868-8.083-11.771-3.847-4.001-8.24-4.944-13.262-2.51-1.806.941-3.297 1.96-4.552 3.374-3.766 4.473-2.982 11.77 2.04 22.05m37.197-51.245 4.002-1.883c4.552-2.197 8.084-3.61 10.358-3.845 4.397-.314 8.084.785 11.223 4.081 1.334 1.413 2.589 3.059 3.608 5.022 1.65 3.531 2.121 7.219 1.414 10.201-.315 2.51-2.04 5.101-4.866 7.691 4.474-1.257 8.318-.158 10.752 3.061 1.333 1.805 2.824 3.688 4.315 6.198 1.962 3.217 3.688 5.886 5.337 8.005q1.412 2.473 2.589 3.531l1.413 1.334-10.203 4.944-1.254-1.413c-.942-1.648-2.747-4.394-5.024-8.005-3.451-5.963-6.042-9.102-7.846-9.808-1.176-.314-2.981 0-5.181 1.098l-3.372 1.57-4.787 2.354 10.593 22.287-9.339 4.552-26.446-54.853zm8.24 25.507 5.806-2.747 2.042-1.334c5.259-3.061 6.75-7.062 4.474-11.849-.392-.785-.786-1.648-1.335-2.277-2.59-2.589-6.041-3.218-10.673-1.098l-3.138 1.568-4.632 2.12z" style="fill:#357353"/><path d="m128.341 321.34-2.081-15.064-15.231-2.913 13.898-6.492-2.08-15.48 10.737 11.152 13.898-6.742-7.324 13.567 10.653 11.318-15.065-2.83z" style="fill:#874487"/><path d="m218.557 278.146-2.165-14.98-15.312-2.831 14.065-6.49-2.165-15.646 10.82 11.152 13.815-6.742-7.408 13.648 10.735 11.237-14.981-2.747z" style="fill:#ee3124"/><path d="m308.937 235.121-2.163-14.981-15.315-2.83 14.066-6.492-2.163-15.646 10.818 11.152 13.815-6.742-7.406 13.65 10.736 11.233-14.981-2.746z" style="fill:#ffcb05"/><path d="m399.402 192.009-2.165-14.981-15.313-2.83 14.065-6.492-2.163-15.645 10.818 11.152 13.815-6.742-7.406 13.648 10.734 11.235-14.978-2.747z" style="fill:#357353"/><path d="m489.784 148.981-2.165-14.978-15.312-2.831 14.065-6.49-2.164-15.648 10.818 11.153 13.814-6.741-7.406 13.648 10.737 11.236-14.981-2.747z" style="fill:#0054a6"/><path d="M388.007 312.899c2.902-3.609 7.141-6.043 11.769-6.749 3.533-.549 7.221.079 9.574 1.883 2.905 2.04 5.886 6.435 5.886 11.143l.079 28.251c0 5.179-3.375 10.752-6.984 14.989-3.218 4.158-8.788 7.141-15.067 8.163-11.772 1.882-21.974-3.454-21.974-17.031v-44.336c0-9.888 1.884-18.206 4.787-24.564 2.59-5.65 8.396-9.731 16.087-10.985 4.552-.785 8.632-1.177 11.144-.785 2.59.472 5.257 2.433 6.827 4.316 4.16 5.022 4.001 10.75 4.001 16.873l-15.067 2.824c.079-1.57-.157-2.904-.235-3.453-.471-3.453-2.667-4.63-5.258-4.317-1.726.235-3.296 1.571-3.924 3.141-.863 1.646-1.646 4.629-1.646 7.689zm0 18.52.078 16.873c.079.392-.157 1.255 0 2.04.862 3.296 2.824 4.944 5.336 4.552 1.805-.314 3.611-1.413 4.472-3.533.942-2.197 1.491-4.629 1.413-6.905v-13.027c-.157-.784-.077-2.275-.314-3.923-.627-3.375-2.904-4.944-5.965-4.397-1.254.158-2.352 1.177-3.374 2.59-1.176 1.257-1.724 3.455-1.646 5.73" style="fill:#fff"/><path d="M328.444 364.615c-2.904 3.688-7.063 6.278-11.457 7.141-4.003.628-8.005-.863-10.438-2.904-2.824-2.432-5.571-6.827-5.571-13.262v-21.739c0-7.297 3.217-14.439 6.514-18.675 3.217-4.082 8.397-7.063 14.988-8.083 6.2-1.177 11.222-.708 14.518 1.805 3.611 2.511 5.808 7.297 6.984 14.125.707 4.551 1.414 9.653 1.414 15.067l-.237 30.684c0 6.277-.706 11.928-1.961 16.479-1.176 4.787-3.453 9.339-6.514 12.477-3.062 3.376-7.769 5.337-13.027 6.278-5.964.942-10.829.472-14.518-1.411-3.609-1.885-6.042-6.122-7.219-12.085-.079-.864-.079-1.963-.314-3.454l-.079-4.001 15.772-2.669c.315 1.883.235 3.139.315 3.766.469 3.531 2.432 4.708 5.493 4.16 3.375-.55 5.336-4.472 5.336-10.75v-12.949zm.157-18.913.079-16.479-.235-1.57c-.627-3.846-2.59-5.336-5.494-4.944-1.805.314-3.216 1.49-4.158 3.453-.862 1.725-1.805 3.925-1.805 6.67v12.87c0 1.413.235 2.59.392 3.923.47 3.454 2.904 5.023 5.964 4.474 1.57-.237 2.667-1.256 3.453-2.51.862-1.337 1.882-3.455 1.804-5.887" style="fill:#357353"/><path d="M255.924 428.617v-64.001l-12.734 2.165V352.3c8.571-1.831 15.064-7.408 17.56-17.227l10.903-1.915-.165 92.795z" style="fill:#fff"/><path d="M478.087 275.168c8.073 0 12.983 12.068 13.066 20.558l.167 14.065c-.334 6.657-5.16 14.147-10.238 18.309-3.662 2.746-7.823 4.327-13.149 5.242-6.242 1.416-14.565-1.997-16.479-5.075-2.579-2.415-4.492-6.826-4.244-11.903v-10.901l15.813-3.912v9.154c-.25 4.163 2.58 7.076 5.827 6.824 2.33-.5 3.078-.915 4.576-2.58 1.249-1.83 1.747-5.159 1.747-7.074v-8.821c0-8.074-2.829-16.812-15.395-17.311l12.566-31.292-25.05 12.484v-17.228l42.362-19.141v18.726z" style="fill:#357353"/><path d="m154.128 108.544 2.593-14.977 15.395-2.426-13.721-7.027 2.677-15.311-11.212 10.794-13.721-7.28 6.945 13.888-10.96 10.794 15.143-2.175zM69.21 64.202C55.322 70.56 45.032 82.524 40.18 95.827c-4.937 13.637-4.601 29.113 1.84 43.171 6.525 13.887 18.406 24.262 31.876 29.03 13.554 4.852 29.116 4.769 43.087-1.757 9.538-4.518 17.904-11.964 23.09-20.33 3.18-4.935 5.941-10.792 7.447-16.481-1.841 2.929-3.514 5.689-5.439 8.366-6.356 7.528-16.063 12.716-21.166 14.473-11.126 3.347-18.572 1.757-21.667 1.34-15.813-1.841-29.617-14.474-33.884-25.771-7.445-14.473-5.271-32.208 3.932-45.511 6.693-9.622 18.491-17.235 28.781-18.573 5.688-.669 12.298-.92 18.238 0-6.191-2.593-13.134-4.601-19.911-4.853-8.788-.335-18.493 1.088-27.194 5.271" style="fill:#fff"/></svg>