<svg xmlns="http://www.w3.org/2000/svg" width="1000" height="1000" viewBox="0 0 1000 1000"><path fill="#f5cb2f" d="M408.343 950c62.893-13.68 119.313-35.415 164.134-61.428 46.038-26.747 84.507-64.24 114.552-105.028 46.283-62.896 77.057-138.977 97.7-215.306 23.327-89.88 32.974-177.324 31.873-282.346 0-94.647.367-191.368-1.833-285.892-133.724 83.776-271.484 116.872-406.426 116.872C273.517 116.872 135.64 83.776 1.919 0-.283 94.524.084 191.245.084 285.892c-1.099 105.022 8.548 192.466 31.875 282.346 20.637 76.329 51.536 152.168 97.697 215.306 30.287 40.666 68.392 78.403 114.553 105.028 44.82 26.257 101.36 47.751 164.134 61.428"/><path fill="#ee3124" d="M37.574 543.084c-17.951-77.427-24.912-154.85-25.768-245.712L13.64 21.986c136.9 74.738 238.018 98.554 368.324 105.881z"/><path d="M42.215 561.402c.854 3.296 1.343 5.618 2.2 8.914 19.906 73.886 50.19 147.893 94.402 208.22 28.574 38.958 66.92 76.328 110.765 101.607 42.743 24.55 98.428 46.164 159.003 59.229 60.694-13.188 116.382-34.804 159.003-59.351 43.844-25.157 82.31-62.65 110.765-101.608 44.209-60.204 74.496-134.336 94.402-208.22 22.592-86.83 32.484-171.459 32.362-272.944l-1.83-275.39C669.85 92.736 586.548 124.897 399.792 128.715z"/><path fill="#f5cb2f" d="M529.44 566.169c0 .255.13.255.13.38 10.022 18.909 15.354 39.717 15.354 62.56 0 76.14-62.562 137.687-138.322 137.687-75.888 0-137.558-61.545-137.558-137.688 0-22.59 5.457-43.908 15.1-62.942l67.129.128v-44.668H332.62V402.593l-43.146 35.785v83.376h-19.034l.125 39.215c-19.54 27.282-31.343 61.543-31.343 97.585 0 92.636 75.126 167.509 167.251 167.509 92.131 0 168.146-74.873 168.146-167.509 0-33.883-9.9-65.478-27.537-92.255h31.343v-44.545h-23.352l.127-45.178-41.112 12.818v31.598c-8.378-8.756-17.388-15.102-29.57-20.052 5.711 5.457 12.055 12.69 18.274 20.811l-16.75.127-11.42-27.027c-.889-3.3-1.146-5.84-1.146-7.233 0-11.166 9.137-20.304 20.179-20.304 8.63 0 16.113 5.582 19.159 13.323l39.215-12.308c-8.25-24.492-31.472-42.26-58.374-42.26-33.754 0-61.421 27.793-61.421 61.801 0 5.71 1.014 11.294 2.411 16.748l6.724 17.133h-20.936V414.394c23.857-22.335 37.432-50.504 37.432-80.073 0-16.37-5.837-33.883-17.893-50.504l-65.226-101.523v257.985c-2.031 3.049-4.06 6.094-6.219 8.758-2.538-27.79-16.243-51.646-30.58-64.34l-5.077 5.71c19.924 22.717 27.537 40.103 27.537 70.303-3.046 16.75-7.613 32.612 4.695 49.238l9.897 11.8h-15.734v44.546h99.614l13.705 34.64c3.555 8.63 5.839 18.532 5.839 28.047 0 39.338-32.49 71.317-71.697 71.317-39.338 0-71.318-31.98-71.318-71.317 1.142-19.037 9.138-42.894 15.357-52.156l-45.685-.127c-8.123 15.86-12.942 33.628-12.942 52.41 0 63.45 51.518 114.843 114.588 114.843 63.067 0 115.223-51.393 115.223-114.843 0-15.356-3.296-30.837-8.755-44.415l-7.996-18.527h24.241zM325.77 377.467l.127-30.963 29.184-9.264-29.311-9.642v-30.71l-17.893 24.618-29.188-9.265 18.022 24.871-18.15 24.619 29.316-9.262zm94.412 26.902V267.064c7.108 10.659 14.087 21.318 21.32 31.85 12.056 21.32 10.784 44.545 5.075 63.324-5.71 18.785-16.878 34.011-26.395 42.131m-45.557 105.706c-7.488-6.086-11.294-16.875-10.66-26.14 0-8.758 2.54-15.227 4.693-21.443.89-2.411 3.808-6.474 5.964-9.77v57.353z"/><path fill="#fff" d="M131.611 127.987c16.73 0 32.607 4.397 46.284 11.725 10.258 5.375 19.906 13.19 27.478 22.105-8.426-5.984-18.805-10.503-28.335-13.312-17.462-5.495-41.033-2.075-58.74 7.937-24.302 13.921-40.3 40.301-39.324 68.147-1.221 20.76 10.99 50.68 34.314 65.335 4.644 3.053 14.9 10.504 34.929 13.312 9.038.974 28.087 0 43.354-7.085 5.009-2.81 9.647-5.86 14.653-9.283-6.593 7.94-14.778 15.145-23.201 20.64-14.78 9.035-32.61 14.778-51.414 14.778-26.622 0-50.925-11.113-68.514-28.7C45.51 276.123 34.64 251.82 34.64 225.079c0-26.747 10.748-51.05 28.455-68.636 17.592-17.465 41.894-28.455 68.516-28.455m99.53 131.408v-26.87l-25.404-8.184 25.282-8.181.122-26.747 15.51 21.371 25.523-8.061-15.754 21.738 15.876 21.374-25.646-8.062z"/><path fill="#f5cb2f" d="M733.75 171.51c-.506-3.046-2.283-4.315-5.076-4.315-2.411 0-4.06.89-5.202 2.539-1.525 2.028-2.539 4.947-3.174 9.134l-.127 2.794.89-1.397c2.283-2.918 5.329-4.315 9.514-4.315 4.95 0 8.63 2.159 10.662 6.981.887 1.777 1.269 3.553 1.269 5.582 0 4.188-1.65 7.613-4.697 10.404-2.664 2.286-6.092 3.678-10.532 3.678-5.202 0-9.007-2.029-11.926-5.962-2.031-3.175-3.046-7.36-3.046-13.2 0-2.79.128-5.709.887-8.248.635-4.312 2.536-7.613 5.078-10.151 2.663-2.411 6.216-3.553 10.404-3.553 3.425 0 6.091.634 8.63 2.158 2.408 1.395 3.933 4.06 4.315 7.489l.125 1.014h-7.996v-.632Zm-60.658 23.222 1.65-1.4c1.776-1.266 3.807-2.918 6.216-5.071a187 187 0 0 0 6.854-6.094c1.017-.887 2.158-2.157 3.173-3.301.89-1.142 1.651-2.409 2.286-3.55.255-.888.507-1.907.507-2.921 0-2.41-1.017-3.933-3.173-4.695-.89-.38-1.776-.508-2.663-.508-3.046 0-4.95 1.65-5.837 5.078l-.255.634h-7.74v-1.394c.127-3.68 1.776-6.216 4.694-8.123 2.664-1.27 5.582-1.904 9.39-1.904 3.68 0 6.981.887 9.267 2.411 3.046 2.03 4.313 4.693 4.313 8.5 0 1.777-.38 3.681-1.015 4.948-.89 2.159-2.413 4.315-4.06 5.964-1.649 1.776-3.678 3.3-5.84 5.204-2.663 2.282-4.819 3.933-6.595 4.948l-3.174 2.288h21.698v5.962h-29.693v-6.976Zm-74.36-27.41c1.269-.507 2.538-1.014 4.312-2.283 1.017-.762 2.159-1.394 3.046-2.16l.89-.759h6.978v39.593h-7.36v-31.98l-1.27 1.015c-1.015.887-2.284 1.522-3.173 2.159-1.525.76-2.921 1.27-3.936 1.649l-1.651.635v-6.979zm41.494 24.62.127 1.393c.383 2.162 2.287 3.301 5.457 3.556 2.414 0 4.063-.887 5.332-2.156.635-.762 1.14-1.4 1.524-2.287.76-2.408 1.522-5.2 1.647-8.88l.255-1.651-1.272 1.144c-2.154 2.791-5.2 4.19-8.755 4.19-1.65 0-3.678-.382-5.077-1.144-1.777-.507-3.173-1.397-4.06-2.666-2.157-2.156-3.426-5.2-3.426-8.883 0-3.935 1.524-7.36 4.442-9.896 2.667-2.032 6.22-3.174 10.657-3.174 5.587 0 9.775 1.904 12.058 5.837 2.16 2.918 3.173 7.36 3.173 13.832 0 8.376-1.776 14.085-4.947 17.133-1.399 1.394-2.793 2.536-4.445 2.919-2.538.887-4.82 1.394-7.486 1.394-3.048 0-6.094-.76-8.63-2.03-2.538-1.523-4.062-3.934-4.44-7.235l-.13-1.394h7.996zm-.377-17.386c0 1.904.757 3.553 1.774 4.822 1.649 1.27 3.045 1.904 4.822 1.904 2.156 0 3.555-.637 4.947-2.159 1.272-1.269 1.904-3.043 1.904-4.947 0-2.031-.38-3.555-1.774-4.95-1.142-1.396-2.539-2.031-4.695-2.031s-3.808.635-5.202 2.159c-1.02 1.394-1.776 3.17-1.776 5.202m81.591 14.464c0 2.287.507 4.063 1.522 5.46 1.142 1.524 2.666 2.41 4.95 2.41 1.394 0 2.408-.506 3.805-1.393 1.144-.762 1.904-2.034 2.159-3.301.382-.762.634-1.904.634-2.918 0-2.284-.634-4.063-1.521-5.457-1.272-1.397-2.921-2.157-5.077-2.157-2.032 0-3.678.76-4.695 2.157-1.267 1.521-2.03 3.17-1.777 5.2M208.546 748.985l2.2-1.955c1.098-.736 2.686-.856 3.665.245l1.833 2.077c.976.974.976 2.684-.123 3.665l-2.075 1.708c-1.22.976-2.808.854-3.665-.242l-1.955-1.955c-.856-1.223-.976-2.811.12-3.543m-4.394 3.176 5.375 6.107-29.922 26.133-5.376-6.227zm.854 41.155-1.096 1.343c-2.2 2.931-1.71 5.982 1.705 9.283q2.019 2.014 4.397 2.562c1.957.611 3.665.124 4.886-1.221.979-.979.979-2.32.49-3.788-.613-1.34-1.102-2.809-1.711-3.907l-3.176-5.74c-.731-1.465-1.34-2.686-1.83-4.03-1.59-3.784-.856-7.327 2.075-10.378 2.809-2.931 6.107-4.03 10.014-3.543q4.946.735 9.527 5.13c1.955 1.833 3.296 3.91 4.397 6.108.734 1.34.976 2.806.976 4.274 0 2.684-.854 5.128-2.809 7.328l-.734.731-5.86-5.74c2.445-3.053 2.32-5.862-.364-8.429-1.22-1.098-2.689-1.954-4.032-2.197-1.835-.489-3.298-.122-4.397.974-1.22 1.22-1.345 2.931-.489 5.008.367.98.734 1.955 1.343 2.81l4.03 7.082c.976 1.71 1.59 3.54 1.83 5.25.49 2.934-.487 5.74-2.809 8.063a13.7 13.7 0 0 1-3.54 2.564c-1.343.489-2.809.856-4.397.976-1.955 0-3.787-.245-5.495-.976-2.442-.977-4.641-2.564-6.596-4.52-7.448-7.082-8.424-13.676-2.931-19.905l.731-.734zm69.732 21.372-3.665 5.006-9.892-7.206-19.661 27.114-6.596-4.764 19.663-27.111-9.891-7.205 3.665-5.006zm17.829 8.668 9.527 4.277-2.564 42.254-8.184-3.66.731-9.038-15.387-6.839-5.987 6.714-7.814-3.54zm-11.477 22.35 11.602 5.129 1.955-20.029zm54.345-5.862 5.37 32.971 8.307-28.941 7.325 2.075-10.99 38.101-11.113-3.176-5.25-33.582-8.55 29.675-7.205-2.077 10.87-38.224zm31.753 7.94 8.793.85 5.74.49c4.277.367 7.327 1.344 9.16 2.567 2.929 2.075 4.15 4.88 3.785 8.546-.367 4.03-2.686 6.594-6.594 7.572l-2.074.367 2.683 1.099c4.397 1.955 6.474 5.253 6.107 9.892-.244 2.809-1.463 5.13-3.54 6.84-1.223.977-2.567 1.589-4.032 2.075-1.833.49-3.785.857-5.862.857-1.101-.123-3.051-.247-5.86-.49l-4.152-.489-7.572-.61zm5.128 34.192 3.175.244 2.2.12c2.686.247 4.639 0 5.737-.484 1.955-.854 3.054-2.322 3.296-4.522q.186-2.561-1.83-4.396c-1.101-.857-2.564-1.466-4.517-1.83l-3.91-.248-3.175-.364zm1.588-17.587 3.053.247 2.684.242c4.277.123 6.596-1.345 6.96-4.274.123-3.053-2.077-5.008-6.473-5.373l-2.44-.244-3.053-.245zm40.3-13.919 1.956 22.106.242 2.197c.612 6.593 3.785 9.527 9.158 9.16 5.373-.49 8.059-3.787 7.695-9.77l-.245-3.05-1.955-22.108 8.181-.732 1.83 21.986c.248 1.707.125 3.05.248 4.274q.18 2.93-.732 5.493c-.978 2.809-2.809 5.253-5.617 7.083-2.567 1.71-5.498 2.566-8.796 2.809-3.54.37-6.716-.12-9.647-1.341-3.173-1.346-5.495-3.665-6.716-6.716-.857-1.958-1.221-4.032-1.593-6.354l-.242-2.32-1.83-22.105zm46.04-5.375 7.572 32.731 16.363-3.787 1.346 5.862-24.183 5.62-8.916-38.714zm42.378 16.485.732 1.468c1.71 3.296 4.763 4.15 9.038 2.442 1.832-.734 3.298-1.588 4.274-2.929 1.343-1.585 1.585-3.175.979-4.886-.49-1.343-1.713-1.954-3.301-2.074-1.468-.123-2.931-.123-4.152-.123l-6.596.49q-2.379.183-4.397 0c-4.152-.245-7.083-2.444-8.548-6.352-1.466-3.665-1.102-7.205.976-10.503 1.832-2.81 4.763-5.006 8.67-6.472 2.442-.973 5.006-1.465 7.45-1.465 1.466 0 2.81.364 4.275.854 2.32 1.22 4.274 2.928 5.37 5.617l.367 1.099-7.572 2.933c-1.708-3.54-4.397-4.641-7.815-3.298-1.59.612-2.93 1.588-3.785 2.687-1.1 1.468-1.465 2.93-.978 4.396.611 1.708 2.202 2.564 4.277 2.564 1.098.125 2.2.125 3.175 0l8.06-.609c2.077-.122 4.032 0 5.617.487 2.931.856 5.008 2.931 6.107 5.985.607 1.468.856 2.93.856 4.276-.122 1.466-.37 2.929-.978 4.397-.857 1.83-1.833 3.418-3.176 4.516-1.955 1.836-4.397 3.179-6.963 4.152-9.525 3.788-15.874 1.71-19.172-5.74l-.367-.976zm22.47-37.98 9.77-5.742 2.322-1.22c1.22-.732 2.561-1.466 3.785-1.955 1.343-.612 2.686-.977 4.03-1.221 2.199-.242 4.396.122 6.473 1.343 1.955 1.101 3.545 2.686 4.764 4.883 2.197 3.788 2.564 7.328 1.098 10.504-1.223 2.564-3.785 5.008-7.692 7.57l-2.32 1.343-2.93 1.588 7.572 13.19-7.083 4.03zm10.137 1.224 6.107 10.624 2.93-1.708c.977-.487 1.956-1.218 2.81-1.833 3.175-2.32 3.91-5.128 2.074-8.304-1.952-3.298-4.76-3.785-8.548-1.832l-2.445 1.468zm34.072-4.763c-2.444-3.054-4.277-6.227-5.253-9.525-.732-2.075-.854-4.152-.607-6.23.242-2.077.854-4.03 1.83-5.74 1.343-2.319 3.176-4.396 5.495-6.348 4.152-3.298 8.552-4.886 12.946-4.52 2.441.245 4.519.98 6.349 1.956 2.686 1.71 5.373 4.032 7.694 6.84 8.671 10.869 8.302 20.026-1.098 27.721-9.647 7.815-18.808 6.469-27.356-4.154m6.227-5.373c5.984 7.694 11.846 9.16 17.22 4.886 5.252-4.277 4.885-10.137-1.222-17.71-2.197-2.688-4.516-4.885-7.083-6.226-3.176-1.832-6.594-1.343-9.892 1.343-1.223 1.099-2.074 2.078-2.808 3.42-2.32 3.783-1.099 8.544 3.785 14.287m24.911-48.606 2.322-2.564c2.564-3.053 4.761-5.13 6.227-6.107 2.931-1.835 5.74-2.319 8.426-1.343a11.3 11.3 0 0 1 3.543 2.078c2.077 1.707 3.173 3.904 3.42 5.982.12 1.835-.489 4.032-1.712 6.84 2.808-2.444 5.495-3.175 7.937-1.835 1.22.612 2.686 1.346 4.152 2.322 2.077 1.466 3.91 2.564 5.372 3.54.977.49 1.953.98 2.687 1.221l1.223.367-5.862 6.597-.976-.49c-1.221-.611-3.056-1.707-5.253-3.298-3.665-2.566-6.227-3.787-7.45-3.54-.854.12-2.075.974-3.296 2.32l-1.955 2.319-2.686 3.053 12.091 10.623-5.253 6.107-29.92-26.135zm11.36 13.435 3.298-3.787 1.096-1.466q4.397-5.678.367-9.158c-.489-.37-.853-.734-1.463-.859-2.2-.976-4.643-.122-7.205 2.929l-1.835 1.955-2.687 3.056z"/></svg>