<svg xmlns="http://www.w3.org/2000/svg" xml:space="preserve" viewBox="0 0 612 792"><path d="M3.657 271.057 180.717 13.13h221.458l175.474 258.191-286.997 313.952z" style="fill:#ee3124"/><path d="M11.77 270.936 183.765 19.972h214.164l171.738 250.963L290.59 575.056z" style="fill:#fff200"/><path d="M436.859 113.588h-12.383l5.778 3.027zM80.877 306.166v-7.363h3.853v-22.085h-3.853v-7.429h18.026l6.125 15.206 5.64-15.206h18.234v7.429h-3.921v22.085h3.921v7.363H111.15v-7.363h4.059v-20.434l-7.911 19.953h-4.816l-7.913-19.953v20.434h4.198v7.363zm49.468 0v-7.363h3.233l7.224-22.085h-3.852v-7.429h27.246v7.429h-3.921l7.293 22.085h3.232v7.363h-16.924v-7.363h3.509l-1.583-4.952h-10.664l-1.309 4.952h3.441v7.363zm16.444-18.853h7.57l-3.923-11.695zm25.458 18.853v-7.363h3.852v-22.085h-3.852v-7.429h17.888v7.429h-3.921v22.085h9.837l2.41-7.224h6.467v14.587zm33.643 0v-7.363h3.235l7.225-22.085h-3.854v-7.429h27.247v7.429h-3.853l7.224 22.085h3.234v7.363h-16.925v-7.363h3.576l-1.65-4.952h-10.597l-1.306 4.952h3.37v7.363zm16.444-18.853h7.568l-3.853-11.695zm28.554 18.853v-7.363h3.852v-22.29h-3.096l-1.927 5.847h-6.261v-13.071H276v13.071h-6.123l-1.927-5.847h-3.096v22.29h3.921v7.363zm36.74 0v-7.363h3.99v-6.328l-11.283-15.757h-2.89v-7.429h16.925v7.429h-3.096l5.504 8.739 5.641-8.739h-3.026v-7.429h16.375v7.429h-2.891l-11.282 15.757v6.328h4.059v7.363zm25.455 0v-7.363h3.166l7.293-22.085h-3.853v-7.429h27.177v7.429h-3.852l7.293 22.085h3.165v7.363h-16.857v-7.363h3.509l-1.582-4.952h-10.664l-1.307 4.952h3.44v7.363zm16.377-18.853h7.637l-3.922-11.695zm34.813 15 .206 3.853h-8.394v-12.453h8.876c1.582 1.994 2.89 3.371 4.197 4.128 1.445.962 2.683 1.237 4.334 1.237 1.307 0 2.408-.275 3.234-.757.619-.619 1.1-1.375 1.1-2.476 0-.895-.481-1.651-1.1-2.133-.826-.621-1.927-1.032-3.578-1.238l-3.991-.619c-4.541-.758-7.912-2.133-10.183-3.991-2.064-1.789-3.234-4.403-3.234-7.637s1.307-6.123 3.715-8.325c2.615-2.133 5.642-3.372 9.357-3.372 2.064 0 3.715.481 5.297 1.102 1.445.619 2.753 1.651 3.853 3.026l-.138-3.37h8.394v11.695h-8.394c-1.1-1.858-2.271-3.232-3.371-3.991-1.101-.893-2.408-1.374-3.715-1.374-1.101 0-2.272.275-2.89.894-.826.618-1.307 1.376-1.307 2.338 0 .896.482 1.652 1.307 2.133.826.62 2.27 1.102 3.99 1.515l3.715.481c4.403.895 7.775 2.27 9.839 4.128 2.133 1.858 3.234 4.472 3.234 7.57 0 3.645-1.101 6.604-3.578 8.874-2.408 2.133-5.573 3.373-9.77 3.373-2.27 0-4.403-.482-6.123-1.24-1.786-.62-3.574-1.789-4.882-3.371m41.282-25.596v9.015h2.545c2.133 0 3.715-.275 4.679-1.032.963-.826 1.651-1.997 1.651-3.441 0-1.512-.688-2.752-1.651-3.507-.963-.621-2.546-1.034-4.679-1.034h-2.545zm-14.036 29.449v-7.363h3.853v-22.085h-3.853v-7.429h19.815c4.059 0 7.293 1.1 9.495 3.232 2.477 1.995 3.578 4.955 3.578 8.463 0 3.716-1.101 6.467-3.578 8.602-2.202 1.994-5.435 3.096-9.495 3.096h-5.779v6.122h3.99v7.363h-18.026zm45.959-18.439c0 2.958.963 5.365 2.89 7.361 1.927 1.859 4.334 2.96 7.224 2.96 2.752 0 5.16-1.101 7.087-2.96 1.926-1.996 2.89-4.402 2.89-7.361 0-2.891-.963-5.368-2.89-7.363-1.927-1.858-4.335-2.889-7.087-2.889-2.89 0-5.297 1.031-7.224 2.889-1.926 1.995-2.89 4.472-2.89 7.363m-10.664 0c0-2.754.619-5.504 1.789-7.981 1.101-2.477 2.89-4.611 5.16-6.467 1.927-1.514 3.991-2.753 6.261-3.509 2.271-.758 4.817-1.102 7.431-1.102 2.752 0 5.16.344 7.568 1.102 2.271.755 4.336 1.995 6.124 3.509 2.272 1.857 3.991 4.197 5.16 6.467 1.309 2.477 1.789 5.227 1.789 7.981 0 2.958-.481 5.572-1.789 7.98-1.169 2.478-2.888 4.611-5.16 6.469-1.788 1.512-3.853 2.75-6.124 3.507-2.408.758-4.816 1.24-7.568 1.24-2.613 0-5.16-.482-7.431-1.24-2.271-.757-4.335-1.995-6.261-3.507-2.271-1.858-3.853-3.991-5.16-6.469-1.169-2.408-1.789-5.021-1.789-7.98m58-11.01v7.776h4.059c1.791 0 3.027-.275 3.991-.895.826-.621 1.309-1.72 1.309-3.096 0-1.24-.483-2.27-1.309-2.89-.963-.621-2.2-.896-3.991-.896zm-14.035 29.449v-7.363h3.922v-22.085h-3.922v-7.429h23.876c3.095 0 5.503.963 7.429 2.615 1.789 1.858 2.752 4.197 2.752 6.948 0 2.133-.48 3.853-1.445 5.023-1.17 1.375-2.751 2.476-5.021 3.232 1.927.483 3.232 1.24 3.852 1.858.689.758.963 1.996.963 3.372v6.466h3.579v7.363h-13.556v-8.601c0-3.095-.344-5.09-1.099-5.847-.827-.757-2.133-1.239-4.197-1.239h-3.097v8.324h3.097v7.363zm-179.78 173.656L149.061 320.959h284.015zm-87.172-354.194 39.422-58.069 47.819 57.45 47.68-57.518 27.039 39.286 9.426-8.187 12.178-5.78 1.789-8.325 3.027-2.89 14.242-2.477 7.018 7.293 6.605 1.583 22.017 19.608.207 9.771 7.018 23.116-4.816 3.027-11.49 6.398-4.539-5.642-1.79.344 4.128 6.261-17.544 7.432-4.816-.827-4.608-3.232.48 9.631 16.582-3.027 28.415-13.554 14.45-8.05 9.977 3.234 5.502.825V153.7l4.335 3.578.689 2.339-3.235 8.325 1.515 6.33-5.368 6.398h-2.545l-3.715 4.817-29.998.686-13.761 11.216 36.947 54.284H347.21l5.917-13.415 8.876-14.725 6.055-4.885 4.678-5.504-6.949 1.995.757-.55 14.448-5.367 29.241-8.531 14.449-7.154 14.448-11.629 29.241-.344 3.578-4.815 2.684-.414 2.545-3.027-1.237-6.604 3.026-6.399-5.227-4.817.686-7.36-10.114-3.304-12.522 5.848-22.499 11.215-7.637 3.234-39.63 10.183 5.573-3.027 11.215-3.576-.207-17.271-1.583-2.546 7.293-6.398-.206 3.922 4.816 5.022 5.367 1.583 8.394-3.578-4.609-9.631 5.366-3.097 4.816.757 7.293 6.261 7.912-5.229-5.367-19.057-1.238-10.183-18.439-16.72-6.605-1.79-6.192-6.812-11.627 2.477-2.339 9.976-13.898 6.33-9.426 8.325-7.912 8.602-18.508 11.971 18.3-.208-24.079 9.839-1.032 1.032h17.476l-23.05 8.944-1.237 1.24h22.017l-28.966 11.42-.895 1.445 25.044-.206-31.442 10.183-1.101 1.446 22.43-.208-30.961 11.971-1.79 1.789h25.114l-31.03 9.29-6.811 8.943h28.759l-36.052 10.871-11.284 16.375-28.209-41.006-38.874 56.899h-86.277l28.622-42.176 89.925-9.563-112.424 2.339 1.445-.618 118.891-12.247-112.491.687 1.925-.755 118.891-12.042-111.803-.069 2.202-.688 117.514-10.665-111.873-.275 1.72-.756 118.272-11.216-112.698.688 1.996-.688 119.165-11.695-113.248.138 2.202-.758 118.89-11.559-111.805-.205 2.133-.965zm190.857 14.175 7.706-6.4 1.238-13.759-7.155-2.477-3.784-10.391-1.514-1.238c-.481 4.816-.757 9.839 0 15.136 2.821 2.133 4.197 2.96 6.467 5.504-.826 3.373-1.169 7.018-1.651 10.045-3.096-3.027-6.604-9.15-10.183-8.599-.963-4.405-2.202-7.638-5.229-10.458l-.825 1.031-.206 14.242c1.926.757 3.715 1.446 5.298 3.235 5.572.001 5.572 1.307 9.838 4.129" style="fill:#ee3124"/></svg>