<svg xmlns="http://www.w3.org/2000/svg" width="1000" height="1000" viewBox="0 0 1000 1000"><path fill="#ffe600" d="M0 0v697.664c0 48.588 5.588 74.783 22.063 98.803 26.563 38.73 76.387 62.018 144.873 85.113L369.856 950l202.918-68.42c68.489-23.095 118.31-46.386 144.873-85.113 16.478-24.02 22.065-50.215 22.065-98.803V0z"/><path fill="#0072bc" d="m369.856 939.406-197.665-66.953c-66.627-22.568-115.074-45.387-140.908-83.277-16.023-23.51-21.462-49.145-21.462-96.69V9.821H729.89v682.665c0 47.545-5.439 73.18-21.462 96.69-25.834 37.89-74.28 60.709-140.91 83.277z"/><path fill="#ffe600" d="M589.65 712.215c-14.97 0-20.61-8.454-20.409-18.65.237-11.772 11.325-31.24 24.055-34.517.002 14.524-1.743 37.915-3.647 53.167m29.172 4.554c-1.097-18.685-1.139-40.557-1.273-55.481 10.567 6.878 28.824 6.833 46.379 3.502-1.099 24.8-17.895 53.493-45.106 51.98m66.67-23.796c-1.157-10.032-8.288-28.441-18.599-38.556-4.847.318-42.707 10.515-50.423-11.496-1.138-3.254 6.026-16.57 8.911-19.458.771 3.11 2.625 10.954 7.967 16.164 2.257-3.047 11.447-11.044 16.294-11.944 2.904 3.93 3.741 8.847 4.28 13.028 4.425-.29 22.725-12.657 24.965-27.485 8.871 0 23.505-8.879 34.8-8.879-6.455 13.724-18.041 28.529-30.741 42.335 9.47 7.62 14.957 14.25 21.315 24.255-.157 11.733-11.126 21.763-18.77 22.036M567.65 712.471c-1.106 9.213-2.085 25.845 1.9 37.073 7.74 17.735 18.744 26.485 37.967 27.044 31.86.927 67.452-17.561 72.645-42.195 3.229-20.582-3.092-38.124-8.402-47.758-11.576 21.13-26.36 40.356-56.515 41.037-18.017.407-33.433-3.105-47.595-15.2M369.856 848.828c65.728 1.107 137.426-34.713 186.803-97.766-4.823-31.558-6.553-59.513 13.897-86.898 6.202-8.312 16.386-10.686 15.974-21.39-.214-5.647-2.486-11.603-5.981-14-7.015 6.414-14.76 10.61-22.523 4.892-1.096 3.088-.753 7.502 1.966 10.306-11.213.681-17.698-2.123-23.12-7.738-37.067 2.807-19.304 70.848-126.34 100.762-35.943 10.037-55.98 8.55-91.705-3.137-95.554-31.26-80.16-94.913-115.99-97.625-5.416 5.615-11.9 8.42-23.114 7.738 2.72-2.804 3.062-7.216 1.961-10.306-7.763 5.718-15.5 1.522-22.523-4.891-3.49 2.396-5.762 8.352-5.98 14-.41 10.703 9.776 13.079 15.973 21.389 20.45 27.383 18.72 55.337 13.897 86.898 49.374 63.05 120.203 98.873 186.805 97.766M150.063 712.215c14.964 0 20.61-8.454 20.403-18.65-.236-11.772-11.325-31.24-24.05-34.517-.002 14.524 1.738 37.915 3.647 53.167m-29.177 4.554c1.104-18.685 1.143-40.557 1.273-55.481-10.567 6.878-28.825 6.833-46.374 3.502 1.094 24.8 17.895 53.493 45.1 51.98M54.22 692.973c1.151-10.032 8.288-28.441 18.593-38.556 4.845.318 42.708 10.515 50.42-11.496 1.14-3.254-6.02-16.57-8.91-19.458-.766 3.11-2.62 10.954-7.967 16.164-2.257-3.047-11.45-11.044-16.29-11.944-2.903 3.93-3.74 8.847-4.285 13.028-4.427-.29-22.727-12.657-24.961-27.485-8.877 0-23.505-8.879-34.803-8.879 6.456 13.724 18.044 28.529 30.744 42.335-9.471 7.62-14.962 14.25-21.32 24.255.164 11.733 11.13 21.763 18.78 22.036m117.841 19.498c1.106 9.213 2.086 25.845-1.904 37.073-7.738 17.735-18.742 26.485-37.962 27.044-31.865.927-67.458-17.561-72.65-42.195-3.224-20.582 3.097-38.124 8.406-47.758 11.574 21.13 26.359 40.356 56.516 41.037 18.016.407 33.433-3.105 47.594-15.2"/><path fill="#ffe600" d="M369.856 647.365q-3.427-7.529-13.338-7.482l-73.354-.12c-35.787-.451-65.22-29.003-65.22-64.459v-69.327c2.311-2.28 4.77-5.826 5.99-6.935-1.824-2.379-4.042-5.153-5.99-7.723v-4.497c2.038-1.357 5.404-4.258 9.923-10.987-3.192-4.474-6.503-7.126-9.923-8.737v-24.974c4.98 3.147 15.677 5.794 24.516 3.415 1.507-7.504-.174-17.686-2.577-23.39 7.845-3.083 11.717-7.055 14.695-10.125-7.05-14.23-24.611-16.995-36.634-15.29v-97.863c6.885-1.523 13-.641 18.61 1.616-1.583.104-4.26 23.948-1.924 37.955 6.304-1.044 12.608-3.64 18.387-5.26 2.14 5.277 13.746 14.375 24.199 14.268 2.065-3.17 5.023-9.593 5.17-15.884 5.287 1.934 8.424 1.792 13.003 1.355 4.407-15.096.28-33.67-12.993-44.368h174.918c-13.276 10.699-17.403 29.27-12.99 44.368 4.576.437 7.71.579 12.998-1.355.149 6.291 3.104 12.715 5.17 15.884 10.452.107 22.058-8.991 24.198-14.268 5.785 1.62 12.083 4.213 18.392 5.26 2.334-14.007-.34-37.85-1.924-37.955 5.628-2.264 11.758-3.144 18.673-1.603l-.027 97.853c-12.029-1.718-29.615 1.039-36.672 15.285 2.978 3.07 6.85 7.042 14.7 10.124-2.406 5.702-4.084 15.886-2.58 23.39 8.854 2.384 19.57-.275 24.542-3.43l-.005 24.982c-3.428 1.608-6.749 4.263-9.943 8.745 4.531 6.743 7.902 9.642 9.938 10.994v4.472c-1.951 2.575-4.176 5.354-6.003 7.738 1.223 1.111 3.686 4.663 6.003 6.945l-.018 69.317c-.007 35.456-29.426 64.008-65.215 64.46l-73.351.12c-6.612-.026-11.057 2.465-13.344 7.486"/><path fill="#0072bc" d="M369.856 634.402c-2.118-4.618-6.239-6.908-12.361-6.88l-73.91-.107c-25.73-.56-45.997-17.296-52.462-40.726H508.59c-6.463 23.43-26.73 40.167-52.46 40.726l-73.91.107c-6.127-.028-10.246 2.262-12.364 6.88m-141.17-88.84v-40.98h282.33v40.98zm0-81.971v-20.24l8.713-20.745h264.914l8.7 20.748v20.239H228.687zm0-81.95v-40.985h34.736c4.084 2.538 8.599 4.057 12.282 4.746a24.3 24.3 0 0 0 2.39-4.746h183.533a24 24 0 0 0 2.384 4.746c3.683-.689 8.203-2.208 12.28-4.746h34.727v40.985z"/><path fill="#ee3124" d="m456.019 332.014-86.163 99.118-86.16-99.118a41 41 0 0 1-1.308-.448c-.146 6.291-3.107 12.715-5.17 15.884-10.452.107-22.058-8.991-24.198-14.268-5.78 1.62-12.083 4.213-18.387 5.26-2.337-14.007.34-37.85 1.924-37.955q-1.11-.45-2.25-.818h-5.618v45.656l107.851 124.14-104.502 120.207c5.684 17.002 18.827 30.067 35.973 35.287L369.86 507.797l101.85 117.162c17.146-5.213 30.288-18.28 35.978-35.278L403.182 469.464l107.839-124.11-.058-45.682h-5.555c-.76.248-1.504.52-2.245.818 1.586.104 4.26 23.947 1.924 37.954-6.309-1.044-12.607-3.639-18.392-5.26-2.14 5.278-13.746 14.375-24.198 14.268-2.066-3.169-5.021-9.592-5.17-15.883-.455.161-.888.31-1.308.445"/><path fill="#ffe600" d="M117.197 438.144c33.286-18.64 41.445-21.444 46.16-36.207-14.455-17.467-31.763-19.712-39.707-37.01-5.682 3.122-9.287 5.538-13.716 9.48-5.921-7.372-8.748-12.67-13.714-16.547-6.977-3.815-15.99-3.624-20.977-3.624 7.832 28.071 31.457 39.324 31.613 50.691.05 3.185-1.066 6.379-1.34 8.42-13.713 0-33.813 16.393-39.289 24.941-12.612-4.124-22.5-19.905-14.387-38.061 3.328.467 11.16-4.206 12.182-7.937-2.013-.584-7.603-1.467-8.128-5.96.955-8.785 2.265-16.128 1.86-24.018-.84-16.473-12.837-26.774-23.033-26.408-7.44.263-13.913 6.204-14.35 19.562 4.722 2.74 8.056 11.129 22.667 1.166 4.024 2.292 5.869 7.012 3.96 15.355-1.753 4-3.664 3.934-9.193 3.579-.407 2.687.17 6.95 1.129 10.137 3.883 12.955-4.763 24.743-1.616 39.284 3.306 15.31 14.375 25.85 27.286 32.305 3.863 5.381 11.452 11.006 15.126 19.373 4.061-1.963 6.823-6.453 14.31-6.453.035 4.584 2.908 14.977 8.635 22.802 2.173-3.259 5.203-6.716 8.064-7.263 6.83 13.418 23.781 21.223 29.429 23.642-9.066-31.932-27.4-43.754-28.686-61.44-.355-4.96 1.196-8.549 5.715-9.809M194.876 226.6c10.617.664 23.152 1.084 31.79 1.084 13.067 0 31.01-2.556 31.099-23.28.077-18.453-21.3-35.197-24.562-32.637-5.143 4.032 9.347 20.78 7.259 30.582-2.827 13.254-26.028 13.16-43.185 11.03-11.822-1.47-45.556 4.866-31.665 24.675 5.786-.074 11.449-12.563 29.264-11.454m80.468 94.485c4.974 2.985 9.423 4.447 14.957 5.202 2.997-20.206-9.95-35.93-27.495-40.783-11.991-7.82-27.967-13.207-41.467-13.453-22.973-.42-36.62 16.886-41.892 23.212-10.34-2.955-7.639-8.069-15.54-12.302-3.411 1.72-7.8 5.876-10.336 8.556-1.837-2.458-5.153-5.936-8.643-7.79-7.997 3.713-14.589 21.293-22.004 24.807-2.771-6.293-9.756-15.615-14.596-18.476-3.992 2.528-6.05 7.865-8.983 12.861-3.361-3.92-8.497-10.818-12.73-12.056-2.349 2.103-4.914 8.693-4.914 12.966-3.957 0-19.364-18.017-19.364-20.594-2.466 1.362-6.455 3.698-6.455 8.068.054 2.635 6.922 5.275 7.36 13.21.591 10.723-8.168 23.298-8.168 33.584 9.68 0 19.15-6.806 27.218-9.085 1.32 2.272 6.177 10.211 6.177 12.632 6.886 0 12.021-9.22 17.433-10.318-.152 3.91 5.466 19.684 7.296 20.49 4.031-1.613 11.188-8.524 11.188-13.366 4.322 1.596 13.261 18.295 15.998 22.697 12.712-9.736 13.271-18.558 22.943-30 0 4.022 12.232 17.335 17.015 17.335 3.229-20.974 14.554-49.304 35.504-55.851 11.098-3.963 24.857 1.372 28.613 5.128-4.025 6.666-4.621 29.4-4.621 32.456l16.137-5.024c3.227 6.456 9.68 13.716 17.748 15.33q3.005-9.282 1.62-19.436m-82.166-72.407-1.613-1.613c-16.647 0-46.2 9.992-48.912-6.364-2.321-14.007 4.154-26.761 12.456-30.51 7.326-3.308 34.162-1.352 33.876-10.29-.239-7.443-26.908-20.61-33.252-20.39-9.413.327-9.729 12.788-12.408 20.554-2.638 7.656-10.86 12.371-13.836-.405-1.596-6.836 6.304-17.388 11.917-21.313 2.455-7.117.792-10.927-3.858-12.523-4.266-1.46-9.1-3.478-15.158-3.478-4.798 11.996-20.237 25.874-30.875 33.749-22.685 16.799-46.262 30.326-46.36 62.13-.027 7.93.935 18.574.935 25.785 7.922-7.865 15.88-16.033 23.674-23.572.105 4.238 1.914 14.121 4.415 19.153 7.937-4.86 12.754-12.715 17.36-17.662.816 3.518 3.068 10.135 5.367 14.704 9.943-4.54 14.785-12.449 17.855-15.715 1.422 4.268 5.844 12.821 8.887 15.861 7.822.164 16.472-8.794 20.38-13.763 0 .094 12.354 12.87 14.37 12.595 16.155-2.21 34.78-22.317 34.78-26.933m23.247 185.045c7.663 4.034 11.342 7.194 21.022 7.194 0-8.066-3.321-18.37-6.63-22.153 4.149-.288 14.05-4.805 16.69-7.485-8.897-12.746-27.761-6.726-38.33-10.246-7.261-2.423-20.172-24.208-20.172-33.082-4.032 0-18.62-3.26-25.469-12.103-4.136 5.93-11.193 13.853-14.872 20.169 11.345 21.598 38.484 26.416 53.008 44.166 0 9.096.239 18.139 5.421 24.336 4.875-3.508 6.292-6.742 9.332-10.796M105.33 613.475c5.906-.582 11.914-.78 16.819-.284-5.34-9.304-21.581-17.183-32.002-17.183 5.479-12.431 7.289-36.15-.38-49.215 20.654 1.061 29.789-8.536 35.852-22.814.686-6.364-5.064-14.532-11.052-17.211-5.593-.933-7.616.788-10.355 1.419-5.757-4.121-10.893-18.404-15.25-18.404 0 25.013-10.49 45.817-37.117 45.817-3.356 2.913.114 7.106.805 8.07 11.052 15.345 22.245 25.268 21.527 46.203-1.149 12.93-13.272 24.994 6.502 39.525.863-6.286 1.278-8.824 3.473-11.891 8.876 0 14.492 4.596 20.137 10.243.614-2.98 2.466-9.105 1.041-14.275m81.709 10.032c1.73 1.755 3.85 4.248 2.667 11.897 6.577-2.073 11.772-10.413 12.068-14.696 2.916-.773 6.309-.037 9.741 2.397 4.78-10.714-2.147-23.013-10.686-30.016-1.884-16.207-15.814-30.852-28.583-43.12 9.058-15.642 23.127-16.8 33.167-41.842 2.652-3.905 7.137-4.44 11.725-9.575-1.218-2.433-6.604-7.676-8.459-9.038 4.726-5.757 8.656-8.69 11.753-13.448-4.527-3.323-8.765-5.448-13.326-7.613 2.083-1.542 5.07-4.159 7.017-10.033-3.54-1.397-9.543-2.848-13.517-4.919-5.342-2.789-1.512-9.389-1.917-10.34-5.645 0-17.012 2.095-20.31.628-6.14-2.73-17.694-6.152-28.169-6.284-13.072-.166-20.01 4.626-25.752 15.966.13 3.018.756 5.158 2.423 8.491 20.555 3.025 38.604 19.404 46.692 25.715 5.645 25.014-33.78 38.41-33.78 61.805 7.091 14.964 39.033 21.52 42.761 45.994-9.269 11.693-11.83 20.51-4.352 33.033 2.47-.458 6.557-2.72 8.837-5.002m435.474-185.363c-33.289-18.64-41.442-21.444-46.16-36.207 14.455-17.467 31.768-19.712 39.707-37.01 5.682 3.122 9.287 5.538 13.716 9.48 5.921-7.372 8.753-12.67 13.719-16.547 6.972-3.815 15.983-3.624 20.977-3.624-7.832 28.071-31.462 39.324-31.618 50.691-.045 3.185 1.066 6.379 1.34 8.42 13.718 0 33.815 16.393 39.294 24.941 12.612-4.124 22.5-19.905 14.382-38.061-3.323.467-11.156-4.206-12.182-7.937 2.018-.584 7.608-1.467 8.133-5.96-.96-8.785-2.265-16.128-1.862-24.018.835-16.473 12.836-26.774 23.028-26.408 7.442.263 13.915 6.204 14.35 19.562-4.718 2.74-8.056 11.129-22.662 1.166-4.025 2.292-5.874 7.012-3.965 15.355 1.757 4 3.666 3.934 9.195 3.579.407 2.687-.167 6.95-1.124 10.137-3.883 12.955 4.753 24.743 1.616 39.284-3.311 15.31-14.378 25.85-27.289 32.305-3.857 5.381-11.451 11.006-15.12 19.373-4.062-1.963-6.826-6.453-14.316-6.453-.03 4.584-2.908 14.977-8.627 22.802-2.178-3.259-5.208-6.716-8.072-7.263-6.83 13.418-23.78 21.223-29.428 23.642 9.063-31.932 27.403-43.754 28.685-61.44.35-4.96-1.198-8.549-5.717-9.809M544.834 226.6c-10.614.664-23.15 1.084-31.787 1.084-13.065 0-31.01-2.556-31.094-23.28-.085-18.453 21.295-35.197 24.561-32.637 5.143 4.032-9.351 20.78-7.258 30.582 2.824 13.254 26.023 13.16 43.18 11.03 11.826-1.47 45.56 4.866 31.67 24.675-5.794-.074-11.46-12.563-29.272-11.454m-80.465 94.485c-4.974 2.985-9.424 4.447-14.96 5.202-2.997-20.206 9.95-35.93 27.5-40.783 11.991-7.82 27.967-13.207 41.467-13.453 22.968-.42 36.62 16.886 41.89 23.212 10.345-2.955 8.535-8.069 16.438-12.302 3.412 1.72 7.8 5.876 10.333 8.556 1.837-2.458 5.158-5.936 8.643-7.79 8.001 3.713 13.7 21.293 21.116 24.807 2.774-6.293 9.754-15.615 14.596-18.476 3.99 2.528 6.05 7.865 8.978 12.861 3.364-3.92 8.497-10.818 12.735-12.056 2.349 2.103 4.912 8.693 4.912 12.966 3.954 0 19.363-18.017 19.363-20.594 2.464 1.362 6.456 3.698 6.456 8.068-.06 2.635-6.928 5.275-7.365 13.21-.592 10.723 8.173 23.298 8.173 33.584-9.685 0-19.155-6.806-27.219-9.085-1.32 2.272-6.182 10.211-6.182 12.632-6.883 0-12.021-9.22-17.435-10.318.157 3.91-5.466 19.684-7.29 20.49-4.032-1.613-11.189-8.524-11.189-13.366-4.327 1.596-13.261 18.295-16.003 22.697-12.707-9.736-13.266-18.558-22.94-30 0 4.022-12.233 17.335-17.018 17.335-3.226-20.974-14.551-49.304-35.499-55.851-11.1-3.963-24.857 1.372-28.615 5.128 4.03 6.666 4.62 29.4 4.62 32.456l-16.134-5.024c-3.232 6.456-9.682 13.716-17.748 15.33q-3.014-9.282-1.623-19.436m82.165-72.407 1.609-1.613c16.649 0 46.197 9.992 48.911-6.364 2.327-14.007-4.146-26.761-12.45-30.51-7.331-3.308-34.162-1.352-33.876-10.29.238-7.443 26.903-20.61 33.251-20.39 9.414.327 9.73 12.788 12.409 20.554 2.637 7.656 10.86 12.371 13.836-.405 1.595-6.836-6.31-17.388-11.917-21.313-2.46-7.117-.793-10.927 3.853-12.523 4.268-1.46 9.1-3.478 15.16-3.478 4.798 11.996 20.237 25.874 30.873 33.749 22.682 16.799 46.257 30.326 46.359 62.13.022 7.93-.935 18.574-.935 25.785-7.927-7.865-15.876-16.033-23.674-23.572-.104 4.238-1.916 14.121-4.415 19.153-7.936-4.86-12.754-12.715-17.36-17.662-.815 3.518-3.067 10.135-5.367 14.704-9.942-4.54-14.787-12.449-17.855-15.715-1.424 4.268-5.848 12.821-8.888 15.861-7.82.164-16.47-8.794-20.383-13.763 0 .094-12.352 12.87-14.37 12.595-16.15-2.21-34.77-22.317-34.77-26.933m-23.246 185.045c-7.664 4.034-11.343 7.194-21.027 7.194 0-8.066 3.323-18.37 6.634-22.153-4.148-.288-14.049-4.805-16.694-7.485 8.902-12.746 27.763-6.726 38.335-10.246 7.258-2.423 20.167-24.208 20.167-33.082 4.037 0 18.625-3.26 25.469-12.103 4.136 5.93 11.195 13.853 14.872 20.169-11.34 21.598-38.482 26.416-53.003 44.166 0 9.096-.244 18.139-5.422 24.336-4.882-3.508-6.291-6.742-9.331-10.796m111.097 179.753c-5.909-.582-11.917-.78-16.824-.284 5.34-9.304 21.586-17.183 32.002-17.183-5.479-12.431-7.286-36.15.382-49.215-20.656 1.061-29.791-8.536-35.851-22.814-.681-6.364 5.063-14.532 11.051-17.211 5.59-.933 7.617.788 10.358 1.419 5.752-4.121 10.888-18.404 15.25-18.404 0 25.013 10.485 45.817 37.112 45.817 3.353 2.913-.117 7.106-.808 8.07-11.046 15.345-22.24 25.268-21.524 46.203 1.146 12.93 13.274 24.994-6.505 39.525-.857-6.286-1.272-8.824-3.472-11.891-8.872 0-14.49 4.596-20.137 10.243-.612-2.98-2.466-9.105-1.034-14.275m-81.716 10.032c-1.725 1.755-3.845 4.248-2.665 11.897-6.57-2.073-11.77-10.413-12.065-14.696-2.924-.773-6.31-.037-9.747 2.397-4.78-10.714 2.153-23.013 10.686-30.016 1.887-16.207 15.814-30.852 28.589-43.12-9.058-15.642-23.133-16.8-33.168-41.842-2.657-3.905-7.141-4.44-11.725-9.575 1.213-2.433 6.605-7.676 8.46-9.038-4.731-5.757-8.661-8.69-11.758-13.448 4.526-3.323 8.767-5.448 13.328-7.613-2.085-1.542-5.068-4.159-7.02-10.033 3.545-1.397 9.543-2.848 13.52-4.919 5.337-2.789 1.512-9.389 1.917-10.34 5.645 0 17.012 2.095 20.306.628 6.142-2.73 17.698-6.152 28.168-6.284 13.072-.166 20.008 4.626 25.752 15.966-.13 3.018-.758 5.158-2.418 8.491-20.56 3.025-38.609 19.404-46.692 25.715-5.645 25.014 33.78 38.41 33.78 61.805-7.091 14.964-39.035 21.52-42.764 45.994 9.275 11.693 11.832 20.51 4.353 33.033-2.469-.458-6.558-2.72-8.837-5.002"/><path fill="#ffe600" stroke="#000" stroke-width=".20880132000000004" d="M369.856 50.667c56.77 0 103.076 46.301 103.076 103.073s-46.307 103.075-103.076 103.075c-56.771 0-103.073-46.304-103.073-103.075-.002-56.772 46.3-103.073 103.073-103.073z"/><g stroke="#0072bc"><path fill="#0072bc" stroke-width=".6736328300000001" d="m201.786 724.627 25.444-17.19 3.324 4.59-11.753 7.936 17.71.269 3.819 5.265-14.293-.642-10.31 18.979-3.816-5.26 7.778-14.024-7.12-.368-7.454 5.026zm21.98 27.927 4.528-4.077 3.997 4.139-4.529 4.076zm17.205 7.36 5.596 1.452q-.62 2.629-.157 4.382c.298 1.17.994 2.177 2.073 3.023 1.2.94 2.382 1.419 3.53 1.439q1.736.031 2.876-1.328c.592-.708.838-1.513.726-2.418-.117-.897-.637-2.11-1.576-3.64l-.56-.894c-1.665-2.67-2.711-4.65-3.149-5.946q-.644-1.944-.286-3.843c.231-1.258.818-2.446 1.743-3.552 1.576-1.874 3.59-2.834 6.033-2.869q3.663-.048 7.168 2.693c2.041 1.595 3.393 3.35 4.04 5.27.653 1.916.599 3.974-.172 6.169l-5.337-1.758q.54-2.118.105-3.664-.44-1.542-1.961-2.739c-.982-.763-1.95-1.143-2.894-1.143q-1.414.01-2.359 1.136c-.982 1.168-.524 3.368 1.355 6.6.5.817.756 1.252.785 1.312q.306.553.567 1.044c1.526 2.747 2.297 4.946 2.3 6.6.007 1.652-.652 3.276-1.994 4.874-1.795 2.135-3.945 3.254-6.443 3.343s-5.024-.857-7.567-2.84c-2.205-1.726-3.676-3.647-4.424-5.785q-1.13-3.194-.018-6.918zm24.132 25.282 3.191-5.12 5.024 2.91-3.192 5.124zm17.728 9.787 12.138-27.587 5.34 2.187-5.611 12.747 15.168-8.827 6.127 2.506-12.473 6.769 1.68 21.367-6.125-2.508-1.106-15.869-6.242 3.328-3.56 8.074zm33.803 11.596 1.601-5.772 5.665 1.464-1.6 5.772zm30.331-12.081 4.75.48c1.813.186 3.205.015 4.171-.497q1.446-.773 1.648-2.63c.142-1.283-.208-2.262-1.041-2.931q-1.259-1.007-4.31-1.317l-4.417-.453zm-1.449 13.284 4.745.48q3.158.32 4.716-.617c1.041-.614 1.645-1.708 1.812-3.254q.232-2.137-1.072-3.383-1.298-1.241-4.225-1.544l-5.016-.51zm-6.182 4.007 3.244-29.8 11.21 1.137c3.369.34 5.874 1.282 7.492 2.806q2.437 2.286 2.016 6.152c-.159 1.457-.653 2.645-1.479 3.577-.832.927-2.063 1.676-3.706 2.252q2.544 1.107 3.634 3.063c.736 1.302 1 2.87.798 4.713-.306 2.801-1.474 4.805-3.502 6q-3.047 1.794-8.797 1.21zm36.354 1.904-2.165-29.891 20.117-1.357.35 4.857-14.31.967.514 7.07 10.423-.712.346 4.785-10.423.701.587 8.089 14.934-1.01.373 5.101zm39.078-4.611-17.002-26.625 5.664-1.469 13.406 21.85.211-25.372 5.683-1.47-.91 31.264zm26.995-8.057-12.138-27.579 18.566-7.604 1.966 4.482-13.207 5.412 2.872 6.517 9.62-3.94 1.94 4.408-9.62 3.94 3.285 7.467 13.78-5.648 2.071 4.71zm24.969-30.783 4.216-2.742q2.354-1.538 2.858-3.074.508-1.547-.743-3.329c-.815-1.17-1.785-1.794-2.92-1.877-1.127-.08-2.471.38-4.015 1.385l-4.216 2.747zm5.053 17.097-17.362-24.84 8.715-5.675c1.635-1.064 3.159-1.842 4.568-2.319q2.133-.729 3.99-.582 3.647.251 6.294 4.032c1.118 1.606 1.648 3.204 1.593 4.813-.067 1.6-.72 3.117-1.959 4.56l13.5 7.43-5.207 3.389-12.009-6.843-4.424 2.878 7.044 10.072zm29.603-20.758-21.574-21.559 14.507-13.517 3.505 3.505-10.323 9.62 5.103 5.093 7.517-7.008 3.45 3.453-7.517 7.005 5.84 5.831 10.77-10.035 3.679 3.674zm22.99-23.324-25.438-17.184 3.579-4.931 17.905 1.58q2.056.205 4.094.525c.629.1 1.295.219 1.998.373q.775.155 1.999.437a44 44 0 0 1-1.755-.842 9 9 0 0 1-.845-.525 54 54 0 0 0-1.556-.99 58 58 0 0 1-1.27-.787L509.4 711.66l3.112-4.288 25.442 17.187-3.115 4.287-18.685-1.2a49 49 0 0 1-3.644-.48 83 83 0 0 1-4.482-.877c.54.263.987.487 1.355.67.372.18.738.398 1.1.642.346.234.866.57 1.57 1s1.165.72 1.376.867l14.065 9.5z"/><path fill="#0072bc" stroke-width="4.039311250000001" d="M369.856 60.975a92.2 92.2 0 0 1 26.59 3.9l-6.112 10.117.022.03 17.147 25.834 35.08 14.812 7.724-8.034a92.16 92.16 0 0 1 12.32 46.11c0 1.403-.038 2.797-.103 4.184l-9.339-2.702-18.859 24.194-.027 33.855 4.387 2.548c-11.16 12.362-25.596 21.723-41.91 26.692l.262-8.807-27.18-15.146-27.176 15.146.261 8.807c-16.314-4.971-30.753-14.328-41.914-26.692l4.392-2.548-.027-33.855-18.86-24.194-9.34 2.702a90 90 0 0 1-.1-4.183c0-16.764 4.484-32.516 12.32-46.11l7.717 8.033 35.086-14.812 17.147-25.834.017-.03-6.115-10.117a92.2 92.2 0 0 1 26.59-3.9z"/><path fill="#ffe600" stroke-width="4.039311250000001" d="M354.686 135.795h30.34l7.92 29.565-23.09 13.329-23.095-13.329zM398.842 170.344l-23.875 13.746-.057 28.88 25.523 14.01 26.762-14.05-.07-32.056zM391.917 131.967l8.332 30.913 29.593 10.847 18.108-23.753-7.362-27.231-34.393-14.082zM355.802 78.686h28.104l15.523 24.534-15.523 25.17h-28.104l-14.999-24.82.022-.035-.022-.03.05-.014zM340.87 170.344l23.876 13.746.057 28.88-25.529 14.01-26.758-14.05.074-32.056zM347.793 131.967l-8.33 30.913-29.592 10.847-18.109-23.753 7.358-27.231 34.392-14.082z"/></g></svg>