<svg enable-background="new 0 0 612 792" viewBox="0 0 612 792" xmlns="http://www.w3.org/2000/svg"><path d="m99.264 113.39h416.472v566h-416.472z" fill="#3069b3"/><path d="m99.264 594.088h416.472v72.255h-416.472z" fill="#f0e92b"/><path d="m99.264 126.436h416.472v52.184h-416.472z" fill="#f0e92b"/><g fill="#3069b3"><path d="m161.889 603.689v9.722h-19.216v43.331h-13.215v-43.331h-19.215v-9.722z"/><path d="m215.04 647.021v9.722h-39.115v-53.053h38.584v9.722h-25.368v11.127h24.191v9.722h-24.191v12.76z"/><path d="m230.975 603.689h23.697c5.139 0 9.316 1.487 12.532 4.459 3.215 2.974 4.823 6.572 4.823 10.798 0 5.845-3.038 10.17-9.114 12.978 2.663 1.211 5.194 4.474 7.594 9.787 2.4 5.314 4.716 10.324 6.951 15.03h-14.502c-.866-1.746-2.375-5.076-4.525-9.987-2.152-4.911-3.993-8.064-5.524-9.457-1.532-1.392-3.171-2.088-4.918-2.088h-3.797v21.532h-13.216v-53.052zm13.215 9.723v12.077h6.987c2.228 0 3.994-.525 5.298-1.577 1.304-1.05 1.956-2.55 1.956-4.499 0-4-2.519-6.001-7.557-6.001z"/><path d="m317.98 623.362 17.052-19.672h11.487v53.053h-13.215v-33.115l-14.332 16.633h-1.985l-14.329-16.633v33.115h-13.216v-53.053h11.475z"/><path d="m377.759 603.689v53.053h-13.215v-53.053z"/><path d="m435.087 647.021v9.722h-39.115v-53.053h38.584v9.722h-25.368v11.127h24.191v9.722h-24.191v12.76z"/><path d="m504.759 603.689v53.053h-11.162l-29.283-33.988v33.988h-13.215v-53.053h12.118l28.326 32.432v-32.432z"/><path d="m138.279 163.369v6.272h-25.235v-34.227h24.893v6.272h-16.367v7.179h15.607v6.272h-15.607v8.232z"/><path d="m177.656 163.369v6.272h-25.235v-34.227h24.893v6.272h-16.367v7.179h15.607v6.272h-15.607v8.232z"/><path d="m226.369 135.414v34.227h-7.201l-18.893-21.928v21.928h-8.526v-34.227h7.818l18.275 20.924v-20.924z"/><path d="m241.54 135.414h15.092c5.831 0 10.441 1.597 13.831 4.79 3.389 3.193 5.084 7.322 5.084 12.385 0 5.309-1.72 9.478-5.158 12.508s-8.342 4.545-14.712 4.545h-14.137zm8.525 6.272v21.683h5.562c3.609 0 6.37-.992 8.281-2.977 1.911-1.984 2.866-4.602 2.866-7.853 0-3.364-.968-6.015-2.903-7.95-1.936-1.936-4.716-2.903-8.342-2.903z"/><path d="m289.345 135.414h15.288c3.315 0 6.011.959 8.085 2.877 2.075 1.918 3.111 4.24 3.111 6.966 0 3.771-1.96 6.562-5.88 8.373 1.718.782 3.352 2.887 4.899 6.315 1.548 3.428 3.043 6.66 4.485 9.696h-9.357c-.559-1.127-1.532-3.275-2.919-6.444-1.388-3.169-2.576-5.202-3.564-6.101-.988-.898-2.046-1.347-3.173-1.347h-2.45v13.892h-8.526v-34.227zm8.526 6.272v7.791h4.508c1.437 0 2.577-.338 3.418-1.017.841-.678 1.262-1.645 1.262-2.903 0-2.581-1.625-3.871-4.875-3.871z"/><path d="m350.859 135.414 15.202 34.227h-9.168l-2.821-6.762h-15.328l-2.556 6.762h-9.035l13.825-34.227zm.721 21.487-5.547-13.304-5.028 13.304z"/><path d="m407.423 159.204v7.473c-4.28 2.271-8.763 3.406-13.451 3.406-6.076 0-10.915-1.678-14.517-5.035-3.601-3.357-5.402-7.493-5.402-12.41 0-4.916 1.899-9.09 5.696-12.52 3.798-3.43 8.759-5.145 14.885-5.145 4.883 0 9.016 1.005 12.397 3.014v7.62c-4.15-2.335-8.077-3.503-11.785-3.503-3.643 0-6.62.976-8.931 2.928s-3.466 4.439-3.466 7.46c0 3.038 1.14 5.545 3.418 7.522 2.28 1.977 5.198 2.965 8.759 2.965 1.764 0 3.462-.233 5.096-.698 1.633-.468 4.067-1.492 7.301-3.077z"/><path d="m455.891 135.414v34.227h-8.526v-13.843h-17.052v13.843h-8.526v-34.227h8.526v13.745h17.052v-13.745z"/><path d="m501.956 135.414v6.272h-12.396v27.955h-8.526v-27.955h-12.398v-6.272z"/></g><path d="m511.728 323.745-113.408-69.189 117.415-58.415v-9.7l-134.265 66.901 121.247 78.735-121.407 112.258c-6.85-6.87-30.107-27.085-66.656-27.085-42.083 0-71.563 19.341-81.863 27.251l-133.527-151.886v28.572l191.677 266.88 224.795-243.981v-24.047zm-212.423 196.416-51.06-58.081c9.286-7.109 34.121-23.735 63.352-23.735 27.07 0 45.225 18.26 50.251 23.985z" fill="#fff"/><path d="m135.046 230.647c-5.354 0-9.022-5.017-9.106-14.08 0-9.232 4.005-14.249 9.569-14.249 5.733 0 9.064 5.143 9.064 13.87 0 9.316-3.499 14.459-9.485 14.459zm.169-2.866c3.752 0 5.564-4.426 5.564-11.424 0-6.745-1.686-11.172-5.564-11.172-3.372 0-5.564 4.3-5.564 11.172-.084 7.125 2.107 11.424 5.523 11.424z" fill="#fff"/><path d="m165.943 202.782v2.445l-11.931 24.956h-3.794l11.846-24.24v-.085h-13.406v-3.077h17.285z" fill="#fff"/><path d="m172.135 227.612c.801.042 1.729 0 2.993-.169 2.15-.253 4.173-1.138 5.733-2.656 1.813-1.644 3.12-4.047 3.626-7.293h-.126c-1.518 1.855-3.71 2.951-6.492 2.951-4.932 0-8.094-3.71-8.094-8.431 0-5.144 3.794-9.696 9.401-9.696s9.064 4.511 9.064 11.551c0 6.028-2.024 10.244-4.722 12.899-2.107 2.024-5.016 3.331-7.967 3.668-1.349.168-2.571.253-3.415.211v-3.035zm6.703-22.469c-3.12 0-5.354 2.783-5.354 6.661 0 3.415 2.066 5.818 5.27 5.818 2.487 0 4.426-1.223 5.438-2.866.169-.338.295-.759.295-1.349.042-4.722-1.729-8.263-5.607-8.263h-.042z" fill="#fff"/><path d="m199.869 206.239h-.084l-4.764 2.572-.717-2.825 5.986-3.204h3.162v27.401h-3.583z" fill="#fff"/><path d="m215.8 227.612c.801.042 1.729 0 2.993-.169 2.15-.253 4.173-1.138 5.733-2.656 1.813-1.644 3.12-4.047 3.626-7.293h-.127c-1.518 1.855-3.71 2.951-6.492 2.951-4.932 0-8.094-3.71-8.094-8.431 0-5.144 3.794-9.696 9.401-9.696s9.064 4.511 9.064 11.551c0 6.028-2.024 10.244-4.722 12.899-2.107 2.024-5.017 3.331-7.967 3.668-1.349.168-2.571.253-3.415.211zm6.703-22.469c-3.12 0-5.354 2.783-5.354 6.661 0 3.415 2.066 5.818 5.27 5.818 2.487 0 4.426-1.223 5.438-2.866.169-.338.295-.759.295-1.349.042-4.722-1.729-8.263-5.607-8.263h-.042z" fill="#fff"/></svg>