<svg xmlns="http://www.w3.org/2000/svg" viewBox="0 0 612 792"><path d="M524.743 300.619a169.4 169.4 0 0 0-23.893-20.013v-26.22l-14.962-14.963H328.023v-71.076h199.763v-81.55l-14.964-14.963H218.043v225.212c-.919.208-1.829.399-2.77.647-10.463 2.762-19.783 7.733-27.703 14.775-7.964 7.086-13.726 15.455-17.126 24.872-3.479 9.639-3.992 19.263-1.525 28.609 1.676 6.351 4.735 12.007 9.092 16.815 4.174 4.603 10.232 9.219 18.523 14.108l.145.084c1.638.905 3.091 1.696 4.379 2.384 1.463.943 2.986 1.895 4.619 2.857l.145.084c4.247 2.348 7.279 3.939 9.299 4.891 1.061.549 2.029 1.052 2.922 1.518v4.996c-1.192-.976-2.42-1.727-3.71-2.223-.973-.371-1.979-.575-3.001-.695-1.943-2.247-3.957-3.789-6.143-4.629-2.562-.976-5.298-1.083-8.152-.33-3.746.989-7.687 3.26-12.045 6.946-4.137 3.495-7.465 7.36-9.89 11.483-2.873 4.889-3.731 9.635-2.551 14.107 1.688 6.392 7.058 12.105 16.417 17.472a86 86 0 0 0 4.137 2.151 63 63 0 0 0 5.006 3.172c6.563 3.665 13.236 6.304 19.932 7.929v26.978l14.963 14.964h32.809a169.4 169.4 0 0 0 20.981 25.741c31.54 31.779 73.564 49.374 118.333 49.545 44.773.17 86.93-17.102 118.705-48.639 31.779-31.537 49.375-73.561 49.546-118.331.172-44.771-17.101-86.929-48.637-118.708M156.905 337.22c-1.29-4.889-4.994-7.997-11.021-9.314-3.038-4.186-8.953-6.222-17.686-6.042-8.645.18-20.969 2.412-37.68 6.822-8.312 2.193-15.171 4.383-20.392 6.51-5.395 2.204-9.988 4.659-13.657 7.299-4.502 3.227-8.042 8.531-10.513 15.758-2.445 7.163-2.975 13.48-1.577 18.779 1.201 4.553 4.473 7.839 9.212 9.25.652.193 1.327.339 2.014.462 1.673 2.281 4.096 3.96 7.129 4.863 3.805 1.131 8.211 1.052 13.099-.238 2.607-.688 7.461-2.478 19.713-9.681 1.411 10.314 2.494 19.434 3.195 27.119.937 10.247 1.657 23.104 2.154 38.256a8.6 8.6 0 0 0-4.662-.943c-.479-.793-.989-1.53-1.566-2.154-2.521-2.725-5.858-3.791-9.158-2.92-2.464.65-4.905 2.347-7.918 5.501a54.2 54.2 0 0 0-6.497 8.336l-.095.15-.088.155c-3.286 5.924-5.331 12.808-6.075 20.457a63.3 63.3 0 0 0 1.799 22.364c2.678 10.152 8.359 19.178 16.888 26.831 4.407 3.952 8.672 6.725 12.774 8.338 7.872 6.011 15.257 8.163 22.001 6.383 4.949-1.307 9.441-3.776 13.35-7.34 3.729-3.421 7.008-7.89 9.755-13.293 2.64-5.201 4.823-11.273 6.491-18.057 7.19-28.92 11.088-64.416 11.585-105.486.233-9.95.088-21.352-.433-33.821-.716-17.264-1.566-22.161-2.141-24.344"/><path fill="#c41425" d="M231.732 432.955c.592-.287.854-.684 1.081-1.265.56-1.433.494-3.564-.192-6.159-1.205-4.566-4.036-8.699-8.592-12.611v8.071a78 78 0 0 1 2.149 3.621c2.699 4.572 4.47 7.029 5.554 8.343"/><path fill="#c41425" d="M506.837 147.399v-69.58H224.028v218.102c8.408-1.143 15.773-.405 21.975 2.213 2.956 1.248 5.566 2.874 7.843 4.855.431.161.88.29 1.3.469 8.813 3.72 14.634 10.736 17.305 20.849 1.28 4.85 1.318 10.2.117 15.904-1.145 5.435-3.308 10.832-6.402 15.997-2.165 3.69-4.297 6.579-6.51 8.824-1.216 1.238-2.407 2.229-3.592 3.031 4.01 2.314 7.467 4.516 10.3 6.621 4.766 3.543 8.644 7.417 11.529 11.515 2.939 4.174 5.141 8.987 6.543 14.301 2.415 9.152 2.351 18.727-.193 28.461-2.527 9.647-7.08 18.209-13.54 25.457-6.631 7.424-14.381 12.347-23.036 14.63-7.615 2.011-15.563 2.398-23.639 1.193v19.817h83.047V314.989h172.827v-69.58H307.075v-98.01z"/><path d="M235.835 135.543V89.519h-2.913v-1.92h24.151l.358 14.214h-1.37c-1.545-7.298-2.557-12.369-9.875-12.369h-2.379v20.975c4.401.078 5.413-3.073 5.533-8.759h1.487v20.669h-1.309c-.655-6.608-1.31-9.835-5.711-9.912v23.127h3.45v1.844h-14.336v-1.844h2.914zM289.197 112.647c0 14.982-6.662 25.739-14.693 25.739s-14.694-10.757-14.694-25.739c0-15.136 6.663-25.816 14.694-25.816s14.693 10.68 14.693 25.816m-9.161-10.143c0-12.292-2.082-13.83-5.532-13.83s-5.532 1.537-5.532 13.83v22.206c0 9.221 2.379 11.831 5.532 11.831s5.532-2.61 5.532-11.831zM313.171 135.543c-2.022 1.767-4.401 2.842-6.841 2.842-5.652 0-13.919-6.3-13.919-25.739 0-14.522 6.365-25.816 14.276-25.816 2.559 0 4.939 1.613 6.663 4.073l1.428-3.305h1.071v13.983h-1.188c-.894-5.608-2.44-12.907-7.854-12.907-5.058 0-5.176 8.144-5.236 12.984v22.282c0 8.759 2.024 12.6 5.949 12.6 3.868 0 6.724-6.299 7.378-13.138h1.25v14.444h-1.25zM346.067 135.543v1.844h-12.908v-1.844h2.795l-2.736-13.062h-7.733l-2.677 13.062h3.569v1.844h-8.091v-1.844h2.795l10.352-47.945h2.321l10.113 47.945zm-16.596-31.117h-.12l-3.39 15.981h6.84zM356.3 137.388h-8.389v-1.844h3.153v-46.1h-3.153v-1.845h10.827l11.779 29.812h.119V89.443h-3.212v-1.845h8.03v1.845h-3.035v48.789h-2.2l-17.251-43.565h-.119v40.876h3.45v1.845zM387.829 89.443h-1.07c-5.473 0-6.663 10.987-6.96 14.061h-1.605l.415-15.905h26.414l.417 15.905h-1.607c-.297-3.074-1.486-14.061-6.96-14.061h-1.071v46.1h4.046v1.844h-16.061v-1.844h4.044v-46.1zM431.732 135.543v1.844h-12.91v-1.844h2.796l-2.736-13.062h-7.733l-2.678 13.062h3.57v1.844h-8.091v-1.844h2.795l10.352-47.945h2.321l10.112 47.945zm-16.597-31.117h-.119l-3.391 15.981h6.84zM448.211 135.543v1.844h-14.159v-1.844h3.094v-46.1h-3.094v-1.845h14.159v1.845h-3.095v46.1zM452.195 122.865c.417 5.764 3.152 13.676 8.448 13.676 3.51 0 5.888-3.226 5.888-7.683 0-11.909-15.764-11.217-15.764-27.813 0-9.528 3.809-14.214 9.279-14.214 2.678 0 4.583 1.229 6.783 3.151l1.487-2.383h1.19v13.061h-1.31c-.953-5.455-3.093-11.985-8.21-11.985-3.51 0-5.652 2.304-5.652 6.915 0 9.989 16.538 9.605 16.538 28.044 0 5.533-2.676 14.752-10.409 14.752-2.618 0-4.761-1.307-6.722-3.458l-2.023 2.459h-.952v-14.522zM497.405 137.388h-24.151v-1.844h2.618v-46.1h-2.618v-1.845h23.439l.356 12.678h-1.368c-1.963-8.836-4.223-10.834-9.161-10.834h-2.678v20.975c4.404 0 5.416-3.15 5.533-8.836h1.487v20.668h-1.31c-.651-6.607-1.307-9.834-5.711-9.834v23.127h2.797c7.675 0 9.101-7.377 9.756-14.369h1.55z"/><path fill="#c41425" d="M98.758 362.106c-1.251.711-2.423 1.377-3.504 2a478 478 0 0 0-2.512 1.456c-.59.349-2.191 1.316-4.799 2.911-11.223 6.814-18.82 10.74-22.781 11.787-3.82 1.008-7.106 1.108-9.862.288s-4.461-2.499-5.134-5.041q-1.644-6.238 1.454-15.316c2.066-6.046 4.849-10.329 8.346-12.836q4.953-3.566 12.418-6.615c4.979-2.027 11.535-4.121 19.662-6.266 16.107-4.251 28.196-6.456 36.277-6.624q12.112-.25 13.651 5.573 1.176 4.457 1.954 23.067.775 18.609.427 33.498-.742 61.207-11.413 104.132-2.353 9.569-6.013 16.772c-2.438 4.796-5.259 8.654-8.452 11.582q-4.803 4.38-10.847 5.977c-5.73 1.511-12.432-1.181-20.107-8.066-7.684-6.895-12.712-14.858-15.098-23.9a57.1 57.1 0 0 1-1.628-20.258q1-10.292 5.351-18.133a48 48 0 0 1 5.775-7.413q3.183-3.335 5.116-3.846 1.712-.452 3.235 1.195c1.014 1.098 1.838 2.845 2.474 5.253q.448 1.701.723 6.29c.998 14.136 2.775 26.023 5.317 35.653 1.384 5.244 3.155 9.661 5.315 13.264 1.366-4.992 2.226-9.959 2.564-14.901.575-13.952.729-26.737.459-38.346q-.745-28.587-2.424-46.979c-1.119-12.254-3.1-27.643-5.944-46.158M199.576 391.719q-11.535-6.805-17.129-12.975c-5.594-6.17-6.304-8.885-7.739-14.322-2.16-8.183-1.705-16.537 1.368-25.049s8.229-15.986 15.474-22.432q10.862-9.66 25.253-13.46c10.862-2.867 19.825-2.808 26.873.169 7.048 2.975 11.664 8.6 13.846 16.863 1.043 3.956 1.058 8.341.046 13.141q-1.518 7.202-5.707 14.202c-1.889 3.22-3.759 5.774-5.62 7.662-1.857 1.892-3.529 3.029-5.021 3.422-1.849.488-3.14-.677-3.885-3.503.018.075-.129-1.053-.432-3.392-.444-3.425-1.005-6.446-1.694-9.057q-1.451-5.493-4.504-10.629-3.05-5.133-6.542-8.229-3.5-3.095-5.746-2.504-1.127.3-2.081 2.466c-1.322 2.459-2.106 5.284-2.36 8.469q-.376 4.786.627 8.582 1.252 4.75 3.451 8.515c1.468 2.513 3.699 4.88 6.706 7.104q4.507 3.342 11.46 6.937c7.346 3.805 13.156 7.289 17.429 10.466 4.271 3.177 7.673 6.558 10.207 10.157q3.805 5.399 5.65 12.383 3.238 12.278-.194 25.418-3.441 13.143-12.215 22.985c-5.856 6.557-12.554 10.84-20.099 12.832-7.201 1.899-14.63 2.199-22.284.911q-11.494-1.936-22.768-8.227c-7.828-4.487-12.361-9.087-13.606-13.808-.761-2.882-.121-6.067 1.923-9.545 2.094-3.564 4.962-6.877 8.596-9.945 3.628-3.067 6.865-4.98 9.707-5.731 1.634-.431 3.127-.383 4.479.13q2.028.78 4.133 3.359 2.104 2.584 4.705 7.245 3.906 6.615 6.523 9.626c1.746 2.012 3.95 3.878 6.607 5.607 2.695 1.573 5.214 2.046 7.553 1.429 2.836-.749 4.782-2.453 5.823-5.121 1.044-2.67 1.052-5.955.021-9.865-1.61-6.104-5.465-11.615-11.554-16.543-1.864-1.708-3.799-3.15-5.798-4.334-2.003-1.176-6.123-3.385-12.361-6.615q-2.816-1.31-9.121-4.794"/><path fill="#c7c8ca" d="M558.157 378.94c.659-2.09 1.223-4.659 1.279-7.458-6.716-21.959-18.316-42.452-33.763-59.761a166.4 166.4 0 0 1 17.354 50.546c6.678 6.71 11.869 12.706 15.13 16.673M332.668 552.198c9.826 5.63 21.606 10.868 34.192 13.228 12.288-.024 23.585-4.092 32.126-8.386a169 169 0 0 1-21.148 1.323c-15.653 0-30.8-2.152-45.17-6.165M371.125 572.157c1.082 1.751 2.669 3.294 3.927 4.271a163 163 0 0 0 30.103 2.95c28.787.109 56.858-7.467 81.427-21.815-1.215-1.972-2.493-4.724-3.228-7.936-10.234 3.146-38.837 10.459-65.208 3.846l-.537.13c-5.195 3.957-23.914 16.992-46.484 18.554M522.842 493.561c-12.833 30.256-28.82 48.292-33.044 52.743.303 3.08 1.569 5.817 2.705 7.651 9.482-6.106 18.392-13.204 26.46-21.209 18.527-18.389 32.385-41.1 40.114-65.697-.04-2.802-.585-5.369-1.227-7.456-6.035 7.233-18.59 21.231-35.008 33.968M555.948 387.259c-1.109-1.443-5.143-6.575-11.333-13.296a170 170 0 0 1 .834 16.79c0 34.291-10.306 66.174-27.98 92.732.97 1.036 1.945 2.092 2.933 3.176 19.293-15.359 33.079-32.559 35.303-35.403.764-2.603 4.415-15.867 4.477-31.982l.001-.417c-.001-15.92-3.497-29.009-4.235-31.6"/><g fill="#fff"><path d="M412.423 346.619c-29.302 8.952-57.245 30.968-63.038 35.707-.447 4.488-1.744 18.917-1.81 36.136l-.002 1.371c0 16.593 1.133 30.393 1.536 34.776 5.748 4.783 33.487 27 62.76 36.19 33.062-10.852 60.58-33.233 66.077-37.892.564-4.177 2.21-17.707 2.271-33.939l.001-.965c0-15.797-1.488-28.883-2.01-32.989-5.46-4.698-32.801-27.286-65.785-38.395M523.412 344.707c7.423 5.851 14.035 11.953 19.616 17.56-3.08-17.989-9.026-35-17.354-50.546a160 160 0 0 0-5.842-6.228 161 161 0 0 0-18.981-16.328v14.975c6.626 9.117 15.151 22.717 22.561 40.567M328.023 366.801c8.151 3.923 14.529 7.59 17.772 9.534 7.016-5.646 34.631-26.87 63.647-36.021.268-1.448.521-2.911.764-4.376h-82.184zM290.755 530.874c1.958.337 4.326.602 6.639.663-2.115-4.563-5.297-12.066-7.733-20.527h-15.415a162 162 0 0 0 16.509 19.864M345.473 460.574c-3.204 1.891-9.458 5.422-17.449 9.213v41.223h-31.108c3.288 10.639 7.651 19.548 8.648 21.523 1.826 1.703 12.214 11.136 27.105 19.665 14.37 4.013 29.517 6.165 45.17 6.165 7.163 0 14.221-.451 21.148-1.323 7.138-3.59 12.358-7.339 14.56-9.031-.149-6.156-.958-29.829-4.703-50.925-28.986-9.388-56.405-30.809-63.371-36.51M417.608 553.602l.537-.13q-.138-.033-.275-.065c-.074.057-.181.136-.262.195M544.615 373.963c-6.063-6.582-14.19-14.69-23.693-22.375-16.935 18.304-31.024 29.608-35.765 33.235.586 4.819 1.98 17.882 1.98 33.201q0 .486-.002.973c-.059 15.751-1.604 29.252-2.24 34.157 4.44 3.456 17.134 13.799 32.573 30.331 17.675-26.558 27.98-58.44 27.98-92.732a169 169 0 0 0-.833-16.79"/></g></svg>