<svg xmlns="http://www.w3.org/2000/svg" viewBox="0 0 612 792"><path d="M305.153 111.062c-.233.244-23.839 24.736-66.119 49.696-39.012 23.03-102.356 51.18-182.586 54.498l-1.034.043.609.837c.254.348 25.356 35.433 25.356 85.939 0 48.104-13.636 69.674-26.822 90.535-12.995 20.557-26.432 41.813-26.432 88.243 0 80.893 65.811 146.703 146.703 146.703 27.432 0 39.004-3.885 48.303-7.006 5.845-1.962 10.461-3.512 17.45-3.512 34.418 0 60.308 22.181 64.424 55.194l.55 4.409.55-4.409c4.117-33.014 30.006-55.194 64.424-55.194 6.989 0 11.606 1.549 17.451 3.512 9.298 3.121 20.871 7.006 48.303 7.006 80.892 0 146.703-65.81 146.703-146.703 0-46.43-13.438-67.686-26.433-88.243-13.187-20.86-26.823-42.431-26.823-90.535 0-50.507 25.103-85.591 25.356-85.939l.609-.836-1.034-.044c-80.229-3.319-143.574-31.469-182.586-54.498-42.28-24.96-65.886-49.452-66.119-49.696l-.4-.42z"/><path fill="#fff" d="M239.598 161.711c39.498-23.318 62.762-46.244 65.956-49.477 3.195 3.233 26.458 26.159 65.956 49.477 38.96 22.999 102.132 51.072 182.117 54.592-3.617 5.342-25.006 38.928-25.006 85.772 0 48.424 13.723 70.133 26.994 91.126 12.911 20.424 26.261 41.542 26.261 87.651 0 80.282-65.313 145.595-145.595 145.595-27.249 0-38.726-3.852-47.948-6.947-5.941-1.995-10.632-3.57-17.805-3.57-33.848 0-59.524 21.14-64.974 52.911-5.449-31.771-31.125-52.911-64.974-52.911-7.172 0-11.863 1.576-17.803 3.57-9.225 3.096-20.701 6.948-47.95 6.948-80.281 0-145.594-65.313-145.594-145.595 0-46.109 13.35-67.228 26.26-87.651 13.271-20.994 26.994-42.703 26.994-91.126 0-46.843-21.389-80.428-25.007-85.772 79.985-3.52 143.158-31.593 182.118-54.593"/><path fill="#38499e" d="m211.837 275.908-22.077-22.739c-.666-.654-.737-.988-.737-1.102 0-.003.017-.311.978-1.048l18.67-16.319c2.219-1.785 4.094-3.048 5.555-3.742 1.403-.726 2.466-1.188 3.176-1.381.012-.003 1.758-.604 1.758-.604.575-.281.64-.993.64-1.504-.097-.653-.447-1.031-.969-1.124-.022-.003-1.038-.086-1.038-.086-1.7.154-4.174.269-7.405.344l-8.446-.344c-1.014-.001-1.604.541-1.604 1.449 0 .322.142.909 1.092 1.213l1.512.638a5.2 5.2 0 0 1 1.453.752c.257.236.401.583.401 1.026 0 .36-.173.775-.515 1.235q-.602.845-1.537 1.724l-3.43 2.972-16.113 14.269a1.3 1.3 0 0 1-.312.195l-.023-.197v-17.571c0-1.283.226-2.24.672-2.844.444-.61.92-1.051 1.415-1.313l1.627-.957c.777-.374.9-.985.9-1.315 0-.942-.61-1.278-1.182-1.278l-8.214.344-7.7-.344c-1.006-.001-1.593.515-1.593 1.378 0 .488.273 1.126 1.574 1.391h-.001c0 .004 2.154.713 2.154.713.828.234 1.517.669 2.124 1.336.488.633.775 1.735.823 3.242v40.119c0 1.504-.237 2.591-.706 3.23-.516.74-1.103 1.255-1.753 1.542-2.53.645-3.029 1.175-3.178 1.647l-.026.082v.086c0 .785.402 1.342 1.132 1.569.007-.003 1.449.254 1.449.254q1.889-.218 7.781-.289c6.197.107 7.469.194 7.673.237l.089.019.046.033 1.385-.162c1.007-.098 1.253-.719 1.307-1.08-.067-1.06-.64-1.688-1.609-1.891-.007 0-2.686-.54-2.686-.54-.864-.197-1.634-.676-2.314-1.458-.801-.765-1.189-2.107-1.189-4.029v-16.36l.038-.232c.257-.01.593.074 1.168.634l22.597 23.002 1.108 1.155c.449.565 1.012.892 1.663.96.121 0 5.122-.286 5.124-.286 0 .002 4.973.288 4.973.288.939-.076 1.475-.624 1.554-1.503l.027-.303-.239-.188c-.098-.076-.29-.224-9.042-4.945M235.651 274.504c-.953-1.037-1.221-1.514-1.292-1.703l-.034-.09-.063-.074c-.391-.462-.929-.707-1.556-.707-.474-.054-1.208.229-2.948 2.669-.812.716-1.298.983-1.549 1.066-.976.494-1.163 1.131-1.163 1.586l.003.059c.051.483.428 1.21 2.838 2.939.911.827 1.306 1.28 1.468 1.506.22.494.718.815 1.35.815.516 0 1.278-.288 3.004-2.424.696-.711 1.286-1.198 1.719-1.412.784-.498.936-1.079.936-1.483-.054-.562-.435-1.282-2.713-2.747M286.112 270.642l-.236-.058-.204.134c-.116.076-.387.255-4.625 4.089-1.368.967-3.484 1.857-6.236 2.605-1.399.376-3.015.695-4.801.947-1.881.251-3.979.379-6.23.379-1.576 0-2.78-.121-3.579-.361-.712-.213-1.193-.527-1.43-.936-.258-.467-.392-1.087-.392-1.835l-.078-2.845v-38.255c0-1.509.277-2.645.826-3.376.524-.686 1.107-1.144 1.727-1.358.025-.01 1.964-.626 1.964-.626 1.131-.198 1.303-.856 1.303-1.23 0-.499-.156-.899-.462-1.191-.363-.345-.915-.502-1.641-.466q-1.34.232-7.602.344c-1.883 0-3.473-.063-4.715-.188l-3.322-.156q-1.175-.059-1.733.472c-.192.183-.42.514-.42 1.049 0 .66.529 1.102 1.573 1.314-.069-.019 2.124.779 2.124.779.885.206 1.6.563 2.199 1.085.479.413.733 1.048.778 1.943l-.001 39.734c0 1.794-.101 3.241-.3 4.302-.237.954-.759 1.621-1.588 2.009l-1.494.643-1.154.474c-.887.331-1.146.942-1.2 1.394-.004.464.169 1.391 1.761 1.391l9.75-.293 18.132.293c1.714 0 3.186-.104 4.383-.311 1.246-.281 2.53-1.111 3.847-2.474 1.033-1.059 1.988-2.304 2.838-3.698.798-1.313 1.231-2.729 1.287-4.211.001-.805-.382-1.349-1.049-1.512M301.966 274.504c-.953-1.037-1.221-1.514-1.292-1.703l-.035-.09-.063-.074c-.391-.462-.929-.707-1.556-.707-.474-.054-1.207.229-2.948 2.669-.811.716-1.298.983-1.549 1.066-.975.494-1.163 1.131-1.163 1.586l.003.059c.051.483.428 1.21 2.838 2.939.911.827 1.306 1.28 1.468 1.506.221.494.718.815 1.35.815.517 0 1.278-.288 3.004-2.424.696-.711 1.286-1.198 1.719-1.412.784-.498.936-1.079.936-1.483-.052-.562-.433-1.282-2.712-2.747M346.123 254.456a23.7 23.7 0 0 0-5.231-3.193 45 45 0 0 0-6.163-2.028l-5.89-1.797c-1.918-.504-3.649-1.149-5.165-1.922-1.448-.75-2.615-1.704-3.467-2.833-.884-1.108-1.328-2.49-1.328-4.118.048-3.45 1.324-5.87 3.898-7.391 2.554-1.529 5.436-2.303 8.567-2.303 7.223 0 12.041 3.249 14.729 9.931.004.011.78 1.405.78 1.405.289.822.776 1.294 1.393 1.294.577-.037.977-.224 1.227-.554.251-.333.32-.775.205-1.314l-1.197-10.629c-.206-1.456-1.139-1.611-1.53-1.611-.708 0-1.072.346-1.253.638-.1.156-.223.222-.421.222-.096-.015-.736-.179-3.195-1.296-1.012-.434-2.341-.778-3.963-1.026-1.657-.246-3.754-.371-6.236-.371-4.767 0-8.975 1.248-12.507 3.709-3.745 2.498-5.676 6.411-5.729 11.627 0 2.6.509 4.836 1.512 6.65a12.85 12.85 0 0 0 3.82 4.479c1.565 1.176 3.382 2.158 5.398 2.916l5.916 2.046 6.087 1.653c1.815.571 3.499 1.28 4.993 2.102 1.488.734 2.649 1.706 3.473 2.9.787 1.152 1.188 2.648 1.188 4.443-.101 3.927-1.545 6.795-4.415 8.752-2.827 2.08-6.22 3.128-10.1 3.128-2.621 0-4.911-.458-6.807-1.36-2.046-.826-3.713-1.844-4.987-3.039-1.283-1.254-2.305-2.527-3.032-3.776-.782-1.257-1.272-2.307-1.465-3.135 0-.021-.15-1.154-.15-1.154l-.286-.924c-.294-.613-.875-.957-1.629-.957-.585 0-.931.266-1.117.49-.429.513-.522 1.344-.292 2.616l2.138 10.105c.178.528.713.967 1.808 1.534.877.458 1.976.919 3.263 1.37 2.727 1.078 5.737 1.667 8.928 1.742 4.576-.077 8.447-.683 11.528-1.799 3.017-1.045 5.421-2.461 7.134-4.205 1.734-1.736 2.982-3.626 3.707-5.615.669-1.901 1.006-3.746 1.006-5.491 0-2.78-.449-5.184-1.334-7.143a15.3 15.3 0 0 0-3.809-4.768M364.168 274.504c-.953-1.037-1.221-1.514-1.292-1.703l-.034-.09-.063-.074c-.391-.462-.929-.707-1.556-.707-.474-.054-1.208.229-2.948 2.669-.811.716-1.298.983-1.549 1.066-.975.494-1.163 1.131-1.163 1.586l.003.059c.051.483.428 1.21 2.838 2.939.911.827 1.306 1.28 1.468 1.506.221.494.718.815 1.35.815.516 0 1.278-.288 3.004-2.424.696-.711 1.286-1.198 1.719-1.412.784-.498.936-1.079.936-1.483-.053-.562-.434-1.282-2.713-2.747M415.788 275.908l-22.077-22.739c-.666-.654-.737-.988-.737-1.102 0-.003.017-.311.978-1.048l18.67-16.319c2.22-1.785 4.094-3.048 5.555-3.742 1.403-.726 2.466-1.188 3.176-1.381.012-.003 1.758-.604 1.758-.604.575-.281.64-.993.64-1.504-.097-.653-.447-1.031-.969-1.124-.022-.003-1.038-.086-1.038-.086-1.7.154-4.174.269-7.405.344l-8.446-.344c-1.014-.001-1.604.541-1.604 1.449 0 .322.142.909 1.092 1.213l1.512.638a5.2 5.2 0 0 1 1.453.752c.257.236.401.583.401 1.026 0 .36-.173.775-.515 1.235-.4.562-.915 1.139-1.537 1.724l-3.43 2.972-16.112 14.269a1.3 1.3 0 0 1-.312.195l-.023-.197v-17.571c0-1.283.226-2.24.672-2.844.444-.61.92-1.051 1.415-1.313l1.626-.957c.778-.374.9-.985.9-1.315 0-.942-.61-1.278-1.182-1.278l-8.214.344-7.7-.344c-1.006-.001-1.593.515-1.593 1.378 0 .488.273 1.126 1.574 1.391h-.001c0 .004 2.154.713 2.154.713.828.234 1.517.669 2.124 1.336.488.633.775 1.735.823 3.242v40.119c0 1.504-.237 2.591-.706 3.23q-.776 1.11-1.753 1.542c-2.53.645-3.029 1.175-3.178 1.647l-.026.082v.086c0 .785.402 1.342 1.132 1.569.007-.003 1.449.254 1.449.254q1.889-.218 7.781-.289c6.197.107 7.469.194 7.673.237l.089.019.046.033 1.385-.162c1.007-.098 1.253-.719 1.307-1.08-.067-1.06-.64-1.688-1.609-1.891-.007 0-2.686-.54-2.686-.54-.864-.197-1.634-.676-2.314-1.458-.801-.765-1.189-2.107-1.189-4.029v-16.36l.038-.232c.257-.01.593.074 1.167.634l22.597 23.002 1.108 1.155c.449.565 1.012.892 1.663.96.121 0 5.122-.286 5.124-.286 0 .002 4.974.288 4.974.288.938-.076 1.475-.624 1.553-1.503l.027-.303-.239-.188c-.098-.076-.289-.224-9.041-4.945M439.602 274.504c-.953-1.037-1.221-1.514-1.293-1.703l-.034-.09-.063-.074c-.391-.462-.929-.707-1.556-.707-.474-.054-1.208.229-2.948 2.669-.811.716-1.298.983-1.549 1.066-.976.494-1.163 1.131-1.163 1.586l.003.059c.051.483.428 1.21 2.838 2.939.911.827 1.306 1.28 1.468 1.506.22.494.718.815 1.35.815.517 0 1.277-.288 3.004-2.424.696-.711 1.286-1.198 1.719-1.412.784-.498.936-1.079.936-1.483-.053-.562-.434-1.282-2.712-2.747"/><path fill="#ee2624" d="M323.648 128.404c-10.379-8.508-16.56-14.616-18.094-16.169-1.535 1.553-7.714 7.661-18.093 16.168v86.759h36.188zM287.46 540.305v93.507c9.297 8.987 15.681 20.963 18.093 35.03 2.413-14.067 8.797-26.044 18.094-35.031v-93.504a85 85 0 0 1-18.094 1.934 85.3 85.3 0 0 1-18.093-1.936M323.648 374.338v-80.464H287.46v80.467c5.831-1.266 11.883-1.936 18.094-1.936s12.264.667 18.094 1.933M388.189 215.163h36.187V187.84a404 404 0 0 1-36.187-16.828zM388.189 619.453l.142.047c7.749 2.6 17.093 5.735 36.045 6.671V293.874h-36.187zM86.004 215.163h36.188v-7.304a383 383 0 0 1-36.188 6.106zM86.004 596.131a145.6 145.6 0 0 0 36.188 20.468V293.874H86.004zM186.732 626.171c18.952-.935 28.296-4.07 36.045-6.671l.142-.048V293.874h-36.187zM186.732 215.163h36.187v-44.152a404 404 0 0 1-36.187 16.828zM488.917 215.163h36.188v-1.197a384 384 0 0 1-36.188-6.106zM488.917 616.598a145.6 145.6 0 0 0 36.188-20.468V293.874h-36.188z"/><g fill="#38499e"><path d="M376.624 410.888V293.874h-41.411v83.861c17.092 6.379 31.566 18.112 41.411 33.153M335.213 536.91v88.152c10.034-5.868 22.041-9.132 35.314-9.132 2.223 0 4.215.173 6.096.45V503.758c-9.844 15.041-24.318 26.774-41.41 33.152M376.624 164.671a390 390 0 0 1-5.148-2.981 391 391 0 0 1-36.262-24.21v77.682h41.411zM275.896 137.48a392 392 0 0 1-36.263 24.21 396 396 0 0 1-5.147 2.98v50.492h41.411V137.48zM275.896 377.732v-83.858h-41.411v116.99c9.846-15.033 24.321-26.759 41.411-33.132M234.485 503.781v112.598a41.5 41.5 0 0 1 6.095-.449c13.274 0 25.282 3.264 35.316 9.132v-88.149c-17.09-6.373-31.565-18.099-41.411-33.132M133.756 215.163h41.411v-22.828a396 396 0 0 1-41.411 12.825zM133.756 620.54a145.2 145.2 0 0 0 41.07 5.907l.34-.002V293.874h-41.411V620.54zM74.439 252.313v-37.151c-5.568.495-11.214.887-16.958 1.141 2.138 3.16 10.488 16.202 16.958 36.01M37.132 428.503v99.669c7.675 22.27 20.604 42.116 37.307 58.039V356.567c-5.14 14.777-12.101 25.806-18.946 36.634-6.628 10.486-13.367 21.164-18.361 35.302M435.941 215.163h41.411V205.16a395 395 0 0 1-41.411-12.825zM435.941 626.446l.339.002a145.2 145.2 0 0 0 41.071-5.907V293.874H435.94zM536.669 215.163v37.147c6.47-19.806 14.819-32.847 16.958-36.007a382 382 0 0 1-16.958-1.14M555.615 393.202c-6.845-10.828-13.805-21.856-18.945-36.631v229.64c16.704-15.923 29.633-35.769 37.307-58.04v-99.665c-4.994-14.141-11.734-24.819-18.362-35.304"/></g><path d="M372.505 431.143c-4.2-10.078-9.493-15.675-9.878-16.072-8.746-13.82-19.856-17.338-20.771-17.607-.527-.424-5.72-4.485-14.43-7.772-8.441-3.186-22.015-6.282-38.747-2.939-18.86 1.878-29.347 13.719-29.873 14.325-.421.327-6.143 4.874-11.957 13.924-5.539 8.624-12.306 23.229-13.093 43.841-.035.197-.466 2.867-.466 6.096 0 11.306 5.82 19.301 6.186 19.793.233.495 3.547 7.405 9.677 15.498 5.845 7.718 15.525 18.128 28.449 23.9.116.057 11.765 5.71 25.93 5.71 5.677 0 10.384-1.338 10.768-1.448 14.438-1.455 26.167-7.944 33.469-13.133 7.634-5.427 12.152-10.607 12.5-11.013.654-.477 11.677-8.802 15.454-27.212l.005-.022c4.58-20.53.776-36.275-3.223-45.869"/><path fill="#fff" d="M375.451 475.55c-1.693-7.754-5.601-14.116-6.056-14.836-.02-16.991-5.919-27.984-6.592-29.178.262-.944 1.882-7.378.137-15.258 1.644 1.902 5.694 7.06 9.045 15.114 3.872 9.302 7.554 24.444 3.466 44.158M327.2 390.222c6.867 2.589 11.521 5.659 13.4 7.018-2.102-.297-6.861-.676-13.293.574-.914-.32-10.685-3.634-22.478-3.649-4.954-3.283-12.328-6.081-15.003-7.044 16.113-2.984 29.182.012 37.374 3.101"/><path fill="#b3b3b3" d="M240.811 486.094c1.852 1.756 5.629 4.913 11.009 7.379.656 1.057 8.309 13.051 21.845 20.768 1.317 4.552 2.744 7.666 3.418 9.016-20.623-9.591-33.07-31.073-36.272-37.163M347.421 514.799c-7.033 4.996-18.21 11.21-31.955 12.881 1.742-1.15 5.289-3.741 8.435-7.592 13.778-2.746 22.692-13.068 23.721-14.309 5.661.588 9.57-.38 11.401-1.014-1.641 1.764-5.673 5.82-11.602 10.034"/><path fill="#d9d9d9" d="M326.011 436.497c-11.408-7.575-23.277-5.61-27.136-8.033-5.243-3.291-3.18-8.074-13.935-16.848 4.523 12.178 9.478 19.411 10.172 20.392 16.551.023 29.368 3.994 30.899 4.489"/><path fill="#fff" d="M298.874 428.464c3.859 2.423 15.728.458 27.136 8.033 5.721-4.718 12.11-12.833 12.965-13.931-6.378-17.587-11.338-23.609-11.857-24.209-.868-.304-10.592-3.61-22.331-3.617-12.11 3.867-19.117 15.599-19.849 16.876 10.756 8.775 8.694 13.557 13.936 16.848M280.955 461.699c-1.419.314-10.868 2.379-22.217 4.268-3.836 29.468 15.361 45.307 39.728 40.543.487-1.171 4.833-11.992 4.87-23.8-14.223-9.772-21.422-19.644-22.381-21.011"/><path fill="#d9d9d9" d="M258.738 465.967c-.624 1.367-5.755 13.02-6.425 27.207.642 1.035 8.233 12.935 21.665 20.582.886-.061 9.47-.798 24.488-7.246-24.367 4.763-43.564-11.075-39.728-40.543M280.843 461.134c-12.25-1.21-18.737-.838-23.29-3.059-4.516-2.202-6.297-6.364-11.566-14.796 3.213 12.378 11.648 21.116 12.651 22.121a465 465 0 0 0 22.205-4.266"/><path fill="#fff" d="M257.553 458.076c4.553 2.221 11.04 1.848 23.29 3.059 3.256-14.109 12.577-27.214 13.763-28.842-.821-1.172-5.713-8.397-10.185-20.419-13.95-.562-24.496 3.236-25.504 3.613-.685 1.077-8.303 13.18-12.93 27.793 5.269 8.432 7.051 12.594 11.566 14.796"/><path fill="#d9d9d9" d="M258.675 401.929c-1.545 1.3-6.412 5.703-11.357 13.407-5.398 8.411-11.966 22.558-12.937 42.46 1.434-2.224 5.424-8.181 11.049-14.668-8.764-7.87 3.33-27.451 13.245-41.199"/><path fill="#fff" d="M258.675 401.929c-9.915 13.747-22.008 33.329-13.246 41.199 4.652-14.705 12.323-26.888 13.006-27.958-.027-.771-.203-6.39.24-13.241M303.911 482.762c-.048 11.675-4.257 22.376-4.882 23.897 26.195 12.546 28.484 5.333 48.215-1.323 4.521-12.196 4.872-24.366 4.899-26.044-10.252-3.871-20.097-9.95-21.49-10.825-1.426 1.082-12.158 9.029-26.742 14.295"/><path fill="#d9d9d9" d="M299.029 506.658c12.426 11.94 24.007 12.836 24.694 12.879 14.028-2.769 22.964-13.518 23.521-14.202-19.731 6.657-22.02 13.869-48.215 1.323"/><path fill="#fff" d="M362.272 431.762c-.66-.541-9.864-7.889-22.842-8.845-.858 1.102-7.268 9.245-13.031 14.006 9.272 15.562-.95 22.616 26.027 41.86.977-.444 9.16-4.475 16.393-18.056-.017-17.22-6.114-28.208-6.547-28.965"/><path fill="#d9d9d9" d="M326.399 436.923c.438 1.636 3.669 14.194 4.518 31.028 1.204.757 11.163 6.935 21.509 10.832-26.976-19.244-16.755-26.298-26.027-41.86"/><path fill="#131313" d="m326.35 436.744-.041-.145-.144-.05c-.133-.046-13.568-4.541-31.204-4.541h-.144l-.087.115c-.106.139-10.51 14.119-13.93 29.189 12.923 7.997 15.965 15.412 23.38 15.412 12.031 0 13.506-6.931 26.75-8.473l-.007-.148c-.891-18.055-4.537-31.229-4.573-31.359M263.611 410.411c1.259 1.259 17.044-3.474 21.178 1.477l.085-.159c.07-.129 7.179-12.946 19.955-17.004l.572-.181-.499-.333c-6.109-4.071-15.99-7.414-16.089-7.447l-.059-.019-.061.004c-19.27 1.915-29.802 14.229-29.906 14.354l-.061.071c.87 5.977 3.535 7.887 4.885 9.237M245.965 443.199l-.137-.53-.359.414c-7.114 8.197-11.629 15.565-11.672 15.639 2.254 9.328 4.982 19.471 8.689 23.178 6.822 6.822 6.715 5.4 9.802 11.788l.021-.426c.69-15.073 6.434-27.309 6.491-27.429l.09-.188-.149-.146c-.095-.086-9.391-9.152-12.776-22.3M341.955 417.966c3.008 3.008 14.969 4.197 20.353 13.827l.333.281.128-.417c.023-.074 2.234-7.482-.088-16.478l-.012-.044-.023-.038c-9.084-14.374-20.734-17.62-20.848-17.65-.064-.016-5.76-1.346-14.568.38l-.505.099c8.418 5.77 12.362 17.172 15.23 20.04M375.725 476.925c-1.575-8.814-6.328-16.211-6.376-16.285l-.266-.409-.229.431c-7.677 14.453-16.44 18.128-16.527 18.164l-.18.072c2.399 7.338-.959 22.028.72 23.707.839.839 3.777.14 7.335 1.685l.018-.01.017-.011c.116-.082 11.61-8.357 15.485-27.236l.012-.054z"/><path fill="#fff" d="m295.504 435.71-.001.027a.29.29 0 0 0 .262.287c.126.011 12.769 1.215 27.988 3.518.201 1.512 1.53 11.649 2.946 26.646a.288.288 0 1 0 .574-.053c-1.53-16.22-2.963-26.781-2.977-26.886a.29.29 0 0 0-.243-.247c-15.331-2.325-28.107-3.54-28.235-3.552a.29.29 0 0 0-.314.26M288.944 388.254a.289.289 0 0 0 .121.389s7.784 4.086 8.414 4.418l-10.51 10.883a.29.29 0 0 0 .005.407c.115.11.297.107.408-.008l10.778-11.159a.288.288 0 0 0-.074-.454l-8.752-4.595a.29.29 0 0 0-.39.119"/></svg>