<svg enable-background="new 0 0 612 792" viewBox="0 0 612 792" xmlns="http://www.w3.org/2000/svg"><path d="m576.122 340.042c0-134.826-84.102-226.229-84.102-226.229s-41.497 34.212-92.779 34.212-92.78-34.212-92.78-34.212-41.498 34.212-92.78 34.212-92.779-34.212-92.779-34.212-84.102 91.403-84.102 226.229c0 63.013 17.131 121.299 44.316 171.184h-29.572v126.902h142.802c37.866 26.063 77.811 41.684 112.115 41.684s74.249-15.622 112.115-41.684h142.803v-126.902h-29.573c27.185-49.884 44.316-108.17 44.316-171.184z"/><path d="m173.869 511.226c-31.64-33.279-51.081-78.402-51.084-128.155.002-51.171 20.562-97.447 53.813-130.973 33.258-33.52 79.138-54.229 129.863-54.23 50.723.001 96.603 20.71 129.863 54.23 33.25 33.526 53.808 79.802 53.811 130.973-.003 49.753-19.442 94.876-51.082 128.155z" fill="#fff"/><path d="m306.461 663.115c-24.243 0-52.406-9.033-80.733-24.987h161.467c-28.329 15.955-56.491 24.987-80.734 24.987z" fill="#ffde2f"/><path d="m51.544 516.235h509.835v116.884h-509.835z" fill="#fff"/><path d="m99.974 536.397-11.42 34.568 12.508 41.992h-20.57l-8.063-32.818v32.818h-19.909v-76.56h19.909v29.744l8.866-29.744z"/><path d="m116.93 597.352v15.605h-14.423v-15.605z"/><path d="m181.534 581.227c0 7.692-.182 13.139-.544 16.338-.363 3.2-1.497 6.124-3.404 8.772-1.908 2.648-4.485 4.682-7.732 6.1-3.248 1.418-7.03 2.128-11.349 2.128-4.099 0-7.779-.67-11.042-2.01-3.263-1.339-5.887-3.349-7.873-6.029-1.986-2.679-3.168-5.595-3.546-8.749-.378-3.152-.567-8.669-.567-16.551v-13.099c0-7.692.181-13.138.544-16.338.362-3.199 1.497-6.123 3.404-8.772 1.907-2.648 4.484-4.681 7.732-6.1 3.247-1.418 7.03-2.128 11.349-2.128 4.098 0 7.779.67 11.042 2.01s5.887 3.35 7.874 6.029c1.986 2.68 3.168 5.596 3.546 8.748.378 3.153.567 8.67.567 16.551v13.1zm-19.908-25.158c0-3.562-.197-5.84-.591-6.833-.395-.993-1.206-1.49-2.435-1.49-1.04 0-1.837.402-2.388 1.206-.552.804-.828 3.176-.828 7.117v35.75c0 4.445.181 7.188.544 8.228.362 1.04 1.206 1.561 2.53 1.561 1.355 0 2.223-.599 2.601-1.797s.567-4.05.567-8.559z"/><path d="m206.223 536.397v76.56h-19.672v-76.56z"/><path d="m250.253 570.256h-16.929v-3.405c0-2.9-.166-4.736-.497-5.509-.33-.772-1.158-1.158-2.482-1.158-1.072 0-1.876.355-2.412 1.064-.537.709-.804 1.773-.804 3.192 0 1.923.134 3.333.402 4.232.267.898 1.071 1.884 2.412 2.955 1.339 1.072 4.09 2.633 8.252 4.682 5.548 2.712 9.189 5.266 10.923 7.661 1.733 2.397 2.601 5.88 2.601 10.451 0 5.107-.662 8.961-1.986 11.562s-3.539 4.604-6.644 6.006-6.85 2.104-11.231 2.104c-4.855 0-9.008-.756-12.46-2.269s-5.825-3.562-7.117-6.147c-1.294-2.585-1.939-6.494-1.939-11.728v-3.026h16.929v3.972c0 3.374.213 5.565.638 6.573.426 1.009 1.269 1.513 2.53 1.513 1.355 0 2.301-.338 2.837-1.017.536-.677.804-2.104.804-4.279 0-2.995-.347-4.871-1.041-5.628-.725-.756-4.43-2.995-11.113-6.715-5.612-3.152-9.032-6.013-10.261-8.583-1.23-2.569-1.844-5.619-1.844-9.15 0-5.012.662-8.708 1.986-11.089 1.324-2.38 3.57-4.216 6.739-5.509 3.168-1.292 6.849-1.938 11.041-1.938 4.162 0 7.7.528 10.617 1.584 2.915 1.057 5.154 2.452 6.715 4.185 1.561 1.734 2.506 3.342 2.837 4.823.331 1.482.496 3.799.496 6.952v3.639z"/><path d="m272.057 574.512h-17.922v-4.208c0-4.855.559-8.599 1.679-11.231 1.119-2.632 3.365-4.957 6.739-6.975 3.373-2.017 7.755-3.026 13.146-3.026 6.462 0 11.333 1.143 14.612 3.428 3.278 2.286 5.249 5.092 5.911 8.417.662 3.326.993 10.175.993 20.546v31.494h-18.585v-5.592c-1.167 2.243-2.672 3.925-4.516 5.045-1.844 1.121-4.043 1.682-6.597 1.682-3.342 0-6.408-.938-9.198-2.813s-4.185-5.982-4.185-12.318v-5.155c0-4.697.74-7.897 2.223-9.599 1.482-1.703 5.154-3.688 11.018-5.958 6.273-2.459 9.63-4.114 10.072-4.965.441-.851.662-2.584.662-5.202 0-3.278-.245-5.414-.733-6.408-.489-.993-1.3-1.489-2.435-1.489-1.293 0-2.097.418-2.412 1.253-.315.836-.473 3.003-.473 6.502v6.572zm6.053 8.606c-3.058 2.239-4.832 4.114-5.32 5.628-.489 1.513-.733 3.688-.733 6.526 0 3.247.213 5.343.638 6.289.426.946 1.269 1.419 2.53 1.419 1.197 0 1.978-.37 2.341-1.111.362-.74.543-2.688.543-5.84v-12.911z"/><path d="m317.746 536.397h19.861c6.273 0 11.025.488 14.257 1.465 3.231.977 5.84 2.953 7.826 5.931s2.979 7.773 2.979 14.39c0 4.474-.702 7.593-2.104 9.357-1.403 1.764-4.17 3.119-8.299 4.064 4.603 1.041 7.724 2.768 9.363 5.181s2.459 6.112 2.459 11.096v7.097c0 5.174-.591 9.007-1.773 11.498-1.182 2.492-3.066 4.195-5.651 5.11-2.586.915-7.882 1.372-15.889 1.372h-23.029zm19.908 13.099v17.024c.851-.031 1.513-.047 1.986-.047 1.955 0 3.199-.48 3.736-1.442.536-.961.804-3.712.804-8.251 0-2.396-.221-4.074-.662-5.037-.442-.961-1.017-1.567-1.726-1.82-.71-.253-2.089-.395-4.138-.427zm0 28.941v21.422c2.805-.095 4.594-.536 5.367-1.324.772-.788 1.158-2.727 1.158-5.816v-7.141c0-3.278-.347-5.265-1.04-5.958-.693-.694-2.522-1.089-5.485-1.183z"/><path d="m387.926 550.206-.757 8.252c2.774-5.91 6.794-9.039 12.059-9.387v22.083c-3.499 0-6.069.473-7.708 1.419-1.64.946-2.648 2.263-3.026 3.949-.379 1.687-.567 5.573-.567 11.657v24.779h-19.104v-62.751h19.103z"/><path d="m418.714 574.512h-17.922v-4.208c0-4.855.56-8.599 1.679-11.231s3.365-4.957 6.739-6.975c3.373-2.017 7.755-3.026 13.146-3.026 6.462 0 11.333 1.143 14.612 3.428 3.278 2.286 5.249 5.092 5.911 8.417.662 3.326.993 10.175.993 20.546v31.494h-18.584v-5.592c-1.167 2.243-2.672 3.925-4.516 5.045-1.844 1.121-4.043 1.682-6.597 1.682-3.342 0-6.408-.938-9.198-2.813s-4.185-5.982-4.185-12.318v-5.155c0-4.697.74-7.897 2.223-9.599 1.482-1.703 5.154-3.688 11.018-5.958 6.273-2.459 9.63-4.114 10.073-4.965.441-.851.662-2.584.662-5.202 0-3.278-.245-5.414-.733-6.408-.489-.993-1.3-1.489-2.435-1.489-1.293 0-2.097.418-2.412 1.253-.316.836-.473 3.003-.473 6.502v6.572zm6.053 8.606c-3.058 2.239-4.832 4.114-5.32 5.628-.489 1.513-.733 3.688-.733 6.526 0 3.247.213 5.343.638 6.289.426.946 1.269 1.419 2.53 1.419 1.198 0 1.978-.37 2.341-1.111.362-.74.543-2.688.543-5.84v-12.911z"/><path d="m489.746 550.206-7.755 24.992 10.072 37.76h-18.372l-5.958-27.35-.024 27.35h-19.105v-76.56h19.105l.024 32.139 5.958-18.331z"/><path d="m536.329 582.692h-24.732v13.572c0 2.837.205 4.667.615 5.486.409.82 1.198 1.229 2.364 1.229 1.45 0 2.419-.544 2.908-1.632.489-1.087.733-3.192.733-6.313v-8.275h18.111v4.634c0 3.878-.245 6.857-.733 8.938-.489 2.081-1.632 4.303-3.429 6.668-1.797 2.364-4.075 4.138-6.833 5.32-2.759 1.182-6.218 1.773-10.38 1.773-4.036 0-7.598-.583-10.687-1.749-3.09-1.166-5.494-2.766-7.211-4.8-1.719-2.033-2.908-4.272-3.57-6.715s-.993-5.998-.993-10.664v-18.3c0-5.486.74-9.813 2.223-12.981 1.482-3.168 3.909-5.595 7.282-7.282 3.373-1.686 7.25-2.53 11.633-2.53 5.359 0 9.781 1.017 13.265 3.05 3.483 2.034 5.926 4.729 7.33 8.086 1.402 3.357 2.105 8.079 2.105 14.163v8.322zm-19.152-10.213v-4.587c0-3.247-.174-5.344-.52-6.29-.348-.946-1.057-1.419-2.128-1.419-1.324 0-2.145.402-2.46 1.206s-.473 2.972-.473 6.503v4.587z"/><path d="m560.402 536.397v76.56h-19.672v-76.56z"/><path d="m443.435 245.041c35.04 35.317 56.72 84.147 56.718 138.03.001 49.026-17.951 93.867-47.581 128.155h60.063c7.669-13.243 14.491-26.924 20.322-40.856 17.562-41.957 26.466-85.806 26.466-130.328 0-40.181-7.926-76.368-18.768-107.11h-110.393c4.573 3.836 8.972 7.873 13.173 12.109z" fill="#ffde2f"/><path d="m53.498 340.042c0 44.522 8.904 88.371 26.466 130.328 5.831 13.933 12.651 27.613 20.322 40.856h60.061c-29.629-34.288-47.581-79.129-47.58-128.155-.002-53.882 21.677-102.712 56.717-138.03 4.201-4.236 8.601-8.273 13.175-12.109h-110.382c-10.549 30.023-18.779 66.461-18.779 107.11z" fill="#ffde2f"/><path d="m487.383 241.741v4.646h-7.639v4.933c.956-1.328 2.185-1.991 3.69-1.991 1.697 0 2.98.559 3.849 1.677.869 1.119 1.304 3.268 1.304 6.448v4.144c0 2.057-.084 3.567-.251 4.529-.168.963-.527 1.854-1.076 2.673-.548.819-1.314 1.447-2.294 1.883s-2.177.655-3.59.655c-1.586 0-2.983-.326-4.192-.978-1.21-.651-2.069-1.624-2.577-2.915-.508-1.292-.762-3.288-.762-5.991v-1.579h6.16v1.811c0 1.878.055 3.211.168 4 .111.79.497 1.184 1.158 1.184.305 0 .551-.113.74-.341.188-.227.29-.472.305-.735.016-.263.033-1.405.053-3.426v-5.758c0-1.087-.096-1.829-.289-2.224s-.514-.592-.961-.592c-.285 0-.523.102-.717.305-.193.204-.318.421-.373.654-.057.233-.084.775-.084 1.624h-6.099l.259-14.637h13.218z"/><path d="m503.358 241.741v4.646h-7.639v4.933c.956-1.328 2.185-1.991 3.69-1.991 1.697 0 2.98.559 3.849 1.677.869 1.119 1.304 3.268 1.304 6.448v4.144c0 2.057-.084 3.567-.251 4.529-.168.963-.527 1.854-1.075 2.673-.549.819-1.313 1.447-2.294 1.883s-2.178.655-3.591.655c-1.586 0-2.983-.326-4.192-.978-1.21-.651-2.069-1.624-2.577-2.915-.508-1.292-.762-3.288-.762-5.991v-1.579h6.16v1.811c0 1.878.056 3.211.168 4 .112.79.498 1.184 1.159 1.184.305 0 .551-.113.739-.341.188-.227.29-.472.305-.735s.032-1.405.053-3.426v-5.758c0-1.087-.096-1.829-.289-2.224s-.514-.592-.961-.592c-.284 0-.523.102-.716.305-.193.204-.318.421-.374.654s-.084.775-.084 1.624h-6.099l.259-14.637h13.218z"/><path d="m519.333 241.741v4.646h-7.639v4.933c.956-1.328 2.185-1.991 3.69-1.991 1.697 0 2.98.559 3.849 1.677.869 1.119 1.304 3.268 1.304 6.448v4.144c0 2.057-.084 3.567-.252 4.529-.168.963-.526 1.854-1.075 2.673s-1.313 1.447-2.294 1.883-2.178.655-3.59.655c-1.586 0-2.983-.326-4.192-.978-1.21-.651-2.069-1.624-2.577-2.915-.508-1.292-.763-3.288-.763-5.991v-1.579h6.16v1.811c0 1.878.056 3.211.168 4 .112.79.497 1.184 1.159 1.184.305 0 .551-.113.74-.341.187-.227.289-.472.305-.735s.033-1.405.053-3.426v-5.758c0-1.087-.096-1.829-.289-2.224s-.514-.592-.961-.592c-.285 0-.523.102-.717.305-.193.204-.318.421-.373.654-.056.233-.084.775-.084 1.624h-6.098l.259-14.637h13.217z"/><path d="m533.433 254.324c.936.371 1.632.978 2.089 1.821.458.844.686 2.821.686 5.931 0 2.309-.224 4.102-.671 5.375-.447 1.274-1.22 2.243-2.317 2.907-1.098.665-2.505.996-4.224.996-1.952 0-3.483-.385-4.597-1.157-1.113-.771-1.845-1.715-2.195-2.834-.351-1.118-.526-3.058-.526-5.821v-2.296h6.16v4.718c0 1.255.063 2.054.19 2.395s.409.511.846.511c.478 0 .793-.215.946-.646.152-.43.228-1.554.228-3.372v-2.009c0-1.112-.107-1.925-.319-2.439-.214-.514-.529-.852-.946-1.014-.417-.161-1.225-.253-2.424-.278v-4.215c1.463 0 2.369-.065 2.714-.197.345-.131.594-.418.747-.861.152-.442.228-1.136.228-2.081v-1.614c0-1.016-.089-1.686-.267-2.009s-.455-.484-.831-.484c-.427 0-.719.17-.877.511s-.236 1.067-.236 2.18v2.385h-6.16v-2.475c0-2.773.539-4.648 1.616-5.623s2.79-1.462 5.138-1.462c2.938 0 4.929.675 5.976 2.025s1.571 3.227 1.571 5.628c0 1.626-.188 2.8-.564 3.523-.375.723-1.036 1.383-1.981 1.981z"/><path d="m92.014 241.741-3.682 13.112 4.033 15.928h-6.632l-2.599-12.448v12.448h-6.419v-29.04h6.419v11.283l2.858-11.283z"/><path d="m92.689 241.741h6.403c2.022 0 3.555.185 4.597.556 1.042.37 1.883 1.12 2.523 2.25.64 1.129.96 2.948.96 5.458 0 1.698-.227 2.881-.678 3.549-.453.669-1.344 1.183-2.676 1.541 1.484.395 2.49 1.05 3.018 1.965.528.916.793 2.319.793 4.209v2.692c0 1.962-.191 3.417-.572 4.361-.381.946-.989 1.591-1.822 1.939-.833.346-2.541.52-5.123.52h-7.425v-29.04zm6.419 4.968v6.457c.274-.011.487-.018.64-.018.63 0 1.031-.182 1.204-.547.173-.364.259-1.408.259-3.13 0-.908-.071-1.545-.214-1.91-.142-.365-.328-.595-.556-.691-.228-.095-.672-.148-1.333-.161zm0 10.977v8.126c.904-.036 1.48-.203 1.73-.502.248-.298.373-1.034.373-2.206v-2.708c0-1.244-.112-1.997-.335-2.26-.224-.264-.813-.413-1.768-.45z"/><path d="m124.414 241.741-3.267 29.04h-9.75l-3.708-29.04h6.768c.787 7.999 1.349 14.768 1.685 20.305.331-5.596.684-10.564 1.056-14.905l.446-5.4z"/><path d="m124.716 241.741h6.403c2.022 0 3.555.185 4.597.556 1.042.37 1.883 1.12 2.524 2.25.64 1.129.96 2.948.96 5.458 0 1.698-.227 2.881-.678 3.549-.453.669-1.344 1.183-2.676 1.541 1.484.395 2.49 1.05 3.018 1.965.528.916.793 2.319.793 4.209v2.692c0 1.962-.191 3.417-.571 4.361-.382.946-.989 1.591-1.822 1.939-.834.346-2.542.52-5.123.52h-7.425zm6.418 4.968v6.457c.275-.011.488-.018.641-.018.63 0 1.031-.182 1.204-.547.173-.364.259-1.408.259-3.13 0-.908-.071-1.545-.214-1.91-.142-.365-.328-.595-.556-.691-.229-.095-.673-.148-1.334-.161zm0 10.977v8.126c.905-.036 1.481-.203 1.731-.502.249-.298.374-1.034.374-2.206v-2.708c0-1.244-.112-1.997-.335-2.26-.225-.264-.815-.413-1.77-.45z"/><path d="m520.062 185.722c-11.189-21.385-22.424-37.756-30.188-48.059v43.935h-45.853v-24.101c-13.497 4.264-28.66 7.225-44.78 7.225-.36 0-.714-.012-1.073-.015v16.891h-45.853v-24.793c-19.914-6.58-36.005-15.885-45.854-22.416v47.208h-45.854v-24.793c-13.729 4.536-29.276 7.767-45.853 7.902v16.891h-45.854v-24.101c-18.907-5.975-34.538-14.513-44.897-21.095-.309.405-.635.838-.955 1.264v43.932h-28.054c-.63 1.167-1.26 2.342-1.89 3.54-6.901 13.126-14.306 29.237-20.826 47.794h50.771v-47.21h45.853v47.21h13.758c9.908-8.308 20.659-15.631 32.096-21.84v-25.37h45.853v7.64c14.703-3.599 30.058-5.516 45.854-5.515v-2.125h45.854v7.641c16.173 3.959 31.553 9.966 45.853 17.73v-25.371h45.854v47.21h45.853v-47.21h30.185z" fill="#fff"/><path d="m266.173 258.813c0 20.593 18.646 26.16 21.15 42.579 5.076 0 9.184-8.838 9.184-19.759 0-5.566-2.783-10.082-2.783-22.542 0-11.688 13.616-28.253 24.725-35.686 9.933-6.646 22.863-5.502 30.377-13.016-9.88 0-8.519 3.089-16.482 4.879-3.247.73-7.191 1.244-12.182 1.244-20.92 0-31.726 1.948-40.353 22.542-7.537 0-13.636 8.838-13.636 19.759z"/><path d="m252.536 358.442s7.236-4.729 7.236-10.575c-6.739-24.429-35.065-14.193-35.065-32.003 0-9.189 9.568-17.128 15.097-20.95-.576.031-1.138.078-1.739.078-14.193 0-19.758 9.74-19.758 9.74v36.735c-4.115 17.035-15.307 12.523-15.307 23.377 0 12.315 6.27 18.575 12.68 28.014 1.52 2.238 2.509 4.836 3.519 7.702.682-24.851-4.788-37.577-4.788-42.674 0-7.428 7.25-17.546 10.018-20.315 12.245 12.245 30.335.599 28.107 20.871z"/><path d="m328.325 487.886c7.039-21.609 12.589-45.836 27.736-60.983 0 0-7.235-6.597-7.235-14.75 0-18.159 36.804-18.994 28.664-48.215-11.062 8.975-16.265 24.645-30.264 21.916 0 0 7.931 4.2 7.931 9.392 0 5.538-5.427 6.784-6.888 10.019 0 0-5.636-9.81-13.636-7.444 6.679 5.983 6.679 8.775 6.679 19.621 0 16.141-4.376 21.885-12.163 28.621-5.818 5.033-13.54 8.515-22.763 10.479l21.011 21.011-20.315 17.81h-18.367c-36.179 0-42.579-12.245-42.579-12.245 2.437-2.437-4.731-26.438 7.235-26.438l-5.565-6.401-6.401 6.401 1.113 2.505s-20.593-13.08-16.419-43.693c0 0-7.977 10.854-7.977 19.481 0 0-5.547 11.854-.372 22.542 0 19.483 41.153 40.982 52.382 53.71h45.572c4.632-6.928 9.881-14.927 12.621-23.339z"/><path d="m211.906 267.162s-17.533 6.957-13.358 33.952c12.523-6.929 16.698-20.872 33.396-26.439-13.358-6.631-19.714-13.978-25.881-15.306 22.82-34.508 46.753-15.585 74.861-49.814-30.334 25.324-70.409 6.679-90.446 49.814 18.923-1.39 21.428 7.793 21.428 7.793z"/><path d="m170.439 406.031s6.459-9.241 18.924-7.236l2.319.374s-8.076-14.49-8.076-32.848c0-16.767 8.393-29.16 15.775-30.699l-21.907-21.907c-4.774 7.11-8.149 16.11-8.149 24.412.002 27.83 13.638 36.178 1.114 67.904z"/><path d="m198.199 485.832c0-20.882 7.932-37.778 7.932-37.778-8.767 1.252-8.277-4.52-14.61-6.262 3.33-7.713 7.931-3.653 7.931-15.445h-15.469c-3.407 9.204-7.172 18.01-7.172 33.421 0 22.161 6.538 41.43 16.204 51.459h9.839c-2.384-4.996-4.655-12.999-4.655-25.395z"/><path d="m302.56 405.683h-58.442l29.221 29.012z"/><path d="m224.197 498.338c-.182 5.124-.624 9.375-1.196 12.888h2.852c.376-6.358-.739-10.58-1.656-12.888z"/><path d="m335.079 350.654c8.033-6.57 13.19-14.893 13.19-14.893-30.473-7.931-34.647 22.542-34.647 22.542 2.481.325 4.898.179 7.231-.307l-.135-8.459 7.097-5.844z"/><path d="m390.57 385.437-14.193 71.243 21.428-21.985c3.34-36.457-3.235-49.258-7.235-49.258z"/><path d="m334.633 280.242c11.966 15.863 52.753-.483 48.423 34.787 0 0 11.697-9.175 14.471-26.716 0 0-23.376-22.542-40.631-22.542-15.027 0-22.263 14.471-22.263 14.471z"/><path d="m403.372 358.164s9.462-7.095 6.958-15.863c-7.538 4.454-13.636-7.514-13.636-7.514 1.052 13.975 6.678 23.377 6.678 23.377z"/><path d="m460.701 424.12c0-17.587-5.129-26.59-7.618-39.274-6.604 5.763-8.126 9.81-14.367 13.114 0 0-7.236-1.113-7.236-7.236 0-9.665 13.236-17.785 21.442-27.112.292-3.12.543-6.483.543-10.179 0-36.457-15.306-39.518-15.306-39.518s4.457 14.75 5.844 29.221c-8.003 10.499-16.458 17.936-23.966 24.701-4.632 4.173-12.49.624-12.49 12.313 0 11.241 5.096 15.851 10.5 19.945 6.103 4.621 12.598 11.501 12.598 20.685 0 23.868-45.26 67.747-53.973 90.446h21.521c9.719-20.362 62.508-26.376 62.508-87.106z"/><path d="m355.033 495.385c.39 5.668 1.466 9.596 2.006 15.841h1.514c-.258-6.449-1.07-10.609-3.52-15.841z"/><g fill="#ffde2f"><path d="m217.75 457.516c-5.176-10.688.372-22.542.372-22.542 0-8.628 7.977-19.481 7.977-19.481-6.122-8.905-6.545-16.93-10.419-22.635-6.409-9.439-12.68-15.7-12.68-28.014 0-10.853 11.192-6.342 15.307-23.377v-36.735s5.566-9.74 19.758-9.74c15.998 0 22.636-11.411 28.943-11.411 5.844 0 10.681 7.62 14.193 9.184 0 0-.212-2.004-.574-5.255-6.254-7.988-14.454-15.038-14.454-28.696 0-8.094 3.354-15.034 8.157-18.089-1.164-5.078-3.147-8.709-3.147-13.08 0-9.998 8.579-13.866 9.741-18.088-28.108 34.229-52.042 15.306-74.861 49.814 6.167 1.328 12.523 8.675 25.881 15.306-16.698 5.566-20.872 19.51-33.396 26.439-6.563-2.502-14.963 3.504-21.072 12.602l21.907 21.907c-7.383 1.539-15.775 13.932-15.775 30.699 0 18.358 8.076 32.848 8.076 32.848l-2.319-.374c0 12.083-2.568 19.953-5.381 27.551h15.469c0 11.792-4.602 7.732-7.931 15.445 6.333 1.742 5.844 7.514 14.61 6.262 0 0-7.932 16.897-7.932 37.778 0 12.396 2.271 20.4 4.655 25.394h2.9c-2.009-9.366-2.47-27.528 11.995-53.712z"/><path d="m242.176 355.816c1.172 4.209 1.637 5.57 6.325 8.331 0 0 4.035-2.552 4.035-5.705 2.228-20.272-15.862-8.626-28.107-20.872 4.452 11.341 16.573 14.037 17.747 18.246z"/><path d="m353.022 444.763c2.473-5.76 7.447-8.909 9.163-15.355 0 0-3.619-2.784-3.619-9.741 0-5.844 20.594-12.446 20.594-27.829 0-5.076-.803-9.53-2.019-12.113-6.074 14.659-28.315 18.31-28.315 32.429 0 8.153 7.235 14.75 7.235 14.75-11.309 11.31-17.268 27.68-22.491 44.244 11.07-5.111 15.05-16.134 19.452-26.385z"/><path d="m220.046 465.917c.304 12.501 4.244 12.745 4.244 27.219 0 1.83-.034 3.555-.092 5.201.917 2.309 2.032 6.53 1.656 12.888h44.291c-9.639-10.917-41.289-28.29-50.099-45.308z"/><path d="m331.572 490.632s-.794-4.537-.625-11.044c-.865 2.792-1.73 5.566-2.621 8.298-2.74 8.412-7.989 16.411-12.621 23.34h4.915c2.9-6.023 6.853-13.809 10.952-20.594z"/><path d="m269.999 444.922 3.34-10.227-20.004-19.861z"/><path d="m438.716 397.96c6.24-3.304 7.763-7.352 14.367-13.114-.382-1.943-.705-3.966-.935-6.127-.464-4.373.23-9.297.774-15.106-8.206 9.327-21.442 17.447-21.442 27.112 0 6.122 7.236 7.235 7.236 7.235z"/><path d="m430.645 420.78c0-9.184-6.496-16.064-12.598-20.685-2.299-1.741-4.537-3.581-6.355-5.979 1.292 6.903 9.77 10.173 9.77 22.768 0 13.542-2.906 14.52-7.333 24.421-1.257 2.812-2.199 6.782-3.412 11.782-1.192 4.911-8.038 10.814-6.952 17.591 13.574-18.14 26.88-36.961 26.88-49.898z"/><path d="m445.673 415.493c3.618 28.386-14.471 42.857-48.146 73.47l40.354-26.16c6.957-23.011 18.162-32.633 7.792-47.31z"/></g><path d="m306.461 652.6c16.914-3.552 33.161-8.39 48.646-14.471h-97.292c15.485 6.081 31.732 10.919 48.646 14.471z" fill="#fff"/><path d="m469.054 511.226h27.257c24.39-46.642 38.008-103.428 38.008-169.203-7.423 63.284-30.213 123.276-65.265 169.203z" fill="#fff"/><path d="m78.603 342.023c0 65.775 13.618 122.562 38.007 169.203h27.257c-35.052-45.927-57.841-105.919-65.264-169.203z" fill="#fff"/></svg>