<svg xmlns="http://www.w3.org/2000/svg" viewBox="0 0 612 792"><path d="M576.122 340.042c0-134.826-84.102-226.229-84.102-226.229s-41.497 34.212-92.779 34.212-92.78-34.212-92.78-34.212-41.498 34.212-92.78 34.212-92.779-34.212-92.779-34.212S36.8 205.216 36.8 340.042c0 63.013 17.131 121.299 44.316 171.184H51.544v126.902h142.802c37.866 26.063 77.811 41.684 112.115 41.684s74.249-15.622 112.115-41.684h142.803V511.226h-29.573c27.185-49.884 44.316-108.17 44.316-171.184"/><path fill="#fff" d="M173.869 511.226c-31.64-33.279-51.081-78.402-51.084-128.155.002-51.171 20.562-97.447 53.813-130.973 33.258-33.52 79.138-54.229 129.863-54.23 50.723.001 96.603 20.71 129.863 54.23 33.25 33.526 53.808 79.802 53.811 130.973-.003 49.753-19.442 94.876-51.082 128.155z"/><path fill="#ffde2f" d="M306.461 663.115c-24.243 0-52.406-9.033-80.733-24.987h161.467c-28.329 15.955-56.491 24.987-80.734 24.987"/><path fill="#fff" d="M51.544 516.235h509.835v116.884H51.544z"/><path d="m99.974 536.397-11.42 34.568 12.508 41.992h-20.57l-8.063-32.818v32.818H52.52v-76.56h19.909v29.744l8.866-29.744zM116.93 597.352v15.605h-14.423v-15.605zM181.534 581.227q0 11.539-.544 16.338t-3.404 8.772q-2.862 3.972-7.732 6.1-4.871 2.128-11.349 2.128-6.148 0-11.042-2.01t-7.873-6.029-3.546-8.749q-.567-4.728-.567-16.551v-13.099q0-11.538.544-16.338.543-4.799 3.404-8.772t7.732-6.1q4.87-2.127 11.349-2.128 6.147 0 11.042 2.01c4.895 2.01 5.887 3.35 7.874 6.029q2.979 4.02 3.546 8.748.567 4.73.567 16.551v13.1zm-19.908-25.158q0-5.343-.591-6.833-.592-1.49-2.435-1.49-1.56 0-2.388 1.206t-.828 7.117v35.75q0 6.668.544 8.228.543 1.56 2.53 1.561 2.033 0 2.601-1.797c.568-1.797.567-4.05.567-8.559zM206.223 536.397v76.56h-19.672v-76.56zM250.253 570.256h-16.929v-3.405q0-4.35-.497-5.509-.496-1.158-2.482-1.158-1.608 0-2.412 1.064-.805 1.063-.804 3.192 0 2.884.402 4.232.4 1.348 2.412 2.955 2.009 1.608 8.252 4.682 8.322 4.068 10.923 7.661 2.6 3.595 2.601 10.451 0 7.66-1.986 11.562c-1.986 3.902-3.539 4.604-6.644 6.006s-6.85 2.104-11.231 2.104q-7.282 0-12.46-2.269c-5.178-2.269-5.825-3.562-7.117-6.147q-1.94-3.877-1.939-11.728v-3.026h16.929v3.972q0 5.061.638 6.573.639 1.513 2.53 1.513 2.033 0 2.837-1.017t.804-4.279q0-4.492-1.041-5.628-1.088-1.135-11.113-6.715-8.418-4.728-10.261-8.583-1.844-3.854-1.844-9.15 0-7.518 1.986-11.089 1.986-3.57 6.739-5.509 4.752-1.938 11.041-1.938 6.242 0 10.617 1.584 4.373 1.586 6.715 4.185 2.341 2.601 2.837 4.823t.496 6.952v3.639zM272.057 574.512h-17.922v-4.208q0-7.283 1.679-11.231 1.678-3.948 6.739-6.975 5.06-3.026 13.146-3.026 9.693 0 14.612 3.428 4.918 3.43 5.911 8.417.993 4.99.993 20.546v31.494H278.63v-5.592q-1.75 3.365-4.516 5.045-2.766 1.682-6.597 1.682-5.013 0-9.198-2.813c-4.185-2.813-4.185-5.982-4.185-12.318v-5.155q0-7.046 2.223-9.599t11.018-5.958q9.41-3.688 10.072-4.965t.662-5.202q0-4.917-.733-6.408-.733-1.49-2.435-1.489-1.94 0-2.412 1.253-.473 1.254-.473 6.502zm6.053 8.606q-4.587 3.358-5.32 5.628t-.733 6.526q0 4.87.638 6.289.639 1.419 2.53 1.419 1.796 0 2.341-1.111.543-1.111.543-5.84v-12.911zM317.746 536.397h19.861q9.41 0 14.257 1.465t7.826 5.931c2.979 4.466 2.979 7.773 2.979 14.39q0 6.711-2.104 9.357t-8.299 4.064q6.904 1.562 9.363 5.181c2.459 3.619 2.459 6.112 2.459 11.096v7.097q0 7.761-1.773 11.498-1.773 3.738-5.651 5.11t-15.889 1.372h-23.029zm19.908 13.099v17.024a59 59 0 0 1 1.986-.047q2.932 0 3.736-1.442t.804-8.251q0-3.593-.662-5.037-.663-1.441-1.726-1.82-1.065-.38-4.138-.427m0 28.941v21.422q4.207-.142 5.367-1.324 1.158-1.182 1.158-5.816v-7.141q0-4.918-1.04-5.958-1.04-1.042-5.485-1.183M387.926 550.206l-.757 8.252q4.161-8.865 12.059-9.387v22.083q-5.249 0-7.708 1.419t-3.026 3.949-.567 11.657v24.779h-19.104v-62.751zM418.714 574.512h-17.922v-4.208q0-7.283 1.679-11.231c1.679-3.948 3.365-4.957 6.739-6.975q5.06-3.026 13.146-3.026 9.693 0 14.612 3.428 4.918 3.43 5.911 8.417.993 4.99.993 20.546v31.494h-18.584v-5.592q-1.75 3.365-4.516 5.045-2.766 1.682-6.597 1.682-5.013 0-9.198-2.813c-4.185-2.813-4.185-5.982-4.185-12.318v-5.155q0-7.046 2.223-9.599t11.018-5.958q9.409-3.688 10.073-4.965.662-1.276.662-5.202 0-4.917-.733-6.408-.733-1.49-2.435-1.489-1.94 0-2.412 1.253-.473 1.254-.473 6.502zm6.053 8.606q-4.588 3.358-5.32 5.628t-.733 6.526q0 4.87.638 6.289.639 1.419 2.53 1.419 1.797 0 2.341-1.111.543-1.111.543-5.84v-12.911zM489.746 550.206l-7.755 24.992 10.072 37.76h-18.372l-5.958-27.35-.024 27.35h-19.105v-76.56h19.105l.024 32.139 5.958-18.331zM536.329 582.692h-24.732v13.572q0 4.256.615 5.486.614 1.23 2.364 1.229 2.175 0 2.908-1.632t.733-6.313v-8.275h18.111v4.634q0 5.817-.733 8.938-.734 3.121-3.429 6.668-2.696 3.547-6.833 5.32t-10.38 1.773q-6.054 0-10.687-1.749-4.635-1.749-7.211-4.8-2.578-3.05-3.57-6.715c-.992-3.665-.993-5.998-.993-10.664v-18.3q0-8.229 2.223-12.981t7.282-7.282 11.633-2.53q8.039 0 13.265 3.05 5.224 3.05 7.33 8.086 2.104 5.036 2.105 14.163v8.322zm-19.152-10.213v-4.587q0-4.87-.52-6.29-.522-1.419-2.128-1.419-1.987 0-2.46 1.206c-.473 1.206-.473 2.972-.473 6.503v4.587zM560.402 536.397v76.56H540.73v-76.56z"/><path fill="#ffde2f" d="M443.435 245.041c35.04 35.317 56.72 84.147 56.718 138.03.001 49.026-17.951 93.867-47.581 128.155h60.063c7.669-13.243 14.491-26.924 20.322-40.856 17.562-41.957 26.466-85.806 26.466-130.328 0-40.181-7.926-76.368-18.768-107.11H430.262a196 196 0 0 1 13.173 12.109M53.498 340.042c0 44.522 8.904 88.371 26.466 130.328 5.831 13.933 12.651 27.613 20.322 40.856h60.061c-29.629-34.288-47.581-79.129-47.58-128.155-.002-53.882 21.677-102.712 56.717-138.03a195 195 0 0 1 13.175-12.109H72.277c-10.549 30.023-18.779 66.461-18.779 107.11"/><path d="M487.383 241.741v4.646h-7.639v4.933q1.433-1.991 3.69-1.991 2.546 0 3.849 1.677t1.304 6.448v4.144q0 3.086-.251 4.529a6.9 6.9 0 0 1-1.076 2.673q-.823 1.229-2.294 1.883c-1.471.654-2.177.655-3.59.655q-2.379 0-4.192-.978-1.815-.978-2.577-2.915t-.762-5.991v-1.579h6.16v1.811q0 2.817.168 4 .166 1.185 1.158 1.184a.91.91 0 0 0 .74-.341q.282-.34.305-.735t.053-3.426v-5.758q0-1.631-.289-2.224c-.289-.593-.514-.592-.961-.592a.95.95 0 0 0-.717.305 1.43 1.43 0 0 0-.373.654q-.085.35-.084 1.624h-6.099l.259-14.637h13.218zM503.358 241.741v4.646h-7.639v4.933q1.433-1.991 3.69-1.991 2.545 0 3.849 1.677t1.304 6.448v4.144q0 3.086-.251 4.529a6.9 6.9 0 0 1-1.075 2.673q-.823 1.229-2.294 1.883c-1.471.654-2.178.655-3.591.655q-2.379 0-4.192-.978-1.815-.978-2.577-2.915t-.762-5.991v-1.579h6.16v1.811q0 2.817.168 4 .168 1.185 1.159 1.184a.91.91 0 0 0 .739-.341q.282-.34.305-.735c.023-.395.032-1.405.053-3.426v-5.758q0-1.631-.289-2.224c-.289-.593-.514-.592-.961-.592a.95.95 0 0 0-.716.305q-.29.305-.374.654c-.084.349-.084.775-.084 1.624h-6.099l.259-14.637h13.218zM519.333 241.741v4.646h-7.639v4.933q1.433-1.991 3.69-1.991 2.545 0 3.849 1.677t1.304 6.448v4.144q0 3.086-.252 4.529-.252 1.445-1.075 2.673c-.823 1.228-1.313 1.447-2.294 1.883s-2.178.655-3.59.655q-2.379 0-4.192-.978-1.815-.978-2.577-2.915t-.763-5.991v-1.579h6.16v1.811q0 2.817.168 4 .167 1.185 1.159 1.184a.91.91 0 0 0 .74-.341q.28-.34.305-.735c.025-.395.033-1.405.053-3.426v-5.758q0-1.631-.289-2.224c-.289-.593-.514-.592-.961-.592a.95.95 0 0 0-.717.305 1.43 1.43 0 0 0-.373.654q-.084.35-.084 1.624h-6.098l.259-14.637h13.217zM533.433 254.324q1.404.556 2.089 1.821.687 1.266.686 5.931 0 3.465-.671 5.375t-2.317 2.907-4.224.996q-2.927 0-4.597-1.157-1.67-1.156-2.195-2.834-.526-1.677-.526-5.821v-2.296h6.16v4.718q0 1.883.19 2.395c.19.512.409.511.846.511q.717 0 .946-.646.228-.645.228-3.372v-2.009q0-1.668-.319-2.439-.32-.771-.946-1.014-.625-.241-2.424-.278v-4.215q2.195 0 2.714-.197.518-.197.747-.861t.228-2.081v-1.614q0-1.524-.267-2.009c-.267-.485-.455-.484-.831-.484q-.64 0-.877.511c-.237.511-.236 1.067-.236 2.18v2.385h-6.16v-2.475q0-4.16 1.616-5.623c1.616-1.463 2.79-1.462 5.138-1.462q4.406 0 5.976 2.025c1.57 2.025 1.571 3.227 1.571 5.628q0 2.439-.564 3.523-.563 1.084-1.981 1.981M92.014 241.741l-3.682 13.112 4.033 15.928h-6.632l-2.599-12.448v12.448h-6.419v-29.04h6.419v11.283l2.858-11.283zM92.689 241.741h6.403q3.034 0 4.597.556 1.563.555 2.523 2.25.96 1.693.96 5.458 0 2.547-.678 3.549-.679 1.004-2.676 1.541 2.226.593 3.018 1.965.793 1.374.793 4.209v2.692q0 2.944-.572 4.361-.572 1.418-1.822 1.939-1.25.52-5.123.52h-7.425v-29.04zm6.419 4.968v6.457q.41-.017.64-.018.945 0 1.204-.547.26-.546.259-3.13 0-1.362-.214-1.91t-.556-.691q-.342-.142-1.333-.161m0 10.977v8.126q1.355-.054 1.73-.502.373-.447.373-2.206v-2.708q0-1.866-.335-2.26-.336-.395-1.768-.45M124.414 241.741l-3.267 29.04h-9.75l-3.708-29.04h6.768q1.18 11.999 1.685 20.305.497-8.394 1.056-14.905l.446-5.4zM124.716 241.741h6.403q3.034 0 4.597.556 1.563.555 2.524 2.25.96 1.693.96 5.458 0 2.547-.678 3.549-.679 1.004-2.676 1.541 2.226.593 3.018 1.965.792 1.374.793 4.209v2.692q0 2.944-.571 4.361-.573 1.418-1.822 1.939-1.251.52-5.123.52h-7.425zm6.418 4.968v6.457q.412-.017.641-.018.945 0 1.204-.547.26-.546.259-3.13 0-1.362-.214-1.91-.213-.547-.556-.691-.343-.142-1.334-.161m0 10.977v8.126q1.357-.054 1.731-.502.374-.447.374-2.206v-2.708q0-1.866-.335-2.26-.338-.395-1.77-.45"/><path fill="#fff" d="M520.062 185.722c-11.189-21.385-22.424-37.756-30.188-48.059v43.935h-45.853v-24.101c-13.497 4.264-28.66 7.225-44.78 7.225-.36 0-.714-.012-1.073-.015v16.891h-45.853v-24.793c-19.914-6.58-36.005-15.885-45.854-22.416v47.208h-45.854v-24.793c-13.729 4.536-29.276 7.767-45.853 7.902v16.891H168.9v-24.101c-18.907-5.975-34.538-14.513-44.897-21.095-.309.405-.635.838-.955 1.264v43.932H94.994a368 368 0 0 0-1.89 3.54 358.4 358.4 0 0 0-20.826 47.794h50.771v-47.21h45.853v47.21h13.758a194 194 0 0 1 32.096-21.84v-25.37h45.853v7.64a192.6 192.6 0 0 1 45.854-5.515v-2.125h45.854v7.641a191.5 191.5 0 0 1 45.853 17.73v-25.371h45.854v47.21h45.853v-47.21h30.185z"/><path d="M266.173 258.813c0 20.593 18.646 26.16 21.15 42.579 5.076 0 9.184-8.838 9.184-19.759 0-5.566-2.783-10.082-2.783-22.542 0-11.688 13.616-28.253 24.725-35.686 9.933-6.646 22.863-5.502 30.377-13.016-9.88 0-8.519 3.089-16.482 4.879-3.247.73-7.191 1.244-12.182 1.244-20.92 0-31.726 1.948-40.353 22.542-7.537 0-13.636 8.838-13.636 19.759M252.536 358.442s7.236-4.729 7.236-10.575c-6.739-24.429-35.065-14.193-35.065-32.003 0-9.189 9.568-17.128 15.097-20.95-.576.031-1.138.078-1.739.078-14.193 0-19.758 9.74-19.758 9.74v36.735C214.192 358.502 203 353.99 203 364.844c0 12.315 6.27 18.575 12.68 28.014 1.52 2.238 2.509 4.836 3.519 7.702.682-24.851-4.788-37.577-4.788-42.674 0-7.428 7.25-17.546 10.018-20.315 12.245 12.245 30.335.599 28.107 20.871M328.325 487.886c7.039-21.609 12.589-45.836 27.736-60.983 0 0-7.235-6.597-7.235-14.75 0-18.159 36.804-18.994 28.664-48.215-11.062 8.975-16.265 24.645-30.264 21.916 0 0 7.931 4.2 7.931 9.392 0 5.538-5.427 6.784-6.888 10.019 0 0-5.636-9.81-13.636-7.444 6.679 5.983 6.679 8.775 6.679 19.621 0 16.141-4.376 21.885-12.163 28.621-5.818 5.033-13.54 8.515-22.763 10.479l21.011 21.011-20.315 17.81h-18.367c-36.179 0-42.579-12.245-42.579-12.245 2.437-2.437-4.731-26.438 7.235-26.438l-5.565-6.401-6.401 6.401 1.113 2.505s-20.593-13.08-16.419-43.693c0 0-7.977 10.854-7.977 19.481 0 0-5.547 11.854-.372 22.542 0 19.483 41.153 40.982 52.382 53.71h45.572c4.632-6.928 9.881-14.927 12.621-23.339M211.906 267.162s-17.533 6.957-13.358 33.952c12.523-6.929 16.698-20.872 33.396-26.439-13.358-6.631-19.714-13.978-25.881-15.306 22.82-34.508 46.753-15.585 74.861-49.814-30.334 25.324-70.409 6.679-90.446 49.814 18.923-1.39 21.428 7.793 21.428 7.793M170.439 406.031s6.459-9.241 18.924-7.236l2.319.374s-8.076-14.49-8.076-32.848c0-16.767 8.393-29.16 15.775-30.699l-21.907-21.907c-4.774 7.11-8.149 16.11-8.149 24.412.002 27.83 13.638 36.178 1.114 67.904M198.199 485.832c0-20.882 7.932-37.778 7.932-37.778-8.767 1.252-8.277-4.52-14.61-6.262 3.33-7.713 7.931-3.653 7.931-15.445h-15.469c-3.407 9.204-7.172 18.01-7.172 33.421 0 22.161 6.538 41.43 16.204 51.459h9.839c-2.384-4.996-4.655-12.999-4.655-25.395"/><path d="M302.56 405.683h-58.442l29.221 29.012zM224.197 498.338c-.182 5.124-.624 9.375-1.196 12.888h2.852c.376-6.358-.739-10.58-1.656-12.888M335.079 350.654c8.033-6.57 13.19-14.893 13.19-14.893-30.473-7.931-34.647 22.542-34.647 22.542 2.481.325 4.898.179 7.231-.307l-.135-8.459 7.097-5.844zM390.57 385.437l-14.193 71.243 21.428-21.985c3.34-36.457-3.235-49.258-7.235-49.258M334.633 280.242c11.966 15.863 52.753-.483 48.423 34.787 0 0 11.697-9.175 14.471-26.716 0 0-23.376-22.542-40.631-22.542-15.027 0-22.263 14.471-22.263 14.471M403.372 358.164s9.462-7.095 6.958-15.863c-7.538 4.454-13.636-7.514-13.636-7.514 1.052 13.975 6.678 23.377 6.678 23.377"/><path d="M460.701 424.12c0-17.587-5.129-26.59-7.618-39.274-6.604 5.763-8.126 9.81-14.367 13.114 0 0-7.236-1.113-7.236-7.236 0-9.665 13.236-17.785 21.442-27.112.292-3.12.543-6.483.543-10.179 0-36.457-15.306-39.518-15.306-39.518s4.457 14.75 5.844 29.221c-8.003 10.499-16.458 17.936-23.966 24.701-4.632 4.173-12.49.624-12.49 12.313 0 11.241 5.096 15.851 10.5 19.945 6.103 4.621 12.598 11.501 12.598 20.685 0 23.868-45.26 67.747-53.973 90.446h21.521c9.719-20.362 62.508-26.376 62.508-87.106M355.033 495.385c.39 5.668 1.466 9.596 2.006 15.841h1.514c-.258-6.449-1.07-10.609-3.52-15.841"/><g fill="#ffde2f"><path d="M217.75 457.516c-5.176-10.688.372-22.542.372-22.542 0-8.628 7.977-19.481 7.977-19.481-6.122-8.905-6.545-16.93-10.419-22.635-6.409-9.439-12.68-15.7-12.68-28.014 0-10.853 11.192-6.342 15.307-23.377v-36.735s5.566-9.74 19.758-9.74c15.998 0 22.636-11.411 28.943-11.411 5.844 0 10.681 7.62 14.193 9.184 0 0-.212-2.004-.574-5.255-6.254-7.988-14.454-15.038-14.454-28.696 0-8.094 3.354-15.034 8.157-18.089-1.164-5.078-3.147-8.709-3.147-13.08 0-9.998 8.579-13.866 9.741-18.088-28.108 34.229-52.042 15.306-74.861 49.814 6.167 1.328 12.523 8.675 25.881 15.306-16.698 5.566-20.872 19.51-33.396 26.439-6.563-2.502-14.963 3.504-21.072 12.602l21.907 21.907c-7.383 1.539-15.775 13.932-15.775 30.699 0 18.358 8.076 32.848 8.076 32.848l-2.319-.374c0 12.083-2.568 19.953-5.381 27.551h15.469c0 11.792-4.602 7.732-7.931 15.445 6.333 1.742 5.844 7.514 14.61 6.262 0 0-7.932 16.897-7.932 37.778 0 12.396 2.271 20.4 4.655 25.394h2.9c-2.009-9.366-2.47-27.528 11.995-53.712"/><path d="M242.176 355.816c1.172 4.209 1.637 5.57 6.325 8.331 0 0 4.035-2.552 4.035-5.705 2.228-20.272-15.862-8.626-28.107-20.872 4.452 11.341 16.573 14.037 17.747 18.246M353.022 444.763c2.473-5.76 7.447-8.909 9.163-15.355 0 0-3.619-2.784-3.619-9.741 0-5.844 20.594-12.446 20.594-27.829 0-5.076-.803-9.53-2.019-12.113-6.074 14.659-28.315 18.31-28.315 32.429 0 8.153 7.235 14.75 7.235 14.75-11.309 11.31-17.268 27.68-22.491 44.244 11.07-5.111 15.05-16.134 19.452-26.385M220.046 465.917c.304 12.501 4.244 12.745 4.244 27.219 0 1.83-.034 3.555-.092 5.201.917 2.309 2.032 6.53 1.656 12.888h44.291c-9.639-10.917-41.289-28.29-50.099-45.308M331.572 490.632s-.794-4.537-.625-11.044a589 589 0 0 1-2.621 8.298c-2.74 8.412-7.989 16.411-12.621 23.34h4.915c2.9-6.023 6.853-13.809 10.952-20.594M269.999 444.922l3.34-10.227-20.004-19.861zM438.716 397.96c6.24-3.304 7.763-7.352 14.367-13.114a70 70 0 0 1-.935-6.127c-.464-4.373.23-9.297.774-15.106-8.206 9.327-21.442 17.447-21.442 27.112 0 6.122 7.236 7.235 7.236 7.235M430.645 420.78c0-9.184-6.496-16.064-12.598-20.685-2.299-1.741-4.537-3.581-6.355-5.979 1.292 6.903 9.77 10.173 9.77 22.768 0 13.542-2.906 14.52-7.333 24.421-1.257 2.812-2.199 6.782-3.412 11.782-1.192 4.911-8.038 10.814-6.952 17.591 13.574-18.14 26.88-36.961 26.88-49.898M445.673 415.493c3.618 28.386-14.471 42.857-48.146 73.47l40.354-26.16c6.957-23.011 18.162-32.633 7.792-47.31"/></g><path fill="#fff" d="M306.461 652.6c16.914-3.552 33.161-8.39 48.646-14.471h-97.292c15.485 6.081 31.732 10.919 48.646 14.471M469.054 511.226h27.257c24.39-46.642 38.008-103.428 38.008-169.203-7.423 63.284-30.213 123.276-65.265 169.203M78.603 342.023c0 65.775 13.618 122.562 38.007 169.203h27.257c-35.052-45.927-57.841-105.919-65.264-169.203"/></svg>