<svg xmlns="http://www.w3.org/2000/svg" viewBox="0 0 612 792"><path fill="#fff" d="M169.773 261.365v112.387h30.606v225.97l30.606 22.761V373.752h30.606v271.494l30.606 22.763V373.752h30.606v294.257l30.606-22.763V373.752h30.607v248.731l30.604-22.761v-225.97h30.607V261.365z"/><g fill="#3155a6"><path d="M169.773 261.365h275.453v20.37H169.773zM169.773 343.195h275.453v20.371H169.773zM169.773 373.752V576.96l30.606 22.762v-225.97zM230.985 373.752v248.731l30.606 22.763V373.752zM292.197 373.752v294.257L307.5 679.39l15.303-11.381V373.752zM353.409 373.752v271.494l30.607-22.763V373.752zM414.62 599.722l30.607-22.762V373.752H414.62zM169.773 312.718q0-6.27 1.501-10.524 1.12-3.135 3.057-5.626 1.936-2.49 4.243-3.694 3.067-1.624 7.076-1.624 7.255 0 11.61 5.626t4.355 15.646q0 9.938-4.322 15.549c-4.322 5.611-6.733 5.612-11.555 5.612q-7.322 0-11.644-5.584-4.32-5.584-4.321-15.381m6.829-.28q0 6.97 2.575 10.566t6.539 3.597q3.963 0 6.504-3.568 2.542-3.568 2.542-10.707 0-7.053-2.474-10.523-2.475-3.471-6.572-3.472c-4.097-.001-4.934 1.172-6.605 3.514q-2.508 3.511-2.509 10.593M219.12 332.982v-40.698h6.628v33.785h16.48v6.913zM263.517 332.982v-17.27l-12.024-23.764h7.77l7.725 16.234 7.569-16.234h7.636l-12.069 23.819v17.214zM297.547 332.982v-41.033h9.92l5.956 27.99 5.889-27.99h9.942v41.033h-6.158v-32.3l-6.517 32.3h-6.381l-6.494-32.3v32.3zM347.989 332.982v-41.033h10.637q6.044 0 7.882.615 2.82.924 4.726 4.017 1.903 3.094 1.903 7.991 0 3.78-1.099 6.353-1.097 2.577-2.787 4.045-1.691 1.47-3.438 1.945-2.373.588-6.875.588h-4.321v15.478zm6.628-34.091v11.643h3.628q3.918 0 5.239-.643c1.321-.643 1.571-1.101 2.072-2.016q.75-1.371.75-3.19 0-2.24-1.053-3.694-1.053-1.456-2.665-1.819-1.188-.28-4.77-.28zM390.528 332.982v-41.033h6.628v41.033zM445.227 332.982h-7.211l-2.865-9.32h-13.122l-2.71 9.32h-7.031l12.786-41.033h7.008zm-12.205-16.234-4.523-15.227-4.434 15.227zM399.895 193.032c-.007-6.714-.62-12.255-4.093-16.85-3.502-4.553-9.178-7.369-18.047-9.852l-67.257-18.735v-4.082c3.511-.969 6.032-3.582 6.032-6.662s-2.521-5.692-6.032-6.661v-13.803a3 3 0 0 0-5.999 0v13.803c-3.511.969-6.032 3.582-6.032 6.661s2.521 5.692 6.032 6.662v4.083l-67.257 18.735c-8.869 2.482-14.543 5.298-18.046 9.851-3.474 4.595-4.085 10.136-4.092 16.85.003 7.051 1.655 13.645 4.548 19.251l17.397 42.622h140.899l17.4-42.629c2.892-5.603 4.544-12.194 4.547-19.244m-168.403 32.382c4.063 2.5 8.693 3.946 13.626 3.943 5.439 0 10.299-2.096 14.101-5.151a26.8 26.8 0 0 0 5.335-5.804 25.5 25.5 0 0 0 2.129 2.825c4.78 5.486 11.524 8.131 18.62 8.131h.084c7.027.021 12.825-3.205 16.915-7.817 2.119-2.377 3.836-5.11 5.198-8.022 1.361 2.912 3.079 5.645 5.198 8.021 4.087 4.613 9.887 7.84 16.914 7.818l.083.001c7.098 0 13.84-2.645 18.622-8.131a25.5 25.5 0 0 0 2.129-2.825 26.8 26.8 0 0 0 5.334 5.803c3.803 3.054 8.662 5.15 14.102 5.15h.012c4.93.001 9.557-1.446 13.617-3.944l-3.797 9.3H235.287zm112.313-8.137c-3.616 4.102-8.466 6.061-14.192 6.082-5.194-.021-9.174-2.205-12.445-5.819-3.181-3.539-5.466-8.507-6.668-13.646V155.77l28.939 21.084c4.642 3.371 7.128 5.651 8.478 8.202 1.371 2.541 1.958 5.937 1.953 12.068-.005 9.515-2.461 16.039-6.065 20.153M304.5 203.895c-1.202 5.14-3.487 10.105-6.669 13.646-3.271 3.615-7.248 5.798-12.444 5.82-5.725-.023-10.577-1.981-14.192-6.084-3.603-4.111-6.06-10.638-6.064-20.152-.006-6.133.581-9.529 1.953-12.068 1.351-2.552 3.837-4.831 8.479-8.202L304.5 155.77zm86.53-24.078c2.169 2.814 2.873 6.768 2.865 13.215.006 8.554-2.817 16.235-7.236 21.683-4.441 5.457-10.339 8.641-16.777 8.645-3.873 0-7.411-1.482-10.349-3.833-2.623-2.097-4.69-4.895-5.904-7.688 1.456-4.202 2.242-9.11 2.24-14.715-.006-6.412-.554-10.941-2.667-14.901-2.132-3.949-5.478-6.744-10.233-10.218l-20.305-14.794 53.481 14.897c8.446 2.341 12.743 4.852 14.885 7.709m-167.06 0c2.14-2.858 6.439-5.368 14.884-7.707l53.484-14.9-20.308 14.795c-4.753 3.475-8.101 6.27-10.233 10.219-2.112 3.96-2.66 8.489-2.666 14.9-.003 5.604.783 10.512 2.239 14.713-1.213 2.794-3.281 5.593-5.904 7.69-2.936 2.351-6.476 3.832-10.348 3.832-6.438-.004-12.336-3.188-16.777-8.645-4.42-5.446-7.241-13.129-7.237-21.683-.008-6.447.696-10.4 2.866-13.214m17.11 69.089-2.969-7.273h138.776l-2.969 7.273z"/></g></svg>