<svg enable-background="new 0 0 612 792" viewBox="0 0 612 792" xmlns="http://www.w3.org/2000/svg"><path d="m457.867 262.706c.276-.383 1.273-1.027 2.585-1.588 1.97-.87 4.584-1.698 6.785-2.674 1.107-.496 2.117-1.021 2.95-1.705.811-.663 1.56-1.627 1.566-2.902.006-1.316-.594-2.439-1.345-3.224-1.758-1.792-4.284-2.514-5.391-2.778-.423-.525-1.24-1.477-2.364-2.527 2.846-.265 5.423-1.207 7.429-2.662 2.373-1.716 3.989-4.24 3.99-7.125-.001-1.556-.481-2.999-1.285-4.274 1.717-.469 3.278-1.196 4.591-2.148 2.373-1.714 3.988-4.239 3.99-7.126-.002-2.886-1.617-5.41-3.99-7.125-.313-.228-.643-.442-.984-.644 2.339-1.715 3.932-4.218 3.932-7.081 0-2.887-1.617-5.411-3.989-7.125-2.2-1.596-5.087-2.573-8.263-2.717.75-1.24 1.192-2.636 1.193-4.134-.002-2.888-1.617-5.411-3.99-7.127-2.382-1.727-5.563-2.742-9.048-2.746-2.126.002-4.135.384-5.921 1.07-.105-2.763-1.678-5.179-3.969-6.836-2.382-1.727-5.563-2.743-9.049-2.746-3.487.002-6.667 1.019-9.049 2.746-.344.249-.665.519-.975.8-.67-1.661-1.878-3.109-3.41-4.216-2.381-1.728-5.563-2.743-9.049-2.747-3.486.003-6.667 1.019-9.049 2.747-.793.574-1.491 1.245-2.084 1.983-.407-.406-.845-.792-1.321-1.136-2.381-1.728-5.563-2.744-9.048-2.747-3.487.003-6.668 1.02-9.05 2.747-2.13 1.539-3.64 3.735-3.929 6.258-.571-.689-1.232-1.318-1.981-1.859-2.382-1.728-5.563-2.743-9.049-2.747-3.486.003-6.667 1.019-9.05 2.747-2.177 1.574-3.7 3.833-3.94 6.425-.427-.433-.887-.84-1.391-1.204-2.382-1.727-5.563-2.743-9.05-2.748-3.485.004-6.667 1.021-9.048 2.748-2.372 1.715-3.989 4.239-3.989 7.125 0 1.347.363 2.61.98 3.754-2.804.785-4.877 1.398-6.08 1.76-.338-4.438-.546-9.087-.562-13.881 2.734-2.795 4.404-6.211 4.407-9.968-.004-5.15-3.131-9.669-7.857-12.808-1.521-1.013-3.216-1.893-5.049-2.625l.815-.231-6.49-14.915 21.785 4.095 6.123-9.318-6.123-9.318-21.786 4.095 6.49-14.914-13.987-3.97-13.985 3.97 6.49 14.915-21.788-4.096-6.121 9.317 6.121 9.318 21.789-4.095-6.492 14.914.817.232c-1.833.732-3.528 1.613-5.05 2.626-4.726 3.139-7.853 7.658-7.855 12.808.003 3.757 1.672 7.174 4.406 9.968-.016 4.793-.222 9.444-.559 13.882-1.203-.362-3.276-.975-6.081-1.76.617-1.144.98-2.407.98-3.754 0-2.887-1.617-5.41-3.989-7.125-2.381-1.727-5.563-2.743-9.048-2.748-3.488.004-6.667 1.021-9.05 2.748-.504.364-.963.771-1.391 1.204-.24-2.591-1.764-4.851-3.939-6.425-2.383-1.728-5.564-2.743-9.05-2.747-3.486.003-6.667 1.019-9.049 2.747-.748.542-1.41 1.171-1.981 1.859-.289-2.523-1.799-4.719-3.929-6.258-2.382-1.728-5.563-2.744-9.05-2.747-3.486.003-6.667 1.02-9.048 2.747-.477.344-.913.729-1.321 1.136-.592-.738-1.291-1.409-2.084-1.983-2.382-1.728-5.562-2.743-9.049-2.747-3.486.003-6.668 1.019-9.049 2.747-1.532 1.107-2.74 2.555-3.41 4.216-.309-.281-.631-.551-.975-.8-2.381-1.727-5.561-2.743-9.048-2.746-3.487.002-6.668 1.019-9.049 2.746-2.291 1.657-3.863 4.073-3.968 6.836-1.786-.686-3.794-1.068-5.92-1.07-3.486.003-6.667 1.018-9.048 2.746-2.373 1.716-3.988 4.239-3.99 7.127.001 1.498.443 2.894 1.193 4.134-3.176.143-6.063 1.121-8.263 2.717-2.372 1.714-3.989 4.238-3.989 7.125 0 2.863 1.592 5.366 3.932 7.081-.34.202-.67.416-.984.644-2.373 1.714-3.989 4.239-3.991 7.125.002 2.887 1.618 5.412 3.991 7.126 1.313.953 2.874 1.679 4.591 2.148-.804 1.275-1.285 2.719-1.285 4.274.001 2.885 1.617 5.409 3.99 7.125 2.006 1.455 4.582 2.397 7.427 2.662-1.117 1.046-1.933 1.994-2.358 2.52-.629.156-1.724.472-2.869 1.02-.866.418-1.773.968-2.527 1.766-.751.786-1.35 1.908-1.345 3.224-.003.831.346 1.58.802 2.138 1.621 1.885 4.436 2.771 7.193 3.845 2.724.964 5.402 2.138 5.891 2.886l18.965 23.756h-42.343v270.049c0 14.868 6.142 29.948 18.254 44.82 10.202 12.527 24.679 24.702 41.864 35.209 16.722 10.224 35.805 18.759 55.186 24.684 20.828 6.366 54.488 10.785 60.442 18.214 5.954-7.429 39.613-11.848 60.442-18.214 19.381-5.925 38.464-14.46 55.186-24.684 17.185-10.507 31.66-22.682 41.863-35.209 12.112-14.872 18.254-29.952 18.254-44.82v-270.051h-42.344zm-245.097 23.756c24.669-3.432 59.13-7.145 92.73-7.144 31.235-.002 63.222 3.206 87.387 6.417 1.829.243 3.607.485 5.342.727z"/><path d="m305.5 276.459c43.617.003 88.519 6.205 111.935 10.003h17.81l1.938-2.427c-2.854-4.009-4.697-9.361-5.205-15.255 0 0 1.071 3.036 3.304 4.019 0 0 2.197-3.391 4.912-4.912-.733 5.016-.147 8.586.995 11.13l14.445-18.095c.036-.042.081-.078.119-.119-.151-1.174-.262-2.514-.262-3.939 0-1.441.519-2.609 1.159-2.609s1.159 1.168 1.159 2.609c0 .846-.041 1.656-.105 2.424.97-.554 2.074-1.007 3.226-1.449 0-.052-.004-.101-.004-.153 0-1.441.518-2.609 1.159-2.609.531 0 .974.809 1.111 1.906 2.569-.935 5.005-2.035 5.53-2.803.163-.213.165-.287.169-.345.005-.666-.415-1.263-1.308-1.881-.866-.59-2.047-1.018-2.823-1.237-.52-.147-.828-.205-.829-.205l-.555-.106-.332-.454s-.059-.081-.202-.26c-.143-.178-.358-.439-.637-.754-.558-.63-1.372-1.475-2.364-2.31-1.992-1.687-4.681-3.255-7.381-3.237-8.534-.085-20.596 6.607-38.783 6.633-8.281-.006-13.492-4.867-18.661-9.271-5.238-4.457-10.42-8.573-19.101-8.588-9.338.011-15.138 2.442-20.066 4.947-4.903 2.481-9.006 5.24-14.635 5.258-5.536-.048-9.679-3.495-14.834-6.586-5.172-3.131-11.328-6.159-20.886-6.17-9.56.012-15.715 3.04-20.887 6.17-5.154 3.091-9.3 6.538-14.834 6.586-5.627-.018-9.732-2.777-14.635-5.258-4.927-2.505-10.727-4.936-20.065-4.947-8.682.015-13.864 4.131-19.102 8.588-5.169 4.404-10.38 9.265-18.66 9.271-18.19-.025-30.25-6.717-38.782-6.633-4.733-.103-9.412 5.001-10.383 6.3-.144.179-.203.26-.203.26l-.334.454-.553.106c0 .001-.162.028-.476.11-.313.081-.755.208-1.238.382-.968.343-2.091.924-2.677 1.565-.397.436-.562.798-.568 1.266-.006.059.03.28.53.7.478.4 1.301.86 2.289 1.296.869.388 1.86.764 2.88 1.145.138-1.094.581-1.9 1.111-1.9.641 0 1.16 1.168 1.16 2.609 0 .05-.004.097-.004.146.558.218 1.107.44 1.63.67.561.253 1.096.506 1.595.784-.063-.768-.105-1.578-.105-2.423 0-1.441.52-2.609 1.16-2.609.641 0 1.16 1.168 1.16 2.609 0 1.422-.109 2.759-.261 3.93.038.043.08.083.117.128l14.446 18.096c1.143-2.544 1.729-6.115.996-11.131 2.714 1.521 4.912 4.912 4.912 4.912 2.232-.982 3.304-4.019 3.304-4.019-.507 5.894-2.351 11.247-5.206 15.255l1.938 2.426h17.811c23.416-3.794 68.318-9.995 111.936-9.999z" fill="#cf9c5a"/><path d="m305.5 236.232c-.641 0-1.16 1.168-1.16 2.609 0 4.635 1.16 8.385 1.16 8.385s1.159-3.75 1.159-8.385c0-1.441-.519-2.609-1.159-2.609z"/><path d="m310.93 237.094c-.641 0-1.16 1.168-1.16 2.609 0 4.635 1.16 8.385 1.16 8.385s1.159-3.75 1.159-8.385c0-1.441-.52-2.609-1.159-2.609z"/><path d="m316.358 237.957c-.641 0-1.159 1.168-1.159 2.609 0 4.635 1.159 8.385 1.159 8.385s1.159-3.75 1.159-8.385c.001-1.441-.519-2.609-1.159-2.609z"/><path d="m321.433 239.952c-.641 0-1.159 1.167-1.159 2.609 0 4.635 1.159 8.385 1.159 8.385s1.159-3.75 1.159-8.385c0-1.441-.52-2.609-1.159-2.609z"/><path d="m326.384 242.343c-.641 0-1.16 1.168-1.16 2.609 0 4.635 1.16 8.385 1.16 8.385s1.159-3.75 1.159-8.385c0-1.441-.52-2.609-1.159-2.609z"/><path d="m331.102 245.159c-.641 0-1.159 1.168-1.159 2.609 0 4.635 1.159 8.385 1.159 8.385s1.16-3.75 1.16-8.385c0-1.441-.521-2.609-1.16-2.609z"/><path d="m336.016 247.521c-.641 0-1.16 1.168-1.16 2.609 0 4.635 1.16 8.385 1.16 8.385s1.159-3.75 1.159-8.385c0-1.441-.52-2.609-1.159-2.609z"/><path d="m341.301 248.856c-.641 0-1.16 1.168-1.16 2.609 0 4.636 1.16 8.385 1.16 8.385s1.159-3.749 1.159-8.385c0-1.441-.52-2.609-1.159-2.609z"/><path d="m346.645 247.567c-.641 0-1.159 1.168-1.159 2.609 0 4.635 1.159 8.385 1.159 8.385s1.159-3.75 1.159-8.385c0-1.441-.52-2.609-1.159-2.609z"/><path d="m351.495 245.049c-.641 0-1.159 1.168-1.159 2.609 0 4.636 1.159 8.385 1.159 8.385s1.16-3.749 1.16-8.385c0-1.441-.52-2.609-1.16-2.609z"/><path d="m356.388 242.559c-.64 0-1.159 1.167-1.159 2.609 0 4.635 1.159 8.385 1.159 8.385s1.16-3.75 1.16-8.385c0-1.442-.52-2.609-1.16-2.609z"/><path d="m361.401 240.316c-.641 0-1.159 1.168-1.159 2.609 0 4.635 1.159 8.385 1.159 8.385s1.16-3.75 1.16-8.385c0-1.441-.52-2.609-1.16-2.609z"/><path d="m366.849 239.571c-.641 0-1.16 1.168-1.16 2.609 0 4.635 1.16 8.385 1.16 8.385s1.159-3.75 1.159-8.385c0-1.441-.52-2.609-1.159-2.609z"/><path d="m372.294 238.826c-.64 0-1.159 1.168-1.159 2.609 0 4.635 1.159 8.385 1.159 8.385s1.16-3.75 1.16-8.385c0-1.441-.52-2.609-1.16-2.609z"/><path d="m377.584 240.123c-.641 0-1.159 1.167-1.159 2.609 0 4.635 1.159 8.385 1.159 8.385s1.159-3.75 1.159-8.385c0-1.442-.519-2.609-1.159-2.609z"/><path d="m382.852 241.691c-.64 0-1.159 1.167-1.159 2.609 0 4.635 1.159 8.385 1.159 8.385s1.16-3.75 1.16-8.385c.001-1.441-.52-2.609-1.16-2.609z"/><path d="m387.735 244.018c-.641 0-1.16 1.167-1.16 2.609 0 4.636 1.16 8.386 1.16 8.386s1.159-3.75 1.159-8.386c.001-1.441-.519-2.609-1.159-2.609z"/><path d="m392.099 247.362c-.641 0-1.16 1.168-1.16 2.609 0 4.635 1.16 8.385 1.16 8.385s1.159-3.75 1.159-8.385c0-1.441-.52-2.609-1.159-2.609z"/><path d="m396.641 250.358c-.641 0-1.159 1.168-1.159 2.609 0 4.635 1.159 8.385 1.159 8.385s1.16-3.75 1.16-8.385c0-1.441-.521-2.609-1.16-2.609z"/><path d="m401.895 251.974c-.641 0-1.16 1.168-1.16 2.609 0 4.635 1.16 8.385 1.16 8.385s1.159-3.75 1.159-8.385c.001-1.441-.519-2.609-1.159-2.609z"/><path d="m407.358 252.041c-.641 0-1.159 1.168-1.159 2.609 0 4.635 1.159 8.385 1.159 8.385s1.16-3.75 1.16-8.385c.001-1.441-.52-2.609-1.16-2.609z"/><path d="m412.852 251.839c-.641 0-1.16 1.168-1.16 2.609 0 4.635 1.16 8.385 1.16 8.385s1.159-3.75 1.159-8.385c0-1.441-.52-2.609-1.159-2.609z"/><path d="m418.336 251.471c-.64 0-1.159 1.168-1.159 2.609 0 4.635 1.159 8.385 1.159 8.385s1.16-3.75 1.16-8.385c0-1.441-.519-2.609-1.16-2.609z"/><path d="m423.826 251.484c-.641 0-1.16 1.168-1.16 2.609 0 4.635 1.16 8.385 1.16 8.385s1.159-3.75 1.159-8.385c0-1.441-.519-2.609-1.159-2.609z"/><path d="m429.317 251.736c-.641 0-1.16 1.168-1.16 2.609 0 4.635 1.16 8.385 1.16 8.385s1.159-3.75 1.159-8.385c.001-1.441-.519-2.609-1.159-2.609z"/><path d="m434.809 251.988c-.641 0-1.16 1.168-1.16 2.609 0 4.635 1.16 8.385 1.16 8.385s1.159-3.75 1.159-8.385c0-1.441-.52-2.609-1.159-2.609z"/><path d="m440.3 252.24c-.641 0-1.159 1.168-1.159 2.609 0 4.635 1.159 8.385 1.159 8.385s1.159-3.75 1.159-8.385c0-1.441-.52-2.609-1.159-2.609z"/><path d="m445.78 252.611c-.641 0-1.16 1.168-1.16 2.609 0 4.635 1.16 8.385 1.16 8.385s1.159-3.75 1.159-8.385c0-1.441-.519-2.609-1.159-2.609z"/><path d="m451.216 253.434c-.641 0-1.16 1.168-1.16 2.609 0 4.635 1.16 8.385 1.16 8.385s1.159-3.75 1.159-8.385c0-1.441-.52-2.609-1.159-2.609z"/><path d="m300.071 237.094c-.64 0-1.16 1.168-1.16 2.609 0 4.635 1.16 8.385 1.16 8.385s1.16-3.75 1.16-8.385c-.001-1.441-.52-2.609-1.16-2.609z"/><path d="m294.642 237.957c-.64 0-1.16 1.168-1.16 2.609 0 4.635 1.16 8.385 1.16 8.385s1.159-3.75 1.159-8.385c0-1.441-.519-2.609-1.159-2.609z"/><path d="m289.567 239.952c-.64 0-1.16 1.167-1.16 2.609 0 4.635 1.16 8.385 1.16 8.385s1.159-3.75 1.159-8.385c.001-1.441-.519-2.609-1.159-2.609z"/><path d="m284.617 242.343c-.64 0-1.16 1.168-1.16 2.609 0 4.635 1.16 8.385 1.16 8.385s1.16-3.75 1.16-8.385c-.001-1.441-.52-2.609-1.16-2.609z"/><path d="m279.898 245.159c-.64 0-1.16 1.168-1.16 2.609 0 4.635 1.16 8.385 1.16 8.385s1.159-3.75 1.159-8.385c.001-1.441-.518-2.609-1.159-2.609z"/><path d="m274.984 247.521c-.64 0-1.159 1.168-1.159 2.609 0 4.635 1.159 8.385 1.159 8.385s1.16-3.75 1.16-8.385c0-1.441-.519-2.609-1.16-2.609z"/><path d="m269.7 248.856c-.64 0-1.16 1.168-1.16 2.609 0 4.636 1.16 8.385 1.16 8.385s1.16-3.749 1.16-8.385c-.001-1.441-.52-2.609-1.16-2.609z"/><path d="m264.355 247.567c-.64 0-1.16 1.168-1.16 2.609 0 4.635 1.16 8.385 1.16 8.385s1.16-3.75 1.16-8.385c0-1.441-.519-2.609-1.16-2.609z"/><path d="m259.504 245.049c-.64 0-1.159 1.168-1.159 2.609 0 4.636 1.159 8.385 1.159 8.385s1.16-3.749 1.16-8.385c0-1.441-.519-2.609-1.16-2.609z"/><path d="m254.612 242.559c-.64 0-1.16 1.167-1.16 2.609 0 4.635 1.16 8.385 1.16 8.385s1.16-3.75 1.16-8.385c-.001-1.442-.52-2.609-1.16-2.609z"/><path d="m249.599 240.316c-.64 0-1.16 1.168-1.16 2.609 0 4.635 1.16 8.385 1.16 8.385s1.159-3.75 1.159-8.385c0-1.441-.519-2.609-1.159-2.609z"/><path d="m244.152 239.571c-.64 0-1.16 1.168-1.16 2.609 0 4.635 1.16 8.385 1.16 8.385s1.159-3.75 1.159-8.385c0-1.441-.519-2.609-1.159-2.609z"/><path d="m238.706 238.826c-.64 0-1.16 1.168-1.16 2.609 0 4.635 1.16 8.385 1.16 8.385s1.16-3.75 1.16-8.385c-.001-1.441-.52-2.609-1.16-2.609z"/><path d="m233.416 240.123c-.64 0-1.16 1.167-1.16 2.609 0 4.635 1.16 8.385 1.16 8.385s1.159-3.75 1.159-8.385c0-1.442-.519-2.609-1.159-2.609z"/><path d="m228.147 241.691c-.64 0-1.159 1.167-1.159 2.609 0 4.635 1.159 8.385 1.159 8.385s1.16-3.75 1.16-8.385c0-1.441-.519-2.609-1.16-2.609z"/><path d="m223.265 244.018c-.64 0-1.159 1.167-1.159 2.609 0 4.636 1.159 8.386 1.159 8.386s1.16-3.75 1.16-8.386c-.001-1.441-.52-2.609-1.16-2.609z"/><path d="m218.901 247.362c-.64 0-1.159 1.168-1.159 2.609 0 4.635 1.159 8.385 1.159 8.385s1.16-3.75 1.16-8.385c0-1.441-.519-2.609-1.16-2.609z"/><path d="m214.359 250.358c-.64 0-1.159 1.168-1.159 2.609 0 4.635 1.159 8.385 1.159 8.385s1.16-3.75 1.16-8.385c0-1.441-.52-2.609-1.16-2.609z"/><path d="m209.105 251.974c-.64 0-1.16 1.168-1.16 2.609 0 4.635 1.16 8.385 1.16 8.385s1.159-3.75 1.159-8.385c0-1.441-.519-2.609-1.159-2.609z"/><path d="m203.642 252.041c-.64 0-1.16 1.168-1.16 2.609 0 4.635 1.16 8.385 1.16 8.385s1.159-3.75 1.159-8.385c0-1.441-.519-2.609-1.159-2.609z"/><path d="m198.148 251.839c-.64 0-1.159 1.168-1.159 2.609 0 4.635 1.159 8.385 1.159 8.385s1.16-3.75 1.16-8.385c0-1.441-.519-2.609-1.16-2.609z"/><path d="m192.664 251.471c-.64 0-1.16 1.168-1.16 2.609 0 4.635 1.16 8.385 1.16 8.385s1.16-3.75 1.16-8.385c-.001-1.441-.52-2.609-1.16-2.609z"/><path d="m187.174 251.484c-.64 0-1.16 1.168-1.16 2.609 0 4.635 1.16 8.385 1.16 8.385s1.16-3.75 1.16-8.385c0-1.441-.519-2.609-1.16-2.609z"/><path d="m181.683 251.736c-.64 0-1.16 1.168-1.16 2.609 0 4.635 1.16 8.385 1.16 8.385s1.159-3.75 1.159-8.385c0-1.441-.519-2.609-1.159-2.609z"/><path d="m176.191 251.988c-.64 0-1.159 1.168-1.159 2.609 0 4.635 1.159 8.385 1.159 8.385s1.16-3.75 1.16-8.385c0-1.441-.519-2.609-1.16-2.609z"/><path d="m170.7 252.24c-.64 0-1.16 1.168-1.16 2.609 0 4.635 1.16 8.385 1.16 8.385s1.16-3.75 1.16-8.385c0-1.441-.519-2.609-1.16-2.609z"/><path d="m165.22 252.611c-.64 0-1.159 1.168-1.159 2.609 0 4.635 1.159 8.385 1.159 8.385s1.16-3.75 1.16-8.385c-.001-1.441-.52-2.609-1.16-2.609z"/><path d="m159.784 253.434c-.64 0-1.159 1.168-1.159 2.609 0 4.635 1.159 8.385 1.159 8.385s1.16-3.75 1.16-8.385c0-1.441-.519-2.609-1.16-2.609z"/><path d="m230.029 260.946c.767-.359 2.12-.15 2.62.625 3.181-1.509 1.956 6.005 4.747 4.345.082.54.415.875.57 1.329.331-.746 1.182-1.087 1.477-1.705.345-.719.116-1.872.143-2.665.277-.062.575-.059.848 0 .051.414.362.637.425 1.022.186-.052.473-.074.643-.125.337.522.889.986 1.428 1.195.071-1.216.355-7.828 2.501-6.733.301.93.701 1.91 1.137 2.804 2.561-.435 1.8-2.612 3.18-3.906 3.572 11.966-4.721 14.783-7.338 20.959-1.65-4.05-9.738-5.024-12.381-17.145z"/><path d="m380.972 260.946c-.768-.359-2.12-.15-2.62.625-3.182-1.509-1.956 6.005-4.748 4.345-.081.54-.415.875-.569 1.329-.332-.746-1.183-1.087-1.478-1.705-.345-.719-.116-1.872-.143-2.665-.277-.062-.575-.059-.849 0-.051.414-.361.637-.425 1.022-.185-.052-.473-.074-.642-.125-.337.522-.89.986-1.429 1.195-.071-1.216-.355-7.828-2.501-6.733-.302.93-.701 1.91-1.138 2.804-2.56-.435-1.8-2.612-3.18-3.906-3.572 11.966 4.722 14.783 7.338 20.959 1.651-4.05 9.74-5.024 12.384-17.145z"/><path d="m295.2 257.412c.767-.359 2.12-.15 2.62.625 3.181-1.509 1.956 6.005 4.747 4.345.082.54.416.876.571 1.329.331-.746 1.181-1.086 1.477-1.705.345-.72.116-1.872.143-2.665.277-.062.575-.058.848 0 .051.414.362.637.425 1.023.185-.053.473-.075.643-.125.337.522.89.986 1.429 1.195.071-1.216.356-7.828 2.501-6.733.302.93.701 1.91 1.137 2.804 2.561-.435 1.801-2.612 3.181-3.906 3.572 11.966-4.722 14.783-7.338 20.959-1.653-4.051-9.741-5.025-12.384-17.146z"/><path d="m145.471 302.179h320.058v58.582h-320.058z" fill="#ffe73f"/><path d="m177.305 316.85-6.89 14.211 9.342 16.004h-6.585l-8.387-14.167v14.167h-5.269v-30.215h5.269v13.604l6.725-13.604z"/><path d="m187.478 326.215c2.241 0 4.141.938 5.7 2.815 1.559 1.876 2.339 4.489 2.339 7.837 0 3.363-.792 5.968-2.376 7.816-1.585 1.847-3.473 2.771-5.663 2.771-2.372 0-4.312-.985-5.821-2.956-1.509-1.97-2.264-4.528-2.264-7.674 0-3.205.77-5.773 2.309-7.707 1.54-1.934 3.464-2.902 5.776-2.902zm0 17.432c2.15 0 3.225-2.318 3.225-6.954 0-4.433-1.075-6.65-3.225-6.65-1.029 0-1.834.585-2.415 1.755s-.871 2.845-.871 5.025c.001 4.549 1.096 6.824 3.286 6.824z"/><path d="m203.646 326.647v2.898c1.322-2.221 2.871-3.331 4.647-3.331 1.484 0 2.723.679 3.717 2.035.994 1.357 1.491 3.298 1.491 5.824v12.99h-4.496v-12.452c0-2.729-.742-4.093-2.226-4.093-1.06 0-2.104 1.124-3.134 3.374v13.171h-4.497v-20.417h4.498z"/><path d="m217.468 343.604c0-1.053.265-1.958.795-2.714.53-.757 1.163-1.136 1.9-1.136.747 0 1.385.379 1.915 1.136s.795 1.662.795 2.714c0 1.067-.265 1.975-.795 2.725-.53.749-1.168 1.124-1.915 1.124-.737 0-1.37-.375-1.9-1.124-.53-.75-.795-1.658-.795-2.725z"/><path d="m233.499 316.85h9.447c2.049 0 3.714.847 4.996 2.54s1.923 3.743 1.923 6.149c0 3.329-1.211 5.793-3.633 7.392 1.062.69 2.07 2.548 3.027 5.574s1.88 5.879 2.771 8.56h-5.781c-.346-.995-.947-2.891-1.804-5.688-.858-2.797-1.592-4.592-2.202-5.385-.611-.793-1.264-1.189-1.96-1.189h-1.514v12.263h-5.269v-30.216zm5.269 5.537v6.878h2.786c.888 0 1.592-.299 2.112-.897.52-.599.78-1.453.78-2.563 0-2.278-1.004-3.418-3.013-3.418z"/><path d="m269.198 342.025v3.569c-1.494 1.24-2.897 1.86-4.208 1.86-1.414 0-2.251-.764-2.514-2.292-1.564 1.528-3.134 2.292-4.708 2.292-1.11 0-2.054-.502-2.831-1.505-.777-1.004-1.166-2.17-1.166-3.499 0-1.776.401-3.21 1.204-4.3s3.232-2.495 7.29-4.213c.101-2.278-.727-3.417-2.483-3.417-1.907 0-3.664 1.139-5.269 3.417v-5.234c1.877-1.658 3.941-2.487 6.192-2.487 4.037 0 6.056 2.072 6.056 6.215v9.313c0 .953.247 1.429.742 1.429.372-.002.938-.384 1.695-1.148zm-6.934.081v-4.948c-1.504.752-2.536 1.429-3.096 2.029s-.84 1.364-.84 2.29c0 .593.141 1.103.424 1.529.282.427.626.64 1.029.64.847.001 1.675-.512 2.483-1.54z"/><path d="m284.17 341.484v4.606c-1.756.909-3.366 1.363-4.829 1.363-2.513 0-4.522-.963-6.026-2.89s-2.255-4.478-2.255-7.653c0-3.103.759-5.661 2.278-7.675s3.454-3.02 5.806-3.02c1.514 0 3.119.447 4.815 1.341v4.78c-1.242-.909-2.463-1.363-3.664-1.363-1.343 0-2.417.535-3.225 1.603-.808 1.069-1.211 2.499-1.211 4.29 0 1.806.393 3.261 1.181 4.366.787 1.105 1.822 1.658 3.104 1.658.948 0 2.29-.468 4.026-1.406z"/><path d="m288.045 343.604c0-1.053.265-1.958.795-2.714.53-.757 1.163-1.136 1.9-1.136.747 0 1.385.379 1.915 1.136s.795 1.662.795 2.714c0 1.067-.265 1.975-.795 2.725-.53.749-1.168 1.124-1.915 1.124-.737 0-1.37-.375-1.9-1.124-.53-.75-.795-1.658-.795-2.725z"/><path d="m318.863 327.127-5.313 20.339h-1.842l-7.537-31.591h4.537l4.038 17.218 4.402-17.218h3.444l4.409 17.217 4.005-17.217h4.534l-7.503 31.591h-1.842z"/><path d="m344.488 315.875 7.619 31.189h-4.595l-1.414-6.162h-7.681l-1.281 6.162h-4.528l6.928-31.189zm.362 19.58-2.78-12.122-2.521 12.122z"/><path d="m355.091 315.875h7.661c1.662 0 3.013.874 4.053 2.622 1.039 1.748 1.559 3.864 1.559 6.348 0 3.436-.982 5.979-2.947 7.63.862.712 1.68 2.63 2.456 5.754.775 3.124 1.524 6.069 2.248 8.836h-4.69c-.279-1.027-.768-2.984-1.462-5.872-.696-2.888-1.291-4.741-1.786-5.559s-1.025-1.228-1.591-1.228h-1.228v12.659h-4.272v-31.19zm4.272 5.716v7.1h2.259c.72 0 1.292-.309 1.714-.927.421-.617.632-1.499.632-2.645 0-2.352-.816-3.527-2.443-3.527h-2.162z"/><path d="m385.811 341.349v5.715h-12.647v-31.189h12.475v5.715h-8.202v6.542h7.822v5.715h-7.822v7.501h8.374z"/><path d="m407.96 318.041v6.809c-2.186-1.92-4.323-2.88-6.41-2.88-2.014 0-3.565.923-4.653 2.768-1.089 1.846-1.633 4.197-1.633 7.055 0 2.739.544 4.957 1.633 6.653 1.088 1.697 2.522 2.545 4.298 2.545.941 0 1.886-.372 2.836-1.116v-3.639h-2.48v-5.715h6.766v12.748c-.679 1.235-1.712 2.244-3.101 3.025-1.387.781-2.76 1.172-4.118 1.172-2.989 0-5.442-1.5-7.362-4.499s-2.879-6.813-2.879-11.442c0-4.733.959-8.592 2.879-11.576s4.406-4.477 7.46-4.477c2.519.002 4.775.857 6.764 2.569z"/><path d="m427.248 341.349v5.715h-12.647v-31.189h12.476v5.715h-8.203v6.542h7.822v5.715h-7.822v7.501h8.374z"/><path d="m442.256 327.44 5.514-11.565h3.714v31.189h-4.273v-19.468l-4.634 9.778h-.642l-4.635-9.778v19.468h-4.272v-31.189h3.711z"/><path d="m236.202 367.191v274.427c10.906 4.086 22.215 7.384 33.578 9.696v-284.123z" fill="#ffe73f"/><path d="m298.356 367.191v287.744c2.393.108 4.776.166 7.144.166 73.108 0 160.029-52.391 160.029-98.59v-189.32z" fill="#ffe73f"/><path d="m174.047 367.191v238.429c9.523 8.361 20.958 16.171 33.578 23.004v-261.433z" fill="#ffe73f"/><path d="m207.625 367.191v261.433c9.013 4.881 18.625 9.265 28.577 12.994v-274.427z" fill="#ed1c24"/><path d="m145.471 367.191v189.32c0 16.468 11.05 33.722 28.576 49.109v-238.429z" fill="#ed1c24"/><path d="m269.779 367.191v284.124c9.558 1.946 19.153 3.195 28.577 3.62v-287.744z" fill="#ed1c24"/><path d="m443.794 469.436c-5.105-12.244-11.537-19.046-12.004-19.528-10.627-16.794-24.127-21.068-25.24-21.395-.641-.515-6.949-5.451-17.534-9.445-10.256-3.871-26.749-7.633-47.08-3.572-22.919 2.284-35.661 16.671-36.299 17.408-.512.396-7.464 5.922-14.53 16.92-6.729 10.479-14.953 28.225-15.91 53.272-.042.238-.566 3.483-.566 7.407 0 13.737 7.072 23.453 7.517 24.049.284.602 4.31 8.999 11.759 18.832 7.102 9.379 18.865 22.028 34.569 29.042.141.068 14.297 6.938 31.507 6.938 6.9 0 12.619-1.626 13.085-1.761 17.544-1.768 31.796-9.652 40.67-15.958 9.276-6.594 14.766-12.887 15.188-13.381.795-.579 14.188-10.695 18.777-33.065l.008-.028c5.562-24.943.94-44.076-3.917-55.735z"/><path d="m447.373 523.397c-2.059-9.424-6.807-17.153-7.36-18.028-.023-20.647-7.193-34.003-8.01-35.456.317-1.146 2.288-8.965.166-18.54 1.998 2.313 6.92 8.58 10.99 18.364 4.706 11.305 9.181 29.704 4.214 53.66z" fill="#fff"/><path d="m388.742 419.713c8.343 3.146 14 6.877 16.283 8.527-2.554-.361-8.337-.822-16.153.697-1.109-.388-12.983-4.415-27.313-4.435-6.021-3.988-14.98-7.39-18.232-8.559 19.58-3.625 35.46.017 45.415 3.77z" fill="#fff"/><path d="m283.77 536.208c2.251 2.134 6.84 5.972 13.377 8.967.797 1.286 10.095 15.859 26.544 25.234 1.601 5.532 3.334 9.315 4.153 10.956-25.059-11.653-40.184-37.757-44.074-45.157z" fill="#b3b3b3"/><path d="m413.313 571.088c-8.547 6.071-22.127 13.621-38.828 15.652 2.116-1.397 6.426-4.545 10.249-9.225 16.742-3.338 27.574-15.88 28.825-17.387 6.877.713 11.628-.462 13.853-1.232-1.996 2.144-6.896 7.072-14.099 12.192z" fill="#b3b3b3"/><path d="m387.297 475.943c-13.863-9.205-28.285-6.817-32.974-9.761-6.371-3.999-3.865-9.812-16.933-20.473 5.496 14.798 11.517 23.587 12.359 24.778 20.114.03 35.689 4.854 37.548 5.456z" fill="#d9d9d9"/><path d="m354.323 466.183c4.689 2.943 19.11.556 32.974 9.761 6.951-5.733 14.715-15.595 15.754-16.928-7.75-21.37-13.777-28.688-14.408-29.417-1.056-.37-12.87-4.387-27.135-4.396-14.715 4.699-23.229 18.956-24.117 20.507 13.067 10.661 10.561 16.474 16.932 20.473z" fill="#fff"/><path d="m332.549 506.566c-1.724.379-13.206 2.891-26.997 5.184-4.661 35.809 18.665 55.054 48.276 49.265.591-1.424 5.871-14.572 5.916-28.92-17.281-11.871-26.029-23.867-27.195-25.529z" fill="#fff"/><path d="m305.552 511.751c-.757 1.661-6.993 15.82-7.807 33.061.779 1.258 10.003 15.718 26.327 25.009 1.075-.073 11.507-.969 29.756-8.805-29.611 5.789-52.936-13.456-48.276-49.265z" fill="#d9d9d9"/><path d="m332.413 505.881c-14.886-1.473-22.769-1.018-28.3-3.717-5.487-2.676-7.652-7.733-14.055-17.98 3.904 15.04 14.153 25.658 15.373 26.88 13.814-2.3 25.312-4.816 26.982-5.183z" fill="#d9d9d9"/><path d="m304.113 502.164c5.531 2.698 13.414 2.244 28.3 3.717 3.955-17.145 15.282-33.07 16.723-35.047-.997-1.426-6.941-10.204-12.377-24.813-16.95-.684-29.765 3.933-30.989 4.391-.832 1.308-10.09 16.015-15.711 33.771 6.402 10.248 8.567 15.305 14.054 17.981z" fill="#fff"/><path d="m305.476 433.938c-1.878 1.579-7.791 6.93-13.8 16.291-6.559 10.221-14.54 27.411-15.721 51.595 1.742-2.702 6.591-9.941 13.426-17.823-10.648-9.563 4.048-33.359 16.095-50.063z" fill="#d9d9d9"/><path d="m305.476 433.938c-12.047 16.704-26.743 40.499-16.095 50.063 5.653-17.868 14.974-32.673 15.803-33.972-.033-.939-.246-7.765.292-16.091z" fill="#fff"/><path d="m360.443 532.159c-.059 14.187-5.173 27.188-5.932 29.037 31.829 15.244 34.611 6.482 58.586-1.607 5.494-14.82 5.92-29.608 5.952-31.646-12.457-4.704-24.42-12.091-26.112-13.155-1.732 1.316-14.773 10.973-32.494 17.371z" fill="#fff"/><path d="m354.512 561.196c15.098 14.509 29.171 15.597 30.005 15.65 17.045-3.365 27.904-16.426 28.581-17.257-23.975 8.089-26.757 16.851-58.586 1.607z" fill="#d9d9d9"/><path d="m431.359 470.188c-.802-.655-11.987-9.586-27.756-10.746-1.042 1.339-8.831 11.233-15.835 17.019 11.268 18.91-1.154 27.48 31.625 50.864 1.189-.54 11.131-5.438 19.921-21.94-.022-20.924-7.429-34.276-7.955-35.197z" fill="#fff"/><path d="m387.769 476.461c.532 1.988 4.458 17.247 5.489 37.702 1.463.921 13.565 8.427 26.136 13.162-32.78-23.384-20.358-31.954-31.625-50.864z" fill="#d9d9d9"/><g fill="#fff"><path d="m350.227 474.986v.033c0 .178.136.331.317.349.153.014 15.516 1.476 34.009 4.272.244 1.839 1.859 14.157 3.58 32.379.018.194.19.335.38.317.192-.017.335-.188.316-.381-1.859-19.71-3.601-32.543-3.617-32.669-.021-.153-.142-.275-.295-.3-18.629-2.825-34.152-4.301-34.31-4.316-.19-.018-.362.123-.38.316z"/><path d="m342.256 417.322c-.028.053-.039.107-.039.163 0 .126.068.248.185.31 0 0 9.459 4.967 10.225 5.367-.618.639-12.771 13.224-12.771 13.224-.066.069-.1.157-.1.244 0 .091.036.184.107.253.139.132.36.13.495-.01l13.097-13.561c.075-.078.109-.189.092-.299-.017-.107-.085-.201-.183-.253l-10.636-5.583c-.171-.091-.382-.026-.472.145z"/><path d="m353.236 196.497c-1.819 1.327-4.443 2.202-7.369 2.199-2.925.003-5.548-.872-7.368-2.199-1.829-1.341-2.813-3.039-2.811-4.815-.002-1.776.981-3.474 2.811-4.814 1.82-1.329 4.443-2.204 7.368-2.2 2.926-.003 5.55.872 7.369 2.2 1.83 1.34 2.813 3.038 2.813 4.814s-.983 3.473-2.813 4.815z"/><path d="m376.666 191.276c-1.819 1.328-4.443 2.203-7.368 2.199-2.925.004-5.549-.871-7.368-2.199-1.831-1.341-2.813-3.038-2.811-4.815-.001-1.776.98-3.474 2.811-4.814 1.819-1.329 4.443-2.203 7.368-2.2 2.925-.003 5.549.871 7.368 2.2 1.831 1.34 2.813 3.038 2.811 4.814.001 1.777-.98 3.474-2.811 4.815z"/><path d="m400.675 186.876c-1.82 1.329-4.443 2.203-7.368 2.2-2.926.002-5.549-.872-7.369-2.2-1.829-1.341-2.813-3.038-2.811-4.813-.001-1.777.982-3.474 2.811-4.815 1.82-1.328 4.443-2.202 7.369-2.198 2.925-.003 5.548.871 7.368 2.198.611.448 1.118.938 1.536 1.456-.275.797-.44 1.636-.44 2.513 0 1.278.332 2.479.892 3.576-.473.751-1.134 1.457-1.988 2.083z"/><path d="m422.177 186.03c-1.819 1.329-4.442 2.204-7.368 2.201-2.924.003-5.548-.872-7.368-2.201-1.83-1.341-2.813-3.038-2.812-4.814-.001-1.776.982-3.474 2.812-4.815 1.82-1.327 4.444-2.202 7.368-2.199 2.926-.003 5.549.872 7.368 2.199 1.831 1.341 2.811 3.039 2.811 4.815 0 .058-.01.115-.012.172-.331.727-.559 1.497-.658 2.302-.473.85-1.19 1.643-2.141 2.34z"/><path d="m429.923 189.446c-1.831-1.34-2.813-3.038-2.813-4.814 0-1.777.981-3.474 2.813-4.814 1.82-1.328 4.442-2.203 7.368-2.2 2.925-.002 5.549.872 7.368 2.2 1.83 1.341 2.812 3.038 2.812 4.814 0 .444-.061.883-.182 1.313-.035.025-.074.047-.11.073-1.442 1.044-2.6 2.391-3.289 3.933-1.756 1.04-4.063 1.699-6.599 1.696-2.926.002-5.548-.873-7.368-2.201z"/><path d="m446.048 193.145c0-1.777.981-3.474 2.813-4.814 1.819-1.329 4.442-2.204 7.369-2.2 2.924-.003 5.548.871 7.368 2.2 1.829 1.34 2.811 3.037 2.811 4.814.001 1.605-.808 3.142-2.311 4.412-2.22.419-4.229 1.257-5.858 2.439-.011.008-.02.016-.03.024-.641.089-1.301.14-1.98.139-2.927.003-5.55-.871-7.369-2.2-1.832-1.34-2.813-3.038-2.813-4.814z"/><path d="m457.107 207.121c0-1.777.982-3.474 2.811-4.815 1.82-1.329 4.443-2.203 7.369-2.199 2.925-.004 5.549.87 7.368 2.199 1.83 1.341 2.813 3.038 2.811 4.815.001 1.776-.981 3.474-2.811 4.814-.439.32-.926.612-1.45.874-1.512-.458-3.156-.708-4.876-.709-2.176.002-4.233.398-6.052 1.116-.882-.348-1.677-.782-2.359-1.28-1.828-1.341-2.811-3.039-2.811-4.815z"/><path d="m475.699 226.786c-1.334.973-3.102 1.698-5.102 2.018-.17-.139-.335-.281-.515-.411-2.381-1.728-5.563-2.744-9.048-2.746-.439 0-.874.017-1.303.049-1.036-1.121-1.583-2.401-1.582-3.725-.001-1.776.982-3.473 2.811-4.814 1.82-1.329 4.443-2.203 7.368-2.2 2.926-.003 5.55.872 7.369 2.2 1.829 1.341 2.811 3.038 2.811 4.814.003 1.776-.98 3.474-2.809 4.815z"/><path d="m257.764 196.497c1.819 1.327 4.443 2.202 7.369 2.199 2.925.003 5.548-.872 7.368-2.199 1.829-1.341 2.812-3.039 2.81-4.815.001-1.776-.981-3.474-2.81-4.814-1.82-1.329-4.443-2.204-7.368-2.2-2.925-.003-5.55.872-7.369 2.2-1.831 1.34-2.813 3.038-2.813 4.814.001 1.776.982 3.473 2.813 4.815z"/><path d="m234.334 191.276c1.819 1.328 4.443 2.203 7.368 2.199 2.925.004 5.549-.871 7.368-2.199 1.831-1.341 2.813-3.038 2.811-4.815.002-1.776-.981-3.474-2.811-4.814-1.819-1.329-4.443-2.203-7.368-2.2-2.925-.003-5.549.871-7.368 2.2-1.831 1.34-2.813 3.038-2.812 4.814-.001 1.777.981 3.474 2.812 4.815z"/><path d="m210.325 186.876c1.82 1.329 4.443 2.203 7.368 2.2 2.926.002 5.548-.872 7.369-2.2 1.829-1.341 2.813-3.038 2.811-4.813.002-1.777-.982-3.474-2.811-4.815-1.821-1.328-4.443-2.202-7.369-2.198-2.925-.003-5.548.871-7.368 2.198-.611.448-1.119.938-1.536 1.456.275.797.439 1.636.439 2.513 0 1.278-.332 2.479-.891 3.576.473.751 1.134 1.457 1.988 2.083z"/><path d="m188.824 186.03c1.819 1.329 4.442 2.204 7.367 2.201 2.925.003 5.548-.872 7.369-2.201 1.83-1.341 2.813-3.038 2.811-4.814.002-1.776-.981-3.474-2.811-4.815-1.821-1.327-4.444-2.202-7.369-2.199-2.925-.003-5.548.872-7.367 2.199-1.831 1.341-2.813 3.039-2.813 4.815 0 .058.01.115.012.172.332.727.559 1.497.659 2.302.473.85 1.19 1.643 2.142 2.34z"/><path d="m181.077 189.446c1.831-1.34 2.813-3.038 2.813-4.814 0-1.777-.981-3.474-2.813-4.814-1.82-1.328-4.442-2.203-7.368-2.2-2.925-.002-5.549.872-7.368 2.2-1.831 1.341-2.813 3.038-2.813 4.814 0 .444.062.883.182 1.313.036.025.075.047.11.073 1.442 1.044 2.599 2.391 3.29 3.933 1.755 1.04 4.063 1.699 6.598 1.696 2.927.002 5.549-.873 7.369-2.201z"/><path d="m164.952 193.145c0-1.777-.982-3.474-2.813-4.814-1.819-1.329-4.443-2.204-7.369-2.2-2.924-.003-5.549.871-7.368 2.2-1.829 1.34-2.813 3.037-2.811 4.814-.001 1.605.807 3.142 2.311 4.412 2.219.419 4.229 1.257 5.858 2.439.011.008.02.016.03.024.641.089 1.301.14 1.98.139 2.926.003 5.549-.871 7.369-2.2 1.831-1.34 2.813-3.038 2.813-4.814z"/><path d="m153.893 207.121c0-1.777-.982-3.474-2.811-4.815-1.82-1.329-4.443-2.203-7.369-2.199-2.924-.004-5.549.87-7.368 2.199-1.831 1.341-2.813 3.038-2.812 4.815-.001 1.776.981 3.474 2.812 4.814.438.32.925.612 1.45.874 1.512-.458 3.156-.708 4.876-.709 2.176.002 4.233.398 6.051 1.116.882-.348 1.677-.782 2.36-1.28 1.828-1.341 2.811-3.039 2.811-4.815z"/><path d="m135.301 226.786c1.333.973 3.102 1.698 5.102 2.018.169-.139.335-.281.514-.411 2.381-1.728 5.563-2.744 9.048-2.746.439 0 .874.017 1.303.049 1.035-1.121 1.582-2.401 1.581-3.725.001-1.776-.982-3.473-2.811-4.814-1.82-1.329-4.444-2.203-7.368-2.2-2.925-.003-5.55.872-7.369 2.2-1.829 1.341-2.811 3.038-2.811 4.814-.001 1.776.982 3.474 2.811 4.815z"/></g><path d="m312.79 206.028c1.804 1.211 2.715 2.708 2.71 4.199.005 1.492-.906 2.986-2.71 4.2-1.79 1.197-4.393 1.995-7.29 1.991-2.899.004-5.502-.794-7.29-1.991-1.805-1.213-2.717-2.708-2.712-4.2-.005-1.491.907-2.988 2.712-4.199.936-.627 2.098-1.14 3.406-1.49 1.229.27 2.532.418 3.884.42 1.352-.002 2.654-.15 3.883-.42 1.307.35 2.47.863 3.407 1.49z" fill="#ed1c24"/><path d="m312.79 191.707c1.804 1.213 2.715 2.709 2.71 4.201.005 1.49-.906 2.986-2.71 4.2-1.79 1.197-4.393 1.995-7.29 1.992-2.899.002-5.502-.795-7.29-1.992-1.805-1.213-2.717-2.71-2.712-4.2-.005-1.492.907-2.987 2.712-4.201.509-.341 1.09-.644 1.719-.911 1.796.266 3.658.41 5.57.411 1.913-.001 3.775-.145 5.572-.411.628.267 1.209.57 1.719.911z" fill="#008c44"/><path d="m328.567 171.675c.097.551.151 1.109.15 1.671.001 1.432-.319 2.833-.927 4.172-3.037-.926-11.615-3.217-22.291-3.219-10.677.002-19.256 2.293-22.293 3.219-.607-1.339-.928-2.74-.926-4.172-.001-.563.054-1.121.149-1.672 1.56-.625 6.188-2.204 14.317-2.733l.933-.06 3.088-8.573 4.73 1.343 4.732-1.343 3.086 8.572.936.061c5.196.338 8.968 1.106 11.418 1.781 1.227.336 2.121.649 2.7.874.077.029.134.052.198.079z" fill="#fff"/><path d="m288.864 162.916c2.332-1.558 5.203-2.801 8.422-3.596l.726.206-2.387 6.63c-5.537.425-9.467 1.323-11.93 2.064 1.119-1.961 2.871-3.767 5.169-5.304z" fill="#cf9c5a"/><path d="m322.135 183.777c-4.182 2.79-10.087 4.575-16.636 4.572-6.547.003-12.455-1.781-16.634-4.572-1.67-1.118-3.049-2.378-4.11-3.736 3.373-.975 11.229-2.886 20.746-2.884 6.404-.001 12.06.864 16.103 1.729 1.962.419 3.539.837 4.641 1.156-1.061 1.356-2.44 2.617-4.11 3.735z" fill="#cf9c5a"/><path d="m322.135 162.916c2.298 1.538 4.05 3.343 5.167 5.305-2.462-.741-6.393-1.639-11.929-2.064l-2.387-6.629.727-.206c3.219.793 6.089 2.036 8.422 3.594z" fill="#cf9c5a"/><path d="m305.499 141.435c-1.946.004-3.686-.536-4.849-1.317-1.04-.702-1.571-1.501-1.679-2.267.022-.099.034-.2.034-.305s-.013-.208-.034-.306c.108-.766.638-1.564 1.679-2.268 1.163-.78 2.903-1.321 4.849-1.317 1.946-.004 3.686.537 4.85 1.317 1.042.705 1.571 1.504 1.678 2.272-.02.097-.033.198-.033.302s.013.204.033.301c-.106.767-.636 1.567-1.678 2.271-1.164.781-2.904 1.321-4.85 1.317z" fill="#fff"/><path d="m305.499 116.409 10.061 2.855-5.399 12.41c-.988-.4-2.076-.67-3.232-.794v-11.591c0-.79-.64-1.43-1.429-1.43s-1.429.64-1.429 1.43v11.591c-1.156.124-2.244.394-3.232.794l-5.4-12.41z" fill="#cf9c5a"/><path d="m273.515 137.544 4.045-6.157 19.222 3.613c-.198.354-.364.725-.479 1.116h-17.996c-.79 0-1.43.64-1.43 1.43 0 .788.64 1.428 1.43 1.428h17.996c.115.391.281.761.479 1.116l-19.221 3.612z" fill="#cf9c5a"/><path d="m305.499 158.681-10.061-2.855 5.4-12.41c.989.4 2.078.67 3.233.795v11.591c0 .789.64 1.428 1.429 1.428s1.429-.639 1.429-1.428v-11.592c1.156-.124 2.244-.395 3.233-.795l5.399 12.41z" fill="#cf9c5a"/><path d="m314.218 140.089c.198-.354.364-.725.478-1.116h17.997c.788 0 1.429-.64 1.429-1.428 0-.79-.641-1.429-1.429-1.429h-17.997c-.114-.392-.28-.762-.478-1.116l19.222-3.613 4.045 6.158-4.045 6.158z" fill="#cf9c5a"/><path d="m314.124 227.625c.912-.961 1.379-2.019 1.376-3.078.005-1.491-.906-2.988-2.71-4.201-.937-.626-2.1-1.139-3.407-1.49-1.228.27-2.53.418-3.883.419-1.353-.001-2.655-.149-3.885-.419-1.307.351-2.47.863-3.405 1.49-1.805 1.213-2.717 2.709-2.712 4.201-.003 1.059.464 2.118 1.377 3.079 2.587-.547 5.443-.872 8.625-.869 3.181-.004 6.037.321 8.624.868z" fill="#26247b"/><path d="m461.035 242.533c2.925.003 5.549-.871 7.367-2.199 1.83-1.341 2.813-3.038 2.813-4.814 0-1.778-.982-3.475-2.813-4.816-1.818-1.327-4.442-2.202-7.367-2.199-2.926-.003-5.549.872-7.369 2.199-1.829 1.342-2.811 3.038-2.811 4.816 0 1.776.982 3.473 2.811 4.814.169.123.353.238.534.353 1.647.271 3.156.886 4.496 1.651.75.124 1.531.196 2.339.195z" fill="#fff"/><path d="m157.333 240.334c1.83-1.341 2.813-3.038 2.813-4.814 0-1.778-.982-3.474-2.813-4.816-1.82-1.327-4.443-2.202-7.369-2.199-2.925-.003-5.549.872-7.368 2.199-1.83 1.341-2.812 3.038-2.812 4.816 0 1.776.982 3.473 2.812 4.814 1.819 1.329 4.443 2.202 7.368 2.199.807.001 1.587-.071 2.337-.194 1.34-.766 2.851-1.382 4.499-1.653.183-.115.365-.23.533-.352z" fill="#fff"/><path d="m296.624 217.969c-.522.346-1.002.735-1.445 1.154.113-1.008.226-2.064.337-3.172.35.303.714.593 1.107.853.311.206.636.4.972.582-.335.183-.66.377-.971.583z" fill="#cf9c5a"/><path d="m296.624 203.65c-.048.032-.091.069-.138.101.025-.434.049-.872.073-1.313.023.015.043.033.065.048.311.206.636.399.973.582-.337.182-.662.375-.973.582z" fill="#cf9c5a"/><path d="m314.374 202.485c.023-.016.044-.034.067-.049.023.441.048.879.072 1.314-.047-.033-.09-.07-.138-.101-.311-.207-.637-.399-.973-.582.337-.183.662-.376.972-.582z" fill="#cf9c5a"/><path d="m314.376 217.969c-.311-.206-.637-.399-.973-.582.336-.183.662-.376.973-.582.393-.261.758-.551 1.107-.853.111 1.107.225 2.164.338 3.172-.443-.42-.924-.81-1.445-1.155z" fill="#cf9c5a"/><path d="m279.74 235.471c2.211-8.278 6.559-27.258 6.927-49.745.203.145.404.289.613.428 1.994 1.328 4.291 2.425 6.803 3.258-.003.784-.01 1.562-.021 2.334-.884 1.214-1.419 2.622-1.422 4.162.003 1.4.447 2.69 1.191 3.827-.114 2.576-.259 5.055-.425 7.41-.48.947-.764 1.979-.766 3.083.001.733.13 1.433.352 2.1-.194 2.186-.401 4.228-.608 6.094-.427 3.844-.853 6.953-1.17 9.096-.113.756-.211 1.383-.292 1.887-2.967 1.153-5.521 2.555-7.792 3.939-1.2.737-2.321 1.455-3.39 2.127z" fill="#cf9c5a"/><path d="m320.079 229.405c-.08-.504-.178-1.132-.29-1.888-.475-3.186-1.184-8.502-1.78-15.194.221-.666.35-1.365.351-2.096-.001-1.103-.284-2.134-.764-3.08-.167-2.356-.313-4.835-.427-7.413.744-1.136 1.189-2.426 1.191-3.826-.002-1.541-.538-2.947-1.423-4.162-.01-.772-.016-1.551-.02-2.333 2.512-.834 4.809-1.931 6.803-3.258.209-.139.411-.284.613-.428.367 22.489 4.718 41.471 6.93 49.748-1.07-.673-2.192-1.391-3.394-2.13-2.27-1.386-4.823-2.786-7.79-3.94z" fill="#cf9c5a"/><path d="m161.89 240.796c-.097-.204-.211-.449-.346-.741.909-1.337 1.459-2.873 1.459-4.536-.001-2.887-1.618-5.411-3.99-7.127-.633-.46-1.327-.863-2.066-1.214-.943-3.669-1.63-7.653-1.627-11.444.004-5.41 2.485-10.449 7.136-14.614.477-.262.937-.54 1.364-.85.639-.463 1.214-.99 1.726-1.562.229-.157.451-.317.688-.471 2.182-1.418 4.671-2.675 7.434-3.736.014 0 .026.001.04.001 3.296-.003 6.309-.917 8.641-2.477 3.327-.665 6.909-1.089 10.717-1.234 1.004.186 2.047.294 3.124.295 1.124-.001 2.21-.118 3.254-.319 5.076.103 10.259.433 15.436.929.687.113 1.393.182 2.115.211 5.56.58 11.093 1.339 16.46 2.207 2.273 1.401 5.137 2.214 8.247 2.216.976 0 1.923-.088 2.84-.241 3.847.746 7.536 1.521 11.01 2.295.174.143.346.288.53.42 2.383 1.729 5.563 2.744 9.05 2.748.946 0 1.866-.083 2.757-.227 2.889.734 5.47 1.421 7.65 2.022 3.265.897 5.648 1.599 6.948 1.989-.223 1.925-.466 3.791-.724 5.597-8.421-3.129-47.008-16.851-78.531-16.872-10.735.005-20.457 2.268-27.616 6.02-7.116 3.734-11.888 9.081-11.918 15.413-.012 7.243 2.568 12.05 5.191 14.947 2.622 2.905 5.229 3.95 5.362 4.004l.846.334.659-.623c.001 0 .06-.057.209-.187.148-.129.375-.319.666-.549.584-.459 1.435-1.079 2.474-1.695 2.078-1.237 4.898-2.427 7.795-2.419 2.74-.003 5.193.786 6.881 1.973 1.702 1.201 2.579 2.692 2.578 4.22.011.648-.389 1.499-1.341 2.454-.937.946-2.346 1.919-3.947 2.805-3.205 1.782-7.163 3.243-9.792 4.107-.355.117-.677.22-.978.315-7.134-1.593-13.058-3.669-18.411-4.384z" fill="#cf9c5a"/><path d="m205.13 197.975c5.574-.036 14.091 3.396 24.337 7.586 9.732 3.954 21.107 8.533 33.556 11.26-2.897 4.155-5.607 6.65-8.269 8.141-3.014 1.685-6.042 2.161-9.537 2.165-4.269.006-9.169-.758-15.02-.762-5.624-.001-12.121.728-19.766 3.553-1.897-2.813-8.244-9.451-24.803-9.397-1.15 0-2.35.031-3.602.097.132-.577.308-1.275.534-2.063.664-2.325 1.765-5.429 3.485-8.5 3.492-6.169 9.201-12.062 19.085-12.08z" fill="#939598"/><path d="m405.87 197.975c9.884.018 15.593 5.911 19.082 12.079 1.721 3.071 2.822 6.176 3.486 8.5.226.788.4 1.486.533 2.063-1.252-.066-2.451-.097-3.602-.097-16.56-.054-22.905 6.584-24.804 9.397-7.644-2.826-14.142-3.555-19.766-3.553-5.85.004-10.75.769-15.02.762-3.494-.004-6.522-.48-9.536-2.165-2.661-1.491-5.371-3.986-8.268-8.141 12.448-2.727 23.823-7.306 33.556-11.26 10.247-4.188 18.765-7.621 24.339-7.585z" fill="#939598"/><path d="m430.695 245.182c-.301-.095-.623-.198-.977-.315-2.629-.864-6.586-2.325-9.792-4.107-1.601-.886-3.011-1.858-3.947-2.805-.952-.956-1.351-1.806-1.341-2.454-.001-1.527.877-3.018 2.578-4.22 1.689-1.187 4.142-1.976 6.881-1.973 2.897-.008 5.717 1.183 7.796 2.419 1.039.616 1.89 1.236 2.474 1.695.292.23.518.419.666.549.149.129.208.187.21.187l.659.623.845-.334c.133-.054 2.741-1.099 5.362-4.004 2.624-2.897 5.203-7.705 5.191-14.947-.03-6.332-4.803-11.679-11.918-15.413-7.159-3.751-16.881-6.015-27.616-6.02-31.523.021-70.112 13.744-78.531 16.872-.258-1.804-.5-3.673-.723-5.597 1.299-.391 3.683-1.092 6.947-1.989 2.182-.6 4.762-1.287 7.651-2.022.891.144 1.811.226 2.757.227 3.487-.003 6.668-1.019 9.05-2.748.185-.133.357-.277.53-.42 3.474-.774 7.163-1.55 11.011-2.295.917.153 1.864.241 2.84.241 3.11-.003 5.974-.815 8.247-2.216 5.366-.868 10.899-1.627 16.46-2.207.721-.029 1.427-.098 2.114-.211 5.178-.496 10.359-.826 15.436-.929 1.044.201 2.131.318 3.254.319 1.078-.001 2.121-.109 3.125-.295 3.808.145 7.39.569 10.717 1.234 2.332 1.559 5.345 2.474 8.641 2.477.014 0 .026-.001.04-.001 2.763 1.061 5.252 2.318 7.434 3.736.236.154.459.314.689.471.511.572 1.087 1.099 1.726 1.562.428.31.888.589 1.364.85 4.65 4.165 7.132 9.204 7.136 14.614.003 3.79-.684 7.775-1.627 11.444-.739.351-1.433.754-2.066 1.214-2.371 1.716-3.988 4.24-3.989 7.127 0 1.663.55 3.198 1.459 4.536-.134.293-.249.538-.346.742-5.356.713-11.279 2.788-18.417 4.383z" fill="#cf9c5a"/></svg>