<svg xmlns="http://www.w3.org/2000/svg" viewBox="0 0 612 792"><path fill="#fff200" d="M219.482 590.944c161.353 0 321.95-121.029 321.95-212.551 0-58.138-58.957-88.645-131.816-88.645-161.353 0-321.949 121.03-321.949 212.551-.001 58.139 58.956 88.645 131.815 88.645"/><path d="M500.961 287.393c-45.82 0-82.966 37.143-82.966 82.964s37.144 82.966 82.966 82.966c45.819 0 82.964-37.145 82.967-82.966-.003-45.821-37.148-82.964-82.967-82.964"/><path fill="#d9d9d9" d="M494.287 402.18c-4.284 0-8.834-.161-13.43-.554-1.301 2.271-6.271 10.191-15.568 16.296 4.513 11.623 12.137 20.695 15.709 24.52a51 51 0 0 0 1.757 1.804 65.5 65.5 0 0 0 17.502 2.396c3.539 0 7.318-.296 11.298-.99.754-.565 3.606-2.727 7.316-6.017.339-.302.695-.626 1.048-.944-5.623-16.67-13.542-27.272-21.442-36.56q-2.044.048-4.19.049"/><path fill="gray" d="M437.571 369.468a239 239 0 0 0-9.381 8.963 180 180 0 0 0 4.749 17.16c1.19 3.581 2.086 5.855 2.352 6.509 2.419 2.412 5.183 4.54 8.035 6.38l1.858-45.555a181 181 0 0 0-7.613 6.543"/><path fill="#d9d9d9" d="M478.36 401.592c.32-.513.554-.911.705-1.181-.956-2.633-5.633-16.26-8.229-37.707l-15.196-7.178c-3.258 1.859-6.906 4.528-10.456 7.399l-1.858 45.555c7.781 5.016 16.242 7.824 20.319 7.929 8.029-5.123 12.833-11.804 14.715-14.817M472.114 314.407a78.5 78.5 0 0 0-8.831 5.476c-2.659 5.579-6.971 18.654-6.954 29.413-.002 1.49.097 2.923.274 4.294l15.181 7.17.605-.349c-1.833-7.117-2.895-15.482-2.895-25.689.001-7.335 1.097-14.241 2.62-20.315M443.822 313.219c-.69.69-1.363 1.397-2.028 2.111 1.229.159 2.972.37 5.114.595 4.317.45 10.222.946 16.639 1.143a81 81 0 0 1 9.322-5.491c2.715-9.571 6.316-16.679 7.845-19.467-14.179 3.658-26.848 11.067-36.892 21.109"/><path fill="gray" d="M433.255 402.833c-.698-1.745-4.327-11.101-7.287-24.427-.05-.13-.179-.46-.401-.977a49 49 0 0 0-1.352-2.862 59 59 0 0 0-4.017-6.709c-.024.83-.042 1.663-.042 2.499 0 16.674 5.049 32.161 13.7 45.028-.599-2.284-1.056-4.943-1.06-7.8 0-1.54.143-3.137.459-4.752"/><path fill="#d9d9d9" d="m511.813 447.855-.07-.048a68 68 0 0 1-11.485.996 67.9 67.9 0 0 1-18.318-2.538 10.8 10.8 0 0 0-2.446-.295c-1.822-.002-3.19.523-4.125 1.052a80.7 80.7 0 0 0 25.594 4.14c4.528 0 8.966-.378 13.29-1.094a13.5 13.5 0 0 0-2.44-2.213"/><path fill="#fff" d="M572.898 400.418c-1.355 3.088-3.071 6.184-4.776 9.007a127 127 0 0 1-5.081 7.676l5.268-2.086a80.4 80.4 0 0 0 10.744-23.839zM498.477 402.131c7.9 9.287 15.819 19.89 21.442 36.56 3.986-3.612 8.72-8.35 12.782-13.626-2.116-2.811-10.236-13.976-13.434-24.596-3.084.499-10.954 1.438-20.79 1.662M532.977 368.059c8.533-1.177 13.325-5.425 31.654-6.508 1.888-5.171 3.397-10.444 3.395-15.592 0-2.134-.264-4.246-.851-6.337-4.097-4.206-11.158-14.157-16.203-19.724-1.679-1.874-3.199-3.238-3.968-3.58a.9.9 0 0 0-.268-.098c-9.254 1.106-19.401 4.889-29.085 6.955-2.187 3.136-4.028 8.806-5.083 21.864 13.411 12.802 18.99 20.821 20.409 23.02M510.454 344.427c1.048-12.506 2.791-18.486 5.211-22.168-1.642-1.846-5.934-5.099-10.405-7.824-4.94-3.076-10.429-5.613-12.512-5.549v-1.083l-.138 1.074a17 17 0 0 0-2.223-.135c-6.034-.023-12.926 2.819-18.273 5.664-1.523 6.074-2.619 12.98-2.619 20.315 0 10.207 1.061 18.572 2.895 25.689a256 256 0 0 1 14.419-7.661c8.089-3.928 17.371-7.894 23.645-8.322M573.394 390.26c.015-4.62-2.206-11.511-4.457-17.134a139 139 0 0 0-4.178-9.42c-18.017 1.058-22.26 5.168-31.497 6.49-4.76 15.875-10.81 26.969-12.06 29.178 2.49 8.766 8.921 18.455 12.012 22.746a90 90 0 0 0 1.338 1.814c11.501-1.21 19.792-3.66 23.221-4.815a44 44 0 0 0 1.48-.522c.324-.422 1.068-1.403 2.067-2.802a125 125 0 0 0 4.956-7.492c3.612-5.899 7.152-13.191 7.118-18.043M547.565 314.228c.516.178.986.476 1.496.842.763.571 1.586 1.343 2.481 2.272 1.785 1.856 3.843 4.34 5.962 6.996 4.075 5.109 8.403 10.868 11.115 13.673l6.476.155a81 81 0 0 0-28.57-34.548q-.021.708-.021 1.377c0 4.676.705 7.895 1.045 9.176.005.022.01.036.016.057M501.377 289.558q-.207-.003-.416-.005c-6.993 0-13.777.888-20.247 2.558-1.529 2.788-5.13 9.897-7.845 19.467 5.137-2.562 11.392-4.897 17.275-4.988z"/><g fill="#4156a6"><path d="m69.51 504.767-7.331 22.189 8.029 26.955H57.003l-5.175-21.066v21.066H39.049v-49.145h12.779v19.094l5.691-19.094zM90.9 543.896v10.017h-9.258v-10.017zM151.258 519.642h-11.869v-3.643q0-2.549-.456-3.248-.454-.698-1.518-.698-1.154 0-1.745.942t-.592 2.854q0 2.461.665 3.706.636 1.245 3.611 3.004 8.532 5.065 10.749 8.313 2.216 3.249 2.216 10.473 0 5.252-1.23 7.74t-4.75 4.174q-3.522 1.685-8.196 1.685-5.13 0-8.757-1.942-3.627-1.943-4.75-4.948t-1.123-8.529v-3.218h11.869v5.979q0 2.762.501 3.552c.501.79.926.789 1.775.789q1.274 0 1.898-1.002.622-1 .622-2.975 0-4.34-1.184-5.676-1.215-1.336-5.98-4.463-4.766-3.155-6.314-4.583-1.548-1.426-2.565-3.946c-1.017-2.52-1.017-3.824-1.017-6.436q0-5.645 1.442-8.256 1.441-2.61 4.659-4.083c3.218-1.473 4.735-1.473 7.771-1.473q4.978 0 8.484 1.609 3.506 1.61 4.645 4.052 1.138 2.445 1.138 8.303zM193.451 528.839h-11.565v-4.643q0-2.429-.395-3.294c-.395-.865-.749-.865-1.457-.865q-1.063 0-1.427.759-.364.76-.364 3.4v19.002q0 2.157.546 3.232.546 1.078 1.609 1.077 1.244 0 1.685-1.123.44-1.122.44-4.249v-4.796h10.928q-.03 4.826-.349 7.239t-2.034 4.947a10.86 10.86 0 0 1-4.478 3.825q-2.762 1.29-6.83 1.29-5.19 0-8.226-1.775-3.035-1.776-4.296-4.978-1.259-3.201-1.259-9.091v-11.444q0-5.129 1.032-7.74 1.032-2.61 4.401-4.659 3.37-2.049 8.196-2.049 4.795.001 8.196 2.033 3.4 2.034 4.523 5.13 1.125 3.097 1.124 8.772M219.739 504.767v11.057q1.578-1.46 3.415-2.191a10.6 10.6 0 0 1 3.931-.729q3.217 0 5.479 1.639c2.262 1.639 2.429 2.353 2.762 3.779q.501 2.141.501 7.816v27.775h-12.263V525.56q0-3.52-.349-4.522-.35-1.002-1.563-1.002-1.123 0-1.518 1.032t-.395 4.098v28.746h-12.263v-49.145zM278.202 534.485h-15.875v8.712q0 2.731.395 3.521c.395.79.769.789 1.518.789q1.396 0 1.867-1.047.47-1.047.471-4.053v-5.312h11.625v2.975q0 3.733-.47 5.737t-2.201 4.28c-1.731 2.277-2.616 2.655-4.386 3.414q-2.656 1.139-6.663 1.139-3.885 0-6.86-1.123c-2.975-1.123-3.526-1.775-4.629-3.081s-1.867-2.742-2.292-4.311q-.638-2.351-.638-6.845v-11.747q0-5.283 1.427-8.333 1.426-3.05 4.675-4.674t7.467-1.624q5.16 0 8.515 1.957 3.354 1.959 4.705 5.191c1.351 3.232 1.35 5.187 1.35 9.091zm-12.293-6.556v-2.944q0-3.127-.334-4.037t-1.366-.911q-1.276 0-1.579.774c-.303.774-.304 1.908-.304 4.174v2.944zM305.219 504.767v49.145h-12.628v-49.145zM332.63 504.767v49.145h-12.628v-49.145zM375.186 534.485h-15.875v8.712q0 2.731.395 3.521.394.79 1.518.789 1.396 0 1.867-1.047c.471-1.047.47-2.049.47-4.053v-5.312h11.626v2.975q0 3.733-.471 5.737-.47 2.003-2.2 4.28c-1.73 2.277-2.615 2.655-4.387 3.414q-2.655 1.139-6.662 1.139-3.886 0-6.86-1.123c-2.974-1.123-3.526-1.775-4.629-3.081s-1.867-2.742-2.292-4.311q-.638-2.351-.638-6.845v-11.747q0-5.283 1.427-8.333t4.675-4.674c3.248-1.624 4.654-1.624 7.467-1.624q5.16 0 8.515 1.957 3.355 1.959 4.705 5.191c1.35 3.232 1.351 5.187 1.351 9.091v5.344zm-12.292-6.556v-2.944q0-3.127-.334-4.037-.335-.91-1.366-.911-1.275 0-1.578.774t-.304 4.174v2.944zM438.356 519.642h-11.868v-3.643q0-2.549-.456-3.248-.456-.698-1.518-.698-1.152 0-1.745.942c-.593.942-.592 1.579-.592 2.854q0 2.461.664 3.706.637 1.245 3.612 3.004 8.532 5.065 10.749 8.313 2.216 3.249 2.216 10.473 0 5.252-1.229 7.74c-1.229 2.488-2.403 3.051-4.75 4.174q-3.522 1.685-8.196 1.685-5.13 0-8.757-1.942-3.628-1.943-4.751-4.948t-1.123-8.529v-3.218h11.869v5.979q0 2.762.5 3.552.502.79 1.776.789 1.275 0 1.898-1.002.622-1 .622-2.975 0-4.34-1.184-5.676-1.215-1.336-5.98-4.463-4.765-3.155-6.313-4.583-1.549-1.426-2.565-3.946-1.017-2.519-1.017-6.436 0-5.645 1.441-8.256 1.443-2.61 4.66-4.083c3.217-1.473 4.735-1.473 7.771-1.473q4.978 0 8.484 1.609 3.506 1.61 4.644 4.052 1.14 2.445 1.139 8.303v1.944zM465.919 513.632l-.213 3.559q1.64-2.158 3.612-3.224 1.973-1.063 4.31-1.063 2.853.001 4.933 1.532 2.079 1.534 2.595 3.537.517 2.003.517 6.799v16.969q0 5.494-.653 7.816c-.653 2.322-1.325 2.782-2.671 3.703s-2.97 1.381-4.872 1.381a8.64 8.64 0 0 1-4.219-1.064q-1.942-1.064-3.552-3.162v9.235h-12.264v-46.018zm3.49 11.717q0-3.733-.273-4.523-.273-.788-1.517-.789-1.214 0-1.564.911-.348.911-.349 4.401v16.694q0 3.643.364 4.554.365.91 1.578.91 1.184 0 1.473-.834.288-.835.288-4.053zM523.835 527.776v9.865q0 5.435-.546 7.969c-.546 2.534-1.144 3.268-2.338 4.735q-1.79 2.201-4.599 3.248-2.807 1.047-6.45 1.047-4.068-.001-6.891-.895t-4.386-2.701q-1.563-1.804-2.232-4.371-.668-2.565-.668-7.695v-10.32q0-5.615 1.215-8.773t4.371-5.069q3.156-1.912 8.074-1.912 4.128 0 7.088 1.228 2.959 1.23 4.568 3.203 1.609 1.974 2.2 4.067.595 2.096.594 6.374m-12.263-3.035q0-3.097-.334-3.9-.334-.804-1.427-.805-1.092.001-1.457.805-.364.804-.364 3.9v18.183q0 2.853.364 3.719.365.864 1.427.864 1.093 0 1.441-.789.35-.788.35-3.399zM550.519 513.632l-.485 5.297q2.67-5.692 7.74-6.025v14.175q-3.37 0-4.947.911-1.579.912-1.943 2.534-.363 1.625-.364 7.482v15.906h-12.263v-40.28zM584.941 508.259v6.344h3.309v6.375h-3.309v21.552q0 3.976.409 4.432c.409.456 1.411.455 3.415.455v6.496h-4.948q-4.188 0-5.979-.349a6.4 6.4 0 0 1-3.157-1.609q-1.365-1.259-1.699-2.884-.334-1.623-.334-7.634v-20.459h-2.641v-6.375h2.641v-6.344z"/></g><path d="M174.081 458.826c26.334-46.193 61.951-64.109 95.92-60.248l22.81-21.767c-35.688-3.166-81.027-34.978-81.027-34.978l-24.751 25.471s17.7 10.577 43.387 23.744c-.001 0-42.308 20.937-56.339 67.778M288.619 291.779c-72.815 4.013-126.482 50.341-153.104 94.232 18.995-60.584 102.747-136.709 247.975-145.448zM189.688 257.27c4.866-19.666 20.477-56.159 39.129-56.159 3.839 0 8.044 2.198 13.877 5.79 9.721 5.986 40.045 20.685 48.567 25.838 0 0-11.759 13.381-27.978 13.381-26.559 0-34.669-19.666-44.401-19.666-9.934-.001-29.194 30.816-29.194 30.816M438.288 235.009c0 16.177-19.764 31.667-47.006 22.893 0 0 19.535-9.615 19.535-23.961 0-14.957-20.298-25.335-20.298-25.335 23.732.687 47.769 9.616 47.769 26.403M133.932 388.457c0 19.448-17.269 36.263-50.294 35.184 0 0-42.955 61.518-59.36 71.448 7.681-19.516 52.452-112.028 109.654-106.632M362.001 314.35c-10.171 0-9.771-21.041-19.116-33.823l29.874-12.32c8.622 12.545 4.773 22.091 14.532 22.091 8.108 0 36.834-15.256 36.834-15.256-48.242 30.374-56.626 39.308-62.124 39.308"/><path fill="#4156a6" d="M172.569 458.122c26.335-46.193 61.951-64.109 95.92-60.249l22.811-21.766c-35.688-3.165-81.027-34.979-81.027-34.979l-24.752 25.471s17.7 10.577 43.387 23.744c0 0-42.308 20.938-56.339 67.779M287.107 291.075c-72.815 4.013-126.482 50.342-153.104 94.232 18.995-60.584 102.747-136.709 247.975-145.448zM188.176 256.565c4.866-19.666 20.477-56.16 39.129-56.16 3.838 0 8.044 2.199 13.877 5.79 9.722 5.986 40.045 20.685 48.568 25.838 0 0-11.759 13.381-27.979 13.381-26.559 0-34.669-19.666-44.4-19.666-9.935.001-29.195 30.817-29.195 30.817M436.776 234.305c0 16.177-19.765 31.668-47.006 22.893 0 0 19.535-9.615 19.535-23.961 0-14.956-20.298-25.334-20.298-25.334 23.732.686 47.769 9.614 47.769 26.402M132.42 387.753c0 19.447-17.269 36.264-50.294 35.185 0 0-42.956 61.518-59.36 71.448 7.681-19.517 52.453-112.029 109.654-106.633M360.489 313.645c-10.171 0-9.771-21.041-19.117-33.823l29.875-12.32c8.622 12.545 4.773 22.09 14.532 22.09 8.108 0 36.834-15.256 36.834-15.256-48.242 30.375-56.626 39.309-62.124 39.309"/></svg>