<svg xmlns="http://www.w3.org/2000/svg" viewBox="0 0 612 792"><path fill="#0093d2" d="M23.444 112.676h566v566h-566z"/><g fill="#fff200"><path d="m100.872 416.748 92.029 55.969 84.397-56.302 88.931 56.302 82.849-51.435 1.438 42.586-84.951 48.448-89.816-55.306-83.29 55.859-91.476-54.974z"/><path d="m55.964 498.711 90.48 54.974 83.954-55.195 90.923 55.195 84.397-52.762-.221 42.254-84.176 52.651-92.25-54.532-81.521 53.647-91.586-57.186z"/><path d="m208.276 571.273 89.154 54.088 83.29-54.421 92.582 53.869 83.733-55.749-.332 46.125-85.503 54.642-90.259-56.301-83.29 54.31-89.928-57.629zM214.36 362.769h215.692v38.051c-63.823-15.374-144.237-15.374-215.692 0zM273.328 331.023c.005-13.577 11.084-24.539 24.543-24.543 13.464.003 24.432 10.977 24.434 24.543-.004 13.463-10.972 24.428-24.434 24.434v-3.074c11.755-.02 21.338-9.603 21.359-21.359-.021-11.874-9.605-21.45-21.359-21.469-11.76.02-21.449 9.605-21.471 21.469.022 11.745 9.711 21.339 21.471 21.359v3.074c-13.459-.007-24.534-10.961-24.543-24.434M347.869 160.792c10.839 0 19.578-8.849 19.578-19.578 0-10.84-8.738-19.579-19.578-19.579s-19.579 8.738-19.579 19.579c0 10.729 8.738 19.578 19.579 19.578"/><path d="M231.947 167.871h121.009c16.149 14.49 31.966 27.653 48.005 42.475 3.982 3.539 3.761 5.419 0 8.628-11.503 11.503-22.897 22.896-34.399 34.4-12.278 11.283-26.326.553-17.477-11.725l20.906-21.901c2.101-2.323-3.54-6.969-5.752-4.535-36.944 38.051-73.778 76.101-110.722 114.262-11.283 11.172-28.649-7.3-17.809-17.808 24.224-24.114 48.448-48.227 72.672-72.23 2.544-2.543-1.659-6.526-4.204-4.203-14.711 14.269-29.422 28.538-44.245 42.807-12.057 9.624-29.091-5.974-17.034-17.477 23.892-23.561 47.673-48.337 71.455-71.898h-82.848c-8.185 0-8.185-20.795.443-20.795"/></g></svg>