<svg xmlns="http://www.w3.org/2000/svg" xmlns:xlink="http://www.w3.org/1999/xlink" viewBox="0 0 595.276 841.89"><linearGradient id="a"><stop offset="0" stop-color="#fff"/><stop offset=".5" stop-color="#fff"/><stop offset="1"/></linearGradient><radialGradient xlink:href="#a" id="b" cx="291.844" cy="386.608" r="108.214" gradientUnits="userSpaceOnUse"/><radialGradient xlink:href="#a" id="c" cx="291.839" cy="386.61" r="108.219" gradientUnits="userSpaceOnUse"/><radialGradient xlink:href="#a" id="d" cx="291.838" cy="386.609" r="108.22" gradientUnits="userSpaceOnUse"/><radialGradient xlink:href="#a" id="e" cx="291.84" cy="386.609" r="108.217" gradientUnits="userSpaceOnUse"/><radialGradient xlink:href="#a" id="f" cx="291.839" cy="386.609" r="108.221" gradientUnits="userSpaceOnUse"/><radialGradient xlink:href="#a" id="g" cx="291.84" cy="386.608" r="108.22" gradientUnits="userSpaceOnUse"/><radialGradient xlink:href="#a" id="h" cx="291.841" cy="386.61" r="108.223" gradientUnits="userSpaceOnUse"/><radialGradient xlink:href="#a" id="i" cx="291.839" cy="386.61" r="108.218" gradientUnits="userSpaceOnUse"/><radialGradient xlink:href="#a" id="j" cx="291.84" cy="386.609" r="108.22" gradientUnits="userSpaceOnUse"/><radialGradient xlink:href="#a" id="k" cx="291.84" cy="386.608" r="108.222" gradientUnits="userSpaceOnUse"/><circle cx="298" cy="421.89" r="283.465"/><circle cx="298" cy="421.89" r="254.101" fill="#3e67b1" transform="rotate(-45 298 421.89)"/><circle cx="298" cy="421.89" r="234.08" transform="rotate(-45 298 421.89)"/><path fill="#3e67b1" d="M146.637 270.527c-34.701 34.703-57.482 81.277-61.867 133.097L279.736 208.66c-51.82 4.385-98.397 27.167-133.099 61.867M276.435 318.803l97.185-97.187c-18.336-6.926-37.87-11.381-58.208-13.021L84.705 439.302c1.64 20.339 6.095 39.875 13.021 58.212l117.426-117.427c7.771-29.941 31.342-53.512 61.283-61.284M213.814 417.039 108.813 522.041a214.6 214.6 0 0 0 29.21 42.018L238.722 463.36c-12.696-12.199-21.628-28.269-24.908-46.321M359.71 342.373l80.457-80.457a214.4 214.4 0 0 0-42.019-29.212l-84.761 84.762c18.053 3.278 34.124 12.211 46.323 24.907M378.68 430.247l108.507-108.505a214.3 214.3 0 0 0-29.212-42.018l-83.499 83.498a85.2 85.2 0 0 1 9.116 38.429 85.4 85.4 0 0 1-4.912 28.596M298 487.243a85.2 85.2 0 0 1-38.43-9.117L155.831 581.863a214.3 214.3 0 0 0 42.018 29.214l128.746-128.745A85.4 85.4 0 0 1 298 487.243M498.271 346.267 222.377 622.164c18.337 6.926 37.87 11.382 58.209 13.021l230.709-230.709c-1.639-20.339-6.095-39.875-13.024-58.209M449.355 573.259l.013-.013c34.699-34.7 57.479-81.275 61.862-133.093L316.264 635.12c51.814-4.383 98.389-27.164 133.091-61.861"/><g fill="#fff"><path d="M219.879 282.74c1.564-.245 2.886-.753 3.926-1.512s1.879-1.809 2.495-3.121l1.603-5.003-.008.024 1.627-7.432c.005-.021.248-2.698.248-2.698 0-2.502-.696-4.427-2.07-5.712-1.358-1.274-3.389-1.921-6.03-1.921h-12.928c-2.127 0-3.013-.183-3.383-.336-.154-.065-.517-.216-.517-1.087l.373-2.424.23-.986.662-2.453.814-1.098c.005-.005 1.395-.469 1.395-.469l2.596-.11h22.677l1.989-9.385h-26.603l-5.564.357c-1.559.242-2.878.738-3.915 1.465-1.048.738-1.903 1.789-2.542 3.126-.613 1.274-1.163 2.961-1.635 5.01l-1.936 8.916c-.003.008-.128.8-.128.8l-.045.811c0 2.226.9 4.022 2.672 5.336 1.707 1.267 4.056 1.911 6.976 1.911h13.626c1.963 0 1.963.91 1.963 1.345l-.375 2.5-.227.99-.709 2.472c-.003 0-.764 1.079-.764 1.079l-1.395.464-2.596.112H189.62l-1.984 9.385h26.601zM238.002 294.166l7.74-36.538h10.842c2.117 0 2.969.195 3.31.362.141.068.511.242.511 1.139l-.295 2.349-1.78 8.113c-.003.005-.6 2.284-.6 2.284 0 .005-.693 1.108-.693 1.108-.003 0-1.348.547-1.348.547l-2.823.183h-8.512l-1.992 9.307h12.44l5.561-.355c1.564-.248 2.893-.741 3.952-1.465 1.069-.73 1.95-1.778 2.62-3.115.644-1.283 1.184-2.977 1.605-5.042v.003l3.019-14.478.555-4.393c0-2.325-.824-3.931-2.45-4.77-1.499-.78-4.03-1.16-7.737-1.16h-25.081l-9.731 45.923h10.887zM272.359 280.097c.401.795 1.045 1.429 1.916 1.882.002.003 3.165.881 3.165.881l4.614.237h25.159l5.221-24.528.56-4.319c0-1.176-.194-2.161-.577-2.928-.396-.798-1.039-1.431-1.915-1.882l-3.163-.884-4.616-.234h-23.606l-1.989 9.385h20.333c2.125 0 2.985.18 3.333.331.132.058.489.211.489 1.092l-.373 2.424-2.597 12.159h-13.782c-1.314 0-1.423-.576-1.423-1.116 0-.545.219-1.038.67-1.51.438-.461 1.011-.686 1.76-.686h10.837l1.99-9.385h-11.899l-5.636.354c-1.564.248-2.894.741-3.952 1.465-1.077.735-1.934 1.791-2.552 3.136l-1.59 5.002-.391 1.875-.556 4.314c-.001 1.188.191 2.176.57 2.935M321.843 283.097l4.522-21.275.632-2.307.763-1.145 1.344-.519 2.726-.146h11.688l1.989-9.385h-10.809c-2.423 0-4.358 1.131-6.029 2.818.207-1.006.574-2.818.574-2.818h-10.876l-7.406 34.776zM343.236 277.164c0 2.38.827 4.001 2.461 4.817 1.502.75 4.031 1.116 7.733 1.116h8.206l1.982-9.385h-4.849c-2.237 0-3.048-.208-3.329-.331-.136-.06-.493-.214-.493-1.092l.373-2.424 2.597-12.159h9.053l2.078-9.385h-9.218c.303-1.39 2.398-11.071 2.398-11.071h-10.887l-7.546 35.597c.001.005-.559 4.317-.559 4.317M367.713 272.847c0 .008-.556 4.317-.556 4.317 0 1.191.196 2.179.58 2.935.394.793 1.036 1.426 1.912 1.879l3.166.881 4.613.237h25.154l5.221-24.528.56-4.319c0-1.184-.194-2.169-.571-2.928-.405-.798-1.049-1.429-1.917-1.882-.002-.002-3.162-.884-3.162-.884l-4.617-.234h-23.611l-1.982 9.385h20.327c2.131 0 2.99.18 3.337.331.132.058.486.211.486 1.092l-.374 2.422s-2.386 11.191-2.591 12.161h-13.782c-1.313 0-1.425-.576-1.425-1.116 0-.547.218-1.043.666-1.51.439-.461 1.02-.686 1.764-.686h10.841l1.981-9.385H381.84l-5.642.354c-1.558.245-2.886.738-3.946 1.465-1.082.738-1.942 1.793-2.558 3.136l-1.585 5.002zM185.521 529.527h-12.928c-2.132 0-3.016-.181-3.384-.333-.154-.064-.516-.216-.516-1.087l.373-2.424.229-.986.662-2.45.816-1.105 1.392-.461 2.597-.112h22.677l1.989-9.387h-26.603l-5.561.356c-1.569.25-2.886.746-3.918 1.469-1.051.74-1.906 1.79-2.542 3.125-.612 1.275-1.163 2.961-1.634 5.013l-1.937 8.911-.128.803-.044.811c0 2.226.899 4.021 2.672 5.335 1.705 1.268 4.051 1.912 6.976 1.912h13.626c1.963 0 1.963.91 1.963 1.345l-.376 2.5-.227.99-.709 2.472c-.002 0-.769 1.084-.769 1.084.005-.004-1.392.459-1.392.459l-2.594.11H153.47l-1.984 9.387h26.601l5.639-.354c1.575-.25 2.894-.761 3.929-1.514 1.043-.762 1.882-1.813 2.495-3.124l1.604-4.999-.008.022 1.626-7.43c.005-.021.248-2.697.248-2.697 0-2.503-.696-4.428-2.067-5.714-1.361-1.28-3.391-1.927-6.032-1.927M207.27 547.545c-.133-.058-.49-.211-.49-1.09l.373-2.425 1.702-8.045c.002 0 .631-2.301.631-2.301l.767-1.153c.003 0 1.34-.514 1.34-.514l2.727-.147h16.796l1.989-9.385h-20.644l-5.527.356c-1.533.248-2.86.738-3.939 1.46-1.103.732-1.986 1.785-2.63 3.128-.618 1.288-1.168 2.978-1.637 5.016l-3.1 14.567-.555 4.319.477 2.815c.344.811.954 1.455 1.809 1.914l3.163.922 4.817.279h20.362l1.981-9.387h-17.081c-2.126.002-2.984-.179-3.331-.329M271.128 523.602c-1.502-.753-4.03-1.117-7.729-1.117h-9.987c-2.414 0-4.341 1.123-6.009 2.802.681-3.219 2.962-14.028 2.962-14.028h-10.887l-9.805 46.004h10.884l4.528-21.277c.003-.003.629-2.299.629-2.299.002-.006.766-1.155.766-1.155.003 0 1.343-.514 1.343-.514l2.727-.147h7.586c2.232 0 3.045.208 3.332.333.133.057.49.211.49 1.089l-.372 2.426L257 557.264h10.811l5.222-24.527.558-4.317c-.002-2.386-.831-4.004-2.463-4.818M314.851 528.418c0-1.181-.192-2.166-.578-2.93-.396-.799-1.038-1.432-1.914-1.884l-3.164-.88-4.614-.239h-23.606l-1.989 9.385h20.334c2.231 0 3.045.208 3.331.333.131.057.49.211.49 1.089l-.375 2.426s-2.388 11.188-2.597 12.158h-13.78c-1.312 0-1.421-.573-1.421-1.111 0-.55.219-1.045.667-1.515.441-.458 1.014-.683 1.759-.683h10.835l1.991-9.388h-11.895l-5.639.358c-1.566.247-2.896.74-3.952 1.465-1.077.738-1.935 1.794-2.552 3.134l-1.59 5.009-.391 1.87c.003-.013-.555 4.317-.555 4.317 0 1.202.188 2.158.574 2.93.398.799 1.043 1.432 1.913 1.88l3.167.884 4.612.237h25.156l5.225-24.527zM340.862 522.1h-8.556c.74-.778 1.986-1.3 4.244-1.3h4.572l1.982-9.385h-8.41l-5.526.357c-1.527.243-2.852.733-3.941 1.457-1.101.733-1.986 1.786-2.633 3.132-.615 1.289-1.152 2.956-1.632 5.096l-7.607 35.806h10.887s5.281-24.766 5.495-25.778h9.135zM363.85 522.1h-8.556c.74-.778 1.992-1.3 4.249-1.3h4.567l1.986-9.385h-8.409l-5.527.357c-1.527.243-2.857.733-3.941 1.457-1.1.733-1.986 1.786-2.633 3.132-.615 1.289-1.152 2.956-1.632 5.096l-7.606 35.806h10.886s5.282-24.766 5.495-25.778h9.141zM377.813 535.18l-1.981 9.388h23.499l2.513-11.832.558-4.396c0-2.322-.823-3.928-2.45-4.772-1.512-.782-4.041-1.16-7.737-1.16h-13.624c-4.046 0-7.185.785-9.332 2.333-2.169 1.569-3.649 4.166-4.406 7.719l-3.019 14.479c.006-.017-.475 2.398-.475 2.398l-.156 1.996c0 1.153.172 2.072.532 2.808.364.765.975 1.398 1.814 1.874.798.457 1.871.77 3.19.935l4.729.239h23.686l1.986-9.312h-20.333c-2.227 0-3.029-.226-3.311-.357-.141-.068-.511-.247-.511-1.142l.297-2.347 1.7-8.045c0-.005.689-2.339.689-2.339.005 0 .886-1.178.886-1.178l1.397-.529 2.492-.146h7.586c1.105 0 1.924.161 2.435.479.423.266.615.629.615 1.175-.005 0-.214 1.064-.344 1.731zM442.051 523.602c-1.501-.753-4.029-1.117-7.727-1.117h-9.984c-2.424 0-4.358 1.13-6.032 2.819.209-1.009.573-2.819.573-2.819h-10.876l-7.403 34.777h10.882l4.525-21.277c.005 0 .631-2.301.631-2.301l.767-1.153c.005 0 1.34-.514 1.34-.514l2.727-.147h7.586c2.236 0 3.05.208 3.337.333.13.057.49.211.49 1.089l-.376 2.426-4.583 21.545h10.809l5.219-24.527.558-4.317c-.002-2.385-.83-4.005-2.463-4.817"/></g><path fill="url(#b)" d="m361.513 347.257-2.015 14.806c1.34 2.085 8.33 14.001 8.33 35.71q0 3.156-.21 6.586l12.938 10.657a84 84 0 0 0 1.068-13.365c0-20.775-7.574-39.769-20.111-54.394"/><path fill="url(#c)" d="m297.213 429.471-24.398-18.807c-2.497 1.128-13.305 5.855-26.424 9.323l.252 25.688q.132.194.381.532a59 59 0 0 0 1.619 2.118 76 76 0 0 0 6.166 6.795c5.233 5.112 12.667 10.815 21.451 13.42l22.723-11.865c-.034-11.434-1.035-21.199-1.542-25.396-.1-.839-.179-1.447-.228-1.808"/><path fill="url(#d)" d="M237.455 372.873c-3.759 6.277-7.516 15.549-7.592 27.62l15.866 17.632c11.098-2.916 20.586-6.779 24.663-8.543a99 99 0 0 0 1.765-.78l10.468-29.616c-5.218-9.152-10.403-16.975-12.685-20.335q-.524-.772-.828-1.211l-24.29 5.819a33.372 33.372 0 0 0-2.153 2.233c-1.418 1.605-3.316 4.009-5.214 7.181"/><path fill="url(#e)" d="M317.361 336.501c-.045-.031-.099-.07-.174-.12a19 19 0 0 0-.922-.584 28.4 28.4 0 0 0-3.672-1.805c-3.228-1.318-7.975-2.645-14.024-2.645-4.41 0-9.517.707-15.245 2.643l-12.629 22.482c1.491 2.161 7.501 10.985 13.588 21.652l30.48 1.015c.25-.28.655-.734 1.2-1.367a129 129 0 0 0 3.953-4.846 154 154 0 0 0 11.412-16.872z"/><path fill="url(#f)" d="M324.394 410.591c11.78 3.892 23.39 9.049 26.224 10.332l15.027-16.529c.146-2.302.215-4.511.215-6.621-.003-21.152-6.755-32.669-7.994-34.609l-24.886-6.033c-7.349 12.594-14.972 21.343-16.705 23.272z"/><path fill="url(#g)" d="M298.569 329.379c10.656.003 17.516 3.923 19.5 5.225l13.665-9.489c-10.319-4.554-21.728-7.088-33.734-7.088-10.804 0-21.127 2.048-30.604 5.778l15.349 8.304c5.908-1.992 11.217-2.73 15.824-2.73"/><path fill="url(#h)" d="m243.219 362.267-5.931-18.119c-14.202 14.989-22.912 35.224-22.912 57.503 0 3.91.275 7.756.794 11.525l12.721-12.724c.161-22.516 12.685-35.66 15.328-38.185"/><path fill="url(#i)" d="M245.153 446.973h-17.438a84 84 0 0 0 11.154 13.81c11.884 11.882 27.315 20.2 44.575 23.228l-7.746-13.58c-16.936-5.062-28.549-20.655-30.545-23.458"/><path fill="url(#j)" d="M343.78 458.028c-4.552 3.752-10.801 7.79-17.864 9.026l-4.567 14.913c13.705-3.977 25.958-11.361 35.782-21.186a84.3 84.3 0 0 0 10.089-12.195l-16.104 2.259c-.793.937-3.435 3.958-7.336 7.183"/><path fill="url(#k)" d="M349.341 449.892c.117-.134.206-.238.28-.329l.254-26.818c-.398-.181-.989-.445-1.754-.786a326 326 0 0 0-6.161-2.642c-4.985-2.076-11.594-4.683-18.226-6.87l-24.545 16.955c.353 2.656 1.714 13.746 1.758 27.174l24.294 8.604c11.727-1.836 21.822-12.619 24.1-15.288"/></svg>