<svg enable-background="new 0 0 612 792" viewBox="0 0 612 792" xmlns="http://www.w3.org/2000/svg"><path d="m22.897 529.078h566v21.439h-566z"/><path d="m304.814 464.433-81.191 57.982h81.191 284.083v-57.982z" fill="#ed1c24"/><path d="m320.06 509.318 14.736-31.789h-13.526v-7.1h22.444v6.645l-14.888 32.245h14.888v7.101h-23.654z" fill="#fff"/><path d="m362.452 469.451c7.482 0 12.394 4.364 12.394 11.791v23.581c0 8.143-4.686 12.573-12.695 12.573-8.162 0-12.622-4.364-12.622-12.77v-23.58c-.001-7.165 4.761-11.595 12.923-11.595zm3.93 11.139c0-3.191-1.437-4.755-4.231-4.755-2.798 0-4.232 1.564-4.232 4.755v25.667c0 3.192 1.434 4.82 4.232 4.82 2.795 0 4.231-1.628 4.231-4.82z" fill="#fff"/><path d="m382.323 470.429h10.957l5.366 25.471c.453 2.084.681 4.43.681 6.904 0-2.346.302-4.624.756-6.839l5.138-25.536h11.109v45.99h-7.708v-29.054c0-1.303.151-3.974.604-8.013-.604 3.128-.983 5.277-1.285 6.515l-6.726 30.552h-4.081l-6.423-30.552c-.756-3.713-1.134-5.928-1.285-6.515.378 3.453.529 6.124.529 8.013v29.054h-7.633v-45.99z" fill="#fff"/><path d="m424.714 470.429h21.462v6.645h-13.225v12.051h9.522v6.646h-9.522v13.744h13.225v6.905h-21.462z" fill="#fff"/><path d="m460.683 516.419h-8.237v-45.99h12.091c8.918 0 12.848 3.844 12.848 13.289 0 5.472-1.36 8.988-5.215 11.334l6.046 21.367h-8.539l-5.064-19.348h-3.93zm0-25.991h3.25c4.005 0 5.063-1.891 5.063-6.971 0-4.886-1.36-6.384-5.365-6.384h-2.947v13.355z" fill="#fff"/><path d="m483.048 481.047c0-7.166 4.762-11.596 12.923-11.596 7.708 0 11.864 3.974 11.864 11.791v4.234h-7.935v-4.887c0-3.191-1.436-4.755-4.232-4.755s-4.232 1.564-4.232 4.755v25.667c0 3.192 1.436 4.82 4.232 4.82s4.232-1.628 4.232-4.82v-7.166h-4.987v-5.862h12.922v23.19h-3.93l-1.587-3.191c-1.815 2.865-4.308 4.169-7.935 4.169-7.331 0-11.336-4.431-11.336-12.77v-23.579z" fill="#fff"/><path d="m515.464 470.429h21.462v6.645h-13.225v12.051h9.522v6.646h-9.522v13.744h13.225v6.905h-21.462z" fill="#fff"/><path d="m543.271 470.429h10.959l5.365 25.471c.453 2.084.68 4.43.68 6.904 0-2.346.303-4.624.756-6.839l5.139-25.536h11.109v45.99h-7.709v-29.054c0-1.303.151-3.974.604-8.013-.604 3.128-.981 5.277-1.284 6.515l-6.727 30.552h-4.08l-6.423-30.552c-.757-3.713-1.135-5.928-1.286-6.515.379 3.453.529 6.124.529 8.013v29.054h-7.633v-45.99z" fill="#fff"/><path d="m320.326 311.507h26.302v61.332c1.448-4.322 2.654-7.615 3.62-9.468l26.062-51.864h26.06l-29.198 49.601 32.576 95.702h-27.268l-22.199-73.063-9.653 16.465v56.598h-26.302z"/><path d="m433.738 311.507 15.686 86.029c1.447 7.821 2.895 17.7 2.895 30.254v2.676c.483-14.817 1.69-25.727 2.897-32.93l15.202-86.029h25.818l-30.162 145.303h-27.509l-30.405-145.303z"/><path d="m526.399 311.507 15.685 86.029c1.448 7.821 2.896 17.7 2.896 30.254v2.676c.481-14.817 1.688-25.727 2.896-32.93l15.202-86.029h25.819l-30.163 145.303h-27.509l-30.405-145.303z"/><g fill="#fff"><path d="m33.327 534.146c1.379-.425 2.34-1.02 2.981-1.849h1.798v15.001h-2.661v-11.644h-2.118z"/><path d="m40.693 543.303h2.636v.999c0 .701.542 1.19 1.379 1.19.764 0 1.379-.468 1.379-1.19v-3.697c-.64.574-1.306.851-2.094.851-2.242 0-3.399-1.551-3.399-4.633 0-3.229 1.379-4.845 4.138-4.845 2.563 0 3.991 1.424 3.991 4.165v7.691c0 2.359-1.527 3.783-4.089 3.783-2.365 0-3.941-1.445-3.941-3.847zm5.395-7.798c0-.913-.616-1.381-1.429-1.381-.837 0-1.33.51-1.33 1.529v2.104c0 1.169.419 1.764 1.33 1.764.616 0 1.108-.319 1.429-.914z"/><path d="m53.062 542.963v.617c0 1.274.37 1.891 1.257 1.891 1.059 0 1.428-.702 1.428-2.146 0-1.954-.468-2.762-2.217-2.762h-.345v-2.104h.418c1.429 0 1.897-.786 1.897-2.338 0-1.317-.32-1.954-1.133-1.954-.912 0-1.256.51-1.256 1.636 0 .17 0 .36.025.574h-2.537v-.128c0-2.72 1.453-4.229 3.769-4.229 2.34 0 3.498 1.423 3.498 4.25 0 1.656-.394 2.678-1.502 3.229 1.428.595 1.822 1.657 1.822 3.549 0 3.017-1.354 4.547-3.719 4.547-2.414 0-3.941-1.467-3.941-4.25v-.383h2.536z"/><path d="m58.878 534.146c1.379-.425 2.34-1.02 2.981-1.849h1.798v15.001h-2.661v-11.644h-2.118z"/><path d="m69.916 540.987h5.715v1.572h-5.715z"/><path d="m80.906 545.131c3.621-4.313 5.469-7.395 5.469-9.307 0-1.169-.493-1.806-1.207-1.806-1.059 0-1.38.679-1.404 2.081l-.025.554h-2.611v-.276c0-2.826 1.527-4.378 4.064-4.378 2.168 0 3.67 1.317 3.67 3.591 0 2.72-1.995 5.567-5.075 9.541h4.854v2.167h-7.735z"/><path d="m94.974 531.977c2.365 0 3.941 1.424 3.941 3.847v7.691c0 2.656-1.478 4.102-4.015 4.102-2.562 0-3.991-1.424-3.991-4.165v-7.691c0-2.36 1.503-3.784 4.065-3.784zm-.025 13.515c.789 0 1.33-.489 1.33-1.402v-8.775c0-.701-.541-1.19-1.379-1.19-.764 0-1.379.468-1.379 1.169v8.797c0 .891.615 1.401 1.428 1.401z"/><path d="m104.978 531.977c2.365 0 3.941 1.424 3.941 3.847v7.691c0 2.656-1.478 4.102-4.015 4.102-2.562 0-3.991-1.424-3.991-4.165v-7.691c.001-2.36 1.503-3.784 4.065-3.784zm-.024 13.515c.788 0 1.33-.489 1.33-1.402v-8.775c0-.701-.542-1.19-1.379-1.19-.764 0-1.38.468-1.38 1.169v8.797c-.001.891.615 1.401 1.429 1.401z"/><path d="m110.055 532.297h7.291v1.637l-3.252 13.364h-2.586l3.202-12.833h-4.655z"/><path d="m480.523 543.144c.1 1.508.642 2.231 1.775 2.231.985 0 1.65-.574 1.65-1.445 0-1.254-.985-2.018-2.414-3.251-1.946-1.679-3.325-2.911-3.325-4.887 0-2.168 1.896-3.762 4.162-3.762 2.218 0 3.819 1.381 4.016 3.719l-2.611.318c-.099-1.296-.492-1.869-1.478-1.869-.837 0-1.429.53-1.429 1.381 0 1.359 1.157 2.273 2.686 3.549 1.848 1.551 3.004 2.677 3.004 4.759 0 2.21-1.772 3.74-4.162 3.74-2.611 0-4.311-1.509-4.434-4.144z"/><path d="m486.907 532.287h8.276v2.167h-2.808v12.834h-2.686v-12.834h-2.783v-2.167z"/><path d="m497.329 532.287h3.498l2.858 15.001h-2.759l-.542-3.251h-2.71l-.566 3.251h-2.637zm2.734 9.625-.91-6.269h-.173l-.961 6.269z"/><path d="m505.214 532.287h3.571l1.749 8.308c.148.68.223 1.444.223 2.252 0-.765.099-1.508.246-2.231l1.675-8.328h3.621v15.001h-2.513v-9.478c0-.425.05-1.296.197-2.613-.197 1.021-.32 1.722-.419 2.125l-2.192 9.966h-1.33l-2.094-9.966c-.246-1.211-.37-1.934-.419-2.125.123 1.127.173 1.998.173 2.613v9.478h-2.488z"/><path d="m519.036 532.287h2.415l3.399 8.967c.049.127.246.658.517 1.593-.222-1.063-.296-1.764-.296-2.018v-8.541h2.514v15.001h-2.514l-3.275-8.287c-.148-.382-.37-.913-.567-1.636.197 1.062.296 1.764.296 2.082v7.841h-2.488v-15.002z"/><path d="m532.982 547.288h-2.684v-15.001h3.941c2.906 0 4.188 1.254 4.188 4.334 0 1.784-.443 2.933-1.7 3.697l1.972 6.97h-2.784l-1.65-6.312h-1.281v6.312zm0-8.478h1.06c1.306 0 1.65-.616 1.65-2.273 0-1.593-.443-2.082-1.749-2.082h-.961z"/><path d="m540.597 544.93h2.562v2.358h-2.562z"/><path d="m547.938 543.102v.764c0 1.127.443 1.7 1.38 1.7.763 0 1.231-.51 1.231-1.487v-3.825c0-.827-.32-1.232-1.133-1.232-.69 0-1.207.425-1.479 1.211l-2.192-.085.296-7.861h6.553l.099 2.167h-4.533l-.222 3.526c.788-.658 1.602-.977 2.414-.977 1.602 0 2.636 1.041 2.636 3.165v3.805c0 2.273-1.503 3.633-3.843 3.633-2.365 0-3.621-1.381-3.621-4.058v-.446z"/><path d="m559.051 547.606c-2.562 0-3.99-1.423-3.99-4.164v-7.692c0-2.358 1.527-3.782 4.089-3.782 2.365 0 3.941 1.444 3.941 3.847v.467h-2.636v-.977c0-.702-.542-1.19-1.379-1.19-.765 0-1.38.446-1.38 1.169v3.697c.69-.639 1.577-.956 2.463-.956 1.799 0 2.932.998 2.932 2.91v2.571c0 2.634-1.503 4.1-4.04 4.1zm-1.355-3.527c0 .893.615 1.402 1.429 1.402.788 0 1.33-.488 1.33-1.402v-2.911c0-.765-.469-1.168-1.158-1.168-.565 0-1.158.318-1.601.977z"/><path d="m564.597 541.657 4.458-9.37h2.513v9.37h1.626v1.976h-1.626v3.655h-2.513v-3.655h-4.458zm4.458-5.482-2.167 5.482h2.167z"/><path d="m573.688 534.135c1.381-.425 2.341-1.02 2.981-1.848h1.799v15.001h-2.66v-11.645h-2.119v-1.508z"/></g><path d="m217.721 314.324c47.624 0 86.226 38.602 86.228 86.226-.001 47.621-38.604 86.222-86.228 86.225-47.622-.004-86.222-38.604-86.225-86.225.003-47.624 38.604-86.226 86.225-86.226z"/><path d="m296.361 418.027-34.126 6.195-19.749-22.853 10.921-22.403 21.611-6.824 21.516 11.679c1.139 5.397 1.749 10.989 1.749 16.729 0 6.006-.677 11.848-1.922 17.477z" fill="#fff"/><path d="m164.165 377.161 21.824 3.316 13.396 25.364-12.929 22.481-21.719 1.086-15.462-33.497z" fill="#fff"/><path d="m164.477 456.025 16.742 9.722v6.611c-7.453-3.797-14.242-8.707-20.137-14.535z" fill="#fff"/><path d="m205.755 447.963-14.179-17.178 12.781-22.231 33.597-3.767 19.231 22.256-20.808 18.588z" fill="#fff"/><path d="m279.478 348.832-6.365 17.972-21.314 6.73-32.782-20.781.551-24.819 15.735-6c15.186 3.38 28.758 11.025 39.385 21.649 1.676 1.677 3.268 3.434 4.79 5.249z" fill="#fff"/><path d="m198.544 322.304 15.357 5.626-.556 25.009-26.353 21.961-21.807-3.313-7.225-25.058c.908-1.004 1.838-1.988 2.795-2.945 10.255-10.25 23.249-17.729 37.789-21.28z" fill="#fff"/><path d="m137.218 398.347h6.944l16.02 34.711 1.392 18.096-4.504 2.384c-12.389-14.169-19.907-32.684-19.907-52.987-.001-.741.035-1.47.055-2.204z" fill="#fff"/><path d="m186.883 474.984v-9.324l18.553-11.99 31.134-2.372 14.916 13.193 2.789 7.842c-10.972 5.6-23.383 8.776-36.553 8.776-10.93 0-21.34-2.184-30.839-6.125z" fill="#fff"/><path d="m274.689 457.513c-4.611 4.61-9.777 8.658-15.386 12.047l-1.967-5.526 21.007-13.397 1.807-23.909 14.636-2.657c-3.896 12.784-10.879 24.222-20.097 33.442z" fill="#fff"/><path d="m124.887 400.55c.001-22.121 7.783-42.455 20.747-58.421l-56.62 27.581 39.872-5.906-71.97 33.915 62.113-14.4-80.05 37.687 74.919-19.79-91.001 42.763 95.534-26.997-95.534 42.417 96.807-27.406-90.954 45.027 99.206-29.434-94.801 52.406 102.385-35.557-79.728 46.886 89.978-33.503-59.61 41.056 71.429-29.231-38.072 32.771 55.632-24.393-17.935 24.393 40.65-22.571-3.764 20.289 42.993-28.794c-6.257 1.335-12.743 2.044-19.391 2.045-51.187-.003-92.833-41.649-92.835-92.833z" fill="#ed1c24"/><path d="m229.05 249.371c0 4.62-3.746 8.365-8.365 8.365-4.621 0-8.366-3.746-8.366-8.365 0-4.621 3.745-8.366 8.366-8.366 4.62 0 8.365 3.745 8.365 8.366z"/><path d="m220.685 263.777c-8.028 0-17.818 5.84-17.818 5.84 14.588 3.802 26.297 8.254 17.291 36.087 0 0 16.085-4.415 16.085-26.632 0-9.455-6.958-15.295-15.558-15.295z"/><path d="m291.956 316.013c-4.345 0-9.643 3.16-9.643 3.16 7.895 2.058 14.232 4.467 9.357 19.529 0 0 8.705-2.389 8.705-14.413.001-5.116-3.765-8.276-8.419-8.276z"/><path d="m256.32 281.833c-6.186 0-13.73 4.5-13.73 4.5 11.241 2.929 20.265 6.36 13.324 27.808 0 0 12.395-3.402 12.395-20.523.001-7.284-5.362-11.785-11.989-11.785z"/><path d="m143.489 316.013c4.345 0 9.643 3.16 9.643 3.16-7.895 2.058-14.232 4.467-9.357 19.529 0 0-8.705-2.389-8.705-14.413-.001-5.116 3.765-8.276 8.419-8.276z"/><path d="m179.124 281.833c6.186 0 13.73 4.5 13.73 4.5-11.241 2.929-20.265 6.36-13.324 27.808 0 0-12.395-3.402-12.395-20.523 0-7.284 5.363-11.785 11.989-11.785z"/></svg>