<svg xmlns="http://www.w3.org/2000/svg" viewBox="0 0 612 792"><path fill="#009f57" d="M508.59 113.346c2.911 26.383 4.494 54.021 4.494 82.929 0 267.01-134.84 426.021-207.902 483.071C232.121 622.295 97.28 463.284 97.28 196.274c0-28.907 1.583-56.546 4.494-82.929H508.59"/><path fill="#fff" d="M501.57 121.143H242.648v484.938a533 533 0 0 0 5.181 6.231c22.733 26.886 43.063 45.44 57.353 57.063 14.29-11.622 34.62-30.177 57.353-57.063 25.264-29.88 47.846-63.336 67.117-99.439 23.022-43.128 41.08-89.708 53.672-138.448 14.573-56.406 21.963-116.344 21.963-178.151 0-25.322-1.25-50.562-3.717-75.131M175.063 457.242l38.978 6.511v8.599l-16.306-2.735v12.592l16.306 2.734v8.569l-38.978-6.511v-8.598l15.277 2.564v-12.592l-15.277-2.563zM214.04 424.542v9.278l-8.567 1.254v13.082l8.567 3.752v8.443l-38.978-18.571v-10.658zm-15.362 20.638v-9.111l-15.591 2.281zM184.628 390.754l1.856 7.995q-4.854 1.371-4.854 6.654 0 2.456 1.169 3.897 1.17 1.442 2.823 1.442c1.653 0 1.939-.391 2.509-1.171q.855-1.171 1.683-4.483 1.199-4.769 2.525-7.511 1.327-2.74 3.71-4.211 2.383-1.47 5.808-1.471 5.507 0 9.202 4.055 3.696 4.056 3.696 11.536 0 6.398-2.956 10.638c-2.956 4.24-4.936 4.583-8.895 5.268l-1.142-8.338q5.797-1.285 5.796-7.91 0-2.998-1.281-4.598-1.282-1.6-3.247-1.6-1.88 0-2.719 1.216-.84 1.216-2.045 5.64-1.06 4.025-2.345 6.409a9.76 9.76 0 0 1-3.638 3.799q-2.353 1.412-5.379 1.413-4.937 0-8.703-3.741c-3.766-3.741-3.767-5.93-3.767-10.309q0-11.307 10.194-14.619M184.628 358.079l1.856 7.996q-4.854 1.371-4.854 6.653 0 2.455 1.169 3.897t2.823 1.442c1.653 0 1.939-.39 2.509-1.17s1.131-2.275 1.683-4.483q1.199-4.769 2.525-7.51 1.327-2.742 3.71-4.212t5.808-1.471q5.507 0 9.202 4.055 3.696 4.056 3.696 11.536 0 6.395-2.956 10.637-2.957 4.24-8.895 5.268l-1.142-8.338q5.797-1.285 5.796-7.91 0-2.998-1.281-4.597-1.282-1.598-3.247-1.599-1.88 0-2.719 1.215-.84 1.216-2.045 5.639-1.06 4.025-2.345 6.409a9.75 9.75 0 0 1-3.638 3.798q-2.353 1.413-5.379 1.414-4.937 0-8.703-3.741c-3.766-3.741-3.767-5.93-3.767-10.309q0-11.306 10.194-14.619M175.063 322.406l7.395 1.258v18.327l7.996 1.336v-15.325l7.053 1.171v15.332l9.138 1.526v-18.657l7.396 1.256v27.756l-38.978-6.511zM175.063 308.398l31.582 5.274v-15.347l7.396 1.228v24.301l-38.978-6.511zM182.458 269.275v9.815l31.583 5.283v8.975l-31.583-5.283v9.823l-7.395-1.228v-28.64z"/><path d="m269.208 457.17 5.204 11.868-6.029 3.949-13.111-29.817 9.943-6.512q3.761-2.463 6.334-2.98 2.574-.517 5.041.694 2.467 1.213 3.898 3.396 1.534 2.343 1.521 5.392-.014 3.048-2.688 6.008l10.977 9.467-6.276 4.111-9.822-8.846zm-5.712-12.662 3.314 7.564 3.978-2.604q2.304-1.51 3.197-2.53c.893-1.02.935-1.466 1.018-2.355s-.154-1.76-.713-2.613q-1.096-1.673-2.659-1.72-1.563-.045-4.062 1.592zM305.966 448.376a38 38 0 0 1-.852-1.215q-.258-.394-.72-1.357-.27-.584-.507-.99.708 5.163-3.86 8.154-2.639 1.728-5.339 1.277c-2.7-.451-3.211-1.232-4.232-2.791q-2.138-3.262-.497-7.16 1.639-3.897 9.107-9.293-.265-1.176-.819-2.023-.722-1.102-1.85-1.278-1.128-.174-2.329.61-3.013 1.973-2.03 5.663l-5.645 2.853q-1.903-7.503 5.697-12.481 3.84-2.514 6.882-2.227 3.044.285 4.745 2.885.619.946 2.286 4.692l2.498 5.707q1.212 2.751 2.076 4.071.412.631.962 1.254zm-5.471-10.288q-6.922 4.898-4.414 8.726.681 1.04 1.758 1.331 1.076.292 2.121-.393 1.693-1.108 1.945-3.603.25-2.493-1.41-6.061M329.118 423.113q2.36 9.147-4.335 13.529-4.173 2.734-8.155 1.614-3.984-1.119-6.614-5.136-2.954-4.509-2.433-9.901.522-5.39 5.247-8.485 4.291-2.81 7.819-1.786 3.525 1.024 5.267 3.683l.283.433-4.991 3.72q-1.303-1.988-2.769-2.252t-2.63.497q-1.948 1.276-1.624 4.285.326 3.01 2.71 6.652 2.411 3.68 5.464 1.684 2.697-1.767 1.453-5.987zM327.892 395.107l2.776 6.313-6.028 3.948-2.776-6.314zm3.515 7.995 9.771 22.216-6.029 3.947-9.769-22.215zM341.09 396.761l1.853 4.216q-.53-5.588 3.294-8.093 2.367-1.55 4.855-.999t4.022 2.895q.619.946 1.985 4.018l5.476 12.505-5.769 3.777-5.709-12.973q-.852-1.946-1.15-2.398-1.38-2.106-3.446-.754-1.084.71-1.519 2.022a4.9 4.9 0 0 0-.106 2.715q.329 1.403 1.508 4.063l4.83 10.987-5.788 3.791-9.767-22.217zM373.288 374.719q-.957.43-1.39.713-2.244 1.47-1.418 3.376 3.9-.19 5.846 2.783 1.96 2.993.699 6.351t-5.063 5.846q-1.22.8-3.638 1.877-1.19 1.707-.454 2.829.451.69 1.31.647.86-.042 2.565-1.132 5.059-3.228 7.115-3.829 2.052-.6 3.895.064 1.844.666 2.952 2.359 1.766 2.696.726 6.263-1.04 3.564-7.618 7.873-5.414 3.545-8.268 3.783-2.856.237-4.21-1.829-1.74-2.659 1.085-6.507-2.584-.163-3.873-2.134a5.3 5.3 0 0 1-.888-2.923q-.008-1.582 1.911-4.837-3.193.065-5.011-2.711-2.025-3.091-.71-6.498t4.936-5.779q2.105-1.38 3.776-1.882-2.342-5.163 1.735-7.833.55-.36 1.645-.965zm-6.959 9.565q-1.792 1.173-2.004 2.762-.213 1.589.535 2.73 1.934 2.953 4.829 1.058 1.752-1.148 1.962-2.761t-.745-3.071q-1.703-2.601-4.577-.718m11.107 22.633q5.12-3.353 3.735-5.468-.387-.589-1.259-.632t-3.083 1.349q-2.94 1.868-4.594 2.782-.536.297-.714.412-.67.439-.986 1.458-.318 1.018.118 1.686.68 1.037 2.609.461 1.932-.579 4.174-2.048M409.882 356.38l-5.95 4.319a19 19 0 0 0-.581-.974q-1.333-2.035-3.282-2.777-1.948-.741-4.017.612-3.386 2.218-2.189 7.245 1.195 5.026 3.748 8.926 1.896 2.893 4.006 3.411 2.11.516 4.061-.76 3.958-2.591 2.186-8.521l6.165-2.658q2.937 11.187-5.432 16.667-5.179 3.392-10.151 1.769-4.971-1.62-8.13-6.442-4.213-6.433-3.852-13.658.363-7.223 6.27-11.091 4.272-2.798 8.843-2.092 4.569.707 8.305 6.024M413.73 339.399l13.112 29.817-5.789 3.792-13.111-29.817zM438.135 333.209l9.755 22.224-5.291 3.465-1.745-4.034q.363 5.586-3.422 8.064-2.169 1.42-4.468 1.07c-2.299-.35-2.846-1.185-3.938-2.852q-.67-1.024-1.812-3.625l-5.857-13.326 5.789-3.792 6.034 13.719q.64 1.493.911 1.907 1.148 1.752 2.82.656 1.022-.67 1.457-1.939.434-1.27.182-2.75t-1.496-4.324l-4.689-10.686zM444.821 319.039l4.664 10.618q-.151-4.43 3.01-6.5 2.787-1.826 5.858-.756 3.072 1.07 5.677 5.047 3.314 5.06 3.272 10.49-.041 5.429-4.21 8.158-4.111 2.691-8.26.26.053 2.358.52 4.189l-3.209 2.102q-.444-1.452-1.709-4.114-1.047-2.156-3.328-7.358l-8.075-18.345zm14.772 23.638q2.216-1.452 1.142-5.362-1.076-3.91-3.125-7.041-.98-1.497-2.27-1.946-1.289-.45-2.486.334-2.352 1.542-1.182 5.515 1.173 3.974 3.119 6.947.968 1.476 2.247 1.932t2.555-.379M346.057 447.321l13.112 29.816-5.931 3.884-5.477-12.478-8.682 5.686 5.478 12.478-5.909 3.87-13.111-29.816 5.928-3.883 5.131 11.692 8.683-5.686-5.132-11.692zM386.236 459.412l-6.396 4.188-4.733-5.341-9.022 5.908 1.281 7.601-5.821 3.813-4.796-35.263 7.35-4.813zm-21.166-1.274 6.283-4.115-8.614-9.721zM388.218 458.114l-13.111-29.817 7.914-5.184q4.175-2.732 7.346-2.939 3.17-.204 6.616 1.66 3.444 1.867 5.984 5.746 2.372 3.622 3.11 7.627c.738 4.005.421 5.111-.21 7.325q-.948 3.323-2.841 5.265-1.892 1.943-5.378 4.226zm3.575-9.178 3.23-2.116q4.886-3.2 4.348-7.503-.538-4.304-2.976-8.024-4.655-7.109-10.309-3.406l-2.759 1.806zM419.817 399.017l2.472 5.668-12.637 8.276 2.689 6.116 10.567-6.92 2.378 5.392-10.571 6.924 3.074 6.99 12.863-8.425 2.474 5.667-19.139 12.533-13.11-29.817zM444.542 392.251l-4.675 4.89q-3.138-2.727-6.78-.343-1.694 1.11-2.159 2.566-.466 1.458.28 2.599.747 1.14 1.94 1.201 1.194.06 3.852-.864 3.829-1.327 6.318-1.65 2.489-.324 4.579.656 2.089.978 3.638 3.34 2.485 3.797 1.359 8.176-1.128 4.38-6.287 7.758-4.41 2.888-8.67 2.766-4.258-.124-7.648-3.755l5.234-4.553q3.502 3.417 8.07.425 2.068-1.353 2.592-2.959t-.363-2.961q-.849-1.295-2.066-1.326-1.218-.031-4.813 1.137-3.254 1.086-5.478 1.276a8.03 8.03 0 0 1-4.261-.793q-2.038-.986-3.404-3.071-2.229-3.403-1.351-7.69.878-4.285 5.407-7.252 7.799-5.107 14.686.427"/><path fill="#6ec05d" d="m368.535 520.156 8.796-5.661-9.233 5.555c-10.142-2.395-21.906-3.796-34.454-3.796-38.182 0-69.114 10.408-69.114 24.837 0 9.092 12.284 17.607 30.922 22.663l-45.038 27.095 2.015 4.032 46.856-30.155c10.12 2.38 21.85 3.773 34.359 3.773 38.183 0 69.114-10.407 69.114-24.836 0-9.618-13.747-18.591-34.223-23.507m-102.004 23.413c0-13.378 30.036-25.412 67.113-25.412 11.965 0 23.194 1.006 32.919 2.816l-30.438 18.312a4.5 4.5 0 0 0-2.244-.584c-2.023 0-3.663 1.216-3.663 2.717 0 .429.146.829.384 1.19l-33.855 20.368c-18.205-3.981-30.216-10.948-30.216-19.407m67.113 23.028c-11.955 0-23.176-1.005-32.896-2.813l31.187-20.072a4.6 4.6 0 0 0 1.946.423c2.023 0 3.662-1.216 3.662-2.717 0-.396-.119-.768-.324-1.107l29.889-19.235c20.114 3.829 33.649 11.129 33.649 20.108 0 13.378-30.036 25.413-67.113 25.413"/><path d="M470.799 164.567h-82.946v-10.456H222.512v10.456h-82.945l42.236 38.012-42.238 38.014h126.364v-10.455h78.507v10.455h126.363l-42.236-38.014z"/><path fill="#fff" d="M225.169 156.77h160.026v70.71H225.169z"/><path fill="#fff" d="m185.777 202.579-39.284-35.354h76.019v62.614l31.555 8.096H146.493z"/><path fill="#fff" d="m263.272 237.551-28.899-7.413h28.899zM375.992 230.138l-28.898 7.413v-7.413z"/><path fill="#fff" d="M463.872 237.935H356.3l31.553-8.096v-62.614h76.019l-39.284 35.354z"/><path d="M283.639 213.381q3.722 1.545 3.722 4.946 0 2.708-2.133 4.46c-2.133 1.752-3.472 1.751-6.148 1.751q-3.707 0-5.679-1.612-1.971-1.612-1.971-4.114 0-3.165 3.589-4.475-2.913-1.617-2.913-4.572 0-2.455 1.935-4.189c1.935-1.734 3.091-1.735 5.406-1.735q3.324 0 5.273 1.499c1.949 1.499 1.949 2.264 1.949 3.792q.001 2.926-3.03 4.249m-5.466 2.448q-2.507.736-2.507 2.796 0 1.25.971 1.964.971.713 2.736.713 1.53 0 2.486-.552c.956-.552.956-.911.956-1.628q0-.84-.682-1.532-.681-.693-3.96-1.761m2.38-3.757q2.028-.617 2.027-2.556 0-1.175-.846-1.91t-2.42-.734q-1.28 0-2.001.61a1.96 1.96 0 0 0-.721 1.565q0 .897.706 1.536.707.64 3.255 1.489M303.296 204.15v3.574q-1.368 1.442-2.994 4.48-1.625 3.038-2.162 5.935-.537 2.898-.537 4.605 0 .515.059 1.486h-5.384q.044-2.368.441-4.318t1.53-4.457q1.132-2.508 2.28-4.134a23 23 0 0 1 2.544-3.023h-10.179l.353-4.148zM320.747 220.229l-.338 4.001h-15.063v-3.898q.735-.56 2.427-1.751 4.135-2.942 6.016-4.847 1.884-1.905 1.884-3.494 0-1.161-.751-1.92-.75-.757-2.015-.757-2.943 0-3.412 3.839l-4.148-.927q1.397-6.633 7.752-6.634 3.56 0 5.465 1.868t1.905 4.457q0 2.678-1.994 4.78-1.992 2.104-7.332 5.281h9.604zM323.164 212.064v-4.134q5.207-1.53 6.796-4.089h3.412v16.711h5.561v3.678h-16.271v-3.678h6.091v-11.489q-3.588 2.178-5.589 3.001M260.26 169.172v9.434l6.295-9.434h4.502l-4.823 7.169 6.029 12.911h-5.18l-4.007-8.72-2.817 4.116v4.604h-4.62v-20.08zM278.464 189.251h-4.545v-4.545h4.545zM281.781 169.172h9.356q2.515 0 3.781.617 1.264.618 2.088 1.764t.824 2.792q0 3.337-3.619 4.454 2.09.471 3.133 1.87c1.043 1.399 1.044 1.948 1.044 3.047q0 2.252-1.706 3.894-1.706 1.641-5.546 1.641h-9.356v-20.079zm4.693 3.545v4.399h3.56q1.956 0 2.464-.773.507-.773.507-1.479 0-.765-.419-1.317-.42-.551-.919-.691c-.499-.14-.991-.14-1.971-.14h-3.222zm0 7.973v4.84h3.611q1.85 0 2.613-.647c.763-.647.764-1.035.764-1.81q0-.972-.735-1.677-.733-.706-2.436-.706zM305.236 189.251h-4.545v-4.545h4.545zM323.485 169.172l-6.065 20.08h-5.055l-6.032-20.08h5.008l4.018 14.357 4.185-14.357zM327.95 189.251h-4.545v-4.545h4.545zM331.268 169.172h9.356q2.515 0 3.78.617 1.266.618 2.089 1.764c.823 1.146.824 1.695.824 2.792q0 3.337-3.619 4.454 2.09.471 3.134 1.87 1.043 1.398 1.044 3.047 0 2.252-1.707 3.894-1.704 1.641-5.545 1.641h-9.356zm4.693 3.545v4.399h3.56q1.957 0 2.465-.773t.507-1.479q0-.765-.42-1.317-.417-.551-.919-.691c-.502-.14-.99-.14-1.971-.14h-3.222zm0 7.973v4.84h3.611q1.85 0 2.612-.647.765-.648.765-1.81 0-.972-.735-1.677-.734-.706-2.437-.706zM354.725 189.251h-4.546v-4.545h4.546zM305.182 264.124c-24.981 0-45.232 20.251-45.232 45.233s20.251 45.232 45.232 45.232 45.232-20.251 45.233-45.232c-.002-24.982-20.253-45.233-45.233-45.233"/><g fill="#fff"><path d="m341.584 334.976-14.209.922-3.593-9.876 8.417-16.571 12.365-3.463 4.884 8.122a44.23 44.23 0 0 1-7.864 20.866M315.798 346.402l-16.729-1.466-4.663-13.393 11.362-9.085 17.362 3.844 3.589 9.868zM331.219 277.457l8.69 4.051a44.5 44.5 0 0 1 5.783 9.384l-1.294 14.407-12.356 3.459-12.877-11.198-.706-15.059zM317.75 282.481l.702 15.035-15.314 7.896-13.289-5.923-.203-14.976 13.055-10.137zM289.175 283.981l-14.95-.784.17-5.988c6.736-6.453 15.492-10.805 25.228-12.018l2.632 8.635zM289.556 300.135l13.273 5.915 2.47 15.876-11.371 9.091-14.092-5.508-3.005-14.714zM338.836 280.225l-7.367-3.434-4.022-5.985a44.7 44.7 0 0 1 9.218 7.067 45 45 0 0 1 2.171 2.352M273.667 277.906l-.158 5.554-6.688 16.35-5.858 4.409c1.176-10.226 5.805-19.397 12.704-26.313M260.86 305.183l6.203-4.667 9.051 10.306 3.033 14.862-5.873 7.939-7.751-4.037a44.3 44.3 0 0 1-4.663-24.403M266.09 330.681l7.007 3.648 3.525 9.178a45 45 0 0 1-2.923-2.668 44.7 44.7 0 0 1-7.609-10.158M293.678 352.371l5.293-6.732 16.777 1.472 3.709 4.417a44.568 44.568 0 0 1-25.779.843"/></g></svg>