<svg xmlns="http://www.w3.org/2000/svg" viewBox="0 0 612 792"><path d="M282.009 158.288a1.41 1.41 0 0 0-1.286 1.405c0 .069.005.138 3.028 33.876a249 249 0 0 0-23.992 3.445c-.503-2.495-6.68-33.225-6.68-33.225a1.41 1.41 0 0 0-1.651-1.104l-.392.074a282 282 0 0 0-52.497 16.027 1.41 1.41 0 0 0-.761 1.846l13.003 31.302a248 248 0 0 0-22.421 10.835l-16.404-29.647a1.42 1.42 0 0 0-.848-.678 1.41 1.41 0 0 0-1.077.116 285 285 0 0 0-42.577 28.95 1.41 1.41 0 0 0-.192 1.986l52.694 64.206a1.41 1.41 0 0 0 1.985.19c35.196-28.919 79.713-44.849 125.352-44.849 45.636 0 90.153 15.929 125.352 44.849a1.41 1.41 0 0 0 1.987-.195l52.692-64.197a1.415 1.415 0 0 0-.196-1.986 284.3 284.3 0 0 0-42.578-28.956 1.43 1.43 0 0 0-1.075-.116 1.43 1.43 0 0 0-.845.681s-15.168 27.411-16.405 29.644a249 249 0 0 0-22.42-10.835l13-31.297q.108-.265.107-.54c0-.556-.328-1.088-.87-1.313a282.2 282.2 0 0 0-52.877-16.099 1.41 1.41 0 0 0-1.658 1.11s-6.179 30.722-6.679 33.222a249 249 0 0 0-23.994-3.445c.226-2.542 3.022-33.743 3.022-33.743a1.416 1.416 0 0 0-.322-1.029 1.42 1.42 0 0 0-.96-.501 287 287 0 0 0-25.284-1.118 287 287 0 0 0-25.281 1.109"/><path fill="#fff200" d="m287.606 228.626-.975-9.82a221 221 0 0 1 20.662-.991c6.919 0 13.81.353 20.663.991l-.978 9.822a211 211 0 0 0-19.685-.941 211 211 0 0 0-19.687.939m62.733-18.039a233.5 233.5 0 0 0-41.636-4.023v8.461a225.3 225.3 0 0 1 40.032 3.866zm11.767 14.132a224 224 0 0 0-31.346-5.607l-.978 9.818a213.5 213.5 0 0 1 29.836 5.338zm-75.547-31.404q3.454-.271 6.933-.46l-.493-9.857q-3.672.197-7.319.482c.377 4.233.708 7.926.879 9.835m-1.132-12.645a268 268 0 0 1 20.456-.898v-7.05c-7.038.035-14.11.35-21.085.925zm10.387 2.143.493 9.861c3.662-.16 7.333-.242 10.986-.242 3.659 0 7.326.082 10.99.242l.49-9.861c-3.826-.168-7.663-.253-11.48-.253s-7.653.085-11.479.253m92.67 38.315a235 235 0 0 0-35.376-9.999l-1.603 8.307a227 227 0 0 1 33.996 9.607zm-103.252-16.353c7.314-.686 14.672-1.063 22.061-1.063 7.387 0 14.746.377 22.061 1.065l.843-8.461c-.338-.03-.677-.072-1.013-.102a249.3 249.3 0 0 0-43.782 0c-.337.03-.674.072-1.011.105zm139.179 46.323c-9.692-5.982-19.826-11.177-30.281-15.598l-3.79 9.111c9.953 4.211 19.602 9.158 28.829 14.852zm-33.293-28.965-2.983 7.915c9.995 3.835 19.726 8.352 29.097 13.574l4.169-7.365c-9.751-5.437-19.879-10.136-30.283-14.124m10.086-11.29c.732-1.765 2.156-5.189 3.787-9.116a259 259 0 0 0-19.243-6.961l-2.952 9.423a250 250 0 0 1 18.408 6.654m8.66-20.853c1.896-4.566 3.43-8.254 3.771-9.078-2.123-.871-4.286-1.645-6.434-2.462l-3.423 9.125c2.042.78 4.066 1.589 6.086 2.415m-1.078 2.601a267 267 0 0 0-24.317-8.596l-1.994 6.767a260 260 0 0 1 23.603 8.342c.898-2.159 1.824-4.384 2.708-6.513m-4.214-15.149a279 279 0 0 0-32.162-9.712l-2.217 9.502a270 270 0 0 1 30.946 9.359zm-36.177 34.322a238 238 0 0 1 28.559 9.598l3.274-7.869c-9.653-3.955-19.593-7.263-29.691-9.951zm71.707-3.84q-.924-.53-1.843-1.077a3751 3751 0 0 1-3.417 6.174q.862.514 1.729 1.011zm-208.311-3.735-2.952-9.425a260 260 0 0 0-19.263 6.968c1.965 4.779 3.08 7.553 3.675 9.167a249 249 0 0 1 18.54-6.71M230.118 184a267 267 0 0 0-24.32 8.594 3416 3416 0 0 1 2.698 6.517 260 260 0 0 1 23.618-8.346zm169.427 38.48a238 238 0 0 1 30.599 15.622l4.459-7.251c-2.808-1.708-5.634-3.383-8.502-4.972a245 245 0 0 0-23.265-11.315zm61.343-16.62c-5.401-3.539-10.884-6.943-16.498-10.091-.429.777-2.371 4.283-4.764 8.61a274 274 0 0 1 15.844 9.672zm-214.7 5.898-2.142-8.214c-10.098 2.689-20.036 5.997-29.688 9.949l3.27 7.864a238 238 0 0 1 28.56-9.599m81.84-18.446.879-9.832c-2.431-.19-4.874-.35-7.319-.482l-.494 9.857q3.477.19 6.934.457m120.438 31.328a260 260 0 0 0-14.988-9.149c-2.055 3.712-3.853 6.963-4.781 8.637a254 254 0 0 1 14.324 8.742zm15.687 7.524 4.271-5.613c-8.285-6.244-16.957-11.967-25.89-17.204l-3.528 6.109c8.673 5.086 17.097 10.646 25.147 16.708m-158.27-25.6a233.5 233.5 0 0 0-41.637 4.021l1.603 8.304a225 225 0 0 1 40.034-3.864zm23.904-32.917a273 273 0 0 0-21.084-.925v7.05c6.823.036 13.683.342 20.457.898.209-2.328.423-4.727.627-7.023m-44.984 55.283-.977-9.818a223 223 0 0 0-31.347 5.607l2.49 9.55a213.5 213.5 0 0 1 29.834-5.339m-87.444 14.695a226 226 0 0 1 29.093-13.577l-2.985-7.915a234.4 234.4 0 0 0-30.279 14.13zm64.12-32.496a235 235 0 0 0-35.379 9.993l2.983 7.917a226.5 226.5 0 0 1 34-9.602zm-66.058 48.336a213 213 0 0 1 28.822-14.857l-3.789-9.111a223 223 0 0 0-30.275 15.605zm56.814-24.508-2.49-9.552a223 223 0 0 0-26.703 8.97l3.789 9.115a214 214 0 0 1 25.404-8.533m139.306-.575a223 223 0 0 0-26.703-8.972l-2.49 9.55a214 214 0 0 1 25.402 8.532zm-213.956-2.047a247 247 0 0 0-24.863 17.738l5.371 6.544a236 236 0 0 1 23.928-17.069zm13.142 5.307a233 233 0 0 0-30.838 21.161l5.368 6.542a224.6 224.6 0 0 1 29.64-20.34zm-12.711-23.609q.867-.501 1.728-1.011l-3.416-6.172q-.916.546-1.84 1.077zm9.773 38.568a221 221 0 0 0-20.748 14.917l6.262 7.626a212 212 0 0 1 19.727-14.183zm-43.847-24.312a348 348 0 0 0-5.528 4.352l4.474 5.451a338 338 0 0 1 5.324-4.192zm163.351 7.859c-46.772 0-92.359 16.178-128.617 45.547l2.604 3.169c35.524-28.768 80.196-44.642 126.012-44.642s90.487 15.876 126.011 44.645l2.611-3.179c-36.25-29.366-81.861-45.54-128.621-45.54m-132.332-31.769-4.764-8.61c-5.615 3.151-11.098 6.555-16.497 10.094l5.417 8.189c5.183-3.396 10.46-6.641 15.844-9.673m194.697-37.282c-1.892-.429-3.775-.912-5.676-1.303-.177.879-.961 4.79-1.937 9.63 1.806.369 3.606.746 5.402 1.154zm-205.906 59.076a261 261 0 0 0-19.069 14.102l6.258 7.627a250 250 0 0 1 18.256-13.496zm281.638 8.23a252 252 0 0 1 18.258 13.497c2.157-2.628 4.266-5.201 6.26-7.629a260 260 0 0 0-19.073-14.1zm20.979-.498a318 318 0 0 1 5.332 4.181l4.476-5.453a339 339 0 0 0-5.535-4.344zm-291.27 43.429c.641.782 1.229 1.499 1.789 2.179 36.762-29.783 82.984-46.187 130.406-46.187 47.413 0 93.656 16.404 130.409 46.184.561-.684 1.15-1.399 1.791-2.182-37.253-30.192-84.137-46.822-132.2-46.822-48.076 0-94.933 16.634-132.195 46.828m288.155-69.936-5.414 8.185a275 275 0 0 1 20.123 14.874c3.509-4.275 5.879-7.165 6.25-7.613-6.731-5.473-13.745-10.613-20.959-15.446m-41.7 53.571a211 211 0 0 1 19.731 14.173l6.263-7.629a222 222 0 0 0-20.752-14.908zm-1.866-15.959a224.3 224.3 0 0 1 29.644 20.329c1.738-2.115 3.539-4.311 5.371-6.542a232.7 232.7 0 0 0-30.845-21.15zm12.881-5.467a236 236 0 0 1 23.927 17.068c1.787-2.179 3.588-4.371 5.371-6.542A247 247 0 0 0 437 232.331zM151.335 207.4c-7.215 4.834-14.229 9.974-20.957 15.447l6.251 7.619a273 273 0 0 1 20.121-14.876zm179.582-46.363c-1.898-.16-3.815-.245-5.724-.372l-.578 9.813c1.813.113 3.621.226 5.426.358.44-4.926.795-8.908.876-9.799m-23.624 8.831c4.829 0 9.673.171 14.507.427l.579-9.812c-5.026-.283-10.065-.487-15.085-.487-5.03 0-10.066.204-15.085.491l.578 9.808c4.832-.257 9.676-.427 14.506-.427m-17.32.611-.578-9.81c-1.909.126-3.83.215-5.726.374l.877 9.794c1.803-.132 3.615-.245 5.427-.358m77.851 32.308a246 246 0 0 0-12.154-2.771c-7.456-1.49-15.064-2.619-22.668-3.413l-.846 8.48a237 237 0 0 1 33.505 5.991zm13.929-19.547c-6.696-1.934-13.453-3.633-20.263-5.041l-1.391 6.917a265 265 0 0 1 19.657 4.889zm1.316 10.637a258 258 0 0 0-23.524-6.013c-.841 4.175-1.573 7.819-1.95 9.698a248 248 0 0 1 22.522 5.737zm-134.144 17.198a237 237 0 0 1 33.504-5.994l-.844-8.475c-7.605.792-15.211 1.922-22.663 3.413a242 242 0 0 0-12.158 2.768zm-14.458-7.773a246 246 0 0 1 22.524-5.738c-.377-1.879-1.108-5.517-1.948-9.69a257 257 0 0 0-23.529 5.999zm-23.638-15.666-3.446-9.183c-2.146.82-4.309 1.594-6.432 2.464 1.398 3.369 2.648 6.379 3.768 9.073 2.026-.809 4.07-1.575 6.11-2.354m-26.386 50.47a237 237 0 0 1 30.598-15.631l-3.291-7.911a245 245 0 0 0-23.274 11.323c-2.865 1.586-5.688 3.258-8.493 4.963zm-12.879-5.234a252 252 0 0 1 14.325-8.741c-.925-1.675-2.725-4.928-4.781-8.643-5.092 2.87-10.084 5.938-14.991 9.152zm-25.405-6.329 4.271 5.613c8.048-6.065 16.48-11.614 25.151-16.699l-3.527-6.106c-8.931 5.235-17.611 10.951-25.895 17.192m88.67-36.536c6.496-1.876 13.05-3.534 19.658-4.897-.46-2.294-.936-4.655-1.39-6.916-6.812 1.405-13.568 3.112-20.262 5.048zm17.711-14.578c-.975-4.858-1.766-8.786-1.94-9.654-1.901.389-3.785.873-5.678 1.305l2.234 9.571c1.796-.407 3.586-.834 5.384-1.222m-8.135 1.847-2.231-9.565a279 279 0 0 0-32.157 9.733l3.444 9.171a270 270 0 0 1 30.944-9.339"/><path d="M307.293 617.131s143.817-59.46 143.817-228.684V283.595H163.475v104.853c0 169.223 143.818 228.683 143.818 228.683"/><path fill="#1f4ea2" d="M448.29 385.677v-99.262H166.296v99.262z"/><path fill="#ee312f" d="M166.296 388.498c.026 157.92 128.352 219.842 140.997 225.548 12.647-5.706 140.97-67.628 140.997-225.548z"/><path d="m223.005 111.948 1.414-.964c6.713-4.575 10.028-9.532 10.028-15.049q-.001-2.298-.766-4.732c-1.576-5.01-4.966-8.318-10.362-10.114-5.489-1.823-13.208-1.198-22.943 1.861 0 0-32.363 10.174-34.857 10.96l18.878 60.046c2.013-.631 10.341-3.251 12.353-3.883l-8.105-25.783 23.333-7.335 21.072 21.707c1.269-.399 9.743-3.063 12.839-4.038-2.866-2.837-22.884-22.676-22.884-22.676m-4.34-7.156c-2.31 2.79-6.224 5.021-11.963 6.827l-20.058 6.305-6.784-21.58 21.28-6.69c4.934-1.55 9.156-1.853 12.552-.903 3.616 1.011 5.964 3.162 6.98 6.39 1.092 3.474.417 6.72-2.007 9.651M290.207 67.075c2.608.041 49.873.81 52.481.851-.028 1.754-.091 5.594-.118 7.351-2.619-.044-39.089-.634-39.089-.634l-.339 20.798 30.76.498c-.027 1.728-.088 5.332-.115 7.063-2.567-.044-30.757-.499-30.757-.499l-.45 27.763c-2.128-.036-11.265-.184-13.393-.218zM406.012 147.473c-7.306-2.407-12.835-5.76-16.431-9.965-3.594-4.206-5.87-9.114-6.768-14.586-.895-5.509-.402-11.177 1.466-16.854 3.001-9.109 8.371-15.653 15.958-19.449 7.591-3.798 16.562-4.038 26.658-.713 7.928 2.611 13.987 6.652 18.014 12.011 3.267 4.352 4.913 9.395 4.913 15.033 0 .702-.082 1.433-.132 2.154l-11.505-2.807c.002-.226.02-.457.02-.681 0-9.894-4.464-16.377-13.29-19.283-6.004-1.978-11.46-1.391-16.217 1.744-4.651 3.068-8.299 8.538-10.838 16.258-2.592 7.86-2.8 14.515-.62 19.776 2.214 5.332 6.31 9.012 12.171 10.943 4.688 1.542 9.213 1.465 13.45-.231 3.775-1.512 6.425-4.008 8.232-7.155l10.984 4.649c-2.837 4.911-7.089 8.334-13.107 10.279-6.553 2.113-14.277 1.736-22.958-1.123M168.531 638.812v7.354h-17.496v55.62h-9.905v-55.62h-17.496v-7.354zM217.723 646.92c-4.725-6.135-10.991-9.116-19.15-9.116-8.107 0-14.449 2.986-19.385 9.138-4.943 6.154-7.449 13.942-7.449 23.143 0 9.287 2.364 17.175 7.023 23.455 4.63 6.23 10.937 9.26 19.282 9.26 8.146 0 14.499-2.896 19.42-8.863 4.92-5.961 7.415-13.937 7.415-23.708-.001-9.305-2.408-17.149-7.156-23.309m-7.658 43.353c-3.222 3.85-7.236 5.8-11.926 5.8-5.314 0-9.455-2.286-12.304-6.797-2.718-4.308-4.098-10.637-4.098-18.807 0-17.214 5.6-25.944 16.642-25.944 5.66 0 9.899 2.407 12.601 7.149 2.553 4.485 3.848 10.698 3.848 18.46.001 9.712-1.557 16.3-4.763 20.139M279.106 638.812v40.864c0 5.509-.613 9.766-1.819 12.664-1.163 2.788-3.478 5.25-6.878 7.315-3.441 2.088-7.728 3.145-12.738 3.145-5.099 0-9.32-.909-12.545-2.709-3.168-1.768-5.471-4.22-6.848-7.277-1.42-3.163-2.141-7.288-2.141-12.268v-41.734h9.278v40.864c0 6.318 1.376 10.417 4.205 12.532 2.665 1.995 5.795 3.002 9.304 3.002 4.031 0 7.327-1.096 9.798-3.266 2.561-2.247 3.806-6.257 3.806-12.267v-40.864zM331.324 672.827c7.384-2.974 10.974-8.257 10.974-16.146 0-5.332-1.688-9.546-5.16-12.884-3.437-3.306-8.995-4.986-16.52-4.986h-27.123v62.975h9.037v-27.042h19.061s9.574 25.339 10.219 27.042h9.48l-11.27-28.435zm-12.634-4.753h-16.158V645.44h17.122c4.027 0 7.241 1.018 9.552 3.024 2.371 2.054 3.573 4.771 3.573 8.076 0 3.564-1.218 6.423-3.623 8.493-2.343 2.016-5.866 3.041-10.466 3.041M401.826 638.812v62.975h-9.308l-24.557-41.335c-.003-.012-1.884-3.146-1.884-3.146-.003 0-4.398-7.486-4.398-7.486l-.003 51.968h-6.724v-62.975h10.899c.79 1.333 23.61 39.723 23.61 39.723l5.836 9.86v-49.583zM444.253 638.812h-12.571c-.606 1.825-19.756 59.527-20.903 62.975h7.15l5.156-15.667h27.342l5.252 15.667h9.704zm-19.149 40.637 11.535-35.304 11.535 35.304zM483.722 638.812v62.975h-9.037v-62.975zM246.454 322.871a11.3 11.3 0 0 0-7.279-2.648c-3.053 0-5.626.935-7.73 2.675.041-.496.097-.99.1-1.485.026-6.246-3.08-12.54-9.235-18.701l-1.098-1.099-1.097 1.099c-6.154 6.161-9.261 12.452-9.235 18.701.002.496.057.989.099 1.485-2.104-1.741-4.676-2.675-7.73-2.675-2.668 0-5.253.94-7.277 2.648-1.826 1.542-2.963 3.548-2.963 5.235 0 3.275 2.578 6.401 2.873 6.748l1.244 1.463 1.173-1.529c.027-.036 2.798-3.583 7.085-3.583 2.579 0 5.779 3.837 7.675 6.93h-5.251v5.754h6.158l-.361.83c-.793 1.82-2.62 4.514-4.023 4.514-1.415 0-2.635-1.065-2.646-1.077l-2.583-2.283-.007 3.441c0 7.381 4.587 8.178 6.56 8.178.905 0 2.271-.279 3.438-1.601.678 7.704 5.946 10.455 6.189 10.573l.679.331.679-.331c.242-.118 5.508-2.867 6.188-10.568.028.033.047.08.076.11.901.973 2.065 1.485 3.365 1.485 1.972 0 6.558-.799 6.558-8.178v-3.449l-2.589 2.291c-.011.012-1.23 1.077-2.645 1.077-1.403 0-3.231-2.693-4.025-4.514v-.83h5.799v-5.754h-5.253c1.896-3.093 5.097-6.93 7.675-6.93 4.287 0 7.058 3.548 7.085 3.583l1.169 1.526 1.248-1.46c.294-.347 2.872-3.473 2.872-6.748.001-1.686-1.135-3.691-2.96-5.234m-20.629 22.74-.001-.003h.001z"/><path fill="#fff200" d="M220.436 337.893c-10.715-11.076-10.543-22.181 0-33.255zm1.551-33.255v33.255c10.716-11.076 10.544-22.181 0-33.255m-6.811 34.071s.735-16.934-11.928-16.934c-5.154 0-8.688 3.975-8.688 6.332 0 2.798 2.502 5.743 2.502 5.743s3.166-4.197 8.32-4.197c5.008-.001 9.794 9.056 9.794 9.056m21.865-9.057c5.154 0 8.32 4.197 8.32 4.197s2.503-2.945 2.503-5.743c0-2.357-3.534-6.332-8.689-6.332-12.663 0-11.927 16.934-11.927 16.934s4.787-9.056 9.793-9.056m-3.975 10.034h-23.707v2.653h23.707zm-9.646 5.208h-1.433v19.682c1.499-1.068 4.673-4.06 4.673-10.26 0-5.888-3.24-9.422-3.24-9.422m-2.984 0h-1.432s-3.241 3.534-3.241 9.422c0 6.2 3.174 9.191 4.673 10.26zm-9.53 11.042c4.939 0 4.122-10.601 4.122-10.601s-2.355 5.448-5.446 5.448c-2.062 0-3.683-1.471-3.683-1.471-.001 3.829 1.324 6.624 5.007 6.624m25.62-6.623s-1.621 1.471-3.682 1.471c-3.092 0-5.447-5.448-5.447-5.448s-.818 10.601 4.122 10.601c3.682-.001 5.007-2.796 5.007-6.624"/><path d="M332.534 322.871a11.3 11.3 0 0 0-7.279-2.648c-3.052 0-5.625.935-7.729 2.675.041-.496.096-.99.099-1.485.027-6.246-3.079-12.54-9.235-18.701l-1.096-1.099-1.099 1.099c-6.153 6.161-9.26 12.452-9.235 18.701.002.496.058.989.099 1.485-2.104-1.741-4.676-2.675-7.729-2.675-2.669 0-5.255.94-7.279 2.648-1.826 1.542-2.961 3.548-2.961 5.235 0 3.275 2.578 6.401 2.872 6.748l1.243 1.463 1.173-1.529c.027-.036 2.798-3.583 7.087-3.583 2.579 0 5.779 3.837 7.674 6.93h-5.25v5.754h6.158l-.361.83c-.793 1.82-2.621 4.514-4.024 4.514-1.415 0-2.635-1.065-2.646-1.077l-2.581-2.283-.009 3.441c0 7.381 4.589 8.178 6.561 8.178.904 0 2.27-.279 3.437-1.601.678 7.704 5.946 10.455 6.189 10.573l.68.331.678-.331c.242-.118 5.508-2.867 6.188-10.568.028.033.046.08.078.11.898.973 2.063 1.485 3.362 1.485 1.973 0 6.558-.799 6.558-8.178v-3.449l-2.588 2.291c-.012.012-1.232 1.077-2.645 1.077-1.404 0-3.233-2.693-4.027-4.514v-.83h5.801v-5.754h-5.253c1.898-3.093 5.099-6.93 7.678-6.93 4.286 0 7.056 3.548 7.083 3.583l1.167 1.526 1.251-1.46c.292-.347 2.87-3.473 2.87-6.748.001-1.686-1.134-3.691-2.96-5.234m-20.627 22.74q-.004 0-.003-.003h.003z"/><path fill="#fff200" d="M306.516 337.893c-10.714-11.076-10.543-22.181 0-33.255zm1.551-33.255v33.255c10.715-11.076 10.544-22.181 0-33.255m-6.811 34.071s.735-16.934-11.926-16.934c-5.156 0-8.689 3.975-8.689 6.332 0 2.798 2.503 5.743 2.503 5.743s3.165-4.197 8.32-4.197c5.005-.001 9.792 9.056 9.792 9.056m21.867-9.057c5.152 0 8.317 4.197 8.317 4.197s2.504-2.945 2.504-5.743c0-2.357-3.534-6.332-8.689-6.332-12.663 0-11.928 16.934-11.928 16.934s4.787-9.056 9.796-9.056m-3.978 10.034h-23.707v2.653h23.707zm-9.646 5.208h-1.432v19.682c1.498-1.068 4.671-4.06 4.671-10.26.001-5.888-3.239-9.422-3.239-9.422m-2.983 0h-1.432s-3.239 3.534-3.239 9.422c0 6.2 3.172 9.191 4.671 10.26zm-9.529 11.042c4.938 0 4.12-10.601 4.12-10.601s-2.355 5.448-5.446 5.448c-2.063 0-3.682-1.471-3.682-1.471 0 3.829 1.325 6.624 5.008 6.624m25.617-6.623s-1.62 1.471-3.681 1.471c-3.093 0-5.447-5.448-5.447-5.448s-.819 10.601 4.12 10.601c3.686-.001 5.008-2.796 5.008-6.624"/><path d="M365.169 328.106c0 3.275 2.578 6.401 2.873 6.748l1.249 1.46 1.17-1.526c.027-.036 2.797-3.583 7.083-3.583 2.578 0 5.778 3.837 7.676 6.93h-5.252v5.754h5.797v.83c-.792 1.82-2.618 4.514-4.023 4.514-1.413 0-2.633-1.065-2.643-1.077l-2.59-2.291v3.449c0 7.379 4.586 8.178 6.558 8.178 1.301 0 2.462-.513 3.363-1.485.03-.03.05-.077.076-.11.681 7.701 5.947 10.45 6.19 10.568l.678.331.68-.331c.242-.118 5.511-2.869 6.189-10.573 1.168 1.321 2.533 1.601 3.437 1.601 1.972 0 6.561-.796 6.561-8.178l-.009-3.441-2.581 2.283c-.011.012-1.23 1.077-2.647 1.077-1.402 0-3.23-2.693-4.023-4.514l-.36-.83h6.158v-5.754h-5.249c1.895-3.093 5.095-6.93 7.673-6.93 4.289 0 7.059 3.548 7.086 3.583l1.173 1.529 1.242-1.463c.295-.347 2.873-3.473 2.873-6.748 0-1.688-1.135-3.693-2.961-5.235a11.3 11.3 0 0 0-7.28-2.648c-3.052 0-5.623.935-7.728 2.675.043-.496.096-.99.099-1.485.025-6.249-3.082-12.54-9.234-18.701l-1.099-1.099-1.097 1.099c-6.156 6.161-9.263 12.455-9.234 18.701.002.496.057.989.099 1.485-2.105-1.741-4.676-2.675-7.731-2.675-2.669 0-5.253.94-7.276 2.648-1.828 1.542-2.966 3.547-2.966 5.234m23.591 17.501h.002q0 .004-.002.003z"/><path fill="#fff200" d="M394.149 304.638c10.544 11.075 10.714 22.18 0 33.255zm-1.549 33.255v-33.255c-10.544 11.074-10.718 22.179 0 33.255m16.602-8.241c5.157 0 8.321 4.197 8.321 4.197s2.503-2.945 2.503-5.743c0-2.357-3.533-6.332-8.69-6.332-12.661 0-11.925 16.934-11.925 16.934s4.786-9.056 9.791-9.056m-21.864 9.057s.735-16.934-11.929-16.934c-5.154 0-8.686 3.975-8.686 6.332 0 2.798 2.5 5.743 2.5 5.743s3.167-4.197 8.321-4.197c5.007-.001 9.794 9.056 9.794 9.056m-5.82 3.629h23.709v-2.653h-23.709zm6.407 11.978c0 6.2 3.177 9.191 4.675 10.26v-19.682h-1.433s-3.242 3.534-3.242 9.422m6.224 10.26c1.498-1.068 4.672-4.06 4.672-10.26 0-5.888-3.239-9.422-3.239-9.422h-1.433zm14.537-15.263s-1.62 1.471-3.683 1.471c-3.091 0-5.445-5.448-5.445-5.448s-.817 10.601 4.121 10.601c3.683-.001 5.007-2.796 5.007-6.624m-25.62 6.623c4.941 0 4.124-10.601 4.124-10.601s-2.354 5.448-5.448 5.448c-2.06 0-3.683-1.471-3.683-1.471 0 3.829 1.324 6.624 5.007 6.624"/><path d="M352.177 450.155c1.234-.545 4.853-2.407 5.699-6.076l5.244-31.762-.678-.232c-.074-.027-7.478-2.533-18.445-4.88l-.896-.193-2.281 17.138c-2.154-.32-8.303-1.14-14.222-1.218v-18.674l-.744-.088c-6.415-.771-12.659-1.162-18.561-1.162-5.882 0-12.128.391-18.563 1.157l-.745.087.001 18.68c-5.919.078-12.068.898-14.222 1.218-.204-1.543-2.281-17.138-2.281-17.138l-.895.193c-10.968 2.347-18.372 4.853-18.444 4.88l-.679.232 5.235 31.713c.855 3.712 4.474 5.58 5.71 6.125v41.033l-10.237 15.056v34.312l.231.243c.649.688 16.073 16.824 30.717 16.824 5.265 0 8.153-5.344 8.273-5.57l.099-.187v-26.271h3.097v5.079h6.206v-5.079h3.395v5.079h6.204v-5.079h3.396v5.079h6.202v-5.079h3.099v26.271l.1.187c.118.227 3.007 5.57 8.273 5.57 14.644 0 30.066-16.135 30.716-16.824l.23-.243v-34.312l-10.234-15.056zm-57.587 69.237h-3.097v-1.449c0-1.173.175-2.335.475-3.465l.569-.033h2.052zm9.601 0h-3.395v-4.947h3.395zm0-11.15h-3.395v-1.9h3.395zm9.6 11.15h-3.396v-4.947h3.396zm0-11.15h-3.396v-1.9h3.396zm6.202 11.15v-4.947h2.614a13.5 13.5 0 0 1 .485 3.499v1.449z"/><g fill="#fff"><path d="M264.1 450.276c.438-.105 1.133-.265 2.027-.462v9.49c-.677.084-1.35.144-2.027.232zm0 30.92v9.408h7.603v-9.408zm3.719-22.083q5.707-.677 11.383-1.164v-10.637c-4.652.76-8.617 1.542-11.383 2.131zm30.349-2.255a325 325 0 0 1 18.25 0v-11.76c-3.03-.206-6.093-.331-9.125-.331s-6.096.125-9.125.331zm-17.275.954c5.206-.419 10.4-.754 15.584-.925v-11.679c-5.524.425-10.858 1.108-15.584 1.84zm25.554.6a330 330 0 0 0-33.053 1.764v9.661q4.903-.398 9.787-.689v-3.096c0-1.712.666-3.321 1.878-4.532a6.36 6.36 0 0 1 4.535-1.878 6.42 6.42 0 0 1 6.415 6.411v2.518c3.482-.093 6.96-.138 10.439-.143v-10.016zm-9.97 11.843c-.156.006-.313 0-.468.006v8.158h-12.828v-7.58c-1.816.11-3.641.254-5.46.38v8.286h18.756zm11.662-29.234c5.64.056 11.365.635 16.74 1.46v-8.577a195 195 0 0 0-16.74-.787zm30.419 30.319v8.165h8.21v-7.459a424 424 0 0 0-8.21-.706m-22.14-1.108a402 402 0 0 0-18.25 0v9.272h18.25zm20.448.987c-1.82-.125-3.64-.27-5.459-.38v7.58H318.58v-8.158c-.158-.006-.313 0-.47-.006v9.25h18.756zm-72.766-.522c2.543-.271 5.074-.491 7.603-.705v-9.623c-2.531.275-5.061.538-7.603.869zm15.102 10.499h-5.808v9.408h5.808zm71.284-8.803c-.678-.072-1.35-.122-2.027-.188v7.299h2.027zm0-11.155c-2.541-.331-5.073-.594-7.604-.869v9.623c2.531.214 5.063.434 7.604.705zm-15.103-3.289q5.679.486 11.384 1.164v-9.669a246 246 0 0 0-11.384-2.131zm15.103-7.673c-.438-.105-1.132-.265-2.027-.462v9.49c.677.084 1.349.144 2.027.232zm-85.386 42.02h-1.397l-4.41 6.489h5.807zm24.607-49.815c5.376-.826 11.102-1.405 16.74-1.46v-7.903q-8.373.034-16.74.787zM264.1 479.505h2.027v-7.299c-.677.066-1.35.115-2.027.188zm62.47-45.446v8.692c3.686.61 7.162 1.316 10.296 2.039v-9.442a197 197 0 0 0-10.296-1.289m-18.431 24.353v10.015c3.479.006 6.961.05 10.441.143v-2.518c0-1.712.668-3.321 1.878-4.532a6.36 6.36 0 0 1 4.534-1.878c3.536 0 6.414 2.875 6.414 6.411v3.096q4.884.291 9.784.689v-9.661a330 330 0 0 0-33.051-1.765m9.97-13.204v11.679c5.184.171 10.378.506 15.583.925v-10.764c-4.726-.733-10.058-1.415-15.583-1.84m-42.08 26.132c-2.729.204-5.468.446-8.21.706v7.459h8.21zm-15.819 56.47v7.584c4.08 1.443 8.179 2.732 12.301 3.79v-8.896c-4.106-.694-8.206-1.537-12.301-2.478m75.173-7.443v9.221a215 215 0 0 0 12.411-2.103v-8.214c-4.134.43-8.267.804-12.411 1.096m.469-19.89 2 7.023h10.04l-3.361-7.023zm-69.06 18.794v8.214c4.133.82 8.27 1.535 12.411 2.103v-9.221a374 374 0 0 1-12.411-1.096m12.41 36.229v-13.06c-4.154-.849-8.29-1.918-12.411-3.145v10.961c3.804 2.375 8.093 4.412 12.411 5.244m-9.147-55.023-3.359 7.023h10.035l2-7.023zm77.739 49.78v-10.961c-4.119 1.227-8.257 2.296-12.411 3.145v13.06c4.319-.833 8.608-2.876 12.411-5.244m-5.719-41.067v8.951c4.103-.362 8.204-.81 12.299-1.305v-7.646zm0 21.098v8.896c4.119-1.058 8.217-2.347 12.299-3.79v-7.584a215 215 0 0 1-12.299 2.478m-17.292 12.245c5.22-.672 10.419-1.696 15.601-2.962v-9.029c-5.194.837-10.394 1.509-15.601 1.955zm0-21.533v9.794q4.457-.38 8.91-.957v-9.338c-2.969.199-5.939.37-8.91.501m8.909-39.804h-7.123v9.408h7.123zm-45.676 0h-7.122v9.408h7.122zm18.431 0h-16.74v9.408h16.74zm-39.655 11.1v6.489h7.565v-6.489zm-8.433-48.597c.679 2.942 3.998 4.594 4.936 5.013 1.112-.363 5.957-1.918 12.734-3.537v-9.585a208 208 0 0 0-18.382 3.794zm49.78-20.266c5.591.022 11.182.253 16.768.721v-6.885a196 196 0 0 0-16.768-.771zm16.74 57.763h-16.74v9.408h16.74zm10.504-54.171v6.401q6.215.881 12.411 2.154v-6.495a208 208 0 0 0-12.411-2.06m-57.662 17.759a174 174 0 0 1 10.295-2.032v-8.692c-3.434.335-6.866.771-10.295 1.283zm72.765 36.412h-7.604v9.408h7.604zm-9.296 0h-5.807v9.408h5.807zm-7.092 19.281h-26.413c5.203.131 10.091 2.935 13.304 7.023h15.109zm-53.205-75.376c.61-.076 1.219-.176 1.829-.247q-.94.073-1.829.154zm-16.453-5.64c2.268-.492 4.538-.964 6.809-1.383l-1.202-9.023c-2.015.442-3.882.882-5.607 1.311zm-4.23 9.287a217 217 0 0 1 18.992-3.42v-.154c-3.47.363-5.981.766-6.026.776l-.859.138s-.389-2.909-.843-6.329c-3.761.689-7.514 1.52-11.264 2.424zm2.539-8.929v-9.023c-4.722 1.212-8.073 2.248-9.38 2.665l1.374 8.324a199 199 0 0 1 8.006-1.966m2.351 118.975c-3.762-1.168-7.512-2.441-11.236-3.934v5.013c.677.694 5.174 5.217 11.236 9.287zm15.793 16.988c.746.088 1.489.148 2.228.148 4.016 0 6.412-4.037 6.68-4.512v-7.182a142 142 0 0 1-8.909-1.422zm52.799-130.773q-.888-.082-1.824-.154c.609.07 1.216.171 1.824.243zm-15.583-9.889c2.267.122 4.533.253 6.798.452.003-5.862.005-8.55.022-9.794-2.311-.27-4.567-.441-6.82-.606zm-19.941-.115a198 198 0 0 1 18.25 0v-9.987c-3.118-.199-6.175-.32-9.125-.32-2.957 0-6.012.121-9.125.32zm-1.691-9.833c-2.247.171-4.498.341-6.799.606v9.794c2.265-.199 4.532-.331 6.799-.452zm9.97 11.326c-5.591.022-11.182.269-16.769.771v6.885a211 211 0 0 1 16.769-.721zm49.619 100.124c1.551-.199 3.103-.375 4.653-.59v-6.842h-4.653zm-81.864 22.948c5.179 1.267 10.381 2.29 15.6 2.962v-10.037c-5.204-.44-10.404-1.118-15.6-1.955zm75.284-12.416c3.749-.777 7.495-1.626 11.234-2.611v-6.809a390 390 0 0 1-11.234 1.367zm-3.082-26.677 3.36 7.023h10.956v-.733c-.122-.181-2.095-3.085-4.276-6.29zm-11.021-75.149a215 215 0 0 1 18.991 3.42v-6.565c-3.748-.904-7.502-1.735-11.262-2.424-.454 3.42-.843 6.329-.843 6.329l-.862-.138c-.043-.01-2.555-.413-6.024-.776zm14.103 123.832c6.063-4.07 10.558-8.592 11.234-9.287v-5.013c-3.722 1.493-7.472 2.766-11.234 3.934zm6.58-14.393c1.554-.568 3.109-1.091 4.653-1.714v-6.764c-1.55.407-3.103.744-4.653 1.112zm-75.173-4.931q4.451.579 8.909.957v-9.794a390 390 0 0 1-8.909-.501zm52.799 12.978a142 142 0 0 1-8.91 1.422v7.182c.27.475 2.666 4.512 6.682 4.512.738 0 1.485-.06 2.228-.148zm-59.49-24.535c5.194.436 10.396.794 15.6 1.031v-1.367c0-3.112.982-6.126 2.614-8.754h-18.214zm4.289-10.779h15.107c3.208-4.088 8.101-6.892 13.304-7.023H280.49zm46.292 11.81a413 413 0 0 0 15.601-1.031v-9.089H322.17c1.633 2.628 2.614 5.642 2.614 8.754-.001-.001-.001.495-.001 1.366m5.826-27.014H318.11v6.489h12.499zm-76.745 32.247c3.738.985 7.486 1.834 11.236 2.611v-8.053c-3.75-.409-7.496-.849-11.236-1.367zm28.423-32.247h-6.24v6.489h6.24zM260.21 509.19v7.646c4.095.495 8.195.943 12.301 1.305v-8.951zm-6.346 23.863c1.545.623 3.103 1.146 4.654 1.714v-7.366c-1.552-.368-3.105-.705-4.654-1.112zm0-25.553h10.958l3.359-7.023h-10.039c-2.181 3.204-4.153 6.108-4.278 6.29zm96.281-97.134a230 230 0 0 0-5.607-1.306l-1.202 9.018c2.273.419 4.54.892 6.81 1.383v-9.095zm-69.252 22.822a199 199 0 0 1 15.584-1.459V425.4c-5.197.27-10.394.728-15.584 1.388zm17.275-1.542a198 198 0 0 1 18.25 0v-6.324q-9.124-.405-18.25 0zm-43.149-8.185 1.033 6.251c.822-.204 1.645-.38 2.467-.572v-6.539c-1.167.287-2.334.546-3.5.86m11.773 12.119q6.198-1.272 12.411-2.154v-6.401a209 209 0 0 0-12.411 2.06zm-9.42 2.136a203 203 0 0 1 7.729-1.79v-6.506c-2.928.6-5.853 1.24-8.773 1.961.373 2.275.732 4.452 1.044 6.335m-3.508 78.316c1.549.214 3.103.391 4.654.59v-7.432h-4.654zm103.075-76.647a208 208 0 0 0-18.381-3.794v9.591c6.78 1.613 11.626 3.167 12.735 3.531.936-.419 4.252-2.061 4.924-4.958zm1.319-8.004a223 223 0 0 0-8.772-1.961v6.506c2.578.551 5.156 1.134 7.729 1.79zm1.308-7.92c-1.164-.314-2.331-.573-3.499-.86v6.539c.823.192 1.646.364 2.466.567.351-2.11.704-4.242 1.033-6.246m-8.684 68.835h-1.397v6.489h5.81zm10.335-78.835c-1.309-.417-4.659-1.453-9.381-2.665v9.023c2.67.6 5.34 1.25 8.005 1.967zm-43.108 18.268c5.197.281 10.395.766 15.583 1.459v-6.4a210 210 0 0 0-15.583-1.388zm29.685 60.567h-7.565v6.489h7.565zm-51.317 0h-12.499v6.489h12.499zm19.941 0h-18.25v6.489h18.25zm22.12 0h-6.239v6.489h6.239zm-43.375-13.877v-12.692c0-1.575-1.642-2.859-3.672-2.859-2.027 0-3.67 1.284-3.67 2.859v12.692zm35.398 0v-12.692c0-1.575-1.641-2.859-3.67-2.859s-3.672 1.284-3.672 2.859v12.692zM323.091 521.084h-4.789v-8.33h3.742a16.5 16.5 0 0 0-1.454-2.82h-2.289v-2.864a17.8 17.8 0 0 0-2.822-2.308v5.172h-6.778v-5.283h6.607c-2.415-1.558-5.185-2.505-8.017-2.505s-5.602.947-8.019 2.505h6.608v5.283h-6.779v-5.172a17.7 17.7 0 0 0-2.821 2.308v2.864h-2.287a16.4 16.4 0 0 0-1.458 2.82h3.745v8.33h-4.789v2.82h4.789v5.079h2.821v-5.079h6.779v5.079h2.82v-5.079h6.778v5.079h2.822v-5.079h4.789v-2.82zm-17.208 0h-6.779v-8.33h6.779zm9.598 0h-6.778v-8.33h6.778z"/></g></svg>