<svg xmlns="http://www.w3.org/2000/svg" viewBox="0 0 612 792"><circle cx="306.018" cy="396.327" r="283" fill="#da2128"/><circle cx="306.017" cy="396.327" r="275.293" fill="#ffd400" transform="rotate(-45 306.017 396.327)"/><g fill="#da2128"><path d="m273.701 602.393-1.182-4.668 259.802-65.933a266 266 0 0 0 4.224-7.297l-372.038 94.416c40.89 26.05 89.435 41.148 141.511 41.148 93.633 0 175.837-48.817 222.633-122.369zM142.793 601.475l-.612-2.412q3.258-1.133 3.681-1.517.273-.25.322-.662.11-.762-.779-4.755-1.416-6.183-2.313-9.716a832 832 0 0 0-3.191-12.093q-1.506-5.457-2.251-6.584a1.01 1.01 0 0 0-.605-.457q-.533-.17-3.867.309l-.611-2.412q5.996-1.309 7.72-1.746l14.339-3.853q4.683-1.187 7.051-.827 2.37.36 4.126 2.037 1.755 1.676 2.439 4.373.874 3.44-.465 6.544-1.338 3.1-5.768 6.363l8.457 7.667 6.562 5.856q1.787 1.38 2.539 1.573c.752.193 1.252.075 2.252-.16l.562 2.213-1.688.459q-7.282 1.908-9.349 2.555-3.512-3.358-10.406-9.68l-8.199-7.489q.134-.553.169-1.143 1.185-.147 1.731-.286 2.671-.677 4.709-3.492 2.037-2.813 1.022-6.814-.883-3.48-3.418-4.891-2.534-1.41-6.622-.372-1.297.329-3.462 1.093l1.963 8.529 2.487 10.813q.926 3.65 2.657 9.27 1.315 4.226 1.675 4.686.266.329.782.443.687.193 4.016-.468l.612 2.412a246 246 0 0 0-9.2 2.12 225 225 0 0 0-9.067 2.514M186 581.369q1.9-.483 3.581.512 1.679.997 2.167 2.92.481 1.897-.517 3.586c-.998 1.689-1.631 1.852-2.899 2.173q-1.901.483-3.598-.524-1.696-1.005-2.178-2.901-.481-1.896.517-3.586.996-1.692 2.927-2.18M195.308 588.147l-.613-2.412q3.64-.954 4.112-1.625.373-.46.028-2.179-1.078-5.695-2.939-13.024a519 519 0 0 0-3.102-11.62q-1.723-6.188-2.309-7.049-.28-.386-.641-.48-.57-.192-4.153.503l-.611-2.412a322 322 0 0 0 8.682-2.052 813 813 0 0 0 11.066-2.894 439 439 0 0 1 6.418-1.697 58 58 0 0 1 3.591-.79l.438.522q.309 3.745 1.4 8.646l-2.413.611-1.01-3.014q-.459-1.443-.844-1.697-.385-.255-2.296-.136-1.912.117-5.301.979a60 60 0 0 0-5.219 1.599q.917 4.946 1.43 6.96l1.628 6.174.308 1.33a86 86 0 0 0 4.186-.971q4.395-1.114 5.234-1.543.43-.231.543-.631.161-.687-.401-3.746l2.471-.626q.558 2.555 1.192 5.06.6 2.36 1.994 7.492l-2.471.626q-1.177-3.673-1.654-4.228-.26-.299-.842-.305-1.474-.024-5.695 1.048l-3.742 1.041 2.91 10.982q1.127 3.957 1.574 4.514.302.35.755.449.648.142 4.928-.701l.612 2.412a205 205 0 0 0-8.668 1.986q-3.562.904-10.576 2.898M225.19 571.423q1.9-.481 3.581.512 1.679.997 2.168 2.92.481 1.896-.517 3.587-.997 1.69-2.899 2.173-1.9.481-3.598-.525-1.696-1.005-2.178-2.901c-.482-1.896-.148-2.459.517-3.586q.994-1.692 2.926-2.18M271.331 562.221l.886.477a29 29 0 0 0-.578 3.267q-2.888 2.597-5.789 4.112-2.903 1.517-6.923 2.537-7.526 1.91-13.395.587-5.87-1.324-9.888-5.41t-5.593-10.29q-2.267-8.933 2.62-16.241 4.887-7.31 16.032-10.138a42.4 42.4 0 0 1 7.506-1.202 43.3 43.3 0 0 1 7.734.177l.31.38a17 17 0 0 0 .024 3.175q.251 2.595.987 6.354l-2.413.611q-1.323-4.493-1.608-4.896c-.285-.403-.845-.642-1.964-1.121q-1.68-.721-4.247-.789-2.567-.064-5.465.668-6.886 1.75-9.867 7.03-2.981 5.282-1.056 12.863 2.084 8.217 8.258 12.061c3.803 2.379 8.328 2.899 13.575 1.569q3.044-.773 5.542-2.079 2.495-1.307 5.312-3.702M278.265 557.953q1.9-.484 3.581.512 1.679.996 2.167 2.92.48 1.896-.516 3.586-.998 1.69-2.9 2.174-1.9.482-3.598-.525-1.697-1.005-2.178-2.901-.482-1.896.516-3.586.998-1.692 2.928-2.18M306.035 560.049l-.342-1.349q1.39-1.392 2.047-2.416-.66-4.05-4.102-17.609-2.493-9.822-3.816-13.829-.704-2.174-1.259-2.432-.778-.413-4.556.361l-.611-2.414 5.544-1.283 4.244-.985q1.924-.487 5.663-1.545 3.621-1.025 5.202-1.426 6.377-1.62 9.673-.189 3.3 1.428 4.235 5.116.963 3.802-1.151 6.893-2.116 3.093-6.814 5.381l.059.229q5.236-.778 7.564-.267 2.33.513 4.145 2.378 1.817 1.865 2.525 4.655.869 3.42-.44 6.999-1.309 3.577-4.331 6.059-3.025 2.481-9.257 4.064-1.236.312-3.731.839a89 89 0 0 0-3.787.854q-1.645.418-6.704 1.916m5.016-26.495 1.494-.379q4.854-1.232 6.377-3.484 1.524-2.25.575-5.985-.83-3.273-2.818-4.422-1.988-1.146-5.636-.22-1.351.343-3.245 1.068 2.065 8.861 2.568 10.844zm5.268 20.401q1.774.008 3.232-.363 4.07-1.03 5.652-3.925 1.584-2.894.433-7.433-.751-2.957-2.217-4.589t-3.434-2.111q-1.967-.477-5.176.337l-2.887.762.19.747 1.83 7.455 1.967 7.511zM340.542 551.29l-.611-2.412q3.89-1.2 4.288-1.791.398-.59.053-2.429-.733-3.85-3.356-14.19a889 889 0 0 0-3.031-11.461q-1.363-5.127-1.662-5.586-.3-.458-.79-.579-.71-.155-4.504.563l-.611-2.412q5.966-1.3 9.099-2.097 5.4-1.369 9.714-2.679l.612 2.412q-3.87 1.227-4.277 1.744t-.193 1.958q.47 2.817 2.606 11.233 2.842 11.202 4.048 15.588 1.204 4.388 1.848 5.112.268.33.882.402.614.074 4.091-.564l.613 2.413-3.411.774q-3.25.701-5.774 1.342zM383.349 541.038q-10.599 2.69-17.609-1.325-7.01-4.013-9.432-13.551-1.69-6.662-.146-12.023 1.543-5.362 5.749-9.088 4.208-3.727 11.818-5.659 7.324-1.858 12.588-.642 5.26 1.218 8.857 4.847 3.595 3.627 5.17 9.831c1.139 4.481 1.2 8.587.192 12.318q-1.517 5.596-5.847 9.554-4.331 3.96-11.34 5.738m.304-3.379q5.775-1.466 8.123-6.605 2.348-5.142.139-13.851-2.32-9.142-7.495-13.03-4.188-3.13-10.823-1.444-6.204 1.574-8.564 6.549-2.36 4.973-.194 13.512 1.56 6.154 4.513 9.947 2.95 3.796 6.314 4.947 3.362 1.148 7.987-.025M397.72 496.453l-.611-2.412a319 319 0 0 0 10.333-2.408q2.817-.716 7.906-2.221l.612 2.412q-2.644.672-3.616 1.408a1.27 1.27 0 0 0-.48.642q-.215.482-.088 1.458.236 1.654 2.06 9.322a664 664 0 0 0 2.655 10.821q1.143 4.51 2.713 6.359c1.57 1.849 2.318 2.024 3.814 2.38q3.244.734 6.634-.124 4.623-1.173 6.68-3.316 2.055-2.143 2.211-5.025t-2.134-11.902l-2.727-10.619c-.627-2.39-1.106-3.795-1.438-4.223a1.2 1.2 0 0 0-.756-.449q-.793-.227-4.354.433l-.613-2.412q3.756-.74 6.889-1.535 2.699-.684 6.583-1.884l.613 2.412q-2.843.721-3.389 1.531-.541.813-.015 3.49 1.316 6.516 3.351 14.65 1.319 5.2 1.585 6.845.688 4.045-.209 7.251-.897 3.21-4.174 5.967-3.274 2.758-8.816 4.164-5.774 1.466-10.032.711-4.258-.754-6.533-2.973-2.275-2.22-3.565-7.305l-3.137-12.962q-.394-1.551-2.148-7.862-.56-1.967-1.115-2.591a1.64 1.64 0 0 0-.864-.454q-.535-.107-3.825.421M453.013 522.749l-.378-1.493a20 20 0 0 0 2.542-2.511 351 351 0 0 0-3.745-16.323 526 526 0 0 0-3.322-12.486q-1.15-4.17-1.626-4.725-.238-.336-.731-.41-.491-.072-4.307.557l-.612-2.412a396 396 0 0 0 10.318-2.467q4.596-1.164 8.669-2.352l.611 2.414q-3.878 1.258-4.369 1.842-.306.353-.262 1.182.043.833 2.115 9.355l3.379 14.03a243 243 0 0 0 2.512 9.056q3.8-.75 5.602-1.208 5.407-1.372 8.879-3.17.104-2.782-.073-6.556l2.528-.642q.413 4.352 1.488 10.69a71 71 0 0 1-4.969 1.477l-10.422 2.501-4.666 1.113q-3.222.787-9.161 2.538M498.307 489.915q-3.608-.857-5.594-2.77-1.983-1.913-2.777-5.043-1.252-4.94 1.451-9.097 2.706-4.157 8.508-5.63 5.055-1.282 8.326.455 3.268 1.739 4.318 5.876.64 2.527-.095 4.808c-.491 1.523-1.651 3.247-3.486 5.182q4.078.523 6.188 2.098 2.863 2.117 3.933 6.339 1.472 5.804-1.504 10.7-2.974 4.9-9.18 6.473-5.371 1.363-9.419-.851-4.046-2.213-5.242-6.924-.867-3.418.095-6.077.96-2.66 4.478-5.539m7.52-6.637q1.451-1.867 1.912-3.789c.461-1.922.291-2.583-.044-3.906q-.767-3.018-2.899-4.313-2.13-1.296-5.062-.551-2.73.692-3.932 2.634-1.206 1.945-.591 4.357.576 2.272 2.589 3.52c1.345.833 4.017 1.516 8.027 2.048m-4.688 7.188q-1.717 2.394-2.166 4.605-.446 2.21.15 4.566.906 3.563 3.647 5.332 2.743 1.767 5.872.973 2.786-.708 4.147-3.178 1.36-2.472.587-5.52-.468-1.837-1.641-3.147c-1.173-1.31-1.782-1.543-3.001-2.008q-1.83-.701-7.595-1.623M525.611 504.353l-.374-.27-.437-1.724.199-.418q5.39-1.888 6.008-2.35.485-.37.593-.917.168-.899-.92-5.795-1.88-8.365-3.506-14.777-2.139-8.424-2.551-9.329-.246-.488-.678-.378-.26.066-.745.433l-6.98 5.624-.433-.135q-.762-2.039-1.492-3.352l.12-.489q10.014-5.841 16.4-10.552l.855.243q.642 4.09 2.205 11.035 1.564 6.948 4.051 16.749 1.703 6.697 2.489 8.241.364.704.917.839.82.22 6.013-.762l.433.258.438 1.724-.258.431-3.583.818q-5.431 1.256-7.325 1.737a374 374 0 0 0-11.439 3.116M287.048 247.488l65.784-110.75a263 263 0 0 0-15.543-2.289l-63.904 107.585zM305.244 254.75l67.497-113.634a263 263 0 0 0-14.88-3.415l-66.284 111.594zM314.389 258.4l-1.393 21.183 78.823-132.704a261 261 0 0 0-14.253-4.456l-67.793 114.135zM301.796 450.004l158.807-267.357a265 265 0 0 0-12.017-8.229L303.899 418.007zM268.855 240.226l63.173-106.355c-5.376-.526-10.8-.881-16.265-1.079l-60.573 101.98zM304.595 407.402l139.909-235.546a264 264 0 0 0-12.56-7.311L306.699 375.402zM250.663 232.964l59.586-100.317c-1.409-.022-2.816-.054-4.231-.054-4.301 0-8.576.111-12.826.315L237 227.509zM310.196 322.189l99.929-168.235a261 261 0 0 0-13.671-5.442L312.3 290.19zM307.395 364.795l120.286-202.506a264 264 0 0 0-13.108-6.389L309.499 332.799zM178.114 165.65a264 264 0 0 0-35.937 24.01l17.521 6.994zM177.891 203.916l31.52-53.066a262 262 0 0 0-23.082 10.409l-22.1 37.205zM232.471 225.703l54.91-92.445a264 264 0 0 0-18.023 1.885l-50.551 85.105zM214.278 218.44l48.926-82.369a262 262 0 0 0-19.203 3.875l-43.384 73.04zM196.085 211.179l41.312-69.549a262 262 0 0 0-20.777 6.515l-34.201 57.58z"/><path d="m464.499 185.515-163.4 275.096-190.687 48.391-68.04-107.88c.904 50.505 15.987 97.535 41.462 137.286l338.849-85.989 1.185 4.668L86.64 542.665c1.19 1.78 2.368 3.569 3.599 5.319l477.756-121.242a267 267 0 0 0 1.755-30.415c0-86.173-41.333-162.685-105.251-210.812"/><path d="m118.039 255.53 136.162.001 43.341 133.392-111.421 80.952L74.695 388.92z"/></g></svg>