<svg enable-background="new 0 0 612 792" viewBox="0 0 612 792" xmlns="http://www.w3.org/2000/svg"><path d="m24.951 161.003h356.549v400.53c0 22.071-17.078 39.159-39.15 39.159h-278.248c-22.073 0-39.15-17.088-39.15-39.159v-400.53z"/><path d="m29.678 165.727v395.867c0 18.927 15.438 34.363 34.364 34.363h278.368c18.926 0 34.363-15.436 34.363-34.363l.001-395.867z" fill="#fff"/><path d="m42.029 248.136h161.197v167.734h-161.197z" fill="#ee3124"/><path d="m42.029 415.862h161.197v167.742l-139.104-.074c-12.092 0-21.954-9.863-21.954-21.954z"/><path d="m230.094 248.136h26.867v335.468h-26.867z"/><path d="m283.826 248.136h26.867v335.468h-26.867z"/><path d="m364.426 248.136h-26.864l-.004 335.397 4.772-.003c12.091 0 21.954-9.863 21.954-21.954z"/><path d="m324.125 271.243c22.195 0 40.297 18.103 40.297 40.297s-18.102 40.297-40.297 40.297c-22.194 0-40.296-18.103-40.296-40.297.001-22.195 18.103-40.297 40.296-40.297z" fill="#fff"/><path d="m324.125 275.172c20.03 0 36.369 16.337 36.369 36.368 0 20.03-16.338 36.366-36.369 36.366s-36.368-16.336-36.368-36.366c.001-20.031 16.337-36.368 36.368-36.368z" fill="#ee3124" stroke="#000" stroke-miterlimit="1" stroke-width=".8811"/><path d="m324.281 277.143 7.588 23.635h24.926l-20.311 14.676 7.899 23.553-20.31-14.323-19.896 14.323 7.671-23.408-20.414-14.821 25.195-.042z" fill="#fff" stroke="#000" stroke-miterlimit="1" stroke-width=".8801"/><path d="m59.646 215.149h42.67l16.468 24.424h22.057l-19-26.503c10.612-2.462 15.335-7.837 15.335-19.582-.266-17.977-10.642-21.482-37.156-22.024l-57.99-.111v68.221h17.617v-24.425z"/><path d="m59.646 200.753h25.698c25.506 0 35.882-.005 35.882-7.64 0-5.915-4.897-7.292-21.672-7.451-13.298-.126-26.606-.026-39.908-.026z" fill="#ffe528"/><path d="m159.027 239.574-21.1-68.221h18.262l13.311 46.863 16.149-46.863h21.208l15.486 47.649 13.558-47.649h17.953l-21.455 68.221h-18.91l-17.598-50.997-17.537 50.997z"/><path d="m256.96 171.352h52.324c14.654 0 25.561.223 38.713 7.589 5.356 3.001 9.423 6.694 12.221 11.054s4.208 9.732 4.208 16.118c0 5.623-1.32 10.458-3.94 14.52-3.2 4.968-7.787 8.987-13.721 12.055-12.091 6.25-22.756 6.886-36.073 6.886h-53.732z"/><path d="m274.593 188.938h34.023c16.43 0 27.58 1.078 34.844 9.081 1.914 2.108 2.878 4.708 2.878 7.795 0 2.719-.902 5.058-2.694 7.023-7.188 7.887-16.847 9.161-34.064 9.161h-34.987z" fill="#ffe528"/></svg>