<svg xmlns="http://www.w3.org/2000/svg" viewBox="0 0 612 792"><path fill="#b59e49" d="M590.5 363.568s-43.674-14.255-88.709-22.243l-7.439-66.597c-2.233-19.998-9.07-25.017-22.041-28.297l-72.998-18.464 24.193-60.542c.984.6 2.136.952 3.373.952a6.5 6.5 0 1 0-5.931-3.848c-6.523 3.81-21.784 10.085-40.158 10.085-17.209 0-32.548-6.611-44.023-14.789-10.843-7.727-19.478-17.014-21.154-21.073 3.254-2.46 5.364-6.351 5.364-10.745 0-7.444-6.033-13.478-13.477-13.478s-13.479 6.034-13.479 13.478c0 4.393 2.112 8.285 5.365 10.745-1.676 4.06-10.312 13.346-21.155 21.073-11.475 8.178-26.813 14.789-44.023 14.789-18.374 0-33.636-6.275-40.159-10.085.363-.81.569-1.706.569-2.651a6.5 6.5 0 1 0-6.499 6.499 6.46 6.46 0 0 0 3.373-.952l24.194 60.542-72.999 18.464c-12.97 3.281-19.807 8.299-22.04 28.297l-7.438 66.597C68.174 349.313 24.5 363.568 24.5 363.568s31.262 31.904 47.74 52.426c0 0-5.316 27.668-10.365 69.628 0 0 23.082-7.457 53.054-14.553 14.192 24.637 42.104 63.304 73.866 92.643 19.817 18.305 44.335 36.898 66.618 49.943 28.59 16.737 41.635 23.44 52.086 23.44s23.496-6.702 52.086-23.44c22.283-13.045 46.802-31.639 66.618-49.943 31.764-29.34 59.675-68.007 73.867-92.643 29.972 7.097 53.054 14.553 53.054 14.553-5.049-41.96-10.365-69.628-10.365-69.628 16.479-20.521 47.741-52.426 47.741-52.426"/><path d="M105.275 450.525c.481 2.062 1.592 4.945 3.261 8.487a812 812 0 0 0-30.993 8.145c4.025-29.632 7.613-48.448 7.656-48.674l1.151-5.994-3.82-4.758c-9.358-11.653-23.089-26.605-33.58-37.729 15.815-4.498 38.985-10.57 62.729-14.983l-6.537 58.528c-2.749 24.633-2.749 24.633.133 36.978M506.464 459.013c1.669-3.542 2.779-6.426 3.262-8.487 2.883-12.346 2.883-12.346.131-36.978l-6.536-58.528c23.744 4.413 46.914 10.485 62.728 14.983-10.489 11.124-24.222 26.076-33.578 37.729l-3.82 4.76 1.15 5.992c.043.226 3.631 19.042 7.656 48.674a811 811 0 0 0-30.993-8.145"/><path fill="#fff" d="M272.814 198.512a8.93 8.93 0 0 1-8.93 8.929c-4.931 0-8.928-3.998-8.928-8.929s3.997-8.929 8.928-8.929a8.93 8.93 0 0 1 8.93 8.929M222.301 191.247c-2.521 1.231-4.403 7.295-2.213 13.702 2.122 6.204 6.191 9.077 9.605 7.909s4.871-5.93 2.749-12.134c-2.192-6.407-7.393-10.048-10.141-9.477M342.186 198.512a8.93 8.93 0 0 0 8.93 8.929 8.93 8.93 0 1 0-8.93-8.929M392.699 191.247c2.522 1.231 4.403 7.295 2.213 13.702-2.122 6.204-6.191 9.077-9.604 7.909-3.415-1.168-4.871-5.93-2.749-12.134 2.191-6.407 7.392-10.048 10.14-9.477M307.499 172.377c-5.01.628-11.744 9.856-11.744 22.037 0 11.796 5.253 19.055 11.744 19.055 6.492 0 11.745-7.259 11.745-19.055 0-12.181-6.734-21.409-11.745-22.037"/><path d="M345.447 228.97v28.001c-12.374-6.177-26.767-9.621-40.068-9.621-13.216 0-25.13 2.859-35.828 7.058V228.97l-75.895 19.197v300.615a288 288 0 0 0 4.762 4.513c19.549 18.059 43.535 36.048 64.161 48.123 2.432 1.423 4.752 2.773 6.973 4.057V411.89c9.17-1.504 22.638-4.467 35.217-11.286 24.143-13.086 40.594-43.341 40.594-61.067 0-23.005-17.477-42.008-31.73-50.225 0 0 15.78 17.665 15.78 39.183 0 31.92-19.637 53.586-33.621 64.517 0 0 12.211-20.394 12.211-45.596 0-22.322-16.676-49.24-23.11-54.623 9.586-14.313-1.486-22.454-3.808-22.454-6.565 0-10.504 19.564-10.504 19.564 7.484 5.777 28.362 24.079 28.362 53.836 0 16.282-6.482 23.925-12.76 28.453-5.437 3.922-11.634 5.913-16.632 10.598V263.296c10.781-4.536 23.285-7.258 37.919-7.258 13.668 0 26.667 3.077 37.977 10.298v339.14a1333 1333 0 0 0 6.975-4.058c20.626-12.075 44.611-30.064 64.16-48.123a292 292 0 0 0 4.762-4.513V248.167z"/><path fill="#e31f26" d="M138.358 263.599c-1.151 1.328-2.712 4.61-3.617 12.703l-15.504 138.82c-1.272 11.39-1.973 17.664-1.959 21.471.011 2.886.413 4.736 1.808 10.708.821 3.517 7.891 18.45 24.502 42.157 15.448 22.048 33.051 42.877 50.069 59.324V248.167l-47.49 12.013c-5.468 1.382-7.016 2.504-7.809 3.419M345.447 242.213V228.97l-5.651-1.429c-11.525-2.915-22.41-5.669-32.296-5.669s-20.771 2.753-32.295 5.669l-5.653 1.43v16.063c12.46-5.162 26.833-8.3 43.39-8.3 11.254-.002 22.254 1.937 32.505 5.479M269.552 418.805v186.67c20.031 11.57 31.707 17.439 37.948 17.439s17.917-5.869 37.947-17.438V418.291c-12.128 4.248-25.694 6.528-40.398 6.528-12.462 0-26.176-3.065-35.497-6.014M495.764 415.122l-15.505-138.819c-.904-8.094-2.466-11.376-3.617-12.704-.792-.916-2.34-2.037-7.808-3.419l-47.49-12.013v300.615c17.018-16.447 34.621-37.276 50.068-59.324 16.612-23.707 23.682-38.641 24.504-42.157 1.394-5.972 1.796-7.822 1.807-10.708.013-3.807-.687-10.081-1.959-21.471"/><path fill="#fff" d="M389.9 274.23c-16.662-22.752-45.853-37.497-76.959-37.497-57.337 0-88.644 37.484-104.088 67.246 9.887-15.066 24.509-30.804 44.511-41.891 14.449-8.009 31.706-14.737 52.015-14.737 21.558 0 45.992 9.035 60.033 24.118 12.256 13.165 19.279 32.993 19.279 51.333 0 21.253-8.204 38.45-8.204 38.45 5.829-34.588.781-55.321-9.66-72.522-14.344-23.63-35.868-32.691-59.356-32.691-50.418 0-75.656 32.229-91.743 60.06 7.254-5.705 17.136-24.36 39.097-27.476-7.077 1.258-13.688 6.619-19.9 14.588-8.541 10.959-17.788 28.314-23.53 43.796 0 0-3.905 1.823-3.905 4.545 0 2.633 5.034 5.885 6.738 5.885 2.479 0-1.82-6.234 8.21-16.264-.542 2.246-3.656 5.405-3.656 12.085 0 3.677 1.222 6.823 3.201 9.499 3.668 4.963 9.247 8.031 9.93 8.031 1.838 0 2.757-13.131 19.631-13.131 7.534 0 11.03 3.073 11.03 8.404 0 10.997-15.531 10.882-19.956 14.93-2.868 2.623-2.04 4.488-2.129 8.247-.036 1.494-.829 3.287-.829 5.546 0 4.596 4.31 4.259 7.505 6.862 5.959 4.85 6.104 6.426 7.19 6.426.737 0 6.023-7.789 7.439-10.641 2.857-5.757 2.599-9.203 6.599-13.488 5.174-5.543 11.927-7.521 17.792-11.752 6.277-4.528 12.76-12.17 12.76-28.453 0-29.757-20.878-48.059-28.362-53.836 0 0 3.939-19.564 10.504-19.564 2.322 0 13.394 8.141 3.808 22.454 6.434 5.383 23.11 32.301 23.11 54.623 0 25.203-12.211 45.596-12.211 45.596 13.984-10.931 33.621-32.597 33.621-64.517 0-21.517-15.78-39.183-15.78-39.183 14.253 8.217 31.73 27.22 31.73 50.225 0 17.727-16.451 47.981-40.594 61.067-21.836 11.837-46.399 12.07-46.399 13.187 0 1.933 25.212 11.029 46.68 11.029 60.944 0 102.42-39.06 102.42-95.919-.002-20.475-6.374-39.38-17.572-54.67"/><path d="M242.81 322.532c-1.27 0-2.298-2.936-2.298-6.565 0-8.535 6.828-6.04 9.717-12.015 0 2.429-2.036 3.611-2.036 6.894 0 1.904 2.889 2.955 2.889 5.384 0 1.704-1.729 1.976-3.052 2.998-1.381 1.066-3.776 3.304-5.22 3.304"/><path fill="#fff" d="M231.351 453.243v-5.014q0-3.42-3.342-3.421h-1.194q-3.263.001-3.262 3.421v9.47q0 1.593.636 2.148.636.558 2.069 1.433l7.241 3.898q2.386 1.353 3.382 2.109a5.4 5.4 0 0 1 1.552 1.829q.557 1.075.557 4.099v12.175q-.001 9.628-9.23 9.628h-4.695q-9.151 0-9.151-10.504v-2.864h7.639v3.104q0 3.341 3.421 3.342h1.353q3.023 0 3.023-3.342v-9.708q0-1.59-.637-2.148-.637-.555-2.069-1.433l-7.241-4.058q-2.387-1.272-3.461-2.149-1.074-.873-1.551-2.267-.478-1.393-.478-3.621v-11.697q0-9.786 9.151-9.787h4.775q9.15 0 9.151 9.787v5.57zM245.354 495.018v-57.133h18.939v6.923h-11.299v17.347h10.026v6.923h-10.026v19.018h11.299v6.923h-18.939zM269.782 437.886h14.96q8.752 0 8.752 9.787v14.085q0 7.48-4.536 9.469l5.332 23.792h-7.242l-5.013-23.076h-4.615v23.076h-7.639v-57.133zm7.639 27.532h5.013q3.421 0 3.422-4.138v-12.334q-.001-4.137-3.422-4.138h-5.013zM307.102 495.018h-7.639v-47.346q0-9.786 9.151-9.787h5.729q9.15 0 9.151 9.787v47.346h-7.64V474.09h-8.753zm8.752-27.849V448.15q0-3.342-3.342-3.342h-2.069q-3.341 0-3.342 3.342v19.019zM330.257 495.018v-57.133h7.639v57.133zM360.891 465.498v-27.612h7.639v57.133h-7.639V483.64l-8.195-26.02v37.398h-7.64v-57.133h7.64zM387.468 474.091v-6.922h11.617v27.85h-14.959q-8.833 0-8.833-9.628v-37.718q0-9.786 8.833-9.787h5.251q9.708 0 9.708 9.946v6.207h-7.639v-5.093q0-4.137-3.263-4.138h-1.91q-3.34 0-3.341 4.138v35.012q0 4.138 3.341 4.138h5.173v-14.005zM283.59 501.46v23.45q0 5.48-4.409 5.48h-3.079q-4.372 0-4.372-5.52v-23.41h3.649v23.531q0 1.895 1.596 1.894h1.482q1.482 0 1.483-1.894V501.46zM294.576 515.441V501.46h3.649v28.931h-3.649v-5.762l-3.915-13.177v18.938h-3.649v-28.93h3.649zM301.646 530.391V501.46h3.649v28.931zM314.532 504.965v25.426h-3.65v-25.426h-3.496v-3.505h10.644v3.505zM320.119 530.391V501.46h9.047v3.505h-5.396v8.784h4.789v3.506h-4.789v9.631h5.396v3.505zM331.788 530.391V501.46h6.349q5.133 0 5.133 5.561v19.18q0 4.19-4.372 4.19zm3.65-3.505h2.736q1.444 0 1.444-1.29V507.06q0-2.095-1.634-2.096h-2.547v21.922z"/><g fill="#b59e49"><path d="m280.389 571.195-.971-2.912q1.632-.618 2.78-1.721 1.147-1.102 1.809-2.383h.441l2.779 1.5v30.178h-4.191V570.4zM294.948 588.445v1.279q0 2.294 1.897 2.294h.618q1.677 0 1.676-1.852v-7.677l-2.647 1.765h-.971q-5.073 0-5.074-5.648v-8.868q0-5.559 5.074-5.559h2.78q5.073 0 5.074 5.559v20.472q0 5.649-5.074 5.648h-2.515q-5.074 0-5.074-5.648v-1.765zm4.191-8.029v-10.501q0-1.897-2.073-1.896h-.485q-1.897 0-1.897 1.896v8.207q0 2.294 1.897 2.294zM311.448 595.857q-5.074 0-5.074-5.427v-20.824q0-5.427 5.074-5.427h2.956q5.074 0 5.074 5.427v20.824q0 5.427-5.074 5.427zm.839-27.839q-1.678 0-1.677 1.852v20.295q0 1.852 1.896 1.852h1.06q1.676 0 1.677-1.852V569.87q-.001-1.852-1.897-1.852zM327.552 595.857q-5.074 0-5.074-5.427v-20.824q0-5.427 5.074-5.427h2.956q5.073 0 5.074 5.427v20.824q0 5.427-5.074 5.427zm.839-27.839q-1.678 0-1.677 1.852v20.295q0 1.852 1.896 1.852h1.06q1.676 0 1.676-1.852V569.87q0-1.852-1.897-1.852zM161.071 560.821c-5.801 3.41-8.947 8.371-11.135 13.983-3.001 7.697 1.287 16.711-5.016 16.711-5.58 0-16.938-8.175-31.776 0 4.596 6.959 13.919 18.383 29.019 18.383 13.935 0 25.211-12.392 25.211-27.706-.001-10.931-6.303-21.371-6.303-21.371"/><path d="M146.587 533.595c-6.315 2.324-10.292 6.647-13.443 11.78-4.322 7.041-1.704 16.674-7.907 15.554-5.492-.993-15.216-11.056-31.27-5.65 3.286 7.666 10.429 20.565 25.289 23.249 13.713 2.477 27.012-7.713 29.734-22.783 1.944-10.758-2.403-22.15-2.403-22.15M179.731 584.955c-5.121 4.367-7.356 9.799-8.535 15.705-1.618 8.102 4.171 16.232-2.036 17.327-5.496.97-18.102-5.106-31.293 5.523 5.735 6.055 16.902 15.685 31.772 13.06 13.723-2.423 22.673-16.585 20.012-31.667-1.899-10.763-9.92-19.948-9.92-19.948"/><path d="M202.679 605.893c-4.327 5.154-5.632 10.882-5.817 16.9-.255 8.259 6.801 15.319.861 17.427-5.26 1.866-18.697-2.038-29.947 10.628 6.659 5.021 19.266 12.669 33.496 7.619 13.133-4.661 19.615-20.109 14.493-34.543-3.655-10.301-13.086-18.031-13.086-18.031M123.099 550.855c6.125-15.014 2.041-34.711-16.094-51.165-9.249 17.656-4.444 43.838 16.094 51.165"/><path d="M274.717 661.518c-26.138-.034-23.925-.468-26.757-14.59a30.2 30.2 0 0 0-3.4-9.03c-5.422-9.491-16.073-15.43-16.073-15.43-3.346 5.84-3.616 11.708-2.732 17.664 1.212 8.173 9.407 13.873 3.934 16.999-4.846 2.768-18.763 1.305-27.591 15.763 7.442 3.764 21.205 9.058 34.316 1.567 9.454-5.402 8.168-8.758 13.19-8.758 7.386 0 24.325 12.113 38.703 12.113 6.369 0 11.522-3.172 11.522-7.091-2.461-9.847-15.868-9.195-25.112-9.207M453.929 560.821c5.802 3.41 8.947 8.371 11.135 13.983 3.002 7.697-1.286 16.711 5.017 16.711 5.581 0 16.939-8.175 31.776 0-4.596 6.959-13.919 18.383-29.02 18.383-13.935 0-25.211-12.392-25.211-27.706 0-10.931 6.303-21.371 6.303-21.371"/><path d="M468.413 533.595c6.315 2.324 10.293 6.647 13.442 11.78 4.323 7.041 1.705 16.674 7.906 15.554 5.492-.993 15.217-11.056 31.272-5.65-3.286 7.666-10.43 20.565-25.29 23.249-13.713 2.477-27.012-7.713-29.733-22.783-1.944-10.758 2.403-22.15 2.403-22.15M435.269 584.955c5.121 4.367 7.356 9.799 8.535 15.705 1.619 8.102-4.171 16.232 2.036 17.327 5.496.97 18.102-5.106 31.293 5.523-5.735 6.055-16.901 15.685-31.772 13.06-13.724-2.423-22.674-16.585-20.013-31.667 1.9-10.763 9.921-19.948 9.921-19.948"/><path d="M412.321 605.893c4.327 5.154 5.632 10.882 5.817 16.9.254 8.259-6.801 15.319-.861 17.427 5.26 1.866 18.696-2.038 29.945 10.628-6.658 5.021-19.265 12.669-33.495 7.619-13.133-4.661-19.614-20.109-14.493-34.543 3.656-10.301 13.087-18.031 13.087-18.031M491.901 550.855c-6.125-15.014-2.042-34.711 16.094-51.165 9.248 17.656 4.443 43.838-16.094 51.165"/><path d="M340.282 661.518c26.138-.034 23.925-.468 26.758-14.59a30.2 30.2 0 0 1 3.399-9.03c5.422-9.491 16.073-15.43 16.073-15.43 3.347 5.84 3.616 11.708 2.732 17.664-1.212 8.173-9.406 13.873-3.934 16.999 4.845 2.768 18.762 1.305 27.591 15.763-7.442 3.764-21.205 9.058-34.317 1.567-9.453-5.402-8.167-8.758-13.19-8.758-7.386 0-24.324 12.113-38.702 12.113-6.369 0-11.522-3.172-11.522-7.091 2.462-9.847 15.868-9.195 25.112-9.207"/></g></svg>