<svg xmlns="http://www.w3.org/2000/svg" viewBox="0 0 612 792"><path fill="#f37043" d="m61.012 359.876 246.484-246.484L553.98 359.876 307.496 606.36z"/><path fill="#fff" d="M317.907 586.771c-5.747 5.748-15.066 5.748-20.814 0s-5.748-15.067 0-20.815 15.068-5.749 20.815-.002c5.749 5.75 5.748 15.068-.001 20.817M284.419 554.021a5.84 5.84 0 1 1 8.26 8.26 5.84 5.84 0 0 1-8.26-8.26M270.633 540.235a5.841 5.841 0 1 1 8.258 8.26 5.841 5.841 0 0 1-8.258-8.26M256.845 526.448a5.84 5.84 0 0 1 8.261-.001 5.84 5.84 0 1 1-8.261.001M243.059 512.66a5.842 5.842 0 1 1 8.258 8.261 5.842 5.842 0 0 1-8.258-8.261M229.272 498.873a5.841 5.841 0 1 1 8.26 8.26 5.841 5.841 0 0 1-8.26-8.26M215.485 485.086a5.842 5.842 0 1 1 8.258 8.261 5.842 5.842 0 0 1-8.258-8.261M383.698 493.127l7.817-7.819 7.82 7.818-7.819 7.819zM370.603 506.175l7.82-7.82 7.818 7.82-7.819 7.819zM357.554 519.22l7.818-7.818 7.819 7.818-7.819 7.818zM344.547 532.286l7.82-7.819 7.817 7.82-7.819 7.818zM331.456 545.314l7.817-7.818 7.819 7.816-7.817 7.82zM318.404 558.376l7.82-7.82 7.818 7.82-7.819 7.819z"/><g fill="#7b3c81"><path d="M145.089 353.64q2.638 2.639 4.185 6.249c1.547 3.61 1.522 4.827 1.476 7.259q-.097 3.98-1.719 7.785c-1.622 3.805-2.895 5.079-5.443 7.627q-4.103 4.102-8.285 6.466-4.184 2.364-9.362 3.963l-7.522-7.522.356-.357q5.73-.028 11.048-2.252t8.629-5.536q4.687-4.686 5.207-9.392.518-4.704-2.969-8.192-3.003-3.003-5.665-3.192-2.66-.19-5.972 1.543a46 46 0 0 0-5.141 3.139 108 108 0 0 1-5.728 3.725q-6.319 3.771-11.83 3.125t-10.456-5.589q-5.671-5.672-5.271-13.322.402-7.65 6.592-13.841 3.999-4 8.247-6.427 4.247-2.428 8.156-3.667l7.097 7.097-.356.357q-4.35-.017-9.319 2.07-4.97 2.089-8.664 5.783-4.05 4.05-4.507 8.511t2.698 7.615q2.82 2.82 5.651 3.206 2.831.384 6.762-1.849 2.056-1.205 5.669-3.606 3.613-2.399 6.339-3.852 5.564-2.896 10.403-2.335 4.842.557 9.694 5.411M173.011 351.499l-6.088 6.088-8.645-8.644 6.089-6.089zM215.05 309.46l-6.548 6.548-35.115-5.103 1.022 8.563 15.317 15.317-5.044 5.045-45.163-45.163 5.044-5.044 23.567 23.567-5.146-41.987 6.114-6.115 4.289 38.174zM228.145 296.365l-6.089 6.089-8.644-8.645 6.089-6.089zM226.92 217.942l-13.554 13.555 39.824 39.824-5.044 5.044-39.824-39.825-13.555 13.555-5.338-5.338 32.153-32.153zM271.89 252.62l-6.088 6.089-8.645-8.644 6.088-6.088zM282.422 151.763l35.303 55.021-5.682 5.682-45.464-29.513 29.693 45.284-5.555 5.554-55.2-35.125 5.172-5.171 45.524 29.574-29.703-45.396 5.121-5.121 45.836 29.99-29.988-45.838zM336.858 187.652l-6.09 6.089-8.644-8.644 6.089-6.089zM82.223 662.118q0 3.294-.805 6.515-.805 3.219-2.257 5.454-1.59 2.424-3.709 3.787-2.118 1.364-5.1 1.364-3.203 0-5.756-1.138-2.556-1.135-5.2-3.37v-9.393h.278q2.247 3.56 5.19 5.491 2.942 1.932 5.528 1.932 3.658 0 5.697-2.612 2.039-2.614 2.039-6.97 0-3.75-.965-5.53-.965-1.779-2.933-2.765a18 18 0 0 0-3.232-1.249 41 41 0 0 1-3.688-1.25q-3.937-1.59-5.835-5.435-1.9-3.843-1.899-10.018 0-7.082 3.142-11.608c3.142-4.526 4.752-4.526 7.974-4.526q3.121 0 5.727 1.137 2.605 1.136 4.613 2.803v8.862h-.278q-1.69-2.727-4.444-4.525c-2.754-1.798-3.715-1.799-5.638-1.799q-3.161 0-5.08 2.498-1.919 2.5-1.919 6.44 0 3.522.954 5.528.955 2.009 3.36 3.068 1.273.53 3.619 1.288c2.346.758 2.89 1.023 3.977 1.552q3.3 1.668 4.971 5.038 1.668 3.371 1.669 9.431M93.955 678.215h-4.752v-10.794h4.752zM126.764 678.215h-5.11l-11.711-25.111-2.943 5.985v19.126h-3.937V621.82H107v29.428l14.376-29.428h4.772l-13.223 26.512zM136.984 678.215h-4.753v-10.794h4.753zM181.425 628.486h-10.579v49.729h-3.937v-49.729H156.33v-6.666h25.094v6.666zM204.908 678.215h-19.506V621.82h19.506v6.666h-15.569v15.452h15.569v6.666h-15.569v20.944h15.569zM235.648 678.215h-5.11l-9.902-22.422h-5.548v22.422h-3.937V621.82h8.292q2.685 0 4.474.662t3.221 2.368q1.61 1.93 2.516 4.866.904 2.936.904 7.442 0 6.098-1.61 10.207t-4.435 6.192zm-9.206-40.526q0-2.424-.447-4.299t-1.482-3.163q-.855-1.098-2.028-1.533c-1.173-.435-1.703-.436-2.764-.436h-4.633v21.286h3.977q1.868 0 3.261-.625 1.392-.624 2.367-2.33.894-1.59 1.322-3.654c.428-2.064.427-3.125.427-5.246M250.323 663.557q0 7.424-2.376 11.439t-6.373 4.014q-.954 0-2.545-.321-1.59-.324-2.665-.776v-7.007h.219q.815.53 2.008 1.099 1.193.567 2.445.568 1.83 0 2.913-.796c1.083-.796 1.256-1.288 1.601-2.272q.536-1.515.686-3.712t.149-5.075v-32.913h-6.264v-5.983h10.201zM280.05 628.296q1.81 3.787 2.774 9.28.964 5.49.964 12.46t-.984 12.479q-.984 5.511-2.754 9.185-1.83 3.827-4.325 5.757-2.496 1.933-5.697 1.933-3.122 0-5.676-1.97-2.556-1.97-4.345-5.72-1.79-3.749-2.754-9.204-.965-5.453-.965-12.46 0-6.893.955-12.366.954-5.472 2.784-9.374 1.75-3.71 4.345-5.681 2.595-1.97 5.657-1.97 3.182 0 5.717 1.989t4.304 5.662m-.358 21.74q0-10.983-2.585-16.948t-7.059-5.965q-4.514-.001-7.088 5.965-2.575 5.965-2.575 16.948 0 11.097 2.624 16.987t7.039 5.889 7.029-5.889c2.615-5.889 2.615-9.588 2.615-16.987M315.045 650.073q0 7.69-1.76 13.939-1.759 6.25-4.682 9.695-2.027 2.388-4.523 3.447t-6.572 1.061h-7.476V621.82h7.397q4.336-.001 6.889 1.192a12.6 12.6 0 0 1 4.326 3.275q3.022 3.6 4.711 9.583 1.69 5.986 1.69 14.203m-4.116-.112q0-6.628-1.212-11.173c-1.212-4.545-2.015-5.417-3.619-7.159q-1.75-1.894-3.718-2.632-1.969-.74-4.713-.739h-3.698v43.518h3.698q2.845 0 4.961-.796 2.119-.795 3.888-2.953 2.207-2.69 3.311-7.083 1.101-4.393 1.102-10.983M340.914 678.215h-19.505V621.82h19.505v6.666h-15.567v15.452h15.567v6.666h-15.567v20.944h15.567zM369.746 678.215h-4.871l-14.038-50.449v50.449h-3.679V621.82h6.104l12.806 46.056V621.82h3.678zM403.41 656.968h-12.408v-6.855h12.408zM459.205 621.82l-7.695 56.394h-4.434l-6.225-46.813-6.085 46.813h-4.333l-7.836-56.394h4.037l6.225 46.888 6.123-46.888h3.998l6.184 47.342 6.183-47.342zM484.518 678.215h-19.507V621.82h19.507v6.666h-15.569v15.452h15.569v6.666h-15.569v20.944h15.569zM509.491 678.215h-18.73V621.82h3.937v49.728h14.794zM532.159 678.215h-18.73V621.82h3.936v49.728h14.794zM555.604 678.215h-19.507V621.82h19.507v6.666h-15.57v15.452h15.57v6.666h-15.57v20.944h15.57zM381.403 470.896c-.263-1.389.343-1.907.844-2.531-4.844-5.483-9.974-10.385-15.736-15.182-1.819-1.515-3.504-3.453-5.339-4.779-.878-.635-2.214-.719-3.091-1.405-1.133-.886-2.703-2.823-3.934-4.218-2.834-3.211-5.039-5.992-7.587-9.841-2.15-3.25-3.983-4.843-5.339-8.716v-2.249c-5.173-7.194-13.346-11.388-21.074-16.025-3.17 5.545-8.096 9.331-17.421 8.715-1.288 1.431-4.496.938-5.901 2.25-12.896 1.248-23.246 5.044-32.314 10.121-1.91 5.643 1.739 10.538-.281 15.183-8.967 1.722-12.085-5.926-14.049-12.934-1.607-2.651-6.434-5.092-7.306-8.715-1.046-4.342.144-8.556 4.496-8.435.85.023 1.639.858 3.09 1.124 2.732.501 5.674-.489 7.025 1.125 1.034-.09 1.546-.703 2.248-1.125h1.967c5.966-2.188 11.269-5.963 16.297-9.559 1.926-1.377 3.742-3.27 5.62-3.937 2.567-.911 5.57-.231 7.306-2.811 1.243.391 2.456.336 3.372-.281.421-2.295.637-4.797.562-7.59-1.207-1.416-3.83-1.417-5.058-2.812-.842-5.343-3.539-8.83-7.867-10.684-1.18-2.014.398-5.135-1.124-7.591.02-2.978 2.723-3.274 2.248-6.748 1.534-1.892 3.628-3.19 3.372-5.623-.421-4.001-6.363-5.19-7.587-10.121-.415-1.675.13-3.382-.281-4.78-.629-2.143-3.148-3.466-4.214-5.623-.691-1.398-1.295-3.592-1.686-5.061-.524-1.966-.942-4.005-1.405-5.903-.601-.617-.875-1.562-1.686-1.968-9.107-2.619-15.364 3.331-24.446 3.374-7.615 8.032-17.029 14.262-26.132 20.805-2.58 3.209-3.57 7.846-5.62 11.808-.991 1.916-3.971 3.871-6.744 5.061-2.925 1.256-3.603 3.364-7.025 3.374-1.362.003-2.925-.988-4.215-.844-.972-2.037.127-4.436-.281-6.747-1.24-7.024 5.911-10.867 12.926-12.372 9.489-11.966 18.656-24.253 31.751-32.612-1.145-3.159-.282-8.824 2.248-10.685.557-.41 6.345-2.23 8.429-2.249 6.401-.06 8.652-7.117 11.802-11.527 5.081 1.077 6.144-3.603 10.116-4.499 1.362-.561.716-1.554 1.405-2.249 2.488-2.51 8.234-.724 9.273-4.499-1.686-1.555.353-2.558 0-5.06-.018-1.201-1.412-1.024-2.248-1.406.248-1.439 1.541-1.832 2.248-2.811.07-.948-1.681-.815-.843-1.687 9.276-2.715 9.118-14.869 16.86-19.119 7.387-.703 15.051-.731 18.826 3.655 7.547-.774 8.405 7.404 7.587 13.214-2.59.206-2.314 3.36-3.09 5.904-.385 1.258-1.578 2.188-1.686 3.374-.172 1.858 1.113 3.368 1.686 4.779-.515.978-2.9-.17-3.093 1.687-.135 1.353 1.101 1.336 1.968 1.687.409 2.871 2.52 4.039 2.528 7.31.625 1.601 2.279 2.366 3.372 3.655.669.79.833 1.883 1.686 2.531.882.669 2.141.547 3.089 1.124.637.386.768 1.202 1.407 1.687.72.549 1.868.513 2.81 1.124 1.275.83 4.521 3.674 5.058 4.781.612 1.262.299 2.5.562 4.217 1.794 1.346 3.96.584 5.901 1.687 3.431-.672 6.31-2.209 9.835-3.093 2.809-.705 7.472-.366 9.834-1.968 2.079-1.409 4.613-4.718 6.744-6.466 2.494-2.044 9.273-1.18 11.803 2.25 1.268 1.722.888 3.388 3.091 5.06-.539 3.444-6.546 4.013-8.712 2.531-2.272 1.005-4.251 2.306-5.62 4.217-3.52-.134-5.55.458-8.71 1.124-.557.942-2.09.908-2.53 1.968-9.925 1.59-15.174 10.414-26.974 7.591-2.531 3.479-10.766 3.275-14.33.843-1.123 1.174.17 2.03.281 3.093.253 2.451-.523 5.093 0 8.153.3 1.763 1.637 3.947 2.527 5.623 1.595 2.999 4.243 5.386 1.686 8.716.534 1.817 2.088 4.813.281 6.466.751 2.189 2.757 4.257 3.091 6.747.165 1.222-.398 2.529-.279 3.656.26 2.47 1.376 3.564 1.123 5.623-.199 1.614-1.717 4.511-.844 6.747 1.092 2.792 4.597 2.76 4.215 6.185 5.705 6.15 15.321 12.209 19.951 19.961 1.294 2.17 2.788 4.818 2.811 7.592 1.732 3.42 4.536 5.77 4.776 10.685 7.911 8.859 15.634 17.908 23.602 26.709 4.767.182 4.953-3.377 8.992-3.373 1.686-1.688 2.642-4.106 4.777-5.343 6.488-1.525 5.228 4.705 7.866 7.029-.982 2.315-2.912 4.797-2.247 7.871-.531.313-1.325.359-1.967.563-2.092 3.849-4.419 7.321-5.339 12.09-.601 3.117.538 6.538-1.686 8.435-5.384 4.596-11.385-3.124-14.33-7.028"/><path d="M438 410.815c0 10.58-8.577 19.158-19.158 19.158s-19.158-8.578-19.158-19.158 8.577-19.158 19.158-19.158c10.581.001 19.158 8.577 19.158 19.158"/></g></svg>