<svg enable-background="new 0 0 612 792" viewBox="0 0 612 792" xmlns="http://www.w3.org/2000/svg"><path d="m450.403 469.536c-.638-.467-1.47-.603-2.222-.363l-53.063 16.858c-1.032.326-1.735 1.288-1.735 2.37v38.647c-10.912 2.951-23.116 5.717-36.256 7.87l94.156-271.629c.264-.764.143-1.6-.324-2.259-.468-.657-1.219-1.044-2.025-1.044h-77.448c.757-4.035 1.171-8.191 1.171-12.445-.004-37.091-30.067-67.157-67.158-67.159-37.089.002-67.155 30.067-67.157 67.159 0 4.254.414 8.41 1.17 12.445h-77.447c-.806 0-1.559.387-2.026 1.044s-.587 1.495-.323 2.259l94.155 271.629c-13.139-2.152-25.343-4.917-36.256-7.869v-38.647c0-1.082-.702-2.044-1.733-2.37l-53.062-16.858c-.754-.239-1.584-.104-2.222.363-.637.466-1.021 1.217-1.021 2.007v95.463c0 .945.532 1.802 1.378 2.223.166.071 49.572 24.786 115.536 30.944l26.658 76.907c.346 1.002 1.29 1.674 2.351 1.674 1.06 0 2.002-.672 2.351-1.674l26.658-76.907c65.964-6.158 115.371-30.873 115.538-30.944.843-.421 1.375-1.28 1.375-2.223v-95.463c0-.791-.382-1.542-1.019-2.008z"/><path d="m446.445 506.004-43.212-17.331 43.212-13.73z" fill="#fff"/><path d="m398.36 492.079 44.303 17.768c-7.621 3.387-23.289 9.825-44.303 15.818z" fill="#fff"/><path d="m204.787 523.334c-12.889-3.979-23.314-7.961-30.505-10.94-2.332-.966-4.318-1.825-5.943-2.547l44.303-17.768v33.587c-2.709-.772-5.331-1.552-7.855-2.332z" fill="#fff"/><path d="m207.769 488.673-43.216 17.331v-31.061z" fill="#fff"/><path d="m444.985 566.123c-13.175 6.06-70.701 30.467-139.485 30.453-39.306.003-74.936-7.954-100.713-15.917-12.89-3.982-23.315-7.962-30.506-10.942-3.597-1.49-6.383-2.73-8.266-3.594-.575-.265-1.063-.492-1.463-.682v-51.844c14.598 6.643 71.989 30.613 140.947 30.631 68.957-.018 126.346-23.988 140.945-30.63v51.843c-.398.19-.885.417-1.459.682z" fill="#fff"/><path d="m182.094 549.596c.5 1.396 1.129 2.604 1.89 3.618.76 1.014 1.474 1.642 2.14 1.881.364.132.658.104.882-.08.224-.185.335-.488.335-.909 0-.399-.083-.774-.249-1.127-.167-.353-.422-.702-.766-1.048l-1.733-1.785c-1.26-1.271-2.174-2.552-2.741-3.84s-.851-2.724-.851-4.307c0-5.731 2.593-7.665 7.778-5.801 2.332.839 4.498 2.193 6.497 4.064l-1.796 7.338c-.542-1.401-1.167-2.556-1.874-3.463-.709-.908-1.426-1.492-2.155-1.755-.375-.135-.677-.124-.906.031s-.344.427-.344.814c0 .509.148.972.445 1.388.297.417 1.002 1.169 2.116 2.255 1.156 1.103 2.051 2.077 2.686 2.925.635.849 1.141 1.808 1.516 2.877.374 1.07.562 2.252.562 3.547 0 5.698-2.604 7.612-7.81 5.74-2.676-.963-5.139-2.473-7.388-4.533z"/><path d="m197.562 539.76 7.294 2.2v8.465c.974.273 1.853-.121 2.638-1.18.784-1.058 1.176-2.998 1.176-5.819v-.315l7.453 2.249v.348c0 5.677-1.087 9.439-3.258 11.283 2.468 3.766 3.703 8.276 3.703 13.532v.299l-7.898-2.382v-.266c0-2.789-.331-5.065-.993-6.831-.662-1.767-1.602-2.865-2.82-3.3v9.246l-7.294-2.201v-25.328z"/><path d="m218.593 571.313v-25.329l7.051 1.703c1.968.476 3.476 1.055 4.526 1.74 1.048.685 2.051 1.726 3.009 3.125.957 1.398 1.686 2.991 2.186 4.777s.75 3.696.75 5.733c0 1.704-.218 3.272-.653 4.704-.436 1.434-1.046 2.628-1.831 3.583-.785.956-1.635 1.576-2.549 1.858s-1.772.388-2.573.315c-.801-.071-2.143-.334-4.025-.789zm7.567-13.84-.162-.039v5.843l.194.046c.903.219 1.559.142 1.968-.231.408-.371.613-1.071.613-2.101 0-1.018-.205-1.803-.613-2.356-.409-.551-1.075-.94-2-1.162z"/><path d="m257.169 569.887v9.412l-7.537-1.108v-25.329l7.537 1.108v9.278l3.875.569v-9.277l7.522 1.105v25.329l-7.522-1.105v-9.411z"/><path d="m279.551 575.6 6.647.583v6.357l-14.236-1.247v-25.329l14.236 1.248v6.358l-6.647-.583v3.138l4.646.407v6.356l-4.646-.407z"/><path d="m288.516 582.709v-25.329l7.616.213c2.644.074 4.414.212 5.31.414s1.675.625 2.339 1.269c.663.643 1.197 1.511 1.601 2.601.404 1.091.605 2.239.605 3.445 0 2.545-.647 4.441-1.941 5.689 1.87 3.15 2.981 7.226 3.336 12.227l-7.915-.222v-.232c0-2.977-.282-5.253-.846-6.828-.564-1.577-1.36-2.378-2.389-2.407l-.1-.003v9.378zm7.748-19.9-.133-.004v4.88l.199.006c.741.02 1.278-.164 1.609-.553.332-.389.498-1.021.498-1.896.001-1.582-.724-2.392-2.173-2.433z"/><path d="m318.852 582.792-7.614.244v-15.088l-3.832.123v-10.241l15.279-.489v10.242l-3.833.122z"/><path d="m325.273 572.52c.529 1.174 1.196 2.096 2.002 2.769.805.674 1.56.979 2.266.92.386-.032.696-.192.934-.477.237-.286.355-.639.355-1.06 0-.398-.088-.736-.264-1.015-.177-.278-.447-.512-.811-.703l-1.836-1.006c-1.335-.706-2.302-1.575-2.903-2.608s-.9-2.342-.9-3.924c0-5.731 2.745-8.831 8.236-9.297 2.47-.209 4.763.171 6.88 1.142l-1.902 8.145c-.573-1.157-1.234-2.03-1.984-2.62-.75-.589-1.511-.851-2.282-.785-.396.034-.717.18-.96.438-.241.26-.363.583-.363.97 0 .509.157.905.472 1.188.314.283 1.061.719 2.241 1.304 1.223.583 2.171 1.155 2.844 1.718s1.207 1.294 1.605 2.196c.397.901.595 1.999.595 3.294 0 5.698-2.757 8.781-8.27 9.249-2.833.241-5.441-.163-7.822-1.212z"/><path d="m353.602 579.347-11.981 1.693v-25.329l9.121-1.289c2.126-.3 3.685-.326 4.676-.079.992.248 1.818.889 2.481 1.924s.995 2.36.995 3.976c0 1.395-.173 2.504-.517 3.326-.346.823-.913 1.667-1.701 2.531.942.664 1.627 1.392 2.054 2.183.428.792.642 1.906.642 3.346 0 2.091-.526 3.839-1.578 5.243-1.053 1.403-2.449 2.229-4.192 2.475zm-4.24-19.633-.198.027v4.929l.198-.027c.811-.114 1.391-.379 1.742-.793.351-.416.525-1.049.525-1.9 0-.951-.167-1.592-.501-1.922-.334-.329-.922-.434-1.766-.314zm-.065 9.221-.133.017v5.444l.231-.032c.876-.124 1.495-.404 1.857-.843.361-.438.542-1.134.542-2.085 0-1.063-.181-1.778-.542-2.148-.361-.369-1.013-.487-1.955-.353z"/><path d="m369.114 570.257 6.55-1.277v6.357l-14.027 2.735v-25.329l14.027-2.735v6.357l-6.55 1.278v3.137l4.578-.893v6.357l-4.578.893z"/><path d="m377.948 574.854v-25.329l7.394-1.834c2.567-.637 4.285-.974 5.155-1.013s1.627.174 2.271.64c.645.466 1.163 1.189 1.555 2.171.392.981.588 2.075.588 3.281 0 2.545-.628 4.615-1.885 6.21 1.815 2.648 2.895 6.426 3.238 11.331l-7.685 1.906v-.232c0-2.977-.274-5.178-.821-6.603-.548-1.424-1.321-2.012-2.319-1.765l-.098.024v9.378zm7.524-21.984-.13.032v4.88l.193-.049c.72-.178 1.24-.507 1.563-.984.322-.479.483-1.154.483-2.028 0-1.582-.703-2.2-2.109-1.851z"/><path d="m414.236 564.846-.095.029-5.984 2.095c-2.339.714-4.08.947-5.223.698-1.143-.248-2.146-.912-3.008-1.993s-1.477-2.362-1.842-3.844-.547-3.069-.547-4.763c0-3.896.849-7.28 2.547-10.156s3.924-4.734 6.675-5.575c1.281-.391 2.628-.501 4.04-.33 1.413.172 2.701.617 3.865 1.335l-3.539 8.699c-1.398-.657-2.71-.799-3.937-.424-.837.256-1.512.777-2.024 1.564-.514.787-.771 1.695-.771 2.725 0 2.169.8 3.01 2.397 2.522l.175-.054v-3.967l7.27-2.221v13.66z"/><path d="m424.041 554.947 6.277-2.26v6.357l-13.446 4.84v-25.329l13.446-4.84v6.357l-6.277 2.26v3.138l4.388-1.579v6.357l-4.388 1.579z"/><g fill="#fff"><path d="m367.407 253.285h-7.846l-8.487-25.171-.847-16.11 4.484-2.45c8.125 10.509 12.968 23.67 12.97 37.988.001 1.937-.101 3.851-.274 5.743z"/><path d="m313.48 213.403 10.658 15.849-14.793 23.043-18.329-.546-11.351-21.284 8.523-16.493z"/><path d="m260.147 233.824 15.257-.776 11.402 21.377-5.18 15.81-18.914 2.162-8.714-15.239z"/><path d="m263.863 277.272 19.008-2.17 19.063 12.708.79 15.789-13.074 4.078c-9.704-2.55-18.475-7.385-25.718-13.901z"/><path d="m307.682 303.12-.777-15.552 16.999-13.831 21.194-.272-.683 22.558c-4.623 3.716-9.782 6.782-15.351 9.065z"/><path d="m346.318 268.476-22.08.282-10.533-14.044 14.794-23.046 18.343-.54 8.187 24.28z"/><path d="m351.461 205.661-3.704 2.023-18.212-11.563-5.002-7.781c9.509 3.057 18.022 8.33 24.926 15.231.68.681 1.344 1.378 1.992 2.09z"/><path d="m317.458 186.519 7.113 11.065-10.84 10.838-26.143.589-7.978-7.208 2.787-11.993c7.143-2.861 14.932-4.451 23.103-4.452 4.092 0 8.087.407 11.958 1.161z"/><path d="m261.531 203.571c4.437-4.436 9.545-8.19 15.147-11.127l-1.997 8.597-18.584 10.541-.767-.767c1.884-2.568 3.952-4.995 6.201-7.244z"/><path d="m252.498 215.018.842.842 2.33 15.436-6.146 23.316-5.92-1.184c-.182-1.938-.285-3.9-.285-5.887 0-11.931 3.36-23.061 9.179-32.523z"/></g><path d="m285.34 311.605c-10.057-3.163-19.089-8.629-26.487-15.781v15.781h.001z" fill="#2da44a"/><path d="m212.208 311.605h46.645v-15.781c-8.618-8.331-15.02-18.939-18.215-30.866h-28.431z" fill="#fff"/><path d="m352.145 295.825v15.78h.002 46.646v-46.646h-28.432c-3.195 11.927-9.597 22.535-18.216 30.866z" fill="#2da44a"/><path d="m352.145 295.825c-7.397 7.151-16.429 12.617-26.486 15.78h26.486z" fill="#fff"/><path d="m398.794 311.605h30.476l16.169-46.646h-46.646v46.646z" fill="#fff"/><path d="m212.207 311.605v-46.646h-46.646l16.169 46.646z" fill="#2da44a"/><path d="m305.501 358.252h46.644.002v-46.646h-.002-26.486c-6.364 2.001-13.133 3.091-20.158 3.092z" fill="#2da44a"/><path d="m398.793 358.252h.001v-46.647h-.001-46.646v46.647z" fill="#fff"/><path d="m258.853 358.252h.001v-46.647h-.001-46.645v46.647z" fill="#2da44a"/><path d="m258.854 358.252h46.645.002v-43.554c-.001 0-.002 0-.002 0-7.026-.001-13.795-1.09-20.159-3.092h-26.485v46.646z" fill="#fff"/><path d="m212.208 358.252v-46.647h-.001-30.477l16.169 46.647h14.308z" fill="#fff"/><path d="m398.794 358.252h14.308l16.168-46.647h-30.476z" fill="#2da44a"/><path d="m305.501 451.544h46.644.002v-46.646h-.002-46.644z" fill="#2da44a"/><path d="m380.764 451.544 16.169-46.646h-44.786v46.646z" fill="#fff"/><path d="m258.854 451.544v-46.646h-.001-44.784l16.169 46.646h28.615z" fill="#2da44a"/><path d="m258.854 451.544h46.645.002v-46.646h-.002-46.645z" fill="#fff"/><path d="m305.499 404.898v-46.646h-46.645-.001v46.646h.001z" fill="#2da44a"/><path d="m258.853 404.898v-46.646h-46.645-.001v41.275l1.862 5.371z" fill="#fff"/><path d="m352.147 358.252h-.002v46.646h.002 44.786l1.86-5.369v-41.277z" fill="#2da44a"/><path d="m305.499 358.252v46.646h.002 46.644v-46.646h-46.644z" fill="#fff"/><path d="m398.793 358.252v41.277l14.309-41.277h-14.308z" fill="#fff"/><path d="m197.899 358.252 14.308 41.275v-41.275z" fill="#2da44a"/><path d="m258.854 451.544h-.001v46.647h.001 46.645v-46.647z" fill="#2da44a"/><path d="m258.853 451.544h-28.615l16.169 46.647h12.446z" fill="#fff"/><path d="m352.145 451.544v46.647h.002 12.447l16.17-46.647h-28.617z" fill="#2da44a"/><path d="m305.499 498.191h.002 46.644v-46.647h-46.644-.002z" fill="#fff"/><path d="m352.145 498.191h-46.644v41.062c16.117.004 31.606-1.341 46.061-3.469l.585-1.686v-35.906h-.002z" fill="#2da44a"/><path d="m352.147 534.098 12.447-35.907h-12.447z" fill="#fff"/><path d="m258.853 498.191h-12.446l12.447 35.91v-35.91z" fill="#2da44a"/><path d="m305.501 539.253v-41.062h-.002-46.645v35.909l.583 1.682c14.456 2.128 29.947 3.472 46.064 3.471z" fill="#fff"/><path d="m305.501 601.551v36.579h10.585l12.999-37.5c-7.674.588-15.548.92-23.584.921z" fill="#2da44a"/><path d="m305.501 638.13v-36.579c-8.037-.001-15.913-.333-23.586-.921l12.999 37.5h10.584z" fill="#fff"/><path d="m294.915 638.13 10.584 30.536v-30.536z" fill="#2da44a"/><path d="m305.499 638.13v30.536l.001.002 10.586-30.538h-10.585z" fill="#fff"/><path d="m284.525 355.739c-13.236-13.856-23.666-26.27-33.537-37.688-15.816-18.401-28.939-47.444-30.285-70.723-1.458-23.723 6.842-39.13 18.62-52.432-47.894 7.76-48.904 59.859-36.566 88.68-24.9-12.748-45.089-20.397-70.551-39.906-21.2-16.294-39.146-40.349-38.136-63.517 1.346-34.142 3.253-44.34 32.639-67.398-68.42 10.865-69.43 97.77-31.182 134.573 5.272 4.988 11.217 12.637 17.498 16.958-32.639 1.331-54.961 24.166-54.961 49.441 20.751-23.057 43.97-28.821 64.271-29.596 17.722-.555 33.199 2.439 42.51 6.762 46.1 21.615 70.664 51.213 97.583 93.668 10.544-8.093 17.049-16.407 22.097-28.822z" fill="#262626"/><path d="m320.866 357.402c-3.813-1.108-11.44-2.993-15.366-2.993s-11.553 1.885-15.366 2.993c-4.376 17.071-18.508 29.487-26.584 33.921-1.795 75.488 13.572 52.431 27.817 134.573 4.711 2.659 8.638 7.98 14.133 7.98s9.422-5.321 14.132-7.98c14.246-82.142 29.612-59.085 27.817-134.573-8.075-4.434-22.209-16.85-26.583-33.921z" fill="#262626"/><path d="m497.975 264.286c6.281-4.322 12.226-11.971 17.497-16.958 38.249-36.803 37.239-123.708-31.182-134.573 29.388 23.058 31.294 33.256 32.64 67.398 1.011 23.167-16.936 47.222-38.137 63.517-25.46 19.51-45.649 27.158-70.55 39.906 12.338-28.821 11.328-80.92-36.566-88.68 11.777 13.302 20.077 28.709 18.62 52.432-1.347 23.278-14.47 52.322-30.285 70.723-9.871 11.418-20.302 23.832-33.537 37.688 5.048 12.415 11.553 20.729 22.097 28.821 26.919-42.455 51.483-72.053 97.583-93.668 9.31-4.323 24.788-7.317 42.511-6.762 20.301.775 43.52 6.54 64.27 29.596-.001-25.274-22.322-48.109-54.961-49.44z" fill="#262626"/></svg>