<svg enable-background="new 0 0 612 792" viewBox="0 0 612 792" xmlns="http://www.w3.org/2000/svg"><path d="m446.557 77.493h-286.921l-.35 1.774c-10.987 55.962-60.408 96.579-117.516 96.579h-6.456v259.346c0 50.795 27.342 107.097 76.991 158.534 49.073 50.842 116.88 93.912 190.933 121.28l.762.281.762-.281c74.051-27.368 141.859-70.438 190.934-121.28 49.649-51.438 76.99-107.739 76.99-158.534v-259.346h-6.456c-57.107 0-106.53-40.617-117.516-96.578l-.348-1.775z" fill="#0066b3"/><path d="m568.29 180.242c-1.03 0-2.06 0-2.06 0-58.588 0-109.313-41.268-121.398-98.354-3.389 0-278.273 0-281.662 0-12.088 57.086-62.811 98.354-121.398 98.354 0 0-1.032 0-2.061 0v189.289h91.541c1.186-94.272 78.199-170.607 172.747-170.607 94.55 0 171.565 76.335 172.751 170.607h91.541c-.001-74.582-.001-186.415-.001-189.289z" fill="#fff200"/><path d="m303.998 203.319c-92.858 0-168.407 75.549-168.407 168.41 0 92.86 75.549 168.409 168.407 168.409 92.863 0 168.411-75.549 168.411-168.409 0-92.861-75.548-168.41-168.411-168.41zm0 287.78c-65.819 0-119.368-53.549-119.368-119.37 0-65.822 53.549-119.37 119.368-119.37 65.821 0 119.372 53.548 119.372 119.37 0 65.821-53.551 119.37-119.372 119.37z" fill="#fff"/><path d="m327.157 411.839h-46.313l-23.159-40.11 23.159-40.111h46.315l23.156 40.108z" fill="#fff"/><path d="m277.036 329.421-21.412-37.085c-26.15 15.994-43.8 44.541-44.564 77.195h42.817z" fill="#fff"/><path d="m253.877 373.926h-42.817c.765 32.654 18.414 61.201 44.564 77.195l21.412-37.087z" fill="#fff"/><path d="m327.157 327.222 21.413-37.088c-13.242-7.262-28.432-11.401-44.572-11.401-16.138 0-31.325 4.138-44.568 11.401l21.414 37.088z" fill="#fff"/><path d="m354.123 369.531h42.817c-.765-32.653-18.416-61.201-44.566-77.194l-21.41 37.083z" fill="#fff"/><path d="m280.844 416.234-21.416 37.089c13.242 7.263 28.43 11.401 44.57 11.401 16.141 0 31.33-4.139 44.572-11.403l-21.411-37.087z" fill="#fff"/><path d="m330.964 414.032 21.412 37.087c26.151-15.992 43.8-44.541 44.564-77.193h-42.819z" fill="#fff"/><g fill="#0066b3"><path d="m243.772 524.231-7.19-3.033 9.697-22.982-8.907-3.761 2.283-5.415c4.971 2.215 10.303 2.438 13.349-2.659l5.72 2.415z"/><path d="m268.301 521.209c.034 2.63 1.599 5.141 4.249 5.611 5.572.989 8.33-6.056 9.296-10.236l-.088-.127c-2.64 2.602-5.619 3.356-9.298 2.702-3.245-.577-6.275-2.678-8.019-5.442-1.589-2.681-1.949-5.982-1.421-8.959 1.374-7.735 7.814-12.898 15.713-11.496 11.468 2.039 12.775 12.595 11.073 22.17-1.642 9.251-7.628 19.07-18.395 17.157-6.546-1.161-10.731-5.868-10.413-12.676zm14.388-13.459c.624-3.516-1.021-7.438-4.863-8.12-3.679-.652-6.414 2.49-7.019 5.898-.636 3.569.57 7.467 4.52 8.169 4.112.73 6.701-2.215 7.362-5.947z"/><path d="m324.855 500.892-15.818 1.397-.762 8.837.118.101c1.891-2.317 4.227-3.353 7.237-3.618 7.553-.668 12.339 4.812 12.973 11.983.697 7.882-5.28 14.533-13.011 15.05-7.444.657-14.483-2.858-15.304-10.895l7.771-.686c.683 3.361 3.408 5.492 6.802 5.192 4.051-.359 6.309-4.143 5.969-7.974-.352-3.997-3.095-6.954-7.254-6.585-2.793.246-4.239 1.367-5.587 3.582l-7.006.618 1.906-21.515 21.398-1.892z"/><path d="m348.527 517.211c1.363 2.249 3.984 3.618 6.508 2.681 5.304-1.973 4.11-9.441 2.822-13.535l-.142-.066c-.955 3.58-3.142 5.741-6.643 7.045-3.091 1.148-6.77.873-9.671-.627-2.728-1.505-4.716-4.166-5.767-6.999-2.738-7.364.195-15.08 7.714-17.877 10.918-4.059 17.398 4.378 20.787 13.494 3.273 8.806 3.093 20.304-7.156 24.113-6.23 2.318-12.225.385-15.403-5.643zm5.579-18.898c-1.245-3.347-4.653-5.89-8.31-4.531-3.501 1.303-4.266 5.397-3.059 8.642 1.264 3.399 4.277 6.147 8.038 4.75 3.914-1.457 4.651-5.308 3.331-8.861z"/><path d="m169.269 367.545-.4-6.937c3.928-.221 6.307-3.02 7.133-8.397.378-2.455.183-4.418-.591-5.89-.771-1.47-1.878-2.317-3.32-2.539-1.049-.161-2.064-.011-3.048.452-.982.463-1.878 1.64-2.685 3.529l-3.041 7.042c-1.041 2.41-2.073 4.151-3.093 5.222-1.018 1.071-2.34 1.851-3.969 2.337-1.629.487-3.306.599-5.029.333-3.43-.526-5.983-2.224-7.662-5.091-1.679-2.868-2.213-6.287-1.602-10.259.507-3.298 1.683-6.133 3.524-8.507 1.842-2.372 4.141-3.711 6.89-4.018l.618 6.829c-3.059.564-4.874 2.702-5.445 6.412-.332 2.156-.135 3.869.591 5.142.726 1.271 1.781 2.015 3.168 2.228 2.191.337 4.003-1.206 5.43-4.632l2.636-6.269c1.602-3.802 3.476-6.228 5.624-7.278 2.146-1.051 4.391-1.396 6.73-1.036 3.769.579 6.517 2.456 8.242 5.627 1.727 3.172 2.245 7.017 1.55 11.531-.586 3.806-1.893 7.012-3.929 9.626-2.031 2.611-4.807 4.127-8.322 4.543z"/><path d="m186.706 329.771-2.689 6.458-35.838-14.92 6.108-14.677c1.743-4.183 4.091-6.846 7.04-7.99 2.951-1.143 5.864-1.118 8.731.077 3.275 1.363 5.469 3.561 6.589 6.594 1.121 3.034.98 6.229-.42 9.591l-3.726 8.952zm-19.744-8.221 3.181-7.64c.83-1.995.977-3.722.432-5.18-.541-1.458-1.627-2.526-3.257-3.205-1.47-.612-2.934-.65-4.387-.117-1.455.534-2.711 2.071-3.767 4.608l-2.94 7.063z"/><path d="m212.908 285.362-4.366 6.075-9.315-2.875-8.71 12.128 5.732 7.863-3.483 4.851-24.015-33.108 5.026-6.999zm-19.326 1.458-17.368-5.507 10.767 14.699z"/><path d="m236.745 265.92-5.685 4.726-14.833-8.417-7.568 6.29 10.197 12.27-5.381 4.471-24.811-29.854 12.946-10.76c3.602-2.994 6.925-4.38 9.968-4.161 3.044.221 5.637 1.622 7.78 4.201 3.188 3.835 3.587 7.965 1.2 12.39zm-31.667-1.71 6.692-5.562c1.939-1.612 3.043-3.219 3.312-4.824.269-1.604-.188-3.121-1.376-4.55-1.092-1.312-2.441-1.984-4.046-2.019-1.608-.033-3.247.646-4.926 2.04l-7.13 5.926z"/><path d="m251.877 258.707-6.714 3.359-14.686-29.351-9.231 4.619-2.685-5.368 25.181-12.596 2.683 5.367-9.231 4.619z"/><path d="m288.341 247.101-7.225 1.94-5.39-8.124-14.421 3.873-.541 9.715-5.767 1.549 2.374-40.832 8.323-2.235zm-15.881-11.106-9.959-15.26-.973 18.195z"/><path d="m320.02 247.609 9.07-37.744 14.711 3.535c2.489.599 4.492 1.353 6.008 2.263 1.517.911 2.678 2.331 3.48 4.259.803 1.929.94 3.999.41 6.21-.502 2.084-1.545 3.749-3.131 4.996-1.587 1.247-3.501 1.825-5.742 1.735 2.544 1.099 4.295 2.659 5.252 4.683.955 2.025 1.155 4.197.597 6.52-.699 2.914-2.242 5.131-4.627 6.655s-5.557 1.808-9.522.856zm7.806-4.121 8.792 2.114c1.862.448 3.449.313 4.763-.406 1.313-.717 2.17-1.906 2.568-3.565.38-1.585.145-3.017-.708-4.294-.854-1.278-2.185-2.135-3.99-2.568l-8.821-2.121zm3.901-16.23 8.295 1.994c1.696.408 3.157.224 4.388-.554 1.23-.777 2.034-1.949 2.41-3.516.416-1.732.161-3.145-.767-4.236-.927-1.09-2.146-1.817-3.657-2.181l-8.156-1.96z"/><path d="m373.296 267.522-22.403-11.592 17.841-34.477 22.176 11.474-2.653 5.128-15.964-8.259-4.836 9.345 12.833 6.64-2.589 5.001-12.83-6.64-4.992 9.648 16.189 8.377z"/><path d="m386.962 279.025-5.426-4.595 15.954-37.36 5.643 4.779-12.434 28.453 26.17-16.817 4.449 3.768z"/><path d="m411.883 308.29-15.138-20.178 31.051-23.298 14.985 19.973-4.618 3.465-10.788-14.376-8.415 6.315 8.671 11.556-4.505 3.379-8.672-11.556-8.689 6.52 10.94 14.581z"/><path d="m424.961 338.535-2.849-6.823 12.401-11.711-3.79-9.08-14.723 6.147-2.696-6.456 35.824-14.954 6.486 15.536c1.803 4.322 2.153 7.904 1.05 10.749-1.104 2.843-3.204 4.912-6.3 6.204-4.604 1.922-8.669 1.092-12.195-2.49zm10.931-29.771 3.352 8.03c.973 2.328 2.186 3.856 3.639 4.583 1.455.728 3.039.735 4.754.02 1.575-.658 2.614-1.749 3.118-3.274.503-1.525.335-3.293-.504-5.306l-3.571-8.556z"/><path d="m429.103 367.26-3.671-24.957 38.406-5.649 3.634 24.705-5.713.839-2.614-17.781-10.41 1.531 2.102 14.293-5.572.817-2.1-14.291-10.749 1.581 2.652 18.036z"/></g><path d="m303.998 256.754c-62.66 0-113.736 50.393-114.916 112.777h17.582c1.177-52.689 44.369-95.194 97.334-95.194 52.967 0 96.162 42.506 97.338 95.194h17.583c-1.181-62.384-52.259-112.777-114.921-112.777z" fill="#fff200"/></svg>