<svg enable-background="new 0 0 595.276 841.89" viewBox="0 0 595.276 841.89" xmlns="http://www.w3.org/2000/svg" xmlns:xlink="http://www.w3.org/1999/xlink"><linearGradient id="a"><stop offset="0" stop-color="#d9d9d9"/><stop offset="1" stop-color="#fedbb4"/></linearGradient><linearGradient id="b" gradientUnits="userSpaceOnUse" x1="353.147" x2="353.147" xlink:href="#a" y1="340.0776" y2="500.5853"/><linearGradient id="c" gradientUnits="userSpaceOnUse" x1="307.3147" x2="307.3147" xlink:href="#a" y1="340.0776" y2="500.5847"/><linearGradient id="d" gradientUnits="userSpaceOnUse" x1="346.269" x2="346.269" xlink:href="#a" y1="340.0776" y2="500.5854"/><linearGradient id="e" gradientUnits="userSpaceOnUse" x1="295.6509" x2="295.6509" xlink:href="#a" y1="340.0776" y2="500.5855"/><linearGradient id="f" gradientUnits="userSpaceOnUse" x1="269.2534" x2="269.2534" xlink:href="#a" y1="340.0781" y2="500.584"/><linearGradient id="g" gradientUnits="userSpaceOnUse" x1="231.8833" x2="231.8833" xlink:href="#a" y1="340.0776" y2="500.5853"/><linearGradient id="h" gradientUnits="userSpaceOnUse" x1="274.2083" x2="274.2083" xlink:href="#a" y1="340.0776" y2="500.5852"/><linearGradient id="i" gradientUnits="userSpaceOnUse" x1="345.9653" x2="345.9653" xlink:href="#a" y1="340.0781" y2="500.5814"/><linearGradient id="j" gradientUnits="userSpaceOnUse" x1="236.6836" x2="236.6836" xlink:href="#a" y1="340.0786" y2="500.5844"/><linearGradient id="k" gradientUnits="userSpaceOnUse" x1="239.9648" x2="239.9648" xlink:href="#a" y1="340.0761" y2="500.5855"/><linearGradient id="l" gradientUnits="userSpaceOnUse" x1="300.9034" x2="300.9034" xlink:href="#a" y1="340.08" y2="500.5846"/><path d="m81.423 139.951 217.019 566v-566z" fill="#eee824"/><g fill="#374ea2"><path d="m298.442 139.951v566l217.02-566z"/><path d="m137.012 151.209h9.042l6.3 47.961 6.22-47.961h8.778l-10.394 66.645h-9.374z"/><path d="m164.679 199.307h8.305v18.548h-8.305z"/><path d="m178.235 151.209h8.649v25.185l9.06-25.185h11.503l-10.214 25.155 10.673 41.49h-10.652l-5.902-27.408-4.468 11.146v16.263h-8.649z"/><path d="m210.274 199.307h8.306v18.548h-8.306z"/><path d="m236.872 151.209h8.649v23.321h9.451v-23.321h8.688v66.645h-8.688v-26.958h-9.451v26.958h-8.649z"/><path d="m268.319 184.578c0-10.88 1.272-19.351 3.819-25.413 2.546-6.062 6.091-9.092 10.635-9.092 4.659 0 8.249 2.978 10.768 8.933 2.521 5.956 3.781 14.297 3.781 25.026 0 7.789-.551 14.177-1.651 19.162-1.101 4.985-2.692 8.865-4.773 11.638-2.082 2.773-4.675 4.16-7.781 4.16-3.157 0-5.77-1.197-7.838-3.592-2.068-2.394-3.746-6.183-5.031-11.365-1.287-5.182-1.929-11.668-1.929-19.457zm8.649.09c0 6.728.525 11.563 1.575 14.502 1.05 2.94 2.479 4.41 4.287 4.41 1.858 0 3.296-1.439 4.315-4.318 1.018-2.879 1.527-8.047 1.527-15.503 0-6.273-.532-10.857-1.594-13.752-1.063-2.894-2.505-4.341-4.325-4.341-1.744 0-3.144 1.47-4.201 4.41-1.056 2.94-1.584 7.804-1.584 14.592z"/></g><path d="m305.227 151.209h7.825v50.234h12.214v16.412h-20.039z" fill="#eee824"/><path d="m327.46 195.807 7.446-1.227c.16 3.182.489 5.607.984 7.273.806 2.698 1.958 4.046 3.455 4.046 1.117 0 1.977-.689 2.583-2.069.605-1.379.906-2.977.906-4.796 0-1.728-.288-3.273-.864-4.637-.575-1.364-1.912-2.652-4.008-3.864-3.432-2.03-5.88-4.728-7.342-8.092-1.474-3.364-2.211-7.652-2.211-12.865 0-3.425.377-6.66 1.131-9.706.755-3.046 1.889-5.439 3.404-7.183 1.515-1.743 3.591-2.614 6.228-2.614 3.236 0 5.703 1.584 7.402 4.751s2.71 8.206 3.031 15.116l-7.376 1.136c-.196-3-.608-5.183-1.234-6.546-.628-1.364-1.495-2.046-2.602-2.046-.909 0-1.595.508-2.055 1.523-.461 1.016-.691 2.25-.691 3.705 0 1.061.191 2.016.57 2.864.368.879 1.244 1.698 2.626 2.455 3.42 1.939 5.87 3.902 7.351 5.887 1.48 1.985 2.556 4.448 3.23 7.387.674 2.94 1.011 6.228 1.011 9.865 0 4.273-.449 8.213-1.348 11.82-.898 3.607-2.154 6.342-3.766 8.206-1.613 1.864-3.645 2.796-6.099 2.796-4.308 0-7.291-2.182-8.948-6.546-1.657-4.365-2.594-9.911-2.814-16.639z" fill="#eee824"/><path d="m354.392 151.209h14.649c2.441 0 4.316 1.591 5.623 4.773s1.961 7.122 1.961 11.82c0 3.94-.467 7.319-1.399 10.138-.622 1.879-1.532 3.364-2.729 4.455 1.819 1.152 3.159 3.13 4.017 5.933.857 2.803 1.286 6.327 1.286 10.57 0 3.455-.305 6.562-.915 9.319-.61 2.758-1.445 4.94-2.505 6.546-.656 1-1.646 1.728-2.971 2.182-1.763.606-2.932.909-3.508.909h-13.509zm7.894 26.141h3.403c1.221 0 2.07-.553 2.549-1.66.478-1.106.717-2.705.717-4.796 0-1.939-.239-3.455-.717-4.546s-1.311-1.636-2.497-1.636h-3.455zm0 26.185h3.99c1.348 0 2.298-.629 2.851-1.886.554-1.258.829-2.948.829-5.069 0-1.97-.273-3.553-.82-4.751-.547-1.197-1.506-1.796-2.876-1.796h-3.974z" fill="#eee824"/><path d="m381.877 151.209h20.972v14.229h-13.128v10.592h12.179v13.593h-12.179v13.138h13.508v15.093h-21.351v-66.645z" fill="#eee824"/><path d="m407.427 151.209h20.972v14.229h-13.129v10.592h12.179v13.593h-12.179v13.138h13.508v15.093h-21.352v-66.645z" fill="#eee824"/><path d="m433.028 151.209h7.826v25.185l8.197-25.185h10.408l-9.242 25.155 9.656 41.49h-9.637l-5.34-27.408-4.043 11.146v16.263h-7.826v-66.646z" fill="#eee824"/><path d="m241.567 254.881h25.056l-1.018 11.545c-2.522 3.919-4.716 8.159-6.58 12.721-2.259 5.542-4.201 11.713-5.825 18.515-1.282 5.29-2.38 11.545-3.299 18.767h-8.556c1.561-10.048 3.364-18.473 5.411-25.274 2.046-6.801 4.979-14.078 8.795-21.832h-15.257z" fill="#374ea2"/><path d="m269.706 254.881h25.055l-1.018 11.545c-2.523 3.919-4.716 8.159-6.579 12.721-2.259 5.542-4.201 11.713-5.825 18.515-1.282 5.29-2.381 11.545-3.299 18.767h-8.556c1.56-10.048 3.364-18.473 5.411-25.274s4.979-14.078 8.795-21.832h-15.257z" fill="#374ea2"/><path d="m308.597 283.346c-1.224-1.428-2.065-3.023-2.528-4.786-.631-2.407-.808-5.178-.531-8.313.454-5.149 2.04-9.362 4.76-12.637 2.118-2.519 4.737-3.778 7.856-3.778 4.131 0 7.044 1.568 8.741 4.702 1.697 3.135 2.336 7.082 1.917 11.839-.245 2.771-.866 5.36-1.865 7.767-.747 1.791-1.828 3.526-3.24 5.206 1.531 1.595 2.592 3.709 3.182 6.339.59 2.631.743 5.542.462 8.732-.27 3.079-.879 5.955-1.824 8.628s-1.998 4.738-3.158 6.192c-1.161 1.456-2.542 2.526-4.14 3.212-1.599.686-3.269 1.028-5.012 1.028-3.273 0-5.706-.771-7.298-2.309-1.593-1.539-2.707-3.806-3.342-6.801-.634-2.995-.79-6.34-.464-10.034.318-3.611 1.01-6.668 2.073-9.173s2.534-4.443 4.411-5.814zm2.123 14.4c-.239 2.715-.021 4.933.656 6.654.677 1.722 1.551 2.582 2.618 2.582 1.025 0 2.022-.875 2.991-2.624s1.572-3.967 1.81-6.654c.238-2.714.023-4.939-.645-6.675-.668-1.735-1.545-2.603-2.626-2.603-1.068 0-2.073.84-3.014 2.519-.942 1.679-1.538 3.946-1.79 6.801zm2.8-26.492c-.188 2.128-.006 3.841.547 5.143.553 1.301 1.384 1.952 2.494 1.952.983 0 1.848-.643 2.593-1.931.747-1.287 1.21-2.953 1.39-4.996.188-2.126.01-3.855-.533-5.184-.544-1.329-1.329-1.995-2.354-1.995-1.04 0-1.943.651-2.711 1.952-.768 1.302-1.244 2.989-1.426 5.059z" fill="#eee824"/><path d="m340.837 272.682-7.857-2.896c1.128-5.149 2.772-9.096 4.932-11.839 2.158-2.743 4.995-4.115 8.507-4.115 4.031 0 6.814 1.498 8.35 4.492 1.534 2.996 2.101 6.759 1.701 11.293-.234 2.66-.812 5.066-1.732 7.221-.921 2.156-2.19 4.046-3.809 5.668 1.143.588 1.996 1.274 2.559 2.058.915 1.259 1.565 2.918 1.953 4.975.387 2.058.456 4.514.204 7.368-.316 3.583-1.089 7.019-2.321 10.307-1.232 3.289-2.81 5.821-4.736 7.599-1.927 1.777-4.33 2.666-7.211 2.666-2.81 0-4.968-.658-6.474-1.973-1.507-1.315-2.673-3.239-3.495-5.772-.824-2.533-1.348-5.716-1.571-9.551l8.776-2.267c.034 3.442.347 5.829.939 7.158.592 1.33 1.437 1.994 2.531 1.994 1.152 0 2.185-.84 3.1-2.519.913-1.679 1.493-3.918 1.74-6.717.252-2.855.077-5.065-.523-6.633-.599-1.567-1.531-2.352-2.795-2.352-.674 0-1.632.336-2.871 1.008l1.521-12.217c.466.141.831.21 1.098.21 1.125 0 2.126-.714 3.003-2.141s1.402-3.121 1.575-5.08c.165-1.875.016-3.373-.446-4.492-.464-1.119-1.188-1.68-2.171-1.68-1.012 0-1.888.609-2.626 1.826-.741 1.216-1.358 3.351-1.851 6.401z" fill="#eee824"/><path d="m298.443 340.078c-44.322 0-80.252 35.93-80.254 80.252.002 44.323 35.932 80.253 80.254 80.254 44.323-.002 80.252-35.932 80.254-80.254-.002-44.322-35.931-80.252-80.254-80.252z"/><path d="m368.428 416.034-23.714 6.933-13.376 25.833 7.046 18.052 21.666-.56c8.231-11.016 13.564-24.311 14.906-38.771z" fill="url(#b)"/><path d="m300.825 444.699-21.456 17.164 7.68 20.626 32.061 2.52 16.151-16.823-7.027-18.005z" fill="url(#c)"/><path d="m343.978 419.646 23.659-6.918 1.709-22.1c-2.737-6.528-6.362-12.586-10.706-18.053l-16.57-7.137-18.879 7.774.454 27.93z" fill="url(#d)"/><path d="m271.056 402.503 24.904 11.094 24.286-12.711-.45-27.793-23.647-13.063-24.87 18.251z" fill="url(#e)"/><path d="m269.043 375.713 24.966-18.325-4.565-13.375c-17.435 2.033-33.078 9.888-44.948 21.587l.311 9.891z" fill="url(#f)"/><path d="m241.456 376.883-.247-7.837c-10.005 11.159-16.78 25.25-18.899 40.833l9.021-6.622z" fill="url(#g)"/><path d="m294.487 416.658-24.859-11.075-19.762 16.619 5.223 27.25 22.01 9.882 21.452-17.163z" fill="url(#h)"/><path d="m353.399 366.622c-.206-.21-.401-.431-.609-.64-4.283-4.281-9.069-8.054-14.259-11.233l4.711 7.498z" fill="url(#i)"/><path d="m232.494 406.612-10.662 7.827c-.148 1.946-.248 3.907-.248 5.892 0 12.943 3.211 25.125 8.859 35.823l12.22 6.591 9.119-12.512-5.349-27.911z" fill="url(#j)"/><path d="m233.739 461.788c2.993 4.66 6.457 8.99 10.357 12.89.683.683 1.388 1.342 2.095 1.998l-4.363-10.523z" fill="url(#k)"/><path d="m286.63 485.861-6.828 9.039c5.969 1.487 12.21 2.288 18.641 2.288 8.223 0 16.136-1.304 23.562-3.693l-3.209-5.105z" fill="url(#l)"/></svg>