<svg xmlns="http://www.w3.org/2000/svg" xmlns:xlink="http://www.w3.org/1999/xlink" viewBox="0 0 595.276 841.89"><linearGradient id="a"><stop offset="0" stop-color="#d9d9d9"/><stop offset="1" stop-color="#fedbb4"/></linearGradient><linearGradient xlink:href="#a" id="b" x1="353.147" x2="353.147" y1="340.078" y2="500.585" gradientUnits="userSpaceOnUse"/><linearGradient xlink:href="#a" id="c" x1="307.315" x2="307.315" y1="340.078" y2="500.585" gradientUnits="userSpaceOnUse"/><linearGradient xlink:href="#a" id="d" x1="346.269" x2="346.269" y1="340.078" y2="500.585" gradientUnits="userSpaceOnUse"/><linearGradient xlink:href="#a" id="e" x1="295.651" x2="295.651" y1="340.078" y2="500.586" gradientUnits="userSpaceOnUse"/><linearGradient xlink:href="#a" id="f" x1="269.253" x2="269.253" y1="340.078" y2="500.584" gradientUnits="userSpaceOnUse"/><linearGradient xlink:href="#a" id="g" x1="231.883" x2="231.883" y1="340.078" y2="500.585" gradientUnits="userSpaceOnUse"/><linearGradient xlink:href="#a" id="h" x1="274.208" x2="274.208" y1="340.078" y2="500.585" gradientUnits="userSpaceOnUse"/><linearGradient xlink:href="#a" id="i" x1="345.965" x2="345.965" y1="340.078" y2="500.581" gradientUnits="userSpaceOnUse"/><linearGradient xlink:href="#a" id="j" x1="236.684" x2="236.684" y1="340.079" y2="500.584" gradientUnits="userSpaceOnUse"/><linearGradient xlink:href="#a" id="k" x1="239.965" x2="239.965" y1="340.076" y2="500.586" gradientUnits="userSpaceOnUse"/><linearGradient xlink:href="#a" id="l" x1="300.903" x2="300.903" y1="340.08" y2="500.585" gradientUnits="userSpaceOnUse"/><path fill="#eee824" d="m81.423 139.951 217.019 566v-566z"/><g fill="#374ea2"><path d="M298.442 139.951v566l217.02-566zM137.012 151.209h9.042l6.3 47.961 6.22-47.961h8.778l-10.394 66.645h-9.374zM164.679 199.307h8.305v18.548h-8.305zM178.235 151.209h8.649v25.185l9.06-25.185h11.503l-10.214 25.155 10.673 41.49h-10.652l-5.902-27.408-4.468 11.146v16.263h-8.649zM210.274 199.307h8.306v18.548h-8.306zM236.872 151.209h8.649v23.321h9.451v-23.321h8.688v66.645h-8.688v-26.958h-9.451v26.958h-8.649zM268.319 184.578q0-16.32 3.819-25.413t10.635-9.092q6.989 0 10.768 8.933 3.781 8.933 3.781 25.026 0 11.684-1.651 19.162t-4.773 11.638-7.781 4.16q-4.736 0-7.838-3.592t-5.031-11.365q-1.93-7.773-1.929-19.457m8.649.09q0 10.093 1.575 14.502t4.287 4.41q2.787 0 4.315-4.318 1.527-4.319 1.527-15.503 0-9.41-1.594-13.752-1.595-4.341-4.325-4.341-2.616 0-4.201 4.41t-1.584 14.592"/></g><path fill="#eee824" d="M305.227 151.209h7.825v50.234h12.214v16.412h-20.039zM327.46 195.807l7.446-1.227q.24 4.774.984 7.273 1.21 4.047 3.455 4.046 1.675 0 2.583-2.069.907-2.068.906-4.796 0-2.591-.864-4.637-.863-2.046-4.008-3.864-5.149-3.045-7.342-8.092-2.211-5.046-2.211-12.865 0-5.137 1.131-9.706 1.132-4.568 3.404-7.183 2.272-2.614 6.228-2.614 4.854 0 7.402 4.751c2.548 4.751 2.71 8.206 3.031 15.116l-7.376 1.136q-.295-4.5-1.234-6.546-.942-2.046-2.602-2.046-1.364 0-2.055 1.523t-.691 3.705q0 1.592.57 2.864.553 1.319 2.626 2.455 5.13 2.909 7.351 5.887t3.23 7.387q1.011 4.41 1.011 9.865 0 6.41-1.348 11.82-1.347 5.41-3.766 8.206t-6.099 2.796q-6.462 0-8.948-6.546-2.485-6.547-2.814-16.639M354.392 151.209h14.649q3.662 0 5.623 4.773c1.961 4.773 1.961 7.122 1.961 11.82q0 5.91-1.399 10.138-.933 2.819-2.729 4.455 2.73 1.728 4.017 5.933 1.286 4.205 1.286 10.57 0 5.183-.915 9.319t-2.505 6.546q-.984 1.5-2.971 2.182-2.644.909-3.508.909h-13.509zm7.894 26.141h3.403q1.831 0 2.549-1.66.717-1.66.717-4.796 0-2.909-.717-4.546c-.717-1.637-1.311-1.636-2.497-1.636h-3.455zm0 26.185h3.99q2.022 0 2.851-1.886.83-1.887.829-5.069 0-2.955-.82-4.751t-2.876-1.796h-3.974zM381.877 151.209h20.972v14.229h-13.128v10.592H401.9v13.593h-12.179v13.138h13.508v15.093h-21.351zM407.427 151.209h20.972v14.229H415.27v10.592h12.179v13.593H415.27v13.138h13.508v15.093h-21.352v-66.645zM433.028 151.209h7.826v25.185l8.197-25.185h10.408l-9.242 25.155 9.656 41.49h-9.637l-5.34-27.408-4.043 11.146v16.263h-7.826z"/><path fill="#374ea2" d="M241.567 254.881h25.056l-1.018 11.545q-3.784 5.878-6.58 12.721-3.389 8.313-5.825 18.515-1.922 7.935-3.299 18.767h-8.556q2.341-15.072 5.411-25.274 3.07-10.201 8.795-21.832h-15.257zM269.706 254.881h25.055l-1.018 11.545q-3.784 5.878-6.579 12.721-3.389 8.313-5.825 18.515-1.922 7.935-3.299 18.767h-8.556q2.34-15.072 5.411-25.274c3.071-10.202 4.979-14.078 8.795-21.832h-15.257z"/><path fill="#eee824" d="M308.597 283.346a11.9 11.9 0 0 1-2.528-4.786q-.947-3.61-.531-8.313.68-7.724 4.76-12.637 3.177-3.778 7.856-3.778 6.196 0 8.741 4.702 2.546 4.703 1.917 11.839-.367 4.157-1.865 7.767-1.121 2.686-3.24 5.206 2.297 2.393 3.182 6.339t.462 8.732q-.406 4.618-1.824 8.628c-1.418 4.01-1.998 4.738-3.158 6.192q-1.742 2.184-4.14 3.212a12.6 12.6 0 0 1-5.012 1.028q-4.91-.001-7.298-2.309-2.39-2.308-3.342-6.801t-.464-10.034q.478-5.416 2.073-9.173c1.595-3.757 2.534-4.443 4.411-5.814m2.123 14.4q-.359 4.072.656 6.654 1.017 2.582 2.618 2.582 1.537 0 2.991-2.624c1.454-2.624 1.572-3.967 1.81-6.654q.357-4.071-.645-6.675t-2.626-2.603q-1.602 0-3.014 2.519-1.413 2.519-1.79 6.801m2.8-26.492q-.282 3.191.547 5.143.83 1.952 2.494 1.952 1.475 0 2.593-1.931 1.12-1.931 1.39-4.996.282-3.19-.533-5.184-.816-1.994-2.354-1.995-1.56 0-2.711 1.952-1.153 1.953-1.426 5.059M340.837 272.682l-7.857-2.896q1.692-7.724 4.932-11.839 3.238-4.115 8.507-4.115 6.046 0 8.35 4.492 2.301 4.493 1.701 11.293-.351 3.99-1.732 7.221a17.9 17.9 0 0 1-3.809 5.668q1.714.882 2.559 2.058 1.372 1.889 1.953 4.975.581 3.087.204 7.368a39 39 0 0 1-2.321 10.307q-1.847 4.933-4.736 7.599-2.89 2.666-7.211 2.666-4.215 0-6.474-1.973-2.261-1.973-3.495-5.772-1.236-3.799-1.571-9.551l8.776-2.267q.051 5.164.939 7.158.889 1.995 2.531 1.994 1.728 0 3.1-2.519 1.37-2.519 1.74-6.717.378-4.282-.523-6.633-.899-2.351-2.795-2.352-1.012 0-2.871 1.008l1.521-12.217q.698.21 1.098.21 1.687 0 3.003-2.141c1.316-2.141 1.402-3.121 1.575-5.08q.247-2.813-.446-4.492-.696-1.68-2.171-1.68-1.518 0-2.626 1.826-1.111 1.825-1.851 6.401"/><path d="M298.443 340.078c-44.322 0-80.252 35.93-80.254 80.252.002 44.323 35.932 80.253 80.254 80.254 44.323-.002 80.252-35.932 80.254-80.254-.002-44.322-35.931-80.252-80.254-80.252"/><path fill="url(#b)" d="m368.428 416.034-23.714 6.933-13.376 25.833 7.046 18.052 21.666-.56a76.45 76.45 0 0 0 14.906-38.771z"/><path fill="url(#c)" d="m300.825 444.699-21.456 17.164 7.68 20.626 32.061 2.52 16.151-16.823-7.027-18.005z"/><path fill="url(#d)" d="m343.978 419.646 23.659-6.918 1.709-22.1a76.7 76.7 0 0 0-10.706-18.053l-16.57-7.137-18.879 7.774.454 27.93z"/><path fill="url(#e)" d="m271.056 402.503 24.904 11.094 24.286-12.711-.45-27.793-23.647-13.063-24.87 18.251z"/><path fill="url(#f)" d="m269.043 375.713 24.966-18.325-4.565-13.375c-17.435 2.033-33.078 9.888-44.948 21.587l.311 9.891z"/><path fill="url(#g)" d="m241.456 376.883-.247-7.837c-10.005 11.159-16.78 25.25-18.899 40.833l9.021-6.622z"/><path fill="url(#h)" d="m294.487 416.658-24.859-11.075-19.762 16.619 5.223 27.25 22.01 9.882 21.452-17.163z"/><path fill="url(#i)" d="M353.399 366.622c-.206-.21-.401-.431-.609-.64a77.2 77.2 0 0 0-14.259-11.233l4.711 7.498z"/><path fill="url(#j)" d="m232.494 406.612-10.662 7.827a78 78 0 0 0-.248 5.892c0 12.943 3.211 25.125 8.859 35.823l12.22 6.591 9.119-12.512-5.349-27.911z"/><path fill="url(#k)" d="M233.739 461.788a77.3 77.3 0 0 0 10.357 12.89 77 77 0 0 0 2.095 1.998l-4.363-10.523z"/><path fill="url(#l)" d="m286.63 485.861-6.828 9.039a77 77 0 0 0 18.641 2.288 76.8 76.8 0 0 0 23.562-3.693l-3.209-5.105z"/></svg>