<svg xmlns="http://www.w3.org/2000/svg" viewBox="0 0 612 792"><path d="M23.757 49.656v170.37c.002 118.492 11.346 211.742 32.341 285.948C100.771 664.192 199.27 750.521 304.33 776.325l1.676.411 1.673-.411c105.06-25.804 203.559-112.133 248.231-270.351 20.995-74.206 32.339-167.458 32.341-285.948V49.656z"/><path fill="#fff" d="M543.697 220.026c-.006 108.476-7.521 201.03-26.467 277.845-18.941 76.784-49.425 137.988-95.527 182.912-30.715 29.94-68.294 52.521-113.473 67.656l-2.226.746v13.128c99.268-25.194 192.897-106.691 236.434-260.152 20.526-72.507 31.816-164.535 31.812-282.136V84.381h-30.553z"/><path fill="#fff" d="M37.786 230.133c.014 2.516.039 5.008.063 7.5h491.772q.03-3.737.047-7.5z"/><g fill="#4156a6"><path d="M60.635 210.712 45.437 68.98h9.311l10.761 104.897L75.92 68.98h9.107L69.8 210.712zM119.134 210.712 103.936 68.98h9.311l10.761 104.897L134.419 68.98h9.107l-15.228 141.732zM166.814 68.98h16.996q5.046.001 7.526 1.401 2.48 1.404 4.438 5.85 1.959 4.447 3.264 11.844t1.305 16.58q0 9.96-1.609 18.272-1.61 8.316-4.365 12.472 3.887 3.772 5.975 12.858 2.09 9.09 2.089 21.366 0 9.668-1.349 18.805-1.35 9.137-3.684 14.598-2.336 5.465-5.758 6.72-2.147.775-10.355.967h-14.473zm8.585 23.59v32.774h5.627q5.018 0 6.236-.483 2.203-.87 3.466-5.075 1.262-4.206 1.262-11.07 0-6.572-1.088-10.684-1.089-4.107-3.234-4.979-1.276-.482-7.338-.483zm0 56.364v37.898h7.947q4.641 0 5.888-.87 1.914-1.16 3.118-5.655 1.203-4.497 1.203-12.037 0-6.38-.928-10.828-.929-4.447-2.683-6.477-1.755-2.03-7.614-2.03zM210.899 210.712V68.98h18.069q6.816 0 9.905 3.819t4.945 13.583q1.855 9.766 1.856 22.333 0 15.953-2.814 26.346t-8.411 13.1q2.785 5.415 4.598 11.892 1.812 6.478 4.887 23.01l5.192 27.65h-10.268l-6.207-30.841q-3.306-16.532-4.525-20.834t-2.582-5.898q-1.362-1.595-4.321-1.595h-1.74v59.168zm8.585-81.791h6.352q6.177 0 7.715-1.74 1.536-1.74 2.407-5.994.87-4.253.87-10.635 0-7.153-1.146-11.554-1.147-4.398-3.234-5.559-1.044-.482-6.265-.483h-6.7zM254.897 68.98h8.585v76.764q0 18.273.319 23.687.55 8.701 2.625 13.971 2.073 5.27 5.67 5.269 3.654.001 5.511-4.979 1.855-4.978 2.233-12.23.377-7.25.377-24.073V68.98h8.585v74.443q0 25.524-.696 36.061-.696 10.539-2.566 17.789c-1.87 7.25-2.915 8.686-5.003 11.553q-3.133 4.302-8.18 4.303-6.091 0-9.237-4.689-3.147-4.688-4.975-12.182-1.827-7.49-2.407-15.71-.841-12.181-.841-35.965zM296.864 164.596l8.352-2.707q.754 14.02 3.06 20.593 2.306 6.575 6.221 6.574 4.149.001 6.252-5.849 2.101-5.849 2.102-13.681 0-5.026-.885-8.556t-3.088-6.14q-1.509-1.74-6.875-6.188-6.903-5.703-9.687-14.019-3.915-11.698-3.915-28.521 0-10.827 1.842-20.255 1.841-9.425 5.308-14.356 3.465-4.93 8.367-4.931 8.007 0 12.053 11.698 4.046 11.7 4.248 31.228l-8.584 1.257q-.553-10.925-2.365-15.71t-5.438-4.786q-3.741 0-5.859 5.124-1.363 3.288-1.363 8.798 0 5.03 1.277 8.604 1.623 4.545 7.889 9.475 6.265 4.932 9.266 10.199c2.002 3.515 3.568 8.314 4.699 14.406q1.697 9.136 1.697 22.574 0 12.183-2.031 22.816-2.031 10.637-5.742 15.807-3.713 5.172-9.252 5.173-8.063 0-12.385-12.423-4.324-12.418-5.164-36.204M349.417 210.712V92.957h-12.615V68.98h33.789v23.977h-12.588v117.756h-8.586zM377.317 210.712V68.98h31.527v23.977h-22.941v31.421h21.348v23.88h-21.348v38.575h23.754v23.88zM418.011 210.712V68.98h12.848l7.715 96.68 7.629-96.68h12.877v141.732h-7.977V99.144l-8.439 111.568h-8.266l-8.412-111.568v111.568zM513.692 158.602l8.324 8.798q-1.915 23.204-6.367 34.466-4.453 11.265-11.297 11.264-8.47 0-13.922-19.287-5.453-19.288-5.453-52.739 0-35.385 5.483-54.962 5.481-19.579 14.414-19.578 7.803 0 12.676 15.372 2.9 9.09 4.35 26.104l-8.498 6.768q-.753-11.022-3.146-17.402c-2.393-6.38-3.533-6.381-5.814-6.381q-4.73 0-7.672 11.311-2.945 11.312-2.945 36.642 0 26.879 2.9 38.285 2.9 11.408 7.541 11.408 3.422 0 5.889-7.251 2.462-7.252 3.537-22.818M250.537 395.272h31.706v313.899h-31.706zM173.814 320.411h31.706V634.31h-31.706zM97.092 261.609h31.706v297.84H97.092z"/></g><path fill="#fff" d="M352.465 470.435q-2.874-1.617-4.179-4.447t-1.306-6.205q0-5.766 3.018-9.527 3.02-3.762 8.583-3.762 5.511 0 8.556 3.762 3.046 3.762 3.046 9.527 0 3.587-1.397 6.381t-3.929 4.272q3.216 1.722 4.892 5.027 1.673 3.304 1.674 7.629 0 7.137-3.414 11.602t-9.084 4.465q-5.274 0-8.78-3.691-4.14-4.36-4.14-11.953 0-4.184 1.556-7.682 1.555-3.5 4.904-5.398m.844 12.128q0 4.078 1.569 6.363t3.915 2.285q2.294 0 3.797-2.197c1.503-2.197 1.503-3.58 1.503-6.346q0-3.62-1.529-5.818-1.53-2.197-3.876-2.197-2.716 0-4.048 2.496c-1.332 2.496-1.331 3.469-1.331 5.414m.685-22.078q0 2.954 1.253 4.605 1.251 1.653 3.335 1.652 2.109 0 3.375-1.67c1.266-1.67 1.266-2.654 1.266-4.623q0-2.778-1.253-4.447c-1.253-1.669-1.938-1.67-3.309-1.67q-2.136 0-3.401 1.688-1.266 1.689-1.266 4.465M401.165 489.067v9.176h-25.972q.422-5.204 2.531-9.861c2.109-4.657 4.184-7.225 8.332-12.357q5.01-6.222 6.144-8.438 1.53-3.059 1.529-6.047 0-3.305-1.332-5.08c-1.332-1.775-2.113-1.775-3.678-1.775q-2.32 0-3.691 1.863c-1.371 1.863-1.441 3.305-1.582 6.188l-7.383-.984q.659-8.157 4.14-11.707t8.701-3.551q5.721 0 8.991 4.113c3.27 4.113 3.27 6.152 3.27 10.23q0 3.48-.936 6.627-.937 3.147-2.967 6.592-1.345 2.285-4.852 6.574c-3.507 4.289-3.819 4.758-4.443 5.695a18 18 0 0 0-1.516 2.742zM406.28 484.989l7.383-1.02q.316 3.34 1.872 5.291c1.556 1.951 2.232 1.951 3.586 1.951q2.32 0 3.929-2.514t1.608-7.576q0-4.746-1.595-7.119-1.596-2.373-4.153-2.373-3.19 0-5.722 3.762l-6.012-1.16 3.797-26.824h19.591v9.246H416.59l-1.16 8.754q2.478-1.652 5.063-1.652 4.93 0 8.358 4.781 3.428 4.782 3.428 12.41 0 6.363-2.768 11.355-3.77 6.82-10.468 6.82-5.353 0-8.728-3.832-3.376-3.83-4.035-10.3M448.731 446.493q5.616 0 8.78 5.344 3.771 6.328 3.771 20.988 0 14.625-3.797 21.023-3.138 5.274-8.754 5.273-5.643 0-9.097-5.783c-3.454-5.783-3.454-10.729-3.454-20.619q0-14.555 3.797-20.953 3.138-5.273 8.754-5.273m0 8.192q-1.344 0-2.399 1.143c-1.055 1.143-1.248 2.127-1.635 4.096q-.765 3.832-.765 12.902c0 9.07.229 10.201.686 12.463s1.032 3.768 1.727 4.518q1.041 1.125 2.387 1.125c1.346 0 1.696-.381 2.4-1.143q1.054-1.143 1.635-4.096.765-3.797.765-12.867c0-9.07-.229-10.201-.686-12.463s-1.033-3.773-1.727-4.535q-1.043-1.144-2.388-1.143M401.681 379.946c48.064-.897 72.743-38.259 80.3-52.22-4.216-39.54-37.676-70.339-78.336-70.339-43.514 0-78.789 35.275-78.789 78.79 0 3.868.284 7.67.823 11.389 15.002 15.194 39.64 31.786 76.002 32.38"/><path fill="#c2c3c6" d="M401.681 379.946c-36.362-.594-61-17.186-76.003-32.38 5.52 38.115 38.321 67.399 77.967 67.399 43.515 0 78.788-35.276 78.788-78.788 0-2.855-.156-5.674-.452-8.451-7.557 13.96-32.236 51.322-80.3 52.22"/><path d="M443.402 404.186a79.2 79.2 0 0 0 27.394-26.796l-19.346 1.051zM390.443 386.388l-29.897 8.295.303 7.63c12.326 7.988 27.015 12.65 42.795 12.65 2.149 0 4.267-.11 6.368-.281l2.723-2.371zM347.414 339.557l-15.036-21.258-4.907-2.277a78.7 78.7 0 0 0-2.612 20.153 78.6 78.6 0 0 0 5.949 30.059l5.891.281zM460.369 281.523c-9.162-9.505-20.675-16.723-33.62-20.686l13.637 18.926zM473.742 323.311l8.683 12.538a78.4 78.4 0 0 0-6.517-31.08zM387.717 259c-17.498 3.592-32.869 12.998-44.037 26.099l28.964-7.066z"/><path fill="#e5e6e9" d="M351.388 325.215c-3.617-.926-8.453-4.689-11.872-9.672l-7.139 2.756 15.036 21.258 30.76-7.258 4.088-7.004c-10.304.439-26.896.933-30.873-.08"/><path d="m378.174 332.298 18.665-31.972 29.897.693 20.22 24.54-16.591 31.624-32.141 2.248z"/><path fill="#737b7f" d="M425.7 308.276h-26.96l-6.442 10.835c4.181 3.249 9.641 3.511 16.813 3.511 19.983 0 22.983-4.666 22.983-6.914 0-2.245-3.066-5.335-6.394-7.432"/><path fill="#e5e6e9" d="M469.768 331.262c-7.136 21.415-14.343 24.883-24.196 33.18l8.126 9.334 16.07-2.075c5.576-7.13 8.785-15.037 9.161-28.316zM442.762 368.781c-12.646 4.977-30.683 7.369-44.026 2.149l-2.589 12.522 16.588 17.454 22.988-4.837 13.824-20.392zM355.183 341.807l-12.782 25.915c5.918 8.054 16.063 18.152 18.493 19.704l23.329-7.431 4.222-13.884c-10.695-2.204-16.394-4.889-20.119-7.374-3.982-2.65-7.722-8.715-13.143-16.93M424.695 282.821c-4.034 3.2-9.293 5.237-16.968 5.237-7.568 0-13.245-1.037-17.816-3.554l-9.316 2.169 12.96 11.408h34.22l9.851-13.652zM464.066 298.082c2.719 5.95 4.994 11.078 5.091 18.015l4.776 7.778 2.062-18.914a79 79 0 0 0-15.626-23.437l-11.271-.992c6.037 5.096 12.21 11.51 14.968 17.55"/><path fill="#c2c3c6" d="m344.667 284.858-.987.242c-7.543 8.846-13.167 19.37-16.22 30.95l3.474 1.589c3.893-11.951 8.635-23.403 13.733-32.781"/></svg>