<svg height="1000" viewBox="0 0 1000 1000" width="1000" xmlns="http://www.w3.org/2000/svg"><g transform="matrix(1.6759106 0 0 1.6759106 -13.793968 -163.74774)"><path d="m 306.576 679.48 l 52.416 -164.952 c 3.168 8.496 4.896 17.568 6.408 26.64 c 9 .072 14.832 -1.368 22.32 -6.336 c -1.8 -6.264 -3.96 -12.24 -6.624 -18 c .648 .36 1.368 .72 2.016 1.08 c 18.648 9.648 48.744 10.152 65.88 -3.384 c -3.456 -5.112 -6.984 -10.008 -11.304 -14.472 c 10.44 -2.376 20.664 -6.336 29.952 -12.24 c 12.24 -7.92 20.52 -17.856 27.864 -30.168 c -3.744 -1.512 -7.344 -2.952 -11.16 -4.104 c 9.36 -5.04 16.848 -11.16 22.968 -18 c 8.928 -10.08 14.616 -21.528 19.944 -33.696 c -6.264 -.864 -12.528 -1.728 -18.864 -2.088 c 9.072 -8.136 15.408 -17.424 19.512 -27.648 c 5.976 -14.832 6.552 -29.952 5.688 -45.648 c -5.04 .72 -10.008 1.512 -14.904 2.952 c 3.816 -11.736 4.752 -22.32 3.528 -32.4 c -1.656 -13.536 -7.128 -25.56 -13.176 -37.656 c -6.624 5.256 -12.6 10.584 -17.928 17.208 c -8.352 -21.312 -20.664 -36.648 -41.832 -46.224 l 37.44 -117.72 H 126.432 l 37.44 117.72 c -21.168 9.576 -33.48 24.912 -41.832 46.224 c -5.328 -6.624 -11.304 -11.952 -17.928 -17.208 c -6.048 12.096 -11.52 24.12 -13.176 37.656 c -1.224 10.08 -.288 20.664 3.528 32.4 c -4.896 -1.44 -9.864 -2.232 -14.904 -2.952 c -.864 15.696 -.288 30.816 5.688 45.648 c 4.104 10.224 10.44 19.512 19.512 27.648 c -6.336 .36 -12.6 1.224 -18.864 2.088 c 5.328 12.168 11.016 23.616 19.944 33.696 c 6.12 6.84 13.608 12.96 22.968 18 c -3.816 1.152 -7.416 2.592 -11.16 4.104 c 7.344 12.312 15.624 22.248 27.864 30.168 c 9.288 5.904 19.512 9.864 29.952 12.24 c -4.32 4.464 -7.848 9.36 -11.304 14.472 c 17.136 13.536 47.232 13.032 65.88 3.384 c .648 -.36 1.368 -.72 2.016 -1.08 c -2.664 5.76 -4.824 11.736 -6.624 18 c 7.488 4.968 13.32 6.408 22.32 6.336 c 1.512 -9.072 3.24 -18.144 6.408 -26.64 z m -133.632 -420.552 l 6.768 21.384 c -3.456 .864 -6.912 1.8 -10.224 2.952 c 2.592 -7.848 3.528 -16.056 3.456 -24.336 z m 8.064 25.344 l 39.6 124.704 c -1.8 3.96 -3.528 8.064 -5.04 12.384 c -2.016 -7.56 -4.536 -14.832 -7.704 -21.672 c -5.112 -10.872 -11.808 -20.664 -20.52 -28.944 l -.576 -.576 c 1.656 -13.32 -.288 -24.624 -5.256 -36.864 c -2.376 1.08 -4.824 2.088 -7.2 3.312 c 7.56 -16.848 7.632 -34.2 6.696 -52.344 z m -11.016 129.6 c -.216 3.384 -.288 6.768 -.216 10.224 c -1.224 -1.512 -2.448 -2.952 -3.744 -4.32 c 1.368 -1.944 2.664 -3.888 3.96 -5.904 z m 222.552 -4.896 l 39.6 -124.704 c -.936 18.144 -.864 35.496 6.696 52.344 c -2.376 -1.224 -4.824 -2.232 -7.2 -3.312 c -4.968 12.24 -6.912 23.544 -5.256 36.864 l -.576 .576 c -8.712 8.28 -15.408 18.072 -20.52 28.944 c -3.168 6.84 -5.688 14.112 -7.704 21.672 c -1.512 -4.32 -3.24 -8.424 -5.04 -12.384 z m 40.896 -128.664 l 6.768 -21.384 c -.072 8.28 .864 16.488 3.456 24.336 c -3.312 -1.152 -6.768 -2.088 -10.224 -2.952 z m 9.72 133.56 c 1.296 2.016 2.592 3.96 3.96 5.904 c -1.296 1.368 -2.52 2.808 -3.744 4.32 c .072 -3.456 0 -6.84 -.216 -10.224 z" fill="#bc934b"/><path d="M 135 118.888 L 306.576 658.888 L 478.152 118.888 Z" fill="#fff"/><path d="M 469.584 125.152 L 143.568 125.152 L 167.544 200.752 L 445.608 200.752 Z" fill="#ed1c24"/><path d="M 378.216 412.648 L 234.936 412.648 L 261.576 496.6 L 351.576 496.6 Z" fill="#ed1c24"/><path d="M 210.168 135.88 L 210.168 145.888 L 191.664 180.088 L 210.744 180.088 L 210.744 190.024 L 175.68 190.024 L 175.68 180.088 L 194.112 145.888 L 176.976 145.888 L 176.976 135.88 Z" fill="#fff"/><path d="M 269.712 190.024 V 135.88 h 20.52 c 2.736 0 4.824 .288 6.264 .792 c 1.44 .504 2.736 1.44 3.888 2.664 c 1.224 1.224 2.088 2.736 2.736 4.608 c .648 1.8 .936 3.816 .936 5.976 c 0 3.168 -.576 5.76 -1.8 7.848 c -1.224 2.088 -3.024 3.456 -5.328 4.248 c 2.664 .792 4.68 2.232 6.12 4.392 c 1.368 2.232 2.088 5.04 2.088 8.568 c 0 4.968 -1.296 8.712 -3.816 11.232 c -2.52 2.592 -6.192 3.816 -11.016 3.816 z m 12.024 -9.936 h 6.984 c 6.048 0 6.48 -12.744 0 -12.744 h -6.984 z m 0 -22.752 h 6.768 c 5.472 0 5.832 -11.448 0 -11.448 h -6.768 z" fill="#fff"/><path d="M 312.912 190.024 V 135.88 h 20.592 c 5.544 0 9.72 1.368 12.456 3.96 c 2.808 2.664 4.176 6.624 4.176 11.88 c 0 3.672 -.648 6.768 -1.871 9.288 c -1.296 2.52 -3.096 4.32 -5.544 5.4 l 10.656 23.616 h -12.888 l -9.288 -22.68 h -5.472 v 22.68 z m 18.792 -44.136 h -5.976 v 11.448 h 6.192 c 6.912 0 7.272 -11.448 -.216 -11.448 z" fill="#fff"/><path d="M 405.36 135.88 L 437.256 135.88 L 437.256 148.552 L 417.744 148.552 L 417.744 157.336 L 433.8 157.336 L 433.8 167.344 L 417.744 167.344 L 417.744 177.424 L 437.472 177.424 L 437.472 190.024 L 405.36 190.024 L 405.36 167.344 L 398.232 167.344 L 398.232 157.336 L 405.36 157.336 Z" fill="#fff"/><path d="m 247.104 135.88 l 17.064 54.144 h -13.392 l -3.24 -12.528 H 230.76 l -4.752 12.528 h -11.016 l 20.232 -54.144 z m -2.52 31.608 l -4.608 -14.616 l -5.544 14.616 z" fill="#fff"/><path d="M 393.336 135.88 L 393.336 145.888 L 374.832 180.088 L 393.912 180.088 L 393.912 190.024 L 358.848 190.024 L 358.848 180.088 L 377.352 145.888 L 360.144 145.888 L 360.144 135.88 Z" fill="#fff"/><path d="M 445.608 200.752 L 306.576 200.752 L 306.576 412.648 L 378.216 412.648 Z" fill="#034ea2"/><path d="M 306.576 496.6 L 306.576 638.224 L 351.576 496.6 Z" fill="#034ea2"/><path d="M 286.92001 301.40799 H 306.57601 V 320.415989 H 286.92001 Z" fill="#034ea2"/><path d="m 306.576 260.44 c -25.488 0 -46.296 20.808 -46.296 46.296 c 0 25.488 20.808 46.296 46.296 46.296 v 38.592 c -46.728 0 -84.816 -38.16 -84.816 -84.888 c 0 -46.728 38.088 -84.888 84.816 -84.888 z" fill="#034ea2"/><path d="m 306.576 320.416 h 44.208 c -5.832 18.864 -23.472 32.616 -44.208 32.616 v 38.592 c 46.728 0 84.816 -38.16 84.816 -84.888 c 0 -1.8 -.072 -3.6 -.144 -5.328 h -84.672 z" fill="#fff"/><path d="m 306.576 260.44 c 11.88 0 22.752 4.536 30.96 11.952 l 26.856 -27.648 C 349.2 230.56 328.896 221.848 306.576 221.848 Z" fill="#fff"/><path d="M 322.488 487.744 L 329.256 481.048 L 313.2 464.992 L 328.752 449.512 L 335.304 455.992 L 347.256 455.776 L 346.32 442.816 L 324.648 421.144 L 312.552 433.24 L 321.984 442.744 L 306.576 458.224 L 291.168 442.744 L 300.6 433.24 L 288.504 421.144 L 262.8 446.848 L 274.896 458.944 L 284.4 449.512 L 299.952 464.992 L 283.896 481.048 L 290.664 487.744 L 306.576 471.76 Z" fill="#fff"/><path d="m 485.928 418.552 c -6.767 3.528 -13.968 8.064 -21.024 13.464 c -6.624 5.04 -13.032 10.8 -18.576 17.352 c -2.016 .144 -4.104 .432 -6.048 .72 c .864 -4.032 1.512 -8.064 2.016 -11.952 c 8.424 -14.976 19.728 -23.616 32.904 -28.008 c 12.528 -4.104 26.784 -4.464 41.904 -2.664 c -3.96 8.424 -8.712 16.416 -14.976 23.4 c -7.128 7.992 -16.2 14.904 -28.296 20.016 c -5.976 -1.152 -11.88 -1.8 -17.784 -1.872 c 4.104 -4.176 8.496 -7.992 13.032 -11.448 c 6.552 -4.968 13.248 -9.216 19.512 -12.528 c 6.696 -3.528 3.456 -9.648 -2.664 -6.48 z" fill="#fff"/><path d="m 418.968 411.064 c -.288 7.848 -1.152 15.696 -2.52 23.544 c -1.512 8.64 -3.6 17.352 -6.048 26.064 c -3.384 2.016 -6.552 4.248 -9.648 6.696 c 2.592 -10.368 2.664 -21.024 .72 -31.464 c 2.16 -11.952 5.472 -23.184 10.152 -33.336 c 4.032 -8.64 9.144 -16.56 15.624 -23.4 c 10.728 22.896 11.304 48.024 5.544 72.432 c -4.824 1.224 -9.504 2.808 -13.968 4.752 c 1.728 -6.84 3.24 -13.68 4.464 -20.52 c 1.44 -8.208 2.376 -16.416 2.664 -24.552 c .288 -7.272 -6.696 -7.128 -6.984 -.216 z" fill="#fff"/><path d="m 442.728 367.936 c 7.488 14.112 13.464 26.28 15.696 42.48 c -2.16 1.368 -4.176 2.88 -6.192 4.608 c -7.92 -11.448 -14.688 -24.984 -17.712 -38.664 c -2.592 -11.592 -2.52 -23.112 .936 -33.696 c 12.528 6.264 21.168 14.544 26.496 24.624 c 5.688 10.728 7.56 23.544 6.264 38.016 c -1.08 .504 -2.232 1.008 -3.312 1.512 c -2.592 -16.128 -8.856 -28.44 -16.272 -42.624 c -3.168 -6.12 -9.72 -3.6 -5.904 3.744 z" fill="#fff"/><path d="m 452.664 318.976 c 4.104 6.12 8.136 12.384 11.664 18.792 c 4.392 7.992 7.992 16.2 10.08 24.768 c -1.368 2.016 -2.736 4.176 -4.032 6.336 c -.72 -1.656 -1.44 -3.24 -2.304 -4.824 c -4.032 -7.632 -9.72 -14.4 -17.28 -20.088 c -6.336 -9.792 -9.576 -19.152 -11.016 -28.656 c -1.296 -8.496 -1.224 -17.208 -.864 -26.28 c 13.752 4.32 24.048 11.376 31.104 21.168 c 7.632 10.584 11.736 24.48 12.6 41.688 c -1.008 1.152 -2.016 2.304 -3.024 3.528 c -2.232 -7.272 -5.472 -14.256 -9.144 -20.952 c -3.816 -6.912 -8.136 -13.536 -12.528 -20.016 c -4.32 -6.408 -10.224 -2.736 -5.256 4.536 z" fill="#fff"/><path d="m 458.136 265.264 c 3.528 11.232 7.056 22.536 11.304 33.552 c -4.752 -4.68 -10.296 -8.64 -16.776 -11.808 c -3.816 -8.208 -5.328 -16.776 -5.472 -25.488 c -.144 -7.848 .792 -15.768 2.016 -23.688 c 8.136 3.816 14.976 9.072 20.736 15.84 c 6.696 7.776 11.952 17.568 16.272 29.592 c -3.384 4.896 -6.408 10.296 -9.144 16.056 c -4.608 -11.592 -8.28 -23.544 -12.096 -35.424 c -1.944 -6.192 -8.64 -4.176 -6.84 1.368 z" fill="#fff"/><path d="m 479.376 311.92 c 3.456 -9.288 7.704 -17.568 12.672 -24.84 c 4.392 -6.48 9.288 -12.024 14.616 -16.776 c 4.32 9.216 7.488 18.216 8.64 27.504 c 1.224 10.584 -.072 21.672 -5.112 34.416 c -4.968 2.088 -9.504 4.536 -13.752 7.416 c 4.464 -12.456 6.624 -25.272 9 -38.16 c 1.368 -7.344 -5.544 -8.352 -6.696 -1.944 c -2.592 13.968 -4.896 28.008 -10.152 41.328 c -1.512 -11.088 -4.536 -20.664 -9.216 -28.944 z" fill="#fff"/><path d="m 473.328 377.8 c 12.024 -22.392 28.008 -38.232 53.64 -43.2 c .36 12.672 -1.296 24.408 -5.544 34.992 c -4.536 11.304 -12.168 21.384 -23.76 29.952 c -4.248 .144 -8.424 .432 -12.456 1.08 c 2.376 -5.328 5.256 -10.584 8.352 -15.408 c 4.68 -7.488 10.008 -14.04 14.904 -19.656 c 4.536 -5.256 -1.944 -8.496 -5.328 -4.464 c -5.039 5.976 -10.656 12.672 -15.48 20.376 c -4.104 6.552 -7.848 13.608 -10.656 20.88 c -.576 .144 -1.08 .288 -1.656 .432 c .576 -8.856 -.072 -17.28 -2.016 -24.984 z" fill="#fff"/><path d="m 398.304 479.248 c 10.152 -10.872 23.184 -18 37.512 -21.24 c 15.696 -3.528 32.904 -2.52 49.392 3.096 c -5.904 8.784 -13.248 15.624 -21.384 20.808 c -9.936 6.408 -21.096 10.368 -32.4 12.384 c -6.048 -4.968 -12.456 -8.712 -19.008 -11.304 c 5.4 -1.368 10.728 -2.592 16.056 -3.744 c 7.848 -1.584 15.624 -2.952 23.4 -3.888 c 7.632 -.864 6.84 -7.776 -.36 -6.912 c -8.136 .936 -16.272 2.304 -24.408 4.032 c -9.36 1.944 -18.648 4.248 -27.936 6.912 c -.288 -.072 -.576 -.144 -.864 -.144 z" fill="#fff"/><path d="m 378.216 480.184 c 3.96 -.864 7.92 -1.512 11.016 -1.512 c 9.864 -19.8 7.56 -40.32 .072 -59.544 l -19.584 61.56 c 1.944 -3.024 3.888 -6.336 5.688 -9.864 c 2.88 -5.76 5.328 -12.096 6.84 -18.936 c 1.656 -7.416 8.568 -6.552 6.912 1.08 c -1.656 7.56 -4.32 14.616 -7.488 20.952 c -1.152 2.16 -2.232 4.248 -3.456 6.264 z" fill="#fff"/><path d="m 412.272 500.92 c -13.032 -5.04 -26.352 -9.792 -40.176 -11.736 c 9.504 -4.176 21.024 -4.752 32.544 -1.512 c 12.456 3.6 24.912 11.808 34.776 25.2 c -4.752 2.592 -11.376 4.248 -18.792 4.824 v 0 c -20.664 1.008 -39.816 -3.744 -51.624 -21.888 c 14.112 1.656 27.648 6.552 40.824 11.664 c 6.768 2.592 9.36 -3.888 2.448 -6.552 z" fill="#fff"/><path d="m 363.528 500.2 c 2.088 3.096 4.104 6.192 5.976 9.432 c 4.104 7.056 7.56 14.472 10.008 22.032 c -2.592 1.296 -5.4 2.088 -8.28 2.376 c -1.8 -10.296 -4.392 -20.376 -9 -29.736 z" fill="#fff"/><path d="m 127.224 418.552 c 6.768 3.528 13.968 8.064 21.024 13.464 c 6.624 5.04 13.032 10.8 18.576 17.352 c 2.016 .144 4.104 .432 6.048 .72 c -.864 -4.032 -1.512 -8.064 -2.016 -11.952 c -8.424 -14.976 -19.728 -23.616 -32.904 -28.008 c -12.528 -4.104 -26.784 -4.464 -41.904 -2.664 c 3.96 8.424 8.712 16.416 14.976 23.4 c 7.128 7.992 16.2 14.904 28.296 20.016 c 5.976 -1.152 11.88 -1.8 17.784 -1.872 c -4.104 -4.176 -8.496 -7.992 -13.032 -11.448 c -6.552 -4.968 -13.248 -9.216 -19.512 -12.528 c -6.696 -3.528 -3.456 -9.648 2.664 -6.48 z" fill="#fff"/><path d="m 194.184 411.064 c .288 7.848 1.152 15.696 2.52 23.544 c 1.512 8.64 3.6 17.352 6.048 26.064 c 3.384 2.016 6.552 4.248 9.648 6.696 c -2.592 -10.368 -2.664 -21.024 -.72 -31.464 c -2.16 -11.952 -5.472 -23.184 -10.152 -33.336 c -4.032 -8.64 -9.144 -16.56 -15.624 -23.4 c -10.728 22.896 -11.304 48.024 -5.544 72.432 c 4.824 1.224 9.504 2.808 13.968 4.752 c -1.728 -6.84 -3.24 -13.68 -4.464 -20.52 c -1.44 -8.208 -2.376 -16.416 -2.664 -24.552 c -.288 -7.272 6.696 -7.128 6.984 -.216 z" fill="#fff"/><path d="m 170.424 367.936 c -7.488 14.112 -13.464 26.28 -15.696 42.48 c 2.16 1.368 4.176 2.88 6.192 4.608 c 7.92 -11.448 14.688 -24.984 17.712 -38.664 c 2.592 -11.592 2.52 -23.112 -.936 -33.696 c -12.528 6.264 -21.168 14.544 -26.496 24.624 c -5.688 10.728 -7.56 23.544 -6.264 38.016 c 1.08 .504 2.232 1.008 3.312 1.512 c 2.592 -16.128 8.856 -28.44 16.272 -42.624 c 3.168 -6.12 9.72 -3.6 5.904 3.744 z" fill="#fff"/><path d="m 160.488 318.976 c -4.104 6.12 -8.136 12.384 -11.664 18.792 c -4.392 7.992 -7.992 16.2 -10.08 24.768 c 1.368 2.016 2.736 4.176 4.032 6.336 c .72 -1.656 1.44 -3.24 2.304 -4.824 c 4.032 -7.632 9.72 -14.4 17.28 -20.088 c 6.336 -9.792 9.576 -19.152 11.016 -28.656 c 1.296 -8.496 1.224 -17.208 .864 -26.28 c -13.752 4.32 -24.048 11.376 -31.104 21.168 c -7.632 10.584 -11.736 24.48 -12.6 41.688 c 1.008 1.152 2.016 2.304 3.024 3.528 c 2.232 -7.272 5.472 -14.256 9.144 -20.952 c 3.816 -6.912 8.136 -13.536 12.528 -20.016 c 4.32 -6.408 10.224 -2.736 5.256 4.536 z" fill="#fff"/><path d="m 155.016 265.264 c -3.528 11.232 -7.056 22.536 -11.304 33.552 c 4.752 -4.68 10.296 -8.64 16.776 -11.808 c 3.816 -8.208 5.328 -16.776 5.472 -25.488 c .144 -7.848 -.792 -15.768 -2.016 -23.688 c -8.136 3.816 -14.976 9.072 -20.736 15.84 c -6.696 7.776 -11.952 17.568 -16.272 29.592 c 3.384 4.896 6.408 10.296 9.144 16.056 c 4.608 -11.592 8.28 -23.544 12.096 -35.424 c 1.944 -6.192 8.64 -4.176 6.84 1.368 z" fill="#fff"/><path d="m 133.776 311.92 c -3.456 -9.288 -7.704 -17.568 -12.672 -24.84 c -4.392 -6.48 -9.288 -12.024 -14.616 -16.776 c -4.32 9.216 -7.488 18.216 -8.64 27.504 c -1.224 10.584 .072 21.672 5.112 34.416 c 4.968 2.088 9.504 4.536 13.752 7.416 c -4.464 -12.456 -6.624 -25.272 -9 -38.16 c -1.368 -7.344 5.544 -8.352 6.696 -1.944 c 2.592 13.968 4.896 28.008 10.152 41.328 c 1.512 -11.088 4.536 -20.664 9.216 -28.944 z" fill="#fff"/><path d="m 139.824 377.8 c -12.024 -22.392 -28.008 -38.232 -53.64 -43.2 c -.36 12.672 1.296 24.408 5.544 34.992 c 4.536 11.304 12.168 21.384 23.76 29.952 c 4.248 .144 8.424 .432 12.456 1.08 c -2.376 -5.328 -5.256 -10.584 -8.352 -15.408 c -4.68 -7.488 -10.008 -14.04 -14.904 -19.656 c -4.536 -5.256 1.944 -8.496 5.328 -4.464 c 5.04 5.976 10.656 12.672 15.48 20.376 c 4.104 6.552 7.848 13.608 10.656 20.88 c .576 .144 1.08 .288 1.656 .432 c -.576 -8.856 .072 -17.28 2.016 -24.984 z" fill="#fff"/><path d="m 214.848 479.248 c -10.152 -10.872 -23.184 -18 -37.512 -21.24 c -15.696 -3.528 -32.904 -2.52 -49.392 3.096 c 5.904 8.784 13.248 15.624 21.384 20.808 c 9.936 6.408 21.096 10.368 32.4 12.384 c 5.976 -4.968 12.456 -8.712 19.008 -11.304 c -5.4 -1.368 -10.728 -2.592 -16.056 -3.744 c -7.848 -1.584 -15.624 -2.952 -23.4 -3.888 c -7.632 -.864 -6.84 -7.776 .36 -6.912 c 8.136 .936 16.272 2.304 24.408 4.032 c 9.36 1.944 18.648 4.248 27.936 6.912 c .288 -.072 .576 -.144 .864 -.144 z" fill="#fff"/><path d="m 234.936 480.184 c -3.96 -.864 -7.92 -1.512 -11.016 -1.512 c -9.864 -19.8 -7.632 -40.32 -.072 -59.544 l 19.584 61.56 c -1.944 -3.024 -3.888 -6.336 -5.688 -9.864 c -2.88 -5.76 -5.328 -12.096 -6.84 -18.936 c -1.656 -7.416 -8.568 -6.552 -6.912 1.08 c 1.656 7.56 4.32 14.616 7.488 20.952 c 1.152 2.16 2.232 4.248 3.456 6.264 z" fill="#fff"/><path d="m 200.88 500.92 c 13.032 -5.04 26.352 -9.792 40.176 -11.736 c -9.504 -4.176 -21.024 -4.752 -32.544 -1.512 c -12.456 3.6 -24.912 11.808 -34.776 25.2 c 4.752 2.592 11.376 4.248 18.792 4.824 v 0 c 20.664 1.008 39.816 -3.744 51.624 -21.888 c -14.112 1.656 -27.648 6.552 -40.824 11.664 c -6.768 2.592 -9.36 -3.888 -2.448 -6.552 z" fill="#fff"/><path d="m 249.624 500.2 c -2.088 3.096 -4.104 6.192 -5.976 9.432 c -4.104 7.056 -7.56 14.472 -10.008 22.032 c 2.592 1.296 5.4 2.088 8.28 2.376 c 1.8 -10.296 4.392 -20.376 9 -29.736 z" fill="#fff"/></g></svg>