<svg height="1000" viewBox="0 0 1000 1000" width="1000" xmlns="http://www.w3.org/2000/svg"><g transform="matrix(1.6757139 0 0 1.6757139 -13.725815 -163.72925)"><circle cx="306.57599" cy="396.08801" fill="#d2ab67" r="283.46399" transform="matrix(.7071 -.7071 .7071 .7071 -190.2824 332.7935)"/><path d="m 100.08 463.84 c .864 -2.952 3.456 -5.112 6.624 -5.4 c -.072 -.504 -.144 -.936 -.144 -1.44 c 0 -3.528 2.448 -6.48 5.688 -7.344 c -.288 -.792 -.432 -1.656 -.432 -2.52 c 0 -2.448 1.152 -4.68 3.024 -6.048 c -3.456 -14.472 -5.256 -29.52 -5.256 -45 c 0 -17.712 2.376 -34.92 6.84 -51.336 c -.72 -1.152 -1.152 -2.52 -1.152 -3.96 c 0 -.648 .072 -1.224 .216 -1.872 c -1.656 -.216 -3.096 -1.008 -4.248 -2.088 v 0 c -1.368 -1.368 -2.232 -3.312 -2.232 -5.4 c 0 0 0 0 0 -.072 c -.288 .072 -.576 .072 -.936 .072 c -2.088 0 -3.96 -.864 -5.328 -2.232 v 0 c -1.224 -1.224 -2.016 -2.808 -2.16 -4.608 c -.504 .072 -1.08 .144 -1.584 .144 c -2.088 0 -3.96 -.864 -5.328 -2.232 v 0 c -.936 -.936 -1.656 -2.16 -2.016 -3.528 c -.792 .36 -1.728 .504 -2.664 .504 c -2.088 0 -3.96 -.864 -5.328 -2.232 v 0 c -.936 -.864 -1.584 -2.016 -1.944 -3.312 c -.936 .432 -1.944 .648 -2.952 .648 c -2.088 0 -3.96 -.864 -5.4 -2.232 v 0 c -.144 -.216 -.36 -.36 -.504 -.576 z" fill="#00a651"/><path d="M 115.2 593.584 C 63.576 543.472 31.32 473.416 31.32 396.088 c 0 -36.144 7.128 -70.776 19.872 -102.456 c 2.736 3.24 6.768 5.4 11.304 5.472 v 0 c -1.368 1.368 -2.232 3.24 -2.232 5.328 c 0 2.088 .864 4.032 2.232 5.4 v 0 c .648 .648 1.368 1.152 2.232 1.512 L 93.312 471.04 c -.576 1.008 -.864 2.088 -.936 3.312 c -.288 -.072 -.576 -.072 -.936 -.072 c -4.104 0 -7.56 3.456 -7.56 7.56 c 0 .288 0 .504 .072 .792 c -.072 0 -.144 0 -.144 0 c -4.176 0 -7.56 3.384 -7.56 7.56 c 0 2.088 .792 3.96 2.16 5.328 h .072 c 1.368 1.368 3.24 2.232 5.328 2.232 c 4.176 0 7.56 -3.384 7.56 -7.56 c 0 -.288 0 -.504 0 -.72 h .072 c 1.872 0 3.528 -.648 4.824 -1.728 l 4.248 23.76 c -2.88 .36 -5.256 2.376 -6.192 4.968 c -.936 -.36 -2.016 -.648 -3.096 -.648 c -4.176 0 -7.56 3.456 -7.56 7.56 c 0 2.088 .864 4.032 2.232 5.4 v 0 c 1.368 1.368 3.24 2.232 5.328 2.232 c 3.312 0 6.12 -2.16 7.128 -5.04 c .936 .432 2.016 .648 3.096 .648 c .648 0 1.224 -.072 1.728 -.216 l 2.88 15.984 c -2.952 .288 -5.472 2.304 -6.48 5.04 c -.936 -.432 -2.016 -.648 -3.096 -.648 c -4.176 0 -7.56 3.384 -7.56 7.56 c 0 2.088 .864 3.961 2.232 5.328 v 0 c 1.368 1.368 3.24 2.232 5.328 2.232 c 3.312 0 6.12 -2.088 7.128 -5.039 c .936 .432 2.016 .648 3.096 .648 c .72 0 1.368 -.072 2.016 -.216 z" fill="#00a651"/><path d="m 581.616 385.72 c .072 3.456 .216 6.912 .216 10.368 c 0 151.56 -123.696 275.256 -275.256 275.256 c -69.48 0 -133.128 -26.064 -181.656 -68.832 l -8.856 -49.392 c .288 .072 .576 .072 .864 .072 c 3.312 0 6.12 -2.16 7.128 -5.04 c 1.008 .432 2.016 .648 3.168 .648 c 4.104 0 7.56 -3.384 7.56 -7.56 c 0 -2.088 -.864 -3.96 -2.232 -5.328 v 0 c -1.368 -1.44 -3.312 -2.232 -5.328 -2.232 c -3.312 0 -6.12 2.088 -7.2 5.04 c -.936 -.432 -1.944 -.72 -3.096 -.72 c -1.224 0 -2.376 .288 -3.384 .864 L 110.52 522.16 c .432 .072 .792 .072 1.152 .072 c 3.312 0 6.12 -2.088 7.128 -5.04 c 1.008 .432 2.016 .72 3.096 .72 c 4.176 0 7.632 -3.456 7.632 -7.632 c 0 -2.016 -.864 -3.96 -2.232 -5.328 v 0 c -1.368 -1.368 -3.312 -2.232 -5.4 -2.232 c -3.24 0 -6.048 2.088 -7.128 5.04 c -.936 -.432 -1.944 -.648 -3.096 -.648 c -1.296 0 -2.592 .36 -3.672 .936 l -4.752 -26.64 c 2.52 -1.224 4.32 -3.816 4.32 -6.84 c 0 -.36 -.072 -.648 -.072 -1.008 c 3.96 -.072 7.2 -3.168 7.416 -7.128 c 2.088 -1.44 4.104 -2.736 6.192 -4.032 c 27.36 76.032 100.224 130.68 185.472 130.68 c 91.152 0 168.264 -62.568 190.512 -146.952 c 31.968 -14.616 58.464 -33.84 84.528 -60.408 z" fill="#00a651"/><path d="m 306.576 120.832 c 144.72 0 263.952 112.752 274.464 254.88 c -27.144 -6.84 -54.576 -13.32 -81.792 -20.664 c -19.008 -88.92 -98.28 -155.952 -192.672 -155.952 c -59.184 0 -112.392 26.352 -148.608 67.896 c -2.088 .432 -4.248 .864 -6.408 1.296 c -30.888 6.48 -60.12 16.848 -79.776 27.792 c 3.744 -2.736 6.12 -7.128 6.12 -12.096 c 0 -8.28 -6.768 -15.12 -15.12 -15.12 c 0 0 -.072 0 -.144 0 c 46.08 -87.84 138.24 -148.032 243.936 -148.032 z" fill="#00a651"/><path d="m 161.496 574.72 l -10.224 10.584 c -4.32 4.464 -7.992 6.912 -10.944 7.272 c -2.952 .36 -6.192 -1.08 -9.576 -4.392 c -3.456 -3.384 -5.112 -6.48 -4.824 -9.432 c .288 -2.952 2.592 -6.696 6.912 -11.232 l 10.224 -10.584 c 4.32 -4.464 7.92 -6.84 10.872 -7.2 c 2.952 -.36 6.192 1.08 9.648 4.464 c 3.456 3.312 5.04 6.48 4.752 9.432 c -.288 2.952 -2.52 6.624 -6.84 11.088 z m -5.328 -8.064 c 2.088 -2.088 3.24 -3.672 3.456 -4.608 c .288 -1.008 -.072 -1.944 -.936 -2.808 c -.936 -.864 -1.872 -1.152 -2.88 -.864 c -1.008 .288 -2.52 1.512 -4.536 3.6 l -13.104 13.608 c -2.088 2.16 -3.24 3.672 -3.456 4.68 c -.288 .936 .072 1.872 1.008 2.736 c .864 .936 1.8 1.224 2.808 .864 c 1.008 -.288 2.448 -1.512 4.464 -3.528 z" fill="#fff"/><path d="M 145.368 600.064 L 172.224 563.056 L 179.856 568.6 L 157.104 599.92 L 165.888 606.328 L 161.784 612.016 Z" fill="#fff"/><path d="M 197.928 580.192 L 173.016 618.568 L 165.096 613.384 L 190.008 575.008 Z" fill="#fff"/><path d="M 231.84 596.968 L 212.472 638.512 L 205.416 635.2 L 221.256 601.144 L 220.752 600.856 L 200.016 632.68 L 192.312 629.08 L 203.976 593.08 L 203.4 592.792 L 187.488 626.848 L 180.792 623.68 L 200.16 582.208 L 211.896 587.68 L 201.744 619.216 L 202.104 619.432 L 220.32 591.568 Z" fill="#fff"/><path d="m 240.12 606.616 l -4.68 13.536 l .792 .288 c 1.656 .576 2.88 .576 3.816 -.072 c .864 -.576 1.728 -1.872 2.448 -3.96 l .864 -2.592 c .72 -2.016 .864 -3.6 .504 -4.608 c -.36 -1.008 -1.368 -1.8 -2.952 -2.304 z m -6.12 -9.36 l 9.36 3.24 c 4.752 1.656 7.776 3.672 9.144 6.192 c 1.296 2.448 1.224 5.832 -.216 10.08 l -.936 2.808 c -1.44 4.032 -3.384 6.696 -5.904 7.992 c -2.52 1.296 -5.76 1.224 -9.72 -.144 l -2.448 -.864 l -5.832 16.92 l -8.352 -2.88 z" fill="#fff"/><path d="M 266.76 606.472 L 255.672 650.896 L 246.528 648.592 L 257.616 604.168 Z" fill="#fff"/><path d="m 278.712 616.12 l -5.976 20.592 l 5.76 .792 L 279 616.12 Z m -4.536 -8.64 l 12.024 1.728 l 1.152 46.368 l -9.072 -1.224 l .144 -9.72 l -7.92 -1.08 l -2.88 9.288 l -8.28 -1.152 z" fill="#fff"/><path d="M 305.064 609.424 L 293.112 661.408 L 288.144 661.264 L 300.096 609.28 Z" fill="#fff"/><path d="M 307.728 655.936 L 306.216 610.144 L 315.576 609.856 L 316.944 648.592 L 327.816 648.16 L 328.032 655.216 Z" fill="#fff"/><path d="M 345.096 625.192 L 346.104 632.248 L 337.536 633.472 L 339.336 646.648 L 349.416 645.28 L 350.424 652.264 L 330.984 654.928 L 324.648 609.64 L 343.224 606.976 L 344.232 614.032 L 334.944 615.328 L 336.528 626.416 Z" fill="#fff"/><path d="m 370.44 613.528 l .432 1.728 l -8.928 2.232 l -.216 -.936 c -.72 -2.88 -1.368 -4.68 -2.016 -5.4 c -.72 -.792 -1.584 -1.008 -2.736 -.72 c -1.08 .288 -1.8 .864 -2.016 1.872 c -.216 1.008 0 2.88 .72 5.76 l 4.608 18.36 c .648 2.808 1.368 4.536 2.016 5.328 c .72 .792 1.656 1.08 2.808 .792 c 1.08 -.288 1.728 -.864 1.944 -1.872 c .216 -.936 .072 -2.592 -.576 -4.968 l -.576 -2.52 l 8.856 -2.232 l .648 2.448 c 1.152 4.896 1.152 8.496 -.072 10.8 c -1.296 2.376 -4.032 4.104 -8.352 5.184 c -4.68 1.152 -8.208 .792 -10.584 -.936 c -2.304 -1.8 -4.248 -5.76 -5.76 -11.808 l -3.6 -14.328 c -1.512 -5.976 -1.656 -10.368 -.36 -13.032 c 1.296 -2.664 4.247 -4.608 8.928 -5.76 c 4.248 -1.08 7.488 -.864 9.72 .576 c 2.232 1.512 3.888 4.68 5.112 9.432 z" fill="#fff"/><path d="M 390.96 592.72 L 408.096 635.2 L 399.312 638.728 L 391.608 619.576 L 385.632 622.024 L 393.336 641.104 L 384.624 644.632 L 367.488 602.224 L 376.2 598.696 L 382.968 615.472 L 389.016 613.096 L 382.176 596.248 Z" fill="#fff"/><path d="M 403.848 586.816 L 423.216 628.36 L 414.648 632.32 L 395.28 590.848 Z" fill="#fff"/><path d="m 419.76 586.6 l 7.92 19.944 l 5.04 -2.952 l -12.744 -17.136 z m -8.928 -3.96 l 10.512 -6.12 l 29.448 35.928 l -7.92 4.536 l -5.832 -7.704 l -6.84 3.96 l 3.384 9.144 l -7.2 4.176 z" fill="#fff"/><path d="m 462.24 560.536 l 1.152 1.368 l -6.912 6.048 l -.648 -.792 c -1.944 -2.16 -3.384 -3.456 -4.32 -3.888 c -.936 -.36 -1.8 -.144 -2.664 .576 c -.936 .792 -1.224 1.656 -1.008 2.664 c .288 .936 1.368 2.592 3.24 4.752 l 12.456 14.328 c 1.872 2.16 3.312 3.456 4.248 3.816 c 1.008 .432 1.944 .216 2.808 -.576 c .288 -.216 .576 -.504 .864 -.864 c .36 -.432 .72 -.936 1.152 -1.512 l -6.696 -7.776 l -1.944 1.728 l -4.68 -5.328 l 8.928 -7.704 l 14.76 16.992 c -1.224 2.088 -2.448 3.96 -3.672 5.544 c -1.224 1.512 -2.52 2.952 -3.888 4.176 c -3.672 3.096 -6.912 4.464 -9.864 3.888 c -2.88 -.504 -6.408 -3.096 -10.512 -7.848 l -9.648 -11.088 c -4.104 -4.68 -6.192 -8.496 -6.264 -11.52 c -.144 -2.952 1.656 -5.976 5.328 -9.144 c 3.312 -2.88 6.336 -4.176 9 -3.888 c 2.664 .36 5.616 2.376 8.784 6.048 z" fill="#fff"/><path d="m 466.632 547.792 l 23.112 21.6 l .648 -.648 c 1.296 -1.368 1.872 -2.592 1.872 -3.6 c 0 -1.008 -.72 -2.16 -2.016 -3.384 l -16.056 -14.976 c -1.368 -1.224 -2.52 -1.872 -3.528 -1.8 c -1.008 .072 -2.16 .792 -3.456 2.16 z m -11.736 2.16 l 6.192 -6.624 c 2.448 -2.592 4.464 -4.392 6.12 -5.328 c 1.656 -.936 3.384 -1.368 5.184 -1.368 c 1.728 .072 3.528 .576 5.328 1.584 c 1.8 1.008 4.032 2.808 6.696 5.256 l 8.424 7.848 c 2.664 2.448 4.536 4.608 5.688 6.336 c 1.152 1.8 1.872 3.528 1.944 5.256 c .216 1.728 -.144 3.456 -1.008 5.184 c -.864 1.728 -2.448 3.888 -4.824 6.48 l -6.264 6.624 z" fill="#fff"/><path d="m 485.28 526.84 l 15.624 14.76 l 3.384 -4.824 l -18.864 -10.152 z m -9.72 .144 l 6.984 -9.936 l 41.832 20.088 l -5.256 7.488 l -8.568 -4.536 l -4.536 6.552 l 6.984 6.768 l -4.824 6.84 z" fill="#fff"/><path d="M 493.56 496.816 L 489.888 486.16 L 487.152 491.992 L 491.832 499.84 Z" fill="#fff"/><path d="M 499.608 488.68 L 539.712 510.856 L 533.664 521.8 L 496.512 508.84 L 496.152 509.344 L 530.424 527.632 L 526.68 534.328 L 486.648 512.08 L 492.624 501.28 L 529.848 514.168 L 530.136 513.592 L 495.864 495.448 Z" fill="#fff"/><path d="m 518.112 470.464 l 3.168 1.224 l -3.312 8.64 l -3.744 -1.512 c -1.152 -.432 -2.016 -.576 -2.592 -.432 c -.576 .144 -1.08 .648 -1.368 1.44 c -.288 .792 -.288 1.44 .072 1.944 c .288 .432 1.08 .936 2.232 1.368 l 2.736 1.08 c 1.08 .432 2.16 .504 3.24 .288 c 1.008 -.216 2.376 -.864 4.104 -1.944 l 4.104 -2.52 c .216 -.144 .504 -.36 1.008 -.648 c 1.872 -1.224 3.528 -2.016 4.824 -2.232 c 1.008 -.144 2.016 -.144 3.096 0 c 1.008 .144 2.232 .504 3.6 1.008 l 2.592 1.008 c 3.312 1.296 5.472 3.24 6.48 5.976 c 1.008 2.736 .792 5.976 -.72 9.792 c -1.44 3.816 -3.384 6.336 -5.688 7.344 c -2.304 1.08 -5.4 .864 -9.216 -.648 l -3.168 -1.224 l 3.384 -8.784 l 3.672 1.368 c 1.296 .504 2.304 .648 3.024 .504 c .648 -.144 1.224 -.72 1.584 -1.656 c .288 -.936 .288 -1.656 -.072 -2.232 c -.36 -.576 -1.224 -1.152 -2.592 -1.656 l -1.656 -.648 c -1.224 -.432 -2.376 -.576 -3.456 -.432 c -1.08 .216 -2.664 1.008 -4.896 2.448 l -4.104 2.52 c -1.944 1.224 -3.816 1.944 -5.616 2.16 c -1.8 .144 -3.672 -.143 -5.76 -.936 l -3.744 -1.44 c -2.88 -1.08 -4.752 -3.024 -5.76 -5.76 c -.936 -2.736 -.792 -5.904 .576 -9.36 c 1.224 -3.312 3.024 -5.4 5.4 -6.48 c 2.376 -1.008 5.184 -.864 8.568 .432 z" fill="#fff"/><path d="M 532.728 453.904 L 560.16 452.968 L 557.784 461.968 L 531.792 462.976 L 555.768 469.384 L 553.464 478.096 L 509.184 466.216 L 511.56 457.576 L 530.928 462.76 L 513.216 451.168 L 515.52 442.6 Z" fill="#fff"/><path d="M 144.504 221.2 L 168.336 234.88 L 161.496 241.288 L 138.96 228.4 L 155.88 246.544 L 149.256 252.664 L 118.08 219.112 L 124.632 212.992 L 138.312 227.68 L 129.456 208.528 L 135.936 202.48 Z" fill="#fff"/><path d="M 170.856 232.504 L 142.632 196.432 L 150.12 190.6 L 173.952 221.128 L 182.52 214.432 L 186.84 219.976 Z" fill="#fff"/><path d="m 167.112 178.216 l 8.28 -4.536 l 15.696 28.296 c 1.368 2.592 2.52 4.104 3.312 4.68 c .864 .576 1.8 .576 2.88 -.072 c 1.008 -.576 1.512 -1.296 1.44 -2.304 c 0 -1.008 -.792 -2.808 -2.16 -5.328 l -15.696 -28.296 l 8.28 -4.608 l 14.688 26.496 c 2.952 5.4 4.248 9.576 3.744 12.528 c -.504 2.952 -2.808 5.544 -6.912 7.848 c -4.104 2.232 -7.56 2.808 -10.224 1.728 c -2.736 -1.152 -5.616 -4.464 -8.64 -9.936 z" fill="#fff"/><path d="m 218.304 180.52 l 4.968 12.96 l .936 -.36 c 1.944 -.792 3.168 -1.656 3.6 -2.736 c .504 -1.008 .288 -2.52 -.432 -4.464 l -.936 -2.52 c -.792 -1.944 -1.656 -3.168 -2.736 -3.672 c -1.008 -.432 -2.52 -.288 -4.464 .432 z m -6.696 -17.28 l 4.32 11.16 l .792 -.288 c 1.728 -.648 2.808 -1.44 3.168 -2.376 c .432 -.864 .288 -2.232 -.36 -3.888 l -.792 -2.232 c -.72 -1.656 -1.44 -2.736 -2.376 -3.096 c -.864 -.432 -2.232 -.288 -3.96 .36 z m -10.656 -3.168 l 10.728 -4.104 c 4.176 -1.656 7.488 -2.016 9.864 -1.152 c 2.448 .864 4.32 3.024 5.688 6.552 l .648 1.8 c 1.008 2.448 1.152 4.608 .648 6.48 c -.504 1.872 -1.728 3.456 -3.744 4.752 c 2.52 -.432 4.608 -.216 6.408 .792 c 1.8 1.008 3.168 2.664 4.032 5.04 l 1.512 3.744 c 1.296 3.528 1.368 6.408 .144 8.712 c -1.224 2.232 -3.96 4.104 -8.136 5.76 l -11.376 4.392 z" fill="#fff"/><path d="m 261 148.912 l 2.52 14.112 l .792 -.144 c 1.656 -.288 2.808 -.936 3.312 -1.872 c .504 -1.008 .576 -2.52 .216 -4.68 l -.504 -2.664 c -.36 -2.16 -1.008 -3.6 -1.8 -4.32 c -.792 -.72 -2.016 -.936 -3.672 -.576 z m -9.864 -5.256 l 9.72 -1.656 c 4.968 -.936 8.64 -.576 11.016 .936 c 2.376 1.512 3.888 4.464 4.68 8.928 l .576 2.952 c .72 4.176 .288 7.488 -1.296 9.792 c -1.584 2.376 -4.464 3.888 -8.568 4.608 l -2.592 .432 l 3.096 17.568 l -8.712 1.584 z" fill="#fff"/><path d="M 293.328 138.328 L 296.568 183.976 L 287.064 184.624 L 283.896 138.976 Z" fill="#fff"/><path d="M 347.4 160.792 L 352.224 187.792 L 342.936 186.712 L 338.328 161.152 L 335.304 185.776 L 326.448 184.624 L 331.992 139.192 L 340.92 140.272 L 338.472 160.216 L 347.472 141.064 L 356.256 142.144 Z" fill="#fff"/><path d="m 375.624 155.248 l -8.496 19.728 l 5.616 1.512 l 3.096 -21.168 z m -3.456 -9.072 l 11.736 3.168 l -4.536 46.152 l -8.856 -2.376 l 1.296 -9.576 l -7.704 -2.016 l -3.96 8.856 l -8.064 -2.16 z" fill="#fff"/><path d="m 407.16 165.688 l -5.256 11.736 l .72 .36 c 1.728 .72 3.024 .936 3.96 .504 c 1.008 -.432 1.872 -1.512 2.664 -3.312 l 1.008 -2.232 c .792 -1.8 1.008 -3.168 .648 -4.176 c -.288 -.936 -1.296 -1.8 -3.024 -2.592 z m -5.328 -9.864 l 10.44 4.68 c 4.104 1.8 6.768 3.888 7.848 6.192 c 1.08 2.304 .936 5.184 -.648 8.64 l -.792 1.728 c -1.296 3.024 -2.952 4.968 -4.896 5.832 c -1.944 .864 -4.464 .864 -7.632 0 c 2.952 1.656 4.752 3.456 5.256 5.544 c .576 2.088 0 5.04 -1.656 8.712 l -4.536 10.296 l -8.64 -3.816 l 5.688 -12.888 c .936 -2.088 1.224 -3.528 .936 -4.392 c -.36 -.792 -1.368 -1.584 -3.096 -2.376 l -.936 -.36 l -7.92 17.64 l -8.064 -3.6 z" fill="#fff"/><path d="m 449.064 192.832 l -1.872 2.952 l -7.776 -4.896 l 2.088 -3.456 c .72 -1.008 1.008 -1.872 .936 -2.448 c 0 -.576 -.432 -1.152 -1.152 -1.584 c -.72 -.432 -1.368 -.576 -1.872 -.36 c -.576 .288 -1.152 .936 -1.8 1.944 l -1.584 2.52 c -.648 1.008 -.936 2.016 -.936 3.096 c 0 1.08 .432 2.52 1.152 4.392 l 1.728 4.536 c .072 .216 .216 .576 .432 1.08 c .864 2.16 1.296 3.888 1.224 5.256 c 0 .936 -.216 1.944 -.576 2.952 c -.36 1.008 -.864 2.16 -1.656 3.384 l -1.512 2.376 c -1.872 3.024 -4.248 4.752 -7.056 5.184 c -2.88 .432 -6.048 -.36 -9.504 -2.52 c -3.528 -2.232 -5.544 -4.536 -6.12 -6.984 c -.648 -2.52 .216 -5.472 2.376 -9 l 1.8 -2.808 l 7.992 4.968 l -2.016 3.312 c -.792 1.224 -1.08 2.16 -1.08 2.88 c .072 .72 .504 1.368 1.296 1.872 c .864 .504 1.584 .648 2.232 .36 c .576 -.216 1.296 -1.008 2.088 -2.232 l .936 -1.512 c .72 -1.08 1.08 -2.16 1.08 -3.312 c 0 -1.08 -.432 -2.808 -1.368 -5.256 l -1.728 -4.536 c -.864 -2.16 -1.224 -4.104 -1.08 -5.904 c .216 -1.8 .864 -3.6 2.016 -5.472 l 2.088 -3.384 c 1.656 -2.592 3.96 -4.104 6.84 -4.536 c 2.88 -.432 5.904 .36 9.072 2.304 c 2.952 1.872 4.752 4.032 5.256 6.552 c .576 2.52 -.072 5.256 -1.944 8.28 z" fill="#fff"/><path d="M 465.552 217.816 L 454.896 243.088 L 447.696 237.112 L 457.776 213.136 L 441.792 232.144 L 434.952 226.384 L 464.4 191.32 L 471.24 197.08 L 458.352 212.416 L 476.28 201.328 L 483.12 207.016 Z" fill="#fff"/><path d="M 495.72 220.84 L 462.816 252.664 L 456.192 245.896 L 489.168 214.072 Z" fill="#fff"/><path d="M 312.984 162.016 L 312.696 176.776 L 323.568 176.992 L 323.424 184.048 L 303.192 183.688 L 303.48 169.648 L 300.168 172.312 L 300.168 164.248 L 303.624 161.512 L 304.056 137.896 L 313.416 138.04 L 313.128 153.808 L 319.608 148.696 L 319.608 156.688 Z" fill="#fff"/><path d="m 120.384 544.48 c -.144 -.216 -.216 -.36 -.288 -.576 c -.144 -.288 -.36 -.576 -.648 -.864 v 0 c -.648 -.648 -1.512 -1.008 -2.52 -1.008 c -1.944 0 -3.528 1.584 -3.528 3.6 c 0 .36 .072 .72 .144 1.08 c .072 .216 .144 .36 .216 .576 c .216 .288 .432 .576 .648 .864 v 0 c .648 .648 1.584 1.008 2.52 1.008 c 2.016 0 3.6 -1.584 3.6 -3.528 c 0 -.432 -.072 -.792 -.144 -1.152 z" fill="#00a651"/><path d="m 127.224 537.64 c -2.016 0 -3.6 1.656 -3.6 3.6 c 0 .36 .072 .792 .144 1.152 c .144 .144 .216 .288 .288 .504 c .144 .288 .36 .576 .576 .864 v 0 c .648 .648 1.584 1.08 2.592 1.08 c 1.944 0 3.528 -1.656 3.528 -3.6 c 0 -1.008 -.36 -1.872 -1.008 -2.52 v 0 c -.648 -.648 -1.584 -1.08 -2.52 -1.08 z" fill="#00a651"/><path d="m 110.088 548.872 c -.072 -.216 -.144 -.432 -.216 -.576 c -.144 -.36 -.36 -.648 -.648 -.864 v 0 c -.648 -.648 -1.512 -1.008 -2.52 -1.008 c -1.944 0 -3.528 1.584 -3.528 3.528 c 0 .432 0 .792 .144 1.152 c .072 .144 .144 .36 .216 .504 c .216 .36 .432 .648 .648 .864 v 0 c .648 .648 1.512 1.08 2.52 1.08 c 2.016 0 3.6 -1.584 3.6 -3.6 c 0 -.36 -.072 -.72 -.216 -1.08 z" fill="#00a651"/><path d="m 99.864 553.192 c -.072 -.144 -.144 -.36 -.216 -.576 c -.216 -.288 -.432 -.576 -.648 -.792 v 0 c -.648 -.648 -1.512 -1.08 -2.52 -1.08 c -1.944 0 -3.6 1.656 -3.6 3.6 c 0 1.008 .432 1.872 1.08 2.521 v 0 c .648 .648 1.512 1.079 2.52 1.079 c 1.944 0 3.6 -1.656 3.6 -3.6 c 0 -.36 -.072 -.792 -.216 -1.152 z" fill="#00a651"/><path d="m 83.808 486.592 c -2.016 0 -3.6 1.584 -3.6 3.6 c 0 1.008 .432 1.872 1.08 2.52 v 0 c .648 .648 1.512 1.008 2.52 1.008 c 1.944 0 3.528 -1.584 3.528 -3.528 c 0 -1.008 -.36 -1.872 -1.008 -2.52 v 0 c -.648 -.648 -1.584 -1.08 -2.52 -1.08 z" fill="#00a651"/><path d="m 91.44 478.312 c -1.944 0 -3.528 1.584 -3.528 3.528 c 0 1.008 .36 1.944 1.008 2.592 v 0 c .648 .648 1.584 1.008 2.52 1.008 c 2.016 0 3.6 -1.584 3.6 -3.6 c 0 -.936 -.36 -1.872 -1.008 -2.52 v 0 c -.648 -.648 -1.584 -1.008 -2.592 -1.008 z" fill="#00a651"/><path d="m 99.936 471.04 c -1.944 0 -3.528 1.584 -3.528 3.528 c 0 1.008 .36 1.872 1.008 2.52 v 0 c .648 .648 1.584 1.08 2.52 1.08 c 2.016 0 3.6 -1.584 3.6 -3.6 c 0 -.936 -.432 -1.872 -1.08 -2.52 v 0 c -.648 -.648 -1.512 -1.008 -2.52 -1.008 z" fill="#00a651"/><path d="m 107.352 462.4 c -1.944 0 -3.528 1.584 -3.528 3.6 c 0 .936 .36 1.872 1.008 2.52 v 0 c .648 .648 1.584 1.008 2.52 1.008 c 2.016 0 3.6 -1.584 3.6 -3.528 c 0 -1.008 -.36 -1.944 -1.008 -2.592 v .072 c -.648 -.648 -1.584 -1.08 -2.592 -1.08 z" fill="#00a651"/><path d="m 114.12 453.472 c -1.944 0 -3.528 1.584 -3.528 3.528 c 0 1.008 .36 1.872 1.008 2.52 v 0 c .648 .648 1.584 1.08 2.52 1.08 c 2.016 0 3.6 -1.584 3.6 -3.6 c 0 -.936 -.432 -1.872 -1.08 -2.52 v 0 c -.648 -.648 -1.512 -1.008 -2.52 -1.008 z" fill="#00a651"/><path d="m 119.376 443.536 c -1.944 0 -3.6 1.656 -3.6 3.6 c 0 1.008 .432 1.872 1.08 2.52 v 0 c .648 .648 1.512 1.08 2.52 1.08 c 1.944 0 3.6 -1.656 3.6 -3.6 c 0 -1.008 -.432 -1.872 -1.08 -2.52 v 0 c -.648 -.648 -1.512 -1.08 -2.52 -1.08 z" fill="#00a651"/><path d="m 123.768 433.24 c -2.016 0 -3.6 1.584 -3.6 3.528 c 0 1.008 .432 1.872 1.08 2.52 v 0 c .648 .648 1.512 1.08 2.52 1.08 c 1.944 0 3.528 -1.584 3.528 -3.6 c 0 -.936 -.36 -1.872 -1.008 -2.52 v 0 c -.648 -.648 -1.584 -1.008 -2.52 -1.008 z" fill="#00a651"/><path d="m 127.656 422.728 c -2.016 0 -3.6 1.656 -3.6 3.6 c 0 1.008 .432 1.872 1.08 2.52 h -.072 c .648 .648 1.584 1.08 2.592 1.08 c 1.944 0 3.528 -1.656 3.528 -3.6 c 0 -1.008 -.36 -1.872 -1.008 -2.52 v 0 c -.648 -.648 -1.584 -1.08 -2.52 -1.08 z" fill="#00a651"/><path d="m 131.904 412.36 c -1.944 0 -3.528 1.656 -3.528 3.6 c 0 1.008 .36 1.872 1.008 2.52 v 0 c .648 .648 1.584 1.08 2.52 1.08 c 2.016 0 3.6 -1.656 3.6 -3.6 c 0 -1.008 -.432 -1.872 -1.08 -2.52 v 0 c -.648 -.648 -1.512 -1.08 -2.52 -1.08 z" fill="#00a651"/><path d="m 133.92 401.344 c -2.016 0 -3.6 1.656 -3.6 3.6 c 0 1.008 .432 1.872 1.08 2.52 h -.072 c .648 .648 1.584 1.08 2.592 1.08 c 1.944 0 3.528 -1.656 3.528 -3.6 c 0 -1.008 -.36 -1.872 -1.008 -2.52 v 0 c -.648 -.648 -1.584 -1.08 -2.52 -1.08 z" fill="#00a651"/><path d="m 135.72 390.4 c -1.944 0 -3.528 1.584 -3.528 3.528 c 0 1.008 .36 1.872 1.008 2.448 v 0 c .648 .648 1.584 1.08 2.52 1.08 c 2.016 0 3.6 -1.512 3.6 -3.528 c 0 -.936 -.432 -1.872 -1.08 -2.52 v 0 c -.648 -.648 -1.512 -1.008 -2.52 -1.008 z" fill="#00a651"/><path d="m 136.08 379.168 c -1.944 0 -3.6 1.584 -3.6 3.6 c 0 .936 .432 1.872 1.08 2.52 v 0 c .648 .648 1.512 1.008 2.52 1.008 c 1.944 0 3.6 -1.584 3.6 -3.528 c 0 -1.008 -.432 -1.872 -1.08 -2.52 v 0 c -.648 -.648 -1.512 -1.08 -2.52 -1.08 z" fill="#00a651"/><path d="m 135.288 367.936 c -1.944 0 -3.6 1.584 -3.6 3.6 c 0 .936 .432 1.872 1.08 2.52 v 0 c .648 .648 1.512 1.008 2.52 1.008 c 1.944 0 3.6 -1.584 3.6 -3.528 c 0 -1.008 -.432 -1.872 -1.08 -2.52 v 0 c -.648 -.648 -1.512 -1.08 -2.52 -1.08 z" fill="#00a651"/><path d="m 132.12 357.208 c -1.944 0 -3.528 1.584 -3.528 3.6 c 0 .936 .36 1.872 1.008 2.52 v 0 c .648 .648 1.584 1.008 2.52 1.008 c 2.016 0 3.6 -1.584 3.6 -3.528 c 0 -1.008 -.432 -1.944 -1.08 -2.592 v .072 c -.648 -.648 -1.512 -1.08 -2.52 -1.08 z" fill="#00a651"/><path d="m 129.168 346.408 c -1.944 0 -3.528 1.584 -3.528 3.6 c 0 .936 .36 1.872 1.008 2.52 v 0 c .648 .648 1.584 1.008 2.52 1.008 c 2.016 0 3.6 -1.584 3.6 -3.528 c 0 -1.008 -.432 -1.944 -1.08 -2.592 v .072 c -.648 -.648 -1.512 -1.08 -2.52 -1.08 z" fill="#00a651"/><path d="m 122.832 337.192 c -1.944 0 -3.6 1.656 -3.6 3.6 c 0 1.008 .432 1.872 1.08 2.52 v 0 c .648 .648 1.512 1.08 2.52 1.08 c 1.944 0 3.6 -1.656 3.6 -3.6 c 0 -1.008 -.432 -1.872 -1.08 -2.52 v 0 c -.648 -.648 -1.512 -1.08 -2.52 -1.08 z" fill="#00a651"/><path d="m 116.568 327.904 c -1.944 0 -3.528 1.584 -3.528 3.528 c 0 1.008 .36 1.872 1.008 2.52 v 0 c .648 .648 1.512 1.08 2.52 1.08 c 2.016 0 3.6 -1.584 3.6 -3.6 c 0 -.936 -.432 -1.872 -1.08 -2.52 v 0 c -.648 -.648 -1.512 -1.008 -2.52 -1.008 z" fill="#00a651"/><path d="m 108.072 320.272 c -1.944 0 -3.528 1.584 -3.528 3.6 c 0 .936 .36 1.872 1.008 2.52 v 0 c .648 .648 1.584 1.008 2.52 1.008 c 2.016 0 3.6 -1.584 3.6 -3.528 c 0 -1.008 -.432 -1.872 -1.08 -2.52 v 0 c -.648 -.648 -1.512 -1.08 -2.52 -1.08 z" fill="#00a651"/><path d="m 99 313.576 c -1.944 0 -3.6 1.584 -3.6 3.6 c 0 .936 .432 1.872 1.08 2.52 v 0 c .648 .648 1.512 1.008 2.52 1.008 c 1.944 0 3.6 -1.584 3.6 -3.528 c 0 -1.008 -.432 -1.872 -1.08 -2.52 v 0 c -.648 -.648 -1.512 -1.08 -2.52 -1.08 z" fill="#00a651"/><path d="m 88.992 308.32 c -1.944 0 -3.6 1.656 -3.6 3.6 c 0 1.008 .432 1.872 1.08 2.52 v 0 c .648 .648 1.512 1.08 2.52 1.08 c 1.944 0 3.6 -1.656 3.6 -3.6 c 0 -1.008 -.432 -1.872 -1.08 -2.52 v 0 c -.648 -.648 -1.512 -1.08 -2.52 -1.08 z" fill="#00a651"/><path d="m 78.768 303.424 c -2.016 0 -3.6 1.584 -3.6 3.528 c 0 1.008 .432 1.944 1.08 2.592 v 0 c .648 .648 1.512 1.008 2.52 1.008 c 1.944 0 3.528 -1.584 3.528 -3.6 c 0 -.936 -.36 -1.872 -1.008 -2.52 v 0 c -.648 -.648 -1.584 -1.008 -2.52 -1.008 z" fill="#00a651"/><path d="m 67.824 300.904 c -1.944 0 -3.528 1.585 -3.528 3.528 c 0 1.008 .36 1.872 1.008 2.52 v 0 c .648 .648 1.512 1.08 2.52 1.08 c 2.016 0 3.6 -1.584 3.6 -3.6 c 0 -.936 -.432 -1.872 -1.08 -2.52 v 0 c -.648 -.648 -1.512 -1.008 -2.52 -1.008 z" fill="#00a651"/><path d="m 115.128 513.592 c -.144 -.216 -.216 -.432 -.288 -.576 c -.144 -.36 -.36 -.648 -.648 -.864 v 0 c -.648 -.648 -1.512 -1.08 -2.52 -1.08 c -1.944 0 -3.528 1.656 -3.528 3.6 c 0 .432 .072 .792 .144 1.152 c .072 .144 .144 .36 .216 .504 c .216 .36 .432 .648 .648 .864 v 0 c .648 .648 1.584 1.08 2.52 1.08 c 2.016 0 3.6 -1.656 3.6 -3.6 c 0 -.36 -.072 -.72 -.144 -1.08 z" fill="#00a651"/><path d="m 121.896 506.752 c -1.944 0 -3.528 1.584 -3.528 3.528 c 0 .432 .072 .792 .144 1.152 c .144 .216 .216 .36 .288 .504 c .144 .36 .36 .648 .576 .936 v 0 c .648 .648 1.584 1.008 2.52 1.008 c 2.016 0 3.6 -1.584 3.6 -3.6 c 0 -.936 -.36 -1.872 -1.008 -2.52 v 0 c -.648 -.648 -1.584 -1.008 -2.592 -1.008 z" fill="#00a651"/><path d="m 104.832 517.912 c -.072 -.144 -.144 -.36 -.216 -.576 c -.144 -.288 -.36 -.576 -.648 -.792 v 0 c -.648 -.648 -1.512 -1.08 -2.52 -1.08 c -1.944 0 -3.6 1.584 -3.6 3.6 c 0 .36 .072 .792 .216 1.152 c .072 .144 .144 .288 .216 .504 c .216 .288 .432 .576 .648 .864 v 0 c .648 .648 1.512 1.008 2.52 1.008 c 1.944 0 3.6 -1.584 3.6 -3.528 c 0 -.432 -.072 -.792 -.216 -1.152 z" fill="#00a651"/><path d="m 94.608 522.304 c -.072 -.216 -.144 -.36 -.216 -.576 c -.216 -.288 -.432 -.576 -.648 -.864 v 0 c -.648 -.648 -1.512 -1.008 -2.52 -1.008 c -1.944 0 -3.6 1.584 -3.6 3.528 c 0 1.008 .432 1.944 1.08 2.592 v 0 c .648 .648 1.512 1.008 2.52 1.008 c 1.944 0 3.6 -1.584 3.6 -3.6 c 0 -.36 -.072 -.72 -.216 -1.08 z" fill="#00a651"/><path d="m 346.392 339.136 c -10.512 -3.312 -21.24 -6.48 -32.04 -9.432 c -10.584 -2.88 -21.24 -5.544 -31.68 -7.704 l -12.96 58.104 h .072 c -2.592 11.952 3.024 15.264 9.72 19.08 c 5.112 3.024 10.656 6.264 14.904 12.456 c 7.272 -3.96 14.544 -4.248 21.168 -4.536 c 8.136 -.288 14.904 -.576 16.992 -11.232 v -.216 z" fill="#ed1c24"/><path d="m 324 358.72 c -10.368 -3.456 -20.952 -5.904 -31.32 -9.36 c -.72 -7.272 -1.08 -14.616 -1.8 -21.816 c 2.592 3.096 6.48 7.2 9.648 9.72 c -3.168 2.232 -3.528 6.336 1.656 7.632 c 4.464 1.152 4.32 -3.384 1.728 -6.696 c 3.024 -1.368 6.624 -3.96 9.144 -5.904 c 1.512 3.384 3.456 6.336 5.76 9.576 c -3.384 1.224 -6.12 6.192 -1.728 8.064 c 5.04 2.232 6.984 -2.808 4.968 -6.768 c 2.448 -.144 4.608 -.648 6.624 -1.224 c 2.016 -.576 3.816 -1.224 5.616 -1.728 c -3.168 5.76 -7.2 12.744 -10.296 18.504 z" fill="#d2ab67"/><path d="m 309.96 363.472 c 1.08 -1.8 2.16 -3.6 3.168 -5.4 c -2.088 -.576 -4.176 -1.224 -6.264 -1.872 c -2.016 -.576 -4.104 -1.224 -6.192 -1.872 c .216 2.232 .36 4.392 .576 6.552 c -1.944 -1.224 -3.816 -2.448 -5.76 -3.672 c -.864 4.104 -1.8 8.208 -2.664 12.312 c 2.16 0 4.32 -.072 6.48 -.072 c -1.008 1.8 -2.088 3.6 -3.169 5.4 c 2.088 .648 4.176 1.224 6.337 1.8 c 2.088 .648 4.104 1.224 6.192 1.8 c -.216 -2.16 -.36 -4.32 -.576 -6.48 c 1.872 1.224 3.816 2.448 5.76 3.6 c .864 -4.032 1.728 -8.064 2.664 -12.096 c -2.232 0 -4.392 0 -6.552 0 z" fill="#d2ab67"/><path d="m 304.632 387.952 c 1.08 -1.8 2.088 -3.6 3.096 -5.4 c -2.016 -.576 -4.104 -1.224 -6.192 -1.8 c -2.088 -.576 -4.176 -1.152 -6.264 -1.728 c .144 2.16 .36 4.32 .504 6.48 c -1.872 -1.224 -3.816 -2.376 -5.688 -3.6 c -.936 4.104 -1.8 8.208 -2.736 12.312 c 2.16 -.072 4.392 -.144 6.552 -.144 c -1.08 1.8 -2.088 3.528 -3.168 5.328 c 2.088 .576 4.176 1.152 6.264 1.728 c 2.16 .576 4.248 1.152 6.336 1.656 c -.216 -2.088 -.36 -4.248 -.576 -6.408 c 1.944 1.152 3.816 2.376 5.688 3.528 c .864 -3.96 1.8 -8.064 2.664 -12.096 c -2.16 .072 -4.392 .072 -6.48 .144 z" fill="#d2ab67"/><path d="m 143.064 395.872 c -.504 1.8 -1.656 3.384 -3.24 4.392 c 1.008 1.296 1.656 2.952 1.656 4.68 c 0 2.664 -1.44 5.04 -3.528 6.408 c .936 1.296 1.584 2.88 1.584 4.608 c 0 3.312 -2.16 6.12 -5.04 7.128 c .432 1.008 .72 2.088 .72 3.24 c 0 3.168 -1.944 5.904 -4.752 7.056 c .576 1.008 .864 2.16 .864 3.384 c 0 3.312 -2.16 6.12 -5.112 7.2 c .504 .936 .72 2.016 .72 3.168 c 0 1.224 -.288 2.448 -.864 3.456 c 9.792 -4.752 20.16 -8.352 30.816 -10.8 c 42.408 -9.864 82.008 -.936 123.408 7.704 c 58.464 12.312 117.864 24.768 179.784 4.464 c 10.368 -3.384 20.304 -7.128 29.88 -11.304 c -47.16 -.216 -93.888 -8.856 -140.616 -23.904 c -5.688 -1.872 -11.16 -3.6 -16.632 -5.256 c -4.464 3.168 -10.368 3.384 -16.848 3.6 c -10.368 .432 -16.056 2.16 -24.192 8.208 c -4.176 -8.28 -7.92 -12.384 -16.2 -17.208 c -5.688 -3.384 -10.872 -6.408 -13.176 -12.096 c -9.648 -1.656 -19.224 -2.88 -28.8 -3.744 c -28.656 -2.376 -57.6 -.864 -90.432 5.616 z" fill="#00a651"/><path d="m 338.112 404.8 c 4.464 1.368 9 2.808 13.68 4.32 c 51.552 16.632 103.248 25.344 155.592 23.256 c 24.912 -12.888 47.52 -29.808 66.744 -50.184 l -28.512 -6.984 c -36.144 7.056 -70.488 7.056 -107.208 1.512 c -23.688 -3.528 -47.304 -9.288 -70.776 -16.848 c -5.688 -1.872 -11.304 -3.6 -16.776 -5.328 l -10.512 42.768 c -.576 2.952 -1.296 5.472 -2.232 7.488 z" fill="#fff"/><path d="m 129.672 337.552 c .504 .936 .72 2.088 .72 3.24 c 0 .576 -.072 1.152 -.144 1.656 c 1.656 .288 3.168 1.008 4.32 2.16 v 0 c 1.368 1.368 2.232 3.312 2.232 5.4 c 0 1.44 -.432 2.88 -1.224 4.032 c .72 .36 1.368 .792 1.944 1.368 v 0 c 1.368 1.368 2.232 3.312 2.232 5.4 c 0 1.44 -.432 2.736 -1.152 3.888 c .792 .36 1.44 .864 2.016 1.44 v 0 c 1.368 1.44 2.232 3.312 2.232 5.4 c 0 2.016 -.792 3.888 -2.16 5.256 c .288 .144 .504 .36 .72 .576 v .072 c 1.368 1.368 2.232 3.24 2.232 5.328 c 0 2.016 -.792 3.96 -2.16 5.328 c 33.696 -6.696 63.288 -8.28 92.736 -5.832 c 8.856 .792 17.784 1.944 26.784 3.384 c .072 -2.16 .36 -4.536 .936 -7.272 v 0 l 9.72 -43.56 c -12.168 -2.088 -24.192 -3.672 -36.288 -4.608 c -33.48 -2.592 -67.32 -.504 -105.696 7.344 z" fill="#fff"/><path d="M 199.656 332.944 L 185.4 353.968 L 204.336 377.368 L 193.248 378.16 L 175.968 356.2 L 177.552 379.24 L 168.048 379.96 L 164.952 335.392 L 174.456 334.744 L 175.752 353.968 L 189 333.736 Z" fill="#d2ab67"/><path d="m 223.416 353.104 l 4.464 .288 c 3.024 .144 5.184 -.216 6.48 -1.152 c 1.296 -.864 2.016 -2.448 2.088 -4.68 c .144 -2.232 -.432 -3.816 -1.656 -4.896 c -1.152 -1.008 -3.24 -1.584 -6.264 -1.728 l -4.464 -.288 z m -10.368 24.264 l 2.304 -44.568 l 13.248 .648 c 6.336 .36 10.872 1.656 13.608 3.96 c 2.664 2.304 3.96 5.832 3.672 10.584 c -.216 4.536 -1.728 7.92 -4.464 10.08 c -2.736 2.232 -6.696 3.168 -11.808 2.88 l -6.624 -.36 l -.864 17.208 z" fill="#d2ab67"/><path d="m 81.576 299.968 c .936 .36 1.8 .936 2.52 1.656 v 0 c .936 .936 1.584 2.088 1.944 3.312 c .936 -.36 1.872 -.576 2.952 -.576 c 2.088 0 3.96 .864 5.328 2.232 v 0 c .936 .936 1.656 2.16 2.016 3.456 c .864 -.288 1.728 -.432 2.664 -.432 c 2.088 0 3.96 .792 5.328 2.16 v .072 c 1.224 1.152 2.016 2.808 2.232 4.608 c .504 -.144 1.008 -.144 1.512 -.144 c 2.088 0 4.032 .792 5.4 2.16 v .072 c 1.368 1.368 2.16 3.24 2.16 5.328 c 0 0 0 0 0 .072 c .36 -.072 .648 -.072 .936 -.072 c 2.088 0 3.96 .864 5.4 2.232 v 0 c 1.152 1.152 1.944 2.736 2.16 4.464 c 40.824 -8.712 76.536 -11.088 111.816 -8.352 c 12.456 .936 24.84 2.592 37.44 4.752 l 3.168 -14.328 c 26.928 5.328 53.208 12.888 79.416 21.096 l -3.24 13.104 l .432 .072 c 17.208 5.328 34.128 10.872 51.624 15.12 c 11.592 2.736 23.184 5.04 34.848 6.84 c 28.728 4.32 57.744 5.184 86.616 1.44 c -30.384 -7.704 -59.112 -15.984 -89.352 -25.848 c -44.064 -14.4 -72.144 -33.48 -113.472 -51.552 c -53.712 -23.544 -106.416 -30.816 -170.208 -16.776 c -27.216 5.688 -52.92 14.4 -71.64 23.832 z" fill="#00a651"/><path d="M 366.408 409.696 L 344.304 403 L 357.336 360.376 L 366.408 363.112 L 355.608 398.176 L 368.64 402.208 Z" fill="#d2ab67"/><path d="M 384.408 386.872 L 397.512 390.184 L 395.856 396.736 L 382.68 393.568 L 379.584 406.096 L 394.344 409.84 L 392.616 416.824 L 368.712 410.848 L 379.512 367.576 L 402.912 373.408 L 401.256 380.104 L 386.928 376.576 Z" fill="#d2ab67"/><path d="m 426.744 408.472 c 0 .216 0 .504 -.072 .792 c 0 .288 -.072 .72 -.216 1.224 c -.864 4.392 -2.664 7.488 -5.472 9.432 c -2.808 1.872 -6.408 2.448 -10.8 1.584 c -2.016 -.36 -3.888 -1.008 -5.544 -1.872 c -1.656 -.936 -2.88 -1.944 -3.744 -3.024 c -1.512 -1.944 -2.376 -4.392 -2.52 -7.416 c -.216 -3.024 .288 -7.776 1.584 -14.112 c .864 -4.392 1.728 -7.776 2.664 -10.152 c .936 -2.376 2.088 -4.248 3.528 -5.616 c 1.368 -1.44 3.168 -2.448 5.4 -2.88 c 2.16 -.504 4.608 -.432 7.344 .072 c 4.392 .864 7.56 2.664 9.36 5.328 c 1.8 2.736 2.232 6.264 1.368 10.728 l -.144 .864 l -9.144 -1.8 l .144 -.864 c .432 -2.304 .432 -4.104 -.072 -5.328 c -.504 -1.296 -1.512 -2.016 -3.024 -2.304 c -2.016 -.432 -3.672 .288 -4.824 2.088 c -1.152 1.8 -2.448 6.264 -3.816 13.392 c -1.152 5.976 -1.512 10.08 -1.08 12.24 c .36 2.088 1.656 3.384 3.744 3.816 c 1.44 .288 2.664 -.144 3.672 -1.224 c .936 -1.008 1.728 -2.808 2.16 -5.256 c .072 -.144 .072 -.36 .144 -.72 c 0 -.36 .072 -.576 .144 -.792 z" fill="#d2ab67"/><path d="M 450.648 399.256 L 452.736 382.12 L 462.024 383.272 L 456.552 427.48 L 447.264 426.4 L 449.712 406.744 L 439.632 405.52 L 437.184 425.104 L 427.968 424.024 L 433.44 379.744 L 442.656 380.896 L 440.496 398.032 Z" fill="#d2ab67"/><path d="M 464.832 383.56 L 473.976 383.992 L 471.6 428.56 L 462.528 428.056 Z" fill="#d2ab67"/><path d="m 487.512 412.288 h 9.504 l -4.608 -19.296 z m 13.608 16.776 l -2.376 -9.936 h -12.96 l -2.376 9.936 h -9.36 l 12.6 -44.568 h 11.88 l 12.384 44.568 z" fill="#d2ab67"/><path d="m 120.816 429.568 c 0 .072 0 .144 0 .216 h .072 c 0 -.072 -.072 -.144 -.072 -.216 z" fill="#ed1c24"/><path d="m 122.616 353.752 c -3.168 13.608 -4.824 27.792 -4.824 42.336 c 0 10.008 .792 19.8 2.304 29.448 c .36 -2.952 2.304 -5.4 4.968 -6.336 c -.432 -1.008 -.72 -2.088 -.72 -3.24 c 0 -2.664 1.44 -5.04 3.528 -6.408 c -.936 -1.296 -1.584 -2.88 -1.584 -4.608 c 0 -2.664 1.44 -5.04 3.528 -6.336 c -1.008 -1.296 -1.656 -2.88 -1.656 -4.68 c 0 -2.304 1.08 -4.32 2.664 -5.76 c 0 0 -.072 0 -.072 -.072 v 0 c -1.368 -1.368 -2.232 -3.24 -2.232 -5.328 c 0 -2.088 .792 -3.888 2.088 -5.256 c -.216 -.216 -.432 -.432 -.648 -.648 v 0 c -1.44 -1.368 -2.232 -3.24 -2.232 -5.328 c 0 -1.44 .36 -2.808 1.08 -3.96 c -.72 -.36 -1.44 -.864 -2.016 -1.44 v 0 c -1.368 -1.368 -2.232 -3.24 -2.232 -5.328 c 0 -1.512 .432 -2.88 1.224 -4.104 c -.72 -.36 -1.368 -.792 -1.944 -1.368 v 0 c -.504 -.504 -.864 -1.008 -1.224 -1.584 z" fill="#ed1c24"/><path d="m 306.576 207.304 c -52.992 0 -101.016 22.032 -135.36 57.456 c 69.264 -10.44 127.08 3.672 187.92 36.576 L 434.52 257.488 C 400.824 226.384 355.824 207.304 306.576 207.304 Z" fill="#ed1c24"/><path d="m 490.32 352.6 c -9.648 -34.632 -24.048 -63.216 -49.68 -89.208 l -73.08 42.48 c 39.24 20.952 80.712 35.064 122.76 46.728 z" fill="#fff"/><path d="m 128.376 458.368 c 10.008 28.368 26.568 53.712 47.88 74.088 l 125.352 -72.36 c -7.632 -1.584 -15.264 -3.168 -22.896 -4.753 c -40.176 -8.424 -78.912 -17.352 -120.096 -7.776 c -10.512 2.449 -20.664 5.977 -30.24 10.801 z" fill="#fff"/><path d="m 182.664 538.288 c 33.192 28.944 76.536 46.584 123.912 46.584 c 85.104 0 157.32 -56.808 180.792 -134.496 c -7.92 3.312 -16.2 6.336 -24.84 9.216 c -51.336 16.848 -100.44 11.952 -148.68 2.88 z" fill="#0089cf"/></g></svg>