<svg fill-rule="evenodd" height="1000" viewBox="0 0 749.99998 749.99998" width="1000" xmlns="http://www.w3.org/2000/svg"><g transform="matrix(1.2568531 0 0 1.2568531 .990798 -154.13014)"><path d="m 297.576 701.346 c 120.528 0 218.88 -98.352 218.88 -218.88 c 0 -120.528 -98.352 -218.808 -218.88 -218.808 c -120.528 0 -218.8802 98.28 -218.8802 218.808 c 0 120.528 98.3522 218.88 218.8802 218.88 z" fill="#fdc400"/><path d="m 242.928 209.226 c -52.632 2.808 -29.664 54.432 -7.488 70.704 c -9.216 2.808 -18.072 6.264 -26.712 10.296 l -14.256 -28.944 c -18.288 -37.08 9.072 -75.456 50.112 -71.928 c 8.568 -6.048 18.648 -10.152 30.6 -12.024 c .432 -5.472 2.52 -9.936 5.976 -13.752 h -.792 c -3.384 -34.704 37.8 -34.704 34.416 0 h -.792 c 3.456 3.816 5.544 8.28 5.976 13.752 c 11.952 1.872 22.032 5.976 30.6 12.024 c 41.04 -3.528 68.4 34.848 50.112 71.928 l -14.256 28.944 c -8.64 -4.032 -17.568 -7.488 -26.712 -10.296 c 22.176 -16.272 45.144 -67.896 -7.488 -70.704 c -26.856 -31.608 -82.44 -31.608 -109.296 0 z" fill="#fc0"/><path d="M 244.8 687.666 C 153.504 664.122 85.6802 580.962 85.6802 482.466 c 0 -87.408 53.4238 -162.792 129.3118 -195.048 l 18 36.432 c -62.496 25.56 -106.776 87.12 -106.776 158.616 c 0 79.344 54.432 146.376 127.872 165.744 c 8.28 6.912 15.912 14.616 23.328 22.392 c .144 .216 .288 .36 .504 .504 c -4.824 4.032 -9.936 7.704 -15.768 10.728 c -5.544 2.88 -11.376 4.824 -17.352 5.832 z" fill="#00569f"/><path d="m 380.16 287.418 c 75.888 32.256 129.312 107.64 129.312 195.048 c 0 98.496 -67.824 181.656 -159.12 205.2 c -5.976 -1.008 -11.808 -2.952 -17.352 -5.832 c -5.832 -3.024 -10.944 -6.696 -15.768 -10.728 c .216 -.144 .36 -.288 .504 -.504 c 7.416 -7.776 15.048 -15.48 23.328 -22.392 c 73.44 -19.368 127.872 -86.4 127.872 -165.744 c 0 -71.496 -44.28 -133.056 -106.776 -158.616 z" fill="#00569f"/><path d="m 369.36 607.098 c -2.664 4.392 -5.472 8.568 -8.424 12.6 c -2.52 3.384 -5.184 6.624 -7.92 9.792 c -8.208 -.432 -16.272 1.008 -24.624 4.248 c -7.992 3.096 -15.768 7.632 -22.968 12.96 c -2.592 .072 -5.256 .144 -7.848 .144 c -2.592 0 -5.256 -.072 -7.848 -.144 c -7.2 -5.328 -14.976 -9.864 -22.968 -12.96 c -8.352 -3.24 -16.416 -4.68 -24.624 -4.248 c -2.736 -3.168 -5.4 -6.408 -7.92 -9.792 c -2.952 -4.032 -5.76 -8.208 -8.424 -12.6 c 6.264 3.528 12.744 6.696 19.224 9.648 c 7.632 3.384 15.336 6.48 23.04 9.288 c 12.024 4.464 20.592 9.072 29.52 18.576 c 8.928 -9.504 17.496 -14.112 29.52 -18.576 c 7.704 -2.808 15.408 -5.904 23.04 -9.288 c 6.48 -2.952 12.96 -6.12 19.224 -9.648 z" fill="#fff"/><path d="m 302.688 694.29 c -1.728 .072 -3.456 .072 -5.112 .072 c -1.656 0 -3.384 0 -5.112 -.072 c 1.728 -1.152 3.384 -2.376 5.112 -3.816 c 1.656 1.44 3.384 2.664 5.112 3.816 z" fill="#00569f"/><path d="m 434.088 573.834 c -16.776 24.984 -40.176 45.072 -67.608 57.816 v 0 c -19.152 8.928 -34.416 23.904 -48.744 38.952 c -.144 .144 -.288 .36 -.504 .504 c 4.824 4.032 9.936 7.704 15.768 10.728 c 12.024 6.192 25.056 7.992 38.448 6.048 c 1.368 -.216 2.664 -.432 3.96 -.936 c -2.592 2.592 -5.472 4.608 -8.496 6.48 c -10.728 6.768 -21.96 11.016 -33.768 11.016 c -11.448 -.072 -23.328 -4.176 -35.568 -13.968 c -12.24 9.792 -24.12 13.896 -35.568 13.968 c -11.808 0 -23.04 -4.248 -33.768 -11.016 c -3.024 -1.872 -5.904 -3.888 -8.496 -6.48 c 1.296 .504 2.592 .72 3.96 .936 c 13.392 1.944 26.424 .144 38.448 -6.048 c 5.832 -3.024 10.944 -6.696 15.768 -10.728 c -.216 -.144 -.36 -.36 -.504 -.504 c -14.328 -14.976 -29.52 -29.952 -48.6 -38.88 c -27.504 -12.744 -50.976 -32.904 -67.752 -57.888 c 7.992 4.464 16.56 8.28 25.632 11.304 c 4.536 1.512 9.144 2.808 13.896 3.96 c 7.56 7.056 16.2 12.888 25.2 18 c 2.664 4.392 5.472 8.568 8.424 12.6 c 2.52 3.384 5.184 6.624 7.92 9.792 c 8.208 -.432 16.272 1.008 24.624 4.248 c 11.016 4.248 21.6 11.232 30.816 19.296 c 9.216 -8.064 19.8 -15.048 30.816 -19.296 c 8.352 -3.24 16.416 -4.68 24.624 -4.248 c 2.736 -3.168 5.4 -6.408 7.92 -9.792 c 2.952 -4.032 5.76 -8.208 8.424 -12.6 c 9 -5.112 17.64 -10.944 25.2 -18 c 4.752 -1.152 9.36 -2.448 13.896 -3.96 c 9.072 -3.024 17.64 -6.84 25.632 -11.304 z" fill="#1f211d"/><path d="m 471.024 519.69 l .792 -6.408 l 6.912 -1.728 l 1.44 -11.664 l -6.264 -3.168 l .72 -6.264 l 27.72 14.904 l -.792 6.192 z m 12.888 -9.432 l 11.232 -2.664 l -10.296 -5.256 z" fill="#fd0"/><path d="m 470.376 521.634 l 28.296 7.632 l -1.584 5.688 l -12.528 -3.384 l 9.432 14.904 l -2.016 7.704 l -8.208 -13.608 l -20.232 6.624 l 1.944 -7.416 l 15.336 -4.176 l -3.456 -5.904 l -8.568 -2.304 z" fill="#fd0"/><path d="m 463.248 570.378 l -4.176 4.248 c -2.448 -2.232 -3.888 -4.608 -4.392 -7.128 c -.432 -2.52 .072 -5.184 1.44 -7.992 c 1.8 -3.456 4.464 -5.688 7.92 -6.696 c 3.528 -1.008 7.344 -.504 11.448 1.584 c 4.32 2.232 7.128 5.04 8.424 8.496 c 1.224 3.456 .936 7.056 -.936 10.728 c -1.656 3.168 -3.888 5.256 -6.768 6.336 c -1.728 .576 -3.816 .648 -6.192 .216 l 1.44 -5.832 c 1.512 .36 2.88 .288 4.176 -.36 c 1.296 -.576 2.232 -1.512 2.952 -2.952 c 1.008 -1.944 1.152 -3.816 .36 -5.76 c -.792 -1.944 -2.736 -3.672 -5.832 -5.256 c -3.312 -1.656 -5.976 -2.304 -7.992 -1.8 c -2.016 .504 -3.456 1.656 -4.464 3.528 c -.72 1.44 -.864 2.88 -.504 4.32 c .432 1.44 1.44 2.88 3.096 4.32 z" fill="#fd0"/><path d="m 444.888 580.242 l 10.152 7.056 l 20.016 .936 l -3.96 5.688 l -13.464 -1.008 l 5.616 12.24 l -3.888 5.544 l -7.776 -18.576 l -10.08 -7.056 z" fill="#fd0"/><path d="m 448.056 623.082 l -4.032 4.32 l -13.536 -12.672 c -1.8 -1.656 -3.024 -3.096 -3.672 -4.248 c -.864 -1.584 -1.152 -3.312 -.864 -5.112 c .216 -1.8 1.224 -3.6 2.88 -5.4 c 2.016 -2.088 4.104 -3.168 6.336 -3.24 c 2.232 0 4.536 1.008 6.84 3.168 l -3.312 4.464 c -1.296 -1.08 -2.304 -1.728 -3.168 -1.872 c -1.152 -.216 -2.232 .144 -3.096 1.08 c -.936 .936 -1.296 1.872 -1.08 2.808 c .144 .936 1.152 2.16 2.88 3.816 z" fill="#fd0"/><path d="m 419.184 611.13 l 19.224 22.104 l -4.392 3.816 l -21.816 -6.912 l 12.816 14.76 l -4.176 3.6 l -19.224 -22.104 l 4.536 -3.888 l 21.384 6.696 l -12.528 -14.472 z" fill="#fd0"/><path d="m 374.112 642.234 l 5.544 -3.168 l 5.544 4.464 l 10.152 -5.832 l -1.224 -6.984 l 5.4 -3.168 l 4.752 31.104 l -5.4 3.096 z m 15.192 4.608 l 8.928 7.416 l -2.016 -11.376 z" fill="#fd0"/><path d="m 211.896 637.626 l -10.08 28.368 l -5.04 -3.312 l 7.2 -19.224 l -15.408 13.896 l -5.904 -3.816 l 6.84 -19.944 l -14.904 14.688 l -5.04 -3.24 l 21.96 -20.664 l 5.256 3.384 l -7.056 21.6 l 16.848 -15.192 z" fill="#fd0"/><path d="m 181.944 615.954 l -19.224 22.104 l -4.464 -3.888 l 19.224 -22.104 z" fill="#fd0"/><path d="m 164.664 613.794 l -4.176 -4.104 c 1.296 -1.44 1.944 -2.952 1.944 -4.32 c 0 -1.368 -.576 -2.808 -1.728 -4.176 c -1.224 -1.44 -2.448 -2.304 -3.672 -2.52 c -1.224 -.216 -2.304 0 -3.096 .72 c -.576 .432 -.864 1.008 -.936 1.584 c -.144 .648 0 1.44 .36 2.448 c .288 .72 .936 2.16 2.088 4.464 c 1.44 2.952 2.088 5.256 2.016 6.984 c -.072 2.448 -1.008 4.392 -2.736 5.832 c -1.152 1.008 -2.52 1.584 -4.032 1.728 c -1.512 .216 -3.096 -.072 -4.608 -.864 c -1.584 -.792 -3.096 -2.016 -4.536 -3.744 c -2.304 -2.88 -3.528 -5.472 -3.456 -7.92 c .072 -2.52 1.08 -4.608 3.096 -6.408 l 3.96 4.32 c -1.008 1.224 -1.44 2.304 -1.44 3.384 c 0 1.08 .576 2.232 1.656 3.456 c 1.08 1.368 2.232 2.16 3.384 2.448 c .792 .216 1.44 .072 2.016 -.432 c .504 -.432 .792 -1.08 .792 -1.8 c 0 -1.008 -.648 -2.808 -2.016 -5.472 c -1.296 -2.664 -2.16 -4.68 -2.448 -6.264 c -.36 -1.512 -.288 -2.952 .216 -4.392 c .432 -1.368 1.368 -2.664 2.808 -3.888 c 1.296 -1.08 2.808 -1.728 4.464 -1.944 c 1.728 -.216 3.456 .072 5.112 .936 c 1.584 .864 3.24 2.232 4.896 4.176 c 2.376 2.88 3.528 5.616 3.528 8.208 c -.072 2.592 -1.224 5.112 -3.456 7.56 z" fill="#fd0"/><path d="m 139.392 590.394 l -12.456 7.776 l -3.096 -4.968 l 8.208 -5.184 l -8.208 -2.664 l 4.104 -2.52 l 8.136 2.664 l 8.352 -5.256 l -7.776 -12.456 l 4.176 -2.592 l 10.944 17.496 l -8.352 5.184 l 3.816 1.296 l -4.032 2.52 z" fill="#fd0"/><path d="m 128.304 534.306 l 2.304 5.976 l -5.328 4.752 l 4.176 10.944 l 7.128 -.144 l 2.232 5.904 l -31.464 -.144 l -2.232 -5.904 z m -6.984 14.256 l -8.64 7.704 l 11.52 -.216 z" fill="#fd0"/><path d="m 385.92 452.73 c -.936 -12.744 3.024 -25.632 12.6 -34.704 c 4.104 -3.888 8.928 -6.696 14.184 -8.64 L 390.816 378.282 L 177.264 538.266 c 3.456 12.816 8.856 25.056 16.992 35.64 c 3.744 4.896 7.92 9.216 12.456 13.176 z" fill="#00569f"/><path d="m 390.816 378.282 l -17.64 -25.128 c -5.4 4.392 -11.016 7.704 -16.704 9.936 c -13.536 5.256 -27.72 4.752 -40.896 -1.224 c -5.976 -2.664 -11.952 -6.48 -18 -11.52 c -6.048 5.04 -12.024 8.856 -18 11.52 c -13.176 5.976 -27.36 6.48 -40.896 1.224 c -5.688 -2.232 -11.304 -5.544 -16.704 -9.936 l -39.528 56.232 c 5.256 1.944 10.08 4.752 14.184 8.64 c 14.184 13.464 16.128 35.424 7.848 52.632 c -6.336 13.248 -17.64 22.176 -32.04 24.912 c -.144 10.368 .576 20.376 2.088 29.736 c .72 4.392 1.656 8.712 2.736 12.96 z" fill="#e21c2a"/><path d="m 297.576 636.546 c 7.992 -7.704 17.28 -11.88 27.576 -15.696 c 7.776 -2.88 15.336 -5.904 22.68 -9.216 c 19.8 -8.928 39.6 -20.16 53.064 -37.728 c 10.8 -14.112 16.848 -31.104 19.728 -48.6 c 1.512 -9.36 2.232 -19.368 2.088 -29.736 c -14.4 -2.736 -25.704 -11.664 -32.04 -24.912 c -2.664 -5.616 -4.32 -11.736 -4.752 -17.928 L 206.712 587.082 c 11.952 10.44 26.208 18.072 40.608 24.552 c 7.344 3.312 14.904 6.336 22.68 9.216 c 10.296 3.816 19.584 7.992 27.576 15.696 z" fill="#e21c2a"/><path d="m 297.576 518.97 l -48.96 36.72 l 18.936 -59.256 l -45.648 -34.272 h 56.952 l 18.72 -58.104 l 18.72 58.104 h 56.952 l -45.72 34.272 l 19.008 59.256 z" fill="#fff"/><path d="m 400.68 326.802 l 4.896 3.096 c -.936 1.728 -1.296 3.312 -1.008 4.68 c .288 1.368 1.152 2.592 2.592 3.672 c 1.44 1.224 2.88 1.728 4.104 1.728 c 1.224 -.072 2.232 -.504 2.88 -1.368 c .432 -.504 .648 -1.08 .576 -1.728 c 0 -.648 -.288 -1.44 -.864 -2.304 c -.36 -.648 -1.368 -1.944 -2.952 -3.96 c -2.016 -2.593 -3.168 -4.68 -3.456 -6.408 c -.432 -2.376 .072 -4.464 1.512 -6.264 c .936 -1.224 2.088 -2.016 3.528 -2.52 c 1.512 -.504 3.096 -.576 4.752 -.072 c 1.656 .432 3.384 1.296 5.184 2.736 c 2.88 2.232 4.536 4.608 5.04 6.984 c .432 2.448 -.072 4.752 -1.656 6.912 l -4.824 -3.456 c .72 -1.297 .936 -2.52 .72 -3.528 c -.288 -1.08 -1.08 -2.088 -2.376 -3.096 c -1.368 -1.08 -2.592 -1.656 -3.816 -1.656 c -.792 -.072 -1.368 .216 -1.872 .864 c -.432 .504 -.576 1.152 -.36 1.944 c .144 .936 1.224 2.592 3.024 4.896 c 1.872 2.304 3.096 4.176 3.744 5.544 c .648 1.44 .864 2.88 .72 4.392 c -.144 1.44 -.792 2.88 -1.944 4.392 c -1.008 1.296 -2.376 2.232 -4.032 2.808 c -1.584 .576 -3.312 .648 -5.112 .144 c -1.8 -.504 -3.672 -1.512 -5.688 -3.096 c -2.88 -2.232 -4.608 -4.68 -5.112 -7.272 c -.504 -2.52 .072 -5.256 1.8 -8.064 z" fill="#fd0"/><path d="m 416.52 351.498 l 21.096 -20.304 l 6.624 6.768 c 2.448 2.592 3.96 4.392 4.536 5.4 c .864 1.512 1.152 3.168 .864 5.04 c -.288 1.8 -1.224 3.528 -2.952 5.184 c -1.296 1.224 -2.592 2.016 -3.888 2.448 c -1.368 .36 -2.592 .432 -3.816 .216 c -1.224 -.288 -2.232 -.648 -3.168 -1.296 c -1.152 -.792 -2.664 -2.16 -4.536 -4.104 l -2.664 -2.736 l -7.992 7.632 z m 21.6 -12.672 l -5.976 5.832 l 2.304 2.304 c 1.584 1.656 2.808 2.664 3.528 3.024 c .792 .36 1.584 .504 2.376 .36 c .72 -.144 1.44 -.504 2.088 -1.08 c .72 -.792 1.152 -1.584 1.224 -2.52 c .072 -.936 -.144 -1.8 -.72 -2.664 c -.36 -.576 -1.296 -1.656 -2.808 -3.168 z" fill="#fd0"/><path d="m 445.608 360.714 c 2.448 -1.728 4.68 -2.88 6.84 -3.312 c 1.584 -.36 3.24 -.432 4.896 -.144 c 1.584 .216 3.096 .72 4.32 1.512 c 1.728 1.008 3.24 2.448 4.68 4.392 c 2.52 3.528 3.456 7.056 2.808 10.728 c -.648 3.672 -2.88 6.912 -6.696 9.72 c -3.888 2.808 -7.632 3.888 -11.304 3.384 c -3.672 -.504 -6.768 -2.448 -9.288 -5.976 c -2.52 -3.528 -3.528 -7.056 -2.88 -10.728 c .648 -3.672 2.88 -6.84 6.624 -9.576 z m 3.744 4.824 c -2.664 1.944 -4.248 4.032 -4.752 6.264 c -.504 2.304 -.072 4.32 1.368 6.264 c 1.368 1.872 3.168 2.952 5.472 3.168 c 2.232 .216 4.752 -.648 7.488 -2.664 c 2.736 -1.944 4.32 -4.032 4.824 -6.192 c .432 -2.16 -.072 -4.248 -1.44 -6.192 c -1.44 -1.944 -3.312 -3.096 -5.544 -3.312 c -2.232 -.216 -4.68 .648 -7.416 2.664 z m 14.904 -5.832 l 2.088 2.664 l 5.544 .648 l -2.952 -4.176 z" fill="#fd0"/><path d="m 464.544 389.226 l 12.888 -6.912 l 2.808 5.184 l -8.568 4.536 l 7.92 3.24 l -4.248 2.304 l -7.92 -3.24 l -8.712 4.608 l 6.912 13.032 l -4.32 2.304 l -9.72 -18.216 l 8.712 -4.608 l -3.744 -1.584 l 4.176 -2.16 z" fill="#fd0"/><path d="m 462.24 417.306 l 27.648 -9.504 l 1.944 5.544 l -12.312 4.248 l 16.2 6.984 l 2.592 7.56 l -14.4 -6.696 l -13.104 16.776 l -2.52 -7.2 l 10.44 -12.096 l -6.192 -2.88 l -8.424 2.808 z" fill="#fd0"/><path d="m 475.2 470.226 l -1.224 -6.336 l 6.048 -3.744 l -2.232 -11.52 l -6.984 -1.08 l -1.224 -6.192 l 30.96 5.616 l 1.152 6.12 z m 9.288 -12.888 l 9.936 -6.048 l -11.448 -1.8 z" fill="#fd0"/><path d="m 121.896 505.866 l -29.2319 2.088 l -.4322 -5.904 l 12.9601 -.936 l -13.7521 -11.016 l -.5761 -7.92 l 12.1682 10.224 l 16.992 -12.888 l .576 7.632 l -13.176 9 l 5.184 4.464 l 8.856 -.648 z" fill="#fd0"/><path d="m 120.096 473.61 l -28.9441 -4.032 l 1.728 -12.384 c .4321 -3.096 1.0083 -5.256 1.728 -6.624 c .7202 -1.296 1.8003 -2.304 3.2402 -2.952 c 1.44 -.72 3.0239 -.864 4.7519 -.648 c 2.16 .288 3.888 1.224 5.112 2.664 c 1.224 1.512 1.872 3.528 1.872 6.12 c .936 -1.152 1.872 -2.088 2.88 -2.808 c 1.008 -.648 2.736 -1.584 5.184 -2.664 l 6.12 -2.736 l -.936 6.984 l -6.912 3.384 c -2.52 1.152 -4.032 2.016 -4.752 2.448 c -.648 .504 -1.08 1.008 -1.44 1.584 c -.288 .648 -.504 1.584 -.72 2.952 l -.144 1.152 l 12.096 1.728 z m -15.912 -8.208 l .648 -4.32 c .36 -2.808 .504 -4.608 .36 -5.328 c -.144 -.72 -.432 -1.296 -1.008 -1.8 c -.504 -.504 -1.224 -.792 -2.088 -.936 c -.936 -.072 -1.8 .072 -2.4481 .504 c -.6479 .432 -1.1518 1.08 -1.4399 2.016 c -.144 .504 -.3599 1.872 -.7202 4.248 l -.648 4.608 z" fill="#fd0"/><path d="m 132.408 416.514 l -1.8 6.12 l -7.128 .576 l -3.24 11.304 l 5.76 4.104 l -1.728 6.048 l -24.9839 -19.008 l 1.7279 -5.976 z m -14.184 7.2 l -11.52 .864 l 9.36 6.768 z" fill="#fd0"/><path d="m 135.576 410.97 l -25.848 -13.752 l 2.808 -5.256 l 11.448 6.12 l -5.832 -16.632 l 3.672 -7.056 l 4.896 15.12 l 21.312 -1.872 l -3.6 6.768 l -15.912 .648 l 2.016 6.48 l 7.848 4.176 z" fill="#fd0"/><path d="m 139.248 374.538 c -2.304 -1.872 -3.96 -3.816 -4.968 -5.76 c -.792 -1.512 -1.224 -3.024 -1.44 -4.68 c -.216 -1.656 -.072 -3.168 .36 -4.608 c .504 -1.872 1.584 -3.744 3.024 -5.616 c 2.736 -3.384 5.976 -5.184 9.648 -5.544 c 3.744 -.36 7.416 1.008 11.16 4.032 c 3.672 2.952 5.76 6.264 6.192 9.936 c .432 3.672 -.648 7.2 -3.384 10.584 c -2.736 3.384 -5.976 5.184 -9.648 5.544 c -3.672 .36 -7.344 -1.008 -10.944 -3.888 z m 3.672 -4.896 c 2.592 2.088 5.04 3.096 7.344 2.952 c 2.304 -.072 4.176 -1.08 5.616 -2.88 c 1.512 -1.872 2.088 -3.888 1.728 -6.12 c -.432 -2.232 -1.872 -4.464 -4.536 -6.552 c -2.592 -2.16 -5.04 -3.168 -7.2 -3.024 c -2.232 .072 -4.104 1.08 -5.616 2.952 c -1.584 1.944 -2.16 3.96 -1.8 6.192 c .36 2.232 1.872 4.392 4.464 6.48 z m -9.504 -12.816 l 2.016 -3.096 l -.864 -5.76 l -3.312 4.248 z" fill="#fd0"/><path d="m 176.184 352.794 l -23.544 -18.792 l 4.752 -3.744 l 15.84 13.176 l -8.136 -19.152 l 5.544 -4.32 l 16.632 12.96 l -9.072 -18.936 l 4.68 -3.672 l 12.456 27.504 l -4.968 3.816 l -18.072 -13.609 l 8.928 20.809 z" fill="#fd0"/><path d="m 387.36 253.29 c .216 -.432 .36 -.936 .576 -1.368 c 1.152 1.872 3.168 3.168 5.472 3.168 c 3.528 0 6.408 -2.88 6.408 -6.408 c 0 -3.528 -2.88 -6.408 -6.408 -6.408 c -1.008 0 -1.944 .216 -2.808 .576 c .288 -1.08 .432 -2.232 .576 -3.312 c 1.152 1.08 2.664 1.728 4.392 1.728 c 3.528 0 6.408 -2.88 6.408 -6.408 c 0 -3.528 -2.88 -6.408 -6.408 -6.408 c -1.728 0 -3.24 .72 -4.392 1.8 c -.144 -1.008 -.288 -1.944 -.504 -2.88 c .648 .216 1.296 .288 2.016 .288 c 3.528 0 6.408 -2.88 6.408 -6.408 c 0 -3.528 -2.88 -6.408 -6.408 -6.408 c -2.52 0 -4.68 1.44 -5.76 3.528 c -.432 -.72 -.936 -1.44 -1.44 -2.088 c 3.096 -.432 5.544 -3.096 5.544 -6.336 c 0 -3.528 -2.88 -6.408 -6.408 -6.408 c -3.456 0 -6.336 2.736 -6.408 6.192 c -.576 -.36 -1.224 -.72 -1.8 -1.08 c -.288 -.144 -.504 -.216 -.792 -.36 c 2.16 -1.08 3.6 -3.24 3.6 -5.76 c 0 -3.528 -2.88 -6.408 -6.408 -6.408 c -3.528 0 -6.408 2.88 -6.408 6.408 c 0 .864 .216 1.728 .504 2.52 c -1.152 -.288 -2.376 -.576 -3.6 -.792 c 1.44 -1.152 2.376 -2.952 2.376 -4.968 c 0 -3.528 -2.88 -6.408 -6.408 -6.408 c -3.528 0 -6.408 2.88 -6.408 6.408 c 0 .576 .072 1.152 .216 1.656 c -.936 -1.008 -1.872 -1.944 -2.88 -2.88 c -9.216 -8.568 -22.392 -13.536 -37.872 -14.544 c .432 -1.512 .72 -3.096 .72 -4.752 c 0 -7.704 -5.688 -14.112 -13.032 -15.336 v -6.696 h 7.992 v -4.968 h -7.992 v -7.992 h -4.896 v 7.992 h -7.992 v 4.968 h 7.992 v 6.696 c -7.344 1.224 -13.032 7.632 -13.032 15.336 c 0 1.656 .288 3.24 .72 4.752 c -15.48 1.008 -28.656 5.976 -37.872 14.544 c -1.008 .936 -1.944 1.872 -2.88 2.88 c .144 -.504 .216 -1.08 .216 -1.656 c 0 -3.528 -2.88 -6.408 -6.408 -6.408 c -3.528 0 -6.408 2.88 -6.408 6.408 c 0 2.016 .936 3.816 2.376 4.968 c -1.224 .216 -2.448 .504 -3.6 .792 c .288 -.792 .504 -1.656 .504 -2.52 c 0 -3.528 -2.88 -6.408 -6.408 -6.408 c -3.528 0 -6.408 2.88 -6.408 6.408 c 0 2.52 1.44 4.68 3.6 5.76 c -.288 .144 -.504 .216 -.792 .36 c -.576 .36 -1.224 .72 -1.8 1.08 c -.072 -3.456 -2.952 -6.192 -6.408 -6.192 c -3.528 0 -6.408 2.88 -6.408 6.408 c 0 3.24 2.448 5.904 5.544 6.336 c -.504 .648 -1.008 1.368 -1.44 2.088 c -1.08 -2.088 -3.24 -3.528 -5.76 -3.528 c -3.528 0 -6.408 2.88 -6.408 6.408 c 0 3.528 2.88 6.408 6.408 6.408 c .72 0 1.368 -.072 2.016 -.288 c -.216 .936 -.36 1.872 -.504 2.88 c -1.152 -1.08 -2.664 -1.8 -4.392 -1.8 c -3.528 0 -6.408 2.88 -6.408 6.408 c 0 3.528 2.88 6.408 6.408 6.408 c 1.728 0 3.24 -.648 4.392 -1.728 c .144 1.08 .288 2.232 .576 3.312 c -.864 -.36 -1.8 -.576 -2.808 -.576 c -3.528 0 -6.408 2.88 -6.408 6.408 c 0 3.528 2.88 6.408 6.408 6.408 c 2.304 0 4.32 -1.296 5.472 -3.168 c .216 .432 .36 .936 .576 1.368 c -2.88 1.44 -5.544 4.392 -6.408 6.552 l 31.608 64.008 c 19.944 -8.208 41.76 -12.744 64.584 -12.744 c 22.824 0 44.64 4.536 64.584 12.744 l 31.608 -64.008 c -.864 -2.16 -3.528 -5.112 -6.408 -6.552 z M 230.616 240.906 c -1.728 .072 -3.312 1.152 -4.176 3.096 c -1.512 3.24 -.504 7.704 2.232 9.936 c 1.008 .864 2.232 1.295 3.312 1.368 c .072 1.224 0 2.592 -.072 3.96 c -8.784 -5.616 -16.56 -17.856 -14.112 -28.512 c 1.584 -6.912 7.488 -11.448 14.472 -11.808 c -1.368 5.112 -2.088 10.656 -1.944 16.704 c 0 1.728 .144 3.528 .288 5.256 z m 53.208 19.368 c -2.016 -2.88 -3.6 -7.128 -4.608 -11.52 c 1.08 -.216 2.088 -.864 2.952 -1.944 c 2.232 -2.88 2.304 -7.344 .144 -10.296 c -2.16 -2.88 -5.832 -2.88 -8.064 -.072 c -2.232 2.808 -2.304 7.344 -.216 10.224 c .864 1.08 1.944 1.8 3.024 2.088 c -.288 2.088 -.72 4.248 -1.296 6.408 c -5.616 -6.192 -10.296 -13.104 -13.608 -20.376 c -2.16 -4.752 -3.672 -9.576 -4.464 -14.472 c -.72 -4.176 -1.08 -7.2 1.152 -10.872 c 1.8 -3.168 4.464 -5.688 7.704 -7.704 c 4.968 -3.24 11.304 -5.328 17.784 -6.984 c 2.448 12.384 3.888 24.479 3.744 36.072 c -.072 10.224 -1.368 20.088 -4.248 29.448 z m 27.504 0 c -2.88 -9.36 -4.176 -19.224 -4.248 -29.448 c -.144 -11.593 1.296 -23.688 3.744 -36.072 c 6.48 1.656 12.816 3.744 17.784 6.984 c 3.24 2.016 5.904 4.536 7.704 7.704 c 2.232 3.672 1.872 6.696 1.152 10.872 c -.792 4.896 -2.304 9.72 -4.464 14.472 c -3.312 7.272 -7.992 14.184 -13.608 20.376 c -.576 -2.16 -1.008 -4.32 -1.296 -6.408 c 1.08 -.288 2.16 -1.008 3.024 -2.088 c 2.088 -2.88 2.016 -7.416 -.216 -10.224 c -2.232 -2.808 -5.904 -2.808 -8.064 .072 c -2.16 2.952 -2.088 7.416 .144 10.296 c .864 1.08 1.872 1.728 2.952 1.944 c -1.008 4.392 -2.592 8.64 -4.608 11.52 z m 53.208 -19.368 c .144 -1.728 .288 -3.528 .288 -5.256 c .144 -6.048 -.576 -11.592 -1.944 -16.704 c 6.984 .36 12.888 4.896 14.472 11.808 c 2.448 10.656 -5.328 22.896 -14.112 28.512 c -.072 -1.368 -.144 -2.736 -.072 -3.96 c 1.08 -.073 2.304 -.504 3.312 -1.368 c 2.736 -2.232 3.744 -6.696 2.232 -9.936 c -.864 -1.944 -2.448 -3.024 -4.176 -3.096 z" fill="#1f211d"/><path d="m 296.712 256.386 c -1.728 5.544 -5.4 11.448 -11.376 5.616 c -.288 -.216 -.576 -.576 -.864 -.936 c 3.024 -9.576 4.392 -19.728 4.464 -30.24 c .144 -11.664 -1.368 -23.832 -3.816 -36.288 c 2.232 -.504 4.464 -1.008 6.624 -1.44 c 1.8 .72 3.744 1.152 5.832 1.152 c -1.368 0 -2.664 .648 -3.744 1.8 c -2.16 2.376 -2.232 6.264 -.144 8.784 c .936 1.152 2.16 1.8 3.456 1.872 c -1.152 .144 -2.376 .72 -3.312 1.728 c -2.16 2.448 -2.232 6.336 -.144 8.784 c .936 1.152 2.16 1.8 3.456 1.944 c -1.152 .144 -2.376 .72 -3.312 1.728 c -2.16 2.376 -2.232 6.264 -.144 8.784 c .936 1.152 2.16 1.8 3.456 1.944 c -1.152 .072 -2.376 .648 -3.312 1.728 c -2.16 2.376 -2.232 6.264 -.144 8.784 c .936 1.152 2.16 1.8 3.456 1.872 c -1.152 .144 -2.376 .72 -3.312 1.728 c -2.16 2.448 -2.232 6.336 -.144 8.784 c .792 1.008 1.872 1.656 3.024 1.872 z" fill="#fd0"/><path d="m 363.6 263.658 c 10.728 -5.616 19.224 -18.792 17.928 -31.176 c -1.08 -10.8 -9.432 -16.056 -19.728 -16.776 c -1.368 -3.888 -3.24 -7.488 -5.544 -10.728 c .936 .504 1.944 .72 3.024 .72 c 1.08 0 2.088 -.288 3.024 -.72 c 1.8 .288 3.528 .648 5.184 1.08 c 1.152 1.728 3.096 2.88 5.328 2.88 c .648 0 1.224 -.072 1.8 -.288 c .432 .288 .936 .504 1.368 .72 c .792 .432 1.512 .936 2.232 1.368 c .432 3.096 3.096 5.544 6.264 5.616 c .792 .936 1.44 1.944 2.088 2.952 c -.216 .648 -.36 1.296 -.36 1.944 c 0 2.52 1.44 4.68 3.528 5.688 c .288 1.368 .504 2.736 .72 4.104 c -.792 1.08 -1.296 2.448 -1.296 3.816 c 0 1.44 .504 2.736 1.224 3.816 c -.144 1.584 -.36 3.168 -.72 4.824 c -1.584 1.152 -2.664 3.024 -2.664 5.184 c 0 .792 .144 1.512 .432 2.232 c -.216 .648 -.504 1.368 -.792 2.016 c -2.016 -.864 -4.104 -.936 -5.616 .504 c -2.448 2.16 -2.736 5.544 -1.152 7.704 c .792 1.152 2.088 4.608 -.216 4.824 c -2.016 .144 -2.592 -2.952 -4.536 -3.744 c -2.88 -1.224 -5.76 .648 -6.552 3.6 c -1.08 4.248 3.456 8.568 7.128 10.152 c -7.992 2.736 -11.088 -4.32 -12.096 -12.312 z" fill="#fd0"/><path d="m 303.408 193.098 c 2.16 .432 4.392 .936 6.624 1.44 c -2.448 12.456 -3.96 24.624 -3.816 36.288 c .072 10.512 1.44 20.664 4.464 30.24 c -.288 .36 -.576 .72 -.864 .936 c -5.976 5.832 -9.648 -.072 -11.376 -5.616 c 1.152 -.216 2.232 -.864 3.024 -1.872 c 2.088 -2.448 2.016 -6.336 -.144 -8.784 c -.936 -1.008 -2.16 -1.584 -3.312 -1.728 c 1.296 -.072 2.52 -.72 3.456 -1.872 c 2.088 -2.52 2.016 -6.408 -.144 -8.784 c -.936 -1.08 -2.16 -1.656 -3.312 -1.728 c 1.296 -.144 2.52 -.792 3.456 -1.944 c 2.088 -2.52 2.016 -6.408 -.144 -8.784 c -.936 -1.008 -2.16 -1.584 -3.312 -1.728 c 1.296 -.144 2.52 -.792 3.456 -1.944 c 2.088 -2.448 2.016 -6.336 -.144 -8.784 c -.936 -1.008 -2.16 -1.584 -3.312 -1.728 c 1.296 -.072 2.52 -.72 3.456 -1.872 c 2.088 -2.52 2.016 -6.408 -.144 -8.784 c -1.08 -1.152 -2.376 -1.8 -3.744 -1.8 c 2.088 0 4.032 -.432 5.832 -1.152 z" fill="#fd0"/><path d="m 321.336 260.418 c 3.816 -4.896 7.632 -10.08 10.8 -15.552 c 3.384 -5.976 6.048 -12.312 7.272 -19.008 c 2.16 -12.24 -2.592 -19.8 -10.296 -24.84 c -3.96 -2.52 -8.712 -4.392 -13.68 -5.832 c 1.728 -.216 3.24 -1.152 4.104 -2.592 c .144 3.024 2.664 5.472 5.688 5.472 c 1.584 0 3.024 -.648 4.032 -1.728 c 0 .216 0 .36 0 .576 c 0 3.24 2.592 5.832 5.832 5.832 c 1.08 0 2.016 -.288 2.88 -.792 c -.216 .648 -.288 1.296 -.288 2.016 c 0 3.24 2.664 5.904 5.904 5.904 c .288 0 .504 0 .792 -.072 c -1.008 1.08 -1.656 2.52 -1.656 4.104 c 0 3.168 2.376 5.76 5.4 6.119 c -1.872 1.009 -3.168 2.953 -3.168 5.257 c 0 2.376 1.368 4.392 3.312 5.4 c -2.88 .72 -4.968 3.384 -4.968 6.48 c 0 3.672 3.024 6.696 6.696 6.696 c 3.744 0 6.768 -3.024 6.768 -6.696 c 0 -2.736 -1.656 -5.112 -4.032 -6.192 c 2.376 -.72 4.176 -3.024 4.176 -5.688 c 0 -3.024 -2.304 -5.544 -5.256 -5.904 c 1.944 -1.08 3.312 -3.096 3.312 -5.472 c 0 -3.312 -2.736 -6.048 -6.12 -6.048 c -.288 0 -.576 0 -.864 .072 c .936 -1.08 1.512 -2.448 1.512 -3.96 c 0 -3.312 -2.664 -5.976 -5.904 -5.976 c -1.08 0 -2.088 .36 -2.952 .864 c .216 -.648 .288 -1.296 .288 -1.944 c 0 -3.24 -2.592 -5.904 -5.832 -5.904 c -1.656 0 -3.168 .72 -4.248 1.872 c 0 -.216 0 -.36 0 -.504 c 0 -3.096 -2.52 -5.616 -5.616 -5.616 c -2.016 0 -3.816 1.08 -4.824 2.736 c -.144 -2.088 -1.368 -3.816 -3.096 -4.68 c 13.104 1.656 24.264 6.336 32.328 13.824 c 9.36 8.712 14.688 21.168 14.328 37.008 c 0 1.8 -.072 3.528 -.288 5.256 c -.936 .144 -1.872 .504 -2.736 1.224 c -2.808 2.304 -3.888 6.768 -2.376 10.08 c .576 1.152 1.368 2.016 2.376 2.52 c -2.16 5.544 -4.752 10.656 -8.496 13.32 c -3.744 2.664 -7.632 2.016 -10.008 -1.872 c -.576 -.936 -1.152 -2.304 -1.584 -3.744 l 2.52 2.16 l 2.592 -5.4 l 5.544 -1.44 l -2.376 -5.4 l 2.592 -5.4 l -5.472 -1.368 l -2.448 -5.4 l -4.464 3.744 l -5.544 -1.224 l -.144 5.976 l -4.536 3.744 l 4.392 3.744 l -.144 6.048 l 3.384 -.864 c -2.304 3.024 -5.544 5.04 -8.352 4.824 c -3.168 -.144 -5.4 -2.52 -7.056 -5.76 z" fill="#fd0"/><path d="m 311.76 194.178 c -2.376 -.648 -4.752 -1.152 -7.056 -1.656 c 1.872 -1.008 3.6 -2.376 4.968 -4.104 c -.144 .432 -.144 .864 -.144 1.296 c 0 1.8 .864 3.456 2.232 4.464 z" fill="#fd0"/><path d="m 311.976 184.314 c .576 .072 1.08 .072 1.584 .144 c -.72 .216 -1.44 .576 -2.088 1.08 c .216 -.432 .36 -.792 .504 -1.224 z" fill="#fd0"/><path d="m 273.816 260.418 c -1.656 3.24 -3.888 5.616 -7.056 5.76 c -2.808 .216 -6.048 -1.8 -8.352 -4.824 l 3.384 .864 l -.144 -6.048 l 4.392 -3.744 l -4.536 -3.744 l -.144 -5.976 l -5.544 1.224 l -4.464 -3.744 l -2.448 5.4 l -5.472 1.368 l 2.592 5.4 l -2.376 5.4 l 5.544 1.44 l 2.592 5.4 l 2.52 -2.16 c -.432 1.44 -1.008 2.808 -1.584 3.744 c -2.376 3.888 -6.264 4.536 -10.008 1.872 c -3.744 -2.664 -6.336 -7.776 -8.496 -13.32 c 1.008 -.504 1.8 -1.368 2.376 -2.52 c 1.512 -3.312 .432 -7.776 -2.376 -10.08 c -.864 -.72 -1.8 -1.08 -2.736 -1.224 c -.216 -1.728 -.288 -3.456 -.288 -5.256 c -.36 -15.84 4.968 -28.296 14.328 -37.008 c 8.064 -7.488 19.224 -12.168 32.328 -13.824 c -1.728 .864 -2.952 2.592 -3.096 4.68 c -1.008 -1.656 -2.808 -2.736 -4.824 -2.736 c -3.096 0 -5.616 2.52 -5.616 5.616 c 0 .144 0 .288 0 .504 c -1.08 -1.152 -2.592 -1.872 -4.248 -1.872 c -3.24 0 -5.832 2.664 -5.832 5.904 c 0 .648 .072 1.296 .288 1.944 c -.864 -.504 -1.872 -.864 -2.952 -.864 c -3.24 0 -5.904 2.664 -5.904 5.976 c 0 1.512 .576 2.88 1.512 3.96 c -.288 -.072 -.576 -.072 -.864 -.072 c -3.384 0 -6.12 2.736 -6.12 6.048 c 0 2.376 1.368 4.392 3.312 5.472 c -2.952 .36 -5.256 2.88 -5.256 5.904 c 0 2.664 1.8 4.968 4.176 5.688 c -2.376 1.08 -4.032 3.456 -4.032 6.192 c 0 3.672 3.024 6.696 6.768 6.696 c 3.672 0 6.696 -3.024 6.696 -6.696 c 0 -3.096 -2.088 -5.76 -4.968 -6.48 c 1.944 -1.008 3.312 -3.024 3.312 -5.4 c 0 -2.304 -1.296 -4.248 -3.168 -5.257 c 3.024 -.359 5.4 -2.951 5.4 -6.119 c 0 -1.584 -.648 -3.024 -1.656 -4.104 c .288 .072 .504 .072 .792 .072 c 3.24 0 5.904 -2.664 5.904 -5.904 c 0 -.72 -.072 -1.368 -.288 -2.016 c .864 .504 1.8 .792 2.88 .792 c 3.24 0 5.832 -2.592 5.832 -5.832 c 0 -.216 0 -.36 0 -.576 c 1.008 1.08 2.448 1.728 4.032 1.728 c 3.024 0 5.544 -2.448 5.688 -5.472 c .864 1.44 2.376 2.376 4.104 2.592 c -4.968 1.44 -9.72 3.312 -13.68 5.832 c -7.704 5.04 -12.456 12.6 -10.296 24.84 c 1.224 6.696 3.888 13.032 7.272 19.008 c 3.168 5.472 6.984 10.656 10.8 15.552 z" fill="#fd0"/><path d="m 231.552 263.658 c -1.008 7.992 -4.104 15.048 -12.096 12.312 c 3.672 -1.584 8.208 -5.904 7.128 -10.152 c -.792 -2.952 -3.672 -4.824 -6.552 -3.6 c -1.944 .792 -2.52 3.888 -4.536 3.744 c -2.304 -.216 -1.008 -3.672 -.216 -4.824 c 1.584 -2.16 1.296 -5.544 -1.152 -7.704 c -1.512 -1.44 -3.6 -1.368 -5.616 -.504 c -.288 -.648 -.576 -1.368 -.792 -2.016 c .288 -.72 .432 -1.44 .432 -2.232 c 0 -2.16 -1.08 -4.032 -2.664 -5.184 c -.36 -1.656 -.576 -3.24 -.72 -4.824 c .72 -1.08 1.224 -2.376 1.224 -3.816 c 0 -1.368 -.504 -2.736 -1.296 -3.816 c .216 -1.368 .432 -2.736 .72 -4.104 c 2.088 -1.008 3.528 -3.168 3.528 -5.688 c 0 -.648 -.144 -1.296 -.36 -1.944 c .648 -1.008 1.296 -2.016 2.088 -2.952 c 3.168 -.072 5.832 -2.52 6.264 -5.616 c .72 -.432 1.44 -.936 2.232 -1.368 c .432 -.216 .936 -.432 1.368 -.72 c .576 .216 1.152 .288 1.8 .288 c 2.232 0 4.176 -1.152 5.328 -2.88 c 1.656 -.432 3.384 -.792 5.184 -1.08 c .936 .432 1.944 .72 3.024 .72 c 1.08 0 2.088 -.216 3.024 -.72 c -2.304 3.24 -4.176 6.84 -5.544 10.728 c -10.296 .72 -18.648 5.976 -19.728 16.776 c -1.296 12.384 7.2 25.56 17.928 31.176 z" fill="#fd0"/><path d="m 283.176 184.314 c .144 .432 .288 .792 .504 1.224 c -.648 -.504 -1.368 -.864 -2.088 -1.08 c .504 -.072 1.008 -.072 1.584 -.144 z" fill="#fd0"/><path d="m 285.48 188.418 c 1.368 1.728 3.096 3.096 4.968 4.104 c -2.304 .504 -4.68 1.008 -7.056 1.656 c 1.368 -1.008 2.232 -2.664 2.232 -4.464 c 0 -.432 0 -.864 -.144 -1.296 z" fill="#fd0"/><path d="m 363.24 260.274 c 9.288 -5.76 17.496 -18.576 14.904 -29.664 c -1.656 -7.488 -7.992 -12.24 -15.552 -12.528 c -.144 -.504 -.288 -1.008 -.504 -1.512 c 9.72 .72 17.568 5.76 18.648 15.984 c 1.224 11.952 -6.912 24.696 -17.28 30.24 c -.072 -.864 -.144 -1.728 -.216 -2.52 z" fill="#fdc400"/><path d="m 319.68 256.098 c 5.76 -6.336 10.656 -13.464 14.04 -20.952 c 2.808 -6.121 4.608 -12.528 5.04 -18.792 c .504 2.736 .432 5.832 -.216 9.36 c -1.152 6.552 -3.816 12.816 -7.128 18.72 c -3.096 5.328 -6.768 10.368 -10.44 15.12 c -.504 -1.08 -.936 -2.232 -1.296 -3.456 z" fill="#fdc400"/><path d="m 275.472 256.098 c -.36 1.224 -.792 2.376 -1.296 3.456 c -3.672 -4.752 -7.344 -9.792 -10.44 -15.12 c -3.312 -5.904 -5.976 -12.168 -7.128 -18.72 c -.648 -3.528 -.72 -6.624 -.216 -9.36 c .432 6.264 2.232 12.671 5.04 18.792 c 3.384 7.488 8.28 14.616 14.04 20.952 z" fill="#fdc400"/><path d="m 231.912 260.274 c -.072 .792 -.144 1.656 -.216 2.52 c -10.368 -5.544 -18.504 -18.288 -17.28 -30.24 c 1.08 -10.224 8.928 -15.264 18.648 -15.984 c -.216 .504 -.36 1.008 -.504 1.512 c -7.56 .288 -13.896 5.04 -15.552 12.528 c -2.592 11.088 5.616 23.904 14.904 29.664 z" fill="#fdc400"/><path d="m 320.256 236.946 c 2.016 2.52 2.088 6.624 .144 9.216 c -1.8 2.448 -4.824 2.592 -6.768 .144 c -2.016 -2.592 -2.016 -6.696 -.072 -9.288 c 1.8 -2.448 4.824 -2.448 6.696 -.072 z" fill="#fdc400"/><path d="m 367.992 244.29 c 1.296 2.952 .432 6.984 -2.016 9 c -2.376 1.943 -5.328 1.368 -6.624 -1.44 c -1.368 -2.952 -.432 -6.984 2.088 -9.072 c 2.376 -1.944 5.256 -1.224 6.552 1.512 z" fill="#fdc400"/><path d="m 274.896 236.946 c -2.016 2.52 -2.088 6.624 -.144 9.216 c 1.8 2.448 4.824 2.592 6.768 .144 c 2.016 -2.592 2.016 -6.696 .072 -9.288 c -1.8 -2.448 -4.824 -2.448 -6.696 -.072 z" fill="#fdc400"/><path d="m 227.16 244.29 c -1.296 2.952 -.432 6.984 2.016 9 c 2.376 1.943 5.328 1.368 6.624 -1.44 c 1.368 -2.952 .432 -6.984 -2.088 -9.072 c -2.376 -1.944 -5.256 -1.224 -6.552 1.512 z" fill="#fdc400"/><path d="m 295.128 164.298 c -5.76 1.008 -10.44 5.4 -11.808 11.016 c 3.6 -1.728 7.632 -2.88 11.808 -3.168 z" fill="#fdc400"/><path d="m 300.024 172.146 c 4.176 .288 8.208 1.44 11.808 3.168 c -1.368 -5.616 -6.048 -10.008 -11.808 -11.016 z" fill="#fdc400"/><path d="m 283.176 181.65 c 1.368 6.696 7.344 11.808 14.4 11.808 c 7.056 0 13.032 -5.112 14.4 -11.808 c -4.248 -2.664 -9.144 -4.176 -14.4 -4.176 c -5.256 0 -10.152 1.512 -14.4 4.176 z" fill="#fdc400"/><path d="m 294.48 246.306 c -1.872 2.088 -1.944 5.544 -.216 7.704 c 1.8 2.16 4.824 2.16 6.624 0 c 1.728 -2.16 1.656 -5.616 -.216 -7.704 c -1.728 -1.944 -4.464 -1.944 -6.192 0 z" fill="#fdc400"/><path d="m 294.48 233.922 c -1.872 2.016 -1.944 5.472 -.216 7.632 c 1.8 2.232 4.824 2.232 6.624 0 c 1.728 -2.16 1.656 -5.616 -.216 -7.632 c -1.728 -2.016 -4.464 -2.016 -6.192 0 z" fill="#fdc400"/><path d="m 294.48 221.466 c -1.872 2.088 -1.944 5.544 -.216 7.704 c 1.8 2.16 4.824 2.16 6.624 0 c 1.728 -2.16 1.656 -5.616 -.216 -7.704 c -1.728 -1.944 -4.464 -1.944 -6.192 0 z" fill="#fdc400"/><path d="m 294.48 209.01 c -1.872 2.088 -1.944 5.544 -.216 7.704 c 1.8 2.16 4.824 2.16 6.624 0 c 1.728 -2.16 1.656 -5.616 -.216 -7.704 c -1.728 -1.944 -4.464 -1.944 -6.192 0 z" fill="#fdc400"/><path d="m 294.48 196.554 c -1.872 2.088 -1.944 5.544 -.216 7.704 c 1.8 2.16 4.824 2.16 6.624 0 c 1.728 -2.16 1.656 -5.616 -.216 -7.704 c -1.728 -1.944 -4.464 -1.944 -6.192 0 z" fill="#fdc400"/><path d="m 283.104 176.322 c -.144 .792 -.144 1.584 -.144 2.448 c 0 .648 0 1.296 .072 1.944 c 4.248 -2.592 9.288 -4.032 14.544 -4.032 c 5.256 0 10.296 1.44 14.544 4.032 c .072 -.648 .072 -1.296 .072 -1.944 c 0 -.864 0 -1.656 -.144 -2.448 c -3.888 -1.944 -8.28 -3.168 -12.816 -3.384 v -17.064 h 7.92 v -3.312 h -7.92 v -7.992 h -3.312 v 7.992 H 288 v 3.312 h 7.92 v 17.064 c -4.536 .216 -8.928 1.44 -12.816 3.384 z" fill="#fc0"/><path d="m 252.072 263.226 l 3.888 -3.312 l 4.968 1.224 l -.144 -5.328 l 3.96 -3.384 l -4.032 -3.384 l -.144 -5.328 l -4.968 1.152 l -3.96 -3.312 l -2.088 4.752 l -4.968 1.224 l 2.376 4.824 l -2.16 4.824 l 4.968 1.296 z m 2.016 -16.488 c 3.168 0 5.688 2.52 5.688 5.616 c 0 3.168 -2.52 5.688 -5.688 5.688 c -3.096 0 -5.616 -2.52 -5.616 -5.688 c 0 -3.096 2.52 -5.616 5.616 -5.616 z" fill="#fd0"/><path d="m 343.08 263.226 l -3.888 -3.312 l -4.968 1.224 l .144 -5.328 l -3.96 -3.384 l 4.032 -3.384 l .144 -5.328 l 4.968 1.152 l 3.96 -3.312 l 2.088 4.752 l 4.968 1.224 l -2.376 4.824 l 2.16 4.824 l -4.968 1.296 z m -2.016 -16.488 c -3.168 0 -5.688 2.52 -5.688 5.616 c 0 3.168 2.52 5.688 5.688 5.688 c 3.096 0 5.616 -2.52 5.616 -5.688 c 0 -3.096 -2.52 -5.616 -5.616 -5.616 z" fill="#fd0"/><path d="m 254.088 247.53 c 2.664 0 4.896 2.16 4.896 4.824 c 0 2.664 -2.232 4.896 -4.896 4.896 c -2.664 0 -4.824 -2.232 -4.824 -4.896 c 0 -2.664 2.16 -4.824 4.824 -4.824 z" fill="#fdc400"/><path d="m 341.064 247.53 c -2.664 0 -4.896 2.16 -4.896 4.824 c 0 2.664 2.232 4.896 4.896 4.896 c 2.664 0 4.824 -2.232 4.824 -4.896 c 0 -2.664 -2.16 -4.824 -4.824 -4.824 z" fill="#fdc400"/><path d="m 350.928 220.17 c 2.808 0 5.112 2.304 5.112 5.112 c 0 2.808 -2.304 5.112 -5.112 5.112 c -2.88 0 -5.184 -2.304 -5.184 -5.112 c 0 -2.808 2.304 -5.112 5.184 -5.112 z" fill="#fdc400"/><path d="m 348.84 208.65 c 2.88 0 5.256 2.375 5.256 5.256 c 0 2.952 -2.376 5.327 -5.256 5.327 c -2.88 0 -5.256 -2.375 -5.256 -5.327 c 0 -2.881 2.376 -5.256 5.256 -5.256 z" fill="#fdc400"/><path d="m 343.584 198.858 c 2.808 0 5.112 2.304 5.112 5.112 c 0 1.368 -.576 2.664 -1.512 3.6 v 0 c -.936 .864 -2.232 1.44 -3.6 1.44 c -2.808 0 -5.112 -2.232 -5.112 -5.04 c 0 -1.44 .576 -2.664 1.512 -3.6 v 0 c .936 -.936 2.16 -1.512 3.6 -1.512 z" fill="#fdc400"/><path d="m 335.088 191.874 c 2.736 0 5.04 2.232 5.04 5.04 c 0 2.736 -2.304 4.968 -5.04 4.968 c -2.808 0 -5.04 -2.232 -5.04 -4.968 c 0 -2.808 2.232 -5.04 5.04 -5.04 z" fill="#fdc400"/><path d="m 325.224 187.554 c 2.664 0 4.824 2.16 4.824 4.824 c 0 2.664 -2.16 4.824 -4.824 4.824 c -2.664 0 -4.824 -2.16 -4.824 -4.824 c 0 -2.664 2.16 -4.824 4.824 -4.824 z" fill="#fdc400"/><path d="m 349.992 231.258 c 3.312 0 5.904 2.664 5.904 5.904 c 0 3.24 -2.592 5.904 -5.904 5.904 c -3.24 0 -5.832 -2.664 -5.832 -5.904 c 0 -3.24 2.592 -5.904 5.832 -5.904 z" fill="#fdc400"/><path d="m 314.928 185.106 c 2.52 0 4.608 2.088 4.608 4.608 c 0 2.592 -2.088 4.608 -4.608 4.608 c -2.52 0 -4.608 -2.016 -4.608 -4.608 c 0 -2.52 2.088 -4.608 4.608 -4.608 z" fill="#fdc400"/><path d="m 372.816 196.914 c 3.096 0 5.616 2.52 5.616 5.616 c 0 3.024 -2.52 5.544 -5.616 5.544 c -3.024 0 -5.544 -2.52 -5.544 -5.544 c 0 -3.096 2.52 -5.616 5.544 -5.616 z" fill="#fdc400"/><path d="m 384.624 204.402 c 3.024 0 5.544 2.448 5.544 5.544 c 0 3.096 -2.52 5.544 -5.544 5.544 c -3.096 0 -5.616 -2.448 -5.616 -5.544 c 0 -3.096 2.52 -5.544 5.616 -5.544 z" fill="#fdc400"/><path d="m 392.688 215.706 c 3.024 0 5.544 2.52 5.544 5.544 c 0 3.096 -2.52 5.616 -5.544 5.616 c -3.096 0 -5.616 -2.52 -5.616 -5.616 c 0 -3.024 2.52 -5.544 5.616 -5.544 z" fill="#fdc400"/><path d="m 395.568 229.314 c 3.096 0 5.616 2.52 5.616 5.544 c 0 3.096 -2.52 5.616 -5.616 5.616 c -3.024 0 -5.544 -2.52 -5.544 -5.616 c 0 -3.024 2.52 -5.544 5.544 -5.544 z" fill="#fdc400"/><path d="m 393.408 243.066 c 3.096 0 5.616 2.52 5.616 5.616 c 0 3.024 -2.52 5.544 -5.616 5.544 c -3.024 0 -5.544 -2.52 -5.544 -5.544 c 0 -3.096 2.52 -5.616 5.544 -5.616 z" fill="#fdc400"/><path d="m 359.28 193.746 c 3.024 0 5.544 2.52 5.544 5.544 c 0 3.096 -2.52 5.616 -5.544 5.616 c -3.096 0 -5.616 -2.52 -5.616 -5.616 c 0 -3.024 2.52 -5.544 5.616 -5.544 z" fill="#fdc400"/><path d="m 244.224 220.17 c -2.808 0 -5.112 2.304 -5.112 5.112 c 0 2.808 2.304 5.112 5.112 5.112 c 2.88 0 5.184 -2.304 5.184 -5.112 c 0 -2.808 -2.304 -5.112 -5.184 -5.112 z" fill="#fdc400"/><path d="m 246.312 208.65 c -2.88 0 -5.256 2.375 -5.256 5.256 c 0 2.952 2.376 5.327 5.256 5.327 c 2.88 0 5.256 -2.375 5.256 -5.327 c 0 -2.881 -2.376 -5.256 -5.256 -5.256 z" fill="#fdc400"/><path d="m 251.568 198.858 c -2.808 0 -5.112 2.304 -5.112 5.112 c 0 1.368 .576 2.664 1.512 3.6 v 0 c .936 .864 2.232 1.44 3.6 1.44 c 2.808 0 5.112 -2.232 5.112 -5.04 c 0 -1.44 -.576 -2.664 -1.512 -3.6 v 0 c -.936 -.936 -2.16 -1.512 -3.6 -1.512 z" fill="#fdc400"/><path d="m 260.064 191.874 c -2.736 0 -5.04 2.232 -5.04 5.04 c 0 2.736 2.304 4.968 5.04 4.968 c 2.808 0 5.04 -2.232 5.04 -4.968 c 0 -2.808 -2.232 -5.04 -5.04 -5.04 z" fill="#fdc400"/><path d="m 269.928 187.554 c -2.664 0 -4.824 2.16 -4.824 4.824 c 0 2.664 2.16 4.824 4.824 4.824 c 2.664 0 4.824 -2.16 4.824 -4.824 c 0 -2.664 -2.16 -4.824 -4.824 -4.824 z" fill="#fdc400"/><path d="m 245.16 231.258 c -3.312 0 -5.904 2.664 -5.904 5.904 c 0 3.24 2.592 5.904 5.904 5.904 c 3.24 0 5.832 -2.664 5.832 -5.904 c 0 -3.24 -2.592 -5.904 -5.832 -5.904 z" fill="#fdc400"/><path d="m 280.224 185.106 c -2.52 0 -4.608 2.088 -4.608 4.608 c 0 2.592 2.088 4.608 4.608 4.608 c 2.52 0 4.608 -2.016 4.608 -4.608 c 0 -2.52 -2.088 -4.608 -4.608 -4.608 z" fill="#fdc400"/><path d="m 222.336 196.914 c -3.096 0 -5.616 2.52 -5.616 5.616 c 0 3.024 2.52 5.544 5.616 5.544 c 3.024 0 5.544 -2.52 5.544 -5.544 c 0 -3.096 -2.52 -5.616 -5.544 -5.616 z" fill="#fdc400"/><path d="m 210.528 204.402 c -3.024 0 -5.544 2.448 -5.544 5.544 c 0 3.096 2.52 5.544 5.544 5.544 c 3.096 0 5.616 -2.448 5.616 -5.544 c 0 -3.096 -2.52 -5.544 -5.616 -5.544 z" fill="#fdc400"/><path d="m 202.464 215.706 c -3.024 0 -5.544 2.52 -5.544 5.544 c 0 3.096 2.52 5.616 5.544 5.616 c 3.096 0 5.616 -2.52 5.616 -5.616 c 0 -3.024 -2.52 -5.544 -5.616 -5.544 z" fill="#fdc400"/><path d="m 199.584 229.314 c -3.096 0 -5.616 2.52 -5.616 5.544 c 0 3.096 2.52 5.616 5.616 5.616 c 3.024 0 5.544 -2.52 5.544 -5.616 c 0 -3.024 -2.52 -5.544 -5.544 -5.544 z" fill="#fdc400"/><path d="m 201.744 243.066 c -3.096 0 -5.616 2.52 -5.616 5.616 c 0 3.024 2.52 5.544 5.616 5.544 c 3.024 0 5.544 -2.52 5.544 -5.544 c 0 -3.096 -2.52 -5.616 -5.544 -5.616 z" fill="#fdc400"/><path d="m 235.872 193.746 c -3.024 0 -5.544 2.52 -5.544 5.544 c 0 3.096 2.52 5.616 5.544 5.616 c 3.096 0 5.616 -2.52 5.616 -5.616 c 0 -3.024 -2.52 -5.544 -5.616 -5.544 z" fill="#fdc400"/><path d="m 297.576 284.898 l -18.288 6.552 l 18.288 6.552 l 18.288 -6.552 z" fill="#fdc400"/><path d="m 297.576 296.346 l 13.752 -4.896 l -13.752 -4.896 l -13.752 4.896 z" fill="#1f211d"/><path d="m 297.576 287.418 l 11.232 4.032 l -11.232 4.032 l -11.232 -4.032 z" fill="#fd0"/><path d="m 244.44 292.242 l -15.912 11.16 l 19.44 1.44 l 15.84 -11.304 z" fill="#fdc400"/><path d="m 247.536 303.258 l 11.88 -8.496 l -14.544 -.936 l -11.952 8.352 z" fill="#1f211d"/><path d="m 245.088 294.618 l 11.952 .864 l -9.792 6.912 l -11.952 -.864 z" fill="#fd0"/><path d="m 267.12 288.282 c -2.664 2.52 -2.808 6.624 -.288 9.288 c 2.52 2.592 6.552 2.663 9.216 .216 c 2.664 -2.52 2.736 -6.553 .216 -9.216 c -2.448 -2.592 -6.552 -2.736 -9.144 -.288 z" fill="#fdc400"/><path d="m 273.6 291.162 c 1.08 1.08 1.008 2.808 -.072 3.888 c -1.152 1.152 -2.952 1.152 -4.032 -.072 c -1.008 -1.152 -1.008 -2.953 .144 -3.96 c 1.152 -1.08 2.88 -1.08 3.96 .144 z" fill="#1f211d"/><path d="m 270.216 291.594 c -.792 .72 -.792 2.016 -.144 2.808 c .792 .864 2.016 .864 2.88 .072 c .72 -.72 .792 -2.016 .072 -2.808 c -.792 -.792 -2.016 -.792 -2.808 -.072 z" fill="#fd0"/><path d="m 350.712 292.242 l 15.912 11.16 l -19.44 1.44 l -15.84 -11.304 z" fill="#fdc400"/><path d="m 347.616 303.258 l -11.88 -8.496 l 14.544 -.936 l 11.952 8.352 z" fill="#1f211d"/><path d="m 350.064 294.618 l -11.952 .864 l 9.792 6.912 l 11.952 -.864 z" fill="#fd0"/><path d="m 328.032 288.282 c 2.664 2.52 2.808 6.624 .288 9.288 c -2.52 2.592 -6.552 2.663 -9.216 .216 c -2.664 -2.52 -2.736 -6.553 -.216 -9.216 c 2.448 -2.592 6.552 -2.736 9.144 -.288 z" fill="#fdc400"/><path d="m 321.552 291.162 c -1.08 1.08 -1.008 2.808 .072 3.888 c 1.152 1.152 2.952 1.152 4.032 -.072 c 1.008 -1.152 1.008 -2.953 -.144 -3.96 c -1.152 -1.08 -2.88 -1.08 -3.96 .144 z" fill="#1f211d"/><path d="m 324.936 291.594 c .792 .72 .792 2.016 .144 2.808 c -.792 .864 -2.016 .864 -2.88 .072 c -.72 -.72 -.792 -2.016 -.072 -2.808 c .792 -.792 2.016 -.792 2.808 -.072 z" fill="#fd0"/><path d="m 228.384 312.546 l 5.04 10.224 c 10.152 -4.032 20.664 -7.128 31.464 -9.216 c 21.744 -4.321 43.632 -4.321 65.376 0 c 10.8 2.088 21.312 5.184 31.464 9.216 l 5.04 -10.224 c -21.384 -8.784 -44.784 -13.608 -69.192 -13.608 c -24.408 0 -47.808 4.824 -69.192 13.608 z" fill="#fd0"/><path d="m 267.336 287.058 c -7.2 1.08 -14.184 2.592 -21.096 4.464 l 18 1.224 c .072 -1.872 .864 -3.672 2.304 -5.04 c .216 -.216 .504 -.432 .792 -.648 z" fill="#fd0"/><path d="m 295.704 284.754 c -7.344 .072 -14.616 .504 -21.744 1.368 c 1.08 .36 2.088 1.008 2.952 1.872 c .792 .792 1.296 1.8 1.656 2.808 z" fill="#fd0"/><path d="m 321.192 286.122 c -7.128 -.864 -14.4 -1.296 -21.744 -1.368 l 17.136 6.048 c .36 -1.008 .864 -2.016 1.656 -2.808 c .864 -.864 1.872 -1.512 2.952 -1.872 z" fill="#fd0"/><path d="m 348.912 291.522 c -6.912 -1.872 -13.896 -3.384 -21.096 -4.464 c .288 .216 .576 .432 .792 .648 c 1.44 1.368 2.232 3.168 2.304 5.04 z" fill="#fd0"/><path d="m 349.2 305.49 c 6.12 1.8 12.096 3.888 17.928 6.264 l 5.976 -12.024 c -6.624 -2.736 -13.464 -5.112 -20.448 -7.2 L 369 304.05 Z" fill="#fd0"/><path d="m 325.296 300.162 c 6.696 1.08 13.32 2.448 19.8 4.176 l -14.256 -10.08 c -.216 1.368 -.864 2.736 -1.944 3.888 c -1.008 1.08 -2.304 1.728 -3.6 2.016 z" fill="#fd0"/><path d="m 299.664 298.146 c 6.912 .072 13.752 .504 20.448 1.368 c -.576 -.36 -1.08 -.72 -1.584 -1.152 c -1.728 -1.656 -2.52 -3.96 -2.232 -6.192 z" fill="#fd0"/><path d="m 275.04 299.514 c 6.696 -.864 13.536 -1.296 20.448 -1.368 l -16.632 -5.976 c .288 2.232 -.504 4.536 -2.232 6.192 c -.504 .432 -1.008 .792 -1.584 1.152 z" fill="#fd0"/><path d="m 250.056 304.338 c 6.48 -1.728 13.104 -3.096 19.8 -4.176 c -1.296 -.288 -2.592 -.936 -3.6 -2.016 c -1.08 -1.152 -1.728 -2.52 -1.944 -3.888 z" fill="#fd0"/><path d="m 222.048 299.73 l 5.976 12.024 c 5.832 -2.376 11.808 -4.464 17.928 -6.264 l -19.8 -1.44 l 16.344 -11.52 c -6.984 2.088 -13.824 4.464 -20.448 7.2 z" fill="#fd0"/><path d="m 219.384 294.402 l 2.304 4.608 c 23.4 -9.72 49.032 -15.12 75.888 -15.12 c 26.856 0 52.488 5.4 75.888 15.12 l 2.304 -4.608 c -24.12 -10.08 -50.544 -15.696 -78.192 -15.696 c -27.648 0 -54.072 5.616 -78.192 15.696 z" fill="#fd0"/><path d="m 297.504 256.458 c -.792 2.88 -2.232 6.264 -4.752 7.92 c -2.88 1.872 -5.832 .36 -7.992 -1.728 c -2.088 -2.016 -3.816 -5.472 -5.112 -9.288 c -.504 -1.44 -.936 -2.952 -1.224 -4.464 c -.216 0 -.36 0 -.504 0 c -.36 2.232 -.864 4.536 -1.44 6.768 c -1.728 5.976 -4.608 11.088 -9.648 11.376 c -2.448 .144 -5.112 -1.152 -7.416 -3.24 c -.792 -.792 -1.584 -1.728 -2.232 -2.736 l -1.008 -.216 l -.72 .576 c -.432 1.8 -1.08 3.672 -2.016 5.184 c -2.664 4.392 -7.128 5.04 -11.232 2.088 c -3.888 -2.736 -6.552 -7.992 -8.712 -13.608 c -.216 .072 -.432 .072 -.648 .143 c .072 5.761 -.288 12.673 -3.024 17.569 c -1.584 2.808 -3.888 4.68 -7.2 4.608 c -1.944 0 -3.6 -.72 -5.328 -1.44 c 2.736 -.936 5.328 -2.448 7.272 -5.184 c 1.008 -1.512 1.584 -3.096 1.152 -4.752 c -.288 -1.152 -1.008 -2.304 -2.088 -2.88 c -2.16 -1.224 -3.672 -.216 -4.968 1.512 c -.864 1.152 -1.656 2.232 -3.24 2.088 c -.936 -.072 -1.656 -.576 -1.944 -1.512 c -.432 -1.44 .36 -3.456 1.152 -4.608 c 1.512 -2.088 .792 -4.968 -1.008 -6.624 c -1.512 -1.368 -3.6 -.936 -5.256 -.072 c -2.376 1.08 -4.968 3.456 -6.048 5.904 l 16.704 33.768 c 24.192 -10.08 50.76 -15.696 78.552 -15.696 c 27.792 0 54.36 5.616 78.552 15.696 l 16.704 -33.768 c -1.08 -2.448 -3.672 -4.824 -6.048 -5.904 c -1.656 -.864 -3.744 -1.296 -5.256 .072 c -1.8 1.656 -2.52 4.536 -1.008 6.624 c .792 1.152 1.584 3.168 1.152 4.608 c -.288 .936 -1.008 1.44 -1.944 1.512 c -1.584 .144 -2.376 -.936 -3.24 -2.088 c -1.296 -1.728 -2.808 -2.736 -4.968 -1.512 c -1.08 .576 -1.8 1.728 -2.088 2.88 c -.432 1.656 .144 3.24 1.152 4.752 c 1.944 2.736 4.536 4.248 7.272 5.184 c -1.728 .72 -3.384 1.44 -5.328 1.44 c -3.312 .072 -5.616 -1.8 -7.2 -4.608 c -2.736 -4.896 -3.096 -11.808 -3.024 -17.569 c -.216 -.071 -.432 -.071 -.648 -.143 c -2.16 5.616 -4.824 10.872 -8.712 13.608 c -4.104 2.952 -8.568 2.304 -11.232 -2.088 c -.936 -1.512 -1.584 -3.384 -2.016 -5.184 l -.72 -.576 l -1.008 .216 c -.648 1.008 -1.44 1.944 -2.232 2.736 c -2.304 2.088 -4.968 3.384 -7.416 3.24 c -5.04 -.288 -7.92 -5.4 -9.648 -11.376 c -.576 -2.232 -1.08 -4.536 -1.44 -6.768 c -.144 0 -.288 0 -.504 0 c -.288 1.512 -.72 3.024 -1.224 4.464 c -1.296 3.816 -3.024 7.272 -5.112 9.288 c -2.16 2.088 -5.112 3.6 -7.992 1.728 c -2.52 -1.656 -3.96 -5.04 -4.752 -7.92 c -.072 0 -.072 0 -.144 0 z" fill="#fd0"/><path d="m 203.76 448.338 l -35.856 -11.664 c -1.584 -9.432 -2.304 -18.72 -2.232 -27.936 c .072 -9.504 1.08 -18.864 2.808 -27.792 c 18.576 -23.616 43.56 -42.048 72.216 -52.704 c 9.144 1.152 18.36 3.096 27.504 5.976 c 8.784 2.736 17.496 6.336 25.92 10.8 v .864 c -5.184 4.248 -10.584 8.136 -16.848 10.944 c -11.736 5.256 -24.48 5.76 -36.576 1.08 c -7.632 -3.024 -13.68 -7.632 -19.656 -13.104 l -47.664 67.68 c 7.344 2.088 13.752 4.248 19.368 9.504 c 7.344 6.984 10.872 16.56 11.016 26.352 z" fill="#fff"/><path d="m 200.592 589.098 c -4.752 -1.152 -9.36 -2.448 -13.896 -3.96 c -9.072 -3.024 -17.64 -6.84 -25.632 -11.304 c -16.488 -24.48 -26.496 -53.568 -27.72 -84.96 c 3.888 -8.28 8.568 -16.488 14.184 -24.336 c 5.328 -7.488 11.376 -14.616 18.288 -21.312 l 37.512 12.24 c -.648 4.392 -1.944 8.712 -3.888 12.744 c -6.624 13.896 -17.784 20.448 -32.544 22.536 c -.216 11.952 .216 23.688 2.16 35.496 c 2.952 18.36 9.36 36.216 20.736 51.048 c 3.312 4.32 6.912 8.208 10.8 11.808 z" fill="#fff"/><path d="m 391.824 455.466 l 37.512 -12.24 c 6.912 6.696 12.96 13.824 18.288 21.312 c 5.616 7.848 10.296 16.056 14.184 24.336 c -1.224 31.392 -11.232 60.48 -27.72 84.96 c -7.992 4.464 -16.56 8.28 -25.632 11.304 c -4.536 1.512 -9.144 2.808 -13.896 3.96 c 3.888 -3.6 7.488 -7.488 10.8 -11.808 c 11.376 -14.832 17.784 -32.688 20.736 -51.048 c 1.944 -11.808 2.376 -23.544 2.16 -35.496 c -14.76 -2.088 -25.92 -8.64 -32.544 -22.536 c -1.944 -4.032 -3.24 -8.352 -3.888 -12.744 z" fill="#fff"/><path d="m 354.456 328.242 c 28.656 10.656 53.64 29.088 72.216 52.704 c 1.728 8.928 2.736 18.288 2.808 27.792 c .072 9.216 -.648 18.504 -2.232 27.936 l -35.856 11.664 c .144 -9.792 3.672 -19.368 11.016 -26.352 c 5.616 -5.256 12.096 -7.488 19.368 -9.504 l -47.664 -67.68 c -5.976 5.472 -12.024 10.08 -19.656 13.104 c -12.096 4.68 -24.84 4.176 -36.576 -1.08 c -6.264 -2.808 -11.664 -6.696 -16.848 -10.944 v -.864 c 8.424 -4.464 17.136 -8.064 25.92 -10.8 c 9.144 -2.88 18.36 -4.824 27.504 -5.976 z" fill="#fff"/><path d="m 133.344 488.874 c -.072 -2.088 -.144 -4.248 -.144 -6.408 c 0 -38.304 13.176 -73.512 35.28 -101.52 c -1.728 8.928 -2.736 18.288 -2.808 27.792 c -.072 9.216 .648 18.504 2.232 27.936 l 35.856 11.664 c .072 2.376 -.072 4.752 -.432 7.128 l -37.512 -12.24 c -6.912 6.696 -12.96 13.824 -18.288 21.312 c -5.616 7.848 -10.296 16.056 -14.184 24.336 z" fill="#1f211d"/><path d="m 426.672 380.946 c 22.104 28.008 35.28 63.216 35.28 101.52 c 0 2.16 -.072 4.32 -.144 6.408 c -3.888 -8.28 -8.568 -16.488 -14.184 -24.336 c -5.328 -7.488 -11.376 -14.616 -18.288 -21.312 l -37.512 12.24 c -.36 -2.376 -.504 -4.752 -.432 -7.128 l 35.856 -11.664 c 1.584 -9.432 2.304 -18.72 2.232 -27.936 c -.072 -9.504 -1.08 -18.864 -2.808 -27.792 z" fill="#1f211d"/><path d="m 297.576 318.09 c 19.944 0 39.096 3.6 56.88 10.152 c -9.144 1.152 -18.36 3.096 -27.504 5.976 c -8.784 2.736 -17.496 6.336 -25.92 10.8 v .864 c -1.224 -.936 -2.376 -1.944 -3.456 -2.952 c -1.08 1.008 -2.232 2.016 -3.456 2.952 v -.864 c -8.424 -4.464 -17.136 -8.064 -25.92 -10.8 c -9.144 -2.88 -18.36 -4.824 -27.504 -5.976 c 17.784 -6.552 36.936 -10.152 56.88 -10.152 z" fill="#1f211d"/><path d="m 231.12 631.938 c 18.144 9 32.616 23.184 46.728 37.944 c 5.256 5.472 10.296 11.232 15.912 16.272 c 13.608 12.312 26.784 17.352 39.384 17.424 c 13.896 .072 27.072 -5.976 39.456 -15.048 c -14.112 2.232 -27.72 .432 -40.32 -6.12 c -12.744 -6.624 -21.96 -16.56 -32.328 -26.136 c -9.864 -9.144 -21.384 -17.064 -33.48 -21.744 c -11.448 -4.392 -23.472 -5.832 -35.352 -2.592 z" fill="#fd0"/><path d="m 296.928 689.97 c -12.024 9.576 -23.688 13.536 -34.92 13.608 c -13.896 .072 -27.072 -5.976 -39.456 -15.048 c 14.112 2.232 27.72 .432 40.32 -6.12 c 5.76 -3.024 10.872 -6.696 15.624 -10.728 c 4.824 5.112 9.504 10.44 14.76 15.12 c 1.224 1.08 2.448 2.16 3.672 3.168 z" fill="#fdc400"/><path d="m 364.032 631.938 c -18.144 9 -32.616 23.184 -46.728 37.944 c -.216 .216 -.432 .432 -.648 .72 c -5.544 -4.752 -10.728 -9.864 -16.2 -14.904 c -.72 -.72 -1.512 -1.44 -2.304 -2.088 c 9.216 -7.992 19.584 -14.904 30.528 -19.08 c 11.448 -4.392 23.472 -5.832 35.352 -2.592 z" fill="#fdc400"/><path d="M 269.568 590.682 H 263.88 V 571.17 c -2.016 1.728 -4.32 2.952 -6.84 3.744 v -5.256 c 1.728 -.504 3.168 -1.44 4.608 -2.52 c 1.512 -1.224 2.592 -2.592 3.24 -4.464 h 4.68 z" fill="#fd0"/><path d="m 286.488 572.61 c 0 -2.16 -1.008 -5.112 -3.6 -5.112 c -1.584 0 -2.52 1.08 -2.88 2.52 c -.36 1.296 -.36 3.096 0 4.392 c .288 1.008 .864 1.944 1.8 2.376 c .792 .432 1.872 .432 2.664 0 c 1.584 -.72 2.016 -2.52 2.016 -4.176 z m -11.88 11.304 l 5.544 -.648 c .216 1.8 .936 3.096 2.88 3.096 c 2.088 0 3.024 -1.872 3.456 -3.6 c .216 -.936 .36 -1.944 .432 -3.24 c -.576 .576 -1.152 1.008 -1.8 1.296 c -1.872 .864 -4.104 .792 -5.976 -.072 c -2.016 -.936 -3.672 -2.736 -4.392 -4.824 c -.864 -2.376 -.864 -5.256 0 -7.56 c .864 -2.232 2.592 -4.104 4.824 -5.04 c 2.304 -.936 5.184 -.864 7.416 .216 c 2.88 1.296 4.464 3.816 5.184 6.84 c 1.008 3.888 1.008 9 0 12.888 c -.792 3.096 -2.52 5.688 -5.4 7.056 c -2.16 .936 -4.896 1.08 -7.128 .36 c -1.8 -.576 -3.24 -1.8 -4.032 -3.528 c -.576 -1.008 -.792 -2.088 -1.008 -3.24 z" fill="#fd0"/><path d="m 325.656 581.178 c 0 2.16 1.008 5.112 3.672 5.112 c 1.512 0 2.52 -1.008 2.88 -2.448 c .36 -1.368 .36 -3.096 0 -4.464 c -.288 -1.008 -.864 -1.872 -1.872 -2.376 c -.792 -.36 -1.8 -.36 -2.592 0 c -1.656 .792 -2.088 2.592 -2.088 4.176 z m 11.952 -11.232 l -5.544 .576 c -.216 -1.728 -1.008 -3.024 -2.88 -3.024 c -2.16 0 -3.024 1.872 -3.456 3.6 c -.216 .864 -.36 1.944 -.504 3.24 c .576 -.576 1.224 -1.008 1.872 -1.296 c 1.8 -.864 4.104 -.792 5.904 0 c 2.088 .936 3.672 2.808 4.464 4.896 c .864 2.304 .792 5.256 0 7.56 c -.864 2.232 -2.592 4.104 -4.824 4.968 c -2.304 .936 -5.184 .936 -7.488 -.144 c -2.808 -1.368 -4.392 -3.888 -5.184 -6.84 c -.936 -3.888 -.936 -9 .072 -12.888 c .792 -3.096 2.448 -5.688 5.4 -7.056 c 2.088 -.936 4.896 -1.152 7.128 -.432 c 1.8 .648 3.168 1.872 4.032 3.528 c .504 1.08 .792 2.16 1.008 3.312 z" fill="#fd0"/><path d="m 305.208 567.642 c -1.872 .648 -2.088 3.528 -2.232 5.184 c -.216 2.664 -.216 5.472 0 8.136 c .072 1.368 .36 3.888 1.512 4.824 v 0 c .216 .144 .432 .288 .72 .36 c .504 .216 1.08 .216 1.656 0 c 1.872 -.648 2.088 -3.528 2.16 -5.112 c .216 -2.664 .216 -5.472 .072 -8.136 c -.144 -1.44 -.36 -3.888 -1.512 -4.824 v 0 c -.216 -.216 -.504 -.36 -.72 -.432 c -.576 -.216 -1.152 -.216 -1.656 0 z m 4.464 -4.248 c 2.736 1.296 4.104 3.96 4.752 6.768 c 1.008 4.104 1.008 9.36 0 13.464 c -.648 2.88 -2.016 5.544 -4.752 6.768 c -2.232 1.008 -5.184 1.008 -7.344 -.072 c -2.808 -1.296 -4.176 -3.816 -4.752 -6.696 c -.864 -4.104 -.936 -9.36 0 -13.464 c .72 -2.808 2.088 -5.472 4.824 -6.768 c 2.16 -.936 5.112 -.936 7.272 0 z" fill="#fd0"/></g></svg>