<svg xmlns="http://www.w3.org/2000/svg" viewBox="0 0 612 792"><path d="m589.25 455.751-73.911-73.494h-1.487c-1.462-55.908-25.079-106.38-62.428-142.922l34.727-98.297-81.038 64.028c-29.418-15.983-63.1-25.069-98.864-25.069-35.766 0-69.449 9.087-98.863 25.071l-81.038-64.029 3.34 9.454 31.387 88.843c-37.01 36.212-60.542 86.1-62.39 141.402L23.25 455.751h86.704c26.167 75.289 94.504 131.014 176.602 138.774l19.693 55.745 19.692-55.745c82.101-7.759 150.439-63.485 176.604-138.774z"/><path fill="#b4b9c0" d="M507.01 421.823c-2.615-2.603-5.012-4.985-5.668-5.638h-83.601l33.155-93.847 1.09-3.081 42.687 42.444h-21.697c-.766 2.169-5.819 16.479-7.262 20.556H512.2c-1.451-55.165-24.688-104.988-61.387-141.191L326.552 592.795c80.898-7.953 148.189-62.86 174.203-137.044h-96.993l11.988-33.928zM403.678 206.199c-29.023-15.648-62.202-24.55-97.429-24.55-35.226 0-68.406 8.899-97.437 24.544 46.455 36.704 95.598 75.531 97.437 76.986 1.839-1.455 50.976-40.278 97.429-76.98"/><path fill="#b4b9c0" d="M392.477 272.005c-13.164 10.404-86.229 68.134-86.229 68.134s-73.062-57.73-86.23-68.13l68.674 194.392-23.698 67.086-103.316-292.445c-36.018 35.499-59.048 84.11-61.298 138.011l57.812-57.489 2.318-2.304 12.509 35.409s-22.198 22.079-27.74 27.588h37.488l11.988 33.928h-83.598c-.653.652-3.052 3.035-5.668 5.638h91.254l11.988 33.928h-97.015c26.016 74.189 93.326 129.126 174.239 137.07l-3.406-9.642c.001.001 103.64-293.366 109.928-311.174"/><path fill="#fff" d="M381.521 550.662c-3.42-24.18-8.9-46.634-16.275-67.387l-33.84 95.783c19.582-8.475 36.2-18.067 50.115-28.396M284.239 479.01l-19.247 54.477-12.843-36.353c-23.78 12.293-49.96 23.389-78.218 31.969 29.45 27.578 67.514 46.035 109.721 50.949 4.874-13.792 25.279-71.557 47.154-133.477-13.662 10.754-29.246 21.785-46.567 32.435M258.628 339.176c34.131 18.377 62.127 43.346 83.882 74.274 24.184-68.455 47.112-133.357 49.967-141.443-13.164 10.404-86.229 68.132-86.229 68.132s-23.878-18.865-46.792-36.972c-1.193 11.74-1.544 23.734-.828 36.009M437.308 311.544c9.464-7.635 19.978-17.512 30.808-30.11a194.5 194.5 0 0 0-21.866-27.46l-17.732 50.197a199 199 0 0 1 8.79 7.373M343.878 253.447c-17.481-12.458-37.892-23.185-62.124-32.667-4.646 10.845-8.784 21.967-12.26 33.359l36.754 29.04c1.012-.799 16.334-12.903 37.63-29.732M306.249 194.065c-4.051 0-8.06.165-12.048.411-2.656 5.181-5.249 10.409-7.714 15.722 26.17 10.28 48.097 22.019 66.835 35.789l39.729-31.392c-26.108-13.124-55.584-20.53-86.802-20.53M248.789 294.739l-28.77-22.73 23.688 67.054c1.098-.275 2.212-.563 3.304-.831-.778-14.91-.067-29.394 1.778-43.493M252.282 348.869c-1.549.378-3.133.782-4.696 1.17 16.621 47.047 35.33 100.005 40.004 113.239 19.055-12.321 35.771-24.992 49.735-36.935-21.5-32.683-49.94-58.703-85.043-77.474M280.513 195.819c-21.683 2.881-42.205 9.389-61.002 18.828 13.964 11.033 27.821 21.98 40.231 31.788 5.633-17.533 12.768-34.395 20.771-50.616M415.75 421.823h81.146c.333-1.872.647-3.747.925-5.638h-80.08l28.066-79.44c-6.553-7.653-13.924-14.761-21.399-20.941L371.22 466.356c9.44 23.132 16.443 48.458 20.788 75.997 32.122-27.313 47.643-58.567 53.13-86.602h-41.377z"/><path fill="#fff" d="m451.986 319.257 42.687 42.444h-21.697c-.766 2.169-5.819 16.479-7.262 20.556h34.119c-.918-32.871-10.051-63.669-25.38-90.478-10.022 11.338-19.756 20.489-28.67 27.788a185 185 0 0 1 4.448 4.66l.665-1.89zM456.91 455.751c-6.591 36.919-29 79.143-80.073 112.334 51.021-19.987 91.48-60.98 110.766-112.334zM138.368 291.226a192.4 192.4 0 0 0-24.517 74.432l12.284-12.215c2.443-22.331 6.57-42.705 12.233-62.217M160.511 319.26l12.511 35.409s-3.643 3.621-8.327 8.28c11.51-4.378 23.571-8.386 35.786-12.076l-34.216-96.849c-1.445 1.511-2.891 3.021-4.288 4.58-10.425 25.865-18.024 52.056-22.426 81.496l18.642-18.537zM158.133 377.989a398 398 0 0 1-3.145-5.386c-4.128 4.103-7.856 7.811-9.708 9.654h37.488l11.988 33.928h-80.098c.28 1.894.629 3.763.962 5.638h81.126l11.988 33.928h-83.806a193.9 193.9 0 0 0 39.689 64.025c30.42-8.732 58.441-20.504 83.651-33.631L204.33 361.778c-16.023 4.818-31.758 10.188-46.197 16.211"/><path fill="#ffde17" d="m308.043 289.144 165.963-131.129c-6.32 17.897-162.569 460.173-167.758 474.861l-17.556-49.696c.679-1.917 115.929-328.149 115.929-328.149l-98.373 77.725-98.373-77.723s73.999 209.458 74.673 211.369c-.571 1.617-13.522 38.277-17.556 49.692L138.491 158.016l167.756 132.548zM158.791 326.801l9.461 26.781-32.996 32.806h44.588c.798 2.267 7.544 21.355 9.066 25.664h-79.458l-13.981 13.902h98.352c.8 2.267 7.544 21.354 9.065 25.665H33.27c6.605-6.569 121.171-120.494 125.521-124.818M453.706 326.798l30.943 30.771h-14.597l-10.184 28.819h53.763c1.128 1.122 59.256 58.923 65.596 65.232h-169.62c1.522-4.311 8.266-23.398 9.065-25.665h98.36l-13.983-13.902h-79.462z"/></svg>