<svg xmlns="http://www.w3.org/2000/svg" xml:space="preserve" viewBox="0 0 612 792"><path d="M41.479 77.867v229.227c0 170.403 133.288 324.512 265.021 405.819 131.734-81.307 265.021-235.416 265.021-405.819V77.867z" style="fill:#17479e"/><path d="M560.941 88.446H52.058v74.058h508.883zM247.916 567.447v-6.172c4.838.1 9.825-1.678 10.169-7.107h6.962v34.412h-8.888v-21.133zM279.725 579.641a3.5 3.5 0 0 0 1.678 2.422c.839.543 1.926.789 2.962.789 4.543 0 6.171-4.197 6.37-8.74h-.099c-1.53 2.668-4.739 3.703-7.702 3.703-6.813 0-11.504-4.984-11.504-11.701 0-7.355 6.024-12.389 13.184-12.389 10.021 0 14.317 7.602 14.317 16.834 0 9.924-4.097 18.465-15.058 18.465-6.271 0-10.813-3.012-11.998-9.383zm10.811-13.623c0-3.061-2.171-5.482-5.776-5.482-3.16 0-5.48 2.518-5.48 5.383 0 3.211 2.073 5.725 5.53 5.725 3.555-.001 5.726-2.515 5.726-5.626M332.156 573.816v7.109h-4.49v7.654h-8.393v-7.654h-15.06v-7.85l15.402-18.908h8.051v19.648zm-12.64 0v-11.107h-.1l-8.689 11.107zM337.59 571.348c0-9.182 3.701-17.623 13.477-17.623 10.068 0 14.019 8.441 14.019 17.623 0 9.184-3.951 17.676-14.019 17.676-9.776-.001-13.477-8.493-13.477-17.676m19.4 0c0-4.492-.148-10.813-5.682-10.813-5.328 0-5.625 6.32-5.625 10.813s.297 10.861 5.625 10.861c5.534 0 5.682-6.367 5.682-10.861M250.016 463.207c-2.578-1.535-5.243-3.119-7.76-5.299-2.642-2.223-6.033-5.227-6.455-9.596-.285.047-1.351.234-1.351.234l-.54-.301c-10.27-5.705-15.019-16.029-19.611-26.016-1.837-3.996-3.737-8.125-5.969-11.924l-.167-.281-.054-.326c-.111-.68-.314-1.393-.549-2.121L104.227 491.66c8.636 15.359 18.292 30.592 28.984 45.621 4.59 6.453 9.396 12.834 14.325 19.162l109.157-88.82-.113-.066zM393.885 423.545s-.508 2.697-.611 2.906c-4.576 7.879-14.357 22.207-28.523 30.078a210 210 0 0 0-.816 1.215c-.518.963-1.242 2.264-2.791 3.385a42 42 0 0 1-6.117 5.447l110.439 89.865c4.93-6.33 9.734-12.707 14.324-19.16 10.693-15.029 20.35-30.262 28.986-45.625l-105.65-85.969c-1.83 6.506-4.648 12.439-9.164 17.133zM383.055 302.637l.201.256s.721 2.338.906 2.926c5.582 5.04 8.99 11.647 12.254 18.069 2.199 4.326 4.473 8.8 7.379 12.65l.141.185.086.216c.592 1.458 1.682 4.156 1.682 6.932 0 1.044-.277 2.07-.695 3.068l155.934-126.883v-46.972h-65.199L359.145 284.231c9.259 4.437 17.644 10.398 23.91 18.406M207.66 337.479c1.532-4.586 3.106-9.07 5.373-13.421l.095-.183.135-.156c2.132-2.469 4.076-5.391 6.133-8.484 5.057-7.607 10.806-16.159 20.779-18.929 3.04-5.735 7.487-9.726 12.734-12.847L117.264 173.084H52.059v46.967l151.226 123.052c1.001-2.244 2.353-4.214 4.375-5.624M342.221 456.039l11.877-1.221c-12.777 10.522-29.402 16.268-44.834 15.272-.031-.004-9.524-1.34-12.128-1.703zM235.563 439.225c0-.174-5.454-7.99-5.454-7.99-6.714-9.41-13.532-19.182-15.965-30.91 10.861 12.371 19.859 23.986 21.556 38.834l-.139.068zM235.174 369.31c1.763.253 31.323 4.502 32.044 4.607l.351.229 1.481 1.309c1.561 4.188 4.149 8.128 6.703 11.93 4.004 5.965 7.85 11.691 7.85 18.324 0 2.523-.558 5.184-1.875 8.035-2.339 3.572-3.951 7.846-5.51 11.979 0 0-2.901 6.889-3.342 7.932-.059-.01-5.354-.586-5.354-.586-8.832-.93-17.939-1.916-25.66-4.973l-3.065-4.857c-5.986-9.406-11.631-18.322-15.485-30.952.828-9.306 5.335-15.998 11.862-22.977M247.386 311.954c1.577-3.029 3.146-5.849 5.677-8.051l2.704.191c11.975.833 25.463 1.84 34.616 7.891 1.095 5.443 1.681 10.607 1.681 15.405a54 54 0 0 1-.787 9.201c-.843.847-25.354 25.497-26.284 26.434-1.225.044-10.615.391-10.615.391s-13.079-1.507-14.571-1.681c-5.466-7.235-7.938-17.751-9.012-25.426a6 6 0 0 1-.026-.542c0-2.911 2.299-5.239 4.938-7.91 1.998-2.024 4.033-4.14 5.407-6.8 2.922-2.772 4.647-5.982 6.272-9.103M303.891 302.782c2.389-1.974 4.861-4.014 7.744-5.07 13.365-6.382 25.707.029 37.641 6.227 4.461 2.317 8.691 4.458 12.963 6.037 1.328 4.094 1.844 8.373 1.844 12.533 0 4.782-.598 9.329-1.141 13.26-9.201 4.962-19.031 9.66-28.953 11.255l-27.309-12.511c-.303-.437-1.107-1.588-1.107-1.588l-2.213-3.064c-2.719-5.364-5.441-13.2-5.441-19.835 0-1.125.135-2.185.303-3.222 2.013-1.103 3.884-2.549 5.669-4.022M318.389 405.303c5.004-1.168 9.744-2.229 14.607-2.998l10.473 11.045 5.557 5.803c.139 1.174.234 2.369.234 3.603 0 7.447-2.457 15.772-6.682 22.25-7.775 7.525-21.088 11.637-39.558 12.236-10.812-4.102-16.975-13.371-21.142-21.223 1.624-9.459 6.056-17.982 13.89-26.703 7.884-.627 15.38-2.324 22.621-4.013M368.115 342.29c1.883.719 3.326 1.669 5.025 2.893 0 0 2.006 1.389 2.402 1.661.322.386 3.156 3.744 3.156 3.744 4.678 5.403 9.494 10.965 9.494 18.462a19 19 0 0 1-.408 3.838c.014-.069-1.777 9.524-1.777 9.524-.764 4.96-1.555 10.09-3.578 15.261-4.84 8.059-15.65 13.643-27.408 13.963-.215-.189-1.059-.787-1.059-.787-10.283-5.568-13.26-15.565-13.26-26.704 0-6.417.99-13.211 2.141-19.757 4.325-10.617 15.202-16.99 25.272-22.098" style="fill:#fff"/><path d="M229.325 313.684c.23-.917.59-1.536 1.101-1.904.018-.015 3.926-2.996 3.926-2.996 2.447-1.788 4.976-3.637 7.793-6.479 1.067-.446 3.108-.938 4.072-.12-3.229 3.528-5.932 7.683-8.527 11.73-5.348 8.342-10.905 16.929-21.392 19.816.7-7.992 6.618-14.369 13.027-20.047M343.41 295.368c-10.52-4.13-21.326-8.436-30.279-14.205 16.221.775 44.336 4.54 61.02 20.716.309.35.668 1.08.668 1.591a.7.7 0 0 1-.055.296c-.094.205-.348.309-.752.309-.002 0-9.133.399-9.299.408-6.643-3.355-14.092-6.285-21.303-9.115" style="fill:#fff"/><path d="M131.949 107.848h25.97v7.356h-16.787v7.21h14.517v7.108h-14.517V143.1h-9.183zM187.493 120.439c-.493-3.554-3.26-5.43-7.111-5.43-5.923 0-8.194 5.232-8.194 10.467 0 5.232 2.27 10.466 8.194 10.466 4.298 0 6.767-2.468 7.111-6.518h9.183c-.493 9.086-7.158 14.417-16.095 14.417-10.665 0-17.575-8.146-17.575-18.365 0-10.222 6.91-18.366 17.575-18.366 7.604 0 15.847 4.838 16.095 13.329zM220.323 107.848h16.492c6.072-.097 12.737 1.482 12.737 8.838 0 3.16-1.876 5.728-4.643 7.111 3.752 1.085 6.075 4.345 6.075 8.343 0 8.392-6.171 10.96-13.726 10.96h-16.936v-35.252zm9.182 13.875h7.111c1.579 0 3.753-.84 3.753-3.358 0-2.565-1.827-3.405-3.753-3.405h-7.111zm0 14.021h7.359c2.912 0 4.935-1.036 4.935-3.948 0-3.11-2.171-4.149-4.935-4.149h-7.359zM268.116 107.848h9.329l13.183 35.252h-9.577l-2.174-6.318h-12.293l-2.221 6.318h-9.431zm.592 22.121h7.998l-3.901-12.343h-.1zM326.324 128.536c0 10.219-4.689 15.305-15.355 15.305-10.662 0-15.354-5.086-15.354-15.305v-20.688h9.183v21.231c0 4.543 1.681 6.863 6.171 6.863 4.494 0 6.172-2.32 6.172-6.863v-21.231h9.184v20.688zM335.014 107.848h9.182v27.353h16.443v7.899h-25.625zM367.797 107.848h13.527l6.072 23.501h.1l6.072-23.501h13.527V143.1h-8.641v-26.758h-.096l-7.406 26.758h-7.012l-7.406-26.758h-.1V143.1h-8.639v-35.252zM416.033 107.848h28.092v7.356h-18.908v6.172h17.279v7.111h-17.279v6.714h19.4v7.899h-28.584zM459.578 131.25c.197 4.149 2.766 5.483 6.664 5.483 2.766 0 5.629-.989 5.629-3.607 0-3.111-5.037-3.703-10.119-5.133-5.037-1.433-10.32-3.703-10.32-10.172 0-7.701 7.752-10.712 14.367-10.712 7.012 0 14.07 3.405 14.119 11.354h-9.182c.148-3.209-2.863-4.246-5.678-4.246-1.973 0-4.441.692-4.441 3.012 0 2.716 5.082 3.209 10.219 4.642 5.086 1.43 10.219 3.802 10.219 10.169 0 8.938-7.602 11.8-15.355 11.8-8.098 0-15.254-3.554-15.305-12.591z" style="fill:#17479e"/><path d="M402.246 352.938c.953 5.337 1.598 13.663-.035 24.292-1.389 9.032-4.291 17.573-10.31 31.662 0 0-1.645-8.582-.234-16.104s3.408-15.635 3.879-26.449c-.001 0 3.526-6.347 6.7-13.401" style="fill:#fff"/></svg>