<?xml version="1.0" encoding="iso-8859-1"?>
<!-- Generator: Adobe Illustrator 24.0.1, SVG Export Plug-In . SVG Version: 6.00 Build 0)  -->
<svg version="1.1" id="Layer_1" xmlns="http://www.w3.org/2000/svg" xmlns:xlink="http://www.w3.org/1999/xlink" x="0px" y="0px"
	 viewBox="0 0 612 792" style="enable-background:new 0 0 612 792;" xml:space="preserve">
<path style="fill:#1870B3;" d="M590.5,396.388c0,156.296-126.708,283.002-283.004,283.002S24.5,552.683,24.5,396.388
	c0-156.295,126.7-282.998,282.996-282.998S590.5,240.093,590.5,396.388"/>
<path style="fill:#FFFFFF;" d="M517.674,396.388c0,116.067-94.093,210.176-210.17,210.176
	c-116.085,0-210.178-94.108-210.178-210.176c0-116.072,94.093-210.172,210.178-210.172
	C423.581,186.216,517.674,280.315,517.674,396.388"/>
<path style="fill:#1870B3;" d="M307.504,602.021c113.38,0,205.628-92.25,205.628-205.63c0-113.389-92.248-205.634-205.628-205.634
	c-113.396,0-205.636,92.245-205.636,205.634C101.868,509.771,194.108,602.021,307.504,602.021"/>
<path style="fill:#FFFFFF;" d="M113.895,396.389c0-106.752,86.846-193.604,193.609-193.604
	c106.755,0,193.601,86.852,193.601,193.604c0,106.751-86.846,193.605-193.601,193.605
	C200.741,589.994,113.895,503.141,113.895,396.389"/>
<path style="fill:#1870B3;" d="M402.679,413.664h-17.291v-4.522h5.467v-13.684h-5.467v-4.228c0.845,0,1.641-0.047,2.408-0.143
	c0.759-0.101,1.395-0.279,1.905-0.515c0.603-0.294,1.06-0.666,1.362-1.134c0.295-0.461,0.473-1.038,0.519-1.735h5.762v21.439h5.335
	V413.664z"/>
<path style="fill:#1870B3;" d="M429.146,399.252c0,2.17-0.279,4.184-0.844,6.055c-0.543,1.875-1.395,3.447-2.532,4.709
	c-1.224,1.395-2.757,2.424-4.568,3.113c-1.828,0.689-3.942,1.029-6.366,1.029c-0.859,0-1.789-0.037-2.788-0.147
	c-0.998-0.107-1.648-0.201-1.959-0.279v-5.094h0.689c0.349,0.162,0.845,0.34,1.495,0.52c0.643,0.193,1.518,0.277,2.632,0.277
	c0.898,0,1.789-0.117,2.656-0.342c0.867-0.223,1.618-0.58,2.246-1.059c0.69-0.529,1.247-1.186,1.689-1.969
	c0.434-0.781,0.735-1.719,0.883-2.826c-1.007,0.59-1.935,1.023-2.811,1.332c-0.859,0.311-1.936,0.457-3.221,0.457
	c-0.976,0-1.913-0.107-2.787-0.355c-0.892-0.232-1.696-0.605-2.433-1.1c-0.96-0.684-1.727-1.58-2.308-2.703
	c-0.565-1.123-0.851-2.539-0.851-4.236c0-2.775,0.969-5.033,2.889-6.779c1.928-1.754,4.46-2.625,7.589-2.625
	c1.61,0,3.042,0.213,4.289,0.635c1.247,0.43,2.315,1.073,3.222,1.944c1.053,0.991,1.858,2.269,2.385,3.813
	C428.875,395.161,429.146,397.041,429.146,399.252 M422.486,398.283c0-1.408-0.14-2.573-0.417-3.487
	c-0.264-0.922-0.636-1.618-1.115-2.118c-0.333-0.372-0.729-0.643-1.161-0.802c-0.449-0.167-0.906-0.244-1.395-0.244
	c-0.449,0-0.883,0.078-1.301,0.228c-0.403,0.159-0.798,0.43-1.186,0.817c-0.355,0.364-0.65,0.855-0.882,1.459
	c-0.226,0.611-0.334,1.324-0.334,2.164c0,0.809,0.117,1.491,0.356,2.045c0.248,0.549,0.581,0.99,1.015,1.315
	c0.411,0.31,0.883,0.535,1.44,0.66c0.542,0.123,1.147,0.193,1.789,0.193c0.533,0,1.091-0.07,1.711-0.201
	c0.612-0.133,1.093-0.271,1.425-0.41c0-0.125,0.016-0.313,0.031-0.543C422.472,399.113,422.486,398.758,422.486,398.283"/>
<path style="fill:#1870B3;" d="M454.917,400.701c0,2.176-0.209,4.127-0.604,5.846c-0.388,1.734-0.999,3.145-1.836,4.244
	c-0.859,1.129-1.959,1.982-3.298,2.547c-1.348,0.574-3.005,0.859-4.98,0.859c-1.928,0-3.585-0.285-4.947-0.867
	c-1.37-0.582-2.478-1.439-3.322-2.578c-0.859-1.131-1.479-2.549-1.866-4.236c-0.38-1.688-0.573-3.625-0.573-5.799
	c0-2.254,0.201-4.205,0.589-5.863c0.395-1.657,1.021-3.058,1.881-4.208c0.86-1.143,1.975-1.99,3.346-2.563
	c1.355-0.562,2.997-0.848,4.893-0.848c1.99,0,3.647,0.294,4.995,0.879c1.348,0.581,2.439,1.452,3.307,2.617
	c0.836,1.134,1.456,2.54,1.835,4.205C454.716,396.6,454.917,398.517,454.917,400.701 M448.188,400.701
	c0-3.133-0.31-5.363-0.921-6.694c-0.62-1.332-1.642-1.991-3.067-1.991c-1.424,0-2.439,0.659-3.058,1.991
	c-0.612,1.331-0.922,3.577-0.922,6.733c0,3.064,0.318,5.289,0.938,6.643c0.626,1.357,1.642,2.037,3.042,2.037
	c1.409,0,2.425-0.68,3.052-2.037C447.878,406.029,448.188,403.797,448.188,400.701"/>
<polygon style="fill:#1870B3;" points="479.929,392.918 468.221,413.654 460.77,413.654 472.944,392.725 459.648,392.725 
	459.648,387.769 479.929,387.769 "/>
<path style="fill:#1870B3;" d="M379.456,463.006c-32.166,0-61.461-32.393-61.461-67.954c0-34.018,27.676-61.693,61.686-61.693
	c21.504,0,42.256,11.84,55.049,28.608h44.851c-16.045-80.324-87.107-141.045-172.076-141.045
	c-96.757,0-175.478,78.713-175.478,175.469c0,96.761,78.721,175.466,175.478,175.466c84.156,0,154.622-59.533,171.581-138.719
	H435.21C422.41,450.607,401.309,463.006,379.456,463.006z M289.004,387.026h-44.99v-81.869h121.574
	C324.647,311.561,292.666,345.246,289.004,387.026z M421.457,305.157c3.825,4.762,7.364,9.753,10.577,14.976
	c-11.607-7.588-24.764-12.804-38.555-14.976H421.457z M214.604,509.025c-32.453-26.816-53.167-67.353-53.167-112.634
	c0-45.292,20.714-85.83,53.167-112.638V509.025z M307.504,250.325c30.47,0,58.804,9.404,82.251,25.438H225.259
	C248.691,259.729,277.024,250.325,307.504,250.325z M307.504,542.461c-22.736,0-44.279-5.219-63.49-14.541V412.424h46.236
	c8.154,44.238,46.314,79.977,89.206,79.977c17.485,0,34.374-5.381,49.102-14.35C402.276,516.893,357.828,542.461,307.504,542.461z"
	/>
<path style="fill:#FFFFFF;" d="M259.266,643.724c-0.535,2.261-1.435,4.153-2.699,5.679c-1.265,1.528-2.753,2.681-4.462,3.456
	c-2.028,0.939-4.085,1.456-6.172,1.552c-2.086,0.096-4.676-0.222-7.768-0.956l-13.033-3.09l10.775-45.447l12.056,2.858
	c3.236,0.769,5.637,1.449,7.205,2.047c1.566,0.598,2.998,1.469,4.295,2.613c1.421,1.261,2.34,2.69,2.757,4.283
	c0.418,1.591,0.399,3.344-0.054,5.256c-0.507,2.138-1.524,3.916-3.054,5.338c-1.53,1.421-3.405,2.373-5.626,2.856l-0.058,0.243
	c2.532,1.374,4.311,3.209,5.336,5.506C259.79,638.212,259.956,640.815,259.266,643.724z M252.921,642.479
	c0.405-1.709,0.496-3.177,0.27-4.401c-0.225-1.224-0.989-2.398-2.291-3.523c-0.836-0.737-1.802-1.31-2.897-1.72
	c-1.097-0.41-2.681-0.86-4.756-1.355l-6.868-1.627l-3.98,16.787l4.914,1.165c2.645,0.628,4.759,1,6.344,1.116
	c1.584,0.119,3.051-0.082,4.399-0.6c1.326-0.524,2.374-1.227,3.142-2.109C251.965,645.331,252.54,644.086,252.921,642.479z
	 M255.675,621.34c0.261-1.1,0.303-2.094,0.129-2.984c-0.176-0.891-0.617-1.667-1.318-2.328c-0.847-0.781-1.857-1.375-3.027-1.781
	c-1.173-0.408-2.817-0.86-4.932-1.362l-5.799-1.376l-3.155,13.308l6.868,1.629c1.892,0.448,3.308,0.684,4.249,0.701
	c0.941,0.021,1.962-0.163,3.063-0.548c1.055-0.372,1.89-0.99,2.503-1.856C254.871,623.879,255.343,622.743,255.675,621.34z"/>
<path style="fill:#FFFFFF;" d="M288.063,657.732c-0.508,0.314-1.19,0.757-2.045,1.326c-0.854,0.57-1.672,1.012-2.454,1.325
	c-1.086,0.456-2.126,0.788-3.12,1.002c-0.993,0.211-2.364,0.247-4.116,0.102c-1.438-0.118-2.78-0.502-4.028-1.15
	c-1.247-0.649-2.32-1.502-3.219-2.563c-0.86-1.036-1.512-2.281-1.959-3.733c-0.447-1.453-0.607-2.961-0.478-4.525
	c0.199-2.416,0.879-4.432,2.04-6.047c1.162-1.615,2.887-2.832,5.18-3.649c2.033-0.734,4.396-1.165,7.092-1.29
	c2.697-0.124,5.594-0.142,8.692-0.056l0.093-1.126c0.113-1.374-0.003-2.502-0.352-3.38c-0.348-0.879-0.876-1.577-1.589-2.098
	c-0.711-0.542-1.603-0.934-2.673-1.181c-1.07-0.245-2.179-0.415-3.325-0.508c-1.355-0.112-2.967-0.04-4.833,0.215
	c-1.868,0.255-3.751,0.693-5.648,1.313l-0.344-0.028l0.492-5.971c1.109-0.224,2.69-0.438,4.743-0.647
	c2.052-0.21,4.068-0.232,6.049-0.07c2.397,0.197,4.404,0.552,6.019,1.064c1.614,0.511,3.039,1.309,4.272,2.396
	c1.192,1.063,2.038,2.383,2.538,3.956c0.5,1.571,0.66,3.452,0.48,5.641l-1.966,23.885l-5.846-0.482L288.063,657.732z
	 M288.464,652.854l0.798-9.69c-1.407,0.01-3.186,0.038-5.341,0.08c-2.155,0.041-3.904,0.209-5.249,0.495
	c-1.603,0.351-2.956,0.98-4.059,1.885c-1.103,0.906-1.727,2.245-1.873,4.018c-0.164,2,0.273,3.558,1.315,4.671
	c1.042,1.113,2.646,1.761,4.813,1.938c1.855,0.153,3.565-0.109,5.133-0.788C285.568,654.784,287.055,653.914,288.464,652.854z"/>
<path style="fill:#FFFFFF;" d="M317.844,662.656c-2.34,0.134-4.545-0.054-6.615-0.563c-2.071-0.51-3.795-1.084-5.171-1.717
	l-0.376-6.609l0.313-0.018c0.524,0.368,1.139,0.772,1.846,1.215c0.705,0.442,1.637,0.893,2.793,1.349
	c1.029,0.402,2.153,0.747,3.374,1.033c1.221,0.287,2.479,0.393,3.773,0.319c0.939-0.054,1.935-0.22,2.987-0.5
	c1.053-0.281,1.829-0.602,2.333-0.967c0.703-0.521,1.2-1.061,1.494-1.623c0.292-0.561,0.407-1.384,0.346-2.47
	c-0.079-1.398-0.521-2.432-1.323-3.1c-0.803-0.665-2.188-1.183-4.157-1.554c-0.762-0.146-1.756-0.309-2.981-0.489
	c-1.226-0.182-2.358-0.389-3.397-0.624c-2.717-0.619-4.727-1.705-6.029-3.253c-1.304-1.549-2.021-3.474-2.151-5.769
	c-0.18-3.151,0.864-5.789,3.131-7.908c2.268-2.117,5.374-3.29,9.319-3.514c1.942-0.111,3.907,0.018,5.896,0.387
	c1.99,0.368,3.675,0.878,5.053,1.533l0.358,6.297l-0.313,0.018c-1.57-1.107-3.3-1.95-5.187-2.533
	c-1.887-0.584-3.77-0.823-5.649-0.716c-1.941,0.112-3.558,0.61-4.847,1.502c-1.29,0.891-1.889,2.159-1.794,3.811
	c0.083,1.46,0.542,2.53,1.376,3.203c0.834,0.675,2.142,1.193,3.921,1.554c0.891,0.179,1.879,0.349,2.968,0.506
	c1.087,0.157,2.234,0.349,3.441,0.573c2.625,0.5,4.634,1.464,6.024,2.892c1.391,1.43,2.159,3.438,2.307,6.027
	c0.086,1.504-0.131,2.943-0.648,4.324c-0.518,1.382-1.324,2.585-2.418,3.611c-1.193,1.115-2.563,1.987-4.108,2.621
	C322.185,662.139,320.223,662.521,317.844,662.656z"/>
<path style="fill:#FFFFFF;" d="M358.451,657.768c-5.478,1.083-10.034,0.38-13.67-2.107c-3.638-2.488-6.018-6.575-7.142-12.258
	c-1.108-5.6-0.522-10.346,1.756-14.24c2.277-3.893,5.785-6.309,10.524-7.246c2.134-0.422,4.082-0.488,5.846-0.197
	c1.762,0.291,3.389,0.972,4.88,2.04c1.491,1.069,2.752,2.489,3.783,4.256c1.032,1.768,1.819,4.026,2.363,6.774l0.621,3.14
	l-23.818,4.713c0.792,3.999,2.401,6.857,4.831,8.572c2.429,1.715,5.416,2.221,8.966,1.518c1.271-0.251,2.49-0.639,3.653-1.169
	c1.164-0.527,2.193-1.115,3.089-1.763c0.953-0.677,1.745-1.309,2.376-1.893c0.63-0.581,1.142-1.115,1.538-1.599l0.339-0.068
	l1.248,6.31c-0.625,0.398-1.4,0.898-2.326,1.498c-0.926,0.6-1.767,1.091-2.522,1.475c-1.067,0.53-2.041,0.968-2.922,1.313
	C360.984,657.183,359.847,657.493,358.451,657.768z M360.905,634.613c-0.35-1.552-0.801-2.858-1.352-3.922
	c-0.552-1.065-1.212-1.925-1.981-2.582c-0.847-0.727-1.845-1.213-2.99-1.456c-1.147-0.24-2.498-0.209-4.058,0.1
	c-1.538,0.305-2.8,0.795-3.786,1.471c-0.985,0.673-1.832,1.539-2.54,2.595c-0.682,1.074-1.142,2.203-1.375,3.391
	c-0.235,1.187-0.268,2.52-0.104,4.001L360.905,634.613z"/>
<polygon style="fill:#FFFFFF;" points="388.355,649.247 374.83,604.726 369.19,606.446 382.714,650.96 "/>
<path style="fill:#FFFFFF;" d="M115.324,219.289l-14.106,16.54l10.025,8.549l13.516-15.847l4.2,3.582l-13.516,15.848l17.113,14.595
	l-4.03,4.726l-35.538-30.308l18.136-21.266L115.324,219.289z"/>
<path style="fill:#FFFFFF;" d="M168.171,227.635c-2.34,1.961-4.82,3.373-7.441,4.233c-2.621,0.861-5.297,1.112-8.026,0.753
	c-2.73-0.359-5.462-1.371-8.194-3.036c-2.733-1.666-5.363-4.005-7.889-7.018c-2.512-2.997-4.321-5.928-5.428-8.794
	c-1.106-2.865-1.622-5.735-1.547-8.608c0.083-2.798,0.749-5.438,1.999-7.919c1.251-2.48,3.085-4.734,5.505-6.763
	c1.202-1.007,2.402-1.863,3.6-2.567c1.197-0.703,2.359-1.294,3.484-1.775c0.971-0.404,2.013-0.765,3.124-1.084
	c1.111-0.317,2.241-0.59,3.389-0.815l4.816,5.745l-0.384,0.322c-0.739-0.035-1.665-0.05-2.779-0.044
	c-1.115,0.006-2.366,0.141-3.754,0.405c-1.33,0.269-2.666,0.693-4.009,1.272c-1.342,0.58-2.719,1.461-4.128,2.643
	c-1.522,1.276-2.703,2.799-3.542,4.564c-0.837,1.768-1.26,3.69-1.264,5.768c0.011,2.064,0.509,4.253,1.493,6.567
	c0.984,2.313,2.443,4.623,4.378,6.931c2.055,2.452,4.122,4.315,6.199,5.588c2.078,1.274,4.14,2.091,6.187,2.449
	c1.987,0.353,3.906,0.265,5.756-0.262c1.85-0.528,3.528-1.423,5.035-2.686c1.378-1.155,2.511-2.392,3.399-3.709
	c0.887-1.317,1.574-2.615,2.057-3.894c0.465-1.236,0.8-2.383,1.004-3.441c0.205-1.057,0.336-1.925,0.396-2.603l0.361-0.302
	l4.755,5.673c-0.477,1.027-0.922,2.001-1.337,2.921c-0.415,0.921-0.986,1.958-1.71,3.112c-0.76,1.21-1.511,2.275-2.252,3.197
	C170.682,225.381,169.597,226.439,168.171,227.635z"/>
<path style="fill:#FFFFFF;" d="M226.056,193.651c-2.831,1.146-5.624,1.727-8.383,1.738c-2.759,0.013-5.382-0.571-7.868-1.752
	c-2.487-1.182-4.774-2.985-6.862-5.411c-2.088-2.426-3.87-5.46-5.346-9.105c-1.468-3.624-2.288-6.97-2.458-10.037
	c-0.171-3.067,0.222-5.956,1.177-8.667c0.94-2.636,2.387-4.942,4.338-6.918c1.953-1.976,4.392-3.556,7.319-4.742
	c1.453-0.589,2.858-1.034,4.214-1.335c1.355-0.301,2.643-0.506,3.862-0.617c1.048-0.085,2.15-0.108,3.305-0.07
	c1.156,0.04,2.315,0.13,3.476,0.268l2.814,6.95l-0.465,0.188c-0.692-0.262-1.57-0.56-2.631-0.898
	c-1.061-0.337-2.294-0.593-3.696-0.769c-1.349-0.154-2.751-0.161-4.206-0.023c-1.456,0.139-3.037,0.553-4.742,1.243
	c-1.843,0.746-3.433,1.831-4.774,3.254c-1.341,1.424-2.335,3.123-2.977,5.098c-0.624,1.969-0.825,4.204-0.599,6.707
	c0.223,2.505,0.901,5.152,2.032,7.941c1.202,2.966,2.594,5.375,4.179,7.226c1.584,1.851,3.296,3.262,5.133,4.233
	c1.783,0.948,3.635,1.454,5.557,1.521c1.923,0.067,3.795-0.268,5.618-1.006c1.667-0.675,3.125-1.503,4.375-2.483
	c1.25-0.98,2.303-2.004,3.156-3.071c0.822-1.034,1.494-2.022,2.014-2.965c0.52-0.944,0.913-1.729,1.178-2.355l0.436-0.177
	l2.779,6.861c-0.77,0.831-1.493,1.621-2.172,2.369c-0.677,0.749-1.539,1.559-2.584,2.433c-1.095,0.918-2.137,1.702-3.126,2.351
	C229.138,192.28,227.78,192.953,226.056,193.651z"/>
<path style="fill:#FFFFFF;" d="M273.729,161.878c1.1,5.793,0.553,10.534-1.642,14.217c-2.195,3.684-5.615,5.967-10.257,6.849
	c-4.787,0.909-8.861-0.004-12.223-2.739c-3.36-2.736-5.572-6.896-6.634-12.485c-1.092-5.753-0.53-10.49,1.691-14.21
	c2.22-3.722,5.642-6.021,10.264-6.899c4.643-0.882,8.663-0.001,12.061,2.643C270.385,151.897,272.633,156.106,273.729,161.878z
	 M267.75,163.015c-0.847-4.458-2.288-7.618-4.322-9.477c-2.035-1.858-4.553-2.503-7.552-1.933c-3.02,0.573-5.141,2.099-6.362,4.577
	c-1.221,2.478-1.409,5.946-0.563,10.404c0.82,4.313,2.258,7.431,4.314,9.351c2.058,1.919,4.596,2.591,7.616,2.018
	c2.979-0.566,5.077-2.098,6.295-4.596C268.395,170.858,268.585,167.411,267.75,163.015z"/>
<path style="fill:#FFFFFF;" d="M315.02,177.108l-5.897,0.073l-0.249-19.949c-0.02-1.61-0.117-3.109-0.291-4.498
	c-0.175-1.389-0.486-2.498-0.936-3.329c-0.493-0.873-1.17-1.518-2.032-1.936c-0.863-0.417-2.037-0.617-3.521-0.598
	c-1.464,0.019-2.97,0.429-4.518,1.232c-1.548,0.804-3.057,1.842-4.525,3.116l0.328,26.159l-5.897,0.074l-0.439-35.035l5.896-0.074
	l0.049,3.889c1.736-1.59,3.457-2.814,5.162-3.672c1.704-0.858,3.507-1.299,5.41-1.323c3.45-0.043,6.162,1.057,8.135,3.302
	c1.973,2.245,2.986,5.52,3.04,9.828L315.02,177.108z"/>
<path style="fill:#FFFFFF;" d="M341.498,180.489c-2.383-0.33-4.517-1.002-6.403-2.012c-1.887-1.011-3.441-2.361-4.664-4.052
	c-1.222-1.69-2.069-3.723-2.542-6.1c-0.473-2.378-0.496-5.099-0.071-8.165c0.423-3.045,1.197-5.618,2.323-7.722
	c1.126-2.102,2.477-3.814,4.053-5.137c1.578-1.323,3.442-2.251,5.597-2.787c2.153-0.535,4.4-0.64,6.742-0.315
	c1.904,0.265,3.707,0.789,5.402,1.573c1.697,0.785,3.189,1.625,4.48,2.522l-0.909,6.556l-0.343-0.048
	c-0.366-0.409-0.843-0.887-1.432-1.433c-0.589-0.547-1.316-1.123-2.183-1.729c-0.751-0.526-1.653-1.021-2.708-1.484
	c-1.055-0.463-2.09-0.765-3.104-0.906c-3.024-0.419-5.612,0.389-7.762,2.423c-2.151,2.035-3.517,5.145-4.098,9.328
	c-0.568,4.102-0.125,7.42,1.326,9.954c1.453,2.535,3.755,4.021,6.904,4.457c1.904,0.264,3.772,0.123,5.6-0.426
	c1.83-0.548,3.492-1.352,4.99-2.412l0.342,0.048l-0.909,6.556c-0.617,0.189-1.387,0.415-2.311,0.678
	c-0.924,0.262-1.75,0.438-2.48,0.526c-1.036,0.152-1.957,0.251-2.767,0.297C343.766,180.725,342.74,180.662,341.498,180.489z"/>
<path style="fill:#FFFFFF;" d="M394.383,175.304c-1.807,5.613-4.556,9.513-8.246,11.696c-3.69,2.185-7.785,2.553-12.284,1.104
	c-4.639-1.493-7.778-4.245-9.42-8.255c-1.642-4.01-1.592-8.723,0.15-14.137c1.795-5.573,4.558-9.462,8.287-11.667
	c3.729-2.204,7.835-2.585,12.314-1.144c4.5,1.448,7.607,4.145,9.324,8.092C396.225,164.939,396.184,169.711,394.383,175.304z
	 M388.59,173.439c1.391-4.319,1.639-7.782,0.741-10.389c-0.896-2.606-2.798-4.377-5.704-5.312c-2.926-0.942-5.519-0.618-7.777,0.973
	c-2.258,1.591-4.083,4.546-5.473,8.865c-1.346,4.181-1.575,7.605-0.687,10.274c0.887,2.67,2.792,4.475,5.719,5.417
	c2.886,0.929,5.462,0.588,7.728-1.022C385.401,180.635,387.219,177.699,388.59,173.439z"/>
<path style="fill:#FFFFFF;" d="M428.034,178.734l-0.28-0.139c-0.34-0.307-0.723-0.583-1.148-0.828
	c-0.428-0.246-0.95-0.521-1.57-0.826c-1.425-0.702-2.993-1.09-4.705-1.164c-1.713-0.075-3.497,0.188-5.354,0.789l-10.994,22.313
	l-5.29-2.606l15.485-31.43l5.291,2.607l-2.302,4.671c2.772-0.755,5.05-1.131,6.831-1.127c1.782,0.003,3.348,0.338,4.7,1.003
	c0.542,0.268,0.944,0.483,1.203,0.646c0.257,0.162,0.541,0.354,0.851,0.578L428.034,178.734z"/>
<path style="fill:#FFFFFF;" d="M445.121,224.238l-4.779-3.456l2.096-2.898c-1.2,0.088-2.217,0.139-3.054,0.154
	c-0.836,0.015-1.741-0.072-2.715-0.26c-0.911-0.169-1.794-0.427-2.652-0.776c-0.857-0.349-1.769-0.873-2.734-1.571
	c-1.542-1.115-2.738-2.47-3.585-4.064c-0.848-1.593-1.282-3.339-1.303-5.238c-0.025-1.928,0.373-3.994,1.194-6.201
	c0.821-2.206,2.095-4.504,3.822-6.893c1.802-2.491,3.684-4.415,5.645-5.771c1.961-1.356,3.999-2.302,6.114-2.836
	c1.929-0.49,3.881-0.556,5.855-0.199c1.974,0.356,3.767,1.117,5.376,2.281c1.422,1.029,2.548,2.081,3.371,3.154
	c0.824,1.074,1.582,2.363,2.272,3.869l8.896-12.302l4.78,3.456L445.121,224.238z M445.341,213.868l11.837-16.37
	c-0.77-1.434-1.544-2.601-2.326-3.501c-0.781-0.9-1.722-1.749-2.823-2.546c-2.458-1.776-5.046-2.248-7.765-1.414
	c-2.72,0.834-5.335,2.988-7.847,6.462c-2.414,3.339-3.728,6.279-3.94,8.822c-0.214,2.543,0.858,4.665,3.213,6.369
	c1.255,0.907,2.722,1.536,4.402,1.887C441.775,213.928,443.523,214.025,445.341,213.868z"/>
<path style="fill:#FFFFFF;" d="M459.497,236.751l-4.334-4l23.764-25.748l4.334,4L459.497,236.751z M487.539,206.969l-4.934-4.552
	l4.149-4.495l4.933,4.552L487.539,206.969z"/>
<path style="fill:#FFFFFF;" d="M484.599,258.405c-0.578-0.149-1.37-0.336-2.372-0.559c-1.003-0.222-1.888-0.507-2.654-0.854
	c-1.082-0.469-2.042-0.989-2.883-1.558c-0.84-0.571-1.813-1.537-2.922-2.9c-0.91-1.12-1.563-2.355-1.958-3.704
	c-0.396-1.349-0.523-2.714-0.378-4.097c0.152-1.338,0.6-2.671,1.339-4c0.739-1.328,1.719-2.486,2.936-3.475
	c1.883-1.53,3.809-2.434,5.777-2.713c1.969-0.279,4.042,0.126,6.219,1.212c1.937,0.959,3.884,2.368,5.839,4.228
	c1.956,1.861,3.974,3.938,6.057,6.236l0.876-0.712c1.07-0.87,1.804-1.734,2.197-2.593c0.394-0.858,0.53-1.725,0.414-2.599
	c-0.102-0.888-0.435-1.804-0.998-2.745c-0.564-0.944-1.209-1.861-1.933-2.754c-0.857-1.056-2.025-2.169-3.502-3.339
	c-1.477-1.172-3.097-2.228-4.857-3.169l-0.217-0.267l4.651-3.777c0.928,0.647,2.178,1.637,3.749,2.975
	c1.57,1.336,2.983,2.776,4.236,4.318c1.517,1.866,2.648,3.561,3.398,5.08c0.749,1.52,1.158,3.1,1.227,4.743
	c0.058,1.598-0.31,3.12-1.098,4.57c-0.79,1.45-2.037,2.866-3.741,4.25l-18.601,15.11l-3.699-4.552L484.599,258.405z
	 M488.397,255.319l7.547-6.131c-0.981-1.008-2.231-2.275-3.754-3.801c-1.522-1.526-2.853-2.674-3.991-3.446
	c-1.362-0.914-2.753-1.456-4.169-1.626c-1.417-0.169-2.815,0.308-4.195,1.429c-1.559,1.266-2.379,2.66-2.462,4.182
	c-0.083,1.523,0.56,3.128,1.932,4.815c1.174,1.445,2.547,2.498,4.122,3.159C485,254.563,486.657,255.035,488.397,255.319z"/>
</svg>
