<svg xmlns="http://www.w3.org/2000/svg" viewBox="0 0 612 792"><path fill="#1955a6" d="M85.998 345.559c14.906 11.694 24.498 29.97 24.498 50.534 0 20.545-9.592 38.833-24.485 50.534h503.378V345.559z"/><path fill="#fff" d="M136.422 392.001h17.598v10.496h-17.598v17.602H124.91v-48h30.613v10.497h-19.101zM197.181 401.924v1.406c0 5.245-.054 9.986-3.972 13.629-3.912 3.587-8.69 3.511-13.692 3.511-11.742 0-20.315-.624-20.315-18.162v-12.419c0-15.874 7.657-18.175 20.315-18.175 11.852 0 17.371 1.343 17.61 15.742v1.854h-11.852v-1.854c-.4-4.287-3.111-4.608-7.023-4.608-6.553 0-7.199 2.244-7.199 9.085v7.496c0 7.168.293 9.922 7.199 9.922 4.782 0 7.073-.384 7.073-6.02v-1.406h11.856M243.904 387.008c-.239-4.86-3.968-4.804-7.423-4.804-8.284 0-8.514 2.824-8.637 10.56v7.817c0 8.511 2.645 9.4 8.637 9.4 5.875 0 7.423-1.463 7.423-8.126h-7.94v-8.895h19.619v8.385c0 16.195-3.679 19.126-19.102 19.126-13.583 0-20.492-2.547-20.492-18.099v-12.419c0-15.874 7.833-18.238 20.492-18.238 11.155 0 19.102.057 19.102 15.294h-11.679M261.483 372.099h22.2c9.961.183 14.853 2.56 14.853 14.525 0 7.994 0 12.671-8.164 14.783v.517c4.712.189 7.764 3.07 7.764 8.511v9.665h-11.515v-6.727c.117-3.575-1.261-6.008-4.712-6.008h-8.917v12.734h-11.508v-48m20.425 24.12c4.955 0 4.775-2.042 4.775-7.489 0-4.281-.98-5.497-4.775-5.497h-8.917v12.986zM316.09 391.358h18.405v8.895H316.09v9.35h20.019v10.496h-31.53v-48h31.13v10.497H316.09zM354.927 420.099h-11.505v-48h19.445l12.382 36.867h.45l-.69-36.867h11.508v48h-19.615l-12.208-36.867h-.454zM430.016 401.924v1.406c0 5.245-.044 9.986-3.971 13.629-3.906 3.587-8.688 3.511-13.689 3.511-11.739 0-20.309-.624-20.309-18.162v-12.419c0-15.874 7.647-18.175 20.309-18.175 11.851 0 17.371 1.343 17.617 15.742v1.854h-11.868v-1.854c-.394-4.287-3.105-4.608-7.01-4.608-6.572 0-7.202 2.244-7.202 9.085v7.496c0 7.168.29 9.922 7.202 9.922 4.766 0 7.07-.384 7.07-6.02v-1.406h11.851M473.641 420.099h-11.509v-18.818h-15.016v18.818h-11.512v-48h11.512v18.049h15.016v-18.049h11.509zM492.452 391.358h18.412v8.895h-18.412v9.35h20.025v10.496h-31.533v-48h31.127v10.497h-19.619zM531.302 420.099H519.79v-48h19.439l12.381 36.867h.457l-.696-36.867h11.511v48h-19.618l-12.202-36.867h-.457z"/><path fill="#1955a6" d="M97.226 393.36H71.993v4.797H92.65c-1.024 16.893-15.061 30.29-32.207 30.29-3.118 0-6.132-.444-8.984-1.27v-2.998a25.3 25.3 0 0 0 8.214 1.362c12.37 0 22.657-8.813 24.879-20.538h-4.765c-2.19 9.084-10.357 15.873-20.114 15.873-2.919 0-5.696-.607-8.214-1.7v-21.019H67.89v-4.797H51.46v-12.123a20.6 20.6 0 0 1 8.214-1.701c6.16 0 11.701 2.698 15.5 6.979l5.832-.006c-4.532-6.998-12.383-11.631-21.332-11.631-2.875 0-5.638.48-8.214 1.361v-4.103h23.272v-4.791H46.667v11.123c-7.385 4.426-12.326 12.507-12.326 21.746 0 9.23 4.941 17.311 12.326 21.739v3.411c-10.925-5.171-18.485-16.297-18.485-29.184 0-17.815 14.446-32.263 32.263-32.263 14.44 0 26.684 9.513 30.811 22.593h4.86c-4.241-15.76-18.656-27.391-35.756-27.391-20.419 0-36.971 16.554-36.971 36.979 0 20.418 16.551 36.973 36.971 36.973s36.98-16.554 36.98-36.973a40 40 0 0 0-.114-2.738m-58.212 6.852c0-6.483 2.985-12.27 7.652-16.062v32.113c-4.667-3.788-7.652-9.571-7.652-16.051"/></svg>