<svg xmlns="http://www.w3.org/2000/svg" xml:space="preserve" viewBox="0 0 612 792"><path d="M557.23 78.327v166.888c0 89.484-18.978 180.818-53.437 257.173-41.898 92.837-106.771 166.227-197.502 213.534-90.731-47.307-155.604-120.696-197.501-213.533C74.33 426.033 55.353 334.7 55.353 245.215V78.327z"/><path d="M345.773 678.609c22.762-15.645 43.752-33.584 62.918-53.762V90.302h-62.918zM487.659 90.302v418.336a533 533 0 0 0 5.208-11.18c35.271-78.152 52.377-166.705 52.377-252.244l.003-154.913zM67.338 245.215c0 85.539 17.106 174.091 52.376 252.244 1.7 3.766 3.437 7.488 5.207 11.177V90.302H67.335zM203.888 624.846c19.166 20.18 40.157 38.118 62.919 53.764V90.302h-62.919z" style="fill:#0d9c4a"/><path d="M124.92 508.635c21.346 44.502 47.736 83.331 78.968 116.211V90.302H124.92zM408.691 90.302v534.545c31.23-32.883 57.621-71.707 78.968-116.211V90.302zM266.806 678.608a400 400 0 0 0 39.485 23.898 400 400 0 0 0 39.482-23.896V90.302h-78.968z" style="fill:#fff"/><path d="M310.38 499.785c0-4.941-.91-8.432-2.718-10.462-1.808-2.027-3.262-2.985-6.097-3.567 2.362-.511 4.09-1.836 5.982-3.762 1.893-1.924 2.832-4.89 2.832-8.868v-2.337c0-4.557-1.308-7.842-3.942-9.857-2.617-2.002-6.959-3.003-12.979-3.003h-15.399v55.463h11.884v-23.426h1.381c2.562 0 4.262.365 5.109 1.104.846.737 1.267 2.503 1.267 5.289v12.986c0 1.27.845 3.397 1.73 4.047h12.683c-.887-1.452-1.732-3.685-1.732-5.654zm-12.752-24.298c0 2.387-.473 4.027-1.423 4.941-.942.908-2.661 1.374-5.139 1.374h-1.124v-15.596h1.124c2.477 0 4.196.467 5.139 1.373.95.914 1.423 2.555 1.423 4.942zM327.192 367.491c-1.61-1.602-3.631-2.753-6.05-3.439-2.421-.687-6.02-1.04-10.802-1.04h-12.212v55.463h12.212c4.725 0 8.326-.334 10.788-1.016 2.462-.68 4.479-1.811 6.063-3.388q2.343-2.33 3.344-6.046c.671-2.489.996-5.93.996-10.345v-13.876c0-4.415-.325-7.843-.996-10.307q-1-3.675-3.343-6.006m-8.298 36.581q.002 3.274-1.465 4.57c-.971.855-2.733 1.296-5.295 1.296h-1.166v-38.352h1.166c2.561 0 4.32.431 5.295 1.283.976.853 1.465 2.362 1.465 4.544zM315.641 457.927h12.724v55.461h-12.724zM259.627 497.139c0 3.529-.299 5.84-.897 6.918s-1.679 1.617-3.273 1.617q-2.412 0-3.331-1.617c-.611-1.078-.91-3.389-.91-6.918v-39.212h-12.681v36.657c0 7.574 1.223 12.758 3.686 15.544 2.462 2.798 6.846 4.197 13.166 4.197 6.332 0 10.744-1.412 13.234-4.248 2.492-2.837 3.73-7.997 3.73-15.493v-36.657h-12.725zM494.337 412.824v-7.952c0-4.94-.911-8.432-2.719-10.46s-3.262-2.987-6.097-3.568c2.362-.51 4.09-1.836 5.982-3.761s2.833-4.891 2.833-8.869v-2.336c0-4.556-1.31-7.843-3.942-9.857-2.618-2.003-6.96-3.004-12.981-3.004h-15.398v55.463H473.9v-23.425h1.38c2.561 0 4.263.365 5.109 1.104.847.736 1.267 2.502 1.267 5.288v12.987c0 1.269.844 3.397 1.731 4.046h12.682c-.887-1.455-1.732-3.685-1.732-5.656m-12.753-32.249c0 2.388-.474 4.027-1.423 4.942-.943.908-2.662 1.373-5.139 1.373h-1.123v-15.595h1.123c2.477 0 4.195.466 5.139 1.374.949.915 1.423 2.555 1.423 4.942zM430.449 363.012l-11.472 55.463h11.215l2.136-11.617h10.659l1.637 11.617h12.298l-10.177-55.463zm3.501 35.271 4.17-25.723h.327l3.345 25.723zM419.419 363.012h-32.024v8.574h9.465v46.889h13.051v-46.889h9.508zM351.39 457.091c-6.475 0-10.973 1.387-13.492 4.172-2.519 2.786-3.771 7.933-3.771 15.468v17.853q0 11.363 3.757 15.544c2.491 2.798 6.974 4.197 13.422 4.197 5.978 0 10.162-1.194 12.553-3.594 2.392-2.388 3.586-6.624 3.586-12.694v-3.042H355.15v3.118c0 2.992-.3 5.007-.897 6.059-.598 1.053-1.666 1.579-3.188 1.579-1.596 0-2.705-.565-3.346-1.694s-.953-3.427-.953-6.918v-22.937c0-3.529.299-5.854.91-6.944.612-1.091 1.723-1.63 3.303-1.63 1.551 0 2.648.539 3.259 1.63.612 1.091.912 3.415.912 6.944v1.206h12.295v-2.144c0-5.994-1.194-10.19-3.586-12.578-2.392-2.401-6.548-3.595-12.469-3.595M393.202 479.888h-8.668v-21.961h-12.681v55.461h12.681v-24.964h8.668v24.964h12.682v-55.461h-12.682zM246.405 444h7.087v7.636h-7.087zM291.056 409.938H277.42v-16.173h11.671v-8.574H277.42v-13.605h12.553v-8.574h-25.234v55.463h26.317zM144.141 408.244h9.92v10.23h-9.92zM129.196 371.586h15.556v-8.574h-28.236v55.463h12.68v-23.952h14.759v-8.536h-14.759zM366.047 419.412c5.436 0 9.633-1.16 12.567-3.467 2.928-2.302 4.397-5.597 4.397-9.884v-3.388c0-1.771-.151-3.3-.456-4.556a10.6 10.6 0 0 0-1.508-3.44c-.92-1.38-2.621-2.898-5.125-4.557-.557-.369-.988-.643-1.251-.821l-5.209-3.543c-2.154-1.464-3.639-2.725-4.398-3.813-.764-1.094-1.153-2.335-1.153-3.747v-3.607c0-1.515.228-2.555.67-3.146.44-.59 1.237-.885 2.376-.885 1.167 0 1.993.296 2.462.898.471.603.713 1.643.713 3.132v4.928h12.382v-4.184c0-4.326-1.21-7.611-3.629-9.832-2.42-2.22-5.992-3.325-10.717-3.325-4.996 0-8.995 1.143-11.985 3.44q-4.482 3.446-4.482 9.049v4.851c0 2.657.541 4.955 1.622 6.88 1.082 1.926 2.901 3.719 5.38 5.417l5.209 3.568c2.776 1.903 4.584 3.351 5.338 4.493s1.124 2.491 1.124 4.043v2.143c0 1.81-.272 3.04-.797 3.696-.529.666-1.452 1.002-2.789 1.002-1.324 0-2.267-.357-2.818-1.065q-.839-1.075-.84-3.633v-4.697h-12.725v4.094c0 4.993 1.211 8.563 3.645 10.72q3.647 3.235 11.997 3.236M178.749 362.177c-6.476 0-10.974 1.387-13.493 4.172-2.518 2.786-3.771 7.933-3.771 15.467v17.854c0 7.573 1.261 12.753 3.758 15.544s6.974 4.198 13.422 4.198c5.978 0 10.158-1.198 12.553-3.596 2.387-2.39 3.586-6.623 3.586-12.694v-3.042h-12.297v3.119c0 2.991-.299 5.007-.896 6.06-.598 1.052-1.665 1.578-3.188 1.578-1.594 0-2.704-.566-3.345-1.694-.64-1.13-.952-3.428-.952-6.919v-22.937c0-3.529.299-5.853.91-6.944.612-1.09 1.722-1.63 3.302-1.63 1.551 0 2.648.539 3.26 1.63s.91 3.414.91 6.944v1.207h12.297v-2.144c0-5.994-1.199-10.188-3.586-12.579-2.397-2.397-6.549-3.594-12.47-3.594M257.406 444h7.088v7.636h-7.088zM208.164 465.935h15.215l-16.68 36.659v10.794h28.936v-8.01h-16.881l16.881-37.261v-10.19h-27.471zM244.073 401.441v12.988c0 1.268.845 3.397 1.731 4.046h12.682c-.887-1.452-1.731-3.685-1.731-5.653v-7.953c0-4.94-.911-8.433-2.719-10.461s-3.263-2.987-6.097-3.568c2.363-.511 4.091-1.836 5.983-3.761s2.832-4.891 2.832-8.87v-2.336c0-4.556-1.309-7.843-3.942-9.858-2.619-2.003-6.959-3.003-12.98-3.003h-15.399v55.463h11.884v-23.426h1.381q3.84-.002 5.109 1.104 1.267 1.107 1.266 5.288m-6.632-14.556h-1.125V371.29h1.125c2.477 0 4.195.465 5.138 1.372.95.916 1.424 2.555 1.424 4.942v2.965c0 2.388-.474 4.027-1.424 4.942-.942.909-2.661 1.374-5.138 1.374M202.304 408.244h9.92v10.23h-9.92zM318.772 196.463l-87.789-.005-27.095-83.349v.001l-.001-.001-27.095 83.349-87.789.005 71.444 51.625-27.756 82.753 71.196-50.401.001.001v-.001l71.196 50.401-27.756-82.753z"/><path d="M281.724 208.449h-59.483l-18.353-56.303v.001l-.001-.001-18.352 56.303h-59.483l48.562 35.091-18.921 56.415 48.194-34.23h.001l48.194 34.23-18.921-56.415z" style="fill:#ee3124"/></svg>