<svg xmlns="http://www.w3.org/2000/svg" width="1000" height="1000"><path fill="#e81f3e" d="M969.66 92.74S805.115 25 500 25 30.357 92.74 30.357 92.74C-8.577 580.245 229.48 852.147 500.001 975 770.524 852.147 1008.505 580.245 969.66 92.74"/><path fill="#fff" d="M500.001 36.092c266.576 0 426.417 52.633 459.09 64.514 2.406 32.292 3.658 63.958 3.658 94.927 0 180.18-40.673 337.679-121.363 469.283C762.75 793.072 644.75 895.956 500.001 962.72 355.238 895.947 237.23 793.065 158.59 664.816 77.916 533.248 37.25 375.806 37.25 195.706c0-31.024 1.257-62.748 3.674-95.1C73.59 88.726 233.422 36.092 500 36.092"/><path fill="#2a4076" d="M696.423 588.008s-9.692 1.444-14.908 15.562l-28.148-.48s-10.043-14.03-29.375-14.163c0 0-18.065 9.954-16.487 24.16 0 0 4.603-7.85 15.434-7.938 7.145 2.63 10.348 10.522 10.348 10.522s-3.947 17.32-25.168 24.16c0 0-25.605-14.777-45.246-15.653-19.643-.92-47.089 23.587-72.872 1.84-25.781-21.788-23.325-55.373-12.496-78.084 0 0-61.032 42.66-10.742 101.018 0 0-84.181 56.12-120.66 183.903 46.257 34.287 97.642 65.065 153.895 93.74 47.133-24.026 90.846-49.457 130.963-77.254-50.814-35.776-81.464-99.351-38.976-182.458l11.354 5.306 53.535-4.167 8.419-13.547 19.597-1.185s18.326-19.204 20.782-33.276c0 0-18.544-12.146-9.25-32.006M943.2 115.67S777.138 51.92 499.997 51.92s-443.18 63.75-443.18 63.75c-2.631 99.965 3.156 188.005 16.967 266.136 123.072-41.214 152.403 57.524 252.369 61.207l111.321 1.051c18.546-18.808 45.248-28.586 45.248-28.586l95.273.701c19.82 9.909 39.9 25.167 39.9 25.167s30.165.395 65.636-2.499c68.966-5.568 96.236-78.394 242.393-55.55 14.03-78.526 19.905-167.048 17.274-267.627"/><path fill="#fff" d="m122.19 322.046 30.779-5.963v-83.787l27.008-5.173V197.44L152.97 202.7v-38.013l27.008-5.612V128.56L122.19 141.8zM237.106 117.95c-32.62 5.305-34.856 10.654-35.12 42.178v114.873c.264 29.55 2.412 32.84 35.12 29.595 33.059-4.034 37.794-7.498 38.058-36.917v-36.128l-30.779 2.85v35.032c0 4.866-3.07 6.4-5.743 6.883-2.5.087-5.832-.307-5.832-6.05V156.62c0-4.56 2.543-6.797 5.392-7.147 3.245-.482 6.183 1.447 6.183 5.92v22.447l30.779-3.2v-23.237c-.264-32.972-4.911-37.707-38.058-33.454M403.1 102.473l-42.177 3.07v187.784l43.143-2.499c26.832-1.534 31.13-5.349 31.568-31.568V141.494c-.527-35.952-5.7-40.073-32.533-39.021m1.754 155.21c-.088 4.208-.57 5.743-4.692 6.005l-8.46.746V137.592l8.46-.745c2.894-.044 4.56 1.36 4.692 8.067zM475.093 100.368l-18.458 189.32 28.455-.35 2.368-32.971 16.836-.22 2.63 32.577 28.455.263-18.63-189.233zm13.9 127.237 7.014-74.36 6.752 74.185zM589.046 102.122l-30.821-1.316v188.751l52.128 1.71v-27.271l-21.307-.658zM663.803 267.153V107.559l-30.825-2.63v187.785l51.519 4.077-.046-27.666zM723.343 114.53l-18.46 183.796L733.34 301l2.321-33.672 16.661 1.49 2.326 34.33 28.453 3.157-18.633-186.47zm13.896 123.992 6.798-71.642 6.707 72.826zM877.785 192.485v-18.151c-.265-30.033-5.437-37.18-38.233-43.625-32.95-5.525-34.833-1.184-35.142 30.471v25.386c.263 15.784 3.202 24.64 13.307 33.585l22.274 17.845c4.296 3.77 6.927 8.024 7.015 13.723v29.42c0 4.428-3.596 5.042-6.227 4.866-2.543-.526-5.611-2.718-5.611-6.839l.086-26.307-30.844-3.727v26.745c.309 29.552 3.728 33.98 36.37 38.978 33.146 4.297 36.74 2.719 37.005-27.534v-37.575c-.265-12.145-4.035-22.23-13.505-30.471l-23.413-18.897c-3.858-3.508-5.525-6.577-5.613-12.935v-21.22c0-4.428 2.982-5.525 5.525-5.262 2.631.614 6.227 4.21 6.227 8.9v18.108zM554.934 772.877H506.4l-2.5-41.828-29.069 41.828h-48.316l31.788 27.797-24.817 43.319 46.345-26.834 31.48 26.395-3.114-43.23z"/><path fill="#e81f3e" d="m712.95 495.845-50.071 11.223c-8.681 5.966-23.63 18.81-15.212 29.421l48.756 51.519c-9.295 19.86 9.25 32.006 9.25 32.006-2.457 14.072-20.783 33.276-20.783 33.276l-19.597 1.185-8.419 13.547-53.535 4.167-11.354-5.306c-42.488 83.107-11.838 146.682 38.976 182.458 154.508-107.068 256.03-247.874 294.964-466.044-142.604 7.98-143.789 96.018-212.975 112.548M306.82 509.042C190.85 494.398 185.676 383.603 73.784 381.806c20.169 114.126 57.437 207.12 110.402 285.209 62.302-75.939 129.164-126.142 169.721-152.666-17.012-1.754-33.498-3.553-47.089-5.307M607.197 456.736c-10.26-15.74-35.338-17.933-31.13-30.033-11.487 5.787-9.909 16.003-2.717 22.447 8.901 8.024-6.753 14.6-9.952 5.218-3.946 4.56-3.946 12.058 4.69 19.467 8.593 7.454 27.447 7.585 34.683 28.368-1.099-14.338 17.45-25.43 4.426-45.467"/><path fill="#2a4076" d="M703.875 464.277c-26.481 2.587-62.52 4.34-62.52 4.34 6.312 7.542 8.68 16.135 8.68 16.135s-28.72 22.537-2.368 51.737c-8.418-10.61 6.53-23.455 15.212-29.42l50.07-11.224c69.187-16.53 70.372-104.569 212.976-112.548-152.031-7.104-157.644 74.623-222.05 80.98M467.158 455.464c6.357 18.634-5.13 24.729-5.13 24.729l-137.934-7.279C198.04 461.296 201.987 362.295 73.785 381.806c111.892 1.797 117.066 112.592 233.034 127.236 13.591 1.754 30.077 3.553 47.09 5.307 10.345 1.051 20.912 2.104 31.129 3.111-25.781 19.379-34.944 46.872-34.944 46.872 80.497-15.522 110.093-39.197 119.3-49.018 27.096-26.397 4.56-57.745-2.236-59.85M533.935 491.636s-17.012 9.47-27.448 29.594c0 0 50.202-4.295 87.82 16.093-16.924-31.833-33.277-38.453-60.372-45.687M775.187 802.34h8.856v26.833h3.244v-26.832h9.384v-3.245h-21.484zM821.553 799.096l-7.738 24.464-7.717-24.464h-5.174v30.077h3.245v-25.517l8.067 25.517h3.178l8.068-25.517v25.517h3.244v-30.077z"/><path fill="#cccbcc" d="M471.94 343.31h-25.912c-14.074 0-21.22 1.228-21.22 10.83v3.42c0 7.015 3.113 10.873 20.65 10.873h16.968c7.147 0 10.566-1.008 13.548-2.981v4.647c0 3.07-2.63 4.692-8.9 4.692H424.37v8.417h42.792c19.468 0 26-3.463 26-15.3V356.99c0-10.129-7.015-13.68-21.221-13.68m-5.305 17.056h-15.872c-7.322 0-9.207-1.009-9.207-4.297 0-3.333 1.973-4.34 8.9-4.34h16.574c6.971 0 8.944 1.007 8.944 4.34 0 3.288-1.885 4.297-9.339 4.297M554.983 358.086h-16.97c-7.143 0-10.564 1.008-13.544 2.938v-4.605c0-3.068 2.63-4.69 8.856-4.69h40.73v-8.42h-40.819c-19.424 0-26.001 3.465-26.001 15.303v10.873c0 10.172 7.103 13.723 21.267 13.723h25.867c14.118 0 21.264-1.271 21.264-10.873v-3.376c0-7.059-3.11-10.873-20.65-10.873m-5.043 16.705h-16.527c-6.974 0-8.944-1.053-8.944-4.385 0-3.288 1.929-4.253 9.249-4.253h15.917c7.365 0 9.249.965 9.249 4.253 0 3.332-1.972 4.385-8.944 4.385"/></svg>