<svg xmlns="http://www.w3.org/2000/svg" width="1000" height="1000" viewBox="0 0 1000 1000"><path fill="#101820" d="M498.035 25.523c-.332.285-86.64 53.39-191.805 117.942-105.165 64.553-191.71 117.895-192.327 118.512l-1.045 1.093c-.048 463.933 0 474.05.665 474.668.38.38 87.305 53.912 193.182 118.94C412.583 921.753 499.603 975 500.078 975c.522 0 83.457-50.682 193.277-118.085 105.83-64.98 192.708-118.512 193.088-118.94.665-.808.712-10.593.712-237.975 0-227.383-.047-237.168-.712-237.975-.38-.475-70.633-43.795-156.133-96.33A521381 521381 0 0 0 538.03 47.658C508.96 29.798 500.885 25 499.888 25c-.713 0-1.52.238-1.853.523"/><path fill="#ff6b00" d="M316.87 162.18 133.948 274.518v450.87c282.625 173.66 365.037 224.247 365.465 224.485.665.332 26.742-15.58 183.967-112.195l183.208-112.575-.19-450.538C582.87 100.383 500.41 49.843 500.173 49.795c-.19 0-82.698 50.587-183.303 112.385"/><path fill="#101820" d="M323.9 174.815 147.723 283.068v433.865C420.42 884.465 499.745 933.153 499.983 933.2c.19.095 79.61-48.545 176.51-108.062l176.13-108.205V283.02C586.433 119.573 507.06 70.885 504.59 69.365l-4.56-2.755Z"/><path fill="#ff6b00" d="M386.743 209.11c-2.565 2.47-4.608 4.702-4.56 4.94.047.19 3.942 4.227 8.645 8.882l8.55 8.55-.048 126.398-25.365 25.365 25.413 25.033-.048 37.43h13.538v-43.225l-19.333-19.38 19.333-19.38V225.26c-16.055-16.055-20.9-20.71-21.09-20.71-.238 0-2.47 2.042-5.035 4.56m48.402 5.795-10.45 10.355.19 151.81h182.733v-56.62h-13.585l-.19 42.845-155.04.237v-132.43l16.862-16.815c-7.22-7.6-9.452-9.785-9.69-9.785-.19 0-5.082 4.703-10.83 10.403m146.538-5.51-4.845 4.845 17.195 16.672v26.363h13.585V225.26c-16.055-16.055-20.805-20.71-20.948-20.71-.095 0-2.375 2.185-4.987 4.845m48.355 5.51-10.26 10.355-.19 32.015h13.965v-26.172c12.872-12.92 16.625-16.863 16.625-17.053 0-.238-2.043-2.47-4.56-4.988-2.47-2.47-4.703-4.512-4.893-4.512s-4.987 4.655-10.687 10.355m-350.123 32.3-4.655 4.607c5.985 6.175 12.873 13.158 19.143 19.523l11.447 11.543h81.463v-13.585h-75.668c-20.71-20.758-26.79-26.743-26.932-26.743-.095 0-2.28 2.09-4.798 4.655m170.525 28.88v6.792h222.775l46.265 46.313v107.208l-46.075 46.55h-28.262v13.965h33.487l54.768-54.863V323.775l-54.388-54.482H450.44Zm-144.4 107.018v88.207l13.728-.19.19-176.225H306.04zm25.935 0v88.207h250.088v-13.965h-236.55V308.86l41.61-.238.19-13.727h-55.338Zm118.56-81.32.095 6.84 212.135.237 31.16 31.207v85.69l-31.54 31.588h-17.242v13.965H667.8l40.09-40.138v-96.947l-39.33-39.33H450.393Zm169.053 40.09v21.422l19.76 19.807-19.76 19.76v137.655l21.137 21.138 9.643-9.69-17.195-17.243V408.468c19.807-19.38 25.555-25.175 25.555-25.365 0-.238-5.7-6.08-12.588-13.015L633.553 357.5v-37.05h-13.965zm-194.703 75.524v28.31l13.728-.19.19-42.845h155.23v132.05l-17.195 17.243 9.88 9.88 20.9-20.948v-151.81H424.885Zm-134.092 80.798c-8.503 8.36-15.39 15.39-15.295 15.628s2.185 2.565 4.702 5.225l4.513 4.797 27.312-26.932h270.038v-13.965l-275.833.047zm108.537 23.608v12.92c-16.007 16.055-17.147 17.337-16.815 17.907.238.38 2.47 2.613 4.988 4.94l4.512 4.275 20.853-20.947V508.93H399.33zm25.555 3.087-.047 16.008 20.995 20.947 9.595-9.69c-3.515-3.895-7.268-7.742-10.593-11.067l-6.032-5.985V508.93h-13.918z"/><path fill="#fff" d="M206.148 642.12v47.12h16.672v-41.135h34.058v41.135h16.625V595H256.83l-.142 37.43-33.868.19V595h-16.672zm97.565-39.283-7.933 7.885.19 62.795 15.675 15.723h37.953l16.055-16.103v-62.034L349.598 595h-37.953zm83.98 31.445v39.235l15.722 15.723H439.8l15.675-15.723V595H439.99l-.047 71.535-7.125 7.22-21.28-.047-7.173-7.173V595H387.74zm96.235-31.255-8.123 8.075.19 22.848 15.675 15.722h28.643l7.172 7.173v9.69l-7.172 7.173h-23.228l-12.017-11.59-11.685 11.78 15.58 15.294 39.472.048 15.675-15.723v-23.655l-15.675-15.675h-28.262l-7.553-7.6v-8.502l7.315-7.173h19.998l10.687 10.26 11.543-11.637L527.675 595H492.05zm69.682-7.552c-.095.285-.095 3.847-.095 7.885l.095 7.362 26.125.19v78.328h17.053v-78.328h26.315V595c-62.51 0-69.35.095-69.493.475m88.825 7.362-7.932 7.885.19 62.795 15.675 15.723h37.952l15.675-15.723v-62.795L688.32 595h-37.952zm84.408 39.283v47.12h15.865c.047-56.383.142-62.89.475-62.415.285.38 7.647 14.535 16.387 31.54l15.865 30.875h18.763V595h-15.865c-.048 59.897-.095 63.318-.618 62.605-.332-.427-7.552-14.677-16.055-31.682L746.175 595h-19.332z"/><path fill="#101820" d="m315.92 614.285-3.467 3.42.142 48.83 7.173 7.173h21.707l7.125-7.173v-48.83l-6.745-6.793h-22.467zm338.723 0-3.468 3.42.19 48.83 7.125 7.173h21.708l7.125-7.173.047-48.83-6.792-6.793H658.11z"/><path fill="#fff" d="m562.113 715.887-3.848 3.8.19 32.918 7.553 7.552 23.607.048 7.553-7.6V719.26l-7.173-7.173H565.96zm108.775 0-3.848 3.8.19 32.918 7.553 7.552 23.987.048 6.983-6.983c-6.318-6.317-8.265-8.17-8.455-8.17-.143 0-1.568 1.235-3.183 2.708l-2.897 2.707-8.693.048-2.517-2.565-.048-23.655c2.138-2.09 2.28-2.09 6.603-2.09h4.465l5.035 4.94 9.12-7.885-7.173-7.172h-23.275zM295.97 736.123v23.655h31.54l7.553-7.552v-32.158l-7.553-7.6h-31.54zm46.835-23.465c0 .143 3.135 7.22 6.983 15.818l6.935 15.627v15.675h14.345v-15.485c10.782-23.892 13.917-31.065 13.917-31.302 0-.38-1.377-.523-5.7-.523h-5.7c-5.557 13.68-7.362 18.668-7.647 19.903s-.618 2.232-.76 2.232c-.19 0-.285-.142-.285-.285-.048-.19-.285-1.425-.57-2.85-.333-1.377-2.043-6.175-3.8-10.64l-3.23-8.122c-11.21-.19-14.488-.143-14.488-.048m50.35 23.465v23.655h11.21c0-22.8.143-29.45.285-29.45.143 0 .523 1.188.808 2.613s2.422 8.027 4.75 14.63c2.327 6.602 4.227 12.065 4.227 12.112s3.848.095 8.503.095h8.502v-47.31h-11.21c0 23.133-.142 29.498-.332 29.308-.143-.238-.523-1.425-.808-2.708-.237-1.282-2.232-7.315-4.37-13.395a2103 2103 0 0 1-4.227-12.112l-.333-1.093h-17.005zm54.958-.665a6849 6849 0 0 0-6.46 23.655c-.095.618.38.665 5.985.665l6.08.048 2.137-8.93h11.59c.523 1.947.998 3.943 1.425 5.7l.713 3.23c13.632-.047 14.107-.095 13.965-.712-.095-.38-3.23-10.925-6.983-23.465-3.705-12.54-6.792-22.848-6.792-22.943 0-.142-3.42-.238-7.648-.238h-7.695zm46.075.665v23.655h10.83c0-22.99.142-27.882.38-27.882.237 0 .475.38.57.855s.38 1.852.57 2.992c.237 1.188 1.995 7.03 3.895 13.015l3.42 10.83h9.88c5.272-17.432 7.03-23.75 7.315-25.27.285-1.567.617-2.85.76-2.85.19 0 .285 6.413.285 14.155v14.155h12.777v-47.31c-13.205 0-17.005.095-17.005.238 0 .095-1.235 4.56-2.707 9.975-1.473 5.367-2.993 11.162-3.42 12.872s-.998 4.133-1.188 5.32c-.237 1.235-.57 2.233-.712 2.233-.19 0-.523-1.045-.808-2.423-.285-1.33-1.9-7.457-3.562-13.632-1.663-6.223-3.23-12.018-3.468-12.92l-.38-1.663h-17.432zm131.242 0v23.655h12.778v-16.245h16.625v-9.737l-16.435-.19-.19-10.64h18.952v-10.498h-31.73z"/><path fill="#101820" d="M309.128 736.123v13.965c10.64.047 10.64.047 11.685-1.045l1.092-1.093v-23.655c-2.137-2.137-2.137-2.137-7.457-2.137l-5.32.047zm263.055-12.873-1.14 1.093.19 24.035c2.09 2.09 2.232 2.137 6.555 2.137 4.37 0 4.465-.047 5.51-1.092l1.045-1.045c.047-24.463.047-24.463-.808-25.318-.855-.807-1.282-.855-5.557-.855-4.608 0-4.703 0-5.795 1.045m-110.533.95c0 .095-.285 1.615-.617 3.42-.333 1.805-1.188 5.51-1.948 8.218-.712 2.755-1.282 5.035-1.282 5.13 0 .142 1.805.237 4.037.237s4.085-.095 4.085-.238c0-.095-.617-2.565-1.33-5.51-.712-2.945-1.52-6.697-1.757-8.312-.19-1.662-.57-3.04-.808-3.04-.19 0-.38.048-.38.095"/><path fill="#ff6b00" d="M504.163 815.495c-15.248 16.625-27.645 30.305-27.55 30.495.095.142 7.647.285 16.767.285 9.358 0 16.625.142 16.578.332s-5.13 10.545-11.21 23.085c-6.128 12.493-11.068 22.8-10.973 22.895.143.143 12.588-13.347 27.693-29.925 15.152-16.577 27.502-30.305 27.502-30.447 0-.143-7.505-.285-16.672-.285s-16.625-.142-16.625-.285c0-.19 5.035-10.545 11.21-23.085s11.162-22.895 11.115-22.99c-.095-.143-12.588 13.347-27.835 29.925"/></svg>