<svg height="1000" viewBox="0 0 1000 1000" width="1000" xmlns="http://www.w3.org/2000/svg"><g transform="matrix(4.75 0 0 4.75 112.85796 25)"><path d="M 81.09 .11 C 81.02 .17 62.85 11.35 40.71 24.94 C 18.57 38.53 .35 49.76 .22 49.89 L 0 50.12 c -.01 97.67 0 99.8 .14 99.93 c .08 .08 18.38 11.35 40.67 25.04 c 22.29 13.7 40.61 24.91 40.71 24.91 c .11 0 17.57 -10.67 40.69 -24.86 c 22.28 -13.68 40.57 -24.95 40.65 -25.04 c .14 -.17 .15 -2.23 .15 -50.1 c 0 -47.87 -.01 -49.93 -.15 -50.1 C 162.78 49.8 147.99 40.68 129.99 29.62 C 112 18.57 93.78 7.39 89.51 4.77 C 83.39 1.01 81.69 0 81.48 0 C 81.33 0 81.16 .05 81.09 .11 Z" fill="#101820"/><path d="M 42.95 28.88 L 4.44 52.53 v 94.92 c 59.5 36.56 76.85 47.21 76.94 47.26 c .14 .07 5.63 -3.28 38.73 -23.62 l 38.57 -23.7 l -.04 -94.85 C 98.95 15.87 81.59 5.23 81.54 5.22 C 81.5 5.22 64.13 15.87 42.95 28.88 Z" fill="#ff6b00"/><path d="M 44.43 31.54 L 7.34 54.33 v 91.34 c 57.41 35.27 74.11 45.52 74.16 45.53 c .04 .02 16.76 -10.22 37.16 -22.75 l 37.08 -22.78 V 54.32 C 99.7 19.91 82.99 9.66 82.47 9.34 L 81.51 8.76 Z" fill="#101820"/><path d="m 57.66 38.76 c -.54 .52 -.97 .99 -.96 1.04 c .01 .04 .83 .89 1.82 1.87 l 1.8 1.8 l -.01 26.61 l -5.34 5.34 l 5.35 5.27 l -.01 7.88 h 2.85 v -9.1 l -4.07 -4.08 l 4.07 -4.08 V 42.16 c -3.38 -3.38 -4.4 -4.36 -4.44 -4.36 c -.05 0 -.52 .43 -1.06 .96 z m 10.19 1.22 l -2.2 2.18 l .04 31.96 h 38.47 V 62.2 h -2.86 l -.04 9.02 l -32.64 .05 V 43.39 l 3.55 -3.54 c -1.52 -1.6 -1.99 -2.06 -2.04 -2.06 c -.04 0 -1.07 .99 -2.28 2.19 z m 30.85 -1.16 l -1.02 1.02 l 3.62 3.51 v 5.55 h 2.86 v -6.74 c -3.38 -3.38 -4.38 -4.36 -4.41 -4.36 c -.02 0 -.5 .46 -1.05 1.02 z m 10.18 1.16 l -2.16 2.18 l -.04 6.74 h 2.94 v -5.51 c 2.71 -2.72 3.5 -3.55 3.5 -3.59 c 0 -.05 -.43 -.52 -.96 -1.05 c -.52 -.52 -.99 -.95 -1.03 -.95 c -.04 0 -1.05 .98 -2.25 2.18 z m -73.71 6.8 l -.98 .97 c 1.26 1.3 2.71 2.77 4.03 4.11 l 2.41 2.43 H 57.78 V 51.43 H 41.85 c -4.36 -4.37 -5.64 -5.63 -5.67 -5.63 c -.02 0 -.48 .44 -1.01 .98 z m 35.9 6.08 v 1.43 h 46.9 l 9.74 9.75 v 22.57 l -9.7 9.8 h -5.95 v 2.94 h 7.05 L 130.64 87.8 V 62.9 L 119.19 51.43 H 71.07 Z m -30.4 22.53 v 18.57 l 2.89 -.04 l .04 -37.1 h -2.93 z m 5.46 0 V 93.96 H 98.78 V 91.02 H 48.98 V 59.76 l 8.76 -.05 l .04 -2.89 H 46.13 Z m 24.96 -17.12 l .02 1.44 l 44.66 .05 l 6.56 6.57 v 18.04 l -6.64 6.65 h -3.63 v 2.94 h 4.77 l 8.44 -8.45 V 65.1 l -8.28 -8.28 H 71.06 Z m 35.59 8.44 v 4.51 l 4.16 4.17 l -4.16 4.16 v 28.98 l 4.45 4.45 l 2.03 -2.04 l -3.62 -3.63 V 80.73 c 4.17 -4.08 5.38 -5.3 5.38 -5.34 c 0 -.05 -1.2 -1.28 -2.65 -2.74 L 109.62 70 v -7.8 h -2.94 z m -40.99 15.9 v 5.96 l 2.89 -.04 l .04 -9.02 h 32.68 v 27.8 l -3.62 3.63 l 2.08 2.08 l 4.4 -4.41 V 76.65 H 65.69 Z M 37.46 99.62 c -1.79 1.76 -3.24 3.24 -3.22 3.29 c .02 .05 .46 .54 .99 1.1 l .95 1.01 l 5.75 -5.67 h 56.85 v -2.94 l -58.07 .01 z m 22.85 4.97 v 2.72 c -3.37 3.38 -3.61 3.65 -3.54 3.77 c .05 .08 .52 .55 1.05 1.04 l .95 .9 l 4.39 -4.41 v -6.73 h -2.85 z m 5.38 .65 l -.01 3.37 l 4.42 4.41 l 2.02 -2.04 c -.74 -.82 -1.53 -1.63 -2.23 -2.33 l -1.27 -1.26 v -5.51 h -2.93 z" fill="#ff6b00"/><path d="m 19.64 129.92 v 9.92 h 3.51 v -8.66 h 7.17 v 8.66 h 3.5 V 120 h -3.51 l -.03 7.88 l -7.13 .04 V 120 h -3.51 z m 20.54 -8.27 l -1.67 1.66 l .04 13.22 l 3.3 3.31 h 7.99 l 3.38 -3.39 V 123.39 L 49.84 120 h -7.99 z m 17.68 6.62 v 8.26 l 3.31 3.31 h 7.66 l 3.3 -3.31 V 120 h -3.26 l -.01 15.06 l -1.5 1.52 l -4.48 -.01 l -1.51 -1.51 V 120 h -3.5 z m 20.26 -6.58 l -1.71 1.7 l .04 4.81 l 3.3 3.31 h 6.03 l 1.51 1.51 v 2.04 l -1.51 1.51 h -4.89 l -2.53 -2.44 l -2.46 2.48 l 3.28 3.22 l 8.31 .01 l 3.3 -3.31 v -4.98 l -3.3 -3.3 h -5.95 l -1.59 -1.6 v -1.79 l 1.54 -1.51 h 4.21 l 2.25 2.16 l 2.43 -2.45 l -3.05 -3.06 h -7.5 z m 14.67 -1.59 c -.02 .06 -.02 .81 -.02 1.66 l .02 1.55 l 5.5 .04 v 16.49 h 3.59 v -16.49 h 5.54 V 120 c -13.16 0 -14.6 .02 -14.63 .1 z m 18.7 1.55 l -1.67 1.66 l .04 13.22 l 3.3 3.31 h 7.99 l 3.3 -3.31 v -13.22 l -3.3 -3.31 h -7.99 z m 17.77 8.27 v 9.92 h 3.34 c .01 -11.87 .03 -13.24 .1 -13.14 c .06 .08 1.61 3.06 3.45 6.64 l 3.34 6.5 h 3.95 V 120 h -3.34 c -.01 12.61 -.02 13.33 -.13 13.18 c -.07 -.09 -1.59 -3.09 -3.38 -6.67 L 133.33 120 h -4.07 z" fill="#fff"/><path d="m 42.75 124.06 l -.73 .72 l .03 10.28 l 1.51 1.51 h 4.57 l 1.5 -1.51 v -10.28 l -1.42 -1.43 h -4.73 z m 71.31 0 l -.73 .72 l .04 10.28 l 1.5 1.51 h 4.57 l 1.5 -1.51 l .01 -10.28 l -1.43 -1.43 h -4.73 z" fill="#101820"/><path d="m 94.58 145.45 l -.81 .8 l .04 6.93 l 1.59 1.59 l 4.97 .01 l 1.59 -1.6 v -7.02 l -1.51 -1.51 h -5.06 z m 22.9 0 l -.81 .8 l .04 6.93 l 1.59 1.59 l 5.05 .01 l 1.47 -1.47 c -1.33 -1.33 -1.74 -1.72 -1.78 -1.72 c -.03 0 -.33 .26 -.67 .57 l -.61 .57 l -1.83 .01 l -.53 -.54 l -.01 -4.98 c .45 -.44 .48 -.44 1.39 -.44 h .94 l 1.06 1.04 l 1.92 -1.66 l -1.51 -1.51 h -4.9 z m -78.93 4.26 v 4.98 h 6.64 l 1.59 -1.59 v -6.77 l -1.59 -1.6 h -6.64 z m 9.86 -4.94 c 0 .03 .66 1.52 1.47 3.33 l 1.46 3.29 v 3.3 h 3.02 v -3.26 c 2.27 -5.03 2.93 -6.54 2.93 -6.59 c 0 -.08 -.29 -.11 -1.2 -.11 h -1.2 c -1.17 2.88 -1.55 3.93 -1.61 4.19 c -.06 .26 -.13 .47 -.16 .47 c -.04 0 -.06 -.03 -.06 -.06 c -.01 -.04 -.06 -.3 -.12 -.6 c -.07 -.29 -.43 -1.3 -.8 -2.24 l -.68 -1.71 c -2.36 -.04 -3.05 -.03 -3.05 -.01 z m 10.6 4.94 v 4.98 h 2.36 c 0 -4.8 .03 -6.2 .06 -6.2 c .03 0 .11 .25 .17 .55 c .06 .3 .51 1.69 1 3.08 c .49 1.39 .89 2.54 .89 2.55 c 0 .01 .81 .02 1.79 .02 h 1.79 v -9.96 h -2.36 c 0 4.87 -.03 6.21 -.07 6.17 c -.03 -.05 -.11 -.3 -.17 -.57 c -.05 -.27 -.47 -1.54 -.92 -2.82 c -.45 -1.28 -.85 -2.43 -.89 -2.55 l -.07 -.23 h -3.58 z m 11.57 -.14 c -.73 2.66 -1.34 4.9 -1.36 4.98 c -.02 .13 .08 .14 1.26 .14 l 1.28 .01 l .45 -1.88 h 2.44 c .11 .41 .21 .83 .3 1.2 l .15 .68 c 2.87 -.01 2.97 -.02 2.94 -.15 c -.02 -.08 -.68 -2.3 -1.47 -4.94 c -.78 -2.64 -1.43 -4.81 -1.43 -4.83 c 0 -.03 -.72 -.05 -1.61 -.05 h -1.62 z m 9.7 .14 v 4.98 h 2.28 c 0 -4.84 .03 -5.87 .08 -5.87 c .05 0 .1 .08 .12 .18 c .02 .1 .08 .39 .12 .63 c .05 .25 .42 1.48 .82 2.74 l .72 2.28 h 2.08 c 1.11 -3.67 1.48 -5 1.54 -5.32 c .06 -.33 .13 -.6 .16 -.6 c .04 0 .06 1.35 .06 2.98 v 2.98 h 2.69 v -9.96 c -2.78 0 -3.58 .02 -3.58 .05 c 0 .02 -.26 .96 -.57 2.1 c -.31 1.13 -.63 2.35 -.72 2.71 c -.09 .36 -.21 .87 -.25 1.12 c -.05 .26 -.12 .47 -.15 .47 c -.04 0 -.11 -.22 -.17 -.51 c -.06 -.28 -.4 -1.57 -.75 -2.87 c -.35 -1.31 -.68 -2.53 -.73 -2.72 l -.08 -.35 h -3.67 z m 27.63 0 v 4.98 h 2.69 v -3.42 h 3.5 v -2.05 l -3.46 -.04 l -.04 -2.24 h 3.99 v -2.21 h -6.68 z" fill="#fff"/><path d="m 41.32 149.71 v 2.94 c 2.24 .01 2.24 .01 2.46 -.22 l .23 -.23 v -4.98 c -.45 -.45 -.45 -.45 -1.57 -.45 l -1.12 .01 z M 96.7 147 l -.24 .23 l .04 5.06 c .44 .44 .47 .45 1.38 .45 c .92 0 .94 -.01 1.16 -.23 l .22 -.22 c .01 -5.15 .01 -5.15 -.17 -5.33 c -.18 -.17 -.27 -.18 -1.17 -.18 c -.97 0 -.99 0 -1.22 .22 z m -23.27 .2 c 0 .02 -.06 .34 -.13 .72 c -.07 .38 -.25 1.16 -.41 1.73 c -.15 .58 -.27 1.06 -.27 1.08 c 0 .03 .38 .05 .85 .05 c .47 0 .86 -.02 .86 -.05 c 0 -.02 -.13 -.54 -.28 -1.16 c -.15 -.62 -.32 -1.41 -.37 -1.75 c -.04 -.35 -.12 -.64 -.17 -.64 c -.04 0 -.08 .01 -.08 .02 z" fill="#101820"/><path d="m 82.38 166.42 c -3.21 3.5 -5.82 6.38 -5.8 6.42 c .02 .03 1.61 .06 3.53 .06 c 1.97 0 3.5 .03 3.49 .07 c -.01 .04 -1.08 2.22 -2.36 4.86 c -1.29 2.63 -2.33 4.8 -2.31 4.82 c .03 .03 2.65 -2.81 5.83 -6.3 c 3.19 -3.49 5.79 -6.38 5.79 -6.41 c 0 -.03 -1.58 -.06 -3.51 -.06 c -1.93 0 -3.5 -.03 -3.5 -.06 c 0 -.04 1.06 -2.22 2.36 -4.86 c 1.3 -2.64 2.35 -4.82 2.34 -4.84 c -.02 -.03 -2.65 2.81 -5.86 6.3 z" fill="#ff6b00"/></g></svg>