<svg enable-background="new 0 0 133.8 175" height="1000" viewBox="0 0 999.99996 999.99999" width="1000" xmlns="http://www.w3.org/2000/svg"><g transform="matrix(2.6703771 0 0 2.6703771 131.48783 19.659243)"><path d="M 138.00005 357.755 C 98.358782 357.755 60.953686 336.00312 35.542615 297.98816 C 13.994026 265.66528 2 223.78783 2 179.8775 C 2 135.96717 13.994026 94.089722 35.542615 61.766839 C 60.953686 23.751877 98.358782 2 138.00005 2 c 39.64128 0 77.04637 21.751877 102.45744 59.766839 c 21.54858 32.322883 33.54261 74.200331 33.54261 118.110661 c 0 43.91033 -11.99403 85.78778 -33.54261 118.11066 c -25.41107 38.01496 -62.81616 59.76684 -102.45744 59.76684" fill="#06134e" stroke-width="2.03289"/><path d="M 138.00005 352.26621 C 65.019457 352.26621 7.6920799 276.43957 7.4887915 179.8775 C 7.4887915 83.315428 64.816168 7.69208 138.00005 7.4887915 h .20329 c 72.9806 0 130.10468 75.6233485 130.10468 172.3887085 c 0 96.76536 -57.12408 172.38871 -130.30797 172.38871 m .20329 -341.321513 h -.20329 C 66.645766 11.147986 10.944698 85.348314 11.147986 179.8775 c .203289 94.73248 55.904356 168.9328 126.852064 168.9328 c 71.151 0 126.85207 -74.20032 126.85207 -168.9328 c 0 -94.732475 -55.70107 -168.932803 -126.64878 -168.932803" fill="#c2002f" stroke-width="2.03289"/><path d="m 86.364756 181.7071 v 62.00301 l 28.866974 -53.2616 l 22.76832 89.85355 l 22.76832 -89.85355 l 28.86698 53.2616 V 181.7071 Z" fill="#c2002f" stroke-width="2.03289"/><g fill="#ffb600" transform="matrix(2.0328857 0 0 2.0328857 2 2)"><path d="M 41.5 86.5 V 56 L 55.7 82.2 L 66.9 38 L 78.1 82.2 L 92.3 56 v 30.5 z"/><path d="m 39.4 145.1 l -1.8 1.9 l 3.1 2.8 l -1.1 1.2 l -3.1 -2.8 l -3 3.4 l -1.4 -1.2 l 7 -7.7 l 5.1 4.6 l -1.1 1.2 z"/><path d="m 40.1 153.4 h 10.4 v 1.8 H 40.1 Z" transform="matrix(.5251 -.851 .851 .5251 -109.7491 111.8484)"/><path d="m 53.6 159.5 l -1.9 -.7 l -1.3 3.8 l -1.7 -.6 l 3.4 -9.8 l 5.3 1.8 c 1.3 .5 1.7 1.3 1.3 2.7 l -.7 2.1 c -.4 1.2 -1.2 1.7 -2.4 1.4 l .5 4.4 l -1.8 -.6 z m -1.4 -2.2 l 3.8 1.3 l 1 -3 l -3.8 -1.3 z"/><path d="m 69 164.2 v 1.6 l -6.9 -.2 l .3 -10.4 l 6.9 .2 l -.1 1.6 l -5 -.1 l -.1 2.6 l 4.2 .1 l -.1 1.6 l -4.2 -.1 v 3 z"/><path d="m 82.7 153.4 l 1.2 2.3 l 3.7 -1.9 l .7 1.4 l -3.7 1.9 l 2.1 4.1 l -1.5 .8 l -4.9 -9.2 l 6.1 -3.2 l .7 1.4 z"/><path d="m 95.2 153.5 l -4.3 -4.7 c -1 -1 -.9 -2 .1 -2.9 l 2.6 -2.3 c 1 -1 2 -.9 2.9 .1 l .8 .9 l -1.3 1.2 l -1.1 -1.2 l -3 2.7 l 4.9 5.4 l 3 -2.7 l -1.1 -1.2 l 1.3 -1.2 l .8 .9 c 1 1 .9 2 -.1 2.9 l -2.6 2.3 c -1 .9 -2 .9 -2.9 -.2"/><path d="m 34.9 34.2 l -4.6 -4.4 c -1 -1 -1 -1.9 -.1 -2.9 l 2.4 -2.5 c 1 -1 1.9 -1 2.9 -.1 l .9 .8 l -1.2 1.3 l -1.2 -1.2 l -2.8 3 l 5.3 5 l 2.8 -3 l -1.3 -1.1 l 1.2 -1.3 l .9 .8 c 1 1 1 1.9 .1 2.9 L 37.8 34 c -1 1.1 -1.9 1.2 -2.9 .2"/><path d="m 46.2 26.5 l -1.6 1 l -5.5 -8.9 l 1.5 -.9 l 2.3 3.6 l 3.6 -2.3 l -2.3 -3.5 l 1.5 -1 l 5.6 8.8 l -1.6 1 l -2.4 -3.9 l -3.6 2.3 z"/><path d="m 53.4 11.5 h 1.8 v 10.4 h -1.8 z" transform="matrix(.9475 -.3199 .3199 .9475 -2.4822 18.2312)"/><path d="M 60.5 18.1 L 60 11.8 c -.1 -1.4 .5 -2.1 1.9 -2.2 l 3.5 -.3 c 1.4 -.1 2.1 .5 2.2 1.9 l .1 1.2 l -1.8 .1 l -.1 -1.7 l -4.1 .3 l .5 7.3 l 4.1 -.3 l -.1 -1.7 l 1.8 -.1 l .1 1.2 c .1 1.4 -.5 2.1 -1.9 2.2 L 62.7 20 c -1.4 .1 -2.1 -.5 -2.2 -1.9"/><path d="m 81.8 13.9 l -2.2 8.1 l -1.7 -.5 l 1 -3.7 l -3.9 -1.1 l -1 3.7 l -1.8 -.4 l 2.2 -8.1 c .4 -1.4 1.2 -1.8 2.6 -1.5 l 3.4 .9 c 1.3 .4 1.7 1.2 1.4 2.6 m -2.5 2.3 l .9 -3.3 l -3.9 -1.1 l -.9 3.3 z"/><path d="m 84.3 21.9 l 3.5 -5.3 c .8 -1.2 1.7 -1.4 2.9 -.6 l 2.9 1.9 c 1.2 .8 1.4 1.7 .6 2.9 l -.5 .7 l -1.5 -1 l .7 -1.1 l -3.4 -2.2 l -4 6.1 l 3.4 2.2 l 1.4 -2.2 l -1.6 -1 l .9 -1.4 l 3.1 2 l -2 3.1 c -.8 1.2 -1.7 1.4 -2.9 .6 L 84.9 24.7 C 83.7 24 83.5 23.1 84.3 21.9"/><path d="m 94.1 29 l 4.6 -4.3 c 1 -1 2 -.9 2.9 .1 l 2.4 2.5 c 1 1 .9 2 -.1 2.9 l -4.6 4.3 c -1 1 -2 .9 -2.9 -.1 L 94 31.9 C 93 30.9 93.1 30 94.1 29 m 3.6 4.6 l 5.3 -5 l -2.8 -3 l -5.3 5 z"/></g><path d="m 138.00005 307.74601 c -15.04335 0 -36.99852 -5.69208 -57.327374 -32.32288 c -18.49926 -24.59792 -28.663688 -58.34382 -28.663688 -95.54563 c 0 -70.33784 38.42154 -127.665224 85.991062 -127.868512 h .20329 c 28.4604 0 47.9761 20.328857 57.12408 32.526171 c 18.49926 24.597911 28.6637 58.343821 28.6637 95.545631 c 0 36.99852 -10.16444 70.94771 -28.6637 95.54562 c -9.14798 11.79075 -28.86698 32.1196 -57.32737 32.1196 m 0 -252.281116 c -45.536637 0 -82.738444 55.904366 -82.535156 124.412606 c 0 36.38866 9.96114 69.52469 28.053823 93.51274 c 19.312413 25.61436 40.251133 31.10315 54.481333 31.10315 c 27.03738 0 45.73993 -19.5157 54.48134 -31.10315 c 18.09267 -23.98805 28.05382 -57.12408 28.05382 -93.30945 c 0 -36.18537 -9.96115 -69.52469 -27.85053 -93.309457 c -8.9447 -11.790737 -27.64725 -31.306439 -54.68463 -31.306439 z" fill="#c2002f" stroke-width="2.03289"/></g></svg>