<?xml version="1.0" encoding="iso-8859-1"?>
<!-- Generator: Adobe Illustrator 24.0.1, SVG Export Plug-In . SVG Version: 6.00 Build 0)  -->
<svg version="1.1" id="Layer_1" xmlns="http://www.w3.org/2000/svg" xmlns:xlink="http://www.w3.org/1999/xlink" x="0px" y="0px"
	 viewBox="0 0 600 600" style="enable-background:new 0 0 600 600;" xml:space="preserve">
<path style="fill:#ED1B2F;" d="M389.202,552.134V241.116l168.568-86.393c0,0,9.213,69.883,4.607,96.761
	C551.624,458.061,389.202,552.134,389.202,552.134z"/>
<path style="fill:#FFFFFF;stroke:#E0B8C6;stroke-width:0.6911;stroke-linejoin:bevel;" d="M512.966,312.741
	c-2.101,2.209-5.286,5.411-10.354,5.411c-9.423,0-17.849-11.748-17.849-26.064c0-14.422,8.426-26.205,17.716-26.205
	c4.759,0,8.94,3.867,10.165,3.899c1.865,0,1.015-3.398,1.818-3.398c0.361,0,0.54,0.296,0.54,0.812v18.557
	c0,0.592-0.225,0.889-0.404,0.889c-0.72,0-0.181-0.398-1.25-5.205c-1.856-8.728-5.875-12.242-10.584-12.242
	c-4.446,0-10.8,4.479-10.8,22.894c0,18.295,6.353,22.608,10.8,22.608c3.821,0,6.785-1.955,6.785-8.876v-4.125
	c0-6.872-5.779-5.143-6.668-6.66c-0.288-0.495,0.182-0.931,0.889-0.931c2.268,0,7.223,0.143,8.802,0.143
	c0.976,0,3.009-0.143,3.009-0.143s0.016,0.718,0.016,6.56v16.332h-1.318L512.966,312.741z"/>
<g>
	<path style="fill:#FFFFFF;stroke:#E0B8C6;stroke-width:0.6911;stroke-linejoin:bevel;" d="M455.535,263.435l0.085,3.182
		c4.463-1.483,11.724-0.445,11.724-0.445l-0.088-2.743c0,0,2.1-2.009,1.958-4.745c-1.439,1.584-3.023,1.44-3.023,1.44
		s-1.114,2.061-2.002,1.997c-1.746-0.125-1.021-1.277-1.311-2.856c-0.72-0.437-1.784-1.385-1.772-1.351
		c-0.261,0.687-1.657,1.49-1.657,1.49c0.145,1.728-0.027,2.592-1.033,2.735c-1.01,0.145-2.45-1.871-2.45-1.871
		s-1.297,0.432-3.022-1.152C452.8,261.852,455.535,263.435,455.535,263.435z"/>
	<path style="fill:#FFFFFF;stroke:#E0B8C6;stroke-width:0.6911;stroke-linejoin:bevel;" d="M462.304,351.125
		c-0.145-5.76-3.17-4.178-3.888-5.328c0.287-3.169-0.722-5.903-0.143-7.488c1.078-2.969,2.446-5.328,2.304-7.631
		c-0.146-2.303-2.882-5.182-2.737-7.487c0.142-2.304,10.512-14.4,12.67-14.4c0,0,2.424,0.755,3.455,1.44
		c1.3,0.865,1.873,0.147,2.161-0.432c1.438-1.439-0.431-3.6-0.431-3.6s0.863,0.145,1.725,0.865c0.291-2.162-1.436-4.175-1.436-4.175
		s1.728,0.719,3.024,1.869c-0.288-3.886-3.024-5.759-4.319-6.766c-0.088-0.064-1.155-1.008-0.724-1.584
		c1.712-2.281,2.792-1.257,2.594-1.297c0-1.727-1.727-3.023-1.727-3.023s0.433-0.575,1.727-0.432
		c0.287-1.584-2.594-2.591-2.594-2.591s0.696-0.476,1.587-0.288c-2.16-3.6-3.697-3.456-5.473-4.031
		c-1.777-0.576-4.371-1.728-4.371-2.881c0-0.767,5.956-0.864,4.946-4.175c-2.497-0.959-4.764-0.437-4.173-1.775
		c0.033-0.083,0.078-0.123,0.117-0.199c0.243,0.043,0.486,0.079,0.746,0.103c1.582,0.143,7.266,0.89,8.639,0.431
		c2.161-0.719,2.789-3.539,0.287-1.871c-1.294,0.864-3.172,0.944-4.606,0.864c-1.94-0.109-3.219-0.419-4.055-0.763
		c1.314-0.793,2.981,0.195,4.436-0.677c0.768-1.441,0.451-4.996-2.109-5.76c-7.107-2.111-15.103-0.452-17.088,0.575
		c-2.785,1.441-3.36,3.744-3.36,3.744c0.863-1.008,1.584-1.008,1.584-1.008s-1.87,2.449-2.303,5.759
		c1.438-2.016,1.872-1.582,1.872-1.582s-2.16,3.6-2.16,6.911c1.151-1.728,2.015-2.304,2.015-2.304s-2.157,3.601-2.157,7.776
		c0.863-2.161,1.46-3.222,1.436-2.447c-0.143,4.895,2.385,11.874,3.3,13.438c1.137,1.941,2.079,3.974,2.028,5.566
		c-0.14,4.609-4.603,9.086-6.765,14.4c-1.585,3.888-3.507,8.879-4.707,10.416c-1.2,1.534-4.759,4.653-8.687,4.56
		c-6.047-0.145-7.92-8.494-7.92-8.494s7.747-2.046,9.792-4.178c3.312-3.453,2.353-7.164,3.746-8.207
		c0.574-0.431,0.862-2.159,0.432-3.169c-0.045-0.104-0.134-0.19-0.194-0.284l-0.237-0.293c-0.539-0.844-1.405-1.15-2.306-1.15
		c-1.709,0-1.148-2.088-8.693-6.135c1.01-0.364,2.466-1.035,3.799-2.215c1.294-1.153,1.582-3.025,2.591-4.897
		c0.301-0.567,1.64-1.498,1.297-2.305c-0.349-0.805-1.067-1.583-1.875-1.583c-1.194,0-2.422-1.686-6.116-4.077
		c2.566-1.388,6.813-4.133,9.213-8.161c2.016-0.721,3.456-0.877,3.456-3.612c0-2.736-3.024-3.589-5.472-7.919
		c-2.446,4.331-5.471,5.194-5.471,7.93c0,2.736,3.013,2.447,2.88,3.602c-0.282,2.379-7.35,6.109-7.741,6.316l-0.097-0.057
		l-0.006,0.002c-0.982-0.52-7.369-4.002-7.635-6.261c-0.138-1.154,2.879-0.865,2.879-3.602c0-2.736-3.022-3.6-5.473-7.93
		c-2.446,4.331-5.469,5.184-5.469,7.919c0,2.735,1.438,2.891,3.453,3.612c2.395,4.023,6.628,6.765,9.204,8.154
		c-4.168,2.797-4.508,4.084-5.747,4.084c-0.809,0-1.53,0.921-1.872,1.729c-0.346,0.807,0.039,1.372,1.006,2.016
		c1.3,0.864,0.46,3.422,2.882,5.328c1.327,1.046,2.428,1.683,3.361,2.096c-7.194,3.915-6.94,5.956-8.617,5.956
		c-1.007,0-2.304,0.719-2.735,1.728c-0.432,1.01-0.144,2.734,0.432,3.166c1.389,1.046,0.358,4.623,3.672,8.077
		c2.043,2.131,7.775,3.743,7.775,3.743s1.57,4.3,2.593,6.335c0.288,0.575-0.434,4.031,3.167,4.897c-0.576-0.578,0-1.584,0-1.584
		s3.887,2.159,5.902,2.159c2.017,0,8.207-1.728,8.928-2.591c-1.297,9.213,1.01,10.944,0,11.375
		c-1.694,0.728-5.328,0.719-6.047-0.287c-0.718-1.01,0.432-4.609-3.743-4.897c1.007,2.304,0.575,3.313,0.575,3.313
		s-4.895-1.728-7.2,0.862c2.594,1.585,2.882,2.882,2.882,2.882s-2.451-1.297-4.031,2.016c3.024-0.287,4.174,3.744,3.743,5.038
		c-0.433,1.297-6.482,2.019-6.482,10.081c0.863-0.287,1.298-0.553,1.873-0.575c1.728,0.575,2.846-0.901,3.168-0.144
		c0.291,0.674-4.608,8.063,0.866,11.519c0.431-0.722,0.68-1.045,1.294-1.44c2.882-1.872,2.019-6.625,3.168-6.625
		c0.288,2.881,3.745,12.24,9.501,5.328c-0.647-0.251-0.818-0.498-1.294-1.006c-0.144-2.594-2.776-4.212-2.159-4.895
		c0.926-1.034,3.311,0,4.605-1.156c0.623-0.079,1.297,0.471,1.585-0.142c-1.869-5.613-6.19-2.158-8.063-2.879
		c-1.872-0.722-1.872-8.784,1.152-9.216c3.022-0.432,1.729,2.593,7.198,3.024c2.151,0.169,6.48-1.297,6.48-1.297
		s0.432,2.879-3.744,5.616c8.783,2.159,6.901-6.44,7.632-6.338c1.007,0.144,2.879,1.731,1.438,6.05
		c6.625-4.031,1.588-8.783,1.588-8.783S460.863,349.972,462.304,351.125z M465.829,269.879c0.843,0,1.526,0.273,1.526,0.612
		c0,0.337-0.684,0.609-1.526,0.609c-0.844,0-1.527-0.273-1.527-0.609C464.302,270.152,464.985,269.879,465.829,269.879z
		 M422.036,298.618c-1.255-0.941-1.946-2.025-1.989-3.54c-0.039-1.375,1.962-4.188,6.259-6.733c4.292,2.545,6.222,5.187,6.183,6.559
		c-0.044,1.516-0.536,2.205-1.575,3.376c-1.151,1.295-1.582,1.295-4.75,2.016C424.578,299.863,423.422,299.663,422.036,298.618z
		 M426.019,322.04c-1.765-0.006-4.602-0.421-6.913-2.162c-2.09-1.571-3.24-3.376-3.313-5.9c-0.066-2.29,3.181-6.011,10.331-10.253
		c7.161,4.242,10.468,7.673,10.404,9.963c-0.072,2.523-0.791,4.477-2.879,6.047C431.338,321.476,427.776,322.042,426.019,322.04z
		 M455.535,274.233c-0.563,0.064-1.872-0.153-2.016-1.44c-0.145-1.286,0.032-2.937,0.592-3c0.558-0.063,1.136,0.995,1.282,2.281
		C455.535,273.36,456.094,274.171,455.535,274.233z"/>
	<path style="fill:#FFFFFF;stroke:#E0B8C6;stroke-width:0.6911;stroke-linejoin:bevel;" d="M507.516,359.044
		c-2.158-3.311-6.478-2.303-7.486-2.591c1.872-2.307,2.303-5.619,2.591-6.338c0.288-0.718,0.575-0.143,1.007-0.143
		c-4.177-4.175-7.005,3.888-8.063,3.601c-6.059-1.653-1.239-6.122-2.879-11.807c7.734,8.135,8.978-4.352,8.066-5.473
		c-1.732,2.735-3.169,5.185-5.907,3.745c-1.534-0.808-0.771-3.222-0.431-4.463c0.431-1.585,3.313-4.179-0.722-6.194
		c0.722,2.016,0.434,3.025-1.149,2.591c-1.585-0.431-4.345-2.386-13.104-6.332c-10.224-4.608-20.016-2.306-20.016-2.306
		c-0.141,2.306,2.591,5.182,2.737,7.487c0.145,2.307-1.225,4.662-2.304,7.632c0,0,8.883,0.725,14.976-1.15
		c1.869-0.578,6.335-0.432,7.2,1.294c0.177,0.359,1.438,5.185,0.432,6.625c-7.199-8.351-9.072-0.144-7.199,1.007
		c3.887-2.591,3.887,1.44,3.887,1.44s-5.328,4.465,1.872,8.784c-0.866-2.881-1.44-6.05,0.863-6.05
		c1.871,2.594,4.177,4.322,4.896,5.762c-2.019,2.447-2.161,7.488,0.288,9.645c0,0-0.143-0.432,0.431-0.862
		c2.738-0.719,2.019-4.319,3.457-5.038c3.456,1.15,3.168,9.213,9.937,7.629c1.294-0.142,1.87,1.009,1.438,0.29
		c0.576-5.472-3.313-6.05-4.75-8.206c1.868,0.143,5.182,3.313,8.639,0.431C507,359.4,508.236,359.766,507.516,359.044z"/>
	<path style="fill:#FFFFFF;stroke:#E0B8C6;stroke-width:0.6911;stroke-linejoin:bevel;" d="M485.342,305.334
		c-3.023-3.166-6.766-4.749-6.766-4.749c0.719,0.575,1.725,2.593,1.294,5.759c-1.294-1.153-1.87-0.865-1.87-0.865
		s1.007,0.865,0.719,3.024c-0.864-0.72-1.439-0.288-1.439-0.288s1.146,1.158,0.14,2.163c-0.431,0.431-0.574,0.718-1.294,1.149
		c0,0,4.176,4.031,11.089,4.75c1.007,1.875,0.143,5.619,5.181,5.041c-0.431-1.01-0.575-1.441-0.575-1.441s-0.286-1.726,1.73-2.016
		c0.575,2.016,3.31,6.624,6.91,3.313c-0.722,0.287-0.862-0.432-1.44-2.447c-0.575-1.297-2.879-2.594-2.879-2.594
		s7.341,0,6.335-2.013c-1.116-1.789-3.517-1.842-4.546-1.775c0.736-0.144,1.856-0.763,0.227-3.412
		c-1.152-1.869-4.318,0.865-5.762,1.875C488.363,308.934,488.601,308.752,485.342,305.334z"/>
	<path style="fill:#FFFFFF;stroke:#E0B8C6;stroke-width:0.6911;stroke-linejoin:bevel;" d="M477.301,289.28
		c-0.894-0.187-1.176,0.074-1.176,0.074s2.16,1.151,2.16,3.311c-0.866-0.288-1.706-0.072-1.706-0.072s1.564,1.655,1.421,3.096
		c0,0,2.604-1.23,4.031-3.311c1.283-1.886,1.582-4.321,2.447-4.033c1.736,0.579,10.223,3.025,8.064-3.311
		c-0.253-0.735,0,0.143-0.578,0.575c-1.87-0.863-4.031-0.431-4.176-1.296c0.145-2.59,5.473-1.726,4.839-6.19
		c-0.182-1.283,2.008-0.686-0.233-1.296c-3.164-0.865-5.613,3.311-6.044,2.879c1.294-2.016,1.87-2.563,2.88-4.608
		c0.863-0.317,0.142-0.719,0.142-0.719c-3.022-1.441-8.063-0.432-6.335,7.344c0.072,0.719-2.157,1.818-3.743,3.167
		c-1.588,1.351-2.971,2.95-2.971,2.95C476.634,288.239,476.961,288.713,477.301,289.28z"/>
</g>
<g>
	<polygon points="336.886,247.308 336.886,1.373 263.163,1.373 263.163,278.986 	"/>
	<polygon points="484.332,187.983 484.332,0.796 410.609,0.796 410.609,215.631 	"/>
	<rect x="115.717" y="1.95" width="73.723" height="297.194"/>
</g>
<g>
	<polygon style="fill:#FFFFFF;" points="410.609,215.631 410.609,0.796 336.886,0.796 336.886,247.308 	"/>
	<polygon style="fill:#FFFFFF;" points="558.058,152.275 558.058,0.796 484.332,0.796 484.332,187.983 	"/>
	<polygon style="fill:#FFFFFF;" points="263.163,278.986 263.163,1.95 189.44,1.95 189.44,299.144 	"/>
	<polygon style="fill:#FFFFFF;" points="115.717,299.144 115.717,1.95 41.994,1.95 41.994,265.163 51.21,298.568 	"/>
</g>
<polygon style="fill:#FFCB05;" points="300.024,601.522 231.725,561.976 231.852,293.902 389.493,238.669 389.493,552.759 "/>
<path style="fill:#FFFFFF;" d="M70.024,370.756c-5.232-10.288,0.769-62.204,0.769-62.204l160.499-20.734l0.433,274.158
	C231.725,561.976,139.14,506.684,70.024,370.756z"/>
<polygon style="fill:#FFFFFF;stroke:#000000;stroke-width:6.9116;stroke-linejoin:bevel;" points="66.437,372.17 566.12,174.16 
	568.424,93.527 39.691,303.178 "/>
<g>
	<path d="M100.405,332.068c0.088,3.93,1.343,5.334,4.116,4.233c2.413-0.962,4.098-3.138,4.185-5.464
		c0.127-3.345-2.208-4.43-5.581-6.332c-4.594-2.588-7.849-4.54-7.649-9.816c0.22-5.784,5.022-11.884,10.567-14.086
		c5.428-2.157,9.209-0.027,9.456,6.023l-6.422,3.39c-0.112-3.367-1.02-4.512-3.431-3.556c-2.051,0.814-3.55,2.807-3.636,5.077
		c-0.137,3.63,2.605,4.943,6.214,6.862c4.368,2.345,7.088,4.225,6.878,9.782c-0.221,5.9-4.718,11.71-10.566,14.035
		c-6.392,2.538-10.399,0.16-10.435-6.752L100.405,332.068z"/>
	<path d="M121.857,294.457l6.571-2.611l-0.636,16.906c0.408-1.339,0.743-2.361,1.002-2.971l7.051-16.88l6.511-2.589l-7.809,16.571
		l7.144,23.143l-6.813,2.707l-4.788-17.934l-2.583,5.493l-0.588,15.601l-6.573,2.61L121.857,294.457z"/>
	<path d="M169.412,275.786l-0.615,16.339l6.573-2.612l0.614-16.338l6.573-2.61l-1.51,40.05l-6.572,2.61l0.674-17.925l-6.571,2.609
		l-0.675,17.925l-6.512,2.589l1.51-40.051L169.412,275.786z"/>
	<path d="M198.921,269.767l2.352-0.935c3.195-1.27,4.231-0.395,4.072,3.86c-0.168,4.424-1.073,6.405-4.27,7.674l-2.592,1.029
		L198.921,269.767z M198.265,287.182l3.136-1.245l3.405,15.243l6.812-2.706l-4.123-16.691c3.152-3.264,4.354-6.758,4.532-11.522
		c0.312-8.226-2.698-10.328-9.812-7.503l-9.647,3.831l-1.509,40.049l6.572-2.61L198.265,287.182z"/>
	<path d="M225.78,278.71l2.983-17.667l0.422-0.167l1.601,15.849L225.78,278.71z M216.558,296.512l6.452-2.563l1.714-9.23
		l6.632-2.634l0.999,8.152l6.754-2.68l-5.486-37.273l-8.562,3.4L216.558,296.512z"/>
	<path d="M252.9,276.267l1.064-28.252l1.508-0.597c3.616-1.437,5.188-0.608,5.065,2.682l-0.726,19.287
		c-0.102,2.722-1.122,4.58-3.596,5.562L252.9,276.267z M246.166,284.754l9.647-3.832c7.296-2.897,10.442-7.613,10.733-15.271
		l0.671-17.868c0.282-7.432-2.902-9.69-10.196-6.791l-9.348,3.711L246.166,284.754z"/>
	<path d="M276.919,233.089l17.124-6.801l-0.218,5.787l-10.551,4.189l-0.395,10.495l7.595-3.017l-0.218,5.786l-7.597,3.016
		l-0.45,11.97l10.551-4.19l-0.227,6.012l-17.123,6.802L276.919,233.089z"/>
	<path d="M301.455,232.451c0.233-6.239,4.176-11.605,10.689-14.191c5.971-2.371,9.744-0.128,9.502,6.34l-0.144,3.857l-6.753,2.684
		l0.166-4.427c0.105-2.778-0.99-3.686-3.221-2.799c-2.231,0.888-3.429,2.703-3.531,5.481l-0.843,22.353
		c-0.105,2.779,0.987,3.741,3.219,2.855c2.23-0.884,3.431-2.758,3.536-5.537l0.201-5.445l6.755-2.682l-0.157,4.197
		c-0.268,7.09-4.149,12.433-10.542,14.971c-6.634,2.635-9.926,0.198-9.65-7.12L301.455,232.451z"/>
	<path d="M346.431,205.481l6.573-2.61l-0.637,16.905c0.406-1.336,0.743-2.362,1.004-2.968l7.05-16.883l6.51-2.585l-7.808,16.57
		l7.145,23.144l-6.813,2.708l-4.789-17.937l-2.582,5.498l-0.589,15.6l-6.57,2.61L346.431,205.481z"/>
	<path d="M380.755,197.546l2.355-0.933c3.192-1.27,4.232-0.396,4.071,3.86c-0.165,4.424-1.072,6.403-4.269,7.674l-2.594,1.028
		L380.755,197.546z M380.103,214.963l3.135-1.246l3.4,15.244l6.813-2.705l-4.12-16.69c3.152-3.264,4.353-6.76,4.529-11.524
		c0.313-8.226-2.698-10.328-9.81-7.502l-9.65,3.831l-1.51,40.049l6.574-2.608L380.103,214.963z"/>
	<path d="M407.614,206.494l2.98-17.668l0.427-0.169l1.601,15.849L407.614,206.494z M412.641,177.174l5.776-8.329l-7.474,2.966
		l-3.068,7.253L412.641,177.174z M398.394,224.294l6.451-2.562l1.715-9.23l6.629-2.635l1.001,8.153l6.752-2.682l-5.485-37.272
		l-8.56,3.401L398.394,224.294z"/>
	<path d="M429.504,172.485l6.513-2.585l-1.288,34.262l10.187-4.046l-0.217,5.786l-16.7,6.633L429.504,172.485z"/>
	<path d="M464.684,189.249c-0.104,2.78-1.305,4.652-3.534,5.54c-2.23,0.885-3.322-0.078-3.22-2.859l0.84-22.348
		c0.108-2.782,1.303-4.597,3.534-5.484c2.23-0.885,3.325,0.021,3.222,2.802L464.684,189.249z M452.065,172.635l-0.772,20.534
		c-0.279,7.319,3.136,9.706,9.647,7.12c6.392-2.537,10.274-7.879,10.543-14.971l0.77-20.536c0.243-6.465-3.53-8.711-9.499-6.341
		C456.242,161.029,452.299,166.395,452.065,172.635z"/>
	<path d="M485.512,150.241l3.028,22.156c0.28,2.013,0.542,4.591,0.409,8.051l-0.027,0.737c0.272-4.132,0.69-7.256,1.063-9.362
		l4.694-25.222l6.453-2.562l-9.047,43.042l-6.874,2.731l-6.089-37.031L485.512,150.241z"/>
	<path d="M513.74,137.019l3.07-7.252l7.47-2.969l-5.778,8.331L513.74,137.019z M508.357,141.17l17.123-6.803l-0.219,5.786
		l-10.548,4.191l-0.397,10.495l7.598-3.016l-0.217,5.785l-7.597,3.017l-0.451,11.97l10.551-4.189l-0.227,6.011l-17.123,6.802
		L508.357,141.17z"/>
</g>
<path style="fill:none;stroke:#000000;stroke-width:13.8229;" d="M33.932,1.373v210.802c0,285.674,266.092,389.348,266.092,389.348
	S566.12,497.849,566.12,212.174V1.373H33.932z"/>
</svg>
