<svg id="Layer_1" data-name="Layer 1" xmlns="http://www.w3.org/2000/svg" viewBox="0 0 445.36 566"><defs><style>.cls-1{fill:#da2128;}.cls-2{fill:#fff;}.cls-3{fill:#ed1c24;}</style></defs><title>ac_monza_brianza [Converted]</title><path class="cls-1" d="M106.06,156.69l1.29-3.88,3.82-1.46c65.79-25.06,131.28-38,196.33-38s130.55,12.9,196.33,38l3.82,1.46,1.29,3.88c14.49,43.68,21.24,91.58,21.24,140.14,0,64.65-12,130.48-33.95,189.12s-54,110.14-94.67,145.88c-27.1,23.8-58.15,40.57-92.41,47.24l-1.65.32-1.64-.32c-34.27-6.67-65.32-23.44-92.41-47.24s-50.36-54.67-69.38-89.94c-38-70.56-59.22-158.86-59.25-245.06C84.83,248.27,91.58,200.37,106.06,156.69Z" transform="translate(-84.82 -113.39)"/><path class="cls-2" d="M455.77,533.71C492.25,466.11,513,380.19,513,296.83c0-45.5-6.15-90.24-19.09-130.83q-9.54-3.56-19.06-6.76c52.37,191.22-9,403.62-125.64,487.81a201.17,201.17,0,0,0,41-28.17C415.42,596.73,437.55,567.52,455.77,533.71Z" transform="translate(-84.82 -113.39)"/><path class="cls-2" d="M224.82,618.88a200.93,200.93,0,0,0,41,28.16c-116.63-84.2-178-296.59-125.62-487.8q-9.52,3.21-19,6.76c-12.94,40.59-19.1,85.33-19.1,130.83,0,62.52,11.63,126.48,32.86,183.07S187,585.67,224.82,618.88Z" transform="translate(-84.82 -113.39)"/><path class="cls-3" d="M475.06,282.62c-16.89,12-35.9,19.11-54.73,26.62V286.66c20.61-6.86,39-15.87,53.37-26.89A561.19,561.19,0,0,0,455.17,153q-74.43-22.26-147.67-22.37T159.83,153A561.19,561.19,0,0,0,141.3,259.77c14.4,11,32.76,20,53.37,26.89v22.58c-18.83-7.51-37.84-14.58-54.73-26.62-6.16,150.31,42.17,311.46,159.56,377.31,2.65.7,5.31,1.34,8,1.9,2.69-.55,5.35-1.2,8-1.89C432.89,594.09,481.22,432.93,475.06,282.62Z" transform="translate(-84.82 -113.39)"/><path class="cls-2" d="M194.67,286.66c-20.61-6.86-39-15.87-53.37-26.89q-.88,11.37-1.36,22.85c16.89,12,35.9,19.11,54.73,26.62Z" transform="translate(-84.82 -113.39)"/><path class="cls-2" d="M229.82,310.8H209.58c-45.27,138.07,11.54,311.91,97.25,340.14C221.68,588.24,188,427.25,229.82,310.8Z" transform="translate(-84.82 -113.39)"/><path class="cls-2" d="M420.33,286.66v22.58c18.83-7.51,37.84-14.58,54.73-26.62q-.46-11.47-1.36-22.85C459.3,270.79,440.94,279.8,420.33,286.66Z" transform="translate(-84.82 -113.39)"/><path class="cls-2" d="M385.18,310.8c41.79,116.45,8.14,277.44-77,340.14,85.71-28.23,142.52-202.07,97.25-340.14Z" transform="translate(-84.82 -113.39)"/><path class="cls-2" d="M300.85,146.68l7,46.84H295.35l-.6-8.43h-4.37l-.73,8.43H277l6.2-46.84ZM294.4,176.8q-.93-8-1.85-19.65-1.86,13.42-2.31,19.65Z" transform="translate(-84.82 -113.39)"/><path class="cls-2" d="M338.35,167.1H326.17v-8.16a15,15,0,0,0-.39-4.44,1.68,1.68,0,0,0-1.72-.88,1.82,1.82,0,0,0-1.92,1.07,16.81,16.81,0,0,0-.4,4.63v21.75a15.62,15.62,0,0,0,.4,4.46,1.74,1.74,0,0,0,1.83,1,1.7,1.7,0,0,0,1.78-1,17.28,17.28,0,0,0,.42-4.89v-5.87h12.18v1.82c0,4.84-.34,8.28-1,10.3a10.55,10.55,0,0,1-4.55,5.32,15.58,15.58,0,0,1-8.66,2.29,18,18,0,0,1-8.83-1.94,9.46,9.46,0,0,1-4.6-5.36,35.36,35.36,0,0,1-1.13-10.32V163.2a60.79,60.79,0,0,1,.35-7.59,10.7,10.7,0,0,1,2.07-4.88,11.64,11.64,0,0,1,4.77-3.7,19.57,19.57,0,0,1,15.9.74,10.1,10.1,0,0,1,4.6,5.2q1.1,3.1,1.1,9.68v4.45Z" transform="translate(-84.82 -113.39)"/><polygon class="cls-2" points="139.93 98.87 157.13 98.87 160.5 124 163.66 98.87 181.07 98.87 181.07 141.9 170.11 141.9 170.11 109.96 164.53 141.9 156.32 141.9 150.88 109.96 150.88 141.9 139.93 141.9 139.93 98.87 139.93 98.87"/><path class="cls-2" d="M269,224.67q0-6.81,3.72-10.06t11.65-3.26q7.93,0,11.66,3.26t3.72,10.06v18.2q0,6.81-3.72,10.07t-11.66,3.25q-7.94,0-11.65-3.25T269,242.87v-18.2Zm12.92,21.46c0,1.88.81,2.83,2.45,2.83s2.46-1,2.46-2.83V221.42c0-1.89-.82-2.84-2.46-2.84s-2.45.95-2.45,2.84v24.71Z" transform="translate(-84.82 -113.39)"/><polygon class="cls-2" points="218 98.87 228.95 98.87 236.32 120.26 236.32 98.87 247.41 98.87 247.41 141.9 236.46 141.9 229.16 117.85 228.95 141.9 218 141.9 218 98.87 218 98.87"/><polygon class="cls-2" points="272.62 98.87 272.62 106.58 262.79 133.58 273.25 133.58 273.25 141.9 249.38 141.9 249.38 135.09 260.05 107.18 250.57 107.18 250.57 98.87 272.62 98.87 272.62 98.87"/><path class="cls-2" d="M365.17,212.26h18.6l6.88,43H377.73l-.63-7.6h-4.7l-.64,7.6H358.85l6.32-43Zm11.71,27.84-2.24-20.25L372.4,240.1Z" transform="translate(-84.82 -113.39)"/><path class="cls-2" d="M222.68,264.85h15.45a24.59,24.59,0,0,1,6.59.65c1.66.51,2.5,1.35,2.5,2.52v1.89c0,.95-.6,1.61-1.79,2a18.68,18.68,0,0,1-5.34.57l-.12,0q8,.29,8,3.29v2.4q0,3.76-10.46,3.76H222.68V264.85Zm10.57,6.67h1.19c1.71,0,2.56-.35,2.56-1v-1.83c0-.7-.85-1.05-2.56-1.05h-1.19v3.93Zm0,7.59h1.08q2.67,0,2.67-1.08V275.2q0-1.08-2.67-1.08h-1.08v5Z" transform="translate(-84.82 -113.39)"/><path class="cls-2" d="M250.19,264.85h12.06c5.27,0,8.65.3,10.16.91s2.25,2,2.25,4.11a2.27,2.27,0,0,1-1.45,2.14,13.62,13.62,0,0,1-5,.88,16.25,16.25,0,0,1,5.28.89,2.3,2.3,0,0,1,1.55,2.21v6H264.86v-6.5c0-1-.93-1.48-2.79-1.48l-1.31.07V282H250.19V264.85Zm10.57,6.55h.83q3.27,0,3.27-1.2v-1.41q0-1.2-3.27-1.2h-.83v3.81Z" transform="translate(-84.82 -113.39)"/><polygon class="cls-2" points="192.69 151.46 203.63 151.46 203.63 168.59 192.69 168.59 192.69 151.46 192.69 151.46"/><path class="cls-2" d="M295.22,264.85H311L316.79,282H305.86l-.54-3h-4l-.53,3H289.87l5.35-17.13Zm9.92,11.09-1.9-8.06-1.9,8.06Z" transform="translate(-84.82 -113.39)"/><polygon class="cls-2" points="233.57 151.46 242.84 151.46 249.07 159.98 249.07 151.46 258.46 151.46 258.46 168.59 249.19 168.59 243.01 159.02 242.84 168.59 233.57 168.59 233.57 151.46 233.57 151.46"/><polygon class="cls-2" points="279.8 151.46 279.8 154.53 271.47 165.28 280.33 165.28 280.33 168.59 260.13 168.59 260.13 165.88 269.16 154.77 261.14 154.77 261.14 151.46 279.8 151.46 279.8 151.46"/><path class="cls-2" d="M371.15,264.85h15.74L392.72,282H381.79l-.54-3h-4l-.54,3H365.8l5.35-17.13Zm9.92,11.09-1.9-8.06-1.9,8.06Z" transform="translate(-84.82 -113.39)"/><path class="cls-2" d="M265.47,555.06a16,16,0,0,0,4.09-1.46,11.08,11.08,0,0,0,3.19-3h3.55v26.53h-6.16V561.22a4.25,4.25,0,0,0-.49-2.41c-.32-.45-1-.67-2.1-.67h-1c-.45,0-.8,0-1,0v-3.12Z" transform="translate(-84.82 -113.39)"/><path class="cls-2" d="M283.76,568.25q-5.16,0-5.16-7V558q0-8,7.49-8t7.57,8.4v10.67q0,8.58-7.49,8.58c-2.54,0-4.38-.59-5.54-1.77s-1.74-3.07-1.74-5.7h6.16V571c0,.3,0,.53,0,.71,0,1.49.42,2.23,1.25,2.23s1.22-.58,1.22-1.75V566a4.64,4.64,0,0,1-3.73,2.3Zm1-6.58c0,1.12.45,1.67,1.36,1.67s1.36-.55,1.36-1.67V555.5c0-1.11-.45-1.67-1.36-1.67s-1.36.56-1.36,1.67v6.17Z" transform="translate(-84.82 -113.39)"/><path class="cls-2" d="M321.78,555.06a16,16,0,0,0,4.08-1.46,11.23,11.23,0,0,0,3.2-3h3.54v26.53h-6.16V561.22a4.33,4.33,0,0,0-.49-2.41c-.32-.45-1-.67-2.1-.67h-1c-.45,0-.79,0-1,0v-3.12Z" transform="translate(-84.82 -113.39)"/><path class="cls-2" d="M334.94,573.27l2.69-4.31q6.12-10,6.13-12.71c0-1.17-.48-1.75-1.44-1.75s-1.57,1-1.57,3c0,.57,0,1.3.1,2.19h-5.91v-2q0-7.72,7.45-7.73a8.3,8.3,0,0,1,5.28,1.56,6,6,0,0,1,2.25,5,14.17,14.17,0,0,1-1.5,5.65,50,50,0,0,1-3.23,5.76l-2.87,4.61h7.25v4.46H334.94v-3.86Z" transform="translate(-84.82 -113.39)"/><path class="cls-2" d="M363.35,498.63a112.82,112.82,0,0,1-50.59,14c0-2.3.05-4.61.08-6.92a93.32,93.32,0,0,0,55.61-22A87,87,0,0,0,358,476a88.22,88.22,0,0,0,10.48-7.68,93.39,93.39,0,0,0-55.21-22l0-6.92a112.89,112.89,0,0,1,50.08,13.94c4.16,1.9,5.78,1.92,4.87,0a93.41,93.41,0,0,0-54.92-22c0-15.61.07-30.69.1-44.68h27.89q3.88-3.17,0-6.32H313.4l.15-25.29a11.49,11.49,0,1,0-11.71,0l.15,25.29H274.12q-3.9,3.16,0,6.32H302c0,14,.05,29.07.1,44.68a93.36,93.36,0,0,0-54.92,22c-.91,1.89.71,1.87,4.86,0a112.89,112.89,0,0,1,50.09-13.94l0,6.92a93.36,93.36,0,0,0-55.21,22A88.22,88.22,0,0,0,257.43,476,87,87,0,0,0,247,483.67a93.32,93.32,0,0,0,55.61,22c0,2.31.05,4.62.08,6.92a112.89,112.89,0,0,1-50.6-14q-6.22-2.85-4.86,0a93.28,93.28,0,0,0,55.55,22c.69,53.85,2.07,102.73,5,125.9,2.89-23.17,4.28-72,5-125.9a93.31,93.31,0,0,0,55.56-22Q369.59,495.78,363.35,498.63ZM313.12,470a117.22,117.22,0,0,1,32.62,6,117.35,117.35,0,0,1-32.7,6Q313.08,476,313.12,470Zm-10.77,12a117.35,117.35,0,0,1-32.69-6,117.22,117.22,0,0,1,32.61-6Q302.32,476,302.35,482Zm61.23,1.68a112.86,112.86,0,0,1-50.67,14c0-2.44,0-4.87.07-7.31a91.8,91.8,0,0,0,40.46-11.68A90.19,90.19,0,0,1,363.58,483.7Zm0-15.41a86.91,86.91,0,0,1-10.14,5,91.82,91.82,0,0,0-40.27-11.66c0-2.45,0-4.88,0-7.31A112.86,112.86,0,0,1,363.58,468.29Zm-111.76,0a112.86,112.86,0,0,1,50.37-14c0,2.43,0,4.86,0,7.31A91.79,91.79,0,0,0,262,473.31,86.14,86.14,0,0,1,251.82,468.29Zm0,15.41a89.36,89.36,0,0,1,10.14-5,91.76,91.76,0,0,0,40.46,11.68l.06,7.31A112.85,112.85,0,0,1,251.82,483.7Z" transform="translate(-84.82 -113.39)"/></svg>