<svg height="1000" viewBox="0 0 1000 999.99998" width="1000" xmlns="http://www.w3.org/2000/svg"><g transform="matrix(4.5238095 0 0 4.5238095 -873.09071 -1438.0738)"><g><path d="M 372.217 348.669 C 351.695 328.15 326.915 317.89 298 317.89 c -28.915 0 -53.701 10.261 -74.222 30.779 c -20.518 20.521 -30.779 45.308 -30.779 74.223 c 0 28.915 10.261 53.698 30.779 74.22 c 20.521 20.518 45.307 30.778 74.222 30.778 c 28.915 0 53.695 -10.26 74.217 -30.778 c 20.521 -20.521 30.784 -45.305 30.784 -74.22 c 0 -28.915 -10.263 -53.702 -30.784 -74.223 z M 298 328.283 c 25.983 0 48.369 9.328 66.891 27.848 c 18.521 18.392 27.717 40.642 27.717 66.761 c 0 26.116 -9.195 48.368 -27.717 66.891 c -18.522 18.522 -40.907 27.715 -66.891 27.715 c -26.119 0 -48.368 -9.193 -66.891 -27.715 c -18.521 -18.522 -27.717 -40.774 -27.717 -66.891 c 0 -26.119 9.195 -48.369 27.717 -66.761 c 18.523 -18.52 40.772 -27.848 66.891 -27.848 z" fill="#99525f"/><path d="M 364.891 356.131 C 346.369 337.611 323.984 328.283 298 328.283 c -26.119 0 -48.368 9.328 -66.891 27.848 c -18.521 18.392 -27.717 40.642 -27.717 66.761 c 0 26.116 9.195 48.368 27.717 66.891 c 18.522 18.522 40.771 27.715 66.891 27.715 c 25.983 0 48.369 -9.193 66.891 -27.715 c 18.521 -18.522 27.717 -40.774 27.717 -66.891 c -.001 -26.12 -9.196 -48.37 -27.717 -66.761 z m -54.233 -11.724 l 10.659 -.269 v 28.785 c 5.598 2.664 10.794 6.395 15.455 11.058 c .135 .133 .4 .4 .666 .666 l -9.856 8.527 c -2 -1.997 -4.135 -3.729 -6.265 -5.197 v 18.657 h 29.316 c 1.463 5.196 2.265 10.659 2.395 16.39 c -.13 15.188 -5.462 28.248 -16.256 39.04 c -4.661 4.666 -9.857 8.397 -15.455 11.06 v 11.995 c 8.529 -3.333 16.257 -8.397 23.317 -15.325 c 12.924 -12.924 19.323 -28.517 19.323 -46.769 c 0 -.399 0 -.667 0 -1.066 h 13.325 c 0 .266 0 .531 0 .933 c 0 21.852 -7.728 40.506 -23.188 56.096 c -12.924 12.794 -27.982 20.256 -45.302 22.521 v -24.252 c -.135 0 -.4 0 -.536 0 c -3.332 .667 -6.795 .933 -10.393 .933 c -15.321 0 -28.248 -5.33 -39.04 -16.121 c -3.064 -3.067 -5.73 -6.397 -7.859 -9.729 l 16.386 -.133 c .136 .133 .401 .4 .667 .666 c 4.397 4.397 9.328 7.73 14.791 9.728 c 2.799 1.067 5.863 1.866 8.928 2.265 c 1.999 .133 3.998 .269 5.998 .401 c 3.598 -.133 7.191 -.534 10.523 -1.333 V 417.83 h -14.39 v 37.177 c -4.663 -.667 -8.261 -1.599 -11.06 -3.065 v -10.394 h -49.702 c 3.064 10.394 8.262 19.587 15.723 27.449 l -8.394 8.393 c -14.522 -15.188 -21.854 -33.312 -21.719 -54.497 c -.136 -21.987 7.595 -40.642 23.185 -56.099 c 14.124 -14.258 31.578 -21.853 52.501 -23.053 v 24.117 c 1.197 0 2.265 0 3.462 0 c 3.599 0 7.061 .269 10.393 .935 l .136 -24.653 c .668 .134 1.464 .134 2.266 .267 z" fill="#fff"/><path d="m 321.317 344.139 l -10.659 .269 c -.802 -.133 -1.599 -.133 -2.265 -.269 l -.136 24.653 c -3.332 -.666 -6.795 -.935 -10.393 -.935 c -1.197 0 -2.265 0 -3.462 0 V 343.74 c -20.923 1.2 -38.377 8.795 -52.501 23.053 c -15.59 15.457 -23.32 34.111 -23.185 56.099 c -.136 21.185 7.196 39.309 21.719 54.497 l 8.394 -8.393 c -7.461 -7.862 -12.658 -17.056 -15.723 -27.449 h 49.702 v 10.394 c 2.799 1.466 6.396 2.398 11.06 3.065 v -37.177 h 14.39 v 46.104 c -3.332 .799 -6.926 1.2 -10.526 1.333 c -1.997 -.133 -3.996 -.269 -5.995 -.401 c -3.064 -.398 -6.129 -1.197 -8.928 -2.265 c -5.463 -2 -10.394 -5.33 -14.791 -9.728 c -.266 -.266 -.531 -.533 -.667 -.666 l -16.389 .133 c 2.132 3.332 4.798 6.662 7.862 9.727 c 10.792 10.794 23.716 16.124 39.04 16.124 c 3.599 0 7.061 -.266 10.393 -.933 c .136 0 .401 0 .536 0 v 24.25 c 17.319 -2.266 32.378 -9.727 45.302 -22.518 c 15.455 -15.59 23.188 -34.244 23.188 -56.096 c 0 -.401 0 -.667 0 -.933 h -13.325 c 0 .398 0 .664 0 1.066 c 0 18.253 -6.399 33.844 -19.323 46.769 c -7.061 6.929 -14.788 11.992 -23.317 15.322 v -11.992 c 5.598 -2.663 10.794 -6.394 15.455 -11.06 c 10.794 -10.792 16.126 -23.852 16.256 -39.04 c -.13 -5.73 -.932 -11.193 -2.395 -16.39 h -29.316 v -18.657 c 2.13 1.469 4.265 3.2 6.265 5.197 l 9.856 -8.527 c -.266 -.268 -.531 -.533 -.666 -.666 c -4.661 -4.663 -9.857 -8.394 -15.455 -11.06 v -28.783 z m 0 73.688 h 18.387 c .135 1.731 .27 3.466 .27 5.197 c 0 11.591 -4.135 21.586 -12.393 29.847 c -2 2 -4 3.732 -6.265 5.197 v -40.241 z m -23.583 -36.91 c 3.598 -.133 7.191 .266 10.523 1.2 v 24.518 h -13.855 v -25.582 c 1.068 -.136 2.129 -.269 3.332 -.136 z m -14.925 -23.453 v 12.261 c -8.928 2.397 -16.921 7.196 -23.984 14.257 c -9.594 9.461 -14.923 20.789 -15.988 33.846 h 39.973 v 11.859 h -51.168 c -.4 -2.799 -.666 -5.196 -.666 -7.462 c 0 -18.256 6.396 -33.846 19.323 -46.77 c 9.192 -9.196 20.119 -15.189 32.51 -17.991 z m -23.985 49.171 c 1.997 -4.931 5.065 -9.328 9.193 -13.46 c 4.397 -4.396 9.328 -7.728 14.791 -9.728 v 23.188 z" fill="#99525f"/><path d="m 339.704 417.827 h -18.387 v 40.241 c 2.265 -1.466 4.265 -3.197 6.265 -5.197 c 8.258 -8.261 12.393 -18.256 12.393 -29.847 c 0 -1.731 -.136 -3.465 -.271 -5.197 z" fill="#fff"/><path d="m 308.258 382.117 c -3.332 -.935 -6.926 -1.333 -10.523 -1.2 c -1.203 -.133 -2.268 0 -3.332 .136 v 25.582 h 13.855 z" fill="#fff"/><path d="m 282.809 369.725 v -12.261 c -12.391 2.802 -23.317 8.795 -32.511 17.991 c -12.927 12.924 -19.323 28.514 -19.323 46.77 c 0 2.266 .266 4.663 .666 7.462 h 51.168 v -11.859 h -39.973 c 1.066 -13.06 6.395 -24.385 15.988 -33.846 c 7.064 -7.064 15.057 -11.86 23.985 -14.257 z" fill="#fff"/><path d="m 268.018 393.175 c -4.129 4.132 -7.196 8.529 -9.193 13.46 h 23.984 v -23.188 c -5.463 2 -10.394 5.332 -14.791 9.728 z" fill="#fff"/></g></g></svg>