<?xml version="1.0" encoding="iso-8859-1"?>
<!-- Generator: Adobe Illustrator 24.0.1, SVG Export Plug-In . SVG Version: 6.00 Build 0)  -->
<svg version="1.1" id="Layer_1" xmlns="http://www.w3.org/2000/svg" xmlns:xlink="http://www.w3.org/1999/xlink" x="0px" y="0px"
	 viewBox="0 0 600 600" style="enable-background:new 0 0 600 600;" xml:space="preserve">
<g>
	<polygon style="fill-rule:evenodd;clip-rule:evenodd;fill:#FFFFFF;" points="16.329,18.328 595,18.328 595,597 16.329,597 
		16.329,18.328 	"/>
	<path style="fill-rule:evenodd;clip-rule:evenodd;fill:#4C8073;" d="M305.667,43.857c-145.7,0-263.808,118.108-263.808,263.807
		c0,145.695,118.108,263.807,263.808,263.807c145.695,0,263.803-118.111,263.803-263.807
		C569.47,161.966,451.362,43.857,305.667,43.857L305.667,43.857z M305.667,560.573c-139.455,0-252.911-113.455-252.911-252.909
		S166.212,54.755,305.667,54.755S558.576,168.21,558.576,307.664S445.122,560.573,305.667,560.573L305.667,560.573z"/>
	<path style="fill-rule:evenodd;clip-rule:evenodd;fill:#FFFFFF;" d="M52.756,307.664c0,139.454,113.456,252.909,252.911,252.909
		s252.909-113.455,252.909-252.909S445.122,54.755,305.667,54.755S52.756,168.21,52.756,307.664L52.756,307.664z"/>
	<path style="fill-rule:evenodd;clip-rule:evenodd;fill:#4C8073;" d="M305.661,61.434L59.433,307.664l246.228,246.233
		l246.236-246.233L305.661,61.434L305.661,61.434z M305.661,542.341c-10.754-10.76-223.912-223.92-234.67-234.677
		C81.749,296.907,294.907,83.75,305.661,72.993c10.758,10.757,223.92,223.914,234.68,234.671
		C529.581,318.421,316.419,531.581,305.661,542.341L305.661,542.341z"/>
	<path style="fill-rule:evenodd;clip-rule:evenodd;fill:#4C8073;" d="M305.661,80.698C288.603,97.761,95.758,290.604,78.697,307.664
		c17.061,17.063,209.906,209.91,226.964,226.969V80.698L305.661,80.698z"/>
	<path style="fill-rule:evenodd;clip-rule:evenodd;fill:#4C8073;" d="M73.702,229.601c-2.973,8.819-5.443,17.802-7.385,26.905
		c-0.389,1.82-0.824,4.01-0.991,4.887c-1.978,10.3-3.289,20.728-3.927,31.197c-0.056,0.909,1.085,0.466,2.542-0.988
		c1.457-1.46,2.594-3.407,2.55-4.351c-0.133-2.884-0.18-4.321-0.239-7.183c5.529-7.101,8.339-10.642,14.039-17.672
		c0.935,3.16,1.42,4.75,2.426,7.934c0.328,1.046,1.781,0.715,3.238-0.745c1.457-1.454,2.299-3.506,1.888-4.579
		c-4.621-12.067-8.81-24.304-12.506-36.687C75.028,227.291,74.29,227.862,73.702,229.601L73.702,229.601z M66.206,276.685
		c-0.066-8.174,0.059-12.214,0.594-20.179c2.353-8.173,3.691-12.205,6.671-20.121c2.009,8.789,3.153,13.246,5.733,22.269
		C73.889,265.816,71.286,269.425,66.206,276.685L66.206,276.685z"/>
	<path style="fill-rule:evenodd;clip-rule:evenodd;fill:#4C8073;" d="M89.887,192.279c-0.856,1.595-0.999,3.811-0.332,4.938
		c0.015,0.023,0.023,0.035,0.036,0.059c-0.004-0.012-0.007-0.02-0.013-0.036c4.099,12.965,7.997,25.958,11.288,39.159
		c-7.12-6.54-14.113-13.045-20.506-20.316c0.007,0.009,0.012,0.012,0.018,0.02c-0.01-0.023-0.016-0.036-0.025-0.059
		c-0.459-1.073-1.396-0.575-2.073,1.12c-0.677,1.695-0.897,3.929-0.513,4.979c7.732,9.751,16.772,18.109,25.956,26.453
		c0.633,1.14,2.331,0.888,3.788-0.566c1.456-1.46,2.068-3.583,1.372-4.744c-4.786-17.49-10.172-34.693-16.122-51.824
		C92.036,190.324,90.742,190.685,89.887,192.279L89.887,192.279z"/>
	<path style="fill-rule:evenodd;clip-rule:evenodd;fill:#4C8073;" d="M141.137,192.942c1.371-1.454,1.629-3.606,0.573-4.814
		c-1.052-1.202-2.992-1.009-4.329,0.44c-7.12,7.708-10.619,11.609-17.485,19.508c-6.312-8.555-12.579-17.139-18.801-25.758
		c5.352-8.109,8.207-12.044,14.237-19.646c1.134-1.427,1.256-3.515,0.262-4.67c-0.994-1.161-2.704-0.953-3.802,0.469
		c-6.642,8.613-9.738,13.116-15.408,22.445c-0.938,1.543-1.054,3.735-0.276,4.882c9.379,13.852,19.01,27.526,28.746,41.129
		c0.868,1.202,2.756,1.003,4.213-0.454c7.338-7.341,14.678-14.68,22.017-22.021c1.457-1.454,1.762-3.629,0.686-4.849
		c-1.077-1.225-3.1-1.038-4.524,0.417c-7.579,7.743-11.351,11.627-18.857,19.42c-2.124-2.82-3.175-4.228-5.264-7.025
		C130.236,204.558,133.842,200.659,141.137,192.942L141.137,192.942z"/>
	<path style="fill-rule:evenodd;clip-rule:evenodd;fill:#4C8073;" d="M178.856,168.157c-7.682,7.643-11.512,11.481-19.133,19.186
		c-12.047-12.95-24.064-25.923-36.049-38.93c-1.051-1.141-2.861-0.971-4.03,0.395c-1.169,1.366-1.274,3.418-0.251,4.567
		c12.331,13.85,24.715,27.652,37.142,41.417c1.105,1.217,3.182,1.03,4.639-0.428c7.339-7.338,14.678-14.679,22.018-22.017
		c1.457-1.457,1.658-3.568,0.454-4.718C182.444,166.483,180.3,166.721,178.856,168.157L178.856,168.157z"/>
	<path style="fill-rule:evenodd;clip-rule:evenodd;fill:#4C8073;" d="M210.877,136.73c-7.776,7.528-11.652,11.31-19.373,18.912
		c-13.044-11.706-26.123-23.369-39.243-34.99c-1.152-1.017-3.21-0.914-4.581,0.249c-1.37,1.164-1.545,2.964-0.403,4.011
		c13.755,12.612,27.48,25.257,41.168,37.943c1.213,1.123,3.381,0.859,4.836-0.598c7.34-7.338,14.676-14.679,22.018-22.015
		c1.456-1.46,1.646-3.412,0.428-4.362C214.509,134.929,212.338,135.314,210.877,136.73L210.877,136.73z"/>
	<path style="fill-rule:evenodd;clip-rule:evenodd;fill:#4C8073;" d="M225.388,126.404c1.205,0.862,1.001,2.747-0.455,4.204
		c-1.457,1.457-3.625,1.894-4.838,0.982c-13.696-10.24-27.484-20.344-41.378-30.314c-1.155-0.824-0.847-2.26,0.697-3.196
		c1.545-0.935,3.738-1.049,4.884-0.278C198.135,107.136,211.797,116.715,225.388,126.404L225.388,126.404z"/>
	<path style="fill-rule:evenodd;clip-rule:evenodd;fill:#4C8073;" d="M215.712,80.059c-1.698,0.674-2.199,1.601-1.128,2.052
		c9.75,4.131,19.349,8.549,28.937,13.035c-16,0.123-31.994-1.337-47.786-3.87c-1.124-0.662-3.341-0.522-4.938,0.331
		c-1.598,0.853-1.962,2.143-0.827,2.861c13.726,8.687,27.255,17.658,40.712,26.752c1.192,0.815,3.342,0.293,4.799-1.161
		c1.457-1.46,1.68-3.254,0.502-4.01c-10.144-6.515-20.38-12.882-30.71-19.098c15.825,2.246,31.84,3.369,47.825,2.856
		c0.009-0.012,0.015-0.018,0.024-0.03c1.164,0.329,3.034-0.396,4.375-1.735c1.456-1.458,1.749-3.032,0.654-3.513
		c-12.374-5.301-24.796-10.414-37.461-14.987C219.642,79.162,217.41,79.384,215.712,80.059L215.712,80.059z"/>
	<path style="fill-rule:evenodd;clip-rule:evenodd;fill:#4C8073;" d="M254.521,68.312c-9.101,1.943-18.089,4.406-26.908,7.385
		c-1.738,0.586-2.309,1.325-1.281,1.633c12.379,3.703,24.612,7.889,36.677,12.513c1.072,0.41,3.124-0.434,4.579-1.891
		c7.336-7.338,14.678-14.677,22.016-22.015c1.457-1.457,1.895-2.594,0.987-2.542c-10.467,0.639-20.889,1.949-31.186,3.926
		C258.529,67.487,256.339,67.924,254.521,68.312L254.521,68.312z M254.521,68.795c9.66-0.647,19.353-0.768,29.026-0.381
		c-6.853,6.25-10.275,9.393-17.099,15.708c-10.569-3.289-21.262-6.186-32.05-8.655C242.316,72.486,246.345,71.146,254.521,68.795
		L254.521,68.795z"/>
	<path style="fill-rule:evenodd;clip-rule:evenodd;fill:#4C8073;" d="M73.702,229.601c-2.973,8.819-5.443,17.802-7.385,26.905
		c-0.389,1.82-0.824,4.01-0.991,4.887c-1.978,10.3-3.289,20.728-3.927,31.197c-0.056,0.909,1.085,0.466,2.542-0.988
		c1.457-1.46,2.594-3.407,2.55-4.351c-0.133-2.884-0.18-4.321-0.239-7.183c5.529-7.101,8.339-10.642,14.039-17.672
		c0.935,3.16,1.42,4.75,2.426,7.934c0.328,1.046,1.781,0.715,3.238-0.745c1.457-1.454,2.299-3.506,1.888-4.579
		c-4.621-12.067-8.81-24.304-12.506-36.687C75.028,227.291,74.29,227.862,73.702,229.601L73.702,229.601z M66.206,276.685
		c-0.066-8.174,0.059-12.214,0.594-20.179c2.353-8.173,3.691-12.205,6.671-20.121c2.009,8.789,3.153,13.246,5.733,22.269
		C73.889,265.816,71.286,269.425,66.206,276.685L66.206,276.685z"/>
	<path style="fill-rule:evenodd;clip-rule:evenodd;fill:#4C8073;" d="M89.887,192.279c-0.856,1.595-0.999,3.811-0.332,4.938
		c0.015,0.023,0.023,0.035,0.036,0.059c-0.004-0.012-0.007-0.02-0.013-0.036c4.099,12.965,7.997,25.958,11.288,39.159
		c-7.12-6.54-14.113-13.045-20.506-20.316c0.007,0.009,0.012,0.012,0.018,0.02c-0.01-0.023-0.016-0.036-0.025-0.059
		c-0.459-1.073-1.396-0.575-2.073,1.12c-0.677,1.695-0.897,3.929-0.513,4.979c7.732,9.751,16.772,18.109,25.956,26.453
		c0.633,1.14,2.331,0.888,3.788-0.566c1.456-1.46,2.068-3.583,1.372-4.744c-4.786-17.49-10.172-34.693-16.122-51.824
		C92.036,190.324,90.742,190.685,89.887,192.279L89.887,192.279z"/>
	<path style="fill-rule:evenodd;clip-rule:evenodd;fill:#4C8073;" d="M141.137,192.942c1.371-1.454,1.629-3.606,0.573-4.814
		c-1.052-1.202-2.992-1.009-4.329,0.44c-7.12,7.708-10.619,11.609-17.485,19.508c-6.312-8.555-12.579-17.139-18.801-25.758
		c5.352-8.109,8.207-12.044,14.237-19.646c1.134-1.427,1.256-3.515,0.262-4.67c-0.994-1.161-2.704-0.953-3.802,0.469
		c-6.642,8.613-9.738,13.116-15.408,22.445c-0.938,1.543-1.054,3.735-0.276,4.882c9.379,13.852,19.01,27.526,28.746,41.129
		c0.868,1.202,2.756,1.003,4.213-0.454c7.338-7.341,14.678-14.68,22.017-22.021c1.457-1.454,1.762-3.629,0.686-4.849
		c-1.077-1.225-3.1-1.038-4.524,0.417c-7.579,7.743-11.351,11.627-18.857,19.42c-2.124-2.82-3.175-4.228-5.264-7.025
		C130.236,204.558,133.842,200.659,141.137,192.942L141.137,192.942z"/>
	<path style="fill-rule:evenodd;clip-rule:evenodd;fill:#4C8073;" d="M178.856,168.157c-7.682,7.643-11.512,11.481-19.133,19.186
		c-12.047-12.95-24.064-25.923-36.049-38.93c-1.051-1.141-2.861-0.971-4.03,0.395c-1.169,1.366-1.274,3.418-0.251,4.567
		c12.331,13.85,24.715,27.652,37.142,41.417c1.105,1.217,3.182,1.03,4.639-0.428c7.339-7.338,14.678-14.679,22.018-22.017
		c1.457-1.457,1.658-3.568,0.454-4.718C182.444,166.483,180.3,166.721,178.856,168.157L178.856,168.157z"/>
	<path style="fill-rule:evenodd;clip-rule:evenodd;fill:#4C8073;" d="M210.877,136.73c-7.776,7.528-11.652,11.31-19.373,18.912
		c-13.044-11.706-26.123-23.369-39.243-34.99c-1.152-1.017-3.21-0.914-4.581,0.249c-1.37,1.164-1.545,2.964-0.403,4.011
		c13.755,12.612,27.48,25.257,41.168,37.943c1.213,1.123,3.381,0.859,4.836-0.598c7.34-7.338,14.676-14.679,22.018-22.015
		c1.456-1.46,1.646-3.412,0.428-4.362C214.509,134.929,212.338,135.314,210.877,136.73L210.877,136.73z"/>
	<path style="fill-rule:evenodd;clip-rule:evenodd;fill:#4C8073;" d="M225.388,126.404c1.205,0.862,1.001,2.747-0.455,4.204
		c-1.457,1.457-3.625,1.894-4.838,0.982c-13.696-10.24-27.484-20.344-41.378-30.314c-1.155-0.824-0.847-2.26,0.697-3.196
		c1.545-0.935,3.738-1.049,4.884-0.278C198.135,107.136,211.797,116.715,225.388,126.404L225.388,126.404z"/>
	<path style="fill-rule:evenodd;clip-rule:evenodd;fill:#4C8073;" d="M215.712,80.059c-1.698,0.674-2.199,1.601-1.128,2.052
		c9.75,4.131,19.349,8.549,28.937,13.035c-16,0.123-31.994-1.337-47.786-3.87c-1.124-0.662-3.341-0.522-4.938,0.331
		c-1.598,0.853-1.962,2.143-0.827,2.861c13.726,8.687,27.255,17.658,40.712,26.752c1.192,0.815,3.342,0.293,4.799-1.161
		c1.457-1.46,1.68-3.254,0.502-4.01c-10.144-6.515-20.38-12.882-30.71-19.098c15.825,2.246,31.84,3.369,47.825,2.856
		c0.009-0.012,0.015-0.018,0.024-0.03c1.164,0.329,3.034-0.396,4.375-1.735c1.456-1.458,1.749-3.032,0.654-3.513
		c-12.374-5.301-24.796-10.414-37.461-14.987C219.642,79.162,217.41,79.384,215.712,80.059L215.712,80.059z"/>
	<path style="fill-rule:evenodd;clip-rule:evenodd;fill:#4C8073;" d="M254.521,68.312c-9.101,1.943-18.089,4.406-26.908,7.385
		c-1.738,0.586-2.309,1.325-1.281,1.633c12.379,3.703,24.612,7.889,36.677,12.513c1.072,0.41,3.124-0.434,4.579-1.891
		c7.336-7.338,14.678-14.677,22.016-22.015c1.457-1.457,1.895-2.594,0.987-2.542c-10.467,0.639-20.889,1.949-31.186,3.926
		C258.529,67.487,256.339,67.924,254.521,68.312L254.521,68.312z M254.521,68.795c9.66-0.647,19.353-0.768,29.026-0.381
		c-6.853,6.25-10.275,9.393-17.099,15.708c-10.569-3.289-21.262-6.186-32.05-8.655C242.316,72.486,246.345,71.146,254.521,68.795
		L254.521,68.795z"/>
	<path style="fill-rule:evenodd;clip-rule:evenodd;fill:#4C8073;" d="M355.852,82.076c-7.769-5.787-11.681-8.614-19.561-14.123
		c8.15-0.011,12.179,0.139,20.13,0.73c8.877,2.54,13.245,4.002,21.824,7.277c1.611,0.618,3.734,0.903,4.755,0.621
		c1.02-0.282,0.527-0.956-1.108-1.495c-9.892-3.248-14.958-4.624-25.272-6.817c-1.713-0.364-3.807-0.777-4.679-0.947
		c-8.932-1.712-13.463-2.371-22.651-3.254c-0.902-0.088-0.458,0.75,0.996,1.873c7.723,5.969,11.564,9.009,19.203,15.178
		c-2.392,0.662-3.594,1.003-6.003,1.706c-7.412-6.848-11.129-10.249-18.57-17.021c-1.396-1.272-3.267-2.351-4.175-2.41
		c-0.908-0.053-0.546,1.014,0.821,2.378c6.883,6.88,13.761,13.761,20.645,20.642c1.366,1.366,3.337,2.158,4.398,1.771
		c4.011-1.451,6.009-2.151,9.979-3.494C357.634,84.333,357.306,83.164,355.852,82.076L355.852,82.076z"/>
	<path style="fill-rule:evenodd;clip-rule:evenodd;fill:#4C8073;" d="M350.294,91.745c1.078-0.439,3.083,0.258,4.474,1.554
		c1.389,1.294,1.617,2.754,0.516,3.263c-1.109,0.507-3.113-0.179-4.474-1.545C349.443,93.65,349.215,92.182,350.294,91.745
		L350.294,91.745z"/>
	<path style="fill-rule:evenodd;clip-rule:evenodd;fill:#4C8073;" d="M425.593,94.38c-8.932-5.04-13.545-7.338-23.022-11.437
		c-1.565-0.68-3.711-0.838-4.79-0.375c-12.936,5.722-25.699,11.712-38.383,17.978c-1.119,0.563-0.926,2.134,0.441,3.5
		c1.36,1.366,3.396,1.959,4.539,1.331c3.482-1.92,5.225-2.861,8.677-4.715c7.522,6.409,11.264,9.658,18.688,16.242
		c1.396,1.237,3.489,1.566,4.673,0.733c9.845-6.893,19.766-13.68,29.763-20.352C427.327,96.523,427.064,95.216,425.593,94.38
		L425.593,94.38z M377.142,98.488c8.033-4.26,16.138-8.385,24.304-12.381c7.077,3.501,10.549,5.377,17.345,9.368
		c-8.496,5.362-16.939,10.817-25.317,16.365C386.993,106.406,383.727,103.735,377.142,98.488L377.142,98.488z"/>
	<path style="fill-rule:evenodd;clip-rule:evenodd;fill:#4C8073;" d="M389.232,129.623c1.208-0.891,3.302-0.54,4.674,0.78
		c1.371,1.326,1.5,3.154,0.287,4.087c-1.221,0.938-3.318,0.598-4.685-0.769C388.148,132.356,388.024,130.52,389.232,129.623
		L389.232,129.623z"/>
	<path style="fill-rule:evenodd;clip-rule:evenodd;fill:#4C8073;" d="M464.325,121.472c-7.75-6.614-11.802-9.727-20.211-15.52
		c-1.395-0.956-3.472-1.009-4.631-0.129c-13.969,10.642-27.842,21.402-41.631,32.273c-1.221,0.967-1.103,2.861,0.263,4.227
		c1.36,1.366,3.466,1.654,4.691,0.651c3.74-3.066,5.599-4.588,9.293-7.599c6.305,5.849,9.436,8.801,15.645,14.764
		c-3.677,3.315-5.529,4.984-9.253,8.355c-1.219,1.1-1.102,3.105,0.264,4.468c1.366,1.366,3.46,1.56,4.673,0.431
		c13.68-12.712,27.395-25.389,41.139-38.027C465.71,124.316,465.61,122.569,464.325,121.472L464.325,121.472z M416.474,131.822
		c8.619-6.96,17.27-13.891,25.934-20.79c6.34,4.653,9.424,7.092,15.417,12.176c-8.603,7.649-17.182,15.324-25.736,23.021
		C425.909,140.388,422.784,137.503,416.474,131.822L416.474,131.822z"/>
	<path style="fill-rule:evenodd;clip-rule:evenodd;fill:#4C8073;" d="M427.07,167.02c1.201-1.143,3.276-0.979,4.631,0.37
		c1.349,1.345,1.484,3.377,0.293,4.541c-1.195,1.163-3.27,1-4.637-0.363C425.991,170.201,425.861,168.163,427.07,167.02
		L427.07,167.02z"/>
	<path style="fill-rule:evenodd;clip-rule:evenodd;fill:#4C8073;" d="M461.365,197.246c-3.079-3.131-4.615-4.697-7.698-7.819
		c11.938-12.984,23.846-25.998,35.714-39.047c1.037-1.143,0.991-3.107-0.124-4.371c-3.37-3.82-5.1-5.688-8.66-9.326
		c-1.178-1.208-3.036-1.279-4.145-0.17c-1.107,1.103-1.025,2.979,0.17,4.198c2.75,2.803,4.099,4.233,6.75,7.133
		c-11.493,12.252-23.025,24.465-34.566,36.667c-3.089-3.113-4.643-4.67-7.739-7.777c-1.349-1.352-3.4-1.493-4.579-0.314
		c-1.178,1.178-1.032,3.242,0.334,4.608c6.884,6.881,13.762,13.765,20.646,20.646c1.366,1.366,3.336,1.477,4.397,0.252
		C462.925,200.703,462.702,198.606,461.365,197.246L461.365,197.246z"/>
	<path style="fill-rule:evenodd;clip-rule:evenodd;fill:#4C8073;" d="M518.03,186.128c-5.108-8.885-7.888-13.187-13.868-21.46
		c-0.984-1.37-2.568-1.531-3.524-0.37c-8.296,10.12-16.651,20.194-25.061,30.221c-1.014,1.207-0.803,3.295,0.476,4.664
		c6.784,7.279,10.139,10.955,16.764,18.352c-1.982,2.779-2.984,4.175-5.002,6.974c-7.019-7.317-10.548-10.967-17.631-18.241
		c-1.331-1.367-3.243-1.483-4.28-0.258c-1.038,1.223-0.773,3.325,0.593,4.691c6.884,6.881,13.762,13.761,20.646,20.645
		c1.36,1.366,3.143,1.502,3.964,0.306c9.216-13.483,18.299-27.046,27.118-40.792C518.957,189.724,518.873,187.601,518.03,186.128
		L518.03,186.128z M481.899,197.293c6.941-8.619,13.849-17.262,20.721-25.928c4.645,6.344,6.855,9.604,11.041,16.271
		c-5.852,8.587-11.809,17.098-17.789,25.594C490.372,206.794,487.575,203.605,481.899,197.293L481.899,197.293z"/>
	<path style="fill-rule:evenodd;clip-rule:evenodd;fill:#4C8073;" d="M519.419,257.915c-2.977-3.193-4.468-4.788-7.458-7.974
		c6.168-12.09,12.196-24.237,17.814-36.6c0.492-1.083,0.341-3.228-0.353-4.788c-2.1-4.711-3.207-7.036-5.541-11.616
		c-0.768-1.516-1.958-1.82-2.632-0.689c-0.681,1.126-0.546,3.249,0.281,4.753c1.906,3.451,2.826,5.195,4.608,8.716
		c-6.045,11.879-12.412,23.571-18.897,35.21c-3.002-3.178-4.51-4.767-7.523-7.939c-1.307-1.384-2.99-1.548-3.759-0.367
		c-0.774,1.182-0.293,3.251,1.074,4.618c6.877,6.878,13.761,13.759,20.639,20.64c1.366,1.366,2.845,1.594,3.289,0.51
		C521.406,261.305,520.722,259.305,519.419,257.915L519.419,257.915z"/>
	<path style="fill-rule:evenodd;clip-rule:evenodd;fill:#4C8073;" d="M547.388,283.049c1.126,1.451,1.964,1.897,1.877,0.997
		c-0.887-9.185-1.542-13.717-3.255-22.642c-0.164-0.873-0.58-2.97-0.944-4.676c-2.192-10.32-3.571-15.386-6.818-25.275
		c-0.539-1.635-1.215-2.128-1.495-1.11c-0.275,1.017,0.006,3.145,0.621,4.754c3.278,8.576,4.738,12.95,7.282,21.828
		c0.587,7.945,0.739,11.973,0.727,20.123c-5.511-7.88-8.343-11.794-14.124-19.561c-1.091-1.46-2.258-1.791-2.615-0.739
		c-1.342,3.969-2.041,5.966-3.495,9.98c-0.387,1.061,0.404,3.031,1.771,4.397c6.878,6.881,13.762,13.762,20.64,20.639
		c1.366,1.367,2.434,1.736,2.382,0.827c-0.06-0.909-1.139-2.779-2.41-4.175c-6.773-7.443-10.18-11.158-17.028-18.569
		c0.703-2.41,1.044-3.609,1.707-6.004C538.381,271.484,541.419,275.33,547.388,283.049L547.388,283.049z"/>
	<path style="fill-rule:evenodd;clip-rule:evenodd;fill:#4C8073;" d="M533.579,396.827c0.928-2.349,1.354-5.116,0.997-6.157
		c-4.039-11.888-8.484-23.643-13.305-35.236c7.277-7.843,14.536-15.705,21.767-23.592c0.809,10.341,1.067,20.73,0.727,31.1
		c-0.029,0.918,0.435-0.354,0.979-2.863c0.552-2.51,1.091-5.266,1.261-6.143c1.982-10.303,3.29-20.728,3.936-31.199
		c0.052-0.909-1.537-0.015-3.548,1.996c-10.138,10.135-20.276,20.273-30.414,30.411c-2.012,2.011-3.184,4.553-2.628,5.673
		c6.175,12.656,12.074,25.392,17.703,38.303C531.51,400.192,532.658,399.175,533.579,396.827L533.579,396.827z"/>
	<path style="fill-rule:evenodd;clip-rule:evenodd;fill:#4C8073;" d="M507.364,446.124c1.412-2.05,1.816-4.673,0.95-5.834
		c-7.917-10.546-15.92-21.023-24.012-31.436c12.917,2.406,25.822,4.863,38.829,6.707c0.644,1.12,2.081,0.217,3.165-2.043
		c1.091-2.261,1.489-5.002,0.938-6.099c-6.766-13.228-13.767-26.289-21.002-39.265c-0.65-1.149-2.814-0.451-4.825,1.563
		c-2.012,2.012-3.044,4.595-2.311,5.768c6.344,10.094,12.518,20.29,18.546,30.577c-13.892-2.23-27.686-4.97-41.496-7.654
		c-0.012,0.015-0.018,0.023-0.035,0.038c-1.078-0.85-3.266-0.17-5.119,1.68c-2.01,2.014-2.819,4.644-1.805,5.87
		c11.397,13.831,22.702,27.73,33.908,41.715C504.028,448.874,505.95,448.174,507.364,446.124L507.364,446.124z"/>
	<path style="fill-rule:evenodd;clip-rule:evenodd;fill:#4C8073;" d="M454.774,420.553c-1.103-1.216-0.37-3.84,1.647-5.851
		c2.012-2.015,4.51-2.648,5.571-1.425c11.948,13.829,23.828,27.711,35.638,41.659c0.979,1.158,0.539,3.695-1.015,5.632
		c-1.554,1.938-3.671,2.552-4.69,1.399C479.589,448.118,467.205,434.315,454.774,420.553L454.774,420.553z"/>
	<path style="fill-rule:evenodd;clip-rule:evenodd;fill:#4C8073;" d="M457.952,499.111c9.775-7.795,18.957-16.332,27.446-25.514
		c1.684-1.823,2.165-4.248,1.104-5.389c-12.741-13.703-25.513-27.374-38.318-41.022c-1.138-1.211-3.693-0.56-5.705,1.451
		c-10.138,10.139-20.276,20.276-30.408,30.415c-2.017,2.01-2.649,4.502-1.425,5.561c13.826,11.906,27.711,23.745,41.661,35.51
		C453.466,501.097,456.006,500.661,457.952,499.111L457.952,499.111z M457.267,492.586c-12.425-11.008-24.797-22.087-37.14-33.196
		c7.664-7.575,15.309-15.168,22.926-22.791c11.779,12.065,23.56,24.129,35.322,36.214
		C471.685,479.763,464.63,486.359,457.267,492.586L457.267,492.586z"/>
	<path style="fill-rule:evenodd;clip-rule:evenodd;fill:#4C8073;" d="M411.508,528.304c2.258-1.091,3.166-2.524,2.046-3.166
		c-10.196-5.828-20.299-11.827-30.302-17.978c18.517-0.122,36.641,1.05,55.034,3.158c1.155,0.871,3.782,0.464,5.828-0.95
		c2.052-1.409,2.751-3.336,1.59-4.263c-13.979-11.213-27.882-22.519-41.713-33.917c-1.226-1.012-3.847-0.209-5.864,1.806
		c-2.011,2.012-2.65,4.424-1.43,5.383c10.536,8.231,21.096,16.43,31.75,24.515c-18.499-1.779-36.664-2.57-55.239-1.967
		c-0.012,0.015-0.024,0.021-0.036,0.036c-1.273-0.426-3.606,0.595-5.452,2.443c-2.011,2.015-2.709,4.179-1.565,4.826
		c12.976,7.239,26.033,14.24,39.255,21.013C406.507,529.792,409.244,529.391,411.508,528.304L411.508,528.304z"/>
	<path style="fill-rule:evenodd;clip-rule:evenodd;fill:#4C8073;" d="M331.524,548.428c-2.135,1.656-3.137,2.923-2.24,2.835
		c0.902-0.086,3.406-1.378,5.589-2.898c9.738-6.778,19.319-13.773,28.742-20.974c9.388,3.697,14.024,5.404,23.161,8.543
		c-10.591,4.201-21.062,7.86-31.957,11.167c-2.468,0.689-3.765,1.076-2.891,0.909c0.875-0.171,3.63-0.712,6.14-1.264
		c12.518-2.738,24.819-6.473,36.746-11.161c2.351-0.92,3.366-2.072,2.293-2.53c-12.905-5.629-25.635-11.529-38.289-17.707
		c-1.119-0.558-3.664,0.615-5.676,2.627c-10.133,10.14-20.27,20.275-30.407,30.41c-2.012,2.012-2.908,3.608-2,3.551
		c0.914-0.056,3.318-1.624,5.382-3.5c9.154-8.338,18.259-16.727,27.319-25.167c2.521,1.05,3.781,1.563,6.291,2.571
		C350.445,533.517,341.046,541.05,331.524,548.428L331.524,548.428z"/>
	<path style="fill-rule:evenodd;clip-rule:evenodd;fill:#4C8073;" d="M252.923,531.336c8.555,6.426,12.872,9.557,21.565,15.65
		c-8.18,0.094-12.223-0.012-20.201-0.521c-9.79-2.825-14.603-4.477-24.02-8.199c-1.771-0.7-4.034-1.021-5.066-0.7
		c-1.032,0.322-0.421,1.099,1.375,1.711c9.107,3.122,18.405,5.691,27.817,7.713c1.884,0.403,4.128,0.845,5.001,1.013
		c8.925,1.715,13.46,2.372,22.646,3.258c0.902,0.088,0.335-0.848-1.267-2.085c-8.522-6.594-12.761-9.956-21.184-16.793
		c2.42-0.741,3.635-1.12,6.072-1.902c6.804,6.299,13.634,12.564,20.489,18.806c1.545,1.405,3.533,2.593,4.441,2.646
		c0.909,0.056,0.425-1.123-1.083-2.631c-7.593-7.596-15.187-15.191-22.781-22.784c-1.508-1.508-3.604-2.381-4.681-1.955
		c-4.064,1.6-6.087,2.374-10.108,3.868C250.877,528.826,251.317,530.127,252.923,531.336L252.923,531.336z"/>
	<path style="fill-rule:evenodd;clip-rule:evenodd;fill:#4C8073;" d="M188.62,522.54c8.311,4.547,16.887,8.607,25.67,12.154
		c1.752,0.711,4.034,0.944,5.088,0.552c12.73-4.764,25.21-10.065,37.646-15.541c1.099-0.495,0.769-2.127-0.739-3.633
		c-1.507-1.508-3.641-2.263-4.765-1.691c-3.43,1.737-5.138,2.591-8.538,4.266c-6.964-5.864-13.86-11.807-20.686-17.831
		c-1.542-1.36-3.749-1.805-4.933-0.996c-9.804,6.693-19.682,13.279-29.643,19.738C186.579,520.3,186.976,521.642,188.62,522.54
		L188.62,522.54z M238.959,520.61c-9.704,4.702-14.492,6.919-23.931,11.082c-7.9-3.699-11.772-5.711-19.328-10.015
		c8.448-5.128,16.835-10.36,25.162-15.683C228.036,511.953,231.658,514.879,238.959,520.61L238.959,520.61z"/>
	<path style="fill-rule:evenodd;clip-rule:evenodd;fill:#4C8073;" d="M154.346,499.877c7.377,5.813,15.082,11.215,23.075,16.148
		c1.589,0.982,3.819,1.123,4.969,0.334c13.876-9.536,27.577-19.311,41.21-29.188c1.208-0.88,0.965-2.82-0.541-4.33
		c-7.597-7.594-15.19-15.189-22.786-22.782c-1.508-1.511-3.721-1.844-4.943-0.757c-13.792,12.273-27.632,24.488-41.525,36.647
		C152.649,496.957,152.884,498.725,154.346,499.877L154.346,499.877z M161.209,498.42c12.514-10.53,24.955-21.145,37.357-31.806
		c6.922,6.771,10.396,10.146,17.36,16.862c-12.297,9.368-24.687,18.611-37.181,27.709
		C171.531,506.353,168.017,503.795,161.209,498.42L161.209,498.42z"/>
	<path style="fill-rule:evenodd;clip-rule:evenodd;fill:#4C8073;" d="M161.17,428.262c0.573,6.517,0.815,9.754,1.266,16.115
		c-2.556-2.574-3.829-3.867-6.362-6.459c-1.445-1.478-3.516-1.709-4.625-0.519c-9.204,9.899-18.401,19.813-27.565,29.748
		c-1.053,1.141-0.908,3.195,0.34,4.576c6.286,6.943,12.966,13.529,19.999,19.716c1.397,1.228,3.471,1.37,4.619,0.332
		c13.797-12.507,27.556-25.052,41.277-37.641c1.215-1.115,0.981-3.245-0.526-4.753c-1.507-1.506-3.711-1.803-4.916-0.659
		c-3.681,3.485-5.511,5.216-9.146,8.652c-2.376-2.326-3.561-3.493-5.922-5.831c-0.575-8.693-0.882-13.164-1.648-22.203
		c-0.164-1.903-1.836-3.696-3.712-3.995C162.368,425.045,161.003,426.358,161.17,428.262L161.17,428.262z M145.822,485.344
		c-6.401-5.847-9.492-8.899-15.421-15.224c8.055-8.429,16.121-16.846,24.191-25.254c6.567,6.714,9.897,10.026,16.638,16.564
		C162.774,469.413,154.301,477.386,145.822,485.344L145.822,485.344z"/>
	<path style="fill-rule:evenodd;clip-rule:evenodd;fill:#4C8073;" d="M99.331,439.138c5.057,7.909,10.57,15.53,16.496,22.81
		c1.176,1.444,2.974,1.668,4,0.518c1.027-1.149,0.87-3.246-0.337-4.693c-2.775-3.334-4.132-5.031-6.775-8.471
		c10.962-13.26,21.991-26.459,33.096-39.596c1.039-1.226,0.663-3.442-0.846-4.952c-1.507-1.507-3.543-1.734-4.543-0.51
		c-10.69,13.125-21.32,26.301-31.806,39.59c-2.56-3.503-3.805-5.283-6.228-8.886c-1.054-1.568-2.56-1.911-3.378-0.756
		C98.19,435.348,98.327,437.566,99.331,439.138L99.331,439.138z"/>
	<path style="fill-rule:evenodd;clip-rule:evenodd;fill:#4C8073;" d="M127.403,390.266c0.718-0.977,2.528-0.548,4.035,0.959
		c1.508,1.51,2.112,3.529,1.354,4.515c-8.569,11.182-17.063,22.419-25.479,33.718c-0.7,0.944-2.165,0.448-3.255-1.123
		c-1.09-1.571-1.426-3.614-0.766-4.556C111.206,412.518,119.278,401.374,127.403,390.266L127.403,390.266z"/>
	<path style="fill-rule:evenodd;clip-rule:evenodd;fill:#4C8073;" d="M78.851,399.583c0.712,1.747,1.692,2.287,2.17,1.207
		c0.01-0.02,0.016-0.031,0.026-0.056c-0.007,0.009-0.012,0.009-0.018,0.018c6.666-7.21,13.901-13.668,21.257-20.152
		c-3.51,13.315-7.365,26.458-11.568,39.572c0.004-0.019,0.006-0.025,0.013-0.039c-0.014,0.024-0.022,0.033-0.037,0.056
		c-0.689,1.133-0.531,3.39,0.371,5.031c0.903,1.642,2.256,2.035,3,0.895c6.091-17.304,11.595-34.68,16.493-52.354
		c0.715-1.168,0.077-3.337-1.43-4.847c-1.508-1.508-3.264-1.797-3.914-0.648c-9.473,8.271-18.813,16.565-26.906,26.233
		C77.905,395.555,78.14,397.832,78.851,399.583L78.851,399.583z"/>
	<path style="fill-rule:evenodd;clip-rule:evenodd;fill:#4C8073;" d="M66.338,358.926c2.015,9.416,4.59,18.71,7.709,27.819
		c0.614,1.797,1.392,2.407,1.712,1.374c3.877-12.433,8.233-24.72,13.016-36.837c0.423-1.076-0.452-3.172-1.959-4.679
		c-1.507-1.507-3.011-1.877-3.351-0.83c-1.043,3.199-1.548,4.793-2.52,7.966c-5.906-7.276-8.816-10.936-14.541-18.288
		c0.07-2.864,0.124-4.301,0.268-7.189c0.047-0.944-1.132-2.936-2.639-4.442s-2.689-1.993-2.635-1.084
		c0.641,10.469,1.949,20.894,3.926,31.191C65.493,354.801,65.936,357.043,66.338,358.926L66.338,358.926z M79.816,357.494
		c-2.689,9.054-3.883,13.53-6.003,22.35c-3.112-8.18-4.508-12.349-6.95-20.807c-0.505-7.975-0.613-12.018-0.518-20.194
		C71.607,346.354,74.302,350.087,79.816,357.494L79.816,357.494z"/>
	<path style="fill-rule:evenodd;clip-rule:evenodd;fill:#4C8073;" d="M391.478,246.822c0-14.419-45.407-39.503-45.407-39.503
		v-61.754h-7.265c0,0-10.666,37.688-28.602,37.688c-1.777,0-3.226-4.867-4.544-11.651v276.37l15.438,22.696l20.211-20.205v-91.945
		h97.844c9.194,0,6.813-7.49,6.813-7.49c-17.936-17.934-60.394-4.541-60.394-23.387c0-15.661,44.388,13.624,61.754,13.624
		c7.717,0,23.155-13.85,23.155-19.979C470.482,308.348,391.478,271.226,391.478,246.822L391.478,246.822z M355.724,262.542
		c-6.814,0-13.451-3.576-13.451-6.81c0-2.639,0.251-4.084,7.322-4.084c7.999,0,14.473,3.574,14.473,6.808
		C364.067,261.692,362.529,262.542,355.724,262.542L355.724,262.542z"/>
	<path style="fill-rule:evenodd;clip-rule:evenodd;fill:#FFFFFF;" d="M296.126,129.675c-10.443,0-38.592,64.478-38.592,79.004
		c-15.894,15.893-37.689,49.494-37.689,66.292c0,32.241-41.317,67.653-41.317,75.376c0,5.446,1.364,7.716,7.265,7.716
		c9.535,0,9.083,7.723,9.083,14.078c0,9.08,8.173,7.262,12.712,7.262c10.446,0,9.082,4.09,9.082,9.083
		c0,11.806,6.353,13.169,11.35,13.169c9.986,0,10.444,8.171,10.444,12.258c0,7.268,5.901,4.542,9.988,4.542
		c6.359,0,11.806,8.624,11.806,16.799c0,4.086,9.081,4.995,12.258,4.995c8.629,0,8.629,11.352,25.428,11.352
		c7.036,0,7.716-3.632,7.716-3.632v0.003v-276.37C302.605,155.844,300.254,129.675,296.126,129.675L296.126,129.675z
		 M290.567,172.81c7.945,0,6.471,26.447,2.838,26.447c-4.087,0-0.683-18.273-5.225-18.273c-1.475,0-2.95-1.932-2.95-3.976
		C285.231,174.967,286.142,172.81,290.567,172.81L290.567,172.81z M274.333,273.724c0,2.724,1.362,5.224,8.626,5.224
		c11.354,0,11.466,6.468-1.135,6.468c-9.195,0-14.415-5.448-14.415-11.921C267.41,268.048,274.333,268.273,274.333,273.724
		L274.333,273.724z M268.885,380.424c0,2.275,3.745,4.884,8.06,4.884c6.13,0,9.536-8.854,9.536-0.114
		c0,3.747-3.974,5.565-9.422,5.565c-8.855,0-14.985-4.316-14.985-9.992C262.074,374.071,268.885,377.021,268.885,380.424
		L268.885,380.424z M248.452,334.909c0-8.06,8.287-5.336,8.287,1.246c0,5.109,4.994,8.061,9.535,8.061
		c4.542,0,11.919-5.904,11.919,0c0,5.45-6.585,6.811-14.758,6.811C254.354,351.027,248.452,339.79,248.452,334.909L248.452,334.909z
		 M255.831,265.439c2.608,0,4.88,1.477,4.88,3.973c0,2.498-3.631,5.901-5.901,5.901c-2.271,0-5.223-1.477-5.223-4.313
		C249.586,268.162,253.222,265.439,255.831,265.439L255.831,265.439z M249.928,302.214c0,4.428,3.861,9.423,9.422,9.423
		c4.085,0,10.67-12.372,10.67-1.36c0,5.222-6.696,8.171-12.828,8.171c-6.469,0-14.418-6.808-14.418-13.166
		C242.775,294.495,249.928,297.787,249.928,302.214L249.928,302.214z M211.561,342.625c0-8.402,5.561-4.428,5.561-0.111
		c0,3.178,5.789,7.379,11.126,7.379c1.363,0,5.108,0.226,5.108-1.138c0-2.948,8.173-5.107,8.173,2.384
		c0,3.973-5.107,5.339-11.807,5.339C220.642,356.478,211.561,351.027,211.561,342.625L211.561,342.625z M244.592,382.584
		c-6.356,0-16.573-8.971-16.573-15.098c0-7.604,6.585-5.336,6.585-1.363c0,3.973,3.404,8.288,9.875,8.288
		c2.499,0,5.221,0.34,5.221-1.249c0-5.107,5.562-4.996,5.562,0C255.263,376.908,250.95,382.584,244.592,382.584L244.592,382.584z
		 M271.608,419.363c-7.944,0-17.708-5.45-17.708-9.537c0-6.696,6.922-1.929,6.922-1.929s3.406,4.881,10.672,4.881
		c2.5,0,5.564-0.565,5.564-2.952c0-2.383,5.448-4.652,5.448,2.609C282.506,416.634,277.738,419.363,271.608,419.363L271.608,419.363
		z M294.995,439.681c-6.47,0-15.439-3.858-15.439-10.784c0-4.767,6.924-3.632,6.924,0c0,3.064,6.47,3.973,9.417,3.973
		c0.909,0,8.403-3.292,8.403,2.385C304.301,439,300.893,439.681,294.995,439.681L294.995,439.681z"/>
</g>
</svg>
