<?xml version="1.0" encoding="UTF-8" standalone="no"?>
<svg
   xmlns:dc="http://purl.org/dc/elements/1.1/"
   xmlns:cc="http://creativecommons.org/ns#"
   xmlns:rdf="http://www.w3.org/1999/02/22-rdf-syntax-ns#"
   xmlns:svg="http://www.w3.org/2000/svg"
   xmlns="http://www.w3.org/2000/svg"
   xmlns:sodipodi="http://sodipodi.sourceforge.net/DTD/sodipodi-0.dtd"
   xmlns:inkscape="http://www.inkscape.org/namespaces/inkscape"
   version="1.1"
   id="Layer_1"
   x="0px"
   y="0px"
   viewBox="0 0 1000 1000"
   xml:space="preserve"
   sodipodi:docname="Cesena.svg"
   width="1000"
   height="1000"
   inkscape:version="1.0.1 (3bc2e813f5, 2020-09-07)"><metadata
   id="metadata41"><rdf:RDF><cc:Work
       rdf:about=""><dc:format>image/svg+xml</dc:format><dc:type
         rdf:resource="http://purl.org/dc/dcmitype/StillImage" /><dc:title></dc:title></cc:Work></rdf:RDF></metadata><defs
   id="defs39" /><sodipodi:namedview
   pagecolor="#ffffff"
   bordercolor="#666666"
   borderopacity="1"
   objecttolerance="10"
   gridtolerance="10"
   guidetolerance="10"
   inkscape:pageopacity="0"
   inkscape:pageshadow="2"
   inkscape:window-width="1920"
   inkscape:window-height="1017"
   id="namedview37"
   showgrid="false"
   inkscape:zoom="0.79103109"
   inkscape:cx="289.45577"
   inkscape:cy="502.63709"
   inkscape:window-x="-8"
   inkscape:window-y="-8"
   inkscape:window-maximized="1"
   inkscape:current-layer="Layer_1"
   inkscape:document-rotation="0" />
















<g
   id="g883"
   transform="matrix(6.1197145,0,0,4.5238095,-1386.054,-1275.4422)"><path
     d="m 307,502 c 17.973,-7.52 77.618,-47.829 77.618,-125.519 0,-32.546 -10.685,-55.33 -10.685,-55.33 h -16.84 l -4.387,-6.792 -4.245,-20.236 L 307,292 l -41.462,2.123 -4.245,20.236 -4.388,6.792 h -16.839 c 0,0 -10.684,22.784 -10.684,55.33 0,77.69 59.646,117.999 77.618,125.519"
     id="path2" /><path
     style="fill:#ffffff"
     d="m 349.184,312.804 c -0.936,-4.457 -2.729,-13 -3.287,-15.679 -4.256,-0.219 -38.598,-1.977 -38.896,-1.992 -0.299,0.015 -34.641,1.773 -38.896,1.992 -0.561,2.678 -2.353,11.22 -3.288,15.677 z"
     id="path4" /><path
     style="fill:#ffffff"
     d="m 307,494.844 c 8.721,-4.298 25.52,-15.283 40.542,-33.433 20.289,-24.513 30.577,-53.087 30.577,-84.93 0,-25.471 -6.822,-44.715 -9.633,-52.201 h -4.883 c 0,0 10.084,21.636 10.084,51.883 0,71.64 -54.446,107.726 -66.688,112.925 -12.24,-5.199 -66.687,-41.285 -66.687,-112.925 0,-30.247 10.083,-51.883 10.083,-51.883 h -4.882 c -2.811,7.486 -9.634,26.729 -9.634,52.201 0,31.843 10.288,60.417 30.577,84.93 15.024,18.15 31.822,29.135 40.544,33.433"
     id="path6" /><path
     style="fill:#ffffff"
     d="m 270.349,448.811 c 1.422,1.922 2.902,3.822 4.452,5.693 3.293,3.979 6.659,7.563 9.982,10.785 v -149.94 h -14.434 z m 73.299,-133.462 h -14.431 v 149.94 c 3.322,-3.223 6.688,-6.807 9.98,-10.785 1.551,-1.871 3.03,-3.771 4.452,-5.693 v -133.46 z m -43.299,162.88 c 2.406,1.689 4.649,3.131 6.651,4.317 2.002,-1.186 4.246,-2.628 6.65,-4.317 v -162.88 h -13.301 z"
     id="path8" /><path
     style="fill:#ffffff"
     d="m 359.217,330.066 h -0.566 v 92.085 c 5.74,-14.223 8.639,-29.485 8.639,-45.669 -0.001,-24.624 -5.528,-37.876 -8.073,-46.416 m -112.506,46.415 c 0,16.185 2.898,31.448 8.639,45.669 v -92.085 h -0.567 c -2.546,8.541 -8.072,21.793 -8.072,46.416"
     id="path10" /><path
     style="fill:#ffffff"
     d="m 308.56,326.638 c -0.547,0.927 -0.822,2.572 0.975,5.139 1.148,1.64 1.497,3.53 0.865,4.701 -0.625,1.157 -2.064,1.361 -3.161,1.328 -0.14,-0.005 -3.475,-0.16 -4.09,-3.025 -0.201,-0.94 -0.869,-1.62 -1.787,-1.816 -0.999,-0.214 -2.074,0.195 -2.677,1.017 -0.655,0.893 -0.65,2.075 0.012,3.242 1.103,1.943 0.773,2.328 0.049,3.172 -0.31,0.363 -1.205,0.99 -1.964,0.869 -0.525,-0.084 -0.97,-0.561 -1.325,-1.418 -0.393,-0.949 -1.16,-1.534 -2.053,-1.566 -0.868,-0.031 -1.692,0.475 -2.1,1.291 -0.496,0.992 -0.288,2.21 0.558,3.26 1.303,1.616 1.094,2.1 0.982,2.36 -0.326,0.768 -0.762,4.62 -0.519,7.759 0.041,0.528 -0.202,0.938 -0.306,1.012 -0.536,0.307 -1.034,1.117 -2.319,3.355 l -0.999,1.704 c -0.629,1.023 -1.199,1.064 -2.755,1.035 l -0.665,-0.009 c -1.591,0 -2.712,1.151 -3.115,2.293 -0.403,1.138 -0.144,2.26 0.679,2.925 0.792,0.64 2.956,2.634 4.098,4.005 0.531,0.635 1.387,0.972 2.184,0.86 0.513,-0.072 1.464,-0.401 2.074,-1.784 0.654,-1.482 3.031,-4.386 5.419,-5.751 2.287,-1.308 5.467,-1.711 7.417,0.332 0.498,0.523 1.05,0.775 1.64,0.753 0.947,-0.037 1.557,-0.787 1.922,-1.237 l 0.172,-0.206 c 0.201,-0.185 1.061,-0.35 1.384,-0.258 0.897,0.257 1.569,0.005 2.114,-0.461 -0.074,0.122 -0.145,0.246 -0.189,0.401 -0.048,0.173 -0.068,0.345 -0.068,0.512 0,0.645 0.314,1.238 0.576,1.659 0.18,0.287 0.217,0.462 0.217,0.514 v 0.008 c -0.031,-0.02 -0.423,0.1 -1.054,-0.049 -0.312,-0.073 -1.258,-0.296 -2.006,0.258 -0.753,0.559 -0.811,1.496 -0.866,2.324 l -0.033,0.478 c -0.076,0.893 -0.563,2.034 -1.248,2.407 -0.147,0.079 -0.595,0.323 -1.505,-0.165 -0.911,-0.487 -1.963,-0.917 -2.856,-0.409 -1.013,0.577 -1.074,1.909 -1.126,3.083 -0.047,1.084 -0.642,2.083 -1.447,2.431 -0.509,0.22 -1.009,0.122 -1.489,-0.29 -0.356,-0.306 -1.436,-1.236 -2.635,-0.901 -1.226,0.344 -1.664,1.69 -2.052,2.876 l -0.103,0.317 c -0.05,0.146 -0.199,0.595 -0.971,0.881 -1.258,0.464 -3.367,0.192 -4.702,-0.608 -1.079,-0.647 -2.01,-0.758 -2.769,-0.329 -1.301,0.737 -1.306,2.616 -1.306,3.869 -10e-4,-0.014 -0.019,0.217 -0.019,0.217 -0.121,1.701 -0.287,4.033 -4.398,4.254 -0.812,0.045 -2.322,0.128 -2.855,1.307 -0.557,1.23 0.393,2.701 1.391,3.976 0.885,1.127 1.244,2.19 1.04,3.076 -0.154,0.671 -0.639,1.248 -1.329,1.584 l -0.126,0.061 c -1.031,0.5 -2.006,0.973 -2.201,2.03 -0.189,1.022 0.476,1.981 1.533,3.109 0.406,0.433 0.571,0.855 0.52,1.328 -0.107,1 -1.13,1.994 -1.491,2.242 -0.003,0.002 -0.165,0.098 -0.165,0.098 -0.533,0.307 -1.642,0.947 -1.656,2.238 -0.014,1.286 1.08,2.526 3.547,4.019 0.668,0.403 0.741,0.614 0.742,0.616 0.029,0.316 -0.926,1.447 -1.439,2.056 -0.726,0.86 -1.63,2.146 -1.092,3.353 0.562,1.262 2.234,1.483 3.795,1.532 2.833,0.089 3.787,0.117 4.411,3.778 0.288,1.697 1.093,2.225 1.717,2.365 0.926,0.213 1.916,-0.315 2.716,-1.444 0.105,-0.147 0.589,-0.358 1.142,-0.232 0.854,0.196 1.451,1.068 1.68,2.455 0.117,0.711 0.471,2.872 2.056,3.289 0.986,0.26 2.071,-0.273 3.056,-1.496 0.325,-0.408 0.621,-0.553 0.684,-0.541 0.003,0 0.391,0.141 0.839,1.414 0.545,1.547 1.376,2.387 2.471,2.5 1.505,0.151 2.684,-1.229 3.013,-1.775 -0.02,0.029 0.036,-0.022 0.169,-0.018 0.134,0.003 0.636,0.087 1.432,0.987 1.961,2.219 4.012,2.975 5.239,3.427 0.733,0.272 1.323,1.267 1.323,1.657 0,0.027 -0.003,0.052 -0.008,0.072 -0.01,0.003 -0.159,0.173 -0.159,0.173 -0.297,0.334 -0.689,0.774 -0.689,1.382 0,0.082 0.008,0.167 0.024,0.256 0.15,0.861 0.948,1.375 2.731,2.342 0.469,0.254 0.896,0.838 0.914,1.248 v 0.036 c 0,0.107 -0.03,0.304 -0.381,0.535 -0.631,0.422 -1.457,1.089 -1.457,2.062 0,0.022 0,0.045 0,0.065 0.043,1.089 1.08,1.673 1.766,2.06 0.316,0.181 0.421,0.346 0.44,0.395 -0.022,0 -0.082,0.06 -0.193,0.129 -0.874,0.547 -1.012,1.243 -1.012,1.624 0,0.009 0,0.017 0,0.025 0.017,1.055 0.985,1.776 1.561,2.115 0.078,0.045 0.228,0.207 0.228,0.323 v 0.003 c -0.004,0.143 -0.25,0.545 -1.15,1.032 -1.042,0.564 -1.335,1.284 -1.4,1.79 -0.01,0.081 -0.015,0.162 -0.015,0.244 0,0.623 0.3,1.242 0.862,1.764 0.142,0.133 0.162,0.195 0.162,0.197 -0.002,0 -0.032,0.33 -0.862,1.064 l -0.065,0.058 -0.068,0.082 c -0.008,0.011 -0.955,1.149 -3.447,1.898 -1.348,0.402 -1.859,0.891 -2.39,1.486 l -0.376,0.391 c -0.698,0.623 -0.985,0.879 -2.178,-0.164 -1.668,-1.459 -2.889,-0.629 -3.476,-0.229 l -0.277,0.178 c -0.361,0.2 -0.649,0.359 -1.694,-0.684 l -0.277,-0.278 c -1.318,-1.327 -2.187,-2.201 -3.947,-2.873 -0.372,-0.143 -0.619,-0.33 -0.679,-0.514 -0.013,-0.039 -0.017,-0.079 -0.017,-0.119 0,-0.129 0.055,-0.262 0.113,-0.35 0.272,-0.407 0.376,-0.773 0.376,-1.101 0,-0.716 -0.499,-1.235 -0.813,-1.562 l -0.283,-0.301 c -0.082,-0.094 -0.154,-0.312 -0.154,-0.576 0,-0.035 0.002,-0.073 0.005,-0.111 0.022,-0.284 0.118,-0.453 0.159,-0.486 l 0.243,-0.199 0.142,-0.388 -0.035,0.108 c 0.001,-0.004 0.159,-0.307 0.794,-0.848 0.249,-0.143 0.736,-0.463 1.838,-1.322 0.426,-0.33 0.979,-0.18 1.323,0.048 0.959,0.644 1.608,0.583 2.244,0.457 0,0 0.012,-0.002 0.014,-0.002 0.055,0.101 0.111,0.204 0.111,0.204 0.13,0.293 0.217,0.783 0.217,1.113 0,0.064 -0.015,0.098 -0.022,0.146 -0.061,-0.008 -0.099,-0.005 -0.231,-0.051 -1.937,-0.672 -2.93,-0.198 -3.422,0.316 -0.54,0.565 -0.676,1.42 -0.354,2.229 0.409,1.018 1.335,2.758 2.948,2.994 1.109,0.164 2.19,-0.401 3.214,-1.682 0.001,0 0.225,-0.248 0.348,-0.388 0.414,0.032 0.768,-0.088 1.046,-0.343 0.678,-0.62 0.912,-2.092 0.82,-2.913 0.014,-0.027 0.556,-1.003 0.556,-1.003 0.394,-1.18 0.564,-4.196 -1.425,-5.977 -1.114,-0.998 -1.332,-1.483 -1.522,-1.912 l -0.244,-0.492 c -0.658,-1.148 -1.664,-0.946 -2.33,-0.813 l -0.586,0.108 c -0.607,0.092 -0.807,-0.007 -1.544,-0.362 l -0.51,-0.242 c -1.677,-0.773 -4.535,0.055 -5.572,2.245 -0.584,1.235 -1.413,2.105 -2.372,3.114 l -0.545,0.576 c -1.231,1.32 -2.326,2.816 -1.028,5.291 0.48,0.921 0.193,1.257 -0.376,1.925 l -0.298,0.36 c -1.247,1.604 0.084,3.082 0.654,3.715 0.629,0.701 1.295,1.865 1.363,2.884 0.115,1.748 4.037,7.854 7.981,8.163 2.204,0.174 2.326,0.298 2.619,0.6 l 0.566,0.533 c 1.655,1.378 3.426,1.311 5.12,-0.195 0.105,-0.093 0.215,-0.131 0.349,-0.119 0.227,0.02 0.479,0.174 0.673,0.418 0.991,1.24 3.272,1.639 5.547,-0.069 0.414,-0.311 0.867,-0.446 1.103,-0.328 1.611,0.802 2.808,-0.793 3.681,-1.958 0.918,-1.223 1.18,-1.244 1.813,-1.296 1.787,-0.148 2.142,-1.058 2.513,-2.537 0.112,-0.454 0.12,-0.479 1.313,-0.478 h 0.223 c 0.301,0 1.215,0 1.784,-0.735 0.29,-0.376 0.399,-0.816 0.399,-1.318 0,-0.603 -0.16,-1.292 -0.359,-2.062 0,0 -0.008,-0.039 -0.01,-0.049 0.162,0.014 0.328,0.028 0.328,0.028 l 0.715,0.083 c 1.054,0.074 1.914,-0.326 2.301,-1.072 0.145,-0.277 0.215,-0.572 0.215,-0.887 0,-0.709 -0.363,-1.51 -1.087,-2.397 -0.25,-0.305 -0.304,-0.447 -0.321,-0.514 0.1,-0.07 0.358,-0.205 0.969,-0.317 0.845,-0.154 1.873,-0.83 2.136,-1.948 0.032,-0.141 0.06,-0.314 0.06,-0.512 0,-0.607 -0.249,-1.439 -1.304,-2.232 -0.36,-0.271 -0.386,-0.483 -0.386,-0.588 0,-0.009 0.003,-0.017 0.003,-0.022 0.01,-0.522 0.579,-1.224 1.122,-1.601 0.724,-0.5 1.191,-1.369 1.285,-2.384 0.011,-0.126 0.016,-0.252 0.016,-0.378 0,-1.243 -0.542,-2.515 -1.494,-3.466 -0.345,-0.344 -0.408,-0.609 -0.408,-0.795 0,-0.026 0.002,-0.051 0.004,-0.075 0.039,-0.464 0.465,-0.991 0.863,-1.272 0.697,-0.486 1.083,-1.167 1.083,-1.898 0,-0.072 -0.005,-0.147 -0.012,-0.221 -0.123,-1.142 -1.104,-2.08 -3,-2.871 -0.23,-0.096 -0.609,-0.252 -0.609,-0.947 0,-0.209 0.034,-0.469 0.12,-0.793 0.085,-0.321 0.161,-0.686 0.161,-1.053 0,-0.387 -0.086,-0.775 -0.335,-1.115 -0.527,-0.721 -1.401,-0.767 -2.327,-0.813 l -0.3,-0.016 c -0.428,-0.024 -0.867,-0.327 -1.045,-0.721 -0.055,-0.119 -0.081,-0.24 -0.081,-0.362 0,-0.229 0.095,-0.464 0.28,-0.699 0.174,-0.222 0.625,-0.792 0.625,-1.464 0,-0.185 -0.037,-0.38 -0.119,-0.577 -0.392,-0.915 -1.432,-1.017 -2.271,-1.097 l -0.839,-0.122 c -1.031,-0.317 -1.495,-0.605 -1.495,-1.319 0,-0.171 0.026,-0.365 0.078,-0.592 0.091,-0.398 0.165,-0.805 0.165,-1.19 0,-0.429 -0.091,-0.83 -0.35,-1.171 -0.463,-0.612 -1.156,-0.641 -1.614,-0.659 l -0.576,-0.069 c -0.224,-0.067 -0.899,-0.612 -1.187,-1.496 -0.086,-0.265 -0.131,-0.535 -0.131,-0.806 0,-0.646 0.25,-1.303 0.741,-1.961 0.286,-0.379 0.427,-0.83 0.427,-1.267 0,-0.458 -0.156,-0.901 -0.467,-1.233 -0.248,-0.267 -1.182,-1.052 -2.792,-0.006 -0.493,0.305 -2.745,0.055 -3.435,-0.781 -0.09,-0.108 -0.326,-0.397 0.418,-1.194 0.744,-0.798 1.043,-1.613 0.888,-2.425 -0.177,-0.922 -0.914,-1.678 -2.252,-2.311 -0.422,-0.199 -0.582,-0.47 -0.569,-0.564 0.014,-0.127 0.422,-0.674 2.129,-1.014 1.629,-0.326 1.912,-1.31 1.959,-1.717 0.117,-1.025 -0.672,-1.994 -2.16,-2.662 -0.362,-0.162 -0.42,-0.484 -0.367,-0.613 0.043,-0.106 0.373,-0.17 0.943,0.031 1.332,0.477 2.326,0.389 2.953,-0.259 0.385,-0.401 0.525,-0.902 0.525,-1.422 0,-0.638 -0.21,-1.295 -0.427,-1.849 -0.006,-0.034 -0.024,-0.126 -0.024,-0.264 0,-0.333 0.106,-0.898 0.73,-1.348 1.481,-1.069 1.677,-0.804 2.031,-0.322 0.811,1.11 2.477,1.456 3.633,0.752 0.482,-0.294 1.944,-1.472 0.533,-4.294 -0.474,-0.95 -0.453,-1.796 0.057,-2.321 0.578,-0.594 1.891,-0.853 3.518,-0.093 1.1,0.513 2.381,0.275 3.043,-0.569 0.359,-0.456 1.026,-1.726 -0.531,-3.675 -0.502,-0.627 -0.273,-1.496 0.11,-2.099 0.595,-0.936 1.94,-1.873 3.792,-1.433 1.418,0.339 3.201,0.129 3.988,-1.1 0.734,-1.146 0.371,-2.66 -1.076,-4.501 -0.672,-0.858 -0.542,-1.416 -0.501,-1.6 0.36,-1.556 3.151,-2.903 4.069,-3.346 l 0.289,-0.141 c 0.697,-0.349 1.867,-0.934 1.877,-2.134 0.008,-1.059 -0.881,-1.976 -2.981,-3.071 -0.838,-0.438 -2.097,-1.747 -2.138,-3.171 -0.033,-1.116 0.71,-2.138 2.207,-3.037 1.252,-0.75 1.451,-2.358 0.851,-3.387 -0.552,-0.948 -1.796,-1.517 -3.329,-0.649 l -0.387,0.219 c -1.637,0.934 -1.977,1.128 -3.292,0.384 -0.615,-0.347 -1.015,-1.187 -0.99,-2.09 0.013,-0.463 0.169,-1.604 1.373,-2.206 1.004,-0.502 1.662,-1.516 1.72,-2.647 0.051,-1.06 -0.435,-2.047 -1.27,-2.575 -0.584,-0.369 -1.852,-0.832 -3.801,0.213 -1.752,0.941 -3.156,1.262 -3.852,0.882 -0.582,-0.317 -0.771,-1.223 -0.824,-1.927 -0.043,-0.531 0.432,-1.126 1.41,-1.768 1.438,-0.94 1.565,-2.446 0.948,-3.447 -0.657,-1.066 -2.247,-1.682 -3.897,-0.723 -0.002,0 -0.231,0.14 -0.231,0.14 -2.689,1.659 -4.366,1.657 -5.437,-0.004 -0.022,-0.04 -1.002,-1.776 -0.394,-5.037 0.373,-1.999 0.159,-3.551 -0.635,-4.614 -0.637,-0.854 -1.596,-1.353 -2.85,-1.484 -1.246,-0.125 -2.376,0.407 -2.961,1.397"
     id="path12" /><path
     d="m 285.281,361.131 c 1.821,0 3.222,0.281 4.342,-1.54 0.988,-1.607 2.453,-4.412 2.941,-4.693 0.492,-0.281 0.912,-1.121 0.841,-2.031 -0.238,-3.076 0.211,-6.722 0.42,-7.214 0.21,-0.489 0.631,-1.33 -1.12,-3.501 -1.751,-2.171 0.911,-3.922 1.751,-1.89 1.435,3.468 4.273,1.82 5.112,0.839 0.84,-0.98 1.542,-1.82 0.072,-4.412 -1.472,-2.591 2.031,-3.642 2.451,-1.682 0.805,3.761 5.116,3.881 5.116,3.881 5.048,0.151 5.63,-4.284 3.215,-7.732 -2.414,-3.449 -0.654,-5.005 0.983,-4.832 1.577,0.165 3.222,1.12 2.532,4.822 -0.705,3.779 0.547,5.823 0.547,5.823 2.283,3.537 6.332,0.674 7.123,0.213 2.053,-1.192 3.664,1.118 1.813,2.328 -0.773,0.509 -2,1.451 -1.898,2.759 0.25,3.146 2.268,4.063 6.272,1.914 3.555,-1.906 4.464,2.03 2.353,3.087 -2.703,1.349 -2.418,5.086 -0.432,6.207 1.983,1.122 2.758,0.518 4.742,-0.603 1.984,-1.121 2.684,1.389 1.391,2.164 -4.996,2.998 -1.996,7.062 -0.014,8.097 3.693,1.926 2.328,2.673 1.121,3.276 -1.204,0.604 -7.064,3.102 -4.225,6.726 2.848,3.621 0,4.31 -1.809,3.879 -3.979,-0.945 -6.727,3.103 -5.002,5.261 1.725,2.154 0.089,3.191 -1.207,2.585 -3.635,-1.697 -6.638,0.606 -5,3.88 1.639,3.279 -1.381,3.708 -2.326,2.415 -0.951,-1.293 -1.986,-1.034 -3.535,0.087 -1.552,1.121 -1.121,2.758 -1.121,2.758 1.129,2.831 -0.431,2.674 -1.641,2.242 -2.658,-0.948 -3.102,1.815 -1.381,2.59 1.726,0.773 2.157,1.982 0.432,2.327 -3.864,0.773 -3.448,2.846 -1.81,3.621 1.64,0.774 2.239,1.725 1.034,3.017 -2.969,3.188 2.935,4.57 4.398,3.623 1.465,-0.949 1.895,0.257 1.379,0.947 -2.238,2.984 0,5.605 1.123,5.947 1.121,0.346 2.154,-0.43 1.635,1.813 -0.514,2.243 1.037,2.846 2.158,3.19 1.121,0.346 3.361,-0.086 2.071,1.552 -1.296,1.64 0.083,3.448 1.636,3.534 1.549,0.088 2.243,0 1.811,1.64 -0.433,1.64 0.083,2.586 1.121,3.017 2.971,1.239 2.586,2.502 1.722,3.104 -0.859,0.607 -2.154,2.243 -0.603,3.795 1.554,1.552 1.468,3.795 0.345,4.57 -1.119,0.776 -2.501,2.673 -0.774,3.967 1.721,1.294 0.519,2.587 -0.432,2.761 -0.95,0.171 -2.848,0.688 -1.295,2.583 1.553,1.897 0.693,2.675 -0.516,2.588 -1.207,-0.084 -2.672,-0.69 -2.156,1.294 0.52,1.983 0.52,2.758 -0.775,2.758 -1.296,0 -2.24,-0.086 -2.586,1.295 -0.348,1.379 -0.52,1.637 -1.552,1.722 -1.038,0.087 -1.554,0.345 -2.591,1.728 -1.032,1.377 -1.633,1.983 -2.328,1.639 -0.688,-0.346 -1.551,-0.088 -2.238,0.43 -1.707,1.28 -3.363,1.121 -4.052,0.259 -0.689,-0.864 -1.811,-1.12 -2.587,-0.432 -1.503,1.337 -2.674,1.032 -3.706,0.173 -1.034,-0.861 -0.516,-1.123 -3.794,-1.38 -3.277,-0.257 -6.899,-5.863 -6.984,-7.155 -0.087,-1.293 -0.862,-2.672 -1.639,-3.535 -0.775,-0.863 -1.206,-1.554 -0.601,-2.328 0.601,-0.779 1.722,-1.637 0.775,-3.451 -0.948,-1.81 -0.346,-2.756 0.861,-4.049 1.207,-1.295 2.33,-2.33 3.105,-3.969 0.775,-1.639 3.018,-2.24 4.139,-1.724 1.121,0.517 1.55,0.86 2.672,0.692 1.122,-0.174 1.466,-0.433 1.811,0.168 0.345,0.606 0.345,1.209 1.983,2.676 1.639,1.467 1.379,4.053 1.121,4.828 -0.259,0.775 -0.69,0.689 -0.605,1.464 0.086,0.776 -0.258,2.157 -0.688,2.071 -0.432,-0.086 -0.604,-0.086 -1.294,0.776 -2.476,3.093 -3.965,-0.175 -4.311,-1.036 -0.345,-0.861 0.174,-1.898 2.415,-1.121 2.24,0.774 1.724,-1.896 1.379,-2.673 -0.345,-0.775 -0.604,-0.946 -1.121,-0.86 -0.518,0.084 -0.863,0.258 -1.638,-0.261 -0.777,-0.518 -1.811,-0.603 -2.587,0 -1.511,1.177 -1.811,1.296 -1.811,1.296 -1.046,0.87 -1.169,1.352 -1.169,1.352 -0.707,0.548 -0.786,2.039 -0.156,2.746 0.627,0.707 1.098,0.943 0.627,1.648 -0.471,0.709 -0.549,1.965 1.099,2.592 1.649,0.627 2.356,1.412 3.846,2.906 1.493,1.489 2.278,1.256 2.985,0.863 0.706,-0.393 1.256,-1.18 2.513,-0.08 1.976,1.729 2.906,0.785 3.61,0.158 0.707,-0.629 0.785,-1.18 2.357,-1.649 2.926,-0.877 3.987,-2.263 3.987,-2.263 1.622,-1.432 1.388,-2.245 0.72,-2.865 -0.668,-0.621 -0.814,-1.433 0.332,-2.053 2.725,-1.475 1.526,-2.913 0.953,-3.247 -0.572,-0.335 -1.668,-1.192 -0.523,-1.91 1.145,-0.715 0.809,-1.764 -0.287,-2.386 -1.098,-0.619 -1.957,-1.193 -0.24,-2.342 1.725,-1.146 0.527,-3.051 -0.617,-3.674 -2.818,-1.526 -2.392,-1.574 -1.576,-2.531 0.766,-0.902 -0.433,-2.911 -1.719,-3.389 -1.18,-0.435 -3.055,-1.1 -4.869,-3.152 -1.815,-2.055 -3.057,-1.286 -3.343,-0.809 -0.287,0.477 -2.339,2.861 -3.533,-0.529 -1.194,-3.389 -2.817,-1.907 -3.389,-1.191 -0.576,0.715 -2.532,2.77 -3.2,-1.289 -0.668,-4.059 -3.962,-3.82 -4.774,-2.674 -0.812,1.147 -2.101,1.766 -2.482,-0.477 -0.749,-4.395 -2.389,-4.584 -5.444,-4.679 -3.056,-0.097 -3.724,-0.955 -1.908,-3.104 1.813,-2.149 2.481,-3.057 0.428,-4.297 -5.158,-3.121 -2.29,-4.106 -1.672,-4.537 0.623,-0.428 3.296,-2.911 1.147,-5.201 -2.149,-2.293 -1.289,-2.627 0.477,-3.487 1.767,-0.859 3.104,-3.198 0.668,-6.302 -2.434,-3.104 -1.097,-3.436 0.67,-3.533 5.349,-0.289 5.307,-3.889 5.441,-5.538 0,-1.576 0.048,-4.059 2.435,-2.626 2.207,1.323 6.446,1.576 7.258,-0.86 0.563,-1.69 1.001,-3.582 3.057,-1.814 2.052,1.767 4.608,-0.238 4.723,-2.912 0.098,-2.15 0.337,-2.865 2.389,-1.768 2.85,1.528 4.202,-1.431 4.344,-3.101 0.12,-1.38 -0.045,-2.485 1.577,-2.102 1.621,0.382 3.103,-0.334 2.005,-2.099 -0.765,-1.227 -0.335,-1.624 0.24,-1.911 0.571,-0.287 1.207,-1.103 0.858,-2.196 -0.336,-1.051 -1.67,-0.765 -2.148,0.095 -0.811,1.456 -1.337,1.623 -2.005,1.432 -0.669,-0.19 -2.005,0.048 -2.484,0.573 -0.476,0.526 -1.147,1.718 -2.148,0.669 -2.334,-2.447 -6.063,-2.053 -8.737,-0.525 -2.673,1.529 -5.156,4.631 -5.872,6.254 -0.716,1.623 -1.958,1.24 -2.436,0.668 -1.19,-1.427 -3.385,-3.454 -4.249,-4.153 -1.124,-0.911 -0.066,-3.295 1.755,-3.295 m 29.578,-19.302 c 0,0 -3.105,3.166 -4.59,5.767 0,0 -1.178,1.798 0.929,2.79 2.108,0.992 2.358,1.55 4.034,-0.125 1.672,-1.674 2.664,-2.542 3.531,-3.968 0.87,-1.426 0.25,-1.55 -0.308,-2.356 -0.559,-0.806 -0.559,-4.341 -3.596,-2.108 m 8.791,11.042 c -3.047,1.998 -2.871,2.034 -5.152,4.203 -1.254,1.189 -0.125,3.532 2.408,2.505 1.213,-0.491 2.164,-0.852 3.314,-1.116 0.87,-0.199 1.545,-0.264 2.436,-0.901 1.169,-0.835 0.431,-1.342 -0.271,-1.987 -1.005,-0.928 -0.843,-0.939 -1.088,-2.172 -0.167,-0.866 -1.061,-0.915 -1.647,-0.532 m -0.418,-3.875 c -0.336,-0.135 -0.941,0.11 -1.588,-0.558 -0.865,-0.891 -1.578,-0.465 -2.5,0.146 -0.854,0.572 -3.373,2.879 -3.801,4.732 -0.563,2.451 1.01,3.145 2.66,2.112 1.715,-1.07 4.893,-3.978 4.893,-3.978 1.59,-1.284 0.754,-2.286 0.336,-2.454 m -3.373,14.444 c 1.42,0.778 4.052,0.766 5.839,1.732 1.551,0.834 2.224,0.941 2.561,0.403 0.335,-0.538 0.673,-0.605 1.345,-0.941 0.674,-0.338 0.875,-1.012 0.406,-1.55 -0.474,-0.538 -0.486,-0.301 -0.673,-1.347 -0.219,-1.2 0.199,-1.884 -2.224,-1.749 -2.426,0.135 -7.217,1.227 -7.217,1.227 -0.605,0.203 -1.97,1.168 -0.037,2.225 m -1.743,1.359 c -0.958,0 -1.31,0.654 -1.352,1.591 -0.082,2.121 0.654,1.388 2.43,2.316 1.777,0.927 2.238,1.621 3.861,3.164 1.623,1.546 4.875,-1.406 3.473,-3.438 -1.461,-2.117 -3.971,-2.622 -6.241,-3.073 -0.428,-0.085 -1.25,-0.56 -2.171,-0.56 m -5.431,4.874 c 0.891,2.489 3.883,4.924 4.182,5.123 0.424,0.281 0.893,0.562 1.27,1.314 1.295,2.594 2.229,0.607 2.35,0.142 0.141,-0.552 -0.063,-0.929 0.373,-1.456 0.527,-0.64 0.804,-1.32 0.095,-1.786 -0.299,-0.198 -0.751,-0.283 -1.361,-0.987 -1.575,-1.821 -5.311,-4.088 -5.311,-4.088 -0.329,-0.19 -2.491,-0.754 -1.598,1.738 m -3.893,5.289 c 0.731,0.807 2.567,3.227 3.595,5.354 1.028,2.127 2.788,1.028 3.229,0.588 0.44,-0.44 0.54,-1.206 0.213,-1.675 -0.364,-0.525 -0.709,-0.603 -1.024,-1.553 -0.867,-2.623 -1.104,-3.234 -1.613,-3.963 -0.355,-0.511 -0.303,-0.322 -0.952,-1.468 -0.794,-1.399 -2.497,-0.439 -2.497,-0.439 -2.055,0.881 -1.684,2.348 -0.951,3.156 m -5.006,0.082 c -0.67,0.669 -0.859,1.432 -2.101,1.909 -1.241,0.478 -1.717,1.623 -0.668,2.291 1.05,0.668 2.864,2.194 4.966,4.583 2.1,2.388 2.959,0.572 3.722,0.191 0.763,-0.382 1.432,-1.53 0.382,-2.388 -3.312,-2.71 -4.772,-6.109 -4.772,-6.109 -0.193,-0.859 -0.861,-1.147 -1.529,-0.477 m -13.451,8.279 c 0,0 3.634,4.365 6.962,6.176 1.057,0.575 0.947,0.322 1.763,1.177 0.866,0.908 4.086,2.647 5.294,1.471 1.238,-1.208 1.385,-2.251 0,-3.726 -1.238,-1.318 -1.765,-2.256 -2.647,-3.824 -0.881,-1.569 -3.284,-3.053 -3.921,-4.314 -0.442,-0.871 -1.274,-2.745 -2.845,-0.391 -1.567,2.352 -5.81,-0.262 -4.606,3.431 m -4.74,0.798 c -0.657,1.068 -0.73,1.302 -1.511,2.188 -3.178,3.599 5.206,7.239 6.613,7.708 1.407,0.466 3.698,1.912 3.698,1.912 5.202,2.681 5.466,-1.446 3.468,-2.363 -1.912,-0.878 -5.36,-3.151 -6.778,-5.359 -1.419,-2.208 -4.085,-6.378 -5.49,-4.086 m -4.116,8.123 c 0.209,0.989 0.365,1.199 0,2.552 -0.791,2.946 0.209,3.124 1.563,3.383 1.354,0.261 1.868,0.601 4.218,1.253 7.915,2.186 7.967,2.133 8.226,0.519 0.133,-0.824 -0.624,-1.093 -1.352,-1.146 -5.991,-0.427 -10.883,-6.821 -10.883,-6.821 -0.47,-0.989 -1.979,-0.729 -1.772,0.26 m -1.406,8.539 c 0.416,0.99 0.366,2.238 -0.468,3.438 -0.833,1.198 -1.248,2.551 1.197,2.29 2.449,-0.259 7.444,0.419 9.895,0.468 2.497,0.055 2.289,-0.623 2.497,-1.354 0.195,-0.68 -0.311,-1.404 -0.937,-1.56 -0.991,-0.246 -2.238,-0.156 -3.279,-0.676 -0.957,-0.478 -3.593,-2.19 -4.687,-2.343 -1.094,-0.157 -2.448,-1.145 -2.448,-1.145 -0.937,-0.678 -2.187,-0.107 -1.77,0.882 m 12.082,7.707 c -1.252,0.419 -1.926,0.522 -5.416,0.156 -2.036,-0.211 -4.112,-0.312 -4.946,0.781 -0.613,0.805 -1.564,2.969 0.051,4.479 3.439,3.217 11.664,-3.541 11.664,-3.541 0.99,-0.99 -0.104,-2.29 -1.353,-1.875 m -5.311,10.67 c 1.236,1.013 4.325,0.111 5.279,-0.898 0.955,-1.011 4.325,-3.65 5.448,-3.988 1.125,-0.336 1.125,-1.572 0.563,-1.965 -0.563,-0.395 -1.573,-0.111 -2.135,0.28 -0.561,0.392 -1.517,0.504 -3.089,0.843 -1.573,0.338 -5.187,2.463 -5.449,2.584 -1.348,0.618 -1.854,2.134 -0.617,3.144 m 16.956,-5.717 c -3.91,2.594 -7.425,3.224 -9.2,5.339 -1.512,1.802 0.119,5.644 2.572,3.47 7.422,-6.568 7.259,-6.082 8.306,-7.018 1.482,-1.328 -0.035,-2.882 -1.678,-1.791 m -3.518,8.743 c -0.404,0.809 0.109,1.713 0.232,1.854 0.113,0.129 1.043,1.291 2.105,-0.117 1.238,-1.641 5.505,-4.604 7.498,-6.737 1.281,-1.371 0.236,-2.166 0,-2.326 -0.241,-0.164 -1.168,-0.25 -2.266,0.716 -0.982,0.862 -7.239,5.947 -7.569,6.61 m 4.232,-80.017 c -0.449,-0.315 -1.054,-0.117 -1.155,-0.06 -0.089,0.052 -0.897,0.463 -0.16,1.218 0.863,0.878 2.196,3.627 3.275,4.989 0.693,0.876 1.29,0.36 1.413,0.241 0.125,-0.12 0.28,-0.642 -0.185,-1.371 -0.421,-0.653 -2.822,-4.76 -3.188,-5.017 m -2.957,1.56 c -0.449,-0.314 -1.055,-0.115 -1.155,-0.058 -0.089,0.05 -0.898,0.462 -0.16,1.217 0.862,0.879 2.196,3.628 3.274,4.988 0.692,0.876 1.292,0.36 1.413,0.241 0.126,-0.12 0.281,-0.641 -0.185,-1.371 -0.419,-0.651 -2.822,-4.759 -3.187,-5.017 m 0.968,8.933 c 0.022,-0.511 -0.497,-0.858 -0.603,-0.902 -0.095,-0.04 -0.915,-0.425 -1.155,0.545 -0.281,1.13 -1.93,3.639 -2.511,5.197 -0.374,1.001 0.418,1.169 0.592,1.198 0.175,0.029 0.72,-0.14 1.092,-0.89 0.334,-0.672 2.567,-4.732 2.585,-5.148 m 5.056,-0.262 c 0.092,-0.467 -0.319,-0.869 -0.407,-0.925 -0.078,-0.052 -0.751,-0.533 -1.108,0.329 -0.417,1.003 -2.253,3.072 -2.999,4.424 -0.479,0.868 0.202,1.144 0.351,1.196 0.153,0.054 0.662,-0.021 1.103,-0.656 0.398,-0.571 2.981,-3.984 3.06,-4.368 m 2.487,67.284 c 0,0 -2.483,2.363 -4.014,3.676 -1.478,1.268 -0.245,2.686 0.028,2.959 0.271,0.271 1.535,0.65 2.557,-0.78 1.02,-1.427 2.451,-2.585 3.541,-3.811 1.09,-1.226 0.87,-2.559 0.344,-2.927 -0.546,-0.38 -1.296,-0.408 -2.456,0.883 m 3.444,3.55 c 0,0 -2.586,2.705 -3.25,3.252 -1.045,0.855 -0.453,2.115 -0.261,2.303 0.39,0.392 1.089,0.684 2.373,-0.5 1.276,-1.182 2.298,-2.08 3.107,-2.688 1.092,-0.824 1.047,-2.033 0.59,-2.76 -0.49,-0.789 -1.872,-0.396 -2.559,0.393 m 3.077,5.166 c 0,0 -3.485,0.399 -2.519,2.673 0.648,1.522 2.123,1.364 3.352,0.511 0.864,-0.6 0.98,-0.832 2.043,-1.094 0.991,-0.245 1.124,-1.379 0.756,-1.782 -0.635,-0.694 -0.464,-0.617 -0.793,-1.115 -0.187,-0.284 -0.631,-0.366 -1.312,0.125 -0.641,0.466 -0.616,0.429 -1.527,0.682 m 2.274,6.207 c 0,0 -2.645,-0.207 -2.223,1.793 0.069,0.326 0.439,1.27 1.684,0.779 1.648,-0.649 2.726,-1.132 4.162,-1.176 1.437,-0.045 1.869,-1.603 1.078,-2.42 -0.349,-0.354 -1.266,-0.457 -2.572,0.333 -0.95,0.576 -1.213,0.617 -2.129,0.691 m -0.369,7.432 c 0,0 4.527,-0.538 5.634,-0.38 1.108,0.159 1.54,-0.249 1.698,-1.357 0.156,-1.107 -0.793,-2.373 -1.821,-2.056 -1.028,0.316 -3.661,0.9 -4.853,0.822 -1.184,-0.08 -2.073,0.705 -2.11,1.313 -0.046,0.719 0.323,1.752 1.452,1.658 m 0.229,3.251 c 0.057,0.871 0.817,1.478 1.805,1.532 1.361,0.08 1.912,0.39 2.805,0.613 0.893,0.221 2.561,-1.681 0.668,-3.272 -1.348,-1.136 -3.488,-0.661 -3.488,-0.661 -0.742,0.076 -1.876,0.506 -1.79,1.788 m -0.66,5.523 c -0.08,0.744 0.224,1.205 0.933,1.369 0.71,0.162 0.896,-0.215 2.163,0.068 1.742,0.393 2.017,-0.238 2.132,-1.063 0.118,-0.844 -0.585,-1.775 -1.455,-1.558 -0.871,0.216 -1.81,0.083 -1.81,0.083 0,0 -1.79,-0.545 -1.963,1.101 m -0.381,5.662 c 1.049,0.314 1.73,0.904 2.131,0.985 0.598,0.116 1.177,-0.735 0.81,-1.63 -0.261,-0.652 -1.511,-1.191 -2.187,-1.273 -1.601,-0.06 -1.672,1.641 -0.754,1.918 m -2.125,2.575 c 0.911,0.446 1.447,1.091 1.809,1.224 0.527,0.197 1.183,-0.498 0.984,-1.371 -0.142,-0.637 -1.207,-1.32 -1.815,-1.496 -1.461,-0.294 -1.776,1.256 -0.978,1.643 m -3.009,2.046 c 0.693,0.631 1.005,1.344 1.287,1.553 0.413,0.313 1.177,-0.133 1.228,-0.959 0.037,-0.603 -0.731,-1.483 -1.22,-1.793 -1.221,-0.64 -1.902,0.651 -1.295,1.199 m -3.61,2.056 c 0.572,0.746 0.748,1.498 0.988,1.756 0.356,0.383 1.182,0.078 1.383,-0.723 0.143,-0.588 -0.455,-1.588 -0.879,-1.986 -1.089,-0.842 -1.991,0.307 -1.492,0.953 m -5.891,0.088 c -0.334,2.273 1.103,2.113 1.929,2.021 0.83,-0.092 1.45,-0.967 0.908,-1.606 -0.378,-0.448 -2.452,-3.033 -2.837,-0.415 m -2.611,-0.46 c -0.474,-1.206 -1.536,-1.737 -2.067,-1.206 -0.531,0.529 -1.062,1.591 -0.531,2.123 1.062,0.531 2.124,1.062 2.607,-0.744 0.002,-0.058 -10e-4,-0.115 -0.009,-0.173 m -4.123,-1.887 c -0.473,-1.205 -1.537,-1.738 -2.068,-1.205 -0.53,0.53 -1.06,1.593 -0.53,2.123 1.061,0.53 2.125,1.061 2.609,-0.746 0,-0.056 -0.005,-0.116 -0.011,-0.172 m -2.935,-3.113 c -0.387,-0.984 -1.25,-1.415 -1.683,-0.984 -0.432,0.433 -0.864,1.3 -0.432,1.73 0.865,0.434 1.728,0.867 2.124,-0.607 0,-0.048 -0.003,-0.094 -0.009,-0.139 m -1.987,-4.175 c -0.385,-0.978 -1.251,-1.416 -1.684,-0.978 -0.432,0.432 -0.864,1.294 -0.432,1.727 0.865,0.432 1.731,0.864 2.124,-0.607 10e-4,-0.046 -0.002,-0.093 -0.008,-0.142 m 4.211,-10.373 c 0.234,-1.193 -0.906,-1.765 -1.476,-1.193 -0.57,0.57 -1.711,1.711 -1.141,2.851 1.141,0.569 2.851,0 2.597,-1.486 0.01,-0.054 0.018,-0.115 0.02,-0.172 m -3.748,4.163 c 0.196,-0.998 -0.752,-1.471 -1.227,-0.998 -0.473,0.479 -1.422,1.424 -0.947,2.375 0.947,0.472 2.37,0 2.158,-1.235 0.009,-0.051 0.015,-0.097 0.016,-0.142 m 8.717,-4.04 c -0.492,-1.252 -1.593,-1.803 -2.145,-1.252 -0.55,0.551 -1.101,1.653 -0.55,2.203 1.102,0.553 2.203,1.102 2.707,-0.774 0,-0.057 -0.004,-0.117 -0.012,-0.177 m 2.229,2.338 c -0.305,-0.773 -0.984,-1.114 -1.323,-0.773 -0.34,0.34 -0.68,1.021 -0.34,1.358 0.679,0.344 1.358,0.681 1.67,-0.479 0,-0.033 -0.001,-0.07 -0.007,-0.106 m -5.948,-93.779 c 0.118,-2.083 0.948,-2.695 1.619,-2.301 0.672,0.395 0.532,1.965 0.532,1.965 l 1.313,-0.217 c 0.328,-0.563 0.821,-2.735 -0.474,-3.761 -1.291,-1.028 -3.325,-0.424 -4.057,1.076 -0.729,1.5 -0.177,3.444 -0.177,3.444 z"
     id="path14" /><path
     d="m 276.925,310.538 -0.746,-2.707 h -3.937 l -0.769,2.707 h -1.591 l 3.491,-11.131 h 1.758 l 3.4,11.131 z m -4.314,-4.02 h 3.183 l -1.562,-5.376 z"
     id="path16" /><line
     style="fill:none;stroke:#000000;stroke-width:1.473"
     x1="281.099"
     y1="310.53699"
     x2="281.099"
     y2="308.82599"
     id="line18" /><path
     d="m 290.43,307.104 v 0.249 c 0,1.056 -0.28,1.879 -0.839,2.471 -0.559,0.591 -1.337,0.886 -2.334,0.886 -0.474,0 -0.915,-0.068 -1.325,-0.203 -0.411,-0.136 -0.742,-0.322 -0.994,-0.559 -0.422,-0.387 -0.72,-0.945 -0.895,-1.674 -0.173,-0.73 -0.26,-1.911 -0.26,-3.545 0,-1.142 0.054,-2.02 0.162,-2.633 0.108,-0.614 0.29,-1.127 0.548,-1.539 0.251,-0.412 0.615,-0.729 1.09,-0.951 0.476,-0.221 1.028,-0.332 1.657,-0.332 1.011,0 1.782,0.284 2.314,0.85 0.531,0.566 0.796,1.39 0.796,2.472 h -1.566 v -0.165 c 0,-0.663 -0.132,-1.158 -0.396,-1.485 -0.265,-0.327 -0.664,-0.49 -1.199,-0.49 -0.336,0 -0.632,0.066 -0.887,0.196 -0.254,0.131 -0.459,0.322 -0.615,0.573 -0.157,0.252 -0.268,0.632 -0.333,1.142 -0.066,0.51 -0.098,1.479 -0.098,2.906 0,1.684 0.142,2.812 0.427,3.385 0.285,0.573 0.788,0.859 1.508,0.859 0.575,0 0.999,-0.187 1.274,-0.561 0.275,-0.375 0.412,-0.949 0.412,-1.723 v -0.128 h 1.553 z"
     id="path20" /><line
     style="fill:none;stroke:#000000;stroke-width:1.473"
     x1="293.09601"
     y1="310.53699"
     x2="293.09601"
     y2="308.82599"
     id="line22" /><path
     d="m 302.427,307.104 v 0.249 c 0,1.056 -0.28,1.879 -0.838,2.471 -0.56,0.591 -1.337,0.886 -2.334,0.886 -0.474,0 -0.915,-0.068 -1.326,-0.203 -0.41,-0.136 -0.741,-0.322 -0.993,-0.559 -0.423,-0.387 -0.721,-0.945 -0.896,-1.674 -0.173,-0.73 -0.26,-1.911 -0.26,-3.545 0,-1.142 0.054,-2.02 0.162,-2.633 0.108,-0.614 0.29,-1.127 0.548,-1.539 0.251,-0.412 0.615,-0.729 1.09,-0.951 0.477,-0.221 1.028,-0.332 1.657,-0.332 1.012,0 1.783,0.284 2.314,0.85 0.531,0.566 0.797,1.39 0.797,2.472 h -1.567 v -0.165 c 0,-0.663 -0.132,-1.158 -0.396,-1.485 -0.265,-0.327 -0.663,-0.49 -1.197,-0.49 -0.338,0 -0.634,0.066 -0.889,0.196 -0.254,0.131 -0.459,0.322 -0.615,0.573 -0.157,0.252 -0.267,0.632 -0.333,1.142 -0.066,0.51 -0.098,1.479 -0.098,2.906 0,1.684 0.143,2.812 0.427,3.385 0.285,0.573 0.788,0.859 1.508,0.859 0.575,0 1,-0.187 1.275,-0.561 0.274,-0.375 0.412,-0.949 0.412,-1.723 v -0.128 h 1.552 z"
     id="path24" /><polygon
     points="309.704,305.457 305.736,305.457 305.736,309.317 309.823,309.317 309.823,310.538 304.265,310.538 304.265,299.407 309.823,299.407 309.823,300.628 305.736,300.628 305.736,304.209 309.704,304.209 "
     id="polygon26" /><path
     d="m 310.994,307.314 h 1.605 v 0.204 c 0,0.71 0.131,1.226 0.395,1.551 0.264,0.325 0.682,0.487 1.254,0.487 0.542,0 0.988,-0.16 1.34,-0.483 0.352,-0.322 0.527,-0.727 0.527,-1.215 0,-0.638 -0.686,-1.388 -2.061,-2.249 -0.197,-0.126 -0.348,-0.221 -0.451,-0.287 -1.078,-0.688 -1.761,-1.247 -2.051,-1.677 -0.293,-0.43 -0.439,-0.957 -0.439,-1.581 0,-0.844 0.304,-1.529 0.908,-2.054 0.606,-0.526 1.398,-0.789 2.381,-0.789 1.005,0 1.773,0.251 2.307,0.751 0.532,0.5 0.799,1.223 0.799,2.168 v 0.278 h -1.525 v -0.233 c 0,-0.593 -0.137,-1.043 -0.412,-1.349 -0.274,-0.307 -0.684,-0.461 -1.227,-0.461 -0.497,0 -0.911,0.146 -1.239,0.434 -0.328,0.29 -0.492,0.65 -0.492,1.083 0,0.713 0.742,1.543 2.222,2.488 0.272,0.171 0.481,0.304 0.629,0.4 0.877,0.574 1.456,1.06 1.733,1.457 0.279,0.398 0.419,0.867 0.419,1.406 0,0.981 -0.296,1.74 -0.886,2.276 -0.592,0.537 -1.426,0.805 -2.506,0.805 -1.078,0 -1.888,-0.257 -2.43,-0.772 -0.542,-0.514 -0.815,-1.28 -0.815,-2.298 0,-0.035 0.002,-0.091 0.008,-0.166 0.004,-0.075 0.007,-0.134 0.007,-0.174"
     id="path28" /><polygon
     points="325.012,305.457 321.045,305.457 321.045,309.317 325.131,309.317 325.131,310.538 319.572,310.538 319.572,299.407 325.131,299.407 325.131,300.628 321.045,300.628 321.045,304.209 325.012,304.209 "
     id="polygon30" /><path
     d="m 332.932,309.255 c -0.021,-0.357 -0.035,-0.706 -0.045,-1.046 -0.011,-0.339 -0.017,-0.669 -0.017,-0.992 v -7.81 h 1.354 v 11.131 h -1.99 l -4.287,-10.12 c 0.039,0.478 0.072,0.889 0.091,1.23 0.021,0.343 0.03,0.632 0.03,0.868 v 8.022 h -1.327 v -11.131 h 2.092 z"
     id="path32" /><path
     d="m 342.525,310.538 -0.748,-2.707 h -3.935 l -0.77,2.707 h -1.592 l 3.494,-11.131 h 1.754 l 3.402,11.131 z m -4.314,-4.02 h 3.182 l -1.561,-5.376 z"
     id="path34" /></g>
</svg>
