<?xml version="1.0" encoding="iso-8859-1"?>
<!-- Generator: Adobe Illustrator 24.0.1, SVG Export Plug-In . SVG Version: 6.00 Build 0)  -->
<svg version="1.1" id="Layer_1" xmlns="http://www.w3.org/2000/svg" xmlns:xlink="http://www.w3.org/1999/xlink" x="0px" y="0px"
	 viewBox="-19 -19.5 595 595" style="enable-background:new -19 -19.5 595 595;" xml:space="preserve">
<g>
	<path d="M267.772,545c-58.761-58.754-108.907-64.209-127.079-98.885c-8.454-16.141-9.95-35.479-9.95-75.185
		c0-66.009-13.94-84.488-23.749-111.012c-14.404-38.87-37.986-62.522-37.986-108.574c0-39.055,26.097-64.364,59.739-64.364
		c28.636,0,39.785,9.446,39.785,9.446l-23.078-87.04c0,0,54.701-13.387,122.31-13.387c67.6,0,122.3,13.387,122.3,13.387
		l-23.062,87.04c0,0,11.133-9.446,39.776-9.446c33.635,0,59.731,25.31,59.731,64.364c0,46.052-23.59,69.705-37.971,108.591
		c-9.824,26.506-23.754,45.003-23.754,110.995c0,39.706-1.499,59.044-9.951,75.192C376.662,480.791,326.519,486.246,267.772,545"/>
	<path style="fill:#FFFFFF;" d="M151.913,403.603c7.978,0,13.371,4.755,14.443,13.009c-2.83-40.518-11.819-78.889-24.702-111.113
		c-26.412-66.031-64.296-109.505-64.296-157.614c0-28.447,19.687-51.465,57.761-51.465c26.412,0,47.778,19.967,47.778,44.629
		c0,16.4-13.27,29.669-29.668,29.669c-11.03,0-19.956-5.741-19.956-12.859c0-4.88,3.423-4.597,3.423-8.288
		c0-1.427-1.427-2.577-3.202-2.577c-3.334,0-6.054,4.296-6.054,9.594c0,10.33,12.828,20.563,28.675,20.563
		c23.724,0,42.921-17.173,42.921-38.397c0-31.305-31.307-67.934-31.307-92.747c0-13.498,11.393-24.027,26.191-24.027
		c14.57,0,23.046,13.589,23.046,13.589c1.765-10.771,11.969-19.499,26.775-19.499c13.284,0,22.455,7.31,24.031,16.34
		c1.562-9.031,10.746-16.34,24.024-16.34c14.798,0,25,8.721,26.774,19.499c0,0,8.467-13.589,23.036-13.589
		c14.809,0,26.193,10.529,26.193,24.027c0,24.813-31.309,61.431-31.309,92.747c0,21.225,19.198,38.397,42.93,38.397
		c15.849,0,28.666-10.233,28.666-20.563c0-5.297-2.703-9.594-6.046-9.594c-1.782,0-3.2,1.149-3.2,2.577
		c0,3.691,3.421,3.408,3.421,8.288c0,7.119-8.918,12.859-19.956,12.859c-16.399,0-29.668-13.269-29.668-29.669
		c0-24.671,21.367-44.629,47.787-44.629c38.073,0,57.761,23.018,57.761,51.465c0,48.108-37.892,91.582-64.314,157.614
		c-12.875,32.215-21.862,70.596-24.701,111.113c1.072-8.254,6.458-13.009,14.445-13.009c7.395,0,13.386,2.373,13.386,11.038
		c0,12.19-6.299,22.046-18.646,22.046c-23.101,0-30.448-22.865-30.448-50.799c0-95.314,46.47-145.719,51.586-200.467
		c0,0-10.737,5.511-24.024,5.511c-29.067,0-45.09-18.047-52.578-40.367c0,0-24.662-3.343-55.128-3.343
		c-30.482,0-55.135,3.343-55.135,3.343c-7.491,22.319-23.52,40.367-52.581,40.367c-13.277,0-24.024-5.511-24.024-5.511
		c5.118,54.74,51.588,105.152,51.588,200.467c0,27.934-7.357,50.799-30.45,50.799c-12.338,0-18.645-9.872-18.645-22.046
		C138.518,405.976,144.517,403.603,151.913,403.603"/>
	<path style="fill:#FFFFFF;" d="M316.601,484.156c0-6.3-5.527-8.861-5.527-8.861c6.693-6.693,18.599-5.117,27.776-5.795
		c8.398-0.631,26.76-15.082,26.76-21.981c0-2.934-2.191-5.314-4.912-5.314c-7.089,0-13.316,13.735-23.416,16.226
		c-8.509,2.104-19.159,2.65-27.573,6.175c-6.945,2.909-13.796,9.278-13.796,17.385c0,6.851,4.855,12.393,10.832,12.393
		C312.2,494.383,316.601,489.811,316.601,484.156"/>
	<path style="fill:#FFFFFF;" d="M218.93,484.156c0-6.3,5.518-8.861,5.518-8.861c-6.694-6.693-18.591-5.117-27.777-5.795
		c-8.397-0.631-26.767-15.082-26.767-21.981c0-2.934,2.201-5.314,4.919-5.314c7.089,0,13.326,13.735,23.418,16.226
		c8.514,2.104,19.167,2.65,27.579,6.175c6.953,2.909,13.79,9.278,13.79,17.385c0,6.851-4.85,12.393-10.826,12.393
		C223.336,494.383,218.93,489.811,218.93,484.156"/>
	<path d="M294.351,97.018c0,0,4.731-11.538,4.731-25.797c0-10.826-4.857-13.59-10.842-13.59c-10.242,0-15.161,16.648-14.176,37.223
		C286.063,94.062,294.351,97.018,294.351,97.018"/>
	<path d="M332.155,63.339c-10.556,0-17.724,15.244-19.104,34.073c12.009,2.081,17.931,5.318,17.931,5.318
		s11.811-15.555,11.811-30.131C342.792,67.483,338.028,63.339,332.155,63.339"/>
	<path d="M261.465,94.854c0.985-20.575-3.943-37.223-14.177-37.223c-5.984,0-10.825,2.756-10.825,13.59
		c0,14.259,4.724,25.797,4.724,25.797S249.457,94.062,261.465,94.854"/>
	<path d="M203.373,63.339c-5.873,0-10.626,4.144-10.626,9.252c0,14.576,11.81,30.131,11.81,30.131s5.897-3.238,17.913-5.318
		C221.097,78.584,213.938,63.339,203.373,63.339"/>
	<path d="M205.147,113.559c4.234,4.23,6.299,10.747,6.299,24.028h5.118c-2.152-12.611,3.16-18.903,13.001-18.903
		c7.427,0,14.404,4.369,14.057,19.573c3.264-0.166,6.749-0.308,10.487-0.402c-2.571-15.004,6.709-20.751,13.664-20.751
		c6.945,0,16.218,5.747,13.647,20.736c3.729,0.102,7.237,0.236,10.486,0.41c-0.34-15.205,6.63-19.573,14.059-19.573
		c9.847,0,15.153,6.299,12.993,18.902h5.124c0-13.281,2.064-19.789,6.299-24.028c0,0-17.33-5.514-62.616-5.514
		C222.477,108.044,205.147,113.559,205.147,113.559"/>
	<path style="fill:#FFFFFF;" d="M190.49,308.905c1.514,15.223,2.445,32.806,2.445,53.06c0,40.296-3.942,72.921-3.942,72.921
		l57.925,29.686V308.905H190.49z"/>
	<path style="fill:#FFFFFF;" d="M246.926,194.59l-32.151-15.012l-48.607,41.66c0,0,9.973,11.946,17.754,45.982h63.011V194.59
		H246.926z"/>
	<path style="fill:#FFFFFF;" d="M351.613,267.211c7.773-34.035,17.757-45.973,17.757-45.973l-48.615-41.66l-32.138,15.012v72.631
		h62.996V267.211z"/>
	<path style="fill:#FFFFFF;" d="M288.617,308.905v155.667l57.92-29.686c0,0-3.935-32.625-3.935-72.921
		c0-20.255,0.931-37.852,2.436-53.06H288.617z"/>
	<path style="fill:#FF0000;" d="M345.03,308.905c1.655-16.59,3.999-30.363,6.583-41.694H288.61v-72.637l-20.845-18.198
		l-20.847,18.198v72.637h-63.011c2.587,11.331,4.927,25.104,6.575,41.694h56.428v155.667l20.847,10.684l20.845-10.684V308.905
		H345.03z"/>
</g>
</svg>
