<svg enable-background="new 0 0 600 600" viewBox="0 0 600 600" xmlns="http://www.w3.org/2000/svg"><g><ellipse cx="299.64" cy="301.051" fill="#cba46a" rx="208.003" ry="299.747"/><path d="M 297.534 5.555 C 186.131 7.202 95.849 139.114 95.849 301.051 c 0 161.938 90.282 293.848 201.685 295.496 V 5.555 z" fill="#f0efef"/><path d="M 301.745 5.555 v 590.992 c 111.403 -1.648 201.686 -133.559 201.686 -295.496 C 503.431 139.114 413.148 7.202 301.745 5.555 z" fill="#f0efef"/><path d="M 297.534 217.851 H 104.085 c -5.351 26.402 -8.236 54.32 -8.236 83.2 c 0 28.883 2.885 56.799 8.236 83.202 h 193.448 V 217.851 z" fill="#2fa3dc"/><g><path d="M 197.65 518.442 l -4.219 9.155 c -.824 1.784 -1.267 2.991 -1.331 3.618 c -.064 .627 .031 1.289 .286 1.984 c .254 .697 .891 1.606 1.91 2.726 l -.415 .902 l -11.44 -12.591 l .415 -.9 c 1.04 1.144 1.811 1.779 2.313 1.904 c .502 .121 .932 .041 1.291 -.25 c .36 -.29 .95 -1.328 1.774 -3.113 l 9.875 -21.424 c .821 -1.785 1.264 -2.992 1.328 -3.621 c .064 -.627 -.029 -1.287 -.279 -1.977 c -.249 -.688 -.888 -1.6 -1.917 -2.734 l .415 -.898 l 9.813 10.797 c 3.233 3.559 5.163 6.953 5.791 10.188 c .628 3.235 .358 6.12 -.809 8.65 c -.987 2.145 -2.288 3.477 -3.898 4.005 c -1.61 .527 -3.34 .188 -5.188 -1.014 C 202.111 523.06 200.206 521.257 197.65 518.442 z M 205.1 502.276 l -6.575 14.266 c .35 .435 .618 .757 .807 .963 c 1.349 1.486 2.661 2.043 3.935 1.672 c 1.274 -.371 2.479 -1.793 3.616 -4.26 c 1.128 -2.453 1.59 -4.646 1.384 -6.588 c -.208 -1.941 -1.036 -3.709 -2.485 -5.305 L 205.1 502.276 z" fill="#cba46a"/><path d="M 219.586 538.92 l -3.007 9.492 c -.58 1.831 -.856 3.053 -.83 3.662 c .026 .609 .217 1.225 .572 1.849 c .355 .62 1.142 1.396 2.36 2.324 l -.293 .926 l -13.626 -10.389 l .293 -.926 c 1.23 .938 2.111 1.428 2.643 1.472 c .531 .043 .958 -.102 1.282 -.433 c .324 -.331 .775 -1.413 1.355 -3.244 l 6.961 -21.987 c .579 -1.831 .856 -3.053 .83 -3.662 c -.025 -.609 -.217 -1.225 -.573 -1.845 c -.355 -.625 -1.142 -1.399 -2.358 -2.328 l .293 -.926 l 12.369 9.432 c 3.219 2.455 5.485 4.535 6.799 6.238 c 1.311 1.703 2.198 3.677 2.658 5.92 c .46 2.243 .366 4.388 -.283 6.436 c -.792 2.498 -2.152 4.025 -4.082 4.578 c -1.23 .346 -2.739 .157 -4.525 -.566 l 2.77 16.347 c .368 2.121 .672 3.502 .91 4.137 c .373 .926 .905 1.684 1.596 2.273 l -.294 .922 l -8.383 -6.392 l -3.691 -21.979 L 219.586 538.92 z M 224.845 522.304 l -4.698 14.841 l 1.119 .853 c 1.819 1.388 3.247 2.215 4.284 2.479 c 1.038 .264 1.991 .038 2.858 -.676 c .868 -.714 1.583 -1.962 2.148 -3.744 c .817 -2.579 .946 -4.849 .388 -6.805 c -.559 -1.955 -1.891 -3.737 -3.997 -5.345 L 224.845 522.304 z" fill="#cba46a"/><path d="M 257.646 540.676 c 4.942 1.872 8.653 5.125 11.137 9.762 c 2.482 4.635 3.285 9.463 2.408 14.482 c -.749 4.289 -2.552 7.58 -5.409 9.875 c -3.784 3.045 -8.438 3.402 -13.965 1.068 c -5.544 -2.34 -9.47 -6.21 -11.778 -11.61 c -1.822 -4.266 -2.343 -8.636 -1.563 -13.11 c .876 -5.02 3.164 -8.549 6.861 -10.586 C 249.035 538.519 253.136 538.56 257.646 540.676 z M 257.638 542.388 c -2.817 -1.19 -5.236 -.514 -7.256 2.025 c -1.649 2.09 -2.899 5.56 -3.746 10.415 c -1.007 5.769 -.828 10.424 .537 13.961 c .95 2.473 2.584 4.199 4.902 5.176 c 1.559 .656 2.934 .789 4.125 .4 c 1.518 -.502 2.851 -1.764 4.002 -3.787 c 1.15 -2.022 2.054 -4.912 2.71 -8.67 c .781 -4.472 .986 -7.977 .616 -10.516 c -.37 -2.539 -1.062 -4.513 -2.076 -5.923 C 260.439 544.06 259.167 543.032 257.638 542.388 z" fill="#cba46a"/><path d="M 346.698 538.642 l 2.026 11.154 l -.943 .36 c -.891 -2.649 -2.343 -4.504 -4.356 -5.557 c -2.014 -1.054 -4.033 -1.193 -6.062 -.421 c -1.566 .598 -2.735 1.521 -3.506 2.773 c -.772 1.254 -1.064 2.467 -.876 3.646 c .116 .748 .383 1.349 .797 1.807 c .567 .613 1.403 1.112 2.507 1.501 c .809 .272 2.629 .606 5.457 1.007 c 3.961 .549 6.715 1.445 8.262 2.684 c 1.533 1.246 2.473 2.98 2.824 5.203 c .444 2.824 -.189 5.639 -1.903 8.445 c -1.715 2.809 -4.137 4.811 -7.268 6.004 c -.984 .373 -1.93 .621 -2.841 .736 c -.909 .119 -2.072 .131 -3.484 .035 c -.789 -.049 -1.423 .014 -1.899 .197 c -.399 .15 -.795 .479 -1.189 .981 c -.393 .502 -.675 1.142 -.843 1.93 l -.853 .326 l -2.01 -12.746 l .85 -.324 c 1.242 3.328 2.975 5.565 5.2 6.715 c 2.223 1.148 4.447 1.299 6.675 .449 c 1.72 -.652 3.011 -1.684 3.872 -3.084 c .861 -1.402 1.188 -2.775 .975 -4.119 c -.126 -.795 -.443 -1.49 -.952 -2.088 c -.512 -.598 -1.218 -1.08 -2.121 -1.449 c -.906 -.367 -2.456 -.705 -4.653 -1.012 c -3.08 -.428 -5.323 -.936 -6.736 -1.523 c -1.411 -.59 -2.554 -1.41 -3.427 -2.467 c -.875 -1.057 -1.436 -2.374 -1.685 -3.949 c -.424 -2.688 .127 -5.328 1.655 -7.916 c 1.529 -2.589 3.682 -4.411 6.461 -5.471 c 1.014 -.386 2.018 -.626 3.011 -.725 c .753 -.076 1.69 -.041 2.813 .104 c 1.122 .146 1.891 .137 2.305 -.02 c .399 -.154 .692 -.406 .88 -.761 c .19 -.351 .304 -1.073 .345 -2.162 L 346.698 538.642 z" fill="#cba46a"/><path d="M 359.903 533.166 l 3.77 13.815 l .556 -.365 c 1.771 -1.164 2.868 -2.685 3.297 -4.56 c .426 -1.874 .39 -4.204 -.108 -6.984 l .782 -.517 l 4.847 17.77 l -.782 .518 c -.693 -1.829 -1.473 -3.183 -2.337 -4.072 c -.865 -.888 -1.707 -1.315 -2.521 -1.279 c -.816 .035 -1.89 .49 -3.22 1.367 l 2.607 9.561 c .51 1.869 .888 2.969 1.131 3.3 c .243 .331 .581 .514 1.01 .546 c .43 .031 1.043 -.213 1.84 -.737 l 1.667 -1.097 c 2.607 -1.715 4.496 -3.824 5.667 -6.329 c 1.171 -2.501 1.691 -5.478 1.558 -8.934 l .762 -.502 l 1.686 11.615 l -24.125 15.873 l -.252 -.926 l .926 -.609 c .811 -.531 1.414 -1.137 1.813 -1.813 c .293 -.468 .457 -1.049 .494 -1.742 c .042 -.498 -.168 -1.602 -.633 -3.302 l -6.089 -22.326 c -.418 -1.535 -.71 -2.455 -.874 -2.76 c -.297 -.493 -.673 -.778 -1.132 -.851 c -.647 -.125 -1.425 .113 -2.332 .708 l -.926 .609 l -.252 -.926 l 23.363 -15.373 l 2.738 10.034 l -.784 .517 c -1.067 -2.191 -2.107 -3.584 -3.117 -4.179 c -1.014 -.593 -2.245 -.706 -3.698 -.34 c -.852 .206 -2.334 1.001 -4.446 2.392 L 359.903 533.166 z" fill="#cba46a"/><path d="M 390.188 503.632 l 4.654 10.98 l -.73 .699 c -1.463 -2.471 -3.21 -3.912 -5.238 -4.326 c -2.028 -.416 -3.826 .127 -5.395 1.627 c -1.212 1.16 -1.992 2.527 -2.34 4.104 c -.349 1.572 -.289 2.945 .178 4.115 c .296 .742 .684 1.281 1.162 1.619 c .654 .443 1.514 .682 2.576 .711 c .774 .008 2.447 -.262 5.021 -.81 c 3.596 -.777 6.229 -.783 7.899 -.014 c 1.658 .783 2.928 2.277 3.81 4.482 c 1.117 2.801 1.291 5.964 .524 9.489 c -.768 3.523 -2.364 6.445 -4.786 8.767 c -.761 .729 -1.522 1.309 -2.286 1.741 c -.763 .435 -1.773 .844 -3.03 1.227 c -.703 .219 -1.236 .503 -1.605 .853 c -.309 .296 -.569 .775 -.783 1.434 c -.213 .662 -.292 1.431 -.234 2.311 l -.659 .629 l -5.052 -12.651 l .658 -.63 c 1.944 3.059 4.035 4.809 6.272 5.249 c 2.237 .444 4.217 -.159 5.94 -1.808 c 1.33 -1.274 2.19 -2.792 2.579 -4.553 c .389 -1.762 .316 -3.309 -.216 -4.644 c -.316 -.789 -.774 -1.41 -1.372 -1.862 c -.599 -.453 -1.34 -.714 -2.226 -.79 c -.885 -.075 -2.324 .102 -4.319 .531 c -2.797 .604 -4.885 .839 -6.27 .705 c -1.381 -.133 -2.591 -.603 -3.628 -1.41 c -1.035 -.807 -1.866 -1.99 -2.492 -3.558 c -1.064 -2.667 -1.267 -5.618 -.604 -8.847 c .667 -3.233 2.072 -5.877 4.223 -7.938 c .785 -.748 1.598 -1.346 2.438 -1.787 c .639 -.336 1.464 -.621 2.479 -.853 c 1.016 -.232 1.683 -.498 2.005 -.807 c .308 -.295 .499 -.662 .572 -1.094 c .072 -.436 -.015 -1.227 -.26 -2.383 L 390.188 503.632 z" fill="#cba46a"/><path d="M 411.295 477.155 l 4.736 8.688 l -.543 .699 c -1.415 -1.587 -2.557 -2.564 -3.427 -2.934 c -.869 -.369 -1.788 -.371 -2.755 -.008 c -.534 .211 -1.28 .934 -2.235 2.167 l -1.522 1.97 l 13.496 24.756 c .896 1.642 1.512 2.592 1.852 2.853 c .339 .26 .762 .327 1.266 .199 c .506 -.127 1.047 -.568 1.631 -1.322 l .68 -.88 l .478 .876 l -10.703 13.845 l -.478 -.876 l .68 -.879 c .592 -.767 .979 -1.551 1.159 -2.348 c .142 -.56 .142 -1.205 -.001 -1.935 c -.096 -.523 -.583 -1.588 -1.461 -3.198 l -13.496 -24.755 l -1.478 1.912 c -1.376 1.781 -2.127 3.531 -2.252 5.252 c -.178 2.408 .264 4.945 1.323 7.611 l -.573 .74 l -4.735 -8.686 L 411.295 477.155 z" fill="#cba46a"/><path d="M 419.509 460.563 c 2.505 -4.806 5.664 -7.217 9.476 -7.234 c 3.812 -.02 7.343 2.133 10.597 6.454 c 2.779 3.693 4.608 8.023 5.492 12.985 c 1.172 6.581 .273 12.48 -2.695 17.7 c -2.977 5.232 -6.613 7.504 -10.91 6.814 c -3.397 -.545 -6.544 -2.746 -9.441 -6.596 c -3.251 -4.321 -5.127 -9.393 -5.625 -15.215 C 415.902 469.647 416.939 464.68 419.509 460.563 z M 420.688 461.677 c -1.514 2.661 -1.641 6.045 -.385 10.147 c 1.039 3.363 3.129 7.136 6.273 11.314 c 3.738 4.966 6.995 7.766 9.775 8.398 c 1.94 .443 3.534 -.426 4.778 -2.615 c .838 -1.473 1.268 -3.06 1.291 -4.762 c .027 -2.173 -.516 -4.616 -1.631 -7.329 c -1.113 -2.71 -2.89 -5.685 -5.322 -8.917 c -2.899 -3.852 -5.267 -6.376 -7.111 -7.571 c -1.845 -1.195 -3.379 -1.631 -4.6 -1.311 C 422.532 459.353 421.511 460.234 420.688 461.677 z" fill="#cba46a"/></g><g><path d="M 244.315 66.074 l -11.706 7.5 l .674 4.12 c .232 1.367 .572 2.401 1.021 3.103 c .595 .929 1.407 1.372 2.44 1.332 c .606 -.021 1.815 -.52 3.626 -1.496 l .579 .904 l -11.021 7.062 l -.579 -.904 c 1.073 -.94 1.733 -2.06 1.983 -3.357 c .249 -1.297 .127 -3.568 -.366 -6.815 l -5.09 -34.037 l .465 -.297 l 29.361 19.519 c 2.791 1.844 4.768 2.865 5.928 3.062 c .877 .151 1.847 -.057 2.91 -.622 l .579 .904 l -16.032 10.272 l -.579 -.903 l .66 -.424 c 1.286 -.824 2.075 -1.581 2.367 -2.275 c .192 -.49 .132 -.979 -.181 -1.47 c -.188 -.293 -.431 -.563 -.728 -.81 c -.126 -.124 -.761 -.58 -1.906 -1.364 L 244.315 66.074 z M 242.326 64.798 l -12.249 -8.25 l 2.229 14.67 L 242.326 64.798 z" fill="#cba46a"/><path d="M 274.172 55.58 c 1.308 -.354 2.538 -.196 3.691 .473 c 1.153 .67 1.905 1.649 2.255 2.938 c .348 1.288 .188 2.51 -.481 3.665 c -.67 1.155 -1.649 1.907 -2.939 2.255 c -1.29 .35 -2.51 .194 -3.662 -.467 c -1.151 -.662 -1.901 -1.636 -2.249 -2.925 c -.35 -1.289 -.196 -2.513 .462 -3.674 C 271.908 56.684 272.882 55.929 274.172 55.58 z" fill="#cba46a"/><path d="M 376.6 44.176 l -6.219 12.146 l -1.009 -.517 c .865 -3.558 .695 -6.71 -.508 -9.458 c -1.204 -2.747 -3.114 -4.79 -5.732 -6.13 c -2.189 -1.12 -4.52 -1.518 -6.988 -1.196 c -2.472 .322 -4.648 1.284 -6.531 2.887 c -2.419 2.045 -4.444 4.661 -6.075 7.849 c -1.605 3.137 -2.671 6.196 -3.196 9.176 c -.525 2.982 -.281 5.563 .73 7.747 c 1.014 2.181 2.863 3.961 5.554 5.338 c 2.205 1.129 4.471 1.68 6.801 1.655 c 2.329 -.027 5.114 -.699 8.356 -2.02 l -1.549 3.025 c -3.015 1.043 -5.821 1.481 -8.421 1.314 c -2.6 -.169 -5.321 -.979 -8.162 -2.434 c -3.742 -1.915 -6.678 -4.364 -8.815 -7.349 c -2.135 -2.986 -3.27 -6.284 -3.411 -9.899 c -.139 -3.616 .603 -7.008 2.227 -10.18 c 1.71 -3.341 4.207 -6.063 7.491 -8.167 c 3.284 -2.103 6.835 -3.22 10.653 -3.353 c 3.82 -.134 7.4 .655 10.743 2.366 c 2.464 1.263 4.791 3.128 6.985 5.598 c 1.266 1.434 2.115 2.259 2.546 2.479 c .551 .283 1.133 .325 1.745 .126 c .612 -.197 1.203 -.705 1.774 -1.521 L 376.6 44.176 z" fill="#cba46a"/><path d="M 374.101 83.085 c 1.016 .894 1.564 2.007 1.643 3.338 c .079 1.331 -.323 2.498 -1.205 3.501 c -.883 1.002 -1.989 1.543 -3.32 1.621 c -1.332 .078 -2.498 -.323 -3.501 -1.205 c -1.001 -.883 -1.545 -1.985 -1.63 -3.309 c -.085 -1.324 .315 -2.487 1.196 -3.489 c .882 -1.003 1.989 -1.55 3.318 -1.642 C 371.934 81.809 373.099 82.203 374.101 83.085 z" fill="#cba46a"/></g><path d="M 489.074 384.253 L 475.454 296.718 L 445.986 296.718 L 445.986 322.842 L 438.557 322.842 L 438.557 296.718 L 405.871 296.718 L 405.871 322.842 L 398.443 322.842 L 398.443 296.718 L 365.757 296.718 L 365.757 322.842 L 358.328 322.842 L 358.328 296.718 L 328.86 296.718 L 315.24 384.253 L 398.443 384.253 L 398.443 350.949 L 405.871 350.949 L 405.871 384.253 Z" fill="#f8cc1c"/><path d="M 474.031 287.865 L 490.745 237.351 L 443.202 237.351 L 432.06 259.637 L 372.256 259.637 L 361.112 237.351 L 313.568 237.351 L 330.283 287.865 Z" fill="#f8cc1c"/><path d="M 422.216 200.207 L 440.044 232.894 L 406.059 219.336 L 398.255 219.336 L 364.27 232.894 L 382.099 200.207 Z" fill="#f8cc1c"/><g><path d="M 166.768 313.19 h -18.061 v -4.736 h 5.711 v -14.207 h -5.711 v -4.411 c .873 0 1.709 -.051 2.509 -.153 c .8 -.102 1.467 -.28 2.001 -.534 c .629 -.301 1.102 -.693 1.418 -1.174 c .314 -.481 .497 -1.085 .546 -1.807 h 6.016 v 22.286 h 5.571 V 313.19 z" fill="#fff"/><path d="M 194.289 298.17 c 0 2.267 -.291 4.375 -.871 6.326 c -.581 1.95 -1.463 3.593 -2.647 4.925 c -1.281 1.442 -2.871 2.524 -4.769 3.244 c -1.897 .723 -4.11 1.082 -6.635 1.082 c -.895 0 -1.861 -.055 -2.901 -.165 c -1.04 -.11 -1.723 -.206 -2.049 -.29 v -5.349 h .724 c .362 .169 .878 .352 1.548 .546 c .67 .194 1.584 .29 2.742 .29 c .941 0 1.864 -.119 2.769 -.353 c .906 -.238 1.684 -.609 2.336 -1.117 c .712 -.546 1.297 -1.227 1.755 -2.043 c .459 -.818 .767 -1.802 .923 -2.953 c -1.052 .605 -2.027 1.068 -2.928 1.389 c -.9 .321 -2.021 .482 -3.361 .482 c -1.016 0 -1.986 -.125 -2.91 -.373 c -.925 -.248 -1.768 -.632 -2.529 -1.153 c -1.003 -.713 -1.804 -1.654 -2.402 -2.822 c -.598 -1.168 -.897 -2.642 -.897 -4.421 c 0 -2.892 1.007 -5.249 3.021 -7.071 c 2.014 -1.82 4.654 -2.732 7.92 -2.732 c 1.682 0 3.173 .221 4.473 .664 c 1.3 .442 2.422 1.118 3.366 2.026 c 1.1 1.043 1.929 2.369 2.485 3.981 C 194.01 293.893 194.289 295.855 194.289 298.17 z M 187.325 297.128 c 0 -1.473 -.143 -2.684 -.427 -3.632 c -.284 -.948 -.674 -1.682 -1.169 -2.202 c -.351 -.386 -.756 -.664 -1.215 -.833 c -.46 -.168 -.943 -.254 -1.451 -.254 c -.472 0 -.922 .083 -1.352 .245 c -.429 .163 -.843 .444 -1.242 .842 c -.375 .387 -.681 .894 -.917 1.522 c -.236 .628 -.353 1.377 -.353 2.247 c 0 .846 .127 1.556 .38 2.128 c .254 .574 .605 1.029 1.052 1.367 c .423 .327 .922 .557 1.496 .689 c .575 .133 1.2 .199 1.878 .199 c .544 0 1.136 -.069 1.777 -.208 c .64 -.139 1.136 -.281 1.487 -.426 c 0 -.132 .009 -.323 .027 -.571 C 187.315 297.994 187.325 297.623 187.325 297.128 z" fill="#fff"/><path d="M 219.581 313.19 H 201.52 v -4.736 h 5.711 v -14.207 h -5.711 v -4.411 c .873 0 1.709 -.051 2.51 -.153 c .8 -.102 1.467 -.28 2 -.534 c .629 -.301 1.103 -.693 1.418 -1.174 c .315 -.481 .498 -1.085 .546 -1.807 h 6.016 v 22.286 h 5.571 V 313.19 z" fill="#fff"/><path d="M 245.022 300.542 c .592 .509 1.064 1.1 1.414 1.775 c .351 .676 .526 1.575 .526 2.698 c 0 1.269 -.251 2.452 -.753 3.552 c -.502 1.098 -1.272 2.04 -2.312 2.824 c -1.016 .763 -2.209 1.343 -3.582 1.749 c -1.373 .403 -3.038 .607 -4.997 .607 c -2.237 0 -4.157 -.174 -5.758 -.524 c -1.602 -.349 -2.905 -.74 -3.909 -1.176 v -5.914 h .71 c 1.045 .63 2.292 1.173 3.743 1.631 c 1.451 .462 2.778 .69 3.981 .69 c .705 0 1.47 -.058 2.295 -.171 c .826 -.116 1.524 -.365 2.095 -.754 c .449 -.302 .807 -.668 1.074 -1.098 c .267 -.429 .401 -1.047 .401 -1.859 c 0 -.785 -.183 -1.394 -.548 -1.822 c -.366 -.429 -.847 -.734 -1.443 -.916 c -.597 -.192 -1.316 -.299 -2.156 -.316 c -.841 -.019 -1.621 -.028 -2.339 -.028 h -1.499 v -4.828 h 1.548 c .947 0 1.785 -.03 2.513 -.09 c .728 -.061 1.347 -.2 1.858 -.418 c .534 -.23 .934 -.536 1.201 -.917 c .267 -.382 .401 -.941 .401 -1.681 c 0 -.544 -.14 -.983 -.418 -1.315 c -.279 -.333 -.63 -.597 -1.054 -.791 c -.473 -.218 -1.03 -.364 -1.672 -.436 c -.642 -.072 -1.194 -.108 -1.654 -.108 c -1.139 0 -2.374 .195 -3.706 .586 c -1.333 .392 -2.623 .954 -3.87 1.688 h -.672 v -5.861 c .99 -.399 2.339 -.784 4.044 -1.153 c 1.705 -.369 3.434 -.553 5.188 -.553 c 1.705 0 3.199 .148 4.48 .445 c 1.281 .296 2.34 .693 3.175 1.189 c .991 .594 1.729 1.315 2.212 2.163 c .483 .848 .726 1.842 .726 2.98 c 0 1.502 -.466 2.844 -1.399 4.025 c -.933 1.182 -2.163 1.936 -3.689 2.263 v .254 c .617 .084 1.27 .254 1.958 .507 C 243.825 299.691 244.453 300.06 245.022 300.542 z" fill="#fff"/></g></g></svg>