<?xml version="1.0" encoding="iso-8859-1"?>
<!-- Generator: Adobe Illustrator 24.0.1, SVG Export Plug-In . SVG Version: 6.00 Build 0)  -->
<svg version="1.1" id="Layer_1" xmlns="http://www.w3.org/2000/svg" xmlns:xlink="http://www.w3.org/1999/xlink" x="0px" y="0px"
	 viewBox="0 0 612 792" style="enable-background:new 0 0 612 792;" xml:space="preserve">
<path style="fill:#B28B3E;" d="M307.5,113.39c110.711,0,200.459,126.704,200.459,283c0,156.297-89.748,283-200.459,283
	c-110.71,0-200.459-126.703-200.459-283C107.041,240.093,196.79,113.39,307.5,113.39"/>
<path style="fill:#2B93D1;" d="M118.572,362.698c-0.954,11.107-1.44,22.346-1.44,33.692c0,37.224,5.158,73.311,15.329,107.261
	c9.781,32.647,23.753,61.924,41.528,87.018c17.593,24.837,38.001,44.289,60.657,57.818c23.128,13.81,47.64,20.813,72.855,20.813
	c25.215,0,49.727-7.003,72.854-20.813c22.656-13.529,43.064-32.981,60.657-57.818c17.774-25.094,31.747-54.371,41.527-87.018
	c10.172-33.95,15.329-70.037,15.329-107.261c0-11.346-0.485-22.585-1.441-33.692c-52.403,31.916-119.26,49.45-188.928,49.45
	S170.976,394.613,118.572,362.698z"/>
<path style="fill:#2B93D1;" d="M456.001,225.875c-4.648-8.283-9.643-16.216-14.989-23.764
	c-17.593-24.836-38.001-44.29-60.657-57.818c-23.128-13.81-47.64-20.813-72.854-20.813c-25.215,0-49.727,7.003-72.855,20.813
	c-22.656,13.529-43.064,32.982-60.657,57.818c-5.346,7.548-10.342,15.481-14.99,23.764c44.008,20.487,95.343,31.317,148.502,31.317
	C360.658,257.192,411.993,246.363,456.001,225.875z"/>
<path style="fill:#FFFFFF;" d="M495.295,351.531c-2.477-21.411-6.729-42.284-12.756-62.401c-5.8-19.361-13.086-37.525-21.754-54.346
	c-43.84,20.509-96.6,32.5-153.285,32.5s-109.445-11.992-153.285-32.5c-8.667,16.821-15.954,34.985-21.754,54.346
	c-6.027,20.118-10.279,40.991-12.755,62.401c49.456,31.338,115.462,50.526,187.794,50.526S445.838,382.869,495.295,351.531z"/>
<path style="fill:#B28B3E;" d="M155.453,343.012c2.946-3.779,5.874-7.537,8.772-11.271c2.65,3.078,5.53,5.696,8.509,7.77
	c2.993,2.083,6.101,3.672,9.209,4.691c9.741,3.188,14.946,1.528,15.951-4.833c0.443-2.792,0.062-5.578-2.068-9.026
	c-2.109-3.413-5.956-7.513-12.415-12.947c-6.24-5.152-10.027-8.712-12.412-11.72c-2.361-2.981-3.342-5.448-3.938-8.355
	c-0.957-3.02-1.108-6.095-0.47-9.235c1.167-5.761,4.866-9.854,10.175-11.901c5.288-2.042,12.237-2.101,20.013,0.263
	c4.893,1.492,9.097,3.194,12.63,5.07c3.545,1.882,6.405,3.979,8.574,6.278c-2.163,3.371-4.346,6.781-6.538,10.205
	c-2.34-2.55-4.931-4.692-7.664-6.399c-2.721-1.699-5.602-3.011-8.529-3.914c-7.321-2.249-11.96-0.065-12.89,4.972
	c-0.408,2.216,0.567,4.887,2.928,8.042c2.381,3.179,6.184,6.86,11.413,11.1c5.622,4.568,9.362,8.125,11.962,11.419
	c2.624,3.327,4.095,6.399,5.206,9.989c0.777,3.149,1.079,6.887,0.538,10.772c-0.943,6.772-5.061,11.676-11.484,14.033
	c-6.458,2.37-15.201,2.163-25.264-1.182c-4.331-1.433-8.352-3.335-12.057-5.658C161.908,348.861,158.537,346.12,155.453,343.012
	L155.453,343.012z"/>
<path style="fill:#B28B3E;" d="M259.762,343.349c-0.419,5.223-0.839,10.458-1.259,15.688c-0.419,5.232-0.842,10.477-1.261,15.708
	c-4.973-0.499-9.945-0.996-14.908-1.498c1.149-14.161,2.298-28.307,3.442-42.426c1.143-14.084,2.287-28.168,3.427-42.222
	c5.017,0.325,8.908,0.541,11.762,0.697c2.851,0.157,4.674,0.236,5.533,0.325c12.926,1.306,22.082,4.293,27.828,9.105
	c5.749,4.819,8.113,11.487,7.436,20.167c-0.748,9.596-4.077,16.522-9.98,20.764c-5.912,4.249-14.406,5.814-25.476,4.701
	C264.575,344.185,262.498,343.975,259.762,343.349L259.762,343.349z M262.982,303.192c-0.36,4.5-0.724,8.999-1.081,13.49
	c-0.361,4.488-0.724,9.002-1.085,13.493c2.387,0.603,4.119,0.774,5.847,0.951c6.571,0.662,11.413,0.074,14.705-1.965
	c3.294-2.039,5.049-5.537,5.457-10.695c0.349-4.429-1.128-7.882-4.361-10.394c-3.232-2.511-8.243-4.101-14.967-4.78
	C265.769,303.118,264.392,302.982,262.982,303.192L262.982,303.192z"/>
<path style="fill:#B28B3E;" d="M215.156,360.715c0-5.091,3.891-8.984,8.985-8.984c4.792,0,8.686,3.894,8.686,8.984
	c0,4.792-3.894,8.686-8.686,8.686C219.047,369.401,215.156,365.507,215.156,360.715L215.156,360.715z"/>
<path style="fill:#B28B3E;" d="M287.117,369.534c0-5.093,3.891-8.987,8.984-8.987c4.792,0,8.686,3.894,8.686,8.987
	c0,4.789-3.894,8.686-8.686,8.686C291.008,378.22,287.117,374.323,287.117,369.534L287.117,369.534z"/>
<path style="fill:#B28B3E;" d="M389.761,359.391c0-5.093,3.894-8.987,8.987-8.987c4.792,0,8.683,3.894,8.683,8.987
	c0,4.789-3.891,8.686-8.683,8.686C393.654,368.077,389.761,364.18,389.761,359.391L389.761,359.391z"/>
<path style="fill:#B28B3E;" d="M462.721,345.81c-6.881,2.674-13.842,5.38-20.87,8.116c-7.111,2.766-14.317,5.569-21.601,8.4
	c-3.3-14.027-6.526-27.769-9.685-41.206c-3.087-13.141-6.115-26.02-9.076-38.635c3.98-1.273,7.942-2.54,11.874-3.799
	c2.559,10.456,5.174,21.086,7.829,31.893c2.707,11.008,5.466,22.221,8.27,33.634c5.065-1.909,10.087-3.803,15.065-5.679
	c4.934-1.861,9.835-3.717,14.701-5.551C460.384,337.23,461.548,341.517,462.721,345.81L462.721,345.81z"/>
<path style="fill:#B28B3E;" d="M468.411,328.94c0-5.091,3.894-8.985,8.984-8.985c4.792,0,8.686,3.894,8.686,8.985
	c0,4.792-3.894,8.686-8.686,8.686C472.305,337.626,468.411,333.732,468.411,328.94L468.411,328.94z"/>
<path style="fill:#B28B3E;" d="M382.359,371.814c-3.974,0.768-7.982,1.483-12.03,2.13c-0.963-7.558-1.911-14.994-2.845-22.286
	c-5.918,0.686-11.845,1.389-17.795,2.068c-5.968,0.68-11.945,1.395-17.939,2.083c0.605,7.276,1.217,14.687,1.844,22.229
	c-4.112,0.266-8.249,0.476-12.412,0.618c-0.298-4.358-0.591-8.674-0.883-12.946c-0.957-14.064-1.891-27.665-2.786-40.819
	c-0.697-10.346,2.133-18.374,8.685-24.649c2.541-2.432,5.269-4.296,8.131-5.669c2.846-1.368,5.832-2.346,8.961-2.766
	c3.256-0.44,6.462-0.088,9.511,0.704c3.066,0.797,5.971,2.251,8.833,4.026c7.197,4.467,11.614,11.564,13.118,22.103
	c1.838,12.878,3.749,26.197,5.717,39.971C381.095,362.96,381.722,367.362,382.359,371.814L382.359,371.814z M330.382,339.39
	c5.868-0.641,11.732-1.321,17.573-1.965c5.823-0.641,11.641-1.32,17.446-1.985c-0.674-5.244-1.339-10.429-1.991-15.555
	c-0.627-4.934-3.298-8.184-8.125-10.671c-3.693-1.903-7.392-2.869-10.42-2.544c-3.649,0.39-7.159,1.655-10.347,4.346
	c-3.991,3.368-5.897,7.235-5.451,12.615C329.499,328.828,329.939,334.075,330.382,339.39L330.382,339.39z"/>
<path style="fill:#B28B3E;" d="M219.297,483.138l0.102,3.047c0.591,17.659,2.974,34.682,6.895,50.716
	c12.874,52.52,42.249,94.544,79.888,113.391l1.316,0.659l1.318-0.659c37.639-18.845,67.015-60.871,79.888-113.391
	c3.922-16.034,6.305-33.057,6.896-50.719l0.103-3.044H219.297z"/>
<path style="fill:#FFFFFF;" d="M307.5,644.35c-34.12-17.642-61.731-56.309-74.546-105.202h149.092
	C369.231,588.042,341.621,626.709,307.5,644.35z"/>
<path d="M383.499,533.254H231.5c-3.29-14.05-5.389-28.869-6.088-44.221H389.59C388.889,504.384,386.789,519.203,383.499,533.254z"/>
</svg>
