<?xml version="1.0" encoding="iso-8859-1"?>
<!-- Generator: Adobe Illustrator 24.0.1, SVG Export Plug-In . SVG Version: 6.00 Build 0)  -->
<svg version="1.1" id="Layer_1" xmlns="http://www.w3.org/2000/svg" xmlns:xlink="http://www.w3.org/1999/xlink" x="0px" y="0px"
	 viewBox="0 0 612 792" style="enable-background:new 0 0 612 792;" xml:space="preserve">
<path style="fill:#113C64;" d="M307.804,679.261c-30.089-18.568-55.011-37.716-76.771-58.293
	c-21.768-20.584-40.378-42.601-57.837-66.903c-16.535-23.015-30.376-47.48-41.549-72.723c-11.592-26.189-20.325-53.23-26.224-80.371
	c-4.832-22.229-8.091-44.514-10.14-67.086c-2.044-22.519-2.875-45.294-2.857-68.565l0.09-113.172l0.002-1.932l1.9-0.318
	l214.207-35.834l0.376-0.063l0.374,0.063l214.208,35.834l1.9,0.318l0.002,1.932l0.09,113.172
	c0.019,23.271-0.813,46.046-2.856,68.565c-2.049,22.572-5.308,44.857-10.14,67.086c-5.899,27.141-14.632,54.182-26.224,80.371
	c-11.174,25.243-25.016,49.708-41.55,72.723c-17.459,24.303-36.069,46.319-57.838,66.903
	c-21.761,20.577-46.682,39.725-76.771,58.293L309,680L307.804,679.261z"/>
<path style="fill:#FFFFFF;" d="M309,677.323c-59.886-36.959-99.209-76.224-133.956-124.589
	c-33.47-46.588-55.865-99.223-67.39-152.246c-9.638-44.341-12.989-88.761-12.951-135.169l0.09-113.172L309,116.313l214.208,35.835
	l0.091,113.172c0.037,46.408-3.314,90.828-12.952,135.169c-11.525,53.023-33.92,105.658-67.39,152.246
	C408.21,601.1,368.887,640.364,309,677.323z"/>
<path style="fill:#E31F26;" d="M422.171,531.127c0.171-0.694,0.325-1.37,0.464-2.037c0.359-1.722,0.623-3.398,0.831-5.19
	c-0.073-1.565-0.213-3.127-0.422-4.681c-0.111-0.83-0.243-1.658-0.393-2.482c-2.073,0.892-4.098,1.541-6.547,1.902v17.004
	C418.248,534.304,420.276,532.794,422.171,531.127z"/>
<path style="fill:#E31F26;" d="M419.646,460.208c1.726,0.693,3.456,1.463,5.19,2.288c-2.614-2.696-5.547-5.065-8.733-7.056v0.88
	C417.308,457.489,418.489,458.775,419.646,460.208z"/>
<path style="fill:#E31F26;" d="M428.101,495.551c1.188-0.669,2.307-1.358,3.335-2.075c1.47-1.023,2.741-2.094,3.741-3.226
	c0.431-3.388,0.578-6.816,0.382-10.293c-1.976-5.731-5.009-10.955-8.86-15.425c-0.359-0.181-0.719-0.358-1.077-0.534
	c-2.11-1.033-4.227-1.995-6.351-2.847l-3.167,2.355v21.487C420.486,488.372,424.417,491.918,428.101,495.551z"/>
<path style="fill:#E31F26;" d="M424.461,523.527c1.339,0.309,2.625,0.556,3.86,0.742c0.066,0.01,0.132,0.02,0.199,0.028
	c6.037-7.948,9.631-17.925,9.631-28.757c0-0.337-0.002-0.673-0.01-1.008c-0.765-1.114-1.59-2.216-2.494-3.296
	c-1.009,1.082-2.237,2.102-3.632,3.072c-1.125,0.782-2.364,1.539-3.689,2.275c-0.207,6.697-1.96,12.925-4.91,18.787
	c0.254,1.231,0.465,2.47,0.632,3.711C424.246,520.556,424.383,522.038,424.461,523.527z"/>
<path style="fill:#E31F26;" d="M436.654,483.612c-0.025,2.249-0.186,4.48-0.465,6.696c0.665,0.779,1.288,1.572,1.878,2.375
	C437.885,489.568,437.404,486.535,436.654,483.612z"/>
<path style="fill:#E31F26;" d="M416.103,452.848c14.908,8.398,24.985,24.367,24.985,42.693c0,18.325-10.077,34.294-24.985,42.692
	v26.459c1.042-1.255,2.071-2.511,3.092-3.768c27.32-33.646,47.872-70.329,62.007-108.741
	c19.226-52.25,26.936-107.702,26.975-163.075l0.04-60.392h-92.113V452.848z"/>
<path style="fill:#E31F26;" d="M424.408,524.557c-0.2,1.615-0.45,3.155-0.78,4.739c-0.043,0.206-0.088,0.412-0.134,0.619
	c1.539-1.464,2.98-3.034,4.311-4.699C426.715,525.044,425.583,524.823,424.408,524.557z"/>
<polygon style="fill:#E31F26;" points="416.103,153.692 416.103,224.509 508.22,224.509 508.258,168.983 "/>
<path style="fill:#113C64;" d="M399.127,498.814c0.02-0.021,0.042-0.041,0.062-0.061c-2.52-0.942-5.12-1.857-7.777-2.748
	c-3.365-1.129-6.83-2.223-10.348-3.285c-5.048,3.559-9.794,7.774-14.15,12.844c0.085,3.563,0.355,6.678,1.032,9.452
	c0.728,2.982,1.932,5.58,3.9,7.93c3.7,3.223,10.321,5.274,19.18,6.431c2.761-1.732,5.315-3.624,7.696-5.649
	c1.348-1.148,2.625-2.353,3.87-3.583v-8.621C401.356,507.626,400.238,503.497,399.127,498.814z"/>
<path style="fill:#113C64;" d="M365.907,505.788c-4.075-3.137-8.149-6.744-12.226-10.727c-1.238,0.746-2.566,1.77-3.941,3.029
	c-1.081,0.989-2.19,2.125-3.309,3.387c1.262,10.209,5.736,19.4,12.355,26.483c1.826,0.451,3.615,0.817,5.345,1.061l6.449-6.031
	c-1.787-2.313-2.916-4.854-3.62-7.736C366.278,512.453,365.999,509.336,365.907,505.788z"/>
<polygon style="fill:#113C64;" points="402.593,151.451 309,135.922 109.743,168.983 109.781,224.509 402.593,224.509 "/>
<path style="fill:#113C64;" d="M399.376,524.496c-2.429,2.067-5.034,3.997-7.85,5.762l2.526,8.664
	c1.567,0.378,3.216,0.702,4.93,0.982c1.169,0.191,2.381,0.356,3.61,0.509v-18.83C401.556,522.58,400.485,523.553,399.376,524.496z"
	/>
<path style="fill:#113C64;" d="M390.339,461.57c-2.647,1.736-5.132,3.56-7.449,5.471c-2.1,1.732-4.063,3.541-5.892,5.43
	c0.958,7.159,2.497,13.602,4.595,19.35c3.435,1.04,6.83,2.113,10.141,3.224c2.829,0.949,5.592,1.925,8.262,2.928
	c0.866-0.834,1.733-1.647,2.598-2.449v-31.27C398.801,462.981,394.773,462.108,390.339,461.57z"/>
<path style="fill:#113C64;" d="M360.102,529.313c1.894,1.869,3.945,3.575,6.131,5.094c-1.046-1.246-1.863-2.699-2.414-4.407
	C362.601,529.823,361.36,529.592,360.102,529.313z"/>
<path style="fill:#113C64;" d="M358.428,469.121c0.421,1.733,0.91,3.434,1.442,5.11c5.553-0.941,10.903-1.637,16.138-2.194
	c1.923-2.01,4.006-3.935,6.239-5.777c2.257-1.862,4.665-3.638,7.219-5.328l-1.518-9.264c-1.97-0.109-4.126-0.137-6.422-0.103
	c-1.966,0.029-4.041,0.103-6.196,0.211c-3.231,1.291-6.286,2.945-9.113,4.912c-1.106,1.676-2.19,3.341-3.24,4.99
	C361.384,464.181,359.854,466.666,358.428,469.121z"/>
<path style="fill:#113C64;" d="M349.058,497.344c1.518-1.389,2.986-2.507,4.355-3.301c0.397-7.856,2.3-14.134,5.619-19.102
	c-0.573-1.782-1.104-3.602-1.563-5.478c-1.085-0.255-2.166-0.465-3.244-0.629c-5.145,7.584-8.159,16.787-8.159,26.707
	c0,1.547,0.073,3.077,0.218,4.587C347.218,499.11,348.145,498.18,349.058,497.344z"/>
<path style="fill:#113C64;" d="M388.999,450.719c3.841-1.145,7.593-1.591,11.323-1.416c-2.665-0.49-5.41-0.746-8.212-0.746
	c-4.717,0-9.269,0.725-13.554,2.069c1.007-0.034,1.994-0.059,2.958-0.072C384.228,450.514,386.748,450.558,388.999,450.719z"/>
<path style="fill:#113C64;" d="M362.123,461.134c0.57-0.896,1.148-1.793,1.733-2.691c-3.411,2.71-6.44,5.899-8.987,9.469
	c0.921,0.151,1.845,0.335,2.77,0.551C359.035,466.065,360.543,463.615,362.123,461.134z"/>
<path style="fill:#113C64;" d="M343.131,495.541c0-27.046,21.933-48.979,48.979-48.979c3.599,0,7.104,0.399,10.482,1.138V228.717
	H109.784l0.041,60.392c0.037,55.373,7.748,110.825,26.974,163.075c14.133,38.412,34.687,75.095,62.006,108.741
	c28.832,35.511,65.879,70.461,110.195,96.452c36.227-21.247,67.598-48.482,93.593-77.114v-36.881
	c-3.379,0.738-6.884,1.138-10.482,1.138C365.063,544.52,343.131,522.586,343.131,495.541z"/>
<path style="fill:#113C64;" d="M398.819,540.904c-1.781-0.291-3.494-0.631-5.125-1.027l-6.597,2.373
	c1.646,0.182,3.318,0.275,5.013,0.275c3.466,0,6.842-0.392,10.089-1.132C401.05,541.247,399.923,541.085,398.819,540.904z"/>
<path style="fill:#FFFFFF;" d="M458.063,253.421v-1.108v-1.01v-0.578c0-0.546-0.053-3.108-0.456-3.467
	c-0.141-0.124-0.42-0.187-0.836-0.187l-1.245,0.044c-0.536,0.061-1.28-0.146-1.742-0.415c-0.579-0.337-0.964-0.853-0.964-1.56
	c0-0.689,0.342-1.29,0.956-1.752c1.027-0.771,2.328-0.836,3.551-0.969c0-0.002,0.294-0.033,0.317-0.036
	c0.803-0.089,1.604-0.187,2.329-0.351c0.735-0.165,1.397-0.339,2.025-0.557c0.611-0.212,1.214-0.476,1.853-0.829
	c0.441-0.243,0.893-0.364,1.4-0.37c0.095-0.001,0.184,0.002,0.266,0.011c0.482,0.047,0.897,0.232,1.208,0.551
	c0.318,0.326,0.502,0.761,0.508,1.294c0.001,0.092-0.003,0.181-0.011,0.266c-0.197,2.003-0.416,4.135-0.455,6.165
	c-0.007,0.347-0.013,0.693-0.023,1.038c-0.071,2.187-0.117,4.358-0.142,6.517c-0.027,2.304-0.031,4.607-0.018,6.908
	c0.009,1.299,0.027,2.647,0.061,4.007c0.034,1.32,0.085,2.661,0.161,3.991c0.046,0.805,0.351,1.565,0.845,2.148
	c0.46,0.543,1.085,0.932,1.815,1.053c0.066,0.008,0.15,0.017,0.231,0.025c1.441,0.142,2.118,0.503,2.1,2.023
	c0,0.569-0.217,1.129-0.646,1.511c-0.387,0.348-0.9,0.528-1.539,0.528c-0.46-0.025-0.919-0.041-1.377-0.073
	c-0.541-0.037-1.092-0.075-1.638-0.076c-2.781-0.007-4.807,0.037-6.79,0.08c-1.149,0.025-2.287,0.05-3.585,0.065
	c-1.291,0.007-2.228-0.621-2.263-1.958c-0.017-0.593,0.182-1.137,0.637-1.536c0.386-0.338,0.896-0.507,1.533-0.507
	c0.371,0,0.763-0.042,1.109-0.186c0.202-0.082,0.353-0.345,0.432-0.535c0.22-0.528,0.332-1.109,0.397-1.676l0.084-4.289
	L458.063,253.421L458.063,253.421z M448.892,313.211c-0.088-1.807,0.207-3.525,0.814-5.093c0.633-1.636,1.605-3.103,2.836-4.332
	c1.19-1.189,2.579-2.071,4.108-2.66c1.575-0.607,3.288-0.904,5.076-0.904c2.027,0,3.888,0.344,5.553,1.063
	c1.633,0.705,3.068,1.766,4.28,3.211c1.214,1.448,2.143,3.154,2.767,5.095c0.609,1.894,0.925,4.003,0.925,6.302
	c0,3.184-0.539,6.132-1.573,8.836c-1.058,2.768-2.636,5.277-4.685,7.52c-2.033,2.223-4.299,3.893-6.797,5.008
	c-2.509,1.12-5.237,1.68-8.185,1.68c-2.599,0-3.898-0.692-3.898-2.075c0-0.749,0.561-1.386,1.681-1.91
	c0.792-0.37,1.945-0.745,3.462-1.12c1.386-0.344,2.73-0.892,3.915-1.603c1.122-0.674,2.096-1.491,2.818-2.414
	c0.708-0.904,1.404-1.993,2.005-3.062c0.674-1.201,1.212-2.353,1.498-3.172l0.028-0.081c0.105-0.304,0.357-0.776,0.529-1.129
	l-1.62,1.007c-0.618,0.384-1.354,0.668-2.208,0.852c-0.815,0.176-1.742,0.265-2.776,0.265c-1.339,0-2.652-0.253-3.875-0.754
	c-1.19-0.487-2.286-1.21-3.227-2.165c-1.098-1.119-1.906-2.383-2.468-3.747C449.28,316.38,448.969,314.825,448.892,313.211
	L448.892,313.211z M458.154,316.129c0.604,0.808,1.252,1.409,1.94,1.802c0.647,0.371,1.344,0.558,2.086,0.558
	c1.016,0,1.961-0.446,2.835-1.336c0.445-0.454,0.778-0.937,0.999-1.449c0.213-0.496,0.319-1.026,0.319-1.589
	c0-0.37-0.05-0.773-0.15-1.207c-0.107-0.456-0.27-0.957-0.49-1.5c-0.114-0.306-0.216-0.615-0.341-0.917
	c-0.114-0.271-0.245-0.553-0.392-0.841c0-0.142-0.37-0.693-0.454-0.836c-0.145-0.245-0.313-0.512-0.506-0.796
	c-0.248-0.451-0.599-0.9-0.943-1.283c-0.309-0.345-0.635-0.64-0.978-0.885c-0.315-0.224-0.645-0.393-0.985-0.504
	c-0.334-0.109-0.688-0.163-1.062-0.163c-1.047,0-1.921,0.425-2.622,1.273c-0.37,0.448-0.65,0.953-0.835,1.514
	c-0.184,0-0.287,1.776-0.287,1.931C456.288,312.159,456.78,314.294,458.154,316.129L458.154,316.129z M451.864,399.236
	c-0.521,0-0.98-0.146-1.332-0.441c-0.387-0.322-0.606-0.773-0.606-1.346c0-0.586,0.245-1.21,0.596-1.817
	c0.297-0.511,0.672-1.02,1.017-1.463c0.876-1.13,1.826-2.271,2.778-3.412c1.441-1.731,2.793-3.492,4.11-5.284
	c1.597-2.172,3.099-4.38,4.576-6.632c0.337-0.514,0.764-1.194,1.181-1.948c0.417-0.756,0.83-1.593,1.145-2.422
	c0.205-0.542,0.482-1.385,0.679-2.184c0.138-0.555,0.234-1.076,0.234-1.423c0-0.603-0.123-1.206-0.341-1.759
	c-0.715-1.813-2.342-2.68-4.274-2.68c-1.016,0-2.001,0.285-2.946,0.711c-1.544,0.695-2.848,1.752-4.327,2.547
	c-0.351,0.189-0.828,0.43-1.238,0.43c-0.594,0-1.069-0.184-1.425-0.554c-0.344-0.358-0.517-0.833-0.517-1.424
	c0-0.736,0.594-1.779,1.781-3.126c0.56-0.636,1.261-1.244,2.102-1.824c1.842-1.271,3.99-2.259,6.173-2.754
	c1.143-0.259,2.295-0.389,3.456-0.389c1.524,0,2.913,0.206,4.168,0.618c1.276,0.418,2.406,1.049,3.388,1.891
	c0.994,0.853,1.742,1.839,2.245,2.958c0.5,1.114,0.751,2.343,0.751,3.686c0,0.376-0.016,0.741-0.045,1.094
	c-0.103,1.237-0.482,2.335-1.038,3.43c-0.482,0.949-1.04,1.862-1.642,2.739c-0.313,0.454-0.715,0.997-1.209,1.628
	c-0.502,0.642-1.059,1.33-1.675,2.061l-2.005,2.283l-0.001-0.001l-3.926,4.563l-2.719,3.257c-0.438,0.535-0.773,0.958-1.014,1.289
	c0.881-0.002,1.761-0.003,2.642,0.002c2.503,0.015,6.354,0.039,7.828-1.446l0.627-0.631c0.895-0.902,1.696-1.314,2.335-1.382
	c0.478-0.051,0.89,0.066,1.225,0.315c0.327,0.243,0.547,0.589,0.653,1.007c0.156,0.621,0.045,1.455-0.38,2.295l-0.952,1.885
	l-0.748,1.786l-0.215,0.803c-0.003,0-0.273,0.714-0.305,0.765c-0.208,0.34-0.495,0.591-0.888,0.711
	c-0.468,0.15-0.961,0.237-1.453,0.237c-0.305,0-0.561-0.025-0.819-0.052c-0.207-0.02-0.417-0.041-0.663-0.041h-3.935
	c-1.643,0-3.233,0.008-4.634,0.038c-1.508,0.033-3.038,0.094-4.602,0.198c-0.364,0.022-0.717,0.02-1.077,0.096
	c-0.278,0.059-0.54,0.149-0.775,0.281l-0.918,0.645l-0.265,0.188H451.864L451.864,399.236z M466.788,427.673
	c-1.291-0.004-2.998,0.002-4.698,0.008c-1.68,0.006-3.353,0.013-4.622,0.009c-0.399-0.001-0.865,0.021-1.325,0.102
	c-0.395,0.069-0.765,0.18-1.032,0.355c-0.121,0.079-0.285,0.414-0.439,0.731c-0.408,0.837-0.79,1.619-1.892,1.616
	c-0.793-0.002-1.462-0.341-1.829-1.089c-0.176-0.355-0.247-0.759-0.246-1.151c0.001-0.413,0.079-0.821,0.193-1.143
	c0.032-0.087,0.456-1.2,0.471-1.194c0.15-0.367,0.297-0.726,0.482-1.273c0.134-0.499,0.282-0.952,0.432-1.403
	c0.121-0.367,0.243-0.737,0.344-1.088c0.147-0.513,0.414-0.91,0.786-1.191c0.397-0.299,0.871-0.424,1.362-0.424l1.858,0.006
	l3.491,0.014l6.039,0.025c1.05,0.005,2.102,0.01,3.159,0.01c0.841,0,1.672-0.15,2.514-0.149c0.452,0.002,0.815,0.024,1.085,0.065
	c0.413,0.063,0.736,0.186,0.968,0.367c0.205,0.16,0.496,0.473,0.67,0.899c0.12,0.297,0.192,0.656,0.152,1.069
	c-0.024,0.25-0.054,0.463-0.087,0.668c-0.037,0.232-0.073,0.421-0.113,0.626c-0.139,0.713-0.299,1.423-0.511,2.174
	c-0.21,0.742-0.472,1.532-0.817,2.419c-0.341,0.879-0.657,1.685-0.931,2.341c-0.301,0.719-0.586,1.354-0.864,1.878
	c-0.594,1.123-1.212,2.219-1.822,3.301c-1.182,2.099-2.319,4.221-3.509,6.315c-0.895,1.577-1.786,3.147-2.604,4.755
	c-0.776,1.525-1.387,2.876-1.844,4.043c-0.488,1.244-0.806,2.279-0.972,3.102c-0.056,0.278-0.12,0.624-0.185,0.973
	c-0.133,0.717-0.395,1.336-0.874,1.898c-0.4,0.469-0.922,0.855-1.48,1.006c-0.468,0.128-1.03,0.234-1.591,0.312
	c-0.862,0.119-1.872,0.288-2.729,0.042c-0.489-0.14-0.873-0.406-1.167-0.768c-0.232-0.283-0.391-0.616-0.49-0.983
	c-0.14-0.522-0.181-1.096-0.061-1.626c0.19-0.843,0.76-1.93,1.475-3.295c0.616-1.187,1.242-2.365,1.921-3.518
	c0.537-0.913,1.103-1.81,1.714-2.712c0.764-1.129,1.538-2.252,2.328-3.364c0.671-0.945,1.351-1.884,2.029-2.826
	c0.115-0.161,1.588-2.21,1.602-2.201c0.728-1.001,1.477-2.103,2.195-3.255c0.637-1.023,1.231-2.059,1.739-3.061
	c0.451-0.892,0.766-1.627,1.02-2.285c0.169-0.436,0.264-0.816,0.088-0.995c-0.12-0.122-0.362-0.105-0.81-0.122
	C467.311,427.682,466.788,427.676,466.788,427.673z"/>
<path style="fill:#FFFFFF;" d="M434.664,189.939c0,0.939,0.599,1.021,1.435,1.021h5.168c0.68,0,1.232-0.036,1.659-0.105
	c0.244-0.04,0.439-0.088,0.583-0.143c0.189-0.296,0.348-0.573,0.482-0.85c0.329-0.674,0.489-1.426,0.794-2.11
	c0.079-0.177,0.161-0.334,0.245-0.473c0.419-0.694,1.055-1.056,1.88-1.066c0.683-0.009,1.357,0.32,1.761,0.842
	c0.501,0.647,0.538,1.43,0.528,2.21c-0.011,0.707-0.03,1.395-0.049,2.081c-0.032,1.22-0.065,2.442-0.051,3.643l0.047,3.962
	c0.011,0.841-0.004,1.665-0.522,2.383c-0.42,0.582-1.025,0.879-1.807,0.887c-0.724,0.008-1.293-0.249-1.759-0.828
	c-0.353-0.438-0.595-1.044-0.728-1.817l-0.007-0.083c-0.043-0.481-0.137-0.899-0.277-1.254c-0.128-0.32-0.299-0.589-0.51-0.806
	c-0.175-0.175-0.464-0.316-0.869-0.423c-0.494-0.13-1.135-0.196-1.918-0.196h-3.695c-0.781,0-1.455,0.036-1.847,0.247
	c-0.253,0.136-0.406,0.442-0.406,1.048l-0.018,10.131c-0.001,0.874,0.074,1.598,0.19,2.171c0.122,0.6,0.274,0.989,0.414,1.177
	c0.054,0.072,0.226,0.145,0.515,0.22c0.438,0.111,1.037,0.167,1.797,0.167h1.189c0.558,0,1.183,0.39,1.493,0.839
	c0.268,0.388,0.401,0.872,0.401,1.451c0,1.597-0.855,2.395-2.566,2.395h-11.472c-1.139,0-2.271,0.16-3.41,0.16
	c-0.761,0-1.366-0.188-1.813-0.563c-0.502-0.421-0.753-1.006-0.753-1.753c0-0.486,0.145-0.954,0.451-1.36
	c0.263-0.348,0.639-0.637,1.135-0.836c0.668-0.267,1.2-0.521,1.517-0.855c0.263-0.278,0.409-0.685,0.409-1.335v-2.494v-23.012
	v-1.707c0-0.298,0.042-1.272-0.297-1.455c-0.116-0.063-0.277-0.111-0.48-0.145c-0.372-0.047-0.78-0.061-1.143-0.155
	c-0.656-0.17-1.339-0.583-1.658-1.203c-0.164-0.318-0.245-0.676-0.245-1.076c0-0.81,0.329-1.427,0.984-1.848
	c0.514-0.329,1.214-0.494,2.099-0.494h6.821h13.125c0.844,0,1.634-0.046,2.425-0.09c0.722-0.041,1.441-0.087,2.164-0.091
	c1.019-0.006,2.384,0.158,2.953,0.99c0.203,0.295,0.363,0.635,0.471,0.977l1.23,5.024h0.001c0.17,0.687,0.256,1.299,0.152,1.841
	h-0.001c-0.145,0.757-0.572,1.292-1.441,1.545c-1.833,0.536-2.461-0.211-3.098-0.971l-0.137-0.164l-2.38-2.69
	c-0.065-0.075-0.262-0.174-0.567-0.287c-0.383-0.14-0.873-0.262-1.443-0.346c-0.619-0.092-1.41-0.162-2.305-0.208
	c-0.922-0.048-2.002-0.072-3.161-0.072c-0.846,0-1.636,0.079-2.273,0.216c-0.551,0.117-0.947,0.256-1.107,0.396
	c-0.115,0.101-0.181,0.221-0.222,0.415c-0.071,0.338-0.085,0.872-0.085,1.679V189.939L434.664,189.939z M445.142,208.477
	c-0.816,0.468-1.481,1.145-2.029,1.902c-0.174,0.239-0.347,0.506-0.518,0.797c-0.39,0.661-0.584,1.204-0.584,1.626
	c0,0.243,0.025,0.567,0.11,0.896c0.387,1.502,2.527,3.321,4.049,3.321c0.454,0,0.957-0.156,1.506-0.469
	c0.629-0.358,1.208-0.827,1.722-1.335c0.81-0.81,1.268-1.269,1.268-2.698c0-0.436-0.103-0.883-0.308-1.34
	c-0.18-0.404-0.443-0.814-0.791-1.232c-0.31-0.374-0.569-0.668-0.775-0.881c-0.207-0.215-0.393-0.38-0.558-0.497
	c-0.198-0.178-0.425-0.314-0.676-0.407c-0.262-0.096-0.543-0.145-0.843-0.145C446.201,208.017,445.677,208.17,445.142,208.477
	L445.142,208.477z M498.165,208.531c0.535-0.305,1.06-0.459,1.573-0.459c0.3,0,0.58,0.049,0.842,0.145
	c0.244,0.09,0.463,0.22,0.657,0.389c0.165,0.115,0.357,0.287,0.577,0.515c0.206,0.213,0.465,0.506,0.775,0.881
	c0.349,0.417,0.612,0.829,0.792,1.232c0.204,0.456,0.307,0.904,0.307,1.34c0,1.429-0.458,1.888-1.268,2.698
	c-0.514,0.507-1.093,0.975-1.721,1.333c-0.55,0.313-1.052,0.47-1.507,0.47c-1.545,0-3.572-1.959-4.037-3.44
	c-0.081-0.256-0.122-0.515-0.122-0.777c0-0.422,0.195-0.965,0.584-1.626C496.247,210.157,497.074,209.158,498.165,208.531
	L498.165,208.531z M491.394,183.746l0.052,0.848c0.056,0.929-0.168,1.588-0.622,2.052c-0.465,0.473-1.086,0.66-1.832,0.66
	c-1.591,0-2.063-1.221-2.493-2.335c-0.078-0.202-0.154-0.399-0.235-0.562c-0.554-1.128-2.219-1.976-3.251-2.513v-0.001
	c-0.899-0.466-1.974-0.843-3.092-1.104c-1.146-0.268-2.332-0.415-3.422-0.415c-1.648,0-3.149,0.359-4.493,1.035
	c-1.404,0.705-2.66,1.765-3.758,3.129c-1.13,1.403-2.067,3.128-2.712,5.093c-0.608,1.854-0.953,3.923-0.953,6.144
	c0,2.315,0.404,4.405,1.157,6.25c0.775,1.902,1.924,3.552,3.382,4.928c1.429,1.349,3.261,2.379,5.363,3.039
	c2.121,0.666,4.51,0.956,7.034,0.816l2.884-0.16c0.527-0.038,1.038-0.067,1.557-0.172c0.226-0.045,0.466-0.102,0.722-0.167
	c0.833-0.215,1.667-0.43,2.5-0.645l1.648-0.372c0.981-0.219,1.477,0.157,1.931,0.643c0.397,0.425,0.596,1.001,0.596,1.725
	c0,0.801-0.521,1.585-1.564,2.35c-0.819,0.602-2.032,1.253-3.636,1.949c-1.601,0.695-3.34,1.215-5.216,1.56
	c-1.874,0.345-3.875,0.517-6.003,0.517c-4.8,0-8.864-0.89-12.193-2.67c-1.675-0.895-3.171-1.982-4.486-3.258
	c-1.316-1.277-2.454-2.743-3.41-4.396c-0.954-1.652-1.672-3.395-2.15-5.229c-0.479-1.833-0.718-3.745-0.718-5.732
	c0-3.151,0.529-6.039,1.589-8.662c1.061-2.63,2.652-4.983,4.773-7.055c2.112-2.066,4.518-3.618,7.215-4.656
	c2.687-1.034,5.642-1.55,8.866-1.55c1.107,0,2.199,0.051,3.276,0.153c1.055,0.101,2.069,0.252,3.045,0.452l2.589,0.402
	c0.269-0.004,0.503-0.039,0.696-0.104c0.534-0.178,1.003-0.745,1.403-1.111c0.222-0.203,0.466-0.298,0.743-0.367
	c0.149-0.038,0.301-0.059,0.452-0.062c0.766-0.017,1.54,0.229,2.059,0.818c0.412,0.468,0.635,1.105,0.655,1.905
	c0.007,0.459-0.018,0.921-0.031,1.381c-0.022,0.757-0.046,1.504-0.04,2.257c0.004,0.489,0.018,1.01,0.037,1.545
	c0.02,0.516,0.049,1.07,0.086,1.642V183.746z"/>
<path style="fill:#FFFFFF;" d="M148.033,212.04c-0.646-0.183-1.218-0.378-1.681-0.642c-0.406-0.23-0.743-0.527-0.995-0.942
	c-0.852-1.402-0.827-3.675-0.808-5.362l0.002-0.225l0.208-20.004c0.009-0.813,0.051-1.452,0.121-1.913
	c0.08-0.529,0.673-0.448,1.413-0.447l6.255,0.042c0.56,0,0.971,0.04,1.264,0.105c0.33,0.073,0.6,0.218,0.72,0.563
	c0.05,0.143,0.061,0.368,0.061,0.694c0,1.562,0.74,2.343,2.22,2.343c0.958,0,1.618-0.344,2.093-1.024
	c0.383-0.55,0.581-1.278,0.694-2.204l0.583-4.743c0.043-0.374,0.122-0.739,0.133-1.117c0.034-1.107-0.308-1.943-1.975-1.995
	c-0.724-0.022-1.583,0.275-2.417,0.563c-0.188,0.064-0.373,0.128-0.625,0.21c-2.57,0.824-6.186,0.685-9.355,0.564
	c-1.03-0.04-2.015-0.078-2.947-0.081l-10.487-0.034c-1.123-0.003-2.65-0.204-4.18-0.405c-1.623-0.214-3.249-0.427-4.499-0.427
	c-0.738,0-1.3,0.18-1.749,0.614c-0.416,0.402-0.651,0.958-0.764,1.732l-1.09,6.639c-0.116,0.71-0.004,1.441,0.514,1.982
	c0.481,0.5,1.183,0.683,1.856,0.683c1.274,0,1.92-0.953,2.475-1.773h0.004c0.424-0.627,0.9-1.255,1.453-1.772
	c0.322-0.302,0.647-0.519,1.036-0.677c0.432-0.178,1.066-0.3,1.841-0.381c0.813-0.085,1.787-0.118,2.855-0.118
	c2.305,0,2.822-0.121,2.802,2.528l-0.171,21.95c-0.006,0.824-0.099,1.555-0.242,2.188c-0.169,0.754-0.41,1.365-0.654,1.837
	l-0.002-0.001c-0.396,0.764-1.141,0.945-1.94,1.036c-1.372,0.157-2.43,0.279-2.384,2.202c0.015,0.609,0.058,1.107,0.306,1.549
	c0.33,0.588,0.853,0.907,1.752,0.907c1.473,0,3.165-0.037,4.865-0.073c1.125-0.024,2.255-0.048,3.377-0.061
	c1.086-0.012,2.187,0.013,3.287,0.038c0.531,0.013,1.065,0.024,1.622,0.032v0.001l2.459,0.141l0.056,0.004h0.066v-0.004
	c1.787,0.001,2.638,0.001,2.638-2.415c0-0.588-0.191-1.088-0.604-1.511C149.152,212.484,148.672,212.222,148.033,212.04z"/>
<path style="fill:#FFFFFF;" d="M397.501,187.846c-1.112-2.593-2.78-4.874-5.003-6.842c-2.211-1.959-4.754-3.426-7.627-4.401
	c-2.857-0.97-6.034-1.455-9.53-1.455c-3.432,0-6.546,0.481-9.341,1.442c-2.817,0.969-5.305,2.424-7.464,4.365
	c-0.867,0.78-1.647,1.609-2.342,2.487c0.021-0.137,0.042-0.278,0.061-0.425l0.583-4.743c0.046-0.377,0.121-0.732,0.132-1.117
	c0.035-1.107-0.307-1.943-1.974-1.995c-0.724-0.022-1.583,0.275-2.417,0.562c-0.188,0.066-0.373,0.129-0.625,0.21
	c-2.569,0.824-6.186,0.685-9.355,0.563c-1.03-0.039-2.015-0.078-2.946-0.08l-10.488-0.035c-1.123-0.003-2.65-0.204-4.179-0.405
	c-1.624-0.214-3.25-0.427-4.5-0.427c-0.737,0-1.3,0.18-1.749,0.614c-0.29,0.28-0.492,0.635-0.627,1.088
	c-0.644-0.777-1.813-0.778-2.879-0.778c-0.443,0-0.917,0.078-1.357,0.128c-0.738,0.084-1.478,0.169-3.001,0.174
	c-2.735,0.01-3.534-0.046-4.513-0.116c-0.358-0.025-0.746-0.053-1.392-0.085c-0.626-0.054-1.422,0.036-2.001,0.285
	c-0.805,0.348-1.371,0.993-1.371,2.206c0,0.806,0.284,1.367,0.925,1.75c0.472,0.282,1.101,0.397,1.947,0.397
	c0.687,0,1.304,0.061,1.796,0.17c0.421,0.092,0.728,0.207,0.876,0.329c0.696,0.575,0.73,2.727,0.727,4.128
	c-0.003,1.462-0.005,2.925-0.006,4.386v8.959c0,0.155,0.013,0.452,0.025,0.762l0.027,0.696c-3.981-3.791-8.111-8.294-12.086-12.629
	c-1.832-1.998-3.633-3.961-5.402-5.834c-0.391-0.414-0.635-0.893,0.018-1.072c0.598-0.164,1.037-0.333,1.384-0.645
	c0.521-0.468,0.643-1.093,0.626-1.759c-0.022-0.836-0.193-1.36-0.67-1.757c-0.934-0.778-3.192-0.445-4.344-0.423
	c-1.616,0.031-3.233,0.062-4.829,0.068c-2.741,0.008-4.097-0.092-5.188-0.172c-0.855-0.063-1.701-0.103-2.559-0.096
	c-1.618,0.015-2.914,0.026-2.914,2.489c0,1.99,1.001,2.107,2.322,2.261c0.361,0.042,0.724,0.087,1.065,0.225
	c0.756,0.306,1.032,1.171,1.191,1.908c0.151,0.693,0.192,1.386,0.2,1.891c0.04,2.316-0.061,4.355-0.173,6.617l-0.18,4.801
	l-0.052,8.961c-0.055,0.548-0.06,1.12-0.065,1.699c-0.016,1.747-0.032,3.575-1.933,4.671c-0.564,0.325-1.498,0.615-1.85,1.155
	c-0.4-0.413-0.893-0.658-1.431-0.84c-0.272-0.093-0.609-0.192-1.014-0.306c-0.501-0.14-0.968-0.497-1.291-0.9
	c-0.311-0.387-0.54-0.831-0.728-1.308c-0.201-0.511-0.358-1.075-0.511-1.647l-6.601-24.669c-0.086-0.322-0.175-0.653-0.235-0.94
	c-0.058-0.271-0.276-0.854,0.009-1.027c0.243-0.148,0.642-0.233,1.159-0.254c0.764-0.027,1.496-0.048,2.111-0.576
	c0.573-0.493,0.733-1.118,0.719-1.838c0-1.303-1.071-2.38-2.373-2.38c-0.561,0.038-1.117,0.066-1.677,0.114
	c-2.494,0.218-5.044,0.201-7.548,0.191c-1.805-0.007-3.607-0.026-5.411-0.107c-0.983-0.044-1.945-0.088-3.068-0.095
	c-1.428,0-2.796,0.761-2.796,2.416c0,2.051,0.601,2.118,2.306,2.308l0.455,0.051c0.984,0.127,0.852,0.787,0.579,1.559
	c-0.222,0.625-0.566,1.214-0.875,1.8c-0.76,1.419-2.08,3.886-3.312,6.896c-0.737,1.801-1.421,3.564-2.156,5.456
	c-0.622,1.602-1.279,3.295-2.045,5.21l-2.964,7.403c-0.455,0.892-0.832,1.631-1.493,2.057c-0.694,0.447-1.547,0.463-2.221,0.942
	c-0.074-0.046-0.149-0.09-0.226-0.13c-1.328-0.696-2.2-1.288-2.961-2.01c-0.772-0.734-1.465-1.636-2.416-2.927
	c-1.092-1.483-2.029-2.862-2.847-4.242c-0.376-0.634-0.715-1.277-1.058-1.915c-1.987-3.703-1.335-3.397-0.401-4.07
	c0.477-0.344,1.085-0.705,1.67-1.151c0.596-0.454,1.187-0.953,1.686-1.445c1.076-1.065,1.959-2.269,2.567-3.599
	c0.573-1.254,0.895-2.606,0.895-4.039c0-1.657-0.321-3.184-0.915-4.528c-0.615-1.392-1.523-2.586-2.67-3.527
	c-1.146-0.939-2.544-1.698-4.18-2.206c-1.509-0.469-3.23-0.729-5.152-0.726c-1.509,0.003-2.589,0.106-3.668,0.209
	c-0.5,0.048-1.001,0.096-1.608,0.136c-0.944,0.063-1.702,0.129-2.458,0.195c-1.595,0.139-3.191,0.279-5.114,0.309
	c-0.807,0.013-1.671-0.047-2.535-0.108c-0.693-0.048-1.388-0.098-2.083-0.105c-0.787,0-1.527,0.163-2.088,0.472
	c-0.716,0.395-1.214,1.05-1.214,1.892c0.001,1.725,1.5,2.467,2.703,2.657c0.561,0.089,0.991,0.21,1.294,0.357
	c0.784,0.378,0.617,2.71,0.617,3.41v21.711c0,0.946-0.051,1.726-0.094,2.378c-0.021,0.315-0.04,0.603-0.052,0.938
	c-0.023,0.599-0.136,0.939-0.35,1.131c-0.27,0.243-0.779,0.404-1.491,0.583c-0.563,0.142-0.996,0.424-1.301,0.821
	c-0.145,0.188-0.257,0.395-0.334,0.618c-0.106-0.227-0.249-0.421-0.405-0.585c-0.255-0.269-0.525-0.436-0.684-0.53
	c-0.19-0.113-0.443-0.22-0.764-0.328c-0.272-0.093-0.609-0.192-1.014-0.306c-0.501-0.14-0.968-0.497-1.291-0.9
	c-0.311-0.387-0.541-0.831-0.728-1.307c-0.201-0.512-0.357-1.076-0.511-1.648l-6.602-24.669c-0.087-0.322-0.174-0.653-0.234-0.94
	c-0.057-0.27-0.276-0.854,0.009-1.027c0.243-0.148,0.642-0.233,1.16-0.254c0.763-0.027,1.495-0.048,2.109-0.576
	c0.574-0.493,0.733-1.118,0.719-1.838c0-0.61-0.258-1.246-0.684-1.682c-0.505-0.517-1.087-0.702-1.789-0.692
	c-0.603,0.023-1.09,0.066-1.578,0.108c-2.563,0.224-5.139,0.201-7.71,0.191c-1.751,0-3.499-0.028-5.249-0.107
	c-0.996-0.044-1.972-0.089-3.115-0.095c-1.15,0-2.749,1.16-2.749,2.417c0,2.175,0.982,2.158,2.761,2.359
	c0.298,0.038,0.799,0.107,0.772,0.502c-0.031,0.435-0.079,0.732-0.194,1.056c-0.218,0.617-0.565,1.219-0.875,1.8
	c-0.759,1.419-2.079,3.886-3.311,6.896c-0.737,1.801-1.421,3.564-2.156,5.456c-0.622,1.602-1.279,3.295-2.045,5.21l-2.963,7.404
	c-0.375,0.938-0.953,1.691-1.494,2.056c-0.49,0.33-1.015,0.433-1.561,0.606c-0.469,0.17-0.879,0.434-1.172,0.845
	c-0.272,0.382-0.408,0.83-0.408,1.344c0.036,0.688,0.169,1.31,0.681,1.81c0.529,0.518,1.139,0.644,1.844,0.634
	c0.819-0.021,1.555-0.089,2.284-0.157c0.799-0.075,1.591-0.148,2.51-0.148c0.976,0,1.944,0.076,2.913,0.153
	c0.706,0.056,1.426,0.101,2.131,0.14c0.604,0.034,1.266-0.056,1.835-0.318c0.748-0.345,1.266-0.952,1.266-2.008
	c0-0.751-0.207-1.318-0.728-1.752c-0.438-0.364-1.042-0.548-1.895-0.587c-0.56-0.025-0.989-0.135-1.244-0.34
	c-0.157-0.127-0.246-0.337-0.246-0.639c0-0.569,0.104-1.326,0.306-2.188c0.198-0.843,0.484-1.766,0.853-2.692l1.15-2.891
	c0.224-0.562,0.513-0.9,0.874-1.086c0.412-0.214,0.977-0.283,1.676-0.283h8.627c0.831,0,1.682,0.364,1.98,1.216
	c0.254,0.728,0.618,1.814,0.919,3.098c0.294,1.252,0.526,2.686,0.526,4.127c0,0.439-0.081,0.725-0.239,0.907
	c-0.186,0.214-0.523,0.376-0.992,0.523c-1.038,0.33-2.656,1.206-2.656,2.523c0,0.642,0.085,1.202,0.51,1.687
	c0.412,0.47,1.041,0.731,2.064,0.703c1.085-0.029,2.121-0.084,3.159-0.139c1.503-0.08,3.014-0.16,4.431-0.159
	c1.129,0,2.256,0.077,3.389,0.155c0.924,0.063,1.853,0.127,2.912,0.15c0.684,0.015,1.387-0.098,1.983-0.45
	c0.412-0.243,0.741-0.576,0.931-1.018c0.126,0.386,0.343,0.714,0.648,0.979c0.458,0.396,1.074,0.605,1.845,0.605l0.18-0.007
	c0.819-0.033,1.58-0.071,2.342-0.11c1.557-0.079,3.114-0.157,4.615-0.174c1.537-0.017,2.957,0.022,4.42,0.063
	c0.919,0.025,1.84,0.065,2.759,0.065c1.491,0,2.677-0.224,2.677-2.368c0-0.731-0.203-1.304-0.763-1.737
	c-0.455-0.351-1.095-0.526-2.02-0.526c-0.481,0-1.238-0.093-1.878-0.32c-0.355-0.126-0.646-0.275-0.744-0.433
	c-0.198-0.32-0.352-0.716-0.461-1.238c-0.121-0.581-0.186-1.301-0.19-2.215l-0.038-7.544c0-0.937,0.112-0.826,1.103-0.826h1.056
	c1.03,0,1.227,0.601,1.52,1.496c0.085,0.26,0.176,0.537,0.276,0.809c0.336,0.91,0.604,1.695,0.848,2.415
	c0.966,2.839,1.608,4.724,4.052,7.726c1.508,1.852,2.727,3.218,4.261,4.153c1.902,1.16,4.111,1.417,6.248,1.419
	c1.201,0.001,2.61,0.004,3.515-0.427c0.244-0.116,0.435-0.235,0.586-0.358c0.842,0.112,1.968-0.056,2.818-0.134
	c0.799-0.075,1.59-0.148,2.51-0.148c0.975,0,1.944,0.076,2.913,0.152c1.243,0.098,2.794,0.361,3.966-0.178
	c0.748-0.345,1.266-0.951,1.266-2.008c0-0.751-0.207-1.318-0.728-1.752c-0.438-0.365-1.043-0.549-1.895-0.587
	c-0.56-0.025-0.99-0.134-1.244-0.34c-0.157-0.127-0.246-0.336-0.246-0.638c0-0.569,0.103-1.326,0.306-2.188
	c0.198-0.843,0.484-1.766,0.853-2.692l1.151-2.89c0.224-0.562,0.513-0.9,0.874-1.086c0.412-0.214,0.977-0.283,1.676-0.283h8.626
	c0.901,0,1.669,0.328,1.98,1.215c0.254,0.728,0.617,1.813,0.919,3.098c0.295,1.252,0.527,2.686,0.527,4.127
	c0,0.439-0.081,0.725-0.239,0.907c-0.186,0.213-0.523,0.375-0.992,0.523c-1.038,0.329-2.656,1.206-2.656,2.523
	c0,0.642,0.085,1.202,0.51,1.687c0.412,0.47,1.041,0.73,2.065,0.703c1.084-0.029,2.12-0.084,3.159-0.139
	c1.503-0.08,3.014-0.16,4.431-0.16c1.129,0.001,2.256,0.078,3.389,0.155c0.924,0.063,1.853,0.127,2.912,0.15
	c0.676,0.014,1.393-0.101,1.983-0.45c0.265-0.156,0.496-0.351,0.678-0.587c0.178,0.189,0.401,0.347,0.668,0.475
	c0.534,0.258,1.227,0.357,2.052,0.357h10.42c1.59,0,2.789-0.095,2.789-2.15c0-0.756-0.205-1.371-0.72-1.837
	c-0.466-0.422-1.125-0.644-2.052-0.644c-0.736,0-1.307-0.027-1.738-0.188c-0.389-0.146-0.742-0.437-1.128-0.983
	c-0.354-0.5-0.553-1.238-0.666-2.014c-0.123-0.846-0.141-1.751-0.141-2.486l-0.004-2.122c0.065-5.289,0.125-10.58,0.169-15.869
	l0.369,0.358l1.743,1.681l11.052,11.05l8.866,8.855c0.727,0.768,1.412,1.509,1.992,2.258c0.578,0.746,1.182,1.757,1.525,2.649
	c0.444,1.151,0.86,2.229,2.637,2.157c1.368-0.055,2.098-0.848,2.488-1.895c0.309-0.827,0.363-1.781,0.384-2.564
	c0.121-4.344,0.25-8.704,0.39-13.083c0.139-4.344,0.289-8.704,0.452-13.081c0.011-0.25,0.016-0.544,0.021-0.841
	c0.039-1.896,0.082-3.979,1.783-4.358c0.569-0.127,1.075-0.323,1.483-0.587l-0.596,3.624c-0.115,0.71-0.005,1.441,0.514,1.981
	c0.335,0.349,0.778,0.553,1.288,0.637c0.192,0.032,0.382,0.047,0.567,0.047c1.06,0,2.13-1.342,2.735-2.14
	c0.462-0.611,0.842-1.074,1.196-1.405c0.323-0.302,0.647-0.519,1.036-0.678c0.433-0.177,1.065-0.3,1.841-0.381
	c0.811-0.085,1.786-0.118,2.855-0.118c0.265,0,0.839-0.01,1.337-0.019c1.548-0.034,1.476,1.091,1.465,2.551l-0.171,21.946
	c-0.007,0.824-0.1,1.554-0.242,2.188c-0.172,0.765-0.501,2-1.223,2.479c-0.415,0.275-0.893,0.338-1.373,0.393
	c-1.372,0.157-2.43,0.279-2.385,2.202c0.015,0.609,0.058,1.107,0.306,1.548c0.33,0.587,0.854,0.907,1.753,0.907
	c1.473,0,3.164-0.036,4.865-0.072c1.125-0.024,2.254-0.048,3.377-0.061c1.086-0.012,2.186,0.013,3.286,0.038
	c0.122,0.003,1.621,0.032,1.621,0.033c0.993,0.056,1.988,0.147,2.982,0.14c1.513-0.013,2.236-0.186,2.236-2.414
	c0-1.26-0.945-1.988-2.065-2.305c-0.646-0.183-1.218-0.377-1.681-0.642c-2.033-1.157-1.826-4.309-1.803-6.304l0.21-20.229
	c0-1.685,0.357-2.421,1.628-2.321h6.162c0,0.004,1.127,0.079,1.264,0.109c0.329,0.073,0.599,0.218,0.72,0.564
	c0.05,0.143,0.06,0.368,0.06,0.694c0,1.561,0.739,2.343,2.219,2.343c0.366,0,0.688-0.05,0.973-0.15
	c-0.287,0.525-0.547,1.064-0.782,1.617c-1.083,2.55-1.625,5.386-1.625,8.509c0,3.214,0.566,6.247,1.69,8.983
	c1.107,2.695,2.757,5.094,4.94,7.09c2.207,2.017,4.737,3.419,7.599,4.312c2.828,0.884,5.973,1.272,9.44,1.272
	c3.446,0,6.579-0.493,9.397-1.479c2.837-0.993,5.343-2.481,7.515-4.464c2.18-1.991,3.818-4.282,4.914-6.871
	c1.092-2.581,1.638-5.441,1.638-8.578C399.165,193.31,398.61,190.429,397.501,187.846z M173.631,196.525h-6.114
	c-1.248,0-0.621-0.711-0.394-1.252l1.639-3.917c0.742-1.774,1.497-3.491,2.385-5.194c0.867-1.663,0.966-1.551,1.486,0.248
	l1.273,4.405l1.321,4.274C175.649,196.45,174.935,196.525,173.631,196.525z M216.264,189.989c-0.371,0.797-0.918,1.554-1.61,2.227
	c-0.592,0.576-1.449,1.025-2.37,1.348c-1.131,0.395-2.341,0.59-3.291,0.59c-0.502,0-0.902-0.038-1.103-0.178
	c-0.139-0.097-0.22-0.337-0.219-0.804l0.023-9.224c0.001-0.553,0.108-1.105,0.378-1.463c0.162-0.215,0.415-0.36,0.787-0.372
	c1.538-0.047,2.874,0.137,4.006,0.561c1.088,0.408,1.997,1.044,2.722,1.917c0.451,0.544,0.76,1.071,0.955,1.587
	c0.185,0.49,0.265,0.978,0.265,1.465C216.805,188.438,216.614,189.233,216.264,189.989z M252.252,196.525h-6.114
	c-1.249,0-0.62-0.711-0.394-1.252l1.639-3.917c0.742-1.774,1.495-3.492,2.385-5.195c0.883-1.689,0.948-1.612,1.486,0.249
	l1.273,4.405l1.322,4.275C254.27,196.45,253.556,196.525,252.252,196.525z M387.073,202.933c-0.546,1.848-1.384,3.51-2.561,4.977
	c-1.152,1.434-2.555,2.535-4.1,3.281c-1.578,0.761-3.313,1.153-5.094,1.153c-1.852,0-3.458-0.384-4.882-1.121
	c-1.44-0.745-2.719-1.858-3.895-3.306c-1.178-1.451-2.065-3.117-2.658-4.999c-0.599-1.898-0.899-4.019-0.899-6.361
	c0-2.283,0.221-4.323,0.741-6.144c0.511-1.788,1.311-3.371,2.477-4.772c1.173-1.41,2.532-2.49,4.041-3.213
	c1.491-0.715,3.142-1.084,4.914-1.084c1.793,0,3.47,0.364,4.99,1.092c1.502,0.72,2.872,1.806,4.069,3.256
	c1.221,1.478,2.136,3.129,2.745,4.952c0.611,1.835,0.918,3.86,0.918,6.076C387.88,198.985,387.627,201.061,387.073,202.933z"/>
<path style="fill:#113C64;" d="M433.647,189.939c0,1.619,1.051,2.038,2.451,2.038h5.168c1.447,0,2.429-0.159,2.945-0.487
	c0.54-0.815,0.9-1.516,1.189-2.467c0.207-0.681,0.413-1.141,0.62-1.397c0.206-0.248,0.499-0.372,0.879-0.372
	c0.861,0,1.304,0.566,1.291,1.698c-0.022,2.016-0.128,4.032-0.104,6.049c0.018,1.432,0.033,2.712,0.053,4.298
	c0.015,1.273-0.448,1.91-1.353,1.91c-0.767,0-1.249-0.601-1.456-1.804c-0.104-1.167-0.464-2.061-1.068-2.679
	c-0.61-0.619-1.781-0.929-3.513-0.929h-3.695c-1.847,0-3.269,0.216-3.269,2.311l-0.015,10.131c-0.001,2.087,0.407,3.424,0.803,3.955
	c0.397,0.531,1.439,0.796,3.126,0.796h1.189c0.586,0.106,0.879,0.53,0.879,1.273c0,0.92-0.517,1.38-1.551,1.38h-11.472
	c-1.156,0-2.268,0.159-3.41,0.159c-1.033,0-1.55-0.433-1.55-1.3c0-0.521,0.293-0.994,0.947-1.256
	c1.577-0.631,2.566-1.252,2.566-3.13v-2.494v-23.012v-1.707c0-0.92-0.112-1.557-0.345-1.91c-0.224-0.354-0.654-0.584-1.283-0.69
	l-0.835-0.106c-0.207,0-0.491-0.106-0.836-0.309c-0.353-0.204-0.525-0.54-0.525-1.018c0-0.884,0.69-1.326,2.067-1.326h6.821h13.125
	c1.241,0,2.48-0.106,3.721-0.16c0.765,0,1.959-0.162,2.636,0.186c0.24,0.124,0.465,0.451,0.672,0.981l1.231,5.028
	c0.275,1.118,0.296,1.914-0.587,2.172c-1.347,0.393-1.705-0.279-2.195-0.833l-2.38-2.69c-0.35-0.397-1.313-0.772-2.621-0.966
	c-1.309-0.194-3.374-0.291-5.613-0.291c-1.827,0-3.462,0.354-4.047,0.866c-0.586,0.513-0.657,1.123-0.657,2.856V189.939
	L433.647,189.939z M444.451,210.33c-0.362,0.405-0.691,0.858-0.983,1.358c-0.294,0.5-0.441,0.871-0.441,1.114
	c0,0.324,0.051,0.812,0.279,1.085c0.658,0.785,1.74,2.117,2.863,2.117c0.559,0,1.342-0.446,2.348-1.337
	c0.719-0.729,1.13-1.049,1.13-2.148c0-0.594-0.286-1.236-0.858-1.925c-0.572-0.689-0.971-1.102-1.193-1.236
	c-0.225-0.216-0.517-0.324-0.881-0.324C446.044,209.033,445.29,209.466,444.451,210.33L444.451,210.33z M490.382,183.805
	l0.051,0.849c0.075,1.235-0.48,1.635-1.441,1.635c-1.153,0-1.387-1.453-1.819-2.33c-0.515-1.043-1.718-1.94-3.692-2.965
	c-1.975-1.025-4.68-1.636-6.982-1.636c-3.674,0-6.706,1.645-9.041,4.545c-2.335,2.901-3.891,7.062-3.891,11.873
	c0,4.988,1.786,9.016,4.859,11.917c3.073,2.9,7.834,4.422,13.148,4.128l2.885-0.159c0.273,0,0.617-0.026,1.029-0.08
	c0.412-0.053,0.893-0.15,1.442-0.292l2.473-0.637l1.647-0.372c0.728-0.163,1.289,0.46,1.289,1.38s-1.529,2.043-4.585,3.37
	c-3.056,1.327-6.662,1.99-10.817,1.99c-4.636,0-8.541-0.849-11.718-2.547c-3.177-1.698-5.674-4.121-7.494-7.27
	c-1.821-3.148-2.73-6.633-2.73-10.453c0-6.049,2.018-11.046,6.053-14.99c4.034-3.944,9.16-5.917,15.375-5.917
	c2.197,0,4.24,0.195,6.13,0.584l2.73,0.424c0.79,0,1.425-0.212,1.906-0.636l0.927-0.85c0.172-0.106,0.361-0.159,0.566-0.159
	c1.099,0,1.675,0.637,1.648,1.91c-0.024,1.168-0.08,2.271-0.071,3.44C490.267,181.622,490.313,182.744,490.382,183.805
	L490.382,183.805z M497.476,210.386c0.838-0.864,1.592-1.297,2.263-1.297c0.364,0,0.657,0.108,0.88,0.324
	c0.224,0.135,0.622,0.547,1.195,1.236c0.571,0.689,0.858,1.331,0.858,1.925c0,1.099-0.412,1.419-1.131,2.148
	c-1.007,0.891-1.789,1.337-2.348,1.337c-1.123,0-2.16-1.512-2.849-2.27c-0.196-0.297-0.293-0.608-0.293-0.932
	c0-0.243,0.146-0.615,0.439-1.115C496.785,211.243,497.112,210.791,497.476,210.386z"/>
<path style="fill:#E31F26;" d="M391.827,181.762c-4.214-3.732-9.709-5.598-16.486-5.598c-6.64,0-12.015,1.849-16.125,5.545
	c-4.111,3.697-6.168,8.534-6.168,14.512c0,6.12,2.119,11.506,6.298,15.326c4.18,3.821,9.614,5.315,16.355,5.315
	c6.674,0,12.084-1.893,16.229-5.678c4.146-3.785,6.218-8.684,6.218-14.698C398.148,190.402,396.042,185.494,391.827,181.762z
	 M385.302,208.544c-2.525,3.145-6.167,4.815-9.983,4.815c-4.034,0-7.036-1.693-9.562-4.803c-2.525-3.109-3.788-7.108-3.788-11.998
	c0-4.745,0.93-8.525,3.456-11.564c2.525-3.038,5.881-4.667,9.732-4.667c3.853,0,7.243,1.572,9.842,4.717
	c2.598,3.146,3.897,7.037,3.897,11.675C388.896,201.43,387.827,205.399,385.302,208.544z"/>
<path style="fill:#E31F26;" d="M192.67,213.36c-0.256-0.151-0.762-0.313-1.537-0.531c-0.866-0.243-1.466-0.817-1.807-1.242
	c-0.768-0.954-1.108-2.131-1.429-3.327l-6.601-24.669c-0.175-0.652-0.356-1.334-0.384-2.009c-0.04-0.989,0.965-1.493,2.537-1.493
	c1.126,0,1.579-0.44,1.579-1.307c0-0.866-0.585-1.485-1.425-1.453c-0.976,0.038-1.946,0.167-2.92,0.213
	c-2.788,0.131-5.433,0.083-8.045,0.083c-2.623-0.001-4.408-0.187-6.76-0.198c-0.725-0.004-1.696,0.449-1.696,1.405
	c0,1.302,0.474,1.174,1.873,1.355c0.956,0.123,1.726,0.585,1.657,1.575c-0.075,1.062-0.245,1.483-1.031,2.973
	c-0.717,1.344-2.128,3.927-3.424,7.093c-1.299,3.174-2.581,6.624-4.197,10.662l-2.979,7.446c-0.532,1.044-0.964,1.906-1.871,2.49
	c-0.55,0.354-1.187,0.522-1.802,0.721c-0.58,0.212-0.871,0.619-0.871,1.221c0,0.955,0.496,1.458,1.485,1.432
	c1.708-0.044,3.109-0.309,4.818-0.309c1.691,0,3.353,0.223,5.044,0.294c0.98,0,2.085-0.158,2.085-1.311
	c0-0.885-0.407-1.271-1.65-1.327c-1.501-0.067-2.461-0.682-2.461-1.991c0-1.239,0.421-3.213,1.233-5.254l1.15-2.89
	c0.646-1.623,1.793-2.013,3.491-2.013h8.627c1.058,0,2.407,0.387,2.936,1.898c0.528,1.512,1.506,4.505,1.506,7.559
	c0,1.405-0.658,1.993-1.942,2.4c-0.867,0.274-1.946,0.777-1.946,1.554c0,0.846,0.17,1.415,1.535,1.378
	c2.496-0.066,5.117-0.3,7.613-0.298c2.187,0.001,4.135,0.257,6.321,0.306c0.981,0.022,2.082-0.32,2.06-1.401
	C193.429,213.83,192.895,213.494,192.67,213.36z M173.631,197.541h-6.114c-0.432,0-1.87-0.081-1.895-0.884
	c-0.014-0.443,0.229-0.975,0.565-1.777l1.639-3.913c0.538-1.285,1.03-2.606,1.69-3.873l1.383-2.653
	c1.259-2.416,1.895-1.119,2.29,0.248l1.689,5.844l1.562,5.046C176.678,197.135,175.442,197.541,173.631,197.541z"/>
<path style="fill:#E31F26;" d="M147.759,213.017c-1.428-0.405-2.568-0.883-3.267-2.032c-1.045-1.718-0.971-4.294-0.952-6.123
	l0.208-20.004c0.019-1.794,0.187-2.779,0.448-2.955c0.582-0.394,1.486-0.37,2.191-0.37l6.162,0.001c1.36,0,2.058,0.238,2.354,0.521
	c0.621,0.593,0.706,1.001,0.706,1.857c0,0.884,0.402,1.327,1.204,1.327c1.186,0,1.589-0.79,1.779-2.335l0.583-4.743
	c0.117-0.949,0.466-1.936-0.862-1.977c-0.703-0.022-1.784,0.429-2.705,0.724c-3.608,1.157-8.901,0.542-12.611,0.531l-10.487-0.035
	c-2.407-0.007-6.272-0.829-8.679-0.829c-0.937,0-1.351,0.385-1.509,1.473l-1.094,6.66c-0.177,1.076,0.454,1.485,1.37,1.485
	c0.917,0,1.437-1.09,1.925-1.735c0.976-1.29,1.647-1.994,2.657-2.409c1.057-0.434,2.909-0.579,5.081-0.579
	c1.674,0,2.782-0.087,3.025,0.072c0.663,0.433,0.803,1.567,0.789,3.481l-0.171,21.95c-0.016,2.016-0.503,3.511-1.008,4.483
	c-0.505,0.972-1.39,1.391-2.292,1.521c-1.053,0.152-1.949,0.064-1.921,1.225c0.022,0.919,0.105,1.463,1.046,1.463
	c2.79,0,5.443-0.099,8.234-0.129c1.657-0.019,3.314,0.047,4.972,0.071l2.459,0.141c1.143,0,1.688,0.029,1.688-1.403
	C149.081,213.709,148.686,213.28,147.759,213.017z"/>
<path style="fill:#E31F26;" d="M355.247,182.894l0.583-4.743c0.116-0.949,0.467-1.936-0.862-1.977
	c-0.703-0.022-1.783,0.429-2.704,0.724c-3.608,1.157-8.901,0.543-12.61,0.531l-10.488-0.035c-2.405-0.008-6.272-0.829-8.679-0.829
	c-0.938,0-1.351,0.385-1.509,1.473l-1.094,6.66c-0.177,1.076,0.453,1.485,1.369,1.485c0.918,0,1.438-1.09,1.926-1.735
	c0.976-1.289,1.647-1.994,2.657-2.408c1.057-0.434,2.909-0.579,5.081-0.579c1.674,0,2.781-0.086,3.025,0.072
	c0.662,0.433,0.804,1.567,0.788,3.48l-0.171,21.95c-0.017,2.016-0.503,3.511-1.009,4.483c-0.505,0.973-1.389,1.391-2.292,1.522
	c-1.053,0.152-1.949,0.064-1.921,1.225c0.022,0.919,0.104,1.462,1.046,1.462c2.789,0,5.443-0.098,8.234-0.129
	c1.657-0.019,3.313,0.047,4.972,0.071l2.458,0.141c1.144,0,1.688,0.029,1.688-1.402c0-0.637-0.396-1.065-1.323-1.329
	c-1.427-0.405-2.568-0.882-3.267-2.032c-1.045-1.718-0.972-4.294-0.952-6.123l0.208-20.004c0.019-1.794,0.188-2.779,0.447-2.956
	c0.582-0.393,1.486-0.369,2.192-0.369h6.162c1.358,0,2.057,0.238,2.353,0.521c0.622,0.593,0.706,1,0.706,1.857
	c0,0.884,0.401,1.327,1.203,1.327C354.653,185.229,355.057,184.439,355.247,182.894z"/>
<path style="fill:#E31F26;" d="M271.292,213.36c-0.256-0.151-0.762-0.313-1.537-0.531c-0.866-0.243-1.466-0.817-1.807-1.241
	c-0.767-0.954-1.109-2.131-1.429-3.328l-6.602-24.669c-0.175-0.652-0.357-1.335-0.383-2.009c-0.04-0.989,0.965-1.493,2.536-1.493
	c1.127,0,1.58-0.439,1.58-1.306c0-0.866-0.586-1.485-1.426-1.453c-0.975,0.038-1.946,0.167-2.92,0.212
	c-2.788,0.131-5.433,0.084-8.045,0.083c-2.623,0-4.408-0.186-6.76-0.198c-0.725-0.003-1.695,0.45-1.695,1.405
	c0,1.302,0.473,1.174,1.872,1.356c0.956,0.123,1.726,0.585,1.657,1.574c-0.074,1.062-0.245,1.483-1.032,2.973
	c-0.717,1.344-2.128,3.927-3.423,7.093c-1.299,3.174-2.581,6.624-4.197,10.662l-2.979,7.446c-0.532,1.043-0.964,1.906-1.871,2.49
	c-0.549,0.354-1.187,0.522-1.802,0.721c-0.455,0.167-0.726,0.457-0.824,0.862c-0.213-0.29-0.508-0.555-0.837-0.727
	c-2.842-1.488-3.759-2.561-5.727-5.234c-2.225-3.022-3.819-5.624-5.085-8.663c-0.501-1.202-0.517-1.482-0.517-1.659
	c0-0.354,0.418-0.686,1.371-1.243c0.985-0.575,2.365-1.573,3.385-2.581c1.922-1.901,3.16-4.242,3.16-6.915
	c0-3.069-1.193-5.617-3.213-7.273c-2.023-1.66-4.945-2.708-8.689-2.702c-2.181,0.004-3.476,0.23-5.214,0.345
	c-2.54,0.168-4.604,0.457-7.619,0.504c-1.506,0.023-3.007-0.174-4.512-0.212c-1.303-0.033-2.412,0.46-2.412,1.38
	c0,0.858,0.693,1.445,1.846,1.627c1.366,0.215,2.127,0.621,2.362,1.141c0.249,0.552,0.409,1.742,0.409,3.626v21.711
	c0,1.415-0.119,2.533-0.15,3.352c-0.069,1.814-0.884,2.23-2.607,2.662c-0.68,0.171-1.003,0.646-1.003,1.3
	c0,0.973,0.586,1.507,1.754,1.459c2.33-0.095,4.658-0.258,6.988-0.284c2.366-0.026,4.415,0.078,6.781,0.119
	c1.107,0.019,2.068,0.052,2.068-1.347c0-0.831-0.389-1.247-1.768-1.247c-0.974,0-2.922-0.328-3.483-1.237
	c-0.52-0.841-0.791-2.001-0.802-3.981l-0.042-7.548c0-1.313,0.151-1.842,2.119-1.842h1.056c2.091,0,2.11,1.239,2.749,2.972
	c1.579,4.275,1.781,6.227,4.732,9.851c2.883,3.54,4.627,5.2,9.499,5.2c1.136,0,2.55,0.028,3.303-0.331
	c0.441-0.21,0.511-0.457,0.496-0.733c0.246,0.203,0.583,0.315,1.037,0.304c1.708-0.044,3.109-0.309,4.818-0.309
	c1.691,0,3.353,0.223,5.043,0.294c0.98,0,2.086-0.158,2.086-1.311c0-0.885-0.406-1.271-1.65-1.327
	c-1.501-0.067-2.462-0.683-2.462-1.991c0-1.239,0.421-3.213,1.233-5.254l1.15-2.89c0.646-1.623,1.791-2.012,3.49-2.012h8.626
	c1.059,0,2.408,0.387,2.937,1.898c0.529,1.512,1.505,4.505,1.505,7.559c0,1.405-0.658,1.992-1.942,2.399
	c-0.866,0.274-1.946,0.777-1.946,1.555c0,0.846,0.171,1.415,1.535,1.378c2.496-0.066,5.117-0.3,7.613-0.299
	c2.187,0.002,4.135,0.257,6.321,0.306c0.981,0.022,2.081-0.32,2.06-1.402C272.05,213.829,271.517,213.494,271.292,213.36z
	 M215.36,192.942c-1.545,1.503-4.438,2.228-6.368,2.228c-1.372,0-2.338-0.307-2.334-1.999l0.023-9.224
	c0.003-1.364,0.538-2.797,2.149-2.847c3.335-0.104,5.853,0.819,7.533,2.843c1.058,1.274,1.458,2.495,1.458,3.698
	C217.821,189.552,216.905,191.439,215.36,192.942z M252.252,197.541h-6.114c-0.431,0-1.87-0.082-1.895-0.884
	c-0.014-0.443,0.229-0.975,0.565-1.777l1.639-3.912c0.538-1.285,1.03-2.607,1.69-3.873l1.383-2.653
	c1.259-2.416,1.896-1.119,2.291,0.248l1.688,5.845l1.563,5.046C255.299,197.135,254.063,197.541,252.252,197.541z"/>
<path style="fill:#E31F26;" d="M315.227,177.49c-1.451,0.1-1.942,0.289-4.354,0.298c-3.902,0.014-3.922-0.102-5.953-0.201
	c-1.061,0-2.309,0.056-2.309,1.479c0,0.84,0.526,1.131,1.856,1.131c1.503,0,2.78,0.288,3.319,0.733
	c1.192,0.985,1.09,4.047,1.09,5.511v3.785v8.959c0,1.383,0.427,4.167-1.345,2.494c-5.959-5.628-12.217-12.844-17.845-18.805
	c-0.874-0.925-0.781-0.844-0.781-1.374c0-0.637,0.589-1.183,1.271-1.369c0.9-0.246,1.269-0.464,1.266-1.252
	c-0.004-1.23-0.293-1.388-1.566-1.388c-2.422,0.037-4.844,0.104-7.267,0.111c-4.825,0.015-5.368-0.293-7.643-0.27
	c-1.103,0.011-2.003-0.027-2.003,1.478c0,1.238,0.793,1.159,1.768,1.296c0.657,0.093,1.354,0.294,1.841,0.827
	c0.987,1.077,1.147,3.023,1.165,4.145c0.044,2.561-0.078,4.748-0.201,7.253l-0.152,4.216l-0.053,8.994
	c-0.253,2.442,0.56,5.41-2.506,7.179c-0.873,0.503-1.665,0.457-1.665,1.677c0,0.911,0.835,1.19,2.2,1.19h10.42
	c0.866,0,1.773,0.043,1.773-1.135c0-0.946-0.435-1.465-1.755-1.465c-1.679,0-2.665-0.146-3.695-1.603
	c-0.917-1.299-0.994-3.553-0.994-5.083v-2.122l0.188-15.009c0-0.521-0.189-2.392,0.591-2.324c0.424,0.037,0.975,0.61,1.478,1.096
	l1.739,1.677l11.065,11.061l8.89,8.879c1.483,1.568,2.808,3.036,3.572,4.856c0.389,0.926,0.584,1.941,1.805,1.892
	c1.716-0.069,1.86-2.066,1.899-3.475c0.241-8.725,0.516-17.45,0.843-26.172c0.091-2.457-0.186-5.529,2.597-6.151
	c1.078-0.241,1.811-0.756,1.811-1.534C317.588,177.488,316.328,177.49,315.227,177.49z"/>
<path style="fill:#113C64;" d="M473.266,421.673c-0.179-0.14-0.655-0.215-1.43-0.218c-0.839-0.003-1.674,0.148-2.514,0.148
	c-1.575,0.001-3.129-0.012-4.691-0.018c-1.503-0.005-3.006-0.012-4.507-0.017c-1.165-0.004-2.327-0.008-3.491-0.013
	c-0.622-0.002-1.244-0.005-1.862-0.007c-0.592-0.003-0.998,0.291-1.168,0.882c-0.241,0.84-0.562,1.68-0.783,2.515
	c-0.339,1.005-0.611,1.521-0.965,2.508c-0.26,0.727-0.255,2.026,0.925,2.029c0.844,0.002,0.971-1.66,1.779-2.186
	c0.798-0.52,1.991-0.623,2.909-0.62c2.553,0.008,6.754-0.025,9.32-0.017c0.515,0.002,2.718,0,2.69,0.731
	c-0.031,0.791-0.567,2.284-1.513,4.15c-1.105,2.183-2.581,4.476-4.027,6.461c-1.051,1.422-2.042,2.833-3.078,4.237
	c-0.972,1.38-1.923,2.744-2.855,4.121c-1.188,1.755-2.215,3.514-3.213,5.437c-0.99,1.906-1.788,3.324-1.789,4.068
	c-0.003,1.136,0.442,1.969,1.725,1.929c0.907-0.027,2.231-0.19,3.105-0.429c0.727-0.197,1.442-1.133,1.575-1.846
	c0.078-0.419,0.153-0.835,0.237-1.254c0.346-1.714,1.269-4.196,2.903-7.407c1.488-2.925,3.317-5.891,4.89-8.876
	c0.977-1.785,2.086-3.678,3.054-5.507c0.522-0.984,1.095-2.432,1.747-4.111c0.658-1.691,1.011-3.044,1.276-4.418
	c0.083-0.43,0.147-0.767,0.189-1.198C473.757,422.191,473.445,421.813,473.266,421.673z"/>
<path style="fill:#113C64;" d="M471.778,390.174l-0.627,0.631c-1.937,1.95-6.655,1.74-9.247,1.74l-2.763,0.001
	c-1.015,0-0.975-0.472,1.055-2.944l1.619-1.974l1.111-1.3l3.934-4.573l1.99-2.262c1.266-1.508,2.206-2.712,2.823-3.61
	c0.618-0.899,1.143-1.773,1.574-2.624c0.432-0.851,0.701-1.565,0.81-2.143s0.162-1.219,0.162-1.925c0-2.407-0.879-4.364-2.638-5.874
	c-1.76-1.508-4.059-2.263-6.897-2.263c-2.191,0-4.312,0.482-6.363,1.445c-2.052,0.963-3.587,2.022-4.607,3.177
	c-1.017,1.155-1.525,1.974-1.525,2.455c0,0.642,0.308,0.963,0.925,0.963c0.309-0.032,1.011-0.41,2.105-1.131
	c1.926-1.269,4.056-2.557,6.406-2.557c1.513,0,3.141,0.545,4.081,1.524c0.94,0.978,1.551,2.457,1.551,3.932
	c0,1.007-0.603,2.967-0.981,3.965c-0.671,1.768-1.734,3.517-2.425,4.569l-1.989,3.032l-2.962,4.189
	c-2.025,2.808-4.441,5.434-6.561,8.17c-0.643,0.83-1.398,1.89-1.398,2.661c0,0.514,0.368,0.77,0.923,0.77h0.463l0.926-0.649
	c0.713-0.434,1.54-0.555,2.36-0.555c3.093-0.209,6.203-0.24,9.303-0.24h3.935c0.522,0,0.986,0.096,1.482,0.097
	c0.608,0,0.782-0.079,1.155-0.192c0.268-0.081,0.417-0.386,0.51-0.771l0.232-0.866l0.787-1.878l0.972-1.926
	C474.892,389.451,473.941,387.997,471.778,390.174z"/>
<path style="fill:#113C64;" d="M459.443,323.478c1.928,0,3.415-0.32,4.448-0.962l1.782-1.108c0.56-0.348,0.818-0.497,1.019-0.401
	c0.672,0.366,0.011,2.17-0.246,2.906c-0.576,1.652-2.069,4.49-3.66,6.523c-1.634,2.086-4.379,3.657-7.29,4.378
	c-2.912,0.722-4.369,1.405-4.369,2.046c0,0.706,0.961,1.059,2.883,1.059c5.618,0,10.362-2.118,14.236-6.354
	c3.872-4.236,5.989-9.479,5.989-15.673c0-4.429-1.207-8.066-3.454-10.746c-2.246-2.679-5.329-3.908-9.055-3.908
	c-3.281,0-6.253,1.051-8.471,3.266c-2.217,2.214-3.518,5.262-3.353,8.66c0.14,2.902,1.083,5.583,3.161,7.701
	C454.771,322.598,457.048,323.478,459.443,323.478z M455.272,309.9c0-1.634,0.451-2.998,1.356-4.092
	c0.903-1.095,2.038-1.642,3.403-1.642c0.955,0,1.834,0.286,2.635,0.858c0.803,0.571,1.527,1.379,2.176,2.425
	c0.375,0.555,0.717,1.135,1.023,1.739c0.308,0.604,0.564,1.217,0.768,1.838c0.478,1.176,0.717,2.205,0.717,3.087
	c0,1.404-0.538,2.655-1.613,3.749c-1.074,1.094-2.26,1.642-3.557,1.642c-1.842,0-3.454-0.923-4.836-2.769
	c-1.382-1.845-2.072-4.059-2.072-6.641V309.9z"/>
<path style="fill:#113C64;" d="M455.488,246.105l1.282-0.048c1.34,0,1.959,0.445,2.106,1.635c0.151,1.226,0.202,2.328,0.202,3.034
	c0,0.096,0,0.289,0,0.578c0,0.353,0,0.69,0,1.01v1.108v4.717l0.086,9.484v0.481l-0.086,3.899c-0.086,0.77-0.242,1.428-0.47,1.973
	c-0.228,0.545-0.557,0.907-0.983,1.083c-0.427,0.176-0.926,0.264-1.494,0.264c-0.771,0-1.154,0.337-1.154,1.011
	c0,0.642,0.413,0.972,1.239,0.963c3.461-0.039,5.951-0.155,10.383-0.145c1.084,0.003,1.965,0.119,2.947,0.145
	c0.826,0.022,1.239-0.361,1.239-1.083c0-0.971-0.77-0.892-1.48-0.987c-2.006-0.333-3.396-2.13-3.51-4.146
	c-0.15-2.623-0.205-5.42-0.222-8.049c-0.029-4.613,0.016-9.227,0.171-13.84c0-2.292,0.247-4.612,0.47-6.893
	c0.064-0.67-0.335-1.018-0.954-1.011c-0.423,0.005-0.696,0.124-0.921,0.248c-1.364,0.753-2.618,1.141-4.144,1.484
	c-1.396,0.315-2.917,0.39-4.335,0.598c-1.246,0.225-2.025,0.815-2.025,1.521C453.836,245.784,454.692,246.105,455.488,246.105z"/>
<path style="fill:#FFFFFF;" d="M400.959,359.273c0.125-4.383-0.503-6.158-2.075-13.471c-1.2-5.586-3.082-10.965-4.776-13.92
	c-0.173,1.3-0.341,3.097,0.319,4.434c0.36,0.732,0.807,1.16,0.778,2.234c-0.098,3.77-0.17,8.132-0.172,11.277
	c-0.012,10.643,0.646,14.815-8.945,29.864c-5.768,9.05-2.689,21.86-2.711,32.318c-0.023,9.954-2.229,10.946-5.426,8.691
	c-8.109-5.719-10.784-11.426-14.73-16.558c-10.98-14.275-23.378-28.433-40.78-37.814c-9.933-5.354-21.077-7.977-34.561-7.994
	c-9.006-0.011-19.279,1.773-30.438,4.844c34.917-1.22,45.184,2.057,61.994,10.199c14.441,6.995,23.929,18.886,36.837,34.141
	c4.525,5.35,16.867,24.032,25.947,24.066c4.341,0.017,7.471-7.052,7.471-18.538c0-7.902-0.794-14.528-0.867-20.074
	c-0.089-6.803,0.116-8.922,6.957-17.71C400.4,369.331,400.866,362.576,400.959,359.273z"/>
<path style="fill:#FFFFFF;" d="M424.859,388.51c-11.269-0.479-13.785-4.818-23.386-12.84c2.949,6.128,10.088,12.095,20.721,17.335
	c-5.235,1.787-15.005-1.158-24.987-4.825c5.263,6.303,14.07,9.378,20.943,9.333c7.317-0.048,15.79-2.734,21.608-10.221
	C434.105,388.3,429.176,388.693,424.859,388.51z"/>
<path style="fill:#FFFFFF;" d="M318.064,511.537c-3.923-4.043-8.702-8.43-22.872-14.393c-14.518-6.109-26.867-9.446-40.011-23.184
	c-8.575-8.962-12.463-20.855-14.398-31.446c-1.475-8.074-1.919-15.229-1.822-20.708c0.224-12.666,2.392-25.663,8.621-32.646
	c8.117-9.103,24.471-9.335,40.055-9.441c2.867-0.019,17.812,0.438,19.933-1.162c-6.189-0.334-13.409-1.211-18.958-2.252
	c-9.645-1.81-18.075-3.865-27.985-3.979c-7.089-0.081-13.241,1.037-18.076,4.616c-4.374,3.237-7.681,8.604-9.45,14.814
	c-3.916,13.746-3.304,34.46-3.304,46.482c-7.687-12.138-12.796-27.938-16.075-44.028c-2.717-13.331-4.14-27.577-4.663-42.456
	c-3.295,6.957-4.397,20.216-4.445,27.657c-0.192,30.143,8.465,53.429,23.768,74.004c3.716,4.998,8.136,10.605,11.673,16.291
	c4.648,7.47,5.978,12.244,1.453,16.871c-7.458,7.625-15.144,9.924-24.259,16.095c-22.846,15.466-24.857,30.51-23.693,50.093
	c4.036-7.233,8.753-14.711,14.546-17.922c10.716-5.941,23.358-2.903,35.122-10.596c3.509-2.294,11.705-11,14.622-16.281
	c16.735,6.885,23.683,8.418,30.13,8.539c4.787,0.089,11.736-1.56,18.712-1.396c2.311,0.054,6.284,0.452,11.308,1.328
	c2.68,0.468,4.091,0.536,5.212,0.797C321.814,514.973,319.49,513.008,318.064,511.537z"/>
<path style="fill:#FFFFFF;" d="M306.507,271.142c11.999-0.095,28.582,3.207,40.873,9.3c14.412,7.144,24.823,17.106,32.429,27.691
	c4.483,6.238,6.589,8.889,9.843,12.317c-1.73-12.671-10.926-27.401-24.362-38.494c-8.469-6.99-21.776-12.548-32.187-16.314
	c-11.409-4.128-21.304-5.437-19.67-23.714c-3.368,2.163-4.271,4.995-6.226,7.568c-2.434,3.205-5.532,6.708-8.792,9.32
	c-3.588,2.874-9.532,5.997-14.514,8.047c-7.97,3.278-13.908,4.961-21.467,8.881c-11.976,6.211-20.138,12.504-32.582,27.979
	c-0.834,1.038-5.18,7.044-6.815,11.066c8.784-8.026,17.375-16.846,26.341-23.525C265.102,279.55,282.862,271.331,306.507,271.142z"
	/>
<path style="fill:#FFFFFF;" d="M349.528,318.314c4.505-0.019,9.065,1.867,13.604,4.63c-3.716-8.761-11.518-17.192-18.871-22.187
	c-9.296-6.313-20.153-9.174-33.926-9.365c-16.264-0.226-37.741,4.643-46.989,14.829c15.476-4.551,29.331-6.904,41.44-6.89
	c14.614,0.017,26.684,3.481,35.991,10.69c-8.289,5.094-15.671,8.519-15.652,20.247c0.009,5.56,1.458,10.83,4.042,15.88
	c2.719,5.312,5.505,10.124,7.983,13.204c2.142,2.662,2.897,1.685,3.894-1.083c1.806-5.013,1.62-6.67,0.842-7.893
	c-5.228-8.204-7.072-13.484-6.933-20.047C335.108,322.924,342.656,318.341,349.528,318.314z"/>
<path style="fill:#FFFFFF;" d="M358.332,377.12c4.781,3.435,10.369,7.6,15.285,10.407c-0.102-2.363-3.539-4.751-7.507-8.251
	c-3.56-3.14-7.559-8.011-11.386-12c-3.298-3.437-5.805-6.705-7.868-10.064c-1.051-1.712-1.775-1.648-2.85,3.506
	c-0.741,3.553-0.565,4.148,0.897,5.66C348.475,370.068,353.435,373.602,358.332,377.12z"/>
<path style="fill:#FFFFFF;" d="M225.115,343.579c13.397,4.091,26.437,9.387,39.56,9.377c12.114-0.009,22.227-3.915,29.975-16.643
	c-8.611,6.066-19.177,9.268-34.904,9.234c-10.88-0.023-21.36-2.714-25.433-6.295c19.306-1.22,28.122-8.75,35.071-18.389
	c3.51-4.867,5.114-7.614,7.287-11.676c-4.798,3.746-12.456,10.472-15.293,12.286c-11.978,7.661-16.593,10.446-29.708,10.458
	c-1.518,0.002-15.561-1.128-17.081-1.13c-10.378-0.013-10.955,0.468-29.081,8.426c-4.059,1.782,0.394,2.656,2.195,1.799
	c2.523-1.2,3.198-1.095,6.273-1.098C211.952,339.915,219.827,341.964,225.115,343.579z"/>
</svg>
