<svg enable-background="new 0 0 612 792" viewBox="0 0 612 792" xmlns="http://www.w3.org/2000/svg"><path d="M 304.805 294.195 c -19.353 19.353 -44.281 30.452 -68.395 30.452 h -2.624 l -.436 2.588 c -.182 1.073 -4.443 26.415 -4.443 37.442 c 0 50.863 20.809 85.28 38.265 105.197 c 18.934 21.603 37.659 31.048 38.446 31.439 L 307 502 l 1.381 -.686 c .789 -.391 19.514 -9.836 38.447 -31.439 c 17.457 -19.917 38.266 -54.334 38.266 -105.197 c 0 -11.027 -4.262 -36.369 -4.443 -37.442 l -.438 -2.588 h -2.625 c -24.111 0 -49.039 -11.099 -68.393 -30.452 L 307 292 L 304.805 294.195 z" fill="#fff"/><path d="M 307 498.533 c 0 0 74.988 -37.262 74.988 -133.855 c 0 -10.892 -4.4 -36.925 -4.4 -36.925 c -28.049 0 -53.563 -14.336 -70.588 -31.362 c -17.026 17.026 -42.54 31.362 -70.59 31.362 c 0 0 -4.398 26.032 -4.398 36.925 C 232.012 461.272 307 498.533 307 498.533" fill="#ea2d2e"/><path d="M 307 312.479 L 310.902 324.556 L 323.594 324.534 L 313.314 331.978 L 317.256 344.042 L 307 336.565 L 296.744 344.042 L 300.685 331.978 L 290.406 324.534 L 303.098 324.556 Z" fill="#fff"/><path d="M 268.416 342.418 l 27.217 -8.096 c 0 0 2.121 -.727 1.789 -1.824 c -.41 -1.07 -2.531 -.347 -2.531 -.347 L 268.416 342.418 z" fill="#fff"/><path d="M 292.289 356.29 l 6.649 -9.642 c 0 0 .134 -.553 -.519 -.909 c -.631 -.391 -1.047 0 -1.047 0 L 292.289 356.29 z" fill="#fff"/><path d="M 281.572 349.683 l 14.933 -11.963 c 0 0 .608 -.679 .167 -1.254 c -.512 -.513 -1.264 0 -1.264 0 L 281.572 349.683 z" fill="#fff"/><path d="M 345.582 342.418 l -27.217 -8.096 c 0 0 -2.119 -.727 -1.789 -1.824 c .41 -1.07 2.533 -.347 2.533 -.347 L 345.582 342.418 z" fill="#fff"/><path d="M 321.711 356.29 l -6.65 -9.642 c 0 0 -.133 -.553 .518 -.909 c .633 -.391 1.047 0 1.047 0 L 321.711 356.29 z" fill="#fff"/><path d="M 332.428 349.683 l -14.934 -11.963 c 0 0 -.607 -.679 -.168 -1.254 c .514 -.513 1.266 0 1.266 0 L 332.428 349.683 z" fill="#fff"/><path d="M 309.068 406.312 c 3.313 0 2.279 -16.147 16.768 -16.147 c 5.693 0 11.076 6.003 11.076 12.939 c 0 2.381 -.31 4.036 -.31 4.036 s 4.139 -3.623 4.139 -11.696 c 0 -3.519 -3 -13.662 -13.557 -13.662 c -10.559 0 -17.285 12.214 -17.285 12.214 s -.725 -.621 -.725 -1.967 c 0 -5.382 3.727 -15.629 3.727 -16.975 s -5.176 -36.122 -5.9 -36.122 c -.725 0 -5.9 34.829 -5.9 36.122 c 0 1.294 3.727 11.593 3.727 16.975 c 0 1.346 -.725 1.967 -.725 1.967 s -6.727 -12.214 -17.285 -12.214 c -10.558 0 -13.559 10.144 -13.559 13.662 c 0 8.073 4.141 11.696 4.141 11.696 s -.311 -1.655 -.311 -4.036 c 0 -6.936 5.381 -12.939 11.074 -12.939 c 14.49 0 13.455 16.147 16.768 16.147 H 309.068 z" fill="#fff"/><path d="M 311.918 410.815 c 0 1.629 -2.203 2.949 -4.918 2.949 c -2.715 0 -4.916 -1.32 -4.916 -2.949 c 0 -1.63 2.201 -2.95 4.916 -2.95 C 309.715 407.864 311.918 409.185 311.918 410.815" fill="#fff"/><path d="M 310 415.316 L 311.139 436.949 L 302.859 436.949 L 303.998 415.316 Z" fill="#fff"/><path d="M 301.203 443.262 c 0 .686 .556 1.242 1.242 1.242 h 9.109 c .686 0 1.242 -.556 1.242 -1.242 v -3.207 c 0 -.687 -.556 -1.243 -1.242 -1.243 h -9.109 c -.686 0 -1.242 .557 -1.242 1.243 V 443.262 z" fill="#fff"/><path d="M 268.564 429.094 L 266.107 429.094 L 266.107 446.502 L 261.723 446.502 L 261.723 429.094 L 259.268 429.094 L 259.268 426.493 L 268.564 426.493 Z" fill="#fff"/><path d="M 281.543 454.668 h -4.41 c -.476 -.567 -.713 -2.176 -.713 -4.827 v -.027 l .031 -1.2 c .03 -1.665 .047 -2.515 .047 -2.553 c 0 -.679 -.46 -1.019 -1.379 -1.019 v 9.606 h -4.386 v -20.008 h 5.429 c 1.236 0 2.315 .282 3.23 .851 c .916 .566 1.375 1.464 1.375 2.69 v 2.398 c 0 1.553 -.907 2.603 -2.721 3.151 c 1.826 .428 2.739 1.53 2.739 3.307 l -.077 2.189 C 280.709 452.427 280.986 454.24 281.543 454.668 M 276.479 441.554 v -3.303 c 0 -.699 -.454 -1.049 -1.36 -1.049 v 5.414 C 276.025 442.616 276.479 442.262 276.479 441.554" fill="#fff"/><path d="M 283.741 441.436 H 288.127 V 461.445 H 283.741 Z" fill="#fff"/><path d="M 299.459 467.642 L 290.861 467.642 L 290.861 447.634 L 299.402 447.634 L 299.402 450.195 L 295.248 450.195 L 295.248 455.609 L 298.998 455.609 L 298.998 458.035 L 295.248 458.035 L 295.248 465.08 L 299.459 465.08 Z" fill="#fff"/><path d="M 301.535 467.446 h 3.998 v 4.593 c 0 .456 .28 .684 .84 .684 c .539 0 .811 -.229 .811 -.686 v -2.371 c 0 -.725 -.486 -1.575 -1.457 -2.552 c -1.879 -1.813 -3.047 -3.03 -3.504 -3.653 c -.459 -.623 -.688 -1.306 -.688 -2.05 v -2.245 c 0 -2.593 1.699 -3.89 5.1 -3.89 c 3.043 0 4.564 1.182 4.564 3.543 v 3.459 h -3.996 v -3.685 c 0 -.4 -.227 -.601 -.68 -.601 c -.531 0 -.794 .387 -.794 1.16 l .084 1.296 c 0 .744 .495 1.608 1.487 2.594 c 1.844 1.757 3.016 2.984 3.518 3.681 c .5 .698 .75 1.487 .75 2.371 v 2.552 c 0 2.658 -1.701 3.987 -5.107 3.987 c -3.283 0 -4.926 -1.209 -4.926 -3.626 V 467.446 z" fill="#fff"/><path d="M 322.951 450.675 L 320.496 450.675 L 320.496 468.082 L 316.109 468.082 L 316.109 450.675 L 313.654 450.675 L 313.654 448.074 L 322.951 448.074 Z" fill="#fff"/><path d="M 325.545 441.684 H 329.93 V 461.693 H 325.545 Z" fill="#fff"/><path d="M 343.605 454.698 L 339.086 454.698 L 336.096 444.038 L 336.096 454.698 L 332.428 454.698 L 332.428 434.69 L 337.424 434.69 L 339.938 443.815 L 339.938 434.69 L 343.605 434.69 Z" fill="#fff"/><path d="M 357.422 445.637 h -4.346 l -.746 -5.376 h -1.955 l -.756 5.376 h -4.346 l 3.295 -20.009 h 5.553 L 357.422 445.637 z M 351.977 437.485 l -.635 -5.969 l -.602 5.969 H 351.977 z" fill="#fff"/><path d="M 275.457 349.488 h -8.693 v 1.319 h 1.008 c .544 0 .932 .854 .932 2.252 v 7.995 c 0 1.32 -1.008 5.278 -3.492 5.278 c -3.184 0 -4.736 -3.183 -4.736 -8.15 c 0 -3.183 .699 -7.375 .699 -7.375 v -1.319 h -6.754 v 1.319 h .855 c .62 0 1.398 .932 1.398 2.329 c 0 1.475 -2.329 2.95 -2.329 7.996 c 0 4.735 1.94 9.47 7.142 9.47 c 4.58 0 7.219 -3.648 7.219 -3.648 c 0 1.708 .699 3.028 .699 3.028 h 7.297 v -1.165 c -.699 0 -2.251 -1.164 -2.251 -2.251 v -13.352 l 1.009 -2.407 V 349.488 z" fill="#fff"/><path d="M 345.504 348.712 c -4.451 0 -8.049 2.847 -8.049 7.013 c 0 8.461 10.738 5.357 10.738 9.91 c 0 1.605 -2.07 2.64 -4.141 2.64 c -5.174 0 -4.295 -4.554 -6.777 -4.554 c -1.141 0 -1.451 .725 -1.451 1.604 c 0 1.862 3.105 5.9 9.266 5.9 c 4.76 0 9.365 -1.967 9.365 -7.039 c 0 -7.866 -10.607 -5.33 -10.607 -10.091 c 0 -1.657 1.656 -2.847 3.156 -2.847 c 2.691 0 5.744 5.071 6.986 5.071 c -1.293 -2.483 -2.07 -3.829 -2.07 -6.21 h -1.242 v .673 h -.57 C 350.107 350.782 348.66 348.712 345.504 348.712" fill="#fff"/><path d="M 358.416 369.024 c 0 .844 -.685 1.527 -1.527 1.527 c -.844 0 -1.527 -.684 -1.527 -1.527 c 0 -.843 .684 -1.526 1.527 -1.526 C 357.73 367.498 358.416 368.182 358.416 369.024" fill="#fff"/><path d="M 282.341 369.024 c 0 .844 -.684 1.527 -1.527 1.527 c -.843 0 -1.526 -.684 -1.526 -1.527 c 0 -.843 .684 -1.526 1.526 -1.526 C 281.657 367.498 282.341 368.182 282.341 369.024" fill="#fff"/></svg>