<?xml version="1.0" encoding="UTF-8" standalone="no"?>
<svg
   xmlns:dc="http://purl.org/dc/elements/1.1/"
   xmlns:cc="http://creativecommons.org/ns#"
   xmlns:rdf="http://www.w3.org/1999/02/22-rdf-syntax-ns#"
   xmlns:svg="http://www.w3.org/2000/svg"
   xmlns="http://www.w3.org/2000/svg"
   xmlns:sodipodi="http://sodipodi.sourceforge.net/DTD/sodipodi-0.dtd"
   xmlns:inkscape="http://www.inkscape.org/namespaces/inkscape"
   version="1.1"
   id="Layer_1"
   x="0px"
   y="0px"
   viewBox="0 0 1000 999.99998"
   xml:space="preserve"
   sodipodi:docname="Ucsampdoria.svg"
   width="1000"
   height="1000"
   inkscape:version="1.0.1 (3bc2e813f5, 2020-09-07)"><metadata
   id="metadata23"><rdf:RDF><cc:Work
       rdf:about=""><dc:format>image/svg+xml</dc:format><dc:type
         rdf:resource="http://purl.org/dc/dcmitype/StillImage" /><dc:title></dc:title></cc:Work></rdf:RDF></metadata><defs
   id="defs21" /><sodipodi:namedview
   pagecolor="#ffffff"
   bordercolor="#666666"
   borderopacity="1"
   objecttolerance="10"
   gridtolerance="10"
   guidetolerance="10"
   inkscape:pageopacity="0"
   inkscape:pageshadow="2"
   inkscape:window-width="1920"
   inkscape:window-height="1017"
   id="namedview19"
   showgrid="false"
   inkscape:zoom="1.052394"
   inkscape:cx="297.638"
   inkscape:cy="420.94501"
   inkscape:window-x="-8"
   inkscape:window-y="-8"
   inkscape:window-maximized="1"
   inkscape:current-layer="Layer_1" />







<g
   id="g856"
   transform="matrix(4.4699285,0,0,4.4699285,-71.604231,-1415.4882)"><path
     style="fill:#ffffff"
     d="m 100,526.623 c 21.273,-8.229 40.886,-22.689 55.407,-39.676 16.457,-19.251 26.459,-44.14 26.459,-70.927 v 0 -97.482 H 18.133 v 97.482 0 c 0,26.787 10.003,51.676 26.46,70.927 14.521,16.987 34.134,31.447 55.407,39.676 z"
     id="path2" /><path
     style="fill:#e25645"
     d="m 88.352,509.543 -1.852,1.068 -0.484,-0.838 v 0 c -0.076,0.504 -0.212,0.909 -0.409,1.219 -0.197,0.308 -0.5,0.58 -0.908,0.816 -0.545,0.314 -1.067,0.397 -1.566,0.25 -0.498,-0.147 -0.943,-0.559 -1.334,-1.237 v 0 l -1.899,-3.291 1.992,-1.15 1.641,2.843 v 0 c 0.188,0.324 0.38,0.521 0.579,0.588 0.199,0.066 0.407,0.038 0.625,-0.087 0.237,-0.137 0.378,-0.34 0.425,-0.609 0.045,-0.268 -0.066,-0.64 -0.338,-1.109 v 0 l -1.437,-2.488 1.981,-1.144 z m 0.058,-2.684 2.12,-1.224 1.146,1.987 -2.119,1.225 z m 7.153,-4.174 2.009,-0.873 v 0 c 0.123,0.452 0.149,0.891 0.078,1.314 -0.071,0.425 -0.245,0.823 -0.523,1.193 -0.276,0.372 -0.698,0.723 -1.267,1.052 -0.548,0.316 -1.035,0.528 -1.458,0.636 -0.424,0.109 -0.834,0.125 -1.23,0.048 -0.394,-0.076 -0.755,-0.227 -1.082,-0.448 -0.328,-0.222 -0.639,-0.589 -0.933,-1.099 -0.308,-0.532 -0.472,-1.027 -0.494,-1.486 -0.017,-0.336 0.03,-0.674 0.141,-1.014 0.112,-0.338 0.26,-0.628 0.447,-0.87 0.295,-0.382 0.744,-0.748 1.346,-1.096 0.845,-0.488 1.575,-0.707 2.192,-0.663 0.617,0.046 1.183,0.308 1.697,0.788 v 0 l -1.721,1.324 v 0 c -0.186,-0.187 -0.388,-0.292 -0.608,-0.316 -0.218,-0.022 -0.458,0.041 -0.717,0.191 -0.329,0.19 -0.526,0.46 -0.593,0.813 -0.067,0.353 0.037,0.767 0.313,1.244 0.246,0.425 0.534,0.691 0.862,0.796 0.329,0.105 0.648,0.066 0.96,-0.114 0.26,-0.149 0.44,-0.342 0.54,-0.577 0.099,-0.236 0.113,-0.517 0.041,-0.843 z m 2.819,-1.582 2.12,-1.224 1.146,1.986 -2.119,1.225 z m 6.612,-3.077 1.86,-1.321 v 0 c 0.215,0.188 0.426,0.288 0.63,0.304 0.204,0.016 0.428,-0.045 0.672,-0.185 0.265,-0.153 0.438,-0.329 0.519,-0.527 0.065,-0.15 0.06,-0.289 -0.013,-0.414 -0.083,-0.145 -0.221,-0.21 -0.414,-0.203 -0.139,0.007 -0.463,0.102 -0.972,0.287 -0.757,0.278 -1.298,0.442 -1.625,0.496 -0.328,0.052 -0.653,0.009 -0.976,-0.129 -0.325,-0.139 -0.577,-0.362 -0.757,-0.674 -0.197,-0.341 -0.267,-0.69 -0.211,-1.052 0.056,-0.361 0.222,-0.703 0.499,-1.026 0.277,-0.321 0.708,-0.651 1.292,-0.989 0.616,-0.354 1.099,-0.571 1.447,-0.647 0.348,-0.074 0.678,-0.07 0.987,0.015 0.312,0.085 0.629,0.258 0.954,0.521 v 0 l -1.772,1.271 v 0 c -0.144,-0.138 -0.296,-0.213 -0.455,-0.225 -0.216,-0.016 -0.433,0.042 -0.654,0.169 -0.224,0.131 -0.365,0.265 -0.421,0.401 -0.056,0.14 -0.052,0.266 0.014,0.379 0.073,0.127 0.194,0.185 0.36,0.175 0.167,-0.01 0.484,-0.115 0.949,-0.313 0.701,-0.305 1.252,-0.484 1.65,-0.538 0.398,-0.052 0.755,-0.003 1.066,0.145 0.313,0.149 0.553,0.371 0.725,0.666 0.173,0.299 0.251,0.641 0.234,1.027 -0.019,0.386 -0.173,0.775 -0.464,1.166 -0.29,0.393 -0.771,0.78 -1.438,1.167 -0.946,0.545 -1.696,0.799 -2.253,0.761 -0.555,-0.042 -1.033,-0.276 -1.433,-0.707 z m 7.056,-6.828 -2.01,0.895 v 0 c -0.119,-0.372 -0.166,-0.69 -0.142,-0.96 0.025,-0.267 0.125,-0.544 0.298,-0.83 0.123,-0.206 0.328,-0.429 0.615,-0.667 0.287,-0.239 0.615,-0.465 0.984,-0.679 0.594,-0.343 1.092,-0.584 1.49,-0.726 0.397,-0.143 0.779,-0.176 1.141,-0.104 0.252,0.049 0.505,0.179 0.757,0.391 0.252,0.211 0.448,0.439 0.588,0.682 v 0 l 1.318,2.283 v 0 c 0.14,0.244 0.267,0.425 0.377,0.546 0.111,0.121 0.28,0.258 0.509,0.411 v 0 l -1.862,1.074 v 0 c -0.152,-0.09 -0.259,-0.162 -0.321,-0.219 -0.063,-0.058 -0.148,-0.154 -0.259,-0.29 -0.114,0.4 -0.27,0.729 -0.465,0.983 -0.268,0.345 -0.633,0.651 -1.098,0.919 -0.617,0.356 -1.169,0.484 -1.652,0.383 -0.485,-0.101 -0.849,-0.361 -1.091,-0.78 -0.226,-0.393 -0.296,-0.782 -0.212,-1.169 0.084,-0.384 0.401,-0.819 0.951,-1.301 0.655,-0.578 1.078,-0.961 1.263,-1.149 0.187,-0.186 0.376,-0.399 0.565,-0.642 -0.14,-0.242 -0.289,-0.385 -0.445,-0.423 -0.158,-0.04 -0.363,0.014 -0.616,0.159 -0.326,0.189 -0.539,0.381 -0.641,0.579 -0.079,0.154 -0.094,0.367 -0.042,0.634 z m 2.321,0.05 c -0.216,0.255 -0.451,0.505 -0.703,0.75 -0.341,0.34 -0.534,0.593 -0.582,0.758 -0.05,0.172 -0.034,0.325 0.045,0.461 0.09,0.155 0.218,0.251 0.384,0.288 0.165,0.036 0.354,-0.007 0.566,-0.128 0.221,-0.128 0.395,-0.299 0.523,-0.517 0.127,-0.217 0.187,-0.426 0.178,-0.624 -0.009,-0.201 -0.085,-0.425 -0.228,-0.672 v 0 z m 1.571,-4.529 1.851,-1.068 0.436,0.754 v 0 c 0.083,-0.469 0.225,-0.848 0.417,-1.137 0.194,-0.29 0.484,-0.546 0.867,-0.767 0.413,-0.237 0.78,-0.353 1.105,-0.344 0.325,0.006 0.647,0.109 0.967,0.311 0.115,-0.52 0.268,-0.912 0.453,-1.183 0.187,-0.269 0.467,-0.513 0.844,-0.73 0.557,-0.321 1.084,-0.406 1.585,-0.257 0.503,0.15 0.955,0.575 1.361,1.277 v 0 l 1.875,3.247 -1.986,1.146 -1.701,-2.945 v 0 c -0.134,-0.234 -0.28,-0.381 -0.438,-0.441 -0.235,-0.102 -0.452,-0.096 -0.649,0.017 -0.235,0.136 -0.375,0.329 -0.419,0.58 -0.046,0.25 0.039,0.564 0.254,0.936 v 0 l 1.541,2.668 -1.986,1.147 -1.644,-2.849 v 0 c -0.132,-0.227 -0.232,-0.373 -0.306,-0.44 -0.117,-0.104 -0.251,-0.167 -0.401,-0.186 -0.15,-0.021 -0.294,0.01 -0.435,0.091 -0.227,0.131 -0.364,0.324 -0.41,0.581 -0.047,0.257 0.044,0.581 0.27,0.975 v 0 l 1.523,2.64 -1.986,1.145 z m 14.088,1.384 -4.12,-7.138 1.855,-1.072 0.441,0.765 v 0 c 0.07,-0.469 0.181,-0.822 0.329,-1.061 0.202,-0.319 0.477,-0.579 0.828,-0.782 0.69,-0.398 1.378,-0.442 2.062,-0.133 0.684,0.311 1.251,0.856 1.701,1.636 0.496,0.859 0.669,1.636 0.519,2.325 -0.152,0.691 -0.542,1.219 -1.171,1.582 -0.305,0.177 -0.614,0.284 -0.925,0.326 -0.311,0.041 -0.625,0.018 -0.941,-0.073 v 0 l 1.425,2.469 z m -0.634,-5.687 c 0.236,0.411 0.498,0.663 0.784,0.763 0.287,0.099 0.561,0.071 0.824,-0.08 0.23,-0.133 0.368,-0.339 0.414,-0.618 0.046,-0.281 -0.061,-0.648 -0.324,-1.103 -0.241,-0.419 -0.499,-0.679 -0.775,-0.782 -0.277,-0.102 -0.532,-0.086 -0.765,0.049 -0.253,0.146 -0.407,0.366 -0.461,0.662 -0.053,0.296 0.047,0.665 0.303,1.109 z m 7.462,-10.398 4.121,7.139 -1.855,1.072 -0.441,-0.766 v 0 c -0.072,0.475 -0.182,0.83 -0.331,1.067 -0.199,0.315 -0.474,0.574 -0.825,0.775 -0.703,0.408 -1.395,0.45 -2.077,0.128 -0.682,-0.319 -1.244,-0.863 -1.686,-1.629 -0.494,-0.858 -0.668,-1.633 -0.519,-2.323 0.148,-0.692 0.538,-1.22 1.171,-1.585 0.309,-0.179 0.618,-0.289 0.93,-0.329 0.312,-0.043 0.625,-0.015 0.939,0.081 v 0 l -1.428,-2.475 z m 0.634,5.686 c -0.233,-0.405 -0.495,-0.658 -0.782,-0.758 -0.288,-0.102 -0.564,-0.075 -0.827,0.075 -0.229,0.133 -0.367,0.341 -0.411,0.623 -0.046,0.28 0.061,0.647 0.321,1.099 0.244,0.422 0.503,0.685 0.776,0.788 0.275,0.104 0.53,0.089 0.768,-0.049 0.253,-0.146 0.407,-0.368 0.461,-0.664 0.055,-0.294 -0.047,-0.667 -0.306,-1.114 z m 2.967,-1.674 c -0.456,-0.788 -0.563,-1.594 -0.327,-2.412 0.237,-0.818 0.809,-1.488 1.714,-2.011 1.036,-0.598 1.992,-0.75 2.867,-0.455 0.703,0.237 1.26,0.712 1.67,1.419 0.459,0.795 0.571,1.599 0.336,2.411 -0.233,0.813 -0.815,1.487 -1.749,2.026 -0.831,0.479 -1.625,0.656 -2.381,0.53 -0.929,-0.157 -1.64,-0.66 -2.13,-1.508 z m 1.985,-1.151 c 0.265,0.459 0.555,0.748 0.87,0.86 0.313,0.113 0.611,0.089 0.893,-0.074 0.287,-0.165 0.458,-0.409 0.515,-0.732 0.059,-0.324 -0.052,-0.727 -0.329,-1.207 -0.258,-0.447 -0.544,-0.728 -0.856,-0.84 -0.311,-0.113 -0.604,-0.09 -0.875,0.067 -0.288,0.167 -0.463,0.415 -0.524,0.747 -0.059,0.331 0.043,0.724 0.306,1.179 z m 3.429,-5.441 1.855,-1.07 0.488,0.846 v 0 c -0.031,-0.469 0.006,-0.827 0.116,-1.076 0.111,-0.247 0.305,-0.452 0.584,-0.613 0.292,-0.168 0.665,-0.262 1.117,-0.28 v 0 l 0.202,1.766 v 0 c -0.291,0.038 -0.503,0.096 -0.64,0.175 -0.259,0.15 -0.399,0.373 -0.417,0.669 -0.031,0.421 0.193,1.044 0.671,1.872 v 0 l 1.001,1.733 -1.992,1.15 z m 3.343,-4.554 1.982,-1.145 0.779,1.35 -1.982,1.145 z m 1.136,1.968 1.983,-1.143 2.985,5.17 -1.982,1.146 z m 6.021,-1.244 -2.01,0.894 v 0 c -0.12,-0.371 -0.167,-0.69 -0.142,-0.959 0.025,-0.267 0.124,-0.545 0.296,-0.83 0.123,-0.205 0.328,-0.429 0.615,-0.668 0.286,-0.238 0.615,-0.464 0.985,-0.677 0.594,-0.345 1.09,-0.586 1.488,-0.728 0.399,-0.142 0.78,-0.176 1.142,-0.103 0.253,0.049 0.505,0.179 0.758,0.391 0.252,0.211 0.448,0.439 0.588,0.683 v 0 l 1.318,2.282 v 0 c 0.14,0.244 0.266,0.425 0.376,0.546 0.11,0.12 0.28,0.258 0.508,0.411 v 0 l -1.861,1.074 v 0 c -0.152,-0.09 -0.258,-0.163 -0.322,-0.219 -0.063,-0.058 -0.148,-0.153 -0.257,-0.29 -0.115,0.399 -0.271,0.727 -0.465,0.982 -0.269,0.346 -0.634,0.653 -1.097,0.92 -0.617,0.355 -1.168,0.483 -1.653,0.383 -0.485,-0.102 -0.848,-0.361 -1.09,-0.78 -0.226,-0.393 -0.297,-0.782 -0.212,-1.169 0.083,-0.385 0.401,-0.82 0.949,-1.301 0.656,-0.578 1.078,-0.961 1.265,-1.149 0.187,-0.186 0.375,-0.4 0.565,-0.642 -0.14,-0.243 -0.29,-0.385 -0.446,-0.424 -0.158,-0.039 -0.362,0.015 -0.615,0.16 -0.326,0.188 -0.539,0.381 -0.641,0.579 -0.08,0.154 -0.093,0.367 -0.042,0.634 z m 2.321,0.049 c -0.217,0.255 -0.452,0.505 -0.704,0.751 -0.341,0.34 -0.534,0.592 -0.582,0.757 -0.048,0.172 -0.033,0.326 0.046,0.461 0.089,0.156 0.217,0.252 0.383,0.289 0.167,0.036 0.355,-0.006 0.566,-0.129 0.221,-0.127 0.394,-0.298 0.523,-0.517 0.128,-0.216 0.186,-0.425 0.179,-0.623 -0.01,-0.202 -0.087,-0.425 -0.229,-0.672 v 0 z"
     id="path4" /><path
     style="fill:#009cdb"
     d="m 181.866,322.872 v -4.333 H 137.351 L 18.133,388.138 v 27.883 0 c 0,0.799 0.01,1.595 0.028,2.391 v 0 L 41.15,404.996 v 0 c -3.381,-0.721 -6.368,-1.643 -8.414,-2.538 8.165,-1.662 29.295,-18.385 31.448,-27.817 4.281,0.809 6.366,0.681 9.404,0.201 -0.057,-4.279 2.367,-8.308 6.711,-9.578 -0.148,-5.326 4.436,-9.665 9.858,-11.843 5.772,-2.316 13.024,-1.975 16,2.026 2.782,-1.707 8.515,-0.732 11.29,4.568 -2.393,0.57 -3.044,0.863 -4.627,1.573 0.512,0.233 1.056,0.442 1.627,0.629 v 0 z"
     id="path6" /><path
     style="fill:#e25645"
     d="M 181.866,365.806 V 354.3 l -44.981,26.266 1.068,1.163 v 0 c 3.028,0.025 9.364,0.519 14.356,1.335 v 0 z M 45.707,433.81 22.768,447.205 v 0 c 0.981,3.236 2.11,6.413 3.378,9.523 v 0 l 24.86,-14.516 v 0 c 0.305,-1.081 0.488,-2.108 0.488,-2.958 -2.393,0.284 -6.315,1.263 -8.273,1.678 0.754,-1.261 1.864,-4.257 2.486,-7.122 z"
     id="path8" /><path
     style="fill:#343536"
     d="m 181.866,377.249 v -11.443 l -29.557,17.258 v 0 c 0.032,0.005 0.064,0.011 0.096,0.016 3.408,-0.26 10.291,-1.992 13.512,-2.816 -2.32,6.646 -8.712,11.92 -14.229,14.4 0.049,0.042 0.097,0.082 0.144,0.122 v 0 z m -130.86,64.963 -24.86,14.516 v 0 c 0.96,3.071 2.546,6.078 4.162,9.012 v 0 l 20.754,-12.117 v 0 c 1.718,-1.738 3.289,-3.613 4.178,-5.254 -2.639,0.023 -4.572,0.543 -7.576,0.835 1.226,-1.562 2.621,-4.43 3.342,-6.992 z"
     id="path10" /><path
     style="fill:#009cdb"
     d="m 179.155,439.98 c 1.773,-7.737 2.711,-15.76 2.711,-23.96 v 0 -7.853 l -26.755,15.612 v 0 c -0.274,6.686 -0.775,15.108 -0.815,17.974 -7.215,-1.581 -11.043,-5.733 -13.85,-9.415 v 0 l -10.991,6.414 v 0 c 1.826,4.022 8.769,8.786 12.475,10.564 -9.024,0.092 -16.583,2.279 -27.949,10.038 -10.359,7.071 -18.177,15.729 -22.784,23.134 0.44,-3.976 0.296,-13.473 -0.832,-20.925 v 0 l -45.01,26.267 v 0 c 5.856,6.734 12.513,13.056 19.751,18.733 v 0 z"
     id="path12" /><path
     style="fill:#343536"
     d="m 65.296,376.969 c -2.892,8.983 -20.917,23.853 -28.194,25.438 7.265,1.425 15.337,2.386 23.284,1.475 0.374,1.442 0.662,3.155 -0.225,4.539 -2.046,-0.211 -8.667,0.696 -10.713,1.847 0.328,3.419 0.052,8.734 -0.63,11.987 v 0 l -12.731,-0.03 v 0 c -0.056,-1.982 -0.535,-3.918 -1.125,-5.615 v 0 l -8.388,-0.002 v 0 c -1.378,4.241 -1.523,9.75 0.04,14.907 v 0 l 8.281,0.014 v 0 c 0.666,-1.626 0.951,-4.419 1.151,-5.966 v 0 l 9.746,-0.004 v 0 c -0.974,1.183 -2.592,2.581 -4.09,3.447 v 0 l 6.744,0.262 v 0 c 0.024,3.265 -1.167,7.06 -2.221,8.821 1.864,-0.396 5.548,-1.296 7.828,-1.296 0,2.729 -1.346,8.827 -3.009,10.097 3.783,-0.851 5.969,-0.67 7.959,0.031 -1.899,3.393 -6.443,7.766 -9.232,9.764 6.423,-0.494 25.969,0.586 33.41,3.915 0.554,-3.719 2.034,-9.414 4.914,-12.839 3.944,2.837 6.088,21.573 5.403,27.759 4.891,-8.285 29.227,-28.596 42.02,-27.748 -3.068,-1.868 -6.847,-5.025 -8.392,-8.908 -1.203,-3.021 -1.055,-6.479 1.828,-10.112 2.151,-2.712 5.984,-3.857 9.302,-2.184 3.721,1.877 5.691,9.216 13.974,12.438 0.043,-3.099 0.639,-11.647 0.855,-18.225 0.123,-3.75 2.509,-6.888 7.534,-5.307 -2.163,-4.105 -4.454,-12.845 -4.956,-16.544 -2.732,-0.901 -4.643,-2.671 -7.136,-4.794 5.254,-2.361 10.853,-6.145 14.211,-11.324 -3.067,0.784 -8.819,2.433 -12.015,1.94 -4.718,-0.728 -10.944,-1.126 -13.848,-1.151 v 0 l -3.53,-3.556 v 0 c 4.793,-2.779 15.836,-8.665 24.077,-20.486 -10.886,3.359 -38.336,7.351 -48.815,2.57 0.204,-0.877 1.427,-2.663 5.613,-3.004 -2.625,-3.282 -6.747,-1.884 -9.146,-1.237 -5.5,-7.389 -22.911,-1.826 -22.619,8.647 -3.482,1.326 -5.519,2.986 -6.693,6.911 2.51,-1.43 4.855,-2.035 7.037,-1.816 0.663,6.186 -14.948,6.162 -17.503,5.339 z"
     id="path14" /><path
     style="fill:none;stroke:#343536;stroke-width:2.4418"
     d="m 182.76,317.89 v 99.362 0 c 0,27.305 -10.409,51.773 -27.046,71.397 C 141.034,505.962 121.505,519.503 100,527.89 78.495,519.503 58.965,505.962 44.286,488.649 27.649,469.026 17.24,444.557 17.24,417.252 v 0 -99.362 z"
     id="path16" /></g>
</svg>
