<?xml version="1.0" encoding="iso-8859-1"?>
<!-- Generator: Adobe Illustrator 24.0.1, SVG Export Plug-In . SVG Version: 6.00 Build 0)  -->
<svg version="1.1" id="Layer_1" xmlns="http://www.w3.org/2000/svg" xmlns:xlink="http://www.w3.org/1999/xlink" x="0px" y="0px"
	 viewBox="0 0 612 792" style="enable-background:new 0 0 612 792;" xml:space="preserve">
<path style="fill:#ED1C24;" d="M307.503,167.707c123.231,0,223.172,99.94,223.172,223.176c0,123.236-99.94,223.174-223.172,223.174
	c-123.237,0-223.178-99.938-223.178-223.174C84.325,267.647,184.266,167.707,307.503,167.707"/>
<path style="fill:#919598;" d="M307.502,199.294c105.792,0,191.586,85.796,191.586,191.591s-85.794,191.586-191.586,191.586
	c-105.796,0-191.59-85.791-191.59-191.586S201.706,199.294,307.502,199.294"/>
<path style="fill:#E2A951;" d="M307.502,234.126c86.553,0,156.754,70.199,156.754,156.758c0,86.558-70.201,156.755-156.754,156.755
	c-86.565,0-156.757-70.197-156.757-156.755C150.745,304.325,220.938,234.126,307.502,234.126"/>
<path style="fill:#0064AF;" d="M307.5,126.234V413.57c45.334-28.213,60.007-57.51,61.061-142.61
	c0.311-25.138,17.035-38.316,33.73-38.929V180.4c-28.565-1.722-51.663-16.804-55.936-54.166H307.5z"/>
<path style="fill:#ED1C24;" d="M260.808,364.577H307.5v-48.993h-58.675C251.033,335.654,254.861,351.45,260.808,364.577z"/>
<path style="fill:#ED1C24;" d="M307.5,126.234h-38.854c-2.224,19.442-9.554,32.841-20.091,41.473H307.5V126.234z"/>
<path style="fill:#ED1C24;" d="M212.708,217.149v14.882c15.699,0.576,31.419,12.267,33.498,34.56H307.5v-49.442H212.708z"/>
<path style="fill:#FFFFFF;" d="M307.5,167.707h-58.945c-9.711,7.957-22.146,11.867-35.846,12.693v36.749H307.5V167.707z"/>
<path style="fill:#FFFFFF;" d="M246.438,270.96c0.21,16.946,0.962,31.672,2.387,44.624H307.5v-48.993h-61.294
	C246.338,268.005,246.419,269.46,246.438,270.96z"/>
<path style="fill:#FFFFFF;" d="M307.5,413.57v-48.994h-46.692C270.297,385.522,285.181,399.68,307.5,413.57z"/>
<path style="fill:#E2A951;" d="M347.756,305.896c-0.801-23.573-0.165-47.214-2.624-70.701h2.102v-8.394l-2.718-0.44l0.048-4.727
	c6.849-11.98,12.794-42.074,1.62-52.93c-14.729-14.316-30.329-1.849-29.876,15.746c0.397,15.201,2.877,22.414,8.047,35.434
	l-0.045,4.114l-2.119,0.128l-0.157,2.32l-2.274,0.086l-0.03,8.606l2.393,0.042c-3.363,10.767-2.163,60.856-2.362,75.267
	c-2.875,6.102-5.079,5.794-5.079,13.822c0,16.311,16.643,21.4,26.495,19.144c8.85-2.025,16.204-8.013,16.204-18.794
	C357.379,317.23,355.348,308.52,347.756,305.896"/>
<path style="fill:#ED1C24;" d="M324.485,240.272l-0.523,13.826l20.121,29.4l0.176-19.604
	C338.17,255.488,333.209,245.991,324.485,240.272"/>
<path style="fill:#919598;" d="M335.741,238.23c0.699,0.35,6.124,0.703,6.124,0.703l-0.173,7.348L335.741,238.23z"/>
<path style="fill:#919598;" d="M324.368,269.031v18.197l19.248,22.226l0.173-15.926
	C337.497,285.136,331.541,276.683,324.368,269.031"/>
<path style="fill:#ED1C24;" d="M324.544,304.381v10.846l6.303,4.725l6.298,0.525l0.697-4.899
	C333.34,310.302,330.569,307.759,324.544,304.381"/>
<path style="fill:#FFFFFF;" d="M321.918,317.328c-2.05,0.223-2.579,5.853-1.751,9.8c0.329,1.581,0.351,2.316,0.878,3.674
	c0.91,2.354,2.304,3.368,3.675,3.368c1.446,0,2.395-0.247,1.908-1.743c-1.171-3.621-2.783-4.347-2.783-8.099v-4.55
	C323.845,318.23,323.359,317.331,321.918,317.328"/>
<path style="fill:#FFFFFF;" d="M330.318,322.753c-3.319,0.335-2.388,4.771-1.577,7.701c0.334,1.194,0.2,2.91,0.702,4.024
	c0.678,1.509,1.719,3.413,3.456,3.413c1.839,0,2.89-0.912,2.976-2.759c0.085-1.955-1.426-1.239-2.541-5.688
	c-0.32-1.277-0.961-2.396-0.961-3.717C332.373,323.015,331.09,322.685,330.318,322.753"/>
<path style="fill:#FFFFFF;" d="M337.318,326.779c0.208,1.054,0.611,3.959,1.223,4.9c0.573,0.879,1.972,2.813,2.559,3.395
	c0.405,0.403,0.651,0.634,0.857,0.715c1.654,0.678,4.206-1.043,4.206-3.08c0-1.947-2.474-3.563-2.986-4.884
	c-0.507-1.334-0.913-3.357-1.876-4.354C339.328,321.434,336.403,322.138,337.318,326.779"/>
<path style="fill:#FFFFFF;" d="M346.944,317.153c-0.731,0.245-1.97,0.806-1.927,1.75c0.074,1.684,0.603,2.484,0.698,4.023
	c0.094,1.552,2.79,6.449,4.554,6.65c2.946,0.339,3.059-4.878,3.059-6.905C353.328,320.095,349.515,316.802,346.944,317.153"/>
<path style="fill:#FFFFFF;" d="M321.571,194.132c0,5.284,2.951,11.52,3.934,16.011c0.373,1.716,2.54,9.912,2.54,11.639
	c0,3.631,2.512,2.609,6.647,2.274c1.249-0.099,0.633-7.467,1.225-10.325c0.491-2.389,1.82-10.635,4.286-10.846
	c3.68-0.324,0.051,7.669-0.525,10.234c-0.713,3.17-1.484,6.192-1.484,9.45c0,2.599,1.725,1.652,2.709-0.169
	c1.636-3.039,2.919-9.134,3.239-9.891c1.303-3.092,1.924-7.838,1.924-11.377c0-2.841,0.353-5.757,0.353-8.573
	c0-1.026-3.974,3.929-5.602,4.722c-2.188,1.072-7.034,2.282-11.053,1.377C326.049,197.818,323.13,194.923,321.571,194.132"/>
<path style="fill:#FFFFFF;" d="M324.103,229.13v4.375c1.833,0.137,2.928,0.328,4.657,0.328c2.135,0,5.083,0.985,7.597,0.985
	c3.493,0,4.721-0.673,6.295-1.836v-3.852C338.436,226.224,332.422,229.788,324.103,229.13"/>
<path d="M159.874,293.647h-5.747v5.747l0,171.997c-82.858-35.967-84.539-124.445-85.363-167.626c-0.03-1.56-0.059-3.06-0.09-4.496
	l-0.122-5.627l-5.628,0.005l-32.639,0.028l-5.717,0.005l-0.024,5.717c-0.001,0.242-0.1,24.332,0,36.401
	c0.243,29.88,5.154,56.925,14.6,80.382c8.803,21.861,21.556,40.695,37.904,55.98c15.18,14.189,33.314,25.213,53.899,32.758
	c19.277,7.064,40.263,10.943,62.374,11.525l5.897,0.154v-5.9V299.394v-5.747h-5.746H159.874z"/>
<path d="M584.754,292.861H418.859h-5.746v5.746v29.747v0.042l0.001,0.043c0.396,26.731,4.206,51.429,11.326,73.407
	c7.32,22.598,18.148,42.346,32.185,58.691c14.526,16.92,32.526,30.236,53.501,39.58c21.672,9.654,46.689,15.131,74.353,16.275
	l5.983,0.246v-5.988v-23.223v-5.365l-5.352-0.367c-38.123-2.623-70.065-18.082-92.375-44.707
	c-22.306-26.617-33.78-63.827-31.172-100.44h85.232v49.551v5.747h5.746h32.211h5.746v-5.747v-87.492v-5.746H584.754z"/>
<path d="M372.989,544.572c-8.898-7.057-27.297-18.303-36.804-23.734c-30.925-17.678-35.543-30.055-35.543-35.861
	c0-4.295,1.385-8.699,11.43-11.822c8.48-2.635,21.464-3.811,42.1-3.811h22.884h5.751l-0.005-5.752l-0.019-23.762l-0.005-5.742
	h-5.741h-35.878c-20.878,0-42.504,0.705-57.372,9.135c-25.836,14.641-29.15,32.147-29.15,45.764
	c0,31.684,38.395,58.242,61.28,71.252c25.803,14.654,39.494,31.016,36.627,43.766c-4.64,20.625-26.724,25.289-30.594,25.289h-61.192
	h-5.746v5.746l-0.001,25.76v5.746h5.746h64.832c15.97,0,31.212-4.986,44.076-14.418c12.044-8.83,21.3-21.225,26.064-34.894
	C405.068,590.439,396.566,563.275,372.989,544.572z"/>
<path style="fill:#FFFFFF;" d="M159.874,299.394h33.599v211.303C110.062,508.504,31.278,457.244,30.29,335.75
	c-0.1-12.173,0-36.329,0-36.329l32.639-0.028c0.938,43.204-0.448,144.248,96.944,180.503L159.874,299.394z"/>
<path style="fill:#FFFFFF;" d="M584.754,386.099h-32.211v-55.297H456.31c-7.54,70.046,34.131,150.142,128.407,156.626v23.223
	c-110.35-4.561-164.317-78.289-165.857-182.297v-29.747h165.895V386.099z"/>
<path style="fill:#FFFFFF;" d="M377.037,439.836h-35.878c-22.289,0-41.519,1.006-54.538,8.387
	c-24.75,14.023-26.238,30.33-26.238,40.764c0,27.945,35.477,53.24,58.374,66.256c24.809,14.092,43.333,32.504,39.393,50.021
	c-5.28,23.475-29.603,29.775-36.199,29.775h-61.192l-0.001,25.76h64.832c57.883,0,95.003-71.127,43.826-111.725
	c-8.547-6.779-26.614-17.838-36.082-23.248c-26.478-15.135-38.439-29.037-38.439-40.85c0-17.652,21.498-21.379,59.276-21.379h22.884
	L377.037,439.836z"/>
</svg>
