<?xml version="1.0" encoding="iso-8859-1"?>
<!-- Generator: Adobe Illustrator 24.0.1, SVG Export Plug-In . SVG Version: 6.00 Build 0)  -->
<svg version="1.1" id="Layer_1" xmlns="http://www.w3.org/2000/svg" xmlns:xlink="http://www.w3.org/1999/xlink" x="0px" y="0px"
	 viewBox="0 0 612 792" style="enable-background:new 0 0 612 792;" xml:space="preserve">
<path style="fill:#D09C47;" d="M309,680c-3.063,0-4.515-8.205-5.558-10.497c-3.347-7.35-7.273-12.863-11.444-17.157
	c-4.159-4.282-8.62-7.405-13.009-9.948c-12.41-7.193-25.849-8.316-36.984-9.244c-2.338-0.195-4.575-0.382-7.148-0.666
	c-17.322-1.922-41.47-6.463-64.341-15.08c-17.055-6.426-33.444-15.137-45.935-26.756c-7.039-6.549-12.708-13.049-17.236-19.744
	c-4.574-6.763-7.992-13.744-10.486-21.189c-4.454-13.294-4.44-18.401-4.404-32.503c0.003-1.391,0.008-2.875,0.007-4.47l-0.143-392.1
	v-2.829c0-2.773,0.238-3.795,3.488-3.794l3.364,0.002L309,114l209.828,0.024l3.365-0.002c3.249-0.001,3.487,1.02,3.487,3.794v2.829
	l-0.142,392.1c-0.001,1.595,0.003,3.079,0.007,4.47c0.036,14.102,0.049,19.209-4.404,32.503
	c-2.494,7.445-5.912,14.427-10.486,21.189c-4.529,6.695-10.197,13.195-17.237,19.744c-12.489,11.619-28.879,20.33-45.935,26.756
	c-22.87,8.617-47.019,13.158-64.341,15.08c-2.571,0.284-4.809,0.471-7.147,0.666c-11.135,0.929-24.573,2.051-36.984,9.244
	c-4.389,2.543-8.85,5.666-13.009,9.948c-4.17,4.294-8.097,9.808-11.444,17.157C313.516,671.795,312.063,680,309,680z"/>
<path style="fill:#FFFFFF;" d="M420.859,457.006c-1.971-2.206-5.768-3.142-9.697-1.843c-1.195,0.396-2.767,0.974-4.461,1.594
	c-2.7,0.992-5.404,1.997-8.168,2.802c-3.7,1.075-8.534,3.277-6.26,9.942c-3.337,2.129-6.543,4.484-9.554,7.057
	c1.08-4.207,0.487-7.018,1.084-11.317c0.451-3.258,3.368-3.398,4.315-3.978c6.661-4.07,13.42-8.932,17.13-15.862
	c1.2-2.245,2.146-4.11,2.532-5.583c2.302-0.077,4.279-1.081,5.713-2.911c2.395-3.056,1.573-6.178,0.912-9.719
	c-1.322-7.079-1.993-13.36-3.962-16.784c-1.322-2.299-3.148-4.12-5.797-4.298c-0.261-3.677-0.684-5.861-1.123-8.489
	c-0.267-1.59-0.649-3.588-1.051-5.032c-2.208-7.929-2.594-8.546-6.611-8.572c-3.298-0.022-5.087,1.753-7.567,4.065
	c-2.701,2.518-5.505,5.04-8.866,8.007c1.114-8.264-4.539-5.379-3.27-11.267c1.081-5.012,3.588-13.45-1.78-16.94
	c0.478-4.831,0.281-7.772-1.704-12.258c-0.839-1.896-0.618-3.949,0.888-6.451c1.505-2.5,3.066-5.309,3.852-7.478
	c1.72-4.742,2.236-9.059,2.155-11.041c-0.113-2.792-0.898-4.976-4.44-6.354c-3.676-1.431-6.766,0.319-9.2,2.695
	c-3.01,2.939-6.491,6.35-9.548,9.24c-0.817-0.974-1.403-1.707-2.337-2.857c-2.242-2.764-4.688-5.779-7.139-8.371
	c-6.094-6.442-13.542-12.239-18.788-16.154c-3.533-2.636-7.343-4.674-11.371-4.876c-1.554-1.628-5.298-2.861-7.409-2.883
	c-0.108-0.001-0.225-0.005-0.337-0.007V120.128H98.424l0.142,392.617c0.007,16.908-0.484,21.391,4.087,35.034
	c4.618,13.785,12.73,25.963,26.095,38.396c27.975,26.025,77.392,36.972,106.78,40.231c12.814,1.421,30.076,1.166,46.526,10.7
	c9.608,5.569,19.608,13.749,26.946,29.867v-61.608c1.244,1.035,2.681,1.969,4.341,2.802c3.387,1.696,7.763,1.636,11.632,0.721
	c6.28,7.356,20.434,7.542,25.215,2.826c3.177,0.925,4.522,0.633,7.821-0.478c6.08-2.048,10.17-8.218,10.166-15.206
	c-0.002-5.983-3.073-11.464-5.65-16.902c-1.42-3-2.522-6.581-3.275-8.833c-1.445-4.32-3.226-9.366-3.054-15.25
	c2.463-5.399,5.705-12.341,7.648-17.947c8.525-0.865,15.313-4.314,14.903-14.827c1.88-1.859,2.992-3.958,3.529-5.195
	c1.2-2.768,1.329-4.406,1.228-6.224c-0.287-5.198,2.337-11.3,6.094-15.902c2.35-2.878,5.511-5.71,8.7-8.243
	c0.561-0.444,5.318-3.883,6.879-4.848c4.148,4.089,7.525,4.002,10.828,0.648c1.882-1.908,1.701-4.128,2.009-6.574
	c0.345-2.733,0.709-6.005,2.166-8.273C422.768,463.624,423.092,459.507,420.859,457.006z M309,575.681v-16.446
	c0.683,0.172,1.352,0.334,2.018,0.496c0.753,4.103,2.564,7.141,5.25,9.584C314.002,571.067,311.404,573.083,309,575.681z"/>
<path style="fill:#9ED2F1;" d="M316.268,569.315c-2.686-2.443-4.497-5.481-5.25-9.584c-0.665-0.162-1.335-0.324-2.018-0.496v16.446
	C311.404,573.083,314.002,571.067,316.268,569.315z"/>
<path style="fill:#9ED2F1;" d="M519.577,120.128H309v180.955c0.112,0.002,0.228,0.006,0.337,0.007
	c2.111,0.022,5.855,1.255,7.409,2.883c4.028,0.202,7.838,2.24,11.371,4.876c5.246,3.915,12.694,9.712,18.788,16.154
	c2.45,2.592,4.896,5.608,7.139,8.371c0.934,1.149,1.52,1.883,2.337,2.857c3.057-2.891,6.538-6.302,9.548-9.24
	c2.435-2.376,5.524-4.126,9.2-2.695c3.541,1.379,4.326,3.563,4.44,6.354c0.081,1.982-0.436,6.299-2.155,11.041
	c-0.786,2.169-2.347,4.978-3.852,7.478c-1.506,2.502-1.727,4.556-0.888,6.451c1.985,4.485,2.182,7.427,1.704,12.258
	c5.368,3.49,2.861,11.929,1.78,16.94c-1.269,5.888,4.385,3.003,3.27,11.267c3.361-2.967,6.165-5.489,8.866-8.007
	c2.48-2.313,4.27-4.087,7.567-4.065c4.018,0.026,4.403,0.644,6.611,8.572c0.401,1.444,0.784,3.442,1.051,5.032
	c0.44,2.628,0.862,4.813,1.123,8.489c2.648,0.178,4.475,1.999,5.797,4.298c1.969,3.424,2.64,9.705,3.962,16.784
	c0.661,3.541,1.482,6.663-0.912,9.719c-1.434,1.83-3.411,2.834-5.713,2.911c-0.387,1.473-1.332,3.338-2.532,5.583
	c-3.71,6.931-10.469,11.792-17.13,15.862c-0.947,0.579-3.864,0.72-4.315,3.978c-0.597,4.3-0.004,7.11-1.084,11.317
	c3.011-2.572,6.217-4.928,9.554-7.057c-2.274-6.665,2.56-8.867,6.26-9.942c2.764-0.805,5.468-1.81,8.168-2.802
	c1.694-0.62,3.266-1.198,4.461-1.594c3.93-1.299,7.727-0.363,9.697,1.843c2.232,2.501,1.908,6.618-0.68,10.653
	c-1.457,2.268-1.821,5.54-2.166,8.273c-0.308,2.446-0.127,4.666-2.009,6.574c-3.303,3.354-6.68,3.44-10.828-0.648
	c-1.561,0.965-6.318,4.403-6.879,4.848c-3.189,2.533-6.351,5.365-8.7,8.243c-3.757,4.603-6.381,10.704-6.094,15.902
	c0.101,1.817-0.028,3.456-1.228,6.224c-0.537,1.237-1.649,3.336-3.529,5.195c0.409,10.514-6.378,13.962-14.903,14.827
	c-1.942,5.606-5.185,12.548-7.648,17.947c-0.172,5.884,1.608,10.93,3.054,15.25c0.753,2.252,1.855,5.833,3.275,8.833
	c2.577,5.438,5.648,10.919,5.65,16.902c0.004,6.988-4.086,13.158-10.166,15.206c-3.299,1.111-4.645,1.403-7.821,0.478
	c-4.781,4.716-18.935,4.53-25.215-2.826c-3.869,0.915-8.245,0.976-11.632-0.721c-1.66-0.833-3.097-1.767-4.341-2.802v61.608
	c7.338-16.118,17.339-24.298,26.947-29.867c16.45-9.534,33.712-9.279,46.525-10.7c29.39-3.26,78.807-14.206,106.781-40.231
	c13.363-12.434,21.477-24.611,26.095-38.396c4.571-13.644,4.08-18.126,4.086-35.034L519.577,120.128z"/>
<path style="fill:#D09C47;" d="M312.213,268.575c-0.984-1.283-2.653-4.096-4.997-8.444l-11.148-20.722h-0.396l-10.712,20.952
	c-1.646,3.199-3.075,5.607-4.308,7.216c-1.223,1.608-2.392,2.646-3.512,3.113v0.562c0.716-0.047,1.462-0.087,2.249-0.11
	c0.778-0.023,1.844-0.032,3.179-0.032c1.318,0,2.399,0.009,3.241,0.032c0.851,0.023,1.669,0.064,2.456,0.11l0.023-0.562
	c-1.081-0.127-1.931-0.476-2.535-1.046c-0.604-0.57-0.905-1.323-0.905-2.25c0-0.681,0.19-1.568,0.572-2.669
	c0.373-1.102,0.969-2.479,1.779-4.136l0.764-1.6h9.614l1.629,3.272c0.795,1.592,1.391,2.939,1.78,4.031
	c0.397,1.086,0.596,1.901,0.596,2.448c0,0.603-0.158,1.054-0.485,1.347c-0.325,0.293-0.881,0.491-1.652,0.602l0.023,0.562
	c1.272-0.047,2.567-0.087,3.886-0.11c1.32-0.023,2.973-0.032,4.959-0.032c1.597,0,2.877,0.009,3.83,0.032
	c0.953,0.023,1.867,0.064,2.733,0.11l0.023-0.562C314.089,270.564,313.199,269.858,312.213,268.575z M288.709,257.414l4.053-8.539
	l4.053,8.539H288.709z"/>
<path style="fill:#D09C47;" d="M407.838,263.545c-0.27-0.617-0.46-1.093-0.587-1.418c-0.962-2.336-2.202-4.048-3.735-5.141
	c-1.526-1.093-3.576-1.734-6.135-1.933c3.647-0.143,6.517-0.855,8.59-2.139c2.082-1.283,3.123-2.986,3.123-5.109
	c0-2.732-1.318-4.674-3.958-5.799c-2.638-1.132-7.453-1.694-14.438-1.694h-5.007c-1.643,0-3.035-0.008-4.186-0.024
	c-1.145-0.016-2.313-0.039-3.489-0.071v0.65c1.025,0.261,1.749,0.673,2.178,1.243c0.421,0.563,0.637,1.387,0.637,2.472v15.779
	c0,4.237-0.238,6.946-0.707,8.11c-0.478,1.173-1.367,1.893-2.671,2.171v0.609c0.946-0.047,1.94-0.087,2.972-0.11
	c1.033-0.023,2.424-0.032,4.18-0.032c1.828,0,3.298,0.009,4.395,0.032c1.104,0.023,2.162,0.064,3.171,0.11v-0.609
	c-1.319-0.31-2.225-1.069-2.702-2.29c-0.484-1.211-0.724-3.873-0.724-7.991v-4.801c0.112,0,0.286-0.008,0.524-0.023
	c0.239-0.017,0.413-0.024,0.524-0.024c1.757,0,3.219,0.309,4.387,0.927c1.177,0.618,2.153,1.592,2.948,2.923
	c0.699,1.165,1.431,3.098,2.201,5.807c0.763,2.709,1.501,4.69,2.192,5.94c2.734,0,4.936,0.009,6.604,0.024
	c1.669,0.016,3.314,0.039,4.927,0.071v-0.634C411.16,269.826,409.42,267.49,407.838,263.545z M392.073,254.008
	c-0.357,0-1.089-0.023-2.185-0.071c-0.517-0.016-0.914-0.023-1.191-0.023v-11.977c0.438-0.032,0.873-0.056,1.319-0.064
	c0.436-0.009,1.017-0.009,1.732-0.009c2.853,0,4.998,0.508,6.438,1.514c1.438,1.006,2.153,2.503,2.153,4.499
	c0,1.933-0.724,3.438-2.162,4.515C396.729,253.469,394.695,254.008,392.073,254.008z"/>
<path style="fill:#D09C47;" d="M346.232,240.732l-0.024-0.563c-0.946,0.047-1.867,0.087-2.758,0.11
	c-0.897,0.024-1.748,0.032-2.575,0.032c-0.865,0-1.772-0.008-2.7-0.032c-0.931-0.023-1.916-0.064-2.957-0.11v0.563
	c0.962,0.079,1.717,0.419,2.272,1.029c0.549,0.618,0.827,1.434,0.827,2.448c0,0.713-0.183,1.64-0.549,2.788
	c-0.365,1.149-0.897,2.48-1.597,4.016l-4.729,10.068l-7.684-13.593c-0.787-1.411-1.335-2.464-1.638-3.146
	c-0.301-0.688-0.452-1.212-0.452-1.568c0-0.586,0.175-1.045,0.524-1.37c0.35-0.324,0.898-0.546,1.661-0.673v-0.563
	c-1.209,0.063-2.432,0.11-3.656,0.143c-1.224,0.031-2.462,0.047-3.718,0.047c-1.2,0-2.384-0.016-3.553-0.047
	c-1.176-0.032-2.344-0.079-3.504-0.143v0.563c0.835,0.143,1.708,0.792,2.622,1.964c0.906,1.165,2.305,3.604,4.195,7.319
	l11.244,21.997h0.422l9.733-19.494c1.875-3.754,3.505-6.582,4.88-8.468C343.888,242.166,345.128,241.057,346.232,240.732z"/>
<path style="fill:#D09C47;" d="M374.487,268.575c-0.984-1.283-2.653-4.096-4.997-8.444l-11.149-20.722h-0.396l-10.712,20.952
	c-1.645,3.199-3.075,5.607-4.307,7.216c-1.224,1.608-2.392,2.646-3.512,3.113v0.562c0.715-0.047,1.461-0.087,2.248-0.11
	c0.779-0.023,1.844-0.032,3.179-0.032c1.319,0,2.4,0.009,3.242,0.032c0.851,0.023,1.669,0.064,2.456,0.11l0.022-0.562
	c-1.08-0.127-1.931-0.476-2.534-1.046c-0.603-0.57-0.906-1.323-0.906-2.25c0-0.681,0.191-1.568,0.573-2.669
	c0.373-1.102,0.969-2.479,1.779-4.136l0.763-1.6h9.615l1.629,3.272c0.794,1.592,1.39,2.939,1.78,4.031
	c0.397,1.086,0.596,1.901,0.596,2.448c0,0.603-0.159,1.054-0.484,1.347c-0.327,0.293-0.883,0.491-1.653,0.602l0.024,0.562
	c1.271-0.047,2.566-0.087,3.885-0.11c1.319-0.023,2.973-0.032,4.959-0.032c1.597,0,2.876,0.009,3.829,0.032
	c0.954,0.023,1.868,0.064,2.733,0.11l0.024-0.562C376.363,270.564,375.474,269.858,374.487,268.575z M350.983,257.414l4.053-8.539
	l4.052,8.539H350.983z"/>
<path style="fill:#D09C47;" d="M273.882,268.345c-0.501-1.203-0.747-3.865-0.747-7.983v-15.867c0-1.1,0.23-1.94,0.684-2.518
	c0.46-0.578,1.216-0.982,2.272-1.196v-0.649c-1.208,0.056-2.416,0.104-3.607,0.135c-1.192,0.032-2.416,0.048-3.655,0.048
	c-1.176,0-2.328-0.016-3.457-0.048c-1.12-0.031-2.225-0.079-3.314-0.135v0.649c1.058,0.262,1.804,0.674,2.249,1.244
	c0.437,0.563,0.659,1.386,0.659,2.471v15.867c0,4.237-0.246,6.938-0.73,8.103c-0.493,1.157-1.414,1.885-2.781,2.179v0.609
	c0.977-0.047,2.002-0.087,3.075-0.11c1.064-0.023,2.503-0.032,4.299-0.032c1.891,0,3.416,0.009,4.561,0.032
	c1.152,0.023,2.249,0.064,3.306,0.11v-0.609C275.313,270.318,274.374,269.55,273.882,268.345z"/>
<path style="fill:#D09C47;" d="M257.449,268.337c-0.484-1.251-0.724-3.904-0.724-7.976v-15.867c0-1.133,0.231-1.987,0.684-2.574
	c0.461-0.594,1.185-0.974,2.178-1.141v-0.649c-1.16,0.056-2.305,0.104-3.433,0.135c-1.12,0.032-2.265,0.048-3.433,0.048
	c-1.16,0-2.305-0.016-3.433-0.048c-1.121-0.031-2.233-0.079-3.339-0.135v0.649c0.979,0.214,1.693,0.618,2.139,1.204
	c0.452,0.595,0.675,1.426,0.675,2.511v9.371c-0.897,0.032-1.756,0.056-2.559,0.071c-0.81,0.017-1.598,0.024-2.353,0.024h-3.869
	c-1.613,0-2.726-0.008-3.354-0.024c-0.619-0.016-1.136-0.047-1.557-0.095v-9.348c0-1.116,0.222-1.964,0.675-2.558
	c0.445-0.587,1.176-0.975,2.186-1.157v-0.649c-1.145,0.056-2.305,0.104-3.465,0.135c-1.168,0.032-2.36,0.048-3.584,0.048
	c-1.151,0-2.265-0.016-3.353-0.048c-1.089-0.031-2.162-0.079-3.234-0.135v0.649c1.025,0.262,1.748,0.674,2.177,1.244
	c0.422,0.563,0.636,1.386,0.636,2.471v15.867c0,4.237-0.238,6.946-0.707,8.11c-0.477,1.173-1.366,1.893-2.67,2.171v0.609
	c0.945-0.047,1.938-0.087,2.972-0.11c1.033-0.023,2.424-0.032,4.18-0.032c1.828,0,3.298,0.009,4.41,0.032
	c1.112,0.023,2.178,0.064,3.202,0.11v-0.609c-1.318-0.324-2.225-1.077-2.701-2.266c-0.485-1.181-0.723-3.85-0.723-8.016v-4.658
	c0.508-0.032,1.096-0.056,1.748-0.071c0.651-0.016,1.708-0.023,3.162-0.023h3.869c1.455,0,2.512,0.008,3.163,0.023
	c0.652,0.016,1.239,0.039,1.748,0.071v4.658c0,4.253-0.237,6.97-0.723,8.135c-0.477,1.164-1.375,1.885-2.678,2.146l0.023,0.609
	c0.994-0.047,2.019-0.087,3.083-0.11c1.065-0.023,2.479-0.032,4.252-0.032c1.771,0,3.202,0.009,4.282,0.032
	c1.089,0.023,2.138,0.064,3.147,0.11v-0.609C258.832,270.349,257.926,269.581,257.449,268.337z"/>
<path style="fill:#D09C47;" d="M425.876,268.345c-0.501-1.203-0.747-3.865-0.747-7.983v-15.867c0-1.1,0.23-1.94,0.684-2.518
	c0.461-0.578,1.216-0.982,2.273-1.196v-0.649c-1.209,0.056-2.416,0.104-3.608,0.135c-1.191,0.032-2.416,0.048-3.655,0.048
	c-1.176,0-2.328-0.016-3.456-0.048c-1.12-0.031-2.226-0.079-3.313-0.135v0.649c1.057,0.262,1.803,0.674,2.249,1.244
	c0.436,0.563,0.658,1.386,0.658,2.471v15.867c0,4.237-0.246,6.938-0.73,8.103c-0.492,1.157-1.414,1.885-2.781,2.179v0.609
	c0.978-0.047,2.003-0.087,3.076-0.11c1.064-0.023,2.502-0.032,4.298-0.032c1.892,0,3.417,0.009,4.561,0.032
	c1.151,0.023,2.249,0.064,3.305,0.11v-0.609C427.307,270.318,426.369,269.55,425.876,268.345z"/>
<path style="fill:#D09C47;" d="M218.664,259.648c-0.604,3.668-1.7,6.361-3.29,8.096c-1.597,1.734-3.767,2.598-6.508,2.598
	c-3.29,0-5.849-1.314-7.676-3.952c-1.819-2.638-2.733-6.345-2.733-11.105c0-4.459,0.914-7.937,2.749-10.44
	c1.828-2.511,4.347-3.762,7.541-3.762c2.591,0,4.672,0.775,6.237,2.328c1.565,1.561,2.591,3.85,3.076,6.884l0.651,0.095l2.304-7.454
	c-1.954-1.172-4.004-2.051-6.142-2.645c-2.145-0.586-4.387-0.879-6.73-0.879c-5.65,0-10.203,1.481-13.651,4.444
	c-3.457,2.962-5.181,6.852-5.181,11.659c0,2.646,0.46,4.975,1.374,6.971c0.914,2.004,2.328,3.787,4.235,5.354
	c1.661,1.348,3.575,2.377,5.753,3.098c2.169,0.721,4.481,1.077,6.937,1.077c2.821,0,5.412-0.349,7.772-1.054
	c2.359-0.704,4.553-1.773,6.587-3.216l-2.631-8.143L218.664,259.648z"/>
<path style="fill:#D09C47;" d="M470.317,248.142c-0.244-1.415-0.084-3.89,0.5-7.427l8.898-53.565l-0.926-0.582l-35.362,25.081
	l-1.488,1.062c-8.843,6.259-14.913,9.027-18.202,8.289l-0.655,1.041c1.561,0.878,3.002,1.695,4.326,2.476
	c1.324,0.781,2.52,1.517,3.621,2.208c1.027,0.646,2.157,1.374,3.385,2.199c1.214,0.816,2.514,1.721,3.88,2.685l0.692-1.018
	c-1.123-0.934-1.69-2.114-1.742-3.53c-0.052-1.416,0.446-2.959,1.488-4.615c0.916-1.456,2.296-3.04,4.137-4.772
	c1.84-1.732,4.309-3.77,7.426-6.117l10.083,6.342l-2.586,11.911c-0.269,1.232-0.565,2.342-0.907,3.301
	c-0.336,0.979-0.709,1.795-1.12,2.447c-0.741,1.18-1.621,1.94-2.63,2.269c-1.019,0.341-2.059,0.247-3.114-0.295l-0.655,1.042
	c0.263,0.165,0.72,0.436,1.336,0.788c5.203,3.027,8.911,5.236,11.126,6.629c1.976,1.243,5.035,3.29,9.141,6.117l0.677,0.478
	l0.655-1.042C471.22,250.705,470.567,249.577,470.317,248.142z M461.149,214.476l-8.031-5.051l11.149-8.54L461.149,214.476z"/>
<path style="fill:#D09C47;" d="M383.927,186.93c-4.063,4.734-7.883,8.218-11.455,10.435c-3.569,2.202-6.732,3.075-9.485,2.604
	c-2.447-0.418-4.043-1.608-4.801-3.573c-0.745-1.962-0.757-5.047-0.04-9.241l5.791-33.873c0.435-2.543,0.926-4.188,1.471-4.923
	c0.563-0.746,1.389-1.282,2.496-1.619l0.205-1.198c-2.689-0.323-4.716-0.565-6.035-0.745c-1.333-0.184-2.559-0.378-3.695-0.572
	c-1.121-0.191-2.343-0.415-3.66-0.686c-1.333-0.273-3.326-0.719-5.969-1.307l-0.205,1.198c0.962,0.691,1.577,1.473,1.831,2.358
	c0.256,0.871,0.172,2.587-0.262,5.129l-5.307,31.039c-0.925,5.406-1.939,9.234-3.063,11.509c-1.123,2.275-2.666,3.846-4.629,4.713
	l-0.205,1.198c4.285,0.628,8.146,1.197,11.58,1.725c3.447,0.529,5.943,0.926,7.502,1.192l21.763,3.72l7.222-18.558L383.927,186.93z"
	/>
<path style="fill:#D09C47;" d="M324.172,191.114c-3.369,2.772-6.59,4.166-9.65,4.166c-2.659,0-4.565-0.904-5.719-2.713
	c-1.152-1.809-1.729-4.848-1.729-9.118v-13.49c0.783-0.089,1.374-0.148,1.773-0.179c0.398-0.029,0.754-0.044,1.034-0.044
	c3.636,0,6.517,0.756,8.645,2.282c2.113,1.514,3.62,3.899,4.522,7.146h1.212v-21.941h-1.212c-0.901,3.217-2.408,5.589-4.522,7.131
	c-2.129,1.527-5.01,2.298-8.645,2.298c-0.28,0-0.636-0.015-1.034-0.044c-0.4-0.03-0.99-0.089-1.773-0.179v-22.801
	c0.296-0.06,0.591-0.104,0.887-0.118c0.31-0.016,0.768-0.016,1.404-0.016c3.813,0,7.359,1.038,10.641,3.129
	c3.265,2.09,6.605,5.426,10.02,10.036h1.256l-3.119-15.552h-20.748c-2.217,0-4.803-0.029-7.744-0.089
	c-2.94-0.06-6.088-0.148-9.428-0.252v1.216c1.064,0.519,1.803,1.186,2.201,2.017c0.399,0.815,0.606,2.52,0.606,5.1v31.489
	c0,5.471-0.355,9.428-1.079,11.859c-0.724,2.432-1.98,4.24-3.769,5.427v1.215c4.33-0.104,8.232-0.192,11.705-0.252
	c3.487-0.059,6.015-0.089,7.596-0.089h23.778l4.33-19.51l-1.213-0.341C330.955,184.25,327.557,188.327,324.172,191.114z"/>
<path style="fill:#D09C47;" d="M176.91,207.612c0.115,6.363-0.441,11.642-1.703,15.841c-1.258,4.178-3.16,7.128-5.702,8.829
	c-2.211,1.48-4.299,1.789-6.263,0.927c-1.963-0.862-4.133-3.066-6.508-6.615l-7.504-11.211c0.602-0.51,1.059-0.888,1.374-1.135
	c0.315-0.246,0.602-0.456,0.835-0.611c3.021-2.022,5.837-2.997,8.454-2.912c2.598,0.081,5.179,1.227,7.733,3.423l1.007-0.674
	l-12.205-18.233l-1.007,0.674c1.041,3.175,1.107,5.984,0.209,8.44c-0.919,2.453-2.885,4.696-5.907,6.719
	c-0.232,0.156-0.536,0.342-0.884,0.539c-0.348,0.197-0.872,0.477-1.573,0.838l-12.683-18.948c0.213-0.213,0.434-0.415,0.671-0.592
	c0.25-0.185,0.63-0.439,1.158-0.793c3.169-2.121,6.694-3.232,10.583-3.319c3.877-0.079,8.508,0.835,13.909,2.768l1.044-0.699
	l-11.242-11.188l-17.242,11.541c-1.842,1.233-4.008,2.646-6.484,4.233c-2.477,1.587-5.143,3.264-7.976,5.035l0.676,1.011
	c1.173-0.161,2.158-0.017,2.951,0.45c0.785,0.456,1.906,1.758,3.341,3.901l17.516,26.167c3.043,4.547,4.949,8.033,5.7,10.457
	c0.751,2.423,0.713,4.625-0.113,6.605l0.676,1.01c3.541-2.494,6.733-4.739,9.587-6.72c2.865-1.989,4.949-3.419,6.263-4.299
	l19.76-13.227l-7.254-18.622L176.91,207.612z"/>
<path style="fill:#D09C47;" d="M431.611,203.585c-4.813,3.97-9.172,6.748-13.07,8.32c-3.895,1.559-7.16,1.878-9.792,0.943
	c-2.339-0.831-3.708-2.276-4.119-4.342c-0.397-2.061,0.118-5.103,1.543-9.112l11.502-32.383c0.863-2.431,1.629-3.968,2.292-4.598
	c0.682-0.639,1.587-1.025,2.735-1.168l0.407-1.145c-2.593-0.779-4.55-1.364-5.817-1.768c-1.283-0.408-2.457-0.81-3.544-1.195
	c-1.072-0.381-2.237-0.811-3.489-1.303c-1.266-0.497-3.153-1.277-5.657-2.309l-0.406,1.146c0.829,0.846,1.302,1.722,1.399,2.638
	c0.103,0.901-0.272,2.577-1.136,5.008L393.92,191.99c-1.837,5.17-3.49,8.767-4.987,10.815c-1.496,2.049-3.284,3.332-5.366,3.852
	l-0.406,1.146c4.114,1.352,7.82,2.574,11.112,3.68c3.307,1.112,5.698,1.93,7.188,2.459l20.805,7.39l10.29-17.049L431.611,203.585z"
	/>
<path style="fill:#D09C47;" d="M216.734,160.741c-0.04-3.374,1.109-6.107,3.454-8.184l-0.428-1.186
	c-1.009,0.428-2.118,0.876-3.318,1.341c-1.186,0.46-2.987,1.127-5.378,1.99c-2.432,0.879-4.271,1.527-5.478,1.932
	c-1.219,0.408-2.359,0.773-3.408,1.089l0.428,1.186c3.088,0.239,5.672,1.607,7.747,4.09c2.061,2.486,4.757,8.339,8.096,17.583
	l2.034,5.633L186.5,163.388c-0.653,0.236-1.686,0.64-3.111,1.218c-1.411,0.573-2.513,1.003-3.263,1.274
	c-1.307,0.472-3.157,1.093-5.564,1.867c-2.407,0.775-3.98,1.296-4.716,1.561l0.357,0.99c2.333-0.023,4.152,0.533,5.453,1.655
	c1.311,1.104,2.61,3.439,3.884,6.968l6.361,17.61c3.346,9.258,5.037,15.551,5.071,18.864c0.02,3.318-1.131,6.005-3.448,8.071
	l0.413,1.143c1.294-0.594,2.645-1.161,4.07-1.738c1.411-0.573,2.973-1.169,4.653-1.776c1.654-0.597,3.207-1.127,4.673-1.593
	c1.466-0.467,2.853-0.889,4.2-1.249l-0.413-1.144c-3.131-0.271-5.764-1.686-7.862-4.237c-2.101-2.552-4.805-8.384-8.105-17.517
	l-6.226-17.234l48.344,32.741l1.585-0.572l-11.131-30.815C218.433,170.358,216.774,164.115,216.734,160.741z"/>
<path style="fill:#D09C47;" d="M233.23,148.651l-0.768,16.661l1.269-0.009c2.076-4.325,4.222-7.791,6.456-10.446
	c2.237-2.641,4.189-4.084,5.871-4.334c0.54-0.08,0.933,0.042,1.172,0.351c0.242,0.324,0.437,1.029,0.605,2.158l3.859,25.985
	l0.516,3.476c1.098,7.391,1.48,12.385,1.147,14.967c-0.334,2.584-1.307,4.586-2.93,6.026l0.179,1.202
	c1.753-0.365,3.582-0.727,5.488-1.069c1.905-0.343,3.963-0.679,6.199-1.011c2.192-0.325,4.258-0.602,6.196-0.83
	c1.938-0.229,3.808-0.416,5.621-0.58l-0.179-1.202c-1.972-0.906-3.499-2.538-4.583-4.91c-1.084-2.372-2.17-7.262-3.267-14.652
	l-4.031-27.144l-0.345-2.316c-0.167-1.129-0.186-1.861-0.049-2.241c0.141-0.365,0.494-0.598,1.064-0.683
	c1.651-0.245,3.924,0.571,6.833,2.447c2.91,1.892,5.969,4.584,9.213,8.119l1.217-0.36l-5.488-15.731L233.23,148.651z"/>
<path style="fill:#D09C47;" d="M397.691,553.547c-4.491,1.938-8.363,4.808-11.554,8.72c-2.284,2.799-4.311,6.33-6.046,10.333
	c-1.324,3.06-2.479,6.394-3.445,9.891c2.085,3.331,4.761,6.255,7.881,8.625c3.335-5.928,7.114-11.017,11.379-15.148
	c5.092-4.933,10.873-8.497,17.412-10.491c0.347-4.621,0.392-8.23-0.063-11.393c-0.184-1.274-0.449-2.479-0.81-3.654
	C406.979,550.662,402.044,551.668,397.691,553.547L397.691,553.547z M414.227,566.942c4.209,3.065,7.751,5.041,11.435,6.148
	c2.949,0.887,5.968,1.212,9.469,1.087c-1.144,4.046-3.056,7.77-5.568,11.004c-5.674,0.396-10.877-0.149-15.59-1.676
	c-5.288-1.714-9.969-4.67-14.017-8.925C404.239,571.06,408.984,568.476,414.227,566.942L414.227,566.942z M401.443,593.486
	c3.314,1.389,6.903,2.448,10.678,3.174c-2.581,0.665-5.288,1.018-8.077,1.018c-6.729,0-12.979-2.06-18.153-5.583
	c1.199-2.143,2.457-4.175,3.773-6.087C392.943,589.106,396.943,591.602,401.443,593.486L401.443,593.486z M413.462,585.092
	c4.474,1.449,9.359,2.051,14.64,1.837c-3.393,3.785-7.665,6.765-12.495,8.618c-4.827-0.669-9.396-1.871-13.522-3.601
	c-4.399-1.843-8.289-4.283-11.447-7.311c2.008-2.766,4.149-5.262,6.432-7.473c0.53-0.515,1.069-1.013,1.615-1.497
	C402.939,580.16,407.875,583.282,413.462,585.092L413.462,585.092z M428.034,550.773c1.461,3.362,2.373,6.912,2.706,10.657
	c0.309,3.468,0.123,7.099-0.579,10.9c1.687,0.205,3.461,0.252,5.396,0.161c0.514-2.288,0.785-4.668,0.785-7.111
	c0-13.291-8.032-24.71-19.507-29.666c1.578,1.356,3.036,2.813,4.366,4.337C424.123,543.4,426.43,547.082,428.034,550.773
	L428.034,550.773z M414.907,553.848c-0.499-3.472-1.567-6.462-3.436-9.648c-1.564-2.667-3.942-5.104-6.886-7.29
	c-1.657-1.231-3.495-2.384-5.471-3.454c1.607-0.247,3.253-0.375,4.93-0.375c2.7,0,5.323,0.332,7.831,0.956
	c3.06,2.038,5.767,4.467,8.074,7.11c2.804,3.214,5.017,6.749,6.558,10.291c1.392,3.201,2.258,6.577,2.575,10.136
	c0.298,3.331,0.114,6.829-0.567,10.499c-0.805-0.153-1.594-0.347-2.376-0.582c-3.551-1.067-6.998-3.012-11.144-6.052
	C415.34,560.782,415.376,557.111,414.907,553.848L414.907,553.848z M384.323,546.551c-3.13,2.437-6.029,5.446-8.744,9.03
	c-1.198,1.582-2.361,3.277-3.492,5.085c1.916-13.103,11.703-23.652,24.404-26.696c2.607,1.294,5.008,2.724,7.102,4.279
	c0.219,0.162,0.434,0.325,0.645,0.49c-3.443,0.463-6.852,1.259-10.088,2.447C390.617,542.482,387.283,544.246,384.323,546.551
	L384.323,546.551z M394.725,542.753c3.605-1.323,7.427-2.143,11.264-2.545c1.671,1.515,3.047,3.129,4.047,4.835
	c0.742,1.265,1.35,2.498,1.839,3.745c-5.476,0.282-10.44,1.325-14.842,3.225c-4.733,2.043-8.817,5.071-12.188,9.203
	c-2.379,2.916-4.485,6.581-6.279,10.724c-1.157,2.673-2.187,5.545-3.077,8.545c-2.389-4.507-3.743-9.649-3.743-15.105
	c0-0.305,0.005-0.607,0.012-0.91c1.647-2.888,3.36-5.516,5.154-7.883c2.623-3.464,5.421-6.37,8.437-8.718
	C388.168,545.673,391.35,543.991,394.725,542.753z"/>
<path style="fill:#FFFFFF;" d="M405.703,560.648l-1.49-1.443c0.231-0.111,0.458-0.228,0.692-0.336
	c0.334-0.152,0.481-0.549,0.329-0.883c-0.152-0.334-0.548-0.481-0.883-0.328c-0.39,0.179-0.773,0.37-1.156,0.562l-1.213-1.175
	c-0.177-0.171-0.458-0.167-0.629,0.009s-0.168,0.457,0.009,0.628l1,0.969c-0.798,0.424-1.583,0.869-2.348,1.348l-1.489-1.419
	c-0.178-0.168-0.46-0.162-0.629,0.017c-0.169,0.178-0.162,0.459,0.016,0.628l1.337,1.273c-0.856,0.565-1.693,1.164-2.508,1.801
	l-1.579-1.581c-0.174-0.173-0.455-0.174-0.628-0.001c-0.174,0.173-0.176,0.454-0.002,0.628l1.509,1.511
	c-0.91,0.746-1.794,1.535-2.648,2.376l-1.521-1.45c-0.179-0.169-0.46-0.162-0.629,0.016c-0.169,0.178-0.162,0.46,0.016,0.629
	l1.512,1.44c-0.773,0.792-1.523,1.625-2.248,2.498l-1.171-1.114c-0.177-0.169-0.458-0.163-0.628,0.016
	c-0.169,0.177-0.163,0.458,0.016,0.628l1.218,1.16c-0.646,0.81-1.268,1.656-1.873,2.531l-1.103-1.037
	c-0.18-0.168-0.461-0.16-0.629,0.02c-0.168,0.178-0.159,0.46,0.018,0.628l1.202,1.132c-0.587,0.883-1.15,1.804-1.698,2.752
	l-0.991-0.963c-0.177-0.172-0.458-0.167-0.63,0.009c-0.171,0.176-0.167,0.457,0.01,0.629l1.158,1.125
	c-0.237,0.429-0.476,0.857-0.705,1.3c-0.17,0.326-0.043,0.73,0.284,0.9c0.328,0.17,0.73,0.043,0.901-0.284
	c0.168-0.323,0.344-0.634,0.516-0.949l1.053,1.022c0.175,0.171,0.457,0.166,0.628-0.009c0.172-0.176,0.167-0.458-0.008-0.629
	l-1.229-1.193c0.546-0.962,1.115-1.887,1.701-2.778l1.379,1.298c0.178,0.169,0.46,0.159,0.628-0.018
	c0.168-0.18,0.16-0.461-0.02-0.629l-1.484-1.397c0.601-0.878,1.22-1.726,1.86-2.534l1.317,1.254
	c0.178,0.169,0.459,0.163,0.628-0.016c0.169-0.178,0.163-0.459-0.016-0.628l-1.364-1.3c0.724-0.876,1.472-1.71,2.244-2.501
	l1.165,1.108c0.179,0.169,0.459,0.162,0.629-0.016c0.169-0.178,0.162-0.459-0.016-0.628l-1.153-1.1
	c0.849-0.83,1.726-1.611,2.629-2.346l1.613,1.615c0.173,0.174,0.455,0.175,0.629,0.002c0.174-0.172,0.175-0.454,0.002-0.628
	l-1.544-1.547c0.827-0.64,1.679-1.241,2.551-1.806l1.409,1.342c0.178,0.169,0.459,0.162,0.628-0.016
	c0.17-0.178,0.163-0.459-0.016-0.628l-1.246-1.188c0.769-0.47,1.55-0.916,2.351-1.329l1.718,1.664
	c0.177,0.171,0.458,0.167,0.629-0.01C405.884,561.102,405.88,560.819,405.703,560.648z"/>
<path style="fill:#FFFFFF;" d="M430.161,572.33c0.702-3.802,0.888-7.433,0.579-10.9c-0.333-3.745-1.245-7.295-2.706-10.657
	c-1.604-3.691-3.911-7.372-6.832-10.722c-1.33-1.524-2.788-2.98-4.366-4.337c-1.592-0.687-3.249-1.25-4.961-1.677
	c3.06,2.038,5.767,4.467,8.074,7.11c2.804,3.214,5.017,6.749,6.558,10.291c1.392,3.201,2.258,6.577,2.575,10.136
	c0.298,3.331,0.114,6.829-0.567,10.499c-0.805-0.153-1.594-0.347-2.376-0.582c-3.551-1.067-6.998-3.012-11.144-6.052
	c0.345-4.657,0.381-8.328-0.088-11.592c-0.499-3.472-1.567-6.462-3.436-9.648c-1.564-2.667-3.942-5.104-6.886-7.29
	c-1.657-1.231-3.495-2.384-5.471-3.454c-0.888,0.135-1.762,0.307-2.623,0.514c2.607,1.294,5.008,2.724,7.102,4.279l0.645,0.49
	c-3.443,0.463-6.852,1.259-10.088,2.447c-3.533,1.296-6.867,3.06-9.827,5.364c-3.13,2.437-6.029,5.446-8.744,9.03
	c-1.198,1.582-2.361,3.277-3.492,5.085c-0.183,1.247-0.294,2.516-0.33,3.804c1.647-2.888,3.36-5.516,5.154-7.883
	c2.623-3.464,5.421-6.37,8.437-8.718c2.82-2.196,6.002-3.878,9.377-5.116c3.605-1.323,7.427-2.143,11.264-2.545
	c1.671,1.515,3.047,3.129,4.047,4.835c0.742,1.265,1.35,2.498,1.839,3.745c-5.476,0.282-10.44,1.325-14.842,3.225
	c-4.733,2.043-8.817,5.071-12.188,9.203c-2.379,2.916-4.485,6.581-6.279,10.724c-1.157,2.673-2.187,5.545-3.077,8.545
	c0.363,0.684,0.749,1.352,1.158,2.006c0.967-3.496,2.121-6.831,3.445-9.891c1.734-4.003,3.762-7.534,6.046-10.333
	c3.19-3.912,7.063-6.781,11.554-8.72c4.353-1.879,9.288-2.885,14.755-3.118c0.36,1.175,0.626,2.38,0.81,3.654
	c0.454,3.162,0.409,6.771,0.063,11.393c-6.539,1.994-12.32,5.559-17.412,10.491c-4.265,4.132-8.044,9.221-11.379,15.148
	c0.445,0.339,0.9,0.665,1.363,0.98c1.199-2.143,2.457-4.175,3.773-6.087c3.279,3.097,7.279,5.593,11.779,7.478
	c3.314,1.389,6.903,2.448,10.678,3.174c1.189-0.307,2.353-0.679,3.485-1.113c-4.827-0.669-9.396-1.871-13.522-3.601
	c-4.399-1.843-8.289-4.283-11.447-7.311c2.008-2.766,4.149-5.262,6.432-7.473c0.53-0.515,1.069-1.013,1.615-1.497
	c4.256,4.495,9.191,7.617,14.778,9.427c4.474,1.449,9.359,2.051,14.64,1.837c0.507-0.565,0.993-1.148,1.46-1.747
	c-5.674,0.396-10.877-0.149-15.59-1.676c-5.288-1.714-9.969-4.67-14.017-8.925c4.284-3.521,9.029-6.106,14.272-7.639
	c4.209,3.065,7.751,5.041,11.435,6.148c2.949,0.887,5.968,1.212,9.469,1.087c0.156-0.556,0.3-1.118,0.428-1.687
	C433.622,572.582,431.848,572.535,430.161,572.33z"/>
<path d="M360.74,494.973c-2.931,1.813-5.269,5.149-5.384,8.059c-0.184,4.652,8.461,7.315,12.637,7.3
	c8.946-0.032,8.997-6.058,9.118-9.917c0.138-4.43-0.95-7.892-7.115-7.821C367.983,492.615,364.004,492.953,360.74,494.973z"/>
<path d="M372.108,404.926c-2.529,2.174-5.977,8.285-7.639,10.228c-2.585,3.018-3.288,5.337-1.516,5.293
	c1.282-0.032,0.604,3.917,0.482,7.587c-0.228,6.93,0.405,16.988,2.628,21.716c2.003,4.258,3.659,2.058,2.172,8.028
	c-3.528,12.709-8.07,26.093-10.693,36.617c2.14-2.641,7.116-4.028,14.035-4.561c4.455-11.834,5.775-20.291,7.837-27.707
	c1.271-4.571,4.139-5.049,5.809-6.069c5.976-3.65,11.586-8.384,14.544-13.912c2.611-4.877,1.155-7.251,4.694-9.443
	c0.82-0.508,1.933,0.233,2.833,0.413c0.959,0.19,1.818-0.664,0.766-3.864c-1.154-3.514-1.534-7.666-1.852-11.07
	c-0.578-6.171-2.472-5.234-3.574-3.535c-2.226,3.43-4.795,6.813-7.84,9.734c-3.466,3.325-1.777,4.381-0.585,5.114
	c2.973,1.825-0.623,5.779-3.704,8.626c-3.338,3.085-6.933,4.32-3.829-2.757c0.74-1.689,3.365-8.277,4.465-13.219
	c0.864-3.891,2.186-5.616,4.269-5.923c3.211-0.473,2.838-1.376,2.827-3.817c-0.039-8.986-1.435-13.25-2.031-18.689
	c-0.459-4.183-1.359-2.698-3.288-0.833c-3.882,3.753-10.263,11.022-12.043,13.01c-3.227,3.603-1.87,5.549-0.536,7.227
	c1.254,1.577,2.844,2.738,1.66,6.003c-1.809,4.982-2.874,11.767-5.01,17.116c-0.869,2.178-0.936,3.418-1.962,1.414
	c-1.111-2.167-2.306-7.531-2.243-11.321c0.045-2.676,0.421-3.901,2.683-5.384c3.094-2.026,3.595-1.673,2.52-5.868
	c-0.666-2.594-1.812-6.668-2.488-9.338C374.492,401.786,373.258,403.939,372.108,404.926z"/>
<path d="M374.384,510.56c-1.74,1.353-4.881,2.071-6.968,2.068c-6.833-0.009-7.915-1.535-10.96-1.551
	c-3.63-0.019-5.58,4.336-2.698,5.952c3.855,2.165,6.501,3.323,10.181,3.323c9.653,0,12.022-4.438,12.834-6.31
	C379.04,508.815,375.113,509.992,374.384,510.56z"/>
<path d="M413.251,461.509c-3.324,1.1-8.085,3.05-12.618,4.376c-2.056,0.601-2.518,0.643-0.604,2.239
	c0.857,0.714,1.694,1.464,2.556,2.293c0.43,0.413,0.307,0.763-0.443,1.133c-3.447,1.706-8.291,4.63-12.864,8.237
	c-5.019,3.96-9.58,8.536-11.835,14.061c0.764,1.601,1.506,3.131,2.248,5.128c1.568-2.828,4.069-7.032,5.072-8.262
	c5.171-6.335,12.264-12.251,20.298-16.116c1.358-0.654,1.284-0.666,2.433,0.313c0.873,0.746,1.608,1.366,2.557,2.302
	c1.56,1.537,1.338,0.303,1.563-1.477c0.435-3.423,0.963-8.058,3.287-11.682C416.847,461.021,415.81,460.663,413.251,461.509z"/>
<path d="M338.945,568.904c2.205,1.122,4.289,1.771,5.592-1.879c1.062-2.976,3.025-7.733,5.127-12.44
	c4.014-8.988,7.498-15.83,9.52-22.508c-4.273-0.736-7.702-1.966-10.176-2.676c-3.766,6.121-8.77,24.299-10.936,31.994
	C337.253,564.307,335.692,567.25,338.945,568.904z"/>
<path d="M370.469,521.828c-0.957,0.328-4.069,0.304-6.458,0.325c-4.578,0.043-6.229-0.76-10.204-1.709
	c-4.059-0.969-5.909-0.556-6.96,1.104c-0.897,1.418-0.015,2.729,1.588,3.887c2.892,2.089,8.227,4.433,13.423,4.464
	c3.982,0.024,8.104-1.674,9.659-3.691c1.033-1.338,1.56-3.109,1.367-4.041C372.725,521.394,372.118,521.263,370.469,521.828z"/>
<path d="M298.185,552.607c-1.737-1.468-4.749-3.189-7.868-5.02c-0.859,1.212-2.125,3.345-3.389,4.889
	c-1.143,1.398-2.507,1.202-1.114-0.857c1.072-1.586,2.643-3.718,2.803-3.971c1.786-2.844,3.352-5.596,4.951-8.547l-33.293-16.606
	c0.675,4.823-0.097,7.268-1.174,10.347c-1.076,3.08-2.459,6.795-2.639,8.806c-0.44,4.911-2.885,2.898-6.226,2.018
	c-4.247-1.119-11.306-1.231-17.844-1.261c-6.564-0.031-9.257,1.222-12.601,2.741c-2.459,1.117-3.337,2.512-3.415,5.698
	c-0.032,1.317-0.024,3.402,0.805,4.16c0.994,0.911,1.353,0.614,2.306-0.27c0.681-0.633,1.657-1.382,2.602-1.926
	c2.587-1.49,2.877-0.692,0.622,0.893c-1.219,0.855-2.429,1.536-2.46,5.124c-0.034,3.825,0.625,4.699,1.818,5.95
	c2.771,2.907,3.076,2.851,4.902,0.705c3.514-4.129,7.984-5.484,9.638-5.515c2.58-0.046,2.241,0.829-0.257,1.229
	c-3.745,0.601-7.188,3.7-8.037,4.55c-3.029,3.032-1.947,6.652,0.586,8.139c1.23,0.722,3.2,1.389,6.341,1.399
	c5.304,0.017,12.941-1.301,18.277-1.679c9.48-0.672,18.426-2.258,27.895-2.786c11.995-0.67,15.831-3.912,18.08-8.006
	C301.303,559.523,302.331,556.111,298.185,552.607z"/>
<path d="M353.78,571.803c-2.599-7.769-2.736-10.681-2.913-15.619c-0.972,2.777-2.548,8.155-3.295,10.106
	c-2.675,6.975-6.786,6.579-10.053,4.914c-2.618-1.334-3.205-3.635-2.44-6.695c1.77-7.089,2.214-10.131,4.948-18.085
	c1.782-5.181,0.92-7.067-0.66-11.003c-1.819-4.537-3.964-10.727-5.24-14.978c-2.181-7.261-2.424-14.391-2.386-20.051
	c0.042-6.212,1.698-9.617,1.668-14.424c-0.021-3.255-2.431-7.384-4.035-10.401c-1.447-2.719-1.925-3.542-3.482-3.567
	c-1.847-0.031-2.696,1.031-4.865,1.642c-3.615,1.02-8.738,1.815-12.42,1.756c-4.908-0.079-8.889-2.184-4.797-2.608
	c10.503-1.091,18.995-3.363,25.228-5.949c0.646,3.992,0.655,5.582,3.035,9.108c2.881,4.267,5.483,6.085,8.684,9.561
	c3.51,3.811,1.511,6.615,3.597,9.748c0.915,1.374,1.722,2.309,3.174,3.645c-4.127,4.872-3.198,9.837-1.291,12.448
	c2.508,3.43,6.135-0.265,7.803-1.852c1.283-1.221,0.317-2.771-0.137-3.431c-0.885-1.282-1.275-1.43-1.275-3.43
	c0-2.243,1.099-3.113,2.264-4.474c1.094-8.322,1.482-11.561,3.788-19.642c0.989-3.464,1.806-4.848,0.203-7.639
	c-2.981-5.19-8.512-16.164-9.226-23.419c-0.413-4.204-0.896-7.595-2.814-9.409c-2.084-1.971-1.636-2.332,0.169-4.67
	c1.608-2.085,3.569-4.178,4.602-5.649c1.001-1.428,0.281-2.834,1.468-4.107c1.957-2.096,4.152-3.666,6.561-5.666
	c7.144-5.932,13.523-20.752,13.814-24.079c-2.335,0.919-4.495,2.431-10.353,6.132c7.091-12.522,7.01-13.699,8.34-21.151
	c1.023-5.722-1.13-5.123-1.873-4.141c-1.675,2.211-2.517,0.948-1.852-3.477c0.951-6.344,0.785-9.453-0.759-12.938
	c-0.909-2.054-1.851-6.586-0.183-9.171c3.498-5.417,4.208-7.57,4.888-9.446c3.597-9.91,1.28-9.35-1.147-6.979
	c-2.665,2.603-8.654,8.12-11.482,10.865c-1.73,1.68-2.432,2.518-4.32,0.738c-3.104-2.926-7.904-9.708-12.665-14.743
	c-5.667-5.991-12.88-11.369-17.959-15.16c-2.315-1.728-4.758-2.925-6.573-3.185c0.33,0.614,1.588,3.682,1.626,5.361
	c-0.748-0.843-5.966-7.96-9.035-8.07c1.148,2.462,1.331,3.043,1.375,4.263c-5.069-3.393-9.667-4.083-12.549-4.313
	c-4.614-0.367-3.376,1.658-0.072,5.992c4.901,6.429,1.85,5.839-0.554,4.658c-1.566-0.771-3.971-2.014-5.756-2.478
	c-3.124-0.813-3.469,0.233-2.453,1.928c1.617,2.696,4.468,6.095,4.276,8.392c-0.143,1.713,0.204,1.645-2.134,2.346
	c-4.187,1.255-17.446,1.893-32.059,19.313c-2.595-0.583-9.346-6.426-12.77-9.991c-2.105-2.191-2.495-0.841-2.529,0.271
	c-0.066,2.123,2.122,6.755,2.885,7.919c3.943,6.021,7.609,10.041,9.653,11.873c-0.547,2.818-2.837,15.991-2.422,21.59
	c0.134,1.819,0.568,3.815,0.341,4.369c-0.199,0.489-1.035-0.325-1.32-0.783c-3.038-4.874-5.305-2.548-4.425,0.156
	c2.224,6.834,0.617,8.313,0.588,12.35c-0.036,4.85,2.857,12.587,4.46,15.102c1.529,2.4,3.996,1.996,4.425,3.816
	c0.72,3.05,1.267,6.082,2.777,7.711c2.345,2.526,4.215,3.719,4.217,5.043c0.002,1.341-1.524,2.645-4.1,3.474
	c-2.135,0.686-4.876,0.916-9.095,1.771c-5.835,1.185-8.173,4.121-13.284,7.055c-6.584,3.78-10.45,8.191-10.684,16.335
	c-0.248,8.672,4.991,14.251,7.421,16.869c-1.533,3.505-2.995,6.971-3.851,8.772c-1.857,3.908-1.531,5.801,1.362,9.81
	c5.457,7.56,6.965,8.162,13.418,8.987c0.184-9.098,2.811-19.682,6.123-23.329c2.726-3.001,3.504-5.605,3.527-8.268
	c0.027-3.016-0.914-6.108-1.087-9.939c-0.237-5.223,0.79-5.974,2.093-2.761c0.501,1.235,0.612,4.434,0.685,6.399
	c0.06,1.628,0.068,3.145,1.284,3.057c0.822-0.06,2.428-1.098,4.124-2.31c3.166-2.265,3.154-3.658,3.7-7.069
	c0.253-1.583,0.771-3.375,0.925-4.448c0.635-4.392,2.467-3.572,2.107-0.854c-0.428,3.231-1.85,8.7-1.865,9.111
	c-0.022,0.565-0.215,2.029,1.082,3.187c2.091,1.867,6.362,4.361,7.479,4.95c4.889,2.58-0.938,4.557-5.827,1.337
	c-2.705-1.781-4.961-3.712-5.68-4.645c-3.161,4.624-7.575,9.48-10.292,14.234c-2.615,4.574-5.39,12.539-5.403,18.766
	c-0.018,7.943-0.718,12.108,6.861,17.366c9.284,6.443,14.258,7.97,25.289,13.357c7.703,3.762,12.339,6.431,19.411,6.401
	c2.459-0.011,7.703-0.192,10.554-1.385c4.287-1.794,5.75-1.599,4.069-0.429c-5.461,3.798-10.598,4.64-19.37,4.399
	c0.92,2.111,2.818,4.795,4.251,6.467c2.961,3.454,9.086,7.194,13.328,9.017c1.044,0.448,4.232,2.136,6.655,3.203
	c1.604,0.707,2.634,0.864,2.634,1.686c0,0.637-0.718,0.801-1.372,0.742c-1.673-0.151-4.774-2.262-5.242-2.574
	c0.943,1.733,2.276,5.368,4.429,8.663c1.751,2.681,3.959,4.28,2.459,5.891c-2.946,3.164-10.118,6.811-13.783,13.728
	c-1.918,3.62-1.542,8.64,0.947,12.119c2.127,2.975,5.956,4.711,9.492,4.758c5.033,0.066,7.592-1.039,7.594-4.868
	c0.001-1.615,0.238-3.506,1.186-5.212c-0.314,6.408-0.385,10.067,1.837,12.31c2.063,2.081,4.969,2.903,8.999,2.836
	c5.539-0.092,6.407-2.461,6.37-5.884c-0.024-2.123-0.228-4.899-0.449-6.988c0.677,1.734,1.609,4.497,1.987,6.162
	c0.642,2.823,1.763,4.404,4.778,4.418c3.512,0.016,5.266-1.63,6.198-2.596c4.325-4.476,2.664-8.563,0.849-14.042
	C358.48,582.933,355.647,577.386,353.78,571.803z M364.349,401.362c3.053-2.661,4.912-0.856,1.366,2.462
	c-1.185,1.109-5.151,6.149-7.729,9.061c-3.262,3.684-3.734,0.648-1.931-1.975C358.495,407.363,361.466,403.875,364.349,401.362z
	 M355.26,349.395c5.561-5.022,12.281-10.9,15.559-14.183c-1.621,6.113-4.709,12.621-8.658,18.188
	c-2.178,3.07-7.305,9.499-9.46,8.348c-2.262-1.208-2.419-2.893-2.387-5.246C350.351,353.873,352.432,351.948,355.26,349.395z
	 M256.994,407.717c-1.249-5.345-1.833-10.826-4.328-15.77c-2.091-4.141,0.007-6.368,2.232-1.931
	c1.115,2.223,4.859,11.143,4.916,17.086C259.837,409.502,257.783,411.091,256.994,407.717z M267.807,358.944
	c-0.939,1.714-4.441,0.307-8.747-2.748c-4.974-3.527-10.015-9.523-10.936-14.051c1.125,0.912,4.017,3.308,5.194,4.35
	c4.39,3.886,8.239,4.276,12.294,7.46C268.408,356.151,268.497,357.685,267.807,358.944z M276.94,490.22
	c-2.684,2.077-4.223,1.298-5.534-0.318c-0.646-0.794-0.938-3.374,0.912-4.699c2.57-1.842,5.178-1.19,5.776,0.258
	C278.6,486.68,278.648,488.898,276.94,490.22z M328.501,421.19c-3.172,3.157-11.742,5.859-15.248,2.311
	c-2.565-2.597-3.212-4.005,0.472-6.599c6.227-4.387,13.503-9.221,18.849-13.443C334.951,409.902,332.78,416.928,328.501,421.19z
	 M329.912,431.838c0.087,0.368-0.574,1.061-2.747,1.563c-1.979,0.458-4.303,0.14-8.732,2.389c-1.142,0.579-2.719,1.792-3.545,0.285
	c-0.591-1.075,0.151-1.904,0.974-2.45c2.708-1.798,7.967-2.445,8.92-2.565C326.222,430.879,329.733,431.084,329.912,431.838z
	 M279.261,387.583c0.17-4.783,0.661-8.91,4.483-13.771c1.314-1.671,3.407-2.787,4.285-1.861c0.556,0.586,0.523,1.578-1.842,4.016
	c-3.478,3.586-3.943,10.805-4.01,13.838c1.076-2.041,4.141-5.948,4.755-7.071c0.564-1.031,0.904-1.946,1.148-2.959
	c0.425-1.767,2.796-1.611,2.312,1.315c-0.494,2.989-0.48,4.224,1.111,8.319c3.737,9.621,7.488,11.68,14.824,17.213
	c-0.213-2.309-0.356-4.912-0.455-7.085c-0.2-4.371-0.917-11.622,0.304-15.755c0.842-2.852,3.171-6.646,5.31-2.7
	c1.185,2.185,2.621,5.109,3.924,7.084c1.648,2.498,4.794,4.098,8.142,7.752c0-2.843-0.325-5.926-0.334-8.912
	c-0.014-4.426,0.971-6.631,2.26-6.565c1.09,0.055,1.09,0.857,1.151,2.067c0.09,1.757-0.663,3.227-0.607,4.798
	c0.135,3.803,0.174,5.619,0.963,8.521c2.128,7.827-5.31,1.372-6.896,0c-3.85-3.333-7.372-5.65-10.508-11.906
	c-1.523,2.342-1.667,10.041-1.37,14.218c0.104,1.444,0.33,4.935,0.604,7.542c0.271,2.574,0.813,3.499,0.658,4.637
	c-0.137,1.004-0.991,1.028-3.328-0.47c-5.156-3.307-9.792-7.197-13.579-11.922c-2.708-3.38-4.849-9.307-5.315-12.104
	c-0.502,0.671-1.839,3.302-2.717,5.641c-0.996,2.65-1.621,4.891-3.724,2.845C279.71,393.233,279.159,390.44,279.261,387.583z
	 M298.794,420.309c-3.593,2.697-6.485,2.891-9.209,1.284c-2.119-1.249-4.434-3.359-6.177-5.603
	c-4.761-6.124-3.332-11.032-1.935-15.586c1.698,2.049,6.131,6.592,10.783,10.795c2.114,1.908,4.185,3.898,5.647,5.241
	C300.06,418.418,300.223,419.234,298.794,420.309z M287.465,443.443c-4.698-1.709-9.142-3.786-14.462-8.536
	c-3.429-3.063-3.496-3.823-2.897-4.283c0.633-0.487,2.398,0.606,4.861,2.865c6.753,6.199,18.955,10.682,32.057,10.683
	c8.742,0,20.527-4.75,28.465-7.334c1.245-0.406,4.971-1.495,5.503-0.627c0.602,0.979-0.51,1.525-2.883,2.738
	c-6.355,3.249-22.695,7.739-32.499,7.69C298.215,446.604,292.683,445.343,287.465,443.443z"/>
<path d="M340.351,516.566c-1.302,0-4.288-0.892-6.289-1.81c0.284,1.637,0.713,3.284,1.261,4.942
	c4.31,0.253,11.906,1.207,15.067-2.904c0.055-0.845,0.069-2.102-0.068-2.79c-0.436,0.231-1.064,0.429-1.852,0.469
	C346.53,515.474,342.768,516.566,340.351,516.566z"/>
</svg>
