<svg xmlns="http://www.w3.org/2000/svg" xmlns:xlink="http://www.w3.org/1999/xlink" id="Calque_1" data-name="Calque 1" viewBox="0 0 425.01 566"><defs><linearGradient id="linear-gradient" x1="300" x2="300" y1="704.89" y2="138.89" gradientUnits="userSpaceOnUse"><stop offset="0" stop-color="#d6b729"/><stop offset=".11" stop-color="#dbbf41"/><stop offset=".34" stop-color="#e7d27e"/><stop offset=".48" stop-color="#efe0a8"/><stop offset=".68" stop-color="#e4cf74"/><stop offset=".89" stop-color="#d9bd3e"/><stop offset="1" stop-color="#d5b629"/></linearGradient><linearGradient id="linear-gradient-2" x1="-21" x2="-8.91" y1="828.87" y2="828.87" gradientTransform="matrix(0 -20.44 -20.44 0 17245.79 247.29)" gradientUnits="userSpaceOnUse"><stop offset="0" stop-color="#df1f26"/><stop offset=".33" stop-color="#da1f26"/><stop offset=".72" stop-color="#cb2026"/><stop offset="1" stop-color="#bc2026"/></linearGradient><linearGradient xlink:href="#linear-gradient-2" id="linear-gradient-3" x1="207.87" x2="207.87" y1="245.79" y2="200.18"/><linearGradient xlink:href="#linear-gradient-2" id="linear-gradient-4" x1="252.08" x2="252.08" y1="245.79" y2="201.16"/><linearGradient xlink:href="#linear-gradient-2" id="linear-gradient-5" x1="297.99" x2="297.99" y1="245.79" y2="201.16"/><linearGradient xlink:href="#linear-gradient-2" id="linear-gradient-6" x1="342.18" x2="342.18" y1="244.86" y2="201.16"/><linearGradient xlink:href="#linear-gradient-2" id="linear-gradient-7" x1="388.18" x2="388.18" y1="245.79" y2="200.18"/><linearGradient xlink:href="#linear-gradient-2" id="linear-gradient-8" x1="281.42" x2="281.42" y1="193.22" y2="165.79"/><linearGradient xlink:href="#linear-gradient-2" id="linear-gradient-9" x1="300.54" x2="300.54" y1="193.83" y2="187.28"/><linearGradient xlink:href="#linear-gradient-2" id="linear-gradient-10" x1="320.54" x2="320.54" y1="193.83" y2="165.79"/><linearGradient xlink:href="#linear-gradient-2" id="linear-gradient-11" x1="339.62" x2="339.62" y1="193.83" y2="187.28"/><linearGradient id="linear-gradient-12" x1="300" x2="300" y1="636.12" y2="391.41" gradientUnits="userSpaceOnUse"><stop offset="0" stop-color="#efe0a8"/><stop offset=".37" stop-color="#e4cf74"/><stop offset=".79" stop-color="#d9bd3e"/><stop offset="1" stop-color="#d5b629"/></linearGradient><linearGradient xlink:href="#linear-gradient-2" id="linear-gradient-13" x1="261.59" x2="261.59" y1="509.82" y2="402.56"/><linearGradient xlink:href="#linear-gradient-2" id="linear-gradient-14" x1="259.68" x2="259.68" y1="509.82" y2="402.56"/><linearGradient xlink:href="#linear-gradient-2" id="linear-gradient-15" x1="340.32" x2="340.32" y1="509.82" y2="402.56"/><linearGradient xlink:href="#linear-gradient-2" id="linear-gradient-16" x1="338.41" x2="338.41" y1="509.82" y2="402.56"/><linearGradient xlink:href="#linear-gradient-2" id="linear-gradient-17" x1="300" x2="300" y1="612.43" y2="518.19"/><linearGradient xlink:href="#linear-gradient-2" id="linear-gradient-18" x1="300" x2="300" y1="612.45" y2="518.19"/><linearGradient xlink:href="#linear-gradient-2" id="linear-gradient-19" x1="300" x2="300" y1="612.44" y2="518.19"/><linearGradient xlink:href="#linear-gradient-2" id="linear-gradient-20" x1="300" x2="300" y1="612.45" y2="518.19"/><style>.cls-2{fill:#fff}.cls-13{fill:#d3b42b}.cls-14{fill:#c7a92f}.cls-15{fill:#b39e2f}.cls-16{fill:#cbae2d}.cls-17{fill:#988531}.cls-27{fill:#d4c528}</style></defs><title>ac_cuneo_1905 [Converted]</title><path d="M300 138.89c117.36 0 212.51 126.7 212.51 283s-95.15 283-212.51 283-212.51-126.7-212.51-283 95.15-283 212.51-283" style="fill:url(#linear-gradient)" transform="translate(-87.49 -138.89)"/><path d="M212.51 13.78C102.93 13.78 13.78 134.55 13.78 283h397.46c0-148.45-89.15-269.22-198.73-269.22" class="cls-2"/><path d="M300 691.11c109.58 0 198.73-120.77 198.73-269.22H101.27c0 148.45 89.15 269.22 198.73 269.22" style="fill:url(#linear-gradient-2)" transform="translate(-87.49 -138.89)"/><path d="M230.26 486.69c-10.12.11-16.56 11.86-16.59 20.86a27 27 0 0 0 4.39 14.34c2.81 4.25 7 7.47 12.2 7.47s9.4-3.22 12.22-7.47a26.9 26.9 0 0 0 4.4-14.34c-.03-9-6.48-20.75-16.62-20.86m-4.61 31.7v-21.52c0-3.35.65-5.09 1.41-5.92a4 4 0 0 1 3.2-1 4.1 4.1 0 0 1 3.24 1c.77.83 1.39 2.56 1.39 5.92v21.48c0 3.18-.52 5.18-1.3 6.28a3.67 3.67 0 0 1-3.33 1.51 3.76 3.76 0 0 1-3.31-1.45c-.78-1.05-1.31-3-1.31-6a3 3 0 0 1 .01-.3M164.4 486.61l-.9.08c-3.66.31-7.29.85-10.83.85h-5.88v3.47h5.88a2.13 2.13 0 0 1 1.18.25c.16.13.26.24.28.73v33h-7.34v3.46h24.72v-3.46h-7.09ZM204.35 490.65a15.94 15.94 0 0 0-10-4c-7.78 0-16.61 5.59-16.66 14.71 0 7.46 6.67 13.24 13.67 13.26a11.1 11.1 0 0 0 6.33-2.25c-1.16 5.72-2.35 7.72-4.87 9.82s-5.81 3.87-9.14 3.86h-1.35v3.33h.86a29 29 0 0 0 15.77-4.82c6.32-4.15 11.22-11.7 11.24-19.65 0-6.8-2.57-11.41-5.85-14.26m-14.25 19a6 6 0 0 1-.91-3.73v-10.38a6.7 6.7 0 0 1 1.12-3.91 3.38 3.38 0 0 1 2.8-1.53 6.34 6.34 0 0 1 4.2 1.16 3.81 3.81 0 0 1 1.2 3.07v12.78a4.93 4.93 0 0 1-1.72 2.1 6.4 6.4 0 0 1-3.62 1.56 3.56 3.56 0 0 1-3.07-1.17ZM275.22 505.86a20.94 20.94 0 0 0-10.71-2.88 24 24 0 0 0-7.73 1.33l.15-8.17h13.91c2.48 0 4.36-.68 5.43-2.34s1.31-3.87 1.32-6.94v-2h-3.08l-.05.78a6.5 6.5 0 0 1-.16 1.2c-.13.37-.08.25-.2.32a5.1 5.1 0 0 1-1.45.1h-14.84a3.63 3.63 0 0 0-3.34 1.36 6.63 6.63 0 0 0-.66 3.44l-.3 12.34v1.27a3.8 3.8 0 0 0 .25 1.56 1.72 1.72 0 0 0 1.61 1 4 4 0 0 0 .46 0 31.5 31.5 0 0 1 5.62-.94c2.59 0 4.36.78 5.6 2.36s2 4.14 2 7.79c0 2.7-.41 5-1.42 6.51s-2.59 2.42-5.49 2.44a7.6 7.6 0 0 1-3.57-.77 3 3 0 0 1-.66-.45l1-.94a4.35 4.35 0 0 0 1.85-3.79 5.52 5.52 0 0 0-1.32-3.69 4.72 4.72 0 0 0-3.62-1.55c-2.52 0-5.44 1.64-5.47 4.82a8.36 8.36 0 0 0 3.41 6.72 14.12 14.12 0 0 0 8.69 2.61 24.6 24.6 0 0 0 12.26-3 12.16 12.16 0 0 0 6.24-10.92 11 11 0 0 0-5.73-9.57" class="cls-2"/><path d="M190 222.59c0 13.08 9.53 23.2 20.83 23.2a18 18 0 0 0 10.17-3.38l2.48 2.48h2.26v-13h-2.17c-2 6.65-5.65 12-12.89 12-8.13 0-8.24-4.77-8.24-21.32 0-18.46 2-20.44 8-20.44 7 0 10.2 5.06 12.58 11.2h1.87v-12.17h-2.17l-2.18 2.49a15.58 15.58 0 0 0-10.32-3.47c-11.6 0-20.13 14.26-20.13 22.41" style="fill:url(#linear-gradient-3)" transform="translate(-87.49 -138.89)"/><path d="M260 201.16V203h2.87a2.58 2.58 0 0 1 2.88 2.48v22c0 5.35 0 10.41-1.38 12a10.94 10.94 0 0 1-9.24 4.36c-7.13-.11-8.62-3.08-8.62-9.14V203h5.34v-1.88h-21.12V203h5v28.47c0 10.63 5.66 14.28 16.06 14.28 7.36 0 11-1.48 13.3-4.17 2.27-2.48 2.48-5.85 2.48-9.23v-26.83c0-1.28.59-2.48 2-2.48h3.86v-1.88Z" style="fill:url(#linear-gradient-4)" transform="translate(-87.49 -138.89)"/><path d="M305.58 201.16V203h1.78c1.58 0 4.27.61 4.27 2v22l-17.85-25.88h-16.84V203H279c3.86 0 3.28.91 3.28 4.07v32.33c0 1.89-.11 3.28-2.29 3.48h-3.05v2h14v-2h-3.57c-1.58-.2-2.47-.78-2.47-2.49v-33.47l27.1 38.87h1.48V205c0-1.39 1-2 2.9-2H319v-1.88Z" style="fill:url(#linear-gradient-5)" transform="translate(-87.49 -138.89)"/><path d="M324.13 201.16V203h4.45v39.88h-5.05v1.94h37l.32-14.34h-2c-1.68 7.63-3.46 12.4-13.27 12.4h-6.27v-19.2c6.27 0 7.95 2.07 8.84 8.34h2.08v-18.57h-2.08c-1.3 6-2.57 7.94-8.84 7.94V203h6c6.35 0 9.22 2.48 11.9 9.83h2.08l-.4-11.71Z" style="fill:url(#linear-gradient-6)" transform="translate(-87.49 -138.89)"/><path d="M379 227.64v-11c0-11.89 2.18-14.48 9.23-14.48s9.21 2.59 9.21 14.48v11c0 13.59-.58 16.27-9.21 16.27s-9.23-2.68-9.23-16.27m-12.59-6.06v2.06c.52 12.39 9.66 22.15 21.82 22.15 11.9 0 21.07-9.52 21.77-21.7v-3c-.85-13.91-13.72-21-21.77-21s-21.21 7.19-21.82 21.4" style="fill:url(#linear-gradient-7)" transform="translate(-87.49 -138.89)"/><path d="m279 174.68 3.37 9.82h-6.97Zm1.77-8.89-9.21 25.06c-.39 1.18-2.06 1.18-3 1.18v1.19h8.1V192l-3.57-.69a17 17 0 0 1 .8-2.68l1.08-3h7.94L285 192h-3.08v1.19h12.4V192h-2.28l-9.69-26.24Z" style="fill:url(#linear-gradient-8)" transform="translate(-87.49 -138.89)"/><path d="M297.32 190.56a3.22 3.22 0 0 0 6.44.25v-.51a3.38 3.38 0 0 0-3.26-3 3.28 3.28 0 0 0-3.18 3.28" style="fill:url(#linear-gradient-9)" transform="translate(-87.49 -138.89)"/><path d="M321.15 165.79c-6.34.64-11.09 8.1-11.59 12.94v2c.55 7.45 6.25 13.11 12.75 13.11a11.1 11.1 0 0 0 6.25-2.08l1.58 1.47h1.37v-7.93h-1.37c-1.18 4.07-3.46 7.34-7.93 7.34-5 0-5-2.87-5-13.09 0-11.31 1.2-12.59 4.86-12.59 4.27 0 6.25 3.18 7.74 6.93h1.09v-7.54h-1.29l-1.39 1.6a9.8 9.8 0 0 0-5.27-2.15Z" style="fill:url(#linear-gradient-10)" transform="translate(-87.49 -138.89)"/><path d="M336.4 190.56a3.28 3.28 0 0 0 3.16 3.27 3.24 3.24 0 0 0 3.28-3.27 3.22 3.22 0 1 0-6.44 0" style="fill:url(#linear-gradient-11)" transform="translate(-87.49 -138.89)"/><path d="M320.78 152.03h-.22s-7.25.9-14.54 2c-3.65.56-7.3 1.16-10.06 1.73-1.38.29-2.54.56-3.38.82s-1.2.37-1.44.74c-.88.31-7.49 2.68-14.12 5.27-3.56 1.4-7.13 2.85-9.83 4.1-1.35.62-2.47 1.19-3.28 1.67s-1.32.81-1.42 1.35a2 2 0 0 0 0 .23v-.07l-.11-.44-17.87 13.09-13.24 13.95-4.49 5.5.49.09 13.48 2.5 15.29-15.38 12.47-12.07 9.41-7.54 8.31-4.52 15.28-4.32 10.78-3.1 7.17-2.95 1.88-1.42Z" class="cls-13"/><path d="M363.42 156.81c-.17 2.49-3 2.69-4.54 4-3.62 2.33-8 1.3-12 2l-.41 2.63a42.1 42.1 0 0 1-18.47 3.67l-.17 3.31c-3.1 2.75-7.06 1.5-10.7 1.92-.35 3.39-4 2.05-5.75 3.76-3.71 1.16-7.75.84-11.76.41-.78 1.22-.57 3-2.21 3.68-1.11.16-2.35-.47-3.32.42v2c-1.41 2.24-4.41.3-6.37 1.33 1.68 1.11.9 3.17.31 4.36-1.89 2.64-4-.7-6.23.34.58 2.06 3.47 3.78 1.64 6-1.74.79-4.27 0-6-.66-1.8.46.37 1.48-.07 2.32-.1 1.51-1.26 1.74-2.3 2.32l-3.61.06a7.4 7.4 0 0 1-.72 4.57 4.13 4.13 0 0 1-4 .7c-1.12 1.41-1.89 3.89.31 4.38 4.37 2.76 5.88 8.67 10.27 11.39.89 1.58 2.62 2.93 2.51 4.77.49 3.33-3.26 2.82-4.87 4.22l-.9-.48c-2 2.64-5.57 1.33-8.43 2-4.08.2-7 2.53-11 3.56-3.84 2.38-7.9 3.86-12.48 3-3.22 3.74-4.48 9.3-9.79 11.08-.42 2-.31 4.55-2.74 5l1.31 2.2c4.58.14 9.13 1.91 11.72 6.23-.31 2 1.65 5-1.3 6.15.8-2.88-1.92-3.47-3.05-5.51-.54 1.5 1.4 3.57-.18 5.31l-1.77 1.05.53-1.25a10.7 10.7 0 0 0-2-4c-.54 1.43.12 4.47-1.84 5.4l-.9-.13c.86-1.55-.59-3.31-.9-4.85-1.25.78-.71 2.71-2.43 3.28.4-2.63-2.85-4.4-3.19-6.9-1.6-.26-2.23 1.74-4 .39l-.39.28c-1.12-1.36.62-3.44-.53-4.8l-1.89-.64-1-1.5c-1.06.95-1.21 2.5-2.5 3.26-1.06-.4-2.32-1-2.53-2.41.52-1.17-.17-2.11-.5-3.09-1.17.17-2.45 2.1-3.89 2.05l-.91-.48c-.46-2.35-2.36 1.19-3.07-1.18l-2.41 2.94-1.85-.62-.59-.43-.3 1.95c-.12 1.34-2.11 2.78-.28 4a4.56 4.56 0 0 1 2.7 1.42l.71-.22.25.38c-.65 1 1.05 2.55-.25 3.63l-.25-.37c-1.13.93.23 3.25-1 4.53l-2-2.31c-.83 1.26 0 2.93-1.84 3.68-1-1.08-.89-3.29-2.25-4.35-.67 1.57 1.53 4-.54 5.56a16.6 16.6 0 0 1-4.17-4.65c-1.13-1.13-2.59-.19-3.84-.31-1.42.69-1.76 3-3.61 2.42l-1.11 1.13-1-2.19c-2.09 1.6-4.87 4.31-7.77 2.06l-.41-1.74-2.35.64a2.58 2.58 0 0 1-2.4-1.41c-1.62.53-3.6.86-5.18-.14-1.25-.39-.62-1.7-.92-2.52-.5-1.49-2.85 1.21-3.73-.94-1.7-1.34.12-3.46-.53-5.1-1.69.45-3.79.82-5.48-.2-1.15-.18-1.47-1.58-2.26-2.41.07-1.57 1.56-2.71 1.28-4.12-1.36.86-3.13 1.83-4.61.61l-.3-2.42c4.67-7.51 13.43-10.68 21.45-10.54 1.59-.06 1.34-1.77 2-2.69 3.29-3.73 5.94-7.81 9.83-11.12l.46-2.91c-1.34-1.23-2.52 1.68-4.24.28-1.73-.5.25-3.7-2.25-2.35l-3-1.52c-1.13-1.15-3.31-1.09-3.75-2.92.53-3.26-4.58-1-4.2-4.36l.36-2.31a9.06 9.06 0 0 1-5.79-.56c-1.43-.67-1.34-1.9-1.44-3.27-2-.65-4 .28-5.74-.93-.34-1.22-1.48-2.33-1.7-3.63-2.39-.24-6.07.36-7.47-2.23l.2-3.31c-2.29-.94-6.31-.74-6.15-4.35.1-1.8 1.86-2.71 2.3-4.33-2-1.06-5.17-.44-5.69-3.23-.09-1.19 1.12-2 .74-2.9-5.15-.23-10.8-1-14.19-5 .05-1.35 1-2 2.06-2.68-2.84-1.15-5.89.2-9.06-.51-5.15-.23-10.81-1-14.18-5-.23-2.54 3.29-2.9 3-4.83-4.57.3-10.8-1-14.62-2.07a46 46 0 0 1-16-3.63c-.62-1.36-2.42-2.21-2.31-4.05-6.87 1.63-15.73 3.9-21-2.78 2.7-5 8.71-5.07 13.38-6.5 13.5-.4 26.5-2.92 40.92.3 5.55-1 12.39 3.28 17.52.22 16.24 1.52 31.86 5.09 46 11.8 8.78 3 17.36 7.19 24.36 12.71a25.7 25.7 0 0 1 6.59 8.08c.44 3.55 2.23 6.72 2.29 10.4 1.12 5.1 3.88 9.82 5.89 14.66a89.2 89.2 0 0 1 23.75-2.17 306 306 0 0 1 22.07-23.12c-6.78 6.41-12.56 13.51-19.34 19.93l-1.72 2.73.55.75a58.2 58.2 0 0 1 12.41 2c6.89-4.45 10.28-12.12 17.16-16.57 4.35-5.07 9.59-9.5 14.8-14l.1-.65.31.38c9-8.05 19.34-10.65 29.67-13.23 2.39-1.52 5.3-1.23 7.82-2.4a61 61 0 0 0 10.78-4.6l-.53-.74c-10.29 1.48-20.82 2.27-30.76 5.67a126.9 126.9 0 0 0-37.63 18.3 110.5 110.5 0 0 1 36.92-18.1c6.61-3.92 14.35-2.78 21.29-5.2 4.64-1.12 9.86-.08 14.28-2.06 4.61-.3 9-1.78 13.87-1.08 8.31.8 19.29-.61 25 6.76"/><path d="M356.85 152.73c2 1.66 4.91 2.47 5.75 5-4.83 3.53-10.19 5.17-16.2 4.05l-.27-.4c-8.31.07-16.83-1.51-25.14-1.41l-.26-.38-9.15.19c3.76 1.28 7.8.1 11.91.92 5.5 1.08 10.55.32 16.08 1.28l5.44.23 1.34 1.89c-7.46 4.73-16.47 5.26-25.86 3.13-3.05-.74-6.61-.66-9.92-.93-8.56 1.36-17.47 1.07-26.07 2.45 0 2.33 1.61 0 2.56.4 12.12.41 23.66-3.94 36.15-.46 1.06-.43 2.33.15 3.53.26l.9 2.47c-7.94 6.32-18.22-2.37-27 .28-5.83.91-11.81 1-17.36 2.86-1.48-.48-3.07-1.4-4.35-1.38 1.36 1.57 4.21 1.71 4.66 3.78-3 2.18-7.44-1.12-10.24.67 1.88 1.56 5.46 2.11 5 5.5-2.33 1.51-5.52-.47-8.12 0 1.12 2.09 5.08 2.74 4.57 6.1-3.94.95-7.93-1.53-11.77-1.59.54 1.67 2.95 1.4 4.13 2.67l2 2c-2.92 1.14-7.15.08-9.89-1.25l-.73.52c1.53 3.42 6.74 2.13 6.79 6.47-2.35 1.78-4.41-.73-6.6-1.4-1.28-1.06-2.67-2.71-4.57-2.09 1.11 2.78 5.44 3.49 5.09 7.17-2.65 2-6.28 0-9-.81l-2.62-1.72 2.27-2c2.52.28 3.61 3.81 5.92 3.66l-4.86-4.46c1.58-2.68 4.79-4.75 6.61-6.95 2.31.88 5 1 6.72 2.76l.77-.57c-1.89-1.6-4.54-2-6.7-3.08 4.08-5.34 9.06-10.81 15.2-14.26 2.4.69 4.92 1.73 7.2 1.87-1.63-1.89-4.63-1.53-6.76-2.77 4-4.14 9.31-4.94 13.7-8.49.91.46 1.56-1.15 2.23 0 14.46 1.77 27.54-2.27 42.2.51l.45-.55-.92-.49c-12.89-2.19-24.51 1.26-37.33-.42-1.21.46-2.7-.34-3.89 0 4.71-1.23 9.35-2.59 14.15-3.39 2.49.33 4.83-.22 7.22-.48l-.25-.37h-5.85c4.58-1.82 9.61-2.21 14.06-4.74 8.7.49 17.3.58 26.09 1.6l-.53-.78c-8.52-1.21-15.53-1.08-23.82-1.51 7.56-4.19 16.24-3.21 24.65-3.69Z" class="cls-14"/><path d="M315.96 175.52c-5.54 2.85-11.78 3.17-18.23 2.36l-2.22-.36c-3.21.32-6.89-1.45-10-.6l1.51.89c3.62.36 7.49.29 10.88 1.14v2c-1.87 1.61-4.44-.2-6.54.29-3.48-1.17-6.7-1.38-10.13-2 .8 1.78 3.28 1.66 4.86 2.48l.36-.28.27.38 1.63-.08c1.59.79 3.52.36 4.9 1.84.28 1.53-1.35 1.44-2.2 1.63-3.15-.52-6.73-1.08-9.49-1.54 1.09 1.94 4.35 1.31 5.68 3.25l-.2 3.31c-2.62.69-5.62-1.67-8.57-1 .09 1.28 1.84 1.88 2.79 2.79.52 1.33 2.54 2.27 1.65 3.93-1.66.86-4.07.09-5.76-.6-2-1-3.59-3.42-6.05-3 .35 1.5 1.89 1 2.64 1.78 1.35 1.29 2.7 3.12 2.48 5.08-1.67 1.63-4.29.71-6.18 0-2.79-1.19-4.32-4.46-7.27-5.51v-.32c1.56.41 4.85 1.36 6.86.1l.79-1.22-2.25-2.35c3.06-.11 5.75 2.38 7.87-.39.62-1.91-1.06-3.52-2.19-4.73 1.92-.24 4.29.9 5.77-1.39.46-2.1-1.83-3.95-2.77-5.14l2.25.05 3.53.24 2.14-1.32c-.77-1.14.67-1.75 1.06-2.52a100.2 100.2 0 0 1 25.3-1.86l4.93 1.78Z" class="cls-15"/><path d="m176.88 164.56 8.67 5.08c-.13 2.25 3.95 1.58 2.87 4.47a42.6 42.6 0 0 1-5.18 12.53c-3-4.71-4-11.94-10.21-14-6.35-4.28-12.6-9.38-20.5-10.36.89 1.55 3.33.46 4.23 2a24.7 24.7 0 0 1-6.3 3c-3.87-.4-9.19-.16-11.12-3.81.9-1.72 3-2.63 4.49-4l-1.52-.58-.36.28.26.36c-4 4.23-10.48 3.17-15.45 1.15l-1.38-1.52c.62-2 2.85-1.81 4.28-2.65l4.66 1.42c-1 .16-2.19 1.64-3.51 1.75l.51.77c2.42-.72 4.68-2.26 7.24-2.49-2.12-1.18-5.28-.54-7.16-2.18l-2.55-.43c-5-2-9.91-4.21-14.09-7.62 1.43.14 2.58-.92 4-.71 22.11 1.29 39.89 9.86 58.13 17.51" class="cls-14"/><path d="m120.45 153.01-1.32.16-.26-.43c-13.46-.83-27.25-3.19-40.45-3.25-.94-1.22-2.85 0-4.26 0a78.5 78.5 0 0 0-15.48 1.48l.2.72c14.62-1.37 29.73-1.61 44.79.62 1.45 0 2.18 1.1 3.54.19 5.23.3 9.94 1.41 15 2.13 1.86-1.61 3.53 1.32 5.67 1.24-1.34.82-3.36 1.49-3.79 3.43l-.6-.42c-6.93.13-13.6-1.8-20.37-2.66-1.34.79-2.08-.87-3.51-.59-4.94 0-9.2-1.83-14.09-1.27-8.73-.44-17.54-1.37-25.34 1.87-4.81 1.58-9.78-1.42-13-4.12.68-2.22 3.31-2.9 5.11-3.54 19.8-4.53 41.28-3.21 62.65.54Z" class="cls-15"/><path d="M168.78 170.58c-5.14 2.28-12.87 3.52-17.33-1.15.37-2.17 3.12-1.82 4.64-2.92 1.54-3 4.11-1.23 5.87-.06 2.4 1.19 4.55 2.83 6.82 4.13" class="cls-14"/><path d="M122.31 159.99c1.39 1.58 3.53.34 4.87 2.14l1.55.58c-10.73.35-22.41-3.55-33.24-3.74-5.1-.73-11.37-2.28-16.13-.95l.25.4c4.82-.46 9.16 1.82 14.07 1.6 3.13.78 6.8.7 10.29 1 5.44.9 11 1.79 16.45 2.69 5.61-.12 11.48.52 16.94-.27l.77-.52.91 2.48c-6.49.84-14.22-.56-21.36-.8-2.46-.16-5.21.05-7.37-.54-6.92.64-14.33 1.24-21.63-1.21a8.9 8.9 0 0 1-5.07-.82c-5.38-.79-12.38-.26-15.77-5.23 3.09-2.69 8.12-1.46 12.27-1.66a86.6 86.6 0 0 1 22.4 2.64c6.66.76 13.57 1.56 19.84 2.21" class="cls-15"/><path d="M198.66 198.21c3.38 8.3 10.06 17.2 18.82 19.46-1.51 1.33-3.13-.18-5 .86-14.85-.29-22.39-16.18-28.95-27.48.07-6.08 5.79-10.54 5.93-17.42 6.69 6.75 5.44 16.58 9.22 24.58" class="cls-14"/><path d="M150.31 168.28a4.2 4.2 0 0 0 1.69 3.61c-5.23-1.77-9.45 6-14.42.63-1.64-1.85-5.24-1.61-5.82-4.3 5.7-4.24 12.33.85 18.55.06" class="cls-13"/><path d="m175.59 177.03 1.49.94-.05.33c-4.67.48-11.46 3.78-15-1.81l-.39-1.73c2.43-2 5.5-1.53 8-3.34 2.52.87 4.55 3.29 5.94 5.61" class="cls-14"/><path d="m132.35 166.65-1.94 2c-6.31.23-12.89-.7-19 .58a19.5 19.5 0 0 0-7.6.76l.82 1.17c8.15-1.7 16.9-1 25.25-1.6a36.4 36.4 0 0 1 5.72 3l-.7.51-.26-.36c-11.2 1.42-23.46 3.42-35-1-1.57-.27-.21-2.41-1.9-2.35 2.54-5.59 8.8-2.79 13.25-3.84 4.31-.41 9 .86 13.3.49.87.38 2.36 0 3.58-.1Z" class="cls-15"/><path d="m159.26 173.39 1.59.27.13 3.37 1.64 1.92c-4.83-1.8-9.1 3.67-13.31-.16-2 .28-3.83-1.46-5.44-2.56.12-3 3.33-2.14 5-3.17 1.43-.19 3 .07 4.32-.64 1.77.61 4.44 1.46 6.05 1" class="cls-13"/><path d="M178.51 179.18c.33 2.24 3.06 3.85 3 6.21-3.94.6-10 .44-12.95-2.81l1.27-1.8c3-.25 5.78-1.15 8.69-1.6" class="cls-14"/><path d="m142.39 175.35.18 1c-2.61.51-5.48 0-8.15 0a23.1 23.1 0 0 0-6.73 1.59l.24.38c5.51-.23 10.63-1.51 16.38-.68l2.63 1.78c-9 .95-20 6.82-28.12-1.23.35-1.49 1.56-2.35 2.81-3.27 5.26-.43 10.54-.94 15.81-1.42Z" class="cls-15"/><path d="M167.51 183.11a9 9 0 0 0 4.47 2.72c-2.64 1.33-6.18 1.41-9.21 2.51-3.69-1.25-8.15-1.15-11.11-3.81l.31-2c4.3-4.22 10.43-2.71 15.58-1.82Z" class="cls-13"/><path d="M270.67 201.58c-.33 1.61-.28 3.81-2.23 4-3.48 0-4.4-4.2-6.93-5.78 1.55-.36 4 .29 5.12-1.53a13.9 13.9 0 0 1 4 3.35M151.83 181.51c-2.33.75-.25 4.84-3.52 3.8-4 1.95-8.61 1.71-12.79 2.94a3.89 3.89 0 0 1-3.26-2.21c.24-3.71 4.77-2.8 7.15-4.17 4.09-.17 8.64-3.38 12.42-.36" class="cls-15"/><path d="M182.51 191.22c.36 1.07 1.21 2.05 1.14 3.2-2.4 1.18-5.34 1.74-7.89.4-1.26-1-3.23-1.55-3.38-3.25l-.36-2.06c3-2.35 6.43-2.72 9.92-3.08.67 1.47.41 3.18.57 4.79" class="cls-14"/><path d="M264.44 208.24c-4.38-.52-7.23-3.74-11.3-4.83 2.25-.33 6.07 1.32 7.45-1.79l-.4-1.75c.91 3.2 7.46 4.38 4.25 8.37" class="cls-15"/><path d="M175.73 186.77c-1.77 1-4.08 1.2-5.37 3.16 0 2 1.36 3 2.58 4.42-4.42 2.85-9.72 1.53-14.23-.65-1.93-.64.09-2 .15-3l2.16-1.32c4.18-1.07 8.8-1.21 12.56-3.3z" class="cls-13"/><path d="m253.51 205.16.43 1.36c-2 1-4.62-.56-6.8-.08a15.9 15.9 0 0 0-4.56-2.09l3.57-4.11a14.4 14.4 0 0 1 7.36 4.92" class="cls-15"/><path d="M181.4 190.11c-1.52.59-3.5 1.64-5 .86l-.66.2a26 26 0 0 0 5.66-1.06" class="cls-14"/><path d="M159.82 188.87a7.1 7.1 0 0 0-2.75 2.89l-15.43 5.2a6.45 6.45 0 0 1-6.09-2.68c-.28-2.21 1.89-3.72 2.8-5.57 5.67.09 11.41-4.83 16.82-1.27 1.76 0 3.1.95 4.65 1.43M259.9 208.18c-2.07 3-5.78 1.15-8.5.29l-.59-.43c1.23-.39 3.17.44 4.37-.94l.21-1.32Z" class="cls-15"/><path d="M185.37 198.04c2.58 3.87 4.76 7.79 7.65 11.6-3.81 3.06-9.74 2-13.6-.2.69-2.41 2.37-4.86 4.74-5.57 1.31-.15 2.89-.34 3.79-1.42-1.53-1.53-3.06.45-4.67.59-2.61-.24-5-.91-6.69-2.76 1-3.5 4.91-3.51 7.54-4.76Z" class="cls-14"/><path d="M241.84 205.25c1.47 1.31 3.4 2.64 5.48 2.24a65 65 0 0 0 10.75 4.08 6.35 6.35 0 0 1 5.47-1.82 16.87 16.87 0 0 1 8.93 7.82l-1.81 1.07c.48 1.55 2-.72 2.8.76a6.6 6.6 0 0 0-2.81 5.59c-1 .26-2.67.5-2.88 1.84l.82.85c-2.66 2.07-5.3-.45-8.24.65-4.63.32-8.52-.83-13.23-.48l.47 1a72 72 0 0 0 7.4.58c-5.91 1.54-10.24 10.54-17.3 6.88l-.36.27c.19-1.23 3.1.4 1.89-1.71l-1.32.13 1.82-1.38-.1-1.35c-2.56-.43-4.29 2.07-6.94.85 3.07.46 4.9-1.41 7.76-2.08l-.11-1.31c-2 .66-3.8 2.36-6.11 1.64l-1.1.86-.25-.37c1.24-.21 1.76-2.09 3.18-1.86l.83-1.21-1.93.06-5-1.19a16.5 16.5 0 0 0 7.38-1.45c-1.56-1-3.35.61-5.2.13l-2.67.26-.09.64-1.2-.85c.14-1.5 1.58-1.74 2.66-2.26l.88.47.26-1.64c-1.87.08-3.76-.19-5.58.45-1.4-1.48-4.22-.78-5.47-2.57-.45-2.39 4.27-2.32 1.66-4.41-1.81.63-2.11-2.06-3.79-1-2.09-1.58-7.25-1.07-6.39-4.7 1.1-1.4 2.7-.58 3.82-1.7-1.52-1.5-3 .4-4.8-.45-1.6-.18-3.2-.44-3.9-2 .66-1.66 2.8-1.46 4.23-2.34l1.4 1.59c.84-.8-1.16-2.49 1-2.18 2.61-1.33 6-1.1 9.26-.86a85.5 85.5 0 0 1 16 1.63ZM178.45 196.6c-1.05.89-3.2 1.78-2.88 3.84l1.06 1.52c-2.75 1.42-6.24 3.06-9.6 1.13-1.58-.34-.61-2.29-.17-3a12.83 12.83 0 0 1 7-5.23c1.54.58 3.07 1.2 4.59 1.78" class="cls-13"/><path d="M160.76 195.38c-6.24 1.63-12.22 11.39-19.41 5.52a4.83 4.83 0 0 1 3.94-4.37c3.51-1.71 7.26-2.4 11-3.56 1.5.8 2.75 2 4.51 2.41" class="cls-15"/><path d="M167.63 197.11c-1.49 5-7.65 6.89-11.22 9.55-1.73 1.21-4.35.38-6.14-.34a2.84 2.84 0 0 1-.8-3.1c5.82-3.08 11.17-9.75 18.16-6.11" class="cls-15"/><path d="M208.51 204.11c-1.2.42-2.56 1.36-2.41 3a5.1 5.1 0 0 0 3.18 2.55l1.9.31-1 2.17a19 19 0 0 1-6.77-6.79 8.93 8.93 0 0 1 5.1-1.24M181.56 203.78c-1.3 1.7-2.29 3.91-4 5-.69-1.68-1.51.36-2.58-.08-2-.33-4.43.8-6-1 2.4-2.95 5.64-3.5 8.94-5.24 1.23.48 2.24 1.3 3.69 1.3" class="cls-13"/><path d="M165.96 203.89c-1.57 1.09-3.59 1.6-4.75 3.26l.92.48c2.23-1.31 4.42-4.39 6.94-2.86l.92.15c-1.76 3.29-5.9 5.77-9.44 6.45a6 6 0 0 1-3.94-1.61l-.07-2 8.31-5.34Z" class="cls-15"/><path d="M188.78 213.97c1.5.95 3.17-.55 4.71-.9l2.71-.91 1.08 1.52c-3.27 1.57-6.86 3.76-10.85 2.93l.74-2.57c2.14-2.07 4.84-1.87 7.23-2.82Z" class="cls-14"/><path d="m180.09 211.21-4 3.07-5-1.19a4.11 4.11 0 0 1 2.71-2.92c2.08.34 5.11-2.09 6.34 1" class="cls-13"/><path d="M171.8 210.23c-1.25.79-2.29 1.72-2.15 3.31-1.87 1.1-3.38 3.54-5.82 2.09l.26-4c1.57-.57 3.56-4.1 5.2-2.17l2.51.78M275.44 227.44l-.12 1c-1-1.75-2.57-.14-4.07-1l-1.81-.95c1.63-.47 3.62-.85 5.2.15l.8.83" class="cls-15"/><path d="M184.13 212.57c-1.33.7-2.56 1.35-3.87 2 1.09 1.61 2.82-1 4.34-1l2.43-.9c-2.23 4.29-7.38 3.39-11.13 4.5l.63-1.91c1.46.1.91-1.66 2.28-1.94 1.47-1.33 3.57-2 5.32-.8" class="cls-13"/><path d="M199.93 215.47c-.76 1.21-2.39.63-3.47 1.42 1.94 2.09 4.59-2.41 6.76.47l.62.08a9.82 9.82 0 0 1-7.22.51l-1.55-.58c.81-1.31 2.38-1.66 3.59-2.12l-.51-.72Z" class="cls-14"/><path d="M217.59 221.03c.38 1.37 2.05.49 2.72 1.43l3 1.81c-2.8.41-7.87-1.07-10.17-3.65a23.4 23.4 0 0 1 5.16-1.84c-.08.59 1.13 2.36-.67 2.25" class="cls-15"/><path d="M194.59 218.59c-2.57 1.53-5.56 2.39-8.34 1.34l1.93-2c1.91-.38 3.87-.48 5.73-1.45Z" class="cls-13"/><path d="m212.6 219.85-.53 1.26 1.39 1.57c-4 .41-7.95-.22-10.89-3.12l1.77-1.05ZM266.51 230.68l-.16.95c-7.62.62-14.27 5.61-21.85 6.8l-.57-.41c4-3.78 9.2-5.52 13.31-8.52 3.1.91 5.44-1.21 8.53-.3zM171.03 215.11l-1.83 1.37 1.23.53c1.71-.57 2.5-3.64 4.46-1.65-1.17 2.28-4 2.78-5.56 4.49-.78-.55-2.24-.75-2.28-2.05 0-2 2.49-2.88 3.85-3.74l.13 1" class="cls-15"/><path d="M186.24 217.92c-2 2.74-6.29 2.74-9.4 1.82 1.72-2.64 5.07-2.7 7.66-3.45zM193.71 217.8a13.8 13.8 0 0 1-4.44 1.6c.48-1.18 2.35-1.2 3.52-1.75Z" class="cls-13"/><path d="m204.04 222.5-1.57-.25c-.55-1.21-2.45-1.16-3.64-1.63-1.39-.12-2.93-.7-4.19-.34 1.66 1.18 3.91 1.54 5.84 2.28l1.27.21c-2.76.3-5.52-.81-7.84-1.91l.83-1.23c2.22 0 4.51.32 6.54-.27ZM211.38 221.32l-3.75-.93 3.47.57z" class="cls-15"/><path d="M185.23 218.11c-1.22 1.48-3.48.28-5.07 1.18 1.26-.85 3.42-.51 5.07-1.18" class="cls-13"/><path d="M219.65 224.73c1.13 1.13 2.45-.13 3.78.6-1.78 1-5.41.29-5.35 3.13l.27.36c-2.89.88-4.09-2.49-6.72-2.76l-1.39-1.59c3-1.91 6.27.15 9.41.26" class="cls-15"/><path d="M222.42 227.8c2.47 2.41 5.47-.34 7.72 2.62l1.29.22c-.59 1.48-2.2 1-3.38.78-3-1.1-6.7-1-8.9-3.43 1.91-1.33 4.54-1.56 6.84-2.25l.65 2.11ZM175.98 218.9l-2 .07-1.13 1.1c.39 1.59 1.62.27 2.51.41l.05-.31.31.06c-.22 1.11-1.66 1.9-2.62 2.26-.79-.74-2.58-.51-2.3-2.06 1.67-1.06 3.17-2.91 5.22-2.17Z" class="cls-15"/><path d="m193.71 222.17 1.86.62c-1 .77-2.92.46-4.37.63l-1.21-.56a3.61 3.61 0 0 0 3.32-.44c-1-1.69-2.77-.45-4.08-.67l-.81.85h-.32c.7-1.9 2.65-.73 3.84-1.71 1.36-.39.71 1.13 1.77 1.32" class="cls-14"/><path d="M214.71 229.25c-4.15-.44-10-1.53-12.13-5.64 1.75-.84 4.35-.09 6.08.61 1.66 2.32 3.93 3.53 6.05 5" class="cls-15"/><path d="m186.35 221.29.36-.27.62.44-.56 1.24 1.44 1.23c-2.82.37-5.21 2.66-8.13 2.33 1.59-1.55 4.18-1.32 6-3-.92-1.32-2.77.05-4 .7l-.41.25c.29-.61 1.41-1.24.3-1.95-2.1.41-4 3.34-6.14 2a13.8 13.8 0 0 0 2.88-1.9l-.54-.72-2.18 1.63.25-1.63c1.64-.65 3.53-.35 5.27-.5 1.61 0 3.55-1.84 4.85.15" class="cls-13"/><path d="M201.98 225.5c-1.5-.33-4-.42-5.69-1.24l2-.37.52.77 1.63-.09-.21-.69-.67-.11c1.45.43 2.05-.07 2.72 1.47ZM200.23 226.2c-3.84-.27-7.77.92-11.56-.86 1.52-1.41 3.68-.24 5.36-1.13 2.11.67 3.75 2 6.2 2M209.18 229.33c-4.71-.07-9.95 1.25-14.88-.38 2.66-2.07 6.12-1.28 9.12-2.23a37 37 0 0 0 5.76 2.61" class="cls-14"/><path d="M226.32 232.11c-3.6.52-7.85 1.22-11.24-.81.11-2.49 2.47 0 3.46-1.42 3.09-.21 4.89 1.94 7.78 2.23" class="cls-13"/><path d="M194.51 227.32c-1.18.54-2.05 2.73-3.93 2l-.72.57-.91-.51c-1.57 1.36-3.54 2.43-4.81 3.9l.26.36 4.7-2.9c-2.64 2.18-4.37 5.46-8 5.38-.84-3.29 3.58-3.59 5.34-5.12l3.33-2.47-2.7.53-4 2.71-.27-.38c-1.3 1.46-3.4 1.86-5.21 2.17-.68-1.37.58-2.31.87-3.54 1.39-3.8 5.54-2.85 8.21-4.68 2.16 2.1 4.93 1.73 7.83 2M228.16 232.8c-.79.75-2.11 1.14-2.3 2.26-1.24.23-2.84-.05-3.72.74 1.46.75 3.91-.42 5.1.83 1.53.68 2.47.17 4.11.68a18.6 18.6 0 0 1-13.66-1.9c2.78-2.28 6.78-1.74 10.15-2.67Z" class="cls-15"/><path d="M230.37 233.11c-.17 1.66 1.77.75 2.35 1.68l-2.41.63.32.38-3.52-.57c.53-1.08 2-2.51 3.26-2.12" class="cls-13"/><path d="M218.3 233.51c-1.16 1.67-2.49.25-4.3.31-2.29.21-4.88-.56-7.31-.86 1.35-2.06 4.08-2.77 6.5-2.29 1.51 1.24 2.79 2.88 5.11 2.84" class="cls-15"/><path d="M206.32 230.91c-.82 1.85-2.32 1.93-4 2.68-2.55.15-5.35-.64-8-1 2.19-3.59 6.51-.52 9.45-2.13ZM195.34 230.42c-.8 1.64-2.61.18-3.19 1.85l-.91-.47c-1.45.91-4.4 2.11-4.18 4 1.28.21 2-1.36 3.18-1.49-1.32 2.07-4 2.15-5.43 3.49l-.4.26.3-2c3.1-1.92 4.88-5.57 8.16-6.38Z" class="cls-14"/><path d="M235.59 237.35c-.9.68-2.44.58-3.52 1.75 1.7 1 3.49-.69 5.32-.81l.91.48a10.57 10.57 0 0 1-9 1.22c1.48-2.17 3.9-2.19 6-3.07ZM240.51 239.11c-2.6 3.19-5.53 6.94-10.11 6.38l-.09-1.36c1.26-.31.68-1.79 1.35-2.42 3.11-.11 5.88-1.74 8.85-2.6" class="cls-13"/><path d="M211.24 235.05c-2.26 1.77-6.53 2.84-10.17 2.66l-.41-1.74c3.41-2.46 6.65-2.39 10.58-.92" class="cls-14"/><path d="M221.75 238.43c-2.08.31-4.13.91-6.26.65a25 25 0 0 1-5.35-1.23c1.39-.67 3.24-2 4.93-2.55a51.6 51.6 0 0 0 6.68 3.13" class="cls-16"/><path d="m193.51 233.84 1.23.19-.82 1.19-.2-.7c-1.65.15-2.89 1.81-4.33 2.65l1.58.25 1.11-.83c-1.45 2.12-3.83 2.29-5.72 3.43l.29-2a20.4 20.4 0 0 0 6.34-5.33l.52 1.1" class="cls-14"/><path d="M200.87 234.67a2.55 2.55 0 0 0-2 2.68c-1.55 2.67-4.78 1.92-6.44 4l-1.7.42c1.22-3.75 5-9.92 10.17-7.07" class="cls-14"/><path d="M226.51 238.84c-.34 1.39-2 2-3 2.85l-3 .55 2.21.35-2.73.9.2-1.31c1.83-1.28 3.68-4.43 6.34-3.34" class="cls-13"/><path d="M217.33 237.71c-1.3 0-2.51.48-3.93 0 1.2-.46 2.71.34 3.93 0" class="cls-16"/><path d="m228.42 239.52-.44.58c.37 1.4 2 .52 2.72 1.46-.64 3.29-4.16 1.74-6.23 2.67l-.43-1.75a17.9 17.9 0 0 1 4.38-3M236.88 241.54c-1.7 1-3.09 3-5 2.87l4.74-3.22Z" class="cls-13"/><path d="m177.44 234.89 2.72-.91.3.38-.3 1.95 1.08 1.19c-2.07 1.43-2.91 3.62-5.27 4.82.34-2.78 2-4.74 3.62-6.76l-.51-.74c-3 2.18-3.45 6.6-7.65 7.45-.57-4.28 3-6.91 5.1-9.9z" class="cls-15"/><path d="M221.51 239.7c-2.18 2.1-4.29 2.51-6.39 3.65l3.31-.44-2.77 1.2-2.2-.36 1.89-1.73c-.58-2-1.62.52-2.6-.06a6.53 6.53 0 0 1-4.11-.67c.17-1.08 1.42-1.72 2.26-2l1.54.58-2.45 1c1.44.94 3-.58 4.65-.58 2.32-.19 4.49-.76 6.91-.56" class="cls-13"/><path d="M209.37 238.74a6 6 0 0 1-4.3 2.33l-2.16-.69 1.24-1.46.61.09-.36.27c.86 1.72 2.36-.54 3.64-.42l-.27-.39z" class="cls-14"/><path d="m228.51 241.53-2 .32ZM231.18 248.97l-1.53-.57c0-3.21 3.11-1.16 4.59-2.27 1.06-.75 2.57-.83 3.26-2.16-.68 3.24-3.8 3.94-6.32 5" class="cls-13"/><path d="m198.64 240.66.23-1.62c-1.13 1.24-3.85 2-3.46 3.79l-2.4.59c1.5-2.69 4.37-2.87 6.69-5.24l1.18.86Z" class="cls-14"/><path d="M173.56 238.95c.91-1.2 1.45-2.65 2.8-3.59a5.66 5.66 0 0 1-2.8 3.59" class="cls-15"/><path d="M198.18 243.61c1.15 1 2.5-.66 3.77-1.06-1.59 1.23-3.63 2.76-5.71 3.07l-.36-1.74 5.5-4.11.52.77ZM183.28 237.19l.66 1.78 1.29.2a70.3 70.3 0 0 1-8.16 8.71l-1.18-.89a10.18 10.18 0 0 1 4.27-6.64c-.14-1.69 2.22-1.82 2.45-3.27Z" class="cls-16"/><path d="m229.39 245.98-.43.63-1.24-.53c-1.53.32-.82 3.46-2.62 2.24 1.68-.78 3-6 4.29-2.34M212.23 243.21a13.08 13.08 0 0 1-8.83.59c1.67-.93 4.48-3.43 6.24-.65zM225.95 245.11c-.85 1.72-1.77 3.06-3.78 3.44l-1.18-.9-.69.22a4.4 4.4 0 0 1 3.29-2.44l-1.89 1.68 2.81-1.21 1.44-.8" class="cls-14"/><path d="M192.19 242.64c-1.59 1.22-1.9 3.26-2.13 5.32-1.67.23-1.38 3.08-2.28 4.32l.57.4.34-.26c-.88 1 1.09 3.2-1.07 2.84-1.16.25-.81-1.15-.74-1.79 1.27-3.14 2.1-6.53 3.77-9.42l-.92-.47c-1.86 3.36-3.51 7-6.66 9.6-.4-3.83 2.54-7.44 5.08-9.86-.85-1.67 1.08-2.52 1.58-3.79l.15 3.05Z" class="cls-16"/><path d="M221.51 244.7c-1.57.55-1.83 2.74-3.58 2.12.74-1.32 2.3-1.8 3.58-2.12M217.51 245.11c-1.77 1.62-4 1.66-6.15 2l1.28-2.15c1.55-.31 3.35.54 4.87.13" class="cls-14"/><path d="M187.24 240.81c-2.08 4.11-4.12 8.93-8.52 11-.74-1.07.62-2.33.85-3.53.78-2.4 3.4-3.64 4.17-6 1.31-.59 1.71-2.52 3.5-1.48" class="cls-16"/><path d="m168.21 244.11-.36.27c-1.41-1.39-3.66.1-5.57.11-2.69 1.32-5.76 2.16-8.06 4l1.24.52a34.2 34.2 0 0 1 11.33-4.13c-3.19 1.58-5.17 4.49-8.79 4.24-3.87 1.3-6.46 4.36-10.32 5.7l-1.08-1.2c.64-2.08 2.47-3.36 3.66-5.07 4.9-6.26 12.52-5.5 19.23-6.25-.08-1.27.63-2.17 1.11-3.16-.84 1.62.57 5.29-2.39 4.95" class="cls-15"/><path d="M209.94 245.52c-1.65 1.08-3.62 3.27-6 2.7a4.66 4.66 0 0 1-.43-3.11c2.41-.35 4 .75 6.44.4M215.37 250.41l-2 2.69.49-3.27.27.36a32 32 0 0 0 2.13-3.32c.7 1.37-.62 2.32-.86 3.54M227.7 250.41c1.37 1.08.64 2.3.12 3.69a5.56 5.56 0 0 1 .09-5l.36-.28-.57 1.58M204.07 249.91a12.4 12.4 0 0 1-2.89 5.88c-.53-1.24-.92-2.84 0-4-1.73-1.95.48-4.6.75-6.94.6 1.45.12 4 2.16 5.05M200.58 245.02c-.75 1.13-.66 2.81-1 4.16l-.15-1c-1.66.21-1.34 2.85-2 4.33l.52.77 1-2.19c-.13 1.74.2 4.21-1.21 5.51l-1.24-.2c-1.15-3.12.39-7 1.56-10.11l2.45-1.27M219.78 249.11c.77 1.46.29 4.49-.91 5.89-2.09-.52-.5-3.62-1.47-5.26.23-.8.24-2.67 1.61-1.75ZM231.59 250.72l-1.43 2.79.24-3.64z" class="cls-16"/><path d="M176.09 243.67c-2.17 8.85-13.11 9.43-18.72 16.05-1.81 1.71-4 .33-5.84-.3-1.81-1.46.13-4.07 1.16-5.49 2.52-3.2 6.69-4.11 10.22-5a20.1 20.1 0 0 1 8.26-5l-.25-.37c1.48.37 2.66-1.23 3.57-2.11.32.57 0 2.61 1.6 2.25" class="cls-13"/><path d="M194.45 244.67c-.63 3.56-3.17 6.5-2.88 10.2l-1.09.86c-2-3.44 1.83-7.05 1.46-11.47zM206.84 253.05l-1.68.38c-.42-1.14.1-2.49-.12-3.68l3.18-1.49-1.38 2.42c.92-.69 2.9-1.84 2.49-3.26l.35-.27c1.1 2.36-2.2 3.72-2.84 5.9M222.84 250.32l-1.07 2.8c-1.13-1 .23-2.61-.41-3.73zM225.05 253l-.62-.42c-.32-1.41 1.54-1.43 1.12-2.84-.13.81 1 2.59-.5 3.26M212.77 248.3c-.63 2.4-1.23 4.82-3.57 6.11l-.9-.14c-.29-2.06 1.27-2.87 1.93-4.33l-.52 1.22c1.45 1.15 1.05-1.55 2.24-2l-.56-.41-.36.27 1.74-.75M194.99 251.77c-.26 1.07.49 2.59-.81 3.22-1.55.86-.53-1.34-1.33-1.89.57-2.57 1.4-5.3 3.6-6.43 0 1.57-.94 3.42-1.46 5.1M216.66 252.65l-1.84 1.38.06 1.68c1.17.24.42-1.29 1.16-1.49 1.32 1.19-.35 2.36-.54 3.58a1.64 1.64 0 0 1-1.59-2.25c0-2.09 2.25-2.84 2.64-4.58z" class="cls-16"/><path d="m225.15 254.36 1.12-.84c.27.89 1.24 2.89 2.36 1.41.66 4.7 5.82 1.89 8.44 4.39 1.51 1.54 5.06 3 4 5.68-2.13-.53-2.38-4.24-4.77-2.82 0 1.35 1.31 2.39 1 3.87-1.68-.69-2.35-3.67-4.37-3.07a4.3 4.3 0 0 1 .4 3.41c-1.65-.69-2.23-3.3-3.95-4l-.59 1.92c-1.72 1.15-.74-1.38-1.65-1.95l-.52-.73.35-.28-2.82-.77-1.14 1.11-1.25-.21c.36-2.88-.48-6.66 1.67-8.75l1.68 1.63" class="cls-17"/><path d="m220.85 257.01-1.53-.58 1.28-2.16c1.14.7.13 1.78.25 2.74" class="cls-16"/><path d="M178.71 247.77c-.27 1.73-2.74 3.42-.81 5.26 1.39.36 2.35-1.16 3.51-1.79-.16 1.14.36 3.9 2.51 2.77l2.76-3.27c-.52 2-1.7 3.86-.23 5.67l.67.12c-.16.95-.09 1.9-1.27 1.79-2.42 2.43-5.28 4.67-6.12 8l.25.41c2.31-2.66 3.91-5.73 6.78-8 .54 4.47-4.29 5.56-5 9.22-2.66.92-5.23 5.28-7.92 2.77l.62-2c4-4 7.65-8.26 11.38-12.5l-.54-.78c-4.37 4.07-9.1 8.5-12.8 13.33-.94.31-1.86 1-3 .49-.21-2.21 2-2.84 3.3-4.48 2.59-3.57 5.82-6.72 7.85-10.76l-.31-.36c-4.15 3.81-7.27 8.85-11.73 12.81a4.85 4.85 0 0 1-2.92 2.19c-1.88-.06-3.41-.72-2.81-2.81 4-5 8.94-9.6 12.95-14.6l-.87-.47a145 145 0 0 1-14 14.78l-2.55-.42c-1.31-3.23 1.21-5.84 3.16-7.85 4.36-2.91 9.08-5.11 13-8.61 1.16 2 3-.49 4.08-1" class="cls-13"/><path d="M194.33 258.03c-.69 1.57 1.57 2.11 1.55 2.95l1.13.83 2.35 1.73 1 2.16c-2.06 1.66-2.4-3.51-4.61-1.78 1 1.37.91 3 1.91 4.36l-1 .15c-1.1-1.33-2.31-4-4.3-3.7 1 1.83 2.32 4 1.36 5.93-1.69-.14-2.06-2.52-3.39-3.26-1.78-.2-3.63-.9-5 .54-.68 1.23-1.78 1.62-2.94 2.17.32-2.92 2-4.91 4.27-6.64l1.81-7.42c1.65 2.88 3.22-1.47 4.85.15Z" class="cls-17"/><path d="m198.31 257.66-.96 1.9-1.53-.63-.07-1.7z" class="cls-16"/><path d="M309.67 170.11c-9-.95-18 1-26.91 1.66 4.58-1.34 9.54-1.06 14.27-2 4.24.13 8.35-.22 12.64.38M312.03 175.85l-.91-.48c-5.48-.15-10.86.32-16.32.36a102.6 102.6 0 0 1 17.29-.21ZM291.93 179.63l1.64-.1.26.43-7.32-.85-1.15-.9c2.56.51 4.3.47 6.57 1.44M290.32 183.7c-2.81.45-6.12-1.25-8.81-1.77ZM275.32 181.95v.31c-1.87-1.65-5.3-1-7.16-2.2 2.67.22 4.78 1.21 7.2 1.89M150.65 161.65a23.7 23.7 0 0 1-5.58 2.43c-.36-1.7 2.23-.57 3.19-1.52l1.46-1.07-.92-.52ZM284.91 187.18c-2 .42-4.4-.8-6.43-.4 1.87.07 4.19-.24 6.43.4M157.79 170.47v-.33c1.93-.44 3.56-1.94 5.53-2.11ZM271.57 187.32c-3.28-.43-5.95-2.35-9-2.81 3.08.92 6.29 1.45 9 2.81M145.05 168.72c-1.2.72-3.11.41-4.67.58a25.4 25.4 0 0 0 4.67-.58M172.73 174.57a8.5 8.5 0 0 1-6.08 1.7c2.09-.07 4.05-1.1 6.08-1.7M279.5 192.98l-4.35-1.39 4.4 1.07zM158.36 174.93c-2.61.22-5.27.48-7.88.71l-.3-.38c2.56-1 5.41-.29 8.18-.33M262.34 196.55l-.05.33c-1.76-1.22-3.28-2.82-5.29-3.57l-.57-.73a43 43 0 0 1 5.91 4M273.43 196.32c-1.29-.12-3.53-.29-4.67-1.41 1.56.48 2.93 1.4 4.67 1.41M175 182.98l4.1-1-3.44 1.12zM173.06 182.99l1.27.2ZM165.59 183.11c-1.88 1-4.46.86-6.7 1.24a53 53 0 0 0 6.7-1.24M268.26 202.53v.33c-1.49 0-1.75-1.87-2.88-2.47 1.18.33 1.77 1.77 2.92 2.14M148.65 183.11c-3.42.59-6.86.86-10.1 2.34l-.26-.37c3.14-.83 6.64-2.45 10.36-2M261.96 205.51l-.08.31-2.59-2.1zM143.88 190.96a24.2 24.2 0 0 1 7.35-3.48c-2 1.75-5 1.78-7.35 3.48M249.7 204.53l-5.3-1.23 5.07.82zM169.51 191.47c-1.77-.26-3.23.77-5 .49 1.72.37 3.2-.87 5-.49M185.27 198.68c-.93.78-2.63.5-4 .69.46.16 2.58-1 4-.69M156.32 194.65c-2.45 1.19-5.14 1.59-7.35 3.5l-1-.17c2.55-2.18 5.54-2.2 8.33-3.33M164.3 197.63a60 60 0 0 1-6.48 4.28l-.3-.37c1.68-1.9 4.32-2 6.16-4ZM174.73 199.65c-1.37.43-3.37.8-5.06 1.18 1.53-1.11 3.31-1 5.06-1.18M216.18 207.05c-2.3 1.26-4.44.4-7.22.51 2-.75 5-1.28 7.22-.51M266.73 216.63l-.12.69c-1.76-.58-3.25-1.46-5.25-1.57l1.78-1.05c1.41.19 2.93.43 3.59 1.93M266.02 219.21l-.59 1.91c-2.08.41-2-2.61-3.92-2.31l1-2.15c1.74-.16 2.37 1.68 3.54 2.55M189.94 206.49c-1.92 1.27-4.56 1.5-6.85 2.24 2-.94 4.59-.79 6.2-2.34ZM221.3 211.94l-1.11.79-1.68.38c-1.79-1-3.62.89-4.75-.78a9.8 9.8 0 0 0 3.75-1.02 5.1 5.1 0 0 0 3.83.63M170.11 210.6c-1.77-.1-2.18 2.16-3.93 2.38l-.26-.38c1-1.26 2.86-2.73 4.19-2M231.61 220.95l-1.5 1.1c-.92-1.81-2.84.06-4-1.31 1-.1 3.09 1.07 4.25 0ZM218.43 226.19a6.38 6.38 0 0 1-4.09-.67c.9.16 2.76.45 4.09.67M206.45 225.91l-.25-.41 2.86.14zM243.75 232.65l-.4.58-.92-.15zM193.26 225.11l-1.37.47ZM201.81 228.49h-3.88a12.7 12.7 0 0 0 3.88 0M221.11 231.96c-1 .39-2.33-.14-3.54-.23.9.05 2.48-.86 3.54.23M186.07 227.24c-1.79.73-3.75 2.91-5.76 3.75 1.6-1.42 3.56-3.61 5.76-3.75M210.27 232.84l.35-.26 2.56.42zM198.7 231.98l.05-.31 2.87.15zM206.23 235.9l-3 .5c.82 0 1.85-1 3-.5M196.93 237.04l-3 2.53c.68-1 1.57-2.58 3-2.53M179.2 238.19l-1.95 2ZM207.94 243.53l-1.68.37-.56-.41zM233.37 247.35l-2.4.94ZM182.11 240.33l-2.71 2.91c.72-1.14 1.51-2.44 2.71-2.91M208.26 245.9c-1.11.18-1.82 1.79-3.12 1.16a9.5 9.5 0 0 1 3.12-1.16M184.93 243.11c-.58 1.67-2.2 2.89-3.53 3.8.92-1.48 2.56-2.7 3.53-3.8M218.49 251.28l.4-2.62.21.67zM191.4 249.84c1-1 .14-3 1.52-3.75-1 1-.16 3.34-1.52 3.75M184.68 249.12l2.2-3.67-1.58 3.76zM201.99 252.91a6.47 6.47 0 0 1 .65-4.22ZM195.06 249.11a3.59 3.59 0 0 1-1.46 3.1zM172.72 246.47c-3.72 3-8.68 4.86-12 8.39 2.4-3.26 6.59-5.74 10.05-8l2-.38M173.92 251.36c-3.65 3.17-7.93 6-10.94 9.6 2.65-3.86 7.24-7.36 10.94-9.6M177.04 254.19c-1.93 3.21-3.93 6.74-6.87 8.92 2.34-2.78 3.6-6.44 6.26-9ZM183.68 255.63a47.7 47.7 0 0 0-8.51 8.66c1.56-3.7 5.3-6.33 8.51-8.66"/><path d="M394.91 525.59s-28.53-16.51-28.53-45.33c0-20.51 13.95-37.1 13.95-37.1l-12.9-32.82a43.7 43.7 0 0 1-17.64 4c-27 0-49.79-22.88-49.79-22.88s-22.76 22.88-49.79 22.88a43.7 43.7 0 0 1-17.64-4l-12.9 32.82s14 16.59 14 37.1c0 28.82-28.53 45.33-28.53 45.33-3.7 24.19 29.62 44.3 50.7 55.66 17.85 9.6 36 22.87 44.21 54.87 8.23-32 26.36-45.27 44.21-54.87 21.03-11.36 54.35-31.47 50.65-55.66" style="fill:url(#linear-gradient-12)" transform="translate(-87.49 -138.89)"/><path d="M242 481.72a54.2 54.2 0 0 1-9 28.1h57.24v-28.1Z" style="fill:url(#linear-gradient-13)" transform="translate(-87.49 -138.89)"/><path d="M290.21 409.61c-10.13 6.46-24.3 13.05-40 13.05a50.4 50.4 0 0 1-12.81-1.73l-8.25 21a79.5 79.5 0 0 1 9.9 20.23h51.16Z" style="fill:url(#linear-gradient-14)" transform="translate(-87.49 -138.89)"/><path d="M361 462.15a79.5 79.5 0 0 1 9.9-20.23l-8.25-21a50.4 50.4 0 0 1-12.81 1.73c-15.7 0-29.88-6.59-40-13.05v52.54Z" style="fill:url(#linear-gradient-15)" transform="translate(-87.49 -138.89)"/><path d="M309.79 509.82H367a54.3 54.3 0 0 1-9-28.1h-48.21Z" style="fill:url(#linear-gradient-16)" transform="translate(-87.49 -138.89)"/><path d="M273.51 323.26H222.3v-52.54a108 108 0 0 1-9.79-7.05 108 108 0 0 1-9.79 7.05v52.54h-51.16a59.9 59.9 0 0 1 2.95 18.11v1.46h48.26v28.1h19.58v-28.1h48.16v-1.46a59.9 59.9 0 0 1 3-18.11" class="cls-2"/><path d="M373.39 518.19H226.61a79.4 79.4 0 0 1-10 9.45h166.73a80 80 0 0 1-9.95-9.45" style="fill:url(#linear-gradient-17)" transform="translate(-87.49 -138.89)"/><path d="M382.11 542.22H217.89a56.6 56.6 0 0 0 8.49 9.45h147.24a56.6 56.6 0 0 0 8.49-9.45" style="fill:url(#linear-gradient-18)" transform="translate(-87.49 -138.89)"/><path d="M300 612.44a81.8 81.8 0 0 1 16.71-22.16h-33.42A81.8 81.8 0 0 1 300 612.44" style="fill:url(#linear-gradient-19)" transform="translate(-87.49 -138.89)"/><path d="M259.76 573.87c1.09.59 2.19 1.21 3.29 1.83H337c1.1-.62 2.2-1.24 3.29-1.83 3.9-2.1 8.54-4.67 13.36-7.62H246.4c4.82 2.95 9.46 5.52 13.36 7.62" style="fill:url(#linear-gradient-20)" transform="translate(-87.49 -138.89)"/><path d="M299.29 391.36c-1-.72-2.17-1.6-3.44-2.61H129.16c-1.26 1-2.43 1.89-3.43 2.61.23 3.81 1.8 7.81 4.67 12h164.22c2.89-4.19 4.44-8.19 4.67-12M139.26 413.11a135.7 135.7 0 0 0 19.65 14.23h107.2a135.7 135.7 0 0 0 19.65-14.23l.37-.35H138.89ZM195.8 451.39h33.42a103.7 103.7 0 0 1 20.29-14.58h-73.9a103.7 103.7 0 0 1 20.19 14.58" class="cls-2"/><path d="m212.51 112.34 6.7 20.65h21.71l-17.56 12.76 6.71 20.64-17.56-12.76-17.56 12.76 6.7-20.64-17.56-12.76h21.71z" class="cls-13"/><path d="m212.51 142.22 23.91-7.77h-18.27zM212.51 142.22l-14.78 20.34 13.92-10.11.86-.63zM221.64 145.19l-9.13-2.97 14.77 20.34-5.31-16.36zM212.51 142.22v-25.14l-5.32 16.36-.33 1.01zM212.51 142.22l-23.91-7.77 13.91 10.11.87.63z" class="cls-27"/></svg>