<svg xmlns="http://www.w3.org/2000/svg" id="Layer_1" data-name="Layer 1" viewBox="0 0 407.82 566"><defs><style>.cls-1{fill:#fd0}</style></defs><title>ac_prato_1908 [Converted]</title><path d="M203.91 0 0 283l203.91 283 203.91-283z" class="cls-1"/><path d="M289.76 537.6c-15.48 5.18-30.35-4.67-33.49-17.81 31.55 1.94 32.31-20 29.74-32.62l-17.56-.85.41-23.1 10.71-.83c2.15-26.55-25.61-55.57-36-35.68-5.17 9.87 3.45 17.47 12.67 20.19-15.8 15.74-67.19 8.69-67.2-28.51 0-20.92 13.3-46.24 49.69-43.35 21.8 1.73 42.94 14.25 52.58 67.55.39 2.13 5.75 5.36 4.81-4.86-2.76-24.7-24.86-82-23.64-115 1.38-37.3 16.8-61.5 35-79.29V132.18L117.13 396.39 307.5 660.61v-81.85c-7.33-5.21-24.97-23.44-17.74-41.16" style="fill:#fff" transform="translate(-103.59 -113.39)"/><path d="M307.5 132.18v111.24c18.25 17.79 33.69 42 35.06 79.31 1.22 33-20.87 90.32-23.64 115-.94 10.22 4.43 7 4.81 4.86 9.64-53.3 30.78-65.82 52.58-67.55 36.39-2.89 49.71 22.43 49.7 43.35 0 37.2-51.41 44.25-67.21 28.51 9.23-2.72 17.84-10.32 12.67-20.19-10.41-19.89-38.16 9.13-36 35.68l10.71.83.4 23.1-17.56.85c-2.57 12.65-1.81 34.56 29.74 32.62-3.14 13.14-18 23-33.48 17.81 7.23 17.74-10.45 36-17.77 41.17v81.85l190.37-264.23Z" style="fill:#0066b3" transform="translate(-103.59 -113.39)"/><path d="M165.85 126.74c.12.52.22 1 .3 1.54s.12 1 .17 1.54a34 34 0 0 1 .11 4.56 18 18 0 0 1-.49 3.53 14.2 14.2 0 0 1-4-1.15 12.8 12.8 0 0 1-3.23-2.15c1.15-1.13 2.32-2.36 3.48-3.69l3.66-4.2m-.33-1.46c-1.06 1.39-2.23 2.8-3.5 4.25s-2.68 2.9-4.21 4.36a17.3 17.3 0 0 1-3.25-4.46 13 13 0 0 1-1.39-4.77 8.8 8.8 0 0 1 .41-3.71 5.13 5.13 0 0 1 1.68-2.39 4.22 4.22 0 0 1 2.57-.85 5.8 5.8 0 0 1 2.94.89 9.7 9.7 0 0 1 2.73 2.58 14.1 14.1 0 0 1 2.02 4.12Zm19.89-16.55q-5.48 7.22-9.93 13.82t-8.06 12.83a25 25 0 0 0 .12-3c0-1-.07-2-.16-3.09-.05-.6-.12-1.2-.22-1.81s-.21-1.22-.34-1.84a109 109 0 0 1 11.17-12.35c3.14-2.83 5.62-4.35 7.42-4.56m2-1.1-.58-.1a4 4 0 0 0-.64-.06 9.54 9.54 0 0 0-5 1.9 42.4 42.4 0 0 0-6.53 5.62q-3.68 3.73-8.25 9.27a15.9 15.9 0 0 0-2.45-4.28 11.3 11.3 0 0 0-3.15-2.68 6.83 6.83 0 0 0-3.33-.93 5.52 5.52 0 0 0-3.27 1 6 6 0 0 0-2.06 2.75 9.26 9.26 0 0 0-.51 4.07 14.2 14.2 0 0 0 1.57 5.24 21.6 21.6 0 0 0 3.8 5.2 29 29 0 0 1-5.72 4.45 9.9 9.9 0 0 1-4.68 1.46 4.1 4.1 0 0 1-1.55-.27 2.7 2.7 0 0 1-1.05-.68 1.63 1.63 0 0 1-.43-.93 1.45 1.45 0 0 1 .2-.93.81.81 0 0 1 .69-.33 1.7 1.7 0 0 1 .57.16 2.8 2.8 0 0 0 .82.16 1.5 1.5 0 0 0 .84-.26 1.53 1.53 0 0 0 .57-.64 1.76 1.76 0 0 0 .17-.88 1.66 1.66 0 0 0-.62-1.16 2 2 0 0 0-1.3-.47 2.8 2.8 0 0 0-1.56.55 4 4 0 0 0-1.22 1.42 3.59 3.59 0 0 0 .22 3.69 3.6 3.6 0 0 0 1.42 1.22 5 5 0 0 0 2.12.45 9.1 9.1 0 0 0 3.5-.73 19 19 0 0 0 3.74-2.09c1.29-.93 2.66-2 4.13-3.35a16.7 16.7 0 0 0 3.7 2.24 14.7 14.7 0 0 0 4 1.11l-1.28 2.25h3l1.14-2a9.14 9.14 0 0 0 4-1.13 8.9 8.9 0 0 0 3-2.73l-.73-.63a11.6 11.6 0 0 1-1.54 1.52 8.6 8.6 0 0 1-1.8 1.09 9.5 9.5 0 0 1-2.2.68q3.14-5.79 6.21-11t6.1-10q3.02-4.83 5.94-9.24M198.97 80.79a69 69 0 0 1 6-6.54 44.4 44.4 0 0 1 5.64-4.58 25.2 25.2 0 0 1 5-2.7 11.6 11.6 0 0 1 4.16-.88 3.5 3.5 0 0 1 2.07.5 2 2 0 0 1 .77 1.54 3.35 3.35 0 0 1-.46 1.74 10 10 0 0 1-1.63 2.23 19 19 0 0 1-2.83 2.46 28.6 28.6 0 0 1-4.08 2.41 37.5 37.5 0 0 1-7.32 2.72 36 36 0 0 1-7.33 1.1m8.87-16.07c-1.39-.34-2.73-.61-4-.8a25.5 25.5 0 0 0-3.7-.29 22 22 0 0 0-6.49.89 14.3 14.3 0 0 0-4.74 2.41 9.74 9.74 0 0 0-2.83 3.47 8.06 8.06 0 0 0-.74 4.11 6.4 6.4 0 0 0 1.23 3.34 8.26 8.26 0 0 0 3 2.46 15.2 15.2 0 0 0 4.66 1.43 25.8 25.8 0 0 0-3.43 6 11.7 11.7 0 0 0-.88 5.1 6.6 6.6 0 0 0 2.41 4.87 9.58 9.58 0 0 0 6 1.73 14.8 14.8 0 0 0 3.79-.53 18.3 18.3 0 0 0 3.86-1.56 18 18 0 0 0 3.59-2.52 10.3 10.3 0 0 0 2.37-3 5.76 5.76 0 0 0 .64-3 4.26 4.26 0 0 0-.77-2.16 4.4 4.4 0 0 0-1.8-1.45 6.7 6.7 0 0 0-2.7-.52 9.5 9.5 0 0 0-3.66.73 11.8 11.8 0 0 0-3.39 2.13 15.5 15.5 0 0 0-2.84 3.45 20.5 20.5 0 0 0-2.08 4.65l.86.16a21 21 0 0 1 2.29-4.31 16 16 0 0 1 2.81-3.15 11.6 11.6 0 0 1 3.08-1.94 8 8 0 0 1 3.12-.65 4.9 4.9 0 0 1 2 .39 3.3 3.3 0 0 1 1.35 1 2.84 2.84 0 0 1 .59 1.55 5.37 5.37 0 0 1-1 3.3 12.2 12.2 0 0 1-3.31 3.29 16 16 0 0 1-3 1.69 16.2 16.2 0 0 1-3.16 1 14 14 0 0 1-3.1.36 7.2 7.2 0 0 1-4.24-1.13 4 4 0 0 1-1.71-3.06 10.36 10.36 0 0 1 1.33-5.44 39 39 0 0 1 4.67-6.86 35 35 0 0 0 5.63-.56 39 39 0 0 0 5.64-1.45 40 40 0 0 0 5.38-2.28 28.8 28.8 0 0 0 5.25-3.43 14.2 14.2 0 0 0 3-3.44 5.2 5.2 0 0 0 .84-3 2.42 2.42 0 0 0-1.16-1.94 5.5 5.5 0 0 0-3-.68 15.8 15.8 0 0 0-4.92.93 32 32 0 0 0-6 2.84 50 50 0 0 0-6.67 4.84 65 65 0 0 0-6.92 6.94 15.2 15.2 0 0 1-4.5-1.05 7.5 7.5 0 0 1-2.9-2.09 5.37 5.37 0 0 1-1.17-2.93 5.9 5.9 0 0 1 .49-2.8 8.9 8.9 0 0 1 1.8-2.7 13.4 13.4 0 0 1 3-2.28 16.1 16.1 0 0 1 4-1.57 19.5 19.5 0 0 1 4.91-.6 26 26 0 0 1 3.25.22c1.13.15 2.33.36 3.57.62ZM258.41 109.33a15.9 15.9 0 0 0-4.55-1.83 24.4 24.4 0 0 0-5.75-.63 29.4 29.4 0 0 0-6 .62 27.6 27.6 0 0 0-5.59 1.78 24.2 24.2 0 0 0-4.87 2.78 21.4 21.4 0 0 0-3.63 3.41 12.8 12.8 0 0 0-2.1 3.47 7.2 7.2 0 0 0-.54 3.27 5.33 5.33 0 0 0 .94 2.72 5.13 5.13 0 0 0 2.15 1.77 7.5 7.5 0 0 0 3.14.64 11.15 11.15 0 0 0 4.67-1.06 14.9 14.9 0 0 0 4.35-3.09 21.6 21.6 0 0 0 3.67-5 30.4 30.4 0 0 0 2.63-6.79l-.91-.21a31.4 31.4 0 0 1-3.08 6.45 23.7 23.7 0 0 1-3.82 4.65 16 16 0 0 1-4.08 2.82 9.3 9.3 0 0 1-3.9.94 5 5 0 0 1-3.22-1 3.84 3.84 0 0 1-1.33-2.74 6.6 6.6 0 0 1 .42-2.86 11.2 11.2 0 0 1 1.71-3 18.4 18.4 0 0 1 3-3 25.4 25.4 0 0 1 4.91-3 28 28 0 0 1 5.5-1.86 27.4 27.4 0 0 1 5.78-.62 25.5 25.5 0 0 1 5.42.52 13.3 13.3 0 0 1 4.08 1.63 35 35 0 0 0-4.49 3.78 41 41 0 0 0-3.55 4.06q-1.59 2.08-2.95 4.14c-.9 1.37-1.78 2.69-2.65 4-1.54 2.27-3 4.29-4.38 6.05a31.6 31.6 0 0 1-4.18 4.43 15.5 15.5 0 0 1-4.48 2.72 14.7 14.7 0 0 1-5.31.93 13.7 13.7 0 0 1-3.4-.36 5.5 5.5 0 0 1-2.14-.94 1.93 1.93 0 0 1-.8-1.37 1.68 1.68 0 0 1 .28-1.14 1 1 0 0 1 .84-.48 1.3 1.3 0 0 1 .51.12c.19.08.39.15.6.22a2.1 2.1 0 0 0 .65.13 1.58 1.58 0 0 0 1.07-.41 1.26 1.26 0 0 0 .39-1 1.63 1.63 0 0 0-.59-1.11 2 2 0 0 0-1.32-.46 3.64 3.64 0 0 0-1.84.53 3.94 3.94 0 0 0-1.35 1.37 3.4 3.4 0 0 0-.42 1.92 3.45 3.45 0 0 0 1.08 2.22 6.44 6.44 0 0 0 2.7 1.41 15.2 15.2 0 0 0 4.15.51 20.8 20.8 0 0 0 7.77-1.4 20.2 20.2 0 0 0 6.49-4.18 31.4 31.4 0 0 0 5.42-7c1-1.77 2-3.5 3-5.18s1.92-3.3 2.9-4.85a43 43 0 0 1 3.17-4.32 25.7 25.7 0 0 1 3.79-3.66 7.4 7.4 0 0 1 1.54 2.06 7 7 0 0 1 .67 2.5 9.9 9.9 0 0 1-.3 3.25 11.8 11.8 0 0 1-1.25 3 12.3 12.3 0 0 1-1.89 2.46 9.3 9.3 0 0 1-2.21 1.67 4.8 4.8 0 0 1-2.23.62 2.47 2.47 0 0 1-1.33-.33 1.13 1.13 0 0 1-.55-.88 2.4 2.4 0 0 1 .61-1.64 11.3 11.3 0 0 1 2-1.92l-.83-.47a7.6 7.6 0 0 0-2.3 2 3.1 3.1 0 0 0-.66 2 2.2 2.2 0 0 0 1 1.66 4.1 4.1 0 0 0 2.41.65 7.4 7.4 0 0 0 2.92-.64 9.9 9.9 0 0 0 2.68-1.74 11.5 11.5 0 0 0 2.16-2.54 11.3 11.3 0 0 0 1.38-3.09 9.7 9.7 0 0 0 .34-3.35 8.1 8.1 0 0 0-.9-3.12 11.7 11.7 0 0 0-2.22-2.83c.44-.39.91-.76 1.39-1.11s1-.67 1.47-1l-.08-1q-1 .51-2 1.08a17 17 0 0 0-1.86 1.23M177.81 434.61q-1.71 1.4-5 3.69t-8.22 5.38q-4.91 3.09-11.47 6.9l.48 1.21q6-3.56 11.47-7t10.34-7q-6.27 7.31-11.66 13.82t-10 12.33h4.4q4.6-6.87 9.81-14.12t11-14.92ZM194.51 480.98a68.6 68.6 0 0 1-7.29 8.27 34 34 0 0 1-6.33 4.89 10.5 10.5 0 0 1-4.88 1.6 3 3 0 0 1-1.31-.25c-.29-.15-.44-.31-.44-.47a.58.58 0 0 1 .33-.53 5 5 0 0 1 .73-.29 2.1 2.1 0 0 0 .72-.4 1 1 0 0 0 .33-.83 1.4 1.4 0 0 0-.41-1.06 1.68 1.68 0 0 0-1.21-.39 2.06 2.06 0 0 0-1.15.36 2.6 2.6 0 0 0-.86.92 2.9 2.9 0 0 0-.35 1.31 2.45 2.45 0 0 0 1 2 4.64 4.64 0 0 0 2.78.76 13.3 13.3 0 0 0 5.13-1.25 29.4 29.4 0 0 0 6.21-3.79 49 49 0 0 0 6.74-6.47 42 42 0 0 0 4-5.4 25 25 0 0 0 2.37-4.75 11.4 11.4 0 0 0 .78-3.83 3.84 3.84 0 0 0-1.07-2.86 4 4 0 0 0-2.91-1.06 10.7 10.7 0 0 0-3.37.63 19.4 19.4 0 0 0-3.88 1.89 22.8 22.8 0 0 0-3.9 3.09 19 19 0 0 0-3.6 4.83 10.2 10.2 0 0 0-1.22 4.57 3.83 3.83 0 0 0 .93 2.72 3.36 3.36 0 0 0 2.51.95 9 9 0 0 0 4.11-1.28 32.2 32.2 0 0 0 5.47-3.9m2.94-12.35a2.5 2.5 0 0 1 1.72.58 2.12 2.12 0 0 1 .63 1.59 6.7 6.7 0 0 1-.66 2.5 17 17 0 0 1-2 3.31 25 25 0 0 1-3.35 3.59 31 31 0 0 1-3.54 2.71 16.8 16.8 0 0 1-3 1.54 6.2 6.2 0 0 1-2.21.51 1.84 1.84 0 0 1-1.31-.41 1.5 1.5 0 0 1-.44-1.16 7.46 7.46 0 0 1 1.16-3.21 30.7 30.7 0 0 1 3.72-5.17 27 27 0 0 1 5.2-4.82 7.74 7.74 0 0 1 4.08-1.56M231.41 468.69a2.5 2.5 0 0 1 1.8.58 2.37 2.37 0 0 1 .61 1.77 8.5 8.5 0 0 1-.61 2.74 23.6 23.6 0 0 1-1.88 3.87 44 44 0 0 1-3.22 4.74 63 63 0 0 1-4.65 5.28 47.5 47.5 0 0 1-5.06 4.53 23.3 23.3 0 0 1-4.3 2.67 8.3 8.3 0 0 1-3.29.87 2.4 2.4 0 0 1-1.74-.61 2.1 2.1 0 0 1-.66-1.52 8.9 8.9 0 0 1 1-3.4 34.3 34.3 0 0 1 3.08-5.22 75 75 0 0 1 5.41-6.74 53 53 0 0 1 5.42-5.37 24.7 24.7 0 0 1 4.58-3.13 8 8 0 0 1 3.49-1m-24.46 24a4.33 4.33 0 0 0 1 3 3.8 3.8 0 0 0 2.86 1.08 9.5 9.5 0 0 0 3.58-.89 23.4 23.4 0 0 0 4.62-2.75 41.3 41.3 0 0 0 5.35-4.74 61.4 61.4 0 0 0 6-7.07 31.4 31.4 0 0 0 3.51-6.07 12.8 12.8 0 0 0 1.15-4.82 3 3 0 0 0-.91-2.22 3.62 3.62 0 0 0-2.53-.85 10 10 0 0 0-2.82.51 25.3 25.3 0 0 0-3.7 1.54 33 33 0 0 0-4.19 2.53 38 38 0 0 0-4.29 3.5 39.3 39.3 0 0 0-5.39 6.2 28 28 0 0 0-3.2 5.95 14.8 14.8 0 0 0-1.05 5.08ZM250.82 448.23a17 17 0 0 1 1.41 2.74 6.3 6.3 0 0 1 .51 2.38 7.2 7.2 0 0 1-.79 3.19 10.1 10.1 0 0 1-2.14 2.88 11 11 0 0 1-3.09 2.06 9.2 9.2 0 0 1-3.68.79 5.36 5.36 0 0 1-2.39-.52 3.7 3.7 0 0 1-1.52-1.41 3.85 3.85 0 0 1-.55-2.05 6.28 6.28 0 0 1 1.38-3.69 14 14 0 0 1 4.1-3.52 28.2 28.2 0 0 1 6.76-2.85m3.13-1.15a23.1 23.1 0 0 0 8.08-4 6.7 6.7 0 0 0 2.7-5.09 3.67 3.67 0 0 0-1.28-3 5.9 5.9 0 0 0-3.78-1.06 10.4 10.4 0 0 0-3.93.79 11.8 11.8 0 0 0-3.31 2.11 10.8 10.8 0 0 0-2.27 3 7.7 7.7 0 0 0-.85 3.45 7.3 7.3 0 0 0 .26 1.86 13.3 13.3 0 0 0 .7 2q-6.69 2.18-10 5t-3.34 6.19a4.66 4.66 0 0 0 1.48 3.68 6.7 6.7 0 0 0 4.43 1.34 11.6 11.6 0 0 0 3.66-.63 14.2 14.2 0 0 0 3.44-1.73 14.4 14.4 0 0 0 2.89-2.55 12 12 0 0 0 2-3.09 8.6 8.6 0 0 0 .74-3.38 6.9 6.9 0 0 0-.46-2.26 23 23 0 0 0-1.16-2.63m-.54-1a14.3 14.3 0 0 1-1-2.29 6.9 6.9 0 0 1-.35-2.11 5.6 5.6 0 0 1 .63-2.52 8 8 0 0 1 1.68-2.14 8.5 8.5 0 0 1 2.39-1.47 7.4 7.4 0 0 1 2.77-.56 3.68 3.68 0 0 1 2.58.86 2.75 2.75 0 0 1 .92 2.16 5.3 5.3 0 0 1-1.06 3.25 9.45 9.45 0 0 1-3.19 2.6 31 31 0 0 1-5.37 2.2Z" class="cls-1"/></svg>