<svg xmlns="http://www.w3.org/2000/svg" xml:space="preserve" viewBox="0 0 612 792"><path d="M556.412 150.988C470.207 122.751 383.948 113.39 307.5 113.39c-76.447 0-162.708 9.362-248.913 37.598C-10.648 544.773 307.5 679.39 307.5 679.39s318.147-134.617 248.912-528.402" style="fill:#b69930"/><path d="M540.367 162.704C459.711 136.289 378.726 129.16 307.5 129.16s-152.211 7.128-232.867 33.544c-64.298 365.67 228.4 497.087 232.867 499.072 4.467-1.985 297.165-133.402 232.867-499.072" style="fill:#fff"/><path d="M307.5 255.081c-70.587 0-149.935 5.687-228.04 29.034 5.095 266.73 228.04 362.792 228.04 362.792s222.946-96.061 228.041-362.792c-78.106-23.347-157.454-29.034-228.041-29.034M106.672 251.475l-7.461-12.08-1.462 14.297zm22.761 12.012-13.352 3.321-5.797-9.251-12.999 3.236-1.563 11.072-9.821 2.444 6.642-46.162 10.592-2.64zM145.178 255.72c.312 1.611.043 3.052-.797 4.304-.845 1.251-2.08 2.032-3.691 2.35-1.621.311-3.067.073-4.356-.729-1.298-.844-2.091-2.017-2.392-3.559-.333-1.737-.085-3.252.755-4.551q1.314-1.95 3.929-2.45 2.304-.443 4.181.887 1.903 1.33 2.371 3.748M203.457 246.512c.195 1.626-.164 3.046-1.103 4.234-.93 1.193-2.207 1.88-3.839 2.091-1.632.19-3.067-.143-4.292-1.03q-1.854-1.394-2.133-3.722c-.211-1.764.132-3.252 1.062-4.477.977-1.24 2.339-1.964 4.092-2.181q2.313-.279 4.118 1.178c1.198.971 1.889 2.27 2.095 3.907M249.768 230.915l-5.153-13.221-4.024 13.791zm20.222 15.924-13.733.855-4.029-10.132-13.369.829-3.548 10.612-10.095.624 14.858-44.204 10.897-.681zM307.303 202.583l-15.486 43.026-12.218.322-16.526-41.838 13.527-1.911 10.285 30.407 9.277-30.935zM342.557 246.069l-28.876-.719 1.072-43.189 26.283.654-.2 8.211-13.338-.333-.2 8.268 13.02.328-.211 8.258-13.009-.322-.254 10.237 15.913.402zM379.389 248.101l-28.775-1.727 2.587-43.115 12.925.771-2.08 34.932 15.828.95zM414.047 251.708l-28.628-3.232 4.826-42.925 12.872 1.457-3.918 34.763 15.766 1.784z" style="fill:#197843"/><path d="M408.474 225.119h43.204v12.96h-43.204z" style="fill:#197843" transform="rotate(-82.582 430.07 231.6)"/><path d="m479.306 262.563-8.046-1.616-14.33-27.835-4.836 23.949-9.98-2.022 8.554-42.335 8.828 1.785 13.643 27.25 4.742-23.528 9.979 2.018zM518.177 251c2.396-8.681 1.046-13.728-4.087-15.143-5.037-1.389-8.732 2.191-11.088 10.765-2.376 8.564-1.014 13.554 4.055 14.948 5.09 1.405 8.786-2.122 11.12-10.57m13.188 3.258c-1.731 6.225-5.005 10.845-9.842 13.859-5.005 3.147-10.612 3.865-16.789 2.154q-9.283-2.568-13.337-10.401c-2.65-5.079-3.115-10.718-1.405-16.912 1.732-6.304 5.133-10.913 10.201-13.817q7.603-4.372 17.012-1.774c5.713 1.574 9.905 4.932 12.588 10.074 2.734 5.106 3.252 10.708 1.572 16.817M184.677 241.301c.618 3.775-.412 7.07-3.073 9.884q-3.937 4.221-11.32 5.417c-5.026.829-9.731.248-14.108-1.753l2.746-7.709q4.086 2.465 8.237 1.785c1.504-.248 2.713-.845 3.643-1.785.929-.956 1.299-2.033 1.093-3.247-.185-1.13-.887-2.26-2.107-3.348-.823-.708-2.629-1.949-5.428-3.744-1.721-1.051-3.928-2.465-6.642-4.229-2.487-1.964-3.955-4.314-4.398-7.038-.554-3.374.376-6.294 2.809-8.781q3.654-3.729 10.417-4.836c3.934-.644 7.846-.301 11.732 1.019l-2.318 7.27c-2.398-.697-4.42-.908-6.046-.644-2.682.443-3.87 1.563-3.58 3.347.111.687.491 1.331 1.13 1.933.676.602 2.096 1.537 4.213 2.82a82 82 0 0 1 7.398 5.042c3.189 2.445 5.064 5.307 5.602 8.597" style="fill:#197843"/><path d="M534.021 206.86s-97.768-32.27-226.521-32.281c-128.752.012-226.52 32.281-226.52 32.281-.476 4.086-1.056 11.546-1.056 15.216 0 0 98.393-31.795 227.576-31.795s227.577 31.795 227.577 31.795c0-3.669-.582-11.129-1.056-15.216" style="fill:#b69930"/><path d="M307.5 157.303c64.668 0 131.15 8.686 205.787 27.033.925 5.812 1.788 11.54 2.539 17.238 11.703 3.147 18.146 5.27 18.19 5.284-1.299-10.306-3-23.484-4.921-34.212 0 0-94.582-30.934-221.596-30.934-126.865 0-221.6 30.934-221.6 30.934-1.922 10.729-3.622 23.907-4.92 34.214 0 0 97.768-32.27 226.52-32.281z" style="fill:#197843"/><path d="M293.865 293.324c-11.875 11.278-12.772 31.769-12.772 31.769-.855 17.086 10.391 14.546 10.391 14.546-5.043-22.566 2.381-46.315 2.381-46.315" style="fill:#fff"/><path d="M95.885 295.826c5.686 126.897 62.071 211.049 115.065 263.182 49.784 48.987 96.55 70.487 96.55 70.487V514.668l-19.126-15.386s-2.339-3.115-6.014-.75l-18.522 10.866s-2.888 1.784-4.26-1.669l-6.13-10.158s-1.742-2.714-5.158-1.034l-26.732 10.812s-1.674.665-2.809-.855l-7.561-9.292s-.819-1.479-2.746-.75l-39.975 5.385s-2.629-.327-1.669-2.788c0 0 14.087-27.434 34.441-58.479 0 0 .596-2.524-2.001-1.668l-9.43 6.685s-1.447 1.183-1.447-.264c0 0 25.898-46.907 45.846-61.939 0 0 15.734-47.672 39.9-83.269 0 0 15.845-21.553 19.272-23.2 2.529-1.458 2.851 1.394 2.851 1.394s9.21 16.505 11.27 56.738l-.002 179.601 5.66-9.061 9.018-21.235c.804-1.964 2.45-.992 2.45-.992l4.393 2.682c1.099.645 1.035-.518 1.035-.518s1.035-14.467 7.889-17.561c0 0 19.588-4.571 36.906-5.881l56.157-6.198s6.103-.381 6.209-4.985l.022-3.052c-.128-.854-1.035-.358-1.035-.358l-6.02 4.171c-.972.697-1.552-.159-1.552-.159l-3.538-4.128c-.96-1.299-2.112-.18-2.112-.18l-4.234 3.569c-.971.939-1.741.116-1.741.116l-3.486-3.306c-.422-.538-.992-.222-.992-.222l-7.645 2.893-37.244-4.953s-.623-.084-.739-.507c-.074-.422.011-.749.602-.845l38.269-.496 6.959-3.928c1.088-.929 1.869.022 1.869.022l2.799 3.168c.982 1.203 1.932.316 1.932.316l5.365-3.802c1.15-.93 1.963.043 1.963.043l3.306 4.297c.645.961 1.531.116 1.531.116l6.643-5.649c.887-.676 1.087.264 1.087.264l1.267 5.302c.202 1.034.931 1.119.931 1.119s.718.169 1.815-1.457c0 0 3.664-4.764 7.043-7.297l15.354-12.239s8.49-11.753-6.863-18.774l-77.71-30.54s-9.24-22.292-35.26-37.635c-10.961-4.551-23.947-9.578-38.298-12.999v-53.158c-66.868-.002-157.895 7.886-211.618 25.215" style="fill:#fff"/><path d="M329.262 366.25c2.65-2.238 7.086-2.704 12.292-2.603 4.942.164 8.49 1.969 8.49 1.969 2.175 1.066 3.104 2.418 3.104 2.418 2.566 4.166 2.144 8.553 2.144 8.553.316 3.332-2.852 1.352-2.852 1.352-11.995-7.001-18.817-8.237-22.133-8.997-2.154-.887-1.045-2.692-1.045-2.692" style="fill:#197843"/><path d="M334.869 577.847h-12.904v-35.566l-8.458 3.464-1.485-6.441 11.801-4.689h11.046zM377.141 577.847h-34.584v-5.987c8.025-7.128 13.421-12.481 16.178-16.062 2.809-3.622 4.202-6.706 4.202-9.25 0-1.373-.443-2.461-1.352-3.284q-1.359-1.299-3.526-1.299c-2.43 0-5.724 1.395-9.874 4.139l-4.149-6.229c4.857-3.992 10.443-5.998 16.748-5.998 4.762 0 8.605 1.056 11.477 3.146 2.926 2.069 4.384 4.783 4.384 8.152 0 4.784-2.693 9.842-8.09 15.196-1.436 1.446-4.54 4.329-9.324 8.648h17.91z" style="fill:#fff"/><path d="M259.329 577.847h-12.898v-35.566l-8.469 3.464-1.479-6.441 11.796-4.689h11.05zM289.557 547.899c0-2.472-.543-4.467-1.616-5.998-1.024-1.552-2.375-2.345-4.076-2.345-1.6 0-2.915.793-3.944 2.345-1.03 1.573-1.547 3.569-1.547 5.998 0 2.345.496 4.224 1.483 5.618.992 1.361 2.344 2.037 4.076 2.037 1.726 0 3.088-.696 4.076-2.1 1.031-1.394 1.548-3.242 1.548-5.555m12.962 2.409c0 7.951-3.601 14.614-10.802 20-6.257 4.698-13.622 7.455-22.112 8.278v-6.663c3.506-.296 7.017-1.594 10.565-3.896 3.58-2.303 5.839-4.772 6.79-7.402a25.3 25.3 0 0 1-5.808.665c-4.53 0-8.269-1.161-11.235-3.506-2.957-2.345-4.441-5.312-4.441-8.892 0-4.16 1.621-7.655 4.874-10.496 3.506-3.01 8.11-4.52 13.833-4.52 5.147 0 9.43 1.425 12.846 4.266 3.663 3.051 5.49 7.107 5.49 12.166" style="fill:#197843"/></svg>