<svg xmlns="http://www.w3.org/2000/svg" xml:space="preserve" viewBox="0 0 595.276 841.89"><path d="M303.88 222.508c-130.592.002-236.468 105.855-236.469 236.469.001 130.587 105.875 236.446 236.469 236.448 130.587-.002 236.444-105.861 236.446-236.448-.002-130.613-105.859-236.467-236.446-236.469"/><linearGradient id="a" x1="303.868" x2="303.868" y1="227.329" y2="482.767" gradientUnits="userSpaceOnUse"><stop offset="0" style="stop-color:#00aeef"/><stop offset="1" style="stop-color:#fff"/></linearGradient><path d="M140.082 295.171c41.928-41.921 99.825-67.841 163.798-67.843 63.969.001 121.86 25.921 163.783 67.843 41.805 41.812 67.692 99.507 67.834 163.282h-17.403v24.314h-14.185v-24.266h-37.682v24.266h-14.186l.001-24.314h-16.599V323.147H376.71v67.774h-19.291V350.84h-43.904v40.081h-19.292l.001-40.081h-43.905v40.081h-19.291l.001-67.774h-58.734v135.305h-16.599v24.315h-14.187l.001-24.265h-37.683v24.265H89.641l.001-24.315H72.238c.143-63.774 26.034-121.469 67.844-163.281" style="fill:url(#a)"/><linearGradient id="b" x1="303.868" x2="303.868" y1="394.684" y2="684.808" gradientUnits="userSpaceOnUse"><stop offset="0" style="stop-color:#962352"/><stop offset="1" style="stop-color:#fff"/></linearGradient><path d="M467.664 622.762c-41.923 41.92-99.814 67.84-163.783 67.842-63.974-.002-121.87-25.921-163.798-67.842-40.984-40.982-66.663-97.227-67.797-159.489H84.82v24.314h23.827v-24.266h28.041v24.266h23.827v-24.316l11.779.001v134.066h4.821l-.001-269.371h49.093v67.774h28.933v-40.082h34.262v40.082h28.934v-40.082h34.262v40.082h28.934v-67.774h49.091l.001 269.371h4.82V463.273h11.777l.001 24.314h23.827v-24.266h28.041v24.266h23.827v-24.315l12.535.001c-1.136 62.262-26.81 118.507-67.788 159.489" style="fill:url(#b)"/><path d="M266 470.412c-17.23.001-31.116 14.027-31.147 31.318.031 17.286 13.917 31.312 31.147 31.312 17.204-.002 31.154-14.026 31.154-31.312 0-17.293-13.95-31.316-31.154-31.318M341.731 533.111c17.204-.002 31.154-14.026 31.154-31.312 0-17.293-13.95-31.316-31.154-31.318-17.23.001-31.116 14.027-31.147 31.318.031 17.285 13.917 31.311 31.147 31.312M266 544.973c-17.23.001-31.116 14.027-31.147 31.318.031 17.286 13.917 31.312 31.147 31.313 17.204-.002 31.154-14.026 31.154-31.313 0-17.293-13.95-31.316-31.154-31.318M341.731 545.042c-17.23.001-31.116 14.027-31.147 31.318.031 17.286 13.917 31.312 31.147 31.313 17.204-.002 31.154-14.026 31.154-31.313 0-17.293-13.95-31.316-31.154-31.318"/><path d="m294.996 503.337-2.793-2.61-.15-1.091c-.802-5.655-4.218-11.359-4.251-11.441l-.281-.476 1.736-3.457a29.25 29.25 0 0 1 5.786 17.468q-.002.809-.047 1.607M274.96 522.426c-.656.334-.999.472-.999.474l-.228.094-6.389-4.076.568-9.816 5.016-4.824 10.73 3.745 1.21 6.497c-2.437 2.894-5.115 4.982-7.214 6.343a31 31 0 0 1-2.694 1.563M247.765 514.995l-.542-.705 1.24-6.965 10.541-2.523 6.062 4.807-.546 9.432-6.222 3.892c-6.681-2.265-9.889-7.096-10.533-7.938M243.375 500.495l-.089-.931a7 7 0 0 1-.031-.681c-.016-2.477 1.208-5.506 2.494-7.838a35 35 0 0 1 1.761-2.874c.48-.704.782-1.089.782-1.091l.024-.032h6.624l5.335 9.456-1.974 5.574-10.597 2.536zM260.088 479.462a33.734 33.734 0 0 1 7.244-.814c2.182-.001 4.562.248 6.722.966l.006.002 2.438 6.462-7.066 8.485-6.666.628-5.477-9.708zM284.331 505.279l-10.858-3.79-1.908-5.093 7.069-8.49 6.389 1.115.356.603c.001.002.795 1.347 1.69 3.352.897 2.002 1.869 4.642 2.196 7.044l.038.276zM278.7 475.475l-2.875 1.762-.886-.294c-2.557-.847-5.217-1.108-7.607-1.109-4.505.002-8.075.937-8.147.953l-.275.072-2.516-2.685a29 29 0 0 1 9.605-1.652 28.85 28.85 0 0 1 12.701 2.953M244.867 481.712l1.138 3.737c-.616.852-5.483 7.23-5.563 13.434q-.001.468.043.95l.048.502-3.52 3.08a29.166 29.166 0 0 1 7.854-21.703M240.577 515.841l4.165-.161.794 1.031c.571.735 4.365 6.477 12.092 8.967l.258.084 1.681 4.434c-8.181-1.867-15.044-7.182-18.99-14.355M272.587 530.158l1.943-4.449.503-.208c.118-.056 6.831-2.813 12.367-9.618l.002-.002h3.985c-3.931 7.104-10.717 12.38-18.8 14.277M370.727 503.406l-2.793-2.61-.15-1.091c-.802-5.655-4.218-11.359-4.25-11.441l-.281-.476 1.736-3.457a29.25 29.25 0 0 1 5.786 17.468 31 31 0 0 1-.048 1.607M350.69 522.495c-.656.334-.999.472-.999.474l-.228.094-6.389-4.076.568-9.816 5.016-4.824 10.73 3.745 1.21 6.497c-2.437 2.894-5.115 4.982-7.214 6.343a30 30 0 0 1-2.694 1.563M323.496 515.064l-.543-.705 1.24-6.965 10.54-2.523 6.061 4.807-.546 9.432-6.222 3.892c-6.678-2.264-9.886-7.095-10.53-7.938M319.106 500.564l-.089-.931a7 7 0 0 1-.031-.681c-.016-2.477 1.208-5.506 2.494-7.838a35 35 0 0 1 1.761-2.874c.48-.704.782-1.089.782-1.091l.024-.032h6.625l5.335 9.456-1.974 5.574-10.597 2.536zM335.819 479.531a33.712 33.712 0 0 1 7.244-.814c2.182-.001 4.561.248 6.722.966l.006.002 2.438 6.462-7.066 8.485-6.666.628-5.477-9.708zM360.061 505.348l-10.857-3.79-1.908-5.093 7.069-8.49 6.389 1.115.356.603c.001.003.795 1.347 1.69 3.352.897 2.002 1.869 4.642 2.196 7.044l.038.276zM354.431 475.545l-2.875 1.762-.886-.293c-2.557-.847-5.217-1.108-7.607-1.109-4.505.002-8.075.937-8.146.953l-.275.072-2.516-2.686a29 29 0 0 1 9.605-1.652 28.84 28.84 0 0 1 12.7 2.953M320.598 481.781l1.138 3.737c-.616.852-5.483 7.23-5.563 13.434q-.001.468.044.95l.048.502-3.52 3.079a29.16 29.16 0 0 1 7.853-21.702M316.308 515.911l4.165-.161.794 1.031c.571.735 4.365 6.477 12.092 8.967l.258.084 1.681 4.434c-8.181-1.867-15.044-7.183-18.99-14.355M348.318 530.227l1.943-4.449.503-.208c.118-.056 6.831-2.813 12.367-9.618l.002-.003h3.985c-3.93 7.105-10.717 12.382-18.8 14.278M294.996 577.898l-2.793-2.61-.15-1.091c-.802-5.655-4.218-11.359-4.251-11.441l-.281-.476 1.736-3.458a29.25 29.25 0 0 1 5.739 19.076M274.96 596.987c-.656.334-.999.472-.999.474l-.228.094-6.389-4.076.568-9.816 5.016-4.824 10.73 3.745 1.21 6.497c-2.437 2.894-5.115 4.982-7.214 6.343a31 31 0 0 1-2.694 1.563M247.765 589.556l-.542-.705 1.24-6.965 10.541-2.523 6.062 4.807-.546 9.432-6.222 3.892c-6.681-2.265-9.889-7.096-10.533-7.938M243.375 575.056l-.089-.931a7 7 0 0 1-.031-.681c-.016-2.477 1.208-5.506 2.494-7.838a35 35 0 0 1 1.761-2.874c.48-.704.782-1.089.782-1.091l.024-.032h6.624l5.335 9.456-1.974 5.574-10.597 2.536zM260.088 554.023a33.734 33.734 0 0 1 7.244-.814c2.182-.001 4.562.248 6.722.966l.006.002 2.438 6.462-7.066 8.485-6.666.628-5.477-9.708zM284.331 579.84l-10.858-3.79-1.908-5.093 7.069-8.49 6.389 1.115.356.603c.001.003.795 1.347 1.69 3.352.897 2.002 1.869 4.642 2.196 7.044l.038.276zM278.7 550.037l-2.875 1.762-.886-.293c-2.557-.847-5.217-1.108-7.607-1.109-4.505.002-8.075.937-8.147.953l-.275.072-2.516-2.686a29 29 0 0 1 9.605-1.652 28.8 28.8 0 0 1 12.701 2.953M244.867 556.273l1.138 3.737c-.616.852-5.483 7.23-5.563 13.434q-.001.468.043.95l.048.502-3.52 3.079a29.165 29.165 0 0 1 7.854-21.702M240.577 590.402l4.165-.161.794 1.031c.571.735 4.365 6.477 12.092 8.967l.258.084 1.681 4.434c-8.181-1.866-15.044-7.182-18.99-14.355M272.587 604.719l1.943-4.449.503-.208c.118-.056 6.831-2.813 12.367-9.618l.002-.003h3.985c-3.931 7.105-10.717 12.381-18.8 14.278M370.727 577.967l-2.793-2.61-.15-1.091c-.802-5.655-4.218-11.359-4.25-11.441l-.281-.476 1.736-3.458a29.25 29.25 0 0 1 5.786 17.468q-.003.81-.048 1.608M350.69 597.056c-.656.334-.999.472-.999.474l-.228.094-6.389-4.076.568-9.816 5.016-4.824 10.73 3.745 1.21 6.497c-2.437 2.893-5.115 4.982-7.214 6.343a30 30 0 0 1-2.694 1.563M323.496 589.625l-.543-.705 1.24-6.965 10.54-2.523 6.061 4.807-.546 9.432-6.222 3.892c-6.678-2.264-9.886-7.095-10.53-7.938M319.106 575.125l-.089-.931a7 7 0 0 1-.031-.681c-.016-2.477 1.208-5.506 2.494-7.838a35 35 0 0 1 1.761-2.874c.48-.704.782-1.089.782-1.091l.024-.032h6.625l5.335 9.456-1.974 5.574-10.597 2.536zM335.819 554.092a33.712 33.712 0 0 1 7.244-.814c2.182-.001 4.561.247 6.722.966l.006.002 2.438 6.462-7.066 8.485-6.666.628-5.477-9.708zM360.061 579.909l-10.857-3.79-1.908-5.093 7.069-8.49 6.389 1.115.356.603c.001.003.795 1.347 1.69 3.352.897 2.002 1.869 4.642 2.196 7.044l.038.276zM354.431 550.106l-2.875 1.762-.886-.293c-2.557-.847-5.217-1.108-7.607-1.109-4.505.002-8.075.937-8.146.953l-.275.072-2.516-2.685a29 29 0 0 1 9.605-1.652 28.8 28.8 0 0 1 12.7 2.952M320.598 556.342l1.138 3.737c-.616.852-5.483 7.23-5.563 13.434q-.001.468.044.95l.048.502-3.52 3.08a29.162 29.162 0 0 1 7.853-21.703M316.308 590.472l4.165-.161.794 1.031c.571.735 4.365 6.477 12.092 8.967l.258.084 1.681 4.434c-8.181-1.867-15.044-7.183-18.99-14.355M348.318 604.789l1.943-4.449.503-.208c.118-.056 6.831-2.813 12.367-9.618l.002-.002h3.985c-3.93 7.103-10.717 12.38-18.8 14.277" style="fill:#fff"/><path d="m310.608 575.468-4.329-.164v-21.588c7.867-.873 14.409-4.136 19.346-8.478a59 59 0 0 0 3.442 2.508 30.7 30.7 0 0 1 5.924-1.961 57 57 0 0 1-5.948-4.002c2.555-2.981 4.454-6.247 5.649-9.483a30.7 30.7 0 0 1-4.591-1.452c-.994 2.614-2.59 5.312-4.737 7.806-8.763-8.208-14.314-19.477-16.244-35.405l1.498-.18a31 31 0 0 1-.034-1.27c.002-1.221.081-2.423.217-3.607l-4.523.542v-31.707h-4.821v31.707l-4.507-.54c.13 1.162.203 2.34.203 3.536 0 .449-.015.895-.034 1.339l1.497.18c-1.929 15.929-7.481 27.198-16.244 35.406-2.165-2.516-3.768-5.237-4.76-7.871a31 31 0 0 1-4.591 1.45c1.193 3.258 3.1 6.548 5.673 9.55a58 58 0 0 1-5.869 3.955 30.8 30.8 0 0 1 5.899 1.971 59 59 0 0 0 3.387-2.47c4.937 4.341 11.478 7.604 19.346 8.477v21.589l-4.325.164c.007.274.02.547.02.823 0 1.36-.096 2.697-.263 4.011l1.719-.065c-2.134 16.198-15.491 28.705-31.804 29.06l.107 4.821c15.96-.36 29.38-10.782 34.545-25.234v25.946h4.821v-25.947c5.166 14.453 18.586 24.874 34.546 25.234l.108-4.82c-16.314-.354-29.671-12.862-31.805-29.061l1.716.065a32 32 0 0 1-.26-3.941c.003-.302.017-.597.026-.894m-4.329-60.946c2.945 11.482 8.307 20.518 15.671 27.508a29.9 29.9 0 0 1-15.671 6.848zm-4.821 34.356a29.9 29.9 0 0 1-15.671-6.848c7.364-6.99 12.726-16.025 15.671-27.506z" style="fill:#962352"/><path d="m579.81 327.792-7.767-13.936-5.289-9.495-5.413 9.434-.31.541-32.128 2.569-8.844-5.343c-.982-.599-2.111-1.432-3.702-3.47-.012-.008-4.415-5.622-7.814-9.958l24.76-18.577c1.755-1.321 2.669-1.687 4.075-2.252l7.616-3.043c.202-.081-4.838-6.533-4.838-6.533l-14.868-18.963-4.842 6.183c-1.079 1.382-1.681 2.162-3.393 3.443l-23.369 17.514-3.582-1.499c-1.056-.447-2.313-1.109-4.311-2.939.021.017-5.211-4.862-9.248-8.627l21.51-22.077c1.517-1.57 2.378-2.074 3.651-2.851l7.007-4.209c.208-.128-5.77-5.686-5.77-5.686l-17.729-16.505-3.782 6.974c-.73 1.345-1.211 2.226-2.801 3.88l-4.676 4.806 2.739-6.083 3.12-6.926 2.196-4.855-45.481-28.899-2.38 7.683c-.394 1.254-.703 2.246-2.004 4.25.011-.023-6.407 9.638-12.051 18.135l6.446-17.536c2.078-5.699 1.099-9.878-.084-12.386-1.184-2.501-3.793-5.901-9.509-7.898.007 0-37.997-13.365-37.997-13.365l-7.484-2.633-.683 7.898c-.145 1.708-.229 2.666-.958 4.643-.012.022-8.93 24.299-11.813 32.145-.987-2.724-16.107-44.292-16.107-44.292l-1.365-3.719-3.938-.309-16.169-1.268-11.163-.874 5.255 9.882.24.453-4.547 8.208-1.698-6.54-1.9-7.347-1.301-5.03-5.171.45-47.761 4.082-.407 5.205-.572 7.562-.011.14-.134-.271-3.382-6.815-2.273-4.63-45.895 13.368-5.074 1.479.696 5.238.794 5.935c-.201-.658-.316-1.251-.452-1.968l-1.473-7.726c-.084-.447-7.229 2.845-7.229 2.845l-14.888 6.866-7.431 3.43 5.356 6.183c1.15 1.321 1.792 2.051 2.707 3.974l.543 1.126-6.793-7.215-3.507-3.719-4.304 2.77-24.245 15.651c-5.073 3.271-6.809 7.182-7.36 9.889-.558 2.72-.504 7.03 2.919 12.104-.009 0 8.788 13.044 13.666 20.275l-1.992 1.69-11.011 9.364-2.405 2.05-5.984-5.197c-3.755-3.243-7.931-4.643-11.975-4.264l5.876-2.874-16.024-9.908-4.357-2.693-26.215 28.898c-3.89 4.29-4.502 8.45-4.337 11.183.249 4.055 2.306 7.864 5.968 11.031-.007-.013 8.587 7.464 8.587 7.464 7.293 6.314 16.072 5.894 22.379-1.039l10.392-11.459.143.125-11.497 12.676c-1.634 1.798-3.033 2.707-3.92 3.167l-5.124 2.618-.302-.208-.408.57-3.859 1.972 1.696 1.053-.939 1.314-8.352 11.728-3.645 5.117 2.438 1.659c-11.387-.719-44.26-2.802-44.26-2.802l-3.934-.249-1.873 3.47-7.565 14.027-5.346 9.902 11.22-.847.685-.052 25.534 31.66c.881 1.052 2.122 3.049 3.285 5.265l5.386 10.151 5.46-10.117 4.462-8.248 2.969-5.48-5.531-2.892c-1.499-.793-2.831-1.923-3.298-2.475.004 0-1.37-1.643-2.733-3.274l6.682-12.368 4.584.351c1.354.094 2.361.365 2.769.519l5.57 5.265 3.813-7.051 7.653-14.171.729.496 3.49-4.898 11.997-16.808-.469-.32 1.101-1.213 22.746-25.052c3.255-3.595 4.225-7.091 4.36-9.739l2.593 2.914 4.58-3.89 15.816-13.425-2.182-2.459c3.182.121 6.531-.84 9.835-2.967l23.398-15.102c1.837-.658 6.492-2.809 6.492-2.809l22.289-10.309-5.329-6.169-.007-.007-.205-.242c-.958-1.1-1.583-1.836-2.482-3.702-.009-.025-7.575-15.702-12.311-25.514l5.483-4.283c.827-.656 1.762-1.261 4.825-2.148l1.6-.467 8.944 29.365c.626 2.081.646 3.009.683 4.553l.178 8.009c0 .131 7.693-2.115 7.693-2.115l15.782-4.606 7.834-2.287-4.364-6.906c-.904-1.419-1.418-2.239-2.024-4.263l-8.929-29.262 1.465-.424c3.056-.894 4.192-.881 5.265-.783l5.515.509-.122 1.562 2.673-1.326 2.892.267-.675-1.367 4.807-2.385c.941-.461 2.044-.905 5.218-1.187-.004.003.672-.053 1.617-.131l2.72 30.472c.192 2.155.02 3.073-.282 4.58l-1.557 7.995c-.007.074 8.1-.615 8.1-.615l24.417-2.085-.288-.796 5.06.396 6.039.484.565-6.035c.164-1.748.723-3.366 1.032-3.971a790 790 0 0 0 2.045-3.799l14.508 1.136 1.455 4.17c.4 1.143.547 2.101.569 2.538l-2.953 7.309 8.362.652 17.993 1.407c1.554.56 2.897 1.03 2.897 1.03l38.023 13.362c2.404.842 4.709 1.201 6.869 1.126l-.057.05c-.269.225 6.617 4.606 6.617 4.606l34.181 21.723 2.377 1.515a308 308 0 0 0 2.058 1.935l29.541 27.51 1.21 1.124c.971 1.248 1.786 2.286 1.786 2.286l24.844 31.632 3.16 4.038.101-.054 3.604 6.502 2.932 5.282 5.333-2.835c1.577-.827 3.292-1.268 4.004-1.352-.042.007 2.252-.212 4.462-.424l6.835 12.293-2.717 3.402c-.843 1.045-1.62 1.691-1.951 1.901l-7.978 1.357 13.009 23.337 7.713 13.832 3.623-15.325c.229-.637 1.156-2.03 2.745-4.146-.047.067 29.181-37.445 29.181-37.445l2.508-3.224zM176.651 203.999l7.939 16.459-2.997 4.282c-.652.928-1.5 1.819-3.534 3.12-.005.01-6.447 4.169-10.318 6.669l-13.796-20.45 10.09-6.52c2.038-1.314 3.227-1.735 4.391-1.963zm271.789 35.306-10.776-6.858 1.793-2.697 9.3 5.91c1.765 1.123 2.949 2.32 3.429 3.003l2.079 2.96-1.081-.227c-1.123-.242-2.478-.652-4.744-2.091m10.48-19.303c-.016-.008-5.021-3.184-9.131-5.792l1.53-2.304 11.01 6.993c2.239 1.426 3.161 2.458 3.843 3.362l.111.148-3.177-.568c-.887-.157-2.458-.722-4.186-1.839m2.189 20.365 1.221-1.835 4.814-7.229 2.729-4.107 1.766 2.354zm-69.303-30.829-7.234-2.55 8.425-22.955 7.258 2.51c-2.12 5.766-6.375 17.343-8.449 22.995m-83.364-36.906-12.336 22.27-2.206-24.718 1.558-.132c3.221-.282 4.317-.05 5.329.262z"/><path d="M81.239 344.604c-.373-.353-.635-.498-1.049-.71-1.116-.582-3.097-1.083-5.225-1.234l-8.567-.652-10.554 19.555 5.41 6.472c1.032 1.234 3.009 2.851 5.164 3.981l-4.462 8.247c-1.19-2.259-2.687-4.737-3.937-6.244l-27.564-34.17-3.907.296 7.575-14.038 48.127 3.05c2.629.145 5.77.235 7.545-.4zm-42.72-4.465 12.965 15.9 7.857-14.501zM93.515 325.385l-8.53-5.82 8.359-11.721 8.523 5.834zM129.343 281.431l-22.746 25.059-6.533-4.061c1.755-.897 3.719-2.364 5.679-4.512l14.014-15.466c1.191-1.295 1.177-2.327-.545-3.806l-5.06-4.401c-1.432-1.241-2.548-1.392-3.823.027l-12.723 14.034c-3.974 4.374-8.89 4.791-13.802.544l-8.597-7.477c-4.263-3.685-5.531-8.547-1.103-13.436l22.779-25.113 6.56 4.048c-1.873.925-3.558 2.192-5.729 4.58l-13.873 15.281c-1.392 1.533-1.268 2.552.276 3.89l4.008 3.477c1.237 1.083 2.36 1.352 3.702-.131l12.582-13.862c4.482-4.949 9.552-4.496 13.805-.811l10.151 8.806c4.357 3.788 5.255 8.612.978 13.33M141.447 270.16l-6.828-7.679 11.014-9.364 6.839 7.683zM189.793 235.18l-24.232 15.645c-5.578 3.601-10.271 2.175-13.654-2.831l-16.842-24.975c-3.396-5.027-2.892-9.784 2.683-13.378l24.255-15.651 5.245 5.568c-2.058.407-3.958 1.173-6.557 2.838l-13.163 8.513c-1.352.874-1.852 1.926-.716 3.587l17.722 26.276c1.136 1.681 2.313 1.637 3.685.763l13.16-8.496c2.596-1.675 4.061-3.08 5.238-4.771zM196.205 232.5c-.323-1.729-.565-3.319-1.92-6.106l-16.018-33.212c-1.342-2.797-2.438-3.981-3.601-5.329l14.888-6.866c.336 1.722.565 3.319 1.92 6.103l16.031 33.202c1.328 2.794 2.431 3.995 3.588 5.323zM238.196 171.401l-7.451 2.162 10.742 35.186c.874 2.955 1.769 4.304 2.72 5.8l-15.783 4.6c-.037-1.755-.057-3.372-.958-6.321l-10.709-35.186-7.43 2.162c-3.51 1.025-5.259 1.926-6.893 3.208l-.999-7.504 40.939-11.926 3.372 6.822c-2.077-.193-4.047-.022-7.55.997M294.94 163.924l-7.713.649 3.265 36.571c.275 3.083.888 4.569 1.496 6.224l-16.425 1.405c.34-1.728.656-3.305.38-6.385l-3.265-36.564-7.733.656c-3.635.309-5.534.874-7.411 1.795l.582-7.552 42.552-3.638 1.9 7.343c-2.003-.609-3.969-.821-7.628-.504M337.365 208.772c.185-.454.218-.767.249-1.22.094-1.231-.202-3.188-.891-5.178l-2.78-7.952-22.517-1.772-3.988 7.424c-.729 1.426-1.459 3.836-1.684 6.21l-9.499-.743c1.641-1.963 3.389-4.291 4.311-5.999l21.189-38.262-1.795-3.396 16.159 1.274 16.169 44.436c.874 2.387 2.058 5.265 3.346 6.61zm-12.706-40.151-9.798 17.958 16.734 1.301zM397.845 224.891l-38.027-13.352c1.035-1.453 1.997-2.74 3.079-5.652l12.682-34.54c1.083-2.898 1.18-4.505 1.332-6.26l38.003 13.358c6.277 2.206 7.912 6.714 5.851 12.37l-10.356 28.162c-2.084 5.666-6.28 8.116-12.564 5.914m9.431-39.62c.703-1.886-.027-2.804-1.564-3.346l-16.415-5.675-12.649 34.47 16.361 5.756c1.543.524 2.707.289 3.386-1.597zM446.712 253.013l-34.174-21.723c1.321-1.177 2.576-2.219 4.304-4.801l20.442-30.785c1.694-2.582 2.212-4.119 2.737-5.793l34.188 21.727-3.12 6.933c-1.177-1.577-2.68-3.077-5.46-4.869l-16.099-10.218-8.332 12.551 14.397 9.145c2.267 1.453 4.6 2.391 6.432 2.713l-4.814 7.229c-1.039-1.479-2.872-3.194-5.165-4.647l-14.384-9.145-8.594 12.931 16.071 10.235c2.811 1.775 4.835 2.504 6.785 2.912zM481.575 284.662l-29.541-27.503c1.53-.908 2.962-1.722 5.151-3.947l25.879-26.579c2.162-2.236 2.938-3.682 3.772-5.212l11.919 11.092c-1.523.918-2.932 1.722-5.104 3.961l-25.903 26.579 13.889 12.938c2.438 2.246 4.267 3.326 6.086 4.085zM510.063 320.413l-24.837-31.642c1.691-.652 3.214-1.23 5.722-3.117l29.793-22.345c2.488-1.866 3.45-3.168 4.546-4.573l10.019 12.78c-1.661.669-3.188 1.24-5.696 3.126l-29.783 22.339 11.674 14.892c2.017 2.592 3.692 3.934 5.383 4.959zM532.627 358.917c.461-.074.763-.232 1.157-.461 1.122-.578 2.639-1.899 3.96-3.554l5.295-6.624-10.799-19.417-8.543.82c-1.597.178-4.072.888-6.227 2.024l-4.549-8.21c2.568.276 5.521.437 7.471.255l44.358-3.543 1.92-3.355 7.771 13.936-29.245 37.516c-1.543 2.051-3.376 4.566-3.796 6.354zm27.419-32.321-20.725 1.789 8.016 14.407z" style="fill:#fff"/></svg>