<svg xmlns="http://www.w3.org/2000/svg" xml:space="preserve" viewBox="0 0 612 792"><path d="M304.837 678.458c-61.585-21.621-113.451-54.189-154.161-96.773-59.054-61.783-90.263-141.844-90.263-231.548V113.39h494.174v236.748c0 89.704-31.209 169.765-90.252 231.548-40.71 42.584-92.587 75.151-154.172 96.773l-2.663.932z" style="fill:#1e3c69"/><path d="M307.5 670.886c-60.38-21.204-111.193-53.071-151.027-94.768-57.585-60.237-88.017-138.381-88.017-225.976V121.416h478.098v228.726c0 87.595-30.442 165.738-88.028 225.976-39.833 41.696-90.635 73.564-151.026 94.768" style="fill:#fff"/><path d="M76.895 136.501h57.728v19.626h-19.045v84.768H95.36v-84.768H76.895z" style="fill:#1e3c69"/><path d="M164.375 179.533c-6.005 0-10.98 2.121-14.947 6.351q-5.95 6.345-5.95 16.273c0 6.651 2.016 12.142 6.049 16.438q6.064 6.453 14.925 6.454c6.093 0 11.145-2.109 15.166-6.339 4.011-4.23 6.027-9.775 6.027-16.63 0-6.712-2.017-12.142-6.027-16.306-4.022-4.153-9.096-6.241-15.243-6.241m20.393-15.845h19.331v77.206h-19.331v-8.208c-3.78 3.584-7.583 6.153-11.396 7.736-3.814 1.578-7.934 2.367-12.383 2.367-9.983 0-18.629-3.862-25.917-11.583-7.287-7.709-10.936-17.303-10.936-28.77 0-11.896 3.528-21.637 10.585-29.242 7.046-7.594 15.616-11.392 25.697-11.392 4.635 0 8.997.866 13.063 2.592 4.065 1.731 7.824 4.323 11.287 7.792zM213.435 163.693h16.711v9.803c1.786-3.825 4.164-6.729 7.145-8.718q4.439-2.975 9.731-2.976 3.745 0 7.835 1.989l-5.994 16.717c-2.269-1.129-4.121-1.693-5.578-1.693-2.958 0-5.468 1.842-7.517 5.523-2.049 3.682-3.068 10.893-3.068 21.653l.066 3.748v31.154h-19.331zM287.929 179.533c-5.994 0-10.991 2.121-14.947 6.351-3.978 4.23-5.961 9.654-5.961 16.273 0 6.651 2.016 12.142 6.06 16.438 4.032 4.301 9.007 6.454 14.914 6.454 6.104 0 11.155-2.109 15.166-6.339 4.022-4.23 6.027-9.775 6.027-16.63 0-6.712-2.005-12.142-6.027-16.306-4.011-4.153-9.084-6.241-15.232-6.241m20.382-15.845h19.331v77.206h-19.331v-8.208c-3.78 3.584-7.583 6.153-11.385 7.736q-5.72 2.367-12.394 2.367c-9.983 0-18.629-3.862-25.905-11.583-7.298-7.709-10.947-17.303-10.947-28.77 0-11.896 3.528-21.637 10.585-29.242 7.046-7.594 15.616-11.392 25.697-11.392 4.646 0 8.986.866 13.063 2.592 4.076 1.731 7.835 4.323 11.287 7.792zM341.482 163.693h19.33v7.967c4.405-3.693 8.384-6.252 11.956-7.698 3.572-1.441 7.21-2.159 10.947-2.159 7.671 0 14.169 2.663 19.506 8.006q6.738 6.798 6.739 20.13v50.956h-19.199v-33.757c0-9.199-.416-15.304-1.228-18.322-.833-3.03-2.269-5.331-4.317-6.904-2.061-1.577-4.592-2.378-7.616-2.378-3.912 0-7.276 1.315-10.081 3.929-2.816 2.625-4.767 6.241-5.852 10.876-.57 2.4-.855 7.605-.855 15.627v30.93h-19.33zM425.16 135.191h19.33v28.502h11.495v16.723H444.49V240.9h-19.33v-60.484h-9.885v-16.723h9.885zM497.375 179.978c-6.027 0-11.035 2.088-15.046 6.263-4 4.164-6.005 9.518-6.005 16.021 0 6.69 1.983 12.12 5.94 16.273 3.955 4.153 8.975 6.229 15.034 6.229 6.071 0 11.112-2.109 15.145-6.307q6.049-6.293 6.049-16.196c0-6.607-1.983-11.972-5.939-16.098-3.957-4.12-9.02-6.185-15.178-6.185m-.285-18.18q10.947 0 20.579 5.457c6.433 3.633 11.442 8.559 15.035 14.788 3.616 6.229 5.413 12.958 5.413 20.174 0 7.271-1.808 14.071-5.446 20.389-3.627 6.334-8.558 11.27-14.826 14.837-6.246 3.557-13.15 5.343-20.689 5.343-11.078 0-20.558-3.929-28.403-11.786-7.835-7.862-11.77-17.401-11.77-28.634 0-12.043 4.439-22.059 13.304-30.086 7.769-6.992 16.699-10.482 26.803-10.482M92.017 452.487c14.136 44.162 37.751 84.061 70.265 118.098 38.365 40.129 87.206 70.998 145.219 91.765 58.013-20.767 106.865-51.636 145.229-91.765 32.503-34.036 56.129-73.936 70.254-118.098z" style="fill:#1e3c69"/><path d="M525.449 444.444c8.635-29.741 13.062-61.333 13.062-94.302v-92.821H76.489v92.821c0 32.969 4.438 64.561 13.073 94.302z" style="fill:#ae1f23"/><path d="M166.259 335.689c-17.807 0-32.305-14.49-32.305-32.31 0-17.811 14.498-32.3 32.305-32.3s32.305 14.489 32.305 32.3c0 17.82-14.498 32.31-32.305 32.31" style="fill:#fff"/><path d="M166.16 326.833h-.011l-7.386-.033-.088.214c-3.211-2.504-5.83-6.608-7.44-11.684l6.728-10.773c3.123-.203 10.673-.608 16.218-.077l6.521 10.435c-1.578 5.151-4.165 9.36-7.364 11.952zm-7.331-46.991 7.32-.021h.011l6.75-.033c3.342 2.525 6.082 6.778 7.726 12.056l-6.597 10.571a70 70 0 0 1-8.58.548c-2.323 0-4.822-.131-7.265-.504l-6.893-11.031c1.655-5.054 4.296-9.115 7.528-11.586m22.706 35.926 11.177-4.849a68 68 0 0 1 2.937 2.828c.153-.46.307-.921.449-1.381a124 124 0 0 1-2.926-2.926v-12.445a61 61 0 0 1 2.816-2.975c-.153-.461-.307-.921-.461-1.371-.942.986-1.951 2.011-2.98 3.019l-11.134-4.828c-1.567-5.326-4.087-9.738-7.221-12.577l1.907-4.444a31 31 0 0 0-19.955.088l1.797 4.083c-3.309 2.866-5.983 7.442-7.605 13.042l-10.662 4.625a57 57 0 0 1-2.784-2.696q-.246.69-.46 1.381c.866.832 1.742 1.709 2.597 2.581v13.223a62 62 0 0 1-2.477 2.559c.153.471.307.932.471 1.392.931-.976 1.928-1.99 2.937-2.987l10.268 4.466c1.6 5.705 4.273 10.396 7.616 13.322l-1.709 3.897a31.4 31.4 0 0 0 10.147 1.692c3.43 0 6.739-.559 9.841-1.595l-1.841-4.274c3.167-2.902 5.699-7.419 7.255-12.85" style="fill:#ae1f23"/><path d="M259.393 531.848c-.647-1.271-1.14-2.039-1.676-2.773-.702-.932-1.392-1.743-2.039-2.532-1.49-1.841-3.254-4.207-3.758-7.856-.724-5.161.405-10.422 2.98-15.682 12.164-17.347 22.53-27.209 29.96-33.554 3.55-3.058 6.389-5.261 8.339-7.014.91-.833 1.381-1.358 1.6-1.677l.23-2.137c-6.465-.668-13.183-.756-20.152-.273-10.279 1.281-18.366-4.646-14.125-17.983.318-2.903 1.008-4.646-2.257-4.832-7.956 2.115-15.232 7.791-21.829 17.018-8.033 9.973-9.961 19.287-27.944 30.53-15.506 10.958-21.675 24.656-18.465 41.094 1.71 11.155-.8 17.84-7.55 24.579-6.104 5.172-12.843 13.336-5.775 17.336 5.14 2.575 15.67 3.606 26.333-4 22.12-16.156 40.322-26.073 54.676-29.354-6.632 11.433-9.828 21.659-14.12 26.045-7.495 7.211-9.172 4.055-14.212 4.153-5.228-.888-15.769 4.921-3.398 6.827 8.329 4.252 10.433.812 14.706 4.976 4.033 3.66 10.312.481 10.761-3.836 1.15-4.701 2.487-6.137 5.644-8.941l17.358-12.646-15.279-17.455zM474.482 463.314c-1.601 4.624-6.411 8.525-12.208 8.832-6.191-.592-18.782 3.704-23.439 12.055-8.832-16.065-26.65-4.669-25.368-20.887 1.117-8.668-5.545-8.416-8.197-2.411-11.397 28.426 12.69 35.658 22.486 50.102 7.452 12.821 3.847 19.922-5.15 23.779-18.749 10.213-35.318-8.986-60.369-39.187q-9.074-10.882-19.494-18.607l-.888.81a27.5 27.5 0 0 1-3.507 2.214c-.932.482-1.841.898-2.739 1.315-1.479.733-2.619 1.402-3.869 2.772-11.166 12.975-23.987 19.988-33.904 24.975-4.745 2.389-8.909 4.317-11.978 6.29-1.973 1.271-2.937 2.225-3.386 2.903.351.625.449.625.833.877l2.882 1.962c3.956 2.192 6.477 4.449 8.581 8.065.91 1.589 1.764 3.463 2.696 5.818.832 2.115 1.764 4.624 2.958 7.726l2.104 3.66h-.395c4.23 2.389 8.646 3.879 14.027 3.331 2.323.307 3.364-2.082.482-5.774-5.666-6.159-8.273-11.408-7.868-15.726 13.928-3.518 31.625-1.929 51.865 14.114 40.458 35.812 71.459 25.38 82.373-2.718 5.469-16.864 4.701-25.335 11.396-31.801 7.868-8.985 25.215-13.489 25.38-32.436.777-12.327-3.211-16.699-5.304-12.053M212.262 383.84c-.197-9.518 3.616-14.744 2.235-20.558-4.931-5.683-6.433-5.781-4.493-.329-5.819 2.854-5.14-.313-6.093-7.057-1.622-5.14-4.329-6.017-5.797-2.893l-1.271 15.418c-1.577 3.129 3.562 8.279 15.419 15.419" style="fill:#fff"/><path d="m517.088 438.45-76.695-74.635-.111-1.826q.92-9.297-4.175-9.956c-3.572-.838-6.663-1.792-9.314-2.882-.863-.401-1.694-.759-2.536-1.04l-39.972-38.897c4.307-5.901 3.792-14.229-1.534-19.561l-11.999-12.005 1.435-2.537c-3.507-2.005-8.273-3.644-12.196-4.657l6.586 6.586 11.178 11.222c4.306 4.301 4.712 11.035 1.161 15.725l-15.714-12.75c.328-.438.734-.92 1.227-1.392-1.261-.898-6.181-3.309-9.479-4.744 1.436 3.298 3.847 8.213 4.734 9.468a11 11 0 0 1 1.381-1.211l13.237 15.462a12.166 12.166 0 0 1-16.164-.942l-11.221-11.172-6.586-6.592c1.008 3.929 2.651 8.674 4.657 12.202l2.542-1.44 12 11.999c5.434 5.43 13.993 5.868 19.911 1.266l37.752 38.845-.352 2.27 2.246 5.452c.395 1.808-.449 5.659-2.575 11.56-7.703 12.849-18.278 21.275-23.44 31.478-5.008-4.734-11.32-10.093-16.383-13.489-4.537-2.378-11.495-3.244-14.454-8.351-6.421-9.638-11.835-10.952-19.911-11.556l-9.632-.651c-3.847 0-5.469-2.044-5.14-5.129l1.217-2.772s1.983-1.605 2.641-1.413c1.61.482 2.893-.428 4.559-2.707-17.457-4.126-2.104-18.465-16.767-25.872-3.222-1.315-6.476-2.236-10.278-1.929-.559 2.005-.428 3.545 0 6.75-.734.789-1.37 1.967-1.929 3.528l-2.247 13.814c-.153 1.638-.329 3.128 1.282 4.169 1.863.888 4.175 1.293 5.95 2.247-.196 2.087-.536 4.026-1.128 6.744q-13.33.502-22.487 7.71c-7.419 6.049-19.1 11.489-27.056 13.242-1.961 1.244-3.89 3.436-5.896 6.439-1.655 3.09-2.652 5.161-4.263 7.232a375 375 0 0 0-1.753 3.287c7.09 1.841 14.596 1.797 22.519-.175l18.706-6.575c-.329 4.449.317 7.386.953 12.525l1.293 3.539 4.482 17.018 3.54 13.489-1.764 16.372c.121 5.26-17.183 10.925-40.305 43.68-2.29 4.689-3.156 9.073-2.575 13.172.68 4.865 4.504 6.421 7.068 11.879 3.134 4.832 11.89 11.243 31.154 37.258 1.008 1.95 2.104 4.777 3.266 8.416 1.852 12.163.866 19.33-2.937 21.456-1.6 1.337-.405 2.936 3.518 4.821q6.575.757 11.572-6.114c7.068-8.351.965-16.054 4.81-25.051 3.54-4.493-.964-13.489-7.221-11.561l-1.765-.636-5.14-5.14-4.175-9.008c-4.822-12.515-5.457-15.725-12.536-19.593-5.446-3.836-4.351-2.39-6.093-6.411 1.819-10.334 29.554-12.525 50.748-37.247 3.529-3.857 6.739-3.857 10.597-6.75 9.314-8.044 2.893-18.629 2.247-25.051-2.938-18.498 2.093-38.409 7.386-50.112 12.284 9.26 34.343 23.177 41.762 26.333q3.55 1.94 6.411 0c8.471-6.531 14.465-15.199 17.993-26.004q6.41-17.968 14.761-29.549c.76-.762 1.486-1.406 2.198-1.934l76.68 78.899c5.075 5.064 13.875-3.199 8.538-8.535M178.915 436.992c5.052-7.999 10.937-16.503 16.273-24.766 5.698-8.832 10.695-17.248 13.489-24.524l-9.917-7.271-2.291-2.493c-13.873 14.454-29.434 28.514-46.288 37.159 2.356 6.225 7.32 8.328 13.271 10.718 1.655.657 3.298 1.314 4.898 2.06 1.633.767 3.276 1.643 4.811 2.762 2.226 1.599 4.21 3.637 5.754 6.355" style="fill:#fff"/><path d="M228.984 426.604c6.498-4.603 11.309-13.293 15.956-22.049 2.323-4.383 4.559-8.624 6.882-12.142 2.345-3.55 4.975-6.657 8.295-8.443l9.643-3.029c-9.654-3.715-15.572-1.907-20.163-.192-1.469.554-2.806 1.091-4.065 1.496-1.337.411-2.762.729-4.252.657-3.178-.131-5.972-1.994-8.778-5.785-2.356-3.759-4.712-5.173-6.947-6.038-1.282-.505-2.543-.855-3.77-1.305a17 17 0 0 1-1.447-.592l-3.835 16.997c1.019 2.559.822 6.608.46 10.081-.438 4.044-1.282 8.317-1.885 11.101-.668 22.355 8.624 23.232 13.906 19.243M254.396 418.594c-.976 3.474-2.882 7.353-6.422 11.736l26.629-3.891c1.052-2.903 1.633-4.679 1.885-5.896.241-1.096.164-1.468.033-2.017-.208-.898-.537-1.928-.647-4.054-.088-1.491-.066-3.561.186-6.565-.482.176-.975.361-1.479.526a41 41 0 0 1-5.797 1.534c-3.748.712-8.164.986-13.501.351.022.679.033 1.381.011 2.137a24.5 24.5 0 0 1-.898 6.139M311.248 326.911c2.246-6.263 13.873-9.008 20.776-7.161 10.093 2.707 18.564 11.818 13.906 23.544-.472 1.2-3.354 4.313-3.847 5.457-1.348 2.22-3.857 4.915-4.821 6.416-15.166-3.846-1.282-15.73-15.418-26.009-2.761-1.463-7.276-1.786-10.596-2.247" style="fill:#fff"/></svg>