<svg xmlns="http://www.w3.org/2000/svg" width="1000" height="1000" viewBox="0 0 1000 1000"><path fill="#caa55a" d="M425.164 944.513C160.534 795.033-45.483 489.748 15.57 88.553 117.419 37.174 263.413 4.776 425.164 4.776c161.608 0 307.603 32.398 409.457 83.775 60.921 401.196-144.97 706.48-409.457 855.961"/><path fill="none" stroke="#343536" stroke-width="9.553975549999999" d="M425.164 944.513C160.534 795.033-45.483 489.748 15.57 88.553 117.419 37.174 263.413 4.776 425.164 4.776c161.608 0 307.603 32.398 409.457 83.775 60.921 401.196-144.97 706.48-409.457 855.961z"/><path fill="#006ea5" d="m38.033 273.788-.39-5.809-.773-28.783c100.426-57.315 237.516-98.363 388.294-98.363 150.635 0 287.595 41.174 388.026 98.363l-.778 28.783-.385 5.809L425.164 422.49z"/><path fill="none" stroke="#343536" stroke-width="5.03429625" d="m38.033 273.788-.39-5.809-.773-28.783c100.426-57.315 237.516-98.363 388.294-98.363 150.635 0 287.595 41.174 388.026 98.363l-.778 28.783-.385 5.809L425.164 422.49z"/><path fill="#fff" d="m810.085 302.45-3.357 30.975-4.77 31.884-4.394 23.364-372.4 143.027L52.621 388.673l-4.52-23.364-4.649-31.884-3.356-30.975 385.068 147.927Z"/><path fill="none" stroke="#343536" stroke-width="5.03429625" d="m810.085 302.45-3.357 30.975-4.77 31.884-4.394 23.364-372.4 143.027L52.621 388.673l-4.52-23.364-4.649-31.884-3.356-30.975 385.068 147.927Z"/><path fill="#006ea5" d="m326.407 838.529-42.467-37.173-40.015-40.275-19.108-21.421-18.33-22.084-17.555-22.845-16.91-23.623-16.007-24.272-15.233-25.171-14.199-25.687-13.425-26.46-12.39-27.239L89.28 514.4l-10.458-28.527-9.294-29.047-8.261-29.821-1.808-7.872L425.164 559.45l365.562-140.317-1.808 7.872-8.26 29.82-9.295 29.048-10.458 28.527-11.492 27.88-12.386 27.238-13.425 26.46-14.329 25.687-15.103 25.171-16.007 24.272-16.91 23.623-17.551 22.845-18.46 22.084-18.977 21.421-40.14 40.275-42.347 37.173c-31.754 24.916-63.897 48.41-98.614 68.936-34.864-20.522-67.003-44.015-98.757-68.936"/><path fill="none" stroke="#343536" stroke-width="5.03429625" d="m326.407 838.529-42.467-37.173-40.015-40.275-19.108-21.421-18.33-22.084-17.555-22.845-16.91-23.623-16.007-24.272-15.233-25.171-14.199-25.687-13.425-26.46-12.39-27.239L89.28 514.4l-10.458-28.527-9.294-29.047-8.261-29.821-1.808-7.872L425.164 559.45l365.562-140.317-1.808 7.872-8.26 29.82-9.295 29.048-10.458 28.527-11.492 27.88-12.386 27.238-13.425 26.46-14.329 25.687-15.103 25.171-16.007 24.272-16.91 23.623-17.551 22.845-18.46 22.084-18.977 21.421-40.14 40.275-42.347 37.173c-31.754 24.916-63.897 48.41-98.614 68.936-34.864-20.522-67.003-44.015-98.757-68.936z"/><path fill="#caa55a" d="M245.728 569.912c39.5 2.842 30.98 38.082 77.323 37.567 2.582-9.558 3.486-19.627-.13-23.493-24.008-26.08-28.139-44.924-17.166-60.287 19.748-27.883 86.612-39.89 106.75-39.89 33.436 34.467 34.985 84.81-14.714 95.912-8.52 1.938-23.623 7.742-20.782 21.046 2.063 9.804 18.974 22.97 6.968 35.495-7.742 8.135-24.653 16.266-70.48 12.646-27.75-2.318-41.304-14.45-53.57-8.39-12.776 6.202-19.748 7.49-27.364 3.62-9.939-4.914-13.165-15.103-10.328-22.33 4.13-10.847 20.781-11.492 29.302-8.52-12.002-5.42-21.816 2.711-26.33-5.943-2.198-4.126-1.42-11.993 4-17.287 5.164-5.034 13.04-6.976 30.85 4.905-8.775-6.328-15.103-9.814-23.234-10.718-5.164-.523 1.419-14.977 8.905-14.333"/><path fill="none" stroke="#343536" stroke-width="5.03429625" d="M245.728 569.912c39.5 2.842 30.98 38.082 77.323 37.567 2.582-9.558 3.486-19.627-.13-23.493-24.008-26.08-28.139-44.924-17.166-60.287 19.748-27.883 86.612-39.89 106.75-39.89 33.436 34.467 34.985 84.81-14.714 95.912-8.52 1.938-23.623 7.742-20.782 21.046 2.063 9.804 18.974 22.97 6.968 35.495-7.742 8.135-24.653 16.266-70.48 12.646-27.75-2.318-41.304-14.45-53.57-8.39-12.776 6.202-19.748 7.49-27.364 3.62-9.939-4.914-13.165-15.103-10.328-22.33 4.13-10.847 20.781-11.492 29.302-8.52-12.002-5.42-21.816 2.711-26.33-5.943-2.198-4.126-1.42-11.993 4-17.287 5.164-5.034 13.04-6.976 30.85 4.905-8.775-6.328-15.103-9.814-23.234-10.718-5.164-.523 1.419-14.977 8.905-14.333z"/><path fill="#caa55a" d="M254.508 268.239c10.324 18.07 32.269 26.075 46.987 32.658 34.596-.65 127.146 52.02 35.11 56.67-50.213 2.578-60.796-7.227-88.554-28.402-11.228-8.52-18.974-9.554-30.331-7.487-4.78.909-32.918 4.39-37.308-16.391-1.163-5.424-2.842-18.2 3.746-24.398-16.397-16.521-11.362-31.369 1.288-37.952 8.65-4.52 24.268-10.323 40.02 21.556-4.005-9.29-5.294-12.131-7.232-17.81 7.617-3.356 31.11 12.516 36.274 21.556"/><path fill="none" stroke="#343536" stroke-width="5.03429625" d="M254.508 268.239c10.324 18.07 32.269 26.075 46.987 32.658 34.596-.65 127.146 52.02 35.11 56.67-50.213 2.578-60.796-7.227-88.554-28.402-11.228-8.52-18.974-9.554-30.331-7.487-4.78.909-32.918 4.39-37.308-16.391-1.163-5.424-2.842-18.2 3.746-24.398-16.397-16.521-11.362-31.369 1.288-37.952 8.65-4.52 24.268-10.323 40.02 21.556-4.005-9.29-5.294-12.131-7.232-17.81 7.617-3.356 31.11 12.516 36.274 21.556z"/><path fill="#caa55a" d="M534.876 501.615c73.572 3.102 63.898-95.897 53.185-150.5-6.972-35.76-12.521-88.94 19.108-115.534-.126-37.308 26.979-36.53 48.794-29.432 13.68 4.385 30.72-4.26 44.53-10.713 4.001 46.857-40.789 68.287-72.932 57.575-34.98 10.193-12.52 105.72-9.81 164.708 2.194 45.054 5.429 103.134-71.764 116.564 2.963 39.5-28.791 39.76-28.662 74.874 0 9.415.52 19.229 12.91 29.821 9.684 8.39 9.165 24.518 3.482 31.23-11.223 13.296-29.812 11.103-42.208 29.692-12.26 18.718-13.17 29.431-24.786 42.597-7.612 8.654-23.623.13-39.37 5.813-15.104 5.549-22.98 11.876-37.693 11.098-5.549-.39-22.849-7.228-15.362-25.432-8.131.51-17.815-.13-18.59-10.457-.384-4.52 0-11.877 6.328-15.882-5.678 1.553-6.457-6.967-5.553-10.453 1.553-6.064 2.457-12.007 13.3-13.55 25.815-3.616 41.303 7.616 53.564 3.866 16.007-5.035 27.11-20.522 29.817-35.88 4.65-26.975-42.203-29.553-55.373-57.83-9.424-20.526 3.226-50.992 19.623-68.413-8.52-18.333-19.238-34.855-35.885-44.15-19.623-10.838-40.274-30.59-44.15-51.765-7.356-.126-46.342-3.607-55.766-1.155-3.871.904-13.55 13.68-24.523 13.55-9.809-.26-27.369-3.356-35.37 3.097-17.815 14.329-37.952-3.356-23.883-18.325-9.034-2.842-19.103-10.069-17.295-23.113.774-5.804 5.549-19.488 19.233-15.743-14.329-8.265 15.233-21.94 25.69-15.233 27.75 17.426 48.666 18.07 57.311 11.098 8.65-6.967 27.24-12.261 36.789-14.064-7.872-22.724 13.684-62.999 38.47-62.48 4.775-8.26 12.262-13.558 20.263-16.525-.255-.515-30.85 6.323-32.788 1.293-5.933-14.973 10.458-23.364 12.65-24.013 15.104-5.034 28.529 6.713 31.885 8.65 6.587 3.616 11.487-6.967 12.91-13.684 3.226-15.358 1.548-22.07-2.197-27.749-13.036-19.108-37.948-.13-47.631 4.905-10.194 5.293-21.556-8.776-17.426-24.398-11.617 2.972-13.554-4.26-13.425-12.006 2.842-12.136 28.269-22.075 45.698-20.652 3.612-20.526 30.98-15.233 42.987-15.103 2.707.13 17.425.255 23.104-.514 3.23-3.231 4.13-5.424 8.905-7.746 6.587-3.227 16.906 3.226 25.43-6.713-1.807 5.674-1.028 11.872.516 17.425 5.812-1.293 13.17-5.808 18.459-11.102-2.453 10.069-2.063 21.3 1.808 26.85 3.356 5.034 1.798 10.713.648 17.425 1.03-5.938 2.842-10.068 3.357-16.776 12.001 5.933 23.104 14.583 23.104 23.104 0 9.809 1.418 23.753 17.555 29.82-3.616 6.454-10.843 9.036-19.878 8.257 6.198 10.843-.774 31.495 25.561 35.24.26 5.034-9.04 10.198-13.68 10.198 5.155 5.165 6.968 16.397 7.223 21.43.64 14.07-10.58 29.817-11.232 41.953-.64 10.843 1.163 17.945 13.55 27.754-12.517 4.256-24.782 1.553-29.427.125-1.03 22.08-9.68 57.19-2.457 63.768 14.073 12.915 29.176 25.431 31.37 53.305"/><path fill="none" stroke="#343536" stroke-width="5.03429625" d="M534.876 501.615c73.572 3.102 63.898-95.897 53.185-150.5-6.972-35.76-12.521-88.94 19.108-115.534-.126-37.308 26.979-36.53 48.794-29.432 13.68 4.385 30.72-4.26 44.53-10.713 4.001 46.857-40.789 68.287-72.932 57.575-34.98 10.193-12.52 105.72-9.81 164.708 2.194 45.054 5.429 103.134-71.764 116.564 2.963 39.5-28.791 39.76-28.662 74.874 0 9.415.52 19.229 12.91 29.821 9.684 8.39 9.165 24.518 3.482 31.23-11.223 13.296-29.812 11.103-42.208 29.692-12.26 18.718-13.17 29.431-24.786 42.597-7.612 8.654-23.623.13-39.37 5.813-15.104 5.549-22.98 11.876-37.693 11.098-5.549-.39-22.849-7.228-15.362-25.432-8.131.51-17.815-.13-18.59-10.457-.384-4.52 0-11.877 6.328-15.882-5.678 1.553-6.457-6.967-5.553-10.453 1.553-6.064 2.457-12.007 13.3-13.55 25.815-3.616 41.303 7.616 53.564 3.866 16.007-5.035 27.11-20.522 29.817-35.88 4.65-26.975-42.203-29.553-55.373-57.83-9.424-20.526 3.226-50.992 19.623-68.413-8.52-18.333-19.238-34.855-35.885-44.15-19.623-10.838-40.274-30.59-44.15-51.765-7.356-.126-46.342-3.607-55.766-1.155-3.871.904-13.55 13.68-24.523 13.55-9.809-.26-27.369-3.356-35.37 3.097-17.815 14.329-37.952-3.356-23.883-18.325-9.034-2.842-19.103-10.069-17.295-23.113.774-5.804 5.549-19.488 19.233-15.743-14.329-8.265 15.233-21.94 25.69-15.233 27.75 17.426 48.666 18.07 57.311 11.098 8.65-6.967 27.24-12.261 36.789-14.064-7.872-22.724 13.684-62.999 38.47-62.48 4.775-8.26 12.262-13.558 20.263-16.525-.255-.515-30.85 6.323-32.788 1.293-5.933-14.973 10.458-23.364 12.65-24.013 15.104-5.034 28.529 6.713 31.885 8.65 6.587 3.616 11.487-6.967 12.91-13.684 3.226-15.358 1.548-22.07-2.197-27.749-13.036-19.108-37.948-.13-47.631 4.905-10.194 5.293-21.556-8.776-17.426-24.398-11.617 2.972-13.554-4.26-13.425-12.006 2.842-12.136 28.269-22.075 45.698-20.652 3.612-20.526 30.98-15.233 42.987-15.103 2.707.13 17.425.255 23.104-.514 3.23-3.231 4.13-5.424 8.905-7.746 6.587-3.227 16.906 3.226 25.43-6.713-1.807 5.674-1.028 11.872.516 17.425 5.812-1.293 13.17-5.808 18.459-11.102-2.453 10.069-2.063 21.3 1.808 26.85 3.356 5.034 1.798 10.713.648 17.425 1.03-5.938 2.842-10.068 3.357-16.776 12.001 5.933 23.104 14.583 23.104 23.104 0 9.809 1.418 23.753 17.555 29.82-3.616 6.454-10.843 9.036-19.878 8.257 6.198 10.843-.774 31.495 25.561 35.24.26 5.034-9.04 10.198-13.68 10.198 5.155 5.165 6.968 16.397 7.223 21.43.64 14.07-10.58 29.817-11.232 41.953-.64 10.843 1.163 17.945 13.55 27.754-12.517 4.256-24.782 1.553-29.427.125-1.03 22.08-9.68 57.19-2.457 63.768 14.073 12.915 29.176 25.431 31.37 53.305z"/><path fill="#343536" d="m402.18 107.915-20.266.13 22.075-81.453 21.296-.13 22.979 81.203-20.522.13-2.578-10.588-20.66.13zm19.234-27.498-6.842-29.427-6.328 29.565z"/><path fill="#006ea5" d="M411.99 38.214 402.05 85.71l25.69-.255-10.972-47.377zm9.424-6.587 20.133 70.999h-9.939l-2.452-10.458-28.787.13-2.323 10.583-9.554.13 19.368-71.384z"/><path fill="#343536" d="m355.45 110.367-5.16-81.063 20.781-1.418 5.164 81.193Z"/><path fill="#006ea5" d="m355.709 33.949 10.717-.644 4.386 70.994-10.584.78Z"/><path fill="#343536" d="m346.804 58.606-19.493 2.322c-1.678-8.005-6.194-12.26-12.136-11.487-7.227.904-11.487 8.39-9.55 24.782 1.419 11.103 4.13 16.137 8.006 18.59 2.063 1.163 4.256 1.552 6.838 1.288 6.327-.77 9.683-5.804 9.294-14.713l19.882-2.453c.385 10.069-.779 16.396-5.164 23.879-4.39 7.49-11.232 12.265-20.916 13.424-9.55 1.164-18.459-1.678-24.782-7.616a38.9 38.9 0 0 1-7.871-10.713c-2.972-5.804-4.91-12.261-5.813-19.748-1.549-12.391.519-24.138 5.038-32.139 2.323-4.005 5.16-7.231 8.257-9.424 4.005-2.971 8.65-4.65 13.944-5.294 9.034-1.163 17.94 1.419 23.753 7.357 3.096 3.226 5.548 6.842 7.356 10.972 1.419 2.967 2.582 6.583 3.357 10.973"/><path fill="#006ea5" d="M301.495 56.024c-.774 2.837-1.164 5.553-1.423 8.395 0 3.866.26 7.612.649 11.487.904 5.679 2.063 11.228 5.164 16.132 1.548 2.193 3.356 4.13 5.808 5.424 2.837 1.548 5.55 1.933 8.776 1.678l2.327-.26a27.3 27.3 0 0 0 4.515-1.808l2.582-2.062 2.063-2.457 1.423-2.967c.644-1.938 1.163-3.746 1.289-5.679l9.943-1.289c-.13 1.934-.26 3.741-.649 5.55-1.03 5.808-3.87 11.487-8.26 15.617q-.774.579-1.55 1.163c-7.23 5.29-17.684 5.809-25.815 2.063-2.197-1.024-4.13-2.322-6.068-4.13-1.034-.904-1.938-1.938-2.842-3.097-3.096-3.745-5.16-8.26-6.712-12.91-2.452-7.357-3.356-15.103-2.837-22.715.385-6.587 1.933-13.3 5.419-18.848 1.678-2.582 3.616-4.78 6.068-6.587 1.548-1.03 2.971-1.933 4.65-2.578 8.39-3.486 18.584-2.712 25.556 3.227 4.26 4 7.357 9.294 9.035 14.843l-9.55 1.164c-1.163-2.842-2.712-5.035-4.779-7.098l-2.452-1.942-2.837-1.418-3.227-.52c-1.423-.125-2.712-.125-4.13.135-2.068.514-3.746 1.163-5.554 2.192l-1.678 1.294c-2.452 2.322-3.74 4.9-4.904 8"/><path fill="#343536" d="M277.487 60.024 258.119 63.9c-1.803-4.39-4.774-6.198-9.55-5.164-2.196.389-3.875 1.418-4.774 2.841-.904 1.03-1.034 2.448-.779 3.741.26 1.29.779 2.198 1.678 2.842 1.164 1.03 3.746 1.678 7.621 2.063l8.39.774c15.618 1.678 22.586 9.165 24.783 20.267 1.808 8.78-.13 17.04-3.875 22.205-3.612 5.034-10.584 9.035-18.46 10.713-8.515 1.678-17.165.389-22.974-4.001-3.096-2.197-5.553-4.909-7.616-8.265-1.293-2.193-2.582-5.16-3.486-8.65l19.493-3.996c1.937 4.774 5.164 7.097 11.487 5.808 2.842-.519 4.65-1.553 5.683-2.971.644-1.03.77-2.323.515-3.871-.645-3.356-1.549-4.65-9.295-5.549l-7.616-.774c-7.871-.779-15.747-3.36-20.397-8.91-2.322-2.841-3.87-6.712-4.775-11.232-1.807-8.775 0-16.651 4.13-21.815 4.131-5.42 10.2-8.131 16.652-9.42 7.746-1.678 14.973-.774 19.493 1.678 4.52 2.582 7.616 6.328 9.939 10.588 1.033 1.933 2.067 4.385 3.1 7.222"/><path fill="#006ea5" d="M247.406 74.613c.645.125 1.423.255 2.068.385 8.26 1.163 16.91.519 24.008 5.419 1.937 1.423 3.226 2.971 4.52 4.909 1.933 3.486 2.711 7.101 2.966 11.102.26 5.809-1.033 11.877-5.294 16.132-2.707 2.457-5.808 4.135-9.164 5.424-7.482 2.452-16.651 2.841-23.36-1.938-3.23-2.327-5.683-5.419-7.36-9.04l10.068-2.062c1.548 2.193 3.226 3.486 5.549 4.515 1.423.52 2.586.774 4.005 1.034h2.837c2.327-.26 4.39-.65 6.583-1.549l2.197-1.159c1.548-1.167 2.452-2.067 3.486-3.745l.644-2.067c.645-3.227 0-6.198-1.548-9.165-.774-1.034-1.548-1.678-2.582-2.452-1.419-.904-2.712-1.419-4.26-1.808-4.905-1.164-9.94-1.29-14.973-1.933-5.68-.909-11.877-2.712-15.493-7.747-2.966-4.26-4-10.328-3.74-15.487.259-2.972.903-5.683 2.322-8.395 2.712-4.516 6.972-7.227 12.006-8.776 5.29-1.548 11.617-2.192 17.036-.389 4.78 1.678 8.26 5.938 10.458 10.458l-9.68 1.933c-1.552-2.063-3.485-3.356-5.942-4.256l-2.322-.519c-2.582-.13-4.775.13-7.098.904-1.163.515-2.192 1.034-3.226 1.678-1.034.775-1.678 1.549-2.457 2.582-.644.904-1.029 1.808-1.418 2.842l-.385 2.063c0 2.582.514 4.52 1.803 6.712 1.164 1.549 2.323 2.453 4.135 3.231a16.8 16.8 0 0 0 3.611 1.164"/><path fill="#343536" d="m184.547 78.743 3.092 10.843 25.82-7.232 5.03 17.815-25.816 7.232 3.357 12.26 31.628-8.779 5.29 18.723-50.858 14.329-21.945-78.36 49.569-13.94 5.164 18.589Z"/><path fill="#006ea5" d="m184.158 95.909 25.815-7.227 2.193 8.006-25.816 7.227 6.198 22.07 31.624-8.905 2.582 9.04-41.178 11.486-19.233-68.547 39.885-11.097 2.457 8.645-30.336 8.52Z"/><path fill="#343536" d="m140.527 158.648-18.719 6.967L93.54 89.331l29.042-10.718c8.131-2.967 13.81-3.875 18.33-2.837 4.39 1.025 8.52 4.126 11.232 7.737 1.418 1.808 2.582 4.26 3.74 7.362 2.843 7.616 2.713 13.295.52 18.074-.649 1.548-1.938 2.967-3.486 4.39 8.905.774 12.261 3.226 16.522 13.94l4.649 11.876c.644 1.808 1.289 2.712 1.548 2.967.515.389 1.034.389 1.808.134l.904 2.448-19.752 7.356c-1.289-1.933-2.967-5.289-4.775-10.193l-2.322-5.68c-1.938-5.163-4.135-7.23-7.102-7.88-1.549-.255-3.486.135-5.938 1.034l-7.747 2.842zm-21.43-57.834 5.423 14.588 9.42-3.356c6.068-2.323 7.102-5.939 5.423-10.454-1.678-4.645-4.774-6.457-10.583-4.39z"/><path fill="#006ea5" d="M138.849 80.555c4.904.895 8.775 4.511 10.972 8.901 1.16 2.323 1.934 4.775 2.578 7.357.908 4 .779 8.65-1.803 12.266-2.587 3.611-3.357 4.904-8.39 8.26 6.582-.26 7.87-.26 12 .645 2.583.519 4.39 1.418 6.328 3.356 1.419 1.678 2.453 3.87 3.357 5.938 2.192 5.035 4 10.069 6.068 15.103l-9.04 3.356c-.9-1.937-1.678-3.87-2.452-5.808l-2.712-6.583c-1.289-3.096-2.707-5.419-5.16-7.616l-1.678-1.16c-2.582-1.163-4.779-1.552-7.486-1.297-1.678.264-3.227.779-4.78 1.298l-12.39 4.645 9.809 26.46-9.29 3.486-24.657-66.735 24.912-9.294c4.26-1.548 9.294-3.23 13.814-2.578m-17.3 41.43 15.492-5.805 2.582-1.293c1.159-.904 2.063-1.678 3.097-2.712l1.418-2.452.904-2.582c.13-1.289.13-2.452 0-3.741a19 19 0 0 0-1.289-4.65c-.644-1.163-1.163-2.197-1.937-3.226l-1.808-1.808c-1.16-.904-2.193-1.418-3.482-1.937l-2.711-.515c-1.423 0-2.712.13-4.13.39l-2.583.773-14.458 5.42z"/><path fill="#343536" d="m94.185 178.525-29.302 12.906-32.788-74.48 28.657-12.517c7.227-3.231 13.036-4.13 17.685-2.976 5.938 1.423 10.324 5.553 13.295 12.266 2.712 6.327 2.582 12.78-.649 19.112 6.847-.519 13.3 4 17.3 13.036 2.712 6.193 3.486 12.39 2.063 17.036-.899 3.486-4 8.005-7.227 10.713-1.548 1.418-4.645 2.967-9.034 4.904m-30.206-55.507-6.198 2.712 5.808 13.165 7.362-3.226c5.808-2.582 6.582-6.194 4.904-9.94-1.293-2.97-3.745-4.649-6.327-4.514-1.034 0-2.837.644-5.55 1.803m13.426 25.816-7.876 3.49 6.197 14.065 7.872-3.486c7.361-3.222 8.006-6.708 5.943-11.227-1.938-4.52-4.78-6.064-12.136-2.842"/><path fill="#006ea5" d="m67.465 184.723-28.658-65.061 24.653-10.843c3.486-1.548 7.36-2.837 11.102-2.712 2.582 0 4.78.904 6.972 2.327 4.26 3.227 6.972 8.776 6.972 14.195 0 2.712-.645 5.039-1.678 7.49-1.423 2.713-1.938 4.776-4.13 8.262 5.678-1.164 8.26-.65 9.679-.515 5.808.385 9.424 5.679 11.491 10.583 1.933 4.39 3.097 9.81 1.29 14.454-1.424 3.101-3.746 5.943-6.458 7.746-2.193 1.294-4.386 2.327-6.583 3.231zm-16.267-61.575 9.814 22.33 13.295-5.804c1.159-.649 2.322-1.423 3.356-2.327l1.808-1.938c.904-1.159 1.289-2.192 1.803-3.481.26-1.294.39-2.453.39-3.746-.13-1.678-.515-2.971-1.164-4.52l-.774-1.678c-1.808-2.711-3.741-4.39-6.842-5.419-1.933-.519-3.482-.649-5.42-.26-1.937.52-3.745 1.29-5.553 2.068zm11.617 26.59 10.328 23.368 13.94-6.198 2.712-1.548c1.288-1.034 2.322-1.808 3.356-2.971l1.548-2.453.52-1.423.384-2.837-.26-2.582c-.644-2.448-1.418-4.515-2.837-6.582l-1.807-1.934-1.16-.904-1.163-.644-1.423-.519-2.837-.515c-1.548.126-2.842.26-4.26.645-1.549.389-2.972.904-4.52 1.548z"/><path fill="#343536" d="M501.77 27.402c-.089.027-2.823.994-2.823.994l-.031.035c-4.408 2.059-8.476 5.303-11.738 9.389l-.126.165c-5.795 7.858-9.231 17.91-10.198 29.866-.917 15.613 2.806 27.937 10.749 35.764 2.98 2.828 6.363 4.958 10.426 6.582l.13.054.13.045c8.382 2.85 16.844 2.582 23.816-.756 6.546-3.276 12.037-9.349 15.147-16.7l.058-.135.3-.86 3.567-11.594-6.713-.152-14.055-1.298-1.352 4.05c-.403 1.204-1.002 2.412-1.937 3.956-.323.403-1.079 1.351-1.477 1.844-.403.335-.913.774-1.446 1.221-.684.3-1.472.64-1.88.82-1.122.326-1.977.474-2.94.478l-1.86-.098c-1.495-.166-2.78-.622-4.36-1.526-1.95-1.307-3.288-3.204-4.313-6.1-.77-2.886-1.025-5.804-1.025-8.565 0-1.71.09-3.356.215-4.9.22-3.338.77-6.757 1.665-10.502.684-2.493 1.463-4.47 2.541-6.453 1.455-2.368 2.699-3.674 4.592-4.856.286-.138.684-.335 1.092-.537 1.391-.447 2.506-.653 3.66-.67a16.4 16.4 0 0 1 2.685.491c.528.238 1.405.636 1.915.869.43.295 1.047.733 1.607 1.118.42.506.872 1.047 1.24 1.481 1.221 2.09 1.865 3.768 2.116 5.67l.56 4.26 20.383 1.902-.569-6.43c-.635-7.165-2.93-13.738-6.636-19.01-7.16-9.603-21.046-13.715-33.114-9.912M568.487 48.331 547.921 99.31l38.788 6.659-3.33-59.468-13.285-2.152zm5.115 16.061c.636 11.259 1.222 21.806 1.607 28.689-4.748-.815-7.612-1.311-12.324-2.117 2.55-6.323 6.51-16.127 10.717-26.572"/><path fill="#343536" d="M565.762 40.693 531.238 114l20.67 3.401s2.926-7.128 4.126-10.033c5.07.877 14.91 2.573 19.935 3.442.193 3.14.65 10.856.65 10.856l20.987 3.589-8.619-84.55-21.484-3.718zm7.992 8.292 5.37.926c.546 5.37 3.303 32.43 5.25 51.435-1.169-.201-31.71-5.477-32.627-5.634 8.157-17.327 19.703-41.832 22.007-46.727M620.271 52.551l-18.186 74.28 48.37 11.85 5.32-21.292s-20.911-5.057-27.793-6.726c2.09-8.66 14.064-58.335 14.064-58.335l-20.504-4.994zm-5.11 66.082c.304.067 20.634 4.99 27.557 6.658-.054.197-.054.197-.103.394-6.507-1.593-20.988-5.142-27.521-6.74.009-.044.062-.263.067-.312M699.72 66.133c-.005.004-3.214.335-3.214.335-5.271 1.052-9.948 3.42-14.472 7.277-5.132 4.59-9.097 10.09-12.597 17.394-4.143 8.847-6.229 17.685-6.229 26.335q.002.784.023 1.575c.165 7.912 2.407 14.754 6.663 20.285 4.784 5.983 11.281 9.876 19.372 11.657l.12.031.117.018c4.372.752 8.57.51 13.188-.76l.174-.05.17-.062c5.97-2.09 11.528-6.216 15.662-11.617l.081-.103.072-.103c1.58-2.282 2.725-4.17 3.62-5.952l2.783-5.571-19.372-6.368-2.224 3.616c-.738 1.199-1.597 2.255-2.703 3.387-.376.296-1.244.998-1.79 1.432-.586.282-1.4.667-1.924.918-.514.134-1.181.295-1.84.46a24 24 0 0 1-3.23-.268c-.434-.125-1.043-.304-1.427-.42-2.144-.855-3.59-1.885-4.892-3.464-.805-1.23-1.373-2.65-1.776-4.591a17.5 17.5 0 0 1-.25-3.034c0-3.925 1.118-8.015 2.29-11.622 1.249-4.018 2.444-7.026 3.88-9.813 1.195-2.059 2.412-4.055 3.996-5.872 1.925-1.897 3.401-2.864 5.558-3.642.439-.085.904-.18 1.2-.242 1.194-.134 2.349-.062 3.758.17.582.25 2.063.895 2.533 1.101.506.376 1.208.904 1.674 1.249.353.402.8.9 1.23 1.387.31.63.685 1.392.904 1.817.578 1.637.864 3.15.864 4.748q.001.63-.058 1.288l-.367 4.265 19.238 6.234.966-6.239c1.137-7.312.26-14.677-2.479-20.727-5.057-10.593-17.045-17.26-29.293-16.46m-.009.005q.009-.005.01-.004zm-.425.014-.054.004.48-.018c-.14.01-.278.005-.426.014M743.918 89.505l-28.747 70.955 19.914 8.019 30.765-75.93-19.923-8.02ZM782.89 104.689l-.134.04-.13.045c-3.141 1.1-5.768 2.327-8.251 3.844-11.85 7.737-18.307 21.198-21.664 31.14l-.053.162-.314 1.163-1.226 5.021c-.604 3.437-.877 6.61-.877 9.832 0 1.95.143 3.799.461 5.656l.045.228c.64 3.057 1.423 5.54 2.537 8.046l.134.309-.03-.09 2.527 4.194c1.67 2.42 3.509 4.367 6.024 6.38l.232.189.045.022 4.372 2.766 1.584.854.157.076c4.529 2.104 8.73 3.08 13.232 3.08 12.02-.17 21.06-7.778 26.537-14.128l1.678-2.09c2.94-3.916 5.36-7.983 7.518-12.566 3.714-7.96 5.575-15.496 5.575-22.54 0-4.385-.725-8.578-2.165-12.552l-.054-.148-1.32-3.087-.126-.229c-3.49-6.372-8.48-10.972-15.264-14.051-.026-.013-1.405-.64-1.405-.64l-.358-.152c-6.296-2.358-12.964-2.622-19.287-.774m15.434 10.83.967.433c4.78 2.184 8.028 5.15 10.39 9.402.202.474.775 1.803.91 2.135q1.495 4.14 1.494 8.833c0 5.468-1.513 11.487-4.551 17.985-1.821 3.902-3.875 7.348-6.27 10.538l-1.445 1.8c-3.911 4.528-10.39 10.135-18.334 10.247-2.823-.005-5.495-.645-8.565-2.059-.33-.183-1.181-.644-1.181-.644s-2.918-1.853-3.209-2.036c-1.615-1.311-2.711-2.457-3.71-3.902 0-.01-1.61-2.627-1.771-2.887-.752-1.727-1.285-3.432-1.755-5.625a23.4 23.4 0 0 1-.304-3.803c0-2.632.224-5.129.698-7.854.01.005 1.038-4.197 1.038-4.197s.139-.537.22-.806c2.819-8.323 8.077-19.43 17.165-25.368 1.665-1.016 3.536-1.88 5.876-2.707 4.09-1.177 8.238-1.012 12.337.514m5.608-9.263c.004 0 .008 0-.01-.009z"/><path fill="#343536" d="m787.222 114.13-.56.113-.227.107-4.766 2.063-.036.058-2.895 1.732-.282.228c-3.155 2.529-5.612 5.084-7.728 8.042-2.31 3.208-4.355 6.923-6.243 11.34-4.072 9.616-5.034 17.836-2.945 25.153.806 2.886 2.1 5.24 4.319 7.831l.138.157.14.143c1.503 1.508 3.293 3.083 6.18 4.43l1.462.734.291.058 5.155 1.208.264-.076 5.24-.179.18-.138 4.971-1.607.305-.22 2.63-1.52.162-.117c2.774-1.897 5.24-4.162 7.545-6.932 3.512-4.425 6.439-9.733 9.017-16.333 1.405-3.67 3.222-9.13 3.222-15.126 0-.26-.01-.523-.014-.787l-.009-.152-.152-1.844-.018-.143c-.662-4.806-2.26-8.538-5.164-12.091l-.174-.21-.193-.189c-1.27-1.28-2.739-2.618-4.833-3.759-.009 0-3.67-1.664-3.67-1.664l-.845-.34-.488-.099a25 25 0 0 0-4.931-.492c-1.947 0-3.594.331-5.048.622m5.052 10.136c.82 0 1.647.103 2.475.246.304.134 2.273 1.011 2.273 1.011.716.394 1.316.882 2.157 1.7 1.557 1.947 2.345 3.809 2.73 6.552.022.3.076.9.094 1.128 0 .13.009.26.009.393 0 3.209-.797 6.798-2.497 11.232-2.17 5.55-4.57 9.948-7.321 13.416-1.584 1.902-3.267 3.446-5.2 4.784-.322.188-1.173.676-1.71.989-.51.166-2.103.676-2.72.882-.582.017-1.907.058-2.551.076-.577-.135-2.054-.48-2.51-.582-.251-.125-.502-.255-.502-.255-1.23-.573-2.018-1.155-3.083-2.202-1.087-1.298-1.642-2.264-2.01-3.589-.447-1.544-.661-3.186-.661-4.931 0-3.808 1.042-8.131 3.145-13.094 1.571-3.66 3.236-6.703 5.088-9.28 1.486-2.086 3.263-3.907 5.523-5.742.51-.309 1.584-.953 1.924-1.155l2.823-1.226c.895-.179 1.764-.353 2.524-.353"/><path fill="#006ea5" d="M497.573 50.345c-1.419 2.578-2.327 5.035-3.097 7.872-.904 3.745-1.552 7.49-1.803 11.357-.385 5.164-.385 10.328 1.03 15.492 1.288 3.746 3.226 6.847 6.582 9.035 2.193 1.293 4.26 2.068 6.712 2.327l2.327.125c1.678 0 3.101-.255 4.78-.774l2.962-1.289 2.448-2.063 2.072-2.582c1.029-1.678 1.937-3.356 2.586-5.293l9.805.904c-.39 1.807-1.039 3.486-1.678 5.289-2.457 5.808-6.843 11.102-12.521 13.944-6.203 2.971-13.3 2.712-19.753.514-3.23-1.288-6.059-2.966-8.65-5.419-8.13-8.005-9.809-20.522-9.16-31.499.77-9.55 3.356-19.229 9.16-27.104 2.587-3.227 5.943-6.068 9.81-7.876.64-.26 1.418-.515 2.192-.775 9.415-2.966 21.041-.255 27.11 7.872 3.355 4.78 5.163 10.588 5.682 16.396l-9.679-.904c-.39-2.971-1.418-5.419-2.971-8.001l-2.068-2.452-2.577-1.808-2.842-1.289c-1.418-.39-2.707-.649-4.26-.779-2.067 0-3.87.39-5.808 1.034l-1.808.904c-2.967 1.808-4.775 3.87-6.583 6.842M573.477 50.345l-18.074 44.79 25.56 4.39-2.716-48.406zm10.579-5.034 7.49 73.447-9.808-1.678-.65-10.838-28.393-4.91-4.135 10.07-9.424-1.554 31.495-66.86zM646.535 132.183l-37.948-9.295 16.907-69.057 10.073 2.452-14.065 58.345 27.749 6.712ZM690.04 87.518c-1.942 2.198-3.356 4.52-4.77 6.972-1.813 3.486-3.101 6.968-4.265 10.713-1.803 5.554-3.226 11.492-2.193 17.426.515 2.452 1.29 4.65 2.708 6.712 2.072 2.587 4.394 4.135 7.361 5.299l2.193.644c1.678.255 3.096.385 4.904.385l3.092-.774 2.98-1.419 2.578-2.067c1.419-1.423 2.578-2.837 3.612-4.516l9.428 3.093c-.904 1.812-2.067 3.615-3.226 5.298-3.356 4.39-8.006 8.001-13.165 9.809-3.746 1.03-7.102 1.293-10.848.644-6.448-1.418-12.131-4.52-16.266-9.683-3.87-5.03-5.42-10.973-5.549-17.166-.26-8.776 1.933-17.43 5.679-25.431 2.841-5.939 6.327-11.228 11.232-15.618 3.486-2.971 7.361-5.164 11.876-6.068.77-.13 1.549-.26 2.318-.26 9.68-.774 20.137 4.395 24.398 13.3 2.452 5.42 2.966 11.877 2.067 17.685l-9.17-2.971c.26-2.972-.124-5.679-1.167-8.52l-1.41-2.838-2.067-2.327-2.582-1.933a34 34 0 0 0-3.871-1.678c-2.067-.39-3.866-.519-5.938-.26l-1.938.385c-3.356 1.164-5.549 2.712-8.001 5.164M748.899 91.524l9.943 4-26.724 65.965-9.93-4.005ZM769.175 178.915c-1.423-.775-2.587-1.549-3.88-2.457-1.933-1.549-3.482-3.097-4.905-5.164-.774-1.16-1.548-2.323-2.192-3.612-1.03-2.322-1.678-4.515-2.193-6.971a29 29 0 0 1-.39-4.775c0-2.967.26-5.809.78-8.78.384-1.933.903-3.741 1.409-5.679 3.62-10.713 9.693-21.94 19.367-28.268 2.327-1.418 4.65-2.452 7.227-3.36 5.29-1.544 10.718-1.29 15.882.648.515.26.9.385 1.419.65 5.674 2.577 9.8 6.322 12.78 11.741.376.909.77 1.808 1.154 2.712 3.746 10.328 1.294 21.296-3.226 30.98-1.938 4.13-4.13 7.876-6.842 11.487l-1.548 1.938c-5.675 6.583-13.425 12.131-22.465 12.266-3.87 0-7.352-.904-10.968-2.587zm6.448-7.747c1.289.385 2.452.645 3.87.904 1.424 0 2.578 0 4.006-.13a49 49 0 0 0 4-1.293l2.453-1.418c2.457-1.678 4.52-3.616 6.448-5.938 3.49-4.39 6.073-9.55 8.136-14.844 1.678-4.39 2.971-9.04 2.841-13.81l-.13-1.552c-.514-3.746-1.678-6.583-3.996-9.424-1.163-1.16-2.188-2.063-3.615-2.838-1.164-.644-2.193-1.033-3.482-1.552a20 20 0 0 0-3.875-.385c-1.419 0-2.708.26-4.005.514a35 35 0 0 0-3.871 1.678l-2.578 1.549c-2.577 2.067-4.779 4.264-6.712 6.976-2.327 3.227-4.135 6.713-5.683 10.324-2.842 6.712-4.775 14.329-2.708 21.56.645 2.323 1.679 4 3.227 5.809 1.418 1.418 2.712 2.452 4.65 3.351z"/><path fill="#343536" d="M363.325 766.37v79.91h-13.94v-46.347h-10.717v-16.128c4.52-.125 7.876-1.938 9.814-4.52.904-1.293 1.678-2.846 2.452-4.775.904-2.707 1.548-5.419 1.808-8.135h10.583zm16.91 60.676 12.781-1.289c.9 4.13 2.582 6.203 5.55 6.203 2.451 0 4.13-1.678 5.423-4.789 1.159-3.217 1.803-7.097 1.803-13.415-3.097 3.87-6.578 5.808-10.458 5.808-5.934 0-11.482-4.26-14.194-12.136-1.29-3.992-2.068-8.646-2.068-13.81 0-8.654 1.938-16.396 5.424-21.3 3.611-4.905 8.39-6.972 13.425-6.972 7.616 0 12.65 3.615 16.396 11.236 3.74 7.608 5.29 17.676 5.29 30.206 0 18.32-3.746 30.841-10.844 37.554-2.711 2.452-6.068 3.745-10.068 3.745-8.006 0-13.295-4.39-16.396-12.006-1.03-2.443-1.678-5.415-2.063-9.035m18.459-44.53c-3.486 0-5.938 4.256-5.938 10.838 0 6.583 2.452 10.718 6.068 10.718 3.745 0 6.323-4.386 6.323-10.718 0-6.452-2.578-10.838-6.453-10.838m54.084-16.145v79.908h-13.94v-46.346h-10.717v-16.128c4.52-.125 8.006-1.938 9.81-4.52.903-1.293 1.803-2.846 2.451-4.775 1.03-2.707 1.558-5.419 1.934-8.135h10.462zm44.915 0v79.908h-13.935v-46.346h-10.713v-16.128c4.52-.125 7.876-1.938 9.809-4.52.9-1.293 1.674-2.846 2.452-4.775.9-2.707 1.549-5.419 1.804-8.135h10.583z"/><path fill="#caa55a" d="M480.922 784.83c.77-.385 1.414-.9 2.193-1.41 1.029-.904 1.803-1.812 2.577-2.971a22 22 0 0 0 2.457-4.91c.644-1.933 1.289-4.004 1.678-6.063h4.775v73.837h-7.88v-46.338h-10.71v-10.463c1.554-.255 2.847-.64 4.26-1.284zM436.132 784.83c.779-.385 1.414-.9 2.063-1.41 1.038-.904 1.938-1.812 2.707-2.971.65-1.034 1.294-2.189 1.808-3.361.909-2.448 1.808-5.03 2.193-7.612h4.905v73.837h-7.867v-46.338h-10.722v-10.463a16.8 16.8 0 0 0 4.13-1.284zM407.085 827.56c1.419-4.134 2.063-8.26 1.678-12.65-.13-2.322.13-5.419-1.548-5.419-1.548 0-3.486 2.582-5.683 4.775-2.318 2.063-5.674 2.832-8.646 1.937-2.966-.904-4.904-2.711-6.582-5.164-1.034-1.803-1.808-3.356-2.452-5.294-1.034-3.356-1.419-6.712-1.679-10.323-.13-6.068.515-12.526 2.967-18.204.39-.779.774-1.549 1.29-2.314.648-1.042 1.422-1.942 2.326-2.846 1.03-.904 2.067-1.678 3.222-2.331l1.423-.51c3.611-1.168 7.746-1.025 11.232.644 1.293.779 2.452 1.678 3.486 2.842 4 4.649 5.934 10.847 7.097 16.78.515 2.842.775 5.684 1.034 8.655.644 8.26.385 16.777-.904 25.042-.515 2.707-1.163 5.428-2.067 8.001-1.804 5.034-4.26 10.069-9.165 12.65-3.87 1.8-8.646 1.549-12.391-.514-4.256-2.707-6.583-7.102-7.746-12.006-.125-.515-.125-1.025-.255-1.553l7.101-.644c1.29 3.23 3.871 6.059 7.742 5.933 4.52-.125 7.227-3.615 8.52-7.486m-17.3-31.495c.515 5.16 3.231 11.102 9.04 11.102 6.842 0 9.294-7.88 9.42-13.818-.126-5.809-2.453-13.94-9.55-13.94-8.006 0-9.295 10.597-8.91 16.656M346.544 784.83c.774-.385 1.423-.9 2.193-1.41 1.033-.904 1.808-1.812 2.586-2.971a22 22 0 0 0 2.448-4.91c.649-1.933 1.293-4.004 1.678-6.063h4.78v73.837h-7.877v-46.338H341.64v-10.463a16.2 16.2 0 0 0 4.26-1.284z"/><path fill="none" stroke="#343536" stroke-width="5.03429625" d="M323.05 607.479c6.583 0 11.103-.394 17.17-1.168"/><path fill="#343536" d="M431.348 237.518c-.899 7.612.13 14.844 7.612 20.912 6.458 5.423-1.284 37.173-14.968 37.822 4.909-9.295 9.558-23.883 3.096-31.37-4.9-5.683-5.03-16.261 4.26-27.364M221.335 274.562c3.871 5.813 8.257 9.428 13.55 13.165-.514 2.067-2.322 3.88-2.322 6.198-.13 4.135 5.679 6.198 13.555 10.717-13.425 1.544-28.014-5.683-34.986-15.237-2.447-3.352 9.04-4.645 10.203-14.843"/><path fill="none" stroke="#343536" stroke-width="5.03429625" d="M396.498 726.624c-9.81-4-19.748 1.8-22.2 7.357m8.135-29.172c-11.881-3.356-15.622 0-20.397 2.832M214.878 394.356c-2.837-4.13-10.973-5.424-15.103-6.583"/><path fill="#caa55a" d="M322.406 202.923c-.39 15.747-7.357 28.397-4.52 30.85 1.164 3.875 16.137 3.356 29.947 7.227-8.386-.64-15.488-12.521-12.132-25.427-11.617 2.972-13.554-4.26-13.425-12.006 0-.26.13-.515.13-.644"/><path fill="none" stroke="#343536" stroke-width="5.03429625" d="M322.406 202.923c-.39 15.747-7.357 28.397-4.52 30.85 1.164 3.875 16.137 3.356 29.947 7.227-8.386-.64-15.488-12.521-12.132-25.427-11.617 2.972-13.554-4.26-13.425-12.006 0-.26.13-.515.13-.644z"/><path fill="#343536" d="M396.372 206.149c-2.582-5.938-20.911-20.782-28.398-23.234 7.742-.644 19.104 2.582 22.07 3.097 7.617 1.289 15.493.26 29.432 2.841-10.068 3.486-19.363 10.713-23.104 17.296"/><path fill="#caa55a" d="M379.332 269.917c4.78-12.526 6.972-27.754 0-42.467 7.871-1.813 15.747-.65 21.426 7.616 3.745 5.679 5.423 12.391 2.197 27.75-1.423 6.716-6.323 17.3-12.91 13.683-1.548-.899-5.42-4.13-10.713-6.582"/><path fill="none" stroke="#343536" stroke-width="5.03429625" d="M379.332 269.917c4.78-12.526 6.972-27.754 0-42.467 7.871-1.813 15.747-.65 21.426 7.616 3.745 5.679 5.423 12.391 2.197 27.75-1.423 6.716-6.323 17.3-12.91 13.683-1.548-.899-5.42-4.13-10.713-6.582z"/><path fill="#caa55a" d="M293.234 245.39c13.425 14.069 35.366 5.423 55.767-.385 17.81-5.164 42.207-.52 55.762 4.515-.13 3.616-.649 7.871-1.808 13.295-.13.908-.52 1.942-.774 2.971-17.555-9.943-48.535-13.035-67.254 1.164-19.103 14.588-48.405 11.357-55.247-2.712-8.906-21.3 5.164-25.301 13.554-18.848"/><path fill="none" stroke="#343536" stroke-width="5.03429625" d="M293.234 245.39c13.425 14.069 35.366 5.423 55.767-.385 17.81-5.164 42.207-.52 55.762 4.515-.13 3.616-.649 7.871-1.808 13.295-.13.908-.52 1.942-.774 2.971-17.555-9.943-48.535-13.035-67.254 1.164-19.103 14.588-48.405 11.357-55.247-2.712-8.906-21.3 5.164-25.301 13.554-18.848zM383.073 357.567c5.938-7.876 16.141-5.938 26.205-3.87m-103.523 19.358c5.294-1.678 10.198-2.841 13.81-3.481 11.491-2.457 29.301-9.165 51.376-4.78m-.904-12.39c-13.554 7.616-23.623 2.581-33.432-7.747 5.294-.514 9.295-1.553 13.165-5.549 6.972-6.717 3.616-24.012 8.266-32.013m59.378 218.282c7.87-9.554 28.912-26.85 25.556-56.67m-39.111-53.57c-1.678 11.743-51.117 14.459-66.48 14.325m185.755-182.135c-2.716.65-5.813.904-9.17.515-5.284-.515-19.103.39-27.623-15.618m39.51 61.056c-8.915 0-37.572-.26-49.968-25.556m-60.537 7.876c-5.549 9.29-7.742 18.325-6.198 31.365 1.423 11.232-1.678 19.877-15.617 28.138 12.395 11.232 44.405 6.458 52.795-25.297m-18.459 25.686c-4 13.944 7.616 14.848 8.65 21.037 1.164 6.847-7.227 11.366-12.266 14.848 36.923 25.427 71.903-32.269 62.864-68.547m18.849 81.712c-6.453-2.063-20.393-11.357-26.59-34.336m6.202-179.422c.255 5.804-6.977 13.29-14.463 12.52-7.487-.778-14.84 3.097-14.454 10.713m-19.113-8.91c3.356-23.233 25.436-13.554 31.37-14.843"/></svg>