<?xml version="1.0" encoding="iso-8859-1"?>
<!-- Generator: Adobe Illustrator 24.0.1, SVG Export Plug-In . SVG Version: 6.00 Build 0)  -->
<svg version="1.1" id="Layer_1" xmlns="http://www.w3.org/2000/svg" xmlns:xlink="http://www.w3.org/1999/xlink" x="0px" y="0px"
	 viewBox="0 0 612 792" style="enable-background:new 0 0 612 792;" xml:space="preserve">
<path style="fill:#FFFFFF;" d="M497.346,202.747c-41.787-14.422-74.269-45.358-84.771-80.735l-1.46-4.917h-5.129H196.258h-5.129
	l-1.46,4.917c-10.502,35.377-42.985,66.313-84.771,80.735l-4.631,1.598v4.899c0,110.837,25.085,214.181,74.557,307.161
	c18.181,34.169,39.868,67.222,64.458,98.24c22.669,28.594,43.376,49.986,56.98,63.59l4.86,4.86l4.86-4.86
	c13.604-13.604,34.312-34.997,56.979-63.59c24.59-31.018,46.277-64.07,64.458-98.24c49.473-92.98,74.557-196.323,74.557-307.161
	v-4.899L497.346,202.747z"/>
<path style="fill:#ED1C24;" d="M405.985,123.968c10.947,36.876,43.995,69.703,89.118,85.276
	c0,253.616-132.01,402.159-193.981,464.13c-61.971-61.971-193.981-210.515-193.981-464.13c45.122-15.574,78.17-48.4,89.117-85.276
	H405.985"/>
<path style="fill:#FFFFFF;" d="M130.788,359.642c12.167,52.612,30.921,102.849,56.172,150.306c0.573,1.077,1.16,2.149,1.74,3.224
	v-153.53H130.788z"/>
<path style="fill:#FFFFFF;" d="M188.699,156.291c-16.362,25.169-42.55,45.683-74.669,57.774c0.194,28.913,2.151,57.292,5.827,85.093
	h68.843V156.291z"/>
<path style="fill:#FFFFFF;" d="M249.183,604.995c0.292,0.369,0.578,0.742,0.871,1.111c19.681,24.825,37.88,44.14,51.068,57.517
	v-303.98h-51.938V604.995z"/>
<rect x="249.183" y="130.842" style="fill:#FFFFFF;" width="51.938" height="168.317"/>
<path style="fill:#FFFFFF;" d="M310.78,272.059v114.684H464.55c10.329-37.025,17.29-75.303,20.861-114.684H310.78z"/>
<path style="fill:#ED1C24;" d="M336.982,287.805c-0.407-2.956-3.174-5.203-6.348-5.203c-5.737,0-7.894,4.996-7.894,10.199
	c0,4.954,2.157,9.949,7.894,9.949c3.907,0,6.104-2.748,6.592-6.66h6.185c-0.651,7.409-5.656,12.155-12.777,12.155
	c-8.993,0-14.282-6.869-14.282-15.443c0-8.825,5.289-15.693,14.282-15.693c6.389,0,11.76,3.83,12.533,10.698H336.982z"/>
<path style="fill:#ED1C24;" d="M355.703,277.814h6.551l10.865,29.722h-6.633l-2.197-6.619h-10.865l-2.279,6.619h-6.47
	L355.703,277.814z M355.092,296.047h7.528l-3.663-10.906h-0.081L355.092,296.047z"/>
<path style="fill:#ED1C24;" d="M375.644,277.814h6.389v24.227h14.161v5.495h-20.549V277.814z"/>
<path style="fill:#ED1C24;" d="M419.145,287.805c-0.407-2.956-3.174-5.203-6.348-5.203c-5.738,0-7.894,4.996-7.894,10.199
	c0,4.954,2.156,9.949,7.894,9.949c3.906,0,6.104-2.748,6.592-6.66h6.185c-0.651,7.409-5.656,12.155-12.777,12.155
	c-8.993,0-14.283-6.869-14.283-15.443c0-8.825,5.29-15.693,14.283-15.693c6.389,0,11.76,3.83,12.533,10.698H419.145z"/>
<path style="fill:#ED1C24;" d="M429.93,277.814h6.389v29.722h-6.389V277.814z"/>
<path style="fill:#ED1C24;" d="M454.956,277.107c8.993,0,14.283,6.868,14.283,15.693c0,8.575-5.29,15.443-14.283,15.443
	c-8.993,0-14.282-6.869-14.282-15.443C440.673,283.975,445.963,277.107,454.956,277.107z M454.956,302.749
	c5.738,0,7.895-4.995,7.895-9.949c0-5.203-2.157-10.199-7.895-10.199c-5.737,0-7.894,4.996-7.894,10.199
	C447.061,297.754,449.218,302.749,454.956,302.749z"/>
<path style="fill:#ED1C24;" d="M316.352,314.539h13.113c7.249,0,10.059,4.704,10.059,9.533c0,4.829-2.811,9.532-10.059,9.532h-6.72
	v10.656h-6.393V314.539z M322.745,328.526h4.968c2.973,0,5.62-0.666,5.62-4.454c0-3.788-2.647-4.454-5.62-4.454h-4.968V328.526z"/>
<path style="fill:#ED1C24;" d="M346.408,314.539h6.556l10.873,29.721h-6.638L355,337.642h-10.874l-2.28,6.618h-6.475
	L346.408,314.539z M345.796,332.772h7.534l-3.666-10.906h-0.081L345.796,332.772z"/>
<path style="fill:#ED1C24;" d="M364.328,314.539h12.543c7.535,0,13.195,4.829,13.195,14.694c0,8.617-4.317,15.027-13.195,15.027
	h-12.543V314.539z M370.721,338.766h5.702c3.706,0,7.249-2.331,7.249-8.908c0-5.994-2.036-9.823-8.389-9.823h-4.561V338.766z"/>
<path style="fill:#ED1C24;" d="M405.501,313.832c9,0,14.294,6.869,14.294,15.693c0,8.576-5.294,15.444-14.294,15.444
	c-8.999,0-14.293-6.868-14.293-15.444C391.208,320.701,396.502,313.832,405.501,313.832z M405.501,339.474
	c5.743,0,7.901-4.995,7.901-9.949c0-5.203-2.158-10.198-7.901-10.198c-5.742,0-7.9,4.995-7.9,10.198
	C397.602,334.479,399.76,339.474,405.501,339.474z"/>
<path style="fill:#ED1C24;" d="M435.64,344.261h-7.208l-9.448-29.721h6.597l6.475,20.897h0.081l6.557-20.897h6.597L435.64,344.261z"
	/>
<path style="fill:#ED1C24;" d="M451.809,314.539h6.557l10.873,29.721h-6.638l-2.199-6.618h-10.873l-2.281,6.618h-6.475
	L451.809,314.539z M451.198,332.772h7.534l-3.665-10.906h-0.081L451.198,332.772z"/>
<path style="fill:#ED1C24;" d="M358.906,381.111h-5.911v-18.898h-7.327v-4.454c4.121,0.083,7.909-1.332,8.533-5.786h4.704V381.111z"
	/>
<path style="fill:#ED1C24;" d="M374.602,373.618c0.375,1.957,1.873,3.622,3.913,3.622c4.288,0,5.411-5.62,5.578-8.867l-0.083-0.083
	c-1.624,2.29-3.746,3.247-6.577,3.247c-2.498,0-5.037-1.166-6.702-2.997c-1.54-1.79-2.248-4.204-2.248-6.494
	c0-5.953,4.121-10.657,10.198-10.657c8.825,0,11.198,7.701,11.198,15.069c0,7.118-3.164,15.235-11.447,15.235
	c-5.037,0-8.783-2.955-9.449-8.076H374.602z M383.552,361.671c0-2.706-1.749-5.411-4.704-5.411c-2.831,0-4.454,2.706-4.454,5.328
	c0,2.748,1.416,5.495,4.454,5.495C382.012,367.083,383.552,364.544,383.552,361.671z"/>
<path style="fill:#ED1C24;" d="M408.947,381.111h-5.911v-18.898h-7.327v-4.454c4.121,0.083,7.909-1.332,8.534-5.786h4.704V381.111z"
	/>
<path style="fill:#ED1C24;" d="M429.181,351.39c5.828,0,10.74,3.664,10.74,15.027c0,11.614-4.912,15.277-10.74,15.277
	c-5.745,0-10.657-3.663-10.657-15.277C418.524,355.053,423.436,351.39,429.181,351.39z M429.181,376.824
	c4.829,0,4.829-7.118,4.829-10.407c0-3.039,0-10.157-4.829-10.157c-4.746,0-4.746,7.118-4.746,10.157
	C424.435,369.706,424.435,376.824,429.181,376.824z"/>
</svg>
