<svg height="1000" viewBox="0 0 1000 999.99998" width="1000" xmlns="http://www.w3.org/2000/svg"><g transform="matrix(4.7630788 0 0 4.7630788 -889.04295 -1539.2556)"><g><path clip-rule="evenodd" d="m 274.052 343.001 c 48.139 0 87.399 39.26 87.399 87.399 c 0 48.139 -39.261 87.4 -87.399 87.4 c -48.139 0 -87.399 -39.262 -87.399 -87.4 c -.001 -48.138 39.26 -87.399 87.399 -87.399 z" fill="#343536" fill-rule="evenodd"/><path clip-rule="evenodd" d="m 262.906 346.281 c .215 -.029 .432 -.057 .648 -.083 c -.216 .026 -.433 .054 -.648 .083 z" fill="#d2b182" fill-rule="evenodd"/><path clip-rule="evenodd" d="m 260.327 346.665 c .458 -.075 .919 -.147 1.38 -.215 c -.461 .068 -.922 .14 -1.38 .215 z" fill="#d2b182" fill-rule="evenodd"/><path clip-rule="evenodd" d="m 293.723 512.941 c -.275 .064 -.55 .131 -.826 .193 c .277 -.062 .55 -.126 .826 -.193 z" fill="#d2b182" fill-rule="evenodd"/><path clip-rule="evenodd" d="m 310.254 353.686 c 28.713 13.626 48.652 42.916 48.652 76.714 c 0 39.063 -26.632 72.096 -62.664 81.895 c .154 -.043 .309 -.082 .462 -.125 l .938 -1.453 l .99 -1.674 l .923 -1.711 l .854 -1.746 l .779 -1.777 l .702 -1.807 l .618 -1.826 l .532 -1.848 l .441 -1.863 l .348 -1.877 l .245 -1.883 l .143 -1.889 l .03 -1.889 l -.084 -1.883 l -.205 -1.875 l -.33 -1.857 l -.462 -1.836 l -.597 -1.811 l -.736 -1.773 l -.878 -1.734 l -1.025 -1.686 l -1.174 -1.631 l -1.326 -1.568 l -1.476 -1.502 l -1.63 -1.428 l -1.784 -1.35 l -1.94 -1.266 l -2.098 -1.18 l -2.256 -1.09 l -2.732 -1.129 l .079 -.09 l .79 -1.027 l .716 -1.076 l .645 -1.127 l .569 -1.168 l .501 -1.213 l .431 -1.252 l .366 -1.295 l .299 -1.33 l .24 -1.369 l .18 -1.406 l .125 -1.443 l .069 -1.483 l .018 -1.52 l -.03 -1.559 l -.079 -1.611 l -.094 -1.115 l -.138 -1.119 l -.182 -1.111 l -.226 -1.103 l -.27 -1.092 l -.313 -1.078 l -.357 -1.064 l -.399 -1.049 l -.444 -1.031 l -.486 -1.01 l -.528 -.986 l -.572 -.969 l -.616 -.94 l -.656 -.91 l -.699 -.885 l -.744 -.854 l -.787 -.818 l -.828 -.781 l -.868 -.742 l -.909 -.704 l -.951 -.661 l -.99 -.617 l -1.029 -.569 l -1.068 -.522 l -1.108 -.468 l -1.141 -.416 l -1.179 -.36 l -1.213 -.306 l -1.249 -.245 l -1.28 -.185 l -1.311 -.124 l -1.305 -.06 l -4.092 -.107 l -3.909 -.148 l -.466 -.023 l .827 -2.529 l .78 -2.191 l .84 -2.185 l .899 -2.174 l .961 -2.165 l 1.021 -2.154 l 1.082 -2.143 l 1.143 -2.133 l 1.203 -2.118 l 1.264 -2.107 l 1.324 -2.092 l 1.386 -2.079 l 1.445 -2.064 l 1.507 -2.05 l 1.568 -2.031 l 1.631 -2.017 l 1.689 -1.997 l 1.751 -1.978 l 1.813 -1.961 l 1.873 -1.941 l 1.935 -1.921 l 1.996 -1.899 l 2.058 -1.879 l 2.12 -1.855 l 2.18 -1.832 l 2.242 -1.81 l 2.304 -1.785 l 2.366 -1.76 l 2.427 -1.734 l 2.489 -1.708 l 2.55 -1.681 l 3.803 -2.406 c -.086 -.042 -.167 -.083 -.249 -.122 z m -17.359 159.451 c -6.063 1.385 -12.369 2.119 -18.843 2.119 c -39.361 0 -72.939 -28.705 -82.452 -65.156 c 9.024 9.639 21.967 16.141 35.948 19.615 c 17.975 4.469 41.329 4.275 55.375 -4.877 c 24.856 9.449 21.588 33 9.972 48.299 z M 189.714 421.084 c .607 -5.517 1.743 -10.879 3.362 -16.03 c 9.355 7.409 28.921 15.073 71.323 15.955 c 13.182 .273 20.802 10.567 21.494 21.522 c 1.046 16.545 -5.498 25.105 -26.712 26.482 c -43.578 2.826 -60.876 -16.518 -68.615 -23.742 c -.913 -4.755 -1.255 -14.836 -.852 -24.187 z m 6.735 -24.945 c 11.349 -25.566 34.98 -44.545 63.328 -49.382 c -.03 .005 -.06 .012 -.092 .017 c -29.864 19.742 -38.1 42.367 -47.16 63.728 c -8.304 -1.478 -13.22 -4.537 -18.047 -8.799 c .594 -1.893 1.253 -3.747 1.971 -5.564 z m 77.603 -50.592 c 12.646 0 24.656 2.794 35.456 7.791 c -.59 -.271 -1.182 -.535 -1.778 -.795 c -28.474 17.721 -46.483 40.444 -54.027 64.553 c -17.145 -.147 -29.354 -2.388 -37.829 -5.219 c 6.991 -23.972 21.836 -46.775 47.221 -65.484 c .837 -.158 1.67 -.298 2.505 -.424 c -.165 .016 -.327 .032 -.491 .05 c 2.937 -.312 5.922 -.472 8.943 -.472 z" fill="#d2b182" fill-rule="evenodd"/><path clip-rule="evenodd" d="M 381.404 369.574 L 382.665 369.632 L 383.842 369.658 L 384.939 369.654 L 385.976 369.617 L 386.957 369.545 L 387.895 369.438 L 388.798 369.295 L 389.673 369.115 L 390.528 368.898 L 391.37 368.645 L 392.205 368.359 L 393.046 368.039 L 393.903 367.688 L 402.221 364.074 L 400.594 363.988 L 401.416 363.453 L 402.392 362.666 L 403.324 361.743 L 404.201 360.678 L 405.006 359.47 L 405.732 358.113 L 406.367 356.604 L 406.905 354.94 L 407.335 353.114 L 407.652 351.119 L 407.848 348.949 L 407.914 346.593 L 407.887 345.671 L 407.81 344.775 L 407.688 343.905 L 407.522 343.057 L 407.316 342.236 L 407.076 341.441 L 406.805 340.67 L 406.506 339.918 L 406.181 339.191 L 405.838 338.484 L 405.477 337.796 L 405.105 337.125 L 404.722 336.471 L 404.334 335.829 L 403.941 335.203 L 403.549 334.582 L 403.156 333.975 L 402.772 333.377 L 402.396 332.786 L 402.031 332.199 L 401.679 331.617 L 401.344 331.039 L 401.028 330.465 L 400.732 329.888 L 400.459 329.313 L 400.21 328.738 L 399.988 328.163 L 399.796 327.58 L 399.631 326.994 L 399.5 326.398 L 399.399 325.794 L 399.125 323.164 L 396.676 323.491 L 396.277 323.518 L 395.883 323.525 L 395.456 323.518 L 394.972 323.512 L 394.422 323.52 L 393.803 323.562 L 391.357 323.883 L 391.607 326.549 L 391.735 327.397 L 391.905 328.211 L 392.114 328.986 L 392.356 329.726 L 392.631 330.434 L 392.93 331.112 L 393.25 331.758 L 393.585 332.378 L 393.935 332.976 L 394.292 333.557 L 394.655 334.118 L 395.019 334.667 L 395.381 335.207 L 395.739 335.743 L 396.092 336.275 L 396.434 336.808 L 396.767 337.349 L 397.086 337.897 L 397.392 338.458 L 397.681 339.037 L 397.954 339.635 L 398.209 340.259 L 398.443 340.911 L 398.653 341.598 L 398.843 342.325 L 399.003 343.095 L 399.135 343.912 L 399.235 344.784 L 399.301 345.712 L 399.329 346.701 L 399.316 347.71 L 399.171 349.19 L 398.868 350.41 L 398.428 351.432 L 397.872 352.283 L 397.201 352.996 L 396.415 353.589 L 395.507 354.071 L 394.479 354.439 L 393.341 354.695 L 392.105 354.829 L 390.793 354.842 L 389.423 354.731 L 388.012 354.504 L 386.585 354.162 L 385.158 353.711 L 384.533 353.463 L 384.19 352.383 L 383.879 351.406 L 383.563 350.426 L 383.239 349.446 L 382.909 348.468 L 382.568 347.492 L 382.216 346.519 L 381.849 345.554 L 381.468 344.599 L 381.069 343.653 L 380.651 342.716 L 380.211 341.795 L 379.748 340.89 L 379.259 340.001 L 378.741 339.128 L 378.191 338.279 L 377.613 337.454 L 376.998 336.656 L 376.349 335.883 L 375.657 335.143 L 374.927 334.436 L 374.154 333.766 L 373.339 333.134 L 372.477 332.547 L 371.571 332.005 L 370.619 331.512 L 369.622 331.068 L 368.577 330.681 L 367.486 330.347 L 366.35 330.071 L 365.157 329.852 L 364.103 329.726 L 363.071 329.616 L 362.014 329.521 L 360.934 329.438 L 359.829 329.37 L 358.701 329.311 L 357.55 329.268 L 356.374 329.236 L 355.174 329.217 L 353.951 329.21 L 352.704 329.217 L 351.432 329.236 L 350.137 329.268 L 348.816 329.311 L 347.473 329.368 L 346.632 329.41 L 345.938 329.049 L 344.73 328.502 L 343.518 328.034 L 342.307 327.641 L 341.099 327.325 L 339.903 327.083 L 338.721 326.914 L 337.559 326.815 L 336.416 326.79 L 335.303 326.832 L 334.22 326.946 L 333.172 327.128 L 332.162 327.381 L 331.196 327.704 L 330.277 328.1 L 329.413 328.569 L 328.608 329.118 L 327.873 329.744 L 327.218 330.451 L 326.655 331.236 L 326.198 332.096 L 325.86 333.02 L 325.65 334 L 325.577 335.014 L 325.636 336.059 L 325.829 337.121 L 326.153 338.197 L 326.605 339.283 L 326.633 339.335 L 325.929 339.754 L 324.694 340.501 L 323.468 341.254 L 322.248 342.013 L 321.037 342.781 L 319.835 343.556 L 318.643 344.336 L 317.461 345.125 L 316.288 345.922 L 315.129 346.726 L 313.98 347.537 L 312.845 348.355 L 311.721 349.182 L 310.611 350.016 L 309.516 350.856 L 308.435 351.706 L 307.368 352.564 L 306.317 353.43 L 305.283 354.305 L 304.267 355.186 L 303.266 356.076 L 302.283 356.975 L 301.318 357.881 L 300.374 358.797 L 299.448 359.722 L 298.543 360.654 L 297.658 361.596 L 296.794 362.545 L 295.95 363.506 L 295.131 364.475 L 294.335 365.453 L 291.213 369.436 L 296.926 369.545 L 298.695 369.578 L 300.352 369.609 L 301.907 369.637 L 303.366 369.663 L 304.739 369.686 L 306.033 369.707 L 307.257 369.727 L 308.414 369.746 L 309.52 369.762 L 310.576 369.778 L 311.594 369.792 L 312.577 369.807 L 313.539 369.819 L 314.484 369.833 L 315.423 369.844 L 316.357 369.857 L 317.303 369.871 L 318.265 369.885 L 319.248 369.898 L 320.265 369.914 L 321.319 369.93 L 322.421 369.946 L 323.58 369.963 L 324.8 369.984 L 326.092 370.006 L 327.464 370.029 L 328.923 370.053 L 332.132 370.11 L 333.898 370.143 L 338.492 370.229 L 338.826 370.478 L 377.621 370.478 L 378.286 369.353 L 380.044 369.489 Z" fill="#343536" fill-rule="evenodd"/><path clip-rule="evenodd" d="m 280.674 392.241 v 19.774 c 0 43.867 37.455 94.307 64.207 110.57 c -.025 .018 .214 .057 .26 0 c 26.751 -16.266 64.207 -66.703 64.207 -110.57 v -17.534 v -2.24 v -24.374 h -128.66 v 24.374 z" fill="#343536" fill-rule="evenodd"/><path clip-rule="evenodd" d="M 406.166 371.049 L 406.166 391.3 L 283.869 391.3 L 283.869 371.049 Z" fill="#fff" fill-rule="evenodd"/><path clip-rule="evenodd" d="M 398.564 448.529 L 400.075 444.455 L 401.438 440.369 L 402.645 436.273 L 403.688 432.18 L 404.56 428.096 L 405.25 424.031 L 405.753 419.99 L 406.06 415.983 L 406.166 411.973 L 406.166 395.434 L 391.871 395.483 L 391.871 463.236 L 393.232 460.58 L 395.134 456.6 L 396.914 452.58 Z" fill="#df4145" fill-rule="evenodd"/><path clip-rule="evenodd" d="M 382.205 479.621 L 384.585 475.953 L 386.885 472.209 L 388.938 468.67 L 388.698 395.494 L 373.712 395.547 L 373.712 491.31 L 374.694 490.072 L 377.252 486.689 L 379.758 483.203 Z" fill="#00acea" fill-rule="evenodd"/><path clip-rule="evenodd" d="M 364.145 502.432 L 366.81 499.535 L 369.466 496.504 L 370.53 495.227 L 370.53 395.558 L 355.554 395.609 L 355.554 510.77 L 356.154 510.246 L 358.806 507.797 L 361.472 505.189 Z" fill="#df4145" fill-rule="evenodd"/><path clip-rule="evenodd" d="M 345.01 518.894 L 345.906 518.32 L 348.393 516.576 L 350.938 514.644 L 352.372 513.475 L 352.372 395.621 L 345.011 395.646 L 337.395 395.62 L 337.395 513.271 L 339.081 514.644 L 341.626 516.576 L 344.112 518.32 Z" fill="#00acea" fill-rule="evenodd"/><path clip-rule="evenodd" d="M 328.545 505.189 L 331.212 507.797 L 333.862 510.246 L 334.214 510.553 L 334.214 395.609 L 319.237 395.557 L 319.237 494.93 L 320.552 496.506 L 323.205 499.537 L 325.874 502.434 Z" fill="#df4145" fill-rule="evenodd"/><path clip-rule="evenodd" d="M 284.266 419.99 L 284.768 424.031 L 285.46 428.096 L 286.33 432.182 L 287.373 436.273 L 288.581 440.369 L 289.944 444.457 L 291.455 448.531 L 293.103 452.58 L 294.885 456.6 L 296.786 460.58 L 298.145 463.232 L 297.908 395.482 L 283.855 395.434 L 283.855 411.974 L 283.959 415.984 Z" fill="#df4145" fill-rule="evenodd"/><path clip-rule="evenodd" d="M 310.26 483.203 L 312.765 486.689 L 315.323 490.074 L 316.309 491.316 L 316.064 395.547 L 301.08 395.494 L 301.08 468.67 L 303.133 472.209 L 305.435 475.955 L 307.813 479.623 Z" fill="#00acea" fill-rule="evenodd"/><path clip-rule="evenodd" d="m 397.431 325.316 c -1.589 .265 -2.413 -.045 -4.001 .22 c .574 8.543 8.194 9.886 7.795 22.278 c -.309 9.602 -10.176 10.6 -18.235 7.09 c -3.297 -10.335 -6.318 -21.332 -18.118 -23.164 c -5.162 -.662 -11.383 -.794 -18.662 -.397 c -11.73 -6.561 -25.371 -.193 -15.089 11.118 c -7.944 9.199 -2.781 17.968 8.338 26.107 c 7.813 0 15.627 0 23.44 0 c -2.916 -5.162 -8.646 -9.863 -8.366 -15.783 c .24 -5.055 -2.952 -8.456 -6.735 -12.763 c -1.331 -1.515 .626 -2.373 2.393 -.613 c 3.474 3.458 6.538 10.105 6.664 14.336 c .15 4.995 5.666 10.394 7.986 14.824 h 11.69 c 1.456 -1.853 1.178 -6.387 5.413 -6.651 c 1.125 -.947 -.437 -2.792 -2.382 -4.765 c 3.26 .832 4.48 1.728 5.191 4.602 c 3.19 .975 7.082 2.521 11.294 1.957 c 4.367 -.795 9.963 -4.627 9.957 -17.117 c -.004 -8.82 -7.974 -13.378 -8.573 -21.279 z M 295.077 367.6 c 7.874 -10.261 19.896 -19.16 33.066 -26.943 c .386 1.308 .483 .945 1.042 1.857 c -7.494 8.077 -3.094 18.165 6.636 25.755 c -20.78 -.396 -19.964 -.271 -40.744 -.669 z" fill="#e2e4e7" fill-rule="evenodd"/><path clip-rule="evenodd" d="m 378.73 367.473 c -.001 -1.659 .954 -3.639 2.866 -4.978 c 4.616 2.172 6.973 2.809 12.42 3.062 c -4.681 2.076 -7.229 2.588 -15.286 1.916 z" fill="#fff" fill-rule="evenodd"/><path clip-rule="evenodd" d="m 365.108 340.628 c 1.979 -.85 2.634 -.635 4.301 -.37 c 1.763 .282 3.013 2.243 3.564 3.941 c .511 1.572 -.642 2.657 -1.23 1.108 c -.696 -1.832 -.855 -3.081 -2.949 -3.202 c -1.931 -.112 -3.079 .121 -3.81 .246 c -.604 .104 -.871 -1.295 .124 -1.723 z" fill="#343536" fill-rule="evenodd"/><path clip-rule="evenodd" d="m 365.6 346.048 c .696 -.577 3.883 -2.183 5.161 -1.355 c .955 .346 .13 .992 -.245 1.355 c .476 .613 -.085 2.697 -1.475 2.462 c -1.202 -.203 -.724 -1.724 -.492 -2.216 c .004 -.467 -1.411 .046 -2.058 .636 c -.745 .677 -2.025 .058 -.891 -.882 z" fill="#343536" fill-rule="evenodd"/><path clip-rule="evenodd" d="m 359.946 347.279 c .895 .904 1.489 2.15 1.598 4.68 c 4.085 1.117 4.816 2.073 6.268 4.68 c .829 1.49 2.621 .463 1.721 -.985 c -1.471 -2.366 -2.92 -3.532 -6.76 -4.681 c .1 -1.684 -.563 -2.855 -1.475 -4.433 c -.965 -1.669 -2.307 -.227 -1.352 .739 z" fill="#343536" fill-rule="evenodd"/><path clip-rule="evenodd" d="m 355.665 337.75 c -1.341 -.193 -1.528 1.407 -.446 1.557 c 2.057 .286 2.131 1.335 3.133 2.635 c .801 1.04 1.304 -1.341 .311 -2.444 c -.449 -.501 -1.045 -1.467 -2.998 -1.748 z" fill="#343536" fill-rule="evenodd"/><path clip-rule="evenodd" d="m 268.945 355.152 c 0 0 0 .002 0 0 c -.257 -.256 -.61 -.399 -.971 -.424 c -.359 -.025 -.739 .063 -1.024 .291 c -1.638 1.314 -3.253 2.645 -4.849 4.001 c -.912 -.196 -1.83 -.368 -2.752 -.525 c -.355 -.061 -.723 .044 -1.015 .242 c -.294 .2 -.521 .5 -.609 .85 v -.001 c -.088 .351 -.019 .686 .157 .946 c .18 .263 .471 .443 .829 .505 c .294 .05 .589 .099 .882 .152 c -2.078 1.832 -4.105 3.709 -6.073 5.647 c -1.154 -.265 -2.319 -.49 -3.489 -.688 c -.356 -.061 -.722 .044 -1.015 .242 c -.294 .2 -.521 .5 -.609 .85 v -.001 c -.088 .35 -.019 .686 .156 .946 c .18 .263 .472 .443 .83 .505 c .647 .109 1.295 .228 1.938 .355 c -1.427 1.474 -2.819 2.979 -4.187 4.511 c -1.245 -.293 -2.504 -.539 -3.769 -.752 c -.356 -.062 -.722 .043 -1.015 .242 c -.294 .199 -.521 .5 -.61 .85 v -.002 c -.087 .351 -.019 .687 .157 .947 c .18 .262 .472 .443 .83 .505 c .816 .138 1.63 .288 2.439 .457 c -1.646 1.909 -3.254 3.854 -4.836 5.823 c -.23 .285 -.316 .664 -.291 1.025 c .025 .361 .168 .715 .425 .971 l -.001 -.001 c .257 .256 .58 .368 .892 .346 c .312 -.024 .607 -.192 .837 -.478 c 1.905 -2.376 3.853 -4.715 5.855 -6.998 c 1.154 .313 2.296 .67 3.433 1.053 c .344 .114 .688 .092 .969 -.055 c .282 -.145 .501 -.41 .588 -.759 v .001 c .088 -.351 .029 -.723 -.137 -1.037 c -.165 -.314 -.438 -.578 -.782 -.693 c -.708 -.238 -1.419 -.467 -2.135 -.68 c 1.419 -1.561 2.864 -3.09 4.347 -4.584 c 1.28 .336 2.547 .727 3.806 1.15 c .344 .114 .687 .092 .968 -.055 c .283 -.145 .502 -.41 .59 -.759 v .001 c .087 -.35 .029 -.722 -.139 -1.037 c -.164 -.315 -.438 -.578 -.781 -.693 c -.761 -.256 -1.523 -.5 -2.293 -.727 c 2.049 -1.974 4.16 -3.885 6.318 -5.75 c .108 .026 .216 .055 .324 .082 c 1.459 .365 2.901 .802 4.331 1.283 c .344 .114 .686 .092 .968 -.055 c .283 -.144 .502 -.409 .59 -.759 v .001 c .088 -.35 .029 -.722 -.139 -1.037 c -.164 -.314 -.438 -.578 -.781 -.693 c -.947 -.317 -1.898 -.619 -2.857 -.891 c 1.179 -.985 2.367 -1.957 3.566 -2.92 c .285 -.23 .454 -.525 .478 -.838 c .025 -.308 -.088 -.632 -.344 -.888 z" fill="#343536" fill-rule="evenodd"/><path clip-rule="evenodd" d="m 298.01 386.9 c -.626 1.037 -1.723 1.554 -3.291 1.554 c -1.611 0 -2.918 -.58 -3.916 -1.739 c -.591 -.682 -1.017 -1.565 -1.275 -2.65 c -.215 -.88 -.321 -1.809 -.321 -2.795 c 0 -2.332 .535 -4.152 1.604 -5.461 c 1.04 -1.275 2.337 -1.914 3.89 -1.914 c .512 0 .998 .073 1.462 .217 c .461 .143 .829 .331 1.103 .572 c .535 .468 .802 1.104 .802 1.9 c 0 .426 -.088 .761 -.264 1.01 c -.179 .246 -.417 .373 -.719 .373 c -.535 0 -.982 -.279 -1.347 -.838 c .219 -.301 .328 -.573 .328 -.821 c 0 -.3 -.099 -.542 -.29 -.72 c -.193 -.182 -.447 -.272 -.762 -.272 c -.749 0 -1.332 .469 -1.751 1.4 c -.171 .378 -.29 .859 -.36 1.446 c -.065 .586 -.099 1.414 -.099 2.486 c 0 1.684 .081 2.941 .244 3.766 c .114 .607 .276 1.092 .483 1.455 c .207 .367 .483 .65 .826 .856 c .336 .206 .694 .308 1.08 .308 c .85 0 1.275 -.511 1.275 -1.527 c 0 -.072 -.006 -.185 -.012 -.328 c .371 .057 .666 .227 .885 .514 c .218 .287 .36 .687 .425 1.208 z m 9.774 1.257 h -3.724 l -.626 -1.974 h -3.702 l -.607 1.974 h -1.073 l 4.329 -13.966 h .928 z m -4.818 -3.416 l -1.406 -4.421 l -1.375 4.421 z m 12.389 3.416 h -7.069 v -13.966 h 3.36 v 12.514 h 3.709 z m 8.468 -1.257 c -.625 1.037 -1.722 1.554 -3.291 1.554 c -1.61 0 -2.916 -.58 -3.916 -1.739 c -.59 -.682 -1.016 -1.565 -1.275 -2.65 c -.214 -.88 -.32 -1.809 -.32 -2.795 c 0 -2.332 .534 -4.152 1.604 -5.461 c 1.04 -1.275 2.336 -1.914 3.89 -1.914 c .512 0 .997 .073 1.461 .217 c .462 .143 .83 .331 1.105 .572 c .535 .468 .801 1.104 .801 1.9 c 0 .426 -.087 .761 -.264 1.01 c -.178 .246 -.416 .373 -.719 .373 c -.534 0 -.982 -.279 -1.346 -.838 c .219 -.301 .327 -.573 .327 -.821 c 0 -.3 -.097 -.542 -.289 -.72 c -.193 -.182 -.448 -.272 -.762 -.272 c -.75 0 -1.333 .469 -1.751 1.4 c -.172 .378 -.29 .859 -.359 1.446 c -.066 .586 -.101 1.414 -.101 2.486 c 0 1.684 .082 2.941 .245 3.766 c .114 .607 .276 1.092 .483 1.455 c .207 .367 .483 .65 .825 .856 c .336 .206 .694 .308 1.081 .308 c .85 0 1.275 -.511 1.275 -1.527 c 0 -.072 -.005 -.185 -.013 -.328 c .371 .057 .666 .227 .886 .514 c .216 .287 .36 .687 .423 1.208 z m 4.275 1.257 h -3.36 v -13.966 h 3.36 z m 5.772 -14.262 c 1.296 0 2.394 .713 3.291 2.137 c .867 1.387 1.303 3.164 1.303 5.334 c 0 1.09 -.159 2.15 -.479 3.182 c -.42 1.357 -1.073 2.395 -1.966 3.117 c -.657 .528 -1.373 .79 -2.148 .79 c -.776 0 -1.493 -.262 -2.146 -.79 c -.871 -.688 -1.527 -1.711 -1.975 -3.068 c -.371 -1.125 -.557 -2.303 -.557 -3.527 c 0 -2.123 .489 -3.888 1.47 -5.291 c .86 -1.236 1.929 -1.863 3.207 -1.884 z m .996 7.019 v -1.771 c 0 -1.603 -.059 -2.608 -.18 -3.02 c -.16 -.539 -.443 -.808 -.852 -.808 c -.444 0 -.749 .283 -.911 .849 c -.057 .192 -.091 .412 -.103 .66 c -.012 .248 -.021 .992 -.03 2.225 l .007 1.924 v 2.109 c .004 1.188 .012 1.9 .021 2.138 c .01 .241 .03 .476 .068 .709 c .05 .332 .162 .6 .336 .804 c .171 .199 .374 .301 .604 .301 c .312 0 .547 -.137 .709 -.406 c .159 -.268 .26 -.698 .295 -1.292 c .015 -.193 .027 -1.667 .036 -4.422 z m 16.542 5.986 c -.626 1.037 -1.723 1.554 -3.291 1.554 c -1.611 0 -2.917 -.58 -3.916 -1.739 c -.591 -.682 -1.017 -1.565 -1.275 -2.65 c -.215 -.88 -.321 -1.809 -.321 -2.795 c 0 -2.332 .535 -4.152 1.604 -5.461 c 1.04 -1.275 2.337 -1.914 3.891 -1.914 c .512 0 .997 .073 1.461 .217 c .461 .143 .829 .331 1.103 .572 c .535 .468 .802 1.104 .802 1.9 c 0 .426 -.088 .761 -.264 1.01 c -.179 .246 -.417 .373 -.719 .373 c -.535 0 -.982 -.279 -1.347 -.838 c .219 -.301 .328 -.573 .328 -.821 c 0 -.3 -.098 -.542 -.29 -.72 c -.193 -.182 -.447 -.272 -.761 -.272 c -.75 0 -1.333 .469 -1.752 1.4 c -.171 .378 -.29 .859 -.359 1.446 c -.066 .586 -.1 1.414 -.1 2.486 c 0 1.684 .081 2.941 .245 3.766 c .113 .607 .275 1.092 .482 1.455 c .207 .367 .483 .65 .826 .856 c .335 .206 .694 .308 1.08 .308 c .85 0 1.275 -.511 1.275 -1.527 c 0 -.072 -.006 -.185 -.012 -.328 c .371 .057 .666 .227 .885 .514 c .218 .287 .361 .687 .425 1.208 z m 9.775 1.257 h -3.724 l -.626 -1.974 h -3.702 l -.607 1.974 h -1.074 l 4.329 -13.966 h .928 z m -4.819 -3.416 l -1.406 -4.421 l -1.375 4.421 z m 9.711 3.416 h -3.359 v -12.565 h -2.627 v -1.4 h 8.615 v 1.4 h -2.629 z m 11.288 0 h -3.725 l -.626 -1.974 h -3.702 l -.606 1.974 h -1.073 l 4.328 -13.966 h .928 z m -4.818 -3.416 l -1.407 -4.421 l -1.375 4.421 z m 13.398 3.416 h -1.199 l -5.968 -7.603 v 7.603 h -.962 v -13.966 h 1.109 l 6.058 7.683 v -7.683 h .962 z m 4.819 0 h -3.36 v -13.966 h 3.36 z m 10.352 0 h -3.725 l -.625 -1.974 h -3.702 l -.607 1.974 h -1.072 l 4.328 -13.966 h .928 z m -4.818 -3.416 l -1.406 -4.421 l -1.375 4.421 z" fill="#343536" fill-rule="evenodd"/></g></g></svg>