<svg xmlns="http://www.w3.org/2000/svg" width="1000" height="1000" viewBox="0 0 1000 1000"><path fill="#a68d60" d="M491.674 140.326c-25.812-43.008-56.627-78.005-91.15-102.35C366.025 13.637 327.717-.01 287.471 0c-40.254-.007-78.556 13.637-113.06 37.976C70.998 111.138.122 279.362 0 475c.018 130.457 31.674 248.643 83.264 334.675 25.811 43.012 56.627 78.005 91.148 102.35 34.504 24.339 72.806 37.986 113.06 37.976h.045c40.23 0 78.52-13.647 113.006-37.976C503.941 838.862 574.813 670.642 574.937 475c-.015-130.457-31.67-248.64-83.263-334.675"/><path fill="#fff" d="M393.365 901.866c-32.799 23.107-68.486 35.698-105.893 35.703-37.416-.005-73.1-12.596-105.896-35.703C83.098 832.694 12.305 667.699 12.427 475 12.41 346.565 43.72 230.358 93.922 146.72c25.09-41.823 54.877-75.485 87.654-98.585 32.796-23.109 68.48-35.699 105.896-35.705 37.407.006 73.094 12.596 105.893 35.705 98.474 69.175 169.27 234.166 169.145 426.865.017 128.436-31.291 244.643-81.497 328.278-25.088 41.828-54.87 75.485-87.648 98.587"/><path fill="#097abe" d="M213.882 130.865c-.065-.066-.178-.203-.324-.381-.112-.203-.243-.333-.356-.462-3.284-3.778-7.54-5.703-12.75-5.703-4.484 0-8.512 1.108-12.072 3.318-3.577 2.169-6.474 5.08-8.706 8.747-2.217 3.665-3.721 7.719-4.53 12.177-.227 1.925-.324 5.089-.324 9.531.324 2.72 1.148 5.121 2.492 7.241 2.88 4.856 7.622 7.275 14.24 7.275 5.114 0 10.487-1.837 16.165-5.487.437-.396.858-.598 1.311-.598l-1.552 4.628c-4.725 2.863-10.6 4.288-17.574 4.288-7.185 0-12.734-1.82-16.668-5.502-3.948-3.657-5.922-8.778-5.922-15.292 0-1.77.212-3.907.6-6.432.68-3.723 2.12-7.419 4.335-11.101 2.217-3.674 4.887-6.658 8.026-8.965 5.987-4.458 13.01-6.658 21.036-6.658 5.745 0 10.972 1.141 15.682 3.446a57 57 0 0 0-2.493 5.834zM266.312 124.196c6.91 4.143 10.356 10.04 10.356 17.736 0 1.869-.163 3.641-.485 5.333-.714 4.19-2.088 8.035-4.128 11.561-2.054 3.536-4.563 6.497-7.558 8.965-2.992 2.46-6.406 4.377-10.242 5.736-3.835 1.36-7.848 2.04-12.07 2.04-12.346 0-20.065-5.123-23.173-15.35-.21-.94-.42-2.945-.6-6.044.066-1.245.276-3.147.6-5.737 1.554-8.35 5.599-15.025 12.12-20.065 6.344-4.92 13.27-7.372 20.81-7.372 5.972.002 10.776 1.062 14.37 3.197m.485 6.895c-1.474-2.371-3.495-4.174-6.036-5.436-2.556-1.286-5.388-1.919-8.48-1.919-4.837 0-9.303 1.343-13.445 4.022-3.463 2.274-6.214 5.356-8.319 9.265a41 41 0 0 0-4.256 12.5q-.584 3.396-.583 6.075c0 4.191 1.02 7.76 3.058 10.672 3.173 4.587 7.88 6.893 14.177 6.893 5.194 0 9.968-1.74 14.352-5.203 4.4-3.496 7.524-7.857 9.403-13.109.906-2.24 1.554-4.538 1.878-6.861q.728-3.652.728-7.258c-.002-3.743-.81-6.955-2.477-9.64M295.894 121.576l6.796 20.113c2.607 7.29 5.29 14.216 8.058 20.777 1.086-1.537 3.691-5.129 7.866-10.802l13.172-18.423c1.135-1.529 2.48-3.35 4.045-5.485 1.57-2.136 3.075-4.208 4.515-6.165h.957l-2.154 33.042c-.095 2.25-.258 5.55-.453 9.888-.193 4.345-.337 7.605-.468 9.847-1.442-.17-2.541-.235-3.318-.235-1.748 0-3.027.064-3.819.235l2.491-27.67c.082-1.343.18-3.285.292-5.77.114-2.483.227-4.345.309-5.533l-14.143 19.587-5.488 7.849c-1.568 2.386-3.931 6.035-7.105 10.938h-.844l-2.62-8.552c-1.132-3.674-2.088-6.626-2.849-8.811-.743-2.21-1.908-5.534-3.462-9.994-1.555-4.458-2.817-8.107-3.787-11.019l-8.546 29.71-1.812 7.605c0 .477-.08 1.028-.226 1.659-.34 0-.81-.017-1.425-.066a22.356 22.356 0 0 0-3.916.064l.097-.712 5.356-15.696 8.56-27.59c.778-2.282 1.637-5.202 2.607-8.794h1.314zM397.304 124.196c6.878 4.143 10.322 10.04 10.322 17.736 0 1.869-.16 3.641-.453 5.333-.728 4.19-2.104 8.035-4.144 11.561-2.04 3.536-4.547 6.497-7.556 8.965-2.993 2.46-6.408 4.377-10.244 5.736-3.835 1.36-7.848 2.04-12.07 2.04-12.312 0-20.065-5.123-23.185-15.35-.197-.94-.407-2.945-.584-6.044.095-1.245.275-3.147.584-5.737 1.582-8.35 5.612-15.025 12.133-20.065 6.343-4.92 13.287-7.372 20.81-7.372 5.973.002 10.762 1.062 14.387 3.197m.47 6.895c-1.472-2.371-3.494-4.174-6.05-5.436-2.542-1.286-5.373-1.919-8.465-1.919-4.84 0-9.304 1.343-13.448 4.022-3.462 2.274-6.212 5.356-8.317 9.265a41 41 0 0 0-4.254 12.5q-.585 3.396-.584 6.075c0 4.191 1.018 7.76 3.074 10.672 3.154 4.587 7.866 6.893 14.16 6.893 5.18 0 9.968-1.74 14.352-5.203 4.403-3.496 7.526-7.857 9.403-13.109a30.7 30.7 0 0 0 1.895-6.861q.728-3.652.728-7.258c-.003-3.743-.842-6.955-2.494-9.64"/><path fill="#047bc1" d="m212.97 852.311 7.555-42.59-11.457 5.858 1.101-7.446c8.965-4.158 15.05-8.38 18.254-12.734h2.314l-10.017 56.91h-7.75zM249.734 853.283l-3.026-4.14c2.719-1.055 6.618-4.161 11.683-9.34 5.098-5.129 8.09-9.093 9.028-11.782-2.458 2.04-5.614 3.06-9.481 3.06-3.9 0-7.169-1.36-9.807-4.064-2.654-2.7-3.965-6.131-3.965-10.29 0-6.635 1.796-11.96 5.405-16.004 3.593-4.062 8.464-6.085 14.628-6.085 4.677 0 8.35 1.504 11.067 4.42 2.72 2.96 4.062 6.86 4.062 11.714 0 9.983-3.416 19.223-10.244 27.669-6.843 8.514-13.283 13.45-19.35 14.842m22.006-43.626c0-2.51-.695-4.515-2.12-6.116-1.423-1.554-3.43-2.347-5.987-2.347-3.543 0-6.311 1.358-8.334 4.11-2.005 2.718-3.026 6.295-3.026 10.615 0 2.607.665 4.676 1.959 6.247 1.31 1.555 3.09 2.332 5.388 2.332 3.803 0 6.78-1.361 8.917-4.079 2.15-2.72 3.203-6.31 3.203-10.762M281.53 836.227c0-12.396 2.217-22.444 6.637-30.083q6.646-11.504 18.706-11.504c9.497 0 14.24 5.39 14.24 16.262 0 13.173-2.137 23.497-6.459 30.971-4.32 7.478-10.532 11.23-18.607 11.23-4.646 0-8.221-1.488-10.747-4.45-2.506-2.975-3.77-7.117-3.77-12.426m7.734-1.422c0 7.813 2.476 11.714 7.396 11.714 5.307 0 9.434-3.367 12.333-10.049 2.895-6.762 4.354-15.017 4.354-24.822 0-6.96-2.59-10.422-7.787-10.422-4.904 0-8.85 3.528-11.794 10.697-2.996 7.12-4.502 14.757-4.502 22.882M333.684 852.311h-9.369c4.727-9.71 14.841-26.23 30.373-49.549h-27.105l1.28-7.363h37.007v3.028c-13.365 18.803-24.079 36.764-32.186 53.884"/><path fill="#a68d60" d="M500.958 204.753c-15.27.029-29.806 6.286-44.115 15.012-21.455 13.146-42.872 32.216-65.321 47.787-22.453 15.626-45.61 27.486-69.94 27.446-16.503-.025-29.263-4.218-42.373-10.85-19.626-9.907-39.679-25.735-70.456-39.048-30.798-13.314-72.203-23.858-134.769-23.844H67.77v78.44h6.214c5.724.005 11.247.13 16.622.34v372.96l196.862 107.376 196.867-107.375V294.172c7.17-3.625 13.145-5.542 16.623-5.456h6.208v-83.963z"/><path fill="#e31f26" d="M330.307 378.952h.076c14.742-.059 30.474-6.178 46.753-14.83 16.282-8.707 33.112-20.149 49.222-31.492v167.746h-109.45v-122.31c4.326.572 8.78.886 13.4.886M258.03 559.26v139.014l-109.45-59.696V559.26Z"/><path fill="#fff" d="M148.58 546.831v-34.035h121.874V361.664c2.77 1.482 5.54 2.927 8.329 4.28 8.268 4.02 16.735 7.389 25.698 9.696v137.156h121.877l-.003 34.035H304.48V705.05l-17.013 9.28-17.012-9.279v-158.22z"/><path fill="#e31f26" d="m316.91 559.255 109.446.005v79.315L316.91 698.272ZM230.108 338.54c9.872 5.485 19.006 11.012 27.922 16.175v145.659H148.58v-193.32c34.355 7.394 59.715 19.393 81.528 31.486"/><path fill="#e31f26" d="m287.472 766.22-184.44-100.598V300.718c11.878.846 22.885 2.19 33.125 3.943v341.293l151.311 82.525 151.309-82.525V323.837c3.697-2.623 7.34-5.203 10.9-7.696 7.88-5.52 15.367-10.604 22.235-14.867v364.348Z"/><path fill="#047bc1" d="M230.203 269.74c15.95 9.046 29.227 18.286 43.381 25.486 14.123 7.196 29.288 12.22 47.997 12.196 38.02-.138 70.265-23.884 99.664-46.414 14.704-11.325 28.717-22.485 42.079-30.643 11.034-6.763 21.518-11.365 31.419-12.75v23.42c-11.041 1.648-22.292 7.24-34.143 14.516-21.063 13.055-44.05 32.087-67.341 47.715-23.253 15.693-46.721 27.602-67.275 27.5-16.756-.022-30.295-4.4-44.281-11.31-41.149-20.346-84.71-63.89-201.505-65.16v-20.573c77.63.948 118.954 18.451 150.005 36.016"/><path fill="#047bc1" d="M483.767 280.696c-20.945 9.295-48.406 30.912-76.696 50.216-14.092 9.639-28.287 18.67-41.508 25.193-13.211 6.553-25.455 10.462-35.178 10.423-17.005-.013-31.324-4.574-46.178-11.762-43.68-21.108-90.599-66.047-204.008-67.464v-20.564c75.181 1.014 117.32 19.13 149.956 37.404 16.776 9.413 31.05 19.005 46.033 26.447 14.923 7.417 30.72 12.597 49.682 12.597h.114c33.627-.238 66.897-23.805 97.769-46.328 15.385-11.323 30.101-22.527 43.381-30.743 10.332-6.447 19.814-10.884 27.609-12.492v23.365c-3.544.746-7.169 2.046-10.976 3.708"/></svg>