<svg xmlns="http://www.w3.org/2000/svg" xmlns:xlink="http://www.w3.org/1999/xlink" xml:space="preserve" viewBox="0 0 600 600"><path d="M301.992 601.188s-70.699-38.019-133.462-98.112c-62.765-60.093-83.542-96.819-83.542-96.819V6.817s32.244 6.207 101.216 6.207c90.18 0 115.788-30.52 115.788-30.52s25.523 30.52 115.704 30.52c68.973 0 101.216-6.207 101.216-6.207v399.438s-20.778 36.727-83.542 96.819c-62.765 60.094-133.378 98.114-133.378 98.114" style="fill:#11245f"/><path d="M481.836 63.89v324.26c-2.386 3.228-41.672 54.121-72.791 82.688-30.121 27.649-62.515 50.544-87.66 66.632a708 708 0 0 1-19.404 11.987 715 715 0 0 1-19.438-11.995c-25.164-16.088-57.573-38.98-87.689-66.624-31.118-28.566-70.405-79.46-72.791-82.688V63.89z" style="fill:#feda04"/><path d="M291.756 171.245s-.838-33.702 2.338-50.639c3.176-16.936 13.555-32.921 13.555-32.921l4.022 2.984s1.653 7.781 2.638 10.281c.983 2.502 3.339 14.649 5.495 17.353 2.155 2.705 5.943 7.772 7.064 10.921a701 701 0 0 1 1.706 4.833l2.556 3.522s2.661 5.081 3.69 7.798-.439 13.871 1.776 17.917 2.787 12.056-.74 17.775-9.955 11.602-11.285 12.788c-1.329 1.186-4.575 5.038-4.575 5.038l-5.741-8.943-7.844-7.142-13.734-7.244z" style="fill:#feda04"/><defs><path id="a" d="M291.756 171.245s-.838-33.702 2.338-50.639c3.176-16.936 13.555-32.921 13.555-32.921l4.022 2.984s1.653 7.781 2.638 10.281c.983 2.502 3.339 14.649 5.495 17.353 2.155 2.705 5.943 7.772 7.064 10.921a701 701 0 0 1 1.706 4.833l2.556 3.522s2.661 5.081 3.69 7.798-.439 13.871 1.776 17.917 2.787 12.056-.74 17.775-9.955 11.602-11.285 12.788c-1.329 1.186-4.575 5.038-4.575 5.038l-5.741-8.943-7.844-7.142-13.734-7.244z"/></defs><clipPath id="b"><use xlink:href="#a" style="overflow:visible"/></clipPath><path d="m304.723 93.05 59.799 43.304m-62.35-39.373 59.798 43.303m-62.352-39.372 59.799 43.303m-62.351-39.374 59.798 43.304m-62.35-39.373 59.799 43.304m-62.352-39.373 59.798 43.303m-62.351-39.373 59.799 43.304m-62.352-39.373 59.799 43.304m-62.35-39.373 59.799 43.303m-62.352-39.373 59.799 43.303m-62.351-39.373 59.799 43.304m-62.352-39.373 59.798 43.304m-62.35-39.374 59.797 43.304m-62.35-39.373 59.798 43.304m-62.351-39.373 59.799 43.304m-62.351-39.374 59.797 43.303" style="clip-path:url(#b);fill:none;stroke:#11245f;stroke-width:.8837;stroke-miterlimit:3.8637"/><path d="M291.756 171.245s-.838-33.702 2.338-50.639c3.176-16.936 13.555-32.921 13.555-32.921l4.022 2.984s1.653 7.781 2.638 10.281c.983 2.502 3.339 14.649 5.495 17.353 2.155 2.705 5.943 7.772 7.064 10.921a701 701 0 0 1 1.706 4.833l2.556 3.522s2.661 5.081 3.69 7.798-.439 13.871 1.776 17.917 2.787 12.056-.74 17.775-9.955 11.602-11.285 12.788c-1.329 1.186-4.575 5.038-4.575 5.038l-5.741-8.943-7.844-7.142-13.734-7.244-.921-4.321z" style="fill:none;stroke:#11245f;stroke-width:1.7674;stroke-miterlimit:3.8637"/><path d="M295.121 168.127s6.188-33.14 12.815-49.046c6.627-15.907 20.104-29.383 20.104-29.383l3.314 3.756s0 7.953.441 10.604c.442 2.651.222 15.023 1.768 18.116s4.198 8.837 4.641 12.151c.441 3.314.662 5.082.662 5.082l1.767 3.976s1.547 5.523 1.988 8.396c.442 2.872-3.313 13.477-1.988 17.895s.221 12.372-4.418 17.232-12.15 9.278-13.697 10.162-5.523 3.977-5.523 3.977l-3.756-9.942-6.186-8.616-11.932-9.941z" style="fill:#feda04"/><defs><path id="c" d="M295.121 168.127s6.188-33.14 12.815-49.046c6.627-15.907 20.104-29.383 20.104-29.383l3.314 3.756s0 7.953.441 10.604c.442 2.651.222 15.023 1.768 18.116s4.198 8.837 4.641 12.151c.441 3.314.662 5.082.662 5.082l1.767 3.976s1.547 5.523 1.988 8.396c.442 2.872-3.313 13.477-1.988 17.895s.221 12.372-4.418 17.232-12.15 9.278-13.697 10.162-5.523 3.977-5.523 3.977l-3.756-9.942-6.186-8.616-11.932-9.941z"/></defs><clipPath id="d"><use xlink:href="#c" style="overflow:visible"/></clipPath><path d="m324.064 94.336 49.487 54.79M320.75 97.649l49.487 54.791m-52.802-51.476 49.489 54.791m-52.802-51.477 49.488 54.791m-52.802-51.477 49.488 54.789m-52.802-51.475 49.487 54.79m-52.8-51.477 49.488 54.791m-52.803-51.477 49.488 54.791m-52.801-51.476 49.487 54.79m-52.802-51.476 49.488 54.79m-52.801-51.477 49.487 54.792m-52.801-51.478 49.487 54.791m-52.801-51.477 49.488 54.792m-52.803-51.477 49.488 54.789m-52.802-51.476 49.488 54.79m-52.801-51.477 49.489 54.791" style="clip-path:url(#d);fill:none;stroke:#11245f;stroke-width:.8837;stroke-miterlimit:3.8637"/><path d="M295.121 168.127s6.188-33.14 12.815-49.046c6.627-15.907 20.104-29.383 20.104-29.383l3.314 3.756s0 7.953.441 10.604c.442 2.651.222 15.023 1.768 18.116s4.198 8.837 4.641 12.151c.441 3.314.662 5.082.662 5.082l1.767 3.976s1.547 5.523 1.988 8.396c.442 2.872-3.313 13.477-1.988 17.895s.221 12.372-4.418 17.232-12.15 9.278-13.697 10.162-5.523 3.977-5.523 3.977l-3.756-9.942-6.186-8.616-11.932-9.941v-4.419z" style="fill:none;stroke:#11245f;stroke-width:1.7674;stroke-miterlimit:3.8637"/><path d="M405.808 240.591s-1.768 29.163-16.35 60.977c-14.581 31.814-19 30.93-19 30.93l-42.418 25.186-8.837-4.86 16.791-33.139s3.094-7.512 3.094-13.256-1.768-11.931-1.768-11.931 6.185-16.348 4.859-22.976-4.859-16.79-4.859-16.79.884-13.698-1.768-20.326c-2.651-6.627-5.745-14.581-5.745-14.581l8.838-19.441s8.395-3.977 16.791-3.977c8.395 0 34.905 3.535 34.905 3.535l7.954 5.301zM270.599 130.568s-7.07 2.209-10.163 3.977-6.628 3.535-6.628 3.535l7.954.884 14.14-3.535zM213.62 313.487s-2.754-6.987-4.481-12.33c-1.726-5.344-2.157-8.879-2.157-8.879h20.777l19.831 6.207 12.413 2.672 15.002-6.64 18.105 33.109s-3.103 7.501-3.103 14.139c0 6.639 2.24 15.517 2.24 15.517l-29.573-1.809s-15.866-14.223-17.243-16.38c-1.375-2.157-31.811-25.606-31.811-25.606" style="fill:#fff"/><path d="m139.295 29.561-4.082-.426c-2.704 0-5.752.787-8.256 2.916-2.321 2.031-4.007 5.209-4.586 8.224-.641 3.342-.102 6.422 1.613 8.551 1.774 2.262 4.039 2.818 6.853 2.818 1.848 0 3.734-.196 5.64-.786l2.298-4.784c-2.075 1.18-4.216 2.13-6.367 2.13-4.111 0-5.255-3.67-4.388-8.192.761-3.965 2.529-7.568 6.308-7.568 1.655 0 3.136.622 4.279 1.704z" style="fill:#feda04"/><path d="m150.652 44.698.3 3.178c.065.524.089.689-.018 1.246-.2 1.047-.786 1.506-1.514 1.998l-.019.098h8.332l.018-.098c-1.238-1.737-1.232-2.49-1.492-4.587l-1.975-16.875h-6.758l-.018.099c.469.426.852 1.016.682 1.901-.131.688-.818 1.966-1.109 2.621l-6.315 13.074c-.817 1.67-1.358 2.621-2.627 3.768l-.018.098h5.655l.018-.098c-.402-.492-.817-.918-.641-1.835.132-.688.631-1.703.95-2.359l1.09-2.228zm-.325-3.049h-3.751l3.06-6.454h.028z" style="fill-rule:evenodd;clip-rule:evenodd;fill:#feda04"/><path d="M159.145 50.464c1.559.787 3.304 1.179 5.125 1.179 1.958 0 3.78-.294 5.678-1.704 1.707-1.278 2.816-3.178 3.226-5.308.403-2.098-.032-3.571-1.091-4.948-.884-1.146-2.005-1.769-3.198-2.457-.92-.525-2.4-1.147-2.099-2.719.296-1.54 1.728-2.098 2.803-2.098 1.379 0 2.605.656 3.593 1.541l.736-3.834c-1.309-.655-2.901-.982-4.446-.982-1.683 0-3.468.393-5.101 1.572-1.477 1.082-2.595 2.883-2.954 4.751-1.408 7.338 7.163 6.521 6.396 10.517-.352 1.836-2.129 2.327-3.37 2.327-1.987 0-4.047-1.049-5.303-2.557z" style="fill:#feda04"/><path d="M184.854 33.36c.501-.164.948-.196 1.445-.196.993 0 1.786.327 1.985 1.441l1.888-4.948h-12.799l-.505-.097-2.044 5.045.225-.164c1.212-.852 2.08-1.213 3.35-1.213.497 0 .911 0 1.354.131l-2.527 13.172c-.327 1.704-.492 3.571-2.04 4.587l-.018.098h7.476l.02-.098c-.935-1.311-.68-2.785-.322-4.653zM194.452 41.421h.91c1.021 0 2.315-.131 2.449 1.179h.138l.88-4.586h-.138c-.273.131-.665.164-1.052.164h-2.565l1.019-5.308h.882c1.352 0 2.956-.163 3.405 1.375h.082l.912-4.75h-.083c-.335.163-.776.163-1.19.163h-9.656l-.018.099c1.163.983.611 2.851.284 4.555l-2.352 12.254c-.327 1.704-.486 3.539-2.032 4.555l-.02.098h12.22l2.054-4.948h-.139c-1.338 1.508-2.829 1.803-4.374 1.803-.965 0-1.973-.066-2.802-.491z" style="fill-rule:evenodd;clip-rule:evenodd;fill:#feda04"/><path d="M209.679 34.377c.333-1.737.499-3.605 2.045-4.621l.02-.099h-7.421l-.018.099c1.156 1.016.604 2.883.278 4.588l-2.345 12.221c-.328 1.704-.487 3.539-2.032 4.555l-.02.098h12.027l1.929-4.587c-1.421 1.082-2.677 1.442-4.194 1.442-.993 0-2.001-.066-2.79-.557zM223.472 34.377c.333-1.737.498-3.605 2.046-4.621l.018-.099h-7.42l-.02.099c1.157 1.016.606 2.883.278 4.588l-2.346 12.221c-.327 1.704-.485 3.539-2.032 4.555l-.02.098h12.028l1.928-4.587c-1.42 1.082-2.677 1.442-4.193 1.442-.993 0-2.002-.066-2.79-.557z" style="fill:#feda04"/><path d="m240.028 44.698.301 3.178c.064.524.087.689-.02 1.246-.2 1.047-.786 1.506-1.514 1.998l-.019.098h8.331l.018-.098c-1.238-1.737-1.232-2.49-1.492-4.587l-1.975-16.875H236.9l-.018.099c.469.426.852 1.016.682 1.901-.131.688-.818 1.966-1.109 2.621l-6.316 13.074c-.817 1.67-1.358 2.621-2.627 3.768l-.018.098h5.655l.018-.098c-.402-.492-.816-.918-.641-1.835.132-.688.631-1.703.95-2.359l1.09-2.228zm-.325-3.049h-3.751l3.059-6.454h.028z" style="fill-rule:evenodd;clip-rule:evenodd;fill:#feda04"/><path d="m261.176 42.305-1.674-12.549.018-.099h-6.344l-.018.099c.594.787.818 1.77.468 3.014l-3.963 13.762c-.506 1.77-.876 3.407-2.315 4.587l-.02.098h5.434l.02-.098c-.705-.492-1.026-1.41-.73-2.524l3.108-11.303h.082l1.031 8.715c.204 1.672.271 3.047 1.372 4.063.681.623 1.445 1.246 2.332 1.508l6.327-14.286h.083l-1.214 11.5c-.086.885-.754 1.77-1.329 2.327l-.018.098h7.283l.018-.098c-.969-1.278-.754-3.114-.568-4.948l1.427-14.186c.116-1.18.592-1.508 1.393-2.229l.018-.099h-6.593l-.018.099zM285.451 42.305l-1.674-12.549.02-.099h-6.346l-.018.099c.594.787.818 1.77.47 3.014l-3.965 13.762c-.506 1.77-.875 3.407-2.315 4.587l-.02.098h5.435l.018-.098c-.705-.492-1.026-1.41-.729-2.524l3.108-11.303h.082l1.031 8.715c.204 1.672.271 3.047 1.372 4.063.681.623 1.445 1.246 2.333 1.508l6.327-14.286h.083l-1.215 11.5c-.088.885-.754 1.77-1.329 2.327l-.019.098h7.283l.018-.098c-.969-1.278-.754-3.114-.566-4.948l1.426-14.186c.115-1.18.592-1.508 1.392-2.229l.019-.099h-6.592l-.02.099z" style="fill:#feda04"/><path d="m308.439 44.698.301 3.178c.064.524.088.689-.018 1.246-.202 1.047-.786 1.506-1.516 1.998l-.02.098h8.332l.02-.098c-1.24-1.737-1.233-2.49-1.492-4.587l-1.977-16.875h-6.758l-.02.099c.471.426.853 1.016.684 1.901-.132.688-.818 1.966-1.109 2.621l-6.316 13.074c-.816 1.67-1.357 2.621-2.625 3.768l-.02.098h5.654l.02-.098c-.402-.492-.816-.918-.641-1.835.132-.688.63-1.703.949-2.359l1.09-2.228zm-.324-3.049h-3.753l3.06-6.454h.027zM323.995 41.979l1.829 7.143c.577 2.031 1.402 2.326 3.275 2.195l3.863-.295c-.896-1.082-1.432-2.457-1.894-3.932l-2.031-6.521c1.997-.918 3.805-2.719 4.277-5.176.42-2.196-.074-3.932-1.501-4.981-1.09-.785-2.199-.754-3.551-.754h-8.167l-.018.099c1.156 1.016.605 2.883.277 4.588l-2.339 12.188c-.326 1.704-.492 3.571-2.039 4.587l-.018.098h7.421l.018-.098c-1.156-1.016-.604-2.883-.278-4.587zm2.03-9.143c.552 0 1.119.065 1.513.458.625.623.771 1.737.569 2.785-.397 2.065-1.999 3.802-3.778 4.162l1.422-7.405zM341.206 41.421h.909c1.02 0 2.315-.131 2.45 1.179h.137l.88-4.586h-.137c-.273.131-.665.164-1.053.164h-2.565l1.019-5.308h.883c1.353 0 2.956-.163 3.405 1.375h.083l.911-4.75h-.082c-.335.163-.776.163-1.19.163h-9.654l-.02.099c1.163.983.611 2.851.285 4.555l-2.353 12.254c-.327 1.704-.485 3.539-2.032 4.555l-.019.098h12.221l2.053-4.948h-.139c-1.338 1.508-2.827 1.803-4.373 1.803-.965 0-1.974-.066-2.802-.491zM357.271 46.532c-.326 1.704-.492 3.571-2.039 4.587l-.018.098h6.206c3.09 0 5.817.164 8.787-2.229 2.508-1.999 4.268-5.275 4.878-8.453.679-3.539.085-6.913-2.002-8.977s-4.904-1.901-7.884-1.901h-5.848l-.019.099c.439.296.714 1.016.699 1.672-.045.95-.616 3.932-.83 5.045zm7.632-13.172c.631-.131 1.258-.229 1.864-.229 3.394 0 3.613 4.03 2.966 7.405-.334 1.737-.895 3.506-1.929 5.013-1.256 1.803-2.479 2.425-4.218 2.425-.495 0-.978-.065-1.439-.262z" style="fill-rule:evenodd;clip-rule:evenodd;fill:#feda04"/><path d="M383.445 34.344c.325-1.705.492-3.572 2.038-4.588l.019-.099h-7.42l-.02.099c1.157 1.016.606 2.883.279 4.588l-2.346 12.221c-.326 1.704-.486 3.539-2.033 4.555l-.018.098h7.42l.019-.098c-1.156-1.016-.611-2.851-.283-4.555zM391.412 50.464c1.559.787 3.306 1.179 5.126 1.179 1.959 0 3.779-.294 5.677-1.704 1.708-1.278 2.818-3.178 3.227-5.308.402-2.098-.032-3.571-1.092-4.948-.883-1.146-2.005-1.769-3.197-2.457-.92-.525-2.4-1.147-2.099-2.719.296-1.54 1.727-2.098 2.802-2.098 1.379 0 2.605.656 3.595 1.541l.734-3.834c-1.308-.655-2.9-.982-4.444-.982-1.683 0-3.468.393-5.103 1.572-1.476 1.082-2.594 2.883-2.953 4.751-1.408 7.338 7.163 6.521 6.396 10.517-.353 1.836-2.13 2.327-3.371 2.327-1.986 0-4.047-1.049-5.303-2.557z" style="fill:#feda04"/><path d="M417.122 33.36c.5-.164.947-.196 1.444-.196.993 0 1.784.327 1.984 1.441l1.889-4.948h-12.801l-.505-.097-2.045 5.045.225-.164c1.212-.852 2.081-1.213 3.35-1.213.498 0 .911 0 1.354.131l-2.527 13.172c-.326 1.704-.492 3.571-2.039 4.587l-.019.098h7.476l.02-.098c-.936-1.311-.681-2.785-.321-4.653zM429.014 44.698l.302 3.178c.063.524.088.689-.019 1.246-.201 1.047-.785 1.506-1.516 1.998l-.018.098h8.33l.02-.098c-1.239-1.737-1.232-2.49-1.492-4.587l-1.975-16.875h-6.759l-.02.099c.47.426.853 1.016.684 1.901-.132.688-.818 1.966-1.11 2.621l-6.315 13.074c-.817 1.67-1.357 2.621-2.626 3.768l-.02.098h5.656l.019-.098c-.403-.492-.817-.918-.642-1.835.133-.688.63-1.703.949-2.359l1.089-2.228zm-.326-3.049h-3.751l3.06-6.454h.027zM440.838 29.657l-.02.099c1.165.983.612 2.851.286 4.555l-2.346 12.222c-.334 1.737-.493 3.571-2.04 4.587l-.018.098h8.082c1.959 0 3.427-.034 5.212-1.573 1.556-1.343 2.544-3.047 2.935-5.078.546-2.851-.601-5.21-2.897-5.603 1.78-.655 3.301-1.967 3.722-4.162.328-1.704-.139-3.014-1.068-4.063-.95-1.082-2.164-1.082-3.627-1.082zm5.64 3.244c.3-.131.561-.195.836-.195 1.188 0 1.5 1.244 1.255 2.522-.27 1.408-1.231 2.817-2.555 2.817-.193 0-.318-.065-.499-.131zm-1.528 7.963h.661c2.097 0 2.849 1.115 2.371 3.604-.365 1.9-1.423 3.67-3.215 3.67-.496 0-.787-.066-1.139-.394z" style="fill-rule:evenodd;clip-rule:evenodd;fill:#feda04"/><path d="M462.09 34.344c.327-1.705.492-3.572 2.039-4.588l.018-.099h-7.42l-.02.099c1.157 1.016.607 2.883.279 4.588l-2.345 12.221c-.328 1.704-.486 3.539-2.032 4.555l-.02.098h7.42l.02-.098c-1.157-1.016-.611-2.851-.284-4.555z" style="fill:#feda04"/><path d="m473.149 44.698.302 3.178c.065.524.088.689-.019 1.246-.201 1.047-.785 1.506-1.515 1.998l-.02.098h8.331l.02-.098c-1.239-1.737-1.232-2.49-1.492-4.587l-1.975-16.875h-6.759l-.02.099c.471.426.854 1.016.684 1.901-.132.688-.819 1.966-1.109 2.621l-6.316 13.074c-.816 1.67-1.357 2.621-2.626 3.768l-.02.098h5.655l.02-.098c-.403-.492-.817-.918-.642-1.835.133-.688.632-1.703.949-2.359l1.091-2.228zm-.324-3.049h-3.752l3.06-6.454h.027z" style="fill-rule:evenodd;clip-rule:evenodd;fill:#feda04"/><path d="M138.194 119.061c2.54 1.281 5.382 1.921 8.346 1.921 3.189 0 6.155-.48 9.246-2.774 2.78-2.08 4.587-5.175 5.253-8.643.654-3.414-.052-5.815-1.778-8.056-1.439-1.867-3.265-2.881-5.206-4.002-1.5-.854-3.909-1.867-3.419-4.428.482-2.508 2.812-3.414 4.564-3.414 2.245 0 4.242 1.067 5.852 2.508l1.198-6.242c-2.132-1.068-4.724-1.602-7.239-1.602-2.741 0-5.648.64-8.307 2.561-2.405 1.762-4.226 4.696-4.809 7.737-2.293 11.951 11.663 10.618 10.414 17.125-.573 2.988-3.467 3.788-5.489 3.788-3.234 0-6.591-1.707-8.635-4.162zM165.359 120.981c2.47 0 4.832-2.241 5.385-5.121.532-2.775-.924-5.016-3.215-5.016-2.47 0-4.762 2.348-5.316 5.229-.501 2.615.945 4.908 3.146 4.908M174.128 119.061c2.539 1.281 5.382 1.921 8.346 1.921 3.189 0 6.155-.48 9.246-2.774 2.78-2.08 4.587-5.175 5.253-8.643.655-3.414-.052-5.815-1.778-8.056-1.438-1.867-3.264-2.881-5.205-4.002-1.499-.854-3.909-1.867-3.419-4.428.482-2.508 2.811-3.414 4.564-3.414 2.245 0 4.242 1.067 5.852 2.508l1.198-6.242c-2.132-1.068-4.724-1.602-7.239-1.602-2.741 0-5.648.64-8.307 2.561-2.405 1.762-4.226 4.696-4.809 7.737-2.293 11.951 11.663 10.618 10.414 17.125-.573 2.988-3.467 3.788-5.489 3.788-3.234 0-6.59-1.707-8.635-4.162zM201.293 120.981c2.471 0 4.833-2.241 5.385-5.121.532-2.775-.924-5.016-3.215-5.016-2.47 0-4.764 2.348-5.316 5.229-.501 2.615.947 4.908 3.146 4.908M191.868 430.797c-.716 3.729-1.167 6.799-3.052 10.365a31.5 31.5 0 0 1-3.627 5.429c2.838-.109 6.258-1.81 8.893-3.51 3.957-2.577 4.919-4.937 5.782-9.433l5.135-26.765c.547-2.853.824-5.977 3.414-7.679l.032-.164h-12.421l-.032.164c1.937 1.702 1.014 4.826.466 7.679z" style="fill:#11245f"/><path d="M217.783 409.077h-.139c-1.004.659-2.05.823-3.251.823h-6.372l-.032.164c1.383 1.7.985 3.291.491 5.868l-2.042 10.64c-.527 2.742-1.011 5.266.467 7.186 1.147 1.48 3.017 2.084 4.818 2.084 2.724 0 5.023-1.152 7.021-3.62l-.559 2.906h9.558l.033-.164c-1.383-1.7-.893-3.291-.444-5.868l3.842-20.019h-.14c-1.05.659-2.097.823-3.297.823h-6.326l-.031.164c1.382 1.7.984 3.291.49 5.868l-1.706 8.885c-.273 1.426-.455 2.852-1.446 4.168a3.05 3.05 0 0 1-2.403 1.208c-3.047 0-1.701-4.607-1.238-7.02z" style="fill-rule:evenodd;clip-rule:evenodd;fill:#11245f"/><path d="m242.934 425.037-1.786-15.96h-.138c-1.011.934-2.144.823-3.298.823h-5.725l-.032.164c1.126 1.591 1.308 3.291 1.579 5.485l1.496 12.176c.529 4.222.779 5.319 3.821 7.513.68.548 1.498 1.097 2.401 1.207l13.636-26.545h-6.603l-.032.164c.556.714.778 1.48.546 2.688-.231 1.207-.935 2.467-1.515 3.565z" style="fill:#11245f"/><path d="M275.343 427.943c-2.582 1.427-5.708 2.797-8.294 2.797-4.109 0-6.136-3.398-5.23-8.116h14.314c1.482-8.447-1.07-13.436-8.366-13.436-6.417 0-12.376 5.539-13.849 13.217-.789 4.113-.332 8.228 2.139 10.75 2.155 2.249 5.58 2.688 8.72 2.688 2.446 0 5.138-.549 7.575-1.701zm-12.629-9.981c.652-2.193 2.107-4.003 4.138-4.003 2.217 0 2.736 1.864 2.326 4.003z" style="fill-rule:evenodd;clip-rule:evenodd;fill:#11245f"/><path d="M291.198 433.867c2.61 1.316 5.532 1.975 8.579 1.975 3.277 0 6.327-.494 9.506-2.852 2.855-2.138 4.713-5.32 5.398-8.884.672-3.51-.054-5.978-1.828-8.282-1.477-1.919-3.355-2.962-5.351-4.113-1.541-.878-4.019-1.92-3.514-4.552.494-2.578 2.891-3.512 4.691-3.512 2.308 0 4.361 1.099 6.016 2.579l1.232-6.417c-2.191-1.097-4.856-1.645-7.442-1.645-2.817 0-5.806.658-8.539 2.634-2.472 1.809-4.344 4.826-4.943 7.951-2.358 12.285 11.987 10.915 10.704 17.606-.588 3.071-3.563 3.894-5.641 3.894-3.325 0-6.775-1.756-8.877-4.279zM316.366 426.628c-.495 2.577-1.093 5.21.305 7.073 1.184 1.537 3.469 2.141 5.362 2.141 1.201 0 2.5-.274 3.721-.385l2.928-4.66c-1.237-.057-2.565-.109-3.505-.988-1.257-1.151-.938-2.577-.559-4.552L326.587 415h1.153c1.94 0 2.607-.109 3.528 1.592h.138l1.285-6.691h-5.126l1.504-7.843h-3.186c-1.253 4.607-5.274 8.721-9.319 9.103l-.727 3.784h2.77z" style="fill:#11245f"/><path d="M353.131 430.906c-3.949-.109-3.232-3.126-2.526-6.801l.843-4.388c.609-3.182.988-6.362-.92-8.447-1.496-1.59-3.848-2.083-6.018-2.083-1.985 0-3.956.164-5.965.768l-3.37 6.252c1.908-1.042 4.271-1.81 6.164-1.81 1.155 0 2.841.603 2.515 2.305-.885 4.606-12.941 1.261-14.888 11.407-.484 2.523.222 5.101 1.816 6.418 1.148.986 3.119 1.315 4.688 1.315l2.386-.165 2.901-4.771c-.334.055-.622.108-.944.108-1.662 0-2.501-1.645-2.133-3.563.348-1.812 1.983-2.634 3.264-3.291l1.636-.822-.348 1.809c-.621 3.236-1.29 5.76.417 8.172 1.386 1.92 3.441 2.523 5.797 2.523l1.878-.165zM369.343 398.163h-.14c-1.184.878-2.2.878-3.493.878h-6.094l-.031.164c1.371 1.755.88 3.347.442 5.868l-4.799 25.01c-.357 1.864-.512 2.906-1.897 4.114l-.032.164c3.065.877 6.411 1.48 9.736 1.48 3.693 0 7.468-.658 10.913-3.456 3.343-2.742 5.476-6.636 6.286-10.859.61-3.181.258-6.636-1.204-8.884-1.344-2.139-3.897-3.51-6.391-3.51-.739 0-1.442.055-2.186.329l-3.066 4.662c4.16.218 4.994 4.057 4.11 8.665-.821 4.278-3.016 8.008-7.032 8.008-.463 0-.902-.109-1.332-.274z" style="fill:#11245f"/><path d="m385.188 409.9-.03.164c1.382 1.7.938 3.291.443 5.868l-2.525 13.163c-.485 2.522-.65 4.113-2.742 5.868l-.031.164h11.221l.03-.164c-1.417-1.755-.974-3.346-.49-5.868l3.842-20.019h-.138c-1.004.659-2.051.823-3.298.823h-6.282zm5.338-1.096c2.493 0 4.967-2.304 5.546-5.32.536-2.798-.95-5.156-3.352-5.156-2.54 0-4.859 2.47-5.428 5.431-.506 2.632.971 5.045 3.234 5.045" style="fill-rule:evenodd;clip-rule:evenodd;fill:#11245f"/><path d="M417.774 430.906c-3.95-.109-3.231-3.126-2.527-6.801l.843-4.388c.61-3.182.99-6.362-.919-8.447-1.496-1.59-3.849-2.083-6.018-2.083-1.986 0-3.957.164-5.966.768l-3.37 6.252c1.908-1.042 4.272-1.81 6.165-1.81 1.155 0 2.839.603 2.513 2.305-.883 4.606-12.939 1.261-14.888 11.407-.484 2.523.223 5.101 1.817 6.418 1.148.986 3.118 1.315 4.688 1.315l2.387-.165 2.901-4.771c-.334.055-.621.108-.944.108-1.663 0-2.501-1.645-2.133-3.563.347-1.812 1.983-2.634 3.263-3.291l1.637-.822-.349 1.809c-.62 3.236-1.289 5.76.419 8.172 1.384 1.92 3.439 2.523 5.795 2.523l1.879-.165zM130.509 362.892s6.29-21.641 15.517-21.641 25.956 7.07 34.403 3.103 13.707-13.193 13.707-17.674 1.809-20.264 8.879-25.176c7.069-4.913 15.947-2.754 21.64-.945s23.449 9.906 30.52 7.235 14.139-9.825 14.139-9.825l-6.638-8.447s-2.24 4.563-12.413 4.563-30.005-9.741-40.179-9.741c-10.173 0-18.105 24.313-18.105 34.834s-10.256 15.351-18.189 14.057-20.945-6.657-28.71-3.535c-15.434 6.207-14.571 33.192-14.571 33.192M473.033 77.514s.862 26.985-14.571 33.192c-7.767 3.122-20.777-2.241-28.711-3.535s-18.187 3.535-18.187 14.057-7.934 34.834-18.107 34.834-30.005-9.741-40.178-9.741c-4.729 0-7.745.986-9.617 2.042l-.936-12.8c1.785-1.159 3.714-2.222 5.642-2.95 7.07-2.672 24.826 5.427 30.518 7.235s14.571 3.966 21.642-.945c7.069-4.912 8.878-20.695 8.878-25.176s5.261-13.709 13.707-17.675 25.176 3.103 34.405 3.103c9.225 0 15.515-21.641 15.515-21.641" style="fill:#11245f"/><path d="M473.033 104.499s.862 26.984-14.571 33.191c-7.767 3.123-20.777-2.24-28.711-3.535s-18.187 3.535-18.187 14.057-7.934 34.836-18.107 34.836-30.005-9.742-40.178-9.742c-5.393 0-8.557 1.283-10.339 2.487l1.852-14.498a26 26 0 0 1 3.575-1.697c7.07-2.672 24.826 5.426 30.518 7.235 5.693 1.808 14.571 3.966 21.642-.947 7.069-4.912 8.878-20.695 8.878-25.176s5.261-13.708 13.707-17.673c8.447-3.967 25.176 3.103 34.405 3.103 9.226 0 15.516-21.641 15.516-21.641" style="fill:#11245f"/><path d="M473.033 131.483s-6.29 21.641-15.516 21.641c-9.229 0-25.958-7.07-34.405-3.104-8.446 3.967-13.707 13.195-13.707 17.674 0 4.481-1.809 20.264-8.878 25.176-7.07 4.912-15.948 2.754-21.642.946-5.692-1.809-23.448-9.906-30.518-7.235-7.069 2.672-14.14 9.825-14.14 9.825l-5.766 24.744s7.933-20.86 24.817-20.86c10.173 0 30.006 9.741 40.178 9.741 10.174 0 18.107-24.313 18.107-34.834s10.254-15.351 18.187-14.057 20.944 6.658 28.711 3.535c15.434-6.208 14.572-33.192 14.572-33.192M268.369 137.176l1.377-7.934s9.227-3.534 15.434-3.966c6.207-.431 5.345.432 5.345.432s-3.104 17.673-3.104 22.072c0 4.398-.431 7.07-.431 7.07s-4.482-12.762-8.016-15.435c-3.535-2.671-10.605-2.239-10.605-2.239" style="fill:#11245f"/><path d="M228.623 157.953s-.863 7.501.431 9.741c1.295 2.241 1.295 2.672 1.295 2.672l-5.693 16.729-11.898-6.124s4.398-8.366 9.228-14.139c4.828-5.776 6.637-8.879 6.637-8.879" style="fill:#fff"/><path d="M130.509 335.907s-.863-26.983 14.572-33.189c7.766-3.123 20.777 2.24 28.71 3.534 7.933 1.295 18.189-3.534 18.189-14.057s7.932-34.835 18.105-34.835c8.994 0 25.538 7.614 36.282 9.379l4.76-7.57 1.809 3.966-1.175 3.932c8.898-.42 10.916-4.529 10.916-4.529l1.744 2.22c-.623 1.539-1.993 4.128-4.417 5.015-3.535 1.295-5.344 3.103-5.344 3.103s.947 2.507 4.481 3.021c1.497.217 3.378-.058 5.052-.449-2.557 1.982-5.787 4.14-9.018 5.361-7.07 2.672-24.826-5.427-30.52-7.235s-14.571-3.966-21.64.945-8.879 20.696-8.879 25.176c0 4.481-5.26 13.707-13.707 17.675-8.447 3.966-25.176-3.104-34.403-3.104-9.227.001-15.517 21.641-15.517 21.641" style="fill:#11245f"/><path d="m260.868 290.038 3.103-5.262s5.693.514 7.501-.863l1.809-1.377s-1.809 2.753-5.343 4.479c-3.535 1.727-2.241 4.831-2.241 4.831l6.207-1.809 3.966 6.638-20.695 25.689 18.105 30.437 19.401.862 2.672-4.396s5.775 1.89 7.502 4.48c1.726 2.588 3.102 1.726 3.102 1.726l5.262-2.24 5.775 11.55s-8.281.863-12.33.863h-4.914s-1.211 8.364-12.761 11.468-17.675 3.103-17.675 3.103 12.763-5.344 15.865-9.31c3.104-3.968 3.104-5.262 3.104-5.262s-25.689-6.29-48.625-23.018c-22.935-16.728-26.983-32.246-26.983-32.246l1.377-4.829-1.808-9.741 5.774-.432 1.295 8.879 31.813 12.331 10.604-15.866z" style="fill:#11245f"/><path d="m274.576 289.606 1.809-1.295 52.509 87.078-3.021 1.725zM295.785 332.023l13.277 21.21-1.379 4.049s-5.26-6.639-7.934-8.878c-2.67-2.241-5.26-4.398-5.26-4.398v-7.933c.001-3.617 1.296-4.05 1.296-4.05M309.924 185.359s-16.349.884-18.115 7.953c-1.768 7.07 5.302 16.791 5.302 16.791l-6.186-1.768 2.21 23.861 5.301-5.745 1.768 4.419s-10.604 12.814-12.814 18.557c-2.21 5.744-2.651 7.954-2.651 7.954l5.744 7.511s19.441-16.79 22.535-21.65c3.093-4.861 3.534-10.162 3.534-10.162s-.441-13.257-2.651-18.117-4.417-6.186-4.417-6.186 6.185-3.093 4.859-9.72-2.21-10.162-2.21-10.162 8.397 6.185 5.745 13.255c-2.651 7.069-1.768 9.278-1.768 9.278l10.604 13.256-7.512 8.396s-2.651 13.255-7.512 16.79c-4.859 3.535-4.418 7.512-4.418 7.512s14.581-4.419 20.325-2.21c5.744 2.21 12.813 15.465 11.489 24.302-1.326 8.838-4.861 12.373-4.861 12.373s-14.14-5.745-25.627-3.535c-11.489 2.21-14.141 10.604-14.141 10.604s-8.837-15.023-8.837-18.559c0-3.534-2.651-3.976-2.651-3.976l-3.977-2.209-4.859-11.488 5.301-18.116 1.326 11.046 6.628-12.372s-7.954-4.861-11.93-3.535 6.185-2.651 6.185-2.651-7.953-3.535-12.814-10.604c-4.861-7.07-6.185-9.279-6.185-9.279s3.976 12.814 8.837 16.348c4.861 3.535 5.745 3.093 5.745 3.093l-5.745 3.977-4.861 5.745-3.093-9.722 2.651-2.651s-9.721-5.301-9.721-14.581 2.209-14.14 2.209-14.14 16.349-9.72 19.441-15.907c3.093-6.186 5.745-18.115 5.745-18.115s5.745-3.535 13.698.442c7.956 3.976 12.374 13.697 12.374 13.697" style="fill:#11245f"/><path d="M274.134 245.01s-1.768 11.488-3.535 14.14c-1.768 2.651.442 3.535.442 3.535s3.093-6.186 3.977-10.605-.884-7.07-.884-7.07M372.226 200.382l-10.162 37.999-27.837 11.046-3.535 11.047 36.233-15.023 12.371 24.744-10.162 34.023-29.604 16.349-3.977-3.977-1.326 5.302.442 5.302-12.372 28.279 3.093 6.187s30.047-12.372 43.744-23.418c13.697-11.048 15.907-19.442 15.907-19.442l-8.396-13.697 8.837-32.256 20.768-6.186s2.21-19.441 1.326-32.698c-.884-13.255-7.954-32.696-7.954-32.696z" style="fill:#11245f"/><path d="M234.366 205.242s7.954.884 10.164.884 10.162.442 10.162.442l-4.419 3.977-6.627 1.768-8.838 1.326-2.65 9.279 18.557 7.07 5.303-1.326 8.837 10.162-6.627 11.488-8.396 12.814s-5.743 1.325-10.162-.442c-4.419-1.768-10.162-9.28-10.162-9.28l-1.768-13.697-3.093-15.465 9.278-13.698z" style="fill:#fff"/><path d="m241.459 236.33 2.605.522s.669-.261-.391-1.693c-1.059-1.434-2.214 1.171-2.214 1.171m-5.637 1.06-1.563 1.565 1.303 1.171s.26-2.214.26-2.736m-2.622 5.36v1.302s1.971-.912 2.622-.782c.652.13 1.564 3.404 1.564 3.404s.278-1.954.539-2.623c.26-.669 1.824-1.823 1.824-1.823h-3.795c-.653.001-2.754.522-2.754.522m.26 5.636-.652 1.824 1.712.782s-.913 4.204.26 4.073 2.345-1.041 1.564-2.622c-.782-1.582-2.884-4.057-2.884-4.057m5.376 2.214s-.782 2.102 0 2.363 1.694 1.024 1.825 1.434c.13.408 1.32 1.988 1.581.799s-.635-2.232-1.172-2.494c-.54-.26-2.234-2.102-2.234-2.102m5.768 3.015 1.693 3.144h2.102l-1.06-3.014s-1.042-.13-2.735-.13m5.097-4.969s-.391 2.476.521 1.955.782-1.693.782-1.693zm1.694-4.186s.669-.408 1.71-1.06c1.043-.65.131-2.345-1.303-1.955-1.433.393-.408 1.695-.408 1.695s-1.694 1.711-1.564 2.883c.132 1.173 1.565-1.563 1.565-1.563m-1.173-5.115s1.043-.652 1.173-1.565-.782-.929-1.564-.26c-.782.67.391 1.825.391 1.825m-5.618.912s-1.191-.522-1.972-.131c-.782.391-.391 1.581-.391 1.581s1.172-.13 2.214-.13.149-1.32.149-1.32m-4.074-8.112s.93-1.434 4.334-.913c3.405.522 5.229 1.954 5.229 1.954s.765 1.06 1.303 1.06c.539 0 1.693-1.434 2.883-.522 1.189.913 1.841 1.286 1.841 2.475s-.782 5.116-.652 6.029c.131.912.8 7.964 0 8.633-.799.667-1.97 1.84-1.97 1.84s1.303 1.451.781 2.232-4.056 2.476-4.056 2.476-1.042 4.464-3.795 4.464-6.548-1.841-6.548-1.841-.635 1.433-2.345.13c-1.712-1.303-3.145-3.015-3.145-3.015s-1.581.409-2.622-1.953c-1.043-2.362-1.304-3.684-1.304-4.334 0-.652-.538-2.459-.668-2.866-.131-.409.538-6.696 1.32-7.738s4.056-4.057 4.056-4.057 3.145-2.622 3.926-3.143a39 39 0 0 1 1.432-.911" style="fill-rule:evenodd;clip-rule:evenodd;fill:#ed1c24"/><path d="M242.892 244.981s2.362 0 2.753 1.304c.391 1.301-.799 2.639-1.32 1.579-.522-1.059-.652-1.84-1.172-1.84-.521 0-2.363 1.19-2.363 2.102s2.232 6.289 5.246 4.056c3.013-2.231 2.866-4.837 1.824-6.939s-4.968-.262-4.968-.262"/><path d="m211.811 177.004 15.948 6.556 7.932-17.242s7.584 9.823 20.347.945 9.227-25.69 9.227-25.69 7.151-1.725 12.413 2.241c5.261 3.966 9.227 16.379 8.364 19.914s-3.103 5.262-3.103 5.262-4.912 11.898-7.07 17.242c-2.157 5.344-7.069 11.467-14.139 14.139s-11.467 2.672-11.467 2.672 17.674-8.447 20.777-15.517c3.103-7.069 3.535-10.522 3.103-14.056-.431-3.535-1.294-4.913-1.294-4.913s-.082 14.571-4.48 17.674-21.641 14.572-21.641 14.572l-4.398 1.376-9.741-1.809-2.157 4.913-5.344-1.81 2.24 6.208-4.48-2.24.946 5.343-2.672 3.535 4.397 3.966 8.447-10.172s1.726 3.184 5.261 2.24c3.535-.946 6.638-3.103 9.742-3.103 3.103 0 6.206 3.103 6.206 3.103s-19.401.78-20.777 2.589c-1.378 1.809-1.378 11.982-1.378 11.982l6.207 4.398-8.878 10.604-18.538-2.24-15.434 10.173s-7.069-10.954.432-37.506 15.002-35.349 15.002-35.349" style="fill:#11245f"/><path d="M130.509 308.924s-.863-26.984 14.572-33.19c7.766-3.124 20.777 2.24 28.71 3.535s18.189-3.535 18.189-14.058c0-10.521 7.932-34.834 18.105-34.834 6.161 0 15.866 3.573 24.821 6.392-1.335 1.333-2.525 2.798-3.19 4.265-1.031 2.267-1.774 5.015-2.271 7.302-1.969-.746-3.629-1.376-4.789-1.743-5.693-1.809-14.571-3.966-21.64.945s-8.879 20.695-8.879 25.175-5.26 13.708-13.707 17.674c-8.447 3.967-25.176-3.103-34.403-3.103-9.228-.001-15.518 21.64-15.518 21.64m127.076-69.842c4.021-1.347 5.092-3.527 5.092-3.527l6.638 8.446s-5.204 5.266-11.148 8.449z" style="fill-rule:evenodd;clip-rule:evenodd;fill:#11245f"/><path d="M248.275 226.085c-.078.344 0 2.411.701 3.378.7.968 2.179 3.38 2.179 3.38s2.68-.312 3.145-.078c.468.233.657 1.556.968.622s1.434-3.501.389-6.414-2.646-2.246-3.612-4.424c-.968-2.179-2.834-4.27-3.225-3.613-.388.658-.545 7.149-.545 7.149M321.192 211.428l3.535 5.966s1.545-3.314 2.65-5.524 1.547-4.64 1.547-5.523 1.104-9.721 1.104-9.721l-4.859 5.745s3.534.442.442 3.976c-3.093 3.535-4.419 5.081-4.419 5.081M320.309 237.056l7.29-5.743 2.872.884-1.547 6.848 2.431 4.64-2.21 4.64-6.627-2.431-5.523 1.326-3.756 3.755 6.407-2.21 8.837 1.989 3.314.221s1.989-7.29 1.768-8.174-1.988-7.291-1.988-7.291l.663-5.081-4.198-3.756-8.395 7.069zM294.9 307.311l1.768-6.407 6.188-3.093 7.289-2.209 10.385-.221 8.395 3.093s1.326 11.93 1.326 13.035c0 1.104-1.989 7.954-1.989 7.954l-3.975 7.068.884 4.861 5.523-14.14 2.21-7.291-.442-10.604-5.966-4.64-6.406-1.766-8.616-.221-5.965.441-7.953 3.756s-2.21 2.651-2.652 3.535c-.441.884-1.766 6.628-1.766 6.628z" style="fill:#11245f"/><path d="M301.309 320.347h10.382l5.966 5.743 2.872 2.431.221 3.976-4.64-5.081-5.745-4.42-5.301-.882-4.64.882zM304.401 328.521l11.487 20.104s5.745-5.966 5.082-9.722c-.662-3.755-4.64-6.627-4.64-6.627l-4.64-2.872zM287.611 296.485s-2.21-1.768-3.757-7.29c-1.546-5.523-1.546-8.396-1.546-8.396l-3.536 4.198s1.768 5.745 4.639 9.058c2.874 3.314 4.2 2.43 4.2 2.43M233.537 165.774s-1.183 1.38-1.577 0c-.395-1.38-.196-2.956-.196-2.956l1.182-.973.789-2.549.774-1.577-.774-2.549.971-1.38 1.38.198.789 2.548-1.972 1.38.788 1.958-2.155 1.971.198 2.352zM237.664 152.227l2.352.38v-4.508l-2.169 1.762zM241.382 154.382l-.183 4.125-1.774.592-.198 2.352.591 1.76-1.182 2.563-1.169-1.972.577-1.562-.577-2.76.972-1.957.986-1.762.197-1.379zM243.945 148.494s-.591 2.944 0 3.141 2.746.973 2.746.973l.395-2.944 3.14-1.169.591-2.168 1.958-1.169.789-1.775 2.746-.393-.394 1.774-1.367 1.76v2.549l-1.183 2.563 3.141 1.564 1.183-4.704-.197-1.971 1.183-2.548-.591-2.352-2.365-.788-2.353.197-1.182 1.76h-1.958l-.985 2.549-2.352.591-.986 2.563h-1.959z" style="fill:#11245f"/><path d="m260.436 143.974 1.183 1.366-1.183 1.972-.198 4.323.198 2.155s-2.549-2.732-2.944-1.957c-.395.774-2.352 2.942-2.352 2.942l-.198 3.338 1.76.986-.788 2.352-1.367 1.367-4.914.197v2.168l5.703.197v-1.972l5.099-3.337-1.958-1.76 1.564-3.337 3.535-3.141v-6.296l-1.563-1.169-.986-2.563z" style="fill:#11245f"/><path d="m248.649 160.07 1.775 1.578 2.548-.789v-1.958l-1.169-2.168 1.169-3.929-2.155-2.352-3.337 4.521 3.535 1.76zM246.297 160.07l1.577 2.945-1.38 1.379 1.182 1.578-1.971 1.563h-4.506l-.395-1.958 4.507-1.577-.577-2.944-2.17-2.746 2.747-4.717 1.183 3.14-.986 2.747z" style="fill:#11245f"/><path d="m242.959 161.253-.197 1.565-1.958.197v-1.959zM225.877 132.581s-3.339-.184-2.944-2.155 1.38-3.943 2.944-2.957c1.563.986 2.746 3.535 2.746 3.535s5.886 1.773 9.618 4.718c3.732 2.942 7.07 6.478 7.07 6.478l-2.549 1.972s-3.337-5.112-7.662-7.464c-4.322-2.353-9.223-4.127-9.223-4.127M233.34 123.356s5.887 5.69 9.027 9.62c3.141 3.928 4.718 7.858 4.718 7.858l3.338-1.775s-7.057-9.816-9.62-12.563-6.098-4.521-6.098-4.521-.577-3.141-1.563-3.929c-.985-.789-3.733-.395-3.535 2.746s3.733 2.564 3.733 2.564" style="fill:#11245f"/></svg>