<svg xmlns="http://www.w3.org/2000/svg" xml:space="preserve" viewBox="0 0 660 660"><path d="M330.319 100.527c-58.348 0-111.323 23.8-149.711 62.189-38.388 38.387-62.189 91.362-62.189 149.711s23.801 111.325 62.189 149.711c38.388 38.389 91.363 62.188 149.711 62.188s111.324-23.799 149.712-62.188c38.39-38.387 62.188-91.362 62.188-149.711s-23.799-111.324-62.188-149.712c-38.387-38.387-91.362-62.188-149.712-62.188m-161.981 49.918c41.526-41.528 98.842-67.273 161.981-67.273 63.142 0 120.457 25.746 161.984 67.272 41.525 41.527 67.272 98.844 67.272 161.983s-25.746 120.456-67.273 161.983c-41.525 41.526-98.843 67.271-161.982 67.271s-120.455-25.745-161.981-67.271c-41.529-41.527-67.274-98.843-67.274-161.983-.001-63.139 25.744-120.456 67.273-161.982" style="fill:#ed2129"/><path d="M23.487 447.815h635.361V578H1.791V447.816zm591.972 43.391H45.181v43.404h570.278z" style="fill:#ed2129"/><path d="M330.32 114.255c-54.57 0-104.112 22.258-140.013 58.159s-58.159 85.443-58.159 140.013c0 54.568 22.258 104.112 58.159 140.013 35.901 35.899 85.443 58.157 140.013 58.157s104.113-22.258 140.013-58.157c35.902-35.902 58.158-85.445 58.158-140.013s-22.256-104.112-58.158-140.013c-35.899-35.901-85.442-58.159-140.013-58.159m-151.056 47.116c38.726-38.727 92.177-62.736 151.057-62.736s112.33 24.009 151.057 62.736 62.735 92.176 62.735 151.056-24.009 112.331-62.735 151.055C442.65 502.21 389.2 526.22 330.32 526.22s-112.33-24.01-151.057-62.737c-38.727-38.725-62.736-92.175-62.736-151.055.001-58.882 24.01-112.331 62.737-151.057" style="fill:#2d3492"/><path d="M23.487 469.512h613.666v86.793H23.487z" style="fill-rule:evenodd;clip-rule:evenodd;fill:#fff"/><path d="M23.487 461.701h621.476v102.414H15.677V461.701zm605.856 15.619H31.296v71.174h598.046z" style="fill:#2d3492"/><path d="M330.32 114.255c-54.57 0-104.112 22.258-140.013 58.159s-58.159 85.443-58.159 140.013c0 54.568 22.258 104.112 58.159 140.013 35.901 35.899 85.443 58.157 140.013 58.157s104.113-22.258 140.013-58.157c35.902-35.902 58.158-85.445 58.158-140.013s-22.256-104.112-58.158-140.013c-35.899-35.901-85.442-58.159-140.013-58.159" style="fill-rule:evenodd;clip-rule:evenodd;fill:#fff"/><path d="M331.265 149.951c-44.742 0-85.361 18.248-114.794 47.681s-47.681 70.053-47.681 114.795 18.248 85.362 47.681 114.796c29.433 29.433 70.052 47.681 114.794 47.681s85.362-18.248 114.795-47.681c29.433-29.434 47.681-70.054 47.681-114.796s-18.248-85.362-47.681-114.795c-29.433-29.432-70.053-47.681-114.795-47.681m-117.249 45.227c30.059-30.061 71.547-48.697 117.248-48.697s87.19 18.637 117.249 48.697c30.061 30.061 48.697 71.549 48.697 117.249 0 45.702-18.636 87.19-48.697 117.249-30.059 30.06-71.548 48.698-117.249 48.698-45.702 0-87.189-18.638-117.248-48.698-30.061-30.059-48.699-71.547-48.699-117.249 0-45.7 18.638-87.188 48.699-117.249"/><path d="M168.792 280.241c3.276-14.339 7.888-28.017 14.139-40.878 6.26-12.878 14.161-24.935 24.008-36.012l.37-.417.548.011 31.766.61 1.017.02.156 1.007 6.719 43.678.085.549-.368.421-26.573 30.544-.345.399-.531.015-49.787 1.527-1.552.047zm16.306-39.833c-5.949 12.237-10.394 25.234-13.607 38.849l47.698-1.463 25.86-29.724-6.48-42.124-30.197-.58c-9.529 10.797-17.192 22.526-23.274 35.042"/><path d="M171.185 276.692c6.086-25.657 16.508-48.934 34.766-68.724 9.889.183 20.39.366 30.28.549q3.137 19.656 6.276 39.311l-24.82 27.49q-23.251.685-46.502 1.374" style="fill-rule:evenodd;clip-rule:evenodd"/><path d="M280.09 274.677c6.536-5.178 16.668-10.141 28.655-14.987 11.923-4.822 25.663-9.527 39.516-14.223l.675-.229.525.479q17.917 16.384 32.194 34.04l1.69 2.091-2.685-.132-99.878-4.888-3.21-.156zm29.55-12.756c-10.216 4.131-19.043 8.335-25.35 12.663l93.779 4.588q-13.276-16.1-29.715-31.195c-13.607 4.614-27.073 9.236-38.714 13.944"/><path d="M292.048 275.041c10.312-8.169 32.094-15.7 54.246-23.212q14.295 13.072 25.657 27.123-39.952-1.954-79.903-3.911" style="fill-rule:evenodd;clip-rule:evenodd"/><path d="M491.296 281.497c-.905-4.437-2.025-8.885-3.306-13.333-1.397-4.857-2.984-9.707-4.691-14.556-4.673-2.02-9.533-3.723-14.503-5.24-4.69-1.431-9.447-2.69-14.224-3.893-.16 5.275-.431 10.465-.871 15.522-.444 5.125-1.074 10.212-1.948 15.241zm-.988-13.993c1.457 5.066 2.714 10.14 3.689 15.223l.322 1.681-1.691-.269-42.458-6.72-1.213-.19.22-1.207c.948-5.216 1.631-10.648 2.115-16.233.486-5.586.767-11.217.915-16.876l.041-1.503 1.458.364c5.323 1.329 10.619 2.709 15.787 4.288 5.194 1.586 10.3 3.385 15.25 5.552l.48.211.174.49c1.791 5.064 3.453 10.128 4.911 15.189"/><path d="M491.897 278.952c-1.697-7.84-3.465-14.205-6.595-22.045-8.584-3.331-18.714-7.022-28.016-9.08-.268 8.91-.983 17.619-2.684 25.897z" style="fill-rule:evenodd;clip-rule:evenodd"/><path d="M408.189 169.252q-46.139-24.932-99.267-18.41v18.701l43.019 24.199 48.41-6.574zM307.567 148.59c36.707-4.716 70.96 1.642 102.747 19.074l.963.529-.441 1.007-8.552 19.547-.272.62-.669.091-49.482 6.72-.402.055-.346-.195-43.984-24.741-.617-.346v-22.223z"/><path d="M405.764 167.001q-43.232-23.042-93.16-16.808v18.163l40.165 21.96 45.185-5.965z" style="fill-rule:evenodd;clip-rule:evenodd"/><path d="M453.058 423.984c-13.844 14.432-29.315 26.663-47.049 35.819-17.735 9.159-37.73 15.245-60.614 17.384l-1.103.103-.193-1.092-3.971-22.603-.093-.539.354-.43 37.264-45.206.361-.438.557-.004 67.807-.612.84-.007.295.795 5.805 15.575.263.709zm-48.15 33.683c17.259-8.913 32.355-20.79 45.893-34.807l-5.243-14.075-66.411.599-36.55 44.339 3.685 20.969c22.089-2.201 41.435-8.147 58.626-17.025"/><path d="M449.747 426.229c-25.925 26.02-57.914 44.077-100.721 47.931l-3.74-20.502c11.7-13.668 23.406-27.337 35.107-41.005l63.885-.555c1.824 4.709 3.646 9.422 5.469 14.131" style="fill-rule:evenodd;clip-rule:evenodd"/><path d="M243.548 453.131c-13.12-8.697-24.55-18.621-34.436-29.666-9.884-11.043-18.238-23.222-25.203-36.43l-.375-.711.537-.6a596 596 0 0 0 28.963-34.753l.931-1.207.908 1.226c5.384 7.272 11.56 13.135 18.238 18.093 6.697 4.969 13.915 9.039 21.359 12.715l.521.256.103.575c1.681 9.357 3.733 18.752 6.095 28.177 2.361 9.42 5.022 18.818 7.924 28.193l.281.905-.837.452-23.824 12.828-.608.327zm-32.709-31.212c9.624 10.752 20.718 20.423 33.41 28.903l22.379-12.05c-2.818-9.154-5.398-18.294-7.682-27.408-2.311-9.219-4.336-18.471-6.017-27.754-7.366-3.659-14.521-7.722-21.193-12.676-6.475-4.806-12.49-10.444-17.8-17.354a599 599 0 0 1-27.607 33.091c6.792 12.747 14.917 24.53 24.51 35.248"/><path d="M242.229 449.724c-23.849-15.853-41.581-36.204-54.245-60.281a548 548 0 0 0 26.564-31.963c9.993 13.534 22.901 21.806 36.628 28.6 3.099 17.289 7.527 34.58 12.863 51.868z" style="fill-rule:evenodd;clip-rule:evenodd"/><path d="M238.904 203.843q16.194-12.357 33.32-21.034 17.126-8.679 35.186-13.675l.615 2.224q-17.83 4.932-34.76 13.511-16.933 8.579-32.961 20.809zM247.038 247.53l34.515 27.184-1.429 1.818-34.515-27.184zM352.858 195.054l-3.053 51.62-2.317-.136 3.055-51.619zM401.883 187.349c10.466 8 20.19 16.504 28.995 25.623 8.811 9.124 16.703 18.865 23.501 29.341l-1.934 1.257c-6.717-10.346-14.518-19.976-23.231-28.997-8.717-9.028-18.354-17.454-28.732-25.387zM357.65 342.668c4.593 10.671 8.825 21.43 12.554 32.307l.001-.002c3.72 10.857 6.936 21.833 9.499 32.953l-2.251.515c-2.538-11.011-5.733-21.909-9.438-32.716v-.006c-3.695-10.786-7.908-21.493-12.49-32.137zM445.394 406.986a1196 1196 0 0 0 18.002-31.431 1239 1239 0 0 0 16.786-31.433l2.053 1.059a1239 1239 0 0 1-16.814 31.486 1184 1184 0 0 1-18.039 31.492zM268.349 438.235q36.5 11.256 73.054 13.995l-.173 2.316q-36.753-2.757-73.558-14.105zM253.083 382.083a534 534 0 0 1 19.894-22.037c7.02-7.35 14.443-14.7 22.348-22.043l1.573 1.691a521 521 0 0 0-22.249 21.942 534 534 0 0 0-19.812 21.945zM215.246 331.485l-.142 20.198-2.314-.01.142-20.196z"/><path d="M155.913 271.652h348.813v72.695H155.913z" style="fill-rule:evenodd;clip-rule:evenodd;fill:#fff"/><path d="m493.092 275.413-1.95-7.522H171.404l-1.984 7.522zm.295 72.694 1.43-7.522h-327.19l1.586 7.522z"/><path d="m170.698 335.184 12.347-45.18 4.102 21.554h4.725l-6.071-31.411h19.65l10.682 55.037h-19.612l-3.646-18.671h-4.725l3.647 18.671zM335.497 280.147h17.453v20.806zm0 55.037 17.453-20.805v20.805zm-1.677 0c-7.239-.571-12.739-3.188-16.486-7.875-3.748-4.673-5.615-11.215-5.615-19.624 0-8.434 1.868-14.976 5.615-19.625 3.747-4.662 9.247-7.29 16.486-7.913zM472.975 335.184l16.296-25.454v25.454zm-1.892 0h-19.574v-55.037h19.574z" style="fill-rule:evenodd;clip-rule:evenodd"/><path d="M108.865 535.374h-9.631l-3.826-10.099H77.891l-3.612 10.099h-9.387l17.069-44.436h9.355zm-16.293-17.578-6.04-16.491-5.918 16.491zM113.497 535.374v-8.515h8.397v8.515zM175.609 519.036l8.57 2.753c-1.316 4.852-3.499 8.453-6.56 10.811-3.05 2.349-6.938 3.528-11.641 3.528-5.815 0-10.6-2.017-14.345-6.042-3.744-4.035-5.622-9.55-5.622-16.532 0-7.397 1.887-13.14 5.652-17.237 3.765-4.086 8.713-6.135 14.855-6.135 5.356 0 9.712 1.604 13.059 4.821 1.999 1.894 3.489 4.625 4.489 8.184l-8.764 2.121q-.765-3.462-3.245-5.462c-1.642-1.335-3.642-1.998-5.988-1.998-3.244 0-5.886 1.181-7.907 3.55q-3.03 3.539-3.03 11.483c0 5.618.99 9.622 2.99 12.001 1.989 2.391 4.58 3.578 7.764 3.578 2.357 0 4.376-.753 6.069-2.273 1.695-1.511 2.909-3.901 3.654-7.151M191.718 535.374v-8.515h8.397v8.515zM226.029 535.374v-44.073h8.845v36.583h21.997v7.49zM263.124 490.939h8.845v24.064c0 3.818.113 6.301.327 7.429.376 1.82 1.286 3.278 2.703 4.375 1.429 1.108 3.378 1.654 5.846 1.654 2.51 0 4.408-.516 5.683-1.561 1.275-1.033 2.04-2.315 2.295-3.827.267-1.52.389-4.036.389-7.554v-24.58h8.845v23.34c0 5.338-.233 9.104-.714 11.308-.479 2.203-1.357 4.056-2.642 5.577-1.286 1.51-3.01 2.72-5.152 3.621-2.153.899-4.969 1.345-8.438 1.345-4.182 0-7.355-.486-9.518-1.47s-3.867-2.255-5.122-3.816q-1.882-2.347-2.479-4.926c-.582-2.545-.867-6.301-.867-11.277v-23.702zM307.27 535.374v-44.435h13.243l7.947 30.312 7.856-30.312h13.274v44.435h-8.213v-34.978l-8.703 34.978h-8.52l-8.671-34.978v34.978zM358.383 535.374v-44.435h32.485v7.52h-23.64v9.85h21.997v7.48h-21.997v12.095h24.477v7.49zM395.407 535.374v-8.091l23.018-28.824H398.01v-7.52h32.076v6.972l-24.007 29.973h24.935v7.49zM432.799 535.374v-8.091l23.017-28.824h-20.415v-7.52h32.076v6.972l-24.006 29.973h24.934v7.49zM513.51 535.374h-9.632l-3.824-10.099h-17.518l-3.611 10.099h-9.386l17.068-44.436h9.355zm-16.293-17.578-6.04-16.491-5.916 16.491zM518.285 535.374v-44.435h8.611l17.935 29.67v-29.67h8.224v44.435h-8.888l-17.659-28.979v28.979zM562.411 535.374v-44.435h32.483v7.52h-23.638v9.85h21.997v7.48h-21.997v12.095h24.474v7.49z" style="fill-rule:evenodd;clip-rule:evenodd;fill:#ed2129"/></svg>