<svg xmlns="http://www.w3.org/2000/svg" width="1000" height="1000" viewBox="0 0 1000 1000"><path d="m0 0 18.796 365.958C38.85 736.938 422.986 950 422.986 950S807.12 736.938 827.178 365.958L845.97 0Z"/><path fill="#fbde2f" d="M5.98 5.682c.593 11.563 18.494 359.987 18.494 359.987 10.255 189.72 118.641 337.028 207.751 427.201 88.106 89.146 175.017 141.428 190.76 150.57 15.734-9.142 102.65-61.424 190.76-150.57 89.115-90.173 197.496-237.482 207.752-427.215 0 0 17.896-348.41 18.493-359.969H5.98ZM795.95 364.27C779.304 672.356 492.458 870.019 422.986 913.5 353.51 870.02 66.667 672.362 50.025 364.349c0 0-14.314-278.63-17.119-333.089h780.158c-2.809 54.458-17.113 333.012-17.113 333.012"/><path fill="#ea2d2e" d="M202.07 576.514c0-121.817 99.098-220.915 220.915-220.915v-16.874H54.395c.809 15.774 1.302 25.342 1.302 25.342C71.965 665.032 349.23 860.085 422.985 906.793V797.434c-121.817-.004-220.915-99.103-220.915-220.92"/><path fill="#fff" d="M422.985 338.725v16.874c121.817 0 220.916 99.098 220.916 220.915S544.802 797.43 422.985 797.43v109.359c73.761-46.704 351.02-241.775 367.293-542.821 0 0 .488-9.523 1.298-25.243z"/><path fill="#ea2d2e" d="M802.687 122.487c1.909-37.168 3.533-68.767 4.392-85.541H38.891c.864 16.765 2.488 48.373 4.393 85.54z"/><path fill="#fbde2f" d="M422.985 361.285c-118.677 0-215.229 96.547-215.229 215.23 0 118.681 96.552 215.224 215.23 215.224S638.21 695.196 638.21 576.514s-96.547-215.229-215.225-215.229m0 413.408c-109.272 0-198.183-88.902-198.183-198.179 0-109.272 88.91-198.179 198.183-198.179 109.277 0 198.184 88.902 198.184 198.18 0 109.276-88.907 198.178-198.184 198.178"/><path fill="#fff" d="M420.14 384.094c-104.83 1.534-189.647 87.228-189.647 192.42s84.817 190.882 189.647 192.42zM425.83 384.094v35.53c85.247 1.53 154.118 71.3 154.118 156.895S511.073 731.88 425.83 733.409v35.535c104.834-1.539 189.647-87.229 189.647-192.42 0-105.197-84.813-190.896-189.647-192.43M43.582 128.169c3.624 70.58 8.161 158.921 10.523 204.87H791.87c2.357-45.904 6.89-134.28 10.518-204.87z"/><path d="M369.935 138.913H344.14l-15.494 86.097h27.961s1.253-9.301 1.783-13.16h2.054c.524 3.863 1.773 13.16 1.773 13.16h27.966l-15.494-86.097zM412.576 200.011h-19.941v24.999h25.627V200.01ZM432.404 143.314c-4.162 3.972-6.184 10.32-6.184 19.403v38.461c0 9.057 2.017 15.4 6.17 19.394 4.067 3.931 10.609 5.85 19.955 5.85 9.319 0 15.838-1.923 19.94-5.877 4.163-4.017 6.194-10.35 6.194-19.367v-15.263h-25.383v-9.156h25.383v-14.042c0-9.007-2.031-15.331-6.202-19.34-4.103-3.949-10.627-5.871-19.932-5.871-9.328 0-15.86 1.895-19.941 5.808M505.626 200.011h-19.954v24.999h25.623V200.01ZM276.667 234.166h-29.319l-2.714 19.638c-.43-3.076-2.714-19.638-2.714-19.638h-35.164v86.097h75.598v-86.097zM326.76 234.166h-25.791l-15.494 86.097h27.962l1.778-13.16h2.058l1.773 13.16h27.962l-15.494-86.097zM376.879 234.166h-26.94v86.097h25.506s-.105-14.929-.14-20.172c2.193 8.012 5.55 20.23 5.55 20.23l4.316-.058h27.048v-86.097h-25.664s.104 14.91.145 20.13c-2.185-8.015-5.488-20.175-5.488-20.175zM456.136 320.263v-60.945h11.431v-25.152H417.66v25.152h11.6v60.945ZM478.144 238.559c-4.153 3.976-6.17 10.318-6.17 19.402v38.502c0 9.043 2.017 15.377 6.161 19.367 4.08 3.926 10.608 5.84 19.95 5.84 9.251 0 15.734-1.9 19.81-5.804 4.162-3.967 6.184-10.319 6.184-19.403v-38.502c0-9.088-2.022-15.43-6.175-19.402-4.085-3.909-10.568-5.805-19.819-5.805-9.333 0-15.847 1.9-19.941 5.805M580.798 234.166h-21.216s-1.91 15.209-2.75 21.977c-.856-6.777-2.76-21.977-2.76-21.977H526.06l15.499 86.097h30.55l15.498-86.097zM623.43 234.166h-25.79l-15.498 86.097h27.966l1.773-13.16h2.063c.52 3.86 1.778 13.16 1.778 13.16h27.962l-15.503-86.097z"/><path fill="#fbde2f" d="m335.445 219.323 13.45-74.729h21.04l13.449 74.73h-16.195l-1.778-13.156h-11.993l-1.778 13.155zm19.638-26.785h8.559l-4.203-35.096zM398.321 205.698h14.255v13.634h-14.255ZM472.801 201.178c0 7.324-1.483 12.414-4.46 15.273-2.959 2.859-8.297 4.284-15.992 4.284-7.73 0-13.069-1.416-16.014-4.262-2.95-2.836-4.424-7.939-4.424-15.295v-38.461c0-7.378 1.47-12.477 4.424-15.3q4.418-4.228 16.014-4.23c7.695 0 13.033 1.421 15.992 4.28 2.977 2.85 4.46 7.935 4.46 15.245v8.36h-15.516v-8.048c0-2.375-.394-4.08-1.185-5.125-.788-1.031-2.068-1.556-3.86-1.556-1.718 0-2.958.502-3.7 1.506-.75 1.005-1.122 2.656-1.122 4.972v38.249c0 2.388.353 4.071 1.068 5.04.71.976 1.963 1.46 3.755 1.46 1.818 0 3.121-.533 3.886-1.615q1.159-1.61 1.158-5.555v-8.808H472.8zM491.363 205.698h14.25v13.634h-14.25ZM252.302 314.577h-15.336l-10.708-63.52.597 63.52h-14.417v-74.725h24.528l2.316 16.734c.14.986.34 2.42.588 4.298q3.605 25.338 4.791 36.597c.61-5.492 1.37-11.73 2.285-18.706q1.376-10.47 3.044-22.19l2.312-16.733h24.365v74.73h-14.25l.534-63.52zM292.27 314.577l13.454-74.73h21.035l13.45 74.73h-16.191l-1.778-13.16h-11.997l-1.773 13.16zm19.642-26.79h8.555l-4.198-35.096zM385.17 314.577a1380 1380 0 0 1-8.4-30.618 1234 1234 0 0 1-7.478-29.988l.43 60.606h-14.105v-74.725h21.262a2012 2012 0 0 1 8.753 32.192c2.651 10.133 5.013 19.606 7.075 28.405l-.425-60.601h14.25v74.729zM461.89 253.632h-11.445v60.945h-15.503v-60.945h-11.595v-13.78h38.543ZM518.392 296.463c0 7.379-1.465 12.477-4.41 15.295q-4.425 4.23-15.892 4.23c-7.723 0-13.07-1.42-16.01-4.248-2.945-2.836-4.42-7.93-4.42-15.272v-38.502c0-7.379 1.47-12.477 4.42-15.3 2.94-2.814 8.287-4.23 16.01-4.23 7.64 0 12.938 1.416 15.892 4.23 2.945 2.823 4.41 7.921 4.41 15.3zm-25.215-38.194v37.887c0 2.316.37 4.003 1.122 5.066.75 1.068 1.945 1.602 3.596 1.602 1.927 0 3.27-.489 4.022-1.475.755-.99 1.122-2.94 1.122-5.858v-37.123c0-2.61-.358-4.397-1.095-5.347q-1.098-1.425-3.836-1.425c-1.756 0-3.013.52-3.782 1.556-.77 1.032-1.15 2.742-1.15 5.117M567.349 314.577h-21.036l-13.453-74.725h16.19l7.804 61.931 7.75-61.93h16.194ZM588.941 314.577l13.45-74.73h21.035l13.45 74.73H620.68l-1.769-13.16h-12.006l-1.769 13.16zm19.634-26.79h8.554l-4.194-35.096z"/><path fill="#ea2d2e" d="M420.14 546.44h-41.646V389.319c-21.706 5.157-41.981 13.992-60.158 25.804V546.44h-85.468a192 192 0 0 0-2.375 30.074c0 10.233.823 20.267 2.375 30.08h85.468v131.312c18.177 11.811 38.452 20.642 60.158 25.799V606.593h41.646z"/><path fill="#00a9e9" d="M425.83 425.31v302.422c82.099-1.53 148.431-68.749 148.431-151.213-.004-82.465-66.332-149.68-148.43-151.209"/><path d="m318.096 546.44-.004-.158c-.412-15.689-3.176-24.673-9.523-31.016-2.66-2.66-5.144-3.949-7.329-4.908 3.316-4.397 5.235-9.672 5.235-15.304 0-14.196-11.55-25.736-25.736-25.736-14.196 0-25.74 11.545-25.74 25.736 0 5.632 1.917 10.907 5.233 15.304-2.185.96-4.668 2.248-7.328 4.908-6.352 6.343-9.107 15.332-9.523 31.016l-.005.158z"/><path fill="#fbde2f" d="M300.426 498.65c.213-1.176.362-2.366.362-3.596 0-11.07-8.975-20.059-20.05-20.059-11.078 0-20.053 8.985-20.053 20.059 0 1.226.149 2.42.361 3.596.046.245.082.484.132.733.23 1.036.552 2.036.932 3.004.158.371.32.747.497 1.104.299.642.643 1.253 1.009 1.864a22.593 22.593 0 0 0 2.072 2.827 20.3 20.3 0 0 0 2.972 2.782c3.366 2.552 7.519 4.14 12.079 4.14 4.555 0 8.708-1.588 12.078-4.14a20.5 20.5 0 0 0 3.664-3.632c.498-.63.955-1.29 1.38-1.977.362-.611.706-1.217 1.004-1.864.177-.357.344-.733.494-1.113.384-.959.7-1.959.931-2.995.06-.249.086-.493.136-.733M297.558 546.44h14.856c-.375-14.11-2.57-21.868-7.867-27.152-2.669-2.678-5.306-3.76-7.414-4.569-4.465 3.732-10.138 6.066-16.394 6.066-2.547 0-4.959-.475-7.27-1.176zM262.245 515.606c-1.651.764-3.474 1.832-5.32 3.682-5.297 5.284-7.487 13.042-7.862 27.152h40.854z"/></svg>