<svg xmlns="http://www.w3.org/2000/svg" width="1000" height="1000" viewBox="0 0 1000 1000"><path fill="#e1ad4d" fill-rule="evenodd" d="M611.232 0c19.855 37.222 51.942 75 84.694 97.578v29.454c-60.759 101.265-38.633 268.827-14.734 401.355 17.575 97.398 6.645 196.025-75.52 261.113-40.995 32.468-87.413 47.903-133.75 69.979-46.763 22.27-87.44 54-123.961 90.521-36.525-36.52-77.199-68.25-123.961-90.521-46.333-22.076-92.756-37.511-133.746-69.979C8.09 724.412-2.84 625.785 14.73 528.387 38.633 395.86 60.76 228.297 0 127.032V97.578C32.748 75 64.84 37.218 84.694 0z" clip-rule="evenodd"/><path fill="#de454e" fill-rule="evenodd" d="M600.189 29.459c19.62 38.959 44.184 55.23 71.802 82.844-69.042 160.174-26.695 323.112-12.893 416.08 9.473 63.772 10.011 138.08-24.718 194.989-39.484 64.699-123.35 85.992-185.52 121.753-36.033 20.723-69.735 46.093-100.904 73.575-31.169-27.478-64.87-52.852-100.903-73.575-62.175-35.76-146.037-57.054-185.525-121.753-34.725-56.91-34.186-131.222-24.713-194.99 13.806-92.967 56.149-255.9-12.893-416.079 27.613-27.613 52.19-43.88 71.801-82.844z" clip-rule="evenodd"/><path fill="#f6d986" fill-rule="evenodd" d="M56.04 406.259c6.149-49.916 9.347-106.002 2.276-164.472l206.796-.004V29.459h165.702v212.328H637.61c-6.894 56.964-4.035 111.675 1.8 160.608q.23 1.936.475 3.864H430.814l-.014 449.755c-29.282 18.47-56.936 39.845-82.835 62.681-25.903-22.84-53.552-44.21-82.844-62.681l-.009-449.755z" clip-rule="evenodd"/><path fill="#e24660" fill-rule="evenodd" d="M290.323 428.864s-8.577 20.163-21.619 37.434l-1.244 10.636c39.579-27.948 137.871-202.118 150.746-244.226 0 0-20.827-6.374-21.054-6.442-1.158-.348-3.487 2.027-4.451 2.624-1.235.765-2.538 1.38-3.936 1.502a5.7 5.7 0 0 1-1.696-.086c-.43-.081-3.479-.95-6.125-1.764-2.18-.67-4.814 1.859-5.429 3.117-1.09 2.22-2.787 3.754-5.65 5.279 0 0-32.562 90.159-94.131 183.453-3.262 10.685 7.7 11.12 11.703 5.673 3.994-5.456 5.795-3.986 2.886 2.8" clip-rule="evenodd"/><path fill="#c7546c" fill-rule="evenodd" d="M268.297 469.827c42.885-39.981 132.036-198.884 144.259-238.851l5.65 1.732C405.331 274.82 307.04 448.99 267.46 476.934l.832-7.112zM291.726 424.295c.692-2.293-2.072-7.984-5.33-3.053-3.257 4.926-14.046 7.468-10.671-.842-3.262 10.685 7.7 11.12 11.703 5.673 2.818-3.845 4.55-4.257 4.307-1.782z" clip-rule="evenodd"/><path fill="#f6db3d" fill-rule="evenodd" d="M417.677 211.514C367.68 321.365 350.915 351.29 318.33 392.375c-4.76 15.562 9.966 23.067 23.09 3.063-5.036 16.475-11.179 34.733-22.081 49.3l10.346 2.167c42.84-54.978 128.751-191.895 138.016-245.126-16.851 4.926-39.208 9.233-50.024 9.735" clip-rule="evenodd"/><path fill="#d1bb54" fill-rule="evenodd" d="m319.343 444.743 10.346 2.167c42.84-54.978 128.752-191.895 138.016-245.126a263 263 0 0 1-9.55 2.583v-.005c-11.033 53.969-96.021 184.616-138.776 240.127zM341.424 395.442c1.909-5.93-2.244-8.957-5.845-3.795-6.161 20.14-22.148 16.756-17.25.733-4.758 15.557 9.967 23.062 23.095 3.062" clip-rule="evenodd"/><path d="M264.18 383.104h3.333v-1.725q0-2.892.614-4.316.614-1.425 2.264-2.319 1.648-.896 4.173-.897 2.584 0 5.064.768l-.765 4.18a12.4 12.4 0 0 0-2.824-.344q-1.334 0-1.915.623-.579.621-.579 2.393v1.638h4.496v4.764h-4.496v18.094h-6.031v-18.094h-3.333zM299.792 389.877l-5.978 1.059q-.3-1.762-1.362-2.652-1.061-.893-2.754-.893-2.251 0-3.592 1.564-1.34 1.563-1.339 5.228 0 4.079 1.367 5.759 1.37 1.683 3.675 1.682 1.725 0 2.822-.989 1.1-.99 1.553-3.402l5.925 1.006q-.924 4.11-3.545 6.207-2.623 2.099-7.027 2.099-5.008 0-7.983-3.167-2.977-3.166-2.977-8.769 0-5.664 2.983-8.821 2.986-3.157 8.075-3.157 4.164 0 6.625 1.791 2.456 1.788 3.532 5.455z" style="clip-rule:evenodd;fill:#fff;fill-rule:evenodd;stroke:#5b7d95;stroke-width:1.2209;stroke-miterlimit:2.6131" transform="translate(-1000.128 -1438.067)scale(4.52379)"/><path d="M302.318 383.104h5.556v3.118q2.99-3.594 7.122-3.594 2.193 0 3.809.9 1.612.899 2.645 2.719 1.503-1.82 3.238-2.719a7.96 7.96 0 0 1 3.711-.9q2.509 0 4.245 1.021 1.738 1.02 2.597 2.997.62 1.46.62 4.726v14.589h-6.03v-13.053q0-3.399-.622-4.387-.836-1.29-2.57-1.289-1.266 0-2.379.773-1.115.775-1.607 2.268-.493 1.493-.493 4.72v10.967h-6.03v-12.517q0-3.331-.323-4.299-.324-.967-1.003-1.44t-1.841-.473q-1.401-.001-2.521.751-1.121.755-1.605 2.173t-.484 4.708v11.097h-6.032v-22.856z" style="clip-rule:evenodd;fill:#007cbe;fill-rule:evenodd;stroke:#5b7d95;stroke-width:1.2209;stroke-miterlimit:2.6131" transform="translate(-1000.128 -1438.067)scale(4.52379)"/></svg>