<svg xmlns="http://www.w3.org/2000/svg" xml:space="preserve" viewBox="0 0 600 600"><path d="M303.773 77.509c100.615 0 173.001 97.947 173.001 218.724s-72.386 218.724-173.001 218.724-173.002-97.947-173.002-218.724S203.158 77.509 303.773 77.509" style="fill-rule:evenodd;clip-rule:evenodd"/><path d="M274.116 90.315v411.011c-28.96-8.29-54.852-28.645-74.968-57.222V147.537c20.115-28.577 46.008-48.931 74.968-57.222M330.136 90.69h3.738c27.278 8.167 51.784 27.05 71.228 53.416v303.43c-20.328 27.567-46.188 46.953-74.967 54.464z" style="fill-rule:evenodd;clip-rule:evenodd;fill:#ea1d28"/><path d="M303.771 83.857c-8.519 0-16.991 1.014-25.272 3.008-38.551 9.281-68.723 38.332-88.704 71.477-24.618 40.837-35.789 90.078-35.789 137.479s11.17 96.642 35.789 137.479c19.981 33.146 50.153 62.196 88.704 71.478a108 108 0 0 0 25.272 3.007c8.519 0 16.991-1.014 25.272-3.007 38.551-9.281 68.724-38.332 88.704-71.478 24.618-40.837 35.789-90.078 35.789-137.479s-11.171-96.642-35.789-137.479c-19.98-33.145-50.153-62.196-88.704-71.477a108 108 0 0 0-25.272-3.008m0 5.376c7.925 0 15.812.92 23.526 2.729 37.569 8.809 66.863 37.269 86.182 69.539 23.896 39.918 34.682 88.079 34.682 134.321s-10.786 94.404-34.682 134.321c-19.318 32.27-48.612 60.73-86.182 69.538-7.715 1.81-15.602 2.73-23.526 2.73s-15.811-.92-23.526-2.73c-37.569-8.808-66.864-37.269-86.182-69.538-23.895-39.917-34.682-88.078-34.682-134.321s10.787-94.403 34.682-134.321c19.318-32.269 48.613-60.73 86.182-69.539a103 103 0 0 1 23.526-2.729" style="fill-rule:evenodd;clip-rule:evenodd;fill:#fbdb66"/><path d="m253.095 183.367 3.044-40.104 26.626 31.355 17.471-45.28 18.591 45.607 26.641-31.082 3.745 39.461 35.857-22.413-33.218 76.599-8.489-3.335c-27.419-10.773-55.345-12.192-82.684-.702l-8.579 3.606-32.41-74.014z" style="fill-rule:evenodd;clip-rule:evenodd"/><path d="m240.336 186.664 16.685 38.103c28.42-11.945 58.697-11.602 89.797.618l17.506-40.368-23.067 14.418-3.089-32.542-21.01 25.951-15.035-37.895-15.034 38.103-23.272-26.157-2.471 32.54z" style="fill-rule:evenodd;clip-rule:evenodd;fill:#fbdb66"/><path d="m302.334 119.14 6.277 15.756 17.057-2.547-10.777 13.209 10.777 13.209-17.057-2.546-6.277 15.756-6.279-15.756-17.056 2.546 10.778-13.209-10.778-13.209 17.056 2.547z" style="fill-rule:evenodd;clip-rule:evenodd;fill:#fbdb66"/><path d="m199.314 91.49-8.811-27.275c-.46-1.417-1.35-4.138-2.287-5.301-.405-.505-1.027-.692-1.648-.751-1.018-.085-2.233.472-3.108.963a16 16 0 0 0-.504.267l-.374.204-1.416-1.761 11.694-9.396 1.415 1.758-.274.321c-.792.926-1.532 2.065-1.707 3.288-.215 1.92.3 4.107.888 5.924l13.576 42.306-1.499 1.206-39.68-22.011c-.884-.489-2.815-1.617-3.78-1.849a5.2 5.2 0 0 0-2.458-.054c-1.001.196-2.044.797-2.883 1.357l-.387.258-1.443-1.793 15.237-12.24 1.439 1.789-.329.322c-.695.681-2.143 2.175-2.331 3.164-.116.684.051 1.282.485 1.822.981 1.22 3.183 2.492 4.54 3.244zm45.575-16.078 1.007 2.103-19.624 9.376-1.005-2.104 2.007-.958c1.331-.637 2.563-1.59 2.887-3.1.24-1.168-1.055-3.972-1.548-5.004L215.14 47.529c-.502-1.051-1.543-3.222-2.39-4.017-.457-.414-1.075-.573-1.669-.621a6.2 6.2 0 0 0-3.081.599l-2.008.958-1.011-2.115 19.624-9.376 1.01 2.116-2.04.975c-1.323.632-2.531 1.581-2.86 3.078-.261 1.192 1.014 3.963 1.516 5.014l13.472 28.197c.502 1.052 1.542 3.221 2.39 4.016.459.417 1.102.565 1.703.605a6.07 6.07 0 0 0 3.052-.572zm20.154-26.813c-.885.17-1.773.338-2.662.482a29 29 0 0 1-1.004.148l-.579.071 2.145 13.342c.186 1.152.748 4.342 1.708 5.131 1.094.911 2.5 1.014 3.858.795l2.377-.382.37 2.303-21.46 3.449-.37-2.303 2.293-.369c1.543-.248 2.956-.887 3.628-2.376.475-1.03.047-3.919-.127-5.008l-4.96-30.853c-.183-1.136-.747-4.347-1.703-5.117-1.108-.911-2.566-1.006-3.933-.785l-2.293.367-.373-2.314 17.895-2.876c3.473-.558 8.044-1.184 11.545-.686 2.66.366 5.005 1.462 7.047 3.207 2.138 1.855 3.375 4.213 3.823 7.005.486 3.028-.068 5.871-1.718 8.459-1.766 2.775-4.692 4.627-7.679 5.902l11.521 11.581c1.757 1.777 4.341 4.221 6.653 5.231 1.991.846 4.298 1.015 6.438.91l.454-.023.363 2.25-13.513 2.172zm-4.768-2.553q.342-.054.685-.097c.263-.032.529-.062.79-.104 3.397-.546 7.21-1.725 9.519-4.439 1.908-2.234 2.612-4.784 2.146-7.683-.425-2.646-1.573-4.905-3.764-6.49-2.222-1.607-4.817-1.948-7.488-1.52-1.625.262-3.36.833-4.934 1.396zm65.198-22.749-3.178 36.312c-.1 1.15-.329 4.288.374 5.277.858 1.136 2.311 1.534 3.667 1.653l2.18.191-.204 2.323-21.445-1.876.201-2.323 2.217.194c1.485.129 3.057-.08 4.057-1.295.738-.889 1.028-3.716 1.127-4.829l3.177-36.311-5.291-.462c-1.331-.116-3.36-.263-4.66.063-1.276.341-2.3 1.141-3.128 2.148-1.093 1.341-1.631 3.136-1.909 4.816l-.078.464-2.347-.206 1.698-12.261 40.293 3.524-.496 12.367-2.335-.204-.018-.448c-.05-1.23-.165-3.041-.653-4.184-.53-1.252-1.329-2.31-2.468-3.061-1.299-.848-2.973-1.189-4.495-1.322zm74.485 23.898c-.967.633-2.122 3.152-2.572 4.179l-7.895 17.951c-1.462 3.324-3.436 7.243-5.956 9.897-2.509 2.642-5.951 4.153-9.554 4.501-3.299.319-6.71-.349-9.731-1.675-3.886-1.706-7.047-3.867-9.349-7.49-1.822-2.868-2.64-6.007-2.436-9.404.242-3.372 2.438-8.459 3.792-11.54l7.609-17.305c.576-1.308 1.683-4.032 1.21-5.483-.401-1.259-1.648-2.054-2.795-2.558l-2.138-.939.944-2.148 20.063 8.824-.943 2.147-2.159-.95c-1.368-.602-2.881-.872-4.212-.03-1.105.672-2.264 3.165-2.765 4.306l-8.487 19.3c-.855 1.945-1.529 4-2.105 6.044-.49 1.773-.878 3.887-.557 5.723.289 1.646 1.083 3.115 2.125 4.407 1.308 1.622 2.398 2.445 4.337 3.296 4.568 2.007 10.039 1.946 13.827-1.624 2.268-2.138 4.304-6.468 5.543-9.287l7.885-17.93c.471-1.069 1.725-4.041 1.346-5.223-.44-1.377-1.599-2.232-2.876-2.793l-2.137-.94.943-2.146 16.61 7.305-.944 2.146-2.138-.941c-1.574-.693-3.047-.562-4.485.38m47.462 27.536-11.034 13.896-1.808-1.436.224-.381c1.283-2.182 2.504-4.761 2.844-7.293.294-2.188.123-4.379-.773-6.416-.91-2.069-2.639-4.037-4.397-5.432-1.763-1.399-3.756-2.2-6.021-2.055-1.904.122-3.588.768-4.794 2.286-.876 1.105-1.223 2.398-1.154 3.806.109 3.325 2.669 9.127 4.021 12.149 1.409 3.151 3.198 7.051 4.033 10.396.532 2.059.65 4.168.249 6.261-.387 1.998-1.19 3.814-2.455 5.407-2.459 3.097-5.775 4.617-9.699 4.873-4.391.277-8.282-1.326-11.691-4.032a26.5 26.5 0 0 1-3.061-2.861 40 40 0 0 1-3.513-4.456c-.58-.855-1.964-2.976-2.754-3.603-.322-.256-.686-.425-1.104-.38-.515.055-1.344.776-1.708 1.11l-.32.295-1.801-1.429 10.943-13.782 1.793 1.424-.199.374c-1.168 2.197-2.482 5.028-2.761 7.528-.239 2.135.284 4.242 1.163 6.178 1.024 2.263 3.138 4.597 5.078 6.137 1.958 1.554 4.26 2.705 6.816 2.575 2.087-.113 3.862-.856 5.175-2.508.743-.938 1.149-2.047 1.35-3.215.238-1.458.027-2.98-.355-4.397-.664-2.55-2.249-5.925-3.287-8.372-1.348-3.161-2.865-6.745-3.714-10.079-.517-2.063-.714-4.222-.389-6.334.329-2.01 1.167-3.817 2.435-5.411 2.326-2.931 5.446-4.392 9.163-4.645 4.096-.279 7.719 1.157 10.906 3.688 2.38 1.886 4.686 4.646 6.13 7.33.235.437.931 1.951 1.286 2.233.35.279.759.472 1.216.439.591-.045 1.43-.668 1.873-1.025l.316-.254zM129.753 481.122c1.724 2.486 3.288 5.138 5.797 6.925 1.365.956 3.285 1.85 4.955 2.051 2.303.267 5.104-.207 7.352-.7l.418-.092.829 2.029-14.032 4.336-20.661-29.507 1.918-1.328 1.332 1.915c.887 1.286 2.071 2.287 3.699 2.254 1.153-.036 3.563-1.664 4.49-2.304l25.666-17.772c.965-.668 3.585-2.533 3.882-3.746.344-1.395-.192-2.733-.983-3.873l-1.328-1.923 1.929-1.331 13.039 18.836-1.93 1.341-.289-.425c-.803-1.185-2.219-3.166-3.484-3.884-.723-.411-1.586-.733-2.437-.594-1.118.149-3.673 1.901-4.601 2.543l-24.986 17.301c-.847.585-2.352 1.677-2.848 2.592-.216.436-.232.897-.125 1.365.231.965 1.837 3.18 2.398 3.991m50.279 38.009-12.346-11.397-7.117 3.387c-1.072.505-2.721 1.328-3.534 2.208-.434.471-.534 1.06-.463 1.681.127 1.043 1.566 2.668 2.251 3.405l.32.345-1.555 1.686-11.202-10.34 1.52-1.649.357.222c.775.479 2.398 1.43 3.351 1.379 2.123-.08 5.39-1.591 7.282-2.505l38.984-18.608 1.361 1.256-15.847 40.55c-.673 1.715-1.846 4.873-1.703 6.738.114 1.48.931 2.766 1.931 3.818l.328.346-1.559 1.69-13.852-12.785 1.563-1.694.371.308c.719.595 2.06 1.609 3.04 1.645.656.03 1.213-.172 1.661-.656.928-1.005 1.781-3.126 2.275-4.392zm1.502-3.593 6.883-17.669-17.19 8.155zm196.559 35.711-15.482 6.53.142 7.88c.017 1.186.084 3.027.55 4.132.25.591.742.924 1.338 1.116 1.003.315 3.076-.322 4.032-.641l.445-.149.892 2.113-14.047 5.925-.873-2.066.35-.233c.759-.508 2.294-1.594 2.641-2.483.806-1.965.781-5.565.731-7.665l-.825-43.19 1.706-.72 30.369 31.195c1.284 1.321 3.675 3.696 5.432 4.336 1.391.507 2.907.295 4.275-.179l.45-.156.894 2.118-17.369 7.326-.896-2.124.434-.211c.84-.409 2.317-1.209 2.756-2.089.299-.587.346-1.173.088-1.782-.531-1.261-2.109-2.915-3.058-3.888zm-2.649-2.853-13.243-13.573.318 19.023zm-138.978 9.647 11.917-23.584c.516-1.021 1.895-3.87 1.581-5.047-.37-1.378-1.576-2.287-2.792-2.9l-1.953-.99 1.06-2.09 15.933 8.049-1.055 2.092-1.988-1.002c-1.323-.671-2.868-1.064-4.243-.314-1.012.551-2.331 3.086-2.835 4.081l-18.608 36.833-1.827-.924-9.999-49.226-13.42 26.563c-.511 1.009-1.919 3.875-1.615 5.036.365 1.373 1.581 2.287 2.791 2.898l1.975.999-1.051 2.081-15.921-8.047 1.051-2.083 1.941.982c1.344.679 2.89 1.082 4.29.326 1.007-.543 2.328-3.08 2.828-4.068l15.086-29.854c-.308-1.268-.724-2.919-1.296-4.045-.491-.945-1.339-1.867-2.086-2.607-.675-.635-1.716-1.196-2.539-1.612l-.454-.229 1.057-2.091 13.304 6.723zm199.743-43.501-17.004-20.227c-.74-.881-2.814-3.265-4.026-3.438-1.405-.2-2.723.553-3.759 1.425l-1.677 1.409-1.509-1.795 13.664-11.488 1.508 1.794-1.703 1.43c-1.137.956-2.105 2.216-1.955 3.778.11 1.15 1.919 3.354 2.639 4.21l26.553 31.588-1.564 1.313-49.194-10.148 19.149 22.782c.725.861 2.816 3.294 4 3.465 1.402.206 2.726-.558 3.759-1.429l1.695-1.425 1.5 1.789-13.655 11.475-1.502-1.782 1.664-1.399c1.157-.973 2.131-2.231 1.988-3.818-.106-1.139-1.917-3.349-2.63-4.197l-21.521-25.604c-1.285-.217-2.971-.483-4.23-.399-1.063.082-2.243.496-3.22.893-.85.373-1.772 1.107-2.478 1.702l-.389.329-1.511-1.794 11.412-9.593zM303.026 534.51l-1.548 18.648-2.067-.312-.031-.402c-.346-4.445-.96-9.361-4.355-12.587-2.433-2.311-5.374-3.437-8.714-3.622-2.873-.162-5.552.454-8.033 1.913-2.785 1.637-4.681 4.35-6.02 7.23-1.847 3.978-2.603 8.631-2.875 12.978-.238 3.766.005 7.682 1.236 11.273 1.024 3.009 2.723 5.565 5.298 7.448 2.546 1.876 5.46 2.798 8.611 2.973 2.685.152 4.961-.217 7.348-1.456 2.851-1.479 5.511-4.886 7.34-7.454l.293-.413 1.898 1.342-.25.406c-2.044 3.315-5.036 7.244-8.427 9.201-3.467 2.001-7.003 2.605-10.969 2.383-7.506-.423-13.389-3.671-17.311-10.128-3.006-4.928-4.07-10.415-3.709-16.137.296-4.729 1.555-9.225 3.94-13.333 2.241-3.845 5.259-6.957 9.167-9.099 3.787-2.058 7.838-2.966 12.14-2.724 3.516.196 6.79 1.341 9.791 3.172.486.31 3.317 1.623 3.785 1.186.647-.604 1.032-1.527 1.274-2.361l.123-.426zm35.917 44.21.267 2.316-21.605 2.497-.267-2.316 2.21-.256c1.466-.169 2.94-.671 3.736-1.994.605-1.025.292-4.102.162-5.235l-3.589-31.043c-.134-1.156-.414-3.548-.958-4.575-.296-.54-.83-.891-1.374-1.129a6.25 6.25 0 0 0-3.11-.435l-2.211.257-.27-2.329 21.605-2.498.27 2.329-2.247.26c-1.455.168-2.908.673-3.705 1.982-.633 1.043-.327 4.078-.193 5.236l3.589 31.042c.134 1.156.413 3.549.957 4.575.299.543.857.891 1.413 1.125.985.412 2.01.572 3.074.45zM439.06 454.974c3.914-5.31 9.262-8.235 15.782-9.1 6.936-.919 13.221.996 18.828 5.132 5.731 4.228 9.569 9.731 10.793 16.785 1.166 6.671-.202 12.804-4.226 18.26-3.994 5.417-9.333 8.625-16.013 9.491-7.056.905-13.515-1.351-19.183-5.531-6.049-4.461-9.82-10.313-10.679-17.817-.703-6.325.925-12.104 4.698-17.22m2.508 2.681c-2.417 3.278-3.241 6.858-2.222 10.818 1.511 5.864 6.309 10.575 11.03 14.059 4.944 3.646 11.035 6.865 17.351 6.641 4.05-.16 7.217-1.925 9.617-5.18 2.629-3.564 3.359-7.491 2.311-11.787-1.332-5.446-6.325-10.038-10.662-13.237-4.865-3.587-11.222-7.199-17.474-6.944-4.233.188-7.459 2.252-9.951 5.63M373.355 227.062v152.882c0 8.193-3.102 15.913-9.075 21.586-8.144 7.733-19.682 10.044-30.565 10.044-6.171 0-14.405.357-20.282 2.53-2.577.953-2.97 1.647-5.06 3.051l-5.267 3.535-5.265-3.538c-7.662-5.149-18.77-5.578-27.65-5.578-10.883 0-22.421-2.311-30.565-10.044-5.973-5.673-9.075-13.393-9.075-21.586V227.062z" style="fill-rule:evenodd;clip-rule:evenodd"/><path d="M342.299 401.509c-2.571.401-5.421.62-8.583.62-23.902 0-28.719 5.917-30.605 7.185-1.883-1.266-8.999-7.167-32.82-7.184.58-.969 1.345-1.94 1.924-2.69 1.686-2.182 3.419-4.325 5.002-6.584 2.243-3.204 4.094-6.664 6.056-10.04.762-1.313 1.74-2.142 2.234-3.66.188-.573.943-2.58 1.49-2.808 2.007-.272 4.511 5.972 5.504 7.398l.628.903.985-.49c2.701-1.344 3.712-6.2 4.602-8.85.514-1.531 2.25-5.917 4.187-5.924.138 0 .261.018.375.098.55.389 1.554 2.646 2.311 3.413 2.377 2.409 4.261 5.22 5.822 8.212 1.206 2.311 2.202 5.074 3.714 7.173l.802 1.116 1.052-.885c2.87-2.414 3.872-14.372 7.327-14.717.432-.043 1.325-.11 1.659.218.362.354.643 1.579.782 2.086.448 1.626.991 3.1 1.881 4.542a37 37 0 0 0 1.569 2.323c2.118 2.9 4.567 5.535 6.7 8.422 2.335 3.16 4.133 6.439 5.402 10.123" style="fill-rule:evenodd;clip-rule:evenodd;fill:#ea1d28"/><path d="M363.912 294.792v85.151c0 7.996-4.264 17.85-19.082 21.093-1.358-4.074-3.319-7.694-5.882-11.164-2.13-2.884-4.577-5.516-6.692-8.41a33 33 0 0 1-1.458-2.157c-.761-1.233-1.21-2.492-1.593-3.882-.31-1.124-.593-2.384-1.455-3.229-.996-.975-2.383-1.066-3.696-.935-3.579.357-5.157 5.4-6.059 8.272-.574 1.833-1.055 3.805-1.816 5.579-.901-1.696-1.62-3.482-2.508-5.182-1.68-3.218-3.711-6.231-6.267-8.822-1.55-1.569-1.585-4.279-4.51-4.268-3.543.013-5.648 4.843-6.595 7.66-.635 1.892-1.313 4.833-2.468 6.525-1.493-2.756-3.529-7.69-7.241-7.185-1.856.254-2.997 2.965-3.506 4.526-.373 1.145-1.41 2.126-2.017 3.171-1.926 3.314-3.739 6.716-5.94 9.858-1.558 2.227-3.271 4.338-4.931 6.488-.945 1.224-2.088 2.698-2.746 4.188-21.645-.92-27.456-12.789-27.456-22.126v-3.706z" style="fill-rule:evenodd;clip-rule:evenodd;fill:#00a5db"/><path d="M363.727 291.864v-26.997l-123.545 80.479v27.719z" style="fill-rule:evenodd;clip-rule:evenodd;fill:#fff"/><path d="M363.912 236.506v25.198l-123.916 80.722v-105.92z" style="fill-rule:evenodd;clip-rule:evenodd;fill:#00a5db"/><path d="m265.559 336.138 5.315-3.562.291 6.428 5.716 2.857-5.376 3.464.403 6.42-5.666-2.961-5.313 3.562-.292-6.427-5.717-2.856 5.374-3.466-.402-6.418z" style="fill-rule:evenodd;clip-rule:evenodd"/><path d="m262.308 336.899.241 3.836-3.235 2.087 3.442 1.72.174 3.838 3.174-2.127 3.387 1.769-.241-3.836 3.236-2.085-3.44-1.72-.174-3.839-3.175 2.127z" style="fill-rule:evenodd;clip-rule:evenodd;fill:#f9df23"/><path d="m301.126 312.906 5.314-3.561.291 6.427 5.717 2.857-5.376 3.465.404 6.42-5.666-2.961-5.314 3.561-.292-6.426-5.717-2.857 5.374-3.467-.402-6.417z" style="fill-rule:evenodd;clip-rule:evenodd"/><path d="m297.876 313.667.24 3.837-3.234 2.086 3.441 1.72.175 3.838 3.173-2.126 3.388 1.769-.242-3.837 3.237-2.085-3.441-1.72-.174-3.839-3.175 2.126z" style="fill-rule:evenodd;clip-rule:evenodd;fill:#f9df23"/><path d="m339.571 287.619 5.316-3.562.291 6.427 5.716 2.858-5.375 3.464.402 6.42-5.666-2.961-5.314 3.561-.292-6.427-5.716-2.855 5.374-3.467-.402-6.418z" style="fill-rule:evenodd;clip-rule:evenodd"/><path d="m336.321 288.38.24 3.836-3.234 2.087 3.442 1.719.174 3.839 3.174-2.127 3.387 1.769-.24-3.836 3.235-2.086-3.44-1.72-.175-3.838-3.175 2.126z" style="fill-rule:evenodd;clip-rule:evenodd;fill:#f9df23"/><path d="M264.77 387.223c.505-.277 1.091-.35 1.638-.131 1.348.538 1.566 2.479 1.261 3.722-.403 1.62-2.022 2.338-3.557 2.309a3.7 3.7 0 0 1-1.033-.173c.498 1.371.374 3.065-1.025 3.872a3.4 3.4 0 0 1-1.634.436 3.4 3.4 0 0 1-1.605-.436c-1.404-.808-1.52-2.52-1.013-3.895a3.6 3.6 0 0 1-1.226.247c-1.538.029-3.111-.773-3.507-2.361a4.6 4.6 0 0 1-.109-1.288c.077-1.615 1.226-3.172 2.856-2.382a2.608 2.608 0 0 1 .371-1.542 2.42 2.42 0 0 0-1.396-.71c-.801-.104-1.551.744-1.513 1.525.067 1.371-1.512 2.292-2.699 1.574-.999-.603-1.815-.957-2.538-1.949-.964-1.325-1.311-2.883-.885-4.476.654-2.427 2.647-4.324 5.211-4.469 1.204-.066 2.222.201 3.097.693a8 8 0 0 1-.056-1.007c.015-3.221 2.362-4.833 3.455-7.441.293-.683.774-1.184 1.557-1.184.802-.012 1.29.495 1.592 1.19 1.087 2.599 3.435 4.213 3.451 7.435q0 .48-.047.93c.843-.443 1.815-.679 2.955-.616 2.565.145 4.558 2.042 5.213 4.472.425 1.592.079 3.148-.886 4.473-.722.993-1.538 1.346-2.536 1.949-1.181.715-2.751-.196-2.702-1.568.039-.782-.711-1.635-1.512-1.53a2.44 2.44 0 0 0-1.485.806 2.6 2.6 0 0 1 .307 1.525" style="fill-rule:evenodd;clip-rule:evenodd"/><path d="M268.289 378.547c1.906.107 3.392 1.542 3.891 3.396.306 1.146.064 2.253-.658 3.243-.551.759-1.34 1.094-2.113 1.562-.235.142-.504-.099-.498-.26.087-1.788-1.545-3.248-3.152-3.037a3.9 3.9 0 0 0-2.322 1.215c-.373-.207-.397-.274-.855-.272-.051-.001 2.013-6.231 5.707-5.847m-4.959 8.41c0 .643-.515 1.162-1.153 1.162h-3.762c-.636 0-1.153-.52-1.153-1.162 0-.64.517-1.163 1.153-1.163h3.762a1.157 1.157 0 0 1 1.153 1.163m-.815 2.593c.208.192.482.346.837.447 1.063.301 1.433-1.077 2.078-1.478.869-.54 1.016 1.178.828 1.944-.242.974-1.393 1.22-2.119 1.206a2.41 2.41 0 0 1-2.06-1.345 7 7 0 0 1-.305-.753h.402q.174.001.339-.021m-10.066-11.003c-1.906.107-3.39 1.542-3.891 3.396-.306 1.146-.063 2.253.657 3.243.552.759 1.34 1.094 2.114 1.562.235.142.504-.099.496-.26-.086-1.788 1.547-3.248 3.154-3.037a3.88 3.88 0 0 1 2.275 1.165c.35-.175.388-.274.805-.274.145-.001-1.732-5.999-5.61-5.795m5.758 11.017a2 2 0 0 1-.822.434c-1.063.301-1.434-1.077-2.078-1.478-.87-.54-1.017 1.178-.828 1.944.242.974 1.343 1.271 2.068 1.257.771-.015 1.705-.545 2.11-1.396q.176-.368.305-.753h-.547q-.104-.001-.208-.008m2.228 6.241a1.87 1.87 0 0 1-.897-.243c-.762-.439-.61-1.531-.351-2.193.488-1.247.769-2.522.864-3.796h.766c.096 1.273.378 2.549.866 3.796.26.663.412 1.753-.352 2.193a1.86 1.86 0 0 1-.896.243m-1.01-11.464c-.834-2.559-2.578-4.786-2.564-7.552.012-2.609 2.328-4.468 3.337-6.877.089-.208.143-.302.238-.302.094-.001.148.096.237.302 1.007 2.408 3.323 4.266 3.336 6.877.013 2.764-1.73 4.991-2.563 7.552z" style="fill-rule:evenodd;clip-rule:evenodd;fill:#f9df23"/><path d="M345.655 258.707c.505-.277 1.091-.35 1.638-.131 1.348.538 1.565 2.479 1.261 3.722-.402 1.62-2.021 2.338-3.557 2.31a3.6 3.6 0 0 1-1.033-.173c.497 1.372.374 3.066-1.025 3.873a3.4 3.4 0 0 1-1.633.435 3.37 3.37 0 0 1-1.605-.437c-1.404-.808-1.521-2.519-1.014-3.895a3.6 3.6 0 0 1-1.226.247c-1.538.029-3.112-.773-3.507-2.362a4.5 4.5 0 0 1-.109-1.287c.077-1.616 1.226-3.172 2.855-2.382a2.61 2.61 0 0 1 .371-1.541 2.42 2.42 0 0 0-1.396-.71c-.801-.105-1.552.744-1.514 1.525.067 1.371-1.512 2.292-2.699 1.574-.999-.604-1.815-.957-2.537-1.95-.964-1.324-1.311-2.882-.885-4.476.654-2.427 2.647-4.324 5.212-4.469 1.203-.067 2.222.201 3.097.692a8 8 0 0 1-.056-1.007c.015-3.221 2.361-4.833 3.454-7.44.293-.683.775-1.184 1.557-1.184.802-.012 1.29.495 1.593 1.189 1.087 2.599 3.435 4.213 3.45 7.436a9 9 0 0 1-.047.93c.843-.443 1.815-.679 2.955-.616 2.564.145 4.558 2.042 5.213 4.471.425 1.592.078 3.149-.887 4.473-.722.993-1.537 1.346-2.536 1.95-1.181.714-2.751-.197-2.701-1.569.038-.782-.711-1.635-1.513-1.53a2.44 2.44 0 0 0-1.485.806 2.6 2.6 0 0 1 .309 1.526" style="fill-rule:evenodd;clip-rule:evenodd"/><path d="M349.174 250.031c1.906.107 3.392 1.543 3.891 3.396.307 1.146.064 2.252-.657 3.243-.551.759-1.34 1.094-2.113 1.561-.235.143-.504-.098-.498-.259.087-1.788-1.545-3.248-3.152-3.038a3.9 3.9 0 0 0-2.322 1.215c-.373-.207-.396-.274-.854-.272-.053 0 2.01-6.229 5.705-5.846m-4.959 8.41c0 .643-.515 1.163-1.152 1.163h-3.762c-.637 0-1.154-.52-1.154-1.163a1.16 1.16 0 0 1 1.154-1.162h3.762a1.156 1.156 0 0 1 1.152 1.162m-.815 2.593c.207.193.482.346.837.447 1.063.301 1.434-1.077 2.078-1.478.869-.54 1.017 1.177.828 1.944-.242.974-1.393 1.22-2.118 1.206a2.4 2.4 0 0 1-2.06-1.345 7 7 0 0 1-.306-.753h.402q.174.002.339-.021m-10.066-11.003c-1.905.107-3.391 1.543-3.891 3.396-.307 1.146-.064 2.252.657 3.243.552.759 1.34 1.094 2.114 1.561.235.143.504-.098.496-.259-.087-1.788 1.547-3.248 3.153-3.038.85.111 1.651.521 2.275 1.165.35-.175.388-.274.805-.274.146.001-1.73-5.998-5.609-5.794m5.759 11.017a2.05 2.05 0 0 1-.822.434c-1.062.301-1.434-1.077-2.078-1.478-.87-.54-1.017 1.177-.828 1.944.242.974 1.343 1.271 2.068 1.257.772-.015 1.705-.545 2.11-1.396q.174-.369.305-.753h-.547q-.106 0-.208-.008m2.227 6.242a1.87 1.87 0 0 1-.896-.244c-.763-.438-.61-1.531-.352-2.193a13 13 0 0 0 .865-3.797h.766c.096 1.274.378 2.549.865 3.797.261.663.412 1.753-.352 2.193a1.87 1.87 0 0 1-.896.244m-1.01-11.464c-.834-2.559-2.578-4.787-2.564-7.552.013-2.609 2.329-4.467 3.338-6.877.089-.208.143-.301.237-.301.095-.002.147.095.237.301 1.008 2.408 3.323 4.266 3.336 6.877.014 2.764-1.729 4.992-2.563 7.552z" style="fill-rule:evenodd;clip-rule:evenodd;fill:#f9df23"/><path d="m310.032 330.201 31.601 46.898-3.17 2.269-31.833-47.001zM281.292 287.527l13.156 19.534-3.44 2.238-12.956-19.13z" style="fill-rule:evenodd;clip-rule:evenodd"/><path d="m307.879 331.62 30.894 45.615.814-.575-9.694-14.414-1.077-.683-20.381-30.305zM280.36 289.76l-.361.694 12.175 17.986.542-.362z" style="fill-rule:evenodd;clip-rule:evenodd;fill:#f9df23"/><path d="m274.546 281.642 10.627 6.402-3.602 4.218-4.984 1.823z" style="fill-rule:evenodd;clip-rule:evenodd"/><path d="m276.489 284.508 1.244 7.589 3.056-1.133 2.211-2.533z" style="fill-rule:evenodd;clip-rule:evenodd;fill:#f9df23"/><path d="M261.345 243.833c-.243-2.264.943-5.319 3.786-4.275l.15.055.127.096c.615.46 1.093 1.844 1.293 2.594.241.908.114 1.801.114 2.72 0 1.389-.468 3.528.219 4.751.017.03.045.076.076.124.178-.234.323-.66.362-.874.132-.712.199-1.368.38-2.083.475-1.865 1.665-3.717 2.995-5.093.892-.925 2.233-1.826 3.448-.817 1.143.942.679 2.389.096 3.485-.254.48-.623 1.044-.729 1.58-.176.915-.005 1.865-.216 2.847l-.1.47c1.018-1.764 2.384-3.503 4.376-4.039 2.932-.795 3.113 2.304 1.866 4.124-.399.584-.585 1.337-.989 1.968-.411.643-.977 1.228-1.499 1.781a13 13 0 0 0-.892 1.076c.597-.457 1.253-.826 1.797-1.324 1.48-1.354 1.743-3.412 3.671-4.813.91-.658 1.982-1.185 2.952-.207 1.126 1.138.162 2.71-.408 3.846-.743 1.483-1.549 3.078-2.661 4.342 1.036-.352 2.105-.563 3.188-.451 1.094.116 2.225.921 2.416 2.054.306 1.805-1.039 2.332-2.518 2.35-.341.004-1.594-.16-1.851-.068-.17.082-.639.596-.801.738-1.287 1.129-2.275 1.182-3.851 1.483a5.4 5.4 0 0 0-.754.212c1.265.079 2.458-.029 3.681.451.965.381 1.918 1.013 2.913 1.264 1.165.293 2.779.531 2.321 2.331-.378 1.489-2.64 2.126-3.991 2.273a8.97 8.97 0 0 1-5.58-1.214 2.7 2.7 0 0 0-.602-.233l.016.022c.352.477 1.259.868 1.766 1.395.61.636.819 1.563 1.307 2.054.637.64 1.624.791 2.359 1.666 1.175 1.4.239 3.021-1.269 3.616-1.146.453-2.54.285-3.692-.066a3.9 3.9 0 0 1-.968-.426c1.172 1.585 2.058 3.995-.503 4.47-1.937.36-3.832-1.313-5.17-2.511-1.606-1.438-1.026-2.481-1.63-4.191-.19-.022-.332.314-.359.468-.223 1.228.49 2.473.344 3.966-.071.711-.391 1.498-.377 2.175.025 1.15.477 2.052-.211 3.193-1.065 1.772-4.11 2.42-4.838.005-.499-1.655.244-2.755.353-4.26.06-.818.154-1.631.154-2.453 0-.652.124-1.333-.001-1.973a5.2 5.2 0 0 0-.371-1.103c-.639 1.09-.532 2.112-.744 3.338-.245 1.417-.62 2.853-1.395 4.081-.701 1.11-2.297 2.637-3.685 2.589-.634-.022-1.232-.265-1.56-.838-.724-1.268.444-2.556.957-3.598.814-1.643 1.261-3.061 1.696-4.829.15-.605 1.175-2.145.974-2.471-.232-.376-.388-.431-.561-.009-.563 1.364-1.308 2.264-2.184 3.415-.763 1.004-1.664 1.868-2.482 2.82-1.035 1.205-3.148 2.8-4.736 1.679-1.806-1.274-.074-3.772.803-5.053.407-.592.877-1.251 1.384-1.758.639-.639 1.605-.967 2.115-1.531.508-.563.898-1.264 1.378-1.865.024-.186-.068-.722-.105-.968-.342-.105-1.327.112-1.611.166-.58.112-1.632.256-2.109.611-.551.41-.964.94-1.553 1.348-1.356.934-2.765 2.215-4.571 1.693-3.28-.949-1.227-3.799.667-4.934 1.476-.884 2.871-1.317 4.505-1.791.478-.14.955-.315 1.364-.606l.192-.137.232-.045c.209-.041.203-.665.102-.804-.365-.423-1.905-.322-2.402-.302-2.105.086-4.66 1.457-6.727.215-.646-.388-1.181-.98-1.13-1.784.097-1.557 2.11-2.104 3.198-2.777.725-.451 1.594-.986 2.486-1.245a5 5 0 0 1-.725-.344c-1.443-.832-4.229-2.85-2.811-4.764 1.022-1.381 2.027-.852 3.19-.238.624.329 1.348.319 2.032.354.795.039 1.595.101 2.387.205-1.337-.798-2.9-1.321-3.413-3.031-.23-.765-.548-1.818-.104-2.547.714-1.183 3.219-1.229 4.324-.699 1.164.562 1.083 1.54 1.644 2.073.844.804 1.78 1.47 2.526 2.384.389.476.583.444 1.165.665.425.161.48-.062.586-.48.023-.089.086-.295.074-.389-.223-.362-.67-.696-.971-1.199-.702-1.174-1.43-2.283-2.282-3.355a6 6 0 0 1-.68-1.086c-.875-1.767-.307-3.635 1.981-3.036 1.348.353 2.201 1.559 2.974 2.615.604.808 1.751 4.209 2.602 4.834l.003-.003c.153-.18.16-.559.11-.776-.429-1.862-1.122-3.416-.805-5.364m13.459 30.827c-.267-.535-.401-1.172-.718-1.893-.164-.372-1.1-.862-1.457-1.194-.078-.073-.253-.266-.407-.415q-.001.071.001.115c.082 1.598 1.432 2.376 2.519 3.332zm-24.645-16.282c.271.157.52.3.793.351.355.066 1.76.327 2.049.103.038-.071.05-.174-.004-.214-.927-.293-1.872-.244-2.838-.24" style="fill-rule:evenodd;clip-rule:evenodd"/><path d="M252.367 266.119c-.532.365-1.122.596-1.74.775-1.504.438-2.807.831-4.164 1.644-.642.384-2.67 1.811-1.01 2.291 1.134.328 2.475-.896 3.342-1.494.544-.377.972-.916 1.511-1.317.748-.556 1.806-.699 2.701-.873 1.161-.225 3.125-.62 3.332 1.089.08.652.285 1.446-.177 2.01-.517.634-.912 1.357-1.465 1.968-.634.703-1.54.959-2.165 1.584-.439.438-.861 1.04-1.213 1.552-.3.438-1.838 2.567-1.164 3.043.761.538 2.341-.907 2.796-1.438.798-.927 1.687-1.778 2.428-2.752.786-1.033 1.495-1.871 1.997-3.089.636-1.542 2.283-1.588 3.14-.202.857 1.388-.502 2.379-.798 3.583-.461 1.871-.943 3.386-1.804 5.125-.214.437-1.678 2.304-.648 2.341.768.027 2.024-1.309 2.404-1.912.665-1.053.984-2.338 1.192-3.552.268-1.553.104-2.515.995-3.947 1.379-2.215 2.685.199 2.977 1.679.16.821.028 1.445.028 2.252 0 .86-.096 1.703-.157 2.559-.086 1.177-.755 2.595-.412 3.735.333 1.104 1.804.329 2.203-.336.369-.611.019-1.713.003-2.413-.018-.868.303-1.535.384-2.349.147-1.495-.62-2.466-.328-4.081.316-1.74 2.572-2.337 3.165-.642.449 1.287.135 2.566 1.224 3.541.894.801 2.634 2.406 3.935 2.164 1.405-.26-.663-2.578-1.099-2.963-1.476-1.298-2.896-2.164-3.009-4.347-.039-.739.18-1.484.954-1.749.852-.292 1.359.411 1.895.912.676.63 1.379.727 1.795 1.67.468 1.07.354 2.087 1.622 2.472.813.247 1.924.426 2.737.104.54-.214 1.189-.737.69-1.33-.54-.644-1.608-.904-2.277-1.577-.629-.633-.782-1.507-1.325-2.072-.583-.608-1.322-.775-1.872-1.522-1.673-1.929.488-3.03 2.465-1.928a7.56 7.56 0 0 0 4.698 1.029c.599-.065 2.568-.504 2.74-1.186.119-.469-.94-.482-1.267-.564-1.124-.284-2.034-.904-3.09-1.321-1.005-.395-2.256-.286-3.323-.358-3.427-.227-2.119-2.557.657-3.085 1.268-.242 2.143-.251 3.165-1.146.395-.349.754-.832 1.266-1.013.708-.253 1.594-.011 2.328-.018.534-.007 1.227.081 1.102-.656-.079-.467-.706-.805-1.135-.85-1.745-.18-3.685.798-5.226 1.524-1.292.61-2.601 1.893-4.031.638-1.248-1.097-.662-2.048.794-2.192.59-.06 1.181-.061 1.756-.217 2.571-.703 3.934-3.551 5.031-5.739.188-.375 1.059-1.785.675-2.173-.295-.297-.829.189-1.066.362-1.592 1.156-2.052 3.344-3.544 4.708-.697.637-1.564 1.063-2.244 1.699l-.032.03-.039.021c-.571.32-1.696.85-2.26.248-.909-.969 1.025-3.175 1.631-3.819.454-.48.978-1.013 1.333-1.567.404-.632.572-1.36 1.014-2.006.368-.537 1.114-2.28-.288-1.9-1.92.517-3.213 2.752-4.063 4.405-.297.576-.26.913-.753 1.449-.668.723-2.045.943-2.249-.282-.137-.815.296-.841.458-1.411.214-.757.366-1.53.53-2.299.196-.912.031-1.887.21-2.819.146-.746.523-1.326.873-1.985.2-.376.701-1.321.261-1.684-.441-.366-1.199.419-1.477.707-1.151 1.191-2.22 2.827-2.631 4.442-.171.677-.234 1.311-.36 1.99-.313 1.696-1.963 3.274-3.133 1.198-.952-1.694-.406-3.644-.406-5.464 0-.728.12-1.648-.066-2.347-.084-.314-.486-1.511-.73-1.777-1.65-.544-1.917 1.835-1.761 2.91l.008.061-.012.06c-.324 1.684.393 3.33.763 4.944.155.681.042 1.499-.421 2.043-2.24 2.62-4.149-3.936-4.877-4.909-.519-.709-1.279-1.84-2.175-2.075-1.364-.357-.086 1.449.203 1.811.895 1.123 1.658 2.284 2.393 3.514.679 1.135 1.47 1.068 1.06 2.69-.318 1.25-1.198 1.976-2.509 1.483-.849-.322-1.168-.359-1.777-1.106-.686-.838-1.618-1.502-2.403-2.249-.505-.48-.779-1.578-1.274-1.816-.404-.194-2.194-.282-2.449.14-.096.219.174 1.122.252 1.378.361 1.201 2.258 1.836 3.229 2.494.745.507 1.566.875 2.159 1.583.327.39.7.845.437 1.385-.456.928-.962.467-1.542.192-.491-.235-1.151-.558-1.686-.649a26 26 0 0 0-3.035-.31c-.955-.049-1.765-.059-2.637-.52-.513-.27-.921-.755-1.345-.182-.58.784 1.85 2.342 2.369 2.641 1.663.961 4.01.223 5.896.819.946.296 1.308 1.446.841 2.299-.643 1.172-2.518.824-3.586.627-.735-.137-1.416-.782-2.012-.841-.859-.085-2.147.734-2.86 1.178-.687.426-3.427 1.276-2.086 2.081 1.359.816 4.35-.357 5.92-.421 1.127-.046 2.745-.141 3.561.804.806.926.476 2.834-.841 3.161" style="fill-rule:evenodd;clip-rule:evenodd;fill:#f9df23"/><path d="M259.144 257.933c.969-1.425 2.243-.913 3.578-.626 1.008.212.764 1.349-.244 1.136-.792-.171-1.813-.679-2.372.143-.578.854-1.542.199-.962-.653M265.609 257.639c1.186-.877 2.798-.638 4.137-.331 1.005.228.746 1.362-.26 1.133-.941-.216-2.343-.49-3.186.131-.828.614-1.519-.319-.691-.933M264.867 262.777c.127-.012.222-.02.382-.025 1.018-.036 1.132 1.125.041 1.162-.463.016-1.418.182-2.166.137-.152-.008-.552-.112-.642-.387-.054-.164-.064-.424.343-.668 1.045-.738 2.133-1.559 1.53-2.969-.405-.954.649-1.45 1.069-.458.573 1.34.206 2.358-.557 3.208M262.653 264.567c.402.313 1.032.891 1.581.757.777-.189 1.201-.578 2.106-.574 1.031.003 1.024 1.166-.007 1.163-.593-.003-1.237.397-1.823.54-1.028.25-1.817-.382-2.573-.972-.848-.664-.101-1.554.716-.914M269.125 259.597c0-.378-.496-.684-1.107-.684-.612 0-1.108.306-1.108.684 0 .376.496.683 1.108.683.611 0 1.107-.306 1.107-.683M262.428 259.675c0-.378-.496-.684-1.108-.684s-1.108.306-1.108.684c0 .376.496.683 1.108.683s1.108-.307 1.108-.683" style="fill-rule:evenodd;clip-rule:evenodd"/><path d="M258.285 469.165c.178-7.09.254-9.698 1.842-18.465 1.264-6.98 3.015-12.285 4.431-17.418.329-1.192-1.306-3.459-3.283-1.337-7.082 7.604-12.381 13.645-19.024 21.076-3.268 3.655-.931 5.994 1.951 3.084 4.175-4.217 7.96-8.203 12.026-12.538-2.221 6.967-7.028 19.783-7.603 29.906-.052.923 3.196 1.522 5.878.316 2.087-.937 3.752-3.456 3.782-4.624z" style="fill:none;stroke:#000;stroke-width:.0028;stroke-miterlimit:22.9256"/><path d="M258.355 469.171c.178-7.09.254-9.698 1.842-18.465 1.264-6.98 3.016-12.285 4.431-17.418.329-1.193-1.306-3.46-3.283-1.338-7.082 7.605-12.381 13.645-19.024 21.077-3.268 3.655-.931 5.995 1.951 3.084 4.175-4.217 7.961-8.203 12.027-12.538-2.222 6.967-7.028 19.783-7.603 29.907-.052.922 3.196 1.521 5.879.314 2.085-.937 3.751-3.455 3.78-4.623M355.358 468.863c.218-3.251.413-6.165 1.01-9.355 2.844-.025 5.695-.113 8.577-.308 1.61-.108-1.285-2.034-2.868-2.355-1.229-.25-3.325-.467-4.959-.654.786-2.966 2.114-6.286 3.978-10.353 1.25-2.727-.004-5.768-2.98-1.282-1.925 2.9-3.865 6.63-5.615 10.465-3.559-.483-6.94-.345-10.604-.531 2.901-3.726 9.908-13.263 13.214-20.487 1.802-3.936-6.647-5.28-8.092-1.229-4.205 11.783-4.933 16.205-11.267 24.071-.453.563-.518 2.33 1.228 2.355 4.697.072 9.295.228 13.879.289-1.539 4.019-2.841 8.548-3.727 13.684-.245 1.418 2.787 2.236 5.469 1.032 2.084-.936 2.728-4.174 2.757-5.342M270.135 474.19c5.19-.264 11.057-3.179 16.073-7.055 5.341-4.125 9.635-9.515 11.578-15.81 1.804-5.846.58-20.444-14.212-20.702-4.786-.082-9.372 1.928-12.284 5.067-3.406 3.671-4.757 7.916-4.897 10.679-.279 5.531 2.963 10.105 10.043 10.767 3.594.335 7.756-.828 11.822-5.163-2.222 6.967-8.056 13.846-19.485 19.151-1.485.689-1.296 3.287 1.362 3.066m12.685-40.286c-5.485.917-7.15 4.866-7.604 11.104-.351 4.811 2.261 7.263 4.934 6.987 5.237-.539 8.042-5.317 8.633-9.25.614-4.098-1.448-9.596-5.963-8.841M315.777 449.06c-3.24 2.901-7.579 2.067-10.216-.336-2.184-1.991-2.78-5.035-2.314-8.031.881-5.654 8.233-11.421 17.344-11.197 7.673.188 15.946 7.652 12.496 16.901-3.142 8.427-17.89 12.799-21.101 17.004 2.038 1.105 7.241 3.892 11.165 3.995 3.081.081 5.807-2.461 7.441-4.377.932-1.092 2.759-.284 1.536 1.572-2.364 3.591-5.891 10.146-10.82 10.282-9.212.256-8.676-5.769-13.828-6.044-1.69-.089-3.177 2.356-4.917 5.02-.9 1.377-3.2.094-2.971-1.537.382-2.704 2.052-4.852 4.876-7.798 7.22-7.532 19.841-15.734 21.04-23.239.706-4.418-2.849-8.169-5.941-8.092-5.159.129-8.414 3.692-9.015 7.683-.488 3.249 1.813 6.09 5.737 6.351.968.063.21 1.196-.512 1.843M226.14 446.441a5.905 5.905 0 1 1-.001 11.81 5.905 5.905 0 0 1 .001-11.81M376.52 446.441a5.904 5.904 0 1 1-.002 11.808 5.904 5.904 0 0 1 .002-11.808" style="fill-rule:evenodd;clip-rule:evenodd"/><path d="M223.588 443.146a5.905 5.905 0 1 1-.002 11.81 5.905 5.905 0 0 1 .002-11.81M257.256 465.875c.178-7.089.254-9.698 1.843-18.464 1.264-6.981 3.015-12.285 4.43-17.418.329-1.193-1.306-3.46-3.283-1.338-7.082 7.604-12.381 13.645-19.024 21.076-3.268 3.656-.931 5.995 1.95 3.085 4.175-4.217 7.961-8.203 12.027-12.538-2.221 6.967-7.028 19.783-7.603 29.906-.052.922 3.196 1.522 5.878.315 2.087-.936 3.754-3.456 3.782-4.624M269.036 470.895c5.191-.264 11.057-3.179 16.073-7.055 5.341-4.126 9.635-9.516 11.578-15.811 1.804-5.845.581-20.444-14.212-20.701-4.786-.083-9.372 1.927-12.284 5.067-3.406 3.671-4.757 7.915-4.897 10.678-.279 5.531 2.963 10.107 10.043 10.768 3.595.335 7.756-.828 11.822-5.163-2.221 6.967-8.056 13.845-19.485 19.151-1.485.689-1.296 3.286 1.362 3.066m12.686-40.287c-5.485.917-7.15 4.866-7.605 11.104-.351 4.813 2.262 7.263 4.934 6.988 5.237-.539 8.043-5.317 8.633-9.25.615-4.097-1.447-9.596-5.962-8.842M314.679 445.765c-3.239 2.901-7.579 2.067-10.216-.337-2.184-1.991-2.78-5.035-2.314-8.03.881-5.654 8.234-11.421 17.344-11.197 7.673.189 15.946 7.651 12.497 16.901-3.143 8.427-17.891 12.798-21.102 17.004 2.039 1.105 7.241 3.892 11.165 3.994 3.081.082 5.807-2.46 7.44-4.377.932-1.091 2.759-.284 1.537 1.572-2.365 3.592-5.892 10.146-10.821 10.282-9.212.257-8.675-5.77-13.828-6.043-1.689-.09-3.177 2.356-4.917 5.018-.9 1.378-3.2.094-2.97-1.536.382-2.704 2.052-4.852 4.876-7.799 7.219-7.531 19.84-15.733 21.039-23.238.706-4.418-2.849-8.169-5.941-8.092-5.159.129-8.414 3.692-9.014 7.683-.489 3.249 1.813 6.09 5.736 6.351.968.063.21 1.197-.511 1.844M354.26 465.568c.218-3.251.413-6.166 1.01-9.355a147 147 0 0 0 8.577-.308c1.611-.108-1.285-2.034-2.868-2.355-1.229-.25-3.324-.467-4.959-.655.787-2.965 2.114-6.285 3.978-10.353 1.25-2.727-.004-5.767-2.98-1.281-1.925 2.9-3.865 6.629-5.615 10.465-3.559-.484-6.939-.345-10.603-.532 2.901-3.725 9.909-13.263 13.214-20.486 1.802-3.936-6.647-5.28-8.092-1.229-4.205 11.784-4.933 16.206-11.268 24.072-.453.561-.518 2.329 1.229 2.355 4.697.072 9.294.228 13.878.289-1.538 4.019-2.841 8.547-3.727 13.684-.245 1.418 2.787 2.235 5.469 1.032 2.084-.937 2.727-4.175 2.757-5.343M373.968 443.146a5.904 5.904 0 1 1-.002 11.808 5.904 5.904 0 0 1 .002-11.808" style="fill-rule:evenodd;clip-rule:evenodd;fill:#fbdb66"/></svg>