<svg fill-rule="evenodd" height="841.89pt" viewBox="0 0 595.276 841.89" width="595.276pt" xmlns="http://www.w3.org/2000/svg"><path d="m14.1416 421.891c0-157.874 127.9854-285.858 285.8664-285.86 157.863.002 285.848 127.986 285.85 285.86-.002 157.885-127.987 285.855-285.85 285.857-157.881-.002-285.8664-127.972-285.8664-285.857z" fill="#662535"/><path d="m19.8589 421.891c.0019 77.373 31.3525 147.389 82.0541 198.092 50.706 50.699 120.725 82.045 198.096 82.047 77.36-.002 147.377-31.348 198.081-82.047 50.698-50.703 82.049-120.719 82.051-198.092-.002-77.367-31.353-147.384-82.051-198.09-50.706-50.702-120.721-82.052-198.081-82.052-77.371 0-147.39 31.35-198.096 82.052-50.7016 50.706-82.0522 120.723-82.0541 198.09z" fill="#fff"/><path d="m35.0039 421.888c0-146.353 118.6401-264.994 264.9921-264.994 146.353 0 265 118.641 265 264.994 0 146.355-118.647 264.998-265 264.998-146.352 0-264.9921-118.643-264.9921-264.998" fill="#662535"/><g fill="#fff"><path d="m265.65 446.226c20.001-1.637 45.88.878 67.366 13.272 7.114 4.114 7.917 4.629 2.614 12.243l-13.629 19.583c-3.895 5.592-4.811 5.046-11.478 2.054-23.061-10.349-47.41-11.478-67.729-1.493-26.774 10.856-46.047 39.152-43.062 68.418 2.228 31.001 28.592 55.888 58.07 62.305 30.887 7.515 65.653-7.145 82.282-33.978 3.743-6.031 5.076-7.501 12.478-4.689l21.364 8.128c12.364 4.697 7.985 9.743-3.348 26.212-21.864 27.865-56.645 45.168-92.162 45.199-18.697.378-37.554-2.273-54.676-10.122-41.645-17.394-71.509-62.373-66.744-107.964 3.523-43.796 37.433-81.646 78.942-93.994 9.53-3.516 19.591-4.924 29.712-5.174"/><path d="m140.715 423.581c-7.689 0-7.886-.189-7.879 8.819l.099 103.911c.007 9.423.257 9.288-8.766 9.302l-23.69.061c-8.939.016-8.5073-.053-8.5073-9.568 0 0 .3105-164.481.3105-238.429 0-9.463.023-9.69 10.2658-9.69h121.488c10.508 0 10.629-.098 10.674 8.682l.084 21.466c0 9.698.22 10.209-10.978 10.171l-82.957-.288c-8.053-.022-8.023-.098-8.023 6.966v39.107c0 8.459.243 8.595 9.251 8.629l81.487.246c10.447.031 10.833.038 10.848 8.402l.038 25.486c.008 5.757-.196 6.431-9.288 6.431z"/><path d="m391.669 364.148c0 10.121.03 9.86 5.546 2.845l60.865-72.21c5.113-5.94 4.5-5.917 11.645-5.917h32.553c7.19 0 6.652 3.848 3.735 7.182l-54.35 65.289c-3.924 4.709-4.098 5.027-.97 14.277l50.668 161.242c1.387 4.417.667 8.667-5.977 8.667l-23.433.045c-7.651.091-9.038-1.31-11.5-7.561l-40.198-130.066c-2.28-7.379-5.401-2.687-8.75 2.177l-16.25 19.554c-3.439 3.432-3.788 7.121-3.75 15.439l.401 91.472c.037 9.212-.06 9.076-9.682 9.076-9.894 0-20.371.091-20.371.091-10.751.045-10.963-.235-10.963-9.614 0-9.371.917-161.268 0-238.512-.099-8.705-.242-8.758 9.477-8.758 9.72 0 23.35-.481 23.35-.481 8.136 0 8.075.083 8.075 9.068z"/><path d="m309.56 180.459c6.562 0 6.577.481 6.577 9.371v218.751c0 14.833.303 14.849-6.955 14.856l-27.137.03c-5.614.008-5.78-.113-5.795-8.557l-.289-180.894c-.015-11.06.766-13.902-5.56-7.72l-39.781 38.869c-4.289 4.189-4.667 4.087-8.41 4.094l-12.046.031c-3.204.007-10.015 0-3.81-5.955l80.805-77.611c5.174-5.167 5.394-5.11 9.735-5.39z"/></g></svg>