<svg xmlns="http://www.w3.org/2000/svg" width="800" height="600" viewBox="0 0 800 600"><path fill="#e22528" d="M372.41 34.466c-138.107 0-250.042 111.935-250.042 250.012 0 138.041 111.935 249.988 250.041 249.988 138.026 0 249.959-111.947 249.959-249.988 0-138.077-111.933-250.012-249.959-250.012"/><g fill="#fff"><path d="M306.67 89.88v39.993l25.066-14.002v101.44h68.296V60.584h-49.799z"/><path d="M366.423 352.98c18.327 0 34.188 12.19 40.672 29.28h57.312v-46.866l46.655 46.866h78.273l-78.752-82.776 78.456-82.173h-77.977l-46.655 46.808V217.31h-64.375v95.583c-10.81-2.701-22.502-4.296-34.488-4.296-11.79 0-23.202 1.382-33.806 4.197V279.5h-97.13l.1-24.195h97.03v-37.995H173.826V382.26h60.782v-66.563h87.049C280.557 329.777 252 362.566 252 400.46c0 50.477 50.979 91.662 113.546 91.662 54.773 0 100.674-31.685 111.231-73.558h-69.733c-6.737 17.09-22.524 29.257-40.62 29.257-24.184 0-43.992-21.391-43.992-47.463 0-26.102 19.808-47.377 43.991-47.377"/></g></svg>