<svg xmlns="http://www.w3.org/2000/svg" viewBox="0 0 600 600"><path fill="#0a0a08" d="M590.872 173.95c.666.183 1.902.943 1.482 2.402-4.439 15.393-35.876 122.6-56.534 165.984-82.824 173.929-175.02 208.18-233.528 208.18S151.59 516.265 68.766 342.336C48.107 298.952 16.67 191.744 12.232 176.352c-.42-1.46.816-2.22 1.482-2.402l288.58-79.05z"/><g fill="#f2ac25"><path d="m143.814 338.266-35.697 14.542c5.933 17.343 12.61 24.987 27.888 18.763 15.928-6.491 15.41-16.837 7.81-33.305m20.321 6.94c8.197 19.354-3.44 36.872-20.833 43.474-15.705 5.96-36.25 4.735-45.092-17.258l-11.859-29.503 65.03-26.82zM204.772 400.095a67 67 0 0 0-1.368-1.56l-18.47-20.261-54.727 45.603 10.141 12.15 19.27-16.176a139 139 0 0 0 3.73 4.272l-2.736 30.91 15.398 14.503 2.89-31.774c12.285 7.725 21.647 5.586 29.136-.706 8.423-7.072 10.414-20.96-3.264-36.961m-16.126 6.313c9.881 11.788 9.447 16.255 6.845 18.589-4.296 3.854-8.254 2.007-23.95-15.15l11.54-9.666c2.132 2.273 3.99 4.35 5.565 6.227M228.7 432.758l43.407 26.186-7.162 12.4-28.008-17.015-6.442 10.605 25.108 15.253-7.324 12.054-25.106-15.253-6.994 11.512 29.004 17.62-8.095 13.325-44.322-26.928zM310.886 487.188l18.3-.302c-1.053-14.098-9.899-22.047-29.25-22.047-19.348 0-27.897 10.95-27.897 20.997 0 10.05 3.15 17.4 27.897 22.65 12.687 2.689 13.5 5.1 13.5 8.847 0 3.75-4.8 6.3-11.55 6.3s-12.599-2.477-12.599-10.197l-18.449.448s-2.699 24 30.6 24c24.444 0 30.596-12.9 30.596-22.8s-5.003-18.59-24.148-21.896c-14.72-2.544-17.249-4.951-17.249-8.4s2.85-5.698 9.148-5.698c6.302-.002 11.101 3.297 11.101 8.098M492.712 399.435l7.07-15.897-40.016-17.801 49.875-4.735 7.62-17.131-64.272-28.59-7.069 15.898 39.055 17.37-48.914 5.165-7.82 17.205zM353.771 464.674l20.565 32.603c16.036-8.874 22.396-16.786 13.594-30.74-9.176-14.547-19.272-12.227-34.159-1.863m3.285-21.223c17.618-11.455 36.901-3.062 46.444 12.91 8.615 14.42 11.004 34.862-9.107 47.413L367.42 520.61l-37.78-59.337zM385.907 418.156l33.86-37.731 10.838 9.36-21.966 24.322 9.21 8.317 19.69-21.804 10.468 9.454-19.69 21.802 9.997 9.028 22.745-25.186 11.57 10.448-34.758 38.487zM560.438 190.296l-45.022 133.45a1.81 1.81 0 0 0 1.146 2.29l5.984 2.02a1.81 1.81 0 0 0 2.3-1.128l45.024-133.45a1.81 1.81 0 0 0-1.148-2.29l-5.984-2.018a1.804 1.804 0 0 0-2.3 1.126m-14.298-4.824-45.023 133.45a1.81 1.81 0 0 0 1.15 2.29l5.98 2.017a1.806 1.806 0 0 0 2.301-1.127l45.023-133.448a1.807 1.807 0 0 0-1.148-2.29l-5.982-2.02a1.81 1.81 0 0 0-2.3 1.128m-14.3-4.824-45.022 133.45a1.81 1.81 0 0 0 1.148 2.289l5.984 2.019a1.81 1.81 0 0 0 2.301-1.126l45.023-133.45a1.81 1.81 0 0 0-1.149-2.29l-5.983-2.018a1.81 1.81 0 0 0-2.302 1.126m-14.297-4.824-45.022 133.45a1.805 1.805 0 0 0 1.148 2.289l5.982 2.02a1.81 1.81 0 0 0 2.301-1.127l45.022-133.45a1.807 1.807 0 0 0-1.148-2.29l-5.982-2.018a1.81 1.81 0 0 0-2.3 1.126M503.245 171l-45.022 133.448a1.807 1.807 0 0 0 1.147 2.29l5.985 2.02a1.807 1.807 0 0 0 2.3-1.127l45.022-133.45a1.81 1.81 0 0 0-1.146-2.29l-5.984-2.018a1.807 1.807 0 0 0-2.302 1.127M44.146 190.296l45.023 133.45a1.81 1.81 0 0 1-1.148 2.29l-5.983 2.02a1.81 1.81 0 0 1-2.3-1.128l-45.023-133.45a1.81 1.81 0 0 1 1.147-2.29l5.983-2.018a1.805 1.805 0 0 1 2.301 1.126m14.298-4.824 45.022 133.45a1.81 1.81 0 0 1-1.147 2.29l-5.983 2.017a1.804 1.804 0 0 1-2.299-1.127L49.013 188.654a1.807 1.807 0 0 1 1.147-2.29l5.983-2.02a1.807 1.807 0 0 1 2.301 1.128m14.298-4.824 45.023 133.45a1.806 1.806 0 0 1-1.148 2.289l-5.983 2.019a1.81 1.81 0 0 1-2.3-1.126L63.311 183.83a1.805 1.805 0 0 1 1.146-2.29l5.983-2.018a1.807 1.807 0 0 1 2.301 1.126m14.298-4.824 45.022 133.45a1.805 1.805 0 0 1-1.147 2.289l-5.983 2.02a1.806 1.806 0 0 1-2.299-1.127L77.61 179.006a1.81 1.81 0 0 1 1.148-2.29l5.983-2.018a1.806 1.806 0 0 1 2.3 1.126M101.338 171l45.022 133.448a1.81 1.81 0 0 1-1.148 2.29l-5.982 2.02a1.81 1.81 0 0 1-2.3-1.127l-45.023-133.45a1.81 1.81 0 0 1 1.147-2.29l5.984-2.018a1.806 1.806 0 0 1 2.3 1.127"/></g><path fill="#931a1d" d="M458.114 93.149c18.387 8.503 27.829 20.66 31.049 26.039 16.157 26.995-23.864 146.357-71.802 224.838-35.426 58-76.208 102.476-115.07 102.476-38.858 0-79.642-44.475-115.07-102.476-47.936-78.48-87.957-197.843-71.8-224.838 3.22-5.38 12.663-17.537 31.049-26.04 45.323-20.96 113.06-31.463 155.822-31.463s110.5 10.503 155.822 31.464"/><path fill="none" stroke="#fdfeff" stroke-width="5.543" d="M182.004 286.242c-32.523-66.158-50.656-139.001-43.795-150.885 16.236-28.12 103.022-47.03 164.083-47.33s147.85 18.61 164.085 46.73c6.86 11.884-11.273 84.728-43.796 150.886-29.923 60.866-81.647 135.887-120.29 136.186-38.645.299-90.364-74.72-120.287-135.587z"/><path fill="#fdfeff" d="M314.51 98.68a27 27 0 0 0-2.991.156c-16.142 1.649-42.94 14.36-56.143 31.944-15.92 4.864-30.514 11.649-42.47 19.58-35.29 23.413-40.815 47.962-42.297 53.69-1.132 4.377-.882 6.759 4.5 3.228 6.892-4.52 31.152-24.032 58.858-33.791 2.139-.753 3.518.19 3.357 1.614-2.015 17.764-1.184 42.39 1.068 54.147 4.049 21.148 9.165 57.592 2.479 80.883-6.346 22.11-10.02 23.942-12.218 29.804-.993 2.645.334 3.746 4.2 2.178 10.299-4.181 36.735-2.63 66.432 8.318 27.034 9.969 51.98 1.733 68.48-10.865 20.742-15.838 47.35-60.941 51.509-102.522 5.808-58.03-24.864-90.85-61.193-105.292-18.877-7.504-39.717-9.957-60.277-8.714 2.204-5.037 6.917-12.751 16.64-19.476 5.123-3.542 3.868-4.84.066-4.882m-14.712 60.29c11.066-.061 21.537 1.693 33.087 5.629 21.992 7.499 36.45 22.622 43.806 43.794 9.645 27.765 9.148 54.857 1.94 72.443-7.186 17.546-22.486 32.102-41.837 32.102-7.07 0-13.975-4.384-35.997-5.826-12.934-.85-19.24.012-19.24.012s9.434-18.98 10.552-44.016c1.354-30.343-2.884-63.123-6.444-81.315-1.668-8.523.158-16.671 5.302-22.402 3-.258 5.94-.405 8.83-.421"/></svg>