<svg height="1000" viewBox="0 0 1000 1000" width="1000" xmlns="http://www.w3.org/2000/svg"><g transform="matrix(4.3981481 0 0 4.3981481 -697.10647 336.45833)"><path d="m158.5 31.5c0 59.553 48.447 108 108 108 59.549 0 108-48.447 108-108s-48.451-108-108-108c-59.553 0-108 48.447-108 108" fill="#e04145"/><path d="m162.061 31.5c0-57.589 46.85-104.44 104.439-104.44 57.59 0 104.439 46.851 104.439 104.44 0 57.585-46.85 104.439-104.439 104.439s-104.439-46.854-104.439-104.439" fill="#fff"/><path d="m166.801 31.5c0 54.973 44.722 99.699 99.699 99.699 54.973 0 99.699-44.727 99.699-99.699 0-54.973-44.727-99.699-99.699-99.699-54.977 0-99.699 44.726-99.699 99.699" fill="#e04145"/><path d="m183.591 31.5c0-45.715 37.195-82.909 82.909-82.909 45.719 0 82.909 37.194 82.909 82.909s-37.19 82.908-82.909 82.908c-45.714 0-82.909-37.193-82.909-82.908" fill="#fff"/><path d="m307.59 35.928c3.502 1.338 12.152 5.452 26.5 5.953 9.68.34 13.503-5.69 10.315-6.723-1.271-.416-28.889-8.224-28.889-8.224s-3.418-1.338-.858-1.611c2.564-.268 14.048-.161 18.937-2.165 5.979-2.45 7.035-7.848 5.635-7.773-12.018.617-23.293.403-24.008.322-.068-.009-.135-.018-.205-.026 0 0-1.33-.448-.14-1.499 1.311-1.154 9.974-8.377 11.799-10.22 4.767-4.795 1.525-11.803.727-11.047-7.955 7.585-18.238 13.449-18.85 13.569-.608.117-.442-1.319.044-2.352.479-1.028 3.207-4.159 4.088-7.443 2.321-8.703 1.728-14.186-3.184-16.275-.886-.376-1.217.12-2.371 2.817-1.152 2.698-1.602 7.42-5.993 9.254-2.245.931-6.405 4.768-6.463 6.307-.067 1.529.854 3.932-.331 4.741-.94.653-2.535-.488-3.936.671-1.396 1.158-5.452 5.26-6.87 6.315-1.413 1.055-4.226 2.764-5.984 1.789-3.868-3.811-1.989-15.01-1.989-15.01s1.318.282 2.746.071c3.912-.572 4.164-5.21 3.617-5.823-.416.501-1.225 1.257-3.256 1.449-1.579.148-1.99-.501-2.335-1.9-.331-1.311-.56-2.152.112-4.495.676-2.344 3.051-3.49 4.406-4.58 1.351-1.087.648-5.18.648-5.18s-.532 1.203-1.483 2.102c-1.303 1.217-3.078.872-6.867.635-3.783-.241-5.362-1.673-5.952-2.401-.595-.73-5.564-.193-6.991-.13-1.431.067-7.509 1.221-9.777 2.075-2.267.859-5.403 2.165-6.239 2.854-.832.693-.546 1.315-.546 1.315l.76 2.062s2.809-1.968 5.582-2.71c2.773-.744 3.1.522 3.457 1.716.394 1.333.488 1.678.64 2.618-1.038.442-5.139.787-8.838.589-4.298-.232-4.544-2.12-4.481-3.229.022-.402-1.253.022-1.744 1.109-.859 1.914-1.114 5.153 7.706 5.033 3.506-.05 6.771-1.347 7.795-1.727.698 2.321-.093 2.697-1.082 2.871-4.249.733-6.432-.376-6.432-.376s-.599 1.91-.16 2.241c2.545 1.928 7.719 1.937 8.631 1.861.922-.08 1.655-.671 2.156-.255.497.425 1.155 2.598 1.235 3.314.085.716-.134 1.221-2.277 1.163-2.137-.053-2.951.027-2.862.439.094.411 2.388 2.2 2.786 2.62.399.421 2.599-1.883 2.599-1.883s-.108.317.072 1.239c.178.921.795 8.216-3.74 10.323-1.758.975-4.571-.734-5.989-1.789-1.417-1.055-5.474-5.157-6.869-6.315-1.401-1.159-2.992-.018-3.936-.671-1.186-.809-.264-3.212-.327-4.741-.062-1.539-4.218-5.376-6.463-6.307-4.387-1.834-4.843-6.556-5.997-9.254-1.15-2.697-1.485-3.193-2.371-2.817-4.911 2.089-5.501 7.572-3.18 16.275.876 3.284 3.605 6.415 4.083 7.443.488 1.033.654 2.469.045 2.352-.608-.12-10.891-5.984-18.852-13.569-.796-.756-4.034 6.252.729 11.047 1.829 1.843 10.489 9.066 11.804 10.22 1.189 1.051-.144 1.499-.144 1.499-.067.008-.138.017-.201.026-.72.081-11.991.295-24.009-.322-1.4-.075-.349 5.323 5.636 7.773 4.888 2.004 16.374 1.897 18.937 2.165 2.558.273-.864 1.611-.864 1.611s-27.618 7.808-28.884 8.224c-3.193 1.033.631 7.063 10.31 6.723 14.348-.501 22.993-4.615 26.5-5.953 3.502-1.337 1.418 1.127.671 1.65-5.198 3.65-20.48 14.044-27.708 18.688-1.033.666-1.185 1.403-.014 2.647 5.667 6.025 16.379-.872 20.619-3.229 4.947-2.754 16.719-11.638 17.631-10.672.358.377-.317 3.699-7.576 11.473 1.033 1.037 2.428 2.07 2.428 2.07s-3.475 4.204-5.85 6.807c-.961 1.057-3.198 3.274-3.806 3.158-.609-.117-3.739-3.498-4.804-3.556-.671-.034-2.111.997-3.188.39-.645-.367-2.648-.17-4.299.599-1.65.778-1.346 4.661-.894 2.938.451-1.722 3.748-1.668 5.398.242.524.598 2.111 1.784 3.127 2.016 1.015.238 1.511.556 1.1.851-.381.269-3.136.926-5.394 2.55-.483.818-.22 1.118-.407 1.52-2.518.896-3.113 1.668-2.331 4.188.072.241.037.301.814 1.869.372-.688.184-2.907 2.555-3.426.25-.053.666.3 1.108.3.984 0 4.545-2.065 5.175-2.862.631-.801.488.456.076 1.221-1.99 3.677-1.252 5.927-1.077 5.994.456.17.702-.17 1.006.537 1.23 3.586 4.848 5.752 4.249 5.12-.595-.626-1.467-5.385-1.096-5.569.371-.183.666.082 1.114-.183.443-.26.988-2.325.961-2.965-.067-1.53-.899-2.004-.876-2.921.022-.917.662-1.923.662-1.923s1.06 2.062 1.963 3.01c1.839 1.944 1.507 2.39 3.434 1.61.385-.152 2.956 4.061 2.956 4.061s.931-2.245.511-3.855c-.188-.725-.891-1.045-1.383-1.668-.496-.631.877-1.426.211-2.42-3.722-3.56-4.071-2.338-5.028-4.66-.639-1.565.618-2.627 1.914-4.195 3.261-3.923 3.369-3.887 5.296-6.182.801.533 1.262 1.039 2.37 1.853 3.628-5.332 6.736-10.136 10.136-11.394 3.399-1.256 4.933.735 4.839 2.797-.166 3.636-7.451 11.459-7.451 11.459-3.306 3.695-5.721 5.654-7.098 8.055h.004-.004c-.573.997-.967 2.063-1.177 3.363-.219 1.347.023 3.283.313 4.857v.006c.282 1.52.604 2.709.604 2.709s1.096-3.904 1.342-4.375c.689-1.332.836 0 1.874 2.613 1.037 2.62 3.225 5.922 3.225 5.922l-.036-6.691c.112-1.735.228-4.07 1.006-2.336.778 1.733 3.305 5.467 3.305 5.467s.036-1.359.135-3.01h-.018l.018-.006c.094-1.511 1.274-7.053 1.9-8.192h-.035l.035-.011c.533-.982 2.894-5.106 5.766-5.541 2.867-.433 3.113 4.675 2.911 5.774-.38 2.097-1.149 4.536-1.574 5.394-.268.547-2.527 4.796-2.813 5.601-3.06 8.543 3.328 13.722 3.336 13.319.009-.411.761-6.307 1.731-7.723.577-.847 1.382-1.393 1.972-.565.828 1.177 2.644 5.157 5.225 7.896v.008c0-.008 0-.008.004-.008v.008-.008c2.585-2.738 4.396-6.719 5.225-7.896.594-.827 1.399-.281 1.971.565.972 1.416 1.723 7.312 1.732 7.723.015.402 6.396-4.776 3.337-13.319-.285-.805-2.539-5.054-2.809-5.601-.426-.857-1.203-3.297-1.579-5.394-.201-1.1.054-6.207 2.921-5.774 2.863.435 5.228 4.559 5.762 5.541l.03.011h-.03c.621 1.14 1.801 6.682 1.896 8.192l.022.006h-.022c.099 1.65.139 3.01.139 3.01s2.522-3.734 3.302-5.467c.777-1.734.902.601 1.006 2.336l-.031 6.691s2.182-3.302 3.22-5.922c1.037-2.613 1.185-3.945 1.878-2.613.242.471 1.338 4.375 1.338 4.375s.321-1.189.604-2.709h-.004l.004-.006c.291-1.574.537-3.511.314-4.857-.212-1.301-.604-2.366-1.173-3.363h-.009.009c-1.383-2.4-3.793-4.359-7.103-8.055 0 0-7.286-7.823-7.447-11.459-.094-2.062 1.439-4.053 4.835-2.797 3.399 1.258 6.513 6.062 10.14 11.394 1.105-.813 1.565-1.319 2.366-1.853 1.929 2.295 2.039 2.259 5.3 6.182 1.293 1.568 2.549 2.63 1.909 4.195-.957 2.322-1.301 1.101-5.026 4.66-.662.994.707 1.789.215 2.42-.492.623-1.199.943-1.387 1.668-.416 1.61.51 3.855.51 3.855s2.572-4.213 2.961-4.061c1.923.779 1.593.334 3.435-1.61.899-.948 1.964-3.01 1.964-3.01s.635 1.006.661 1.923c.022.917-.813 1.391-.876 2.921-.027.64.52 2.705.967 2.965.442.265.737 0 1.104.183.371.185-.501 4.943-1.093 5.569-.594.632 3.02-1.534 4.25-5.12.305-.707.551-.367 1.002-.537.175-.067.916-2.317-1.069-5.994-.42-.765-.564-2.021.067-1.221.631.797 4.195 2.862 5.175 2.862.442 0 .862-.353 1.112-.3 2.367.519 2.184 2.738 2.556 3.426.776-1.568.741-1.628.814-1.869.778-2.52.188-3.292-2.334-4.188-.184-.401.075-.701-.404-1.52-2.262-1.624-5.017-2.281-5.397-2.55-.411-.295.091-.612 1.105-.851 1.011-.231 2.603-1.418 3.121-2.016 1.651-1.91 4.949-1.964 5.399-.242.456 1.723.761-2.16-.89-2.938-1.655-.769-3.649-.966-4.299-.599-1.073.607-2.523-.424-3.185-.39-1.069.058-4.194 3.438-4.808 3.556-.613.116-2.85-2.102-3.81-3.158-2.375-2.602-5.85-6.807-5.85-6.807s1.395-1.033 2.428-2.07c-7.259-7.774-7.934-11.096-7.572-11.473.908-.966 12.685 7.918 17.627 10.672 4.24 2.356 14.957 9.254 20.623 3.229 1.168-1.243 1.024-1.981-.017-2.647-7.229-4.643-22.511-15.037-27.704-18.688-.752-.523-2.841-2.987.661-1.65" fill="#e04145"/><path d="m279.904-38.805c-.098 0-7.881 3.327-8.582 3.856-1.352-1.163-5.287-4.665-5.739-5.064v-.035s-.004.004-.018.018c-.013-.014-.022-.018-.022-.018v.035c-.443.399-4.383 3.901-5.734 5.064-.702-.529-8.484-3.856-8.587-3.856 0 0 2.187 3.265 3.547 5.51 1.386 2.299 1.077 5.435 1.077 5.435h19.433s-.303-3.136 1.082-5.435c1.362-2.245 3.543-5.51 3.543-5.51" fill="#e04145"/><g fill="#fff"><path d="m259.201-18.034c.031.761.93 3.488.93 3.488l5.014-4.052s-2.764-.948-5.944.564"/><path d="m299.15 13.762c5.608-4.929 3.762-9.058 3.762-9.058h-.014s-4.356 1.191-4.599 8.647c-4.401-3.494-7.55-2.663-7.55-2.663l-.004.01s.975 2.92 6.779 4.016c-6.112 10.722-11.909 12.139-16.355 12.926-.021.398.148.797 0 2.371 3.52 0 10.766-2.63 17.44-14.778 4.477 3.73 7.401 2.684 7.401 2.684l.009-.01c.001 0-1.363-2.97-6.869-4.145"/><path d="m256.575 20.162c.166 4.974.68 9.289 1.387 13.015 1.574 8.23 4.115 13.552 6.047 16.652 1.337 2.142 2.267 3.216 2.469 3.435v.045s.009-.009.022-.023c.009.014.018.023.018.023s0-.019.004-.05c.211-.233 1.137-1.301 2.464-3.43 1.933-3.101 4.478-8.422 6.048-16.652.711-3.726 1.221-8.041 1.386-13.015-.063.071-19.782.071-19.845 0"/><path d="m251.826 27.64c-4.446-.787-10.234-2.204-16.352-12.926 5.8-1.096 6.776-4.016 6.776-4.016l-.005-.01s-3.148-.831-7.55 2.663c-.241-7.456-4.597-8.647-4.597-8.647h-.014s-1.843 4.129 3.766 9.058c-5.51 1.175-6.87 4.146-6.87 4.146v.01s2.93 1.046 7.407-2.684c6.673 12.148 13.919 14.778 17.439 14.778-.148-1.575.027-1.974 0-2.372"/></g><path d="m265.574 27.121h5.662v-2.594h-9.508v16.903h10.243v-2.599h-6.397v-4.938h5.707v-2.603h-5.707z" fill="#e04145"/></g></svg>