<svg xmlns="http://www.w3.org/2000/svg" width="1000" height="1000" viewBox="0 0 1000 1000"><path fill="#fff" stroke="#000" stroke-width="21.110205" d="M475.01 939.444c256.5 0 464.445-207.945 464.445-464.445 0-256.503-207.945-464.443-464.445-464.443-256.51 0-464.454 207.94-464.454 464.443 0 256.5 207.945 464.445 464.454 464.445z"/><path d="M793.5 346.95c-25.334-17.592-35.887-45.74-39.403-57.701-5.607-19.062-7.043-51.371-17.6-74.593-11.47-25.24-35.18-46.444-64.036-46.444-15.155 0-28.134 6.209-37.084 12.109-8.5-17.77-63.828-92.332-153.616-92.332v-.03c-89.798 0-145.125 74.56-153.628 92.338-8.944-5.902-21.92-12.115-37.085-12.115-28.846 0-52.564 21.208-64.033 46.442-10.557 23.224-11.983 55.538-17.59 74.597-3.522 11.961-14.075 40.111-39.407 57.704 0 0 74.585 69.668 83.032 164.668 0 74.583-66.163 171.415-66.163 171.415 29.789 8 49.23 30.922 56.59 41.001 11.718 16.041 23.978 45.967 41.757 64.26 19.321 19.88 48.803 31.831 75.96 22.08a60 60 0 0 0 6.817-2.951c29.6 38.003 98.384 45.027 113.748 80.669v.034c15.353-35.65 84.138-42.668 113.743-80.677a61 61 0 0 0 6.813 2.96c27.155 9.746 56.637-2.21 75.967-22.083 17.78-18.29 30.041-48.227 41.753-64.266 7.353-10.068 26.8-32.993 56.588-41.001 0 0-66.163-96.823-66.163-171.416 8.452-95 83.04-164.668 83.04-164.668M392.296 766.136c-4.056-.357-7.75-1.511-10.464-4.026-.678-10.209 3.07-30.653 23.403-44.331.587 2.175 1.054 4.32 1.227 6.333 1.586 17.893-5.466 31.821-14.166 42.024m57.091-24.425c-7.033 3.513-19.701 10.553-27.443 16.177-2.284 1.667-5.928 3.473-10.094 5.016 13.507-21.944 20.006-44.434 21.366-58.099 17.936-5.827 37.862-7.38 36.583 14.374-.95 16.165-13.368 19.001-20.412 22.532m28.681 103.26c-5.056-3.942-7.566-5.78-6.457-10.894 2.63-12.088 19.126-12.329 28.667-10.73 1.219 15.07-11.77 29.765-22.21 21.624m36.065-103.245c-7.035-3.514-19.454-6.348-20.41-22.513-1.277-21.76 18.645-20.203 36.58-14.38 1.36 13.674 7.869 36.152 21.376 58.105-4.165-1.55-7.81-3.355-10.1-5.016-7.749-5.639-20.413-12.666-27.446-16.196m75.826 53.635c-2.639 4.752-4.752 8.445-17.42 17.945-7.191 5.394-14.777 7.39-17.417 10.028-2.639 2.638-11.61 4.75-10.556 1.055 1.057-3.693 12.09-7.456 19.002-12.142 14.777-10.025 18.472-16.888 24.275-20.582 3.486-2.208 4.681-.923 2.116 3.696m-32.904-71.215c.182-2.013.643-4.156 1.228-6.342 20.346 13.683 24.09 34.114 23.405 44.34-2.707 2.508-6.408 3.663-10.457 4.026-8.7-10.211-15.75-24.133-14.176-42.024M684.43 510.918s-7.741 76.005 59.764 172.491c-21.541 6.3-42.897 22.067-56.284 34.331-22.282 20.408-38.14 52.108-64.059 65.98-5.581 2.992-12.228 4.717-18.15 4.645 2.17-6.575 3.43-13.823 3.43-21.994 0-29.448-19.092-50.05-44.952-63.211 10.77-20.807 30.504-42.741 37.211-47.277 23.93-16.178-10.557-42.223-32.37-26.043-11.24 8.346-30.431 30.42-37.646 61.23-16.64-4.256-33.92-6.344-49.61-6.344v-.015c-15.701 0-32.971 2.08-49.62 6.333-7.22-30.81-26.398-52.893-37.649-61.224-21.81-16.194-56.29 9.847-32.367 26.026 6.713 4.543 26.44 26.481 37.206 47.288-25.86 13.161-44.95 33.76-44.95 63.198 0 8.18 1.26 15.428 3.44 22.003-5.93.066-12.57-1.648-18.162-4.651-25.91-13.872-41.778-45.563-64.06-65.973-13.382-12.272-34.742-28.04-56.28-34.332 67.505-96.492 59.772-172.493 59.772-172.493s-1.43-103.561-78.682-175.272c18.147-13.195 32.929-35.255 41.381-51.324 14.075-26.739 18.297-61.922 37.999-83.738s61.223-9.849 61.223-9.849 79.1-63.337 140.745-63.337v.026c61.64 0 140.734 63.33 140.734 63.33s41.522-11.96 61.224 9.855c19.71 21.813 23.93 57 37.998 83.74 8.461 16.063 23.23 38.125 41.38 51.323-77.238 71.715-78.666 175.278-78.666 175.278M567.2 656.786c1.918-8.972 10.555-25.333 22.512-21.113 8.658 3.063 2.111 18.3-15.48 29.559-5.86 3.759-9.143 1.41-7.032-8.446m-176.923 8.924c-17.588-11.266-24.13-26.506-15.477-29.556 11.966-4.222 20.6 12.136 22.52 21.11 2.112 9.846-1.173 12.188-7.043 8.446"/><path fill="none" stroke="#000" stroke-width="12.666123" d="M44.334 474.999c0-237.47 193.2-430.67 430.676-430.67 237.467 0 430.667 193.198 430.667 430.67 0 237.467-193.198 430.67-430.667 430.67-237.476 0-430.676-193.203-430.676-430.67z"/><path fill="none" stroke="#000" stroke-width="29.5564215" d="M481.765 750.153v-159.04"/><path fill="none" d="M481.765 155.516V114"/><g stroke="#000"><path fill="#00a651" stroke-linejoin="round" stroke-width="12.666123" d="M481.765 195.627s-9.336 32.639-28.856 22.521c-37.998-19.705 28.856-71.076 28.856-80.927 0 9.85 64.735 59.815 28.144 80.927-13.369 7.71-28.144-22.52-28.144-22.52zM421.19 248.223s18.87 24.615-5.483 30.81c-31.766 8.077-19.1-58.774-30.355-72.848 13.369 13.37 77.412 7.741 66.605 40.277-6.781 20.458-30.767 1.761-30.767 1.761z"/><path fill="#00a651" stroke-linejoin="round" stroke-width="12.666123" d="M391.745 321.37s1.979 29.71-21.168 19.922c-30.182-12.764 11.257-59.109 24.632-77.406-.71 24.628 42.923 54.889 19 73.184-17.12 13.1-22.464-15.7-22.464-15.7zM308.026 290.96s.65 27.232-18.605 20.15c-36.638-13.469 12.83-60.711 9.962-78.5 5.048 18.22 55.962 45.652 30.536 68.651-15.979 14.46-21.893-10.3-21.893-10.3zM290.798 363.977s22.777-17.754 29.11 4.062c8.7 29.969-48.557 17.588-65.913 37.138 3.99-25.176-1.567-74.402 32.135-68.105 21.187 3.957 4.668 26.905 4.668 26.905z"/><path fill="#00a651" stroke-linejoin="round" stroke-width="12.666123" d="M344.146 403.043s17.656-20.31 25.729.884c11.255 29.556-44.334 33.071-59.738 35.571 2.032-20.092 1.154-70.985 30.884-62.315 16.888 4.929 3.125 25.86 3.125 25.86zM352.615 499.992s5.294 26.38-13.705 23.562c-36.146-5.355-3.522-48.555-.705-65.443 11.96 11.964 58.402 28.852 43.685 51.533-11.742 18.075-29.275-9.652-29.275-9.652zM413.037 437.19s24.465-12.386 21.953 7.207c-3.183 24.785-33.779 20.504-51.047 27.787-7.033-30.257 4.85-69.758 27.083-54.876 10.751 7.193 2.01 19.883 2.01 19.883zM435.73 531.608s-2.723 22.756-18.01 10.241c-19.332-15.823-2.111-42.222 8.444-58.404 9.152 15.482 53.486 38.705 27.494 56.987-10.578 7.45-17.927-8.824-17.927-8.824zM375.062 591.022s23.66-16.092 25.072 3.603c1.78 24.929-34.498 25.861-49.975 36.416-10.55-28.666-4.32-67.001 20.418-56.818 11.964 4.93 4.485 16.799 4.485 16.799zM303.82 579.583s22.629-17.524 25.243 2.06c3.315 24.764-26.57 33.565-47.633 39.42-12.295-27.975-5.857-63.732 16.873-57.973 12.542 3.18 5.518 16.493 5.518 16.493zM542.325 248.253s-18.867 24.615 5.486 30.81c31.766 8.077 19.097-58.774 30.355-72.853-13.367 13.375-77.402 7.744-66.607 40.28 6.794 20.457 30.766 1.763 30.766 1.763z"/><path fill="#00a651" stroke-linejoin="round" stroke-width="12.666123" d="M571.783 321.398s-1.98 29.715 21.162 19.926c30.19-12.764-11.255-59.11-24.624-77.406.703 24.626-42.93 54.889-19.001 73.186 17.12 13.093 22.463-15.706 22.463-15.706zM655.503 290.99s-.662 27.23 18.593 20.148c36.643-13.471-12.822-60.712-9.953-78.5-5.056 18.22-55.97 45.646-30.547 68.651 15.984 14.461 21.907-10.299 21.907-10.299zM672.73 364.005s-22.785-17.753-29.12 4.062c-8.699 29.968 48.555 17.593 65.923 37.134-3.993-25.172 1.56-74.396-32.145-68.097-21.185 3.955-4.658 26.901-4.658 26.901z"/><path fill="#00a651" stroke-linejoin="round" stroke-width="12.666123" d="M619.374 403.07s-17.65-20.307-25.72.886c-11.266 29.555 44.333 33.074 59.727 35.574-2.028-20.094-1.146-70.987-30.882-62.317-16.89 4.925-3.125 25.858-3.125 25.858zM610.905 500.02s-5.296 26.38 13.707 23.567c36.146-5.358 3.52-48.558.709-65.446-11.964 11.96-58.41 28.85-43.68 51.526 11.73 18.082 29.264-9.647 29.264-9.647zM550.492 437.218s-24.476-12.386-21.962 7.206c3.193 24.786 33.787 20.504 51.047 27.79 7.035-30.257-4.84-69.758-27.072-54.88-10.756 7.197-2.013 19.884-2.013 19.884zM527.79 531.636s2.719 22.753 18.006 10.243c19.34-15.823 2.113-42.222-8.442-58.406-9.146 15.481-53.478 38.705-27.494 56.989 10.58 7.447 17.93-8.826 17.93-8.826zM588.467 591.045s-23.668-16.09-25.079 3.612c-1.773 24.922 34.496 25.85 49.973 36.408 10.55-28.664 4.323-67.004-20.418-56.81-11.956 4.925-4.476 16.79-4.476 16.79zM659.708 579.609s-22.628-17.527-25.254 2.06c-3.306 24.762 26.57 33.57 47.642 39.409 12.287-27.958 5.845-63.713-16.88-57.958-12.544 3.176-5.508 16.489-5.508 16.489z"/><path fill="none" stroke-linecap="round" stroke-width="16.888164" d="M481.765 591.114v-267.41M481.765 452.482l-77.412-78.112-32.367-1.409-56.3-39.407M481.765 608l-45.746-35.89-34.479-8.442-33.076-23.223h-40.391M481.765 452.51l77.401-78.108 32.377-1.413 56.29-39.407M481.765 608.034l45.734-35.892 34.487-8.442 33.068-23.225h44.333"/><path fill="none" stroke-linecap="round" stroke-width="8.444082" d="M481.765 315.26V195.626M481.765 323l-60.575-74.777M404.353 374.37l-12.608-53M371.986 372.961l-27.84 30.082M315.686 333.554l-24.888 30.423M315.686 333.554l-7.66-42.594M413.037 437.19l32.126-21.302M324.13 540.445l-26.034-28.85M303.82 579.583l20.31-39.138M444.465 578.443l-8.734-46.835M401.54 563.668l-26.478 27.354M368.464 540.445l-15.849-40.453M481.765 323.03l60.56-74.777M559.166 374.402l12.618-53.004M591.543 372.99l27.831 30.08M647.834 333.582l24.896 30.423M647.834 333.582l7.669-42.592M550.492 437.218l-32.14-21.302M639.387 540.475l26.043-28.852M659.708 579.609l-20.32-39.134M519.057 578.477l8.732-46.841M561.986 563.7l26.48 27.345M595.054 540.475l15.85-40.455"/></g><path d="M846.986 463.917c-2.64-3.166-3.338-11.307-7.39-16.361-7.34-9.102-9.713-10.133-26.917-10.133-8.346 0-18.208 1.264-22.51 3.789-14.673 8.85-22.349 17.955-21.295 46.978 1.311 36.124 21.045 63.23 64.802 63.23 22.01 0 21.227-4.117 27.031-8.34 5.804-4.219 12.668 1.585 8.444 9.502-2.777 5.212-10.555 10.027-17.943 15.835-7.82 6.141-22.834 11.08-32.196 11.08-52.374 0-82.861-33.942-82.861-79.69 0-44.486 24.393-60.37 45.919-71.25 23.014-11.653 45.67-11.612 52.25-11.612 16.946 0 35.424 5.048 37.768 8.066 2.342 3.018-6.632 27.823-10.854 35.213-4.22 7.385-11.607 6.858-14.248 3.693M133.902 500.333l33.785-.027c5.996 0 11.99-7.394 13.927-16.276h5.296v46.566h-5.296c-1.227-8.228-5.641-16.047-11.108-16.047l-36.604.297v49.99c0 9.287 8.087 10.341 14.44 13.08v6.333H93.955v-6.333c6.877-1.898 14.967-3.383 14.967-13.08V453.018c0-9.731-8.09-11.21-14.967-13.117v-6.333h92.882v28.04h-5.287c-.883-16.513-9.855-13.788-19.733-13.788h-27.915z"/><path fill="#00a651" d="M554.597 787.445c-5.28-2.111-13.194.527-16.361-3.695s-12.667-11.61-17.945-14.777c-5.277-3.166-11.08-8.444-18.472-12.14-7.39-3.694-20.054-3.167-20.054-3.167s-12.67-.527-20.055 3.168c-7.39 3.692-13.196 8.973-18.475 12.139-5.276 3.167-14.777 10.555-17.942 14.777-3.168 4.224-11.085 1.584-16.361 3.695-5.279 2.113 1.054 6.333 4.751 8.446 3.69 2.109 2.636 8.969 5.802 8.444 3.168-.53 7.919-8.444 12.668-12.666 4.752-4.222 14.252-16.888 18.472-19.527 4.222-2.638 27.973-5.278 31.14-5.278 3.166 0 26.916 2.64 31.138 5.278s13.72 15.305 18.472 19.527c4.75 4.224 9.5 12.137 12.669 12.666 3.165.527 2.108-6.333 5.803-8.444 3.695-2.113 10.028-6.335 4.75-8.446"/></svg>