<svg enable-background="new 0 0 612 792" viewBox="0 0 612 792" xmlns="http://www.w3.org/2000/svg"><path d="m583.752 364.25c-2.311-7.116-6.756-16.264-12.467-25.255 16.311-11.582 17.688-17.66 16.918-20.022-.766-2.363-5.453-6.473-25.455-6.253-.668-10.632-2.445-20.645-4.758-27.762-15.742-48.442-54.238-67.196-101.851-51.726-10.711 3.479-21.979 8.747-34.197 17.327 4.387-14.271 5.914-26.616 5.914-37.878 0-50.061-29.733-80.881-80.668-80.881-7.484 0-17.559 1.4-27.873 4.053-5.975-19.09-11.33-22.278-13.814-22.278-2.485 0-7.841 3.188-13.814 22.279-10.317-2.653-20.39-4.054-27.872-4.054-50.936 0-80.669 30.819-80.669 80.881 0 11.262 1.528 23.606 5.913 37.876-12.218-8.579-23.485-13.848-34.196-17.327-47.612-15.471-86.11 3.283-101.851 51.728-2.313 7.116-4.093 17.129-4.759 27.762-20.001-.22-24.689 3.89-25.456 6.252-.768 2.363.609 8.441 16.92 20.023-5.711 8.991-10.156 18.139-12.468 25.256-15.74 48.442 4.382 86.243 51.994 101.714 10.711 3.48 22.923 5.842 37.851 6.081-11.936 8.969-20.428 18.057-27.046 27.168-29.426 40.501-23.487 82.91 17.722 112.85 6.053 4.398 15.025 9.185 24.931 13.105-6.388 18.955-3.929 24.683-1.919 26.142 2.009 1.461 8.217 2.03 24.27-9.904 6.788 8.21 14.114 15.265 20.167 19.663 41.208 29.94 83.378 22.482 112.803-18.018 6.62-9.11 12.64-19.996 17.48-34.118 4.841 14.122 10.861 25.008 17.48 34.118 29.426 40.501 71.596 47.958 112.803 18.018 6.055-4.397 13.381-11.452 20.168-19.662 16.053 11.934 22.26 11.365 24.27 9.904 2.01-1.46 4.471-7.188-1.92-26.143 9.906-3.92 18.879-8.707 24.932-13.104 41.209-29.94 47.148-72.349 17.721-112.85-6.617-9.111-15.107-18.198-27.043-27.168 14.928-.239 27.139-2.601 37.848-6.081 47.61-15.472 67.731-53.273 51.991-101.716z" fill="#60387f"/><path d="m493.031 379.436c-1.557-4.797-4.553-10.961-8.402-17.021 10.994-7.805 11.922-11.902 11.404-13.494-.518-1.593-3.676-4.362-17.156-4.215-.449-7.165-1.649-13.913-3.209-18.71-10.608-32.648-36.553-45.287-68.643-34.861-7.219 2.345-14.813 5.896-23.047 11.678 2.955-9.618 3.984-17.938 3.984-25.527 0-33.74-20.039-54.511-54.367-54.511-5.043 0-11.832.943-18.787 2.73-4.023-12.865-7.635-15.015-9.308-15.015-1.674 0-5.284 2.149-9.31 15.016-6.953-1.788-13.742-2.731-18.785-2.731-34.329 0-54.368 20.771-54.368 54.511 0 7.589 1.03 15.908 3.985 25.526-8.234-5.782-15.828-9.332-23.047-11.678-32.089-10.426-58.035 2.213-68.644 34.862-1.559 4.796-2.758 11.545-3.207 18.71-13.48-.147-16.64 2.622-17.157 4.215-.518 1.592.411 5.689 11.403 13.493-3.849 6.061-6.844 12.226-8.403 17.021-10.608 32.649 2.953 58.125 35.042 68.552 7.219 2.346 15.449 3.938 25.51 4.099-8.044 6.045-13.768 12.17-18.229 18.31-19.832 27.297-15.829 55.879 11.944 76.058 4.079 2.964 10.126 6.19 16.802 8.832-4.305 12.775-2.648 16.636-1.293 17.619 1.354.984 5.538 1.367 16.357-6.675 4.575 5.533 9.512 10.286 13.592 13.251 27.773 20.178 56.193 15.152 76.025-12.143 4.462-6.14 8.519-13.477 11.781-22.994 3.263 9.518 7.32 16.854 11.781 22.994 19.832 27.296 48.252 32.321 76.025 12.142 4.08-2.964 9.018-7.717 13.592-13.25 10.82 8.042 15.004 7.659 16.358 6.674 1.353-.984 3.012-4.844-1.293-17.619 6.674-2.641 12.723-5.867 16.803-8.831 27.773-20.179 31.775-48.761 11.943-76.058-4.461-6.14-10.184-12.265-18.229-18.31 10.06-.161 18.291-1.753 25.51-4.099 32.09-10.424 45.653-35.901 35.043-68.551z" fill="#fff"/><g fill="#60387f"><path d="m189.579 392.777c-2.902 1.44-4.368 2.193-2.317 7.81l9.22 25.252-.816.298-30.728-18.596-.096.035 6.836 18.723c1.805 4.944 3.199 5.633 6.756 4.497l.333.912-11.281 4.119-.333-.912c3.561-1.571 4.306-2.66 2.413-7.845l-7.729-21.171c-2.845-1.683-3.7-1.642-5.621-.941l-.333-.912 8.209-2.997 26.817 16.378.096-.035-5.854-16.034c-2.016-5.521-3.5-5.413-6.852-4.462l-.333-.912 11.281-4.119z"/><path d="m198.158 407.031c-2.672-11.448 4.093-19.113 12.255-21.02 8.162-1.905 17.622 1.975 20.294 13.421 2.475 10.602-3.27 18.817-12.278 20.919-9.009 2.104-17.797-2.72-20.271-13.32zm5.431-27.77c1.344-.314 2.755.563 3.069 1.907.325 1.394-.564 2.756-1.908 3.069-1.692.396-2.737-.935-2.97-1.931-.22-.945.166-2.663 1.809-3.045zm21.432 21.447c-2.648-11.348-9.114-14.089-14.19-12.904-5.076 1.184-9.66 6.506-7.011 17.853 2.556 10.948 8.666 14.192 14.191 12.903 5.523-1.289 9.566-6.903 7.01-17.852zm-11.528-23.759c1.344-.313 2.755.563 3.069 1.907.325 1.394-.564 2.756-1.908 3.069-1.692.395-2.737-.935-2.97-1.931-.22-.944.166-2.662 1.809-3.045z"/><path d="m256.098 412.925-14.774 2.103-.137-.961c4.575-.857 4.561-2.044 4.028-5.787l-3.602-25.298-2.732.389c-5.565.793-6.794 1.949-7.123 7.623l-1.214.173-.921-8.645 28.536-4.064 1.528 8.559-1.214.173c-1.854-5.415-3.401-6.123-8.967-5.331l-2.732.39 3.682 25.854c.49 3.44 1.234 4.316 5.505 3.862z"/><path d="m286.26 410.413-14.893.956-.062-.97c4.628-.502 4.706-1.685 4.463-5.458l-1.635-25.502-2.754.177c-5.61.36-6.925 1.418-7.69 7.049l-1.225.078-.25-8.689 28.765-1.845.862 8.65-1.224.078c-1.431-5.541-2.918-6.367-8.528-6.008l-2.754.177 1.671 26.063c.222 3.467.897 4.397 5.19 4.275z"/><path d="m294.531 409.146c4.343-.134 4.95-1.009 4.922-4.637l-.172-22.69c-.029-3.781-.749-4.39-4.992-4.561l-.007-.971 15.177-.115.008.971c-3.729.182-5.004.549-4.973 4.638l.172 22.69c.031 3.985 1.262 4.487 5.044 4.56l.008.972-15.178.115z"/><path d="m347.752 378.843c-3.234.18-4.879.294-5.209 6.264l-1.483 26.842-.869-.049-20.906-29.204-.104-.006-1.098 19.9c-.291 5.256.719 6.438 4.435 6.798l-.055.969-11.992-.663.055-.969c3.893-.041 5.006-.748 5.311-6.259l1.244-22.503c-1.951-2.667-2.754-2.968-4.795-3.08l.055-.97 8.725.483 18.186 25.625.103.006.941-17.044c.326-5.868-1.08-6.355-4.537-6.803l.055-.969 11.99.663z"/><path d="m384.037 399.879c-2.254-.127-3.584-.22-4.115 3.37l-1.502 10.162c-.104.708-7.262 2.646-12.822 1.823-5.006-.739-10.393-3.086-13.406-7.509-2.246-3.328-3.322-6.536-2.344-13.158 1.256-8.494 9.076-15.966 19.795-14.381 5.105.755 7.186 2.767 8.803 3.006.404.06 2.109.054 2.623-1.317l1.111.165-1.172 10.727-1.162-.172c-.826-3.842-2.717-9.235-9.795-10.281-4.803-.71-12.705 1.376-14.596 14.167-1.353 9.151 3.061 15.641 10.897 16.8 3.438.507 7.098-.14 7.367-1.959l1.211-8.191c.619-4.195-.383-4.395-3.783-5.156l.133-.911 12.893 1.907z"/><path d="m408.514 423.603-26.795-6.603.232-.943c3.227.584 4.477.419 5.418-3.401l5.43-22.033c.965-3.92-.152-4.511-3.217-5.529l.232-.942 26.348 6.492-1.6 7.133-1.24-.307c.346-4.599-.75-5.711-6.258-7.067l-6.699-1.651c-1.043-.257-1.637-.403-2.053 1.283l-2.715 11.018 7.643 1.882c4.416 1.089 5.205.02 6.619-3.368l1.141.28-2.836 11.513-1.141-.282c.383-4.115-.191-4.994-4.297-6.058l-7.617-1.983-3.033 12.306c-.502 2.036-.514 2.085 6.881 3.906 6.203 1.529 9.051.652 12.469-3.822l1.389.343z"/><path d="m455.674 405.51c-3.145-.784-4.748-1.161-6.828 4.444l-9.35 25.204-.813-.303-11.342-34.079-.098-.035-6.932 18.688c-1.832 4.934-1.215 6.362 2.228 7.804l-.338.911-11.26-4.178.338-.91c3.73 1.111 5.004.767 6.922-4.409l7.84-21.13c-1.076-3.126-1.754-3.65-3.67-4.359l.338-.911 8.191 3.04 9.803 29.854.096.036 5.938-16.005c2.045-5.51.846-6.391-2.324-7.839l.338-.911 11.26 4.179z"/><path d="m299.033 334.612c-.715-4.271-1.96-4.737-5.792-4.651l-7.41.163.4 11.185c.137 3.831 1.181 4.407 4.812 4.431l.035.971-14.301.512-.035-.971c3.823-.341 4.409-1.129 4.259-5.317l-.792-22.114c-.144-4.035-1.381-4.298-4.607-4.438l-.035-.971 27.12-.971.415 7.298-1.277.046c-.929-4.518-2.286-5.288-7.955-5.085l-6.946.249c-1.277.045-1.628.263-1.572 1.795l.406 11.338 7.406-.265c4.187-.15 5.07-1.204 5.444-5.054l1.175-.042.424 11.85z"/><path d="m335.027 324.214c-1.078-5.41-4.605-9.631-10.887-9.862-2.555-.094-5.553.818-7.775 2.833-2.063 1.867-4.432 5.054-4.703 12.407-.396 10.827 5.516 15.495 11.951 15.732 6.281.231 10.092-3.259 11.732-4.733l.885.954c-.055.1-4.682 6.322-14.078 5.976-8.225-.303-16.877-5.531-16.41-18.247.421-11.44 9.23-17.305 18.013-16.98 4.545.167 7.803 1.975 8.926 2.017.256.009 1.941.071 2.412-1.599l1.072.039.037 11.508z"/><path d="m262.054 485.949c2.943-.365 4.817-.635 4.482-4.402l-2.056-23.059c-.095-1.069-.213-2.393-1.944-2.239-.611.055-.611.055-3.361 1.43l-.064-.714 8.75-5.448.417.064 2.722 30.543c.218 2.443 1.286 2.913 5.104 2.572l.068.763-14.049 1.254z"/><path d="m283.093 485.082c12.302-2.406 14.771-14.086 15.039-15.373l-.105-.099c-2.192 1.957-4.872 2.956-7.427 3.03-6.845.202-9.369-5.654-9.492-9.844-.2-6.794 3.724-12.431 10.365-12.626 6.284-.186 11.357 5.442 11.608 13.975.318 10.829-6.854 20.755-19.805 21.954zm15.036-20.69c-.088-3.014-.381-12.976-7.175-12.774-4.291.125-5.327 4.911-5.203 9.101.114 3.881 1.414 9.825 6.829 9.666 1.686-.05 3.804-1.033 4.852-1.933.649-.531.784-1.147.757-2.067z"/><path d="m313.025 459.088c4.064.837 8.842 1.85 11.744 5.619 2.117 2.722 2.635 4.22 2.498 8.767-.205 6.794-5.986 12.04-14.059 11.796-4.035-.12-6.4-1.418-6.344-3.258.014-.511.059-1.992 2.104-1.931 3.27.099 4.553 3.308 7.311 3.39 3.322.1 7.188-2.647 7.375-8.878.244-8.174-8.725-10.847-14.234-11.218-.307-.01-.451-.319-.287-.673l5.932-11.939 10.678.32c1.328.041 1.805-.507 2.389-1.257l.449.371-2.078 4.487c-.166.457-.627.441-1.188.426l-10.012-.302z"/><path d="m355.617 454.218-13.814 32.306-3.309-.302 12.834-29.418-11.043-1.004c-3.309-.301-4.359 1.093-6.279 3.587l-.828-.486 2.664-5.044 1.018-2.166 18.832 1.713z"/></g></svg>