<svg xmlns="http://www.w3.org/2000/svg" viewBox="0 0 612 792"><path fill="#fff" d="M308.999 114c78.136 0 148.888 31.682 200.103 82.898C560.315 248.112 592 318.865 592 396.999c0 78.136-31.681 148.888-82.898 200.103C457.889 648.315 387.135 680 308.999 680c-78.134 0-148.89-31.684-200.102-82.898C57.682 545.887 26 475.135 26 396.999c0-78.134 31.682-148.885 82.897-200.101C160.109 145.684 230.865 114 308.999 114"/><ellipse cx="308.999" cy="397" fill="#e31f26" rx="277.795" ry="277.794" transform="rotate(-45 309 397)"/><circle cx="309" cy="397" r="172.24" fill="#fff" transform="rotate(-45 309 397)"/><path fill="#e31f26" d="M308.999 236.975c44.182 0 84.194 17.919 113.151 46.874 28.958 28.957 46.874 68.968 46.874 113.151 0 44.184-17.916 84.192-46.874 113.151-28.957 28.956-68.97 46.874-113.151 46.874-44.182 0-84.193-17.918-113.15-46.874-28.959-28.959-46.874-68.967-46.874-113.151s17.915-84.193 46.874-113.151c28.957-28.955 68.968-46.874 113.15-46.874"/><g fill="#fff"><circle cx="308.999" cy="397" r="156.901" transform="rotate(-45 309 397)"/><path d="m428.196 541.948 20.888 30.351-38.566-19.165-19.288 13.576 43.392 60.706 17.679-11.985-22.503-32.748 40.986 19.171 18.485-13.573-44.199-59.918zM173.456 560.321l13.667-19.972-19.296-13.582-43.156 59.401 19.051 13.29 18.52-22.113.766 36.495 24.115 16.775.797-54.319 38.573-7.19-23.302-17.572zM264.264 577.896c-22.779 2.685-36.51 23.732-32.946 47.123 2.864 18.829 21.065 30.71 39.372 30.357 50.285-.962 48.056-83.905-6.426-77.48m7.754 57.229c-22.91 5.588-22.934-36.114-3.216-38.345 20.4-2.301 17.249 34.92 3.216 38.345M129.149 514.267l-18.792 13.667 13.739 18.679 18.799-13.657z"/><path d="m301.603 589.153 16.745 2.991 3.015-16.642-16.739-2.998zM117.206 465.259c-1.505 5.56-6.074 3.001-6.428 7.189 1.838 7.238 4.936 13.206 6.428 20.771 28.223-6.491 19.721-48.049 3.215-60.708-12.822-9.836-33.755-3.014-36.161 11.985-1.784 11.147 5.165 27.035-3.215 34.348-4.059-1.225-6.769-6.082-6.429-10.386.348-4.381 4.006-5.163 4.826-8.787-2.868-5.935-3.659-13.936-7.237-19.172-35.233 10.503-5.513 78.075 25.712 55.917 10.574-7.495 4.768-27.327 6.436-39.143 2.057-14.604 15.751-2.685 12.853 7.986M354.266 215.243c-2.554-12.645.235-30.592-10.448-35.147 4.501-3.007 7.887-5.346 9.645-9.586 14.165-34.237-38.369-33.233-65.095-32.757-.264.008-.803 0-.803 0l-3.21 74.291 23.302.8s.522-20.516 1.607-25.561c5.002.082 8.736.265 14.464.8 8.402 3.097 4.262 18.654 8.04 26.361 8.699.13 14.742.505 22.498.799m-24.283-46.178c-3.49 3.711-20.387 1.498-20.387 1.498l.752-14.076c.001-.001 26.814-1.688 19.635 12.578M487.658 446.887l8.037 9.585-8.841 19.973-10.447-.8-8.035 22.37 79.554 1.592 8.036-21.563-60.267-51.119zm21.413 18.892 17.679 12.778-21.7-.793zM490.07 354.23l38.57-6.387-35.359 29.549 4.022 20.771 73.932-11.983-4.021-21.564-37.772 6.389 34.554-27.96-4.015-22.362-73.93 11.976zM368.727 629.016l-13.659-51.921-23.3 5.588 19.279 71.893 54.644-14.375-4.816-19.173zM470.232 528.769l13.739 18.679 18.793-13.655-13.734-18.682zM230.862 577.14l16.681 3.314 3.343-16.583-16.681-3.315zM402.482 237.606l24.91-48.73 18.483 8.786 8.033-17.566-57.858-27.958-8.84 17.572 18.481 9.586-24.104 48.724zM216.044 234.407c12.477.25 32.916-5.486 38.576-25.559 8.655-30.681-16.283-55.735-42.588-51.922-9.084 1.32-15.459 4.371-19.286 7.189-24.46 18.006-13.682 69.567 23.298 70.292m-5.105-57.795c22.253-5.471 29.779 37.544 8.84 37.544-14.949 0-28.23-32.76-8.84-37.544M449.889 245.592c-18.902 22.882 13.774 63.427 39.38 53.519 14.854-5.75 45-35.146 45-35.146l-14.471-17.574-20.888 16.775s-15.206 15.22-23.308 14.382c-5.417-.564-9.037-6.5-8.84-11.186.348-8.088 12.751-14.69 18.482-19.172 8.286-6.468 21.7-16.775 21.7-16.775l-15.266-18.372c.002.001-32.315 22.087-41.789 33.549M163.815 279.939l-20.093-18.372 18.483-22.361-14.461-11.186-18.483 21.57-6.427-5.597 22.496-25.559-16.069-11.977L93.1 248.791l56.252 48.723zM90.694 400.563c40.662-1.093 50.675-62.753 8.833-70.3-.541 7.987-1.631 15.423-3.212 22.368 7.35 3.214 10.995 5.048 11.246 11.186.752 17.956-35.514 16.563-39.371 1.6-2.178-8.449 3.306-14.376 12.048-15.182 1.189-7.341 2.51-14.544 3.217-22.362-25.264-.096-39.045 16.656-34.553 43.931 3.247 19.679 23.626 29.242 41.792 28.759M133.532 337.076l8.072-21.71-21.84-8.016-8.063 21.709z"/><path d="m101.657 426.63 23.177-2.254-2.266-23.036-23.175 2.25z"/></g><path fill="#e31f26" d="M410.438 372.171c-2.783 1.306-5.536 1.855-8.267 1.855-7.636.007-15.242-4.371-22.37-8.867-7.135-4.459-13.724-9.051-19.797-9.088-.131 0-.258 0-.377.008-7.924.323-16.55 8.17-24.185 15.805-3.807 3.836-7.343 7.643-10.294 10.461-2.803 2.742-5.252 4.487-6.36 4.531-20.092-29.72-24.269-52.742-24.275-66.779 0-5.077.552-8.978 1.091-11.603a32 32 0 0 1 .833-3.263c51.762 17.543 64.91 19.317 77.313 19.317h.177l.154-.073c18.477-8.978 36.265-38.785 36.317-38.829l.708-1.181-1.387.052c-.902.029-1.816.051-2.753.051-26.465.007-68.736-13.195-82.055-17.78-6.405-2.193-26.503-10.759-49.841-10.759-26.807-.037-58.031 11.413-77.473 56.46-2.87 6.645-4.26 14.096-4.26 21.792 0 16.429 6.311 34.01 18.093 47.528 11.783 13.516 29.085 22.948 50.962 22.941 3.145 0 6.375-.191 9.696-.594 6.213 4.752 9.68 8.699 11.583 11.434.96 1.388 1.528 2.467 1.853 3.185.14.321.235.556.294.725C266.929 445.084 260 469.463 260 489.904c.053 33.664 18.64 56.754 33.942 56.885.354 0 .716-.006 1.07-.035 23.389-1.916 51.923-41.118 53.811-71.769.059-1.013.087-2.039.087-3.086-.028-29.104-21.912-70.815-24.155-75.041 3.746-7.335 7.556-9.784 11.413-9.79 5.631-.052 12.139 5.515 18.778 11.265 6.67 5.706 13.517 11.589 20.69 11.633.492 0 .979-.037 1.474-.086 17.368-2.217 30.229-25.408 34.355-36.783l.603-1.703zm-98.096 150.548c-3.72 7.253-9.21 11.683-16.964 11.697h-.213c-8.118-.096-13.895-5.244-17.791-13.475-3.865-8.214-5.682-19.413-5.682-31.118-.066-24.798 8.287-51.813 21.155-57.664 15.23 7.759 24.977 37.163 24.924 62.482.007 10.79-1.741 20.822-5.429 28.078"/><path fill="#fff" d="M402.172 375.522c-8.227-.015-16.019-4.604-23.174-9.086-7.143-4.519-13.718-8.905-18.993-8.861-.103 0-.215 0-.324.008-10.493.22-24.556 17.214-33.484 25.847-3.046 2.852-5.385 4.869-7.526 4.95-.14 0-.278-.006-.418-.029l-.324-.059-.178-.264c-20.432-30.093-24.741-53.542-24.741-67.931 0-10.358 2.228-16.019 2.257-16.094l.267-.666.68.236c52.105 17.674 65.194 19.457 77.361 19.48 8.81-4.305 17.723-13.818 24.385-22.269a177 177 0 0 0 10.419-14.734c-.464.008-.937.015-1.409.015-26.902-.015-69.128-13.253-82.549-17.859-6.492-2.229-26.348-10.671-49.347-10.671-26.387.035-56.777 10.994-76.086 55.552-2.782 6.431-4.139 13.678-4.139 21.196 0 16.046 6.191 33.321 17.724 46.545 11.545 13.224 28.391 22.421 49.824 22.427 3.175 0 6.441-.203 9.821-.622l.302-.043.243.189c12.95 9.834 14.586 16.503 14.624 16.693l.082.337-.207.279c-18.888 25.465-25.744 49.633-25.744 69.816-.007 16.568 4.619 30.466 11.016 40.193 6.384 9.731 14.552 15.22 21.413 15.196.316 0 .642-.015.958-.037 21.973-1.481 50.788-40.456 52.418-70.358q.08-1.474.081-2.999c.007-14.973-6.021-33.688-12.072-48.607-6.041-14.932-12.07-26.044-12.085-26.066l-.184-.344.169-.346c3.864-7.804 8.243-10.971 12.941-10.965 6.597.053 13.089 5.936 19.767 11.624 6.642 5.744 13.414 11.311 19.702 11.258.434 0 .861-.02 1.29-.063 15.37-1.753 27.965-22.583 32.509-34.172a20.6 20.6 0 0 1-7.269 1.304m-88.489 147.871c-3.814 7.563-9.894 12.527-18.276 12.527h-.029c-.073 0-.155 0-.229-.006-8.838-.082-15.162-5.826-19.139-14.333-4.007-8.523-5.821-19.9-5.821-31.758.067-25.313 8.153-52.845 22.377-59.174l.318-.148.316.162c16.418 8.214 26.032 38.132 26.083 63.978-.007 10.951-1.747 21.176-5.6 28.752"/><path fill="#e31f26" d="M230.241 387.067c-11.762-6.857-21.996-18.697-21.98-38.015 0-6.198 1.049-13.158 3.409-20.962 8.089-26.895 26.836-34.363 44.491-34.31 18.97.008 36.87 8.353 40.117 9.821l-.627 1.364c-.938-.427-3.137-1.439-6.242-2.662-17.959 23.147-41.998 33.65-44.839 42.268-.502 1.431-.737 2.978-.737 4.635-.059 14.713 18.801 36.378 22.135 45.406l.251.692-.688.264c-.797.292-2.007.402-3.725.41-6.522-.007-19.787-2.038-31.565-8.911"/><path fill="#fff" d="M264.241 394.336c-3.801-8.993-21.854-29.903-21.915-45.129 0-1.797.252-3.521.821-5.135 3.653-9.819 27.092-19.574 44.793-42.325-7.584-2.862-19.509-6.471-31.78-6.462-17.264.052-35.047 6.96-43.044 33.231-2.324 7.695-3.342 14.509-3.342 20.538.014 18.754 9.79 30.005 21.233 36.715 11.438 6.698 24.564 8.713 30.799 8.707 1.01.005 1.852-.053 2.435-.14"/><path fill="#e31f26" d="M277.654 263.914c-24.061-1.789-45.872 12.227-57.861 25.561-11.037 12.285-19.773 30.773-16.875 50.32 4.213-30.761 21.155-51.56 48.219-54.319 24.12-2.449 43.627 8.772 64.28 15.981 16.396 5.714 39.076 16.694 54.651 14.376 10.455-1.553 19.435-12.29 23.3-20.771-38.714-4.802-74.069-28.044-115.714-31.148"/><path fill="#e31f26" d="M325.068 513.139c7.372-52.266-17.215-78.369-39.377-107.039-5.625-7.275-12.67-15.417-19.289-24.761-6.258-8.838-14.727-20.83-13.657-30.357 1.24-11.09 23.767-25.137 32.14-31.949.687-.146.76.309.806.8 2.102 65.694 62.938 96.066 54.643 164.547-1.498 12.33-6.454 22.092-15.266 28.759M398.188 381.338c-5.991 7.35-10.588 19.803-20.496 20.521-16.255 1.166-23.191-19.011-36.649-22.53 13.811-27.804 38.678-1.041 57.145 2.009"/></svg>