<svg xmlns="http://www.w3.org/2000/svg" viewBox="0 0 612 792"><path fill="#bfbfbf" d="M524.093 341.743a10 10 0 0 1-.145-.703c-.016.21-.016.412-.042.627.069.019.124.05.187.076M548.097 447.714c-1.458-1.096-2.124-2.983-2.42-5.241.314-1.3 1.018-2.209 2.017-2.823.455-2.74-.549-4.021-1.613-5.241.904-8.579-2.006-19.427 1.613-24.597-1.858-2.315-2.161-5.448-1.613-9.273-2.649-2.727-4.244-6.509-3.628-12.5-1.563-.867-2.831-3.228-1.612-5.646-.604-.472-1.649-.501-2.016-1.21v-3.628c-2.018-3.129-3.056-7.153-3.629-10.887-.822-1.194-2.745-2.981-1.613-4.839-.634-1.919-2.779-2.327-2.016-5.645.063-1.138-1.14-1.01-1.612-1.612-.19-3.222-2.143-5.853-3.827-8.585.014 1.756.265 3.352.199 5.762-2.387 1.562-2.01 3.943-1.613 6.855-2.125 1.906-3.17 4.893-7.256 4.838-1.577 3.127-6.344 3.063-10.482 3.629-1.21-2.432-3.906-2.619-7.257-2.016-1.353-1.873-4.353-2.098-6.047-3.629-2.001 1.672-3.161 2.148-6.855 1.613-3.748 2.837-6.804 6.367-8.869 10.887-.008 4.024-1.799 6.266-3.628 8.468v14.516c-.602.607-1.808.612-1.613 2.016 1.931 1.027 1.536 4.378 3.628 5.243.324 1.398-.6 1.549-.402 2.821 1.82 2.401 3.775 5.711 4.031 8.468 3.892 1.181 4.233 7.266 9.676 5.646 2.094 4.066 8.61 1.33 9.676-1.613 2.802 1.04 4.484-1.043 6.451-2.016 2.671.709 7.791.595 10.481 0 3.631 2.821 6.488 6.413 8.466 10.887-.606 1.829-.263 3.308 0 5.242-1.414 1.273-2.536 2.84-2.016 6.048-3.642 2.271-4.485 7.341-8.063 9.677-.966-.243-1.84-.579-3.226-.402-.284 1.304-3.534 2.831-4.975 1.744a31.5 31.5 0 0 1-4.189.861l-.002-.003c.414.444.784 1.041 1.103 1.832-1.215 2.095-5.049 1.146-5.645-.806-2.563-.706-6.383 1.261-7.258-.403 1.044.258 2.191.081 3.366-.241a75 75 0 0 1-6.113-.477l.002-.003c-.423.429-.86.813-1.286 1.124-3.292-.604-4.654.721-6.048 2.017-2.91.628-2.84-1.729-4.837-2.017h-8.467c-.338-2.484-1.677-3.969-3.225-5.242-1.768-.424-1.324 1.364-2.822 1.21-6.804-7.309-14.581-13.643-18.142-24.193-.404.002-.48-.327-.807-.403-3.139 1.466-.989 7.141-1.209 10.081-2.529.859-5.054 1.412-3.629 5.241-3.107 2-3.969 6.246-8.869 6.452-.382 3.247-4.672 2.586-5.645 5.242-3.941.09-5.864 2.199-8.466 3.629-7.424-.775-18.272 1.876-22.578-2.017h-4.837c-.735-1.55-2.664-1.904-5.24-1.612-1.564-.857-2.204-2.636-3.63-3.63h-3.628c-3.551-2.631-3.264-9.102-7.66-10.887.746-3.031-1.609-2.96-2.016-4.839-1.197-6.305 1.888-8.327 2.016-13.306 3.618-3.64 7.032-7.483 12.095-9.677 3.071.685 7.781.518 10.886 0 1.326.15.813 2.143 2.419 2.016 4.582-.465 5.369 3.325 10.078 1.613 1.004.743 1.423 2.072 2.823 2.419 2.277-.947 4.232-2.218 4.837-4.839.026-2.575-3.877-2.811-5.644-4.032-2.531-1.75-3.438-5.15-8.064-3.225-2.203-1.292-3.535-3.454-5.241-5.243-4.648.214-4.539-4.33-7.659-5.645-1.939-.19-1.031 2.464-3.227 2.016-3.956-3.838-8.784-6.805-8.061-15.322-.605-.874-2.019-.939-2.016-2.419 1.218-2.063-.383-3.25-1.211-4.436 2.198-.778 2.509-7.749 0-8.468 2.003-1.629 1.997-6.954 1.211-10.081 1.414-1.273 2.536-2.839 2.016-6.048 1.702-.726 2.381-3.677 1.612-5.645 2.444-3.065 4.698-6.322 7.256-9.274.556-1.221-.191-1.441 0-3.226 3.919-2.165 7.737-6.003 12.901-5.645 1.073-2.152 4.57-1.881 6.047-3.629 13.084-.452 25.535-.271 31.044 6.855.994-.053 1.941-.061 2.418.403 2.276 3.906 5.334 7.031 5.646 12.903.317.892 1.409 1.009 2.016 1.613-.118 11.516-5.286 19.828-19.353 18.548-1.853-1.168-3.032-3.063-6.047-2.017-1.372-1.719-3.986-2.195-5.645-3.629-1.582.165-1.15 2.344-3.225 2.016-.924-.555-.947-2.01-2.016-2.42-2.714.916-1.248 6.01-1.613 9.274 3.808 2.24 8.59 3.505 11.692 6.452 1.386.176 2.259-.16 3.225-.403 1.667 1.353 2.955 3.142 6.047 2.016.691.652 1.002 1.686.807 3.226 2.673 1.091 3.154 4.372 6.854 4.435 1.452 1.102 1.417 3.69 4.435 3.226-.517-4.527 2.378-5.308 2.017-10.483 1.877-.477 2.236-2.507 1.612-4.435 1.739-2.833 4.477-5.423 3.628-9.677 1.141-.204 1.541-1.147 2.016-2.016v-3.226c3.3-4.899 5.887-10.511 10.482-14.112v-2.419c4.493-4.916 11.24-7.576 17.336-10.888h4.838c1.803-3.682 9.813-1.533 14.109-1.612.382-.829 1.587-.833 1.614-2.016 7.145.918 11.139 4.987 16.932 7.258 1.525-.089 1.958-1.268 3.225-1.613.458.362.938.726 1.427 1.093a11.2 11.2 0 0 1-1.023-2.705c-1.484.007-1.781-1.175-2.418-2.016-1.233.293-1.185-.696-2.419-.404-5.501-5.385-10.468-11.305-16.529-16.128-.477.464-1.426.457-2.42.403-1.876-1.886-3.77-3.756-6.852-4.436-6.449-7.394-13.776-13.91-20.562-20.967-.994.053-1.941.061-2.418-.403-2.36-3.151-6.742-4.279-9.273-7.258-.193-1.268.574-1.576.807-2.419 2.524.7 2.363 4.087 5.644 4.032.172-.769 1.152-.729.806-2.016-3.38-.919-4.996-3.604-7.256-5.645-1.307.171-.802 2.155-1.612 2.823-2.781-.725-2.234-1.258-4.839 0-2.166-1.597-4.442-3.084-7.659-3.629-.018-1.328-.681-2.008-.402-3.629-4.796-4.401-11.325-4.571-14.515-10.483-3.471-.158-5.318-1.939-7.256-3.629-5.148-.63-9.127-2.431-15.724-1.613-1.495.017-1.445-1.512-2.419-2.016-4.039 1.763-4.323-2.655-8.87-1.613-.829-.11-.379-1.502-1.209-1.613-1.906.16-3.364-.129-4.838-.403-.623-.586-.355-2.064-.402-3.226h-47.977c-1.586 2.58-6.991 1.34-10.886 1.613-1.075 2.731-6.966 2.669-8.063 0-3.453-.094-4.852 1.868-6.45 3.629-1.485-1.472-4.044-1.869-6.854-2.016-.837 1.717-2.689 2.418-5.645 2.016-1.976 2.056-4.148 3.917-4.838 7.258-8.138-.881-10.304 4.211-18.142 3.629-1.292-.083-.658 1.761-2.016 1.613-1.462-.016-1.296-1.661-2.419-2.016-2.75 1.686-6.43 2.44-7.66 5.645-8.059 1.079-10.745 7.533-17.739 9.678-.354.713-1.278 1.177-.403 2.016-1.885.13-2.761 1.271-4.838 1.21.051.89 1.71.171 2.419.403-.763.447-1.413 1.006-2.419 1.21l-.052.121c6.48-.681 16.255.602 23.032-.524 1.339.812 2.156 2.146 4.032 2.419 2.014-.809 2.714-2.931 4.435-4.032 4.23-.156 6.865.413 10.482 0-.165.972.736.876.403 2.016-1.669.615-4.421.149-3.629 3.226 2.162.42 7.579 1.317 8.064-1.21.107-1.316-1.565-.854-1.613-2.016 1.442-3.201 6.474-.446 7.661-4.032 1.272-.197 1.423.727 2.822.403 1.503-.244 1.641-1.853 3.225-2.016 4.246-.299 9.864-1.693 9.272-8.064 3.173-3.414 6.846-6.325 8.87-10.887-.027-1.182-1.535-.883-1.21-2.419 6.253 1.004 5.583 8.933 10.886 10.887 1.25-.229 1.06-1.897 2.419-2.016 3.466 2.447 6.366 5.46 8.869 8.871-.561 1.051-2.284.941-2.016 2.822 2.198 3.044 6.158 4.325 7.257 8.468-.842.636-2.677.28-3.628.807-.33 1.954-2.156 2.414-3.226 3.629-.075-.597-.975-.37-1.612-.403-.236.839-.848 1.303-1.21 2.016-7.306 1.91-10.966 5.095-17.336 8.065.022 3.113-1.698 4.484-4.838 4.435-1.365 5.354-5.619 7.821-9.272 10.887-.949.009-1.187-.695-2.419-.403-1.029 3.211-5.81.179-6.853 3.226-.107 1.316 1.564.854 1.612 2.016-1.154.997-1.962 2.338-4.435 2.016-4.154 5.926-13.31 6.849-19.352 10.887-1.272.197-1.424-.727-2.822-.403-1.232.38-1.263 1.962-2.822 2.016-5.375-1.258-5.943 2.751-10.079 1.612-1.045.433-1.204 1.753-2.419 2.016-5.124-1.374-4.982 5.783-11.289 3.226-1.465.148-1.497 1.729-2.822 2.016-7.758-.368-6.555 8.229-10.079 12.097-1.532-.161-1.53-1.854-3.226-.807-.604 6.168 4.774 9.413 0 13.307 2.564 1.546 2.345 5.571.404 7.661-1.79.177-.997-2.228-3.226-1.613-.814 1.739-1.701 3.406-2.418 5.242.368.707.749 1.401 2.016 1.21.97-1.449 1.567-3.271 3.225-4.032 1.029 5.975-2.113 15.863 1.613 18.145 1.394-.756 1.711-2.589 4.435-2.016 1.395-4.52 7.176-4.651 9.272-8.468-.225-.984-1.56-.858-1.209-2.419 3.558-2.221 8.316-3.241 10.482-6.855 4.765-.88 7.994-3.294 11.289-5.645 1.473.274 2.932.563 4.838.403 2.112-1.651 3.842-3.685 5.644-5.645 4.112 1.523 5.219-3.253 9.676-1.21 1.575-.44 1.957-2.074 3.628-2.419.95-.009 1.187.694 2.419.403 1.236-3.975 7.799-.69 12.498-2.017 1.568-.442 2.165-1.821 3.225-2.016 1.985-.365 5.049 1.109 6.854 0 3.611 2.974 11.035 2.134 13.707 6.048 1.83-.455 4.219-.351 6.048-.806 3.757 2.398 7.529 6.108 12.901 5.646 1.124 4.52 4.568 6.72 7.66 9.274-.319 4.216 3.067 4.727 5.644 6.048-1.137 5.344 4.041 7.392 3.628 13.306-2.644 1.37-3.096 6.69-.403 8.065-.452 3.679.311 6.142 2.016 7.662v11.29c-3.544 1.428-1.462 8.483-2.016 12.902-1.276.472-3.173.32-3.628 1.614-.221 2.102.592 3.17 2.016 3.628v3.629c-3.775 2.541-4.57 8.063-8.869 10.081-.227 5.096-5.207 6.857-3.629 12.5-.847 1.84-2.782 2.593-3.628 4.436.782 6.023-1.393 9.091-3.226 12.499-1.512.034-1.479-1.477-2.822-1.613-4.342 8.83-9.063 17.28-15.723 23.79-.009.95.694 1.188.403 2.42-1.8 4.383-6.026 6.338-7.257 11.289-1.452.833-1.995 2.576-4.838 2.018-.034 1.981-2.251 1.78-2.419 3.629-1.094.25-3.2-.513-3.628.403.642 4.331-.222 7.982-1.613 11.289.24 1.777 2.378 1.654 2.016 4.032-3.76-1.077-6.358-3.317-11.288-3.225.323-4.222-4.285-3.51-4.031-7.662 3.213-3.016 9.832-6.768 6.45-13.709-4.213.153-.115 6.266-4.435 6.451-1.139-4.101 3.182-6.224 1.612-12.097 2.596-3.066 2.906-6.514 5.241-9.273-.267-5.913.369-10.921.403-16.532-1.484-1.07-2.994-2.113-4.031-3.629-.035-2.32-.087-4.657.403-6.451-.962-1.758-3.331-2.631-4.032-4.84-.289-.91.62-2.89 0-4.436-.32-.798-1.481-1.28-1.612-2.016-.323-1.813.183-3.542.403-5.241-2.848-4.135-9.141-2.87-12.901-6.452a13.6 13.6 0 0 0-2.016 2.017c-2.191-.334-7.073-1.251-8.063.807.017 1.327.68 2.007.403 3.629-2.633.458-3.487 2.694-6.854 2.419-1.094 1.862-1.991 3.922-5.241 3.629-.152 3.343-2.311 4.678-4.031 6.452-1.677 4.241-2.736 7.417-5.645 10.886.694 1.377-.554 3.2.403 4.839-3.48 1.896-1.507 9.245-2.016 14.113.579.631 2.102.317 2.016 1.612-.065 1.816-2.283 1.48-2.419 3.227 1.144 8.597-.383 16.55 0 24.999 3.962 1.075-.379 7.331 3.629 8.468.515-.022.559-.517 1.209-.403.246-6.18 1.417-14.218-1.613-18.145 2.596-3.739 1.77-7.854 1.613-13.307 6.913 3.402-1.725 10.718 1.209 16.532.541.938 2.334.623 3.226 1.21.392 2.108-1.138 8.685 2.016 9.273-.301 1.988-.301 2.446 0 4.436-3.646 2.212-1.59 6.556-2.016 11.693.892.855 1.666 1.828 2.822 2.419 2.8 6.205 6.847 11.162 11.691 15.322v2.419c1.827.19 2.112 3.616 4.435 2.017 1.979 3.532 5.286 5.735 6.048 10.483 1.591-.517.975 1.176 2.016 1.211v2.418c3.697 2.217 4.518 7.31 8.063 9.679h2.419c1.142 1.813 2.247 3.665 5.241 3.628-1.92 4.666-6.403 6.769-6.854 12.903-.78.212-1.381.54-1.881.932.461-.01.943-.042 1.478-.125.827.466-1.049 1.606-2.016 1.612 1.356.526 2.27 1.494 4.435 1.209.547.125.334 1.011.403 1.614 5.314 1.137 8.413 4.488 11.691 7.661 5.519-1.807 5.728 2.559 12.095 1.612 1.838.043 1.09 2.674 3.628 2.017.244-.966.58-1.84.403-3.226.538-.672 2.284-.136 2.821-.807 1.146 2.618 6.556.971 7.258 4.032 2.875-1.36 5.254.439 6.451 2.016 5.355-1.257 9.026 3.917 12.9-.807 6.455 1.931 17.497-2.186 20.561 2.419 1.559-.714 4.009-.378 5.643 0 2.789-3.393 10.815-1.548 16.529-2.016 1.607.127 1.092-1.865 2.419-2.017 9.791 1.622 14.884-2.907 22.979-3.225 2.994-2.382 6.663-4.089 8.87-7.259 3.072.521 4.48-.625 5.645-2.017 1.842-.286 4.089.455 4.838 0 5.04-4.904 10.059-9.831 19.352-10.482q1.457-.558 2.016-2.017c6.78-.61 6.566-8.217 13.304-8.871 2.693-3.085 4.752-6.805 9.676-7.66 1.155-2.609 3.075-4.452 6.048-5.243 2.772-2.736 6.211-4.808 8.063-8.467h2.821c6.143-6.76 12.662-13.143 19.353-19.354.815-3.754 3.351-5.788 6.048-7.661-1.402-2.279 3.039-3.745 1.612-6.049 4.72-1.193 2.744-9.083 7.257-10.483v-5.241c4.133-2.855 4.227-9.752 8.869-12.097-.804-3.357 2.161-2.947 2.017-5.646-1.355-1.143-2.636.148-3.63-1.21 1.377-6.242 8.029-8.589 6.854-16.129-.221-1.967 1.935-1.559 2.016-3.226.312-1.79-1.333-1.623-2.016-2.419 2.452-1.602 1.166-3.634 2.016-6.855.644-2.439 2.649-6.002 1.612-11.29.055-1.558 1.636-1.589 2.016-2.821a6.37 6.37 0 0 1 2.019-7.264M367.482 242.072c2.218-.812 4.39 1.018 4.436 3.629-1.167.871-3.615.331-4.436-.404zM298.14 613.438c1.272.071 2.404.283 2.419 1.612-.396 2.713-4.262.245-2.419-1.612"/><path fill="#545454" d="M70.76 285.217c.309.976 3.377 2.087 3.226 0-1.838.061-1.583.333-3.226 0M277.981 193.283c1.114-.23 2.261-.427 2.016-2.016-1.71-.361-2.643 1.27-2.016 2.016"/><path fill="#545454" d="M356.597 395.295c-2.692-1.374-2.24-6.695.403-8.065.413-5.914-4.765-7.962-3.628-13.306-2.576-1.321-5.963-1.832-5.644-6.048-3.092-2.554-6.536-4.754-7.66-9.274-5.372.463-9.145-3.248-12.901-5.646-1.829.455-4.218.351-6.048.806-2.672-3.914-10.096-3.074-13.707-6.048-1.805 1.109-4.869-.365-6.854 0-1.059.194-1.656 1.573-3.225 2.016-4.699 1.327-11.262-1.958-12.498 2.017-1.232.291-1.469-.412-2.419-.403-1.671.345-2.053 1.979-3.628 2.419-4.458-2.043-5.564 2.733-9.676 1.21-1.802 1.96-3.532 3.994-5.644 5.645-1.906.159-3.365-.129-4.838-.403-3.295 2.351-6.524 4.765-11.289 5.645-2.165 3.614-6.924 4.634-10.482 6.855-.351 1.56.985 1.435 1.209 2.419-2.097 3.817-7.878 3.948-9.272 8.468-2.723-.573-3.041 1.26-4.435 2.016-3.726-2.281-.584-12.17-1.613-18.145-1.657.761-2.254 2.583-3.225 4.032-1.267.191-1.648-.503-2.016-1.21.717-1.835 1.605-3.502 2.418-5.242 2.229-.616 1.436 1.789 3.226 1.613 1.941-2.09 2.161-6.115-.404-7.661 4.774-3.893-.604-7.138 0-13.307 1.696-1.047 1.693.646 3.226.807 3.524-3.868 2.321-12.464 10.079-12.097 1.325-.288 1.357-1.869 2.822-2.016 6.307 2.557 6.165-4.601 11.289-3.226 1.215-.263 1.374-1.583 2.419-2.016 4.136 1.139 4.704-2.87 10.079-1.612 1.559-.054 1.59-1.636 2.822-2.016 1.398-.324 1.55.6 2.822.403 6.042-4.038 15.198-4.961 19.352-10.887 2.472.322 3.281-1.02 4.435-2.016-.048-1.162-1.719-.7-1.612-2.016 1.043-3.047 5.824-.015 6.853-3.226 1.232-.292 1.469.413 2.419.403 3.654-3.066 7.907-5.533 9.272-10.887 3.14.049 4.86-1.322 4.838-4.435 6.37-2.97 10.03-6.155 17.336-8.065.362-.713.974-1.177 1.21-2.016.638.034 1.537-.194 1.612.403 1.069-1.215 2.896-1.675 3.226-3.629.951-.527 2.786-.17 3.628-.807-1.099-4.143-5.059-5.424-7.257-8.468-.269-1.882 1.454-1.771 2.016-2.822-2.503-3.41-5.403-6.424-8.869-8.871-1.359.119-1.169 1.787-2.419 2.016-5.303-1.954-4.633-9.883-10.886-10.887-.325 1.536 1.183 1.238 1.21 2.419-2.023 4.562-5.696 7.474-8.87 10.887.592 6.372-5.026 7.765-9.272 8.064-1.584.163-1.722 1.772-3.225 2.016-1.398.323-1.55-.6-2.822-.403-1.187 3.586-6.219.831-7.661 4.032.048 1.162 1.72.7 1.613 2.016-.485 2.527-5.901 1.63-8.064 1.21-.792-3.077 1.959-2.611 3.629-3.226.333-1.14-.568-1.044-.403-2.016-3.617.413-6.252-.156-10.482 0-1.721 1.101-2.421 3.224-4.435 4.032-1.876-.274-2.693-1.608-4.032-2.419-7.499 1.246-18.684-.466-24.996.807-1.717-.299-2.398-1.634-3.628-2.42-1.612-.133-2.238.719-4.032.404-1.634-.113-1.745-1.75-2.822-2.419-.52.555-1.751.399-2.822.403-5.647-2.82-9.511-7.423-16.529-8.871-1.185-1.1-2.11-2.46-3.225-3.629-8.988.656-11.852-4.813-16.126-8.871-5.058 1.427-6.442-2.507-9.676-1.613-.675-.669-.321-2.367-.403-3.629-3.393.167-4.212-2.239-6.047-3.629-3.345 1.44-3.696-1.393-5.241-2.016-.748-.302-1.783.294-2.419 0-1.023-.473-1.031-2.555-4.031-1.613-1.249-1.966.891-2.11.806-4.032-2.841-1.708-5.513-1.957-9.273-3.226-.892.886.707 1.34.807 2.419-.729.616-1.235 1.454-2.822 1.21-.746-.061-.247-1.366-.806-1.613-.058-1.268 1.034-1.385 2.016-1.613-2.42-2.284-6.665-2.742-10.079-4.032-1.328.016-.695 1.993-2.419 1.613-1.671.328-1.514-1.174-2.419-1.613-1.558-.079-2.971-.014-4.032.403-1.564-.048-2.037-1.188-2.822-2.016-7.794 0-12.665 1.789-20.46 1.789 0 1.075-2.923.361-2.923 1.436-1.37.696-2.955.281-4.435 0-.822.521-1.019 1.669-2.016 2.016-3.356-.669-4.279 1.097-6.047 2.016-5.696-1.142-7.015 4.897-12.498 5.242-.296 1.72-2.195 1.837-2.419 3.629h-2.822c-1.082 2.144-3.251 3.201-4.435 5.242h-2.822c-4.334 4.195-7.571 12.183-15.32 10.484-.112-3.204 1.809-4.374 4.838-4.436 3.328-4.063 7.394-7.389 10.884-11.29-1.309.233-1.875-.275-2.822-.403-1.336 1.218-2.901 2.206-3.628 4.032-1.233.292-1.186-.695-2.419-.403-4.569 4.301-8.266 9.475-12.498 14.113-.04 3.455-2.402 4.587-4.032 6.452v2.016c-1.187 2.988-5.6 2.009-7.256 3.628.768 2.337 2.097 1.876 2.016 4.032-.102 2.681-4.454 4.505-5.644 6.452-.01 1.704.78 2.605 0 4.032-1.378 1.579-5.433.479-8.063.807.556 3.067 3.941 4.559 2.822 8.064 3.582 5.863 9.814 10.18 17.739 10.484 3.844-3.817 12.861-2.46 13.304-9.678-1.69 1.804-3.768 3.221-5.241 5.242-.982-.227-2.074-.345-2.016-1.612 1.292-2.068 3.522-3.198 4.838-5.242 1.009-.068 1.262.619 1.612 1.21.733-.477.317-2.103.807-2.823 2.689 1.188 3.611-1.017 5.241-2.016 3.409 1.023 5.454-1.809 8.063-2.823-.821-2.136-6.704.791-6.451-2.419 1.377-1.312 2.045-3.331 2.822-5.242 2.788-.503 3.918.651 4.838 2.016 3.889-.003 9.292-1.75 11.691 1.21 1.977-2.593 7.816-1.323 12.095-1.613 1.967 1.527 5.063 1.926 6.451 4.032.946-.128 1.513-.637 2.822-.403 1.81.743 2.332 2.775 5.644 2.016 3.076 3.241 8.095 4.537 10.482 8.467-.02 1.862-2.297 1.466-2.016 3.629 3.178.04 4.934 1.813 3.628 5.241.559 1.189 3.18.314 3.629 1.613-.237 3.31-4.089 4.979-3.226 8.064-1.46 1.362-4.021 1.623-5.644 2.822-1.748.27-1.085-1.871-1.209-3.226-.386 2.248-3.1 3.29-2.418 7.661-1.76 1.87-4.33 2.928-3.629 7.258-.517.692-1.609.81-2.015 1.612 2.099 2.058 3.449 6.595.403 8.871v2.419c2.01 1.592 3.072 5.928.403 7.661 2.333 3.352.852 10.167 1.209 14.516 6.301 1.941 2.718 11.996 3.629 19.758.303 1.513-1.54.879-1.613 2.016v23.791c-.256.817-1.884.266-2.016 1.209-.47 2.217 1.531 1.963 2.016 3.227.083 2.738-.622 6.267 1.613 6.853-.911 6.019 1.045 9.17 4.031 11.291-.616 2.045-.639 4.96 2.016 4.838-.129-1.337-.061-2.479.806-2.822 4.467.024 1.394 5.98 2.016 8.468 1.183.026 1.187 1.232 2.016 1.613-.022 1.858.178 3.941-.403 5.241 3.24.522.878 6.65 4.031 7.258.237 2.349-.391 4.733 0 6.048h2.822c.392 1.895.695 3.875 2.419 4.436-.536 3.224.516 4.86 2.016 6.049.291 1.232-.413 1.47-.403 2.419 2.732 3.584 2.053 8.613 5.644 11.693.236 1.874-.551 2.435 0 3.629 1.264 1.156 2.617 2.222 3.629 3.63.31 1.52-.492 1.927-.403 3.226 3.712 2.739 2.603 10.3 9.273 10.08-.098 5.016 3.741 6.578 3.628 10.484 1.971 1.247 3.812 2.935 3.628 5.241 3.762 1.345 2.614 7.602 8.063 7.259 1.735 3.799 7.947 5.19 7.257 10.08-4.228-.509-5.213-6.303-8.467-6.451.861 2.901 3.214 4.313 5.241 6.048.341 4.228 3.646 5.493 6.047 7.661.44-2.457-1.939-2.093-2.016-4.032.142-.53.71-.634.806-1.209 2.38.038 2.451 2.387 4.435 2.821-.251 4.418 3.192 5.141 5.241 7.258.337 4.233 3.188 5.952 6.047 7.662.184-3.679-4.451-2.538-3.628-6.855 5.498 1.76 7.353 7.163 11.691 10.081.478 1.194-.263 2.738 0 4.839.742 2.079 2.62 3.024 3.628 4.838.733-.477.317-2.102.806-2.822-1.939-1.421-2.393-4.326-2.015-8.064-1.411-1.009-2.921-1.917-3.629-3.63-.051-.723.494-.85.403-1.612 3.376.388 4.511 3.016 6.047 5.242 5.033.209 5.905 4.578 8.87 6.854 4.709.802 6.18 4.841 9.273 7.259.763.446 1.904.514 2.822.806 1.494 1.731 3.021 3.431 4.838 4.839 1.082.631 2.143-.319 3.225.806.081 2.501-2.297 2.542-3.225 4.032.661 2.365 2.151 2.93 4.838 2.42 1.767.113 1.371 2.392 3.628 2.016.323-1.667-1.464-1.223-1.21-2.821 2.129-2.485 3.84 1.577 4.838 2.821 5.703.48 7.548 4.816 13.305 5.242.855 1.067 1.053 3.413.403 4.839 1.355.392 2.01 1.483 2.822 2.419 8.048-.388 8.994 6.327 15.32 7.661v2.42c4.845-1.528 3.127-7.125 8.063-8.468.451-6.135 4.934-8.237 6.854-12.903-2.994.037-4.099-1.814-5.241-3.628h-2.419c-3.545-2.369-4.365-7.462-8.063-9.679v-2.418c-1.041-.035-.424-1.728-2.016-1.211-.762-4.748-4.069-6.951-6.048-10.483-2.322 1.6-2.608-1.826-4.435-2.017v-2.419c-4.844-4.16-8.892-9.117-11.691-15.322-1.156-.591-1.931-1.563-2.822-2.419.426-5.138-1.63-9.481 2.016-11.693-.301-1.989-.301-2.447 0-4.436-3.153-.589-1.624-7.165-2.016-9.273-.892-.587-2.685-.271-3.226-1.21-2.934-5.814 5.704-13.13-1.209-16.532.157 5.452.983 9.567-1.613 13.307 3.03 3.927 1.859 11.965 1.613 18.145-.651-.113-.694.381-1.209.403-4.008-1.137.333-7.393-3.629-8.468-.383-8.449 1.144-16.402 0-24.999.136-1.746 2.354-1.41 2.419-3.227.085-1.295-1.438-.981-2.016-1.612.509-4.868-1.463-12.217 2.016-14.113-.957-1.639.291-3.462-.403-4.839 2.909-3.469 3.967-6.645 5.645-10.886 1.721-1.774 3.879-3.109 4.031-6.452 3.249.293 4.146-1.767 5.241-3.629 3.367.275 4.221-1.961 6.854-2.419.277-1.622-.386-2.302-.403-3.629.99-2.058 5.872-1.141 8.063-.807a13.6 13.6 0 0 1 2.016-2.017c3.76 3.582 10.053 2.317 12.901 6.452-.22 1.699-.726 3.429-.403 5.241.131.735 1.292 1.218 1.612 2.016.62 1.546-.289 3.525 0 4.436.701 2.209 3.07 3.082 4.032 4.84-.49 1.794-.438 4.131-.403 6.451 1.037 1.516 2.547 2.559 4.031 3.629-.034 5.611-.67 10.619-.403 16.532-2.336 2.76-2.645 6.207-5.241 9.273 1.569 5.873-2.751 7.996-1.612 12.097 4.32-.186.222-6.298 4.435-6.451 3.382 6.941-3.237 10.693-6.45 13.709-.254 4.152 4.354 3.44 4.031 7.662 4.93-.093 7.528 2.148 11.288 3.225.362-2.378-1.775-2.255-2.016-4.032 1.391-3.308 2.254-6.958 1.613-11.289.429-.916 2.534-.153 3.628-.403.168-1.849 2.385-1.648 2.419-3.629 2.843.559 3.386-1.185 4.838-2.018 1.23-4.951 5.457-6.906 7.257-11.289.291-1.233-.412-1.47-.403-2.42 6.66-6.51 11.381-14.96 15.723-23.79 1.343.137 1.311 1.648 2.822 1.613 1.833-3.408 4.008-6.476 3.226-12.499.846-1.843 2.781-2.596 3.628-4.436-1.578-5.643 3.402-7.404 3.629-12.5 4.299-2.018 5.094-7.54 8.869-10.081v-3.629c-1.424-.458-2.236-1.526-2.016-3.628.455-1.294 2.352-1.143 3.628-1.614.554-4.419-1.528-11.475 2.016-12.902v-11.29c-1.705-1.516-2.467-3.979-2.015-7.659"/><path fill="#545454" d="M161.47 195.702c.964 1.186 1.928 2.373 2.016 4.435h2.822c1.003 2.456.558 6.661-1.613 7.258.198 2.861 3.396 2.696 4.032 5.242.304 1.214-.795 2.717-.403 4.032.489 1.641 2.248 1.739 3.628 3.628 1.259 1.723 1.104 4.955 2.016 6.452 1.049 1.723 3.523 2.619 4.435 4.032 1.761-.559 3.116-.406 4.435.403v2.822c4.255-.666 6.852 1.764 7.66 5.646 6.501-.846 12.199 3.184 16.126 7.258 1.139.333 1.044-.569 2.016-.403 2.502 3.68 8.382 3.981 14.917 3.629 1.373.298.664-1.486 1.612-1.613 2.338-.311 3.229 2.938 5.241 1.613 2.062-.414-1.577-1.117-.806-2.823.295-.376.732-.61 1.209-.806 1.601-.123 1.921 1.036 2.419 2.016 6.233 1.172 7.484-4.091 14.11-3.629 2.102-2.736 6.712-2.964 8.87-5.646 1.272-.197 1.423.727 2.822.404 2.588-2.923 5.37-5.65 6.45-10.081 2.883-1.956 5.042-4.634 7.257-7.258.145-1.892-2.117-1.377-2.016-3.226.241-2.179 4.315-.522 5.644-1.613-2.359-2.345-2.198-7.209-2.016-12.097-1.402-1.311-4.649-3.154-2.419-5.645a26 26 0 0 1-1.718-.661 41 41 0 0 0 .895-2.565h3.242c-.95-4.042 1.286-4.897 2.016-7.258-2.399-.871-3.435.66-4.129 2.644.385-2.067.616-4.188.682-6.351a7 7 0 0 0-.987.078c2.498-.387 4.376.749 6.047 0 .313-4.04 2.384-4.241 2.016-8.467-3.014-.915-2.831-9.131 0-10.081-2.846-3.202-2.866-9.23-7.256-10.887v-2.823c-1.14.065-.939-1.211-2.016-1.209-.208-2.563.392-4.352 0-6.048-3.766.641-5.268-1.875-8.869-2.419.068-2.082-.25-4.551.403-6.048-6.777-2.145-12.776-8.054-19.352-11.693-2.423.795-6.363.385-8.869 0-1.415 2.476-5.881 2.606-7.257 0-4.438.611-11.298.691-15.723 0-1.639-.161-1.24 1.716-2.418 2.016-7.669-.546-12.936 1.309-14.111 7.258-4.112-.622-6.856 1.466-9.272 3.628-.429 1.504 1.511.638 1.209 2.016-1.91 3.734-6.613 4.676-9.272 7.661.556.52.399 1.752.403 2.822-3.06 2.315-3.475 7.277-7.256 8.872.404 4.034-2.296 4.96-5.241 5.645.533 3.545-.474 7.805-3.628 8.871v9.274c1.607-.128 2.979-.022 3.628.806.193 5.038.529 10.211-3.631 10.889"/><g fill="#fff"><path d="M205.561 152.007c-.79-.15-1.501-.38-2.164-.659-1.372 1.451-3.776 1.869-5.644 2.823-.795 2.641 1.631 2.061 1.991 3.546a41.7 41.7 0 0 1 5.817-5.71M186.465 188.444v-2.016c-.753-.322-1.477-.674-2.418-.807-2.104 1.404.299 4.539 2.418 2.823M248.955 142.074v-2.822c-1.539-.195-2.573.114-3.225.806-.58 2.501 1.615 2.851 3.225 2.016M192.14 171.463c-2.189-.283-3.434.379-4.062 1.659-.003-1.207-.725-1.695-1.613-2.016-1.029.731-2.038 1.723-1.209 3.226 1.539.195 2.573-.114 3.225-.807.52 2.975.111 6.878.806 9.678-.777.97-3.007.486-2.418 2.822.788 1.367 1.766.933 3.334.826a42 42 0 0 1-.088-2.589c0-4.468.716-8.767 2.025-12.799M192.499 198.123c-1.823.226-1.697.09-3.615.402-.796-.683-.629-2.328-2.419-2.016-2.712.454-.736 3.369-1.612 5.241 1.619 1.473 2.745 3.438 5.644 3.629-.405 4.168.93 6.596 4.838 6.451-.311 1.572-3.521.243-3.225 2.419 1.334 2.563 3.999 3.796 8.466 3.226 2.259 3.071 7.584 3.649 12.066 3.643-9.326-4.789-16.596-13.007-20.143-22.995M231.619 139.252c-.493 1.708-.026 2.049.807 3.225 5.033-.365 1.122-6.527-1.21-6.854-1.009-.068-1.262.62-1.612 1.21-.235 1.712 1.086 1.87 2.015 2.419M136.097 358.067c0-35.154 10.016-49.129 10.016-61.76 0-21.923-17.694-41.289-47.645-45.264-1.094.448-1.964 1.121-2.712 1.915-.351 1.56.985 1.434 1.209 2.419-2.967-.145-5.54.105-8.063.403.048 1.162-.22 2.64.403 3.226 2.627-.8 7.305-.075 9.272-.403 1.125-1.244-.219-2.463-.806-3.226 2.168-.942 5.34.838 7.66-.403 1.325 1.236 4.218 3.029 6.854 1.613 2.726 1.305 4.042 4.021 6.45 5.645h2.822c4.353 1.965 7.38 5.254 11.691 7.258v2.419c4.887 2.371 4.497 10.019 9.273 12.5-.621 1.396-.357 3.676-.403 5.646.852.358 1.192 1.228 2.419 1.209-2.377 4.597 2.873 13.66-4.031 14.919.339 3.028-.134 5.242-2.016 6.048 1.519 4.105-1.846 5.282-3.628 7.258 1.666 4.254-2.833 4.296-1.613 9.273-1.169 1.116-2.528 2.042-3.628 3.226q.115 1.9 2.016 2.016c1.175 7.11-3.972 9.977-1.612 16.935-3.1 2.737-3.134 15.413 0 18.145-.101 1.243-1.452 1.236-2.016 2.016.816 6.845-1.938 17.261 2.016 20.968-.274 1.473-.563 2.932-.403 4.838 2.973.656.957 6.301 3.628 7.259v10.483c.12 1.359 1.788 1.169 2.016 2.419-1.546 6.275 2.713 8.412 1.613 16.129 2.409.759 1.613 2.492 1.612 5.242 1.041.034.424 1.726 2.016 1.209v4.435c4.408.296 5.015 4.393 7.257 6.855.009.949-.695 1.186-.403 2.418.192 1.422 1.282 1.943 2.016 2.823-.229 4.809 1.84 6.258 4.032 9.273-.447.764-.515 1.905-.806 2.823.516 1.097 1.954 1.272 2.418 2.42.089 1.297-.713 1.706-.403 3.225 4.958 6.738 6.282 14.869 12.901 20.161.197 1.272-.727 1.425-.404 2.823 1.086 3.774 8.316 3.023 7.257 7.661 1.006 2.085 4.134 2.047 3.628 5.645 2.869 2.453 6.932 5.132 7.257 8.871 1.852 2.314 5.368 2.964 5.241 7.258 4.338 1.978 5.159 7.474 8.869 10.08v2.823c1.635.419 2.417.393 3.226-.807a352 352 0 0 1 22.577 22.58h2.419c2.703 4.823 9.243 5.81 11.691 10.888h2.419c1.844 3.396 6.899 3.582 8.466 7.258 1.803.324 2.239-.718 2.419-2.017-3.219-2.156-4.826-5.926-7.256-8.871.24-5.964-3.751-8.831-5.159-12.849-47.918-14.834-104.072-97.471-104.072-197.356M298.731 472.004c.62 3.721 1.139 7.542.618 12.403.263 1.216 1.583 1.373 2.016 2.419-.5 4.328-1.006 11.614.403 15.322h5.241c.846-1.573.958-3.881 2.419-4.838.366-1.98-1.689-1.536-1.612-3.227.929-2.743 2.812-2.496 5.24-3.226.788-.906.352-3.033 0-4.032-.787-.959-2.256.737-3.225-.403 1.311-2.184 3.537-3.452 5.24-5.241v-6.855c2.123-1.236 4.108-2.612 5.646-4.436 2.749.212 5.212.821 5.241-2.419-2.56-.532-3.887-2.297-6.855-2.419.367-4.338 4.625-4.783 4.838-9.274.654-.825 2.975.018 3.629-.806-.874-3.16 1.623-2.947 2.016-4.839-.625-.45-.84-1.311-2.016-1.21v-4.033c2.279-.272 5.796.691 6.854-.806.866-2.446-3.377-3.001-3.629-5.645 2.216-1.571 4.067-1.438 6.854-.807.556-.52.398-1.752.403-2.822-1.509-.861-2.292.047-3.227.806-1.598-4.186 1.41-4.434 1.613-8.468-.043-1.436-2.034-.921-2.016-2.418 2.185-2.252 2.156-6.716 3.629-9.679 1.624.448-.164 2.22.403 4.032 1.25-.041 1.15 1.27 2.821.807 1.799-4.87-.391-10.984-1.209-15.725.16-1.64-1.717-1.241-2.016-2.42.868-3.285-.903-4.878-2.29-6.939q.074 2.207.075 4.475c.003 32.312-25.929 61.601-37.104 72.723M337.649 392.876c.971.165.875-.737 2.016-.403 1.697-3.757-1.265-9.1-4.556-7.029q.105.969.194 1.959c.79 2.109 2.086 3.223 2.346 5.473M177.999 181.589h2.822c.803-2.02 2.833-2.812 2.016-6.451h-2.822c.44 3.262-2.473 3.172-2.016 6.451M334.424 379.167a4.3 4.3 0 0 0-.341-.903q.286 1.586.529 3.255a6.6 6.6 0 0 0-.188-2.352M242.592 299.801c6.869 0 13.369-.537 19.167-1.309-2.866-.374-6.628.499-9.579.434-1.789.042-1.4-2.094-2.823-2.419-4.854.252-10.728-.515-14.916.403-2.214-3.296-10.351-.669-12.498-4.032-1.233-.293-1.186.696-2.419.403-1.308-.17-1.281-1.676-2.419-2.017-1.369.11-3.269-.311-4.032.404-4.07-1.44-6.305-4.715-10.482-6.048-3.606-4.861-10.428-6.505-13.305-12.097-3.158.47-4.916-.459-6.047-2.016h-5.241c-2.541-2.828-5.552-5.185-8.563-7.543 18.438 23.021 34.233 35.837 73.157 35.837M266.709 162.397c.734-.659 1.489-1.252 2-1.775.09-.763-.455-.89-.403-1.613-2.786.367-3.954-.885-4.838-2.419.754-.455 1.942-.477 1.613-2.016-1.128-1.693-3.291-1.167-5.597-.875a41.6 41.6 0 0 1 7.225 8.698M190.094 167.88c.59 1.005 2.17 1.02 2.478 2.305a41.3 41.3 0 0 1 4.338-8.648c-4.372-3.141-8.453 1.43-6.816 6.343M214.283 224.734c1.071-.004 2.303.152 2.822-.404.259 1.219.629 2.327 2.016 2.419 2.981.486 4.525-.467 5.908-1.58a41.2 41.2 0 0 1-11.154-3.438c-.067 1.477-.484 1.916.408 3.003M242.101 224.331c-.049 1.931 1.344 2.42 3.226 2.419-.244-2.105 1.32-2.402 1.563-4.021a41 41 0 0 1-4.644 1.546c-.048.019-.096.041-.145.056M238.472 226.347a7 7 0 0 0 1.836-1.604 42 42 0 0 1-3.235.561c.373.44.758.87 1.399 1.043M190.667 190.994a42 42 0 0 1-.342-2.539 8.9 8.9 0 0 0 .342 2.539M269.516 165.864a4.2 4.2 0 0 0-.887-.029 41 41 0 0 1 1.711 3.93c.097-1.434-.012-2.794-.824-3.901M211.461 146.106c-1.088.437-1.251 1.502-.88 2.431a41 41 0 0 1 2.377-1.293c-.549-.329-1.392-.365-1.497-1.138M253.792 146.509c-.674-.712-1.351.358-2.822 0-.737-1.279.078-4.11-2.016-4.032-1.264.532-1.622 1.968-1.567 3.514a41.3 41.3 0 0 1 7.443 4.023c-.47-1.044-.868-2.16-1.038-3.505M225.168 139.252c-1.386.092-.26 2.696-1.209 3.225-1.235-1.049-2.503-2.066-2.016-4.838-1.272.197-1.423-.726-2.822-.403-1.065 1.086-2.489 1.812-3.628 2.823-.193 1.268.574 1.576.806 2.419-1.127.62-3.206.287-2.822 2.419.455 1.001 1.155 1.268 1.913 1.21a41.2 41.2 0 0 1 12.078-3.063c.318-1.969.306-4.33-2.3-3.792M243.713 142.074c-.74-1.439-4.579-1.842-5.241 0 .205.518.289.983.283 1.409 1.679.295 3.326.683 4.929 1.175.079-.793.12-1.622.029-2.584M295.721 462.23c.023.221.078.407.149.579.077-.703.14-1.394.204-2.087-.187.434-.546.695-.353 1.508"/><path d="M127.604 302.958c.351-2.098-.633-2.861-2.419-2.822-2.097 1.397.191 4.646 2.419 2.822M161.066 518.277c.128-.947.637-1.514.403-2.822-.95.009-1.187-.694-2.419-.403-.232.843-.999 1.15-.806 2.42.872.338 1.376 1.043 2.822.805M111.478 277.959c.234-1.309-.274-1.876-.403-2.822q-3.305-.483-2.822 2.822c.793.8 2.303.256 3.225 0M34.879 299.329c.416 1.332.608 2.887 2.822 2.419.232-.843 1-1.15.806-2.419-.711-1.057-2.917-1.057-3.628 0M115.107 284.007c2.352 2.333 4.963 4.308 6.45 6.855h3.628c2.137-7.605-8.646-8.66-11.691-13.709-3.931 1.893-.208 5.047 1.613 6.854M164.695 523.519c1.137-2.59-1.477-4.626-4.032-4.839-.963 2.592 1.275 4.705 4.032 4.839M282.819 597.308c.177-1.387-.159-2.261-.403-3.227-2.462-.177-3.121 1.448-4.435 2.42-.382 3.647 3.839 2.215 4.838.807M279.595 588.841c-.863-2.212-4.593-5.751-6.854-2.823.337 2.691 4.331 4.87 6.854 2.823"/><path d="M276.772 599.324c-.556.519-.399 1.752-.403 2.822 1.071-.004 2.303.152 2.822-.402q.32-2.74-2.419-2.42M45.764 298.926c-.68 2.603 1.73 2.735 3.225 2.016.481-2.403-1.651-2.815-3.225-2.016M235.65 379.167c.009.95-.694 1.188-.403 2.419.477.464 1.425.456 2.418.403.322-.753.674-1.477.806-2.419-1.271.197-1.422-.727-2.821-.403M107.85 275.539c-.545-2.711-3.189-4.914-6.45-3.629v2.419c3.126-.518 4.42 4.255 6.45 1.21M277.182 410.381c-26.796 0-52.682 46.31-52.682 74.052 0 9.446 1.891 18.739 4.728 27.369-.092-2.06-.219-4.056-.028-6.024-4.025-4.767-1.007-15.106-1.613-22.579 2.938-2.88 1.608-7.3 1.613-12.097 4.862-4.277 5.407-12.872 10.885-16.532 1.141-6.386 7.159-7.894 10.885-11.693h2.822c.2-2.354 1.399-3.709 2.419-5.242 3.688.463 3.788-2.662 6.047-3.629h16.53c1.456 4.156 6.283 7.071 9.272 10.886 1.608.349 2.979-.601 3.629 0 1.501.899-.109 2.979.403 5.243 1.608 1.288 2.795 5.651 1.612 7.257.303 1.311 1.458 1.768 2.419 2.42.014.06.013.105.021.157 2.661-30.209-5.803-49.588-18.962-49.588M317.895 475.536c-2.176 1.476.266 4.571 2.419 2.822.35-2.097-.634-2.86-2.419-2.822M223.959 362.231c-.884-.459-1.648-1.04-3.226-.806-.04 1.25.493 1.926.807 2.822 1.557.079 2.317-.639 2.419-2.016M151.794 232.395c-.232.843-.999 1.151-.806 2.419 1.71 1.227 5.306 1.129 5.241-1.613-.701-1.046-2.677-.816-4.435-.806M229.604 331.587c-2.463-2.287-4.688 1.083-5.241 3.225 2.19 1.765 4.254-1.353 5.241-3.225M227.99 336.022c-2.052.666-6.204 5.921-1.209 6.452.063-2.625 1.882-3.494 2.419-5.646-.326-.346-1.104-.239-1.21-.806"/></g><path fill="#ffc233" d="M242.246 224.276a41 41 0 0 0 4.644-1.546c.02-.135.049-.26.049-.415-2.067-1.253-3.113 1.37-4.693 1.961M271.935 185.622c1.566-4.658-4.499-1.683-4.031-5.242 1.999-.521 1.98.976 3.628.807 1.034-2.92.759-5.704-1.612-6.855-.013-1.468.318-3.058.421-4.567a41 41 0 0 0-1.711-3.93c-1.736.128-2.269 1.459-3.547 2.045-1.595-2.15-.035-3.989 1.628-5.483a41.7 41.7 0 0 0-7.225-8.699c-.953.121-1.931.203-2.87.069-.53-1.316-1.211-2.48-1.784-3.753a41.3 41.3 0 0 0-7.443-4.023c.047 1.336.402 2.754.761 3.744-2.017-.268-3.208-1.361-4.838-2.016.098-1.048.271-2.019.374-3.062a41 41 0 0 0-4.929-1.175c-.026 1.729-1.602 2.742-3.105 3.43-1.391-.49-1.348-2.415-3.628-2.016.089 1.298-.713 1.707-.403 3.226-2.134-.553-2.447-2.929-4.435-3.629.09-.41.198-.917.285-1.45a41.2 41.2 0 0 0-12.078 3.063c1.449-.108 3.116-1.419 3.73-1.21.129.947.637 1.514.403 2.823-3.265 2.514-9.611 1.946-12.901 4.436a10 10 0 0 1-1.062-.148 41.7 41.7 0 0 0-5.816 5.71c.007.029.019.053.024.083.451 2.602-.937 3.363-2.016 4.436a8 8 0 0 0-.843-.698 41.2 41.2 0 0 0-4.338 8.648c.081.34.079.764-.06 1.324-.132-.022-.248-.029-.373-.045a41.4 41.4 0 0 0-2.025 12.799c0 .871.036 1.732.088 2.589.098-.007.191-.016.294-.02a9.4 9.4 0 0 0-.172 1.623c.086.855.205 1.7.342 2.539.604 2.198 1.8 4.067 1.845 7.128l-.014.001c3.547 9.988 10.817 18.206 20.143 22.996.42 0 .836-.004 1.238-.014.007.23.003.435-.005.627a41.2 41.2 0 0 0 11.154 3.438c1.223-.985 2.321-2.096 4.171-2.452 1.249 2.204 3.821 2.014 6.854 1.613.419.245.715.612 1.02.972a41 41 0 0 0 3.235-.561c.869-1.076 1.456-2.432 1.792-4.04 2.793 1.123 3.022-2.209 6.047-2.016.309-3.455 2.896-4.63 5.644-5.645.068-1.815-1.526-1.968-1.612-3.629 1.463-1.762 2.354-4.097 3.628-6.048-1.821-1.673-1.36-5.628-3.225-7.258 2.835.013 3.48-2.165 5.241-3.226 4.585 1.611 8.035 4.356 12.392 6.194a41 41 0 0 0 .895-2.565h-.387c.629-1.175.964-3.038 1.515-4.614.385-2.067.616-4.188.682-6.351a7 7 0 0 0-.986.077"/><path fill="#ffc233" d="M213.074 147.315q-.056-.037-.116-.071a41 41 0 0 0-2.377 1.293c.114.285.273.558.477.794q1.9-.115 2.016-2.016M246.536 547.31c-.994-.054-1.942-.062-2.419.403-.462 1.672.848 1.571.806 2.822 2.077.24 2.227-1.893 1.613-3.225M335.304 387.403q-.09-.99-.194-1.959c-.095.06-.189.102-.283.174.107.687.28 1.258.477 1.785"/><path fill="#ffc233" d="M297.736 465.455c.244 2.271.637 4.394.995 6.549 11.175-11.122 37.107-40.411 37.107-72.721q0-2.268-.075-4.475c-.945-1.406-1.714-3.028-1.339-5.561-.358-.851-1.719-.7-1.613-2.016.723-2.136 1.63-3.828 1.802-5.712a97 97 0 0 0-.529-3.255c-.824-1.585-2.333-1.292-4.094-2.322-2.434-1.426-4.255-3.301-6.048-4.032-1.594.695-.363 2.384-1.612 2.822-2.259-1.505-4.956-2.569-6.855-4.436-3.935 1.345-6.828-1.385-8.466-2.016-1.5-.813-2.1 2.728-2.822 4.032-8.252-.361-15.562.077-21.368 1.613-3.812 3.445-9.638 4.876-12.497 9.274-4.79.854-7.994 3.295-11.691 5.242-1.36-.252-.372-2.854-1.21-3.629-4.236.064-3.871 4.731-6.047 6.854-2.993.232-7.082-.631-8.87.807-.295 1.51-.23 2.254.403 3.628 1.048.624 3.47-.664 4.838.404-2.146 1.213-4.543 2.176-6.853 3.225-.383 10.524-13.689 10.208-12.498 20.969 1.077.267 2.519.168 3.225.806-3.933 2.388-7.359-3.28-12.9-.806-3.591-3.398-13.107-.871-16.53-4.436-.768-2.771 1.004-6.363 0-9.275-.19-.552-1.487-.993-1.613-1.612-1.724-8.552 1.272-17.243 0-26.612-3.654-1.786-1.141-5.542 0-8.064.483-2.23-2.087-1.407-2.016-3.226-.393-2.006 1.63-1.596 2.016-2.823-1.141-6.248 2.287-7.928 1.613-13.709 1.195-1.338 2.341-3.085 1.613-5.242.12-1.359 1.787-1.169 2.016-2.419-.784-2.208.998-3.403 1.613-5.242.419-1.254-.252-2.656 0-3.226.771-1.739 3.058-2.328 2.016-6.451-.355-1.124-2-.957-2.016-2.419 1.873-3.772 7.465-3.823 8.869-8.064 4.01-.425 5.71-3.16 7.66-5.645 3.368.673 4.029 2.074 6.854 1.613 2.023-.331 4.075-2.847 7.66-1.613.455-.621 1.159-.992 1.613-1.613 4.781 1.153 4.444-2.813 8.869-2.016 4.918-3.28 11.105-5.29 16.126-8.467-.772-1.001-1.944-1.464-3.322-1.644-5.798.772-12.298 1.309-19.167 1.309-38.924 0-54.72-12.816-73.156-35.837-1.888-1.479-3.776-2.958-5.548-4.554-2.039-.291-1.524 1.971-3.226 2.016-1.267.059-1.384-1.034-1.612-2.016-6.983-1.483-10.693-6.24-18.142-7.258-1.212-1.074-2.452-2.118-5.241-1.613-1.32-1.375-4.533-2.984-7.257-1.613-6.118-5.172-16.338.456-24.189 0-1.301-.361-.566 1.314-1.21 1.613-1.891-.208-3.352.014-4.544.504 29.951 3.975 47.645 23.341 47.645 45.264 0 12.631-10.016 26.605-10.016 61.76 0 99.885 56.154 182.522 104.07 197.36a8.2 8.2 0 0 1-.485-2.877c-3.319-2.46-2.233-9.326-5.644-11.693 2.685-4.946-3.466-6.778-1.21-11.692-.924-.69-1.621-1.605-2.418-2.42 1.275-2.657.407-5.761-1.613-7.259.597-2.701.54-5.239.431-7.685-2.837-8.63-4.728-17.923-4.728-27.369 0-27.742 25.885-74.052 52.682-74.052 13.159 0 21.623 19.379 18.963 49.587.051.327.012.561-.071.755-.064.693-.127 1.384-.204 2.087.439 1.063 1.656 1.35 1.866 2.644"/><path fill="#ffc233" d="M307.412 367.877c2.344-.045 2.584-3.226 0-3.226-1.012.734-1.012 2.492 0 3.226M246.133 553.76c.917-.291 2.059-.358 2.822-.806.346-1.286-.635-1.247-.806-2.016-1.003-.062-1.249.633-2.016.806z"/><path fill="#545454" d="M395.703 590.05c.551-.793.385-2.303.807-3.226 6.06.66 9.096-4.401 14.916-5.241.438-4.268 4.113-5.296 6.048-8.065-1.713-5.415 4.413-5.92 5.644-9.677-.384-1.228-2.298-.928-2.015-2.823-.061-1.271 1.634-.784 2.015-1.612-.659-3.143-1.096-9.383 1.21-10.888-.247-.559-1.552-.06-1.612-.806 3.496-3.828.531-10.833 2.016-17.339-.474-1.945-2.769-2.069-2.016-5.241-3.008-.858-2.181 2.119-4.838 1.612-1.364-1.544.488-5.374-2.419-6.048.137-1.073 1.006-1.413 1.21-2.42-1.263-3.307-7.34-1.798-6.451-7.258-4.045-.121-5.051-3.282-7.257-5.242q-4.732-1.316-8.063-4.032c-3.611.264-11.52 1.665-13.304-1.209-3.857 2.88-13.305 1.438-19.755 1.209-2.586 2.362-4.599 6.618-9.273 5.646-.555.52-.398 1.752-.402 2.822-.413.933-1.854.835-3.226.807-.787 5.934-7.204 6.235-8.064 12.097-.976.904-2.147 1.616-2.821 2.822 1.841 7.169-4.366 12.773 0 17.339-.22 1.393-1.714 1.513-2.017 2.822.836 2.658 4.124 2.864 4.032 6.451 1.268.452.912.037 2.418 0 1.377 3.12 4.899 8.6.807 11.291.253 2.505 2.581.429 3.628 2.015v8.064c.934.681 3.093.134 3.629 1.211v4.032c2.233 2.47 6.103 3.304 8.063 6.048h3.629c1.137 1.82 1.06 4.854 3.629 5.241 2.193.447 1.288-2.206 3.225-2.016 2.987-.166 3.115 2.529 4.839 3.63 5.9.145 12.724-.344 16.932.402 1.742-.673 2.512-2.324 4.836-2.418"/><path fill="#fff" d="M365.063 579.164c-.293 1.186-1.257 1.699-2.822 1.612-.747-.866-.271-2.954-.402-4.435-1.222.123-1.441 1.247-3.227.807-.243-.966-.579-1.839-.403-3.227-2.825.14-3.338-2.036-5.24-2.821v-4.436c-3.526.57-3.734-2.181-5.645-3.226 2.132-3.526-2.581-4.491-1.209-7.259h10.078c.16-2.126 1.112-3.458 2.419-4.435-.83-2.002-2.447-3.945-5.24-2.822-1.281-2.057.763-2.556.806-4.436-1.128-.618-2.163-1.33-2.821-2.419v-1.21c.858-1.023 2.593-1.17 2.821-2.822-.45-.625-1.31-.84-1.209-2.017 2.098-2.606 3.854-5.552 4.031-10.08 1.314-.392 3.699.237 6.048 0 1.566-2.197 4.342-3.185 4.435-6.854 3.827-1.864 6.063 1.135 8.869 1.613 2.383-2.004 3.967-2.488 8.467-2.017.209-1.001.982-1.437 1.612-2.016 1.256.223 2.628.328 3.628.807.292 1.23-.411 1.468-.402 2.418 2.923.707 4.272 2.984 8.466 2.42.699 1.72 3.006 1.833 2.419 4.839-1.305.173-3.486-.53-3.628.806-.091.764.454.891.403 1.614h3.225c-.963 5.129 4.302 4.029 3.629 8.87 3.22-.129 1.625 4.558 2.016 7.259 1.748.401 2.319 1.98 3.628 2.821.206 1.685-.225 2.732-.806 3.629-1.62-.142-2.95.007-3.226 1.21-.027 2.311 1.218 3.352 2.419 4.434-1.674 4.375-4.425 7.672-9.273 8.872.446 2.193-1.369 2.125-1.21 4.032 3.063-.509 3.126 1.982 4.838 2.822-.909 1.778-1.64 3.734-4.434 3.629-1.721-.774.575-3.062-1.209-3.629-2.237-.489-1.686 1.809-3.226 2.017-2.178.565-2.137-1.09-3.629-1.211-.38.931-.026 1.301-.402 2.823-1.161.048-2.64-.221-3.226.403-.048 1.162.221 2.64-.403 3.226-3.552-.516-3.516-2.621-8.063-1.612.415.929 1.389 1.3 1.21 2.821-.884.46-1.647 1.041-3.226.807-1.155-1.934-4.23-1.95-5.643-3.628-1.26 1.428-1.658 3.717-4.435 3.628-1.342-.967.275-2.402-.808-3.627"/><path fill="#fff" d="M402.96 531.584c.477-.465 1.426-.457 2.42-.403.231.843.999 1.15.806 2.42-1.204 1.572-3.628.352-3.226-2.017"/><path fill="#545454" d="M526.326 343.28c-1.183-.161-1.365-1.323-2.42-1.613.953-7.718-5.56-11.341-10.079-14.919-1.267.346-1.7 1.524-3.225 1.613-5.793-2.271-9.787-6.34-16.932-7.258-.027 1.183-1.232 1.188-1.614 2.016-4.296.08-12.307-2.069-14.109 1.612h-4.838c-6.096 3.312-12.843 5.972-17.336 10.888v2.419c-4.596 3.602-7.183 9.213-10.482 14.112v3.226c-.475.869-.875 1.813-2.016 2.016.849 4.254-1.889 6.845-3.628 9.677.624 1.928.265 3.958-1.612 4.435.361 5.176-2.533 5.956-2.017 10.483-3.018.464-2.982-2.124-4.435-3.226-3.699-.063-4.181-3.345-6.854-4.435.195-1.539-.115-2.574-.807-3.226-3.092 1.125-4.38-.663-6.047-2.016-.966.244-1.839.58-3.225.403-3.102-2.946-7.885-4.211-11.692-6.452.365-3.265-1.101-8.359 1.613-9.274 1.068.41 1.092 1.865 2.016 2.42 2.074.328 1.642-1.851 3.225-2.016 1.658 1.434 4.272 1.91 5.645 3.629 3.015-1.046 4.194.849 6.047 2.017 14.066 1.279 19.234-7.033 19.353-18.548-.606-.604-1.698-.721-2.016-1.613-.311-5.872-3.369-8.997-5.646-12.903-.477-.464-1.424-.456-2.418-.403-5.509-7.126-17.96-7.306-31.044-6.855-1.477 1.747-4.974 1.477-6.047 3.629-5.164-.359-8.982 3.48-12.901 5.645-.191 1.785.556 2.005 0 3.226-2.558 2.952-4.812 6.209-7.256 9.274.768 1.968.09 4.919-1.612 5.645.52 3.209-.602 4.775-2.016 6.048.786 3.126.792 8.452-1.211 10.081 2.509.719 2.198 7.69 0 8.468.828 1.186 2.429 2.373 1.211 4.436-.003 1.48 1.41 1.545 2.016 2.419-.723 8.518 4.105 11.484 8.061 15.322 2.195.448 1.288-2.206 3.227-2.016 3.12 1.315 3.011 5.859 7.659 5.645 1.706 1.789 3.038 3.951 5.241 5.243 4.626-1.926 5.532 1.475 8.064 3.225 1.767 1.222 5.67 1.457 5.644 4.032-.604 2.621-2.56 3.892-4.837 4.839-1.4-.347-1.819-1.676-2.823-2.419-4.709 1.712-5.496-2.078-10.078-1.613-1.605.128-1.093-1.865-2.419-2.016-3.104.518-7.814.685-10.886 0-5.062 2.193-8.477 6.037-12.095 9.677-.128 4.979-3.213 7.001-2.016 13.306.406 1.879 2.762 1.808 2.016 4.839 4.397 1.785 4.109 8.256 7.66 10.887h3.628c1.426.994 2.065 2.773 3.63 3.63 2.576-.292 4.505.063 5.24 1.612h4.837c4.307 3.893 15.154 1.241 22.578 2.017 2.602-1.43 4.524-3.539 8.466-3.629.973-2.656 5.263-1.995 5.645-5.242 4.9-.206 5.762-4.452 8.869-6.452-1.425-3.829 1.1-4.382 3.629-5.241.22-2.94-1.93-8.615 1.209-10.081.326.076.402.405.807.403 3.561 10.551 11.338 16.885 18.142 24.193 1.498.154 1.055-1.634 2.822-1.21 1.548 1.273 2.887 2.758 3.225 5.242h8.467c1.997.288 1.927 2.645 4.837 2.017 1.394-1.296 2.756-2.62 6.048-2.017.426-.311.863-.695 1.286-1.124l-.002.003a75 75 0 0 0 6.113.477c-1.175.322-2.322.499-3.366.241.875 1.664 4.694-.303 7.258.403.596 1.952 4.43 2.9 5.645.806-.318-.791-.689-1.388-1.103-1.832l.002.003a32 32 0 0 0 4.189-.861c1.44 1.087 4.69-.44 4.975-1.744 1.386-.177 2.26.159 3.226.402 3.577-2.336 4.421-7.405 8.063-9.677-.521-3.208.602-4.774 2.016-6.048-.263-1.935-.606-3.413 0-5.242-1.977-4.474-4.835-8.065-8.466-10.887-2.69.595-7.811.709-10.481 0-1.967.973-3.649 3.056-6.451 2.016-1.065 2.943-7.582 5.68-9.676 1.613-5.442 1.62-5.784-4.465-9.676-5.646-.256-2.757-2.211-6.066-4.031-8.468-.197-1.272.727-1.423.402-2.821-2.092-.865-1.697-4.216-3.628-5.243-.194-1.403 1.011-1.408 1.613-2.016v-14.516c1.829-2.202 3.62-4.443 3.628-8.468 2.065-4.52 5.121-8.049 8.869-10.887 3.693.535 4.854.059 6.855-1.613 1.694 1.531 4.694 1.756 6.047 3.629 3.351-.603 6.047-.416 7.257 2.016 4.139-.566 8.905-.502 10.482-3.629 4.086.054 5.131-2.932 7.256-4.838-.396-2.912-.773-5.293 1.613-6.855.094-3.55-.511-5.327-.003-8.467"/><path fill="#fff" d="M438.035 398.521c-1.779-1.311-1.815-4.368-1.613-7.661-1.64-.914-1.94-3.167-4.838-2.822-.051-3.04-3.038-3.145-2.419-6.855-1.922-.248-2.418-1.13-4.032 0-3.282-3.237-6.47-4.079-9.675-7.258-2.006-.393-1.596 1.63-2.822 2.017-2.751-.609-2.81-3.909-4.031-6.049-2.682 1.512-3.685-3.26-6.854-1.209-1.736-.392-1.105-2.53-.806-4.032-2.722-1.848-3.647-5.492-6.047-7.661.1-2.453 3.179-1.928 2.419-5.242.871-.909 1.375.333 2.821 0 .136-.941.414-1.737 1.21-2.017 2.461.495 5.478.436 8.466.404 1.674-1.149 2.395-3.25 4.436-4.032 3.172 2.338 8.402 2.617 10.482 6.048 2.201-.218 2.564-2.274 4.435-2.822v-8.871c.587-1.676 3.229-3.069 1.613-5.646-.866-.747-2.953-.271-4.435-.403-1.001-.768 1.831-1.099 1.209-2.822-1.775-1.612-5.314-4.289-8.466-2.016-.299 1.776 1.305 1.651 1.612 2.822-1.89.51-6.41-3.923-8.87-.403-7.578-3.387-14.299 1.41-20.964 2.419-.699 2.123-2.514 3.131-4.031 4.435v5.646c-3.332 2.815-11.454 9.928-5.24 16.935v6.048c-.249 1.365-2.714.512-3.63 1.21-.595 4.762 6.787 1.546 5.242 7.258 2.942 1.975 5.843 3.989 5.643 8.064 1.472.358 2.148-.712 2.821 0 .595.49-2.11 1.09-1.209 3.225.539.575 2.284.575 2.823 0 1.015-1.009-.463-1.583-.403-2.822.09-.581 1.203-.141 1.209-.806 2.686 1.211 4.433 3.362 6.047 5.645 5.468-.495 8.786 1.16 11.288 3.629.047 1.39-1.658 1.029-1.612 2.419.849 1.217 1.342 1.894 3.226 1.21 2.829 2.412 5.128 5.354 8.063 7.661-.637 2.729-.697 8.167 0 10.886-.48 1.806-2.62 1.951-2.016 4.839-4.352 1.024-7.456 3.296-10.079 6.049-1.255-.358-1.435-1.791-2.419-2.42-1.744.004-1.593 1.902-2.822 2.42-1.681-.067-1.554-1.941-2.822-2.42-2.695-.168-6.103 1.524-6.45-1.612-8.96-.225-19.255-1.785-16.53 9.677 4.45 4.421 11.054 6.688 15.321 11.291 6.224.312 11.009-.386 16.528.402 1.145-2.216 4.955-1.765 6.048-4.032 1.398-.323 1.55.601 2.822.403 1.559-.591 1.478-2.821 4.434-2.016 2.068-1.427 1.939-5.052 4.436-6.049.111-3.786 2.036-5.759 3.628-8.064.133-3.514-.194-8.191 0-10.483-.172-1.113 1.504-.379 1.613-1.209.148-1.599-.37-3.864.402-4.84 3.274.002 3.651 5.648 6.854 3.227-1.62-2.951-2.599-6.542-2.016-11.695"/><path fill="#fff" d="M409.008 391.667c-1.471-.262-2.147.272-2.822.807-.221 2.828 2.499 2.651 3.628 1.209-.411-.53-.395-1.486-.806-2.016M505.766 449.326c.405-2.17 2.754.091 3.628-1.612-.121-2.182 1.139-5.265 4.837-4.838 1.877-1.753 2.321-4.938 4.436-6.452.862-7.314-3.294-9.609-4.839-14.516-2.924-.373-4.892.214-6.046 1.612-.139-1.07-1.059-1.36-2.016-1.612-1.205.677-1.693 2.07-2.419 3.225-.952.527-2.787.171-3.629.807-.757.587-.049 2.639-.807 3.226-1.964.186-4.722-.422-6.047.403-1.632-3.668-8.954-2.729-11.288-.403-1.743-1.617-2.925-3.796-6.048-4.032.618-2.635-1.215-2.817-2.016-4.032.243-.966.579-1.84.403-3.226-2.598-3.586-8.022-4.342-7.258-11.29-1.513-.773-2.669-1.899-3.628-3.226.356-2.301 3.359-3.297 1.612-6.452 4.393-1.234.08-5.628.403-7.258.18-1.165 3.047.358 3.226-.806-.201-3.801 1.31-7.271-.403-9.678-2.531-.515-1.605 2.427-4.031 2.016-.997-2.077 3.119-2.154 2.821-4.838.16-.966-1.836.224-1.209-1.21 2.057-1.404 1.086-3.426 1.209-6.854 3.756-4.174 6.74-9.12 10.886-12.903 4.886 1.263 5.263-3.238 9.272-1.613 1.135-1.015 1.72-2.581 4.031-2.419 1.298.584 1.455 2.309 3.227 2.419 5.557-5.745 11.848 2.152 16.125 5.242 1.713-2.589 1.465-7.138 4.436-8.467-1.433-5.96-6.426-8.358-9.676-12.5h-7.257c-.756-.454-.856-1.563-1.612-2.016-2.559-.265-6.177.532-8.063-.403 1.227-.251 2.06-.896 2.016-2.42-2.117-1.844-6.705-.639-7.66 1.21-5.94-1.103-4.659 5.017-10.885 3.629-1.19 2.036-3.06 3.393-4.436 5.242h-2.419c-3.673 3.45-4.601 9.645-8.063 13.307v2.419c-1.03.448-1.726 1.232-2.016 2.419-.238 1.716.289 2.667.402 4.032-2.782 1.249-1.336 6.728-4.031 8.064-.323 1.398.601 1.55.403 2.822-3.63 2.149-1.409 10.149-2.016 15.322.3 1.179 2.177.78 2.016 2.419.639 2.924-1.826 2.744-2.016 4.838 1.31 2.712.401 3.537 0 5.647-.909 4.771.775 7.76 2.016 9.677-1.483.348-3.058 2.742-1.209 4.032 1.291-.188 1.421-1.535 2.821-1.612v4.032c2.889 1.682 4.401 4.737 7.258 6.45 1.806 11.276 11.88 12.238 20.56 16.129 1.326-.018.965-1.724 2.42-1.612 1.152 1.732 2.283 1.345 4.838 1.21 3.878 2.278 2.02 6.181-.329 8.556 2.205.259 4.239.412 6.114.477 3.06-.839 6.311-2.661 8.435-.379a32 32 0 0 0 4.189-.861c-.358-.272-.61-.699-.668-1.343M399.332 444.085v2.017c1.157.478 2.14.845 3.225.403.234-1.309-.274-1.876-.403-2.823-1.308-.235-1.876.275-2.822.403"/><path fill="#fff" d="M501.33 334.41c.004 1.071-.152 2.303.403 2.822 2.192.271 3.045-1.42 2.419-2.822zM514.23 341.264c-.925 1.067-.925 2.562 0 3.629.517-.56 1.904-.247 2.42-.806v-2.42c-.95.01-1.187-.694-2.42-.403"/><path fill="#545454" d="m340.403 653.697-2.261-14.578c-.391-2.547-2.543-4.311-6.063-5.318a20.4 20.4 0 0 0-3.821-.75q-1.014-.101-1.949-.1c-1.855 0-3.493.286-4.905.875-1.866.771-3.141 1.896-3.67 3.386l-5.091 13.949-5.22-19.644-13.358-1.275.194.744 6.908 26.393c.62 2.403 3.006 4.009 6.844 5.005a20.5 20.5 0 0 0 5.241.661q2.609.004 4.818-.682c2.039-.632 3.41-1.617 3.894-3.06l4.926-14.966 2.895 15.743c.257 1.479 1.388 2.703 3.19 3.705 1.813 1.011 4.007 1.629 6.566 1.873q.91.086 1.866.086.657-.001 1.331-.038c3.906-.224 6.553-1.356 7.676-3.609l12.21-25.299-13.364-1.276zM363.552 634.09l3.08 30.267.537-.054 13.048-1.328-3.083-30.267zM403.658 651.017c-.529.1-1.012.157-1.405.157-1.098-.036-1.429-.3-1.597-.866l-.68-2.649 24.932-6.398-1.839-7.17-24.934 6.395-.678-2.647a1 1 0 0 1-.034-.246c-.009-.391.314-.856 1.41-1.334.327-.176.544-.264.618-.28l22.615-5.801-1.842-7.175-25.776 6.612c-6.758 1.731-10.521 4.431-10.767 8.352q-.014.239-.014.464c0 .384.031.718.109 1.017l4.192 16.353h.001c.695 2.769 3.255 4.147 7.094 4.147h.132c2.313 0 5.145-.437 8.514-1.301l24.074-6.176-1.841-7.17zM448.189 635.168c-.989.484-1.75.701-2.184.697-.388-.021-.45-.086-.55-.258l-9.758-19.952-12.264 5.997 9.979 20.406c1.055 2.2 2.886 3.481 5.253 3.662q.325.025.673.025c2.3-.005 5.314-.856 9.125-2.516q.86-.374 1.998-.932l21.492-10.509-3.165-6.696zM501.102 594.201c-.272-.354-.64-.66-1.081-.939-.927-.564-1.974-.845-3.107-.843-2.671.009-5.8 1.482-9.498 4.316l-7.274 5.583a6 6 0 0 1-.616.432c-1.085.732-1.887 1.037-2.309 1.025a.62.62 0 0 1-.372-.1l-.063-.046-.045-.016h-.001a1 1 0 0 1-.099-.113l-1.183-1.541c-.008-.001-.07-.121-.133-.32.083-.488.492-1.095 1.36-1.757l18.112-13.901-4.509-5.876-20.781 15.949c-4.52 3.477-6.905 6.729-6.925 9.921q.002.57.108 1.131a3.8 3.8 0 0 0 .729 1.594l3.802 4.955c.808 1.054 2.148 1.534 3.832 1.529h.041c3.043-.022 6.288-1.411 9.758-4.071l8.314-6.384c.819-.562 1.482-.802 1.824-.793.227.011.302.054.419.19l1.275 1.663a.6.6 0 0 1 .135.381c.008.294-.232.843-.868 1.525l-.522.558-17.844 13.688 4.507 5.876 20.314-15.593c3.121-2.398 5.282-4.745 6.458-7.087.569-1.138.87-2.221.87-3.25a4.8 4.8 0 0 0-1.028-2.997zM538.618 560.139l-2.232-1.9c-.252-.21-.597-.419-1.07-.672a4.9 4.9 0 0 0-2.366-.601c-1.022 0-2.069.304-3.143.884.26-.814.395-1.59.395-2.333.008-1.676-.71-3.152-2.057-4.285l-1.819-1.549c-1.317-1.121-2.67-1.728-4.035-1.728a4.6 4.6 0 0 0-1.38.213c-2.509.787-5.134 2.869-7.97 6.198l-20.038 23.558.412.35 22.763 19.361 19.634-23.085c3.241-3.823 4.933-7.077 4.941-9.895a5.85 5.85 0 0 0-1.094-3.477 6 6 0 0 0-.941-1.039m-9.757 10.178c.012.382-.266 1.075-.933 1.951l-8.602 10.113c-.556-.511-1.602-1.368-3.21-2.654l8.495-9.99c.948-.965 1.742-1.368 2.138-1.35a.64.64 0 0 1 .427.161l1.435 1.223c.182.164.243.294.25.546m-18.394 4.624-3.081-2.62 8.637-10.15c.493-.578.991-.935 1.48-1.11.225-.081.404-.11.535-.11.165.004.241.038.323.102l1.468 1.248c.211.19.278.337.286.582.011.376-.284 1.059-1.016 1.907zM550.94 538.084c-.817 1.36-1.585 1.89-2.063 1.862-.154 0-.31-.039-.492-.135l-2.408-1.294 12.183-22.679-6.526-3.501-12.179 22.677-2.408-1.293c-.338-.202-.459-.392-.479-.896 0-.302.076-.702.25-1.186.09-.361.172-.577.213-.652l11.045-20.565-6.524-3.501-12.593 23.444c-1.898 3.532-2.875 6.506-2.879 8.973-.004 1.843.574 3.42 1.732 4.605.411.42.779.731 1.149.932l14.875 7.99c.748.399 1.537.612 2.341.612h.013c3.468-.055 6.784-3.583 10.402-10.268l11.761-21.896-6.524-3.503zM555.563 461.122l-4.583 15.376 7.594 15.811.809 1.807.491-.22-.462.276q.063.103.127.2l-12.754-3.8-3.9 13.079.518.155 28.637 8.538 3.901-13.085-13.146-3.918c.621-.264 1.349-.668 2.234-1.199l15.226-9.358 4.597-15.422-19.67 11.779zM581.407 424.256l-2.051 22.915c-.306 1.995-.893 2.622-1.553 2.599q-.072 0-.125-.004l-2.717-.244 2.297-25.64-7.375-.658-2.297 25.636-2.721-.241c-.558-.061-.902-.419-1.029-1.825a4 4 0 0 1-.064-.611c0-.019.002-.037.004-.068l2.082-23.252-7.375-.658-2.375 26.505a34 34 0 0 0-.149 3.145c-.01 5.123 1.392 8.517 4.428 9.792.542.225 1.002.366 1.424.405l16.816 1.506.047-.535-.035.535q.232.019.489.02h.027c2.121 0 3.848-1.316 5.027-3.645 1.201-2.344 1.979-5.75 2.384-10.262l2.217-24.754z"/></svg>