<svg enable-background="new 0 0 612 792" viewBox="0 0 612 792" xmlns="http://www.w3.org/2000/svg"><path d="m27.954 88.759-.001 337.717c0 153.285 124.262 277.546 277.547 277.546s277.547-124.261 277.547-277.546v-337.717z" fill="#ed1c24"/><path d="m558.845 112.961v313.515c0 67.671-26.352 131.291-74.203 179.142-47.85 47.85-111.471 74.202-179.142 74.202s-131.291-26.353-179.142-74.202c-47.851-47.85-74.203-111.471-74.203-179.142 0 0 0-271.8.001-313.515z" fill="#fff"/><g fill="#ed1c24"><path d="m397.168 342.804c0-42.299-31.322-82.857-89.482-82.857h-103.87v230.592l63.922 41.684v-108.578l65.934 104.65 52.234-42.639-44.561-67.773c26.165-2.963 55.823-39.934 55.823-75.079zm-94.109 36.28h-35.32v-68.113h35.32c16.834 0 26.695 16.57 26.695 34.01 0 17.525-9.861 34.103-26.695 34.103z"/><path d="m105.881 145.531v120.784h67.848c0-19.101 0-37.273 0-52.936h263.543v226.751c0 72.659-59.112 131.771-131.771 131.771-71.346 0-129.624-56.996-131.708-127.846h-67.861c2.091 108.434 90.634 195.695 199.568 195.695 110.246 0 199.619-89.373 199.619-199.619v-294.6z"/></g></svg>