<svg enable-background="new 0 0 612 792" viewBox="0 0 612 792" xmlns="http://www.w3.org/2000/svg"><g fill="#ed1c24"><path d="m157.691 484.379h101.502v-44.056h-47.388v-131.487h-54.114z"/><path d="m274.018 381.328h45.551v102.855h-45.551z"/><path d="m339.807 484.184h45.556v-31.202h.277l21.814 32.034h34.515v-103.688h-45.561v34.379h-.275l-23.743-34.379h-32.583z"/><path d="m497.245 432.134-40.176 52.05h49.427l15.737-20.435 16.293 20.435h49.84l-41.419-52.323 38.937-50.533h-49.428l-14.499 18.914-15.185-18.914h-49.703z"/></g><path d="m157.761 385.552-11.027 32.811h-.266l-11.022-32.811h-31.899c-8.938-2.078-19.222-3.331-28.439-3.331-31.213 0-47.417 11.29-47.417 33.209 0 30.012 38.783 26.826 38.783 38.642 0 3.19-3.187 5.582-7.304 5.582-8.766 0-18.994-6.508-24.837-15.806l-10.76 33.077c14.08 5.445 28.823 7.436 45.291 7.436 29.291 0 44.677-9.932 47.178-27.273l9.31 27.416h42.503l33.605-98.952zm-86.24 25.886c0-3.455 2.391-5.84 7.704-5.84 8.769 0 17.41 5.018 23.983 13.701l4.115 12.117c-12.116-9.659-35.802-13.234-35.802-19.978z"/><path d="m235.067 328.043-16.926 5.709v-12.148l40.302-12.015v64.278h-23.376z"/><path d="m330.135 319.409c-13.51 0-24.597 5.519-24.597 12.254 0 6.706 11.087 12.207 24.597 12.207 13.511 0 24.575-5.501 24.575-12.207 0-6.735-11.065-12.254-24.575-12.254zm-20.741 52.651 25.968-19.467c-3.405.322-5.851.507-10.478.507-24.96 0-41.503-9.731-41.503-21.156 0-12.428 17.332-22.355 46.754-22.355 31.432 0 46.756 11.52 46.756 20.953 0 6.933-3.632 11.634-11.701 18.25l-32.847 27.284z"/><path d="m445.147 358.732h-59.459l42.316-47.842h22.994l-33.266 37.402h27.415v-15.137h22.145v15.137h17.528v10.44h-17.528v15.135h-22.145z"/><path d="m542.818 319.409c-13.487 0-24.592 5.519-24.592 12.254 0 6.706 11.105 12.207 24.591 12.207 13.487 0 24.587-5.501 24.587-12.207 0-6.735-11.099-12.254-24.586-12.254zm-20.74 52.651 25.97-19.467c-3.432.322-5.842.507-10.472.507-24.982 0-41.512-9.731-41.512-21.156 0-12.428 17.32-22.355 46.753-22.355 31.442 0 46.755 11.52 46.755 20.953 0 6.933-3.61 11.634-11.691 18.25l-32.833 27.284z"/></svg>