<svg xmlns="http://www.w3.org/2000/svg" viewBox="0 0 612 792"><path d="M307.505 112.925c-156.573 0-283.47 126.9-283.47 283.472 0 156.522 126.897 283.458 283.47 283.458 156.522 0 283.46-126.936 283.46-283.458 0-156.572-126.938-283.472-283.46-283.472"/><path fill="#fff" d="M307.503 581.631c-102.318 0-185.244-82.952-185.244-185.237H35.031v.001c0 150.45 121.974 272.463 272.474 272.463 150.45 0 272.464-122.013 272.464-272.462v-.002h-87.228c0 102.285-82.952 185.237-185.238 185.237"/><path fill="#fff" d="M410.75 270.764v125.63h81.991c0-102.317-82.952-185.246-185.238-185.246-102.318 0-185.244 82.928-185.244 185.246h81.991v-125.63z"/><path d="M98.146 480.858c-.687.195-1.365.391-1.994.672-.29.109-.561.109-.838.305-.277 0-.529.195-.816.195l-6.047 2.153c-1.256.581-2.512.972-3.722 1.373-1.259.575-2.466.966-3.703 1.497-1.272.445-2.514.841-3.719 1.395-1.264.418-2.498.809-3.708 1.329l-5.534 2.095-.711.309-5.035-13.666c.378-.195.83-.391 1.316-.575.45-.142.925-.206 1.446-.401a14 14 0 0 1 1.389-.549c.486-.059.933-.232 1.386-.428l7.601-2.734 6.603-2.344 6.917-2.539 1.025-.391c-.162-.185-.303-.282-.455-.391a4 4 0 0 0-.483-.586c-.003 0-.038-.115-.098-.195-.038 0-.103 0-.149-.18-.382-.406-.768-.797-1.158-1.383-.391-.391-.684-.977-.882-1.563-.095-.195-.073-.391.041-.586.122-.195.287-.38.532-.391.211-.093.406-.19.545-.147.157.054.344.147.529.342.114.195.306.391.501.667.196.31.432.7.768 1.091a39 39 0 0 1 1.777 2.539c.583.781 1.169 1.563 1.741 2.354.296.417.562.89.828 1.356.26.391.545.781.789 1.172l5.428 7.427c-.694.257-1.424.577-2.11.778M80.429 517.571l.684-.391 6.291-3.32 7.644-4.102 6.841-3.711 6.275-3.516 1.096-.586a2.6 2.6 0 0 1-.274-.586c-.087-.113-.139-.195-.15-.195-1.664-3.125-4.185-5.268-7.506-6.256-3.32-1.166-6.6-.775-9.822.955-1.877 1.004-3.166 2.566-3.847 4.52-.686 2.1-.55 3.923.407 5.681.106.19.217.38.372.58.135.195.293.391.428.586.255.239.489.537.746.77.291.195.526.391.781.586.329.195.554.391.681.407.112.179.196.179.264.374h.029a.75.75 0 0 1 .039.581c-.044.13-.193.211-.361.396-.434.195-.928.136-1.482-.195-.539-.391-1.068-.891-1.532-1.367-.355-.391-.635-.748-.863-.982-.26-.385-.455-.742-.586-.971q-1.767-3.224-.564-7.025c.844-2.463 2.42-4.297 4.799-5.659 3.518-1.845 7.186-2.153 10.943-.982 3.773 1.28 6.692 3.716 8.721 7.492 2.268 4.221 2.658 8.333 1.148 12.5-1.503 4.199-4.598 7.541-9.319 10.075-4.554 2.387-9.185 2.951-13.932 1.584-4.725-1.34-8.301-4.118-10.666-8.594a12.35 12.35 0 0 1-1.579-5.203c-.174-1.845.098-3.407.79-4.774a.5.5 0 0 1 .187-.275c.04-.115.103-.125.149-.3.084-.011.179-.206.285-.238.122-.163.219-.163.298-.271.247-.087.537-.087.83-.087q.444.277.689.586c.082.195.092.195.092.391 0 0-.013.195-.062.201-.049.385-.228.775-.456 1.166-.255.391-.461.961-.716 1.563-.29.781-.42 1.715-.393 2.751.021 1.155.455 2.522 1.291 4.085.079.195.149.223.23.391.041.087.106.195.204.212.098.189.195.374.301.569.125.195.287.386.507.586h.068zM106.306 558.196l-8.523-11.447c.418-.272.849-.646 1.302-.879.488-.374.963-.748 1.408-1.09.447-.256.922-.647 1.391-1.01.464-.228.926-.618 1.395-.987-.499-.603-1.029-1.329-1.554-1.974-.494-.631-1.029-1.363-1.533-2.025-.524-.71-1.023-1.404-1.557-2.072-.527-.597-1.015-1.356-1.506-1.953-.586-.78-.933-1.372-.987-1.763-.084-.391.048-.722.401-.972.196-.179.491-.2.882-.2h1.269c.141 0 .293 0 .431.005.153.012.321.017.486.017.391.151.757.179 1.134.179.372.044.681.19.906.19l34.536 3.749-1.465 1.14-6.845 5.077-7.083 5.078-4.272 3.229-3.336 2.582c-.025.044 0 .044.005.061.043.01.049.099.098.18-.006 0 0 .016.035.031.013.087.013.163.057.163.005 0 .04 0 .054.005 0 .017.003.022.089.022.009.033.009.131.052.169.051 0 .087.017.152.049.187.287.342.537.523.732.164.195.356.391.551.586.182.195.339.407.524.612.16.201.355.435.505.717.165.233.244.429.287.624.006.222-.141.417-.391.612-.355.364-.632.369-.827.364-.195-.169-.534-.423-.977-.977l-2.108-2.93zm-1.66-16.406 8.813-6.564-14.859-1.639c.197.392.422.613.623.973.231.39.448.611.692.98.244.348.442.598.67.972.201.227.451.592.646.905.295.397.586.723.857 1.069.258.374.551.76.868 1.15.269.391.526.775.814 1.106.29.336.567.678.824 1.065zM124.421 576.833l.537-.479 5.127-5.077 6.196-6.061 5.512-5.469 5.035-5.072.879-.96c-.171-.186-.293-.239-.396-.407-.128-.121-.19-.195-.261-.195-2.468-2.539-5.433-3.841-8.916-3.901-3.51-.174-6.546 1.123-9.172 3.706-1.511 1.482-2.319 3.32-2.393 5.469-.089 2.142.586 3.906 2 5.306.149.168.295.353.491.543.195.043.39.223.586.401.293.189.599.233.93.407.334.173.627.319.923.374.358.188.607.212.781.227.124.164.246.164.295.19l.052.093a.48.48 0 0 1 .195.461c-.003.201-.092.391-.247.565-.339.255-.827.418-1.467.217-.629-.191-1.267-.553-1.853-.944a12 12 0 0 1-1.12-.619c-.345-.352-.589-.563-.784-.758-1.799-1.774-2.629-3.929-2.536-6.62.097-2.576 1.12-4.791 3.027-6.678 2.84-2.897 6.25-4.222 10.207-4.097 3.994.195 7.474 1.758 10.477 4.709 3.374 3.489 4.907 7.363 4.649 11.691-.293 4.406-2.343 8.442-6.147 12.3-3.659 3.565-7.959 5.469-12.89 5.469-4.929.038-9.134-1.726-12.647-5.251a14.4 14.4 0 0 1-3.016-4.516c-.646-1.752-.841-3.313-.578-4.877.03-.145.033-.2.082-.357.046-.032.07-.195.097-.233.046-.163.125-.255.193-.391.051-.163.146-.19.23-.336.198-.19.448-.244.749-.244.339 0 .621.151.836.391.089.026.138.19.176.211.011.18.011.196.011.369.041.228-.003.619-.109 1.172-.133.424-.192.982-.279 1.596-.03.89.095 1.801.439 2.902.339 1.064 1.12 2.208 2.39 3.516.098.092.195.189.293.271.098.119.19.146.293.222.141.125.293.287.442.375.144.103.383.304.632.493zM238.904 583.989a94 94 0 0 1-2.148 5.49c-.687 1.91-1.427 3.673-2.146 5.426-.781 1.801-1.481 3.716-2.252 5.469-.681 1.801-1.375 3.662-2.056 5.469l-3.504 9.375-4.206 11.127-3.412 9.527.977.319 8.984 3.435c.684.348 1.451.586 2.148.83.781.331 1.482.537 2.232.781.307.146.67.299.985.348.39.184.781.244 1.171.385 1.078.418 2.149.819 3.226 1.178a96 96 0 0 1 3.22 1.204c.114.011.296.151.431.157.155.055.35.163.492.195.349.195.686.439.938.781.287.369.385.781.192 1.215-.203.543-.491.863-.881.934-.367 0-.89-.136-1.658-.391l-1.077-.391-46.791-17.768a86 86 0 0 1 1.392-3.521c.483-1.313.976-2.539 1.478-3.9.475-1.178.963-2.496 1.473-3.711.535-1.216 1.026-2.507 1.474-3.717l3.667-9.369 5.553-14.648 4.31-11.709 1.411-3.716zM295.928 599.402l-1.666 11.909-1.85 14.447-1.616 12.957-1.606 13.41-.128 2.002-25.944-3.212.48-3.087c.402-3.32.792-6.641 1.281-10.01.423-3.412.879-6.738 1.269-10.107.424-3.293.879-6.625 1.302-9.961.453-3.314.895-6.651 1.335-10.092l1.267-12.207.293-2.3 25.944 3.315zM362.085 617.8c-.033-.629-.186-1.221-.195-1.813 0-.58-.06-1.16-.195-1.752 0-.57-.071-1.031-.195-1.535-.158-1.34-.299-2.621-.488-3.933-.195-1.361-.342-2.734-.488-4.096-.195-1.324-.391-2.539-.586-3.906-.195-1.361-.391-2.691-.586-4.021 0-.667-.136-1.248-.195-1.796 0-.434-.131-.824-.195-1.015v-.391c0-.195-.049-.325-.098-.39-.023-.566.098-.988.108-1.531.185-.423.575-.646 1.161-.786.656-.027 1.172.017 1.367.363.357.38.559.972.586 1.954l.977 8.002 1.086 9.766c.281 2.734.509 5.268.867 7.465.195 2.289.467 4.248.71 5.859.267 2.295.537 4.498.853 6.804.391 2.327.591 4.633.977 6.874.336 2.344.586 4.633.977 6.977.195 2.219.586 4.481.781 6.5a1040 1040 0 0 0-27.984-12.148 1085 1085 0 0 0-28.603-11.345l.317 1.959 1.392 10.15c.182 1.031.228 2.083.393 3.076.193.993.391 1.872.553 2.811.03.998.227 1.975.418 2.962.084.966.193 1.953.389 2.925 0 .699.129 1.172.195 1.654 0 .439.07.722.195 1.01 0 .574 0 .992-.195 1.383s-.775.592-1.361.722c-.587.06-1.037-.071-1.371-.325-.279-.201-.469-.727-.584-1.509v-.255c-.341-2.316-.588-4.671-.829-7.031a173 173 0 0 1-.737-7.172c-.337-2.35-.576-4.742-.847-7.086-.271-2.35-.564-4.791-.857-7.178a113 113 0 0 1-.586-4.894c-.293-1.942-.586-4.14-.974-6.673-.394-3.413-.687-6.061-.955-7.954-.219-1.812-.431-3.56-.708-5.067a38 38 0 0 0-.351-2.457c-.141-.906-.328-1.9-.515-2.974 7.213 3.218 14.554 6.375 21.808 9.468 7.227 3.125 14.648 6.104 21.875 9.174l12.891 5.127c-.003-.628-.149-1.22-.198-1.952M416.962 593.343l1.362.83 11.523 7.221c3.711 2.414 7.422 4.649 11.134 6.793 3.737 2.143 7.508 4.15 11.175 6.098l-27.371 13.092-4.074-2.594-9.538-6.201c-.835-.439-1.633-.961-2.414-1.41-.835-.592-1.758-1.15-2.544-1.715a35 35 0 0 1-2.534-1.563c-.906-.439-1.758-1.019-2.539-1.563-.569 1.715-.977 3.375-1.367 5.078-.391 1.715-.765 3.467-1.004 5.11-.098.244-.168.505-.168.7s-.179.391-.195.586c-.006.44-.195.977-.195 1.367-.195.461-.195.977-.391 1.427-.076.532-.211 1.552-.444 3.071a74 74 0 0 1-.906 4.877c-.017.276-.017.586-.136.836-.076.336-.076.586-.108.922q-.537 2.637-1.335 4.688c-.391 1.264-.96 2.023-1.367 2.322a1.4 1.4 0 0 1-1.172.076c-.391-.055-.601-.25-.781-.575-.195-.261-.195-.706-.195-1.254.059-.569.195-1.215.386-1.888q.006-.309.005-.586c.044-.195.195-.38.195-.45.195-.613.354-1.161.401-1.747.185-.531.288-.922.38-1.172l5.664-25.189c-3.506-2.154-6.982-4.422-10.53-6.598a604 604 0 0 0-10.558-6.293l-10.938-6.641 26.958-13.038c1.747 1.161 3.31 2.301 4.9 3.38 1.725 1.064 3.293 2.143 5.051 3.218l10.959 7.08c.95-3.375 1.732-6.853 2.35-10.368.754-3.521 1.346-7.064 1.969-10.585.43-2.306.738-3.857.929-4.688.2-.781.515-1.361.786-1.692.142-.06.195-.131.217-.223.169-.016.18-.038.369-.038.391-.195.781-.282 1.188-.163.478.163.765.397.955.781.2.413.261.944.222 1.373-.011.554-.022.972-.222 1.524 0 .038 0 .201-.038.364-.125.06-.142.227-.142.319-.792 3.348-1.627 6.685-2.463 10.032-.847 3.342-1.541 6.673-2.235 9.998-.2.961-.391 1.753-.591 2.566-.191.879-.392 1.721-.581 2.545v-.04zM503.096 547.449l6.255 4.883c.949.612 1.742 1.172 2.523 1.458.781.305 1.562-.074 2.381-1.067 1.178-1.563 1.932-3.131 2.214-4.851a15.6 15.6 0 0 0 .136-4.492c-.043-1.367-.244-2.501-.537-3.407-.25-.917-.287-1.508-.098-1.779.201-.271.391-.31.678-.31.305 0 .543.006.874.195.212.211.439.602.667 1.183.277.591.397 1.356.522 2.056.016.081.031.146.031.271 0 .017.012.195.018.206.146 1.541.146 2.94-.18 4.482-.26 1.563-.656 2.935-1.356 4.297-.271.586-.493 1.074-.862 1.579a8 8 0 0 1-.971 1.546c-2.437 3.125-5.632 4.925-9.56 5.468-3.917.581-7.433-.39-10.558-2.896-3.147-2.376-5.057-5.588-5.518-9.604-.538-3.905.412-7.421 2.783-10.546 2.625-3.499 5.973-5.268 9.961-5.632 3.928-.227 7.611.961 10.975 3.586-.818 1.091-1.752 2.246-2.582 3.418a34 34 0 0 0-2.533 3.315c-.896 1.101-1.758 2.175-2.545 3.325-.934 1.172-1.752 2.258-2.691 3.332zm-3.294-10.72c-.037-.017-.195-.093-.233-.212-.152-.005-.195-.168-.32-.195-1.047-.781-1.986-1.193-2.609-1.372-.781-.191-1.574.391-2.67 1.714-.772 1.02-1.041 1.802-.824 2.398.211.602 1.15 1.568 2.745 2.838l5.887 4.578c.169-.2.342-.391.526-.591.195-.191.385-.391.488-.581.141-.2.314-.391.488-.591.195-.19.385-.391.439-.581.379-.488.732-.976 1.123-1.372.244-.526.586-.972.971-1.362zM530.624 521.477c1.41.803 2.191 2.145 2.344 3.906.189 1.753-.358 3.516-1.509 5.285-1.183 1.937-2.55 3.309-4.107 3.895-1.487.695-2.978.586-4.443-.363-1.471-.813-2.252-2.176-2.426-3.922-.151-1.748.396-3.531 1.59-5.485 1.172-1.932 2.518-3.125 4.053-3.706 1.563-.59 3.125-.547 4.541.391zM528.866 484.569a50 50 0 0 0-1.715-2.344c-.586-.781-1.172-1.563-1.769-2.343-.575-.782-1.183-1.564-1.769-2.345-.592-.78-1.188-1.563-1.774-2.344-.245-.25-.542-.586-.635-.781-.157-.195-.304-.391-.347-.586 0-.195-.071-.358-.006-.391.006-.195.006-.305.049-.391.147-.354.348-.549.586-.586.336-.185.543-.162.809 0 .135.037.315.195.516.391.19.195.434.586.824 1.172.146.005.174.195.348.391.146.195.238.391.434.684l22.271 31.342-42.839 3.516 7.628-16.01 23.085-1.726zM550.735 477.158c1.563.58 2.539 1.747 2.978 3.499.526 1.568.342 3.51-.439 5.475-.781 2.143-1.898 3.705-3.282 4.611-1.395.862-2.864 1.053-4.476.467-1.617-.592-2.594-1.758-3.125-3.326-.445-1.752-.25-3.689.531-5.81.781-1.996 1.904-3.559 3.32-4.34 1.367-.977 2.93-1.167 4.492-.532v-.044z"/><g fill="#fff"><path d="M95.705 337.397c5.138.844 8.938 3.874 11.29 9.001 2.384 5.122 2.952 11.469 1.701 18.898-.534 3.313-1.585 6.438-3.068 9.202-1.506 2.805-3.513 5.343-5.971 7.585-.971.884-1.842 1.517-2.528 1.874-.732.377-1.31.572-1.757.47a1.7 1.7 0 0 1-.975-.587c-.219-.336-.303-.678-.26-1.011.065-.427.649-.996 1.72-1.723 1.063-.781 2.249-1.852 3.521-3.218 1.353-1.367 2.634-3.03 3.906-4.983 1.267-1.953 2.149-4.394 2.629-7.139.244-1.65.198-2.917-.19-3.798-.377-.904-1.037-1.466-2.01-1.645-2.067-.309-4.631.57-7.756 2.62-3.122 2.149-6.521 4.395-10.153 6.934a92 92 0 0 1-11.632 6.738c-4.058 1.931-7.997 2.537-11.898 1.905-5.084-.828-8.958-3.758-11.524-8.643-2.615-4.98-3.32-10.815-2.219-17.575.483-2.9 1.264-5.564 2.344-7.94 1.077-2.412 2.417-4.466 3.998-6.218q.306-.294.586-.586c.182-.188.377-.358.589-.569.657-.508 1.251-.945 1.861-1.283.654-.296 1.139-.397 1.46-.345.366.049.656.244.854.534.217.296.296.681.223 1.077-.028.166-.421.586-1.248 1.302-.806.746-1.709 1.686-2.759 2.884a27.5 27.5 0 0 0-2.865 4.213 15.6 15.6 0 0 0-1.953 5.561c-.266 1.369-.16 2.636.304 3.612.469.977 1.185 1.563 2.24 1.747 1.978.305 4.62-.574 7.914-2.726 3.25-2.154 6.79-4.588 10.574-7.127a123 123 0 0 1 8.759-5.46c3.011-1.663 5.93-2.74 8.786-3.326a24 24 0 0 1 2.832-.391c.92-.038 1.856 0 2.762.185zM113.065 308.361c.858.39 1.65.781 2.458 1.172.789.377 1.584.689 2.403.984.782.383 1.563.773 2.347 1.155.811.328 1.56.697 2.309 1.064l-10.957 23.457-2.382-1.077-15.136-7.262-13.673-6.502-11.029-4.94-8.795-4.042-1.562-.689 8.189-17.578a228 228 0 0 1 5.22-10.249c1.627-2.853 3.125-5.292 4.557-7.248 3.214-4.544 7.606-7.518 13.183-9.03 5.572-1.49 10.878-1.042 15.867 1.253 6.198 2.919 10.398 7.454 12.538 13.645 2.135 6.163 1.671 12.5-1.316 18.959a43 43 0 0 1-1.59 2.929 55 55 0 0 1-1.782 2.835c-.1.247-.241.45-.382.61a2 2 0 0 0-.391.615zm-40.413-18.943 2.525 1.172 13.363 6.351 11.561 5.469c.898.421 1.782.863 2.637 1.264.879.392 1.717.782 2.588 1.173.887.393 1.761.788 2.601 1.172.86.391 1.728.78 2.621 1.172.738-.874 1.489-1.953 2.271-3.217a41 41 0 0 0 2.275-4.225c2.567-5.542 2.835-11.011.869-16.48-2.035-5.395-5.76-9.413-11.307-12.01a35 35 0 0 0-1.435-.586 24 24 0 0 1-1.5-.487c-2.93-.708-6.014-.801-9.239-.224-3.25.54-6.02 1.688-8.353 3.435-1.744 1.213-3.304 2.721-4.665 4.416-1.349 1.744-2.553 3.592-3.668 5.51-.54 1.017-1.072 2.069-1.584 3.07-.516 1.068-1.004 2.054-1.484 3.063zM156.675 217.459c6.359 5.759 9.687 12.888 10.051 21.379.315 8.499-2.417 15.921-8.204 22.353-5.542 6.082-12.573 9.361-21.123 9.757-8.54.407-15.923-2.227-22.108-7.822-6.345-5.735-9.671-12.858-10.059-21.348-.385-8.499 2.298-15.923 8.078-22.265 5.691-6.283 12.774-9.609 21.268-9.972 8.496-.386 15.863 2.257 22.16 7.97zm-43.655 6.526a569 569 0 0 0 5.518 5.189c1.831 1.666 3.686 3.383 5.542 5.049a343 343 0 0 0 5.468 5.106c1.855 1.662 3.709 3.322 5.561 5.023a791 791 0 0 0 4.883 4.422 177 177 0 0 0 4.004 3.532l6.538 5.773 3.911 3.426c.293-.105.489-.23.679-.396.157-.1.298-.293.463-.426.128-.16.225-.277.386-.455.132-.12.293-.302.488-.516 5.466-6.03 8.032-12.942 7.663-20.68-.309-7.753-3.458-14.347-9.386-19.715-5.761-5.22-12.518-7.611-20.255-7.17-7.72.432-14.261 3.616-19.594 9.514-.252.266-.445.485-.586.648-.184.178-.293.374-.426.575a3.4 3.4 0 0 0-.399.523c-.132.166-.238.387-.396.621zM216.302 208.86c3.367-.578 6.688-1.362 10.002-2.434.396-.195.781-.238 1.072-.144.295.098.496.298.691.591.196.339.217.719.09 1.074-.188.345-.499.722-1.066 1.022-1.479.874-3.296 1.563-5.371 2.045a38 38 0 0 1-6.506.96 73 73 0 0 1-5.129.163 89 89 0 0 1-5.16-.145 139 139 0 0 1-4.788-.334c-1.557-.149-2.929-.27-4.134-.447l6.579 11.176-22.196 13.144-.971-1.614-7.007-11.966-8.301-14.374-6.776-11.266-5.718-9.463-.781-1.277 14.746-8.73c6.635-3.862 11.718-6.6 15.326-8.211 3.614-1.646 6.899-2.634 9.766-3.014 4.687-.616 9.158.13 13.373 2.265 4.203 2.127 7.615 5.341 10.13 9.546 2.235 3.81 3.236 8.055 2.957 12.793-.293 4.724-1.726 8.955-4.387 12.686-.352.49-.7.942-1.082 1.377-.309.448-.683.874-1.061 1.284a14 14 0 0 1-1.91 1.749 34 34 0 0 1-2.774 1.942c3.561.288 7.012.142 10.386-.398m-14.426-.182c.212-.087.396-.163.51-.255.1-.049.196-.117.29-.144.079-.051.174-.1.272-.184 5.477-3.23 9.028-7.68 10.734-13.331 1.676-5.62.995-10.993-2.021-16.08-2.344-3.893-5.564-6.79-9.761-8.675-4.133-1.853-8.398-2.309-12.627-1.332-2.107.483-4.221 1.212-6.418 2.132-2.241.952-4.88 2.319-8.005 4.08l1.074 1.991 7.007 12.308 6.038 10.357 3.868 6.586c.074.095.096.145.144.168.008.03.033.061.033.122.125.195.268.396.383.591.1.196.295.486.593.848.69.179 1.341.324 1.837.423.499.102.977.194 1.386.288a.85.85 0 0 0 .358.103c.103 0 .222.024.396.078.412.02.827.064 1.297.117q.725.078 1.755.154c.372-.125.624-.247.857-.345M252.473 143.329l.491 2.187 2.832 10.685 3.223 12.221 4.199 15.257c.974 3.298 1.66 5.873 2.243 7.798.491 1.875.871 3.134.98 3.763.095.152.102.347.195.591.092.232.19.451.29.733l-24.997 6.879c-.293-1.177-.646-2.384-.977-3.559-.301-1.219-.626-2.436-.89-3.697-.377-1.175-.672-2.357-.963-3.563a68 68 0 0 0-.976-3.673l-4.894-18.221-3.22-11.025-2.723-9.459c-1.172.361-2.344.738-3.513 1.107-1.156.334-2.29.688-3.44 1.08-1.25.391-2.422.781-3.594 1.104-1.172.366-2.344.7-3.516 1.044-.697.196-1.272.196-1.671.036-.398-.133-.675-.494-.846-.984-.128-.554-.087-1.005.174-1.298.293-.311.822-.586 1.608-.792l.936-.477 50.277-13.835 1.568-.325c.879-.189 1.516-.202 1.953-.096.391.114.681.494.876 1.099.101.462.046.853-.195 1.153-.29.312-.841.586-1.628.795-1.18.331-2.324.654-3.45.941-1.169.279-2.341.531-3.443.801-1.144.287-2.27.594-3.393.873-1.169.298-2.341.597-3.513.909zM338.018 155.168a112 112 0 0 0 2.388-4.194 396 396 0 0 0 2.344-4.378c.781-1.396 1.563-2.848 2.344-4.283.781-1.402 1.563-2.846 2.344-4.246.391-.686.586-1.256.841-1.646.331-.39.526-.678.722-.859.195-.209.391-.348.586-.404s.391-.078.656-.075c.516.019.906.191 1.297.547.391.31.564.719.515 1.27-.026.218-.124.526-.319.944-.195.421-.586 1.044-1.15 1.999-.022.168-.217.393-.412.708-.195.334-.391.714-.781 1.164l-33.008 55.539-34.411-63.566 29.733.896 18.154 34.511zM385.257 169.518a139 139 0 0 1-1.107 3.458l-3.635 11.094-4.568 14.447-.781 2.333 13.867 4.313c.429.254.977.477 1.563.64.586.188 1.172.331 1.73.472.467.157 1.004.353 1.59.542s1.172.358 1.671.54l2.903.871c.895.354 1.496.7 1.871 1.028.386.301.391.743.195 1.283-.195.624-.493.96-.96.99-.401.07-1.259-.163-2.751-.615l-1.302-.445-45.763-15.077.586-2.148 4.529-13.472 4.748-13.739c.684-2.08 1.389-4.227 2.051-6.375.678-2.148 1.367-4.301 1.953-6.489.667-2.103 1.367-4.25 1.953-6.399.781-2.148 1.378-4.299 2.148-6.447l42.763 13.968 2.153.713c.781.361 1.172.676 1.367 1.004.228.328.348.724.195 1.218-.199.57-.51.891-.781 1.021-.391.146-.977.081-1.654-.149l-.108-.148-2.127-.738-8.61-3.074-9.375-3.148-4.297 12.508 1.168.365 8.793 2.829 8.61 2.646c.179.12.369.212.58.283.348.102.57.138.863.194.276.073.489.13.688.195.191.074.391.131.581.196 0 .031.136.043.2.102.19.022.19.043.217.089 1.146.333 1.889.692 2.127.979.363.32.391.773.191 1.303-.191.558-.554.886-.972 1.014-.423.125-1.172.024-2.153-.319-.972-.331-1.953-.639-2.925-1.016-.977-.316-1.953-.68-2.93-.981-.977-.347-1.953-.678-2.93-1.022-.977-.345-1.953-.673-2.93-1.001l-8.984-3.052-.977-.301c-.393 1.179-.881 2.35-1.234 3.517M443.324 236.429c1.926 2.886 3.923 5.604 6.25 8.173.391.296.586.627.586.942 0 .304-.055.594-.266.884-.293.323-.516.491-.906.491-.39.005-.949-.168-1.367-.56-1.503-1.004-2.794-2.349-4.102-4.061-1.286-1.698-2.414-3.556-3.499-5.599-.787-1.471-1.552-3.033-2.165-4.634-.781-1.621-1.367-3.189-1.953-4.756-.586-1.561-1.172-3.1-1.628-4.531-.521-1.46-.911-2.781-1.301-3.958l-7.592 10.52-20.92-15.037 1.107-1.543 8.068-11.212 9.824-13.408 7.574-10.721 6.429-9.064.792-1.183 13.982 9.961c6.147 4.498 10.791 8.097 13.742 10.737 2.924 2.642 5.095 5.211 6.641 7.715 2.393 4.012 3.517 8.398 3.314 13.145-.293 4.731-1.845 9.118-4.688 13.114-2.533 3.569-6.049 6.163-10.547 7.837-4.454 1.676-8.827 2.031-13.275 1.133-.624-.171-1.178-.296-1.758-.458a10.4 10.4 0 0 1-1.563-.431c-.809-.273-1.628-.648-2.468-1.069a28 28 0 0 1-2.806-1.733c1.175 3.327 2.656 6.447 4.495 9.306m-5.664-13.265c.195.153.391.278.429.391.157.06.179.122.352.154 0 .067.071.117.196.195 5.164 3.709 10.741 5.179 16.563 4.454 5.789-.745 10.406-3.516 13.905-8.322 2.571-3.682 3.923-7.799 3.938-12.39.114-4.572-1.204-8.634-3.787-12.146a46 46 0 0 0-4.617-4.991c-1.735-1.655-3.987-3.527-6.862-5.662l-1.373 1.761-8.55 11.366-7.042 9.682-4.39 6.207c-.119.084-.13.177-.13.186 0 .022 0 .06-.081.093-.113.195-.31.391-.439.585-.065.193-.26.483-.456.886.027.734.196 1.355.239 1.847.151.497.254.976.347 1.422 0 .13 0 .236.011.336.032.095.141.198.186.39.08.392.205.785.39 1.268.174.448.336.993.586 1.663.195.256.39.476.585.625M500.936 253.375c-.977.708-1.953 1.473-2.93 2.188l-9.245 7.107-12.013 9.291-1.947 1.49 8.947 11.379c.228.491.591.977.976 1.462.348.467.684.882 1.085 1.346.32.418.673.903 1.064 1.383.39.451.672.888.998 1.371l1.932 2.352c.586.854.873 1.463.977 1.939.043.404-.158.803-.586 1.177-.543.392-.955.494-1.33.3-.385-.196-1.004-.891-1.904-2.119l-.846-1.108-29.117-38.466 1.752-1.367 11.35-8.498 11.696-8.63c1.764-1.329 3.516-2.696 5.296-4.072 1.779-1.396 3.543-2.817 5.338-4.217 1.704-1.376 3.467-2.751 5.236-4.17a356 356 0 0 0 5.42-4.101l27.207 35.736 1.504 1.877c.336.662.499 1.222.531 1.615.027.398-.201.74-.673 1.071-.45.32-.841.479-1.221.391-.363-.098-.754-.461-1.183-1.047v-.196l-1.318-1.778-5.42-7.449-5.891-7.886-10.607 7.839.64.906 5.768 7.376 5.539 7.11c.114.132.179.328.353.537.201.238.391.447.592.643.141.174.228.32.391.516.092.16.217.301.391.491 0 .069.043.125.19.203a.37.37 0 0 0 .104.238c.684.914 1.068 1.601 1.117 1.997.152.453-.049.83-.586 1.168-.434.367-.836.464-1.367.288-.44-.189-.977-.678-1.611-1.486-.58-.852-1.178-1.657-1.768-2.51-.597-.811-1.27-1.663-1.899-2.465a118 118 0 0 1-1.801-2.518c-.58-.798-1.172-1.657-1.85-2.463l-5.648-7.599-.667-.866c-1.012.756-1.989 1.458-2.966 2.224M551.181 304.153l-11.139 4.701-13.135 5.858-12.006 5.273-12.207 5.468-1.916.944-10.449-23.793 2.99-1.24a666 666 0 0 1 9.18-3.993c3.064-1.314 6.092-2.68 9.18-4.047a853 853 0 0 0 9.18-4.002 298 298 0 0 0 9.223-4.006l11.279-5.272 2.008-.883 10.541 23.777zM545.267 377.499c.641-.103 1.259-.195 1.817-.293.581-.099 1.161-.198 1.698-.293.586-.1 1.025-.195 1.552-.295 1.237-.196 2.55-.486 3.917-.782 1.231-.26 2.588-.485 3.955-.781a60 60 0 0 0 3.906-.781c1.313-.293 2.686-.499 3.917-.78a27 27 0 0 0 1.759-.293c.525-.099.911-.196 1.106-.293.065-.025.2-.099.392-.099.097 0 .221-.04.39-.098.455 0 .981 0 1.421.098.525.099.738.486.923 1.074.065.642 0 1.077-.326 1.367-.255.296-.9.584-1.85.732l-7.916 1.503-9.63 1.614c-2.74.445-5.273.93-7.422 1.329-2.219.391-4.102.781-5.821 1.069-2.187.391-4.482.884-6.679 1.274-2.295.483-4.486.977-6.809 1.459-2.29.392-4.519.886-6.815 1.275-2.191.483-4.4.874-6.613 1.313a752 752 0 0 0 10.471-28.561c3.326-9.616 6.494-19.276 9.576-29.001l-1.965.39-9.977 2.055c-1.102.194-2.078.391-3.055.586-.971.194-1.818.434-2.783.681-.971.193-1.947.388-2.892.586l-2.925.586c-.612.101-1.155.195-1.567.296-.423.094-.765.188-.972.287-.58.104-1.014.027-1.514-.12-.444-.175-.672-.659-.867-1.339-.087-.559 0-.976.287-1.286.299-.377.879-.573 1.53-.708l.331-.06c2.213-.399 4.535-.876 6.879-1.268l7.037-1.172c2.338-.477 4.682-.881 7.025-1.272 2.35-.409 4.693-.876 7.037-1.272 1.318-.291 2.924-.578 4.855-.955 1.926-.311 4.123-.794 6.613-1.289a266 266 0 0 1 7.861-1.475c1.904-.374 3.516-.695 5.029-1.065.781-.112 1.563-.29 2.409-.481.906-.195 1.888-.404 2.913-.691-2.734 7.331-5.458 14.749-8.057 22.171-2.686 7.419-5.246 14.84-7.758 22.274l-4.352 13.173c.64-.139 1.34-.296 1.959-.389"/></g><path fill="#ed1c24" d="M397.465 284.05H217.536v157.165c0 3.077 3.176 24.466 17.223 45.085 16.692 24.502 41.167 36.926 72.741 36.926 31.576 0 56.049-12.424 72.742-36.926 14.047-20.619 17.223-42.008 17.223-45.085z"/><path d="M307.5 293.77c-64.352 0-71.101 74.645-64.455 103.456 16.029 69.522 64.455 117.025 64.455 117.025s48.425-47.504 64.454-117.025c6.647-28.812-.102-103.456-64.454-103.456"/><path fill="#ffcb05" d="M250.998 359.835c1.618-10.909 5.585-26.474 15.292-38.675 9.847-12.377 23.712-18.653 41.209-18.653s31.362 6.276 41.209 18.654c9.707 12.202 13.674 27.767 15.292 38.675 1.606 10.828 1.475 20.785.621 28.262H250.377c-.854-7.477-.984-17.435.621-28.263M307.503 501.4c-13.045-14.861-43.377-53.616-55.561-104.565h111.123c-8.064 33.71-24.137 61.872-36.301 79.663-7.534 11.019-14.529 19.519-19.261 24.902"/></svg>