<svg xmlns="http://www.w3.org/2000/svg" viewBox="0 0 612 792"><circle cx="307.5" cy="396.39" r="283" fill="#3155a6"/><circle cx="307.5" cy="396.389" r="245.334" fill="#fff"/><path fill="#3155a6" d="m234.361 198.354 1.348 90.202c-10.996-14.029-28.546-16.774-41.452-16.103-9.861.512-16.727 3.01-21.616 7.198-7.146 6.121-9.832 14.521-7.689 19.879l58.822 147.1c9.572 23.939 9.91 48.043-.861 61.568-8.691 10.914-21.331 15.826-37.664 15.752-13.422-.061-23.45-3.914-35.053-.184-7.689 2.473-13.37 7.238-19.899 18.262l-2.117-78.939c10.871 12.453 19.168 16.65 30.311 16.863 19.26.365 23.125-13.988 22.059-16.766l-62.287-162.31c-10.055-26.203-1.085-50.226 29.736-63.622 15.051-6.541 30.129-9.479 60.852-10.791l23.586-28.11z"/><path fill="#3155a6" d="m185.572 305.136-1.54 9.751c15.773 3.896 25.359 11.101 27.713 22.837l37.334 186.165 47.087-1.414 29.505-84.967 1.646-96.632c.129-7.623-4.792-14.647-10.567-21.117l-34.183 109.315-22.966-98.664c-2.197-9.437 5.605-16.29 11.932-20.656l-.128-5.39zm188.216-6.188 4.489-12.929c2.329-6.707 7.79-8.378 18.733-7.314l2.565-7.441c-19.706-6.036-44.397-22.253-61.07-43.75l-5.132 5.39c1.494 9.24 3.112 23.736-.256 34.511l-8.659 27.69 48.906 2.585.364 1.083z"/><path fill="#3155a6" d="M304.091 295.714v7.703c7.361 9.759 25.159 22.583 24.907 37.488l-3.081 181.021 46.217-1.797 3.595-122.479 40.57 124.789 53.407-3.594-2.313-234.432c-.101-10.258.946-23.96 10.271-29.012l.256-6.933-72.407-22.853-1.026 5.136c6.931 15.577 11.142 31.708 12.324 48.273 3.081 43.142 8.728 80.38 6.163 147.13-15.664-42.282-36.203-83.281-50.841-126.846z"/><path fill="#fff" d="M440.872 518.699h-5.63v-21.225c-2.059 1.93-4.479 3.352-7.271 4.268v-5.109c1.464-.479 3.064-1.389 4.788-2.729 1.724-1.348 2.907-2.914 3.543-4.707h4.569zM449.408 511.908l5.452-.604q.204 1.663 1.048 2.463c.561.533 1.298.801 2.223.801q1.741 0 2.962-1.602c.819-1.066 1.341-3.281 1.565-6.654-1.415 1.648-3.187 2.469-5.308 2.469-2.313 0-4.31-.895-5.985-2.674q-2.516-2.676-2.518-6.965c0-2.982.89-5.383 2.661-7.209 1.765-1.82 4.021-2.736 6.759-2.736 2.982 0 5.423 1.156 7.339 3.461 1.908 2.305 2.866 6.096 2.866 11.369 0 5.377-.999 9.248-2.989 11.629-1.99 2.373-4.583 3.565-7.777 3.565-2.299 0-4.152-.609-5.567-1.834q-2.125-1.837-2.731-5.479m12.751-12.306q0-2.728-1.252-4.227c-.834-1.006-1.806-1.506-2.9-1.506-1.039 0-1.908.41-2.593 1.232q-1.034 1.23-1.032 4.041c0 1.897.376 3.291 1.122 4.174q1.12 1.334 2.804 1.334c1.082 0 1.998-.424 2.736-1.279.746-.855 1.115-2.113 1.115-3.769"/><g fill="#3155a6"><path d="M491.134 513.467v5.233h-19.74c.219-1.977.854-3.85 1.929-5.621 1.066-1.774 3.181-4.119 6.328-7.047 2.544-2.359 4.097-3.967 4.671-4.809.772-1.162 1.163-2.31 1.163-3.447q.001-1.878-1.013-2.895c-.677-.676-1.607-1.012-2.798-1.012-1.177 0-2.106.357-2.804 1.06-.691.711-1.095 1.889-1.204 3.529l-5.609-.56c.336-3.098 1.382-5.322 3.147-6.676q2.646-2.023 6.615-2.025c2.9 0 5.178.787 6.832 2.348q2.483 2.346 2.483 5.834 0 1.98-.711 3.775-.71 1.796-2.251 3.756-1.028 1.305-3.686 3.748c-1.778 1.629-2.907 2.717-3.379 3.25s-.861 1.053-1.156 1.558h11.183zM495.06 511.908l5.452-.604q.205 1.663 1.046 2.463c.841.8 1.3.801 2.224.801 1.163 0 2.147-.533 2.962-1.602.821-1.066 1.341-3.281 1.566-6.654-1.415 1.648-3.187 2.469-5.308 2.469-2.312 0-4.309-.895-5.985-2.674q-2.515-2.676-2.517-6.965.002-4.471 2.66-7.209c1.765-1.82 4.022-2.736 6.759-2.736 2.983 0 5.425 1.156 7.339 3.461 1.908 2.305 2.867 6.096 2.867 11.369 0 5.377-1 9.248-2.989 11.629-1.991 2.373-4.584 3.565-7.777 3.565-2.299 0-4.152-.609-5.568-1.834q-2.125-1.837-2.731-5.479m12.75-12.306q0-2.728-1.252-4.227c-.834-1.006-1.806-1.506-2.9-1.506-1.039 0-1.908.41-2.592 1.232q-1.034 1.23-1.033 4.041c0 1.897.377 3.291 1.122 4.174.745.889 1.684 1.334 2.805 1.334 1.081 0 1.997-.424 2.735-1.279q1.117-1.284 1.115-3.769M203.723 550.305l27.965 16.146-37.997 19.99 19.893 11.486-3.877 4.74-28.787-16.62L219.451 566l-19.618-11.328z"/><path d="m219.62 582.928 5.674 1.095-.568 14.208 9.525-10.56 1.98.738.61 14.162 8.327-11.133 4.652 2.758-15.116 18.508-2.118-.791-.673-14.922-10.199 10.867-2.276-.849zM268.616 603.946l-16.852 6.092c.356.914.877 1.641 1.541 2.189q.995.826 2.496 1.174c1.164.269 2.372.266 3.624-.023 1.262-.285 2.505-.84 3.748-1.658l.899 5.102a12.3 12.3 0 0 1-4.658 1.824 12.4 12.4 0 0 1-4.968-.123c-3.127-.723-5.494-2.494-7.124-5.313-1.63-2.82-2.053-5.908-1.274-9.275.755-3.271 2.485-5.76 5.181-7.469 2.706-1.717 5.646-2.203 8.822-1.471 2.03.469 3.792 1.484 5.296 3.047 1.504 1.562 2.591 3.527 3.269 5.904m-6.404-2.248a6 6 0 0 0-1.5-1.361 6.1 6.1 0 0 0-1.843-.75c-1.732-.4-3.332-.141-4.799.767s-2.396 2.213-2.792 3.926c-.059.26-.112.531-.143.799-.03.266-.052.576-.067.906zM279.482 598.968l-4.024 22.824-5.731-.478 4.009-22.738zm-3.726-11.848 5.641.994-1.091 6.186-5.641-.994zM293.897 605.919q-2.655-.236-4.657 1.564-2 1.802-2.248 4.621c-.165 1.889.307 3.525 1.413 4.932q1.658 2.106 4.315 2.34c1.761.154 3.323-.363 4.677-1.564q2.031-1.797 2.276-4.598c.162-1.859-.318-3.508-1.443-4.924-1.124-1.428-2.571-2.217-4.333-2.371m-4.012-25.511-1.957 22.37a8 8 0 0 1 3.023-1.807 8.6 8.6 0 0 1 3.534-.404c3.413.297 6.175 1.709 8.274 4.223 2.109 2.514 3.01 5.477 2.713 8.871-.299 3.424-1.699 6.166-4.189 8.229-2.491 2.072-5.463 2.951-8.905 2.65-4.112-.359-7.048-1.816-8.816-4.369q-2.658-3.832-2.009-11.267l2.489-28.452zM321.002 600.802l.14 5.637q-3.552.147-4.854 1.453-1.301 1.306-1.216 4.801l.279 11.254-5.743.666-.57-23.08 5.74-.756.074 2.982c.706-.967 1.568-1.689 2.583-2.178q1.51-.73 3.567-.779M327.163 600.165l1.645 12.832c.238 1.852.674 3.16 1.308 3.904.623.746 1.536 1.039 2.721.887 1.294-.166 2.229-.725 2.774-1.67.545-.947.715-2.264.5-3.938l-1.582-12.342 5.633-1.34 2.925 22.813-5.643 1.252-.332-2.586c-.756 1.092-1.632 1.951-2.645 2.588a8.05 8.05 0 0 1-3.314 1.184c-2.242.285-4.015-.254-5.333-1.607q-1.962-2.034-2.542-6.545l-1.805-14.084zm4.499-12.035 5.222-.67.768 5.994-5.22.67zm-9.472 1.215 5.222-.67.768 5.994-5.22.67zM362.035 595.681l-1.28 5.154c-1.207-.391-2.232-.625-3.06-.684a7.6 7.6 0 0 0-2.481.213c-1.744.434-3.031 1.396-3.868 2.898s-1.024 3.197-.559 5.065q.7 2.806 2.848 4.195t4.792.729q1.236-.31 2.468-1.246c.813-.619 1.663-1.453 2.531-2.504l3.309 4.539a16.2 16.2 0 0 1-3.355 2.871c-1.228.785-2.439 1.322-3.637 1.621-3.315.824-6.364.395-9.167-1.297-2.792-1.685-4.602-4.166-5.418-7.443-.821-3.295-.404-6.352 1.266-9.17 1.657-2.826 4.153-4.648 7.488-5.48 1.12-.279 2.369-.377 3.734-.289 1.355.089 2.829.363 4.389.828M362.328 572.795l9.996 29.032 7.185-14.685 4.771 1.845-5.846 11.289 12.279 6.696-3.819 4.377-13.976-7.795 3.437 9.98-5.273 2.369-14.017-40.712zM408.388 582.291l-9.529 15.179c.845.5 1.703.754 2.563.777s1.759-.178 2.69-.611c1.083-.506 2.03-1.252 2.84-2.252.817-1.002 1.456-2.205 1.933-3.613l3.851 3.467a12.3 12.3 0 0 1-2.548 4.305 12.4 12.4 0 0 1-3.991 2.961c-2.908 1.355-5.865 1.416-8.885.199-3.021-1.219-5.253-3.391-6.715-6.523-1.418-3.043-1.587-6.068-.516-9.076 1.076-3.019 3.094-5.212 6.047-6.591 1.889-.879 3.901-1.164 6.05-.859 2.147.305 4.214 1.184 6.21 2.637m-6.43 2.172a6 6 0 0 0-2.02-.148 6.1 6.1 0 0 0-1.914.545c-1.611.75-2.714 1.94-3.31 3.56q-.896 2.424.218 4.813c.112.242.238.488.377.717.141.231.314.486.507.756zM426.532 573.08l8.037 12.031-4.496 3.634-7.637-11.431c-.828-1.24-1.705-2.019-2.629-2.354-.932-.328-1.857-.184-2.793.441-1.051.701-1.622 1.606-1.685 2.705s.383 2.369 1.331 3.789l7.012 10.495-4.497 3.633-12.825-19.198 4.447-3.707 1.448 2.166a9.1 9.1 0 0 1 1.234-3.414 8.2 8.2 0 0 1 2.472-2.541c1.88-1.256 3.688-1.572 5.443-.953 1.745.62 3.455 2.184 5.138 4.704"/></g></svg>