<svg enable-background="new 0 0 612 792" viewBox="0 0 612 792" xmlns="http://www.w3.org/2000/svg"><g fill="#ce2e27"><path d="m72.419 448.416h140.737v36.967h-51.903v111.724h-36.931v-111.724h-51.903z"/><path d="m226.367 548.433h34.195c.154 15.814 4.929 17.046 14.787 17.046h41.898c7.239 0 14.633-1.026 14.633-12.527 0-12.94-4.004-13.761-48.059-13.761-51.448 0-57.301-8.215-57.301-44.772 0-26.904 1.848-47.647 44.978-47.647h47.751c39.434 0 43.131 17.867 43.131 43.95v4.724h-34.196c0-10.885-.924-15.402-16.636-15.402h-37.893c-7.702 0-12.939 3.49-12.939 11.5 0 12.939 4.159 13.351 40.819 13.145 53.143-.206 65.465 4.107 65.465 47.441 0 40.048-10.165 46.619-55.607 46.619h-41.436c-31.115 0-43.591-7.803-43.591-40.047v-10.269z"/><path d="m382.919 500.581c0-43.54 19.064-53.809 51.103-53.809h53.505c40.37 0 45.976 18.689 45.976 47.647v4.724h-34.923c0-14.786-6.567-16.636-17.942-16.636h-38.606c-17.942 0-22.588 5.545-22.588 31.012v18.483c0 25.467 4.646 31.013 22.588 31.013h37.967c9.291 0 18.582-1.849 18.582-16.226v-4.313h-44.214v-30.807h79.777v42.308c0 42.718-17.301 44.771-57.351 44.771h-42.772c-32.039 0-51.103-10.269-51.103-53.808v-44.359z"/><path d="m97.277 625.924v8.754h-6.755v34.994h-11.376v-34.994h-6.728v-8.754z"/><path d="m140.969 625.924v43.748h-11.376v-18.374h-3.404v18.374h-11.376v-43.748h11.376v15.645h3.404v-15.645z"/><path d="m180.142 625.924 6.506 43.748h-11.626l-.61-7.864h-4.07l-.684 7.864h-11.761l5.803-43.748zm-6.029 28.129c-.576-4.955-1.153-11.08-1.733-18.375-1.158 8.378-1.886 14.502-2.183 18.375z"/><path d="m228.921 625.924v43.748h-9.971l-5.918-19.889v19.889h-9.511v-43.748h9.511l6.378 19.698v-19.698z"/><path d="m273.829 625.924v43.748h-9.971l-5.917-19.889v19.889h-9.511v-43.748h9.511l6.376 19.698v-19.698z"/><path d="m319.493 625.924v43.748h-11.376v-18.374h-3.404v18.374h-11.376v-43.748h11.376v15.645h3.404v-15.645z"/><path d="m358.666 625.924 6.506 43.748h-11.626l-.611-7.864h-4.068l-.684 7.864h-11.762l5.804-43.748zm-6.028 28.129c-.576-4.955-1.154-11.08-1.732-18.375-1.16 8.378-1.887 14.502-2.184 18.375z"/><path d="m407.903 625.924v29.236c0 3.316-.107 5.644-.323 6.984-.216 1.343-.856 2.722-1.919 4.136s-2.464 2.485-4.202 3.215c-1.739.73-3.788 1.094-6.148 1.094-2.612 0-4.917-.432-6.917-1.297-2-.864-3.494-1.989-4.484-3.376-.992-1.388-1.577-2.852-1.758-4.393-.18-1.54-.27-4.776-.27-9.714v-25.886h11.375v32.804c0 1.909.105 3.13.312 3.662.207.531.625.797 1.257.797.72 0 1.184-.293 1.39-.879.208-.586.313-1.967.313-4.148v-32.236h11.374z"/><path d="m451.352 639.164h-10.565v-3.242c0-1.514-.135-2.478-.405-2.892s-.721-.621-1.35-.621c-.685 0-1.202.279-1.555.839-.351.559-.526 1.404-.526 2.541 0 1.46.197 2.56.593 3.299.377.739 1.449 1.631 3.215 2.674 5.064 3.006 8.253 5.473 9.568 7.4 1.314 1.927 1.973 5.035 1.973 9.322 0 3.116-.364 5.412-1.095 6.89-.73 1.478-2.14 2.716-4.229 3.717-2.09.999-4.521 1.498-7.296 1.498-3.045 0-5.645-.576-7.795-1.729-2.153-1.153-3.564-2.621-4.229-4.404-.666-1.784-1-4.315-1-7.593v-2.864h10.565v5.322c0 1.64.148 2.693.446 3.163.298.468.824.702 1.581.702.756 0 1.318-.298 1.688-.893.369-.595.555-1.477.555-2.647 0-2.576-.352-4.26-1.054-5.054-.721-.792-2.496-2.115-5.323-3.972-2.828-1.873-4.702-3.233-5.62-4.08-.919-.846-1.68-2.017-2.284-3.513-.604-1.494-.904-3.404-.904-5.73 0-3.351.428-5.8 1.282-7.35.857-1.549 2.239-2.76 4.148-3.635 1.91-.872 4.216-1.309 6.918-1.309 2.953 0 5.472.477 7.553 1.432 2.08.954 3.459 2.157 4.133 3.606.677 1.45 1.014 3.914 1.014 7.392v1.731z"/><path d="m470.807 625.924h18.969v8.754h-7.592v8.296h7.105v8.324h-7.105v9.619h8.349v8.755h-19.726z"/><path d="m534.144 625.924v43.748h-9.972l-5.917-19.889v19.889h-9.512v-43.748h9.512l6.378 19.698v-19.698z"/></g><path d="m303.281 262.384v-103.369l-230.862 263.036h230.862v-54.867h-91.981z"/><path d="m442.162 263.815v103.369h-90.726l-48.154 54.867h230.862v-263.036z" fill="#808080"/><path d="m442.162 104.148-138.881 158.236v104.8h48.155l90.726-103.369z" fill="#bfbfbf"/><path d="m211.3 367.184h91.981v-104.8z" fill="#666"/><path d="m442.162 263.815-90.726 103.369h90.726z" fill="#333"/></svg>