<?xml version="1.0" encoding="iso-8859-1"?>
<!-- Generator: Adobe Illustrator 24.0.1, SVG Export Plug-In . SVG Version: 6.00 Build 0)  -->
<svg version="1.1" id="Calque_1" xmlns="http://www.w3.org/2000/svg" xmlns:xlink="http://www.w3.org/1999/xlink" x="0px" y="0px"
	 viewBox="0 0 595.276 841.89" style="enable-background:new 0 0 595.276 841.89;" xml:space="preserve">
<path d="M435.768,278.837l-0.333,0.117v0.355c-0.001,10.384-0.001,20.765-0.001,31.146c-1.636-3.34-3.392-6.609-5.261-9.805
	c-1.332-6.539-3.782-11.341-7.365-15.041c-1.502-1.34-3.14-2.267-4.883-2.826c-27.664-34.736-70.315-57.006-118.176-57.007
	c-48.473,0.001-91.605,22.843-119.234,58.347c-3.216-0.989-6.433-2.013-9.65-3.072l-0.656-0.217v0.692c0,5.87,0,11.753,0,17.627
	c-13.622,22.684-21.46,49.237-21.46,77.624c0,28.386,7.839,54.939,21.46,77.624c0,12.66,0,25.322,0,37.964v0.683l0.65-0.206
	c8.108-2.558,16.217-4.929,24.325-7.132c27.134,26.053,63.977,42.07,104.566,42.07c39.813,0,76.017-15.414,102.993-40.591
	c2.412,1.991,5.026,3.396,7.873,4.18c1.621,0.474,3.182,0.728,4.682,0.728c0.008,0,0.017,0,0.025,0c3.228,0,6.16-1.215,8.774-3.808
	c3.664-3.783,6.306-9.049,7.618-15.77c1.082-5.854,1.713-14.459,1.9-25.832c6.148-11.751,10.794-24.41,13.685-37.726
	c0,29.984,0,60.015,0,90.049v0.344l0.325,0.123c6.822,2.583,13.479,5.164,20.128,8.114l0.702,0.313v-0.767
	c-0.002-64.117-0.002-127.859-0.002-191.965c3.793-0.747,7.573-1.82,11.338-2.889l0.363-0.104v-0.376c0-16.618,0-33.602,0-50.218
	v-0.781l-0.709,0.327C464.997,267.771,450.384,273.673,435.768,278.837z M440.47,321.919c2.295-0.514,4.563-0.96,6.829-1.387
	c0,8.008,0,16.038,0,24.059C445.605,336.793,443.316,329.217,440.47,321.919z"/>
<path d="M570.034,492.637c-4.619-1.809-9.385-3.618-13.985-5.76c0-24.083,0-48.173,0-72.612c3.88,0.352,7.747,0.716,11.6,1.418
	l0.589,0.108v-0.602c0-22.525,0-44.676,0-66.835v-0.548l-0.546,0.051c-3.907,0.357-7.788,1.047-11.643,1.425
	c0-20.753,0-41.505,0-62.258c4.285-1.805,8.416-3.606,12.698-5.413l0.306-0.127v-0.333c0-23.258,0-46.888,0-70.152v-0.954
	l-0.784,0.541c-10.714,7.377-21.593,14.019-32.481,20.665l-0.24,0.146v0.28c0,103.383,0,207.143,0,310.53v0.287l0.249,0.145
	c11.356,6.637,22.562,14.019,33.77,21.773l0.784,0.543v-0.955c0-23.639,0-47.269,0-70.898v-0.342L570.034,492.637z"/>
<path d="M526.789,366.177c1.474-8.205,2.119-24.082,2.121-47.727c-0.002-25.497-0.971-43.97-3.101-54.751
	c-2.16-10.72-4.62-16.415-8.341-17.375c-0.597-0.196-1.313-0.294-2.099-0.294c-3.849,0.013-9.533,2.256-17.256,6.251
	c-4.696,2.203-9.409,4.42-14.122,6.638l-0.289,0.136v0.316c0,84.92,0,170.216,0,255.143v0.323l0.297,0.134
	c6.652,2.95,13.305,6.271,19.805,9.592l0.727,0.374v-0.817c0-40.817,0-81.992,0.002-123.168c2.2,0.218,3.578,1.753,4.205,5.094
	c0.479,3.613,0.81,12.853,0.808,27.976c0,31.021,0,62.403,0,93.42v0.298l0.264,0.143c6.174,3.324,12.338,6.643,18.339,10.324
	l0.762,0.468v-0.893c-0.002-26.584-0.002-53.173,0-79.757c-0.002-24.377-0.165-39.137-0.488-44.708
	c-0.327-5.2-1.145-11.132-2.446-17.791c-1.413-6.063-3.874-11.128-7.555-14.859C522.671,378.773,525.386,373.568,526.789,366.177z
	 M509.546,331.744c0.011,12.151-0.351,19.592-1.269,21.977c-0.72,1.91-1.974,3.136-3.744,3.336c-0.002-20.004-0.002-40.009,0-60.013
	c0.409-0.101,0.778-0.151,1.108-0.151c1.272,0.021,2.055,0.654,2.798,2.532c0.76,2.033,1.115,7.971,1.108,16.809
	C509.546,321.409,509.546,326.577,509.546,331.744z"/>
<path d="M126.627,352.936c-3.078-6.255-5.004-11.387-5.642-15.729c-0.643-4.386-0.971-10.643-0.971-19.129
	c0-6.255,0.33-11.415,0.964-14.293c0.544-2.6,1.296-3.454,1.702-3.369c0.072,0,0.155,0.013,0.255,0.047l0.074,0.023h0.08
	c0.616-0.096,1.487,1.081,1.946,3.657c0.476,2.496,0.646,7.67,0.644,16.151c0,6.281,0,12.181,0,18.462v0.416l0.41,0.077
	c6.196,1.115,12.373,1.848,18.528,2.95l0.588,0.104v-0.597c0-2.95,0-5.9,0-9.231c0-18.101-0.486-31.399-1.629-39.209
	c-1.311-8.18-3.766-15.616-7.368-22.315c-3.774-6.716-8.237-11.243-13.545-13.878c-1.969-0.924-3.84-1.421-5.618-1.423
	c-2.617-0.004-5.004,1.104-7.005,3.392c-3.515,3.807-5.958,10.166-7.432,19.078c-1.472,8.923-2.12,23.7-2.12,44.392
	c0,14.038,0.488,26.24,1.465,35.499c1.143,8.885,2.443,16.287,4.085,21.516c1.634,5.197,4.728,13.334,9.773,24.059
	c4.877,10.338,8.122,17.353,9.233,21.699c1.272,3.946,1.939,13.563,1.935,27.941c0,6.257-0.327,11.408-0.966,14.668
	c-0.626,3.682-1.655,5.321-2.572,5.525c-0.126,0.036-0.24,0.051-0.342,0.051c-0.646,0.038-1.379-0.746-1.795-2.634
	c-0.472-2.489-0.803-8.398-0.801-17.982c0-9.97,0-20.308,0-30.277v-0.565l-0.559,0.068c-6.177,0.739-12.362,1.478-18.558,2.589
	l-0.412,0.072v0.418c0,5.542,0,11.442,0,17.358c0.002,20.318,0.652,35.469,1.79,46.208c1.147,10.389,3.592,18.222,7.574,23.509
	c2.379,3.453,5.313,5.233,8.633,5.233c0.006,0,0.012,0,0.018,0c1.737-0.002,3.56-0.476,5.454-1.39
	c5.013-2.283,9.461-7.177,13.067-14.259c3.596-6.682,6.215-14.118,7.523-22.3c1.309-8.545,1.957-20.743,1.957-36.635
	c0-22.544-1.132-38.808-3.587-48.859C141.109,383.984,135.41,370.673,126.627,352.936z"/>
<path d="M82.476,471.946l-0.351,0.108v0.37c0,19.566,0,39.141,0,58.71v0.843l0.739-0.405c4.715-2.587,9.424-5.166,14.296-7.751
	l0.266-0.14v-0.302c0-18.462,0-36.924,0-55.387v-0.675l-0.646,0.197C91.904,468.994,87.188,470.468,82.476,471.946z"/>
<path d="M68.336,234.247l-0.011-0.278l-0.24-0.138c-9.575-5.533-18.829-11.436-28.25-17.712l-0.752-0.499l-0.025,0.901
	c-3.252,112.991-6.663,228.567-9.915,347.469l-0.025,0.964l0.803-0.535c6.663-4.435,13.324-8.863,20.146-13.292l0.223-0.145
	l0.004-0.266c0.325-19.823,0.648-39.277,1.132-59.094c1.992-0.673,4.063-1.584,6.008-2.259c0.321,18.602,0.642,37.198,0.963,55.439
	l0.015,0.857l0.742-0.438c6.816-4.057,13.481-7.748,20.157-11.817l0.25-0.153l-0.01-0.293
	C75.813,436.218,71.911,336.895,68.336,234.247z M51.118,433.064c0.439-25.609,1.512-64.151,3.104-115.38
	c0.878,44.905,1.851,82.892,2.7,114.441C54.986,432.435,53.052,432.751,51.118,433.064z"/>
<path d="M150.283,453.106l-0.389,0.087v0.401c0,15.512,0,30.643,0,45.79v0.724l0.677-0.257c4.856-1.844,9.73-3.321,14.627-5.174
	l0.323-0.123v-0.345c0-14.402,0-29.167,0-43.567v-0.582l-0.574,0.087C160.047,450.885,155.159,451.995,150.283,453.106z"/>
<radialGradient id="SVGID_1_" cx="288.8652" cy="350.2407" r="190.9387" gradientUnits="userSpaceOnUse">
	<stop  offset="0" style="stop-color:#FFFFFF"/>
	<stop  offset="0.5" style="stop-color:#FFFFFF"/>
	<stop  offset="1" style="stop-color:#000000"/>
</radialGradient>
<path style="fill:url(#SVGID_1_);" d="M435.433,323.167v-0.654c0-1.25,0-2.501,0-3.752c-1.309-3.057-2.72-6.059-4.226-9.005
	c0.468,6.715,0.678,15.626,0.678,26.785c0,2.957,0,5.542,0,8.499v0.444l-0.44,0.051c-3.365,0.4-6.734,0.803-10.128,1.205
	c0.992,6.862,1.618,14.59,1.618,23.198c0,1.75-0.027,3.543-0.082,5.368c1.936,3.682,3.541,7.168,4.811,10.447l17.733,14.607
	c1.233-7.682,1.883-15.552,1.883-23.581c0-19.078-3.628-37.302-10.22-54.035c-0.332,0.086-0.66,0.163-0.995,0.253L435.433,323.167z"
	/>
<radialGradient id="SVGID_2_" cx="288.8652" cy="350.2407" r="190.9387" gradientUnits="userSpaceOnUse">
	<stop  offset="0" style="stop-color:#FFFFFF"/>
	<stop  offset="0.5" style="stop-color:#FFFFFF"/>
	<stop  offset="1" style="stop-color:#000000"/>
</radialGradient>
<path style="fill:url(#SVGID_2_);" d="M411.8,280.815l-0.203,1.492c0.454-0.062,0.902-0.103,1.347-0.128
	C412.563,281.723,412.185,281.265,411.8,280.815z"/>
<radialGradient id="SVGID_3_" cx="288.8755" cy="350.2382" r="190.9251" gradientUnits="userSpaceOnUse">
	<stop  offset="0" style="stop-color:#FFFFFF"/>
	<stop  offset="0.5" style="stop-color:#FFFFFF"/>
	<stop  offset="1" style="stop-color:#000000"/>
</radialGradient>
<path style="fill:url(#SVGID_3_);" d="M283.162,472.219v-0.527c0-19.192,0-38.377,0-57.553l-6.317-4.87c0,0.374,0,0.749,0,1.122
	c0,17.741-0.648,30.301-1.631,37.739c-1.147,7.457-3.779,13.809-7.708,19.76c-3.951,6.378-9,9.456-14.828,10.197
	c-1,0.123-1.971,0.187-2.916,0.187c-0.012,0-0.023,0-0.036,0c-4.823,0-8.939-1.719-12.277-5.528
	c-3.819-4.522-6.444-10.9-7.752-19.823c-1.143-8.534-1.791-21.84-1.793-39.575c0-3.338,0-6.677,0-10.015
	c-5.862,1.977-12.35,3.981-19.202,5.79l0.443,45.326c0.157,0.226,0.38,0.536,0.671,0.938c0.647,0.884,1.604,2.163,2.858,3.733
	c2.512,3.137,6.198,7.425,10.876,11.989c9.232,9.016,22.348,19.085,37.85,23.676l40.077-20.936c-0.002-0.68-0.006-1.357-0.012-2.029
	c-5.952,0.005-11.808,0.043-17.777,0.371L283.162,472.219z"/>
<radialGradient id="SVGID_4_" cx="288.8755" cy="350.2382" r="190.9251" gradientUnits="userSpaceOnUse">
	<stop  offset="0" style="stop-color:#FFFFFF"/>
	<stop  offset="0.5" style="stop-color:#FFFFFF"/>
	<stop  offset="1" style="stop-color:#000000"/>
</radialGradient>
<path style="fill:url(#SVGID_4_);" d="M249.218,395.315c0,10.894,0.001,21.813,0.001,32.802c-0.002,8.473,0.166,14.027,0.645,16.551
	c0.345,2.45,1.243,3.21,2.379,3.25c1.307-0.323,2.161-1.524,2.64-3.983c0.321-2.54,0.646-8.449,0.646-18.035
	c0-7.013,0-14.404,0-21.783v-0.501h0.499c4.411,0,8.764-0.151,13.142-0.261l-13.853-10.678
	C254.189,393.186,252.093,394.115,249.218,395.315z"/>
<radialGradient id="SVGID_5_" cx="288.8794" cy="350.2382" r="190.9247" gradientUnits="userSpaceOnUse">
	<stop  offset="0" style="stop-color:#FFFFFF"/>
	<stop  offset="0.5" style="stop-color:#FFFFFF"/>
	<stop  offset="1" style="stop-color:#000000"/>
</radialGradient>
<path style="fill:url(#SVGID_5_);" d="M228.392,330.969c0.488-6.682,1.635-12.636,3.598-18.581
	c1.354-4.192,3.263-7.771,5.598-10.575l-31.655,7.587c-0.186,0.171-0.453,0.417-0.791,0.754c-0.088,0.086-0.195,0.195-0.293,0.292
	c0,6.329,0,12.658,0,19.081v0.592l-0.584-0.1c-4.058-0.685-8.257-1.368-12.469-2.053c-0.146,0.257-0.29,0.524-0.435,0.786
	c0,11.925,0,23.841,0,35.762c4.072,0.353,8.131,0.698,12.179,0.698h0.499v0.501c0,12.083,0,24.165,0,36.244l3.494,3.882
	c7.302-1.917,14.206-4.067,20.369-6.172c0-13.164,0-26.329,0-39.497C227.905,347.245,228.064,337.271,228.392,330.969z"/>
<radialGradient id="SVGID_6_" cx="288.8794" cy="350.2382" r="190.9247" gradientUnits="userSpaceOnUse">
	<stop  offset="0" style="stop-color:#FFFFFF"/>
	<stop  offset="0.5" style="stop-color:#FFFFFF"/>
	<stop  offset="1" style="stop-color:#000000"/>
</radialGradient>
<path style="fill:url(#SVGID_6_);" d="M254.157,389.393l4.628-13.097c-0.926-0.038-1.849-0.066-2.781-0.116l-0.474-0.025v-0.474
	c0-9.97,0-19.94,0-29.91c0.002-8.84-0.17-14.41-0.644-16.538c-0.359-2.128-1.087-2.874-2.43-2.903h-0.057l-0.055-0.013
	c-0.132-0.03-0.255-0.042-0.37-0.044c-0.943-0.036-1.82,1.053-2.114,3.347c-0.475,2.487-0.643,8.413-0.641,17.258
	c-0.001,14.869-0.002,29.742-0.002,44.671c0.657-0.278,1.279-0.543,1.827-0.78C252.491,390.142,253.539,389.674,254.157,389.393z"/>
<radialGradient id="SVGID_7_" cx="288.8804" cy="350.2402" r="190.9307" gradientUnits="userSpaceOnUse">
	<stop  offset="0" style="stop-color:#FFFFFF"/>
	<stop  offset="0.5" style="stop-color:#FFFFFF"/>
	<stop  offset="1" style="stop-color:#000000"/>
</radialGradient>
<path style="fill:url(#SVGID_7_);" d="M267.333,305.249c3.777,5.59,6.406,11.943,7.717,19.403c0.436,2.967,0.8,6.522,1.084,10.64
	l7.028,0.234c0-10.994,0-21.985,0-32.954v-0.501h0.499c6.844,0,13.507,0.374,20.314,0.374h0.499v0.499c0,11.072,0,22.153,0,33.29
	l5.175,0.172c0-11.248-0.001-22.485-0.001-33.835v-0.501h0.502c6.642,0,13.453-0.372,20.261-1.103l0.552-0.06v0.557
	c0,11.264,0,22.503,0,33.741c0.155-0.179,0.31-0.356,0.482-0.556c1.689-1.966,4.1-4.857,6.975-8.551
	c1.313-1.686,2.725-3.546,4.204-5.555c0.391-6.731,0.776-13.469,1.154-20.219l0.023-0.423l0.421-0.046
	c4.453-0.496,8.871-1.079,13.273-1.726c0.353-0.594,0.705-1.189,1.058-1.793l-24.646-34.495c-0.079-0.059-0.174-0.128-0.306-0.217
	c-0.358-0.242-0.901-0.595-1.628-1.029c-1.459-0.859-3.626-2.02-6.475-3.184c-5.698-2.325-14.067-4.665-24.741-4.665
	c-7.782,0-16.792,1.246-26.899,4.66l-21.587,38.429C258.308,296.629,263.416,299.674,267.333,305.249z"/>
<radialGradient id="SVGID_8_" cx="288.8833" cy="350.2392" r="190.9178" gradientUnits="userSpaceOnUse">
	<stop  offset="0" style="stop-color:#FFFFFF"/>
	<stop  offset="0.5" style="stop-color:#FFFFFF"/>
	<stop  offset="1" style="stop-color:#000000"/>
</radialGradient>
<path style="fill:url(#SVGID_8_);" d="M392.58,410.772l9.707-10.678c-0.033-0.056-0.064-0.109-0.098-0.165
	c-4.879-8.49-8.292-14.399-9.938-18.137c-1.656-3.757-2.957-8.953-4.098-15.252c-1.146-6.33-1.635-14.471-1.635-24.458
	c0-14.42,0.811-25.151,2.287-32.232c0.343-1.643,0.753-3.198,1.215-4.692l-15.485-3.754c2.138,34.499,4.373,69.249,6.59,104.379
	C386.602,408.094,390.693,409.92,392.58,410.772z"/>
<radialGradient id="SVGID_9_" cx="288.8833" cy="350.2392" r="190.9178" gradientUnits="userSpaceOnUse">
	<stop  offset="0" style="stop-color:#FFFFFF"/>
	<stop  offset="0.5" style="stop-color:#FFFFFF"/>
	<stop  offset="1" style="stop-color:#000000"/>
</radialGradient>
<path style="fill:url(#SVGID_9_);" d="M359.736,348.203c-1.17,19.487-2.044,35.493-2.625,48.109c1.576,0.574,3.135,1.152,4.667,1.73
	C361.107,383.455,360.396,366.91,359.736,348.203z"/>
<radialGradient id="SVGID_10_" cx="288.8833" cy="350.2392" r="190.9177" gradientUnits="userSpaceOnUse">
	<stop  offset="0" style="stop-color:#FFFFFF"/>
	<stop  offset="0.5" style="stop-color:#FFFFFF"/>
	<stop  offset="1" style="stop-color:#000000"/>
</radialGradient>
<path style="fill:url(#SVGID_10_);" d="M412.752,347.746l-0.559,0.064v-0.561c0.002-4.796,0-9.97,0-14.773
	c0.002-3.952-0.052-7.091-0.181-9.38c-0.761-2.115-1.516-3.992-2.236-5.651c-0.003,0.001-0.006,0-0.009,0.001
	c-0.902,0.297-1.784,1.162-2.43,4.053c-0.48,2.534-0.805,6.572-0.803,11.351c-0.002,6.626,0.325,11.784,0.964,14.675
	c0.623,3.199,2.541,6.856,5.609,11.633c2.342,3.482,4.456,6.835,6.352,10.059c-0.034-8.185-0.64-15.542-1.588-22.072
	C416.175,347.346,414.471,347.546,412.752,347.746z"/>
<radialGradient id="SVGID_11_" cx="288.8833" cy="350.2392" r="190.9178" gradientUnits="userSpaceOnUse">
	<stop  offset="0" style="stop-color:#FFFFFF"/>
	<stop  offset="0.5" style="stop-color:#FFFFFF"/>
	<stop  offset="1" style="stop-color:#000000"/>
</radialGradient>
<path style="fill:url(#SVGID_11_);" d="M339.775,368.251c0.842-13.786,1.671-27.601,2.48-41.45
	c-4.995,6.513-8.812,10.868-10.266,12.49L339.775,368.251z"/>
<radialGradient id="SVGID_12_" cx="288.8828" cy="350.2387" r="190.9207" gradientUnits="userSpaceOnUse">
	<stop  offset="0" style="stop-color:#FFFFFF"/>
	<stop  offset="0.5" style="stop-color:#FFFFFF"/>
	<stop  offset="1" style="stop-color:#000000"/>
</radialGradient>
<path style="fill:url(#SVGID_12_);" d="M300.757,249.275c18.793,0.006,30.892,6.917,34.398,9.216l24.106-16.74
	c-18.199-8.033-38.334-12.505-59.513-12.505c-19.06,0-37.271,3.615-53.989,10.194l27.08,14.65
	C283.258,250.579,292.627,249.275,300.757,249.275z"/>
<radialGradient id="SVGID_13_" cx="288.8843" cy="350.2382" r="190.928" gradientUnits="userSpaceOnUse">
	<stop  offset="0" style="stop-color:#FFFFFF"/>
	<stop  offset="0.5" style="stop-color:#FFFFFF"/>
	<stop  offset="1" style="stop-color:#000000"/>
</radialGradient>
<path style="fill:url(#SVGID_13_);" d="M192.64,275.328c-2.995,3.162-5.848,6.46-8.556,9.876c4.325,1.29,8.65,2.501,12.973,3.617
	L192.64,275.328z"/>
<radialGradient id="SVGID_14_" cx="288.8843" cy="350.2382" r="190.9279" gradientUnits="userSpaceOnUse">
	<stop  offset="0" style="stop-color:#FFFFFF"/>
	<stop  offset="0.5" style="stop-color:#FFFFFF"/>
	<stop  offset="1" style="stop-color:#000000"/>
</radialGradient>
<path style="fill:url(#SVGID_14_);" d="M152.218,376.777c0,6.898,0.487,13.681,1.4,20.326l16.59-16.583c0-24.812,0-49.609,0-74.384
	C158.741,327.115,152.218,351.179,152.218,376.777z"/>
<radialGradient id="SVGID_15_" cx="288.8809" cy="350.2392" r="190.9214" gradientUnits="userSpaceOnUse">
	<stop  offset="0" style="stop-color:#FFFFFF"/>
	<stop  offset="0.5" style="stop-color:#FFFFFF"/>
	<stop  offset="1" style="stop-color:#000000"/>
</radialGradient>
<path style="fill:url(#SVGID_15_);" d="M206.314,482.783l-0.378,0.096c-2.271,0.572-4.542,1.172-6.813,1.772
	c20.424,19.061,46.253,32.387,74.945,37.423l-13.666-23.957c-29.878-8.93-50.363-36.439-53.887-41.385h-0.201
	c0,8.572,0,17.198,0,25.662V482.783z"/>
<radialGradient id="SVGID_16_" cx="288.8833" cy="350.2421" r="190.9188" gradientUnits="userSpaceOnUse">
	<stop  offset="0" style="stop-color:#FFFFFF"/>
	<stop  offset="0.5" style="stop-color:#FFFFFF"/>
	<stop  offset="1" style="stop-color:#000000"/>
</radialGradient>
<path style="fill:url(#SVGID_16_);" d="M390.646,466.712c-1.403,1.499-3.228,3.356-5.422,5.392c0.169,2.807,0.34,5.602,0.508,8.414
	l0.038,0.659l-0.643-0.141c-2.801-0.607-5.628-1.207-8.458-1.787c-7.553,5.646-17.091,11.06-27.67,12.91l-8.059,26.313
	c22.422-6.507,42.638-18.191,59.282-33.678c-1.302-1.39-2.545-2.951-3.72-4.731C394.019,475.892,392.041,471.536,390.646,466.712z"
	/>
<radialGradient id="SVGID_17_" cx="288.8789" cy="350.2436" r="190.9196" gradientUnits="userSpaceOnUse">
	<stop  offset="0" style="stop-color:#FFFFFF"/>
	<stop  offset="0.5" style="stop-color:#FFFFFF"/>
	<stop  offset="1" style="stop-color:#000000"/>
</radialGradient>
<path style="fill:url(#SVGID_17_);" d="M364.109,476.912l-0.019-0.405c-0.48-10.574-0.801-21.147-1.126-31.71
	c-2.132-0.321-4.245-0.628-6.339-0.669c-0.327,10.19-0.805,20.726-1.123,30.896l-0.018,0.537l-0.533-0.056
	c-7.005-0.736-13.984-1.848-21.103-2.211l-0.505-0.027l0.031-0.503c1.427-23.93,2.911-47.859,4.393-71.84l-6.806,4.7
	c0,22.279,0,44.542,0,66.8v0.556l-0.552-0.06c-6.791-0.73-13.608-0.73-20.289-1.104l-0.474-0.027v-0.472c0-16.991,0-33.981,0-50.973
	l-5.174,3.573c0,10.674,0,21.347,0,32.02c0.27,5.491,0.456,11.465,0.478,17.732l42.858,15.18
	c8.887-1.389,17.238-5.694,24.198-10.525c-2.51-0.482-5.016-0.945-7.496-1.347L364.109,476.912z"/>
<radialGradient id="SVGID_18_" cx="288.8789" cy="350.2436" r="190.9196" gradientUnits="userSpaceOnUse">
	<stop  offset="0" style="stop-color:#FFFFFF"/>
	<stop  offset="0.5" style="stop-color:#FFFFFF"/>
	<stop  offset="1" style="stop-color:#000000"/>
</radialGradient>
<path style="fill:url(#SVGID_18_);" d="M381.37,409.657c1.209,19.177,2.407,38.486,3.581,57.917
	c2.039-1.993,3.628-3.704,4.692-4.907c-0.26-1.246-0.496-2.514-0.681-3.831c-1.147-7.793-1.793-18.887-1.795-32.935
	c0-4.063,0-8.124,0.002-12.181v-0.531l0.529,0.032c0.709,0.042,1.426,0.084,2.139,0.126c-0.489-0.219-1.041-0.463-1.668-0.738
	C386.39,411.817,384.075,410.808,381.37,409.657z"/>
<radialGradient id="SVGID_19_" cx="288.8789" cy="350.2436" r="190.9196" gradientUnits="userSpaceOnUse">
	<stop  offset="0" style="stop-color:#FFFFFF"/>
	<stop  offset="0.5" style="stop-color:#FFFFFF"/>
	<stop  offset="1" style="stop-color:#000000"/>
</radialGradient>
<path style="fill:url(#SVGID_19_);" d="M356.492,411.742c1.922,0.001,3.873,0.021,5.944,0.287
	c-0.157-3.287-0.318-6.691-0.482-10.212c-1.64-0.624-3.313-1.25-5.006-1.871C356.757,404.333,356.604,408.265,356.492,411.742z"/>
<path style="fill:#EE312A;" d="M266.511,305.816c-3.84-5.44-8.719-8.299-14.628-9.025c-0.856-0.147-1.689-0.219-2.5-0.219
	c-3.225,0.004-6.101,1.13-8.628,3.419c-3.326,2.882-6.047,7.23-7.814,12.706c-1.939,5.869-3.067,11.731-3.551,18.332
	c-0.325,6.257-0.486,16.223-0.486,29.139c0,17.73,0,35.452,0,53.177c0,17.707,0.652,30.992,1.782,39.436
	c1.291,8.798,3.866,14.981,7.521,19.31c3.182,3.606,6.945,5.172,11.555,5.181c0.9,0,1.831-0.06,2.793-0.179
	c5.548-0.724,10.255-3.558,14.11-9.745c3.868-5.862,6.434-12.06,7.56-19.362c0.971-7.345,1.621-19.885,1.621-37.597
	c0-2.046,0-4.096,0-6.146c-6.468,0.017-12.812,0.353-19.314,0.37c0,7.213,0,14.43,0,21.285c-0.002,9.613-0.323,15.529-0.658,18.19
	c-0.486,2.641-1.561,4.386-3.469,4.817l-0.051,0.013h-0.058c-1.773,0.02-3.126-1.444-3.417-4.098
	c-0.503-2.674-0.656-8.207-0.658-16.705c0-27.327,0-54.279,0-81.239c0.002-8.874,0.155-14.764,0.654-17.413
	c0.289-2.385,1.306-4.155,3.101-4.191c0.178,0,0.358,0.02,0.54,0.057c1.876,0.001,3.071,1.47,3.355,3.722
	c0.505,2.328,0.656,7.842,0.66,16.718c0,9.812,0,19.624,0,29.436c6.478,0.334,12.821,0.342,19.314,0.342c0-5.348,0-10.377,0-15.745
	c0-15.497-0.65-27.298-1.78-34.993C272.775,317.496,270.203,311.288,266.511,305.816z"/>
<path style="fill:#EE312A;" d="M40.031,217.45c-3.233,112.4-6.627,227.357-9.861,345.6c6.323-4.21,12.654-8.412,19.13-12.618
	c0.324-19.849,0.648-39.331,1.134-59.186l0.008-0.354l0.336-0.108c2.238-0.725,4.675-1.837,6.99-2.585l0.64-0.208l0.013,0.676
	c0.32,18.536,0.642,37.074,0.962,55.26c6.49-3.846,12.828-7.372,19.156-11.221c-3.731-96.56-7.626-195.705-11.194-298.148
	C58.082,229.195,49.125,223.495,40.031,217.45z M57.514,433.041c-2.274,0.367-4.549,0.739-6.827,1.106l-0.588,0.094l0.01-0.595
	c0.486-28.806,1.787-74.224,3.738-135.893l0.999,0.009c0.975,53.912,2.113,98.586,3.088,134.773l0.013,0.436L57.514,433.041z"/>
<path style="fill:#EE312A;" d="M447.709,319.438l0.593-0.112v0.603c-0.002,59.339-0.002,119.028,0,178.738
	c6.475,2.453,12.813,4.912,19.15,7.701c0-63.995,0-127.616,0.002-191.606v-0.415l0.405-0.076c3.752-0.718,7.518-1.773,11.294-2.845
	c0-16.237,0-32.82,0-49.062c-14.137,6.472-28.426,12.237-42.721,17.299c0,14.07,0,28.133,0.002,42.199
	C440.296,320.841,444.007,320.132,447.709,319.438z"/>
<path style="fill:#EE312A;" d="M96.426,468.668c-4.523,1.376-8.913,2.746-13.3,4.122c0,19.161,0,38.335,0,57.498
	c4.381-2.402,8.771-4.805,13.303-7.209C96.426,504.941,96.426,486.805,96.426,468.668z"/>
<path style="fill:#EE312A;" d="M344.751,300.803c-3.232,57.665-6.95,114.59-10.348,171.519c6.83,0.384,13.489,1.418,20.118,2.131
	c0.323-10.175,0.799-20.693,1.12-30.846l0.017-0.484h0.484c2.487,0,4.949,0.381,7.386,0.746l0.409,0.06l0.016,0.42
	c0.322,10.568,0.642,21.138,1.12,31.708c6.499,1.065,13.129,2.461,19.619,3.863c-3.716-62.347-7.747-123.236-11.463-183.397
	C363.787,298.293,354.344,299.723,344.751,300.803z M362.891,413.103c-2.392-0.361-4.639-0.361-6.911-0.361h-0.519l0.017-0.516
	c0.489-15.522,1.789-40.267,3.9-74.61l0.998,0.015c0.978,29.913,2.115,54.647,3.09,74.953l0.028,0.611L362.891,413.103z"/>
<path style="fill:#EE312A;" d="M303.975,363.628h-0.501v-0.499c0-20.138,0-39.915,0-59.684c-6.502-0.019-12.844-0.355-19.312-0.372
	c-0.002,55.785-0.002,111.934,0,168.089c6.492-0.337,12.835-0.346,19.312-0.346c0-23.462,0-46.928,0-70.39v-0.501h0.501
	c2.109,0,4.061,0,6.175,0h0.499v0.501c0,23.469,0,46.944,0,70.415c6.316,0.339,12.801,0.364,19.313,1.025
	c0-56.498,0-112.986,0-169.845c-6.486,0.678-12.973,1.032-19.313,1.049c0,20.136,0,39.916,0,60.058v0.499h-0.499
	C308.035,363.628,306.086,363.628,303.975,363.628z"/>
<path style="fill:#EE312A;" d="M412.274,359.709c-3.093-4.821-5.081-8.556-5.757-11.979c-0.664-3.035-0.983-8.213-0.983-14.878
	c0-4.828,0.321-8.902,0.824-11.551c0.646-3.012,1.723-4.356,3.091-4.802c0.199-0.068,0.401-0.1,0.595-0.1
	c1.338,0.053,2.026,1.315,2.487,2.657c0.514,1.986,0.658,6.389,0.662,13.422c0,4.615,0,9.574,0,14.211
	c5.994-0.7,11.846-1.4,17.691-2.094c0-2.773,0-5.246,0-8.054c0.002-16.971-0.488-28.782-1.614-35.35
	c-1.289-6.578-3.681-11.266-7.156-14.861c-2.442-2.169-5.197-3.18-8.3-3.184c-1.493,0-3.067,0.238-4.705,0.703
	c-4.613,1.448-8.736,4.324-12.088,9.033c-3.218,4.758-5.788,10.232-7.236,17.173c-1.453,6.958-2.267,17.648-2.267,32.028
	c0,9.953,0.491,18.048,1.618,24.279c1.133,6.262,2.431,11.404,4.029,15.028c1.6,3.638,5.013,9.558,9.886,18.035
	c5.044,8.516,8.303,14.792,9.635,18.57c1.168,3.817,1.808,11.569,1.811,23.417c-0.002,5.557-0.32,9.642-0.99,12.305
	c-0.643,2.625-1.75,4.057-3.408,4.067h-0.066l-0.058-0.015c-1.773-0.463-2.625-2.169-3.288-4.414
	c-0.512-1.973-0.828-6.75-0.832-14.532c0-7.605,0-15.56,0-23.526c-5.848-0.353-11.835-0.699-17.687-1.046c0,3.88,0,7.764,0,11.65
	c0,14.017,0.65,25.079,1.784,32.793c1.13,8.053,3.7,14.628,7.397,20.841c3.859,5.841,8.308,9.429,13.536,10.873
	c1.558,0.454,3.022,0.692,4.41,0.69c2.99-0.004,5.615-1.075,8.09-3.511c3.499-3.613,6.061-8.686,7.345-15.255
	c1.29-6.952,1.944-18.014,1.944-33.142c0-21.027-1.144-36.14-3.564-45.664C426.862,384.386,421.201,372.98,412.274,359.709z"/>
<path style="fill:#EE312A;" d="M164.52,451.225c-4.531,0.708-9.074,1.73-13.626,2.768c0,15.124,0,29.895,0,44.669
	c4.561-1.7,9.102-3.1,13.626-4.797C164.52,479.767,164.52,465.326,164.52,451.225z"/>
<path style="fill:#EE312A;" d="M125.731,353.377c-3.099-6.302-5.07-11.51-5.735-16.026c-0.654-4.471-0.979-10.762-0.981-19.273
	c0.002-6.297,0.323-11.474,0.987-14.507c0.291-1.323,0.612-2.3,1.018-2.997c0.391-0.688,0.962-1.16,1.661-1.155
	c0.176-0.002,0.35,0.028,0.518,0.079c1.586,0.163,2.318,1.926,2.821,4.46c0.501,2.672,0.658,7.834,0.661,16.338
	c0,6.141,0,11.918,0,18.042c5.824,1.034,11.665,1.748,17.525,2.775c0-2.754,0-5.53,0-8.636c0-18.078-0.488-31.366-1.618-39.057
	c-1.294-8.076-3.713-15.401-7.256-21.986c-3.704-6.586-8.018-10.932-13.103-13.46c-1.863-0.875-3.594-1.323-5.183-1.323
	c-2.335,0.006-4.388,0.941-6.264,3.061c-3.305,3.564-5.737,9.755-7.188,18.572c-1.453,8.802-2.107,23.562-2.105,44.229
	c0,14.014,0.486,26.189,1.459,35.382c1.134,8.845,2.434,16.215,4.044,21.334c1.614,5.14,4.696,13.241,9.724,23.933
	c4.877,10.349,8.133,17.349,9.288,21.846c1.338,4.208,1.969,13.787,1.976,28.22c-0.002,6.296-0.325,11.478-0.983,14.851
	c-0.678,3.726-1.597,5.765-3.286,6.307c-0.202,0.056-0.408,0.087-0.611,0.087c-1.479-0.038-2.336-1.439-2.774-3.434
	c-0.501-2.663-0.82-8.564-0.822-18.182c0-9.784,0-19.92,0-29.716c-5.852,0.703-11.693,1.411-17.527,2.44c0,5.419,0,11.172,0,16.939
	c0,20.297,0.652,35.42,1.784,46.1c1.132,10.291,3.562,17.96,7.392,23.03c2.296,3.303,4.887,4.814,7.84,4.819
	c1.553,0,3.226-0.427,5.029-1.295c4.73-2.148,9.059-6.846,12.606-13.815c3.549-6.599,6.132-13.925,7.421-21.989
	c1.294-8.454,1.945-20.62,1.945-36.482c0.003-22.506-1.141-38.733-3.562-48.629C140.177,384.365,134.503,371.09,125.731,353.377z"/>
<path style="fill:#EE312A;" d="M555.049,487.512v-0.317c0-24.368,0-48.739,0-73.476v-0.548l0.546,0.049
	c3.866,0.35,7.747,0.699,11.642,1.376c0-22.135,0-43.909,0-65.69c-3.854,0.383-7.735,1.073-11.642,1.426l-0.546,0.049v-0.546
	c0-21.047,0-42.094,0-63.141v-0.332l0.306-0.129c4.284-1.801,8.415-3.602,12.697-5.413c0-22.834,0-46.024,0-68.871
	c-10.41,7.127-20.96,13.574-31.503,20.01c0,103.194,0,206.764,0,309.962c11.037,6.464,21.922,13.617,32.801,21.125
	c0-23.207,0-46.406,0-69.605c-4.61-1.803-9.384-3.621-14.014-5.795L555.049,487.512z"/>
<path style="fill:#EE312A;" d="M190.361,446.581c0-14.772,0-29.171,0-43.572v-0.458l0.457-0.04c4.098-0.36,8.173-0.374,12.222-0.705
	c0-11.863,0-23.728,0-35.595c-4.088-0.028-8.163-0.388-12.222-0.739l-0.457-0.04v-0.458c0-12.555,0-25.102,0-37.664v-0.588
	l0.58,0.094c4.35,0.707,8.701,1.413,12.908,2.121c0-12.586,0-24.825,0-37.415c-10.883-2.525-21.764-5.741-32.642-9.306
	c0,69.703,0,139.762,0,209.467c11.369-3.573,22.738-6.803,34.107-9.679c0-12.239,0-24.82,0-37.062
	c-4.835,0.709-9.531,1.417-14.38,2.132l-0.573,0.083V446.581z"/>
<path style="fill:#EE312A;" d="M524.828,263.892c-2.06-10.684-4.8-16.061-7.625-16.605c-0.518-0.167-1.128-0.255-1.833-0.255
	c-3.469-0.013-9.134,2.158-16.814,6.147c-4.618,2.166-9.235,4.339-13.853,6.511c0,84.709,0,169.787,0,254.499
	c6.334,2.82,12.651,5.963,18.83,9.113c0-40.722,0-81.801,0-122.876v-0.501h0.499c3.028-0.027,5.065,2.146,5.696,5.969
	c0.493,3.759,0.817,12.979,0.82,28.128c-0.003,30.923-0.003,62.203,0,93.124c5.825,3.137,11.656,6.282,17.359,9.744
	c0-26.287,0-52.575,0-78.865c0.002-24.366-0.164-39.141-0.484-44.648c-0.323-5.14-1.135-11.032-2.428-17.64
	c-1.446-6.215-4.011-11.285-7.818-14.89l-0.604-0.571l0.786-0.266c4.095-1.357,6.998-6.325,8.445-14.014
	c1.45-8.05,2.104-23.929,2.103-47.546C527.91,292.985,526.933,274.529,524.828,263.892z M509.215,354.07
	c-0.844,2.335-2.661,4.017-5.164,4.017c-0.006,0-0.013,0-0.019,0h-0.499v-0.499c0-20.308,0-40.616,0-60.923v-0.37l0.353-0.108
	c0.624-0.189,1.206-0.293,1.756-0.293c1.746-0.022,2.995,1.143,3.734,3.184c0.862,2.4,1.162,8.26,1.17,17.158
	c0,5.174,0,10.342,0.003,15.51C510.536,343.957,510.242,351.287,509.215,354.07z"/>
</svg>
