<?xml version="1.0" encoding="iso-8859-1"?>
<!-- Generator: Adobe Illustrator 24.0.1, SVG Export Plug-In . SVG Version: 6.00 Build 0)  -->
<svg version="1.1" id="Layer_1" xmlns="http://www.w3.org/2000/svg" xmlns:xlink="http://www.w3.org/1999/xlink" x="0px" y="0px"
	 viewBox="0 0 600 600" style="enable-background:new 0 0 600 600;" xml:space="preserve">
<ellipse transform="matrix(0.7071 -0.7071 0.7071 0.7071 -123.915 300.1443)" style="fill:#FFE600;" cx="300.349" cy="299.651" rx="300.505" ry="300.506"/>
<ellipse transform="matrix(0.0802 -0.9968 0.9968 0.0802 -22.4263 574.9986)" style="fill:#FFFFFF;" cx="300.349" cy="299.651" rx="278.807" ry="278.811"/>
<ellipse transform="matrix(0.0198 -0.9998 0.9998 0.0198 -0.8583 589.7473)" style="fill:#FFE600;" cx="300.349" cy="295.311" rx="244.091" ry="244.095"/>
<ellipse transform="matrix(0.0737 -0.9973 0.9973 0.0737 -16.3026 573.0707)" style="fill:#FFFFFF;" cx="300.349" cy="295.312" rx="222.394" ry="222.398"/>
<g>
	<path style="fill:#00AC5B;" d="M167.786,300.464l5.484-53.53l4.396,53.53H167.786z M152.877,205.268l-19.595,168.153h27.77
		l4.339-43.124h14.754l4.339,43.124h28.261l-21.495-168.153H152.877z"/>
	<path style="fill:#00AC5B;" d="M248.384,347.656v25.765h-30.374v-25.765H248.384z"/>
	<path style="fill:#00AC5B;" d="M315.167,227.932c1.66,1.309,1.826,5.466,1.826,11.205v35.5c0,6.224-0.043,10.665-1.564,12.294
		c-2.424,2.595-7.298,2.958-10.077,2.958c-0.627,0-1.361-0.035-2.191-0.103v-64.448C307.05,225.336,311.197,224.796,315.167,227.932
		z M273.327,373.421h29.833v-63.464h8.04c6.467,0,20.416-1.314,24.49-3.941c4.067-2.628,6.852-6.4,8.348-11.311
		c1.495-4.913,2.246-17.07,2.246-27.795v-14.633c0-10.514-0.386-18.276-1.149-23.295c-0.766-5.018-2.262-9.289-4.486-12.82
		c-2.23-3.525-5.514-6.224-9.862-8.094c-4.348-1.864-19.268-2.8-27.403-2.8h-30.056V373.421z"/>
	<path style="fill:#00AC5B;" d="M343.745,347.656v25.765h-30.378v-25.765H343.745z"/>
	<path style="fill:#00AC5B;" d="M448.93,265.478h-29.833v-16.197c0-8.492-0.305-13.794-0.917-15.899
		c-0.611-2.108-1.999-3.162-4.169-3.162c-2.373,0-3.883,1.284-4.527,3.843c-0.643,2.559-0.966,8.098-0.966,16.606v78.072
		c0,8.17,0.323,13.498,0.966,15.99c0.644,2.491,2.087,3.738,4.323,3.738c2.169,0,3.595-1.251,4.273-3.756
		c0.678-2.505,1.017-8.385,1.017-17.641v-21.183h29.833v6.564c0,17.433-0.852,29.799-2.548,37.091
		c-1.699,7.295-5.407,13.685-11.119,19.172c-5.712,5.484-12.727,8.23-21.042,8.23c-8.728,0-15.916-2.322-21.561-6.954
		c-5.644-4.636-9.386-11.06-11.222-19.265c-1.837-8.205-2.754-20.548-2.754-37.029v-49.123c0-12.111,0.292-21.198,0.882-27.257
		c0.589-6.059,2.271-11.89,5.043-17.501c2.772-5.607,6.648-10.023,11.636-13.243c4.983-3.221,10.7-4.833,17.145-4.833
		c8.73,0,15.936,2.493,21.613,7.467c5.678,4.98,9.421,11.188,11.221,18.621c1.802,7.433,2.705,18.997,2.705,34.694V265.478z"/>
	<path style="fill:#00AC5B;" d="M480.437,347.656v25.765h-30.375v-25.765H480.437z"/>
</g>
</svg>
