<?xml version="1.0" encoding="iso-8859-1"?>
<!-- Generator: Adobe Illustrator 24.0.1, SVG Export Plug-In . SVG Version: 6.00 Build 0)  -->
<svg version="1.1" id="Layer_1" xmlns="http://www.w3.org/2000/svg" xmlns:xlink="http://www.w3.org/1999/xlink" x="0px" y="0px"
	 viewBox="0 0 612 792" style="enable-background:new 0 0 612 792;" xml:space="preserve">
<path style="fill:#0054A6;" d="M159.676,165.039l11.426,3.29c-0.768,3.052-1.977,5.6-3.626,7.647
	c-1.651,2.046-3.698,3.59-6.145,4.632c-2.446,1.042-5.56,1.563-9.339,1.563c-4.586,0-8.331-0.635-11.239-1.904
	c-2.907-1.269-5.415-3.501-7.526-6.696c-2.11-3.196-3.166-7.287-3.166-12.273c0-6.646,1.856-11.756,5.569-15.325
	c3.713-3.57,8.965-5.355,15.757-5.355c5.314,0,9.493,1.023,12.535,3.069c3.041,2.047,5.3,5.19,6.778,9.43l-11.513,2.439
	c-0.403-1.225-0.825-2.12-1.266-2.686c-0.73-0.95-1.622-1.681-2.677-2.192c-1.056-0.512-2.236-0.768-3.54-0.768
	c-2.955,0-5.219,1.132-6.792,3.395c-1.19,1.68-1.785,4.317-1.785,7.912c0,4.453,0.71,7.507,2.13,9.158
	c1.42,1.651,3.415,2.477,5.986,2.477c2.494,0,4.379-0.667,5.656-2.001C158.175,169.517,159.101,167.58,159.676,165.039z"/>
<path style="fill:#0054A6;" d="M445.28,168.191l12.404-0.74c0.267,1.919,0.814,3.381,1.641,4.386
	c1.342,1.627,3.262,2.439,5.756,2.439c1.86,0,3.295-0.415,4.303-1.247c1.008-0.831,1.511-1.795,1.511-2.892
	c0-1.042-0.479-1.974-1.438-2.796c-0.96-0.822-3.185-1.599-6.678-2.33c-5.717-1.224-9.796-2.851-12.231-4.879
	c-2.456-2.028-3.685-4.613-3.685-7.757c0-2.064,0.628-4.016,1.886-5.852c1.256-1.837,3.147-3.28,5.67-4.331
	c2.522-1.051,5.981-1.576,10.376-1.576c5.391,0,9.501,0.955,12.332,2.864c2.83,1.909,4.513,4.947,5.051,9.113l-12.289,0.686
	c-0.327-1.809-1.013-3.125-2.058-3.947c-1.047-0.822-2.49-1.233-4.332-1.233c-1.516,0-2.657,0.307-3.425,0.918
	c-0.767,0.613-1.151,1.357-1.151,2.234c0,0.64,0.316,1.216,0.95,1.727c0.614,0.53,2.071,1.024,4.374,1.48
	c5.699,1.17,9.781,2.353,12.246,3.55c2.466,1.196,4.26,2.682,5.382,4.454c1.123,1.773,1.685,3.755,1.685,5.948
	c0,2.576-0.749,4.952-2.245,7.126c-1.497,2.176-3.588,3.824-6.274,4.948c-2.686,1.124-6.073,1.686-10.159,1.686
	c-7.177,0-12.146-1.315-14.909-3.947C447.207,175.593,445.645,172.248,445.28,168.191z"/>
<polygon style="fill:#0054A6;" points="590.5,157.204 495.256,157.204 495.256,187.621 433.582,187.621 433.582,157.204 
	338.338,157.204 338.338,187.621 276.664,187.621 276.664,157.204 181.419,157.204 181.419,187.621 119.744,187.621 
	119.744,157.204 24.5,157.204 24.5,202.98 24.501,202.98 121.559,250.277 121.559,535.948 307.5,652.162 493.442,535.948 
	493.442,250.277 590.5,202.98 "/>
<path style="fill:#FFFFFF;" d="M39.81,172.514h64.624v15.107v15.311h15.309h61.675h15.31v-15.311v-15.107h64.624v15.107v15.311
	h15.31h16.518c-0.791,1.087-1.598,2.236-2.407,3.455c-2.89-1.223-5.703-1.86-8.485-1.852c-3.158-0.002-5.949,0.768-8.408,1.669
	c-7.39,2.747-12.816,6.538-26.323,6.626c-11.476-0.015-19.213-2.017-25.405-4.08c-3.102-1.036-5.818-2.116-8.523-3.021
	c-2.697-0.892-5.448-1.678-8.609-1.69c-2.474,0.011-4.71,0.552-6.691,1.688c-0.987,0.581-1.935,1.311-2.782,2.4
	c-0.824,1.069-1.617,2.627-1.627,4.648c0.015,5.268,2.909,9.865,7.062,13.428c5.623,4.798,13.94,8.63,25.527,11.633h-95.534
	L39.81,193.409V172.514z"/>
<path style="fill:#FFFFFF;" d="M575.19,193.409l-91.166,44.427h-66.238c-0.533-0.615-1.061-1.214-1.567-1.774
	c-2.09-2.302-3.89-4.088-4.905-5.067c-7.344-12.451-17.151-23.332-30.228-31.023c-7.972-4.702-17.101-8.158-27.438-10.194v-2.156
	v-15.107h64.625v15.107v15.311h15.31h61.674h15.31v-15.311v-15.107h64.624V193.409z"/>
<path style="fill:#FFFFFF;" d="M303.447,214.975c2.558-3.874,5.146-7.042,7.061-9.2c0.519-0.587,0.988-1.098,1.394-1.529
	c6.767-0.867,13.06-1.274,18.902-1.274c18.061,0.015,31.724,3.853,42.514,10.193c10.779,6.358,18.884,15.349,25.3,26.454
	l0.584,1.011l0.862,0.797c0,0,0.028,0.023,0.129,0.12c0.759,0.707,4.697,4.496,8.221,8.952c1.76,2.214,3.407,4.603,4.486,6.666
	c1.113,2.051,1.498,3.78,1.452,4.147c0,6.506-0.014,12.896-0.014,19.179c0.004,31.764,0.284,60.759,3.996,88.439
	c2.116,15.793,5.386,31.163,10.361,46.285l-67.775-56.911l-4.781-48.828c1.99-0.206,3.995-0.465,6.021-0.815
	c4.165-0.725,6.956-4.688,6.233-8.852c-0.722-4.166-4.685-6.957-8.849-6.234c-4.193,0.727-8.241,1.068-12.131,1.068
	c-16.043-0.013-29.429-5.772-38.9-14.902c-9.455-9.153-15.011-21.671-15.026-35.779C293.445,233.24,298.286,222.736,303.447,214.975
	z"/>
<path style="fill:#FFFFFF;" d="M313.556,630.322c3.282-11.395,8.075-26.725,13.598-44.545c6.014-19.414,12.901-41.836,19.697-65.613
	l61.001,51.225L313.556,630.322z"/>
<path style="fill:#FFFFFF;" d="M478.132,527.464l-56.631,35.394L136.868,323.846v-70.7h75.014l9.437,7.925
	c-2.173,0.727-4.16,1.456-5.893,2.201c-1.404,0.608-2.66,1.221-3.829,1.932c-1.167,0.735-2.276,1.476-3.422,2.918
	c-1.885,2.443-1.663,5.884,0.52,8.067c3.258,3.15,7.391,4.87,12.681,6.488c7.862,2.315,18.436,3.941,31.699,5.061l225.055,188.984
	V527.464z"/>
<path style="fill:#FFFFFF;" d="M282.29,216.782c-1.157,0-2.407,0.268-4.196,0.923c-1.771,0.644-3.992,1.669-6.739,2.78
	c-5.502,2.241-13.111,4.619-23.796,4.592c-19.342,0.063-31.042-5.479-37.811-7.735c-0.156-0.053-0.309-0.102-0.458-0.151
	c2.528,2.102,6.879,4.519,13.114,6.656c11.994,4.151,30.855,7.338,57.192,7.789c1.172-5.239,2.977-10.093,5.066-14.482
	C283.725,216.874,282.962,216.788,282.29,216.782z"/>
<path style="fill:#FFFFFF;" d="M256.099,264.882c-10.62,2.179-20.748,4.642-28.09,6.896c3.919,0.952,8.776,1.814,14.441,2.54
	c11.658,1.498,26.748,2.433,44.663,2.749c-3.42-5.818-5.937-12.195-7.409-18.948C272.538,261.168,264.325,263.141,256.099,264.882z"
	/>
<path style="fill:#0054A6;" d="M149.729,281.584h17.7l12.333,34.875l12.176-34.875h17.185l-20.346,48.461h-18.352L149.729,281.584z"
	/>
<path style="fill:#0054A6;" d="M250.891,339.304h16.969v48.084h-16.969V339.304z"/>
<path style="fill:#0054A6;" d="M322.147,436.6l15.637-0.936c0.338,2.43,1.026,4.281,2.066,5.554c1.693,2.06,4.112,3.09,7.256,3.09
	c2.346,0,4.154-0.527,5.424-1.58c1.27-1.052,1.905-2.273,1.905-3.662c0-1.318-0.605-2.498-1.814-3.54
	c-1.21-1.041-4.015-2.024-8.417-2.951c-7.207-1.549-12.346-3.61-15.418-6.178c-3.096-2.569-4.644-5.844-4.644-9.824
	c0-2.615,0.792-5.085,2.376-7.411c1.584-2.326,3.967-4.153,7.147-5.483c3.18-1.332,7.54-1.996,13.078-1.996
	c6.796,0,11.978,1.209,15.546,3.627c3.566,2.418,5.688,6.266,6.367,11.541l-15.492,0.868c-0.411-2.29-1.275-3.957-2.593-5
	c-1.319-1.039-3.139-1.561-5.46-1.561c-1.911,0-3.351,0.388-4.317,1.162c-0.969,0.775-1.451,1.72-1.451,2.83
	c0,0.81,0.398,1.539,1.197,2.186c0.773,0.671,2.611,1.297,5.514,1.875c7.184,1.481,12.329,2.979,15.436,4.494
	c3.107,1.517,5.369,3.397,6.785,5.642c1.414,2.245,2.122,4.755,2.122,7.532c0,3.264-0.944,6.271-2.831,9.024
	c-1.887,2.755-4.522,4.844-7.907,6.267c-3.388,1.424-7.656,2.135-12.807,2.135c-9.046,0-15.31-1.666-18.793-4.998
	C324.578,445.975,322.606,441.738,322.147,436.6z"/>
<path style="fill:#0054A6;" d="M407.849,477.22h41.954v10.748h-26.264v8.002h24.363v10.267h-24.363v9.924h27.025v11.401h-42.716
	V477.22z"/>
<path style="fill:#0054A6;" d="M354.685,231.917c0,7.219-4.746,13.061-10.611,13.061c-15.78,0-5.169-17.685-30.2-14.148
	c0-5.264,10.222-9.523,22.854-9.523C346.652,221.307,354.685,226.053,354.685,231.917z"/>
</svg>
