<svg enable-background="new 0 0 612 792" viewBox="0 0 612 792" xmlns="http://www.w3.org/2000/svg"><path d="m558.001 373.397c-2.947-1.487-6.25-1.822-9.453-2.365-5.995-1.005-11.549-5.463-11.408-12.079.02-1.219.073-2.468.482-3.521 5.011-2.21 8.555-6.3 11.59-10.584 2.21-3.128 3.685-7.272 1.446-10.732-1.46-2.25-4.308-3.159-7.436-2.144-3.457 2.325-7.081 5.393-11.355 7.788.429-9.945 3.282-19.361 7.664-28.037 5.098-10.102 12.48-18.737 19.688-27.37 6.405-7.677 12.782-16.061 13.687-26.354.147-1.658-.053-3.337-.315-4.991-.309-1.919-1.072-3.761-2.385-5.265-7.825-5.339-16.567-9.047-24.841-14.129.402-1.728-.314-3.5-1.869-4.532-.094-.063-1.012-.184-1.186-.017-.697.637-.978 1.802-1.702 2.472-.636-.234-1.762-.396-2.706-1.303.429-.476-.255-1.35-.897-1.611-7.999-3.223-15.764-6.944-23.688-10.31-1.367-.576-2.86-.59-4.288.137-.663.338-.844-.311-2.15-.801 2.727-2.79 4.904-6.12 7.034-9.389 5.413-8.331 11.784-16.088 15.824-25.243.75-1.685 1.313-3.447 1.561-5.276.141-1.025-1.36-2.134-2.164-1.34-2.646 2.596-6.203 4.425-9.921 6.073-.034.305-.838.221-.664-.13 3.484-6.84 5.654-14.396 5.729-22.087l-.616-6.317c1.822-2.194 3.517-4.612 5.339-6.91 10.217-12.873 9.479-31.526-2.74-43.187-.134-.134-.71-.506-1.434-.265.396 1.788 1.487 3.35 1.541 5.152.208 7.878-3.148 15.173-7.383 21.715l-5.728-5.684-7.597-5.842c-11.027-8.28-25.042-10.679-38.494-9.121-3.49.402-6.953 1.055-10.524 2.03-.717.201-1.621.754-2.572.626l-.014-11.536c.616-6.264 3.631-12.072 7.992-16.651.268-.271-.174-.911-.616-.841-4.884.777-8.903 3.765-12.225 7.228-9.212 9.597-10.854 23.139-11.369 35.918-3.886 3.514-7.081 7.697-9.178 12.487-1.159 2.649-2.478 5.275-2.848 8.491-1.5-3.075-2.599-6.04-2.88-9.171-.067-.797-.791-1.47-1.574-1.283-.496.121-.677.757-.852 1.303-4.1 12.718-4.1 26.19-2.713 39.364.509 4.824 1.434 9.597 2.907 14.223.824 2.586 2.278 5.175 4.951 5.527.851.121 1.514-1.008 1.588-1.695l.804-8.8c1.092 4.201 2.305 7.919 3.088 12.076.04.228.1 1.199-.389 1.199-7.603.033-15.167.938-22.857 1.839l-7.624-38.306c.342-.043.992-.09 1.187-.158 2.116-.643 4.086-1.725 5.741-3.202 8.327-7.449 10.906-18.754 10.055-29.212.435-2.241.423-4.241-.2-6.056-.288-.837-.074-2.318-.958-2.633-1.722-.616-3.638-.824-5.453-.238-.992.322-2.426.684-2.667 2.161-.663 4.033.724 8.552-.321 13.01-.603 7.011-2.713 14.363-9.03 18.523l-4.924-24.844c-.194-1.005-.482-2.358-1.354-2.455-3.544-.398-7.02.519-9.895 2.66l5.908 27.765c-4.903-.516-9.613-2.666-12.4-6.846-3.402-5.088-5.271-10.923-6.94-16.537-2.458-.305-4.555.053-6.538.727-1.635.556-3.015 1.752-3.523 3.323 2.05 5.832 3.805 11.694 7.442 16.578 5.729 7.664 14.337 13.579 24.151 12.882l7.349 34.531c-.429 0-1.333-.077-1.621-.014l-12.89 2.398c-1.307-1.025-3.122-1.671-5.004-1.849-1.534-.141-3.055.258-4.335 1.116-1.922 1.29-3.095 3.574-2.425 5.942-8.535 3.661-16.774 8.277-24.365 13.86-9.272 6.816-16.661 15.851-21.786 26.137-1.078 2.15-2.284 4.317-2.512 6.779-.522 5.671 1.239 11.228 4.448 15.86 12.139 13.325 29.095 20.738 46.794 22.734 7.584.851 15.234 1.069 22.871 1.206 12.521.231 25.196-.764 37.228-5.363-.797 1.685-1.614 3.128-2.512 4.475-1.796-.452-3.598-.596-5.319-.191-12.059 2.834-22.215 10.109-32.578 16.554-.456.278-.517 1.119-.034 1.343.911.432 2.044.137 3.009.292.837.134 1.547.81 2.378 1.43-6.633 2.208-12.95 5.004-18.584 8.977-9.761 5.534-16.252 16.185-14.483 27.463 1.132 7.212 5.514 13.435 11.496 18.054-.536 1.859-.637 4.03-.061 6.076 1.092 3.966 3.544 7.406 6.793 9.915 1.755 1.353 3.645 2.522 5.165 3.446.831 4.188 3.102 7.41 5.962 9.908 3.155 2.758 5.949 6.02 7.436 9.969.255.69.509 1.45.241 2.171-1.286-.121-2.459-.342-3.879-.757l-.925-5.323c-2.291-7.897-10.926-11.662-18.47-9.161-4.361 1.451-7.442 5.729-6.927 10.036 1.031 2.572 3.276 3.841 5.54 3.416 2.78-.513 5.158-2.171 6.947-4.327.864-1.052 1.126-2.412 1.561-3.691 1.461.318 2.721.944 3.859 1.926 1.031 2.787 1.4 5.883.944 8.906-.107.684-.248 1.461-.891 1.752-1.829.827-3.598 1.792-5.199 2.777-.991-.637-1.862-1.072-2.76-1.471-6.559-2.928-14.497-.848-18.001 5.624-.583 1.089-.482 3.112.623 3.155l13.05.496c-.71 1.409-1.587 2.267-2.458 3.074-11.992 11.135-22.798 23.468-32.76 36.451-3.831 4.983-8.166 10.18-8.099 16.799.616 2.537 1.614 4.971 3.162 7.036.964 1.293 2.224 2.321 3.57 3.377.221.177.677.368.71.824.281 3.115.503 6.264.349 9.302-.033.777 1.152 1.359 1.977 1.745 2.217 1.045 4.971 1.212 6.833-.442.054-3.095.248-6.026.596-8.936l2.405-.295c-.288 2.039-.442 4.057-.462 5.536 1.192 1.947 3.115 2.322 4.435 1.348 1.461.161 2.787-.667 2.968-1.95l.328-7.07c0-.241.684-.406.979-.476.207.509.583 2.288 1.059 2.565 1.393.8 3.202.302 4.461-.991 2.586 6.022 6.452 11.036 11.161 15.117l3.899 2.964c3.202 2.73 7.315 3.704 11.354 5.356-10.155.612-20.037-.169-29.925-.178-2.01-.007-4.007.633-5.232 2.244-.449.576-.094 2.097.509 2.116 1.709.03 3.484.499 5.273.708 2.05.23 4.141.107 6.21-.024 3.491-.225 6.727-1.614 9.667-2.579l24.278.141 6.579.442 15.434-.262c3.631-.134 7.255.04 11.275.291 2.6 1.575 6.211 1.38 8.703-1.023.556-.52-.892-1.853-1.99-1.836-7.55.117-15.1.017-22.644-.034-.582-.006-1.172-.218-1.34-.647 7.249-2.458 13.546-6.92 18.343-12.762 14.712-17.923 12.749-44.402-4.924-59.59l-4.141-3.162c.864-.603 1.702-1.319 2.198-2.261.958-1.839.844-4.039-.456-5.899.965-1.387 1.762-3.031 2.586-4.636 2.291-4.425 2.659-9.667.449-14.286-8.32-8.958-12.4-20.939-12.682-33.138 0-.188.83-.737.817-.955-.235-3.168-.617-6.391-1.152-9.767 2.659-2.148 5.66-3.913 8.649-5.698l29.825 151.882c1.179 1.479 2.921 2.224 4.602 1.825 1.34-.319 2.445-1.249 3.143-2.285 3.135.269 6.156.5 9.238.383.844 1.591 2.559 2.72 4.455 2.692 3.001-.051 5.988-1.809 6.652-4.863l7.047-.027c4.04 1.518 8.823 1.404 13.486 1.555 3.537 2.093 7.463 3.017 11.724 2.94.616 1.943.757 4.123 1.828 5.642 1.515.526 2.773.513 3.913.076.535-.204.951-.84.575-1.369-.314-.436-1.413-.616-1.594-1.169-.396-1.2-.609-2.446-.63-3.599 2.291-.592 4.609-.9 6.947-.965.556-.018.877.587.871.617-.322 2.148.254 3.722 1.259 4.831.59.639 1.843.277 2.138-.429.771-1.85 1.205-3.823 1.165-5.855.904-.415 1.89-.644 2.895-.681 0 .569-.047 2.262.026 2.811.06.448.309.903.663 1.064.811.375 1.722.496 2.566.235.348-.107.703-.607.677-1.227-.047-1.048.2-2.297.837-3.945-.06 1.282-.127 2.02-.274 2.743-.154.71.02 1.47.542 1.974.992.927 2.452 1.102 3.679.482 1.286-.657 1.279-2.182.771-3.735-1.012-.319-2.063-1.33-2.164-2.854-.027-.382 1.106-.736 1.815-.857.743.994 1.561 1.879 2.485 2.593.824.63 1.942.58 2.841.044.528-.318.877-.892.736-1.759-1.567-.556-2.874-2.04-2.987-3.973 3.008-3.119 4.261-8.006 1.661-11.798-3.055-4.461-8.702-4.692-13.606-4.377l-9.131.903c-17.378-.713-28.163-1.694-35.131-4.029 2.412.208 4.388.234 6.364.154 1.36-.054 2.478-1.253 2.331-2.602-.1-.918.751-2.393 1.622-2.371l4.568.073c.644-1.524 1.434-2.817 2.593-4.16-1.661-.714-3.095-1.35-4.361-2.304-.382-.289-1.387.626-2.104.89-.389.138-.643-.415-.643-.626.007-.777-.723-1.219-1.293-.969-.603.272-2.203 1.538-2.847 1.997-.422-.925-.309-1.839-.267-2.448.073-1.189-1.032-2.244-2.251-1.702-1.421.626-2.52 2.251-3.853 4.054-.408-2.124-.596-3.982-.609-5.906 2.251.309 4.441-.605 5.855-2.361.597-.743.805-1.755.898-2.72.06-.649-.563-1.136-1.199-.994-.557.126-.857.605-.992 1.125-.448 1.759-2.244 2.79-3.872 2.295l1.025-4.915c1.286-6.112 4.649-11.479 6.458-17.387 1.675-5.46 1.246-11.248.978-16.899.944-5.815 1.011-11.727.174-17.625 2.727-6.301 4.689-12.996 5.266-20.178.04-.493 0-1.702.342-1.726 1.929-.154 3.584-1.227 3.973-2.798 1.179-4.699 1.487-9.579 1.722-14.426.047-1.008.141-2.033.596-3.011 1.816 6.093 5.286 11.329 9.507 15.844 4.575 4.907 10.731 8.418 17.612 8.31 5.594-.08 11.609-1.232 15.02-5.811 1.352-3.456 2.057-6.83 2.197-10.24.126-2.912-1.334-5.709-3.98-7.052zm-86.246 63.424-6.123.315c-.429.037-.729.689-1.246 1.232.684 2.09 2.439 3.624 3.979 5.326-.63 2.947-1.065 5.935-1.031 8.933.106 8.478.844 16.949 2.036 25.347l-2.036 20.526c-.067.868-.536 1.729-.757 2.66l-27.092-144.96c4.783-3.138 8.883-7.141 13.492-10.484.154-.101.67-.271.965-.416 5.024 17.398 9.506 34.917 13.237 52.606.201 6.099 2.814 11.681 5.627 16.976.396 1.869.744 3.731 1.019 6.056-.925 4.857-2.465 10.126-2.07 15.883zm53.628-142.422c-2.305 3.826-4.355 7.825-6.076 12.056-3.33-13.292-6.619-26.673-12.22-39.244-.429-.958-.804-1.956-1.541-3.266 4.288 1.836 8.093 3.996 10.806 6.719 1.4 3.705 3.766 6.612 7.202 7.182 2.572.429 4.931-1.39 5.949-4.214 2.264 1.534 4.273 3.075 6.498 4.911-4.026 4.88-7.329 10.38-10.618 15.856z" fill="#fff"/><path d="m205.444 457.978h5.273c14.44 0 24.641 8.352 24.641 23.184 0 16.147-11.46 23.179-24.87 23.179h-5.044zm-22.462 64.597h31.862c23.953 0 43.894-18.128 43.894-41.414 0-23.29-19.828-41.419-43.894-41.419h-31.862z"/><path d="m291.631 490.058h25.329v-18.236h-25.329v-13.844h26.512l-2.111-18.236h-46.865v82.833h46.999l2.113-18.235h-26.648z"/><path d="m417.927 679.745h25.651v-17.823h-25.651v-13.529h26.843l-2.129-17.821h-47.464v80.949h47.597l2.137-17.821h-26.984z"/><path d="m127.358 648.393h5.155c14.122 0 24.099 8.159 24.099 22.656 0 15.781-11.207 22.651-24.323 22.651h-4.931zm-21.968 63.128h31.16c23.426 0 42.929-17.713 42.929-40.472 0-22.76-19.391-40.477-42.929-40.477h-31.16z"/><path d="m260.551 630.554v44.354c0 10.146-.429 20.188-8.485 27.825-6.765 6.485-17.398 8.787-26.849 8.787-9.449 0-20.081-2.302-26.847-8.787-8.054-7.637-8.484-17.679-8.484-27.825v-44.354h21.049v41.527c0 10.254.752 21.448 14.283 21.448 13.534 0 14.285-11.194 14.285-21.448v-41.527z"/><path d="m297.236 711.521h-22.982v-80.948h22.982z"/><path d="m366.263 630.572h-.644l-20.03 49.17-19.847-49.018-22.246 2.461 33.564 78.336h16.628l34.193-78.553z"/><path d="m505.244 710.749-6.016-3.677s4.026-6.6 8.16-13.372h-26.476v-63.128h-23.26v80.948h48.958c-.455-.258-.917-.499-1.366-.771z"/><path d="m545.795 664.658-5.514-1.53c-3.744-1.119-13.472-2.853-13.472-7.34 0-4.279 9.178-6.42 13.143-6.42 5.293 0 10.364 2.039 14.33 5.094l8.595-15.491c-7.383-3.875-17.632-6.324-26.006-6.324-16.648 0-32.552 10.193-32.552 25.795 0 14.883 12.815 18.146 26.375 21.713 4.629 1.226 16.031 3.162 16.031 8.769 0 5.403-8.314 7.752-13.386 7.752-7.389 0-13.78-3.571-19.18-7.959l-9.258 16.111c8.487 5.504 18.737 8.766 29.208 8.766 8.381 0 17.09-2.14 23.588-7.238 6.612-5.195 11.517-13.051 11.517-20.693.002-12.443-11.843-17.846-23.419-21.005z"/><path d="m246.354 539.185-10.207 41.607-12.325-41.646h-15.525l-12.325 41.646-10.195-41.557-23.792 2.758 22.536 75.901h17.011l14.288-45.637 14.767 45.637h17.011l22.551-75.952z"/><path d="m390.527 585.625c12.266-1.987 18.912-11.385 18.912-22.248 0-16.815-17.807-24.231-34.883-24.231h-33.596v78.749h22.475v-30.287h.228l30.528 30.287h3.223l17.579-10.635zm-24.533-2.801h-2.559v-24.871h2.559c8.629 0 18.329 1.585 18.329 12.437 0 10.849-9.7 12.434-18.329 12.434z"/><path d="m174.609 461.421h-131.604l-5.18 41.451h61.139l-64.248 115.022h129.532l4.145-37.303h-56.994z"/><path d="m491.317 586.977h25.329v-17.337h-25.329v-13.164h26.683l-2.01-17.338h-43.84v27.045s-1.319 0-3.296 0v51.711h47.115l2.003-17.337h-26.655z"/><path d="m407.336 542.236v4.671c2.652 3.523 4.401 7.553 5.111 11.983h13.458v59.004h22.463v-59.004h18.563v-16.654z"/><path d="m311.923 540.183h-20.569l-28.603 77.711h21.875l3.768-10.662h26.49l3.479 10.662h17.599v-12.391zm-18.323 50.885 7.987-25.4h.2l7.89 25.4z"/><path d="m558.001 373.397c-2.947-1.487-6.25-1.822-9.453-2.365-5.995-1.005-11.549-5.463-11.408-12.079.02-1.219.073-2.468.482-3.521 5.011-2.21 8.555-6.3 11.59-10.584 2.21-3.128 3.685-7.272 1.446-10.732-1.46-2.25-4.308-3.159-7.436-2.144-3.457 2.325-7.081 5.393-11.355 7.788.429-9.945 3.282-19.361 7.664-28.037 5.098-10.102 12.48-18.737 19.688-27.37 6.405-7.677 12.782-16.061 13.687-26.354.147-1.658-.053-3.337-.315-4.991-.309-1.919-1.072-3.761-2.385-5.265-7.825-5.339-16.567-9.047-24.841-14.129.402-1.728-.314-3.5-1.869-4.532-.094-.063-1.012-.184-1.186-.017-.697.637-.978 1.802-1.702 2.472-8.045 7.399-14.678 16.852-15.515 28.07-1.192 3.748-1.353 7.73-.51 11.556-.776-.506-1.446-1.23-1.654-2.114-1.602-7.047.321-14.099 2.452-20.818 2.284-7.222 7.704-12.581 12.52-17.998.429-.476-.255-1.35-.897-1.611-7.999-3.223-15.764-6.944-23.688-10.31-1.367-.576-2.86-.59-4.288.137-.663.338-.677 1.661-.422 2.613.154.589.201 1.601.878 1.926 3.725 1.785 7.744 3.504 11.696 5.403 3.176 1.525 6.271 3.229 9.266 5.212l-2.607 3.588c-.442.616-1.246.087-1.601-.144-9.392-5.973-19.408-10.836-30.434-12.29l2.425-3.212c1.514.586 3.188.395 4.535-.479 4.857-3.169 8.046-8.049 11.147-12.805 5.413-8.331 11.784-16.088 15.824-25.243.75-1.685 1.313-3.447 1.561-5.276.141-1.025-1.36-2.134-2.164-1.34-2.646 2.596-6.203 4.425-9.921 6.073-.034.305-.838.221-.664-.13 3.484-6.84 5.654-14.396 5.729-22.087l-.616-6.317c1.822-2.194 3.517-4.612 5.339-6.91 10.217-12.873 9.479-31.526-2.74-43.187-.134-.134-.71-.506-1.434-.265.396 1.788 1.487 3.35 1.541 5.152.208 7.878-3.148 15.173-7.383 21.715l-5.728-5.684-7.597-5.842c-11.027-8.28-25.042-10.679-38.494-9.121-3.49.402-6.953 1.055-10.524 2.03-.717.201-1.621.754-2.572.626l-.014-11.536c.616-6.264 3.631-12.072 7.992-16.651.268-.271-.174-.911-.616-.841-4.884.777-8.903 3.765-12.225 7.228-9.212 9.597-10.854 23.139-11.369 35.918-3.886 3.514-7.081 7.697-9.178 12.487-1.159 2.649-2.478 5.275-2.848 8.491-1.5-3.075-2.599-6.04-2.88-9.171-.067-.797-.791-1.47-1.574-1.283-.496.121-.677.757-.852 1.303-4.1 12.718-4.1 26.19-2.713 39.364.509 4.824 1.434 9.597 2.907 14.223.824 2.586 2.278 5.175 4.951 5.527.851.121 1.514-1.008 1.588-1.695l.804-8.8c1.092 4.201 2.305 7.919 3.088 12.076.04.228.1 1.199-.389 1.199-7.603.033-15.167.938-22.857 1.839l-7.624-38.306c.342-.043.992-.09 1.187-.158 2.116-.643 4.086-1.725 5.741-3.202 8.327-7.449 10.906-18.754 10.055-29.212.435-2.241.423-4.241-.2-6.056-.288-.837-.074-2.318-.958-2.633-1.722-.616-3.638-.824-5.453-.238-.992.322-2.426.684-2.667 2.161-.663 4.033.724 8.552-.321 13.01-.603 7.011-2.713 14.363-9.03 18.523l-4.924-24.844c-.194-1.005-.482-2.358-1.354-2.455-3.544-.398-7.02.519-9.895 2.66l5.908 27.765c-4.903-.516-9.613-2.666-12.4-6.846-3.402-5.088-5.271-10.923-6.94-16.537-2.458-.305-4.555.053-6.538.727-1.635.556-3.015 1.752-3.523 3.323 2.05 5.832 3.805 11.694 7.442 16.578 5.729 7.664 14.337 13.579 24.151 12.882l7.349 34.531c-.429 0-1.333-.077-1.621-.014l-12.89 2.398c-1.307-1.025-3.122-1.671-5.004-1.849-1.534-.141-3.055.258-4.335 1.116-1.922 1.29-3.095 3.574-2.425 5.942-8.535 3.661-16.774 8.277-24.365 13.86-9.272 6.816-16.661 15.851-21.786 26.137-1.078 2.15-2.284 4.317-2.512 6.779-.522 5.671 1.239 11.228 4.448 15.86 12.139 13.325 29.095 20.738 46.794 22.734 7.584.851 15.234 1.069 22.871 1.206 12.521.231 25.196-.764 37.228-5.363-.797 1.685-1.614 3.128-2.512 4.475-1.796-.452-3.598-.596-5.319-.191-12.059 2.834-22.215 10.109-32.578 16.554-.456.278-.517 1.119-.034 1.343.911.432 2.044.137 3.009.292.837.134 1.547.81 2.378 1.43-6.633 2.208-12.95 5.004-18.584 8.977-9.761 5.534-16.252 16.185-14.483 27.463 1.132 7.212 5.514 13.435 11.496 18.054-.536 1.859-.637 4.03-.061 6.076 1.092 3.966 3.544 7.406 6.793 9.915 1.755 1.353 3.645 2.522 5.165 3.446.831 4.188 3.102 7.41 5.962 9.908 3.155 2.758 5.949 6.02 7.436 9.969.255.69.509 1.45.241 2.171-1.286-.121-2.459-.342-3.879-.757l-.925-5.323c-2.291-7.897-10.926-11.662-18.47-9.161-4.361 1.451-7.442 5.729-6.927 10.036 1.031 2.572 3.276 3.841 5.54 3.416 2.78-.513 5.158-2.171 6.947-4.327.864-1.052 1.126-2.412 1.561-3.691 1.461.318 2.721.944 3.859 1.926 1.031 2.787 1.4 5.883.944 8.906-.107.684-.248 1.461-.891 1.752-1.829.827-3.598 1.792-5.199 2.777-.991-.637-1.862-1.072-2.76-1.471-6.559-2.928-14.497-.848-18.001 5.624-.583 1.089-.482 3.112.623 3.155l13.05.496c-.71 1.409-1.587 2.267-2.458 3.074-11.992 11.135-22.798 23.468-32.76 36.451-3.831 4.983-8.166 10.18-8.099 16.799.616 2.537 1.614 4.971 3.162 7.036.964 1.293 2.224 2.321 3.57 3.377.221.177.677.368.71.824.281 3.115.503 6.264.349 9.302-.033.777 1.152 1.359 1.977 1.745 2.217 1.045 4.971 1.212 6.833-.442.054-3.095.248-6.026.596-8.936l2.405-.295c-.288 2.039-.442 4.057-.462 5.536 1.192 1.947 3.115 2.322 4.435 1.348 1.461.161 2.787-.667 2.968-1.95l.328-7.07c0-.241.684-.406.979-.476.207.509.583 2.288 1.059 2.565 1.393.8 3.202.302 4.461-.991 2.586 6.022 6.452 11.036 11.161 15.117l3.899 2.964c3.202 2.73 7.315 3.704 11.354 5.356-10.155.612-20.037-.169-29.925-.178-2.01-.007-4.007.633-5.232 2.244-.449.576-.094 2.097.509 2.116 1.709.03 3.484.499 5.273.708 2.05.23 4.141.107 6.21-.024 3.491-.225 6.727-1.614 9.667-2.579l24.278.141 6.579.442 15.434-.262c3.631-.134 7.255.04 11.275.291 2.6 1.575 6.211 1.38 8.703-1.023.556-.52-.892-1.853-1.99-1.836-7.55.117-15.1.017-22.644-.034-.582-.006-1.172-.218-1.34-.647 7.249-2.458 13.546-6.92 18.343-12.762 14.712-17.923 12.749-44.402-4.924-59.59l-4.141-3.162c.864-.603 1.702-1.319 2.198-2.261.958-1.839.844-4.039-.456-5.899.965-1.387 1.762-3.031 2.586-4.636 2.291-4.425 2.659-9.667.449-14.286-8.32-8.958-12.4-20.939-12.682-33.138 0-.188.83-.737.817-.955-.235-3.168-.617-6.391-1.152-9.767 2.659-2.148 5.66-3.913 8.649-5.698l29.825 151.882c1.179 1.479 2.921 2.224 4.602 1.825 1.34-.319 2.445-1.249 3.143-2.285 3.135.269 6.156.5 9.238.383.844 1.591 2.559 2.72 4.455 2.692 3.001-.051 5.988-1.809 6.652-4.863l7.047-.027c4.04 1.518 8.823 1.404 13.486 1.555 3.537 2.093 7.463 3.017 11.724 2.94.616 1.943.757 4.123 1.828 5.642 1.515.526 2.773.513 3.913.076.535-.204.951-.84.575-1.369-.314-.436-1.413-.616-1.594-1.169-.396-1.2-.609-2.446-.63-3.599 2.291-.592 4.609-.9 6.947-.965.556-.018.877.587.871.617-.322 2.148.254 3.722 1.259 4.831.59.639 1.843.277 2.138-.429.771-1.85 1.205-3.823 1.165-5.855.904-.415 1.89-.644 2.895-.681 0 .569-.047 2.262.026 2.811.06.448.309.903.663 1.064.811.375 1.722.496 2.566.235.348-.107.703-.607.677-1.227-.047-1.048.2-2.297.837-3.945-.06 1.282-.127 2.02-.274 2.743-.154.71.02 1.47.542 1.974.992.927 2.452 1.102 3.679.482 1.286-.657 1.279-2.182.771-3.735-1.012-.319-2.063-1.33-2.164-2.854-.027-.382 1.106-.736 1.815-.857.743.994 1.561 1.879 2.485 2.593.824.63 1.942.58 2.841.044.528-.318.877-.892.736-1.759-1.567-.556-2.874-2.04-2.987-3.973 3.008-3.119 4.261-8.006 1.661-11.798-3.055-4.461-8.702-4.692-13.606-4.377l-9.131.903c-.63.08-1.059 1.232-.597 1.589.845.652 1.662 1.805 1.675 3.245-1.54.462-3.322.75-5.5.788 2.332-.989 3.149-3.267 2.244-5.18-.348-.724-1.909-.85-2.184.111-.583 2.046-2.143 4.072-4.16 5.607-.214.164-1.654 0-2.09 0v-3.473c1.024.357 2.271.17 2.72-.664.462-.854.014-1.989-.864-2.337-.55-.215-2.64-.205-2.841-.104-2.8 1.369-3.992 4.267-2.887 6.822l-4.154.53c-.535.046-1.099.01-1.527-.52.704-1.45 1.763-2.709 2.861-4.046.401-.493 1.48-1.155 1.071-2.037-.194-.401-.469-.837-.797-.944-.958-.317-1.93-.054-2.773.361-2.626 1.286-3.651 4.177-3.712 6.82-1.232-.033-2.478-.201-3.671-.479 0-.456-.094-1.555 0-1.742.771-1.538 2.157-2.406 3.49-3.229-.141-.734-.536-1.273-1.112-1.428-1.748-.47-3.631.214-4.528 1.778-.724 1.257-.984 2.71-.911 4.164-1.454-.238-2.78-.616-3.986-1.136.751-2.003 2.312-3.591 3.813-4.365.811-.421.382-2.106-.128-2.05-3.309.375-5.889 2.929-6.183 6.185-1.381.01-2.787-.821-2.513-1.404 1.206-2.565 2.352-5.161 4.113-6.894 2.412.208 4.388.234 6.364.154 1.36-.054 2.478-1.253 2.331-2.602-.1-.918.751-2.393 1.622-2.371l4.568.073c.644-1.524 1.434-2.817 2.593-4.16-1.661-.714-3.095-1.35-4.361-2.304-.382-.289-1.387.626-2.104.89-.389.138-.643-.415-.643-.626.007-.777-.723-1.219-1.293-.969-.603.272-2.203 1.538-2.847 1.997-.422-.925-.309-1.839-.267-2.448.073-1.189-1.032-2.244-2.251-1.702-1.421.626-2.52 2.251-3.853 4.054-.408-2.124-.596-3.982-.609-5.906 2.251.309 4.441-.605 5.855-2.361.597-.743.805-1.755.898-2.72.06-.649-.563-1.136-1.199-.994-.557.126-.857.605-.992 1.125-.448 1.759-2.244 2.79-3.872 2.295l1.025-4.915c1.286-6.112 4.649-11.479 6.458-17.387 1.675-5.46 1.246-11.248.978-16.899.944-5.815 1.011-11.727.174-17.625 2.727-6.301 4.689-12.996 5.266-20.178.04-.493 0-1.702.342-1.726 1.929-.154 3.584-1.227 3.973-2.798 1.179-4.699 1.487-9.579 1.722-14.426.047-1.008.141-2.033.596-3.011 1.816 6.093 5.286 11.329 9.507 15.844 4.575 4.907 10.731 8.418 17.612 8.31 5.594-.08 11.609-1.232 15.02-5.811 1.352-3.456 2.057-6.83 2.197-10.24.128-2.91-1.332-5.707-3.978-7.05zm-86.246 63.424-6.123.315c-.429.037-.729.689-1.246 1.232.684 2.09 2.439 3.624 3.979 5.326-.63 2.947-1.065 5.935-1.031 8.933.106 8.478.844 16.949 2.036 25.347l-2.036 20.526c-.067.868-.536 1.729-.757 2.66l-27.092-144.96c4.783-3.138 8.883-7.141 13.492-10.484.154-.101.67-.271.965-.416 5.024 17.398 9.506 34.917 13.237 52.606.201 6.099 2.814 11.681 5.627 16.976.396 1.869.744 3.731 1.019 6.056-.925 4.857-2.465 10.126-2.07 15.883zm53.628-142.422c-2.305 3.826-4.355 7.825-6.076 12.056-3.33-13.292-6.619-26.673-12.22-39.244-.429-.958-.804-1.956-1.541-3.266 4.288 1.836 8.093 3.996 10.806 6.719 1.4 3.705 3.766 6.612 7.202 7.182 2.572.429 4.931-1.39 5.949-4.214 2.264 1.534 4.273 3.075 6.498 4.911-4.026 4.88-7.329 10.38-10.618 15.856z"/><g fill="#fff"><path d="m459.469 341.455c3.343 3.651 6.472 7.805 10.524 10.98 1.614 1.27 3.142 2.696 4.87 3.849 9.54 6.287 22.067 6.451 31.386-.419 2.466-1.809 4.141-4.391 6.652-6.545-.04 9.553.892 18.852.282 28.14-.229 3.443-.731 6.867-1.3 10.279-.087.504-.63.941-1.126.801-6.042-1.681-11.684-4.622-17.92-5.54-7.791-1.149-16.078.871-21.056 7.311-.188.241-.791.893-1.105 1.203-3.725-16.621-7.289-33.214-12.387-49.292-.086-.284.463-.57 1.18-.767z"/><path d="m419.133 366.952c.576.76.361 1.936.523 2.723.67 3.38.925 6.69 1.045 10.019-6.163 4.335-13.499 6.315-20.948 7.383-.04 1.346.389 2.506 1.065 3.523l2.987 4.994c-.83 1.027-2.097 1.648-3.369 2.804-1.869-2.01-3.611-4.086-5.085-6.622.904-.572 1.628-1.491 1.467-2.596-.094-.656-.864-1.518-1.647-1.589-1.595-.137-3.236-.134-4.596.155-4.924-3.26-8.301-8.02-9.794-13.322 3.765.171 7.67.348 11.522-.057 9.15-.97 18.208-3.181 26.83-7.415z"/><path d="m430.301 306.438c.247.007.904-.127 1.279.185 2.445 2.063 5.085 4.431 7.564 6.94l16.809 25.444c-6.224 3.718-11.637 8.314-17.331 12.588z"/><path d="m503.456 439.213c.073 1.595-.201 3.103-.496 4.576-.643 3.222-1.434 6.425-2.579 9.361-3.738 3.22-8.475 4.435-13.157 4.402-4.615-.044-9.54.593-13.626-2.033-1.326-.848-2.385-2.101-3.143-3.561.229-3.52.979-7.034 1.501-10.644 3.27 1.769 6.72 2.778 10.27 2.99 7.068.396 14.049-1.279 20.286-4.569.153-.077.602-.358.944-.522z"/><path d="m419.81 304.137 10.719 54.9c.107.589-1.454 1.464-2.318 2.217.911-11.831-2.104-23.564-8.829-33.188-4.448-6.358-10.719-11.261-17.954-14.042-.469-.181-.355-.589-.194-.68 6.061-3.402 12.298-6.129 18.576-9.207z"/><path d="m406.786 477.61 13.137 1.996c.697 1.828.852 3.929.59 6.006l-.817 7.771c-4.528 3.41-10.27 3.508-15.341 1.14-1.005-1.454-1.025-3.544-.71-5.494.522-3.159 1.031-6.323 1.688-9.452.146-.738.804-2.068 1.453-1.967z"/><path d="m411.449 450.481c5.721-1.356 11.408 1.078 14.403 5.781.743 1.166.75 2.687.542 4.083-1.393 1.906-3.303 3.293-5.493 4.03-.569.194-1.078.815-1.42.841-2.318.123-4.569.14-6.887-.158-1.722-1.42-3.443-2.968-4.998-4.518.147-3.829 1.869-7.088 3.865-10.049.021-.037.136-.043-.012-.01z"/><path d="m386.374 470.827c1.111-.125 2.043.904 2.706 1.893.107.147-.067 1.192.021 1.413.582 1.443 1.099 2.893 1.989 4.086l2.961 3.357c.114 1.818-.147 3.614-.401 5.439-.114.787-1.334 1.584-1.856 2.753-2.639-.327-4.374-2.428-6.512-3.479-2.968.054-5.941-1.628-5.634-4.713.128-1.34.59-2.612 1.279-3.923.229-.415 1.354-.238 1.796.466.389.633.616 1.568 1.159 2.498 1.601-.983 2.739-2.471 3.617-4.069.215-.393-.281-1.347-.79-1.642-.885-.495-2.037-.816-2.975-1.654.348-.569.656-1.223 1.145-1.725.195-.195 1.099-.653 1.495-.7z"/><path d="m404.261 498.156c3.296.452 6.773.696 10.256.687.684 0 1.246.56 1.193 1.239-.262 2.773-.697 5.534-1.374 8.261-.931.937-1.975 1.772-3.49 2.739-2.82.194-6.09-1.208-7.604-4.153l.569-8.246c.007-.072.255-.554.45-.527z"/><path d="m482.642 411.686c.295-.449.951-.281.991.254.194 2.362.107 4.743.302 7.084.221 2.892 2.204 5.196 3.216 7.876.08.203.603.739.736.761 1.541.237 2.935-.788 3.183-2.904.87-1.086 1.828-2.815 2.445-4.677.341-1.02-.302-2.106-1.622-2.141-.429 1.541-.958 3.17-2.579 3.894-.884.393-1.795-.741-2.251-1.719-.649-1.371-.462-3.012.435-4.335 2.117-.884 4.361-.029 6.284.814 1.574-.905 2.659-2.06 3.329-3.411.57.179 1.173.292 1.192.526.201 1.907-1.139 3.438-2.659 4.401-.569.352-.642 1.086-.73 1.713-.596 4.585-2.914 9.258-7.965 10.727-4.054-1.544-6.043-6.167-4.951-10.139-.113-2.961-.02-5.595.309-8.213.013-.119.274-.413.335-.511z"/><path d="m427.715 480.34c.823-.044 1.822.117 2.64.349.71.197 1.031.867 1.245 1.491 1.072 3.011 1.468 6.203 1.307 9.388-.04.808-.71 1.451-1.467 1.792-1.688.747-3.504 1.149-5.359 1.183-1.26-1.085-1.977-2.689-1.97-4.372l.268-4.028c.322-1.642.992-3.206 1.742-4.703.274-.554.85-1.067 1.594-1.1z"/><path d="m498.331 504.865c-.342-.605.408-1.208.556-1.142 5.406 2.358 10.793 3.078 16.159 2.589 3.885-.352 7.817-.525 11.783-1.235.007-.801.992-.409.73.083-.228.396-.335.751-.63.939-1.588 1.011-3.376 1.681-5.238 1.996l-5.239.904c-2.237-.054-4.334-.309-6.451-.208-.234.007-.556.409-.616.633-.309 1.321-.516 2.603-.576 3.997-1.373.476-2.881.459-4.24-.044.261-.794.629-1.403.81-2.06.113-.392.107-1.735-.107-2.181-.409-.854-1.527-1.31-2.251-1.669-1.333-.633-2.586-1.314-3.865-1.689-.282-.082-.711-.715-.825-.913z"/><path d="m362.705 479.111c.737-.259 1.883.228 1.782 1.011-.335 2.649 1.501 5.31 3.946 6.224.522.197.153 1.574-.302 1.53-1.688-.174-3.316-.854-4.228-2.288-2.512 3.421-6.578 4.657-10.826 5.443-.502.091-1.299-.719-1.554-1.486-.181-.57.288-.978.804-1.022 4.67-.327 7.885-4.06 9.412-8.206.189-.504.471-1.026.966-1.206z"/><path d="m435.178 477.254c.441-.351 1.052-.425 1.614-.308.684.151 2.733.613 3.645.831.469 1.605.523 3.42.429 5.206-.08 1.383-.201 2.779-.616 4.006-.255.75-1.796 1.142-2.525 1.289-.523.107-1.562-.244-2.258-.358-.564-2.569-1.213-5.269-2.513-7.496.509-1.403 1.252-2.411 2.224-3.17z"/><path d="m413.137 467.189 5.996.375c.898.077 1.005 1.356.932 1.989l-.489 5.905c-.007.235-.449.74-.71.721l-5.647-.298c-.275-.008-.637-.449-.65-.664-.101-2.56-.061-5.081.181-7.543.012-.113.227-.488.387-.485z"/><path d="m380.853 346.583c3.879.365 6.632 3.809 7.061 7.657.416 3.735-1.581 7.319-4.863 9.168-.677.385-1.855-.429-1.293-1.176 1.159-1.541 2.064-3.658 2.472-5.838.59-3.095-.441-6.361-2.974-8.377-.644.278-1.119-.355-.831-.874.04-.078.208-.58.428-.56z"/><path d="m397.977 480.045 3.778.313c.228 1.299.281 2.662.208 4.028l-.55 5.758c-1.534.292-3.189.275-4.81-.076-.262-.058-.69-.429-.69-.674l.302-6.41c.08-.946.576-1.847 1.26-2.52.093-.088.388-.429.502-.419z"/><path d="m349.44 473.279c1.079-.345 2.492.275 2.499 1.37l-.066 5.539c.804 1.271 1.434 2.506 1.989 3.894l-3.946 3.43c-2.177-.379-4.146-1.688-4.381-3.896-.067-.643.597-1.252 1.139-.91.965.596 1.715 1.547 2.546 2.615.616-.479 1.192-1.082 1.822-1.936-1.059-1.32-2.137-2.768-2.633-4.472-.496-1.722-.361-3.54.04-5.172.061-.238.811-.402.991-.462z"/><path d="m432.746 495.962c.542-.134 1.514.018 1.413.637-.63 3.715-3.021 7.179-6.873 8.257-.362.101-.737-.733-.784-1.183l-.476-6.377c-.033-.798 2.097-.911 3.135-.914 1.213-.014 2.412-.132 3.585-.42z"/><path d="m540.08 500.304c.777-.04 1.494.85 1.957 1.206 1.373 1.064 2.9 1.146 3.926.415.354-.251 1.547-.04 1.821.033.396.114.51.663.161.85-.965.543-1.541 1.574-1.614 2.523-.101 1.275-1.159 2.042-2.272 2.096-.368.021-1.474.023-1.902.023.281-.87.757-1.645 1.019-2.439.227-.643-.644-1.493-.958-1.186-1.354 1.354-2.532 2.807-3.604 4.502-.174.277-.208 1.135-.831 1.366-1.125.409-2.525-.392-2.271-1.343.295-1.078 1.3-1.691 2.144-2.066-.087-1.822.737-3.443.911-5.108.046-.417.857-.832 1.513-.872z"/><path d="m373.819 418.395c1.688-.425 3.457-.622 5.145-.25 1.461.325 2.821 1.078 4.181 1.973-1.092.925-1.977 1.97-2.673 3.162l-4.904-.801-7.335-.017c1.366-1.575 2.947-2.907 4.803-3.802.147-.074.622-.225.783-.265z"/><path d="m383.922 429.368c3.691.266 7.222 2.054 9.928 4.492.972 1.899.777 3.966-.382 5.5-.395.539-1.641.244-1.399-.512.495-1.545-.536-3.585-2.433-4.237-1.956-.67-3.966-1.18-5.922-1.907-.382-.14-.757-.552-.951-.927-.107-.208-.047-1.029.054-1.22.201-.391.609-1.225 1.105-1.189z"/><path d="m439.063 466.12c.556-.539 1.486-.301 1.574.235.382 2.52.335 5.309-.376 7.995-.153.597-.851.697-1.5.741-1.407.097-2.874-.272-4.294-1.002l.388-5.038c1.588-.873 3.163-1.929 4.208-2.931z"/><path d="m394.131 416.724c2.968-.643 5.782 1.407 7.303 4.087.583 1.031 1.132 2.127 1.313 3.354-1.299.652-2.807.867-4.367.579-1.32-2.315-3.591-3.966-5.614-5.809.427-.804.655-2.057 1.365-2.211z"/><path d="m483.19 490.134c1.407 1.658 2.385 3.989 4 5.929 1.942 2.345 4.856 3.731 7.945 3.728-1.133 3.792-1.313 7.768-.597 11.614.147.777-1.071 1.303-1.212.79-.503-1.811-.978-3.588-.798-5.349l1.025-4.513c.087-.351-.255-.935-.576-1.059-1.688-.659-3.377-1.457-4.877-2.494-2.754-1.911-4.71-4.717-6.104-7.745-.205-.476.726-1.443 1.194-.901z"/><path d="m408.294 437.056c2.927-.441 5.901-.458 8.836-.05 1.186.164 1.909 1.38 1.514 2.703 1.267-.429 2.438.145 2.813 1.223.61-.238 1.14-.368 1.541-.271.55.131 1.025.74.824 1.083-.55.913-1.441 1.697-2.358 2.153-.623.301-1.493-.168-1.869-.864-.134-.248-.2-1.293-.254-1.624-.228 0-.998.109-1.166 0-.79-.601-1.199-1.967-1.789-2.128-2.699-.747-5.259.054-7.845-.295-.569-.077-1.246-.386-1.125-.871.12-.516.469-.999.878-1.059z"/><path d="m429.095 455.03c.677-.473 1.668-.234 2.317.354 1.782 1.646 2.914 3.832 3.658 6.123.154.456.026 1.18-.375 1.193l-5.172-.094c-.475-.038-.684-.69-.69-1.029l-.02-5.878c0-.116.148-.568.282-.669z"/><path d="m472.03 492.777c.703.207.964 1.041.984 1.332.275 3.883 1.996 7.008 4.776 9.325-1.26.276-2.237.587-3.195.51-1.555-.117-3.008-1.089-3.316-2.659-.509-2.496-.482-5.075-.054-7.668.021-.12.584-.606.805-.84z"/><path d="m424.686 410.4c.408-.058.603.826.181 1.104-6.083 3.96-12.307 7.805-19.314 10.239l-.389-1.715c6.672-2.24 12.829-5.597 18.892-9.047.122-.068.416-.545.63-.581z"/><path d="m402.793 442.885c1.119 1.235 2.854 2.033 3.679 3.685.241.482.047 1.564-.529 1.497-2.178-.232-4.623.03-6.847.241-.482.043-.798-.315-1.273-.633 1.133-1.618 2.78-2.711 4.066-4.372-.006.007.522-.238.904-.418z"/><path d="m401.883 452.722c.395-.066 1.614 0 2.331 0 .684 1.311.455 3.354 2.017 4.044.354.16-.302 1.056-.932 1.189-1.293.273-2.626.206-3.818.01-.63-.111-.858-.849-1.032-1.394-.415-1.26-.026-2.63.972-3.484.093-.073.361-.348.462-.365z"/><path d="m486.172 467.468c2.036-.182 4.06.06 5.868.465.623.138.623.895.664 1.508.033.412-.423 1.31-.657 1.064-1.996-2.083-5.493-2.116-7.228.165-.415.546-1.146.911-1.601 1.718-.576-1.507-.804-2.961-.71-4.411z"/><path d="m378.401 456.38c.656-.395 1.387.178 1.621.768.375.961-.308 2-1.279 2.022-.536 1.119-.918 2.221-1.775 3.176-.355.396-1.26.452-2.023.556-1.038.147-1.969-.627-1.989-1.672 0-.438.295-.822.777-.914.194.306.67.329.844.021.924-1.699 2.337-3.052 3.824-3.957z"/><path d="m480.993 482.139c.55.73.576 1.461.435 2.147-.59 2.804-2.787 4.781-4.797 6.435-.435.359-.542 1.12-1.111 1.27-.449-1.165-.456-2.408-.047-3.543-.711-.61-1.527-.952-1.983-1.377-.442-.401-.141-.985.342-1.122.221.649.797 1.541 1.561 1.343 2.344-.602 4.502-2.343 5.6-5.153z"/><path d="m489.334 487.843 4.221-.436c-2.485 1.793-3.263 4.656-2.914 7.892-1.836-1.949-2.721-3.941-2.686-5.772.014-.622-.476-1.081-.476-1.547.381-.026 1.487-.084 1.855-.137z"/><path d="m416.139 422.412c-.255-.222.247-.681.563-.335.288.324.63.851.288 1.326-1.608 2.298-2.727 5.088-4.181 7.773-.248.456-1.192.038-1.46-.576-.175-.407-.489-.742-.958-1.142 2.19-2.086 4.026-4.474 5.748-7.046z"/><path d="m389.804 421.467c.811.007 2.171.234 2.171.653v8.264c-.864-.509-2.332-1.239-2.218-1.766.462-2.2.436-4.508.361-6.793 0-.043-.2-.225-.314-.358z"/><path d="m395.391 452.156c.911-.234 1.943.696 2.372 1.598.106.227.147 1.497-.047 1.669-1.186 1.055-3.115 1.021-4.014-.138-.308-.398-1.099-.677-.816-1.018.663-.832 1.547-1.867 2.505-2.111z"/><path d="m367.797 447.643c.931-.19 2.023.343 3.081.875-.73 1.37-1.54 3.129-3.376 2.975-.938-.081-1.708-.918-1.508-1.813.222-.924.885-1.841 1.803-2.037z"/><path d="m376.646 438.463 3.001 1.192-2.6 2.569-3.631-.935c1.228-.859 2.266-1.768 3.23-2.826z"/><path d="m371.971 443.119c.335-.335 1.822.451 2.961.703-.496 1.102-1.119 2.455-2.398 2.804-.824.225-2.07-.516-3.236-.831z"/><path d="m378.951 486.981c1.293.372 2.357 1.377 3.222 2.707.222.332-.663 1.136-1.446 1.079-.604-.04-1.3-.218-2.044-.131-.401-1.045-.549-2.171-.314-3.296.006-.04.395-.412.582-.359z"/><path d="m380.385 434.494c1.132.244 2.271.724 3.356 1.439-.61.696-1.635 2.151-2.138 1.946l-3.315-1.336c.408-.397 1.734-2.129 2.097-2.049z"/><path d="m344.31 476.196c.227-.482 1.118-.338 1.239.214l.502 3.621c.061.442-1.206.728-1.413.406-.845-1.404-.952-2.915-.328-4.241z"/><path d="m481.958 512.529c-.026-.529 0-2.164 0-2.72h1.963c-.415 1.326-.569 2.763-.181 4.013.113.345-.938.634-1.52.406-.047-.291-.242-1.343-.262-1.699z"/><path d="m502.371 508.737c.214 1.146.395 2.65-.396 3.356-.51.449-1.655.114-2.72.067.509-1.129 1.239-2.067 2.204-2.703.315-.196.637-.414.912-.72z"/><path d="m395.739 427.543c.616-.342 1.213.137 1.366.623.168.526.007.998-.395 1.267-.61.408-1.26.771-2.157.931-.248-.563-.435-1.344-.047-1.895.262-.369.838-.696 1.233-.926z"/><path d="m385.416 424.033c.382-.51 1.326-.284.951.632-.215.526-.951 1.321-1.608 1.84-.462.368-1.018.073-1.232-.422.516.204 1.179.054 1.246-.445.079-.549.308-1.163.643-1.605z"/><path d="m427.453 436.142c.215-.289.737.086.597.498-.222.663-.569 1.297-1.045 1.887l-1.079-.413c.569-.576 1.005-1.279 1.527-1.972z"/><path d="m503.557 132.346c3.517-.422 7.557.472 9.245 4.401-1.662 1.437-3.731 2.308-5.52 3.604-4.589 3.323-6.109 9.721-2.814 14.511 1.554 2.271 3.898 3.892 6.538 4.679.663.201 1.44-.037 1.661-.707.141-.449-.214-1.059-.717-1.199-4.702-1.34-8.052-5.993-6.599-11.617.643 3.41 1.735 6.153 3.853 8.039 1.842 1.642 3.919 3.246 6.451 3.675l3.671.291.208 3.682c-1.876 23.759-15.857 44.248-34.581 58.41-1.675 1.266-3.511 2.278-5.347 3.29-4.16 2.308-8.487 4.549-13.345 4.88-6.109.412-12.179-1.953-15.81-7.363-.409-.596-.677-1.866-1.77-2.251 2.693-2.174 5.078-4.452 6.968-7.118.147-.204 0-1.156 0-1.554 4.609 1.045 9.292.462 13.881-.234 5.004-.754 9.908-2.201 14.765-5.155 3.698-1.072 6.947-4.204 10.083-7.449 1.661 1.852 1.996 4.364 1.306 6.32-.194.563.302 1.125.609 1.26.73.305 1.475-.07 1.782-.713 1.782-3.658 1.809-8.659-2.197-10.85-1.071-.589-2.298-.378-3.202.422-4.039 3.564-8.735 6.314-13.881 7.942-3.765 2.063-8.053 2.616-12.273 2.776l-5.916.007c-.408 0-.563-.636-.476-1.045.128-.576.416-2.325.536-2.998 2.72.331 5.474.519 7.919.549 1.366-.975 2.512-1.688 3.355-2.536.409-.409 1.669.067 2.433-.164.971-.292.736-1.605.851-2.305.261-1.695.02-3.363-.234-4.978-.121-.804-1.32-1.119-1.903-.526-2.163 2.221-3.885 4.88-6.578 6.83-1.186-1.421-2.398-2.904-3.577-4.519-.208-.275.328-1.048.783-1.42 7.409-6.039 10.277-15.345 12.588-24.251 1.192-8.987 3.846-18.031 10.217-24.767 4.013-5.559 10.256-9.056 17.037-9.849z"/><path d="m438.728 237.788.066 5.486c2.037-.294 4.107-.181 6.043.466 1.34.445 2.23 1.805 2.003 3.195-.656 4.006-3.872 6.877-7.383 8.16-.918 2.784-.401 5.835 2.218 7.054 3.001 1.393 6.491 1.558 9.513.198.315-.141.965-.274.737-.724.415-.375.736-.834.771-1.343.207-3.852.455-7.717.301-11.569l-.516-7.339c2.365 3.494 4.361 7.071 6.491 10.323.007 5.262.482 10.327-.656 15.237-.281 1.183-.951 2.281-1.735 3.052-.502.503.061 1.44.657 1.819.864.543 1.916.727 2.874.395-.02 11.426-.128 22.838-.798 34.424-1.641-.844-3.202-1.675-4.957-2.261.878-5.945 1.186-11.901 1.078-17.847-.007-.358-.354-.706-.629-1.119-3.464 2.817-7.423 4.874-11.858 6.482-.335 2.268-.891 4.729-1.647 7.191l-2.352-.643c.08-1.886.603-3.785 1.038-5.688.101-.419.309-1.702.335-1.712 3.665-2.093 7.463-3.406 10.819-5.587 4.67-3.035 5.976-9.218 3.108-14.038-2.553-4.284-7.175-6.625-12.012-6.987-5.868-.435-11.764-.479-18.061-.003 3.832-3.152 7.255-6.083 11.033-8.508 2.6-1.671 5.533-2.938 7.637-5.306.684-.78 1.099-1.812.952-2.995-.074-.586-.536-1.527-1.461-1.728-6.043-1.33-12.025 1.236-17.733 3.561-10.022 4.083-19.033 10.253-26.168 18.356-8.227 1.042-16.828 1.353-24.364-2.542-.958-.499-1.93-.995-2.914-1.96 2.807-2.033 5.741-3.983 9.211-5.219 1.326 1.135 2.848 2.08 4.516 2.164 8.635.432 16.526-3.51 24.184-7.111 2.787-1.316 5.701-2.352 8.361-3.946 6.847-4.11 13.963-7.75 21.298-11.388z"/><path d="m483.19 254.67c1.374-.094 2.733.395 3.316 1.511 6.746 12.822 9.988 27.011 14.256 40.771.71 2.271 1.34 4.612 1.267 6.967-.135 4.207-.663 8.414-1.468 12.567-.75 3.852-1.347 8.002.241 11.764l1.682 3.165-.054 18.59c0 .804-.757 1.474-1.541 1.769-1.795.68-3.188 2.033-4.126 3.688-.281.513.007 1.856-.616 2.01-1.367.349-2.881.713-4.401.764.441-1.232.924-2.385 1.821-3.293 1.354-.616 2.365-2.03 2.084-3.504-1.447-7.456-1.963-15.043-3.082-22.536-.247-1.681-.475-3.397-.569-5.108-.221-4.003-.308-8.019-.087-12.025.314-5.547.361-11.11.321-16.664-2.05-7.965-2.11-16.249-3.765-24.365-.067-.325-.79-.58-.811-.76-.456-5.028-2.385-9.67-4.013-14.33-.052-.167-.287-.643-.455-.981z"/><path d="m476.632 253.923c1.079 4.341 1.374 8.702 1.836 13.01 1.916 17.74 3.162 35.617 1.682 53.397-3.276-1.4-6.392-3.108-9.861-5.115 1.4-3.329 2.365-7.001 2.311-10.725-.201-13.56-1.728-27.082-4.361-40.501 1.253.995 2.82 1.012 3.959.165.684-.516 1.434-1.062 1.762-1.518 1.025-1.464 1.494-2.934 1.414-4.478-.014-.214-.65-.596-.55-.784z"/><path d="m496.958 262.887c-.208-.493 0-2.422 0-3.655 4.294 4.911 7.101 10.307 9.238 15.921 5.018 13.17 9.15 26.74 10.598 40.446-2.713 9.758-3.282 19.488-3.818 29.326-.609.931-1.4 1.929-2.331 2.877-.489-7.751-.845-15.441-1.052-23.132.589-3.805.837-7.647.776-11.492-1.587-8.937-4.381-17.599-6.618-26.328.274-6.157-2.653-11.626-4.495-17.27-.731-2.235-1.361-4.51-2.298-6.693z"/><path d="m489.22 234.234c12.32.395 23.461 6.123 32.699 14.068l-2.518 5.705c-9.587-7.748-20.654-12.987-31.909-17.639.549-.992 1.111-2.151 1.728-2.134z"/><path d="m377.242 209.27c3.457-.037 6.439 2.057 8.066 5.038 4.542 8.277 5.868 17.713 5.868 27.035l-.02 7.979c-.215 1.825-.904 3.597-1.782 5.215-.69 1.259-2.097 1.902-3.343 1.862-.61-.017-.851-.59-.744-1.015 3.478-13.723 3.598-28.991-5.306-40.775l-3.671-4.314c-.26-.306.363-1.019.932-1.025z"/><path d="m470.134 320.892c-.007-.261-.014-1.048-.014-1.37l8.851 4.214c.24 1.658 1.373 3.162 3.034 3.909-.389 6.428-.569 12.866-.549 19.421-3.042-.948-5.923-2.231-8.891-3.882l-.066-4.78c.007-.429.991-.526 1.554-.358l4.033 1.336c.476.174 1.085-.425 1.602-.904-.396-1.165-1.44-2.134-2.727-2.422-1.735-.378-3.491-.586-5.38-.667 1.4-3.085 1.059-6.518-.302-9.482-.729-1.575-1.118-3.28-1.145-5.015z"/><path d="m446.787 148.826c6.612-.466 13.251-.298 19.816.576 1.025.13 1.836.897 2.164 1.876.234.67.073 1.467-.529 1.813-1.347.777-2.867 1.172-4.436 1.269-8.494.519-17.035.753-25.497-.097-1.38-.138-1.976-1.883-1.266-3.139.314-.563.63-1.407 1.092-1.464z"/><path d="m495.169 220.146-22.944 33.218c-1.159-2.04-2.539-3.98-3.625-5.966 5.34-6.81 10.659-13.402 16.38-19.686 3.262-2.686 6.98-4.776 10.189-7.566z"/><path d="m533.964 122.069c.838 6.743-1.146 12.658-4.367 17.74-2.245 5.105-5.635 9.603-9.861 13.379-3.357-.563-6.773-1.879-9.226-4.603 4.295-.553 7.832-3.008 10.672-5.939 2.285-2.358 4.703-4.646 6.559-7.342 2.653-3.843 4.649-8.117 6.223-13.235z"/><path d="m452.227 235.206c-.087-.362 0-1.548 0-1.973 1.32.83 2.78 1.374 4.516 1.621 5.795 7.503 10.672 15.793 16.146 23.719-.59 1.715-2.164 2.814-3.792 2.596-5.681-8.293-11.175-16.637-16.212-25.259-.088-.169-.617-.544-.658-.704z"/><path d="m336.552 248.574 8.053.054c7.744 1.095 15.716 2.559 22.094 7.422.401.308.811.664.971 1.065.235.603.108 1.252-.2 2.137-9.741-5.798-21.096-6.896-32.063-5.821-.885.087-1.836-.466-1.762-1.336.133-1.676 1.251-3.274 2.907-3.521z"/><path d="m512.172 262.96c-10.116-6.414-21.203-11.265-33.154-13.539 1.125-2.124 2.458-3.909 3.838-5.704 10.999 4.401 20.834 11.05 29.316 19.243z"/><path d="m455.65 160.791c2.097-.261 4.214.033 6.076.837-.033.727-.309 1.33-.804 1.34-2.948.07-5.963.412-8.943.904.864 2.063-.409 4.261-2.62 5.336 1.105 1.417 2.298 2.274 3.813 2.941.247.11.877.271 1.064.817.182.542-.08 1.323-.757 1.306-4.736-.13-7.798-4.545-7.61-9.453-3.396.623-6.772 1.437-10.075 2.767-.422.161-1.052-.087-1.822-.372.958-1.45 2.439-2.288 3.605-2.348 3.617-1.581 7-2.515 10.443-3.024z"/><path d="m459.342 130.028c.429-.097 1.313.312 1.012 1.048-2.157 5.403-7.537 8.883-13.351 10.598-1.581.462-3.223.68-4.858.623-2.727-.097-5.373-1.159-7.06-3.293-1.468-1.846-.878-4.542 1.125-5.811 1.279-.811 2.981-.412 4.047 1.568.053.877-.282 2.589.717 3.691 1.299.57 2.458.995 3.631.958 6.002-.187 11.408-3.811 14.015-9.003.146-.279.607-.356.722-.379z"/><path d="m478.729 230.218c0 .318-.201.837-.315.955-4.167 4.204-7.724 8.947-11.315 13.69-2.225-3.246-4.308-6.368-5.956-9.701 2.68-.301 5.326-.663 7.898-1.319 3.351-.859 6.546-2.202 9.688-3.625z"/><path d="m401.701 228.908c.522-.144 1.045-.315 1.555-.396l1.42 6.863-8.756 3.685-1.065-8.23c2.29-.492 4.548-1.279 6.846-1.922z"/><path d="m422.757 209.47c3.27-.338 6.545-.432 9.882-.398.361.003.663 1.002.891 1.567-7.737 1.082-15.441 2.522-23.126 3.983-.228-1.105-.361-2.197-.596-3.259-.087-.409.255-.693.436-.706z"/><path d="m469.431 343.934c3.657 2.573 7.449 4.505 11.402 5.658.187 2.244-.958 4.117-2.687 5.363-3.691-2.07-7.322-4.519-10.726-7.678.978-.781 1.689-1.799 2.011-3.343z"/><path d="m448.415 113.025c.047-.254.101-1.052.241-1.33.838 5.845 2.378 11.563 4.441 17.304-.63 1.792-2.432 2.938-4.556 3.329-.476-1.624-.71-3.269-.811-4.917-.281-4.358-.207-8.732.315-13.063.035-.275.316-1.052.37-1.323z"/><path d="m452.381 309.299c.175-.496.757-.429 1.092-.201 1.173.794 2.138 1.718 2.908 2.603-.939 3.638-1.187 7.165-.569 10.746l-4.965-2.897c-1.192-3.463-1.005-7.205 1.286-9.945.047-.062.215-.219.248-.306z"/><path d="m428.552 223.94 4.234-.452-18.879 7.956-1.105-5.095c5.178-.895 10.484-1.48 15.75-2.409z"/><path d="m429.081 236.053c.529-.218 1.105-.425 1.527-.352.563.094.878.616.804.847-.448 1.216-1.373 1.869-2.338 2.382-3.544 1.875-7.034 3.849-10.611 5.654-.422.211-.998-.027-1.152-.462-.321-.895-.509-1.833-.677-3.082z"/><path d="m398.814 212.609c.348-.07.696-.144 1.045-.117l.817 4.241c-3.236.456-6.404 1.29-9.319 2.432l-2.324-4.569z"/><path d="m406.753 245.78c.389 1.253.636 2.432.77 3.705-4.576 1.916-9.319 3.373-14.096 5.111.134-.908.281-2.201 1.005-2.449 4.301-1.517 8.241-4.012 12.321-6.367z"/><path d="m453.486 326.733c1.26-.398 2.539-.392 3.718-.003.101 2.15.027 4.348-.228 6.703-1.226-.764-1.963-1.919-2.345-3.162z"/><path d="m502.411 210.616c-.262 1.98-.817 3.859-1.414 5.815-.771-.509-1.179-1.219-1.467-1.939-.255-.616.188-1.162.455-1.414.946-.854 1.588-1.715 2.426-2.462z"/><path d="m436.919 302.445c.898-.656 2.104-.656 3.176-.439l-.932 1.799c-.811-.191-1.668-.312-2.304-.737-.161-.097-.1-.509.06-.623z"/></g><path d="m354.284 110.372c.684-.121 1.394.405 1.883.961 5.359 6.127 10.859 12.146 16.861 17.555.275.248.168 2 0 2.375-.221.506-.797 1.172-1.272 1.182-6.056.151-11.891 2.613-16.393 6.72-.503.452-1.353.64-1.936.063-.308-.301-.596-.988-.596-1.568-.054-8.762.106-17.535.509-26.301.007-.2.696-.943.944-.987z"/><path d="m405.701 95.594c.864-.057 2.003.469 2.599.938 6.19 4.823 10.116 11.368 13.962 17.435-.041 1.742-.376 3.081-.999 4.301-.207.416-.67.476-1.146.456-4.85-.225-9.01 2.328-13.258 4.257-.851.389-2.097-.345-2.385-1.236-.67-2.08-.736-4.274-.401-6.438l.054-4.026c.81-4.706.877-9.476.522-14.209-.04-.554.422-1.435 1.052-1.478z"/><path d="m483.565 161.959c4.944 1.621 8.709 5.296 12.575 8.592 2.76 2.352 5.031 5.165 7.262 7.932.556.7.208 2.288-.59 3.125-1.045 1.082-2.84 1.393-4.308.485-.583-.358-.771-1.45-1.413-2.372-2.138 2.067-5.005 2.834-7.852 2.831-2.358-.003-4.736-.054-6.92-.442-1.561-1.447-2.292-3.273-2.171-5.142.134-2.429.375-4.844.784-7.57-1.193-2.06-.751-5.041 1.554-6.592.229-.167.732-.234 1.079-.847z"/><path d="m382.77 104.869c.221-.094 1.601-.221 1.829.074 3.497 4.623 6.109 10.032 10.108 14.423 1.481 1.621 2.962 3.283 3.745 5.359.255.687.194 1.882-.201 2.03-1.621.613-3.336.556-4.756-.345l-5.118.532c-3.417 1.199-5.936 3.283-8.355 5.33-.354.305-1.748.013-2.043-.392-.878-1.186-1.052-2.68-.743-4.147 1.48-7.071 2.961-14.175 3.718-21.233.087-.76 1.038-1.303 1.816-1.631z"/><path d="m484.068 152.108c.837-.335 1.728-.456 2.626-.379 4.65.402 8.676 2.851 12.567 5.212 3.531 2.144 6.921 4.552 9.936 7.305.516 1.591.844 3.159.743 4.727-.12 1.835-1.661 3.283-3.517 3.483-1.012.107-2.11.007-2.82-.703-5.902-5.939-13.56-9.476-21.029-12.993-1.474-.693-2.029-2.643-1.146-4.084.55-.901 1.173-1.799 2.124-2.298.101-.055.416-.223.516-.27z"/><path d="m476.244 174.956c.917-.285 2.378-.081 2.345.469-.081 1.333.214 2.727.542 4.07.724 2.964 3.283 5.028 6.257 5.446 2.82.399 5.701.218 8.368-.458.281-.074.67.546.729.75.309.972-.147 1.909-.938 2.398-1.267.791-2.733 1.099-4.214 1.243-5.809.563-12.126-1.976-13.619-8.069-.442-1.782-.382-3.631-.027-5.275.061-.282.55-.571.557-.574z"/><path d="m452.509 216.056c.368-.245 1.092-.265 1.239.288.516 1.946 1.715 3.896 3.074 5.259.442.442-.636 1.645-1.239 1.283-2.164-1.283-3.598-3.792-3.322-6.568 0-.035.18-.219.248-.262z"/><path d="m493.447 175.559c.161-.449.844-.459 1.025.083.321.968.689 2.509-.088 2.921-1.788.941-3.985.944-5.795-.261-.214-.144.288-1.109.724-.925.965.415 2.687.797 3.337-.653.107-.237.69-.837.797-1.165z" fill="#fff"/><path d="m468.346 504.721c.274-.188.804-.009 1.226.179.536.237.884.679.81 1.236-.241 1.747-.335 3.507-.234 5.279-.644-.681-1.005-1.501-1.199-2.39-.296-1.345-.49-2.712-.603-4.304z" fill="#fff"/></svg>