<?xml version="1.0" encoding="iso-8859-1"?>
<!-- Generator: Adobe Illustrator 24.0.1, SVG Export Plug-In . SVG Version: 6.00 Build 0)  -->
<svg version="1.1" id="Layer_1" xmlns="http://www.w3.org/2000/svg" xmlns:xlink="http://www.w3.org/1999/xlink" x="0px" y="0px"
	 viewBox="0 0 612 792" style="enable-background:new 0 0 612 792;" xml:space="preserve">
<polygon points="305.997,113.212 22.997,396.212 305.997,679.213 308.902,676.308 588.997,396.212 "/>
<path style="fill:#632469;" d="M305.999,402.805c72.406,0.002,132.007,54.808,139.577,125.204l131.797-131.796H34.62
	l131.802,131.801C173.995,457.617,233.591,402.805,305.999,402.805z"/>
<polygon style="fill:#FFFFFF;" points="34.62,396.212 577.372,396.212 305.997,124.835 "/>
<polygon style="fill:#FFFFFF;" points="398.218,481.742 361.087,470.866 339.31,500.841 357.845,557.884 393.081,569.333 
	416.727,538.71 "/>
<polygon style="fill:#FFFFFF;" points="213.777,481.741 195.268,538.71 218.915,569.333 254.152,557.884 272.686,500.841 
	250.91,470.867 "/>
<polygon style="fill:#FFFFFF;" points="335.947,436.501 276.049,436.501 254.232,468.451 276.01,498.427 335.986,498.427 
	357.764,468.452 "/>
<path style="fill:#FFFFFF;" d="M399.369,477.798l17.25-14.202c-4.301-5.967-9.066-11.576-14.256-16.767
	c-15.175-15.172-33.905-26.773-54.834-33.462l-8.186,20.816l22.216,32.541L399.369,477.798z"/>
<path style="fill:#FFFFFF;" d="M250.437,466.723l22.214-32.537l-8.185-20.82c-20.93,6.69-39.662,18.292-54.837,33.464
	c-5.189,5.189-9.955,10.799-14.256,16.766l17.251,14.2L250.437,466.723z"/>
<polygon style="fill:#FFFFFF;" points="192.019,541.225 180.34,541.932 215.947,577.539 216.097,572.408 "/>
<polygon style="fill:#FFFFFF;" points="303.943,597.045 255.421,561.792 220.185,573.241 219.942,581.534 280.784,642.376 
	303.943,634.096 "/>
<polygon style="fill:#FFFFFF;" points="356.574,561.792 308.053,597.046 308.053,634.096 331.209,642.375 392.053,581.531 
	391.81,573.241 "/>
<polygon style="fill:#FFFFFF;" points="419.978,541.224 395.897,572.406 396.048,577.537 431.653,541.931 "/>
<path style="fill:#632469;" d="M253.074,237.015v20.472h23.659v7.629h-23.659v30.901h-12.65v-66.631h37.661v7.628H253.074z"/>
<path style="fill:#632469;" d="M279.439,296.018v-13.326h13.326v13.326H279.439z"/>
<path style="fill:#632469;" d="M338.347,247.542c0.097-6.374-2.415-12.844-9.753-12.844c-11.396,0-13.135,16.223-13.135,24.625
	c0,12.264,2.125,29.743,18.059,29.743c6.471,0,11.588-2.704,16.515-6.567v10.429c-6.084,2.414-12.169,4.153-18.832,4.153
	c-21.053,0-29.067-16.899-29.067-35.633c0-17.865,7.242-33.122,27.233-33.122c12.553,0,23.465,5.118,23.368,19.217H338.347z"/>
<path style="fill:#632469;" d="M358.243,296.018v-13.326h13.325v13.326H358.243z"/>
<path style="fill:#632469;" d="M162.826,381.463v-31.095H139.65v31.095H127v-66.631h12.65v27.908h23.176v-27.908h12.65v66.631
	H162.826z"/>
<path style="fill:#632469;" d="M189.578,381.463v-66.631h38.917v7.629h-26.267v20.472h24.915v7.629h-24.915v22.887h27.135v8.015
	H189.578z"/>
<path style="fill:#632469;" d="M239.7,381.463v-66.631h12.65v66.631H239.7z"/>
<path style="fill:#632469;" d="M301.311,381.463l-21.825-32.253h-0.192v32.253h-12.651v-66.631h12.651v28.97h0.192l21.439-28.97
	h13.326l-23.852,30.033l26.362,36.599H301.311z"/>
<path style="fill:#632469;" d="M362.44,381.463l-5.794-18.927h-22.693l-5.987,18.927h-11.202l22.984-66.631h12.94l23.176,66.631
	H362.44z M345.541,326.034h-0.192l-9.175,29.453h18.349L345.541,326.034z"/>
<path style="fill:#632469;" d="M420.578,381.463l-27.038-51.857h-0.194v51.857h-10.332v-66.631h13.809l25.784,49.442h0.192v-49.442
	h10.333v66.631H420.578z"/>
<path style="fill:#632469;" d="M468.962,322.461v59.002H456.31v-59.002h-16.029v-7.629h44.711v7.629H468.962z"/>
</svg>
