<?xml version="1.0" encoding="iso-8859-1"?>
<!-- Generator: Adobe Illustrator 24.0.1, SVG Export Plug-In . SVG Version: 6.00 Build 0)  -->
<svg version="1.1" id="Layer_1" xmlns="http://www.w3.org/2000/svg" xmlns:xlink="http://www.w3.org/1999/xlink" x="0px" y="0px"
	 viewBox="0 0 612 792" style="enable-background:new 0 0 612 792;" xml:space="preserve">
<polygon style="fill:#257A47;" points="588.99,266.41 494.013,134.835 117.968,134.835 22.99,266.41 113.18,391.352 59.204,391.352 
	124.987,482.484 178.963,482.484 305.99,658.459 433.018,482.484 486.991,482.484 488.354,480.596 552.776,391.352 498.801,391.352 
	"/>
<polygon style="fill:#FFFFFF;" points="129.647,473.374 482.332,473.374 534.962,400.462 77.015,400.462 129.647,473.374 "/>
<polygon style="fill:#FFFFFF;" points="127.287,153.055 290.284,153.055 290.284,391.352 321.697,391.352 321.697,153.055 
	484.693,153.055 566.519,266.41 476.33,391.352 487.565,391.352 577.755,266.41 489.353,143.945 122.627,143.945 34.226,266.41 
	124.415,391.352 135.651,391.352 45.461,266.41 "/>
<polygon style="fill:#FFFFFF;" points="321.697,482.484 290.284,482.484 290.284,605.57 201.434,482.484 190.198,482.484 
	305.99,642.894 421.782,482.484 410.546,482.484 321.697,605.57 "/>
<polygon style="fill:#E33226;" points="290.284,153.055 127.287,153.055 45.461,266.41 135.651,391.352 290.284,391.352 "/>
<polygon style="fill:#E33226;" points="290.284,482.484 201.434,482.484 290.284,605.57 "/>
<path style="fill:#E33226;" d="M181.52,448.38l-9.555,9.573h-35.013l-9.555-9.573v-22.927l9.555-9.573h35.013l9.555,9.573V448.38z
	 M168.828,448.54v-23.247H140.09v23.247H168.828z"/>
<path style="fill:#E33226;" d="M246.626,445.045l-9.555,12.908h-48.776l9.338-9.413h32.008l2.994-3.478l-3.031-3.796h-32.05
	l-9.259-12.442l9.555-12.944h48.775l-9.412,9.413h-31.946l-3.066,3.6l3.066,3.816h32.088L246.626,445.045z"/>
<path style="fill:#E33226;" d="M304.74,457.953h-12.692v-12.051h-25.6v12.123l-12.693,7.202v-39.933l9.555-9.413h31.875l9.555,9.413
	V457.953z M292.048,436.632v-11.338h-25.6v11.338H292.048z"/>
<path style="fill:#E33226;" d="M370.416,445.045l-9.555,12.908h-48.776l9.338-9.413h32.007l2.994-3.478l-3.031-3.796h-32.05
	l-9.259-12.442l9.556-12.944h48.775l-9.413,9.413h-31.946l-3.066,3.6l3.066,3.816h32.088L370.416,445.045z"/>
<path style="fill:#E33226;" d="M427.604,415.88l-9.341,9.413h-28.239v23.247h36.082l-9.412,9.413h-29.808l-9.555-9.413v-23.062
	l9.555-9.598H427.604z"/>
<path style="fill:#E33226;" d="M484.58,448.38l-9.556,9.573h-35.012l-9.556-9.573v-22.927l9.556-9.573h35.012l9.556,9.573V448.38z
	 M471.887,448.54v-23.247H443.15v23.247H471.887z"/>
<path style="fill:#FFFFFF;" d="M266.474,194.939l-30.288,30.519H144.63v75.372h75.835v-23.582h-28.207l-27.745-27.745h97.106v51.327
	L231.1,331.349h-96.643l-30.981-30.519v-74.772l30.981-31.118H266.474z"/>
<path style="fill:#FFFFFF;" d="M279.456,331.782h-15.637v-15.638h15.637V331.782z"/>
<path style="fill:#FFFFFF;" d="M496.217,194.939l-30.288,30.519h-91.556v24.045h101.961l-27.745,27.745h-74.216v23.582h116.989
	l-30.519,30.519H333.218v-136.41H496.217z"/>
<path style="fill:#FFFFFF;" d="M507.809,331.782h-15.638v-15.638h15.638V331.782z"/>
</svg>
