<?xml version="1.0" encoding="iso-8859-1"?>
<!-- Generator: Adobe Illustrator 24.0.1, SVG Export Plug-In . SVG Version: 6.00 Build 0)  -->
<svg version="1.1" id="Layer_1" xmlns="http://www.w3.org/2000/svg" xmlns:xlink="http://www.w3.org/1999/xlink" x="0px" y="0px"
	 viewBox="0 0 600 600" style="enable-background:new 0 0 600 600;" xml:space="preserve">
<path style="fill:#723F98;" d="M509.914,75.454l-11.768-4.472c-1.179-0.448-1.789-1.783-1.355-2.965l7.707-21.01
	c0.434-1.184-0.185-2.483-1.379-2.89c0,0-30.287-13.688-74.273-25.066l-3.143,10.467c-0.722,2.414-3.31,3.859-5.745,3.209
	l-7.202-1.921c-2.438-0.649-3.974-3.192-3.414-5.652l2.327-10.247c-0.4-0.091-0.797-0.182-1.203-0.273
	c-22.794-5.039-48.584-8.493-74.333-10.522l-0.692,7.928c-0.222,2.511-2.455,4.455-4.977,4.323l-10.975-0.585
	c-2.518-0.133-4.482-2.304-4.373-4.821l0.37-8.168c-11.925-0.596-23.668-0.895-34.904-0.895c-14.96,0-30.944,0.604-47.064,1.789
	l0.326,7.274c0.116,2.517-1.853,4.688-4.37,4.821l-10.977,0.585c-2.516,0.133-4.755-1.812-4.975-4.323l-0.568-6.534
	c-18.447,1.928-36.576,4.617-53.042,8.058c-7.565,1.582-14.841,3.264-21.79,4.99l1.501,6.601c0.558,2.46-0.979,5.003-3.413,5.652
	l-7.205,1.921c-2.435,0.65-5.021-0.795-5.745-3.209l-1.96-6.538C86.005,32.797,62.93,42.531,62.93,42.531
	c-1.194,0.403-1.809,1.697-1.367,2.878l6.918,18.475c0.441,1.181-0.167,2.498-1.349,2.934l-9.812,3.586
	c-1.183,0.432-1.798,1.754-1.365,2.938l10.1,27.611c0.433,1.183,1.756,1.798,2.94,1.365l10.053-3.675
	c1.183-0.433,2.513,0.178,2.956,1.358l9.454,25.254c0.443,1.181-0.164,2.497-1.348,2.93l-9.212,3.35
	c-1.184,0.431-1.781,1.743-1.328,2.92l5.757,14.896c0.453,1.175,0.825,3.169,0.825,4.43v341.381c0,1.26,0.034,2.154,0.079,1.988
	c0.042-0.168,0.107,0.243-0.011,1.499c0,0-0.004,0.053-0.004,1.566c0,10.028,3.441,29.335,15.835,41.04
	c9.058,8.557,24.781,16.168,24.781,16.168c1.135,0.548,2.387,1.333,2.778,1.737c0,0,0,0,0.378,0.358
	c14.517,13.742,26.711,15.118,49.197,19.402c22.485,4.283,53.389,3.287,53.389,3.287c1.259-0.041,3.319-0.157,4.575-0.261
	c0,0,27.224-2.219,41.742,1.016c12.865,2.866,26.195,17.883,26.195,17.883c0.833,0.943,2.202,0.943,3.039,0
	c0,0,13.331-15.017,26.196-17.883c14.517-3.234,41.741-1.016,41.741-1.016c1.257,0.104,3.313,0.259,4.568,0.348
	c0,0,12.761,0.909,35.249-3.374c22.484-4.284,28.257-10.884,42.773-24.628c14.517-13.742,19.798-49.131,19.798-49.131
	c0.185-1.245,0.338-3.297,0.338-4.556V143.294c0-1.262-1.033-2.294-2.293-2.294h-4.189c-1.259,0-1.935-0.966-1.502-2.15
	l7.388-20.139c0.437-1.186,1.75-1.771,2.918-1.303l10.674,4.252c1.171,0.466,2.505-0.112,2.966-1.284l16.47-41.975
	C511.68,77.226,511.092,75.901,509.914,75.454z"/>
<path style="fill:#FFFFFF;" d="M93.028,148.216v349.236c0,0-0.809,25.062,13.742,38.806c14.551,13.742,25.87,18.592,49.313,19.401
	c23.444,0.809,67.099,0,67.099,0s28.295,0.809,42.846,4.041c14.263,3.17,27.749,19.541,28.279,20.191
	c0.532-0.65,14.018-17.021,28.278-20.191c14.552-3.232,42.846-4.041,42.846-4.041s-1.847,0.809,21.598,0
	c23.443-0.809,34.76-5.659,49.314-19.401c14.551-13.744,13.743-38.806,13.743-38.806V148.216H93.028z"/>
<path style="fill:none;stroke:#FFFFFF;stroke-width:6.4;" d="M81.355,62.504c44.589-17.913,113.223-30.073,190.203-30.073
	c75.966,0,143.798,11.841,188.421,29.367"/>
<path style="fill:none;stroke:#FFFFFF;stroke-width:6.4;stroke-dasharray:32,4.8,4.8,56;" d="M72.79,49.656
	c13.478-5.413,29.148-10.301,46.586-14.488"/>
<path style="fill:none;stroke:#FFFFFF;stroke-width:6.4;stroke-dasharray:32,4.8,4.8,56;" d="M154.34,25.353
	c14.194-3.085,30.463-5.283,48.354-6.494"/>
<path style="fill:none;stroke:#FFFFFF;stroke-width:6.4;stroke-dasharray:32,4.8,4.8,56;" d="M349.709,18.404
	c14.457,1.396,30.622,4.268,48.028,8.577"/>
<path style="fill:none;stroke:#FFFFFF;stroke-width:6.4;stroke-dasharray:32,4.8,4.8,56;" d="M440.735,36.518
	c14.1,3.479,29.678,8.672,46.272,15.461"/>
<path style="fill:none;stroke:#FFFFFF;stroke-width:6.4;stroke-dasharray:32,4.8,4.8,56;" d="M251.547,15.737
	c14.474-1.187,30.892-1.22,48.786-0.061"/>
<path style="fill:none;stroke:#FFFFFF;stroke-width:6.4;stroke-dasharray:36.8,6.4;" d="M82.15,78.568
	c44.59-17.914,113.22-30.075,190.202-30.075c75.965,0,143.799,11.842,188.419,29.367"/>
<path style="fill:none;stroke:#FFFFFF;stroke-width:6.4;stroke-dasharray:38.4,6.4;" d="M95.846,90.432
	C140.05,75.734,201.837,66.139,270.21,66.139c68.5,0,130.388,9.629,174.609,24.372"/>
<path style="fill:none;stroke:#FFFFFF;stroke-width:6.4;stroke-dasharray:32.8,6.4;" d="M101.458,102.024
	c43.749-13.67,103.227-22.48,168.752-22.48c66.711,0,127.147,9.132,171.108,23.226"/>
<path style="fill:none;stroke:#FFFFFF;stroke-width:6.4;stroke-dasharray:36,6.4;" d="M104.986,114.862
	C148.379,101.81,206.43,93.464,270.21,93.464c64.754,0,123.599,8.604,167.198,21.998"/>
<path style="fill:none;stroke:#FFFFFF;stroke-width:6.4;stroke-dasharray:32.8,6.4;" d="M99.576,131.875
	c44.004-14.204,104.691-23.42,171.705-23.42c67.844,0,129.196,9.445,173.327,23.948"/>
<rect x="153.539" y="251.59" width="102.793" height="23.768"/>
<polygon points="399.436,323.487 335.225,394.743 352.892,410.643 431.428,323.487 "/>
<path d="M302.086,516.002c0,16.738-13.57,30.307-30.304,30.307c-16.737,0-30.305-13.568-30.305-30.307
	c0-16.735,13.568-30.301,30.305-30.301C288.516,485.701,302.086,499.267,302.086,516.002z"/>
<polygon points="230.491,362.328 185.9,415.166 210.098,435.588 260.131,376.3 "/>
<polygon points="264.514,384.207 220.021,436.928 244.218,457.35 294.152,398.181 "/>
<polygon points="210.482,446.547 165.95,499.316 190.146,519.737 240.122,460.522 "/>
<path d="M440.394,224.882c-5.836-4.749-13.13-7.259-19.998-9.998c-4.801-1.916-17.543-4.134-19.94-9.137
	c-2.054-4.299,3.06-12.849,4.373-16.9c1.122-3.465,1.899-6.465,1.83-10.201c-0.029-1.475-2.635-10.764-2.391-11.105
	c-4.384,6.123-12.68,10.811-19.521,13.688c-2.335,0.979-9.875,4.179-12.288,3.433c-2.1-0.647-6.192-5.496-8.65-6.884
	c0.267,2.545,0.171,5.319-1.487,6.776c0.054-2.54-1.244-4.625-3.246-6.262c-0.303,3.513-1.056,7.599-2.826,10.708
	c-0.54,0.946-6.335,6.157-6.331,6.185c-0.487-7.723-5.423-15.241-9.688-21.456c-1.087-1.582-13.508-14.081-15.617-10.621
	c-4.921,8.072-7.834,17.491-8.731,26.876c-0.413,4.323-1.281,10.044,1.726,13.338c3.814,4.188,7.692,3.899,10.092,9.746
	c-6.771,1.188-13.321,13.958-16.166,19.29c1.881-2.685,8.647-3.181,8.04,1.201c-4.733-0.167-8.771,5.109-8.03,9.591
	c2.67-5.231,12.016-10.17,13.54-1.41c0.569,3.263-1.478,6.907-4.124,9.851h-51.555v23.768h26.868
	c-11.102,24.926-29.145,42.751-47.512,54.908c-29.205,19.33-59.172,24.392-63.135,21.148c-6.535-5.347-5.348,0.593-5.348,0.593
	c7.129,16.044,52.882,2.377,52.882,2.377l69.519,47.536l83.189-84.969c7.724-5.942,7.724,2.378,7.724,2.378h35.056V251.59
	c0,0-27.762,0-27.762-0.004c0.689-2.207,1.245-4.586,0.936-6.908c-0.273-2.018-1.539-3.06-2.375-4.853
	c2.637-2.298,6.939-4.912,10.494-4.42c3.05,0.422,5.973,1.849,8.871,2.811c2.567,0.852,5.583,1.867,8.296,1.109
	c1.294-0.362,2.34-1.082,3.195-2.107c0.363-0.435,2.185-4.578,2.072-4.576c3.171-0.064,8.052,2.371,10.605-0.767
	C445.678,228.553,442.782,226.825,440.394,224.882z"/>
<path style="fill:#FFFFFF;" d="M372.483,212.083c0,2.686-2.178,4.863-4.862,4.863c-2.688,0-4.863-2.178-4.863-4.863
	c0-2.687,2.175-4.866,4.863-4.866C370.305,207.217,372.483,209.396,372.483,212.083z"/>
<path style="fill:#FFFFFF;" d="M325.188,251.864l11.1,50.953l56.816-45.703l-2.789-3.464c0,0-46.182,37.146-51.213,41.197
	c-1.315-6.022-9.569-43.93-9.569-43.93L325.188,251.864z"/>
</svg>
