<?xml version="1.0" encoding="UTF-8" standalone="no"?>
<svg
   xmlns:dc="http://purl.org/dc/elements/1.1/"
   xmlns:cc="http://creativecommons.org/ns#"
   xmlns:rdf="http://www.w3.org/1999/02/22-rdf-syntax-ns#"
   xmlns:svg="http://www.w3.org/2000/svg"
   xmlns="http://www.w3.org/2000/svg"
   xmlns:sodipodi="http://sodipodi.sourceforge.net/DTD/sodipodi-0.dtd"
   xmlns:inkscape="http://www.inkscape.org/namespaces/inkscape"
   version="1.1"
   id="Layer_1"
   x="0px"
   y="0px"
   viewBox="0 0 1000 1000"
   xml:space="preserve"
   sodipodi:docname="Hoogstraten Vv.svg"
   width="1000"
   height="1000"
   inkscape:version="1.0.1 (3bc2e813f5, 2020-09-07)"><metadata
   id="metadata375"><rdf:RDF><cc:Work
       rdf:about=""><dc:format>image/svg+xml</dc:format><dc:type
         rdf:resource="http://purl.org/dc/dcmitype/StillImage" /><dc:title></dc:title></cc:Work></rdf:RDF></metadata><defs
   id="defs373" /><sodipodi:namedview
   pagecolor="#ffffff"
   bordercolor="#666666"
   borderopacity="1"
   objecttolerance="10"
   gridtolerance="10"
   guidetolerance="10"
   inkscape:pageopacity="0"
   inkscape:pageshadow="2"
   inkscape:window-width="1920"
   inkscape:window-height="1017"
   id="namedview371"
   showgrid="false"
   inkscape:zoom="1.1186869"
   inkscape:cx="306"
   inkscape:cy="396"
   inkscape:window-x="-8"
   inkscape:window-y="-8"
   inkscape:window-maximized="1"
   inkscape:current-layer="Layer_1" />























































































































































































<g
   id="g1384"
   transform="matrix(1.6784363,0,0,1.6784363,-116.65636,-190.31454)"><path
     style="fill:#ffffff"
     d="m 545.498,387.409 -3.871,-3.311 -99.732,-85.323 -16.902,-14.461 c -2.155,-2.438 -4.383,-4.822 -6.699,-7.139 -14.387,-14.387 -31.142,-25.683 -49.801,-33.575 -1.158,-0.489 -2.321,-0.963 -3.488,-1.424 0.067,0.026 0.136,0.051 0.204,0.078 0.566,0.224 1.164,0.336 1.762,0.336 0.646,0 1.293,-0.131 1.897,-0.393 1.164,-0.504 2.081,-1.448 2.548,-2.628 l 2.055,-5.188 c 0.154,-0.39 0.248,-0.789 0.297,-1.187 1.347,1.784 3.478,2.945 5.881,2.945 4.053,0 7.351,-3.289 7.369,-7.338 2.776,-1.058 4.758,-3.74 4.758,-6.884 0,-0.284 -0.021,-0.564 -0.052,-0.841 2.565,-1.155 4.359,-3.731 4.359,-6.721 0,-0.824 -0.142,-1.614 -0.393,-2.355 2.316,-1.244 3.896,-3.688 3.896,-6.497 0,-1.28 -0.329,-2.485 -0.906,-3.535 2.08,-1.305 3.469,-3.611 3.469,-6.242 0,-1.982 -0.79,-3.781 -2.068,-5.107 1.584,-1.354 2.593,-3.36 2.593,-5.602 0,-2.554 -1.307,-4.808 -3.286,-6.131 0.471,-0.971 0.743,-2.055 0.743,-3.205 0,-3.319 -2.206,-6.131 -5.229,-7.052 0.024,-0.24 0.037,-0.484 0.037,-0.73 0,-3.964 -3.147,-7.198 -7.072,-7.356 -0.846,-3.14 -3.709,-5.461 -7.111,-5.461 -0.603,0 -1.185,0.081 -1.745,0.218 -1.316,-2.019 -3.591,-3.357 -6.175,-3.357 -1.646,0 -3.162,0.549 -4.391,1.464 -1.27,-1.231 -2.979,-2.007 -4.867,-2.072 l -2.475,-9.413 c -0.448,-1.709 -1.805,-3.031 -3.523,-3.438 -0.365,-0.086 -0.734,-0.129 -1.101,-0.129 -1.357,0 -2.671,0.579 -3.59,1.624 l -1.914,2.177 c -1.343,-1.83 -3.502,-3.026 -5.941,-3.026 -0.02,0 -0.039,0.003 -0.059,0.003 -0.838,-3.15 -3.706,-5.481 -7.116,-5.481 -0.847,0 -1.657,0.15 -2.414,0.414 -1.294,-2.131 -3.63,-3.563 -6.299,-3.563 -1.629,0 -3.131,0.538 -4.354,1.436 -1.271,-1.039 -2.893,-1.665 -4.659,-1.665 -0.624,0 -1.227,0.087 -1.805,0.233 l -6.47,-14.307 c -0.774,-1.712 -2.478,-2.812 -4.356,-2.812 -1.879,0 -3.583,1.1 -4.357,2.812 l -6.469,14.307 c -0.579,-0.146 -1.183,-0.233 -1.807,-0.233 -1.766,0 -3.389,0.626 -4.659,1.665 -1.222,-0.898 -2.724,-1.436 -4.353,-1.436 -2.67,0 -5.005,1.432 -6.299,3.563 -0.758,-0.264 -1.567,-0.414 -2.414,-0.414 -3.411,0 -6.279,2.331 -7.117,5.481 -0.02,0 -0.038,-0.003 -0.059,-0.003 -2.439,0 -4.598,1.195 -5.941,3.025 l -1.914,-2.176 c -0.919,-1.045 -2.232,-1.624 -3.59,-1.624 -0.366,0 -0.735,0.042 -1.101,0.129 -1.719,0.406 -3.074,1.729 -3.523,3.438 l -2.475,9.413 c -1.89,0.065 -3.6,0.841 -4.869,2.072 -1.228,-0.915 -2.744,-1.464 -4.391,-1.464 -2.584,0 -4.857,1.339 -6.174,3.357 -0.561,-0.137 -1.144,-0.218 -1.745,-0.218 -3.402,0 -6.266,2.321 -7.111,5.461 -3.926,0.158 -7.073,3.393 -7.073,7.356 0,0.246 0.014,0.49 0.037,0.73 -3.022,0.921 -5.228,3.732 -5.228,7.052 0,1.15 0.271,2.234 0.743,3.205 -1.98,1.323 -3.286,3.577 -3.286,6.131 0,2.241 1.009,4.248 2.592,5.602 -1.277,1.326 -2.068,3.125 -2.068,5.107 0,2.631 1.39,4.938 3.469,6.242 -0.576,1.05 -0.905,2.255 -0.905,3.535 0,2.809 1.579,5.253 3.896,6.497 -0.251,0.74 -0.393,1.53 -0.393,2.355 0,2.99 1.794,5.565 4.359,6.721 -0.031,0.276 -0.052,0.557 -0.052,0.841 0,3.144 1.981,5.826 4.757,6.884 0.02,4.049 3.317,7.338 7.37,7.338 2.403,0 4.534,-1.161 5.881,-2.946 0.049,0.398 0.143,0.797 0.297,1.188 l 2.055,5.186 c 0.467,1.18 1.383,2.125 2.547,2.628 0.605,0.262 1.251,0.394 1.898,0.394 0.598,0 1.195,-0.112 1.762,-0.337 0.08,-0.032 0.161,-0.061 0.241,-0.092 -1.179,0.465 -2.354,0.944 -3.525,1.438 -18.659,7.893 -35.414,19.188 -49.801,33.575 -2.317,2.317 -4.545,4.702 -6.701,7.141 l -16.9,14.459 -99.732,85.323 -3.871,3.311 3.551,3.654 152.756,157.187 c -19.523,-10.3 -34.749,-22.366 -43.744,-31.495 -7.114,-7.201 -11.973,-14.148 -16.26,-20.277 -1.712,-2.449 -3.33,-4.763 -4.982,-6.941 -2.698,-3.545 -6.07,-7.563 -10.664,-10.54 -4.557,-2.968 -9.866,-4.475 -15.773,-4.475 h -0.025 -0.048 -0.006 -0.004 -0.16 c -3.395,0 -6.53,0.856 -9.321,2.546 -2.299,1.371 -4.337,3.135 -6.916,5.368 l -0.51,0.441 -24.927,21.631 -4.749,4.121 c -4.429,3.843 -6.74,6.19 -6.74,13.561 0,14.204 8.663,21.693 15.623,27.712 5.331,4.609 8.599,7.641 8.599,11.726 0,3.058 -2.157,6.136 -2.988,7.064 -1.685,1.88 -1.628,4.758 0.143,6.557 0.936,0.951 2.175,1.434 3.415,1.434 1.106,0 2.216,-0.384 3.114,-1.164 l 21.295,-18.478 c 5.929,5.808 12.083,11.385 18.34,16.616 23.368,19.542 48.465,34.627 74.677,44.9 -1.867,3.525 -2.868,7.394 -2.878,11.269 0,2.752 0.502,5.435 1.492,7.988 l 11.257,29.058 c 0.006,0.013 0.01,0.024 0.015,0.037 0.117,0.293 0.229,0.58 0.339,0.86 0.935,2.386 1.901,4.854 3.861,7.142 1.401,1.61 3.16,2.827 5.111,3.549 1.676,0.624 3.543,0.931 5.697,0.933 0.016,0 0.031,0 0.047,0 3.882,-0.034 8.189,-0.959 13.641,-2.131 2.472,-0.53 5.272,-1.132 8.348,-1.716 8.009,-1.536 20.583,-3.577 37.374,-3.579 16.788,0.002 29.364,2.043 37.362,3.578 3.086,0.585 5.887,1.187 8.358,1.717 5.451,1.172 9.759,2.097 13.641,2.131 0.016,0 0.031,0 0.047,0 2.141,-0.002 3.999,-0.305 5.68,-0.927 2.725,-0.99 5.094,-3.01 6.676,-5.688 1.056,-1.762 1.752,-3.556 2.49,-5.452 l 0.172,-0.444 11.262,-29.068 c 0.99,-2.563 1.492,-5.246 1.489,-7.979 -0.009,-3.879 -1.011,-7.75 -2.877,-11.276 26.215,-10.272 51.311,-25.356 74.682,-44.9 6.26,-5.235 12.413,-10.811 18.339,-16.616 l 21.294,18.478 c 0.898,0.78 2.008,1.164 3.115,1.164 1.24,0 2.479,-0.482 3.414,-1.434 1.77,-1.799 1.828,-4.677 0.143,-6.557 -0.832,-0.929 -2.989,-4.007 -2.989,-7.064 0,-4.085 3.267,-7.116 8.6,-11.726 6.96,-6.019 15.622,-13.508 15.622,-27.712 0,-7.369 -2.311,-9.718 -6.739,-13.561 l -4.749,-4.121 -24.922,-21.626 -0.509,-0.44 c -2.582,-2.235 -4.622,-4.002 -6.951,-5.391 -2.762,-1.673 -5.898,-2.529 -9.292,-2.529 h -0.16 -0.004 -0.006 -0.048 -0.026 c -5.906,0 -11.216,1.507 -15.78,4.479 -4.586,2.973 -7.958,6.99 -10.651,10.527 -1.658,2.186 -3.276,4.5 -4.989,6.949 -4.286,6.129 -9.145,13.076 -16.254,20.272 -8.997,9.131 -24.225,21.2 -43.749,31.5 L 541.952,391.064 Z M 254.2,629.5 l -0.51,-1.315 c 1.06,0.256 2.118,0.504 3.181,0.744 -0.897,0.185 -1.787,0.375 -2.671,0.571 z m 0.031,-404.928 c -0.176,-0.7 -0.503,-1.363 -0.982,-1.93 l -0.666,-0.787 c -0.083,-0.098 -0.268,-0.32 -0.573,-0.707 -1.452,-1.83 -5.186,-6.766 -8.542,-13.126 -2.75,-5.189 -6.019,-12.859 -6.002,-19.977 0,-3.093 1.202,-6.009 3.385,-8.223 2.13,-2.156 4.891,-3.345 7.772,-3.345 v 0 c 3.55,0 6.853,1.264 9.005,2.324 1.281,0.629 2.291,1.25 2.914,1.66 0.329,0.217 0.576,0.392 0.735,0.508 l 0.085,0.063 c 0.004,0.003 0.009,0.007 0.015,0.011 l 1.442,1.146 -2.772,19.069 c -0.175,1.201 0.114,2.425 0.809,3.422 l 10.621,15.24 c -5.822,1.245 -11.573,2.802 -17.246,4.652 z m 48.737,-63.653 -8.965,26.696 c -0.332,0.988 -0.332,2.057 0,3.044 l 8.582,25.558 c -7.188,0.201 -14.308,0.847 -21.343,1.925 l 2.754,-18.93 c 0.175,-1.202 -0.114,-2.427 -0.809,-3.423 l -10.614,-15.227 0.876,-3.709 c 0.022,-0.092 0.092,-0.368 0.228,-0.852 0.486,-1.725 2.333,-7.731 5.786,-12.893 1.659,-2.489 3.505,-4.477 5.343,-5.756 1.953,-1.354 3.882,-1.988 6.063,-1.992 3.205,0.002 6.096,0.761 8.582,2.256 0.903,0.546 1.543,1.069 1.919,1.412 0.18,0.162 0.288,0.272 0.351,0.339 0.002,0.002 0.004,0.004 0.006,0.007 l 1.251,1.521 c -0.002,0.008 -0.007,0.015 -0.01,0.024 z m 28.037,38.293 2.754,18.931 c -7.035,-1.079 -14.155,-1.725 -21.343,-1.926 l 8.582,-25.558 c 0.333,-0.987 0.333,-2.057 0,-3.044 l -8.964,-26.696 c -0.003,-0.009 -0.008,-0.017 -0.011,-0.025 l 1.241,-1.509 c 0.636,-0.664 4.179,-4.024 10.852,-4.024 2.491,0.006 4.678,0.834 6.894,2.605 3.939,3.147 6.679,8.57 7.96,11.522 0.949,2.167 1.616,4.115 2.011,5.369 0.169,0.541 0.324,1.069 0.459,1.564 0.062,0.228 0.097,0.371 0.111,0.43 0.003,0.013 0.006,0.026 0.01,0.04 l 0.865,3.673 -10.611,15.225 c -0.696,0.996 -0.985,2.221 -0.81,3.423 z M 360.799,629.5 c -0.883,-0.195 -1.773,-0.386 -2.67,-0.57 1.061,-0.24 2.121,-0.489 3.179,-0.744 z m 2.195,-408.355 c -0.311,0.392 -0.502,0.62 -0.567,0.699 -0.009,0.01 -0.018,0.02 -0.026,0.031 l -0.649,0.768 c -0.48,0.566 -0.808,1.23 -0.982,1.93 -5.673,-1.851 -11.423,-3.407 -17.243,-4.65 l 10.621,-15.24 c 0.694,-0.997 0.983,-2.221 0.809,-3.422 l -2.773,-19.072 1.429,-1.135 c 0.038,-0.028 0.075,-0.058 0.111,-0.088 1.228,-0.956 6.903,-4.488 12.521,-4.488 l 0.098,0.001 c 2.918,0 5.68,1.188 7.815,3.349 2.178,2.209 3.379,5.126 3.379,8.207 0.028,8.436 -4.648,17.773 -7.437,22.59 -2.018,3.502 -4.032,6.41 -5.367,8.235 -0.756,1.029 -1.363,1.81 -1.739,2.285 z"
     id="path2" /><path
     style="fill:#cf1f25"
     d="m 524.146,512.238 -4.749,-4.121 -24.922,-21.626 c -2.749,-2.377 -4.678,-4.085 -6.774,-5.335 -2.088,-1.265 -4.431,-1.882 -7.007,-1.854 -5.231,-0.015 -9.603,1.328 -13.253,3.704 -3.657,2.371 -6.581,5.642 -9.455,9.417 -5.736,7.565 -11.4,17.314 -21.647,27.685 -12.953,13.147 -37.17,31.331 -68.214,42.953 L 538.519,387.73 438.787,302.407 c 2.703,4.142 5.205,8.412 7.509,12.803 0.171,0.324 0.338,0.65 0.507,0.975 0.817,1.584 1.609,3.184 2.374,4.799 0.125,0.268 0.249,0.535 0.374,0.803 0.349,0.748 0.695,1.497 1.032,2.251 l 2.017,1.725 h -1.262 c 0.176,0.406 0.358,0.807 0.53,1.214 0.109,0.259 0.21,0.521 0.318,0.78 h 2.743 l 3.897,3.334 h -5.292 c 0.259,0.661 0.507,1.326 0.756,1.991 h 6.864 l 3.899,3.336 h -9.559 c 0.232,0.664 0.466,1.327 0.689,1.993 h 11.2 l 3.896,3.334 h -14.021 c 0.205,0.662 0.393,1.327 0.589,1.991 h 15.761 l 3.901,3.338 h -18.721 c 0.18,0.664 0.365,1.326 0.535,1.992 h 20.514 l 3.898,3.335 h -23.604 c 0.154,0.663 0.299,1.327 0.444,1.992 h 25.487 l 3.898,3.335 h -28.69 c 0.13,0.664 0.256,1.328 0.377,1.994 h 30.647 l 3.896,3.334 h -33.977 c 0.106,0.663 0.213,1.326 0.31,1.991 h 35.995 l 3.9,3.337 h -39.439 c 0.083,0.663 0.149,1.328 0.224,1.992 h 41.544 l 3.898,3.336 h -45.106 c 0.06,0.663 0.122,1.326 0.172,1.991 h 47.263 l 3.899,3.336 h -50.944 c 0.037,0.664 0.069,1.328 0.099,1.993 h 53.176 l 3.897,3.334 h -56.958 c 0.015,0.663 0.018,1.328 0.025,1.992 h 59.261 l 2.293,1.961 -1.336,1.374 h -60.22 c -0.007,0.664 -0.01,1.329 -0.024,1.992 h 58.309 l -3.241,3.335 h -55.185 c -0.029,0.665 -0.064,1.329 -0.102,1.992 h 53.351 l -3.241,3.336 h -50.329 c -0.053,0.665 -0.113,1.33 -0.174,1.994 h 48.564 l -3.239,3.333 h -45.664 c -0.074,0.664 -0.142,1.33 -0.225,1.993 h 43.951 l -3.241,3.336 h -41.168 c -0.098,0.665 -0.206,1.328 -0.313,1.992 h 39.545 l -3.238,3.333 h -36.875 c -0.121,0.665 -0.247,1.329 -0.377,1.992 h 35.315 l -3.241,3.336 h -32.77 c -0.145,0.664 -0.292,1.329 -0.447,1.991 h 31.281 l -3.244,3.338 h -28.85 c -0.171,0.666 -0.355,1.329 -0.535,1.993 h 27.448 l -3.24,3.334 h -25.152 c -0.195,0.664 -0.385,1.33 -0.59,1.992 h 23.807 l -3.243,3.337 h -21.642 c -0.224,0.666 -0.458,1.328 -0.69,1.991 h 20.397 l -3.239,3.334 H 454.25 c -0.25,0.665 -0.497,1.33 -0.756,1.992 h 17.185 l -3.241,3.336 h -15.296 c -0.092,0.221 -0.177,0.443 -0.271,0.664 -0.189,0.445 -0.389,0.885 -0.581,1.329 h 14.21 l -3.239,3.334 h -12.462 c -0.308,0.665 -0.612,1.332 -0.93,1.992 h 11.455 l -3.243,3.337 h -9.857 c -0.339,0.668 -0.69,1.329 -1.039,1.991 h 8.961 l -3.241,3.336 h -7.526 c -0.372,0.666 -0.743,1.332 -1.123,1.992 h 6.714 l -3.241,3.335 h -5.455 c -0.408,0.668 -0.823,1.332 -1.241,1.993 h 4.759 l -3.242,3.336 h -3.683 c -0.446,0.669 -0.902,1.33 -1.359,1.992 h 3.106 l -3.241,3.335 h -2.235 c -0.487,0.667 -0.977,1.333 -1.476,1.992 h 1.774 l -3.238,3.334 h -1.128 c -0.532,0.666 -1.063,1.333 -1.605,1.992 h 0.797 l -3.243,3.337 h -0.396 c -0.584,0.668 -1.172,1.333 -1.769,1.992 h 0.229 l -3.242,3.335 h -0.086 c -0.642,0.67 -1.292,1.333 -1.946,1.993 h 0.096 l -3.241,3.336 h -0.253 c -0.707,0.672 -1.422,1.334 -2.14,1.992 h 0.456 l -3.24,3.334 h -0.971 c -0.78,0.671 -1.563,1.337 -2.355,1.991 h 1.392 l -3.244,3.337 h -2.346 c -0.874,0.674 -1.754,1.339 -2.641,1.992 h 3.051 l -3.24,3.334 h -4.512 c -0.993,0.677 -1.994,1.34 -3.002,1.993 h 5.577 l -3.242,3.336 h -7.727 c -1.148,0.679 -2.305,1.342 -3.471,1.992 h 9.264 l -3.242,3.335 h -12.343 c -1.371,0.684 -2.752,1.348 -4.145,1.992 h 14.553 l -3.241,3.335 h -19.048 c -0.18,0.071 -0.357,0.148 -0.536,0.219 -0.263,0.597 -0.539,1.186 -0.82,1.773 h 18.468 l -3.241,3.336 h -16.952 c -0.372,0.671 -0.757,1.336 -1.152,1.993 h 16.167 l -3.241,3.335 h -15.083 c -0.467,0.674 -0.946,1.338 -1.439,1.992 h 14.586 l -3.24,3.334 H 355.04 c -0.585,0.677 -1.184,1.34 -1.796,1.991 h 13.892 l -3.243,3.338 h -14.028 c -0.742,0.68 -1.495,1.348 -2.27,1.992 h 14.362 l -3.241,3.335 h -15.523 c -0.996,0.69 -2.009,1.358 -3.046,1.991 h 16.634 l -3.241,3.336 h -19.619 c -1.565,0.729 -3.166,1.393 -4.799,1.994 h 22.479 l -1.183,1.217 c -2.934,0.775 -5.915,1.483 -8.939,2.117 h -26.013 c -2.606,0.331 -5.262,0.513 -7.958,0.513 -2.696,0 -5.351,-0.182 -7.958,-0.513 h -26.012 c -3.023,-0.634 -6.003,-1.342 -8.936,-2.116 l -1.184,-1.218 h 22.478 c -1.633,-0.602 -3.234,-1.265 -4.8,-1.994 h -19.615 l -3.242,-3.336 h 16.631 c -1.036,-0.633 -2.049,-1.301 -3.045,-1.991 h -15.521 l -3.242,-3.335 h 14.36 c -0.774,-0.645 -1.527,-1.313 -2.27,-1.992 h -14.026 l -3.243,-3.338 h 13.89 c -0.612,-0.651 -1.211,-1.314 -1.795,-1.991 h -14.03 l -3.24,-3.334 h 14.584 c -0.492,-0.654 -0.972,-1.318 -1.438,-1.992 h -15.082 l -3.241,-3.335 h 16.167 c -0.396,-0.657 -0.78,-1.322 -1.152,-1.993 h -16.951 l -3.241,-3.336 h 18.466 c -0.281,-0.588 -0.558,-1.178 -0.82,-1.774 -0.179,-0.07 -0.355,-0.146 -0.533,-0.218 h -19.049 l -3.241,-3.335 h 14.552 c -1.393,-0.645 -2.773,-1.309 -4.144,-1.992 h -12.344 l -3.242,-3.335 h 9.264 c -1.166,-0.65 -2.323,-1.313 -3.471,-1.992 h -7.729 l -3.241,-3.336 h 5.577 c -1.008,-0.653 -2.009,-1.316 -3.002,-1.993 h -4.513 l -3.24,-3.334 h 3.052 c -0.888,-0.653 -1.767,-1.318 -2.641,-1.992 h -2.347 l -3.243,-3.337 h 1.392 c -0.792,-0.654 -1.575,-1.32 -2.355,-1.991 h -0.972 l -3.24,-3.334 h 0.457 c -0.718,-0.658 -1.433,-1.32 -2.14,-1.992 h -0.253 l -3.241,-3.336 h 0.096 c -0.654,-0.66 -1.305,-1.323 -1.946,-1.993 h -0.087 l -3.241,-3.335 h 0.227 c -0.596,-0.659 -1.184,-1.324 -1.768,-1.992 h -0.396 l -3.243,-3.337 h 0.798 c -0.544,-0.659 -1.073,-1.326 -1.605,-1.992 h -1.129 l -3.239,-3.334 h 1.776 c -0.499,-0.659 -0.988,-1.325 -1.476,-1.992 h -2.236 l -3.241,-3.335 h 3.107 c -0.457,-0.662 -0.913,-1.323 -1.359,-1.992 h -3.684 l -3.242,-3.336 h 4.759 c -0.418,-0.661 -0.833,-1.325 -1.24,-1.993 h -5.456 l -3.241,-3.335 h 6.715 c -0.381,-0.66 -0.752,-1.326 -1.123,-1.992 h -7.528 l -3.241,-3.336 h 8.962 c -0.349,-0.662 -0.699,-1.323 -1.038,-1.991 h -9.859 l -3.243,-3.337 h 11.455 c -0.315,-0.66 -0.621,-1.327 -0.928,-1.992 h -12.463 l -3.24,-3.334 h 14.211 c -0.192,-0.444 -0.393,-0.884 -0.581,-1.329 -0.094,-0.221 -0.179,-0.443 -0.271,-0.664 H 147.58 l -3.242,-3.336 h 17.187 c -0.26,-0.662 -0.507,-1.327 -0.757,-1.992 h -18.365 l -3.24,-3.334 h 20.398 c -0.232,-0.663 -0.468,-1.325 -0.69,-1.991 h -21.644 l -3.243,-3.337 h 23.808 c -0.204,-0.662 -0.394,-1.328 -0.59,-1.992 h -25.153 l -3.24,-3.334 h 27.449 c -0.18,-0.664 -0.363,-1.327 -0.535,-1.993 h -28.851 l -3.244,-3.338 h 31.282 c -0.154,-0.662 -0.301,-1.327 -0.446,-1.991 h -32.771 l -3.241,-3.336 h 35.317 c -0.13,-0.663 -0.255,-1.327 -0.376,-1.992 h -36.877 l -3.239,-3.333 h 39.547 c -0.106,-0.664 -0.216,-1.327 -0.313,-1.992 h -41.17 l -3.241,-3.336 h 43.953 c -0.082,-0.663 -0.15,-1.329 -0.225,-1.993 h -45.666 l -3.239,-3.333 h 48.566 c -0.06,-0.664 -0.121,-1.329 -0.173,-1.994 h -50.331 l -3.241,-3.336 h 53.353 c -0.037,-0.663 -0.073,-1.327 -0.102,-1.992 H 95.79 l -3.241,-3.335 h 58.312 c -0.016,-0.663 -0.018,-1.328 -0.025,-1.992 H 90.613 l -1.336,-1.374 2.293,-1.961 h 59.264 c 0.007,-0.664 0.01,-1.329 0.024,-1.992 h -56.96 l 3.896,-3.334 h 53.178 c 0.029,-0.665 0.063,-1.329 0.1,-1.993 h -50.946 l 3.898,-3.336 h 47.265 c 0.051,-0.665 0.113,-1.328 0.173,-1.991 h -45.109 l 3.899,-3.336 h 41.546 c 0.073,-0.664 0.141,-1.329 0.223,-1.992 h -39.44 l 3.9,-3.337 h 35.997 c 0.098,-0.665 0.204,-1.328 0.31,-1.991 h -33.979 l 3.898,-3.334 h 30.648 c 0.121,-0.666 0.246,-1.33 0.376,-1.994 h -28.694 l 3.899,-3.335 h 25.489 c 0.145,-0.665 0.29,-1.329 0.443,-1.992 h -23.605 l 3.898,-3.335 h 20.516 c 0.17,-0.666 0.355,-1.328 0.534,-1.992 h -18.722 l 3.901,-3.338 h 15.762 c 0.195,-0.664 0.385,-1.329 0.589,-1.991 h -14.022 l 3.896,-3.334 h 11.202 c 0.223,-0.666 0.456,-1.329 0.688,-1.993 h -9.56 l 3.899,-3.336 h 6.865 c 0.249,-0.665 0.497,-1.33 0.756,-1.991 h -5.293 l 3.896,-3.334 h 2.744 c 0.108,-0.26 0.209,-0.521 0.318,-0.78 0.173,-0.407 0.355,-0.808 0.53,-1.214 h -1.263 l 2.018,-1.726 c 0.327,-0.732 0.664,-1.457 1.002,-2.183 0.139,-0.3 0.278,-0.6 0.419,-0.898 0.758,-1.603 1.544,-3.188 2.355,-4.761 0.17,-0.325 0.337,-0.651 0.508,-0.976 2.305,-4.394 4.809,-8.668 7.514,-12.811 L 76.481,387.73 246.872,563.061 c -31.043,-11.623 -55.259,-29.807 -68.213,-42.953 -10.247,-10.372 -15.909,-20.12 -21.645,-27.685 -2.875,-3.775 -5.799,-7.046 -9.456,-9.417 -3.648,-2.376 -8.021,-3.719 -13.252,-3.704 -2.576,-0.027 -4.92,0.59 -7.007,1.854 -2.098,1.25 -4.026,2.958 -6.775,5.335 l -24.921,21.626 -4.749,4.121 c -3.776,3.276 -5.092,4.418 -5.092,9.949 0,21.799 24.221,24.999 24.221,39.438 0,5.683 -4.23,10.279 -4.23,10.279 L 130.4,550.516 c 6.228,6.273 13.294,12.87 21.188,19.47 20.757,17.357 47.261,34.743 79.068,46.27 -0.243,0.26 -0.484,0.524 -0.719,0.799 -2.77,3.316 -4.824,7.799 -4.836,12.78 0,2.046 0.36,4.164 1.168,6.248 l 11.258,29.059 c 1.042,2.622 1.768,4.766 3.388,6.656 0.809,0.931 1.897,1.716 3.138,2.174 1.24,0.463 2.576,0.635 4.044,0.637 5.037,-0.044 11.532,-1.941 21.14,-3.763 9.562,-1.835 22.056,-3.661 38.265,-3.663 16.208,0.002 28.701,1.828 38.264,3.663 9.607,1.821 16.101,3.719 21.14,3.763 1.466,-0.002 2.802,-0.174 4.044,-0.637 1.888,-0.684 3.31,-2.118 4.206,-3.641 0.923,-1.536 1.548,-3.213 2.318,-5.189 l 11.258,-29.059 c 0.806,-2.086 1.168,-4.204 1.166,-6.248 -0.012,-4.981 -2.065,-9.463 -4.834,-12.778 -0.235,-0.274 -0.476,-0.54 -0.72,-0.8 31.809,-11.527 58.314,-28.912 79.071,-46.271 7.893,-6.6 14.96,-13.195 21.186,-19.47 l 24.648,21.388 c 0,0 -4.231,-4.597 -4.231,-10.279 0,-14.438 24.222,-17.639 24.222,-39.438 -0.002,-5.531 -1.318,-6.672 -5.094,-9.949 z"
     id="path4" /><path
     style="fill:#ffffff"
     d="m 330.059,572.824 c -7.315,1.02 -14.847,1.582 -22.559,1.575 -7.713,0.007 -15.243,-0.555 -22.559,-1.575 z"
     id="path6" /><path
     style="fill:#ffffff"
     d="m 251.242,635.1 -5.395,-13.928 c 14.703,4.203 30.419,7.092 47.114,8.17 -17.83,0.882 -31.685,3.287 -41.719,5.758 z"
     id="path8" /><path
     style="fill:#ffffff"
     d="m 363.757,635.1 c -10.034,-2.472 -23.889,-4.876 -41.719,-5.758 16.695,-1.078 32.411,-3.966 47.113,-8.169 z"
     id="path10" /><polygon
     style="fill:#cf1f25"
     points="307.501,162.441 298.535,189.138 307.501,215.834 316.466,189.138 "
     id="polygon12" /><polygon
     style="fill:#cf1f25"
     points="307.501,118.171 300.915,132.735 307.501,147.3 314.087,132.735 "
     id="polygon14" /><polygon
     style="fill:#cf1f25"
     points="335.736,198.523 338.651,218.553 350.223,201.947 347.31,181.918 "
     id="polygon16" /><polygon
     style="fill:#cf1f25"
     points="356.477,143.139 348.974,151.67 351.863,162.657 359.366,154.126 "
     id="polygon18" /><polygon
     style="fill:#cf1f25"
     points="264.778,201.947 276.351,218.553 279.265,198.523 267.69,181.918 "
     id="polygon20" /><polygon
     style="fill:#cf1f25"
     points="258.523,143.139 255.635,154.126 263.138,162.657 266.027,151.67 "
     id="polygon22" /><path
     style="fill:#cf1f25"
     d="m 227.106,188.033 c 0.028,10.205 4.489,20.205 8.827,27.771 3.415,5.927 6.796,10.33 8.135,12 1.826,-0.724 3.673,-1.41 5.529,-2.073 l -0.665,-0.786 c -0.002,0 -0.229,-0.269 -0.671,-0.828 -1.547,-1.948 -5.502,-7.191 -9.022,-13.862 -3.533,-6.667 -6.572,-14.767 -6.555,-22.221 0,-4.521 1.835,-8.6 4.762,-11.567 2.93,-2.967 6.905,-4.77 11.177,-4.77 4.221,-0.006 8.21,1.384 11.118,2.817 1.454,0.713 2.634,1.431 3.435,1.959 0.4,0.264 0.707,0.481 0.906,0.625 0.1,0.073 0.172,0.128 0.217,0.162 0.045,0.033 0.047,0.036 0.047,0.036 l 3.44,2.735 1.011,-4.277 c 0,-0.002 0.081,-0.352 0.28,-1.055 0.69,-2.454 2.749,-8.775 6.412,-14.249 1.826,-2.739 4.04,-5.25 6.585,-7.021 2.56,-1.773 5.392,-2.843 8.786,-2.85 5.005,0.004 8.636,1.485 11.056,2.94 1.206,0.729 2.102,1.453 2.675,1.976 0.288,0.261 0.494,0.471 0.619,0.604 0.064,0.066 0.108,0.114 0.13,0.141 l 0.007,0.008 2.152,2.618 2.156,-2.618 0.005,-0.008 c 0.38,-0.416 5.15,-5.671 14.481,-5.661 3.871,0.011 7.037,1.4 9.853,3.653 4.212,3.364 7.372,8.771 9.361,13.353 1,2.287 1.72,4.356 2.186,5.84 0.232,0.743 0.401,1.338 0.511,1.74 0.108,0.404 0.15,0.587 0.151,0.589 l 1.008,4.275 3.442,-2.733 c 0,0 0.002,-0.003 0.047,-0.036 0.656,-0.545 7.763,-5.621 15.676,-5.563 4.27,0 8.247,1.804 11.179,4.77 2.925,2.968 4.759,7.046 4.759,11.567 0.028,8.521 -3.964,17.878 -8.08,24.986 -2.051,3.559 -4.108,6.562 -5.647,8.663 -0.769,1.052 -1.407,1.877 -1.85,2.434 -0.442,0.559 -0.671,0.826 -0.671,0.828 l -0.666,0.786 c 1.858,0.663 3.704,1.35 5.531,2.074 1.337,-1.671 4.719,-6.074 8.136,-12.001 4.337,-7.566 8.797,-17.566 8.825,-27.771 -0.02,-12.109 -9.786,-21.89 -21.517,-21.916 -6.765,0.045 -12.46,2.626 -15.848,4.599 -0.913,-2.742 -2.432,-6.663 -4.704,-10.649 -2.071,-3.616 -4.768,-7.307 -8.331,-10.181 -3.547,-2.87 -8.061,-4.896 -13.352,-4.886 -8.314,0.012 -13.842,3.358 -16.642,5.639 -2.8,-2.28 -8.328,-5.627 -16.64,-5.639 -5.294,-0.01 -9.808,2.016 -13.354,4.886 -5.335,4.319 -8.761,10.438 -10.973,15.462 -0.883,2.02 -1.563,3.869 -2.062,5.368 -3.389,-1.973 -9.084,-4.554 -15.849,-4.599 -11.725,0.027 -21.494,9.807 -21.514,21.916 z"
     id="path24" /><path
     style="fill:#cf1f25"
     d="m 392.712,185.02 c 0,1.431 1.16,2.59 2.59,2.59 1.431,0 2.59,-1.159 2.59,-2.59 0,-1.431 -1.159,-2.59 -2.59,-2.59 -1.43,0 -2.59,1.159 -2.59,2.59 z"
     id="path26" /><path
     style="fill:#cf1f25"
     d="m 392.76,178.274 c 1.43,0 2.59,-1.16 2.59,-2.591 0,-1.431 -1.16,-2.59 -2.59,-2.59 -1.43,0 -2.59,1.159 -2.59,2.59 0,1.431 1.16,2.591 2.59,2.591 z"
     id="path28" /><path
     style="fill:#cf1f25"
     d="m 387.567,170.491 c 1.431,0 2.59,-1.16 2.59,-2.59 0,-1.431 -1.159,-2.591 -2.59,-2.591 -1.43,0 -2.59,1.16 -2.59,2.591 0,1.43 1.161,2.59 2.59,2.59 z"
     id="path30" /><path
     style="fill:#cf1f25"
     d="m 380.755,165.046 c 1.43,0 2.59,-1.159 2.59,-2.59 0,-1.431 -1.16,-2.59 -2.59,-2.59 -1.43,0 -2.59,1.159 -2.59,2.59 0,1.431 1.16,2.59 2.59,2.59 z"
     id="path32" /><path
     style="fill:#cf1f25"
     d="m 363.317,161.284 c 1.431,0 2.59,-1.159 2.59,-2.59 0,-1.431 -1.159,-2.591 -2.59,-2.591 -1.43,0 -2.59,1.16 -2.59,2.591 0,1.431 1.161,2.59 2.59,2.59 z"
     id="path34" /><path
     style="fill:#cf1f25"
     d="m 372.835,161.906 c 1.431,0 2.591,-1.16 2.591,-2.59 0,-1.432 -1.16,-2.591 -2.591,-2.591 -1.43,0 -2.59,1.159 -2.59,2.591 0,1.43 1.16,2.59 2.59,2.59 z"
     id="path36" /><path
     style="fill:#cf1f25"
     d="m 345.032,149.093 c 1.431,0 2.59,-1.159 2.59,-2.59 0,-1.431 -1.159,-2.591 -2.59,-2.591 -1.43,0 -2.59,1.16 -2.59,2.591 0,1.431 1.16,2.59 2.59,2.59 z"
     id="path38" /><path
     style="fill:#cf1f25"
     d="m 320.132,140.236 c 1.431,0 2.59,-1.16 2.59,-2.59 0,-1.431 -1.159,-2.591 -2.59,-2.591 -1.43,0 -2.59,1.16 -2.59,2.591 0,1.43 1.16,2.59 2.59,2.59 z"
     id="path40" /><path
     style="fill:#cf1f25"
     d="m 329.145,140.466 c 1.43,0 2.59,-1.159 2.59,-2.59 0,-1.431 -1.16,-2.591 -2.59,-2.591 -1.43,0 -2.591,1.16 -2.591,2.591 0,1.431 1.161,2.59 2.591,2.59 z"
     id="path42" /><path
     style="fill:#cf1f25"
     d="m 337.857,143.613 c 1.43,0 2.59,-1.159 2.59,-2.59 0,-1.431 -1.16,-2.59 -2.59,-2.59 -1.43,0 -2.59,1.159 -2.59,2.59 0,1.431 1.161,2.59 2.59,2.59 z"
     id="path44" /><path
     style="fill:#cf1f25"
     d="m 394.778,198.318 c 1.431,0 2.59,-1.159 2.59,-2.59 0,-1.431 -1.159,-2.591 -2.59,-2.591 -1.43,0 -2.59,1.16 -2.59,2.591 0,1.431 1.161,2.59 2.59,2.59 z"
     id="path46" /><path
     style="fill:#cf1f25"
     d="m 389.626,205.506 c 0,1.43 1.16,2.59 2.59,2.59 1.43,0 2.59,-1.16 2.59,-2.59 0,-1.432 -1.16,-2.591 -2.59,-2.591 -1.43,0 -2.59,1.159 -2.59,2.591 z"
     id="path48" /><path
     style="fill:#cf1f25"
     d="m 386.121,214.357 c 0,1.43 1.16,2.59 2.59,2.59 1.431,0 2.59,-1.16 2.59,-2.59 0,-1.432 -1.159,-2.591 -2.59,-2.591 -1.43,0.001 -2.59,1.16 -2.59,2.591 z"
     id="path50" /><path
     style="fill:#cf1f25"
     d="m 381.813,221.919 c 0,1.431 1.16,2.591 2.59,2.591 1.431,0 2.59,-1.16 2.59,-2.591 0,-1.431 -1.159,-2.59 -2.59,-2.59 -1.429,0 -2.59,1.159 -2.59,2.59 z"
     id="path52" /><path
     style="fill:#cf1f25"
     d="m 379.648,226.179 c -1.43,0 -2.591,1.159 -2.591,2.59 0,1.431 1.161,2.59 2.591,2.59 1.43,0 2.59,-1.159 2.59,-2.59 0,-1.431 -1.16,-2.59 -2.59,-2.59 z"
     id="path54" /><path
     style="fill:#cf1f25"
     d="m 219.698,187.609 c 1.43,0 2.59,-1.159 2.59,-2.59 0,-1.431 -1.16,-2.59 -2.59,-2.59 -1.43,0 -2.59,1.159 -2.59,2.59 0,1.431 1.161,2.59 2.59,2.59 z"
     id="path56" /><path
     style="fill:#cf1f25"
     d="m 222.241,178.274 c 1.43,0 2.59,-1.16 2.59,-2.591 0,-1.431 -1.16,-2.59 -2.59,-2.59 -1.431,0 -2.59,1.159 -2.59,2.59 0,1.431 1.16,2.591 2.59,2.591 z"
     id="path58" /><path
     style="fill:#cf1f25"
     d="m 227.434,170.491 c 1.43,0 2.59,-1.16 2.59,-2.59 0,-1.431 -1.16,-2.591 -2.59,-2.591 -1.431,0 -2.59,1.16 -2.59,2.591 0,1.43 1.159,2.59 2.59,2.59 z"
     id="path60" /><circle
     style="fill:#cf1f25"
     cx="234.246"
     cy="162.45599"
     r="2.5899999"
     id="circle62" /><path
     style="fill:#cf1f25"
     d="m 251.683,161.284 c 1.43,0 2.59,-1.159 2.59,-2.59 0,-1.431 -1.16,-2.591 -2.59,-2.591 -1.43,0 -2.59,1.16 -2.59,2.591 0,1.431 1.16,2.59 2.59,2.59 z"
     id="path64" /><path
     style="fill:#cf1f25"
     d="m 242.165,161.906 c 1.43,0 2.59,-1.16 2.59,-2.59 0,-1.432 -1.16,-2.591 -2.59,-2.591 -1.431,0 -2.59,1.159 -2.59,2.591 0,1.43 1.159,2.59 2.59,2.59 z"
     id="path66" /><path
     style="fill:#cf1f25"
     d="m 269.968,149.093 c 1.43,0 2.591,-1.159 2.591,-2.59 0,-1.431 -1.161,-2.591 -2.591,-2.591 -1.43,0 -2.59,1.16 -2.59,2.591 0,1.431 1.16,2.59 2.59,2.59 z"
     id="path68" /><path
     style="fill:#cf1f25"
     d="m 294.868,140.236 c 1.43,0 2.59,-1.16 2.59,-2.59 0,-1.431 -1.16,-2.591 -2.59,-2.591 -1.431,0 -2.59,1.16 -2.59,2.591 0,1.43 1.16,2.59 2.59,2.59 z"
     id="path70" /><path
     style="fill:#cf1f25"
     d="m 285.856,140.466 c 1.43,0 2.59,-1.159 2.59,-2.59 0,-1.431 -1.16,-2.591 -2.59,-2.591 -1.431,0 -2.59,1.16 -2.59,2.591 10e-4,1.431 1.16,2.59 2.59,2.59 z"
     id="path72" /><path
     style="fill:#cf1f25"
     d="m 277.144,143.613 c 1.43,0 2.59,-1.159 2.59,-2.59 0,-1.431 -1.16,-2.59 -2.59,-2.59 -1.431,0 -2.59,1.159 -2.59,2.59 0,1.431 1.159,2.59 2.59,2.59 z"
     id="path74" /><path
     style="fill:#cf1f25"
     d="m 222.813,195.729 c 0,-1.431 -1.16,-2.591 -2.59,-2.591 -1.431,0 -2.59,1.16 -2.59,2.591 0,1.431 1.159,2.59 2.59,2.59 1.429,-10e-4 2.59,-1.16 2.59,-2.59 z"
     id="path76" /><path
     style="fill:#cf1f25"
     d="m 222.785,208.096 c 1.43,0 2.59,-1.16 2.59,-2.59 0,-1.432 -1.16,-2.591 -2.59,-2.591 -1.431,0 -2.59,1.159 -2.59,2.591 0,1.43 1.159,2.59 2.59,2.59 z"
     id="path78" /><path
     style="fill:#cf1f25"
     d="m 226.289,216.947 c 1.43,0 2.59,-1.16 2.59,-2.59 0,-1.432 -1.16,-2.591 -2.59,-2.591 -1.43,0 -2.59,1.159 -2.59,2.591 0,1.43 1.16,2.59 2.59,2.59 z"
     id="path80" /><path
     style="fill:#cf1f25"
     d="m 230.597,224.51 c 1.43,0 2.59,-1.16 2.59,-2.591 0,-1.431 -1.16,-2.59 -2.59,-2.59 -1.431,0 -2.59,1.159 -2.59,2.59 0,1.431 1.159,2.591 2.59,2.591 z"
     id="path82" /><path
     style="fill:#cf1f25"
     d="m 235.352,231.358 c 1.43,0 2.59,-1.159 2.59,-2.59 0,-1.431 -1.16,-2.59 -2.59,-2.59 -1.431,0 -2.59,1.159 -2.59,2.59 0.001,1.431 1.16,2.59 2.59,2.59 z"
     id="path84" /><path
     style="fill:#cf1f25"
     d="m 254.634,254.482 c 16.359,-6.484 34.193,-10.051 52.867,-10.051 18.674,0 36.507,3.566 52.865,10.051 l 2.055,-5.186 c -5.282,-2.094 -10.713,-3.895 -16.271,-5.382 l 10.202,-3.626 -7.06,-8.286 -10.259,3.646 7.022,8.24 c -12.298,-3.284 -25.222,-5.035 -38.555,-5.035 -13.333,0 -26.257,1.751 -38.555,5.034 l 7.022,-8.239 -10.258,-3.646 -7.062,8.286 10.203,3.625 c -5.559,1.488 -10.989,3.288 -16.271,5.382 z"
     id="path86" /><path
     style="fill:#cf1f25"
     d="m 248.03,237.808 c 14.247,-5.646 29.491,-9.315 45.395,-10.69 l -8.391,6.933 9.469,5.371 8.393,-6.934 -9.466,-5.37 c 4.638,-0.4 9.328,-0.615 14.069,-0.616 4.742,10e-4 9.433,0.216 14.07,0.616 l -9.467,5.37 8.394,6.934 9.47,-5.371 -8.391,-6.933 c 15.902,1.375 31.147,5.044 45.395,10.691 l 2.055,-5.188 c -19.041,-7.547 -39.798,-11.698 -61.525,-11.699 -21.727,0.001 -42.483,4.152 -61.524,11.699 z"
     id="path88" /><path
     style="fill:#cf1f25"
     d="m 219.757,490.517 h 10.811 c -4.849,-3.643 -9.434,-7.621 -13.717,-11.902 -23.202,-23.21 -37.544,-55.236 -37.546,-90.647 0.002,-35.411 14.344,-67.439 37.546,-90.648 10.403,-10.4 22.582,-19.013 36.039,-25.358 h -14.398 c -39.498,23.546 -65.96,66.682 -65.961,116.007 0,41.039 18.321,77.795 47.226,102.548 z"
     id="path90" /><path
     style="fill:#cf1f25"
     d="m 384.431,490.517 h 10.813 c 28.904,-24.754 47.226,-61.51 47.228,-102.55 -0.003,-49.325 -26.465,-92.461 -65.962,-116.007 h -14.399 c 13.458,6.346 25.635,14.958 36.039,25.358 23.203,23.21 37.545,55.237 37.547,90.648 -0.002,35.411 -14.344,67.438 -37.547,90.647 -4.285,4.283 -8.87,8.261 -13.719,11.904 z"
     id="path92" /><path
     style="fill:#ffffff"
     d="m 239.072,619.129 6.744,17.407 c -1.244,0.354 -2.395,0.704 -3.479,1.045 l -7.023,-18.131 c 0.443,-0.421 0.896,-0.788 1.345,-1.107 0.801,0.265 1.606,0.528 2.413,0.786 z"
     id="path94" /><path
     style="fill:#ffffff"
     d="m 372.271,663.127 c -1.003,2.65 -1.765,4.349 -2.37,4.981 -0.304,0.332 -0.512,0.479 -0.915,0.64 -0.401,0.153 -1.054,0.283 -2.083,0.281 -3.56,0.043 -10.35,-1.772 -20.087,-3.662 -9.782,-1.878 -22.691,-3.764 -39.316,-3.764 -16.626,0 -29.537,1.886 -39.316,3.764 -9.737,1.89 -16.528,3.705 -20.088,3.662 -1.028,0.002 -1.681,-0.128 -2.083,-0.281 -0.577,-0.243 -0.84,-0.443 -1.398,-1.313 -0.53,-0.856 -1.126,-2.33 -1.886,-4.309 l -6.718,-17.339 c 7.001,-2.94 30.335,-11.221 71.488,-11.224 25.213,0 43.736,3.111 55.917,6.195 6.09,1.543 10.593,3.079 13.554,4.218 0.782,0.301 1.449,0.572 2.018,0.81 z"
     id="path96" /><path
     style="fill:#cf1f25"
     d="m 284.053,657.938 -0.379,0.034 c -0.104,0.009 -0.229,0.015 -0.375,0.015 -0.171,0 -0.37,-0.006 -0.601,-0.02 -0.421,-0.023 -0.718,-0.074 -0.823,-0.114 -0.311,-0.108 -0.481,-0.243 -0.56,-0.359 -0.101,-0.151 -0.183,-0.366 -0.222,-0.658 l -2.026,-14.75 c -0.015,-0.101 -0.021,-0.193 -0.021,-0.284 0,-0.16 0.021,-0.312 0.06,-0.461 0.046,-0.163 0.141,-0.286 0.39,-0.416 0.157,-0.08 0.435,-0.19 0.814,-0.319 0.375,-0.127 0.692,-0.211 0.937,-0.254 l 0.381,-0.066 -0.249,-1.799 -9.513,1.306 0.247,1.798 0.38,-0.035 c 0.061,-0.006 0.139,-0.007 0.229,-0.007 0.201,0 0.435,0.014 0.697,0.044 0.375,0.041 0.69,0.104 0.943,0.182 0.273,0.084 0.433,0.202 0.538,0.354 0.127,0.185 0.207,0.393 0.241,0.644 l 0.798,5.806 -9.09,1.248 -0.816,-5.948 c -0.016,-0.101 -0.02,-0.194 -0.02,-0.285 0,-0.16 0.02,-0.313 0.059,-0.46 0.048,-0.162 0.142,-0.286 0.389,-0.416 0.157,-0.08 0.437,-0.191 0.815,-0.319 0.377,-0.128 0.691,-0.211 0.936,-0.254 l 0.381,-0.064 -0.249,-1.802 -9.511,1.307 0.246,1.798 0.38,-0.036 c 0.061,-0.005 0.14,-0.007 0.229,-0.007 0.201,0 0.434,0.014 0.699,0.045 0.373,0.04 0.689,0.104 0.941,0.185 0.275,0.083 0.433,0.2 0.538,0.351 0.127,0.184 0.207,0.392 0.243,0.644 l 2.027,14.765 c 0.014,0.103 0.022,0.203 0.022,0.291 0,0.186 -0.029,0.331 -0.077,0.445 -0.07,0.164 -0.186,0.295 -0.406,0.42 -0.089,0.062 -0.371,0.167 -0.794,0.262 -0.444,0.099 -0.783,0.175 -1.016,0.225 l -0.359,0.078 0.244,1.784 9.514,-1.307 -0.247,-1.796 -0.377,0.034 c -0.104,0.008 -0.23,0.016 -0.377,0.016 -0.17,0 -0.37,-0.008 -0.6,-0.021 -0.422,-0.024 -0.719,-0.075 -0.824,-0.114 -0.31,-0.109 -0.48,-0.244 -0.558,-0.359 -0.103,-0.152 -0.183,-0.367 -0.224,-0.659 l -0.924,-6.728 9.09,-1.25 0.946,6.887 c 0.014,0.104 0.02,0.202 0.02,0.293 0,0.186 -0.028,0.331 -0.074,0.445 -0.07,0.162 -0.186,0.295 -0.406,0.419 -0.089,0.062 -0.372,0.167 -0.795,0.26 -0.445,0.101 -0.782,0.177 -1.017,0.227 l -0.357,0.079 0.244,1.783 9.514,-1.307 -0.055,-0.394 z"
     id="path98" /><path
     style="fill:#cf1f25"
     d="m 293.901,655.609 c -0.455,-0.402 -1.013,-0.617 -1.609,-0.613 -0.057,0 -0.105,0.002 -0.146,0.005 -0.653,0.031 -1.239,0.311 -1.681,0.795 -0.414,0.443 -0.641,0.996 -0.638,1.591 0,0.044 0.002,0.092 0.005,0.138 0.031,0.639 0.32,1.217 0.82,1.635 0.448,0.385 0.998,0.593 1.586,0.593 0.005,0 0.01,0 0.015,0 0.043,0 0.092,0 0.15,-0.004 0.649,-0.03 1.233,-0.301 1.677,-0.775 0.416,-0.438 0.645,-0.988 0.641,-1.58 0,-0.044 -10e-4,-0.088 -0.003,-0.135 -0.03,-0.646 -0.321,-1.223 -0.817,-1.65 z"
     id="path100" /><path
     style="fill:#cf1f25"
     d="m 312.381,639.435 0.366,0.034 c 0.339,0.031 0.675,0.072 1.006,0.121 0.32,0.048 0.634,0.119 0.944,0.213 0.302,0.098 0.533,0.215 0.688,0.331 0.123,0.101 0.136,0.144 0.144,0.237 v 0.007 c -0.002,0.174 -0.029,0.435 -0.084,0.762 -0.044,0.278 -0.235,0.886 -0.567,1.754 -0.343,0.901 -1.02,2.577 -2.023,5.015 -0.838,2.036 -1.594,3.845 -2.269,5.428 -1.327,-3.534 -2.365,-6.294 -3.112,-8.279 -0.812,-2.158 -1.397,-3.713 -1.761,-4.667 -0.019,-0.06 -0.052,-0.171 -0.089,-0.311 -0.03,-0.112 -0.042,-0.2 -0.044,-0.259 0,-0.008 0,-0.012 0,-0.012 v -0.002 c 0.015,-0.021 0.135,-0.117 0.455,-0.176 0.485,-0.098 1.098,-0.165 1.832,-0.197 l 0.377,-0.018 0.014,-1.809 -9.574,-0.071 -0.014,1.804 0.372,0.028 c 0.249,0.018 0.529,0.069 0.84,0.148 0.293,0.075 0.553,0.186 0.784,0.329 0.3,0.189 0.53,0.384 0.695,0.576 0.167,0.194 0.302,0.418 0.404,0.682 0.467,1.221 1.357,3.581 2.666,7.072 1.311,3.493 2.667,7.122 4.075,10.888 l 0.095,0.256 1.787,0.013 0.1,-0.249 c 1.443,-3.53 2.842,-6.921 4.202,-10.175 1.358,-3.254 2.378,-5.648 3.054,-7.183 0.193,-0.414 0.389,-0.775 0.585,-1.072 0.173,-0.267 0.397,-0.481 0.688,-0.654 0.199,-0.121 0.471,-0.232 0.815,-0.322 0.349,-0.095 0.637,-0.141 0.853,-0.147 l 0.382,-0.013 0.003,-0.383 0.007,-1.034 0.002,-0.398 -8.685,-0.063 z"
     id="path102" /><path
     style="fill:#cf1f25"
     d="m 327.351,655.284 c -0.065,-0.009 -0.136,-0.009 -0.191,-0.009 -0.58,-0.002 -1.126,0.204 -1.575,0.586 -0.503,0.42 -0.802,0.992 -0.844,1.633 -0.006,0.059 -0.007,0.122 -0.007,0.18 -0.002,0.575 0.215,1.115 0.614,1.55 0.436,0.481 1.017,0.76 1.664,0.803 0.065,0.004 0.125,0.005 0.194,0.005 0.005,0 0.011,0 0.015,0 0.569,0 1.106,-0.196 1.552,-0.565 0.507,-0.41 0.807,-0.981 0.848,-1.623 l -0.396,-0.027 0.398,0.018 c 0.001,-0.053 0.005,-0.107 0.005,-0.171 0.002,-0.575 -0.215,-1.116 -0.61,-1.557 -0.434,-0.493 -1.016,-0.781 -1.667,-0.823 z"
     id="path104" /><path
     style="fill:#cf1f25"
     d="m 349.746,640.74 -0.261,1.778 0.356,0.084 c 0.332,0.078 0.66,0.165 0.98,0.261 0.309,0.092 0.61,0.206 0.905,0.342 0.287,0.139 0.5,0.285 0.637,0.422 0.092,0.098 0.105,0.149 0.108,0.217 0,0.025 -10e-4,0.04 -10e-4,0.044 -0.026,0.176 -0.089,0.428 -0.189,0.743 -0.082,0.269 -0.356,0.846 -0.807,1.659 -0.466,0.846 -1.366,2.411 -2.699,4.685 -1.113,1.899 -2.115,3.586 -3.004,5.06 -0.823,-3.685 -1.466,-6.561 -1.93,-8.632 -0.502,-2.249 -0.867,-3.872 -1.094,-4.867 -0.011,-0.063 -0.028,-0.177 -0.044,-0.32 -0.012,-0.073 -0.015,-0.128 -0.015,-0.177 0,-0.036 0.003,-0.067 0.007,-0.096 v -10e-4 c 0.013,-0.017 0.143,-0.099 0.476,-0.112 0.147,-0.012 0.306,-0.015 0.479,-0.015 0.395,0 0.852,0.025 1.363,0.073 l 0.377,0.036 0.264,-1.791 -9.472,-1.4 -0.265,1.78 0.364,0.081 c 0.245,0.055 0.518,0.143 0.813,0.265 0.28,0.116 0.52,0.26 0.728,0.438 0.272,0.228 0.475,0.452 0.612,0.666 0.137,0.213 0.238,0.455 0.303,0.73 0.294,1.274 0.847,3.734 1.658,7.376 0.81,3.641 1.65,7.423 2.52,11.349 l 0.059,0.268 1.767,0.259 0.136,-0.231 c 1.919,-3.295 3.777,-6.46 5.576,-9.491 1.799,-3.033 3.139,-5.264 4.024,-6.687 0.248,-0.385 0.494,-0.714 0.728,-0.983 0.208,-0.24 0.458,-0.421 0.772,-0.553 0.215,-0.09 0.498,-0.161 0.853,-0.204 0.222,-0.03 0.416,-0.042 0.587,-0.042 0.102,0 0.192,0.005 0.272,0.015 l 0.386,0.046 0.056,-0.384 0.21,-1.418 z"
     id="path106" /><path
     style="fill:#ffffff"
     d="m 91.34,522.188 c 0,-0.123 0.002,-0.235 0.004,-0.353 l 8.482,-7.36 c 0.351,0.5 0.738,1.042 1.153,1.618 l -9.52,8.261 c -0.07,-0.699 -0.119,-1.415 -0.119,-2.166 z"
     id="path108" /><path
     style="fill:#ffffff"
     d="m 94.122,532.275 c -0.666,-1.093 -1.232,-2.253 -1.679,-3.501 l 10.9,-9.458 c 0.699,0.935 1.459,1.935 2.269,2.987 z"
     id="path110" /><path
     style="fill:#ffffff"
     d="m 96.49,535.495 11.582,-10.051 c 0.774,0.975 1.587,1.983 2.439,3.027 l -11.334,9.834 c -0.949,-0.906 -1.851,-1.837 -2.687,-2.81 z"
     id="path112" /><path
     style="fill:#ffffff"
     d="m 103.378,542.063 c -0.41,-0.356 -0.819,-0.709 -1.226,-1.063 l 10.902,-9.46 c 0.813,0.967 1.659,1.959 2.532,2.971 l -10.457,9.075 c -0.586,-0.516 -1.172,-1.023 -1.751,-1.523 z"
     id="path114" /><path
     style="fill:#ffffff"
     d="m 108.072,546.308 10.137,-8.795 c 0.76,0.858 1.537,1.728 2.337,2.61 l -10.082,8.748 c -0.755,-0.891 -1.559,-1.742 -2.392,-2.563 z"
     id="path116" /><path
     style="fill:#ffffff"
     d="m 114.851,556.623 c -0.478,-1.624 -1.18,-3.12 -2.032,-4.519 l 10.422,-9.044 c 1.053,1.134 2.146,2.288 3.262,3.451 z"
     id="path118" /><path
     style="fill:#ffffff"
     d="m 500.148,556.623 -11.65,-10.11 c 1.115,-1.164 2.208,-2.318 3.262,-3.452 l 10.421,9.044 c -0.853,1.398 -1.554,2.894 -2.033,4.518 z"
     id="path120" /><path
     style="fill:#ffffff"
     d="m 504.535,548.872 -10.081,-8.748 c 0.8,-0.883 1.577,-1.752 2.337,-2.611 l 10.136,8.796 c -0.832,0.82 -1.637,1.671 -2.392,2.563 z"
     id="path122" /><path
     style="fill:#ffffff"
     d="m 511.621,542.063 c -0.579,0.5 -1.165,1.008 -1.752,1.523 l -10.457,-9.074 c 0.873,-1.013 1.721,-2.005 2.533,-2.972 l 10.901,9.46 c -0.406,0.354 -0.814,0.707 -1.225,1.063 z"
     id="path124" /><path
     style="fill:#ffffff"
     d="m 515.821,538.306 -11.333,-9.834 c 0.853,-1.044 1.664,-2.053 2.439,-3.027 l 11.583,10.051 c -0.836,0.972 -1.739,1.903 -2.689,2.81 z"
     id="path126" /><path
     style="fill:#ffffff"
     d="m 520.878,532.275 -11.491,-9.973 c 0.811,-1.051 1.57,-2.052 2.269,-2.986 l 10.901,9.458 c -0.447,1.248 -1.014,2.409 -1.679,3.501 z"
     id="path128" /><path
     style="fill:#ffffff"
     d="m 523.539,524.354 -9.52,-8.261 c 0.415,-0.576 0.802,-1.118 1.154,-1.618 l 8.483,7.36 c 0.001,0.117 0.004,0.229 0.004,0.353 0,0.751 -0.05,1.467 -0.121,2.166 z"
     id="path130" /><path
     style="fill:#ffffff"
     d="m 510.006,512.121 c -2.275,3.192 -5.688,7.765 -10.196,13.262 -9.02,10.99 -22.44,25.665 -39.974,40.323 -35.092,29.332 -86.533,58.546 -152.336,58.543 -65.804,0.003 -117.244,-29.211 -152.336,-58.543 -17.534,-14.658 -30.954,-29.333 -39.975,-40.323 -4.509,-5.497 -7.92,-10.07 -10.195,-13.262 -0.85,-1.19 -1.541,-2.187 -2.072,-2.969 l 21.259,-18.448 c 2.742,-2.389 4.565,-3.935 5.957,-4.745 1.403,-0.8 2.289,-1.053 4.168,-1.079 4.332,0.015 7.414,1.012 10.223,2.812 4.202,2.684 7.814,7.573 12.274,13.987 4.473,6.392 9.828,14.188 17.888,22.35 21.434,21.663 71.159,55.894 132.81,55.948 61.649,-0.054 111.375,-34.285 132.81,-55.948 8.059,-8.161 13.415,-15.957 17.887,-22.35 4.461,-6.414 8.073,-11.303 12.274,-13.987 2.809,-1.8 5.891,-2.797 10.224,-2.812 1.879,0.026 2.765,0.279 4.168,1.079 1.392,0.811 3.214,2.357 5.956,4.745 l 21.259,18.448 c -0.533,0.782 -1.225,1.779 -2.073,2.969 z"
     id="path132" /><path
     style="fill:#cf1f25"
     d="m 137.407,541.495 -10.378,-11.539 1.35,-1.214 c 0.248,0.23 0.612,0.564 1.092,1.005 0.479,0.44 0.846,0.709 1.101,0.806 0.506,0.216 0.964,0.268 1.373,0.153 0.408,-0.114 0.832,-0.368 1.271,-0.762 l 8.461,-7.609 -8.2,-9.117 -8.27,7.438 c -0.393,0.352 -0.679,0.742 -0.859,1.167 -0.181,0.426 -0.2,0.892 -0.057,1.398 0.079,0.273 0.274,0.688 0.585,1.242 0.312,0.555 0.586,0.988 0.824,1.3 l -1.35,1.214 -10.378,-11.539 1.35,-1.214 c 0.237,0.24 0.606,0.575 1.107,1.004 0.501,0.43 0.896,0.713 1.188,0.851 0.475,0.227 0.928,0.272 1.359,0.139 0.432,-0.135 0.856,-0.389 1.272,-0.763 l 17.37,-15.622 c 0.403,-0.363 0.688,-0.733 0.852,-1.107 0.164,-0.374 0.174,-0.851 0.029,-1.428 -0.111,-0.426 -0.318,-0.93 -0.621,-1.509 -0.303,-0.581 -0.538,-0.986 -0.704,-1.219 l 1.35,-1.213 10.378,11.539 -1.35,1.214 c -0.303,-0.29 -0.694,-0.61 -1.174,-0.958 -0.48,-0.348 -0.865,-0.602 -1.153,-0.76 -0.502,-0.256 -0.973,-0.3 -1.414,-0.129 -0.442,0.17 -0.848,0.422 -1.216,0.753 l -7.336,6.598 8.199,9.117 7.163,-6.442 c 0.403,-0.362 0.686,-0.734 0.845,-1.113 0.159,-0.379 0.167,-0.857 0.022,-1.435 -0.096,-0.386 -0.279,-0.851 -0.551,-1.396 -0.271,-0.546 -0.507,-0.964 -0.706,-1.256 l 1.349,-1.214 10.379,11.539 -1.35,1.214 c -0.313,-0.3 -0.687,-0.618 -1.122,-0.951 -0.436,-0.334 -0.855,-0.609 -1.259,-0.826 -0.493,-0.247 -0.96,-0.289 -1.4,-0.129 -0.439,0.159 -0.851,0.411 -1.23,0.753 l -17.388,15.638 c -0.415,0.374 -0.709,0.756 -0.88,1.145 -0.171,0.391 -0.184,0.864 -0.036,1.422 0.101,0.345 0.311,0.785 0.629,1.325 0.317,0.54 0.597,0.965 0.835,1.276 z"
     id="path134" /><path
     style="fill:#cf1f25"
     d="m 185.833,544.977 c 0.125,2.052 -0.174,4.151 -0.897,6.3 -0.723,2.148 -1.953,4.255 -3.691,6.321 -1.548,1.84 -3.289,3.365 -5.224,4.575 -1.935,1.211 -3.912,1.99 -5.933,2.338 -2.112,0.352 -4.178,0.271 -6.196,-0.24 -2.019,-0.513 -4.02,-1.603 -6.001,-3.271 -1.601,-1.346 -2.858,-2.921 -3.773,-4.725 -0.915,-1.803 -1.431,-3.737 -1.546,-5.8 -0.125,-2.031 0.177,-4.118 0.905,-6.263 0.729,-2.143 1.927,-4.207 3.595,-6.189 1.737,-2.065 3.619,-3.681 5.648,-4.844 2.026,-1.163 4.081,-1.893 6.163,-2.188 2.052,-0.281 4.075,-0.125 6.07,0.468 1.995,0.594 3.818,1.586 5.47,2.976 1.642,1.381 2.923,2.985 3.844,4.813 0.919,1.83 1.442,3.739 1.566,5.729 z m -19.194,14.74 c 1.375,-0.691 2.74,-1.634 4.097,-2.827 1.356,-1.193 2.761,-2.652 4.211,-4.377 1.23,-1.462 2.337,-2.962 3.321,-4.499 0.984,-1.536 1.715,-3.028 2.192,-4.476 0.466,-1.455 0.607,-2.818 0.425,-4.088 -0.184,-1.271 -0.821,-2.366 -1.916,-3.287 -1.868,-1.572 -4.146,-1.746 -6.83,-0.523 -2.686,1.224 -5.594,3.695 -8.725,7.416 -1.33,1.582 -2.479,3.163 -3.448,4.744 -0.968,1.581 -1.666,3.085 -2.091,4.514 -0.426,1.448 -0.53,2.767 -0.313,3.954 0.217,1.188 0.847,2.221 1.89,3.098 1.021,0.86 2.148,1.301 3.382,1.322 1.233,0.022 2.501,-0.301 3.805,-0.971 z"
     id="path136" /><path
     style="fill:#cf1f25"
     d="m 218.965,566.638 c 0.447,2.006 0.482,4.127 0.107,6.362 -0.376,2.235 -1.259,4.511 -2.648,6.824 -1.238,2.061 -2.718,3.842 -4.438,5.343 -1.72,1.5 -3.55,2.581 -5.489,3.243 -2.03,0.681 -4.083,0.927 -6.157,0.739 -2.074,-0.189 -4.222,-0.948 -6.441,-2.282 -1.793,-1.077 -3.282,-2.434 -4.471,-4.071 -1.188,-1.637 -2.002,-3.464 -2.441,-5.483 -0.443,-1.985 -0.475,-4.095 -0.093,-6.327 0.381,-2.232 1.238,-4.459 2.573,-6.679 1.39,-2.315 2.994,-4.205 4.813,-5.674 1.818,-1.468 3.732,-2.512 5.742,-3.133 1.981,-0.601 4.004,-0.765 6.067,-0.493 2.063,0.272 4.02,0.963 5.87,2.074 1.839,1.104 3.357,2.487 4.555,4.148 1.197,1.661 2.014,3.463 2.451,5.409 z m -16.63,17.581 c 1.248,-0.898 2.448,-2.045 3.6,-3.438 1.151,-1.393 2.308,-3.055 3.468,-4.986 0.984,-1.637 1.841,-3.293 2.57,-4.966 0.73,-1.673 1.217,-3.261 1.459,-4.766 0.232,-1.511 0.156,-2.879 -0.225,-4.104 -0.382,-1.226 -1.185,-2.207 -2.41,-2.943 -2.093,-1.257 -4.369,-1.07 -6.828,0.561 -2.459,1.631 -4.941,4.531 -7.445,8.699 -1.064,1.772 -1.95,3.514 -2.657,5.229 -0.707,1.713 -1.158,3.309 -1.354,4.786 -0.191,1.498 -0.087,2.815 0.314,3.954 0.402,1.14 1.187,2.06 2.354,2.761 1.146,0.688 2.328,0.945 3.549,0.772 1.221,-0.173 2.423,-0.692 3.605,-1.559 z"
     id="path138" /><path
     style="fill:#cf1f25"
     d="m 254.742,598.629 c -0.408,-0.102 -0.775,-0.179 -1.101,-0.232 -0.325,-0.054 -0.748,-0.078 -1.268,-0.071 -0.589,-0.003 -1.046,0.185 -1.372,0.561 -0.325,0.375 -0.576,0.804 -0.754,1.283 l -1.33,3.603 c -0.269,0.728 -0.479,1.315 -0.629,1.765 -0.151,0.448 -0.335,1.005 -0.552,1.668 -1.588,0.406 -3.761,0.539 -6.52,0.396 -2.759,-0.142 -5.176,-0.596 -7.251,-1.361 -1.949,-0.72 -3.651,-1.737 -5.107,-3.052 -1.456,-1.315 -2.576,-2.896 -3.361,-4.741 -0.791,-1.83 -1.186,-3.887 -1.185,-6.171 0.002,-2.282 0.481,-4.72 1.439,-7.311 0.892,-2.418 2.065,-4.524 3.52,-6.321 1.453,-1.797 3.112,-3.194 4.977,-4.193 1.833,-0.995 3.824,-1.55 5.975,-1.666 2.149,-0.117 4.351,0.24 6.604,1.072 1.53,0.565 2.867,1.307 4.01,2.224 1.143,0.918 2.046,1.781 2.711,2.589 l 1.62,-0.767 1.651,0.61 -4.003,11.369 -1.671,-0.616 c 0.293,-3.752 0.073,-6.701 -0.66,-8.845 -0.733,-2.143 -2.125,-3.593 -4.175,-4.35 -2.43,-0.897 -4.758,-0.366 -6.982,1.593 -2.226,1.959 -4.132,5.086 -5.718,9.382 -1.683,4.559 -2.352,8.366 -2.006,11.423 0.346,3.058 1.708,5.024 4.087,5.902 1.113,0.411 2.175,0.584 3.185,0.518 1.009,-0.065 1.848,-0.265 2.517,-0.597 l 2.321,-6.287 c 0.193,-0.523 0.273,-0.993 0.24,-1.411 -0.033,-0.417 -0.248,-0.848 -0.645,-1.292 -0.305,-0.344 -0.717,-0.687 -1.238,-1.027 -0.52,-0.342 -0.961,-0.611 -1.318,-0.81 l 0.628,-1.702 13.989,5.164 z"
     id="path140" /><path
     style="fill:#cf1f25"
     d="m 273.909,616.823 c -1.731,-0.281 -3.306,-0.793 -4.722,-1.534 -1.417,-0.741 -2.59,-1.533 -3.519,-2.376 l -1.64,1.384 -1.698,-0.276 1.658,-11.824 1.718,0.279 c 0.203,1.183 0.504,2.444 0.9,3.785 0.397,1.341 0.908,2.565 1.534,3.676 0.645,1.16 1.417,2.144 2.317,2.952 0.9,0.808 2.022,1.321 3.368,1.541 1.811,0.294 3.281,0.011 4.412,-0.851 1.132,-0.861 1.823,-2.066 2.075,-3.614 0.207,-1.272 -0.028,-2.407 -0.707,-3.407 -0.678,-0.998 -1.824,-1.953 -3.439,-2.862 -1.051,-0.598 -2.017,-1.149 -2.898,-1.655 -0.881,-0.507 -1.704,-1.012 -2.469,-1.516 -1.763,-1.184 -2.974,-2.664 -3.635,-4.438 -0.661,-1.776 -0.828,-3.668 -0.501,-5.677 0.208,-1.273 0.647,-2.456 1.316,-3.551 0.67,-1.095 1.541,-2.034 2.611,-2.82 1.021,-0.731 2.262,-1.261 3.724,-1.59 1.461,-0.328 2.997,-0.361 4.607,-0.1 1.571,0.257 3.002,0.748 4.291,1.477 1.288,0.728 2.285,1.409 2.988,2.042 l 1.442,-1.179 1.737,0.282 -1.649,11.142 -1.717,-0.279 c -0.205,-1.262 -0.476,-2.563 -0.811,-3.901 -0.336,-1.338 -0.735,-2.471 -1.2,-3.396 -0.507,-0.996 -1.145,-1.829 -1.91,-2.497 -0.766,-0.668 -1.722,-1.096 -2.866,-1.282 -1.438,-0.233 -2.69,0.043 -3.753,0.83 -1.064,0.787 -1.709,1.87 -1.934,3.251 -0.212,1.304 0.011,2.434 0.668,3.391 0.657,0.957 1.773,1.887 3.349,2.789 0.923,0.544 1.865,1.09 2.828,1.64 0.963,0.551 1.815,1.067 2.557,1.55 1.791,1.173 3.066,2.597 3.825,4.271 0.76,1.673 0.957,3.629 0.593,5.867 -0.229,1.411 -0.738,2.728 -1.524,3.954 -0.787,1.226 -1.738,2.196 -2.853,2.912 -1.222,0.793 -2.575,1.336 -4.058,1.629 -1.478,0.29 -3.152,0.285 -5.015,-0.019 z"
     id="path142" /><path
     style="fill:#cf1f25"
     d="m 325.62,594.693 -1.576,0.035 c -0.45,-1.401 -1.153,-2.898 -2.111,-4.491 -0.958,-1.591 -1.83,-2.44 -2.613,-2.547 -0.431,-0.052 -0.965,-0.095 -1.597,-0.127 -0.634,-0.032 -1.18,-0.043 -1.638,-0.032 l -0.947,0.021 0.585,25.892 c 0.013,0.559 0.112,1.05 0.296,1.472 0.186,0.423 0.537,0.753 1.056,0.988 0.313,0.134 0.798,0.266 1.455,0.398 0.658,0.133 1.217,0.225 1.676,0.275 l 0.042,1.815 -16.001,0.361 -0.041,-1.815 c 0.39,-0.056 0.938,-0.134 1.644,-0.235 0.706,-0.101 1.186,-0.216 1.439,-0.346 0.52,-0.26 0.863,-0.602 1.029,-1.024 0.166,-0.423 0.242,-0.922 0.23,-1.495 l -0.591,-26.124 -0.948,0.021 c -0.458,0.011 -1.003,0.046 -1.634,0.107 -0.631,0.061 -1.161,0.127 -1.59,0.199 -0.778,0.142 -1.609,1.029 -2.495,2.662 -0.885,1.635 -1.521,3.162 -1.905,4.583 l -1.577,0.035 -0.214,-9.445 27.814,-0.629 z"
     id="path144" /><path
     style="fill:#cf1f25"
     d="m 370.921,609.541 -10.746,2.435 c -2.595,-2.849 -4.725,-5.102 -6.392,-6.76 -1.669,-1.658 -3.703,-3.552 -6.106,-5.679 l -1.082,0.245 2.215,9.78 c 0.123,0.545 0.317,0.987 0.581,1.324 0.263,0.338 0.674,0.579 1.232,0.724 0.276,0.065 0.697,0.101 1.259,0.108 0.561,0.008 1.038,-0.009 1.431,-0.05 l 0.401,1.77 -14.94,3.384 -0.401,-1.771 c 0.372,-0.131 0.861,-0.31 1.467,-0.534 0.606,-0.225 1.027,-0.427 1.264,-0.608 0.445,-0.355 0.71,-0.737 0.797,-1.147 0.087,-0.409 0.066,-0.902 -0.064,-1.477 l -5.146,-22.716 c -0.123,-0.545 -0.299,-0.982 -0.525,-1.313 -0.228,-0.329 -0.647,-0.568 -1.261,-0.716 -0.468,-0.101 -1.001,-0.155 -1.603,-0.161 -0.604,-0.007 -1.077,-0.003 -1.42,0.011 l -0.399,-1.769 15.708,-3.559 c 3.513,-0.795 6.322,-0.768 8.431,0.083 2.109,0.851 3.452,2.554 4.031,5.111 0.511,2.254 0.358,4.192 -0.456,5.816 -0.813,1.625 -2.286,3.083 -4.414,4.376 1.197,1.129 2.589,2.435 4.178,3.921 1.588,1.486 3.234,2.998 4.937,4.536 0.541,0.498 1.262,1.095 2.158,1.79 0.898,0.695 1.639,1.08 2.223,1.154 0.327,0.037 0.731,0.041 1.216,0.011 0.485,-0.03 0.826,-0.06 1.027,-0.089 z m -18.862,-20.898 c -0.486,-2.149 -1.365,-3.601 -2.636,-4.354 -1.27,-0.754 -2.871,-0.912 -4.806,-0.474 l -1.56,0.353 3.054,13.48 1.5,-0.34 c 1.934,-0.438 3.302,-1.359 4.103,-2.767 0.802,-1.405 0.917,-3.372 0.345,-5.898 z"
     id="path146" /><path
     style="fill:#cf1f25"
     d="m 409.761,592.951 -14.283,6.373 -0.739,-1.657 c 0.638,-0.352 1.356,-0.839 2.156,-1.46 0.799,-0.62 1.127,-1.092 0.982,-1.418 -0.05,-0.114 -0.117,-0.237 -0.198,-0.371 -0.082,-0.133 -0.22,-0.301 -0.414,-0.503 l -5.024,-5.249 -9.052,4.039 c 0.051,0.674 0.124,1.456 0.221,2.347 0.097,0.892 0.19,1.683 0.278,2.374 0.122,0.896 0.238,1.532 0.354,1.905 0.115,0.374 0.204,0.631 0.268,0.773 0.203,0.453 0.673,0.705 1.412,0.759 0.739,0.052 1.837,-0.161 3.29,-0.641 l 0.739,1.657 -10.755,4.799 -0.739,-1.658 c 0.393,-0.209 0.82,-0.488 1.278,-0.837 0.457,-0.348 0.785,-0.695 0.986,-1.039 0.353,-0.565 0.596,-1.175 0.726,-1.826 0.129,-0.653 0.16,-1.371 0.09,-2.156 -0.347,-4.618 -0.694,-9.245 -1.041,-13.88 -0.349,-4.636 -0.728,-9.749 -1.14,-15.341 l 3.695,-1.65 c 5.462,5.752 9.761,10.306 12.898,13.661 3.136,3.356 5.767,6.124 7.891,8.303 0.35,0.352 0.726,0.648 1.127,0.886 0.4,0.237 0.898,0.41 1.494,0.518 0.445,0.073 0.922,0.064 1.428,-0.025 0.508,-0.09 0.951,-0.204 1.334,-0.34 z m -19.221,-6.05 -8.658,-9.206 1.123,12.568 z"
     id="path148" /><path
     style="fill:#cf1f25"
     d="m 428.263,553.109 -1.32,0.867 c -1.124,-0.95 -2.514,-1.846 -4.171,-2.687 -1.656,-0.841 -2.846,-1.099 -3.566,-0.773 -0.394,0.185 -0.868,0.433 -1.421,0.74 -0.554,0.31 -1.022,0.589 -1.405,0.841 l -0.792,0.521 14.235,21.636 c 0.307,0.466 0.65,0.829 1.031,1.089 0.382,0.261 0.855,0.354 1.418,0.278 0.336,-0.053 0.819,-0.199 1.446,-0.435 0.627,-0.235 1.15,-0.454 1.567,-0.655 l 0.997,1.517 -13.369,8.798 -0.998,-1.517 c 0.301,-0.254 0.724,-0.61 1.269,-1.071 0.545,-0.461 0.891,-0.814 1.035,-1.058 0.304,-0.497 0.412,-0.968 0.33,-1.414 -0.084,-0.447 -0.283,-0.91 -0.6,-1.39 l -14.363,-21.829 -0.793,0.521 c -0.382,0.252 -0.825,0.57 -1.326,0.957 -0.505,0.387 -0.919,0.725 -1.244,1.013 -0.583,0.533 -0.817,1.727 -0.7,3.581 0.117,1.856 0.389,3.486 0.815,4.895 l -1.318,0.868 -5.192,-7.893 23.241,-15.293 z"
     id="path150" /><path
     style="fill:#cf1f25"
     d="m 453.403,530.456 -1.159,1.011 c -1.117,-0.686 -2.458,-1.198 -4.023,-1.535 -1.564,-0.337 -2.78,-0.284 -3.644,0.162 -0.375,0.185 -0.844,0.505 -1.402,0.962 -0.559,0.457 -1.017,0.841 -1.373,1.151 l -3.141,2.739 8.366,9.592 2.226,-1.941 c 0.559,-0.487 1.001,-1.006 1.326,-1.557 0.325,-0.552 0.487,-1.207 0.485,-1.968 0,-0.474 -0.178,-1.152 -0.529,-2.039 -0.354,-0.887 -0.713,-1.612 -1.08,-2.177 l 1.159,-1.011 9.054,10.382 -1.159,1.011 c -0.488,-0.438 -1.182,-0.919 -2.078,-1.444 -0.897,-0.525 -1.579,-0.83 -2.048,-0.916 -0.702,-0.129 -1.352,-0.072 -1.945,0.169 -0.595,0.241 -1.192,0.623 -1.793,1.146 l -2.227,1.941 6.256,7.173 c 0.652,0.748 1.217,1.3 1.696,1.653 0.479,0.354 0.953,0.533 1.421,0.536 0.448,10e-4 0.923,-0.156 1.428,-0.473 0.503,-0.315 1.136,-0.806 1.898,-1.47 0.355,-0.31 0.777,-0.689 1.266,-1.135 0.487,-0.446 0.896,-0.862 1.221,-1.249 0.375,-0.432 0.697,-0.866 0.966,-1.308 0.27,-0.439 0.398,-0.852 0.388,-1.233 -0.011,-0.998 -0.224,-2.352 -0.64,-4.058 -0.414,-1.707 -0.779,-2.938 -1.096,-3.69 l 1.113,-0.971 6.347,8.11 -20.296,17.701 -1.193,-1.368 c 0.265,-0.271 0.609,-0.655 1.036,-1.151 0.428,-0.495 0.702,-0.878 0.823,-1.149 0.223,-0.523 0.275,-0.986 0.159,-1.389 -0.118,-0.4 -0.371,-0.824 -0.758,-1.269 l -15.31,-17.555 c -0.367,-0.421 -0.728,-0.72 -1.077,-0.897 -0.352,-0.176 -0.838,-0.19 -1.459,-0.04 -0.387,0.09 -0.869,0.285 -1.45,0.585 -0.579,0.3 -1.007,0.539 -1.281,0.716 l -1.192,-1.368 19.184,-16.729 z"
     id="path152" /><path
     style="fill:#cf1f25"
     d="m 478.445,493.756 c -0.216,0.314 -0.512,0.773 -0.886,1.379 -0.373,0.607 -0.569,1.281 -0.587,2.024 -0.02,0.651 0.28,1.394 0.9,2.225 0.621,0.832 1.665,1.903 3.136,3.214 l 17.621,15.692 -2.397,2.69 -30.958,-3.621 11.572,10.308 c 1.437,1.279 2.603,2.169 3.498,2.667 0.896,0.5 1.683,0.718 2.362,0.655 0.496,-0.046 1.108,-0.277 1.835,-0.696 0.727,-0.419 1.281,-0.773 1.664,-1.064 l 1.355,1.207 -8.209,9.217 -1.355,-1.207 c 0.316,-0.424 0.634,-0.949 0.953,-1.577 0.32,-0.626 0.493,-1.235 0.52,-1.825 0.014,-0.692 -0.252,-1.414 -0.8,-2.163 -0.548,-0.749 -1.62,-1.837 -3.219,-3.26 L 463.773,519.22 c -0.579,-0.515 -1.197,-0.925 -1.851,-1.227 -0.655,-0.303 -1.315,-0.453 -1.983,-0.452 -0.706,0.003 -1.379,0.132 -2.012,0.389 -0.634,0.258 -1.275,0.622 -1.923,1.092 l -1.39,-1.238 7.188,-8.07 27.115,3.129 -9.326,-8.308 c -1.481,-1.32 -2.662,-2.217 -3.538,-2.689 -0.876,-0.474 -1.652,-0.679 -2.333,-0.615 -0.526,0.055 -1.141,0.284 -1.843,0.688 -0.702,0.403 -1.245,0.752 -1.63,1.042 l -1.354,-1.207 8.194,-9.202 z"
     id="path154" /><path
     style="fill:#cf1f25"
     d="m 374.674,254.813 -2.512,4.98 c 13.676,6.914 26.101,15.947 36.834,26.679 25.979,25.983 42.039,61.851 42.039,101.496 0,39.645 -16.06,75.511 -42.039,101.496 -12.72,12.717 -27.811,23.048 -44.551,30.292 0.713,-3.636 1.097,-7.39 1.098,-11.234 -0.001,-3.855 -0.386,-7.62 -1.105,-11.265 39.386,-20.561 66.276,-61.781 66.276,-109.289 -10e-4,-68.052 -55.165,-123.213 -123.215,-123.215 -68.051,0.002 -123.214,55.163 -123.215,123.215 h -0.002 c 0.002,47.508 26.892,88.727 66.277,109.289 -0.719,3.645 -1.102,7.409 -1.102,11.265 0,3.845 0.384,7.599 1.097,11.234 -16.74,-7.244 -31.832,-17.575 -44.553,-30.292 -25.979,-25.985 -42.039,-61.852 -42.04,-101.496 10e-4,-39.646 16.062,-75.513 42.04,-101.496 10.734,-10.731 23.159,-19.765 36.836,-26.679 l -2.513,-4.98 c -48.608,24.57 -81.94,74.966 -81.941,133.154 0.002,62.861 38.9,116.632 93.938,138.566 7.581,23.234 29.41,40.027 55.177,40.029 25.766,-0.002 47.595,-16.795 55.177,-40.029 55.037,-21.935 93.936,-75.705 93.938,-138.566 0,-58.188 -33.332,-108.583 -81.939,-133.154 z"
     id="path156" /><path
     style="fill:#ffffff"
     d="m 208.538,400.927 v -76.581 c 1.064,-1.653 2.172,-3.277 3.316,-4.872 v 81.453 z"
     id="path158" /><path
     style="fill:#ffffff"
     d="m 202.272,335.336 c 1.048,-2.09 2.15,-4.147 3.316,-6.162 v 71.753 h -3.316 z"
     id="path160" /><path
     style="fill:#ffffff"
     d="m 196.008,350.346 c 0.993,-2.944 2.103,-5.834 3.317,-8.668 v 57.279 l -3.317,-3.165 z"
     id="path162" /><path
     style="fill:#ffffff"
     d="m 214.803,406.901 v -5.975 0 -85.39 c 1.075,-1.374 2.182,-2.721 3.316,-4.045 V 406.9 h -3.316 z"
     id="path164" /><path
     style="fill:#ffffff"
     d="m 280.766,359.634 h -2.024 v -28.627 c 0,-0.504 0.044,-0.818 0.082,-0.997 0.448,-0.148 1.221,-0.303 1.942,-0.439 z"
     id="path166" /><path
     style="fill:#ffffff"
     d="m 283.715,328.964 c 1.058,-0.261 2.199,-0.607 3.316,-1.097 v 31.767 h -3.316 z"
     id="path168" /><path
     style="fill:#ffffff"
     d="m 289.98,326.098 c 1.595,-1.31 2.856,-3.141 3.314,-5.745 v 13.258 c -0.09,0.043 -0.156,0.075 -0.17,0.082 l -1.027,0.524 -1.226,25.417 h -0.892 v -33.536 z"
     id="path170" /><path
     style="fill:#ffffff"
     d="m 293.295,316.679 c -0.131,-0.491 -0.323,-0.952 -0.575,-1.382 0.251,-0.625 0.444,-1.311 0.575,-2.056 z"
     id="path172" /><path
     style="fill:#ffffff"
     d="m 293.295,309.572 c -0.448,-1.694 -1.676,-3.018 -3.314,-4.022 v -33.92 c 1.1,-0.164 2.205,-0.31 3.314,-0.443 z"
     id="path174" /><path
     style="fill:#ffffff"
     d="m 287.031,304.199 c -1.065,-0.365 -2.19,-0.647 -3.316,-0.851 v -30.611 c 1.1,-0.226 2.206,-0.434 3.316,-0.628 z"
     id="path176" /><path
     style="fill:#ffffff"
     d="m 280.766,302.982 c -0.604,-0.041 -1.192,-0.062 -1.754,-0.062 -0.55,0 -1.068,0.016 -1.563,0.045 V 274.21 c 1.1,-0.29 2.204,-0.568 3.316,-0.826 v 29.598 z"
     id="path178" /><path
     style="fill:#ffffff"
     d="m 274.502,303.352 c -1.25,0.257 -2.32,0.603 -3.317,0.978 v -28.277 c 1.099,-0.356 2.204,-0.699 3.317,-1.023 z"
     id="path180" /><path
     style="fill:#ffffff"
     d="m 268.236,305.482 c -0.951,0.349 -2.008,0.676 -3.316,0.94 v -28.145 c 1.098,-0.426 2.203,-0.834 3.316,-1.228 z"
     id="path182" /><path
     style="fill:#ffffff"
     d="m 261.973,306.85 c -0.978,0.092 -2.075,0.152 -3.316,0.177 v -26.104 c 1.097,-0.501 2.202,-0.987 3.316,-1.456 z"
     id="path184" /><path
     style="fill:#ffffff"
     d="m 255.707,482.332 c -1.294,2.553 -2.405,5.212 -3.315,7.964 v -8.773 c 0.303,-0.064 0.598,-0.1 0.92,-0.1 0.812,0 1.598,0.104 2.396,0.256 v 0.653 z"
     id="path186" /><path
     style="fill:#ffffff"
     d="m 255.707,307.015 c -1.213,-0.028 -2.304,-0.084 -3.315,-0.158 V 284.02 c 1.095,-0.582 2.199,-1.147 3.315,-1.695 z"
     id="path188" /><path
     style="fill:#ffffff"
     d="m 249.442,306.585 c -0.387,-0.041 -0.773,-0.083 -1.161,-0.125 -0.705,-0.077 -1.417,-0.154 -2.155,-0.228 v -18.638 c 1.094,-0.67 2.2,-1.322 3.316,-1.957 z"
     id="path190" /><path
     style="fill:#ffffff"
     d="m 243.178,305.992 c -1.018,-0.064 -2.105,-0.114 -3.316,-0.137 v -14.141 c 1.092,-0.769 2.198,-1.517 3.316,-2.248 z"
     id="path192" /><path
     style="fill:#ffffff"
     d="m 242.886,400.927 h -3.024 v -6.203 -8.483 -55.321 c 0.829,0.093 1.587,0.201 2.033,0.33 0.326,0.612 0.991,2.811 0.991,10.516 z"
     id="path194" /><path
     style="fill:#ffffff"
     d="m 233.596,330.313 c 1.117,0.145 2.24,0.246 3.316,0.336 v 60.588 l -3.316,5.621 z"
     id="path196" /><path
     style="fill:#ffffff"
     d="m 227.331,328.586 c 0.611,0.326 1.299,0.625 2.1,0.877 0.393,0.123 0.802,0.229 1.217,0.328 v 72.064 l -2.978,5.046 h -0.339 z"
     id="path198" /><path
     style="fill:#ffffff"
     d="m 236.912,305.883 c -1.158,0.058 -2.267,0.184 -3.316,0.375 v -9.809 c 1.091,-0.882 2.194,-1.749 3.316,-2.592 z"
     id="path200" /><path
     style="fill:#ffffff"
     d="m 230.647,307.013 c -1.237,0.417 -2.352,0.934 -3.316,1.54 v -6.664 c 1.088,-1.014 2.19,-2.012 3.316,-2.984 z"
     id="path202" /><path
     style="fill:#ffffff"
     d="m 240.362,484.411 c 1.023,0 1.956,-0.056 2.815,-0.15 v 2.208 c -1.026,-0.672 -2.042,-1.358 -3.047,-2.061 0.08,0 0.153,0.003 0.232,0.003 z"
     id="path204" /><path
     style="fill:#ffffff"
     d="m 246.126,483.739 c 1.307,-0.327 2.388,-0.73 3.316,-1.111 v 7.67 c -1.116,-0.635 -2.223,-1.287 -3.316,-1.957 z"
     id="path206" /><path
     style="fill:#ffffff"
     d="m 418.989,389.444 -3.314,2.495 v -50.26 c 1.214,2.832 2.322,5.718 3.314,8.659 z"
     id="path208" /><path
     style="fill:#ffffff"
     d="m 412.727,394.159 -3.316,2.497 v -67.483 c 1.165,2.017 2.268,4.073 3.316,6.163 z"
     id="path210" /><path
     style="fill:#ffffff"
     d="m 406.46,398.878 -3.315,2.495 v -81.897 c 1.145,1.594 2.25,3.216 3.315,4.868 z"
     id="path212" /><path
     style="fill:#ffffff"
     d="m 400.196,403.593 -3.316,2.497 v -94.598 c 1.134,1.324 2.241,2.671 3.316,4.044 z"
     id="path214" /><path
     style="fill:#ffffff"
     d="m 321.703,321.788 c 0.984,0.821 2.139,1.465 3.317,1.995 v 35.85 h -0.893 l -1.228,-25.417 -1.026,-0.524 c -0.014,-0.007 -0.08,-0.039 -0.171,-0.083 v -11.821 z"
     id="path216" /><path
     style="fill:#ffffff"
     d="m 331.285,359.634 h -3.317 v -34.685 c 1.216,0.447 2.321,0.873 3.317,1.327 z"
     id="path218" /><path
     style="fill:#ffffff"
     d="m 334.232,328.044 c 1.722,1.435 2.684,3.397 2.684,6.648 v 24.941 h -2.684 z"
     id="path220" /><path
     style="fill:#ffffff"
     d="m 362.285,476.044 c 0.113,0 0.215,0.008 0.322,0.012 v 14.247 c -0.911,-2.752 -2.02,-5.415 -3.314,-7.968 v -6.175 c 0.693,-0.07 1.6,-0.116 2.992,-0.116 z"
     id="path222" /><path
     style="fill:#ffffff"
     d="m 356.343,477.192 c -0.105,-0.164 -0.206,-0.332 -0.314,-0.496 0.11,-0.015 0.211,-0.031 0.314,-0.047 z"
     id="path224" /><path
     style="fill:#ffffff"
     d="m 365.557,476.659 c 0.578,0.229 1.16,0.515 1.826,0.841 0.471,0.23 0.963,0.471 1.489,0.71 v 10.131 c -1.094,0.67 -2.198,1.322 -3.316,1.957 v -13.639 z"
     id="path226" /><path
     style="fill:#ffffff"
     d="m 378.086,398.683 v -69.709 c 1.133,-0.077 2.252,-0.266 3.317,-0.56 v 70.269 z"
     id="path228" /><path
     style="fill:#ffffff"
     d="m 384.351,394.963 v -67.736 c 1.385,-0.768 2.543,-1.776 3.316,-3.026 v 70.763 h -3.316 z"
     id="path230" /><path
     style="fill:#ffffff"
     d="m 371.821,479.329 c 0.975,0.292 2.066,0.541 3.316,0.713 v 4.177 c -1.092,0.769 -2.198,1.517 -3.316,2.249 z"
     id="path232" /><path
     style="fill:#ffffff"
     d="m 378.086,480.278 c 0.305,0.009 0.613,0.016 0.934,0.016 0.491,0 0.973,-0.02 1.445,-0.054 -0.785,0.622 -1.577,1.235 -2.379,1.838 z"
     id="path234" /><path
     style="fill:#ffffff"
     d="m 387.667,306.397 c -0.766,-1.278 -1.913,-2.446 -3.316,-3.463 v -4.03 c 1.126,0.973 2.229,1.971 3.316,2.983 z"
     id="path236" /><path
     style="fill:#ffffff"
     d="m 381.403,301.191 c -1.05,-0.506 -2.165,-0.944 -3.317,-1.3 v -6.034 c 1.122,0.843 2.226,1.71 3.317,2.592 z"
     id="path238" /><path
     style="fill:#ffffff"
     d="m 375.138,299.175 c -1.106,-0.199 -2.22,-0.322 -3.316,-0.358 v -9.35 c 1.118,0.732 2.225,1.48 3.316,2.249 z"
     id="path240" /><path
     style="fill:#ffffff"
     d="m 368.872,298.935 c -1.23,0.135 -2.329,0.361 -3.316,0.657 v -13.954 c 1.117,0.635 2.222,1.287 3.316,1.957 z"
     id="path242" /><path
     style="fill:#ffffff"
     d="m 362.607,300.713 c -0.364,0.162 -0.722,0.325 -1.069,0.486 -0.779,0.359 -1.499,0.689 -2.245,0.968 v -19.843 c 1.115,0.548 2.22,1.113 3.314,1.695 z"
     id="path244" /><path
     style="fill:#ffffff"
     d="m 356.343,302.882 c -0.541,0.064 -1.116,0.104 -1.763,0.104 -0.537,0 -1.05,-0.009 -1.552,-0.021 v -23.498 c 1.114,0.468 2.219,0.954 3.315,1.456 z"
     id="path246" /><path
     style="fill:#ffffff"
     d="m 350.078,302.82 c -1.195,-0.092 -2.291,-0.217 -3.315,-0.363 v -25.406 c 1.112,0.394 2.219,0.802 3.315,1.228 z"
     id="path248" /><path
     style="fill:#ffffff"
     d="m 343.814,301.958 c -0.782,-0.151 -1.54,-0.308 -2.291,-0.464 -0.34,-0.07 -0.682,-0.141 -1.025,-0.212 v -26.254 c 1.112,0.325 2.218,0.667 3.316,1.023 z"
     id="path250" /><path
     style="fill:#ffffff"
     d="m 337.549,300.735 c -1.05,-0.17 -2.145,-0.314 -3.316,-0.41 v -26.942 c 1.112,0.259 2.217,0.537 3.316,0.827 z"
     id="path252" /><path
     style="fill:#ffffff"
     d="m 331.285,300.2 c -0.05,0 -0.096,-0.003 -0.146,-0.003 -1.107,0 -2.164,0.107 -3.171,0.288 v -28.376 c 1.111,0.194 2.218,0.402 3.317,0.628 z"
     id="path254" /><path
     style="fill:#ffffff"
     d="m 325.02,301.322 c -1.276,0.515 -2.401,1.186 -3.317,1.99 v -32.125 c 1.111,0.133 2.217,0.279 3.317,0.443 z"
     id="path256" /><path
     style="fill:#ffffff"
     d="m 425.013,393.276 -3.073,-3.633 v -29.002 c 2.086,8.768 3.196,17.916 3.197,27.326 0,1.781 -0.047,3.55 -0.124,5.309 z"
     id="path258" /><path
     style="fill:#ffffff"
     d="m 393.931,308.178 v 96.081 l -3.315,-4.874 v -94.662 c 0.022,0.022 0.044,0.041 0.065,0.063 1.107,1.107 2.187,2.241 3.25,3.392 z"
     id="path260" /><path
     style="fill:#ffffff"
     d="m 318.755,270.87 v 49.489 c -0.814,-0.372 -2.798,-1.21 -5.48,-1.809 2.821,-1.978 4.651,-5.352 4.658,-9.122 -0.008,-4.056 -2.121,-7.65 -5.31,-9.545 0.864,-1.104 1.383,-2.492 1.384,-4.004 -0.001,-2.477 -1.383,-4.628 -3.419,-5.727 1.132,-1.467 2.374,-3.73 2.424,-6.704 0.016,-2.691 -1.177,-5.744 -4.103,-8.646 l -1.411,-1.41 -1.407,1.41 c -2.927,2.901 -4.121,5.954 -4.106,8.646 0.052,2.974 1.295,5.237 2.427,6.704 -2.036,1.1 -3.419,3.251 -3.42,5.727 0,1.513 0.52,2.899 1.385,4.004 -3.189,1.897 -5.302,5.49 -5.309,9.545 0.006,3.77 1.836,7.143 4.658,9.122 -2.683,0.598 -4.666,1.437 -5.481,1.809 V 270.87 c 3.705,-0.352 7.459,-0.539 11.257,-0.539 3.796,0 7.549,0.187 11.253,0.539 z"
     id="path262" /><path
     style="fill:#ffffff"
     d="m 224.383,304.722 v 6.583 c -0.747,1.116 -1.154,2.362 -1.154,3.702 0,0.976 0.194,2.33 1,3.661 -0.642,1.049 -1,2.203 -1,3.44 0,1.035 0.218,2.496 1.154,3.904 v 80.889 h -3.315 v -98.724 c 1.063,-1.15 2.143,-2.285 3.25,-3.393 0.021,-0.02 0.043,-0.041 0.065,-0.062 z"
     id="path264" /><path
     style="fill:#ffffff"
     d="m 193.061,360.64 v 35.199 l -2.704,2.877 c -0.321,-3.54 -0.493,-7.123 -0.494,-10.748 0,-9.41 1.112,-18.559 3.198,-27.328 z"
     id="path266" /><polygon
     style="fill:#ffffff"
     points="384.351,424.17 384.351,430.069 393.931,444.151 393.931,438.251 "
     id="polygon268" /><polygon
     style="fill:#ffffff"
     points="384.351,413.031 384.351,418.929 393.931,433.009 393.931,427.111 "
     id="polygon270" /><polygon
     style="fill:#ffffff"
     points="384.351,446.452 384.351,452.353 388.07,457.82 390,454.756 "
     id="polygon272" /><polygon
     style="fill:#ffffff"
     points="384.351,435.311 384.351,441.209 391.715,452.034 393.644,448.972 "
     id="polygon274" /><polygon
     style="fill:#ffffff"
     points="403.145,425.412 403.145,430.457 412.727,444.539 412.727,439.495 "
     id="polygon276" /><polygon
     style="fill:#ffffff"
     points="403.145,415.126 403.145,420.171 412.727,434.253 412.727,429.208 "
     id="polygon278" /><polygon
     style="fill:#ffffff"
     points="412.727,418.921 403.247,404.987 403.145,405.063 403.145,409.884 412.727,423.966 "
     id="polygon280" /><path
     style="fill:#ffffff"
     d="m 403.145,451.482 h -0.157 l 3.559,4.99 c 0.631,-0.91 1.25,-1.83 1.856,-2.76 l -5.258,-7.728 z"
     id="path282" /><path
     style="fill:#ffffff"
     d="m 403.145,440.745 6.98,10.258 c 0.546,-0.889 1.082,-1.782 1.606,-2.685 l -8.586,-12.619 z"
     id="path284" /><polygon
     style="fill:#ffffff"
     points="221.067,409.852 221.067,413.485 240.035,441.366 240.035,436.012 222.238,409.852 "
     id="polygon286" /><path
     style="fill:#ffffff"
     d="m 221.067,455.871 5.307,7.799 c 0.37,-1.032 0.988,-1.931 1.831,-2.663 l -7.138,-10.491 z"
     id="path288" /><path
     style="fill:#ffffff"
     d="m 221.067,445.273 9.707,14.268 c 1.008,-0.366 2.059,-0.598 3.09,-0.813 L 221.067,439.92 Z"
     id="path290" /><path
     style="fill:#ffffff"
     d="m 221.067,424.081 18.827,27.673 c 0.089,-1.072 0.141,-2.342 0.141,-3.858 v -1.289 l -18.968,-27.88 z"
     id="path292" /><path
     style="fill:#ffffff"
     d="m 221.067,434.678 15.822,23.256 c 0.575,-0.227 1.087,-0.507 1.498,-0.883 0.239,-0.22 0.494,-0.591 0.729,-1.195 l -18.05,-26.53 v 5.352 z"
     id="path294" /><polygon
     style="fill:#ffffff"
     points="211.854,442.497 211.854,437.14 203.568,424.961 202.427,428.64 "
     id="polygon296" /><polygon
     style="fill:#ffffff"
     points="211.854,431.899 211.854,426.545 205.827,417.685 204.686,421.361 "
     id="polygon298" /><polygon
     style="fill:#ffffff"
     points="211.854,421.304 211.854,415.949 208.086,410.41 206.944,414.087 "
     id="polygon300" /><polygon
     style="fill:#ffffff"
     points="211.854,453.092 211.854,447.738 201.309,432.238 200.168,435.914 "
     id="polygon302" /><path
     style="fill:#ffffff"
     d="m 350.813,538.119 -22.038,0.478 -10.101,-15.446 10.27,-13.965 h 20.167 l 9.093,12.508 0.111,-0.081 c -1.536,5.983 -4.106,11.547 -7.502,16.506 z"
     id="path304" /><polygon
     style="fill:#ffffff"
     points="323.987,541.47 316.533,553.68 293.915,553.68 287.106,541.477 296.589,525.847 313.772,525.847 "
     id="polygon306" /><path
     style="fill:#ffffff"
     d="m 357.375,492.241 -8.263,11.366 h -19.98 l -8.076,-13.814 8.451,-11.344 22.324,2.031 c 2.31,3.643 4.182,7.584 5.544,11.761 z"
     id="path308" /><polygon
     style="fill:#ffffff"
     points="295.917,464.111 317.689,464.938 324.784,475.45 316.315,486.817 296.348,486.817 290.398,476.514 "
     id="polygon310" /><path
     style="fill:#ffffff"
     d="m 291.513,489.598 -8.191,14.009 h -17.435 l -8.263,-11.365 c 1.784,-5.469 4.432,-10.545 7.8,-15.061 l 20.146,2.124 z"
     id="path312" /><path
     style="fill:#ffffff"
     d="m 256.795,521.693 9.093,-12.508 h 17.463 l 8.408,13.87 -9.482,15.631 -17.238,0.632 c -3.818,-5.256 -6.693,-11.234 -8.355,-17.707 z"
     id="path314" /><path
     style="fill:#ffffff"
     d="m 319.114,457.363 -1.347,1.996 -21.79,-0.828 -0.479,-1.079 c 3.854,-0.901 7.868,-1.394 12.002,-1.394 3.995,0.001 7.878,0.46 11.614,1.305 z"
     id="path316" /><path
     style="fill:#ffffff"
     d="m 294.121,559.258 h 22.368 l 0.493,0.856 c -3.076,0.561 -6.242,0.87 -9.482,0.87 -4.627,0 -9.108,-0.603 -13.379,-1.726 z"
     id="path318" /><path
     style="fill:#ffffff"
     d="m 369.894,454.522 c -2.144,-1.742 -3.891,-4.183 -3.891,-7.893 V 319.522 c 0,-4.522 1.651,-5.468 4.218,-5.468 1.843,0 4.157,0.487 6.673,0.487 3.413,0 7.837,-1.389 7.837,-4.582 0,-3.304 -7.007,-7.173 -13.614,-7.173 -7.172,0 -8.766,4.184 -16.536,4.184 -11.563,0 -15.273,-2.789 -23.441,-2.789 -4.625,0 -8.168,2.139 -8.168,4.781 0,6.974 17.93,3.189 17.93,18.628 v 36.027 H 325.67 l 1.234,24.713 c 0.138,0.065 0.218,0.105 0.232,0.111 l 1.036,0.528 0.052,1.21 H 340.9 v 65.082 c 0,5.872 4.397,10.625 9.829,10.625 7.173,0 5.169,-0.93 11.556,-0.93 6.641,0 7.484,4.25 16.734,4.25 4.782,0 8.766,-2.08 8.766,-4.648 0,-5.709 -12.133,-5.354 -17.891,-10.036 z"
     id="path320" /><path
     style="fill:#ffffff"
     d="m 287.864,388.442 c 0.014,-0.006 0.094,-0.045 0.229,-0.11 l 1.236,-24.714 h -14.573 v -39.713 c 0,-2.761 0.896,-3.96 2.268,-4.571 3.379,-1.505 12.476,-0.608 12.476,-8.311 0,-2.276 -5.643,-4.117 -10.488,-4.117 -8.234,0 -7.836,4.117 -21.517,4.117 -8.234,0 -11.023,-1.195 -19.125,-1.195 -6.167,0 -11.157,2.316 -11.157,5.18 0,5.977 14.34,3.588 17.185,5.971 1.707,1.43 2.473,4.87 2.473,13.685 v 116.083 c 0,7.14 -1.061,10.371 -2.941,12.094 -4.138,3.79 -11.138,1.62 -11.138,6.102 0,3.486 3.387,4.383 7.571,4.383 7.157,0 8.766,-2.988 12.949,-2.988 4.482,0 7.771,2.092 12.751,2.092 5.08,0 8.694,-3.586 8.694,-3.586 v -78.662 h 12.018 l 0.053,-1.21 z"
     id="path322" /><path
     style="fill:#ffffff"
     d="m 300.163,368.709 c 0.176,-0.389 0.505,-1.466 1,-2.442 0.294,-0.556 0.657,-1.168 1.188,-1.593 l 0.053,-1.943 c -1.175,0.17 -2.275,0.385 -3.291,0.624 l -0.308,6.159 c 0.671,-0.048 1.107,-0.256 1.358,-0.805 z"
     id="path324" /><path
     style="fill:#ffffff"
     d="m 301.788,357.37 0.92,-19.07 h 5.594 l -0.183,-3.755 c -0.207,-0.005 -0.409,-0.015 -0.619,-0.015 -2.796,-0.003 -5.323,0.411 -7.37,0.915 l -1.081,22.41 c 0.863,-0.183 1.78,-0.346 2.739,-0.485 z"
     id="path326" /><polygon
     style="fill:#ffffff"
     points="326.867,435.186 326.82,431.966 324.808,431.858 324.853,435.08 "
     id="polygon328" /><path
     style="fill:#ffffff"
     d="m 299.435,411.962 c -0.277,-0.689 -0.531,-1.457 -0.773,-2.305 -0.586,-2.123 -0.994,-4.655 -0.995,-7.137 0.001,-1.947 0.248,-3.865 0.917,-5.548 0.445,-1.13 1.121,-2.164 2.046,-2.955 l 0.175,-4.042 c -1.563,0.271 -3.018,0.607 -4.327,0.967 l -0.942,21.784 c 1.227,-0.285 2.532,-0.545 3.899,-0.764 z"
     id="path330" /><polygon
     style="fill:#ffffff"
     points="326.946,440.779 324.934,440.673 324.998,445.176 327.011,445.282 "
     id="polygon332" /><path
     style="fill:#ffffff"
     d="m 312.126,334.897 1.084,22.473 c 0.266,0.038 0.531,0.076 0.79,0.118 l -1.084,-22.458 c -0.258,-0.047 -0.521,-0.091 -0.79,-0.133 z"
     id="path334" /><path
     style="fill:#ffffff"
     d="m 306.891,325.18 c 1.271,0.002 2.385,-0.265 3.196,-0.544 l -0.133,-2.611 c -0.79,-0.094 -1.61,-0.152 -2.455,-0.152 -1.647,-0.004 -3.211,0.213 -4.6,0.507 l -0.094,1.841 c 1.468,0.718 2.851,0.958 4.086,0.959 z"
     id="path336" /><path
     style="fill:#ffffff"
     d="m 307.499,389.379 c -0.912,-0.001 -1.807,0.04 -2.685,0.103 l -0.325,7.51 c 0.296,1.102 0.59,1.944 0.89,2.511 0.595,1.014 0.804,1.074 1.418,1.123 0.406,0.006 1.059,-0.155 1.902,-0.495 1.354,-6.664 3.374,-9.484 3.374,-9.484 3.258,6.653 2.816,16.888 2.451,21.159 1.436,0.201 2.81,0.453 4.105,0.733 l -0.944,-21.82 c -2.905,-0.741 -6.423,-1.341 -10.186,-1.34 z"
     id="path338" /><path
     style="fill:#ffffff"
     d="m 298.96,383.139 c 1.069,-0.411 1.169,-0.878 1.475,-2.21 0.097,-0.484 0.19,-1.071 0.189,-1.608 0.003,-0.679 -0.154,-1.201 -0.431,-1.447 -0.126,-0.109 -0.174,-0.117 -0.299,-0.124 -0.31,-0.051 -1.005,0.411 -1.546,0.875 l -0.229,4.576 c 0.056,0.002 0.112,0.006 0.166,0.006 0.327,0.004 0.64,-0.05 0.675,-0.068 z"
     id="path340" /><path
     style="fill:#ffffff"
     d="m 304.802,362.462 -0.056,2.031 c 0.942,0.557 1.473,1.581 1.705,2.475 0.044,0.203 0.063,0.404 0.063,0.598 -0.035,1.066 -0.447,1.709 -0.414,2.256 0,0.059 0.004,0.121 0.012,0.189 0.063,1.183 1.499,2.102 2.145,4.002 0.069,0.238 0.107,0.476 0.107,0.712 -0.023,1.184 -0.849,1.827 -1.406,2.313 -0.609,0.502 -1.023,0.908 -1.083,1.309 -0.044,0.217 -0.066,0.451 -0.066,0.691 -0.005,1.242 0.605,2.463 1.525,2.77 0.165,0.059 0.329,0.087 0.491,0.087 0.443,0.003 0.895,-0.215 1.181,-0.541 0.176,-0.195 0.363,-0.397 0.547,-0.601 l -0.428,-18.355 c -0.533,-0.025 -1.077,-0.039 -1.628,-0.039 -0.922,-0.004 -1.822,0.036 -2.695,0.103 z"
     id="path342" /><path
     style="fill:#ffffff"
     d="m 288.206,430.001 2.013,-0.107 0.035,-2.431 c -0.775,0.278 -1.451,0.541 -2.023,0.775 z"
     id="path344" /><polygon
     style="fill:#ffffff"
     points="288.088,438.241 290.101,438.134 290.139,435.486 288.126,435.593 "
     id="polygon346" /><path
     style="fill:#ffffff"
     d="m 292.433,392.251 c -0.735,0.277 -1.337,0.525 -1.791,0.724 l -0.927,21.421 c 0.558,-0.191 1.156,-0.385 1.784,-0.579 z"
     id="path348" /><path
     style="fill:#ffffff"
     d="m 297.703,336.145 c -0.701,0.232 -1.29,0.456 -1.738,0.64 l -1.07,22.176 c 0.54,-0.174 1.11,-0.348 1.733,-0.518 z"
     id="path350" /><path
     style="fill:#ffffff"
     d="m 296.686,364.002 c -1.509,0.457 -2.692,0.916 -3.449,1.237 l -1.071,21.441 c 1.004,-0.351 2.158,-0.717 3.44,-1.064 z"
     id="path352" /><path
     style="fill:#ffffff"
     d="m 293.057,426.545 -0.126,8.777 4.471,-0.236 0.139,-9.685 c -1.631,0.345 -3.136,0.739 -4.484,1.144 z"
     id="path354" /><path
     style="fill:#ffffff"
     d="m 317.458,425.398 0.102,7.118 4.476,0.567 -0.093,-6.538 c -1.351,-0.405 -2.85,-0.802 -4.485,-1.147 z"
     id="path356" /><path
     style="fill:#ffffff"
     d="m 310.59,430.578 c -1.096,-1.337 -2.512,-1.974 -3.091,-1.934 v -0.001 c -0.031,-0.034 -0.774,0.205 -1.57,0.863 -0.816,0.641 -1.758,1.607 -2.626,2.757 -1.75,2.298 -3.165,5.341 -3.185,7.926 h -10e-4 l -0.094,6.606 c 1.439,-4.751 3.119,-9.646 4.955,-12.098 0.601,-0.737 1.26,-1.491 2.521,-1.551 1.24,-0.001 2.328,0.589 3.167,1.384 0.721,0.682 1.321,1.536 1.866,2.501 0.025,-0.293 0.043,-0.582 0.043,-0.86 0,-2.358 -0.87,-4.268 -1.985,-5.593 z"
     id="path358" /><path
     style="fill:#ffffff"
     d="m 307.5,316.526 c 3.533,-0.007 6.559,-3.091 6.566,-7.098 -0.007,-3.792 -2.715,-6.752 -5.998,-7.068 -0.189,0.017 -0.377,0.029 -0.569,0.029 -0.191,0 -0.381,-0.013 -0.568,-0.029 -3.283,0.317 -5.99,3.276 -5.998,7.068 0.007,4.008 3.033,7.092 6.567,7.098 z"
     id="path360" /><path
     style="fill:#ffffff"
     d="m 307.633,287.438 c 0.735,-1.033 1.4,-2.431 1.396,-3.989 -0.012,-1.18 -0.343,-2.556 -1.529,-4.19 -1.189,1.634 -1.52,3.01 -1.53,4.19 -0.036,1.637 0.771,3.143 1.532,4.173 0.043,-0.061 0.087,-0.121 0.131,-0.184 z"
     id="path362" /><path
     style="fill:#ffffff"
     d="m 307.499,298.403 c 1.394,-0.001 2.522,-1.13 2.524,-2.523 -0.002,-1.392 -1.131,-2.52 -2.524,-2.523 -1.393,0.004 -2.522,1.131 -2.523,2.523 10e-4,1.393 1.13,2.522 2.523,2.523 z"
     id="path364" /><path
     style="fill:#ffffff"
     d="m 297.168,451.415 0.161,-11.268 v 0 c 0,0 0,-0.002 0,-0.003 l 0.032,-2.265 -4.471,0.237 -0.204,14.277 c 1.471,-0.386 2.968,-0.705 4.482,-0.978 z"
     id="path366" /><path
     style="fill:#ffffff"
     d="m 322.313,452.395 -0.235,-16.493 -4.477,-0.569 0.229,16.082 c 1.515,0.271 3.011,0.592 4.483,0.98 z"
     id="path368" /></g>
</svg>
