<?xml version="1.0" encoding="iso-8859-1"?>
<!-- Generator: Adobe Illustrator 24.0.1, SVG Export Plug-In . SVG Version: 6.00 Build 0)  -->
<svg version="1.1" id="Layer_1" xmlns="http://www.w3.org/2000/svg" xmlns:xlink="http://www.w3.org/1999/xlink" x="0px" y="0px"
	 viewBox="0 0 612 792" style="enable-background:new 0 0 612 792;" xml:space="preserve">
<circle style="fill:#008E3C;" cx="305" cy="379.39" r="283.465"/>
<ellipse transform="matrix(0.7071 -0.7071 0.7071 0.7071 -178.9366 326.7885)" style="fill:#FFFFFF;" cx="305" cy="379.39" rx="278.687" ry="278.687"/>
<path style="fill:#008E3C;" d="M232.041,579.986l10.18,3.677l-4.619,12.788l-1.696-0.613c-1.686-0.609-2.961,0.276-3.822,2.66
	l-13.08,36.213l-15.107-5.308l14.247-39.439c1.218-3.375,2-5.409,2.341-6.102c0.571-1.128,1.386-2.073,2.445-2.835
	C225.651,579.123,228.689,578.776,232.041,579.986z M231.02,588.807l1.923,0.695l0.407-1.127l-1.95-0.704
	c-2.662-0.963-4.579,0.177-5.75,3.419l-12.177,33.71l1.057,0.382l11.847-32.797c0.643-1.78,1.27-2.911,1.882-3.396
	C228.899,588.432,229.818,588.373,231.02,588.807z"/>
<path style="fill:#008E3C;" d="M219.461,575.491l-25.824,49.576l-24.913-12.978l6.878-13.203l11.087,5.774l2.465-4.733
	l-11.086-5.774l6.878-13.203l11.086,5.775l2.27-4.359l-11.833-6.164l7.332-14.076L219.461,575.491z M177.519,608.278l12.955,6.748
	l18.946-36.372l-13.577-7.073l-0.584,1.122l12.581,6.554l-8.824,16.94l-11.958-6.229l-0.649,1.246l11.958,6.229l-8.305,15.944
	l-11.958-6.229L177.519,608.278z"/>
<path style="fill:#008E3C;" d="M177.64,577.976l-20.724,27.166l-12.842-9.796l20.727-27.17c1.069-1.403,1.669-2.476,1.795-3.215
	c0.186-0.888-0.174-1.676-1.074-2.363c-1.488-1.135-3.218-0.412-5.188,2.17l-20.727,27.17l-12.842-9.795l20.724-27.167
	c4.512-5.915,8.819-9.351,12.916-10.308c5.396-1.256,10.584,0.02,15.569,3.822C186.155,556.257,186.71,566.084,177.64,577.976z
	 M171.49,571.678l-16.983,22.264l1.005,0.767l17.001-22.286c2.292-3.004,3.32-6.104,3.087-9.299
	c-0.239-3.299-1.77-6.023-4.593-8.176c-3.03-2.313-6.063-3.068-9.098-2.268c-2.754,0.724-5.324,2.646-7.71,5.772l-17,22.287
	l1.005,0.767l16.774-21.99c4.888-6.408,10.004-7.574,15.343-3.501c2.473,1.886,3.8,4.292,3.982,7.222S173.549,568.98,171.49,571.678
	z"/>
<path style="fill:#008E3C;" d="M148.042,524.038l10.411,11.792l-41.904,36.997l-8.504-9.632l7.044-22.054l-14.9,13.154
	l-10.504-11.897l41.904-36.996l8.895,10.076l-5.888,20.43L148.042,524.038z M116.459,561.477l0.743,0.842l30.744-27.143
	l-0.743-0.842l-28.957,25.586l13.525-43.064l-0.836-0.946l-30.744,27.143l0.837,0.947l29.179-25.773L116.459,561.477z"/>
<path style="fill:#008E3C;" d="M130.147,502.608l-47.75,29.062l-14.604-23.995l12.718-7.74l6.499,10.679l4.559-2.775l-6.499-10.678
	l12.718-7.74l6.499,10.678l4.199-2.556l-6.938-11.397l13.558-8.252L130.147,502.608z M77.292,508.965l7.595,12.478l35.032-21.322
	l-7.96-13.077l-1.079,0.657l7.375,12.117l-16.316,9.932l-7.011-11.519l-1.199,0.73l7.01,11.518l-15.356,9.348l-7.011-11.519
	L77.292,508.965z"/>
<path style="fill:#008E3C;" d="M112.992,476.597l-15.231,6.433c-0.578-2.887-1.256-5.247-2.029-7.081
	c-0.8-1.893-1.882-2.55-3.249-1.973c-1.13,0.478-2.932,2.19-5.409,5.133l-6.184,7.348c-1.906,2.254-4.298,3.987-7.172,5.201
	c-3.651,1.541-7.181,1.471-10.583-0.212c-3.331-1.643-5.827-4.429-7.487-8.361c-1.118-2.648-1.842-5.581-2.175-8.796l12.803-5.406
	c0.325,0.771,0.688,1.691,1.084,2.766c0.65,1.54,1.625,2.036,2.919,1.49c0.825-0.349,1.704-1.16,2.636-2.436l6.352-8.611
	c2.563-3.464,5.656-5.961,9.283-7.493c4.686-1.978,8.898-2.09,12.637-0.333c3.738,1.757,6.748,5.336,9.027,10.733
	C111.653,468.41,112.579,472.279,112.992,476.597z M91.571,463.536c4.506-1.902,7.724-0.569,9.652,4
	c0.506,1.198,1.173,3.103,1.997,5.717l1.058-0.447c-0.669-2.442-1.267-4.279-1.789-5.517c-2.289-5.422-6.146-6.988-11.569-4.697
	c-2.381,1.005-4.798,3.085-7.245,6.236l-8.142,10.432c-1.801,2.314-3.457,3.79-4.968,4.428c-1.249,0.527-2.449,0.579-3.6,0.156
	c-1.151-0.425-2-1.276-2.543-2.563c-0.49-1.162-0.866-2.386-1.132-3.669l-1.177,0.497c0.537,1.803,0.89,2.902,1.059,3.303
	c0.677,1.602,1.743,2.71,3.196,3.321c1.526,0.653,3.187,0.602,4.979-0.157c1.629-0.688,3.44-2.321,5.434-4.907l7.869-10.102
	c1.425-1.825,2.52-3.088,3.279-3.787C88.895,464.902,90.107,464.154,91.571,463.536z"/>
<path style="fill:#008E3C;" d="M101.178,448.517l-15.991,4.199c-0.161-2.939-0.496-5.372-1.002-7.296
	c-0.521-1.987-1.5-2.793-2.935-2.416c-1.187,0.313-3.214,1.75-6.085,4.311l-7.166,6.393c-2.208,1.959-4.821,3.335-7.84,4.128
	c-3.833,1.006-7.316,0.435-10.445-1.716c-3.063-2.101-5.137-5.213-6.221-9.341c-0.73-2.781-1.029-5.786-0.902-9.017l13.442-3.53
	c0.213,0.81,0.44,1.772,0.68,2.892c0.425,1.618,1.318,2.247,2.677,1.891c0.866-0.227,1.852-0.905,2.955-2.034l7.513-7.62
	c3.03-3.065,6.447-5.096,10.255-6.097c4.92-1.292,9.105-0.802,12.556,1.468c3.45,2.271,5.921,6.241,7.408,11.909
	C101.018,440.223,101.383,444.184,101.178,448.517z M81.833,432.541c4.731-1.242,7.727,0.535,8.985,5.333
	c0.331,1.258,0.719,3.238,1.163,5.942l1.111-0.292c-0.315-2.513-0.645-4.415-0.986-5.715c-1.495-5.692-5.089-7.791-10.783-6.296
	c-2.501,0.656-5.188,2.371-8.059,5.143l-9.544,9.167c-2.111,2.034-3.961,3.26-5.547,3.676c-1.312,0.345-2.506,0.225-3.586-0.358
	c-1.078-0.583-1.797-1.548-2.151-2.897c-0.32-1.221-0.519-2.483-0.599-3.793l-1.235,0.325c0.275,1.86,0.468,2.998,0.578,3.419
	c0.441,1.683,1.34,2.932,2.691,3.742c1.418,0.865,3.067,1.048,4.95,0.555c1.711-0.45,3.736-1.81,6.077-4.085l9.227-8.881
	c1.67-1.603,2.933-2.698,3.784-3.282C78.989,433.513,80.297,432.944,81.833,432.541z"/>
<path style="fill:#008E3C;" d="M94.483,417.431l-55.564,6.107l-3.069-27.922l14.799-1.628l1.366,12.426l5.305-0.583l-1.366-12.425
	l14.799-1.626l1.365,12.424l4.887-0.536l-1.458-13.263l15.776-1.734L94.483,417.431z M43.909,400.806l1.596,14.52l40.766-4.48
	l-1.673-15.218l-1.256,0.138l1.55,14.102l-18.987,2.086l-1.473-13.402l-1.396,0.153l1.473,13.402l-17.87,1.964l-1.473-13.401
	L43.909,400.806z"/>
<path style="fill:#008E3C;" d="M89.988,371.307l-16.44-1.747c0.893-2.805,1.442-5.199,1.652-7.178
	c0.218-2.043-0.412-3.143-1.887-3.3c-1.22-0.129-3.626,0.496-7.22,1.872l-8.967,3.434c-2.76,1.049-5.691,1.407-8.795,1.077
	c-3.94-0.419-6.994-2.188-9.156-5.31c-2.119-3.05-2.954-6.696-2.502-10.941c0.304-2.858,1.09-5.773,2.355-8.749l13.82,1.47
	c-0.089,0.831-0.218,1.813-0.391,2.944c-0.177,1.663,0.436,2.568,1.831,2.718c0.891,0.094,2.054-0.19,3.486-0.855l9.726-4.458
	c3.92-1.79,7.836-2.478,11.75-2.061c5.059,0.538,8.798,2.48,11.219,5.827c2.42,3.347,3.32,7.935,2.701,13.763
	C92.781,363.496,91.719,367.329,89.988,371.307z M77.571,349.507c4.864,0.518,7.032,3.241,6.509,8.174
	c-0.138,1.294-0.478,3.283-1.021,5.969l1.142,0.121c0.598-2.461,0.965-4.358,1.106-5.692c0.622-5.854-1.993-9.091-7.848-9.713
	c-2.571-0.273-5.692,0.377-9.359,1.949l-12.176,5.185c-2.695,1.152-4.858,1.642-6.489,1.469c-1.349-0.144-2.424-0.679-3.226-1.607
	c-0.802-0.928-1.131-2.085-0.983-3.473c0.133-1.254,0.396-2.507,0.785-3.758l-1.27-0.136c-0.403,1.838-0.627,2.97-0.673,3.402
	c-0.184,1.73,0.212,3.216,1.188,4.454c1.02,1.311,2.497,2.068,4.433,2.273c1.759,0.188,4.135-0.365,7.13-1.662l11.776-5.029
	c2.132-0.907,3.7-1.482,4.704-1.727C74.567,349.406,75.991,349.339,77.571,349.507z"/>
<path style="fill:#008E3C;" d="M98.71,324.538l-4.295,15.57l-53.886-14.865l3.346-12.13c2.174-7.879,5.233-13.126,9.177-15.745
	c5.254-3.499,11.332-4.299,18.235-2.395c6.311,1.74,10.615,5.009,12.913,9.8c2.102,4.353,2.427,9.697,0.971,16.03L98.71,324.538z
	 M89.219,330.953l0.336-1.218l-12.862-3.549l1.673-6.061c1.27-4.606,1.347-8.302,0.232-11.089c-1.307-3.243-4.277-5.505-8.915-6.784
	c-9.346-2.579-15.445,1.295-18.294,11.619l-1.703,6.175L89.219,330.953z M75.475,325.85l-24.235-6.685l1.277-4.629
	c0.867-3.148,1.649-5.357,2.346-6.624c0.647-1.191,1.64-2.23,2.973-3.118c3.216-2.209,6.998-2.714,11.346-1.515
	c7.757,2.141,10.514,7.271,8.273,15.396L75.475,325.85z M70.819,316.845c0.922-3.339-0.382-5.496-3.915-6.472
	c-4.049-1.117-6.537-0.004-7.458,3.334L70.819,316.845z"/>
<path style="fill:#008E3C;" d="M65.038,255.534c3.075-5.947,8.17-9.754,15.282-11.421c7.113-1.663,14.239-0.652,21.377,3.038
	c7.026,3.633,11.966,8.858,14.821,15.677c2.858,6.821,2.747,13.204-0.328,19.151c-3.075,5.95-8.216,9.737-15.426,11.364
	c-7.208,1.629-14.335,0.62-21.384-3.024c-7.14-3.69-12.08-8.928-14.825-15.713C61.813,267.822,61.973,261.465,65.038,255.534z
	 M82.776,283.695c4.832,2.498,9.72,3.179,14.664,2.039c4.943-1.137,8.482-3.772,10.618-7.904c2.126-4.111,2.232-8.527,0.317-13.248
	c-1.915-4.721-5.288-8.332-10.12-10.83c-4.943-2.556-9.879-3.24-14.805-2.057c-4.923,1.186-8.449,3.834-10.575,7.945
	c-2.137,4.133-2.256,8.535-0.36,13.209C74.411,277.525,77.832,281.139,82.776,283.695z M74.036,260.149
	c1.977-3.823,5.266-6.275,9.867-7.359c4.602-1.083,9.215-0.43,13.839,1.961c4.532,2.343,7.697,5.711,9.498,10.103
	c1.8,4.395,1.71,8.501-0.267,12.324c-1.986,3.842-5.295,6.309-9.93,7.398c-4.636,1.092-9.218,0.465-13.75-1.879
	c-4.624-2.39-7.822-5.78-9.595-10.17C71.928,268.138,72.04,264.011,74.036,260.149z M100.362,273.757
	c1.211-2.344,1.282-4.831,0.208-7.467c-1.072-2.635-2.95-4.646-5.634-6.032c-2.771-1.434-5.546-1.82-8.322-1.163
	c-2.775,0.657-4.764,2.147-5.965,4.471c-1.212,2.346-1.289,4.851-0.231,7.515c1.06,2.664,2.975,4.712,5.747,6.145
	c2.66,1.376,5.387,1.733,8.177,1.071C97.135,277.635,99.14,276.122,100.362,273.757z"/>
<path style="fill:#008E3C;" d="M138.015,246.467l-10.271,12.465l-43.142-35.545l10.271-12.465c3.67-4.455,8.162-6.967,13.475-7.54
	c5.695-0.591,11.151,1.26,16.364,5.556c2.47,2.034,4.262,4.128,5.373,6.278c0.932,1.89,1.642,4.467,2.137,7.733l21.033,5.021
	l-11.135,13.515l-14.005-3.174L138.015,246.467z M100.618,215.654l-5.537,6.721l31.651,26.079l0.804-0.976l-10.023-8.259
	l3.707-4.498c0.892-1.083,1.88-2.703,2.96-4.863l14.95,3.549l0.844-1.025l-15.572-3.5c1.031-6.187-0.474-10.945-4.513-14.273
	c-3.389-2.793-6.903-4.028-10.541-3.707C105.904,211.189,102.993,212.771,100.618,215.654z M120.422,233.806l-3.833,4.652
	L96.86,222.203l4.733-5.745c2.129-2.584,4.799-4.005,8.005-4.266c3.389-0.279,6.618,0.847,9.688,3.375
	c2.774,2.285,4.253,5.171,4.441,8.657C123.913,227.711,122.813,230.904,120.422,233.806z M115.577,227.979
	c1.887-2.69,1.441-5.183-1.339-7.473c-2.876-2.369-5.358-2.29-7.441,0.238L115.577,227.979z"/>
<path style="fill:#008E3C;" d="M170.654,213.388l-12.156,10.635l-27.133-31.016l-4.123,3.606l-9.672-11.057l20.296-17.755
	l9.673,11.056l-4.018,3.515L170.654,213.388z M138.962,176.733l-12.79,11.188l0.826,0.945l6.025-5.271l26.176,29.923l0.951-0.833
	l-26.176-29.922l5.814-5.086L138.962,176.733z"/>
<path style="fill:#008E3C;" d="M190.154,199.327l-13.275,9.2l-31.841-45.944l13.275-9.2L190.154,199.327z M155.396,164.461
	l23.36,33.708l1.039-0.72l-23.361-33.708L155.396,164.461z"/>
<path style="fill:#008E3C;" d="M207.524,189.396l-40.383-42.687l15.387-7.323l16.618,17.675l0.119-0.057l-3.151-24.086l15.444-7.352
	l7.609,58.287L207.524,189.396z M209.355,177.977l-28.523-29.539l-1.149,0.547l30.124,31.081l1.032-0.491l-5.425-42.839
	l-1.032,0.492L209.355,177.977z"/>
<path style="fill:#008E3C;" d="M237.096,176.5l-14.058-54.103l27.186-7.064l3.744,14.409l-12.098,3.144l1.342,5.166l12.099-3.144
	l3.744,14.409l-12.099,3.144l1.236,4.757l12.914-3.355l3.991,15.361L237.096,176.5z M246.252,124.057l-14.138,3.673l10.314,39.693
	l14.816-3.85l-0.317-1.224l-13.73,3.567l-4.804-18.487l13.05-3.391l-0.354-1.359l-13.05,3.391l-4.521-17.4l13.05-3.391
	L246.252,124.057z"/>
<path style="fill:#008E3C;" d="M315.866,144.947l7.788,14.437c-2.815,2.684-5.282,4.518-7.397,5.509
	c-2.396,1.146-5.284,1.737-8.668,1.77c-6.983,0.067-12.919-2.543-17.808-7.837c-5.021-5.447-7.57-12.296-7.65-20.549
	c-0.077-7.946,2.242-14.734,6.959-20.363c4.716-5.629,10.458-8.479,17.226-8.545c3.079-0.029,5.894,0.518,8.441,1.644
	c2.199,0.975,4.797,2.688,7.793,5.136l-7.077,14.978c-3.449-2.824-6.47-4.226-9.064-4.2c-2.66,0.025-4.921,1.123-6.782,3.292
	c-1.864,2.169-2.78,4.826-2.749,7.974c0.032,3.326,1.081,6.018,3.15,8.069c1.957,1.928,4.352,2.877,7.185,2.85
	c1.545-0.016,2.899-0.301,4.061-0.858C312.434,147.693,313.964,146.592,315.866,144.947z M289.574,138.191
	c0.053,5.455,1.739,10.08,5.061,13.871c3.32,3.792,7.309,5.665,11.965,5.62c3.264-0.032,6.505-1.187,9.725-3.47l-0.63-1.083
	c-2.972,2.257-5.996,3.398-9.074,3.429c-4.337,0.042-8.063-1.734-11.177-5.334c-3.116-3.597-4.697-7.934-4.746-13.012
	c-0.053-5.411,1.519-9.901,4.717-13.471c3.087-3.467,6.896-5.222,11.431-5.266c2.449-0.024,5.256,0.813,8.417,2.51l0.609-1.063
	c-3.434-1.833-6.434-2.736-9.001-2.711c-4.874,0.048-8.969,1.924-12.281,5.625C291.19,127.672,289.518,132.455,289.574,138.191z"/>
<path style="fill:#008E3C;" d="M341.02,168.993l-15.876-2.969l10.274-54.946l15.878,2.969l-3.46,18.499l6.903,1.291l3.459-18.499
	l15.738,2.943l-10.274,54.946l-15.739-2.943l3.692-19.742l-6.903-1.291L341.02,168.993z M342.609,119.996l-1.242-0.232
	l-7.538,40.312l1.242,0.232l3.77-20.155l21.537,4.026l-3.77,20.157l1.103,0.206l7.54-40.312l-1.106-0.207l-3.536,18.914
	l-21.537-4.027L342.609,119.996z"/>
<path style="fill:#008E3C;" d="M379.601,179.223l-14.665-6.136l38.89-44.324l10.057,4.208l-4.227,58.825l-14.635-6.123l0.428-4.997
	l-12.588-5.267L379.601,179.223z M403.313,181.073l3.206-44.541l-29.467,33.556l1.056,0.441l2.807-3.24l21.652,9.058l-0.279,4.299
	L403.313,181.073z M402.663,175.017l-20.841-8.719l23.422-26.719L402.663,175.017z M396.417,166.77l0.483-7.245l-4.73,5.469
	L396.417,166.77z"/>
<path style="fill:#008E3C;" d="M422.634,174.88l19.393-28.133l13.298,9.166l-19.393,28.137c-1.002,1.453-1.55,2.553-1.64,3.298
	c-0.143,0.896,0.255,1.665,1.186,2.308c1.542,1.063,3.234,0.258,5.078-2.417l19.393-28.136l13.299,9.166l-19.392,28.133
	c-4.222,6.125-8.358,9.764-12.405,10.917c-5.328,1.514-10.572,0.489-15.735-3.068C415.174,196.982,414.146,187.193,422.634,174.88z
	 M429.079,180.873l15.892-23.056l-1.04-0.717l-15.909,23.079c-2.144,3.111-3.021,6.257-2.635,9.437
	c0.397,3.283,2.059,5.932,4.979,7.945c3.14,2.163,6.205,2.773,9.197,1.827c2.716-0.854,5.191-2.899,7.423-6.137l15.908-23.079
	l-1.04-0.718l-15.696,22.773c-4.575,6.637-9.629,8.047-15.156,4.235c-2.562-1.765-4.003-4.104-4.327-7.022
	C426.352,186.523,427.153,183.667,429.079,180.873z"/>
<path style="fill:#008E3C;" d="M454.714,227.043l-10.732-11.502l40.874-38.132l8.761,9.391l-6.263,22.424l22.805-4.692l8.805,9.439
	l-40.873,38.132l-10.827-11.605l13.115-12.234l-17.021,3.319l4.471-16.773L454.714,227.043z M485.258,188.752l-0.767-0.821
	l-29.987,27.976l0.766,0.821l28.357-26.476l-9.506,31.301l31.84-7.36l-28.366,26.464l0.861,0.924l29.988-27.976l-0.804-0.861
	l-31.575,7.065L485.258,188.752z"/>
<path style="fill:#008E3C;" d="M540.055,246.471c3.3,5.825,3.702,12.173,1.211,19.039c-2.494,6.866-7.235,12.281-14.228,16.241
	c-6.882,3.898-13.958,5.178-21.229,3.844c-7.273-1.336-12.559-4.917-15.858-10.743c-3.301-5.827-3.663-12.202-1.084-19.129
	c2.575-6.927,7.315-12.343,14.22-16.254c6.993-3.962,14.079-5.236,21.261-3.826C531.527,237.054,536.765,240.662,540.055,246.471z
	 M506.778,245.933c-4.733,2.681-7.976,6.401-9.724,11.165c-1.75,4.762-1.478,9.165,0.815,13.213
	c2.281,4.026,5.921,6.53,10.921,7.507c4.999,0.977,9.866,0.125,14.6-2.556c4.844-2.743,8.113-6.503,9.815-11.274
	c1.698-4.771,1.407-9.171-0.874-13.198c-2.292-4.048-5.914-6.554-10.862-7.52C516.517,242.3,511.621,243.189,506.778,245.933z
	 M531.272,251.483c2.121,3.744,2.377,7.839,0.77,12.285c-1.608,4.444-4.677,7.951-9.206,10.517
	c-4.439,2.515-8.99,3.324-13.652,2.432c-4.663-0.895-8.053-3.215-10.174-6.959c-2.132-3.764-2.39-7.883-0.769-12.359
	c1.619-4.479,4.649-7.973,9.089-10.487c4.528-2.566,9.116-3.392,13.761-2.476C525.736,245.351,529.13,247.7,531.272,251.483z
	 M505.488,266.091c1.3,2.295,3.345,3.715,6.138,4.256c2.794,0.542,5.504,0.067,8.132-1.42c2.715-1.539,4.555-3.65,5.521-6.334
	c0.967-2.685,0.807-5.163-0.482-7.439c-1.302-2.297-3.357-3.73-6.167-4.3c-2.81-0.57-5.571-0.085-8.286,1.453
	c-2.607,1.476-4.396,3.564-5.366,6.263C504.005,261.268,504.176,263.774,505.488,266.091z"/>
<path style="fill:#008E3C;" d="M507.616,312.081l-4.63-15.034l53.424-16.45l3.781,12.279l-15.503,17.194l18.996-5.85l4.67,15.168
	l-53.423,16.45l-3.956-12.846l13.781-16.19L507.616,312.081z M551.816,290.975l-0.33-1.073l-39.195,12.068l0.33,1.074l36.927-11.386
	l-30.066,33.668l0.372,1.208l39.195-12.069l-0.372-1.208l-37.203,11.466L551.816,290.975z"/>
<path style="fill:#008E3C;" d="M517.617,359.308l-2.107-16.015l40.857-5.376l-0.716-5.431l14.565-1.917l3.518,26.736l-14.563,1.917
	l-0.697-5.292L517.617,359.308z M565.695,353.264l-2.218-16.849l-1.244,0.163l1.044,7.938l-39.416,5.186l0.165,1.253l39.416-5.186
	l1.008,7.659L565.695,353.264z"/>
<path style="fill:#008E3C;" d="M536.643,366.185l13.483-0.011l0.021,25.982l-13.482,0.011L536.643,366.185z M542.7,387.949
	l1.545-0.001l-0.015-17.697l-1.545,0.002L542.7,387.949z"/>
<path style="fill:#008E3C;" d="M534.637,428.127l0.892-5.12l11.806,2.054l-3.347,19.234l-19.012-3.309
	c-8.63-6.985-12.19-14.815-10.682-23.489c1.172-6.732,4.946-11.926,11.329-15.582c6.381-3.656,13.498-4.799,21.353-3.432
	c7.553,1.314,13.678,4.645,18.375,9.997c4.825,5.504,6.673,11.515,5.539,18.03c-0.885,5.085-3.862,9.683-8.935,13.798
	l-12.553-10.347c2.333-1.652,3.691-3.583,4.075-5.792c0.444-2.556-0.253-4.931-2.091-7.131c-1.841-2.2-4.271-3.564-7.297-4.09
	c-3.026-0.526-5.749-0.064-8.17,1.387c-2.423,1.45-3.863,3.489-4.319,6.114c-0.381,2.192,0.347,4.68,2.184,7.461L534.637,428.127z
	 M545.185,406.867c5.23,0.909,9.34,3.242,12.331,6.997c2.908,3.629,3.993,7.568,3.254,11.818c-0.335,1.923-1.269,3.894-2.803,5.917
	l0.958,0.859c1.733-2.502,2.772-4.738,3.116-6.71c0.799-4.588-0.424-8.831-3.666-12.728c-3.242-3.898-7.565-6.315-12.965-7.256
	c-5.325-0.926-10.166-0.1-14.522,2.483c-4.356,2.58-6.931,6.147-7.723,10.698c-0.975,5.602,1.153,10.836,6.383,15.707l9.971,1.734
	l1.252-7.195l-1.179-0.204l-1.059,6.088l-8.606-1.497c-2.066-1.748-3.63-3.924-4.687-6.532c-1.095-2.7-1.416-5.334-0.971-7.897
	c0.737-4.233,3.162-7.554,7.278-9.965C535.663,406.774,540.208,406.001,545.185,406.867z"/>
<path style="fill:#008E3C;" d="M504.368,456.061l5.228-15.281l52.889,18.097l-5.23,15.282L504.368,456.061z M553.032,463.51
	l-38.802-13.276l-0.41,1.195l38.803,13.277L553.032,463.51z"/>
<path style="fill:#008E3C;" d="M504.988,458.925l14.896,7.173c-1.782,2.343-3.106,4.412-3.97,6.205
	c-0.891,1.851-0.668,3.098,0.669,3.741c1.105,0.532,3.581,0.753,7.428,0.664l9.601-0.22c2.951-0.06,5.833,0.587,8.645,1.941
	c3.571,1.719,5.853,4.413,6.839,8.079c0.971,3.585,0.53,7.3-1.321,11.145c-1.247,2.591-2.968,5.071-5.159,7.448l-12.522-6.029
	c0.363-0.753,0.815-1.634,1.357-2.642c0.726-1.507,0.453-2.566-0.811-3.175c-0.807-0.389-1.997-0.512-3.569-0.367l-10.66,0.929
	c-4.294,0.369-8.212-0.301-11.76-2.008c-4.583-2.208-7.452-5.294-8.606-9.26c-1.154-3.966-0.46-8.591,2.082-13.869
	C499.731,465.343,502.021,462.09,504.988,458.925z M509.353,483.631c-4.406-2.122-5.533-5.418-3.382-9.886
	c0.564-1.173,1.553-2.933,2.969-5.278l-1.035-0.499c-1.389,2.118-2.372,3.78-2.955,4.991c-2.554,5.303-1.18,9.23,4.126,11.785
	c2.329,1.121,5.487,1.559,9.47,1.31l13.21-0.79c2.926-0.18,5.128,0.088,6.605,0.799c1.222,0.588,2.054,1.453,2.497,2.598
	c0.443,1.143,0.365,2.343-0.24,3.601c-0.548,1.138-1.217,2.228-2.004,3.276l1.15,0.554c0.997-1.595,1.589-2.586,1.777-2.978
	c0.755-1.568,0.882-3.1,0.379-4.595c-0.52-1.577-1.656-2.788-3.411-3.632c-1.593-0.768-4.017-1.046-7.274-0.831l-12.781,0.777
	c-2.313,0.139-3.982,0.152-5.01,0.045C512.149,484.735,510.786,484.319,509.353,483.631z"/>
<path style="fill:#008E3C;" d="M478.484,503.939l8.928-13.46l34.342,22.778l3.027-4.565l12.242,8.12l-14.906,22.473l-12.241-8.12
	l2.949-4.448L478.484,503.939z M518.709,530.957l9.393-14.162l-1.046-0.693l-4.425,6.672l-33.131-21.976l-0.699,1.054l33.131,21.975
	l-4.27,6.438L518.709,530.957z"/>
<path style="fill:#008E3C;" d="M499.685,566.461c-4.639,4.827-10.606,7.027-17.899,6.602c-7.292-0.428-13.836-3.423-19.63-8.992
	c-5.702-5.481-8.951-11.897-9.75-19.244c-0.799-7.352,1.122-13.44,5.762-18.268c4.642-4.829,10.646-6.998,18.021-6.507
	c7.373,0.488,13.92,3.482,19.641,8.982c5.794,5.569,9.041,11.995,9.742,19.281C506.272,555.598,504.311,561.647,499.685,566.461z
	 M490.69,534.418c-3.922-3.768-8.414-5.813-13.479-6.127c-5.063-0.315-9.204,1.204-12.429,4.559
	c-3.206,3.336-4.564,7.54-4.072,12.61c0.494,5.07,2.699,9.491,6.622,13.262c4.013,3.857,8.55,5.916,13.608,6.182
	c5.058,0.265,9.19-1.272,12.398-4.608c3.225-3.355,4.592-7.541,4.104-12.561C496.955,542.713,494.703,538.275,490.69,534.418z
	 M492.371,559.477c-2.98,3.104-6.831,4.518-11.553,4.249c-4.718-0.271-8.956-2.209-12.708-5.817
	c-3.68-3.535-5.756-7.664-6.232-12.387c-0.476-4.725,0.778-8.636,3.761-11.738c2.997-3.118,6.871-4.543,11.624-4.27
	c4.755,0.273,8.97,2.177,12.647,5.712c3.754,3.607,5.855,7.768,6.306,12.479C496.666,552.419,495.385,556.343,492.371,559.477z
	 M471.005,538.943c-1.828,1.902-2.604,4.268-2.324,7.1c0.279,2.831,1.508,5.293,3.684,7.386c2.25,2.162,4.8,3.322,7.648,3.481
	c2.849,0.159,5.179-0.703,6.991-2.59c1.829-1.902,2.615-4.282,2.359-7.138c-0.259-2.854-1.512-5.363-3.762-7.526
	c-2.159-2.075-4.671-3.192-7.535-3.352C475.201,536.144,472.849,537.024,471.005,538.943z"/>
<path style="fill:#008E3C;" d="M452.684,563.34l19.196,28.267l-13.361,9.074l-19.198-28.27c-0.992-1.461-1.818-2.368-2.48-2.723
	c-0.783-0.457-1.645-0.366-2.581,0.271c-1.549,1.051-1.411,2.921,0.413,5.607l19.199,28.271l-13.361,9.073l-19.197-28.267
	c-4.179-6.154-6.072-11.328-5.68-15.518c0.519-5.515,3.372-10.031,8.56-13.555C434.785,548.379,444.282,550.968,452.684,563.34z
	 M444.763,567.176l15.732,23.165l1.046-0.711l-15.748-23.188c-2.123-3.126-4.737-5.083-7.843-5.874
	c-3.203-0.82-6.272-0.23-9.209,1.763c-3.153,2.143-4.832,4.779-5.034,7.91c-0.188,2.841,0.821,5.89,3.03,9.143l15.748,23.188
	l1.046-0.71l-15.538-22.88c-4.528-6.668-4.013-11.889,1.543-15.662c2.571-1.747,5.275-2.243,8.111-1.488
	C440.484,562.587,442.856,564.369,444.763,567.176z"/>
<path style="fill:#008E3C;" d="M392.848,573.995l15.217-6.426l-1.008,31.767l22.092,20.009l-15.848,6.692l-6.935-6.099l-0.134,9.083
	l-15.276,6.45l1.092-28.716l-24.19-22.208l15.818-6.679l8.89,8.461L392.848,573.995z M415.277,617.122l-14.896-13.289l1.107-25.406
	l-1.233,0.521l-1.103,23.901L381.28,586.96l-1.173,0.495l18.98,16.925l-0.803,19.917l1.111-0.47l0.845-18.393l13.862,12.183
	L415.277,617.122z"/>
<path style="fill:#008E3C;" d="M376.104,466.386c-19.37,15.851-44.125,25.364-71.104,25.364
	c-62.052,0-112.359-50.307-112.359-112.36c0-26.978,9.514-51.734,25.364-71.103l-61.477-61.477
	c-31.457,35.203-50.591,81.653-50.591,132.58c0,109.939,89.124,199.063,199.063,199.063c50.926,0,97.376-19.133,132.58-50.591
	L376.104,466.386z"/>
<path style="fill:#008E3C;" d="M315.258,405.539c-3.179,1.248-6.636,1.941-10.258,1.941c-15.513,0-28.09-12.577-28.09-28.091
	c0-3.621,0.693-7.079,1.941-10.257L222,312.281c-14.844,18.335-23.741,41.682-23.741,67.108c0,58.95,47.792,106.742,106.741,106.742
	c25.428,0,48.774-8.898,67.109-23.741L315.258,405.539z"/>
<path style="fill:#FFFFFF;" d="M268.288,528.477c-1.343,0-2.389,0.797-3.135,2.388c-0.541-1.591-1.471-2.388-2.788-2.388
	c-1.114,0-2.024,0.647-2.733,1.938v-1.586h-4.459v11.341h4.564v-5.705c0-0.988,0.251-1.482,0.755-1.482
	c0.409,0,0.614,0.493,0.614,1.482v5.705h4.424v-5.705c0-0.988,0.246-1.482,0.737-1.482c0.397,0,0.598,0.493,0.598,1.482v5.705h4.529
	v-7.627c0-1.19-0.261-2.151-0.783-2.883C270.052,528.873,269.276,528.477,268.288,528.477z"/>
<path style="fill:#FFFFFF;" d="M279.944,530.328c-0.819-1.233-1.821-1.851-3.003-1.851c-1.309,0-2.316,0.668-3.023,2.004
	c-0.595,1.126-0.891,2.498-0.891,4.119c0,1.556,0.309,2.898,0.925,4.03c0.723,1.307,1.714,1.961,2.973,1.961
	c1.196,0,2.249-0.711,3.16-2.134v1.712h4.318v-11.341h-4.459V530.328z M278.733,536.077c-0.382,0-0.683-0.16-0.902-0.482
	c-0.206-0.292-0.31-0.67-0.31-1.13c0-0.461,0.105-0.851,0.314-1.169c0.21-0.318,0.51-0.477,0.898-0.477
	c0.387,0,0.69,0.165,0.91,0.494c0.2,0.301,0.301,0.685,0.301,1.152C279.944,535.54,279.54,536.077,278.733,536.077z"/>
<polygon style="fill:#FFFFFF;" points="291.6,525.072 286.93,525.072 286.93,528.829 285.63,528.829 285.63,533.007 286.93,533.007 
	286.93,540.17 291.6,540.17 291.6,533.007 292.961,533.007 292.961,528.829 291.6,528.829 "/>
<path style="fill:#FFFFFF;" d="M296.541,535.254c-0.689,0-1.292,0.235-1.807,0.703c-0.56,0.504-0.84,1.148-0.84,1.931
	c0,0.79,0.28,1.438,0.84,1.942c0.515,0.461,1.117,0.691,1.807,0.691c0.69,0,1.292-0.23,1.808-0.691
	c0.565-0.505,0.849-1.152,0.849-1.942c0-0.782-0.283-1.43-0.849-1.942C297.833,535.484,297.23,535.254,296.541,535.254z"/>
<path style="fill:#FFFFFF;" d="M312.614,523.948c-2.214,0-3.883,0.983-5.007,2.949c-0.622,1.091-0.933,2.326-0.933,3.707
	c0,1.565,0.388,2.793,1.166,3.686c0.776,0.892,1.83,1.338,3.161,1.338c0.056,0,0.141-0.004,0.252-0.012c0.105,0,0.186,0,0.243,0
	l-4.29,4.659h6.395l1.605-2.247c1.063-1.492,1.808-2.665,2.237-3.521c0.708-1.426,1.063-2.803,1.063-4.134
	c0-1.951-0.574-3.523-1.725-4.715C315.682,524.518,314.293,523.948,312.614,523.948z M313.478,531.424
	c-0.205,0.301-0.488,0.451-0.849,0.451c-0.359,0-0.641-0.148-0.842-0.44c-0.202-0.293-0.304-0.657-0.304-1.089
	c0-0.44,0.102-0.808,0.304-1.107c0.201-0.296,0.482-0.445,0.842-0.445c0.36,0,0.644,0.158,0.849,0.473
	c0.192,0.286,0.288,0.646,0.288,1.079C313.767,530.785,313.671,531.146,313.478,531.424z"/>
<path style="fill:#FFFFFF;" d="M329.983,532.522c0.434-0.818,0.65-1.729,0.65-2.731c0-1.834-0.537-3.281-1.611-4.342
	c-1.013-1.002-2.315-1.502-3.905-1.502c-1.746,0-3.107,0.579-4.085,1.738c-0.979,1.158-1.469,2.764-1.469,4.816v0.187h4.533
	c0-1.239,0.296-1.86,0.891-1.86c0.558,0,0.837,0.336,0.837,1.009c0,0.468-0.261,1.068-0.78,1.799l-6.067,8.533h11.657v-4.424h-3.449
	l1.143-1.129C329.084,533.872,329.636,533.173,329.983,532.522z"/>
<path style="fill:#FFFFFF;" d="M340.026,531.82c1.477-0.527,2.215-1.629,2.215-3.306c0-1.507-0.597-2.678-1.79-3.513
	c-0.994-0.702-2.176-1.054-3.543-1.054c-1.367,0-2.551,0.352-3.552,1.054c-1.192,0.835-1.79,2.006-1.79,3.513
	c0,1.677,0.746,2.778,2.24,3.306c-1.798,0.666-2.696,1.932-2.696,3.799c0,1.689,0.638,2.978,1.911,3.864
	c1.057,0.738,2.352,1.108,3.887,1.108c1.542,0,2.838-0.367,3.888-1.098c1.268-0.887,1.901-2.177,1.901-3.875
	C342.697,533.752,341.808,532.486,340.026,531.82z M336.895,528.092c0.521,0,0.781,0.37,0.781,1.111
	c0,0.734-0.261,1.101-0.781,1.101c-0.51,0-0.764-0.366-0.764-1.101C336.132,528.462,336.386,528.092,336.895,528.092z
	 M337.703,536.152c-0.19,0.314-0.455,0.472-0.794,0.472c-0.34,0-0.607-0.157-0.803-0.472c-0.17-0.278-0.256-0.621-0.256-1.032
	c0-0.409,0.086-0.749,0.256-1.021c0.195-0.307,0.463-0.46,0.803-0.46c0.699,0,1.048,0.493,1.048,1.481
	C337.957,535.531,337.873,535.874,337.703,536.152z"/>
<path style="fill:#FFFFFF;" d="M352.521,534.617c0.756-0.745,1.308-1.444,1.655-2.095c0.434-0.818,0.651-1.729,0.651-2.731
	c0-1.834-0.538-3.281-1.612-4.342c-1.013-1.002-2.315-1.502-3.905-1.502c-1.746,0-3.107,0.579-4.085,1.738
	c-0.978,1.158-1.468,2.764-1.468,4.816v0.187h4.532c0-1.239,0.297-1.86,0.892-1.86c0.557,0,0.836,0.336,0.836,1.009
	c0,0.468-0.261,1.068-0.78,1.799l-6.067,8.533h11.658v-4.424h-3.45L352.521,534.617z"/>
<path style="fill:#008E3C;" d="M305,180.327c-50.927,0-97.377,19.134-132.581,50.592l43.149,43.149
	c-0.71-6.292-2.413-10.685-3.831-11.862c-0.244-0.203-0.461-0.297-0.643-0.279c-0.436,0.044-0.825-0.274-0.868-0.71
	c-0.044-0.436,0.274-0.825,0.71-0.869c5.489-0.548,10.531,0.342,12.848,2.267c0.591,0.491,0.986,1.039,1.207,1.629
	c3.519-0.458,5.303-1.519,5.429-1.907c-0.215-2.453-1.437-4.722-3.443-6.39c-2.445-2.032-5.825-3.001-9.274-2.657
	c-0.016,0.002-0.029-0.005-0.045-0.004c-0.053,0.002-0.103-0.007-0.154-0.016c-0.052-0.008-0.103-0.013-0.151-0.031
	c-0.041-0.015-0.077-0.04-0.115-0.062c-0.053-0.03-0.104-0.06-0.146-0.101c-0.011-0.009-0.023-0.013-0.033-0.022
	c-0.023-0.024-0.032-0.054-0.051-0.079c-0.036-0.046-0.07-0.091-0.095-0.145c-0.022-0.049-0.034-0.099-0.046-0.149
	c-0.009-0.035-0.027-0.065-0.031-0.101c-0.002-0.016,0.005-0.028,0.004-0.044c-0.003-0.055,0.008-0.107,0.017-0.161
	c0.008-0.049,0.012-0.097,0.028-0.143c0.017-0.045,0.044-0.084,0.068-0.127c0.028-0.047,0.055-0.095,0.092-0.135
	c0.01-0.012,0.014-0.025,0.023-0.036c0.096-0.093,9.591-9.139,22.337,2.155c1.591-0.069,3.146,0.454,4.412,1.506
	c1.488,1.236,2.439,3.104,2.61,5.122v0.001c0.159,1.886-0.812,3.02-1.669,4.022c-0.908,1.06-1.692,1.978-1.537,3.826
	c0.057,0.662,0.362,1.271,0.84,1.667c0.221,0.185,0.471,0.311,0.732,0.386c0.218-2.18,1.845-3.974,3.957-4.184
	c4.396-0.44,7.604-5.175,7.15-10.556c-0.003-0.04,0.011-0.075,0.014-0.113c0.003-0.055,0.004-0.107,0.018-0.16
	c0.014-0.051,0.037-0.095,0.06-0.141c0.023-0.045,0.042-0.09,0.073-0.13c0.034-0.045,0.076-0.078,0.119-0.115
	c0.028-0.025,0.047-0.056,0.08-0.077c0.01-0.006,0.02-0.006,0.03-0.012c0.045-0.026,0.095-0.039,0.145-0.056
	c0.052-0.018,0.102-0.039,0.154-0.046c0.011-0.001,0.02-0.007,0.031-0.008c0.037-0.004,0.07,0.01,0.107,0.012
	c0.058,0.003,0.112,0.004,0.168,0.02c0.049,0.014,0.092,0.037,0.138,0.059c0.045,0.022,0.09,0.042,0.131,0.073
	c0.045,0.034,0.079,0.076,0.115,0.119c0.024,0.028,0.057,0.047,0.076,0.079c0.186,0.291,4.548,7.2,3.131,13.139
	c-0.54,2.266-1.857,4.078-3.898,5.406c0.347,6.568-3.636,11.076-7.858,15.835c-2.737,3.084-5.517,6.232-7.359,10.108l42.893,42.893
	c2.561-4.186,4.603-8.271,4.23-12.697c-0.036-0.432,0.28-0.814,0.712-0.856c3.483-0.348,4.888,2.395,6.127,4.813
	c1.29,2.52,2.419,4.708,5.456,4.643c0.249-0.919,0.724-2.994,0.724-5.462c0-3.185-0.793-7.016-3.891-9.817
	c-0.169-0.152-0.262-0.368-0.262-0.588c0-0.083,0.014-0.167,0.04-0.248c0.099-0.299,0.363-0.511,0.676-0.542
	c7.243-0.723,14.022,9.27,16.392,13.194c1.718-4.744,7.237-18.045,15.385-18.858c0.5-0.05,0.936,0.117,1.23,0.471
	c0.813,0.983,0.265,3.013-0.86,6.816c-0.786,2.657-1.677,5.669-1.527,7.434c0.105,1.251,0.763,2.411,1.901,3.358
	c1.987,1.652,5.146,2.441,8.451,2.11c10.605-1.058,18.787-7.189,18.24-13.666c-0.043-0.513-0.352-1.012-0.915-1.48
	c-2.314-1.925-8.012-2.803-14.177-2.186c-0.267,0.026-0.529-0.082-0.697-0.29c-0.116-0.143-0.177-0.32-0.177-0.5
	c0-0.081,0.014-0.162,0.038-0.241l0.837-2.613c0.101-0.315,0.386-0.534,0.717-0.551c0,0,2.526-0.124,4.743-0.233
	c-1.811-0.271-4.047-0.605-4.047-0.605c-0.23-0.034-0.435-0.168-0.558-0.365c-0.079-0.128-0.119-0.272-0.119-0.419
	c0-0.082,0.012-0.163,0.038-0.242l0.809-2.527c0.133-0.413,0.572-0.643,0.986-0.518c0.057,0.018,5.695,1.697,12.316,1.037
	c5.422-0.542,9.376-6.399,8.812-13.059c-0.267-3.152-1.436-5.55-3.577-7.33c-4.67-3.882-14.037-5.061-28.638-3.604
	c-0.212,0.022-0.424-0.044-0.586-0.18c-0.165-0.136-0.266-0.331-0.284-0.543l-0.982-11.625c-0.113-0.085-0.232-0.162-0.34-0.252
	c-1.688-1.401-2.709-3.291-2.882-5.321c-0.297-3.52,2.122-6.649,5.394-6.975c8.295-0.828,15.3,0.882,17.283,1.435
	c1.21-1.856,5.668-8.047,11.763-8.655c3.4-0.34,6.463,1.967,8.09,3.483c0.894-4.01,5.688-7.476,11.825-8.277
	c5.144-6.853,4.24-17.204,4.23-17.309c-0.052-0.534,0.339-1.01,0.873-1.064l16.938-1.69c0.262-0.025,0.52,0.054,0.721,0.222
	c0.201,0.167,0.327,0.407,0.35,0.668l1.499,17.753c0.002,0.027,0.003,0.056,0.003,0.083c0,0.496-0.376,0.92-0.879,0.971
	c0,0-1.455,0.145-2.442,0.244c0.107,1.305,0.426,5.155,0.536,6.502c1.296-0.133,4.57-0.467,5.825-0.596
	c-0.13-1.54-0.706-8.367-0.706-8.367c-0.002-0.028-0.003-0.056-0.003-0.084c0-0.474,0.344-0.885,0.82-0.963l14.537-2.353
	c0.277-0.044,0.559,0.032,0.776,0.21c0.217,0.18,0.347,0.442,0.355,0.723c0,0,0.518,15.991,0.518,16.002
	c0,0.499-0.378,0.921-0.879,0.971c0,0-6.111,0.61-7.62,0.761c0.107,1.305,0.426,5.155,0.535,6.503
	c1.296-0.133,4.57-0.467,5.826-0.595c-0.09-1.051-0.232-2.736-0.232-2.736c-0.002-0.028-0.004-0.057-0.004-0.084
	c0-0.496,0.377-0.92,0.88-0.971l16.326-1.63c0.26-0.025,0.521,0.054,0.721,0.222c0.201,0.166,0.327,0.407,0.349,0.668l1.556,18.414
	c0.046,0.536-0.353,1.008-0.888,1.055c-0.096,0.009-9.589,0.925-14.811,7.67c0.048,0.728,0.077,1.446,0.077,2.141
	c0,3.577-0.564,6.638-1.005,8.486c2.786-1.375,5.166-1.574,7.093-0.588c3.79,1.941,4.219,7.711,4.234,7.956
	c0.001,0.018,0.002,0.036,0.002,0.054c0,0.404-0.308,0.748-0.716,0.789c-8.341,0.832-14.773,6.447-14.773,12.713
	c0,0.002,0.002,0.004,0.002,0.006c2.023-0.004,3.985,0.71,5.6,2.052c2.015,1.677,3.305,4.208,3.535,6.945
	c0.002,0.023,0.003,0.046,0.003,0.068c0,0.403-0.307,0.748-0.716,0.788c-9.718,0.97-13.409,4.457-14.648,6.136
	c0.979,0.176,1.943,0.549,2.83,1.286c2.32,1.93,3.908,5.481,4.249,9.502c0.001,0.023,0.002,0.046,0.002,0.068
	c0,0.403-0.307,0.747-0.715,0.788c-7.842,0.782-13.646,9.44-13.646,19.809c0,0.779,0.033,1.568,0.099,2.364
	c0.305,3.595,4.257,10.078,9.097,11.667c3.189,1.047,6.286-0.113,9.204-3.449c0.208-0.241,0.543-0.331,0.845-0.231
	c0.303,0.099,0.517,0.37,0.543,0.686c0.864,10.245-7.212,19.456-18.006,20.532c-6.93,0.693-13.073,0.099-15.883-1.472
	c0.472,7.947-0.239,13.543-0.993,19.427c-0.842,6.565-1.711,13.354-0.818,23.913c0.292,3.458,0.607,6.703,0.938,9.738l58.365,58.363
	c31.458-35.203,50.591-81.655,50.591-132.581C504.061,269.45,414.938,180.327,305,180.327z M328.715,293.801
	c8.673-0.865,15.991,3.277,16.298,3.454c0.3,0.171,0.453,0.517,0.381,0.854c-0.072,0.338-0.354,0.59-0.697,0.623
	c-11.939,1.192-16.499,4.665-20.163,7.456c-2.729,2.078-5.086,3.872-9.467,4.31c-7.062,0.705-13.845-1.164-18.611-5.126
	c-3.553-2.954-5.619-6.743-5.975-10.958c-0.711-8.418,1.034-14.262,2.438-18.957c1.771-5.933,2.943-9.852-1.896-15.181
	c-0.259-0.285-0.275-0.716-0.039-1.021c0.236-0.305,0.658-0.395,0.998-0.214c12.536,6.641,12.66,11.388,12.932,21.79
	c0.069,2.665,0.148,5.686,0.448,9.239c0.206,2.426,1.338,4.661,3.107,6.132c1.577,1.311,3.535,1.926,5.513,1.729
	c3.626-0.362,5.159-1.118,6.78-1.919C322.533,295.139,324.363,294.234,328.715,293.801z"/>
</svg>
