<?xml version="1.0" encoding="iso-8859-1"?>
<!-- Generator: Adobe Illustrator 24.0.1, SVG Export Plug-In . SVG Version: 6.00 Build 0)  -->
<svg version="1.1" id="Layer_1" xmlns="http://www.w3.org/2000/svg" xmlns:xlink="http://www.w3.org/1999/xlink" x="0px" y="0px"
	 viewBox="0 0 612 792" style="enable-background:new 0 0 612 792;" xml:space="preserve">
<path d="M143.542,142.874v444.292c0,9.583,4.712,18.598,12.923,26.605c24.66,23.979,81.114,40.306,147.036,40.353
	c43.941-0.005,83.693-7.322,112.605-19.247c14.454-5.969,26.21-13.084,34.43-21.105c8.211-8.008,12.923-17.022,12.923-26.605
	V142.874H143.542z"/>
<rect x="146.792" y="146.125" style="fill:#ED1C24;" width="313.415" height="38.083"/>
<path style="fill:#FFFFFF;" d="M448.266,611.447c-23.381,22.928-79.413,39.475-144.765,39.426
	c-43.576,0.006-82.989-7.286-111.366-19.001c-14.188-5.851-25.608-12.813-33.399-20.425c-7.804-7.63-11.943-15.81-11.943-24.281
	V187.458h313.415v399.708C460.207,595.638,456.067,603.817,448.266,611.447z"/>
<path style="fill:#FFFFFF;" d="M182.915,169.329l-0.014,5.756c0,0.401-0.114,0.771-0.342,1.107
	c-0.319,0.465-0.784,0.697-1.395,0.697c-0.72,0-1.285-0.292-1.695-0.875c-0.319-0.456-0.479-0.943-0.479-1.463
	c0-2.023,0.064-5.064,0.191-9.119c0.128-4.056,0.191-7.096,0.191-9.119c0-0.511,0.182-0.948,0.547-1.313
	c0.364-0.364,0.82-0.547,1.367-0.547s1,0.183,1.36,0.547c0.36,0.364,0.54,0.802,0.54,1.313c0,0.82-0.041,1.928-0.123,3.322
	c-0.1,1.622-0.16,2.729-0.178,3.322c0.638-0.602,3.003-3.136,7.096-7.602c0.419-0.456,0.902-0.684,1.449-0.684
	c0.52,0,0.973,0.183,1.36,0.547c0.387,0.364,0.581,0.807,0.581,1.326c0,0.566-1.085,2.032-3.254,4.402
	c-1.605,1.741-3.295,3.459-5.072,5.154c0.993,0.938,1.991,1.878,2.994,2.816c1.167,1.075,2.215,1.96,3.145,2.652
	c0.465,0.337,0.966,0.593,1.504,0.766c0.975,0.31,1.463,0.907,1.463,1.791c0,0.392-0.123,0.771-0.369,1.135
	c-0.337,0.492-0.807,0.738-1.408,0.738c-1.304,0-2.994-0.852-5.072-2.557C186.683,172.934,185.22,171.563,182.915,169.329z"/>
<path style="fill:#FFFFFF;" d="M200.927,176.808c-0.611,0-1.14-0.189-1.586-0.567c-0.447-0.378-0.67-0.805-0.67-1.278
	c0-0.483,0.223-0.918,0.67-1.306c0.446-0.388,0.975-0.581,1.586-0.581c0.647,0,1.18,0.183,1.6,0.547
	c0.419,0.364,0.629,0.811,0.629,1.34c0,0.483-0.219,0.911-0.656,1.285C202.061,176.621,201.537,176.808,200.927,176.808z"/>
<path style="fill:#FFFFFF;" d="M235.187,174.853c-2.124,0.793-4.808,1.189-8.053,1.189c-0.547,0-1.037-0.227-1.47-0.684
	c-0.433-0.456-0.65-0.943-0.65-1.463v-14.492c-0.027-0.62-0.05-1.239-0.068-1.859c-0.027-0.702-0.005-1.294,0.068-1.777
	c0.128-0.856,0.925-1.376,2.393-1.559c0.692-0.2,1.841-0.301,3.445-0.301c1.723,0,3.372,0.556,4.949,1.668
	c1.85,1.294,2.775,2.912,2.775,4.854c0,1.048-0.191,1.933-0.574,2.652c-0.301,0.583-0.825,1.208-1.572,1.873
	c0.884,0.429,1.668,1.075,2.352,1.941c0.774,0.966,1.162,1.928,1.162,2.885c0,1.212-0.661,2.36-1.982,3.445
	C237.078,173.945,236.153,174.488,235.187,174.853z M230.853,157.612c-1.176,0-1.882,0.009-2.119,0.027l0.014,2.898l-0.014,2.871
	c0.829,0.101,1.454,0.132,1.873,0.096c2.789-0.219,4.184-1.244,4.184-3.076c0-0.648-0.41-1.271-1.23-1.873
	C232.712,157.927,231.81,157.612,230.853,157.612z M232.453,167.278c-0.83,0-2.069-0.032-3.719-0.096v5.113
	c1.567-0.082,3.268-0.383,5.1-0.902c1.604-0.456,2.397-0.948,2.379-1.477c-0.027-0.702-0.542-1.326-1.545-1.873
	C233.883,167.606,233.145,167.352,232.453,167.278z"/>
<path style="fill:#FFFFFF;" d="M248.899,176.192c-1.687,0-3.136-0.579-4.348-1.736c-1.331-1.267-2.028-2.958-2.092-5.072
	c-0.064-2.015,0.487-3.81,1.654-5.387c1.385-1.859,3.313-2.789,5.783-2.789c1.823,0,3.272,0.729,4.348,2.188
	c0.966,1.313,1.449,2.939,1.449,4.881c0,2.114-0.565,3.919-1.695,5.414C252.731,175.358,251.032,176.192,248.899,176.192z
	 M249.719,164.817c-1.121-0.009-2.005,0.501-2.652,1.531c-0.547,0.866-0.82,1.878-0.82,3.035c0,1.094,0.31,1.933,0.93,2.516
	c0.492,0.465,1.066,0.697,1.723,0.697c0.793,0,1.481-0.268,2.064-0.807c0.665-0.629,1.02-1.482,1.066-2.557
	C252.148,166.299,251.378,164.826,249.719,164.817z"/>
<path style="fill:#FFFFFF;" d="M263.322,173.376c0,1.732-0.629,2.598-1.887,2.598c-0.547,0-0.998-0.173-1.354-0.519
	c-0.355-0.347-0.533-0.793-0.533-1.34v-18.908c0-0.528,0.191-0.962,0.574-1.299c0.364-0.31,0.815-0.465,1.354-0.465
	c0.538,0,0.979,0.162,1.326,0.485c0.346,0.323,0.52,0.75,0.52,1.278V173.376z"/>
<path style="fill:#FFFFFF;" d="M277.908,161.646c0.118-3.108,0.26-5.255,0.424-6.439c0.155-1.075,0.747-1.613,1.777-1.613
	c0.538,0,0.971,0.175,1.299,0.524c0.328,0.351,0.492,0.778,0.492,1.284c0,1.335-0.103,3.323-0.308,5.965
	c-0.205,2.642-0.308,4.63-0.308,5.964c0,3.259,0.104,5.441,0.314,6.545c0.027,0.147,0.041,0.28,0.041,0.4
	c0,0.506-0.183,0.923-0.547,1.249c-0.365,0.327-0.789,0.49-1.271,0.49c-0.675,0-1.176-0.301-1.504-0.902
	c-0.62,0.374-1.263,0.617-1.928,0.731c-0.665,0.114-1.354,0.171-2.064,0.171c-2.042,0-3.737-0.651-5.086-1.955
	c-1.376-1.331-2.064-3.026-2.064-5.086c0-2.452,0.692-4.432,2.078-5.94c1.385-1.509,3.194-2.263,5.428-2.263
	c0.684,0,1.294,0.073,1.832,0.219C277.051,161.135,277.516,161.354,277.908,161.646z M277.635,165.952
	c-0.301-0.574-0.693-1.003-1.176-1.285c-0.483-0.282-1.058-0.424-1.723-0.424c-1.349,0-2.361,0.39-3.035,1.169
	c-0.675,0.779-1.012,1.948-1.012,3.507c0,0.984,0.364,1.827,1.094,2.529c0.729,0.702,1.577,1.053,2.543,1.053
	c0.702,0,1.235-0.082,1.6-0.246c0.246-0.109,0.665-0.401,1.258-0.875c0.155-0.128,0.305-0.268,0.451-0.424
	C277.616,170.519,277.616,168.851,277.635,165.952z"/>
<path style="fill:#FFFFFF;" d="M292.358,176.015c-2.179,0-3.961-0.519-5.346-1.559c-1.531-1.148-2.297-2.767-2.297-4.854
	c0-2.306,0.606-4.257,1.818-5.852c1.349-1.768,3.167-2.652,5.455-2.652c1.586,0,2.903,0.255,3.951,0.766
	c1.376,0.675,2.064,1.723,2.064,3.145c0,1.003-0.561,1.892-1.682,2.666c-0.511,0.355-1.536,0.875-3.076,1.559l-4.608,2.037
	c0.438,0.474,0.966,0.829,1.586,1.066c0.62,0.237,1.331,0.355,2.133,0.355c1.221,0,2.256-0.251,3.103-0.752
	c0.756-0.446,1.362-0.67,1.818-0.67c0.948,0,1.422,0.46,1.422,1.381c0,1.039-0.761,1.887-2.283,2.543
	C295.143,175.741,293.789,176.015,292.358,176.015z M291.989,164.407c-0.848,0-1.572,0.282-2.174,0.848
	c-0.602,0.566-1.085,1.413-1.449,2.543c1.03-0.446,2.055-0.889,3.076-1.326c1.23-0.556,2.21-1.071,2.939-1.545
	C293.771,164.58,292.974,164.407,291.989,164.407z"/>
<path style="fill:#FFFFFF;" d="M313.699,165.528c-0.082,1.395-0.717,2.092-1.9,2.092c-1.148,0-1.723-0.593-1.723-1.777l-0.068-1.381
	c-2.051,0.328-3.519,1.381-4.402,3.158l0.014,6.877c0,0.52-0.178,0.95-0.533,1.292c-0.355,0.342-0.807,0.513-1.354,0.513
	c-0.565,0-1.003-0.183-1.313-0.547c-0.292-0.328-0.438-0.747-0.438-1.258v-8.955c0-0.282,0.009-0.704,0.027-1.265
	c0.018-0.561,0.027-0.982,0.027-1.265c0-0.511,0.152-0.936,0.458-1.278c0.305-0.342,0.74-0.513,1.306-0.513
	c1.012,0,1.614,0.52,1.805,1.559c1.613-1.203,3.404-1.805,5.372-1.805c1.822,0,2.734,1.212,2.734,3.637
	C313.713,165.077,313.707,165.383,313.699,165.528z"/>
<path style="fill:#FFFFFF;" d="M323.309,175.96c-1.275,0-2.488-0.224-3.637-0.67c-0.336,0.337-0.746,0.506-1.23,0.506
	c-0.492,0-0.914-0.164-1.264-0.492c-0.352-0.328-0.527-0.738-0.527-1.23c0-0.219,0.014-0.554,0.041-1.005
	c0.027-0.451,0.041-0.786,0.041-1.005v-15.49c0-0.656,0.147-1.239,0.438-1.75c0.365-0.648,0.885-0.971,1.559-0.971
	c0.977,0,1.463,0.528,1.463,1.586c0,0.118-0.016,0.308-0.047,0.567c-0.033,0.26-0.049,0.449-0.049,0.567v5.236
	c0.676-0.374,1.322-0.654,1.941-0.841c0.621-0.186,1.217-0.28,1.791-0.28c2.143,0,3.875,0.779,5.195,2.338
	c1.23,1.458,1.846,3.227,1.846,5.305c0,2.114-0.715,3.905-2.146,5.373C327.266,175.208,325.461,175.96,323.309,175.96z
	 M323.828,164.188c-0.473,0-1.02,0.137-1.641,0.41c-0.619,0.273-1.316,0.684-2.092,1.231c-0.008,0.866-0.008,2.803,0,5.81
	c1.25,0.538,2.32,0.807,3.213,0.807c1.158,0,2.111-0.39,2.857-1.169c0.748-0.779,1.121-1.762,1.121-2.946
	c0-1.185-0.305-2.165-0.916-2.939C325.734,164.59,324.887,164.188,323.828,164.188z"/>
<path style="fill:#FFFFFF;" d="M341.438,176.015c-2.18,0-3.961-0.519-5.346-1.559c-1.531-1.148-2.297-2.767-2.297-4.854
	c0-2.306,0.605-4.257,1.818-5.852c1.348-1.768,3.166-2.652,5.455-2.652c1.586,0,2.902,0.255,3.951,0.766
	c1.375,0.675,2.065,1.723,2.065,3.145c0,1.003-0.561,1.892-1.682,2.666c-0.512,0.355-1.537,0.875-3.076,1.559l-4.607,2.037
	c0.438,0.474,0.965,0.829,1.586,1.066c0.619,0.237,1.33,0.355,2.133,0.355c1.221,0,2.256-0.251,3.103-0.752
	c0.756-0.446,1.361-0.67,1.818-0.67c0.947,0,1.422,0.46,1.422,1.381c0,1.039-0.762,1.887-2.283,2.543
	C344.221,175.741,342.867,176.015,341.438,176.015z M341.068,164.407c-0.848,0-1.572,0.282-2.174,0.848
	c-0.602,0.566-1.086,1.413-1.449,2.543c1.029-0.446,2.055-0.889,3.076-1.326c1.231-0.556,2.209-1.071,2.939-1.545
	C342.85,164.58,342.053,164.407,341.068,164.407z"/>
<path style="fill:#FFFFFF;" d="M362.777,165.528c-0.082,1.395-0.715,2.092-1.9,2.092c-1.149,0-1.723-0.593-1.723-1.777l-0.068-1.381
	c-2.051,0.328-3.517,1.381-4.402,3.158l0.014,6.877c0,0.52-0.178,0.95-0.533,1.292c-0.355,0.342-0.807,0.513-1.354,0.513
	c-0.564,0-1.002-0.183-1.313-0.547c-0.291-0.328-0.438-0.747-0.438-1.258v-8.955c0-0.282,0.01-0.704,0.027-1.265
	c0.018-0.561,0.027-0.982,0.027-1.265c0-0.511,0.152-0.936,0.459-1.278c0.305-0.342,0.74-0.513,1.305-0.513
	c1.012,0,1.613,0.52,1.805,1.559c1.613-1.203,3.404-1.805,5.373-1.805c1.822,0,2.734,1.212,2.734,3.637
	C362.791,165.077,362.787,165.383,362.777,165.528z"/>
<path style="fill:#FFFFFF;" d="M378.568,167.237c-0.383,2.142-0.611,4.402-0.684,6.781c-0.092,2.944-0.584,5.081-1.477,6.412
	c-1.195,1.777-3.309,2.666-6.344,2.666c-3.547,0-5.318-0.702-5.318-2.105c0-0.501,0.158-0.907,0.478-1.217
	c0.318-0.31,0.738-0.465,1.258-0.465c0.41,0,0.998,0.077,1.764,0.232c0.766,0.155,1.443,0.232,2.037,0.232
	c1.357,0,2.359-0.415,3.008-1.244c0.619-0.812,0.984-2.101,1.094-3.869c-0.465,0.474-0.99,0.829-1.572,1.066
	c-0.584,0.237-1.223,0.355-1.914,0.355c-1.814,0-3.289-0.59-4.424-1.771c-1.135-1.181-1.701-2.691-1.701-4.532
	c0-2.48,0.756-4.484,2.27-6.016c1.566-1.586,3.685-2.379,6.357-2.379c0.855,0,1.594,0.104,2.215,0.314
	c0.619,0.21,1.121,0.528,1.504,0.957c1.156,0.137,1.736,0.82,1.736,2.051C378.855,165.318,378.76,166.162,378.568,167.237z
	 M373.264,164.503c-1.541,0-2.74,0.506-3.596,1.518c-0.766,0.921-1.148,2.114-1.148,3.582c0,1.085,0.205,1.9,0.615,2.447
	c0.41,0.547,1.025,0.82,1.846,0.82c0.746,0,1.498-0.433,2.256-1.299c0.711-0.82,1.115-1.632,1.217-2.434
	c0.172-0.875,0.373-2.237,0.602-4.088c-0.311-0.183-0.615-0.319-0.916-0.41C373.838,164.549,373.545,164.503,373.264,164.503z"/>
<path style="fill:#FFFFFF;" d="M407.338,158.296c-0.209,0-0.441-0.041-0.697-0.123c-1.176-0.383-2.611-0.574-4.307-0.574
	c-0.555,0-1.195,0.036-1.92,0.109c-0.725,0.073-1.529,0.183-2.414,0.328c0.02,1.75,0.02,3.254,0,4.512
	c1.387-0.337,2.535-0.506,3.445-0.506c1.695,0,3.172,0.077,4.43,0.232c1.176,0.146,1.764,0.766,1.764,1.859
	c0,0.528-0.186,0.971-0.561,1.326c-0.373,0.355-0.828,0.533-1.367,0.533c-0.473,0-1.184-0.036-2.133-0.109
	c-0.947-0.073-1.658-0.109-2.133-0.109c-0.664,0-1.813,0.21-3.445,0.629v8.572c0,0.528-0.207,0.971-0.621,1.326
	c-0.416,0.355-0.891,0.533-1.43,0.533c-0.527,0-0.957-0.176-1.285-0.526c-0.328-0.35-0.492-0.795-0.492-1.333v-15.668
	c0-0.355,0.008-0.894,0.022-1.613c0.014-0.72,0.02-1.258,0.02-1.613c0-0.538,0.18-0.984,0.541-1.34
	c0.359-0.355,0.813-0.533,1.359-0.533c0.348,0,0.652,0.068,0.916,0.205c1.059-0.183,2.029-0.316,2.912-0.403
	c0.885-0.087,1.682-0.13,2.393-0.13c1.039,0,2.348,0.214,3.924,0.643c1.979,0.538,2.967,1.162,2.967,1.873
	c0,0.52-0.184,0.966-0.553,1.34C408.303,158.109,407.857,158.296,407.338,158.296z"/>
<path style="fill:#FFFFFF;" d="M426.109,160.825c-0.82,0-1.428-0.433-1.818-1.299c-0.184-0.41-0.365-0.656-0.547-0.738
	c-0.137-0.063-0.498-0.096-1.08-0.096c-1.148,0-2.475,0.894-3.979,2.68c-2.105,2.497-3.158,4.835-3.158,7.014
	c0,0.993,0.332,1.846,0.998,2.557c0.664,0.711,1.463,1.066,2.393,1.066c0.902,0,1.818-0.237,2.748-0.711
	c0.328-0.173,1.02-0.62,2.078-1.34c0.711-0.474,1.248-0.711,1.613-0.711c0.547,0,1.012,0.2,1.395,0.602
	c0.355,0.374,0.533,0.802,0.533,1.285c0,0.538-0.238,1.007-0.711,1.408c-2.508,2.114-5.059,3.172-7.656,3.172
	c-2.051,0-3.783-0.747-5.195-2.242c-1.35-1.44-2.023-3.136-2.023-5.086c0-3.054,1.334-6.171,4.006-9.352
	c2.27-2.698,4.588-4.047,6.959-4.047c0.4,0,0.764,0.014,1.086,0.041c0.324,0.027,0.609,0.068,0.855,0.123
	c0.4-0.392,0.883-0.588,1.449-0.588c0.93,0,1.504,0.533,1.723,1.6c0.154,0.766,0.233,1.659,0.233,2.68
	c0,0.456-0.133,0.87-0.397,1.244C427.266,160.579,426.766,160.825,426.109,160.825z"/>
<path style="fill:#ED1C24;" d="M275.102,627.406v7.01h-22.484c0.243-2.649,0.974-5.16,2.191-7.533
	c1.217-2.372,3.621-5.519,7.213-9.44c2.892-3.169,4.665-5.317,5.319-6.445c0.882-1.558,1.324-3.098,1.324-4.619
	c0-1.683-0.385-2.977-1.153-3.881c-0.769-0.904-1.83-1.355-3.185-1.355c-1.339,0-2.404,0.475-3.195,1.423
	c-0.792,0.949-1.248,2.524-1.37,4.727l-6.392-0.752c0.381-4.153,1.575-7.134,3.584-8.942c2.009-1.809,4.519-2.713,7.533-2.713
	c3.302,0,5.897,1.047,7.784,3.143c1.887,2.094,2.83,4.699,2.83,7.814c0,1.773-0.27,3.46-0.81,5.063
	c-0.54,1.602-1.396,3.281-2.567,5.035c-0.776,1.164-2.177,2.838-4.2,5.021c-2.024,2.186-3.307,3.635-3.847,4.352
	c-0.54,0.716-0.978,1.414-1.313,2.094H275.102z"/>
<path style="fill:#ED1C24;" d="M301.171,604.688l-6.209,0.805c-0.152-1.504-0.548-2.613-1.186-3.33
	c-0.64-0.715-1.469-1.074-2.488-1.074c-1.354,0-2.5,0.717-3.435,2.148c-0.936,1.434-1.525,4.414-1.769,8.943
	c1.598-2.22,3.583-3.33,5.957-3.33c2.679,0,4.973,1.199,6.883,3.599c1.909,2.399,2.865,5.497,2.865,9.292
	c0,4.028-1.005,7.26-3.014,9.695c-2.009,2.435-4.588,3.652-7.738,3.652c-3.379,0-6.156-1.545-8.332-4.633
	c-2.177-3.088-3.265-8.15-3.265-15.188c0-7.215,1.134-12.416,3.401-15.603c2.268-3.186,5.212-4.78,8.834-4.78
	c2.542,0,4.645,0.837,6.313,2.512C299.653,599.07,300.715,601.5,301.171,604.688z M286.631,621.149c0,2.453,0.479,4.347,1.438,5.681
	c0.959,1.333,2.055,2,3.287,2c1.188,0,2.176-0.546,2.968-1.639c0.791-1.092,1.187-2.882,1.187-5.371c0-2.56-0.426-4.436-1.278-5.625
	c-0.852-1.191-1.917-1.787-3.195-1.787c-1.232,0-2.275,0.568-3.127,1.705C287.057,617.251,286.631,618.93,286.631,621.149z"/>
<path style="fill:#ED1C24;" d="M316.282,594.885c3.242,0,5.775,1.361,7.602,4.082c2.176,3.223,3.264,8.567,3.264,16.033
	c0,7.447-1.096,12.801-3.287,16.058c-1.811,2.686-4.336,4.029-7.578,4.029c-3.256,0-5.882-1.473-7.875-4.418
	c-1.994-2.945-2.99-8.195-2.99-15.751c0-7.412,1.096-12.747,3.287-16.006C310.515,596.227,313.041,594.885,316.282,594.885z
	 M316.282,601.143c-0.775,0-1.469,0.291-2.077,0.873c-0.608,0.581-1.081,1.624-1.415,3.128c-0.441,1.952-0.662,5.237-0.662,9.857
	c0,4.619,0.197,7.792,0.594,9.519c0.396,1.729,0.894,2.879,1.495,3.451c0.601,0.573,1.29,0.859,2.065,0.859
	c0.776,0,1.469-0.291,2.078-0.873c0.607-0.582,1.08-1.625,1.414-3.129c0.441-1.934,0.662-5.209,0.662-9.828
	c0-4.619-0.197-7.793-0.594-9.521c-0.395-1.727-0.894-2.882-1.494-3.463C317.747,601.433,317.059,601.143,316.282,601.143z"/>
<path style="fill:#ED1C24;" d="M344.019,634.416v-7.922h-13.697v-6.607l14.518-25.002h5.389v24.976h4.154v6.634h-4.154v7.922
	H344.019z M344.019,619.86v-13.454l-7.693,13.454H344.019z"/>
<path d="M169.442,197.525h127.944c25.327,0,44.213,1.282,56.658,3.837c12.445,2.56,23.58,7.898,33.405,16.011
	c9.825,8.117,18.013,18.922,24.563,32.419c6.55,13.497,9.825,28.627,9.825,45.387c0,18.174-4.039,34.847-12.117,50.019
	c-8.079,15.176-19.033,26.556-32.86,34.14c19.504,6.881,34.497,18.616,44.978,35.198c10.48,16.586,15.72,36.083,15.72,58.487
	c0,17.645-3.384,34.802-10.152,51.474c-6.769,16.674-16.014,29.996-27.729,39.963c-11.719,9.97-26.166,16.102-43.34,18.393
	c-10.773,1.414-36.755,2.295-77.945,2.646H169.442V197.525z M234.07,262.1v89.716h42.357c25.18,0,40.829-0.439,46.942-1.323
	c11.06-1.588,19.759-6.219,26.091-13.894c6.332-7.675,9.497-17.773,9.497-30.302c0-11.996-2.729-21.743-8.188-29.244
	c-5.458-7.497-13.574-12.042-24.344-13.629c-6.407-0.881-24.819-1.323-55.239-1.323H234.07z M234.07,416.39v103.742h59.824
	c23.287,0,38.061-0.794,44.322-2.382c9.607-2.117,17.429-7.277,23.471-15.483c6.038-8.203,9.061-19.186,9.061-32.948
	c0-11.645-2.33-21.523-6.986-29.641c-4.66-8.113-11.391-14.026-20.196-17.732c-8.809-3.705-27.912-5.558-57.312-5.558H234.07z"/>
<path style="fill:#ED1C24;" d="M289.909,428.396c-8.402,9.002-12.602,21.638-12.602,37.907c0,15.381,4.178,27.506,12.536,36.373
	c8.356,8.869,19.025,13.304,32.006,13.304c10.49,0,19.147-2.59,25.972-7.768c6.823-5.178,11.702-13.103,14.636-23.772l-19.138-6.067
	c-1.645,7.157-4.357,12.401-8.134,15.736c-3.779,3.333-8.292,5.001-13.536,5.001c-7.113,0-12.893-2.622-17.337-7.868
	c-4.445-5.245-6.668-14.047-6.668-26.405c0-11.646,2.255-20.07,6.768-25.273c4.512-5.2,10.392-7.801,17.637-7.801
	c5.245,0,9.702,1.467,13.37,4.4c3.667,2.935,6.078,6.936,7.234,12.003l19.537-4.668c-1.548-5.444-3.646-9.987-6.27-13.667
	c-3.529-3.255-7.634-5.897-12.355-7.884c-6.328-2.662-17.97-4.367-34.925-5.117C301.375,418.947,295.13,422.801,289.909,428.396z"/>
<polygon style="fill:#ED1C24;" points="262.355,345.051 310.724,345.051 310.724,320.918 262.355,320.918 262.355,290.384 
	319.191,290.384 319.191,266.252 238.222,266.252 238.222,351.815 262.355,351.815 "/>
<rect x="238.222" y="416.39" style="fill:#ED1C24;" width="24.133" height="6.862"/>
</svg>
