<?xml version="1.0" encoding="iso-8859-1"?>
<!-- Generator: Adobe Illustrator 24.0.1, SVG Export Plug-In . SVG Version: 6.00 Build 0)  -->
<svg version="1.1" id="Layer_1" xmlns="http://www.w3.org/2000/svg" xmlns:xlink="http://www.w3.org/1999/xlink" x="0px" y="0px"
	 viewBox="0 0 612 792" style="enable-background:new 0 0 612 792;" xml:space="preserve">
<path d="M450.056,523.036c18.488-22.129,29.292-48.632,29.292-77.11c0-58.413-45.361-108.56-109.597-129.506l-46.209-106.106
	l45.78-37.732v-50.15l-94.824,78.156v-78.156h-38.7v194.052c-64.129,20.985-109.394,71.09-109.394,129.443
	c0,28.479,10.804,54.982,29.294,77.11h-29.291v146.541h59.438c27.973,0,50.608-23.894,50.608-53.427
	c0-22.574-16.798-33.54-16.798-33.54c2.48-2.477,5.243-6.19,7.88-10.138c8.421,3.167,17.215,5.8,26.3,7.889l30.946,89.216h35.563
	l30.897-89.065c5.09-1.151,10.086-2.477,14.979-3.973l32.272,93.038h35.56l45.107-130.03h100.56v-16.511H450.056z M162.586,560.036
	h4.738c6.608,0,11.953,4.111,11.953,9.191c0,5.079-5.345,9.19-11.953,9.19h-4.738V560.036z M185.845,633.457h-23.259v-31.979h13.944
	c10.089,0,18.251,8.15,18.251,18.221C194.782,627.303,190.785,633.457,185.845,633.457z M302.565,610.462l-8.58-24.739
	c2.945,0.115,5.91,0.179,8.892,0.179c2.771,0,5.524-0.065,8.266-0.166L302.565,610.462z M302.876,305.95
	c-9.661,0-19.133,0.644-28.378,1.834v-57.046l17.984-14.824l30.775,70.668c0.008,0.114,0.018,0.219,0.025,0.334
	C316.581,306.3,309.781,305.95,302.876,305.95z M416.271,610.459l-16.498-47.563c17.155-8.96,32.245-20.204,44.523-33.225
	L416.271,610.459z"/>
<rect x="344.772" y="643.777" width="29.286" height="21.502"/>
<rect x="231.065" y="643.777" width="29.289" height="21.502"/>
<rect x="458.514" y="643.775" width="29.239" height="21.501"/>
<path d="M34.051,374.955v4.894h71.48c0.802-1.644,1.63-3.275,2.491-4.894H34.051z"/>
<path d="M34.051,384.743v4.895h67.114c0.666-1.638,1.315-3.28,2.037-4.895H34.051z"/>
<path d="M34.051,394.533v4.896h63.507c0.539-1.638,1.084-3.276,1.678-4.896H34.051z"/>
<path d="M34.051,404.321v4.893h60.625c0.421-1.643,0.89-3.268,1.363-4.893H34.051z"/>
<path d="M34.051,414.109v4.895h58.442c0.304-1.645,0.697-3.266,1.054-4.895H34.051z"/>
<path d="M34.051,423.898v4.895h56.992c0.191-1.643,0.45-3.268,0.695-4.895H34.051z"/>
<path d="M34.051,433.691v4.892h56.2c0.081-1.638,0.207-3.265,0.342-4.892H34.051z"/>
<path d="M90.1,443.479H34.051v4.894H90.1c-0.014-0.819-0.074-1.625-0.074-2.447C90.026,445.104,90.086,444.299,90.1,443.479z"/>
<path d="M34.051,453.268v4.893h56.542c-0.135-1.628-0.262-3.255-0.342-4.893H34.051z"/>
<path d="M34.051,463.057v4.893h57.686c-0.245-1.627-0.504-3.253-0.694-4.893H34.051z"/>
<path d="M34.051,472.848v4.896h59.496c-0.357-1.631-0.75-3.25-1.054-4.896H34.051z"/>
<path d="M34.051,482.636v4.895h61.988c-0.474-1.625-0.944-3.253-1.363-4.895H34.051z"/>
<path d="M34.051,492.424v4.898h65.186c-0.595-1.62-1.139-3.258-1.678-4.898H34.051z"/>
<path d="M34.051,502.213v4.893h69.148c-0.72-1.615-1.369-3.255-2.034-4.893H34.051z"/>
<path d="M34.051,512.006v4.893h73.972c-0.86-1.617-1.688-3.25-2.492-4.893H34.051z"/>
<path style="fill:#FFFFFF;" d="M302.876,366.85c31.213,0,69.286,9.559,78.358,27.272c3.857,7.531,2.358,16.294-4.358,26.045H228.873
	c-6.716-9.751-8.216-18.514-4.359-26.045C233.59,376.409,271.662,366.85,302.876,366.85z"/>
<path style="fill:#FFFFFF;" d="M228.873,471.685h148.003c6.717,9.751,8.216,18.514,4.358,26.045
	c-9.072,17.715-47.146,27.271-78.358,27.271c-31.214,0-69.286-9.557-78.361-27.271C220.657,490.199,222.159,481.436,228.873,471.685
	z"/>
<path style="fill:#FFFFFF;" d="M177.26,495.417c-0.742-1.045-0.497-2.496,0.549-3.237c1.045-0.743,2.494-0.499,3.237,0.547
	c8.559,12.054,20.09,22.444,33.694,30.842l17.464-11.227c-5.299-3.618-9.409-7.782-11.823-12.494
	c-4.586-8.952-3.156-19.08,4.218-30.111c-8.036-7.074-12.005-14.88-12.005-23.81c0-8.929,3.968-16.731,12.004-23.809
	c-7.374-11.027-8.803-21.156-4.217-30.112c2.414-4.711,6.524-8.876,11.823-12.493l-17.469-11.229
	c-13.602,8.398-25.13,18.787-33.689,30.839c-0.744,1.046-2.192,1.29-3.237,0.547c-1.046-0.743-1.292-2.192-0.549-3.238
	c8.521-11.998,19.888-22.374,33.216-30.886l-26.667-17.143c-32.503,24.622-52.761,59.198-52.761,97.522s20.261,72.902,52.765,97.526
	l26.668-17.143C197.149,517.791,185.781,507.418,177.26,495.417z"/>
<path style="fill:#FFFFFF;" d="M274.022,364.631l-16.034-49.344c-26.476,5.63-50.424,16.098-70.196,30.155l48.781,31.358
	C246.706,371.076,260.004,366.996,274.022,364.631z"/>
<path style="fill:#FFFFFF;" d="M302.876,362.206c7.905,0,16.124,0.581,24.201,1.714l16.1-49.548
	c-12.933-2.449-26.417-3.78-40.303-3.78c-13.885,0-27.369,1.332-40.3,3.78l16.101,49.548
	C286.752,362.787,294.971,362.206,302.876,362.206z"/>
<path style="fill:#FFFFFF;" d="M444.948,445.924c0,32.119-19.322,60.917-49.725,80.351l26.715,17.173
	c32.505-24.621,52.765-59.199,52.765-97.523c0-38.322-20.258-72.899-52.762-97.521l-26.732,17.185
	C425.611,385.021,444.948,413.805,444.948,445.924z"/>
<path style="fill:#FFFFFF;" d="M369.179,376.803l48.78-31.359c-19.773-14.058-43.724-24.526-70.199-30.156l-16.031,49.344
	C345.75,366.996,359.048,371.077,369.179,376.803z"/>
<path style="fill:#FFFFFF;" d="M236.575,515.052l-48.78,31.356c19.773,14.057,43.72,24.523,70.194,30.154l16.032-49.343
	C260.004,524.855,246.706,520.776,236.575,515.052z"/>
<path style="fill:#FFFFFF;" d="M331.728,527.222l16.031,49.34c26.476-5.631,50.424-16.098,70.197-30.156l-48.775-31.355
	C359.048,520.776,345.75,524.858,331.728,527.222z"/>
<path style="fill:#FFFFFF;" d="M302.876,529.646c-7.905,0-16.124-0.58-24.203-1.714l-16.099,49.544
	c12.93,2.449,26.414,3.779,40.299,3.779c13.886,0,27.369-1.33,40.301-3.779l-16.098-49.544
	C319,529.065,310.781,529.646,302.876,529.646z"/>
<path style="fill:#FFFFFF;" d="M228.573,467.042c-7.598-6.369-11.336-13.285-11.336-21.116c0-7.83,3.738-14.746,11.336-21.116
	h148.608c7.597,6.37,11.333,13.286,11.333,21.116c0,7.831-3.736,14.747-11.333,21.116H228.573z"/>
<path style="fill:#FFFFFF;" d="M373.548,512.339c5.298-3.616,9.407-7.78,11.821-12.492c4.586-8.954,3.157-19.083-4.218-30.111
	c8.037-7.074,12.008-14.88,12.008-23.81c0-8.929-3.971-16.734-12.008-23.809c7.375-11.027,8.804-21.156,4.216-30.112
	c-2.414-4.71-6.523-8.875-11.819-12.49l17.38-11.173c30.126,18.584,49.375,46.439,49.375,77.582
	c0,31.143-19.247,59.005-49.378,77.586L373.548,512.339z"/>
</svg>
