<?xml version="1.0" encoding="iso-8859-1"?>
<!-- Generator: Adobe Illustrator 24.0.1, SVG Export Plug-In . SVG Version: 6.00 Build 0)  -->
<svg version="1.1" id="Layer_1" xmlns="http://www.w3.org/2000/svg" xmlns:xlink="http://www.w3.org/1999/xlink" x="0px" y="0px"
	 viewBox="0 0 612 792" style="enable-background:new 0 0 612 792;" xml:space="preserve">
<path d="M305.153,111.062c-0.233,0.244-23.839,24.736-66.119,49.696c-39.012,23.03-102.356,51.18-182.586,54.498l-1.034,0.043
	l0.609,0.837c0.254,0.348,25.356,35.433,25.356,85.939c0,48.104-13.636,69.674-26.822,90.535
	c-12.995,20.557-26.432,41.813-26.432,88.243c0,80.893,65.811,146.703,146.703,146.703c27.432,0,39.004-3.885,48.303-7.006
	c5.845-1.962,10.461-3.512,17.45-3.512c34.418,0,60.308,22.181,64.424,55.194l0.55,4.409l0.55-4.409
	c4.117-33.014,30.006-55.194,64.424-55.194c6.989,0,11.606,1.549,17.451,3.512c9.298,3.121,20.871,7.006,48.303,7.006
	c80.892,0,146.703-65.81,146.703-146.703c0-46.43-13.438-67.686-26.433-88.243c-13.187-20.86-26.823-42.431-26.823-90.535
	c0-50.507,25.103-85.591,25.356-85.939l0.609-0.836l-1.034-0.044c-80.229-3.319-143.574-31.469-182.586-54.498
	c-42.28-24.96-65.886-49.452-66.119-49.696l-0.4-0.42L305.153,111.062z"/>
<path style="fill:#FFFFFF;" d="M239.598,161.711c39.498-23.318,62.762-46.244,65.956-49.477
	c3.195,3.233,26.458,26.159,65.956,49.477c38.96,22.999,102.132,51.072,182.117,54.592c-3.617,5.342-25.006,38.928-25.006,85.772
	l0,0c0,48.424,13.723,70.133,26.994,91.126c12.911,20.424,26.261,41.542,26.261,87.651c0,80.282-65.313,145.595-145.595,145.595
	c-27.249,0-38.726-3.852-47.948-6.947c-5.941-1.995-10.632-3.57-17.805-3.57c-33.848,0-59.524,21.14-64.974,52.911
	c-5.449-31.771-31.125-52.911-64.974-52.911c-7.172,0-11.863,1.576-17.803,3.57c-9.225,3.096-20.701,6.948-47.95,6.948
	c-80.281,0-145.594-65.313-145.594-145.595c0-46.109,13.35-67.228,26.26-87.651c13.271-20.994,26.994-42.703,26.994-91.126
	c0-46.843-21.389-80.428-25.007-85.772C137.465,212.784,200.638,184.711,239.598,161.711z"/>
<path style="fill:#38499E;" d="M211.837,275.908c-0.119-0.123-22.077-22.739-22.077-22.739c-0.666-0.654-0.737-0.988-0.737-1.102
	c0-0.003,0.017-0.311,0.978-1.048l18.67-16.319c2.219-1.785,4.094-3.048,5.555-3.742c1.403-0.726,2.466-1.188,3.176-1.381
	c0.012-0.003,1.758-0.604,1.758-0.604c0.575-0.281,0.64-0.993,0.64-1.504c-0.097-0.653-0.447-1.031-0.969-1.124
	c-0.022-0.003-1.038-0.086-1.038-0.086c-1.7,0.154-4.174,0.269-7.405,0.344c0-0.001-8.446-0.344-8.446-0.344
	c-1.014-0.001-1.604,0.541-1.604,1.449c0,0.322,0.142,0.909,1.092,1.213c-0.083-0.034,1.512,0.638,1.512,0.638
	c0.545,0.184,1.032,0.437,1.453,0.752c0.257,0.236,0.401,0.583,0.401,1.026c0,0.36-0.173,0.775-0.515,1.235
	c-0.4,0.562-0.915,1.139-1.537,1.724c-0.001,0-3.43,2.972-3.43,2.972l-16.113,14.269c-0.127,0.103-0.23,0.16-0.312,0.195
	c-0.012-0.097-0.023-0.197-0.023-0.197v-17.571c0-1.283,0.226-2.24,0.672-2.844c0.444-0.61,0.92-1.051,1.415-1.313
	c0.022-0.012,1.627-0.957,1.627-0.957c0.777-0.374,0.9-0.985,0.9-1.315c0-0.942-0.61-1.278-1.182-1.278
	c-0.038,0.002-8.214,0.344-8.214,0.344c-0.001-0.001-7.7-0.344-7.7-0.344c-1.006-0.001-1.593,0.515-1.593,1.378
	c0,0.488,0.273,1.126,1.574,1.391c-0.001,0-0.001,0-0.001,0c0,0.004,2.154,0.713,2.154,0.713c0.828,0.234,1.517,0.669,2.124,1.336
	c0.488,0.633,0.775,1.735,0.823,3.242v40.119c0,1.504-0.237,2.591-0.706,3.23c-0.516,0.74-1.103,1.255-1.753,1.542
	c-2.53,0.645-3.029,1.175-3.178,1.647l-0.026,0.082v0.086c0,0.785,0.402,1.342,1.132,1.569c0.007-0.003,1.449,0.254,1.449,0.254
	c1.258-0.146,3.854-0.241,7.781-0.289c6.197,0.107,7.469,0.194,7.673,0.237l0.089,0.019l0.046,0.033l1.385-0.162
	c1.007-0.098,1.253-0.719,1.307-1.08c-0.067-1.06-0.64-1.688-1.609-1.891c-0.007,0-2.686-0.54-2.686-0.54
	c-0.864-0.197-1.634-0.676-2.314-1.458c-0.801-0.765-1.189-2.107-1.189-4.029v-16.36l0.038-0.232
	c0.257-0.01,0.593,0.074,1.168,0.634l22.597,23.002c0.021,0.021,1.108,1.155,1.108,1.155c0.449,0.565,1.012,0.892,1.663,0.96
	c0.121,0,5.122-0.286,5.124-0.286c0,0.002,4.973,0.288,4.973,0.288c0.939-0.076,1.475-0.624,1.554-1.503l0.027-0.303l-0.239-0.188
	C220.781,280.777,220.589,280.629,211.837,275.908z"/>
<path style="fill:#38499E;" d="M235.651,274.504c-0.953-1.037-1.221-1.514-1.292-1.703l-0.034-0.09l-0.063-0.074
	c-0.391-0.462-0.929-0.707-1.556-0.707c-0.474-0.054-1.208,0.229-2.948,2.669c-0.812,0.716-1.298,0.983-1.549,1.066
	c-0.976,0.494-1.163,1.131-1.163,1.586l0.003,0.059c0.051,0.483,0.428,1.21,2.838,2.939c0.911,0.827,1.306,1.28,1.468,1.506
	c0.22,0.494,0.718,0.815,1.35,0.815c0.516,0,1.278-0.288,3.004-2.424c0.696-0.711,1.286-1.198,1.719-1.412
	c0.784-0.498,0.936-1.079,0.936-1.483C238.31,276.689,237.929,275.969,235.651,274.504z"/>
<path style="fill:#38499E;" d="M286.112,270.642l-0.236-0.058l-0.204,0.134c-0.116,0.076-0.387,0.255-4.625,4.089
	c-1.368,0.967-3.484,1.857-6.236,2.605c-1.399,0.376-3.015,0.695-4.801,0.947c-1.881,0.251-3.979,0.379-6.23,0.379
	c-1.576,0-2.78-0.121-3.579-0.361c-0.712-0.213-1.193-0.527-1.43-0.936c-0.258-0.467-0.392-1.087-0.392-1.835
	c-0.001-0.037-0.078-2.845-0.078-2.845v-38.255c0-1.509,0.277-2.645,0.826-3.376c0.524-0.686,1.107-1.144,1.727-1.358
	c0.025-0.01,1.964-0.626,1.964-0.626c1.131-0.198,1.303-0.856,1.303-1.23c0-0.499-0.156-0.899-0.462-1.191
	c-0.363-0.345-0.915-0.502-1.641-0.466c-0.894,0.155-3.427,0.269-7.602,0.344c-1.883,0-3.473-0.063-4.715-0.188
	c-0.014-0.001-3.322-0.156-3.322-0.156c-0.785-0.038-1.36,0.117-1.733,0.472c-0.192,0.183-0.42,0.514-0.42,1.049
	c0,0.66,0.529,1.102,1.573,1.314c-0.069-0.019,2.124,0.779,2.124,0.779c0.885,0.206,1.6,0.563,2.199,1.085
	c0.479,0.413,0.733,1.048,0.778,1.943l-0.001,39.734c0,1.794-0.101,3.241-0.3,4.302c-0.237,0.954-0.759,1.621-1.588,2.009
	c0.013-0.005-1.494,0.643-1.494,0.643c0.031-0.012-1.154,0.474-1.154,0.474c-0.887,0.331-1.146,0.942-1.2,1.394
	c-0.004,0.464,0.169,1.391,1.761,1.391c0.009,0,9.75-0.293,9.75-0.293c0,0.001,18.132,0.293,18.132,0.293
	c1.714,0,3.186-0.104,4.383-0.311c1.246-0.281,2.53-1.111,3.847-2.474c1.033-1.059,1.988-2.304,2.838-3.698
	c0.798-1.313,1.231-2.729,1.287-4.211C287.162,271.349,286.779,270.805,286.112,270.642z"/>
<path style="fill:#38499E;" d="M301.966,274.504c-0.953-1.037-1.221-1.514-1.292-1.703l-0.035-0.09l-0.063-0.074
	c-0.391-0.462-0.929-0.707-1.556-0.707c-0.474-0.054-1.207,0.229-2.948,2.669c-0.811,0.716-1.298,0.983-1.549,1.066
	c-0.975,0.494-1.163,1.131-1.163,1.586l0.003,0.059c0.051,0.483,0.428,1.21,2.838,2.939c0.911,0.827,1.306,1.28,1.468,1.506
	c0.221,0.494,0.718,0.815,1.35,0.815c0.517,0,1.278-0.288,3.004-2.424c0.696-0.711,1.286-1.198,1.719-1.412
	c0.784-0.498,0.936-1.079,0.936-1.483C304.626,276.689,304.245,275.969,301.966,274.504z"/>
<path style="fill:#38499E;" d="M346.123,254.456c-1.597-1.287-3.355-2.358-5.231-3.193c-1.95-0.805-4.019-1.486-6.163-2.028
	c0.023,0.007-5.89-1.797-5.89-1.797c-1.918-0.504-3.649-1.149-5.165-1.922c-1.448-0.75-2.615-1.704-3.467-2.833
	c-0.884-1.108-1.328-2.49-1.328-4.118c0.048-3.45,1.324-5.87,3.898-7.391c2.554-1.529,5.436-2.303,8.567-2.303
	c7.223,0,12.041,3.249,14.729,9.931c0.004,0.011,0.78,1.405,0.78,1.405c0.289,0.822,0.776,1.294,1.393,1.294
	c0.577-0.037,0.977-0.224,1.227-0.554c0.251-0.333,0.32-0.775,0.205-1.314l-1.197-10.629c-0.206-1.456-1.139-1.611-1.53-1.611
	c-0.708,0-1.072,0.346-1.253,0.638c-0.1,0.156-0.223,0.222-0.421,0.222c-0.096-0.015-0.736-0.179-3.195-1.296
	c-1.012-0.434-2.341-0.778-3.963-1.026c-1.657-0.246-3.754-0.371-6.236-0.371c-4.767,0-8.975,1.248-12.507,3.709
	c-3.745,2.498-5.676,6.411-5.729,11.627c0,2.6,0.509,4.836,1.512,6.65c0.91,1.768,2.198,3.28,3.82,4.479
	c1.565,1.176,3.382,2.158,5.398,2.916l5.916,2.046c0.027,0.008,6.087,1.653,6.087,1.653c1.815,0.571,3.499,1.28,4.993,2.102
	c1.488,0.734,2.649,1.706,3.473,2.9c0.787,1.152,1.188,2.648,1.188,4.443c-0.101,3.927-1.545,6.795-4.415,8.752
	c-2.827,2.08-6.22,3.128-10.1,3.128c-2.621,0-4.911-0.458-6.807-1.36c-2.046-0.826-3.713-1.844-4.987-3.039
	c-1.283-1.254-2.305-2.527-3.032-3.776c-0.782-1.257-1.272-2.307-1.465-3.135c0-0.021-0.15-1.154-0.15-1.154l-0.286-0.924
	c-0.294-0.613-0.875-0.957-1.629-0.957c-0.585,0-0.931,0.266-1.117,0.49c-0.429,0.513-0.522,1.344-0.292,2.616l2.138,10.105
	c0.178,0.528,0.713,0.967,1.808,1.534c0.877,0.458,1.976,0.919,3.263,1.37c2.727,1.078,5.737,1.667,8.928,1.742
	c4.576-0.077,8.447-0.683,11.528-1.799c3.017-1.045,5.421-2.461,7.134-4.205c1.734-1.736,2.982-3.626,3.707-5.615
	c0.669-1.901,1.006-3.746,1.006-5.491c0-2.78-0.449-5.184-1.334-7.143C348.982,257.375,347.705,255.78,346.123,254.456z"/>
<path style="fill:#38499E;" d="M364.168,274.504c-0.953-1.037-1.221-1.514-1.292-1.703l-0.034-0.09l-0.063-0.074
	c-0.391-0.462-0.929-0.707-1.556-0.707c-0.474-0.054-1.208,0.229-2.948,2.669c-0.811,0.716-1.298,0.983-1.549,1.066
	c-0.975,0.494-1.163,1.131-1.163,1.586l0.003,0.059c0.051,0.483,0.428,1.21,2.838,2.939c0.911,0.827,1.306,1.28,1.468,1.506
	c0.221,0.494,0.718,0.815,1.35,0.815c0.516,0,1.278-0.288,3.004-2.424c0.696-0.711,1.286-1.198,1.719-1.412
	c0.784-0.498,0.936-1.079,0.936-1.483C366.828,276.689,366.447,275.969,364.168,274.504z"/>
<path style="fill:#38499E;" d="M415.788,275.908c-0.119-0.123-22.077-22.739-22.077-22.739c-0.666-0.654-0.737-0.988-0.737-1.102
	c0-0.003,0.017-0.311,0.978-1.048l18.67-16.319c2.22-1.785,4.094-3.048,5.555-3.742c1.403-0.726,2.466-1.188,3.176-1.381
	c0.012-0.003,1.758-0.604,1.758-0.604c0.575-0.281,0.64-0.993,0.64-1.504c-0.097-0.653-0.447-1.031-0.969-1.124
	c-0.022-0.003-1.038-0.086-1.038-0.086c-1.7,0.154-4.174,0.269-7.405,0.344c0-0.001-8.446-0.344-8.446-0.344
	c-1.014-0.001-1.604,0.541-1.604,1.449c0,0.322,0.142,0.909,1.092,1.213c-0.082-0.034,1.512,0.638,1.512,0.638
	c0.545,0.184,1.032,0.437,1.453,0.752c0.257,0.236,0.401,0.583,0.401,1.026c0,0.36-0.173,0.775-0.515,1.235
	c-0.4,0.562-0.915,1.139-1.537,1.724c-0.001,0-3.43,2.972-3.43,2.972l-16.112,14.269c-0.127,0.103-0.23,0.16-0.312,0.195
	c-0.012-0.097-0.023-0.197-0.023-0.197v-17.571c0-1.283,0.226-2.24,0.672-2.844c0.444-0.61,0.92-1.051,1.415-1.313
	c0.022-0.012,1.626-0.957,1.626-0.957c0.778-0.374,0.9-0.985,0.9-1.315c0-0.942-0.61-1.278-1.182-1.278
	c-0.038,0.002-8.214,0.344-8.214,0.344c-0.001-0.001-7.7-0.344-7.7-0.344c-1.006-0.001-1.593,0.515-1.593,1.378
	c0,0.488,0.273,1.126,1.574,1.391c-0.001,0-0.001,0-0.001,0c0,0.004,2.154,0.713,2.154,0.713c0.828,0.234,1.517,0.669,2.124,1.336
	c0.488,0.633,0.775,1.735,0.823,3.242v40.119c0,1.504-0.237,2.591-0.706,3.23c-0.516,0.74-1.103,1.255-1.753,1.542
	c-2.53,0.645-3.029,1.175-3.178,1.647l-0.026,0.082v0.086c0,0.785,0.402,1.342,1.132,1.569c0.007-0.003,1.449,0.254,1.449,0.254
	c1.258-0.146,3.854-0.241,7.781-0.289c6.197,0.107,7.469,0.194,7.673,0.237l0.089,0.019l0.046,0.033l1.385-0.162
	c1.007-0.098,1.253-0.719,1.307-1.08c-0.067-1.06-0.64-1.688-1.609-1.891c-0.007,0-2.686-0.54-2.686-0.54
	c-0.864-0.197-1.634-0.676-2.314-1.458c-0.801-0.765-1.189-2.107-1.189-4.029v-16.36l0.038-0.232
	c0.257-0.01,0.593,0.074,1.167,0.634l22.597,23.002c0.021,0.021,1.108,1.155,1.108,1.155c0.449,0.565,1.012,0.892,1.663,0.96
	c0.121,0,5.122-0.286,5.124-0.286c0,0.002,4.974,0.288,4.974,0.288c0.938-0.076,1.475-0.624,1.553-1.503l0.027-0.303l-0.239-0.188
	C424.731,280.777,424.54,280.629,415.788,275.908z"/>
<path style="fill:#38499E;" d="M439.602,274.504c-0.953-1.037-1.221-1.514-1.293-1.703l-0.034-0.09l-0.063-0.074
	c-0.391-0.462-0.929-0.707-1.556-0.707c-0.474-0.054-1.208,0.229-2.948,2.669c-0.811,0.716-1.298,0.983-1.549,1.066
	c-0.976,0.494-1.163,1.131-1.163,1.586l0.003,0.059c0.051,0.483,0.428,1.21,2.838,2.939c0.911,0.827,1.306,1.28,1.468,1.506
	c0.22,0.494,0.718,0.815,1.35,0.815c0.517,0,1.277-0.288,3.004-2.424c0.696-0.711,1.286-1.198,1.719-1.412
	c0.784-0.498,0.936-1.079,0.936-1.483C442.261,276.689,441.88,275.969,439.602,274.504z"/>
<path style="fill:#EE2624;" d="M323.648,128.404c-10.379-8.508-16.56-14.616-18.094-16.169c-1.535,1.553-7.714,7.661-18.093,16.168
	v86.759h36.188V128.404z"/>
<path style="fill:#EE2624;" d="M287.46,540.305v93.507c9.297,8.987,15.681,20.963,18.093,35.03
	c2.413-14.067,8.797-26.044,18.094-35.031v-93.504c-5.83,1.267-11.883,1.934-18.094,1.934
	C299.344,542.241,293.291,541.57,287.46,540.305z"/>
<path style="fill:#EE2624;" d="M323.648,374.338v-80.464H287.46v80.467c5.831-1.266,11.883-1.936,18.094-1.936
	C311.765,372.405,317.818,373.072,323.648,374.338z"/>
<path style="fill:#EE2624;" d="M388.189,215.163h36.187v-27.323c-13.316-5.409-25.409-11.15-36.187-16.828V215.163z"/>
<path style="fill:#EE2624;" d="M388.189,619.453c0.047,0.016,0.093,0.031,0.142,0.047c7.749,2.6,17.093,5.735,36.045,6.671V293.874
	h-36.187V619.453z"/>
<path style="fill:#EE2624;" d="M86.004,215.163h36.188v-7.304c-11.555,2.521-23.625,4.603-36.188,6.106V215.163z"/>
<path style="fill:#EE2624;" d="M86.004,596.131c10.939,8.448,23.106,15.378,36.188,20.468V293.874H86.004V596.131z"/>
<path style="fill:#EE2624;" d="M186.732,626.171c18.952-0.935,28.296-4.07,36.045-6.671c0.048-0.017,0.095-0.032,0.142-0.048
	V293.874h-36.187V626.171z"/>
<path style="fill:#EE2624;" d="M186.732,215.163h36.187v-44.152c-10.778,5.678-22.871,11.419-36.187,16.828V215.163z"/>
<path style="fill:#EE2624;" d="M488.917,215.163h36.188v-1.197c-12.562-1.504-24.633-3.586-36.188-6.106V215.163z"/>
<path style="fill:#EE2624;" d="M488.917,616.598c13.081-5.09,25.248-12.019,36.188-20.468V293.874h-36.188V616.598z"/>
<path style="fill:#38499E;" d="M376.624,410.888V293.874h-41.411v83.861C352.305,384.114,366.779,395.847,376.624,410.888z"/>
<path style="fill:#38499E;" d="M335.213,536.91v88.152c10.034-5.868,22.041-9.132,35.314-9.132c2.223,0,4.215,0.173,6.096,0.45
	V503.758C366.779,518.799,352.305,530.532,335.213,536.91z"/>
<path style="fill:#38499E;" d="M376.624,164.671c-1.755-1.001-3.481-1.996-5.148-2.981c-14.275-8.429-26.414-16.799-36.262-24.21
	v77.682h41.411V164.671z"/>
<path style="fill:#38499E;" d="M275.896,137.48c-9.849,7.411-21.987,15.781-36.263,24.21c-1.667,0.984-3.393,1.98-5.147,2.98v50.492
	h41.411V137.48z"/>
<path style="fill:#38499E;" d="M275.896,377.732v-83.858h-41.411v116.99C244.331,395.831,258.806,384.105,275.896,377.732z"/>
<path style="fill:#38499E;" d="M234.485,503.781v112.598c1.881-0.276,3.873-0.449,6.095-0.449c13.274,0,25.282,3.264,35.316,9.132
	v-88.149C258.806,530.54,244.331,518.814,234.485,503.781z"/>
<path style="fill:#38499E;" d="M133.756,215.163h41.411v-22.828c-12.829,4.754-26.658,9.132-41.411,12.825V215.163z"/>
<path style="fill:#38499E;" d="M133.756,620.54c13.032,3.838,26.813,5.907,41.07,5.907c0.116,0,0.226-0.001,0.34-0.002V293.874
	h-41.411V620.54z"/>
<path style="fill:#38499E;" d="M74.439,252.313v-37.151c-5.568,0.495-11.214,0.887-16.958,1.141
	C59.619,219.463,67.969,232.505,74.439,252.313z"/>
<path style="fill:#38499E;" d="M37.132,428.503v99.669c7.675,22.27,20.604,42.116,37.307,58.039V356.567
	c-5.14,14.777-12.101,25.806-18.946,36.634C48.865,403.687,42.126,414.365,37.132,428.503z"/>
<path style="fill:#38499E;" d="M435.941,215.163h41.411V205.16c-14.753-3.692-28.582-8.07-41.411-12.825V215.163z"/>
<path style="fill:#38499E;" d="M435.941,626.446c0.115,0.001,0.224,0.002,0.339,0.002c14.258,0,28.039-2.069,41.071-5.907V293.874
	h-41.411V626.446z"/>
<path style="fill:#38499E;" d="M536.669,215.163v37.147c6.47-19.806,14.819-32.847,16.958-36.007
	C547.884,216.05,542.237,215.657,536.669,215.163z"/>
<path style="fill:#38499E;" d="M555.615,393.202c-6.845-10.828-13.805-21.856-18.945-36.631v229.64
	c16.704-15.923,29.633-35.769,37.307-58.04v-99.665C568.983,414.365,562.243,403.687,555.615,393.202z"/>
<path d="M372.505,431.143c-4.2-10.078-9.493-15.675-9.878-16.072c-8.746-13.82-19.856-17.338-20.771-17.607
	c-0.527-0.424-5.72-4.485-14.43-7.772c-8.441-3.186-22.015-6.282-38.747-2.939c-18.86,1.878-29.347,13.719-29.873,14.325
	c-0.421,0.327-6.143,4.874-11.957,13.924c-5.539,8.624-12.306,23.229-13.093,43.841c-0.035,0.197-0.466,2.867-0.466,6.096
	c0,11.306,5.82,19.301,6.186,19.793c0.233,0.495,3.547,7.405,9.677,15.498c5.845,7.718,15.525,18.128,28.449,23.9l0,0
	c0.116,0.057,11.765,5.71,25.93,5.71c5.677,0,10.384-1.338,10.768-1.448c14.438-1.455,26.167-7.944,33.469-13.133
	c7.634-5.427,12.152-10.607,12.5-11.013c0.654-0.477,11.677-8.802,15.454-27.212l0.005-0.022
	C380.308,456.482,376.504,440.737,372.505,431.143z"/>
<path style="fill:#FFFFFF;" d="M375.451,475.55c-1.693-7.754-5.601-14.116-6.056-14.836c-0.02-16.991-5.919-27.984-6.592-29.178
	c0.262-0.944,1.882-7.378,0.137-15.258c1.644,1.902,5.694,7.06,9.045,15.114C375.857,440.694,379.539,455.836,375.451,475.55z"/>
<path style="fill:#FFFFFF;" d="M327.2,390.222c6.867,2.589,11.521,5.659,13.4,7.018c-2.102-0.297-6.861-0.676-13.293,0.574
	c-0.914-0.32-10.685-3.634-22.478-3.649c-4.954-3.283-12.328-6.081-15.003-7.044C305.939,384.137,319.008,387.133,327.2,390.222z"/>
<path style="fill:#B3B3B3;" d="M240.811,486.094c1.852,1.756,5.629,4.913,11.009,7.379c0.656,1.057,8.309,13.051,21.845,20.768
	c1.317,4.552,2.744,7.666,3.418,9.016C256.46,513.666,244.013,492.184,240.811,486.094z"/>
<path style="fill:#B3B3B3;" d="M347.421,514.799c-7.033,4.996-18.21,11.21-31.955,12.881c1.742-1.15,5.289-3.741,8.435-7.592
	c13.778-2.746,22.692-13.068,23.721-14.309c5.661,0.588,9.57-0.38,11.401-1.014C357.382,506.529,353.35,510.585,347.421,514.799z"/>
<path style="fill:#D9D9D9;" d="M326.011,436.497c-11.408-7.575-23.277-5.61-27.136-8.033c-5.243-3.291-3.18-8.074-13.935-16.848
	c4.523,12.178,9.478,19.411,10.172,20.392C311.663,432.031,324.48,436.002,326.011,436.497z"/>
<path style="fill:#FFFFFF;" d="M298.874,428.464c3.859,2.423,15.728,0.458,27.136,8.033c5.721-4.718,12.11-12.833,12.965-13.931
	c-6.378-17.587-11.338-23.609-11.857-24.209c-0.868-0.304-10.592-3.61-22.331-3.617c-12.11,3.867-19.117,15.599-19.849,16.876
	C295.694,420.391,293.632,425.173,298.874,428.464z"/>
<path style="fill:#FFFFFF;" d="M280.955,461.699c-1.419,0.314-10.868,2.379-22.217,4.268c-3.836,29.468,15.361,45.307,39.728,40.543
	c0.487-1.171,4.833-11.992,4.87-23.8C289.113,472.938,281.914,463.066,280.955,461.699z"/>
<path style="fill:#D9D9D9;" d="M258.738,465.967c-0.624,1.367-5.755,13.02-6.425,27.207c0.642,1.035,8.233,12.935,21.665,20.582
	c0.886-0.061,9.47-0.798,24.488-7.246C274.099,511.273,254.902,495.435,258.738,465.967z"/>
<path style="fill:#D9D9D9;" d="M280.843,461.134c-12.25-1.21-18.737-0.838-23.29-3.059c-4.516-2.202-6.297-6.364-11.566-14.796
	c3.213,12.378,11.648,21.116,12.651,22.121C270.007,463.508,279.469,461.437,280.843,461.134z"/>
<path style="fill:#FFFFFF;" d="M257.553,458.076c4.553,2.221,11.04,1.848,23.29,3.059c3.256-14.109,12.577-27.214,13.763-28.842
	c-0.821-1.172-5.713-8.397-10.185-20.419c-13.95-0.562-24.496,3.236-25.504,3.613c-0.685,1.077-8.303,13.18-12.93,27.793
	C251.256,451.712,253.038,455.874,257.553,458.076z"/>
<path style="fill:#D9D9D9;" d="M258.675,401.929c-1.545,1.3-6.412,5.703-11.357,13.407c-5.398,8.411-11.966,22.558-12.937,42.46
	c1.434-2.224,5.424-8.181,11.049-14.668C236.666,435.258,248.76,415.677,258.675,401.929z"/>
<path style="fill:#FFFFFF;" d="M258.675,401.929c-9.915,13.747-22.008,33.329-13.246,41.199
	c4.652-14.705,12.323-26.888,13.006-27.958C258.408,414.399,258.232,408.78,258.675,401.929z"/>
<path style="fill:#FFFFFF;" d="M303.911,482.762c-0.048,11.675-4.257,22.376-4.882,23.897c26.195,12.546,28.484,5.333,48.215-1.323
	c4.521-12.196,4.872-24.366,4.899-26.044c-10.252-3.871-20.097-9.95-21.49-10.825C329.227,469.549,318.495,477.496,303.911,482.762z
	"/>
<path style="fill:#D9D9D9;" d="M299.029,506.658c12.426,11.94,24.007,12.836,24.694,12.879
	c14.028-2.769,22.964-13.518,23.521-14.202C327.513,511.992,325.224,519.204,299.029,506.658z"/>
<path style="fill:#FFFFFF;" d="M362.272,431.762c-0.66-0.541-9.864-7.889-22.842-8.845c-0.858,1.102-7.268,9.245-13.031,14.006
	c9.272,15.562-0.95,22.616,26.027,41.86c0.977-0.444,9.16-4.475,16.393-18.056C368.802,443.507,362.705,432.519,362.272,431.762z"/>
<path style="fill:#D9D9D9;" d="M326.399,436.923c0.438,1.636,3.669,14.194,4.518,31.028c1.204,0.757,11.163,6.935,21.509,10.832
	C325.45,459.539,335.671,452.485,326.399,436.923z"/>
<path style="fill:#131313;" d="M326.35,436.744l-0.041-0.145l-0.144-0.05c-0.133-0.046-13.568-4.541-31.204-4.541h-0.144
	l-0.087,0.115c-0.106,0.139-10.51,14.119-13.93,29.189c12.923,7.997,15.965,15.412,23.38,15.412c12.031,0,13.506-6.931,26.75-8.473
	l-0.007-0.148C330.032,450.048,326.386,436.874,326.35,436.744z"/>
<path style="fill:#131313;" d="M263.611,410.411c1.259,1.259,17.044-3.474,21.178,1.477l0.085-0.159
	c0.07-0.129,7.179-12.946,19.955-17.004l0.572-0.181l-0.499-0.333c-6.109-4.071-15.99-7.414-16.089-7.447l-0.059-0.019l-0.061,0.004
	c-19.27,1.915-29.802,14.229-29.906,14.354l-0.061,0.071C259.596,407.151,262.261,409.061,263.611,410.411z"/>
<path style="fill:#131313;" d="M245.965,443.199l-0.137-0.53l-0.359,0.414c-7.114,8.197-11.629,15.565-11.672,15.639
	c2.254,9.328,4.982,19.471,8.689,23.178c6.822,6.822,6.715,5.4,9.802,11.788l0.021-0.426c0.69-15.073,6.434-27.309,6.491-27.429
	l0.09-0.188l-0.149-0.146C258.646,465.413,249.35,456.347,245.965,443.199z"/>
<path style="fill:#131313;" d="M341.955,417.966c3.008,3.008,14.969,4.197,20.353,13.827l0.333,0.281l0.128-0.417
	c0.023-0.074,2.234-7.482-0.088-16.478l-0.012-0.044l-0.023-0.038c-9.084-14.374-20.734-17.62-20.848-17.65
	c-0.064-0.016-5.76-1.346-14.568,0.38l-0.505,0.099C335.143,403.696,339.087,415.098,341.955,417.966z"/>
<path style="fill:#131313;" d="M375.725,476.925c-1.575-8.814-6.328-16.211-6.376-16.285l-0.266-0.409l-0.229,0.431
	c-7.677,14.453-16.44,18.128-16.527,18.164l-0.18,0.072c2.399,7.338-0.959,22.028,0.72,23.707c0.839,0.839,3.777,0.14,7.335,1.685
	l0.018-0.01l0.017-0.011c0.116-0.082,11.61-8.357,15.485-27.236l0.012-0.054L375.725,476.925z"/>
<path style="fill:#FFFFFF;" d="M295.504,435.71c-0.001,0.009-0.001,0.019-0.001,0.027c0,0.146,0.112,0.273,0.262,0.287
	c0.126,0.011,12.769,1.215,27.988,3.518c0.201,1.512,1.53,11.649,2.946,26.646c0.014,0.159,0.156,0.275,0.314,0.26
	c0.158-0.014,0.275-0.154,0.26-0.313c-1.53-16.22-2.963-26.781-2.977-26.886c-0.018-0.126-0.116-0.227-0.243-0.247
	c-15.331-2.325-28.107-3.54-28.235-3.552C295.66,435.435,295.519,435.55,295.504,435.71z"/>
<path style="fill:#FFFFFF;" d="M288.944,388.254c-0.023,0.043-0.032,0.088-0.032,0.134c0,0.104,0.056,0.203,0.153,0.255
	c0,0,7.784,4.086,8.414,4.418c-0.508,0.525-10.51,10.883-10.51,10.883c-0.055,0.056-0.082,0.128-0.082,0.2
	c0,0.075,0.029,0.15,0.087,0.207c0.115,0.11,0.297,0.107,0.408-0.008l10.778-11.159c0.063-0.065,0.091-0.157,0.076-0.246
	c-0.014-0.088-0.07-0.166-0.15-0.208l-8.752-4.595C289.191,388.061,289.017,388.114,288.944,388.254z"/>
</svg>
