<svg enable-background="new 0 0 612 792" viewBox="0 0 612 792" xmlns="http://www.w3.org/2000/svg"><path d="m109.992 159.437h353.1v363.001h-353.1z" fill="#e57ab1"/><path d="m399.066 592.691 62.543-108.328 62.541 108.328z" fill="#1b5e5b"/><path d="m567.577 516.95c-1.534-.623-2.682-1.826-3.324-3.334-.19-.442 1.045-2.402.898-3.107-.487-2.359.879-4.929 3.285-5.887 1.354-.537 1.794-3.489.185-3.618-1.946-.159-5.223-1.525-5.251-4.284-.009-.851-1.422-1.457-2.279-1.887-1.293-.64-1.774-2.247-.931-3.467l-4.335-3.584c.047-1.624.285-3.167.629-4.361-.373-1.973-1.785-3.266-3.467-3.351-1.358-.065-2.409-2.333-1.023-3.244 1.547-1.014 3.786-1.676 6.035-1.246.602.111.859 1.98 1.42 2.892 1.128-.498 2.1-1.28 2.89-1.456 1.235-.271 2.237.124 3.083.593 1.025.563 2.469.271 2.807-1.062.158-.619-.988-1.151-1.511-1.779-1.072-1.289-1.242-3.063.256-5.139.021-2.152.675-5.418 3.244-6.862.468-.262.146-1.448-.188-2.401-3.175-.297-6.413-.714-9.668-.628-.756.017-1.198-2.716-2.419-3.282-3.148-1.466-6.737-2.071-10.269-2.78-2.797-1.534-6.639-1.427-8.261-4.447-1.558-.684-3.105-1.194-4.684-1.208-3.248-.022-6.503.064-10.237-.099.009-2.904-1.373-5.715-4.625-7.18-2.338-2.682-5.423-5.887-10.076-6.184-.905-.752-1.887-1.835-2.759-3.128-1.577.52-3.232-.211-3.674-1.194-2.372-1.895-5.206-1.86-6.854-.297-.356.34-1.968.232-2.277.082-.897-.435-1.661-1.23-2.02-2.261-.245-.709-.268-1.719-.342-2.672-.107-1.358-1.221-2.716-2.477-2.32-3.042.953-6.408-.314-8.118-3.008-.434-.68-1.724-.494-2.216-.924-2.478-2.205-5.357-4.443-8.694-5.045-.696-.125-1.117-1.629-1.149-2.553-.068-1.916-1.282-3.536-2.995-4.404-1.16-.588-2.206-1.629-1.839-2.864-.737-.763-1.667-.948-2.514-.664-.49.159-.653.636-.593 1.134.294 2.537 1.581 4.818 2.108 7.289.222 1.035-.759 2.832-1.332 2.492-1.955-1.151-3.192-3.055-5.096-4.486.315-1.151-.005-2.428-1.008-3.484.726-1.945.969-4.139.681-6.296-.077-.587-.414-1.081-.847-1.487-.94-.876-2.346-1.08-3.398-.346-1.244.868-1.925 2.342-1.764 3.932-1.401.32-2.529.864-3.522 1.659.275.668.688 1.402.535 1.796-.557 1.473-2.269 2.078-3.762 1.537-.309-.116-.725-.734-.542-1.252.281-.79.952-1.606 1.264-2.614-.376-.358-1.76-1.345-1.964-1.88-.582-1.521-.874-3.225-.971-4.892-.02-.358.516-.627.894-.69 1.873-.32 3.529-2.129 2.655-4.039-.842-1.831-1.794-3.676-1.942-5.588-1.542-1.418-3.228-2.226-5.781-2.621-2.311.977-5.532 1.357-8.673.881-.482-.073-1.536-.208-1.593-.684-.236-2.049-.967-4.224-1.112-6.258-2.035-1.474-4.213-1.968-6.506-1.968-.853 0-1.48 1.918-2.412 2.494-.791.486-2.001-.155-2.431-.935-.672-1.216-1.074-2.563-1.1-4.101-1.554-.834-3.083-1.461-4.358-2.501-.444-.365-.408-1.063-.597-1.439-.596-1.169-1.867-1.946-2.847-2.931.193-.653.043-1.377-.383-1.942-1.141-1.532-2.902-2.471-4.808-2.626-1.652-.133-3.212-1.366-3.305-2.999l-.071-6.965c-1.774-1.805-3.261-3.719-5.347-5.539-3.06.627-6.368 1.211-9.567.176-1.083 1.354-1.431 2.98-1.225 4.838.09.821.945 1.895 1.094 3.167l-3.264 1.65c.322 1.089 1.323 1.564 2.198 1.912.666.267.906 1.272.816 2.099-.134 1.242-1.507 1.966-2.604 1.39-.655-.344-1.336-.928-1.364-1.809-.02-.554-.013-1.54-.767-1.899-.483-.232-1.012-.492-1.18-1.061-.111-.379-.174-1.904-.058-2.349.272-1.016 1.145-1.749 1.649-2.438.469-.645-.38-1.429-.403-1.968-.147-3.777-1.369-7.61-3.833-10.601-1.764-2.148-2.567-4.827-3.395-7.424-.273-.852.217-1.906.092-2.825-.44-3.261-3.809-4.704-6.682-4.104-.65-.918-1.297-1.671-1.16-2.267.471-2.04.675-4.108.806-6.092-1.44-1.249-3.334-1.921-4.859-1.651-1.463.26-2.464-1.323-2.512-2.646-1.481-.148-2.845-.793-4.082-2.023l-1.139-6.536c-.844-1.888-2.9-2.234-4.43-1.543-3.117 1.407-5.412 4.314-5.14 7.669.086 1.057.557 1.992 1.01 2.696.447.692.798 1.761.181 2.003-1.418.555-2.997.251-3.715-.595-.208-4.033-.7-7.757.067-11.006-1.951-3.224-2.995-6.475-3.781-10.14-1.638-.386-3.075-1.613-3.262-3.29-.099-.847-1.107-1.633-1.873-1.386-2.411.775-4.912 1.592-6.678 3.498-1.314 1.423-3.313 1.653-4.684 2.804-.283.238.099 1.478-.073 1.709-.403.55-1.323 1.221-2.071 1.087-1.311-.234-2.73.474-3.433 1.859-.069 3.127-.808 6.346-2.23 9.479-.025 1.231-.557 2.583-1.504 3.65-.129.145 0 1.122 0 1.509-4.105.874-7.996 2.56-12.42 3.768-.689.85-1.48 2.129-2.097 3.473l-1.601-.472c-1.113 1.567-2.497 3.073-4.387 3.736-.959 2.473-1.175 5.109-.64 7.676-.883 1.175-1.436 2.496-1.663 4.016-1.474.275-2.666 1.261-3.543 2.67-.479.769-.464 2.264-1.287 3.197-.346.387-1.104.471-1.319.823-2.054 3.384-3.912 7.225-2.853 11.597.006.026-.567 1.223-.423 1.704.213.705-.258 1.63-1.115 1.278-.529 1.007-1.755 2.243-1.478 3.001.688 1.889-.593 3.936-2.647 4.189-.741.093-1.231.825-.741 1.479-1.448 1.108-2.963 1.903-4.042 2.672l-1.979 6.875c-1.04 3.429-2.978 6.948-1.648 10.575-1.102 1.154-1.966 2.483-2.63 3.919-.432.935-1.407 1.512-2.423 1.139l-2.43 3.663c-.391.705 1.173 2.866.475 3.62-1.274 1.382-3.001 2.136-4.251 3.601-2.234 2.615-4.396 5.649-7.825 6.621-1.062 2.462-1.321 5.049-.799 7.536 1.216 1.762.447 4.057-1.575 5.195-.284.159-2.376.176-2.737.039-1.461-.559-3.005-1.831-2.765-2.768.417-1.629.816-3.128 1.674-4.447 1.798-2.763 3.96-6.445 1.47-9.459-.516-.623-.995-1.327-1.706-1.742-.215-.127-1.212.043-1.515-.064-1.079-.378-2.185-.879-3.229-1.583-.301-.204-.121-.861.301-1.165-.2-.577-.812-.831-1.399-.545-1.549-1.165-3.491-1.883-4.89-1.719-1.438.167-2.208-1.425-2.265-2.505-1.317-.64-2.539-1.682-2.316-2.986.219-1.283-.378-2.909-1.527-3.964-1.646-1.508-3.839-2.045-5.885-2.816-.954-.359-2-1.036-1.834-1.906.243-1.268.861-2.415 1.3-3.588 1.149-3.059-.303-6.415-2.684-7.614l-8.873.009-1.648 5.669c-.814-.169-1.463-.387-1.745-.969-.46-.958-.539-2.234-.183-3.324.239-.735.655-2.15 1.39-2.314l5.543-1.158c.744-.144 1.39-.629 1.414-1.714-1.796-.647-3.646-1.669-4.653-3.324-.138-.226-1.56.056-1.934-.056-.765-.229-1.48-.726-2.241-1.147.054-1.1.167-2.271.72-3.221 1.56-2.683 4.69-3.53 7.708-3.036 1.577-1.573 1.846-3.99.238-6.522-1.334-.735-3.429-1.738-6.061-2.823-.442-.769-.995-2.14-1.158-3.583-.221-1.951 1.063-3.747 2.838-4.293.198-.935.829-1.755.672-2.32-.546-1.955-1.231-3.865-1.749-5.034.917-3.48 1.341-6.33 1.702-9.02.118-.878-.458-1.967-1.007-2.354l-4.46-3.563c-1.383.633-2.445-.355-3.169-1.246-.567-.696-1.57-.696-2.325-.796-1.046-.139-1.824-1.254-1.787-2.272.109-2.994-1.16-5.876-3.158-8.092-1.367-4.222-1.358-8.61-1.747-13.757.73-2.113 1.607-5.131 1.938-8.336.056-.538 1.717-.86 2.076-1.473.765-1.296.535-3.617-.55-3.851-1.34-.29-2.473-1.96-2.251-3.498l1.209-7.045c.095-.65 1.48-1.452 1.818-2.522 1.723-5.441 1.28-11.62-2.514-15.783-.857-6.883-1.457-13.525-.619-20.336.791-1.288 1.371-2.982.991-5.142l3.964-7.082c.786.02 1.764.49 2.118.202 3.075-2.488 4.944-6.335 4.327-10.364-.451-2.944-.454-5.941-.327-8.912l-1.811-4.994c-2.076-.363-4.585-.646-5.749-2.746-2.339-.445-4.73-.495-6.941.202l-4.486 2.222c-.497 1.23-1.438 2.399-2.069 2.829-5.793 1.37-11.075 1.553-16.36 2.362-.166 1.552-1.111 3.234-2.725 3.046-1.271-.15-2.909 1.081-3.51 2.604-.325.828-.836 1.5-1.611 1.38-.771 2.029-.851 4.08-.251 6.136.737-.627 2.236-.427 2.241.482.013 1.868.009 3.819-.238 5.757-.107.828-.956 1.335-1.869 1.02-.939 2.84-1.7 5.594-2.344 8.719-.036.185-.808.427-1.089.913-1.715 2.962-2.911 6.24-2.931 9.681-.011 1.635-.603 3.22-2.06 4.643-.161 1.666-1.502 3.442-3.072 4.057-1.596 6.558-2.922 12.778-4.374 19.594-1.18 1.875-2.131 4.601-2.32 7.421-.069 1.011-.833 1.871-1.538 2.631-.529.568-1.274.923-2.061.803 0 .353.234 1.409 0 1.69-1.994 2.427-2.557 5.742-2.383 9.646-1.162 1.918-2.879 4.255-2.866 7.112.006 1.472-.801 2.821-1.97 3.756.43 1.387-.655 2.432-1.259 3.773-1.358 3.011-1.788 6.602-2.608 9.84-.294 1.158-2.136 1.098-2.466 1.6-1.158 1.75-1.942 3.623-1.891 5.663.013.498-.374.912-1.025.983l-.789-4.56c-.563-.234-1.177.049-1.158.505.146 3.288-.118 6.595-.748 9.834-.2 1.027-2.032 1.808-2.097 2.743-.318 4.583-1.584 9.729-4.9 13.738-1.034 2.909-1.992 5.882-2.647 8.924-.54 2.499-2.269 4.383-4.119 6.179l-3.214 9.174c-3.087 3.235-5.225 7.244-6.411 12.426-1.304 1.582-2.782 4.095-4.121 6.673-.971 1.873-1.714 3.867-1.923 6.033-2.748 1.917-3.947 5.201-3.822 8.449.035.895-1.186 1.801-1.119 2.725.144 1.94-.677 4.186-2.101 5.857-1.766 2.071-3.36 4.297-4.25 6.515-4.348 5.289-8.682 10.338-10.965 16.56-1.422 3.885-2.681 8.078-6.323 11.15-.483 2.845-.724 6.132-2.103 9.08-.612 1.306-1.594 2.419-2.355 3.643-1.876 3.012-4.136 6.209-3.599 9.84-.69 1.482-1.534 2.72-2.795 4.034.683 2.463-.423 5.191-2.621 6.665-.15 6.63-3.347 12.319-6.628 17.188-.724 5.552-1.246 10.647-1.669 16.388-1.783 2.368-2.677 5.822-3.081 8.646-1.878 2.862-2.836 5.521-2.6 8.701-2.398 1.522-4.555 3.729-4.742 6.961-1.354 1.887-2.845 3.889-3.201 6.209-.219 1.414 1.122 2.591 2.391 3.197-.273 1.078-.039 2.2.754 2.857 5.775 4.782 13.604 4.387 20.337 1.977 2.63-.941 5.283-2.471 5.992-5.276l6.411-1.26c1.298-1.486 2.814-2.715 4.503-3.309.842-.296 1.261-1.934 2.178-2.199l4.164-1.006c1.335-.24 1.382-2.381 1.285-3.549-.404-4.852 2.06-9.093 4.591-13.067l6.626-14.317c-1.334-.223-2.372-1.087-2.254-1.937.337-2.432 1.165-4.598 2.63-6.531-1.094-.855-1.197-2.286-.425-3.313 1.57-2.089 3.592-3.786 6.297-5.514 2.222-2.965 4.462-6.694 8.285-8.551 1.021-.494 2.092-1.014 3.369-.872 1.953-5.294 5.017-10.243 7.943-15.224 1.177-2.002 3.19-3.248 4.354-5.328.114-.202-.341-.727-.262-1.006.376-1.314 1.901-2.337 2.069-3.682.475-3.838 1.652-7.992 4.825-11.064-.625-1.728-.878-3.704-.694-5.736 1.252-2.05 2.514-4.246 4.538-5.775.52-.391-.258-1.006-.619.206-.099-2.281.049-3.948.425-5.616 3.854-2.569 7.683-5.336 12.315-6.565-.438-.902-.172-2.101.767-2.87-.264-.322.421-1.01 1.012-.657-.353-.589.335-1.276.924-.924-.353-.589.333-1.276.915-.808.026-.92-.202-1.702-.773-2.553 1.498-2.789 2.179-6.025 1.899-9.604.909-3.115 2.597-6.299 2.292-9.833l-.361-6.493c-.045-.885 1.502-1.781 2.679-1.822.537-.017 1.278.505 2.116.69.924-1.45 2.52-2.103 4.048-2.614 1.306-3.73.945-7.578-.372-10.438-1.564-1.357-1.962-2.806-1.728-4.215.124-.752 1.455-.898 2.183-.636 1.667-1.817 2.363-4.198 1.936-6.51-.124-.681.226-1.405.857-1.695 1.904-.87 2.892-2.89 2.845-4.967-.133-5.9-.122-12.235 3.67-17.117-.187-.461-.475-.934-.357-1.189.456-1.008 1.624-1.484 2.672-1.416.825.054 1.564.725 1.626 1.552l.797 11.288c.12 2.217-.196 4.437-.265 6.63-.12 3.953.555 7.911.653 11.855.049 1.938.597 3.934 2.191 5.186 1.278 4.215 2.153 8.643 2.67 13.101.166 1.42.905 2.797 2.632 3.328-.017 2.247 1.126 4.325 2.464 6.417-.028-.045.771-.118 1.01-.013.324.146.735.485.821.849.64 2.66.928 5.422.855 8.091 3.977 5.625 8.012 11.125 11.251 17.36.367.704 1.412 1.671 2.481 2.2 1.878.924 3.816 2.299 4.817 4.808 1.332.967 2.367 2.78 1.822 4.821-.208.786-1.953.988-3.081 1.182 1.141 4.778 3.502 8.984 5.586 13.256.621 1.28 1.094 2.789.481 4.245-.133.322.026 1.268.875 1.896 3.319 2.44 7.182 5.108 10.338 8.564 1.371 1.499 3.019 2.763 5.266 3.597.413.154.522 1.701 1.046 1.941l8.838 3.975c3.973-.502 8.272-.48 12.22.057 1.689-1.604 3.408-2.63 5.271-3.326 1.274-.473 2.202-1.994 2.937-2.209 9.464-2.797 16.926-9.208 23.582-15.971.799-.816 2.009-1.074 3.085-.748 5.837-5.711 11.55-11.43 17.069-17.277.164-.177 1.347.124 1.504-.043l3.027-3.425c.666-2.544 2.445-5.045 4.982-7.017.443-.344 2.228.193 2.413-.202l2.213-4.787c.167-.374.893-.52 1.355-.782.724-.408 1.203-1.293.78-2.109-.198-.374-1.01-.571-1.246-1.087-1.448-3.111-1.987-6.605-1.538-9.98l1.253-4.774c2.207-2.318 2.933-4.617 2.612-6.901-.137-.995-.148-2.499.69-2.787 3.712-1.283 5.504-5.285 5.255-8.873 2.492-1.59 3.295-3.998 4.434-6.078.327-.591.978-.932 1.848-.696.752-2.862 2.063-5.496 3.833-7.975-.885-1.148-1.19-2.535-.881-3.872-.804-.694-1.478-1.598-1.359-2.419.176-1.242 1.476-1.856 2.573-1.545 1.021.29 1.605 1.36 1.403 2.535-.537.105-.716 1.438-.217 1.367 2.305-.331 4.793.034 7.135.702.64.185 1.057.885.739 1.571-.172.367-.701.638-1.221.69-2.467.245-4.716 2.217-4.181 5.53.081.499 1.456 1.231 2.608.866 2.174-.694 4.12-1.955 5.474-3.629 1.35.23 2.561.146 3.498.727.589.365.52 1.835.859 2.028 2.466 1.414 2.935 4.237 5.031 5.696.662.462.972 1.811.469 1.974-3.792 1.242-5.115 5.661-3.923 9.193.631 1.85 2.479 2.995 4.396 3.027.602 1.259 1.646 1.977 2.818 2.022 1.502.058 2.986.698 3.923 1.832.215.258 2.295-.271 2.56.064 1.227 1.568 2.559 3.268 4.032 4.202.718 2.763 2.569 4.716 2.967 7.168.15.926 1.783 1.892 2.311 3.167.439 1.053 2.02 1.171 2.907 2.057 1.901 1.899 4.677 3.485 7.824 4.572.522.181 1.867.528 1.685 1.495-.32 1.685.303 3.751 1.896 5.865 1.662.662 3.996 1.126 6.281 1.053.241-.009 1.146.688 1.199 1.078.24 1.792 1.341 3.64 2.997 4.611.247.142-.12 1.791.063 2.118.378.688 1.064 1.649 1.805 1.783 1.622.279 3.368.365 4.943 1.091 2.066.967 3.147 3.283 2.494 5.6.675 1.289 2.134 2.191 3.691 2.127 1.173-.043 2.045 1.164 2.011 2.518 1.242.004 2.518-.383 3.343.004 2.295 1.079 4.686 2.012 6.293 4.061 1.86-.369 3.82.451 4.814 2.119.37.618.236 1.435-.444 1.628 0 .404-.297 1.697 0 1.934 1.248 1.006 2.262 2.519 2.924 4.267l8.753 1.418c1.57 3.305 4.188 5.475 5.18 8.568.224.696.541 1.418.458 2.097 2.21 1.358 4.404 2.935 7.171 2.574 3.528 3.124 5.896 7.502 5.96 12.491 1.693.709 3.343 1.203 5.255 1.723.589.159 1.506.576 1.751 1.71.684-.739 1.65-.081 1.151.933 1.262-.61 2.465-.344 3.296.67.737-.356 1.942-.09 2.741.89.503-.477 1.618.03 1.577 1.07.561-.451 1.248.236.922.851.777-.55 1.891-.039 1.857.89h1.513c0-.327-.157-1.401 0-1.681.283-.502 1.021-.695 1.783-.816 1.186 1.646 1.381 3.91.41 5.724-.215.396.485.727.892.485-.426.435.152 1.147.81.555 1.176 1.16 2.565 2.075 4.469 2.854.823 1.314 2.277 2.758 4.256 2.951 2.245.22 4.239 1.556 5.238 3.481 1.01 0 3.418-.065 4.207.035.523.06 1.1.357 1.22.786.267.928.179 1.934.023 2.888-.122.765.462 1.641 1.386 1.289.902-.349 2.409-.473 3.666-1.311 1.676-1.113 4.064-2.501 6.514-1.41.737 1.926 2.256 3.146 4.325 3.752.799.231 3.053-.757 3.69.236l3.895 5.98c2.316.567 4.308 1.848 6.293 2.768 1.1.512 2.584-1.268 3.313-1.728 1.096-.683 2.066-.245 2.286.516.303 1.065-.666 2.956-.224 3.468l2.813 3.128c-.761 1.07-1.382 2.204-.958 3.017.563 1.083 2.199 1.409 3.577 1.113.283-.061.685-.383.76-.68.325-1.336-.438-2.689-1.592-3.438.806-.752 1.975-1.418 2.896-.863 1.652.997 3.298 2.428 4.172 4.168.277.555 2.067 1.139 2.546 1.414.561.326 1.092.983.806 1.611-.434.949-.949 2.075-.64 3.192.163.606.801.872 1.445 1.108.757.288 1.706.438 2.555-.146-.44-1.555-.982-3.08-1.766-4.283-.254-.392.451-1.074.94-1.264 1.683-.636 3.509-.03 4.619 1.474.236.322-.17 1.105-.204 1.724-.102 1.938 1.255 3.626 3.565 4.039.294.056.969-.37 1.586-.752 2.565-1.582 3.223-4.813 5.486-6.674 1.01-.833 1.285-3.067-.427-4.039-.965-.545-2.001-2.535-1.754-4.485.1-.786.725-1.276 1.464-1.521 2.423-.804 5.298.134 6.188 2.574 1.755.571 2.65 2.32 2.052 3.966-.134.369.341 1.108.975 1.108 1.525.005 3.013-.855 4.409-2.453l-.256-5.724c-.039-.923-.885-1.533-1.734-1.877zm-360.328-136.955c-1.257.37-2.677-.518-2.999-1.768-.253-.98.062-2.162.844-2.467 1.21-.473 2.55.673 2.999 2.026.289.871.02 1.953-.844 2.209zm23.597 39.412c-.548 1.203-1.347 2.272-2.391 3.3-.889-.451-2.071-.09-2.582.855-.223.412-.709 1.744-.947 2.084-.365.52-1.113.485-1.456.008-.578-.803-1.106-1.762-.991-2.822.067-.602.181-1.436-.258-2.093-.737-1.096-.548-2.574.402-3.498.037-.034.176-.077.069-.052 2.651-.588 5.262-.305 7.593.748.554.254.815.92.561 1.47zm116.289-96.661c-1.515-.696-2.603-1.95-3.066-3.493.02-.009.399-.17.528-.225.938-.406 2.028-.107 2.574.756.541.855.576 1.936-.036 2.962zm64.693 58.265c-1.029-.292-1.975-1.081-1.959-2.174.008-.554.573-1.246 1.141-1.278 1.332-.075 2.943.559 3.3 1.545.479 1.327-1.182 2.279-2.482 1.907zm68.013 59.983c-.591.349-1.359.057-1.744-.571-.028-.043-.071-.446-.015-.571.283-.632 1.146-.877 1.853-.412.46.295.469 1.219-.094 1.554zm11.634-2.041c.028-.068.181-.228.14-.206.809-.417 1.657-.382 2.291.103 1.136.876 1.273 2.544.301 3.601-.394.43-1.023.378-1.493.047-1.155-.812-1.766-2.238-1.239-3.545zm9.552 27.896c-3.691-.322-7.619-1.198-10.184-3.914-.565-.598-1.797-1.19-1.403-2.342.004-.013.378-.408.643-.696.976 1.087 2.318 1.766 3.758 1.796 2.234.043 4.496.322 6.485 1.294 1.266.618 1.84 2.045 1.863 3.433.004.317-.711.472-1.162.429z" fill="#223972"/><path d="m586.38 497.262c-2.197-1.182-4.159-3.304-6.723-4.705-.434-1.323-.434-2.758-.013-4.018-1.441-1.684-3.185-2.883-4.958-3.515-.522-.185-2.06.993-2.512 1.212-1.023.494-1.957 1.371-1.996 2.471-.032.941.73 1.753 1.287 2.539.174.245-.095 1.53.088 1.719l3.264 3.352c-.937 2.127-.138 4.744 1.927 5.994.818.494 1.425 1.41 1.477 2.355.083 1.547-.112 3.098-.632 4.494.479.512.806 1.186 1.295 1.276.963.181 2.08-.306 3.14-.301.975 0 1.877.559 2.507 1.314.437.524 1.4.49 1.609-.142 1.302-3.901 2.634-7.79 3.229-11.353.266-1.597-1.677-1.987-2.989-2.692z" fill="#223972"/><path d="m574.944 516.727c-.544.168-1.085.336-1.605.551-.711.296-1.302 1.366-.646 1.963.99.916 2.387 1.638 4.091 1.853.514.06 1.411-.464 1.448-1.074.079-1.384-.443-2.664-1.412-3.687-.262-.28-1.238.196-1.876.394z" fill="#223972"/><path d="m572.567 526.851c-.887.498-.747 1.805-.346 2.732.238.546.786.886 1.375.791.881-.142 1.734-.847 1.549-1.629-.29-1.246-1.6-2.449-2.578-1.894z" fill="#223972"/><path d="m558.644 485.609c-.111.91.426 1.787 1.321 1.941.8.138 1.5-.563 1.36-1.366-.195-1.139-.974-2.093-2.067-2.535-.395.658-.531 1.311-.614 1.96z" fill="#223972"/><path d="m570.297 510.188c-.595.124-.89.722-.89 1.293.005.816.265 1.826 1.074 2.016.782.18 1.42-1.002 1.307-2.007-.091-.801-.778-1.462-1.491-1.302z" fill="#223972"/><path d="m572.177 474.497c.696.146 1.609-.111 1.529-.618-.129-.782-1.166-.967-1.882-.542-.03.018-.215.241-.224.267-.154.451.165.807.577.893z" fill="#223972"/><path d="m224.697 421.31c-.443-.619-1.068-.03-.675.383.296.314.73.403 1.147.262.712-.249.142-1.285-.472-.645z" fill="#223972"/><path d="m207.907 457.361c0 26.207-21.319 47.527-47.523 47.527-26.207 0-47.526-21.32-47.526-47.527s21.319-47.523 47.526-47.523c26.204 0 47.523 21.316 47.523 47.523z"/><g fill="#fff"><path d="m159.55 474.416-14.465-10.91-9.769 3.33c-.477 1.685-2.127 7.52-3.998 14.141l15.206 11.048c6.074-3.536 11.43-6.66 13.026-7.589z"/><path d="m129.296 480.917 4.043-14.296-11.81-10.725-7.269 1.821c.075 9.668 3.144 18.623 8.314 26.014z"/><path d="m134.512 466.075-.006-.012-.007.008z"/><path d="m186.448 465.731c1.59-1.435 6.398-5.77 11.698-10.553l-5.809-17.875c-6.68-.507-12.637-.954-14.543-1.101l-6.28 8.228 5.582 17.846z"/><path d="m144.511 461.633 5.52-17.141-6.387-8.748c-1.777.099-7.837.442-14.685.829l-5.876 18.085c5.242 4.762 9.93 9.016 11.434 10.382z"/><path d="m176.243 435.014c-.773-1.792-3.311-7.67-6.136-14.206h-18.958c-2.692 6.351-5.103 12.04-5.872 13.854l6.325 8.662h18.294z"/><path d="m128.176 434.656 15.342-.867 6.061-14.305-3.689-5.891c-8.91 2.956-16.597 8.564-22.176 15.881z"/><path d="m189.181 481.385c-1.68-6.647-3.141-12.431-3.498-13.849l-9.292-3.429-14.882 10.454v9.892c1.545.949 6.776 4.177 12.687 7.82z"/><path d="m173.416 494.091-12.899-7.953-13.284 7.743-.522 7.554c4.323 1.341 8.914 2.066 13.673 2.066 4.746 0 9.326-.722 13.638-2.058z"/><path d="m199.739 456.382-12.096 10.914 3.493 13.823 6.922 2.788c5.199-7.36 8.304-16.285 8.433-25.932z"/><path d="m171.796 419.772 6.256 14.489 14.771 1.112 4.565-5.448c-5.487-7.382-13.105-13.066-21.959-16.131z"/></g><path d="m160.053 523.546c0 26.202-21.319 47.523-47.523 47.523-26.206 0-47.525-21.321-47.525-47.523 0-26.206 21.319-47.523 47.525-47.527 26.204-.001 47.523 21.321 47.523 47.527z"/><path d="m111.696 540.601-14.466-10.911-9.769 3.33c-.477 1.685-2.127 7.516-3.999 14.137l15.207 11.048c6.073-3.537 11.43-6.656 13.026-7.589v-10.015z" fill="#fff"/><path d="m81.441 547.102 4.044-14.3-11.81-10.721-7.268 1.817c.075 9.668 3.143 18.623 8.314 26.014z" fill="#fff"/><path d="m86.658 532.26-.007-.013-.006.009z" fill="#fff"/><path d="m138.594 531.916c1.59-1.435 6.398-5.774 11.698-10.557l-5.81-17.875c-6.679-.503-12.637-.954-14.542-1.096l-6.28 8.224 5.582 17.85z" fill="#fff"/><path d="m96.657 527.813 5.519-17.14-6.387-8.749c-1.777.103-7.837.443-14.685.834l-5.876 18.086c5.242 4.756 9.93 9.015 11.434 10.377z" fill="#fff"/><path d="m128.389 501.193c-.773-1.791-3.311-7.665-6.136-14.205h-18.957c-2.692 6.351-5.103 12.04-5.872 13.854l6.325 8.662h18.294z" fill="#fff"/><path d="m80.322 500.837 15.342-.868 6.061-14.3-3.688-5.895c-8.91 2.957-16.597 8.564-22.176 15.882z" fill="#fff"/><path d="m141.327 547.565c-1.68-6.643-3.141-12.431-3.498-13.845l-9.292-3.433-14.882 10.458v9.888c1.544.954 6.776 4.177 12.687 7.82z" fill="#fff"/><path d="m125.562 560.275-12.899-7.953-13.284 7.738-.522 7.555c4.323 1.345 8.914 2.07 13.673 2.07 4.746 0 9.326-.726 13.638-2.063z" fill="#fff"/><path d="m151.884 522.563-12.096 10.914 3.494 13.827 6.922 2.788c5.199-7.36 8.304-16.285 8.433-25.932z" fill="#fff"/><path d="m123.942 485.953 6.256 14.488 14.771 1.117 4.565-5.452c-5.487-7.382-13.105-13.063-21.959-16.131z" fill="#fff"/><path d="m276.607 505.332c0 26.206-21.319 47.527-47.523 47.527-26.207 0-47.525-21.321-47.525-47.527 0-26.207 21.319-47.523 47.525-47.523 26.205 0 47.523 21.316 47.523 47.523z"/><path d="m228.25 522.386-14.465-10.909-9.769 3.33c-.477 1.684-2.127 7.52-3.998 14.141l15.206 11.047c6.074-3.536 11.43-6.66 13.026-7.588z" fill="#fff"/><path d="m197.996 528.887 4.044-14.295-11.81-10.725-7.268 1.822c.075 9.668 3.143 18.622 8.314 26.013z" fill="#fff"/><path d="m203.213 514.046-.007-.013-.006.008z" fill="#fff"/><path d="m255.149 513.702c1.59-1.435 6.398-5.771 11.698-10.554l-5.809-17.875c-6.68-.507-12.637-.953-14.543-1.1l-6.28 8.228 5.582 17.845z" fill="#fff"/><path d="m213.211 509.603 5.52-17.14-6.387-8.749c-1.777.099-7.838.442-14.685.829l-5.876 18.086c5.242 4.761 9.93 9.015 11.434 10.381z" fill="#fff"/><path d="m244.944 482.983c-.773-1.792-3.31-7.67-6.136-14.205h-18.958c-2.692 6.351-5.103 12.04-5.872 13.853l6.325 8.663h18.294z" fill="#fff"/><path d="m196.877 482.627 15.342-.868 6.061-14.304-3.689-5.892c-8.91 2.956-16.597 8.564-22.176 15.882z" fill="#fff"/><path d="m257.882 529.355c-1.68-6.647-3.141-12.431-3.498-13.849l-9.292-3.429-14.882 10.454v9.892c1.545.949 6.776 4.176 12.686 7.82z" fill="#fff"/><path d="m242.117 542.062-12.899-7.954-13.284 7.743-.522 7.554c4.323 1.341 8.914 2.067 13.672 2.067 4.746 0 9.327-.722 13.639-2.059z" fill="#fff"/><path d="m268.439 504.352-12.096 10.914 3.493 13.823 6.922 2.789c5.199-7.36 8.304-16.285 8.433-25.932z" fill="#fff"/><path d="m240.497 467.742 6.256 14.489 14.771 1.113 4.565-5.448c-5.487-7.383-13.105-13.067-21.959-16.131z" fill="#fff"/><path d="m248.517 570.038c0 26.202-21.319 47.523-47.523 47.523-26.207 0-47.525-21.321-47.525-47.523 0-26.206 21.319-47.523 47.525-47.527 26.204 0 47.523 21.321 47.523 47.527z"/><path d="m200.16 587.093-14.465-10.91-9.769 3.33c-.477 1.685-2.127 7.516-3.998 14.137l15.207 11.048c6.074-3.537 11.43-6.656 13.026-7.589v-10.016z" fill="#fff"/><path d="m169.905 593.594 4.043-14.3-11.81-10.721-7.268 1.817c.075 9.668 3.143 18.623 8.314 26.014z" fill="#fff"/><path d="m175.122 578.752-.007-.013-.006.009z" fill="#fff"/><path d="m227.058 578.408c1.59-1.435 6.398-5.775 11.698-10.557l-5.809-17.875c-6.68-.503-12.637-.954-14.543-1.096l-6.28 8.224 5.582 17.85z" fill="#fff"/><path d="m185.121 574.305 5.52-17.14-6.387-8.749c-1.777.103-7.838.443-14.685.834l-5.876 18.086c5.242 4.756 9.93 9.015 11.434 10.377z" fill="#fff"/><path d="m216.853 547.685c-.773-1.791-3.311-7.665-6.136-14.205h-18.958c-2.692 6.351-5.103 12.04-5.872 13.854l6.325 8.662h18.294z" fill="#fff"/><path d="m168.786 547.329 15.342-.868 6.061-14.3-3.689-5.896c-8.91 2.957-16.597 8.564-22.176 15.882z" fill="#fff"/><path d="m229.791 594.058c-1.68-6.643-3.141-12.431-3.498-13.845l-9.292-3.433-14.882 10.458v9.888c1.545.954 6.776 4.177 12.687 7.82z" fill="#fff"/><path d="m214.026 606.768-12.899-7.953-13.284 7.738-.522 7.555c4.323 1.345 8.914 2.07 13.672 2.07 4.746 0 9.327-.726 13.639-2.063z" fill="#fff"/><path d="m240.349 569.055-12.096 10.914 3.493 13.827 6.922 2.788c5.199-7.36 8.304-16.285 8.433-25.932z" fill="#fff"/><path d="m212.406 532.445 6.256 14.488 14.77 1.117 4.565-5.452c-5.487-7.382-13.105-13.063-21.959-16.131z" fill="#fff"/><path d="m231.879 508.722 62.543-108.326 62.546 108.326z" fill="#1a5632"/><path d="m392.757 481.162c0 26.206-21.319 47.527-47.523 47.527-26.207 0-47.526-21.321-47.526-47.527 0-26.207 21.319-47.524 47.526-47.524 26.204.001 47.523 21.317 47.523 47.524z"/><path d="m344.399 498.216-14.466-10.909-9.769 3.33c-.477 1.684-2.127 7.52-3.998 14.141l15.206 11.047c6.074-3.536 11.43-6.66 13.026-7.588v-10.021z" fill="#fff"/><path d="m314.145 504.717 4.043-14.295-11.81-10.726-7.268 1.822c.075 9.668 3.143 18.622 8.314 26.013z" fill="#fff"/><path d="m319.361 489.876-.006-.013-.006.008z" fill="#fff"/><path d="m371.298 489.532c1.59-1.436 6.398-5.771 11.698-10.554l-5.81-17.875c-6.68-.507-12.637-.953-14.543-1.1l-6.279 8.228 5.581 17.845z" fill="#fff"/><path d="m329.36 485.433 5.52-17.14-6.388-8.749c-1.776.099-7.837.442-14.685.829l-5.876 18.086c5.242 4.761 9.931 9.015 11.435 10.381z" fill="#fff"/><path d="m361.093 458.813c-.773-1.792-3.311-7.67-6.136-14.205h-18.958c-2.692 6.351-5.103 12.04-5.872 13.853l6.325 8.663h18.294z" fill="#fff"/><path d="m313.025 458.457 15.343-.868 6.06-14.304-3.689-5.892c-8.909 2.956-16.597 8.564-22.176 15.882z" fill="#fff"/><path d="m374.03 505.185c-1.68-6.647-3.141-12.431-3.497-13.849l-9.292-3.429-14.883 10.454v9.892c1.545.949 6.776 4.176 12.686 7.82z" fill="#fff"/><path d="m358.266 517.892-12.899-7.954-13.284 7.743-.522 7.554c4.322 1.341 8.914 2.067 13.673 2.067 4.745 0 9.326-.722 13.638-2.059z" fill="#fff"/><path d="m384.588 480.182-12.096 10.914 3.493 13.823 6.923 2.789c5.199-7.36 8.304-16.285 8.433-25.932z" fill="#fff"/><path d="m356.645 443.572 6.256 14.489 14.771 1.113 4.565-5.448c-5.486-7.383-13.105-13.067-21.959-16.131z" fill="#fff"/><path d="m306.666 572.892 62.544-108.329 62.541 108.329z" fill="#1b5e5b"/><path d="m352.866 605.892 62.543-108.329 62.541 108.329z" fill="#1a5632"/><path d="m346.363 190.236h-7.761v-.578c1.407-.046 1.824-.115 1.824-.485 0-.301-.185-.578-.554-1.016l-4.205-5.244-.623.578v4.528c0 1.386.808 1.479 2.032 1.64v.578h-7.783v-.578c1.27-.139 2.009-.231 2.009-1.64v-11.18c0-1.525-.947-1.572-2.009-1.641v-.578h7.808v.578c-1.273.093-2.057.139-2.057 2.125v4.943l5.013-5.036c.623-.623.831-.831.831-1.27 0-.532-.301-.67-1.964-.763v-.578h6.676v.578c-2.426.139-3.534 1.271-7.414 5.244l7.044 8.732c.349.416.671.462 1.133.485z"/><path d="m347.518 188.596c0 1.086.832 1.941 1.94 1.941 1.085 0 1.964-.832 1.964-1.941 0-1.063-.879-1.964-1.964-1.964-1.108 0-1.94.925-1.94 1.964z"/><path d="m379.397 190.236h-7.67v-.578c1.386-.139 2.056-.208 2.056-1.732v-11.642h-.047l-5.775 13.952h-.623l-5.774-13.606h-.045v10.742c0 1.617.414 2.171 2.333 2.286v.578h-5.405v-.578c1.8-.161 2.101-.508 2.101-1.848v-10.972c0-1.201-.417-1.525-2.056-1.641v-.578h5.844l4.621 10.903 4.619-10.903h5.822v.578c-1.296.093-2.034.139-2.034 2.125v10.21c0 1.848.509 1.917 2.034 2.125v.579z"/><path d="m386.695 187.926c-.322.37-.854.993-1.639.993-.832 0-1.18-.831-1.18-1.547 0-2.01 2.288-2.68 2.818-2.795v3.349zm4.157.832-.229.231c-.068.069-.14.092-.233.092-.507 0-.507-.439-.507-.578v-6.029c0-2.172-2.056-3.165-4.621-3.165-2.864 0-4.318 1.408-4.318 2.864 0 1.571 1.246 1.571 1.523 1.571 1.203 0 1.549-.878 1.549-1.293 0-.9-.694-1.086-.694-1.571 0-.369.533-.831 1.364-.831 1.708 0 2.033.854 2.033 2.032v1.686c-3.281.994-6.214 1.917-6.214 4.319 0 1.755 1.431 2.472 2.54 2.472.554 0 2.172-.115 3.674-1.617.137.647.322 1.617 1.94 1.617 1.04 0 1.896-.554 2.542-1.317z"/><path d="m402.75 189.242c-.646.763-1.502 1.317-2.542 1.317-1.617 0-1.802-.97-1.939-1.617-1.502 1.502-3.12 1.617-3.674 1.617-1.108 0-2.54-.716-2.54-2.472 0-2.402 2.933-3.326 6.214-4.319v-1.686c0-1.178-.324-2.032-2.032-2.032-.832 0-1.364.462-1.364.831 0 .485.693.67.693 1.571 0 .416-.346 1.293-1.549 1.293-.277 0-1.523 0-1.523-1.571 0-1.456 1.455-2.864 4.318-2.864 2.565 0 4.621.993 4.621 3.165v6.029c0 .138 0 .578.508.578.092 0 .163-.023.232-.092l.23-.231zm-4.504-4.665c-.531.115-2.819.785-2.819 2.795 0 .715.349 1.547 1.18 1.547.784 0 1.317-.623 1.64-.993v-3.349z"/><path d="m410.304 182.706c-.485-1.64-1.549-2.634-2.866-2.634-.831 0-1.478.601-1.478 1.317 0 2.356 5.405 1.825 5.405 5.613 0 2.195-1.479 3.558-3.627 3.558-1.153 0-2.726-.67-2.933-.67-.255 0-.393.185-.625.647h-.575v-3.812h.646c.138.624.691 3.05 3.257 3.05 1.153 0 1.64-.832 1.64-1.524 0-2.126-5.498-1.987-5.498-5.544 0-2.033 1.547-3.395 3.674-3.395 1.085 0 2.032.508 2.471.508.417 0 .509-.277.578-.462h.507v3.349h-.576z"/><path d="m417.904 190.236h-5.521v-.554c.924 0 1.179-.832 1.179-1.386v-11.781c0-.255-.047-1.341-1.179-1.341v-.554h4.389v13.676c0 .669.232 1.386 1.133 1.386v.554z"/><path d="m429.706 189.242c-.646.763-1.501 1.317-2.539 1.317-1.618 0-1.803-.97-1.942-1.617-1.502 1.502-3.117 1.617-3.672 1.617-1.108 0-2.541-.716-2.541-2.472 0-2.402 2.935-3.326 6.213-4.319v-1.686c0-1.178-.322-2.032-2.032-2.032-.831 0-1.362.462-1.362.831 0 .485.692.67.692 1.571 0 .416-.347 1.293-1.547 1.293-.277 0-1.525 0-1.525-1.571 0-1.456 1.456-2.864 4.32-2.864 2.563 0 4.619.993 4.619 3.165v6.029c0 .138 0 .578.509.578.093 0 .161-.023.23-.092l.231-.231zm-4.502-4.665c-.532.115-2.818.785-2.818 2.795 0 .715.346 1.547 1.177 1.547.787 0 1.317-.623 1.642-.993v-3.349z"/><path d="m442.436 190.236h-5.429v-.554c.763-.07 1.085-.462 1.085-1.317v-5.59c0-.646-.023-1.917-1.27-1.917-.924 0-1.919 1.132-1.919 1.341v6.167c0 .532.071 1.201 1.133 1.317v.554h-5.567v-.554c.832-.162 1.225-.254 1.225-1.386v-6.791c0-1.04-.301-1.225-1.225-1.363v-.554h4.413v1.663h.045c.325-.554 1.317-1.94 3.281-1.94 1.27 0 3.096.715 3.096 3.257v5.798c0 .554 0 1.271 1.132 1.317z"/><path d="m450.589 187.649c0 .253-.854 1.617-1.916 1.617-1.85 0-1.85-3.004-1.85-4.343 0-2.241.324-4.319 1.964-4.319 1.293 0 1.802 1.409 1.802 1.432zm4.575 1.593c-1.316-.046-1.362-.715-1.362-1.339v-13.283h-4.967v.554c1.27.092 1.755.116 1.755 1.341v4.227c-.554-.601-1.34-1.432-2.726-1.432-2.17 0-4.458 1.916-4.458 5.936 0 3.373 2.124 5.313 4.043 5.313 1.731 0 2.378-.646 3.21-1.524v1.501c1.433-.393 1.642-.416 4.505-.763z"/></svg>