<?xml version="1.0" encoding="iso-8859-1"?>
<!-- Generator: Adobe Illustrator 24.0.1, SVG Export Plug-In . SVG Version: 6.00 Build 0)  -->
<svg version="1.1" id="Layer_1" xmlns="http://www.w3.org/2000/svg" xmlns:xlink="http://www.w3.org/1999/xlink" x="0px" y="0px"
	 viewBox="0 0 612 792" style="enable-background:new 0 0 612 792;" xml:space="preserve">
<g>
	<rect x="109.992" y="159.437" style="fill:#E57AB1;" width="353.1" height="363.001"/>
	<polygon style="fill:#1B5E5B;" points="399.066,592.691 461.609,484.363 524.15,592.691 	"/>
	<path style="fill:#223972;" d="M567.577,516.95c-1.534-0.623-2.682-1.826-3.324-3.334c-0.19-0.442,1.045-2.402,0.898-3.107
		c-0.487-2.359,0.879-4.929,3.285-5.887c1.354-0.537,1.794-3.489,0.185-3.618c-1.946-0.159-5.223-1.525-5.251-4.284
		c-0.009-0.851-1.422-1.457-2.279-1.887c-1.293-0.64-1.774-2.247-0.931-3.467l-4.335-3.584c0.047-1.624,0.285-3.167,0.629-4.361
		c-0.373-1.973-1.785-3.266-3.467-3.351c-1.358-0.065-2.409-2.333-1.023-3.244c1.547-1.014,3.786-1.676,6.035-1.246
		c0.602,0.111,0.859,1.98,1.42,2.892c1.128-0.498,2.1-1.28,2.89-1.456c1.235-0.271,2.237,0.124,3.083,0.593
		c1.025,0.563,2.469,0.271,2.807-1.062c0.158-0.619-0.988-1.151-1.511-1.779c-1.072-1.289-1.242-3.063,0.256-5.139
		c0.021-2.152,0.675-5.418,3.244-6.862c0.468-0.262,0.146-1.448-0.188-2.401c-3.175-0.297-6.413-0.714-9.668-0.628
		c-0.756,0.017-1.198-2.716-2.419-3.282c-3.148-1.466-6.737-2.071-10.269-2.78c-2.797-1.534-6.639-1.427-8.261-4.447
		c-1.558-0.684-3.105-1.194-4.684-1.208c-3.248-0.022-6.503,0.064-10.237-0.099c0.009-2.904-1.373-5.715-4.625-7.18
		c-2.338-2.682-5.423-5.887-10.076-6.184c-0.905-0.752-1.887-1.835-2.759-3.128c-1.577,0.52-3.232-0.211-3.674-1.194
		c-2.372-1.895-5.206-1.86-6.854-0.297c-0.356,0.34-1.968,0.232-2.277,0.082c-0.897-0.435-1.661-1.23-2.02-2.261
		c-0.245-0.709-0.268-1.719-0.342-2.672c-0.107-1.358-1.221-2.716-2.477-2.32c-3.042,0.953-6.408-0.314-8.118-3.008
		c-0.434-0.68-1.724-0.494-2.216-0.924c-2.478-2.205-5.357-4.443-8.694-5.045c-0.696-0.125-1.117-1.629-1.149-2.553
		c-0.068-1.916-1.282-3.536-2.995-4.404c-1.16-0.588-2.206-1.629-1.839-2.864c-0.737-0.763-1.667-0.948-2.514-0.664
		c-0.49,0.159-0.653,0.636-0.593,1.134c0.294,2.537,1.581,4.818,2.108,7.289c0.222,1.035-0.759,2.832-1.332,2.492
		c-1.955-1.151-3.192-3.055-5.096-4.486c0.315-1.151-0.005-2.428-1.008-3.484c0.726-1.945,0.969-4.139,0.681-6.296
		c-0.077-0.587-0.414-1.081-0.847-1.487c-0.94-0.876-2.346-1.08-3.398-0.346c-1.244,0.868-1.925,2.342-1.764,3.932
		c-1.401,0.32-2.529,0.864-3.522,1.659c0.275,0.668,0.688,1.402,0.535,1.796c-0.557,1.473-2.269,2.078-3.762,1.537
		c-0.309-0.116-0.725-0.734-0.542-1.252c0.281-0.79,0.952-1.606,1.264-2.614c-0.376-0.358-1.76-1.345-1.964-1.88
		c-0.582-1.521-0.874-3.225-0.971-4.892c-0.02-0.358,0.516-0.627,0.894-0.69c1.873-0.32,3.529-2.129,2.655-4.039
		c-0.842-1.831-1.794-3.676-1.942-5.588c-1.542-1.418-3.228-2.226-5.781-2.621c-2.311,0.977-5.532,1.357-8.673,0.881
		c-0.482-0.073-1.536-0.208-1.593-0.684c-0.236-2.049-0.967-4.224-1.112-6.258c-2.035-1.474-4.213-1.968-6.506-1.968
		c-0.853,0-1.48,1.918-2.412,2.494c-0.791,0.486-2.001-0.155-2.431-0.935c-0.672-1.216-1.074-2.563-1.1-4.101
		c-1.554-0.834-3.083-1.461-4.358-2.501c-0.444-0.365-0.408-1.063-0.597-1.439c-0.596-1.169-1.867-1.946-2.847-2.931
		c0.193-0.653,0.043-1.377-0.383-1.942c-1.141-1.532-2.902-2.471-4.808-2.626c-1.652-0.133-3.212-1.366-3.305-2.999l-0.071-6.965
		c-1.774-1.805-3.261-3.719-5.347-5.539c-3.06,0.627-6.368,1.211-9.567,0.176c-1.083,1.354-1.431,2.98-1.225,4.838
		c0.09,0.821,0.945,1.895,1.094,3.167l-3.264,1.65c0.322,1.089,1.323,1.564,2.198,1.912c0.666,0.267,0.906,1.272,0.816,2.099
		c-0.134,1.242-1.507,1.966-2.604,1.39c-0.655-0.344-1.336-0.928-1.364-1.809c-0.02-0.554-0.013-1.54-0.767-1.899
		c-0.483-0.232-1.012-0.492-1.18-1.061c-0.111-0.379-0.174-1.904-0.058-2.349c0.272-1.016,1.145-1.749,1.649-2.438
		c0.469-0.645-0.38-1.429-0.403-1.968c-0.147-3.777-1.369-7.61-3.833-10.601c-1.764-2.148-2.567-4.827-3.395-7.424
		c-0.273-0.852,0.217-1.906,0.092-2.825c-0.44-3.261-3.809-4.704-6.682-4.104c-0.65-0.918-1.297-1.671-1.16-2.267
		c0.471-2.04,0.675-4.108,0.806-6.092c-1.44-1.249-3.334-1.921-4.859-1.651c-1.463,0.26-2.464-1.323-2.512-2.646
		c-1.481-0.148-2.845-0.793-4.082-2.023l-1.139-6.536c-0.844-1.888-2.9-2.234-4.43-1.543c-3.117,1.407-5.412,4.314-5.14,7.669
		c0.086,1.057,0.557,1.992,1.01,2.696c0.447,0.692,0.798,1.761,0.181,2.003c-1.418,0.555-2.997,0.251-3.715-0.595
		c-0.208-4.033-0.7-7.757,0.067-11.006c-1.951-3.224-2.995-6.475-3.781-10.14c-1.638-0.386-3.075-1.613-3.262-3.29
		c-0.099-0.847-1.107-1.633-1.873-1.386c-2.411,0.775-4.912,1.592-6.678,3.498c-1.314,1.423-3.313,1.653-4.684,2.804
		c-0.283,0.238,0.099,1.478-0.073,1.709c-0.403,0.55-1.323,1.221-2.071,1.087c-1.311-0.234-2.73,0.474-3.433,1.859
		c-0.069,3.127-0.808,6.346-2.23,9.479c-0.025,1.231-0.557,2.583-1.504,3.65c-0.129,0.145,0,1.122,0,1.509
		c-4.105,0.874-7.996,2.56-12.42,3.768c-0.689,0.85-1.48,2.129-2.097,3.473l-1.601-0.472c-1.113,1.567-2.497,3.073-4.387,3.736
		c-0.959,2.473-1.175,5.109-0.64,7.676c-0.883,1.175-1.436,2.496-1.663,4.016c-1.474,0.275-2.666,1.261-3.543,2.67
		c-0.479,0.769-0.464,2.264-1.287,3.197c-0.346,0.387-1.104,0.471-1.319,0.823c-2.054,3.384-3.912,7.225-2.853,11.597
		c0.006,0.026-0.567,1.223-0.423,1.704c0.213,0.705-0.258,1.63-1.115,1.278c-0.529,1.007-1.755,2.243-1.478,3.001
		c0.688,1.889-0.593,3.936-2.647,4.189c-0.741,0.093-1.231,0.825-0.741,1.479c-1.448,1.108-2.963,1.903-4.042,2.672l-1.979,6.875
		c-1.04,3.429-2.978,6.948-1.648,10.575c-1.102,1.154-1.966,2.483-2.63,3.919c-0.432,0.935-1.407,1.512-2.423,1.139l-2.43,3.663
		c-0.391,0.705,1.173,2.866,0.475,3.62c-1.274,1.382-3.001,2.136-4.251,3.601c-2.234,2.615-4.396,5.649-7.825,6.621
		c-1.062,2.462-1.321,5.049-0.799,7.536c1.216,1.762,0.447,4.057-1.575,5.195c-0.284,0.159-2.376,0.176-2.737,0.039
		c-1.461-0.559-3.005-1.831-2.765-2.768c0.417-1.629,0.816-3.128,1.674-4.447c1.798-2.763,3.96-6.445,1.47-9.459
		c-0.516-0.623-0.995-1.327-1.706-1.742c-0.215-0.127-1.212,0.043-1.515-0.064c-1.079-0.378-2.185-0.879-3.229-1.583
		c-0.301-0.204-0.121-0.861,0.301-1.165c-0.2-0.577-0.812-0.831-1.399-0.545c-1.549-1.165-3.491-1.883-4.89-1.719
		c-1.438,0.167-2.208-1.425-2.265-2.505c-1.317-0.64-2.539-1.682-2.316-2.986c0.219-1.283-0.378-2.909-1.527-3.964
		c-1.646-1.508-3.839-2.045-5.885-2.816c-0.954-0.359-2-1.036-1.834-1.906c0.243-1.268,0.861-2.415,1.3-3.588
		c1.149-3.059-0.303-6.415-2.684-7.614l-8.873,0.009l-1.648,5.669c-0.814-0.169-1.463-0.387-1.745-0.969
		c-0.46-0.958-0.539-2.234-0.183-3.324c0.239-0.735,0.655-2.15,1.39-2.314l5.543-1.158c0.744-0.144,1.39-0.629,1.414-1.714
		c-1.796-0.647-3.646-1.669-4.653-3.324c-0.138-0.226-1.56,0.056-1.934-0.056c-0.765-0.229-1.48-0.726-2.241-1.147
		c0.054-1.1,0.167-2.271,0.72-3.221c1.56-2.683,4.69-3.53,7.708-3.036c1.577-1.573,1.846-3.99,0.238-6.522
		c-1.334-0.735-3.429-1.738-6.061-2.823c-0.442-0.769-0.995-2.14-1.158-3.583c-0.221-1.951,1.063-3.747,2.838-4.293
		c0.198-0.935,0.829-1.755,0.672-2.32c-0.546-1.955-1.231-3.865-1.749-5.034c0.917-3.48,1.341-6.33,1.702-9.02
		c0.118-0.878-0.458-1.967-1.007-2.354l-4.46-3.563c-1.383,0.633-2.445-0.355-3.169-1.246c-0.567-0.696-1.57-0.696-2.325-0.796
		c-1.046-0.139-1.824-1.254-1.787-2.272c0.109-2.994-1.16-5.876-3.158-8.092c-1.367-4.222-1.358-8.61-1.747-13.757
		c0.73-2.113,1.607-5.131,1.938-8.336c0.056-0.538,1.717-0.86,2.076-1.473c0.765-1.296,0.535-3.617-0.55-3.851
		c-1.34-0.29-2.473-1.96-2.251-3.498l1.209-7.045c0.095-0.65,1.48-1.452,1.818-2.522c1.723-5.441,1.28-11.62-2.514-15.783
		c-0.857-6.883-1.457-13.525-0.619-20.336c0.791-1.288,1.371-2.982,0.991-5.142l3.964-7.082c0.786,0.02,1.764,0.49,2.118,0.202
		c3.075-2.488,4.944-6.335,4.327-10.364c-0.451-2.944-0.454-5.941-0.327-8.912l-1.811-4.994c-2.076-0.363-4.585-0.646-5.749-2.746
		c-2.339-0.445-4.73-0.495-6.941,0.202l-4.486,2.222c-0.497,1.23-1.438,2.399-2.069,2.829c-5.793,1.37-11.075,1.553-16.36,2.362
		c-0.166,1.552-1.111,3.234-2.725,3.046c-1.271-0.15-2.909,1.081-3.51,2.604c-0.325,0.828-0.836,1.5-1.611,1.38
		c-0.771,2.029-0.851,4.08-0.251,6.136c0.737-0.627,2.236-0.427,2.241,0.482c0.013,1.868,0.009,3.819-0.238,5.757
		c-0.107,0.828-0.956,1.335-1.869,1.02c-0.939,2.84-1.7,5.594-2.344,8.719c-0.036,0.185-0.808,0.427-1.089,0.913
		c-1.715,2.962-2.911,6.24-2.931,9.681c-0.011,1.635-0.603,3.22-2.06,4.643c-0.161,1.666-1.502,3.442-3.072,4.057
		c-1.596,6.558-2.922,12.778-4.374,19.594c-1.18,1.875-2.131,4.601-2.32,7.421c-0.069,1.011-0.833,1.871-1.538,2.631
		c-0.529,0.568-1.274,0.923-2.061,0.803c0,0.353,0.234,1.409,0,1.69c-1.994,2.427-2.557,5.742-2.383,9.646
		c-1.162,1.918-2.879,4.255-2.866,7.112c0.006,1.472-0.801,2.821-1.97,3.756c0.43,1.387-0.655,2.432-1.259,3.773
		c-1.358,3.011-1.788,6.602-2.608,9.84c-0.294,1.158-2.136,1.098-2.466,1.6c-1.158,1.75-1.942,3.623-1.891,5.663
		c0.013,0.498-0.374,0.912-1.025,0.983l-0.789-4.56c-0.563-0.234-1.177,0.049-1.158,0.505c0.146,3.288-0.118,6.595-0.748,9.834
		c-0.2,1.027-2.032,1.808-2.097,2.743c-0.318,4.583-1.584,9.729-4.9,13.738c-1.034,2.909-1.992,5.882-2.647,8.924
		c-0.54,2.499-2.269,4.383-4.119,6.179l-3.214,9.174c-3.087,3.235-5.225,7.244-6.411,12.426c-1.304,1.582-2.782,4.095-4.121,6.673
		c-0.971,1.873-1.714,3.867-1.923,6.033c-2.748,1.917-3.947,5.201-3.822,8.449c0.035,0.895-1.186,1.801-1.119,2.725
		c0.144,1.94-0.677,4.186-2.101,5.857c-1.766,2.071-3.36,4.297-4.25,6.515c-4.348,5.289-8.682,10.338-10.965,16.56
		c-1.422,3.885-2.681,8.078-6.323,11.15c-0.483,2.845-0.724,6.132-2.103,9.08c-0.612,1.306-1.594,2.419-2.355,3.643
		c-1.876,3.012-4.136,6.209-3.599,9.84c-0.69,1.482-1.534,2.72-2.795,4.034c0.683,2.463-0.423,5.191-2.621,6.665
		c-0.15,6.63-3.347,12.319-6.628,17.188c-0.724,5.552-1.246,10.647-1.669,16.388c-1.783,2.368-2.677,5.822-3.081,8.646
		c-1.878,2.862-2.836,5.521-2.6,8.701c-2.398,1.522-4.555,3.729-4.742,6.961c-1.354,1.887-2.845,3.889-3.201,6.209
		c-0.219,1.414,1.122,2.591,2.391,3.197c-0.273,1.078-0.039,2.2,0.754,2.857c5.775,4.782,13.604,4.387,20.337,1.977
		c2.63-0.941,5.283-2.471,5.992-5.276l6.411-1.26c1.298-1.486,2.814-2.715,4.503-3.309c0.842-0.296,1.261-1.934,2.178-2.199
		l4.164-1.006c1.335-0.24,1.382-2.381,1.285-3.549c-0.404-4.852,2.06-9.093,4.591-13.067l6.626-14.317
		c-1.334-0.223-2.372-1.087-2.254-1.937c0.337-2.432,1.165-4.598,2.63-6.531c-1.094-0.855-1.197-2.286-0.425-3.313
		c1.57-2.089,3.592-3.786,6.297-5.514c2.222-2.965,4.462-6.694,8.285-8.551c1.021-0.494,2.092-1.014,3.369-0.872
		c1.953-5.294,5.017-10.243,7.943-15.224c1.177-2.002,3.19-3.248,4.354-5.328c0.114-0.202-0.341-0.727-0.262-1.006
		c0.376-1.314,1.901-2.337,2.069-3.682c0.475-3.838,1.652-7.992,4.825-11.064c-0.625-1.728-0.878-3.704-0.694-5.736
		c1.252-2.05,2.514-4.246,4.538-5.775c0.52-0.391-0.258-1.006-0.619,0.206c-0.099-2.281,0.049-3.948,0.425-5.616
		c3.854-2.569,7.683-5.336,12.315-6.565c-0.438-0.902-0.172-2.101,0.767-2.87c-0.264-0.322,0.421-1.01,1.012-0.657
		c-0.353-0.589,0.335-1.276,0.924-0.924c-0.353-0.589,0.333-1.276,0.915-0.808c0.026-0.92-0.202-1.702-0.773-2.553
		c1.498-2.789,2.179-6.025,1.899-9.604c0.909-3.115,2.597-6.299,2.292-9.833l-0.361-6.493c-0.045-0.885,1.502-1.781,2.679-1.822
		c0.537-0.017,1.278,0.505,2.116,0.69c0.924-1.45,2.52-2.103,4.048-2.614c1.306-3.73,0.945-7.578-0.372-10.438
		c-1.564-1.357-1.962-2.806-1.728-4.215c0.124-0.752,1.455-0.898,2.183-0.636c1.667-1.817,2.363-4.198,1.936-6.51
		c-0.124-0.681,0.226-1.405,0.857-1.695c1.904-0.87,2.892-2.89,2.845-4.967c-0.133-5.9-0.122-12.235,3.67-17.117
		c-0.187-0.461-0.475-0.934-0.357-1.189c0.456-1.008,1.624-1.484,2.672-1.416c0.825,0.054,1.564,0.725,1.626,1.552l0.797,11.288
		c0.12,2.217-0.196,4.437-0.265,6.63c-0.12,3.953,0.555,7.911,0.653,11.855c0.049,1.938,0.597,3.934,2.191,5.186
		c1.278,4.215,2.153,8.643,2.67,13.101c0.166,1.42,0.905,2.797,2.632,3.328c-0.017,2.247,1.126,4.325,2.464,6.417
		c-0.028-0.045,0.771-0.118,1.01-0.013c0.324,0.146,0.735,0.485,0.821,0.849c0.64,2.66,0.928,5.422,0.855,8.091
		c3.977,5.625,8.012,11.125,11.251,17.36c0.367,0.704,1.412,1.671,2.481,2.2c1.878,0.924,3.816,2.299,4.817,4.808
		c1.332,0.967,2.367,2.78,1.822,4.821c-0.208,0.786-1.953,0.988-3.081,1.182c1.141,4.778,3.502,8.984,5.586,13.256
		c0.621,1.28,1.094,2.789,0.481,4.245c-0.133,0.322,0.026,1.268,0.875,1.896c3.319,2.44,7.182,5.108,10.338,8.564
		c1.371,1.499,3.019,2.763,5.266,3.597c0.413,0.154,0.522,1.701,1.046,1.941l8.838,3.975c3.973-0.502,8.272-0.48,12.22,0.057
		c1.689-1.604,3.408-2.63,5.271-3.326c1.274-0.473,2.202-1.994,2.937-2.209c9.464-2.797,16.926-9.208,23.582-15.971
		c0.799-0.816,2.009-1.074,3.085-0.748c5.837-5.711,11.55-11.43,17.069-17.277c0.164-0.177,1.347,0.124,1.504-0.043l3.027-3.425
		c0.666-2.544,2.445-5.045,4.982-7.017c0.443-0.344,2.228,0.193,2.413-0.202l2.213-4.787c0.167-0.374,0.893-0.52,1.355-0.782
		c0.724-0.408,1.203-1.293,0.78-2.109c-0.198-0.374-1.01-0.571-1.246-1.087c-1.448-3.111-1.987-6.605-1.538-9.98l1.253-4.774
		c2.207-2.318,2.933-4.617,2.612-6.901c-0.137-0.995-0.148-2.499,0.69-2.787c3.712-1.283,5.504-5.285,5.255-8.873
		c2.492-1.59,3.295-3.998,4.434-6.078c0.327-0.591,0.978-0.932,1.848-0.696c0.752-2.862,2.063-5.496,3.833-7.975
		c-0.885-1.148-1.19-2.535-0.881-3.872c-0.804-0.694-1.478-1.598-1.359-2.419c0.176-1.242,1.476-1.856,2.573-1.545
		c1.021,0.29,1.605,1.36,1.403,2.535c-0.537,0.105-0.716,1.438-0.217,1.367c2.305-0.331,4.793,0.034,7.135,0.702
		c0.64,0.185,1.057,0.885,0.739,1.571c-0.172,0.367-0.701,0.638-1.221,0.69c-2.467,0.245-4.716,2.217-4.181,5.53
		c0.081,0.499,1.456,1.231,2.608,0.866c2.174-0.694,4.12-1.955,5.474-3.629c1.35,0.23,2.561,0.146,3.498,0.727
		c0.589,0.365,0.52,1.835,0.859,2.028c2.466,1.414,2.935,4.237,5.031,5.696c0.662,0.462,0.972,1.811,0.469,1.974
		c-3.792,1.242-5.115,5.661-3.923,9.193c0.631,1.85,2.479,2.995,4.396,3.027c0.602,1.259,1.646,1.977,2.818,2.022
		c1.502,0.058,2.986,0.698,3.923,1.832c0.215,0.258,2.295-0.271,2.56,0.064c1.227,1.568,2.559,3.268,4.032,4.202
		c0.718,2.763,2.569,4.716,2.967,7.168c0.15,0.926,1.783,1.892,2.311,3.167c0.439,1.053,2.02,1.171,2.907,2.057
		c1.901,1.899,4.677,3.485,7.824,4.572c0.522,0.181,1.867,0.528,1.685,1.495c-0.32,1.685,0.303,3.751,1.896,5.865
		c1.662,0.662,3.996,1.126,6.281,1.053c0.241-0.009,1.146,0.688,1.199,1.078c0.24,1.792,1.341,3.64,2.997,4.611
		c0.247,0.142-0.12,1.791,0.063,2.118c0.378,0.688,1.064,1.649,1.805,1.783c1.622,0.279,3.368,0.365,4.943,1.091
		c2.066,0.967,3.147,3.283,2.494,5.6c0.675,1.289,2.134,2.191,3.691,2.127c1.173-0.043,2.045,1.164,2.011,2.518
		c1.242,0.004,2.518-0.383,3.343,0.004c2.295,1.079,4.686,2.012,6.293,4.061c1.86-0.369,3.82,0.451,4.814,2.119
		c0.37,0.618,0.236,1.435-0.444,1.628c0,0.404-0.297,1.697,0,1.934c1.248,1.006,2.262,2.519,2.924,4.267l8.753,1.418
		c1.57,3.305,4.188,5.475,5.18,8.568c0.224,0.696,0.541,1.418,0.458,2.097c2.21,1.358,4.404,2.935,7.171,2.574
		c3.528,3.124,5.896,7.502,5.96,12.491c1.693,0.709,3.343,1.203,5.255,1.723c0.589,0.159,1.506,0.576,1.751,1.71
		c0.684-0.739,1.65-0.081,1.151,0.933c1.262-0.61,2.465-0.344,3.296,0.67c0.737-0.356,1.942-0.09,2.741,0.89
		c0.503-0.477,1.618,0.03,1.577,1.07c0.561-0.451,1.248,0.236,0.922,0.851c0.777-0.55,1.891-0.039,1.857,0.89h1.513
		c0-0.327-0.157-1.401,0-1.681c0.283-0.502,1.021-0.695,1.783-0.816c1.186,1.646,1.381,3.91,0.41,5.724
		c-0.215,0.396,0.485,0.727,0.892,0.485c-0.426,0.435,0.152,1.147,0.81,0.555c1.176,1.16,2.565,2.075,4.469,2.854
		c0.823,1.314,2.277,2.758,4.256,2.951c2.245,0.22,4.239,1.556,5.238,3.481c1.01,0,3.418-0.065,4.207,0.035
		c0.523,0.06,1.1,0.357,1.22,0.786c0.267,0.928,0.179,1.934,0.023,2.888c-0.122,0.765,0.462,1.641,1.386,1.289
		c0.902-0.349,2.409-0.473,3.666-1.311c1.676-1.113,4.064-2.501,6.514-1.41c0.737,1.926,2.256,3.146,4.325,3.752
		c0.799,0.231,3.053-0.757,3.69,0.236l3.895,5.98c2.316,0.567,4.308,1.848,6.293,2.768c1.1,0.512,2.584-1.268,3.313-1.728
		c1.096-0.683,2.066-0.245,2.286,0.516c0.303,1.065-0.666,2.956-0.224,3.468l2.813,3.128c-0.761,1.07-1.382,2.204-0.958,3.017
		c0.563,1.083,2.199,1.409,3.577,1.113c0.283-0.061,0.685-0.383,0.76-0.68c0.325-1.336-0.438-2.689-1.592-3.438
		c0.806-0.752,1.975-1.418,2.896-0.863c1.652,0.997,3.298,2.428,4.172,4.168c0.277,0.555,2.067,1.139,2.546,1.414
		c0.561,0.326,1.092,0.983,0.806,1.611c-0.434,0.949-0.949,2.075-0.64,3.192c0.163,0.606,0.801,0.872,1.445,1.108
		c0.757,0.288,1.706,0.438,2.555-0.146c-0.44-1.555-0.982-3.08-1.766-4.283c-0.254-0.392,0.451-1.074,0.94-1.264
		c1.683-0.636,3.509-0.03,4.619,1.474c0.236,0.322-0.17,1.105-0.204,1.724c-0.102,1.938,1.255,3.626,3.565,4.039
		c0.294,0.056,0.969-0.37,1.586-0.752c2.565-1.582,3.223-4.813,5.486-6.674c1.01-0.833,1.285-3.067-0.427-4.039
		c-0.965-0.545-2.001-2.535-1.754-4.485c0.1-0.786,0.725-1.276,1.464-1.521c2.423-0.804,5.298,0.134,6.188,2.574
		c1.755,0.571,2.65,2.32,2.052,3.966c-0.134,0.369,0.341,1.108,0.975,1.108c1.525,0.005,3.013-0.855,4.409-2.453l-0.256-5.724
		C569.272,517.904,568.426,517.294,567.577,516.95z M207.249,379.995c-1.257,0.37-2.677-0.518-2.999-1.768
		c-0.253-0.98,0.062-2.162,0.844-2.467c1.21-0.473,2.55,0.673,2.999,2.026C208.382,378.657,208.113,379.739,207.249,379.995z
		 M230.846,419.407c-0.548,1.203-1.347,2.272-2.391,3.3c-0.889-0.451-2.071-0.09-2.582,0.855c-0.223,0.412-0.709,1.744-0.947,2.084
		c-0.365,0.52-1.113,0.485-1.456,0.008c-0.578-0.803-1.106-1.762-0.991-2.822c0.067-0.602,0.181-1.436-0.258-2.093
		c-0.737-1.096-0.548-2.574,0.402-3.498c0.037-0.034,0.176-0.077,0.069-0.052c2.651-0.588,5.262-0.305,7.593,0.748
		C230.839,418.191,231.1,418.857,230.846,419.407z M347.135,322.746c-1.515-0.696-2.603-1.95-3.066-3.493
		c0.02-0.009,0.399-0.17,0.528-0.225c0.938-0.406,2.028-0.107,2.574,0.756C347.712,320.639,347.747,321.72,347.135,322.746z
		 M411.828,381.011c-1.029-0.292-1.975-1.081-1.959-2.174c0.008-0.554,0.573-1.246,1.141-1.278c1.332-0.075,2.943,0.559,3.3,1.545
		C414.789,380.431,413.128,381.383,411.828,381.011z M479.841,440.994c-0.591,0.349-1.359,0.057-1.744-0.571
		c-0.028-0.043-0.071-0.446-0.015-0.571c0.283-0.632,1.146-0.877,1.853-0.412C480.395,439.735,480.404,440.659,479.841,440.994z
		 M491.475,438.953c0.028-0.068,0.181-0.228,0.14-0.206c0.809-0.417,1.657-0.382,2.291,0.103c1.136,0.876,1.273,2.544,0.301,3.601
		c-0.394,0.43-1.023,0.378-1.493,0.047C491.559,441.686,490.948,440.26,491.475,438.953z M501.027,466.849
		c-3.691-0.322-7.619-1.198-10.184-3.914c-0.565-0.598-1.797-1.19-1.403-2.342c0.004-0.013,0.378-0.408,0.643-0.696
		c0.976,1.087,2.318,1.766,3.758,1.796c2.234,0.043,4.496,0.322,6.485,1.294c1.266,0.618,1.84,2.045,1.863,3.433
		C502.193,466.737,501.478,466.892,501.027,466.849z"/>
	<path style="fill:#223972;" d="M586.38,497.262c-2.197-1.182-4.159-3.304-6.723-4.705c-0.434-1.323-0.434-2.758-0.013-4.018
		c-1.441-1.684-3.185-2.883-4.958-3.515c-0.522-0.185-2.06,0.993-2.512,1.212c-1.023,0.494-1.957,1.371-1.996,2.471
		c-0.032,0.941,0.73,1.753,1.287,2.539c0.174,0.245-0.095,1.53,0.088,1.719l3.264,3.352c-0.937,2.127-0.138,4.744,1.927,5.994
		c0.818,0.494,1.425,1.41,1.477,2.355c0.083,1.547-0.112,3.098-0.632,4.494c0.479,0.512,0.806,1.186,1.295,1.276
		c0.963,0.181,2.08-0.306,3.14-0.301c0.975,0,1.877,0.559,2.507,1.314c0.437,0.524,1.4,0.49,1.609-0.142
		c1.302-3.901,2.634-7.79,3.229-11.353C589.635,498.357,587.692,497.967,586.38,497.262z"/>
	<path style="fill:#223972;" d="M574.944,516.727c-0.544,0.168-1.085,0.336-1.605,0.551c-0.711,0.296-1.302,1.366-0.646,1.963
		c0.99,0.916,2.387,1.638,4.091,1.853c0.514,0.06,1.411-0.464,1.448-1.074c0.079-1.384-0.443-2.664-1.412-3.687
		C576.558,516.053,575.582,516.529,574.944,516.727z"/>
	<path style="fill:#223972;" d="M572.567,526.851c-0.887,0.498-0.747,1.805-0.346,2.732c0.238,0.546,0.786,0.886,1.375,0.791
		c0.881-0.142,1.734-0.847,1.549-1.629C574.855,527.499,573.545,526.296,572.567,526.851z"/>
	<path style="fill:#223972;" d="M558.644,485.609c-0.111,0.91,0.426,1.787,1.321,1.941c0.8,0.138,1.5-0.563,1.36-1.366
		c-0.195-1.139-0.974-2.093-2.067-2.535C558.863,484.307,558.727,484.96,558.644,485.609z"/>
	<path style="fill:#223972;" d="M570.297,510.188c-0.595,0.124-0.89,0.722-0.89,1.293c0.005,0.816,0.265,1.826,1.074,2.016
		c0.782,0.18,1.42-1.002,1.307-2.007C571.697,510.689,571.01,510.028,570.297,510.188z"/>
	<path style="fill:#223972;" d="M572.177,474.497c0.696,0.146,1.609-0.111,1.529-0.618c-0.129-0.782-1.166-0.967-1.882-0.542
		c-0.03,0.018-0.215,0.241-0.224,0.267C571.446,474.055,571.765,474.411,572.177,474.497z"/>
	<path style="fill:#223972;" d="M224.697,421.31c-0.443-0.619-1.068-0.03-0.675,0.383c0.296,0.314,0.73,0.403,1.147,0.262
		C225.881,421.706,225.311,420.67,224.697,421.31z"/>
	<path d="M207.907,457.361c0,26.207-21.319,47.527-47.523,47.527c-26.207,0-47.526-21.32-47.526-47.527
		c0-26.207,21.319-47.523,47.526-47.523C186.588,409.838,207.907,431.154,207.907,457.361L207.907,457.361L207.907,457.361z"/>
	<path style="fill:#FFFFFF;" d="M159.55,474.416l-14.465-10.91l-9.769,3.33c-0.477,1.685-2.127,7.52-3.998,14.141l15.206,11.048
		c6.074-3.536,11.43-6.66,13.026-7.589V474.416z"/>
	<path style="fill:#FFFFFF;" d="M129.296,480.917l4.043-14.296l-11.81-10.725l-7.269,1.821c0.075,9.668,3.144,18.623,8.314,26.014
		L129.296,480.917z"/>
	<polygon style="fill:#FFFFFF;" points="134.512,466.075 134.506,466.063 134.499,466.071 	"/>
	<path style="fill:#FFFFFF;" d="M186.448,465.731c1.59-1.435,6.398-5.77,11.698-10.553l-5.809-17.875
		c-6.68-0.507-12.637-0.954-14.543-1.101l-6.28,8.228l5.582,17.846L186.448,465.731z"/>
	<path style="fill:#FFFFFF;" d="M144.511,461.633l5.52-17.141l-6.387-8.748c-1.777,0.099-7.837,0.442-14.685,0.829l-5.876,18.085
		c5.242,4.762,9.93,9.016,11.434,10.382L144.511,461.633z"/>
	<path style="fill:#FFFFFF;" d="M176.243,435.014c-0.773-1.792-3.311-7.67-6.136-14.206h-18.958
		c-2.692,6.351-5.103,12.04-5.872,13.854l6.325,8.662h18.294L176.243,435.014z"/>
	<path style="fill:#FFFFFF;" d="M128.176,434.656l15.342-0.867l6.061-14.305l-3.689-5.891c-8.91,2.956-16.597,8.564-22.176,15.881
		L128.176,434.656z"/>
	<path style="fill:#FFFFFF;" d="M189.181,481.385c-1.68-6.647-3.141-12.431-3.498-13.849l-9.292-3.429l-14.882,10.454v9.892
		c1.545,0.949,6.776,4.177,12.687,7.82L189.181,481.385z"/>
	<path style="fill:#FFFFFF;" d="M173.416,494.091l-12.899-7.953l-13.284,7.743l-0.522,7.554c4.323,1.341,8.914,2.066,13.673,2.066
		c4.746,0,9.326-0.722,13.638-2.058L173.416,494.091z"/>
	<path style="fill:#FFFFFF;" d="M199.739,456.382l-12.096,10.914l3.493,13.823l6.922,2.788c5.199-7.36,8.304-16.285,8.433-25.932
		L199.739,456.382z"/>
	<path style="fill:#FFFFFF;" d="M171.796,419.772l6.256,14.489l14.771,1.112l4.565-5.448c-5.487-7.382-13.105-13.066-21.959-16.131
		L171.796,419.772z"/>
	<path d="M160.053,523.546c0,26.202-21.319,47.523-47.523,47.523c-26.206,0-47.525-21.321-47.525-47.523
		c0-26.206,21.319-47.523,47.525-47.527C138.734,476.018,160.053,497.34,160.053,523.546L160.053,523.546L160.053,523.546z"/>
	<path style="fill:#FFFFFF;" d="M111.696,540.601L97.23,529.69l-9.769,3.33c-0.477,1.685-2.127,7.516-3.999,14.137l15.207,11.048
		c6.073-3.537,11.43-6.656,13.026-7.589V540.601z"/>
	<path style="fill:#FFFFFF;" d="M81.441,547.102l4.044-14.3l-11.81-10.721l-7.268,1.817c0.075,9.668,3.143,18.623,8.314,26.014
		L81.441,547.102z"/>
	<polygon style="fill:#FFFFFF;" points="86.658,532.26 86.651,532.247 86.645,532.256 	"/>
	<path style="fill:#FFFFFF;" d="M138.594,531.916c1.59-1.435,6.398-5.774,11.698-10.557l-5.81-17.875
		c-6.679-0.503-12.637-0.954-14.542-1.096l-6.28,8.224l5.582,17.85L138.594,531.916z"/>
	<path style="fill:#FFFFFF;" d="M96.657,527.813l5.519-17.14l-6.387-8.749c-1.777,0.103-7.837,0.443-14.685,0.834l-5.876,18.086
		c5.242,4.756,9.93,9.015,11.434,10.377L96.657,527.813z"/>
	<path style="fill:#FFFFFF;" d="M128.389,501.193c-0.773-1.791-3.311-7.665-6.136-14.205h-18.957
		c-2.692,6.351-5.103,12.04-5.872,13.854l6.325,8.662h18.294L128.389,501.193z"/>
	<path style="fill:#FFFFFF;" d="M80.322,500.837l15.342-0.868l6.061-14.3l-3.688-5.895c-8.91,2.957-16.597,8.564-22.176,15.882
		L80.322,500.837z"/>
	<path style="fill:#FFFFFF;" d="M141.327,547.565c-1.68-6.643-3.141-12.431-3.498-13.845l-9.292-3.433l-14.882,10.458v9.888
		c1.544,0.954,6.776,4.177,12.687,7.82L141.327,547.565z"/>
	<path style="fill:#FFFFFF;" d="M125.562,560.275l-12.899-7.953l-13.284,7.738l-0.522,7.555c4.323,1.345,8.914,2.07,13.673,2.07
		c4.746,0,9.326-0.726,13.638-2.063L125.562,560.275z"/>
	<path style="fill:#FFFFFF;" d="M151.884,522.563l-12.096,10.914l3.494,13.827l6.922,2.788c5.199-7.36,8.304-16.285,8.433-25.932
		L151.884,522.563z"/>
	<path style="fill:#FFFFFF;" d="M123.942,485.953l6.256,14.488l14.771,1.117l4.565-5.452c-5.487-7.382-13.105-13.063-21.959-16.131
		L123.942,485.953z"/>
	<path d="M276.607,505.332c0,26.206-21.319,47.527-47.523,47.527c-26.207,0-47.525-21.321-47.525-47.527
		c0-26.207,21.319-47.523,47.525-47.523C255.289,457.809,276.607,479.125,276.607,505.332L276.607,505.332L276.607,505.332z"/>
	<path style="fill:#FFFFFF;" d="M228.25,522.386l-14.465-10.909l-9.769,3.33c-0.477,1.684-2.127,7.52-3.998,14.141l15.206,11.047
		c6.074-3.536,11.43-6.66,13.026-7.588V522.386z"/>
	<path style="fill:#FFFFFF;" d="M197.996,528.887l4.044-14.295l-11.81-10.725l-7.268,1.822c0.075,9.668,3.143,18.622,8.314,26.013
		L197.996,528.887z"/>
	<polygon style="fill:#FFFFFF;" points="203.213,514.046 203.206,514.033 203.2,514.041 	"/>
	<path style="fill:#FFFFFF;" d="M255.149,513.702c1.59-1.435,6.398-5.771,11.698-10.554l-5.809-17.875
		c-6.68-0.507-12.637-0.953-14.543-1.1l-6.28,8.228l5.582,17.845L255.149,513.702z"/>
	<path style="fill:#FFFFFF;" d="M213.211,509.603l5.52-17.14l-6.387-8.749c-1.777,0.099-7.838,0.442-14.685,0.829l-5.876,18.086
		c5.242,4.761,9.93,9.015,11.434,10.381L213.211,509.603z"/>
	<path style="fill:#FFFFFF;" d="M244.944,482.983c-0.773-1.792-3.31-7.67-6.136-14.205H219.85
		c-2.692,6.351-5.103,12.04-5.872,13.853l6.325,8.663h18.294L244.944,482.983z"/>
	<path style="fill:#FFFFFF;" d="M196.877,482.627l15.342-0.868l6.061-14.304l-3.689-5.892c-8.91,2.956-16.597,8.564-22.176,15.882
		L196.877,482.627z"/>
	<path style="fill:#FFFFFF;" d="M257.882,529.355c-1.68-6.647-3.141-12.431-3.498-13.849l-9.292-3.429l-14.882,10.454v9.892
		c1.545,0.949,6.776,4.176,12.686,7.82L257.882,529.355z"/>
	<path style="fill:#FFFFFF;" d="M242.117,542.062l-12.899-7.954l-13.284,7.743l-0.522,7.554c4.323,1.341,8.914,2.067,13.672,2.067
		c4.746,0,9.327-0.722,13.639-2.059L242.117,542.062z"/>
	<path style="fill:#FFFFFF;" d="M268.439,504.352l-12.096,10.914l3.493,13.823l6.922,2.789c5.199-7.36,8.304-16.285,8.433-25.932
		L268.439,504.352z"/>
	<path style="fill:#FFFFFF;" d="M240.497,467.742l6.256,14.489l14.771,1.113l4.565-5.448c-5.487-7.383-13.105-13.067-21.959-16.131
		L240.497,467.742z"/>
	<path d="M248.517,570.038c0,26.202-21.319,47.523-47.523,47.523c-26.207,0-47.525-21.321-47.525-47.523
		c0-26.206,21.319-47.523,47.525-47.527C227.198,522.511,248.517,543.832,248.517,570.038L248.517,570.038L248.517,570.038z"/>
	<path style="fill:#FFFFFF;" d="M200.16,587.093l-14.465-10.91l-9.769,3.33c-0.477,1.685-2.127,7.516-3.998,14.137l15.207,11.048
		c6.074-3.537,11.43-6.656,13.026-7.589V587.093z"/>
	<path style="fill:#FFFFFF;" d="M169.905,593.594l4.043-14.3l-11.81-10.721l-7.268,1.817c0.075,9.668,3.143,18.623,8.314,26.014
		L169.905,593.594z"/>
	<polygon style="fill:#FFFFFF;" points="175.122,578.752 175.115,578.739 175.109,578.748 	"/>
	<path style="fill:#FFFFFF;" d="M227.058,578.408c1.59-1.435,6.398-5.775,11.698-10.557l-5.809-17.875
		c-6.68-0.503-12.637-0.954-14.543-1.096l-6.28,8.224l5.582,17.85L227.058,578.408z"/>
	<path style="fill:#FFFFFF;" d="M185.121,574.305l5.52-17.14l-6.387-8.749c-1.777,0.103-7.838,0.443-14.685,0.834l-5.876,18.086
		c5.242,4.756,9.93,9.015,11.434,10.377L185.121,574.305z"/>
	<path style="fill:#FFFFFF;" d="M216.853,547.685c-0.773-1.791-3.311-7.665-6.136-14.205h-18.958
		c-2.692,6.351-5.103,12.04-5.872,13.854l6.325,8.662h18.294L216.853,547.685z"/>
	<path style="fill:#FFFFFF;" d="M168.786,547.329l15.342-0.868l6.061-14.3l-3.689-5.896c-8.91,2.957-16.597,8.564-22.176,15.882
		L168.786,547.329z"/>
	<path style="fill:#FFFFFF;" d="M229.791,594.058c-1.68-6.643-3.141-12.431-3.498-13.845l-9.292-3.433l-14.882,10.458v9.888
		c1.545,0.954,6.776,4.177,12.687,7.82L229.791,594.058z"/>
	<path style="fill:#FFFFFF;" d="M214.026,606.768l-12.899-7.953l-13.284,7.738l-0.522,7.555c4.323,1.345,8.914,2.07,13.672,2.07
		c4.746,0,9.327-0.726,13.639-2.063L214.026,606.768z"/>
	<path style="fill:#FFFFFF;" d="M240.349,569.055l-12.096,10.914l3.493,13.827l6.922,2.788c5.199-7.36,8.304-16.285,8.433-25.932
		L240.349,569.055z"/>
	<path style="fill:#FFFFFF;" d="M212.406,532.445l6.256,14.488l14.77,1.117l4.565-5.452c-5.487-7.382-13.105-13.063-21.959-16.131
		L212.406,532.445z"/>
	<polygon style="fill:#1A5632;" points="231.879,508.722 294.422,400.396 356.968,508.722 	"/>
	<path d="M392.757,481.162c0,26.206-21.319,47.527-47.523,47.527c-26.207,0-47.526-21.321-47.526-47.527
		c0-26.207,21.319-47.524,47.526-47.524C371.438,433.639,392.757,454.955,392.757,481.162L392.757,481.162L392.757,481.162z"/>
	<path style="fill:#FFFFFF;" d="M344.399,498.216l-14.466-10.909l-9.769,3.33c-0.477,1.684-2.127,7.52-3.998,14.141l15.206,11.047
		c6.074-3.536,11.43-6.66,13.026-7.588V498.216z"/>
	<path style="fill:#FFFFFF;" d="M314.145,504.717l4.043-14.295l-11.81-10.726l-7.268,1.822c0.075,9.668,3.143,18.622,8.314,26.013
		L314.145,504.717z"/>
	<polygon style="fill:#FFFFFF;" points="319.361,489.876 319.355,489.863 319.349,489.871 	"/>
	<path style="fill:#FFFFFF;" d="M371.298,489.532c1.59-1.436,6.398-5.771,11.698-10.554l-5.81-17.875
		c-6.68-0.507-12.637-0.953-14.543-1.1l-6.279,8.228l5.581,17.845L371.298,489.532z"/>
	<path style="fill:#FFFFFF;" d="M329.36,485.433l5.52-17.14l-6.388-8.749c-1.776,0.099-7.837,0.442-14.685,0.829l-5.876,18.086
		c5.242,4.761,9.931,9.015,11.435,10.381L329.36,485.433z"/>
	<path style="fill:#FFFFFF;" d="M361.093,458.813c-0.773-1.792-3.311-7.67-6.136-14.205h-18.958
		c-2.692,6.351-5.103,12.04-5.872,13.853l6.325,8.663h18.294L361.093,458.813z"/>
	<path style="fill:#FFFFFF;" d="M313.025,458.457l15.343-0.868l6.06-14.304l-3.689-5.892c-8.909,2.956-16.597,8.564-22.176,15.882
		L313.025,458.457z"/>
	<path style="fill:#FFFFFF;" d="M374.03,505.185c-1.68-6.647-3.141-12.431-3.497-13.849l-9.292-3.429l-14.883,10.454v9.892
		c1.545,0.949,6.776,4.176,12.686,7.82L374.03,505.185z"/>
	<path style="fill:#FFFFFF;" d="M358.266,517.892l-12.899-7.954l-13.284,7.743l-0.522,7.554c4.322,1.341,8.914,2.067,13.673,2.067
		c4.745,0,9.326-0.722,13.638-2.059L358.266,517.892z"/>
	<path style="fill:#FFFFFF;" d="M384.588,480.182l-12.096,10.914l3.493,13.823l6.923,2.789c5.199-7.36,8.304-16.285,8.433-25.932
		L384.588,480.182z"/>
	<path style="fill:#FFFFFF;" d="M356.645,443.572l6.256,14.489l14.771,1.113l4.565-5.448c-5.486-7.383-13.105-13.067-21.959-16.131
		L356.645,443.572z"/>
	<polygon style="fill:#1B5E5B;" points="306.666,572.892 369.21,464.563 431.751,572.892 	"/>
	<polygon style="fill:#1A5632;" points="352.866,605.892 415.409,497.563 477.95,605.892 	"/>
</g>
<path d="M346.363,190.236h-7.761v-0.578c1.407-0.046,1.824-0.115,1.824-0.485c0-0.301-0.185-0.578-0.554-1.016l-4.205-5.244
	l-0.623,0.578v4.528c0,1.386,0.808,1.479,2.032,1.64v0.578h-7.783v-0.578c1.27-0.139,2.009-0.231,2.009-1.64v-11.18
	c0-1.525-0.947-1.572-2.009-1.641v-0.578h7.808v0.578c-1.273,0.093-2.057,0.139-2.057,2.125v4.943l5.013-5.036
	c0.623-0.623,0.831-0.831,0.831-1.27c0-0.532-0.301-0.67-1.964-0.763v-0.578h6.676v0.578c-2.426,0.139-3.534,1.271-7.414,5.244
	l7.044,8.732c0.349,0.416,0.671,0.462,1.133,0.485V190.236z"/>
<path d="M347.518,188.596c0,1.086,0.832,1.941,1.94,1.941c1.085,0,1.964-0.832,1.964-1.941c0-1.063-0.879-1.964-1.964-1.964
	C348.35,186.632,347.518,187.557,347.518,188.596z"/>
<path d="M379.397,190.236h-7.67v-0.578c1.386-0.139,2.056-0.208,2.056-1.732v-11.642h-0.047l-5.775,13.952h-0.623l-5.774-13.606
	h-0.045v10.742c0,1.617,0.414,2.171,2.333,2.286v0.578h-5.405v-0.578c1.8-0.161,2.101-0.508,2.101-1.848v-10.972
	c0-1.201-0.417-1.525-2.056-1.641v-0.578h5.844l4.621,10.903l4.619-10.903h5.822v0.578c-1.296,0.093-2.034,0.139-2.034,2.125v10.21
	c0,1.848,0.509,1.917,2.034,2.125V190.236z"/>
<path d="M386.695,187.926c-0.322,0.37-0.854,0.993-1.639,0.993c-0.832,0-1.18-0.831-1.18-1.547c0-2.01,2.288-2.68,2.818-2.795
	V187.926z M390.852,188.758l-0.229,0.231c-0.068,0.069-0.14,0.092-0.233,0.092c-0.507,0-0.507-0.439-0.507-0.578v-6.029
	c0-2.172-2.056-3.165-4.621-3.165c-2.864,0-4.318,1.408-4.318,2.864c0,1.571,1.246,1.571,1.523,1.571
	c1.203,0,1.549-0.878,1.549-1.293c0-0.9-0.694-1.086-0.694-1.571c0-0.369,0.533-0.831,1.364-0.831c1.708,0,2.033,0.854,2.033,2.032
	v1.686c-3.281,0.994-6.214,1.917-6.214,4.319c0,1.755,1.431,2.472,2.54,2.472c0.554,0,2.172-0.115,3.674-1.617
	c0.137,0.647,0.322,1.617,1.94,1.617c1.04,0,1.896-0.554,2.542-1.317L390.852,188.758z"/>
<path d="M402.75,189.242c-0.646,0.763-1.502,1.317-2.542,1.317c-1.617,0-1.802-0.97-1.939-1.617
	c-1.502,1.502-3.12,1.617-3.674,1.617c-1.108,0-2.54-0.716-2.54-2.472c0-2.402,2.933-3.326,6.214-4.319v-1.686
	c0-1.178-0.324-2.032-2.032-2.032c-0.832,0-1.364,0.462-1.364,0.831c0,0.485,0.693,0.67,0.693,1.571
	c0,0.416-0.346,1.293-1.549,1.293c-0.277,0-1.523,0-1.523-1.571c0-1.456,1.455-2.864,4.318-2.864c2.565,0,4.621,0.993,4.621,3.165
	v6.029c0,0.138,0,0.578,0.508,0.578c0.092,0,0.163-0.023,0.232-0.092l0.23-0.231L402.75,189.242z M398.246,184.577
	c-0.531,0.115-2.819,0.785-2.819,2.795c0,0.715,0.349,1.547,1.18,1.547c0.784,0,1.317-0.623,1.64-0.993V184.577z"/>
<path d="M410.304,182.706c-0.485-1.64-1.549-2.634-2.866-2.634c-0.831,0-1.478,0.601-1.478,1.317c0,2.356,5.405,1.825,5.405,5.613
	c0,2.195-1.479,3.558-3.627,3.558c-1.153,0-2.726-0.67-2.933-0.67c-0.255,0-0.393,0.185-0.625,0.647h-0.575v-3.812h0.646
	c0.138,0.624,0.691,3.05,3.257,3.05c1.153,0,1.64-0.832,1.64-1.524c0-2.126-5.498-1.987-5.498-5.544
	c0-2.033,1.547-3.395,3.674-3.395c1.085,0,2.032,0.508,2.471,0.508c0.417,0,0.509-0.277,0.578-0.462h0.507v3.349H410.304z"/>
<path d="M417.904,190.236h-5.521v-0.554c0.924,0,1.179-0.832,1.179-1.386v-11.781c0-0.255-0.047-1.341-1.179-1.341v-0.554h4.389
	v13.676c0,0.669,0.232,1.386,1.133,1.386V190.236z"/>
<path d="M429.706,189.242c-0.646,0.763-1.501,1.317-2.539,1.317c-1.618,0-1.803-0.97-1.942-1.617
	c-1.502,1.502-3.117,1.617-3.672,1.617c-1.108,0-2.541-0.716-2.541-2.472c0-2.402,2.935-3.326,6.213-4.319v-1.686
	c0-1.178-0.322-2.032-2.032-2.032c-0.831,0-1.362,0.462-1.362,0.831c0,0.485,0.692,0.67,0.692,1.571
	c0,0.416-0.347,1.293-1.547,1.293c-0.277,0-1.525,0-1.525-1.571c0-1.456,1.456-2.864,4.32-2.864c2.563,0,4.619,0.993,4.619,3.165
	v6.029c0,0.138,0,0.578,0.509,0.578c0.093,0,0.161-0.023,0.23-0.092l0.231-0.231L429.706,189.242z M425.204,184.577
	c-0.532,0.115-2.818,0.785-2.818,2.795c0,0.715,0.346,1.547,1.177,1.547c0.787,0,1.317-0.623,1.642-0.993V184.577z"/>
<path d="M442.436,190.236h-5.429v-0.554c0.763-0.07,1.085-0.462,1.085-1.317v-5.59c0-0.646-0.023-1.917-1.27-1.917
	c-0.924,0-1.919,1.132-1.919,1.341v6.167c0,0.532,0.071,1.201,1.133,1.317v0.554h-5.567v-0.554c0.832-0.162,1.225-0.254,1.225-1.386
	v-6.791c0-1.04-0.301-1.225-1.225-1.363v-0.554h4.413v1.663h0.045c0.325-0.554,1.317-1.94,3.281-1.94
	c1.27,0,3.096,0.715,3.096,3.257v5.798c0,0.554,0,1.271,1.132,1.317V190.236z"/>
<path d="M450.589,187.649c0,0.253-0.854,1.617-1.916,1.617c-1.85,0-1.85-3.004-1.85-4.343c0-2.241,0.324-4.319,1.964-4.319
	c1.293,0,1.802,1.409,1.802,1.432V187.649z M455.164,189.242c-1.316-0.046-1.362-0.715-1.362-1.339V174.62h-4.967v0.554
	c1.27,0.092,1.755,0.116,1.755,1.341v4.227c-0.554-0.601-1.34-1.432-2.726-1.432c-2.17,0-4.458,1.916-4.458,5.936
	c0,3.373,2.124,5.313,4.043,5.313c1.731,0,2.378-0.646,3.21-1.524v1.501c1.433-0.393,1.642-0.416,4.505-0.763V189.242z"/>
</svg>
