<?xml version="1.0" encoding="iso-8859-1"?>
<!-- Generator: Adobe Illustrator 24.0.1, SVG Export Plug-In . SVG Version: 6.00 Build 0)  -->
<svg version="1.1" id="Layer_1" xmlns="http://www.w3.org/2000/svg" xmlns:xlink="http://www.w3.org/1999/xlink" x="0px" y="0px"
	 viewBox="0 0 612 792" style="enable-background:new 0 0 612 792;" xml:space="preserve">
<path style="fill:#3369AB;" d="M306.134,112.815c78.268,0,149.135,31.732,200.432,83.029
	c51.297,51.297,83.029,122.164,83.029,200.432h0.007c0,78.265-31.735,149.132-83.036,200.432
	c-51.301,51.302-122.168,83.036-200.432,83.036v-0.006c-78.268,0-149.135-31.734-200.432-83.03
	c-51.296-51.296-83.029-122.164-83.029-200.432c0-78.268,31.733-149.135,83.03-200.431
	C156.999,144.548,227.866,112.815,306.134,112.815z"/>
<path style="fill:#FFFFFF;" d="M504.238,198.178c-50.707-50.708-120.751-82.076-198.101-82.076
	c-77.35,0-147.393,31.368-198.101,82.076C57.329,248.886,25.96,318.929,25.96,396.279c0,77.35,31.369,147.394,82.076,198.102
	c50.708,50.707,120.752,82.076,198.101,82.076v-0.007c77.355,0,147.398-31.366,198.101-82.069
	c50.704-50.703,82.07-120.748,82.07-198.102h0.006C586.315,318.929,554.946,248.886,504.238,198.178z"/>
<path style="fill:#3369AB;" d="M306.138,148.926c68.292,0,130.132,27.692,174.896,72.457
	c44.765,44.765,72.457,106.604,72.457,174.896c0,68.293-27.692,130.132-72.457,174.896
	c-44.765,44.766-106.604,72.457-174.896,72.457c-68.293,0-130.132-27.691-174.896-72.457
	c-44.765-44.765-72.457-106.603-72.457-174.896c0-68.292,27.692-130.131,72.457-174.896
	C176.006,176.618,237.845,148.926,306.138,148.926z"/>
<path style="fill:#FFFFFF;" d="M478.703,223.714c-44.168-44.168-105.183-71.491-172.565-71.491
	c-67.383,0-128.398,27.323-172.566,71.491c-44.167,44.168-71.491,105.183-71.491,172.565s27.323,128.398,71.491,172.566
	c44.168,44.168,105.183,71.49,172.566,71.49c67.383,0,128.397-27.322,172.565-71.49c44.168-44.168,71.491-105.184,71.491-172.566
	S522.871,267.882,478.703,223.714z"/>
<path d="M300.142,282.784c-0.919-0.038-1.836-0.063-2.75-0.077c0.131-1.051,0.33-1.811,1.609-1.811h1.6c0.279,0,1.408,0.119,1.447,0
	c2.597-0.598-1.809-3.484-2.209-3.884c-0.853-0.854-2.965-3.131-2.589-4.646c0.881-0.377,1.468-0.249,2.133-0.914
	c0.308-0.308,0.685-0.852,0.685-1.371c0-0.489-0.025-1.329-0.38-1.447c-2.078-0.959-4.731,0.229-7.007,0.229
	c-2.186,0-4.325-0.229-6.246-0.38v1.371c0,2.096,2.591,0.567,2.371,3.394c-0.077,0.975,0.042,1.91-0.391,2.624
	c-0.588,0.969-0.528,1.071,0.152,1.752c0.627,0.626,0.466,1.036,0.229,1.752c-0.541,0.291-2.286,1.164-2.361,1.751
	c-0.259,2.026,6.354-0.581,6.895,1.6c-13.034,0.299-25.707,2.946-38.163,7.002c0-1.971,0.933-4.044-0.453-5.434
	c-0.45-0.45-4.034-1.312-2.565-3.471c0.734-1.081,2.322-1.473,0.99-3.73c-1.006-1.706-1.708-0.63-3.563-1.605
	c-3.209-1.689-1.968-3.521-1.986-5.898c-0.018-2.458-5.455-6.628-7.213-8.386c-2.231-2.232-4.915-5.132-8.905-5.132
	c-0.288-0.096,0.903-5.282-3.622-5.282c-0.003-0.08-1.146-3.805-4.385-2.768c-0.765,0.245-1.307,1.251-2.558-0.251
	c-1.963-0.001-1.898-1.164-2.415-2.239c-0.688,0.078-2.309-0.926-1.057-2.138c1.358-1.315,1.241-3.804,0-4.981
	c0.294-0.885,2.445,0.48,3.686,0.164c0.606-0.154,0.994-0.711,0.842-2.126c-0.158-1.477-1.266-1.593-2.399-1.176
	c-1.17,0.43-2.368,1.428-2.582,2.082c-2.508-1.406-2.462-3.306-2.415-4.679c-1.056-0.35-1.453-3.022-0.018-3.74
	c-1.413-1.059-1.372-3.525-0.436-4.863c-0.115-0.183-1.896-3.897,1.852-4.377c0.191-2.723-1.101-4.108,2.061-5.81
	c1.118-0.601,2.231-0.692,3.563-1.236c-0.185-2.612,0.788-5.934,3.844-5.934c0.097-1.814,2.555-2.282,3.471-1.962
	c0.989-1.036,0.939-1.688,4.226-1.51c2.108-1.045,2.74-1.277,5.131-0.604c1.458-0.596,3.954-1.005,6.406-0.086
	c0.868,0.325,1.699-0.357,2.62-0.387c1.183-0.037,2.441,0.441,3.048,0.473c0.9-1.591,1.788-2.077,5.735-1.66
	c-0.615-1.955-0.933-6.399,3.389-6.958c0.425,1.963-0.003,2.221-0.691,3.742c-1.388,3.071,3.029,3.077,3.143,0.913
	c0.064-1.196,0.055-2.544,1.311-3.557c1.138,1.057,2.378,1.658,3.795,1.444c3-0.452,2.135-4.264-0.316-4.124
	c-1.605,0.092-1.972,1.588-2.917,1.588c-0.788,0-0.577-1.185-0.415-1.608c0.501-1.31,1.938-2.696,2.996-2.832
	c3.329-0.426,3.932,0.639,4.699,1.193c1.114-0.727,1.572-0.422,2.516-0.133c0.366-0.549,0.415-0.814,0.794-1.193
	c0.353-0.353,1.41-0.263,1.919-0.066c0.706,0.272,1.495,0,2.184,0c0.158,0.631,0.139,1.242,0.156,1.894
	c-1.422,0.043-2.593,1.085-2.834,2.449c-0.028,0.099-0.041,0.217-0.041,0.356l-0.201-0.205c-0.315-1.3-1.487-2.264-2.885-2.264
	c-3,0-4.156,3.943-0.886,4.71c1.313,0.308,2.809-0.105,4.057-1.209c1.912,0.313,3.442,0.541,4.485-0.712
	c0.908-1.089,0.318-2.352-0.109-3.454l0.642-1.669c1.62,0.715,2.927,0.279,3.919-1.308l2.038,2.119
	c2.028-1.206,4.469-2.844,6.876-0.759c2.438,2.111,2.219-0.472,2.219-2.145c0-2.906,3.348-1.908,3.392-4.71l0.057-3.454h2.117v2.747
	c0,2.952,0.599,2.721,2.394,2.675c0.694-0.017,0.71,0.354,0.384,1.058c-0.559,1.203-2.178,1.038-3.562,0.506
	c-2.686-1.034-1.962,3.254-2.903,4.602c-0.619,0.885-1.572,1.845-2.414,2.372c-0.505,0.316-0.634,0.94-0.797,1.033
	c-1.439,0.814-5.174,0.384-5.174,2.198c-0.957,0.15-3.602,0.681-2.153-0.944c0.349-0.232,0.634-0.551,0.824-0.926
	c0.284-0.349,0.535-0.731,0.702-1.191c0.397-1.094-0.712-2.108-2.027-2.198c-0.264-0.099-0.552-0.154-0.851-0.154
	c-1.346,0-2.438,1.092-2.438,2.438c0,0.507-0.515,1.18-0.25,1.57c0.264,0.39,1.31,0.498,1.75,0.682
	c-0.506,1.351-2.819,1.038-4.416,1.038c-1.521,0-2.262,0.247-3.371,0.942c-0.954,0.598-4.526-0.797-6.35,0.235
	c-0.919,0.521-3.371,4.317-3.528,4.317c-1.875-0.198-2.751-0.465-4.782,0.314c-1.041-0.426-2.236-0.773-3.136-0.079
	c-0.504,0.388-0.741,0.646-0.862,1.177c-0.062,0.27-0.343,1.292-0.471,1.334c-1.461-1.555-1.524-2.276-3.998-2.276
	c-0.883,0-3.124,0.776-2.43,1.884c0.541,0.864,1.23,0.507,1.96,1.099c0.554,0.448,0.278,0.645,1.254,1.02
	c0.939,0.362,2.002,0.211,2.509,1.021c0.6,0.959,0.125,3.476-0.854,1.534c-0.717-1.418-1.319-1.063-3.929-1.063
	c-1.338,0-0.73-2.836-3.214-0.864c-2.677,2.126-1.019,3.636-1.019,6.515c0,1.11,0.456,6.829-0.549,6.829
	c-0.431-1.867-0.205-2.797-1.333-3.925c-1.195-1.195-0.168-4.888-0.627-6.829c-0.2-0.849,1.521-2.97,2.831-4.021
	c1.222-0.98,0.603-1.958-0.654-1.56c-1.425,0.452-3.637,2.451-4.294,4.169c-0.674,1.765-0.736,4.964-1.25,6.506
	c-8.806-0.77-14.063,4.274-12.548,14.53c3.054-1.938,6.758-3.517,10.939-5.078c1.711-0.638,3.202-1.687,4.74-2.693
	c1.423,5.271,4.091,9.693,9.486,12.245c0.279-2.656-0.33-3.869,1.865-1.752c1.457,1.406,1.595,1.939,1.82,4.735
	c-1.329,0.159-2.294-0.047-3.005-0.506c-1.964-1.263-3.724-3.354-6.247-3.138c-1.885,0.162-1.717,1.668-0.705,3.723
	c0.661,1.766,2.621,2.258,2.621,4.02c0,1.351-1.096,2.447-2.447,2.447l-0.054,0c1.447,2.542,3.137,4.841,6.408,5.559
	c2.119,1.695,4.009,2.705,4.496-0.498c0.451-2.977,0.815-5.922,3.633-3.686c1.688,1.339,1.658,4.377-0.742,9.723
	c-3.35,2.624-6.958,1.691-10.618,0.231c-1.157,3.429-3.688,4.182-6.427,3.997c-2.46-0.165-1.723-2.328-1.768-4.228
	c2.027,1.422,5.702,0.799,4.043-2.063c-0.49-0.845-1.443-1.314-2.658-1.746c0.541-4.657-0.507-7.21-1.692-6.049
	c-1.055,1.034-0.991,1.648-3.271,0.971c0.169-3.341-1.398-4.56-4.848-3.693l0.577,6.348c-3.867,0.443-4.482-1.01-4.617-2.77
	l-0.346-6.232c1.994,1.176,3.837-0.362,1.575-2.204l-2.96-1.605c-0.251-2.625-1.839-4.583-3.347-6.579
	c-0.691-7.686,3.345-10.698,6.671-13.225c2.098-1.593,4.689-1.87,7.003-3.46c2.628-1.806,0.226-2.55-2.881-1.717
	c-3.997,1.071-9.465,4.148-10.102,4.551c-2.775,1.761-0.907,4.981-2.539,6.001c-1.142,0.714-2.481-1.065-3.347,0
	c-0.177,0.219-0.592,1.264-0.757,2.19c-0.535,2.998,0.59,0.233-1.829,1.979c-1.155,0.833-1.571,2.398,0.702,2.719
	c0.83,0.117,1.384,0.037,1.769,0.037c-0.367,2.629-1.01,5.977,1.385,6.694c0.487,0.146,1.651,1.456,1.732,2.078
	c0.067,0.514,0.346,0.672,0.346,1.27c0,0.447-0.234,1.501,0.115,1.501c0.746,1.303,2.548-0.105,2.655-0.923
	c0.084-0.65,0.374-1.37,0.808-1.616c1.03-0.579,1.536-1.035,2.445,0.083c0.537,0.659,0.806,1.528-0.022,1.994
	c-0.582,0.329-2.133-0.393-2.539,0.116c-0.601,0.751-1.279,2.77-2.424,2.77c-0.806,0-1.538,0.015-2.077-0.461
	c-0.376-0.333-1.27-1.253-1.27-1.5c-1.047,1.417-3.546,3.924-0.577,3.924c1.171,0,3.166,0.131,4.155-0.115
	c2.131,2.46,3.988,4.649,7.156,6.232c0.925,0.462,3.507,0.577,4.501,0.577c0.58,0,4.123,2.271,3.125,3.114
	c-0.902,0.765-1.9,1.307-1.048,3.811c0.771,2.264,4.027,4.92,6.925,5.078c2.969,0.163,4.618-2.885,7.156-2.885
	c0.345,1.497-1.417,2.559-2.988,3.417c-0.556,0.304-1.306,0.151-1.714,0.415c-0.896,0.578-0.971,1.516,0.432,2.054
	c5.331,2.047,12.138-0.094,16.46-2.722c2.512-1.528,2.118-2.836,5.347-2.451c1.464,0.175,6.557,2.403,6.45,2.403
	c-2.292,0.859-6.409,0.5-8.751,1.27c-1.707,0.56-22.163,4.813-19.39,8.54c2.74,3.685,5.086-2.005,5.309-1.847
	c4.408,1.813,9.147-0.759,16.256-2.302c5.266-1.143,25.114-3.681,44.237-2.526c17.411,1.052,34.271,5.72,38.028,6.491
	c1.09,0.929,8.158,1.61,9.537,0.232c1.125-1.126-0.558-1.777-1.617-1.428c-0.515-1.096-0.713-1.522-1.805-1.522
	c-1.193,0-1.389,0.563-1.9,1.808c-0.547,0.096-3.98,0.019-4.006-0.447c-0.109-1.978,1.629-1.277,1.629-2.788
	c0-1.222-1.35-1.363-2.434-1.14c-4.296,0.889-4.088,0.359-8.766-1.468c-2.361-0.922-4.975-0.74-6.76-1.037
	c0.916-2.609,12.545-5.32,9.463-2.661c-2.051,1.767-0.857,2.377,1.059,2.585c0.561,0.06,6.155,0.245,3.637-1.512
	c-1.642-1.147-2.447-1.96-0.76-3.33c1.166-0.948,3.516,0.599,3.516,1.712c1.422,0,2.557-0.16,3.897,0.19
	c0.769,0.201,2.281,1.418,2.281,2.189c-1.174,0.176-3.1,0.062-3.896,1.046c-0.609,0.753,0.524,2.094,1.426,2.094h1.425
	c1.894,2.383,1.897-0.598,1.878-2.185c-0.004-0.353,1.037,0.239,1.459,0.255c2.008,0.078,4.316,0.117,6.85-0.928
	c2.695-1.112,5.589-3.359,6.645-4.896c0.813-1.182,1.176-2.707-0.035-2.72c-0.514-0.005-0.971-0.672-1.156-1.454
	c-0.721-3.039,3.861-2.929,4.043-0.047c0.101,1.601,1.799,2.641,2.745,1.128c0.501-0.802,0.667-3.806-0.096-3.806
	c4.446,0,5.126-3.878,5.126-7.473c4.836,1.482,3.523-4.981,1.621-4.991c-2.118-0.011-2.645-0.253-3.516-0.952
	c1.297-1.084,3.061-2.986,4.276-4.567c1.222-1.588,2.197-1.801,2.109-3.764c-0.253-5.494,0.43-8.548-3.705-11.906
	c-3.468-2.815-8.776-3.734-13.692-3.734c0-1.899,0.449-2.091-0.934-2.956c-2.252-1.409-1.713,3.161-1.867,4.513
	c-0.459,4.013-0.797,4.811-2.957,7.469c-0.918,1.13-4.607,6.35-1.711,7.313c2.645-1.831,3.58-3.902,4.979-6.379
	c0.414-0.732,2.627-6.27,2.957-6.38c1.055,0.88,0.845,1.577,0.31,2.645c-0.445,0.894-1.145,2.338-1.244,3.112
	c-0.242,1.875-0.902,2.388,0.336,3.156c0.918,0.569,2.688,0.282,5.888,1.512c1.243,0.479,5.489,2.304,5.913,3.579
	c0.334,1.118-0.438,2.189-1.245,2.645c-0.907,0.512-1.693,1.382-2.489,2.179c-0.23,0.768-0.261,6.017,1.089,4.668
	c0.366-0.366,1.087-1.234,1.245-1.711c0.319,1.199,0.729,1.42,0,2.333c-0.393,0.49-0.641,0.484-0.934,1.245
	c-0.289,0.752,0.311,1.472,0.311,2.178c0,2.4,0.205,4.824-3.423,4.824c-0.241-2.274,1.179-10.646-4.668-5.602
	c-0.824,0.711-1.089,1.538-1.089,3.112c-1.016,0-1.442-0.21-2.334-0.311c-1.064-0.122-2.49-0.029-2.49,1.089
	c0,0.619-0.081,0.844,0,1.557c0.047,0.413,0.31,0.994,0.31,1.4c-1.368,0.821-2.762,2.122-2.021,4.045
	c0.668,1.738,3.499,0.467,4.668,0.467c0.977,1.628-1.762,2.19-2.49,2.645c-0.849,0.531-1.337,0.715-2.023,1.4
	c-1.348,1.348-3.447,0.956-4.979,0c-1.922-1.203,0.199-2.037-0.45-2.742c-0.742-0.807-5.122-0.039-8.417,0.228
	c-2.045,0.166-2.556-1.408-3.127-3.133c-1.145-3.451-0.507-2.488,0.946-5.4c0.397-0.795,1.124-3.072,1.712-3.267
	c0.195,0.848,0.507,1.285,0.623,2.178c0.138,1.075,0.301,1.801,0.777,2.645c0.512,0.906,2.501,2.951,3.734,2.179
	c1.77-1.107,1.762-1.713,1.09-3.735c1.404-0.43,1.482-1.136,2.881-0.871c1.863,0.353,3.81,0.377,3.81-1.93
	c0-1.426-0.321-1.637-0.622-2.8c-0.159-0.61-1.191-1.392-1.4-2.023c1.388-0.868,2.489-1.36,2.489-3.112
	c0-2.442-0.771-4.228-3.579-2.645c-0.603,0.34-0.836,0.921-1.4,1.089c-1.365,0.407-2.459,2.801-0.777,2.801
	c0.372,0,0.621,0.25,0.621,0.622c-0.945,1.367-0.182,2.334,1.246,2.334c0.584,2.534,0.008,4.678-2.801,4.357
	c-1.073-0.122-3.538-1.194-2.801-3.89c-2.539-0.4-6.824,1.447-7.625-1.245c-0.629-2.139-4.08-1.654-4.201-2.023
	c1.316-2.259,1.369-3.876,4.824-4.357c1.668-0.233,1.663-1.933,2.834-3.1c0.707-0.705-0.55-2.357,1.357-1.176
	c2.33,1.442,0.12,4.834,3.121,5.831c0.145,0.631,0.768,3.138,1.547,1.489c0.705-1.491-0.076-1.458-0.879-2.041
	c1.426-2.619,1.322-1.899,3.008-2.744c1.153-0.579,2.484-2.267,2.704-2.617c1.587-2.537-0.968-3.612-2.489-5.135
	c-0.392-0.391-1.051-0.739-1.4-1.089c-0.469-0.468-0.672-1.556-1.557-1.556c-1.404,0-1.443,0.481-2.334,0.777
	c0.197-1.051-0.078-1.799,0.623-2.023c0.815-0.261,2.436-3.099-0.467-3.268c0.119-0.523,0.311-1.363,0.311-1.867
	c2.604-0.487,2.399-3.292,3.734-3.734c1.113,0.069,1.761,0.343,2.646-0.156c0.604-0.341,1.802-1.491,2.333-2.022
	c1.208-1.208-1.146-4.018-2.8-3.423c-1.617,0.581-2.475,2.98-2.179,3.89c-1.828-0.342-1.879-5.924-3.267-7.313
	c-2.359-2.359-2.695,0.111-1.4,2.178c1.515,2.42,0.11,6.384-0.156,8.714c-0.201,1.766-2.018,2.338-2.178,3.734
	c-0.177,1.545,0.263,3.579,1.711,3.579c-0.271,1.188-0.143,2.179-1.556,2.179c-0.368-1.968-0.859-2.875-2.489-1.245
	c-1.489,1.489-1.245,2.88-1.245,5.446c0,1.272,0.226,2.316-0.467,3.112c-0.563,0.648-1.974,1.714-2.179,1.556
	c-1.776-1.185-1.305-2.105-1.556-4.045c-0.101-0.775-0.301-1.921-1.089-2.023c-1.492-0.193-2.685,0.126-3.112,1.556
	c-0.221,0.74-0.415,1.048,0,1.711c0.265,0.423,0.622,1.083,0.622,1.712c-0.853,1.024-0.744,0.747-1.711,0.622
	c-1.562-0.202-4.513,1.144-4.513,2.49c0,1.138-0.087,1.781,0.622,2.49c0.459,0.458,1.746,1.245,2.334,1.245
	c0,1.044-0.155,2.09-0.155,3.112c-1.95,0-3.972,0.54-2.179,2.334c1.211,1.212,3.256,3.335,5.446,1.556
	c0.869-0.706,2.022-1.036,2.335-2.023c0.03-0.099,1.291-1.895,1.399-2.178c2.864,4.137-0.841,5.019-1.245,8.558
	c-0.227,1.988-10.331,4.489-12.759,2.801c-1.886-1.312-2.56-4.144-4.356-5.602c-0.936-0.759-5.987,1.622-6.068,1.867
	c-3.502,1.969-8.053,1.708-9.803-1.089c-0.682-1.089-0.813-4.058-0.692-5.599c0.189-2.441-2.261-3.444-0.894-5.018
	c0.52-0.597,1.133-1.291,1.43-1.365c1.865,2.214,2.803,4.833,5.446,5.135c0.543,0.062,0.913,0.227,1.556,0.311
	c2.58,0.333,0.778-2.397,0.778-3.734c2.206-0.679,5.04-2.786,5.29-4.98c0.165-1.444,0.164-2.325-0.622-3.112
	c-0.709-0.709-1.921-1.434-2.956-1.089c-0.183-0.975-0.311-1.996-0.311-2.957c0.657,0,2.022-0.067,2.022-1.089
	c0-1.752-2.43-3.112-3.89-3.112c1.901-2.194,4.259-1.663,4.668-4.823c0.097-0.747,0-1.964,0-3.112c0-0.539-0.077-3.346-0.312-3.423
	c-0.599-3.597-5.602-7.78-6.69-11.981c-0.122-0.472-1.905-3.496-1.806-4.297c0.023-0.193,3.423,1.431,3.946,1.621
	c2.513,0.913,5.669,1.822,6.98,1.243c0.253,0.615,0.832,1.244,1.548,1.101c1.579-0.314,1.343-2.779-0.399-2.779
	c0.373-0.171,0.749-0.32,0.934-0.467c1.237-0.988,0.453-3.734-1.4-3.734c-2.226,0-3.067,0.463-3.067,2.779
	c-0.967,1.243-3.307,0.676-4.09-0.289c-0.309-0.378-0.547-1.014-0.934-1.4c-0.303-0.303-1.712-0.069-1.712-0.155
	c-0.589-0.842-0.728-2.541-0.155-3.112c0.304-0.304,1.193-1.317,1.244-1.712c0.129-1.003-1.438-1.4-2.489-1.4
	c-1.054,0-2.288,1.26-2.489,1.867c-1.394-1.469-2.41-2.977-4.047-4.201c0.555-0.333,0.322-0.312,0.779-0.312
	c1.287,0,1.256-1.712,0-2.023c0.977-0.65,1.545-1.008,2.334-1.556c1.112-0.773,0.834-1.308,0.16-1.468
	c-0.551-0.131-1.732,0.281-2.526,0.879c-0.452,0.34-0.837-0.332-0.593-0.792c0.184-0.345,0.485-0.602,0.935-0.643
	c0-0.58,0.729-1.372-0.155-1.711c-0.692-0.267-1.202,0-2.022,0c-1.397-0.931-4.73-1.381-5.447,0.778
	c-0.603-0.689-0.8-1.213-0.719-2.024l-0.017-0.006c-3.431-1.179-5.897-4.436-5.897-8.267c0-4.824,3.913-8.737,8.737-8.737
	c4.825,0,8.737,3.913,8.737,8.737c0,1.404-0.332,2.732-0.922,3.908c0.926-0.041,2.746-0.135,2.246,1.404
	c-0.332,1.018-1.51,1.097-2.588,1.289c0.617,3.019,1.742,3.188,3.715,4.79c1.613,1.311,2.473,4.798,2.473,7.374
	c1.533,0,1.496,3.619,1.662,4.913c0.174,1.338,1.982,1.388,2.957,0.778c0.695-0.435-0.091-1.772-0.877-2.489
	c-1.24-1.131,1.354-2.704,2.026-1.198c0.417,0.934,1.382,1.664,2.429,1.664c0.756,0,1.542,0.011,2.023,0.311
	c0.409,0.257,0.385,0.139,0.777,0.623c0.092,0.113,0.638,0.731,0.778,0.778c3.523-1.312,3.55-0.566,4.66,0.407
	c-2.112,0-5.788,0.963-4.038,3.794c0.98,1.583,2.182,1.813,2.904,1.249c1.056-0.822,1.368-3.874,1.142-4.361
	c2.928-0.349,1.278-2.027,4.046-1.556c0.396,0.067-0.088,0.104,0.311,0.156c0.992,0.128,2.219,0.05,3.268,0.311
	c0.662-1.513,0.672-1.46,1.557-2.178c1.014-0.824,3.047,0.308,3.579,0.777c0.811,0.717,1.603,1.849,1.866,2.646
	c3.063-1.711,2.944-0.557,4.047,0.311c-0.891,0.411-1.148,0.198-2.023,0.311c-0.137,0.018-0.83,0.211-1.09,0.311
	c-0.452,0.174-1.173,0.928-1.244,1.556c-0.164,1.435,1.08,2.023,2.178,2.023c1.393,0,1.4-1.399,1.4-2.646
	c0.608-0.287,1.071-0.879,1.807-0.813c1.404,0.127,3.018,1.404,3.018,2.991c-0.866,0.2-1.975,1.515-3.111,2.41
	c-0.883,0.695-1.951,0.906-1.868,1.636c0.101,0.881,5.208,0.934,6.38,0.934c0.727-1.663,2.129-3.89-1.089-3.89
	c0.144-0.269,0.312-0.516,0.466-0.778c1.152-1.94,2.537,1.106,3.424,1.4c-0.376,0.645-0.418,0.573-0.777,1.089
	c-0.365,0.523-0.467,1.934-0.467,2.801c0,0.769,0.357,1.602,0.777,2.022c0.271,0.27,1.184,0.156,1.712,0.156
	c1.05,0,1.4-0.78,1.4-1.867c0-0.708-0.482-1.867-1.088-1.867c-0.078-0.113-1.679-2.26-1.09-1.867
	c1.402,0.525,1.672,1.697,2.801,2.334c0.639,0.36,1.586,0.334,2.334,0.622c0.683,0.262,1.285,0.934,2.023,0.934
	c1.101,0.734,1.264,0.834,2.334,1.245c1.34,0.516,3.97-0.107,5.135,0.623c0.17,0.106,0.543,0.7,0.777,0.778
	c3.559,0,6.957,3.522,10.453,4.641c1.51,0.483,3.536,0.478,4.174,1.116c0.473,0.473,1.189,1.693,1.711,1.867
	c1.547,0.977,3.184,2.393,4.186,3.835c0.589,0.848,1.26,0.212,1.26,1.455c0,0.91-0.435,1.613-0.622,2.179
	c1.58,2.875,0.449,6.555,0,6.379c0.52,1.338,0.777,2.274,0.777,3.734c0,1.054-0.672,2.908-1.711,1.868
	c-0.142-0.143-0.267-0.045-0.311-0.312c-0.163-0.992-0.643-1.962-1.867-1.245c-1.268,0.743-0.649,4.381,2.179,3.734
	c0.422-0.097,0.934-0.368,0.934-0.778c0.379,0.977,0.467,0.921,0.467,1.867c0,0.641-0.106,3.112-1.4,3.112
	c0,1.386,0.18,2.399-2.023,2.956c-0.284,0.074-0.057,0.155-0.467,0.155c2.086-1.908-0.234-3.044-0.467-2.956
	c0.272-0.129,1.563-0.454,1.245-1.089c-0.571-1.144-3.038-0.673-3.388,0.492c-0.242,0.807,0.853,1.546,1.832,1.531
	c-0.27,0.901,0.31,1.337,0.31,2.334c0,1.537-1.619,1.277-1.867,2.023c-0.232,1.245,0,1.667,0,2.8c0,0.779,0.505,2.954-0.31,3.268
	c-1.13,0.434-2.562,0-3.734,0c-0.293,1.172-0.459,1.229-1.245,1.867c-0.202,0.165-0.498,0.617-0.778,0.933
	c-0.49,0.555-0.818,0.749-1.244,1.089c-0.179,0.143-1.309,1.017-0.623,1.245c0.375,0.842,0.582,1.964,0.156,2.645
	c-0.236,0.378-0.015,0.43-0.467,0.778c-0.391,0.3-0.802,0.778-1.4,0.778c-0.912,0-1.503,0.467-2.49,0.467
	c-1.071,0-1.885-0.312-2.645-0.312c-1.185,3.951-5.018,5.643-7.936,7.469c-1.719,1.075-7.994,3.745-3.916,5.689
	c1.283,0.612,0.651,3.108-0.541,3.855c-1.407,0.88-2.578,0.755-4.182,1.373c-2.067,0.796-2.242,1.567-0.075,1.842
	c1.271,0.163,0.041,2.949-0.337,3.417c-1.195,1.477-3.234,3.026-2.932,5.141c0.111,0.776,2.328,1.422,2.801,2.179
	c0.331,0.528,0.354,1.368,0.623,1.867c0.391,0.725-1.154,1.127-1.244,1.4c1.434,4.945-1.828,4.667-6.139,5.542
	c-10.611,2.154-23.269,2.081-37.31,1.949c-12.523-0.117-26.268,0.051-39.906-0.742c-1.839-0.104-2.573-2.557-3.927-2.384
	c-1.54,0.197,0.654,1.72-1.516,1.231c-1.156-0.261-1.852-0.64-2.777-0.986c-1.117-0.417-4.205,0.364-5.52,0.213
	c-1.831-0.208-5.913,0.353-5.913-1.711c-1.812,0.285-3.89,0.218-3.89-2.178c-2.792-1.221-1.088-3.404-0.271-4.296
	c0.511-0.557,0.919-1.003,0.894-1.15c0.192,1.657-0.482,1.384-0.381,2.586c0.097,1.145,1.348,0.905,2.127,0.327
	c0.836-0.622,2.142-1.293,3.233-0.58c1.665-1.546,4.636-3.106,6.38-0.778c-1.838,0.247-4.215,0.325-5.29,1.4
	c-0.651,0.651-0.308,0.729-1.245,1.089c-0.979,0.376-2.034,0.278-2.178,1.4c-0.15,1.162,1.021,1.4,2.023,1.4
	c0.335,1.007,0.912,0.59,1.245,0c0.594-1.052,1.007-0.774,2.334-0.622c1.818,0.208,2.29,0.847,3.423,1.556
	c0.87,0.544,3.268,0.253,3.268-0.934c-0.683-0.292-1.225-0.364-2.023-0.467c-0.971-0.124-1.269-1.499-1.712-1.556
	c-1.122-0.145-2.431-0.156-3.423-0.156c6.792-6.111,36.599-6.068,48.236-6.068c11.711,0,21.834,1.919,32.521,2.801
	c3.784,0.313,8.567,2.98,12.448,3.423c1.138,0.13,4.26,0.309,3.734-1.711c-0.374-1.439-1.543-2.148-2.502-2.52
	c-2.838-1.098-1.232,1.934-3.416,2.163c-1.703,0.179-2.002-1.398-3.037-2.105c-3.182-2.175-8.449-3.816-11.584-4.54
	c-6.445-1.489-12.236-1.867-19.45-1.867c-0.848-2.261,1.599-1.401,3.268-1.401c1.331,0,2.824,0.156,4.356,0.156
	c0-1.306-0.837-1.795-1.512-2.342c-0.943-0.765-1.494-2.326,0.268-2.326c-0.482-1.178-0.467-1.495-0.467-2.645v-1.245
	c0-1.131,3.211-2.738,1.089-3.579c-0.997-0.396-2.04,0.075-2.265,1.193c-0.242,1.206-0.51,3.815-3.229,0.363
	c-0.488-0.621,0.047-1.516,0.047-2.023c0-0.856-2.418-0.778-3.268-0.778c-0.563,0-3.48-0.139-3.578,0.156
	c0.224,0.972,0.055,1.753,0.934,1.867c1.646,0.212,1.244,0.938,1.244,2.645c0,2.422-0.706,3.04-2.023,4.356
	c-0.743,0.743-3.423,1.607-3.423,2.957c1.16-0.099,9.164,1.584,5.709,2.391c-1.119,0.262-2.58-0.524-3.687-0.524
	c-0.898,0-1.984-0.064-2.646,0.156c-0.807-1.451-1.427-1.277-2.101-0.687C304.903,283.942,302.885,282.97,300.142,282.784
	L300.142,282.784z M347.697,215.898c0.598,0,1.081,0.502,1.081,1.121c0,1.288-1.815,4.777-2.298,6.081
	c-1.246,3.36,0.197,2.977,0.908,3.773c1.107-4.472,7.139-10.779,7.416-16.83c0.145-3.139-0.717-5.927-5.254-7.98
	c-0.487-0.22-1.259-0.517-2.215-0.852c-0.374-0.131-0.776-0.269-1.201-0.408c1.047-0.035,1.881-0.662,1.881-1.428
	c0-0.789-0.883-1.429-1.973-1.429c-1.09,0-1.973,0.64-1.973,1.429c0,0.35,0.172,0.671,0.461,0.92
	c-4.799-1.468-11.211-2.962-12.968-1.864c-2.179,1.362-1.262,1.039,1.065,1.606c1.412,0.345,2.974,0.664,4.557,0.987
	c6.883,1.409,14.142,2.895,14.142,7.841c0,0.683-0.554,1.236-1.236,1.236s-1.235-0.554-1.235-1.236
	c0-2.937-6.243-4.214-12.162-5.426c-4.189-0.857-8.238-1.685-10.455-3.278c-2.331,0.057-4.657-0.731-7.488-1.73
	c0.16,1.947,2.699,5.277,4.799,8.682c1.853,3.004,2.425,6.052,3.924,6.467c3.088,0.855,7.648,0.504,10.807,1.314
	c2.85,0.73,5.321,1.708,7.127,1.762C346.352,216.683,346.836,215.898,347.697,215.898z"/>
<path style="fill:#FFFFFF;" d="M291.569,194.147c1.168,0,2.121-0.953,2.121-2.121c0-1.168-0.953-2.121-2.121-2.121
	c-1.168,0-2.121,0.953-2.121,2.121C289.448,193.194,290.401,194.147,291.569,194.147z"/>
<path style="fill:#FFFFFF;" d="M299.399,169.589c1.484,0,2.695-1.21,2.695-2.694c0-1.484-1.21-2.694-2.695-2.694
	c-1.484,0-2.695,1.21-2.695,2.694C296.705,168.379,297.915,169.589,299.399,169.589z"/>
<path style="fill:#FFFFFF;" d="M304,174.129c1.484,0,2.695-1.211,2.695-2.695c0-1.484-1.211-2.694-2.695-2.694
	c-1.484,0-2.695,1.21-2.695,2.694C301.305,172.919,302.516,174.129,304,174.129z"/>
<path style="fill:#FFFFFF;" d="M303.935,165.049c1.484,0,2.694-1.211,2.694-2.695s-1.21-2.695-2.694-2.695
	c-1.484,0-2.695,1.211-2.695,2.695S302.45,165.049,303.935,165.049z"/>
<path style="fill:#FFFFFF;" d="M309.06,169.721c1.484,0,2.695-1.211,2.695-2.695c0-1.484-1.211-2.695-2.695-2.695
	c-1.484,0-2.694,1.21-2.694,2.695C306.366,168.51,307.576,169.721,309.06,169.721z"/>
<path d="M302.143,199.92c-0.83-0.138-0.753,0.601-0.457,0.869C302.303,201.348,303.076,200.076,302.143,199.92z"/>
<path d="M300.327,202.579c-0.149,0.386,0.199,0.519,0.469,0.671c0.159,0.089,0.384,0.084,0.604,0
	c0.126-0.048,0.295-0.249,0.336-0.403c0.027-0.105,0.157-0.154,0.134-0.335C301.803,201.981,300.592,201.89,300.327,202.579z"/>
<path d="M303.866,221.534c-0.217,0.945-0.237,1.833-0.237,2.851c0,0.722,0.994,0.533,1.108,1.03c0.323,1.41,0.474,1.505-0.475,2.455
	c-0.542,0.542-1.423,1.368-1.423,2.296c-0.337-0.078-0.548-0.044-0.87-0.079c-0.416-0.047-0.691-0.349-1.107-0.396
	c-0.275-0.031-0.591,0-0.871,0c-0.262,0-0.391,0.031-0.553,0.079c-0.254,0.076-0.316,0.408-0.316,0.713
	c0,0.208-0.064,0.903,0.079,0.95c0.634,0,0.848-0.021,1.186,0.316c0.045,0.045,0.139,0.172,0.159,0.238
	c0.032,0.108,0.218,0.395,0.158,0.554c-0.17,0.442-0.037,0.667-0.396,0.871c-0.299,0.169-0.651,0.238-1.028,0.238
	c0,0.177-0.061,0.354,0.079,0.395c0.114,0.034,0.052,0.02,0.158,0.079c0.138,0.078,0.067,0.08,0.237,0.08
	c0.053,0,0.159-0.052,0.159,0v0.079c0,0.133,0.154-0.069,0.237-0.079c0.042-0.005,0.209,0.018,0.237,0
	c0.111-0.069-0.114-0.08,0.159-0.08c0.186,0,0.167-0.022,0.316-0.079c0.048-0.019,0.106,0.007,0.158,0
	c0.171-0.021-0.012-0.022,0.158-0.079c0.4,0.58,0.14,2.071,1.424,1.268c1.097-0.687,2.304,0.639,2.926,1.029
	c0.483,0.302,2.69,0.237,3.401,0.237c0.827-0.055,1.972-1.817,2.53-2.376c0.726-0.726,1.842-1.114,1.346-2.613
	c1.033-0.388,1.61-0.104,1.265-1.267c-0.088-0.295-1.153-0.198-1.503-0.158c-1.212,0.137-1.314-0.681-1.898-1.267
	c-0.441-0.444-1.686-1.179-1.818-1.584c0.518-0.155,0.791-0.398,0.791-0.871c0-2.514-1.145-1.742-2.927-1.742
	C305.506,224.623,305.391,221.692,303.866,221.534z"/>
<path d="M295.561,211.002c-1.403,0.794-1.193,2.825-0.711,4.276c2.567,2.574,1.661,4.244,1.661,7.602
	c0,1.293,3.633,5.305,4.588,5.622c0.444-0.494,0.463-1.904,0.079-2.217c-0.434-0.353-1.179,0.048-1.265-0.713
	c-0.091-0.801,0.316-1.608,0.316-2.534c0-1.234-1.107-1.079-1.107-1.663c-0.095-0.411,0.103-1.64-0.158-1.9
	c-1.011-1.011-1.107-0.589-1.107-2.455c0-1.532,0.237-3.187,0.237-4.83c0-0.919,0.406-1.877-0.791-1.821
	c-0.333,0.015-0.469-1.231-1.12-1.332C294.976,208.853,296.364,210.549,295.561,211.002z"/>
<path d="M304.658,211.081c-1.247,0.577-0.69,0.828-1.108,1.663c-0.321,0.643-1.066,1.657-1.819,1.742
	c-0.88,0.099-2.016-0.249-2.768,0c0.12,0.523,0.13,0.791,0.553,1.03c0.555,0.314,1.14,0.809,1.729,1.181
	c1.641,1.036,1.307-0.711,2.305-1.339c0.419-0.264,1.063-0.74,1.345-1.188c0.285-0.453,0.012-0.945,0.08-1.426
	c0.026-0.189,0.482-0.066,0.835-0.323C306.852,211.663,305.594,210.806,304.658,211.081z"/>
<path d="M314.307,222.327c-1.63,0.529-2.083,2.312-2.131,3.182c-0.055,0.981,0.196,1.622,1.498,1.569
	c0.678-0.028,1.066-0.943,1.187-1.346c0.11-0.373,1.366-0.804,1.345-0.871c0-0.58-0.061-2.121,0.158-2.692
	c0.512-1.334-0.246-1.708-0.871-1.413C314.867,221.05,314.532,222.253,314.307,222.327z"/>
<path d="M307.175,187.531c-0.75,0.845-2.201,0.567-2.359,1.853c-0.146,1.181,0.679,2.002-0.335,2.231
	c-1.423,0.321-0.692,1.222-0.692,2.6c0,0.375-0.04,2.231,0.158,2.296c0.503-0.302,0.67-0.012,1.187-0.079
	c0.659-0.086,1.827-1.53,1.978-2.138c-1.441,0-1.707-0.713-1.187-1.98c0.126-0.308,0.892-1.353,1.562-0.963
	c0.391,0.228,0.798-0.006,1.095-0.206c0.356-0.239,0.779-0.038,0.903,0.931c0.153,1.206-0.051,2.099-0.713,2.93
	c-0.117,0.15-0.683,0.813-1.166,1.36c-0.71,0.805-0.406,0.764,0.173,0.648c1.925-0.384,2.384,1.663,2.022,3.693
	c-0.313,1.757,0.77,0.571,1.027,1.346c0.262,1.914,0.238,4.126,0.238,6.019c0,0.621,0.197,2.256-0.08,2.534
	c-0.847,0.852-2.536-0.574-2.516,0.956c0.019,1.185,1.134,0.386,1.804,1.419c0.311,0.478,0.359,0.916,0.338,1.363
	c-0.066,1.388,0.113,1.409,1.64,1.409c1.188,0,2.1,0.211,1.385-1.223c-0.379-0.762-1.094-1.357-1.779-1.787
	c-0.18-0.111,0.009-5.157,0-6.493l-0.08-10.611c-0.008-1.217,0.332-4.522-0.158-5.306c-0.653-1.044-3.124-2.415-3.164-2.534
	C308.119,187.072,307.728,186.908,307.175,187.531z"/>
<path d="M317.471,207.914c0.089,1.166,0.236,2.326,0.236,3.484c0,0.792,0.545,1.751,0.396,1.9c-0.355,0.355-1.255,2.582-1.503,2.614
	c-0.499,0.065-1.411-0.344-1.267,0.475c0.062,0.347,0.371,0.517,0.65,0.593c0.679,0.188,0.457,0.439,0.457,1.307
	c0,0.847,1.123,0.975,1.188,0.475c0.111-0.872-0.012-1.775,0.949-1.9c0.26-0.034,0.129-1.44,0.158-1.663
	c0.143-1.126,0.795,0.169,1.238-0.804c0.302-0.659,0.045-2.02,0.026-2.284c-0.04-0.565,0.302-1.124-0.079-1.504
	c-0.172-0.174-0.757-0.295-0.869-0.476c-0.168-0.27-0.098-1.454-0.238-1.821C318.715,208.049,317.798,207.006,317.471,207.914z"/>
<path d="M316.047,205.46c-0.033,0.02-0.496,0.071-0.554,0.079c-0.902,0.118-0.491,1.109,0.237,1.109h1.107
	c0.705,0,0.949-0.116,0.949-0.95c0-0.859-0.612-1.078-1-0.952C316.398,204.871,316.231,205.343,316.047,205.46z"/>
<path d="M305.369,201.896c-0.567,0.973-2.368,1.732-1.661,3.564c0.271,0.704,0.185,1.608,0.142,2.439
	c-0.063,1.219-0.02,2.033,1.045,0.728c1.277-1.57,0.731-1.698,3.006-2.376c0.763-0.227,1.582-0.879,1.582-1.822
	c-0.598-0.278-1.143-0.304-1.74-0.237c-0.318,0.036-0.728,0.099-0.949,0.237c-0.585,0.366-0.475-1.027-0.475-1.346
	C306.318,202.669,305.868,202.133,305.369,201.896z"/>
<path d="M295.666,202.501c-0.373,0.919-0.784,1.802-1.224,2.655c-0.392,0.761-0.167,1.945,0.787,1.287
	c1.666-1.149,1.76-3.129,2.22-4.978C296.116,201.465,296.159,201.285,295.666,202.501z"/>
<path d="M260.011,230.281c0.512,2.217,1.109,4.856-0.265,6.229c-0.488,0.489-1.639,1.373-1.985,1.988
	c-0.695,1.235,0.002,2.511,0.577,3.046c0.754,0.701,1.994,0.298,3.394-0.13c0.995-0.304,2.86-0.511,3.628,0.277
	c0.959,0.986,2.309,1.652,2.688-0.427c0.241-1.322,0.604-2.5,2.554-2.5c1.627,0.373,1.881-1.906,1.588-2.916
	c-0.063-0.217-0.338-0.282-0.706-0.266c-0.869,0.038-2.257,0.531-2.604,0.531c-0.281-0.94-0.403-1.354-1.192-1.59
	c-0.845-0.253-2.313-1.239-2.78-1.988c-0.192-0.309-1.221-2.44-1.456-2.519L260.011,230.281z"/>
<path d="M254.019,219.717c0.297,0.891,1.322,1.579,1.458,2.624c0.2,1.55-1.567,1.652-3.013,1.652c-1.995,0-2.221-0.637-2.721-2.139
	c-0.763-0.175-1.183,0.223-1.27,0.774c-0.127,0.797,0.69,1.363,0.965,1.807c0.847,1.368,1.368,2.931,2.051,3.59
	c0.512,0.494,1.319,0.968,2.045,0.438c-0.882-0.735-2.127-1.781-1.652-3.207c2.316,1.069,5.249,0.261,5.249-2.624
	c0.787,0.087,7.697,1.77,8.65-1.167c1.977,0.912,2.893-1.828,0.875-2.332c-0.147-0.64-0.127-1.534-0.777-1.749
	c0.232,1.047-1.31,2.78-3.316,2.548c-2.958-0.34-0.706-4.006-2.321-4.006c-0.448,0.647-0.607,2.287-1.458,2.43
	c-0.834,0.14-1.162,0.646-1.73,1.284C256.495,220.267,254.888,219.572,254.019,219.717z"/>
<path d="M224.362,229.243c-0.312,2.051,0.059,1.141,1.007,2.95c0.691,1.318,0.667,1.717,2.159,2.159
	c0.653,0.192-0.499-2.37-0.792-2.663C226.116,231.069,226.011,229.387,224.362,229.243z"/>
<path d="M222.922,224.854c-0.063,0.434-0.315,0.904-0.36,1.295c-0.048,0.424,0,0.855,0,1.367c1.484-0.277,2.437,0.241,2.663-1.727
	c0.035-0.309,0.126-2.021-0.072-2.087C222.572,222.409,223.05,223.988,222.922,224.854z"/>
<path d="M250.423,211.553c0.369,0.442,0.533,0.436,0.875,0.778c1.245,1.245,1.148,3.052,1.652,4.568
	c0.834-0.389,1.567-0.894,2.383-0.971c1.796-0.171,3.305,0.344,2.314-1.043c-0.474-0.664-0.749-1.407-0.226-2.359
	c-1.469-0.2-2.922,0.229-4.179-0.097C252.499,212.235,251.517,210.66,250.423,211.553z"/>
<path d="M260.719,206.682c-0.014,0.707-0.08,1.544-0.144,2.211c-0.194,2.033,0.546,0.823,1.803,2.369
	c0.531,0.654,0.188,1.581,0,2.333c0.244,0.734,1.277,2.045,2.041,2.235c0-1.969,0.691-5.858-0.272-7.582
	c-0.319-0.572-0.958-0.368-0.991-0.874C263.015,205.23,260.768,204.276,260.719,206.682z"/>
<path d="M320.592,275.93c-0.197,0.237-0.469,0.391-0.469,0.729c0,0.268-0.338,0.907-0.468,0.989c-0.441,0.276-1.423-0.647-1.873,0
	c-0.298,0.43,0.156,1.667,0.156,1.615c0.099,0.221,0.813,0.318,0.989,0.417c0.262,0.147,0.215,0.579,0.363,0.729
	c0.281,0.284,2.148,0.209,2.705,0.209v-3.125C321.996,276.192,321.845,275.93,320.592,275.93z"/>
<path d="M293.136,275.946c-0.964,0.519-1.066,0.604-1.066,1.828c0,0.415,0.087,1.089,0.152,1.6c0.067,0.522,0.435,0.348,0.914,0.533
	c0.184,0.071,0.756,0.051,0.838,0c0.695-0.435,0.457-1.306,0.457-2.361c0.315,0,0.568-0.052,0.762-0.077
	c0.421-0.053,0.665-0.182,0.609-0.685c-0.025-0.224-0.144-0.644-0.305-0.686c-0.482-0.124-0.669-0.229-1.219-0.229
	C293.831,275.87,293.311,275.914,293.136,275.946z"/>
<path d="M257.046,259.465c-1.135,0.524-0.794,1.667-0.794,2.651c-1.093-0.29-0.9,0.355-0.9,1.167
	c1.021,0.876,1.164-0.265,1.164-1.007c0.281,0.018,0.9,0.138,0.9-0.265C257.416,261.37,257.603,259.413,257.046,259.465z"/>
<path d="M265.359,254.694c-1.05,0.941-1.768,1.441-2.277,2.757c-0.13,0.334-0.268,0.954-0.741,0.954
	c-0.416,0-1.413,0.218-1.536,0.583c-0.16,1.022,1.575,1.379,2.542,1.008c0.904-0.348,0.538-0.938,1.112-1.644
	c0.639-0.787,1.841-1.301,2.382-2.385c0.097-0.193,0.46-1.468,0.477-1.484c0.359-0.359,0.979,0.053,1.536,0.053
	c0.259-0.289,0.318-0.595,0.318-0.954c0-0.489,0.09-0.952-0.053-1.326C268.568,250.822,265.82,254.281,265.359,254.694z"/>
<path d="M271.449,252.732c-0.267,0.386-0.234,2.56,0.053,2.916c0.483,0.599,2.027,0.478,2.913,0.478
	c0.715,1.074,0.417,1.579,1.933,1.681c1.154,0.078,2.794-0.027,3.873-0.182c1.263-0.181,0.985-0.623,1.395-1.393
	c0.103-0.194,0.486-1.146,0.106-1.272c-1.572,0.725-4.84,0.766-6.408,0.159C274.684,254.874,272.44,251.79,271.449,252.732z"/>
<path d="M284.317,257.345c2.488-1.478,6.168,0.442,9.843,0.76c1.45,0.126,1.498,1.23,2.915,1.688
	c1.101,0.355,3.471,0.341,5.14-0.963c1.151-0.9,2.995-0.416,3.23-2.28c0.328-2.602,1.815-0.136,2.44,0.422
	c1.293,1.154,3.392,2.374,4.518,2.384c1.429,0.014,2.769,0.715,2.997,0.905c0.547,1.464-9.259,1.361-13.715,1.24
	c-1.509-0.041-3.729-0.288-5.19-0.164c-5.195,0.442-9.575,1.811-14.892,0.921C278.133,261.676,283.203,258.007,284.317,257.345z"/>
<path d="M286.435,250.877c-0.615,2.649,3.578,3.766,5.507,4.241c0.941,1.618,2.487,0.456,4.183,1.114
	c2.82,1.093,4.182,0.504,5.991-1.372c1.603-1.663,3.976-4.083,4.706-4.726c0.359-0.318,2.426,2.053,3.283,2.651
	c0.926-2.513-0.603-3.08-2.33-4.613c-0.551-0.489-1.072-1.061-1.96-1.061c-0.852,0-0.727,1.826-1.38,2.55
	c-1.194,1.325-2.825,2.949-3.81,3.441c-1.083,0.541-7.859,0.107-9.28-0.573C289.788,251.782,287.23,250.048,286.435,250.877z"/>
<path d="M311.746,253.051c0.208,1.24,0.033,3.075,1.959,3.075c2.283,0,4.984,0.938,7.149,0.106c1.089-0.419,1.849-1.644,2.807-2.015
	c1.433-0.556,2.302,0.212,3.495,0.212c2.047-1.138-1.729-2.544-2.807-2.544c-1.705,0-2.272,0.916-3.601,1.431
	c-1.099,0.426-1.56-0.346-2.277-0.159c-0.415,0.109-0.508,0.965-1.165,1.22C315.998,254.883,312.857,253.051,311.746,253.051z"/>
<path d="M321.328,258.828c-4.035,3.36,3.289,2.618,5.139,3.332c1.172,0.452,3.023,0.1,4.16,0.539
	c1.195,0.461,1.655,0.833,3.279,0.833c-0.334-2.469-3.657-2.36-5.628-3.577c-0.876-0.541-2.745,0.142-3.377-0.49
	C323.875,258.438,322.956,258.68,321.328,258.828z"/>
<path d="M329.327,255.012c-0.308,1.344,1.096,1.369,1.694,2.121c0.338,0.422,0.729,0.53,1.482,0.53
	c1.107-0.001,1.637,0.393,2.418,0.815c1.917,1.034,7.068,0.404,8.65,0.246c1.871-0.188,1.971-1.434,3.282-2.598
	c1.23-1.093-0.424-3.023-1.482-3.023c0,1.358-1.394,2.525-2.753,2.174c-1.657-0.429-3.053-0.415-3.068,0.402
	c-0.013,0.678-0.553,0.762-1.453,0.869c-1.156,0.139-2.91,0.146-4.904-0.316c-0.766-0.178-0.751-1.107-1.643-1.008
	C330.793,255.31,330.027,255.171,329.327,255.012z"/>
<path d="M266.865,210.257c-0.667-6.356,8.608-8.083,16.077-8.667c5.484-0.429,9.671-1.841,13.983-2.958
	c-0.095,0.386-0.496,1.363-0.605,1.735c1.033-0.419,1.375-0.408,1.882-1.352c0.864-1.604,2.522-2.779,3.677-4.28
	c-6.134,3.159-12.628,4.264-19.386,4.972c-7.841,0.822-16.175,2.026-16.884,10.431c-0.316,3.757,1.547,4.668,2.775,7.859
	c0.548,1.425,0.943,2.822,0.943,4.723c-1.852-1.278-1.118,3.299-1.769,4.605c-0.414,0.831-1.887,1.855-1.887,2.48
	c0.657,1.053,1.965,2.715,3.302,2.715c2.802-7.022,5.665-6.499,7.378-4.951c0.811,0.733,1.259,2.615,0.642,3.415
	c2.349-1.135,5.648,1.761,5.426,3.306c-0.347,2.412-2,4.057-4.01,4.724c1.01,1.633,2.005,1.456,2.005,3.778
	c0,2.256-2.456,2.739-4.364,2.007c-0.978-0.376-1.889-0.83-2.83-1.299c-0.644-0.321-1.986-1.355-2.005-1.298
	c-1.62,3.703-1.241,2.974,2.123,7.793c1.856,2.659,4.746,3.402,8.256,1.653c2.726-1.358,3.346-4.413,3.449-5.964
	c0.137-2.065,1.568-0.221,2.134,0.478c1.499,1.852,4.566,3.079,7.032,4.266c2.075,0.999,4.103,0.528,5.194-1.259
	c0.394-0.646,1.804-1.659,3.039-4.189c1.589-3.252,2.878-8.126,0.852-8.8c-2.372,0.444-4.171,1.173-4.806,3.623
	c-0.341,1.313-1.255,1.926-2.388,2.635c-2.797,1.749-1.887-4.693-1.887-5.077c0-2.957-4.795-0.704-5.071-1.535
	c0-2.772,2.174-8.502,5.661-8.502c-0.411-0.457-1.458-1.48-1.887-1.535c-1.434-0.185-1.478-1.557-0.472-2.361
	c0.744-0.596,2.069-1.016,3.303-0.708c-0.974-2.113-2.478-2.728-2.478-5.314c-3.135-0.696-0.065-5.731-2.358-6.612
	c-1.892-0.726-2.657,1.378-4.738,1.646c-2.689,0.346-8.86-0.784-10.004,0.361C273.649,215.324,267.292,214.33,266.865,210.257z"/>
<path style="fill:#FFFFFF;" d="M284.012,215.48c0,0.112,0.065,0.188,0.121,0.243c0.254,0.254,0.601,0.364,1.089,0.364
	c0,1.601-0.685,10.362,0.847,10.362c1.577,0,0.424-7.956,0.424-9.454c2.202,0-0.743,2.727,1.998,2.727
	c-0.744,1.178-1.131,2.998,0.363,3.575c2.334,0.902,3.244-4.04,1.453-4.242c-0.066-0.007,0.625-1.977-0.06-2.667
	c-0.793-0.798-1.827-0.727-3.087-0.727c-0.241-1.21,0.178-1.592-1.392-1.939C283.908,213.313,284.012,214.258,284.012,215.48z"/>
<path style="fill:#FFFFFF;" d="M277.414,218.086c-0.174-1.279,0.654-3.563-1.392-3.333c-1.594,0.18-3.969,2.45-4.842,3.515
	c-1.198,1.461,2.737,2.801,3.752,1.575c-0.082,1.696-2.121,2.229-0.363,3.333c0.871,0.547,1.445,1.102,1.936,1.758
	c1.534-0.578,0.722-2.714,1.332-3.939c0.399-0.8,1.997-1.54,1.997-2.303c0-0.764-0.207-1.706,0.787-1.818
	c1.883-0.212,1.554,1.74,1.15,2.788c-0.157,0.409-0.545,0.963-0.545,1.515c0,0.68,0.182,1.13,0.182,1.697
	c-0.559-0.372-0.761-1.742-1.695-1.091c-1.304,0.909-0.385,4.287-0.847,5.696c2.512,0.581,2.147-0.611,2.663-2.182
	c-0.148-0.068,1.11,2.761,2.4,0.734c0.321-0.504,0.287-1.235-0.161-1.704c0.637-0.192,0.866-1.084,0.484-1.637
	c-0.22-0.318-0.714-0.35-1.029-0.606c-0.385-0.312-0.307-3.257-0.121-3.817c0.753,0.172,1.272-0.091,1.272-0.97
	c0-0.423-0.565-0.849-0.968-0.849c-0.51-2.72-3.939-2.095-5.125-0.302C277.772,216.918,277.429,217.771,277.414,218.086z"/>
<path style="fill:#FFFFFF;" d="M281.609,239.107c1.041,0.707,2.024,0.686,2.646,0.347c1.016-0.552,1.245,1.116,1.055,2.311
	c-0.113,0.717-0.109,1.468-0.934,0.897C283.131,241.8,282.284,240.935,281.609,239.107z"/>
<path style="fill:#FFFFFF;" d="M236.418,227.69c0,1.02,0.253,3.916-0.211,4.657c-0.206,0.329,0.035,1.179,0.091,1.715
	c0.108,1.025,0.383,1.747,1.461,1.39c0.393,0.844,0.264,2.188,1.34,2.188c0.517,0,0.354-2.408,0.282-3.034
	c-0.146-1.279-0.624-4.195,0-4.586c0.984-0.617,1.018,1.55,0.966,3.042c-0.064,1.856,0.859,0.727,1.091,2.419
	c0.066,0.479,0.327,1.704,1.039,2.212c0.279,0.199,0.925,0.526,1.208,0.3c0.42-0.335,0.282-1.209,0.282-1.835
	c0-1.167,0.118-1.643-0.878-2.137c-0.502-0.251-0.56-0.455-0.596-1.604c-0.046-1.42,0.115-3.265,0.204-3.315
	c0.703,0.324,1.258,0.078,1.34-0.564c0.075-0.581,0.007-2.396-0.564-2.469c-1.492-0.191-0.889,1.284-1.481,1.481
	c-0.838,0.387-0.497-1.164-1.623-1.27c-1.018-0.098-1.376,0.603-1.266,1.278c0.04,0.252,0.682,1.693-0.568,1.439
	c-0.602-0.123-0.425-0.972-0.849-1.401C237.321,227.223,236.795,227.027,236.418,227.69z"/>
<path style="fill:#FFFFFF;" d="M265.836,237.041c0.593,1.307,0.969,1.565-0.614,2.134c-1.479,0.532-3.528,0.837-2.566-1.266
	c0.233-0.51,0.798-0.672,0.798-1.266c0-0.57-0.41-1.079,0.321-1.134c0.38-0.029,0.658,0.053,0.874,0.618
	C264.877,236.729,265.148,237.082,265.836,237.041z"/>
<path style="fill:#FFFFFF;" d="M305.448,228.662c-0.28,0.365-1.74,1.345-1.74,1.663c0,0.573,0.408,0.811,0.712,1.188
	c0.364,0.451,0.188,0.713,0.949,0.713c0.837,0,1.822,0.079,2.531,0.079c0.594,0,1.345-0.188,1.345-0.792
	c0-0.756-0.998-1.458-1.425-2.138c-0.254-0.406-0.218-0.712-0.869-0.712H305.448z"/>
<path style="fill:#FFFFFF;" d="M241.193,205.804c-0.177-1.198,0.726-2.276,1.77-2.276c0.772,0,1.252,0.92,1.22,1.976
	c-0.037,1.212-0.767,1.673-1.447,1.854C241.968,207.564,241.408,207.267,241.193,205.804z"/>
<path style="fill:#FFFFFF;" d="M236.945,208.499c-1.122,0-2.033-0.858-2.033-1.917c0-1.186,1.445-2.275,2.572-2.275
	c1.124,0,2.034,0.858,2.034,1.916C239.518,207.407,238.071,208.499,236.945,208.499z"/>
<path style="fill:#FFFFFF;" d="M230.814,206.583c0.941,0,1.705,0.617,1.705,1.377c0,0.567,0.179,0.848,0.179,1.377
	c0,0.651-0.506,1.185-1.153,1.251c-0.146,0.567-0.485,0.965-0.88,0.965c-0.528,0-0.957-0.71-0.957-1.587
	c0-1.081-0.598-1.127-0.598-2.006C229.11,207.2,229.873,206.583,230.814,206.583z"/>
<path style="fill:#FFFFFF;" d="M224.444,212.808c-0.792,0-1.436-0.705-1.436-1.435c0-0.954,1.081-1.13,1.077-1.438
	c-0.01-0.792,0.643-1.436,1.436-1.436c1.275,0,0.949,1.617,1.735,1.617c0.793,0,1.436,0.643,1.436,1.436
	c0,0.651-0.435,1.2-1.029,1.376c-0.089,0.708-0.692,1.257-1.424,1.257C224.796,214.185,225.329,212.808,224.444,212.808z"/>
<path style="fill:#FFFFFF;" d="M219.838,214.728c1.04,0,1.329,0.839,2.154,0.839c0.76,0,1.376,0.442,1.376,0.988
	c0,0.533-0.588,0.966-1.322,0.987c-0.243,0.994-1.045,1.732-2.207,1.732s-1.734-1.078-1.734-2.333
	C218.104,215.686,218.583,214.728,219.838,214.728z"/>
<path style="fill:#FFFFFF;" d="M344.193,193.491c0.335,0.324,0.549,0.807,0.549,1.345c0,0.975-0.697,1.765-1.555,1.765
	c-0.857,0-1.133-0.707-1.133-1.681c0-1.049,0-1.504,0-2.69c0-0.975,0.564-1.766,1.26-1.766c0.695,0,1.26,0.791,1.26,1.766
	C344.574,192.724,344.428,193.17,344.193,193.491z"/>
<path style="fill:#FFFFFF;" d="M335.842,194.835c0,0.975,0.696,1.765,1.554,1.765c0.857,0,1.134-0.707,1.134-1.681
	c0-1.049,0.045-1.505,0-2.69c-0.045-1.157-0.813-1.296-1.239-0.542c-0.142,0.251-0.246,0.602-0.272,1.046
	C336.071,192.733,335.842,193.618,335.842,194.835z"/>
<path style="fill:#FFFFFF;" d="M360.273,217.953c-0.291,0.361-0.81,0.392-1.091,0.756c-0.524,0.682,0.163,1.509,0.504,1.85
	c0.171,0.171,0.834,0.168,1.175,0.168c0.393,0,0.816,0.247,1.176,0.336c0.854-0.16,2.5-1.591,1.764-2.773
	C362.422,216.076,361.728,216.156,360.273,217.953z"/>
<path style="fill:#FFFFFF;" d="M364.358,203.978c-0.064,0.833,0.022,1.66,0.282,2.122c0.217,0.388,1.281,0.783,1.343,1.26
	c0.03,0.233,0.116,1.888,0.251,1.934c1.448,0.335,0.924,3.816,0.924,5.296c0,0.42,0.723,2.281-0.503,1.513
	c-0.97-0.608-0.46,5.91-1.931,6.473c-0.907,0.347-1.578,0.485-2.184,1.093c-1.248,1.254,3.946,5.015,3.946,0
	c1.884-2.094,2.602-3.373,2.602-6.641c0-1.374-0.353-2.673,0.42-3.447c0.465-0.465,2.468-2.27,0.084-2.27
	c0.291-0.975,0.088-2.316-0.84-2.438c-1.297-0.169-0.127-3.014,0-3.951c0.057-0.42-0.012-1.267-0.531-1.661
	c-0.238-0.182-0.755,1.716-2.017-0.703C365.732,201.651,364.475,202.45,364.358,203.978z"/>
<path style="fill:#FFFFFF;" d="M374.379,206.268c-0.508,0.273-0.953,0.351-1.427,0.588c-0.421,0.211-0.42,0.321-0.42,0.841
	c0,0.808,0.429,0.782,0.923,1.093c0.486,0.304,0.467-0.051,0.672-0.589c0.088-0.23-0.037-0.207,0.169-0.336
	c0.218-0.137,0.467,0.181,0.755,0c0.186-0.116,0.336-0.046,0.336-0.42C375.387,206.659,375.113,205.994,374.379,206.268z"/>
<path style="fill:#FFFFFF;" d="M376.563,206.94c0.28,0.842,0.289,0.804-0.252,1.345c-0.452,0.453-1.344,0.591-1.344,1.345
	c0,0.27,0.34,0.76,0.504,0.925c0.249,0.249,0.574,0.304,0.924,0.42c0.241,0.449,0.457,0.66,1.008,0.588
	c0.055-0.007,0.037-0.055,0.084-0.084c0.072-0.045,0.209-0.016,0.252-0.083c0.09-0.145-0.072-0.477-0.084-0.589
	c-0.015-0.132,0-0.286,0-0.42c0-0.31-0.168-0.374-0.168-0.672c0-0.234-0.064-0.091-0.084-0.252c-0.017-0.13,0-0.288,0-0.42
	c0.508,0,0.565-0.085,1.007-0.085c0.308,0,0.741,0.153,0.924,0.336c0.05,0.05,0.234,0.352,0.252,0.421
	c0.034,0.136,0.075,0.473,0.168,0.504c0.549,0.028,1.278,0.169,1.343,0.672c0.059,0.446-0.285,0.653-0.336,1.093
	c-0.065,0.563,0.595,1.176,1.008,1.513c0.686,0.56,2.016,0.921,2.016-0.504c0-0.544-0.252-1.053-0.252-1.597
	c0-0.574-0.084-1.034-0.084-1.598c-0.238-0.714-0.961-1.021-1.428-1.597c-0.859-1.062-1.379-0.977-2.77-1.513
	C378.55,206.418,376.478,205.915,376.563,206.94z"/>
<path style="fill:#FFFFFF;" d="M386.05,212.152c-1.192,0.676-0.228,2.379,0.336,2.942c1.921,1.92,2.827,3.054,4.03-0.084
	c0.348-0.908,0.158-2.264-0.084-3.194C389.801,209.773,386.885,211.68,386.05,212.152z"/>
<path style="fill:#FFFFFF;" d="M392.767,217.364c-1.689,1.696-1.194,2.17-0.021,2.465c1.172,0.295,3.025,0.414,3.715-0.279
	c0.617-0.62,1.246-1.439,0.336-2.354C394.384,214.776,394.451,215.672,392.767,217.364z"/>
<path style="fill:#FFFFFF;" d="M396.209,221.399c-0.555,0.325-1.187,1.617-0.84,2.522c0.194,0.504,0.451,1.367,0.924,1.429
	c1.33,0.173,1.48-1.273,1.344-2.354C397.529,222.156,397.191,221.263,396.209,221.399z"/>
<path d="M377.57,216.439c0,4.038,4.044,3.421,6.633,5.716c1.115,0.988,1.131,2.529,1.343,4.203c0.263,2.075-0.913,6.18,1.572,3.231
	c0.313-0.373,0.873-0.04,1.133-0.287c0.433-0.411,0.485-1.389,0.485-2.271c0-1.941,0.239-4.624-1.847-4.624
	c0-0.741-0.439-1.029-0.84-1.429c-0.406-0.407-0.973-0.42-1.679-0.42c-1.573-1.708-1.568-1.693-3.734-2.643
	C379.378,217.364,377.992,216.727,377.57,216.439z"/>
<path style="fill:#FFFFFF;" d="M371.861,236.53c-0.397,1.71-0.508,0.778-1.68,1.514c-2.159,1.353-0.924,1.917-0.924,3.53
	c0,0.873-0.064,3.1,1.26,2.27c1.305-0.817,0.205-3.668,1.595-4.539c0.944-0.592,0.923-0.566,0.923-1.934
	C373.035,236.204,372.744,235.866,371.861,236.53z"/>
<path style="fill:#FFFFFF;" d="M375.219,236.026c-0.109,0.533-0.675,1.098-1.204,2.084c-1.01,1.884-2.195,4.389-1.902,4.977
	c1.235,2.473,2.958-0.654,4.03-1.261c0.865-0.49,3.08-1.202,3.19-2.185c0.077-0.679,0.256-2.513-0.336-2.69
	c-2.032-0.609-1.255,3.163-2.351,2.27C376.117,238.789,377.081,234.164,375.219,236.026z"/>
<path style="fill:#FFFFFF;" d="M351.291,237.371c0.537,0,1.01,0.292,1.299,0.743c0.245-0.547,0.682-0.911,1.178-0.911
	c0.765,0,1.385,0.866,1.385,1.933c0,2.624-5.457,2.011-5.457,0C349.695,238.162,350.41,237.371,351.291,237.371z"/>
<path style="fill:#FFFFFF;" d="M320.748,245.363c1.08-0.15,2.145,0.688,2.013,1.802c-0.085,0.728-0.513,1.326-1.032,1.326
	c-0.519,0-0.813-0.404-0.938-0.955c-0.814-0.004-1.525-0.488-1.525-1.086C319.266,245.852,319.668,245.513,320.748,245.363z"/>
<path style="fill:#FFFFFF;" d="M325.096,218.372c-0.139,1.194-0.402,2.479-0.252,3.783c0.178,1.553,1.09,1.616,2.518,1.261
	c-0.263,0.882-0.273,1.604-0.168,2.522c0.053,0.446-0.01,1.442,0.252,1.765c0.497,0.611,1.764,0.016,1.764-0.841
	c0-0.968,0.252-1.884,0.252-2.774c0.855,0.6,1.428,0.382,1.428,1.681c0,0.537-0.062,1.183-0.168,1.597
	c-0.221,0.851-0.666,0.995-1.092,1.682c-0.144,0.23,0.262,2.299,0.336,2.522c-1.032,0.775-2.52,1.853-2.52,3.194
	c0,1.451,0.252,2.611,0.252,4.035c-0.825-0.221-4.092-1.049-3.861,0.756c0.04,0.315,0.783,1.551,1.008,1.85
	c0.141,0.189-0.012,1.379,0.455,2.03c0.319,0.446,1.149,0.744,1.694-0.11c0.331-0.518,0.284-1.254,0.284-1.584
	c1.365-0.342,1.797-0.652,2.352-1.766c0.752-1.506-0.893-1.89,0.489-3.388c0.952-1.029,0.686-2.973,0.686-2.833
	c1.068,1.39,2.388,1.896,0.335,3.279c-1.148,0.774,0.663,3.983-0.688,5.059c-0.501,0.398-0.918,1.372-0.206,2.689
	c0.374,0.691,1.398,0.422,1.398-1.274v-0.588c0.956,0.446,0.924,1.156,0.924,2.185c0,0.837,0.312,1.886-0.595,2.062
	c-0.647,0.126-1.189,0.752-0.549,1.447c0.297,0.323,0.85,0.291,1.227,0.611c0.184,0.155,0.044,0.406,0.337,0.504
	c1.88,0,1.502-0.889,1.343-2.27c-0.144-1.255-0.374-2.146-0.205-2.897c0.076-0.34,0.391-0.481,0.563-0.916
	c0.222-0.562-0.525-1.725-0.945-1.987c-0.5-0.313-0.886-1.296-0.886-1.933c0-1.321-0.11-1.879,0.857-2.051
	c0.463-0.083,0.449-0.769,0.449-1.564c0.704-0.325,1.027-1.057,0.588-1.765c-0.164-0.263-0.541-0.393-0.588-0.756
	c-0.052-0.411-0.047-0.695,0.084-1.093c1.268,0.879,0.594-1.237,0.672-1.849c0.068-0.531,0.912-0.426,1.176,0
	c0.617,0.994,0.373,1.075,1.68,0.925c1.207-0.139,0.84-1.465,0.84-2.606c0.85,0.319,1.511-0.08,1.511-1.009
	c0-0.788-0.168-1.399-0.168-2.186c1.811,0.68,1.091-3.145,1.091-4.372c0-0.386-0.164-2.015-0.42-2.269
	c-0.856-0.854-1.343,0.54-1.343,1.345c-1.411-0.192-1.092,0.89-1.092,2.018c-1.321,1.189-0.671-1.77-0.671-2.27
	c0-0.909,0.201-1.648,0-2.522c-0.098-0.424-0.621-1.19-1.092-1.009c-1.174,0.452-0.588,4.486-0.588,5.801
	c-1.088,0.343-1.344,0.397-1.344,1.597c0,0.871,0.467,1.937-0.398,2.218c-0.821,0.27-0.668,1.578-0.945,2.405
	c-0.582,0.219-0.923,0.337-0.923,1.009c0,0.217-0.07,0.741,0,0.925c0.17,0.444,0.379,1.177-0.251,1.177
	c-0.938,0-0.763-1.144-0.673-1.849c0.153-1.205-0.323-1.513,1.092-1.513c0.692-0.54,0.413-3.15,0.66-4.823
	c0.12-0.816,0.817-0.982,0.944-1.399c0.494-1.62-0.006-1.869-0.177-3.193c-0.143-1.1-0.705-3.242-1.847-3.11
	c-0.908,0.104-0.992,2.127-0.588,2.774c0.496,0.794-0.924,1.548-0.924,0.336c0-1.39-2.292-0.511-3.023-0.924
	c-0.132-0.075-0.385-0.866-0.719-1.526C325.506,214.189,325.207,217.393,325.096,218.372z"/>
<path style="fill:#FFFFFF;" d="M303.072,269.705c-0.686,0.983-1.704,1.353-2.243,2.28c-0.597,1.026-0.48,1.905-0.152,2.894
	c0.435,0.56,0.853,0.319,1.05-0.08c0.433-0.878-0.283-1.981,0.659-1.702c0.806,0.239,0.578-0.978,1.185-1.189
	c0.292,0.024,0.426,0.076,0.762,0.076c0.226,0,0.316-0.181,0.457-0.305c0.715-0.633,0.563-1.611-0.152-2.057
	C304.026,269.241,303.443,269.173,303.072,269.705z"/>
<path style="fill:#FFFFFF;" d="M307.668,272.439c0.67,0.075,1.082,0.101,1.082,1.451c0,0.616-0.291,1.225-1.066,0.838
	c-0.279-0.14-0.65-0.533-0.914-0.533c-0.547,0-0.954,0.13-1.154-0.15c-0.207-0.289-0.26-0.866-0.08-1.249
	C305.935,271.945,307.017,272.366,307.668,272.439z"/>
<path style="fill:#FFFFFF;" d="M310.654,270.462c-0.516-0.042-2.148-0.45-2.438,0.305c-0.171,0.444,0.563,0.996,0.838,1.219
	c1.01,0.816,1.504,0.293,1.325,1.778c-0.103,0.848-0.306,1.611-1.423,2.011c-1.648,0.591-3.46-0.841-4.853,0.552
	c-0.309,0.309-0.17,0.749-0.076,1.066c0.034,0.114,2.775,0.152,3.503,0.152c0.479,0.442,0.885,1.062,1.6,1.143
	c1.225,0.138,1.904-0.105,1.904-1.371c1.785-0.111,2.178-2.721,1.98-4.266c-0.083-0.645-0.121-0.729-0.381-1.142
	c-0.506-0.807-0.686-0.515-0.686-1.523C311.949,267.976,310.287,268.983,310.654,270.462z"/>
<path style="fill:#FFFFFF;" d="M326.837,272.633c-0.806,0.647-1.72,1.506-1.1,2.498c0.202,0.325-0.023,1.242,0.22,1.484
	c0.883,0.882,1.482-0.833,1.482-1.594c0-2.026,2.059-1.92,3.952-1.704c2.734,0.314,5.824,0.413,8.18,1.594
	c1.236,0.62,2.34,2.103,0.274,2.638c-1.341,0.347-2.446,1.45-3.238,1.649c-1.567,0.723-4.826,0.117-5.71-0.77
	c-0.397-0.4-4.666-2.102-4.666-0.824c-0.188,0.823,1.037,1.664,1.592,1.978c0.612,0.347,1.454,1.292,2.031,1.484
	c0.837,0.753,4.482,0.238,5.764,0.384c1.713,0.196,4.393,0.841,4.393-1.319c0.869-0.869,2.262-1.383,2.086-2.749
	c-0.198-1.532,0.248-2.748-1.592-2.748c-0.979-0.326-2.049-1.235-3.129-1.375c-1.613-0.208-3.211-0.549-5.051-0.549
	c-0.658,0-2.008,0.001-2.58-0.22C328.17,271.884,328.038,271.668,326.837,272.633z"/>
<path style="fill:#FFFFFF;" d="M261.238,273.415c-0.567,0.472-0.151,1.114,0.364,1.457c0.68,0.454,2.715,0.558,3.093,1.229
	c0.065,0.117,0.421,0.786,0.318,0.82c-0.991-0.094-2.406,0.091-3.457,0.091c-0.441,0-2.692,0.067-2.001,0.774
	c1.051,1.075,1.308,1.906,2.421,2.117c0.771,0.145,1.62-0.174,2.355,0.069c0.268,0.448,0.227,0.968,0.227,1.549
	c0,0.68-1.08,0.976-1.455,1.73c-0.916,1.845-1.013,2.128,1.174,2.526c1.353,0.247,2.935,0.123,2.965-1.524
	c1.25,0.232,2.498,0.319,3.821,0.319c1.037,0,1.819-0.305,1.819-1.412c0.499,0.067,0.999-0.059,1.319-0.319
	c0.446-0.363,0.222-1.791-0.319-1.913c-0.113-0.026-1.397-0.277-1.41-0.319c-0.243-0.514-0.198-2.811,0.864-2.277
	c0.603,0.303,0.982,1.069,1.183,1.685l6.822-0.083c1.353-0.016,0.64-0.99,2.448-0.866c1.267,0.087,2.888,0.024,3.147-0.645
	c0.456-1.178-0.364-3.463-0.364-4.736c0-1.126-0.112-1.64-1.319-1.64c-0.619,0-2.194-0.069-2.593,0.228
	c-0.445,0.497-0.692,1.594,0.364,1.594c1.47,0,0.76,0.506,1.228,1.731c0.183,0.477-0.137,0.962-0.137,1.366l-0.182,0.091
	l-8.051-0.091c0-0.925,0.963-3.233-0.819-3.233c-0.043-0.705-0.373-0.996-0.819-1.275c-0.683-0.427-1.865-0.249-1.865,0.638
	c0,0.52,0.039,0.904,0.091,1.366c0.027,0.238-0.052,1.167,0,1.185c0,0.475-1.044,0.519-1.228,0.045
	c-0.143-0.371,0.044-0.996,0.091-1.412c0.105-0.92,0.372-2.74-1.046-2.414c-0.289,0.065-0.725,0.506-0.728,0.501
	c-1.956-1.504-2.7,1.867-1.183,1.867c0.417,0,0.858,0.239,0.909,0.684c0.017,0.153-0.075,1.142-0.091,1.093
	c-0.418,0-2.274,0.231-2.274-0.182c0-1.52-0.138-2.236-1.683-2.414C265.079,273.397,261.042,273.363,261.238,273.415z"/>
<path style="fill:#FFFFFF;" d="M331.281,276.45c1.025,0.131,1.128,0.894,2.305-0.122c0.563-0.488,1.02-1.159,0.056-1.528
	c-0.613-0.235-1.716-0.147-2.659-0.068C329.054,274.89,329.582,276.23,331.281,276.45z"/>
<path d="M267.378,279.289h1.183c0.426,0,0.774,0.348,0.774,0.773v1.141c0,0.425-0.348,0.773-0.774,0.773h-1.183
	c-0.426,0-0.773-0.348-0.773-0.773v-1.141C266.604,279.637,266.952,279.289,267.378,279.289z"/>
<path style="fill:#FFFFFF;" d="M277.362,270.409c1.182,0,1.701,1.392,1.46,2.371c0.797-0.037,2.247,0.324,2.247,1.386
	c0,0.767-0.937,1.389-2.092,1.389c-1.138,0-3.138-2.068-3.138-3.302C275.838,271.235,276.521,270.409,277.362,270.409z"/>
<path style="fill:#FFFFFF;" d="M353.514,274.543c-0.58,0.839-0.518,1.334-1.522,1.722c-1.079,0.417-2.092,0.896-2.779,1.722
	c-1.407,1.692-0.402,3.736,0.927,3.776c1.276,0.038,1.449,1.855,2.573,2.531c0.623,0.375,1.859,0.594,1.859-0.345
	c0-0.865-0.242-1.129-1.028-1.545c-0.407-0.216-0.825-0.457-1.022-0.972c-0.113-0.293-0.424-2.597-0.066-2.715
	c0.887,0,2.448,0.103,2.448-1.259c1.202,0.226,1.692-1.768,1.14-2.395C355.303,274.226,353.52,274.054,353.514,274.543z"/>
<path style="fill:#FFFFFF;" d="M297.131,298.337c-1.287,0.004-1.292-1.966-0.007-1.97l9.359-0.048
	c-0.354-0.155-0.598-0.513-0.59-0.923c0.01-0.544,0.46-0.624,1.003-0.614l7.526-0.093c2.974-0.38,2.167-3.952,6.151-3.99
	l6.494-0.065c0.543-0.004,0.988,0.433,0.992,0.977c-0.352,1.505,0.402,0.898,2.102,1.021l10.379,0.094
	c0.544,0,0.984,0.441,0.984,0.985v0.001l2.382,0.099c0.544,0.021,0.968,0.48,0.946,1.024c-0.006,0.141-0.041,0.274-0.1,0.393
	l2.615,0.055c1.285,0.024,1.248,1.995-0.037,1.97l-4.183-0.088c-0.023,0.521-0.452,0.938-0.979,0.94L297.131,298.337z"/>
<path style="fill:#FFFFFF;" d="M273.119,297.02c-1.285-0.024-1.247-1.994,0.039-1.97l9.982,0.233
	c1.284,0.024,1.248,1.995-0.038,1.97L273.119,297.02z"/>
<polygon points="54.014,392.063 29.213,389.893 29.659,384.789 39.844,385.68 30.507,375.104 31.065,368.725 40.233,379.505 
	55.943,370.003 55.398,376.233 43.346,383.322 45.741,386.195 54.46,386.958 "/>
<path d="M44.131,362.123c2.69,0.523,4.897,0.329,6.619-0.577c1.722-0.905,2.788-2.432,3.206-4.579c0.421-2.169,0.008-4-1.247-5.497
	c-1.255-1.496-3.229-2.503-5.918-3.025c-2.684-0.522-4.891-0.328-6.615,0.589c-1.724,0.917-2.794,2.46-3.216,4.629
	c-0.417,2.147,0,3.962,1.252,5.445C39.462,360.592,41.436,361.599,44.131,362.123L44.131,362.123z M43.135,367.249
	c-3.947-0.768-6.87-2.452-8.768-5.054c-1.898-2.603-2.496-5.729-1.786-9.381c0.709-3.647,2.434-6.328,5.178-8.039
	c2.742-1.712,6.084-2.185,10.021-1.42c3.941,0.766,6.863,2.457,8.765,5.071c1.901,2.615,2.498,5.746,1.79,9.393
	c-0.71,3.653-2.436,6.327-5.175,8.028C50.418,367.547,47.077,368.015,43.135,367.249z"/>
<polygon points="60.225,341.266 36.294,334.403 37.771,329.251 57.001,324.25 40.558,319.535 41.95,314.677 65.881,321.539 
	64.423,326.625 45.174,331.692 61.618,336.407 "/>
<rect x="54.224" y="297.296" transform="matrix(0.3256 -0.9455 0.9455 0.3256 -254.5705 262.5899)" width="5.123" height="24.895"/>
<polygon points="70.934,305.752 48.371,295.23 50.636,290.373 70.411,288.441 54.908,281.212 57.044,276.631 79.606,287.153 
	77.37,291.947 57.565,293.941 73.069,301.171 "/>
<polygon points="81.559,281.97 60,269.522 62.562,265.085 71.415,270.197 67.422,256.666 70.624,251.12 74.377,264.766 
	92.631,262.793 89.504,268.21 75.585,269.54 76.541,273.157 84.122,277.533 "/>
<polygon points="94.012,260.653 73.872,246.021 76.884,241.876 93.304,253.806 100.445,243.976 104.166,246.679 "/>
<rect x="95.376" y="221.713" transform="matrix(0.6293 -0.7771 0.7771 0.6293 -145.6729 162.9095)" width="5.124" height="24.895"/>
<path d="M104.641,230.743l3.248-3.736l2.273,1.976c0.653,0.568,1.324,0.808,2.008,0.714c0.684-0.093,1.347-0.504,1.983-1.234
	c0.693-0.797,0.969-1.536,0.827-2.217c-0.142-0.673-0.789-1.511-1.939-2.511l-13.098-11.385l3.361-3.866l13.276,11.54
	c1.188,1.033,2.004,1.863,2.44,2.487c0.433,0.628,0.724,1.287,0.871,1.98c0.199,1.037,0.092,2.137-0.322,3.282
	c-0.415,1.145-1.128,2.299-2.131,3.453c-0.923,1.062-1.885,1.878-2.889,2.443c-0.995,0.564-2.02,0.874-3.063,0.922
	c-0.832,0.034-1.615-0.104-2.339-0.413c-0.725-0.309-1.737-1.028-3.039-2.16L104.641,230.743z"/>
<polygon points="125.553,220.825 108.575,202.617 112.322,199.123 119.294,206.6 119.432,192.493 124.115,188.126 123.715,202.273 
	141.747,205.723 137.174,209.988 123.474,207.191 123.331,210.929 129.3,217.33 "/>
<polygon points="143.811,204.033 128.484,184.415 142.733,173.283 145.396,176.692 135.131,184.712 138.399,188.896 
	147.788,181.561 150.409,184.916 141.02,192.251 144.963,197.297 155.71,188.9 158.541,192.524 "/>
<path d="M167.583,169.555l5.268-2.92c1.141-0.632,1.849-1.328,2.132-2.092c0.277-0.761,0.143-1.636-0.412-2.635
	c-0.523-0.943-1.183-1.515-1.974-1.716c-0.792-0.201-1.708-0.01-2.737,0.561l-5.475,3.035L167.583,169.555L167.583,169.555z
	 M169.894,184.291l-12.07-21.774l10.561-5.853c2.372-1.316,4.416-1.781,6.118-1.399c1.708,0.379,3.14,1.617,4.297,3.706
	c0.736,1.328,1.073,2.591,1.006,3.79c-0.063,1.195-0.53,2.246-1.395,3.148c1.136-0.188,2.089-0.05,2.876,0.418
	c0.782,0.47,1.605,1.419,2.473,2.844l1.515,2.517c0.011,0.021,0.028,0.051,0.05,0.092c0.744,1.283,1.465,1.918,2.152,1.894
	l0.369,0.667l-4.915,2.724c-0.327-0.221-0.65-0.53-0.984-0.932c-0.33-0.404-0.682-0.908-1.041-1.52l-1.331-2.257
	c-0.797-1.319-1.556-2.092-2.275-2.308c-0.722-0.219-1.681,0.003-2.872,0.663l-4.748,2.631l4.693,8.468L169.894,184.291z"/>
<path d="M181.646,149.284l4.723-2.103l6.353,14.268c0.784,1.761,1.704,2.892,2.764,3.385c1.06,0.494,2.353,0.406,3.876-0.273
	c1.544-0.688,2.488-1.588,2.836-2.709c0.349-1.115,0.129-2.559-0.659-4.329l-6.353-14.268l4.681-2.084l6.58,14.779
	c1.242,2.788,1.414,5.276,0.518,7.462c-0.896,2.186-2.808,3.935-5.744,5.242c-2.952,1.314-5.544,1.578-7.775,0.79
	c-2.233-0.787-3.974-2.583-5.22-5.381L181.646,149.284z"/>
<path d="M215.547,147.241l4.708-1.53c1.272-0.414,2.113-0.983,2.518-1.716c0.399-0.73,0.409-1.691,0.018-2.894
	c-0.366-1.125-0.927-1.883-1.682-2.28c-0.757-0.391-1.697-0.407-2.822-0.042l-4.966,1.614L215.547,147.241L215.547,147.241z
	 M216.909,151.543l2.736,8.423l-4.873,1.583l-7.693-23.676l10.53-3.421c2.485-0.808,4.578-0.772,6.281,0.101
	c1.698,0.874,2.955,2.558,3.768,5.06c0.794,2.442,0.779,4.528-0.047,6.258c-0.821,1.729-2.4,2.976-4.721,3.73L216.909,151.543z"/>
<polygon points="236.885,154.149 231.284,129.892 248.903,125.824 249.876,130.04 237.183,132.971 238.376,138.143 249.986,135.463 
	250.943,139.611 239.334,142.292 240.775,148.531 254.064,145.463 255.099,149.944 "/>
<polygon points="259.513,149.088 255.19,124.571 260.235,123.682 263.76,143.67 275.726,141.561 276.524,146.089 "/>
<path d="M294.293,140.41l6.062-0.106c1.431-0.025,2.47-0.303,3.114-0.833c0.643-0.531,0.957-1.35,0.938-2.469
	c-0.021-1.16-0.358-1.991-1.008-2.493c-0.649-0.502-1.715-0.737-3.185-0.711l-6.034,0.105L294.293,140.41L294.293,140.41z
	 M294.105,129.646l5.843-0.102c1.263-0.022,2.183-0.258,2.763-0.7c0.575-0.443,0.857-1.135,0.841-2.069
	c-0.016-0.912-0.31-1.57-0.888-1.97c-0.579-0.399-1.522-0.591-2.838-0.568l-5.814,0.103L294.105,129.646L294.105,129.646z
	 M289.468,144.989l-0.435-24.892l11.728-0.204c2.55-0.045,4.497,0.457,5.854,1.513c1.352,1.05,2.049,2.602,2.084,4.655
	c0.022,1.257-0.208,2.317-0.689,3.174c-0.481,0.851-1.214,1.516-2.199,1.995c1.295,0.497,2.266,1.23,2.916,2.194
	c0.658,0.958,0.997,2.169,1.023,3.623c0.042,2.423-0.715,4.306-2.268,5.648c-1.558,1.349-3.778,2.045-6.674,2.096L289.468,144.989z"
	/>
<path d="M319.492,132.758c-0.191,2.734,0.27,4.9,1.378,6.5c1.108,1.598,2.754,2.471,4.935,2.623
	c2.205,0.154,3.973-0.479,5.305-1.907c1.332-1.429,2.09-3.51,2.281-6.244c0.191-2.728-0.272-4.894-1.391-6.494
	c-1.12-1.599-2.783-2.473-4.986-2.627c-2.182-0.153-3.933,0.483-5.252,1.906C320.441,127.938,319.684,130.02,319.492,132.758
	L319.492,132.758z M314.283,132.394c0.28-4.011,1.596-7.118,3.947-9.319c2.352-2.201,5.381-3.174,9.094-2.915
	c3.706,0.259,6.576,1.646,8.609,4.159c2.034,2.514,2.91,5.773,2.631,9.773c-0.28,4.006-1.602,7.112-3.965,9.317
	c-2.363,2.206-5.398,3.18-9.105,2.92c-3.713-0.26-6.576-1.646-8.599-4.158C314.874,139.659,314.003,136.4,314.283,132.394z"/>
<path d="M348.357,135.691c-0.476,2.699-0.243,4.901,0.691,6.607c0.936,1.706,2.48,2.745,4.635,3.125
	c2.176,0.383,4-0.062,5.474-1.343c1.474-1.281,2.446-3.271,2.921-5.971c0.476-2.693,0.242-4.895-0.703-6.604
	c-0.947-1.707-2.51-2.751-4.686-3.134c-2.153-0.38-3.961,0.069-5.422,1.346C349.807,130.996,348.834,132.987,348.357,135.691
	L348.357,135.691z M343.215,134.784c0.699-3.96,2.332-6.912,4.9-8.855c2.569-1.943,5.684-2.595,9.35-1.949
	c3.658,0.646,6.368,2.324,8.127,5.036c1.76,2.713,2.291,6.046,1.596,9.995c-0.698,3.955-2.338,6.905-4.918,8.852
	c-2.582,1.946-5.701,2.598-9.361,1.953c-3.664-0.646-6.368-2.324-8.117-5.035C343.044,142.071,342.519,138.739,343.215,134.784z"/>
<polygon points="369.348,152.404 377.04,128.728 384.244,131.068 383.098,150.618 393.6,134.108 400.832,136.459 393.14,160.135 
	388.574,158.651 394.778,139.557 383.768,157.09 378.785,155.471 380.117,134.793 373.912,153.888 "/>
<polygon points="407.198,165.81 417.324,143.066 433.199,150.134 431.439,154.088 420.182,149.075 417.885,154.235 427.751,158.628 
	425.99,162.581 416.124,158.189 411.816,167.865 "/>
<path d="M435.725,166.495c-1.329,2.397-1.826,4.556-1.497,6.474c0.329,1.917,1.451,3.403,3.364,4.463
	c1.932,1.071,3.803,1.244,5.612,0.512c1.81-0.731,3.378-2.297,4.706-4.693c1.326-2.392,1.823-4.551,1.484-6.474
	c-0.34-1.923-1.477-3.417-3.409-4.488c-1.913-1.061-3.768-1.225-5.565-0.492C438.623,162.528,437.056,164.094,435.725,166.495
	L435.725,166.495z M431.158,163.964c1.949-3.517,4.455-5.776,7.516-6.777c3.062-1.001,6.219-0.603,9.474,1.201
	c3.249,1.802,5.265,4.271,6.046,7.409c0.78,3.137,0.197,6.462-1.746,9.969c-1.947,3.512-4.458,5.769-7.532,6.769
	c-3.073,1-6.236,0.6-9.486-1.201c-3.255-1.805-5.265-4.271-6.036-7.403C428.623,170.799,429.211,167.477,431.158,163.964z"/>
<path d="M460.622,182.297c-1.688,2.159-2.516,4.214-2.491,6.159c0.025,1.945,0.901,3.588,2.625,4.935
	c1.74,1.361,3.56,1.823,5.463,1.385c1.902-0.439,3.695-1.741,5.383-3.9c1.684-2.155,2.512-4.209,2.478-6.162
	c-0.035-1.952-0.924-3.607-2.665-4.967c-1.724-1.346-3.53-1.798-5.42-1.356C464.105,178.832,462.313,180.133,460.622,182.297
	L460.622,182.297z M456.508,179.083c2.476-3.169,5.304-5.008,8.484-5.518c3.18-0.509,6.236,0.377,9.168,2.668
	c2.929,2.288,4.533,5.042,4.813,8.263c0.28,3.221-0.815,6.414-3.284,9.573c-2.472,3.165-5.305,5-8.498,5.507
	c-3.192,0.507-6.253-0.382-9.182-2.67c-2.933-2.291-4.531-5.042-4.803-8.255C452.935,185.436,454.035,182.247,456.508,179.083z"/>
<polygon points="475.109,210.189 489.054,195.235 483.652,190.199 486.686,186.945 501.197,200.477 498.164,203.73 492.801,198.729 
	478.855,213.683 "/>
<path d="M513.352,213.225l-7.695-8.852l-18.789,16.333l7.441,8.56c1.9,2.186,3.861,3.44,5.896,3.766
	c2.025,0.326,3.955-0.304,5.783-1.895c1.098-0.953,1.809-1.991,2.119-3.111c0.32-1.118,0.258-2.333-0.194-3.645
	c0.999,0.447,1.979,0.58,2.94,0.402c0.966-0.183,1.926-0.688,2.875-1.513c1.55-1.347,2.291-2.878,2.227-4.587
	C515.891,216.964,515.024,215.149,513.352,213.225z M502.588,227.015c-0.844,0.734-1.674,1.02-2.494,0.869
	c-0.818-0.151-1.7-0.769-2.639-1.849l-3.978-4.576l4.912-4.27l3.959,4.554c0.965,1.11,1.471,2.078,1.503,2.898
	C503.883,225.461,503.464,226.254,502.588,227.015z M509.874,219.787c-0.705,0.613-1.416,0.841-2.126,0.686
	c-0.712-0.16-1.483-0.713-2.313-1.666l-3.834-4.411l4.006-3.482l3.816,4.39c0.862,0.993,1.322,1.838,1.389,2.538
	C510.878,218.54,510.563,219.189,509.874,219.787z"/>
<path d="M524.662,235.33l-10.602,3.438l4.062,5.592L524.662,235.33L524.662,235.33z M526.945,229.992l3.477,4.785l-14.864,21.896
	l-3.161-4.35l3.147-4.376l-5.67-7.805l-5.103,1.683l-3.17-4.364L526.945,229.992z"/>
<polygon points="517.054,259.345 537.933,245.786 540.723,250.083 523.701,261.138 530.318,271.328 526.462,273.832 "/>
<polygon points="527.247,276.767 549.229,265.079 551.634,269.603 533.713,279.132 539.417,289.86 535.357,292.019 "/>
<path d="M555.666,321.64c-2.734,0.74-5.217,0.442-7.441-0.898c-2.225-1.339-3.856-3.523-4.897-6.545
	c-1.2-3.486-1.048-6.571,0.463-9.252c1.505-2.684,4.223-4.699,8.144-6.05c4.004-1.379,7.41-1.447,10.221-0.212
	c2.81,1.234,4.852,3.705,6.125,7.403c1.035,3.006,1.121,5.631,0.253,7.876c-0.862,2.244-2.604,3.918-5.22,5.007l-1.646-4.779
	c1.262-0.66,2.089-1.555,2.482-2.68c0.393-1.123,0.331-2.438-0.186-3.939c-0.734-2.133-1.979-3.517-3.735-4.15
	c-1.756-0.635-3.955-0.499-6.596,0.41c-2.558,0.881-4.344,2.112-5.36,3.694c-1.015,1.588-1.175,3.395-0.472,5.435
	c0.505,1.467,1.297,2.544,2.367,3.224c1.076,0.68,2.359,0.915,3.862,0.708L555.666,321.64z"/>
<polygon points="548.418,328.917 572.574,322.893 573.813,327.865 554.119,332.775 557.059,344.565 552.597,345.677 "/>
<path d="M577.352,343.42l0.987,5.075l-15.332,2.979c-1.892,0.368-3.2,1.01-3.92,1.932c-0.721,0.921-0.924,2.202-0.607,3.838
	c0.323,1.66,0.987,2.782,2.002,3.373c1.009,0.591,2.464,0.702,4.366,0.333l15.331-2.98l0.978,5.03l-15.88,3.086
	c-2.996,0.583-5.458,0.191-7.388-1.174c-1.928-1.365-3.201-3.621-3.814-6.776c-0.617-3.171-0.29-5.756,0.979-7.754
	c1.269-1.999,3.41-3.29,6.418-3.875L577.352,343.42z"/>
<path d="M561.214,377.44l0.528,6.041c0.125,1.426,0.475,2.443,1.049,3.047c0.574,0.604,1.414,0.861,2.528,0.763
	c1.155-0.101,1.96-0.496,2.416-1.179c0.456-0.683,0.616-1.763,0.488-3.228l-0.526-6.012L561.214,377.44L561.214,377.44z
	 M571.938,376.501l0.509,5.822c0.111,1.259,0.41,2.16,0.893,2.708c0.482,0.543,1.192,0.776,2.123,0.695
	c0.907-0.08,1.544-0.42,1.902-1.024c0.357-0.604,0.482-1.56,0.369-2.87l-0.508-5.793L571.938,376.501L571.938,376.501z
	 M556.31,372.946l24.8-2.169l1.023,11.685c0.222,2.54-0.145,4.518-1.102,5.946c-0.953,1.421-2.453,2.224-4.498,2.403
	c-1.254,0.109-2.327-0.045-3.215-0.465c-0.883-0.421-1.598-1.106-2.143-2.054c-0.406,1.328-1.07,2.347-1.986,3.063
	c-0.909,0.723-2.094,1.145-3.543,1.272c-2.414,0.211-4.345-0.414-5.793-1.868c-1.453-1.46-2.303-3.626-2.555-6.512L556.31,372.946z"
	/>
<polygon points="269.717,667.23 272.522,647.273 276.629,647.851 275.477,656.047 284.422,648.946 289.556,649.668 280.453,656.623 
	287.468,669.726 282.455,669.021 277.235,658.977 274.81,660.792 273.824,667.809 "/>
<path d="M294.704,665.758l4.905,0.172c1.158,0.041,2.01-0.14,2.553-0.542c0.542-0.401,0.831-1.05,0.862-1.956
	c0.033-0.938-0.205-1.624-0.708-2.058c-0.503-0.433-1.355-0.669-2.545-0.71l-4.883-0.171L294.704,665.758L294.704,665.758z
	 M295.008,657.049l4.729,0.164c1.022,0.037,1.775-0.114,2.264-0.447c0.484-0.335,0.741-0.881,0.767-1.637
	c0.026-0.738-0.184-1.283-0.634-1.631c-0.45-0.348-1.206-0.541-2.27-0.579l-4.705-0.165L295.008,657.049L295.008,657.049z
	 M290.609,669.256l0.704-20.141l9.489,0.331c2.063,0.072,3.617,0.562,4.669,1.472c1.048,0.906,1.545,2.189,1.487,3.852
	c-0.036,1.018-0.267,1.864-0.692,2.537c-0.425,0.667-1.045,1.174-1.861,1.52c1.026,0.455,1.78,1.09,2.265,1.896
	c0.491,0.802,0.713,1.796,0.672,2.973c-0.068,1.96-0.76,3.45-2.072,4.471c-1.316,1.023-3.141,1.492-5.484,1.41L290.609,669.256z"/>
<polygon points="315.752,669.506 308.103,649.607 312.697,649.447 317.503,664.365 321.342,649.144 325.878,648.986 
	319.721,669.367 "/>
<path d="M333.107,664.738l4.861-0.683c1.147-0.161,1.955-0.487,2.42-0.978c0.464-0.488,0.636-1.179,0.51-2.076
	c-0.131-0.929-0.484-1.563-1.055-1.902c-0.572-0.34-1.451-0.424-2.631-0.258l-4.838,0.68L333.107,664.738L333.107,664.738z
	 M331.895,656.108l4.685-0.658c1.014-0.143,1.729-0.422,2.151-0.835c0.419-0.413,0.577-0.996,0.472-1.745
	c-0.103-0.731-0.404-1.231-0.908-1.495c-0.504-0.265-1.281-0.324-2.336-0.177l-4.662,0.655L331.895,656.108L331.895,656.108z
	 M329.684,668.894l-2.805-19.957l9.402-1.322c2.044-0.287,3.658-0.075,4.854,0.639c1.189,0.711,1.902,1.889,2.133,3.535
	c0.142,1.008,0.063,1.883-0.24,2.618c-0.303,0.732-0.826,1.337-1.568,1.819c1.088,0.271,1.941,0.765,2.56,1.475
	c0.622,0.705,1.014,1.645,1.177,2.811c0.272,1.943-0.149,3.53-1.265,4.763c-1.117,1.237-2.834,2.017-5.155,2.342L329.684,668.894z"
	/>
<path d="M283.356,337.457h-4.246v-16.009c-1.553,1.454-3.379,2.528-5.484,3.219v-3.854c1.104-0.361,2.311-1.047,3.611-2.059
	c1.3-1.016,2.193-2.198,2.673-3.55h3.446V337.457z"/>
<path d="M289.795,332.333l4.112-0.454c0.103,0.836,0.366,1.455,0.79,1.857c0.423,0.402,0.98,0.603,1.676,0.603
	c0.878,0,1.621-0.402,2.234-1.207c0.619-0.804,1.012-2.476,1.182-5.02c-1.068,1.244-2.404,1.863-4.004,1.863
	c-1.744,0-3.25-0.676-4.515-2.018c-1.264-1.347-1.898-3.096-1.898-5.252c0-2.249,0.67-4.06,2.007-5.438
	c1.331-1.372,3.034-2.064,5.097-2.064c2.25,0,4.091,0.872,5.536,2.611c1.44,1.739,2.162,4.598,2.162,8.575
	c0,4.055-0.753,6.976-2.254,8.771c-1.501,1.791-3.457,2.688-5.866,2.688c-1.733,0-3.132-0.459-4.2-1.382
	C290.786,335.543,290.1,334.164,289.795,332.333L289.795,332.333z M299.412,323.052c0-1.372-0.315-2.435-0.944-3.188
	c-0.629-0.759-1.362-1.135-2.188-1.135c-0.785,0-1.44,0.309-1.956,0.928c-0.521,0.619-0.779,1.636-0.779,3.05
	c0,1.429,0.284,2.482,0.846,3.147c0.563,0.671,1.27,1.006,2.116,1.006c0.815,0,1.506-0.32,2.064-0.964
	C299.134,325.249,299.412,324.3,299.412,323.052z"/>
<path d="M307.012,332.333l4.113-0.454c0.102,0.836,0.365,1.455,0.789,1.857c0.422,0.402,0.98,0.603,1.676,0.603
	c0.878,0,1.621-0.402,2.234-1.207c0.619-0.804,1.012-2.476,1.182-5.02c-1.068,1.244-2.404,1.863-4.004,1.863
	c-1.743,0-3.25-0.676-4.514-2.018c-1.265-1.347-1.898-3.096-1.898-5.252c0-2.249,0.67-4.06,2.006-5.438
	c1.332-1.372,3.035-2.064,5.098-2.064c2.25,0,4.092,0.872,5.537,2.611c1.439,1.739,2.16,4.598,2.16,8.575
	c0,4.055-0.752,6.976-2.254,8.771c-1.502,1.791-3.457,2.688-5.866,2.688c-1.733,0-3.132-0.459-4.2-1.382
	C308.003,335.543,307.316,334.164,307.012,332.333L307.012,332.333z M316.629,323.052c0-1.372-0.314-2.435-0.943-3.188
	c-0.63-0.759-1.362-1.135-2.188-1.135c-0.785,0-1.439,0.309-1.955,0.928c-0.522,0.619-0.779,1.636-0.779,3.05
	c0,1.429,0.283,2.482,0.846,3.147c0.563,0.671,1.27,1.006,2.115,1.006c0.815,0,1.507-0.32,2.064-0.964
	C316.352,325.249,316.629,324.3,316.629,323.052z"/>
<path d="M327.784,325.502c-1.099-0.464-1.898-1.103-2.394-1.914c-0.501-0.81-0.748-1.703-0.748-2.667
	c0-1.651,0.572-3.018,1.729-4.097c1.154-1.078,2.795-1.62,4.922-1.62c2.104,0,3.74,0.543,4.901,1.62
	c1.165,1.079,1.749,2.446,1.749,4.097c0,1.027-0.269,1.94-0.805,2.745c-0.532,0.8-1.285,1.414-2.25,1.836
	c1.227,0.49,2.162,1.213,2.802,2.162c0.64,0.944,0.96,2.038,0.96,3.276c0,2.049-0.65,3.71-1.956,4.99
	c-1.306,1.279-3.039,1.919-5.206,1.919c-2.017,0-3.693-0.526-5.035-1.584c-1.584-1.254-2.373-2.967-2.373-5.143
	c0-1.197,0.299-2.296,0.893-3.302C325.565,326.818,326.505,326.044,327.784,325.502L327.784,325.502z M328.661,321.225
	c0,0.846,0.237,1.506,0.718,1.976c0.479,0.475,1.113,0.712,1.914,0.712c0.805,0,1.449-0.237,1.934-0.717
	c0.48-0.479,0.722-1.14,0.722-1.986c0-0.8-0.236-1.435-0.717-1.915c-0.48-0.48-1.109-0.717-1.898-0.717
	c-0.815,0-1.465,0.242-1.95,0.722C328.904,319.786,328.661,320.425,328.661,321.225L328.661,321.225z M328.27,330.713
	c0,1.171,0.299,2.084,0.896,2.74c0.6,0.655,1.348,0.98,2.245,0.98c0.877,0,1.604-0.315,2.177-0.945
	c0.573-0.629,0.862-1.537,0.862-2.729c0-1.037-0.294-1.873-0.877-2.502c-0.583-0.63-1.326-0.945-2.224-0.945
	c-1.037,0-1.811,0.361-2.316,1.074C328.521,329.104,328.27,329.877,328.27,330.713z"/>
<path d="M259.641,586.529c-21.594-30.343-37.617-62.68-47.922-96.811c-10.589-35.07-14.798-71.473-13.593-108.041
	c33.695-15.839,70.867-23.285,108.013-23.285s74.318,7.446,108.013,23.285c1.205,36.569-3.004,72.971-13.593,108.042
	c-10.306,34.13-26.329,66.467-47.923,96.81c-13.754,19.329-29.341,37.169-46.497,53.547
	C288.981,623.698,273.396,605.857,259.641,586.529z"/>
<path style="fill:#3369AB;" d="M306.138,635.523c16.153-15.559,30.817-32.629,43.818-50.9c3.508-4.93,6.865-9.911,10.075-14.945
	l-158.686-185.88c-1.091,36.591,3.464,71.65,13.528,104.982c10.202,33.785,26.066,65.799,47.447,95.844
	C275.321,602.894,289.986,619.966,306.138,635.523z"/>
<path style="fill:#FFFFFF;" d="M360.031,569.678c13.592-21.315,24.512-43.565,32.707-66.684l-118.97-139.358
	c-25.394,3.075-50.084,9.794-72.423,20.161L360.031,569.678z"/>
<path d="M43.57,455.825c-1.706-2.138-3.396-4.524-4.3-6.929c-0.913-2.426-0.542-5.528,1.67-7.147
	c1.911-1.398,3.795-0.564,5.003,1.181c0.47-1.585,1.146-3.086,2.931-3.385c4.288-0.717,5.545,6.447,5.149,9.596
	c-0.167,1.332-0.434,2.678-0.756,4.024c2.946,1.03,4.096,6.54,3.902,9.226c-0.096,1.339-0.291,2.697-0.541,4.059
	c2.996,0.874,4.435,6.315,4.383,9.008c-0.026,1.342-0.148,2.707-0.326,4.08c3.038,0.715,4.763,6.072,4.854,8.764
	c0.045,1.342-0.006,2.713-0.111,4.094c3.072,0.551,5.078,5.81,5.311,8.493c0.116,1.337,0.138,2.708,0.106,4.093
	c3.097,0.389,5.378,5.534,5.752,8.202c0.187,1.328,0.281,2.696,0.322,4.081c3.113,0.224,5.663,5.242,6.177,7.887
	c0.257,1.316,0.423,2.678,0.538,4.059c3.121,0.06,5.932,4.935,6.585,7.549c0.326,1.302,0.564,2.652,0.752,4.024
	c3.119-0.105,6.184,4.616,6.975,7.19c0.394,1.282,0.703,2.619,0.963,3.979c3.109-0.271,6.419,4.282,7.346,6.812
	c0.461,1.26,0.84,2.578,1.17,3.923c3.091-0.435,6.638,3.936,7.696,6.414c0.527,1.233,0.976,2.529,1.377,3.854
	c3.063-0.596,6.836,3.582,8.023,6c0.592,1.203,1.107,2.475,1.579,3.776c3.027-0.759,7.016,3.215,8.33,5.565
	c0.654,1.172,1.237,2.412,1.776,3.688c2.984-0.917,7.176,2.84,8.612,5.118c0.715,1.136,1.363,2.344,1.969,3.59
	c2.931-1.073,7.315,2.456,8.871,4.656c0.774,1.096,1.484,2.268,2.155,3.479c2.87-1.227,7.436,2.065,9.104,4.181
	c0.832,1.053,1.603,2.188,2.336,3.361c2.801-1.377,7.534,1.67,9.313,3.693c0.886,1.008,1.716,2.099,2.511,3.232
	c2.725-1.521,7.612,1.271,9.495,3.197c0.938,0.959,1.824,2.005,2.678,3.096c2.641-1.665,7.669,0.865,9.65,2.69
	c0.987,0.908,1.928,1.905,2.838,2.949c2.548-1.802,7.703,0.46,9.778,2.177c3.705,3.065,6.881,7.281,10.099,10.785
	c-2.463,0.43-4.897,0.965-7.381,1.293c-3.369,0.445-7.467,0.947-10.837,0.242c-2.479-0.519-4.842-2.418-5.119-5.055
	c-2.731,0.148-5.655,0.141-8.138-0.518c-2.448-0.649-4.709-2.671-4.845-5.318c-2.735,0.004-5.654-0.159-8.099-0.947
	c-2.41-0.777-4.561-2.916-4.557-5.566c-2.732-0.141-5.639-0.459-8.038-1.375c-2.365-0.904-4.4-3.151-4.256-5.799
	c-2.721-0.284-5.606-0.756-7.954-1.798c-2.314-1.028-4.228-3.38-3.944-6.017c-2.702-0.428-5.558-1.051-7.847-2.215
	c-2.257-1.148-4.043-3.598-3.621-6.216c-2.676-0.569-5.495-1.343-7.719-2.628c-2.193-1.266-3.847-3.807-3.287-6.398
	c-2.641-0.711-5.416-1.631-7.569-3.031c-2.124-1.38-3.642-4.005-2.944-6.564c-2.6-0.85-5.323-1.915-7.399-3.427
	c-2.047-1.49-3.424-4.193-2.593-6.711c-2.552-0.985-5.214-2.193-7.208-3.813c-1.966-1.597-3.198-4.367-2.235-6.838
	c-2.496-1.119-5.09-2.467-6.995-4.188c-1.878-1.698-2.962-4.53-1.871-6.946c-2.433-1.25-4.953-2.732-6.765-4.553
	c-1.786-1.795-2.718-4.68-1.501-7.035c-2.364-1.377-4.802-2.99-6.515-4.904c-1.688-1.887-2.467-4.818-1.127-7.105
	c-2.288-1.499-4.637-3.239-6.246-5.241c-1.587-1.974-2.209-4.941-0.749-7.154c-2.205-1.618-4.46-3.481-5.961-5.565
	c-1.481-2.054-1.946-5.052-0.371-7.185c-2.117-1.732-4.269-3.711-5.658-5.871c-1.369-2.129-1.675-5.147,0.01-7.193
	c-2.022-1.842-4.067-3.932-5.34-6.162c-1.255-2.199-1.401-5.228,0.389-7.184c-1.922-1.945-3.853-4.141-5.006-6.436
	c-1.137-2.263-1.122-5.295,0.769-7.152c-1.816-2.045-3.629-4.34-4.66-6.691C41.408,460.607,41.584,457.58,43.57,455.825z"/>
<path style="fill:#3369AB;" d="M218.061,648.182c1.678-0.223,3.362-0.516,5.059-0.855c-2.685-2.882-5.375-6.365-8.445-8.906
	c-1.43-1.183-6.058-3.428-8.074-2.176c2.018,2.422,3.898,5.023,5.811,7.34c-2.482,0.299-4.942,0.704-7.438,0.9
	c-0.45,0.035-0.912,0.072-1.384,0.105c0.242,2.035,2.188,3.452,4.078,3.848C210.882,649.111,214.85,648.606,218.061,648.182z"/>
<path style="fill:#3369AB;" d="M204.872,643.175c1.688-0.134,3.385-0.337,5.097-0.587c-2.529-3.02-5.031-6.641-7.963-9.34
	c-1.364-1.257-5.868-3.742-7.948-2.599c1.887,2.524,3.627,5.22,5.415,7.636c-2.495,0.166-4.972,0.441-7.476,0.506
	c-0.451,0.012-0.915,0.023-1.388,0.032c0.134,2.044,2.003,3.564,3.869,4.058C197.653,643.724,201.642,643.43,204.872,643.175z"/>
<path style="fill:#3369AB;" d="M191.965,637.479c1.692-0.045,3.397-0.158,5.12-0.317c-2.365-3.149-4.672-6.897-7.458-9.748
	c-1.296-1.326-5.661-4.047-7.798-3.015c1.751,2.621,3.346,5.404,5.003,7.911c-2.5,0.035-4.989,0.179-7.492,0.11
	c-0.451-0.012-0.914-0.025-1.387-0.041c0.025,2.049,1.811,3.664,3.648,4.257C184.727,637.644,188.726,637.562,191.965,637.479z"/>
<path style="fill:#3369AB;" d="M179.377,631.106c1.692,0.046,3.401,0.023,5.13-0.045c-2.196-3.271-4.302-7.135-6.933-10.129
	c-1.225-1.393-5.441-4.343-7.629-3.423c1.61,2.71,3.056,5.574,4.579,8.164c-2.499-0.097-4.991-0.084-7.488-0.285
	c-0.45-0.035-0.912-0.072-1.383-0.114c-0.082,2.047,1.615,3.755,3.418,4.443C172.141,630.891,176.138,631.019,179.377,631.106z"/>
<path style="fill:#3369AB;" d="M167.144,624.08c1.687,0.135,3.395,0.201,5.125,0.225c-2.02-3.381-3.919-7.352-6.387-10.48
	c-1.149-1.456-5.203-4.623-7.437-3.822c1.464,2.792,2.756,5.729,4.14,8.396c-2.49-0.229-4.98-0.35-7.462-0.681
	c-0.447-0.06-0.906-0.121-1.375-0.188c-0.19,2.041,1.414,3.835,3.179,4.619C159.929,623.48,163.914,623.82,167.144,624.08z"/>
<path style="fill:#3369AB;" d="M155.298,616.415c1.678,0.224,3.38,0.382,5.106,0.497c-1.838-3.483-3.524-7.549-5.824-10.804
	c-1.071-1.516-4.951-4.892-7.225-4.21c1.315,2.865,2.45,5.866,3.69,8.603c-2.474-0.36-4.954-0.611-7.415-1.074
	c-0.443-0.083-0.899-0.169-1.363-0.26c-0.298,2.026,1.211,3.903,2.931,4.78C148.126,615.437,152.087,615.986,155.298,616.415z"/>
<path style="fill:#3369AB;" d="M143.874,608.136c1.664,0.313,3.355,0.56,5.073,0.765c-1.651-3.574-3.121-7.724-5.246-11.095
	c-0.989-1.569-4.686-5.148-6.992-4.587c1.162,2.932,2.137,5.988,3.231,8.787c-2.452-0.491-4.915-0.873-7.349-1.465
	c-0.439-0.107-0.888-0.217-1.347-0.332c-0.404,2.008,1.002,3.962,2.673,4.928C136.764,606.779,140.69,607.537,143.874,608.136z"/>
<path style="fill:#3369AB;" d="M132.905,599.264c1.645,0.4,3.321,0.736,5.025,1.033c-1.46-3.658-2.708-7.879-4.651-11.357
	c-0.905-1.62-4.408-5.388-6.741-4.949c1.005,2.988,1.817,6.092,2.762,8.943c-2.422-0.619-4.862-1.131-7.261-1.85
	c-0.432-0.131-0.875-0.264-1.327-0.403c-0.51,1.983,0.79,4.01,2.408,5.063C125.875,597.533,129.756,598.499,132.905,599.264z"/>
<path style="fill:#3369AB;" d="M122.419,589.825c1.621,0.485,3.277,0.911,4.964,1.297c-1.265-3.729-2.289-8.011-4.045-11.588
	c-0.818-1.665-4.116-5.612-6.469-5.298c0.845,3.037,1.493,6.18,2.285,9.077c-2.386-0.747-4.795-1.386-7.153-2.232
	c-0.425-0.152-0.861-0.309-1.305-0.473c-0.615,1.953,0.578,4.046,2.138,5.184C115.491,587.727,119.316,588.894,122.419,589.825z"/>
<path style="fill:#3369AB;" d="M112.447,579.846c1.593,0.57,3.225,1.082,4.889,1.557c-1.066-3.791-1.861-8.12-3.427-11.785
	c-0.729-1.706-3.814-5.821-6.18-5.633c0.684,3.078,1.164,6.25,1.802,9.186c-2.343-0.871-4.715-1.638-7.025-2.606
	c-0.416-0.175-0.843-0.353-1.277-0.54c-0.717,1.918,0.363,4.07,1.861,5.288C105.639,577.383,109.397,578.752,112.447,579.846z"/>
<path style="fill:#3369AB;" d="M103.016,569.352c1.561,0.655,3.163,1.251,4.799,1.814c-0.864-3.842-1.43-8.207-2.8-11.951
	c-0.637-1.741-3.501-6.016-5.874-5.951c0.521,3.109,0.833,6.303,1.315,9.27c-2.294-0.995-4.622-1.885-6.878-2.975
	c-0.406-0.197-0.823-0.398-1.247-0.607c-0.817,1.879,0.147,4.084,1.579,5.379C96.348,566.533,100.028,568.1,103.016,569.352z"/>
<path style="fill:#3369AB;" d="M94.153,558.376c1.524,0.735,3.093,1.416,4.697,2.064c-0.66-3.884-0.994-8.272-2.164-12.081
	c-0.545-1.774-3.178-6.193-5.551-6.254c0.355,3.132,0.498,6.338,0.823,9.324c-2.238-1.113-4.516-2.127-6.71-3.334
	c-0.396-0.217-0.801-0.44-1.213-0.672c-0.916,1.833-0.069,4.087,1.292,5.455C87.643,555.208,91.236,556.967,94.153,558.376z"/>
<path style="fill:#3369AB;" d="M85.883,546.945c1.482,0.816,3.013,1.578,4.581,2.31c-0.455-3.912-0.556-8.313-1.523-12.179
	c-0.45-1.8-2.845-6.351-5.211-6.539c0.189,3.147,0.161,6.355,0.328,9.356c-2.177-1.232-4.397-2.363-6.525-3.684
	c-0.383-0.238-0.776-0.483-1.176-0.735c-1.011,1.781-0.285,4.077,1.002,5.516C79.549,543.438,83.044,545.384,85.883,546.945z"/>
<path style="fill:#3369AB;" d="M78.228,535.096c1.438,0.893,2.925,1.734,4.452,2.548c-0.246-3.931-0.115-8.331-0.877-12.242
	c-0.354-1.821-2.506-6.493-4.859-6.805c0.023,3.152-0.175,6.354-0.167,9.359c-2.108-1.345-4.267-2.591-6.321-4.022
	c-0.37-0.259-0.75-0.523-1.136-0.797c-1.104,1.725-0.5,4.057,0.709,5.561C72.088,531.258,75.475,533.385,78.228,535.096z"/>
<path style="fill:#3369AB;" d="M71.21,522.855c1.389,0.969,2.83,1.888,4.312,2.781c-0.039-3.939,0.325-8.325-0.229-12.272
	c-0.258-1.838-2.16-6.617-4.493-7.053c-0.145,3.149-0.51,6.338-0.661,9.338c-2.034-1.453-4.124-2.813-6.1-4.352
	c-0.356-0.277-0.721-0.563-1.092-0.855c-1.193,1.664-0.713,4.023,0.415,5.591C65.281,518.7,68.551,521.004,71.21,522.855z"/>
<path style="fill:#3369AB;" d="M64.848,510.264c1.336,1.039,2.727,2.033,4.159,3.004c0.17-3.935,0.764-8.296,0.42-12.267
	c-0.161-1.849-1.809-6.722-4.116-7.279c-0.31,3.138-0.842,6.302-1.151,9.29c-1.954-1.56-3.969-3.027-5.861-4.668
	c-0.341-0.296-0.69-0.6-1.045-0.913c-1.279,1.6-0.925,3.981,0.118,5.605C59.148,505.8,62.292,508.272,64.848,510.264z"/>
<path style="fill:#3369AB;" d="M59.161,497.352c1.278,1.109,2.615,2.176,3.995,3.221c0.377-3.921,1.202-8.244,1.068-12.228
	c-0.063-1.854-1.451-6.808-3.726-7.486c-0.475,3.116-1.173,6.247-1.64,9.216c-1.869-1.66-3.804-3.232-5.606-4.972
	c-0.325-0.313-0.657-0.635-0.996-0.967c-1.362,1.53-1.134,3.927-0.178,5.604C53.705,492.594,56.713,495.228,59.161,497.352z"/>
<path style="fill:#3369AB;" d="M54.165,484.158c1.218,1.174,2.496,2.31,3.818,3.426c0.585-3.895,1.636-8.168,1.713-12.152
	c0.036-1.855-1.089-6.875-3.324-7.674c-0.64,3.088-1.503,6.177-2.126,9.117c-1.779-1.758-3.628-3.43-5.336-5.262
	c-0.308-0.33-0.624-0.669-0.943-1.018c-1.441,1.455-1.34,3.861-0.474,5.586C48.968,479.117,51.832,481.908,54.165,484.158z"/>
<path style="fill:#3369AB;" d="M49.873,470.719c1.155,1.238,2.37,2.44,3.631,3.623c0.79-3.858,2.065-8.07,2.353-12.046
	c0.134-1.85-0.723-6.922-2.913-7.839c-0.802,3.049-1.828,6.09-2.606,8.992c-1.683-1.849-3.441-3.616-5.05-5.535
	c-0.29-0.347-0.586-0.702-0.888-1.066c-1.517,1.377-1.542,3.785-0.769,5.554C44.949,465.41,47.662,468.35,49.873,470.719z"/>
<path style="fill:#3369AB;" d="M46.296,457.07c1.087,1.297,2.239,2.563,3.435,3.81c0.992-3.81,2.489-7.949,2.986-11.904
	c0.268-2.131-0.562-8.65-3.627-8.137c-2.045,0.344-1.794,3.221-2.874,4.579c-1.211-1.196-2.197-4.293-4.501-2.606
	c-1.729,1.264-1.912,3.76-1.212,5.623C41.66,451.51,44.215,454.588,46.296,457.07z"/>
<path d="M568.7,455.825c1.706-2.138,3.396-4.524,4.3-6.929c0.914-2.426,0.542-5.528-1.67-7.147
	c-1.911-1.398-3.795-0.564-5.004,1.181c-0.469-1.585-1.145-3.086-2.93-3.385c-4.287-0.717-5.545,6.447-5.149,9.596
	c0.167,1.332,0.434,2.678,0.755,4.024c-2.945,1.03-4.095,6.54-3.9,9.226c0.096,1.339,0.291,2.697,0.541,4.059
	c-2.996,0.874-4.436,6.315-4.383,9.008c0.025,1.342,0.147,2.707,0.325,4.08c-3.038,0.715-4.763,6.072-4.854,8.764
	c-0.045,1.342,0.006,2.713,0.111,4.094c-3.072,0.551-5.078,5.81-5.311,8.493c-0.116,1.337-0.138,2.708-0.106,4.093
	c-3.097,0.389-5.377,5.534-5.751,8.202c-0.187,1.328-0.28,2.696-0.321,4.081c-3.113,0.224-5.663,5.242-6.178,7.887
	c-0.257,1.316-0.424,2.678-0.537,4.059c-3.121,0.06-5.932,4.935-6.586,7.549c-0.325,1.302-0.564,2.652-0.751,4.024
	c-3.119-0.105-6.185,4.616-6.976,7.19c-0.393,1.282-0.703,2.619-0.962,3.979c-3.109-0.271-6.419,4.282-7.346,6.812
	c-0.461,1.26-0.841,2.578-1.171,3.923c-3.091-0.435-6.637,3.936-7.695,6.414c-0.527,1.233-0.977,2.529-1.377,3.854
	c-3.065-0.596-6.836,3.582-8.023,6c-0.592,1.203-1.108,2.475-1.579,3.776c-3.027-0.759-7.016,3.215-8.329,5.565
	c-0.655,1.172-1.237,2.412-1.777,3.688c-2.982-0.917-7.176,2.84-8.611,5.118c-0.716,1.136-1.363,2.344-1.969,3.59
	c-2.931-1.073-7.315,2.456-8.871,4.656c-0.773,1.096-1.484,2.268-2.154,3.479c-2.87-1.227-7.435,2.065-9.104,4.181
	c-0.832,1.053-1.603,2.188-2.337,3.361c-2.801-1.377-7.533,1.67-9.313,3.693c-0.886,1.008-1.715,2.099-2.51,3.232
	c-2.725-1.521-7.613,1.271-9.496,3.197c-0.938,0.959-1.823,2.005-2.678,3.096c-2.641-1.665-7.668,0.865-9.65,2.69
	c-0.987,0.908-1.928,1.905-2.838,2.949c-2.549-1.802-7.703,0.46-9.778,2.177c-3.705,3.065-6.881,7.281-10.099,10.785
	c2.463,0.43,4.897,0.965,7.381,1.293c3.369,0.445,7.467,0.947,10.838,0.242c2.478-0.519,4.842-2.418,5.118-5.055
	c2.732,0.148,5.655,0.141,8.138-0.518c2.448-0.649,4.709-2.671,4.846-5.318c2.734,0.004,5.654-0.159,8.098-0.947
	c2.41-0.777,4.56-2.916,4.557-5.566c2.732-0.141,5.639-0.459,8.039-1.375c2.364-0.904,4.4-3.151,4.256-5.799
	c2.721-0.284,5.605-0.756,7.953-1.798c2.314-1.028,4.228-3.38,3.945-6.017c2.701-0.428,5.558-1.051,7.846-2.215
	c2.258-1.148,4.043-3.598,3.621-6.216c2.676-0.569,5.495-1.343,7.72-2.628c2.192-1.266,3.847-3.807,3.287-6.398
	c2.642-0.711,5.416-1.631,7.569-3.031c2.123-1.38,3.642-4.005,2.944-6.564c2.601-0.85,5.323-1.915,7.399-3.427
	c2.047-1.49,3.424-4.193,2.593-6.711c2.552-0.985,5.214-2.193,7.208-3.813c1.966-1.597,3.197-4.367,2.235-6.838
	c2.495-1.119,5.091-2.467,6.995-4.188c1.879-1.698,2.963-4.53,1.871-6.946c2.433-1.25,4.953-2.732,6.765-4.553
	c1.786-1.795,2.718-4.68,1.501-7.035c2.363-1.377,4.802-2.99,6.515-4.904c1.688-1.887,2.467-4.818,1.126-7.105
	c2.289-1.499,4.638-3.239,6.247-5.241c1.587-1.974,2.209-4.941,0.749-7.154c2.205-1.618,4.46-3.481,5.961-5.565
	c1.48-2.054,1.945-5.052,0.371-7.185c2.117-1.732,4.269-3.711,5.658-5.871c1.369-2.129,1.675-5.147-0.01-7.193
	c2.023-1.842,4.067-3.932,5.34-6.162c1.256-2.199,1.401-5.228-0.389-7.184c1.922-1.945,3.853-4.141,5.006-6.436
	c1.137-2.263,1.123-5.295-0.77-7.152c1.817-2.045,3.631-4.34,4.66-6.691C570.861,460.607,570.686,457.58,568.7,455.825z"/>
<path style="fill:#3369AB;" d="M394.209,648.182c-1.678-0.223-3.362-0.516-5.059-0.855c2.684-2.882,5.375-6.365,8.445-8.906
	c1.43-1.183,6.057-3.428,8.074-2.176c-2.018,2.422-3.898,5.023-5.811,7.34c2.482,0.299,4.941,0.704,7.438,0.9
	c0.451,0.035,0.912,0.072,1.385,0.105c-0.242,2.035-2.188,3.452-4.078,3.848C401.389,649.111,397.421,648.606,394.209,648.182z"/>
<path style="fill:#3369AB;" d="M407.398,643.175c-1.688-0.134-3.385-0.337-5.096-0.587c2.527-3.02,5.03-6.641,7.963-9.34
	c1.363-1.257,5.867-3.742,7.947-2.599c-1.887,2.524-3.627,5.22-5.415,7.636c2.495,0.166,4.972,0.441,7.475,0.506
	c0.451,0.012,0.915,0.023,1.389,0.032c-0.135,2.044-2.004,3.564-3.869,4.058C414.617,643.724,410.629,643.43,407.398,643.175z"/>
<path style="fill:#3369AB;" d="M420.306,637.479c-1.692-0.045-3.397-0.158-5.12-0.317c2.365-3.149,4.672-6.897,7.458-9.748
	c1.296-1.326,5.661-4.047,7.798-3.015c-1.75,2.621-3.346,5.404-5.002,7.911c2.5,0.035,4.988,0.179,7.492,0.11
	c0.451-0.012,0.914-0.025,1.387-0.041c-0.025,2.049-1.812,3.664-3.648,4.257C427.544,637.644,423.545,637.562,420.306,637.479z"/>
<path style="fill:#3369AB;" d="M432.894,631.106c-1.692,0.046-3.401,0.023-5.13-0.045c2.195-3.271,4.302-7.135,6.932-10.129
	c1.225-1.393,5.441-4.343,7.63-3.423c-1.61,2.71-3.056,5.574-4.579,8.164c2.499-0.097,4.991-0.084,7.488-0.285
	c0.449-0.035,0.912-0.072,1.383-0.114c0.082,2.047-1.615,3.755-3.418,4.443C440.13,630.891,436.133,631.019,432.894,631.106z"/>
<path style="fill:#3369AB;" d="M445.127,624.08c-1.688,0.135-3.395,0.201-5.125,0.225c2.019-3.381,3.918-7.352,6.387-10.48
	c1.149-1.456,5.203-4.623,7.438-3.822c-1.464,2.792-2.756,5.729-4.141,8.396c2.49-0.229,4.98-0.35,7.463-0.681
	c0.447-0.06,0.906-0.121,1.375-0.188c0.19,2.041-1.414,3.835-3.179,4.619C452.342,623.48,448.357,623.82,445.127,624.08z"/>
<path style="fill:#3369AB;" d="M456.973,616.415c-1.678,0.224-3.381,0.382-5.107,0.497c1.839-3.483,3.525-7.549,5.825-10.804
	c1.071-1.516,4.951-4.892,7.226-4.21c-1.315,2.865-2.451,5.866-3.691,8.603c2.474-0.36,4.954-0.611,7.416-1.074
	c0.443-0.083,0.898-0.169,1.363-0.26c0.297,2.026-1.211,3.903-2.931,4.78C464.145,615.437,460.184,615.986,456.973,616.415z"/>
<path style="fill:#3369AB;" d="M468.395,608.136c-1.663,0.313-3.354,0.56-5.073,0.765c1.652-3.574,3.121-7.724,5.246-11.095
	c0.989-1.569,4.685-5.148,6.992-4.587c-1.162,2.932-2.137,5.988-3.23,8.787c2.451-0.491,4.914-0.873,7.348-1.465
	c0.439-0.107,0.889-0.217,1.348-0.332c0.404,2.008-1.002,3.962-2.674,4.928C475.507,606.779,471.58,607.537,468.395,608.136z"/>
<path style="fill:#3369AB;" d="M479.365,599.264c-1.644,0.4-3.32,0.736-5.025,1.033c1.461-3.658,2.709-7.879,4.652-11.357
	c0.904-1.62,4.407-5.388,6.74-4.949c-1.006,2.988-1.817,6.092-2.762,8.943c2.422-0.619,4.861-1.131,7.26-1.85
	c0.432-0.131,0.876-0.264,1.328-0.403c0.51,1.983-0.791,4.01-2.408,5.063C486.395,597.533,482.514,598.499,479.365,599.264z"/>
<path style="fill:#3369AB;" d="M489.852,589.825c-1.621,0.485-3.277,0.911-4.965,1.297c1.266-3.729,2.289-8.011,4.046-11.588
	c0.817-1.665,4.115-5.612,6.469-5.298c-0.845,3.037-1.493,6.18-2.286,9.077c2.387-0.747,4.797-1.386,7.154-2.232
	c0.424-0.152,0.86-0.309,1.305-0.473c0.615,1.953-0.578,4.046-2.139,5.184C496.779,587.727,492.955,588.894,489.852,589.825z"/>
<path style="fill:#3369AB;" d="M499.824,579.846c-1.594,0.57-3.225,1.082-4.889,1.557c1.066-3.791,1.861-8.12,3.426-11.785
	c0.729-1.706,3.814-5.821,6.181-5.633c-0.684,3.078-1.164,6.25-1.802,9.186c2.343-0.871,4.715-1.638,7.024-2.606
	c0.417-0.175,0.843-0.353,1.278-0.54c0.717,1.918-0.363,4.07-1.861,5.288C506.631,577.383,502.873,578.752,499.824,579.846z"/>
<path style="fill:#3369AB;" d="M509.254,569.352c-1.56,0.655-3.162,1.251-4.799,1.814c0.864-3.842,1.43-8.207,2.799-11.951
	c0.639-1.741,3.502-6.016,5.874-5.951c-0.521,3.109-0.832,6.303-1.314,9.27c2.294-0.995,4.622-1.885,6.878-2.975
	c0.406-0.197,0.822-0.398,1.247-0.607c0.817,1.879-0.147,4.084-1.579,5.379C515.922,566.533,512.242,568.1,509.254,569.352z"/>
<path style="fill:#3369AB;" d="M518.117,558.376c-1.523,0.735-3.092,1.416-4.696,2.064c0.659-3.884,0.993-8.272,2.163-12.081
	c0.545-1.774,3.179-6.193,5.552-6.254c-0.355,3.132-0.498,6.338-0.823,9.324c2.238-1.113,4.517-2.127,6.711-3.334
	c0.396-0.217,0.801-0.44,1.213-0.672c0.916,1.833,0.068,4.087-1.292,5.455C524.627,555.208,521.035,556.967,518.117,558.376z"/>
<path style="fill:#3369AB;" d="M526.388,546.945c-1.482,0.816-3.013,1.578-4.581,2.31c0.454-3.912,0.556-8.313,1.523-12.179
	c0.449-1.8,2.845-6.351,5.211-6.539c-0.189,3.147-0.161,6.355-0.328,9.356c2.177-1.232,4.398-2.363,6.525-3.684
	c0.383-0.238,0.776-0.483,1.176-0.735c1.012,1.781,0.285,4.077-1.002,5.516C532.722,543.438,529.227,545.384,526.388,546.945z"/>
<path style="fill:#3369AB;" d="M534.043,535.096c-1.438,0.893-2.926,1.734-4.452,2.548c0.246-3.931,0.115-8.331,0.876-12.242
	c0.354-1.821,2.507-6.493,4.859-6.805c-0.023,3.152,0.175,6.354,0.166,9.359c2.108-1.345,4.268-2.591,6.322-4.022
	c0.369-0.259,0.749-0.523,1.135-0.797c1.105,1.725,0.5,4.057-0.709,5.561C540.182,531.258,536.795,533.385,534.043,535.096z"/>
<path style="fill:#3369AB;" d="M541.06,522.855c-1.389,0.969-2.829,1.888-4.311,2.781c0.038-3.939-0.325-8.325,0.228-12.272
	c0.258-1.838,2.16-6.617,4.493-7.053c0.144,3.149,0.51,6.338,0.661,9.338c2.034-1.453,4.124-2.813,6.1-4.352
	c0.357-0.277,0.721-0.563,1.092-0.855c1.194,1.664,0.713,4.023-0.415,5.591C546.988,518.7,543.719,521.004,541.06,522.855z"/>
<path style="fill:#3369AB;" d="M547.423,510.264c-1.337,1.039-2.728,2.033-4.159,3.004c-0.17-3.935-0.765-8.296-0.42-12.267
	c0.16-1.849,1.808-6.722,4.115-7.279c0.31,3.138,0.843,6.302,1.152,9.29c1.953-1.56,3.969-3.027,5.86-4.668
	c0.341-0.296,0.69-0.6,1.046-0.913c1.279,1.6,0.924,3.981-0.119,5.605C553.122,505.8,549.979,508.272,547.423,510.264z"/>
<path style="fill:#3369AB;" d="M553.109,497.352c-1.279,1.109-2.615,2.176-3.994,3.221c-0.378-3.921-1.202-8.244-1.068-12.228
	c0.063-1.854,1.451-6.808,3.726-7.486c0.476,3.116,1.174,6.247,1.641,9.216c1.869-1.66,3.804-3.232,5.606-4.972
	c0.324-0.313,0.657-0.635,0.996-0.967c1.361,1.53,1.134,3.927,0.178,5.604C558.565,492.594,555.557,495.228,553.109,497.352z"/>
<path style="fill:#3369AB;" d="M558.105,484.158c-1.219,1.174-2.496,2.31-3.818,3.426c-0.584-3.895-1.636-8.168-1.713-12.152
	c-0.035-1.855,1.089-6.875,3.324-7.674c0.641,3.088,1.504,6.177,2.126,9.117c1.779-1.758,3.628-3.43,5.336-5.262
	c0.308-0.33,0.624-0.669,0.942-1.018c1.442,1.455,1.341,3.861,0.475,5.586C563.303,479.117,560.438,481.908,558.105,484.158z"/>
<path style="fill:#3369AB;" d="M562.398,470.719c-1.155,1.238-2.371,2.44-3.633,3.623c-0.789-3.858-2.064-8.07-2.352-12.046
	c-0.135-1.85,0.723-6.922,2.913-7.839c0.802,3.049,1.827,6.09,2.604,8.992c1.684-1.849,3.441-3.616,5.051-5.535
	c0.289-0.347,0.586-0.702,0.888-1.066c1.517,1.377,1.542,3.785,0.769,5.554C567.321,465.41,564.608,468.35,562.398,470.719z"/>
<path style="fill:#3369AB;" d="M565.975,457.07c-1.088,1.297-2.238,2.563-3.436,3.81c-0.992-3.81-2.489-7.949-2.986-11.904
	c-0.268-2.131,0.563-8.65,3.627-8.137c2.045,0.344,1.795,3.221,2.874,4.579c1.212-1.196,2.196-4.293,4.501-2.606
	c1.729,1.264,1.912,3.76,1.212,5.623C570.609,451.51,568.056,454.588,565.975,457.07z"/>
</svg>
