<svg enable-background="new 0 0 612 792" viewBox="0 0 612 792" xmlns="http://www.w3.org/2000/svg"><path d="m219.482 590.944c161.353 0 321.95-121.029 321.95-212.551 0-58.138-58.957-88.645-131.816-88.645-161.353 0-321.949 121.03-321.949 212.551-.001 58.139 58.956 88.645 131.815 88.645z" fill="#fff200"/><path d="m500.961 287.393c-45.82 0-82.966 37.143-82.966 82.964s37.144 82.966 82.966 82.966c45.819 0 82.964-37.145 82.967-82.966-.003-45.821-37.148-82.964-82.967-82.964z"/><path d="m494.287 402.18c-4.284 0-8.834-.161-13.43-.554-1.301 2.271-6.271 10.191-15.568 16.296 4.513 11.623 12.137 20.695 15.709 24.52.859.921 1.468 1.524 1.757 1.804 4.789 1.325 10.709 2.397 17.502 2.396 3.539 0 7.318-.296 11.298-.99.754-.565 3.606-2.727 7.316-6.017.339-.302.695-.626 1.048-.944-5.623-16.67-13.542-27.272-21.442-36.56-1.362.031-2.76.049-4.19.049z" fill="#d9d9d9"/><path d="m437.571 369.468c-4.607 4.168-8.211 7.776-9.381 8.963 1.591 7.069 3.361 12.991 4.749 17.16 1.19 3.581 2.086 5.855 2.352 6.509 2.419 2.412 5.183 4.54 8.035 6.38l1.858-45.555c-2.661 2.152-5.267 4.417-7.613 6.543z" fill="#808080"/><path d="m478.36 401.592c.32-.513.554-.911.705-1.181-.956-2.633-5.633-16.26-8.229-37.707l-15.196-7.178c-3.258 1.859-6.906 4.528-10.456 7.399l-1.858 45.555c7.781 5.016 16.242 7.824 20.319 7.929 8.029-5.123 12.833-11.804 14.715-14.817z" fill="#d9d9d9"/><path d="m472.114 314.407c-2.644 1.406-4.916 2.813-6.509 3.874-1.166.77-1.965 1.342-2.322 1.602-2.659 5.579-6.971 18.654-6.954 29.413-.002 1.49.097 2.923.274 4.294l15.181 7.17c.161-.093.371-.215.605-.349-1.833-7.117-2.895-15.482-2.895-25.689.001-7.335 1.097-14.241 2.62-20.315z" fill="#d9d9d9"/><path d="m443.822 313.219c-.69.69-1.363 1.397-2.028 2.111 1.229.159 2.972.37 5.114.595 4.317.45 10.222.946 16.639 1.143 1.926-1.315 5.277-3.473 9.322-5.491 2.715-9.571 6.316-16.679 7.845-19.467-14.179 3.658-26.848 11.067-36.892 21.109z" fill="#d9d9d9"/><path d="m433.255 402.833c-.698-1.745-4.327-11.101-7.287-24.427-.05-.13-.179-.46-.401-.977-.292-.679-.741-1.665-1.352-2.862-.939-1.84-2.271-4.186-4.017-6.709-.024.83-.042 1.663-.042 2.499 0 16.674 5.049 32.161 13.7 45.028-.599-2.284-1.056-4.943-1.06-7.8 0-1.54.143-3.137.459-4.752z" fill="#808080"/><path d="m511.813 447.855c-.026-.019-.047-.032-.07-.048-4.039.693-7.884.996-11.485.996-7.133-.001-13.335-1.142-18.318-2.538-.896-.209-1.71-.295-2.446-.295-1.822-.002-3.19.523-4.125 1.052 8.043 2.684 16.647 4.14 25.594 4.14 4.528 0 8.966-.378 13.29-1.094-.873-1.031-1.894-1.834-2.44-2.213z" fill="#d9d9d9"/><path d="m572.898 400.418c-1.355 3.088-3.071 6.184-4.776 9.007-1.854 3.047-3.702 5.745-5.081 7.676l5.268-2.086c4.795-7.216 8.459-15.245 10.744-23.839z" fill="#fff"/><path d="m498.477 402.131c7.9 9.287 15.819 19.89 21.442 36.56 3.986-3.612 8.72-8.35 12.782-13.626-2.116-2.811-10.236-13.976-13.434-24.596-3.084.499-10.954 1.438-20.79 1.662z" fill="#fff"/><path d="m532.977 368.059c8.533-1.177 13.325-5.425 31.654-6.508 1.888-5.171 3.397-10.444 3.395-15.592 0-2.134-.264-4.246-.851-6.337-4.097-4.206-11.158-14.157-16.203-19.724-1.679-1.874-3.199-3.238-3.968-3.58-.155-.077-.236-.094-.268-.098-9.254 1.106-19.401 4.889-29.085 6.955-2.187 3.136-4.028 8.806-5.083 21.864 13.411 12.802 18.99 20.821 20.409 23.02z" fill="#fff"/><path d="m510.454 344.427c1.048-12.506 2.791-18.486 5.211-22.168-1.642-1.846-5.934-5.099-10.405-7.824-4.94-3.076-10.429-5.613-12.512-5.549v-1.083l-.138 1.074c-.725-.093-1.466-.136-2.223-.135-6.034-.023-12.926 2.819-18.273 5.664-1.523 6.074-2.619 12.98-2.619 20.315 0 10.207 1.061 18.572 2.895 25.689 2.276-1.308 7.898-4.473 14.419-7.661 8.089-3.928 17.371-7.894 23.645-8.322z" fill="#fff"/><path d="m573.394 390.26c.015-4.62-2.206-11.511-4.457-17.134-1.749-4.387-3.488-8.017-4.178-9.42-18.017 1.058-22.26 5.168-31.497 6.49-4.76 15.875-10.81 26.969-12.06 29.178 2.49 8.766 8.921 18.455 12.012 22.746.587.815 1.044 1.427 1.338 1.814 11.501-1.21 19.792-3.66 23.221-4.815.709-.238 1.202-.417 1.48-.522.324-.422 1.068-1.403 2.067-2.802 1.352-1.895 3.156-4.532 4.956-7.492 3.612-5.899 7.152-13.191 7.118-18.043z" fill="#fff"/><path d="m547.565 314.228c.516.178.986.476 1.496.842.763.571 1.586 1.343 2.481 2.272 1.785 1.856 3.843 4.34 5.962 6.996 4.075 5.109 8.403 10.868 11.115 13.673l6.476.155c-4.075-9.371-9.87-17.821-16.995-24.948-3.546-3.545-7.423-6.76-11.575-9.6-.014.471-.021.932-.021 1.377 0 4.676.705 7.895 1.045 9.176.005.022.01.036.016.057z" fill="#fff"/><path d="m501.377 289.558c-.139-.001-.276-.005-.416-.005-6.993 0-13.777.888-20.247 2.558-1.529 2.788-5.13 9.897-7.845 19.467 5.137-2.562 11.392-4.897 17.275-4.988z" fill="#fff"/><g fill="#4156a6"><path d="m69.51 504.767-7.331 22.189 8.029 26.955h-13.205l-5.175-21.066v21.066h-12.779v-49.145h12.779v19.094l5.691-19.094h11.991z"/><path d="m90.9 543.896v10.017h-9.258v-10.017z"/><path d="m151.258 519.642h-11.869v-3.643c0-1.7-.152-2.781-.456-3.248-.303-.465-.809-.698-1.518-.698-.77 0-1.351.314-1.745.942-.395.628-.592 1.579-.592 2.854 0 1.641.222 2.876.665 3.706.424.83 1.628 1.832 3.611 3.004 5.688 3.377 9.271 6.148 10.749 8.313 1.477 2.166 2.216 5.657 2.216 10.473 0 3.501-.41 6.081-1.23 7.74-.819 1.659-2.403 3.051-4.75 4.174-2.348 1.123-5.08 1.685-8.196 1.685-3.42 0-6.339-.648-8.757-1.942-2.418-1.295-4.002-2.945-4.75-4.948-.748-2.004-1.123-4.846-1.123-8.529v-3.218h11.869v5.979c0 1.842.167 3.025.501 3.552s.926.789 1.775.789c.85 0 1.482-.334 1.898-1.002.415-.668.622-1.658.622-2.975 0-2.893-.395-4.785-1.184-5.676-.81-.891-2.803-2.378-5.98-4.463-3.177-2.104-5.282-3.631-6.314-4.583-1.032-.951-1.887-2.266-2.565-3.946s-1.017-3.824-1.017-6.436c0-3.764.48-6.515 1.442-8.256.961-1.74 2.514-3.101 4.659-4.083s4.735-1.473 7.771-1.473c3.319 0 6.146.537 8.484 1.609 2.337 1.073 3.886 2.424 4.645 4.052.759 1.63 1.138 4.397 1.138 8.303v1.944z"/><path d="m193.451 528.839h-11.565v-4.643c0-1.619-.132-2.717-.395-3.294s-.749-.865-1.457-.865c-.709 0-1.184.254-1.427.759-.243.506-.364 1.64-.364 3.4v19.002c0 1.438.182 2.515.546 3.232.364.719.9 1.077 1.609 1.077.83 0 1.391-.374 1.685-1.123.293-.747.44-2.165.44-4.249v-4.796h10.928c-.02 3.217-.137 5.63-.349 7.239-.212 1.608-.891 3.259-2.034 4.947-1.144 1.691-2.636 2.965-4.478 3.825-1.841.86-4.118 1.29-6.83 1.29-3.46 0-6.203-.592-8.226-1.775-2.023-1.185-3.456-2.843-4.296-4.978-.839-2.135-1.259-5.164-1.259-9.091v-11.444c0-3.419.344-5.999 1.032-7.74.688-1.74 2.155-3.294 4.401-4.659 2.247-1.366 4.979-2.049 8.196-2.049 3.197 0 5.929.679 8.196 2.033 2.266 1.356 3.774 3.066 4.523 5.13.75 2.064 1.124 4.989 1.124 8.772z"/><path d="m219.739 504.767v11.057c1.052-.974 2.19-1.704 3.415-2.191 1.224-.486 2.535-.729 3.931-.729 2.144 0 3.972.546 5.479 1.639s2.429 2.353 2.762 3.779c.334 1.427.501 4.033.501 7.816v27.775h-12.263v-28.353c0-2.347-.117-3.854-.349-4.522-.233-.668-.754-1.002-1.563-1.002-.749 0-1.255.345-1.518 1.032-.263.688-.395 2.054-.395 4.098v28.746h-12.263v-49.145z"/><path d="m278.202 534.485h-15.875v8.712c0 1.821.132 2.994.395 3.521s.769.789 1.518.789c.931 0 1.553-.349 1.867-1.047.313-.698.471-2.049.471-4.053v-5.312h11.625v2.975c0 2.489-.157 4.401-.47 5.737-.314 1.335-1.047 2.762-2.201 4.28s-2.616 2.655-4.386 3.414c-1.771.759-3.992 1.139-6.663 1.139-2.59 0-4.877-.375-6.86-1.123s-3.526-1.775-4.629-3.081-1.867-2.742-2.292-4.311c-.425-1.567-.638-3.85-.638-6.845v-11.747c0-3.522.476-6.299 1.427-8.333.951-2.033 2.509-3.592 4.675-4.674 2.165-1.082 4.654-1.624 7.467-1.624 3.44 0 6.279.652 8.515 1.957 2.236 1.306 3.805 3.036 4.705 5.191s1.35 5.187 1.35 9.091v5.344zm-12.293-6.556v-2.944c0-2.084-.111-3.431-.334-4.037-.223-.607-.678-.911-1.366-.911-.85 0-1.377.258-1.579.774s-.304 1.908-.304 4.174v2.944z"/><path d="m305.219 504.767v49.145h-12.628v-49.145z"/><path d="m332.63 504.767v49.145h-12.628v-49.145z"/><path d="m375.186 534.485h-15.875v8.712c0 1.821.131 2.994.395 3.521.263.527.768.789 1.518.789.931 0 1.553-.349 1.867-1.047s.47-2.049.47-4.053v-5.312h11.626v2.975c0 2.489-.156 4.401-.471 5.737-.314 1.335-1.047 2.762-2.2 4.28s-2.615 2.655-4.387 3.414c-1.77.759-3.991 1.139-6.662 1.139-2.591 0-4.877-.375-6.86-1.123s-3.526-1.775-4.629-3.081-1.867-2.742-2.292-4.311c-.425-1.567-.638-3.85-.638-6.845v-11.747c0-3.522.475-6.299 1.427-8.333.951-2.033 2.51-3.592 4.675-4.674s4.654-1.624 7.467-1.624c3.44 0 6.278.652 8.515 1.957 2.236 1.306 3.805 3.036 4.705 5.191s1.351 5.187 1.351 9.091v5.344zm-12.292-6.556v-2.944c0-2.084-.111-3.431-.334-4.037-.223-.607-.679-.911-1.366-.911-.85 0-1.376.258-1.578.774-.203.516-.304 1.908-.304 4.174v2.944z"/><path d="m438.356 519.642h-11.868v-3.643c0-1.7-.152-2.781-.456-3.248-.304-.465-.81-.698-1.518-.698-.768 0-1.35.314-1.745.942s-.592 1.579-.592 2.854c0 1.641.221 2.876.664 3.706.425.83 1.628 1.832 3.612 3.004 5.688 3.377 9.271 6.148 10.749 8.313 1.478 2.166 2.216 5.657 2.216 10.473 0 3.501-.41 6.081-1.229 7.74s-2.403 3.051-4.75 4.174c-2.348 1.123-5.08 1.685-8.196 1.685-3.42 0-6.339-.648-8.757-1.942-2.419-1.295-4.002-2.945-4.751-4.948-.749-2.004-1.123-4.846-1.123-8.529v-3.218h11.869v5.979c0 1.842.167 3.025.5 3.552.334.527.927.789 1.776.789.85 0 1.482-.334 1.898-1.002.414-.668.622-1.658.622-2.975 0-2.893-.395-4.785-1.184-5.676-.81-.891-2.804-2.378-5.98-4.463-3.177-2.104-5.281-3.631-6.313-4.583-1.032-.951-1.888-2.266-2.565-3.946-.678-1.68-1.017-3.824-1.017-6.436 0-3.764.48-6.515 1.441-8.256.962-1.74 2.515-3.101 4.66-4.083s4.735-1.473 7.771-1.473c3.318 0 6.147.537 8.484 1.609 2.337 1.073 3.885 2.424 4.644 4.052.76 1.63 1.139 4.397 1.139 8.303v1.944z"/><path d="m465.919 513.632-.213 3.559c1.093-1.438 2.297-2.514 3.612-3.224 1.315-.709 2.752-1.063 4.31-1.063 1.902 0 3.546.512 4.933 1.532 1.386 1.023 2.251 2.201 2.595 3.537.345 1.335.517 3.602.517 6.799v16.969c0 3.662-.218 6.268-.653 7.816s-1.325 2.782-2.671 3.703-2.97 1.381-4.872 1.381c-1.518 0-2.924-.355-4.219-1.064-1.295-.71-2.479-1.763-3.552-3.162v9.235h-12.264v-46.018zm3.49 11.717c0-2.489-.091-3.996-.273-4.523-.182-.525-.688-.789-1.517-.789-.81 0-1.33.304-1.564.911-.232.607-.349 2.075-.349 4.401v16.694c0 2.429.121 3.946.364 4.554.243.607.77.91 1.578.91.79 0 1.28-.277 1.473-.834.192-.557.288-1.907.288-4.053z"/><path d="m523.835 527.776v9.865c0 3.624-.182 6.279-.546 7.969s-1.144 3.268-2.338 4.735c-1.193 1.468-2.727 2.55-4.599 3.248-1.871.698-4.021 1.047-6.45 1.047-2.712 0-5.009-.3-6.891-.895-1.882-.596-3.344-1.497-4.386-2.701-1.042-1.203-1.786-2.66-2.232-4.371-.445-1.71-.668-4.275-.668-7.695v-10.32c0-3.744.405-6.667 1.215-8.773.81-2.104 2.267-3.795 4.371-5.069 2.104-1.275 4.796-1.912 8.074-1.912 2.752 0 5.114.409 7.088 1.228 1.973.82 3.495 1.888 4.568 3.203 1.072 1.316 1.806 2.671 2.2 4.067.397 1.397.594 3.522.594 6.374zm-12.263-3.035c0-2.065-.111-3.364-.334-3.9-.223-.535-.698-.805-1.427-.805-.728 0-1.214.27-1.457.805-.243.536-.364 1.836-.364 3.9v18.183c0 1.902.121 3.142.364 3.719.243.576.719.864 1.427.864.729 0 1.209-.262 1.441-.789.233-.526.35-1.658.35-3.399z"/><path d="m550.519 513.632-.485 5.297c1.78-3.794 4.361-5.803 7.74-6.025v14.175c-2.246 0-3.896.304-4.947.911-1.053.607-1.7 1.453-1.943 2.534-.242 1.083-.364 3.578-.364 7.482v15.906h-12.263v-40.28z"/><path d="m584.941 508.259v6.344h3.309v6.375h-3.309v21.552c0 2.651.136 4.128.409 4.432s1.411.455 3.415.455v6.496h-4.948c-2.792 0-4.785-.116-5.979-.349-1.194-.232-2.246-.77-3.157-1.609-.91-.839-1.477-1.801-1.699-2.884-.223-1.082-.334-3.627-.334-7.634v-20.459h-2.641v-6.375h2.641v-6.344z"/></g><path d="m174.081 458.826c26.334-46.193 61.951-64.109 95.92-60.248l22.81-21.767c-35.688-3.166-81.027-34.978-81.027-34.978l-24.751 25.471s17.7 10.577 43.387 23.744c-.001 0-42.308 20.937-56.339 67.778z"/><path d="m288.619 291.779c-72.815 4.013-126.482 50.341-153.104 94.232 18.995-60.584 102.747-136.709 247.975-145.448z"/><path d="m189.688 257.27c4.866-19.666 20.477-56.159 39.129-56.159 3.839 0 8.044 2.198 13.877 5.79 9.721 5.986 40.045 20.685 48.567 25.838 0 0-11.759 13.381-27.978 13.381-26.559 0-34.669-19.666-44.401-19.666-9.934-.001-29.194 30.816-29.194 30.816z"/><path d="m438.288 235.009c0 16.177-19.764 31.667-47.006 22.893 0 0 19.535-9.615 19.535-23.961 0-14.957-20.298-25.335-20.298-25.335 23.732.687 47.769 9.616 47.769 26.403z"/><path d="m133.932 388.457c0 19.448-17.269 36.263-50.294 35.184 0 0-42.955 61.518-59.36 71.448 7.681-19.516 52.452-112.028 109.654-106.632z"/><path d="m362.001 314.35c-10.171 0-9.771-21.041-19.116-33.823l29.874-12.32c8.622 12.545 4.773 22.091 14.532 22.091 8.108 0 36.834-15.256 36.834-15.256-48.242 30.374-56.626 39.308-62.124 39.308z"/><path d="m172.569 458.122c26.335-46.193 61.951-64.109 95.92-60.249l22.811-21.766c-35.688-3.165-81.027-34.979-81.027-34.979l-24.752 25.471s17.7 10.577 43.387 23.744c0 0-42.308 20.938-56.339 67.779z" fill="#4156a6"/><path d="m287.107 291.075c-72.815 4.013-126.482 50.342-153.104 94.232 18.995-60.584 102.747-136.709 247.975-145.448z" fill="#4156a6"/><path d="m188.176 256.565c4.866-19.666 20.477-56.16 39.129-56.16 3.838 0 8.044 2.199 13.877 5.79 9.722 5.986 40.045 20.685 48.568 25.838 0 0-11.759 13.381-27.979 13.381-26.559 0-34.669-19.666-44.4-19.666-9.935.001-29.195 30.817-29.195 30.817z" fill="#4156a6"/><path d="m436.776 234.305c0 16.177-19.765 31.668-47.006 22.893 0 0 19.535-9.615 19.535-23.961 0-14.956-20.298-25.334-20.298-25.334 23.732.686 47.769 9.614 47.769 26.402z" fill="#4156a6"/><path d="m132.42 387.753c0 19.447-17.269 36.264-50.294 35.185 0 0-42.956 61.518-59.36 71.448 7.681-19.517 52.453-112.029 109.654-106.633z" fill="#4156a6"/><path d="m360.489 313.645c-10.171 0-9.771-21.041-19.117-33.823l29.875-12.32c8.622 12.545 4.773 22.09 14.532 22.09 8.108 0 36.834-15.256 36.834-15.256-48.242 30.375-56.626 39.309-62.124 39.309z" fill="#4156a6"/></svg>