<svg enable-background="new 0 0 612 792" viewBox="0 0 612 792" xmlns="http://www.w3.org/2000/svg"><path d="m221.432 175.585c.771 0 1.5.154 2.193.386-4.395-8.35-20.234-26.393-16.873-44.722 3.582-19.542 29.964-22.709 29.964-22.709l63.354-16.315v-12.513c0-3.283 2.308-6.018 5.388-6.69v-1.808c-4.346-.702-7.668-4.461-7.668-9.007 0-5.043 4.089-9.133 9.133-9.133s9.133 4.09 9.133 9.133c0 4.546-3.322 8.305-7.668 9.007v1.808c3.08.673 5.388 3.407 5.388 6.69v12.513l63.354 16.315s26.382 3.167 29.964 22.709c3.361 18.329-12.479 36.372-16.873 44.722.693-.231 1.422-.386 2.193-.386 3.89 0 7.038 3.154 7.038 7.036 0 3.894-3.148 7.047-7.038 7.047-1.962 0-3.73-.806-5.005-2.103-.635 6.073-.507 11.75-.507 11.75s-41.843-13.733-79.978-13.999c-38.136.265-79.979 13.999-79.979 13.999s.128-5.677-.507-11.75c-1.274 1.297-3.043 2.103-5.005 2.103-3.89 0-7.038-3.153-7.038-7.047-.001-3.882 3.147-7.036 7.037-7.036zm164.843-11.183c4.814-7.361 11.831-18.091 11.831-28.006 0-1.162-.086-2.313-.305-3.444-2.951-15.349-21.166-11.262-21.363-11.286-.034.031-.068.068-.103.101.215-.02.423-.064.643-.064 3.889 0 7.039 3.154 7.039 7.036 0 3.894-3.15 7.046-7.039 7.046-3.337 0-6.109-2.328-6.833-5.448-1.759 3.072-3.431 6.439-4.883 9.591 1.108-.733 2.435-1.166 3.864-1.166 3.889 0 7.038 3.154 7.038 7.036 0 3.894-3.149 7.046-7.038 7.046-3.503 0-6.379-2.568-6.918-5.925-1.257 3.039-2.016 5.073-2.016 5.073zm-36.1-11.328s13.81-24.91 4.333-36.553-26.807-9.206-26.807-9.206 2.966 6.392 2.438 13.809c-.814 11.373-5.145 23.557-5.145 23.557zm-57.776-28.796c0 6.036 5.291 12.458 5.291 12.458.826 1.002 2.199 1.02 3.049.041 0 0 2.652-3.054 6.004-3.054.06 0 .119.008.179.01.059-.002.118-.01.179-.01 3.352 0 6.004 3.054 6.004 3.054.85.979 2.223.961 3.049-.041 0 0 5.291-6.422 5.291-12.458 0-.147-.002-.294-.005-.441.003-.146.005-.293.005-.441 0-6.036-5.291-12.459-5.291-12.459-.826-1.002-2.199-1.021-3.049-.04 0 0-2.652 3.055-6.004 3.055-.061 0-.119-.008-.179-.01-.06.002-.118.01-.179.01-3.352 0-6.004-3.055-6.004-3.055-.85-.98-2.223-.962-3.049.04 0 0-5.291 6.423-5.291 12.459 0 .148.002.295.005.441-.003.147-.005.294-.005.441zm-28.73 28.796 25.181-8.394s-4.331-12.184-5.145-23.557c-.528-7.417 2.438-13.809 2.438-13.809s-17.329-2.437-26.807 9.206c-9.477 11.644 4.333 36.554 4.333 36.554zm-36.101 11.328 26.082-12.411s-.759-2.034-2.016-5.073c-.539 3.356-3.415 5.925-6.918 5.925-3.889 0-7.038-3.152-7.038-7.046 0-3.882 3.149-7.036 7.038-7.036 1.43 0 2.756.433 3.864 1.166-1.452-3.151-3.124-6.519-4.883-9.591-.724 3.12-3.496 5.448-6.833 5.448-3.889 0-7.039-3.152-7.039-7.046 0-3.882 3.15-7.036 7.039-7.036.22 0 .428.045.643.064-.034-.032-.068-.069-.103-.101-.197.024-18.412-4.063-21.363 11.286-.219 1.131-.305 2.282-.305 3.444.001 9.917 7.018 20.646 11.832 28.007z" fill="#0b4a25"/><path d="m315.273 166.212c0 4.612-3.738 8.353-8.352 8.353-4.612 0-8.351-3.74-8.351-8.353s3.738-8.351 8.351-8.351c4.614 0 8.352 3.739 8.352 8.351z" fill="#fff"/><path d="m275.028 172.284c0 4.612-3.738 8.353-8.351 8.353-4.612 0-8.351-3.74-8.351-8.353s3.739-8.352 8.351-8.352c4.613.001 8.351 3.74 8.351 8.352z" fill="#fff"/><path d="m338.815 172.284c0 4.612 3.738 8.353 8.352 8.353 4.612 0 8.351-3.74 8.351-8.353s-3.738-8.352-8.351-8.352c-4.613.001-8.352 3.74-8.352 8.352z" fill="#fff"/><path d="m210.591 161.502c0 3.894-3.143 7.046-7.03 7.046-3.89 0-7.039-3.152-7.039-7.046 0-3.882 3.149-7.036 7.039-7.036 3.887 0 7.03 3.154 7.03 7.036z" fill="#0b4a25"/><path d="m207.625 145.037c0 3.895-3.143 7.048-7.03 7.048-3.888 0-7.038-3.152-7.038-7.048 0-3.882 3.15-7.035 7.038-7.035 3.887 0 7.03 3.153 7.03 7.035z" fill="#0b4a25"/><path d="m207.022 129.354c0 3.893-3.143 7.046-7.03 7.046-3.888 0-7.038-3.153-7.038-7.046 0-3.882 3.149-7.037 7.038-7.037 3.887-.001 7.03 3.155 7.03 7.037z" fill="#0b4a25"/><path d="m215.31 114.436c0 3.896-3.143 7.048-7.03 7.048-3.89 0-7.039-3.152-7.039-7.048 0-3.882 3.148-7.035 7.039-7.035 3.886-.001 7.03 3.153 7.03 7.035z" fill="#0b4a25"/><path d="m229.894 104.492c0 3.895-3.144 7.047-7.03 7.047-3.889 0-7.038-3.152-7.038-7.047 0-3.883 3.149-7.035 7.038-7.035 3.886 0 7.03 3.152 7.03 7.035z" fill="#0b4a25"/><path d="m245.413 99.856c0 3.894-3.144 7.047-7.03 7.047-3.891 0-7.039-3.153-7.039-7.047 0-3.882 3.148-7.036 7.039-7.036 3.887 0 7.03 3.155 7.03 7.036z" fill="#0b4a25"/><path d="m260.329 96.211c0 3.893-3.143 7.046-7.03 7.046-3.888 0-7.038-3.153-7.038-7.046 0-3.883 3.149-7.036 7.038-7.036 3.887 0 7.03 3.153 7.03 7.036z" fill="#0b4a25"/><path d="m275.577 92.564c0 3.894-3.143 7.047-7.03 7.047-3.89 0-7.039-3.153-7.039-7.047 0-3.882 3.148-7.036 7.039-7.036 3.887 0 7.03 3.155 7.03 7.036z" fill="#0b4a25"/><path d="m290.493 88.919c0 3.893-3.143 7.046-7.03 7.046-3.89 0-7.038-3.153-7.038-7.046 0-3.882 3.148-7.037 7.038-7.037 3.887 0 7.03 3.155 7.03 7.037z" fill="#0b4a25"/><path d="m313.956 123.831c0 3.894-3.145 7.047-7.029 7.047-3.89 0-7.038-3.153-7.038-7.047 0-3.882 3.148-7.036 7.038-7.036 3.884 0 7.029 3.154 7.029 7.036z" fill="#0b4a25"/><path d="m528.725 400.787c-15.898 6.861-24.928 19.015-36.096 31.287-.424.467-.833.952-1.228 1.447 7.301-14.805 13.87-30.637 17.985-45.99 3.69 1.767 11.451-.016 14.94-1.643 4.646-2.17 9.538-7.488 12.201-11.845 5.544-9.067 6.33-22.311 6.337-32.556 0-1.632.022-3.284-.036-4.905-8.19 1.284-15.383 10.458-19.616 16.852-2.323 3.512-4.314 7.118-6.446 10.743-1.327 2.257-2.631 5.207-4.093 7.88.75-4.982 1.163-9.852 1.163-14.55 0-6.804-.307-13.455-.876-19.962 11.433-3.221 20.56-12.571 22.687-24.229 1.888-10.339-2.071-19.57-3.107-29.657-.232-2.242-.545-4.98-.027-7.136-8.653 3.298-14.747 11.945-17.298 20.602-1.957 6.648.885 19.592-4.085 25.505-2.657-16.786-7.211-32.461-13.351-46.939 8.153-3.039 12.205-15.536 13.644-23.142 2.124-11.239-3.684-20.975-7.916-30.893-1.69-3.965-2.62-7.727-3.857-11.738-6.091 6.128-11.204 13.536-11.693 22.437-.435 7.915 5.421 19.909 2.092 27.247-8.122-15.056-18.049-28.594-29.363-40.495-.479-4.866-5.216-39.184-43.593-37.657 0 0 3.648 41.177 41.589 38.407 12.955 13.792 23.916 29.752 32.352 47.704-2.185-3.324-6.193-6.151-8.948-8.683-3.68-3.383-7.033-6.773-11.292-9.423-7.805-4.853-18.204-7.66-27.113-3.652 3.458 2.156 5.495 8.674 7.736 11.918 2.603 3.768 5.808 7.601 9.191 10.549 6.915 6.021 15.255 10.409 24.533 9.387 2.694-.299 7.097.035 9.73-1.36 5.667 13.822 9.9 28.72 12.456 44.637-1.454-2.328-3.322-4.536-4.645-6.254-3.706-4.809-7.399-9.184-12.333-12.756-8.951-6.478-23.391-10.726-34.45-9.449 9.501 17.467 23.415 45.811 47.074 44.084 1.947-.142 4.309-.01 6.243-.555.636 6.994.964 14.163.964 21.504 0 6.453-.823 13.227-2.284 20.172-3.198-2.572-3.157-8.232-4.264-11.853-1.615-5.291-3.923-10.339-7.206-14.694-6.745-8.955-18.554-15.304-29.788-15.018-2.101 9.704 1.646 22.364 5.076 31.412 3.737 9.857 13.722 17.636 23.974 19.704 2.751.555 6.63 1.21 9.699.462-4.308 15.012-11.11 30.478-18.695 44.988 1.141-7.729-.581-17.069-2.021-24.268-2.338-11.688-9.457-20.095-21.316-23.259.171 5.295-.506 10.705-.506 16.114 0 5.379.334 10.721.939 15.998 1.221 10.655 7.674 20.642 18.528 23.541-8.897 16.048-18.374 30.506-25.897 41.292-2.2-6.594 4.116-17.027 4.084-23.765-.053-10.521-4.491-21.838-12.642-28.796 1.316 10.207-4.227 21.579-5.902 31.617-1.748 10.469-.064 22.549 7.894 30.143-4.214 5.76-7.049 9.371-7.644 10.12-3.335 1.25-6.029 2.545-8.232 3.73-14.653 7.892-66.044 28.388-127.027 28.446-.009 0-.017 0-.026 0s-.018 0-.026 0c-60.983-.059-112.373-20.554-127.027-28.446-2.203-1.186-4.897-2.48-8.232-3.73-.594-.749-3.43-4.36-7.643-10.12 7.957-7.594 9.642-19.674 7.894-30.143-1.676-10.038-7.219-21.41-5.902-31.617-8.151 6.958-12.589 18.275-12.642 28.796-.032 6.737 6.284 17.171 4.084 23.765-7.523-10.786-17.001-25.244-25.898-41.292 10.855-2.899 17.308-12.886 18.529-23.541.605-5.277.939-10.619.939-15.998 0-5.409-.676-10.819-.506-16.114-11.859 3.164-18.978 11.57-21.316 23.259-1.439 7.198-3.161 16.539-2.021 24.268-7.585-14.511-14.387-29.977-18.695-44.988 3.07.748 6.949.093 9.7-.462 10.251-2.068 20.236-9.848 23.973-19.704 3.431-9.048 7.177-21.708 5.076-31.412-11.234-.286-23.042 6.063-29.788 15.018-3.283 4.355-5.591 9.403-7.206 14.694-1.106 3.621-1.066 9.281-4.264 11.853-1.461-6.945-2.284-13.719-2.284-20.172 0-7.341.329-14.51.964-21.504 1.935.545 4.295.413 6.243.555 23.659 1.727 37.573-26.617 47.075-44.084-11.06-1.276-25.499 2.971-34.451 9.449-4.933 3.571-8.626 7.946-12.332 12.756-1.323 1.718-3.191 3.926-4.645 6.254 2.556-15.917 6.789-30.814 12.456-44.637 2.634 1.395 7.037 1.061 9.731 1.36 9.278 1.022 17.618-3.365 24.533-9.387 3.384-2.948 6.589-6.781 9.192-10.549 2.241-3.244 4.278-9.762 7.736-11.918-8.909-4.008-19.309-1.2-27.113 3.652-4.259 2.649-7.612 6.04-11.292 9.423-2.754 2.531-6.763 5.358-8.948 8.683 8.436-17.952 19.397-33.912 32.352-47.704 37.94 2.77 41.588-38.407 41.588-38.407-38.377-1.526-43.114 32.791-43.593 37.657-11.314 11.901-21.241 25.439-29.363 40.495-3.329-7.338 2.526-19.332 2.092-27.247-.49-8.9-5.603-16.309-11.693-22.437-1.236 4.012-2.167 7.773-3.857 11.738-4.232 9.918-10.04 19.653-7.916 30.893 1.438 7.605 5.49 20.103 13.644 23.142-6.14 14.478-10.694 30.153-13.351 46.939-4.97-5.913-2.128-18.856-4.085-25.505-2.551-8.656-8.645-17.304-17.298-20.602.517 2.155.204 4.893-.028 7.136-1.036 10.087-4.995 19.318-3.108 29.657 2.127 11.657 11.254 21.008 22.687 24.229-.569 6.507-.876 13.158-.876 19.962 0 4.698.414 9.567 1.164 14.55-1.462-2.673-2.766-5.623-4.093-7.88-2.131-3.625-4.123-7.232-6.446-10.743-4.233-6.393-11.426-15.567-19.616-16.852-.059 1.621-.036 3.273-.036 4.905.006 10.245.792 23.488 6.337 32.556 2.663 4.356 7.554 9.675 12.201 11.845 3.488 1.627 11.249 3.409 14.94 1.643 4.115 15.354 10.685 31.186 17.985 45.99-.396-.495-.804-.98-1.229-1.447-11.167-12.272-20.197-24.426-36.095-31.287-4.468-1.928-10.281-5.332-15.04-5.777.498 5.489 2.481 11.817 4.427 17.046 3.333 8.948 9.801 18.961 17.594 24.686 5.668 4.164 12.485 6.426 19.463 7.515 5.932.925 10.074-.715 15.466-1.733 7.633 14.516 15.646 27.649 22.242 37.827-4.738-2.326-9.383-6.922-13.234-9.812-3.698-2.775-7.241-4.795-11.733-6.051-9.199-2.57-20.222-4.485-29.788-3.993 3.871 2.315 7.049 8.096 10.032 11.405 3.983 4.422 7.914 7.069 13.193 9.667 9.432 4.639 24.583 8.1 35.098 4.212 3.742 5.619 6.796 9.964 8.732 12.665-7.666-1.751-17.605-3.001-30.787-3.001-29.142 0-38.372 13.919-38.749 14.513l-.368.573.098.674 7.972 55.429.075.512.329.397c.512.616 12.729 15.104 30.053 15.104 17.305 0 33.285-18.409 33.956-19.194l-.327-.281c1.121.495 2.255.996 3.415 1.51 13.89 6.148 31.43 13.902 54.853 20.029-3.072.24-6.615 1.268-9.063 1.965-4.09 1.164-8.194 2.392-12.21 3.792-7.292 2.544-14.973 6.995-19.703 13.124 9.526 6.114 22.997 7.481 34.042 7.481 10.414 0 21.286-2.389 27.499-11.534 1.887-2.778 3.859-6.063 5.031-9.34 3.296.557 6.691 1.073 10.181 1.549l-.786-.02c6.3 6.503 21.335 18.103 38.743 30.789-4.741.014-8.221-1.408-11.186-2.016-4.59-.939-9.086-2.63-13.738-3.449-12.125-2.131-25.961.949-36.653 7.239-1.751 1.029-4.271 2.165-5.382 3.743-.385.547 14.838 6.908 16.261 7.34 6.137 1.857 12.407 2.674 18.808 2.693 5.345.015 10.722.329 16.044-.302 1.293-.155 2.583-.364 3.856-.642-13.876 9.378-29.46 19.252-46.127 28.689v12.479s35.985-24.064 69.217-47.768c33.232 23.703 69.218 47.768 69.218 47.768v-12.479c-16.667-9.438-32.251-19.312-46.128-28.689 1.272.277 2.563.486 3.857.642 5.321.631 10.698.316 16.043.302 6.4-.02 12.671-.836 18.808-2.693 1.424-.432 16.646-6.793 16.262-7.34-1.111-1.578-3.632-2.714-5.383-3.743-10.691-6.29-24.527-9.37-36.653-7.239-4.652.819-9.147 2.511-13.738 3.449-2.966.607-6.445 2.029-11.187 2.016 17.408-12.686 32.443-24.286 38.743-30.789l-.786.02c3.49-.476 6.886-.992 10.182-1.549 1.171 3.277 3.144 6.562 5.03 9.34 6.213 9.145 17.085 11.534 27.499 11.534 11.045 0 24.517-1.367 34.042-7.481-4.729-6.129-12.41-10.58-19.702-13.124-4.017-1.4-8.12-2.628-12.211-3.792-2.448-.697-5.991-1.725-9.063-1.965 23.424-6.127 40.964-13.881 54.853-20.029 1.159-.514 2.294-1.015 3.414-1.51l-.326.281c.67.785 16.65 19.194 33.955 19.194 17.324 0 29.541-14.487 30.054-15.104l.328-.397.075-.512 7.972-55.429.098-.674-.367-.573c-.378-.594-9.607-14.513-38.749-14.513-13.182 0-23.121 1.25-30.787 3.001 1.937-2.701 4.99-7.046 8.732-12.665 10.515 3.888 25.666.427 35.098-4.212 5.279-2.598 9.21-5.245 13.193-9.667 2.982-3.31 6.161-9.09 10.031-11.405-9.566-.492-20.589 1.423-29.788 3.993-4.491 1.256-8.035 3.275-11.733 6.051-3.852 2.891-8.496 7.486-13.234 9.812 6.596-10.178 14.608-23.312 22.242-37.827 5.392 1.019 9.534 2.658 15.466 1.733 6.978-1.089 13.795-3.351 19.463-7.515 7.793-5.725 14.262-15.737 17.595-24.686 1.945-5.229 3.929-11.557 4.427-17.046-4.77.445-10.584 3.849-15.051 5.777zm-221.803 220.076c-18.359-13.481-31.042-24.005-35.224-27.538 10.848 1.021 22.547 1.62 35.224 1.65 12.677-.029 24.376-.629 35.224-1.65-4.182 3.533-16.865 14.057-35.224 27.538z" fill="#0b4a25"/><path d="m130.194 578.98c-12.523 0-22.423-8.808-25.888-12.338 1.033-2.3 7.051-13.484 26.365-13.484 8.917 0 18.506 3.635 30.03 8.643-3.112 3.366-16.726 17.179-30.507 17.179z" fill="#fff"/><path d="m483.649 578.98c12.523 0 22.423-8.808 25.889-12.338-1.033-2.3-7.051-13.484-26.365-13.484-8.917 0-18.506 3.635-30.03 8.643 3.112 3.366 16.726 17.179 30.506 17.179z" fill="#fff"/><path d="m483.06 499.105c-27.003 0-39.953 5.293-47.346 9.271-14.881 8.014-67.023 28.826-128.766 28.883-.009 0-.017 0-.026 0s-.018 0-.026 0c-61.743-.057-113.885-20.869-128.765-28.883-7.393-3.978-20.343-9.271-47.346-9.271-23.903 0-33.384 9.976-35.284 12.324l7.274 50.57c3.335-4.821 11.255-12.506 27.896-12.506 11.328 0 23.122 5.221 38.052 11.831 28.429 12.587 67.364 29.823 138.199 29.986 70.835-.163 109.769-17.399 138.199-29.986 14.93-6.61 26.724-11.831 38.052-11.831 16.641 0 24.561 7.685 27.896 12.506l7.273-50.57c-1.899-2.348-11.379-12.324-35.282-12.324z" fill="#fff"/><g fill="#0b4a25"><path d="m109.265 510.667 3.952-.165v14.617l14.846-15.233 5.635-.234-12.675 12.575 12.956 17.298-5.281.219-10.64-14.575-4.84 4.804v10.415l-3.952.164v-29.885z"/><path d="m137.165 512.173 19.574 6.796v3.645l-15.737-5.465v9.111l13.819 4.8v3.54l-13.819-4.8v13.588l-3.837-1.33z"/><path d="m179.881 530.953c1.912 2.776 2.972 5.475 3.184 8.098l-3.663-1.495c-.409-2.088-1.22-3.938-2.438-5.56-1.217-1.618-2.925-2.878-5.125-3.776-2.681-1.093-4.846-.946-6.496.441-1.649 1.39-2.475 4.212-2.475 8.47 0 3.488.744 6.62 2.23 9.396 1.487 2.778 3.706 4.768 6.658 5.971 2.713 1.111 4.782.812 6.202-.894.753-.896 1.314-2.249 1.684-4.059l3.664 1.495c-.323 3.018-1.39 5.223-3.2 6.612-2.172 1.68-5.099 1.767-8.784.264-3.174-1.297-5.841-3.437-8-6.416-2.84-3.938-4.261-8.807-4.261-14.607 0-4.404 1.067-7.579 3.202-9.525 2.311-2.121 5.495-2.354 9.554-.695 3.463 1.412 6.151 3.507 8.064 6.28z"/><path d="m203.669 563.775v-22.907l6.789 1.978c3.09.898 5.33 2.572 6.721 5.022 1.391 2.449 2.085 5.521 2.085 9.218 0 .961-.096 1.977-.287 3.043-.333 1.785-.878 3.17-1.634 4.155-.95 1.226-2.167 1.888-3.654 1.982-.835.042-1.899-.128-3.192-.503zm-3.898 2.301 11.452 3.335c4.867 1.415 8.296.149 10.292-3.799 1.132-2.232 1.7-4.936 1.7-8.11 0-4.108-.96-7.758-2.878-10.947-2.151-3.542-5.175-5.882-9.077-7.017l-11.489-3.346z"/><path d="m228.777 544.229 21.337 4.007v3.645l-17.447-3.276v9.11l16.118 3.027v3.435l-16.118-3.025v10.151l17.704 3.324v3.54l-21.595-4.054v-29.884z"/><path d="m258.128 569.46c.091 1.712.472 3.132 1.146 4.26 1.282 2.111 3.54 3.323 6.777 3.636 1.448.141 2.77.049 3.96-.273 2.304-.624 3.455-2.03 3.455-4.217 0-1.639-.488-2.853-1.464-3.644-.993-.773-2.543-1.513-4.653-2.22l-3.89-1.29c-2.54-.841-4.339-1.673-5.394-2.493-1.824-1.423-2.736-3.378-2.736-5.862 0-2.685.897-4.805 2.691-6.354 1.794-1.55 4.334-2.167 7.622-1.85 3.024.291 5.595 1.296 7.71 3.015 2.115 1.716 3.173 4.237 3.173 7.563l-3.784-.365c-.192-1.624-.605-2.896-1.235-3.812-1.173-1.678-3.161-2.651-5.967-2.923-2.266-.22-3.897.127-4.887 1.04-.991.911-1.487 2.033-1.487 3.368 0 1.469.587 2.6 1.761 3.393.77.509 2.509 1.222 5.219 2.137l4.028 1.348c1.941.649 3.441 1.427 4.497 2.328 1.824 1.577 2.737 3.695 2.737 6.358 0 3.316-1.165 5.57-3.495 6.767-2.332 1.194-5.039 1.644-8.124 1.348-3.597-.348-6.413-1.565-8.448-3.649-2.037-2.084-3.035-4.74-2.994-7.973z"/><path d="m285.453 571.615c.091 1.706.474 3.094 1.15 4.167 1.287 2.011 3.557 3.044 6.808 3.099 1.456.023 2.782-.173 3.978-.592 2.315-.806 3.472-2.305 3.472-4.492 0-1.638-.492-2.814-1.471-3.528-.996-.692-2.554-1.31-4.675-1.847l-3.906-.98c-2.553-.639-4.359-1.326-5.419-2.063-1.832-1.28-2.748-3.161-2.748-5.645 0-2.687.899-4.876 2.702-6.57 1.803-1.691 4.354-2.512 7.657-2.456 3.039.05 5.621.849 7.744 2.398 2.125 1.549 3.187 3.986 3.187 7.31l-3.8-.065c-.194-1.606-.609-2.845-1.241-3.712-1.176-1.583-3.176-2.4-5.994-2.445-2.277-.039-3.914.438-4.908 1.428-.996.991-1.494 2.154-1.494 3.487 0 1.47.589 2.555 1.767 3.254.773.449 2.52 1.021 5.244 1.719l4.046 1.027c1.949.495 3.455 1.152 4.516 1.971 1.832 1.43 2.75 3.477 2.75 6.141 0 3.314-1.171 5.663-3.511 7.044-2.341 1.382-5.062 2.046-8.159 1.995-3.615-.06-6.443-1.051-8.488-2.975-2.045-1.921-3.047-4.5-3.007-7.733z"/><path d="m311.631 551.506 21.67-1.317v3.645l-17.719 1.077v9.111l16.369-.996v3.437l-16.369.995v10.152l17.978-1.093v3.54l-21.93 1.334v-29.885z"/><path d="m338.896 549.538 4.023-.548v26.344l14.805-2.021v3.541l-18.828 2.567z"/><path d="m375.246 563.682c.09 1.669.463 2.945 1.121 3.834 1.252 1.658 3.457 2.085 6.621 1.28 1.416-.358 2.705-.904 3.869-1.637 2.25-1.415 3.377-3.214 3.377-5.397 0-1.637-.479-2.681-1.432-3.133-.969-.43-2.48-.633-4.543-.61l-3.799.054c-2.48.036-4.236-.174-5.266-.631-1.783-.795-2.674-2.433-2.674-4.912 0-2.684.877-5.108 2.627-7.274 1.752-2.166 4.23-3.655 7.44-4.472 2.953-.749 5.461-.629 7.527.36 2.063.987 3.098 3.145 3.098 6.47l-3.684.937c-.191-1.558-.594-2.687-1.209-3.388-1.146-1.272-3.09-1.562-5.834-.864-2.215.563-3.809 1.47-4.775 2.721-.971 1.251-1.455 2.541-1.455 3.872 0 1.467.572 2.394 1.719 2.782.75.244 2.451.354 5.098.335l3.932-.042c1.898-.019 3.361.24 4.393.78 1.781.949 2.674 2.753 2.674 5.417 0 3.316-1.139 5.978-3.412 7.98-2.275 2.006-4.918 3.39-7.928 4.154-3.512.892-6.26.64-8.246-.754-1.986-1.381-2.959-3.69-2.92-6.928z"/><path d="m416.932 539.678c0 1.945-.531 3.482-1.59 4.613-1.059 1.13-2.436 1.982-4.135 2.563l-7.531 2.565v-10.308l7.531-2.566c1.457-.496 2.605-.677 3.441-.544 1.522.265 2.284 1.492 2.284 3.677zm-17.102 27.085 3.846-1.308v-12.6l8.785-2.993c2.816-.959 4.914-2.538 6.293-4.741s2.07-4.473 2.07-6.81c0-2.717-.771-4.563-2.318-5.54-1.545-.974-3.565-1.037-6.059-.189l-12.617 4.297z"/><path d="m438.6 549.781c-3.494 1.398-6.02 1.273-7.576-.379-1.559-1.648-2.338-4.13-2.338-7.44 0-4.14.908-7.634 2.725-10.484 1.816-2.849 4.162-4.848 7.039-5.998 2.963-1.186 5.301-1.049 7.01.413 1.707 1.46 2.564 3.946 2.564 7.461 0 3.326-.74 6.563-2.223 9.713-1.483 3.151-3.883 5.389-7.201 6.714zm-.383-27.802c-4.68 1.871-8.217 5.129-10.605 9.771-1.861 3.617-2.793 7.446-2.793 11.484 0 4.472 1.088 7.737 3.266 9.793 2.439 2.06 5.793 2.237 10.059.531 4.566-1.825 8.082-4.967 10.547-9.422 2.102-3.794 3.15-7.922 3.15-12.38 0-4.119-.916-7.134-2.754-9.042-2.353-2.446-5.978-2.692-10.87-.735z"/><path d="m460.133 527.794v-10.152l9.256-2.489c1.295-.348 2.328-.423 3.103-.227 1.447.379 2.17 1.627 2.17 3.743 0 1.97-.518 3.471-1.553 4.504s-2.439 1.788-4.217 2.266zm-3.922 17.245 3.922-1.055v-12.807l8.566-2.303c1.539-.414 2.666-.535 3.387-.362 1.26.327 1.936 1.455 2.023 3.386l.303 4.907c.055 1.154.123 1.924.203 2.309.08.386.188.682.32.89l4.754-1.278v-.677c-.592-.111-1.006-.61-1.236-1.497-.143-.518-.232-1.342-.272-2.471l-.15-3.958c-.064-1.714-.383-2.883-.947-3.504-.565-.623-1.406-1.021-2.525-1.196 1.287-1.038 2.287-2.222 3.002-3.554.715-1.331 1.072-2.894 1.072-4.685 0-3.434-1.326-5.428-3.984-5.988-1.402-.288-3.182-.143-5.338.437l-13.1 3.522z"/><path d="m504.81 517.933v3.54l-9.217-4.002v26.344l-3.725-1.617v-26.343l-9.217-4.005v-3.54z"/><path d="m306.926 513.234c84.414 0 152.852-68.439 152.852-152.865 0-84.423-68.438-152.86-152.852-152.86-84.421 0-152.859 68.438-152.859 152.86 0 84.426 68.437 152.865 152.859 152.865z"/></g><path d="m262.139 478.494 40.961-20.633v-47.97l-44.357-33.383-46.718 15.379-2.125 43.017c4.759 8.129 21.138 32.413 52.239 43.59z" fill="#fff"/><path d="m211.835 287.955c-27.587 20.584-32.416 59.298-33.17 68.249l32.335 32.511 47.621-15.675 16.57-52.829-21.038-41.269z" fill="#fff"/><path d="m329.965 318.537 24.074-41.253-22.953-39.274c-4.943-1.528-15.352-4.277-26.253-4.277-11.226 0-21.682 2.925-26.276 4.414l-22.145 37.89 21.666 42.499z" fill="#fff"/><path d="m399.787 434.193-2.086-42.196-46.951-15.458-44.317 33.35v48.028l42.854 16.396-1.117 3.821c31.41-11.698 47.504-36.715 51.617-43.941z" fill="#fff"/><path d="m412.268 253.94-10.023 33.558c26.483 22.068 31.023 60.234 31.715 68.745l21.574 22.662c.75-6.075 1.143-12.26 1.143-18.536-.001-41.63-16.992-79.286-44.409-106.429z" fill="#fff"/><path d="m277.712 234.908c4.878-1.583 15.469-4.508 27.121-4.508 11.493 0 22.202 2.842 27.308 4.437l27.059-14.838c-16.275-6.066-33.887-9.386-52.273-9.386-19.311 0-37.765 3.655-54.713 10.312z" fill="#fff"/><path d="m397.271 287.825-40.494-8.626-22.961 39.345 17.111 54.547 47.715 15.706 32.004-32.183c-.638-8.137-5.197-47.915-33.375-68.789z" fill="#fff"/><path d="m261.514 481.802c-30.924-10.927-47.891-34.404-53.737-43.972l-28.496.885c20.986 34.123 55.27 59.183 95.631 67.975z" fill="#fff"/><path d="m401.508 437.817c-5.885 9.636-23.08 33.43-54.49 44.245l-7.156 24.425c39.91-8.96 73.793-33.849 94.625-67.646z" fill="#fff"/><path d="m175.279 356.751c.55-7.422 4.745-47.074 32.11-69.556l-8.973-30.037c-25.558 26.863-41.247 63.204-41.247 103.211 0 4.944.246 9.832.714 14.654z" fill="#fff"/><path d="m403.253 161.502c0 3.894 3.143 7.046 7.029 7.046 3.891 0 7.039-3.152 7.039-7.046 0-3.882-3.148-7.036-7.039-7.036-3.887 0-7.029 3.154-7.029 7.036z" fill="#0b4a25"/><path d="m406.219 145.037c0 3.895 3.143 7.048 7.03 7.048s7.038-3.152 7.038-7.048c0-3.882-3.15-7.035-7.038-7.035s-7.03 3.153-7.03 7.035z" fill="#0b4a25"/><path d="m406.822 129.354c0 3.893 3.142 7.046 7.03 7.046s7.037-3.153 7.037-7.046c0-3.882-3.149-7.037-7.037-7.037-3.887-.001-7.03 3.155-7.03 7.037z" fill="#0b4a25"/><path d="m398.534 114.436c0 3.896 3.144 7.048 7.03 7.048 3.89 0 7.038-3.152 7.038-7.048 0-3.882-3.148-7.035-7.038-7.035-3.886-.001-7.03 3.153-7.03 7.035z" fill="#0b4a25"/><path d="m383.95 104.492c0 3.895 3.144 7.047 7.03 7.047 3.889 0 7.038-3.152 7.038-7.047 0-3.883-3.15-7.035-7.038-7.035-3.886 0-7.03 3.152-7.03 7.035z" fill="#0b4a25"/><path d="m368.431 99.856c0 3.894 3.143 7.047 7.03 7.047 3.891 0 7.038-3.153 7.038-7.047 0-3.882-3.147-7.036-7.038-7.036-3.887 0-7.03 3.155-7.03 7.036z" fill="#0b4a25"/><path d="m353.515 96.211c0 3.893 3.144 7.046 7.03 7.046 3.889 0 7.038-3.153 7.038-7.046 0-3.883-3.149-7.036-7.038-7.036-3.887 0-7.03 3.153-7.03 7.036z" fill="#0b4a25"/><path d="m338.268 92.564c0 3.894 3.143 7.047 7.029 7.047 3.891 0 7.039-3.153 7.039-7.047 0-3.882-3.148-7.036-7.039-7.036-3.887 0-7.029 3.155-7.029 7.036z" fill="#0b4a25"/><path d="m323.352 88.919c0 3.893 3.142 7.046 7.029 7.046 3.891 0 7.038-3.153 7.038-7.046 0-3.882-3.147-7.037-7.038-7.037-3.887 0-7.029 3.155-7.029 7.037z" fill="#0b4a25"/></svg>