<?xml version="1.0" encoding="iso-8859-1"?>
<!-- Generator: Adobe Illustrator 24.0.1, SVG Export Plug-In . SVG Version: 6.00 Build 0)  -->
<svg version="1.1" id="Layer_1" xmlns="http://www.w3.org/2000/svg" xmlns:xlink="http://www.w3.org/1999/xlink" x="0px" y="0px"
	 viewBox="0 0 612 792" style="enable-background:new 0 0 612 792;" xml:space="preserve">
<path style="fill:#2E3192;" d="M67.766,272.126c-3.037,0.076-8.806,1.595-8.806,11.539c0,5.389,1.291,11.386,7.06,11.386
	c4.251,0,5.39-4.099,6.756-9.868l1.366-5.845c2.05-8.806,4.024-17.308,16.018-17.308c6.073,0,16.776,3.264,16.776,20.951
	c0,16.7-10.932,21.179-17.611,21.255v-10.931c2.429-0.304,8.198-1.215,8.198-11.159c0-4.327-1.594-9.489-6.528-9.489
	c-4.251,0-5.162,3.492-5.693,5.77l-3.264,13.284c-1.822,7.439-4.858,14.271-14.651,14.271c-16.396,0-17.839-16.7-17.839-21.483
	c0-19.889,11.462-23.304,18.219-23.304V272.126z"/>
<path style="fill:#2E3192;" d="M51.223,337.034l-0.234-11.385l54.494-1.119l0.234,11.385L51.223,337.034z"/>
<path style="fill:#2E3192;" d="M109.826,388.688l1.124,10.566l-54.191,5.766L55.554,393.7l36.291-26.226l-0.016-0.151l-38.643,4.112
	l-1.125-10.567l54.191-5.766l1.27,11.925l-35.449,25.526l0.016,0.151L109.826,388.688z"/>
<path style="fill:#2E3192;" d="M66.183,452.771l-2.519-11.104l43.751-9.923l-3.643-16.065l9.401-2.132l9.806,43.233l-9.402,2.132
	l-3.644-16.064L66.183,452.771z"/>
<path style="fill:#2E3192;" d="M112.629,530.683l-9.699-18.824l8.772-4.52l9.698,18.824L112.629,530.683z"/>
<path style="fill:#2E3192;" d="M170.482,585.633l15.748,16.447l-21.217,20.314l-5.249-5.481l4.146-5.548
	c-4.407,0.227-10.857,0.624-17.734-6.559c-9.081-9.484-10.525-24.601,3.291-37.829c10.745-10.289,26.609-14.024,39.258-0.704
	c11.549,12.062,8.276,24.337,3.269,29.973l-7.875-8.224c1.535-1.47,3.792-8.99-1.772-14.801c-5.617-5.866-14.871-7.409-24.958,2.249
	c-10.746,10.289-7.925,18.832-2.57,24.424c1.732,1.809,8.219,7.158,17.796,1.246l-8.767-9.156L170.482,585.633z"/>
<path style="fill:#2E3192;" d="M193.794,645.188l-9.006-6.967l33.345-43.113l9.007,6.967L193.794,645.188z"/>
<path style="fill:#2E3192;" d="M229.192,657.354l23.301,13.833l-5.037,8.485l-33.092-19.647l27.822-46.862l9.79,5.812
	L229.192,657.354z"/>
<path style="fill:#2E3192;" d="M376.587,660.506l23.086-14.189l5.167,8.407l-32.785,20.15l-28.537-46.429l9.7-5.963L376.587,660.506
	z"/>
<path style="fill:#2E3192;" d="M430.978,634.354l-8.893,7.11l-34.031-42.569l8.894-7.109L430.978,634.354z"/>
<path style="fill:#2E3192;" d="M444.065,600.218c2.255,2.035,7.484,4.904,14.328-2.309c3.709-3.909,6.899-9.147,2.715-13.117
	c-3.083-2.926-6.73-0.736-11.692,2.508l-5.014,3.3c-7.547,4.977-14.829,9.786-23.528,1.531c-4.405-4.179-9.922-13.913,2.25-26.742
	c11.493-12.113,22.503-7.84,27.401-3.297l-7.522,7.928c-1.972-1.45-6.783-4.761-13.626,2.452c-2.978,3.139-5.374,7.98-1.796,11.376
	c3.084,2.925,6.148,1.019,8.1-0.267l11.51-7.39c6.441-4.143,13.345-7.008,20.448-0.27c11.894,11.284,1.447,24.391-1.845,27.859
	c-13.686,14.426-24.352,9.016-29.253,4.366L444.065,600.218z"/>
<path style="fill:#2E3192;" d="M500.407,526.94l-10.834,18.198l-8.479-5.047l10.834-18.199L500.407,526.94z"/>
<path style="fill:#2E3192;" d="M477.531,490.708l3.387-11.663c30.595,1.615,34.43,2.018,40.683,2.806l0.042-0.146
	c-5.191-2.536-10.28-4.883-36.15-18.404l3.365-11.59c30.499,2.218,33.416,2.513,40.534,3.315l0.042-0.146
	c-4.703-2.315-8.968-4.502-35.791-19.643l3.218-11.08l48.061,29.926l-3.049,10.496c-27.226-2.059-32.603-2.592-43.169-3.765
	l-0.044,0.146c9.594,4.525,13.13,6.501,38.471,19.947l-2.965,10.205L477.531,490.708z"/>
<path style="fill:#2E3192;" d="M551.673,419.823l-1.73,11.867l-51.127-27.09l1.896-12.995l56.7-11.141l-1.786,12.243l-11.619,1.835
	l-2.902,19.904L551.673,419.823z M532.229,410.085l2.004-13.746l-22.306,3.576l-0.022,0.149L532.229,410.085z"/>
<path style="fill:#2E3192;" d="M558.967,356.925l-0.49,11.983l-53.659-21.643l0.537-13.12l55.238-16.96l-0.506,12.362l-11.367,3.029
	l-0.822,20.098L558.967,356.925z M538.617,349.256l0.568-13.879l-21.815,5.869l-0.006,0.152L538.617,349.256z"/>
<path style="fill:#2E3192;" d="M543.234,294.972c3.036-0.076,8.805-1.594,8.805-11.539c0-5.389-1.29-11.387-7.06-11.387
	c-4.251,0-5.389,4.099-6.756,9.869l-1.366,5.845c-2.05,8.806-4.022,17.308-16.018,17.308c-6.072,0-16.775-3.264-16.775-20.952
	c0-16.7,10.931-21.179,17.61-21.254v10.931c-2.429,0.304-8.198,1.215-8.198,11.159c0,4.327,1.595,9.489,6.529,9.489
	c4.251,0,5.162-3.492,5.692-5.77l3.265-13.284c1.822-7.439,4.858-14.271,14.65-14.271c16.396,0,17.839,16.7,17.839,21.482
	c0,19.889-11.462,23.305-18.218,23.305V294.972z"/>
<path style="fill:#2E3192;" d="M122.404,240.1v80.047c0,60.634,11.531,133.631,35.783,178.604
	c35.164,65.209,96.742,107.772,147.314,128.703c50.571-20.931,112.149-63.494,147.313-128.703
	c24.252-44.973,35.782-117.97,35.782-178.604V240.1H122.404z"/>
<path style="fill:#FFFFFF;" d="M133.445,251.141h344.11v69.006c0,4.903-0.082,9.813-0.227,14.721H133.672
	c-0.145-4.908-0.227-9.818-0.227-14.721V251.141z"/>
<path style="fill:#FFFFFF;" d="M216.021,345.909l195.202,193.198c9.527-10.849,17.965-22.256,25.273-34.164L275.814,345.909H216.021
	z"/>
<path style="fill:#FFFFFF;" d="M141.998,412.893L332.915,601.85c11.21-6.281,23.444-14.054,35.982-23.566L134.112,345.909
	C135.29,368.96,138.006,391.715,141.998,412.893z"/>
<path style="fill:#FFFFFF;" d="M471.371,399.211l-53.854-53.302h-59.793l103.082,102.024
	C465.081,432.94,468.646,416.489,471.371,399.211z"/>
<polygon style="fill:#2E3192;" points="275.814,345.909 436.497,504.943 436.498,504.942 275.815,345.909 "/>
<path style="fill:#2E3192;" d="M139.749,270.816h5.606v19.377h0.075l8.596-19.377h7.1L150.7,292.945l10.464,22.248h-6.989
	l-8.745-19.258h-0.075v19.258h-5.606V270.816z"/>
<path style="fill:#2E3192;" d="M175.37,316.27c-8.97,0-12.035-12.32-12.035-24.761c0-13.396,2.99-21.77,12.035-21.77
	c9.044,0,12.034,8.373,12.034,21.77C187.403,303.949,184.338,316.27,175.37,316.27z M175.37,279.069
	c-4.971,0-6.653,5.981-6.653,12.979c0,7.476,1.309,16.327,6.653,16.327c5.344,0,6.652-8.852,6.652-16.327
	C182.021,285.05,180.34,279.069,175.37,279.069z"/>
<path style="fill:#2E3192;" d="M213.157,315.193h-7.101l-9.044-33.792h-0.075v33.792h-5.381v-44.377h8.371l7.773,29.844h0.074
	v-29.844h5.382V315.193z"/>
<path style="fill:#2E3192;" d="M221.046,308.375c2.167,0,3.139,1.017,3.139,3.947c0,2.931-0.972,3.947-3.139,3.947
	c-2.169,0-3.14-1.017-3.14-3.947C217.906,309.392,218.877,308.375,221.046,308.375z"/>
<path style="fill:#2E3192;" d="M239.436,270.816h18.126v8.971h-12.52v9.748h12.483v8.612h-12.483v17.045h-5.606V270.816z"/>
<path style="fill:#2E3192;" d="M280.4,309.033c-1.943,4.426-4.747,7.237-8.11,7.237c-8.148,0-11.511-11.543-11.511-23.445
	c0-13.756,3.887-23.086,11.511-23.086c3.176,0,5.718,1.495,8.11,5.442v12.141l-0.15-0.18c-1.158-4.426-3.588-7.715-7.1-7.715
	c-6.167,0-6.989,8.852-6.989,14.294c0,8.792,2.84,14.294,6.876,14.294c3.438,0,6.016-4.306,7.362-8.792V309.033z"/>
<path style="fill:#2E3192;" d="M311.088,285.588c-1.495-4.545-3.925-6.878-7.101-6.878c-2.205,0-4.522,1.136-4.522,5.143
	c0,6.818,12.631,3.948,12.631,18.062c0,9.031-3.812,14.354-9.268,14.354c-2.766,0-5.643-1.376-7.923-5.143V300.72
	c1.42,4.964,4.411,7.655,7.512,7.655c2.839,0,4.522-1.495,4.522-4.964c0-8.851-12.856-3.05-12.856-20.155
	c0-8.015,4.148-13.517,9.269-13.517c4.597,0,6.988,3.528,7.736,5.144V285.588z"/>
<path style="fill:#2E3192;" d="M316.285,270.816h11.696c5.943,0,9.045,4.366,9.045,14.533c0,10.107-4.297,15.49-9.642,15.49h-5.493
	v14.354h-5.606V270.816z M321.892,292.945h5.418c1.869,0,4.111-1.675,4.111-6.878c0-6.1-2.616-6.279-5.419-6.279h-4.11V292.945z"/>
<path style="fill:#2E3192;" d="M351.904,316.27c-8.97,0-12.033-12.32-12.033-24.761c0-13.396,2.99-21.77,12.033-21.77
	c9.044,0,12.034,8.373,12.034,21.77C363.938,303.949,360.875,316.27,351.904,316.27z M351.904,279.069
	c-4.971,0-6.651,5.981-6.651,12.979c0,7.476,1.307,16.327,6.651,16.327c5.344,0,6.652-8.852,6.652-16.327
	C358.557,285.05,356.874,279.069,351.904,279.069z"/>
<path style="fill:#2E3192;" d="M373.884,296.114h-0.076v19.079h-5.604v-44.377h12.892c4.261,0,7.587,3.588,7.587,12.08
	c0,9.151-3.177,13.158-8.557,13.039l9.418,19.258h-7.103L373.884,296.114z M373.732,290.313h4.784c2.317,0,4.56-0.837,4.56-5.682
	c0-3.588-1.608-5.204-4.149-5.204h-5.195V290.313z"/>
<path style="fill:#2E3192;" d="M397.917,279.787h-7.138v-8.971h19.882v8.971h-7.138v35.406h-5.606V279.787z"/>
<path style="fill:#2E3192;" d="M413.504,270.816h5.607v44.377h-5.607V270.816z"/>
<path style="fill:#2E3192;" d="M445.797,315.193h-7.102l-9.045-33.792h-0.073v33.792h-5.382v-44.377h8.372l7.772,29.844h0.075
	v-29.844h5.382V315.193z"/>
<path style="fill:#2E3192;" d="M471.25,307.597c-2.914,6.28-5.344,8.672-9.941,8.672c-8.147,0-11.51-11.543-11.51-23.445
	c0-13.756,3.888-23.086,11.51-23.086c5.456,0,7.588,2.99,9.083,5.981v11.663c-1.758-5.682-4.299-8.314-8.297-8.314
	c-4.971,0-6.915,6.459-6.915,14.773c0,7.057,1.532,14.892,6.579,14.892c1.271,0,2.877-0.658,3.887-2.093v-14.055h5.605V307.597z"/>
<path style="fill:#2E3192;" d="M398.293,182.595c0-11.286-13.341-24.152-26.912-24.152c-2.88,0-5.784,0.692-8.333,2.003
	c-5.866-15.58-27.691-9.24-50.248-23.312c3.363-2.321,5.569-6.198,5.569-10.593c0-7.107-5.761-12.869-12.869-12.869
	c-7.107,0-12.869,5.762-12.869,12.869c0,4.395,2.207,8.272,5.569,10.593c-22.557,14.073-44.382,7.732-50.249,23.313
	c-2.548-1.311-5.453-2.003-8.333-2.003c-13.571,0-26.913,12.866-26.913,24.152c-0.263,20.79,18.253,36.89,28.954,44.447
	c-0.885,3.841-2.271,3.268-2.271,7.538c0,1.32,1.068,2.388,2.388,2.388h127.445c1.32,0,2.389-1.068,2.389-2.388
	c0-4.27-1.387-3.697-2.272-7.538C380.04,219.484,398.556,203.385,398.293,182.595z M252.27,215.718
	c-8.357,0-15.338-6.08-21.264-13.899c-4.575-6.037-7.718-13.11-7.718-19.224c0-5.291,9.124-14.031,16.331-14.031
	c6.747,0,5.805,8.43,9.74,17.156c3.222,7.145,10.655,20.491,10.655,24.785C260.014,214.798,256.55,215.718,252.27,215.718z
	 M286.696,213.725c-16.102,0-13.611-8.392-18.095-22.64c-2.044-6.497-6.901-14.212-6.901-22.904c0-6.9,14.207-8.291,24.923-11.113
	c5.41-1.425,9.314-5.561,11.42-4.221c0,4.601-1.993,12.002-1.993,26.836c0,9.354,2.453,12.421,2.453,19.628
	C298.504,207.277,295.744,213.725,286.696,213.725z M342.398,191.084c-4.483,14.249-1.994,22.64-18.095,22.64
	c-9.048,0-11.808-6.447-11.808-14.415c0-7.207,2.453-10.275,2.453-19.628c0-14.833-1.993-22.235-1.993-26.836
	c2.106-1.34,6.01,2.796,11.42,4.221c10.717,2.823,24.923,4.213,24.923,11.113C349.299,176.873,344.442,184.587,342.398,191.084z
	 M358.729,215.718c-4.28,0-7.744-0.92-7.744-5.214c0-4.294,7.434-17.639,10.655-24.785c3.936-8.726,2.992-17.156,9.74-17.156
	c7.207,0,16.332,8.741,16.332,14.031c0,6.113-3.145,13.186-7.719,19.224C374.067,209.638,367.087,215.718,358.729,215.718z"/>
</svg>
