<?xml version="1.0" encoding="iso-8859-1"?>
<!-- Generator: Adobe Illustrator 24.0.1, SVG Export Plug-In . SVG Version: 6.00 Build 0)  -->
<svg version="1.1" id="Layer_1" xmlns="http://www.w3.org/2000/svg" xmlns:xlink="http://www.w3.org/1999/xlink" x="0px" y="0px"
	 viewBox="0 0 612 792" style="enable-background:new 0 0 612 792;" xml:space="preserve">
<rect x="24.937" y="597.286" style="fill:#FCE500;" width="563.393" height="6.949"/>
<path style="fill:#FFFFFF;" d="M489.943,476.992c6.407-3.096,11.503-6.402,15.13-10.047c3.609-3.623,5.816-7.753,5.816-12.216
	c0.004-3.925-1.72-7.622-4.585-10.897c-5.044-5.746-13.631-10.682-25.184-15.168c-34.618-13.352-96.351-22.101-166.942-22.119
	c-8.293,0.001-16.455,0.131-24.475,0.367c0.601-0.939,1.219-1.873,1.854-2.805c15.291-22.447,40.619-42.833,69.376-59.852
	c28.746-17.043,60.867-30.791,89.564-40.511c2.605-0.89,4.276-3.316,4.276-5.965c-0.002-0.484-0.058-0.973-0.17-1.451l-0.001-0.005
	c-0.689-2.873-3.243-4.84-6.125-4.841c-0.288,0-0.591,0.018-0.907,0.065c-66.14,9.366-127.823,22.713-173.587,42.336
	c-22.885,9.832-41.855,21.23-55.413,34.889c-5.081,5.101-9.394,10.577-12.8,16.397L22.331,303.995V317.7l175.293,90.307
	c-0.375,2.538-0.59,5.121-0.639,7.747c-20.44,3.617-37.811,8.158-51.048,13.421c-8.687,3.461-15.611,7.216-20.528,11.376
	c-4.883,4.13-7.928,8.88-7.941,14.179c-0.003,3.922,1.718,7.619,4.585,10.896c5.044,5.744,13.63,10.683,25.183,15.167
	c34.618,13.352,96.35,22.101,166.943,22.119c22.016-0.002,43.175-0.862,62.921-2.444l38.051,19.603h95.475l-65.586-29.02
	C463.456,487.131,478.729,482.396,489.943,476.992z M313.256,475.052c-36.549,0.004-69.646-3.226-93.441-8.398
	c-11.888-2.577-21.46-5.663-27.849-8.952c-3.193-1.635-5.575-3.326-7.039-4.888c-1.479-1.585-1.99-2.887-1.992-4.034
	c-0.011-1.382,0.793-3.085,3.106-5.094c3.057-2.664,8.536-5.438,15.885-7.941c3.811,6.732,9.617,12.513,16.741,16.991
	c13.108,8.305,30.809,12.877,50.983,12.89c1.785,0,3.476-0.753,4.674-2.074c1.054-1.171,1.621-2.675,1.621-4.224
	c0-0.215-0.011-0.426-0.031-0.633c-0.249-2.453-0.372-4.88-0.374-7.283c0-1.078,0.028-2.152,0.077-3.224l51.829,26.702
	C322.783,474.997,318.049,475.053,313.256,475.052z M440.787,453.592c-3.075,2.819-8.921,5.811-16.875,8.448
	c-7.78,2.598-17.581,4.931-28.909,6.869L291.054,422.91c7.217-0.266,14.635-0.403,22.202-0.403
	c36.548-0.004,69.646,3.226,93.439,8.398c11.89,2.579,21.46,5.664,27.85,8.951c3.192,1.636,5.575,3.327,7.039,4.889
	c1.478,1.586,1.99,2.886,1.992,4.034C443.581,450.1,442.865,451.693,440.787,453.592z"/>
<path style="fill:#174888;" d="M508.283,454.729c0-25.172-86.903-45.577-194.104-45.577c-8.863,0-17.577,0.146-26.123,0.418
	c-2.207,3.666-4.14,7.377-5.791,11.133c9.949-0.517,20.313-0.802,30.991-0.802c73.413,0,132.927,12.931,132.927,28.879
	c0,9.285-20.177,17.546-51.518,22.829l-112.826-49.929c-3.273,7.694-5.342,15.579-6.036,23.672l61.77,31.823
	c-7.885,0.316-16.012,0.483-24.317,0.483c-73.414,0-132.926-12.931-132.926-28.879c0-5.648,7.475-10.915,20.376-15.366
	c-2.234-4.633-3.549-9.672-3.731-15.017c-46.724,8.322-76.902,21.499-76.902,36.332c0,25.171,86.904,45.577,194.105,45.577
	c22.223,0,43.567-0.88,63.452-2.494l38.152,19.655h82.512l-61.805-27.35C480.29,481.761,508.283,469.014,508.283,454.729z"/>
<path style="fill:#174888;" d="M24.937,307.997v8.116l173.148,89.202c1.213-6.245,3.388-12.206,6.417-17.856L24.937,307.997z"/>
<path style="fill:#174888;" d="M452.067,296.926c-0.439-1.852-2.221-3.067-4.107-2.801c-66.04,9.345-127.566,22.686-172.95,42.153
	c-22.694,9.746-41.385,21.019-54.59,34.329c-13.197,13.274-20.884,28.84-20.862,46.418c-0.022,13.801,7.955,25.594,20.5,33.508
	c12.572,7.975,29.811,12.478,49.593,12.488c1.041,0,2.041-0.444,2.739-1.217c0.698-0.773,1.037-1.813,0.932-2.85
	c-0.259-2.537-0.385-5.05-0.387-7.539c0.003-17.216,6.032-33.475,16.47-48.775c15.64-22.934,41.246-43.477,70.203-60.625
	c28.948-17.161,61.212-30.965,90.055-40.737C451.467,300.665,452.508,298.779,452.067,296.926z"/>
<path style="fill:#FCE500;" d="M448.478,297.781c-131.728,18.62-245.229,53.334-245.229,119.244
	c0,24.642,27.967,42.306,66.401,42.306C261.861,383.032,368.217,324.982,448.478,297.781z"/>
<path style="fill:#174888;" d="M362.541,188.011c-28.065,0-50.816,22.751-50.818,50.816c0.002,28.065,22.753,50.816,50.818,50.817
	c28.065-0.001,50.815-22.752,50.815-50.817C413.356,210.762,390.605,188.011,362.541,188.011z"/>
<path style="fill:#FFFFFF;" d="M323.813,216.612c0.31-0.777,0.511-1.19,0.563-1.297c0.086-0.127,0.353-0.52,0.813-1.116
	c1.579-2.099,5.334-6.256,9.338-7.338c1.706,1.704,8.272,8.048,16.351,13.072c-0.27,1.455-0.788,4.927-0.788,10.071
	c-0.002,2.012,0.084,4.292,0.29,6.795c-2.163,1.389-10.429,6.733-18.515,12.409c-2.962-1.229-5.77-3.665-7.823-5.876
	c-1.089-1.167-1.973-2.262-2.58-3.061c-0.37-0.487-0.621-0.838-0.771-1.054c-0.108-1.45-0.162-2.857-0.162-4.204
	c0-6.042,0.978-11.001,1.951-14.439C322.966,218.854,323.451,217.515,323.813,216.612z"/>
<path style="fill:#FFFFFF;" d="M339.185,198.985c0.267-0.157,0.837-0.479,1.727-0.92c3.84-1.899,13.251-5.74,26.437-5.74
	c0.76,0,1.535,0.018,2.32,0.045c0.313,0.219,0.634,0.447,0.97,0.69c2.055,1.484,4.446,3.382,6.099,5.133
	c-1.175,1.636-3.982,6.056-7.055,14.44c-8.564,1.113-15.569,4.495-17.549,5.524c-4.493-2.781-8.561-6.026-11.527-8.613
	c-2.23-1.945-3.815-3.492-4.53-4.205C336.711,203.015,337.911,200.815,339.185,198.985z"/>
<path style="fill:#FFFFFF;" d="M402.995,234.08c-0.386,0.553-0.682,0.9-0.882,1.114c-6.048-0.921-11.28-2.238-15.019-3.336
	c-2.888-0.85-4.868-1.563-5.679-1.865c-2.797-6.303-8.334-14.493-9.728-16.523c1.931-5.28,3.745-8.942,5.079-11.272
	c0.69-1.206,1.252-2.057,1.637-2.603c0.103-0.146,0.189-0.264,0.262-0.364c3.705,0.057,7.071,0.723,9.533,1.396
	c1.289,0.352,2.332,0.705,3.046,0.967c0.421,0.154,0.705,0.268,0.881,0.342c0.282,0.313,0.935,1.049,1.834,2.138
	c3.614,4.356,10.954,14.308,12.445,23.326C404.999,230.852,403.809,232.915,402.995,234.08z"/>
<path style="fill:#FFFFFF;" d="M317.463,252.473c2.686,7.082,7.439,13.663,8.787,15.461c-0.18,0.501-0.44,1.305-0.719,2.447
	c-4.423-5.185-7.772-11.304-9.716-18.026C316.297,252.407,316.852,252.451,317.463,252.473z"/>
<path style="fill:#FFFFFF;" d="M336.081,266.428c-0.079-0.206-0.211-0.563-0.395-1.1c-0.842-2.468-2.503-8.153-2.598-14.329
	c8.043-5.645,16.281-10.972,18.45-12.366c1.826,1.043,7.882,4.34,16.327,7.334c0.248,2.464,1.237,11.214,3.73,21.749
	c-0.634,0.642-1.971,1.971-3.718,3.566c-2.358,2.152-5.434,4.745-8.351,6.624c-7.183-1.103-13.063-3.968-17.157-6.591
	c-2.083-1.337-3.702-2.605-4.796-3.535C336.8,267.122,336.308,266.651,336.081,266.428z"/>
<path style="fill:#FFFFFF;" d="M390.585,270.115c-0.451,0.315-0.806,0.543-1.041,0.69c-0.042,0.025-0.075,0.045-0.108,0.065
	c-6.165-0.029-10.182-0.971-12.63-1.883c-1.244-0.462-2.085-0.918-2.602-1.245c-0.196-0.123-0.333-0.22-0.44-0.3
	c-1.462-6.136-2.411-11.689-2.993-15.723c-0.439-3.045-0.669-5.211-0.76-6.134c1.398-1.413,6.605-6.827,11.021-13.419
	c2.479,0.902,10.371,3.585,20.646,5.161c0.337,0.901,1.016,2.795,1.699,5.184c0.938,3.273,1.86,7.446,1.903,11.063
	c-3.876,6.411-7.897,10.771-10.945,13.526C392.787,268.496,391.488,269.483,390.585,270.115z"/>
<path style="fill:#FFFFFF;" d="M409.765,227.148c-0.393-0.171-0.822-0.336-1.287-0.484c-1.545-8.285-7.163-16.688-11.047-21.716
	C403.339,211.032,407.668,218.646,409.765,227.148z"/>
<path style="fill:#FFFFFF;" d="M364.249,190.226c-9.761,0.437-17.25,2.84-21.718,4.718c0.011-0.01,0.023-0.024,0.033-0.034
	c0.403-0.41,0.687-0.675,0.836-0.813c5.874-2.517,12.342-3.914,19.141-3.914C363.113,190.183,363.681,190.207,364.249,190.226z"/>
<path style="fill:#FFFFFF;" d="M320.914,213.645c0.427,0.581,0.861,1.059,1.202,1.396c-0.98,2.255-3.759,9.562-3.761,19.971
	c0,1.434,0.057,2.927,0.176,4.472c-0.223,0.889-1.255,5.281-1.386,10.801c-0.786-0.045-1.462-0.127-1.926-0.197
	c-0.857-3.616-1.323-7.382-1.323-11.26C313.896,229.606,316.46,220.99,320.914,213.645z"/>
<path style="fill:#FFFFFF;" d="M328.143,273.225c-0.281-0.28-0.548-0.574-0.821-0.861c0.267-1.346,0.543-2.375,0.757-3.06
	c0.059-0.185,0.111-0.343,0.159-0.482c1.131-0.047,3.48-0.192,6.542-0.634c1.948,1.857,10.848,9.73,24.283,11.85
	c1.789,3.332,4.247,5.832,6.036,7.366c-0.848,0.043-1.7,0.067-2.558,0.067C349.102,287.472,336.949,282.029,328.143,273.225z"/>
<path style="fill:#FFFFFF;" d="M396.938,273.225c-2.743,2.742-5.811,5.157-9.143,7.185c1.14-2.141,2.409-4.987,2.911-7.771
	c1.898-1.18,9.419-6.343,16.426-17.939c0.346-0.172,0.961-0.488,1.639-0.873c0.02-0.012,0.039-0.023,0.059-0.035
	C406.435,261.204,402.319,267.842,396.938,273.225z"/>
<path style="fill:#174888;" d="M30.672,556.736h-5.735v-8.407h5.735v-19.182h8.864v19.182h3.286l16.127-19.182h11.08l-18.495,21.169
	l19.182,26.826h-11.31L45.42,556.736h-5.884v20.405h-8.864V556.736z"/>
<path style="fill:#174888;" d="M77.394,556.736H71.66v-8.407h5.734v-19.182h36.837v8.406H86.259v10.776h19.487v8.407H86.259v20.405
	h-8.865V556.736z"/>
<path style="fill:#174888;" d="M161.79,568.276c-5.349,6.724-12.841,9.859-20.483,9.859c-14.369,0-25.754-10.929-25.754-24.992
	c0-14.062,11.385-24.991,25.754-24.991c7.642,0,15.134,3.133,20.483,9.859l-7.337,5.502c-3.059-4.432-7.719-6.954-13.146-6.954
	c-8.634,0-16.432,7.261-16.432,16.584c0,9.324,7.797,16.584,16.432,16.584c5.427,0,10.243-2.522,13.299-6.649L161.79,568.276z"/>
<path style="fill:#174888;" d="M191.176,529.146h20.253c16.201,0,25.757,11.31,25.757,23.997c0,12.688-9.938,23.998-25.757,23.998
	h-20.253V529.146z M200.04,568.734h11.388c10.317,0,16.889-7.106,16.889-15.59c0-8.483-6.572-15.591-16.889-15.591H200.04V568.734z"
	/>
<path style="fill:#174888;" d="M280.243,569.117c-4.431,5.579-10.548,8.942-17.194,9.018c-12.919,0-20.408-9.706-20.408-19.489
	c0-9.783,7.489-19.489,20.408-19.489c7.717,0,19.183,6.343,19.183,20.788v1.452h-30.723c0.457,5.657,5.731,9.707,11.311,9.707
	c4.278,0,7.947-2.063,10.7-5.732L280.243,569.117z M272.906,554.826c-1.68-5.657-5.884-8.638-10.928-8.638
	c-5.044,0-9.173,3.133-10.47,8.638H272.906z"/>
<path style="fill:#174888;" d="M312.531,556.736h-5.735v-8.407h5.735v-19.182h8.864v19.182h3.286l16.127-19.182h11.08
	l-18.495,21.169l19.183,26.826h-11.311l-13.986-20.405h-5.884v20.405h-8.864V556.736z"/>
<path style="fill:#174888;" d="M392.879,569.117c-4.431,5.579-10.548,8.942-17.194,9.018c-12.919,0-20.408-9.706-20.408-19.489
	c0-9.783,7.489-19.489,20.408-19.489c7.717,0,19.183,6.343,19.183,20.788v1.452h-30.723c0.458,5.657,5.731,9.707,11.311,9.707
	c4.278,0,7.947-2.063,10.7-5.732L392.879,569.117z M385.542,554.826c-1.68-5.657-5.884-8.638-10.928-8.638
	c-5.043,0-9.173,3.133-10.47,8.638H385.542z"/>
<path style="fill:#174888;" d="M402.839,553.984c0-9.4,6.267-14.826,13.529-14.826c5.579,0,9.63,2.674,11.08,6.573h0.152
	c1.453-3.898,5.504-6.573,11.083-6.573c7.259,0,13.526,5.426,13.526,14.826v23.157h-7.947V554.06c0-4.432-2.829-6.954-6.114-6.954
	c-3.821,0-6.649,2.293-6.649,8.024v22.011h-7.947V555.13c0-5.731-2.828-8.024-6.649-8.024c-3.289,0-6.114,2.522-6.114,6.954v23.081
	h-7.95V553.984z"/>
<path style="fill:#174888;" d="M470.28,544.66h0.153c2.828-3.516,7.107-5.502,12.15-5.502c12.153,0,19.182,9.935,19.182,19.489
	c0,9.095-7.564,19.489-19.565,19.489c-5.501,0-9.705-2.369-11.768-5.502h-0.153v17.272h-7.95v-49.753h7.95V544.66z M481.591,546.647
	c-6.267,0-11.618,5.35-11.618,12c0,6.649,5.352,11.998,11.618,11.998c6.419,0,11.771-5.349,11.771-11.998
	C493.362,551.997,488.01,546.647,481.591,546.647z"/>
<path style="fill:#174888;" d="M544.589,569.117c-4.431,5.579-10.548,8.942-17.194,9.018c-12.919,0-20.408-9.706-20.408-19.489
	c0-9.783,7.489-19.489,20.408-19.489c7.717,0,19.183,6.343,19.183,20.788v1.452h-30.723c0.458,5.657,5.731,9.707,11.31,9.707
	c4.278,0,7.947-2.063,10.7-5.732L544.589,569.117z M537.252,554.826c-1.68-5.657-5.884-8.638-10.928-8.638
	c-5.043,0-9.173,3.133-10.47,8.638H537.252z"/>
<path style="fill:#174888;" d="M554.549,540.152h7.95v4.661h0.152c2.215-3.438,6.267-5.655,11.311-5.655
	c7.794,0,14.369,6.495,14.369,15.668v22.316h-7.95v-20.559c0-6.726-3.516-9.476-8.787-9.476c-5.122,0-9.095,3.286-9.095,9.324
	v20.712h-7.95V540.152z"/>
</svg>
