<svg enable-background="new 0 0 612 792" viewBox="0 0 612 792" xmlns="http://www.w3.org/2000/svg"><g fill="#2e3192"><path d="m67.766 272.126c-3.037.076-8.806 1.595-8.806 11.539 0 5.389 1.291 11.386 7.06 11.386 4.251 0 5.39-4.099 6.756-9.868l1.366-5.845c2.05-8.806 4.024-17.308 16.018-17.308 6.073 0 16.776 3.264 16.776 20.951 0 16.7-10.932 21.179-17.611 21.255v-10.931c2.429-.304 8.198-1.215 8.198-11.159 0-4.327-1.594-9.489-6.528-9.489-4.251 0-5.162 3.492-5.693 5.77l-3.264 13.284c-1.822 7.439-4.858 14.271-14.651 14.271-16.396 0-17.839-16.7-17.839-21.483 0-19.889 11.462-23.304 18.219-23.304v10.931z"/><path d="m51.223 337.034-.234-11.385 54.494-1.119.234 11.385z"/><path d="m109.826 388.688 1.124 10.566-54.191 5.766-1.205-11.32 36.291-26.226-.016-.151-38.643 4.112-1.125-10.567 54.191-5.766 1.27 11.925-35.449 25.526.016.151z"/><path d="m66.183 452.771-2.519-11.104 43.751-9.923-3.643-16.065 9.401-2.132 9.806 43.233-9.402 2.132-3.644-16.064z"/><path d="m112.629 530.683-9.699-18.824 8.772-4.52 9.698 18.824z"/><path d="m170.482 585.633 15.748 16.447-21.217 20.314-5.249-5.481 4.146-5.548c-4.407.227-10.857.624-17.734-6.559-9.081-9.484-10.525-24.601 3.291-37.829 10.745-10.289 26.609-14.024 39.258-.704 11.549 12.062 8.276 24.337 3.269 29.973l-7.875-8.224c1.535-1.47 3.792-8.99-1.772-14.801-5.617-5.866-14.871-7.409-24.958 2.249-10.746 10.289-7.925 18.832-2.57 24.424 1.732 1.809 8.219 7.158 17.796 1.246l-8.767-9.156z"/><path d="m193.794 645.188-9.006-6.967 33.345-43.113 9.007 6.967z"/><path d="m229.192 657.354 23.301 13.833-5.037 8.485-33.092-19.647 27.822-46.862 9.79 5.812z"/><path d="m376.587 660.506 23.086-14.189 5.167 8.407-32.785 20.15-28.537-46.429 9.7-5.963z"/><path d="m430.978 634.354-8.893 7.11-34.031-42.569 8.894-7.109z"/><path d="m444.065 600.218c2.255 2.035 7.484 4.904 14.328-2.309 3.709-3.909 6.899-9.147 2.715-13.117-3.083-2.926-6.73-.736-11.692 2.508l-5.014 3.3c-7.547 4.977-14.829 9.786-23.528 1.531-4.405-4.179-9.922-13.913 2.25-26.742 11.493-12.113 22.503-7.84 27.401-3.297l-7.522 7.928c-1.972-1.45-6.783-4.761-13.626 2.452-2.978 3.139-5.374 7.98-1.796 11.376 3.084 2.925 6.148 1.019 8.1-.267l11.51-7.39c6.441-4.143 13.345-7.008 20.448-.27 11.894 11.284 1.447 24.391-1.845 27.859-13.686 14.426-24.352 9.016-29.253 4.366z"/><path d="m500.407 526.94-10.834 18.198-8.479-5.047 10.834-18.199z"/><path d="m477.531 490.708 3.387-11.663c30.595 1.615 34.43 2.018 40.683 2.806l.042-.146c-5.191-2.536-10.28-4.883-36.15-18.404l3.365-11.59c30.499 2.218 33.416 2.513 40.534 3.315l.042-.146c-4.703-2.315-8.968-4.502-35.791-19.643l3.218-11.08 48.061 29.926-3.049 10.496c-27.226-2.059-32.603-2.592-43.169-3.765l-.044.146c9.594 4.525 13.13 6.501 38.471 19.947l-2.965 10.205z"/><path d="m551.673 419.823-1.73 11.867-51.127-27.09 1.896-12.995 56.7-11.141-1.786 12.243-11.619 1.835-2.902 19.904zm-19.444-9.738 2.004-13.746-22.306 3.576-.022.149z"/><path d="m558.967 356.925-.49 11.983-53.659-21.643.537-13.12 55.238-16.96-.506 12.362-11.367 3.029-.822 20.098zm-20.35-7.669.568-13.879-21.815 5.869-.006.152z"/><path d="m543.234 294.972c3.036-.076 8.805-1.594 8.805-11.539 0-5.389-1.29-11.387-7.06-11.387-4.251 0-5.389 4.099-6.756 9.869l-1.366 5.845c-2.05 8.806-4.022 17.308-16.018 17.308-6.072 0-16.775-3.264-16.775-20.952 0-16.7 10.931-21.179 17.61-21.254v10.931c-2.429.304-8.198 1.215-8.198 11.159 0 4.327 1.595 9.489 6.529 9.489 4.251 0 5.162-3.492 5.692-5.77l3.265-13.284c1.822-7.439 4.858-14.271 14.65-14.271 16.396 0 17.839 16.7 17.839 21.482 0 19.889-11.462 23.305-18.218 23.305v-10.931z"/><path d="m122.404 240.1v80.047c0 60.634 11.531 133.631 35.783 178.604 35.164 65.209 96.742 107.772 147.314 128.703 50.571-20.931 112.149-63.494 147.313-128.703 24.252-44.973 35.782-117.97 35.782-178.604v-80.047z"/></g><path d="m133.445 251.141h344.11v69.006c0 4.903-.082 9.813-.227 14.721h-343.656c-.145-4.908-.227-9.818-.227-14.721z" fill="#fff"/><path d="m216.021 345.909 195.202 193.198c9.527-10.849 17.965-22.256 25.273-34.164l-160.682-159.034z" fill="#fff"/><path d="m141.998 412.893 190.917 188.957c11.21-6.281 23.444-14.054 35.982-23.566l-234.785-232.375c1.178 23.051 3.894 45.806 7.886 66.984z" fill="#fff"/><path d="m471.371 399.211-53.854-53.302h-59.793l103.082 102.024c4.275-14.993 7.84-31.444 10.565-48.722z" fill="#fff"/><path d="m275.814 345.909 160.683 159.034.001-.001-160.683-159.033z" fill="#2e3192"/><path d="m139.749 270.816h5.606v19.377h.075l8.596-19.377h7.1l-10.426 22.129 10.464 22.248h-6.989l-8.745-19.258h-.075v19.258h-5.606z" fill="#2e3192"/><path d="m175.37 316.27c-8.97 0-12.035-12.32-12.035-24.761 0-13.396 2.99-21.77 12.035-21.77 9.044 0 12.034 8.373 12.034 21.77-.001 12.44-3.066 24.761-12.034 24.761zm0-37.201c-4.971 0-6.653 5.981-6.653 12.979 0 7.476 1.309 16.327 6.653 16.327s6.652-8.852 6.652-16.327c-.001-6.998-1.682-12.979-6.652-12.979z" fill="#2e3192"/><path d="m213.157 315.193h-7.101l-9.044-33.792h-.075v33.792h-5.381v-44.377h8.371l7.773 29.844h.074v-29.844h5.382v44.377z" fill="#2e3192"/><path d="m221.046 308.375c2.167 0 3.139 1.017 3.139 3.947 0 2.931-.972 3.947-3.139 3.947-2.169 0-3.14-1.017-3.14-3.947s.971-3.947 3.14-3.947z" fill="#2e3192"/><path d="m239.436 270.816h18.126v8.971h-12.52v9.748h12.483v8.612h-12.483v17.045h-5.606z" fill="#2e3192"/><path d="m280.4 309.033c-1.943 4.426-4.747 7.237-8.11 7.237-8.148 0-11.511-11.543-11.511-23.445 0-13.756 3.887-23.086 11.511-23.086 3.176 0 5.718 1.495 8.11 5.442v12.141l-.15-.18c-1.158-4.426-3.588-7.715-7.1-7.715-6.167 0-6.989 8.852-6.989 14.294 0 8.792 2.84 14.294 6.876 14.294 3.438 0 6.016-4.306 7.362-8.792v9.81z" fill="#2e3192"/><path d="m311.088 285.588c-1.495-4.545-3.925-6.878-7.101-6.878-2.205 0-4.522 1.136-4.522 5.143 0 6.818 12.631 3.948 12.631 18.062 0 9.031-3.812 14.354-9.268 14.354-2.766 0-5.643-1.376-7.923-5.143v-10.406c1.42 4.964 4.411 7.655 7.512 7.655 2.839 0 4.522-1.495 4.522-4.964 0-8.851-12.856-3.05-12.856-20.155 0-8.015 4.148-13.517 9.269-13.517 4.597 0 6.988 3.528 7.736 5.144z" fill="#2e3192"/><path d="m316.285 270.816h11.696c5.943 0 9.045 4.366 9.045 14.533 0 10.107-4.297 15.49-9.642 15.49h-5.493v14.354h-5.606zm5.607 22.129h5.418c1.869 0 4.111-1.675 4.111-6.878 0-6.1-2.616-6.279-5.419-6.279h-4.11z" fill="#2e3192"/><path d="m351.904 316.27c-8.97 0-12.033-12.32-12.033-24.761 0-13.396 2.99-21.77 12.033-21.77 9.044 0 12.034 8.373 12.034 21.77 0 12.44-3.063 24.761-12.034 24.761zm0-37.201c-4.971 0-6.651 5.981-6.651 12.979 0 7.476 1.307 16.327 6.651 16.327s6.652-8.852 6.652-16.327c.001-6.998-1.682-12.979-6.652-12.979z" fill="#2e3192"/><path d="m373.884 296.114h-.076v19.079h-5.604v-44.377h12.892c4.261 0 7.587 3.588 7.587 12.08 0 9.151-3.177 13.158-8.557 13.039l9.418 19.258h-7.103zm-.152-5.801h4.784c2.317 0 4.56-.837 4.56-5.682 0-3.588-1.608-5.204-4.149-5.204h-5.195z" fill="#2e3192"/><path d="m397.917 279.787h-7.138v-8.971h19.882v8.971h-7.138v35.406h-5.606z" fill="#2e3192"/><path d="m413.504 270.816h5.607v44.377h-5.607z" fill="#2e3192"/><path d="m445.797 315.193h-7.102l-9.045-33.792h-.073v33.792h-5.382v-44.377h8.372l7.772 29.844h.075v-29.844h5.382v44.377z" fill="#2e3192"/><path d="m471.25 307.597c-2.914 6.28-5.344 8.672-9.941 8.672-8.147 0-11.51-11.543-11.51-23.445 0-13.756 3.888-23.086 11.51-23.086 5.456 0 7.588 2.99 9.083 5.981v11.663c-1.758-5.682-4.299-8.314-8.297-8.314-4.971 0-6.915 6.459-6.915 14.773 0 7.057 1.532 14.892 6.579 14.892 1.271 0 2.877-.658 3.887-2.093v-14.055h5.605v15.012z" fill="#2e3192"/><path d="m398.293 182.595c0-11.286-13.341-24.152-26.912-24.152-2.88 0-5.784.692-8.333 2.003-5.866-15.58-27.691-9.24-50.248-23.312 3.363-2.321 5.569-6.198 5.569-10.593 0-7.107-5.761-12.869-12.869-12.869-7.107 0-12.869 5.762-12.869 12.869 0 4.395 2.207 8.272 5.569 10.593-22.557 14.073-44.382 7.732-50.249 23.313-2.548-1.311-5.453-2.003-8.333-2.003-13.571 0-26.913 12.866-26.913 24.152-.263 20.79 18.253 36.89 28.954 44.447-.885 3.841-2.271 3.268-2.271 7.538 0 1.32 1.068 2.388 2.388 2.388h127.445c1.32 0 2.389-1.068 2.389-2.388 0-4.27-1.387-3.697-2.272-7.538 10.702-7.559 29.218-23.658 28.955-44.448zm-146.023 33.123c-8.357 0-15.338-6.08-21.264-13.899-4.575-6.037-7.718-13.11-7.718-19.224 0-5.291 9.124-14.031 16.331-14.031 6.747 0 5.805 8.43 9.74 17.156 3.222 7.145 10.655 20.491 10.655 24.785 0 4.293-3.464 5.213-7.744 5.213zm34.426-1.993c-16.102 0-13.611-8.392-18.095-22.64-2.044-6.497-6.901-14.212-6.901-22.904 0-6.9 14.207-8.291 24.923-11.113 5.41-1.425 9.314-5.561 11.42-4.221 0 4.601-1.993 12.002-1.993 26.836 0 9.354 2.453 12.421 2.453 19.628.001 7.966-2.759 14.414-11.807 14.414zm55.702-22.641c-4.483 14.249-1.994 22.64-18.095 22.64-9.048 0-11.808-6.447-11.808-14.415 0-7.207 2.453-10.275 2.453-19.628 0-14.833-1.993-22.235-1.993-26.836 2.106-1.34 6.01 2.796 11.42 4.221 10.717 2.823 24.923 4.213 24.923 11.113.001 8.694-4.856 16.408-6.9 22.905zm16.331 24.634c-4.28 0-7.744-.92-7.744-5.214s7.434-17.639 10.655-24.785c3.936-8.726 2.992-17.156 9.74-17.156 7.207 0 16.332 8.741 16.332 14.031 0 6.113-3.145 13.186-7.719 19.224-5.926 7.82-12.906 13.9-21.264 13.9z" fill="#2e3192"/></svg>