<?xml version="1.0" encoding="iso-8859-1"?>
<!-- Generator: Adobe Illustrator 24.0.1, SVG Export Plug-In . SVG Version: 6.00 Build 0)  -->
<svg version="1.1" id="Layer_1" xmlns="http://www.w3.org/2000/svg" xmlns:xlink="http://www.w3.org/1999/xlink" x="0px" y="0px"
	 viewBox="0 0 612 792" style="enable-background:new 0 0 612 792;" xml:space="preserve">
<circle style="fill:#F8D829;" cx="306" cy="119.5" r="11.75"/>
<path style="fill:#F8D829;" d="M359,264.5V256h-4v-3.5h4V244h-4v-3.5h4V232h-4c0,0,36.167-62.833,36.167-74.833
	c0-11.792-9.243-21.333-20.667-21.333c-14.647,0-21.014,9-21.014,9s-7.652-10-23.652-10c-10.963,0-19.834,7.666-19.834,7.666
	s-8.871-7.666-19.834-7.666c-16,0-23.652,10-23.652,10s-6.367-9-21.014-9c-11.424,0-20.667,9.541-20.667,21.333
	C220.833,169.167,257,232,257,232h-4v8.5h4v3.5h-4v8.5h4v3.5h-4v8.5h-83.5v312.255L306,683.5l136.5-106.745V264.5H359z
	 M257.5,215.167c0,0-21-42.333-21-53.333c0-4.791,3.578-8.667,8-8.667c13.666,0,30.666,62,30.666,62H257.5z M279.5,215.167
	c-5-37.586-7-68,6.333-68c12.333,0,16.198,29.135,18.667,68H279.5z M332.5,215.167h-25c2.469-38.865,6.334-68,18.667-68
	C339.5,147.167,337.5,177.581,332.5,215.167z M336.834,215.167c0,0,17-62,30.666-62c4.422,0,8,3.876,8,8.667
	c0,11-21,53.333-21,53.333H336.834z"/>
<path style="fill:#376FB7;" d="M432.5,274.5c0,5.566,0,34.041,0,71.333h-253c0-37.293,0-65.768,0-71.333
	C197.356,274.5,414.645,274.5,432.5,274.5z"/>
<path style="fill:#376FB7;" d="M169.192,668.08h4.71v8.88l8.37-8.88h5.88l-8.37,8.46l9.18,12.96h-5.91l-6.45-9.63l-2.7,2.729v6.9
	h-4.71V668.08z"/>
<path style="fill:#376FB7;" d="M191.331,684.88h4.711v4.62h-4.711V684.88z"/>
<path style="fill:#376FB7;" d="M200.691,668.08h10.08c4.08,0,6.84,1.319,6.84,5.31c0,2.101-1.05,3.57-2.91,4.471
	c2.61,0.75,3.93,2.76,3.93,5.43c0,4.35-3.69,6.21-7.56,6.21h-10.38V668.08z M205.402,676.75h4.77c1.65,0,2.88-0.75,2.88-2.55
	c0-2.04-1.56-2.46-3.24-2.46h-4.41V676.75z M205.402,685.84h5.04c1.86,0,3.48-0.6,3.48-2.82c0-2.189-1.38-3.06-3.39-3.06h-5.13
	V685.84z"/>
<path style="fill:#376FB7;" d="M222.291,684.88h4.711v4.62h-4.711V684.88z"/>
<path style="fill:#376FB7;" d="M241.612,689.5h-5.31l-6.96-21.42h4.86l4.77,15.06h0.06l4.83-15.06h4.86L241.612,689.5z"/>
<path style="fill:#376FB7;" d="M247.161,684.88h4.711v4.62h-4.711V684.88z"/>
<path style="fill:#376FB7;" d="M256.521,668.08h10.08c4.08,0,6.84,1.319,6.84,5.31c0,2.101-1.05,3.57-2.91,4.471
	c2.61,0.75,3.93,2.76,3.93,5.43c0,4.35-3.69,6.21-7.56,6.21h-10.38V668.08z M261.231,676.75h4.77c1.65,0,2.88-0.75,2.88-2.55
	c0-2.04-1.56-2.46-3.24-2.46h-4.41V676.75z M261.231,685.84h5.04c1.86,0,3.48-0.6,3.48-2.82c0-2.189-1.38-3.06-3.39-3.06h-5.13
	V685.84z"/>
<path style="fill:#376FB7;" d="M344.859,668.58h4.68l8.939,14.37h0.061v-14.37h4.41V690h-4.711l-8.91-14.34h-0.059V690h-4.41V668.58
	z"/>
<path style="fill:#376FB7;" d="M367.088,674.49h4.051v2.88h0.06c0.779-1.95,2.879-3.3,4.949-3.3c0.301,0,0.66,0.06,0.93,0.149v3.96
	c-0.391-0.09-1.02-0.149-1.529-0.149c-3.121,0-4.201,2.25-4.201,4.98V690h-4.26V674.49z"/>
<path style="fill:#376FB7;" d="M376.629,685.38h4.709V690h-4.709V685.38z"/>
<path style="fill:#376FB7;" d="M393.52,677.07c-0.15-4.801,2.58-8.49,7.619-8.49c3.84,0,7.199,2.46,7.199,6.569
	c0,3.15-1.68,4.891-3.75,6.36c-2.068,1.47-4.529,2.67-6.059,4.83h9.93V690h-15.42c0.029-4.86,3-6.93,6.629-9.39
	c1.861-1.261,4.381-2.551,4.41-5.131c0-1.979-1.32-3.239-3.148-3.239c-2.521,0-3.33,2.609-3.33,4.83H393.52z"/>
<path style="fill:#376FB7;" d="M410.648,677.07c-0.15-4.801,2.58-8.49,7.621-8.49c3.84,0,7.199,2.46,7.199,6.569
	c0,3.15-1.68,4.891-3.75,6.36c-2.07,1.47-4.529,2.67-6.061,4.83h9.93V690h-15.42c0.031-4.86,3-6.93,6.631-9.39
	c1.859-1.261,4.379-2.551,4.41-5.131c0-1.979-1.32-3.239-3.15-3.239c-2.52,0-3.33,2.609-3.33,4.83H410.648z"/>
<path style="fill:#376FB7;" d="M441.668,672.51h-8.67l-0.84,4.77l0.061,0.06c1.141-1.17,2.459-1.62,4.109-1.62
	c4.141,0,6.48,3.21,6.48,7.141c0,4.319-3.57,7.649-7.801,7.56c-4.08,0-7.74-2.25-7.799-6.66h4.26c0.209,1.86,1.59,3.15,3.449,3.15
	c2.221,0,3.631-1.95,3.631-4.05c0-2.19-1.35-3.931-3.631-3.931c-1.529,0-2.369,0.54-3.209,1.681h-3.84l2.07-11.61h11.729V672.51z"/>
<path style="fill:#F8D829;" d="M196.242,319.767c0,7.6,5.92,10.56,12.64,10.56c4.4,0,11.12-1.28,11.12-7.12
	c0-6.16-8.561-7.2-16.96-9.44c-8.481-2.24-17.04-5.52-17.04-16.24c0-11.68,11.04-17.28,21.36-17.28c11.92,0,22.88,5.2,22.88,18.4
	h-12.16c-0.4-6.88-5.28-8.64-11.28-8.64c-4,0-8.64,1.68-8.64,6.48c0,4.4,2.72,4.96,17.04,8.64c4.16,1.04,16.96,3.68,16.96,16.64
	c0,10.48-8.24,18.32-23.761,18.32c-12.64,0-24.48-6.24-24.319-20.32H196.242z"/>
<path style="fill:#F8D829;" d="M246.881,326.407h12.56v12.32h-12.56V326.407z"/>
<path style="fill:#F8D829;" d="M304.401,338.727h-14.16l-18.56-57.12h12.961l12.72,40.16h0.16l12.88-40.16h12.96L304.401,338.727z"
	/>
<path style="fill:#F8D829;" d="M325.2,326.407h12.56v12.32H325.2V326.407z"/>
<path style="fill:#F8D829;" d="M364.721,319.767c0,7.6,5.92,10.56,12.64,10.56c4.4,0,11.12-1.28,11.12-7.12
	c0-6.16-8.56-7.2-16.96-9.44c-8.479-2.24-17.04-5.52-17.04-16.24c0-11.68,11.04-17.28,21.36-17.28c11.92,0,22.88,5.2,22.88,18.4
	h-12.16c-0.4-6.88-5.28-8.64-11.28-8.64c-4,0-8.64,1.68-8.64,6.48c0,4.4,2.72,4.96,17.04,8.64c4.16,1.04,16.96,3.68,16.96,16.64
	c0,10.48-8.24,18.32-23.76,18.32c-12.641,0-24.48-6.24-24.32-20.32H364.721z"/>
<path style="fill:#F8D829;" d="M415.359,326.407h12.561v12.32h-12.561V326.407z"/>
<path style="fill:#376FB7;" d="M187.308,259.434h-7.952V234.01H169.5v-5.992c5.544,0.112,10.64-1.792,11.48-7.784h6.328V259.434z"/>
<path style="fill:#376FB7;" d="M205.9,249.354c0.504,2.632,2.519,4.872,5.264,4.872c5.768,0,7.28-7.561,7.504-11.928l-0.112-0.112
	c-2.184,3.08-5.04,4.368-8.848,4.368c-3.36,0-6.776-1.568-9.016-4.032c-2.072-2.408-3.024-5.656-3.024-8.736
	c0-8.008,5.544-14.336,13.72-14.336c11.872,0,15.064,10.36,15.064,20.272c0,9.576-4.256,20.496-15.4,20.496
	c-6.776,0-11.816-3.977-12.712-10.864H205.9z M217.939,233.281c0-3.64-2.352-7.279-6.328-7.279c-3.808,0-5.992,3.64-5.992,7.168
	c0,3.695,1.904,7.392,5.992,7.392C215.868,240.562,217.939,237.146,217.939,233.281z"/>
<path style="fill:#376FB7;" d="M383.477,235.69c-0.28-8.96,4.816-15.848,14.224-15.848c7.168,0,13.44,4.592,13.44,12.264
	c0,5.88-3.137,9.128-7,11.872c-3.864,2.744-8.457,4.984-11.313,9.016h18.536v6.832H382.58c0.057-9.071,5.6-12.936,12.376-17.527
	c3.472-2.353,8.177-4.761,8.231-9.576c0-3.696-2.463-6.048-5.879-6.048c-4.704,0-6.217,4.872-6.217,9.016H383.477z"/>
<path style="fill:#376FB7;" d="M414.611,235.69c-0.279-8.96,4.816-15.848,14.225-15.848c7.168,0,13.44,4.592,13.44,12.264
	c0,5.88-3.135,9.128-7,11.872c-3.863,2.744-8.455,4.984-11.311,9.016H442.5v6.832h-28.784c0.056-9.071,5.601-12.936,12.376-17.527
	c3.473-2.353,8.176-4.761,8.232-9.576c0-3.696-2.465-6.048-5.881-6.048c-4.703,0-6.215,4.872-6.215,9.016H414.611z"/>
<rect x="334.25" y="233.75" style="fill:#FFFFFF;" width="8.5" height="8.5"/>
<rect x="308.25" y="233.75" style="fill:#FFFFFF;" width="8.5" height="8.5"/>
<rect x="321.25" y="233.75" style="fill:#FFFFFF;" width="8.5" height="8.5"/>
<rect x="269.25" y="233.75" style="fill:#FFFFFF;" width="8.5" height="8.5"/>
<rect x="295.25" y="233.75" style="fill:#FFFFFF;" width="8.5" height="8.5"/>
<rect x="282.25" y="233.75" style="fill:#FFFFFF;" width="8.5" height="8.5"/>
<rect x="334.25" y="247.25" style="fill:#FFFFFF;" width="8.5" height="8.5"/>
<rect x="308.25" y="247.25" style="fill:#FFFFFF;" width="8.5" height="8.5"/>
<rect x="321.25" y="247.25" style="fill:#FFFFFF;" width="8.5" height="8.5"/>
<rect x="269.25" y="247.25" style="fill:#FFFFFF;" width="8.5" height="8.5"/>
<rect x="295.25" y="247.25" style="fill:#FFFFFF;" width="8.5" height="8.5"/>
<rect x="282.25" y="247.25" style="fill:#FFFFFF;" width="8.5" height="8.5"/>
<path style="fill:#376FB7;" d="M285.864,219.842h8.792v16.576l15.624-16.576h10.977l-15.624,15.792l17.136,24.191h-11.031
	l-12.04-17.976l-5.04,5.096v12.88h-8.792V219.842z"/>
<path style="fill:#376FB7;" d="M325.791,251.201h8.792v8.624h-8.792V251.201z"/>
<path style="fill:#376FB7;" d="M336.5,359.833v287.121c7.11-5.56,14.952-11.693,23-17.986V359.833H336.5z"/>
<path style="fill:#376FB7;" d="M409.5,359.833v230.033c12.294-9.613,21.179-16.562,23-17.985c0-6.045,0-126.095,0-212.047H409.5z"/>
<path style="fill:#376FB7;" d="M252.5,359.833v269.134c8.048,6.293,15.89,12.426,23,17.986V359.833H252.5z"/>
<path style="fill:#376FB7;" d="M179.5,359.833c0,85.953,0,206.002,0,212.047c1.822,1.424,10.706,8.372,23,17.985V359.833H179.5z"/>
</svg>
