<svg enable-background="new 0 0 612 792" viewBox="0 0 612 792" xmlns="http://www.w3.org/2000/svg"><path d="m99.175 639.157-14.417-44.728h-10.324v44.728h-13.762v-96.35h17.206c6.024 0 11.015.614 14.993 1.844 3.979 1.228 7.158 2.977 9.523 5.259 2.361 2.239 4.015 4.967 5.003 8.136.951 3.175 1.442 6.705 1.442 10.565 0 2.371-.175 4.511-.513 6.399-.346 1.906-.798 3.604-1.37 5.093-.577 1.489-1.221 2.792-1.937 3.92-.721 1.133-1.467 2.097-2.215 2.882-1.766 1.901-3.778 3.257-6.051 4.085l15.531 48.167zm-24.741-55.059h3.444c2.571 0 4.92-.24 7.031-.725 2.114-.49 3.935-1.318 5.438-2.492 1.501-1.195 2.667-2.777 3.5-4.768.814-1.995 1.242-4.479 1.242-7.502 0-3.009-.427-5.508-1.242-7.501-.833-1.976-1.999-3.577-3.5-4.746-1.503-1.197-3.324-2.021-5.438-2.516-2.112-.476-4.461-.714-7.031-.714h-3.444z"/><path d="m175.95 608.187c0 4.29-.464 8.391-1.358 12.248-.889 3.874-2.403 7.268-4.521 10.174-2.112 2.903-4.927 5.201-8.464 6.919-3.525 1.729-7.92 2.583-13.197 2.583-3.584 0-6.754-.383-9.519-1.172-2.753-.786-5.146-1.889-7.169-3.28-2.032-1.396-3.74-3.08-5.139-5.05-1.394-1.977-2.515-4.147-3.358-6.499-.836-2.364-1.447-4.904-1.799-7.584-.363-2.695-.54-5.471-.54-8.339v-34.407c0-2.86.177-5.646.54-8.337.353-2.693.963-5.216 1.799-7.58.843-2.36 1.964-4.532 3.358-6.506 1.398-1.969 3.107-3.659 5.139-5.058 2.023-1.398 4.416-2.492 7.169-3.274 2.765-.787 5.935-1.185 9.519-1.185 5.277 0 9.672.856 13.197 2.569 3.537 1.726 6.352 4.04 8.464 6.947 2.118 2.9 3.632 6.296 4.521 10.165.894 3.864 1.358 7.954 1.358 12.258zm-41.304 3.449c0 2.576.234 4.922.701 7.035.46 2.11 1.24 3.924 2.311 5.439 1.071 1.496 2.486 2.656 4.249 3.486 1.757.817 3.926 1.243 6.501 1.243 2.579 0 4.749-.426 6.516-1.243 1.737-.83 3.163-1.99 4.248-3.486 1.058-1.515 1.832-3.328 2.302-5.439.463-2.113.699-4.459.699-7.035v-41.3c0-2.576-.236-4.933-.699-7.049-.47-2.108-1.244-3.916-2.302-5.425-1.085-1.498-2.511-2.672-4.248-3.502-1.766-.825-3.937-1.226-6.516-1.226-2.574 0-4.743.4-6.501 1.226-1.764.83-3.179 2.004-4.249 3.502-1.071 1.509-1.85 3.317-2.311 5.425-.467 2.116-.701 4.473-.701 7.049z"/><path d="m218.956 594.429h-17.206v34.41h24.083v10.318h-37.844v-96.349h37.844v10.327h-24.083v30.963h17.206z"/><path d="m261.989 640.11c-3.433 0-6.463-.392-9.074-1.202-2.621-.8-4.88-1.874-6.819-3.229-1.936-1.349-3.559-2.857-4.894-4.574-1.322-1.694-2.415-3.439-3.278-5.232-2.01-4.16-3.154-8.918-3.431-14.237l13.714-3.449c.142 3.873.701 7.309 1.722 10.322.427 1.286.974 2.547 1.635 3.785.671 1.221 1.495 2.325 2.456 3.312.969.964 2.106 1.757 3.417 2.334 1.321.588 2.837.899 4.552.899 6.906 0 10.35-3.456 10.35-10.33 0-1.718-.206-3.33-.648-4.815-.425-1.481-1.071-2.913-1.926-4.303-.861-1.382-1.941-2.726-3.231-4.031-1.286-1.299-2.791-2.667-4.519-4.051l-17.197-13.764c-1.764-1.403-3.291-2.987-4.615-4.764-1.292-1.774-2.377-3.65-3.25-5.62-.862-1.973-1.491-3.982-1.901-6.023-.412-2.04-.624-4.072-.624-6.082 0-3.076.518-6.02 1.565-8.836 1.038-2.81 2.563-5.285 4.592-7.414 2.019-2.142 4.534-3.841 7.552-5.083 2.997-1.252 6.461-1.883 10.412-1.883 3.441 0 6.464.342 9.087 1.064 2.619.722 4.9 1.673 6.835 2.854 1.945 1.189 3.573 2.525 4.906 4.031 1.327 1.509 2.425 3.039 3.292 4.571 2.003 3.7 3.145 7.883 3.435 12.532l-13.764 3.443c-.146-3.221-.717-6.094-1.719-8.603-.439-1.07-.988-2.123-1.645-3.158-.673-1.017-1.493-1.93-2.45-2.734-.976-.799-2.116-1.459-3.429-1.96-1.316-.508-2.822-.746-4.547-.746-1.8 0-3.362.275-4.668.833-1.315.558-2.384 1.294-3.239 2.222-.836.93-1.464 2.036-1.846 3.283-.396 1.258-.588 2.58-.588 3.985 0 2.358.558 4.792 1.65 7.275 1.129 2.475 2.869 4.643 5.248 6.513l17.206 13.768c2.184 1.762 4.138 3.686 5.843 5.777 1.705 2.093 3.158 4.284 4.34 6.573 1.18 2.282 2.068 4.644 2.7 7.063.599 2.41.908 4.794.908 7.172 0 2.954-.48 5.811-1.453 8.5-.966 2.713-2.456 5.103-4.455 7.189-1.971 2.088-4.48 3.745-7.487 4.974-3.018 1.229-6.6 1.849-10.72 1.849"/><path d="m329.131 594.429h-17.218v34.41h24.096v10.318h-37.856v-96.349h37.856v10.327h-24.096v30.963h17.218z"/><path d="m346.338 639.157v-96.349h13.762v86.031h24.088v10.318z"/><path d="m409.644 615.07-4.826 24.087h-13.748l20.171-96.35h14.213l20.663 96.35h-13.249l-5.172-24.087zm15.836-10.318-6.876-41.294-6.905 41.294z"/><path d="m494.966 639.157-14.435-44.728h-10.322v44.728h-13.767v-96.35h17.214c6.018 0 11.018.614 14.996 1.844 3.983 1.228 7.15 2.977 9.529 5.259 2.345 2.239 4.01 4.967 4.999 8.136.942 3.175 1.439 6.705 1.439 10.565 0 2.371-.166 4.511-.512 6.399-.344 1.906-.805 3.604-1.37 5.093-.582 1.489-1.236 2.792-1.941 3.92-.732 1.133-1.47 2.097-2.22 2.882-1.762 1.901-3.784 3.257-6.032 4.085l15.519 48.167zm-24.757-55.059h3.447c2.58 0 4.926-.24 7.028-.725 2.125-.49 3.938-1.318 5.44-2.492 1.494-1.195 2.667-2.777 3.491-4.768.827-1.995 1.233-4.479 1.233-7.502 0-3.009-.406-5.508-1.233-7.501-.824-1.976-1.997-3.577-3.491-4.746-1.502-1.197-3.315-2.021-5.44-2.516-2.103-.476-4.448-.714-7.028-.714h-3.447z"/><path d="m549.347 594.429h-17.197v34.41h24.08v10.318h-37.852v-96.349h37.852v10.327h-24.08v30.963h17.197z"/><path d="m369.139 672.173-4.842 7.217h-113.593l-4.843-7.217z"/><path d="m305.369 287.377-.276.261c1.406.121 2.811.247 4.225.391l.903-.858c-2.097.061-3.724.139-4.852.206z"/><path d="m320.077 287.13-2.056 1.95c1.345.184 2.689.367 4.035.57l2.525-2.397c-1.569-.056-3.08-.097-4.504-.123z"/><path d="m333.864 287.77-3.447 3.271c1.295.233 2.588.473 3.878.724l3.839-3.642c-1.457-.132-2.877-.249-4.27-.353z"/><path d="m346.941 289.088-4.571 4.338c1.249.274 2.487.564 3.73.854l4.883-4.634c-1.364-.199-2.713-.384-4.042-.558z"/><path d="m359.354 291.032-5.435 5.155c1.215.314 2.417.642 3.621.966l5.665-5.375c-1.292-.264-2.576-.508-3.851-.746z"/><path d="m371.153 293.559-6.039 5.729c1.183.351 2.354.705 3.521 1.064l6.174-5.857c-1.222-.325-2.441-.639-3.656-.936z"/><path d="m382.341 296.653-6.376 6.05c1.146.383 2.291.765 3.419 1.159l6.431-6.102c-1.162-.383-2.318-.748-3.474-1.107z"/><path d="m392.969 300.3-6.472 6.141c1.108.417 2.228.832 3.313 1.256l6.433-6.102c-1.092-.444-2.18-.878-3.274-1.295z"/><path d="m402.997 304.508-6.322 5.997c1.074.456 2.155.912 3.199 1.373l6.169-5.853c-1.01-.518-2.019-1.042-3.046-1.517z"/><path d="m414.98 311.273c-.914-.603-1.82-1.215-2.752-1.79l-5.861 5.562c.99.519 1.981 1.029 2.97 1.582z"/><path d="m418.182 321.959 5.012-4.755c-.847-.666-1.698-1.323-2.564-1.969l-5.245 4.973c.935.58 1.871 1.152 2.797 1.751z"/><path d="m426.583 327.704 4.262-4.044c-.786-.713-1.6-1.414-2.41-2.118l-4.515 4.284c.893.623 1.783 1.247 2.663 1.878z"/><path d="m434.662 333.765 3.389-3.214c-.736-.746-1.511-1.493-2.275-2.241l-3.67 3.482c.864.659 1.715 1.316 2.556 1.973z"/><path d="m442.474 340.076 2.401-2.276c-.694-.771-1.429-1.563-2.157-2.352l-2.722 2.581c.844.69 1.671 1.373 2.478 2.047z"/><path d="m450.045 346.608 1.333-1.264c-.656-.791-1.349-1.61-2.06-2.445l-1.68 1.593c.827.722 1.639 1.433 2.407 2.116z"/><path d="m457.402 353.35.24-.227c-.607-.774-1.267-1.608-1.989-2.516l-.588.556c.852.788 1.626 1.512 2.337 2.187z"/><path d="m314.355 320.003-22.002 20.875c.692.607 1.504 1.327 2.399 2.116l28.004-26.568c-3.062 1.184-5.859 2.382-8.401 3.577z"/><path d="m339.666 310.934c-.629.17-1.226.346-1.837.519l-38.001 36.05c.783.698 1.58 1.411 2.386 2.138l40.046-37.991c-1.63-.455-2.594-.716-2.594-.716z"/><path d="m349.803 313.817-42.556 40.371c.81.742 1.593 1.462 2.355 2.166l43.73-41.486c-1.23-.37-2.414-.722-3.529-1.051z"/><path d="m360.731 317.154-46.227 43.857c.691.7 1.409 1.494 2.147 2.365l47.542-45.104c-1.163-.38-2.321-.754-3.462-1.118z"/><path d="m371.438 320.725-50.627 48.031c.623.867 1.243 1.747 1.857 2.639l52.135-49.461c-1.104-.407-2.228-.809-3.365-1.209z"/><path d="m381.77 324.648-55.305 52.471c.612.955 1.186 1.87 1.738 2.756l56.741-53.833c-1.002-.46-2.056-.925-3.174-1.394z"/><path d="m391.185 329.449-59.39 56.344c.705 1.191 1.109 1.9 1.109 1.9.544-.316 1.388-.603 2.438-.867l58.097-55.116c-.343-.701-1.122-1.46-2.254-2.261z"/><path d="m351.791 384.943 44.217-41.947c-.297-1.288-.573-2.503-.826-3.62l-48.393 45.911c1.585-.128 3.26-.241 5.002-.344z"/><path d="m366.904 384.325 31.701-30.078c-.285-1.217-.565-2.423-.839-3.607l-35.659 33.831c1.587-.056 3.189-.103 4.797-.146z"/><path d="m381.669 384.042 19.575-18.573c-.28-1.183-.563-2.38-.849-3.592l-23.436 22.232c1.595-.027 3.169-.05 4.71-.067z"/><path d="m396.273 383.91 7.675-7.284c-.274-1.108-.568-2.304-.877-3.566l-11.471 10.885c1.669-.014 3.232-.025 4.673-.035z"/><path d="m199.321 447.254 31.641-30.018c-12.28 6.508-24.767 20.704-31.641 30.018z"/><path d="m244.677 413.543-51.646 48.999c.167 1.185.47 2.364.829 3.616l55.453-52.609c-1.621-.059-3.171-.061-4.636-.006z"/><path d="m258.345 414.293-62.196 59.009c.387.998.823 2.07 1.288 3.179l64.968-61.637c-1.369-.205-2.722-.387-4.06-.551z"/><path d="m270.714 416.281-70.399 66.79c.484 1.071.954 2.099 1.403 3.068l72.811-69.076c-1.265-.27-2.536-.531-3.815-.782z"/><path d="m282.439 418.888-77.67 73.689c.196.317.811 1.32 1.708 2.786l79.617-75.537c-1.189-.316-2.41-.629-3.655-.938z"/><path d="m293.65 421.98-83.562 79.278c.563.919 1.133 1.853 1.703 2.782l85.324-80.947c-1.072-.36-2.228-.732-3.465-1.113z"/><path d="m304.38 426.09c-.104-.069-.244-.148-.374-.221l-88.614 84.068c.69 1.13 1.269 2.083 1.698 2.792l89.167-84.593c-.499-.823-1.108-1.533-1.877-2.046z"/><path d="m308.116 435.695-86.258 81.837c1.086.331 2.479.472 4.303.318l81.948-77.746c.065-1.389.086-2.896.007-4.409z"/><path d="m306.663 455.193c.235-1.87.436-3.547.601-4.97l-68.611 65.091c1.871-.419 3.914-.882 6.092-1.377z"/><path d="m263.871 509.517 40.695-38.606c.24-1.692.478-3.392.705-5.066l-47.551 45.11c2.048-.476 4.108-.957 6.151-1.438z"/><path d="m283.287 504.809 18.772-17.809c.281-1.556.577-3.322.884-5.239l-25.95 24.619c2.282-.561 4.4-1.088 6.294-1.571z"/><path d="m465.873 409.524-28.721 27.249c-.146 1.474-.301 3.121-.452 4.828l32.903-31.215c-1.104-.775-2.458-1.013-3.73-.862z"/><path d="m472.856 416.625-36.839 34.947c-.003.124-.011.264-.014.383-.032 1.26-.164 2.765-.352 4.37l38.349-36.378c-.411-1.23-.798-2.354-1.144-3.322z"/><path d="m476.218 427.15-42.299 40.129c-.459 2.439-.81 4.12-.81 4.12s.173.242.447.627l43.61-41.372c-.314-1.208-.629-2.375-.948-3.504z"/><path d="m478.935 438.306-41.357 39.232c.652.875 1.31 1.746 1.939 2.561l40.109-38.049c-.214-1.263-.443-2.514-.691-3.744z"/><path d="m480.709 450.334-37.106 35.201c.454.86.937 1.889 1.427 3.047l35.935-34.092c-.049-1.381-.135-2.768-.256-4.156z"/><path d="m480.611 464.139-33.055 31.358c.372 1.186.709 2.353.99 3.462l31.047-29.453c.446-1.73.79-3.519 1.018-5.367z"/><path d="m451.046 509.729s11.781-9.497 20.713-23.46l-22.127 20.989c.45 2.115 1.414 2.471 1.414 2.471z"/><path d="m335.248 396.079-14.722 13.964c-2.512 3.139-4.735 5.914-5.742 7.168-2.335 2.909-4.639 5.879-5.114 7.536l27.813-26.389c-.42-.793-1.319-1.642-2.235-2.279z"/><path d="m166.568 435.07c-.544-.547-1.072-.77-1.545-.848l-5.487 5.207c.025.772.559 1.152.559 1.152s.631.46 1.619 1.182l5.89-5.589c-.47-.512-.83-.899-1.036-1.104z"/><path d="m172.11 441.232-4.84 4.593c.876.643 1.757 1.286 2.619 1.92l4.331-4.111c-.708-.809-1.416-1.614-2.11-2.402z"/><path d="m178.668 448.737-3.247 3.082c.347.257.609.456.695.525.23.188.942.752 1.86 1.443l2.773-2.631c-.441-.519-1.171-1.369-2.081-2.419z"/><path d="m184.906 457.657c.194-.219.136-.603-.063-1.068l-1.029.976c.532.215.925.274 1.092.092z"/><path d="m205.02 315.244-49.703 47.156c-2.874 3.918-5.611 7.976-8.19 12.168l70.843-67.211c-4.348 2.418-8.673 5.053-12.95 7.887z"/><path d="m181.012 352.238c.183-.356.408-.706.601-1.063l-44.581 42.296c-1.105 2.425-2.15 4.894-3.148 7.392l62.795-59.579c-8.793 5.685-14.947 10.976-15.667 10.954z"/><path d="m229.503 310.141 16.092-15.266c-2.56.895-5.134 1.87-7.721 2.92l-20.809 19.744c4.092-2.613 8.271-5.082 12.438-7.398z"/><path d="m259.381 295.525 6.49-6.156c-1.978.374-3.976.804-5.994 1.288l-9.293 8.814c3.096-1.43 6.059-2.757 8.797-3.946z"/><path d="m217.828 330.549-88.804 84.247c-.593 1.98-1.162 3.976-1.685 5.994l97.121-92.137c-2.225.493-4.441 1.133-6.632 1.896z"/><path d="m278.16 287.703c-.262.02-.529.052-.794.073l-.616.586c.882-.363 1.408-.598 1.41-.659z"/><path d="m147.01 415.28.213.37 69.805-66.226c1.711-3.835 3.789-7.176 5.915-10.014l-98.182 93.146c-.316 1.73-.603 3.471-.865 5.224l22.965-21.786c.094-.461.149-.714.149-.714z"/><path d="m144.898 427.177-22.23 21.091c-.133 1.566-.25 3.139-.341 4.723l21.84-20.719c.245-1.821.491-3.52.731-5.095z"/><path d="m212.263 367.667.711-.672c.052-1.643.189-3.236.398-4.779l-9.063 8.598c3.752-1.63 6.7-2.62 7.954-3.147z"/><path d="m152.328 424.529 13.975-13.259c2.114-3.462 4.38-7.121 6.657-10.716l-22.269 21.126z"/><path d="m142.955 442.743-20.915 19.842c-.001 1.439.027 2.89.062 4.343l20.422-19.375c.133-1.646.277-3.247.431-4.81z"/><path d="m141.915 457.447-19.379 18.383c.1 1.359.199 2.719.331 4.09l18.895-17.927c.036-1.533.088-3.048.153-4.546z"/><path d="m141.732 471.341-17.852 16.936c.182 1.284.364 2.568.575 3.863l17.407-16.516c-.058-1.433-.102-2.861-.13-4.283z"/><path d="m142.44 484.385-16.522 15.675c.211 1.031.405 2.056.633 3.091.043.196.093.385.136.581l16.172-15.342c-.156-1.333-.296-2.667-.419-4.005z"/><path d="m144.074 496.564-15.56 14.761c.302 1.185.616 2.352.933 3.517l15.359-14.572c-.262-1.226-.507-2.462-.732-3.706z"/><path d="m147.778 511.174c-.128-.39-.263-.75-.39-1.144-.24-.739-.454-1.496-.676-2.248l-9.569 9.078c1.466 0 2.938-.002 4.645-.002z"/><path d="m545.056 399.172c-39.646-95.671-118.693-117.685-118.693-117.685 45.623 19.323 144.107 104.226 114.07 235.006h15.55c7.493-37.62 3.336-82.886-10.927-117.321"/><path d="m525.527 440.571c-22.582-127.121-113.625-150.663-113.625-150.663 9.32 3.065 97.114 49.237 102.699 168.156 1.012 21.396-.987 40.799-5.275 58.43h16.578c4.206-24.274 4.26-49.819-.377-75.923"/><path d="m69.599 489.659c-15.059-112.619 56.205-175.898 95.354-201.662l8.616-5.332s-9.936 4.563-13.552 6.553c-80.345 44.24-106.902 121.128-104.521 191.488-.04 11.229 1.695 23.784 5.176 37.042h14.603c-2.436-8.894-4.36-18.246-5.676-28.089"/><path d="m101.969 404.743c17.77-56.748 51.355-86.474 79.995-107.366l9.375-6.458c-96.603 45.852-123.612 141.352-102.584 226.829h14.028c-11.564-37.851-10.875-77.069-.814-113.005"/><path d="m273.352 257.588-7.324-17.892-2.925 5.508v12.384h-5.857v-38.54h5.857v16.518l8.784-16.518h7.319l-8.807 15.143 10.275 23.397z"/><path d="m293.308 223.178c-2.836 0-4.391 1.571-4.391 4.194 0 2.387 1.325 4.236 2.925 5.442l7.321 5.504c2.993 2.28 5.854 5.722 5.854 10.646 0 5.722-4.096 9.013-10.247 9.013-7.66 0-11.278-4.667-11.713-11.4l5.859-1.374c.203 3.979 1.414 8.258 5.854 8.258 2.927 0 4.393-1.377 4.393-4.131 0-3.464-2.266-5.27-4.393-6.883l-7.323-5.504c-2.516-1.852-4.413-4.906-4.413-8.991 0-5.72 4.119-9.292 10.273-9.292 7.251 0 11.186 3.769 11.71 10.023l-5.854 1.374c-.256-3.654-1.717-6.879-5.855-6.879"/><path d="m325.476 219.048h5.853l-8.784 38.54h-5.854l-8.783-38.54h5.858l4.322 20.648 1.507 9.635 1.558-9.635z"/><path d="m351.162 238.319 6.592 19.27h-5.81l-5.902-17.893h-4.395v17.893h-5.851v-38.541h7.316c8.35 0 13.178 2.665 13.178 10.327.001 4.535-1.718 7.781-5.128 8.944m-8.049-15.141h-1.466v12.389h1.466c4.733 0 7.32-1.7 7.32-6.191.001-4.496-2.586-6.198-7.32-6.198z"/><path d="m245.867 211.155 4.834-7.221h113.579l4.853 7.221z"/><path d="m345.034 200.711s46.471-23.376 44.472-37.188c-2.02-14.021-25.976-7.017-25.976-7.017s.842 1.459-.715 6.342c-1.547 4.892-3.186 7.054-3.186 7.054s10.745-1.279 13.124-.732c2.354.541 3.89 2.148 2.181 4.743-5.979 9.101-29.9 26.798-29.9 26.798"/><path d="m332.85 200.523c15.996-17.8 23.499-31.35 23.499-31.35s13.145-23.211-5.526-25.354c-20.114-2.3-32.028 7.945-32.028 7.945l-1.737 7.593s22.587-6.559 28.894-1.85c6.045 4.52.334 19.694-13.102 43.016"/><path d="m269.966 200.711s-46.471-23.376-44.472-37.188c2.02-14.021 25.976-7.017 25.976-7.017s-.842 1.459.715 6.342c1.547 4.892 3.186 7.054 3.186 7.054s-10.745-1.279-13.124-.732c-2.355.541-3.89 2.148-2.181 4.743 5.979 9.101 29.9 26.798 29.9 26.798"/><path d="m282.15 200.523c-15.996-17.8-23.499-31.35-23.499-31.35s-13.145-23.211 5.526-25.354c20.114-2.3 32.028 7.945 32.028 7.945l1.737 7.593s-22.587-6.559-28.894-1.85c-6.045 4.52-.334 19.694 13.102 43.016"/><path d="m307.5 126.517c3.459-.049 8.02 2.731 8.203 7.848.196 5.646-4.498 8.449-4.729 8.378 4.736 1.388 4.729 6.376 4.729 6.376s-.215 9.949-8.203 51.404c-7.988-41.455-8.203-51.404-8.203-51.404s-.007-4.988 4.729-6.376c-.232.07-4.926-2.733-4.729-8.378.183-5.117 4.744-7.897 8.203-7.848z"/><path d="m310.953 118.492-3.453-5.103-3.453 5.103-4.926-5.103v10.937h16.758v-10.937z"/></svg>