<?xml version="1.0" encoding="iso-8859-1"?>
<!-- Generator: Adobe Illustrator 24.0.1, SVG Export Plug-In . SVG Version: 6.00 Build 0)  -->
<svg version="1.1" id="Layer_1" xmlns="http://www.w3.org/2000/svg" xmlns:xlink="http://www.w3.org/1999/xlink" x="0px" y="0px"
	 viewBox="0 0 612 792" style="enable-background:new 0 0 612 792;" xml:space="preserve">
<path style="fill:#3A67B1;" d="M138.396,514.764h9.17l10.675,28.031l10.748-25.493l10.895,25.493l10.529-28.031h9.206l-19.735,48.3
	l-10.895-27.419l-11.334,27.419L138.396,514.764z"/>
<path style="fill:#3A67B1;" d="M200.763,543.825c0-5.003,1.784-9.417,5.354-13.243c3.447-3.875,8.348-5.862,14.705-5.959
	c6.406,0.098,11.368,2.084,14.889,5.959c3.398,3.826,5.121,8.24,5.17,13.243c-0.049,4.978-1.772,9.38-5.17,13.206
	c-3.52,3.924-8.483,5.935-14.889,6.033c-6.357-0.098-11.258-2.108-14.705-6.033C202.547,553.205,200.763,548.803,200.763,543.825z
	 M209.017,543.825c0.048,3.347,1.175,6.127,3.378,8.342c2.153,2.313,4.957,3.494,8.41,3.543c3.524-0.048,6.364-1.229,8.519-3.543
	c2.155-2.215,3.255-4.995,3.305-8.342c-0.05-3.372-1.15-6.189-3.305-8.454c-2.154-2.215-4.994-3.346-8.519-3.396
	c-3.452,0.049-6.256,1.181-8.41,3.396C210.191,537.636,209.065,540.453,209.017,543.825z"/>
<path style="fill:#3A67B1;" d="M257.478,514.764v32.629c0,2.06,0.257,3.593,0.771,4.599c0.538,1.006,1.358,1.827,2.461,2.464
	l4.224,2.428l-3.447,6.18c-3.96-1.814-6.919-3.752-8.874-5.812c-1.956-2.011-2.933-4.818-2.933-8.424v-34.065H257.478z"/>
<path style="fill:#3A67B1;" d="M269.684,525.615h7.798v20.444c0,2.652,0.883,4.839,2.649,6.557c1.644,1.768,3.704,2.652,6.182,2.652
	c2.551,0,4.637-0.884,6.256-2.652c1.644-1.718,2.49-3.904,2.539-6.557v-20.444h7.798v21.079c-0.097,5.174-1.774,9.172-5.029,11.992
	c-3.206,2.87-7.06,4.328-11.564,4.377c-4.405-0.049-8.247-1.506-11.526-4.374c-3.354-2.817-5.054-6.811-5.104-11.98V525.615z"/>
<path style="fill:#3A67B1;" d="M309.621,525.615h8.438l6.456,19.722h0.147l7.594-17.514l7.557,17.514h0.185l6.456-19.722h8.402
	l-14.051,37.448l-8.474-19.754h-0.147l-8.511,19.754L309.621,525.615z"/>
<path style="fill:#3A67B1;" d="M396.508,554.193c-4.552,5.646-10.182,8.602-16.888,8.871c-6.358-0.098-11.271-2.108-14.743-6.033
	c-3.545-3.826-5.318-8.227-5.318-13.206c0-5.003,1.773-9.417,5.321-13.243c3.473-3.875,8.39-5.862,14.751-5.959
	c4.158,0,8.255,1.606,12.292,4.818c1.907,1.667,3.486,3.776,4.734,6.326c1.173,2.624,1.785,5.738,1.834,9.342v1.435h-30.224
	c0.317,2.833,1.577,5.1,3.777,6.8c2.101,1.873,4.546,2.808,7.332,2.808c4.278-0.049,7.786-1.933,10.524-5.653L396.508,554.193z
	 M389.312,540.076c-1.91-5.645-5.495-8.492-10.757-8.541c-2.489,0-4.638,0.727-6.443,2.181c-1.855,1.455-3.137,3.575-3.845,6.36
	H389.312z"/>
<path style="fill:#3A67B1;" d="M177.889,640.016h-39.492l24.684-39.07h-15.206v8.484h-8.665v-16.72h38.896l-24.676,39.069h15.793
	v-8.335h8.666V640.016z"/>
<path style="fill:#3A67B1;" d="M215.639,635.595h-0.146c-2.75,3.512-6.716,5.316-11.898,5.414
	c-5.913-0.171-10.513-2.207-13.797-6.106c-3.31-3.874-4.964-8.253-4.964-13.133c0-4.757,1.752-9.098,5.256-13.023
	c3.382-3.973,8.017-6.033,13.906-6.18c5.523,0.147,9.356,1.962,11.497,5.444h0.146v-4.451h7.76v36.455h-7.76V635.595z
	 M193.046,621.77c0.049,3.347,1.195,6.128,3.436,8.342c2.192,2.313,4.886,3.495,8.079,3.543c3.144-0.048,5.812-1.23,8.006-3.543
	c2.193-2.214,3.315-4.995,3.364-8.342c-0.049-3.371-1.171-6.189-3.364-8.453c-2.194-2.214-4.862-3.346-8.006-3.395
	c-3.192,0.049-5.886,1.181-8.079,3.395C194.241,615.581,193.095,618.399,193.046,621.77z"/>
<path style="fill:#3A67B1;" d="M229.666,603.56h8.651l8.031,20.863h0.146l7.995-20.863h8.651l-16.719,37.448L229.666,603.56z"/>
<path style="fill:#3A67B1;" d="M303.689,632.139c-4.53,5.645-10.132,8.602-16.807,8.87c-6.326-0.098-11.217-2.108-14.671-6.033
	c-3.528-3.826-5.292-8.228-5.292-13.206c0-5.003,1.764-9.418,5.294-13.243c3.457-3.875,8.35-5.861,14.68-5.959
	c4.138,0,8.216,1.607,12.232,4.819c1.898,1.667,3.468,3.776,4.71,6.326c1.168,2.623,1.777,5.738,1.825,9.342v1.435h-30.078
	c0.316,2.833,1.57,5.1,3.759,6.799c2.091,1.873,4.523,2.809,7.296,2.809c4.257-0.05,7.749-1.934,10.473-5.655L303.689,632.139z
	 M296.527,618.021c-1.9-5.644-5.469-8.492-10.705-8.541c-2.478,0-4.615,0.727-6.412,2.181c-1.847,1.456-3.122,3.575-3.827,6.36
	H296.527z"/>
<path style="fill:#3A67B1;" d="M314.881,603.56h7.761v4.598h0.146c2.291-3.629,5.984-5.493,11.078-5.591
	c3.949,0.049,7.275,1.484,9.982,4.304c2.68,2.821,4.045,6.537,4.094,11.147v21.998h-7.76v-20.297
	c-0.146-6.335-3.015-9.454-8.605-9.356c-2.564,0-4.663,0.762-6.298,2.284c-1.758,1.596-2.637,3.905-2.637,6.925v20.444h-7.76V603.56
	z"/>
<path style="fill:#3A67B1;" d="M359.637,610.915h-4.406v-7.354h4.406v-9.712l7.761-2.133v11.845h5.547v7.354h-5.547v29.101h-7.761
	V610.915z"/>
<path style="fill:#3A67B1;" d="M413.828,632.139c-4.531,5.645-10.133,8.602-16.807,8.87c-6.327-0.098-11.216-2.108-14.671-6.033
	c-3.528-3.826-5.291-8.228-5.291-13.206c0-5.003,1.764-9.418,5.294-13.243c3.457-3.875,8.349-5.861,14.68-5.959
	c4.138,0,8.215,1.607,12.232,4.819c1.897,1.667,3.468,3.776,4.71,6.326c1.169,2.623,1.777,5.738,1.826,9.342v1.435h-30.077
	c0.316,2.833,1.569,5.1,3.758,6.799c2.092,1.873,4.524,2.809,7.297,2.809c4.257-0.05,7.748-1.934,10.472-5.655L413.828,632.139z
	 M406.666,618.021c-1.9-5.644-5.468-8.492-10.705-8.541c-2.477,0-4.615,0.727-6.412,2.181c-1.846,1.456-3.122,3.575-3.826,6.36
	H406.666z"/>
<path style="fill:#3A67B1;" d="M424.371,617.188c0.049-4.726,1.438-8.338,4.164-10.836c2.551-2.523,5.702-3.784,9.453-3.784
	c5.777,0.147,9.491,2.306,11.141,6.475h0.15c1.626-4.168,5.339-6.327,11.142-6.475c3.776,0,6.977,1.263,9.603,3.789
	c2.601,2.502,3.927,6.119,3.977,10.852v22.807h-7.768v-22.765c-0.051-2.235-0.654-3.953-1.809-5.157
	c-1.207-1.154-2.708-1.731-4.504-1.731c-2.002,0-3.606,0.602-4.813,1.805c-1.36,1.278-2.04,3.316-2.04,6.115v21.733h-7.761v-21.733
	c-0.052-2.799-0.681-4.837-1.886-6.115c-1.31-1.203-2.965-1.805-4.967-1.805c-1.745,0-3.195,0.578-4.35,1.731
	c-1.309,1.204-1.963,2.922-1.963,5.157v22.765h-7.768V617.188z"/>
<rect x="128.023" y="143.929" style="fill:#3A67B1;" width="356.351" height="358.236"/>
<path style="fill:#FFFFFF;" d="M429.114,391.68h-2.787v-4.188h2.787v-9.637h4.3v9.637h1.595l7.831-9.637h5.385l-8.992,10.608
	l9.318,13.452h-5.493l-6.779-10.235h-2.864v10.235h-4.3V391.68z"/>
<path style="fill:#FFFFFF;" d="M449.171,377.854h4.633l5.665,14.706l5.683-14.706h4.634l-10.317,24.566L449.171,377.854z"/>
<path style="fill:#F9ED3D;" d="M453.246,471.327c0-17.033-13.807-30.84-30.84-30.84c-17.032,0-30.84,13.808-30.84,30.84
	c0,17.031,13.808,30.839,30.84,30.839C439.439,502.165,453.246,488.358,453.246,471.327z"/>
<path style="fill:#F9ED3D;" d="M336.208,188.882c12.002,0,23.419-14.387,21.714-28.355c-1.617-3.184-10.398-8.685-23.247-8.685
	c-4.62,10.217-6.386,17.115-6.386,25.034C328.29,183.512,331.832,188.882,336.208,188.882z"/>
<path style="fill:#F9ED3D;" d="M366.339,214.806c0,0-40.542-27.456-75.449-47.765c-2.482,9.556-7.626,21.019-12.84,34.485
	c-4.434,11.45-5.933,23.509-11.86,38.755c6.68,11.172,25.826,21.915,25.826,21.915c-6.386,0-9.027-4.598-20.18-4.598
	c-41.574,0-40.92,87.644-72.893,113.708c-2.749-0.021-5.59-0.035-8.595-0.035c2.084,1.197,4.315,2.239,6.642,3.177v0.002
	c2.993,2.995,0.203,11.528-2.405,25.86c-2.157,11.856-5.116,26.553-7.803,42.376c-3.258,19.193-7.915,46.276-6.652,59.479
	l65.342-112.346c48.598,16.945,86.65,31.264,98.145,31.264c8.755,0,15.838-7.408,15.838-19.413c0-85.846,0-149.141-4.087-155.313
	C355.368,246.358,361.818,229.69,366.339,214.806z M295.721,375.487c-16.281,0-27.187-0.737-38.617-1.595
	c31.975-54.766,51.645-90.367,51.645-90.367s6.897,54.793,6.897,72.036C315.645,366.575,306.734,375.487,295.721,375.487z"/>
<path style="fill:#F9ED3D;" d="M266.982,160.272c-2.74,0-6.154,11.057-10.948,30.037c-2.5,9.899-5.998,23.087-9.717,37.523
	c-4.205,16.323-16.036,37.536-12.348,50.811c3.196-3.195,7.624-16.321,10.88-23.209c15.48-32.745,23.033-47.319,29.001-58.134
	c3.689-6.684,5.648-11.651,5.648-17.87C279.499,170.234,271.836,160.272,266.982,160.272z"/>
<path style="fill:#FFFFFF;" d="M173.281,358.718c0,0-31.116-22.578-45.258-36.719v13.857
	C128.023,335.856,167.045,364.954,173.281,358.718z"/>
<path style="fill:#FFFFFF;" d="M128.023,359.758c0,0,39.022,29.099,45.258,22.863c0,0-31.116-22.578-45.258-36.719V359.758z"/>
<path style="fill:#FFFFFF;" d="M128.023,383.66c0,0,39.022,29.099,45.258,22.863c0,0-31.116-22.578-45.258-36.719V383.66z"/>
</svg>
