<svg enable-background="new 0 0 612 792" viewBox="0 0 612 792" xmlns="http://www.w3.org/2000/svg"><ellipse cx="299.401" cy="398.499" fill="#30378c" rx="283" ry="283" transform="matrix(.7071 -.7071 .7071 .7071 -194.0888 328.4258)"/><path d="m299.401 678.676c154.739 0 280.176-125.444 280.176-280.179 0-154.733-125.437-280.173-280.176-280.173-154.738 0-280.175 125.44-280.175 280.173 0 154.735 125.437 280.179 280.175 280.179" fill="#d6b229"/><path d="m408.509 456.409v57.536.327c0 17.443-10.994 26.596-27.225 26.563 0 13.978-3.96 20.501-17.356 20.377-.02 0-19.117.071-18.987.057l-45.54-.022-45.54.022c.129.014-18.967-.057-18.988-.057-13.395.124-17.354-6.399-17.354-20.377-16.231.032-27.224-9.12-27.224-26.563 0-.098 0-.208 0-.327v-57.536h-157.246c26.554 122.696 135.707 214.63 266.352 214.63s239.8-91.934 266.352-214.63z" fill="#30378c"/><path d="m170.567 303.284c-5.644 0-5.644-8.543-.009-8.538 3.24 0 8.878.029 8.921.029 24.485-.025 40.779-19.883 40.009-40.327-.859-22.918-20.422-39.589-35.483-39.556-6.07.011-6.065-8.557-.368-8.551 4.332.004 25.048-.006 30.083.043 8.545.078 23.26-10.648 19.886-18.993-2.386-5.913 5.662-9.073 7.86-3.632 7.209 17.795 42.48 18.414 51.281 4.174 0 0 2.171-3.695 2.162-8.616-.011-3.42 2.287-5.02 4.494-4.852 2.208-.168 4.505 1.431 4.494 4.852-.009 4.921 2.162 8.616 2.162 8.616 8.801 14.24 44.072 13.621 51.28-4.174 2.198-5.44 10.247-2.28 7.861 3.632-3.373 8.345 11.34 19.07 19.885 18.993 5.035-.049 25.752-.039 30.083-.043 5.697-.006 5.702 8.562-.369 8.551-15.061-.034-34.623 16.638-35.482 39.556-.77 20.444 15.524 40.302 40.009 40.327.043 0 5.68-.029 8.92-.029 5.636-.005 5.636 8.538-.009 8.538-19.442 0-19.568 15.731-19.568 15.731v.007h151.487c-34.018-111.744-137.883-193.061-260.753-193.061s-226.738 81.317-260.755 193.061h151.487v-.007s-.125-15.731-19.568-15.731z" fill="#be1f24"/><path d="m571.94 398.497c0-24.494-3.251-48.226-9.311-70.807h-526.457c-6.059 22.581-9.309 46.313-9.309 70.807 0 16.86 1.542 33.357 4.473 49.371h536.133c2.929-16.014 4.471-32.511 4.471-49.371z" fill="#fff"/><path d="m371.707 264.78c-.169.009-144.443.009-144.613 0-.896 8.067-10.799 32.578-36.731 37.356 0 0 8.953 6.7 8.803 16.91-.012.012 200.48.012 200.469 0-.15-10.209 8.804-16.91 8.804-16.91-25.933-4.778-35.836-29.289-36.732-37.356z" fill="#fff"/><path d="m390.608 215.158c-26.397.42-31.815-11.783-31.81-11.783-6.942 17.032-16.316 40.213-16.392 40.401-2.153 5.401-10.544 3.039-7.93-3.626 11.742-29.304 15.479-38.714 15.441-38.599-7.777 8.161-35.314 9.481-46.27-2.678 0 0 .013 42.462.013 43.714 0 2.495-2.13 3.979-4.259 4.046-2.128-.067-4.258-1.551-4.258-4.046 0-1.253.014-43.714.014-43.714-10.956 12.159-38.493 10.838-46.271 2.678-.038-.116 3.7 9.295 15.441 38.599 2.614 6.665-5.778 9.027-7.931 3.626-.075-.188-9.449-23.369-16.391-40.401.003 0-5.414 12.203-31.812 11.783 11.105 9.769 19.989 19.349 19.974 42.042h142.466c-.014-22.693 8.871-32.273 19.975-42.042z" fill="#cd8d73"/><path d="m399.908 456.385h-201.013s.087 37.552.019 57.872c-.042 10.267 6.941 17.458 19.025 17.472-.014-.014 8.445-.028 8.268-.037.019.023.019 9.002-.009 9.041 0 14.459 8.712 11.597 8.742 11.624.029-.046-.04.212-.04.166l14.723-.007c7.967 19.676 27.247 33.561 49.778 33.561 22.532 0 41.81-13.885 49.779-33.561l14.723.007c0 .046-.068-.212-.04-.166.031-.027 8.742 2.836 8.742-11.624-.027-.039-.027-9.017-.009-9.041-.178.009 8.281.023 8.268.037 12.084-.014 19.067-7.205 19.025-17.472-.069-20.32.019-57.872.019-57.872z" fill="#fff"/><path d="m325.677 564.5c-11.127-.3-19.217-3.885-19.217-3.885-13.566 5.535-33.968 9.957-53.923-2.033 3.32 5.926 7.726 11.159 12.956 15.425 19.426 10.733 50.847 1.729 60.184-9.507z" fill="#d6b229"/><path d="m280.66 582.706c5.835 2.174 12.148 3.369 18.741 3.369 19.15 0 35.948-10.033 45.455-25.12-4.667 3.175-11.207 3.568-11.207 3.568-6.734 8.161-23.414 21.121-52.989 18.183z" fill="#d6b229"/><path d="m344.068 510.795c1.603-.46 2.108-1.393 3.421-2.313-8.795-17.66-27.02-29.801-48.088-29.801-2.608 0-5.17.197-7.68.556 14.81.588 26.867 5.346 37.816 14.505 3.097 2.627 9.647 8.333 14.531 17.053z" fill="#d6b229"/><path d="m339.511 512.589c-5.118-8.006-12.114-15.745-20.683-20.763-8.091-4.773-10.311-5.974-21.226-8.829-7.614-1.438-13.515-.724-22.081 1.366-.278.108-.572.233-.872.367-3.111 1.62-6.044 3.532-8.762 5.707 24.814 5.772 38.001 12.11 55.681 21.414 4.526 1.557 12.554 4.88 17.943.738z" fill="#d6b229"/><path d="m272.66 559.902c-15.944-19.349-2.913-48.964 7.494-60.668-7.583-2.111-10.495-3.302-19.117-4.412-9.48 9.683-15.331 22.934-15.331 37.554 0 3.26.305 6.445.861 9.545 1.229 3.046 3.352 6.842 5.634 8.902 7.378 6.927 20.459 9.079 20.459 9.079z" fill="#d6b229"/><path d="m305.947 509.438c-7.345-3.517-11.419-5.188-20.166-8.595-20.527 26.578-16.924 45.92-6.452 59.297 7.138 0 13.324-.718 19.273-3.348-10.469-18.147-1.19-36.781 7.345-47.354z" fill="#d6b229"/><path d="m311.453 511.8c-6.427 7.263-8.836 15.71-8.836 15.71 11.348 7.004 38.544 14.092 50.327.979-.392-5.452-1.594-10.678-3.491-15.56-8.836 5.234-19.295 10.841-38-1.129z" fill="#d6b229"/><path d="m300.986 533.146c-1.67 10.035-.984 12.629 2.855 20.897 23.179 8.865 43.124 8.263 48.205-11.058.494-2.459.816-4.978.961-7.546-10.242 6.587-26.026 9.573-52.021-2.293z" fill="#d6b229"/><g fill="#30378c"><path d="m106.389 404.206h-9.578l-7.571-13.284-3.518 2.982-2.43 10.302h-8.726l7.747-32.855h8.726l-3.414 14.482 15.211-14.482h10.315l-17.014 15.291z"/><path d="m148.614 371.351-20.061 32.855h-9.726l-4.501-32.855h8.899l2.688 23.466 13.407-23.466z"/><path d="m183.987 371.351-20.061 32.855h-9.725l-4.501-32.855h8.899l2.688 23.466 13.407-23.466z"/><path d="m229.538 377.706h-10.492l-6.27 26.501h-8.728l6.269-26.501h-10.499l1.493-6.354h29.719z"/><path d="m266.434 371.351-7.769 32.855h-8.727l3.433-14.519h-12.782l-3.433 14.519h-8.727l7.77-32.855h8.727l-2.859 12.092h12.781l2.859-12.092z"/><path d="m299.401 371.351-1.47 6.245h-15.718l-1.389 5.847h14.573l-1.49 6.244h-14.567l-1.966 8.275h15.694l-1.448 6.244h-24.403l7.77-32.855z"/><path d="m311.229 404.802c-2.88 0-5.447-.243-7.701-.728s-4.203-1.088-5.846-1.809l1.741-7.877h.95c1.553 1.383 3.377 2.454 5.473 3.211 2.096.758 4.35 1.136 6.763 1.136 2.472 0 4.289-.327 5.45-.982 1.161-.654 1.742-1.592 1.742-2.814 0-.456-.094-.849-.282-1.18-.189-.331-.555-.658-1.097-.982-.543-.323-1.286-.643-2.228-.96-.942-.315-2.16-.68-3.653-1.092-1.643-.441-3.118-.919-4.421-1.434-1.305-.514-2.417-1.125-3.336-1.832-.92-.72-1.617-1.551-2.092-2.493-.476-.941-.713-2.066-.713-3.376 0-3.294 1.489-5.925 4.467-7.888 2.977-1.964 7.052-2.946 12.224-2.946 2.488 0 4.836.198 7.045.596 2.208.397 4.082.935 5.62 1.611l-1.651 7.568h-.927c-1.176-1.053-2.725-1.934-4.648-2.643-1.922-.71-4.022-1.065-6.298-1.065-2.232 0-3.958.315-5.179.943-1.221.629-1.832 1.498-1.832 2.609 0 .516.09.942.271 1.28.181.339.55.67 1.108.993.482.294 1.244.614 2.285.96 1.04.346 2.262.703 3.663 1.07 3.77.986 6.461 2.141 8.074 3.464 1.613 1.324 2.42 3.119 2.42 5.384 0 1.898-.438 3.568-1.312 5.009-.875 1.442-2.081 2.612-3.619 3.509-1.613.957-3.445 1.655-5.496 2.096-2.049.441-4.371.662-6.965.662z"/><path d="m359.969 404.802c-2.88 0-5.447-.243-7.701-.728s-4.204-1.088-5.847-1.809l1.742-7.877h.95c1.553 1.383 3.377 2.454 5.473 3.211 2.096.758 4.35 1.136 6.763 1.136 2.472 0 4.29-.327 5.451-.982 1.161-.654 1.741-1.592 1.741-2.814 0-.456-.094-.849-.283-1.18s-.554-.658-1.097-.982c-.543-.323-1.286-.643-2.228-.96-.943-.315-2.16-.68-3.653-1.092-1.644-.441-3.118-.919-4.422-1.434-1.304-.514-2.417-1.125-3.336-1.832-.92-.72-1.617-1.551-2.092-2.493-.475-.941-.712-2.066-.712-3.376 0-3.294 1.489-5.925 4.466-7.888 2.978-1.964 7.053-2.946 12.225-2.946 2.488 0 4.836.198 7.045.596 2.209.397 4.082.935 5.621 1.611l-1.651 7.568h-.927c-1.176-1.053-2.726-1.934-4.648-2.643-1.923-.71-4.022-1.065-6.299-1.065-2.232 0-3.958.315-5.179.943-1.221.629-1.832 1.498-1.832 2.609 0 .516.09.942.271 1.28.181.339.55.67 1.108.993.482.294 1.244.614 2.284.96 1.041.346 2.262.703 3.664 1.07 3.769.986 6.46 2.141 8.074 3.464 1.613 1.324 2.42 3.119 2.42 5.384 0 1.898-.438 3.568-1.312 5.009-.874 1.442-2.081 2.612-3.619 3.509-1.613.957-3.445 1.655-5.496 2.096-2.049.441-4.371.662-6.964.662z"/><path d="m414 380.442c0 3.913-1.663 7.068-4.988 9.466-3.326 2.398-7.974 3.597-13.947 3.597h-3.303l-2.531 10.702h-8.728l7.77-32.855h12.105c2.202 0 4.121.148 5.758.441 1.636.294 3.05.802 4.242 1.522 1.176.721 2.074 1.659 2.692 2.813.621 1.155.93 2.593.93 4.314zm-9.273.816c0-1.28-.476-2.228-1.428-2.846-.951-.618-2.364-.927-4.237-.927h-3.512l-2.327 9.841h3.125c2.642 0 4.699-.525 6.17-1.578 1.474-1.051 2.209-2.548 2.209-4.49z"/><path d="m451.726 383.575c0 2.692-.468 5.34-1.402 7.943-.935 2.603-2.292 4.876-4.071 6.818-1.945 2.118-4.215 3.74-6.808 4.865-2.594 1.125-5.579 1.688-8.956 1.688-4.599 0-8.198-1.158-10.8-3.475-2.601-2.317-3.901-5.505-3.901-9.565 0-2.853.498-5.567 1.493-8.142.995-2.574 2.42-4.839 4.274-6.796 1.809-1.898 4.048-3.413 6.717-4.545 2.668-1.132 5.579-1.699 8.73-1.699 4.614 0 8.222 1.163 10.822 3.486 2.601 2.325 3.902 5.466 3.902 9.422zm-12.417 11.209c1.025-1.309 1.828-2.828 2.408-4.557.581-1.728.871-3.718.871-5.968 0-2.353-.577-4.196-1.73-5.527s-2.801-1.997-4.941-1.997c-1.402 0-2.741.313-4.015.938s-2.446 1.578-3.517 2.857c-1.04 1.221-1.877 2.74-2.51 4.556-.633 1.817-.95 3.858-.95 6.124 0 2.515.591 4.413 1.775 5.692 1.184 1.28 2.823 1.92 4.919 1.92 1.447 0 2.842-.349 4.184-1.048 1.342-.698 2.51-1.694 3.506-2.99z"/><path d="m487.664 379.626c0 2.633-.822 4.848-2.466 6.642-1.644 1.795-3.876 3.149-6.697 4.06l7.784 13.879h-9.694l-6.344-12.047h-4.878l-2.86 12.047h-8.68l7.77-32.855h13.146c4.118 0 7.3.681 9.547 2.041 2.248 1.36 3.372 3.438 3.372 6.233zm-9.364 1.425c0-1.32-.434-2.256-1.301-2.807-.867-.549-2.145-.825-3.835-.825h-4.298l-2.094 8.826h4.271c2.306 0 4.092-.458 5.358-1.376 1.266-.916 1.899-2.19 1.899-3.818z"/><path d="m522.743 377.706h-10.492l-6.27 26.501h-8.728l6.269-26.501h-10.499l1.493-6.354h29.719z"/></g></svg>