<svg height="1000" viewBox="0 0 1000 1000" width="1000" xmlns="http://www.w3.org/2000/svg"><g transform="matrix(2.5513424 0 0 2.5513424 -7.705054 -379.50963)"><path d="m159.822 148.749c-1.182 0-156.802 0-156.802 0v284.259s1.176 76.935 87.507 88.094h138.588c86.333-11.159 87.508-88.094 87.508-88.094v-284.259c.001 0-155.62 0-156.801 0z" fill="#cd242b"/><path d="m21.05 162.668v277.387c0 1.174.283 28.98 24.838 48.08 22.844 17.766 47.434 21.713 48.469 21.873l.724.111h129.482l.723-.111c1.035-.16 25.625-4.107 48.469-21.873 24.556-19.1 24.838-46.905 24.838-48.08v-277.387z" fill="#2c4a7a"/><path d="m305.162 336.11c0-24.013-5.829-46.664-16.141-66.62v-97.249s-128.126 0-129.199 0c-1.072 0-129.198 0-129.198 0v97.271c-10.305 19.952-16.128 42.592-16.128 66.597 0 24.003 5.823 46.645 16.128 66.595v37.351s-.002 24.079 21.142 40.523c21.142 16.444 44.047 19.968 44.047 19.968h128.018s22.904-3.524 44.047-19.968 21.143-40.523 21.143-40.523v-37.326c10.311-19.957 16.141-42.607 16.141-66.619z" fill="#fff"/><path d="m114.896 446.014c0 3.394-2.752 6.145-6.146 6.145s-6.146-2.751-6.146-6.145 2.752-6.146 6.146-6.146c3.395 0 6.146 2.751 6.146 6.146z" fill="#b0a162"/><path d="m165.974 446.014c0 3.394-2.751 6.145-6.146 6.145-3.393 0-6.145-2.751-6.145-6.145s2.752-6.146 6.145-6.146c3.395 0 6.146 2.751 6.146 6.146z" fill="#b0a162"/><path d="m217.052 446.014c0 3.394-2.751 6.145-6.146 6.145-3.394 0-6.145-2.751-6.145-6.145s2.751-6.146 6.145-6.146c3.395 0 6.146 2.751 6.146 6.146z" fill="#b0a162"/><path d="m136.332 392.94901h20.912001v8.99h-20.912001z" fill="#b0a162"/><path d="m162.414 392.94901h20.910999v8.99h-20.910999z" fill="#b0a162"/><path d="m130.935 404.94101h26.309v8.993h-26.309z" fill="#b0a162"/><path d="m162.414 404.94101h26.308001v8.993h-26.308001z" fill="#b0a162"/><path d="m121.942 416.93399h35.301998v8.993h-35.301998z" fill="#b0a162"/><path d="m162.414 416.93399h35.301998v8.993h-35.301998z" fill="#b0a162"/><path d="m113.023 428.927h44.221001v8.992h-44.221001z" fill="#b0a162"/><path d="m162.414 428.927h44.220001v8.992h-44.220001z" fill="#b0a162"/><path d="m145.701 384.85901h28.254999v5.393h-28.254999z" fill="#b0a162"/><path d="m149.358 248.22701h20.940001v132.875h-20.940001z" fill="#b0a162"/><path d="m145.339 238.834h28.979v5.82h-28.979z" fill="#b0a162"/><path d="m154.664 217.788c-1.827 1.192-1.983 3.439.145 4.476-1.811.812-2.751 2.382-1.708 4.25.626 1.118 1.957 1.276 1.845 2.518-.05.58-1.08 1.317-1.343 1.82-2.341 4.479 2.503 5.958 6.191 5.985 3.688-.028 8.532-1.507 6.191-5.985-.263-.503-1.292-1.24-1.345-1.82-.11-1.242 1.222-1.4 1.846-2.518 1.044-1.868.104-3.439-1.707-4.25 2.13-1.037 1.972-3.283.145-4.476-1.297-.847-8.962-.847-10.26 0z" fill="#b0a162"/><path d="m159.802 199.079c-3.192-.077-5.787 5.183-6.03 7.607-.391 3.885 1.374 8.435 6.03 8.275 4.656.16 6.421-4.391 6.031-8.275-.245-2.424-2.84-7.684-6.031-7.607z" fill="#b0a162"/><path d="m144.71 468.87c.745-.731 1.695-1.095 2.85-1.095 1.142 0 2.089.374 2.84 1.121.751.748 1.127 1.669 1.127 2.765 0 1.052-.365 1.941-1.093 2.667-.73.724-1.677 1.087-2.841 1.087-1.199 0-2.165-.366-2.9-1.097-.734-.73-1.102-1.672-1.102-2.823 0-1.018.373-1.894 1.119-2.625zm-3.932 9.841c-.798 1.061-1.197 2.378-1.197 3.949 0 2.111.733 3.872 2.197 5.283 1.465 1.413 3.391 2.119 5.781 2.119 2.388 0 4.316-.703 5.781-2.11 1.464-1.407 2.197-3.144 2.197-5.21 0-1.494-.386-2.78-1.156-3.857s-1.893-1.857-3.368-2.341c1.194-.453 2.086-1.097 2.673-1.931.586-.833.881-1.813.881-2.94 0-1.768-.646-3.268-1.937-4.499-1.291-1.232-2.996-1.848-5.113-1.848-2.106 0-3.794.602-5.063 1.807-1.27 1.204-1.902 2.689-1.902 4.456 0 1.171.297 2.177.893 3.017.595.84 1.509 1.485 2.744 1.938-1.475.385-2.612 1.106-3.411 2.167zm3.214.495c.914-.923 2.078-1.385 3.493-1.385 1.448 0 2.646.468 3.594 1.402.947.935 1.42 2.116 1.42 3.544 0 1.408-.459 2.567-1.379 3.48-.919.912-2.098 1.368-3.534 1.368-.916 0-1.775-.217-2.577-.651s-1.4-1.046-1.794-1.837c-.396-.792-.594-1.611-.594-2.457 0-1.387.457-2.541 1.371-3.464z" fill="#b0a162"/><path d="m170.627 477.537c-.884.967-2.012 1.451-3.386 1.451-1.376 0-2.525-.484-3.446-1.451s-1.381-2.224-1.381-3.773c0-1.724.484-3.128 1.456-4.21.97-1.083 2.122-1.626 3.454-1.626 1.288 0 2.381.503 3.281 1.509.899 1.005 1.349 2.365 1.349 4.079 0 1.712-.444 3.054-1.327 4.021zm-8.708 11.106c1.202 1.049 2.75 1.572 4.647 1.572 1.785 0 3.341-.478 4.669-1.438 1.329-.957 2.33-2.355 3.002-4.188.673-1.835 1.009-4.298 1.009-7.395 0-2.974-.337-5.245-1.013-6.815-.676-1.571-1.663-2.779-2.964-3.627s-2.736-1.273-4.305-1.273c-2.174 0-3.983.75-5.426 2.25-1.442 1.498-2.164 3.478-2.164 5.936 0 2.381.691 4.3 2.075 5.755 1.383 1.456 3.075 2.184 5.074 2.184 1.197 0 2.31-.294 3.336-.882 1.027-.589 1.838-1.354 2.431-2.3.01.263.016.461.016.593 0 1.232-.149 2.44-.448 3.627-.298 1.187-.664 2.129-1.098 2.827-.436.697-1.001 1.255-1.697 1.672-.697.418-1.502.626-2.418.626-1.071 0-1.949-.296-2.632-.89-.684-.594-1.147-1.55-1.391-2.866l-2.87.211c.245 1.899.966 3.373 2.167 4.421z" fill="#b0a162"/><path d="m192.694 486.77v2.87h-14.411c-.022-.717.096-1.406.35-2.069.409-1.092 1.066-2.166 1.968-3.222.903-1.057 6.912-7.55 7.848-8.808s1.405-2.452 1.405-3.579c0-1.176-.426-2.168-1.274-2.976-.849-.807-1.955-1.211-3.319-1.211-.723 0-1.208.429-2.074 1.288-.866.858-1.305 2.048-1.315 3.566l-3.04-.295c.21-2.281.999-4.019 2.368-5.214 1.37-1.195 1.818-1.793 4.127-1.793 2.328 0 4.173.643 5.529 1.931 1.357 1.287 2.037 2.883 2.037 4.785 0 .97-.198 1.919-.595 2.855-.396.936-1.054 1.92-1.974 2.955-.92 1.034-6.132 6.773-6.647 7.308-.516.535-.943 1.07-1.281 1.61h10.298z" fill="#b0a162"/><path d="m135.941 468.551v-2.446h-7.03v2.446h4.381v20.885h2.649z" fill="#b0a162"/><path d="m187.54 341.478c-5.818 0-11.999-5.091-11.999-11.876 0-6.787 4.97-13.575 11.514-13.575 6.545 0 10.953 4.319 10.953 4.319l18.023-18.605s-10.144-11.624-33.085-11.48l-38.956-.121c0-8.721 7.558-8.066 7.558-8.066h12.791v-22.012c-46.591-6.416-48.617 30.393-48.617 30.393s-4.747.538-7.903 1.535c-3.156 1-6.854 3.457-6.854 3.457v-4.651h-23.838v74.214l24.188-.171s0-22.398 0-34.098c0-11.702 15.713-12.371 15.713-12.371v46.136h24.071v-47.473h10.031c-6.019 23.735 8.561 37.443 8.561 37.443 29.217 28.083 54.998 2.273 54.998 2.273l-17.573-18.664c-.002 0-3.759 3.393-9.576 3.393z" fill="#2c4a7a"/><path d="m105.284 298.531c-4.955 2.716-8.141 6.107-8.141 6.107s-.007-9.773-.007-10.013c-4.363 0-11.816 0-16.18 0v66.528c4.43-.031 12.149-.086 16.528-.117 0-6.002 0-30.296 0-30.296 0-11.691 8.107-20.699 18.576-20.699v-13.745c0 .001-5.862-.461-10.776 2.235z" fill="#cd242b"/><path d="m154.27 327.714c0 20.397 16.378 35.287 30.97 35.287 15.782 0 23.89-6.568 23.89-6.568-3.348-3.554-9.851-10.461-12.608-13.391-2.11 1.124-5.162 2.265-8.982 2.265-7.487 0-15.827-6.45-15.827-15.705 0-8.404 6.165-17.403 15.342-17.403 4.495 0 8.117 1.626 10.513 3.099 2.889-2.982 9.545-9.854 12.926-13.342-4.058-3.04-9.953-7.743-25.254-7.743-15.301-.001-30.97 18.015-30.97 33.501z" fill="#cd242b"/><path d="m216.395 261.75101h20.702999v104.687h-20.702999z" fill="#2c4a7a"/><g fill="#b0a162"><path d="m291.285 307.72c-2.045 2.368-4.035 4.972-5.374 7.767-1.484 3.096-2.068 6.522-2.421 9.911-.442 4.238.23 8.429-.006 12.646 3.122-3.115 5.494-6.724 7.753-10.502 1.104-1.846 2.243-3.678 2.83-5.774.653-2.328.768-4.462.644-6.863-.053-1.008-.219-2.198-.088-3.208.168-1.309 1.092-2.475 1.296-3.854.224-1.516.066-3.12.714-4.549-1.873.593-3.311 2.122-4.583 3.555-.256.286-.511.576-.765.871z"/><path d="m28.329 307.72c2.045 2.368 4.034 4.972 5.373 7.767 1.483 3.096 2.069 6.522 2.421 9.911.442 4.238-.229 8.429.007 12.646-3.123-3.115-5.493-6.724-7.753-10.502-1.104-1.846-2.243-3.678-2.831-5.774-.652-2.328-.768-4.462-.644-6.863.052-1.008.22-2.198.087-3.208-.168-1.309-1.093-2.475-1.295-3.854-.224-1.516-.066-3.12-.715-4.549 1.875.593 3.313 2.122 4.584 3.555.256.286.512.576.766.871z"/><path d="m295.753 347.763c-.396 2.583-1.383 5.088-2.881 7.238-.853 1.224-1.697 2.417-2.671 3.531-1.109 1.271-2.639 2.132-3.988 3.106-1 .722-2.02 1.134-3.148 1.567-.854.328-1.662 1.017-2.506 1.227.291-.904.246-1.817.345-2.749.133-1.264.539-2.435.712-3.678.315-2.237.848-4.254 1.746-6.325.884-2.04 1.671-4.061 2.874-5.91 1.213-1.866 2.734-3.455 4.246-5.05 1.14-1.202 2.457-2.318 3.885-3.165 1.301-.771 2.22-1.411 3.143-2.652-1.137 1.531-.843 4.615-.939 6.405-.115 2.106-.494 4.347-.818 6.455z"/><path d="m23.86 347.763c.396 2.583 1.383 5.088 2.881 7.238.852 1.224 1.697 2.417 2.671 3.531 1.109 1.271 2.638 2.132 3.988 3.106 1 .722 2.02 1.134 3.147 1.567.854.328 1.663 1.017 2.506 1.227-.292-.904-.247-1.817-.346-2.749-.132-1.264-.538-2.435-.712-3.678-.314-2.237-.846-4.254-1.745-6.325-.884-2.04-1.671-4.061-2.873-5.91-1.214-1.866-2.734-3.455-4.247-5.05-1.139-1.202-2.458-2.318-3.885-3.165-1.301-.771-2.22-1.411-3.143-2.652 1.138 1.531.844 4.615.94 6.405.115 2.106.495 4.347.818 6.455z"/><path d="m243.996 425.604c.6-4.219 2.307-8.294 1.943-12.678-.401-4.852-3.57-8.981-4.333-13.701-.212-1.311-.282-2.795.232-4.041-.698.352-1.759 1.532-2.268 2.184-.701.897-1.285 1.94-1.769 2.989-.828 1.797-1.18 3.96-1.505 5.928-.677 4.105-.653 9.205.787 13.122 1.034 2.811 3.56 6.486 6.962 6.361.01-.869.333-1.677.392-2.553"/><path d="m75.617 425.604c-.6-4.219-2.305-8.294-1.941-12.678.4-4.852 3.57-8.981 4.332-13.701.212-1.311.282-2.795-.232-4.041.697.352 1.758 1.532 2.268 2.184.7.897 1.285 1.94 1.768 2.989.829 1.797 1.18 3.96 1.505 5.928.675 4.105.654 9.205-.788 13.122-1.036 2.811-3.559 6.486-6.961 6.361-.009-.869-.332-1.677-.391-2.553"/><path d="m222.844 438.244c.823 2.224 2.029 4.143 3.629 5.905.399.439.797.873.968 1.427.23-.534.145-1.224.374-1.825.424-1.104 1.419-2.241 2.127-3.183 1.37-1.82 2.054-4.168 2.282-6.377.265-2.571.137-5.053-.381-7.595-.496-2.434-1.546-4.479-2.563-6.737-.78-1.735-1.176-3.624-1.679-5.381-.558 1.773-1.686 3.383-2.481 5.108-.885 1.924-1.531 3.873-2.164 5.866-1.33 4.19-1.661 8.61-.112 12.792z"/><path d="m96.771 438.244c-.824 2.224-2.03 4.143-3.63 5.905-.399.439-.798.873-.969 1.427-.229-.534-.144-1.224-.373-1.825-.425-1.104-1.419-2.241-2.128-3.183-1.369-1.82-2.053-4.168-2.282-6.377-.265-2.571-.137-5.053.381-7.595.495-2.434 1.546-4.479 2.563-6.737.779-1.735 1.175-3.624 1.678-5.381.558 1.773 1.687 3.383 2.482 5.108.885 1.924 1.53 3.873 2.164 5.866 1.331 4.19 1.662 8.61.114 12.792z"/><path d="m274.895 352.547c0-9.479-.573-18.432-1.571-26.846-3.202 1.561-8.07-.134-10.387-2.412-1.7-1.672-2.606-3.861-3.303-6.131-.641-2.094-1.121-4.244-1.541-6.366-.299-1.511-1.384-4.341-.538-5.792 1.147.87 2.128 2.009 3.245 2.96 1.476 1.261 2.976 2.438 4.418 3.717 1.432 1.27 2.944 2.39 4.299 3.747.765.764 1.879 1.557 2.734 2.439-.869-5.587-1.919-10.913-3.106-15.97-.38-.017-.754-.067-.968-.107-5.058-.939-9.55-4.375-12.649-8.322-1.601-2.037-3.21-4.314-4.125-6.732-.374-.98-.648-2.059-.945-3.093-.23-.8-.84-2.248-.717-3.004 1.496.639 3.06 1.713 4.525 2.52 2.138 1.179 4.292 2.348 6.257 3.777 1.501 1.092 2.893 2.093 4.27 3.344.34.308.993.743 1.621 1.215-8.487-29.218-20.965-47.803-25.856-54.345-.233-.066-3.511-2.807-4.003-3.178-2.218-1.673-4.848-2.712-7.343-4.03-1.962-1.034-3.766-2.016-5.311-3.654-1.412-1.495-2.422-3.279-3.716-4.847-2.58-3.129-4.153-6.719-5.567-10.435 2.527 1.795 5.434 3.263 8.375 4.485 2.752 1.144 5.546 2.195 8.069 3.713 2.5 1.503 4.573 3.279 6.56 5.405 1.594 1.705 2.785 3.657 3.625 5.836.386 1.004 1.409 3.602 1.532 3.929 5.303 7.293 36.224 52.572 36.224 117.003 0 20.256-5.103 38.431-12.716 54.283 2.351-2.814 6.188-4.509 9.569-5.561 1.861-.58 3.718-.91 5.575-1.416 2.012-.548 4.04-1.162 6.091-1.567-.849.168-1.596 1.236-2.077 1.854-.868 1.118-1.772 2.202-2.605 3.346-2.42 3.324-3.897 7.231-6.634 10.355-1.558 1.782-3.683 3.325-5.904 4.249-1.551.646-4.222 1.063-5.775.264-1.914-.984-2.007-3.116-1.422-5.294-3.435 6.351-7.244 12.294-11.246 17.805 1.591-.907 3.447-1.474 5.239-1.805 3.023-.56 6.106-.607 9.166-.801 2.979-.189 5.86-.839 8.807-1.271-2.564 2.198-4.965 5.013-7.18 7.565-1.399 1.611-3.228 2.739-4.951 3.995-1.693 1.233-3.606 2.297-5.595 2.948-2.053.671-5.333 1.311-7.33.219-1.728-.947-2.577-3.323-2.306-5.182.013-.088.036-.168.052-.255-22.183 28.189-48.043 43.714-48.043 43.714v-9.984c.003-.002 75.177-46.399 75.177-116.287z"/><path d="m44.718 352.547c0-9.479.573-18.432 1.571-26.846 3.204 1.561 8.071-.134 10.388-2.412 1.7-1.672 2.605-3.861 3.302-6.131.641-2.094 1.122-4.244 1.542-6.366.299-1.511 1.384-4.341.538-5.792-1.147.87-2.129 2.009-3.245 2.96-1.476 1.261-2.976 2.438-4.419 3.717-1.432 1.27-2.943 2.39-4.299 3.747-.765.764-1.879 1.557-2.734 2.439.869-5.587 1.918-10.913 3.105-15.97.38-.017.753-.067.968-.107 5.059-.939 9.55-4.375 12.651-8.322 1.599-2.037 3.208-4.314 4.123-6.732.372-.98.649-2.059.945-3.093.229-.8.84-2.248.716-3.004-1.496.639-3.061 1.713-4.524 2.52-2.138 1.179-4.292 2.348-6.257 3.777-1.502 1.092-2.893 2.093-4.27 3.344-.34.308-.994.743-1.622 1.215 8.487-29.218 20.965-47.803 25.856-54.345.232-.066 3.512-2.807 4.003-3.178 2.218-1.673 4.847-2.712 7.344-4.03 1.96-1.034 3.766-2.016 5.311-3.654 1.411-1.495 2.421-3.279 3.715-4.847 2.58-3.129 4.154-6.719 5.567-10.435-2.528 1.795-5.434 3.263-8.375 4.485-2.752 1.144-5.546 2.195-8.068 3.713-2.5 1.503-4.574 3.279-6.562 5.405-1.593 1.705-2.785 3.657-3.624 5.836-.387 1.004-1.409 3.602-1.533 3.929-5.303 7.293-36.224 52.572-36.224 117.003 0 20.256 5.104 38.431 12.716 54.283-2.35-2.814-6.188-4.509-9.569-5.561-1.86-.58-3.717-.91-5.575-1.416-2.013-.548-4.039-1.162-6.09-1.567.849.168 1.596 1.236 2.076 1.854.868 1.118 1.772 2.202 2.605 3.346 2.421 3.324 3.898 7.231 6.634 10.355 1.56 1.782 3.685 3.325 5.906 4.249 1.551.646 4.222 1.063 5.774.264 1.914-.984 2.008-3.116 1.423-5.294 3.436 6.351 7.244 12.294 11.248 17.805-1.592-.907-3.449-1.474-5.241-1.805-3.023-.56-6.105-.607-9.166-.801-2.979-.189-5.859-.839-8.807-1.271 2.564 2.198 4.965 5.013 7.18 7.565 1.398 1.611 3.228 2.739 4.952 3.995 1.69 1.233 3.604 2.297 5.593 2.948 2.054.671 5.334 1.311 7.331.219 1.728-.947 2.576-3.323 2.305-5.182-.014-.088-.036-.168-.052-.255 22.182 28.189 48.042 43.714 48.042 43.714v-9.984c.001-.002-75.174-46.399-75.174-116.287z"/><path d="m257.979 255.654c-1.163.413-1.526-2.723-1.874-3.349-.985-1.767-2.606-3.079-3.588-4.782-1.784-3.091-3.21-7.282-3.566-10.867-.187-1.869-.368-3.698-.264-5.524.096-1.685-.17-4.089 1.33-5.267 1.249-.98 2.216 1.925 2.653 2.896.785 1.749 1.444 3.627 2.457 5.314 1.039 1.735 2.281 3.251 3.145 5.107.906 1.942 1.587 4.046 2.002 6.129.395 1.975.477 3.875-.062 5.842-.294 1.08-.983 4.055-2.233 4.501z"/><path d="m61.635 255.654c1.162.413 1.524-2.723 1.874-3.349.985-1.767 2.604-3.079 3.587-4.782 1.784-3.091 3.209-7.282 3.566-10.867.186-1.869.368-3.698.263-5.524-.096-1.685.171-4.089-1.329-5.267-1.25-.98-2.217 1.925-2.653 2.896-.785 1.749-1.444 3.627-2.457 5.314-1.039 1.735-2.282 3.251-3.146 5.107-.905 1.942-1.586 4.046-2.003 6.129-.394 1.975-.477 3.875.062 5.842.297 1.08.986 4.055 2.236 4.501z"/><path d="m225.264 238.115c1.5-.136 3.982.906 5.472 1.378 2.62.832 5.135 1.621 7.597 2.813 2.062.999 3.979 2.311 5.534 4.005 1.386 1.509 3.208 3.896 3.745 5.893-1.48.34-3.002-.067-4.48-.064-1.608.003-3.146-.394-4.644-1.003-2.02-.823-3.702-2.314-5.29-3.793-2.983-2.777-5.519-6.021-7.934-9.229z"/><path d="m94.35 238.115c-1.501-.136-3.981.906-5.471 1.378-2.619.832-5.134 1.621-7.597 2.813-2.064.999-3.979 2.311-5.534 4.005-1.385 1.509-3.208 3.896-3.744 5.893 1.479.34 3-.067 4.479-.064 1.609.003 3.146-.394 4.645-1.003 2.021-.823 3.702-2.314 5.29-3.793 2.981-2.777 5.517-6.021 7.932-9.229z"/><path d="m250.365 263.186c4.005 2.729 6.686 6.583 8.381 11.051-1.348.661-2.784 1.099-4.309 1.079-4.395-.058-8.036-3.24-10.51-6.552-1.433-1.918-2.397-4.133-3.447-6.264-.876-1.779-1.815-3.8-2.404-5.647 1.989.804 3.865 1.885 5.827 2.772 2.178.988 4.486 2.216 6.462 3.561z"/><path d="m69.25 263.186c-4.006 2.729-6.687 6.583-8.382 11.051 1.348.661 2.783 1.099 4.308 1.079 4.397-.058 8.036-3.24 10.511-6.552 1.433-1.918 2.397-4.133 3.447-6.264.877-1.779 1.816-3.8 2.403-5.647-1.988.804-3.864 1.885-5.825 2.772-2.18.988-4.487 2.216-6.462 3.561z"/><path d="m274.952 278.036c-.728 1.182-1.534 2.954-2.875 3.582-1.935.905-3.454-1.984-4.118-3.377-1.103-2.318-1.507-4.707-1.837-7.196-.271-2.025-.085-4.378.108-6.412.225-2.337.33-4.636.874-6.916.545-2.291 1.307-4.577 2.049-6.811.31-.932.642-1.844.936-2.785.236-.76.167-1.574.657-2.243 1.043 1.584 1.547 3.782 2.387 5.548.947 1.99 2.018 3.942 2.619 6.033 1.333 4.64 2.177 9.245 1.256 14.051-.449 2.337-.781 4.456-2.056 6.526z"/><path d="m44.662 278.036c.729 1.182 1.535 2.954 2.875 3.582 1.934.905 3.455-1.984 4.117-3.377 1.104-2.318 1.508-4.707 1.839-7.196.27-2.025.083-4.378-.111-6.412-.223-2.337-.329-4.636-.871-6.916-.547-2.291-1.309-4.577-2.051-6.811-.31-.932-.64-1.844-.935-2.785-.238-.76-.167-1.574-.657-2.243-1.043 1.584-1.547 3.782-2.387 5.548-.947 1.99-2.017 3.942-2.619 6.033-1.333 4.64-2.177 9.245-1.255 14.051.448 2.337.779 4.456 2.055 6.526z"/><path d="m286.813 294.446c-.791 3.382-2.079 6.3-3.647 9.387-1.057 2.078-2.83 3.688-4.193 5.534.021-1.486-.943-3.303-1.233-4.802-.18-.932-.31-1.849-.357-2.785-.063-1.25-.116-2.479-.14-3.693-.073-4.043.209-7.925 1.738-11.905.852-2.22 2.027-4.154 3.185-6.214.683-1.21 1.277-2.457 2.102-3.592.35-.483 1.867-2.497 2.418-2.587.709-.116.821 2.143.905 2.759.335 2.51.313 5.053.31 7.58-.005 3.464-.298 6.938-1.088 10.318z"/><path d="m32.8 294.446c.791 3.382 2.078 6.3 3.647 9.387 1.058 2.078 2.832 3.688 4.194 5.534-.021-1.486.942-3.303 1.233-4.802.18-.932.309-1.849.356-2.785.063-1.25.117-2.479.139-3.693.074-4.043-.208-7.925-1.737-11.905-.852-2.22-2.026-4.154-3.185-6.214-.682-1.21-1.277-2.457-2.101-3.592-.35-.483-1.867-2.497-2.418-2.587-.708-.116-.822 2.143-.904 2.759-.336 2.51-.314 5.053-.31 7.58.004 3.464.297 6.938 1.086 10.318z"/><path d="m261.257 342.231c-.445-2.081-.425-4.336-.444-6.459-.017-1.78-.171-4.111.553-5.731.304.658.39 1.311.769 1.938 1.31 2.156 3.464 3.97 5.3 5.672 1.707 1.581 3.035 3.506 3.986 5.644.916 2.058 1.341 4.224 1.697 6.432.342 2.132.581 4.163.347 6.299-1.905.064-3.983-2.33-5.439-3.348-3.526-2.464-5.876-6.281-6.769-10.447z"/><path d="m58.357 342.231c.445-2.081.423-4.336.444-6.459.017-1.78.172-4.111-.553-5.731-.305.658-.389 1.311-.77 1.938-1.31 2.156-3.463 3.97-5.3 5.672-1.706 1.581-3.034 3.506-3.985 5.644-.914 2.058-1.341 4.224-1.697 6.432-.343 2.132-.582 4.163-.347 6.299 1.905.064 3.983-2.33 5.438-3.348 3.526-2.464 5.877-6.281 6.77-10.447z"/><path d="m267.077 380.631c-1.738-1.115-3.74-2.06-5.163-3.619-3.27-3.589-4.476-7.645-5.081-12.366-.288-2.234.137-4.513.348-6.73.174-1.822-.122-4.161.353-5.924 1.171 1.9 2.588 3.584 4.248 5.104 2.008 1.842 3.985 3.729 5.295 6.184.992 1.854 1.775 3.863 2.058 5.941.279 2.055.417 4.196-.024 6.248-.398 1.849-.886 3.622-2.034 5.162z"/><path d="m52.537 380.631c1.737-1.115 3.741-2.06 5.162-3.619 3.271-3.589 4.477-7.645 5.082-12.366.287-2.234-.138-4.513-.349-6.73-.173-1.822.121-4.161-.352-5.924-1.173 1.9-2.589 3.584-4.247 5.104-2.01 1.842-3.985 3.729-5.296 6.184-.992 1.854-1.775 3.863-2.058 5.941-.279 2.055-.418 4.196.024 6.248.397 1.849.886 3.622 2.034 5.162z"/><path d="m281.071 388.498c-2.045 1.364-4.43 1.994-6.484 3.267.241-3.145 1.263-5.979 2.635-8.671 1.063-2.085 2.332-4.086 3.613-6.079 1.366-2.127 2.942-4.297 4.846-5.998 1.799-1.605 3.706-2.85 5.559-4.254 1.268-.96 2.876-1.819 4.344-2.396-.284 1.227-1.065 2.541-1.407 3.796-.372 1.369-.962 2.744-1.522 4.065-1.717 4.052-2.979 8.051-5.998 11.38-1.664 1.838-3.521 3.513-5.586 4.89z"/><path d="m38.543 388.498c2.046 1.364 4.431 1.994 6.483 3.267-.241-3.145-1.263-5.979-2.634-8.671-1.062-2.085-2.334-4.086-3.613-6.079-1.366-2.127-2.943-4.297-4.847-5.998-1.799-1.605-3.705-2.85-5.558-4.254-1.267-.96-2.876-1.819-4.345-2.396.284 1.227 1.064 2.541 1.408 3.796.372 1.369.962 2.744 1.522 4.065 1.716 4.052 2.979 8.051 5.999 11.38 1.664 1.838 3.521 3.513 5.585 4.89z"/><path d="m258.271 401.264c-.712 2.351-2.248 2.037-4.008.773-1.465-1.051-2.144-2.21-2.503-3.962-.376-1.841-.424-3.605-.505-5.503-.09-2.063-.254-4.301-.07-6.353.187-2.079.467-4.193.581-6.265.101-1.832-.171-4.165.374-5.918.317.977 1.123 1.835 1.75 2.648 1.011 1.31 1.719 2.737 2.54 4.178 2.184 3.829 3.41 7.639 3.41 12.078 0 2.038-.092 3.99-.684 5.96-.25.83-.637 1.544-.885 2.364z"/><path d="m61.342 401.264c.713 2.351 2.248 2.037 4.009.773 1.465-1.051 2.144-2.21 2.501-3.962.377-1.841.426-3.605.508-5.503.089-2.063.252-4.301.068-6.353-.188-2.079-.467-4.193-.58-6.265-.101-1.832.171-4.165-.375-5.918-.317.977-1.122 1.835-1.75 2.648-1.011 1.31-1.718 2.737-2.539 4.178-2.184 3.829-3.41 7.639-3.41 12.078 0 2.038.091 3.99.683 5.96.251.83.638 1.544.885 2.364z"/><path d="m244.313 451.347c5.552-.287 11.081.111 16.578-.556-1.111.721-1.604 2.089-2.738 2.788-1.346.83-2.595 1.884-3.956 2.737-2.459 1.543-4.949 3.071-7.7 4.006-2.355.799-5.003 1.109-7.455 1.141-1.956.028-4.829-.762-6.026-2.447-.912-1.285-.643-2.909.241-4.119 2.395-3.281 7.341-3.358 11.056-3.55z"/><path d="m75.3 451.347c-5.552-.287-11.081.111-16.578-.556 1.111.721 1.603 2.089 2.738 2.788 1.347.83 2.596 1.884 3.958 2.737 2.458 1.543 4.948 3.071 7.7 4.006 2.355.799 5.002 1.109 7.454 1.141 1.956.028 4.83-.762 6.026-2.447.912-1.285.643-2.909-.24-4.119-2.396-3.281-7.342-3.358-11.058-3.55z"/><path d="m154.028 188.617v4.412h3.595v3.594h4.412v-3.594h3.593v-4.412h-3.593v-3.595h-4.412v3.595z"/></g></g></svg>