<svg enable-background="new 0 0 600 600" viewBox="0 0 600 600" xmlns="http://www.w3.org/2000/svg"><path d="m290.243 5.119s-21.442 20.039-21.513 20.107c-1.54 1.415-37.363 33.495-101.027 16.198l-43.513-10.843-37.873 135.72 3.599 3.953c.582.643 14.195 16.096 8.167 51.476l-.335 1.972c-1.36 8.015-4.182 24.7-7.553 39.474-8.065 35.318-19.109 83.686-19.109 132.82 0 34.841 12.926 84.493 74.51 123.161 26.52 16.656 52.989 28.643 76.341 39.222 19.875 9.003 38.639 17.505 51.552 26.454.019.013 23.177 16.056 23.177 16.056l23.148-16.034c12.948-8.976 31.715-17.477 51.584-26.476 23.354-10.579 49.826-22.567 76.342-39.223 61.582-38.667 74.508-88.318 74.508-123.159 0-49.135-11.043-97.503-19.104-132.82-3.369-14.752-6.195-31.427-7.551-39.44l-.339-2.007c-6.03-35.378 7.585-50.832 8.167-51.474l3.5-3.849-1.301-5.118-36.475-130.708-43.515 10.843c-63.705 17.309-99.537-14.828-101.031-16.203.042.036-6.399-5.98-6.399-5.98l-21.532-20.128z" fill="#cd242b"/><path d="m296.668 11.994c-3.483 3.255-21.55 20.139-21.558 20.146-1.668 1.538-41.215 37.02-109.872 18.362l-34.444-8.579-34.018 121.896s17.61 18.238 10.582 59.491c-1.17 6.859-4.247 25.554-7.992 41.959-7.966 34.891-18.871 82.655-18.871 130.727 0 32.469 12.162 78.809 70.106 115.192 25.973 16.313 52.136 28.164 75.218 38.62 20.273 9.181 39.414 17.855 53.032 27.291.003.004 14.007 9.706 17.817 12.343 3.808-2.637 17.813-12.339 17.819-12.343 13.615-9.436 32.755-18.11 53.028-27.291 23.083-10.456 49.247-22.307 75.22-38.62 57.942-36.382 70.104-82.723 70.104-115.192 0-48.071-10.905-95.836-18.87-130.727-3.747-16.405-6.824-35.1-7.992-41.959-7.031-41.253 10.578-59.491 10.578-59.491l-34.015-121.896-34.443 8.579c-68.656 18.658-108.205-16.824-109.873-18.362-.007-.007-6.449-6.026-6.449-6.026s-11.624-10.865-15.107-14.12z" fill="#2c4a7a"/><path d="m291.168 49.329c-2.02 1.894-50.378 46.082-132.1 23.874l-9.02-2.452-26.164 93.76.499 2.286c.063.297 6.498 30.08 6.498 56.513 0 9.606-3.976 27.024-8.582 47.196-7.716 33.789-18.28 80.063-18.28 125.49 0 26.536 10.251 64.605 59.089 95.271 24.618 15.459 50.012 26.963 72.419 37.113 21.266 9.634 41.353 18.731 56.724 29.384l5.358 3.713 5.36-3.715c15.371-10.652 35.457-19.75 56.727-29.385 22.403-10.148 47.797-21.652 72.416-37.111 48.837-30.666 59.089-68.735 59.089-95.271 0-45.426-10.566-91.701-18.28-125.49-4.607-20.172-8.583-37.59-8.583-47.196 0-26.433 6.435-56.216 6.5-56.513l.5-2.285-26.165-93.761-9.02 2.452c-81.725 22.209-130.082-21.978-132.099-23.872l-6.435-6.03z" fill="#fff"/><path d="m461.109 162.868-22.49-80.585c-87.358 23.74-139.941-25.09-141.01-26.095-1.067 1.005-53.651 49.834-141.009 26.095l-22.488 80.585z" fill="#92adbe"/><path d="m186.069 493.853c41.664 22.98 83.023 36.415 111.54 56.177 28.517-19.762 69.874-33.196 111.542-56.177z" fill="#92adbe"/><path d="m469.789 441.086c8.607-15.014 12.003-30.444 12.003-45.091 0-61.788-19.795-124.252-25.391-158.296h-317.582c-5.597 34.044-25.391 96.508-25.391 158.296 0 14.646 3.396 30.077 12.005 45.091z" fill="#92adbe"/><path d="m190.993 186.299h1.709c5.751 0 12.221.834 12.221 6.531 0 5.698-6.47 6.531-12.221 6.531h-1.709zm17.437 20.495c9.615-1.317 14.828-7.571 14.828-14.799 0-11.186-10.155-16.12-23.547-16.12h-26.33v52.391h17.613v-20.15h.179l16.628 20.15h21.929z" fill="#cd242b"/><path d="m262.317 228.267h-18.353v-40.857h-15.168v-11.535h48.687v11.535h-15.166z" fill="#cd242b"/><path d="m305.303 187.411v8.754h20.131v11.535h-20.131v20.567h-18.351v-52.391h40.543v11.535z" fill="#cd242b"/><path d="m388.213 193.456c-3.744-3.753-9.832-5.768-16.104-5.768-11.235 0-18.821 6.394-18.821 14.522 0 8.27 7.678 14.243 19.104 14.243 5.989 0 11.982-2.153 15.821-5.557v16.329c-6.083 1.391-10.485 2.432-16.199 2.432-9.832 0-19.192-2.78-26.496-7.712-7.772-5.212-11.329-12.021-11.329-19.805 0-7.156 3.65-14.036 10.392-19.177 6.927-5.279 16.947-8.476 26.87-8.476 5.901 0 11.329.972 16.761 2.64v16.329z" fill="#cd242b"/><path d="m418.316 216.733h22.004v11.534h-40.358v-52.391h18.354z" fill="#cd242b"/><path d="m189.818 181.363h1.709c5.753 0 12.221.833 12.221 6.531 0 5.7-6.468 6.531-12.221 6.531h-1.709zm17.436 20.498c9.616-1.32 14.829-7.574 14.829-14.8 0-11.187-10.155-16.121-23.547-16.121h-26.331v52.391h17.613v-20.149h.18l16.626 20.149h21.928z" fill="#2c4a7a"/><path d="m261.141 223.331h-18.351v-40.855h-15.169v-11.536h48.687v11.536h-15.167z" fill="#2c4a7a"/><path d="m304.128 182.477v8.751h20.13v11.536h-20.13v20.567h-18.352v-52.391h40.543v11.536h-22.191z" fill="#2c4a7a"/><path d="m387.038 188.519c-3.744-3.752-9.831-5.766-16.103-5.766-11.236 0-18.821 6.392-18.821 14.522 0 8.268 7.678 14.244 19.102 14.244 5.991 0 11.984-2.153 15.822-5.559v16.329c-6.083 1.392-10.485 2.434-16.199 2.434-9.832 0-19.193-2.78-26.495-7.714-7.772-5.21-11.33-12.02-11.33-19.802 0-7.157 3.652-14.037 10.393-19.178 6.928-5.281 16.947-8.477 26.87-8.477 5.901 0 11.33.973 16.761 2.641z" fill="#2c4a7a"/><path d="m417.141 211.798h22.002v11.533h-40.354v-52.391h18.352z" fill="#2c4a7a"/><path d="m510.706 363.852c-6.417-4.773-11.001-10.092-16.778-17.082-2.955-3.583-5.996-5.857-10.164-7.611-2.822-1.188-5.314-1.264-7.723-1.336l-1.889-.087c-1.653-3.451-4.528-5.893-8.28-6.767l-3.244-.463s-.763-.082-.862-.096c-.059-.058-.287-.316-.754-1.386-1.482-3.399-2.949-5.976-4.61-8.114-3.527-4.53-9.482-6.656-15.136-5.847-.615-1.577-1.405-3.607-1.405-3.607-2.249-6.17-4.573-12.552-11.538-16.643l-4.693-2.421c-2.445-1.177-4.752-2.288-6.612-3.782-2.422-1.953-4.609-4.169-6.922-6.514-2.379-2.413-4.838-4.905-7.602-7.113-5.598-4.475-11.458-8.272-17.415-11.29-13.215-6.693-27.163-9.585-40.335-8.354-5.924.556-11.871 1.425-18.712 2.743l-5.345 1.146c-4.079.916-8.299 1.863-12.439 2.044-5.098.221-10.534.32-17.623.32-13.686 0-27.049-2.353-39.448-4.895l-14.944-2.99-3.401-.774c-2.769-.671-5.629-1.365-8.642-1.385l-4.816.241c-2.671.213-5.193.416-7.744-.112-1.562-.322-3.125-.967-4.78-1.652-2.455-1.014-4.99-2.064-7.893-2.219-4.219-.226-8.034 1.712-11.401 3.423l-1.77.885c-20.082 9.716-33.503 25.396-35.899 41.943-.353 2.426-.53 4.68-.53 6.808 0 4.227.703 7.963 2.144 11.616 1.511 3.827 4.997 10.584 9.151 13.856-.169 1.667-.258 3.277-.304 4.817-.109 3.568-.206 6.651-1.713 10.061l-.254.579c-.648 1.488-1.63 3.732-2.601 4.613-.654.594-1.59.905-2.674 1.264-1.645.547-3.692 1.228-5.31 3.182-2.619 3.175-2.759 7.221-2.88 10.79-.075 2.15-.145 4.182-.699 5.858-1.444 4.362-4.109 8.817-6.683 13.127l-1.926 3.253c-1.887 3.257-4.046 6.329-6.331 9.581-2.283 3.249-6.988 7.756-9.046 11.308l-.817 1.472c-.873 1.621-1.867 3.454-2.978 4.356-.831.673-1.733.984-2.689 1.311-2.217.762-5.251 1.806-5.346 7.279v.215c0 3.96 1.84 8.954 4.422 11.961 1.267 1.473 3 3.121 5.193 2.789 2.45-.37 3.545-2.879 4.343-4.713l.206-.475c1.282-2.96 1.42-3.27 3.733-4.651 3.798-2.27 7.795-8.517 9.253-13.017.657-2.032 1.279-3.954 2.007-5.371 8.905-17.36 22.649-30.885 39.747-39.116 4.3-2.07 7.981-4.329 11.881-6.719l.815-.5c3.43-2.107 9.127-4.103 12.963-5.175 2.814-.783 6.02-1.385 9.212-1.758-.906 3.135-1.157 6.336-1.208 7.179-.304 4.874 1.251 8.95 5.041 13.211.78.876 3.155 3.548 6.253 3.275 2.873-.255 4.782-2.855 5.967-4.787 1.474-2.403 3.156-6.073 3.923-9.598.947.248 1.896.654 2.762 1.375 1.471 1.225 2.424 2.852 2.55 4.355.007.104.014.208.014.316 0 1.138-.486 2.382-.992 3.69-.566 1.46-1.255 3.23-1.255 5.163 0 1.41.367 2.903 1.41 4.419 2.53 3.682 7.345 5.489 11.588 7.081l3.469 1.375c5.126 2.314 8.654 6.002 12.388 9.908l1.537 1.621c2.779 2.936 5.652 5.971 8.992 8.628l3.621 2.69 1.533 1.145-1.285 1.39c-3.044 3.179-6.831 7.136-7.601 11.417-.416 2.294.173 4.523 1.7 6.441 2.75 3.453 7.939 5.213 11.601 5.388 2.235.107 9.035.429 9.866-5.082.032-.216.046-.43.046-.647 0-1.54-.785-3.075-1.607-4.688-.212-.413-.458-.896-.666-1.342 1.528 1.419 3.338 2.685 5.661 3.559 3.039 1.141 10.217 1.499 12.531-1.915.748-1.1 1.583-3.413-1.225-6.503-4.283-4.714-7.968-8.699-11.879-12.508 2.375-3.384 6.102-5.391 10.054-7.5l4.271-2.382c3.747-2.274 6.128-4.259 7.499-6.245 1.09-1.586 1.404-3.46 1.658-4.971.117-.706.313-1.859.542-2.165.052-.016.333-.094 1.175.085 2.137.452 5.329 2.919 7.247 5.01 2.93 3.203 5.688 6.706 8.353 10.095l1.014 1.287c5.068 6.421 12.254 9.956 20.787 10.222 3.918.123 8.401.094 11.93-1.042 1.439-.462 2.685-1.308 3.78-2.051 1.625-1.105 2.675-1.771 3.768-1.536 1.035.222 1.896.815 2.727 1.392.862.595 1.878 1.287 3.067 1.384-.081.323-.135.632-.135.923 0 1.399.9 2.475 2.35 3.646l.521.421s.173.125.39.272c-.08.355-.161.719-.161.719-.114.589-.172 1.18-.172 1.771 0 2.1.721 4.172 2.125 6.077 4.43 6.012 15.451 9.802 21.504 10.472l5.464.603-3.149-4.506c-1.407-2.013-2.796-4.553-4.246-7.763-.441-.982-.446-2.052-.454-3.292-.01-1.715-.022-3.85-1.401-5.886l-1.565-1.755s-.03-.026-.051-.044c-.025-.151-.114-.706-.114-.706-.06-.589-.087-1.259-.087-2.021 0-.761.028-1.614.087-2.569.083-1.376.368-2.547.796-3.781 3.348-.478 7.109-2.302 11.202-5.443.616-.472 1.158-.951 1.661-1.436 1.525 5.075 4.666 9.477 11.165 11.788 5.988 2.128 10.925-.662 15.281-3.126 2.972-1.682 5.782-3.27 8.836-3.47l2.367-.155-.039-2.371c-.01-.563-.016-1.12-.016-1.672 0-6.952.762-13.024 2.171-17.235 1.436-4.293 3.567-9.026 6.087-13.968 1.622 1.55 3.534 2.861 6.507 3.501 1.909.411 4.633.74 6.248-1.126.719-.829.977-1.796.977-2.796 0-1.512-.589-3.098-1.071-4.394-1.179-3.181-1.849-6.056-2.109-9.232 4.587-.237 9.274 2.96 13.344 6.021l1.311.999c5.202 3.983 13.059 10.004 19.882 7.474l2.867-1.06zm-212.797 17.29-.542 2.847c-1.182 6.707-4.478 12.774-8.309 18.198l-1.304-1.073c-10.295-8.05-16.948-15.25-20.943-22.659-3.026-5.614-1.61-7.891 1.446-9.586l1.925-1.011c2.182-1.125 4.578-2.407 6.456-4.171 6.273.501 12.238 1.203 17.896 3.631 5.375 2.306 4.819 6.539 3.375 13.824zm-113.943-105.917-.544.698c-2.578 3.309-5.011 6.437-6.98 10.42l-2.586 4.923c-3.165 5.854-6.525 12.382-7.332 18.899-1.357-.684-2.895-1.813-3.72-2.908-1.185-1.575-1.836-3.584-1.991-6.147-.023-.399-.036-.803-.036-1.205 0-3.234.723-6.584 1.382-9.22 1.9-7.611 7.749-16.578 16.535-19.447l.245-.081c1.927-.631 6.95-2.247 10.001-1.912-.764 1.07-1.634 2.125-2.604 3.208z" fill="#fff"/><path d="m407.422 414.256-.091-.138c0 .001.09.138.091.138z" fill="#fff"/><path d="m426.364 481.862c-.203 1.894-1.977 3.681-4.35 3.681-2.317 0-3.668-1.629-3.446-3.681.266-2.472 2.475-3.892 4.213-3.892 2.265 0 3.8 1.894 3.583 3.892z"/><path d="m193.92 485.175h-30.827l.152-1.341c2.266-.374 3.566-.535 4.883-3.861l9.539-24.072c.159-.427.803-2.197.892-3 .193-1.717-.408-1.824-3.808-2.253l.149-1.34h30.047l-3.534 10.187-1.474-.268c.447-3.969.92-8.206-9.596-8.206-2.337 0-2.881.86-3.491 2.362l-4.734 11.956c8.162.159 9.165-1.341 12.043-5.684l1.533.212-5.755 14.638-1.529-.266c.276-.964.398-1.555.465-2.146.437-3.913-1.161-5.038-7.45-5.038l-4.37 11.204c-.404 1.126-1.145 2.788-1.201 3.272-.131 1.18.285 1.93 3.401 1.93 6.677 0 13.155-2.198 17.751-8.955l1.361.269z"/><path d="m264.598 470.956 10.98-13.518.68 13.518zm25.71 12.404c-3.869-.334-4.434-.334-4.709-4.784l-2.162-31.818h-1.576l-27.439 32.708c-2.726 3.226-3.896 3.504-5.707 3.893l-.17 1.389h12.352l.17-1.389c-1.2 0-4.099 0-3.859-1.948.123-1.002.812-2.002 1.258-2.559l4.409-5.675h13.552c.218 5.954.218 5.954.08 7.065-.331 2.727-2.496 2.894-5.358 3.116l-.169 1.389h19.157z"/><path d="m234.583 456.111c-3.892 0-8.28 3.236-11.664 6.053-2.774 2.267-5.588 4.974-7.71 7.202 5.164-10.126 5.211-10.421 5.286-11.012.069-.547-.085-1.068-.434-1.463-.313-.355-.93-.78-2.09-.78-4.848 0-11.905 6.147-14.562 8.462l-.255.22.167.295 1.004 1.778.644.097c4.521-4.218 6.207-4.849 6.809-4.849.125 0 .243.049.314.127.07.081.097.197.077.347-.033.253-.213 1.075-1.182 3.169-3.134 6.371-6.638 12.886-9.653 18.422l.365.612h5.228.245l.119-.211c8.423-15.064 19.402-22.207 21.127-22.207.154 0 .361.026.46.142.089.101.119.292.089.542-.155 1.219-2.724 5.765-4.991 9.776-2.515 4.451-4.688 8.294-4.849 9.56-.099.78.076 1.427.52 1.932.758.86 2.028.988 2.719.988 4.562 0 10.73-5.743 13.999-9.166l.225-.238-.179-.277-1.133-1.724-.659-.047c-3.878 4.393-6.623 5.869-7.282 5.869-.104 0-.245-.016-.32-.103-.065-.075-.091-.212-.07-.372.142-1.115 3.721-7.519 6.33-12.195 1.924-3.441 3.583-6.41 3.954-7.353.188-.405.293-.755.343-1.147.076-.593-.079-1.128-.451-1.549-.513-.579-1.415-.9-2.54-.9z"/><path d="m386.618 456.111c-3.889 0-8.275 3.236-11.666 6.053-2.776 2.27-5.586 4.975-7.705 7.202 5.162-10.126 5.208-10.421 5.284-11.012.07-.547-.086-1.068-.433-1.464-.316-.354-.932-.779-2.091-.779-4.851 0-11.904 6.147-14.56 8.462l-.257.22.168.295 1.003 1.778.645.097c4.518-4.218 6.205-4.849 6.807-4.849.124 0 .243.049.315.127.07.081.096.197.078.347-.036.257-.216 1.082-1.184 3.169-3.14 6.384-6.641 12.895-9.653 18.422l.366.612h5.228.244l.118-.211c8.425-15.064 19.404-22.207 21.127-22.207.156 0 .362.026.463.142.063.068.13.222.088.542-.155 1.219-2.725 5.765-4.989 9.776-2.518 4.451-4.69 8.294-4.85 9.56-.1.78.077 1.43.519 1.934.759.859 2.028.987 2.718.987 4.565 0 10.728-5.743 13.997-9.166l.229-.238-.182-.277-1.132-1.724-.659-.047c-3.876 4.393-6.622 5.869-7.281 5.869-.104 0-.246-.016-.318-.103-.066-.075-.094-.212-.074-.372.142-1.115 3.719-7.518 6.331-12.195 1.923-3.441 3.583-6.41 3.953-7.353.188-.404.293-.752.343-1.145.077-.595-.079-1.13-.451-1.551-.512-.58-1.414-.901-2.539-.901z"/><path d="m319.868 456.111c-3.122 0-6.138 3.643-6.452 6.021-.032.246-.109.823.258 1.257.254.302.659.469 1.208.493.51.045.923.086 1.077.276.15.19.18.62.091 1.283-.635 4.812-8.521 15.716-14.652 15.716-.952 0-1.602-.19-1.933-.569-.355-.405-.323-1.028-.258-1.528.145-1.102.651-2.492 1.5-4.133 0 0 6.892-13.083 6.894-13.087l.144-.276c.441-.846.941-1.806 1.057-2.688.093-.72-.079-1.353-.504-1.837-.531-.609-1.415-.93-2.547-.93-4.315 0-10.39 4.991-14.409 8.292l-.229.188-.199.164.061.25.549 2.296.683.211c2.554-2.347 6.053-5.553 7.784-5.553.226 0 .381.047.465.142.124.142.105.387.094.461-.026.201-.139.581-.521 1.23-.014.022-6.274 12.305-6.274 12.305-.007.009-.171.353-.171.353-.612 1.282-1.307 2.731-1.504 4.212-.181 1.382.121 2.533.9 3.421.986 1.128 2.73 1.749 4.904 1.749 12.868 0 24.185-21.01 24.849-26.049.154-1.173-.067-2.137-.637-2.787-.507-.576-1.28-.883-2.228-.883z"/><path d="m415.893 458.115h-7.354l4.497-9.479-.416-.591-5.76.563-.234.023-.102.213-4.207 8.968-6.123 1.493-.198.047-.082.189-.774 1.746.379.583h4.92l-8.2 17.757c-.008.014-.25.591-.25.591-.408.961-.832 1.956-.944 2.817-.119.934.081 1.729.581 2.297.545.619 1.399.947 2.471.947 5.07 0 12.3-7.295 15.023-10.041l.206-.208-.128-.264-.964-2.004-.68-.1c-2.835 3.1-6.652 6.441-7.88 6.441-.215 0-.412-.077-.529-.21-.112-.127-.154-.315-.122-.554.068-.547.402-1.451 1.189-3.226-.001.004 5.681-12.373 6.515-14.191h7.742.261l.115-.237 1.422-2.979z"/><path d="m424.715 473.71c1.64-5.42 4.065-13.729 4.983-19.778.344-2.211 1.705-5.051 4.811-5.051.897 0 3.534.474 3.162 3.893-.079.737-.355 1.841-1.055 2.947-1.014 1.577-6.162 9.731-10.418 18.409z"/><path d="m354.708 457.244-.118.251.28-.014z"/><path d="m347.015 457.91.097-.007.042-.089z"/><path d="m350.794 477.516.114.077c.032-.035.065-.065.097-.1z"/><path d="m345.367 481.815c-.346 0-.606-.096-.774-.287-.171-.192-.234-.464-.192-.814.264-2.106 1.954-5.719 3.314-8.621l.214-.456 6.662-14.142-7.478.408-1.57 3.266-.045.091h-.104-.14-.155l-.012-.154c-.102-1.714-.69-3.99-4.59-3.99-8.301 0-20.356 11.716-21.497 20.894-.14 1.117-.28 3.922 1.417 5.84 1.113 1.261 2.825 1.901 5.093 1.901 5.888 0 10.068-5.189 12.081-7.681l.026-.033.04-.016.147-.062.217.219-.02.044c-.776 1.751-1.243 2.81-1.36 3.753-.123.973.106 1.794.678 2.442.974 1.104 2.625 1.395 3.362 1.395 4.011 0 8.347-4.035 11.321-7.487l-1.092-.734c-2.255 2.323-4.226 4.224-5.543 4.224zm-1.67-19.296c-.271 2.168-1.991 6.865-4.646 11.302-1.774 2.963-5.29 7.931-8.931 7.931-.64 0-1.542-.25-2.163-.951-.582-.656-.802-1.57-.659-2.71.241-1.939 2.146-6.529 4.914-10.854 1.888-2.947 5.576-7.889 9.089-7.889.113 0 1.129.022 1.829.813.501.566.689 1.359.567 2.358z"/><path d="m352.124 478.186c-.041.047-.083.094-.123.14l.156.107z"/><path d="m396.859 239.731h3.364l2.668 6.601 2.825-6.601h3.398l1.989 12.347h-3.417l-.958-7.105h-.035l-3.157 7.105h-1.361l-3.016-7.105h-.033l-1.1 7.105h-3.4z" fill="#cd242b"/><path d="m419.68 247.478h-2.843l1.414-3.929h.033zm.924 2.456.854 2.145h3.644l-4.951-12.347h-3.732l-5.055 12.347h3.627l.907-2.145z" fill="#cd242b"/><path d="m430.354 252.079h-3.42v-9.628h-2.822v-2.719h9.066v2.719h-2.824z" fill="#cd242b"/><path d="m436.405 250.491c0 1.047-.904 1.913-2.04 1.913-1.133 0-2.039-.866-2.039-1.913 0-1.064.906-1.918 2.039-1.918 1.136 0 2.04.854 2.04 1.918z" fill="#cd242b"/><path d="m449.986 247.068h-3.102l3.067-4.748h.035zm3.175 0v-7.336h-4.482l-5.074 7.746v2.045h6.381v2.556h3.175v-2.556h1.586v-2.455z" fill="#cd242b"/><path d="m492.648 347.826c-2.712-3.282-5.492-5.441-9.526-7.137-3.408-1.435-5.109-1.185-8.387-1.441.863 2.071 1.011 10.262 1.065 11.713 5.604-.872 9.881 2.658 14.297 5.978 4.807 3.619 13.089 10.664 19.616 8.246-6.797-5.059-11.65-10.808-17.065-17.359z" fill="#2c4a7a"/><path d="m478.183 345.249s-.028 1.114-.028 1.129c0 .064-.007.63-.01.962 5.127.632 9.793 3.561 14.071 6.78.007.005 1.347 1.025 1.347 1.025.621.476 1.276.967 1.935 1.455-1.761-1.979-3.569-4.107-5.567-6.527-2.423-2.931-4.791-4.706-8.176-6.132-1.259-.527-2.476-.689-3.764-.781.092 1.015.192 2.089.192 2.089z" fill="#fff"/><path d="m293.725 409.583c-1.725 2.911-3.414 6.686-4.274 10.349 2.427 3.287 4.759 6.317 8.912 7.876 3.613 1.356 13.372.852 8.587-4.413-4.363-4.8-8.618-9.455-13.225-13.812z" fill="#2c4a7a"/><path d="m282.117 412.319c1.99-2.36 4.093-4.888 6.118-7.585-.668-.558-1.326-1.12-2.018-1.66-8.297-6.49-16.643-14.251-21.599-23.439-2.728-5.064-3.194-9.826 2.431-12.942 2.199-1.22 4.921-2.414 7.018-4.035-.057-.004-.111-.008-.165-.014-6.301-.466-12.812-.953-19.068-3.023l-1.992-.662c-10.351-3.44-21.053-6.996-31.589-7.507-1.867-.091-3.93-.045-6.055.102-1.094 2.669-1.607 6.227-1.745 8.436-.283 4.561 1.327 7.927 4.418 11.401 3.338 3.756 5.632 3.087 8.239-1.16 1.862-3.037 3.766-7.607 3.981-11.029 4.669-.47 9.487 3.848 9.856 8.258.372 4.442-4.157 8.157-1.251 12.388 2.778 4.041 9.679 5.635 14.027 7.596 5.466 2.465 9.164 6.27 13.163 10.455 3.306 3.459 6.486 7.001 10.283 10.022 1.936 1.54 3.986 2.915 5.948 4.398z" fill="#2c4a7a"/><path d="m405.363 415.653c-1.274-1.878-1.897-1.075-2.149-3.658-.155-1.582-.106-3.402-.007-4.987.1-1.628.443-3.019.906-4.361-2.048-.163-3.828-.999-5.56-1.815-1.813-.855-3.528-1.664-5.292-1.496-2.492.239-3.273 2.14-4.188 5.215.222.413.412.85.524 1.358.586 2.67-.395 2.06-1.599 3.873-1.523 2.293-.964 2.379 1.106 4.085 1.977 1.631 1.71.187 1.091 3.384-1.724 8.926 14.416 14.615 21.286 15.374-1.744-2.495-3.242-5.439-4.471-8.165-1.41-3.121.149-6.156-1.647-8.807z" fill="#2c4a7a"/><path d="m415.816 318.736c.699 2.507 4.711 10.669 8.117 7.753 1.889-1.622-.109-3.931-1.911-4.254-2.5-.447-4.596-1.509-6.206-3.499z" fill="#fff"/><path d="m198.405 335.33c-3.073 2.194-3.855-1.223-6.191-1.21-.262 0-3.864.841-3.381 1.044-2.628-1.104-6.54.502-7.673-2.186 2.424-.404 4.628-2.01 6.718-3.389 1.293-.851.954-2.143 2.602-2.804 1.274-.508 2.378.855 3.857.44 1.33-.375 2.745-1.898 3.89-2.099.874-.157 3.074.551 3.457.439 2.498-.732 4.018-1.15 5.962-3.26 1.713.797 1.855.793 3.785 1.258-.112 6.501-17.752 1.773-18.085 8.682 2.599.395 6.13-1.232 8.335-1.693 2.912-.608 4.799 2.653 6.086-2.574 4.728 2.374 4.614-3.213 7.055-5.063 2.236-1.693 7.725 0 7.122-4.897-2.797.535-3.436 3.042-5.988 3.676-2.791.691-4.494-1.199-7.204-1.101-4.331.156-8.216 3.358-12.878 3.852-2.487.261-4.946-.184-7.622.125-1.052.123-1.389 1.845-2.295 2.117-1.043.314-3.121-.907-3.761-.482-3.054 2.036-4.811 10.746-10.733 6.971.161-2.981-.081-5.76 3.448-6.483.011-.152.098-1.453.002-1.477-5.583-1.237-6.385 6.836-11.984 3.656-.755 4.605-.047 8.898-2.016 13.349-.837 1.898-1.946 4.662-3.462 6.033-2.29 2.071-5.602 1.606-7.735 4.186-3.472 4.205-1.471 10.816-3.134 15.843-1.917 5.782-5.768 11.58-8.819 16.846-3.904 6.737-11.391 14.008-15.377 20.889-1.19 2.059-2.478 4.971-4.378 6.513-3.394 2.753-7.019.999-7.115 6.7-.057 3.384 1.607 7.938 3.822 10.51 2.874 3.35 3.891 2.088 5.363-1.293 1.524-3.497 1.795-4.389 4.944-6.271 4.494-2.684 7.866-12.601 10.323-17.388 9.059-17.661 23.128-31.675 40.884-40.223 4.478-2.154 8.316-4.55 12.473-7.099 3.644-2.234 9.538-4.314 13.596-5.448 5.672-1.583 13.155-2.51 19.034-2.223 11.468.554 23.244 4.68 34.023 8.25 13.103 4.336 27.365 1.493 40.157 6.982 8.516 3.653 5.672 11.641 4.306 19.391-2.047 11.613-9.681 20.979-17.088 29.746-2.801 3.316-8.552 8.11-9.396 12.787-.986 5.478 6.46 8.687 10.971 8.901 2.363.113 6.805.236 7.286-2.967.271-1.791-2.45-5.141-2.671-7.246-.573-5.493 2.762-13.05 5.68-17.481 3.61-5.481 9.969-7.692 15.347-10.956 2.168-1.315 5.248-3.36 6.74-5.529 2.249-3.265.033-9.321 5.94-8.074 2.953.624 6.56 3.574 8.567 5.765 3.365 3.676 6.411 7.62 9.487 11.522 4.735 6.001 11.334 9.039 18.91 9.277 3.413.106 7.821.124 11.092-.925 2.975-.957 5.357-4.397 8.83-3.653 4.406.945 5.773 5.876 7.639-.395.98-3.288 1.81-7.113 5.953-7.506 4.301-.414 7.668 3.47 11.946 3.328 3.916-.126 8.065-2.071 11.991-5.767 1.16-1.226 1.515-3.395 1.733-4.914.232-1.592.222-3.109-.05-4.643-6.688-5.018-19.701-18.975-20.284-19.599-.388-.419-.365-1.075.054-1.465.418-.39 1.076-.369 1.467.051.147.161 14.933 16.022 20.983 20.058.401.266.536.759.39 1.194-.018.586-.201 1.292-.228 1.57-.125 1.293-.047 2.504.011 3.799.056 1.245.302 2.481.543 3.685.192.966.539 1.958.791 2.947 1.539 3.487 4.229 6.352 8.896 8.013 2.709.962 5.161.689 7.525-.144-.052-.059-.108-.11-.143-.185-2.445-4.884-10.061-6.623-10.139-6.639-.558-.124-.911-.678-.789-1.237.125-.559.677-.911 1.236-.789.353.078 8.657 1.96 11.545 7.739.058.117.085.241.098.361 4.416-2.049 8.651-5.506 13.786-5.842-.028-1.589-.016-3.281.045-5.02-.121.016-.241.033-.368.033-7.293-.094-12.811-3.029-16.857-8.971-3.799-5.575-7.898-6.512-13.297-3.042-1.156.743-2.697.408-3.439-.748-.744-1.157-.409-2.697.747-3.441 7.663-4.926 14.801-3.356 20.104 4.43 3.107 4.564 7.178 6.722 12.81 6.794.215.002.417.039.617.093.335-3.47.935-6.908 1.925-9.87 1.995-5.948 4.835-12 7.814-17.497 2.274 2.682 3.946 4.586 7.665 5.387 5.254 1.128 4.586-1.543 3.298-5.016-2.071-5.58-2.619-10.287-2.311-16.164.299-5.664-2.08-11.425-7.912-12.786-4.113-.958-4.856.57-6.578-3.371-1.139-2.612-2.522-5.303-4.293-7.582-3.353-4.311-9.426-6.285-14.779-4.649-3.421-7.772-4.513-16.082-12.594-20.828-3.81-2.239-8.253-3.715-11.606-6.414-5.134-4.138-9.282-9.441-14.516-13.623-5.28-4.216-10.954-7.957-16.986-11.012-12.012-6.086-25.489-9.357-38.978-8.096-6.338.592-12.232 1.507-18.474 2.709-5.984 1.153-11.974 2.965-18.148 3.232-5.934.258-11.773.324-17.729.324-13.515 0-26.759-2.241-39.95-4.946-4.934-1.011-9.929-2.011-14.917-2.985-3.815-.746-7.66-2.089-11.583-2.113-4.419-.028-8.572 1.003-13.05.079-4.189-.866-7.973-3.595-12.301-3.825-4.236-.225-8.267 2.279-11.955 4.064-15.978 7.73-31.869 21.768-34.519 40.057-.87 6.006-.779 11.467 1.465 17.151 1.522 3.862 3.478 12.038 8.932 10.89-.07 1.243.718 2.042.732 3.138 2.996.116 4.303-2.542 3.859-5.35.691-.19 1.386-.411 1.991-.549 3.311 5.014 5.649-.382 8.992-.543 3.145-.151 5.513 4.922 8.838-.609 2.438 2.625 11.548 3.663 13.788-.48-1.754.255-4.135.818-6.043.453-1.517-.292-2.827-2.509-3.968-2.668-1.955-.268-3.532 1.357-5.56 1.132-1.899-.211-2.465-2.426-4.731-2.251-.849.066-2.157 3.018-3.984 3.11-3.023.151-2.083-1.443-4.018-2.52-6.833-3.809-13.753-4.759-14.316-14.057-.229-3.792.579-7.823 1.415-11.176 2.26-9.055 9.037-18.228 18.177-21.212 3.564-1.165 11.361-3.811 14.621-.794-1.398 3.294-4.427 5.865-6.611 8.675-2.74 3.528-5.268 6.67-7.256 10.695-2.799 5.665-7.294 13.835-9.203 20.542 2.585.81 4.809 1.259 6.763 3.652 4.287-4.016 6.257-.418 10.235 1.242 3.677-3.842 5.057-1.09 8.006-1.688 1.417-.288 2.73-2.451 3.887-2.54 2.081-.164 3.539 1.308 5.316 1.144.406-.038 3.472-1.983 3.382-2 2.621.584 1.572 2.78 3.769 3.674 3.957 1.608 6.601-.899 9.996-2.305-1.528 5.914 3.555 6.067 7.289 2.64 1.143 1.755-.132 4.716 2.212 5.069 1.524.23 4.45-3.008 5.421-3.853.544 3.504-1.572 5.926-1.453 9.276 1.449-.544 3.362-1.158 4.676-2.223-.576 1.94-4.17 7.41-5.296 8.392-2.142 1.861-5.004 2.322-8.23 2.284-.724 2.677-3.045 4.153-5.6 4.953-.657.205-3.719-.645-4.345-.621-.764.032-1.96 1.581-3.426 1.558-2.296-.037-4.363-1.922-7.345-1.694-2.236.169-3.679 2.298-6.324.384z" fill="#2c4a7a"/><path d="m228.114 324.585c-.715.455-1.813.773-2.602 1.268-1.11.694-1.988.944-3.333.944-1.349 0-2.902-.201-3.942.736-.962.869-1.12 2.633-2.266 3.188-.258.125-.612.225-.891.244-.717.049-1.343-.075-1.51-.821-.167-.756.197-1.887.634-2.509.418-.591.87-.798 1.561-.908 1.011-.163 1.586-.908 2.428-1.36.686-.367 1.562-.436 2.309-.604.781-.176 1.546-.392 2.229-.818.269-.163 2.316-1.941 2.062-2.182 2.113 2.002 4.786.849 7.108-.442.658 4.007-1.875 2.038-3.787 3.264z" fill="#2c4a7a"/><path d="m456.699 369.082c-3.523 4.261-4.657 10.977-5.411 15.425-.095.565.286 1.1.851 1.196.564.095 1.1-.286 1.194-.85.716-4.229 1.795-10.618 4.964-14.449.363-.442.302-1.096-.139-1.461s-1.094-.305-1.459.139z" fill="#fff"/><path d="m398.674 288.221s32.395 7.5 38.393 28.497c0 0-3.898 8.101-8.996 2.101-5.099-5.999 2.099-12.6-27.898-27.6-.001.001-4.801-2.998-1.499-2.998z" fill="#fff"/><path d="m419.949 314.065c.606.688 1.654.75 2.343.144.687-.605.751-1.652.145-2.339-.961-1.091-9.552-10.507-15.063-5.684-3.87 3.384-.684 10.686 3.371 17.037-3.204 1.988-21.381 13.803-24.406 27.918 0 0 14.353-18.24 26.847-24.324 2.375 3.307 4.64 5.995 5.646 7.156.602.692 1.647.766 2.342.167.69-.601.766-1.647.167-2.342-9.083-10.478-14.368-20.847-11.779-23.113 2.395-2.102 8.032 2.717 10.387 5.38z" fill="#fff"/><path d="m437.79 340.491.414 11.617c.001 0-14.937-7.469-.414-11.617z" fill="#fff"/><path d="m432.53 389.173c-1.724 1.946-4.478 3.364-7.116 3.155 1.628-.634 4.105-2.791 4.626-4.402.526-1.635-.495-3.164 1.683-3.97 1.137-.423 2.454-.055 2.737 1.229.319 1.437-1.069 3.016-1.93 3.988z" fill="#fff"/><path d="m393.395 371.333s-1.109-21.717 13.829-33.059c0 0 1.457.285.831 1.385-1.235 2.173-6.421 6.761-8.991 13.279-3.873 9.819-4.011 17.011-3.873 18.396.14 1.383-1.52 2.209-1.796-.001z" fill="#fff"/><path d="m357.847 377.417s15.491-20.746 17.151-26.001c1.659-5.257 4.979-20.469 4.979-35.13 0-3.043 3.04-3.043 2.765-.554-.277 2.489-1.381 30.707-6.085 38.45-4.702 7.744-16.598 26.002-19.086 26.833-2.491.828-.83-2.49.276-3.598z" fill="#fff"/><path d="m440.279 340.628s4.426 18.534-2.213 28.768c0 0-1.496 2.541-.829 3.873.301.605 3.839-1.165 5.521-5.322 2.649-6.552 2.941-26.4-.82-29.534-1.659-1.38-2.63.706-1.659 2.215z" fill="#fff"/><path d="m320.258 143.482h-3.275v-3.745h-.623-3.991v-3.746h-.623-9.397v-25.325c1.318-.594 2.384-1.619 2.853-2.787.446-1.113.367-2.237-.229-3.251-.624-1.062-1.612-1.539-2.481-1.962-.808-.394-1.444-.713-1.79-1.375 1.27-.282 2.224-1.415 2.224-2.771 0-.628-.212-1.206-.562-1.677 1.336-1.368 1.859-3.083 1.392-4.817-.67-2.489-3.109-4.239-6.075-4.353-3.014.114-5.457 1.863-6.126 4.353-.463 1.721.047 3.42 1.358 4.787-.363.475-.587 1.065-.587 1.708 0 1.524 1.208 2.761 2.713 2.829-.354.617-.965.939-1.745 1.317-.872.423-1.86.9-2.482 1.962-.598 1.013-.677 2.138-.229 3.251.476 1.188 1.565 2.227 2.819 2.801v25.311h-10.164v3.746h-4.615v3.745h-3.898l.003 15.913.175.182c1.18 1.211 2.57 1.85 4.025 1.85 3.862 0 7.003-4.614 7.003-10.283l-.03-.592h4.932l-.031.592c0 5.669 3.142 10.283 7.002 10.283 3.859 0 7.002-4.614 7.002-10.283l-.029-.592h5.693l-.03.592c0 5.669 3.141 10.283 7.003 10.283 1.102 0 2.163-.371 3.156-1.101l.252-.186.029-16.658h-.622z" fill="#fff"/><path d="m297.86 119.616c-11.304 0-20.501-9.194-20.501-20.492 0-11.304 9.197-20.497 20.501-20.497 11.295 0 20.487 9.192 20.487 20.497 0 11.298-9.192 20.492-20.487 20.492zm29.997-20.414c.008-2.505-1.726-4.599-4.06-5.181.781-.566 1.407-1.329 1.792-2.245.275-.661.413-1.354.413-2.051 0-.688-.138-1.375-.406-2.031-.954-2.316-3.359-3.588-5.733-3.229.501-.826.792-1.768.792-2.764 0-1.422-.557-2.763-1.561-3.771-1.766-1.771-4.476-2.02-6.529-.781.364-2.372-.897-4.782-3.213-5.743-2.311-.96-4.907-.151-6.33 1.781-.572-2.33-2.665-4.072-5.162-4.072-2.415 0-4.429 1.612-5.09 3.807-1.435-1.787-3.909-2.531-6.139-1.632-2.322.936-3.609 3.333-3.269 5.714-2.038-1.264-4.755-1.042-6.54.71-1.787 1.754-2.056 4.465-.83 6.533-2.369-.386-4.789.859-5.77 3.164-.977 2.305-.188 4.909 1.737 6.349-2.334.552-4.098 2.629-4.115 5.132-.02 2.503 1.708 4.61 4.039 5.2-1.398 1.007-2.225 2.626-2.225 4.323 0 .664.124 1.342.39 1.995.942 2.318 3.343 3.603 5.722 3.257-.528.852-.805 1.817-.805 2.789 0 1.357.511 2.71 1.532 3.748 1.759 1.782 4.462 2.045 6.534.815-.044.281-.085.559-.085.838 0 2.08 1.229 4.063 3.264 4.921 2.306.972 4.909.179 6.342-1.752.558 2.335 2.643 4.089 5.151 4.103 2.5.014 4.596-1.717 5.182-4.046 1.411 1.937 4.006 2.76 6.326 1.813 2.316-.949 3.591-3.354 3.24-5.729 2.047 1.252 4.763 1.018 6.537-.748 1.777-1.762 2.034-4.475.799-6.531 2.373.374 4.785-.887 5.753-3.197.961-2.309.161-4.911-1.766-6.337 2.327-.561 4.079-2.652 4.083-5.152z" fill="#fff"/><g fill="#b0a162"><path d="m295.076 77.633c.915-.115 1.841-.198 2.784-.198.942 0 1.865.081 2.775.197.889-.778 1.463-1.909 1.463-3.183 0-2.34-1.903-4.244-4.239-4.244-2.348 0-4.254 1.904-4.254 4.244.001 1.275.578 2.409 1.471 3.184z"/><path d="m315.026 85.917c.097.007.187.026.287.026 1.134.003 2.202-.439 3.003-1.236.804-.804 1.248-1.871 1.248-3.005 0-1.132-.442-2.201-1.242-3.002-1.646-1.656-4.346-1.657-6.002-.006-.805.802-1.246 1.866-1.247 3.001 0 .099.022.193.028.29 1.469 1.136 2.787 2.458 3.925 3.932z"/><path d="m324.586 88.107c-.89-2.162-3.374-3.198-5.539-2.31-1.049.432-1.867 1.249-2.305 2.295-.036.086-.05.176-.08.265.92 1.602 1.635 3.333 2.125 5.156.082.042.157.096.244.13 1.049.437 2.204.438 3.249.006 1.047-.433 1.863-1.246 2.3-2.291.437-1.051.437-2.201.006-3.251z"/><path d="m322.533 94.939c-1.131-.001-2.196.436-3.006 1.237-.065.064-.11.139-.171.209.117.9.194 1.809.194 2.739 0 .964-.087 1.909-.208 2.841.061.068.11.15.176.215.801.805 1.862 1.246 2.996 1.247 2.341.007 4.247-1.892 4.254-4.229.008-2.341-1.889-4.249-4.235-4.259z"/><path d="m322.253 104.717c-1.047-.435-2.199-.438-3.245-.01-.091.036-.163.089-.248.132-.498 1.82-1.223 3.544-2.151 5.139.031.09.045.183.083.273.428 1.05 1.242 1.865 2.286 2.302 2.161.902 4.65-.122 5.557-2.279.9-2.16-.126-4.65-2.282-5.557z"/><path d="m315.251 112.389c-.099 0-.192.022-.289.026-1.143 1.468-2.469 2.782-3.947 3.913-.007.099-.029.196-.029.293-.001 1.135.433 2.202 1.229 3.002l.003.002c1.647 1.663 4.338 1.671 6.004.023 1.659-1.647 1.668-4.34.02-6.005-.798-.805-1.861-1.25-2.991-1.254z"/><path d="m308.835 118.044c-.087-.038-.177-.053-.264-.082-1.603.913-3.333 1.618-5.156 2.102-.044.087-.1.166-.138.255-.437 1.046-.442 2.198-.014 3.247h.004c.883 2.164 3.37 3.209 5.534 2.324 2.166-.885 3.201-3.372 2.318-5.54-.429-1.049-1.239-1.869-2.284-2.306z"/><path d="m300.531 120.632c-.879.108-1.765.181-2.671.181-.983 0-1.944-.089-2.896-.215-.075.063-.157.112-.227.182-.802.799-1.253 1.862-1.256 2.996-.012 2.339 1.883 4.254 4.228 4.267 2.333.012 4.249-1.884 4.262-4.227.008-1.132-.43-2.202-1.229-3.008-.064-.067-.142-.117-.211-.176z"/><path d="m292.076 120.005c-1.809-.502-3.523-1.229-5.112-2.159-.095.033-.195.048-.289.086-1.05.429-1.87 1.241-2.307 2.287h-.003c-.905 2.157.112 4.649 2.268 5.561 2.151.906 4.646-.113 5.558-2.27.443-1.044.449-2.198.017-3.249-.034-.092-.089-.167-.132-.256z"/><path d="m280.632 112.244c-.102-.008-.202-.03-.306-.032-1.142-.006-2.21.432-3.014 1.23v.001c-1.663 1.64-1.684 4.332-.039 5.997 1.643 1.667 4.333 1.684 6.005.039.806-.796 1.255-1.857 1.261-2.991 0-.103-.021-.201-.026-.306-1.456-1.14-2.759-2.466-3.881-3.938z"/><path d="m276.172 99.125c0-.997.091-1.972.22-2.934-.065-.076-.117-.163-.189-.234-.798-.809-1.862-1.259-2.996-1.266-2.339-.014-4.255 1.874-4.275 4.21-.017 2.339 1.872 4.261 4.215 4.28 1.131.01 2.2-.423 3.005-1.22.072-.071.126-.153.191-.226-.103-.857-.171-1.726-.171-2.61z"/><path d="m276.991 93.292c.505-1.808 1.238-3.515 2.167-5.099-.031-.097-.047-.197-.085-.291-.43-1.052-1.24-1.874-2.285-2.316h-.001c-2.152-.912-4.648.099-5.563 2.25-.913 2.153.098 4.652 2.258 5.568 1.038.442 2.194.451 3.244.026.096-.039.176-.093.265-.138z"/><path d="m280.522 85.768c.105.003.204-.019.304-.025 1.146-1.456 2.473-2.753 3.946-3.872.008-.104.033-.205.033-.31.011-1.138-.425-2.207-1.222-3.014l-.001-.002c-1.639-1.665-4.327-1.687-5.999-.05-1.665 1.637-1.693 4.332-.051 6.006.794.807 1.854 1.26 2.99 1.267z"/><path d="m286.963 80.147c.089.037.184.056.276.086 1.602-.902 3.333-1.595 5.148-2.071.046-.089.106-.17.143-.261.446-1.043.455-2.199.029-3.252-.877-2.167-3.355-3.219-5.521-2.347-2.17.874-3.223 3.354-2.35 5.531.424 1.048 1.233 1.872 2.275 2.314z"/><path d="m303.516 78.21c1.82.493 3.542 1.209 5.142 2.13.089-.031.186-.045.275-.084 1.047-.433 1.862-1.247 2.296-2.295.899-2.162-.13-4.649-2.294-5.55-2.165-.895-4.649.136-5.55 2.293-.432 1.051-.432 2.205-.004 3.252.037.089.093.167.135.254z"/><path d="m276.909 104.64c-.09-.046-.172-.105-.267-.145-1.044-.442-2.199-.448-3.248-.021h-.003c-2.166.883-3.208 3.361-2.334 5.528.877 2.167 3.36 3.216 5.535 2.339 1.05-.427 1.866-1.238 2.312-2.284.037-.09.056-.187.087-.279-.905-1.599-1.602-3.324-2.082-5.138z"/><path d="m293.57 98.521c0-.879.716-1.595 1.599-1.595h4.914c.881 0 1.599.716 1.599 1.595 0 .881-.718 1.597-1.599 1.597h-4.914c-.883 0-1.599-.716-1.599-1.597z"/><path d="m295.169 95.68h4.914c.48 0 .929.13 1.325.341.826-.807 1.275-1.744 1.275-2.737 0-.308-.043-.62-.126-.937-.44-1.63-2.133-3.323-4.874-3.43-2.379.092-4.405 1.504-4.923 3.432-.086.315-.125.627-.125.937 0 .981.441 1.912 1.253 2.714.384-.196.814-.32 1.281-.32z"/><path d="m294.647 110.989v24.564h6.457c0-1.098 0-21.458 0-24.544z"/><path d="m303.9 105.26c-.434-.737-1.172-1.096-1.953-1.474-.982-.478-2.012-1.088-2.474-2.424h-3.16c-.462 1.334-1.491 1.946-2.476 2.424-.78.377-1.518.737-1.952 1.474-.228.386-.341.788-.341 1.202 0 .312.065.629.194.955.428 1.064 1.556 2.039 2.572 2.35l6.997.022c1.186-.333 2.311-1.309 2.739-2.372.131-.325.197-.644.197-.955-.001-.414-.115-.816-.343-1.202z"/><path d="m311.124 137.236v2.501c-1.161 0-25.478 0-26.643 0 0-.692 0-1.808 0-2.501z"/><path d="m315.74 140.982v2.5c-1.186 0-34.691 0-35.874 0 0-.691 0-1.807 0-2.5z"/><path d="m284.657 150.552c.014.295.028.592.028.592 0 4.984-2.584 9.037-5.757 9.037-1.044 0-2.056-.486-2.954-1.343 0-.454 0-5.617 0-8.286z"/><path d="m303.532 150.552c.014.295.029.592.029.592 0 4.984-2.583 9.037-5.757 9.037-3.172 0-5.758-4.053-5.758-9.037 0 0 .016-.297.029-.592z"/><path d="m319.605 150.552v8.909c-.699.455-1.421.72-2.163.72-3.175 0-5.759-4.053-5.759-9.037 0 0 .017-.297.029-.592z"/><path d="m319.635 144.727v4.581c-1.193 0-42.471 0-43.665 0 0-.874 0-3.705 0-4.581z"/></g></svg>