<svg enable-background="new 0 0 595 842" viewBox="0 0 595 842" xmlns="http://www.w3.org/2000/svg" xmlns:xlink="http://www.w3.org/1999/xlink"><linearGradient id="a" gradientUnits="userSpaceOnUse" x1="296.5193" x2="296.5193" y1="172.8013" y2="675.4844"><stop offset="0" stop-color="#e78b26"/><stop offset=".095" stop-color="#dd8526"/><stop offset=".2196" stop-color="#c67726"/><stop offset=".3605" stop-color="#a36225"/><stop offset=".5134" stop-color="#78491f"/><stop offset=".6761" stop-color="#4a2b13"/><stop offset=".8443" stop-color="#1b0600"/><stop offset="1"/></linearGradient><linearGradient id="b" gradientUnits="userSpaceOnUse" x1="296.5193" x2="296.5193" y1="311.6948" y2="662.687"><stop offset="0" stop-color="#d39f61"/><stop offset="1" stop-color="#6e6765"/></linearGradient><path d="m513.662 239.827c-17.91-38.358-35.782-62.97-35.936-63.187l-2.789-3.839-4.377 1.829c-.001 0-.161.068-.547.223-5.79 2.344-56.859 22.007-118.473 21.98-18.439-.001-31.603-2.584-40.056-5.086-4.227-1.251-7.277-2.484-9.218-3.372-.97-.443-1.663-.799-2.088-1.029-.211-.115-.356-.197-.435-.243-.024-.014-.042-.025-.053-.031-.012-.008-.015-.009-.015-.009l-3.156-1.978-3.155 1.978v-.001c-.202.107-16.145 9.757-51.863 9.77-32.857.003-62.725-5.565-84.317-11.143-10.796-2.787-19.522-5.572-25.525-7.651-3.001-1.04-5.321-1.903-6.878-2.5-.78-.299-1.367-.532-1.754-.687-.386-.155-.546-.223-.546-.223l-4.379-1.829-2.788 3.839c-.155.217-18.025 24.829-35.936 63.187-17.892 38.361-35.896 90.484-35.917 145.928-.049 80.023 33.517 141.863 81.598 188.52 48.084 46.717 110.556 78.676 169.381 100.439l2.08.77 2.081-.77c58.824-21.763 121.296-53.721 169.381-100.439 48.08-46.657 81.647-108.497 81.598-188.52-.022-55.44-18.026-107.565-35.918-145.926z" fill="url(#a)"/><path d="m90.25 244.903c8.722-18.685 17.452-34.044 23.985-44.701 3.266-5.33 5.982-9.484 7.871-12.292.102-.152.203-.301.3-.445 14.513 5.399 62.086 21.341 119.094 21.368 30.417.011 48.21-6.666 55.019-9.895 6.809 3.229 24.602 9.906 55.02 9.895 57.024-.027 104.606-15.977 119.104-21.372 8.62 12.702 36.315 56.409 53.26 112.233h-454.767c6.099-20.134 13.594-38.698 21.114-54.791z" fill="#f0e2cf"/><path d="m156.352 276.401c-1.008.504-1.596.672-2.52.672-3.36 0-6.552-2.352-8.4-6.3-1.008-2.1-1.428-4.2-1.764-8.316-.84 0-1.008 0-1.764 0-10.836 0-19.656-9.24-19.656-20.664 0-12.6 10.5-22.764 23.604-22.764 6.048 0 10.5 1.848 15.036 6.3 2.688-2.184 4.536-3.024 6.384-3.024 2.772 0 4.872 2.604 4.872 6.132 0 .504 0 1.092-.084 1.68 1.764 2.1 2.352 3.948 2.352 7.896 0 7.644-2.016 14.364-7.308 24.696-2.436 4.788-4.536 8.148-6.3 10.164-1.008 1.26-1.596 1.68-3.528 3.192 1.849 3.78 3.78 5.88 7.141 8.064l-.42.756c-3.865-2.436-5.629-4.368-7.645-8.484zm3.78-50.484c-3.444-3.696-8.4-5.628-13.776-5.628-12.096 0-22.68 10.332-22.68 22.26 0 10.499 8.232 18.9 18.48 18.9h1.512c.756-13.272 7.392-27.636 16.464-35.532zm-6.216 36.12c0-.924 0-1.512.084-2.856-1.512.924-3.192 1.596-4.872 2.1-.504 2.436-.588 3.528-.588 6.132 0 5.544 1.848 8.736 5.208 8.736.756 0 1.26-.168 2.268-.672-1.512-3.948-2.1-7.98-2.1-13.44zm3.024-17.556c1.512-4.536 4.2-9.324 7.056-12.768-.168-.252-.252-.504-.336-.588-.84-1.596-.84-1.68-1.764-3.024l-.42-.588c-1.932 2.604-3.444 5.544-5.46 10.164-3.024 7.056-4.956 13.104-6.468 21.084l-.252 1.344c2.184-.672 2.604-.924 4.788-2.184.588-5.544 1.176-8.232 2.856-13.44zm5.376 24.36c2.856-4.704 5.208-10.332 7.309-17.22 1.26-4.284 2.184-8.064 2.855-11.676.252-1.596.42-3.024.42-4.788s-.252-2.856-.924-3.612c-2.268 12.18-7.56 20.664-16.884 27.048-.168 1.764-.168 2.603-.168 3.864 0 2.52.084 5.208.588 7.812.252 1.512.588 2.52 1.344 4.704 2.436-1.764 3.528-2.94 5.46-6.132zm6.636-38.892c-1.344 0-2.436.588-3.864 2.016.84 1.68 1.512 4.116 1.932 6.804l-.924.084-.168-.84c-.672-3.444-.924-3.78-1.512-5.208-1.933 2.184-3.948 5.712-5.628 9.744-1.848 4.536-2.94 8.904-3.612 14.7 8.568-5.712 14.028-14.868 15.876-26.628-.924-.504-1.428-.672-2.1-.672zm2.184-1.26c0-3.192-1.512-5.376-3.78-5.376-1.848 0-3.612 1.092-5.292 3.276.924 1.176 1.428 1.848 2.268 3.528l.42.84c1.68-1.344 2.855-1.932 4.284-1.932.756 0 1.176.168 2.1.504 0-.336 0-.672 0-.84z"/><path d="m326.13 276.653c-13.02 0-23.1-10.5-23.1-24.192 0-14.112 10.416-25.032 23.94-25.032 2.436 0 3.864.252 6.384 1.176 3.612-5.208 8.568-7.896 14.7-7.896 3.444 0 5.124.504 11.844 3.36 4.872 2.1 8.568 3.108 11.172 3.108 3.108 0 5.292-1.596 7.308-5.46l.84.336c-2.016 5.208-7.056 8.988-11.928 8.988-.168 0-.336 0-.588 0-4.032 3.696-5.796 6.3-7.728 11.424l-2.352 6.216c-2.016 5.292-3.78 9.24-5.88 12.852-1.848 3.108-3.276 4.956-6.048 7.56 5.46 2.268 9.828 3.276 13.692 3.276 2.94 0 5.964-1.092 7.728-2.772 1.344-1.344 2.352-3.36 2.352-4.788 0-.756-.504-1.344-1.176-1.344-.252 0-.504.084-.672.252l-1.092.588c-.253.168-.672.168-1.26.168-1.428 0-2.604-1.092-2.604-2.52 0-1.848 1.512-3.444 3.36-3.444 2.436 0 4.368 2.688 4.368 5.964 0 2.436-1.176 5.544-3.108 7.812-2.52 2.94-5.628 4.452-9.492 4.452-3.444 0-5.292-.588-10.752-3.78-2.268-1.26-2.352-1.344-3.444-2.1-5.208 3.948-10.416 5.796-16.464 5.796zm3.192-13.104c-1.26.336-2.1.504-2.688.504-.924 0-1.596-.336-1.596-.924s.924-.924 2.352-.924c.756 0 1.092.084 1.932.336 3.024-.924 4.956-1.848 7.14-3.612 4.2-3.36 6.804-9.072 6.804-14.7 0-6.636-3.108-11.508-9.408-14.532-.588 1.176-.756 1.68-.756 2.52 0 .924.672 1.848 1.26 1.848l1.512-.084c.252 0 1.008.42 1.428.924.42.42.588 1.008.588 1.596 0 1.428-1.26 2.604-2.688 2.604-2.016 0-3.528-2.184-3.528-4.956 0-1.428.336-2.856 1.26-4.704-2.184-.84-3.528-1.092-5.628-1.092-12.516 0-22.932 11.256-22.932 24.612 0 6.384 2.184 11.844 6.3 16.128 4.116 4.2 9.408 6.552 14.784 6.552 4.788 0 8.82-2.1 13.608-7.224-3.696-2.772-6.216-4.032-9.744-4.872zm21.252-13.188c3.276-6.384 4.704-8.652 7.896-12.516 2.352-2.772 3.948-4.368 6.888-6.972-2.1-.252-2.773-.42-5.376-1.344-1.932-.672-4.872-1.932-7.56-3.108-5.712-2.604-6.888-2.94-9.408-2.94-3.444 0-5.964 1.596-8.652 5.46 2.436 1.092 3.528 1.764 4.956 3.108 3.444 3.024 5.46 7.812 5.46 12.684s-2.1 9.996-5.628 13.692c-2.1 2.184-4.032 3.276-8.064 4.62 1.848.588 2.772.924 4.704 1.932l3.528 1.764c.084 0 .42.168.924.42 3.864-4.872 6.048-8.484 10.332-16.8z"/><path d="m256.232 246.567c.87 0 1.16-.754 1.16-2.609 0-.639-.522-.696-1.218-1.044-.754-.406-1.276-.986-1.798-.986-.348 0-1.566 2.204-1.566 2.842 0 .696 1.856 1.797 3.422 1.797z"/><path d="m268.122 270.289c-2.668 0-4.35-1.856-4.35-4.93 8.352-2.552 12.818-6.844 12.818-10.266 0-2.204-1.914-4.002-4.756-4.002-2.552 0-5.626 1.508-8.062 4.35-1.378 1.628-2.388 3.324-3.037 5.006-5.473 6.785-9.654 11.061-12.507 12.916l6.264-21.17c.058-.232.116-.406.116-.522 0-.348-.174-.464-.522-.464h-.232l-2.262.406c-.696.116-.812.522-.986 1.16l-.814 3.003c-6.424 8.88-10.333 13.41-12.12 13.41-.58 0-1.102-.464-1.102-.986 0-1.334.986-3.944 2.378-7.888.928-2.668 1.508-4.524 1.508-5.742 0-1.798-1.392-3.248-3.19-3.248-2.9 0-7.134 4.466-12.934 13.456l3.944-12.528c.058-.174.058-.29.058-.406 0-.29-.174-.464-.464-.464-.116 0-.29 0-.406.058l-1.972.464c-.812.174-1.044.696-1.334 1.566l-.769 2.496c-6.343 9.044-10.102 13.686-12.049 13.686-.58 0-1.102-.523-1.102-1.16 0-.696.174-1.334.348-2.03l2.61-8.932c.638-2.146 1.276-3.654 1.276-4.64v-.116l-.29-.406c-1.682-.754-3.364-1.102-5.104-1.102-3.016 0-5.974 1.218-8.526 3.48-.17.154-.318.316-.481.473-.014-.061-.026-.123-.041-.183-.183.257-.356.498-.535.748-1.484 1.529-2.631 3.139-3.427 4.741-4.369 5.943-7.092 9.068-8.915 9.068-.754 0-1.508-.695-1.508-1.682 0-1.972 2.378-7.076 6.438-15.718l-.232-.174c-3.306 1.276-5.568 2.03-6.902 2.03-1.16 0-1.682-.464-1.682-1.45 0-.464.232-.986.696-1.856l-.116-.174c-1.914.232-3.538 2.378-3.538 4.64 0 1.334.754 2.03 2.204 2.03 1.044 0 3.016-.696 5.51-2.262-4.176 6.147-6.09 10.672-6.09 13.166 0 2.32 1.392 3.654 3.77 3.654 2.946 0 5.44-2.67 9.161-7.639-.071.467-.113.927-.113 1.375 0 3.886 1.856 6.148 4.756 6.148 2.784 0 5.568-3.132 9.106-9.337-1.102 3.306-1.682 5.452-1.682 6.496 0 1.856 1.044 2.9 2.9 2.9 3.422 0 6.554-4.35 11.89-11.484.214-.295.412-.567.602-.83l-3.328 10.805c-.116.29-.116.522-.116.754 0 .348.174.521.522.521h.232l2.146-.406c1.16-.232 1.102-.928 1.682-2.204.87-1.973 2.204-4.234 4.06-6.844 4.002-5.626 6.902-8.352 8.178-8.352.522 0 .928.406.928.87s-.464 1.972-1.392 4.756c-1.45 4.408-2.552 7.192-2.552 8.7 0 2.088 1.45 3.596 3.422 3.596 2.436 0 5.394-2.9 9.744-8.584 1.291-1.701 2.356-3.044 3.097-4.139l-1.357 5.009c-.696 2.552-1.16 4.872-1.334 7.134-1.972 2.32-3.248 6.728-3.248 12.702 0 1.682.232 2.957.696 3.886l.174.058c.522-.811 1.74-5.046 3.944-12.527 3.624-2.258 7.54-6.291 12.164-11.852-.06.456-.1.909-.1 1.354 0 4.408 2.61 7.25 6.786 7.25 4.872 0 10.556-3.596 15.776-10.788 1.624-2.262 2.494-3.943 2.494-5.046 0-.29-.058-.521-.174-.696-5.974 10.036-12.179 14.908-16.645 14.908zm-67.858-.522c-1.045 0-1.798-.928-1.798-2.552 0-2.609 1.45-6.09 4.35-10.149 2.204-3.074 4.234-4.524 6.032-4.524 1.044 0 1.972.348 2.61.928-4.525 10.961-8.759 16.297-11.194 16.297zm70.99-17.284c1.218 0 1.914.754 1.914 2.204 0 3.828-3.538 8.004-9.395 9.338 1.159-7.423 4.871-11.542 7.481-11.542z"/><path d="m462.614 269.187c-.58 0-1.102-.464-1.102-.986 0-1.334.986-3.944 2.378-7.888.928-2.668 1.508-4.524 1.508-5.742 0-1.798-1.392-3.248-3.19-3.248-2.9 0-7.134 4.466-12.934 13.456l3.944-12.528c.058-.174.058-.29.058-.406 0-.29-.174-.464-.464-.464-.116 0-.29 0-.406.058l-1.972.464c-.812.174-1.044.696-1.334 1.566l-.889 2.885c-5.788 9.367-11.729 13.934-16.046 13.934-2.668 0-4.35-1.856-4.35-4.93 8.352-2.552 12.818-6.844 12.818-10.266 0-2.204-1.914-4.002-4.756-4.002-2.552 0-5.626 1.508-8.062 4.35-1.124 1.328-1.996 2.701-2.638 4.075-4.806 6.404-7.853 9.671-9.368 9.671-.58 0-1.102-.464-1.102-.986 0-1.334.986-3.944 2.378-7.888.928-2.668 1.508-4.524 1.508-5.742 0-1.798-1.392-3.248-3.19-3.248-2.9 0-7.134 4.466-12.934 13.456l3.944-12.528c.058-.174.058-.29.058-.406 0-.29-.174-.464-.464-.464-.116 0-.29 0-.406.058l-1.972.464c-.812.174-1.044.696-1.334 1.566l-.703 2.284c-5.158 7.222-8.165 11.056-9.911 11.056-.696 0-1.276-.406-1.45-1.218 1.45-2.494 2.204-4.814 2.204-7.075 0-4.408-2.842-7.424-6.496-7.424-2.9 0-6.09 1.508-8.816 4.466-2.726 2.899-4.06 5.974-4.06 9.048 0 4.466 2.9 7.365 7.308 7.365 2.842 0 5.394-1.334 8.004-3.943.638.696 1.392 1.044 2.204 1.044 2.32 0 4.93-3.074 9.164-8.758.278-.371.529-.713.765-1.043l-3.375 10.96c-.116.29-.116.522-.116.754 0 .348.174.521.522.521h.232l2.146-.406c1.16-.232 1.102-.928 1.682-2.204.87-1.973 2.204-4.234 4.06-6.844 4.002-5.626 6.902-8.352 8.178-8.352.522 0 .928.406.928.87s-.464 1.972-1.392 4.756c-1.45 4.408-2.552 7.192-2.552 8.7 0 2.088 1.45 3.596 3.422 3.596 2.436 0 5.394-2.9 9.744-8.584.038-.05.072-.094.11-.144-.101.597-.167 1.189-.167 1.768 0 4.408 2.61 7.25 6.786 7.25 4.872 0 10.556-3.596 15.776-10.788.16-.222.306-.435.451-.645l-3.003 9.751c-.116.29-.116.522-.116.754 0 .348.174.521.522.521h.232l2.146-.406c1.16-.232 1.102-.928 1.682-2.204.87-1.973 2.204-4.234 4.06-6.844 4.002-5.626 6.902-8.352 8.178-8.352.522 0 .928.406.928.87s-.464 1.972-1.392 4.756c-1.45 4.408-2.552 7.192-2.552 8.7 0 2.088 1.45 3.596 3.422 3.596 2.436 0 5.394-2.9 9.744-8.584v-1.955c-4.126 5.371-6.794 8.106-8.18 8.106zm-75.92-5.51c0 .812.116 1.508.406 2.146-2.146 3.248-4.234 4.872-6.148 4.872-2.32 0-3.712-1.798-3.712-5.046 0-3.944 1.972-8.816 5.046-11.716 1.102-1.044 2.262-1.624 3.364-1.624 1.972 0 3.306 1.392 3.828 4.059-1.856 2.553-2.784 5.047-2.784 7.309zm48.603-11.194c1.218 0 1.914.754 1.914 2.204 0 3.828-3.538 8.004-9.396 9.338 1.16-7.423 4.872-11.542 7.482-11.542z"/><path d="m459.616 565.671c-45.725 44.474-105.873 75.661-163.097 97.016-57.224-21.355-117.373-52.542-163.097-97.016-46.283-45.073-77.912-103.331-77.962-179.916-.01-25.617 4.073-50.725 10.267-74.06h461.593c6.205 23.33 10.294 48.436 10.257 74.06-.048 76.585-31.678 134.843-77.961 179.916z" fill="url(#b)"/><path d="m165.729 556.71c-1.638 1.918-3.44 3.307-5.407 4.165-1.968.859-3.961 1.249-5.979 1.169-2.401-.079-4.663-.605-6.783-1.58-2.121-.975-4.499-2.587-7.133-4.836l-13.46-11.493 32.949-38.587 11.242 9.599c2.77 2.365 4.754 4.239 5.954 5.622 1.199 1.383 2.147 2.939 2.845 4.669.759 1.933.955 3.751.588 5.454s-1.244 3.367-2.63 4.991c-1.564 1.831-3.355 2.999-5.371 3.502-2.017.504-4.122.491-6.315-.038l-.177.207c2.108 2.727 3.153 5.598 3.135 8.614-.018 3.017-1.17 5.864-3.458 8.542zm-5.427-4.277c1.327-1.555 2.152-2.986 2.475-4.294s.154-2.796-.507-4.466c-.447-1.128-1.197-2.254-2.25-3.378-1.054-1.123-2.413-2.396-4.078-3.818l-7.929-6.769-12.259 14.357 6.679 5.703c2.209 1.886 4.119 3.315 5.729 4.287 1.609.971 3.13 1.53 4.563 1.677 1.526.139 2.88-.035 4.06-.521 1.178-.487 2.351-1.413 3.517-2.778zm11.787-20.361c.797-.933 1.315-1.849 1.555-2.75.24-.9.189-1.839-.15-2.817-.4-1.148-1.123-2.265-2.165-3.349-1.043-1.085-2.405-2.345-4.088-3.782l-6.016-5.137-9.515 11.144 6.525 5.572c1.58 1.35 2.908 2.341 3.982 2.975 1.075.634 2.233 1.033 3.475 1.197 1.241.164 2.378-.023 3.41-.561 1.033-.538 2.028-1.368 2.987-2.492z"/><path d="m199.841 591.625-5.653-2.706 1.75-3.658c-.671.107-1.584.269-2.739.483-1.156.215-2.225.314-3.208.297-1.174.018-2.45-.109-3.832-.379-1.382-.271-2.899-.802-4.552-1.593-3.044-1.457-5.134-3.716-6.27-6.778s-.943-6.181.576-9.357c1.246-2.603 2.803-4.445 4.671-5.528 1.868-1.082 4.041-1.598 6.518-1.546 2.497.062 5.266.619 8.306 1.67 3.039 1.052 6.25 2.287 9.635 3.705l.427-.891c.628-1.311.921-2.506.879-3.584-.041-1.078-.368-2.065-.98-2.962-.58-.857-1.396-1.638-2.446-2.342-1.051-.704-2.191-1.351-3.42-1.939-1.492-.714-3.25-1.31-5.275-1.788-2.026-.478-4.198-.806-6.516-.983l-.303-.145 2.81-5.871c1.256.223 3.02.651 5.293 1.286 2.274.634 4.428 1.438 6.464 2.413 2.378 1.138 4.354 2.329 5.926 3.573 1.573 1.243 2.773 2.656 3.602 4.236.819 1.551 1.203 3.233 1.152 5.047s-.605 3.828-1.665 6.041zm-1.609-11.158 4.575-9.56c-1.783-.727-3.897-1.55-6.344-2.469-2.446-.919-4.448-1.511-6.005-1.778-1.858-.31-3.529-.209-5.013.302-1.484.512-2.643 1.639-3.476 3.38-.941 1.967-1.066 3.728-.372 5.281.692 1.553 2.239 2.904 4.638 4.052 1.996.955 4.009 1.434 6.039 1.436 2.032.002 4.018-.213 5.958-.644z"/><path d="m261.15 569.52-23.674 33.436-6.157-1.489-5.683-40.535 6.646 1.607 4.153 32.172 18.296-26.743z"/><path d="m301.939 591.685-27.558-1.271c-.108 2.338.144 4.391.756 6.158.611 1.768 1.495 3.236 2.649 4.403 1.11 1.143 2.451 2.023 4.023 2.642 1.57.619 3.315.972 5.236 1.06 2.544.117 5.13-.281 7.756-1.195s4.509-1.844 5.648-2.793l.335.015-.322 6.979c-2.162.81-4.362 1.47-6.601 1.981-2.238.511-4.574.71-7.007.598-6.207-.286-10.972-2.217-14.297-5.793-3.324-3.576-4.842-8.507-4.553-14.793.287-6.218 2.184-11.077 5.689-14.577s7.982-5.125 13.429-4.873c5.044.232 8.865 1.91 11.462 5.031 2.596 3.122 3.768 7.44 3.514 12.955zm-5.902-5.185c.133-3.359-.579-5.997-2.135-7.91-1.556-1.914-4.008-2.948-7.356-3.102-3.371-.155-6.103.731-8.193 2.658-2.091 1.928-3.339 4.383-3.745 7.366z"/><path d="m350.136 600.156c.946 6.382.215 11.279-2.194 14.69s-6.575 5.556-12.499 6.434c-1.968.292-3.906.435-5.815.431-1.91-.004-3.81-.13-5.698-.378l-.959-6.472.331-.049c1.077.254 2.765.515 5.064.783s4.554.238 6.765-.089c2.122-.315 3.841-.833 5.157-1.556 1.315-.724 2.292-1.603 2.93-2.639.644-.991 1.04-2.129 1.189-3.414.148-1.285.109-2.691-.117-4.22l-.51-3.438c-1.652 1.807-3.279 3.213-4.881 4.22s-3.728 1.707-6.382 2.1c-4.421.655-8.171-.448-11.249-3.311-3.079-2.862-5.056-7.249-5.932-13.159-.48-3.236-.445-6.094.101-8.576.548-2.481 1.469-4.69 2.763-6.628 1.2-1.808 2.763-3.308 4.688-4.501 1.924-1.192 3.902-1.939 5.937-2.24 2.145-.318 3.973-.365 5.486-.141 1.512.224 3.143.666 4.889 1.325l.158-1.677 5.836-.865zm-7.132-5.144-3.042-20.529c-1.771-.518-3.393-.835-4.868-.95-1.474-.114-2.919-.067-4.333.143-3.427.508-5.95 2.076-7.571 4.705s-2.102 6.167-1.442 10.617c.626 4.225 1.83 7.319 3.611 9.283 1.782 1.964 4.364 2.695 7.746 2.194 1.813-.268 3.579-.892 5.298-1.87 1.718-.978 3.251-2.176 4.601-3.593z"/><path d="m395.953 570.651-25.877 9.561c.81 2.195 1.842 3.987 3.094 5.378 1.252 1.39 2.638 2.398 4.155 3.024 1.468.621 3.046.909 4.733.867 1.688-.043 3.433-.397 5.235-1.063 2.39-.883 4.616-2.256 6.679-4.121 2.063-1.864 3.435-3.455 4.115-4.772l.314-.116 2.422 6.553c-1.677 1.588-3.446 3.053-5.309 4.396-1.863 1.342-3.938 2.436-6.222 3.279-5.828 2.153-10.969 2.23-15.424.231-4.454-1.999-7.772-5.95-9.953-11.853-2.157-5.839-2.303-11.052-.436-15.642 1.865-4.588 5.356-7.828 10.471-9.718 4.737-1.75 8.909-1.693 12.517.171 3.607 1.864 6.367 5.386 8.28 10.564zm-7.455-2.477c-1.185-3.146-2.868-5.297-5.047-6.455-2.178-1.157-4.84-1.154-7.983.007-3.166 1.169-5.336 3.049-6.511 5.639-1.176 2.59-1.37 5.338-.582 8.244z"/><path d="m466.349 545.498-5.014 3.818-13.131-17.242c-.991-1.301-2.005-2.513-3.043-3.637-1.038-1.122-2.019-1.903-2.942-2.342-1.001-.465-2.035-.606-3.103-.422-1.066.185-2.32.825-3.761 1.922-1.404 1.07-2.537 2.497-3.397 4.279-.861 1.784-1.574 3.762-2.139 5.934.37.375.782.825 1.237 1.349.456.525.89 1.058 1.303 1.6l14.762 19.384-5.014 3.818-13.131-17.242c-1.019-1.337-2.043-2.563-3.074-3.677-1.03-1.113-2.008-1.89-2.932-2.329-1.001-.465-2.031-.602-3.092-.408-1.06.194-2.31.838-3.751 1.935-1.369 1.043-2.48 2.432-3.336 4.168-.854 1.736-1.561 3.659-2.117 5.767l17.219 22.611-5.014 3.818-23.061-30.283 5.014-3.818 2.561 3.362c.56-2.51 1.335-4.728 2.326-6.655.991-1.925 2.367-3.559 4.127-4.899 2.027-1.543 4.077-2.419 6.151-2.628 2.074-.208 4.043.191 5.906 1.199.705-3.278 1.602-5.938 2.688-7.979s2.58-3.786 4.482-5.234c3.272-2.491 6.452-3.321 9.543-2.491 3.09.831 6.012 3.053 8.764 6.668z"/><path d="m108.755 377.544-4.853.639-12.768-11.053-2.401 3.351 1.255 9.535-3.738.492-3.701-28.113 3.738-.492 1.932 14.67 11.719-16.467 4.531-.597-10.815 14.869z"/><path d="m133.01 365.553c.184 1.397.082 2.665-.306 3.805s-.983 2.114-1.786 2.924c-.948.97-2.031 1.714-3.25 2.233s-2.803.907-4.754 1.164l-9.969 1.313-3.701-28.113 8.326-1.096c2.052-.27 3.597-.397 4.637-.38s2.056.203 3.051.559c1.103.405 1.944 1.002 2.521 1.79.577.789.944 1.774 1.1 2.957.175 1.334-.015 2.515-.571 3.543-.557 1.027-1.364 1.898-2.422 2.613l.02.151c1.952.14 3.56.777 4.823 1.91 1.265 1.135 2.024 2.676 2.281 4.627zm-7.954-11.841c-.09-.68-.278-1.238-.566-1.673-.288-.436-.703-.766-1.244-.989-.636-.262-1.382-.378-2.235-.349-.854.029-1.904.126-3.15.29l-4.456.586 1.069 8.119 4.833-.637c1.171-.154 2.094-.336 2.771-.547.676-.211 1.286-.544 1.828-1s.896-.998 1.063-1.628c.165-.629.194-1.353.087-2.172zm4.085 12.504c-.149-1.133-.438-2.01-.865-2.633-.428-.623-1.119-1.107-2.074-1.456-.646-.235-1.406-.343-2.28-.324-.875.02-1.929.11-3.163.272l-5.872.773 1.377 10.46 4.946-.651c1.637-.215 2.966-.477 3.988-.784 1.022-.308 1.837-.731 2.445-1.272.64-.584 1.082-1.212 1.327-1.884.245-.673.302-1.506.171-2.501z"/><path d="m157.919 342.471-6.532 29.46-4.984.656-13.934-26.765 4.003-.527 12.073 23.572 5.561-25.894z"/><path d="m185.95 358.584c.184 1.397.083 2.665-.306 3.805-.388 1.14-.983 2.114-1.785 2.924-.948.97-2.031 1.714-3.25 2.233-1.218.519-2.803.907-4.754 1.164l-9.969 1.313-3.701-28.113 8.326-1.096c2.052-.271 3.597-.397 4.637-.38s2.057.203 3.051.559c1.103.405 1.944 1.002 2.521 1.79s.944 1.774 1.1 2.957c.176 1.335-.015 2.515-.571 3.543-.556 1.027-1.363 1.898-2.422 2.614l.02.151c1.952.14 3.559.777 4.823 1.91s2.023 2.675 2.28 4.626zm-7.954-11.841c-.09-.68-.278-1.238-.566-1.673s-.702-.766-1.244-.988c-.636-.262-1.381-.379-2.236-.35-.854.029-1.904.126-3.15.29l-4.456.586 1.069 8.119 4.833-.637c1.17-.154 2.094-.336 2.771-.547.677-.21 1.286-.544 1.828-.999s.896-.998 1.063-1.629c.165-.63.195-1.354.088-2.172zm4.085 12.504c-.149-1.133-.438-2.01-.865-2.633-.428-.623-1.119-1.107-2.074-1.456-.646-.235-1.406-.343-2.28-.324-.875.02-1.929.11-3.162.272l-5.872.773 1.377 10.459 4.947-.651c1.636-.215 2.966-.477 3.988-.784 1.022-.308 1.837-.731 2.445-1.272.64-.583 1.082-1.212 1.327-1.884.243-.673.3-1.506.169-2.5z"/><path d="m436 361.265c-.376 2.858-1.624 5.065-3.743 6.624-2.12 1.559-4.545 2.158-7.276 1.798-1.384-.182-2.615-.561-3.691-1.139-1.076-.577-1.993-1.344-2.751-2.302-.945-1.188-1.596-2.682-1.955-4.483-.357-1.801-.377-3.916-.057-6.346.328-2.492.886-4.665 1.674-6.521.789-1.855 1.867-3.455 3.234-4.799 1.295-1.277 2.87-2.199 4.725-2.769 1.855-.568 3.947-.7 6.275-.393.742.098 1.361.211 1.856.341.495.129.99.31 1.484.541l-.475 3.606-.189-.025c-.328-.235-.836-.484-1.525-.748-.689-.263-1.405-.444-2.147-.542-2.706-.356-4.977.206-6.81 1.687-1.835 1.481-3.073 3.645-3.716 6.492 1.142-.502 2.247-.853 3.316-1.051 1.07-.199 2.278-.209 3.625-.032 1.196.158 2.235.407 3.119.747.883.341 1.76.907 2.628 1.7 1.006.914 1.713 1.993 2.12 3.237s.5 2.703.279 4.377zm-3.852-.353c.154-1.171.108-2.163-.136-2.976-.246-.813-.727-1.556-1.445-2.226-.526-.479-1.133-.828-1.821-1.046-.689-.219-1.416-.379-2.185-.48-1.069-.141-2.08-.146-3.032-.015s-1.947.397-2.986.797c-.061.274-.116.539-.162.795-.047.257-.096.58-.147.97-.262 1.989-.264 3.586-.007 4.791.258 1.207.701 2.189 1.331 2.951.506.63 1.079 1.119 1.719 1.465.639.347 1.355.572 2.148.676 1.825.241 3.333-.128 4.525-1.104 1.19-.976 1.923-2.508 2.198-4.598z"/><path d="m460.78 359.496c-.664 5.047-1.942 8.647-3.833 10.799-1.89 2.152-4.496 3.009-7.819 2.572-3.373-.444-5.68-1.964-6.919-4.56-1.24-2.596-1.533-6.373-.88-11.333.657-4.997 1.93-8.583 3.817-10.762 1.888-2.178 4.499-3.047 7.834-2.608 3.374.444 5.678 1.98 6.913 4.608 1.236 2.625 1.532 6.387.887 11.284zm-6.094 7.917c.574-.961 1.031-2.121 1.37-3.479.339-1.357.636-3.005.891-4.944.252-1.913.392-3.585.42-5.015.028-1.431-.119-2.667-.442-3.708-.313-1.027-.818-1.836-1.516-2.427-.696-.591-1.643-.965-2.839-1.123-1.183-.156-2.193-.039-3.032.35s-1.55 1.05-2.134 1.985c-.551.875-1.004 2.051-1.358 3.528-.355 1.477-.65 3.109-.885 4.896-.258 1.963-.405 3.615-.44 4.955-.036 1.34.104 2.562.42 3.666.286 1.037.775 1.863 1.469 2.48.693.616 1.67 1.007 2.928 1.173 1.183.156 2.197.039 3.042-.349.846-.386 1.548-1.049 2.106-1.988z"/><path d="m483.548 376.802-19.031-2.505.52-3.946c1.47-.958 2.944-1.917 4.421-2.875s2.862-1.921 4.155-2.891c2.725-2.023 4.625-3.665 5.699-4.926 1.075-1.26 1.719-2.69 1.929-4.288.192-1.46-.139-2.665-.993-3.617-.854-.951-2.143-1.54-3.868-1.767-1.145-.15-2.412-.113-3.799.114-1.387.228-2.771.673-4.151 1.336l-.19-.025.523-3.965c.952-.323 2.197-.569 3.736-.737 1.54-.169 3.008-.162 4.405.022 2.883.379 5.05 1.373 6.504 2.978 1.453 1.607 2.023 3.599 1.709 5.978-.141 1.07-.407 2.049-.799 2.939-.394.89-.908 1.715-1.546 2.476-.594.716-1.27 1.408-2.031 2.076-.76.668-1.673 1.399-2.737 2.194-1.521 1.145-3.081 2.242-4.679 3.293s-3.09 2.023-4.475 2.916l15.122 1.991z"/><path d="m509.369 372.231c-.32 2.429-1.533 4.324-3.64 5.686s-4.594 1.854-7.464 1.476c-3.046-.401-5.369-1.507-6.968-3.318-1.6-1.811-2.237-3.944-1.914-6.398.206-1.561.845-2.914 1.918-4.06 1.073-1.145 2.483-1.981 4.229-2.506l.015-.113c-1.405-1.005-2.406-2.033-3.004-3.085s-.802-2.295-.613-3.729c.278-2.115 1.379-3.763 3.302-4.944 1.922-1.181 4.224-1.595 6.905-1.242 2.807.37 4.959 1.338 6.455 2.905 1.497 1.567 2.108 3.389 1.835 5.466-.167 1.271-.728 2.468-1.683 3.591-.954 1.123-2.245 1.93-3.872 2.42l-.015.113c1.662.987 2.887 2.096 3.672 3.326.787 1.229 1.067 2.7.842 4.412zm-3.936-.154c.152-1.158.021-2.12-.398-2.885-.418-.765-1.323-1.599-2.715-2.499-.555-.355-1.17-.698-1.843-1.03-.674-.331-1.567-.789-2.681-1.371-1.214.468-2.234 1.185-3.059 2.152s-1.325 2.117-1.501 3.451c-.224 1.699.177 3.18 1.201 4.442 1.024 1.261 2.438 2.011 4.237 2.248 1.838.242 3.369-.037 4.595-.835 1.225-.8 1.947-2.024 2.164-3.673zm1.268-14.161c.178-1.347-.2-2.488-1.133-3.424-.935-.936-2.206-1.51-3.817-1.722-1.586-.209-2.936-.002-4.048.619-1.112.622-1.753 1.575-1.922 2.859-.12.906.032 1.723.454 2.451.424.728 1.117 1.418 2.081 2.07.436.288 1.067.672 1.895 1.152.826.48 1.639.894 2.439 1.243 1.355-.667 2.331-1.415 2.927-2.246s.97-1.832 1.124-3.002z"/><path d="m344.369 400.428c-12.244-12.152-29.168-19.67-47.85-19.67-18.681 0-35.606 7.518-47.85 19.67-12.245 12.151-19.825 28.951-19.825 47.499s7.58 35.348 19.825 47.499c10.328 10.251 23.992 17.183 39.225 19.108l-.002.022c.021.002.159.015.382.026 2.705.326 5.453.514 8.246.514 18.682 0 35.606-7.517 47.85-19.67 12.246-12.151 19.825-28.951 19.825-47.499-.001-18.548-7.58-35.348-19.826-47.499z"/><g fill="#fff"><path d="m360.377 462.033c-1.017-1.792-2.734-4.253-5.557-7.134.098-1.677.147-3.307.147-4.865-.001-11.86-2.509-20.058-2.983-21.51.123-1.158.669-6.611.829-13.672 5.794 9.688 9.13 20.99 9.13 33.075 0 4.847-.551 9.563-1.566 14.106z"/><path d="m326.896 493.744s-.056.057-.217.201c-1.12.998-6.539 5.405-17.32 7.687-7.766-2.96-12.957-6.049-16.197-8.39-1.642-1.185-2.783-2.179-3.507-2.867-.323-.306-.55-.54-.714-.716.602-7.597 1.744-13.956 2.152-16.088 14.11-2.1 24.728-8.979 27.086-10.605 4.542 1.566 8.692 3.995 11.722 6.074 1.574 1.078 2.846 2.059 3.723 2.766.416.335.732.601.956.794-.088 7.213-1.978 12.473-3.862 15.94-.964 1.773-1.925 3.078-2.637 3.933-.355.427-.648.741-.848.944s-.287.278-.287.279l.745.844z"/><path d="m320.179 393.264c.018.011.021.014.037.024.147.288.415.825.78 1.605 1.68 3.591 5.303 12.132 7.587 23.189-1.681 1.5-7.506 6.805-13.255 13.249-2.977-1.117-14.576-5.111-28.631-5.223-.161-.224-.375-.529-.645-.946-1.766-2.708-5.433-9.314-6.539-18.599 3.613-4.219 7.7-8.533 10.915-11.819 2.677-2.736 4.717-4.729 5.412-5.404 2.143-.233 4.151-.338 6.015-.338 6.252 0 10.925 1.133 14.022 2.25 1.548.559 2.703 1.114 3.461 1.525.381.204.661.373.841.487z"/><path d="m349.864 429.279c.076.234.198.621.362 1.204.823 2.926 2.493 10.037 2.491 19.551 0 1.564-.05 3.199-.15 4.884-.59.74-2.367 2.919-4.961 5.63-3.053 3.194-7.227 7.088-11.799 10.141-2.04-1.72-8.613-6.927-16.672-9.772-.059-15.631-1.798-25.53-2.269-27.928 3.304-3.717 6.669-7.082 9.237-9.539 1.915-1.832 3.366-3.142 4.039-3.741 6.029 1.187 10.981 3.575 14.435 5.703 1.777 1.094 3.159 2.116 4.092 2.859.6.48.983.816 1.195 1.008z"/><path d="m252.693 411.734c.515-.439.941-.759 1.234-.967.201-.143.323-.222.383-.26.152-.066.581-.251 1.306-.522 2.723-1.024 9.19-3.087 16.769-3.083 1.608 0 3.267.1 4.95.313 1.358 10.62 5.832 17.782 7.377 19.983-2.115 2.677-9.71 12.841-12.25 24.419-9.771.076-17.858 1.348-20.283 1.77-.168-.262-.375-.587-.638-1.017-1.928-3.148-6.061-10.56-8.214-19.133.035-8.079 2.8-13.741 5.559-17.428 1.386-1.854 2.774-3.2 3.807-4.075z"/><path d="m248.217 467.75c.551-5.059 2.006-10.559 3.908-12.071.693-.127 2.835-.5 6.016-.882 3.763-.453 8.922-.901 14.626-.931 5.184 7.976 14.103 17.03 16.155 19.079-.38 1.948-1.589 8.555-2.222 16.525-.178.135-.416.31-.744.531-2.229 1.51-7.713 4.578-15.357 4.576-1.534-.001-3.159-.127-4.863-.411-.727-.448-3.558-2.234-6.948-4.918-3.866-3.056-8.398-7.273-11.21-11.811.012-1.153.096-5.249.639-9.687z"/><path d="m327.975 390.998c-.508-.025-1.044-.04-1.606-.04-1.5 0-3.193.109-5.025.38-1.602-1.003-8.134-4.588-19.488-4.587-1.858 0-3.851.102-5.963.323-.583-.765-1.836-2.117-4.342-3.86 1.642-.122 3.295-.205 4.969-.205 11.405 0 22.122 2.9 31.455 7.989z"/><path d="m250.254 402.025c.993-.985 2.028-1.926 3.082-2.846-.619 3.703-.7 7.39-.703 9.213.001.203.002.375.003.528-2.337 1.655-11.297 9.001-11.549 23.835-1.424.956-5.673 3.944-9.602 8.123 1.643-15.109 8.502-28.662 18.769-38.853z"/><path d="m233.816 466.468c2.627 3.349 6.645 7.916 11.782 12.056 5.541 8.964 16.639 16.104 18.797 17.455 1.615 5.167 5.262 9.5 8.283 12.402-8.476-3.294-16.098-8.275-22.425-14.552-7.583-7.527-13.297-16.893-16.437-27.361z"/><path d="m342.784 493.829c-11.645 11.554-27.652 18.756-45.367 18.995 3.718-1.48 8.12-4.176 12.44-8.999 11.128-2.361 16.897-6.938 18.292-8.177 6.649-.095 12.52-2.006 16.459-3.718-.598.643-1.201 1.28-1.824 1.899z"/></g></svg>