<?xml version="1.0" encoding="iso-8859-1"?>
<!-- Generator: Adobe Illustrator 24.0.1, SVG Export Plug-In . SVG Version: 6.00 Build 0)  -->
<svg version="1.1" id="Layer_1" xmlns="http://www.w3.org/2000/svg" xmlns:xlink="http://www.w3.org/1999/xlink" x="0px" y="0px"
	 viewBox="0 0 612 792" style="enable-background:new 0 0 612 792;" xml:space="preserve">
<circle style="fill:#DA2128;" cx="306.018" cy="396.327" r="283"/>
<ellipse transform="matrix(0.7071 -0.7071 0.7071 0.7071 -190.6151 332.4685)" style="fill:#FFD400;" cx="306.017" cy="396.327" rx="275.293" ry="275.293"/>
<path style="fill:#DA2128;" d="M273.701,602.393l-1.182-4.668l259.802-65.933c1.444-2.408,2.854-4.839,4.224-7.297l-372.038,94.416
	c40.89,26.05,89.435,41.148,141.511,41.148c93.633,0,175.837-48.817,222.633-122.369L273.701,602.393z"/>
<path style="fill:#DA2128;" d="M142.793,601.475l-0.612-2.412c2.172-0.756,3.399-1.261,3.681-1.517
	c0.182-0.167,0.289-0.388,0.322-0.662c0.074-0.508-0.186-2.093-0.779-4.755c-0.944-4.122-1.715-7.36-2.313-9.716
	c-0.806-3.178-1.871-7.21-3.191-12.093c-1.004-3.637-1.754-5.833-2.251-6.584c-0.14-0.228-0.342-0.382-0.605-0.457
	c-0.355-0.112-1.645-0.011-3.867,0.309l-0.611-2.412c3.997-0.873,6.571-1.454,7.72-1.746l14.339-3.853
	c3.122-0.792,5.472-1.066,7.051-0.827c1.58,0.24,2.955,0.92,4.126,2.037c1.17,1.118,1.983,2.574,2.439,4.373
	c0.583,2.294,0.427,4.475-0.465,6.544c-0.892,2.067-2.815,4.188-5.768,6.363l8.457,7.667l6.562,5.856
	c1.191,0.92,2.038,1.445,2.539,1.573c0.501,0.128,1.252,0.075,2.252-0.16l0.562,2.213l-1.688,0.459
	c-4.855,1.272-7.971,2.124-9.349,2.555c-2.341-2.238-5.81-5.466-10.406-9.68l-8.199-7.489c0.089-0.368,0.146-0.75,0.169-1.143
	c0.79-0.098,1.367-0.193,1.731-0.286c1.781-0.451,3.35-1.616,4.709-3.492c1.358-1.876,1.699-4.146,1.022-6.814
	c-0.589-2.32-1.728-3.951-3.418-4.891c-1.689-0.941-3.897-1.063-6.622-0.372c-0.865,0.22-2.018,0.583-3.462,1.093l1.963,8.529
	l2.487,10.813c0.618,2.433,1.503,5.523,2.657,9.27c0.876,2.817,1.436,4.379,1.675,4.686c0.177,0.22,0.438,0.366,0.782,0.443
	c0.458,0.128,1.797-0.027,4.016-0.468l0.612,2.412c-3.475,0.739-6.542,1.446-9.2,2.12
	C149.031,599.678,146.008,600.515,142.793,601.475z"/>
<path style="fill:#DA2128;" d="M186,581.369c1.267-0.322,2.461-0.151,3.581,0.512c1.119,0.664,1.842,1.639,2.167,2.92
	c0.321,1.265,0.148,2.459-0.517,3.586c-0.665,1.127-1.631,1.852-2.899,2.173c-1.267,0.322-2.467,0.147-3.598-0.524
	c-1.131-0.67-1.857-1.637-2.178-2.901c-0.321-1.265-0.148-2.459,0.517-3.586C183.737,582.421,184.713,581.694,186,581.369z"/>
<path style="fill:#DA2128;" d="M195.308,588.147l-0.613-2.412c2.426-0.636,3.798-1.178,4.112-1.625
	c0.249-0.307,0.258-1.033,0.028-2.179c-0.719-3.796-1.698-8.138-2.939-13.024c-0.919-3.622-1.953-7.496-3.102-11.62
	c-1.149-4.125-1.918-6.475-2.309-7.049c-0.187-0.258-0.401-0.417-0.641-0.48c-0.38-0.128-1.764,0.04-4.153,0.503l-0.611-2.412
	c3.374-0.755,6.269-1.44,8.682-2.052c3.523-0.894,7.212-1.858,11.066-2.894c2.536-0.688,4.675-1.253,6.418-1.697
	c1.245-0.313,2.441-0.577,3.591-0.79l0.438,0.522c0.206,2.497,0.672,5.379,1.4,8.646l-2.413,0.611l-1.01-3.014
	c-0.306-0.962-0.587-1.528-0.844-1.697c-0.257-0.17-1.022-0.215-2.296-0.136c-1.275,0.079-3.041,0.404-5.301,0.979
	c-1.666,0.423-3.405,0.956-5.219,1.599c0.612,3.297,1.088,5.617,1.43,6.96l1.628,6.174l0.308,1.33
	c1.163-0.233,2.559-0.557,4.186-0.971c2.93-0.743,4.675-1.257,5.234-1.543c0.287-0.154,0.468-0.365,0.543-0.631
	c0.107-0.459-0.026-1.706-0.401-3.746l2.471-0.626c0.372,1.703,0.769,3.391,1.192,5.06c0.4,1.574,1.064,4.071,1.994,7.492
	l-2.471,0.626c-0.785-2.449-1.336-3.858-1.654-4.228c-0.173-0.199-0.454-0.301-0.842-0.305c-0.982-0.015-2.881,0.333-5.695,1.048
	l-3.742,1.041l2.91,10.982c0.751,2.638,1.276,4.143,1.574,4.514c0.201,0.233,0.453,0.384,0.755,0.449
	c0.432,0.095,2.074-0.139,4.928-0.701l0.612,2.412c-3.098,0.644-5.987,1.306-8.668,1.986
	C203.509,585.852,199.984,586.817,195.308,588.147z"/>
<path style="fill:#DA2128;" d="M225.19,571.423c1.267-0.321,2.461-0.15,3.581,0.512c1.119,0.664,1.842,1.639,2.168,2.92
	c0.321,1.265,0.148,2.459-0.517,3.587c-0.665,1.127-1.631,1.85-2.899,2.173c-1.267,0.321-2.466,0.146-3.598-0.525
	c-1.131-0.67-1.857-1.637-2.178-2.901c-0.321-1.264-0.148-2.459,0.517-3.586C222.926,572.475,223.903,571.748,225.19,571.423z"/>
<path style="fill:#DA2128;" d="M271.331,562.221l0.886,0.477c-0.256,1.086-0.448,2.173-0.578,3.267
	c-1.925,1.731-3.855,3.103-5.789,4.112c-1.936,1.011-4.243,1.857-6.923,2.537c-5.017,1.273-9.483,1.469-13.395,0.587
	c-3.914-0.883-7.209-2.686-9.888-5.41c-2.678-2.724-4.543-6.154-5.593-10.29c-1.511-5.955-0.638-11.37,2.62-16.241
	c3.258-4.873,8.602-8.252,16.032-10.138c2.47-0.626,4.972-1.027,7.506-1.202c2.534-0.173,5.112-0.114,7.734,0.177l0.31,0.38
	c-0.09,1.124-0.082,2.183,0.024,3.175c0.167,1.73,0.497,3.848,0.987,6.354l-2.413,0.611c-0.882-2.995-1.418-4.628-1.608-4.896
	c-0.19-0.268-0.845-0.642-1.964-1.121c-1.12-0.482-2.536-0.743-4.247-0.789c-1.711-0.043-3.533,0.18-5.465,0.668
	c-4.591,1.167-7.88,3.51-9.867,7.03c-1.988,3.522-2.339,7.808-1.056,12.863c1.389,5.478,4.142,9.498,8.258,12.061
	c3.803,2.379,8.328,2.899,13.575,1.569c2.029-0.516,3.877-1.208,5.542-2.079C267.683,565.052,269.453,563.817,271.331,562.221z"/>
<path style="fill:#DA2128;" d="M278.265,557.953c1.267-0.322,2.461-0.152,3.581,0.512c1.119,0.664,1.842,1.637,2.167,2.92
	c0.321,1.265,0.148,2.459-0.516,3.586c-0.666,1.127-1.631,1.852-2.9,2.174c-1.267,0.321-2.466,0.147-3.598-0.525
	c-1.131-0.67-1.857-1.637-2.178-2.901c-0.321-1.265-0.149-2.459,0.516-3.586C276.002,559.005,276.978,558.278,278.265,557.953z"/>
<path style="fill:#DA2128;" d="M306.035,560.049l-0.342-1.349c0.927-0.928,1.608-1.733,2.047-2.416
	c-0.44-2.7-1.808-8.57-4.102-17.609c-1.662-6.548-2.934-11.157-3.816-13.829c-0.469-1.449-0.89-2.26-1.259-2.432
	c-0.518-0.276-2.038-0.155-4.556,0.361l-0.611-2.414l5.544-1.283l4.244-0.985c1.283-0.325,3.17-0.839,5.663-1.545
	c2.414-0.683,4.148-1.159,5.202-1.426c4.251-1.08,7.476-1.143,9.673-0.189c2.2,0.952,3.611,2.658,4.235,5.116
	c0.642,2.534,0.258,4.833-1.151,6.893c-1.411,2.063-3.682,3.855-6.814,5.381l0.059,0.229c3.49-0.519,6.013-0.608,7.564-0.267
	c1.552,0.341,2.936,1.135,4.145,2.378c1.212,1.244,2.053,2.794,2.525,4.655c0.579,2.28,0.433,4.613-0.44,6.999
	c-0.873,2.384-2.316,4.405-4.331,6.059c-2.017,1.654-5.102,3.009-9.257,4.064c-0.824,0.209-2.068,0.487-3.731,0.839
	c-1.551,0.321-2.812,0.606-3.787,0.854C311.642,558.412,309.408,559.05,306.035,560.049z M311.051,533.554l1.494-0.379
	c3.236-0.822,5.362-1.982,6.377-3.484c1.016-1.5,1.207-3.496,0.575-5.985c-0.553-2.183-1.494-3.655-2.818-4.422
	c-1.325-0.764-3.204-0.837-5.636-0.22c-0.9,0.228-1.983,0.585-3.245,1.068c1.377,5.908,2.233,9.522,2.568,10.844L311.051,533.554z
	 M316.319,553.955c1.182,0.005,2.26-0.115,3.232-0.363c2.713-0.686,4.597-1.996,5.652-3.925c1.056-1.929,1.2-4.407,0.433-7.433
	c-0.501-1.972-1.24-3.501-2.217-4.589c-0.978-1.088-2.122-1.791-3.434-2.111c-1.311-0.317-3.037-0.207-5.176,0.337l-2.887,0.762
	l0.19,0.747l1.83,7.455l1.967,7.511L316.319,553.955z"/>
<path style="fill:#DA2128;" d="M340.542,551.29l-0.611-2.412c2.593-0.801,4.022-1.397,4.288-1.791
	c0.266-0.393,0.282-1.204,0.053-2.429c-0.489-2.567-1.607-7.297-3.356-14.19c-0.672-2.643-1.683-6.463-3.031-11.461
	c-0.909-3.419-1.462-5.279-1.662-5.586c-0.201-0.305-0.463-0.499-0.79-0.579c-0.474-0.103-1.975,0.084-4.504,0.563l-0.611-2.412
	c3.977-0.868,7.01-1.565,9.099-2.097c3.6-0.912,6.838-1.806,9.714-2.679l0.612,2.412c-2.58,0.818-4.006,1.399-4.277,1.744
	c-0.271,0.344-0.337,0.997-0.193,1.958c0.313,1.878,1.182,5.622,2.606,11.233c1.895,7.468,3.244,12.664,4.048,15.588
	c0.803,2.926,1.418,4.629,1.848,5.112c0.179,0.221,0.472,0.354,0.882,0.402c0.41,0.05,1.772-0.139,4.091-0.564l0.613,2.413
	l-3.411,0.774c-2.166,0.467-4.091,0.915-5.774,1.342L340.542,551.29z"/>
<path style="fill:#DA2128;" d="M383.349,541.038c-7.065,1.793-12.936,1.353-17.609-1.325c-4.674-2.675-7.817-7.192-9.432-13.551
	c-1.127-4.441-1.176-8.449-0.146-12.023c1.028-3.575,2.946-6.604,5.749-9.088c2.806-2.485,6.744-4.371,11.818-5.659
	c4.883-1.238,9.078-1.453,12.588-0.642c3.507,0.813,6.459,2.427,8.857,4.847c2.396,2.418,4.12,5.695,5.17,9.831
	c1.139,4.481,1.2,8.587,0.192,12.318c-1.011,3.73-2.96,6.916-5.847,9.554C391.801,537.941,388.022,539.852,383.349,541.038z
	 M383.653,537.659c3.85-0.977,6.558-3.179,8.123-6.605c1.565-3.429,1.612-8.044,0.139-13.851c-1.546-6.095-4.045-10.438-7.495-13.03
	c-2.793-2.086-6.399-2.568-10.823-1.444c-4.136,1.05-6.991,3.232-8.564,6.549c-1.573,3.315-1.639,7.82-0.194,13.512
	c1.041,4.102,2.544,7.419,4.513,9.947c1.966,2.531,4.071,4.18,6.314,4.947C377.907,538.449,380.57,538.441,383.653,537.659z"/>
<path style="fill:#DA2128;" d="M397.72,496.453l-0.611-2.412c3.94-0.858,7.385-1.661,10.333-2.408
	c1.878-0.477,4.513-1.218,7.906-2.221l0.612,2.412c-1.762,0.448-2.968,0.917-3.616,1.408c-0.227,0.159-0.386,0.372-0.48,0.642
	c-0.143,0.321-0.173,0.807-0.088,1.458c0.158,1.103,0.843,4.209,2.06,9.322c0.842,3.559,1.725,7.165,2.655,10.821
	c0.762,3.007,1.667,5.127,2.713,6.359s2.318,2.024,3.814,2.38c2.163,0.489,4.374,0.448,6.634-0.124
	c3.082-0.782,5.309-1.887,6.68-3.316c1.37-1.428,2.107-3.104,2.211-5.025c0.103-1.921-0.608-5.889-2.134-11.902l-2.727-10.619
	c-0.627-2.39-1.106-3.795-1.438-4.223c-0.183-0.238-0.434-0.388-0.756-0.449c-0.529-0.15-1.979-0.008-4.354,0.433l-0.613-2.412
	c2.505-0.493,4.8-1.005,6.889-1.535c1.799-0.456,3.994-1.084,6.583-1.884l0.613,2.412c-1.896,0.481-3.025,0.991-3.389,1.531
	c-0.361,0.542-0.366,1.705-0.015,3.49c0.877,4.343,1.994,9.228,3.351,14.65c0.879,3.466,1.408,5.748,1.585,6.845
	c0.459,2.696,0.389,5.114-0.209,7.251c-0.599,2.14-1.989,4.129-4.174,5.967c-2.183,1.838-5.121,3.227-8.816,4.164
	c-3.85,0.977-7.193,1.215-10.032,0.711c-2.838-0.502-5.017-1.494-6.533-2.973c-1.517-1.48-2.705-3.916-3.565-7.305l-3.137-12.962
	c-0.263-1.034-0.978-3.655-2.148-7.862c-0.374-1.311-0.745-2.175-1.115-2.591c-0.223-0.229-0.51-0.38-0.864-0.454
	C401.188,495.96,399.914,496.102,397.72,496.453z"/>
<path style="fill:#DA2128;" d="M453.013,522.749l-0.378-1.493c0.926-0.765,1.774-1.602,2.542-2.511
	c-1.069-5.251-2.316-10.694-3.745-16.323c-1.123-4.424-2.229-8.586-3.322-12.486c-0.766-2.781-1.31-4.355-1.626-4.725
	c-0.159-0.224-0.402-0.361-0.731-0.41c-0.327-0.049-1.764,0.138-4.307,0.557l-0.612-2.412c3.721-0.841,7.159-1.663,10.318-2.467
	c3.065-0.776,5.953-1.56,8.669-2.352l0.611,2.414c-2.585,0.839-4.042,1.452-4.369,1.842c-0.203,0.235-0.292,0.629-0.262,1.182
	c0.028,0.556,0.734,3.673,2.115,9.355l3.379,14.03c0.666,2.625,1.502,5.643,2.512,9.056c2.533-0.5,4.4-0.903,5.602-1.208
	c3.605-0.914,6.564-1.972,8.879-3.17c0.069-1.855,0.045-4.04-0.073-6.556l2.528-0.642c0.275,2.901,0.772,6.465,1.488,10.69
	c-1.783,0.597-3.44,1.087-4.969,1.477l-10.422,2.501l-4.666,1.113C460.027,520.736,456.972,521.581,453.013,522.749z"/>
<path style="fill:#DA2128;" d="M498.307,489.915c-2.406-0.572-4.27-1.494-5.594-2.77c-1.322-1.275-2.248-2.956-2.777-5.043
	c-0.835-3.293-0.351-6.325,1.451-9.097c1.804-2.772,4.64-4.647,8.508-5.63c3.37-0.854,6.146-0.704,8.326,0.455
	c2.179,1.159,3.618,3.118,4.318,5.876c0.427,1.685,0.395,3.287-0.095,4.808c-0.491,1.523-1.651,3.247-3.486,5.182
	c2.719,0.349,4.781,1.048,6.188,2.098c1.908,1.411,3.22,3.524,3.933,6.339c0.981,3.869,0.481,7.436-1.504,10.7
	c-1.982,3.267-5.044,5.423-9.18,6.473c-3.58,0.909-6.721,0.625-9.419-0.851c-2.698-1.475-4.444-3.783-5.242-6.924
	c-0.577-2.278-0.547-4.305,0.095-6.077C494.469,493.682,495.962,491.834,498.307,489.915z M505.827,483.278
	c0.967-1.245,1.605-2.508,1.912-3.789c0.307-1.281,0.291-2.583-0.044-3.906c-0.512-2.011-1.477-3.45-2.899-4.313
	c-1.42-0.863-3.108-1.048-5.062-0.551c-1.819,0.461-3.131,1.339-3.932,2.634c-0.804,1.297-1.001,2.749-0.591,4.357
	c0.384,1.515,1.247,2.688,2.589,3.52C499.145,482.063,501.817,482.746,505.827,483.278z M501.139,490.466
	c-1.145,1.596-1.867,3.131-2.166,4.605c-0.297,1.474-0.248,2.995,0.15,4.566c0.604,2.376,1.819,4.152,3.647,5.332
	c1.829,1.178,3.786,1.502,5.872,0.973c1.857-0.472,3.24-1.531,4.147-3.178c0.907-1.648,1.103-3.488,0.587-5.52
	c-0.313-1.225-0.858-2.274-1.641-3.147c-0.783-0.873-1.782-1.543-3.001-2.008C507.515,491.621,504.982,491.081,501.139,490.466z"/>
<path style="fill:#DA2128;" d="M525.611,504.353l-0.374-0.27l-0.437-1.724l0.199-0.418c3.594-1.259,5.596-2.041,6.008-2.35
	c0.323-0.247,0.521-0.552,0.593-0.917c0.112-0.6-0.194-2.53-0.92-5.795c-1.253-5.576-2.422-10.503-3.506-14.777
	c-1.426-5.616-2.276-8.725-2.551-9.329c-0.164-0.325-0.39-0.451-0.678-0.378c-0.173,0.044-0.421,0.188-0.745,0.433l-6.98,5.624
	l-0.433-0.135c-0.508-1.359-1.005-2.477-1.492-3.352l0.12-0.489c6.676-3.895,12.142-7.411,16.4-10.552l0.855,0.243
	c0.428,2.727,1.163,6.404,2.205,11.035c1.043,4.632,2.393,10.215,4.051,16.749c1.135,4.465,1.965,7.212,2.489,8.241
	c0.243,0.469,0.548,0.749,0.917,0.839c0.547,0.147,2.551-0.107,6.013-0.762l0.433,0.258l0.438,1.724l-0.258,0.431l-3.583,0.818
	c-3.62,0.838-6.063,1.415-7.325,1.737C533.527,502.132,529.715,503.17,525.611,504.353z"/>
<path style="fill:#DA2128;" d="M287.048,247.488l65.784-110.75c-5.129-0.919-10.316-1.672-15.543-2.289l-63.904,107.585
	L287.048,247.488z"/>
<path style="fill:#DA2128;" d="M305.244,254.75l67.497-113.634c-4.905-1.278-9.869-2.416-14.88-3.415l-66.284,111.594
	L305.244,254.75z"/>
<path style="fill:#DA2128;" d="M314.389,258.4l-1.393,21.183l78.823-132.704c-4.692-1.614-9.443-3.104-14.253-4.456l-67.793,114.135
	L314.389,258.4z"/>
<path style="fill:#DA2128;" d="M301.796,450.004l158.807-267.357c-3.929-2.847-7.931-5.598-12.017-8.229L303.899,418.007
	L301.796,450.004z"/>
<path style="fill:#DA2128;" d="M268.855,240.226l63.173-106.355c-5.376-0.526-10.8-0.881-16.265-1.079l-60.573,101.98
	L268.855,240.226z"/>
<path style="fill:#DA2128;" d="M304.595,407.402l139.909-235.546c-4.114-2.544-8.299-4.99-12.56-7.311L306.699,375.402
	L304.595,407.402z"/>
<path style="fill:#DA2128;" d="M250.663,232.964l59.586-100.317c-1.409-0.022-2.816-0.054-4.231-0.054
	c-4.301,0-8.576,0.111-12.826,0.315l-56.192,94.601L250.663,232.964z"/>
<path style="fill:#DA2128;" d="M310.196,322.189l99.929-168.235c-4.495-1.934-9.05-3.756-13.671-5.442L312.3,290.19L310.196,322.189
	z"/>
<path style="fill:#DA2128;" d="M307.395,364.795l120.286-202.506c-4.305-2.242-8.67-4.381-13.108-6.389L309.499,332.799
	L307.395,364.795z"/>
<path style="fill:#DA2128;" d="M178.114,165.65c-12.653,7.03-24.67,15.066-35.937,24.01l17.521,6.994L178.114,165.65z"/>
<path style="fill:#DA2128;" d="M177.891,203.916l31.52-53.066c-7.888,3.106-15.588,6.585-23.082,10.409l-22.1,37.205
	L177.891,203.916z"/>
<path style="fill:#DA2128;" d="M232.471,225.703l54.91-92.445c-6.067,0.423-12.076,1.058-18.023,1.885l-50.551,85.105
	L232.471,225.703z"/>
<path style="fill:#DA2128;" d="M214.278,218.44l48.926-82.369c-6.484,1.059-12.887,2.352-19.203,3.875l-43.384,73.04L214.278,218.44
	z"/>
<path style="fill:#DA2128;" d="M196.085,211.179l41.312-69.549c-7.046,1.894-13.977,4.065-20.777,6.515l-34.201,57.58
	L196.085,211.179z"/>
<path style="fill:#DA2128;" d="M464.499,185.515l-163.4,275.096l-190.687,48.391l-68.04-107.88
	c0.904,50.505,15.987,97.535,41.462,137.286l338.849-85.989l1.185,4.668L86.64,542.665c1.19,1.78,2.368,3.569,3.599,5.319
	l477.756-121.242c1.146-9.981,1.755-20.127,1.755-30.415C569.75,310.154,528.417,233.642,464.499,185.515z"/>
<polygon style="fill:#DA2128;" points="118.039,255.53 254.201,255.531 297.542,388.923 186.121,469.875 74.695,388.92 "/>
</svg>
