<?xml version="1.0" encoding="iso-8859-1"?>
<!-- Generator: Adobe Illustrator 24.0.1, SVG Export Plug-In . SVG Version: 6.00 Build 0)  -->
<svg version="1.1" id="Layer_1" xmlns="http://www.w3.org/2000/svg" xmlns:xlink="http://www.w3.org/1999/xlink" x="0px" y="0px"
	 viewBox="0 0 612 792" style="enable-background:new 0 0 612 792;" xml:space="preserve">
<path style="fill:#00A14B;" d="M302.766,655.317c103.96,0,170.692-202.896,170.692-424.303c0-62.122-7.501-110.922-7.501-110.922
	s-64.843-30.775-163.191-30.775c-98.349,0-163.191,30.775-163.191,30.775s-7.501,48.801-7.501,110.922
	C132.073,452.422,198.807,655.317,302.766,655.317z"/>
<path style="fill:#FFFFFF;" d="M447.65,132.807c-7.096-2.687-17.697-6.343-31.292-10.012
	c-27.201-7.342-66.379-14.741-113.594-14.741c-72.135-0.033-125.579,17.33-146.048,25.192c-0.642,5.221-1.439,12.266-2.236,20.763
	c-1.837,19.515-3.669,46.697-3.669,77.004c-0.008,71.41,7.081,140.868,20.094,201.523c12.964,60.645,32.034,112.511,54.857,148.284
	c15.171,23.914,31.861,40.35,48.307,48.634c9.436,4.771,18.763,7.102,28.693,7.121c9.93-0.018,19.257-2.35,28.697-7.121
	c9.407-4.769,18.864-12.102,28.101-22.053c18.501-19.852,35.782-50.162,50.009-87.845c28.597-75.385,45.195-179.752,45.146-288.543
	c0.007-43.508-3.788-80.545-5.903-97.763C448.435,133.105,448.049,132.957,447.65,132.807z"/>
<path style="fill:#00A14B;" d="M226.873,176.544v-27.152h20.226c4.065,0,7.156,0.244,9.272,0.732
	c2.116,0.487,3.806,1.349,5.072,2.583c1.265,1.236,1.897,2.6,1.897,4.094c0,1.926-1.047,3.55-3.142,4.871
	c-2.096,1.322-5.332,2.162-9.708,2.519c1.597,0.457,2.811,0.908,3.641,1.352c1.762,0.963,3.433,2.167,5.009,3.611l7.935,7.39h-7.592
	l-6.037-5.648c-1.763-1.63-3.215-2.877-4.356-3.742c-1.141-0.863-2.163-1.469-3.065-1.814c-0.902-0.346-1.821-0.587-2.754-0.723
	c-0.684-0.087-1.804-0.13-3.36-0.13h-7.001v12.058H226.873z M232.909,161.375h12.976c2.758,0,4.916-0.17,6.472-0.508
	c1.556-0.34,2.738-0.883,3.547-1.63c0.809-0.748,1.213-1.56,1.213-2.436c0-1.284-0.783-2.339-2.349-3.166
	c-1.566-0.828-4.041-1.242-7.421-1.242h-14.438V161.375z"/>
<path style="fill:#00A14B;" d="M273.67,176.544v-3.796h6.379v3.796H273.67z"/>
<path style="fill:#00A14B;" d="M290.815,176.544v-27.152h30.773v3.205h-24.736v8.408h21.408v3.205h-21.408v12.335H290.815z"/>
<path style="fill:#00A14B;" d="M323.238,176.544v-3.796h6.381v3.796H323.238z"/>
<path style="fill:#00A14B;" d="M372.621,167.024l6.036,0.908c-1.265,2.951-3.543,5.201-6.829,6.75
	c-3.29,1.549-7.31,2.324-12.058,2.324c-4.916,0-8.917-0.595-11.995-1.787c-3.082-1.191-5.427-2.917-7.033-5.177
	c-1.607-2.258-2.411-4.685-2.411-7.278c0-2.828,0.906-5.294,2.724-7.399c1.814-2.105,4.396-3.704,7.747-4.796
	c3.349-1.093,7.037-1.64,11.061-1.64c4.563,0,8.403,0.692,11.515,2.075c3.111,1.384,5.278,3.328,6.503,5.835l-5.943,0.833
	c-1.06-1.975-2.595-3.414-4.606-4.315c-2.012-0.901-4.544-1.352-7.593-1.352c-3.504,0-6.434,0.499-8.788,1.499
	c-2.354,1.001-4.011,2.343-4.966,4.029c-0.951,1.685-1.429,3.423-1.429,5.214c0,2.309,0.564,4.324,1.695,6.047
	c1.13,1.722,2.888,3.01,5.271,3.862c2.388,0.852,4.969,1.278,7.748,1.278c3.382,0,6.246-0.581,8.591-1.742
	C370.205,171.031,371.792,169.309,372.621,167.024z"/>
<path style="fill:#00A14B;" d="M168.027,240.286v-33.588h-11.995v-6.839h32.127v6.839H176.19v33.588H168.027z"/>
<path style="fill:#00A14B;" d="M193.37,199.859h8.163v21.896c0,3.475,0.101,5.727,0.304,6.757c0.349,1.654,1.181,2.982,2.496,3.984
	c1.313,1.003,3.11,1.503,5.391,1.503c2.316,0,4.063-0.474,5.24-1.42c1.176-0.947,1.884-2.11,2.123-3.489
	c0.239-1.379,0.359-3.667,0.359-6.866v-22.365h8.163v21.234c0,4.854-0.22,8.283-0.662,10.286c-0.441,2.004-1.254,3.694-2.441,5.074
	c-1.185,1.378-2.771,2.477-4.757,3.295c-1.985,0.817-4.577,1.227-7.776,1.227c-3.86,0-6.789-0.446-8.783-1.338
	c-1.995-0.891-3.571-2.049-4.73-3.474c-1.157-1.425-1.921-2.918-2.288-4.481c-0.534-2.316-0.8-5.736-0.8-10.258V199.859z"/>
<path style="fill:#00A14B;" d="M234.238,240.286v-40.427h17.18c4.32,0,7.459,0.363,9.417,1.089c1.959,0.727,3.525,2.018,4.702,3.875
	c1.177,1.857,1.765,3.981,1.765,6.371c0,3.033-0.892,5.538-2.675,7.514c-1.783,1.977-4.448,3.223-7.996,3.737
	c1.765,1.03,3.222,2.16,4.371,3.392c1.149,1.232,2.697,3.419,4.646,6.563l4.936,7.887h-9.761l-5.902-8.796
	c-2.094-3.145-3.53-5.125-4.3-5.943c-0.774-0.817-1.592-1.378-2.455-1.682c-0.864-0.304-2.234-0.455-4.109-0.455h-1.655v16.877
	H234.238z M242.401,216.957h6.039c3.917,0,6.361-0.165,7.336-0.497c0.973-0.331,1.737-0.9,2.289-1.71
	c0.551-0.808,0.826-1.82,0.826-3.033c0-1.36-0.362-2.459-1.088-3.295c-0.726-0.836-1.751-1.366-3.075-1.586
	c-0.662-0.091-2.648-0.138-5.957-0.138h-6.37V216.957z"/>
<path style="fill:#00A14B;" d="M275.107,240.286v-40.427h8.163v17.953l16.49-17.953h10.976l-15.222,15.747l16.049,24.68h-10.561
	l-11.113-18.972l-6.619,6.756v12.216H275.107z"/>
<path style="fill:#00A14B;" d="M352.236,240.286h-8.879l-3.529-9.183h-16.16l-3.336,9.183h-8.66l15.746-40.427h8.632
	L352.236,240.286z M337.207,224.292l-5.569-15.001l-5.461,15.001H337.207z"/>
<path style="fill:#00A14B;" d="M356.648,240.286v-40.427h7.942l16.546,26.998v-26.998h7.583v40.427h-8.19l-16.298-26.363v26.363
	H356.648z"/>
<path style="fill:#00A14B;" d="M397.102,240.286v-40.427h8.162v40.427H397.102z"/>
<path style="fill:#00A14B;" d="M449.497,240.286h-8.879l-3.529-9.183h-16.16l-3.338,9.183h-8.657l15.745-40.427h8.632
	L449.497,240.286z M434.47,224.292l-5.571-15.001l-5.459,15.001H434.47z"/>
<path style="fill:#ED1C24;" d="M397.77,459.139c0,52.469-42.534,95.002-95.005,95.002c-52.47,0-95.004-42.533-95.004-95.002
	c0-52.472,42.535-95.006,95.004-95.006C355.236,364.132,397.77,406.667,397.77,459.139z"/>
<path style="fill:#FFFFFF;" d="M256.556,459.139c0-32.923,26.687-59.61,59.609-59.61c10.372,0,20.123,2.654,28.618,7.313
	c-12.29-10.841-28.419-17.432-46.096-17.432c-38.51,0-69.728,31.217-69.728,69.729c0,38.508,31.218,69.727,69.728,69.727
	c17.675,0,33.805-6.591,46.095-17.43c-8.495,4.657-18.245,7.31-28.617,7.31C283.243,518.746,256.556,492.058,256.556,459.139z"/>
<path style="fill:#00A14B;" d="M206.364,404.864l-25.018-16.861l10.578-15.696l2.953,1.99l-8.504,12.617l7.748,5.222l7.359-10.919
	l2.952,1.99l-7.358,10.918l11.366,7.66L206.364,404.864z"/>
<path style="fill:#00A14B;" d="M214.774,391.407l-14.025-28.802l2.797-2.859l29.594,12.894l-2.958,3.023l-8.82-4.052l-8.205,8.385
	l4.375,8.593L214.774,391.407z M211.582,376.956l6.653-6.798l-8.021-3.751c-2.438-1.137-4.393-2.121-5.863-2.953
	c1.133,1.609,2.153,3.312,3.062,5.11L211.582,376.956z"/>
<path style="fill:#00A14B;" d="M237.769,370.035l-7.34-10.462l-18.839-8.025l3.698-2.594l9.752,4.27
	c1.813,0.807,3.567,1.653,5.265,2.54c-0.217-1.775-0.402-3.816-0.554-6.123l-0.644-10.383l3.54-2.483l0.822,20.666l7.339,10.462
	L237.769,370.035z"/>
<path style="fill:#00A14B;" d="M249.747,361.502l-11.099-28.054l5.196-2.055l14.035,17.419c1.301,1.625,2.264,2.845,2.889,3.66
	c-0.108-1.137-0.238-2.819-0.392-5.046l-1.476-21.99l4.645-1.837l11.1,28.053l-3.328,1.317l-9.29-23.48l1.708,26.48l-3.114,1.232
	l-16.995-20.896l9.449,23.881L249.747,361.502z"/>
<path style="fill:#00A14B;" d="M273.993,336.779c-0.616-4.969,0.143-9.014,2.277-12.132c2.133-3.119,5.163-4.922,9.087-5.408
	c2.571-0.319,4.97,0.055,7.198,1.119c2.227,1.065,4.029,2.712,5.404,4.94c1.375,2.228,2.248,4.84,2.619,7.835
	c0.376,3.037,0.144,5.824-0.7,8.361c-0.842,2.538-2.232,4.552-4.168,6.043c-1.937,1.492-4.114,2.386-6.533,2.686
	c-2.621,0.325-5.048-0.066-7.281-1.171c-2.232-1.105-4.027-2.77-5.382-4.994C275.16,341.833,274.319,339.407,273.993,336.779z
	 M277.8,336.37c0.447,3.608,1.701,6.338,3.764,8.191c2.061,1.853,4.453,2.61,7.175,2.273c2.773-0.343,4.926-1.674,6.458-3.993
	c1.532-2.319,2.059-5.405,1.581-9.258c-0.301-2.437-0.948-4.517-1.939-6.24c-0.992-1.723-2.287-2.993-3.885-3.81
	c-1.6-0.818-3.317-1.114-5.153-0.886c-2.609,0.323-4.733,1.564-6.375,3.724C277.783,328.53,277.242,331.864,277.8,336.37z"/>
<path style="fill:#00A14B;" d="M303.783,348.321l3.272-29.99l3.787,0.413l12.079,25.145l2.57-23.547l3.537,0.386l-3.272,29.991
	l-3.785-0.413l-12.079-25.166l-2.571,23.567L303.783,348.321z"/>
<path style="fill:#00A14B;" d="M336.293,354.042l-0.601-32.063l3.805,1.292l-0.135,23.098c-0.01,1.852-0.072,3.569-0.192,5.15
	c0.94-1.419,1.945-2.816,3.019-4.191l14.218-18.32l3.59,1.217L339.9,355.267L336.293,354.042z"/>
<path style="fill:#00A14B;" d="M351.586,360.225l13.815-26.82l3.301,1.7l-13.815,26.82L351.586,360.225z"/>
<path style="fill:#00A14B;" d="M358.9,363.875l17.189-24.795l3.052,2.116l-15.159,21.868l11.354,7.873l-2.028,2.925L358.9,363.875z"
	/>
<path style="fill:#00A14B;" d="M374.521,375.035l21.196-21.468l2.643,2.609l-18.696,18.935l9.832,9.708l-2.5,2.534L374.521,375.035z
	"/>
<path style="fill:#00A14B;" d="M388.122,388.626L413,371.56l11.477,16.728l-2.936,2.014l-9.376-13.667l-7.619,5.227l8.779,12.799
	l-2.919,2.002l-8.779-12.799l-8.469,5.809l9.744,14.204l-2.935,2.014L388.122,388.626z"/>
<path style="fill:#00A14B;" d="M275.739,585.339l-2.314-0.541l3.712-15.854c-0.691,0.441-1.555,0.841-2.593,1.2
	c-1.038,0.36-1.95,0.6-2.737,0.716l0.563-2.405c1.447-0.351,2.764-0.879,3.95-1.582c1.187-0.704,2.083-1.447,2.691-2.228l1.492,0.35
	L275.739,585.339z"/>
<path style="fill:#00A14B;" d="M287.917,569.26l0.189-2.448l12.492,0.96l-0.152,1.98c-1.337,1.312-2.698,3.087-4.084,5.324
	c-1.385,2.239-2.502,4.563-3.35,6.976c-0.607,1.7-1.057,3.577-1.347,5.634l-2.436-0.186c0.152-1.631,0.602-3.581,1.35-5.848
	c0.748-2.268,1.738-4.435,2.969-6.5c1.232-2.064,2.505-3.786,3.82-5.166L287.917,569.26z"/>
<path style="fill:#00A14B;" d="M306.05,583.444l2.26-0.396c0.278,1.137,0.71,1.944,1.292,2.424c0.581,0.479,1.3,0.687,2.15,0.622
	c0.729-0.053,1.353-0.279,1.875-0.678c0.522-0.4,0.937-0.912,1.243-1.538c0.308-0.626,0.542-1.457,0.703-2.492
	c0.161-1.037,0.202-2.085,0.125-3.142c-0.008-0.113-0.026-0.283-0.051-0.509c-0.413,0.847-1.013,1.553-1.796,2.119
	c-0.784,0.565-1.653,0.884-2.61,0.955c-1.598,0.118-2.996-0.405-4.192-1.569c-1.199-1.164-1.874-2.765-2.024-4.804
	c-0.157-2.104,0.295-3.841,1.354-5.211c1.058-1.368,2.457-2.117,4.197-2.246c1.254-0.094,2.428,0.185,3.522,0.835
	c1.094,0.65,1.961,1.627,2.6,2.933c0.641,1.304,1.054,3.231,1.243,5.778c0.196,2.652,0.086,4.784-0.334,6.396
	c-0.418,1.609-1.126,2.866-2.124,3.765c-0.996,0.899-2.206,1.402-3.628,1.508c-1.51,0.11-2.776-0.248-3.8-1.078
	C307.033,586.286,306.363,585.063,306.05,583.444z M315.073,573.564c-0.106-1.462-0.556-2.596-1.343-3.401
	c-0.789-0.805-1.691-1.17-2.71-1.095c-1.052,0.077-1.936,0.609-2.647,1.592c-0.713,0.983-1.016,2.21-0.905,3.682
	c0.097,1.322,0.548,2.367,1.35,3.14c0.804,0.771,1.749,1.114,2.837,1.034c1.098-0.081,1.969-0.561,2.614-1.439
	C314.914,576.199,315.183,575.028,315.073,573.564z"/>
<path style="fill:#00A14B;" d="M326.69,574.469c-1.049-0.156-1.886-0.532-2.509-1.126c-0.626-0.593-1.051-1.38-1.276-2.356
	c-0.341-1.477-0.135-2.83,0.621-4.063c0.754-1.232,1.949-2.038,3.587-2.416c1.647-0.381,3.09-0.172,4.332,0.625
	c1.239,0.797,2.031,1.933,2.37,3.408c0.218,0.94,0.178,1.811-0.12,2.614c-0.298,0.802-0.871,1.5-1.719,2.093
	c1.251,0.14,2.283,0.591,3.097,1.354c0.814,0.764,1.365,1.773,1.654,3.028c0.4,1.733,0.167,3.322-0.702,4.764
	c-0.868,1.444-2.232,2.381-4.093,2.811c-1.86,0.43-3.499,0.185-4.913-0.737c-1.414-0.922-2.326-2.268-2.734-4.039
	c-0.305-1.318-0.249-2.494,0.168-3.527C324.869,575.866,325.615,575.057,326.69,574.469z M325.253,570.355
	c0.221,0.96,0.689,1.678,1.404,2.154c0.715,0.476,1.531,0.607,2.45,0.394c0.891-0.206,1.552-0.677,1.983-1.412
	c0.43-0.734,0.545-1.541,0.343-2.417c-0.211-0.912-0.682-1.613-1.413-2.1c-0.73-0.487-1.534-0.629-2.408-0.428
	c-0.884,0.204-1.546,0.679-1.989,1.421C325.181,568.713,325.057,569.508,325.253,570.355z M326.669,579.893
	c0.163,0.709,0.478,1.359,0.945,1.952c0.466,0.591,1.05,0.998,1.751,1.22c0.701,0.223,1.408,0.25,2.121,0.086
	c1.104-0.255,1.931-0.848,2.475-1.78c0.543-0.932,0.678-1.988,0.406-3.169c-0.276-1.198-0.878-2.104-1.8-2.716
	c-0.922-0.613-1.94-0.791-3.056-0.534c-1.09,0.252-1.902,0.849-2.439,1.788C326.534,577.681,326.4,578.73,326.669,579.893z"/>
<polygon style="fill:#FFFFFF;" points="351.611,463.041 367.961,451.164 347.752,451.164 341.507,431.941 335.261,451.164 
	315.053,451.164 331.402,463.041 325.156,482.264 341.507,470.382 357.857,482.264 "/>
</svg>
