<svg enable-background="new 0 0 612 792" viewBox="0 0 612 792" xmlns="http://www.w3.org/2000/svg"><path d="m496.06 113.204v487.695c0 23.952-26.146 43.334-58.455 43.334h-80.478c-27.159 0-49.137 15.641-49.137 34.971 0-19.33-21.977-34.971-49.136-34.971h-80.479c-32.31 0-58.455-19.382-58.455-43.334v-487.695z"/><path d="m486.619 122.645h-357.259v256.074h74.169c-1.86-7.914-2.849-16.164-2.85-24.646.004-59.267 48.044-107.306 107.311-107.311 59.267.004 107.308 48.044 107.31 107.311 0 8.482-.988 16.732-2.849 24.646h74.168z" fill="#ee312a"/><path d="m183.842 160.615.267 10.835h-.994c-.469-2.717-1.621-4.902-3.456-6.556s-3.819-2.481-5.953-2.481c-1.649 0-2.955.436-3.917 1.307s-1.443 1.874-1.443 3.008c0 .719.17 1.358.509 1.917.469.751 1.221 1.495 2.255 2.229.76.527 2.514 1.462 5.263 2.805 3.847 1.87 6.442 3.636 7.784 5.297 1.326 1.662 1.988 3.564 1.988 5.705 0 2.717-1.071 5.054-3.213 7.011-2.143 1.958-4.862 2.937-8.16 2.937-1.035 0-2.013-.105-2.934-.312-.921-.208-2.078-.6-3.468-1.175-.776-.319-1.415-.48-1.916-.48-.42 0-.865.16-1.333.48-.469.32-.849.807-1.14 1.462h-.897v-12.273h.897c.712 3.452 2.082 6.085 4.111 7.898 2.028 1.814 4.215 2.721 6.56 2.721 1.81 0 3.253-.487 4.329-1.462 1.075-.975 1.612-2.109 1.612-3.404 0-.767-.206-1.51-.618-2.23-.412-.719-1.039-1.402-1.879-2.049-.841-.648-2.328-1.49-4.462-2.529-2.991-1.454-5.141-2.693-6.45-3.716-1.309-1.022-2.316-2.165-3.019-3.428-.704-1.262-1.055-2.652-1.055-4.171 0-2.589.961-4.794 2.886-6.616 1.924-1.822 4.348-2.733 7.275-2.733 1.067 0 2.102.128 3.104.384.76.192 1.685.547 2.776 1.066 1.092.52 1.855.779 2.292.779.42 0 .751-.128.994-.384.243-.255.469-.871.679-1.846h.726z"/><path d="m198.805 163.252v8.198h5.384v2.373h-5.384v13.831c0 1.294.06 2.13.182 2.505.121.376.335.68.643.911.307.232.59.348.849.348 1.05 0 2.045-.791 2.983-2.373l.728.527c-1.31 3.068-3.436 4.602-6.378 4.602-1.439 0-2.655-.395-3.649-1.187-.994-.791-1.628-1.674-1.903-2.649-.162-.543-.243-2.013-.243-4.41v-12.105h-2.958v-.839c2.037-1.422 3.771-2.916 5.202-4.482s2.68-3.316 3.747-5.25z"/><path d="m218.859 190.555c-2.765 2.413-5.247 3.62-7.445 3.62-1.294 0-2.369-.419-3.225-1.258-.857-.839-1.285-1.89-1.285-3.152 0-1.709.743-3.248 2.23-4.614s4.729-3.184 9.725-5.453v-2.253c0-1.694-.093-2.76-.279-3.2-.186-.439-.538-.823-1.055-1.15-.518-.328-1.1-.492-1.747-.492-1.051 0-1.915.232-2.595.695-.42.288-.63.623-.63 1.007 0 .335.226.751.679 1.247.614.687.921 1.351.921 1.989 0 .783-.295 1.45-.885 2.002-.591.552-1.362.827-2.316.827-1.019 0-1.872-.303-2.559-.911-.687-.607-1.031-1.318-1.031-2.133 0-1.151.461-2.25 1.382-3.296.922-1.046 2.207-1.849 3.856-2.409s3.362-.839 5.141-.839c2.15 0 3.852.452 5.105 1.354 1.253.903 2.065 1.882 2.437 2.937.226.671.339 2.213.339 4.626v8.701c0 1.023.04 1.666.121 1.93s.202.459.364.587.348.191.558.191c.42 0 .849-.295 1.285-.887l.728.575c-.809 1.183-1.645 2.042-2.51 2.577s-1.847.803-2.947.803c-1.293 0-2.303-.299-3.031-.899-.725-.601-1.17-1.507-1.331-2.722zm0-1.75v-7.502c-1.957 1.135-3.411 2.349-4.365 3.644-.63.863-.945 1.734-.945 2.613 0 .735.267 1.382.8 1.941.404.432.97.647 1.697.647.808-.001 1.746-.448 2.813-1.343z"/><path d="m240.587 171.45v2.948c1.245-1.342 2.396-2.281 3.456-2.816 1.059-.535 2.219-.803 3.479-.803 1.456 0 2.676.336 3.662 1.007s1.746 1.694 2.28 3.068c1.293-1.438 2.534-2.477 3.722-3.116s2.429-.959 3.723-.959c1.567 0 2.816.356 3.746 1.067.929.711 1.577 1.614 1.94 2.708.364 1.095.545 2.841.545 5.238v9.181c0 1.726.158 2.797.473 3.212.315.416.974.688 1.976.815v.863h-11.712v-.863c.921-.08 1.601-.432 2.037-1.055.291-.432.437-1.422.437-2.973v-9.636c0-1.998-.081-3.268-.242-3.811-.162-.543-.417-.947-.764-1.211-.348-.264-.756-.396-1.225-.396-.695 0-1.398.252-2.11.755s-1.431 1.258-2.158 2.265v12.033c0 1.614.137 2.629.412 3.044.372.591 1.083.919 2.134.983v.863h-11.737v-.861c.63-.032 1.128-.188 1.491-.468.364-.279.606-.615.727-1.007.122-.391.182-1.242.182-2.553v-9.636c0-2.029-.081-3.299-.242-3.811-.162-.511-.433-.911-.813-1.199s-.788-.432-1.224-.432c-.647 0-1.237.168-1.77.503-.76.496-1.569 1.342-2.425 2.541v12.033c0 1.582.158 2.625.473 3.128s.974.803 1.977.899v.863h-11.688v-.861c.954-.096 1.633-.399 2.037-.911.274-.351.412-1.39.412-3.116v-12.656c0-1.694-.158-2.749-.473-3.164-.315-.416-.975-.687-1.977-.815v-.887h9.239z"/><path d="m281.813 171.45v2.9c1.164-1.247 2.279-2.153 3.346-2.721 1.067-.567 2.215-.851 3.443-.851 1.471 0 2.692.404 3.662 1.21.97.808 1.616 1.81 1.939 3.009.259.911.388 2.661.388 5.25v8.725c0 1.726.158 2.801.473 3.224.316.424.974.691 1.976.803v.863h-11.47v-.862c.856-.112 1.47-.463 1.843-1.055.258-.4.388-1.391.388-2.973v-9.972c0-1.837-.072-2.997-.218-3.476s-.393-.851-.74-1.115c-.348-.264-.732-.395-1.152-.395-1.391 0-2.684.983-3.88 2.948v12.009c0 1.678.157 2.741.473 3.189.315.447.901.727 1.758.839v.863h-11.47v-.862c.954-.096 1.632-.399 2.037-.911.275-.351.412-1.39.412-3.116v-12.656c0-1.694-.158-2.749-.473-3.164-.315-.416-.974-.687-1.976-.815v-.887h9.241z"/><path d="m309.579 171.45v5.082c1.503-2.317 2.82-3.855 3.953-4.615 1.13-.759 2.221-1.139 3.272-1.139.905 0 1.629.276 2.171.827.541.551.813 1.331.813 2.337 0 1.071-.264 1.902-.789 2.493s-1.16.887-1.902.887c-.858 0-1.601-.272-2.231-.815-.631-.543-1.003-.847-1.115-.911-.163-.096-.349-.144-.559-.144-.47 0-.913.176-1.333.527-.664.544-1.164 1.318-1.503 2.325-.52 1.55-.776 3.26-.776 5.13v5.154l.024 1.342c0 .911.056 1.495.17 1.75.193.431.48.747.859.947.381.2 1.023.324 1.929.372v.863h-12.247v-.862c.986-.08 1.653-.348 2.001-.803s.521-1.658.521-3.607v-12.393c0-1.278-.065-2.093-.194-2.445-.162-.447-.397-.775-.703-.983-.308-.208-.849-.351-1.625-.432v-.887z"/><path d="m322.189 186.48c1.13 0 2.089.392 2.872 1.174.784.783 1.177 1.726 1.177 2.829 0 1.102-.397 2.041-1.188 2.816-.792.775-1.745 1.163-2.86 1.163-1.116 0-2.066-.388-2.851-1.163-.784-.775-1.176-1.714-1.176-2.816 0-1.103.392-2.045 1.176-2.829.784-.782 1.734-1.174 2.85-1.174z"/><path d="m339.149 186.48c1.131 0 2.089.392 2.873 1.174.784.783 1.176 1.726 1.176 2.829 0 1.102-.396 2.041-1.188 2.816-.793.775-1.746 1.163-2.86 1.163-1.115 0-2.065-.388-2.85-1.163s-1.177-1.714-1.177-2.816c0-1.103.392-2.045 1.177-2.829.784-.782 1.734-1.174 2.849-1.174zm.024-15.677c1.116 0 2.065.388 2.85 1.163.784.775 1.176 1.714 1.176 2.817 0 1.102-.392 2.041-1.176 2.816s-1.733 1.163-2.85 1.163c-1.115 0-2.064-.387-2.85-1.163-.784-.775-1.175-1.714-1.175-2.816 0-1.103.391-2.042 1.175-2.817.785-.776 1.735-1.163 2.85-1.163z"/><path d="m358.704 194.534 8.948-26.823h-6.815c-2.667 0-4.671.344-6.014 1.03-.936.479-1.713 1.383-2.328 2.709h-.921l2.376-10.092h19.595l-11.034 33.176z"/><path d="m398.491 177.611c0 3.244-.461 6.272-1.383 9.085-.548 1.726-1.29 3.141-2.218 4.243-.931 1.103-1.985 1.978-3.165 2.625-1.181.647-2.466.971-3.855.971-1.585 0-3.016-.4-4.293-1.199-1.276-.799-2.409-1.942-3.395-3.428-.712-1.086-1.334-2.533-1.867-4.339-.695-2.445-1.043-4.97-1.043-7.575 0-3.531.501-6.775 1.503-9.732.825-2.445 2.077-4.318 3.759-5.621 1.682-1.302 3.46-1.954 5.336-1.954 1.907 0 3.69.644 5.347 1.93s2.874 3.017 3.649 5.189c1.083 2.989 1.625 6.257 1.625 9.805zm-7.47-.048c0-5.688-.032-9.004-.097-9.948-.161-2.221-.549-3.723-1.163-4.506-.404-.511-1.06-.767-1.965-.767-.695 0-1.244.192-1.649.575-.599.56-1.003 1.546-1.213 2.96s-.315 6.349-.315 14.802c0 4.602.161 7.687.485 9.253.243 1.135.591 1.894 1.043 2.277s1.051.575 1.794.575c.809 0 1.415-.255 1.819-.767.679-.895 1.066-2.277 1.163-4.147z"/><path d="m417.23 160.688v26.583c0 1.998.087 3.272.267 3.823.177.551.548 1.003 1.115 1.354.565.352 1.47.528 2.716.528h.752v.887h-17.314v-.887h.873c1.407 0 2.408-.16 3.007-.479.597-.32 1.002-.759 1.213-1.318.208-.559.315-1.862.315-3.907v-16.852c0-1.502-.073-2.441-.219-2.816-.145-.376-.417-.695-.813-.959s-.853-.396-1.369-.396c-.825 0-1.828.256-3.007.767l-.436-.863 12.101-5.465z"/><path d="m434.198 161.358h15.398l-2.449 6.185h-12.948l-1.237 3.236c5.577.208 9.87 1.583 12.877 4.123 2.473 2.094 3.709 4.698 3.709 7.814 0 1.998-.573 3.952-1.721 5.861-1.148 1.91-2.765 3.38-4.851 4.411-2.085 1.031-4.372 1.546-6.862 1.546-2.684 0-4.745-.496-6.185-1.486-1.001-.703-1.502-1.502-1.502-2.397 0-.687.263-1.294.788-1.822.525-.527 1.136-.791 1.83-.791.631 0 1.27.128 1.916.383.647.256 1.754.927 3.322 2.014.986.671 1.836 1.135 2.547 1.39.501.192 1.066.288 1.697.288 1.325 0 2.452-.479 3.383-1.438.93-.959 1.393-2.109 1.393-3.452 0-2.812-1.422-5.097-4.268-6.855-2.845-1.758-6.434-2.637-10.767-2.637-.438 0-1.092.008-1.965.024z"/><path d="m267.264 607.864h-22.918l-19.794-26.679h-8.693v26.679h-18.666v-72.758h31.468c4.3 0 7.997.245 11.092.733s5.994 1.547 8.698 3.176c2.736 1.63 4.911 3.738 6.523 6.328 1.613 2.59 2.418 5.839 2.418 9.748 0 5.375-1.246 9.757-3.738 13.144-2.492 3.389-6.051 6.207-10.677 8.454zm-29.269-50.476c0-1.823-.374-3.388-1.124-4.69-.749-1.302-2.036-2.329-3.86-3.078-1.271-.521-2.753-.839-4.447-.953-1.693-.114-3.665-.172-5.912-.172h-6.792v19.596h5.766c2.998 0 5.505-.147 7.525-.44 2.02-.294 3.714-.961 5.082-2.003 1.303-1.011 2.256-2.126 2.859-3.348.601-1.223.903-2.86.903-4.912z" fill="#fff"/><path d="m346.226 571.558c0 6.775-1.547 12.843-4.643 18.201-3.095 5.359-7.004 9.472-11.727 12.339-3.551 2.15-7.444 3.648-11.679 4.495s-9.252 1.271-15.05 1.271h-25.653v-72.758h26.386c5.929 0 11.044.497 15.343 1.49 4.3.994 7.916 2.402 10.848 4.228 5.017 3.061 8.966 7.191 11.85 12.386 2.882 5.196 4.325 11.311 4.325 18.348zm-19.4-.146c0-4.788-.871-8.886-2.613-12.289-1.743-3.404-4.505-6.066-8.283-7.99-1.922-.943-3.885-1.587-5.888-1.93-2.004-.342-5.025-.513-9.064-.513h-4.74v45.54h4.74c4.462 0 7.737-.202 9.822-.61 2.084-.407 4.12-1.148 6.107-2.224 3.421-1.954 5.928-4.568 7.525-7.842 1.596-3.274 2.394-7.321 2.394-12.142z" fill="#fff"/><path d="m418.785 607.864h-61.128v-13.634l36.249-45.052h-34.489v-14.072h57.414v13.877l-36.24 44.809h38.194z" fill="#fff"/><ellipse cx="307.99" cy="354.072" fill="#fff" rx="107.31" ry="107.31" transform="matrix(.9732 -.2298 .2298 .9732 -73.1098 80.2331)"/><path d="m245.837 450.495v38.342c0 2.881.148 4.806.443 5.773.295.968.913 1.981 1.853 3.038.939 1.058 2.443 2.19 4.512 3.4l1.249.73v1.279l-28.763-16.83v-1.279l1.45.849c2.336 1.368 4.001 2.111 4.995 2.231.993.121 1.665-.12 2.014-.723.349-.602.523-2.379.523-5.329v-24.305c0-2.166-.092-3.742-.362-5.506-.348-2.271-.692-3.429-1.35-4.679-.47-.893-1.417-1.399-2.276-1.901-1.37-.802-3.035-1.407-4.995-1.816l-.725-3.452 20.102 9.399z" fill="#fff"/><path d="m263.58 508.416v-.969c5.086.024 9.399-.503 12.938-1.584 3.539-1.079 6.343-2.692 8.411-4.839 2.068-2.146 3.516-4.783 4.343-7.91-1.9.401-3.516.629-4.849.681-1.333.053-2.735-.051-4.206-.312-4.719-.834-8.649-2.808-11.789-5.922-3.141-3.114-4.711-6.895-4.711-11.343 0-3.089.851-5.768 2.551-8.037 1.701-2.269 4.128-3.833 7.285-4.692 3.155-.86 6.434-.988 9.835-.388 3.647.645 7.093 2.039 10.342 4.18 3.247 2.143 5.837 4.869 7.767 8.185 1.93 3.314 2.895 6.873 2.895 10.677 0 4.932-1.57 9.38-4.711 13.342s-7.821 6.759-14.041 8.39c-6.22 1.63-13.574 1.81-22.06.541zm26.381-18.084c.306-2.526.459-4.771.459-6.729 0-4.195-.643-8.216-1.93-12.063-.735-2.135-1.823-3.802-3.264-5.001-.766-.643-1.762-1.072-2.987-1.289-1.533-.272-2.727.013-3.585.852-1.195 1.149-1.793 3.637-1.793 7.463 0 6.384 1.011 10.965 3.034 13.743 1.317 1.801 3.095 2.897 5.331 3.294 1.196.211 2.773.122 4.735-.27z" fill="#fff"/><path d="m352.446 459.591v.968c-5.546 2.042-9.997 4.194-13.352 6.459-3.355 2.264-6.005 4.762-7.95 7.49-1.947 2.73-3.456 5.953-4.527 9.669 1.348-.93 2.466-1.577 3.354-1.941 1.991-.814 3.999-1.399 6.02-1.757 4.658-.823 8.541-.236 11.652 1.76 3.108 1.998 4.665 5.197 4.665 9.6 0 3.089-.843 6.073-2.528 8.952-1.686 2.879-4.075 5.296-7.169 7.248-3.096 1.954-6.406 3.242-9.928 3.865-3.831.678-7.37.514-10.617-.49-3.249-1.004-5.784-2.867-7.606-5.587-1.823-2.72-2.734-5.867-2.734-9.439 0-5.255 1.677-10.443 5.032-15.566 3.357-5.122 8.119-9.571 14.294-13.349 6.174-3.779 13.305-6.405 21.394-7.882zm-26.426 27.492c-.247 3.224-.368 5.573-.368 7.049 0 3.181.405 6.186 1.219 9.016.811 2.829 1.921 4.72 3.332 5.668 1.01.674 2.205.889 3.584.646 1.409-.249 2.667-1.088 3.77-2.516 1.103-1.429 1.653-4.032 1.653-7.812 0-6.361-1.026-10.57-3.079-12.628-1.316-1.334-3.094-1.804-5.331-1.408-1.227.215-2.821.877-4.78 1.985z" fill="#fff"/><path d="m370.384 499.17 14.866-47.385-11.32 6.624c-4.431 2.593-7.761 5.037-9.99 7.332-1.558 1.603-2.847 3.659-3.868 6.17l-1.53.895 3.947-16.865 32.551-19.046-18.33 58.574z" fill="#fff"/><path d="m307.991 249.124c-57.962.002-104.949 46.987-104.951 104.949.002 57.962 46.988 104.949 104.951 104.951 57.962-.002 104.948-46.989 104.95-104.951-.002-57.963-46.988-104.948-104.95-104.949z"/><g fill="#fff"><path d="m209.145 368.962c-.234-.634-.381-1.054-.46-1.282-.604-4.45-.922-8.991-.922-13.608 0-3.516.183-6.989.536-10.411.404-.447 1.044-1.148 1.894-2.045 4.013-4.307 12.821-12.825 19.458-16.054 4.469 9.598 13.167 19.163 15.587 21.753.115 4.057.644 21.544 1.811 44.885-.988.961-2.797 2.746-4.788 4.84-2.487 2.631-5.208 5.648-7.059 8.334-7.011-2.431-13.794-11.182-18.512-19.852-2.559-4.626-4.589-9.16-5.97-12.522-.691-1.683-1.22-3.071-1.575-4.038z"/><path d="m321.954 273.069c10.648 2.805 19.368 7.707 25.436 11.955 3.1 2.167 5.51 4.16 7.132 5.6.812.719 1.428 1.302 1.835 1.698.076 1.261.222 3.834.367 7.405.212 5.191.424 12.464.424 20.77 0 4.094-.055 8.446-.183 12.917-7.901 3.913-15.71 7.715-21.64 10.582-4.315 2.085-7.628 3.675-9.272 4.462-4.482-2.686-22.238-13.253-41.199-23.56-.085-15.374-1.499-28.17-2.025-32.426.532-.334 1.224-.763 2.076-1.281 6.334-3.856 20.992-12.255 37.049-18.122z"/><path d="m284.903 412.222c-11.716-4.573-20.119-9.706-25.594-13.708-2.814-2.057-4.858-3.814-6.187-5.044-.594-.55-1.038-.987-1.351-1.305-.663-13.241-1.121-24.612-1.415-32.715-.209-5.784-.333-9.89-.39-11.851 7.968-5.32 16.181-10.037 22.487-13.451 3.295-1.786 6.068-3.217 8.014-4.202.817-.413 1.475-.741 1.976-.988 10.762 5.848 21.169 11.8 28.962 16.335 5.921 3.449 10.313 6.068 12.232 7.218.085 1.707.243 5.098.403 9.7.228 6.531.454 15.471.469 25.374-.459.371-1.101.881-1.945 1.531-5.465 4.216-18.753 13.79-37.661 23.106z"/><path d="m287.693 435.607c-.015-8.842-.189-16.283-.271-19.36 21.252-10.525 35.429-21.296 39.652-24.67 3.897 2.248 15.043 7.961 29.881 9.212.04.242.081.5.127.79.764 4.913 2.281 16.345 2.354 29.72-.036.033-.064.061-.104.096-1.914 1.764-7.019 6.256-13.383 10.247-6.356 4.013-13.994 7.438-20.65 7.409-10.52.005-20.184-3.511-27.202-7.067-3.506-1.775-6.347-3.555-8.3-4.881-.901-.613-1.603-1.122-2.104-1.496z"/><path d="m381.894 361.372c-7.726-12.034-17.738-24.297-20.226-27.3.142-4.706.199-9.281.199-13.576 0-13.718-.57-24.615-.78-28.15 1.522-1.135 5.24-3.473 11.273-4.672 4.376 1.469 9.948 5.278 14.311 8.793 2.287 1.829 4.27 3.57 5.68 4.85.99.902 1.678 1.557 2.002 1.871 6.03 10.211 10.301 21.581 12.396 33.7-.008 5.368-.354 10.242-.701 13.771-.195 1.989-.386 3.518-.52 4.503-4.553 2.042-12.914 5.115-23.634 6.21z"/><path d="m383.71 288.403c-2.78-1.886-5.718-3.593-8.608-4.742.11-1.016.216-2.345.231-3.823 1.204 1.092 2.383 2.213 3.531 3.363 1.676 1.676 3.291 3.412 4.846 5.202z"/><path d="m321.697 254.78c-.125 3.945-.59 7.507-1.056 10.183-.273 1.565-.548 2.827-.749 3.691-.013.059-.024.1-.037.155-19.165 7.08-35.978 17.413-39.958 19.932-2.426-.601-8.838-1.962-17.275-1.965-2.932 0-6.112.18-9.443.603-.282-1.621-.602-4.245-.602-7.821 0-2.636.178-5.797.671-9.449 15.738-10.283 34.534-16.264 54.743-16.266 4.652.001 9.226.324 13.706.937z"/><path d="m237.118 283.201c3.427-3.427 7.101-6.605 10.992-9.509-.177 2.148-.253 4.11-.253 5.865 0 4.719.516 7.992.882 9.725-3.213 3.3-13.486 14.686-19.69 31.38-5.502 2.265-11.288 7.103-16.04 11.5-1.28 1.195-2.473 2.357-3.542 3.428 3.778-20.267 13.648-38.384 27.651-52.389z"/><path d="m215.49 392.73c4.828 7.619 11.02 14.836 18.92 17.307 2.273 6.186 6.766 12.965 10.804 18.463 2.906 3.94 5.575 7.17 7.014 8.866-5.435-3.647-10.496-7.808-15.109-12.42-9.162-9.163-16.552-20.085-21.629-32.216z"/><path d="m255.674 439.577c2.559.403 9.797 1.436 17.055 1.44 4.344-.017 8.664-.341 12.224-1.575 3.916 2.918 17.844 12.479 35.48 14.092-4.077.504-8.228.768-12.441.768-19.181 0-37.089-5.385-52.318-14.725z"/><path d="m378.864 424.946c-1.723 1.723-3.509 3.382-5.353 4.977-.334.047-.791.105-1.367.168-1.253.134-2.992.27-4.89.27-1.009 0-2.061-.045-3.105-.139-.165-14.935-2.033-27.22-2.656-30.934 3.053-3.471 14.303-16.84 20.856-33.207 10.344-1.057 18.579-3.833 23.675-5.984.443 2.265.961 5.753.976 9.633-3.357 21.409-13.486 40.562-28.136 55.216z"/></g></svg>