<?xml version="1.0" encoding="iso-8859-1"?>
<!-- Generator: Adobe Illustrator 24.0.1, SVG Export Plug-In . SVG Version: 6.00 Build 0)  -->
<svg version="1.1" id="Layer_1" xmlns="http://www.w3.org/2000/svg" xmlns:xlink="http://www.w3.org/1999/xlink" x="0px" y="0px"
	 viewBox="0 0 612 792" style="enable-background:new 0 0 612 792;" xml:space="preserve">
<ellipse transform="matrix(0.7071 -0.7071 0.7071 0.7071 -190.3485 331.9298)" style="fill:#7E3485;" cx="305.5" cy="395.736" rx="278.717" ry="278.716"/>
<circle style="fill:#903F98;" cx="305.501" cy="395.736" r="275.783"/>
<ellipse transform="matrix(0.7071 -0.7071 0.7071 0.7071 -190.3487 331.9301)" style="fill:#7E3485;" cx="305.501" cy="395.736" rx="266.982" ry="266.982"/>
<ellipse transform="matrix(0.7071 -0.7071 0.7071 0.7071 -190.3483 331.9304)" style="fill:#FFFFFF;" cx="305.501" cy="395.736" rx="264.047" ry="264.047"/>
<ellipse transform="matrix(0.0022 -1 1 0.0022 -90.8915 700.3856)" style="fill:#7E3485;" cx="305.501" cy="395.736" rx="190.701" ry="190.7"/>
<rect x="196.956" y="601.232" transform="matrix(0.3249 -0.9458 0.9458 0.3249 -422.1508 626.2184)" style="fill:#7E3485;" width="61.195" height="15.137"/>
<path style="fill:#7E3485;" d="M297.217,598.988c-2.341-2.898-5.535-5.235-9.584-7.015c-4.052-1.782-9.065-3.057-15.047-3.824
	c-4.278-0.55-8.307-0.404-12.079,0.431c-3.772,0.841-6.961,2.577-9.553,5.222c-2.596,2.644-4.184,6.233-4.768,10.778
	c-0.456,3.529-0.109,6.78,1.034,9.743c1.146,2.968,3.082,5.407,5.813,7.322c2.73,1.91,6.119,3.125,10.169,3.646l21.221,2.725
	l-0.164,0.678c-0.851,3.899-3.153,6.622-6.917,8.16c-1.851,0.744-4.085,0.946-6.698,0.613l-23.58-3.03l-1.682,13.087l22.97,2.951
	c4.938,0.635,9.35,0.534,13.233-0.303c3.883-0.839,7.222-2.39,10.018-4.649c2.793-2.263,5.055-5.21,6.779-8.836
	c1.724-3.629,2.9-7.891,3.529-12.782c0.712-5.522,0.687-10.334-0.064-14.434C301.096,605.378,299.554,601.883,297.217,598.988z
	 M286.06,615.445l-17.125-2.199c-2.019-0.261-3.657-0.96-4.917-2.1c-1.262-1.14-1.749-2.822-1.461-5.041
	c0.294-2.285,1.445-3.793,3.462-4.526c2.021-0.734,4.357-0.932,7.013-0.591c9.177,1.183,13.53,5.796,13.052,13.844L286.06,615.445z"
	/>
<path style="fill:#7E3485;" d="M371.86,621.207l-8.086,1.352l-6.121-36.621l-17.81,2.974L311.468,631.3l2.18,13.015l37.371-6.247
	l1.791,10.721l14.929-2.497l-1.791-10.718l8.088-1.351L371.86,621.207z M330.358,628.143l15.18-22.869l3.306,19.78L330.358,628.143z
	"/>
<rect x="376.282" y="578.057" transform="matrix(0.9313 -0.3641 0.3641 0.9313 -195.2814 181.5629)" style="fill:#7E3485;" width="15.138" height="61.193"/>
<path style="fill:#7E3485;" d="M124.064,520.269l-4.352-7.178l12.151-18.889l-7.308-12.057l-12.652,20.104l-0.248-0.204
	c-2.106-1.722-4.652-2.766-7.635-3.129c-2.984-0.364-6.9,0.922-11.751,3.861c-2.598,1.576-4.711,3.201-6.342,4.882
	c-1.63,1.678-2.767,3.435-3.41,5.271c-0.644,1.838-0.78,3.782-0.409,5.84c0.371,2.057,1.265,4.252,2.68,6.586l14.803,24.42
	l48.238-29.238l-6.507-10.73L124.064,520.269z M103.486,532.744l-6.377-10.519c-1.006-1.657-1.443-3.194-1.318-4.601
	c0.125-1.409,1.233-2.75,3.327-4.02c3.776-2.288,6.758-1.629,8.943,1.98l6.377,10.521L103.486,532.744z"/>
<path style="fill:#7E3485;" d="M95.633,488.513c4.093-1.243,7.677-2.756,10.749-4.539c3.075-1.782,5.584-3.966,7.526-6.547
	c1.941-2.582,3.13-5.667,3.561-9.253c0.434-3.582-0.047-7.682-1.445-12.286c-1.396-4.595-3.274-8.264-5.633-11.005
	c-2.358-2.741-5.066-4.65-8.122-5.73c-3.054-1.077-6.35-1.495-9.886-1.265c-3.538,0.238-7.354,0.978-11.446,2.219
	c-4.093,1.243-7.674,2.75-10.747,4.513c-3.072,1.767-5.581,3.949-7.527,6.554c-1.943,2.6-3.131,5.68-3.563,9.246
	c-0.433,3.569,0.055,7.671,1.464,12.307c1.41,4.646,3.287,8.328,5.628,11.05c2.339,2.721,5.039,4.616,8.097,5.688
	c3.06,1.071,6.359,1.487,9.898,1.257C87.724,490.491,91.54,489.756,95.633,488.513z M76.159,476.218
	c-1.971-1.288-3.454-3.572-4.452-6.859c-1.444-4.763-0.969-8.36,1.422-10.794c2.394-2.439,6.248-4.462,11.564-6.077
	c3.413-1.035,6.39-1.629,8.932-1.783c2.543-0.153,4.805,0.415,6.788,1.706c1.983,1.29,3.475,3.585,4.474,6.878
	c0.997,3.282,1.032,6.008,0.104,8.177c-0.926,2.169-2.49,3.895-4.695,5.185c-2.204,1.286-5.014,2.448-8.423,3.483
	c-3.409,1.035-6.389,1.631-8.939,1.785C80.389,478.075,78.129,477.508,76.159,476.218z"/>
<polygon style="fill:#7E3485;" points="106.525,412.256 105.97,399.719 81.825,400.786 48.827,384.369 49.43,397.95 70.963,407.556 
	50.362,419.01 50.962,432.592 82.379,413.321 "/>
<path style="fill:#7E3485;" d="M107.164,369.476l-10.903-6.667l3.755-18.111l12.653-1.764l2.683-12.936l-59.567,9.447l-2.207,10.645
	l50.899,32.354L107.164,369.476z M86.412,356.785l-13.617-8.252l15.779-2.174L86.412,356.785z"/>
<path style="fill:#7E3485;" d="M106.33,324.798c2.92,0.301,5.476,0.028,7.666-0.825c4.069-1.572,7.134-4.707,9.199-9.404
	l7.087-16.118l-11.132-4.895l-5.627,12.795c-0.521,1.185-1.101,2.134-1.741,2.841c-0.641,0.711-1.523,1.294-2.649,1.748
	c-1.318,0.512-2.575,0.707-3.771,0.586c-1.194-0.121-2.538-0.507-4.026-1.162l-31.769-13.968l-5.052,11.488l32.913,14.473
	C100.44,323.682,103.406,324.496,106.33,324.798z"/>
<path style="fill:#7E3485;" d="M159.145,234.371c-2.53-2.276-4.957-3.824-7.278-4.645c-2.32-0.82-4.444-1.096-6.375-0.825
	c-1.934,0.269-3.653,0.871-5.165,1.801c-1.511,0.933-2.841,2.035-3.987,3.31l-11.088,12.332c-0.963,1.07-2.063,1.698-3.3,1.88
	c-1.236,0.182-2.479-0.288-3.731-1.413c-1.248-1.124-1.864-2.293-1.847-3.507c0.018-1.214,0.5-2.348,1.449-3.403l19.452-21.633
	l-9.045-8.132l-21.31,23.701c-1.602,1.783-2.806,3.823-3.609,6.123c-0.803,2.302-0.774,4.889,0.079,7.76
	c0.854,2.873,2.917,5.776,6.182,8.711c3.265,2.936,6.37,4.679,9.316,5.223c2.949,0.545,5.525,0.297,7.728-0.748
	c2.204-1.043,4.108-2.457,5.713-4.243l11.112-12.358c2.264-2.517,4.648-2.652,7.148-0.402c2.502,2.25,2.657,4.588,0.476,7.018
	l-19.867,22.097l9.042,8.13l21.674-24.105c1.58-1.757,2.766-3.8,3.556-6.134c0.79-2.333,0.749-4.94-0.124-7.82
	C164.471,240.209,162.404,237.301,159.145,234.371z"/>
<polygon style="fill:#7E3485;" points="185.555,182.517 178.715,172.46 141.653,197.664 148.494,207.721 161.842,198.644 
	186.722,235.232 197.1,228.174 172.219,191.586 "/>
<path style="fill:#7E3485;" d="M301.138,151.974c-1.938-4.065-4.543-7.029-7.81-8.894c-3.271-1.866-7.126-2.588-11.567-2.17
	l-26.272,2.478l5.269,55.834l-39.151-45.346l-10.211,3.732l-0.682,60.308l12.44-4.546l-0.081-12.782l17.374-6.351l8.164,9.824
	l12.408-4.535l-0.002-0.002l26.044-2.457c3.331-0.315,6.229-1.203,8.684-2.667c2.452-1.465,4.427-3.465,5.923-6.008
	c1.496-2.537,2.514-5.592,3.058-9.165c0.54-3.571,0.596-7.627,0.17-12.173C304.328,161.065,303.074,156.04,301.138,151.974z
	 M223.004,189.042l-0.16-15.922l10.161,12.267L223.004,189.042z M282.44,185.288l-10.688,1.009l-3.015-31.943l10.688-1.009
	c6.955-0.656,10.937,4.342,11.942,14.994C292.373,178.981,289.396,184.631,282.44,185.288z"/>
<path style="fill:#7E3485;" d="M326.32,143.574c-3.402,1.729-6.184,4.577-8.345,8.544c-2.163,3.969-3.649,8.932-4.458,14.894
	c-0.809,5.959-0.701,11.143,0.321,15.544c1.029,4.4,2.95,7.886,5.766,10.461c2.818,2.573,6.459,4.161,10.92,4.765l19.965,2.712
	l1.637-12.051l-16.857-2.289c-2.315-0.314-4.175-1.183-5.576-2.607c-1.223-1.254-2.011-2.669-2.375-4.242
	c-0.359-1.573-0.554-2.983-0.588-4.232l-0.015-0.393l26.785,3.637l1.566-11.538l-26.782-3.638l0.113-0.358
	c0.335-1.159,0.901-2.468,1.686-3.924c0.788-1.456,1.933-2.615,3.436-3.475c1.729-0.996,3.752-1.337,6.068-1.022l16.855,2.289
	l1.635-12.051l-19.966-2.711C333.649,141.284,329.72,141.845,326.32,143.574z"/>
<path style="fill:#7E3485;" d="M411.361,187.513l-5.387,10.325l9.869,5.148l-4.73,9.06l-9.865-5.146
	c-2.103-1.098-3.556-2.558-4.362-4.381c-0.801-1.825-0.975-3.98-0.527-6.469c0.451-2.487,1.457-5.225,3.018-8.214
	c2.41-4.612,5.014-7.734,7.821-9.37c2.813-1.636,5.784-1.635,8.917,0l20.967,10.941l5.628-10.78l-23.744-12.391
	c-3.013-1.572-5.955-2.414-8.834-2.524c-2.879-0.111-5.66,0.482-8.339,1.787c-2.677,1.303-5.233,3.302-7.667,5.996
	c-2.439,2.695-4.698,6.043-6.788,10.049c-2.095,4.016-3.55,7.79-4.367,11.321c-0.816,3.535-0.986,6.777-0.518,9.729
	c0.474,2.954,1.579,5.579,3.332,7.877c1.75,2.296,4.111,4.222,7.083,5.771l23.744,12.391l15.743-30.164L411.361,187.513z"/>
<path style="fill:#7E3485;" d="M444.585,236.17c-1.771-1.528-2.853-3.271-3.249-5.229c-0.341-1.72-0.23-3.336,0.326-4.852
	c0.558-1.513,1.16-2.803,1.819-3.865l0.202-0.337l20.455,17.668l7.611-8.811l-20.454-17.67l0.291-0.237
	c0.914-0.787,2.101-1.576,3.554-2.365c1.456-0.792,3.047-1.137,4.775-1.038c1.991,0.109,3.873,0.928,5.64,2.458l12.877,11.119
	l7.948-9.203l-15.246-13.171c-3.408-2.945-7.01-4.621-10.803-5.028c-3.794-0.407-7.68,0.458-11.657,2.603
	c-3.978,2.144-7.931,5.492-11.864,10.046c-3.934,4.551-6.671,8.95-8.216,13.199c-1.544,4.247-1.835,8.217-0.881,11.911
	c0.954,3.693,3.137,7.012,6.543,9.956l15.248,13.172l7.951-9.203L444.585,236.17z"/>
<path style="fill:#7E3485;" d="M474.048,285.161c2.509,1.365,5.233,2.047,8.186,2.039c2.945-0.006,6.095-0.682,9.444-2.036
	c3.348-1.354,6.868-3.369,10.56-6.052c4.872-3.536,8.56-7.172,11.074-10.909c2.509-3.74,3.735-7.486,3.679-11.252
	c-0.06-3.762-1.4-7.449-4.022-11.059l-15.511-21.352l-45.635,33.153l15.509,21.352C469.3,281.754,471.537,283.793,474.048,285.161z
	 M494.767,241.529l6.307,8.685c4.108,5.654,1.831,11.625-6.822,17.913c-8.65,6.285-15.03,6.597-19.134,0.944l-6.311-8.686
	L494.767,241.529z"/>
<rect x="479.9" y="285.378" transform="matrix(0.8966 -0.4428 0.4428 0.8966 -76.6162 255.1368)" style="fill:#7E3485;" width="56.407" height="12.549"/>
<polygon style="fill:#7E3485;" points="493.027,326.131 525.915,316.44 525.992,316.701 497.843,342.466 502.209,357.282 
	556.313,341.335 552.769,329.299 519.881,338.99 519.805,338.729 547.955,312.964 543.589,298.148 489.482,314.095 "/>
<polygon style="fill:#7E3485;" points="504.321,374.095 538.58,372.766 538.592,373.038 504.982,391.112 505.581,406.547 
	561.946,404.357 561.459,391.817 527.203,393.149 527.19,392.877 560.8,374.803 560.201,359.369 503.835,361.557 "/>
<path style="fill:#7E3485;" d="M553.046,426.473c-2.155-2.422-4.836-4.393-8.038-5.912c-3.204-1.52-6.897-2.729-11.081-3.633
	c-4.179-0.904-8.046-1.324-11.6-1.26c-3.55,0.063-6.803,0.748-9.758,2.063c-2.953,1.315-5.49,3.432-7.61,6.355
	c-2.121,2.921-3.691,6.735-4.708,11.438c-1.018,4.695-1.154,8.813-0.427,12.357c0.728,3.543,2.167,6.527,4.31,8.953
	c2.146,2.43,4.823,4.397,8.027,5.91c3.204,1.513,6.898,2.726,11.08,3.627c4.182,0.901,8.043,1.33,11.585,1.281
	c3.543-0.05,6.8-0.735,9.762-2.065c2.963-1.326,5.5-3.445,7.608-6.35c2.115-2.909,3.684-6.733,4.706-11.468
	c1.027-4.747,1.177-8.875,0.453-12.39C556.634,431.864,555.196,428.892,553.046,426.473z M545.525,445.295
	c-1.051,4.863-3.214,7.778-6.49,8.743c-3.277,0.966-7.632,0.861-13.062-0.311c-3.484-0.754-6.371-1.682-8.668-2.783
	c-2.296-1.104-3.998-2.697-5.104-4.789c-1.102-2.095-1.291-4.823-0.563-8.186c0.724-3.353,2.018-5.753,3.881-7.198
	c1.862-1.445,4.071-2.193,6.623-2.246c2.551-0.057,5.573,0.296,9.052,1.048c3.485,0.756,6.38,1.682,8.685,2.785
	c2.3,1.1,3.998,2.694,5.094,4.781C546.065,439.223,546.249,441.943,545.525,445.295z"/>
<rect x="511.242" y="450.826" transform="matrix(0.3812 -0.9245 0.9245 0.3812 -122.6093 774.8866)" style="fill:#7E3485;" width="12.55" height="56.406"/>
<path style="fill:#7E3485;" d="M521.646,501.063c-3.701-2.358-7.053-3.571-10.049-3.626c-2.995-0.059-5.498,0.61-7.499,2.001
	c-2.006,1.389-3.65,3.097-4.94,5.118l-8.943,14.013c-1.819,2.851-4.15,3.376-6.986,1.565c-2.834-1.812-3.372-4.094-1.613-6.85
	l15.986-25.044l-10.253-6.543l-17.439,27.322c-1.272,1.993-2.108,4.204-2.505,6.637c-0.398,2.43,0.068,4.99,1.401,7.691
	c1.334,2.698,3.847,5.228,7.542,7.589c2.866,1.829,5.515,2.961,7.94,3.39c2.422,0.427,4.565,0.354,6.424-0.229
	c1.862-0.58,3.461-1.455,4.801-2.624c1.339-1.164,2.469-2.47,3.391-3.915l8.923-13.979c0.772-1.213,1.759-2.014,2.947-2.393
	c1.192-0.382,2.494-0.121,3.909,0.782c1.419,0.903,2.218,1.955,2.398,3.159c0.183,1.197-0.109,2.397-0.871,3.595l-15.654,24.522
	l10.253,6.543l17.148-26.869c1.287-2.018,2.143-4.227,2.555-6.628c0.421-2.404-0.03-4.951-1.342-7.643
	C527.854,505.956,525.348,503.429,521.646,501.063z"/>
<path style="fill:#903F98;" d="M188.813,301.576l58.343,79.88l58.346-79.88h8.801l58.347,79.88l58.342-79.88h8.802l52.09,71.316
	c-11.272-92.925-90.413-164.922-186.381-164.922c-100.614,0-182.737,79.135-187.54,178.558l62.05-84.952H188.813z"/>
<path style="fill:#903F98;" d="M377.049,489.897h-8.801l-58.347-79.882l-58.346,79.882h-8.801l-58.344-79.882l-48.499,66.402
	c30.179,63.323,94.77,107.086,169.589,107.086c77.722,0,144.412-47.222,172.95-114.537l-43.06-58.951L377.049,489.897z"/>
<path style="fill:#FFFFFF;" d="M493.267,395.64l-62.276-85.263l-62.742,85.905l-62.747-85.905l-62.746,85.905l-62.744-85.905
	l-62.275,85.263c0,0.032-0.002,0.065-0.002,0.097c0,23.817,4.445,46.593,12.533,67.558l49.744-68.104l62.744,85.906l62.746-85.906
	l62.747,85.906l62.742-85.906l49.745,68.104c8.088-20.965,12.533-43.74,12.533-67.558
	C493.269,395.704,493.267,395.672,493.267,395.64z"/>
</svg>
