<?xml version="1.0" encoding="iso-8859-1"?>
<!-- Generator: Adobe Illustrator 24.0.1, SVG Export Plug-In . SVG Version: 6.00 Build 0)  -->
<svg version="1.1" id="Layer_1" xmlns="http://www.w3.org/2000/svg" xmlns:xlink="http://www.w3.org/1999/xlink" x="0px" y="0px"
	 viewBox="0 0 612 792" style="enable-background:new 0 0 612 792;" xml:space="preserve">
<path style="fill:#00B7F1;" d="M493.723,211.324c-50.368-50.367-117.335-78.106-188.566-78.106
	c-71.23,0-138.198,27.739-188.566,78.106C66.222,261.692,38.483,328.66,38.483,399.892c0,71.23,27.738,138.198,78.106,188.565
	c50.368,50.367,117.336,78.106,188.566,78.106c71.231,0,138.198-27.739,188.566-78.106c50.367-50.367,78.106-117.335,78.106-188.565
	C571.829,328.66,544.09,261.692,493.723,211.324z"/>
<path style="fill:#FFFFFF;" d="M486.665,551.039v-8.582c0-1.728-1.402-3.132-3.133-3.132v-41.618c0-1.729-1.403-3.132-3.133-3.132
	h-5.314c-0.688-9.866-1.444-18.191-2.069-24.353v-16.087c0.375,0.215,0.725,0.417,1.026,0.593
	c42.176-37.076,49.832-74.742,50.661-79.604c-2.835-9.581-5.638-18.642-8.344-27.112c1.246-0.27,2.219-1.267,2.43-2.544
	c0.224-1.372-0.481-2.729-1.736-3.331l-3.065-1.472c-11.252-34.517-20.377-57.65-22.236-62.293
	c-5.511-3.039-39.76-21.06-90.168-28.891c-4.453,10.645-9.12,21.071-13.592,30.688l-4.841-2.324
	c4.601-9.895,9.405-20.646,13.969-31.609c-1.466-7.105-13.524-61.306-43.069-79.148c-54.008-16.763-103.865,4.456-109.019,6.767
	c-2.5,2.724-20.177,23.166-45.75,81.788c5.265,9.907,10.757,19.339,16.017,27.898l-4.867,2.337
	c-5.157-8.411-10.53-17.65-15.691-27.34c-54.827,3.189-90.495,29.654-94.75,32.963c-2.443,5.012-21.997,46.699-22.124,96.827
	c1.971,5.073,20.932,52.19,53.711,75.586c1.227-0.533,3.201-1.385,5.72-2.457v5.846c-1.759,0.752-3.128,1.343-3.964,1.705
	c-1.999,5.036-10.929,29.909-6.552,61.048v9.271c-1.73,0-3.133,1.403-3.133,3.132v14.862c0,1.729,1.402,3.132,3.133,3.132h10.061
	c9.958,6.933,44.871,30.744,80.47,49.157c8.176-3.389,58.298-24.445,84.22-41.901h8.909c10.297,7.412,49.126,33.042,91.536,31.457
	c4.682-2.755,36.838-21.818,59.497-38.713h8.841c-23.15,18.287-60.771,40.504-65.736,43.414
	c-20.631,28.186-37.239,44.049-46.964,52.081c49.794-10.095,95.563-34.538,132.311-71.286c14.799-14.8,27.588-31.071,38.265-48.47
	C518.894,542.01,504.01,549.397,486.665,551.039z M187.715,447.434c-14.73,5.155-30.878,11.678-41.915,16.28v-5.832
	c11.442-4.753,27.406-11.15,41.915-16.147V447.434z M222.621,449.383c-4.886-4.491-8.307-7.788-9.897-9.34
	c-4.487,0.887-10.083,2.462-16.207,4.43v-5.642c5.346-1.677,10.279-3.044,14.425-3.907c0.377-19.998,5.73-43.061,11.68-62.785
	V449.383z M228.438,359.43h72.883v140.739h-15.77c-23.263-16.194-43.68-33.467-57.113-45.506V359.43z M381.875,451.879
	c-20.712,17.166-53.069,37.591-70.601,48.29h-2.281V359.43h69.79c1.017,2.519,2.049,5.131,3.092,7.841V451.879z M413.797,435.243
	c-4.885-1.092-9.663-1.803-14.145-1.945c-2.074,3.819-6.329,8.47-11.959,13.561v-63.657c4.847,14.029,9.405,29.43,12.496,44.743
	c4.363,0.166,8.947,0.807,13.607,1.787V435.243z M464.514,455.583c-9.479-5.09-25.665-13.098-41.915-18.011v-5.631
	c15.928,4.595,31.724,12.15,41.915,17.521V455.583z"/>
<path style="fill:#343896;" d="M262.731,689.334h-7.161c0.192-3.89,1.499-6.949,3.918-9.182c2.419-2.232,5.524-3.348,9.316-3.348
	c2.341,0,4.406,0.461,6.196,1.385c1.79,0.923,3.223,2.252,4.298,3.991c1.074,1.739,1.612,3.509,1.612,5.306
	c0,2.141-0.652,4.442-1.957,6.908c-1.304,2.467-3.688,5.381-7.151,8.746l-4.331,4.262h13.774v6.321h-26.738v-3.277l11.905-11.353
	c2.878-2.724,4.792-4.915,5.743-6.569c0.951-1.655,1.427-3.152,1.427-4.489c0-1.387-0.492-2.533-1.475-3.438
	c-0.982-0.906-2.248-1.358-3.795-1.358c-1.566,0-2.87,0.547-3.913,1.642C263.356,685.974,262.8,687.457,262.731,689.334z"/>
<path style="fill:#343896;" d="M300.03,677.699h10.972v36.024h-7.272v-29.591h-7.943L300.03,677.699z"/>
<path style="fill:#343896;" d="M344.549,676.805l6.157,2.87l-6.716,12.289c3.278,0,6.068,1.094,8.367,3.278
	c2.299,2.186,3.447,4.902,3.447,8.146c0,3.134-1.174,5.786-3.521,7.965c-2.348,2.179-5.18,3.266-8.495,3.266
	c-3.475,0-6.367-1.13-8.68-3.388c-2.313-2.259-3.47-4.848-3.47-7.767c0-1.108,0.179-2.226,0.537-3.352
	c0.355-1.125,1.18-2.854,2.468-5.186L344.549,676.805z M343.632,698.452c-1.366,0-2.514,0.46-3.44,1.379
	c-0.929,0.92-1.393,2.07-1.393,3.451c0,1.382,0.486,2.545,1.459,3.488c0.97,0.944,2.105,1.415,3.399,1.415
	c1.365,0,2.536-0.463,3.518-1.39c0.979-0.927,1.469-2.098,1.469-3.514c0-1.381-0.476-2.531-1.429-3.451
	C346.26,698.912,345.066,698.452,343.632,698.452z"/>
<path style="fill:#343896;" d="M35.972,223.693l5.566-7.779c3.049-4.26,5.564-7.048,7.548-8.36c1.984-1.314,4.172-1.947,6.563-1.9
	c2.392,0.047,4.683,0.854,6.873,2.422c2.302,1.648,3.794,3.633,4.473,5.954c0.68,2.321,0.542,4.988-0.412,8l22.098,2.03
	l-5.734,8.016l-21.041-1.947l-0.488,0.683l14.838,10.616l-5.247,7.334L35.972,223.693z M54.914,226.158l1.649-2.306
	c1.675-2.339,2.549-4.148,2.624-5.429c0.075-1.279-0.53-2.379-1.816-3.299c-0.762-0.546-1.581-0.802-2.458-0.769
	c-0.875,0.033-1.698,0.328-2.47,0.886c-0.77,0.558-1.854,1.813-3.255,3.77l-1.443,2.017L54.914,226.158z"/>
<path style="fill:#343896;" d="M90.02,210.396c0.922-1.047,2.044-1.648,3.363-1.802c1.32-0.154,2.456,0.188,3.407,1.026
	c0.951,0.84,1.437,1.926,1.457,3.261c0.021,1.334-0.432,2.525-1.354,3.573c-0.923,1.047-2.049,1.645-3.375,1.792
	c-1.326,0.148-2.467-0.196-3.417-1.036c-0.951-0.839-1.434-1.923-1.446-3.251C88.643,212.632,89.097,211.443,90.02,210.396z"/>
<path style="fill:#343896;" d="M77.195,172.966l7.017-6.499c3.844-3.559,6.868-5.783,9.074-6.671
	c2.206-0.887,4.476-1.067,6.807-0.541c2.331,0.526,4.411,1.777,6.241,3.752c1.921,2.075,2.981,4.318,3.18,6.727
	c0.197,2.41-0.475,4.994-2.018,7.751l21.227,6.425l-7.229,6.696l-20.208-6.131l-0.614,0.568l12.388,13.375l-6.615,6.127
	L77.195,172.966z M95.243,179.182l2.079-1.924c2.111-1.956,3.332-3.553,3.662-4.79c0.333-1.238-0.039-2.437-1.113-3.596
	c-0.636-0.687-1.386-1.102-2.251-1.245c-0.864-0.144-1.729-0.019-2.597,0.372c-0.866,0.391-2.182,1.402-3.946,3.037l-1.819,1.684
	L95.243,179.182z"/>
<path style="fill:#343896;" d="M132.817,170.765c1.115-0.84,2.334-1.202,3.657-1.088c1.323,0.115,2.366,0.679,3.13,1.692
	s1.02,2.176,0.772,3.487c-0.249,1.311-0.931,2.387-2.045,3.227c-1.115,0.841-2.338,1.199-3.666,1.077
	c-1.33-0.122-2.376-0.69-3.139-1.704c-0.765-1.014-1.019-2.172-0.764-3.476C131.018,172.678,131.702,171.605,132.817,170.765z"/>
<path style="fill:#343896;" d="M169.529,115.855l-2.76,7.89c-5.777-1.437-10.997-0.819-15.658,1.851
	c-3.934,2.255-6.55,5.374-7.847,9.356c-1.297,3.982-0.921,7.76,1.126,11.333c1.427,2.49,3.29,4.359,5.59,5.605
	c2.299,1.248,4.855,1.797,7.667,1.647c2.812-0.15,5.551-0.989,8.218-2.517c2.274-1.303,4.133-2.879,5.574-4.729
	c1.44-1.85,2.708-4.436,3.803-7.762l8.194,1.984c-1.496,4.433-3.299,7.946-5.405,10.537c-2.107,2.591-4.895,4.881-8.362,6.866
	c-6.396,3.666-12.686,4.824-18.87,3.476c-6.184-1.35-10.925-4.903-14.226-10.662c-2.134-3.725-3.104-7.567-2.909-11.526
	c0.196-3.958,1.52-7.809,3.969-11.553c2.452-3.742,5.672-6.758,9.661-9.044c3.394-1.944,7.034-3.164,10.924-3.66
	C162.105,114.451,165.876,114.754,169.529,115.855z"/>
<path style="fill:#343896;" d="M195.104,135.084c1.286-0.535,2.557-0.582,3.811-0.142c1.252,0.441,2.122,1.248,2.611,2.419
	c0.486,1.172,0.448,2.361-0.118,3.569c-0.567,1.21-1.495,2.083-2.781,2.617c-1.289,0.536-2.562,0.58-3.816,0.13
	c-1.257-0.451-2.129-1.263-2.615-2.434c-0.489-1.172-0.447-2.358,0.123-3.558C192.887,136.487,193.814,135.621,195.104,135.084z"/>
<path style="fill:#343896;" d="M235.877,85.641l10.708-1.835c5.793-0.991,10.043-1.278,12.748-0.862
	c2.706,0.418,4.963,1.456,6.769,3.115c1.806,1.66,2.938,3.826,3.396,6.499c0.507,2.961-0.038,5.589-1.636,7.882
	c-1.6,2.294-3.99,4.108-7.176,5.445c-1.872,0.776-5.38,1.604-10.523,2.484l3.078,17.97l-10.095,1.73L235.877,85.641z
	 M248.813,100.496l3.21-0.549c2.525-0.432,4.253-0.876,5.189-1.334c0.936-0.458,1.629-1.066,2.08-1.827
	c0.451-0.761,0.595-1.611,0.434-2.554c-0.279-1.635-1.277-2.69-2.991-3.169c-1.249-0.36-3.437-0.273-6.56,0.262l-2.85,0.487
	L248.813,100.496z"/>
<path style="fill:#343896;" d="M283.679,78.897l29.391-0.736l0.201,8.021l-19.215,0.482l0.196,7.79l19.214-0.483l0.195,7.875
	l-19.214,0.483l0.285,11.332l19.214-0.483l0.201,8.051l-29.39,0.736L283.679,78.897z"/>
<path style="fill:#343896;" d="M329.647,79.057l10.788,1.316c5.908,0.722,10.066,1.657,12.47,2.806
	c2.401,1.148,4.247,2.794,5.535,4.937c1.286,2.143,1.767,4.55,1.442,7.223c-0.343,2.812-1.472,5.058-3.386,6.74
	c-1.914,1.685-4.626,2.804-8.133,3.358l10.322,20.549l-11.115-1.357l-9.815-19.571l-0.944-0.115l-2.209,18.104l-10.172-1.241
	L329.647,79.057z M337.778,97.008l3.197,0.39c3.245,0.396,5.518,0.33,6.825-0.199c1.306-0.528,2.055-1.577,2.247-3.146
	c0.112-0.93-0.093-1.776-0.613-2.538c-0.521-0.763-1.273-1.354-2.251-1.78c-0.982-0.423-2.827-0.801-5.541-1.133l-2.797-0.341
	L337.778,97.008z"/>
<path style="fill:#343896;" d="M378.664,86.409l9.87,2.908l-7.877,26.731c-0.679,2.302-0.907,4.005-0.685,5.107
	c0.222,1.105,0.828,2.112,1.818,3.024c0.992,0.913,2.308,1.608,3.947,2.091c1.733,0.511,3.32,0.631,4.761,0.365
	c1.439-0.268,2.545-0.82,3.314-1.662c0.77-0.841,1.561-2.646,2.379-5.419l7.586-25.747l9.87,2.908l-7.257,24.625
	c-1.225,4.157-2.366,6.952-3.426,8.389c-1.059,1.438-2.635,2.661-4.727,3.673c-2.095,1.009-4.323,1.558-6.689,1.646
	c-2.367,0.085-4.978-0.292-7.833-1.133c-3.748-1.104-6.806-2.755-9.176-4.947c-2.37-2.193-3.848-4.5-4.431-6.921
	c-0.585-2.419-0.153-6.092,1.298-11.014L378.664,86.409z"/>
<path style="fill:#343896;" d="M429.814,101.827l8.894,4.802l-6.238,27.9l21.548-19.634l7.51,4.054l-4.5,28.84l19.84-20.556
	l8.897,4.802l-31.147,32.168l-8.668-4.68l4.504-29.236l-21.811,19.891l-8.574-4.63L429.814,101.827z"/>
<path style="fill:#343896;" d="M498.339,142.617l22.722,18.598l-5.084,6.21l-14.854-12.159l-4.937,6.031l14.855,12.159l-4.993,6.099
	l-14.855-12.159l-7.18,8.773l14.854,12.159l-5.103,6.234l-22.722-18.598L498.339,142.617z"/>
<path style="fill:#343896;" d="M531.892,171.823l7.036,7.456l-25.651,24.202l10.251,10.865l-5.688,5.366l-17.285-18.321
	L531.892,171.823z"/>
<path style="fill:#343896;" d="M555.835,198.114l19.193,26.301l-39.754,5.231l10.589,14.511l-6.363,4.643l-19.387-26.567
	l39.521-5.153l-10.353-14.186L555.835,198.114z"/>
<path style="fill:#FFFFFF;" d="M566.232,410.44c-16.529-17.998-33.276-33.982-36.412-36.954
	c-15.492-52.328-30.058-89.531-32.934-96.734c2.444-4.371,8.674-19.563,1.879-52.352c43.747,48.154,67.693,109.982,67.693,175.492
	C566.459,403.42,566.371,406.935,566.232,410.44z"/>
<path style="fill:#FFFFFF;" d="M396.516,154.951c-21.288,1.386-37.588,5.782-41.343,6.864
	c-53.521-16.406-102.931,3.074-111.559,6.797c-4.139-2.414-17.928-10.124-30.526-13.397c29.043-10.913,60.115-16.627,92.068-16.627
	C336.852,138.588,367.676,144.211,396.516,154.951z"/>
<path style="fill:#FFFFFF;" d="M108.775,227.523c-4.065,11.647-9.35,31.132-13.522,61.443c-2.272,4.632-22.41,47.165-22.751,98.535
	c-3.695,2.968-16.208,13.641-27.998,30.884c-0.425-6.127-0.65-12.293-0.65-18.494C43.854,335.785,66.798,275.215,108.775,227.523z"
	/>
<path style="fill:#FFFFFF;" d="M91.331,550.198c8.839,3.947,23.375,9.632,40.034,12.974c4.658,3.292,43.646,30.605,83.507,51.22
	c3.838,15.15,17.74,30.458,26.674,39.046c-45.468-11.32-87.171-34.79-121.159-68.777C109.631,573.903,99.93,562.373,91.331,550.198z
	"/>
<rect x="126.781" y="542.457" style="fill:#343896;" width="51.015" height="14.862"/>
<rect x="246.981" y="548.722" style="fill:#343896;" width="116.351" height="15.853"/>
<rect x="432.518" y="542.457" style="fill:#343896;" width="51.015" height="14.862"/>
<polygon style="fill:#343896;" points="144.233,497.707 144.233,354.232 138.863,353.57 138.863,497.707 129.913,497.707 
	129.913,539.325 182.719,539.325 182.719,497.707 "/>
<polygon style="fill:#343896;" points="471.45,497.707 471.45,353.57 466.08,354.231 466.08,497.707 427.595,497.707 
	427.595,539.325 480.399,539.325 480.399,497.707 "/>
<path style="fill:#343896;" d="M361.365,542.457v-3.132h63.097v-41.618h-3.431V359.43h-5.669v138.277h-29.235V359.43h-2.685v138.277
	h-22.077v-40.274c0-1.648-1.734-2.983-3.878-2.983c-2.144,0-3.879,1.335-3.879,2.983v42.736h-46.183V359.43h-4.538v140.739h-46.183
	v-42.736c0-1.648-1.734-2.983-3.878-2.983c-2.145,0-3.879,1.335-3.879,2.983v40.274h-22.076V359.43h-2.685v138.277H194.95V359.43
	h-5.669v138.277h-3.431v41.618h63.098v3.132h-68.02v14.862h62.921v-8.598c0-1.729,1.401-3.132,3.132-3.132h116.351
	c1.729,0,3.132,1.402,3.132,3.132v8.598h61.084v-14.862H361.365z M256.705,513.37h96.903v2.461h-96.903V513.37z M256.705,529.032
	h96.903v2.462h-96.903V529.032z"/>
<path style="fill:#343896;" d="M289.983,262.701l-96.233,93.596h111.406h111.408l-96.233-93.596
	c-4.741,1.2-9.848,1.858-15.175,1.858C299.831,264.56,294.725,263.901,289.983,262.701z"/>
<path style="fill:#343896;" d="M94.615,344.961l91.981,11.336l97.955-95.271c-2.747-1.003-5.331-2.195-7.711-3.56L94.615,344.961z"
	/>
<path style="fill:#343896;" d="M423.717,356.297l91.981-11.336l-182.227-87.494c-2.379,1.364-4.963,2.557-7.71,3.56L423.717,356.297
	z"/>
<path style="fill:#343896;" d="M332.407,253.597l-8.056-3.804c0-10.293-12.977-23.271-12.977-23.271
	C323,226.522,332.407,238.632,332.407,253.597z"/>
<path style="fill:#343896;" d="M277.907,253.597l8.056-3.804c0-10.293,12.977-23.271,12.977-23.271
	C287.314,226.522,277.907,238.632,277.907,253.597z"/>
<path style="fill:#343896;" d="M305.156,221.376c-1.58,0-2.86,1.119-2.86,1.119l2.86-51.256l2.862,51.256
	C308.019,222.495,306.739,221.376,305.156,221.376"/>
</svg>
