<?xml version="1.0" encoding="iso-8859-1"?>
<!-- Generator: Adobe Illustrator 24.0.1, SVG Export Plug-In . SVG Version: 6.00 Build 0)  -->
<svg version="1.1" id="Layer_1" xmlns="http://www.w3.org/2000/svg" xmlns:xlink="http://www.w3.org/1999/xlink" x="0px" y="0px"
	 viewBox="0 0 612 792" style="enable-background:new 0 0 612 792;" xml:space="preserve">
<path d="M299.53,645.046c-48.186-27.446-104.894-73.371-149.652-140.905l0,0c-44.758-67.514-77.446-156.673-77.431-269.934l0,0
	c0-2.582,0.017-5.178,0.053-7.786l0,0l0.068-5.223l5.183-0.65c50.482-6.36,76.426-21.177,89.776-34.022l0,0
	c13.275-12.805,14.509-23.923,14.597-24.496l0,0l0.3-4.207l4.112-1.114c0.267-0.049,59.538-16.179,115.964-16.208l0,0
	c56.423,0.03,115.695,16.16,115.961,16.208l0,0l4.11,1.114l0.304,4.222c0.004,0.038,0.014,0.104,0.025,0.198l0,0
	c0.033,0.233,0.098,0.638,0.218,1.19l0,0c0.239,1.106,0.699,2.812,1.56,4.954l0,0c1.727,4.282,5.04,10.314,11.536,16.897l0,0
	c12.965,13.13,38.919,28.696,91.033,35.264l0,0l5.185,0.65l0.065,5.227c0.032,2.604,0.051,5.197,0.051,7.782l0,0
	c0.016,113.263-32.673,202.42-77.429,269.936l0,0c-44.76,67.532-101.468,113.46-149.651,140.905l0,0l-2.969,1.69L299.53,645.046
	L299.53,645.046z"/>
<path style="fill:#FFF200;" d="M84.448,234.206c0.015,110.945,31.893,197.573,75.433,263.306l0,0
	c42.616,64.327,96.527,108.601,142.619,135.398l0,0c46.089-26.796,100.001-71.069,142.617-135.396l0,0
	c43.539-65.735,75.418-152.363,75.433-263.308l0,0c0-0.814-0.002-1.631-0.006-2.449l0,0c-50.55-7.145-78.03-23.012-92.866-38.042
	l0,0c-10.565-10.685-14.51-20.776-15.957-26.353l0,0c-1.61-0.403-3.729-0.92-6.29-1.521l0,0c-6.322-1.483-15.344-3.462-26.072-5.441
	l0,0c-21.452-3.962-49.763-7.907-76.857-7.901l0,0c-46.157-0.022-95.693,11.463-109.222,14.862l0,0
	c-1.446,5.577-5.39,15.668-15.956,26.354l0,0c-14.838,15.03-42.319,30.897-92.869,38.042l0,0
	C84.45,232.576,84.448,233.392,84.448,234.206L84.448,234.206z"/>
<path d="M273.071,565.289v33.95c10.003,7.352,19.873,13.92,29.429,19.717c9.555-5.796,19.424-12.363,29.426-19.715v-33.952
	c-9.295,2.898-19.179,4.461-29.428,4.462C292.249,569.75,282.365,568.188,273.071,565.289z"/>
<path d="M512.922,287.142c0.011-9.799-2.639-16.449-5.236-21.33c-2.649-4.873-4.923-8.07-4.828-10.518
	c0.015-0.94,0.188-1.161,0.318-1.336c0.173-0.289,0.954-0.565,2.146-1.334c1.225-0.771,2.313-2.544,2.231-4.888
	c-0.002-1.214-0.17-2.308-0.718-3.284c-0.846-1.518-2.445-2.184-3.99-2.411c-1.592-0.255-3.438-0.24-5.768-0.245
	c-3.837,0.003-5.803,0.126-7.165,0.352c-1.02,0.165-1.69,0.411-2.226,0.588c-0.782,0.253-1.627,0.514-4.58,0.754
	c-2.926,0.232-7.815,0.398-16.306,0.398c-5.069,0-10.737-0.128-17.163-0.338v-19.838c-5.314-2.669-10.112-5.477-14.439-8.382
	c-19.011-12.702-28.553-27.377-32.734-37.86c-3.226-0.754-7.171-1.64-11.683-2.587v66.479c-16.696-0.519-36.113-0.975-58.855-1.194
	V165.9c-9.761-0.872-19.718-1.405-29.426-1.4c-9.71-0.005-19.666,0.533-29.429,1.405v74.263c-22.742,0.22-42.159,0.675-58.855,1.195
	v-66.479c-4.511,0.947-8.457,1.833-11.683,2.587c-1.398,3.456-3.344,7.372-6.049,11.549c-7.298,11.345-20.168,24.184-41.124,34.702
	v19.828c-6.425,0.21-12.092,0.339-17.161,0.338c-15.102,0.006-18.803-0.546-20.331-0.982c-0.747-0.198-1.396-0.529-2.782-0.759
	c-1.362-0.226-3.328-0.35-7.165-0.352c-3.113,0.021-5.339-0.059-7.301,0.632c-0.972,0.348-1.916,1.042-2.458,2.023
	c-0.548,0.976-0.716,2.07-0.719,3.284c-0.008,1.568,0.371,2.862,1.092,3.802c1.109,1.395,2.424,1.737,2.921,2.116
	c0.475,0.417,0.586,0.24,0.685,1.64c0.093,2.447-2.182,5.645-4.829,10.518c-2.599,4.881-5.249,11.531-5.236,21.33
	c-0.013,9.799,2.637,16.449,5.236,21.331c2.647,4.871,4.921,8.07,4.829,10.518c-0.017,0.94-0.188,1.161-0.318,1.336
	c-0.173,0.287-0.955,0.565-2.146,1.333c-1.225,0.773-2.312,2.544-2.234,4.89c0.002,1.214,0.171,2.306,0.719,3.284
	c0.845,1.518,2.445,2.184,3.99,2.412c1.591,0.253,3.438,0.238,5.769,0.242c3.836,0,5.803-0.126,7.165-0.35
	c1.02-0.167,1.69-0.411,2.226-0.588c0.782-0.251,1.627-0.514,4.58-0.754c2.928-0.232,7.817-0.398,16.308-0.398
	c5.069,0,10.736,0.128,17.161,0.338v136.573c4.663,8.146,9.513,16.006,14.524,23.579c13.778,20.806,28.789,39.458,44.331,56.052
	v-31.662c-6.692-13.317-10.465-28.355-10.467-44.275c0.002-15.921,3.775-30.958,10.467-44.276v-93.802
	c16.697,0.519,36.114,0.975,58.855,1.194v42.594c9.295-2.898,19.18-4.461,29.429-4.461c10.248,0,20.132,1.563,29.426,4.461v-42.593
	c22.742-0.22,42.159-0.675,58.855-1.194v93.798c6.693,13.318,10.467,28.357,10.468,44.28c-0.001,15.923-3.774,30.962-10.468,44.28
	v31.659c15.542-16.594,30.554-35.247,44.332-56.054c5.011-7.573,9.86-15.434,14.523-23.579V330.733
	c6.426-0.21,12.094-0.339,17.163-0.338c15.101-0.006,18.802,0.546,20.329,0.982c0.746,0.198,1.396,0.527,2.782,0.759
	c1.362,0.224,3.328,0.35,7.165,0.35c3.115-0.021,5.339,0.059,7.301-0.632c0.974-0.348,1.916-1.039,2.458-2.021
	c0.548-0.978,0.716-2.07,0.718-3.284c0.009-1.568-0.37-2.862-1.089-3.802c-1.111-1.396-2.427-1.739-2.922-2.118
	c-0.477-0.415-0.588-0.238-0.685-1.638c-0.095-2.447,2.179-5.647,4.828-10.518C510.283,303.59,512.933,296.94,512.922,287.142z"/>
<path style="fill:#FFF200;" d="M499.346,318.99c-0.015,1.471,0.4,2.736,1.15,3.604c1.147,1.273,2.349,1.549,2.808,1.939
	c0.426,0.388,0.66,0.379,0.738,2.015c0.004,0.879-0.144,1.353-0.262,1.553c-0.153,0.247-0.342,0.462-1.501,0.677
	c-1.11,0.185-2.881,0.2-5.203,0.196c-3.757,0.002-5.586-0.133-6.592-0.302c-0.759-0.128-1.061-0.25-1.7-0.46
	c-0.974-0.327-2.334-0.685-5.402-0.921c-3.094-0.243-8.043-0.407-16.582-0.409c-28.072,0.004-73.521,3.861-164.301,3.861
	c-90.778,0-136.229-3.857-164.299-3.861c-15.176,0.009-19.022,0.502-21.269,1.111c-1.141,0.325-1.434,0.517-2.418,0.679
	c-1.005,0.169-2.835,0.304-6.591,0.302c-3.09,0.021-5.227-0.059-6.076-0.411c-0.43-0.177-0.504-0.267-0.628-0.462
	c-0.118-0.2-0.263-0.674-0.261-1.553c0.008-1.083,0.217-1.458,0.377-1.68c0.211-0.346,0.879-0.603,2.032-1.292
	c1.176-0.654,2.386-2.369,2.287-4.586c-0.093-4.309-2.852-7.546-5.235-12.164c-2.435-4.607-4.816-10.502-4.829-19.684
	c0.013-9.181,2.395-15.076,4.829-19.686c2.384-4.616,5.143-7.854,5.235-12.162c0.017-1.471-0.398-2.738-1.148-3.604
	c-1.149-1.273-2.348-1.549-2.808-1.94c-0.428-0.388-0.662-0.381-0.74-2.015c-0.002-0.879,0.143-1.355,0.261-1.554
	c0.154-0.249,0.341-0.463,1.501-0.676c1.11-0.188,2.881-0.203,5.204-0.198c3.756-0.002,5.585,0.135,6.591,0.303
	c0.759,0.129,1.063,0.251,1.701,0.459c0.976,0.327,2.334,0.685,5.402,0.921c3.094,0.245,8.045,0.407,16.584,0.409
	c28.071-0.004,73.521-3.861,164.299-3.861c90.78,0,136.229,3.857,164.301,3.861c15.174-0.008,19.021-0.501,21.268-1.111
	c1.141-0.324,1.436-0.518,2.417-0.679c1.006-0.169,2.835-0.305,6.592-0.303c3.09-0.021,5.226,0.059,6.076,0.413
	c0.43,0.175,0.504,0.268,0.628,0.461c0.118,0.198,0.266,0.675,0.262,1.554c-0.009,1.083-0.218,1.458-0.375,1.68
	c-0.213,0.346-0.879,0.603-2.034,1.292c-1.177,0.653-2.384,2.367-2.287,4.586c0.095,4.308,2.854,7.546,5.237,12.162
	c2.433,4.61,4.816,10.505,4.827,19.686c-0.011,9.182-2.395,15.077-4.827,19.684C502.199,311.444,499.44,314.681,499.346,318.99z"/>
<path d="M137.006,265.777v11.907c-1.56-0.303-2.828-0.52-3.802-0.65c-3.004-0.433-5.674-0.65-8.015-0.65
	c-2.613,0-4.661,0.249-6.143,0.748c-1.482,0.499-2.223,1.419-2.223,2.762c0,0.998,0.536,1.712,1.608,2.145
	c1.072,0.434,3.676,0.65,7.81,0.65c3.782,0,6.786,0.78,9.009,2.34c2.925,2.08,4.388,5.439,4.388,10.075
	c0,5.417-1.931,9.469-5.791,12.155c-3.198,2.21-7.352,3.315-12.461,3.315c-3.355,0-6.582-0.4-9.682-1.203
	c-3.1-0.801-4.65-1.419-4.65-1.852v-11.635c1.95,0.434,4.095,0.867,6.435,1.3c2.34,0.434,4.231,0.65,5.674,0.65
	c2.261,0,4.338-0.345,6.23-1.038c1.891-0.691,2.837-1.557,2.837-2.595c0-1.601-1.092-2.509-3.276-2.725
	c-2.302-0.086-4.603-0.195-6.903-0.325c-4.251-0.605-7.254-1.707-9.009-3.308c-2.302-2.12-3.451-5.689-3.451-10.706
	c0-3.329,1.481-6.379,4.446-9.148c3.353-3.114,7.585-4.67,12.694-4.67c3.471,0,6.718,0.324,9.74,0.97
	C135.495,264.936,137.006,265.432,137.006,265.777z"/>
<path d="M171.638,266.648v13.96c-1.404-0.346-2.555-0.606-3.452-0.78c-2.925-0.563-5.479-0.845-7.664-0.845
	c-3.315,0-5.87,0.519-7.663,1.557c-2.34,1.341-3.51,3.503-3.51,6.487s1.131,5.146,3.393,6.487c1.833,1.081,4.348,1.621,7.546,1.621
	c2.261,0,4.973-0.303,8.131-0.908c1.248-0.215,2.496-0.453,3.744-0.713v14.66c0,0.346-1.521,0.854-4.563,1.524
	c-3.042,0.67-5.753,1.005-8.131,1.005c-5.655,0-10.082-1.928-13.28-5.785c-3.471-4.16-5.206-10.27-5.206-18.33
	c0-7.02,1.599-12.61,4.797-16.77c3.354-4.333,8.034-6.5,14.04-6.5c2.535,0,4.914,0.327,7.137,0.979
	C170.078,265.212,171.638,265.996,171.638,266.648z"/>
<path d="M235.811,263.319h9.126l-8.014,47.385h-12.285l-6.845-31.33l-6.669,31.33h-12.928l-7.546-47.385h9.067l4.797,31.72
	c0.078,0.65,0.429,0.975,1.053,0.975c0.468,0,0.74-0.325,0.819-0.975l6.61-31.72h9.477l6.728,31.655
	c0.039,0.26,0.155,0.499,0.351,0.715c0.195,0.217,0.448,0.325,0.76,0.325c0.272,0,0.498-0.14,0.673-0.422
	c0.176-0.282,0.283-0.595,0.322-0.943L235.811,263.319z"/>
<path d="M256.578,268.259c0,1.56-0.507,2.762-1.521,3.607c-1.015,0.845-2.223,1.268-3.627,1.268c-1.404,0-2.574-0.412-3.51-1.235
	c-1.092-0.953-1.638-2.21-1.638-3.77c0-1.516,0.506-2.697,1.521-3.543c1.014-0.845,2.223-1.267,3.627-1.267
	c1.404,0,2.612,0.422,3.627,1.267C256.071,265.432,256.578,266.656,256.578,268.259z M247.686,274.759h7.488v36.205h-7.488V274.759z
	"/>
<path d="M287.933,294.844h-22.289c0.234,1.82,0.838,3.077,1.814,3.77c1.638,1.17,4.212,1.755,7.722,1.755
	c2.106,0,4.739-0.325,7.897-0.975c1.248-0.216,2.516-0.455,3.803-0.715v8.255c-1.404,0.78-2.633,1.365-3.686,1.755
	c-3.276,1.214-6.65,1.82-10.121,1.82c-5.304,0-9.322-1.845-12.051-5.535c-2.536-3.429-3.803-8.138-3.803-14.129
	c0-5.078,1.346-9.203,4.037-12.372c2.886-3.386,6.922-5.079,12.109-5.079c5.771,0,9.887,2.347,12.344,7.042
	c1.599,3.086,2.398,6.911,2.398,11.475c0,1.218-0.02,2.043-0.059,2.478C288.05,294.518,288.011,294.67,287.933,294.844z
	 M279.743,288.214c-0.313-1.538-0.839-2.593-1.58-3.164c-1.249-1.01-3.081-1.516-5.499-1.516c-2.34,0-4.115,0.483-5.323,1.45
	c-0.741,0.572-1.326,1.648-1.755,3.229H279.743z"/>
<path d="M321.219,299.654v11.05h-8.482v-5.655c0-0.867-0.137-1.755-0.408-2.665c-0.273-0.91-0.772-1.765-1.492-2.568
	c-0.723-0.801-1.531-1.365-2.428-1.69c-0.898-0.325-1.873-0.487-2.925-0.487h-7.664v13.065h-8.424v-47.255h8.249v20.54
	c0,0.693,0.087,1.17,0.263,1.43c0.175,0.26,0.731,0.39,1.667,0.39c0.468,0,0.995-0.238,1.58-0.715
	c0.155-0.13,0.429-0.412,0.819-0.845l7.664-10.335h10.471l-8.014,10.855c-0.156,0.13-0.254,0.239-0.293,0.325
	c-0.195,0.26-0.293,0.499-0.293,0.715c0,0.174,0.938,0.629,2.809,1.365c1.287,0.52,2.457,1.278,3.51,2.275
	c1.053,0.997,1.881,2.449,2.486,4.355C320.916,295.711,321.219,297.662,321.219,299.654z"/>
<path d="M352.809,294.844h-22.287c0.232,1.82,0.838,3.077,1.813,3.77c1.639,1.17,4.213,1.755,7.723,1.755
	c2.105,0,4.738-0.325,7.897-0.975c1.248-0.216,2.516-0.455,3.803-0.715v8.255c-1.404,0.78-2.633,1.365-3.686,1.755
	c-3.275,1.214-6.648,1.82-10.119,1.82c-5.305,0-9.322-1.845-12.053-5.535c-2.535-3.429-3.801-8.138-3.801-14.129
	c0-5.078,1.344-9.203,4.035-12.372c2.887-3.386,6.922-5.079,12.109-5.079c5.772,0,9.887,2.347,12.344,7.042
	c1.6,3.086,2.399,6.911,2.399,11.475c0,1.218-0.02,2.043-0.059,2.478C352.926,294.518,352.887,294.67,352.809,294.844z
	 M344.619,288.214c-0.313-1.538-0.84-2.593-1.58-3.164c-1.248-1.01-3.08-1.516-5.498-1.516c-2.34,0-4.115,0.483-5.324,1.45
	c-0.74,0.572-1.326,1.648-1.754,3.229H344.619z"/>
<path d="M379.074,273.394h8.658l-11.115,37.505h-11.465l-10.822-37.505h8.773l5.559,21.32c0.195,0.52,0.369,0.889,0.525,1.105
	c0.508,0.737,1.113,1.105,1.815,1.105c0.584,0,1.082-0.207,1.492-0.619c0.408-0.413,0.691-0.946,0.848-1.598L379.074,273.394z"/>
<path d="M406.627,273.394c5.5,0,9.672,1.149,12.519,3.445c3.666,2.948,5.5,7.888,5.5,14.82c0,7.237-1.795,12.35-5.383,15.34
	c-2.809,2.34-7.02,3.51-12.637,3.51c-5.537,0-9.652-1.062-12.342-3.185c-3.707-2.903-5.559-8.017-5.559-15.34
	c0-7.236,1.793-12.306,5.383-15.21C396.877,274.521,401.051,273.394,406.627,273.394z M397.209,292.439
	c0,1.518,0.603,2.688,1.814,3.51c1.559,1.04,4.035,1.56,7.43,1.56c2.807,0,4.912-0.26,6.316-0.78
	c2.184-0.823,3.277-2.296,3.277-4.42c0-2.122-1.074-3.575-3.219-4.355c-1.404-0.52-3.529-0.78-6.375-0.78
	c-2.73,0-4.779,0.26-6.143,0.78C398.242,288.734,397.209,290.229,397.209,292.439z"/>
<path d="M434.064,296.941v13.763h-7.723v-37.505h7.898v4.94c0.232,0,0.486-0.022,0.76-0.066c2.145-2.678,4.641-4.259,7.488-4.742
	c0.272,0,0.574-0.021,0.906-0.066c0.332-0.044,0.574-0.066,0.73-0.066c1.092,0,2.029,0.175,2.809,0.522
	c0.273,0.087,0.586,0.282,0.935,0.587v14.154c-0.43-0.174-0.799-0.282-1.111-0.326c-0.935-0.217-1.91-0.326-2.924-0.326
	c-0.977,0-1.981,0.12-3.014,0.358c-1.033,0.24-2.057,0.663-3.07,1.272c-1.287,0.827-2.264,2.067-2.926,3.718
	C434.316,294.419,434.064,295.681,434.064,296.941z"/>
<path d="M475.248,275.149v9.88c-1.484-0.26-2.691-0.455-3.627-0.585c-3.004-0.433-5.383-0.65-7.139-0.65
	c-1.717,0-3.022,0.152-3.918,0.456c-0.898,0.305-1.346,0.826-1.346,1.564c0,1.173,1.861,1.966,5.586,2.379
	c3.725,0.412,6.348,1.032,7.869,1.857c3.197,1.738,4.797,4.844,4.797,9.317c0,4.084-1.424,7.081-4.272,8.991
	c-2.34,1.564-5.578,2.346-9.711,2.346c-3.004,0-6.221-0.436-9.652-1.307c-1.131-0.261-2.574-0.718-4.328-1.372v-9.606
	c1.793,0.448,3.236,0.783,4.328,1.007c3.51,0.716,6.299,1.073,8.365,1.073c1.639,0,2.926-0.184,3.861-0.553
	c0.935-0.37,1.404-1.011,1.404-1.923c0-1.129-1.619-1.868-4.855-2.215c-4.369-0.478-7.391-1.129-9.068-1.955
	c-3.275-1.607-4.914-4.495-4.914-8.665c0-4.256,1.756-7.406,5.266-9.447c2.691-1.564,6.123-2.346,10.297-2.346
	c2.145,0,4.523,0.25,7.137,0.748C473.939,274.64,475.248,274.977,475.248,275.149z"/>
<path d="M482.793,286.199h-4.563v-13.065h4.272v-7.345h7.721v7.345h9.185v13.065h-8.893v7.8c0,1.3,0.313,2.232,0.936,2.795
	c0.43,0.39,1.189,0.737,2.281,1.04c0.586,0.13,1.17,0.195,1.756,0.195c0.897,0,1.891-0.108,2.984-0.325
	c0.154,0,0.369-0.043,0.642-0.13v11.96c-0.742,0.26-1.346,0.434-1.814,0.52c-1.443,0.347-2.77,0.52-3.977,0.52
	c-2.965,0-5.363-0.715-7.195-2.145c-2.225-1.733-3.336-4.376-3.336-7.93V286.199z"/>
<path d="M206.249,471c0.003-53.159,43.092-96.25,96.25-96.251l0,0c53.159,0.002,96.25,43.092,96.25,96.251l0,0
	c0,53.158-43.091,96.248-96.25,96.25l0,0C249.342,567.248,206.252,524.158,206.249,471L206.249,471z"/>
<path style="fill:#FFF200;" d="M323.557,380.651c16.23,3.767,30.822,11.797,42.546,22.846c-1.274-0.178-2.676-0.289-4.207-0.289
	c-0.6,0-1.228,0.023-1.87,0.06c-3.378-2.869-16.94-13.694-36.56-19.824c0.088-0.633,0.132-1.241,0.131-1.8
	C323.596,381.295,323.58,380.966,323.557,380.651z"/>
<polygon style="fill:#FFF200;" points="360.832,463.5 360.834,463.499 360.833,463.5 "/>
<path style="fill:#FFF200;" d="M301.332,410.801c0,0.867-0.074,1.798-0.195,2.762c-3.215,2.766-16.08,14.11-27.1,27.998
	c-12.771-1.097-24.603-1.3-31.636-1.3c-2.074,0-3.731,0.018-4.87,0.036c-1.026-2.781-3.147-9.168-4.681-17.938
	c4.874-4.774,11.751-10.797,17.52-15.707c4.867-4.143,8.933-7.488,10.424-8.709c0.695-0.041,1.827-0.103,3.353-0.165
	c2.632-0.108,6.369-0.216,10.761-0.216c6.352,0,14.081,0.232,21.82,1.009C298.013,399.91,301.345,404.025,301.332,410.801z"/>
<polygon style="fill:#FFF200;" points="297.833,396.167 297.833,396.167 297.834,396.167 "/>
<path style="fill:#FFF200;" d="M274.565,493.608c3.44-2.782,6.773-5.211,9.24-6.936c1.217-0.852,2.214-1.526,2.915-1.993
	c5.148,2.325,24.859,10.909,41.398,12.816c1.525,3.685,5.684,15.018,5.869,28.362c-0.417,0.444-1.021,1.082-1.795,1.88
	c-4.607,4.768-15.064,15.071-25.063,21.877c-12.58-0.799-22.393-3.346-29.07-5.703c-3.412-1.205-6.006-2.36-7.73-3.202
	c-0.796-0.39-1.399-0.711-1.82-0.941c-0.528-1.374-1.679-4.427-3.108-8.557c-1.912-5.516-4.295-12.91-6.283-20.587
	C261.04,505.736,267.975,498.863,274.565,493.608z"/>
<polygon style="fill:#FFF200;" points="286.5,481.832 286.5,481.832 286.5,481.833 "/>
<polygon style="fill:#FFF200;" points="329.831,495.167 329.832,495.165 329.833,495.167 "/>
<path style="fill:#FFF200;" d="M329.193,492.586c-8.749-0.913-19.043-4.066-27.163-7.059c-4.196-1.543-7.824-3.037-10.396-4.143
	c-1.39-0.598-2.45-1.072-3.144-1.389c-0.565-1.564-1.773-4.982-3.324-9.789c-2.085-6.459-4.771-15.374-7.277-25.445
	c6.016-7.596,12.682-14.502,17.913-19.542c2.724-2.627,5.059-4.751,6.705-6.216c0.807-0.717,1.443-1.269,1.885-1.648
	c8.163,0.122,18.352,1.998,26.538,3.911c4.249,0.99,7.965,1.981,10.613,2.724c1.417,0.396,2.509,0.717,3.23,0.932
	c0.266,0.518,0.633,1.246,1.093,2.193c2.878,5.929,9.003,19.787,12.312,35.906C355.848,466.654,345.483,481.722,329.193,492.586z"/>
<path style="fill:#FFF200;" d="M302.499,378.25c5.398,0,10.685,0.466,15.83,1.35c0.118,0.426,0.27,1.15,0.27,2.044
	c-0.001,0.508-0.057,1.074-0.183,1.674c-8.041,3.345-18.389,8.834-21.099,10.286c-8-0.806-15.915-1.042-22.409-1.042
	c-6.249,0-11.177,0.213-13.602,0.344c-0.473-1.066-1.043-2.695-1.152-4.448C272.847,381.934,287.24,378.25,302.499,378.25z"/>
<path style="fill:#FFF200;" d="M211.712,489.001c-0.089-0.023-0.159-0.045-0.223-0.065c-1.137-5.803-1.739-11.798-1.739-17.935
	c0-16.755,4.44-32.464,12.208-46.026l0.824-0.504c0.076-0.074,0.79-0.322,1.659-0.423c0.873-0.118,1.915-0.161,2.843-0.161
	c0.268,0,0.521,0.004,0.763,0.01c1.746,9.674,4.146,16.468,5.085,18.911c-1.787,4.308-8.723,22.076-9.112,40.833
	c-3.161,1.701-6.332,3.766-8.9,5.548c-0.426,0.036-0.83,0.06-1.184,0.06C212.881,489.247,212.148,489.111,211.712,489.001z"/>
<path style="fill:#FFF200;" d="M252.748,549.287c-5.735-3.653-11.044-7.917-15.833-12.704c-9.917-9.919-17.595-22.068-22.22-35.632
	l0.063-1.692h0.001c0.032-0.246,0.316-2.53,2.974-5.796c2.523-1.762,5.686-3.827,8.693-5.439
	c7.109,4.137,14.035,9.969,19.212,14.875c2.729,2.584,4.983,4.902,6.547,6.57c0.962,1.025,1.652,1.793,2.044,2.234
	c3.643,14.101,8.548,27.095,9.697,30.073c-0.521,3.34-1.598,4.922-3.032,5.931c-1.538,1.077-4.041,1.592-7.443,1.58H252.748z"/>
<path style="fill:#FFF200;" d="M368.083,536.583c-13.914,13.912-32.216,23.415-52.656,26.266l-1.167-0.37
	c-0.831-0.323-1.167-0.519-1.921-2.14c-0.598-1.384-1.162-3.694-1.765-7.014c12.369-8.593,24.6-21.422,27.237-24.236
	c1.886-0.449,7.271-1.711,13.468-2.977c7.22-1.483,15.642-2.948,20.373-3.103c0.699,0.992,1.454,2.413,2.006,3.663
	c0.372,0.826,0.676,1.585,0.885,2.132c0.061,0.161,0.111,0.294,0.154,0.412C372.622,531.787,370.417,534.249,368.083,536.583z"/>
<path style="fill:#FFF200;" d="M378.204,524.594c-0.616-1.344-1.367-2.854-2.318-4.235c2.832-4.558,11.067-18.749,14.441-35.227
	c1.712-0.647,3.099-1.703,4.24-2.873C392.674,497.904,386.891,512.348,378.204,524.594z"/>
<path style="fill:#FFF200;" d="M372.651,410.464c0.083,0.042,0.149,0.077,0.213,0.111c13.934,16.212,22.359,37.277,22.383,60.328
	l-0.648,1.893h-0.002c0,0-0.024,0.074-0.102,0.274c-0.268,0.702-1.09,2.614-2.334,4.315c-1.026,1.426-2.29,2.574-3.578,3.074
	c-1.488-0.962-4.654-3.031-8.542-5.708c-5.206-3.583-11.664-8.232-16.939-12.622c-3.827-18.698-11.197-34.192-13.614-38.966
	c4.825-5.805,9.386-12.421,11.074-14.923c0.454-0.021,0.9-0.034,1.334-0.034c3.332,0,7.15,0.871,8.859,1.462
	C371.606,409.969,372.245,410.259,372.651,410.464z"/>
</svg>
