<?xml version="1.0" encoding="iso-8859-1"?>
<!-- Generator: Adobe Illustrator 24.0.1, SVG Export Plug-In . SVG Version: 6.00 Build 0)  -->
<svg version="1.1" id="Calque_1" xmlns="http://www.w3.org/2000/svg" xmlns:xlink="http://www.w3.org/1999/xlink" x="0px" y="0px"
	 viewBox="0 0 595.276 841.89" style="enable-background:new 0 0 595.276 841.89;" xml:space="preserve">
<polygon points="465.311,499.854 500.375,459.719 498.548,457.452 453.83,482.105 457.495,490.015 440.109,499.36 440.109,278.143 
	438.633,278.143 156.892,278.143 156.892,501.349 149.081,490.081 142.031,492.212 107.197,451.879 104.698,453.371 
	122.852,501.099 131.194,498.577 142.22,528.516 152.966,525.268 165.954,556.958 194.773,548.243 298.499,597.866 410.064,544.494 
	420.226,566.423 446.303,534.581 443.839,529.267 468.407,506.536 "/>
<path style="fill:#EE3D96;" d="M284.096,353.885c5.977,0,11.751,0.849,17.23,2.403l84.359-75.188H159.847v201.285l62.014-55.272
	c-0.537-3.309-0.827-6.704-0.827-10.165C221.033,382.118,249.269,353.885,284.096,353.885z"/>
<path style="fill:#EE3D96;" d="M284.096,480.01c-5.627,0-11.077-0.747-16.269-2.13l-70.891,63.184l4.699,5.104l-2.667,0.806
	l99.53,47.614l110.323-52.775l-4.27-9.215l29.56-17.292l-4.72-10.185l7.762-4.172V326.961l-90.668,80.811
	c0.437,2.997,0.672,6.059,0.672,9.176C347.158,451.774,318.924,480.008,284.096,480.01z"/>
<path style="fill:#FFFFFF;" d="M346.2,406.049l90.954-81.064V281.1h-49.367l0.053,0.06l-84.837,75.613
	C325.223,363.747,342.129,382.691,346.2,406.049z"/>
<path style="fill:#FFFFFF;" d="M222.165,428.82l-62.319,55.543v21.247l8.303,11.977l5.608-1.696l22.177,24.085l70.208-62.574
	C243.768,470.765,226.595,452.059,222.165,428.82z"/>
<polygon style="fill:#EE3D96;" points="457.671,483.364 461.347,491.301 433.245,506.405 437.922,516.5 408.362,533.792 
	420.925,560.901 442.841,534.143 440.255,528.557 464.821,505.826 461.822,499.353 492.633,464.089 457.671,483.364 "/>
<polygon style="fill:#EE3D96;" points="167.669,553.349 196.269,544.703 172.841,519.259 166.946,521.039 147.878,493.534 
	141.05,495.598 110.444,460.16 124.637,497.471 133.007,494.94 144.034,524.88 154.683,521.66 167.669,553.349 "/>
<polygon points="507.734,624.491 575.996,570.235 375.109,572.94 375.109,602.018 221.888,602.018 221.888,572.938 21.005,570.233 
	89.262,624.492 21.034,676.884 151.434,678.643 151.434,710.779 445.563,710.779 445.563,678.646 575.972,676.888 "/>
<polygon style="fill:none;" points="29.585,674.045 29.617,674.045 29.617,674.021 "/>
<polygon style="fill:#EE3D96;" points="378.066,602.018 436.924,602.018 378.066,576.646 "/>
<polygon style="fill:#EE3D96;" points="218.932,602.018 218.932,576.646 160.075,602.018 "/>
<linearGradient id="SVGID_1_" gradientUnits="userSpaceOnUse" x1="121.5434" y1="707.8222" x2="121.5434" y2="573.3056">
	<stop  offset="0" style="stop-color:#EE3D96"/>
	<stop  offset="0.45" style="stop-color:#FFFFFF"/>
	<stop  offset="0.55" style="stop-color:#FFFFFF"/>
	<stop  offset="1" style="stop-color:#EE3D96"/>
</linearGradient>
<polygon style="fill:url(#SVGID_1_);" points="151.434,602.521 213.47,575.782 29.617,573.306 94.065,624.529 29.617,674.021 
	29.617,674.045 151.434,675.688 "/>
<linearGradient id="SVGID_2_" gradientUnits="userSpaceOnUse" x1="298.4987" y1="707.8222" x2="298.4987" y2="573.3055">
	<stop  offset="0" style="stop-color:#EE3D96"/>
	<stop  offset="0.45" style="stop-color:#FFFFFF"/>
	<stop  offset="0.55" style="stop-color:#FFFFFF"/>
	<stop  offset="1" style="stop-color:#EE3D96"/>
</linearGradient>
<rect x="154.391" y="604.976" style="fill:url(#SVGID_2_);" width="288.215" height="102.847"/>
<linearGradient id="SVGID_3_" gradientUnits="userSpaceOnUse" x1="475.4697" y1="707.8222" x2="475.4697" y2="573.3056">
	<stop  offset="0" style="stop-color:#EE3D96"/>
	<stop  offset="0.45" style="stop-color:#FFFFFF"/>
	<stop  offset="0.55" style="stop-color:#FFFFFF"/>
	<stop  offset="1" style="stop-color:#EE3D96"/>
</linearGradient>
<polygon style="fill:url(#SVGID_3_);" points="567.38,573.306 383.529,575.782 445.563,602.521 445.563,675.688 567.41,674.044 
	502.935,624.53 "/>
<path d="M275.213,624.93v19.209c0,1.443,0.064,2.364,0.191,2.763c0.127,0.398,0.393,0.725,0.796,0.979
	c0.404,0.254,1.051,0.381,1.94,0.381h0.537v0.641H266.31v-0.641h0.624c1.005,0,1.721-0.115,2.148-0.347
	c0.427-0.231,0.716-0.548,0.866-0.952c0.15-0.404,0.225-1.346,0.225-2.823v-12.177c0-1.085-0.052-1.764-0.156-2.035
	c-0.104-0.271-0.297-0.502-0.581-0.692c-0.283-0.19-0.609-0.286-0.978-0.286c-0.589,0-1.305,0.185-2.148,0.555l-0.312-0.624
	l8.643-3.949H275.213z"/>
<path d="M282.488,649.387v-0.485c1.917-0.439,3.542-1.085,4.876-1.939c1.333-0.854,2.39-1.911,3.169-3.17
	c0.779-1.259,1.325-2.708,1.637-4.348c-0.716,0.37-1.325,0.627-1.827,0.772c-0.503,0.143-1.031,0.216-1.585,0.216
	c-1.778,0-3.259-0.641-4.443-1.922c-1.184-1.282-1.775-3.037-1.775-5.266c0-1.548,0.321-2.965,0.961-4.253
	c0.641-1.287,1.556-2.286,2.746-2.996c1.189-0.71,2.425-1.066,3.707-1.066c1.374,0,2.673,0.393,3.897,1.178
	c1.224,0.785,2.2,1.923,2.927,3.412c0.728,1.49,1.091,3.188,1.091,5.093c0,2.471-0.592,4.838-1.775,7.102
	c-1.184,2.263-2.947,4.079-5.292,5.447C288.457,648.529,285.686,649.271,282.488,649.387z M292.43,637.989
	c0.116-1.293,0.173-2.431,0.173-3.412c0-2.102-0.242-4.059-0.728-5.871c-0.277-1.005-0.687-1.744-1.229-2.218
	c-0.289-0.254-0.664-0.381-1.126-0.381c-0.577,0-1.028,0.248-1.351,0.745c-0.45,0.682-0.675,1.981-0.675,3.898
	c0,3.198,0.381,5.403,1.143,6.616c0.497,0.785,1.166,1.178,2.009,1.178C291.096,638.544,291.691,638.359,292.43,637.989z"/>
<path d="M304.537,625.415h10.998l-1.75,4.469h-9.248l-0.884,2.338c3.983,0.15,7.049,1.144,9.196,2.979
	c1.768,1.513,2.65,3.395,2.65,5.646c0,1.443-0.41,2.855-1.23,4.235c-0.82,1.38-1.975,2.441-3.464,3.186
	c-1.49,0.745-3.124,1.117-4.901,1.117c-1.917,0-3.389-0.358-4.417-1.074c-0.716-0.508-1.073-1.085-1.073-1.732
	c0-0.497,0.187-0.935,0.562-1.316s0.812-0.572,1.308-0.572c0.45,0,0.906,0.093,1.368,0.277c0.462,0.185,1.253,0.67,2.373,1.455
	c0.704,0.485,1.31,0.82,1.818,1.005c0.357,0.139,0.762,0.208,1.212,0.208c0.947,0,1.754-0.347,2.417-1.04
	c0.664-0.692,0.995-1.523,0.995-2.494c0-2.032-1.016-3.684-3.048-4.953c-2.032-1.27-4.595-1.905-7.69-1.905
	c-0.313,0-0.779,0.006-1.403,0.017L304.537,625.415z"/>
<path d="M323.156,649.387l6.391-19.382h-4.867c-1.904,0-3.337,0.248-4.295,0.745c-0.67,0.346-1.225,0.998-1.663,1.957h-0.658
	l1.697-7.292h13.995l-7.881,23.972H323.156z"/>
<path d="M272.624,663.844v0.641c-0.854,0.139-1.617,0.595-2.286,1.368c-0.485,0.578-1.207,1.935-2.165,4.071l-8.089,17.943h-0.572
	l-8.054-18.671c-0.97-2.252-1.619-3.574-1.948-3.967c-0.329-0.392-0.95-0.641-1.862-0.745v-0.641h11.259v0.641h-0.381
	c-1.016,0-1.709,0.127-2.078,0.381c-0.266,0.174-0.398,0.428-0.398,0.763c0,0.208,0.046,0.453,0.138,0.736
	c0.093,0.282,0.404,1.042,0.936,2.277l5.006,11.691l4.642-10.409c0.554-1.259,0.895-2.102,1.022-2.529
	c0.127-0.427,0.19-0.791,0.19-1.091c0-0.347-0.092-0.652-0.277-0.918c-0.185-0.266-0.456-0.468-0.814-0.607
	c-0.497-0.196-1.155-0.295-1.975-0.295v-0.641H272.624z"/>
<path d="M272.849,681.996c0.809,0,1.493,0.283,2.053,0.849c0.56,0.565,0.84,1.247,0.84,2.044c0,0.797-0.283,1.475-0.849,2.035
	c-0.566,0.56-1.247,0.84-2.044,0.84c-0.796,0-1.475-0.28-2.035-0.84c-0.56-0.561-0.84-1.238-0.84-2.035
	c0-0.797,0.28-1.479,0.84-2.044C271.374,682.279,272.052,681.996,272.849,681.996z"/>
<path d="M298.934,663.844l-13.805,22.171h4.469c2.113,0,3.591-0.133,4.434-0.398c1.374-0.416,2.558-1.181,3.551-2.295
	c0.993-1.114,1.68-2.607,2.061-4.477h0.676l-0.952,8.487h-21.513l13.822-22.205h-3.482c-1.351,0-2.24,0.04-2.668,0.121
	c-0.808,0.149-1.567,0.447-2.277,0.892c-0.71,0.444-1.299,1.036-1.767,1.775c-0.468,0.739-0.835,1.675-1.1,2.806h-0.641l0.641-6.876
	H298.934z"/>
<path d="M305.377,681.996c0.808,0,1.492,0.283,2.052,0.849c0.56,0.565,0.841,1.247,0.841,2.044c0,0.797-0.283,1.475-0.849,2.035
	c-0.565,0.56-1.247,0.84-2.044,0.84c-0.797,0-1.475-0.28-2.035-0.84c-0.56-0.561-0.84-1.238-0.84-2.035
	c0-0.797,0.28-1.479,0.84-2.044C303.902,682.279,304.58,681.996,305.377,681.996z"/>
<path d="M344.973,663.844v0.641c-0.439,0.035-0.809,0.156-1.108,0.364c-0.301,0.208-0.566,0.525-0.797,0.952
	c-0.069,0.139-0.434,1.034-1.092,2.685l-7.361,19.382h-0.675l-5.82-15.138l-6.408,15.138h-0.642l-7.725-19.174
	c-0.785-1.928-1.334-3.095-1.646-3.499c-0.311-0.403-0.837-0.641-1.576-0.71v-0.641h10.185v0.641
	c-0.819,0.023-1.366,0.147-1.638,0.373c-0.271,0.225-0.406,0.505-0.406,0.84c0,0.438,0.283,1.368,0.849,2.788l4.607,11.398
	l3.689-8.903l-0.97-2.494c-0.531-1.362-0.941-2.271-1.23-2.727c-0.288-0.456-0.621-0.782-0.996-0.979
	c-0.376-0.196-0.926-0.295-1.653-0.295v-0.641h11.38v0.641c-0.797,0.012-1.369,0.075-1.715,0.19
	c-0.243,0.081-0.434,0.217-0.572,0.407c-0.139,0.19-0.207,0.407-0.207,0.649c0,0.266,0.26,1.08,0.779,2.442l4.278,11.12
	l3.827-10.063c0.404-1.039,0.652-1.749,0.745-2.131c0.093-0.381,0.139-0.733,0.139-1.056c0-0.474-0.162-0.847-0.485-1.117
	c-0.323-0.271-0.94-0.419-1.853-0.442v-0.641H344.973z"/>
<path d="M346.462,681.996c0.809,0,1.491,0.283,2.052,0.849c0.559,0.565,0.841,1.247,0.841,2.044c0,0.797-0.283,1.475-0.849,2.035
	c-0.565,0.56-1.247,0.84-2.044,0.84c-0.797,0-1.476-0.28-2.036-0.84c-0.56-0.561-0.839-1.238-0.839-2.035
	c0-0.797,0.279-1.479,0.839-2.044C344.986,682.279,345.665,681.996,346.462,681.996z"/>
<path d="M67.285,428.248c-1.834-3.251-4.352-5.747-7.486-7.373c-2.56-1.335-5.282-2.013-8.096-2.011
	c-0.611,0-1.223,0.033-1.838,0.096c-2.955,0.296-5.63,1.308-7.908,3.02c-2.333,1.751-4.11,4.312-5.369,7.557
	c-0.855,2.216-1.576,5.209-2.193,9.037l-2.622-16.321l-1.528,0.349c-5.367,1.202-9.394,3.808-11.656,7.816
	c-1.708,3.016-2.503,6.796-2.504,11.293c0,1.426,0.082,2.927,0.24,4.504c0.542,5.311,1.623,9.505,3.375,12.629
	c1.712,3.042,3.935,5.337,6.653,6.738c2.196,1.138,4.503,1.725,6.851,1.723c0.483,0,0.965-0.022,1.452-0.071
	c4.267-0.41,7.814-2.464,10.238-5.94c2.455-3.479,3.988-8.695,4.85-15.728c0.449-4.118,1.239-6.771,1.818-7.484
	c0.744-0.984,1.41-1.354,2.253-1.453c0.108-0.014,0.2-0.018,0.308-0.018c0.772,0.009,1.471,0.278,2.3,1.046
	c0.813,0.764,1.402,2.019,1.605,4.002c0.035,0.357,0.053,0.706,0.053,1.039c-0.016,2.078-0.64,3.572-1.948,4.855
	c-0.864,0.836-2.368,1.596-4.561,2.113l-1.336,0.315l2.865,17.4l1.481-0.279c5.27-0.982,9.6-3.444,12.748-7.312
	c2.584-3.188,3.731-7.78,3.737-13.671c0-1.72-0.1-3.556-0.298-5.51C70.266,435.643,69.133,431.522,67.285,428.248z M34.23,439.618
	c-0.24,1.596-0.465,3.326-0.676,5.196c-0.249,2.679-0.791,4.399-1.033,4.64c-0.442,0.607-0.685,0.703-0.992,0.748
	c-0.077,0.008-0.159,0.012-0.229,0.012c-0.544-0.012-0.956-0.167-1.503-0.681c-0.5-0.479-0.95-1.426-1.108-3.023
	c-0.041-0.386-0.059-0.746-0.059-1.09c0.004-1.4,0.305-2.427,0.829-3.212c0.629-0.945,1.82-1.768,3.818-2.325L34.23,439.618z"/>
<polygon points="69.304,399.067 52.436,398.403 51.733,416.193 53.206,416.251 68.604,416.859 "/>
<polygon points="64.253,338.929 65.636,339.441 73.926,342.509 43.731,353.651 27.42,330.129 22.604,354.387 35.966,371.374 
	19.867,368.177 16.28,386.245 17.724,386.532 68.289,396.571 71.877,378.502 59.026,375.952 53.897,368.657 75.028,362.632 
	78.674,344.266 80.088,344.789 86.266,328.09 70.433,322.231 "/>
<polygon points="70.614,248.532 91.923,275.11 59.267,265.28 48.392,281.332 50.463,281.829 103.522,294.494 114.076,278.919 
	81.22,232.878 "/>
<polygon points="126.537,242.905 121.702,237.945 138.944,221.133 129.759,211.71 112.515,228.522 109.016,224.933 127.604,206.808 
	118.083,197.043 86.282,228.049 87.31,229.104 123.297,266.017 155.637,234.486 145.664,224.257 "/>
<path d="M232.02,168.985c-1.762-1.05-3.823-1.619-6.121-1.752c0.708-0.921,1.259-1.884,1.642-2.896
	c0.545-1.446,0.827-2.936,0.827-4.441c0-1.563-0.3-3.138-0.879-4.696c-1.336-3.655-3.946-6.364-7.542-7.828
	c-1.637-0.678-3.411-1.008-5.279-1.008c-2.341,0-4.829,0.513-7.468,1.493l-28.541,10.587l0.513,1.38l15.743,42.444l-10.429-6.042
	c-0.864-0.512-2.085-1.002-3.771-1.573c-1.699-0.566-2.896-0.895-3.893-0.961c-0.15-0.01-0.313-0.014-0.473-0.014
	c-0.092,0-0.186,0.002-0.28,0.004c0.441-0.625,0.813-1.24,1.115-1.85c1.085-2.196,1.639-4.514,1.639-6.888
	c0-0.194-0.004-0.388-0.012-0.58c-0.096-2.639-0.997-5.242-2.608-7.756c-1.839-2.884-4.191-4.988-7.004-6.149
	c-1.681-0.698-3.413-1.059-5.156-1.057c-1.131,0-2.264,0.15-3.389,0.445c-2.828,0.743-6.217,2.436-10.323,5.056l-22.967,14.688
	l28.566,44.671l1.243-0.792l14.333-9.17l-10.948-17.12c0.871-0.535,1.729-0.779,2.682-0.782c0.06,0,0.126,0.001,0.196,0.003
	c0.523,0.008,1.922,0.489,3.771,1.554l15.994,8.869l13.831-8.845l0.067,0.181l26.427-9.803c1.225-0.459,3.303-1.48,6.44-3.132
	c2.43-1.287,4.213-2.54,5.386-3.945c1.7-2.042,2.798-4.413,3.249-7.02c0.143-0.823,0.215-1.649,0.215-2.48
	c0-1.827-0.348-3.663-1.022-5.48C236.604,173.07,234.663,170.556,232.02,168.985z M202.89,170.406l-2.279-6.14l5.024-1.864
	c1.317-0.493,2.379-0.704,3.113-0.704c0.004,0,0.007,0,0.01,0c0.395,0,0.69,0.058,0.903,0.139c0.745,0.295,1.235,0.77,1.653,1.842
	c0.212,0.571,0.3,1.061,0.3,1.474c-0.002,0.455-0.097,0.821-0.292,1.189c-0.264,0.559-1.382,1.47-3.506,2.236L202.89,170.406z
	 M219.885,181.085c0.193,0.523,0.278,0.988,0.278,1.408c-0.002,0.531-0.124,1.006-0.398,1.513c-0.378,0.744-1.662,1.76-4.015,2.616
	l-6.017,2.234l-2.504-6.751l5.985-2.22c1.583-0.593,2.861-0.855,3.751-0.855c0.007,0,0.014,0,0.02,0c0.441,0,0.779,0.061,1.03,0.15
	C218.954,179.532,219.473,180.04,219.885,181.085z M153.873,196.726l-3.896-6.093l4.485-2.87c1.97-1.279,3.503-1.814,4.291-1.814
	c0.016,0,0.032,0,0.046,0c0.09,0,0.166,0.006,0.232,0.014c0.863,0.132,1.532,0.543,2.26,1.644c0.369,0.586,0.526,1.129,0.531,1.747
	c0,0.098-0.004,0.2-0.012,0.304c-0.077,0.741-0.317,1.237-0.825,1.742c-1.443,1.467-2.491,2.38-2.856,2.604L153.873,196.726z"/>
<path d="M387.395,147.017l-7.047,23.357l-8.849-28.153l-15.991-4.824l-0.425,1.41l-12.794,42.407l-13.946-47.031l-18.87-1.347
	l-19.622,42.703l-4.924-6.939c-0.573-0.825-1.478-1.779-2.775-3c-1.31-1.22-2.263-2.017-3.142-2.489
	c-0.215-0.114-0.442-0.22-0.682-0.322c0.661-0.386,1.255-0.791,1.784-1.22c2.054-1.671,3.603-3.731,4.586-6.119
	c0.697-1.695,1.041-3.544,1.041-5.503c0-0.857-0.065-1.734-0.192-2.631c-0.474-3.391-1.738-6.281-3.815-8.507
	c-2.038-2.199-4.6-3.604-7.518-4.107c-1.172-0.205-2.491-0.3-3.968-0.302c-2.159,0.002-4.659,0.208-7.521,0.611l-26.996,3.814
	l7.419,52.503l1.46-0.205l16.848-2.381l-2.844-20.125c0.237-0.029,0.467-0.043,0.695-0.043c0.8,0.002,1.525,0.174,2.249,0.534
	c0.47,0.223,1.542,1.24,2.783,2.978l10.861,14.713l15.274-2.157l14.326,1.021l3.023-8.072l15.335,1.094l1.911,8.425l15.239,1.086
	l16.636,5.02l6.987-23.165l8.81,27.929l16.12,4.865l15.317-50.766L387.395,147.017z M320.041,164.655l-7-0.501l4.299-11.209
	L320.041,164.655z M267.413,151.12c0.026,0.178,0.036,0.351,0.036,0.515c-0.002,0.563-0.129,1.053-0.417,1.564
	c-0.376,0.644-0.8,0.998-1.472,1.244c-1.924,0.735-3.253,1.132-3.683,1.183l-5.001,0.705l-1.013-7.161l5.274-0.747
	c0.94-0.134,1.766-0.196,2.465-0.196c0.016-0.001,0.032-0.001,0.048-0.001c1.239,0,2.043,0.23,2.395,0.464
	C266.772,149.163,267.208,149.815,267.413,151.12z"/>
<path d="M446.289,204.727c1.742-3.074,3.028-6.212,3.852-9.405c0.528-2.056,0.799-4.094,0.799-6.105
	c0-1.152-0.086-2.296-0.264-3.429c-0.484-3.136-1.729-6.049-3.686-8.668c-2.002-2.68-5.049-5.116-9.105-7.416l-21.289-12.048
	l-0.725,1.28L390.478,203.8l21.29,12.05c2.54,1.437,5.557,2.593,9.056,3.498c1.342,0.349,2.739,0.524,4.174,0.524
	c1.48,0,2.999-0.184,4.555-0.547c3.084-0.719,5.977-2.143,8.639-4.226C440.948,212.933,443.595,209.481,446.289,204.727z
	 M433.102,187.257c0.014,1.972-0.946,4.924-3.056,8.631c-1.916,3.405-3.646,5.615-4.898,6.545c-1.315,0.987-2.475,1.39-3.572,1.392
	c-0.064,0-0.106,0-0.139,0c-1.074-0.015-3.147-0.725-5.856-2.273l-2.017-1.142l12.026-21.25l2.075,1.175
	c3.304,1.873,4.923,3.852,5.33,5.822C433.061,186.483,433.102,186.853,433.102,187.257z"/>
<polygon points="478.8,240.305 487.468,230.405 469.354,214.537 472.654,210.765 492.188,227.872 501.171,217.611 467.757,188.347 
	466.789,189.457 432.821,228.237 466.8,257.997 476.215,247.248 456.117,229.647 460.683,224.436 "/>
<path d="M512.351,309.985c2.669-0.079,5.243-0.9,7.637-2.399c2.921-1.818,4.992-4.224,5.994-7.133
	c0.44-1.269,0.653-2.625,0.653-4.049c0-0.749-0.059-1.515-0.173-2.3c1.044,0.507,2.1,0.853,3.167,1.025
	c0.684,0.108,1.363,0.163,2.041,0.163c2.404,0.004,4.739-0.708,6.898-2.059c3.309-2.048,5.435-5.151,6.143-8.97
	c0.15-0.8,0.228-1.612,0.228-2.435c-0.002-3.213-1.143-6.533-3.275-9.949l-16.14-25.815l-1.248,0.781l-43.713,27.324l14.94,23.902
	c0.696,1.107,2.115,2.933,4.367,5.673c1.751,2.119,3.34,3.614,4.952,4.479c2.196,1.173,4.575,1.772,7.045,1.77
	C512.021,309.994,512.184,309.992,512.351,309.985z M508.127,278.823l3.385,5.414c1.2,1.904,1.693,3.401,1.677,4.253
	c0,0.113-0.007,0.219-0.02,0.314c-0.156,0.983-0.547,1.595-1.486,2.209c-0.714,0.442-1.335,0.616-1.935,0.618
	c-0.31,0-0.618-0.046-0.95-0.146c-0.806-0.221-2.059-1.271-3.374-3.403l-3.401-5.441L508.127,278.823z M518.704,272.211l5.555-3.473
	l2.842,4.546c1.004,1.591,1.403,2.84,1.389,3.535c0,0.111-0.007,0.211-0.02,0.294c-0.14,0.787-0.506,1.366-1.471,1.99
	c-0.762,0.472-1.386,0.647-1.919,0.647c-0.233,0-0.457-0.031-0.684-0.1c-0.604-0.146-1.722-1.057-2.903-2.982L518.704,272.211z"/>
<path d="M539.615,348.849c0.924-1.535,1.508-2.63,1.79-3.585c0.067-0.234,0.125-0.479,0.175-0.736
	c0.513,0.568,1.032,1.066,1.56,1.496c2.059,1.665,4.394,2.758,6.932,3.227c0.804,0.151,1.624,0.224,2.46,0.224
	c1.845,0,3.741-0.365,5.677-1.063c3.22-1.163,5.787-2.995,7.54-5.484c1.633-2.314,2.485-4.938,2.479-7.719
	c0-0.157-0.002-0.318-0.009-0.481c-0.102-2.925-1.01-6.602-2.664-11.181l-9.287-25.636l-49.855,18.063l0.501,1.384l5.796,16
	l19.11-6.922c0.198,0.583,0.291,1.144,0.293,1.698c0,0.427-0.056,0.852-0.169,1.283c-0.121,0.504-0.897,1.763-2.342,3.335
	l-12.165,13.655l7.078,19.54l12.734-13.765C537.94,351.452,538.688,350.37,539.615,348.849z M550.289,319.745l1.814,5.004
	c0.615,1.691,0.887,3.036,0.883,3.918c0,0.427-0.059,0.741-0.133,0.944c-0.315,0.806-0.863,1.367-2.098,1.836
	c-0.407,0.145-0.78,0.21-1.145,0.21c-0.318,0-0.637-0.048-0.967-0.155c-0.711-0.237-1.143-0.58-1.52-1.185
	c-1.116-1.732-1.78-2.952-1.916-3.36l-1.719-4.749L550.289,319.745z"/>
<path d="M534.06,404.344c2.383,1.82,5.071,3.048,8.011,3.651c1.7,0.351,3.44,0.526,5.215,0.526c1.24,0,2.496-0.086,3.768-0.256
	l31.03-4.176l-2.454-18.222l-1.458,0.197l-30.274,4.073c-0.555,0.073-1.072,0.108-1.557,0.108c-1.713-0.003-2.989-0.423-4.031-1.212
	c-1.341-1.034-2.19-2.559-2.52-4.935c-0.071-0.514-0.104-0.994-0.104-1.449c0.007-1.673,0.43-2.939,1.25-4.008
	c1.049-1.343,2.624-2.206,5.072-2.546l31.734-4.271l-2.454-18.222l-31.028,4.176c-2.626,0.354-5.483,1.253-8.609,2.668
	c-2.102,0.95-4.026,2.435-5.771,4.4c-1.74,1.96-3.04,4.069-3.856,6.317c-0.782,2.143-1.143,4.627-1.143,7.446
	c0,0.174,0.002,0.344,0.004,0.514c0.048,2.947,0.236,5.661,0.568,8.142c0.581,4.306,1.652,7.976,3.264,11.005
	C529.91,400.531,531.714,402.553,534.06,404.344z"/>
<path d="M570.743,418.078c-4.063-2.762-8.962-4.374-14.605-4.871c-1.139-0.101-2.255-0.151-3.349-0.151
	c-4.079,0-7.878,0.703-11.357,2.121c-4.418,1.793-7.947,4.63-10.456,8.435c-2.53,3.828-4.005,8.808-4.544,14.891
	c-0.153,1.689-0.227,3.311-0.227,4.867c0,2.978,0.275,5.715,0.839,8.208c0.861,3.807,2.68,8.135,5.432,13.051l0.378,0.68
	l23.51,2.075l2.361-26.752l-13.312-1.177l-0.13,1.468l-0.78,8.844l-2.385-0.21c-0.794-1.739-1.33-3.259-1.613-4.531
	c-0.232-1.028-0.346-2.077-0.346-3.16c0-0.455,0.021-0.919,0.062-1.389c0.314-3.33,1.505-5.556,3.624-7.127
	c1.595-1.183,4.17-1.891,7.799-1.887c0.945,0,1.96,0.048,3.041,0.142c4.902,0.426,8.176,1.725,9.954,3.56
	c1.642,1.694,2.427,3.636,2.439,6.158c0,0.353-0.013,0.709-0.046,1.076c-0.183,2.057-0.767,3.563-1.664,4.66
	c-0.914,1.104-2.107,1.837-3.786,2.229l-1.25,0.286l1.597,18.001l1.597-0.301c3.468-0.654,6.461-1.846,8.925-3.611
	c2.465-1.764,4.388-4.116,5.721-6.967c1.366-2.934,2.222-7.13,2.723-12.733c0.142-1.629,0.215-3.173,0.215-4.64
	c0-3.814-0.485-7.099-1.511-9.861C577.799,424.684,574.82,420.842,570.743,418.078z"/>
<path style="fill:#EE3D96;" d="M64.719,429.696c-1.595-2.813-3.664-4.843-6.282-6.207c-2.17-1.13-4.39-1.677-6.735-1.679
	c-0.505,0-1.019,0.027-1.541,0.08c-2.481,0.254-4.588,1.064-6.437,2.445c-1.795,1.346-3.272,3.395-4.393,6.27
	c-1.104,2.824-2.09,7.726-2.849,14.526c-0.334,2.884-0.667,4.729-1.563,6.031c-0.705,1.058-1.815,1.854-3.109,1.971
	c-0.163,0.015-0.332,0.025-0.51,0.025c-1.33,0.013-2.602-0.565-3.56-1.516c-1.2-1.182-1.781-2.853-1.983-4.833
	c-0.051-0.48-0.073-0.941-0.073-1.39c-0.004-1.826,0.414-3.487,1.327-4.85c0.949-1.417,2.402-2.429,4.219-3.114l-1.858-11.582
	c-3.978,1.188-6.618,3.185-8.221,5.997c-1.375,2.42-2.124,5.685-2.121,9.84c0,1.314,0.075,2.719,0.224,4.207
	c0.509,5.068,1.557,8.91,3.011,11.48c1.498,2.655,3.306,4.462,5.439,5.567c1.826,0.939,3.637,1.393,5.498,1.394
	c0.387,0,0.774-0.02,1.159-0.057c3.531-0.379,6.103-1.872,8.126-4.711c1.99-2.778,3.517-7.6,4.328-14.372
	c0.532-4.32,1.135-7.116,2.368-8.878c1.066-1.484,2.596-2.482,4.306-2.642c0.226-0.026,0.436-0.034,0.632-0.034
	c1.597-0.01,3.107,0.687,4.321,1.848c1.49,1.406,2.274,3.436,2.515,5.851c0.044,0.449,0.067,0.893,0.067,1.333
	c0.016,2.723-0.957,5.173-2.851,6.978c-1.166,1.111-2.707,1.912-4.593,2.495l1.93,11.708c3.989-1.025,7.111-2.992,9.537-5.95
	c1.956-2.382,3.077-6.28,3.073-11.809c0-1.608-0.092-3.346-0.282-5.215C67.367,436.22,66.298,432.486,64.719,429.696z"/>
<rect x="54.563" y="402.134" transform="matrix(0.0394 -0.9992 0.9992 0.0394 -349.1779 452.0422)" style="fill:#EE3D96;" width="11.914" height="10.992"/>
<polygon style="fill:#EE3D96;" points="28.957,337.514 25.757,353.631 43.209,375.816 22.182,371.641 19.742,383.93 65.974,393.108 
	68.415,380.817 57.292,378.61 49.106,366.96 72.489,360.293 75.512,345.063 42.609,357.204 "/>
<polygon style="fill:#EE3D96;" points="82.48,329.83 72.173,326.015 68.038,337.19 78.176,340.941 78.402,340.857 "/>
<polygon style="fill:#EE3D96;" points="78.402,340.857 78.176,340.941 78.348,341.004 "/>
<polygon style="fill:#EE3D96;" points="102.224,291.158 110.487,278.961 81.284,238.038 74.27,248.386 100.152,280.664 
	60.491,268.726 53.22,279.457 "/>
<polygon style="fill:#EE3D96;" points="126.485,247.069 117.537,237.891 134.781,221.079 129.708,215.874 112.463,232.687 
	104.85,224.88 123.439,206.755 118.032,201.209 90.448,228.104 123.35,261.851 151.474,234.432 145.612,228.421 "/>
<path style="fill:#EE3D96;" d="M182.992,198.766c-0.517-0.314-1.633-0.791-3.217-1.321c-1.571-0.537-2.71-0.797-3.135-0.811
	c-0.081-0.006-0.18-0.008-0.29-0.008c-0.805-0.004-2.049,0.178-3.637,0.581l-5.099,1.283l3.689-3.745
	c1.587-1.607,2.662-3.041,3.238-4.214c0.899-1.825,1.334-3.665,1.335-5.584c0-0.156-0.004-0.314-0.008-0.472
	c-0.078-2.036-0.763-4.109-2.146-6.277c-1.595-2.486-3.463-4.105-5.653-5.016c-1.355-0.562-2.684-0.831-4.027-0.833
	c-0.871,0-1.747,0.116-2.644,0.35c-2.314,0.599-5.525,2.154-9.48,4.686l-20.487,13.103l25.395,39.708l10.613-6.789l-10.95-17.122
	l2.39-1.529c1.325-0.853,2.82-1.305,4.361-1.301c0.107,0,0.21,0.002,0.338,0.006c1.471,0.106,3.031,0.789,5.07,1.925l14.446,8.011
	l11.952-7.645L182.992,198.766z M164.745,189.912c-0.11,1.377-0.719,2.662-1.689,3.585c-1.505,1.509-2.518,2.45-3.339,2.988
	L154.22,200l-1.242,0.794l-7.071-11.059l6.968-4.456c2.251-1.423,4.117-2.254,5.924-2.278c0.21,0,0.42,0.014,0.627,0.042
	c1.799,0.224,3.333,1.353,4.348,2.977c0.644,1.001,0.999,2.151,0.995,3.333C164.769,189.538,164.761,189.724,164.745,189.912z"/>
<path style="fill:#EE3D96;" d="M222.503,195.594c0.911-0.334,3.011-1.348,6.09-2.974c2.243-1.175,3.751-2.309,4.491-3.218
	c1.388-1.675,2.244-3.526,2.614-5.643c0.115-0.659,0.171-1.317,0.171-1.977c0-1.455-0.272-2.931-0.839-4.458
	c-1.025-2.747-2.52-4.607-4.521-5.808c-1.493-0.889-3.361-1.367-5.706-1.367c-0.741,0-1.529,0.048-2.362,0.146l-4.996,0.597
	l3.886-3.196c1.798-1.478,2.91-2.959,3.453-4.398c0.428-1.136,0.636-2.258,0.636-3.401c0-1.189-0.224-2.403-0.694-3.67
	c-1.118-2.966-2.993-4.909-5.905-6.13c-1.259-0.521-2.629-0.784-4.155-0.784c-1.905-0.002-4.055,0.42-6.444,1.307l-25.778,9.562
	l16.392,44.191L222.503,195.594z M216.984,176.085c0.706,0,1.38,0.095,2.009,0.316c1.714,0.581,3.037,1.928,3.654,3.66
	c0.296,0.8,0.459,1.615,0.459,2.431c0.004,1.022-0.263,2.027-0.762,2.931c-1.014,1.789-2.926,2.964-5.569,3.962l-7.399,2.744
	l-1.382,0.513l-4.551-12.274l8.744-3.244C213.99,176.456,215.561,176.087,216.984,176.085z M204.61,159.64
	c1.534-0.567,2.892-0.885,4.149-0.889c0.676,0.002,1.329,0.098,1.939,0.328c1.597,0.581,2.783,1.914,3.379,3.576
	c0.31,0.835,0.482,1.669,0.484,2.498c0.002,0.903-0.215,1.794-0.644,2.584c-0.929,1.657-2.673,2.693-5.074,3.604l-6.312,2.341
	l-1.379,0.511l-4.328-11.665L204.61,159.64z"/>
<path style="fill:#EE3D96;" d="M282.513,170.287c-0.338-0.5-1.156-1.398-2.375-2.538c-1.208-1.143-2.133-1.852-2.506-2.036
	c-0.677-0.369-1.989-0.784-3.82-1.116l-5.163-0.954l4.906-1.87c2.113-0.804,3.686-1.661,4.697-2.49
	c1.703-1.389,2.923-3.02,3.723-4.956c0.54-1.315,0.818-2.763,0.82-4.381c0-0.71-0.055-1.448-0.164-2.22
	c-0.418-2.925-1.442-5.173-3.054-6.911c-1.651-1.764-3.551-2.801-5.87-3.212c-0.954-0.168-2.11-0.257-3.46-0.257
	c-1.971,0-4.347,0.19-7.109,0.582l-24.077,3.403L245.655,188l12.473-1.764l-2.844-20.123l2.806-0.397
	c0.411-0.061,0.818-0.089,1.219-0.089c1.246-0.002,2.46,0.29,3.598,0.863c1.294,0.709,2.431,1.977,3.81,3.859l9.811,13.289
	l10.27-1.451l1.634-3.557L282.513,170.287z M266.57,157.211c-1.997,0.747-3.31,1.183-4.279,1.33l-6.459,0.912l-1.461,0.207
	l-1.835-12.995l8.187-1.159c1.051-0.148,2.007-0.225,2.881-0.225c1.572,0.006,2.902,0.233,4.008,0.914
	c1.545,0.952,2.471,2.617,2.72,4.517c0.041,0.304,0.065,0.612,0.065,0.924c0.002,1.057-0.276,2.094-0.802,3.018
	C268.924,155.857,267.836,156.775,266.57,157.211z"/>
<path style="fill:#EE3D96;" d="M326.099,136.978l-14.802-1.058l-19.479,42.392l-0.709,1.544l-0.711,1.545l-0.125,0.273l0.095,0.007
	l2.145,0.153l1.901,0.136l8.399,0.599l3.023-8.071l18.621,1.327l1.09,0.078l1.909,8.423l12.954,0.925L326.099,136.978z
	 M308.865,166.81l9.177-23.927l5.316,23.051l0.448,1.942L308.865,166.81z"/>
<polygon style="fill:#EE3D96;" points="363.868,160.063 375.085,195.612 386.895,199.175 400.51,154.051 389.365,150.688 
	380.403,180.387 369.154,144.59 357.477,141.068 343.865,186.192 354.977,189.544 "/>
<path style="fill:#EE3D96;" d="M447.288,194.586c0.473-1.836,0.706-3.624,0.706-5.37c0-1.003-0.077-1.995-0.228-2.975
	c-0.418-2.661-1.447-5.093-3.139-7.362c-1.642-2.209-4.362-4.449-8.192-6.612l-18.725-10.599l-23.218,41.019l18.726,10.599
	c2.257,1.278,5.038,2.355,8.345,3.21c1.1,0.285,2.24,0.43,3.435,0.43c1.234,0,2.527-0.153,3.886-0.469
	c2.643-0.62,5.128-1.829,7.491-3.679c2.27-1.769,4.773-4.94,7.35-9.502C445.35,200.406,446.534,197.512,447.288,194.586z
	 M432.609,197.338c-2.031,3.572-3.829,6.025-5.686,7.447c-1.669,1.264-3.478,1.986-5.34,1.986c-0.002,0-0.005,0-0.008,0
	c-0.064,0-0.141,0-0.23-0.002c-2.008-0.085-4.292-1.016-7.216-2.653l-4.581-2.595l14.203-25.093l0.725-1.282l4.641,2.628
	c3.677,2.075,6.089,4.628,6.764,7.783c0.111,0.539,0.167,1.106,0.167,1.701C436.032,190.108,434.831,193.393,432.609,197.338z"/>
<polygon style="fill:#EE3D96;" points="465.197,214.811 472.38,206.608 491.911,223.713 497.014,217.887 468.034,192.504 
	436.977,227.96 466.525,253.839 472.057,247.522 451.961,229.922 460.406,220.282 478.524,236.148 483.313,230.68 "/>
<path style="fill:#EE3D96;" d="M523.2,299.488c0.321-0.935,0.49-1.954,0.49-3.084c0-1.495-0.298-3.184-0.925-5.067l-1.591-4.767
	l3.913,3.157c1.81,1.461,3.482,2.253,5.003,2.493c0.535,0.083,1.064,0.125,1.579,0.125c1.833-0.003,3.576-0.516,5.337-1.612
	c2.677-1.693,4.203-3.921,4.81-7.018c0.118-0.618,0.177-1.245,0.177-1.888c0-2.5-0.895-5.291-2.827-8.39l-14.577-23.315
	l-39.967,24.983L498,296.509c0.513,0.825,1.93,2.677,4.143,5.362c1.605,1.961,3.022,3.207,4.061,3.75
	c1.801,0.957,3.663,1.424,5.663,1.426c0.136,0,0.268-0.002,0.395-0.006c2.13-0.069,4.155-0.699,6.164-1.952
	C520.908,303.529,522.43,301.689,523.2,299.488z M525.198,264.679l4.401,7.042c1.141,1.846,1.821,3.477,1.835,5.097
	c0,0.248-0.016,0.497-0.056,0.75c-0.248,1.683-1.315,3.115-2.823,4.036c-1.1,0.685-2.273,1.092-3.477,1.092
	c-0.514,0-1.029-0.075-1.53-0.226c-1.81-0.574-3.176-2.074-4.554-4.241l-3.568-5.707l-0.779-1.251L525.198,264.679z
	 M516.089,289.195c-0.222,1.795-1.276,3.364-2.847,4.318c-1.082,0.677-2.272,1.065-3.485,1.065c-0.004,0-0.007,0-0.01,0
	c-0.613,0-1.224-0.094-1.818-0.278c-1.957-0.632-3.494-2.27-5.004-4.656l-4.182-6.69l-0.781-1.251l11.099-6.938l4.948,7.914
	c1.332,2.153,2.108,4.013,2.125,5.813C516.134,288.725,516.119,288.957,516.089,289.195z"/>
<path style="fill:#EE3D96;" d="M533.587,322.659l0.97,2.674c0.328,0.913,0.504,1.855,0.502,2.8c0,0.68-0.087,1.363-0.273,2.062
	c-0.427,1.414-1.435,2.787-2.991,4.525l-10.987,12.333l4.833,13.34l9.46-10.227c0.423-0.435,1.133-1.42,1.997-2.848
	c0.869-1.415,1.374-2.469,1.477-2.867c0.189-0.638,0.318-1.74,0.316-3.21c0-0.246-0.004-0.501-0.011-0.763l-0.125-5.243l2.837,4.412
	c1.221,1.901,2.383,3.264,3.402,4.085c1.711,1.38,3.556,2.236,5.616,2.622c0.621,0.115,1.262,0.176,1.922,0.176
	c1.455,0,3.01-0.287,4.673-0.89c2.777-1.011,4.767-2.477,6.134-4.41c1.311-1.874,1.937-3.828,1.942-6.022
	c0-0.129-0.002-0.257-0.006-0.385c-0.072-2.387-0.886-5.861-2.49-10.275l-8.283-22.865l-44.315,16.054l4.29,11.845L533.587,322.659z
	 M552.055,315.969l2.818,7.779c0.678,1.887,1.054,3.49,1.06,4.918c0,0.687-0.09,1.342-0.316,1.962
	c-0.615,1.709-2.054,2.955-3.861,3.589c-0.694,0.249-1.417,0.385-2.144,0.385c-0.629,0-1.256-0.101-1.864-0.295
	c-1.318-0.409-2.441-1.284-3.125-2.436c-1.144-1.798-1.839-2.992-2.185-3.914l-2.219-6.132l-0.504-1.387L552.055,315.969z"/>
<path style="fill:#EE3D96;" d="M535.848,402.001c2.045,1.561,4.298,2.588,6.818,3.108c1.502,0.311,3.041,0.468,4.62,0.468
	c1.104,0,2.229-0.078,3.375-0.231l28.108-3.784l-1.664-12.383l-28.816,3.879c-0.669,0.09-1.319,0.136-1.948,0.136
	c-2.209,0.006-4.213-0.587-5.818-1.818c-2.065-1.564-3.273-3.979-3.651-6.877c-0.088-0.635-0.13-1.252-0.13-1.848
	c-0.008-2.192,0.61-4.199,1.866-5.81c1.592-2.07,4.044-3.276,7.008-3.664l28.814-3.878l-1.665-12.382l-28.111,3.784
	c-2.246,0.3-4.854,1.101-7.789,2.433c-1.664,0.753-3.258,1.957-4.782,3.672c-1.529,1.722-2.611,3.505-3.288,5.367
	c-0.632,1.726-0.968,3.872-0.968,6.439c0,0.151,0.002,0.304,0.006,0.463c0.045,2.853,0.229,5.453,0.542,7.8
	c0.545,4.048,1.543,7.382,2.946,10.017C532.28,398.708,533.769,400.414,535.848,402.001z"/>
<path style="fill:#EE3D96;" d="M569.086,420.515c-3.59-2.439-7.962-3.909-13.209-4.375c-1.057-0.094-2.085-0.138-3.088-0.138
	c-3.744,0-7.146,0.64-10.246,1.902c-3.932,1.606-6.919,4.024-9.109,7.329c-2.17,3.276-3.561,7.771-4.068,13.531
	c-0.146,1.606-0.216,3.143-0.216,4.605c0,2.796,0.262,5.316,0.767,7.559c0.731,3.239,2.307,7.12,4.753,11.584l19.019,1.678
	l1.846-20.885l-7.446-0.657l-0.91,10.31l-6.997-0.618l-0.362-0.753c-1.057-2.196-1.791-4.154-2.186-5.914
	c-0.283-1.245-0.419-2.517-0.419-3.808c0-0.548,0.025-1.097,0.073-1.648c0.329-3.93,1.951-7.162,4.817-9.241
	c2.354-1.719,5.559-2.455,9.54-2.459c1.044,0,2.142,0.053,3.301,0.155c5.258,0.47,9.235,1.837,11.798,4.431
	c2.171,2.194,3.297,5.046,3.282,8.221c0,0.435-0.019,0.88-0.059,1.332c-0.217,2.479-0.961,4.616-2.318,6.271
	c-1.077,1.322-2.501,2.289-4.161,2.876l1.086,12.228c2.425-0.619,4.469-1.547,6.162-2.759c2.05-1.474,3.622-3.386,4.771-5.825
	c1.114-2.357,1.982-6.32,2.453-11.739c0.135-1.553,0.204-3.011,0.204-4.382c0-3.564-0.462-6.51-1.323-8.828
	C575.223,426.232,572.667,422.954,569.086,420.515z"/>
<radialGradient id="SVGID_4_" cx="283.8799" cy="416.8759" r="63.9923" gradientTransform="matrix(0.9854 0 0 0.9854 4.3813 6.1782)" gradientUnits="userSpaceOnUse">
	<stop  offset="0" style="stop-color:#FFFFFF"/>
	<stop  offset="0.4365" style="stop-color:#FEFDFE"/>
	<stop  offset="0.5938" style="stop-color:#FCF6FA"/>
	<stop  offset="0.7059" style="stop-color:#F9EBF3"/>
	<stop  offset="0.7965" style="stop-color:#F4DAE9"/>
	<stop  offset="0.8741" style="stop-color:#EDC4DC"/>
	<stop  offset="0.9416" style="stop-color:#E5A9CD"/>
	<stop  offset="1" style="stop-color:#DC8BBB"/>
</radialGradient>
<path style="fill:url(#SVGID_4_);" d="M342.885,397.016c-1.217,0.6-2.193,1.409-2.865,2.113c-0.553,0.579-0.902,1.061-1.054,1.285
	c0.145,1.206,1.026,8.909,1.026,18.525c0,2.535-0.063,5.203-0.214,7.919c0.568,0.637,2.754,3.198,4.19,6.485
	c1.427-5.225,2.204-10.717,2.204-16.396C346.173,409.971,345.006,403.273,342.885,397.016z"/>
<radialGradient id="SVGID_5_" cx="283.873" cy="416.8759" r="64" gradientTransform="matrix(0.9854 0 0 0.9854 4.3813 6.1782)" gradientUnits="userSpaceOnUse">
	<stop  offset="0" style="stop-color:#FFFFFF"/>
	<stop  offset="0.4365" style="stop-color:#FEFDFE"/>
	<stop  offset="0.5938" style="stop-color:#FCF6FA"/>
	<stop  offset="0.7059" style="stop-color:#F9EBF3"/>
	<stop  offset="0.7965" style="stop-color:#F4DAE9"/>
	<stop  offset="0.8741" style="stop-color:#EDC4DC"/>
	<stop  offset="0.9416" style="stop-color:#E5A9CD"/>
	<stop  offset="1" style="stop-color:#DC8BBB"/>
</radialGradient>
<path style="fill:url(#SVGID_5_);" d="M318.223,437.471c-2.847-7.727-5.688-14.047-7.821-18.437
	c-1.808-3.72-3.097-6.042-3.464-6.692c-1.618-0.32-12.614-2.444-26.042-2.47c-0.503,0.683-2.321,3.193-4.487,6.941
	c-2.545,4.401-5.55,10.478-7.417,17.176c0.752,14.708,7.05,24.457,10.145,28.404c0.757,0.966,1.311,1.571,1.555,1.829
	c10.124-0.014,18.398-1.002,19.599-1.152c0.622-0.626,3.846-3.892,7.482-8.382C311.784,449.739,316.267,443.316,318.223,437.471z"/>
<radialGradient id="SVGID_6_" cx="283.8726" cy="416.8754" r="63.9991" gradientTransform="matrix(0.9854 0 0 0.9854 4.3813 6.1782)" gradientUnits="userSpaceOnUse">
	<stop  offset="0" style="stop-color:#FFFFFF"/>
	<stop  offset="0.4365" style="stop-color:#FEFDFE"/>
	<stop  offset="0.5938" style="stop-color:#FCF6FA"/>
	<stop  offset="0.7059" style="stop-color:#F9EBF3"/>
	<stop  offset="0.7965" style="stop-color:#F4DAE9"/>
	<stop  offset="0.8741" style="stop-color:#EDC4DC"/>
	<stop  offset="0.9416" style="stop-color:#E5A9CD"/>
	<stop  offset="1" style="stop-color:#DC8BBB"/>
</radialGradient>
<path style="fill:url(#SVGID_6_);" d="M264.749,391.441c4.368,6.516,8.404,10.897,11.349,13.643c2.56,2.389,4.265,3.527,4.691,3.8
	c13.172,0.017,24.051,2.036,26.181,2.457c4.844-10.442,9.628-17.233,10.554-18.506c-6.722-15.385-15.391-23.422-19.298-26.47
	c-1.023-0.8-1.701-1.245-1.952-1.404c-10.598,0.009-19.279,0.989-20.621,1.148c-0.463,0.589-2.278,2.948-4.364,6.793
	C268.885,377.329,266.145,383.691,264.749,391.441z"/>
<radialGradient id="SVGID_7_" cx="283.8726" cy="416.8759" r="63.9995" gradientTransform="matrix(0.9854 0 0 0.9854 4.3813 6.1782)" gradientUnits="userSpaceOnUse">
	<stop  offset="0" style="stop-color:#FFFFFF"/>
	<stop  offset="0.4365" style="stop-color:#FEFDFE"/>
	<stop  offset="0.5938" style="stop-color:#FCF6FA"/>
	<stop  offset="0.7059" style="stop-color:#F9EBF3"/>
	<stop  offset="0.7965" style="stop-color:#F4DAE9"/>
	<stop  offset="0.8741" style="stop-color:#EDC4DC"/>
	<stop  offset="0.9416" style="stop-color:#E5A9CD"/>
	<stop  offset="1" style="stop-color:#DC8BBB"/>
</radialGradient>
<path style="fill:url(#SVGID_7_);" d="M318.462,392.518c10.645,4.702,18.178,6.792,19.779,7.212c0.509-0.72,1.96-2.543,4.32-3.669
	c-3.122-8.74-8.14-16.579-14.57-23.011c-6.818-6.817-15.221-12.042-24.601-15.107c-0.396,0.277-1.318,0.946-2.396,1.891
	c-1.335,1.168-2.884,2.757-3.915,4.478C299.314,365.8,310.323,373.838,318.462,392.518z"/>
<radialGradient id="SVGID_8_" cx="283.873" cy="416.8759" r="64.001" gradientTransform="matrix(0.9854 0 0 0.9854 4.3813 6.1782)" gradientUnits="userSpaceOnUse">
	<stop  offset="0" style="stop-color:#FFFFFF"/>
	<stop  offset="0.4365" style="stop-color:#FEFDFE"/>
	<stop  offset="0.5938" style="stop-color:#FCF6FA"/>
	<stop  offset="0.7059" style="stop-color:#F9EBF3"/>
	<stop  offset="0.7965" style="stop-color:#F4DAE9"/>
	<stop  offset="0.8741" style="stop-color:#EDC4DC"/>
	<stop  offset="0.9416" style="stop-color:#E5A9CD"/>
	<stop  offset="1" style="stop-color:#DC8BBB"/>
</radialGradient>
<path style="fill:url(#SVGID_8_);" d="M244.136,402.466c1.94-1.394,10.676-7.513,19.655-11.267
	c2.593-14.301,9.672-23.887,11.006-25.594c-1.671-2.89-3.472-5.048-4.868-6.485c-1.066-1.099-1.88-1.767-2.234-2.044
	c-10.547,2.883-19.981,8.463-27.493,15.974c-3.304,3.304-6.225,6.987-8.72,10.964c0.289,0.804,1.166,3.508,1.208,6.799
	C233.815,391.78,240.823,397.84,244.136,402.466z"/>
<radialGradient id="SVGID_9_" cx="283.8726" cy="416.8754" r="63.9996" gradientTransform="matrix(0.9854 0 0 0.9854 4.3813 6.1782)" gradientUnits="userSpaceOnUse">
	<stop  offset="0" style="stop-color:#FFFFFF"/>
	<stop  offset="0.4365" style="stop-color:#FEFDFE"/>
	<stop  offset="0.5938" style="stop-color:#FCF6FA"/>
	<stop  offset="0.7059" style="stop-color:#F9EBF3"/>
	<stop  offset="0.7965" style="stop-color:#F4DAE9"/>
	<stop  offset="0.8741" style="stop-color:#EDC4DC"/>
	<stop  offset="0.9416" style="stop-color:#E5A9CD"/>
	<stop  offset="1" style="stop-color:#DC8BBB"/>
</radialGradient>
<path style="fill:url(#SVGID_9_);" d="M243.233,410.555c0.001-4.109,0.216-6.597,0.283-7.266c-1.657-2.396-4.529-5.346-7.003-7.693
	c-2.145-2.036-3.968-3.609-4.477-4.044c-1.505,0.037-2.9,0.572-3.922,1.131c-0.813,0.442-1.374,0.874-1.593,1.052
	c-2.895,7.172-4.503,15.002-4.503,23.213c0,9.705,2.229,18.886,6.2,27.065c0.229,0.173,0.945,0.699,2.02,1.239
	c1.257,0.633,2.972,1.249,4.841,1.3c4.493-6.009,9.073-13.326,9.747-14.408C243.552,422.845,243.233,415.52,243.233,410.555z"/>
<radialGradient id="SVGID_10_" cx="283.8721" cy="416.8759" r="64" gradientTransform="matrix(0.9854 0 0 0.9854 4.3813 6.1782)" gradientUnits="userSpaceOnUse">
	<stop  offset="0" style="stop-color:#FFFFFF"/>
	<stop  offset="0.4365" style="stop-color:#FEFDFE"/>
	<stop  offset="0.5938" style="stop-color:#FCF6FA"/>
	<stop  offset="0.7059" style="stop-color:#F9EBF3"/>
	<stop  offset="0.7965" style="stop-color:#F4DAE9"/>
	<stop  offset="0.8741" style="stop-color:#EDC4DC"/>
	<stop  offset="0.9416" style="stop-color:#E5A9CD"/>
	<stop  offset="1" style="stop-color:#DC8BBB"/>
</radialGradient>
<path style="fill:url(#SVGID_10_);" d="M245.612,432.746c-0.826,1.324-5.347,8.526-9.795,14.464c0.018,3.133,0.567,5.975,1.12,8.036
	c0.482,1.802,0.957,2.987,1.083,3.293c0.709,0.784,1.435,1.553,2.182,2.301c7.571,7.573,17.092,13.184,27.739,16.047
	c1.013-0.902,5.907-5.328,11.876-12.159c-1.809-1.968-10.77-12.561-11.787-30.355C256.646,432.9,247.301,432.759,245.612,432.746z"
	/>
<radialGradient id="SVGID_11_" cx="283.873" cy="416.8754" r="64.0003" gradientTransform="matrix(0.9854 0 0 0.9854 4.3813 6.1782)" gradientUnits="userSpaceOnUse">
	<stop  offset="0" style="stop-color:#FFFFFF"/>
	<stop  offset="0.4365" style="stop-color:#FEFDFE"/>
	<stop  offset="0.5938" style="stop-color:#FCF6FA"/>
	<stop  offset="0.7059" style="stop-color:#F9EBF3"/>
	<stop  offset="0.7965" style="stop-color:#F4DAE9"/>
	<stop  offset="0.8741" style="stop-color:#EDC4DC"/>
	<stop  offset="0.9416" style="stop-color:#E5A9CD"/>
	<stop  offset="1" style="stop-color:#DC8BBB"/>
</radialGradient>
<path style="fill:url(#SVGID_11_);" d="M339.151,427.638c-1.779,0.819-10.668,4.952-20.002,10.171
	c-3.711,10.97-15.63,23.384-17.904,25.697c1.602,1.352,7.635,6.412,11.054,8.736c5.818-2.975,11.115-6.825,15.692-11.402
	c7.141-7.141,12.54-16.016,15.534-25.934c-0.719-2.046-1.851-3.921-2.818-5.282C340.033,428.676,339.457,427.987,339.151,427.638z"
	/>
<path style="fill:#DC8BBB;" d="M334.67,454.622c-9.731,13.042-24.391,22.188-41.219,24.692c10.156,1.174,22,1.85,34.656,1.85
	c37.64,0,68.151-5.956,68.151-13.303C396.258,460.946,369.228,455.267,334.67,454.622z"/>
</svg>
