<?xml version="1.0" encoding="iso-8859-1"?>
<!-- Generator: Adobe Illustrator 24.0.1, SVG Export Plug-In . SVG Version: 6.00 Build 0)  -->
<svg version="1.1" id="Layer_1" xmlns="http://www.w3.org/2000/svg" xmlns:xlink="http://www.w3.org/1999/xlink" x="0px" y="0px"
	 viewBox="0 0 612 792" style="enable-background:new 0 0 612 792;" xml:space="preserve">
<path d="M309,114c156.296,0,283,126.703,283,283c0,156.296-126.704,283-283,283C152.703,680,26,553.296,26,397
	C26,240.703,152.703,114,309,114"/>
<path style="fill:#FFFFFF;" d="M309,125.119c-36.709,0-72.314,7.187-105.825,21.36c-32.374,13.693-61.451,33.298-86.424,58.27
	c-24.973,24.974-44.578,54.051-58.271,86.425C44.306,324.687,37.119,360.291,37.119,397c0,36.708,7.187,72.314,21.36,105.825
	c13.693,32.374,33.299,61.45,58.271,86.424c24.973,24.974,54.05,44.578,86.424,58.271c33.512,14.174,69.116,21.361,105.825,21.361
	s72.313-7.188,105.825-21.361c32.374-13.693,61.45-33.298,86.425-58.271c24.973-24.974,44.577-54.05,58.271-86.424
	c14.174-33.512,21.361-69.117,21.361-105.825c0-36.709-7.188-72.313-21.361-105.825c-13.693-32.374-33.298-61.451-58.271-86.425
	c-24.975-24.973-54.051-44.577-86.425-58.27C381.313,132.306,345.709,125.119,309,125.119L309,125.119z"/>
<path d="M316.582,294.726c10.862,0,21.718,1.982,31.045,5.574c10.457,4.027,19.213,10.118,26.813,17.825
	c5.847,5.934,10.666,13.154,14.452,20.795c5.252,10.603,8.386,21.5,8.386,35.275c0,19.429-6.47,36.451-17.998,51.044
	c-6.17,7.815-13.373,14.388-21.63,19.724c-6.422,4.15-13.503,7.63-21.09,9.869c-6.649,1.963-15.327,3.532-22.508,3.609
	c-10.152,0.111-19.462-1.189-28.295-4.607c-2.711-1.049-1.877-0.118-9.291-3.645c-8.405-3.998-15.355-9.798-21.612-16.63
	c-4.3-4.694-8.421-9.764-11.701-15.949c-2.508-4.729-4.581-9.825-6.218-14.931c-2.666-8.311-4.077-13.934-4.186-26.12
	c-0.068-7.489,1.145-14.798,3.097-21.685c0.852-3.011,2.212-6.126,3.479-9.015c0.786-1.79,1.394-3.409,2.258-5.119
	c1.843-3.643,4.508-7.133,6.865-10.444c5.36-7.53,11.908-14.141,19.368-19.552c4.073-2.954,8.211-5.799,12.782-7.991
	c2.103-1.01,3.932-1.329,6.14-2.149C296.021,297.16,306.132,294.726,316.582,294.726z"/>
<path style="fill:#FFFFFF;" d="M341.676,422.139c1.439-3.222,1.397-4.352-0.775-7.116c-1.294-1.647-3.975-6.17-5.326-7.889
	c-1.099-1.394-1.153-1.618-3.603-1.634c-4.354-0.023-14.178-0.255-19.691-0.104c-4.578,0.123-12.795-0.322-16.475-0.351
	c-3.815-0.029-4.901-0.307-6.757,1.991c-1.323,1.637-2.865,4.102-5.957,8.529c-1.905,2.73-2.454,4.108-2.527,5.366
	c-0.089,1.518,0.584,2.797,1.306,5.16c1.409,4.619,6.474,17.183,8.861,23.692c1.671,4.565,4.333,3.353,9.622,4.575
	c6.332,1.468,18.75,0.584,22.134,0.303c5.504-0.456,5.832-1.174,6.529-3.537c0.406-1.371,2.131-4.898,3.9-9.06
	C334.554,438.211,338.681,428.837,341.676,422.139z M332.231,424.965c-0.701,1.325-1.529,3.33-2.458,5.498
	c-1.821,4.25-5.293,11.026-6.367,14.415c-0.313,0.995-0.355,2.322-3.395,2.511c-4.81,0.298-8.369,0.291-11.004,0.291
	c-1.523,0-0.825-0.469-1.581-0.559c-0.645-0.078,0.483,0.376-3.98,0.156c-1.894-0.093-2.673-0.6-3.642-2.856
	c-0.629-1.463-1.582-4.723-2.186-6.451c-1.212-3.477-3.089-9.048-4.468-12.558c-0.788-2.007-1.277-3.421-0.12-4.706
	c1.829-2.027,1.972-3.268,2.969-4.809c1.018-1.573,1.179-1.985,4.378-1.851c6.98,0.3,19.615,0.813,25.667,0.714
	c3.67-0.061,2.721,1.018,5.467,5.4C333.27,422.967,332.891,423.717,332.231,424.965z"/>
<path style="fill:#FFFFFF;" d="M378.925,412.052c-3.49,0.517-4.058,1.082-5.295,1.154c-1.554,0.09-2.729,0.172-4.018,0.395
	c-5.692,0.98-12.664,2.467-18.8,3.43c-2.561,0.402-3.092,0.307-5.01,4.128c-0.87,1.742-2.246,4.251-3.215,6.634
	c-0.484,1.19-0.789,2.125-1.37,3.404c-0.314,0.688-1.014,2.087-1.559,3.256c-1.217,2.614-2.871,6.257-4.304,9.823
	c-0.488,1.217-1.215,2.682-1.626,3.749c-0.357,0.927-0.972,2.36-1.002,2.987c-0.063,1.307,0.631,1.455,2.533,0.951
	c1.519-0.401,2.857-0.878,3.689-1.144c1.761-0.561,2.185-1.685,3.137-3.81c0.566-1.263,1.346-2.44,1.941-3.79
	c1.51-3.433,2.969-6.102,4.113-8.684c1.717-3.871,2.786-5.536,3.99-7.933c1.25-2.49,2.195-2.337,3.564-2.552
	c5.183-0.808,13.74-2.741,19.831-3.998c4.109-0.846,4.081-1.193,4.954-2.193c1.159-1.325,1.545-2.469,2.139-3.62
	C383.973,411.614,383.214,411.415,378.925,412.052z"/>
<path style="fill:#FFFFFF;" d="M392.972,375.361c-2.244-2.533-4.739-6.209-7.457-9.777c-3.456-4.54-6.78-9.068-8.466-11.492
	c-0.396-0.57-1.273-1.599-1.296-2.117c-0.02-0.346,0.286-0.939,0.3-1.314c0.016-0.333-0.176-0.602-0.138-0.952
	c0.061-0.53,0.379-1.416,1.473-4.052c1.189-2.869,2.749-6.852,3.967-9.694c0.695-1.625,0.451-3.177-0.21-4.428
	c-2.069-3.92-3.985-5.294-5.351-1.339c-0.898,2.603-1.846,4.912-2.766,7.29c-2.043,5.273-3.97,10.084-5.012,13.521
	c-0.742,2.446-1.065,2.932,0.637,5.308c1.712,2.391,3.464,4.661,8.854,11.438c0.716,0.9,2.091,2.401,3.523,4.17
	c2.262,2.79,4.938,6.263,7.445,9.229c1.069,1.264,2.557,3.468,3.538,3.466c0.904-0.002,1.87-0.58,1.938-3.051
	C394.043,378.293,394.48,377.065,392.972,375.361z"/>
<path style="fill:#FFFFFF;" d="M387.007,383.412c-2.047-2.554-4.344-5.508-6.601-8.165c-1.304-1.536-2.593-2.779-3.814-4.287
	c-1.571-1.941-1.878-2.764-4.247-5.702c-2.258-2.802-4.311-5.025-5.251-5.986c-1.993-2.041-2.239-2.396-5.84-1.51
	c-3.836,0.939-8.561,2.978-10.523,3.264c-2.788,0.405-3.162,1.423-3.901,3.847c-1.216,3.991-3.118,10.174-4.15,13.803
	c-0.56,1.973-1.35,4.742-2.313,7.827c-1.139,3.649-2.435,8.425-3.17,11.798c-0.373,1.703-1.554,3.271-0.705,4.648
	c1.477,2.401,3.154,4.423,4.328,6.117c0.82,1.185,1.247,2.091,2.13,3.159c1.67,2.019,2.003,2.758,4.674,2.174
	c5.865-1.285,9.734-1.37,13.081-2.143c11.272-2.613,16.442-3.625,24.157-5.011c1.562-0.278,2.125-0.568,2.844-2.02
	c2.398-4.836,2.782-9.421,4.162-12.313c0.442-0.924,0.132-3.04-0.78-3.993C389.058,386.802,388.482,385.25,387.007,383.412z
	 M382.878,397.062c-0.768,2.82-0.599,3.329-2.731,3.782c-7.129,1.518-12.115,2.696-20.501,3.997
	c-1.594,0.245-2.977,0.506-5.857,1.165c-2.36,0.539-3.676,0.692-4.832-1.69c-0.694-1.424-1.424-2.405-2.753-4.32
	c-0.932-1.341-0.645-1.37,0.155-4.511c0.664-2.61,2.091-7.428,2.548-9.249c0.694-2.781,2.664-8.972,4.288-15.032
	c0.881-3.289,1.102-3.32,2.357-3.733c1.466-0.483,3.514-0.893,4.568-1.21c2.532-0.762,2.362-0.069,3.278,0.938
	c2.147,2.358,3.966,4.608,8.079,9.701c2.192,2.714,5.094,6.36,7.544,9.732c1.105,1.52,2.581,3.23,3.516,4.304
	c0.727,0.835,1.07,1.708,1.114,2.305C383.742,394.489,383.274,395.602,382.878,397.062z"/>
<path style="fill:#FFFFFF;" d="M284.555,440.672c-0.775-2.219-1.7-4.593-2.359-6.384c-1.518-4.122-2.443-6.832-3.299-8.92
	c-1.165-2.843-1.24-3.418-4.675-4.089c-1.714-0.335-5.902-1.406-11.838-2.657c-2.882-0.607-9.099-1.988-12.106-2.587
	c-3.552-0.707-4.123,0.714-2.93,2.583c1.51,2.364,2.593,4.441,5.035,7.292c0.425,0.497,3.041,1.146,4.812,1.668
	c5.596,1.64,9.153,2.363,12.157,3.36c1.07,0.353,1.88,0.043,2.809,2.419c0.931,2.383,3.12,7.7,4.925,11.851
	c0.542,1.245,0.865,1.976,2.82,2.853c2.683,1.204,4.508,2.424,6.328,2.398c0.807-0.015,1.287-0.672,1.294-1.535
	c0.007-0.929-1.185-2.93-1.721-4.613C285.507,443.367,285.027,442.026,284.555,440.672z"/>
<path style="fill:#FFFFFF;" d="M239.627,378.114c2.344-3.005,5.452-6.403,8.089-9.629c2.162-2.645,3.863-5.094,5.784-7.805
	c2.321-3.273,3.018-4.358,3.04-6.151c0.012-1.149-0.271-2.663-0.695-5.436c-0.886-5.784-1.646-10.307-2.259-13.878
	c-0.458-2.67-1.593-2.732-2.459-1.881c-0.925,0.908-1.783,1.924-2.281,2.652c-0.604,0.881-0.607,3.584-0.362,5.244
	c0.445,3.023,1.186,7.659,1.515,10.191c0.4,3.085,0.561,4.33-1.466,6.491c-0.369,0.393-0.924,1.431-1.621,2.194
	c-0.636,0.694-1.415,1.346-1.867,1.859c-2.067,2.336-4.892,5.01-7.145,7.613c-0.933,1.079-1.141,1.417-1.539,3.782
	c-0.211,1.247-0.24,3.807-0.202,5.234C236.215,380.684,237.089,381.371,239.627,378.114z"/>
<path style="fill:#FFFFFF;" d="M276.971,418.29c0.695-0.913,1.493-1.846,2.1-2.73c0.97-1.413,1.524-1.81,2.207-2.696
	c0.944-1.227,1.723-2.43,2.679-3.643c1.171-1.482,2.177-2.723,2.995-3.681c1.735-2.034,1.536-3.258,0.518-8.017
	c-1.343-6.285-2.994-14.471-4.678-20.146c-0.873-2.942-1.361-7.247-2.608-10.599c-0.657-1.767-3.662-2.37-4.534-2.915
	c-2.143-1.333-3.563-1.965-4.895-2.539c-0.965-0.413-2.028-0.564-6.041-2.459c-2.7-1.278-3.479-1.229-5.238,0.71
	c-2.813,3.102-4.739,6.256-8.045,9.996c-4.252,4.81-9.006,9.606-11.499,13.145c-2.162,3.07-3.922,4.144-2.444,9.897
	c1.046,4.07,2.111,9.1,3.967,14.337c1.12,3.16,1.387,3.673,4.725,4.64c6.694,1.94,19.421,5.124,27.42,6.985
	C275.473,419.012,276.06,419.486,276.971,418.29z M269.353,407.347c-3.012-0.552-13.014-2.661-19.28-3.986
	c-1.876-0.397-1.725-0.575-2.659-3.934c-0.638-2.295-1.159-3.73-2.103-7.51c-0.477-1.902-0.252-3.328,0.776-4.419
	c1.15-1.219,1.647-2.253,2.704-3.749c1.17-1.653,3.289-4.085,5.521-6.601c0.782-0.883,0.944-1.473,1.981-2.539
	c0.893-0.921,2.045-2.008,2.794-2.88c1.01-1.18,1.883-2.244,2.501-3.094c1.195-1.642,2.039-1.551,3.721-0.77
	c1.967,0.913,3.849,1.792,6.063,2.552c1.263,0.434,1.167,1.273,1.434,2.756c0.603,3.346,1.32,8.289,2.125,12.363
	c0.261,1.324,1.179,6.281,1.874,10.832c0.56,3.667,1.464,4.795,0.371,6.475c-1.045,1.605-2.549,3.579-3.12,4.465
	C273.154,408.708,273.359,408.078,269.353,407.347z"/>
<path style="fill:#FFFFFF;" d="M335.593,358.707c-6.837-4.925-14.208-10.6-17.598-12.672c-3.368-2.062-3.165-2.984-9.457,0.741
	c-1.16,0.688-2.785,1.504-4.511,2.584c-3.886,2.435-8.671,5.707-12.565,8.272c-1.145,0.754-1.847,1.333-2.638,1.891
	c-1.176,0.828-2.34,1.564-3.767,2.409c-3.097,1.837-1.915,4.558-1.444,7.232c0.861,4.884,1.768,7.663,2.739,11.423
	c1.732,6.692,3.405,14.232,4.707,19.287c0.321,1.247,0.502,1.61,2.889,1.646c6.571,0.098,20.133,0.203,27.65,0.12
	c6.438-0.07,9.828-0.056,10.603-0.558c1.169-0.758,2.069-3.97,3.029-7.537c1.296-4.809,3.398-11.609,4.689-15.98
	c1.113-3.768,2.056-8.069,2.288-9.131c0.531-2.432,0.863-4.228-0.556-5.226C339.573,361.748,337.927,360.39,335.593,358.707z
	 M333.508,371.029c-0.984,3.793-3.546,10.039-4.516,16.193c-0.68,4.311-0.635,4.617-3.349,4.819
	c-3.322,0.247-12.831,0.697-18.473,0.667c-8.181-0.045-7.272-0.075-8.048-2.927c-0.685-2.531-4.62-16.309-6.05-21.464
	c-0.527-1.9-0.977-2.412,1.305-4.076c2.589-1.888,6.769-4.322,10.067-6.414c1.43-0.909,2.819-1.841,3.914-2.491
	c1.415-0.839,2.649-1.491,3.398-1.817c1.737-0.759,1.967-0.151,3.515,1.243c2.078,1.872,7.62,6.429,12.846,9.98
	c1.696,1.153,2.853,2.418,4.54,3.225C333.74,368.487,334.011,369.09,333.508,371.029z"/>
<path style="fill:#FFFFFF;" d="M284.71,308.398c5.109,2.265,14.382,6.408,20.767,9.078c3.637,1.52,5.697,3.133,7.961,3.136
	c1.104,0.002,2.051-0.5,3.651-1.346c2.711-1.43,4.412-2.471,5.974-3.336c1.691-0.939,3.167-1.662,4.151-2.19
	c2.304-1.229,4.636-2.749,6.403-4.018c2.424-1.741,3.107-1.76,4.848-2.815c1.643-0.997,2.969-2.017,3.764-2.421
	c2.019-1.031,0.4-2.535-0.368-2.766c-0.835-0.248-3.142-1.283-5.77,0.097c-3.489,1.834-7.338,3.794-9.617,4.982
	c-1.444,0.753-3.217,1.18-8.925,4.322c-2.784,1.531-3.574,2.137-6.493,0.738c-3.985-1.91-8.772-4.164-16.575-7.573
	c-1.281-0.56-3.296-1.488-5.097-0.935c-0.561,0.173-3.685,1.379-4.392,1.752C282.106,306.633,283.396,307.816,284.71,308.398z"/>
<path style="fill:#FFFFFF;" d="M258.141,342.708c0.519,3.107,1.164,6.057,1.609,8.143c0.469,2.192,0.225,2.294,1.667,2.933
	c5.518,2.442,14.856,6.905,16.614,7.942c1.613,0.955,2.133-0.153,5.223-1.924c3.685-2.112,8.841-5.838,12.332-8.566
	c5.934-4.637,10.512-7.27,13.585-9.727c2.119-1.694,2.634-1.109,2.047-11.363c-0.247-4.328,0.086-5.745-3.206-7.228
	c-3.114-1.404-8.839-4.139-14.228-6.503c-5.478-2.4-10.643-4.396-14.382-6.324c-2.206-1.139-2.884-1.113-3.961-0.284
	c-1.489,1.147-2.584,1.4-3.476,2.191c-1.984,1.765-6.843,4.858-10.59,8.819c-1.034,1.094-2.253,2.252-3.258,3.525
	c-1.207,1.531-3.479,2.15-1.5,9.75C256.878,335.094,257.697,340.052,258.141,342.708z M267.804,325.939
	c4.115-4.167,6.294-5.132,8.587-7.103c2.392-2.055,2.939-0.909,5.791,0.056c5.372,1.818,8.73,3.226,11.733,4.481
	c3.14,1.314,5.305,2.394,6.997,2.845c1.759,0.469,2.355,0.532,2.501,2.191c0.047,0.531-0.027,1.362-0.027,2.243
	c-0.057,1.819,0.141,2.932,0.146,3.804c0.017,2.472-0.54,2.348-5.303,5.613c-4.332,2.971-11.431,7.908-15.91,11.044
	c-3.278,2.297-3.414,3.219-5.486,1.755c-4.261-3.008-5.333-3.864-7.721-5.146c-1.976-1.062-1.702-1.795-2.97-8.254
	c-0.684-3.494-1.54-7.628-1.622-9.271C264.452,328.83,265.996,327.77,267.804,325.939z"/>
<path style="fill:#FFFFFF;" d="M334.727,312.019c-1.463,0.833-3.114,1.641-5.021,2.705c-4.57,2.556-9.744,5.547-11.094,6.352
	c-2.263,1.348-3.525,1.456-3.755,4.048c-0.349,3.924,0.068,9.058,0.208,12.392c0.097,2.244-0.172,2.795,2.447,4.553
	c7.495,5.024,19.419,13.323,23.693,16.573c1.134,0.86,1.795,1.29,3.157,0.856c6.943-2.213,12.527-4.013,17.047-5.351
	c3.643-1.079,2.962-2.218,4.981-6.866c1.874-4.314,3.526-9.531,5.049-13.951c0.992-2.885,1.979-5.337,2.628-7.36
	c0.742-2.33,0.923-3.341-0.719-4.654c-3.129-2.506-3.998-4.38-5.92-5.829c-1.111-0.839-2.907-2.204-4.738-3.589
	c-1.863-1.408-3.773-2.839-5.831-3.754c-7.35-3.269-6.404-4.087-11.435-1.55c-1.686,0.852-3.125,1.302-4.183,1.805
	C337.884,310.003,337.261,310.575,334.727,312.019z M346.964,313.766c1.889-0.878,1.859-1.314,3.833-0.034
	c1.056,0.686,2.887,1.528,5.67,3.617c2.446,1.838,5.419,3.554,7.597,5.855c1.742,1.843,2.605,1.649,1.363,5.031
	c-0.982,2.676-3.564,9.839-4.729,12.839c-2.703,6.946-1.709,5.819-6.672,7.711c-1.53,0.583-4.503,1.425-6.595,2.031
	c-1.866,0.543-2.85,0.971-4.313-0.346c-2.745-2.47-4.007-2.672-5.378-3.899c-2.999-2.684-7.117-5.486-11.126-8.62
	c-3.001-2.348-3.637-2.318-3.972-8.669c-0.14-2.642-0.963-3.064,2.845-4.846c4.948-2.314,13.37-6.301,17.595-8.848
	C343.907,315.091,345.407,314.491,346.964,313.766z"/>
<path d="M419.109,408.844c2.235-7.052,4.396-15.093,6.601-21.842c3.006-9.195,6.376-19.592,7.593-24.627
	c0.41-1.692,1.52-5.282,2.496-8.395c0.607-1.931,0.743-3.385,1.722-4.965c1.83-2.956,3.095-4.837,6.086-7.771
	c1.176-1.15,1.355-1.775,0.008-3.668c-1.88-2.643-1.958-3.544-7.96-4.986c-0.909-0.219-2.935-0.956-4.381,0.685
	c-1.311,1.483-2.859,2.7-4.906,6.825c-0.266,0.53-0.712,0.656-0.975,1.361c-0.264,0.705-0.109,1.493-0.65,2.633
	c-1.097,2.316-1.573,4.957-2.367,7.596c-0.456,1.514-0.861,2.362-1.427,3.916c-1.251,3.436-2.137,6.791-3.293,9.73
	c-1.93,4.892-0.664,7.925-4.671,8.614c-1.259,0.218-3.272,0.495-4.923,0.564c-1.475,0.063-1.477,0.749-1.535,2.682
	c-0.045,1.523-0.461,5.103-0.594,8.201c-0.056,1.3,0.058,1.85,2.643,1.929c1.504,0.045,2.746,0.571,2.649,2.173
	c-0.096,1.63-0.96,3.796-1.43,6.898c-0.81,5.361-3.817,17.566-5.565,25.086c-0.712,3.053-0.89,3.701-6.444,2.102
	c-4.184-1.205-5.194-2.593-6.583,0.007c-0.422,0.793-0.938,1.346-1.609,2.514c-0.335,0.583-0.286,2.107-0.247,4.202
	c0.026,1.563,0.35,3.831,1.315,5.012c0.44,0.537,0.921,1.086,0.901,1.632c-0.026,0.696,0.485,1.921,1.537,3.448
	c0.954,1.387,0.857,3.092-1.542,3.362c-2.261,0.257-4.76,1.193-7.986,2.314c-1.225,0.423-1.666,0.514-0.507,2.684
	c1.433,2.687,3.666,8.426,5.799,13.069c1.29,2.81,1.218,2.808-2.363,3.99c-7.489,2.471-13.382,4.19-20.557,5.37
	c-1.819,0.301-3.608-0.107-3.146-2.72c0.602-3.402,1.727-10.105,2.033-15.202c0.127-2.111,0.507-2.198-2.33-0.648
	c-2.52,1.374-5.304,2.458-7.794,3.784c-0.966,0.514-1.248,1.093-1.487,3.668c-0.206,2.223-0.934,7.59-1.305,9.912
	c-0.372,2.324-0.228,3.547-3.263,3.815c-3.944,0.347-8.218,1.605-24.953,2.78c-3.468,0.244-5.257,0.458-6.671,0.541
	c-1.185,0.07-0.791-1.471-0.863-2.84c-0.064-1.173,0.399-4.183,0.426-6.263c0.013-1.039-0.825-0.852-2.195-0.807
	c-2.023,0.068-8.232,0.268-12.303-0.347c-1.406-0.213-1.373-0.704-1.475,2.563c-0.04,1.29-0.127,4.224-0.306,5.657
	c-0.101,0.809,0.075,0.851-1.684,0.514c-4.333-0.834-20.196-2.49-26.11-3.447c-2.161-0.352-1.926-0.35-2.043-2.566
	c-0.075-1.446-0.326-5.342-0.326-10.57c0-1.418-0.155-2.079-1.857-2.761c-0.871-0.348-1.946-0.962-3.218-1.919
	c-1.391-1.049-1.743-0.513-4.842-3.408c-0.593-0.553-1.071-0.874-1.102,1.657c-0.067,5.786,0.345,9.054,0.345,13.729
	c0,2.562,0.063,3.549-0.742,3.71c-0.407,0.083-1.222,0.243-1.925,0.107c-3.857-0.746-12.428-2.525-16.923-3.622
	c-0.615-0.149-2.406-0.444-2.393-1.767c0.004-0.494,0.276-0.996,0.58-1.857c1.768-5.015,3.344-10.136-0.639-11.739
	c-2.771-1.113-5.308-2.702-8.803-4.744c-1.564-0.912,0.32-3.382,1.046-4.622c1.175-2.005,3.727-5.926,3.74-11.069
	c0.008-2.404-0.65-3.158-5.525-3.511c-6.653-0.479-8.409,0.503-8.933-4.068c-0.453-3.966-1.624-10.384-2.185-15.478
	c-0.681-6.186-1.652-10.809-1.919-12.675c-0.509-3.569-0.169-5.052,2.688-5.107c0.856-0.018,3.311,0.156,4.703,0.286
	c2.252,0.212,2.698,0.399,2.098-2.851c-0.133-0.721-0.083-2.164-0.131-3.393c-0.057-1.411-0.281-1.357-0.25-3.585
	c0.021-1.41-0.295-1.597-2.567-1.924c-1.582-0.228-3.406-0.868-6.775-1.201c-3.24-0.321-2.946-2.213-3.471-5.022
	c-0.785-4.196-3.533-18.815-7.19-29.44c-0.809-2.347-1.893-4.594-2.832-6.861c-0.66-1.6-1.459-1.926-3.829-1.887
	c-5.146,0.086-9.314,2.478-11.48,3.969c-1.226,0.845-3.298,1.87-0.19,4.698c1.555,1.416,3.019,2.575,5.033,6.088
	c1.9,3.316,3.195,7.659,4.869,13.026c1.678,5.375,3.043,12.58,5.053,21.854c3.462,15.981,7.552,36.119,9.714,49.155
	c0.178,1.074,0.615,3.266,0.904,4.979c0.481,2.855,0.588,4.977-3.284,5.517c-4.861,0.679-5.581-0.225-6.592,3.636
	c-0.914,3.482-1.722,6.743,0.643,9.035c3.162,3.067,8.416,4.586,12.53,8.476c2.376,2.244,7.161,6.813,7.408,14.944
	c0.057,1.897,0.497,3.406-4.56,3.802c-1.513,0.118-4.523,0.354-6.794,0.31c-1.649-0.033-1.73-0.158-2.653,2.379
	c-0.642,1.757-0.992,2.978-1.003,4.385c-0.012,1.497,0.942,3.727,2.117,4.924c3.321,3.373,6.217,4.002,11.056,5.464
	c5.217,1.576,11.453,3.985,13.674,7.125c0.656,0.93,1.054,1.457,1.064,2.45c0.01,0.921-0.551,1.392-1.753,2.642
	c-1.208,1.257-3.272,1.312-4.993,3.169c-1.611,1.74-2.691,3.441-2.635,5.453c0.097,3.417,1.405,3.346,2.41,4.673
	c1.561,2.06,3.751,4.132,7.184,4.183c5.922,0.087,7.626-3.565,12.93-3.527c3.61,0.027,8.355,3.7,13.551,5.429
	c6.522,2.171,12.594,3.389,17.339,3.537c7.252,0.227,14.177-2.039,19.598-4.829c1.882-0.968,3.617-2.471,5.295-3.866
	c0.846-0.705,1.083-0.533,1.613-0.956c1.188-0.951,2.398-1.921,3.683-2.852c1.47-1.063,3.013-2.479,5.959,1.097
	c1.525,1.854,4.467,4.415,6.819,6.296c2.904,2.323,7.744,4.016,15.826,3.983c7.716-0.029,15.862-2.367,23.343-4.616
	c5.162-1.553,10.903-3.207,16.064-3.185c3.301,0.014,5.651,2.528,10.523,2.496c2.285-0.013,3.939-0.749,5.065-1.493
	c2.107-1.392,2.478-2.887,2.756-5.207c0.261-2.178-0.886-4.125-2.871-6.478c-1.239-1.468-2.21-1.422-2.661-1.987
	c-1.111-1.391-1.707-0.685-2.989-1.734c-1.867-1.528-0.44-2.901,0.955-5.266c0.404-0.685,3.085-4.369,6.948-6.715
	c4.629-2.81,6.956-3.384,10.764-5.347c5.526-2.854,6.544-5.199,7.057-9.907c0.172-1.586-0.259-2.025-2.375-2.059
	c-2.87-0.046-7.078-0.62-8.31-1.18c-2.275-1.032-1.536-2.22,0.023-6.35c0.566-1.502,1.239-3.234,2.32-4.794
	c0.463-0.673-0.105-0.823,0.498-1.367c0.759-0.682,1.874-1.557,2.68-2.399c1.582-1.659,3.296-3.344,5.11-4.897
	c0.585-0.502,0.188-0.637,0.69-0.988c0.545-0.378,1.281-0.882,1.751-1.314c2.044-1.883,3.93-3.695,5.501-5.518
	c1.892-2.191,2.192-3.74,2.408-5.861c0.115-1.153,0.547-2.667,0.541-3.581c-0.017-2.45-0.864-2.166-4.291-2.677
	c-3.397-0.508-6.934,0.139-6.967-2.747c-0.014-1.159,0.758-6.079,1.212-8.704C414.438,424.63,416.582,416.807,419.109,408.844z
	 M261.799,518.782c-2.705-1.766-4.102-2.221-5.656-3.816c-4.469-4.583-6.817-12.449-7.145-17.456
	c-0.412-6.32-3.223-10.463-4.268-11.165c-1.911-1.278-4.613-1.51-7.083-1.51c-2.965,0-5.837-0.127-4.819-2.819
	c1.143-3.018,1.534-4.357,1.983-5.895c0.645-2.212,0.992-3.615,3.028-3.281c3.063,0.501,5.505,1.184,8.566,2.012
	c4.696,1.272,9.827,2.485,13.514,3.441c1.843,0.479,1.881,0.923,2.01,3.138c0.1,1.721,0.384,4.852,0.456,6.251
	c0.437,8.487,0.931,20.737,1.963,27.228C264.81,517.809,264.18,520.335,261.799,518.782z M300.554,504.948
	c-2.379,0.513-6.765,1.314-8.508,3.057c-2.172,2.174-2.334,6.123-2.809,9.589c-0.495,3.61-1.705,4.4-4.391,4.412
	c-2.876,0.015-8.577,1.935-8.946-1.527c-0.274-2.576-0.203-4.076-0.381-6.337c-0.098-1.227-0.462-2.521-0.551-4.689
	c-0.113-2.718-0.694-5.839-1.086-9.741c-0.496-4.951-0.816-10.867-0.949-15.527c-0.061-2.158,0.039-3.761,4.192-3.028
	c3.026,0.536,7.272,0.761,8.633,0.935c10.642,1.369,10.75,1.513,15.307,1.868c0.436,0.034,0.853,0.825,0.857,2.08
	c0.006,3.991,0.466,14.355,0.466,16.401C302.388,504.123,302.079,504.619,300.554,504.948z M349.025,490.283
	c-1.678,11.377-2.483,16.721-4.906,28.765c-0.787,3.907-0.004,6.54-8.057,4.342c-5.541-1.516-7.881-1.677-7.403-6.999
	c0.387-4.297,1.031-7.279-2.194-9.942c-1.258-1.039-3.298-3.268-6.692-3.416c-4.392-0.193-3.969-1.8-3.784-7.535
	c0.166-5.189-1.136-5.516,0.103-8.712c0.412-1.07,1.331-1.439,3.14-1.632c5.061-0.541,17.517-1.939,24.25-2.823
	c5.472-0.72,6.554-1.272,6.522,0.897C349.984,484.486,349.508,487.024,349.025,490.283z M388.039,481.208
	c-0.337,0.636-1.465,2.571-2.736,4.084c-0.992,1.175-2.191,0.638-3.368,0.077c-1.394-0.663-3.054-1.05-4.607-1.088
	c-1.293-0.033-1.792,0.834-2.361,1.716c-1.701,2.63-1.734,6.56-1.655,10.156c0.075,3.384-0.078,8.581-0.994,10.885
	c-1.589,3.99-2.974,5.945-7.489,8.736c-4.108,2.537-6.413,3.948-7.586,3.962c-1.558,0.018-1.651-1.457-0.819-4.362
	c0.672-2.356,1.072-5.207,1.588-8.155c0.896-5.077,1.765-10.351,2.269-13.257c0.505-2.905,1.214-8.697,1.658-10.966
	c0.558-2.827,0.877-3.267,4.06-3.582c5.022-0.5,15.802-3.538,21.709-4.188c0.737-0.081,2.003-0.164,1.979,1.426
	C389.671,477.635,389.593,478.258,388.039,481.208z"/>
<path d="M208.944,333.411c4.24,0.788,13.048,1.823,18.733,2.678c5.696,0.855,6.961,1.432,7.855-1.015
	c0.435-1.19,2.248-3.685,3.534-5.836c0.756-1.267,1.855-2.396,1.834-3.003c-0.01-0.296-0.067-0.468-0.987-0.468
	c-2.861,0-4.096-0.248-6.896-0.608c-7.061-0.907-15.73-2.648-21.18-3.771c-3.436-0.707-3.745-1.053-6.401-4.322
	c-0.683-0.84-1.106-1.81-2.443-0.69c-0.927,0.775-2.414,2.455-3.329,4.821c-0.479,1.238-0.962,3.927-0.913,5.742
	c0.042,1.563,0.976,2.551,2.069,4.074C202.037,332.707,205.477,332.768,208.944,333.411z"/>
<path d="M397.455,335.276c0.515,1.154,0.489,1.722,6.416,1.288c4.067-0.299,7.897-0.222,14.652-1.603
	c3.341-0.683,6.843-1.739,9.139-2.991c2.403-1.31,2.623-1.983,2.806-5.601c0.099-1.979-0.233-4.699-2.786-7.432
	c-0.646-0.693-1.891-1.422-2.407-1.773c-2.549-1.73-2.682-0.197-3.977,1.691c-0.691,1.01-1.736,2.139-3.695,3.194
	c-1.843,0.993-1.945,1.631-6.025,1.916c-3.234,0.225-6.447,0.589-9.945,0.589c-1.05,0-3.434-0.025-5.423-0.086
	c-1.264-0.037-2.84-0.1-3.617-0.236c-1.047-0.185-1.365-0.034-0.324,1.682C393.763,328.385,396.095,332.236,397.455,335.276z"/>
<path d="M447.919,240.815c-2.376,0.857-4.795,1.401-6.736,2.668c-3.704,2.419-6.78,6.848-8.529,11.988
	c-1.843,5.423-1.366,11.449,1.103,16.569c2.121,4.399,5.205,7.942,10.508,11.334c0.768,0.489,2.817,1.608,4.758,2.794
	c1.326,0.811,0.305,1.296,1.284,1.891c0.59,0.357,0.394,1.054-0.256,1.634c-1.227,1.094-2.54,1.57-3.509,2.583
	c-0.694,0.722-0.022,1.007,0.713,1.598c0.75,0.602,2.018,1.847,4.511,2.438c2.34,0.554,3.686-0.406,6.18-1.655
	c1.968-0.986,4.05-2.963,6.064-4.663c2.371-2.002,3.759-2.325,7.605-5.837c1.064-0.969,2.625-2.148,4.131-3.718
	c0.828-0.86,0.69-1.858-1.052-3.147c-2.02-1.492-4.39-4.165-6.204-5.733c-1.749-1.511-2.095-0.852-2.613-0.534
	c-1.208,0.743-0.359,2.018-0.256,3.296c0.117,1.442-0.468,3.542-1.68,4.922c-1.344,1.525-3.59,3.213-4.668,4.166
	c-1.457,1.29-2.417,0.943-4.151,0.557c-3.065-0.681-6.53-1.719-10.004-5.939c-4.134-5.026-4.853-11.204-1.269-18.499
	c2.082-4.241,6.368-9.183,10.561-11.69c2.412-1.442,4.05-2.346,7.964-2.346c4.63,0,9.358,1.738,11.973,3.297
	c2.088,1.244,3.989,4.688,2.912,8.213c-0.479,1.568-0.434,2.629-2.089,5.69c-0.903,1.667-0.117,1.863,1.311,2.733
	c0.927,0.565,4.115,2.365,6.469,2.367c0.847,0.001,1.08-0.227,1.816-1.972c0.735-1.751,1.337-3.714,1.337-6.315
	c0-2.08-0.779-4.125-1.733-5.968c-0.9-1.741-2.059-3.514-3.557-4.99c-3.299-3.255-6.917-6.275-11.047-7.79
	c-3.189-1.169-6.446-2.362-9.327-2.321C456.539,238.491,452.211,239.267,447.919,240.815z"/>
<path d="M278.322,205.128c-1.622-2.089-3.396-3.944-5.104-5.517c-3.767-3.47-9.419-5.424-15.161-5.15
	c-8.91,0.426-12.716,1.439-17.811,4.518c-2.02,1.22-3.436,1.765-5.059,3.084c-3.363,2.735-6.291,7.102-7.262,11.246
	c-0.766,3.277-1.137,4.084-1.156,6.008c-0.041,3.644,0.844,7.313,2.281,11.063c1.594,4.147,3.456,5.69,5.021,7.735
	c2.351,3.067,6.732,5.696,11.786,7.151c2.342,0.672,4.916,1.007,7.343,1.172c1.905,0.13,3.53-0.622,5.761-0.76
	c3.152-0.193,6.82-1.672,10.085-3.64c1.309-0.79,2.753-1.646,3.898-2.578c1.221-0.991,2.131-2.066,3.129-3.237
	c1.501-1.76,2.906-3.607,4.36-6.004c1.412-2.329,2.452-9.885,2.299-12.711c-0.409-7.479-2.012-8.939-2.777-9.791
	C279.288,206.974,278.903,205.874,278.322,205.128z M269.816,233.02c-0.969,1.441-1.901,1.653-2.87,2.677
	c-1.676,1.77-3.217,1.949-4.525,3.388c-0.817,0.899-1.354,0.58-2.297,0.788c-1.198,0.261-2.371,0.586-3.493,0.534
	c-1.128-0.051-2.449-0.499-3.749-0.499c-0.929,0-2.674-0.727-4.331-1.866c-2.184-1.499-5.025-3.716-7.122-5.932
	c-2.684-2.832-3.484-5.1-4.049-7.598c-0.491-2.181-0.821-4.219-0.827-5.676c-0.01-2.683,1.025-7.356,2.842-10.552
	c1.139-2.004,2.71-3.762,4.232-5.058c2.851-2.426,5.948-2.622,9.493-2.622c6.231,0,11.267,3.695,13.724,5.897
	c2.131,1.91,1.888,3.123,3.232,5.021c2.248,3.172,3.183,6.596,3.14,9.645C273.148,225.796,271.691,230.227,269.816,233.02z"/>
<path d="M146.09,274.871c0.459,0.219,0.938,0.601,1.41,0.836c1.669,0.832,1.813,0.969,3.678,0.98
	c4.565,0.026,9.583-2.785,12.443-5.728c2.975-3.061,5.811-4.145,9.291-5.197c6.788-2.052,12.245,4.409,12.48,10.268
	c0.119,3.001-1.324,5.412-2.888,6.767c-1.95,1.689-3.638,2.46-6.169,2.446c-4.377-0.022-7.579-0.49-10.097-2.513
	c-1.9-1.527-3.03-2.251-3.979-1.22c-0.618,0.671-2.829,2.835-3.488,3.804c-1.358,1.997-3.393,2.234-0.564,3.474
	c3.26,1.429,7.218,2.376,11.883,2.45c4.182,0.067,9.577-1.417,13.82-4.071c0.846-0.528,1.645-0.552,2.385-1.204
	c1.82-1.607,3.16-3.31,4.563-5.044c2.084-2.578,2.423-6.399,2.45-9.584c0.026-3.193-0.526-3.956-1.464-6.35
	c-0.45-1.148-0.749-2.116-1.423-3.006c-2.126-2.805-5.712-3.645-9.369-3.68c-2.015-0.019-4.96,0.814-7.122,1.496
	c-5.568,1.756-8.047,3.331-10.1,4.918c-2.285,1.765-5.73,3.157-8.641,3.154c-1.473-0.002-2.287-0.511-3.739-1.566
	c-2.939-2.138-2.652-6.474-1.417-9.036c0.99-2.056,1.923-2.888,2.928-3.964c2.255-2.413,6.736-3.537,11.4-1.99
	c2.796,0.928,2.846,0.447,3.989-0.504c2.677-2.224,5.071-4.279,6.136-5.403c1.075-1.137-0.27-1.519-0.843-1.846
	c-1.416-0.808-3.703-1.943-6.377-1.931c-3.111,0.014-6.838,0.312-10.624,2.354c-1.109,0.599-2.636,1.333-4.011,2.574
	c-1.785,1.61-2.129,1.222-3.203,2.474c-1.525,1.783-3.732,4.338-5.345,6.78c-1.946,2.949-2.903,6.213-2.869,9.684
	c0.025,2.451,0.87,6.345,2.904,8.221C144.611,274.167,145.374,274.529,146.09,274.871z"/>
<path d="M369.783,193.852c-1.186,0.281-3.027,0.161-4.332,0.178c-5.38,0.073-11.359-2.531-12.698-2.991
	c-2.285-0.784-6.602-1.889-11.284-1.869c-5.584,0.023-8.998,1.448-11.576,3.282c-1.203,0.856-1.569,1.771-0.593,2.805
	c1.238,1.309,2.182,2.299,2.771,3.01c1.397,1.685,2.099,0.734,3.694-0.18c3.408-1.952,5.753-1.79,7.605-1.574
	c2.451,0.285,3.483,1.063,2.932,4.369c-1.11,6.671-2.2,13.94-4.011,21.219c-1.277,5.146-3.09,10.396-4.421,14.982
	c-0.484,1.67,1.1,1.593,2.366,1.634c2.044,0.066,4.206-0.324,5.656-0.324c2.036,0,2.259-0.803,3.074-3.509
	c0.806-2.675,1.576-5.592,2.24-7.736c1.427-4.605,2.669-9.992,3.503-14.386c0.571-3.019,1.521-9.036,1.934-10.512
	c0.757-2.688,1.136-2.517,3.498-2.383c4.943,0.28,6.684-0.136,9.665-0.765c2.85-0.6,1.843-2.045,1.656-3.845
	C371.297,193.669,370.777,193.612,369.783,193.852z"/>
<path d="M397.229,217.108c-1.567,3.35-3.125,6.911-5.05,10.526c-3.897,7.315-8.477,14.609-11.89,19.096
	c-1.512,1.984-0.66,2.142,1.979,2.33c1.652,0.117,3.978,0.236,5.971,0.342c3.272,0.173,3.28-0.125,3.678-0.773
	c0.814-1.325,1.836-2.45,2.547-4.048c0.77-1.732,0.475-2.385,1.309-4.309c0.502-1.153,1.169-2.355,1.773-3.727
	c1.964-4.467,4.852-9.467,5.764-11.494c0.482-1.073,1.884-1.857,2.237-0.504c0.604,2.305,0.837,4.467,1.252,6.288
	c0.938,4.138,1.506,7.938,2.163,13.115c0.58,4.566,0.62,9.205,0.77,11.862c0.064,1.118,0.195,2.791,0.224,3.643
	c0.053,1.544-0.02,2.167,1.07,3.088c1.358,1.144,3.271,2.159,5.353,3.433c1.212,0.742,2.945,1.489,4.721,2.358
	c2.194,1.074,1.395-0.867,1.118-3.653c-0.459-4.642,1.468-8.012,1.99-8.701c3.739-4.935,5.379-9.091,10.784-16.956
	c1.072-1.559,1.062-2.235,2.101-4.032c2.44-4.22,4.291-8.029,5.238-9.816c1.159-2.179-1.011-2.16-4.527-4.618
	c-2.929-2.046-6.111-3.884-6.379-4.088c-2.502-1.903-2.339-0.279-2.099,0.429c0.763,2.247,1.144,3.376,1.1,4.752
	c-0.124,4.001-1.372,7.32-3.02,10.857c-0.607,1.305-4.806,9.694-6.966,13.688c-1.255,2.316-3.099,3.676-3.767,1.17
	c-0.795-2.985-0.849-4.917-2.124-10.933c-1.646-7.778-3.32-17.265-3.879-23.264c-0.291-3.1-1.104-3.324-2.228-3.968
	c-2.729-1.563-4.97-2.521-7.068-3.958c-1.886-1.29-3.307-0.547-2.735,0.246c0.64,0.89,0.649,1.249,0.579,2.102
	C398.778,212.925,398.536,214.327,397.229,217.108z"/>
<path d="M370.077,221.164c-0.92,2.952-3.859,9.422-5.03,11.824c-0.451,0.924-1.493,2.269-1.979,3.041
	c-0.741,1.18-0.344,1.243-0.872,1.995c-0.838,1.193-1.827,2.288-2.609,3.076c-0.709,0.718-0.907,1.249,1.133,1.68
	c0.934,0.196,2.392,0.654,3.708,0.654c2.169,0,4.363-0.28,6.145-0.909c1.622-0.572,2.098-1.655,2.904-2.868
	c2.165-3.258,1.972-3.938,2.673-5.121c1.51-2.548,1.633-3.484,3.189-6.479c1.133-2.184,1.918-4.271,2.971-6.535
	c0.602-1.297,0.955-2.485,1.518-3.77c0.555-1.26,1.088-2.507,1.591-3.726c1.004-2.425,1.816-4.934,2.551-6.989
	c0.683-1.909,1.11-2.896,1.11-4.216c0-1.381-1.07-1.018-2.32-1.691c-2.681-1.447-7.201-3.092-9.076-4.148
	c-2.847-1.602-1.624,0.307-0.95,1.827c1.087,2.453,1.009,2.693-0.152,5.454C374.547,209.091,371.024,218.121,370.077,221.164z"/>
<path d="M214.979,244.481c1.104-1.573,2.065-2.992,2.888-4.671c1.515-3.096,2.145-6.116,2.175-8.737
	c0.053-4.775-3.922-13.888-13.901-14.077c-2.681-0.052-6.808,0.237-10.253,1.44c-3.039,1.061-6.654,3.246-9.422,5.058
	c-1.42,0.93-3.469,2.243-3.94,2.73c-2.361,2.448-2.444,1.752-3.874,2.998c-0.56,0.489-1.189,1.353-1.726,1.8
	c-1.087,0.913-2.089,1.609-2.703,2.324c-2.518,2.934,2.952,1.57,5.06,1.572c1.132,0.002,2.138,0.118,2.893,1.086
	c2.303,2.952,6.728,8.54,10.544,13.682c3.248,4.375,6.056,8.494,6.738,9.654c1.762,2.988,4.907,7.369,6.964,10.916
	c0.854,1.474,1.76-0.07,3.925-1.404c1.328-0.819,2.31-1.43,2.726-1.908c1.036-1.191,1.541-0.759-0.227-3.233
	c-2.156-3.02-3.141-5.238-5.146-8.462c-1.116-1.791-0.586-2.592,0.381-3.713C209.588,249.785,212.73,247.684,214.979,244.481z
	 M204.125,248.386c-0.705,0.03-1.836-0.941-2.436-1.854c-2.001-3.04-5.698-9.384-8.64-13.992c-1.898-2.972-3.104-4.698-1.546-6.042
	c1.394-1.201,3.241-2.986,7.55-2.95c3.86,0.032,7.364,2.329,8.777,4.081c1.376,1.705,2.496,3.288,2.324,7.349
	c-0.11,2.593-0.051,4.895-1.495,7.809C207.234,245.662,205.797,248.315,204.125,248.386z"/>
<path d="M318.18,214.579c0.792-0.466,1.825-0.802,3.045-1.98c1.259-1.216,2.766-3.239,3.938-4.989
	c1.024-1.527,1.257-2.799,1.442-3.615c1.02-4.57-1.089-7.132-3.15-9.155c-1.355-1.329-1.122-1.788-4.208-3.641
	c-3.33-2-6.924-2.64-11.202-2.614c-4.608,0.026-7.599,0.257-11.669,0.97c-1.218,0.212-1.104,0.313-1.485,0.303
	c-0.337-0.01-0.178-0.25-0.636-0.2c-1.3,0.145-3.398,0.525-4.325,0.619c-2.701,0.273-5.786,0.973-6.998,1.128
	c-3.039,0.39-0.763,1.72,1.188,2.533c3.472,1.449,4.075,3.911,4.571,6.999c0.829,5.173,1.929,12.379,2.169,19.081
	c0.142,3.933-0.767,7.42-0.755,10.945c0.009,2.73,0.279,4.528,0.128,6.81c-0.14,2.114,3.91,0.223,6.853-0.164
	c3.876-0.51,3.814-0.904,3.099-4.445c-0.604-2.997-1.143-8.232-1.118-10.906c0.029-3.03,0.529-4.457,3.465-4.782
	c4.734-0.521,8.847,5.657,14.339,11.907c1.727,1.966,3.712,3.561,5.382,4.973c1.358,1.147,3.012,1.836,4.241,2.258
	c1.944,0.671,2.257,0.366,3.14-0.119c0.804-0.443,1.772-1.191,2.14-1.407c1.058-0.625,1.19-1.006-0.245-2.215
	c-2.403-2.022-5.34-4.409-7.159-6.332c-1.765-1.868-2.404-3.518-2.616-3.924c-2.586-4.969-4.503-4.824-4.416-6.868
	C317.369,214.971,317.955,214.712,318.18,214.579z M315.698,202.229c-0.348,2.046-2.017,3.838-3.563,5.074
	c-0.942,0.755-1.594,1.194-2.325,1.739c-0.828,0.618-1.137,1.144-2.703,1.667c-1.181,0.397-2.699,1.121-4.908,1.501
	c-3.689,0.636-4.397,0.541-4.813-3.583c-0.367-3.668-0.537-5.437-0.537-9.803c0-3.173,0.112-4.467,3.293-5.295
	c2.401-0.624,3.132-0.6,5.556-0.576c3.696,0.035,4.933,1.087,6.525,1.915C314.303,195.95,316.283,198.798,315.698,202.229z"/>
<path d="M163.662,604.851c-1.16-0.619-2.043-1.256-2.918-2.096c-0.838-0.803-2.919-3.113-5.059-5.639
	c-2.086-2.46-1.5-3.626-0.347-4.84c4.17-4.389,12.087-12.794,14.735-15.483c1.836-1.864,6.577-6.571,8.778-8.517
	c2.074-1.833,3.384-3.021,4.283-3.921c1.104-1.102,1.372-1.477,0.234-2.683c-0.901-0.956-3.174-2.911-5.069-5.095
	c-0.308-0.357-1.73-1.949-2.758-3.085c-0.926-1.022-2.394-1.327-1.769,1.035c0.434,1.637,1.614,4.078,0.214,5.854
	c-3.025,3.828-8.608,8.031-12.049,11.423c-2.298,2.265-5.002,4.962-7.84,7.701c-0.973,0.938-2.785,2.728-3.854,3.718
	c-2.63,2.435-5.407,5.223-6.623,6.805c-0.487,0.635-1.336,1.283-0.595,1.757c1.563,0.994,2.44,1.282,4.224,2.743
	c1.719,1.408,4.472,3.11,6.411,5.909c1.313,1.899,2.225,4.236,2.831,5.592c0.602,1.348,1.748,1.237,3.306,0.903
	c1.248-0.266,2.886-0.628,3.794-0.821C165.201,605.768,164.443,605.268,163.662,604.851z"/>
<path d="M418.689,620.573c-1.018,0.702-3.306,2.146-4.896,3.209c-1.428,0.955-1.709,1.397-2.138,2.815
	c-0.52,1.719-1.112,3.115-2.008,4.215c-0.729,0.896-1.422,1.606-2.044,1.987c-2.462,1.515-3.49,1.76-7.225,1.743
	c-2.22-0.012-3.518-0.367-5.917-1.198c-1.797-0.621-3.127-1.324-4.328-2.219c-1.941-1.443-3.131-3.235-4.33-4.572
	c-1.07-1.197-1.536-2.32-1.584-3.352c-0.036-0.709-0.083-1.481,1.376-2.111c1.774-0.763,3.07-1.495,4.656-2.14
	c2.813-1.144,6.587-3.096,10.528-4.8c0.914-0.394,0.964-0.397,2.037-0.504c1.356-0.135,3.025-0.203,3.904-0.285
	c2.042-0.188,2.334-0.075,2.954-1.193c1.252-2.261,2.286-4.286,3.054-6.137c0.544-1.313-0.19-0.869-0.801-0.507
	c-0.877,0.519-1.607,0.404-2.25,0.762c-1.268,0.712-2.425,0.966-3.817,1.853c-0.973,0.622-1.698,1.252-2.117,1.398
	c-1.165,0.41-3.075,1.485-5.141,2.632c-3.117,1.729-6.596,3.93-10.338,4.979c-1.824,0.512-3.561,0.824-5.061,0.824
	c-1.397,0.002-1.663,0.048-2.627-0.617c-1.06-0.736-1.53-4.067-1.486-5.57c0.046-1.598,0.038-2.908,0.771-5.072
	c0.786-2.316,2.043-4.834,3.414-6.892c0.342-0.512,1.832-1.736,2.881-2.54c1.247-0.954,2.997-1.766,4.833-1.766
	c3.126,0,5.057,0.96,7.022,2.432c2.26,1.695,3.361,1.442,4.335,0.689c0.761-0.582,1.548-1.116,2.219-1.574
	c2.096-1.435,2.948-1.672-0.163-2.477c-1.477-0.382-2.204-1.06-3.997-1.424c-2.425-0.489-5.697-0.82-6.827-0.82
	c-8.49,0-11.547,1.554-15.428,5.386c-1.116,1.104-2.01,2.336-2.989,3.876c-0.48,0.754-1.126,1.643-1.547,2.506
	c-0.877,1.797-1.611,3.835-2.116,6.13c-0.756,3.401-0.891,6.904,0.319,11.732c0.517,2.073,2.025,4.578,2.99,6.098
	c1.193,1.877,1.867,3.142,2.237,3.513c0.733,0.739,1.444,1.318,2.043,1.755c0.987,0.714,2.073,1.289,3.004,2.09
	c0.934,0.809,1.953,1.112,3.615,1.94c3.165,1.581,7.596,2.434,11.177,2.3c5.022-0.189,8.364-0.341,11.215-1.729
	c2.958-1.435,4.806-2.992,6.903-5.245c1.184-1.271,2.498-2.737,3.267-4.527c0.742-1.732,1.428-3.799,1.613-6.27
	C420.017,620.037,420.066,619.622,418.689,620.573z"/>
<path d="M270.794,606.348c-1.132,0.087-3.569,0.199-4.364,0.199c-2.289,0-2.154,0.353-2.186,2.549
	c-0.061,4.475-4.362,8.003-10.494,9.398c-3.983,0.907-8.107,1.252-10.945,1.291c-2.953,0.039-4.612-0.005-4.995-0.675
	c-0.229-0.405-0.145-1.15,0.166-1.786c0.489-0.993,0.984-1.677,1.831-3.267c1.867-3.505,4.892-8.948,6.319-12.109
	c0.676-1.493,0.716-1.952-0.472-2.619c-0.623-0.35-2.464-1.127-2.871-1.354c-2.849-1.587-5.458-2.858-6.991-3.932
	c-2.054-1.441-2.353,0.111-0.438,3.37c0.8,1.358,0.566,2.371,0.361,3.7c-0.491,3.171-2.492,7.01-4.717,10.841
	c-1.132,1.948-2.157,3.866-3.235,5.604c-1.445,2.325-2.857,4.322-3.502,5.54c-1.333,2.513-5.816,9.613-8.15,12.927
	c-0.523,0.745-1.381,1.723-0.55,2.185c1.611,0.898,2.818,1.648,4.4,2.404c1.583,0.754,1.644,0.344,2.883-1.122
	c1.522-1.801,3.321-4.068,4.643-6.008c2.213-3.247,3.969-5.293,5.194-6.951c1.097-1.486,1.664-1.46,2.311-1.464
	c2.211-0.014,5.489,2.225,7.206,5.879c3.263,6.946,5.257,11.54,7.116,14.071c1.304,1.774,2.379,3.078,3.276,3.988
	c2.436,2.469,4.504,3.348,7.016,3.363c2.131,0.013,3.323-0.08,5.612-1.962c0.822-0.676-0.191-1.38-1.778-2.43
	c-1.589-1.051-2.677-2.167-3.182-2.75c-3.016-3.499-4.981-6.304-6.909-10.158c-2.27-4.541-3.47-8.418-3.442-11.204
	c0.007-0.667,0.137-1.499,1.679-2.052c4.975-1.785,11.813-4.007,15.974-5.908c0.837-0.384,1.939-1.659,2.54-2.288
	c1.536-1.606,1.924-3.173,1.993-5.804C272.107,607.231,272.464,606.216,270.794,606.348z"/>
<path d="M473.884,593c-0.65-0.222-1.556-0.874-1.982-1.102c-1.853-0.995-1.563-1.642-2.753-2.814
	c-1.275-1.253-2.358-2.336-3.663-3.95c-0.787-0.977-1.654-2.206-2.693-3.61c-1.703-2.3-3.543-4.582-5.273-6.955
	c-1.46-2.005-3.082-3.983-4.554-5.787c-1.282-1.573-2.202-2.412-2.963-3.529c-1.095-1.61-2.134-3.069-3.089-4.283
	c-0.829-1.052-1.553-1.824-2.376-2.782c-1.293-1.513-1.377-1.206-2.551-0.148c-2.575,2.317-5.545,5.306-6.918,6.386
	c-1.175,0.924-1.918,1.669,0.08,1.758c1.244,0.056,3.236,0.07,5.388,0.07c1.312,0,1.672,0.502,2.415,1.377
	c1.388,1.641,3.944,4.188,6.18,6.822c2.968,3.5,5.577,6.984,6.207,7.895c2.193,3.158,2.846,4.123,4.681,6.329
	c0.805,0.968,1.374,1.885,1.346,2.619c-0.035,0.901-0.48,1.821-3.243,1.776c-3.141-0.054-7.065-1.222-9.892-2.128
	c-5.395-1.732-10.901-3.771-16.086-5.593c-2.418-0.851-4.367-1.802-6.71-2.461c-1.962-0.553-3.89-1.017-5.772-1.355
	c-1.598-0.288-2.847-0.426-3.955-0.417c-2.137,0.022-2.767,0.344-4.294,0.996c-1.345,0.576-2.265,0.981-2.211,1.728
	c0.053,0.686,0.424,0.591,2.233,0.685c1.45,0.077,2.998,1.045,4.451,2.614c1.738,1.874,3.612,4.49,5.436,7.895
	c0.952,1.774,1.947,4.127,2.931,6.033c2.122,4.106,4.028,8.554,4.925,12.335c0.899,3.802,1.263,7.067,1.15,8.969
	c-0.242,4.096,0.585,4.045,1.717,2.786c1.083-1.207,3.121-3.455,4.372-4.977c0.584-0.71,1.304-1.342,1.79-2.017
	c0.873-1.21,1.461-1.646,0.256-3.416c-1.884-2.767-2.607-4.831-3.462-6.363c-1.134-2.034-2.059-3.554-2.89-4.956
	c-0.568-0.962-0.957-2.146-1.479-3.127c-0.555-1.044-1.242-1.896-1.832-3.261c-0.47-1.085-1.22-2.627-1.636-3.25
	c-1.899-2.836-1.58-4.831,1.027-4.861c1.532-0.019,3.282,0.564,5.823,1.308c3.481,1.017,8.028,2.398,11.661,3.497
	c6.241,1.884,12.778,3.582,14.933,4.055c3.528,0.771,4.684,1.278,6.561,1.319c1.461,0.032,2.267,0.274,3.242-0.486
	c2.098-1.635,3.413-2.681,4.31-3.796C475.386,593.998,475.941,593.7,473.884,593z"/>
<path d="M375.094,643.479c-1.761,0.746-2.561,1.113-3.547,1.061c-2.104-0.113-5.42-1.061-8.485-3.171
	c-0.807-0.556-1.258-1.438-2.023-2.048c-3.248-2.58-6.086-5.707-7.598-7.184c-1.338-1.31-0.08-2.646,1.857-4.081
	c0.617-0.458,1.39-1.137,2.053-1.628c2.01-1.487,3.952-3.321,4.557-5.079c0.787-2.299,1.037-3.649,1.025-4.714
	c-0.014-1.544-0.483-3.484-1.981-5.541c-0.721-0.987-1.702-1.302-2.392-1.866c-1.136-0.93-2.311-1.772-3.943-2.549
	c-1.325-0.627-2.519-0.546-3.597-0.771c-2.044-0.424-4.367-0.657-6.979-0.657c-2.736,0-7.089,0.383-11.591,1.067
	c-3.08,0.469-6.611,1.212-9.166,1.18c-2.155-0.024-1.979,1.923,0.421,4.465c1.841,1.946,3.409,4.799,3.819,7.274
	c0.287,1.73,0.598,3.055,0.555,5.731c-0.018,1.223-0.173,2.652-0.17,3.946c0.001,1.255-0.004,2.537-0.005,3.843
	c-0.001,0.896,0.306,1.124,0.234,2.548c-0.08,1.617-0.173,2.299-0.171,3.233c0.016,5.633,0.219,10.927,0.219,13.419
	c0,3.335-0.089,3.675,1.62,3.655c0.934-0.011,3.776-0.196,4.611-0.29c1.523-0.17,1.463-0.66,1.523-2.232
	c0.215-5.46,0.55-8.139,0.653-12.462c0.09-3.758,0.597-6.01,2.371-6.033c0.913-0.012,2.342,0.227,3.743,0.893
	c4.019,1.902,8.095,5.641,12.552,9.15c1.46,1.149,2.919,1.988,3.504,2.383c3.245,2.185,5.042,2.544,7.174,3.419
	c3.018,1.238,4.643,0.625,5.395,0.246c3-1.512,3.81-2.324,5.355-3.942c1.146-1.201,0.979-1.823,0.225-2.575
	C375.842,643.104,375.453,643.325,375.094,643.479z M343.658,628.414c-1.54,0.583-3.994,1.629-5.592,1.602
	c-1.457-0.025-1.762-0.262-2.236-3.17c-0.455-2.802-0.88-9.063-1.323-13.386c-0.283-2.748,0-4.223,3.502-4.681
	c3.015-0.393,5.958-0.497,8.889-0.058c2.451,0.365,4.035,1.538,5.675,2.673c1.714,1.186,3.235,3.104,3.185,5.316
	c-0.058,2.602-0.659,3.502-2.7,6.139C351.367,625.033,346.604,627.307,343.658,628.414z"/>
<path d="M288.589,616.903c0.671-0.767,0.991-1.47,1.626-2.095c1.22-1.203,2.436-2.071,3.488-2.321
	c4.452-1.063,7.411-0.292,9.982,1.385c2.117,1.382,4.375,3.6,5.996,5.753c0.82,1.087,1.814,0.583,2.902,0.317
	c0.983-0.24,2.048-0.624,2.602-0.854c1.265-0.524,0.986-0.798,0.292-1.813c-0.868-1.271-3.081-3.034-5.31-4.365
	c-2.773-1.658-5.33-2.203-6.943-2.684c-2.267-0.677-4.898-0.862-6.918-0.885c-2.182-0.024-4.4,0.23-6.256,0.631
	c-1.269,0.274-2.016,0.688-3.167,1.1c-1.66,0.599-3.212,1.267-4.692,2.112c-0.463,0.265-0.739,0.849-1.17,1.161
	c-0.431,0.314-1.004,0.378-1.416,0.72c-1.586,1.311-2.795,2.686-4.161,4.369c-0.488,0.599-0.715,1.211-1.12,1.831
	c-0.382,0.581-0.947,1.172-1.259,1.766c-1.442,2.764-2.08,4.535-2.147,7.431c-0.064,2.814,0.901,5.647,1.472,8.443
	c0.625,3.06,2.039,5.945,4.013,8.519c1.095,1.429,1.99,2.968,3.389,4.178c4.204,3.638,7.689,5.946,12.994,6.581
	c1.234,0.148,2.427,0.536,3.871,0.546c2.664,0.02,6.724-0.883,9.783-2.095c2.945-1.171,4.698-2.537,6.832-4.827
	c0.349-0.376,1.236-1.979,0.957-0.019c-0.082,0.574,0.257,0.907,1.14-0.987c0.828-1.78,0.985-2.279-0.549-2.235
	c-1.293,0.038-3.377-0.454-6.045-1.004c-1.737-0.359-2.474-0.509-4.469,1.271c-1.197,1.066-2.176,2.096-3.161,2.892
	c-0.992,0.805-1.728,1.204-2.272,1.514c-1.817,1.038-4.181,1.792-5.917,1.789c-1.985,0-3.711-0.47-5.373-1.756
	c-0.52-0.4-1.263-0.615-1.758-1.069c-0.885-0.815-1.444-1.967-2.134-3.033c-2.155-3.339-3.571-7.889-3.094-12.084
	c0.439-3.836,0.574-5.934,4.845-5.995c5.151-0.073,9.363-0.7,15.146,2.262c1.127,0.578,3.52,2.098,4.974,3.193
	c1.734,1.309,2.068,1.284,3.423-0.197c1.048-1.142,2.786-2.888,3.943-3.816c0.405-0.325,1.43-0.891-1.047-1.094
	c-4.539-0.374-15.415-0.447-22.936-2.839c-1.218-0.387-2.284-0.385-4.573-1.451c-1.494-0.695-1.129-1.038-0.588-2.562
	C284.54,622.446,286.477,619.318,288.589,616.903z"/>
<path d="M216.487,617.787c4.412-4.681,4.824-8.947,4.824-16.175c0-4.058-0.713-7.792-2.436-11.459
	c-0.691-1.471-0.681-2.434-2.355-4.3c-1.221-1.361-2.573-3.151-4.161-4.257c-0.833-0.579-1.79-0.632-2.698-1.067
	c-5.691-2.748-11.267-4.783-16.792-4.783c-6.6,0-12.07,1.741-16.263,6.404c-3.084,3.433-5.873,7.66-7.11,12.165
	c-1.308,4.772-0.99,9.631,1.369,14.539c0.754,1.567,1.789,3.258,2.79,4.908c0.708,1.164,1.324,2.312,2.148,3.381
	c4.491,5.841,13.196,8.621,20.1,8.663c4.162,0.025,7.498-0.413,11.407-1.936C211.631,622.185,214.41,619.993,216.487,617.787z
	 M207.958,612.912c-0.46,0.497-1.045,0.74-1.573,1.173c-1.809,1.483-3.472,3.136-5.416,4.188c-2.852,1.542-7.054,2.448-9.958,2.512
	c-2.35,0.051-3.695,0.349-5.903-0.967c-0.992-0.591-2.55-1.101-3.474-2.017c-1.086-1.07-2.501-2.377-3.457-3.937
	c-1.005-1.697-1.846-5.164-1.8-8.933c0.027-2.307,0.285-4.531,0.85-6.018c0.68-1.217,1.563-3.33,2.211-4.584
	c0.841-1.62,1.642-2.319,2.432-3.999c0.468-0.997,1.6-2.408,3.293-3.843c0.526-0.443,1.322-0.903,1.941-1.366
	c0.6-0.449,1.023-0.902,1.7-1.351c0.896-0.594,1.878-1.144,2.905-1.667c1.113-0.567,2.369-0.779,3.434-1.159
	c1.31-0.466,2.455-0.808,3.584-0.809c3.453-0.005,4.827,0.426,8.752,1.967c5.138,2.018,8.513,5.467,8.513,12.413
	c0,4.623-2.373,10.41-5.322,14.775C209.851,610.504,208.962,611.829,207.958,612.912z"/>
<path d="M454.313,330.565c1.604,1.456,3.362,2.669,5.461,3.841c1.796,1,3.711,2.064,7.634,2.025
	c3.936-0.037,7.803-0.626,11.144-1.573c1.085-0.31-0.253-0.573-0.864-1.328c-0.629-0.778-1.152-1.665-1.511-2.134
	c-0.63-0.827-1.733-0.936-2.83-0.603c-1.914,0.582-3.66,0.768-5.861,0.733c-2.184-0.033-4.824-0.28-6.729-0.947
	c-0.714-0.249-1.048-0.735-1.601-1.109c-0.379-0.257-0.986-0.388-1.39-0.647c-1.599-1.023-2.975-2.552-3.962-3.54
	c-0.73-0.728-0.716-3.036,2.534-2.282c4.956,1.147,9.368,0.395,11.269-0.797c1.566-0.982,0.075-0.369-0.896-2.545
	c-0.298-0.663-0.635-1.425-1.655-1.24c-1.047,0.188-1.398,0.746-3.853,0.676c-3.08-0.09-6.28-0.711-9.179-2.055
	c-2.959-1.369-5.466-3.829-6.867-7.001c-1.473-3.334-1.382-6.121-1.335-8.666c0.023-1.295,0.333-2.939,0.322-3.823
	c-0.008-0.645-0.143-0.996-0.952-1.548c-2.382-1.619-5.4-3.814-6.741-5.026c-1.917-1.738-5.392-3.938-8.159-5.821
	c-6.289-4.279-6.942-3.876-8.9-5.1c-2.957-1.849-6.191-3.557-9.738-5.086c-4.058-1.749-11.469-4.869-15.79-6.779
	c-0.431-0.191-0.825-0.286-1.299-0.293c-0.46-0.006-0.141-0.397-0.897-0.712c-5.638-2.353-14.109-5.571-19.977-7.706
	c-5.386-1.96-11.387-4.865-16.698-6.373c-4.27-1.211-7.3-3.234-10.498-4.279c-6.768-2.211-12.979-5.177-18.916-7.154
	c-0.968-0.321-2.042-0.834-2.719,0.48c-0.29,0.563-2.966,5.388-9.214,10.882c-2.08,1.829-2.906,2.122-3.901,2.835
	c-0.954,0.686-2.181,1.608-3.205,2.233c-2.172,1.327-3.756,1.964-6.376,3.042c-4.522,1.859-10.021,4.531-13.941,6.025
	c-0.447,0.17-0.314-0.481-0.763-0.324c-8.963,3.162-15.491,4.615-19.975,5.952c-1.333,0.398-2.935,0.689-4.223,1.091
	c-0.699,0.216-1.102,0.573-1.789,0.75c-0.552,0.142-0.743-0.186-1.282-0.044c-4.248,1.109-8.522,2.296-11.824,3.457
	c-6.186,2.174-12.535,3.971-17.534,6.436c-3.444,1.7-7.751,3.844-11.618,6.097c-0.997,0.581-1.113,0.926-2.945,2.3
	c-2.637,1.979-2.65,1.379-3.838,2.254c-4.196,3.094-12.557,8.413-15.823,11.072c-1.95,1.586-3.703,2.278-4.507,1.814
	c-0.533-0.309-0.456-1.22-0.282-2.395c0.89-6.015,2.147-8.109,6.336-13.063c2.904-3.434,5.161-4.809,7.871-6.787
	c2.817-2.057,5.438-3.603,8.59-5.295c4.81-2.584,10.277-4.976,15.664-6.886c6.146-2.178,12.584-4.445,19.125-6.04
	c7.26-1.771,14.482-4.012,21.442-5.78c6.264-1.593,12.167-2.971,17.923-4.996c0.311-0.108,0.354,0.338,0.665,0.236
	c5.839-1.899,11.963-5.619,14.085-7.944c1.865-2.044,1.693-3.396,1.773-4.289c0.292-3.223-0.311-2.372-0.955-1.836
	c-3.838,3.193-4.043,2.5-6.048,3.911c-1.693,1.191-3.503,1.623-5.507,2.844c-1.253,0.764-2.53,1.035-4.133,1.791
	c-5.955,2.805-8.758,3.403-12.836,4.545c-5.396,1.51-13.477,4.286-17.144,5.178c-6.997,1.704-11.785,3.454-16.537,4.984
	c-9.825,3.165-16.005,5.272-17.207,5.722c-8.167,3.049-12.787,5.817-17.325,8.143c-3.613,1.853-7.038,3.985-9.812,6.071
	c-1.961,1.476-3.399,4.546-5.054,6.669c-2.62,3.364-3.182,5.412-4.325,13.586c-1.169,8.355-2.774,8.246-3.835,9.736
	c-2.248,3.154-5.15,5.039-11.011,5.018c-1.476-0.005-3.439-0.283-4.162-0.345c-2.422-0.21-2.865,0.336-3.348,1.135
	c-1.002,1.66-0.525,1.853,2.344,1.853c2.68,0,4.718-0.425,6.48-0.687c3.165-0.473,4.091-0.898,5.836-0.915
	c2.563-0.026,1.346,1.649,1.143,1.934c-1.918,2.693-4.365,3.956-6.302,5.647c-3.872,3.379-10.957,3.14-14.661,2.943
	c-1.742-0.092-2.745-0.099-4.096,1.78c-0.931,1.294,0.085,1.254,1.706,1.556c2.382,0.444,6.135,0.688,7.133,0.7
	c6.212,0.082,8.539-0.732,12.12-2.631c1.002-0.53,1.406-1.484,2.37-2.136c0.737-0.5,1.572-0.752,2.281-1.334
	c0.631-0.519,1.018-1.315,1.632-1.89c2.231-2.086,4.086-5.248,6.293-7.608c3.727-3.987,7.767-7.558,11.706-11.553
	c1.874-1.9,3.564-2.751,5.421-4.506c4.721-4.462,11.443-8.565,16.693-10.986c2.372-1.095,1.916-1.247,3.121-1.982
	c5.112-3.116,12.71-5.888,20.373-8.395c12.493-4.091,27.382-7.906,39.084-12.203c1.349-0.495,0.406,0.766,1.048,0.534
	c6.811-2.451,12.632-4.644,17.958-7.089c5.171-2.374,9.086-4.742,12.897-7.064c1.113-0.677,2.31-2.296,4.686,0.014
	c1.634,1.588,3.442,2.683,5.359,3.865c1.705,1.055,3.511,2.223,5.126,3.206c0.713,0.433,1.796,1.095,2.494,1.531
	c2.037,1.274,4.678,2.611,8.499,4.179c3.559,1.463,6.616,2.294,11.221,3.695c9.615,2.925,16.024,5.138,25.189,7.895
	c3.293,0.991,6.706,2.219,10.11,3.497c1.011,0.38,1.38,0.847,2.866,1.4c0.982,0.365,2.26,0.621,3.219,1.025
	c7.93,3.336,15.293,7.1,20.31,9.924c1.599,0.901,3.163,1.713,4.821,2.729c0.382,0.232,0.99,0.419,1.637,0.841
	c1.275,0.831,2.298,1.612,3.55,2.461c3.983,2.703,7.726,5.751,11.313,9.173c0.876,0.837,1.721,1.275,2.562,2.15
	C444.79,320.898,448.462,325.257,454.313,330.565z"/>
<path d="M76.635,396.064c1.501,0.045,2.75-0.377,4.626-0.338c3.974,0.086,5.851,3.605,5.799,5.879
	c-0.097,4.18-2.12,7.001-3.564,12.705c-0.634,2.505-1.125,6.175,0.068,9.336c0.967,2.56,2.789,5.778,6.33,5.857
	c3.797,0.084,9.074-3.893,10.804-8.005c0.731-1.737,1.042-3.991,1.004-5.83c-0.019-0.954-0.477-1.427-0.547-2.326
	c-0.062-0.787,0.058-1.449,0.061-2.188c0.005-1.224-0.18-3.159,0.165-4.159c0.758-2.19,1.596-4.628,4.652-4.572
	c0.466,0.008,6.277,2.484,7.894,2.48c2.412-0.009,3.91-1.325,4.912-2.499c1.982-2.318,1.863-5.596,1.93-7.759
	c0.142-4.649-4.137-10.954-6.754-16.915c-1.104-2.516-1.62-5.301-0.08-7.94c0.414-0.71,1.121-1.47,3.011-1.426
	c3.336,0.078,5.127,3.439,8.246,3.447c2.392,0.007,3.185-1.197,4.939-1.158c1.179,0.026,1.697,0.822,2.696,2.015
	c2.454,2.932,5.217,6.03,7.517,9.047c0.477,0.625,0.591,1.155,1.059,1.78c0.694,0.931,1.376,1.859,2.047,2.785
	c1.278,1.769,4.11,7.253,4.871,9.842c0.707,2.408,1.858,4.553,1.768,5.796c-0.17,2.377-3.795,3.74-8.935,3.814
	c-3.77,0.055-5.816-0.6-11.368-2.473c-1.485-0.5-1.642-0.543-2.774,1.035c-2.044,2.847-8.037,8.288-9.539,10.016
	c-1.262,1.449-0.215,1.476,1.188,2.491c1.994,1.445,7.476,3.701,11.134,5.291c2.421,1.052,3.884,1.072,6.447,1.043
	c4.103-0.042,8.223-2.207,10.305-4.251c2.038-1.998,4.701-6.13,6.975-9.874c2.388-3.935,3.871-6.373,7.003-10.453
	c0.808-1.056,2.576-5.475,2.554-10.764c-0.026-6.684-3.405-11.961-5.508-16.343c-3.093-6.453-8.815-13.429-12.804-18.105
	c-3.622-4.245-4.708-4.527-1.655-7.363c1.111-1.032,4.409-4.887,5.901-7.141c0.711-1.074-0.114-1.165-1.355-1.863
	c-2.383-1.345-6.05-2.543-8.222-3.969c-0.601-0.395-0.949-0.445-1.913,0.349c-1.227,1.01-3.109,3.12-4.498,4.266
	c-0.833,0.687-1.242,1.08-2.29,0.18c-0.615-0.528-1.955-2.221-2.24-2.591c-0.824-1.076,0.942-2.419,1.595-3.003
	c2.113-1.896,3.305-2.004,4.277-2.474c0.658-0.318,0.592-0.654,0.656-1.755c0.067-1.119,0.999-2.421,1.475-3.162
	c1.56-2.442,2.436-3.943,3.574-3.875c1.542,0.092,1.721,2.82,3.391,4.587c1.567,1.656,2.732,2.073,5.427,2.176
	c2.029,0.077,3.102,0.065,5.156-1.821c1.807-1.657,2.889-4.84,2.848-8.766c-0.02-1.916-0.325-3.339-0.318-5.314
	c0.02-6.328,1.734-7.171,3.237-7.248c1.32-0.069,2.91,0.85,5.636,0.885c2.548,0.032,5.917-1.772,5.929-4.385
	c0.01-1.946-0.932-2.738-4.07-2.576c-1.847,0.094-4.518-0.088-8.654-1.531c-1.994-0.694-3.016-1.242-4.466-2.27
	c-1.182-0.837-1.396,0.398-1.572,1.227c-0.502,2.356-2.5,10.267-3.756,19.272c-1.124,8.072-4.189,0.329-5.905-5.618
	c-0.399-1.383-0.144-1.671-1.56,0.007c-0.711,0.841-1.128,1.399-1.865,2.264c-1.254,1.469-3.376,3.521-7.241,6.633
	c-3.223,2.595-2.782-1.457-1.967-3.406c1.768-4.225,3.973-7.987,5.07-9.897c2.265-3.94,3.23-4.989,0.501-4.586
	c-2.671,0.397-6.602-0.145-9.331-1.171c-0.766-0.287-1.167-1.084,0.328-2.182c1.35-0.99,3.867-1.392,6.358-2.313
	c6.898-2.548,11.297-8.059,11.705-9.814c0.364-1.569,0.387-2.048-1.933-2.733c-1.939-0.573-4.159-1.37-5.837-2.178
	c-1.393-0.67-3.279-1.282-4.35-4.77c-0.755-2.456-1.371-4.393-3.302-4.329c-0.752,0.024-2.599,0.446-3.454,1.536
	c-0.55,0.701-1.072,1.618,0.157,4.522c0.267,0.631,1.603,3.703,1.605,5.228c0.004,1.453-0.476,2.772-1.501,4.063
	c-0.894,1.123-2.015,2.014-3.363,3.09c-0.549,0.436-1.095,0.601-1.684,1.047c-1.923,1.451-4.009,3.055-5.836,4.701
	c-1.134,1.02-1.065,2.155-1.899,3.181c-1.32,1.626-1.941,3.049-0.402,5.846c2.052,3.73,3.02,3.029,6.051,3.996
	c3.082,0.981,3.657,2.337,3.659,3.67c0.004,2.991-4.753,5.148-8.121,5.148c-0.957,0-1.798-0.207-2.813-2.588
	c-2.107-4.942-3.931-11.254-3.942-19.206c-0.007-4.341,1.789-10.323,3.273-12.67c0.877-1.388,2.984,0.109,4.606,0.694
	c1.036,0.374,2.057,1.507,3.863-0.635c1.116-1.321,0.606-1.793-1.79-3.386c-0.946-0.63-1.936-1.176-2.62-1.573
	c-1.267-0.733-2.06-0.956-3.635-0.245c-2.274,1.024-4.997,2.563-7.702,4.66c-0.751,0.583-1.432,1.098-2.445,1.741
	c-1.189,0.753-1.493,1.547-3.413,2.613c-1.36,0.755-2.728,1.881-4.56,3.626c-1.399,1.335-1.109,1.614-1.142,4.307
	c-0.04,3.502-0.08,5.389,0.195,9.652c0.232,3.607,1.916,11.752,2.982,14.438c2.33,5.867,2.555,5.86,0.851,7.973
	c-0.509,0.631-1.766,2.328-3.515,4.008c-3.229,3.096-5.188,5.893-2.329,8.734c1.75,1.74,2.191,2.766,2.201,4.113
	c0.025,3.282-4.524,5.375-9.153,7.492c-4.735,2.168-5.989,3.783-5.972,6.078c0.023,2.927,1.403,5.271,6.847,6.136
	c4.149,0.66,5.309,2.228,5.342,3.904c0.032,1.614-1.186,2.738-3.06,4.693c-1.946,2.033-2.679,1.931-6.301,4.708
	c-2.153,1.649-5.819,4.045-7.364,6.401c-1.1,1.68-2.204,3.064-2.192,6.426C70.964,392.324,71.831,395.922,76.635,396.064z
	 M85.26,384.374c5.107-4.473,8.628-7.247,12.325-13.456c2.189-3.679,3.964-8.268,4.971-12.16c0.982-3.797,0.597-3.873-2.427-3.918
	c-3.099-0.047-5.311,0.26-6.896,0.288c-1.698,0.03-2.085-0.591-1.965-1.11c0.201-0.862,1.998-1.915,2.872-2.686
	c1.679-1.479,4.514-2.702,6.116-3.49c2.583-1.268,4.752-2.474,7.218-2.401c1.17,0.035,1.996,0.768,3.251,1.899
	c2.764,2.49,3.317,4.448,4.261,5.46c1.143,1.225,4.342,4.503,5.795,6.523c0.683,0.947,1.114,1.725,0.487,2.124
	c-0.692,0.439-2.183-0.141-4.35-0.701c-3.66-0.946-5.603-3.191-7.263-0.652c-1.614,2.467-2.578,9.374-2.563,10.323
	c0.083,5.44,0.106,4.795,1.417,10.432c1.231,5.299,3.101,7.399,3.021,8.791c-0.139,2.445-5.065,0.727-6.686,0.075
	c-2.149-0.865-2.603-0.654-2.983,0.428c-0.782,2.222-3.181,7.509-4.651,10.347c-0.883,1.697-1.881,2.621-2.666,2.597
	c-1.197-0.036-1.354-1.046-1.378-3.237c-0.031-3.241,0.924-8.264,1.165-11.074c0.231-2.691,0.888-3.19-0.666-2.719
	c-1.394,0.422-6.07,1.085-7.637,1.079C83.311,387.122,84.609,384.943,85.26,384.374z"/>
<path d="M96.183,494.824c1.823,0.828,3.383,3.275,3.464,6.923c0.021,0.898-0.48,6.916-0.514,7.811
	c-0.126,3.326,0.426,5.661,1.903,7.406c2.591,3.056,5.326,3.587,7.179,3.655c2.004,0.077,4.321-0.038,7.481-4.591
	c1.887-2.718,1.408-4.367,1.416-5.869c0.013-2.502-0.798-4.674-2.005-6.915c-2.04-3.79-1.74-5.929-1.817-7.366
	c-0.23-4.277,4.646-5.511,9.694-5.591c4.164-0.066,6.939-1.991,6.979-5.301c0.014-1.119-0.517-3.111-3.478-5.607
	c-2.928-2.471-7.227-4.694-9.726-6.939c-1.984-1.786-2.996-3.56-2.995-4.941c0.004-2.129,1.515-3.168,3.718-3.737
	c4.555-1.175,7.301-1.033,6.973-6.924c-0.144-2.595-1.091-3.683-2.3-4.849c-2.511-2.422-6.518-3.529-10.479-7.564
	c-1.271-1.294-1.986-2.341-2.731-3.479c-0.793-1.214-1.555-1.464-1.123-2.531c0.358-0.883,1.583-0.761,3.582-2.387
	c1.588-1.29,1.604-0.785,2.578-0.267c1.065,0.57,3.118,0.405,3.766,0.399c0.947-0.009,2.46,0.302,3.349-2.52
	c0.395-1.252,0.574-1.996,0.587-2.621c0.029-1.541-1.141-2.715-3.891-4.311c-1.146-0.668-2.352-1.635-3.464-2.411
	c-1.778-1.242-2.229-2.049-3.011-2.701c-1.092-0.91-1.783-1.515-2.3-2.2c-0.677-0.896-0.848-1.126-1.016-0.212
	c-0.092,0.501-0.33,1.484-0.349,1.59c-0.506,2.85-1.255,4.726-2.661,6.953c-1.538,2.436-3.246,3.739-4.917,5.003
	c-2.082,1.578-4.637,1.841-2.858,6.408c1.172,3.013,3.621,6.704,7.398,8.832c2.625,1.478,4.231,3.113,6.196,3.955
	c2.059,0.882,3.012,1.503,2.865,2.17c-0.151,0.688-1.082,1.218-2.604,1.218c-2.328,0-6.28-0.004-7.952-0.333
	c-2.505-0.492-3.03-0.061-1.716,4.983c1.014,3.891,2.897,8.643,5.879,12.655c2.32,3.121,5.067,5.762,7.332,7.068
	c3.08,1.775,2.038,3.653-1.719,3.653c-1.686,0-3.301-0.297-4.83-0.789c-0.845-0.272-1.178-0.358-1.039,1.542
	c0.157,2.135,0.311,7.816-0.193,9.944c-1.023,4.317-2.463,1.878-3.547,0.343c-1.427-2.022-2.69-5.512-3.399-7.783
	c-1.313-4.205-0.585-5.302-3.206-4.166c-1.628,0.708-5.181,2.43-6.087,2.402c-1.092-0.034-1.572-1.054-1.096-2.702
	c2.035-7.037,2.308-9.042,2.269-16.503c-0.024-4.584-0.553-8.018-1.486-9.939c-0.524-1.079-0.615-1.685-1.668-0.903
	c-1.796,1.334-2.972,2.559-5.494,3.494c-1.123,0.415-2.209,1.307-3.964,1.223c-2.155-0.104-0.917-2.54,1.143-5.065
	c1.563-1.918,2.578-4.172,3.758-5.989c0.949-1.461,1.243-2.58,1.368-3.34c0.481-2.933,1.439-4.807-0.556-6.72
	c-2.614-2.507-5.829-2.449-9.656-4.721c-1.458-0.864-1.448-2.36-0.443-3.874c0.904-1.362,1.728-2.656,2.571-3.76
	c0.757-0.989,0.803-1.87,0.629-2.642c-0.297-1.323-0.468-1.676-0.817-2.61c-0.372-0.998-0.449-1.33-1.222-0.951
	c-2.104,1.03-4.501,2.772-5.684,3.645c-2.435,1.797-2.259,2.503-3.257,3.443c-1.4,1.316-2.044,2.772-2.056,4.846
	c-0.017,2.744,1.191,4.551,2.537,5.943c2.182,2.256,4.113,1.985,6.207,2.853c2.228,0.922,3.998,2.544,4.013,4.89
	c0.013,1.852-2.492,5.689-2.986,6.417c-0.333,0.488-0.323,1.044-0.539,1.347c-0.191,0.271-0.604,0.287-0.932,0.678
	c-2.162,2.57-3.165,5.137-3.091,7.511c0.117,3.78,3.126,5.202,4.986,5.202c2.456,0,2.575-0.977,6.797-0.977
	c3.733,0,4.777,1.045,4.788,2.73c0.017,2.308-0.982,5.61-2.735,9.164c-1.285,2.608-2.412,4.049-4.337,6.796
	c-2.216,3.162-4.589,5.898-4.534,9.753c0.047,3.229,1.903,5.729,5.731,5.729c3.326,0,6.538-2.224,9.095-4.162
	C92.741,493.509,94.672,494.139,96.183,494.824z"/>
<path d="M553.727,418.21c-3.176-3.502-4.503-3.533-6.86-4.866c-3.545-2.002-3.487-3.605-4.084-5.6
	c-0.368-1.235-0.92-2.59-1.235-3.694c-0.801-2.805-0.1-5.024,0.725-6.983c1.529-3.627,2.968-2.944,6.275-3.277
	c4.666-0.47,5.06-2.229,5.876-4.404c1.019-2.724,0.559-3.664-0.589-5.612c-3.382-5.747-12.266-8.74-14.709-13.351
	c-0.654-1.237-1.473-3.495-0.812-5.02c1.44-3.314,5.245-3.439,6.565-3.623c4.335-0.603,5.391-3.09,5.499-5.82
	c0.087-2.131,0.227-3.283-1.247-4.757c-1.512-1.513-2.452-1.563-3.248-2.376c-1.193-1.215-1.747-0.982-2.543-1.632
	c-1.363-1.113-3.161-2.152-4.011-2.869c-1.455-1.231-2.771-2.264-2.724-4.739c0.098-4.964,1.928-6.954,1.56-14.833
	c-0.109-2.346-0.494-2.371-1.158-0.79c-0.636,1.509-1.459,2.067-2.369,3.419c-1.691,2.51-3.716,5.622-5.636,7.938
	c-1.464,1.765-3.164,3.739-4.838,5.696c-0.792,0.928-1.282,1.754-2.014,2.644c-1.013,1.23-2.222,2.494-2.958,3.52
	c-0.536,0.749-1.067,1.012-0.229,1.53c1.96,1.211,5.139,2.565,6.679,4.441c1.051,1.276,2.198,3.184,0.954,4.226
	c-1.703,1.426-3.35,3.179-5.159,3.695c-3.066,0.876-2.532-0.106-3.97-6.87c-0.801-3.771-1.266-3.841-1.937-3.043
	c-0.543,0.645-1.149,1.351-1.787,2.08c-0.773,0.883-1.624,1.474-2.45,2.374c-1.403,1.528-2.788,3.328-3.973,4.448
	c-2.336,2.206-3.931,4.683-5.685,6.451c-1.02,1.029-2.233,2.077-2.201,2.9c0.043,1.054,0.919,1.793,5.382,1.882
	c0.6,0.012,4.979-1,5.662-1.019c1.039-0.027,2.291,0.605,2.291,2.915c0,2.486-1.769,5.13-2.707,6.497
	c-2.953,4.306-6.806,7.894-6.782,14.656c0.006,1.809,1.486,5.193,2.438,6.282c1.51,1.728,3.792,2.5,5.647,2.532
	c1.744,0.03,3.077-0.622,4.011-0.772c5.727-0.914,9.391-3.44,9.432,1.663c0.012,1.236-0.552,6.468-0.649,8.158
	c-0.33,5.714,1.115,9.647,2.951,11.994c1.979,2.53,3.021,2.733,5.35,2.749c2.268,0.015,4.136-1.029,7.752-2.496
	c3.725-1.515,5.464-0.185,5.809,1.429c0.392,1.852-2.842,5.507-4.787,6.827c-4.135,2.809-4.87,5.872-5.002,10.285
	c-0.044,1.437,0.523,3.254,1.007,4.821c0.4,1.299-0.546,3.548-1.881,4.267c-3.052,1.64-3.676,5.581-4.065,8.406
	c-0.427,3.086-2.052,5.99-2.313,8.181c-0.415,3.497-0.25,6.747-0.247,9.224c0.006,4.126,1.431-0.219,1.468,4.882
	c0.038,5.151-3.503,2.255-6.482,5.592c-1.183,1.328-1.681,2.918-3.42,2.818c-1.471-0.086-1.825-1.27-2.367-2.669
	c-1.292-3.319-3.056-4.37-5.04-4.343c-1.31,0.021-3.108,0.31-3.643,0.308c-1.83-0.012-2.869-1.762,0.103-5.268
	c1.945-2.299,3.27-2.774,6.478-7.146c1.185-1.618,0.697-1.521,2.82-3.759c3.979-4.204,4.571-5.739,4.571-9.168
	c0-2.564-1.198-3.914-2.675-4.916c-0.887-0.602-2.548-0.672-3.972-1.166c-1.654-0.573-2.043-1.864,0.44-3.345
	c3.028-1.806,5.513-3.747,6.613-5.232c1.868-2.531,2.4-4.801,2.454-7.476c0.05-2.454-0.967-4.924-1.974-5.732
	c-3.657-2.933-5.179-5.045-6.891-7.969c-1.149-1.962-0.969-3.052-2.097-2.25c-0.971,0.685-2.452,0.966-3.033,0.996
	c-2.068,0.107-2.609-1.145-3.205-2.065c-1.404-2.164-2.65-3.596-3.8-5.198c-1.078-1.506-1.734-2.763-2.581-4.022
	c-1.219-1.808-2.526-3.495-3.457-4.831c-0.78-1.122-0.989-2.15-2.908-1.498c-3.012,1.024-6.265,1.623-8.607,1.684
	c-6.649,0.179-9.51-4.567-10.611-6.081c-1.222-1.681-0.842-3.815-0.014-6.363c0.664-2.043,1.559-4.491,2.584-6.148
	c5.594-9.029,13.755-18.025,21.524-26.181c8.872-9.316,15.956-17.118,22.933-25.92c7.582-9.566,11.965-18.352,14.808-27.265
	c1.514-4.745,2.167-9.02,1.762-13.359c-0.348-3.728-1.045-4.228-3.809-7.366c-1.614-1.833-3.57-4.044-5.548-5.876
	c-0.342-0.317-0.762-0.471-1.095-0.767c-0.787-0.701-1.462-1.491-2.144-2.032c-3.142-2.493-7.387-5.781-9.763-7.245
	c-1.551-0.955-2.598-1.964-3.111-0.796c-1.941,4.422-5.22,11.585-6.818,14.563c-0.551,1.03-1.189,2.125-0.397,2.935
	c2.152,2.194,3.57,3.066,5.023,4.518c2.061,2.061,1.546,0.887,3.146,2.669c1.634,1.823,3.002,3.838,4.104,5.441
	c1.464,2.123,1.764,2.699,1.309,4.121c-0.871,2.7-3.168,6.556-5.095,9.085c-1.456,1.914-3.825,4.939-5.723,7.045
	c-0.481,0.538-0.782,1.19-1.182,1.667c-5.112,6.068-11.383,12.839-17.561,19.098c-2.578,2.614-5.361,5.232-7.89,7.956
	c-0.547,0.588-0.911,1.181-1.45,1.779c-1.998,2.224-4.24,4.405-5.953,6.69c-0.539,0.718-0.908,1.665-1.467,2.395
	c-0.934,1.22-2.05,2.231-2.837,3.465c-2.757,4.315-5.548,8.006-7.594,12.796c-1.072,2.509-2.823,6.582-2.853,9.734
	c-0.056,6.349,2.213,13.461,5.021,18.673c1.301,2.42,2.641,5.82,6.539,10.158c1.065,1.183,2.012,2.325,3.051,3.263
	c2.052,1.851,5.166,2.9,7.298,3.804c3.802,1.612,6.637,2.225,10.109,2.252c2.894,0.023,7.729-0.891,9.646-1.241
	c0.745-0.136,1.337,0.385,1.349,1.047c0.03,1.695-1.816,3.312-1.816,6.27c0,4.213,3.129,5.021,7.178,5.954
	c2.724,0.63,3.981,1.927,4.026,3.542c0.044,1.615-1.155,3.608-2.419,4.545c-3.428,2.534-7.954,1.849-11.544,6.064
	c-2.24,2.634-1.684,7.403-1.159,8.938c0.604,1.771,0.792,2.403,1.934,2.397c2.502-0.008,4.558,1.049,5.911,1.841
	c2.522,1.475,3.381,3.05,1.559,5.358c-0.579,0.732-1.406,1.77-2.798,3.081c-0.484,0.457-1.039,0.726-1.629,1.236
	c-1.054,0.91-2.225,2.108-3.322,3.07c-2.134,1.872-5.261,3.499-5.314,7.486c-0.015,1.103,0.469,2.058,0.763,2.761
	c1.238,2.939,4.717,4.071,9.398,6.109c3.326,1.448,3.762,3.194,2.844,5.194c-2.427,5.285-4.453,9.848-4.44,14.121
	c0.008,2.549,0.568,4.523,2.797,7.079c2.334,2.67,6.721,3.902,7.658,3.9c2.979-0.001,4.41-1.124,5.648-2.065
	c2.496-1.901,2.555-4.399,4.491-4.364c2.24,0.043,3.509,5.294,3.427,6.087c-0.776,7.395-1.808,8.081-5.136,8.098
	c-4.021,0.018-3.434-2.068-4.943-2.021c-1.799,0.056-2.338,0.554-6.098,0.525c-4.399-0.032-4.23-1.39-4.965,0.825
	c-0.918,2.766-1.471,12.197-1.477,14.992c-0.003,1.661-0.184,3.065-1,3.867c-0.438,0.433-1.421,1.292-3.319-0.333
	c-1.967-1.689-3.363-4.416-3.654-7.106c-0.223-2.025,0.135-3.407-1.961-2.018c-2.321,1.543-6.744,4.057-7.952,4.037
	c-1.366-0.023-2.171-1.56-2.111-2.596c0.165-2.882,3.151-5.417,3.695-6.067c1.059-1.271,0.55-2.167-0.302-2.366
	c-3.294-0.771-6.805-4.345-8.612-5.806c-1.615-1.308-0.188-2.424,0.565-2.409c5.012,0.106,12.341-0.011,15.615-1.058
	c1.577-0.505,0.42-1.453,0.21-3.432c-0.073-0.706-0.161-2.338-0.188-3.281c-0.136-4.958,2.318-12.734,3.631-15.866
	c0.93-2.227,0.536-2.74-1.293-2.837c-1.105-0.058-2.72-1.23-3.958-1.744c-1.427-0.592-2.16,0.477-2.483,1.228
	c-1.896,4.399-1.551,7.153-1.495,12.126c0.057,4.995-1.859,6.253-3.615,6.788c-0.942,0.286-1.916,0.576-2.938,0.577
	c-3.275,0.008-2.99-2.112-2.474-3.82c1.162-3.853,0.756-6.977,0.715-9.634c-0.041-2.701-0.379-4.973-5.237-6.583
	c-2.443-0.809-5.128-2.513-6.789-3.508c-1.81-1.088-2.303-2.074-1.237-3.587c1.159-1.646,2.958-3.828,4.273-5.288
	c2.775-3.083,6.671-7.854,9.4-11.747c1.366-1.946,3.107-4.041,3.981-4.909c0.507-0.504,1.055-0.93,1.557-1.357
	c1.415-1.205,1.73-1.826,2.701-2.576c1.733-1.334-0.022-1.616-0.993-2.104c-1.855-0.931-3.197-0.033-4.017,0.571
	c-1.509,1.11-4.192,4.281-5.912,6.325c-3.969,4.717-12.027,14.706-14.293,17.312c-2.184,2.513-2.857,2.04-3.78,1.038
	c-1.925-2.09-1.281-2.759-3.428-5.498c-0.864-1.105-1.162-3.17-0.357-5.053c0.637-1.492,1.462-2.618,2.903-4.577
	c1.41-1.918,1.451-2.525,2.455-3.753c0.505-0.62,1.093-1.2,1.646-1.854c1.227-1.451,2.488-2.854,3.792-4.226
	c0.448-0.475,0.671-1.068,1.132-1.536c3.891-3.941,8.395-7.517,13.238-11.283c0.881-0.686,1.802-1.449,2.677-2.061
	c0.751-0.523,1.468-0.901,2.144-1.375c0.918-0.645,1.653-1.25,2.476-1.814c1.606-1.109,2.962-2.079,4.25-2.965
	c0.339-0.234,0.632-0.635,0.903-0.817c1.139-0.771,1.501-1.225,0.822-1.732c-0.386-0.284-0.86-0.293-1.205-0.317
	c-1.184-0.082-2.072,0.945-3.11,1.329c-2.014,0.744-6.192,3.894-8.269,5.178c-2.398,1.481-5.058,3.696-7.649,5.721
	c-4.464,3.488-8.348,6.899-12.531,10.923c-1.246,1.197-1.738,2.593-2.864,3.823c-1.41,1.541-2.088,2.935-2.989,4.577
	c-1.055,1.922-2.276,4.091-3.199,5.855c-1.897,3.634-1.569,5.818,0.945,9.909c2.649,4.312,4.844,5.843,6.392,8.19
	c5.974,9.06,4.878,12.075,4.218,18.441c-0.809,7.796-3.824,16.764-9.467,23.835c-3.196,4.004-2.03,4.679-10.667,7.442
	c-6.372,2.039-14.009,4.001-21.12,5.297c-8.518,1.556-17.596,3.071-20.245,3.316c-8.878,0.815-21.183,2.672-33.544,4.438
	c-14.663,2.096-28.81,5.031-41.215,8.375c-3.587,0.967-2.242,0.149-3.94,0.647c-4.88,1.43-10.054,2.575-14.378,4.471
	c-2.316,1.015-3.556,1.694-6.202,0.277c-8.824-4.725-27.175-8.411-34.313-9.713c-6.341-1.152-11.885-1.959-20.106-3.459
	c-8.945-1.628-20.467-3.13-28.232-4.358c-8.221-1.299-15.74-2.518-22.612-4.129c-6.432-1.507-14.749-4.221-24.401-9.767
	c-3.504-2.016-7.331-5.229-10.259-7.322c-2.154-1.538-4.354-3.616-6.135-5.182c-2.829-2.487-2.919-3.536-3.466-6.03
	c-1.537-7.011-1.338-12.395,0.036-18.232c0.825-3.501,1.486-6.855,3.833-10.608c3.084-4.428,6.059-6.478,8.234-11.417
	c0.664-1.505,0.933-3.141,0.883-4.909c-0.028-0.99-0.042-2.422-0.417-2.931c-0.987-1.337-1.063-2.829-1.791-3.741
	c-1.797-2.252-4.063-4.754-5.443-6.42c-1.22-1.473-2.991-2.805-4.349-3.889c-2.422-1.936-2.724-2.927-3.13-3.285
	c-3.085-2.733-5.769-4.356-9.019-7.145c-0.87-0.746-2.372-1.354-3.236-2.035c-5.312-4.195-10.636-7.357-13.529-8.56
	c-1.029-0.428-1.27,0.117-1.349,0.522c-0.215,1.113-0.178,1.408,1.379,2.278c0.607,0.338,0.705,0.832,0.996,1.002
	c1.189,0.699,4.633,2.108,8.054,4.855c0.788,0.631,1.575,0.799,2.406,1.384c2.239,1.572,4.558,3.542,6.799,5.325
	c4.109,3.267,6.767,6.231,10.423,9.923c3.361,3.394,5.88,7.867,7.677,10.59c0.886,1.343,1.091,2.317,0.832,3.898
	c-0.569,3.478-2.99,7.156-3.193,7.471c-1.082,1.679-1.922,1.793-3.084,0.391c-0.65-0.785-1.529-2.914-2.62-4.17
	c-1.336-1.543-1.815-2.398-2.775-3.828c-0.911-1.355-2.162-2.915-3.934-4.602c-1.496-1.422-3.42-4.147-5.284-5.482
	c-1.807-1.289-3.901-3.639-5.883-5.284c-2.554-2.117-4.95-3.482-6.443-4.495c-1.066-0.721-1.515-0.641-1.669,0.027
	c-0.203,0.87-0.616,2.255,0.08,2.711c2.578,1.692,5.85,4.592,9.117,7.737c4.284,4.123,10.148,11.377,14.023,17.866
	c1.008,1.687,2.467,3.892,2.483,5.216c0.016,1.275-0.947,1.811-1.343,2.951c-0.514,1.476-1.146,2.405-2.127,3.057
	c-1.578,1.049-4.23,2.707-7.113,2.707c-2.112,0-2.714,0.411-2.975,1.886c-1.819,10.254-0.469,11.576-0.625,13.879
	c-0.178,2.629-1.846,2.781-3.768,2.881c-5.972,0.31-7.85-3.578-7.825-5.322c0.033-2.322,1.376-4.35,2.799-6.595
	c1.459-2.306,2.814-2.857,2.689-6.285c-0.074-2.046-1.705-3.916-3.867-3.867c-2.316,0.053-4.461,0.27-6.42,0.639
	c-1.022,0.191-2.177,0.659-1.82,1.752c0.841,2.574,1.608,5.846,1.623,8.761c0.027,5.462-1.192,9.95-2.43,12.901
	c-0.926,2.207-0.854,2.735,0.449,3.137c5.551,1.703,9.519,1.752,11.465,1.777c3.498,0.043,2.316,1.655,2.12,1.869
	c-2.264,2.498-4.288,3.228-5.774,4.394c-0.699,0.548-1.246,1.277-0.647,2.221c1.395,2.2,2.002,2.723,2.986,4.289
	c0.475,0.753,2.508,2.64,4.251,4.19c1.443,1.286,3.317,2.635,4.376,2.995c3.061,1.047,9.552,2.111,12.548,2.223
	c2.203,0.081,2.896,0.476,2.65,1.442c-0.095,0.367-0.5,0.855-0.839,1.148c-0.334,0.29-0.718,0.202-1.151,0.457
	c-0.429,0.252-0.702,0.665-1.186,0.898c-0.621,0.303-1.466,0.436-2.078,0.702c-0.54,0.233-0.854,0.607-1.369,0.773
	c-1.089,0.345-2.108,0.487-2.434,0.591c-2.39,0.758-1.983,0.933-1.502,2.027c0.635,1.442,1.177,2.358,1.826,4.283
	c0.884,2.612,1.215,3.138,1.235,4.497c0.032,2.142-1.414,2.149-2.375,1.646c-2.95-1.547-5.58-3.198-7.052-4.889
	c-2.15-2.472-2.867,0.717-4.053,2.576c-2.24,3.513-3.631,3.525-4.43,0.773c-0.425-1.455-0.772-5.67-0.763-8.061
	c0.018-4.146-0.962-6.726-1.833-8.345c-0.429-0.796-0.842-1.193-1.075-1.758c-1.361-3.29-3.874-5.417-5.566-6.877
	c-1.026-0.888-1.608-1.043-1.859,0.008c-0.518,2.172-1.804,4.469-2.259,5.713c-0.709,1.935-1.555,2.88-2.361,2.894
	c-0.976,0.017-1.872-1.233-2.08-2.582c-0.506-3.286-1.189-3.582-1.354-4.759c-0.415-2.965-1.459-5.038-2.2-7.56
	c-0.433-1.469-0.897-1.815-2.524-2.014c-0.934-0.111-2.179-0.403-2.908-0.592c-3.599-0.926-4.506-3.053-6.426-4.08
	c-0.646-0.344-1.311-1.232-2.317-0.122c-0.518,0.573-1.254,0.737-1.694,1.367c-1.848,2.651-4.201,2.92-4.155,0.63
	c0.037-1.818,1.042-5.121,1.228-8.209c0.198-3.307,0.868-4.827,0.839-5.881c-0.102-3.51-0.782-3.879-1.721-4.579
	c-1.585-1.182-1.82,0.063-2.447,1.051c-1.653,2.601-3.358,4.411-4.491,6.64c-2.198,4.334-2.793,7.341-3.021,10.489
	c-0.301,4.137,1.484,7.519,5.479,9.571c3.9,2.002,5.99,1.536,9.03-0.565c2.966-2.053,4.997-2.654,7.127-2.239
	c2.505,0.486,2.399,5.628,1.81,9.134c-0.825,4.893-1.022,11.437-0.416,13.35c1.413,4.455,4.491,4.843,6.386,4.816
	c2.033-0.029,3.485-0.385,6.288-3.589c1.74-1.984,2.562-3.675,4.916-3.658c4.086,0.031,3.057,7.318,2.941,11.325
	c-0.135,4.748-0.042,7.981,1.363,10.12c2.061,3.14,3.353,3.558,6.074,3.443c3.517-0.148,5.396-1.762,7.568-4.499
	c1.197-1.507,2.178-2.188,4.109-2.176c3.363,0.021,3.636,1.202,5.099,2.806c1.144,1.259,1.532,0.887,2.195,0.164
	c2.709-2.953,5.287-5.33,7.344-7.658c1.1-1.243,1.248-1.325,1.235-2.206c-0.02-1.509-0.38-3.022-0.345-4.454
	c0.024-0.98,0.278-1.911,0.637-2.866c1.584-4.231,4.367-5.208,6.354-7.109c1.769-1.691,2.168-3.038,2.16-4.61
	c-0.007-1.25-0.607-2.302-0.685-3.236c-0.299-3.669-6.428-4.409-9.062-4.527c-2.275-0.104-5.48,1.026-10.63,1.052
	c-2.369,0.012-3.839-0.184-5.418-1.321c-1.717-1.237-2.018-2.019-2.034-2.989c-0.036-2.313,1.763-3.351,2.761-3.854
	c4.07-2.051,7.469-2.404,9.405-3.6c1.165-0.718,2.112-1.346,3.388-0.22c1.4,1.236,2.93,2.666,4.616,4.075
	c2.05,1.709,3.421,3.148,5.658,4.768c3.065,2.219,7.009,4.513,9.707,5.881c12.484,6.329,23.668,8.823,39.42,12.308
	c0.465,0.102,0.228-0.514,0.694-0.408c3.786,0.847,7.712,1.667,11.444,2.633c0.81,0.21,0.467-0.325,1.183-0.06
	c3.805,1.408,10.051,2.216,16.09,3.221c7.61,1.268,15.103,2.462,20.628,3.34c1.564,0.249,1.647,0.673,2.54,0.82
	c0.893,0.146,1.935-0.054,2.658,0.073c9.857,1.699,12.206,1.278,23.6,4.222c3.037,0.783,5.947,1.672,8.63,2.712
	c0.619,0.241,1.145,0.723,1.738,0.98c2.061,0.888,4.046,1.646,5.737,2.764c5.585,3.69,10.184,5.085,13.624,7.326
	c0.791,0.517,0.903-0.172,1.641,0.261c1.422,0.837,2.057,1.012,2.786,1.757c1.347,1.374,3.088,1.676,4.409,2.665
	c4.211,3.147,8.585,5.931,12.06,8.625c2.084,1.616,2.507,1.717,3.788,1.765c3.399,0.126,1.547-0.922,0.913-1.513
	c-0.752-0.693-1.538-1.502-2.864-2.424c-1.065-0.739-2.665-1.569-3.474-2.328c-1.608-1.509-4.114-3.128-5.725-4.07
	c-1.411-0.824-3.401-2.179-3.029-3.438c0.232-0.783,1.419-1.22,3.471-1.727c3.307-0.819,7.982-2.168,12.597-2.873
	c8.088-1.237,25.542-3.839,42.666-5.467c3.903-0.371,7.765-0.934,11.529-1.336c4.322-0.462,8.479-0.78,11.713-1.529
	c9.084-2.11,8.06-2.718,9.687-4.565c2.396-2.722,0.848-2.308-0.55-1.777c-4.647,1.768-8.346,1.598-12.838,2.258
	c-11.908,1.747-23.771,3.259-35.704,4.944c-7.078,1.003-13.34,1.783-20.54,2.972c-7.126,1.179-15.142,2.685-20.782,4.311
	c-1.49,0.431-3.813,0.216-5.065,0.608c-1.39,0.433-2.818,1.39-4.55,0.212c-0.782-0.532-1.743-0.123-3.349-1.157
	c-2.289-1.476-5.384-2.609-6.255-3.373c-1.251-1.097-4.038-1.795-1.29-3.101c3.867-1.835,7.577-3.013,9.941-3.939
	c1.387-0.546,1.405,0.137,2.82-0.426c1.749-0.69,3.544-1.161,6.186-1.847c11.656-3.032,30.107-4.924,42.233-6.306
	c11.082-1.262,22.873-2.748,33.524-4.665c6.826-1.229,12.635-2.636,19.299-4.273c7.021-1.726,5.067-2.093,9.125-3.249
	c6.334-1.806,12.3-3.56,14.929-4.743c2.06-0.927,2.86,0.452,2.185,1.419c-1.707,2.443-1.982,4.586-2.042,5.445
	c-0.072,1.057,0.254,2.526,1.369,3.716c0.849,0.905,1.09,1.549,1.779,2.319c0.741,0.825,1.428,1.871,1.715,3.461
	c0.337,1.864,0.139,4.126,1.329,6.083c1.23,2.019,2.814,5.308,3.851,6.609c3.214,4.027,6.151-0.415,10.222-0.313
	c2.273,0.058,5.367,1.723,6.387,2.933c2.901,3.45,3.124,5.781,6.527,5.914c2.49,0.1,3.834-1.102,4.221-3.288
	c0.659-3.73,1.13-7.303,1.092-11.968c-0.035-4.616,1.902-7.065,4.06-6.913c2.14,0.148,2.398,1.222,3.606,1.24
	c2.248,0.034,2.517,0.635,3.746,1.495c2.855,1.992,4.24,2.479,6.378,0.909c1.801-1.324,3.66-3.742,4.279-8.435
	c0.468-3.546,0.573-6.339,0.396-10.991c-0.155-4.143,0.527-6.801,4.187-6.748c3.843,0.059,5.081,3.18,8.016,3.16
	c2.943-0.021,6.026-2.315,7.235-3.551c3.133-3.193,2.23-9.224,0.831-13.917c-1.381-4.62-3.96-9.668-8.883-12.495
	c-4.304-2.469-3.462-3.523-3.477-5.35c-0.036-4.452,1.371-6.103,2.329-6.682c3.408-2.055,6.301,1.177,6.65,1.519
	c3.308,3.215,5.796,3.963,8.317,3.986c2.688,0.025,5.578-1.511,6.723-3.544c0.8-1.423,1.238-3.235,1.21-5.56
	c-0.059-5.227-1.339-7.092-2.997-9.636c-1.142-1.747,0.034-1.233-0.669-2.442c-0.888-1.521-2.097-3.908-3.294-5.474
	c-1.777-2.324-3.466-3.792-3.507-5.691c-0.083-3.722,4.184-5.108,6.099-5.126c2.709-0.027,5.533,1.119,7.47,1.105
	c2.813-0.024,3.282-2.702,3.273-3.365c-0.012-0.955-0.145-2.417-0.614-3.066c-2.227-3.081-1.571-3.623-5.29-8.443
	c-2.863-3.708-2.725-7.116-1.316-9.747c1.199-2.245,4.338-3.706,9.393-4.468c3.468-0.524,4.109-1.702,4.074-4.641
	C560.299,427.866,557.648,422.54,553.727,418.21z M535.825,386.623c-0.988,1.589-2.979,2.753-3.982,4.024
	c-1.328,1.678-1.94,2.102-3.041,1.944c-2.132-0.306-4.069-0.77-5.354-0.783c-2.025-0.022-6.803,0.963-6.845-2.069
	c-0.017-1.332,0.828-2.685,1.557-4.024c1.604-2.944,3.997-5.83,5.024-8.336c1.343-3.277,1.411-6.746,2.698-7.934
	c1.363-1.259,3.323,0.669,4.998,2.204c1.469,1.346,2.619,2.858,2.865,3.139c1.117,1.277,1.827,3.978,2.218,5.683
	C536.459,382.647,537.212,384.393,535.825,386.623z M488.232,549.112c-0.462,3.126-2.05,3.101-1.673,5.719
	c0.361,2.543-2.317,3.474-1.46,4.433c0.464,0.522,0.603,0.396,0.541,2.892c-0.028,1.052-0.207,3.254-0.721,4.383
	c-1.103,2.433-2.81,1.354-3.944,0.052c-1.933-2.216-2.537-5.284-3.078-6.189c-0.459-0.768-0.756-0.356-1.917,0.067
	c-2.19,0.799-4.947,2.365-7.801,2.736c-1.783,0.23-2.788-0.529-1.111-3.16c1.008-1.583,2.731-4.296,3.053-4.888
	c0.625-1.155,0.15-1.376-0.993-1.781c-2.345-0.831-4.407-1.151-6.014-2.937c-1.382-1.538,0.749-2.55,2.308-2.55
	c2.699,0,6.189-0.532,8.912-1.17c2.187-0.51,3.61-0.992,5.766-2.023c1.542-0.738,2.589-2.17,5.026-0.194
	C487.777,546.65,488.512,547.207,488.232,549.112z"/>
<path d="M323.314,598.937c-1.536-0.912-0.828,0.255-1.822-0.473c-4.835-3.558-16.207-8.771-20.809-11.033
	c-1.818-0.895-3.105-1.144-5.319-2.05c-2.645-1.082-2.818-1.465-4.109-1.959c-11.307-4.326-12.875-3.74-20.537-5.607
	c-6.111-1.489-14.598-2.988-22.001-4.262c-9.027-1.552-17.52-3.189-23.341-3.906c-3.51-0.434-10.517-1.566-16.973-2.982
	c-2.383-0.522-3.636-0.217-5.536-0.646c-2.312-0.524-6.408-1.515-9.833-3.298c-2.058-1.07-1.344,0.585,0.83,1.91
	c3.254,1.985,9.185,4.384,19.397,5.383c6.248,0.609,8.633,1.054,21.462,3.609c8.39,1.672,16.506,3.137,24.112,4.62
	c5.163,1.007,12.948,2.322,18.235,3.892c3.564,1.057,3.648,1.69,3.188,2.722c-0.274,0.615-0.846,0.861-1.868,1.501
	c-1.382,0.863-2.449,1.915-4.253,3.212c-2.48,1.782-4.423,2.344-8.06,5.271c-1.583,1.275-0.542,1.255,0.294,1.865
	c0.116,0.084,1.589,0.722,2.521,1.111c0.95,0.398,1.402,0.266,2.907-0.851c1.635-1.212,3.578-2.729,5.832-4.211
	c0.98-0.646,2.401-1.273,3.439-1.876c0.758-0.44,1.151-0.877,1.82-1.269c1.034-0.608,2.002-1.146,2.849-1.572
	c1.14-0.574,3.221-2.122,5.432-1.078c2.682,1.267,4.58,1.313,7.274,2.733c0.425,0.225,3.013,1.296,0.692,2.878
	c-0.929,0.636-2.562,1.515-4.424,2.545c-1.199,0.666-2.066,1.396-3.33,2.163c-2.522,1.532-4.925,3.231-6.495,4.861
	c-0.675,0.7-0.701,0.989-0.047,1.459c0.651,0.47,2.346-0.033,3.557-0.892c1.315-0.935,3.377-2.26,5.345-3.382
	c3.188-1.818,8.496-4.494,10.69-5.555c0.792-0.386,1.524-0.537,2.206-0.515c1.189,0.041,1.398,0.267,2.504,0.862
	c1.379,0.74,3.837,1.941,5.09,2.746c0.829,0.531,3.449,1.924,5.579,3.196c1.371,0.818,2.61,0.523,3.734,0.469
	C324.625,600.477,325.774,600.396,323.314,598.937z"/>
<path d="M494.525,288.529c3.04,2.271,5.817,4.383,9.206,6.362c3.886,2.273,6.596,4.715,3.864,5.182
	c-0.619,0.105-2.004,0.717-3.227,0.664c-1.739-0.073-3.919-0.241-5.398-0.559c-1.925-0.413-2.759-0.714-1.866,0.709
	c2.842,4.522,4.186,7.648,4.494,10.915c0.084,0.902,0.045,1.616-0.274,1.918c-1.381,1.313-6.196-2.77-11.588-7.253
	c-0.795-0.662-0.915-0.499-1.534,0.232c-1.102,1.299-2.184,4.518-3.975,5.555c-1.188,0.689-1.854,0.879-1.526-3.588
	c0.501-6.855,0.135-12.085-2.28-16.254c-0.853-1.476-1.829-5.04-4.279-2.57c-1.434,1.445-5.461,4.123-8.163,6.005
	c-1.719,1.199-4.257,2.87-5.456,3.746c-1.193,0.872-1.384,1.021-0.002,2.182c0.571,0.479,2.043,1.739,5.071,1.773
	c2.444,0.028,5.127-0.328,6.362-0.619c1.429-0.338,1.354,0.409,1.233,1.237c-0.169,1.174-0.787,2.738-1.915,5.204
	c-0.907,1.978-2.464,5.634-2.497,6.251c-0.038,0.68,0.708,1.435,1.353,1.934c1.841,1.433,4.689,3.265,7.335,4.113
	c3.838,1.229,4.998-0.338,5.065,1.405c0.071,1.866-1.031,3.099-1.691,7.308c-0.445,2.864-0.943,5.796-0.716,8.42
	c0.145,1.698,0.262,3.751,1.374,4.006c0.864,0.201,2.437-0.882,4.396-2.803c2.61-2.561,8.091-7.088,10.887-10.155
	c4.1-4.496,7.671-8.77,11.195-13.748c1.543-2.18,2.51-2.497,3.873-4.779c1.114-1.861,2.301-3.858,3.204-5.835
	c0.772-1.683-0.337-2.501-2.047-4.297c-1.471-1.544-3.128-3.101-4.778-4.957c-0.379-0.429-0.395-0.847-0.821-1.313
	c-1.53-1.67-3.497-3.717-5.801-5.864c-0.885-0.826-0.727-1.9-0.283-3.293c0.25-0.789-0.484-0.826-0.515-2.444
	c-0.039-2.148,0.603-5.097,0.603-7.002c0-5.351-0.913-7.643-2.218-8.693c-1.075-0.866-3.586-2.372-5.168-0.808
	c-2.818,2.787-6.134,8.359-8.592,11.342c-1.506,1.831-0.996,2.217-0.432,3.242C487.153,281.682,490.724,285.69,494.525,288.529z
	 M493.955,329.606c-0.122,1.76-0.287,3.77-1.629,4.368c-1.637,0.728-2.034-0.808-3.338-1.996c-0.659-0.602-1.887-1.369-2.115-1.708
	c-1.012-1.506,0.378-3.231,1.335-4.903c1.31-2.291,2.298-4.221,3.952-2.142C493.946,325.467,494.145,326.798,493.955,329.606z"/>
<path d="M167.82,212.482c1.958,1.03,7.868,2.79,13.043,2.744c4.674-0.041,10.301-0.636,14.597-2.336
	c3.168-1.253,6.18-2.962,8.588-4.314c2.485-1.395,4.342-2.429,6-3.48c10.162-6.444,13.292-11.385,14.44-16.637
	c0.521-2.388,0.747-5.653,1.121-8.711c0.5-4.101,1.96-3.789,5.02-3.434c4.087,0.476,11.938,3.11,17.977,5.021
	c6.637,2.102,12.442,5.52,16.602,7.249c1.075,0.447,1.899,1.074,4.112,0.771c0.561-0.078,1.8-0.328,2.223-0.418
	c1.446-0.307,0.907-0.724-0.923-1.679c-1.37-0.716-2.734-1.767-5.853-3.102c-8.287-3.546-17.624-7.092-21.524-8.291
	c-2.031-0.625-4.154-1.034-6.416-1.669c-5.332-1.495-5.179-1.982-6.384-2.159c-2.481-0.367-4.62-1.195-7.56-2.149
	c-0.998-0.324-0.643-0.659-2.152-0.858c-1.349-0.177-2.457-0.537-3.905-0.904c-0.729-0.185-1.53-0.116-2.386-0.215
	c-0.476-0.055-0.815-0.405-1.476-0.656c-0.724-0.273-1.764-0.454-2.114-0.665c-1.128-0.676-0.776-1.436,0.567-1.953
	c1.017-0.39,1.5-1.465,3.764-2.635c1.255-0.648,3.189-1.777,4.764-1.83c0.534-0.018,0.725,0.291,1.479,0.275
	c0.564-0.011,1.303-0.297,1.886-0.281c0.746,0.019,1.15,0.656,2.196,0.717c2.021,0.116,5.824,1.141,8.222,1.651
	c5.785,1.23,10.078,3.009,12.804,3.816c2.934,0.87,9.094,3.339,14.513,5.823c2.657,1.22,5.429,2.379,7.736,3.521
	c3.8,1.884,6.693,3.586,8.357,4.401c1.233,0.605,2.143,0.592,2.632-0.387c0.6-1.199,0.149-1.654-1.094-2.271
	c-4.139-2.057-5.407-3.28-8.678-4.828c-2.838-1.343-6.047-3.133-9.091-4.384c-3.138-1.289-5.513-2.525-8.005-3.607
	c-1.877-0.815-3.808-1.466-6.245-2.42c-2.051-0.804-5.183-2.15-7.847-3.01c-3.793-1.226-8.741-3.36-13.729-4.225
	c-2.023-0.351-2.432-1.377-5.528,0.064c-0.882,0.41-2.035,0.432-2.923,0.764c-3.497,1.313-7.398,3.195-10.345,5.017
	c-0.518,0.32-0.921-0.012-1.435,0.316c-0.4,0.253,0.184,0.291-0.816,0.979c-0.636,0.437-1.305,0.537-1.803,1.079
	c-1.434,1.565-1.969,2.552-1.969,6.153c-0.002,4.578,1.266,4.959,1.282,10.452c0.024,8.15-0.248,10.602-2.897,16.832
	c-0.522,1.229-1.459,2.625-2.07,3.785c-0.283,0.537-0.928,1.023-1.217,1.421c-0.467,0.639-0.415,1.044-2.74,1.034
	c-1.064-0.004-2.362-0.171-3.954-0.556c-1.259-0.305-3.709-0.668-5.488-1.143c-2.518-0.671-4.181-1.411-5.23-0.222
	c-0.37,0.422-3,3.317-5.404,5.44c-2.012,1.778-4.315,3.149-5.818,4.643C165.895,211.848,167.078,212.092,167.82,212.482z"/>
<path d="M361.061,174.684c-1.009,0.555-1.69,0.731-2.624,1.243c-1.698,0.932-3.504,2.145-4.458,2.881
	c-0.553,0.426-1.945,1.156-1.28,2.126c0.711,1.032,2.449-0.088,2.996-0.499c2.729-2.047,5.775-3.619,8.512-5.035
	c0.903-0.468,1.778-0.727,2.63-1.168c1.243-0.646,2.466-1.467,3.909-2.089c2.41-1.04,4.965-2.1,7.755-3.315
	c0.81-0.352,1.501-0.218,2.293-0.537c3.977-1.598,13.494-4.539,17.706-5.677c2.771-0.749,4.927-1.331,7.516-1.299
	c2.443,0.03,3.699,0.402,6.261,1.622c1.715,0.816,3.749,1.965,3.74,3.173c-0.012,1.497-1.703,1.88-3.69,2.413
	c-2.631,0.705-6.165,1.672-8.166,2.396c-0.682,0.247-1.283,0.74-1.949,0.95c-2.481,0.779-3.774,1.255-6.183,2.138
	c-1.942,0.712-3.356,1.065-5.339,1.787c-1.556,0.566-3.208,1.26-4.831,1.948c-0.741,0.316-1.007,0.202-1.724,0.505
	c-1.233,0.52-3.085,1.404-4.143,1.786c-4.071,1.473-7.729,3.33-9.268,4.052c-1.645,0.77-2.073,1.245-0.739,1.559
	c1.097,0.257,1.823,0.58,2.927,0.798c2.107,0.413,2.404,0.232,3.831-0.45c3.936-1.882,8.234-3.347,12.645-5.13
	c7.952-3.214,12.844-4.755,15.74-5.682c3.451-1.104,4.429-0.229,4.537,0.893c0.23,2.38,0.589,8.977,3.23,15.73
	c1.578,4.032,3.9,6.797,6.384,9.224c0.858,0.844,1.603,1.326,2.513,2.075c1.327,1.094,2.851,2.413,4.311,3.405
	c3.262,2.218,6.913,4.215,10.674,5.451c5.312,1.745,10.406,2.68,17.065,2.68c4.282,0,8.392-1.626,9.494-2.003
	c1.079-0.366,1.48-0.66-0.002-2.245c-0.466-0.498-0.647-1.165-1.248-1.75c-1.887-1.832-4.301-4.169-5.892-5.684
	c-1.133-1.076-1.939-1.25-3.384-0.777c-2.576,0.844-6.396,1.615-8.991,2.037c-2.972,0.484-6.272,0.199-7.131,0.033
	c-3.559-0.685-4.058-6.807-5.46-15.099c-1.241-7.324-1.179-16.148-2.361-19.019c-1.012-2.465-3.843-3.336-6.252-4.795
	c-3.198-1.936-8.074-4.289-11.857-5.742c-1.582-0.609-6.33-1.589-7.831-1.589c-2.594,0-5.404,1.27-9.802,2.861
	c-2.468,0.893-5.697,1.676-8.595,2.895c-4.522,1.904-10.147,3.811-14.487,6.068c-2.635,1.369-2.833,1.245-4.014,1.887
	C364.184,172.718,362.755,173.754,361.061,174.684z"/>
<path d="M281.77,171.997c3.853,2.508,4.302,3.561,5.047,8.14c0.365,2.246-0.081,2.809,5.047,2.023
	c0.842-0.129,1.775-0.18,2.748-0.347c1.013-0.174,0.739,0.459,1.391,0.404c6.164-0.511,15.408-1.001,19.843-1.028
	c4.305-0.025,17.303,0.472,23.067,0.988c7.739,0.694,8.024,1.54,7.423-3.652c-0.425-3.626,0.54-4.797,3.745-6.575
	c3.381-1.876,7.842-4.461,11.23-7.206c0.987-0.801,1.074-1.582,1.666-2.226c0.577-0.625,1.086-1.252,1.511-1.873
	c1.555-2.272,2.24-6.089,2.257-10.121c0.013-3.084-1.5-7.769-3.104-10c-3.071-4.273-4.478-6.112-10.234-6.189
	c-6.429-0.086-9.153,3.232-11.061,0.423c-1.492-2.2-5.332-3.768-8.166-3.778c-3.888-0.017-5.164,0.75-7.23,2.098
	c-2.415,1.576-4.639,3.784-9.592,3.826c-1.325,0.011-4.523-1.085-6.72-2.324c-2.138-1.207-4.876-2.77-7.478-2.808
	c-2.804-0.037-5.08,1.508-7.014,3.063c-1.28,1.032-3.1,2.21-4.131,2.21c-3.741,0-1.644-1.792-8.798-1.713
	c-0.406,0.004-0.835,0.038-1.239,0.028c-0.632-0.016-1.281-0.152-1.791-0.143c-3.214,0.064-4.997,0.422-8.224,2.361
	c-4.469,2.687-6.503,6.002-6.434,12.046c0.026,2.201,0.454,4.162,1.031,5.995C268.79,162.709,274.691,167.392,281.77,171.997z"/>
<path style="fill:#FBDE2F;" d="M438.189,296.18c-2.602-1.702-4.945-3.721-5.785-4.254c-1.987-1.267-4.273-2.832-6.155-3.865
	c-1.249-0.684-1.838-0.679-3.438-1.593c-2.861-1.632-6.003-3.338-8.862-4.691c-1.316-0.622-2.059-0.672-3.666-1.549
	c-2.116-1.155-4.687-2.35-6.666-3.108c-1.579-0.603-2.597-1.17-4.233-1.782c-2.006-0.75-4.581-1.67-6.635-2.531
	c-1.054-0.441-1.331-1.027-2.436-1.496c-7.704-3.268-16.188-6.293-24.34-9.176c-2.627-0.93-3.679-0.84-7.945-2.662
	c-1.711-0.732-3.516-1.189-5.185-1.863c-1.598-0.645-3.071-1.388-4.774-2.03c-1.056-0.398-2.396-0.682-3.317-1.109
	c-1.626-0.755-3.351-1.388-4.91-2.167c-1.922-0.96-4.637-2.441-7.204-3.795c-0.548-0.289-1.338-0.365-1.864-0.638
	c-0.493-0.255-0.724-0.707-1.182-0.936c-0.946-0.472-1.58-0.876-2.274-1.166c-1.448-0.605-2.131-0.408-2.812,0.954
	c-0.344,0.689-0.958,2.199-1.311,3.749c-0.525,2.306,0.459,3.248,1.841,4.652c2.382,2.421,4.557,4.57,9.147,7.008
	c6.542,3.475,11.781,5.163,20.372,7.684c6.662,1.956,14.847,4.767,20.713,6.451c3.411,0.978,7.963,2.757,11.217,4.042
	c1.073,0.425,2.227,0.62,3.152,1.077c2.319,1.142,4.311,1.944,7.09,3.063c3.357,1.354,7.909,3.213,12.075,5.287
	c6.939,3.458,13.683,7.518,18.476,10.85c0.423,0.296,1.178,0.57,1.617,0.889c2.444,1.778,4.803,3.266,8.533,5.598
	c2.876,1.799,3.025,0.354,2.804-3.532C439.968,298.93,440.917,297.967,438.189,296.18z"/>
<path style="fill:#FBDE2F;" d="M460.755,330.579c1.905,0.667,4.546,0.914,6.729,0.947c2.201,0.034,3.947-0.151,5.861-0.733
	c0.066-0.02,0.131-0.038,0.196-0.055l-6.25-8.353c-2.044,1.083-6.253,1.705-10.955,0.616c-3.25-0.754-3.264,1.554-2.534,2.282
	c0.987,0.988,2.363,2.517,3.962,3.54c0.403,0.259,1.011,0.39,1.39,0.647C459.707,329.844,460.041,330.33,460.755,330.579z"/>
<path style="fill:#FBDE2F;" d="M189.817,305.63c-0.174,1.175-0.251,2.086,0.282,2.395c0.804,0.465,2.557-0.228,4.507-1.814
	c3.267-2.659,11.627-7.978,15.823-11.072c1.188-0.875,1.201-0.274,3.838-2.254c1.832-1.374,1.948-1.719,2.945-2.3
	c3.867-2.253,8.174-4.396,11.618-6.097c4.999-2.466,11.348-4.263,17.534-6.436c3.302-1.161,7.576-2.348,11.824-3.457
	c0.539-0.142,0.73,0.186,1.282,0.044c0.687-0.177,1.09-0.534,1.789-0.75c1.288-0.401,2.89-0.692,4.223-1.091
	c4.483-1.337,11.012-2.79,19.975-5.952c0.448-0.157,0.315,0.494,0.763,0.324c3.92-1.494,9.419-4.166,13.941-6.025
	c1.315-0.541,2.366-0.971,3.363-1.432l-1.631-11.075c-0.114,0.143-0.239,0.288-0.376,0.438c-2.122,2.325-8.246,6.045-14.085,7.944
	c-0.311,0.102-0.354-0.345-0.665-0.236c-5.756,2.025-11.659,3.403-17.923,4.996c-6.96,1.769-14.183,4.009-21.442,5.78
	c-6.541,1.595-12.979,3.862-19.125,6.04c-5.387,1.91-10.854,4.302-15.664,6.886c-3.152,1.692-5.772,3.238-8.59,5.295
	c-2.71,1.979-4.967,3.354-7.871,6.787C191.965,297.521,190.707,299.615,189.817,305.63z"/>
<path style="fill:#FBDE2F;" d="M178.714,322.189c-1.745,0.017-2.671,0.442-5.836,0.915c-1.762,0.263-3.8,0.687-6.48,0.687
	c-2.626,0-3.248-0.162-2.565-1.462c-0.375-0.021-0.727-0.017-0.968-0.015c-0.703,0.005-0.926,0.413-1.052,0.606
	c-2.432,3.762-5.14,7.055-7.709,10.581c-0.729,1.006-0.377,1.239,0.449,1.386c0.058-0.116,0.139-0.248,0.245-0.396
	c1.351-1.879,2.354-1.872,4.096-1.78c3.704,0.196,10.789,0.436,14.661-2.943c1.937-1.69,4.384-2.953,6.302-5.647
	C180.06,323.838,181.277,322.162,178.714,322.189z"/>
<path style="fill:#FBDE2F;" d="M143.391,378.479c1.416,1.964,2.98,3.983,3.969,5.568c0.517,0.824,0.887,1.688,1.288,2.353
	c0.428,0.71,0.879,1.214,1.203,1.787c1.604,2.839,2.111,4.3,3.205,7.274c0.08,0.218,0.803,1.77,1.086,3.44
	c0.204,1.202,0.376,2.231,1.29,2.223c0.596-0.005,2.151-1.483,3.633-6.509c1.051-3.568,2.879-8.336,0.802-14.24
	c-1.964-5.584-5.83-10.811-7.98-13.232c-0.792-0.893-1.1-1.604-1.934-2.55c-7.307-8.298-17.282-18.163-24.652-25.747
	c-3.713-3.822-7.021-8.221-9.627-12.64c-0.82-1.393-1.489-2.812-2.186-4.182c-2.587-5.104-4.197-7.243-5.95-14.841
	c-0.55-2.382-2.009-8.263-1.212-14.396c0.592-4.551,0.337-6.263-2.667-4.909c-1.13,0.509-2.42,0.844-5.463,2.608
	c-3.01,1.746-2.274,6.433-2.098,11.981c0.152,4.759,1.187,9.514,3.81,15.354c0.614,1.367,0.902,2.643,1.624,4.038
	c1.609,3.116,3.477,6.714,5.514,9.847c2.472,3.807,4.639,7.802,6.806,11.577c1.384,2.41,3.294,4.469,5.076,6.443
	c1.2,1.329,2.666,3.863,3.88,5.072c4.702,4.692,8.242,8.772,11.299,12.218C136.371,369.573,140.269,374.148,143.391,378.479z"/>
<path style="fill:#FBDE2F;" d="M142.457,415.294c1.104-0.69,4.223-2.725,5.115-3.739c2.057-2.334-0.305-2.722-3.934-2.489
	c-2.381,0.153-6.729-0.215-9.04-0.558c-2.781-0.413-5.129-0.947-6.419,0.679c-1.007,1.269-2.903,3.336-4.159,4.915
	c-0.951,1.195-0.569,2.069,0.13,2.35c2.392,0.964,7.185,1.581,8.859,1.683C136.672,418.353,138.173,417.971,142.457,415.294z"/>
<path style="fill:#FBDE2F;" d="M156.988,462.841c-3.656-3.691-6.314-6.656-10.423-9.923c-2.241-1.783-4.56-3.753-6.799-5.325
	c-0.831-0.585-1.618-0.753-2.406-1.384c-2.841-2.281-5.698-3.64-7.266-4.436c-0.699-0.247-3.929-2.391-3.353-0.152
	c0.519,2.017,0.75,3.417,1.158,5.756c0.46,2.646,1.13,5.344,1.528,7.985c0.345,2.301,0.118,3.397,0.896,3.396
	c0.053-0.481,0.192-0.997,0.287-1.401c0.154-0.668,0.604-0.748,1.669-0.027c1.493,1.013,3.89,2.378,6.443,4.495
	c1.981,1.645,4.076,3.995,5.883,5.284c1.864,1.336,3.788,4.061,5.284,5.482c1.771,1.686,3.023,3.246,3.934,4.602
	c0.96,1.43,1.439,2.285,2.775,3.828c1.091,1.256,1.97,3.385,2.62,4.17c1.162,1.402,2.002,1.288,3.084-0.391
	c0.203-0.314,2.624-3.993,3.193-7.471c0.259-1.581,0.054-2.556-0.832-3.898C162.868,470.708,160.35,466.234,156.988,462.841z"/>
<path style="fill:#FBDE2F;" d="M152.394,499.645c-1.243,0.411-3.313,1.343-4.942,2.037c-2.167,0.923-2.49,1.818-2.878,3.657
	c-0.605,2.858-0.724,8.773-0.721,11.001c0.003,2.092,0.186,3.302,2.112,2.857c1.432-0.331,4.29-0.982,6.023-1.909
	c1.54-0.821,1.531-2.196,1.52-4.152c-0.023-4.456,0.681-8.791,0.662-12.399C154.164,499.35,153.17,499.387,152.394,499.645z"/>
<path style="fill:#FBDE2F;" d="M298.446,589.694c-2.694-1.421-4.593-1.467-7.274-2.733c-2.211-1.044-4.292,0.504-5.432,1.078
	c-0.847,0.427-1.814,0.964-2.849,1.572c-0.669,0.392-1.063,0.828-1.82,1.269c-1.038,0.604-2.459,1.23-3.439,1.876
	c-2.254,1.482-4.197,2.999-5.832,4.211c-0.799,0.593-1.301,0.907-1.737,1.014c6.314,2.617,11.549,4.656,14.78,5.62
	c-0.654-0.47-0.628-0.759,0.047-1.459c1.57-1.63,3.974-3.329,6.495-4.861c1.264-0.768,2.131-1.497,3.33-2.163
	c1.862-1.03,3.495-1.909,4.424-2.545C301.459,590.99,298.871,589.919,298.446,589.694z"/>
<path style="fill:#FBDE2F;" d="M333.026,587.368c-1.321-0.989-3.063-1.291-4.409-2.665c-0.729-0.745-1.364-0.92-2.786-1.757
	c-0.737-0.433-0.85,0.256-1.641-0.261c-3.44-2.241-8.039-3.636-13.624-7.326c-1.691-1.118-3.676-1.876-5.737-2.764
	c-0.594-0.258-1.119-0.739-1.738-0.98c-2.683-1.04-5.593-1.929-8.63-2.712c-11.394-2.943-13.742-2.522-23.6-4.222
	c-0.724-0.127-1.766,0.072-2.658-0.073c-0.893-0.148-0.976-0.571-2.54-0.82c-5.525-0.878-13.018-2.072-20.628-3.34
	c-6.039-1.005-12.285-1.813-16.09-3.221c-0.716-0.266-0.373,0.27-1.183,0.06c-3.732-0.966-7.658-1.786-11.444-2.633
	c-0.467-0.105-0.229,0.511-0.694,0.408c-13.722-3.034-23.977-5.319-34.643-10.041l2.079,3.814c0.202,0.374,0.62,0.582,0.835,0.949
	c0.249,0.43,0.31,1.009,0.558,1.439l6.158,10.702c0.568,0.987,1.96,2.261,3.082,2.6c-2.039-1.308-2.661-2.846-0.658-1.804
	c3.425,1.783,7.521,2.773,9.833,3.298c1.9,0.43,3.153,0.124,5.536,0.646c6.456,1.415,13.463,2.548,16.973,2.982
	c5.821,0.717,14.313,2.354,23.341,3.906c7.403,1.273,15.89,2.773,22.001,4.262c7.662,1.866,9.23,1.28,20.537,5.607
	c1.291,0.494,1.465,0.877,4.109,1.959c2.214,0.906,3.501,1.155,5.319,2.05c4.602,2.263,15.974,7.475,20.809,11.033
	c0.994,0.727,0.286-0.44,1.822,0.473c0.608,0.363,0.996,0.639,1.219,0.852c7.277-0.774,12.215-0.848,22.992-2.228
	c-0.582-0.204-1.232-0.632-2.439-1.567C341.611,593.299,337.237,590.516,333.026,587.368z"/>
<path style="fill:#FBDE2F;" d="M410.141,555.203c-10.651,1.917-22.442,3.403-33.524,4.665c-12.126,1.382-30.577,3.273-42.233,6.306
	c-2.643,0.686-4.438,1.156-6.186,1.847c-1.415,0.563-1.434-0.12-2.82,0.426c-2.363,0.927-6.073,2.104-9.941,3.939
	c-2.748,1.306,0.039,2.004,1.29,3.101c0.871,0.764,3.966,1.897,6.255,3.373c1.605,1.034,2.566,0.625,3.349,1.157
	c1.731,1.178,3.16,0.221,4.55-0.212c1.253-0.393,3.575-0.178,5.065-0.608c5.641-1.626,13.656-3.133,20.782-4.311
	c7.2-1.189,13.462-1.969,20.54-2.972c11.934-1.686,23.796-3.197,35.704-4.944c4.492-0.66,8.19-0.49,12.838-2.258
	c0.146-0.053,0.293-0.109,0.436-0.159l8.719-13.136c0.793-1.205,1.103-1.836,1.349-2.935c-1.403,0.651-1.728,1.185-6.873,2.449
	C422.775,552.567,416.967,553.975,410.141,555.203z"/>
<path style="fill:#FBDE2F;" d="M474.827,533.129c-1.157-1.081-2.756-2.44-4.027-3.757c-0.845-0.876-0.722-1.746-2.236-2.273
	c-1.408-0.489-2.965-1.008-3.608,0.786c-1.173,3.268-1.968,6.909-3.705,10.035c-0.433,0.779-2.351,2.696-0.164,3.088
	c2.935,0.525,6.269,1.074,8.245,1.171c2.503,0.12,5.047-0.825,5.854-1.848c0.951-1.205,1.532-1.736,1.618-3.859
	C476.888,534.492,475.898,534.133,474.827,533.129z"/>
<path style="fill:#FBDE2F;" d="M472.68,500.085c-1.35-0.673-3.153-1.169-3.455-0.218c-0.395,1.232,0.341,2.407,0.672,4.316
	c0.265,1.532,0.414,3.231,0.414,3.887c0,3.235-0.714,5.384-1.488,9.033c-0.312,1.484-0.667,1.894,1.869,1.344
	c1.984-0.432,4.002-1.183,5.665-1.674c1.725-0.507,2.102-1.758,2.315-3.672c0.175-1.587,0.416-3.956,0.385-5.579
	C478.962,503.048,478.308,502.886,472.68,500.085z"/>
<path style="fill:#FBDE2F;" d="M490.798,444.469c-0.822,0.564-1.558,1.17-2.476,1.814c-0.676,0.474-1.393,0.852-2.144,1.375
	c-0.875,0.611-1.796,1.375-2.677,2.061c-4.843,3.767-9.348,7.342-13.238,11.283c-0.461,0.468-0.684,1.061-1.132,1.536
	c-1.304,1.371-2.565,2.774-3.792,4.226c-0.554,0.653-1.142,1.233-1.646,1.854c-1.004,1.227-1.045,1.835-2.455,3.753
	c-1.441,1.959-2.267,3.085-2.903,4.577c-0.805,1.883-0.507,3.947,0.357,5.053c2.147,2.739,1.503,3.408,3.428,5.498
	c0.923,1.002,1.597,1.475,3.78-1.038c2.266-2.605,10.324-12.595,14.293-17.312c1.72-2.044,4.403-5.215,5.912-6.325
	c0.799-0.586,2.094-1.454,3.874-0.64l5.301-20.865c-0.077,0.067-0.154,0.131-0.232,0.185
	C493.76,442.39,492.404,443.359,490.798,444.469z"/>
<path style="fill:#FBDE2F;" d="M498.281,410.783c-1.307-1.876-2.301-2.222-4.979-1.384c-0.934,0.291-2.752,0.527-3.919,0.52
	c-5.465-0.04-8.016-0.798-10.236-1.858c-1.123-0.535-1.563-0.973-2.586-0.973c-1.459,0-1.393,1.147-0.726,2.659
	c0.571,1.294,1.438,2.857,1.87,3.334c2.029,2.229,4.146,3.972,7.075,5.415c3.612,1.779,7.267,2.266,9.969,2.266
	c2.496,0,6.298,0.028,8.11-1.143c1.611-1.043-0.123-3.354-0.88-4.406C500.6,413.29,499.211,412.117,498.281,410.783z"/>
<path style="fill:#FBDE2F;" d="M535.71,291.592c-1.104-0.85-2.637-2.487-3.389-3.016c-2.412-1.688-3.546-0.745-3.523,0.781
	c0.102,6.256-0.18,6.559-1.991,14.218c-0.767,3.23-3.353,9.563-4.62,11.337c-2.136,2.987-3.961,5.866-6.5,9.113
	c-0.946,1.211-1.982,2.521-3.066,3.861c-0.436,0.538-0.853,0.68-1.303,1.225c-0.924,1.114-1.575,2.257-2.532,3.439
	c-0.871,1.075-2.047,2.197-2.899,3.081c-2.243,2.329-5.903,6.329-9.974,10.5c-4.43,4.539-9.291,9.277-11.899,12.215
	c-2.598,2.924-5.087,5.906-7.739,9.62c-1.355,1.897-2.886,4.005-4.22,6.353c-3.319,5.83-7.257,11.52-7.421,16.124
	c-0.077,2.152,0.803,4.471,1.429,6.055c1.521,3.853,4.572,5.63,5.616,4.351c0.468-0.577,0.456-1.935,0.394-3.894
	c-0.057-1.791,0.546-4.329,1.069-5.876c0.988-2.911,2.078-4.615,3.149-6.213c2.122-3.158,4.342-5.251,6.73-8.679
	c1.979-2.839,4.119-4.379,6.84-7.459c3.023-3.423,5.67-6.861,8.11-9.537c2.153-2.359,3.518-4.042,4.904-5.613
	c0.472-0.536,0.976-1.285,1.409-1.792c1.735-2.03,3.451-3.797,5.57-6.624c3.276-4.374,6.468-8.142,9.446-12.625
	c0.54-0.814,1.084-1.638,1.628-2.47c1.767-2.705,3.359-4.735,4.857-7.74c2.144-4.297,2.843-3.41,4.423-7.786
	c1.464-4.057,2.16-4.509,3.227-7.421c1.274-3.472,2.226-6.282,2.38-9.229C535.987,294.638,536.637,292.307,535.71,291.592z"/>
<path style="fill:#FBDE2F;" d="M515.042,287.023c1.619,1.443,5.865,6.942,7.224,8.707c2.421,3.146,2.491-3.043,2.512-4.856
	c0.063-4.824-1.178-9.746-3.003-12.342c-1.779-2.528-3.335-4.88-4.447-2.494c-0.912,1.96-2.352,5.121-3.468,6.925
	C513.256,283.939,512.73,284.961,515.042,287.023z"/>
<path style="fill:#FBDE2F;" d="M204.238,200.91c3.545-0.733,8.819-5.475,10.06-7.668c0.857-1.518,2.015-3.826,2.548-5.353
	c1.571-4.508,2.866-7.948,2.828-10.636c-0.013-0.893-0.143-1.946-2.325-2.466c-0.536-0.127-4.866-0.555-6.614-0.964
	c-3.135-0.733-3.048,0.617-3.113,1.624c-0.036,0.558-0.028,1.875-0.028,2.742c0,3.557-0.473,8.828-1.955,12.13
	c-0.532,1.188-3.358,8.932-3.599,9.519C201.044,202.266,203.621,201.038,204.238,200.91z"/>
<path style="fill:#FBDE2F;" d="M177.854,211.093c2.438,0.48,3.857,0.637,6.04,0.624c2.055-0.015,3.285-0.13,4.57-0.464
	c0.437-0.113,0.719-0.438,1.191-0.608c0.699-0.253,1.62-0.389,2.483-0.806c2.379-1.148,3.346-2.135,3.996-2.649
	c0.574-0.453,0.182-0.669-0.442-0.628c-0.304,0.02-0.144,0.234-1.115,0.234c-1.223-0.061-1.917-0.386-3.41-0.474
	c-1.601-0.095-3.952-0.383-5.246-0.592c-5.138-0.833-5.548-0.998-7.431,1.392c-0.76,0.965-1.243,1.408-1.875,2.265
	C175.813,210.476,176.673,210.86,177.854,211.093z"/>
<path style="fill:#FBDE2F;" d="M415.292,177.668c0.061,1.451,0.045,4.401,0.341,8.121c0.38,4.818,1.466,9.47,5.302,13.431
	c2.521,2.607,5.018,3.217,6.438,3.797c2.852,1.166,2.573,0.322,1.709-2.133c-0.827-2.337-1.743-5.297-2.079-6.459
	c-0.907-3.144-1.791-7.605-2.265-10.781c-0.294-1.963-0.294-6.435-0.312-8.636c-0.024-3.088-1.296-3.234-4.431-2.807
	C415.706,172.786,415.082,172.595,415.292,177.668z"/>
<path style="fill:#FBDE2F;" d="M456.53,208.238c-0.733-0.855-1.346-1.517-2.215-2.363c-0.929-0.903-2.345-1.019-5.022-0.461
	c-1.779,0.369-5.064,0.985-7.061,0.966c-1.754-0.017-2.063,0.343-2.079,0.895c-0.022,0.614,1.547,1.41,2.768,2.178
	c2.783,1.748,7.635,1.778,11.681,1.026C456.054,210.208,458.023,209.984,456.53,208.238z"/>
<path style="fill:#FBDE2F;" d="M301.469,143.276c1.689,0.563,3.308,1.309,5.256,1.808c2.131,0.543,2.104,1.291,3.982-1.849
	c0.836-1.398,2.627-1.893,0.869-3.585c-0.723-0.695-1.625-1.071-2.472-1.489c-1.183-0.583-2.214-1.005-3.684-1.005
	c-1.781,0-2.371-0.038-3.712,0.766c-0.792,0.475-1.762,1.37-1.774,2.82C299.921,142.439,299.66,142.674,301.469,143.276z"/>
<path style="fill:#FBDE2F;" d="M288.99,171.762c1.195,0.999,1.707,1.357,4.679,1.26c0.374-0.012,0.758-0.265,2.259-0.309
	c0.768-0.023,0.372-0.538,0.356-1.754c-0.016-1.438,0.876-1.34-1.699-3.251c-1.36-1.009-3.389-3.858-5.654-6.35
	c-1.351-1.486-0.607-1.9-1.496-3.936c-0.802-1.831-1.375-3.373-1.424-6.561c-0.053-3.326,1.331-6.346,2.398-8.771
	c0.448-1.02-0.348-1.534-1.4-1.838c-1.966-0.566-2.751-0.286-3.278,0.112c-4.807,3.635-6.335,8.627-6.344,11.421
	c-0.017,5.232,2.078,8.666,5.158,13.716C284.149,168.136,285.81,169.104,288.99,171.762z"/>
<path style="fill:#FBDE2F;" d="M322.265,172.008c1.101-0.029,2.351,0.25,3.626,0.254c2.772,0.009,2.823-0.766,3.084-1.055
	c0.834-0.915,1.587-2.415,2.344-3.64c1.677-2.718,2.754-5.72,3.506-8.208c0.913-3.016,1.018-4.695,1.217-7.044
	c0.098-1.147-0.066-1.851,0.281-3.068c0.742-2.607-1.714-3.244-3.737-3.27c-2.223-0.031-4.238,0.242-5.044,1.217
	c-2.589,3.132-1.34,5.47-3.06,9.918c-1.469,3.802-1.852,4.403-2.8,8.514c-0.422,1.828-0.561,2.597-1.114,3.782
	C319.734,171.199,320.171,172.064,322.265,172.008z"/>
<path style="fill:#FBDE2F;" d="M304.88,170.83c0.48,0.365,1.733,1.519,5.456,1.565c3.736,0.047,3.358-1.429,2.203-5.218
	c-0.553-1.814-0.674-2.849-1.341-4.422c-1.583-3.728-3.36-7.513-3.842-12.338c-0.271-2.713-0.652-3.114-3.661-3.114
	c-1.842,0-2.585,0.308-3.393,1.249c-1.059,1.229-1.749,3.212-1.826,5.038c-0.172,4.047-1.407,4.618,0.838,9.236
	C301.008,166.308,302.07,168.697,304.88,170.83z"/>
<path style="fill:#FBDE2F;" d="M327.138,143.67c4.603-1.822,4.383-1.581,7.406-2.996c1.341-0.627,2.186-1.705,1.061-3.461
	c-0.287-0.448-2.002-1.732-3.378-1.729c-2.41,0.009-3.912,0.896-7.888,4.049c-1.653,1.311-1.46,3.131-0.823,4.129
	C324.498,145.206,325.551,144.298,327.138,143.67z"/>
<path style="fill:#FBDE2F;" d="M339.172,173.125c2.59,0.249,1.927,0.373,3.751-1.122c2.175-1.781,4.127-3.288,5.183-4.39
	c2.015-2.102,2.451-2.614,4.456-5.14c0.371-0.467,2.957-3.21,4.528-7.686c0.838-2.386,1.193-5.381,1.121-7.68
	c-0.041-1.315,0.103-2.704-0.555-3.908c-1.06-1.943-3.323-3.668-5.096-3.668c-4.299,0-5.047,0.973-5.072,2.828
	c-0.013,1.007,0.523,2.741,0.479,4.476c-0.083,3.125-0.401,6.479-1.789,9.739c-1.73,4.065-4.322,7.371-4.535,7.769
	c-1.248,2.328-2.9,3.657-5.106,6.255C334.233,173.308,337.868,172.999,339.172,173.125z"/>
<path style="fill:#FBDE2F;" d="M210.849,166.59c0.351,0.211,1.391,0.392,2.114,0.665c0.66,0.251,1,0.602,1.476,0.656
	c0.855,0.099,1.656,0.03,2.386,0.215c1.448,0.367,2.557,0.728,3.905,0.904c1.51,0.199,1.154,0.534,2.152,0.858
	c2.939,0.954,5.078,1.782,7.56,2.149c1.205,0.177,1.052,0.664,6.384,2.159c2.262,0.635,4.385,1.044,6.416,1.669
	c3.9,1.199,13.237,4.745,21.524,8.291c3.119,1.335,4.483,2.386,5.853,3.102c0.609,0.318,1.077,0.577,1.375,0.792
	c1.916-2.813,3.833-5.423,5.752-7.698c-0.193-0.066-0.397-0.151-0.61-0.256c-1.664-0.815-4.558-2.518-8.357-4.401
	c-2.308-1.143-5.079-2.302-7.736-3.521c-5.419-2.484-11.579-4.953-14.513-5.823c-2.726-0.808-7.019-2.586-12.804-3.816
	c-2.398-0.511-6.2-1.535-8.222-1.651c-1.046-0.061-1.45-0.698-2.196-0.717c-0.583-0.016-1.322,0.271-1.886,0.281
	c-0.754,0.016-0.944-0.293-1.479-0.275c-1.574,0.053-3.509,1.182-4.764,1.83c-2.264,1.17-2.747,2.245-3.764,2.635
	C210.072,165.154,209.721,165.914,210.849,166.59z"/>
<path style="fill:#FBDE2F;" d="M353.4,181.349c5.267,1.259,9.764,1.83,15.803,3.775c0.061-0.27,0.603-0.607,1.521-1.038
	c1.538-0.722,5.196-2.579,9.268-4.052c1.058-0.382,2.91-1.267,4.143-1.786c0.717-0.303,0.982-0.188,1.724-0.505
	c1.623-0.688,3.275-1.382,4.831-1.948c1.982-0.722,3.396-1.075,5.339-1.787c2.408-0.883,3.701-1.358,6.183-2.138
	c0.666-0.21,1.268-0.703,1.949-0.95c2.001-0.725,5.535-1.691,8.166-2.396c1.987-0.533,3.679-0.916,3.69-2.413
	c0.009-1.208-2.025-2.356-3.74-3.173c-2.562-1.22-3.817-1.592-6.261-1.622c-2.589-0.032-4.744,0.55-7.516,1.299
	c-4.212,1.138-13.73,4.079-17.706,5.677c-0.792,0.319-1.482,0.185-2.293,0.537c-2.79,1.215-5.345,2.274-7.755,3.315
	c-1.443,0.622-2.666,1.442-3.909,2.089c-0.852,0.441-1.727,0.7-2.63,1.168c-2.736,1.416-5.783,2.988-8.512,5.035
	C355.287,180.741,354.212,181.444,353.4,181.349z"/>
</svg>
