<?xml version="1.0" encoding="iso-8859-1"?>
<!-- Generator: Adobe Illustrator 24.0.1, SVG Export Plug-In . SVG Version: 6.00 Build 0)  -->
<svg version="1.1" id="Calque_1" xmlns="http://www.w3.org/2000/svg" xmlns:xlink="http://www.w3.org/1999/xlink" x="0px" y="0px"
	 viewBox="0 0 595.276 841.89" style="enable-background:new 0 0 595.276 841.89;" xml:space="preserve">
<path d="M13,426c0.002-156.297,126.703-282.999,283-283.001l0,0c156.297,0.002,282.999,126.704,283,283.001l0,0
	c-0.001,156.297-126.702,282.998-283,282.999l0,0C139.702,708.998,13.001,582.297,13,426L13,426z"/>
<path style="fill:#FFF200;" d="M98.921,228.921C48.479,279.364,17.288,349.028,17.288,426l0,0
	c0,76.971,31.191,146.634,81.633,197.078l0,0c50.444,50.439,120.108,81.631,197.079,81.631l0,0
	c76.97,0,146.636-31.191,197.08-81.631l0,0c50.44-50.444,81.632-120.107,81.632-197.078l0,0c0-76.972-31.191-146.636-81.632-197.079
	l0,0c-50.443-50.44-120.109-81.632-197.08-81.633l0,0C219.029,147.289,149.365,178.48,98.921,228.921L98.921,228.921z"/>
<ellipse transform="matrix(0.7071 -0.7071 0.7071 0.7071 -214.5314 334.075)" cx="295.999" cy="426" rx="186.523" ry="186.523"/>
<path style="fill:#2D2B7E;" d="M87.261,511.716c5.357-1.956,5.919-6.892,4.189-11.627c-1.133-3.102-3.765-7.508-7.881-6.005
	c-4.342,1.586-2.871,7.888-2.287,14.385c0.604,6.553,0.496,13.431-7.059,16.19c-8.232,3.008-15.022-3.332-17.679-10.605
	c-3.069-8.401-2.226-17.466,7.078-20.864l3.131,8.571c-4.746,2.053-4.73,5.945-3.186,10.175c1.03,2.819,3.409,5.657,6.792,4.421
	c3.101-1.133,2.795-3.194,1.703-14.234c-0.338-3.2-1.773-12.901,7.362-16.237c7.387-2.699,15.034,1.091,19.03,12.029
	c3.254,8.909,1.904,18.86-8.061,22.373L87.261,511.716z"/>
<path style="fill:#2D2B7E;" d="M48.742,486.719l-3.409-19.029c-1.884-10.519,4.063-15.792,10.917-17.021
	c6.855-1.227,14.263,1.653,16.147,12.172l1.747,9.751l15.128-2.71l1.662,9.277L48.742,486.719z M66.936,473.884l-1.291-7.21
	c-0.773-4.314-2.407-7.985-7.784-7.022c-5.378,0.964-5.635,4.974-4.862,9.287l1.292,7.21L66.936,473.884z"/>
<path style="fill:#2D2B7E;" d="M40.942,423.383c0.214-13.265,10.244-20.908,22.969-20.703c12.365,0.199,22.143,8.162,21.929,21.427
	c-0.214,13.266-10.244,20.908-22.608,20.709C50.506,444.611,40.728,436.648,40.942,423.383z M77.916,423.979
	c0.136-8.463-7.015-11.761-14.158-11.876c-7.502-0.121-14.757,2.944-14.893,11.407c-0.137,8.464,7.015,11.761,14.518,11.882
	C70.525,435.508,77.78,432.442,77.916,423.979z"/>
<path style="fill:#2D2B7E;" d="M43.674,391.458l4.68-22.63c1.556-7.524,7.772-11.203,14.121-9.89
	c4.937,1.021,8.227,3.786,9.147,8.818l0.118,0.024c2.112-4.283,6.788-4.664,11.081-4.083c2.682,0.371,7.607,1.451,10.299,0.291
	l-1.909,9.229c-2.876,0.57-6.908-0.387-10.355-0.609c-4.543-0.265-6.835,1.039-7.796,5.683l-1.909,9.228l16.4,3.391l-1.909,9.229
	L43.674,391.458z M64.568,386.157l2.091-10.11c0.851-4.115-0.451-6.713-4.683-7.589c-4.056-0.838-6.281,1.03-7.132,5.145
	l-2.091,10.11L64.568,386.157z"/>
<path style="fill:#2D2B7E;" d="M65.123,340.397l-4.699,11.957l-7.375-2.898l12.845-32.687l7.375,2.898l-4.699,11.957l32.52,12.779
	l-3.448,8.772L65.123,340.397z"/>
<path style="fill:#2D2B7E;" d="M69.92,309.907l4.466-8.299l37.747,20.311l-4.466,8.3L69.92,309.907z"/>
<path style="fill:#2D2B7E;" d="M79.816,291.293l5.51-7.571l33.773,2.454l0.07-0.097l-23.248-16.917l5.192-7.135l34.653,25.217
	l-5.545,7.62l-33.688-2.467l-0.071,0.097l23.199,16.882l-5.191,7.134L79.816,291.293z"/>
<path style="fill:#2D2B7E;" d="M158.235,259.114c0.475,5.371-1.594,9.497-4.632,12.312c-9.731,9.017-22.188,7.056-30.593-2.015
	c-8.65-9.335-9.658-21.905,0.074-30.921c6.429-5.957,16.178-7.625,23.536-1.185l-6.605,6.12c-4.016-2.744-8.287-2.142-11.545,0.877
	c-6.208,5.753-3.646,13.2,1.454,18.703c4.855,5.24,12.085,8.362,18.293,2.609c4.492-4.162,4.846-8.991,1.203-13.717l-6.957,6.447
	l-4.774-5.152l13.21-12.24l15.749,16.997l-4.404,4.08L158.235,259.114z"/>
<path style="fill:#2D2B7E;" d="M171.054,204.015l8.518-4.033l7.038,14.865l15.679-7.424l-7.038-14.865l8.518-4.033l18.34,38.736
	l-8.518,4.033l-7.912-16.71l-15.679,7.423l7.912,16.709l-8.518,4.033L171.054,204.015z"/>
<path style="fill:#2D2B7E;" d="M215.778,184.389l30.984-8.238l2.036,7.659l-21.874,5.816l2.36,8.877l20.076-5.338l1.882,7.079
	l-20.076,5.338l2.7,10.154l22.338-5.94l2.037,7.659l-31.448,8.362L215.778,184.389z"/>
<path style="fill:#2D2B7E;" d="M256.646,174.943l9.337-1.276l5.802,42.464l-9.337,1.276L256.646,174.943z"/>
<path style="fill:#2D2B7E;" d="M277.183,172.248l18.487-0.298c11.105-0.179,19.561,6.649,19.791,20.875
	c0.2,12.424-6.014,21.771-19.099,21.982l-18.487,0.298L277.183,172.248z M287.169,207.029l8.404-0.136
	c5.462-0.088,10.63-3.534,10.477-13.018c-0.14-8.643-3.23-14.117-12.593-13.966l-6.723,0.108L287.169,207.029z"/>
<path style="fill:#2D2B7E;" d="M326.274,173.272l31.55,5.688l-1.406,7.799l-22.273-4.016l-1.63,9.04l20.442,3.685l-1.3,7.208
	l-20.442-3.686l-1.864,10.339l22.747,4.101l-1.406,7.798l-32.022-5.773L326.274,173.272z"/>
<path style="fill:#2D2B7E;" d="M394.627,191.414l8.476,4.119l-15.27,31.423l18.789,9.13l-3.463,7.126l-27.266-13.249
	L394.627,191.414z"/>
<path style="fill:#2D2B7E;" d="M428.737,209.292l7.941,5.079l-23.097,36.111l-7.94-5.079L428.737,209.292z"/>
<path style="fill:#2D2B7E;" d="M446.548,220.551l7.139,6.061l-4.973,33.497l0.091,0.078l18.61-21.919l6.727,5.711l-27.739,32.673
	l-7.184-6.1l4.979-33.412l-0.091-0.078l-18.571,21.874l-6.727-5.711L446.548,220.551z"/>
<path style="fill:#2D2B7E;" d="M482.645,265.486l-8.193-9.894l6.101-5.054l22.399,27.045l-6.103,5.054l-8.194-9.894l-26.906,22.284
	l-6.012-7.258L482.645,265.486z"/>
<path style="fill:#2D2B7E;" d="M507.92,285.018l16.142,27.692l-6.846,3.99L505.82,297.15l-7.934,4.625l10.458,17.943l-6.326,3.688
	l-10.459-17.943l-9.075,5.29l11.638,19.965l-6.846,3.99l-16.384-28.107L507.92,285.018z"/>
<path style="fill:#2D2B7E;" d="M528.877,322.81l7.89,21.724c2.623,7.222-0.739,13.617-6.833,15.83
	c-4.74,1.721-8.99,1.094-12.415-2.708l-0.113,0.04c0.449,4.755-3.331,7.533-7.292,9.291c-2.478,1.092-7.238,2.756-8.921,5.156
	l-3.218-8.858c2.15-1.994,6.085-3.295,9.137-4.915c4.006-2.157,5.274-4.47,3.655-8.927l-3.217-8.859l-15.743,5.717l-3.217-8.858
	L528.877,322.81z M513.869,338.288l3.525,9.705c1.434,3.95,3.906,5.48,7.969,4.004c3.894-1.413,4.807-4.173,3.373-8.122
	l-3.525-9.705L513.869,338.288z"/>
<path style="fill:#2D2B7E;" d="M507.106,418.096l-0.646-10.605l41.936-16.508l0.591,9.707l-29.499,11.36l0.008,0.12l30.667,7.814
	l0.592,9.707L507.106,418.096z"/>
<path style="fill:#2D2B7E;" d="M515.315,430.958l24.967,25.715l2.194-21.077l7.882,0.82l-3.493,33.557l-7.404-0.771l-24.967-25.715
	l-2.442,23.465l-7.882-0.819l3.742-35.945L515.315,430.958z"/>
<path style="fill:#2D2B7E;" d="M491.936,506.7l2.875-8.912l29.995,2.041l0.036-0.114l-25.573-15.753l2.93-9.084l44.274,2.357
	l-2.892,8.97l-29.848-2.498l-0.037,0.113l25.481,16.039l-2.709,8.399l-30.356-2.095l-0.037,0.114l25.952,15.749l-2.837,8.799
	L491.936,506.7z"/>
<path style="fill:#2D2B7E;" d="M161.299,589.596l7.741,5.376l-10.136,14.595l23.893-5.04l9.664,6.712l-23.413,4.35l0.294,31.779
	l-9.714-6.746l0.392-23.189l-7.554,1.404l-7.876,11.34l-7.741-5.376L161.299,589.596z"/>
<path style="fill:#2D2B7E;" d="M194.92,612.261l18.436,8.178c7.462,3.311,11.439,7.964,8.202,15.262
	c-1.704,3.841-4.817,5.677-8.949,5.814c4.165,3.49,4.949,8.236,2.783,13.12c-3.529,7.956-11.787,8.364-18.865,5.225l-18.984-8.422
	L194.92,612.261z M189.125,648.563l9.218,4.09c3.402,1.509,6.852,1.726,8.652-2.334c1.777-4.006-0.041-6.717-3.717-8.348
	l-9.382-4.162L189.125,648.563z M196.5,631.939l8.724,3.869c3.018,1.339,5.876,0.965,7.336-2.327c1.655-3.73-0.858-5.764-3.93-7.128
	l-8.066-3.577L196.5,631.939z"/>
<path style="fill:#2D2B7E;" d="M240.689,674.058l-10.323-2.515l-3.384-44.938l9.449,2.302l2.139,31.537l0.117,0.028l16.524-26.989
	l9.449,2.302L240.689,674.058z"/>
<path style="fill:#2D2B7E;" d="M265.838,635.734l20.132,1.239c8.149,0.502,13.499,3.479,13.008,11.447
	c-0.258,4.194-2.536,7.001-6.362,8.57c5.121,1.819,7.51,5.995,7.182,11.328c-0.535,8.689-8.134,11.949-15.864,11.474l-20.732-1.277
	L265.838,635.734z M273.06,671.785l10.067,0.62c3.715,0.229,7.024-0.77,7.297-5.204c0.27-4.374-2.379-6.281-6.394-6.529
	l-10.246-0.631L273.06,671.785z M274.179,653.63l9.527,0.587c3.296,0.202,5.845-1.144,6.066-4.738
	c0.251-4.075-2.813-5.106-6.168-5.313l-8.808-0.543L274.179,653.63z"/>
<path style="fill:#2D2B7E;" d="M334.339,633.713c10.275-1.881,15.115,4.558,15.851,8.573c0.745,4.074-0.774,7.771-4.436,9.783
	l0.022,0.118c5.106,0.225,8.634,3.485,9.585,8.683c1.589,8.681-5.418,14.419-13.095,15.823c-7.973,1.46-16.444-1.141-18.076-10.057
	c-0.962-5.256,1.31-9.518,5.937-11.585l-0.022-0.118c-4.221-0.387-6.894-3.315-7.64-7.391
	C321.104,640.102,327.606,634.944,334.339,633.713z M337.538,651.193c3.425-0.627,5.854-3.025,5.206-6.568
	c-0.389-2.126-2.053-5.545-7.249-4.594c-3.366,0.616-5.94,3.224-5.271,6.885C330.884,650.519,334.172,651.808,337.538,651.193z
	 M341.109,670.375c4.016-0.734,6.568-4.131,5.811-8.265c-0.725-3.958-4.399-6.031-8.297-5.317c-4.075,0.745-6.901,3.643-6.124,7.895
	C333.279,668.939,337.094,671.11,341.109,670.375z"/>
<path style="fill:#2D2B7E;" d="M356.433,646.565c-3.401-8.987-0.632-17.744,8.907-21.018c7.268-2.493,15.225-0.021,17.895,7.759
	c2.046,5.961-0.005,10.346-2.968,14.473c-2.963,4.126-6.839,7.995-8.332,13.077l18.794-6.449l2.377,6.927l-29.184,10.014
	c-3.1-9.217,1.177-15.063,6.449-22.077c2.702-3.593,6.633-7.67,5.014-12.573c-1.285-3.747-4.602-5.274-8.065-4.086
	c-4.77,1.637-4.606,7.103-3.166,11.305L356.433,646.565z"/>
<path style="fill:#2D2B7E;" d="M409.907,614.047c-4.278,10.891-1.246,27.112,3.834,37.125l-8.094,4.215
	c-4.889-11.465-5.883-24.553-3.237-36.76l-17.678,9.206l-3.66-7.028l25.451-13.254L409.907,614.047z"/>
<path style="fill:#2D2B7E;" d="M418.352,619.176c-5.892-7.592-5.816-16.775,2.34-22.706c6.214-4.52,14.547-4.492,19.383,2.159
	c3.707,5.097,3.036,9.89,1.416,14.704c-1.619,4.815-4.188,9.651-4.122,14.948l16.069-11.687l4.307,5.923l-24.953,18.147
	c-5.671-7.9-3.301-14.746-0.321-22.998c1.527-4.227,4.087-9.281,1.1-13.492c-2.33-3.204-5.949-3.689-8.91-1.536
	c-4.079,2.966-2.317,8.144,0.295,11.735L418.352,619.176z"/>
<radialGradient id="SVGID_1_" cx="280.3428" cy="387.7753" r="275.0004" gradientTransform="matrix(0.8576 0 0 0.8576 42.1543 60.6747)" gradientUnits="userSpaceOnUse">
	<stop  offset="0" style="stop-color:#FFFFFF"/>
	<stop  offset="0.5" style="stop-color:#FFFFFF"/>
	<stop  offset="1" style="stop-color:#000000"/>
</radialGradient>
<path style="fill:url(#SVGID_1_);" d="M434.406,307.462l-4.393,32.266c2.923,4.542,18.155,30.51,18.152,77.82
	c0,4.581-0.149,9.37-0.459,14.35l28.199,23.227c1.523-9.484,2.328-19.21,2.328-29.126
	C478.232,380.728,461.727,339.333,434.406,307.462z"/>
<radialGradient id="SVGID_2_" cx="280.3428" cy="387.7753" r="275.0007" gradientTransform="matrix(0.8576 0 0 0.8576 42.1543 60.6747)" gradientUnits="userSpaceOnUse">
	<stop  offset="0" style="stop-color:#FFFFFF"/>
	<stop  offset="0.5" style="stop-color:#FFFFFF"/>
	<stop  offset="1" style="stop-color:#000000"/>
</radialGradient>
<path style="fill:url(#SVGID_2_);" d="M294.282,486.621l-53.165-40.982c-5.446,2.461-28.993,12.766-57.586,20.315l0.548,55.987
	c0.195,0.278,0.468,0.663,0.83,1.159c0.796,1.094,1.982,2.676,3.531,4.611c3.1,3.876,7.655,9.171,13.437,14.814
	c11.405,11.135,27.604,23.567,46.747,29.241l49.516-25.859c-0.073-24.914-2.257-46.195-3.357-55.344
	C294.562,488.734,294.389,487.412,294.282,486.621z"/>
<radialGradient id="SVGID_3_" cx="280.3428" cy="387.7753" r="275" gradientTransform="matrix(0.8576 0 0 0.8576 42.1543 60.6747)" gradientUnits="userSpaceOnUse">
	<stop  offset="0" style="stop-color:#FFFFFF"/>
	<stop  offset="0.5" style="stop-color:#FFFFFF"/>
	<stop  offset="1" style="stop-color:#000000"/>
</radialGradient>
<path style="fill:url(#SVGID_3_);" d="M164.056,363.284c-8.192,13.682-16.376,33.886-16.544,60.194l34.578,38.421
	c24.184-6.355,44.861-14.773,53.746-18.616c1.79-0.775,3.08-1.354,3.845-1.702l22.812-64.539
	c-11.372-19.943-22.671-36.989-27.645-44.313c-0.761-1.121-1.364-1.998-1.806-2.638l-52.93,12.681
	c-0.23,0.213-0.557,0.52-0.977,0.934c-0.889,0.869-2.171,2.183-3.714,3.931C172.331,351.135,168.195,356.375,164.056,363.284z"/>
<radialGradient id="SVGID_4_" cx="280.3428" cy="387.7753" r="275.0003" gradientTransform="matrix(0.8576 0 0 0.8576 42.1543 60.6747)" gradientUnits="userSpaceOnUse">
	<stop  offset="0" style="stop-color:#FFFFFF"/>
	<stop  offset="0.5" style="stop-color:#FFFFFF"/>
	<stop  offset="1" style="stop-color:#000000"/>
</radialGradient>
<path style="fill:url(#SVGID_4_);" d="M338.192,284.028c-0.099-0.071-0.218-0.155-0.381-0.266c-0.442-0.3-1.116-0.738-2.012-1.27
	c-1.795-1.063-4.481-2.496-7.997-3.933c-7.037-2.873-17.378-5.765-30.564-5.765c-9.609,0-20.739,1.54-33.222,5.759l-27.523,48.992
	c3.253,4.709,16.348,23.941,29.615,47.184l66.42,2.213c0.549-0.609,1.43-1.598,2.615-2.977c2.087-2.429,5.067-6.001,8.616-10.563
	c6.919-8.891,16.001-21.542,24.868-36.765L338.192,284.028z"/>
<radialGradient id="SVGID_5_" cx="280.3428" cy="387.7753" r="274.9997" gradientTransform="matrix(0.8576 0 0 0.8576 42.1543 60.6747)" gradientUnits="userSpaceOnUse">
	<stop  offset="0" style="stop-color:#FFFFFF"/>
	<stop  offset="0.5" style="stop-color:#FFFFFF"/>
	<stop  offset="1" style="stop-color:#000000"/>
</radialGradient>
<path style="fill:url(#SVGID_5_);" d="M353.513,445.481c25.67,8.477,50.973,19.717,57.151,22.512l32.743-36.017
	c0.319-5.016,0.47-9.83,0.47-14.428c-0.003-46.097-14.721-71.193-17.421-75.422l-54.229-13.147
	c-16.013,27.445-32.625,46.509-36.405,50.715L353.513,445.481z"/>
<radialGradient id="SVGID_6_" cx="280.3428" cy="387.7753" r="275.0002" gradientTransform="matrix(0.8576 0 0 0.8576 42.1543 60.6747)" gradientUnits="userSpaceOnUse">
	<stop  offset="0" style="stop-color:#FFFFFF"/>
	<stop  offset="0.5" style="stop-color:#FFFFFF"/>
	<stop  offset="1" style="stop-color:#000000"/>
</radialGradient>
<path style="fill:url(#SVGID_6_);" d="M297.238,268.505c23.222,0.006,38.167,8.547,42.494,11.385l29.776-20.68
	c-22.484-9.924-47.348-15.445-73.51-15.445c-23.543,0-46.04,4.464-66.693,12.59l33.452,18.097
	C275.629,270.115,287.201,268.505,297.238,268.505z"/>
<radialGradient id="SVGID_7_" cx="280.3428" cy="387.7753" r="275.0001" gradientTransform="matrix(0.8576 0 0 0.8576 42.1543 60.6747)" gradientUnits="userSpaceOnUse">
	<stop  offset="0" style="stop-color:#FFFFFF"/>
	<stop  offset="0.5" style="stop-color:#FFFFFF"/>
	<stop  offset="1" style="stop-color:#000000"/>
</radialGradient>
<path style="fill:url(#SVGID_7_);" d="M176.618,340.174l-12.924-39.486c-30.948,32.667-49.929,76.761-49.929,125.312
	c0,8.521,0.598,16.9,1.729,25.108l27.722-27.722C143.57,374.32,170.86,345.676,176.618,340.174z"/>
<radialGradient id="SVGID_8_" cx="280.3428" cy="387.7758" r="275.0001" gradientTransform="matrix(0.8576 0 0 0.8576 42.1543 60.6747)" gradientUnits="userSpaceOnUse">
	<stop  offset="0" style="stop-color:#FFFFFF"/>
	<stop  offset="0.5" style="stop-color:#FFFFFF"/>
	<stop  offset="1" style="stop-color:#000000"/>
</radialGradient>
<path style="fill:url(#SVGID_8_);" d="M180.834,524.764h-38.003c7.031,10.882,15.186,20.971,24.309,30.095
	c25.893,25.89,59.526,44.018,97.135,50.618l-16.88-29.596C210.489,564.854,185.186,530.87,180.834,524.764z"/>
<radialGradient id="SVGID_9_" cx="280.3413" cy="387.7729" r="275.004" gradientTransform="matrix(0.8576 0 0 0.8576 42.1543 60.6747)" gradientUnits="userSpaceOnUse">
	<stop  offset="0" style="stop-color:#FFFFFF"/>
	<stop  offset="0.5" style="stop-color:#FFFFFF"/>
	<stop  offset="1" style="stop-color:#000000"/>
</radialGradient>
<path style="fill:url(#SVGID_9_);" d="M395.761,548.855c-9.915,8.179-23.534,16.976-38.924,19.668l-9.96,32.505
	c29.867-8.667,56.572-24.762,77.982-46.17c8.132-8.133,15.494-17.032,21.979-26.575l-35.09,4.92
	C410.024,535.248,404.263,541.829,395.761,548.855z"/>
<radialGradient id="SVGID_10_" cx="280.3423" cy="387.7753" r="275.0016" gradientTransform="matrix(0.8576 0 0 0.8576 42.1543 60.6747)" gradientUnits="userSpaceOnUse">
	<stop  offset="0" style="stop-color:#FFFFFF"/>
	<stop  offset="0.5" style="stop-color:#FFFFFF"/>
	<stop  offset="1" style="stop-color:#000000"/>
</radialGradient>
<path style="fill:url(#SVGID_10_);" d="M407.881,531.127c0.255-0.294,0.447-0.521,0.611-0.715l0.551-58.446
	c-0.864-0.393-2.152-0.971-3.819-1.709c-3.241-1.434-7.872-3.445-13.428-5.76c-10.863-4.526-25.267-10.206-39.715-14.974
	l-53.493,36.949c0.769,5.786,3.735,29.955,3.836,59.212l52.938,18.75C380.915,560.44,402.914,536.945,407.881,531.127z"/>
<path style="fill:#2D2B7E;" d="M118.604,564.319c0,5.328-4.319,9.648-9.648,9.648c-5.328,0-9.647-4.32-9.647-9.648
	c0-5.328,4.319-9.646,9.647-9.646C114.285,554.673,118.604,558.991,118.604,564.319z"/>
<path style="fill:#2D2B7E;" d="M473.395,564.319c0,5.328,4.319,9.648,9.648,9.648c5.328,0,9.647-4.32,9.647-9.648
	c0-5.328-4.318-9.646-9.647-9.646C477.715,554.673,473.395,558.991,473.395,564.319z"/>
</svg>
