<?xml version="1.0" encoding="iso-8859-1"?>
<!-- Generator: Adobe Illustrator 24.0.1, SVG Export Plug-In . SVG Version: 6.00 Build 0)  -->
<svg version="1.1" id="Layer_1" xmlns="http://www.w3.org/2000/svg" xmlns:xlink="http://www.w3.org/1999/xlink" x="0px" y="0px"
	 viewBox="0 0 612 792" style="enable-background:new 0 0 612 792;" xml:space="preserve">
<path style="fill:#035FAD;" d="M301.187,551.975h6.243v-35.701c-23.08-12.461-39.92-24.005-39.92-35.084c0,0,0.43-27.232,0.43-38.31
	c0-11.076,12.928-22.154,27.235-22.154c14.307,0,18.001,0,18.001,0h-11.525c0,0,3.694,0,18.001,0
	c14.307,0,27.233,11.078,27.233,22.154c0,11.078,0,29.082,0,29.082h-37.851v-20.773h-5.077v24.464
	c23.079,12.46,39.921,24.004,39.921,35.082c0,11.076,0,48.928,0,56.314c0,7.387-10.617,14.31-19.388,14.31
	c-6.221,0-33.234,0-39.458,0c-8.771,0-19.386-6.923-19.386-14.31c0-7.386,0-45.235,0-45.235h35.543V551.975z"/>
<path style="fill:#035FAD;" d="M193.114,419.732H156.53v124.457c0,6.544-1.422,6.544-2.105,6.544c-0.685,0-2.105,0-2.105-6.544
	V419.732h-38.133v141.092c0,16.992,11.897,21.526,18.925,21.526h42.626c7.032,0,18.929-4.534,18.929-21.526V419.732H193.114z"/>
<path style="fill:#FFD400;" d="M175.738,577.238h-42.626c-1.414,0-13.818-0.458-13.818-16.414V424.844h27.919v119.346
	c0,2.883,0,11.655,7.212,11.655c7.215,0,7.215-8.772,7.215-11.655V424.844h27.917v135.981
	C189.556,576.78,177.154,577.238,175.738,577.238z"/>
<path style="fill:#035FAD;" d="M388.058,322.449c-29.478,0-57.287,7.147-81.793,19.795c-24.506-12.648-52.314-19.795-81.793-19.795
	c-98.634,0-178.593,79.958-178.593,178.591c0,98.634,79.958,178.595,178.593,178.595c29.479,0,57.287-7.148,81.793-19.798
	c24.506,12.649,52.315,19.798,81.793,19.798c98.633,0,178.593-79.961,178.593-178.595
	C566.65,402.407,486.69,322.449,388.058,322.449z M224.471,650.977c-82.807,0-149.936-67.131-149.936-149.937
	c0-82.806,67.128-149.934,149.936-149.934c18.676,0,36.549,3.424,53.04,9.664c-41.443,32.704-68.047,83.38-68.047,140.27
	c0,56.892,26.604,107.566,68.047,140.272C261.021,647.551,243.147,650.977,224.471,650.977z M374.406,501.04
	c0,52.629-27.12,98.917-68.142,125.671c-41.022-26.754-68.142-73.042-68.142-125.671c0-52.628,27.12-98.914,68.142-125.669
	C347.286,402.126,374.406,448.412,374.406,501.04z M388.058,650.977c-18.676,0-36.549-3.427-53.041-9.665
	c41.443-32.706,68.047-83.381,68.047-140.272c0-56.89-26.603-107.565-68.047-140.27c16.492-6.24,34.365-9.664,53.041-9.664
	c82.806,0,149.936,67.128,149.936,149.934C537.993,583.847,470.863,650.977,388.058,650.977z"/>
<path style="fill:#FFD400;" d="M388.058,328.6c-95.084,0-172.441,77.357-172.441,172.44c0,95.086,77.357,172.443,172.441,172.443
	c95.085,0,172.441-77.357,172.441-172.443C560.499,405.957,483.143,328.6,388.058,328.6z M388.058,657.128
	c-86.067,0-156.088-70.02-156.088-156.088c0-86.065,70.021-156.086,156.088-156.086c86.066,0,156.086,70.02,156.086,156.086
	C544.144,587.108,474.124,657.128,388.058,657.128z"/>
<path style="fill:#035FAD;" d="M382.864,194.668c-9.781-10.343-28.198-14.845-39.642-17.635c-2.735-0.667-5.097-1.245-6.792-1.765
	c-5.996-1.846-10.779-5.757-13.897-8.927c0.151-0.878,0.248-1.77,0.248-2.683c0-6.702-4.247-12.601-10.134-15.157l0.547-5.508
	l8.802,3.39l5.573,2.146v-5.972v-13.003v-6.033l-5.608,2.221l-7.038,2.786l2.769-9.667l1.498-5.228h-5.439h-14.975h-5.439
	l1.498,5.228l2.769,9.667l-7.038-2.786l-5.609-2.221v6.033v13.003v5.974l5.573-2.147l8.801-3.39l0.542,5.461
	c-5.94,2.505-10.133,8.362-10.133,15.203c0,0.92,0.095,1.816,0.24,2.695c-3.117,3.168-7.895,7.07-13.883,8.914
	c-1.696,0.521-4.056,1.098-6.791,1.765c-11.444,2.791-29.861,7.292-39.643,17.635c-25.896,0.796-52.385,12.707-52.385,34.154
	c0,14.749,18.005,29.847,30.131,38.341l2.542,5.123c0,0,0.912-0.881,2.076-2.003c2.005,1.303,3.65,2.312,4.733,2.958
	c-0.998,3.713-3.206,12.691-2.319,16.671l0.158,0.742c1.972,9.266,7.161,33.862,91.665,33.986
	c84.504-0.124,89.694-24.72,91.665-33.986l0.158-0.742c0.886-3.98-1.32-12.958-2.319-16.671c1.083-0.646,2.729-1.655,4.732-2.958
	c1.165,1.122,2.076,2.003,2.076,2.003l2.543-5.123c12.125-8.494,30.131-23.591,30.131-38.341
	C435.25,207.375,408.761,195.464,382.864,194.668z M195.083,239.321c-0.694-1.794-1.122-3.59-1.122-5.484
	c0-2.755,0.742-5.707,2.235-9.121c4.41-10.086,19.043-11.96,28.02-12.136c0.197,4.728,1.137,9.159,2.79,13.225
	C215.973,229.685,205.25,234.229,195.083,239.321z M293.011,197.05c-3.462,6.235-5.889,12.905-6.925,17.625
	c-10.545,1.071-20.628,2.9-30.097,5.183c0.024-2.718,0.526-5.241,1.528-7.547c3.053-7.036,9.768-10.171,13.497-11.415
	c6.881-2.295,17.507-7.005,24.592-10.254C294.825,193.092,293.961,195.343,293.011,197.05z M326.44,214.675
	c-1.035-4.72-3.462-11.39-6.924-17.625c-0.951-1.707-1.815-3.958-2.595-6.409c7.084,3.249,17.71,7.959,24.591,10.254
	c3.729,1.244,10.445,4.379,13.497,11.415c1.002,2.306,1.504,4.83,1.528,7.547C347.07,217.575,336.985,215.747,326.44,214.675z
	 M417.443,239.321c-10.167-5.093-20.889-9.637-31.922-13.516c1.652-4.066,2.593-8.497,2.79-13.225
	c8.976,0.176,23.608,2.05,28.019,12.136c1.492,3.414,2.235,6.366,2.235,9.121C418.565,235.731,418.138,237.527,417.443,239.321z"/>
<path style="fill:#FFD400;" d="M284.762,299.913c-2.011,0.091-3.983,0.189-5.897,0.301v17.708c1.917,0.157,3.888,0.294,5.897,0.418
	V299.913z"/>
<path style="fill:#FFD400;" d="M292.738,299.642c-0.919,0.027-1.874,0.043-2.777,0.073v18.893c0.903,0.039,1.858,0.062,2.777,0.096
	V299.642z"/>
<path style="fill:#FFD400;" d="M299.327,299.501c-1.164,0.019-2.328,0.037-3.47,0.061v19.249c1.142,0.031,2.306,0.056,3.47,0.082
	V299.501z"/>
<path style="fill:#FFD400;" d="M320.135,299.63c-4.376-0.122-8.945-0.195-13.76-0.198c-1.104,0-2.163,0.014-3.236,0.021v19.505
	c1.089,0.01,2.165,0.028,3.284,0.031c4.779-0.007,9.334-0.098,13.712-0.26V299.63z"/>
<path style="fill:#FFD400;" d="M328.573,299.933c-1.956-0.089-3.96-0.169-6.014-0.236v18.943c2.052-0.091,4.056-0.197,6.014-0.32
	V299.933z"/>
<path style="fill:#FFD400;" d="M336.431,300.379c-0.886-0.056-1.746-0.118-2.654-0.169v17.725c0.908-0.075,1.768-0.165,2.654-0.248
	V300.379z"/>
<path style="fill:#FFD400;" d="M339.552,300.582v16.81c1.9-0.199,3.754-0.421,5.548-0.661v-15.709
	C343.306,300.866,341.454,300.718,339.552,300.582z"/>
<path style="fill:#FFD400;" d="M220.204,276.336c11.535-3.48,40.046-10.311,86.06-10.338c46.015,0.027,74.526,6.858,86.06,10.338
	c-0.211-0.853-0.421-1.677-0.626-2.428c-7.612-2.418-34.519-9.611-85.434-9.639c-50.915,0.028-77.821,7.221-85.433,9.639
	C220.625,274.659,220.414,275.483,220.204,276.336z"/>
<path style="fill:#FFD400;" d="M190.321,230.507c0-1.532,1.089-4.528,2.183-7.032c4.914-11.239,19.987-13.65,29.785-13.981
	c0.206-3.974,1.337-7.476,3.214-10.537c-20.447,1.413-40.403,9.878-44.296,24.565c-0.445,1.685-0.68,3.452-0.68,5.299
	c0,2.309,0.569,4.659,1.532,7.002c2.102,6.607,7.278,13.565,18.273,21.308l4.554-3.189
	C204.885,253.943,190.456,248.97,190.321,230.507z"/>
<path style="fill:#FFD400;" d="M235.614,258.158l11.565-5.638l-2.443,12.226l12.291-1.812l-5.867-11.001l12.701,2.061
	c0,0-0.472-3.208-0.84-5.696c-0.366-2.487-0.839-5.696-0.839-5.696l-11.567,5.637l0.555-2.77l1.888-9.453l-12.291,1.808
	l5.868,11.002l-12.699-2.058L235.614,258.158z"/>
<path style="fill:#FFD400;" d="M219.718,262.143l9.258-1.428c0,0-1.05-2.115-1.866-3.754c-0.809-1.638-1.858-3.754-1.858-3.754
	l-6.74,6.501l-0.241-2.043l-0.813-6.968l-8.105,4.016l6.538,6.295l-9.256,1.431l3.725,7.507l6.736-6.503l1.057,9.012l8.102-4.017
	L219.718,262.143z"/>
<path style="fill:#FFD400;" d="M237.996,236.724c-0.133-0.253-0.216-0.408-0.216-0.408l12.525-1.845
	c-1.492-5.236-2.889-11.552-2.889-14.484c0-3.936,0.754-7.664,2.241-11.087c4.381-10.086,13.561-14.435,18.647-16.129
	c6.455-2.155,21.69-9.559,29.931-13.401l-0.504-1.803c-2.661-1.708-4.807-4.148-6.146-7.031c-3.43,3.229-8.265,6.801-14.282,8.65
	c-1.813,0.559-4.229,1.146-7.027,1.83c-15.068,3.676-43.121,10.514-43.121,29.701C227.155,223.573,232.876,231.86,237.996,236.724z"
	/>
<path style="fill:#FFD400;" d="M297.753,182.61c-8.55,4.018-22.424,10.696-28.585,12.751c-4.653,1.551-13.046,5.513-17.006,14.626
	c-1.335,3.078-2.012,6.441-2.012,9.998c0,2.752,1.423,9.021,2.889,14.082l1.887-0.281c-3.575-8.789-4.013-16.57-1.173-23.107
	c3.69-8.498,11.585-12.216,15.962-13.674c7.753-2.583,20.795-8.511,27.364-11.566C297.319,184.489,297.542,183.541,297.753,182.61z"
	/>
<path style="fill:#FFD400;" d="M289.615,218.864c0.012,2.194,4.655,12.591,9.966,18.724l-2.114-5.915
	c-3.265-5.078-5.903-10.842-6.112-12.651l-0.01-0.08v-0.078c0-2.781,2.41-11.142,6.766-18.981c1.966-3.539,3.832-9.28,5.546-17.06
	l0.268-1.234l1.251,0.173l1.087,0.145l1.087-0.145l1.251-0.173l0.267,1.234c1.715,7.781,3.58,13.521,5.546,17.06
	c4.357,7.838,6.767,16.199,6.767,18.981v0.078l-0.01,0.08c-0.209,1.809-2.849,7.574-6.113,12.651l-2.113,5.915
	c5.312-6.133,9.955-16.53,9.967-18.724c0-3.043-2.424-11.623-6.983-19.825c-2.685-4.835-4.724-13.094-5.985-19.364
	c-1.17,0.296-2.427,0.478-3.68,0.505c-1.253-0.028-2.511-0.209-3.679-0.505c-1.263,6.271-3.3,14.529-5.985,19.364
	C292.039,207.242,289.615,215.821,289.615,218.864z"/>
<polygon style="fill:#FFD400;" points="289.057,237.894 289.057,251.773 303.836,247.083 298.776,261.233 306.263,261.233 
	313.751,261.233 308.69,247.083 323.471,251.773 323.471,237.894 308.69,242.581 313.751,228.43 306.263,228.43 298.776,228.43 
	303.836,242.581 "/>
<path style="fill:#FFD400;" d="M224.029,301.361c0.485,0.561,0.999,1.125,1.58,1.69c11.475-3.045,37.364-8.244,80.655-8.265
	c43.293,0.021,69.18,5.22,80.656,8.265c0.58-0.565,1.095-1.128,1.579-1.69c-13.612-3.518-41.49-9.06-82.235-9.081
	C265.519,292.302,237.642,297.844,224.029,301.361z"/>
<path style="fill:#FFD400;" d="M431.321,223.523c-3.894-14.687-23.85-23.153-44.297-24.565c1.876,3.061,3.009,6.563,3.215,10.537
	c9.798,0.331,24.87,2.742,29.783,13.981c1.095,2.503,2.185,5.5,2.185,7.032c-0.136,18.463-14.564,23.436-14.564,23.436l4.553,3.189
	c10.996-7.743,16.172-14.701,18.273-21.308c0.964-2.343,1.533-4.693,1.533-7.002C432.002,226.975,431.766,225.208,431.321,223.523z"
	/>
<path style="fill:#FFD400;" d="M371.761,237.823l-12.291-1.808l1.888,9.453l0.554,2.77l-11.565-5.637c0,0-0.474,3.209-0.84,5.696
	c-0.368,2.489-0.84,5.696-0.84,5.696l12.701-2.061l-5.868,11.001l12.291,1.812l-2.442-12.226l11.564,5.638l1.68-11.391
	l-12.699,2.058L371.761,237.823z"/>
<path style="fill:#FFD400;" d="M403.176,254.714l-8.106-4.016l-0.813,6.968l-0.24,2.043l-6.741-6.501c0,0-1.05,2.115-1.858,3.754
	c-0.817,1.639-1.866,3.754-1.866,3.754l9.258,1.428l-6.535,6.295l8.103,4.017l1.057-9.012l6.735,6.503l3.726-7.507l-9.257-1.431
	L403.176,254.714z"/>
<path style="fill:#FFD400;" d="M362.871,208.899c1.486,3.423,2.239,7.151,2.239,11.087c0,2.933-1.397,9.249-2.888,14.484
	l12.524,1.845c0,0-0.082,0.154-0.216,0.408c5.12-4.864,10.841-13.15,10.841-26.006c0-19.187-28.052-26.025-43.121-29.701
	c-2.798-0.684-5.215-1.271-7.027-1.83c-6.016-1.85-10.852-5.421-14.281-8.65c-1.34,2.882-3.484,5.322-6.146,7.031l-0.503,1.803
	c8.239,3.842,23.475,11.246,29.93,13.401C349.31,194.465,358.489,198.813,362.871,208.899z"/>
<path style="fill:#FFD400;" d="M359.486,234.068c1.466-5.061,2.889-11.33,2.889-14.082c0-3.557-0.677-6.92-2.011-9.998
	c-3.96-9.113-12.353-13.075-17.007-14.626c-6.16-2.056-20.033-8.734-28.584-12.751c0.211,0.93,0.434,1.879,0.675,2.83
	c6.568,3.055,19.611,8.983,27.363,11.566c4.378,1.458,12.272,5.176,15.962,13.674c2.84,6.537,2.402,14.318-1.173,23.107
	L359.486,234.068z"/>
<path style="fill:#FFD400;" d="M315.254,226.104c1.715-3.11,2.999-5.986,3.185-7.32c-0.039-2.212-2.235-10.056-6.413-17.574
	c-1.982-3.569-3.845-9.151-5.536-16.556l-0.006,0.038l-0.22-0.031l-0.22,0.031l-0.006-0.038c-1.691,7.405-3.553,12.987-5.535,16.556
	c-4.178,7.518-6.375,15.361-6.413,17.574c0.184,1.334,1.469,4.21,3.184,7.32h8.99H315.254z"/>
<path style="fill:#FFD400;" d="M306.263,268.732c-47.804,0.027-76.494,7.435-86.773,10.681c-0.837,3.89-1.441,7.847-1.048,9.61
	l0.167,0.776c0.484,2.284,1.21,5.593,3.618,9.207c13.319-3.533,41.893-9.435,84.036-9.459c42.143,0.023,70.718,5.926,84.037,9.459
	c2.408-3.614,3.134-6.923,3.618-9.207l0.167-0.776c0.393-1.763-0.21-5.72-1.048-9.61
	C382.758,276.167,354.068,268.759,306.263,268.732z"/>
<path style="fill:#FFD400;" d="M306.263,176.079c-6.875,0-12.424-5.712-12.424-12.422c0-6.709,5.549-12.421,12.424-12.421
	c6.786,0,12.42,5.712,12.42,12.421C318.684,170.367,313.049,176.079,306.263,176.079z"/>
<path style="fill:#035FAD;" d="M308.005,153.439c-0.517-0.099-1.079-0.192-1.683-0.206c-5.685,0.119-10.261,4.797-10.261,10.424
	c0,5.627,4.576,10.303,10.202,10.42c1.788-0.038,5.449-0.805,6.592-2.368c1.188-1.617-0.359-3.11-1.984-3.689
	c-1.587-0.566-3.295-0.035-4.955,0.032c-3.407,0.142-7.615-0.799-7.097-4.95c0.464-3.744,3.466-7.229,7.503-7.136
	c0.346,0.007,0.771,0.08,1.168,0.158L308.005,153.439z"/>
<path style="fill:#035FAD;" d="M310.27,218.763c0,2.213-1.791,4.008-4.008,4.008c-2.211,0-4.005-1.795-4.005-4.008
	c0-2.213,1.793-4.006,4.005-4.006C308.478,214.756,310.27,216.55,310.27,218.763z"/>
<path style="fill:#035FAD;" d="M310.27,205.6c0,2.216-1.791,4.01-4.008,4.01c-2.211,0-4.005-1.794-4.005-4.01
	c0-2.21,1.793-4.004,4.005-4.004C308.478,201.596,310.27,203.39,310.27,205.6z"/>
<path style="fill:#035FAD;" d="M309.707,244.802c0,1.902-1.54,3.444-3.444,3.444c-1.904,0-3.443-1.542-3.443-3.444
	s1.54-3.446,3.443-3.446C308.167,241.356,309.707,242.9,309.707,244.802z"/>
<path style="fill:#035FAD;" d="M248.362,247.541c-1.562,0.23-2.641,1.685-2.411,3.246c0.233,1.562,1.683,2.641,3.244,2.412
	c1.564-0.23,2.641-1.683,2.411-3.244C251.376,248.393,249.924,247.313,248.362,247.541z"/>
<path style="fill:#035FAD;" d="M216.794,259.733c-1.027,0.51-1.45,1.759-0.94,2.79c0.513,1.027,1.76,1.446,2.788,0.937
	c1.032-0.51,1.45-1.756,0.939-2.785C219.074,259.645,217.825,259.223,216.794,259.733z"/>
<path style="fill:#035FAD;" d="M237.499,227.519c0,1.835,1.487,3.321,3.32,3.321c1.835,0,3.322-1.485,3.322-3.321
	c0-1.834-1.487-3.32-3.322-3.32C238.986,224.198,237.499,225.685,237.499,227.519z"/>
<path style="fill:#035FAD;" d="M237.174,210.794c1.837,0,3.325-1.49,3.325-3.323c0-1.834-1.488-3.322-3.325-3.322
	c-1.834,0-3.318,1.487-3.318,3.322C233.855,209.304,235.339,210.794,237.174,210.794z"/>
<path style="fill:#035FAD;" d="M249.021,190.938c-1.834,0-3.324,1.486-3.324,3.321c0,1.834,1.49,3.321,3.324,3.321
	c1.835,0,3.321-1.487,3.321-3.321C252.343,192.425,250.856,190.938,249.021,190.938z"/>
<path style="fill:#035FAD;" d="M266.79,190.292c1.834,0,3.319-1.489,3.319-3.323c0-1.833-1.485-3.321-3.319-3.321
	c-1.836,0-3.323,1.487-3.323,3.321C263.466,188.803,264.954,190.292,266.79,190.292z"/>
<path style="fill:#035FAD;" d="M283.646,177.903c-1.81,0-3.278,1.467-3.278,3.281c0,1.812,1.468,3.281,3.278,3.281
	c1.816,0,3.283-1.469,3.283-3.281C286.928,179.371,285.462,177.903,283.646,177.903z"/>
<path style="fill:#035FAD;" d="M222.123,289.114c3.065,0.409,12.27,1.634,14.541,1.939c1.883-1.314,9.499-6.625,12.036-8.396
	c-3.065-0.409-12.269-1.634-14.544-1.936C232.276,282.032,224.659,287.344,222.123,289.114z"/>
<polygon style="fill:#035FAD;" points="267.545,274.592 266.982,274.41 266.467,274.696 257.145,279.854 254.373,281.385 
	257.391,282.352 267.543,285.601 268.107,285.783 268.624,285.498 271.611,283.845 277.946,280.342 280.715,278.81 277.7,277.842 
	"/>
<path style="fill:#035FAD;" d="M366.576,250.787c0.229-1.562-0.849-3.017-2.412-3.246c-1.562-0.229-3.014,0.852-3.243,2.413
	c-0.229,1.562,0.848,3.014,2.412,3.244C364.894,253.428,366.344,252.35,366.576,250.787z"/>
<path style="fill:#035FAD;" d="M395.732,259.733c-1.029-0.511-2.28-0.088-2.787,0.942c-0.511,1.029-0.094,2.275,0.939,2.785
	c1.029,0.509,2.275,0.09,2.788-0.937C397.182,261.493,396.76,260.243,395.732,259.733z"/>
<path style="fill:#035FAD;" d="M371.708,230.839c1.833,0,3.319-1.485,3.319-3.321c0-1.834-1.486-3.32-3.319-3.32
	c-1.836,0-3.323,1.487-3.323,3.32C368.385,229.354,369.872,230.839,371.708,230.839z"/>
<path style="fill:#035FAD;" d="M375.352,210.794c1.836,0,3.318-1.49,3.318-3.323c0-1.834-1.482-3.322-3.318-3.322
	c-1.837,0-3.324,1.487-3.324,3.322C372.028,209.304,373.516,210.794,375.352,210.794z"/>
<path style="fill:#035FAD;" d="M363.506,197.58c1.834,0,3.323-1.487,3.323-3.321c0-1.834-1.489-3.321-3.323-3.321
	c-1.835,0-3.321,1.486-3.321,3.321C360.185,196.093,361.671,197.58,363.506,197.58z"/>
<path style="fill:#035FAD;" d="M345.738,190.292c1.835,0,3.323-1.489,3.323-3.323c0-1.833-1.488-3.321-3.323-3.321
	c-1.836,0-3.32,1.487-3.32,3.321C342.418,188.803,343.902,190.292,345.738,190.292z"/>
<path style="fill:#035FAD;" d="M328.881,177.903c-1.816,0-3.281,1.467-3.281,3.281c0,1.812,1.465,3.281,3.281,3.281
	c1.81,0,3.279-1.469,3.279-3.281C332.16,179.371,330.69,177.903,328.881,177.903z"/>
<path style="fill:#035FAD;" d="M306.263,272.623c0-0.001,0-0.001-0.001-0.001c-2.664,1.036-13.46,5.232-17.052,6.631
	c3.593,1.397,14.389,5.593,17.052,6.629c0.001,0,0.001,0,0.001-0.001c0.001,0.001,0.001,0.001,0.002,0.001
	c2.664-1.036,13.46-5.232,17.053-6.629c-3.593-1.399-14.39-5.595-17.053-6.631C306.264,272.622,306.264,272.622,306.263,272.623z"/>
<path style="fill:#035FAD;" d="M363.828,282.657c2.536,1.77,10.153,7.082,12.036,8.396c2.271-0.305,11.475-1.53,14.54-1.939
	c-2.536-1.771-10.152-7.082-12.032-8.393C376.097,281.023,366.894,282.248,363.828,282.657z"/>
<polygon style="fill:#035FAD;" points="346.06,274.696 345.545,274.41 344.981,274.592 334.826,277.842 331.813,278.81 
	334.581,280.342 340.916,283.845 343.902,285.498 344.421,285.783 344.984,285.601 355.136,282.352 358.153,281.385 
	355.383,279.854 "/>
<polygon style="fill:#FFD400;" points="261.237,280.714 267.814,282.819 270.287,281.453 273.851,279.484 267.274,277.373 "/>
<polygon style="fill:#FFD400;" points="351.293,280.714 344.715,282.819 342.243,281.453 338.679,279.484 345.257,277.373 "/>
<path style="fill:#FFD400;" d="M312.156,138.2l11.314,4.357v-13.003l-10.908,4.319l-3.872,1.534l1.146-4.006l3.915-13.668h-14.975
	l3.914,13.668l1.146,4.006l-3.872-1.534l-10.907-4.319v13.003l11.314-4.357l2.509-0.966l1.002,10.097
	c0.779-0.116,1.57-0.194,2.381-0.194c0.809,0,1.6,0.081,2.381,0.204l1.002-10.106L312.156,138.2z"/>
<path style="fill:#035FAD;" d="M475.698,415.523h-22.279c-7.425,0-15.402,2.719-21.886,7.46
	c-6.976,5.103-10.978,11.675-10.978,18.032l-0.001,124.163c0,9.773,12.43,17.642,22.72,17.642h27.19
	c3.898,0,7.023-2.195,9.298-4.649c0.26,0.391,0.551,0.781,0.876,1.17c3.729,4.463,10.582,6.87,20.366,7.155l5.261,0.153v-5.263
	v-78.525v-5.111h-5.111h-38.42h-0.435V452.65h4.329v29.051v5.112h5.111h29.414h5.111v-5.112V441.01
	C506.265,427.909,491.409,415.523,475.698,415.523z M466.628,548.564c0,3.21-1.626,4.974-2.165,4.974
	c-0.538,0-2.164-1.764-2.164-4.974V531.71h0.435h3.895V548.564z"/>
<path style="fill:#FFD400;" d="M471.739,548.564c0,5.574-3.255,10.086-7.276,10.086c-4.022,0-7.276-4.512-7.276-10.086V447.538
	h14.553v34.163h29.414V441.01c0-10.281-12.607-20.375-25.455-20.375h-22.279c-13.313,0-27.751,10.473-27.751,20.381l-0.001,124.163
	c0,5.973,9.215,12.53,17.607,12.53h27.19c4.339,0,7.964-5.907,8.995-8.182l3.37,1.063c-0.022,0.116-0.481,2.828,1.73,5.474
	c1.938,2.319,6.452,5.028,16.594,5.324v-78.525h-38.42v23.735h9.006V548.564z"/>
</svg>
