<?xml version="1.0" encoding="iso-8859-1"?>
<!-- Generator: Adobe Illustrator 24.0.1, SVG Export Plug-In . SVG Version: 6.00 Build 0)  -->
<svg version="1.1" id="Layer_1" xmlns="http://www.w3.org/2000/svg" xmlns:xlink="http://www.w3.org/1999/xlink" x="0px" y="0px"
	 viewBox="0 0 612 792" style="enable-background:new 0 0 612 792;" xml:space="preserve">
<path d="M23.757,49.656v170.37c0.002,118.492,11.346,211.742,32.341,285.948C100.771,664.192,199.27,750.521,304.33,776.325
	l1.676,0.411l1.673-0.411c105.06-25.804,203.559-112.133,248.231-270.351c20.995-74.206,32.339-167.458,32.341-285.948V49.656
	H23.757z"/>
<path style="fill:#FFFFFF;" d="M543.697,220.026c-0.006,108.476-7.521,201.03-26.467,277.845
	c-18.941,76.784-49.425,137.988-95.527,182.912c-30.715,29.94-68.294,52.521-113.473,67.656l-2.226,0.746v13.128
	c99.268-25.194,192.897-106.691,236.434-260.152c20.526-72.507,31.816-164.535,31.812-282.136V84.381h-30.553V220.026z"/>
<path style="fill:#FFFFFF;" d="M37.786,230.133c0.014,2.516,0.039,5.008,0.063,7.5h491.772c0.019-2.492,0.036-4.99,0.047-7.5H37.786
	z"/>
<path style="fill:#4156A6;" d="M60.635,210.712L45.437,68.98h9.311l10.761,104.897L75.92,68.98h9.107L69.8,210.712H60.635z"/>
<path style="fill:#4156A6;" d="M119.134,210.712L103.936,68.98h9.311l10.761,104.897L134.419,68.98h9.107l-15.228,141.732H119.134z"
	/>
<path style="fill:#4156A6;" d="M166.814,68.98h16.996c3.364,0,5.873,0.469,7.526,1.401c1.653,0.936,3.133,2.886,4.438,5.85
	c1.306,2.966,2.394,6.912,3.264,11.844c0.87,4.93,1.305,10.458,1.305,16.58c0,6.64-0.536,12.73-1.609,18.272
	c-1.073,5.544-2.528,9.701-4.365,12.472c2.591,2.514,4.583,6.801,5.975,12.858c1.393,6.059,2.089,13.182,2.089,21.366
	c0,6.446-0.45,12.713-1.349,18.805c-0.899,6.09-2.128,10.958-3.684,14.598c-1.557,3.643-3.477,5.883-5.758,6.72
	c-1.431,0.517-4.883,0.839-10.355,0.967h-14.473V68.98z M175.399,92.57v32.774h5.627c3.345,0,5.424-0.16,6.236-0.483
	c1.469-0.58,2.624-2.272,3.466-5.075c0.841-2.805,1.262-6.493,1.262-11.07c0-4.382-0.363-7.942-1.088-10.684
	c-0.726-2.738-1.804-4.398-3.234-4.979c-0.851-0.321-3.297-0.483-7.338-0.483H175.399z M175.399,148.934v37.898h7.947
	c3.094,0,5.057-0.29,5.888-0.87c1.276-0.773,2.315-2.659,3.118-5.655c0.802-2.998,1.203-7.01,1.203-12.037
	c0-4.254-0.31-7.862-0.928-10.828c-0.619-2.964-1.514-5.124-2.683-6.477c-1.17-1.354-3.708-2.03-7.614-2.03H175.399z"/>
<path style="fill:#4156A6;" d="M210.899,210.712V68.98h18.069c4.544,0,7.846,1.273,9.905,3.819
	c2.059,2.547,3.707,7.074,4.945,13.583c1.236,6.511,1.856,13.955,1.856,22.333c0,10.635-0.938,19.418-2.814,26.346
	c-1.875,6.929-4.68,11.296-8.411,13.1c1.857,3.61,3.389,7.574,4.598,11.892c1.208,4.319,2.837,11.988,4.887,23.01l5.192,27.65
	h-10.268l-6.207-30.841c-2.204-11.021-3.713-17.966-4.525-20.834c-0.813-2.867-1.673-4.834-2.582-5.898
	c-0.908-1.063-2.349-1.595-4.321-1.595h-1.74v59.168H210.899z M219.484,128.921h6.352c4.118,0,6.689-0.58,7.715-1.74
	c1.024-1.16,1.827-3.157,2.407-5.994c0.58-2.835,0.87-6.381,0.87-10.635c0-4.769-0.382-8.619-1.146-11.554
	c-0.765-2.932-1.842-4.785-3.234-5.559c-0.696-0.321-2.784-0.483-6.265-0.483h-6.7V128.921z"/>
<path style="fill:#4156A6;" d="M254.897,68.98h8.585v76.764c0,12.182,0.106,20.078,0.319,23.687
	c0.367,5.801,1.242,10.458,2.625,13.971c1.382,3.514,3.272,5.269,5.67,5.269c2.436,0,4.273-1.658,5.511-4.979
	c1.237-3.318,1.981-7.396,2.233-12.23c0.251-4.834,0.377-12.858,0.377-24.073V68.98h8.585v74.443
	c0,17.016-0.231,29.037-0.696,36.061c-0.464,7.026-1.319,12.955-2.566,17.789c-1.247,4.834-2.915,8.686-5.003,11.553
	c-2.089,2.867-4.815,4.303-8.18,4.303c-4.061,0-7.14-1.563-9.237-4.689c-2.099-3.125-3.756-7.186-4.975-12.182
	c-1.218-4.993-2.021-10.23-2.407-15.71c-0.561-8.121-0.841-20.109-0.841-35.965V68.98z"/>
<path style="fill:#4156A6;" d="M296.864,164.596l8.352-2.707c0.503,9.347,1.523,16.211,3.06,20.593
	c1.537,4.384,3.611,6.574,6.221,6.574c2.766,0,4.85-1.948,6.252-5.849c1.4-3.899,2.102-8.46,2.102-13.681
	c0-3.351-0.295-6.202-0.885-8.556c-0.59-2.353-1.619-4.399-3.088-6.14c-1.006-1.16-3.297-3.222-6.875-6.188
	c-4.602-3.802-7.831-8.475-9.687-14.019c-2.61-7.798-3.915-17.306-3.915-28.521c0-7.218,0.613-13.97,1.842-20.255
	c1.227-6.283,2.997-11.069,5.308-14.356c2.31-3.287,5.099-4.931,8.367-4.931c5.338,0,9.355,3.9,12.053,11.698
	c2.697,7.8,4.113,18.209,4.248,31.228l-8.584,1.257c-0.369-7.282-1.156-12.521-2.365-15.71c-1.209-3.191-3.021-4.786-5.438-4.786
	c-2.494,0-4.447,1.709-5.859,5.124c-0.908,2.192-1.363,5.124-1.363,8.798c0,3.353,0.426,6.221,1.277,8.604
	c1.082,3.03,3.711,6.188,7.889,9.475c4.176,3.287,7.266,6.688,9.266,10.199c2.002,3.515,3.568,8.314,4.699,14.406
	c1.131,6.09,1.697,13.616,1.697,22.574c0,8.121-0.678,15.728-2.031,22.816c-1.354,7.091-3.268,12.36-5.742,15.807
	c-2.475,3.447-5.559,5.173-9.252,5.173c-5.375,0-9.504-4.141-12.385-12.423C299.145,192.522,297.424,180.452,296.864,164.596z"/>
<path style="fill:#4156A6;" d="M349.417,210.712V92.957h-12.615V68.98h33.789v23.977h-12.588v117.756H349.417z"/>
<path style="fill:#4156A6;" d="M377.317,210.712V68.98h31.527v23.977h-22.941v31.421h21.348v23.88h-21.348v38.575h23.754v23.88
	H377.317z"/>
<path style="fill:#4156A6;" d="M418.011,210.712V68.98h12.848l7.715,96.68l7.629-96.68h12.877v141.732h-7.977V99.144l-8.439,111.568
	h-8.266l-8.412-111.568v111.568H418.011z"/>
<path style="fill:#4156A6;" d="M513.692,158.602l8.324,8.798c-1.277,15.469-3.398,26.959-6.367,34.466
	c-2.969,7.51-6.734,11.264-11.297,11.264c-5.646,0-10.287-6.43-13.922-19.287c-3.635-12.859-5.453-30.438-5.453-52.739
	c0-23.59,1.828-41.911,5.483-54.962c3.654-13.053,8.459-19.578,14.414-19.578c5.201,0,9.428,5.124,12.676,15.372
	c1.934,6.06,3.383,14.761,4.35,26.104l-8.498,6.768c-0.502-7.348-1.551-13.148-3.146-17.402s-3.533-6.381-5.814-6.381
	c-3.152,0-5.711,3.771-7.672,11.311c-1.963,7.541-2.945,19.756-2.945,36.642c0,17.919,0.967,30.681,2.9,38.285
	c1.934,7.606,4.447,11.408,7.541,11.408c2.281,0,4.244-2.417,5.889-7.251C511.796,176.584,512.976,168.98,513.692,158.602z"/>
<rect x="250.537" y="395.272" style="fill:#4156A6;" width="31.706" height="313.899"/>
<rect x="173.814" y="320.411" style="fill:#4156A6;" width="31.706" height="313.899"/>
<rect x="97.092" y="261.609" style="fill:#4156A6;" width="31.706" height="297.84"/>
<path style="fill:#FFFFFF;" d="M352.465,470.435c-1.916-1.078-3.309-2.561-4.179-4.447c-0.871-1.887-1.306-3.955-1.306-6.205
	c0-3.844,1.006-7.02,3.018-9.527c2.013-2.508,4.874-3.762,8.583-3.762c3.674,0,6.526,1.254,8.556,3.762
	c2.031,2.508,3.046,5.684,3.046,9.527c0,2.391-0.466,4.518-1.397,6.381c-0.932,1.863-2.241,3.287-3.929,4.272
	c2.145,1.148,3.774,2.824,4.892,5.027c1.115,2.203,1.674,4.746,1.674,7.629c0,4.758-1.139,8.625-3.414,11.602
	c-2.277,2.977-5.305,4.465-9.084,4.465c-3.516,0-6.442-1.23-8.78-3.691c-2.76-2.906-4.14-6.891-4.14-11.953
	c0-2.789,0.518-5.35,1.556-7.682C348.598,473.499,350.232,471.7,352.465,470.435z M353.309,482.563c0,2.719,0.522,4.84,1.569,6.363
	c1.045,1.523,2.351,2.285,3.915,2.285c1.529,0,2.795-0.732,3.797-2.197c1.002-1.465,1.503-3.58,1.503-6.346
	c0-2.414-0.51-4.353-1.529-5.818c-1.02-1.465-2.311-2.197-3.876-2.197c-1.81,0-3.16,0.832-4.048,2.496
	C353.752,478.813,353.309,480.618,353.309,482.563z M353.994,460.485c0,1.969,0.417,3.504,1.253,4.605
	c0.834,1.102,1.946,1.652,3.335,1.652c1.406,0,2.531-0.557,3.375-1.67c0.844-1.113,1.266-2.654,1.266-4.623
	c0-1.852-0.418-3.334-1.253-4.447c-0.835-1.113-1.938-1.67-3.309-1.67c-1.424,0-2.558,0.563-3.401,1.688
	C354.416,457.146,353.994,458.634,353.994,460.485z"/>
<path style="fill:#FFFFFF;" d="M401.165,489.067v9.176h-25.972c0.281-3.469,1.125-6.756,2.531-9.861
	c1.406-3.105,4.184-7.225,8.332-12.357c3.34-4.148,5.388-6.961,6.144-8.438c1.02-2.039,1.529-4.055,1.529-6.047
	c0-2.203-0.444-3.897-1.332-5.08s-2.113-1.775-3.678-1.775c-1.547,0-2.777,0.621-3.691,1.863c-0.914,1.242-1.441,3.305-1.582,6.188
	l-7.383-0.984c0.439-5.438,1.819-9.34,4.14-11.707c2.32-2.367,5.221-3.551,8.701-3.551c3.814,0,6.811,1.371,8.991,4.113
	c2.18,2.742,3.27,6.152,3.27,10.23c0,2.32-0.313,4.529-0.936,6.627c-0.625,2.098-1.613,4.295-2.967,6.592
	c-0.897,1.523-2.514,3.715-4.852,6.574c-2.338,2.859-3.819,4.758-4.443,5.695c-0.624,0.938-1.129,1.852-1.516,2.742H401.165z"/>
<path style="fill:#FFFFFF;" d="M406.28,484.989l7.383-1.02c0.211,2.227,0.835,3.99,1.872,5.291c1.037,1.301,2.232,1.951,3.586,1.951
	c1.547,0,2.856-0.838,3.929-2.514c1.072-1.676,1.608-4.201,1.608-7.576c0-3.164-0.532-5.537-1.595-7.119
	c-1.064-1.582-2.448-2.373-4.153-2.373c-2.127,0-4.034,1.254-5.722,3.762l-6.012-1.16l3.797-26.824h19.591v9.246H416.59l-1.16,8.754
	c1.652-1.102,3.34-1.652,5.063-1.652c3.287,0,6.073,1.594,8.358,4.781c2.285,3.188,3.428,7.324,3.428,12.41
	c0,4.242-0.923,8.027-2.768,11.355c-2.514,4.547-6.003,6.82-10.468,6.82c-3.568,0-6.478-1.277-8.728-3.832
	C408.064,492.735,406.72,489.302,406.28,484.989z"/>
<path style="fill:#FFFFFF;" d="M448.731,446.493c3.744,0,6.671,1.781,8.78,5.344c2.514,4.219,3.771,11.215,3.771,20.988
	c0,9.75-1.266,16.758-3.797,21.023c-2.092,3.516-5.01,5.273-8.754,5.273c-3.762,0-6.794-1.928-9.097-5.783
	c-2.303-3.855-3.454-10.729-3.454-20.619c0-9.703,1.266-16.688,3.797-20.953C442.069,448.251,444.987,446.493,448.731,446.493z
	 M448.731,454.685c-0.896,0-1.696,0.381-2.399,1.143c-0.703,0.762-1.248,2.127-1.635,4.096c-0.51,2.555-0.765,6.855-0.765,12.902
	c0,6.047,0.229,10.201,0.686,12.463c0.457,2.262,1.032,3.768,1.727,4.518c0.694,0.75,1.49,1.125,2.387,1.125
	c0.897,0,1.696-0.381,2.4-1.143c0.703-0.762,1.248-2.127,1.635-4.096c0.51-2.531,0.765-6.82,0.765-12.867
	c0-6.047-0.229-10.201-0.686-12.463c-0.457-2.262-1.033-3.773-1.727-4.535C450.423,455.065,449.628,454.685,448.731,454.685z"/>
<path style="fill:#FFFFFF;" d="M401.681,379.946c48.064-0.897,72.743-38.259,80.3-52.22c-4.216-39.54-37.676-70.339-78.336-70.339
	c-43.514,0-78.789,35.275-78.789,78.79c0,3.868,0.284,7.67,0.823,11.389C340.681,362.76,365.319,379.352,401.681,379.946z"/>
<path style="fill:#C2C3C6;" d="M401.681,379.946c-36.362-0.594-61-17.186-76.003-32.38c5.52,38.115,38.321,67.399,77.967,67.399
	c43.515,0,78.788-35.276,78.788-78.788c0-2.855-0.156-5.674-0.452-8.451C474.424,341.686,449.745,379.048,401.681,379.946z"/>
<path d="M443.402,404.186c11.181-6.551,20.61-15.768,27.394-26.796l-19.346,1.051L443.402,404.186z"/>
<path d="M390.443,386.388l-29.897,8.295l0.303,7.63c12.326,7.988,27.015,12.65,42.795,12.65c2.149,0,4.267-0.11,6.368-0.281
	l2.723-2.371L390.443,386.388z"/>
<path d="M347.414,339.557l-15.036-21.258l-4.907-2.277c-1.701,6.433-2.612,13.186-2.612,20.153c0,10.646,2.122,20.793,5.949,30.059
	l5.891,0.281L347.414,339.557z"/>
<path d="M460.369,281.523c-9.162-9.505-20.675-16.723-33.62-20.686l13.637,18.926L460.369,281.523z"/>
<path d="M473.742,323.311l8.683,12.538c-0.04-11.042-2.368-21.548-6.517-31.08L473.742,323.311z"/>
<path d="M387.717,259c-17.498,3.592-32.869,12.998-44.037,26.099l28.964-7.066L387.717,259z"/>
<path style="fill:#E5E6E9;" d="M351.388,325.215c-3.617-0.926-8.453-4.689-11.872-9.672l-7.139,2.756l15.036,21.258l30.76-7.258
	l4.088-7.004C371.957,325.734,355.365,326.228,351.388,325.215z"/>
<polygon points="378.174,332.298 396.839,300.326 426.736,301.019 446.956,325.559 430.365,357.183 398.224,359.431 "/>
<path style="fill:#737B7F;" d="M425.7,308.276h-26.96l-6.442,10.835c4.181,3.249,9.641,3.511,16.813,3.511
	c19.983,0,22.983-4.666,22.983-6.914C432.094,313.463,429.028,310.373,425.7,308.276z"/>
<path style="fill:#E5E6E9;" d="M469.768,331.262c-7.136,21.415-14.343,24.883-24.196,33.18l8.126,9.334l16.07-2.075
	c5.576-7.13,8.785-15.037,9.161-28.316L469.768,331.262z"/>
<path style="fill:#E5E6E9;" d="M442.762,368.781c-12.646,4.977-30.683,7.369-44.026,2.149l-2.589,12.522l16.588,17.454l22.988-4.837
	l13.824-20.392L442.762,368.781z"/>
<path style="fill:#E5E6E9;" d="M355.183,341.807l-12.782,25.915c5.918,8.054,16.063,18.152,18.493,19.704l23.329-7.431l4.222-13.884
	c-10.695-2.204-16.394-4.889-20.119-7.374C364.344,356.087,360.604,350.022,355.183,341.807z"/>
<path style="fill:#E5E6E9;" d="M424.695,282.821c-4.034,3.2-9.293,5.237-16.968,5.237c-7.568,0-13.245-1.037-17.816-3.554
	l-9.316,2.169l12.96,11.408h34.22l9.851-13.652L424.695,282.821z"/>
<path style="fill:#E5E6E9;" d="M464.066,298.082c2.719,5.95,4.994,11.078,5.091,18.015l4.776,7.778l2.062-18.914
	c-3.782-8.75-9.109-16.671-15.626-23.437l-11.271-0.992C455.135,285.628,461.308,292.042,464.066,298.082z"/>
<path style="fill:#C2C3C6;" d="M344.667,284.858l-0.987,0.242c-7.543,8.846-13.167,19.37-16.22,30.95l3.474,1.589
	C334.827,305.688,339.569,294.236,344.667,284.858z"/>
</svg>
