<svg enable-background="new 0 0 612 792" viewBox="0 0 612 792" xmlns="http://www.w3.org/2000/svg"><path d="m-124.026 22.563v456.542c0 18.505 38.778 54.638 80.199 64.334 41.423 9.695 103.996-2.644 132.199 11.458 27.215 13.606 32.272 34.585 32.593 36.036.32-1.452 5.375-22.43 32.593-36.036 28.201-14.102 90.773-1.763 132.196-11.458 41.421-9.696 80.199-45.829 80.199-64.334 0-18.51 0-456.542 0-456.542z" fill="#0066a0"/><path d="m-58.271 152.823c32.224 4.346 61.979-18.331 66.325-50.555 4.352-32.221-18.328-61.975-50.552-66.325-32.221-4.349-61.979 18.33-66.325 50.555-4.349 32.222 18.331 61.976 50.552 66.325z"/><path d="m-13.115 58.936-21.562-5.337-5.743 22.764 11.547 20.536 21.239 4.523 7.645-16.655z" fill="#fff"/><path d="m-64.909 79.404-.19.222 23.151-4.153 5.713-22.657-10.221-10.803-27.538 6.991-7.838 16.081z" fill="#fff"/><path d="m-88.566 116.499 19.267-12.201 3.194-23.679-16.804-14.218-14.154 11.031-3.608 26.539z" fill="#fff"/><path d="m-47.52 115.562-20.93-9.789-19.285 12.214 3.944 17.344 17.976 10.905 22.405-6.247z" fill="#fff"/><path d="m-7.838 103.117-21.503-4.579-16.344 17.664 3.961 23.559 18.458.203 19.712-19.925z" fill="#fff"/><path d="m6.226 85.926-4.767-.236-7.704 16.789 4.315 17.037 2.773.396c2.735-5.477 4.645-11.475 5.507-17.871.741-5.488.657-10.896-.124-16.115z" fill="#fff"/><path d="m-42.333 141.456-22.528 6.28-.167 1.976c2.275.6 4.599 1.082 6.987 1.405 12.707 1.714 25.016-.898 35.442-6.704l-.55-2.746z" fill="#fff"/><path d="m-83.565 64.757 7.905-16.215-3.996-3.313c-10.024 5.986-18.168 14.975-23.032 25.908l4.869 4.73z" fill="#fff"/><path d="m-89.475 118.009-12.097-12.523-3.971 4.199c2.743 9.835 8.071 18.72 15.303 25.757l4.608-.537z" fill="#fff"/><path d="m-34.848 51.806 21.95 5.434 1.908-4.348c-8.427-8.022-19.35-13.571-31.737-15.243-.84-.113-1.677-.2-2.512-.275l-.38 3.051z" fill="#fff"/><path d="m162.634 513.536h-82.491l-2.796 13.774h88.083z" fill="#dfbc41"/><path d="m155.587 478.808h-68.398l-3.562 17.55h75.522z" fill="#dfbc41"/><path d="m159.496 498.061h-76.213l-2.795 13.773h81.8z" fill="#dfbc41"/><path d="m168.186 540.905-2.413-11.893h-88.77l-2.415 11.893z" fill="#dfbc41"/><path d="m159.149 496.358h-75.522l-.344 1.703h76.213z"/><path d="m162.288 511.834h-81.8l-.345 1.702h82.491z"/><path d="m165.43 527.31h-88.083l-.344 1.702h88.77z"/><path d="m357.182 478.76-5.398-172.747v-1.147h-37.767v1.147l-1.066 34.199h-33.137v-55.973h-55.221v-1.703h55.136l-.825-7.619h6.895v-41.954h-11.466c-.968-2.865-17.21-50.921-20.834-61.631 2.17-.191 3.879-1.994 3.879-4.214 0-2.349-1.904-4.251-4.251-4.251-2.351 0-4.253 1.903-4.253 4.251 0 2.006 1.394 3.678 3.262 4.124-3.565 10.547-19.892 58.849-20.863 61.721h-.905c-7.079-58.206-22.409-184.279-22.954-188.704-.649 5.285-19.777 160.495-22.936 186.157h-3.689v-54.898l-21.6-19.799v-51.298l-36.903-45.901-38.697 45.899v51.298l-21.6 19.799-.095 54.035h-4.755l-15.849 39.561v71.099h-24.305v-55.973h-54.021v55.973h-33.139l-1.065-34.199v-1.147h-37.764v1.147l-5.401 173.495h48.566l-.02-.702h139.971c0-26.012 0-124.549 0-138.592 0-26.101 18.327-48.256 47.724-48.256 29.401 0 47.502 21.255 47.502 48.256v138.592z" fill="#dfbc41"/><path d="m26.737 368.04h-11.662l.301-.561c-4.843-2.572-22.94-10.953-52.427-10.955-29.489.002-47.587 8.383-52.428 10.955l.298.561h-12.062-.847v.85 119.991c0 5.403 10.679 15.163 21.601 17.734 5.023 1.183 11.13 1.142 17.034 1.104 6.931-.045 13.48-.087 17.309 1.839 6.787 3.416 8.016 8.673 8.065 8.894l1.66-.002c.05-.22 1.265-5.469 8.063-8.892 3.833-1.926 10.377-1.884 17.308-1.839 5.908.038 12.015.079 17.037-1.104 10.922-2.572 21.603-12.329 21.603-17.734v-119.991-.85z"/><path d="m-87.782 368.04h50.528.003 50.927c-6.045-3.011-23.427-10.239-50.727-10.241-27.304.002-44.686 7.23-50.731 10.241z" fill="#c94d38"/><path d="m5.593 504.961c-4.821 1.135-10.827 1.098-16.63 1.06-7.14-.048-13.887-.091-18.083 2.019-4.805 2.418-7.082 5.661-8.133 7.816-1.051-2.155-3.332-5.402-8.128-7.816-4.199-2.11-10.943-2.067-18.083-2.019-5.806.038-11.81.076-16.634-1.06-10.807-2.548-20.292-11.824-20.292-16.08v-119.139h63.14 63.135v119.139c-.001 4.259-9.483 13.534-20.292 16.08z" fill="#0066a0"/><path d="m20.56 398.848c0-2.016-1.009-3.953-2.761-5.307-.621-.479-1.319-.846-2.05-1.13.732-.288 1.43-.652 2.05-1.132 1.753-1.354 2.761-3.288 2.761-5.307 0-3.885-3.54-7.043-7.894-7.043-.184 0-.35.02-.497.038-.059.008-.111.013-.162.018-.04-.005-.078-.01-.12-.016-.162-.024-.349-.046-.545-.046-2.728 0-5.073 1.549-6.112 3.752-1.044-2.203-3.386-3.752-6.115-3.752-2.697 0-5.014 1.516-6.074 3.679-1.058-2.163-3.373-3.679-6.069-3.679-2.697 0-5.014 1.516-6.073 3.679-1.06-2.163-3.374-3.679-6.069-3.679-2.699 0-5.015 1.516-6.074 3.679-1.06-2.163-3.374-3.679-6.072-3.679-2.699 0-5.013 1.516-6.071 3.679-1.059-2.163-3.373-3.679-6.071-3.679-2.697 0-5.013 1.516-6.072 3.679-1.058-2.163-3.373-3.679-6.071-3.679-2.697 0-5.011 1.516-6.071 3.679-1.059-2.163-3.373-3.679-6.071-3.679-2.683 0-4.987 1.501-6.051 3.644-1.069-2.143-3.372-3.644-6.052-3.644-.201 0-.383.022-.546.046-.043.005-.081.01-.119.016-.054-.005-.106-.01-.161-.018-.149-.019-.319-.038-.499-.038-4.353 0-7.892 3.157-7.892 7.043 0 2.019 1.002 3.953 2.757 5.307.621.479 1.319.844 2.05 1.132-.732.285-1.43.651-2.05 1.13-1.755 1.354-2.757 3.291-2.757 5.307 0 2.017 1.002 3.953 2.757 5.307.621.479 1.319.848 2.05 1.133-.732.285-1.43.652-2.05 1.129-1.755 1.354-2.757 3.291-2.757 5.307 0 2.018 1.002 3.952 2.757 5.308.621.478 1.321.844 2.053 1.129-.732.287-1.43.653-2.053 1.131-1.755 1.357-2.757 3.291-2.757 5.308s1.002 3.951 2.757 5.307c.621.477 1.321.844 2.053 1.132-.732.285-1.43.65-2.053 1.13-1.755 1.356-2.757 3.288-2.757 5.304 0 2.019 1.002 3.953 2.757 5.307.621.48 1.319.848 2.05 1.133-.732.285-1.43.652-2.05 1.131-1.755 1.354-2.757 3.288-2.757 5.307 0 2.018 1.002 3.954 2.757 5.306.621.478 1.319.847 2.05 1.131-.732.288-1.43.654-2.05 1.132-1.755 1.354-2.757 3.288-2.757 5.308 0 2.017 1.002 3.951 2.757 5.307.621.477 1.319.841 2.05 1.129-.729.288-1.43.653-2.05 1.13-1.755 1.357-2.757 3.289-2.757 5.307 0 2.016 1.002 3.953 2.757 5.307.621.477 1.319.844 2.05 1.129-.732.288-1.43.654-2.05 1.133-1.755 1.354-2.757 3.288-2.757 5.307 0 3.883 3.539 7.045 7.892 7.045.186 0 .362-.022.514-.04.051-.005.095-.013.141-.016.041.003.081.011.124.013.164.022.345.046.546.046 2.68 0 4.983-1.497 6.052-3.643 1.064 2.146 3.368 3.643 6.051 3.643 2.698 0 5.013-1.516 6.071-3.676 1.06 2.16 3.374 3.676 6.071 3.676 2.698 0 5.013-1.516 6.071-3.676 1.059 2.16 3.374 3.676 6.072 3.676s5.013-1.516 6.071-3.676c1.059 2.16 3.373 3.676 6.071 3.676 2.697 0 5.012-1.516 6.072-3.676 1.058 2.16 3.375 3.676 6.074 3.676 2.695 0 5.009-1.516 6.069-3.676 1.059 2.16 3.375 3.676 6.073 3.676 2.696 0 5.01-1.516 6.069-3.676 1.06 2.16 3.377 3.676 6.074 3.676 2.729 0 5.07-1.546 6.115-3.752 1.039 2.206 3.383 3.752 6.112 3.752.196 0 .383-.024.545-.046.045-.002.083-.01.123-.013.048.003.094.011.141.016.154.018.325.04.515.04 4.354 0 7.894-3.162 7.894-7.045 0-2.019-1.009-3.953-2.761-5.307-.621-.479-1.319-.846-2.05-1.133.732-.285 1.43-.652 2.05-1.129 1.753-1.354 2.761-3.29 2.761-5.307 0-2.018-1.006-3.951-2.761-5.307-.623-.477-1.319-.843-2.05-1.13.732-.288 1.427-.652 2.05-1.129 1.755-1.357 2.761-3.291 2.761-5.307 0-2.02-1.009-3.954-2.761-5.308-.621-.478-1.319-.844-2.05-1.132.732-.285 1.43-.653 2.05-1.131 1.753-1.352 2.761-3.288 2.761-5.306 0-2.019-1.009-3.953-2.761-5.307-.621-.48-1.319-.847-2.05-1.131.732-.285 1.43-.653 2.05-1.133 1.753-1.354 2.761-3.288 2.761-5.307 0-2.017-1.006-3.948-2.761-5.304-.623-.48-1.319-.846-2.05-1.13.732-.288 1.43-.655 2.05-1.132 1.755-1.356 2.761-3.291 2.761-5.307 0-2.017-1.006-3.952-2.761-5.308-.623-.478-1.319-.844-2.05-1.131.732-.285 1.43-.651 2.05-1.129 1.755-1.357 2.761-3.29 2.761-5.308 0-2.016-1.009-3.953-2.761-5.307-.621-.477-1.319-.844-2.05-1.129.732-.285 1.43-.653 2.05-1.133 1.752-1.354 2.761-3.291 2.761-5.307z"/><path d="m-68.26 489.741c0 2.798-2.461 5.073-5.482 5.073-3.023 0-5.481-2.275-5.481-5.073v-104.531c0-2.796 2.458-5.073 5.481-5.073 3.021 0 5.482 2.276 5.482 5.073z" fill="#c94d38"/><path d="m-43.975 489.741c0 2.798-2.459 5.073-5.482 5.073-3.02 0-5.481-2.275-5.481-5.073v-104.531c0-2.796 2.461-5.073 5.481-5.073 3.022 0 5.482 2.276 5.482 5.073z" fill="#c94d38"/><path d="m-19.69 489.741c0 2.798-2.458 5.073-5.478 5.073-3.024 0-5.484-2.275-5.484-5.073v-104.531c0-2.796 2.461-5.073 5.484-5.073 3.02 0 5.478 2.276 5.478 5.073z" fill="#c94d38"/><path d="m4.595 489.741c0 2.798-2.456 5.073-5.479 5.073s-5.481-2.275-5.481-5.073v-104.531c0-2.796 2.458-5.073 5.481-5.073 3.024 0 5.479 2.276 5.479 5.073z" fill="#c94d38"/><path d="m-56.117 489.741c0 2.798-2.461 5.073-5.482 5.073-3.023 0-5.481-2.275-5.481-5.073v-104.531c0-2.796 2.458-5.073 5.481-5.073 3.021 0 5.482 2.276 5.482 5.073z" fill="#dfbc41"/><path d="m-31.833 489.741c0 2.798-2.458 5.073-5.481 5.073-3.02 0-5.482-2.275-5.482-5.073v-104.531c0-2.796 2.462-5.073 5.482-5.073 3.023 0 5.481 2.276 5.481 5.073z" fill="#dfbc41"/><path d="m-7.548 489.741c0 2.798-2.458 5.073-5.479 5.073-3.023 0-5.481-2.275-5.481-5.073v-104.531c0-2.796 2.458-5.073 5.481-5.073 3.021 0 5.479 2.276 5.479 5.073z" fill="#dfbc41"/><path d="m11.342 380.137c.12 0 .252.018.391.035.068.008.136.019.209.026l.056.004.055-.003c.093-.009.179-.02.263-.03.123-.015.242-.027.35-.027 3.684 0 6.682 2.612 6.682 5.83 0 1.641-.835 3.224-2.287 4.346-1.242.958-2.804 1.484-4.395 1.484v1.213c1.59 0 3.153.528 4.395 1.486 1.452 1.124 2.287 2.705 2.287 4.346 0 1.642-.835 3.226-2.287 4.347-1.242.96-2.804 1.486-4.395 1.486v1.212c1.59 0 3.153.527 4.395 1.485 1.452 1.123 2.287 2.707 2.287 4.346s-.835 3.223-2.287 4.348c-1.242.958-2.804 1.485-4.395 1.485v1.212c1.59 0 3.149.527 4.395 1.484 1.452 1.122 2.287 2.709 2.287 4.348s-.835 3.224-2.287 4.347c-1.242.958-2.804 1.484-4.395 1.484v1.213c1.59 0 3.149.528 4.395 1.486 1.452 1.121 2.287 2.707 2.287 4.344 0 1.641-.835 3.225-2.287 4.346-1.242.96-2.804 1.486-4.395 1.486v1.213c1.59 0 3.153.526 4.395 1.487 1.452 1.122 2.287 2.705 2.287 4.347 0 1.641-.835 3.223-2.287 4.346-1.242.96-2.804 1.486-4.395 1.486v1.213c1.59 0 3.153.526 4.395 1.484 1.452 1.122 2.287 2.706 2.287 4.348 0 1.639-.835 3.224-2.287 4.347-1.244.955-2.804 1.482-4.395 1.482v1.212c1.59 0 3.149.528 4.395 1.486 1.452 1.124 2.287 2.708 2.287 4.347 0 1.641-.835 3.224-2.287 4.346-1.242.958-2.804 1.486-4.395 1.486v1.213c1.59 0 3.153.526 4.395 1.484 1.452 1.121 2.287 2.705 2.287 4.346 0 3.215-2.998 5.833-6.682 5.833-.114 0-.238-.016-.369-.03-.076-.01-.154-.021-.239-.026l-.056-.007-.06.007c-.073.008-.141.016-.209.023-.139.02-.271.035-.391.035-3.021 0-5.482-2.275-5.482-5.073v-104.531c0-2.796 2.461-5.073 5.482-5.073z" fill="#dfbc41"/><path d="m-80.365 385.21v104.531c0 2.798-2.458 5.073-5.479 5.073-.12 0-.252-.016-.393-.035-.065-.008-.136-.016-.207-.023l-.06-.007-.059.007c-.082.005-.163.016-.239.026-.131.015-.252.03-.367.03-3.684 0-6.682-2.618-6.682-5.833 0-1.641.834-3.225 2.29-4.346 1.24-.958 2.8-1.484 4.392-1.484v-1.213c-1.592 0-3.152-.528-4.392-1.486-1.456-1.123-2.29-2.705-2.29-4.346 0-1.639.834-3.223 2.29-4.347 1.24-.958 2.803-1.486 4.392-1.486v-1.212c-1.592 0-3.152-.527-4.392-1.482-1.456-1.123-2.29-2.708-2.29-4.347 0-1.641.834-3.225 2.29-4.348 1.24-.958 2.8-1.484 4.392-1.484v-1.213c-1.592 0-3.152-.526-4.392-1.486-1.456-1.124-2.29-2.705-2.29-4.346 0-1.642.834-3.225 2.29-4.347 1.24-.96 2.8-1.487 4.392-1.487v-1.213c-1.592 0-3.152-.525-4.392-1.486-1.456-1.121-2.29-2.705-2.29-4.346 0-1.636.834-3.223 2.29-4.344 1.24-.958 2.803-1.486 4.392-1.486v-1.213c-1.592 0-3.152-.526-4.392-1.484-1.456-1.122-2.29-2.708-2.29-4.347s.834-3.225 2.29-4.348c1.24-.957 2.803-1.484 4.392-1.484v-1.212c-1.592 0-3.152-.527-4.392-1.485-1.456-1.125-2.29-2.709-2.29-4.348s.834-3.224 2.29-4.346c1.24-.958 2.8-1.485 4.392-1.485v-1.212c-1.592 0-3.152-.525-4.392-1.486-1.456-1.121-2.29-2.705-2.29-4.347 0-1.641.834-3.222 2.29-4.346 1.24-.958 2.8-1.486 4.392-1.486v-1.213c-1.592 0-3.152-.526-4.392-1.484-1.456-1.122-2.29-2.705-2.29-4.346 0-3.217 2.998-5.83 6.682-5.83.107 0 .226.013.353.027.08.01.166.021.256.03l.059.003.057-.004c.071-.008.141-.019.207-.026.141-.017.273-.035.393-.035 3.021 0 5.479 2.277 5.479 5.073z" fill="#dfbc41"/><path d="m-71.241 297.313h2.778v-26.646h-3.242c-2.458-6.09-14.013-34.701-17.457-43.23 1.849-.461 3.222-2.121 3.222-4.113 0-2.35-1.901-4.253-4.251-4.253s-4.251 1.904-4.251 4.253c0 2.038 1.432 3.735 3.344 4.15-3.462 8.575-14.987 37.11-17.443 43.192h-4.145v26.646h3.681v5.85h37.764z" fill="#dfbc41"/><path d="m16.076 274.917h6.207v-41.954h-10.78c-.969-2.87-17.273-51.106-20.85-61.696 1.905-.419 3.337-2.114 3.337-4.149 0-2.349-1.906-4.251-4.256-4.251-2.347 0-4.251 1.903-4.251 4.251 0 2.192 1.665 3.975 3.797 4.208-3.616 10.695-19.868 58.773-20.835 61.638h-9.662v41.954h5.089l-.822 7.619h53.854z" fill="#dfbc41"/><path d="m351.784 297.313h2.786v-26.646h-3.25c-2.453-6.077-13.966-34.578-17.438-43.175 1.952-.388 3.422-2.105 3.422-4.167 0-2.35-1.904-4.253-4.253-4.253-2.347 0-4.251 1.904-4.251 4.253 0 1.964 1.338 3.601 3.149 4.09-3.435 8.501-15.007 37.159-17.468 43.253h-4.134v26.646h3.67v5.85h37.767z" fill="#dfbc41"/><g fill="#fff"><path d="m206.686 50.154c-.404-3.331-.656-5.396-.719-5.895-.651 5.285-19.777 160.495-22.937 186.157h1.445c2.845-23.075 18.59-150.876 22.211-180.262z"/><path d="m-37.037 283.315.908-8.398c-.517 0-.992 0-1.445 0l-.907 8.398v56.896h1.444z"/><path d="m231.271 232.962c.966-2.859 17.143-50.713 20.808-61.558-.008-.022-.018-.053-.025-.073.02-.002.036-.007.055-.009.008-.025.016-.056.025-.081-1.868-.446-3.262-2.118-3.262-4.124 0-2.1 1.525-3.835 3.529-4.178-.234-.04-.477-.073-.724-.073-2.347 0-4.251 1.903-4.251 4.251 0 2.006 1.392 3.678 3.263 4.124-3.565 10.547-19.893 58.849-20.864 61.721z"/><path d="m61.989 175.517 21.6-19.799v-51.299l37.959-45.022-.707-.877-38.697 45.899v51.299l-21.599 19.799v54.898h1.444z"/><path d="m314.017 306.012v-8.7c-.532 0-1.014 0-1.445 0v8.7l-1.066 34.199h1.445z"/><path d="m310.347 270.666h-1.445v26.646h1.445z"/><path d="m314.481 270.666c2.461-6.094 14.034-34.752 17.468-43.253-1.811-.49-3.149-2.126-3.149-4.09 0-2.103 1.525-3.836 3.529-4.18-.236-.04-.477-.073-.724-.073-2.347 0-4.254 1.904-4.254 4.253 0 1.964 1.342 3.601 3.152 4.09-3.435 8.501-15.007 37.159-17.471 43.253z"/><path d="m-31.555 232.962c.967-2.859 17.144-50.715 20.808-61.558-.01-.028-.023-.065-.033-.093-2.104-.258-3.737-2.022-3.737-4.195 0-2.1 1.528-3.835 3.53-4.178-.237-.04-.473-.073-.72-.073-2.351 0-4.254 1.903-4.254 4.251 0 2.192 1.666 3.975 3.794 4.208-3.615 10.696-19.865 58.774-20.833 61.638z"/><path d="m41.29 269.112 15.778-39.56h-1.443l-15.781 39.56v71.099h1.446z"/><path d="m-109.005 297.313c-.529 0-1.013 0-1.447 0v8.7l-5.398 173.495h1.444l5.401-173.495z"/><path d="m-41.217 232.962h-1.444v41.954h1.444z"/><path d="m-112.686 270.666h-1.447v26.646h1.447z"/><path d="m-108.54 270.666c2.455-6.082 13.981-34.617 17.443-43.192-1.912-.415-3.344-2.113-3.344-4.15 0-2.103 1.525-3.836 3.527-4.18-.234-.04-.473-.073-.723-.073-2.348 0-4.251 1.904-4.251 4.253 0 2.038 1.432 3.735 3.345 4.15-3.462 8.575-14.989 37.11-17.444 43.192z"/></g><path d="m257.377 167.117c0 1.845-1.185 3.383-2.827 3.968.156.058.313.118.475.156-.214.635-.477 1.413-.778 2.303 4.693 13.879 19.169 56.719 20.085 59.419h2.889c-.968-2.865-17.21-50.921-20.832-61.631 2.168-.191 3.876-1.994 3.876-4.214 0-2.349-1.904-4.251-4.251-4.251-.509 0-.99.104-1.445.27 1.635.592 2.808 2.141 2.808 3.98z"/><path d="m159.187 104.419v51.299l21.6 19.799v54.898h2.892v-54.898l-21.602-19.799v-51.299l-36.899-45.899-1.481 1.755z"/><path d="m288.688 274.917v-41.954h-2.889v41.954z"/><path d="m337.304 223.323c0 1.829-1.155 3.377-2.772 3.979.101.038.2.082.306.111-.149.365-.317.784-.494 1.219 3.927 9.725 14.621 36.201 16.976 42.033h2.889c-2.453-6.077-13.963-34.578-17.435-43.175 1.95-.388 3.419-2.105 3.419-4.167 0-2.35-1.904-4.253-4.251-4.253-.512 0-.993.106-1.448.27 1.637.592 2.81 2.143 2.81 3.983z"/><path d="m279.814 340.211h2.889v-56.896l-.907-8.398c-.865 0-1.833 0-2.892 0l.91 8.398z"/><path d="m278.904 274.917.91 8.398"/><path d="m16.985 340.211h2.892v-56.896l-.908-8.398c-.844 0-1.81 0-2.892 0l.908 8.398z"/><path d="m25.173 274.917v-41.954h-2.889v41.954z"/><path d="m-85.94 223.323c0 1.843-1.185 3.389-2.824 3.977.182.068.363.131.555.174-.141.351-.3.747-.469 1.162 3.928 9.722 14.618 36.198 16.973 42.03h2.892c-2.458-6.09-14.015-34.701-17.46-43.23 1.852-.461 3.225-2.121 3.225-4.113 0-2.35-1.904-4.253-4.254-4.253-.508 0-.993.106-1.444.27 1.634.592 2.806 2.143 2.806 3.983z"/><path d="m354.673 306.012v-8.7h2.789v-26.646h-2.892v26.646s-1.077 0-2.786 0v8.7l5.398 172.747h2.889z"/><path d="m-71.241 297.313v8.7l1.065 34.199h2.891l-1.064-34.199v-8.7h2.776v-26.646h-2.889v26.646c-.001 0-1.073 0-2.779 0z"/><path d="m-6.01 167.117c0 1.829-1.16 3.375-2.781 3.975.307.108.624.195.96.232-.207.616-.464 1.368-.749 2.219 4.697 13.891 19.172 56.719 20.082 59.419h2.892c-.97-2.87-17.273-51.106-20.854-61.696 1.906-.419 3.339-2.114 3.339-4.149 0-2.349-1.904-4.251-4.254-4.251-.51 0-.99.104-1.444.27 1.634.593 2.809 2.142 2.809 3.981z"/><path d="m36.882 345.959c-2.182-2.482-3.973-3.439-5.445-2.884-2.582.97-2.783 6.343-2.781 8.072l-2.531.721-.204.059-.124.175-11.167 15.716c-3.127-1.676-21.28-10.651-51.684-10.657-30.4.005-48.558 8.98-51.68 10.657l-11.169-15.715-.123-.175-.205-.059-2.531-.721c.005-1.729-.199-7.103-2.783-8.072-1.47-.555-3.257.402-5.44 2.884-.958-1.364-3.152-4.884-2.544-7.859.295-1.432 1.232-2.574 2.786-3.399 3.939-2.083 7.856-.762 10.206 1.17 1.989 1.632 3.008 3.782 2.536 5.35l1.142.404c.017-.043 1.823-4.341 5.407-5.822 1.486-.613 3.092-.622 4.782-.103-1.592 1.568-5.132 5.491-5.197 9.454-.028 1.831.683 3.434 2.116 4.766 4.153 3.857 10.367 2.824 14.432.763l1.512-.774c4.14-2.141 6.641-3.429 12.047-2.902 4.679.456 9.893.545 13.101-2.276 3.053-2.685 4.775-8.719 2.336-12.186-1.349-1.918-3.758-2.775-6.139-2.18-1.905.471-3.315 1.792-3.882 3.539-1.745-1.58-1.967-3.426-1.805-4.767.358-2.979 2.898-6.104 5.909-7.274 2.17-.843 4.259-.537 5.879.858l.721.622.257-.92c1.029-3.711 4.533-13.348 8.333-13.375 3.788.027 7.293 9.664 8.324 13.375l.255.92.727-.622c1.618-1.395 3.706-1.7 5.877-.858 3.011 1.17 5.55 4.295 5.91 7.274.161 1.341-.061 3.187-1.809 4.767-.564-1.747-1.976-3.068-3.882-3.539-2.38-.596-4.788.262-6.137 2.18-2.441 3.467-.716 9.501 2.336 12.186 3.208 2.821 8.422 2.732 13.099 2.276 5.405-.526 7.906.762 12.049 2.902l1.516.774c4.059 2.061 10.277 3.094 14.429-.763 1.435-1.332 2.146-2.935 2.115-4.766-.065-3.963-3.605-7.886-5.198-9.454 1.688-.519 3.297-.51 4.783.103 3.587 1.481 5.391 5.779 5.408 5.822l1.139-.404c-.469-1.568.55-3.718 2.536-5.35 2.352-1.932 6.269-3.253 10.209-1.17 1.556.825 2.492 1.967 2.786 3.399.612 2.975-1.581 6.494-2.54 7.858z" fill="#dfbc41"/><path d="m13.846 335.407c-1.028-.136-2.1-.047-3.21.293 1.59 1.568 5.133 5.491 5.198 9.454.03 1.831-.681 3.434-2.116 4.766-1.525 1.417-3.33 2.168-5.206 2.458-.304.045-.615.08-.923.103.64.046 1.286.048 1.926 0 2.198-.165 4.354-.912 6.129-2.561 1.435-1.332 2.146-2.935 2.115-4.766-.065-3.963-3.605-7.886-5.198-9.454.435-.134.864-.23 1.285-.293z" fill="#fff"/><path d="m-100.026 351.927-.205-.059-2.531-.721c.005-1.712-.196-6.981-2.702-8.033-.353.125-.716.318-1.096.567 1.721 1.738 1.875 5.965 1.873 7.466l2.531.721.205.059.123.175 11.167 15.715c.311-.165.815-.42 1.421-.716l-10.661-14.999z" fill="#fff"/><path d="m-112.67 334.701c-1.556.825-2.491 1.967-2.786 3.399-.608 2.976 1.584 6.495 2.542 7.859.401-.458.784-.843 1.156-1.193-1.018-1.701-2.249-4.344-1.772-6.666.295-1.432 1.232-2.574 2.786-3.399 1.064-.562 2.122-.86 3.154-.98-1.601-.172-3.335.058-5.08.98z" fill="#fff"/><path d="m-47.031 321.482c.61.106 1.19.323 1.737.638 1.024-3.555 3.962-11.458 7.279-12.843-.318-.133-.635-.226-.961-.229-3.511.022-6.769 8.259-8.055 12.434z" fill="#fff"/><path d="m-54.166 321.863c-3.011 1.17-5.552 4.295-5.909 7.274-.162 1.341.06 3.187 1.805 4.767.171-.532.447-1.006.766-1.447-.67-1.177-.758-2.375-.644-3.32.358-2.979 2.898-6.104 5.909-7.274.466-.182.928-.298 1.384-.373-1.044-.187-2.166-.071-3.311.373z" fill="#fff"/><path d="m24.503 335.871c-.872.716-1.546 1.533-2.002 2.354.537.613.971 1.231 1.31 1.776.163-1.356 1.112-2.893 2.619-4.13 1.311-1.077 3.114-1.935 5.129-2.15-2.785-.328-5.339.741-7.056 2.15z" fill="#fff"/><path d="m41.35 338.1c-.293-1.432-1.23-2.574-2.786-3.399-1.747-.922-3.476-1.152-5.08-.98 1.029.12 2.09.418 3.153.98 1.556.825 2.492 1.967 2.786 3.399.474 2.322-.754 4.965-1.772 6.666.372.353.757.738 1.157 1.193.959-1.364 3.152-4.883 2.542-7.859z"/><path d="m-98.609 335.871c-1.717-1.409-4.268-2.478-7.051-2.15 2.011.214 3.817 1.073 5.123 2.15 1.511 1.237 2.456 2.774 2.623 4.13.049.432.03.844-.087 1.219l1.142.404c.008-.016.3-.708.87-1.623-.071-.569-.288-1.173-.621-1.776-.453-.821-1.126-1.638-1.999-2.354z"/><path d="m-19.938 321.863c-1.15-.444-2.269-.56-3.313-.373.454.076.917.192 1.384.373 3.011 1.17 5.55 4.295 5.91 7.274.113.945.022 2.143-.643 3.32.318.44.589.915.76 1.447 1.747-1.58 1.969-3.426 1.809-4.767-.356-2.978-2.898-6.104-5.907-7.274z"/><path d="m-23.518 344.731c-3.055-2.685-4.78-8.719-2.339-12.186.676-.957 1.614-1.65 2.68-2.029.318-.114.648-.191.985-.247-.655-.103-1.303-.105-1.926 0-1.47.247-2.791 1.034-3.665 2.276-2.441 3.467-.716 9.501 2.336 12.186 2.015 1.774 4.829 2.396 7.799 2.501.635.022 1.281.02 1.926 0-.26-.01-.51-.035-.766-.056-2.682-.18-5.189-.826-7.03-2.445z"/><path d="m21.884 340.001c.57.915.861 1.607.869 1.623l1.139-.404c-.111-.375-.136-.788-.082-1.219-.339-.545-.773-1.163-1.31-1.776-.834-.953-1.91-1.877-3.226-2.423-1.104-.453-2.279-.575-3.5-.396.535.073 1.064.186 1.571.396 2.163.893 3.674 2.807 4.539 4.199z"/><path d="m-87.825 349.92c-1.432-1.332-2.143-2.935-2.113-4.766.063-3.963 3.605-7.886 5.197-9.454-1.112-.34-2.181-.429-3.212-.293.423.063.849.159 1.283.293-1.592 1.568-5.132 5.491-5.197 9.454-.028 1.831.683 3.434 2.116 4.766 1.774 1.649 3.928 2.396 6.129 2.561.64.048 1.286.046 1.926 0-.31-.023-.617-.058-.925-.103-1.873-.29-3.677-1.041-5.204-2.458z"/><path d="m-28.724 322.423.255.92.727-.622c.272-.235.559-.429.857-.601-.059-.201-.119-.408-.189-.638-1.286-4.175-4.541-12.412-8.046-12.434-.327.002-.644.095-.966.229 3.317 1.385 6.25 9.286 7.275 12.843.027.099.062.21.087.303z"/><path d="m31.437 343.075c-.025.009-.051.027-.078.039-2.504 1.052-2.705 6.321-2.703 8.033l-2.531.721-.204.059-.124.175-10.657 14.999c.605.295 1.104.55 1.417.716l11.167-15.715.124-.175.204-.059 2.531-.721c-.003-1.5.152-5.728 1.872-7.466.246-.245.52-.438.833-.567-.666-.236-1.284-.253-1.851-.039z"/><path d="m344.255 368.04h-127.98-.85v120.841c0 5.406 10.681 15.163 21.605 17.734 5.02 1.183 11.126 1.142 17.03 1.104 6.931-.045 13.477-.087 17.31 1.839 6.799 3.424 8.015 8.673 8.063 8.892l1.661.002c.051-.221 1.278-5.478 8.066-8.894 3.83-1.926 10.378-1.884 17.306-1.839 5.908.038 12.015.079 17.037-1.104 10.922-2.572 21.602-12.331 21.602-17.734v-120.841z"/><path d="m-40.708 331.658c0-3.405 1.644-6.167 3.671-6.167.474 0 .925.162 1.342.436-.631-.863-1.427-1.402-2.305-1.402-2.027 0-3.671 2.764-3.671 6.169 0 2.609.968 4.831 2.33 5.731-.827-1.132-1.367-2.833-1.367-4.767z" fill="#fff"/><path d="m-34.878 326.691c.914 1.122 1.514 2.922 1.514 4.967 0 3.41-1.646 6.169-3.673 6.169-.333 0-.648-.098-.953-.236.605.746 1.346 1.201 2.157 1.201 2.028 0 3.671-2.761 3.671-6.168.001-2.849-1.153-5.225-2.716-5.933z"/><path d="m-16.511 338.534c1.904 0 3.532 1.109 4.332 2.703.773-1.661 2.448-2.824 4.395-2.824.63 0 1.225.128 1.775.348-.237-.575-.374-1.2-.374-1.861 0-2.679 2.181-4.859 4.861-4.859 2.678 0 4.856 2.18 4.856 4.859 0 1.863-1.066 3.467-2.61 4.284 2.348.132 4.239 1.929 4.525 4.236.881-.89 2.099-1.44 3.445-1.44 2.68 0 4.861 2.179 4.861 4.859s-2.181 4.858-4.861 4.858c-2.476 0-4.5-1.866-4.798-4.264-.879.885-2.1 1.438-3.446 1.438-2.445 0-4.452-1.823-4.79-4.178-.877.887-2.097 1.438-3.444 1.438-1.899 0-3.53-1.107-4.329-2.7-.774 1.661-2.446 2.82-4.397 2.82-2.678 0-4.859-2.177-4.859-4.858-.001-2.678 2.18-4.859 4.858-4.859zm-39.97 0c-1.901 0-3.535 1.109-4.332 2.703-.771-1.661-2.445-2.824-4.397-2.824-.625 0-1.221.128-1.772.348.239-.575.374-1.2.374-1.861 0-2.679-2.181-4.859-4.859-4.859-2.677 0-4.859 2.18-4.859 4.859 0 1.863 1.066 3.467 2.61 4.284-2.351.132-4.239 1.929-4.524 4.236-.882-.89-2.103-1.44-3.446-1.44-2.68 0-4.859 2.179-4.859 4.859s2.178 4.858 4.859 4.858c2.474 0 4.5-1.866 4.799-4.264.882.885 2.1 1.438 3.446 1.438 2.442 0 4.455-1.823 4.788-4.178.882.887 2.1 1.438 3.443 1.438 1.901 0 3.535-1.107 4.332-2.7.773 1.661 2.445 2.82 4.397 2.82 2.678 0 4.859-2.177 4.859-4.858 0-2.678-2.181-4.859-4.859-4.859z"/><path d="m5.048 348.838c0 2.01 1.634 3.646 3.646 3.646 2.013 0 3.646-1.636 3.646-3.646s-1.633-3.646-3.646-3.646c-2.012 0-3.646 1.637-3.646 3.646z" fill="#fff"/><circle cx="-81.686" cy="348.838" fill="#fff" r="3.646"/><path d="m-3.196 346.012c0 2.012 1.636 3.646 3.646 3.646 2.012 0 3.646-1.634 3.646-3.646 0-2.009-1.633-3.646-3.646-3.646-2.01 0-3.646 1.637-3.646 3.646z" fill="#fff"/><path d="m-69.796 346.012c0 2.012-1.636 3.646-3.646 3.646-2.013 0-3.649-1.634-3.649-3.646 0-2.009 1.636-3.646 3.649-3.646 2.01 0 3.646 1.637 3.646 3.646z" fill="#fff"/><path d="m-11.43 343.271c0 2.01 1.636 3.646 3.646 3.646 2.011 0 3.649-1.636 3.649-3.646s-1.637-3.646-3.649-3.646c-2.01 0-3.646 1.636-3.646 3.646z" fill="#fff"/><circle cx="-65.21" cy="343.271" fill="#fff" r="3.646"/><path d="m-20.157 343.392c0 2.01 1.636 3.646 3.646 3.646s3.648-1.636 3.648-3.646c0-2.009-1.639-3.645-3.648-3.645-2.01 0-3.646 1.636-3.646 3.645z" fill="#fff"/><path d="m-52.835 343.392c0 2.01-1.635 3.646-3.646 3.646-2.012 0-3.646-1.636-3.646-3.646 0-2.009 1.633-3.645 3.646-3.645 2.011 0 3.646 1.636 3.646 3.645z" fill="#fff"/><path d="m-5.168 336.899c0 2.01 1.635 3.646 3.646 3.646 2.01 0 3.646-1.636 3.646-3.646 0-2.009-1.636-3.646-3.646-3.646-2.011 0-3.646 1.638-3.646 3.646z" fill="#fff"/><path d="m-67.821 336.899c0 2.01-1.638 3.646-3.646 3.646-2.012 0-3.646-1.636-3.646-3.646 0-2.009 1.633-3.646 3.646-3.646 2.008 0 3.646 1.638 3.646 3.646z" fill="#fff"/><path d="m217.126 369.742v119.139c0 4.259 9.485 13.534 20.292 16.08 4.823 1.135 10.825 1.098 16.633 1.06 7.14-.048 13.885-.091 18.082 2.019 4.804 2.418 7.082 5.661 8.133 7.816 1.052-2.155 3.331-5.402 8.127-7.816 4.198-2.11 10.944-2.067 18.085-2.019 5.805.038 11.81.076 16.633-1.06 10.809-2.548 20.292-11.824 20.292-16.08v-119.139z" fill="#dfbc41"/><path d="m280.749 368.04h51.923c-4.253-2.257-22.437-10.876-52.126-10.879-29.693.002-47.873 8.622-52.129 10.879z" fill="#c94d38"/><path d="m-85.47 287.392h8.219v-16.726h7.15v-.482h-8.786v16.727h-6.583z" fill="#fff"/><path d="m-112.686 270.666h7.151v-.483h-8.79v26.648h1.639z" fill="#fff"/><path d="m-103.899 287.392h8.223v-16.444h8.567v-.481h-10.206v16.444h-6.584z" fill="#fff"/><path d="m-85.47 272.635h1.684v14.756h-1.684z"/><path d="m-103.899 272.35h1.687v15.042h-1.687z"/><path d="m-68.463 272.35v24.962s-13.291 0-22.111 0c-6.929 0-16.59 0-20.428 0v1.688h22.112 22.111v-26.65z"/><path d="m337.56 287.392h8.223v-16.726h7.151v-.482h-8.79v16.727h-6.584z" fill="#fff"/><path d="m310.347 270.666h7.148v-.483h-8.787v26.648h1.639z" fill="#fff"/><path d="m319.133 287.392h8.221v-16.444h8.568v-.481h-10.204v16.444h-6.585z" fill="#fff"/><path d="m337.56 272.635h1.687v14.756h-1.687z"/><path d="m319.133 272.35h1.686v15.042h-1.686z"/><path d="m354.57 272.35v24.962s-13.293 0-22.112 0c-6.929 0-16.59 0-20.425 0v1.688h22.112 22.112v-26.65z"/><path d="m-2.379 234.975h2.118v24.069h-2.118z"/><path d="m-29.593 259.043h13.039v-25.516h12.44v-.721h-14.174v25.513h-11.305z" fill="#fff"/><path d="m-2.379 259.043h13.04v-26.081h9.889v-.724h-11.623v26.081h-11.306z" fill="#fff"/><path d="m-41.217 232.962h9.888v-.724h-11.623v41.958h1.734v-41.234z" fill="#fff"/><path d="m-29.593 234.408h2.119v24.636h-2.119z"/><path d="m22.284 234.408v40.509s-23.486 0-31.75 0c-6.755 0-23.678 0-29.633 0v1.447h31.753 31.748v-41.956z"/><path d="m261.133 234.975h2.121v24.069h-2.121z"/><path d="m233.921 259.043h13.039v-25.516h12.441v-.721h-14.172v25.513h-11.308z" fill="#fff"/><path d="m261.133 259.043h13.043v-26.081h9.888v-.724h-11.623v26.081h-11.308z" fill="#fff"/><path d="m222.297 232.962h9.889v-.724h-11.623v41.958h1.734z" fill="#fff"/><path d="m233.921 234.408h2.12v24.636h-2.12z"/><path d="m285.798 234.408v40.509s-23.486 0-31.75 0c-6.757 0-23.675 0-29.63 0v1.447h31.75 31.749v-41.956z"/><path d="m230.366 232.962h.905c.152-.447.673-1.992 1.46-4.316-7.282-59.881-21.896-180.068-22.427-184.387-.101.802-.624 5.068-1.455 11.792 4.059 33.364 15.635 128.551 21.517 176.911z"/><path d="m-109.005 303.163h37.764v1.702h-37.764z"/><path d="m176.571 169.158h-107.563l-1.873 1.7h109.436z"/><path d="m168.517 162.059h-91.841l-1.874 1.699h93.715z"/><path d="m161.33 154.771h-38.054v-11.034h36.711v-1.7h-76.37v1.7h37.961v11.034h-37.918v1.146l-.936.555h78.606z"/><path d="m159.919 128.122h-36.643v-9.858h36.643v-1.699h-19.502v-11.271h19.502v-1.702h-75.491l-.839.827.07.874h21.191v11.271h-21.233v1.699h37.961v9.858h-37.961v1.699h76.302zm-53.368-22.828h32.164v11.271h-32.164z"/><path d="m16.985 283.315-.081-.779h-53.855l-.086.779v.923h54.022z"/><path d="m223.871 284.238h55.943v-.923l-.086-.779h-55.857z"/><path d="m314.017 303.163h37.767v1.702h-37.767z"/><path d="m96.505 117.585h7.854v25.259h-7.854z" fill="#c94d38"/><path d="m104.359 116.948h-8.492v26.535h9.129v-26.535zm-.637 1.275v23.982c-.983 0-5.597 0-6.579 0 0-1.179 0-22.802 0-23.982z"/><path d="m78.186 188.693h6.687v29.399h-6.687z" fill="#c94d38"/><path d="m84.873 188.056h-7.325v30.674h7.962v-30.674zm-.638 1.275v28.122c-.933 0-4.479 0-5.41 0 0-1.194 0-26.929 0-28.122z"/><path d="m54.927 285.34h8.333v38.03h-8.333z" fill="#c94d38"/><path d="m63.261 284.686h-8.987v39.337h9.639v-39.337zm-.656 1.306v36.727c-1.014 0-6.009 0-7.024 0 0-1.244 0-35.482 0-36.727z"/><path d="m180.31 285.34h8.333v38.029h-8.333z" fill="#c94d38"/><path d="m188.644 284.686h-8.985v39.337h9.639v-39.337zm-.654 1.306v36.724c-1.016 0-6.01 0-7.027 0 0-1.241 0-35.479 0-36.724z"/><path d="m162.147 188.693h6.687v29.399h-6.687z" fill="#c94d38"/><path d="m168.834 188.056h-7.325v30.674h7.962v-30.674zm-.638 1.275v28.122c-.933 0-4.479 0-5.412 0 0-1.194 0-26.929 0-28.122z"/><path d="m141.072 117.585h7.854v25.259h-7.854z" fill="#c94d38"/><path d="m148.926 116.948h-8.492v26.535h9.127v-26.535zm-.637 1.275v23.982c-.984 0-5.598 0-6.579 0 0-1.179 0-22.802 0-23.982z"/><path d="m343.483 328.719h4.294v-17.498h-4.294z" fill="#c94d38"/><path d="m347.777 310.565h-4.949v18.806h5.602v-18.806zm-.655 1.31v16.191c-.772 0-2.213 0-2.983 0 0-1.165 0-15.027 0-16.191z"/><path d="m-104.219 311.221h4.294v17.498h-4.294z" fill="#c94d38"/><path d="m-99.925 310.565h-4.948v18.806h5.601v-18.806zm-.653 1.31v16.191c-.771 0-2.214 0-2.985 0 0-1.165 0-15.027 0-16.191z"/><path d="m268.203 308.908h4.788v-20.47h-4.788z" fill="#c94d38"/><path d="m272.991 287.782h-5.44v21.779h6.096v-21.779zm-.654 1.31v19.164c-.82 0-2.659 0-3.478 0 0-1.185 0-17.98 0-19.164z"/><path d="m-29.433 288.438h4.791v20.469h-4.791z" fill="#c94d38"/><path d="m-24.642 287.782h-5.444v21.779h6.095v-21.779zm-.656 1.31v19.164c-.822 0-2.659 0-3.479 0 0-1.185 0-17.98 0-19.164z"/><path d="m263.284 489.71c-.166.12-.326.252-.469.405.151-.158.312-.269.469-.405z" fill="#0066a0"/><path d="m324.201 433.866c.149-.142.296-.28.448-.394.093-.068.184-.116.277-.174.141-.093.282-.184.429-.255.097-.051.2-.085.298-.125.144-.061.288-.116.431-.159.106-.03.212-.051.315-.076.149-.03.293-.06.442-.08.108-.013.217-.021.325-.031.148-.008.299-.014.456-.014.109 0 .214.005.323.009.161.008.318.019.476.038.105.013.213.026.323.041.167.023.331.051.501.083.1.02.2.038.295.055.19.043.376.083.562.132.079.02.16.041.243.06.234.058.47.122.706.189.017.002.038.009.055.017.591.165 1.183.338 1.771.491.033.008.065.018.1.026.232.06.462.118.69.168.018.008.035.008.054.013.494.109.985.193 1.465.234h.013c0 .02.004.035.004.056l1.654-.071c-.214-5.214-4.62-7.045-8.507-8.664-2.155-.898-4.192-1.745-5.586-3.066-.961-.907-1.619-1.883-2.259-2.832-1.01-1.492-2.055-3.038-4.186-4.195-.869-.472-1.815-.797-2.729-1.107-1.541-.526-2.981-1.046-3.929-2.191 1.518-1.039 2.607-1.855 3.402-2.504.61-.413 1.165-.887 1.661-1.539.214-.247.315-.419.363-.525.366-.582.698-1.293.998-2.193-5.083-.137-9.112 1.47-13.302 3.842-.713-1.367-3.679-3.391-8.117-6.31-2.224-1.462-5.241-3.45-5.664-4.094-.271-4.136-1.027-8.187-6.554-8.751.922-4.299 1.511-10.108-.92-13.86-.768-1.193-1.682-2.037-2.657-2.605-.583-.341-1.193-.578-1.811-.708-.361-.079-.731-.111-1.099-.122-.25-.008-.494.021-.744.043-.133.013-.265.015-.396.036-.222.035-.442.095-.663.154-.157.042-.311.08-.465.133-.198.071-.395.157-.592.247-.166.076-.333.157-.499.245-.177.098-.35.206-.521.32-.176.119-.346.242-.515.376-.151.12-.3.242-.445.373-.179.167-.349.348-.518.529-.122.134-.242.26-.355.398-.189.235-.358.485-.524.742-.081.118-.171.231-.245.362-.235.398-.452.816-.639 1.269 0 .008-.003.011-.004.017-.669 1.635-.911 3.198-.896 4.737-.134 3.003.355 6.54 1.674 9.637-3.523.04-6.608 1.336-9.286 3.389-.048.038-.096.073-.144.108-.626.494-1.24 1.01-1.823 1.578-4.012-3.343-5.076-7.675-11.039-9.143-1.036-.251-3.258-.221-4.067-.882-.545-.443-.451-2.082-.99-2.616-1.557-1.557-3.014-2.675-5.288-2.981.225 1.022-.331 1.687-.331 2.723-.784-.678-1.915-.702-2.7-1.223-.098 2.317-.618 4.146-1.339 5.86-.348.833-.754 1.646-1.175 2.46-.402.774-.825 1.568-1.251 2.398-.355.686-.711 1.4-1.062 2.168-1.462 3.202-4.899 4.935-5.862 8.329-1.561 5.491 1.608 6.636 5.721 6.221 1.097-.108 2.26-.335 3.416-.611.57 2.251 2.143 7.182 5.634 11.178-.1.225-.195.444-.293.669-.051.111-.101.224-.149.332-.116.27-.225.537-.331.805-.05.122-.106.247-.153.37-.105.271-.197.533-.288.794-.041.117-.086.233-.124.348-.124.374-.234.742-.323 1.108-1.026 4.051-1.402 8.218-1.088 12.386.289 3.851 2.035 8.604.13 12.27-1.81 3.489-5.403 5.784-6.243 9.745-1.79 8.44 8.967 10.092 13.007 14.913 1.73 2.067 1.223 2.1.946 4.894-.436 4.46-1.134 7.97-3.149 11.938-1.105 2.189-2.051 4.006-1.8 5.146.004.016.007.026.009.04.033.124.081.242.146.349.01.022.022.044.035.065.063.093.144.179.238.261.027.021.052.043.08.063.097.071.21.135.331.189.046.021.089.04.139.061.124.044.268.083.419.115.068.016.132.033.205.045.155.028.335.043.518.056.089.007.171.017.271.023.199.008.429 0 .657-.008.104 0 .195.003.306-.002.35-.017.728-.051 1.145-.098 1.016-.119 2.057-.421 3.047-.852 2.585-.84 4.957-2.477 5.681-4.741.722-2.255-.087-4-.802-5.538-.139-.303-.272-.599-.395-.893 1.598.587 3.068.317 4.132-.84 1.758-1.908 1.962-6.02-.398-8.663-.64-.713-1.546-.968-2.342-1.193-.757-.211-1.413-.393-1.698-.882-.86-1.49-.491-5.458-.249-8.088.038-.381.068-.731.098-1.066 2.875 1.401 7.053 1.537 9.53.15 2.62-1.465 3.031-4.157 3.389-6.533.013-.085.026-.161.041-.244 3.744 2.01 8.197 3.305 12.791 1.861.095-.32.166-.659.249-.988.002-.003.008-.003.013-.005v-.002c.004 0 .009-.003.014-.005-.708 2.794-1.896 5.211-3.267 7.693-.24.423-.477.844-.708 1.271-.059.098-.114.198-.17.3-1.246 2.19-2.755 5.267-2.579 8.001v.021c.025.363.088.716.177 1.064.025.095.049.192.079.287.102.326.235.641.409.945.043.073.093.149.141.225.201.32.437.635.732.925 3.047 3.016 5.405 1.85 7.371-.239.003-.005.005-.008.01-.016.383-.408.754-.847 1.107-1.303.355-.452.695-.915 1.026-1.367.151-.207.29-.38.426-.543.04-.047.076-.09.114-.133.101-.114.193-.217.288-.31.033-.033.068-.065.101-.097.119-.11.234-.212.348-.292.005-.003.005-.003.008-.005.111-.081.219-.141.325-.197.03-.014.055-.027.086-.041.085-.04.174-.072.259-.101.023-.008.051-.017.073-.025.111-.033.219-.057.335-.081h.022c.114-.017.23-.035.35-.049.046-.003.089-.008.132-.013.103-.01.209-.02.32-.033h-.002c.592-.065 1.321-.171 2.342-.557 2.151-.821 2.723-1.748 2.522-4.05-.252-2.824-2.322-5.108-2.696-7.871-.628-4.683 1.785-4.007 5.469-5.111.108.312.255.57.386.847 1.845 4.01 5.771 5.151 7.428 8.516.988 2.013 1.414 3.923 2.479 5.92.91 1.714 1.568 3.165 1.965 5.097-1.582-.705-3.443-1.251-5.763-.387-3.258 1.218-5.925 3.57-8.505 5.845-2.176 1.918-4.422 3.903-6.956 5.113-2.524 1.208-5.958.527-9.281-.137-3.353-.665-6.696-1.409-9.395.989.25-.179.524-.311.814-.423-.288.128-.564.274-.824.456-3.207 2.259 3.573 4.452 7.072 5.706 1.104.518 2.348 1.223 3.071 2.007 2.086 2.258 4.639 2.141 6.611-.143.532-.618.953-1.109 2.194-1.445 1.119-.302 2.357-.31 3.671-.315 1.374-.008 2.795-.013 4.172-.377 1.501-.399 2.68-1.175 3.82-1.926.868-.571 1.682-1.107 2.583-1.44.601-.222 1.027-.754 1.499-1.158-.129.111-.255.233-.382.354.104.256.21.503.315.773 1.554 3.839 3.311 8.193 7.444 10.06 4.621 2.083 10.591 1.256 13.89-1.923.689-.667 1.151-1.417 1.601-2.143.456-.741.882-1.394 1.482-1.883l.008.006c.008-.012.027-.033.033-.044.268-.209.561-.391.918-.52 1.222-.436 2.501.116 3.855.699 1.331.575 2.707 1.167 4.162.847 3.161-.694 3.117-6.686 2.799-12.766l-.071-1.484c-.099-2.751-.54-3.563-1.606-5.524l-.321-.59c-.229-.429-.5-.826-.761-1.213-.881-1.29-1.351-2.079-.81-3.234.238-.502.883-.935 1.567-1.399 1.013-.686 2.165-1.468 2.762-2.866.805-1.879.833-4.096.084-6.41-1.742-5.37-6.551-6.991-11.361-4.05.665-.408 1.356-.638 2.05-.735-.447.138-.893.315-1.347.555-.698.365-1.398.917-2.06 1.588.534-1.094 1.269-2.084 2.081-3.036 1.885-2.211 4.278-4.17 6.169-6.384.093-.108.182-.222.274-.336.318-.388.616-.787.893-1.194.1-.149.208-.292.301-.444.338-.537.651-1.088.893-1.677 2.48-5.907-3.06-12.303-9.478-10.836.205-.292.414-.55.634-.775.073-.076.151-.129.222-.197zm-.666 2.949c.491.176.875.522 1.172.976.144.22.263.472.366.734.021.052.04.101.059.153.096.266.174.542.237.838.01.044.017.1.027.146.054.29.098.582.127.885 0 .024.004.052.004.078.028.32.038.643.038.963v.184c-.006.315-.02.627-.047.929-.003.037-.005.066-.011.099-.024.285-.06.56-.105.819-.005.046-.011.09-.02.133-.046.271-.102.518-.162.746-.015.048-.028.094-.04.133-.063.228-.131.44-.206.608-1.379 3.17-4.531 4.415-5.445 7.913-.621 2.363-.631 5.546.423 7.96-2.081 2.276-2.693 6.273-1.123 8.776.711 1.126 1.717 1.609 2.526 1.994.906.434 1.31.656 1.405 1.346.237 1.75-.938 2.384-2.881 3.273-.255.115-.518.237-.77.358-1.742.854-3.275 1.53-4.672 2.062-.152-2.529 0-4.359.52-6.107.087-.282.272-.716.469-1.172.692-1.614 1.406-3.283.481-4.153-.54-.512-1.316-.434-2.083-.166-.283-1.855-.335-4.12-.109-6.092.187-1.636.732-2.646 1.359-3.815.447-.836.961-1.788 1.375-3.053 1.178-3.575 1.828-11.991.57-15.841.035-.029.073-.059.104-.089.051-.005.09-.018.138-.022 2.48.056 4.665-2.18 6.274-1.596zm-82.565 21.356c-.02.673.643 10.244 1.256 10.322-5.938-.754-6.801-8.476-1.256-10.322zm14.435-1.576c-.01.027-.018.059-.024.086-.084.27-.162.529-.241.782-.017.06-.035.122-.052.179-.086.27-.167.527-.243.765-.001 0-.001.006-.004.014-.076.233-.149.442-.214.63-.018.048-.033.089-.051.135-.05.133-.093.25-.136.355-.016.038-.033.079-.046.111-.052.12-.101.217-.136.269-.305.426-.752.603-1.2.651-.064.008-.124.008-.187.008-.048.003-.098.008-.146.008-.108 0-.214-.008-.317-.023h-.002c-.101-.008-.195-.022-.285-.038-.005 0-.008 0-.016-.002-.06-.009-.115-.025-.169-.038-.03-.005-.063-.012-.089-.017.404-1.039.905-2.395 1.347-3.691.058-.171.12-.343.174-.51.06-.178.111-.345.166-.516.097-.31.187-.602.268-.879.017-.068.044-.149.063-.212.61.317 1.237.678 1.81 1.026-.091.307-.182.613-.27.907zm37.677-35.906c1.172-.456 3.179-1.475 5.938-2.941.736.576 1.468 1.165 2.184 1.772 2.499 2.118 4.374 4.601 6.154 7.412.599.949.936 2.083 1.206 3.273-5.702-2.173-13.522-1.16-16.092-.74.325-2.005.966-6.524.61-8.776zm5.928-2.949c-.02-.019-.044-.038-.068-.054h.003c.022.016.045.036.065.054zm-10.592-4.443c.404-.965.779-1.999.976-2.909-.002 0-.002-.002-.002-.002.622.507 1.265.975 1.923 1.492.502.393 1.012.776 1.518 1.164-1.356.634-2.342.797-4.856 1.823.129-.324.29-.895.441-1.568zm20.151 16.936c.03.123.055.245.082.366-.005 0-.005 0-.008-.003-.024-.118-.049-.246-.074-.363zm-26.222-40.197c-.017.01-.033.013-.048.022.015-.009.031-.014.048-.022zm-42.163 17.583c.398-.133.802-.335 1.188-.554-.01.02-.018.035-.027.055l.633-.413c.225-.141.448-.282.65-.421.088.638.121 1.167.139 1.444.003.195.015.396.008.596 0 .03.003.057 0 .087-.016.336-.048.67-.091 1.012-.005.047-.009.095-.017.144-.048.331-.111.663-.184.999-.013.057-.023.111-.036.166-.078.333-.168.67-.265 1.006-.014.058-.033.114-.047.166-.104.346-.22.689-.341 1.034-.02.046-.035.097-.052.144-.126.355-.263.711-.406 1.064-.016.037-.03.071-.043.107-.156.378-.315.753-.481 1.132 0 0 0 .003-.003.003-.618 1.403-1.316 2.811-1.985 4.192-2.912-3.627-4.303-7.947-4.821-9.926 2.485-.703 4.797-1.56 6.181-2.037zm24.225 81.557c-.04.015-.086.025-.129.041.043-.013.088-.032.129-.041z" fill="#0066a0"/><path d="m270.331 402.438c.098 1.345.684 8.132 2.763 9.917l1.074-1.253c-1.213-1.039-1.986-5.936-2.19-8.782z" fill="#0e5383"/><path d="m316.969 495.196c.348-.219 8.527-5.441 9.699-9.546l-1.585-.454c-.832 2.91-6.777 7.198-8.999 8.608z" fill="#0e5383"/><path d="m235.885 400.329c-.83.271-1.695 3.506-3.033 2.146-.651-.661.559-1.589.955-2.229.749-1.207.161-.743-.466-1.372-.811-.814-.8-4.46.567-3.355.31.252.263 1.011.6 1.28.479.384.852.149 1.38.217.317.038.771.134 1.013.157.149.01.963-.018 1.15.048 1.034.38.665 1.351.108 2.135-.764 1.078-1.273.647-2.274.973z" fill="#0e5383"/><path d="m324.392 473.007c-.375-2.783-4.203-2.862-4.971-5.799-.444-1.699.668-6.815 2.586-7.534-3.638 1.367-5.192 7.015-3.179 10.216.711 1.126 1.717 1.609 2.526 1.994.906.434 1.31.656 1.405 1.346.237 1.75-.938 2.384-2.881 3.273-.255.115-.518.237-.77.358-2.188 1.074-4.059 1.875-5.723 2.45l.541 1.558c1.728-.597 3.662-1.422 5.908-2.523.232-.116.474-.227.731-.342 1.789-.819 4.241-1.944 3.827-4.997z" fill="#fff"/><path d="m299.432 491.157c-.154-.383-.319-.769-.477-1.157-.341.199-.678.391-.988.65-.129.111-.255.233-.382.354.104.256.21.503.315.773 1.554 3.839 3.311 8.193 7.444 10.06l.678-1.505c-3.529-1.59-5.086-5.445-6.59-9.175z" fill="#fff"/><path d="m299.333 488.016c-.017.01-.038.018-.052.025-.678.306-1.251.787-1.885 1.165-.499.299-.998.819-1.509 1.056-1.071.399-2.007 1.014-2.91 1.609-1.077.709-2.095 1.378-3.335 1.707-1.172.309-2.428.318-3.762.326-1.357.005-2.763.016-4.091.374-1.725.466-2.409 1.257-3.011 1.959-.439.507-.816.947-1.654 1.305-1.729.74-2.771-.93-4.26-1.595-.847-.375-2.536-.638-3.409-.893 1.243.512 3.036 1.397 3.963 2.403 2.086 2.258 4.639 2.141 6.611-.143.532-.618.953-1.109 2.194-1.445 1.119-.302 2.357-.31 3.671-.315 1.374-.008 2.795-.013 4.172-.377 1.501-.399 2.68-1.175 3.82-1.926.868-.571 1.682-1.107 2.583-1.44.601-.222 1.027-.754 1.499-1.158.47-.398 1.026-.622 1.52-.978.318-.23.586-.497.873-.777.614-.595 1.262-1.126 1.837-1.764-1.012.198-1.908.458-2.865.882z" fill="#0e5383"/><path d="m332.09 470.664c1.013-.686 2.165-1.468 2.762-2.866.805-1.879.833-4.096.084-6.41-1.742-5.37-6.551-6.991-11.361-4.05 3.893-2.379 8.618.941 9.793 4.56.63 1.957.62 3.723-.033 5.25-.406.953-1.304 1.563-2.173 2.151-.835.567-1.703 1.154-2.128 2.065-.971 2.059.086 3.612.935 4.862.247.369.483.713.673 1.068l.323.594c1.042 1.921 1.324 2.436 1.408 4.797l.073 1.511c.147 2.905.551 10.618-1.511 11.068-.931.207-2.01-.257-3.152-.749-1.018-.443-2.133-.912-3.311-.974 1.541-1.55 3.484-3.368 4.683-4.463l-1.112-1.219c-.23.212-5.464 4.995-6.931 6.908-.719.641-1.232 1.409-1.679 2.135-.415.669-.806 1.299-1.346 1.823-2.839 2.735-8.022 3.429-12.064 1.606l-.678 1.505c4.621 2.083 10.591 1.256 13.89-1.923.689-.667 1.151-1.417 1.601-2.143.456-.741.882-1.394 1.482-1.883l.008.006c.008-.012.027-.033.033-.044.268-.209.561-.391.918-.52 1.222-.436 2.501.116 3.855.699 1.331.575 2.707 1.167 4.162.847 3.161-.694 3.117-6.686 2.799-12.766l-.071-1.484c-.099-2.751-.54-3.563-1.606-5.524l-.321-.59c-.229-.429-.5-.826-.761-1.213-.881-1.29-1.351-2.079-.81-3.234.237-.503.883-.936 1.566-1.4z" fill="#0e5383"/><path d="m274.336 377.869c1.887-.016 4.153.212 4.706 1.318l.098.193-.013.22c-.206 3.8-.461 10.081-.299 11.248.12.056.489.144 1.212.033.741-.115 1.604-.426 2.405-.89.925-4.303 1.516-10.122-.917-13.879-.768-1.193-1.682-2.037-2.657-2.605-1.768 1.299-3.684 2.967-4.535 4.362z" fill="#0066a0"/><path d="m258.78 399.491c3.477-2.267 6.907-2.97 10.805-4.582-.962-.92-2.24-1.671-3.596-2.1-2.781.759-5.244 2.311-7.402 4.359-.257.958-.176 1.213.193 2.323z" fill="#fff"/><path d="m239.975 491.822c-.969 1.915-1.81 3.545-1.84 4.688.829-.158 1.729-.641 2.61-1.536 1.328-1.354 1.457-4.75 2.309-6.469 1.969-3.974 2.965-5.886 2.433-9.907 1.8.648 2.816 1.893 3.646 4.997l.214.161c.899.677 2.085 1.276 3.091.86-.486-3.091-7.105-9.528-7.589-9.862-.005-.038.272 1.734.261 1.699-1.666-7.683 1.929-16.577-1.036-24.112-1.505-3.815-5.364-5.571-6.27-9.941-.897-4.341.116-9.637 1.145-13.912 1.137-4.728 3.648-8.871 5.136-13.529.383-1.193 1.974-4.97 1.226-6.226-.851-1.424-1.714-1.764-2.555-1.444.458 5.869-4.96 12.754-6.384 18.388-1.026 4.051-1.402 8.218-1.088 12.386.289 3.851 2.035 8.604.13 12.27-1.81 3.489-5.403 5.784-6.243 9.745-1.79 8.44 8.967 10.092 13.007 14.913 1.73 2.067 1.223 2.1.946 4.894-.436 4.46-1.135 7.97-3.149 11.937zm-4.021-23.369c-3.521-3.019-4.524-6.31-2.275-10.727 1.285-2.522 4.972-3.904 6.407-5.911.766.593 1.381 1.261 1.563 2.325.197 1.15-.472 1.986-.678 4.031-.02.673.643 10.244 1.256 10.322-.146-.018.437 3.532.398 4.408-2.232-1.771-4.62-2.688-6.671-4.448z" fill="#fff"/><path d="m279.08 478.778c.353-.451.693-.912 1.023-1.364-.33.452-.67.914-1.023 1.364z" fill="#fff"/><path d="m229.751 407.055c2.765-1.473-1.841-2.604-3.041-2.335-.704.157-1.225 1.063-2.154 1.223.073 1.416 1.52 1.327 2.501 1.66 1.197.398 1.54 1.134 3.239.388-.223-.278-.124-.614-.545-.936z" fill="#0e5383"/><path d="m226.001 407.337c-.728-.177-1.393-.446-1.444-1.395.648-.112 1.094-.578 1.546-.91.202-.545.521-1.102.95-1.668.066-.085.129-.163.192-.248l-.923-.081.141-1.644c.575.052 1.251.118 1.954.234 1.221-1.56 2.292-3.071 2.841-5.181.428-1.653.308-3.254.176-4.876-.736 1.419-1.54 2.87-2.312 4.566-1.462 3.202-4.899 4.935-5.862 8.329-1.561 5.491 1.608 6.636 5.721 6.221.293-.027.598-.08.898-.125-.809-.448-1.833-.8-2.262-1.129-.844-.648-1.37-1.347-1.616-2.093z" fill="#fff"/><path d="m263.443 428.307c.156-.444.326-.865.508-1.251l-.073-.469c-.106.016-10.6 1.558-19.333-2.41-8.079-3.674-10.506-14.198-10.776-15.484.192-.744.267-1.439.229-2.09l9.279-9.281c.052.147.11.282.156.429.835 2.763.129 5.907-2.09 9.368l1.283-.833c.125.922.146 1.656.146 1.656 2.461-3.863 3.215-7.45 2.233-10.678-1.623-5.362-7.407-7.659-7.652-7.752l-.598 1.536c.046.017 3.749 1.509 5.754 4.71l-8.988 8.991c-.101-.206-.184-.423-.318-.616-1.556-2.262-4.74-2.564-6.742-2.74l-.141 1.644 1.86.166c.026 0 2.56.252 3.672 1.874.587.858.682 2 .285 3.4l-.053.185.033.192c.094.508 2.385 12.571 11.747 16.825 7.983 3.629 17.037 2.921 19.579 2.628z" fill="#0e5383"/><path d="m321.293 481.163c-2.713 1.808-10.357 6.593-13.141 7.024-2.011.309-3.046-1.676-4.281-4.507-.31-.712-.602-1.383-.92-1.955-.575-1.036-1.848-1.913-3.239-2.614-.55.009-1.109.109-1.717.337-.282.106-.561.23-.833.353 1.913.743 3.79 1.728 4.341 2.723.284.507.561 1.14.854 1.813 1.106 2.534 2.624 6.006 6.045 5.48 3.711-.572 13.396-7.004 13.806-7.282z" fill="#0e5383"/><path d="m303.682 478.515c-1.683-.801-3.695-1.576-6.262-.615-3.258 1.218-5.925 3.57-8.505 5.845-2.176 1.918-4.422 3.903-6.956 5.113-2.524 1.208-5.958.527-9.281-.137-3.548-.7-7.089-1.538-9.864 1.395 2.229-2.36 7.35-.557 9.858.116 3.195.854 6.861 1.616 10 .116 2.735-1.312 5.076-3.372 7.332-5.363 2.581-2.276 5.02-4.427 7.99-5.537 1.78-.668 3.174-.302 4.979.555z" fill="#fff"/><path d="m272.736 477.795c.137 1.016 2.736 1.84 5.225 2.304.385-.415.759-.857 1.117-1.319.355-.452.695-.915 1.026-1.367 1.338-1.828 1.977-1.788 3.187-1.918-.417-.124-.887-.263-1.435-.336-2.018-.267-9.617-1.053-9.12 2.636z" fill="#0e5383"/><path d="m277.741 421.265c.285-.442.575-.938.875-1.449-2.433-.586-11.132-4.221-11.632-5.331-.355-1.069.003-6.085.316-8.993l-1.642-.174c-.138 1.313-.815 7.965-.238 9.696.655 1.959 9.298 5.31 12.321 6.251z" fill="#0e5383"/><path d="m254.258 459.921c-.608.849-1.79.7-2.415.545-.21.543-.412 1.053-.605 1.546.899.259 3.085.657 4.366-1.13.467-.66 1.074-2.718 2.295-6.94 1.44-4.98 3.95-13.676 5.874-16.434.002-.003.002-.003.005-.003.141-.204.277-.371.409-.507.008-.002.012-.012.017-.02.136-.133.273-.237.401-.29l-.114-.266c.314.149.664.291 1.022.429.08.029.158.059.236.089.353.131.727.263 1.109.386 1.593.52 3.346.966 4.667 1.278l.376-1.608c-3.309-.771-7.173-2.002-7.667-2.606-.507-1.001.633-6.841 2.006-7.826l-.96-1.342c-2.04 1.46-3.469 8.343-2.458 10.024.086.147.23.293.406.434-2.224 2.063-4.38 9.031-6.916 17.802-.806 2.801-1.724 5.97-2.054 6.439z" fill="#fff"/><path d="m263.061 457.059 3.311-11.037c1.126-.941 3.668-3.616 4.555-4.56l5.083 2.848c-.035-.651-.073-1.299-.106-1.947l-9.047-5.038c-.865-.28-1.689-.584-2.368-.903l.114.266c-.258.111-.537.401-.833.819l5.664 3.128c-1.296 1.372-3.548 3.708-4.276 4.256l-.22.164-.076.256-3.57 11.909s-.217 1.243-.26 1.525c-.333 2.191-.648 4.264-2.564 5.338-2.027 1.137-5.592.996-7.987-.179.958-2.388 2.917-7.272 3.522-9.788.661-2.743-.154-6.901-.189-7.075l-1.618.32c.006.04.781 3.978.204 6.37-.553 2.29-2.382 6.897-3.331 9.263l-.834-.62-.048 1.575c-.02.6-.096 1.402-.184 2.338-.293 3.171-.658 7.122.469 9.069.626 1.066 1.715 1.371 2.675 1.642.64.179 1.243.345 1.558.703 1.733 1.942 1.639 5.113.414 6.449-1.099 1.193-2.661.444-3.774-.393l-1.569-1.179.252 1.943c.154 1.19.624 2.194 1.074 3.167 1.196 2.582 1.476 5.029-.649 7.078-1.733 1.662-5.439 3.454-7.92 3.036 3.708.626 9.644-1.435 10.867-5.265.722-2.255-.087-4-.802-5.538-.139-.303-.272-.599-.395-.893 1.598.587 3.068.317 4.132-.84 1.758-1.908 1.962-6.02-.398-8.663-.64-.713-1.546-.968-2.342-1.193-.757-.211-1.413-.393-1.698-.882-.86-1.49-.491-5.458-.249-8.088.038-.381.068-.731.098-1.066 2.875 1.401 7.053 1.537 9.53.15 2.62-1.465 3.031-4.157 3.389-6.533.013-.085.026-.161.041-.244 3.744 2.01 8.197 3.305 12.791 1.861.184-.613.34-1.248.481-1.901-4.545 1.811-9.144.432-12.917-1.648z" fill="#0e5383"/><path d="m326.006 439.387c-.451-.798-.885-1.308-1.3-1.601 1.281 1.953.929 5.941.267 7.456-1.379 3.17-4.531 4.415-5.445 7.913-.656 2.504-.646 5.942.61 8.394-.099.179-.184.362-.273.544.765-.362 1.281-1.618 1.695-2.795.698-1.985-.238-4.167.277-6.25.486-1.988 2.052-3.782 2.924-5.684.892-1.938 2.42-5.891 1.245-7.977z" fill="#fff"/><path d="m300.13 415.323c-.781-.637-1.535-1.271-2.234-1.922-3.723-3.462-8.486-5.526-12.532-8.565.763.572 1.503 2.867 2.201 3.744 1.104 1.388 2.41 2.245 3.751 3.298 2.087 1.644 4.238 3.21 6.354 4.823.8-.448 1.676-.938 2.46-1.378z" fill="#fff"/><path d="m297.496 456.787c1.495-.933 2.694-2.23 3.405-4.132-1.162.882-2.483 1.563-3.844 2.163.105.673.257 1.329.439 1.969z" fill="#0e5383"/><path d="m295.789 450.466c-1.133 2.417-.53 5.302.085 7.873 1.425 5.946 7.981 7.954 9.929 13.672.557 1.633.572 3.466 1.208 5.022 1.275-6.56-.695-9.775-5.579-14.031-4.28-3.73-4.774-8.53-4.693-13.98-.404.456-.717.94-.95 1.444z" fill="#fff"/><path d="m316.763 438.74c-.38.292-.8.465-1.229.57 1.009 3.5.407 11.322-.649 14.542-.374 1.125-.827 1.972-1.266 2.786-.678 1.266-1.321 2.461-1.546 4.41-.289 2.531-.179 5.454.3 7.626l.225 1.034.945-.474c.591-.294.928-.398 1.128-.435-.059.532-.518 1.615-.765 2.195-.214.502-.418.976-.527 1.349-.635 2.116-.794 4.256-.553 7.39l1.644-.128c-.225-2.913-.085-4.881.485-6.788.087-.282.272-.716.469-1.172.692-1.614 1.406-3.283.481-4.153-.54-.512-1.316-.434-2.083-.166-.283-1.855-.335-4.12-.109-6.092.187-1.636.732-2.646 1.359-3.815.447-.836.961-1.788 1.375-3.053 1.178-3.575 1.828-11.991.57-15.841-.078.072-.156.142-.254.215z" fill="#0e5383"/><path d="m317.121 438.437c.065-.055.138-.116.196-.171 2.154-2.116-1.392-3.031-2.735-4.65-1.18-1.419-1.135-3.906-1.854-5.575-2.075-4.813-6.893-8.239-11.199-11.608-.743.417-1.624.911-2.439 1.369.714.562 1.422 1.129 2.113 1.717 2.499 2.118 4.374 4.601 6.154 7.412 2.004 3.17 1.183 8.333 4.037 11.106 1.307 1.271 3.673 1.992 5.368.702.139-.103.245-.204.359-.302z" fill="#fff"/><path d="m270.795 393.251c.038-.35.071-.705.085-1.08l.038-.947.933.168c.309.055.632.095.953.139-.123-.38-.313-.794-.358-1.202h-.646-1.259l.502-1.153.564-1.302c-.567-1.11-1.245-2.182-1.495-3.398-1.147-5.666 2.311-8.355 5.849-11.8-2.87-.083-5.735 1.863-7.121 5.227-1.331 3.237-1.396 9.765.965 14.875.166.362.551.481.99.473z" fill="#fff"/><path d="m280.058 401.604-5.29-5.078-1.146 1.187 5.12 4.914z" fill="#fff"/><path d="m294.666 402.816c-2.224-1.462-5.241-3.45-5.664-4.094-.271-4.161-1.031-8.238-6.646-8.767l-.008.081c-.771.436-1.593.733-2.307.844-.724.111-1.092.023-1.212-.033-.162-1.167.093-7.447.299-11.248l.013-.22-.098-.193c-.553-1.107-2.819-1.334-4.706-1.318.851-1.395 2.767-3.063 4.535-4.362-.583-.341-1.193-.578-1.811-.708-2.011 1.558-4.43 3.791-4.793 5.784l-.186 1.034 1.045-.063c1.823-.107 3.749.055 4.332.345-.035.673-.09 1.798-.149 3.079h-3.031-.542l-.214.497-2.48 5.703-.502 1.153h1.259 3.473v-1.65h-2.216l1.766-4.054h2.423c-.111 2.825-.179 5.856-.025 6.64.017.084.06.206.123.339-1.359.247-3.573.136-5.491-.212l-.933-.168-.038.947c-.138 3.378-1.218 5.771-3.207 7.116-2.206 1.49-5.73 1.283-8.28 1.172 2.403 1.498 6.92 2.123 9.447.484 3.071-1.994 4.546-7.651 3.616-7.784 1.777.253 5.257.545 6.871-.614.978.02 2.236-.258 3.436-.848 2.69.417 3.8 1.852 4.281 4.486l-8.559 6.644 1.011 1.305 7.791-6.049c.025.278.052.542.073.84l.003-.122c-.086 1.017 1.134 1.931 6.395 5.391 2.971 1.956 7.037 4.632 7.572 5.707l1.476-.737c-.684-1.37-3.668-3.404-8.142-6.347z" fill="#0e5383"/><path d="m241.1 460.423c0-.011 0-.022-.003-.036.003.013.003.025.003.036z" fill="#0e5383"/><path d="m242.302 469.684c-.081-.684-.131-1.199-.076-1.191-5.938-.754-6.801-8.476-1.256-10.322.068-.665.184-1.197.306-1.658-.323-.068-.716-.104-1.185-.111-6.782-.087-5.409 12.641 2.211 13.282z" fill="#0e5383"/><path d="m242.226 468.493c-.033-.005-.065-.048-.101-.103.036.058.068.098.101.103z" fill="#0e5383"/><path d="m240.976 458.426c.002.033.008.079.008.116-.001-.035-.006-.084-.008-.116z" fill="#0e5383"/><path d="m241 458.914c.003.019.003.038.003.062 0-.023 0-.046-.003-.062z" fill="#0e5383"/><path d="m242.039 468.176c.016.048.03.095.048.133-.018-.038-.032-.085-.048-.133z" fill="#0e5383"/><path d="m278.028 458.661c1.193-2.384 3.096-4.378 4.229-6.785.643-1.369 1.222-2.771 1.472-4.196-.177-.638-.4-1.261-.647-1.878-.691 1.948-1.985 4.013-3.656 4.821-.033-.083-.036-.167-.016-.252-1.396-.996-.646-8.833-.693-10.454-.101-3.354.182-6.701-.005-9.93-.159-2.666-.727-5.409.586-7.804 1.308-2.393 3.601-4.003 5.796-5.511.114-.399.23-.803.32-1.223-4.228-1.914-6.189 3.847-8.101 6.446-1.931 2.625-2.518.77-4.471-.54-3.115-2.098-8.174-1.502-10.559-4.857-1.49-2.094.3-4.768-1.132-6.866-2.292-3.355-2.126 2.797-2.095 3.893.09 3.225.253 5.928 3.474 7.523 2.176 1.079 4.627 1.66 6.714 2.907 2.159 1.294 3.093 4.2 6.15 2.915.958 2.153-.111 5.453.052 7.848.177 2.547.318 5.098.46 7.645.03.588.063 1.18.096 1.767.087 1.622.171 3.246.271 4.859.171 2.891.366 5.968-.115 8.843-.71 4.2-2.497 7.456-4.529 11.039-1.823 3.212-4.225 8.319-1.04 11.469 3.647 3.61 6.313 1.233 8.489-1.558-1.636-1.036-4.847-.239-6.307-1.738-2.499-2.564.575-6.601 1.654-8.953 1.408-3.054 2.1-6.429 3.603-9.43z" fill="#fff"/><path d="m328.35 425.437c-2.155-.898-4.192-1.745-5.586-3.066-.961-.907-1.619-1.883-2.259-2.832-1.01-1.492-2.055-3.038-4.186-4.195-.869-.472-1.815-.797-2.729-1.107-1.541-.526-2.981-1.046-3.929-2.191 5.751-3.935 5.469-4.745 5.469-4.745-4.882 2.189-5.993 3.114-12.658 6.714-.469.255-2.852 1.592-4.802 2.686-.028-.018-.056-.038-.081-.06-2.705 1.431-5.03 2.602-5.624 2.692l-1.172.182.577 1.037c.441.8.03 5.388-.61 9.185-.212 2.375-1.232 4.892-2.445 7.143-2.335 2.614-3.768 5.259-4.845-.338-.61-3.144-.545-6.802-.167-10.1.419-3.646 1.99-6.714 3.611-9.943.323-.648 1.983-3.798 2.484-6.109-.648-.528-1.268-1.101-1.831-1.809-.06-.076-.815 1.604-.815 1.604-1.014 2.326-1.084 5.337-2.002 7.606-1.508 3.737-3.795 6.497-4.17 10.756-.317 3.588-.106 7.726.405 11.299.469 3.254 2.637 6.043 3.054 9.282.411 3.193-1.201 6.399-1.402 9.693-.22 3.656.922 7.178 2.057 10.518.496 1.456 1.82 3.437 1.234 4.95-.106.267-.21.473-.295.651 2.151-.821 2.723-1.748 2.522-4.05-.252-2.824-2.322-5.108-2.696-7.871-.628-4.683 1.785-4.007 5.469-5.111.108.312.255.57.386.847 1.088-.174 1.997-.285 2.301-.366.737-.195 1.438-.429 2.109-.698-.159-.704-.308-1.42-.412-2.14-.515.198-1.028.398-1.538.589-2.806 1.058-5.363.824-8.66 2.059-.409-1.544-.129-2.357.009-3.962.398-4.565 5.547-11.73 4.695-16.669 1.066-2.006 1.984-4.216 2.388-6.378 1.622-.288 11.066-1.802 16.763.984-.125-.661-.258-1.322-.402-1.967-5.702-2.173-13.522-1.16-16.092-.74.325-2.006.966-6.524.61-8.776.744-.29 9.568-4.891 10.173-5.221 1.576-.851 3.276-1.768 4.894-2.63 1.248 1.712 3.109 2.347 4.907 2.96.887.303 1.727.591 2.474.993 1.777.968 2.624 2.222 3.609 3.675.687 1.017 1.397 2.074 2.487 3.102 1.618 1.532 3.89 2.477 6.091 3.393.811.337 8.338 3.004 5.653 4.857-2.007 1.388-8.676-3.853-10.431.582 1.462-3.701-3.434-9.14-7.306-7.007 2.67.705 4.556 3.588 4.724 6.268.089 1.376-1.225 5.648-3.041 6.604-.058.055-.131.116-.196.171 2.71-.144 4.104-2.957 6.719-2.634 1.53.188 1.571 1.474 2.692 2.387 2.015 1.642 4.524 1.861 5.265 4.732 1.497 5.789-7.034 7.357-7.506 12.796 2.852-3.343 6.88-6.092 8.538-10.043 2.48-5.907-3.06-12.303-9.478-10.836 3.152-4.493 7.854-1.044 11.849-.724 0 .02.004.035.004.056l1.654-.071c-.217-5.214-4.622-7.045-8.51-8.664z" fill="#0e5383"/><path d="m186.766 229.563h-40.525v-11.063h35.889v-1.701h-58.853v-12.229h58.469v-1.699h-35.504v-13.144h35.792v-1.701h-15.523v-11.034h16.003v-1.701h-120.525v1.701h18.766v11.034h-18.766v1.701h39.744v13.144h-39.744v1.699h59.586v12.229h-59.586v1.701h39.744v11.063h-42.273l-16.09 39.237-.061 210.038h1.703v-11.665h29.383c0-.562 0-1.126 0-1.702h-16.603v-15.756h16.603c0-.565 0-1.132 0-1.702h-29.383v-19.031h29.383c0-.564 0-1.132 0-1.7h-16.603v-17.575h16.603c0-.57 0-1.134 0-1.703h-29.383v-16.121h29.383c0-.567 0-1.137 0-1.699h-16.603v-14.666h16.603c0-.571 0-1.141 0-1.703h-29.383v-14.3h29.383c0-.578 0-1.142 0-1.703h-16.603v-16.118h16.603c0-.656 0-1.226 0-1.699h-29.383v-15.759h31.657c.174-.572.361-1.137.554-1.701h-32.211v-17.344h42.858c.573-.583 1.161-1.15 1.766-1.703h-44.624v-17.119h155.623v17.119h-46.354c.598.553 1.183 1.118 1.747 1.703h44.606v17.344h-34.244c.184.562.358 1.129.525 1.701h33.719v15.759h-31.571v1.699h15.165v16.118h-15.165v1.703h31.571v14.3h-31.571v1.703h15.165v14.666h-15.165v1.699h31.571v16.121h-31.571v1.703h15.165v17.575h-15.165v1.7h31.571v19.031h-31.571v1.702h15.165v15.756h-15.165v1.702h31.571v11.665h1.701v-209.854-.033zm-130.677 220.152v15.756h-11.077v-15.756zm0-40.008v17.575h-11.077v-17.575zm0-34.188v14.666h-11.077v-14.666zm0-33.824v16.118h-11.077v-16.118zm144.546 123.776h-14.707v-15.756h14.707zm0-38.189h-14.707v-17.575h14.707zm0-37.097h-14.707v-14.666h14.707zm0-32.372h-14.707v-16.118h14.707zm-77.359-180.821h41.531v11.034h-41.531zm-40.821 11.034v-11.034h39.122v11.034zm20.979 14.845v-13.144h41.105v13.144zm0 15.629h41.105v11.063h-41.105zm-43.396 12.766h125.57l2.784 7.038h-131.137zm-3.455 8.741h132.478l2.363 5.968h-137.2zm-3.034 7.67h138.546l2.363 5.968h-143.267zm-3.032 7.669h144.611l2.36 5.968h-149.33zm-3.03 7.67h150.674l2.36 5.968h-155.396zm9.172 21.653h-11.647v-13.984h11.647zm45.641 0h-43.941v-13.984h43.941zm35.154 0h-33.453v-13.984h33.453zm45.64 0h-43.938v-13.984h43.938zm17.541 0h-15.841v-13.984h15.841z"/><path d="m280.714 346.609c36.521.878 52.813 11.814 56.935 11.814s8.431-3.855 8.507-8.613c-.076-4.761-3.751-8.653-8.507-8.976-.306.018-.597.028-.903.048 2.743-1.334 4.561-3.944 4.599-7.274-.077-4.773-3.749-8.697-8.508-9.026-4.763-.175-8.432 3.426-8.507 8.221.011 1.737.507 3.288 1.375 4.677-1.327-.87-2.797-1.397-4.463-1.467-3.676-.088-6.643 2.039-7.927 5.2.004-.087.02-.168.027-.253-.079-4.715-3.75-8.548-8.51-8.73-3.53-.035-6.411 1.985-7.784 4.983-.575-4.269-3.996-7.566-8.405-7.668-.252.026-.491.043-.742.07.999-1.439 1.576-3.113 1.589-5.039-.079-4.932-3.75-8.893-8.507-8.974-4.759.076-8.432 4.031-8.509 8.966.015 1.973.622 3.681 1.667 5.138-.557-.108-1.102-.165-1.692-.162-4.409.102-7.833 3.399-8.405 7.668-1.375-3-4.251-5.018-7.783-4.983-4.761.179-8.432 4.012-8.51 8.73.01.085.02.166.027.253-1.281-3.16-4.252-5.288-7.926-5.2-1.667.068-3.14.6-4.463 1.467.867-1.389 1.363-2.94 1.374-4.677-.078-4.795-3.744-8.397-8.507-8.221-4.756.329-8.43 4.252-8.508 9.026.038 3.327 1.853 5.945 4.599 7.274-.305-.019-.597-.03-.903-.048-4.757.323-8.432 4.213-8.509 8.976.077 4.758 3.764 8.613 8.509 8.613 4.743 0 20.749-12.69 57.27-11.813z"/><path d="m330.842 348.931c.06-3.75 2.995-6.538 6.807-6.401 3.807.257 6.744 3.365 6.807 7.173-.063 3.796-2.995 6.508-6.807 6.321-3.806-.308-6.747-3.338-6.807-7.093z" fill="#fff"/><path d="m230.25 348.931c-.061 3.757-3 6.785-6.808 7.093-3.812.186-6.747-2.525-6.807-6.321.06-3.808 3-6.914 6.807-7.173 3.812-.134 6.747 2.652 6.808 6.401z" fill="#fff"/><path d="m314.433 344.229c.061-3.744 2.998-6.593 6.809-6.517 3.807.198 6.747 3.264 6.807 7.034-.06 3.761-2.995 6.484-6.807 6.384-3.809-.222-6.748-3.157-6.809-6.901z" fill="#fff"/><path d="m246.659 344.232c-.06 3.741-2.998 6.674-6.807 6.898-3.811.098-6.747-2.622-6.809-6.384.061-3.77 2.998-6.836 6.809-7.034 3.809-.076 6.747 2.773 6.807 6.52z" fill="#fff"/><path d="m298.025 340.611c.06-3.764 2.995-6.683 6.807-6.664 3.808.144 6.744 3.19 6.808 6.961-.064 3.772-2.998 6.527-6.808 6.497-3.81-.151-6.747-3.03-6.807-6.794z" fill="#fff"/><path d="m263.067 340.611c-.06 3.765-3 6.643-6.807 6.795-3.81.03-6.747-2.728-6.807-6.497.06-3.771 2.998-6.817 6.807-6.961 3.806-.02 6.747 2.899 6.807 6.663z" fill="#fff"/><path d="m281.835 338.09c.061-3.79 2.995-6.78 6.808-6.813 3.807.089 6.745 3.121 6.805 6.911-.06 3.79-2.995 6.599-6.805 6.629-3.811-.092-6.747-2.938-6.808-6.727z" fill="#fff"/><path d="m279.256 338.09c-.061 3.789-2.997 6.636-6.808 6.727-3.809-.03-6.747-2.842-6.807-6.629.06-3.792 2.998-6.822 6.807-6.911 3.811.033 6.747 3.023 6.808 6.813z" fill="#fff"/><path d="m287.789 324.561c-.062 3.949-2.998 6.898-6.806 6.959-3.812-.065-6.745-3.015-6.807-6.964.063-3.948 2.997-7.086 6.807-7.15 3.81.065 6.744 3.207 6.806 7.155z" fill="#fff"/><path d="m326.028 332.871c.062-3.837 2.995-6.699 6.809-6.568 3.807.26 6.744 3.391 6.807 7.211-.063 3.819-2.995 6.591-6.807 6.475-3.809-.242-6.748-3.281-6.809-7.118z" fill="#fff"/><path d="m235.063 332.871c-.064 3.841-3 6.88-6.809 7.118-3.812.116-6.747-2.656-6.807-6.475.06-3.82 2.998-6.951 6.807-7.211 3.811-.134 6.745 2.734 6.809 6.568z" fill="#fff"/><path d="m-29.256 351.717s-7.331-5.443-7.73-5.741c-.404.298-7.731 5.741-7.731 5.741l7.524 2.658z" fill="#c94d38"/><path d="m230.134 361.25s-6.123-.648-6.454-.683c-.135.311-2.517 5.981-2.517 5.981l5.279-1.039z" fill="#c94d38"/><path d="m13.797 359.571s6.122-.647 6.459-.684c.129.311 2.512 5.981 2.512 5.981l-5.277-1.039z" fill="#c94d38"/><path d="m331.583 361.25s6.121-.648 6.457-.683c.128.311 2.516 5.981 2.516 5.981l-5.279-1.039z" fill="#c94d38"/><path d="m-87.649 359.571s-6.122-.647-6.459-.684c-.128.311-2.512 5.981-2.512 5.981l5.277-1.039z" fill="#c94d38"/><path d="m-13.185 353.097c-.374 1.522 2.037 3.418 5.385 4.235 3.343.819 6.359.247 6.733-1.273.37-1.521-2.043-3.418-5.387-4.237-3.348-.816-6.359-.246-6.731 1.275z" fill="#0066a0"/><path d="m272.907 352.821s7.333-5.445 7.731-5.743c.401.298 7.73 5.743 7.73 5.743l-7.526 2.655z" fill="#c94d38"/><path d="m256.837 354.015c.37 1.52-2.04 3.416-5.385 4.235-3.347.82-6.359.247-6.73-1.275-.373-1.52 2.037-3.413 5.382-4.232 3.347-.821 6.359-.248 6.733 1.272z" fill="#0066a0"/><path d="m304.254 354.015c-.373 1.52 2.037 3.416 5.384 4.235 3.348.82 6.36.247 6.731-1.275.374-1.52-2.04-3.413-5.385-4.232-3.345-.821-6.359-.248-6.73 1.272z" fill="#0066a0"/><path d="m-60.604 353.097c.374 1.522-2.04 3.418-5.383 4.235-3.348.819-6.361.247-6.731-1.273-.374-1.521 2.037-3.418 5.382-4.237 3.347-.816 6.363-.246 6.732 1.275z" fill="#0066a0"/><path d="m332.375 368.602c-4.779-2.531-22.634-10.801-51.829-10.803-29.196.002-47.051 8.272-51.83 10.803l-.597-1.123c4.842-2.572 22.937-10.953 52.427-10.955 29.489.002 47.583 8.383 52.426 10.955z"/><path d="m160.335 480.215h9.082v-16.444h-9.082z" fill="#fff"/><path d="m74.515 463.771h9.085v16.445h-9.085z"/><path d="m162.816 477.517h9.086v-16.444h-9.086z"/><path d="m72.035 461.073h9.083v16.443h-9.083z" fill="#fff"/><path d="m161.822 478.743h9.084v-16.444h-9.084z" fill="#dfbc41"/><path d="m73.025 462.299h9.086v16.443h-9.086z" fill="#dfbc41"/><path d="m160.335 458.87h9.082v-16.445h-9.082z" fill="#fff"/><path d="m74.515 442.425h9.085v16.445h-9.085z"/><path d="m162.816 456.174h9.086v-16.446h-9.086z"/><path d="m72.035 439.728h9.083v16.446h-9.083z" fill="#fff"/><path d="m161.822 457.4h9.084v-16.443h-9.084z" fill="#dfbc41"/><path d="m73.025 440.957h9.086v16.443h-9.086z" fill="#dfbc41"/><path d="m160.335 437.522h9.082v-16.447h-9.082z" fill="#fff"/><path d="m74.515 421.075h9.085v16.447h-9.085z"/><path d="m162.816 434.827h9.086v-16.444h-9.086z"/><path d="m72.035 418.383h9.083v16.443h-9.083z" fill="#fff"/><path d="m161.822 436.052h9.084v-16.443h-9.084z" fill="#dfbc41"/><path d="m73.025 419.609h9.086v16.443h-9.086z" fill="#dfbc41"/><path d="m160.335 416.18h9.082v-16.448h-9.082z" fill="#fff"/><path d="m74.515 399.732h9.085v16.447h-9.085z"/><path d="m162.816 413.481h9.086v-16.443h-9.086z"/><path d="m72.035 397.038h9.083v16.443h-9.083z" fill="#fff"/><path d="m161.822 414.707h9.084v-16.445h-9.084z" fill="#dfbc41"/><path d="m73.025 398.262h9.086v16.445h-9.086z" fill="#dfbc41"/><path d="m160.335 394.832h9.082v-16.445h-9.082z" fill="#fff"/><path d="m74.515 378.387h9.085v16.445h-9.085z"/><path d="m162.816 392.136h9.086v-16.443h-9.086z"/><path d="m72.035 375.693h9.083v16.443h-9.083z" fill="#fff"/><path d="m161.822 393.359h9.084v-16.443h-9.084z" fill="#dfbc41"/><path d="m73.025 376.916h9.086v16.443h-9.086z" fill="#dfbc41"/><path d="m160.335 373.487h9.082v-16.445h-9.082z" fill="#fff"/><path d="m74.515 357.042h9.085v16.444h-9.085z"/><path d="m162.816 370.791h9.086v-16.443h-9.086z"/><path d="m72.035 354.348h9.083v16.443h-9.083z" fill="#fff"/><path d="m161.822 372.017h9.084v-16.445h-9.084z" fill="#dfbc41"/><path d="m73.025 355.572h9.086v16.444h-9.086z" fill="#dfbc41"/><path d="m160.335 352.142h9.083c-.032-5.527.073-10.867-.065-16.543l-9.083.269c.13 5.135.035 10.87.065 16.274z" fill="#fff"/><path d="m83.6 352.142h-9.085c.03-5.527-.068-10.867.068-16.543l9.08.269c-.127 5.135-.036 10.87-.063 16.274z"/><path d="m162.816 349.446h9.086c-.089-5.678.192-10.516-.206-16.921l-9.055.751c.336 4.945.105 10.799.175 16.17z"/><path d="m81.118 349.446h-9.084c.085-5.678-.197-10.516.204-16.921l9.054.751c-.337 4.945-.104 10.799-.174 16.17z" fill="#fff"/><path d="m161.822 350.672h9.085c-.063-5.608.142-10.686-.141-16.725l-9.066.532c.248 4.975.07 10.824.122 16.193z" fill="#dfbc41"/><path d="m82.111 350.672h-9.086c.063-5.608-.138-10.686.141-16.725l9.069.532c-.249 4.975-.07 10.824-.124 16.193z" fill="#dfbc41"/><path d="m159.928 331.549 9.012-1.151c-.736-5.797-2.45-11.502-5.179-16.729l-8.052 4.201c2.2 4.219 3.611 8.885 4.219 13.679z" fill="#fff"/><path d="m84.005 331.549-9.01-1.151c.735-5.797 2.45-11.502 5.179-16.729l8.052 4.201c-2.201 4.219-3.614 8.885-4.221 13.679z"/><path d="m162.041 328.749 8.936-1.649c-1.091-6.039-3.285-11.926-6.495-17.253l-7.778 4.695c2.612 4.333 4.433 9.174 5.337 14.207z"/><path d="m81.893 328.749-8.936-1.649c1.091-6.039 3.28-11.926 6.492-17.253l7.778 4.695c-2.615 4.333-4.432 9.174-5.334 14.207z" fill="#fff"/><path d="m161.229 330.032 8.971-1.422c-.951-5.94-2.908-11.768-5.908-17.061l-7.906 4.477c2.435 4.294 4.054 9.072 4.843 14.006z" fill="#dfbc41"/><path d="m82.705 330.032-8.971-1.422c.949-5.94 2.908-11.768 5.903-17.061l7.909 4.477c-2.434 4.294-4.052 9.072-4.841 14.006z" fill="#dfbc41"/><path d="m155.622 313.659 6.774-4.582c-2.969-4.392-6.829-8.222-11.297-11.128l-4.468 6.848c3.546 2.311 6.609 5.331 8.991 8.862z"/><path d="m89.078 313.659-6.771-4.582c2.97-4.392 6.831-8.222 11.297-11.128l4.465 6.848c-3.545 2.311-6.608 5.331-8.991 8.862z"/><path d="m156.189 310.578 6.47-4.992c-3.426-4.448-7.77-8.235-12.69-10.97l-4.003 7.127c3.968 2.204 7.453 5.244 10.223 8.835z" fill="#fff"/><path d="m88.511 310.578-6.467-4.992c3.424-4.448 7.771-8.235 12.69-10.97l4.004 7.127c-3.969 2.204-7.454 5.244-10.227 8.835z" fill="#fff"/><path d="m156.061 311.932 6.608-4.804c-3.228-4.442-7.368-8.256-12.095-11.086l-4.215 7.004c3.789 2.269 7.095 5.303 9.702 8.886z" fill="#dfbc41"/><path d="m88.641 311.932-6.607-4.804c3.226-4.442 7.366-8.256 12.092-11.086l4.216 7.004c-3.787 2.269-7.094 5.303-9.701 8.886z" fill="#dfbc41"/><path d="m143.932 301.775 3.62-7.326c-4.77-2.365-9.973-3.746-15.208-4.27l-.761 8.142c4.338.442 8.54 1.569 12.349 3.454z"/><path d="m100.772 301.775-3.624-7.326c4.77-2.365 9.975-3.746 15.208-4.27l.762 8.142c-4.339.442-8.539 1.569-12.346 3.454z"/><path d="m142.902 298.815 3.142-7.545c-5.169-2.197-10.725-3.228-16.183-3.447l-.339 8.171c4.606.182 9.188 1.034 13.38 2.821z" fill="#fff"/><path d="m101.801 298.815-3.144-7.545c5.171-2.197 10.725-3.228 16.186-3.447l.339 8.171c-4.61.182-9.189 1.034-13.381 2.821z" fill="#fff"/><path d="m143.455 300.054 3.366-7.454c-5.015-2.254-10.42-3.468-15.794-3.827l-.532 8.159c4.503.301 8.918 1.305 12.96 3.122z" fill="#dfbc41"/><path d="m101.248 300.054-3.365-7.454c5.014-2.254 10.42-3.468 15.793-3.827l.532 8.159c-4.506.301-8.918 1.305-12.96 3.122z" fill="#dfbc41"/><path d="m123.438 299.03c-.713 0-2.92 0-2.92 0l-1.46-12.409h8.759l-1.46 12.409c.001 0-2.205 0-2.919 0z"/><path d="m121.512 297.104c-.713 0-2.92 0-2.92 0l-1.46-12.409h8.76l-1.46 12.409s-2.206 0-2.92 0z" fill="#fff"/><path d="m122.476 298.067c-.714 0-2.921 0-2.921 0l-1.459-12.41h8.759l-1.46 12.41s-2.206 0-2.919 0z" fill="#dfbc41"/><path d="m224.567 325.678v-42.318l.901-8.35-1.691-.185-.908 8.396-.005.048v.045 43.562c.521-.457 1.085-.865 1.703-1.198z" fill="#fff"/><path d="m-88.881 368.602c4.778-2.531 22.632-10.801 51.83-10.803 29.196.002 47.051 8.272 51.827 10.803l.6-1.123c-4.843-2.572-22.94-10.953-52.427-10.955-29.489.002-47.587 8.383-52.428 10.955z"/></svg>