<svg height="1000" viewBox="0 0 1000 1000" width="1000" xmlns="http://www.w3.org/2000/svg"><g transform="matrix(2.0155045 0 0 2.0155045 -46.634743 -322.517)"><path d="m 302.02 160.018 c -62.962 .001 -113.993 51.034 -113.994 113.995 c 0 .002 0 .004 0 .006 c .006 47.646 29.24 88.455 70.745 105.494 v 17.202 l 43.256 35.711 l 43.256 -35.71 v -17.197 c 41.508 -17.034 70.743 -57.843 70.744 -105.492 l .001 -.009 C 416.02 211.056 364.981 160.02 302.02 160.018 Z"/><path d="m 302.02 165.361 c -30.014 .002 -57.158 12.157 -76.83 31.823 c -19.665 19.67 -31.819 46.816 -31.821 76.829 v .004 c .003 44.631 26.92 82.973 65.401 99.695 V 362.72 c -32.81 -16.032 -55.411 -49.722 -55.417 -88.702 c 0 -.003 0 -.007 0 -.011 c .005 -54.495 44.169 -98.656 98.665 -98.661 c 54.499 .005 98.67 44.172 98.68 98.671 v .004 c -.004 38.981 -22.604 72.673 -55.416 88.702 v 10.996 c 12.613 -5.479 23.986 -13.277 33.578 -22.867 c 19.666 -19.67 31.821 -46.814 31.823 -76.825 v -.009 C 410.682 214.008 362.027 165.359 302.02 165.361 Z" fill="#fbca2a"/><path d="m 243.577 332.472 c -14.972 -14.986 -24.21 -35.601 -24.215 -58.454 v -.267 l -.001 -.008 c .076 -22.746 9.296 -43.257 24.209 -58.182 c 14.984 -14.969 35.598 -24.205 58.45 -24.209 c 22.853 .004 43.47 9.24 58.457 24.212 c 14.972 14.985 24.209 35.601 24.217 58.454 c 0 0 0 .004 0 .004 c -.004 22.853 -9.24 43.467 -24.21 58.451 c -4.573 4.57 -9.674 8.601 -15.2 12.002 v 18.249 c 32.811 -16.029 55.412 -49.721 55.416 -88.702 v -.004 c -.01 -54.499 -44.181 -98.667 -98.68 -98.671 c -54.496 .005 -98.66 44.166 -98.665 98.661 c 0 .004 0 .007 0 .011 c .006 38.98 22.607 72.67 55.417 88.702 v -18.25 c -5.525 -3.401 -10.623 -7.431 -15.195 -11.999 z" fill="#3a2d73"/><path d="m 384.693 274.022 c 0 0 0 -.004 0 -.004 c -.007 -22.852 -9.245 -43.468 -24.217 -58.454 c -14.987 -14.972 -35.603 -24.209 -58.457 -24.212 c -22.852 .004 -43.466 9.24 -58.45 24.209 c -14.913 14.925 -24.133 35.436 -24.209 58.182 l .001 .008 v .267 c .005 22.853 9.243 43.468 24.215 58.454 c 4.572 4.568 9.67 8.598 15.194 11.998 v -6.447 C 238.262 324.135 224.783 300.652 224.78 274.02 v 0 c 0 -.003 0 -.004 0 -.006 c 0 -42.661 34.579 -77.241 77.242 -77.242 c 42.662 .001 77.247 34.584 77.251 77.248 l -.001 .004 c 0 26.635 -13.479 50.119 -33.99 64.004 v 6.447 c 5.526 -3.401 10.626 -7.432 15.2 -12.002 c 14.971 -14.983 24.207 -35.598 24.211 -58.451 z" fill="#fbca2a"/><path d="m 302.023 199.721 c -20.521 .001 -39.085 8.313 -52.534 21.759 c -13.426 13.43 -21.733 31.956 -21.759 52.44 l .001 .006 v .093 c .001 24.893 12.247 46.924 31.041 60.407 v -7.445 l -7.006 -12.285 h 4.741 c -9.656 -10.799 -15.531 -25.052 -15.533 -40.677 v 0 c 0 -.003 0 -.004 0 -.006 c 0 -33.716 27.329 -61.046 61.048 -61.047 c 33.719 .001 61.052 27.334 61.059 61.054 c 0 15.625 -5.874 29.878 -15.529 40.677 h 4.738 l -7.006 12.286 v 7.449 c 3.306 -2.371 6.412 -5.005 9.283 -7.875 c 13.446 -13.449 21.757 -32.013 21.758 -52.533 l .001 -.004 c -.003 -41.034 -33.271 -74.3 -74.303 -74.299 z" fill="#fff"/><path d="m 265.286 311.738 l -.029 -.029 l -.012 -.04 c -.148 -.489 -.205 -1.021 -.205 -1.582 c .003 -2.151 .831 -4.75 .829 -7.04 c -.004 -1.638 -.41 -3.089 -1.81 -4.15 l -.021 -.016 l -.015 -.022 c -.405 -.582 -.572 -1.079 -.572 -1.515 c 0 -.702 .428 -1.184 .816 -1.554 c .401 -.365 .738 -.672 .714 -.85 c .009 -.122 -.134 -.353 -.709 -.661 l -.038 -.02 l -.023 -.037 c -.309 -.484 -.41 -1.042 -.41 -1.622 c .003 -1.261 .466 -2.666 .464 -3.839 c -.004 -.809 -.203 -1.477 -.863 -1.953 c -1.243 -.591 -3.862 -1.511 -3.886 -3.72 c 0 -.657 .244 -1.406 .821 -2.271 c 3.606 -4.698 4.219 -7.445 7.847 -12.185 c .189 -.552 .268 -1.043 .268 -1.489 c .04 -2.746 -3.159 -3.96 -3.201 -6.833 c 0 -.336 .046 -.695 .15 -1.077 l .006 -.022 l .01 -.016 c 2.624 -4.586 2.126 -5.173 4.648 -9.787 c 1.308 -10.091 4.354 -15.126 7.773 -17.744 c 5.474 -3.397 5.051 -2.643 9.858 -3.548 c 3.323 -.333 6.825 -.571 10.458 -.571 c 9.224 0 19.3 1.538 29.444 6.985 c 6.289 3.378 11.023 9.034 11.141 9.175 v 0 c 4.33 4.99 5.794 11.577 5.794 18.205 c -.003 13.384 -5.961 26.965 -6.597 28.206 c -1.375 2.662 -2.699 4.247 -2.705 4.254 c -4.969 5.904 -6.837 10.137 -6.837 13.644 c 0 .639 .062 1.254 .179 1.853 c .329 1.576 .323 2.936 1.217 4.831 h 13.719 c 10.281 -10.486 16.619 -24.834 16.619 -40.677 c -.004 -32.091 -26.02 -58.106 -58.11 -58.106 c -16.05 .001 -30.564 6.502 -41.083 17.018 c -10.517 10.519 -17.016 25.034 -17.017 41.083 v .006 c .001 15.838 6.343 30.195 16.623 40.677 h 12.025 c -2.877 -.422 -5.491 -1.189 -7.28 -2.961 z" fill="#fbca2a"/><path d="M 343.091 320.039 L 260.964 320.039 L 264.116 325.563 L 264.116 394.199 L 302.027 425.497 L 339.94 394.199 L 339.94 325.563 Z" fill="#fbca2a"/><path d="M 269.677 326.274 L 269.677 389.77 L 302.028 416.612 L 334.379 389.77 L 334.379 326.274 Z" fill="#3a2d73"/><path d="M 272.449 387.641 L 277.673 391.975 L 277.673 363.763 L 286.32 363.763 L 286.32 399.151 L 291.673 403.592 L 291.667 329.44 L 286.317 329.44 L 286.317 358.539 L 277.673 358.539 L 277.673 329.44 L 272.449 329.44 Z" fill="#fff"/><path d="M 304.844 352.363 L 310.193 352.363 L 310.19 329.44 L 294.14 329.44 L 294.146 405.643 L 302.098 412.241 L 310.196 405.521 L 310.196 388.738 L 304.847 388.738 L 304.847 404.388 L 299.495 404.388 L 299.491 334.789 L 304.841 334.789 Z" fill="#fff"/><path d="M 331.613 329.44 L 312.939 329.44 L 312.945 403.24 L 318.295 398.801 L 318.292 363.763 L 324.742 363.763 L 324.742 358.539 L 318.292 358.539 L 318.29 334.789 L 331.613 334.789 Z" fill="#fff"/><path d="m 287.052 243.681 l .313 -.365 c 1.543 -1.807 2.21 -4.186 2.21 -6.555 c -.002 -2.753 -.894 -5.511 -2.443 -7.433 l -.396 -.488 l -.265 .569 c -1.037 2.229 -1.773 4.852 -1.774 7.441 c 0 2.286 .581 4.555 2.061 6.453 z" fill="#29a249"/><path d="m 283.617 243.917 c .496 0 1.009 -.098 1.536 -.302 l .319 -.123 l -.08 -.333 c -1.024 -4.267 -4.11 -9.584 -8.74 -10.883 l -.377 -.104 l -.105 .376 c -.082 .296 -.115 .61 -.115 .932 c .003 1.209 .467 2.574 1.021 3.738 c 1.604 3.316 3.523 6.644 6.541 6.699 z" fill="#29a249"/><path d="m 288.074 248.068 l -.075 .501 c -.07 .463 -.103 .926 -.103 1.386 c .018 5.13 4.04 9.91 8.48 11.631 l .628 .241 l -.1 -.666 c -.701 -4.547 -3.777 -10.899 -8.364 -12.894 z" fill="#29a249"/><path d="m 298.998 259.363 l .24 -.459 c 1.056 -2.014 1.611 -4.247 1.611 -6.486 c 0 -2.547 -.721 -5.102 -2.248 -7.327 l -.364 -.531 l -.304 .568 c -1.16 2.164 -1.915 4.75 -1.916 7.254 c -.002 2.467 .745 4.872 2.604 6.625 z" fill="#29a249"/><path d="m 293.154 262.696 l -.115 -.314 c -1.844 -5.042 -7.054 -7.388 -11.737 -8.168 l -.554 -.093 l .105 .552 c .442 2.393 1.484 3.946 4.103 5.954 c 2.1 1.609 3.518 2.95 5.424 2.969 c .771 0 1.581 -.237 2.482 -.737 z" fill="#29a249"/><path d="m 310.866 271.322 l .393 .012 l .01 -.394 c .019 -.732 .042 -1.549 .042 -2.411 c -.009 -3.617 -.376 -8.068 -3.25 -10.64 l -.495 -.437 l -.147 .643 c -.002 .011 -.938 4.045 -1.076 6.417 c -.007 .102 -.009 .209 -.009 .317 c .003 1.249 .387 2.801 1.128 4.096 c .737 1.283 1.876 2.351 3.404 2.397 z" fill="#29a249"/><path d="m 299.21 260.917 l -.021 .628 c -.002 .082 -.003 .163 -.003 .242 c .031 5.394 4.438 10.767 8.219 12.225 l .62 .234 l -.093 -.655 c -.71 -4.947 -4.362 -10.336 -8.166 -12.379 z" fill="#29a249"/><path d="m 292.449 268.182 c -.099 0 -.196 .002 -.293 .004 l -.594 .012 l .247 .542 c 2.207 4.832 7.675 7.617 12.72 7.622 c .195 0 .389 -.004 .582 -.012 l .567 -.024 l -.224 -.522 c -2.044 -4.729 -7.778 -7.612 -13.005 -7.622 z" fill="#29a249"/><path d="m 323.74 283.824 l .215 -.747 c .318 -1.125 .484 -2.332 .484 -3.569 c 0 -3.336 -1.193 -6.9 -3.769 -9.617 l -.582 -.614 l -.092 .841 c -.086 .784 -.128 1.576 -.128 2.369 c 0 3.777 .991 7.602 3.399 10.722 z" fill="#29a249"/><path d="m 322.237 286.201 l .784 .358 l -.246 -.827 c -1.427 -4.776 -4.887 -9.938 -9.867 -11.916 l -.6 -.236 l .066 .641 c .55 5.166 5.327 9.895 9.863 11.98 z" fill="#29a249"/><path d="m 307.625 279.487 l -.482 -.114 v .496 c .001 2.232 1.471 3.814 3.256 5.002 c 2.395 1.347 4.152 2.615 7.867 2.615 c .01 0 .02 0 .029 0 c .517 0 1.071 -.025 1.67 -.074 l .597 -.049 l -.283 -.527 c -2.429 -4.482 -7.927 -6.231 -12.654 -7.349 z" fill="#29a249"/><path d="m 283.162 248.345 l .469 -.087 l -.177 -.443 c -1.968 -4.923 -7.751 -8.105 -12.334 -9.345 l -.476 -.128 l -.018 .493 c 0 .004 -.001 .021 -.001 .052 c .001 .253 .015 1.489 .371 2.634 c .396 1.202 1.941 2.842 3.987 4.297 c 2.048 1.434 4.589 2.627 6.998 2.632 c .398 -.001 .792 -.033 1.181 -.105 z" fill="#29a249"/><path d="m 331.536 281.65 l -.417 -.136 l -.09 .429 c -.052 .249 -.072 .51 -.072 .779 c .01 1.798 .869 4.172 .857 5.618 c 0 0 0 .001 0 .003 c -1.515 -1.571 -4.23 -2.504 -5.491 -2.535 h -.343 l -.045 .34 c -.019 .139 -.025 .275 -.025 .409 c .016 1.625 1.042 3.305 2.271 4.734 c -.874 -.199 -1.892 -.383 -2.882 -.384 c -1.083 .001 -2.168 .219 -2.962 .959 l -.287 .266 l .267 .287 c .013 .012 1.505 1.626 3.269 2.744 c 1.801 1.127 5.301 2.229 7.105 2.416 l .026 .002 c .732 -1.014 1.567 -2.081 2.519 -3.211 c .005 -.006 .869 -1.041 1.925 -2.841 c -.491 -2.782 -1.521 -8.47 -5.625 -9.879 z" fill="#29a249"/><path d="m 40.008 558.5 v -35.665 c 0 -9.87 5.395 -16.714 14.082 -16.714 c 8.553 0 11.71 6.055 11.71 13.688 V 558.5 h 15.53 v -40.272 c 0 -17.109 -8.159 -23.425 -20.529 -23.425 c -9.344 0 -17.24 4.342 -21.055 12.635 H 39.483 V 464.534 H 24.48 V 558.5 Z" fill="#3a2d73"/><path d="m 141.488 468.877 h -17.766 l -11.842 18.95 h 10.79 z m 8.421 62.512 c .66 -19.872 -6.315 -36.586 -29.739 -36.586 c -20.266 0 -29.873 15.267 -29.873 33.164 c 0 18.163 9.607 33.166 30.794 33.166 c 11.582 0 24.215 -5.264 27.767 -21.978 H 133.33 c -1.052 6.842 -6.447 10.659 -13.16 10.659 c -10.396 0 -14.345 -9.476 -14.345 -18.424 h 44.084 z m -43.424 -11.318 c 1.446 -8.687 5.132 -13.951 14.868 -13.951 c 8.556 0 12.634 5.001 13.422 13.951 z" fill="#3a2d73"/><path d="m 159.947 558.5 h 15.528 v -30.006 c 0 -13.161 7.501 -19.478 16.714 -19.478 c 2.501 0 4.209 .264 5.921 .264 v -14.477 c -11.713 0 -18.555 5.397 -23.161 15.924 h -.263 v -13.292 h -14.74 V 558.5 Z" fill="#3a2d73"/><path d="m 259.315 518.491 c -2.897 -15.923 -11.976 -23.688 -28.819 -23.688 c -21.715 0 -31.585 12.503 -31.585 33.164 c 0 20.399 9.87 33.166 31.585 33.166 c 16.054 0 25.527 -7.764 28.556 -22.373 h -15.528 c -2.369 7.106 -5.924 11.053 -13.162 11.053 c -8.685 0 -14.868 -7.107 -14.868 -21.846 c 0 -15.002 6.184 -21.847 14.868 -21.847 c 7.898 0 11.713 5.001 13.556 12.371 z" fill="#3a2d73"/><path d="M 307.483 497.435 V 533.1 c 0 9.871 -5.395 16.714 -14.08 16.714 c -8.553 0 -11.713 -6.052 -11.713 -13.687 v -38.692 h -15.528 v 40.271 c 0 17.108 8.162 23.427 20.529 23.427 c 9.344 0 17.24 -4.344 21.055 -12.634 h .263 V 558.5 h 15.002 v -61.065 z" fill="#3a2d73"/><path d="M 336.19 464.534 H 351.718 V 558.501003 H 336.19 Z" fill="#3a2d73"/><path d="m 421.506 531.389 c .66 -19.872 -6.315 -36.586 -29.739 -36.586 c -20.266 0 -29.871 15.267 -29.871 33.164 c 0 18.163 9.605 33.166 30.791 33.166 c 11.582 0 24.215 -5.264 27.767 -21.978 h -15.528 c -1.051 6.842 -6.447 10.659 -13.159 10.659 c -10.396 0 -14.342 -9.476 -14.342 -18.424 h 44.081 z m -43.424 -11.318 c 1.446 -8.687 5.132 -13.951 14.871 -13.951 c 8.553 0 12.633 5.001 13.422 13.951 z" fill="#3a2d73"/><path d="m 427.335 540.338 v .264 c 1.314 14.74 13.817 20.531 29.608 20.531 c 10.659 0 27.373 -4.344 27.373 -20.531 c 0 -26.321 -39.215 -15.004 -39.215 -26.849 c 0 -5.921 6.841 -7.633 11.579 -7.633 c 6.712 0 11.845 3.159 11.845 9.213 h 14.211 c .131 -13.951 -12.239 -20.53 -25.793 -20.53 c -11.974 0 -27.37 5.659 -27.37 19.609 c 0 26.19 39.215 15.267 39.215 28.032 c 0 4.475 -5.132 7.37 -12.897 7.37 c -6.449 0 -13.028 -2.106 -13.028 -9.476 z" fill="#3a2d73"/><path d="m 550.443 518.491 c -2.895 -15.923 -11.977 -23.688 -28.819 -23.688 c -21.715 0 -31.582 12.503 -31.582 33.164 c 0 20.399 9.868 33.166 31.582 33.166 c 16.054 0 25.53 -7.764 28.556 -22.373 h -15.528 c -2.369 7.106 -5.921 11.053 -13.159 11.053 c -8.684 0 -14.871 -7.107 -14.871 -21.846 c 0 -15.002 6.187 -21.847 14.871 -21.847 c 7.896 0 11.71 5.001 13.554 12.371 z" fill="#a7a9ac"/><path d="m 574.398 497.435 v -10.002 c 0 -7.238 2.369 -9.739 10.133 -9.739 c 1.58 0 3.161 .132 4.606 .395 v -13.161 c -1.709 -.131 -4.475 -.395 -7.107 -.395 c -17.895 0 -23.161 4.212 -23.161 17.634 v 15.267 h -8.947 v 12.372 h 8.947 V 558.5 h 15.528 v -48.693 h 14.74 v -12.372 z" fill="#a7a9ac"/><path d="m 23.138 615.943 v .086 c .442 4.935 4.626 6.875 9.915 6.875 c 3.569 0 9.163 -1.455 9.163 -6.875 c 0 -8.812 -13.129 -5.023 -13.129 -8.989 c 0 -1.981 2.29 -2.555 3.876 -2.555 c 2.246 0 3.966 1.059 3.966 3.085 h 4.757 c .042 -4.671 -4.097 -6.874 -8.637 -6.874 c -4.008 0 -9.163 1.894 -9.163 6.565 c 0 8.768 13.129 5.111 13.129 9.386 c 0 1.497 -1.717 2.467 -4.316 2.467 c -2.159 0 -4.363 -.705 -4.363 -3.171 z" fill="#808285"/><path d="M 73.178001 616.47198 H 78.377001 V 622.02398 H 73.178001 Z" fill="#808285"/><path d="m 129.232 622.023 c -.881 -.794 -1.144 -1.675 -1.144 -3.966 v -8.196 c -.003 -6.433 -3.085 -9.164 -9.255 -9.164 c -4.229 0 -8.592 1.586 -8.589 6.433 h 4.934 c 0 -1.939 2.027 -2.645 3.7 -2.645 c 2.249 0 4.011 .617 4.011 2.555 c 0 5.289 -13.878 -1.057 -13.878 9.079 c 0 4.141 2.733 6.786 7.183 6.786 c 2.996 0 5.376 -1.631 6.696 -4.23 h .089 c -.089 1.146 .173 2.334 .66 3.349 h 5.593 z m -11.101 -2.908 c -2.117 0 -3.568 -.705 -3.568 -3.085 c -.003 -4.405 6.475 -2.114 8.237 -5.552 h .089 c 0 3.569 .484 8.637 -4.758 8.637 z" fill="#808285"/><path d="M 159.868 616.47198 H 165.066 V 622.02398 H 159.868 Z" fill="#808285"/><path d="m 211.119 611.844 c 0 2.907 -1.057 7.271 -4.844 7.271 c -3.085 0 -4.671 -3.966 -4.671 -7.358 c -.003 -3.393 1.583 -7.271 4.668 -7.271 c 3.79 0 4.847 4.451 4.847 7.358 z m 5.023 10.179 l -.003 -31.461 h -5.2 l .003 13.879 h -.089 c -1.497 -2.204 -3.611 -3.834 -6.475 -3.745 c -3.613 -.089 -8.371 3.657 -8.326 11.059 c .042 7.403 4.713 11.148 8.326 11.148 c 2.777 0 5.507 -1.5 6.696 -4.054 h .09 v 3.173 h 4.978 z" fill="#808285"/><path d="m 266.302 612.946 c .218 -6.654 -2.117 -12.249 -9.96 -12.249 c -6.785 0 -9.999 5.11 -9.999 11.104 c 0 6.081 3.216 11.104 10.309 11.104 c 3.877 0 8.105 -1.764 9.297 -7.359 h -5.199 c -.353 2.291 -2.159 3.569 -4.405 3.569 c -3.482 0 -4.805 -3.171 -4.805 -6.169 z m -14.541 -3.79 c .484 -2.907 1.717 -4.67 4.979 -4.67 c 2.864 0 4.229 1.674 4.495 4.67 z" fill="#808285"/><path d="m 301.881 611.756 c 0 -2.909 1.057 -7.271 4.847 -7.271 c 3.082 0 4.668 3.966 4.67 7.358 c 0 3.393 -1.588 7.271 -4.67 7.271 c -3.79 .001 -4.847 -4.449 -4.847 -7.358 z m -5.024 -10.178 l .003 29.786 h 5.197 V 619.16 h .089 c 1.497 2.201 3.611 3.832 6.475 3.745 c 3.614 .086 8.371 -3.659 8.327 -11.061 c -.045 -7.402 -4.716 -11.147 -8.327 -11.147 c -2.777 0 -5.507 1.498 -6.698 4.053 h -.087 v -3.172 z" fill="#808285"/><path d="m 356.666 622.905 c 6.565 0 10.575 -4.407 10.572 -11.104 c 0 -6.785 -4.008 -11.104 -10.575 -11.104 c -7.269 0 -10.528 4.186 -10.572 11.104 c .045 6.828 3.306 11.104 10.575 11.104 z m -.044 -3.79 c -2.909 0 -4.978 -2.38 -4.978 -7.314 c 0 -5.023 2.07 -7.403 4.978 -7.315 c 2.995 -.088 5.065 2.292 5.065 7.315 c -.001 4.934 -2.07 7.314 -5.065 7.314 z" fill="#808285"/><path d="m 397.439 622.023 h 5.2 v -10.046 c 0 -4.406 2.512 -6.523 5.594 -6.523 c .839 0 1.41 .09 1.983 .09 v -4.847 c -3.921 0 -6.212 1.807 -7.753 5.331 h -.089 v -4.45 h -4.934 v 20.445 z" fill="#808285"/><path d="m 439.479 594.265 v 7.314 h -2.774 v 4.143 h 2.774 v 8.811 c .003 5.816 .442 7.668 6.215 7.668 c 1.233 0 2.422 -.176 3.656 -.176 v -4.363 c -.705 .044 -1.41 .131 -2.07 .131 c -2.249 0 -2.601 -.792 -2.601 -3.612 v -8.459 h 4.892 v -4.143 h -4.892 v -7.314 z" fill="#808285"/><path d="m 478.753 601.578 l .003 20.445 h 5.199 l -.003 -20.445 z m 5.2 -4.142 v -5.288 h -5.2 v 5.288 z" fill="#808285"/><path d="M 523.271 615.325 L 518.469 601.578 L 512.828 601.578 L 520.935 622.023 L 525.651 622.023 L 534.109 601.578 L 528.468 601.578 L 523.358 615.325 Z" fill="#808285"/><path d="m 581.407 622.023 c -.881 -.794 -1.144 -1.675 -1.144 -3.966 l -.003 -8.196 c 0 -6.433 -3.085 -9.164 -9.252 -9.164 c -4.229 0 -8.592 1.586 -8.589 6.433 h 4.934 c 0 -1.939 2.025 -2.645 3.701 -2.645 c 2.246 0 4.008 .617 4.008 2.555 c 0 5.289 -13.878 -1.057 -13.878 9.079 c .003 4.141 2.735 6.786 7.183 6.786 c 2.998 0 5.375 -1.631 6.698 -4.23 h .087 c -.087 1.146 .176 2.334 .663 3.349 h 5.592 z m -11.101 -2.908 c -2.117 0 -3.569 -.705 -3.569 -3.085 c -.003 -4.405 6.475 -2.114 8.237 -5.552 h .087 c .002 3.569 .487 8.637 -4.755 8.637 z" fill="#808285"/></g></svg>