<?xml version="1.0" encoding="iso-8859-1"?>
<!-- Generator: Adobe Illustrator 24.0.1, SVG Export Plug-In . SVG Version: 6.00 Build 0)  -->
<svg version="1.1" id="Layer_1" xmlns="http://www.w3.org/2000/svg" xmlns:xlink="http://www.w3.org/1999/xlink" x="0px" y="0px"
	 viewBox="0 0 600 600" style="enable-background:new 0 0 600 600;" xml:space="preserve">
<path style="fill:#0061AC;" d="M483.731,72.734V54.073l-87.463-26.732V0.605H213.336v26.735l-87.463,26.732v18.661h-71.72
	c0,0.271,0,0.542,0,0.747v24.766c3.799,233.143,119.762,402.099,250.649,500.689c130.89-98.59,246.85-267.545,250.719-500.755
	V73.616c0-0.273,0-0.611,0-0.882H483.731z"/>
<path style="fill:#EE3124;" d="M135.373,365.18l-0.135-0.203l8.211,16.216l17.64,31.212l19.068,29.518l20.288,27.887l21.51,26.19
	l22.46,24.564c19.133,19.27,38.88,38.066,60.388,54.756c21.509-16.69,41.255-35.486,60.457-54.756L387.65,496l21.511-26.19
	l20.354-27.887l18.999-29.518l17.642-31.212l8.211-16.216l-0.136,0.203H135.373z"/>
<g>
	<polygon style="fill:#FFE600;" points="135.373,365.18 143.449,381.193 161.089,412.405 171.268,428.215 171.268,365.18 	"/>
	<path style="fill:#FFE600;" d="M214.016,486.366l7.939,9.634l22.46,24.564c0.542,0.542,1.084,1.154,1.695,1.697V365.18h-32.094
		V486.366z"/>
	<path style="fill:#FFE600;" d="M288.79,562.294c5.293,4.41,10.517,8.821,16.012,13.026c5.429-4.206,10.789-8.547,16.014-13.026
		V365.18H288.79V562.294z"/>
	<path style="fill:#FFE600;" d="M363.564,522.261c0.541-0.542,1.084-1.154,1.695-1.697L387.65,496l7.939-9.634V365.18h-32.025
		V522.261z"/>
	<polygon style="fill:#FFE600;" points="438.337,428.215 448.515,412.405 466.157,381.193 474.231,365.18 438.337,365.18 	"/>
</g>
<polygon points="496.149,210.543 462.358,191.749 446.209,204.504 422.935,204.504 422.935,253.834 309.485,229.27 309.485,88.408 
	300.121,79.044 300.121,58.417 281.462,47.153 269.044,47.153 257.78,55.567 257.78,86.033 250.316,90.375 250.316,236.802 
	198.884,255.53 181.989,253.63 175.407,239.583 132.252,234.767 132.252,223.436 117.257,221.808 102.003,281.531 106.739,296.173 
	113.185,313.951 120.106,331.389 127.435,348.42 135.238,364.977 135.373,365.18 474.231,365.18 474.367,364.977 482.172,348.42 
	489.498,331.389 496.418,313.951 502.865,296.173 508.769,277.923 510.292,272.688 496.149,269.644 "/>
<path style="fill:#8ED8F8;" d="M465.072,91.461V67.916l-87.531-26.734V19.333H232.064v21.849l-87.53,26.734v23.545H72.813
	c-0.068,22.866,1.763,45.665,3.799,68.465l2.577,20.694l3.189,20.287l3.8,19.814l4.343,19.473l4.885,19.066l5.429,18.662
	l1.166,3.608l15.254-59.724l14.996,1.628v11.331l43.154,4.816l6.583,14.047l16.895,1.899l51.433-18.727V90.375l7.464-4.342V55.567
	l11.264-8.414h12.417l18.659,11.264v20.627l9.365,9.364V229.27l113.45,24.564v-49.33h23.274l16.149-12.755l33.791,18.795v59.101
	l14.143,3.044l3.905-13.427l4.886-19.066l4.341-19.473l3.8-19.814l3.188-20.287l2.58-20.694c2.103-22.8,3.934-45.599,3.867-68.465
	H465.072z"/>
<rect x="316.948" y="240.331" style="fill:#FFFFFF;" width="7.532" height="33.723"/>
<rect x="349.857" y="247.387" style="fill:#FFFFFF;" width="7.463" height="33.724"/>
<rect x="382.63" y="254.512" style="fill:#FFFFFF;" width="7.533" height="33.724"/>
<rect x="409.839" y="260.348" style="fill:#FFFFFF;" width="7.531" height="33.791"/>
<polygon style="fill:#FFFFFF;" points="272.776,80.333 258.933,84.201 258.933,58.959 272.776,48.509 "/>
<rect x="273.929" y="48.306" style="fill:#FFFFFF;" width="7.533" height="33.18"/>
<rect x="426.735" y="237.82" style="fill:#FFFFFF;" width="3.731" height="15.063"/>
<rect x="426.735" y="212.579" style="fill:#FFFFFF;" width="3.731" height="10.244"/>
<polygon style="fill:#FFFFFF;" points="462.967,192.967 448.515,204.301 471.043,209.051 "/>
<polygon style="fill:#FFFFFF;" points="446.073,258.787 446.073,205.182 451.5,206.269 451.5,260.008 "/>
<polygon style="fill:#FFFFFF;" points="272.03,263.74 290.757,265.911 290.757,88.408 272.03,84.541 "/>
<polygon style="fill:#FFFFFF;" points="270.944,263.671 201.394,255.801 251.401,237.549 251.401,93.632 262.667,87.051 
	270.944,84.812 "/>
<polygon style="fill:#FFFFFF;" points="452.586,260.212 452.586,206.539 471.721,210.543 471.721,264.35 "/>
<rect x="259.273" y="102.655" width="3.732" height="30.061"/>
<rect x="259.273" y="158.906" width="3.732" height="30.059"/>
<rect x="259.273" y="222.756" width="3.732" height="29.992"/>
<rect x="279.56" y="218.958" width="3.733" height="29.991"/>
<rect x="279.56" y="100.758" width="3.733" height="30.056"/>
<rect x="460.525" y="217.532" width="3.732" height="34.741"/>
<path d="M289.129,170.171c0-4.208-3.46-7.668-7.667-7.668c-4.276,0-7.668,3.46-7.668,7.668c0,4.207,3.392,7.667,7.668,7.667
	C285.668,177.838,289.129,174.378,289.129,170.171z"/>
<path style="fill:#FFFFFF;" d="M287.975,170.171c0-3.597-2.919-6.582-6.513-6.582c-3.665,0-6.582,2.985-6.582,6.582
	c0,3.595,2.918,6.58,6.582,6.58C285.057,176.751,287.975,173.766,287.975,170.171z"/>
<path d="M286.685,170.171l-1.153,0.542h-3.527c-0.341,0-0.543-0.204-0.543-0.542c0-0.271,0.202-0.544,0.543-0.544h3.527
	L286.685,170.171z"/>
<g>
	<path style="fill:#FFFFFF;" d="M171.81,338.377c0,4.072-0.747,7.125-2.17,9.026c-1.493,1.898-3.733,2.848-6.853,2.848
		c-3.054,0-5.226-0.882-6.513-2.577c-1.223-1.765-1.901-4.885-1.901-9.297v-32.094h-5.293v31.077c0,4.073,0.135,6.921,0.475,8.618
		c0.34,1.63,0.951,3.054,1.764,4.14c1.153,1.56,2.714,2.781,4.682,3.663c1.968,0.815,4.206,1.222,6.718,1.222
		c2.443,0,4.614-0.34,6.513-1.155c1.901-0.815,3.529-1.968,4.818-3.528c1.086-1.289,1.832-2.713,2.308-4.411
		c0.474-1.628,0.678-4.476,0.678-8.55v-31.077h-5.225V338.377z"/>
	<rect x="189.589" y="347.404" style="fill:#FFFFFF;" width="5.63" height="6.58"/>
	<polygon style="fill:#FFFFFF;" points="213.133,331.389 230.299,331.389 230.299,326.572 213.133,326.572 213.133,311.238 
		231.521,311.238 231.521,306.283 207.84,306.283 207.84,353.984 231.726,353.984 231.726,348.963 213.133,348.963 	"/>
	<rect x="242.988" y="347.404" style="fill:#FFFFFF;" width="5.631" height="6.58"/>
	<polygon style="fill:#FFFFFF;" points="279.155,306.283 273.794,306.283 273.794,353.984 298.086,353.984 298.086,348.828 
		279.155,348.828 	"/>
	<polygon style="fill:#FFFFFF;" points="312.471,306.283 307.178,306.283 307.178,353.984 331.537,353.984 331.537,348.828 
		312.471,348.828 	"/>
	<polygon style="fill:#FFFFFF;" points="345.854,331.389 363.02,331.389 363.02,326.572 345.854,326.572 345.854,311.238 
		364.242,311.238 364.242,306.283 340.56,306.283 340.56,353.984 364.446,353.984 364.446,348.963 345.854,348.963 	"/>
	<rect x="374.895" y="306.283" style="fill:#FFFFFF;" width="5.429" height="47.701"/>
	<path style="fill:#FFFFFF;" d="M406.447,306.283c-0.271,0-0.543,0-0.883,0H392.06v47.701h12.35c0.746,0,1.426-0.067,2.037-0.067
		c2.171-0.136,3.868-0.408,5.156-0.813c1.561-0.61,3.054-1.63,4.343-2.985c1.832-2.105,3.257-4.818,4.139-8.347
		c0.814-3.46,1.29-7.871,1.29-13.232c0-7.599-1.29-13.23-3.869-16.826C415.132,308.251,411.399,306.487,406.447,306.283z
		 M414.793,340.414c-0.476,2.443-1.29,4.478-2.444,6.108c-0.677,1.016-1.628,1.764-2.85,2.238c-0.813,0.272-1.832,0.477-3.053,0.542
		c-0.611,0.068-1.357,0.068-2.172,0.068h-6.853v-38.472h6.717c0.814,0,1.63,0,2.308,0.136c3.189,0.407,5.36,1.628,6.717,3.73
		c1.561,2.58,2.374,7.736,2.374,15.404C415.538,334.579,415.268,337.972,414.793,340.414z"/>
	<path style="fill:#FFFFFF;" d="M448.719,306.283h-3.393h-3.392l-13.027,47.701h5.428l3.461-13.774h15.131l3.595,13.774h5.362
		L448.719,306.283z M439.016,335.392l6.31-25.038v0.068l6.379,24.969H439.016z"/>
</g>
<path d="M365.885,458.672c4.349-5.531,7.506-12.012,8.331-17.632v-5.293c-0.067-0.338-0.136-0.678-0.204-0.949
	c-4.681-2.239-11.942-1.424-19.064,1.29c-1.978,0.755-3.946,1.66-5.844,2.691c-2.994-9.369-10.953-17.698-16.798-21.231
	c1.121-4.603,1.059-9.571,3.032-14.233c2.441-5.7,8.209-4.274,10.312-3.868c-6.194-2.42-18.336-3.397-27.869,0.537
	c-1.999-9.692-6.949-18.826-12.979-21.639c-6.087,2.813-10.998,11.952-12.982,21.647c-9.447-3.941-21.608-2.965-27.867-0.544
	c2.105-0.407,7.872-1.833,10.315,3.868c2.444,5.767,1.765,12.009,4.072,17.436c5.281,12.334,14.043,14.658,20.585,11.805
	c-0.931,14.733-1.724,32.645-1.926,50.892c0-0.203,0-0.407,0-0.678h-0.068v-0.067l-21.56-15.185
	c7.31-2.531,12.372-11.064,5.888-24.035c-2.647-5.293-7.872-8.752-10.654-14.385c-2.782-5.564,1.967-9.023,3.664-10.382
	c-5.835,3.243-14.43,11.864-17.565,21.679c-1.896-1.026-3.864-1.927-5.845-2.679c-7.124-2.716-14.385-3.531-19.066-1.29
	c-0.067,0.271-0.137,0.611-0.204,0.882v5.429c0.826,5.585,4.008,12.051,8.367,17.564c-9.125,4.711-16.228,14.6-18.41,20.908
	c1.018-1.9,3.664-7.126,9.635-5.359c5.971,1.831,10.314,6.378,15.945,8.142c13.979,4.248,21.546-2.328,22.723-10.048l27.015,18.461
	c0,0,0-0.065,0-0.134c0,2.374,0,4.749,0.067,7.124v0.813v0.815v0.814v0.814v0.815v0.881v0.815
	c0.204,14.114,0.747,27.751,1.765,39.695c0.407,4.342,0.61,20.423,6.105,20.423c5.499,0,5.633-16.081,6.039-20.423
	c1.018-11.195,1.562-23.952,1.765-37.183c0.061-7.156,0.057-14.414,0.012-21.639c0.008,0.852,0.023,1.704,0.056,2.572l23.195-16.991
	c0.779,8.033,8.379,15.165,22.809,10.749c5.633-1.697,9.974-6.31,15.945-8.075c5.971-1.832,8.619,3.461,9.704,5.292
	C382.085,473.33,374.971,463.393,365.885,458.672z M312.605,483.245c0-0.046-0.002-0.091-0.002-0.14
	c0.002,0.025,0.002,0.048,0.002,0.071c0,0.092,0.001,0.183,0.001,0.275C312.605,483.384,312.606,483.313,312.605,483.245z
	 M312.605,479.512h-0.062c-0.307-16.89-1.003-33.318-1.929-46.984c6.553,2.894,15.353,0.596,20.651-11.776
	c0.423-0.998,0.747-2.025,1.007-3.07c2.003,1.653,5.372,4.968,2.928,9.857c-2.781,5.565-8.007,9.026-10.652,14.318
	c-6.627,13.191-1.283,21.79,6.232,24.158L312.605,479.512z"/>
<g>
	<path style="fill:#FFFFFF;" d="M293.59,432.333c6.905,0.058,10.398-5.745,10.398-5.745c-4.056-7.661,0.008-14.589,0.008-14.589
		c-10.175-16.753-31.627-13.095-31.627-13.095s2.668,1.425,3.791,5.816c1.727,6.754,1.727,14.765,5.968,20.419
		C286.369,430.793,289.814,432.303,293.59,432.333z"/>
	<path style="fill:#FFFFFF;" d="M304.802,379.905c0,0,8.292,3.704,11.736,20.622c0,0-7.639,3.305-11.757,10.111
		c0,0-3.047-5.911-11.674-10.077C293.107,400.561,295.435,384.931,304.802,379.905z"/>
	<path style="fill:#FFFFFF;" d="M316.083,432.333c3.776,0.005,7.22-1.54,11.461-7.194c4.241-5.654,4.241-13.664,5.968-20.419
		c1.123-4.391,3.791-5.816,3.791-5.816s-10.118-1.275-17.477,1.743c-8.922,3.658-16.519,10.989-16.383,18.053
		C303.444,418.7,303.233,432.31,316.083,432.333z"/>
</g>
<g>
	<path style="fill:#FFFFFF;" d="M265.901,479.667c4.481-5.252,2.284-11.658,2.284-11.658c-8.475-1.819-11.172-9.384-11.172-9.384
		c-19.373-2.975-30.36,15.811-30.36,15.811s2.806-1.128,6.893,0.834c6.284,3.019,12.419,8.168,19.478,8.554
		C260.081,484.209,263.45,482.54,265.901,479.667z"/>
	<path style="fill:#FFFFFF;" d="M232.946,437.376c0,0,8.166-3.971,23.34,4.265c0,0-2.377,7.975,0.188,15.506
		c0,0-6.484-1.465-15.219,2.465C241.255,459.613,230.775,447.782,232.946,437.376z"/>
	<path style="fill:#FFFFFF;" d="M280.067,462.615c2.481-2.846,3.574-6.46,2.09-13.369c-1.485-6.91-7.531-12.167-11.496-17.901
		c-2.576-3.728-1.902-6.677-1.902-6.677s-7.601,6.801-10.151,14.333c-3.091,9.133-2.542,19.677,2.877,24.207
		C261.486,463.208,271.621,472.299,280.067,462.615z"/>
</g>
<g>
	<path style="fill:#FFFFFF;" d="M339.906,478.038c-4.484-5.253-2.285-11.66-2.285-11.66c8.474-1.816,11.169-9.382,11.169-9.382
		c19.375-2.975,30.362,15.811,30.362,15.811s-2.807-1.128-6.893,0.835c-6.285,3.018-12.421,8.166-19.478,8.554
		C345.725,482.581,342.354,480.91,339.906,478.038z"/>
	<path style="fill:#FFFFFF;" d="M372.859,435.747c0,0-8.167-3.969-23.34,4.266c0,0,2.377,7.976-0.188,15.506
		c0,0,6.486-1.466,15.219,2.464C364.55,457.984,375.029,446.154,372.859,435.747z"/>
	<path style="fill:#FFFFFF;" d="M325.445,460.806c-2.432-2.888-3.463-6.521-1.857-13.403c1.607-6.883,7.742-12.032,11.805-17.698
		c2.642-3.683,2.018-6.642,2.018-6.642s7.48,6.932,9.9,14.508c2.93,9.185,2.199,19.718-3.299,24.152
		C344.013,461.724,333.723,470.635,325.445,460.806z"/>
</g>
<path style="fill:#00A76D;" d="M332.424,466.424l-21.176,15.735c0-0.611-0.067-1.222-0.067-1.764
	c-0.135-7.329-0.34-14.657-0.543-21.983c-0.135-3.462-0.338-6.921-0.475-10.382c-0.272-5.293-0.544-10.586-0.884-15.878
	c-0.043-0.129-0.087-0.255-0.131-0.381c-1.694-1.004-3.182-2.374-4.352-4.002c-1.185,1.654-2.698,3.042-4.421,4.05
	c-0.041,0.11-0.079,0.221-0.119,0.334c-0.475,7.599-0.813,15.13-1.153,22.731c-0.273,6.038-0.476,12.01-0.611,18.047
	c-0.068,4.14-0.137,8.279-0.204,12.419l-24.633-17.357c-1.33,0.28-2.705,0.374-4.078,0.271c0.336,1.352,0.478,2.736,0.423,4.108
	l28.222,19.355c0,1.223,0,2.443,0,3.663c0,4.955,0.067,9.907,0.134,14.862c0.069,4.816,0.272,9.634,0.407,14.453
	c0.137,3.392,0.341,6.852,0.544,10.312l0.747,9.705l0.134,2.17c0.206,3.19,0.475,6.379,0.95,9.567l0.476,2.442l0.882,2.647
	l0.543,1.018l0.542,0.747c0.203,0.204,0.407,0.406,0.745,0.542c0.272,0.068,0.407,0.068,0.679,0.068
	c0.34-0.068,0.475-0.205,0.746-0.338l0.273-0.272l0.542-0.747c0.271-0.542,0.476-1.018,0.745-1.628
	c0.205-0.678,0.408-1.357,0.612-2.037l0.338-1.628c0.612-3.392,0.882-6.919,1.086-10.38c0.204-2.849,0.474-5.699,0.679-8.619
	c0.203-3.324,0.407-6.716,0.61-10.109c0.134-3.528,0.272-7.057,0.407-10.652c0.135-6.106,0.271-12.282,0.271-18.388
	c0-3.733,0-7.464,0-11.196l24.489-17.976c0.021-1.113,0.17-2.228,0.449-3.321C334.966,466.732,333.676,466.661,332.424,466.424z"/>
</svg>
