<?xml version="1.0" encoding="iso-8859-1"?>
<!-- Generator: Adobe Illustrator 24.0.1, SVG Export Plug-In . SVG Version: 6.00 Build 0)  -->
<svg version="1.1" id="Layer_1" xmlns="http://www.w3.org/2000/svg" xmlns:xlink="http://www.w3.org/1999/xlink" x="0px" y="0px"
	 viewBox="0 0 600 600" style="enable-background:new 0 0 600 600;" xml:space="preserve">
<path style="fill:#EBB32A;" d="M302.631,600.65c-75.614-25.227-144.107-56.914-203.254-93.746c-3.516-2.434-5.942-6.659-6.25-11.521
	l0,0V6.5h209.504h209.506v488.884l0,0c-0.309,4.862-2.734,9.087-6.249,11.521C446.738,543.736,378.248,575.423,302.631,600.65
	L302.631,600.65z"/>
<path style="fill:#FFFFFF;stroke:#000000;stroke-width:0.7681;stroke-miterlimit:1;" d="M299.035,588.089
	c-22.824-7.867-45.311-16.358-67.614-25.61c-21.33-9.02-42.265-18.653-62.962-29.057c-19.709-10.093-38.96-20.778-57.901-32.253
	c-2.797-1.726-6.342-2.674-6.678-6.276l0,0V17.251h397.505l-0.012,477.766l0,0c-0.161,1.093-0.598,2.288-1.514,2.973
	c-20.576,12.689-41.544,24.413-63.057,35.431c-6.106,3.07-12.228,6.088-18.375,9.066c-37.698,17.904-76.255,33.475-115.797,46.816
	l0,0L299.035,588.089L299.035,588.089z"/>
<path style="stroke:#000000;stroke-width:0.1951;stroke-miterlimit:1;" d="M402.008,17.251h66.25v499.317l0,0
	c-10.364,5.809-20.844,11.417-31.456,16.852c-6.106,3.07-12.228,6.088-18.375,9.066c-5.456,2.589-10.927,5.132-16.42,7.627l0,0
	V17.251L402.008,17.251z"/>
<path style="stroke:#000000;stroke-width:0.1951;stroke-miterlimit:1;" d="M203.255,550.099
	c-11.69-5.337-23.281-10.889-34.796-16.677c-10.61-5.434-21.086-11.04-31.455-16.848l0,0V17.251h66.251V550.099L203.255,550.099z"/>
<path style="stroke:#000000;stroke-width:0.1951;stroke-miterlimit:1;" d="M299.035,588.089
	c-9.903-3.411-19.741-6.942-29.528-10.602l0,0V17.251h66.25v560.267l0,0c-10.965,4.106-22.006,8.034-33.126,11.785l0,0
	L299.035,588.089L299.035,588.089z"/>
<path style="fill:#FFFFFF;stroke:#000000;stroke-width:1.2802;stroke-miterlimit:1;" d="M119.66,45.481h365.943v90.937H119.66
	V45.481L119.66,45.481z"/>
<path style="fill:#0066B2;" d="M157.322,63.739l15.11,35.319l14.384-35.319h21.847v1.456h-1.639l0,0
	c-1.637,0-2.912,0.364-3.823,0.909c-0.727,0.366-1.274,0.912-1.639,1.823c-0.364,0.545-0.364,2.183-0.364,4.915l0,0v35.32l0,0
	c0,5.46,0.364,5.826,2.186,6.918c0.909,0.545,2.002,0.729,3.64,0.729l0,0h1.639v1.457h-27.856v-1.457h1.637l0,0
	c1.641,0,2.915-0.364,3.825-0.91c0.728-0.364,1.092-0.911,1.637-1.821c0.184-0.545,0.366-2.367,0.366-4.916l0,0v-39.69
	l-20.575,48.794h-0.908l-20.756-48.429v37.686l0,0c0,2.548,0,4.188,0.182,4.735c0.546,2.729,2.73,4.55,7.464,4.55l0,0v1.457h-18.207
	v-1.457h0.547l0,0c2.366,0,4.551-0.91,5.644-2.186c0.546-0.726,0.91-1.637,1.273-2.912c0-0.364,0-1.639,0-4.005l0,0V72.842l0,0
	c0-5.463-0.363-5.826-2.185-6.918c-0.909-0.547-2.184-0.729-3.641-0.729l0,0h-1.639v-1.456H157.322L157.322,63.739z M237.622,66.833
	h-5.461v21.848h1.091l0,0c6.738,0,9.468-4.37,10.195-12.744l0,0h1.64v28.037h-1.64l0,0c-0.546-6.007-2.729-10.013-5.461-11.47
	c-1.274-0.546-3.277-0.91-5.826-0.91l0,0v15.11l0,0c0,5.828,0.364,6.191,1.82,6.917c0.546,0.547,1.819,0.729,3.276,0.729l0,0h3.278
	l0,0c9.832,0,15.838-4.551,18.388-14.018l0,0h1.457l-2.367,16.933H211.77v-1.457h1.82l0,0c1.457,0,2.73-0.364,3.641-0.91
	c0.729-0.364,1.275-0.911,1.639-1.821c0.364-0.545,0.364-2.367,0.364-4.916l0,0v-35.32l0,0c0-2.366,0-3.823-0.182-4.37
	c-0.182-0.908-0.729-1.638-1.457-2.184c-0.91-0.729-2.367-1.093-4.005-1.093l0,0h-1.82v-1.456h44.787v15.839h-1.456l0,0
	c-1.639-7.829-4.005-10.376-9.105-12.015C244.541,67.016,241.811,66.833,237.622,66.833L237.622,66.833z M288.99,92.868h-3.46
	v14.928l0,0c0,5.826,0.547,6.373,2.368,7.283c0.909,0.545,2.549,0.729,5.097,0.729l0,0v1.457h-27.491v-1.457l0,0
	c4.915,0,6.189-1.092,6.918-2.548c0.364-0.728,0.545-2.55,0.545-5.464l0,0V73.205l0,0c0-5.826-0.545-6.372-2.366-7.282
	c-0.911-0.547-2.55-0.729-5.098-0.729l0,0v-1.456h24.943l0,0c12.926,0,17.659,1.456,21.482,6.371
	c2.003,2.366,2.914,5.098,2.914,8.376c0,4.005-1.457,7.283-4.371,9.831c-1.822,1.638-4.37,2.912-7.466,3.642l0,0l12.745,18.206l0,0
	c1.639,2.185,2.913,3.642,3.642,4.371c1.092,0.728,2.366,1.274,3.824,1.274l0,0v1.457h-16.933L288.99,92.868L288.99,92.868z
	 M289.719,66.651h-4.188v23.487h2.186l0,0c7.281,0,10.377-1.275,12.56-4.736c1.094-1.637,1.456-4.004,1.456-6.734
	C301.733,70.475,298.276,66.651,289.719,66.651L289.719,66.651z M350.279,115.808h1.821v1.457h-28.037v-1.457h1.82l0,0
	c1.457,0,2.73-0.364,3.64-0.91c0.729-0.364,1.275-0.911,1.641-1.821c0.362-0.545,0.362-2.367,0.362-4.916l0,0v-35.32l0,0
	c0-5.463-0.362-5.826-2.182-6.918c-0.912-0.547-2.003-0.729-3.46-0.729l0,0h-1.82v-1.456H352.1v1.456h-1.821l0,0
	c-1.639,0-2.912,0.364-3.823,0.909c-0.728,0.366-1.092,0.912-1.638,1.823c-0.183,0.545-0.365,2.366-0.365,4.915l0,0v35.32l0,0
	c0,5.46,0.548,5.826,2.185,6.918C347.549,115.625,348.822,115.808,350.279,115.808L350.279,115.808z M378.824,117.266h-23.851
	v-1.457h1.821l0,0c3.094,0,4.551-1.092,5.28-2.731c0.363-0.545,0.363-2.184,0.363-4.916l0,0v-35.32l0,0
	c0-5.463-0.363-5.826-2.186-6.918c-0.909-0.547-2.001-0.729-3.458-0.729l0,0h-1.821v-1.456h23.851l0,0
	c6.554,0,11.651,0.91,15.476,2.548c9.649,4.369,14.563,13.472,14.563,24.396c0,7.465-2.73,14.018-6.554,18.207
	c-3.822,4.187-8.556,6.554-15.838,7.828C384.831,117.082,382.283,117.266,378.824,117.266L378.824,117.266z M375.367,66.833v41.692
	l0,0c0,4.371,0.362,4.735,1.455,5.28c0.547,0.363,1.638,0.546,2.912,0.546c4.552,0,7.829-1.456,10.195-4.551
	c3.096-4.005,4.734-10.378,4.734-18.753c0-6.919-1.091-12.379-3.277-16.569c-1.637-3.094-4.005-5.277-6.554-6.552
	C382.829,67.198,379.733,66.833,375.367,66.833L375.367,66.833z M448.67,108.707l-2.73-6.736h-18.935l-2.184,5.281l0,0
	c-0.911,1.639-1.274,3.095-1.274,4.37c0,1.456,0.727,2.547,1.821,3.277c0.729,0.364,2.549,0.726,5.279,0.91l0,0v1.457h-17.843
	v-1.457l0,0c4.005-0.546,5.826-2.366,9.468-10.379l0,0l19.117-42.783h0.728l19.299,43.875l0,0c1.82,4.188,3.276,6.738,4.552,7.829
	c0.909,0.911,2.183,1.273,3.822,1.457l0,0v1.457h-26.034v-1.457h1.093l0,0c2.185,0,3.64-0.364,4.369-0.91
	c0.727-0.364,0.91-0.911,0.91-1.821c0-0.364,0-0.909-0.183-1.456C449.944,111.439,449.399,110.346,448.67,108.707L448.67,108.707z
	 M428.279,99.058h16.204l-7.829-18.388L428.279,99.058L428.279,99.058z"/>
<path style="fill:#FFFFFF;stroke:#000000;stroke-width:0.5121;stroke-miterlimit:1;" d="M279.087,475.409
	c6.736,0,15.112,3.822,16.022,3.822c2.002,0,3.277-2.003,3.459-3.64l0,0h2.367v18.934h-2.001l0,0
	c-2.003-4.187-4.005-7.465-6.009-9.832c-3.823-4.37-8.193-6.555-12.927-6.555c-10.74,0-14.928,10.197-14.928,25.854
	c0,5.826,0.727,10.558,2.003,14.382c2.548,6.919,7.1,10.378,14.018,10.378c4.005,0,8.012-1.092,11.471-3.459
	c2.185-1.273,4.55-3.461,7.281-6.372l0,0l2.368,2.001l0,0c-3.096,3.459-5.826,6.01-8.192,7.647
	c-4.371,2.732-9.104,4.188-14.202,4.188c-8.008,0-14.746-2.366-20.208-7.1c-5.826-5.281-8.922-12.381-8.922-21.12
	c0-8.922,2.915-16.023,8.556-21.484C264.705,477.957,271.259,475.409,279.087,475.409L279.087,475.409z M327.268,503.809
	c4.734,0,8.011-0.544,9.651-1.638c2.546-1.64,3.822-5.099,3.822-10.559c0-7.285-2.003-12.381-8.921-12.381
	c-3.278,0-4.552,0.728-4.552,2.912l0,0V503.809L327.268,503.809z M307.423,531.119v-2.002l0,0c5.28-0.365,6.736-1.639,6.736-7.466
	l0,0v-35.684l0,0c0-6.19-1.456-6.918-6.736-7.464l0,0v-2.004h26.034l0,0c13.838,0,21.121,4.005,21.121,14.93
	c0,5.281-2.549,10.195-9.102,13.108c-4.917,2.003-8.556,2.003-18.207,2.003l0,0v15.11l0,0c0,6.009,1.638,7.283,7.101,7.466l0,0
	v2.002H307.423L307.423,531.119z"/>
<path style="fill:#FFFFFF;stroke:#000000;stroke-width:1.1522;stroke-miterlimit:1;" d="M302.631,219.494
	c63.168,0,114.684,51.517,114.684,114.686c0,63.165-51.516,114.684-114.684,114.684c-63.168,0-114.684-51.519-114.684-114.684
	C187.947,271.011,239.463,219.494,302.631,219.494L302.631,219.494z"/>
<path style="fill:#9D3729;" d="M302.631,227.284c58.876,0,106.895,48.02,106.895,106.896c0,58.874-48.019,106.893-106.895,106.893
	c-58.875,0-106.893-48.019-106.893-106.893C195.738,275.304,243.756,227.284,302.631,227.284L302.631,227.284z"/>
<path style="fill:#BACA90;stroke:#000000;stroke-width:1.2802;stroke-miterlimit:1;" d="M302.631,390.761h-7.998v-31.286l0,0l0,0
	c0-5.139-7.083-9.326-15.759-9.326c-8.681,0-15.761,4.188-15.761,9.326l0,0l0,0v31.286h-42.098V277.588h6.522v10.604h6.819v-10.604
	h6.82v10.604h6.818v-10.604h6.817v3.574l0,0c2.333-5.285,5.516-10.118,9.378-14.318l0,0l-7.108-7.107l-3.285,3.288l-3.145-3.143
	l9.718-9.718l3.142,3.142l-3.286,3.288l7.107,7.105l0,0c3.924-3.607,8.398-6.624,13.28-8.907l0,0l-3.836-9.258l-4.294,1.78
	l-1.701-4.107l12.696-5.26l1.702,4.107l-4.295,1.778l3.831,9.251l0,0c4.93-1.81,10.205-2.896,15.693-3.128l0,0V239.95h-4.649v-4.445
	h6.871h6.875v4.445h-4.65v10.006l0,0c5.489,0.232,10.762,1.318,15.693,3.128l0,0l3.832-9.251l-4.297-1.778l1.702-4.107l12.696,5.26
	l-1.702,4.107l-4.294-1.78l-3.835,9.258l0,0c4.882,2.283,9.355,5.3,13.28,8.907l0,0l7.107-7.105l-3.287-3.288l3.143-3.142
	l9.718,9.718l-3.143,3.143l-3.287-3.288l-7.106,7.107l0,0c3.861,4.2,7.045,9.033,9.378,14.318l0,0v-3.574h6.817v10.604h6.816
	v-10.604h6.82v10.604h6.817v-10.604h6.522v113.173h-42.495v-31.286l0,0l0,0c0-5.139-7.08-9.326-15.76-9.326
	c-8.681,0-15.758,4.188-15.76,9.326l0,0l0,0v31.286H302.631L302.631,390.761z"/>
<path style="fill:#9D3729;stroke:#000000;stroke-width:1.2798;stroke-miterlimit:1;" d="M367.248,300.199
	c-2.937,0-5.332,6.045-5.332,13.457v0l0,0h10.665l0,0v0C372.581,306.244,370.185,300.199,367.248,300.199L367.248,300.199z"/>
<path style="fill:#9D3729;stroke:#000000;stroke-width:1.2798;stroke-miterlimit:1;" d="M238.016,300.199
	c2.936,0,5.332,6.045,5.332,13.457v0l0,0h-10.665l0,0v0C232.683,306.244,235.08,300.199,238.016,300.199L238.016,300.199z"/>
<path style="fill:none;stroke:#000000;stroke-width:1.2802;stroke-miterlimit:1;" d="M305.789,390.761l0.028-32.145l0.289-1.676l0,0
	c0.843-2.785,2.286-4.686,4.506-6.529c6.144-4.625,14.356-5.527,21.733-4.042c3.082,0.721,5.771,1.774,8.391,3.564l0,0l1.247,0.985
	l0,0c2.149,1.983,3.446,3.967,4.072,6.848l0,0l0.143,1.611v31.383H305.789L305.789,390.761z"/>
<path style="fill:none;stroke:#000000;stroke-width:1.2802;stroke-miterlimit:1;" d="M341.751,359.475L341.751,359.475v31.286
	h-31.52v-31.286l0,0l0,0c0.002-5.139,7.079-9.326,15.76-9.326C334.671,350.148,341.751,354.336,341.751,359.475L341.751,359.475z"/>
<path style="fill:none;stroke:#000000;stroke-width:1.2802;stroke-miterlimit:1;" d="M258.672,390.761l0.028-32.145l0.29-1.676l0,0
	c0.839-2.785,2.282-4.686,4.503-6.529c6.145-4.625,14.357-5.527,21.735-4.042c3.079,0.721,5.771,1.774,8.39,3.564l0,0l1.247,0.985
	l0,0c2.15,1.983,3.446,3.967,4.071,6.848l0,0l0.142,1.611v31.383H258.672L258.672,390.761z"/>
<path style="fill:none;stroke:#000000;stroke-width:1.2802;stroke-miterlimit:1;" d="M294.633,359.475L294.633,359.475v31.286
	h-31.52v-31.286l0,0l0,0c0-5.139,7.08-9.326,15.761-9.326C287.55,350.148,294.633,354.336,294.633,359.475L294.633,359.475z"/>
<line style="fill:none;stroke:#000000;stroke-width:0.8961;stroke-miterlimit:1;" x1="254.98" y1="281.981" x2="254.98" y2="390.211"/>
<line style="fill:none;stroke:#000000;stroke-width:0.8961;stroke-miterlimit:1;" x1="350.286" y1="281.981" x2="350.286" y2="390.211"/>
<line style="fill:none;stroke:#000000;stroke-width:0.3841;stroke-miterlimit:1;" x1="221.479" y1="299.744" x2="254.52" y2="299.744"/>
<line style="fill:none;stroke:#000000;stroke-width:0.3841;stroke-miterlimit:1;" x1="383.784" y1="299.744" x2="350.743" y2="299.744"/>
<line style="fill:none;stroke:#000000;stroke-width:0.1951;stroke-miterlimit:1;" x1="229.46" y1="288.688" x2="229.46" y2="299.431"/>
<line style="fill:none;stroke:#000000;stroke-width:0.1951;stroke-miterlimit:1;" x1="375.803" y1="288.688" x2="375.803" y2="299.431"/>
<line style="fill:none;stroke:#000000;stroke-width:0.1951;stroke-miterlimit:1;" x1="241.958" y1="288.503" x2="241.958" y2="299.371"/>
<line style="fill:none;stroke:#000000;stroke-width:0.1951;stroke-miterlimit:1;" x1="363.304" y1="288.503" x2="363.304" y2="299.371"/>
<line style="fill:none;stroke:#000000;stroke-width:0.3841;stroke-miterlimit:1;" x1="221.295" y1="314.15" x2="254.581" y2="314.15"/>
<line style="fill:none;stroke:#000000;stroke-width:0.3841;stroke-miterlimit:1;" x1="383.97" y1="314.15" x2="350.683" y2="314.15"/>
<line style="fill:none;stroke:#000000;stroke-width:0.3841;stroke-miterlimit:1;" x1="221.519" y1="329.222" x2="254.633" y2="329.222"/>
<line style="fill:none;stroke:#000000;stroke-width:0.3841;stroke-miterlimit:1;" x1="383.743" y1="329.222" x2="350.629" y2="329.222"/>
<line style="fill:none;stroke:#000000;stroke-width:0.1951;stroke-miterlimit:1;" x1="229.541" y1="314.527" x2="229.541" y2="328.736"/>
<line style="fill:none;stroke:#000000;stroke-width:0.1951;stroke-miterlimit:1;" x1="375.725" y1="314.527" x2="375.725" y2="328.736"/>
<line style="fill:none;stroke:#000000;stroke-width:0.1951;stroke-miterlimit:1;" x1="249.955" y1="314.467" x2="249.955" y2="328.798"/>
<line style="fill:none;stroke:#000000;stroke-width:0.1951;stroke-miterlimit:1;" x1="355.309" y1="314.467" x2="355.309" y2="328.798"/>
<line style="fill:none;stroke:#000000;stroke-width:0.3841;stroke-miterlimit:1;" x1="221.885" y1="345.63" x2="254.513" y2="345.63"/>
<line style="fill:none;stroke:#000000;stroke-width:0.3841;stroke-miterlimit:1;" x1="383.378" y1="345.63" x2="350.751" y2="345.63"/>
<line style="fill:none;stroke:#000000;stroke-width:0.1951;stroke-miterlimit:1;" x1="240.476" y1="329.53" x2="240.476" y2="345.263"/>
<line style="fill:none;stroke:#000000;stroke-width:0.1951;stroke-miterlimit:1;" x1="364.786" y1="329.53" x2="364.786" y2="345.263"/>
<line style="fill:none;stroke:#000000;stroke-width:0.3841;stroke-miterlimit:1;" x1="221.947" y1="364.474" x2="254.331" y2="364.474"/>
<line style="fill:none;stroke:#000000;stroke-width:0.3841;stroke-miterlimit:1;" x1="383.315" y1="364.474" x2="350.933" y2="364.474"/>
<line style="fill:none;stroke:#000000;stroke-width:0.1951;stroke-miterlimit:1;" x1="231.12" y1="345.935" x2="231.12" y2="364.109"/>
<line style="fill:none;stroke:#000000;stroke-width:0.1951;stroke-miterlimit:1;" x1="374.145" y1="345.935" x2="374.145" y2="364.109"/>
<line style="fill:none;stroke:#000000;stroke-width:0.1951;stroke-miterlimit:1;" x1="249.895" y1="345.874" x2="249.895" y2="364.169"/>
<line style="fill:none;stroke:#000000;stroke-width:0.1951;stroke-miterlimit:1;" x1="355.368" y1="345.874" x2="355.368" y2="364.169"/>
<line style="fill:none;stroke:#000000;stroke-width:0.3841;stroke-miterlimit:1;" x1="222.129" y1="381.854" x2="254.391" y2="381.854"/>
<line style="fill:none;stroke:#000000;stroke-width:0.3841;stroke-miterlimit:1;" x1="383.133" y1="381.854" x2="350.873" y2="381.854"/>
<line style="fill:none;stroke:#000000;stroke-width:0.1951;stroke-miterlimit:1;" x1="241.997" y1="364.597" x2="241.997" y2="381.67"/>
<line style="fill:none;stroke:#000000;stroke-width:0.1951;stroke-miterlimit:1;" x1="363.268" y1="364.597" x2="363.268" y2="381.67"/>
<line style="fill:none;stroke:#000000;stroke-width:0.1951;stroke-miterlimit:1;" x1="231.12" y1="381.978" x2="231.12" y2="390.332"/>
<line style="fill:none;stroke:#000000;stroke-width:0.1951;stroke-miterlimit:1;" x1="374.145" y1="381.978" x2="374.145" y2="390.332"/>
<line style="fill:none;stroke:#000000;stroke-width:0.1951;stroke-miterlimit:1;" x1="247.586" y1="381.978" x2="247.586" y2="390.638"/>
<line style="fill:none;stroke:#000000;stroke-width:0.1951;stroke-miterlimit:1;" x1="357.678" y1="381.978" x2="357.678" y2="390.638"/>
<line style="fill:none;stroke:#000000;stroke-width:0.3841;stroke-miterlimit:1;" x1="299.241" y1="384.829" x2="305.481" y2="384.829"/>
<line style="fill:none;stroke:#000000;stroke-width:0.3841;stroke-miterlimit:1;" x1="298.938" y1="373.833" x2="305.634" y2="373.833"/>
<line style="fill:none;stroke:#000000;stroke-width:0.3841;stroke-miterlimit:1;" x1="299.395" y1="360.698" x2="305.481" y2="360.698"/>
<line style="fill:none;stroke:#000000;stroke-width:0.3841;stroke-miterlimit:1;" x1="295.742" y1="350.768" x2="309.59" y2="350.768"/>
<line style="fill:none;stroke:#000000;stroke-width:0.3841;stroke-miterlimit:1;" x1="255.113" y1="350.923" x2="262.112" y2="350.923"/>
<line style="fill:none;stroke:#000000;stroke-width:0.3841;stroke-miterlimit:1;" x1="254.96" y1="340.688" x2="350.219" y2="340.688"/>
<line style="fill:none;stroke:#000000;stroke-width:0.3841;stroke-miterlimit:1;" x1="343.373" y1="350.923" x2="350.219" y2="350.923"/>
<line style="fill:none;stroke:#000000;stroke-width:0.3841;stroke-miterlimit:1;" x1="346.72" y1="361.156" x2="350.066" y2="361.156"/>
<line style="fill:none;stroke:#000000;stroke-width:0.3841;stroke-miterlimit:1;" x1="346.569" y1="373.833" x2="350.066" y2="373.833"/>
<line style="fill:none;stroke:#000000;stroke-width:0.3841;stroke-miterlimit:1;" x1="346.569" y1="384.371" x2="349.916" y2="384.371"/>
<line style="fill:none;stroke:#000000;stroke-width:0.3841;stroke-miterlimit:1;" x1="255.113" y1="384.067" x2="258.309" y2="384.067"/>
<line style="fill:none;stroke:#000000;stroke-width:0.3841;stroke-miterlimit:1;" x1="254.96" y1="373.833" x2="258.003" y2="373.833"/>
<line style="fill:none;stroke:#000000;stroke-width:0.3841;stroke-miterlimit:1;" x1="255.113" y1="361.308" x2="258.003" y2="361.308"/>
<line style="fill:none;stroke:#000000;stroke-width:0.3841;stroke-miterlimit:1;" x1="255.417" y1="334.121" x2="349.916" y2="334.121"/>
<line style="fill:none;stroke:#000000;stroke-width:0.3841;stroke-miterlimit:1;" x1="255.723" y1="317.47" x2="349.764" y2="317.47"/>
<line style="fill:none;stroke:#000000;stroke-width:0.3841;stroke-miterlimit:1;" x1="255.266" y1="299.905" x2="349.916" y2="299.905"/>
<line style="fill:none;stroke:#000000;stroke-width:0.1951;stroke-miterlimit:1;" x1="279.708" y1="334.429" x2="279.708" y2="340.242"/>
<line style="fill:none;stroke:#000000;stroke-width:0.1951;stroke-miterlimit:1;" x1="268.049" y1="317.689" x2="268.049" y2="333.733"/>
<line style="fill:none;stroke:#000000;stroke-width:0.1951;stroke-miterlimit:1;" x1="300.09" y1="334.429" x2="300.09" y2="340.321"/>
<line style="fill:none;stroke:#000000;stroke-width:0.1951;stroke-miterlimit:1;" x1="290.13" y1="317.614" x2="290.13" y2="333.654"/>
<line style="fill:none;stroke:#000000;stroke-width:0.1951;stroke-miterlimit:1;" x1="322.022" y1="334.429" x2="322.022" y2="340.321"/>
<line style="fill:none;stroke:#000000;stroke-width:0.1951;stroke-miterlimit:1;" x1="312.447" y1="317.689" x2="312.447" y2="333.733"/>
<line style="fill:none;stroke:#000000;stroke-width:0.1951;stroke-miterlimit:1;" x1="336.999" y1="317.614" x2="336.999" y2="333.733"/>
<line style="fill:none;stroke:#000000;stroke-width:0.1951;stroke-miterlimit:1;" x1="325.341" y1="300.329" x2="325.341" y2="316.992"/>
<line style="fill:none;stroke:#000000;stroke-width:0.1951;stroke-miterlimit:1;" x1="302.02" y1="300.252" x2="302.02" y2="317.225"/>
<line style="fill:none;stroke:#000000;stroke-width:0.1951;stroke-miterlimit:1;" x1="279.322" y1="300.252" x2="279.322" y2="317.225"/>
<line style="fill:none;stroke:#000000;stroke-width:0.1951;stroke-miterlimit:1;" x1="264.381" y1="341.001" x2="264.381" y2="348.744"/>
<line style="fill:none;stroke:#000000;stroke-width:0.1951;stroke-miterlimit:1;" x1="294.786" y1="341.001" x2="294.786" y2="349.765"/>
<line style="fill:none;stroke:#000000;stroke-width:0.1951;stroke-miterlimit:1;" x1="312.681" y1="340.711" x2="312.681" y2="348.305"/>
<line style="fill:none;stroke:#000000;stroke-width:0.1951;stroke-miterlimit:1;" x1="341.341" y1="340.711" x2="341.341" y2="349.036"/>
<path style="fill:#9D3729;stroke:#000000;stroke-width:1.2798;stroke-miterlimit:1;" d="M302.631,255.377
	c-0.043,0-0.084-0.003-0.124-0.003c-24.125,0-44.08,18.426-46.514,41.923l0,0h10.61v-10.25h-4.648V282.6h13.743v4.447h-4.648v10.25
	h18.091v-10.25h-4.649V282.6h13.744v4.447h-4.651v10.25h9.046h9.047v-10.25h-4.649V282.6h13.743v4.447h-4.648v10.25h18.091v-10.25
	h-4.648V282.6h13.743v4.447h-4.648v10.25h10.609l0,0c-2.435-23.497-22.39-41.923-46.513-41.923
	C302.716,255.374,302.674,255.377,302.631,255.377L302.631,255.377z"/>
</svg>
