<?xml version="1.0" encoding="iso-8859-1"?>
<!-- Generator: Adobe Illustrator 24.0.1, SVG Export Plug-In . SVG Version: 6.00 Build 0)  -->
<svg version="1.1" id="Layer_1" xmlns="http://www.w3.org/2000/svg" xmlns:xlink="http://www.w3.org/1999/xlink" x="0px" y="0px"
	 viewBox="0 0 660 660" style="enable-background:new 0 0 660 660;" xml:space="preserve">
<path style="fill:#FFE600;" d="M631.077,333.417c0,164.402-133.264,297.676-297.664,297.676
	c-164.401,0-297.665-133.274-297.665-297.676c0-164.399,133.264-297.652,297.665-297.652
	C497.813,35.765,631.077,169.018,631.077,333.417z"/>
<path d="M481.232,75.004l-22.172,38.763c76.101,43.621,127.367,125.644,127.367,219.653c0,139.74-113.273,253.023-253.014,253.023
	c-139.74,0-253.015-113.283-253.015-253.023c0-94.009,51.268-176.032,127.369-219.651l-22.173-38.764
	C96.063,126.321,35.749,222.819,35.749,333.417c0,164.402,133.264,297.676,297.665,297.676c164.4,0,297.664-133.274,297.664-297.676
	C631.077,222.819,570.763,126.321,481.232,75.004z"/>
<path d="M333.41,494.518c-88.969,0-161.089-72.126-161.089-161.095c0-88.969,72.12-161.08,161.089-161.08
	c72.478,0,133.763,47.862,153.996,113.703l43.52-13.39c-25.952-84.451-104.553-145.841-197.516-145.841
	c-114.114,0-206.614,92.494-206.614,206.607c0,114.115,92.5,206.624,206.614,206.624c92.956,0,171.557-61.395,197.512-145.842
	l-43.52-13.39C467.165,446.652,405.884,494.518,333.41,494.518z"/>
<path d="M254.617,249.054V417.84c12.811,11.949,28.303,21.068,45.526,26.241v-87.888h68.285v-45.525h-68.285v-38.881
	c9.897-5.352,21.225-8.395,33.267-8.395c17.125,0,32.798,6.164,44.967,16.37l29.219-34.876
	c-20.056-16.855-45.921-27.017-74.185-27.017C302.917,217.867,275.268,229.762,254.617,249.054z"/>
</svg>
