<svg enable-background="new 0 0 612 792" viewBox="0 0 612 792" xmlns="http://www.w3.org/2000/svg"><path d="M 72.517 84.866 c 0 0 -13.576 138.733 -18.182 206.684 c -2.954 43.446 -3.451 153.693 55.571 239.051 c 60.725 87.864 160.491 144.563 193.811 158.979 l 2.3 .991 l 2.31 -.991 c 33.312 -14.417 133.086 -71.115 193.811 -158.979 c 59.022 -85.376 58.516 -195.605 55.562 -239.051 c -4.62 -67.951 -18.183 -206.684 -18.183 -206.684 H 72.517 z" fill="#bbbec3"/><path d="M 529 96.457 c 2.437 25.122 13.052 135.743 17.146 195.888 c .538 7.994 1 18.343 1 30.414 c 0 51.544 -8.404 134.519 -54.544 201.256 c -57.931 83.833 -152.159 138.423 -186.585 153.889 c -34.425 -15.466 -128.657 -70.056 -186.593 -153.889 C 73.294 457.277 64.89 374.275 64.89 322.73 c 0 -12.061 .456 -22.392 1 -30.386 C 69.974 232.2 80.607 121.578 83.026 96.457 H 529 z"/><path d="M 393.143 167.019 L 403.792 167.019 L 403.792 133.165 L 414.776 133.165 L 414.776 124.806 L 382.072 124.806 L 382.072 133.165 L 393.143 133.165 Z" fill="#fff"/><path d="M 275.381 168.252 c 5.898 0 10.02 -2.433 11.815 -3.702 c 3.369 -2.31 4.88 -4.693 6.432 -7.172 l -8.35 -4.246 c -1.429 2.479 -3.652 6.313 -9.18 6.313 c -5.729 0 -10.44 -4.629 -10.44 -13.855 c 0 -7.062 3.597 -13.398 10.44 -13.398 c 1.73 0 3.779 .466 5.816 2.095 c 1.871 1.57 2.588 2.963 3.199 4.373 l 8.441 -4.186 c -1.246 -2.105 -2.598 -4.424 -5.547 -6.752 c -3.185 -2.552 -7.532 -4.168 -12.385 -4.168 c -11.996 0 -20.552 9.824 -20.552 22.332 C 255.071 160.144 264.142 168.252 275.381 168.252 z" fill="#fff"/><path d="M 203.632 158.725 L 180.971 158.725 L 180.971 148.645 L 200.408 148.645 L 200.408 140.72 L 180.971 140.72 L 180.971 133.023 L 201.756 133.023 L 201.756 124.852 L 170.375 124.852 L 170.375 167.019 L 203.632 167.019 Z" fill="#fff"/><path d="M 219.472 165.7 c 2.904 1.466 6.692 2.265 9.833 2.265 c 1.822 0 11.257 -.356 15.818 -7.642 c 2.328 -3.821 2.415 -7.843 2.498 -11.947 v -23.524 h -10.66 v 26.235 c -.037 3.264 -.037 8.163 -7.272 8.163 c -2.624 0 -5.524 -.648 -6.852 -2.88 c -.73 -1.31 -.768 -3.095 -.768 -5.227 v -26.291 h -10.705 v 23.524 C 211.31 154.104 211.31 161.527 219.472 165.7 z" fill="#fff"/><path d="M 133.858 140.473 c 2.863 5.601 3.621 6.939 7.433 13.248 l 7.938 13.298 h 10.376 v -42.168 H 149.48 l .461 27.021 c -1.967 -3.648 -2.976 -5.574 -6.34 -11.472 l -9.208 -15.549 h -10.4 v 42.168 h 10.153 L 133.858 140.473 z" fill="#fff"/><path d="M 308.82 149.019 L 324.314 149.019 L 324.314 167.019 L 334.983 167.019 L 334.983 124.852 L 324.314 124.852 L 324.314 140.071 L 308.82 140.071 L 308.82 124.852 L 298.175 124.852 L 298.175 167.019 L 308.82 167.019 Z" fill="#fff"/><path d="M 464.44 215.784 l 22.419 -30.892 h -19.735 l -13.284 20.392 l -13.157 -20.392 h -20.109 l 22.661 30.892 l -23.305 32.49 L 395.835 184.8 h -19.26 l -24.327 64.222 l -9.646 -64.222 h -16.753 l -19.859 36.594 L 286.177 184.8 h -16.754 l -9.637 64.222 L 235.428 184.8 h -19.255 l -24.068 63.473 l -23.309 -32.49 l 22.629 -30.892 h -20.096 l -13.124 20.392 l -13.312 -20.392 h -19.73 l 22.41 30.892 l -26.454 36.676 h 19.452 l 17.43 -25.541 l 17.643 25.541 h 14.882 l -.036 .105 h 18.278 l 4.488 -13.548 h 25.099 l 4.478 13.548 h 33.754 l 5.187 -43.907 l 24.217 46.788 l 24.268 -46.788 l 5.19 43.907 h 33.732 l 4.478 -13.548 h 25.103 l 4.469 13.548 h 18.288 l -.01 -.105 h 14.874 l 17.634 -25.541 l 17.407 25.541 h 19.493 L 464.44 215.784 z M 217.788 225.429 l 8.012 -24.222 l 8.031 24.222 H 217.788 z M 378.201 225.429 l 8.034 -24.222 l 8.012 24.222 H 378.201 z" fill="#fff"/><path d="M 452.762 158.725 L 430.092 158.725 L 430.092 148.645 L 449.521 148.645 L 449.521 140.72 L 430.092 140.72 L 430.092 133.023 L 450.904 133.023 L 450.904 124.852 L 419.519 124.852 L 419.519 167.019 L 452.762 167.019 Z" fill="#fff"/><path d="M 488.027 158.135 L 471.443 158.135 L 471.443 124.806 L 460.879 124.806 L 460.879 167.019 L 488.027 167.019 Z" fill="#fff"/><path d="M 352.462 160.277 h 15.626 l 2.109 6.742 h 11.304 l -15.631 -42.168 h -11.052 l -15.749 42.168 h 11.294 L 352.462 160.277 z M 358.411 141.382 c .598 -2.141 1.206 -4.337 1.758 -6.468 l 5.515 17.763 h -10.77 C 355.886 149.535 357.512 144.577 358.411 141.382 z" fill="#fff"/><path d="M 292.153 286.296 h -24.337 c 0 0 21.762 22.186 26.291 26.806 c -4.209 4.319 -18.055 18.548 -18.055 18.548 l 12.124 12.061 l 17.832 -18.333 v -25.414 L 292.153 286.296 z" fill="#fff"/><path d="M 117.032 279.526 l 150.232 153.14 l -121.513 124.91 c 12.577 14.302 25.943 27.514 39.502 39.557 l 120.756 -124.066 v -87.193 L 198.377 279.526 H 117.032 z" fill="#fff"/><path d="M 336.01 331.678 c 0 0 -13.905 -14.257 -18.101 -18.576 c 4.524 -4.62 26.318 -26.806 26.318 -26.806 h -24.365 l -13.854 13.668 v 25.414 l 17.895 18.379 L 336.01 331.678 z" fill="#bec0c2"/><path d="M 494.994 279.526 h -81.359 L 306.009 385.874 v 87.193 l 120.764 124.075 c 13.563 -12.052 26.943 -25.272 39.539 -39.593 L 344.761 432.667 L 494.994 279.526 z" fill="#bec0c2"/><path d="M 65.889 292.344 c -.543 7.994 -1 18.325 -1 30.386 c 0 42.045 5.601 105.047 32.722 163.051 V 277.787 c -11.97 -12.153 -21.876 -22.214 -28.413 -28.86 C 67.897 264.771 66.748 279.686 65.889 292.344 z" fill="#ef3e42"/><path d="M 230.981 413.36 v 38.886 c 9.112 -9.349 16.041 -16.485 19.022 -19.548 C 247.52 430.174 240.654 423.208 230.981 413.36 z" fill="#ef3e42"/><path d="M 236.792 638.036 c 17.776 12.313 34.256 22.205 47.742 29.555 V 512.774 c -13.486 13.855 -31.024 31.869 -47.742 49.057 V 638.036 z" fill="#ef3e42"/><path d="M 146.226 539.371 c 11.504 -11.824 26.674 -27.418 41.953 -43.126 V 369.841 c -13.425 -13.649 -27.843 -28.28 -41.953 -42.624 V 539.371 z" fill="#ef3e42"/><path d="M 546.146 292.344 c -.863 -12.658 -2.013 -27.55 -3.31 -43.418 c -6.546 6.646 -16.43 16.707 -28.394 28.86 v 207.976 c 27.103 -58.004 32.704 -120.961 32.704 -163.005 C 547.146 310.687 546.684 300.338 546.146 292.344 z" fill="#8b0e04"/><path d="M 423.865 496.245 c 15.267 15.708 30.44 31.303 41.949 43.126 V 327.218 c -14.124 14.343 -28.522 28.975 -41.949 42.624 V 496.245 z" fill="#8b0e04"/><path d="M 327.501 667.59 c 13.48 -7.35 29.956 -17.242 47.755 -29.555 v -76.205 c -16.735 -17.188 -34.275 -35.201 -47.755 -49.057 V 667.59 z" fill="#8b0e04"/><path d="M 381.054 452.246 V 413.36 c -9.678 9.848 -16.521 16.814 -19.004 19.338 C 365.03 435.761 371.928 442.897 381.054 452.246 z" fill="#8b0e04"/></svg>