<svg xmlns="http://www.w3.org/2000/svg" width="1000" height="1000" viewBox="0 0 1000 1000"><path fill="#343536" fill-rule="evenodd" d="m531.976 848.167 78.578 87.508h-23.74l-78.375-88.223Z" clip-rule="evenodd"/><path fill="#f3d867" fill-rule="evenodd" d="M588.496 931.929h13.653l-71.888-80.071-13.254-.403Z" clip-rule="evenodd"/><path fill="#343536" fill-rule="evenodd" d="m462.25 848.167-78.577 87.508h23.736l78.38-88.223Z" clip-rule="evenodd"/><path fill="#f3d867" fill-rule="evenodd" d="M405.726 931.929h-13.653l71.883-80.071 13.26-.403Z" clip-rule="evenodd"/><path fill="#343536" fill-rule="evenodd" d="M247.045 537.342c-3.257-4.868-7.075-9.46-11.544-13.59a55 55 0 0 0-5.135-4.202c3.406 1.171 6.673 2.004 9.64 2.479l-.072-.344.077.158c1.637-1.918 3.248-4.135 4.781-6.587-.334 2.76-.438 5.375-.276 7.673.353 5.04 1.272 9.875 2.53 14.413m20.8 42.021c-4.873-6.79-10.993-12.979-17.942-18.891l-.339-.29c3.103.9 6.035 1.516 8.654 1.85l.127.195.104-.158.235.031-.086-.271a69 69 0 0 0 4.872-8.912c-.208 2.913-.18 5.632.1 7.984.837 7.098 2.361 13.2 4.275 18.462m19.51 32.843c-4.64-5.804-9.974-11.097-15.9-14.526a41 41 0 0 0-2.412-1.29c2.475-.067 4.913-.38 7.266-.981l.067.09c2.665-3.515 4.918-7.477 6.723-11.617-.412 3.782-.47 7.388-.077 10.523a79.8 79.8 0 0 0 4.334 17.8m24.003 34.047c-4.004-4.212-8.536-7.808-13.73-10.608-2.425-1.299-5.383-2.56-8.654-3.696 3.452.244 6.723.226 9.613-.086l.177.203.262-.249 1.122-.14-.353-.615c2.366-2.425 4.216-5.478 5.65-8.862-.009 2.71.195 5.28.62 7.577 1.072 5.809 2.968 11.377 5.293 16.476m21.384 31.454c-3.19-2.416-6.637-4.443-10.391-5.985-2.43-1-5.41-1.905-8.677-2.642 4.524-.023 8.686-.453 12.079-1.14l-.09-.181.316.312a133 133 0 0 0 2.669-7.844c.212 2.814.574 5.56 1.1 8.156a43 43 0 0 0 2.994 9.324m31.834 35.71c-3.298-2.773-6.917-5.053-10.898-6.69-2.66-1.095-5.976-2.063-9.631-2.773 3.293-.498 6.356-1.208 9.075-2.072l-.81-1.299 1.067.774c1.837-4.316 3.113-8.446 3.936-12.382.299 4.072.964 8.166 2.077 12.088a55 55 0 0 0 5.184 12.354m91.692 34.282c13.332 7.423 24.013 18.56 28.677 27.993 5.415 10.966 7.342 25.654 4.442 43.664-10.843-3.339-25.27-11.5-31.571-28.238-5.158-13.702-4.687-31.906-1.548-43.42M231.71 479.09a41 41 0 0 0-.507 5.822c-.082 7.025.638 13.169 1.85 18.57-2.692-4.854-6.283-10.016-11.133-15.593a50 50 0 0 0-4.243-4.298 52 52 0 0 0 8.11 1.846l-.166-.919.407.919c2.094-1.891 3.976-4.022 5.682-6.347m-12.794-37.986a45 45 0 0 0-.565 4.247 70.8 70.8 0 0 0 .511 17.069 70.9 70.9 0 0 0-9.147-14.5 54 54 0 0 0-3.606-3.994 59 59 0 0 0 7.429 2.936l.52 1.222.62-.869.18.059-.05-.244a199 199 0 0 0 4.108-5.926m-11.097-37.457a64 64 0 0 0-.832 4.216c-.484 3.058-.588 6.5-.362 10.138a72 72 0 0 0-4.66-8.342 42 42 0 0 0-2.447-3.393 53 53 0 0 0 4.366 1.89l.126.345.177-.231.063.027-.013-.09c1.226-1.516 2.42-3.04 3.582-4.56m-15.584-63.428a70 70 0 0 0-3.044-7.876c.628.986 1.28 1.94 1.945 2.863a62 62 0 0 0 1.592-3.044 68 68 0 0 0-.493 8.057m8.012 25.048a52 52 0 0 0-.968 3.804c-.652 3.04-.932 6.492-.892 10.174a70 70 0 0 0-3.867-8.355 41.5 41.5 0 0 0-3.23-5.026 69 69 0 0 0 5.161 2.922l-.167-2.239.466 2a51 51 0 0 0 3.497-3.28M186.662 257.22c-6.614 9.649-10.143 29.332-9.197 40.433.846 9.821 3.669 19.321 7.713 27.55-5.917-8.559-15.078-15.851-25.125-22.813-.919 13.046 1.352 27.997 6.636 37.764a63 63 0 0 0 5.52 8.455 204 204 0 0 0-7.506-4.872c-.298 13.074 2.62 29.31 8.374 38.828 1.253 2.067 2.678 4.053 4.202 5.958-2.587-1.498-5.274-2.95-7.998-4.38.715 13.432 4.967 29.858 11.608 39.158 1.968 2.755 4.226 5.343 6.673 7.732a67 67 0 0 0-12.404-4.393c1.579 14.29 7.704 31.49 15.616 39.841a70 70 0 0 0 3.746 3.669 71.4 71.4 0 0 0-10.215-2.782c4.438 17.439 11.929 28.368 20.094 36.448 2.552 2.538 5.352 4.813 8.297 6.835-4.506-1.493-9.296-2.605-14.381-3.356 5.207 17.226 14.096 29.784 22.596 37.493a52 52 0 0 0 3.43 2.859c-4.158-1.081-8.632-1.905-13.473-2.488 5.918 17 13.39 29.373 23.316 37.742a60.8 60.8 0 0 0 10.165 6.898c-4.732-.38-9.364-.23-13.472.611 7.374 14.816 16.023 24.836 27.632 32.621 2.302 1.538 5.107 2.918 8.224 4.112-4.51-.42-8.867-.43-12.699.086 6.623 15.784 19.724 28.532 28.595 34.177 4.085 2.606 8.758 4.438 13.594 5.66-6.45-.041-12.567.8-16.919 2.904 8.256 18.217 21.986 27.147 31.843 30.775a65 65 0 0 0 8.808 2.53c-3.9.628-7.518 1.7-10.527 3.31 10.672 18.218 22.8 26.745 32.648 30.369a67.4 67.4 0 0 0 11.364 3.126c-4.347.67-8.319 1.823-11.486 3.52 10.667 18.212 23.334 24.08 33.454 26.748 17.063 4.506 31.313 2.511 41.976-.868-7.541-14.929-14.996-19.42-28.771-25.732-3.407-1.565-8.017-2.795-13.101-3.546a56 56 0 0 0 6.94-1.701 87.6 87.6 0 0 0-5.67-10.676c3.28 2.633 6.687 4.628 9.953 5.94a112 112 0 0 0 1.362-8.234 58 58 0 0 0 2.09 6.867c6.297 16.743 19.516 24.963 30.364 28.301.14-.85.248-1.71.357-2.547.19.692.398 1.394.62 2.081 5.397 17.041 19.362 25.958 30.006 29.87 3.863-17.828 1.525-32.67-3.307-43.903-4.153-9.658-14.666-19.32-26.749-28.205-.918 4.053-1.706 8.355-2.194 12.77a72.3 72.3 0 0 0-5.216-14.091c-4.664-9.428-13.314-19.44-25.849-27.672a59 59 0 0 0-1.51 7.667 72 72 0 0 0-3.005-9.346c-3.85-9.79-10.612-18.38-22.424-27.617-1.203 3.302-2.217 7.034-2.936 11.01-.52-5.51-1.701-10.5-3.017-14.996-2.945-10.11-10.355-21.008-21.276-31.295-.895 1.89-1.696 4.012-2.397 6.328-.362-2.732-.837-5.36-1.326-8.102-1.864-10.373-7.301-23.713-17.258-33.29-1.249 2.447-2.407 5.283-3.42 8.35a72 72 0 0 0-.452-7.713c-1.254-10.463-7.442-25.392-16.829-35.538-1.597 2.741-3.117 6.007-4.447 9.55.104-1.969.09-3.905-.063-5.791-.837-10.518-2.868-26.329-13.775-38.855-1.606 2.176-3.112 4.976-4.46 8.143.05-1.389.072-2.773.036-4.162-.28-10.893-2.855-29.712-11.884-41.854-1.2 1.475-2.38 3.234-3.51 5.193.732-10.839-1.666-26.55-7.822-39.682-1.349 1.416-2.665 3.044-3.927 4.863l.312-1.706c1.877-11.345-.878-28.902-7.016-41.52a75 75 0 0 0-4.37 5.257c.199-1.067.38-2.126.493-3.198 1.882-16.756-2.357-28.635-5.225-39.416a55 55 0 0 0-3.728 3.76c.136-.634.272-1.258.376-1.891 2.714-16.173-.77-27.935-2.986-38.547a53 53 0 0 0-4.442 4.062 52 52 0 0 0 1.24-4.98c2.13-10.912-.711-27.162-5.484-39.335-4.876 6.247-9.355 12.53-12.739 18.878.968-5.388 1.434-11.242 1.181-17.58-.484-12.39-5.704-30.115-13.467-38.43" clip-rule="evenodd"/><path fill="#f3d867" fill-rule="evenodd" d="M187.155 264.055c-4.37 9.645-6.709 24.392-5.958 33.277.891 10.387 4.198 21.135 9.518 30.323 4.36-9.989 6.107-20.977 5.677-31.888-.362-9.075-3.718-22.863-9.237-31.712M192.172 361.995c-.824-10.305-1.927-18.9-7.017-29.427-4.401-9.13-13.069-16.774-21.537-23.044.167 9.807 2.058 20.877 6.364 28.848 5.08 9.405 13.097 17.706 22.19 23.623M199.713 402.189c-1.335-10.464-2.81-19.09-8.491-29.513-4.836-8.908-13.87-16.132-22.633-21.99.61 10.17 3 22.184 7.69 29.933 5.244 8.655 14.07 16.689 23.434 21.57M173.674 390.77c1.407 10.478 4.822 22.724 10.264 30.351 6.098 8.545 15.87 16.14 25.935 20.42-2.198-10.735-4.37-19.515-11.051-29.839-5.705-8.839-15.63-15.589-25.148-20.931M179.74 431.888c2.086 11.096 6.886 24.767 13.748 32.019 7.342 7.75 17.064 14.028 27.54 16.756-2.505-11.232-6.595-21-14.217-30.382-6.782-8.337-16.73-14.797-27.07-18.393M234.845 517.052c-3.14-10.042-8.663-18.556-15.748-26.704-7.279-8.378-18.425-14.584-29.4-17.814 3.542 10.866 8.948 20.312 17.34 28.622 7.13 7.061 17.625 13.037 27.808 15.896M203.906 512.126c4.226 11.16 10.758 21.94 19.525 29.88 7.424 6.74 19.077 12.693 29.622 15.267-4.397-11.576-10.943-22.31-20.1-30.775-8.124-7.51-18.352-11.997-29.047-14.372M216.582 549.782c4.488 11.314 10.694 22.388 20.022 30.246 8.867 7.482 22.484 13.694 34.598 12.495-5.225-11.572-14.11-21.013-23.727-29.197-8.92-7.604-19.615-11.535-30.893-13.544M236.708 593.428c5.985 10.73 13.364 19.43 23.886 26.477 7.763 5.203 22.37 8.56 33.313 8.478-6.18-10.292-14.494-21.773-24.324-27.469-8.469-4.903-22.072-8.129-32.875-7.486M259.78 630.581c5.663 10.677 15.163 21.48 24.853 27.654 9.428 5.999 23.777 8.03 35.435 6.786-5.722-10.649-13.377-20.24-24.216-26.08-9.002-4.845-24.415-8.46-36.072-8.36M284.511 672.033c6.067 11.31 15.766 20.696 27.93 25.17 10.726 3.95 23.41 4.863 34.779 2.37-6.668-10.087-14.96-19.737-26.297-24.396-8.676-3.56-25.88-5.967-36.412-3.144M314.893 708.31c6.917 10.716 16.399 20.655 28.477 25.12 10.744 3.958 22.583 5.152 33.775 2.624-5.47-10.776-13.648-21.24-24.895-25.872-9.423-3.881-26.441-5.492-37.357-1.873M347.446 745.323c7.08 10.699 16.01 17.99 28.916 21.388 11.866 3.13 23.764 3.348 35.503.425-6.202-10.58-12.685-14.435-24.813-19.995-9.45-4.333-28.26-5.582-39.606-1.818M245.417 454.249c-5.895 8.663-10.355 21.528-10.468 30.707-.123 10.54 1.624 20.362 5.75 29.776 5.392-8.066 8.97-18.136 9.77-27.464.883-10.242-1.289-22.741-5.052-33.02M257.672 488.254c-5.633 9.65-10.08 25.007-9.419 34.417.774 10.975 4.596 22.424 10.061 32.268 5.107-9.631 7.894-20.7 7.604-31.535-.29-10.903-2.646-24.867-8.246-35.15M276.414 588.74c5.347-8.947 8.518-20.207 7.717-30.259-.932-11.617-3.14-22.944-9.667-32.54-4.931 9.75-8.242 25.479-7.175 34.53 1.185 10.02 4.008 19.661 9.125 28.27M293.12 561.196c-4.36 9.744-7.532 23.473-6.379 32.734 1.349 10.753 5.483 23.266 12.188 32.385 6.749-9.21 7.758-25.74 6.545-35.91-1.14-9.55-6.138-20.868-12.354-29.21M314.196 596.065c-3.782 9.98-6.138 23.845-4.447 33.028 1.95 10.554 7.623 22.804 14.816 31.775 4.478-13.512 4.845-22.144 2.076-37.588-1.714-9.545-6.111-19.511-12.445-27.215M335.458 631.079c-3.57 11.151-4.126 26.152-2.04 36.561 2.284 11.364 9.41 20.656 18.253 27.754 4.502-13.006 4.027-25.035.064-38.652-2.746-9.418-9.288-18.38-16.277-25.663M383.935 728.236c2.153-13.517 1.425-26.527-3.71-39.57-3.61-9.15-9.762-16.307-17.032-22.577-2.881 10.857-3.162 23.5-.199 33.942 3.154 11.115 10.658 22.302 20.941 28.205M390.69 695.294c-1.892 11.486-.806 25.655 2.998 35.765 4.293 11.4 12.762 19.946 23.746 24.52 1.253-12.835-.968-25.615-6.727-37.268-4.46-9.02-11.884-16.896-20.018-23.017M423.966 724.554c-2.013 11.4-2.348 23.537 1.126 34.521 3.764 11.866 12.63 20.66 23.624 25.786 2.008-12.504 1.113-25.474-3.931-37.204-3.638-8.464-12.803-16.82-20.819-23.103M458.786 753.592c-2.072 11.572-1.33 25.917 2.537 36.209 4.389 11.657 13.726 19.968 24.99 24.5 1.461-12.368.805-25.758-4.727-36.95-4.542-9.179-13.784-17.878-22.8-23.759M234.759 415.72c-6.61 8.649-11.744 19.389-12.68 29.965-1.064 12.01.995 22.352 5.188 33.042 6.718-8.138 10.179-19.036 11.866-29.215 1.647-9.916-.547-23.415-4.374-33.792M215.035 440.198c6.134-9.034 12.01-19.498 13.178-29.943 1.375-12.228-.593-21.054-3.407-31.64-7.102 8.31-12.467 19.47-14.118 29.835-1.475 9.287.945 21.768 4.347 31.748M205.422 400.664c6.378-8.391 12.567-18.172 14.245-28.165 1.964-11.707.552-20.343-1.597-30.666-7.256 7.658-12.992 18.135-15.127 28.024-1.914 8.863-.254 20.99 2.479 30.807M210.425 302.186c-6.22 8.514-12.214 18.403-13.698 28.432-1.746 11.74-.167 20.348 2.18 30.63 7.117-7.803 12.65-18.38 14.59-28.314 1.737-8.889-.15-20.986-3.072-30.748" clip-rule="evenodd"/><path fill="#343536" fill-rule="evenodd" d="M747.68 537.342c3.256-4.868 7.079-9.46 11.553-13.59a52 52 0 0 1 5.135-4.202c-3.411 1.171-6.691 2.004-9.64 2.479l.076-.344-.086.158c-1.633-1.918-3.252-4.135-4.79-6.587.343 2.76.452 5.375.285 7.673-.358 5.04-1.272 9.875-2.534 14.413m-20.796 42.021c4.873-6.79 10.989-12.979 17.937-18.891l.34-.29c-3.108.9-6.03 1.516-8.65 1.85l-.131.195-.1-.158-.244.031.095-.271a69 69 0 0 1-4.881-8.912c.212 2.913.185 5.632-.09 7.984-.842 7.098-2.367 13.2-4.276 18.462m-19.515 32.843c4.641-5.804 9.975-11.097 15.905-14.526a40 40 0 0 1 2.412-1.29c-2.475-.067-4.913-.38-7.261-.981l-.072.09c-2.67-3.515-4.922-7.477-6.718-11.617.407 3.782.466 7.388.077 10.523a80.3 80.3 0 0 1-4.343 17.8m-23.999 34.047c4-4.212 8.536-7.808 13.734-10.608 2.416-1.299 5.366-2.56 8.645-3.696-3.447.244-6.722.226-9.608-.086l-.181.203-.267-.249-1.113-.14.344-.615c-2.357-2.425-4.216-5.478-5.646-8.862 0 2.71-.194 5.28-.624 7.577-1.068 5.809-2.959 11.377-5.284 16.476m-21.384 31.454c3.19-2.416 6.632-4.443 10.391-5.985 2.42-1 5.397-1.905 8.677-2.642-4.528-.023-8.695-.453-12.079-1.14l.086-.181-.312.312a140 140 0 0 1-2.678-7.844 68 68 0 0 1-1.086 8.156 43 43 0 0 1-2.999 9.324m-31.834 35.71c3.298-2.773 6.908-5.053 10.894-6.69 2.66-1.095 5.97-2.063 9.63-2.773-3.297-.498-6.35-1.208-9.074-2.072l.81-1.299-1.072.774c-1.828-4.316-3.1-8.446-3.936-12.382-.29 4.072-.96 8.166-2.072 12.088a55.2 55.2 0 0 1-5.18 12.354m-91.692 34.282c-13.332 7.423-24.013 18.56-28.681 27.993-5.415 10.966-7.342 25.654-4.443 43.664 10.844-3.339 25.27-11.5 31.572-28.238 5.157-13.702 4.691-31.906 1.552-43.42m224.56-268.608c.308 2.022.475 3.985.494 5.822.095 7.025-.63 13.169-1.846 18.57 2.696-4.854 6.292-10.016 11.133-15.593a51 51 0 0 1 4.248-4.298 52 52 0 0 1-8.111 1.846l.171-.919-.407.919c-2.094-1.891-3.985-4.022-5.682-6.347m12.785-37.986a44 44 0 0 1 .574 4.247c.548 6.22.272 11.902-.511 17.069a70.6 70.6 0 0 1 9.143-14.5 53 53 0 0 1 3.61-3.994 58.5 58.5 0 0 1-7.433 2.936l-.52 1.222-.616-.869-.185.059.05-.244a218 218 0 0 1-4.112-5.926m11.101-37.457c.326 1.397.61 2.804.832 4.216.484 3.058.593 6.5.358 10.138a74 74 0 0 1 4.655-8.342 46 46 0 0 1 2.456-3.393 50 50 0 0 1-4.374 1.89l-.113.345-.177-.231-.072.027.009-.09a246 246 0 0 1-3.574-4.56m15.584-63.428a70 70 0 0 1 3.05-7.876 61 61 0 0 1-1.95 2.863 71 71 0 0 1-1.597-3.044c.34 2.823.493 5.496.497 8.057m-8.011 25.048c.38 1.257.697 2.533.972 3.804.652 3.04.928 6.492.883 10.174a71 71 0 0 1 3.876-8.355 41 41 0 0 1 3.226-5.026 67 67 0 0 1-5.162 2.922l.168-2.239-.47 2a52 52 0 0 1-3.493-3.28m13.585-108.046c6.618 9.649 10.142 29.332 9.197 40.433-.842 9.821-3.665 19.321-7.713 27.55 5.926-8.559 15.073-15.851 25.125-22.813.923 13.046-1.348 27.997-6.641 37.764-1.597 2.954-3.46 5.777-5.515 8.455 2.416-1.66 4.95-3.28 7.5-4.872.3 13.074-2.619 29.31-8.368 38.828a55 55 0 0 1-4.216 5.958c2.587-1.498 5.283-2.95 8.007-4.38-.72 13.432-4.981 29.858-11.613 39.158-1.963 2.755-4.22 5.343-6.668 7.732a67 67 0 0 1 12.4-4.393c-1.584 14.29-7.7 31.49-15.616 39.841a68 68 0 0 1-3.746 3.669 71.6 71.6 0 0 1 10.215-2.782c-4.43 17.439-11.93 28.368-20.095 36.448-2.547 2.538-5.356 4.813-8.288 6.835 4.497-1.493 9.297-2.605 14.382-3.356-5.216 17.226-14.101 29.784-22.601 37.493a55 55 0 0 1-3.425 2.859c4.158-1.081 8.632-1.905 13.463-2.488-5.908 17-13.39 29.373-23.311 37.742-3.031 2.556-6.478 4.903-10.16 6.898 4.736-.38 9.36-.23 13.471.611-7.378 14.816-16.023 24.836-27.631 32.621-2.307 1.538-5.107 2.918-8.22 4.112 4.515-.42 8.867-.43 12.703.086-6.632 15.784-19.72 28.532-28.59 34.177-4.09 2.606-8.767 4.438-13.599 5.66 6.451-.041 12.563.8 16.915 2.904-8.256 18.217-21.986 27.147-31.848 30.775a65 65 0 0 1-8.799 2.53c3.895.628 7.519 1.7 10.523 3.31-10.663 18.218-22.805 26.745-32.648 30.369a67 67 0 0 1-11.36 3.126c4.348.67 8.32 1.823 11.482 3.52-10.667 18.212-23.33 24.08-33.454 26.748-17.059 4.506-31.318 2.511-41.971-.868 7.545-14.929 14.991-19.42 28.762-25.732 3.406-1.565 8.025-2.795 13.105-3.546a56 56 0 0 1-6.935-1.701 86 86 0 0 1 5.669-10.676c-3.285 2.633-6.696 4.628-9.957 5.94a105 105 0 0 1-1.357-8.234 59 59 0 0 1-2.09 6.867c-6.302 16.743-19.525 24.963-30.369 28.301a65 65 0 0 1-.357-2.547 44 44 0 0 1-.62 2.081c-5.392 17.041-19.357 25.958-30.015 29.87-3.854-17.828-1.52-32.67 3.316-43.903 4.148-9.658 14.666-19.32 26.745-28.205.913 4.053 1.71 8.355 2.194 12.77a72.3 72.3 0 0 1 5.211-14.091c4.664-9.428 13.318-19.44 25.849-27.672a57 57 0 0 1 1.51 7.667 74.5 74.5 0 0 1 3-9.346c3.863-9.79 10.622-18.38 22.434-27.617 1.203 3.302 2.216 7.034 2.931 11.01.52-5.51 1.71-10.5 3.017-14.996 2.936-10.11 10.36-21.008 21.28-31.295a47 47 0 0 1 2.393 6.328c.358-2.732.837-5.36 1.326-8.102 1.86-10.373 7.297-23.713 17.258-33.29 1.24 2.447 2.402 5.283 3.411 8.35.023-2.79.185-5.4.466-7.713 1.244-10.463 7.442-25.392 16.824-35.538 1.601 2.741 3.121 6.007 4.442 9.55a47 47 0 0 1 .064-5.791c.841-10.518 2.877-26.329 13.784-38.855 1.596 2.176 3.112 4.976 4.46 8.143a61 61 0 0 1-.045-4.162c.285-10.893 2.854-29.712 11.88-41.854 1.207 1.475 2.388 3.234 3.519 5.193-.738-10.839 1.66-26.55 7.821-39.682a40 40 0 0 1 3.923 4.863l-.308-1.706c-1.882-11.345.873-28.902 7.02-41.52a74 74 0 0 1 4.366 5.257 43 43 0 0 1-.497-3.198c-1.873-16.756 2.366-28.635 5.23-39.416a53 53 0 0 1 3.731 3.76 35 35 0 0 1-.38-1.891c-2.718-16.173.774-27.935 2.99-38.547a54 54 0 0 1 4.438 4.062 52 52 0 0 1-1.235-4.98c-2.13-10.912.706-27.162 5.483-39.335 4.872 6.247 9.35 12.53 12.735 18.878-.968-5.388-1.425-11.242-1.186-17.58.489-12.39 5.714-30.115 13.477-38.43" clip-rule="evenodd"/><path fill="#f3d867" fill-rule="evenodd" d="M807.574 264.055c4.37 9.645 6.709 24.392 5.949 33.277-.887 10.387-4.198 21.135-9.514 30.323-4.356-9.989-6.107-20.977-5.672-31.888.362-9.075 3.718-22.863 9.237-31.712M802.553 361.995c.828-10.305 1.936-18.9 7.025-29.427 4.406-9.13 13.07-16.774 21.538-23.044-.167 9.807-2.058 20.877-6.374 28.848-5.085 9.405-13.092 17.706-22.19 23.623M795.016 402.189c1.335-10.464 2.805-19.09 8.482-29.513 4.84-8.908 13.88-16.132 22.637-21.99-.61 10.17-2.994 22.184-7.686 29.933-5.243 8.655-14.073 16.689-23.433 21.57M821.055 390.77c-1.416 10.478-4.818 22.724-10.269 30.351-6.098 8.545-15.87 16.14-25.94 20.42 2.2-10.735 4.384-19.515 11.057-29.839 5.704-8.839 15.63-15.589 25.152-20.931M814.984 431.888c-2.085 11.096-6.88 24.767-13.748 32.019-7.342 7.75-17.059 14.028-27.545 16.756 2.515-11.232 6.596-21 14.223-30.382 6.781-8.337 16.729-14.797 27.07-18.393M759.884 517.052c3.135-10.042 8.664-18.556 15.743-26.704 7.27-8.378 18.417-14.584 29.405-17.814-3.542 10.866-8.953 20.312-17.344 28.622-7.13 7.061-17.62 13.037-27.804 15.896M790.818 512.126c-4.225 11.16-10.762 21.94-19.516 29.88-7.437 6.74-19.085 12.693-29.626 15.267 4.406-11.576 10.939-22.31 20.095-30.775 8.125-7.51 18.348-11.997 29.047-14.372M778.142 549.782c-4.487 11.314-10.694 22.388-20.017 30.246-8.871 7.482-22.488 13.694-34.598 12.495 5.22-11.572 14.105-21.013 23.727-29.197 8.916-7.604 19.606-11.535 30.888-13.544M758.012 593.428c-5.98 10.73-13.36 19.43-23.881 26.477-7.763 5.203-22.37 8.56-33.31 8.478 6.176-10.292 14.5-21.773 24.325-27.469 8.469-4.903 22.067-8.129 32.866-7.486M734.94 630.581c-5.663 10.677-15.163 21.48-24.849 27.654-9.423 5.999-23.772 8.03-35.435 6.786 5.723-10.649 13.382-20.24 24.216-26.08 8.998-4.845 24.42-8.46 36.068-8.36M710.222 672.033c-6.07 11.31-15.77 20.696-27.939 25.17-10.726 3.95-23.406 4.863-34.778 2.37 6.663-10.087 14.96-19.737 26.287-24.396 8.686-3.56 25.894-5.967 36.43-3.144M679.836 708.31c-6.917 10.716-16.403 20.655-28.486 25.12-10.74 3.958-22.574 5.152-33.77 2.624 5.464-10.776 13.652-21.24 24.894-25.872 9.423-3.881 26.442-5.492 37.362-1.873M647.274 745.323c-7.075 10.699-16.01 17.99-28.916 21.388-11.87 3.13-23.76 3.348-35.498.425 6.197-10.58 12.68-14.435 24.799-19.995 9.46-4.333 28.274-5.582 39.615-1.818M749.312 454.249c5.89 8.663 10.355 21.528 10.464 30.707.113 10.54-1.624 20.362-5.75 29.776-5.397-8.066-8.975-18.136-9.771-27.464-.882-10.242 1.294-22.741 5.057-33.02M737.053 488.254c5.637 9.65 10.083 25.007 9.423 34.417-.77 10.975-4.605 22.424-10.065 32.268-5.108-9.631-7.89-20.7-7.605-31.535.285-10.903 2.646-24.867 8.247-35.15M718.315 588.74c-5.351-8.947-8.527-20.207-7.713-30.259.928-11.617 3.126-22.944 9.668-32.54 4.935 9.75 8.233 25.479 7.174 34.53-1.198 10.02-4.017 19.661-9.129 28.27M701.609 561.196c4.36 9.744 7.532 23.473 6.374 32.734-1.344 10.753-5.487 23.266-12.183 32.385-6.754-9.21-7.758-25.74-6.55-35.91 1.145-9.55 6.143-20.868 12.359-29.21M680.528 596.065c3.782 9.98 6.143 23.845 4.447 33.028-1.954 10.554-7.627 22.804-14.81 31.775-4.488-13.512-4.85-22.144-2.082-37.588 1.71-9.545 6.116-19.511 12.445-27.215M659.262 631.079c3.574 11.151 4.126 26.152 2.045 36.561-2.28 11.364-9.41 20.656-18.258 27.754-4.493-13.006-4.022-25.035-.055-38.652 2.746-9.418 9.283-18.38 16.268-25.663M610.79 728.236c-2.154-13.517-1.426-26.527 3.713-39.57 3.61-9.15 9.754-16.307 17.028-22.577 2.882 10.857 3.162 23.5.2 33.942-3.15 11.115-10.664 22.302-20.942 28.205M604.035 695.294c1.887 11.486.806 25.655-3.003 35.765-4.284 11.4-12.757 19.946-23.741 24.52-1.244-12.835.963-25.615 6.731-37.268 4.452-9.02 11.88-16.896 20.013-23.017M570.758 724.554c2.014 11.4 2.348 23.537-1.13 34.521-3.755 11.866-12.626 20.66-23.62 25.786-2.003-12.504-1.112-25.474 3.927-37.204 3.638-8.464 12.803-16.82 20.823-23.103M535.943 753.592c2.072 11.572 1.33 25.917-2.537 36.209-4.398 11.657-13.721 19.968-24.985 24.5-1.47-12.368-.815-25.758 4.727-36.95 4.528-9.179 13.775-17.878 22.795-23.759M759.966 415.72c6.61 8.649 11.748 19.389 12.68 29.965 1.068 12.01-1 22.352-5.189 33.042-6.713-8.138-10.178-19.036-11.866-29.215-1.646-9.916.548-23.415 4.375-33.792M779.685 440.198c-6.125-9.034-12.006-19.498-13.178-29.943-1.366-12.228.597-21.054 3.407-31.64 7.111 8.31 12.476 19.47 14.118 29.835 1.484 9.287-.945 21.768-4.347 31.748M789.307 400.664c-6.383-8.391-12.571-18.172-14.25-28.165-1.963-11.707-.547-20.343 1.597-30.666 7.26 7.658 12.997 18.135 15.128 28.024 1.909 8.863.253 20.99-2.475 30.807M784.3 302.186c6.22 8.514 12.218 18.403 13.697 28.432 1.747 11.74.163 20.348-2.176 30.63-7.111-7.803-12.644-18.38-14.598-28.314-1.732-8.889.154-20.986 3.076-30.748" clip-rule="evenodd"/><path fill="#52a272" fill-rule="evenodd" d="M501.083 54.852c-1.249-1.596-2.479-3.207-3.718-4.826l-3.728 4.826zM583.2 682.836c133.08-128.784 177.45-272.68 177.296-483.444-71.801-2.434-128.313-23.854-177.296-60.976z" clip-rule="evenodd"/><path fill="#e05f50" fill-rule="evenodd" d="M234.243 199.392c-.145 210.727 44.224 354.792 177.427 483.593V138.312c-49.01 37.18-105.549 58.646-177.427 61.08" clip-rule="evenodd"/><path fill="#343536" fill-rule="evenodd" d="M410.662 676.729V143.727c-48.025 35.52-103.265 56.29-172.669 59.27.344 203.897 42.628 346.08 172.669 473.732m170.284 3.049v-538.38c-30.101-22.814-57.389-51.482-83.586-85.234-26.012 33.517-53.11 62.022-82.962 84.754v539.484c24.506 23.7 52.074 46.92 82.985 69.947 31.16-23.239 58.913-46.663 83.563-70.571m3.746-535.58v531.906c129.552-127.53 171.718-269.45 172.062-473.107-69.096-2.976-124.192-23.564-172.062-58.8m-361.664 40.438c120.822-.796 202.037-61.415 271.324-155.577l2.98-4.058 3.032 4.022C570.446 122.18 650.86 183.83 771.724 184.63l3.69.027.028 3.691c.502 74.032-3.334 142.993-19.597 215.41-9.75 43.433-23.76 84.554-41.967 125.15-16.35 36.43-34.463 67.49-59.077 98.809C610.685 683.83 556.947 730.014 499.6 771.98l-2.216 1.624-2.217-1.624c-57.14-42.012-111.226-88.29-155.22-144.263-24.623-31.318-42.732-62.379-59.076-98.809-18.218-40.596-32.219-81.717-41.977-125.15-16.258-72.417-20.09-141.378-19.592-215.41l.022-3.691z" clip-rule="evenodd"/><path fill="#f3d867" fill-rule="evenodd" d="M234.243 199.392c-.177 250.708 62.654 407.073 263.144 555.62C697.845 606.37 760.677 450.228 760.5 199.393c-117.207-3.972-193.664-58.56-263.135-149.366-69.454 90.806-145.92 145.394-263.122 149.366m-11.187-11.01c122.21-.806 204.439-62.149 274.313-157.108 70.653 93.914 152.063 156.293 274.332 157.107.615 90.449-5.162 150.683-19.512 214.563-9.83 43.8-23.365 83.514-41.722 124.44-17.756 39.552-34.933 67.912-58.606 98.031-55.996 71.227-126.15 122.83-154.47 143.55-56.868-41.814-110.633-87.753-154.496-143.55-23.677-30.12-40.854-58.479-58.6-98.03-18.363-40.927-31.898-80.641-41.733-124.44-14.354-63.881-20.126-124.115-19.506-214.564" clip-rule="evenodd"/><path fill="#343536" fill-rule="evenodd" d="m389.241 566.945 41.61-127.227-108.444-78.465 133.854.253 41.122-127.371 41.116 127.371 133.85-.253-108.44 78.465 41.606 127.227-108.132-78.886Z" clip-rule="evenodd"/><path fill="#f3d867" fill-rule="evenodd" d="m497.383 483.423-100.971 73.656 38.845-118.79-101.251-73.268 124.983.24 38.394-118.94 38.388 118.94 124.98-.24-101.252 73.268 38.85 118.79Z" clip-rule="evenodd"/><path fill="#343536" fill-rule="evenodd" d="M222.626 803.196c29.522-29.26 48.775-31.129 87.15-31.129l373.765.005c38.375 0 57.638 1.873 87.16 31.128l2.406 2.393-4.736 5.809c35.752 30.305 73.046 74.145 87.621 119.373l2.516 7.818-44.88-19.14L785.687 975l-2.361-10.03c-4.922-20.845-14.038-38.895-27.007-55.868-10.554-13.811-23.764-26.405-38.253-36.05-17.562-11.68-31.047-16.236-52.44-16.426l-1.357-1.574-335.213-.005-1.511 1.312c-21.986 1-34.838 4.646-52.1 16.688-14.282 9.962-27.7 22.24-38.254 36.05-12.97 16.974-22.085 35.02-27.002 55.87L207.82 975l-27.935-55.543L135 938.597l2.52-7.817c14.553-45.184 51.788-88.974 87.512-119.27l-4.817-5.921z" clip-rule="evenodd"/><path fill="#f3d867" fill-rule="evenodd" d="M225.263 805.86c31.925-31.64 54.987-30.042 84.514-30.042H683.54c29.531 0 52.598-1.597 84.518 30.042l-49.002 60.085c-15.444-12.205-36.452-14.634-54.783-14.634H329.062c-18.34 0-40.543 3.632-55.2 14.236zM227.43 814.442c-32.657 27.626-71.35 70.95-86.35 117.487l40.57-17.294 24.894 49.485c5.139-21.8 14.589-40.162 27.667-57.284 11.418-14.938 24.718-27.31 38.787-36.507zM765.983 814.338c32.657 27.622 71.453 71.05 86.445 117.586l-40.56-17.294-24.904 49.486c-5.135-21.8-14.58-40.162-27.663-57.285-11.414-14.938-24.827-27.514-38.887-36.71z" clip-rule="evenodd"/><path fill="#343536" fill-rule="evenodd" d="M367.939 312.4c-3.719 4.353-8.351 7.596-13.608 9.835-5.541 2.371-11.39 3.47-17.416 3.47-12.418 0-23.307-4.053-31.133-13.901-8.396-10.59-10.721-24.745-10.721-37.91 0-12.513 2.456-25.577 10.812-35.349 8.002-9.291 18.99-12.865 31.042-12.865 6.016 0 12.164.742 17.814 2.881 5.13 1.937 9.573 4.94 13.183 9.07l.927 1.055v33.308l-7.012-12.431c-2.375-4.216-5.632-7.528-9.853-9.89-4.446-2.474-9.31-3.519-14.39-3.519-6.338 0-11.69 1.955-15.62 7.04-4.655 6.02-5.795 14.543-5.795 21.93 0 7.958 1.13 17.29 5.876 23.945 3.832 5.343 9.02 7.618 15.54 7.618 4.044 0 7.898-.85 11.449-2.8 4.777-2.633 9.6-7.283 13.368-11.178l6.437-6.66v25.307z" clip-rule="evenodd"/><path fill="#f3d867" d="M365.093 309.967q-4.846 5.673-12.236 8.821c-4.945 2.122-10.247 3.176-15.942 3.176-12.187 0-21.579-4.162-28.201-12.495-6.596-8.328-9.908-20.185-9.908-35.58 0-14.231 3.312-25.188 9.908-32.91 6.622-7.695 16.014-11.558 28.2-11.558 6.348 0 11.84.873 16.49 2.633 4.65 1.764 8.545 4.429 11.69 8.034v17.634c-2.746-4.872-6.515-8.654-11.292-11.323-4.8-2.674-10.206-4.004-16.218-4.004-8.02 0-14.204 2.837-18.579 8.496-4.379 5.66-6.582 13.73-6.582 24.22 0 11.278 2.203 19.986 6.582 26.116 4.375 6.12 10.559 9.188 18.58 9.188q7.32-.001 13.259-3.266c3.98-2.199 8.717-6.14 14.25-11.857z"/><path fill="#343536" fill-rule="evenodd" d="M492.08 216.876h-21.107v-96.424h63.83v20.475h-42.722v17.982h42.107v20.465h-42.107Z" clip-rule="evenodd"/><path fill="#f3d867" d="M488.335 137.18v25.47h42.107v12.983h-42.107v37.498h-13.621v-88.929h56.344v12.979Z"/><path fill="#343536" fill-rule="evenodd" d="M649.35 304.24h40.425v20.47h-61.542v-96.425h61.542v20.475H649.35v17.1h40.425v20.484H649.35Z" clip-rule="evenodd"/><path fill="#f3d867" d="M686.025 245.014h-40.43v24.596h40.43v12.979h-40.43v25.392h40.43v12.988h-54.042V232.03h54.042v6.492Z"/><path fill="#343536" fill-rule="evenodd" d="m497.193 582.376-8.872 26.297h17.874zm15.095 46.767h-30.07l-6.966 24.994h-19.94l29.056-96.43h26.097l28.984 96.43h-20.18z" clip-rule="evenodd"/><path fill="#f3d867" d="m497.16 570.74-14.045 41.674h28.332l-14.254-41.673zm-36.8 79.651 26.79-88.933h20.524l26.74 88.933h-12.3l-6.99-24.994h-35.737l-6.967 24.994h-5.998z"/><path fill="#343536" d="M348.215 811.135v5.09h-10.11v13.421h-6.148v-30.852h16.932v5.094h-10.784v7.247ZM351.947 798.794h6.148v20.945c0 1.923.208 3.416.606 4.492s1.362 1.62 2.9 1.62c1.583 0 2.597-.543 3.013-1.629.425-1.081.633-2.565.633-4.483v-20.945h6.157v20.036c0 3.212-.375 5.55-1.144 7.025-1.538 2.927-4.388 4.397-8.568 4.397-3.642 0-6.23-.959-7.74-2.872a7.8 7.8 0 0 1-1.602-3.298c-.267-1.226-.403-2.642-.403-4.239zM395.833 829.646h-6.972l-7.432-21.185v21.185h-5.696v-30.852h7.062l7.347 21.09v-21.09h5.69ZM406.278 803.422v21.587h1.823c.977 0 1.81-.081 2.497-.235a2.9 2.9 0 0 0 1.688-1.054c.7-.932 1.158-2.248 1.343-3.976q.293-2.591.294-5.84v-1.276c0-4.397-.656-7.139-1.972-8.234a3.7 3.7 0 0 0-1.792-.818 18 18 0 0 0-2.52-.154zm-6.157-4.628h8.197c1.918 0 3.579.136 4.958.425a6.97 6.97 0 0 1 3.56 1.887 9.1 9.1 0 0 1 2.285 3.546c.493 1.37.8 2.742.914 4.108.113 1.37.18 3.062.18 5.062 0 3.506-.293 6.492-.868 8.966a9.6 9.6 0 0 1-1.637 3.538c-.806 1.08-1.76 1.877-2.877 2.388-1.394.62-3.18.928-5.343.928h-9.369zM433.054 803.829l-3.058 14.3h6.067zm-3.777-5.035h7.826l7.804 30.852h-6.478l-1.502-6.573h-7.7l-1.601 6.573h-6.374zM454.615 803.422v21.587h1.818c.982 0 1.823-.081 2.497-.235a2.85 2.85 0 0 0 1.683-1.054c.706-.932 1.167-2.248 1.353-3.976.19-1.728.29-3.674.29-5.84v-1.276c0-4.397-.652-7.139-1.964-8.234a3.76 3.76 0 0 0-1.8-.818 18 18 0 0 0-2.52-.154zm-6.144-4.628h8.188c1.919 0 3.57.136 4.963.425 1.375.285 2.56.91 3.556 1.887a9.1 9.1 0 0 1 2.284 3.546c.498 1.37.801 2.742.91 4.108.113 1.37.176 3.062.176 5.062 0 3.506-.285 6.492-.869 8.966a9.6 9.6 0 0 1-1.633 3.538q-1.198 1.62-2.872 2.388-2.098.929-5.343.928h-9.36zM478.351 814.148c0 2.904.113 5.175.321 6.822.208 1.646.606 2.872 1.208 3.668q.882 1.214 2.606 1.213c.837 0 1.51-.208 2.031-.625.525-.425.923-1.094 1.208-2.004.294-.909.488-2.085.615-3.496q.157-2.136.158-5.533c0-2.606-.067-4.669-.199-6.202-.135-1.53-.497-2.81-1.09-3.854q-.89-1.555-2.764-1.557c-1.221 0-2.135.457-2.732 1.362-.602.91-.982 2.063-1.131 3.447q-.231 2.077-.231 5.415zm-6.284.09c0-2.357.095-4.42.29-6.211.204-1.778.633-3.434 1.316-4.926.674-1.507 1.729-2.701 3.14-3.588 1.42-.886 3.298-1.325 5.632-1.325 3.076 0 5.36.737 6.863 2.203 1.51 1.456 2.465 3.302 2.872 5.523.403 2.217.606 4.981.606 8.279 0 3.22-.208 5.876-.633 7.957-.412 2.072-1.05 3.7-1.89 4.881-.856 1.177-1.914 2.014-3.181 2.493-1.262.484-2.8.724-4.637.724-2.488 0-4.483-.475-5.985-1.434-1.506-.96-2.61-2.597-3.325-4.922-.71-2.316-1.068-5.542-1.068-9.654M533.297 811.135v5.09h-10.156v8.323h11.233v5.098h-17.385v-30.852h16.982v5.094h-10.83v7.247ZM566.51 829.646h-5.695v-24.148l-5.483 24.148h-4.736l-5.506-24.148v24.148h-5.69v-30.852h9.11l4.542 21.596 4.43-21.596h9.029ZM588.917 803.97h.407c2.004-.028 3.66-.394 4.95-1.105 1.284-.705 2.066-1.972 2.338-3.79h4.243v30.571h-5.921V807.95h-6.013v-3.98zM617.046 808.782c0-3.876-1.1-5.822-3.293-5.822-2.217 0-3.325 1.977-3.325 5.917 0 1.977.194 3.411.592 4.303q.354.772 1.081 1.24c.475.302 1 .456 1.552.456 1.488 0 2.425-.538 2.805-1.633.389-1.1.588-2.588.588-4.46m-12.047 13.72h5.84q.081 3.572 2.918 3.574c1.448 0 2.384-.724 2.836-2.185q.488-1.576.67-5.451c.063-.977.131-1.728.24-2.217-1.167 2.1-3.099 3.144-5.795 3.144q-3.888-.001-5.7-2.682a9.1 9.1 0 0 1-1.394-3.434c-.226-1.226-.33-2.656-.33-4.293 0-2.004.34-3.768 1.032-5.302.696-1.538 1.737-2.723 3.144-3.587 1.398-.855 3.103-1.276 5.098-1.276q4.396-.001 6.528 1.918 2.158 1.919 2.737 4.958c.389 2.004.588 4.6.588 7.786 0 3.904-.2 6.948-.597 9.11-.453 2.552-1.584 4.524-3.407 5.94-1.57 1.163-3.578 1.75-6.066 1.75-2.583 0-4.614-.646-6.062-1.926-1.439-1.299-2.203-3.235-2.28-5.827M625.967 820.698h5.876c.054 1.602.29 2.9.742 3.886.443 1 1.316 1.493 2.633 1.493q1.8.001 2.597-1.307c.538-.865.823-1.955.823-3.226 0-1.18-.095-2.176-.276-3.004a3.32 3.32 0 0 0-1.185-1.995c-.588-.52-1.615-.787-3.1-.787h-1.225a.7.7 0 0 0-.271.045v-4.057h.271q1.675-.002 2.565-.172c.584-.113 1.054-.344 1.43-.706.75-.733 1.135-2.072 1.135-4.017 0-2.592-.96-3.886-2.868-3.886-2.081 0-3.135 1.515-3.135 4.528v.29h-5.655c.045-5.994 3.108-8.98 9.152-8.98q2.49-.001 4.401.832c1.272.566 2.271 1.425 2.986 2.57.72 1.149 1.09 2.578 1.09 4.275 0 2.66-.705 4.587-2.094 5.777-.819.66-1.638 1.072-2.466 1.244q1.988.3 3.276 1.484 2.103 1.907 2.103 6.292c0 2.533-.75 4.637-2.235 6.347-1.601 1.75-3.93 2.628-6.97 2.628-2.032 0-3.746-.294-5.162-.86q-2.13-.867-3.357-3.216c-.72-1.42-1.081-3.243-1.081-5.478M646.423 808.918v-.37c.06-3.516.882-6.017 2.461-7.479 1.606-1.524 3.864-2.275 6.745-2.275 3.027 0 5.307.733 6.836 2.221 1.479 1.457 2.23 3.492 2.23 6.107q0 2.39-.534 4.067a10 10 0 0 1-1.579 3.085c-.714.932-1.692 1.99-2.94 3.158l-2.054 1.94c-2.144 2.068-3.57 3.932-4.284 5.601a9 9 0 0 1 1.601-.136h9.935v4.81h-18.503c0-2.068.294-3.941.892-5.647q.798-2.198 1.936-3.772a21.3 21.3 0 0 1 2.7-3.086 259 259 0 0 0 2.986-2.827 23 23 0 0 0 2.47-2.705c.814-1.04 1.222-2.434 1.222-4.171q0-1.872-.665-3.18c-.453-.869-1.226-1.303-2.344-1.303-1.37 0-2.262.525-2.696 1.583-.42 1.054-.629 2.402-.629 4.058v.321z"/></svg>