<svg xmlns="http://www.w3.org/2000/svg" width="1000" height="1000" viewBox="0 0 1105.456 1107.405"><path fill="#9c824a" stroke="#9c824a" stroke-miterlimit="282" stroke-width="2.1963483100000003" d="M552.727 28.783c-106.455 0-302.75 27.542-402.716 85.672-131.615 466.62 47.381 783.933 402.716 964.034 355.338-180.1 534.333-498.984 402.716-964.031-100.066-58.133-296.264-85.675-402.716-85.675Z"/><path fill="#023474" stroke="#023474" stroke-miterlimit="282" stroke-width="2.1963483100000003" d="M552.727 58.784c-104.586 0-222.344 13.378-376.57 76.327-114.809 407.31 18.382 733.772 376.57 911.704 358.188-177.932 491.279-504.396 376.47-911.704-154.226-62.95-271.884-76.327-376.47-76.327Z"/><path fill="#fff" stroke="#fff" stroke-miterlimit="282" stroke-width="2.1963483100000003" d="M552.237 58.391c-104.096 0-215.857 15.441-316.71 53.607-104.585 417.049-27.422 721.572 317.3 934.523zm.59 988.13C897.546 833.57 974.612 529.047 870.023 111.998 769.174 73.832 657.51 58.391 553.417 58.391Z"/><path fill="#ef0107" stroke="#ef0107" stroke-miterlimit="282" stroke-width="2.1963483100000003" d="M552.827 58.294c-104.686 0-210.648 15.834-296.754 45.833-108.322 437.115-21.332 732.293 296.85 934.03z"/><path fill="#db0007" stroke="#db0007" stroke-miterlimit="282" stroke-width="2.1963483100000003" d="M553.023 58.294c104.683 0 210.648 15.834 296.851 45.833 108.322 437.115 21.33 732.293-296.948 934.03z"/><path fill="#fff" d="M417.573 717.897c-46.199 31.677-82.96 43.085-125.622 54.396L266.2 732.261c39.221-19.867 79.816-47.509 120.708-87.539 3.44 38.848 21.523 66.387 30.666 73.175"/><path fill="#9c824a" d="M411.28 716.227c-43.838 30.095-104.882 51.048-174.77 61.276l-14.252-21.637c59.861-22.431 117.659-55.87 162.483-102.885 6.783 30.096 17.103 50.065 26.539 63.246"/><path fill="#fff" d="M294.508 532.39c0 16.82-13.563 30.394-30.372 30.394-16.81 0-30.472-13.574-30.472-30.394s13.662-30.392 30.472-30.392c16.809 0 30.372 13.572 30.372 30.392"/><path fill="#fff" d="M291.262 472.487v114.69h90.333c5.896-38.46 27.718-79.28 77.16-114.69z"/><path fill="#fff" d="M294.901 587.177c-20.152.293-36.762-24.985-37.058-56.657-.197-31.674 15.925-57.64 36.175-58.033h.69"/><path fill="#9c824a" d="M281.729 532.39c0 12.984-9.437 23.412-21.036 23.412s-21.036-10.425-21.036-23.412c0-12.984 9.436-23.41 21.036-23.41 11.6-.002 21.036 10.426 21.036 23.41M293.721 478.49v103.078h89.646c7.077-34.227 24.476-70.62 67.92-103.079z"/><path fill="#9c824a" d="M297.061 581.568c-18.972.396-34.501-22.423-34.795-50.85-.197-28.426 15.04-51.838 34.009-52.229h.59"/><path fill="#fff" d="M724.25 614.029c0 95.709-77.454 173.212-173.096 173.212-95.543 0-173.096-77.503-173.096-173.212 0-95.703 77.553-173.213 173.096-173.213 95.642 0 173.096 77.51 173.096 173.213"/><path fill="#9c824a" d="M715.213 614.029c0 90.69-73.43 164.161-164.056 164.161-90.53 0-163.957-73.471-163.957-164.161 0-90.588 73.427-164.161 163.957-164.161 90.626-.003 164.056 73.473 164.056 164.16"/><path fill="#fff" d="M687.981 614.029c0 75.64-61.24 136.921-136.827 136.921-75.49 0-136.728-61.281-136.728-136.921S475.664 477.11 551.154 477.11c75.587 0 136.827 61.28 136.827 136.919"/><path fill="#9c824a" d="M678.941 614.029c0 70.62-57.21 127.77-127.787 127.77-70.477 0-127.685-57.15-127.685-127.77S480.677 486.26 551.154 486.26c70.577-.003 127.787 57.147 127.787 127.768"/><path fill="#fff" d="M604.428 614.029c.1 29.41-23.785 53.313-53.177 53.41-29.486 0-53.375-23.9-53.375-53.31v-.1c0-29.411 23.79-53.31 53.275-53.31 29.39-.098 53.275 23.804 53.275 53.213z"/><path fill="#9c824a" d="M598.141 614.029c0 25.971-20.941 47.018-46.887 47.018-25.95 0-46.985-20.947-47.085-46.916v-.1c0-25.965 21.036-47.017 46.985-47.017s46.987 20.952 46.987 46.918z"/><path fill="#fff" d="M575.336 614.029c0 13.278-10.813 24.096-24.18 24.193-13.269 0-24.082-10.816-24.082-24.193 0-13.375 10.813-24.096 24.083-24.193 13.363-.003 24.179 10.818 24.179 24.193"/><path fill="#9c824a" d="M568.653 614.029c0 9.638-7.767 17.507-17.496 17.507-9.633 0-17.496-7.772-17.496-17.507 0-9.636 7.863-17.505 17.496-17.505 9.63-.002 17.496 7.767 17.496 17.505"/><path fill="#fff" d="M532.774 483.309h36.369v84.882h-36.369Z"/><path fill="#9c824a" d="M538.474 471.111h25.063v107.9h-25.063Z"/><path fill="#fff" d="m672.352 561.699-71.164 46.234-19.756-30.494 71.064-46.232Z"/><path fill="#9c824a" d="M679.431 550.39 589 609.21l-13.663-21.147 90.432-58.722Z"/><path fill="#fff" d="m519.602 651.602-71.657 45.445-19.463-30.788 71.657-45.345Z"/><path fill="#9c824a" d="m525.795 640.39-91.02 57.737-13.469-21.246 91.023-57.737Z"/><path fill="#fff" d="M532.774 662.72h36.369v84.879h-36.369Z"/><path fill="#9c824a" d="M538.474 650.622h25.063v107.8h-25.063Z"/><path fill="#ef0107" stroke="#ef0107" stroke-miterlimit="282" stroke-width=".86136737" d="M515.672 653.668c4.916 4.13 10.32 7.869 17.102 10.722l-.196 75.736c-34.305-4.426-60.255-21.343-79.914-45.439l63.107-41.019"/><path fill="#db0007" stroke="#db0007" stroke-miterlimit="282" stroke-width=".86136737" d="M586.54 653.965c-5.014 4.032-10.323 7.868-17.104 10.621l.097 75.74c34.306-4.426 60.257-21.343 79.917-45.442l-63.008-40.917"/><path fill="#db0007" d="m603.742 622.194 75.096-9.052c.59 18.784-3.932 35.311-10.322 51.148l-64.974-42.096"/><path fill="#fff" stroke="#fff" stroke-miterlimit="282" stroke-width=".86136737" d="M603.841 621.897c.294-1.18.197-2.26.69-5.702l74.116-9.639c.294 3.443.097 4.72 0 6.293z"/><path fill="#fff" d="M713.54 559.441h97.215c-3.05 11.506-5.999 23.21-19.958 28.425-22.313 8.365-68.608 16.427-68.608 16.427-.886-12.69-3.736-29.907-8.65-44.852"/><path fill="#fff" d="m645.816 470.817 253.992.294-8.943 92.85-173.492 9.052c-9.34-41.51-40.894-81.146-71.557-102.196"/><path fill="#9c824a" d="m654.856 477.406 324.276.294-12.386 75.643-251.636 12.394c-9.93-37.576-32.632-65.018-60.254-88.33"/><path fill="#9c824a" d="M713.54 559.441h89.543c-2.947 10.226-5.013 19.57-18.183 24.193-20.936 7.476-63.104 13.378-63.104 13.378-1.77-12.292-4.326-24.786-8.256-37.57M615.244 335.965c0 4.132-.883 15.444-1.374 18.59h50.328c-3.052-13.38-4.429-31.968-4.82-46.328 0 .983-.883-28.822-.883-28.822 0-2.066.884-5.212 2.16-6.195 1.773-2.067 3.543-2.067 5.706-2.067 2.16-.983 6.093-.983 6.584 7.182l1.28 30.885c.49 14.457.49 34.034-1.28 45.345h48.46c-.395-4.132-1.77-14.46-2.163-17.51 6.094 13.378 19.266 20.557 36.762 20.557 10.42 0 18.38-4.036 24.476-8.165 0 .983 2.556 5.118 2.556 5.118h90.04c-3.933-13.38-6.49-31.968-7.864-46.328L852.53 207.308l-46.298-8.262c3.936 13.378 6.59 32.95 8.257 46.328l7.076 64.919c1.28 11.311 2.166 23.705 2.166 37.08v.983l-1.772-4.132c-3.537-8.262-5.21-18.49-6.587-33.934l-1.67-20.656c-2.653-32.951-20.543-47.315-59.96-47.315-6.487 0-23.1.984-33.223 4.133l2.654 36.983 10.519-6.099c8.75-5.212 15.236-7.278 23.096-7.278 6.196 0 10.126 2.069 11.896 6.198-7.467 1.08-15.73 3.147-24.966 7.18-13.96 6.195-22.708 15.537-26.639 25.768v-.983l-1.376-34.034c-.784-21.64-14.84-36-36.272-36-9.533 0-18.285 3.05-26.145 8.262-.49-1.083-.884-2.069-1.377-3.15l-1.77-4.131-40.204-2.067c1.77 7.28 4.426 27.838 4.819 35.02-2.166-10.231-7.866-21.542-18.385-29.804-8.254-5.213-18.773-8.262-29.683-8.262-14.845 0-30.178 6.196-40.204 16.524-10.517 10.228-15.73 24.688-16.22 41.115-3.93-4.132-9.14-8.165-15.236-10.228l-18.382-9.345h-.883c-4.324-2.069-4.817-3.052-4.817-4.035.493-2.066 4.817-4.133 10.52-4.133 7.862 0 18.775 4.133 27.522 9.248l.883-32.95c-6.586-3.15-15.726-5.116-28.899-5.116-6.98 0-20.052.983-31.455 7.179-3.05 2.066-5.703 4.132-8.256 6.198l.393-9.347c-10.516-1.967-21.822-1.967-35.781 11.41-.49-1.082-1.377-6.198-2.26-8.261l-43.249 2.066c3.047 12.297 3.537 29.805 2.654 45.248l-.884 16.524v2.066c-.493 8.262-.883 17.507-1.77 25.77-3.54-11.412-7.373-26.853-10.519-39.147l-21.426-96.786-61.14 9.245c.393.983 1.276 4.132 1.77 7.179.395 4.132.395 12.394-5.308 29.901-10.026 27.741-23.985 70.034-37.548 99.836-1.77 4.132-5.307 10.328-5.307 10.328h47.672c.886-7.182 3.933-19.573 6.98-28.821 6.586 0 23.592 0 31.452-1.083 1.77 7.278 3.54 16.524 4.033 22.72l.786 7.181h95.346c-2.163-15.444-1.28-36.003-.49-47.411.883-13.378 3.537-22.623 9.24-27.738 4.323-5.213 9.14-6.196 12.679-6.196-.49 18.49 11.306 26.755 21.822 31.868l18.773 9.342c6.586 4.132 6.586 5.115 6.586 7.181-.393 3.05-5.702 4.133-10.516 4.133-10.026 0-23.592-6.199-38.435-22.623l-.883 43.18c11.796 6.195 26.638 9.244 39.811 9.244 21.822 0 45.018-10.23 51.114-29.804 10.91 20.557 32.339 29.804 53.375 29.804 18.77.017 32.726-6.084 45.015-19.556m-328.306-42.199c2.654-7.179 4.814-13.377 8.747-24.689 2.653 11.312 3.93 18.493 5.21 23.706-5.21.983-7.863.983-13.957.983m267.559-11.311c0-14.361 5.21-20.557 10.422-20.557 1.77 0 5.7-1.083 7.467 6.196.884 3.05 1.277 5.116 1.277 6.099 0 4.132-2.16 5.212-4.814 5.212v.984s-7.373 2.066-14.352 5.212zm49.835 29.901c-9.243 8.165-15.826 13.378-26.736 13.378-8.747-1.083-13.96-6.199-17.006-13.378 9.143-3.146 44.528-16.524 54.651-20.656 0 8.262.396 17.507.396 17.507v17.51zm162.973 14.364c-8.254 0-10.027-6.199-10.42-10.232.393-4.132 1.67-10.328 14.84-14.457a258 258 0 0 0 .884 9.245v4.13c.396 3.146.396 6.195.786 9.245-1.667 1.083-3.828 1.083-6.09 2.069"/><path fill="#fff" d="M502.4 245.374c-4.324-.983-10.91-3.049-21.427-3.049-8.256 0-19.169 2.066-27.525 6.199-9.633 6.195-16.612 14.36-17.006 23.705-.883 14.36 6.587 20.557 17.496 25.672 7.373 4.133 14.45 8.262 18.776 10.328 5.7 3.05 10.91 6.196 10.516 13.378-.49 7.182-7.076 12.394-17.986 12.394-9.143 0-22.215-6.196-31.455-14.46l-.393 21.64c7.863 4.131 20.542 6.195 32.338 6.195 20.053 0 45.019-9.245 45.412-31.968.49-17.507-11.793-23.705-19.166-27.738-7.47-3.146-14.943-7.276-18.38-8.262-3.54-2.066-10.519-4.13-10.026-12.394.787-7.18 9.143-10.328 17.89-10.328 7.372 0 14.842 2.066 20.542 5.212M322.814 207.308l-46.395 6.196c.886 6.198-.883 18.493-5.7 32.95-9.533 27.739-25.262 74.064-37.551 100.916h28.901c1.67-9.342 3.834-17.507 8.257-28.818l42.858-1.083c1.67 8.262 4.816 21.64 5.21 29.901h38.924c-4.816-11.408-10.91-35.017-14.84-51.54Zm-46.395 93.64 21.036-60.69 12.682 59.707M433.792 245.374l-.884 20.657c-6.98-1.08-15.726.983-22.706 8.165-6.096 6.195-10.026 15.443-10.91 31.967-.886 13.378-1.279 28.821-.492 41.213h-32.735c2.163-12.392 3.05-26.755 3.44-40.227l.883-16.427c.884-13.377.884-26.755-1.276-39.146l28.898-.984c1.28 4.133 2.164 11.312 1.673 18.49 12.68-19.578 24.966-23.708 34.109-23.708M846.04 213.504l-29.784-5.213c3.05 13.477 3.933 22.723 5.703 36.097l6.982 64.822c1.374 13.377 2.653 25.772 2.257 38.163h32.342c-3.147-12.391-4.424-24.786-5.703-38.163M712.656 347.373c-1.673-12.391-2.559-24.786-3.052-38.163l-1.277-33.934c-.883-18.59-11.4-28.819-28.899-28.819-9.533 0-20.938 3.05-30.568 15.441-.394-3.146-1.77-11.311-3.537-15.44l-26.146-1.084c2.16 12.395 3.047 24.69 3.437 38.067l.493 25.769c.393 13.377 0 25.772-.883 38.163h32.732c-1.673-12.391-2.557-24.786-3.05-38.163l-.883-28.819c-.394-10.328 7.47-17.51 15.335-17.51 9.14 0 13.563 6.196 13.96 15.444l1.373 30.885c.396 13.377.396 25.772-.49 38.163M814.979 347.373c-3.93-10.328-6.093-22.72-6.98-36.097l-1.772-20.56c-1.77-24.688-12.184-41.212-52.488-41.212-6.98 0-17.006 1.083-25.26 3.05l1.277 18.59c8.254-5.116 16.613-9.246 27.13-9.246 10.909 0 20.051 5.116 20.938 20.557-10.52 1.083-20.152 3.05-31.062 8.262-12.187 5.115-24.869 15.443-23.592 31.868 1.277 18.59 15.333 26.852 32.832 26.852 13.563 0 22.705-6.196 27.915-12.392.884 4.13 2.26 7.179 3.537 10.328zm-47.674-13.377c-9.636 0-17.494-5.213-17.89-16.524 0-11.312 6.98-20.557 29.292-23.706l1.28 17.51c.49 6.196.49 10.328 1.374 15.444-3.141 4.13-8.354 6.195-14.056 7.276M592.045 248.52c-7.467-5.212-16.216-7.278-25.356-7.278-21.429 0-49.838 15.444-48.954 54.59.393 40.133 31.062 52.524 52.49 52.524 18.774 0 30.18-7.181 39.316-16.427l-6.586-9.344c-4.814 4.132-12.68 10.328-25.36 10.328-13.565-.984-22.215-10.328-27.031-24.69l59.37-21.639c-1.77-19.57-8.746-30.881-17.889-38.063m-20.542 38.067-23.592 9.245c-.49-4.13-.884-8.262-.884-13.377 0-23.706 13.073-27.835 17.493-27.835 6.983-.984 13.076 3.146 15.333 11.408 2.56 9.248 1.676 17.51-8.35 20.56M451.581 524.325l70.97 46.425-19.955 30.491-70.967-46.522Z"/><path fill="#9c824a" d="m438.805 523.242 90.136 59.113-13.762 21.052-90.137-59.116Z"/><path fill="#fff" d="m603.055 621.011 70.967 46.525-19.953 30.494-70.967-46.525Z"/><path fill="#9c824a" d="m590.275 620.03 90.14 59.114-13.763 20.952-90.139-59.019Z"/></svg>