<svg xmlns="http://www.w3.org/2000/svg" xmlns:xlink="http://www.w3.org/1999/xlink" width="1000" height="1000" viewBox="0 0 1000 1000"><defs><clipPath id="c"><use xlink:href="#a" width="100%" height="100%"/></clipPath><path id="a" d="M.725-6.294H71.59V60.32H.725Z"/></defs><path fill="#fff" d="M54.971 28.66c0 14.612-11.848 26.459-26.459 26.459-14.613 0-26.459-11.847-26.459-26.459S13.899 2.2 28.512 2.2c14.611 0 26.459 11.847 26.459 26.46" clip-path="url(#c)" transform="translate(-11.855 -14.494)scale(17.95196)"/><path fill="#005daa" d="m23.503 48.367-.656-.159-.77 3.222.018.005 2.085.498.141-.591-1.445-.344zm12.416-.758.663 1.847-1.858-1.421-.563.203 1.112 3.117.638-.228-.662-1.853 1.856 1.427.011-.005.555-.199-1.114-3.116zm-17.714 2.379.652.267.403-.463 1.052.432-.04.609.013.006.642.263.134-3.525-.484-.197zm2.158-.363-.708-.29.783-.886zm13.028-.331a.94.94 0 0 0-.363-.442 1.2 1.2 0 0 0-.442-.2 1 1 0 0 0-.25-.027q-.123 0-.254.024-.27.047-.473.176a1.2 1.2 0 0 0-.349.338.96.96 0 0 0-.181.54v.035q-.001.281.089.782.092.532.196.796a1 1 0 0 0 .354.446q.21.146.446.2a1.3 1.3 0 0 0 .503.002q.272-.049.473-.176.2-.13.346-.338a.97.97 0 0 0 .189-.546v-.027c0-.184-.033-.447-.091-.785a5 5 0 0 0-.193-.798m-.392 1.55a.54.54 0 0 1-.075.286.5.5 0 0 1-.361.237 1 1 0 0 1-.111.009.6.6 0 0 1-.122-.013.4.4 0 0 1-.189-.092.4.4 0 0 1-.094-.098.6.6 0 0 1-.073-.147 2 2 0 0 1-.067-.236 7 7 0 0 1-.074-.387q-.043-.245-.064-.393a2 2 0 0 1-.017-.231v-.013a1 1 0 0 1 .019-.164.4.4 0 0 1 .053-.118.44.44 0 0 1 .147-.155.6.6 0 0 1 .217-.085q.06-.009.114-.01a.5.5 0 0 1 .305.108.5.5 0 0 1 .17.244q.037.088.07.236a11 11 0 0 1 .136.777q.019.138.018.23v.015zm-3.826-1.864.158 3.307.019-.001.656-.033-.159-3.305zm-2.105-.041-1.327-.108-.264 3.302 1.386.109q.063.005.121.005h.002q.374 0 .634-.199c.201-.153.313-.383.336-.682q.004-.05.004-.095a.73.73 0 0 0-.103-.399.9.9 0 0 0-.271-.275.8.8 0 0 0 .271-.219.7.7 0 0 0 .164-.424l.003-.102a.86.86 0 0 0-.219-.603q-.252-.274-.737-.31m.218 2.342a.4.4 0 0 1-.127.268.38.38 0 0 1-.262.086l-.051-.001-.648-.053.062-.765.648.051q.2.016.295.13a.37.37 0 0 1 .083.284m.061-1.353a.34.34 0 0 1-.124.252.4.4 0 0 1-.254.077l-.053-.002-.606-.049.056-.716.607.047q.194.017.291.122a.33.33 0 0 1 .085.231q0 .018-.002.038m1.165-47.392c-14.428 0-26.124 11.696-26.124 26.123s11.696 26.125 26.124 26.125 26.123-11.698 26.123-26.125c0-14.428-11.697-26.123-26.123-26.123m0 51.242c-13.874 0-25.119-11.246-25.119-25.12 0-13.872 11.245-25.119 25.119-25.119s25.119 11.247 25.119 25.119c0 13.874-11.245 25.12-25.119 25.12m5.615-44.599q.215.073.383.077.051.002.099-.003a1.8 1.8 0 0 0 .399-.094l.005-.003.132.326.764.255-.353-.847q.206-.125.359-.325.154-.208.271-.512l.007-.017-.564-.186-.007.016q-.12.322-.308.46l-.304-.737q.056-.015.128-.039l.127-.041a1 1 0 0 0 .316-.164.57.57 0 0 0 .185-.273.8.8 0 0 0 .042-.24.7.7 0 0 0-.09-.36q-.153-.28-.518-.399a1.2 1.2 0 0 0-.343-.062.8.8 0 0 0-.338.062.7.7 0 0 0-.397.45.8.8 0 0 0-.04.223.6.6 0 0 0 .015.157q.036.17.115.358a1.7 1.7 0 0 0-.504.221.8.8 0 0 0-.313.419 1.2 1.2 0 0 0-.063.347q-.005.235.102.433.184.334.693.498m.594-2.445a.23.23 0 0 1 .118-.147.2.2 0 0 1 .102-.023q.044 0 .094.017.11.036.152.123a.243.243 0 0 1 .011.186.22.22 0 0 1-.087.112.5.5 0 0 1-.162.073.4.4 0 0 1-.076.024q-.035.011-.065.016a2 2 0 0 1-.087-.23.3.3 0 0 1-.012-.087.2.2 0 0 1 .012-.064m-.742 1.349a.42.42 0 0 1 .153-.219 1 1 0 0 1 .286-.128l.368.884a.7.7 0 0 1-.24.058H34.5a.7.7 0 0 1-.203-.037.48.48 0 0 1-.284-.22.4.4 0 0 1-.055-.21.5.5 0 0 1 .021-.128m-5.457-1.642 1.259 1.922h.593V5.129h-.669v1.916l-1.259-1.916h-.593v3.234h.669zm16.39 10.195 1.186 1.803.496-.325-.828-1.259.619-.407.704 1.072.495-.325-.704-1.072.597-.392.827 1.258.495-.326-1.194-1.818-2.702 1.775zm-3.546-4.782a.93.93 0 0 0-.112.548q.02.251.13.462.109.211.317.386c.139.12.279.203.431.253a1.2 1.2 0 0 0 .475.055.94.94 0 0 0 .529-.193q.215-.173.557-.572.346-.405.481-.643a.9.9 0 0 0 .105-.55 1.22 1.22 0 0 0-.443-.848 1.3 1.3 0 0 0-.432-.252 1.2 1.2 0 0 0-.479-.056.92.92 0 0 0-.521.194 4.5 4.5 0 0 0-.562.574 4.4 4.4 0 0 0-.476.642m.525.543q0-.06.015-.111a.7.7 0 0 1 .065-.147q.047-.082.135-.195a13 13 0 0 1 .502-.588 1.5 1.5 0 0 1 .176-.164.6.6 0 0 1 .134-.087.4.4 0 0 1 .125-.035.3.3 0 0 1 .064-.006q.069 0 .144.023.105.036.2.115a.5.5 0 0 1 .192.38v.022q0 .06-.015.115a.7.7 0 0 1-.063.145 1.5 1.5 0 0 1-.135.196 9 9 0 0 1-.245.299c-.101.116-.186.214-.254.285a2 2 0 0 1-.174.167.485.485 0 0 1-.337.125.5.5 0 0 1-.335-.134.6.6 0 0 1-.146-.181.5.5 0 0 1-.048-.201zm-2.464-2.436.905.559-.7 1.139.014.01.554.341 1.694-2.753-.568-.35-.686 1.112-.907-.558.688-1.113-.57-.351-1.695 2.752.57.353zm4.488 5.458.013-.006 3.132-1.316-.46-.524-1.956.872 1.109-1.831-.459-.521-1.708 2.95zM24.604 7.845q.09.265.328.453a1.2 1.2 0 0 0 .928.244c.183-.023.339-.072.478-.149a1.2 1.2 0 0 0 .361-.314.96.96 0 0 0 .213-.522q.004-.062.005-.136-.002-.255-.05-.661a5 5 0 0 0-.151-.788.93.93 0 0 0-.335-.451 1.2 1.2 0 0 0-.427-.216 1.2 1.2 0 0 0-.499-.027q-.272.032-.479.149a1.2 1.2 0 0 0-.363.314.93.93 0 0 0-.207.516 1 1 0 0 0-.006.151q0 .254.051.652.064.52.153.785m.464-1.492a.7.7 0 0 1 .027-.158.4.4 0 0 1 .059-.116.43.43 0 0 1 .153-.14.6.6 0 0 1 .222-.072q.04-.004.082-.005a.47.47 0 0 1 .416.223.6.6 0 0 1 .066.144q.028.087.052.232a7 7 0 0 1 .096.764q.008.094.008.167 0 .04-.002.074a1 1 0 0 1-.027.156.494.494 0 0 1-.432.332.575.575 0 0 1-.232-.015.46.46 0 0 1-.183-.1.4.4 0 0 1-.087-.099.8.8 0 0 1-.063-.147 1.5 1.5 0 0 1-.055-.234 9 9 0 0 1-.104-.931zm-11.784 8.941-.94-.862.287-.315 1.368.394.008-.009.515-.561-1.515-.401a.93.93 0 0 0 .052-.509.85.85 0 0 0-.287-.496 1 1 0 0 0-.333-.208.9.9 0 0 0-.378-.059q-.194.011-.39.106a1.3 1.3 0 0 0-.357.278l-.869.951 2.388 2.184zm-1.351-1.239-.599-.547.392-.427a.47.47 0 0 1 .298-.161l.036-.001c.096 0 .181.035.263.111q.134.121.134.286a.46.46 0 0 1-.134.313zm-.277 3.292q.203-.31.203-.614a1 1 0 0 0-.01-.136q-.057-.368-.427-.611a.8.8 0 0 0-.428-.145q-.023 0-.042.002a.9.9 0 0 0-.365.107l.001-.043a.8.8 0 0 0-.062-.295.7.7 0 0 0-.287-.341.9.9 0 0 0-.507-.165.8.8 0 0 0-.2.026q-.356.093-.617.494l-.721 1.106 2.711 1.769zm-1.682-.972-.329.504-.587-.382.328-.506q.107-.163.244-.195a.3.3 0 0 1 .077-.011q.096 0 .19.062a.32.32 0 0 1 .163.278.46.46 0 0 1-.086.25m.17.832.354-.54q.107-.167.251-.196h.001a.4.4 0 0 1 .073-.008q.106 0 .209.068a.37.37 0 0 1 .178.304.43.43 0 0 1-.083.241l-.352.541zm4.956-3.77.494-.423-2.103-2.458-.509.434 2.104 2.46zm7.035-6.827.703 2.546.644-.175-.702-2.547.818-.226-.16-.57-2.277.627.156.571zm-6.703 4.465q.29.438.487.635a.98.98 0 0 0 .495.259q.124.024.243.024.364 0 .693-.219a1.23 1.23 0 0 0 .578-1.008 1 1 0 0 0-.044-.282 2.2 2.2 0 0 0-.269-.528l-.265-.394-1.035.688.31.464.478-.318.054.079q.067.102.103.215.021.076.022.148a.539.539 0 0 1-.259.443.54.54 0 0 1-.296.098.5.5 0 0 1-.243-.065.6.6 0 0 1-.121-.105 2 2 0 0 1-.153-.185 6 6 0 0 1-.22-.319c-.091-.133-.16-.245-.211-.327a1.4 1.4 0 0 1-.11-.212.6.6 0 0 1-.051-.216q0-.033.005-.066a.5.5 0 0 1 .235-.355.6.6 0 0 1 .274-.108q.03-.005.068-.004.112 0 .268.032l.016.002.131-.625-.017-.003a2 2 0 0 0-.341-.037q-.112 0-.213.019a1.5 1.5 0 0 0-.516.23 1.21 1.21 0 0 0-.563.997q0 .18.068.346c.071.172.201.405.399.697m4.297-.698-.55-1.221.969-.436.553 1.221.017-.007.592-.268-1.331-2.949-.611.275.54 1.191-.97.438-.539-1.192-.609.275 1.332 2.95zM39.29 30.295c.268 0 .483-.31.483-.31s-.216-.308-.483-.308-.482.308-.482.308.215.31.482.31m12.622-4.692c-.321-.172-.814-.4-1.521-.697-.728-.304-2.232-.784-3.791-1.2-2.174-7.956-9.446-13.803-18.088-13.803-9.681 0-17.646 7.336-18.646 16.75-.954.142-1.865.253-2.656.336-1.566.163-2.653.221-2.655.222a.12.12 0 0 0-.112.105l-.001.02c-.004.086.057.445.65.747.592.308 1.713.587 3.885.589q.368-.002.779-.013c0 10.358 8.396 18.755 18.756 18.755 10.357 0 18.755-8.397 18.755-18.755a19 19 0 0 0-.321-3.446c1.928.426 4.354.977 5.136.979a.7.7 0 0 0 .206-.024c.051-.011.126-.054.129-.142-.031-.17-.188-.237-.505-.423m.169.41c-1.225.002-6.856-1.459-7.656-1.462-1.25.008-4.063 1.552-5.524 2.501a15 15 0 0 1-1.281.75 4.896 4.896 0 0 1 2.635.946c.821.612 1.67 1.362 2.18 1.462q.037.003.081.008h.002c.726.068 2.803.582 2.738 1.811 0 0-1.446-.437-3.18-.14-.683.146-1.679.238-3.187.718-1.428.45-5.153 1.862-8.065 1.863-2.216-.002-6.693-1.277-9.277-1.496a6 6 0 0 0-.46-.021c-1.967-.002-3.656 1.032-4.501 1.043-.762 0-2.098-.13-3.406-1.1-.995-.744-1.73-1.831-1.74-2.636-.002-.269.094-.519.304-.684.148-.113.356-.136.63-.139 1.014.001 3.021.441 5.402.44 1.416 0 2.957-.154 4.486-.647.355-.114 1.423-.363 2.111-.536.182.124.374.258.588.406a.1.1 0 0 0 .065.022.13.13 0 0 0 .099-.05.12.12 0 0 0-.028-.166c-1.324-.922-1.953-1.434-4.168-1.428-1.411 0-3.475.196-6.817.597-2.169.259-3.844.36-5.135.36-2.152.001-3.242-.281-3.775-.561-.329-.173-.45-.336-.493-.434.774-.048 4.641-.319 8.057-1.075 3.877-.862 9.948-3.288 12.776-3.283 1.054-.007 2.881 1.08 4.691 2.299 1.822 1.215 3.64 2.554 4.8 3.04a.117.117 0 0 0 .153-.063.12.12 0 0 0-.063-.155c-.664-.278-1.587-.87-2.611-1.561 1.405-.665 6.279-3.591 9.768-3.589 1.659-.003 6.567 1.394 8.043 2.016.703.296 1.195.521 1.507.69q.234.125.334.203a.3.3 0 0 1 .049.043 1 1 0 0 1-.132.008" clip-path="url(#c)" transform="translate(-11.855 -14.494)scale(17.95196)"/><path fill="#fdb913" d="M42.076 31.889c1.733-.297 3.18.14 3.18.14.068-1.281-2.188-1.785-2.821-1.819 0 0 .327.68-1.436.814 0 0-.823-.019-1.16.283 0 0 1.622-.124 2.192.51z" clip-path="url(#c)" transform="translate(-11.855 -14.494)scale(17.95196)"/></svg>