<svg xmlns="http://www.w3.org/2000/svg" width="1000" height="1000" viewBox="0 0 1041.186 1042.124"><path fill="#fff" d="M1004.095 649.856c-.187-.562-.562-.936-1.124-.936l-60.296-23.22c1.124-4.307 3.37-10.112 7.49-16.104l31.085 13.67c1.123.561 2.06.749 3.183.749 2.809 0 5.43-1.498 6.929-3.933.749-1.31 3.183-5.243 5.243-10.299 2.996-8.052 3.745-15.355 1.872-21.347-1.872-6.366-6.366-11.235-13.108-14.231l-82.954-38.013s-.374-.187-.561-.374c-3.184-1.311-9.176-2.996-16.479-.562v-7.865c0-6.367-.187-13.108-.562-19.849a445 445 0 0 0-1.685-21.347c-4.868-41.945-14.606-72.842-18.538-84.078l-1.498-3.745c-16.291-45.315-29.025-81.268-28.65-124.15.187-32.395 40.634-77.71 56.176-92.504l14.606-13.857-153.362-139.88-12.171 8.053c-28.089 18.538-64.416 28.65-102.429 28.65-39.698 0-77.523-11.048-105.986-31.085l-10.674-7.49-10.673 7.49c-28.65 20.037-66.289 31.085-105.987 31.085-38.012 0-74.34-10.112-102.428-28.65l-12.172-8.052-138.568 126.397-14.794 13.482 14.419 13.857c15.542 14.793 55.99 60.11 56.364 92.504.187 42.882-12.546 78.835-28.837 124.15l-1.311 3.745c-3.933 11.236-13.857 42.133-18.539 84.078a445 445 0 0 0-1.685 21.347c-.374 6.741-.749 13.482-.749 19.85 0 2.62 0 5.242.187 7.864-7.303-2.434-13.295-.75-16.29.562h-.188c-.187.187-.375.374-.562.374l-82.954 38.013c-6.741 2.996-11.235 7.865-13.108 14.231-1.872 5.992-1.123 13.295 1.873 21.347 2.06 5.056 4.494 8.989 5.43 10.3 1.311 2.434 3.933 3.932 6.741 3.932 1.124 0 2.06-.188 3.184-.75l31.084-13.669c4.12 5.992 6.18 11.797 7.49 16.104l-60.296 23.22c-.562 0-.936.374-1.123.936-.188.562-.188.936 0 1.498l3.558 9.175c37.638 94.003 101.679 174.71 185.008 232.759 77.523 53.929 168.342 85.575 262.531 91.38l31.085 30.71c.374.374.749.562 1.31.562.375 0 .937-.188 1.311-.562l31.084-30.71c94.19-5.805 185.008-37.451 262.345-91.38 83.516-58.05 147.557-138.756 185.195-232.759l3.558-9.175c.187-.562.187-.936 0-1.498"/><path fill="#274488" d="M132.46 578.755c-2.996-7.865-3.932-15.916-2.809-23.032.187-.375.187-.936.375-1.498l.749-3.745-70.97 32.582c-4.12 1.873-6.741 4.494-7.677 8.052-2.248 7.49 2.434 17.227 4.494 21.16l.936 1.498 75.651-33.332zM908.763 578.755c2.996-7.865 3.933-15.916 2.81-23.032-.188-.375-.188-.936-.375-1.498l-.937-3.745 71.157 32.582c4.12 1.873 6.742 4.494 7.678 8.052 2.247 7.49-2.435 17.227-4.494 21.16l-.937 1.498-75.65-33.332ZM275.542 847.316l-11.048 8.801 9.55 6.18 3.745-13.483a41 41 0 0 1 1.123-4.12c-1.123.75-2.247 1.686-3.37 2.622M660.819 889.318c-5.618 1.872-7.865 8.239-4.494 17.789 3.37 10.299 8.426 13.482 14.606 11.423 5.805-1.873 8.052-7.678 4.494-17.79-3.37-10.486-8.427-13.482-14.606-11.422M704.487 872.352l-2.996 1.498 6.18 13.296c.935-.188 2.995-1.124 3.557-1.498 4.494-2.06 5.992-5.43 3.932-9.925-2.247-4.869-5.992-5.618-10.673-3.37M602.077 482.88c0-.187-8.801-2.621-15.168-3.745-7.864-1.31-12.546-1.498-14.044-1.685-1.685-.374-5.992-.374-5.805-2.809 0-1.685 1.873-2.06 3.745-2.247 2.81-.187 10.112.562 14.419 1.124 10.3 1.498 16.853 3.558 16.853 3.183v-12.92c0-.375-14.419-5.244-29.96-6.929-10.487-.936-15.356-.749-21.535-.936-1.124 0-3.558.374-3.558-1.685s2.247-2.248 2.996-2.435c7.865-.749 17.977-.936 28.463-.187 11.61.749 23.407 4.869 23.407 4.494v-13.857c-4.494-2.06-11.048-4.12-16.479-5.056-6.928-1.123-16.104-1.685-17.414-1.685s-1.873-.749-2.06-1.31c-.187-.937.374-1.686 1.685-2.06 2.06-.375 7.116-.562 13.295-.375 4.494.187 15.355 1.31 20.785 2.06l-.187-10.674c-10.299-5.43-26.215-8.052-36.515-9.55-15.542-2.434-29.773-2.809-32.207-2.809-1.311-.187-2.622-.187-2.81-1.498 0-1.123.75-2.06 2.81-2.06 1.872 0 14.044-.374 33.144 1.311 9.175.75 27.339 4.307 35.578 5.992l-.187-10.486c-9.176-4.494-23.594-7.865-44.38-10.86-25.466-3.746-74.152-2.06-76.774-1.686-3.558.187-4.12-.562-4.307-1.872s1.124-2.06 3.745-2.622c2.622-.375 35.953-3.558 62.918-2.247 20.41.936 49.81 6.741 58.798 8.426l-.187-8.239c-15.355-10.486-40.635-11.61-42.32-11.61-1.685-.187-2.809-.936-2.996-1.872s.936-1.685 2.247-1.873 5.056-.562 12.92 0c6.367.375 23.408 3.933 30.149 5.43l-.188-8.239c-11.422-6.74-37.825-10.673-58.236-12.546 0 0-2.434-.187-6.928-.374l-.375 5.43c0 1.686-1.31 2.81-2.996 2.81-11.984-.563-16.291-.563-28.275 0h-.188c-1.498 0-2.808-1.124-2.808-2.81l-.375-5.43c-10.86.374-23.594 1.31-37.826 2.809-2.06.187-4.12.749-4.306-.75-.375-.936.187-1.685 2.808-2.434 2.06-.374 30.336-4.307 37.451-5.056h1.498l-1.872-34.829c0-.749.374-1.498.749-2.247.562-.562 1.31-.936 2.06-.936 14.606-.562 19.662-.562 33.893 0 .749 0 1.498.374 2.06.936.374.562.749 1.31.749 1.872 6.554.188 13.108.562 18.35.937 11.049.562 37.077 4.307 44.006 5.243v-8.052c-1.311-.936-3.184-1.498-4.682-2.247-7.303-2.809-35.578-7.678-75.838-7.678-40.447 0-64.603 5.244-68.348 6.18-4.12 1.123-8.614 2.621-8.427 5.243l.562 91.193c-.562 6.18.187 30.71.375 36.515.187 9.55 15.167 15.542 47.937 26.965 34.268 12.546 77.524 26.028 110.106 35.016zM573.333 501.793c-6.554-1.872-9.924-2.996-16.478-5.056-.75-.187-1.31.188-1.31.937v28.463c0 .749.56 1.31 1.123 1.685 6.554 2.247 9.924 3.37 16.665 5.617.562.375 1.124-.187 1.124-.749V503.48c0-.75-.562-1.498-1.124-1.686M545.676 493.348c-6.741-2.06-9.925-2.996-16.666-5.243-.562-.187-1.123.187-1.123.749v27.714c0 .562.561 1.31 1.123 1.498 6.554 2.247 9.925 3.558 16.666 5.805.562.187 1.123 0 1.123-.75v-28.275c0-.562-.561-1.31-1.123-1.498M490.155 475.035c-6.742-2.247-9.925-3.371-16.666-5.993-.562-.187-1.124.188-1.124.75v27.151c0 .562.562 1.311 1.124 1.498 6.554 2.248 9.924 3.558 16.666 5.993.561.187 1.123-.188 1.123-.75v-27.151c0-.562-.562-1.124-1.123-1.498M585.243 274.39c-.562-.935-.937-2.059-1.686-3.557-6.553-2.434-23.032-6.554-34.829-7.678-2.247-.187-5.618-.374-5.618-2.06 0-1.497 1.311-2.06 5.056-2.06 9.55.188 24.905 2.622 31.646 3.933-1.872-4.12-4.12-8.988-6.554-14.231-12.733-4.869-36.889-6.367-41.196-6.741-4.681-.562-6.18-1.124-5.805-2.622.188-1.498 3.184-1.31 10.487-1.498 8.426-.187 26.964 1.31 32.208 1.873-1.686-3.746-3.558-7.678-5.43-11.985-7.117-4.868-20.599-5.805-24.344-5.992-3.558-.187-4.869-1.498-4.681-2.621.187-1.311 2.06-1.686 3.557-1.873 1.311 0 16.853-.187 18.164-.375.937 0 1.873-.561 1.124-1.872-1.498-3.37-2.435-5.43-4.12-8.801-2.434-1.124-5.618-2.06-8.24-2.434-2.246-.375-9.55-.75-13.294-1.124-2.06-.562-2.435-.936-2.435-1.685 0-.936.562-1.498 2.435-1.686 4.681-.374 13.295 0 15.167-.187 1.311 0 2.81-.562 2.248-1.685-.937-2.247-1.873-4.12-2.81-6.18-2.06-.936-5.242-1.498-7.864-2.06-3.37-.748-9.737-1.31-14.98-1.497-1.311 0-2.435-.75-2.435-1.498 0-.75.562-1.498 2.06-1.686 3.558-.561 11.048-.561 14.044-.749 2.435-.187 5.43-.561 4.494-2.621-1.685-3.37-2.621-5.805-4.307-8.988-2.247 0-6.179-.188-8.988-.562-1.123-.188-2.621-.375-2.621-1.311-.188-.936 1.31-1.498 2.621-2.06.936-.374 4.12-1.31 6.367-1.872-1.124-2.06-1.873-3.933-2.809-5.993-3.183-.187-8.988-.561-13.482-.561-1.873 0-2.81-.937-2.81-1.686s.375-1.31 2.435-1.685c3.37-.936 8.614-1.31 11.235-1.498-2.996-6.367-5.804-12.546-8.426-18.164-20.598 44.005-58.424 125.087-64.603 138.007 21.347-5.056 50.184-6.928 63.667-6.928 13.482 0 43.817 2.06 65.352 6.554M462.347 465.073c-6.554-2.435-9.924-3.558-16.665-6.18-.562-.187-1.124 0-1.124.75v27.526c0 .749.562 1.498 1.124 1.498 6.74 2.434 10.111 3.558 16.665 5.992.75 0 1.124-.187 1.124-.936V466.57c0-.562-.375-1.124-1.124-1.498M517.943 484.491c-6.74-2.06-9.924-3.37-16.665-5.618-.562-.187-1.124.188-1.124.75v27.151c0 .562.562 1.311 1.124 1.498 6.554 2.435 9.924 3.558 16.665 5.805.562.375 1.124 0 1.124-.561v-27.527c0-.562-.562-1.31-1.124-1.498M464.164 622.648c0-7.116-5.244-12.36-12.172-12.36-9.737 0-13.857 7.304-14.606 19.85l17.602-.562c6.554 0 9.176-2.06 9.176-6.928M643.629 609.933c-12.733 0-17.602 11.61-17.602 29.774 0 21.534 6.367 32.957 18.164 32.957s18.163-10.112 18.163-29.774c0-21.347-6.74-32.957-18.725-32.957"/><path fill="#274488" d="M563.128 331.504c1.498-.188 8.24-.188 17.04.936 6.554.936 16.104 2.996 20.411 3.932v-7.49c-8.988-3.745-29.586-7.49-40.634-8.801-6.742-.936-14.606-1.685-22.284-2.247l-1.498 29.399c3.933.187 6.554.187 6.554.187 5.056.375 10.112.562 15.168 1.124 19.474 1.872 35.766 5.617 42.881 7.115v-10.486c-11.048-9.175-36.515-9.924-38.013-9.924s-2.996-.375-2.996-1.873 1.873-1.685 3.37-1.872M443.49 301c3.371-.75 29.212-10.112 76.4-10.112 47.002 0 75.09 10.299 78.46 11.797 3.746 1.685 7.116 2.809 8.802 0 1.498-2.809-.375-6.367-2.996-8.052-10.3-6.554-46.44-14.793-84.265-14.231-38.013.187-76.026 8.613-81.269 10.86-5.43 2.06-7.677 5.244-5.992 8.24 2.809 5.056 7.49 2.434 10.86 1.498M600.953 509.995c-6.553-2.06-9.924-2.996-16.478-4.869-.749-.187-1.124.188-1.124.937-.187 12.359-.187 18.538-.187 29.586 0 .75.562 1.31 1.124 1.685 6.74 2.247 10.112 3.371 16.665 5.805.562.188 1.124-.187 1.124-.749v-30.71c0-.749-.562-1.498-1.124-1.685M510.21 356.071c8.613-.187 19.474 0 19.474 0l2.06-38.012c-8.988-.562-23.781.187-23.781.187Z"/><path fill="#274488" d="M724.879 870.574c4.681 9.924-.562 18.35-10.112 22.657-.749.375-2.809 1.311-3.558 1.498l5.992 12.734c.562 1.123.375 1.872-1.123 2.621l-6.18 2.81c-1.123.56-2.06.374-2.621-.937l-18.538-39.324c-.75-1.498-.375-2.06.936-2.809l9.924-4.494c7.116-3.37 12.734-4.307 17.602-2.434 3.371 1.498 6.18 4.307 7.678 7.678m171.713-180.327c-.562-1.124-.75-2.06 0-3.37l2.621-4.12c.562-1.124 1.311-1.311 2.435-.562l38.574 21.16c1.311.749 1.498 1.685.75 2.621l-3.746 5.805c-.749 1.498-1.872 1.498-3.37.562l-20.599-11.797h-.187l15.73 21.909c.936 1.123.561 2.06 0 2.809l-1.311 2.06c-.562 1.123-1.31 1.685-2.809 1.497l-27.34-2.996-.186.188 20.41 13.107c1.686.937 1.498 1.873.562 2.997l-2.996 4.868c-.749 1.31-1.685 1.685-2.996.75l-35.953-24.344c-1.31-1.124-1.31-1.873-.749-2.996l2.622-4.12c.936-1.498 1.685-1.685 3.183-1.498l34.455 3.558.187-.187Zm-17.415 67.037-18.538-14.98c-.936-.937-.75-1.873 0-2.81l4.307-5.242c.936-.936 1.685-1.311 2.809-.375l18.912 15.542c11.797 9.925 12.172 20.411 3.558 30.336-8.988 10.86-19.1 10.86-30.335 1.685l-18.913-15.542c-1.124-.936-.749-2.06 0-2.996l4.307-5.056c.936-1.124 1.498-1.31 2.621-.375l18.351 14.98c8.427 6.93 13.108 5.993 17.228 1.124 3.932-4.681 3.932-9.55-4.307-16.29m-53.93 24.342c-.374-1.123-.187-2.247.937-3.37l3.37-3.184c1.124-.936 1.873-.749 2.622 0l31.646 30.523c0 .187.187.187.187.187.75.937.75 1.873-.187 2.622l-5.056 4.681c-1.31 1.311-2.247.936-3.558-.562l-16.665-16.665 9.175 25.28c.562 1.31 0 2.059-.562 2.62l-1.872 1.686c-1.124.936-1.685 1.31-3.183.75l-25.654-10.113-.188.188 16.292 17.976c1.31 1.498.749 2.06-.375 3.183l-4.12 3.745c-1.123 1.124-2.06 1.311-2.996.188l-.187-.188-28.088-32.956c-1.124-1.311-.936-2.06 0-2.997l3.745-3.37c1.123-1.124 2.06-1.124 3.37-.562l32.208 12.546.188-.187Zm-20.41 68.161 2.809-1.872c.936-.75 1.872-.375 2.434.374l2.06 2.996c.562.562.562 1.498-.188 2.06l-14.23 10.486c-.937.562-1.873.375-2.435-.187l-2.06-2.996c-.749-.936-.562-1.873.187-2.434l2.622-1.873L776 829.377l-2.997 2.247c-.936.562-1.872.188-2.434-.561l-2.06-2.81c-.561-.748-.561-1.684.188-2.246l14.98-10.861c.749-.562 1.685-.562 2.247.187l2.247 2.996c.562.937.562 1.686-.374 2.435l-2.996 2.06Zm-35.204 30.148c.936 1.498.749 1.686-.375 2.435l-6.74 3.932c-1.124.749-1.312.562-2.248-.562l-19.1-31.833-10.86 6.366c-1.124.75-2.06.562-2.622-.749l-2.622-4.306c-.749-1.124-.374-1.873.75-2.435l28.836-17.04 2.997-1.872c1.123-.562 1.685-.375 2.247.374v.187l2.434 5.056c.562 1.124 0 1.873-1.31 2.622l-10.487 6.18Zm-111.604.562c13.857-4.494 24.156 3.183 28.463 16.291 5.055 14.606-.562 26.59-12.921 30.71-13.108 4.307-23.594-2.434-28.276-16.478-4.868-13.857-.187-26.216 12.734-30.523m-51.308 55.99 3.37-.562c1.124 0 1.873.561 2.06 1.498l.562 3.557c.187.937-.374 1.686-1.31 1.873l-17.415 2.996c-.937.187-1.873-.374-1.873-1.123l-.749-3.746c-.187-1.123.375-1.872 1.31-2.06l3.184-.561-5.618-32.957-3.745.562c-1.123.187-1.685-.562-1.872-1.498l-.75-3.558c0-.75.375-1.498 1.312-1.685l18.35-3.184c.937-.187 1.686.562 1.873 1.124l.562 3.745c.187 1.123-.375 1.872-1.31 2.06l-3.746.561zm-55.802-20.973c.374 2.247 3.183 3.183 4.869 3.932l8.239 2.996c5.617 1.873 9.363 5.243 9.924 11.61.75 9.737-6.74 16.104-16.104 16.853-4.494.374-9.924-.187-14.606-1.31-1.123-.188-1.498-.75-1.498-1.312 0-.374 0-.749.188-1.123l1.498-5.805c0-.562.374-1.31 1.31-1.31.188 0 .75 0 1.124.186 3.558 1.124 7.49 1.498 10.86 1.311 2.997-.187 6.367-2.06 6.18-5.43-.187-2.622-2.434-3.558-4.681-4.494l-9.363-3.558c-5.43-1.873-8.988-5.805-9.55-11.61-.749-8.614 7.678-14.419 15.73-14.98 5.055-.375 9.362.187 13.856 1.685 1.124.374 1.498.749 1.686 1.498 0 .187-.188.562-.188 1.123l-1.872 5.43c-.187.937-.562 1.124-1.124 1.312-.374 0-.749-.188-1.31-.188-2.997-.936-6.742-1.872-9.55-1.498-2.81.188-5.805 1.498-5.618 4.682M130.53 699.797l-22.845 14.044c-1.31.749-2.06.375-2.809-.749l-3.37-5.43c-.937-1.311-.937-2.06.374-2.996l37.264-22.658c1.685-.937 2.247-.375 3.183.749l2.996 4.868c.562 1.311.75 2.06.188 3.184l-12.734 31.833 23.033-14.044c1.31-.75 2.247-.375 2.809.749l3.557 5.805c.937 1.498.188 2.06-.749 2.621l-37.263 22.658c-1.498.936-2.06.562-2.81-.562l-2.995-5.055c-.75-.937-.75-2.06-.375-3.184l12.546-31.646zm20.224 67.412c.562.936.187 1.872-.562 2.434l-2.809 2.247c-.562.375-1.685.375-2.247-.187l-10.673-14.044c-.75-.937-.375-1.873 0-2.247l2.996-2.247c.936-.75 1.872-.562 2.434.187l2.06 2.621 26.777-20.598-2.247-2.808c-.749-.937-.374-1.873.375-2.435l2.996-2.06c.562-.561 1.498-.561 2.06.188l11.235 14.606c.749.749.562 1.685 0 2.247l-2.996 2.06c-.936.936-1.873.561-2.434-.188l-2.435-2.809-26.777 20.224Zm34.08 35.204c.936.936.75 1.872-.187 2.808l-3.745 3.558c-1.124.937-2.06.75-2.996-.187l-17.79-19.1c-.936-1.123-1.123-1.872.188-2.996l32.208-29.586c.936-.75 1.872-.75 2.809.187l4.68 5.056c.937 1.123 1.124 1.872 0 2.809l-26.964 24.717Zm47.376 29.96-4.494-9.175c-2.622-5.056-2.435-10.3 1.123-14.793 5.618-6.929 15.542-5.243 21.909-.187 3.745 3.183 6.554 6.553 8.801 10.673.562 1.124.562 1.685.187 2.06-.187.374-.562.562-.936.749l-5.056 2.809c-.749.374-1.31.374-1.872 0-.188-.187-.375-.562-.75-.937-1.31-2.808-3.557-5.804-5.804-7.49-2.06-1.872-5.244-2.996-7.303-.561-1.311 1.872 0 4.494.749 6.366l3.932 7.678c2.622 5.243 2.996 10.299-.936 15.167-6.18 7.678-15.917 7.116-23.407 1.311-3.37-2.809-7.116-6.928-9.55-10.86-.75-1.124-.75-1.686-.187-2.06.187-.375.561-.562.936-.75l4.869-3.183c.749-.374 1.31-.749 2.06-.187.187.374.374.562.561.936 1.873 3.183 4.494 6.18 7.116 8.427 2.247 1.872 5.992 2.996 8.239.374 1.498-2.06.749-4.307-.187-6.367m37.638 37.077-10.112-6.554-2.06-1.31-6.74 5.43c-.75.561-1.686.936-2.81.187l-6.553-4.307c-.562-.374-.562-.936-.375-1.498l.562-.562 38.013-27.9c.936-.563 1.872-.75 2.808-.188l5.993 3.932c1.31.75 1.498 1.686 1.31 2.622l-9.924 45.503c-.187.562-.187.749-.375.936-.561.75-1.123 1.124-2.06.562l-6.366-4.307c-1.498-.936-1.498-1.872-1.311-2.996l2.06-8.052zm31.272-14.419c-1.124-.749-1.311-1.498-.75-2.621l2.435-4.682c.562-.936 1.31-1.31 2.434-.561l29.774 15.355 3.183 1.685c1.124.562 1.31 1.31.75 2.06v.187l-2.997 4.681c-.936 1.124-1.872.937-2.996.188l-10.86-5.43-17.228 32.582c-.75 1.31-.937 1.498-2.247.936l-6.929-3.745c-1.31-.562-1.31-.75-.562-2.06l17.228-32.77zm51.308 58.798c.936.375 1.123 1.311.936 2.247l-1.498 3.371c-.187.75-1.124 1.31-2.06.75l-16.291-6.368c-.937-.561-1.311-1.498-1.124-2.06l1.498-3.557c.375-1.124 1.124-1.311 2.247-.936l2.81 1.123 12.733-31.084-3.371-1.311c-1.124-.562-1.31-1.498-.936-2.247l1.498-3.37c.187-.75.936-1.312 1.872-.937l17.228 6.928c.936.375 1.31 1.124 1.123 2.06l-1.498 3.37c-.562 1.124-1.31 1.312-2.247.937l-3.558-1.31-12.546 31.084zm38.761-11.984 6.742 5.618c4.494 3.932 6.74 8.613 4.868 14.606-2.809 9.362-12.171 12.546-21.16 9.924-4.307-1.31-9.175-3.745-13.108-6.554-.936-.562-1.123-1.123-.936-1.685 0-.375.375-.75.562-1.124l3.37-4.681c.375-.749.937-1.123 1.873-.936.187.187.562.187.936.749 2.996 2.06 6.367 3.932 9.738 5.056 2.808.749 6.74.374 7.677-2.81.75-2.62-.749-4.306-2.621-5.804l-7.678-6.741c-4.12-3.745-6.18-8.801-4.494-14.232 2.622-8.426 12.546-10.673 20.223-8.239 4.682 1.31 8.614 3.37 12.172 6.367.936.936 1.124 1.498.936 2.06 0 .187-.187.561-.561.749l-3.558 4.494c-.562.936-.937 1.123-1.686.936-.187-.187-.561-.374-1.123-.749-2.247-1.873-5.618-3.932-8.24-4.681-2.62-.937-5.991-.75-6.928 2.434-.562 2.06 1.686 4.12 2.996 5.243m97.373 3.558-5.43 42.881c-.188 1.686-1.124 2.06-2.247 1.873l-5.805-.75c-1.311-.186-2.247-.748-2.81-1.872l-17.04-29.399h-.187l-3.37 26.403c-.188 1.498-.937 1.873-2.247 1.686l-6.367-.75c-1.498-.187-2.247-.561-1.873-2.247l5.244-43.068c.187-1.685 1.123-2.06 2.621-1.685l5.618.561c1.498.188 2.06.75 2.621 1.873l17.04 29.586h.188l3.37-26.59c.188-1.498.937-1.873 2.247-1.685l6.742.749c1.685.187 1.685 1.31 1.685 2.434m508.21-246.428c-37.264 93.44-100.743 173.398-183.51 231.073-77.149 53.742-167.406 85.201-261.22 90.819-.562 0-.937.187-1.311.562l-30.148 29.96-30.148-29.96c-.375-.375-.75-.562-1.311-.562-93.628-5.618-184.072-37.077-261.221-90.819-82.58-57.675-146.246-137.632-183.51-231.073l-2.996-7.303 114.225-43.817c2.997-1.311 6.18-.188 7.865 2.434l.187.187c.75 1.124 2.247 3.37 4.495 5.43.936 2.997 1.872 5.993 2.996 8.802-5.993-2.247-10.3-7.865-11.985-10.3l-.374-.748a1.43 1.43 0 0 0-.937-.375h-.374l-8.052 3.183-3.558 1.498.562 1.498c.374.75.562 1.498.749 1.873 3.37 8.426 7.116 16.478 10.86 24.53.75 1.124 1.312 2.435 1.873 3.558l3.558-1.31 14.98-5.43c.937 1.872 1.873 3.557 2.622 5.242l-14.793 5.43-3.745 1.311c.562 1.124 1.123 2.247 1.872 3.371 30.148 56.926 73.217 105.8 126.585 143.25 60.67 42.133 130.891 66.288 204.67 70.97l6.366 6.18c-77.336-3.371-151.302-28.276-214.407-72.468-66.1-46.065-116.847-109.732-146.62-184.26l-.75-1.685-91.005 35.017.749 1.685c36.889 92.504 99.62 171.526 181.45 228.639 76.962 53.555 167.219 84.639 261.033 89.695l26.778 26.59 1.31 1.31 28.089-27.9c93.815-5.056 184.072-36.14 261.033-89.695 81.83-57.113 144.749-136.135 181.638-228.639l.562-1.685-91.006-35.017-.562 1.686c-29.96 74.527-80.707 138.194-146.808 184.259-63.292 44.192-137.07 69.097-214.407 72.467l6.367-6.18c73.778-4.68 143.999-28.836 204.67-70.969 53.367-37.45 96.623-86.324 126.584-143.25.749-1.124 1.31-2.247 1.872-3.37l-3.745-1.311-14.793-5.43c.75-1.686 1.685-3.371 2.434-5.244l15.168 5.43 3.558 1.311c.562-1.123 1.31-2.434 1.872-3.558 3.746-8.052 7.49-16.104 10.861-24.53.187-.375.562-1.124.75-1.873l.748-1.498-3.745-1.498-8.052-3.183h-.562c-.187 0-.561.187-.749.375l-.374.749c-1.685 2.434-5.992 8.052-11.984 10.486.936-2.996 2.06-5.992 2.996-8.988 2.06-1.873 3.745-4.307 4.494-5.43l.187-.188c1.685-2.622 4.869-3.745 7.865-2.434l114.225 43.817ZM93.267 606.17l-.936-1.498-33.893 15.168c-2.06.749-4.12 0-5.056-1.873-.749-.936-3.183-4.681-5.056-9.55-1.872-5.055-3.745-12.358-1.872-18.912 1.498-5.244 5.243-9.363 10.86-11.797l83.142-38.013c.187 0 .374-.187.562-.187 1.498-.75 4.306-1.686 7.49-1.686 2.247 0 4.681.562 7.303 1.498.187 2.435.187 4.494.374 6.741-2.621-1.498-5.243-2.434-7.865-2.434-1.685 0-3.37.375-4.868 1.124l-.562.187c-3.745 1.872-6.367 6.18-7.49 11.984-1.124 6.554 0 14.232 3.37 21.722l.562 1.498c.75 1.872-.187 3.932-2.06 4.869l-39.51 17.414 1.31 1.873c4.682 6.554 7.116 12.92 8.614 17.789l-5.618 2.247c-1.31-4.869-3.932-11.61-8.8-18.164m398.291 261.97c-71.531-5.243-139.505-29.212-198.303-70.22-52.619-36.702-95.313-85.014-125.274-141.19l14.98-5.244c.375.936.937 1.685 1.311 2.622 3.371 5.992 6.929 11.984 10.861 17.602q.563.841 1.686 2.247l.187.561c66.85 99.995 164.972 162.35 276.763 175.646Zm31.272 76.4c1.123 0 1.685.75 1.685 1.686v3.745c0 .749-.562 1.498-1.498 1.498l-17.79-.188c-1.123 0-1.685-.749-1.685-1.498v-3.745c0-1.31.75-1.685 1.686-1.685h3.37l.375-33.519-3.558-.187c-1.124 0-1.685-.749-1.685-1.685v-3.558c0-.936.561-1.685 1.498-1.685l18.538.374c1.123 0 1.685.75 1.685 1.498v3.745c0 1.124-.749 1.686-1.685 1.686h-3.745l-.562 33.518Zm335.373-293.054 14.98 5.243c-29.773 56.177-72.467 104.489-125.273 141.19-58.798 41.01-126.771 64.978-198.303 70.221l17.79-17.976c111.79-13.295 209.912-75.651 276.575-175.646l.375-.561c.561-.937 1.123-1.686 1.685-2.435 3.745-5.43 7.49-11.422 10.673-17.414.562-.937 1.124-1.686 1.498-2.622M162.177 507.86c.375-6.928.937-13.856 1.873-20.972 4.494-41.57 14.231-71.719 18.164-82.767l1.31-3.745c16.479-45.877 29.4-82.205 29.025-126.21-.187-34.268-41.945-81.456-58.05-96.81l-9.924-9.364 10.112-9.175L289.885 35.416l8.24 5.43c29.211 19.1 66.662 29.774 105.799 29.774 40.821 0 79.77-11.61 109.357-32.208l7.303-5.056 7.303 5.056C557.473 59.01 596.235 70.62 637.244 70.62c38.949 0 76.587-10.674 105.611-29.774l8.24-5.43 145.497 132.576-9.925 9.55c-16.104 15.168-57.862 62.356-58.049 96.624-.374 44.005 12.546 80.333 29.025 126.21l1.31 3.745c3.933 11.048 13.67 41.196 18.164 82.767.75 7.116 1.498 14.044 1.873 20.972.187 6.554.562 13.296.562 19.662.187 47.937-9.176 89.695-27.901 123.776-3.184 5.805-6.742 11.61-10.487 16.853-.374.749-.936 1.498-1.685 2.621l-.375.375c-65.913 98.87-162.911 160.477-273.392 173.398h-.936l-44.192 44.192-44.193-44.192h-.936c-110.48-12.92-207.666-74.527-273.58-173.398l-.187-.375c-.749-1.123-1.31-1.872-1.685-2.434a198 198 0 0 1-10.486-17.04c-18.726-34.08-28.089-75.839-27.901-123.776 0-6.366.187-13.108.561-19.662m722.992 31.647c2.81-1.124 5.43-1.686 7.49-1.686 3.184 0 5.805.937 7.49 1.686.188 0 .375.187.562.187l83.142 38.013c5.617 2.434 9.362 6.553 10.86 11.797 2.06 6.554 0 13.857-1.872 18.912-1.873 4.869-4.307 8.614-5.056 9.55-.936 1.873-3.183 2.622-4.869 1.873l-34.08-15.168-.936 1.498c-4.869 6.554-7.49 13.295-8.801 18.164l-5.43-2.247a55.3 55.3 0 0 1 8.426-17.79l1.31-1.872-39.51-17.414c-1.873-.937-2.81-2.997-2.06-4.87l.562-1.497c3.37-7.49 4.494-15.168 3.37-21.722-.936-5.805-3.745-10.112-7.49-11.984l-.374-.187q-2.529-1.125-5.056-1.124c-2.622 0-5.243.936-7.865 2.622.187-2.435.187-4.494.187-6.741M1004.076 649.8a2.26 2.26 0 0 0-.936-.937l-60.296-23.22c1.123-4.119 3.183-10.11 7.303-16.103l31.084 13.857c1.124.374 2.06.562 3.183.562 2.81 0 5.43-1.498 6.929-3.933.749-1.31 3.183-5.056 5.243-10.299 2.996-8.052 3.745-15.167 1.873-21.347-1.873-6.367-6.367-11.235-13.108-14.231l-82.954-37.826c0-.187-.188-.374-.562-.374-3.183-1.498-9.176-3.184-16.479-.75v-7.677c0-6.554-.187-13.295-.561-20.036a419 419 0 0 0-1.686-21.16c-4.868-42.132-14.605-72.842-18.725-84.077l-1.31-3.746c-16.105-45.503-29.025-81.456-28.65-124.15.186-32.395 40.633-77.898 56.176-92.69l14.606-13.858L751.844 28.113l-12.172 7.865c-28.088 18.538-64.416 28.65-102.428 28.65-39.699 0-77.524-11.048-105.987-31.085l-10.673-7.49-10.674 7.49c-28.65 20.037-66.288 31.085-105.986 31.085-38.013 0-74.34-10.112-102.429-28.65l-12.171-7.865-138.57 126.21-14.792 13.482 14.418 13.857c15.542 14.793 55.99 60.296 56.364 92.691.187 42.694-12.546 78.647-28.837 124.15l-1.311 3.746c-3.932 11.235-13.857 41.945-18.538 84.077a419 419 0 0 0-1.686 21.16c-.374 6.741-.749 13.482-.749 20.036 0 2.622 0 5.056.188 7.678-7.303-2.435-13.295-.75-16.292.749h-.187c-.187 0-.374.187-.562.374L55.816 574.15c-6.74 2.996-11.235 7.864-13.107 14.231-1.873 6.18-1.124 13.295 1.872 21.347 2.06 5.243 4.494 8.988 5.43 10.3 1.311 2.434 3.933 3.932 6.742 3.932 1.123 0 2.06-.188 3.183-.562L91.02 609.54c4.12 5.992 6.18 11.984 7.49 16.104l-60.296 23.22c-.561.187-.936.561-1.123.936-.187.562-.187 1.123 0 1.498l3.558 9.175c37.638 94.19 101.68 174.71 185.008 232.758 77.523 54.117 168.342 85.763 262.531 91.38l31.085 30.898c.374.187.749.562 1.31.562.562 0 1.124-.375 1.311-.562l31.085-30.897c94.189-5.618 185.008-37.264 262.531-91.38 83.329-58.05 147.37-138.57 185.008-232.759l3.558-9.175c.187-.375.187-.936 0-1.498"/><path fill="#274488" d="M494.799 747.322c4.12-2.434 8.426-5.43 8.426-11.235 0-5.056-3.745-8.988-8.988-8.988-5.056 0-8.988 3.745-8.988 8.8 0 5.431 4.306 8.427 9.55 11.423"/><path fill="#274488" d="M777.104 221.08c-4.868 2.995-9.924 4.119-13.482 3.37 1.123-3.933 4.494-8.24 9.363-11.423 4.681-2.996 9.924-4.12 13.482-3.37-1.123 4.12-4.494 8.426-9.363 11.422m-9.55 17.602c-4.681 3.184-9.737 4.307-13.482 3.37 1.123-3.932 4.494-8.238 9.363-11.234 4.868-3.184 9.924-4.307 13.67-3.371-1.311 3.932-4.682 8.24-9.55 11.235m-9.176 15.542c-5.43 1.124-10.674.188-13.857-2.06 2.247-3.183 6.928-5.992 12.359-7.115 5.43-1.124 10.486-.187 13.67 2.06-2.248 3.183-6.742 5.992-12.172 7.115m-4.307 424.32c-5.056 0-10.112.188-12.92.188 1.497-8.427 2.06-18.164 2.06-29.587v-13.67c0-8.987-.75-19.661-13.67-19.661-4.495 0-8.989 1.873-12.547 5.243-3.932 3.932-5.055 7.303-5.055 17.04v11.048c0 14.419.936 23.033 3.183 29.587-2.434 0-7.49-.188-12.359-.188-5.243 0-10.112.188-12.733.188 1.31-8.427 1.872-18.164 1.872-29.587v-19.1c0-7.677-.749-19.1-3.37-27.339 6.928 0 16.478 0 23.22-.562l-.562 13.483 6.366-5.43c7.678-6.367 13.857-9.176 21.722-9.176 17.976 0 24.156 10.299 24.156 27.9v20.224c0 14.419.936 23.033 3.183 29.587-2.622 0-7.677-.188-12.546-.188m-111.604 2.622c-24.156 0-38.387-14.044-38.387-38.387 0-23.969 14.606-41.57 41.945-41.57 24.343 0 38.2 13.856 38.2 37.637 0 26.029-16.291 42.32-41.758 42.32m-40.073-77.15c-.561 2.248-2.247 8.615-3.183 11.236-5.992-.562-9.55-.749-13.67-.749h-6.928c-.187 5.243-.375 11.423-.375 15.917v17.602c0 11.797 1.311 20.598 11.61 20.598 3.184 0 5.805-.75 9.925-2.809.749-.374 2.247-.374 1.685 1.873-.936 3.37-1.872 6.554-2.809 10.486-9.363 2.434-13.295 2.996-18.164 2.996-13.482 0-22.096-5.618-22.096-24.718v-23.781c0-7.49 0-13.108-.187-18.351-4.12 0-8.614.562-10.673.936-.375 0-1.498 0-.937-1.685 0-.562 2.06-7.678 2.81-10.112 1.872.187 5.617.375 9.362.375 0-6.18-.375-9.363-.562-14.044 5.43-1.686 15.355-6.18 19.662-8.801 1.685-1.124 2.434.374 2.247 2.06-.187 1.872-1.31 6.928-1.498 20.785h10.86c3.746 0 7.865-.188 11.798-1.124.749-.187 1.498.187 1.123 1.31M571.873 784.53c-10.3 0-17.415-6.18-17.415-15.168 0-7.677 4.681-11.984 12.546-16.478-4.869-2.996-9.737-6.929-9.737-14.232 0-8.426 7.303-15.167 16.666-15.167 8.988 0 15.729 5.805 15.729 13.67 0 7.302-5.056 11.047-10.486 14.043 6.554 3.745 12.359 8.24 12.359 16.292 0 9.924-8.24 17.04-19.662 17.04m-42.507-2.06-.187.375h-.375s-6.741 0-10.673.374h-.188l-.749-1.498 28.838-49.248h-18.164c-2.809 0-6.367.374-9.363 2.621l-.374.188-1.311-.75.187-.374c.936-2.621 1.685-7.116 2.06-8.8v-.375h34.267l.562-.188v.562c0 .75.562 4.494.75 5.243l.187.188-.188.187c-4.494 5.056-9.737 14.418-14.418 22.658-7.49 13.67-10.3 21.16-10.861 28.837m-12.92-103.74c-2.435 0-7.491-.187-12.172-.187-4.869 0-9.738.188-12.734.188 1.498-8.801 1.873-16.479 1.873-27.527V632.48c0-7.303-.562-20.786-3.183-29.025 5.804 0 14.98-.187 21.16-.562l-.188 17.79 5.618-7.303c6.928-9.363 11.797-12.172 19.1-12.172 2.621 0 3.932.187 6.741 1.498a1513 1513 0 0 0-5.805 20.973c-.374.936-1.31 2.434-2.622.749-2.996-3.184-3.557-4.494-7.115-4.494-4.494 0-8.052 2.434-10.674 6.74-2.247 3.559-2.996 6.555-2.996 13.858v12.546c0 13.482.75 19.1 2.996 25.654M492.29 783.406c-10.299 0-17.414-6.366-17.414-15.167 0-7.678 4.868-11.985 12.546-16.666-4.869-2.809-9.738-6.929-9.738-14.044 0-8.614 7.303-15.168 16.853-15.168 8.989 0 15.543 5.805 15.543 13.67 0 7.303-5.056 11.048-10.487 14.044 6.554 3.558 12.36 8.052 12.36 16.104 0 9.924-8.24 17.227-19.663 17.227m-25.466-1.498c-.937-.187-2.81-.374-4.682-.374-1.498 0-2.996.187-4.868.374h-.75l.188-.562c.749-4.68.936-9.362.936-14.605v-26.59c0-7.49-.562-8.24-2.996-8.24-.562 0-1.685.187-2.996.375l-4.12.936c-1.31.374-2.06.562-2.996 1.123h-.187l-1.123-.936.187-.374c.562-1.124 1.31-2.996 1.685-4.682l.187-.374h.188c2.247-.187 3.745-.375 6.179-.937l8.801-1.872c1.685-.375 3.558-.75 5.056-1.31h.187l1.124.935-.188.188c-.749 5.056-.936 10.673-.936 13.857v28.837c0 5.805.562 10.486 1.498 13.482l.187.75zm-50.746-140.067c0-23.968 15.167-40.447 37.076-40.447 19.1 0 30.897 11.236 30.897 29.587 0 1.498 0 8.239-2.809 8.239h-19.474c-8.052 0-19.288.187-24.343.374.374 18.351 10.111 28.838 26.59 28.838 6.554 0 10.486-1.498 15.917-5.056 1.31-.937 2.808-.187 2.06 2.247a603 603 0 0 1-3.184 11.235c-6.928 2.434-15.917 4.682-23.969 4.682-23.781 0-38.761-16.104-38.761-39.699m-23.033 21.16c-2.247 5.43-3.37 9.55-4.681 15.73-1.686-.188-5.243-.188-8.801-.188-2.996 0-6.929.188-9.737.188-1.124-6.742-2.435-10.861-4.682-17.79l-10.112-30.897c-3.183-9.362-6.74-19.474-13.482-27.339 10.112.375 17.976 0 27.714-.749a108.4 108.4 0 0 0 4.494 21.909l5.618 19.474c1.498 4.682 4.494 14.98 4.494 14.98.936-3.37 2.247-6.74 3.37-9.55l8.801-23.032c1.498-4.12 3.558-10.299 4.12-16.478 0-2.06.187-4.12 0-6.741 2.247.187 6.18.187 9.55.187 2.996 0 8.052-.374 10.299-.749 2.247-.187 1.872 1.124 1.123 1.873-5.243 6.74-9.55 15.916-13.482 25.28zm-46.065-.187c-1.123 3.745-4.306 15.542-4.681 16.666-17.227-.75-28.65-.75-38.762-.75h-27.9c1.123-8.051 2.059-17.414 2.059-29.024v-48.124c0-7.865-.374-22.658-2.996-29.587 5.056.375 8.8.375 12.546.375h28.837c10.3 0 14.419-.375 25.654-.375-2.06 7.303-4.12 14.98-5.056 17.977-.749 2.996-2.434.749-2.621.374-4.682-6.928-14.044-7.677-22.658-7.677-2.809 0-5.992.187-9.925.187-.187 2.622-.561 9.925-.561 16.666v15.542h12.733c9.363 0 18.726-.75 22.47-1.31 1.499 0 1.124 1.123 1.124 1.123-1.123 4.307-2.621 9.737-3.558 13.295-9.924-.936-15.167-1.124-22.096-1.124h-10.86v21.722c0 14.044 1.497 18.725 18.35 18.725 9.363 0 14.606 0 24.905-7.677 1.686-1.498 3.933-.75 2.996 2.996m-76.4-415.706c3.184-2.247 8.427-3.184 13.857-2.06 5.43 1.123 9.925 3.932 12.359 7.116-3.37 2.247-8.426 3.183-13.857 2.06-5.43-1.124-9.924-3.933-12.359-7.116m-6.366-19.662c3.745-.936 8.8.187 13.482 3.37 4.869 2.997 8.24 7.303 9.363 11.236-3.558.936-8.614-.187-13.483-3.37-4.681-2.997-8.239-7.304-9.362-11.236m-9.55-17.79c3.745-.748 8.8.375 13.67 3.371 4.868 3.184 8.238 7.49 9.362 11.423-3.745.749-8.801-.375-13.67-3.37-4.681-2.997-8.052-7.304-9.362-11.423m2.247-42.133c3.558 1.498 7.303 5.43 9.924 10.861 2.622 5.43 3.558 11.048 2.622 15.168-3.558-1.498-7.303-5.43-9.925-10.861-2.621-5.43-3.558-11.048-2.621-15.168m10.673-14.418c2.81 2.621 5.43 7.677 6.367 13.67.936 6.179 0 11.796-1.873 15.354-2.996-2.621-5.43-7.677-6.366-13.67-.937-6.179-.188-11.796 1.872-15.354m5.618-3.37c.187-6.368 2.247-11.61 4.869-14.607 2.247 3.37 3.745 8.801 3.37 15.168-.374 5.992-2.247 11.235-4.869 14.231-2.247-3.183-3.745-8.8-3.37-14.793m6.18 48.874c2.808 2.621 5.242 7.677 6.179 13.67.936 6.179.187 11.796-1.873 15.354-2.996-2.621-5.43-7.677-6.366-13.857-.75-5.992 0-11.61 2.06-15.167m-5.618 14.606c-3.745-.75-8.24-3.746-11.797-8.427-3.558-4.869-5.43-10.112-5.244-14.231 3.746.561 8.24 3.558 11.61 8.239 3.558 4.869 5.43 10.112 5.43 14.419m-2.434-14.42c-.561-3.744.375-8.613 2.996-13.294s6.18-8.052 9.363-9.176c.75 3.745-.374 8.801-2.996 13.483-2.434 4.681-6.18 8.052-9.363 8.988m11.797-35.391c3.746-3.37 8.052-5.243 11.423-5.056-.562 3.745-2.996 8.052-6.928 11.61-3.746 3.37-8.052 5.243-11.423 5.056.562-3.746 2.996-8.052 6.928-11.61m5.056-19.85c3.184-5.055 7.303-8.426 10.861-9.55.562 4.308-.936 9.925-4.12 14.794-2.996 5.243-7.302 8.614-10.86 9.55-.375-4.12.936-9.737 4.12-14.793m10.86 105.986c-3.558-1.498-7.116-5.43-9.737-10.86-2.622-5.431-3.184-11.236-2.247-15.168 3.37 1.498 7.115 5.43 9.737 10.86 2.434 5.618 3.183 11.236 2.247 15.168m11.984 9.55c-2.621 3.183-7.303 5.618-12.733 6.367-5.618.749-10.673-.562-13.67-2.996 2.435-2.996 7.303-5.43 12.734-6.18 5.43-.749 10.486.375 13.67 2.809m4.868-10.112c4.494 3.558 7.678 8.052 8.614 11.985-3.745.749-8.614-.75-13.295-4.307-4.682-3.184-7.865-7.865-8.801-11.985 3.745-.561 8.613.937 13.482 4.307m10.674 14.793c.187 0 .187.188.187.188 1.498.749 2.996 1.31 4.494 2.06 0 0 1.685-1.124 4.869-2.248 3.183-1.31 7.49-1.685 11.984-.374 5.43 1.31 9.737 4.307 11.984 7.677-3.183 2.06-8.239 2.622-13.857 1.311-5.056-1.31-9.362-4.12-11.61-7.303-.748.562-1.31 1.124-2.06 1.685 5.806 3.558 10.487 8.052 15.168 14.045-1.872 2.808-2.621 4.306-4.494 7.115-3.558-7.864-7.115-14.231-11.984-19.661-5.056 5.43-9.363 11.984-12.733 19.661-1.873-2.809-2.81-4.12-4.494-6.928 4.494-5.992 9.737-10.674 15.729-14.232-.562-.561-1.31-1.123-1.873-1.872-2.434 3.37-6.554 6.18-11.797 7.49-5.43 1.31-10.673.75-13.857-1.31 2.06-3.371 6.554-6.367 11.985-7.678 4.681-1.31 8.988-.936 12.171.374zm19.661-14.793c4.682-3.37 9.55-4.868 13.295-4.307-.936 4.12-4.12 8.801-8.613 11.985-4.682 3.558-9.738 5.056-13.295 4.307.749-3.933 3.932-8.427 8.613-11.985m18.539 7.303c5.43.75 10.111 3.184 12.733 6.18-3.183 2.434-8.24 3.745-13.857 2.996-5.43-.75-10.112-3.184-12.546-6.367 2.996-2.434 8.052-3.558 13.67-2.809m.561-21.909c2.622-5.43 6.18-9.362 9.738-10.86.936 3.932.187 9.737-2.435 15.167-2.434 5.43-6.18 9.363-9.737 10.861-.749-3.932-.187-9.55 2.434-15.168m-2.434-100.368c3.745 1.123 7.865 4.494 11.048 9.55 2.996 5.056 4.494 10.673 3.932 14.793-3.557-.936-7.677-4.307-10.86-9.55-3.184-4.869-4.494-10.486-4.12-14.793m23.032 41.009c-3.37.187-7.677-1.686-11.61-5.056-3.932-3.558-6.366-7.865-6.928-11.61 3.37-.187 7.678 1.685 11.61 5.056 3.932 3.558 6.367 7.864 6.928 11.61m-2.06-39.886c2.81 2.996 4.682 8.24 4.87 14.606.561 5.992-.937 11.61-3.184 14.793-2.622-2.996-4.681-8.239-5.056-14.231-.187-6.367 1.124-11.797 3.37-15.168m10.674 17.977c2.06 3.558 2.809 9.175 1.873 15.355-.937 5.992-3.558 11.048-6.367 13.67-2.06-3.559-2.809-9.176-1.872-15.356.936-5.992 3.37-11.048 6.366-13.67m10.486 14.42c.937 4.119.188 9.737-2.434 15.167-2.621 5.43-6.554 9.363-9.924 10.86-.937-4.119-.188-9.737 2.434-15.167s6.367-9.363 9.924-10.86M384.43 224.45c1.124-3.933 4.495-8.24 9.363-11.423 4.869-2.996 9.737-4.12 13.483-3.37-1.124 4.12-4.495 8.426-9.363 11.422-4.869 2.996-9.925 4.12-13.483 3.37m-1.685-25.84c1.873 3.557 2.809 9.175 1.873 15.167-.937 6.18-3.37 11.236-6.367 13.857-1.873-3.558-2.809-9.175-1.873-15.355.937-5.992 3.371-11.048 6.367-13.67m10.86.188c3.559-4.681 7.866-7.678 11.61-8.24.188 4.12-1.685 9.363-5.242 14.232-3.558 4.681-7.865 7.678-11.61 8.427 0-4.307 1.685-9.55 5.243-14.42m-2.809 0c-3.37-.935-6.928-4.306-9.55-8.987-2.621-4.682-3.558-9.738-2.996-13.483 3.183 1.124 6.741 4.494 9.363 9.176 2.621 4.681 3.745 9.55 3.183 13.295m.562 48.312c-2.247 3.183-6.741 5.992-12.359 7.115-5.43 1.124-10.486.188-13.67-2.06 2.247-3.183 6.742-5.992 12.36-7.115 5.43-1.124 10.486-.187 13.669 2.06m-2.996-8.427c-4.682 3.184-9.925 4.307-13.483 3.37 1.124-3.932 4.495-8.238 9.363-11.234 4.869-3.184 9.925-4.307 13.483-3.371-1.124 3.932-4.495 8.24-9.363 11.235m46.626 43.443 76.775-163.099c-2.809-6.18 1.872-13.857 7.865-13.857 5.992 0 11.61 7.678 8.8 13.67l77.337 162.163c13.108 6.367 18.913 14.419 18.164 19.849-.562 5.805-4.682 9.363-9.55 11.235.374 29.4-.937 133.7-.562 193.247 6.554 1.499 6.554 8.427 5.992 30.898-.374 21.534 1.498 28.837-12.733 28.837-1.873 0-5.618-.187-5.618-.187v-7.303c-.187-3.745-.187-4.869-2.247-5.618-5.992-2.434-12.359-4.494-19.287-7.303-4.869-1.685-151.302-54.117-151.302-54.117s-6.742-1.872-6.742-8.426c0-.562-.187-6.18-.187-8.052v-20.973c0-5.43 3.558-7.303 6.741-6.928.188 0 .188-.562.188-.936-.188-19.288-.375-120.218-.375-130.892-6.741-2.06-8.614-6.74-8.614-6.74-3.183-6.93.188-17.416 15.355-25.468m212.535-69.097c4.681 3.184 8.239 7.49 9.363 11.423-3.746.749-8.801-.375-13.483-3.37-4.868-2.997-8.426-7.304-9.55-11.423 3.745-.75 8.801.374 13.67 3.37M636.1 167.524c3.558 1.498 7.303 5.43 9.925 10.861 2.621 5.43 3.558 11.048 2.621 15.168-3.558-1.498-7.303-5.43-9.924-10.861-2.622-5.43-3.558-11.048-2.622-15.168m10.674-14.418c2.996 2.621 5.43 7.677 6.366 13.67.937 6.179.188 11.796-1.872 15.354-2.996-2.621-5.43-7.677-6.367-13.67-.936-6.179-.187-11.796 1.873-15.354m5.617-3.37c.375-6.368 2.247-11.61 4.87-14.607 2.433 3.37 3.744 8.801 3.37 15.168-.375 5.992-2.247 11.235-4.869 14.231-2.434-3.183-3.745-8.8-3.37-14.793m9.737 13.67c3.932-3.37 8.239-5.243 11.797-5.056-.75 3.745-3.184 8.052-6.929 11.61-3.932 3.37-8.426 5.243-11.797 5.056.562-3.746 3.184-8.052 6.929-11.61m5.243-19.85c3.183-5.055 7.303-8.426 10.86-9.55.562 4.308-.936 9.925-3.932 14.794-3.37 5.243-7.303 8.614-11.048 9.55-.374-4.12.937-9.737 4.12-14.793m10.86 105.986c-3.557-1.498-7.302-5.43-9.737-10.86-2.621-5.431-3.37-11.236-2.434-15.168 3.558 1.498 7.303 5.43 9.737 10.86 2.622 5.618 3.37 11.236 2.435 15.168m-14.606-4.494c5.43 1.123 9.924 3.932 12.171 7.116-3.183 2.247-8.239 3.183-13.67 2.06-5.43-1.124-9.924-3.933-12.358-7.116 3.37-2.247 8.426-3.184 13.857-2.06m2.809-2.996c-3.746.936-8.801-.187-13.67-3.37-4.869-2.997-8.24-7.304-9.363-11.236 3.745-.936 8.801.187 13.483 3.37 4.868 2.997 8.239 7.303 9.55 11.236m-7.865-43.443c2.996 2.621 5.43 7.677 6.18 13.67.936 6.179.187 11.796-1.873 15.354-2.996-2.621-5.43-7.677-6.18-13.857-.936-5.992-.187-11.61 1.873-15.167m-5.805 14.606c-3.558-.75-8.052-3.746-11.61-8.427-3.558-4.869-5.43-10.112-5.243-14.231 3.745.561 8.052 3.558 11.61 8.239 3.558 4.869 5.43 10.112 5.243 14.419m-2.247-14.42c-.562-3.744.374-8.613 2.996-13.294s6.18-8.052 9.55-9.176c.562 3.745-.562 8.801-3.183 13.483-2.622 4.681-6.18 8.052-9.363 8.988m39.51 60.296c-2.434 3.183-7.115 5.618-12.545 6.367-5.618.749-10.487-.562-13.67-2.996 2.622-2.996 7.116-5.43 12.733-6.18 5.43-.749 10.487.375 13.483 2.809m5.056-10.112c4.494 3.558 7.677 8.052 8.613 11.985-3.745.749-8.613-.75-13.295-4.307-4.681-3.184-7.864-7.865-8.8-11.985 3.744-.561 8.8.937 13.482 4.307m14.98 17.04c1.31-.749 2.809-1.31 4.307-2.06.187 0 .187-.187.374-.187 3.371-1.31 7.678-1.685 12.172-.374 5.43 1.31 9.924 4.307 12.172 7.677-3.371 2.06-8.614 2.622-13.857 1.311s-9.55-4.12-11.797-7.49c-.75.749-1.311 1.31-2.06 1.872 6.18 3.558 11.422 8.24 15.916 14.232-1.872 2.809-2.621 4.12-4.494 6.928-3.37-7.677-7.677-14.231-12.733-19.661-4.869 5.43-8.614 11.797-12.172 19.661-1.685-2.809-2.621-4.307-4.306-7.115 4.494-5.993 9.175-10.487 14.98-14.045-.562-.561-1.31-1.123-1.873-1.685-2.434 3.184-6.554 5.992-11.797 7.303-5.43 1.31-10.486.75-13.857-1.31 2.248-3.371 6.554-6.367 11.985-7.678 4.494-1.31 8.8-.936 12.171.374 2.996 1.124 4.869 2.247 4.869 2.247m15.355-17.04c4.681-3.37 9.55-4.868 13.295-4.307-.936 4.12-4.12 8.801-8.614 11.985-4.681 3.558-9.737 5.056-13.482 4.307.936-3.933 4.12-8.427 8.8-11.985m18.54 7.303c5.43.75 10.11 3.184 12.545 6.18-2.996 2.434-8.052 3.745-13.482 2.996-5.618-.75-10.3-3.184-12.733-6.367 2.996-2.434 8.052-3.558 13.67-2.809m.56-21.909c2.623-5.43 6.18-9.362 9.738-10.86.936 3.932.187 9.737-2.247 15.167-2.621 5.43-6.367 9.363-9.737 10.861-1.124-3.932-.375-9.55 2.247-15.168m-2.434-100.368c3.745 1.123 7.864 4.494 11.048 9.55 3.183 5.056 4.494 10.673 4.12 14.793-3.746-.936-7.865-4.307-11.049-9.55-3.183-4.869-4.494-10.486-4.12-14.793m23.033 41.009c-3.37.187-7.677-1.686-11.61-5.056-3.932-3.558-6.366-7.865-6.928-11.61 3.37-.187 7.677 1.685 11.61 5.056 3.932 3.558 6.366 7.864 6.928 11.61m-1.873-39.886c2.622 2.996 4.495 8.24 4.87 14.606.186 5.992-1.124 11.61-3.372 14.793-2.808-2.996-4.68-8.239-4.868-14.231-.375-6.367.936-11.797 3.37-15.168m10.487 17.977c1.872 3.558 2.809 9.175 1.872 15.355-.936 5.992-3.558 11.048-6.366 13.67-2.06-3.559-2.81-9.176-1.873-15.356.936-5.992 3.37-11.048 6.367-13.67m-.937 45.69c3.558-4.68 7.865-7.677 11.61-8.238.188 4.12-1.685 9.362-5.243 14.231-3.558 4.681-7.865 7.678-11.61 8.427-.187-4.307 1.686-9.55 5.243-14.42m-8.988 14.981c-.936 6.18-3.37 11.236-6.366 13.857-1.873-3.558-2.81-9.175-1.873-15.355.936-5.992 3.37-11.048 6.367-13.67 1.872 3.558 2.808 9.176 1.872 15.168m-3.37-23.968c-2.622-4.682-3.558-9.738-2.996-13.483 3.183 1.124 6.74 4.494 9.362 9.176 2.622 4.681 3.745 9.55 2.996 13.295-3.183-.936-6.74-4.307-9.362-8.988m23.781-22.284c.936 4.12.187 9.738-2.622 15.168-2.621 5.43-6.366 9.363-9.737 10.86-.936-4.119-.187-9.737 2.434-15.167s6.367-9.363 9.925-10.86m93.628.561L749.952 51.613C719.804 71.275 680.481 83.26 637.225 83.26c-45.129 0-86.138-13.108-116.66-34.455-30.523 21.347-71.532 34.455-116.66 34.455-43.256 0-82.58-11.985-112.54-31.647L163.282 168.086s61.794 58.61 62.169 105.986c.187 47.563-13.857 85.95-31.272 134.45-6.366 18.163-13.857 46.813-17.414 79.958-.75 6.366-1.499 13.295-1.873 20.223-.375 6.18-.375 12.546-.562 18.913-.187 39.323 6.554 81.269 26.403 117.596 2.996 5.43 6.18 10.674 9.737 15.73 10.3 14.793 94.002 153.361 271.708 171.525l.749.562 37.638 37.638 37.825-37.638.562-.562C736.657 814.303 820.36 675.735 830.66 660.941c3.558-5.055 6.929-10.299 9.738-15.729 19.849-36.327 26.59-78.273 26.403-117.596 0-6.367-.188-12.734-.562-18.913-.375-6.928-1.124-13.857-1.686-20.223-3.745-33.145-11.048-61.795-17.602-79.958-17.227-48.5-31.458-86.887-31.084-134.45.187-47.375 61.982-105.986 61.982-105.986"/><path fill="#274488" d="M574.326 748.502c4.12-2.434 8.426-5.43 8.426-11.235 0-5.056-3.745-8.989-8.988-8.989-5.056 0-8.801 3.745-8.801 8.801 0 5.43 4.12 8.427 9.363 11.423M571.873 755.674c-6.929 3.37-10.3 7.865-10.3 13.295 0 5.992 4.495 10.486 10.862 10.486 6.366 0 11.235-4.494 11.235-10.486 0-5.805-3.933-8.988-11.797-13.295M492.327 754.513c-6.929 3.37-10.3 7.865-10.3 13.295 0 5.992 4.495 10.486 10.862 10.486 6.366 0 11.235-4.681 11.235-10.486s-3.932-8.988-11.797-13.295"/></svg>