<svg enable-background="new 0 0 340.231 452.801" height="1000" viewBox="0 0 1241.1967 1241.1968" width="1000" xmlns="http://www.w3.org/2000/svg"><g transform="matrix(2.604101 0 0 2.604101 177.59783 31.029909)"><path d="M 332.744 21.319 C 332.214 21.191 257.846 .033 170.877 0 C 170.622 0 170.371 .011 170.115 .011 C 169.858 .011 169.608 0 169.353 0 C 82.385 .033 8.018 21.191 7.488 21.319 C 3.06 22.573 0 26.621 0 31.233 v 237.459 l .188 1.916 c .204 1.561 23.121 118.723 165.77 181.331 c 1.314 .572 2.729 .861 4.144 .861 c .005 0 .009 -.004 .015 -.004 c .005 0 .009 .004 .014 .004 c 1.415 0 2.829 -.289 4.144 -.861 c 142.648 -62.608 165.565 -179.771 165.77 -181.331 l .188 -1.916 V 31.233 c -.002 -4.612 -3.062 -8.66 -7.489 -9.914 z" fill="#fff"/><path d="M 331.093 27.061 C 330.871 27.003 255.831 6.121 170.116 5.979 C 84.4 6.121 9.361 27.005 9.139 27.061 C 7.261 27.577 5.974 29.275 5.974 31.224 v 237.468 l .071 .809 c .085 .645 22.17 115.479 162.33 176.971 c .553 .241 1.148 .364 1.741 .364 c .592 0 1.187 -.123 1.74 -.364 c 140.16 -61.492 162.245 -176.326 162.33 -176.971 l .071 -.809 V 31.224 c 0 -1.949 -1.287 -3.647 -3.164 -4.163 z"/><path d="M 170.116 14.645 C 134.819 14.687 101.377 18.33 74.32 22.54 v 349.19 c 22.687 23.636 53.646 47.273 95.796 66.038 c 42.149 -18.765 73.108 -42.402 95.795 -66.038 V 22.539 c -27.057 -4.21 -60.499 -7.852 -95.795 -7.894 z" fill="#fff"/><path d="m 123.25 337.89 c -13.207 -13.197 -19.275 -28.896 -19.267 -44.62 v 0 c 0 -18.75 8.566 -37.491 23.485 -52.4 v 0 c 11.698 -11.692 25.718 -19.47 40.277 -22.303 v 0 l -20.354 -20.345 c -5.449 5.443 -26.465 26.413 -34.299 34.247 v 0 h .095 l -3.196 3.159 l -1.126 1.094 c -.748 .634 -1.893 1.22 -3.197 1.2 v 0 c -1.477 .096 -3.032 -.704 -4.03 -1.845 v 0 L 90.484 224.802 c -1.106 -.971 -1.958 -2.484 -1.863 -4.002 v 0 c -.024 -1.315 .576 -2.461 1.334 -3.345 v 0 l 77.271 -77.238 l -17.019 -16.995 c -5.439 5.435 -26.465 26.413 -34.304 34.256 v 0 h .076 l -3.179 3.146 l -1.135 1.103 c -.729 .609 -1.864 1.234 -3.203 1.211 v 0 c -1.48 .095 -3.008 -.714 -4.017 -1.851 v 0 l -11.168 -11.28 c -1.083 -.971 -1.943 -2.464 -1.858 -3.997 v 0 c -.024 -1.32 .577 -2.464 1.343 -3.35 v 0 l 86.34 -86.297 c 1.77 -1.831 4.263 -2.966 7 -2.966 v 0 c 2.715 -.014 5.143 1.102 6.859 2.89 v 0 l 57.453 57.458 c .634 .757 1.225 1.901 1.202 3.207 v 0 c .094 1.467 -.695 3.022 -1.821 4.021 v 0 l -.544 .539 h -.023 c -.327 .303 -.771 .748 -1.306 1.271 v 0 c -1.093 1.083 -2.545 2.526 -3.997 3.979 v 0 c -2.904 2.89 -5.79 5.774 -5.799 5.774 v 0 l -1.315 1.297 l -48.508 -48.523 l -22.047 22.065 l 81.34 81.35 c .645 .762 1.235 1.916 1.211 3.211 v 0 c .095 1.471 -.695 3.018 -1.831 4.03 v 0 l -12.951 12.871 l -48.521 -48.522 l -22.058 22.047 l 40.051 40.05 c 7.406 3.169 14.507 7.938 20.992 14.438 v 0 c 12.502 12.647 19.593 27.875 19.603 43.044 v 0 c 0 10.988 -3.746 21.893 -11.688 31.55 v 0 l -1.296 1.58 l -18.93 -18.944 l .729 -1.229 c 3.534 -5.988 5.597 -12.133 5.587 -18.207 v 0 c -.01 -7.261 -2.862 -14.541 -10.053 -21.749 v 0 c -7.733 -7.715 -16.148 -10.818 -24.725 -10.837 v 0 c -12.999 -.023 -26.508 7.417 -37.155 18.088 v 0 c -10.671 10.639 -18.103 24.162 -18.079 37.166 v 0 c .011 8.576 3.123 16.995 10.828 24.71 v 0 c 6.532 6.523 13.793 9.3 21.226 9.31 v 0 c 8.457 0 17.202 -3.689 24.961 -10.09 v 0 l 1.291 -1.05 l 18.646 18.646 l -1.461 1.301 c -11.911 10.567 -25.77 15.988 -39.606 15.988 v 0 c -14.6 0 -29.113 -6.032 -41.117 -18.037 z"/><path d="m 175.527 221.116 l -3.693 .497 c -14.919 2.048 -29.603 9.702 -41.753 21.863 v 0 c -14.343 14.322 -22.416 32.179 -22.416 49.794 v 0 c .014 14.777 5.633 29.431 18.183 42.009 v 0 c 11.418 11.396 24.933 16.953 38.519 16.962 v 0 c 12.308 0 24.72 -4.593 35.685 -13.784 v 0 l -13.52 -13.527 c -7.946 6.183 -16.952 9.876 -25.996 9.886 v 0 c -8.377 .01 -16.713 -3.24 -23.826 -10.387 v 0 c -8.334 -8.301 -11.931 -17.823 -11.911 -27.316 v 0 c .019 -14.427 8.042 -28.651 19.162 -39.767 v 0 c 11.121 -11.121 25.339 -19.147 39.757 -19.172 v 0 c 9.489 -.009 19.015 3.581 27.326 11.911 v 0 c 7.744 7.725 11.153 16.083 11.135 24.36 v 0 c 0 6.466 -2.043 12.805 -5.383 18.831 v 0 l 14.03 14.034 c 6.556 -8.632 9.578 -18.064 9.578 -27.615 v 0 c .01 -14.001 -6.569 -28.348 -18.522 -40.448 v 0 c -6.258 -6.271 -13.079 -10.808 -20.15 -13.793 v 0 l -.354 -.15 l -43.145 -43.14 l 27.274 -27.255 l 48.521 48.517 l 10.354 -10.269 c .88 -1.021 .647 -.61 .743 -1.419 v 0 c -.02 -.369 -.038 -.421 -.251 -.729 v 0 l -83.833 -83.831 l 27.265 -27.274 l 48.526 48.536 c 2.81 -2.806 9.271 -9.263 10.369 -10.283 v 0 c .869 -.998 .643 -.596 .732 -1.405 v 0 c -.019 -.369 -.028 -.421 -.25 -.748 v 0 L 190.334 58.665 c -1.116 -1.135 -2.507 -1.773 -4.229 -1.788 v 0 c -1.717 0 -3.254 .705 -4.371 1.863 v 0 l -86.245 86.193 c -.345 .454 -.363 .524 -.388 .875 v 0 c .085 .742 -.128 .354 .79 1.396 v 0 l 11.177 11.291 c 1.008 .895 .62 .667 1.396 .761 v 0 c .341 -.022 .436 -.042 .762 -.273 v 0 l .842 -.833 l .063 -.076 l .052 -.063 l .104 -.104 c .085 -.085 .188 -.199 .336 -.35 v 0 c .289 -.284 .709 -.705 1.234 -1.23 v 0 c 1.06 -1.063 2.568 -2.587 4.386 -4.397 v 0 c 3.633 -3.629 8.471 -8.473 13.314 -13.302 v 0 c 9.669 -9.659 19.353 -19.309 19.353 -19.309 v 0 l 1.291 -1.292 l 22.235 22.188 l -79.75 79.699 c -.327 .445 -.358 .53 -.383 .885 v 0 c .094 .758 -.137 .359 .79 1.41 v 0 l 11.168 11.281 c .998 .875 .61 .663 1.41 .748 v 0 c .354 -.019 .43 -.042 .747 -.26 v 0 l .908 -.903 l .047 -.057 l .104 -.113 c .085 -.076 .189 -.189 .336 -.341 v 0 c .289 -.284 .709 -.705 1.234 -1.239 v 0 c 1.06 -1.063 2.567 -2.578 4.385 -4.399 v 0 c 3.633 -3.628 8.472 -8.462 13.315 -13.301 v 0 c 9.669 -9.659 19.351 -19.317 19.351 -19.317 v 0 l 1.292 -1.296 l 25.5 25.477 l -1.306 1.305 l 1.306 -1.305 z" fill="#c00"/></g></svg>