<svg height="1000" viewBox="0 0 999.99998 1000" width="1000" xmlns="http://www.w3.org/2000/svg"><g transform="matrix(2.9032634 0 0 2.3382926 -118.09024 3.1692)"><path d="m170.137 23.458 28.464-21.831h24.056l-10.459 38.697-10.81-1.966-29.979 10.333z" fill="#fff"/><path d="m40.674999 41.056h258.32999v253.41499h-258.32999z" fill="#fff"/><path d="m258.813 177.687c-.561-4.953-1.493-9.689-2.845-14.485-1.428-4.7-3.164-9.134-5.305-13.55-2.206-4.352-4.683-8.373-7.481-12.36-7.12-9.764-13.79-19.755-20.102-30.053-6.402-10.604-12.354-21.4-17.923-32.462-3.47-7.007-6.747-14.076-9.908-21.22-.307-.689-.628-1.368-.93-2.06l-.768-1.333c-1.634-3.811.215-7.136 3.626-9.091.036-.021.069-.046.106-.067 2.953-1.303 5.769-1.306 8.645.067h8.608l12.351-39.933c-3.346-.72-6.682-1.52-10.063-2.052-4.578-.592-8.848-.572-13.445-.054-2.131.335-4.167.75-6.255 1.274-3.391 1.014-6.431 2.223-9.583 3.821-1.781 1.007-3.45 2.053-5.13 3.217-2.713 2.071-5.012 4.185-7.28 6.727-1.256 1.554-2.381 3.097-3.473 4.768-1.72 2.944-2.974 5.738-4.024 8.982l-.906 3.888c-.466 3.207-.597 6.207-.335 9.363.031.351.041.695.081 1.05.452 3.309 1.281 6.292 2.501 9.393l1.183 2.04 1.439 2.481c4.809 8.555 9.191 17.266 13.227 26.217 5.225 11.818 9.745 23.816 13.713 36.116 1.025 3.264 1.978 6.55 3.105 9.783 1.295 4.002 1.99 7.922 2.04 12.136l-.169 3.597-.489 3.455-.807 3.422-1.123 3.392-1.44 3.362-1.752 3.328-2.065 3.291-2.373 3.249-2.678 3.198-2.978 3.14-3.267 3.07-3.556 2.997-3.83 2.913-8.461 5.542-9.457 5.121-10.382 4.639-11.228 4.112-11.993 3.533-12.688 2.911-13.296 2.247-13.835 1.535c-9.571.664-19.091 1.037-28.678.793-1.285-.035-2.567-.084-3.848-.143v5.779c3.612.147 7.259.225 10.938.225 79.985 0 145.221-35.313 145.221-78.607 0-5.489-1.052-10.848-3.044-16.024-7.633-25.889-17.676-49.7-29.634-70.81-.864-1.523-1.712-3.071-2.596-4.566-1.021-2.514-1.696-5.17-2.002-7.918-.123-1.086-.2-2.182-.2-3.295 0-18.407 17.044-33.421 37.946-33.421 3.317 0 6.536.381 9.606 1.09l-9.657 31.231c-2.352-1.53-5.215-2.429-8.308-2.429-5.41 0-10.136 2.763-12.591 6.824-1.14 1.887-1.796 4.054-1.796 6.357 0 2.215.627 4.292 1.689 6.127.114.199.208.407.335.599 13.697 31.573 30.302 60.614 49.303 86.49h-.012c9.465 13.01 14.997 28.631 14.997 45.404 0 28.041-15.451 52.859-38.918 67.632h-168.072v5.763h169.779c2.778-1.808 5.484-3.623 8.152-5.583 2.895-2.261 5.618-4.586 8.302-7.092 1.939-1.916 3.789-3.861 5.609-5.892 2.938-3.48 5.559-7 8.05-10.814 1.888-3.101 3.579-6.193 5.164-9.46 1.487-3.327 2.772-6.62 3.924-10.079 1.049-3.53 1.892-6.996 2.58-10.612l.756-5.475c.489-5.673.526-11.095.003-16.751z" fill="#ee3124"/><path d="m206.172 41.184 7.027 4.21 1.336-4.32h-8.608c.082.04.163.068.245.11z" fill="#ee3124"/><path d="m115.362 54.595-12.85 84.642 25.699-2.009z" fill="#135698"/><path d="m116.709 59.336-11.683 76.964 23.369-1.826z" fill="#fffffc"/><path d="m117.608 66.83-10.093 66.484 20.187-1.578z" fill="#ee3124"/><path d="m129.659 92.275-8.016 71.909 24.904 9.493z" fill="#135698"/><path d="m131.416 97.862-7.271 65.225 22.591 8.609z" fill="#fffffc"/><path d="m101.9 97.891 6.951 78.971-28.871 26.324z" fill="#135698"/><path d="m103.349 103.482 6.004 68.218-24.94 22.739z" fill="#fffffc"/><path d="m104.264 109.45 5.187 58.929-21.544 19.642z" fill="#ee3124"/><path d="m132.636 105.143-6.28 56.344 19.515 7.438z" fill="#ee3124"/><path d="m41.539 396.873c0-2.748.591-4.907 1.627-6.479 1.035-1.177 2.217-1.765 3.695-1.765 1.92 0 3.398.784 4.432 2.551.444.982.74 1.962.74 2.945h-2.512c-.148-.786-.296-1.374-.591-1.767-.444-.588-1.035-.98-1.921-.98-1.772 0-2.955 1.961-2.955 5.495s1.183 5.303 2.955 5.303c.887 0 1.478-.395 1.921-1.181.296-.393.443-.98.591-1.765h2.512c-.444 3.337-2.216 5.693-5.025 5.693-1.772 0-3.103-.59-3.99-2.16-1.035-1.373-1.479-3.337-1.479-5.89zm17.167-4.515-1.626 6.283h3.104zm-5.616 12.171 4.137-15.704h2.808l4.138 15.704h-2.659l-.739-3.139h-4.285l-.888 3.139zm12.584 0v-15.704h2.513v12.957h5.911v2.747zm14.454-3.73 2.513-11.975h2.659l-4.137 15.704h-2.218l-3.99-15.704h2.512zm11.385-8.441-1.626 6.283h3.103zm-5.616 12.171 4.137-15.704h2.808l4.139 15.704h-2.661l-.739-3.139h-4.285l-.887 3.139zm17.313-12.955h-2.216v10.208h2.216c1.182 0 1.921-.787 2.512-2.355.147-.785.296-1.767.296-2.946 0-3.142-.59-4.907-2.808-4.907zm.444-2.749c.739 0 1.33.196 1.774.392.886.393 1.477.98 2.068 1.963.74 1.571 1.034 3.534 1.034 5.104 0 2.159-.294 3.926-.885 5.301-.886 1.962-2.216 2.943-3.991 2.943h-5.172v-15.704h5.172zm11.993 13.351c1.921 0 3.103-1.965 3.103-5.499 0-3.535-1.182-5.497-3.103-5.497s-3.25 1.962-3.25 5.497c0 3.534 1.329 5.499 3.25 5.499zm5.616-5.499c0 2.749-.591 4.909-1.773 6.48-.888 1.176-2.217 1.767-3.843 1.767-1.773 0-2.956-.59-3.842-1.767-1.183-1.571-1.921-3.73-1.921-6.48 0-2.946.739-5.103 1.921-6.48.885-1.176 2.069-1.765 3.842-1.765 1.626 0 2.955.588 3.843 1.765 1.182 1.377 1.773 3.534 1.773 6.48zm1.38 2.945h2.365c0 .785.146 1.373.442 1.768.296.588 1.035.787 1.921.787.592 0 1.183 0 1.479-.199.738-.392 1.035-.982 1.035-1.767 0-.589-.148-.98-.443-1.176-.444-.393-.887-.591-1.625-.787l-1.33-.393c-1.184-.395-2.07-.787-2.514-1.178-.738-.785-1.181-1.765-1.181-3.338 0-2.945 1.478-4.907 4.58-4.907 2.365 0 4.434 1.765 4.582 5.103h-2.512c0-.981-.296-1.569-.887-1.962-.296-.394-.886-.394-1.329-.394-1.331 0-2.217.59-2.217 1.962 0 .393.294.983.591 1.179.295.196.739.392 1.626.59l1.921.784c.887.197 1.625.589 2.068.981.74.784 1.035 1.964 1.035 3.337 0 2.749-1.773 4.909-4.729 4.909-3.105.002-4.878-1.96-4.878-5.299zm20.966-8.048h-2.512v3.535h2.808c1.034 0 1.774-.591 1.774-1.77 0-.785-.148-1.372-.592-1.568-.443-.197-.888-.197-1.478-.197zm.444 6.086h-2.956v4.122h2.808c.591 0 1.034 0 1.183-.196.592-.393.886-.983.886-1.964 0-.784-.295-1.374-.74-1.767-.295-.195-.738-.195-1.181-.195zm.443-8.835c1.329 0 2.365.588 2.956 1.767.442.588.59 1.375.59 2.355s-.147 1.767-.59 2.358c-.148.196-.444.588-.888.785 1.184.588 1.922 1.962 1.922 3.73 0 .98-.297 1.767-.592 2.551-.146.393-.442.787-.886 1.178-.739.785-1.774.98-2.955.98h-5.321v-15.704zm10.811 3.533-1.627 6.283h3.104zm-5.615 12.171 4.137-15.704h2.808l4.138 15.704h-2.66l-.738-3.139h-4.285l-.887 3.139zm12.141-4.907h2.365c0 .785.148 1.373.444 1.768.294.588 1.034.787 1.921.787.59 0 1.182 0 1.477-.199.74-.392 1.035-.982 1.035-1.767 0-.589-.148-.98-.443-1.176-.443-.393-.887-.591-1.626-.787l-1.33-.393c-1.182-.395-2.069-.787-2.511-1.178-.74-.785-1.183-1.765-1.183-3.338 0-2.945 1.478-4.907 4.581-4.907 2.365 0 4.435 1.765 4.581 5.103h-2.512c0-.981-.295-1.569-.887-1.962-.294-.394-.886-.394-1.331-.394-1.329 0-2.215.59-2.215 1.962 0 .393.296.983.591 1.179s.738.392 1.624.59l1.923.784c.885.197 1.624.589 2.068.981.739.784 1.035 1.964 1.035 3.337 0 2.749-1.775 4.909-4.729 4.909-3.105.002-4.878-1.96-4.878-5.299zm10.94 0h2.366c0 .785.146 1.373.443 1.768.296.588 1.033.787 1.921.787.589 0 1.181 0 1.478-.199.737-.392 1.033-.982 1.033-1.767 0-.589-.147-.98-.443-1.176-.441-.393-.887-.591-1.626-.787l-1.33-.393c-1.183-.395-2.069-.787-2.513-1.178-.737-.785-1.183-1.765-1.183-3.338 0-2.945 1.479-4.907 4.584-4.907 2.364 0 4.433 1.765 4.58 5.103h-2.512c0-.981-.297-1.569-.887-1.962-.294-.394-.886-.394-1.329-.394-1.33 0-2.216.59-2.216 1.962 0 .393.294.983.59 1.179s.737.392 1.626.59l1.92.784c.889.197 1.626.589 2.069.981.74.784 1.034 1.964 1.034 3.337 0 2.749-1.772 4.909-4.727 4.909-3.104.002-4.878-1.96-4.878-5.299zm20.252-10.797v2.749h-6.355v3.338h5.763v2.747h-5.763v4.122h6.503v2.747h-8.865v-15.704h8.717zm6.63 15.704v-15.704h2.662l4.729 10.994v-10.994h2.216v15.704h-2.513l-4.729-11.19v11.19zm17.168-2.353c1.92 0 3.102-1.965 3.102-5.499 0-3.535-1.183-5.497-3.102-5.497-1.921 0-3.253 1.962-3.253 5.497 0 3.534 1.332 5.499 3.253 5.499zm5.615-5.499c0 2.749-.589 4.909-1.774 6.48-.885 1.176-2.214 1.767-3.84 1.767-1.773 0-2.956-.59-3.842-1.767-1.183-1.571-1.922-3.73-1.922-6.48 0-2.946.74-5.103 1.922-6.48.886-1.176 2.069-1.765 3.842-1.765 1.626 0 2.955.588 3.84 1.765 1.184 1.377 1.774 3.534 1.774 6.48zm7.291-5.103h-2.954v4.122h2.806c.592 0 1.034 0 1.33-.196.443-.196.737-.786.737-1.769 0-.98-.293-1.569-.737-1.961-.296-.196-.738-.196-1.182-.196zm.444-2.749c1.624 0 2.364.588 3.102 1.569.445.787.739 1.769.739 2.945 0 1.375-.441 3.142-1.773 3.73 1.034.591 1.479 1.375 1.479 3.73v.982 1.375c.148.587.294.784.443.98v.392h-2.661c0-.392-.148-.588-.148-.785 0-.587-.146-.981-.146-1.374v-1.571c0-1.961-.446-2.355-1.923-2.355h-2.51v6.085h-2.365v-15.704h5.763zm11.697 12.368 2.07-12.368h3.546v15.704h-2.216v-10.602c0-.588 0-1.961 0-2.549l-2.218 13.151h-2.363l-2.216-13.151v2.549 10.602h-2.366v-15.704h3.548zm12.777-8.835-1.625 6.283h3.103zm-5.615 12.171 4.139-15.704h2.807l4.138 15.704h-2.659l-.74-3.139h-4.286l-.886 3.139zm12.584 0v-15.704h2.662l4.728 10.994v-10.994h2.217v15.704h-2.51l-4.731-11.19v11.19zm16.574-12.955h-2.214v10.208h2.214c1.185 0 1.924-.787 2.512-2.355.15-.785.297-1.767.297-2.946 0-3.142-.591-4.907-2.809-4.907zm.445-2.749c.74 0 1.33.196 1.773.392.886.393 1.477.98 2.067 1.963.74 1.571 1.035 3.534 1.035 5.104 0 2.159-.295 3.926-.886 5.301-.889 1.962-2.216 2.943-3.989 2.943h-5.172v-15.704h5.172zm9.037 0v15.704h-2.512v-15.704zm11.059 0v2.749h-6.352v3.338h5.762v2.747h-5.762v4.122h6.5v2.747h-8.865v-15.704h8.717z" fill="#135698"/><path d="m298.879 369.827v4.247h-43.78v-4.247zm-214.3 4.247h-43.779v-4.247h43.779z" fill="#ee3124"/><path d="m298.879 365.578v4.249h-43.78v-4.249zm-214.3 4.249h-43.779v-4.249h43.779z" fill="#fff"/><g fill="#135698"><path d="m298.879 361.334v4.244h-43.78v-4.244zm-214.3 4.244h-43.779v-4.244h43.779z"/><path d="m110.797 349.911c6.939 0 13.115 2.852 16.962 7.236l-3.944 2.986c-2.86-3.485-7.631-5.772-13.018-5.772-8.715 0-15.823 5.994-15.823 13.343s7.108 13.343 15.823 13.343c5.387 0 10.159-2.29 13.018-5.773l3.944 2.987c-3.848 4.383-10.023 7.235-16.962 7.235-11.62 0-21.098-7.991-21.098-17.792 0-9.8 9.478-17.793 21.098-17.793z"/><path d="m148.514 349.911c11.619 0 21.098 7.993 21.098 17.793 0 .127-.004.253-.007.379l.774 17.412h-5.223l-.291-6.571c-3.874 4.005-9.769 6.571-16.351 6.571-11.621 0-21.098-7.991-21.098-17.792-.001-9.799 9.477-17.792 21.098-17.792zm-.463 4.428c-8.715 0-15.823 5.994-15.823 13.343 0 7.35 7.108 13.343 15.823 13.343 8.714 0 15.824-5.993 15.824-13.343-.001-7.349-7.11-13.343-15.824-13.343z"/><path d="m192.383 349.911c8.972 0 16.665 4.764 19.705 11.444h-3.614-2.18-27.823c-1.219 1.892-1.911 4.055-1.911 6.349 0 7.35 7.108 13.343 15.822 13.343 6.237 0 11.648-3.068 14.222-7.505l4.823 1.806c-3.401 5.991-10.665 10.148-19.045 10.148-11.618 0-21.096-7.991-21.096-17.792.001-9.8 9.479-17.793 21.097-17.793zm10.443 7.78c-2.791-2.073-6.447-3.331-10.443-3.331-3.993 0-7.65 1.258-10.44 3.331z"/><path d="m232.376 350.912c9.694 0 17.604 5.777 17.604 12.865 0 .082-.002.163-.004.245v21.473h-5.063v-12.705-8.825c0-.007 0-.016 0-.024v-.165h.005c0-5.05-5.634-9.166-12.542-9.166-6.909 0-12.543 4.116-12.543 9.166h-.003v9.006 12.713h-5.062v-21.72h.003c0-7.087 7.91-12.863 17.605-12.863z"/><path d="m41.999 339.201h3.997c0 1.26.4 2.014.599 2.519.798 1.005 1.998 1.761 3.596 1.761.999 0 1.799-.252 2.398-.502 1.199-.503 1.799-1.512 1.799-3.021 0-.756-.401-1.509-1-1.763-.6-.502-1.398-1.006-2.598-1.258l-2.198-.505c-1.998-.755-3.596-1.257-4.196-2.011-1.399-1.261-2.198-3.023-2.198-5.54 0-4.534 2.798-7.808 7.793-7.808 4.195 0 7.593 2.77 7.792 8.309h-4.196c0-1.511-.6-2.77-1.398-3.272-.799-.505-1.599-.756-2.598-.756-1.998 0-3.396 1.258-3.396 3.272 0 .755.201 1.512.799 2.014.6.253 1.398.504 2.798 1.007l3.397 1.007c1.398.504 2.597 1.008 3.396 1.765 1.198 1.255 1.798 3.018 1.798 5.286 0 4.531-2.997 8.057-7.992 8.057-5.195 0-8.392-3.273-8.392-8.561zm17.726-17.374h16.185v4.531h-5.994v20.648h-4.198v-20.648h-5.993zm26.755 5.792-2.598 9.819h4.995zm-9.391 19.387 6.993-25.179h4.796l6.994 25.179h-4.396l-1.399-5.287h-7.393l-1.399 5.287zm29.247-20.897h-3.796v16.615h3.796c1.999 0 3.398-1.258 4.197-3.774.4-1.258.599-3.021.599-4.784 0-5.038-.998-8.057-4.796-8.057zm.801-4.282c1.199 0 2.198.254 2.997.503 1.398.504 2.598 1.765 3.396 3.274 1.398 2.518 1.799 5.54 1.799 8.308 0 3.275-.4 6.045-1.598 8.311-1.4 3.272-3.597 4.784-6.594 4.784h-8.593v-25.179h8.593zm26.25 0v4.531h-10.59v5.289h9.592v4.282h-9.592v6.546h10.991v4.531h-15.188v-25.179zm21.045 19.892 3.597-19.892h5.994v25.179h-3.996v-17.122c0-1.004.201-3.018.201-4.028l-3.798 21.15h-4.196l-3.596-21.15v4.028 17.122h-3.997v-25.179h6.194zm21.538-14.1-2.596 9.819h4.992zm-9.39 19.387 6.994-25.179h4.793l6.994 25.179h-4.396l-1.398-5.287h-7.394l-1.397 5.287zm21.454 0v-25.179h3.995v20.648h9.992v4.531zm20.961 0h-4.196v-25.179h4.196v9.569h7.795v-9.569h4.193v25.179h-4.193v-11.331h-7.795zm30.847-25.179v4.531h-10.589v5.289h9.59v4.282h-9.59v6.546h10.987v4.531h-15.185v-25.179zm12.73 4.282h-4.995v6.798h4.794c.999 0 1.6 0 2.199-.253.798-.503 1.199-1.51 1.199-3.021 0-1.51-.4-2.519-1.199-3.022-.398-.253-1.199-.502-1.998-.502zm.799-4.282c2.798 0 4.196.756 5.195 2.519.798 1.258 1.399 2.768 1.399 4.534 0 2.517-.8 5.032-2.996 6.042 1.797 1.008 2.395 2.517 2.395 6.043v1.511c0 1.258 0 2.014.201 2.517 0 .503.4 1.007.8 1.258v.756h-4.596c-.2-.502-.4-1.007-.4-1.258 0-.756-.201-1.511-.201-2.267v-2.266c0-3.274-.796-4.028-3.195-4.028h-4.396v9.819h-3.998v-25.179h9.792zm18.658 4.282h-4.396v5.538h4.797c1.797 0 2.996-.503 2.996-2.768 0-1.26-.4-2.014-.999-2.268-.601-.253-1.399-.502-2.398-.502zm.6 9.82h-4.996v6.795h4.797c.996 0 1.597-.249 2.197-.502.799-.503 1.197-1.512 1.197-3.272 0-1.258-.398-2.015-1.197-2.52-.399-.25-1.201-.501-1.998-.501zm.797-14.102c2.398 0 3.998 1.007 5.197 2.771.601 1.006.801 2.268.801 3.777s-.201 2.77-.801 3.777c-.4.503-.999 1.007-1.597 1.259 1.995 1.009 2.995 3.02 2.995 6.042 0 1.512-.198 2.771-.797 4.029-.4.756-.8 1.26-1.401 2.014-1.397 1.26-3.195 1.511-5.193 1.511h-8.992v-25.179h9.788zm25.052 0v4.531h-10.589v5.289h9.593v4.282h-9.593v6.546h10.99v4.531h-15.186v-25.179z"/><path d="m298.879 263.222v37.786c-9.425 5.033-23.122 9.019-38.583 10.671-28.329 3.023-52.633-2.841-56.057-13.171-6.41 3.27-14.303 5.948-22.973 7.558-21.254 3.951-40.048.147-44.482-8.473-38.262 4.089-71.398 10.941-95.984 19.63v-24.269c26.46-9.063 62.344-16.045 103.614-19.865 5.461 5.958 26.388 7.975 50.539 4.381 4.087-.607 8.043-1.346 11.811-2.182 22.214-7.493 52.531-12.119 85.874-12.119 2.094 0 4.174.019 6.241.053z"/></g><path d="m298.879 245.335v14.07c-4.173-.064-8.343-.079-12.522-.024-8.114.171-16.183.585-24.274 1.262-7.561.699-15.057 1.621-22.557 2.811-5.207.881-10.366 1.884-15.521 3.034-6.169 1.453-12.234 3.104-18.256 5.09-1.103.24-2.212.472-3.323.697-10.132 1.998-20.39 3.09-30.727 3.138-6.505-.072-13.055-.452-19.333-2.288-1.403-.47-2.682-.968-3.963-1.716-.975-.666-1.731-1.488-2.58-2.321l-9.977.984c-7.923.875-15.82 1.843-23.722 2.918l-14.974 2.332-14.239 2.632-13.445 2.908-12.6 3.179-11.704 3.432-4.362 1.49v-46.313c9.242-1.816 19.486-3.437 30.287-4.733 42.015-5.034 76.985-3.262 77.851 3.947.015.124.015.249.01.376 8.903-2.012 21.765-3.279 36.028-3.279 22.686 0 41.823 3.203 47.133 7.513 9.602-1.937 22.524-3.123 36.705-3.123 11.129.001 21.483.734 30.065 1.984z" fill="#ee3124"/><path d="m214.535 41.074-1.336 4.32-7.027-4.21c-.082-.042-.163-.07-.245-.11h-8.751c-3.411 1.955-5.26 5.281-3.626 9.091l.768 1.333c.302.691.623 1.37.93 2.06h91.147v190.43c4.456.333 8.647.788 12.484 1.348v-204.262z" fill="#135698"/><path d="m53.285 53.558h116.872l-1.183-2.04c-1.22-3.101-2.049-6.085-2.501-9.393-.04-.356-.05-.699-.081-1.05h-125.592v201.578c3.987-.782 8.16-1.531 12.485-2.23v-21.647-5.779z" fill="#135698"/><path d="m133.06 394.84698h4.184v2.44h-4.184z" fill="#135698"/><path d="m194.242 394.84698h4.184v2.44h-4.184z" fill="#135698"/></g></svg>