<svg height="1000" viewBox="0 0 1000 1000" width="1000" xmlns="http://www.w3.org/2000/svg" xmlns:xlink="http://www.w3.org/1999/xlink"><clipPath id="a"><path d="m553.684 245.225c-2.051 16.003-5.563 35.74-11.566 56.683-8.51 29.688-20.299 55.936-35.041 78.026-17.676 26.49-39.688 47.03-65.461 61.123-8.256-5.641-35.404-25.477-61.064-58.458-17.88-22.979-31.552-47.76-40.638-73.666-7.218-20.554-11.538-41.873-12.947-63.708z" height="100%" width="100%"/></clipPath><g transform="matrix(3.1942916 0 0 3.1942916 -1009.0218 -498.02348)"><path d="m561.855 206.843c-53.416-48.854-121.162-45.595-121.162-45.595-59.271.648-118.547 45.595-118.547 45.595-1.155 13.335-1.263 26.127-.492 38.382h237.382c2.929-23.138 2.819-38.382 2.819-38.382" fill="#002d6a"/><path d="m321.655 245.225c8.339 132.671 119.695 201.999 119.695 201.999 86.023-45.078 110.641-146.376 117.688-201.999z" fill="#c60c46"/><path d="m326.454 229.349c0-6.515.271-13.078.784-19.67 4.62-3.301 17.404-12.064 34.542-20.773 19.727-10.024 49.443-22.052 78.973-22.373h.096l.098-.008c.166-.004 16.77-.701 39.486 4.436 20.373 4.601 49.902 15.002 76.113 38.261-.109 5.089-.588 18.244-2.861 36.003h10.707c2.807-22.443 2.752-37.364 2.748-38.415l-.012-2.31-1.705-1.556c-28.449-26.023-60.848-37.41-83.023-42.376-23.582-5.291-40.586-4.662-41.9-4.607.055 0 .096-.004.143-.004l-.201.008c.018 0 .037-.004.059-.004-31.59.384-62.949 13.049-83.702 23.617-22.391 11.4-37.223 22.583-37.844 23.052l-1.868 1.417-.204 2.34c-1.138 13.082-1.301 26.041-.509 38.838h10.595c-.344-5.267-.515-10.556-.515-15.876" fill="#c60c46"/><path d="m553.684 245.225c-2.051 16.003-5.563 35.74-11.566 56.683-8.51 29.688-20.299 55.936-35.041 78.026-17.676 26.49-39.688 47.03-65.461 61.123-8.256-5.641-35.404-25.477-61.064-58.458-17.88-22.979-31.552-47.76-40.638-73.666-7.218-20.554-11.538-41.873-12.947-63.708h-10.595c1.43 23.11 5.98 45.681 13.643 67.444 9.511 27.016 23.788 52.834 42.435 76.734 31.723 40.667 64.713 61.444 66.102 62.311l2.568 1.602 2.686-1.41c28.578-14.977 52.855-37.264 72.16-66.243 15.354-23.037 27.596-50.332 36.396-81.116 6.338-22.164 9.963-42.785 12.029-59.322z" fill="#002d6a"/><g fill="#fff"><path d="m348.824 206.606c-.671.258-1.276.555-1.852.946-3.573 2.429-3.494 7.016-1.055 10.188 2.281 2.976 6.513 5.154 9.986 2.821.521-.351.955-.854 1.376-1.374 1.021 1.523 1.534 2.285 2.56 3.809-.429.641-.972 1.17-1.614 1.618-5.516 3.851-12.793 1.54-16.762-3.365-4.257-5.268-3.449-13.146 2.239-17.092.814-.563 1.689-.969 2.631-1.255.998 1.481 1.495 2.225 2.491 3.704"/><path d="m353.398 198.21c3.436 5.699 6.876 11.399 10.32 17.1 1.776-1.071 2.673-1.593 4.474-2.6.892 1.593 1.334 2.383 2.222 3.98-3.419 1.908-5.108 2.93-8.427 5.081-4.449-6.861-8.898-13.723-13.343-20.586 1.885-1.224 2.836-1.823 4.754-2.975"/><path d="m370.661 189.06c.759 1.657 1.143 2.48 1.901 4.138-1.985.909-2.969 1.383-4.92 2.36.947 1.91 1.426 2.867 2.377 4.778 1.672-.836 2.514-1.242 4.203-2.024.763 1.653 1.147 2.478 1.918 4.13-1.647.764-2.46 1.157-4.082 1.969.984 1.976 1.48 2.971 2.473 4.947 1.797-.9 2.706-1.337 4.528-2.173.763 1.653 1.151 2.485 1.906 4.141-3.499 1.602-5.229 2.465-8.635 4.31-3.886-7.199-7.768-14.394-11.65-21.589 3.939-2.131 5.936-3.13 9.981-4.987"/><path d="m382.757 195.337c.338-.125.509-.184.847-.305 2.193-.856 2.556-2.57 1.859-4.466-.609-1.646-1.993-2.681-4.461-1.569-.267.102-.4.156-.671.263.971 2.43 1.454 3.648 2.426 6.077m.817 14.814c-3.269-7.497-6.534-14.985-9.807-22.482 2.039-.889 3.056-1.32 5.116-2.135 4.161-1.795 9.765-1.987 11.395 3.304.772 2.519.496 5.102-1.417 7.212 2.647 2.975 5.212 6.029 7.701 9.146-1.885.619-2.818.946-4.686 1.63-2.61-3.083-5.3-6.098-8.064-9.035-.025.008-.038.012-.067.026 1.68 4.205 2.519 6.307 4.195 10.517-1.756.7-2.627 1.067-4.366 1.817"/><path d="m400.245 178.577c2.06 4.449 4.048 8.933 5.966 13.437.025-.004.037-.009.063-.017-.471-4.85-.879-9.709-1.234-14.577 2.857-.64 4.283-.93 7.152-1.451 2.393 7.874 4.67 15.775 6.846 23.711-1.893.314-2.84.481-4.725.853-1.522-5.7-3.08-11.392-4.67-17.075-.029 0-.041.005-.07.009.158 2.443.246 3.659.43 6.098.096 3.933.246 7.86.445 11.788-1.404.321-2.109.483-3.51.838-1.701-3.617-3.457-7.207-5.268-10.768-.893-2.024-1.342-3.036-2.255-5.052-.05-.176-.075-.27-.121-.444-.025.013-.042.013-.067.02 1.314 5.748 2.644 11.485 4 17.226-1.94.537-2.907.827-4.833 1.434-1.78-8.023-3.469-16.049-5.066-24.111 2.755-.825 4.135-1.21 6.917-1.919"/><path d="m428.373 194.319c3.164-.311 2.924-6.494 2.773-8.438-.164-2.172-.867-8.158-4.371-7.816-3.502.344-3.031 6.352-2.768 8.516.233 1.941 1.202 8.051 4.366 7.738m8.143-8.755c.201 5.203-1.525 12.621-7.701 13.224-6.174.608-9.322-6.325-10.141-11.473-.9-5.675.834-13.045 7.66-13.721 6.826-.669 9.961 6.229 10.182 11.97"/><path d="m444.068 173.15c2.221 4.906 4.27 9.888 6.133 14.944.033-.02.045-.033.07-.058-.246-1.184-.299-2.46-.246-3.723.176-4.408.264-6.611.447-11.021 2.164.085 3.248.146 5.412.302-.584 8.156-1.172 16.312-1.752 24.472-1.76-.129-2.643-.175-4.402-.248-1.719-5.052-3.623-10.03-5.701-14.936-.023.025-.037.038-.066.059.092.992.143 1.486.23 2.477.012.406.02.606.029 1.014-.025 4.499-.039 6.748-.059 11.254-1.859-.013-2.795 0-4.654.052-.217-8.177-.43-16.354-.647-24.53 2.083-.054 3.128-.066 5.206-.058"/><path d="m472.209 175.533c-.301 1.801-.451 2.698-.756 4.497-1.654-.277-2.484-.406-4.145-.64-.938 6.588-1.867 13.185-2.811 19.777-1.846-.266-2.771-.38-4.631-.582.729-6.621 1.459-13.241 2.193-19.858-1.652-.18-2.473-.265-4.133-.405.154-1.816.238-2.721.393-4.541 4.658.468 9.261 1.047 13.89 1.752"/><path d="m494.092 180.666c-.535 1.736-.793 2.607-1.326 4.355-2.086-.631-3.127-.932-5.225-1.499-.547 2.024-.822 3.036-1.367 5.064 1.834.49 2.752.746 4.572 1.299-.525 1.741-.791 2.612-1.309 4.357-1.775-.529-2.668-.779-4.445-1.259-1.055 3.932-1.584 5.897-2.647 9.834-1.818-.492-2.728-.718-4.549-1.145 1.875-7.965 3.752-15.927 5.629-23.88 4.296 1.012 6.43 1.583 10.667 2.874"/><path d="m498.344 203.705c3.012 1.153 5.566-4.48 6.305-6.29.826-2.017 2.865-7.692-.475-8.971-3.34-1.28-5.6 4.314-6.33 6.371-.659 1.837-2.518 7.733.5 8.89m11.345-4.13c-2.18 4.811-7.105 10.556-12.955 8.322-5.846-2.233-5.633-9.803-4.057-14.829 1.752-5.55 6.658-11.281 13.098-8.816 6.438 2.46 6.338 10.001 3.914 15.323"/><path d="m515.732 211.626c2.893 1.544 6.129-3.729 7.088-5.428 1.066-1.903 3.785-7.28.588-8.987-3.199-1.707-6.135 3.561-7.117 5.513-.867 1.74-3.449 7.361-.559 8.902m11.895-2.615c-2.805 4.558-8.434 9.545-14.014 6.576-5.555-2.959-4.494-10.427-2.285-15.264 2.447-5.357 8.09-10.336 14.193-7.075 6.11 3.258 5.209 10.722 2.106 15.763"/><path d="m547.412 207.581c-1.084 1.461-1.625 2.195-2.719 3.656-1.408-1.051-2.125-1.567-3.561-2.581-3.836 5.446-7.672 10.89-11.508 16.333-1.602-1.126-2.402-1.674-4.027-2.746 3.652-5.566 7.309-11.135 10.961-16.697-1.447-.948-2.176-1.413-3.639-2.328.963-1.545 1.441-2.323 2.4-3.868 4.146 2.575 8.183 5.325 12.093 8.231"/><path d="m387.956 224.379-.53-3.94h-.066l-.5 3.94-1.001 6.942h3.29zm2.064-10.644 5.658 26.059h-4.97l-.876-4.396h-4.724l-.846 4.396h-4.628l5.475-26.059z"/><path d="m402.1 213.735v16.86c0 1.968-.225 4.945 2.315 4.945 2.281 0 2.281-1.901 2.314-3.834v-17.972h4.662v19.003c0 2.767-.285 7.464-7.014 7.464-4.345 0-6.947-2.241-6.947-7.117v-19.35h4.67"/><path d="m418.174 213.735 2.814 12.509c.408 1.486.563 2.974.852 4.458h.059c.244-1.52.346-3.005.717-4.53l2.844-12.436h4.877l-6.533 26.059h-3.814l-6.818-26.059h5.002"/><path d="m441.637 213.735v4.837h-4.725v5.666h4.158v4.842h-4.158v5.87h4.783v4.844h-9.449v-26.059z"/><path d="m449.172 224.931.816.033c2.123 0 2.969-1.588 2.969-3.732 0-1.866-.813-3.386-3.16-3.246h-.625zm-4.658 14.863v-26.059h4.688c2.973 0 8.293.346 8.293 7.464 0 2.868-1.029 5.318-3.348 6.736l4.094 11.858h-4.904l-4.102-12.029h-.063v12.029h-4.658"/><path d="m476.228 225.275v2.041c0 5.528-1.223 12.886-7.568 12.886-6.35 0-8.414-7.532-8.414-13.299 0-6.017 1.756-13.583 8.414-13.583 3.598 0 5.941 2.489 6.947 6.182l-4.541 1.939c-.217-1.313-.592-3.351-2.377-3.351-3.16-.211-3.469 6.215-3.469 8.675 0 2.689.154 8.673 3.598 8.673 2.373 0 2.748-3.527 2.748-5.324h-2.969v-4.839z"/><path d="m483.17 213.735 5.822 15.72.063-.066c-.279-1.243-.375-2.594-.375-3.938v-11.715h4.656v26.059h-4.406l-5.76-15.727-.057.067.211 2.631.033 1.067v11.961h-4.656v-26.059z"/><path d="m506.008 213.735v4.837h-4.725v5.666h4.158v4.842h-4.158v5.87h4.787v4.844h-9.443v-26.059z"/><path clip-path="url(#a)" d="m454.82 429.365h-23.137l-11.566-20.043 11.566-20.036h23.137l11.568 20.036zm29.356-3.352-9.637-16.69 9.637-16.684h2.197c-1.748-4.532-4.182-8.714-7.184-12.434l-1.098 1.897h-19.268l-9.633-16.684 1.098-1.909c-2.34-.367-4.742-.559-7.176-.559-2.447 0-4.846.191-7.189.559l1.102 1.909-9.633 16.684h-19.268l-1.096-1.897c-2.998 3.72-5.438 7.901-7.185 12.434h2.197l9.637 16.684-9.637 16.69h-2.197c1.748 4.528 4.187 8.715 7.185 12.43l1.096-1.901h19.268l9.633 16.691-1.102 1.901c2.344.367 4.742.559 7.189.559 2.434 0 4.836-.191 7.176-.559l-1.098-1.901 9.633-16.691h19.268l1.098 1.901c3.002-3.715 5.436-7.901 7.184-12.43z"/></g><path clip-path="url(#a)" d="m431.684 389.286-11.567 20.036 11.567 20.043h23.136l11.569-20.043-11.569-20.036z" fill="#002d6a"/><path clip-path="url(#a)" d="m474.539 409.322 9.637 16.69h2.197c1.998-5.179 3.111-10.808 3.111-16.69 0-5.884-1.113-11.505-3.111-16.684h-2.197z" fill="#002d6a"/><path clip-path="url(#a)" d="m458.824 382.103h19.268l1.098-1.897c-7.076-8.756-17.271-14.886-28.9-16.695l-1.098 1.909z" fill="#002d6a"/><path clip-path="url(#a)" d="m427.393 382.103 9.633-16.684-1.102-1.909c-11.629 1.81-21.82 7.939-28.895 16.695l1.096 1.897h19.268" fill="#002d6a"/><path clip-path="url(#a)" d="m411.678 409.322-9.637-16.684h-2.197c-1.997 5.179-3.106 10.8-3.106 16.684 0 5.883 1.109 11.512 3.106 16.69h2.197z" fill="#002d6a"/><path d="m487.416 347.307c0-2.798 0-5.6 0-8.398.279-.491 1.459.08 1.272-1.167.029-.066.063-.134.092-.196 2.848-.271 4.027-1.726 5.666-3.127-.037-.059-.066-.129-.096-.196-2.502-1.042-5.012-2.076-7.518-3.118-1.459-.409-7.627 1.634-8.979 2.043-5.064 1.555-9.693 2.822-14.547 4.791-1.785.68-3.582 1.363-5.367 2.047-.42.288-.846.588-1.271.876-.971.275-1.943-.184-2.535-.388-3.969 1.13-8.102 2.005-12.592 2.827-2.664.162-5.338.329-8.002.491-4.561 1.08-6.897 5.309-11.225 6.83-3.49 1.23-8.422 1.455-12.4.488-2.023-.492-4.992-2.427-7.514-1.072-3.136 1.673-1.147 7.91-3.219 10.346-1.593 1.867-4.503 2.376-7.126 3.219-5.341 1.73-14.702 3.702-21.761 2.343 0-.125 0-.258 0-.388.517-.654 1.038-1.301 1.559-1.955-.621-.518-1.238-1.034-1.859-1.56 1.697-.751 3.386-1.497 5.079-2.243 5.412 5.062 9.636-.734 12.3-4.486.534-.759 3.019-4.762 2.535-5.571-1.597-1.951-3.189-3.902-4.783-5.854 1.501-.751 2.99-1.493 4.491-2.244.876.159 1.756.325 2.635.484 2.84.542 6.438-.117 8.198-1.168 4.821-2.885 4.979-8.314 6.838-14.056.68-2.118 1.992-4.032 2.627-5.95-6.996 2.565-10.941 8.381-16.883 12-5.004 3.048-10.378 4.116-18.15 4.099-.43.422-.847.852-1.272 1.272-1.497-.159-8.385-.317-9.082-.976 1.535-.718 3.061-1.435 4.591-2.152 1.368-.158 2.735-.32 4.099-.483 4.078-1.192 8.164-2.114 11.325-4.395 1.522-1.101 1.847-3.219 2.923-4.783 1.785-2.589 4.303-4.907 7.126-6.441 8.318-4.512 19.74-5.079 30.164-7.318.422-1.013.85-2.022 1.272-3.022 0-.042 0-.067 0-.101-4.949.059-9.895.13-14.836.192-.07-.029-.133-.063-.195-.092-.121-7.943 2.002-16.892 5.658-21.28 1.184-1.428 2.572-2.763 3.711-4.198-.309-.799-1.275-1.484-1.076-2.148 1.502-.653 2.99-1.302 4.486-1.952 3.127.453 6.256.911 9.373 1.368 0-.035 0-.069 0-.098-2.08-3.772-4.164-7.55-6.246-11.325-.225-.909-.453-1.822-.684-2.731-1.596-1.955-3.19-3.902-4.781-5.858.192-.129.387-.261.588-.39-.301-.257-.531-.098-.492-.485.453-.261.916-.521 1.363-.782-.414-.832-1.389-2.212-1.267-3.125 1.297-.465 4.445-2.689 5.857-2.439 2.035.354 2.572 3.481.393 4.003.262.917 1.029 1.501 1.467 2.245 1.49 2.438 2.986 4.877 4.488 7.318.775 1.234 2.01 2.208 2.535 3.715h.195c1.043-3.292 2.084-6.575 3.127-9.863 1.656-.782 3.314-1.563 4.975-2.339.033.063.066.127.1.195-.779 2.954-1.352 6.67-1.955 9.073.07.063.133.132.195.196.815-.358 1.627-.713 2.44-1.071-.092-.261-.195-.525-.287-.786 1.592-.845 3.186-1.686 4.777-2.531 2.189.648 6.289 6.939 4.975 10.247-.637 1.618-2.022 2.241-3.311 3.219.197.59.389 1.17.58 1.756 1.338-.615 2.672-1.234 4.008-1.857 1.563-.021 5.324.853 6.637-.095-1.664-1.107-3.322-2.212-4.983-3.316.033-.069.063-.134.1-.194 1.66-.452 3.174-1.407 4.588-2.054h12.592c-.977-1.821-1.951-3.646-2.928-5.464 1.363-.419 4.162-2.358 5.176-1.858 1.264 1.724 2.535 3.45 3.803 5.175 1.176-.567 4.131-2.478 5.174-2.147 3.578 9.077 7.154 18.154 10.732 27.231-.092.036-.195.069-.291.099-.91.325-1.818.65-2.733.977-1.359.594-2.58 1.973-4.197 2.148-2.695-.986-6.289-3.997-8.586-4.295-.355.228-.713.457-1.072.684-.199 2.344.752 4.714 1.267 6.728 1.105 4.328 1.768 7.651 3.119 11.617.684 2.214 1.367 4.428 2.051 6.642-.867.604-2.525 2.335-2.826 3.415.063.066.129.137.191.191 4.846 1.226 8.689-3.757 12.881-1.655 1.18.588 2.127 1.977 2.447 3.415.125.566-.1 1.029.191 1.367 10.412 6.863 20.824 13.735 31.236 20.599v.292c-1.789.809-3.578 1.622-5.367 2.438-5.922-2.73-11.676-5.558-17.672-8.197-2.73-1.271-5.461-2.539-8.197-3.807-1.669 3.025-8.345 10.084-12.105 10.539" fill="#fff"/><path d="m440.078 260.336c-.025 3.114-1.689 5.793-1.852 9.272 1.359-.191 1.783-1.009 3.41-1.071.941 1.139 1.963 2.352 2.832 3.709h.1c.42-1.741-.201-4.797.488-6.928h.387c1.814 2.515 7.801 7.411 4.103 11.612-.779.893-1.143 1.699-2.539 2.05.066 1.674 3.336 9.753 3.615 9.859 1.451-1.381 3.58-1.116 3.902-3.712-.805-.571-3.691-5.32-3.711-6.344 3.197.042 9.053.738 11.229-.684-1.502-1.464-2.994-2.925-4.49-4.389 0-.231 0-.457 0-.684 4.975.029 9.953.061 14.932.094-.393-1.328-.752-7.159-.293-7.71.096.063.197.131.293.196 1.705 2.979 4.381 6.446 6.537 9.175.217-.2.188-.133.297-.487 1.271-.845 1.588-4.197 1.563-5.661.289.034.584.065.877.095.158 1.634 1.775 5.691 3.027 7.42.471.658.787 2.848 1.066 3.612 1.289 3.446 2.594 6.901 4.103 10.346.791 1.805 2.397 3.983 2.443 6.439-1.697.303-4.934 3.775-7.326 3.13-2.348-.639-4.283-1.708-5.951-2.934-.607-.444-1.805-1.653-2.83-1.27-.23.133-.455.263-.68.394.9 6.128 2.281 12.94 4.291 18.157.887 2.293 1.988 4.907 2.147 6.83-.941 1.042-1.889 2.084-2.83 3.118.68 1.556 6.141-.271 6.732-.583 2.611-1.343 6.275-2.015 8.101.879.66 1.043.389 1.956.781 3.323 1.32.067 7.113 4.779 8.781 5.755 7.826 4.528 14.531 9.79 22.262 14.544v.775c-.072 0-.129 0-.201 0-1.688.691-7.025.783-9.168.783-2.652-4.461-9.17-8.789-14.057-11.024-2.315-.817-4.619-1.626-6.93-2.443.203 5.142-5.603 8.869-8.789 11.325-1.035.796-2.674 2.302-4.291 2.339 0-3.314 0-6.643 0-9.957 3.902-.15 7.26-1.864 7.809-5.366-7.008-2.814-12.959.446-19.234 1.76-2.555.533-6.959 1.942-9.369 3.219-1.951.65-3.902 1.301-5.853 1.951-1.072.525-2.693 1.559-3.707 1.855-1.01-.063-2.017-.134-3.027-.191-3.602.805-7.881 2.014-11.522 2.631-3.094.229-6.178.459-9.268.684-4.516 1.727-7.072 5.504-11.91 7.13-1.893.634-7.988 1.276-10.248.388-2.139-.842-5.654-2.723-8.393-1.463-3.149 1.434-.997 8.206-3.219 10.44-3.673 3.678-21.553 7.08-29.188 5.467-.029-.13-.067-.263-.096-.388 1.526-1.985 3.056-3.97 4.586-5.963h.292c.942.496 1.884.98 2.835 1.468.83.442 1.718.117 2.535.1.191.034.388.059.583.092 4.845-2.089 6.717-6.388 8.686-10.732.596-1.314 1.488-3.736.976-5.954-.321-1.009-.65-2.019-.976-3.024h.296c.78-.142 2.756.147 3.611.388 1.739.497 4.799-.267 5.95-.775 7.869-3.498 5.55-13.848 10.253-20.014-3.219.566-6.017 3.777-8.106 5.57-2.573 2.201-6.029 4.203-8.681 6.634-.409-.154-5.729 2.355-6.93 2.731-4.778 1.492-12.934 1.571-17.083-.584 0-.163 0-.329 0-.492 4.829.004 14.786-3.11 16.591-5.754 1.351-1.984 1.947-4.183 3.415-5.959 2.018-2.438 5.045-3.865 7.81-5.566 1.043-.32 2.081-.65 3.127-.967 2.665-1.059 5.945-1.526 8.977-2.643 2.766-1.01 6.617-.718 8.883-1.556 2.18-.813 5.266-.063 7.225-1.272-.016-.63.488-1.743.977-2.439-4.978 0-9.957 0-14.936 0-.15-9.061 2.139-17.147 5.754-22.062.484-.652 3.164-3.578 3.615-3.707 0 0 .647-.327.287-.485.897-.505 2.201-1.097 2.836-1.853 0 0 .272-1.72.297-1.76 3.426-.033 5.898.842 9.176 1.172 0-.101 0-.194 0-.296-.945-.593-1.158-2.16-1.76-3.121-2.268-3.634-4.34-6.801-5.369-12.198-.234-1.222-.434-6.413.291-7.126 2.836-.648 3.869 2.831 4.979 4.584 1.822 2.897 3.637 5.406 5.662 8.1.992 1.315 1.23 2.713 2.248 3.81-.889-5.436.525-10.533 2.924-13.372.791-.936 1.834-1.517 2.443-2.441.196-.001.392-.001.585-.001" fill="#002d6a"/></g></svg>