<svg xmlns="http://www.w3.org/2000/svg" viewBox="0 0 660 660"><path fill="#284692" d="M502.565 129.361 439.668 297.4h-62.05l14.25-38.074h-37.806l-30.43 38.074H295.62l138.39-168.039zM397.179 245.142l27.996-74.787-59.775 74.787z"/><path fill="#2b4181" d="M380.138 488.599c54.568 0 99.075 10.213 99.075 22.739s-44.507 22.742-99.075 22.742-99.076-10.215-99.076-22.742 44.507-22.739 99.076-22.739"/><path fill="#284692" d="M190.304 129.361h69.916l-62.909 168.075a2207 2207 0 0 0-68.033 1.405l12.941-34.572h-54.71l-38.722 39.128c-11.509.9-22.736 1.893-33.651 2.977zm-40.998 115.972 26.197-69.985-69.256 69.985zM383.506 129.361c-.227 10.442-15.053 19.137-34.41 20.889L294.021 297.4h-69.126l56.326-150.485c-9.514-3.292-15.956-9.517-15.956-16.625 0-.311.016-.624.039-.93h118.202zM584.569 124.241c20.933-.22 37.236 7.713 48.683 20.564a62.5 62.5 0 0 1 4.86 6.217c2.241 3.76 3.579 8.485 3.579 13.604 0 12.216-7.611 22.183-16.945 22.183-6.41 0-12.008-4.708-14.882-11.612-1.074-5.858-3.077-10.419-5.745-13.565-4.932-5.822-12.512-6.452-20.24-2.306-7.737 4.142-14.827 11.587-21.293 20.916-6.359 9.168-12.224 20.88-16.499 33.729-4.576 14-6.92 27.864-6.726 39.402.229 13.377 3.985 24.372 11.923 27.829 3.197 1.425 6.704 1.5 10.388.357 19.795-5.348 37.02-14.463 49.61-25.464 1.308-.879 2.947-1.406 4.719-1.406 4.283 0 7.766 3.049 7.766 6.786 0 1.1-.302 2.14-.843 3.062-14.977 18.067-35.286 32.368-57.999 38.081-26.261 6.61-49.847.374-65.704-15.457-16.061-16.03-23.254-40.941-17.66-69.513 5.305-27.146 20.959-51.315 40.859-68.194 18.481-15.674 41.215-24.994 62.149-25.213"/><path fill="#fff" d="m378.597 309.531 31.653 22.344-11.88 34.296h-34.479l-13.077-35.866z"/><path fill="#284692" d="M380.819 281.37c54 0 98.041 44.04 98.041 98.043 0 54.002-44.04 98.042-98.041 98.042-54.002 0-98.043-44.04-98.043-98.042s44.041-98.043 98.043-98.043"/><path fill="#fff" d="m282.908 384.489-.073-1.687-.044-1.69-.015-1.699.082-4.033.244-3.992.404-3.95.559-3.901.711-3.851.861-3.799 1.009-3.743 1.149-3.68 1.29-3.619 1.428-3.552 1.56-3.484 1.69-3.409 1.816-3.335 1.94-3.256 2.062-3.174 2.179-3.088 2.291-2.997 2.404-2.909 2.511-2.812 2.617-2.715 2.717-2.614 2.816-2.506 2.908-2.402 3.003-2.289 3.09-2.177 3.175-2.058 1.002 4.255.671 4.483.325 4.685-.026 4.876-.387 5.042-.76 5.189-.907 4.346-1.135 4.27-1.347 4.185-1.552 4.09-1.743 3.982-1.921 3.859-2.085 3.727-2.243 3.587-2.384 3.429-2.515 3.264-2.633 3.086-3.445 3.596-3.606 3.291-3.743 2.968-3.861 2.624-3.96 2.257-4.035 1.869zm44.923 77.345-3.367-2.272-3.266-2.409-3.161-2.535-3.053-2.662-2.942-2.784-2.824-2.9-2.704-3.014-2.579-3.125-2.452-3.23-2.32-3.331-2.185-3.43-2.042-3.524-1.901-3.612-1.75-3.701-1.6-3.781.448-4.732 1.048-4.473 1.613-4.185 2.136-3.866 2.625-3.512 3.076-3.131 3.272-2.57 3.614-2.179 3.927-1.762 4.21-1.322 4.464-.85 4.689-.351 4.882.169 4.314.587 4.222.97 4.112 1.33 3.974 1.671 3.817 1.991 3.636 2.284 3.43 2.562 3.202 2.813 2.963 3.059 2.69 3.277 2.394 3.469 2.072 3.642 1.728 3.79 1.362 3.917.967 4.025.553 4.11.093 4.68-.481 4.483-1.023 4.253-1.536 3.997-2.018 3.709-2.474 3.392-2.897 3.05-3.306 2.688-3.675 2.281-4.004 1.844-4.304 1.38-4.574.886-4.814.365-5.021-.186-2.449-.29-2.421-.417zM380.82 301.31l3.758.156 3.673.463 3.572.756 3.46 1.034 3.33 1.299 3.191 1.556 3.039 1.795 2.872 2.023 2.691 2.237 2.498 2.439 2.291 2.628 2.071 2.805 1.839 2.966 1.593 3.116 1.332 3.252 1.061 3.377.771 3.488.474 3.586.163 3.672-.163 3.672-.474 3.584-.771 3.488-1.061 3.379-1.332 3.251-1.593 3.117-1.839 2.966-2.071 2.805-2.291 2.628-2.498 2.439-2.691 2.237-2.872 2.022-3.039 1.796-3.191 1.554-3.33 1.301-3.46 1.035-3.572.754-3.673.462-3.758.157-3.761-.157-3.673-.462-3.574-.754-3.457-1.035-3.333-1.301-3.193-1.554-3.039-1.796-2.87-2.022-2.692-2.237-2.499-2.439-2.292-2.628-2.07-2.805-1.84-2.966-1.593-3.117-1.331-3.251-1.059-3.379-.774-3.488-.474-3.584-.161-3.672.161-3.672.474-3.586.774-3.488 1.059-3.377 1.331-3.252 1.593-3.116 1.84-2.966 2.07-2.805 2.292-2.628 2.499-2.439 2.692-2.237 2.87-2.023 3.039-1.795 3.193-1.556 3.333-1.299 3.457-1.034 3.574-.756 3.673-.463zm51.522-5.242 3.175 2.058 3.091 2.177 3 2.289 2.911 2.402 2.814 2.506 2.718 2.614 2.615 2.715 2.514 2.812 2.403 2.909 2.293 2.997 2.179 3.088 2.062 3.174 1.939 3.256 1.817 3.335 1.691 3.409 1.559 3.484 1.427 3.552 1.29 3.619 1.151 3.68 1.006 3.743.863 3.799.71 3.851.559 3.901.405 3.95.244 3.992.081 4.033-.016 1.701-.044 1.691-.072 1.687-4.094-1.463-4.034-1.871-3.961-2.256-3.858-2.623-3.745-2.968-3.605-3.292-3.445-3.596-2.635-3.086-2.514-3.264-2.384-3.429-2.243-3.586-2.089-3.729-1.919-3.859-1.742-3.981-1.552-4.09-1.347-4.185-1.134-4.271-.91-4.346-.758-5.19-.388-5.042-.026-4.875.327-4.685.668-4.482zm39.606 119.454-1.599 3.781-1.75 3.701-1.9 3.615-2.045 3.523-2.185 3.433-2.319 3.33-2.453 3.231-2.579 3.126-2.706 3.016-2.825 2.9-2.942 2.785-3.054 2.66-3.162 2.538-3.267 2.408-3.367 2.272-2.387.534-2.419.416-2.444.29-5.021.184-4.814-.364-4.576-.887-4.305-1.378-4.004-1.846-3.672-2.28-3.308-2.689-2.897-3.05-2.474-3.393-2.017-3.708-1.536-3.995-1.025-4.253-.479-4.483.093-4.68.553-4.11.968-4.025 1.36-3.918 1.729-3.791 2.072-3.64 2.392-3.469 2.691-3.277 2.961-3.06 3.205-2.815 3.429-2.561 3.635-2.284 3.817-1.989 3.977-1.673 4.111-1.33 4.224-.97 4.311-.585 4.882-.172 4.688.353 4.466.85 4.209 1.32 3.927 1.764 3.615 2.177 3.271 2.571 3.076 3.131 2.625 3.512 2.137 3.864 1.612 4.184 1.051 4.473zM380.819 281.37l4.464.101 4.415.301 4.359.492 4.3.684 4.236.87 4.171 1.051 4.098 1.227 4.021 1.397-2.517 1.32-3.137 1.201-3.694 1.064-4.192.908-4.628.736-5.005.549-5.319.339-5.572.119-5.574-.119-5.32-.339-5.006-.549-4.626-.736-4.193-.908-3.694-1.064-3.137-1.201-2.517-1.32 4.022-1.397 4.097-1.227 4.17-1.051 4.237-.87 4.3-.684 4.359-.492 4.416-.301zm30.658 191.156-4.177 1.279-4.251 1.096-4.321.907-4.391.711-4.452.517-4.508.314-4.558.105-4.562-.105-4.509-.314-4.45-.517-4.388-.711-4.323-.907-4.252-1.096-4.175-1.279 3.614-1.463 3.919-1.277 4.194-1.077 4.439-.863 4.656-.633 4.841-.39 4.998-.134 4.996.134 4.841.39 4.655.633 4.439.863 4.194 1.077 3.918 1.277z"/><path d="M398.484 282.91q3.416.627 6.746 1.484l-24.266 5.991-.243 16.806 31.829 22.469h30.051l5.3-21.695c1.026.965 2.031 1.955 3.015 2.962l-5.043 20.647 21.43 30.02 10.345 2.391q.3 1.91.529 3.848l-11.105-2.564-13.587 34.349 13.73 25.988a103 103 0 0 1-2.126 3.748l-14.48-27.406h-29.165l-20.29 29.976 18.363 21.266c8.448-.051 15.817-.092 22.302-.128 1.209-.007 2.392-.018 3.551-.023a100 100 0 0 1-3.875 3.229c-6.428.238-13.74.514-22.09.826l-20.617 16.293 2.012 1.95q-1.499.314-3.015.58l-1.827-1.773H365.67l-1.825 1.771a96 96 0 0 1-3.013-.58l2.014-1.952-20.619-16.294-22.092-.826a98 98 0 0 1-3.871-3.229c1.158.005 2.338.015 3.549.022 6.487.036 13.854.077 22.303.128l18.335-21.23-19.232-30.126h-30.131l-14.543 27.524a97 97 0 0 1-2.127-3.749l13.73-25.985-13.587-34.349-11.102 2.564q.228-1.937.53-3.848l10.337-2.39 21.434-30.022-5.043-20.645a99 99 0 0 1 3.014-2.958l5.299 21.691h27.954l30.108-22.51.244-16.87-22.316-5.511a96 96 0 0 1 6.5-1.542l17.847 4.406zm-79.367 49.848-21.393 29.967 13.819 34.938h30.936l18.355-29.688-12.845-35.218zm144.706 29.971-21.397-29.971H414.13l-12.186 35.178 18.451 29.845h29.561zm-98.707 108.369h31.316l20.707-16.369-18.692-21.648h-35.348l-18.692 21.645zm-1.656-41.648h34.575l19.688-29.086-18.721-30.283H363.8l-18.816 30.433z"/><g fill="#fff"><path d="m378.845 309.807 31.654 22.345-11.883 34.297H364.14l-13.082-35.869zM358.085 469.65l-9.473-7.459 1.363-.382 1.118-.313 1.349-.393 9.594 7.579-1.371.323-1.169.322zM403.452 469.65l9.472-7.459-1.363-.382-1.117-.313-1.348-.393-9.596 7.579 1.371.323 1.169.322zM380.914 293.71l-.111 7.582-1.22.018-1.21.05-1.204.082.111-7.779 1.168.025 1.18.018 1.186.004h.067zM374.991 433.063h11.648l-.124-1.197-.084-1.21-.045-1.224h-11.141l-.045 1.224-.085 1.212zM414.23 387.826l-6.402-10.358-.973.72-.995.693-1.013.667 6.198 10.027 1.047-.606 1.063-.584zM354.582 378.076l-6.312 10.208 1.065.579 1.049.604 1.035.627 6.19-10.013-1.029-.641-1.01-.67zM329.021 329.672h10.602l-.364 1.128-.287.912-.342 1.049h-10.438l.305-1.114.242-.847zM432.582 329.672h-10.601l.363 1.128.286.912.342 1.049h10.438l-.304-1.114-.242-.847zM303.907 388.988l-5.039-12.698 1.12-.854 1.018-.795 1.086-.93 5.241 13.221-1.199.707-1.074.655zM457.669 388.988l5.039-12.698-1.121-.854-1.018-.795-1.087-.93-5.24 13.221 1.2.707 1.074.655z"/></g><path fill="none" stroke="#000" stroke-miterlimit="1" stroke-width=".474" d="M380.819 281.37c54 0 98.041 44.04 98.041 98.043 0 54.002-44.04 98.042-98.041 98.042-54.002 0-98.043-44.04-98.043-98.042s44.041-98.043 98.043-98.043z"/></svg>