<svg xmlns="http://www.w3.org/2000/svg" width="1000" height="1000" viewBox="0 0 1000 1000"><clipPath id="a"><path d="M370.835 369.191c20.159-15.523 55.094-23.45 55.094-23.45 76.591-24.189 52.407-94.729 52.407-94.729-2.688-8.067-6.046-30.91-6.046-30.91-7.393-65.169 20.154-105.481 20.154-105.481-16.125-15.453-30.234-36.952-30.234-36.952-39.64 14.109-91.375 12.695-91.375 12.695s-51.732 1.414-91.371-12.695c0 0-14.109 21.499-30.235 36.952 0 0 27.547 40.313 20.155 105.481 0 0-3.358 22.843-6.046 30.91 0 0-24.188 70.54 52.407 94.729 0 0 34.935 7.927 55.09 23.45"/></clipPath><path fill="#005bab" d="M401.32 926.84c62.562-48.174 170.98-72.775 170.98-72.775C809.997 778.996 734.944 560.08 734.944 560.08c-8.342-25.036-18.764-95.927-18.764-95.927-22.944-202.248 62.547-327.354 62.547-327.354-50.043-47.957-93.83-114.678-93.83-114.678C561.877 65.907 401.32 61.519 401.32 61.519s-160.547 4.388-283.564-39.398c0 0-43.786 66.72-93.832 114.678 0 0 85.49 125.109 62.55 327.354 0 0-10.422 70.891-18.764 95.927 0 0-75.066 218.916 162.642 293.985 0 0 108.418 24.601 170.968 72.776"/><path fill="none" stroke="#000" stroke-width="36.698178" d="M401.32 926.84c62.562-48.174 170.98-72.775 170.98-72.775C809.997 778.996 734.944 560.08 734.944 560.08c-8.342-25.036-18.764-95.927-18.764-95.927-22.944-202.248 62.547-327.354 62.547-327.354-50.043-47.957-93.83-114.678-93.83-114.678C561.877 65.907 401.32 61.519 401.32 61.519s-160.547 4.388-283.564-39.398c0 0-43.786 66.72-93.832 114.678 0 0 85.49 125.109 62.55 327.354 0 0-10.422 70.891-18.764 95.927 0 0-75.066 218.916 162.642 293.985 0 0 108.418 24.601 170.968 72.776z"/><path fill="#005bab" d="M401.32 926.84c62.562-48.174 170.98-72.775 170.98-72.775C809.997 778.996 734.944 560.08 734.944 560.08c-8.342-25.036-18.764-95.927-18.764-95.927-22.944-202.248 62.547-327.354 62.547-327.354-50.043-47.957-93.83-114.678-93.83-114.678C561.877 65.907 401.32 61.519 401.32 61.519s-160.547 4.388-283.564-39.398c0 0-43.786 66.72-93.832 114.678 0 0 85.49 125.109 62.55 327.354 0 0-10.422 70.891-18.764 95.927 0 0-75.066 218.916 162.642 293.985 0 0 108.418 24.601 170.968 72.776"/><path fill="none" stroke="#fd0" stroke-width="18.34753728" d="M401.32 926.84c62.562-48.174 170.98-72.775 170.98-72.775C809.997 778.996 734.944 560.08 734.944 560.08c-8.342-25.036-18.764-95.927-18.764-95.927-22.944-202.248 62.547-327.354 62.547-327.354-50.043-47.957-93.83-114.678-93.83-114.678C561.877 65.907 401.32 61.519 401.32 61.519s-160.547 4.388-283.564-39.398c0 0-43.786 66.72-93.832 114.678 0 0 85.49 125.109 62.55 327.354 0 0-10.422 70.891-18.764 95.927 0 0-75.066 218.916 162.642 293.985 0 0 108.418 24.601 170.968 72.776z"/><path fill="#005bab" d="M401.32 926.84c62.562-48.174 170.98-72.775 170.98-72.775C809.997 778.996 734.944 560.08 734.944 560.08c-8.342-25.036-18.764-95.927-18.764-95.927-22.944-202.248 62.547-327.354 62.547-327.354-50.043-47.957-93.83-114.678-93.83-114.678C561.877 65.907 401.32 61.519 401.32 61.519s-160.547 4.388-283.564-39.398c0 0-43.786 66.72-93.832 114.678 0 0 85.49 125.109 62.55 327.354 0 0-10.422 70.891-18.764 95.927 0 0-75.066 218.916 162.642 293.985 0 0 108.418 24.601 170.968 72.776"/><path fill="#fff" d="M86.762 117.8c164.994-67.894 306.232 6.12 306.232 6.12s1.641 188.847-159.58 278.41c0 0-136.488-61.796-148.024-277.73-.425-7.945 1.372-6.8 1.372-6.8"/><path fill="none" stroke="#000" stroke-width="5.00584872" d="M86.762 117.8c164.994-67.894 306.232 6.12 306.232 6.12s1.641 188.847-159.58 278.41c0 0-136.488-61.796-148.024-277.73-.425-7.945 1.372-6.8 1.372-6.8z"/><path fill="#fff" d="M98.707 127.852c152.053-62.562 282.22 5.626 282.22 5.626s1.509 174.035-147.059 256.555c0 0-125.76-56.932-136.408-255.921-.382-7.306 1.247-6.26 1.247-6.26"/><path fill="none" stroke="#000" stroke-width="5.00584872" d="M98.707 127.852c152.053-62.562 282.22 5.626 282.22 5.626s1.509 174.035-147.059 256.555c0 0-125.76-56.932-136.408-255.921-.382-7.306 1.247-6.26 1.247-6.26z"/><path d="M167.532 186.994c.466 2.815 2.247 2.43 1.387 5.056-.512 1.592-2.504 5.691-2.234 6.34.89 2.092 1.493 8.5 1.493 8.5l-9.714 20.911s-.739 2.24.754 3.74c1.48 1.493 8.221 1.865 9.698 2.61 1.508.738 2.247.37.754 1.871-1.492 1.493-4.478 3.734-4.102 5.974.378 2.241 1.492 4.479 1.492 4.479s-.378 4.863 1.118 5.974c1.492 1.114 4.478 1.871 4.478 4.109 0 2.24-4.103 5.983-2.61 10.092 0 0 2.985 5.22 14.57 5.605 0 0 9.714-2.626 14.192.735 4.482 3.358 1.676.602 6.35 6.722 4.841 6.35 11.567 6.35 12.324 7.473.738 1.115 6.65 6.425 8.584 20.918.739 5.604 26.516-4.11 36.968-23.912 1.856-3.507 6.35-14.177 22.05-19.412 0 0 3.349-.37 1.48-2.241-1.874-1.874-19.79-7.842-19.412-23.17.062-2.346 2.61-3.349 2.61-3.349s2.232-1.13 2.232-2.247c0-1.123-4.479-1.862-4.479-1.862s3.377-3.74 4.873-2.24c1.477 1.492 0-1.13 0-1.13l-2.626-3.349s-1.117-2.24.754-1.499c1.872.745 6.729 1.5 6.729 1.5l-.379-3.002s-3.364-.37-2.61-5.605c.739-5.22 3.349-2.24 4.087-.738.754 1.499-.344 16.802 5.233 22.407 5.598 5.61 15.16.993 17.919 6.35 5.232 10.092-.515 13.204-10.061 22.785-1.509 1.499 4.102 10.458 4.102 10.458s-18.673 16.427-20.92 16.802c-2.231.37 4.357 23.167 20.92 15.319 7.089-3.364 2.232-13.823 17.541-28.77 0 0 4.478-7.826 3.74-12.307-.739-4.479.738-16.442 0-17.935-.739-1.487-4.857-10.828-4.103-14.934.739-4.109-1.871-7.48-3.001-9.335-1.114-1.877-4.478-2.995-8.218-3.364-3.727-.37-11.573-1.499-12.324-4.124-.738-2.61-1.117-4.479 0-5.59 1.13-1.114 1.13-1.868 4.115-1.868 2.989 0 16.064-.37 20.545-11.57 4.478-11.215.36-30.258 15.685-52.671 1.524-2.22-2.61-6.344-2.61-6.344s-4.13.075-5.22 6.72c-.391 2.234-8.233 4.478-8.233 4.478s-.74-3.725-2.247-10.459c-.5-2.33-8.209-2.61-8.209-2.61l-1.114-2.24s2.97-4.11 1.114-6.35c-1.871-2.241-8.96-4.494-10.074.75-1.132 5.227 1.114 5.227 1.114 5.227s-13.077 8.59-12.339 10.822c.77 2.24 15.704 23.912 13.078 37.343-2.61 13.454-8.705 18.773-14.192 14.202-2.25-1.869 1.49-3.005 1.49-3.005l3.004-.735-2.25-3.743 4.478-2.98-2.985-2.99 4.465-3.359-3.708-4.1 3.708-4.48-7.448-8.219 1.49-4.109-1.872-1.865-1.87 1.108-1.1-1.108 1.478-3-7.089-2.98-6.35-5.605-3.934-2.985.574-2.995c-1.133-1.108-4.873.37-6.35-.37-1.493-.738-8.596-5.595-11.582-4.478-2.985 1.108-9.698-2.61-13.44-1.499-3.74 1.13-5.612-1.865-5.612-1.865s-5.235-.375-6.713 1.124c-1.492 1.499-1.886 3.733-3.36 2.24-1.509-1.499-5.975-.738-8.222 0-2.231.739-8.96 4.85-10.089 4.85-1.114 0-2.97-2.61-2.97-2.61l-4.118 3.35s-8.96 3.37-10.077 7.103c-1.133 3.74-3.001 8.59-6.74 12.7.009.006-7.747 13.3-5.86 24.56"/><path fill="#fff" d="M177.516 198.859c-1.297.369-2.247.735-1.493 2.048.739 1.313 2.427 2.244 2.806 3.168.363.944 1.117 3.939 1.312 4.864.18.927 1.118 2.057 1.493 1.499.379-.575.739-1.13.922-1.884.195-.739-.183-1.108.375-1.667.574-.574 1.133-.37 1.496-.943.379-.559.379-1.108.379-1.108s0-.76-1.133-1.13c-1.114-.37-1.477-.37-2.036-1.108-.577-.76-4.121-3.74-4.121-3.74M187.034 205.578c-1.102.369-1.297.943-.919 1.498.36.553 1.115.74 1.872.74.738 0 2.231.573 2.231.573s-.183 2.052.379 2.42c.558.37 2.61-.368 2.805-1.312.199-.943.723-1.871-.574-2.61-1.3-.75-5.22-1.496-5.794-1.31M187.292 212.992a1.06 1.06 0 0 0 1.055-1.065 1.056 1.056 0 0 0-2.11 0 1.066 1.066 0 0 0 1.055 1.065M232.599 217.532c-.587 1.176-1.114 2.427 0 2.796 1.132.385 1.132.385 2.247.385 1.117 0 .195-.385 1.492.37 1.313.738 2.806-.755 1.869-2.068-.935-1.297-1.13-.558-1.869-.744-.75-.18-3.36-1.493-3.74-.739M231.68 227.246c2.61 1.499 6.154 1.871 8.764-1.313 2.61-3.181 4.298-7.287 4.298-8.584 0-1.32 1.071-1.999 1.313-.574 1.114 6.734-3.544 11.582-3.544 11.582-4.677 2.805-9.91 1.871-11.026.943-2.232-1.868.195-2.054.195-2.054M172.839 182.615c-1.099 1.313-1.871 3.923-.739 5.028 1.114 1.133 22.398 10.083 47.256 5.425 2.973-.562 3.998 1.297 4.283 2.61 0 0-1.313 1.868-2.414 1.868-1.13 0-2.626.75-3.377.75-.754 0-1.868-.365-2.79-.365-.95 0-2.051 0-3 .366-.92.378-.92-.751-1.661-.751-.754 0-1.704.574-.391 1.682 1.312 1.13 2.805 1.679 3.74 1.313.921-.37 1.312-.37 2.805 0 1.493.366 2.805 1.114 4.478.928 1.676-.184 4.857.943 6.35.943s3.922 0 4.481-.385c.559-.37 4.103-7.457 10.648-7.647 6.53-.183 13.078 4.668 9.14 12.7-.935 1.899-2.806 4.102-2.806 4.102s.199 2.241 2.067.19c1.871-2.058 1.493-2.61 3.181-2.241 1.676.37 4.103 1.682 5.024 1.682h10.09s1.688.559 2.051-.202c.379-.738.95-1.48 0-2.051-.934-.543-.934-.354-2.231-.739-1.298-.369-10.648-4.109-11.78-3.74-1.1.37-1.478-1.666-.92-2.42.56-.748.92-.748 2.61-.928 1.689-.19 3.56.928 4.857 1.108 1.313.19 8.6 2.61 9.155 3.74.56 1.123.92 1.682.364 2.436-.559.745.195 1.856.558 1.297.391-.552 3.743-9.894 2.052-12.324-1.66-2.42-14.36-15.402-29.685-14.195-7.088.559-8.025-.37-9.155-.738 0 0-3.727-1.31-3.349-3.554.38-2.24 2.232-.19 2.986.183.754.37 2.051.202 2.051.202s1.496 0 1.133-.751c-.379-.764-2.247-2.06-3-2.24-.74-.193-.56-.37-1.314 0-.738.365-1.672.927-1.672.927s-.364-1.297-.935-1.502c-.558-.174-.558-1.114-1.114 0-.558 1.124-.754 2.256-1.312 2.051-.56-.167-.922-.549-.922-1.107s.738-1.487.738-1.487-.378-1.123-.934-1.313c-.558-.201-.558-.369-1.312-.369h-1.493s-.559.739-1.117.739c-.575 0-1.493-.944-1.493-.944s-.379-.928-1.133-.738c-.739.189-1.313.738-2.427.738-1.102 0-5.22-1.48-9.14-1.108-3.922.37-14.465 3.259-23.151-5.421-.934-.928-.559-1.872.183-2.241 0 0 1.114-.559 1.871.19.739.753 2.61 1.864 3.38 2.42.739.574 5.4 2.051 6.319 2.051.95 0 2.262.76 2.82.202.56-.574.92-.944.184-1.682-.739-.739-1.133-1.13-2.43-1.682-1.313-.559-2.052-.944-3.361-1.313-1.297-.37-14.195-5.406-16.064-5.037-1.871.37-.738 2.24-2.051 2.98-1.297.738-5.611 3.37-4.298 5.235 1.312 1.871 3.36-.568 3.922-1.123.56-.56 2.821.943 1.689 2.05-1.13 1.13-8.975 6.735-8.581 7.85.363 1.107 2.051 1.874 3.907 1.312 1.868-.574 11.914-2.225 19.049 4.478 3 2.79 13.633 3.17 13.633 3.17s5.084-1.236 16.607 2.047c1.312.37.394 2.43.394 2.43s-18.056-2.724-21.116-.177c-1.117.931-7.827-2.256-9.14-2.048-1.297.165-11.402-3.932-13.257-3.553-1.872.37-4.677-.764-5.416-.764-.766.007-3.575-.543-3.575-.543"/><path d="M240.066 186.538c-.724.943-1.673 1.868-.544 2.61 1.118.751 16.244 6.533 16.244 6.533l1.477-.931 1.871 1.49 6.546 2.063s.934 1.487 2.231 1.871c1.313.37 3.56 1.856 4.103 2.049.574.189 1.688-.196 1.871-.934.196-.745-.18-1.5-.919-1.869s-13.44-16.625-25.581-14.192l-.196 1.682s9.155 2.418 9.714 3.181c.559.736 1.493 1.667-.183 2.049-1.688.366-16.634-5.602-16.634-5.602"/><g fill="#fff"><path d="M281.167 204.079c-1.13.189-2.066.574-2.066 1.499 0 .943.375 1.868 0 2.436-.364.543-.755.928.375 1.297 1.117.375 2.235.559 2.235 0 0-.552.558-.754.375-1.682-.18-.928.183-1.493.183-1.493l-.558-1.688zM325.751 149.514c.938 0 1.723-1.07 1.723-2.383s-.785-2.378-1.723-2.378c-.95 0-1.719 1.065-1.719 2.378.003 1.312.773 2.383 1.72 2.383M292.178 141.34s.575 4.298 1.493 4.298 7.83-4.298 7.647-5.037c-.183-.754-.363-1.871-1.114-1.871-.754 0-8.026 2.61-8.026 2.61M307.866 153.11c.36.74.739 2.61.559 3.17-.199.57-.199 2.05.559 1.682.738-.37 2.79-2.427 2.79-2.98 0-.558-.168-2.057-.74-2.442-.558-.37-.92-.559-1.48-.37-.574.187-1.688.94-1.688.94"/><path d="M288.631 153.294c.546-.568 12.128-10.083 18.103-10.083 5.986 0 2.818 4.667 2.818 4.667s-7.936 5.497-8.417 7.104c-.754 2.42 4.857 22.76 4.301 24.074 0 0 1.298 3.18 2.427-1.108 1.114-4.292-2.427-13.454-2.427-13.454s.934-2.42 4.854-4.292c3.907-1.871 2.61-2.24 2.986-2.98.378-.76 6.337-5.052 9.713-3.553 3.365 1.493-7.662 5.047-10.272 39.399-1.024 13.468-13.453 14.946-13.453 14.946s-1.298-1.493-.199-2.436c1.133-.928 7.482-4.293 9.91-11.198 1.129-3.184-1.313-2.243-2.052-1.874-.754.378-6.545 9.714-8.6 9.714 0 0-1.868.748-1.49-1.49.392-2.24 7.769-7.473 7.48-13.823-.199-4.112-2.61 0-2.61 0s-5.052 9.9-6.005 9.522c-.919-.385-2.033-1.12-1.297-2.626 0 0 10.74-9.273-4.659-38.47-1.17-2.222-1.11-2.04-1.11-2.04M285.18 231.814c-.844 1.409-.288 2.796.559 3.65.832.831 1.961 1.666 2.79 1.666.844 0 1.688-.558 1.13-1.946-.556-1.409-4.479-3.37-4.479-3.37M289.928 224.25c-1.4 1.683-1.4 3.086-.558 4.203.844 1.13 5.325 5.325 5.325 5.325s1.403 1.41.273 1.689c-1.117.279-1.96-.28-2.218.558-.305.832-2.263 0-.575 1.388 1.673 1.402 8.401 1.96 8.401 1.96l3.091 1.13s-.574-1.967-.285-2.796c.285-.85 1.114-1.13 1.114-1.961 0-.85 1.403-3.37 1.403-3.37s1.387 1.682 2.247 1.682c.831 0 2.504-.832 1.676-2.514-.845-1.688-4.479-5.037-10.934-5.332-2.532-.105-8.96-1.961-8.96-1.961M294.695 269.63l16.802-22.687s1.676-.838 2.25 1.4c.559 2.24-.288 20.166.27 21.004.574.838-1.672 3.64-1.672 4.494 0 .838-1.692-.295-2.52.263-.845.575-1.962 1.12-1.962 1.962 0 .85-1.403 1.13-1.403 1.13l-2.79 1.387.544 1.977.288 1.961s.27 1.946 0 2.78c-.288.845-1.403 1.698-1.403 1.698s-.558-1.13-.844-2.256c-.273-1.102-1.117-8.1-7.56-15.114M277.338 296.52c-.922.665 1.098 8.954 6.998 11.207 5.884 2.24 2.532-1.682 2.532-1.682l-3.95-4.478s.304-1.403 1.13-1.124c.844.273 4.48 0 4.48 0l-.56-1.114s.56.559 1.402.264c.844-.264 1.691-3.07 1.691-3.07l1.689-.279.257-1.682 2.802-1.409.845-1.108 3.634-.558s-.543-8.96-2.232-9.81c0 0-.906-.829-1.778.037-.86.86-12.445 10.949-13.44 11.191-.99.245-5.171 3.367-5.5 3.616M296.657 131.452c-.953 0-1.298 2.8-.376 3.169.95.375 2.427 1.114 2.787.375.379-.745.77-.559.77-1.499 0-.928-.77-2.045-.77-2.045zM715.89 117.8c-165.01-67.894-306.246 6.12-306.246 6.12s-1.63 188.847 159.578 278.41c0 0 136.486-61.796 148.025-277.73.437-7.945-1.356-6.8-1.356-6.8"/></g><path fill="none" stroke="#000" stroke-width="5.00584872" d="M715.89 117.8c-165.01-67.894-306.246 6.12-306.246 6.12s-1.63 188.847 159.578 278.41c0 0 136.486-61.796 148.025-277.73.437-7.945-1.356-6.8-1.356-6.8z"/><path fill="#fff" d="M703.949 127.852c-152.084-62.562-282.22 5.626-282.22 5.626s-1.506 174.035 147.062 256.555c0 0 125.76-56.932 136.411-255.921.357-7.306-1.253-6.26-1.253-6.26"/><path fill="none" stroke="#000" stroke-width="5.00584872" d="M703.949 127.852c-152.084-62.562-282.22 5.626-282.22 5.626s-1.506 174.035 147.062 256.555c0 0 125.76-56.932 136.411-255.921.357-7.306-1.253-6.26-1.253-6.26z"/><path fill="#fff" d="m440.402 595.754 43.982-3.032s-3.02-110.74-97.076-83.442c0 0-56.532 7.588-62.398 113.018h56.126s-5.853-67.497 29.033-69.018c34.885-1.524 30.333 42.474 30.333 42.474"/><path fill="none" stroke="#000" stroke-width="13.344792" d="m440.402 595.754 43.982-3.032s-3.02-110.74-97.076-83.442c0 0-56.532 7.588-62.398 113.018h56.126s-5.853-67.497 29.033-69.018c34.885-1.524 30.333 42.474 30.333 42.474z"/><path fill="#fff" d="m440.402 648.844 43.982 3.048s-3.02 110.724-97.076 83.423c0 0-56.532-7.584-62.398-113.017h56.126s-5.853 67.512 29.033 69.02c34.885 1.527 30.333-42.474 30.333-42.474"/><path fill="none" stroke="#000" stroke-width="13.344792" d="m440.402 648.844 43.982 3.048s-3.02 110.724-97.076 83.423c0 0-56.532-7.584-62.398-113.017h56.126s-5.853 67.512 29.033 69.02c34.885 1.527 30.333-42.474 30.333-42.474z"/><path fill="#fff" d="M670.764 622.3s33.588-18.955 33.588-56.876c0-37.952-27.3-57.646-40.95-57.646H554.171V622.3z"/><path fill="none" stroke="#000" stroke-width="13.344792" d="M670.764 622.3s33.588-18.955 33.588-56.876c0-37.952-27.3-57.646-40.95-57.646H554.171V622.3z"/><path fill="#fff" d="M670.764 622.3s33.588 18.96 33.588 56.911c0 37.918-27.3 57.616-40.95 57.616H554.171V622.3z"/><path fill="none" stroke="#000" stroke-width="13.344792" d="M670.764 622.3s33.588 18.96 33.588 56.911c0 37.918-27.3 57.616-40.95 57.616H554.171V622.3z"/><path fill="#fff" d="m440.402 595.754 43.982-3.032s-3.02-110.74-97.076-83.442c0 0-56.532 7.588-62.398 113.018h56.126s-5.853-67.497 29.033-69.018c34.885-1.524 30.333 42.474 30.333 42.474M440.402 648.844l43.982 3.048s-3.02 110.724-97.076 83.423c0 0-56.532-7.584-62.398-113.017h56.126s-5.853 67.512 29.033 69.02c34.885 1.527 30.333-42.474 30.333-42.474M670.764 622.3s33.588-18.955 33.588-56.876c0-37.952-27.3-57.646-40.95-57.646H554.171V622.3zM670.764 622.3s33.588 18.96 33.588 56.911c0 37.918-27.3 57.616-40.95 57.616H554.171V622.3z"/><path fill="#005bab" d="M630.025 597.278c14.238 0 25.79-10.875 25.79-24.285 0-13.394-11.555-24.25-25.79-24.25h-24.27v48.538h24.27"/><path fill="none" stroke="#000" stroke-width="13.344792" d="M630.025 597.278c14.238 0 25.79-10.875 25.79-24.285 0-13.394-11.555-24.25-25.79-24.25h-24.27v48.538h24.27z"/><path fill="#005bab" d="M630.025 647.324c14.238 0 25.79 10.874 25.79 24.281 0 13.394-11.555 24.253-25.79 24.253h-24.27v-48.537h24.27"/><path fill="none" stroke="#000" stroke-width="13.344792" d="M630.025 647.324c14.238 0 25.79 10.874 25.79 24.281 0 13.394-11.555 24.253-25.79 24.253h-24.27v-48.537h24.27z"/><path fill="#005bab" d="M630.025 597.278c14.238 0 25.79-10.875 25.79-24.285 0-13.394-11.555-24.25-25.79-24.25h-24.27v48.538h24.27M630.025 647.324c14.238 0 25.79 10.874 25.79 24.281 0 13.394-11.555 24.253-25.79 24.253h-24.27v-48.537h24.27"/><g fill="none" clip-path="url(#a)" transform="translate(-749.543 -218.92)scale(3.10344)"><path stroke="#000" stroke-width="5.912" d="M266.002 215.585h209.224m-141.654 0v139.206m74.53-139.206v139.206"/><path stroke="#fff" stroke-width="2.687" d="M266.002 215.585h209.224m-141.654 0v139.206m74.53-139.206v139.206"/></g><path fill="none" stroke="#000" stroke-width="13.344792" d="M210.592 574.228s-7.631-22.413-31.841-21.975c-24.222.453-23.772 15.703-23.772 15.703s-2.716 16.138 29.14 23.77c31.842 7.634 74.902 11.206 75.355 73.56.45 62.34-55.626 77.636-85.43 77.636-29.803 0-66.607-14.844-79.626-64.195l47.104-13.438s10.316 28.251 39.004 28.251c0 0 25.113 1.778 25.113-19.31 0 0 2.685-14.781-29.141-21.96-31.841-7.18-75.355-24.675-74.464-71.298.906-46.666 41.72-76.257 73.56-75.807 31.842.437 66.38 18.384 76.7 51.582z"/><path fill="#fff" d="M210.592 574.228s-7.631-22.413-31.841-21.975c-24.222.453-23.772 15.703-23.772 15.703s-2.716 16.138 29.14 23.77c31.842 7.634 74.902 11.206 75.355 73.56.45 62.34-55.626 77.636-85.43 77.636-29.803 0-66.607-14.844-79.626-64.195l47.104-13.438s10.316 28.251 39.004 28.251c0 0 25.113 1.778 25.113-19.31 0 0 2.685-14.781-29.141-21.96-31.841-7.18-75.355-24.675-74.464-71.298.906-46.666 41.72-76.257 73.56-75.807 31.842.437 66.38 18.384 76.7 51.582z"/><path fill="#fd0" d="M621.773 200.584v88.12s-13.032 44.003-54.224 57.313c-41.207-13.31-54.254-57.314-54.254-57.314v-88.119"/><path fill="#006933" d="M527.28 272.872s-8.222 4.125-7.437 10.537c0 0-.27 6.687-3.845 7.193-3.618.512-10.027-2.563-11.324 1.018-1.282 3.603-2.821 5.406.527 10.027 3.334 4.63.512 3.597-.273 5.913-.77 2.315.785 4.372 3.364 6.93 2.564 2.578 4.088 10.796 7.436 9.25 3.33-1.545 9.76 1.283 11.042-1.033s8.733.77 9.776-3.845c1.024-4.636 4.357-.264 4.627-3.597.242-3.333 4.873 1.018 3.063-5.654-1.78-6.666 1.04-2.051 4.373.776 3.349 2.82 4.118 7.194 8.479 4.103 4.372-3.07 6.424-3.597 8.987-4.103 2.58-.512 2.322-4.11-1.008-7.706-3.349-3.597 1.613-1.946 2.489-1.871v-8.74s-7.632-2.504-11.48-.189c-3.86 2.315-5.924 1.81-8.233.512-2.306-1.282-6.424-1.794-7.706-1.53-1.282.248-1.54-.77-2.322-2.827-.754-2.052-2.051-4.367-2.051-4.367l.27-2.321z"/><path fill="#fd0" d="m606.525 209.997 13.243-9.562s-10.3-12.646-52.215-12.572c-41.95-.074-52.25 12.572-52.25 12.572l13.246 9.562"/><path fill="none" stroke="#000" stroke-width="3.86067936" d="m606.525 209.997 13.243-9.562s-10.3-12.646-52.215-12.572c-41.95-.074-52.25 12.572-52.25 12.572l13.246 9.562"/><path d="M567.55 135.63s44.857-2.884 58.099 25.82c0 0-9.562 14.722-3.678 26.469 0 0 4.404 12.513 20.588 5.161 0 0 17.678-9.565 17.678 3.68l1.464 5.143 6.608-3.68s9.561-15.45-4.407-19.118c-13.981-3.68-17.646 0-17.646 0s-13.981 1.462-3.693-11.048c0 0 8.841-8.817-.724-20.588 0 0-15.46-35.463-74.283-35.386-58.873-.074-74.315 35.386-74.315 35.386-9.562 11.771-.739 20.588-.739 20.588 10.3 12.51-3.68 11.048-3.68 11.048s-3.666-3.68-17.647 0c-13.98 3.672-4.403 19.117-4.403 19.117l6.607 3.681 1.48-5.142c0-13.246 17.646-3.681 17.646-3.681 16.185 7.352 20.607-5.161 20.607-5.161 5.884-11.747-3.68-26.47-3.68-26.47 13.232-28.703 58.117-25.82 58.117-25.82"/><path fill="none" stroke="#fff" stroke-width="4.71102192" d="M567.55 135.63s44.857-2.884 58.099 25.82c0 0-9.562 14.722-3.678 26.469 0 0 4.404 12.513 20.588 5.161 0 0 17.678-9.565 17.678 3.68l1.464 5.143 6.608-3.68s9.561-15.45-4.407-19.118c-13.981-3.68-17.646 0-17.646 0s-13.981 1.462-3.693-11.048c0 0 8.841-8.817-.724-20.588 0 0-15.46-35.463-74.283-35.386-58.873-.074-74.315 35.386-74.315 35.386-9.562 11.771-.739 20.588-.739 20.588 10.3 12.51-3.68 11.048-3.68 11.048s-3.666-3.68-17.647 0c-13.98 3.672-4.403 19.117-4.403 19.117l6.607 3.681 1.48-5.142c0-13.246 17.646-3.681 17.646-3.681 16.185 7.352 20.607-5.161 20.607-5.161 5.884-11.747-3.68-26.47-3.68-26.47 13.232-28.703 58.117-25.82 58.117-25.82z"/><path fill="#fff" d="m630.791 173.218-3.68 1.471s-2.204 13.975 6.638 16.184c0 0 16.169-6.62 20.573-6.62 0-.002-24.254 7.365-23.53-11.035M567.55 129c52.215-.074 69.864 33.915 69.864 33.915l2.958-5.143c-25.027-45.602-72.823-37.586-72.823-37.586s-47.83-8.016-72.853 37.586l2.955 5.143c.003 0 17.652-33.99 69.898-33.915"/><path d="M577.837 126.145c0 2.427 2.29 4.42 5.158 4.42 2.837 0 5.143-1.993 5.143-4.42 0-2.445-2.306-4.422-5.143-4.422-2.867 0-5.158 1.973-5.158 4.422M596.225 131.657c0 1.825 2.641 3.308 5.884 3.308 3.256 0 5.881-1.487 5.881-3.308 0-1.834-2.625-3.302-5.88-3.302-3.247-.003-5.885 1.468-5.885 3.302M614.622 141.588c0 1.22 1.146 2.21 2.564 2.21s2.579-.987 2.579-2.21-1.16-2.21-2.58-2.21-2.563.99-2.563 2.21M557.234 126.145c0 2.427-2.31 4.42-5.143 4.42-2.852 0-5.145-1.993-5.145-4.42 0-2.445 2.293-4.422 5.145-4.422 2.834 0 5.143 1.973 5.143 4.422M538.846 131.657c0 1.825-2.641 3.308-5.884 3.308-3.259 0-5.881-1.487-5.881-3.308 0-1.834 2.625-3.302 5.88-3.302 3.247-.003 5.885 1.468 5.885 3.302M520.473 141.588c0 1.22-1.16 2.21-2.61 2.21-1.402 0-2.563-.987-2.563-2.21s1.16-2.21 2.563-2.21c1.45 0 2.61.99 2.61 2.21"/><path fill="#fff" d="m504.261 173.218 3.696 1.471s2.185 13.975-6.622 16.184c0 0-16.185-6.62-20.607-6.62.003-.002 24.272 7.365 23.533-11.035"/><path fill="none" stroke="#000" stroke-width="3.86067936" d="m537.384 162.915-2.216-6.623 11.778-3.68 3.668 5.886m-23.533 24.282s11.765-9.714 40.468-9.636m36.773 20.66 13.984-33.093-5.896-2.939-5.881 6.614-4.42-4.404-4.407 2.933-10.284-1.465-5.912-6.63-2.2-5.883-11.75-.062-11.797.062-2.187 5.884-5.881 6.629-10.3 1.465-4.42-2.933-4.42 4.404-5.88-6.614-5.884 2.94 13.965 33.091m66.947-30.888 2.204-6.623-11.765-3.68-3.681 5.886m23.53 24.282s-11.762-9.714-40.434-9.636"/><path d="m596.225 176.896 1.477-8.839-6.62-1.465-5.16 8.833-11.027-.74s2.204-10.442-7.342-11.106c-9.578.664-7.377 11.107-7.377 11.107l-11.027.739-5.142-8.833-6.623 1.465 1.465 8.839"/><path fill="none" stroke="#000" stroke-width="3.86067936" d="M567.55 208.557h-39.005v62.488s1.48 17.518 39.004 16.857"/><path d="m530.746 193.803 5.896 8.842 18.388-14.723"/><path fill="none" stroke="#000" stroke-width="3.86067936" d="m530.746 193.803 5.896 8.842 18.388-14.723"/><path d="m604.322 193.803-5.881 8.842-18.403-14.723"/><path fill="none" stroke="#000" stroke-width="3.86067936" d="m604.322 193.803-5.881 8.842-18.403-14.723"/><path d="M577.099 207.064s2.203-11.185-9.546-11.107c-11.797-.075-9.578 11.107-9.578 11.107"/><path fill="none" stroke="#000" stroke-width="3.86067936" d="M577.099 207.064s2.203-11.185-9.546-11.107c-11.797-.075-9.578 11.107-9.578 11.107m-27.23 70.613 11.058-27.96 10.288 8.091-2.942 30.169m-7.346-38.26-.75-16.168 11.041-2.948v27.21m6.617-11.768 8.842-.807m36.77 32.44-11.027-27.958-10.3 8.09 2.923 30.169m7.377-38.26.723-16.168-11.027-2.948v27.21m.003-27.21s-5.896-3.83-15.446-3.017c-9.577-.816-15.458 3.017-15.458 3.017m24.266 15.442-8.808-.807"/><path d="m583.718 285.767-8.084-16.184-8.085-.81-8.1.81-8.08 16.184s14.688 2.933 32.35 0"/><path fill="none" stroke="#000" stroke-width="3.86067936" d="m583.718 285.767-8.084-16.184-8.085-.81-8.1.81-8.08 16.184s14.688 2.933 32.35 0z"/><path d="m553.568 254.876 8.824-9.578-.74-16.907-9.56 5.158z"/><path fill="none" stroke="#000" stroke-width="3.86067936" d="m553.568 254.876 8.827-9.578-.739-16.907-9.562 5.158zm39.728-5.158.723-16.17-11.027-2.947v27.21"/><path d="m581.502 254.876-8.807-9.578.739-16.907 9.561 5.158z"/><path fill="none" stroke="#000" stroke-width="3.86067936" d="m572.695 245.298.739-16.907 9.561 5.158-1.493 21.327z"/><path fill="#006933" d="M501.338 223.248s-.497-1.62-1.602-3.46c-1.626-2.812-4.63-6.145-9.232-5.173-.528.105-1.1.295-1.689.527 0 0-1.235-4.419-4.556-8.159a15.7 15.7 0 0 0-3.029-2.7c-2.097-1.412-4.676-2.377-7.857-2.377 0 0-3.439 5.264-5.854 11.533-2.187 5.685-3.56 12.218-.754 16.417 0 0-.785.881-1.762 2.306-.966 1.433-2.157 3.426-2.973 5.679-1.537 4.26-1.748 9.403 3.258 13.35 0 0 6.486 5.423 7.408 8.8.152.576.152 1.08-.047 1.501 0 0-5.157 7.368.724 13.236 0 0 .422 1.344 1.235 3.153.422.919.95 1.993 1.567 3.054 1.738 2.964 4.27 5.95 7.498 6.303 0 0 2.64 2.126 5.415 3.175 1.84.701 3.724.95 4.885-.227 0 0 1.856-1.101 3.665-2.7 2.114-1.87 4.134-4.478 2.958-6.861 0 0 3.454-1.508 5.564-4.525 1.797-2.563 2.626-6.207-.406-10.937 0 0 .89-4.093.86-8.487-.016-2.626-.395-5.366-1.48-7.402-1.115-2.073-2.974-3.43-6.006-3.228 0 0 3.83-6.396 5.639-12.42 1.592-5.16 1.666-10.055-3.43-10.378"/><path fill="none" stroke="#699174" stroke-linecap="round" stroke-width="3.86067936" d="M476.327 212.945s6.607 10.3 5.884 13.236c-.738 2.948-.738 10.285 2.204 13.975 2.939 3.68 7.358 11.036 5.896 13.981-1.496 2.948-2.219 13.975 0 17.655 2.185 3.675 5.884 15.446 3.665 18.394m-24.51-52.513c1.297-1.018 7.209 1.788 7.72 3.333.513 1.561 2.564 5.912 4.87 5.67 2.309-.263 6.17 5.633 6.17 5.633s1.855 1.297 1.855 2.579m6.127-25.939c.239 3.582-6.955 8.724-6.955 8.724s-3.091 1.788-3.845 3.845m6.048 33.67s-8.627.512-9.909-1.804c-1.282-2.308-3.603-3.606-5.127-4.093m13.317 1.443s8.264-1.977 8.507-5.574c.254-3.593 1.297-6.688 2.063-7.442m30.32 20.809s-4.63 2.82-3.348 4.63c1.282 1.794 1.536 3.845 1.282 5.897-.242 2.057 0 3.603-2.051 5.654-2.036 2.067-3.588 2.315-3.588 5.912 0 3.603-1.812 5.39-1.812 5.39s-4.358 4.616-4.87 7.458c-.512 2.812-.77 2.564-2.82 2.812m-2.567-14.633s7.181.258 7.95 2.58c.77 2.3 1.04 2.82 2.822 5.12 1.81 2.321 3.09 1.81 3.09 4.388m-5.387-18.006s5.897.264 6.936 4.894c1.012 4.621 1.54 3.603 4.103 3.846 2.564.263 5.127 4.372 6.17 6.687m-11.31-26.205s5.143 8.727 7.195 9.76c2.051 1.018 5.142-1.809 8.475 2.828 3.333 4.63 5.897 1.033 7.706 1.033 1.794 0 10.542-.264 10.797-2.051.257-1.81.257-2.322.257-3.091m-1.551 13.869s-5.64-1.282-6.154-4.11c-.512-2.82 2.305-3.068-3.349-4.614m-15.157-13.103s-3.349 6.673-1.794 8.47m10.272 11.566s2.31-5.39-1.024-7.97"/><path fill="#006933" d="M607.792 272.872s8.218 4.125 7.448 10.537c0 0 .258 6.687 3.86 7.193 3.576.512 10.003-2.563 11.3 1.018 1.266 3.603 2.821 5.406-.512 10.027-3.348 4.63-.512 3.597.255 5.913.77 2.315-.767 4.372-3.349 6.93-2.548 2.578-4.115 10.796-7.448 9.25s-9.76 1.283-11.042-1.033-8.736.77-9.773-3.845c-1.024-4.636-4.357-.264-4.615-3.597-.254-3.333-4.885 1.018-3.075-5.654 1.794-6.666-1.043-2.051-4.373.776-3.349 2.82-4.103 7.194-8.479 4.103-4.375-3.07-6.424-3.597-8.987-4.103-2.582-.512-2.325-4.11 1.008-7.706 3.35-3.597-1.616-1.946-2.457-1.871v-8.74s7.6-2.504 11.46-.189c3.846 2.315 5.913 1.81 8.218.512 2.31-1.282 6.428-1.794 7.71-1.53 1.281.248 1.551-.77 2.32-2.827.755-2.052 2.052-4.367 2.052-4.367l-.257-2.321zM646.253 215.54s3.668-13.252 15.448-13.252c0 0 12.489 19.133 6.608 27.971 0 0 11.777 13.236 1.49 21.327 0 0-8.84 7.355-7.374 10.303 0 0 5.157 7.352-.724 13.237 0 0-3.683 11.77-10.3 12.494 0 0-7.361 5.896-10.303 2.948 0 0-8.823-5.142-6.604-9.561 0 0-11.797-5.158-5.158-15.45 0 0-4.423-19.855 6.62-19.117 0 0-13.255-22.087-2.201-22.813-.006.006 3.659-11.765 12.498-8.087"/><path fill="none" stroke="#699174" stroke-linecap="round" stroke-width="3.86067936" d="M658.74 212.945s-6.606 10.3-5.883 13.236c.738 2.948.738 10.285-2.2 13.975-2.943 3.68-7.362 11.036-5.882 13.981 1.478 2.948 2.2 13.975 0 17.655-2.219 3.675-5.868 15.446-3.68 18.394m24.495-52.513c-1.282-1.018-7.194 1.788-7.706 3.333-.515 1.561-2.563 5.912-4.872 5.67-2.306-.263-6.167 5.633-6.167 5.633s-1.676 1.002-1.676 2.3m-6.29-25.66c-.258 3.582 6.92 8.724 6.92 8.724s3.091 1.788 3.861 3.845m-6.514 33.797s9.08.385 10.378-1.93c1.282-2.31 3.606-3.607 5.127-4.094m-13.637 1.974s-7.932-2.508-8.19-6.105c-.257-3.593-1.297-6.688-2.067-7.442m-30.314 20.809s4.63 2.82 3.349 4.63c-1.298 1.794-1.54 3.845-1.298 5.897.27 2.057 0 3.603 2.067 5.654 2.064 2.067 3.603 2.315 3.603 5.912 0 3.603 1.794 5.39 1.794 5.39s4.36 4.616 4.873 7.458c.512 2.812.785 2.564 2.833 2.812m2.582-14.633s-7.19.258-7.976 2.58c-.77 2.3-1.027 2.82-2.836 5.12-1.794 2.321-3.076 1.81-3.076 4.388m5.41-18.006s-5.925.264-6.952 4.894c-1.024 4.621-1.552 3.603-4.115 3.846-2.567.263-5.13 4.372-6.17 6.687m11.312-26.205s-5.142 8.727-7.194 9.76c-2.051 1.018-5.142-1.809-8.475 2.828-3.333 4.63-5.912 1.033-7.706 1.033-1.812 0-10.53-.264-10.8-2.051-.254-1.81-.254-2.322-.254-3.091m1.548 13.869s5.642-1.282 6.154-4.11c.528-2.82-2.309-3.068 3.349-4.614m15.157-13.103s3.333 6.673 1.794 8.47m-10.273 11.566s-2.305-5.39 1.028-7.97"/><path fill="#fd0" d="M513.025 232.373s.739-14.903-6.697-21.607c0 0-2.235-6.703 8.929-13.41M621.05 232.373s-.739-14.903 6.697-21.607c0 0 2.25-6.703-8.944-13.41"/><path fill="none" stroke="#000" stroke-width="3.86067936" d="m567.55 208.557 38.975-.844v63.332s-1.48 17.518-38.976 16.857"/><path d="m532.316 196.19-5.235-13.41 8.447-4.851 15.583-3.228 20.95-.527 21.464 1.607 15.58 8.588-8.585 9.67-35.987-5.897z"/><path fill="none" stroke="#000" stroke-width="3.86067936" d="m593.525 175.781 15.58 8.588-8.585 9.67-35.987-5.897-32.217 8.048-5.235-13.41 8.447-4.851 15.583-3.228 20.95-.527z"/><path fill="#699174" d="M481.2 214.748c1.505 3.107 1.343 6.303-.38 7.126-1.718.831-4.328-1.024-5.821-4.125-1.49-3.106-1.328-6.287.378-7.12 1.72-.834 4.33 1.019 5.822 4.12M474.217 235.094c2.697 2.142 3.935 5.078 2.759 6.576-1.192 1.487-4.342.972-7.045-1.17-2.7-2.147-3.938-5.098-2.747-6.597 1.167-1.484 4.317-.956 7.033 1.191M499.752 231.882c-1.403 3.147-3.966 5.062-5.701 4.277s-1.993-3.966-.559-7.104c1.418-3.153 3.966-5.068 5.701-4.283 1.735.792 2.008 3.973.559 7.11M503.96 262.997c-1.524 3.11-4.134 4.95-5.822 4.11-1.738-.83-1.9-4.01-.394-7.12 1.524-3.107 4.118-4.938 5.837-4.125 1.707.842 1.872 4.038.379 7.135M480.973 267.891c2.653 2.195 3.83 5.183 2.61 6.648-1.207 1.471-4.342.881-6.998-1.328-2.67-2.198-3.83-5.158-2.626-6.632 1.223-1.459 4.357-.872 7.014 1.312M654.368 214.953c-1.524 3.107-1.344 6.288.36 7.12 1.722.837 4.332-1.019 5.822-4.125 1.496-3.1 1.328-6.297-.375-7.135-1.704-.816-4.314 1.033-5.807 4.14M661.335 235.29c-2.7 2.135-3.938 5.083-2.743 6.567 1.176 1.492 4.33.971 7.03-1.177 2.712-2.147 3.937-5.083 2.758-6.576-1.176-1.483-4.33-.962-7.045 1.186M635.803 232.078c1.415 3.153 3.982 5.052 5.717 4.276 1.72-.785 1.992-3.966.558-7.119-1.433-3.131-3.981-5.046-5.716-4.277-1.738.792-1.977 3.976-.559 7.12M631.607 263.19c1.509 3.106 4.119 4.937 5.823 4.109 1.719-.826 1.883-4.022.378-7.104-1.493-3.125-4.118-4.966-5.825-4.125-1.72.826-1.884 4.01-.376 7.12M654.58 268.08c-2.654 2.213-3.83 5.193-2.61 6.648 1.206 1.474 4.34.872 6.997-1.312 2.67-2.195 3.846-5.174 2.641-6.645-1.22-1.474-4.357-.869-7.029 1.31"/></svg>