<svg xmlns="http://www.w3.org/2000/svg" viewBox="0 0 660 660"><path fill="#034ea2" d="M12.665 155.327v194.681l129.625-27.437 26.637-21.714 65.166-41.124 19.216-.249 17.838 16.145 41.33 51.213 3.506 6.776-1.876 5.94-4.855 1.374-57.203-21.265-21.99 19.947 9.406 6.705 76.68 7.902 158.276 25.612-.785 5.649-84.307-.353-178.471 7.212-163.885 83.448v29.741c0 15.999 13.062 29.062 29.061 29.062h543.067c15.997 0 29.06-13.063 29.06-29.062V155.327c0-15.998-13.063-29.06-29.06-29.06H41.725c-15.976-.001-29.06 13.087-29.06 29.06"/><path fill="#e97724" d="m619.071 155.327.029 350.535c-71.628 0-543.398.145-543.398-.331 0-4.733-.001-12.597-.004-22.851l140.724-73.565 264.988-14.268 16.659 18.181 5.814-.897-11.425-41.444-164.813-47.813-32.384-52.997-48.497-48.633-40.305-28.125-21.303 13.154 19.435 18.75-9.124 5.76-19.763-18.688-20.879 12.891 20.669 18.385-9.228 5.816-21.476-18.06-21.66 13.371 22.022 17.959-8.581 5.446-22.038-18.099-24.387 15.122 23.03 13.941 12.381 4.405 6.948 5.47.233 6.59-48.523 12.347-42.836 3.075-.016-155.397z"/></svg>