<svg xmlns="http://www.w3.org/2000/svg" xml:space="preserve" width="500" height="500" viewBox="0 0 500 500"><path fill="#274e9b" d="M250 0c138.071 0 250 111.929 250 250 0 138.07-111.929 250-250 250S0 388.07 0 250C0 111.929 111.929 0 250 0"/><path fill="#f2be37" d="M250 21.31c-30.882 0-60.83 6.044-89.01 17.963-27.229 11.518-51.688 28.01-72.698 49.019-21.009 21.01-37.501 45.469-49.019 72.698-11.919 28.18-17.962 58.128-17.962 89.01s6.043 60.83 17.963 89.01c11.517 27.229 28.009 51.688 49.019 72.698s45.469 37.501 72.698 49.018c28.18 11.92 58.128 17.963 89.01 17.963s60.83-6.043 89.01-17.963c27.229-11.517 51.688-28.009 72.698-49.018 21.009-21.01 37.501-45.47 49.018-72.698 11.92-28.18 17.963-58.127 17.963-89.01s-6.043-60.83-17.963-89.01c-11.517-27.229-28.009-51.688-49.018-72.698-21.01-21.009-45.469-37.501-72.698-49.019C310.83 27.354 280.882 21.31 250 21.31"/><path fill="#fff" d="m453.075 301.522-43.589-36.695c-2.527-2.114-6.463-4.613-10.983-4.613-1.541 0-2.991.307-4.312.86a148.3 148.3 0 0 0 4.485-36.266c0-7.179-.522-14.236-1.509-21.145a18 18 0 0 0 5.582 1.716c.854.129 1.738.192 2.698.192.515 0 1.047-.019 1.625-.056q.33-.02.657-.064a41 41 0 0 0 3.727-.678c2.02-.495 3.944-1.242 5.883-2.285 2.365-1.272 4.271-2.857 5.825-4.847 1.672-2.144 2.783-4.603 3.311-7.315q.054-.271.091-.542c.349-2.513.157-5.158-.587-8.083l-2.08-8.309a10.15 10.15 0 0 0-3.714-5.63 10.2 10.2 0 0 0-.383-6.604l-2.408-5.863a10.19 10.19 0 0 0-6.102-5.756 16.7 16.7 0 0 0 .045-4.189 19.6 19.6 0 0 0-.668-3.089 21.7 21.7 0 0 0-2.221-4.859l-4.332-7.34a10.2 10.2 0 0 0-1.94-2.36 10.2 10.2 0 0 0-1.575-3.22l-6.794-9.216-.055-.072-2.516-3.35a10.1 10.1 0 0 0-2.66-2.469 10.1 10.1 0 0 0-1.667-2.574l-3.904-4.398a10.1 10.1 0 0 0-4.816-3.022c-.886-1.876-2.275-3.874-4.44-5.798l-5.664-5.18-.038-.035-1.445-1.309a10.15 10.15 0 0 0-6.839-2.638 10.17 10.17 0 0 0-7.372 3.152l-1.232 1.29.934-4.566a10.19 10.19 0 0 0-4.655-10.727l-5.458-3.35a10.2 10.2 0 0 0-5.331-1.505c-2.146 0-4.285.675-6.083 2.014l-1.445 1.075a10.2 10.2 0 0 0-.507-5.457 10.2 10.2 0 0 0-5.438-5.683l-5.402-2.357a10.194 10.194 0 0 0-13.36 5.137l-2.168 4.785a10.1 10.1 0 0 0-3.073-1.692l.904-3.814a10.194 10.194 0 0 0-7.666-12.29l-5.778-1.31a10.3 10.3 0 0 0-2.261-.254c-1.39 0-2.738.292-3.976.819-2.346-1.553-5.479-2.874-9.608-3.361l-.13-.016a18 18 0 0 0-2.024-.16q-.42-.015-.83-.015c-3.541 0-6.751.793-9.588 2.346-2.056-1.532-5.25-3.071-9.795-3.071a17 17 0 0 0-.552.008l-2.396.051-8.559.104a10.2 10.2 0 0 0-3.685.746 10.2 10.2 0 0 0-3.586-.025l-17.708 3.036a10.2 10.2 0 0 0-2.943.99c-.641.038-1.284.118-1.929.284l-5.724 1.466c-1.114.285-2.16.754-3.1 1.376a10.214 10.214 0 0 0-3.296.321l-5.724 1.518a10.2 10.2 0 0 0-4.404 2.464c-.951.117-1.901.362-2.824.763l-13.375 5.811a10.2 10.2 0 0 0-5.99 7.657 10.2 10.2 0 0 0-3.813-.753 10.15 10.15 0 0 0-5.746 1.78l-10.486 7.173-.103.071-2.46 1.727a10.14 10.14 0 0 0-3.894 5.404c-.375.096-.749.197-1.118.318l-.143.047c-2.366.812-4.665 2.237-7.028 4.356l-.069.062-6.42 5.865a10.2 10.2 0 0 0-3.312 7.168c-.052 1.479.23 2.934.789 4.274-.17-.005-.338-.02-.509-.02h-.002c-.936 0-1.882.09-2.814.27a14 14 0 0 0-2.67.776l-.209.083c-2.753 1.135-5.133 3.034-7.074 5.644l-.142.195-.898 1.27-5.443 7.344a10.2 10.2 0 0 0-1.602 3.279 10.1 10.1 0 0 0-2.792 3.292l-2.729 5.131a10.2 10.2 0 0 0-1.028 2.957 10.2 10.2 0 0 0-2.025 2.604l-2.121 3.891-.618 1.11a10.2 10.2 0 0 0-.824 7.989 10.14 10.14 0 0 0-4.654 5.09l-2.247 5.394a10.2 10.2 0 0 0-.365 6.787c-1.856 2.204-3.218 4.975-4.061 8.276-1.802 7.051.051 12.168 1.934 15.229 1.845 3.031 5.553 6.975 12.757 8.712 1.966.481 3.912.726 5.783.726.814 0 1.624-.046 2.408-.138q.492-.058.977-.163l.746-.162.7-.152q.55-.12 1.083-.299a22 22 0 0 0 2.456-.996 149 149 0 0 0-1.52 21.217 148.4 148.4 0 0 0 4.485 36.267 11.1 11.1 0 0 0-4.312-.861c-4.521 0-8.457 2.499-10.963 4.597l-43.583 36.689c-7.844 6.657-5.284 15.538-4.166 19.367 5.505 19.528 14.085 39.125 26.979 61.6.416 1.397.902 2.729 1.374 3.99 2.005 5.472 5.689 10.875 11.264 16.518 4.27 4.371 9.756 8.976 16.773 14.077l.154.11.704.487a8.33 8.33 0 0 0 8.387.65 8.34 8.34 0 0 0 3.667-3.482 8.36 8.36 0 0 0 3.016-2.13 8.35 8.35 0 0 0 3.786-1.99c20.837 13.702 41.643 24.32 61.94 31.604 23.232 8.337 46.505 12.564 69.172 12.564 22.668 0 45.942-4.227 69.173-12.564 20.297-7.285 41.104-17.903 61.94-31.604a8.34 8.34 0 0 0 3.785 1.99 8.4 8.4 0 0 0 3.015 2.13 8.34 8.34 0 0 0 12.055 2.832l.704-.487.153-.11c7.017-5.1 12.503-9.706 16.773-14.077 5.579-5.648 9.265-11.054 11.269-16.529.468-1.254.953-2.579 1.369-3.978 12.892-22.476 21.474-42.074 26.979-61.6 1.119-3.827 3.682-12.71-4.137-19.347"/><path fill="#274e9b" d="m341.67 251.037-14.253-12.515a96.3 96.3 0 0 0 13.059-24.158l49.841 12.086c.006-.547.021-1.092.021-1.641 0-77.335-63.058-140.394-140.339-140.394S109.66 147.474 109.66 224.809c0 .549.015 1.094.021 1.642l49.841-12.087a96.3 96.3 0 0 0 13.061 24.155l-14.255 12.518c5.895-23.092-2.271-30.501-12.492-27.905l-35.973 9.198a139.1 139.1 0 0 0 14.344 54.556l49.623-46.726a97.3 97.3 0 0 0 21.833 20.605l-8.564 12.66c-2.217-17.738-12.816-22.173-19.414-15.845l-39.065 37.504a141.5 141.5 0 0 0 28.296 34.551l40.736-67.54a96 96 0 0 0 26.854 12.093l-5.825 20.979c-4.759-23.038-19.36-22.173-24.66-13.089l-30.805 52.845c12.407 9.795 26.494 17.548 41.749 22.74l22.246-82.772a96 96 0 0 0 22.816 2.743c7.837 0 15.458-.952 22.761-2.735l22.244 82.765c15.253-5.192 29.342-12.946 41.747-22.742l-30.805-52.843c-5.3-9.084-19.9-9.949-24.659 13.089l-5.821-20.97a96 96 0 0 0 26.856-12.095l40.73 67.531a141.5 141.5 0 0 0 28.296-34.55l-39.064-37.504c-6.598-6.328-17.197-1.893-19.415 15.845l-8.559-12.653a97.3 97.3 0 0 0 21.83-20.61l49.62 46.723a139.05 139.05 0 0 0 14.344-54.556l-35.973-9.198c-10.219-2.595-18.385 4.814-12.489 27.906"/><path fill="#274e9b" d="M249.999 287.055c-11.357 0-18.445 2-19.797 7.625l-15.494 65.903A139.8 139.8 0 0 0 250 365.092a139.8 139.8 0 0 0 35.292-4.509l-15.495-65.903c-1.352-5.624-8.441-7.625-19.798-7.625M159.198 98.854l-2.139-3.037 7.543-5.129-2.247-3.143-7.544 5.131-1.765-2.409 8.131-5.601-2.354-3.246-10.486 7.173-2.459 1.727 2.459 3.509 8.508 11.831 13.214-9.057-2.515-3.509zM148.337 101.473c-.213-.315-.48-.576-.747-.891-.911-.89-1.873-1.676-2.89-2.303-1.016-.629-2.086-1.047-3.209-1.205-.321-.052-.643-.052-1.016-.052-.75 0-1.499.104-2.3.366-1.071.368-2.248 1.152-3.532 2.304l-6.419 5.864 12.251 12.88.803.837 6.419-5.864c.214-.209.427-.418.641-.68a17 17 0 0 0 1.605-2.042 7 7 0 0 0 .91-2.88 7.9 7.9 0 0 0-.536-3.298c-.32-.944-1.016-1.938-1.98-3.036m-2.995 7.695c-.214.575-.75 1.257-1.659 2.043l-1.07.994-2.14-2.251-4.976-5.235 1.07-.996c1.124-.995 2.193-1.466 3.21-1.36.213 0 .48.053.695.157.856.314 1.766 1.046 2.834 2.146 1.07 1.101 1.712 1.99 1.98 2.671.217.679.271 1.308.056 1.831M187.927 75.031l-6.795 2.933-1.337-2.985 7.918-3.455-1.659-3.665-13.374 5.812 7.811 17.12 5.402-2.355-3.155-7.016 6.74-2.933zM102.008 180.425a9.2 9.2 0 0 0-3.156-2.409l-2.782 4.555c1.124.524 1.926 1.153 2.408 1.833s.589 1.57.268 2.67c-.268 1.1-.856 1.884-1.765 2.303-.375.156-.75.21-1.286.262-.854.052-1.925-.052-3.209-.419-1.658-.366-2.835-.942-3.477-1.624q-1.285-1.414-.804-3.297c.161-.576.375-1.048.749-1.467.322-.419.803-.681 1.284-.89.321-.158.803-.209 1.392-.262l.161-5.236q-3.211.236-5.135 1.885c-1.284 1.047-2.194 2.723-2.782 5.027-.749 2.931-.482 5.392.748 7.382 1.231 2.042 3.424 3.403 6.475 4.136 1.711.42 3.263.524 4.599.368l1.445-.315c1.713-.576 2.997-1.413 3.905-2.513.91-1.1 1.606-2.67 2.087-4.607q.642-2.434.32-4.241a7.05 7.05 0 0 0-1.445-3.141M128.705 124.927c-.963-.679-1.979-.994-2.997-.941s-2.032.471-3.049 1.309c-.054.053-.106.053-.106.105 0-.105.053-.262.106-.368.16-.732.16-1.413.054-1.989-.054-.106-.054-.209-.054-.262-.32-.942-.856-1.675-1.712-2.251-1.069-.785-2.3-1.048-3.584-.785-.321.052-.589.157-.857.261-1.016.419-1.925 1.152-2.782 2.303l-.963 1.362-5.51 7.434 5.51 3.875 3.745 2.67 6.153 4.398.054.053 5.992-8.064c.267-.366.749-1.099 1.391-2.25.48-.891.748-1.623.803-2.146.107-.943-.055-1.78-.429-2.618a5.5 5.5 0 0 0-1.765-2.096m-10.38 3.718-1.498 2.042-.322-.262-2.621-1.832 1.551-2.096c.322-.471.696-.837 1.07-1.046.107-.052.268-.104.429-.157.428-.105.91 0 1.337.314q.723.549.802 1.256c.055.471-.213 1.048-.748 1.781m6.366 3.979-1.765 2.357-.268-.157-2.889-2.042 1.767-2.409q.56-.785 1.123-1.099a1.27 1.27 0 0 1 .589-.313c.481-.105 1.017 0 1.443.313.482.367.749.786.803 1.309.054.575-.214 1.203-.803 2.041M103.453 169.587l-7.759-3.037-5.615-2.251-2.247 5.393 7.862 3.089 9.899 3.927 5.671-13.77-4.334-1.729zM209.593 60.477l-5.724 1.466 2.995 11.046c.322 1.047.215 1.886-.161 2.566q-.641 1.02-2.086 1.413c-1.015.263-1.871.21-2.566-.21-.696-.418-1.23-1.097-1.499-2.093l-2.996-11.046-5.724 1.517 2.942 10.786c.268.889.695 1.833 1.391 2.931q.643.944 1.766 1.728c.802.524 1.604.89 2.408 1.048.802.208 1.766.208 2.888.052a38 38 0 0 0 2.996-.576c1.552-.419 2.835-.995 3.799-1.675.749-.472 1.391-1.204 1.925-2.095a7.85 7.85 0 0 0 .91-2.931 10.7 10.7 0 0 0-.321-3.143zM116.506 143.723l-.16-.156a9.6 9.6 0 0 0-2.567-1.938l-1.018-.523-9.094-4.712-2.729 5.13 10.271 5.341c.696.367 1.23.786 1.551 1.309.108.209.162.366.215.576.268.733.16 1.518-.215 2.304-.052.053-.106.105-.106.157-.481.891-1.122 1.468-1.926 1.676-.803.262-1.658.106-2.568-.367l-10.325-5.34-2.141 3.928-.64 1.151.64.314 9.47 4.922c.803.471 1.873.785 3.104 1.047.749.157 1.605.104 2.514-.105.75-.157 1.391-.366 1.979-.681q.242-.155.483-.315c.695-.47 1.337-1.097 1.978-2.041.481-.628.91-1.31 1.284-1.937a6 6 0 0 1 .322-.576c.749-1.413 1.178-2.67 1.338-3.875.16-.838.053-1.78-.268-2.775a6.5 6.5 0 0 0-1.392-2.514M416.097 184.195l-2.085-8.325-7.598 1.833-5.458 1.361-5.562 1.361 2.139 8.324c.267.996.695 2.095 1.391 3.247.428.785 1.124 1.519 2.032 2.094l.056.053c.961.627 2.031.995 3.208 1.153.643.104 1.39.104 2.194.052a31 31 0 0 0 2.621-.472c1.284-.314 2.406-.785 3.477-1.36 1.072-.576 1.927-1.257 2.624-2.147.694-.89 1.123-1.885 1.336-2.984.159-1.154.052-2.515-.375-4.19m-4.814 3.141c-.589.786-1.82 1.413-3.8 1.885-.375.105-.748.157-1.069.261-.965.158-1.713.209-2.248.105-.749-.105-1.339-.367-1.711-.786-.375-.471-.749-1.256-1.017-2.46l-.374-1.361 5.35-1.309 4.815-1.152.32 1.414c.376 1.464.319 2.566-.266 3.403M269.565 56.446c-.428-.052-.802-.105-1.177-.105-2.569-.104-4.654.471-6.368 1.78-1.924 1.467-3.101 3.719-3.477 6.755-.267 2.198-.054 4.031.642 5.602.695 1.57 1.66 2.722 2.997 3.56s3.048 1.415 5.189 1.676a7 7 0 0 0 1.016.052c1.66.105 3.156-.104 4.441-.576 1.498-.627 2.728-1.57 3.638-2.879q1.364-1.964 1.764-5.184c.375-3.036-.161-5.445-1.658-7.329-1.497-1.834-3.85-2.986-7.007-3.352m2.835 9.895c-.267 2.042-.802 3.455-1.604 4.189-.644.576-1.446.89-2.409.89-.213 0-.428 0-.642-.053-1.23-.158-2.194-.68-2.782-1.571s-.802-2.304-.536-4.188c.214-1.886.75-3.195 1.552-3.928.695-.627 1.498-.89 2.408-.942.213 0 .428.053.588.053 1.285.157 2.195.68 2.835 1.57.59.89.804 2.2.59 3.98M333.976 80.896l-12.946 9.686-.64.472.64.418 4.496 2.723 2.462-2.146 5.723 3.508-.91 3.089 1.176.732 4.121 2.513 4.012-19.634-5.458-3.35zm.859 10.576-.859-.524-2.727-1.675 2.727-2.303 2.729-2.303zM321.671 86.55l-.642-.261-7.755-3.404 5.829-12.879-5.402-2.357-7.756 17.121 13.802 6.021 1.282-2.774zM363.242 111.733c1.604 0 3.047-.681 4.384-2.094 1.285-1.361 1.872-2.722 1.819-4.188-.107-1.413-.908-2.88-2.514-4.293l-5.724-5.235-1.445-1.31-13.053 13.666 4.333 3.98 4.868-5.08 2.355 2.146c1.016.942 1.979 1.624 2.942 1.99.696.262 1.392.418 2.035.418m-3.639-6.335-1.07-.995 2.676-2.827.212-.208 1.231 1.099c.857.734 1.231 1.413 1.231 1.988 0 .524-.16 1.048-.588 1.467-.428.471-.91.681-1.551.628-.162 0-.323-.053-.535-.104-.483-.158-1.018-.524-1.606-1.048M374.582 131.158l3.049-2.147 5.403 7.278 2.57-1.78.587-.472-.587-.837-4.816-6.441 2.461-1.779 2.355 3.141 3.476 4.765 3.318-2.356-6.794-9.217-2.516-3.349-9.63 6.859-5.883 4.137 5.883 7.905 3.638 4.868 3.478-2.461zM290.163 60.373l-5.779-1.31-4.279 18.272 14.765 3.352 1.016-4.504-8.987-2.04zM231.367 56.34l-17.708 3.037.802 4.608 5.939-1.047 2.515 13.873 5.831-.994-2.515-13.874 5.938-1.047zM379.289 113.566l-3.904-4.398-1.927 1.675-12.25 10.368-.268.261.268.262 3.638 4.083 8.612-7.277zM406.414 168.54l3.959-3.508-2.408-5.865h-1.552l-5.458.157-13.427.315 2.247 5.497 3.262-.314 2.516 6.126-2.568 1.99 2.301 5.602 5.67-5.026zm-7.491-.262-1.55-3.822 3.583-.313 3.586-.314-3.586 2.88zM250.894 64.3c.91-.314 1.605-.733 2.033-1.257.698-.837 1.017-1.78 1.017-2.879 0-1.309-.534-2.409-1.551-3.298s-2.408-1.31-4.28-1.257l-2.461.053-8.613.104.375 18.744 8.238-.104 1.925-.053c.481 0 1.338-.105 2.676-.315q1.522-.235 2.246-.627a4.8 4.8 0 0 0 1.819-1.886c.481-.785.695-1.676.695-2.618-.054-1.204-.375-2.2-1.07-2.985-.642-.786-1.658-1.309-3.049-1.622m-7.811-4.818 2.568-.053h.053c.909 0 1.499.157 1.872.419.375.314.589.732.589 1.308s-.161.995-.536 1.31c-.32.367-.962.524-1.926.524h-.053l-2.515.052zm5.35 10.314c-.375.367-1.123.524-2.14.524l-.642.052h-2.354l-.053-3.77 2.407-.052h.588c1.016 0 1.765.156 2.141.472.428.313.641.784.695 1.308 0 .629-.213 1.1-.642 1.466M391.434 156.55q1.845-.234 4.494-1.727a13.8 13.8 0 0 0 2.942-2.199 8.3 8.3 0 0 0 1.926-2.827c.053-.106.107-.262.16-.419.267-.891.375-1.832.267-2.775-.051-.418-.158-.838-.267-1.256a11.6 11.6 0 0 0-1.229-2.67l-4.387-7.435-9.736 5.498-6.848 3.873 4.385 7.436c.536.89 1.285 1.78 2.249 2.723a.4.4 0 0 0 .215.209c.642.576 1.443.994 2.407 1.309a8.2 8.2 0 0 0 3.422.26m-5.243-7.853-.587-1.046-.109-.158.109-.052 8.932-5.079.75 1.256c.75 1.309.964 2.409.643 3.351-.321.89-1.339 1.884-3.104 2.879-1.336.734-2.354 1.153-3.103 1.258-.748.052-1.337-.053-1.818-.367-.536-.315-1.072-.994-1.713-2.042"/><path fill="#274e9b" d="m447.679 307.879-43.563-36.673c-3.309-2.767-7.595-4.231-8.41 0a346 346 0 0 1-.823 4.217C375.64 331.988 318.162 378.085 250 378.085c-68.164 0-125.64-46.097-144.883-102.662a328 328 0 0 1-.823-4.217c-.815-4.231-5.103-2.767-8.41 0L52.32 307.879c-3.581 3.039-2.661 6.784-1.52 10.689 6.014 21.352 15.55 41.297 26.71 60.646.382 1.473.924 2.955 1.446 4.347 1.683 4.612 4.991 9.117 9.386 13.564 4.341 4.449 9.764 8.843 15.734 13.184l.704.487.054-.867.164-2.713 3.47-.109h.435v-2.983l3.798.378.542.055-.054-.543-.054-3.037 3.473 1.085.16.054.435.107v-.596l.083-2.055c44.238 30.407 88.476 46.954 132.712 46.954 44.238 0 88.475-16.547 132.712-46.954l.083 2.055v.596l.436-.107.161-.054 3.472-1.085-.054 3.037-.055.543.544-.055 3.797-.378v2.983h.435l3.47.109.165 2.713.053.867.704-.487c5.971-4.34 11.393-8.735 15.734-13.184 4.395-4.447 7.704-8.952 9.387-13.564.521-1.393 1.063-2.874 1.445-4.347 11.16-19.349 20.696-39.294 26.71-60.646 1.142-3.904 2.062-7.65-1.518-10.689"/><path fill="#fff200" d="M388.582 370.026c4.967-5.868 8.495-12.751 9.202-17.848l-3.403-2.967c-.893 5.639-4.514 13.036-9.182 18.588-4.093 4.876-9.564 10.059-17.684 16.746.048.825.139 2.516.17 3.044l3.186-.784c5.588-4.62 12.581-10.656 17.711-16.779"/><path fill="#fff200" d="M383.917 366.716c4.586-5.417 8.374-13.269 9.093-18.698l-2.749-2.401c-.886 5.74-4.488 13.237-9.132 18.819-3.918 4.666-9.157 8.885-14.707 13.352l-3.504 2.838.304 3.688c.631-.187 2.78-.828 3.12-.93 5.565-4.605 12.487-10.592 17.575-16.668"/><path fill="#fff200" d="M379.846 363.355c4.563-5.453 8.335-13.406 9.046-18.934l-2.356-2.053c-1.012 6.2-5.849 13.822-9.909 18.703-4.249 5.06-9.944 9.74-15.975 14.695l-2.259 1.859c.023.813.063 2.332.08 2.879.621-.197 2.582-.813 3.162-.994l3.638-2.945c5.519-4.435 10.733-8.626 14.573-13.21M367.262 354.079c4.425-5.291 7.68-9.528 8.49-14.57q-.923.25-1.875.642c-.745 7.511-20.677 27.152-25.992 29.592-.083.611-.209 1.565-.279 2.085l2.519-.884.143-.049c6.191-5.128 12.055-10.926 16.994-16.816"/><path fill="#fff200" d="M371.595 341.455c-4.597 5.975-9.297 11.436-13.977 16.221-4.053 4.105-8.093 7.693-12.04 10.736l1.484-.144.068-.007c4.866-2.725 22.433-20.131 24.465-26.806M392.435 373.283c4.521-5.344 8.019-12.636 8.757-18.131l-2.047-1.784c-.87 5.255-4.246 11.757-9.279 17.739-5.046 6.083-11.833 11.939-17.87 16.902v3.043c.416-.152 1.649-.603 2.64-.962 8.211-6.739 13.71-11.93 17.799-16.807M375.345 359.993c4.278-5.117 9.046-13.029 9.809-18.773a12.5 12.5 0 0 0-2.085-1.261c-.047-.02-.096-.034-.146-.056-.785 6.163-5.985 13.479-10.312 18.62-4.066 4.844-9.499 9.995-17.533 16.621-.048.614-.132 1.628-.177 2.18.739-.318 2.303-.999 2.303-.999l.271-.111 1.369-1.122c6.261-5.112 12.177-9.939 16.501-15.099"/><path fill="#fff200" d="M371.331 357.442c2.797-3.309 9.208-11.502 10.123-18.037a9.7 9.7 0 0 0-2.831-.333q-.64.017-1.3.114c-.547 5.689-3.699 9.864-8.78 15.973-4.928 5.872-10.917 11.783-17.336 17.136l-.037 2.44c.731-.249 2.862-.97 2.862-.97l.145-.048c7.853-6.477 13.172-11.526 17.154-16.275M408.925 386.087c4.994-5.97 7.884-11.79 8.39-16.868l-2.678-2.335c-.702 5.315-3.574 11.003-8.554 16.922-4.204 4.959-9.908 10.352-17.928 16.95l-.04 2.353c.559-.055 2.521-.254 3.133-.316 6.006-4.976 12.745-10.82 17.677-16.706"/><path fill="#fff200" d="M404.803 382.722c5.049-6.022 7.962-11.908 8.451-17.045l-2.807-2.449c-.819 5.249-3.984 11.41-8.866 17.159-4.135 4.925-9.771 10.278-17.691 16.808.031.79.105 2.682.13 3.279l3.014-.928c6.359-5.302 12.892-11.002 17.769-16.824M396.275 407.128c.024.34.056.823.085 1.218 6.013-4.386 10.738-8.349 14.374-12.081 4.599-4.714 7.572-9.019 9.086-13.164a49 49 0 0 0 1.124-3.184c-1.415 3.261-3.645 6.674-6.776 10.397-4.975 5.926-11.522 11.578-17.893 16.814"/><path fill="#fff200" d="M400.301 379.361c4.894-5.844 8.124-12.245 8.776-17.328l-2.788-2.435c-.821 5.519-4.2 12.446-8.884 18.076-4.965 5.915-11.619 11.71-17.588 16.666.011.851.029 2.313.038 2.881l2.668-1.072c6.028-4.994 12.817-10.87 17.778-16.788"/><path fill="#fff200" d="M396.123 376.594c4.686-5.602 8.146-12.805 8.789-18.196l-2.353-2.053c-.888 5.659-4.235 12.54-8.844 18.019-5.001 5.958-11.708 11.79-17.706 16.762v2.75l2.642-.958.458-.167c7.776-6.42 13.058-11.438 17.014-16.157M418.707 370.434c-.668 5.186-3.455 10.671-8.498 16.734-5.029 5.991-11.789 11.856-17.815 16.852v1.799c.463.017 2.121.069 2.773.089 6.328-5.279 12.885-10.904 17.72-16.674 5.013-5.926 7.702-11.281 8.221-16.357a4.6 4.6 0 0 0-1.018-1.238zM111.416 370.026c-4.966-5.868-8.494-12.751-9.201-17.848l3.403-2.967c.893 5.639 4.513 13.036 9.182 18.588 4.092 4.876 9.564 10.059 17.683 16.746-.047.825-.138 2.516-.168 3.044l-3.188-.784c-5.589-4.62-12.581-10.656-17.711-16.779"/><path fill="#fff200" d="M116.083 366.716c-4.586-5.417-8.376-13.269-9.095-18.698l2.749-2.401c.886 5.74 4.487 13.237 9.132 18.819 3.919 4.666 9.159 8.885 14.707 13.352l3.505 2.838-.304 3.688c-.631-.187-2.779-.828-3.119-.93-5.566-4.605-12.488-10.592-17.575-16.668"/><path fill="#fff200" d="M120.152 363.355c-4.563-5.453-8.335-13.406-9.046-18.934l2.356-2.053c1.012 6.2 5.849 13.822 9.908 18.703 4.25 5.06 9.944 9.74 15.976 14.695l2.259 1.859-.08 2.879c-.62-.197-2.582-.813-3.161-.994l-3.639-2.945c-5.52-4.435-10.733-8.626-14.573-13.21M132.737 354.079c-4.425-5.291-7.68-9.528-8.49-14.57q.922.25 1.875.642c.744 7.511 20.676 27.152 25.992 29.592.083.611.208 1.565.278 2.085-.765-.27-2.519-.884-2.519-.884l-.142-.049c-6.191-5.128-12.056-10.926-16.994-16.816"/><path fill="#fff200" d="M128.403 341.455c4.597 5.975 9.297 11.436 13.977 16.221 4.053 4.105 8.093 7.693 12.04 10.736l-1.484-.144-.069-.007c-4.865-2.725-22.432-20.131-24.464-26.806M107.563 373.283c-4.521-5.344-8.019-12.636-8.757-18.131l2.046-1.784c.87 5.255 4.247 11.757 9.279 17.739 5.049 6.083 11.833 11.939 17.87 16.902v3.043c-.416-.152-1.649-.603-2.64-.962-8.211-6.739-13.709-11.93-17.798-16.807M124.654 359.993c-4.279-5.117-9.046-13.029-9.81-18.773a12.4 12.4 0 0 1 2.086-1.261c.047-.02.095-.034.144-.056.786 6.163 5.986 13.479 10.313 18.62 4.066 4.844 9.499 9.995 17.532 16.621.048.614.132 1.628.177 2.18-.737-.318-2.302-.999-2.302-.999l-.271-.111-1.37-1.122c-6.259-5.112-12.174-9.939-16.499-15.099"/><path fill="#fff200" d="M128.667 357.442c-2.797-3.309-9.206-11.502-10.123-18.037a9.7 9.7 0 0 1 2.83-.333q.642.017 1.301.114c.546 5.689 3.7 9.864 8.78 15.973 4.928 5.872 10.916 11.783 17.335 17.136l.038 2.44-2.862-.97-.145-.048c-7.853-6.477-13.173-11.526-17.154-16.275M91.073 386.087c-4.994-5.97-7.884-11.79-8.39-16.868l2.678-2.335c.702 5.315 3.574 11.003 8.554 16.922 4.204 4.959 9.908 10.352 17.929 16.95l.04 2.353c-.559-.055-2.521-.254-3.133-.316-6.006-4.976-12.746-10.82-17.678-16.706"/><path fill="#fff200" d="M95.195 382.722c-5.049-6.022-7.961-11.908-8.451-17.045l2.807-2.449c.819 5.249 3.983 11.41 8.866 17.159 4.135 4.925 9.77 10.278 17.691 16.808l-.13 3.279-3.016-.928c-6.355-5.302-12.89-11.002-17.767-16.824M103.723 407.128l-.084 1.218c-6.014-4.386-10.738-8.349-14.375-12.081-4.6-4.714-7.571-9.019-9.086-13.164a48 48 0 0 1-1.125-3.184c1.415 3.261 3.646 6.674 6.776 10.397 4.975 5.926 11.523 11.578 17.894 16.814"/><path fill="#fff200" d="M99.698 379.361c-4.896-5.844-8.125-12.245-8.776-17.328l2.788-2.435c.821 5.519 4.199 12.446 8.883 18.076 4.966 5.915 11.619 11.71 17.589 16.666l-.038 2.881-2.669-1.072c-6.029-4.994-12.816-10.87-17.777-16.788"/><path fill="#fff200" d="M103.875 376.594c-4.687-5.602-8.147-12.805-8.789-18.196l2.353-2.053c.887 5.659 4.234 12.54 8.844 18.019 5.001 5.958 11.708 11.79 17.706 16.762v2.75l-2.64-.958-.459-.167c-7.778-6.42-13.059-11.438-17.015-16.157M81.292 370.434c.667 5.186 3.455 10.671 8.498 16.734 5.028 5.991 11.789 11.856 17.815 16.852v1.799c-.464.017-2.122.069-2.774.089-6.328-5.279-12.885-10.904-17.72-16.674-5.012-5.926-7.702-11.281-8.22-16.357q.388-.695 1.018-1.238z"/><path fill="#fff" d="M250.026 272.074c49.972 0 90.746-40.776 90.746-90.746 0-50.024-40.774-90.801-90.746-90.801-50.022 0-90.8 40.777-90.8 90.801 0 49.97 40.777 90.746 90.8 90.746"/><path fill="#274e9b" d="M250.024 95.145c-47.481.004-86.178 38.699-86.18 86.183.002 47.43 38.699 86.124 86.18 86.128 47.43-.004 86.126-38.698 86.13-86.128-.004-47.484-38.699-86.179-86.13-86.183"/><path fill="#f2be37" d="m303.811 221.775-18.961 4.727-12.267-16.883 13.051-38.158 19.119-6.212 12.561 14.969zM271.872 244.982h-43.695l-10.356-16.572 12.277-16.898h39.852l12.277 16.896zM196.237 221.775l-13.504-41.558 12.56-14.968 19.12 6.211 13.051 38.159-12.267 16.884zM230.284 116.987l18.118 7.32v20.285l-32.998 23.781-19.108-6.209-1.362-19.493zM269.764 116.988l35.351 25.683-1.365 19.494-19.107 6.209-32.997-23.78v-20.287zM191.691 142.786l1.4 20.042-12.914 15.391-14.398-.443c.662-15.871 5.74-30.626 14.039-43.071zM319.87 178.22l-12.916-15.392 1.402-20.042 11.841-8.06c8.287 12.441 13.359 27.188 14.022 43.05zM272.68 100.107l-4.028 13.832-18.627 7.526-18.631-7.527-4.029-13.835A84 84 0 0 1 250.024 97a83.8 83.8 0 0 1 22.656 3.107M184.018 233.667l11.325-8.772 19.496 4.862 10.648 17.038-4.855 13.508a84.65 84.65 0 0 1-30.19-19.437 85 85 0 0 1-6.424-7.199M309.563 240.867c-8.474 8.473-18.732 15.155-30.15 19.428l-4.851-13.501 10.647-17.039 19.494-4.86 11.298 8.751a85 85 0 0 1-6.438 7.221M152.951 185.33h-12.276l-3.624-10.492-3.623 10.492h-12.276l9.951 6.598-3.732 10.438 9.68-6.382 9.681 6.382L143 191.928zM347.047 185.33h12.276l3.623-10.492 3.624 10.492h12.276l-9.951 6.598 3.732 10.438-9.681-6.382-9.68 6.382 3.732-10.438zM228.244 174.075h16.798l4.956-14.357 4.959 14.357h16.797l-13.617 9.028 5.108 14.281-13.247-8.733-13.245 8.733 5.106-14.281zM226.246 330.59c.648-.703 1.297-1.732 2-2.977l-.325 25.582 4.219.379.542-39.101-3.462-.324c-.486 2.377-1.136 4.38-1.947 5.948s-1.947 2.866-3.353 3.948l-.163 8.707c1.029-.703 1.839-1.406 2.489-2.162M267.779 330.914c.596-.866 1.243-1.947 1.947-3.354l.325 25.635 4.271-.377-.541-39.102-3.462.271c-.431 2.485-1.026 4.542-1.783 6.271a13.5 13.5 0 0 1-3.245 4.545l.106 8.706c.922-.865 1.733-1.676 2.382-2.595M263.021 340.108q0-5.355-1.462-8.762c-.971-2.216-2.214-3.354-3.729-3.3-.434.054-.866.217-1.353.488-.433.324-.865.756-1.298 1.353l.325-5.788 6.706-.323-.054-8.545-9.951.433-1.134 20.712 3.568 1.19c.326-.972.596-1.678.921-2.057.324-.54.702-.81 1.081-.81.651-.054 1.191.485 1.569 1.513.379 1.083.594 2.759.594 5.032 0 2.27-.162 3.946-.541 5.081-.379 1.137-.866 1.732-1.406 1.788-.54 0-.973-.433-1.353-1.299-.378-.92-.594-2.216-.703-3.948l-4.271 1.406c.215 1.785.485 3.243.81 4.488a16.6 16.6 0 0 0 1.242 3.137 5.46 5.46 0 0 0 1.84 2.109c.703.433 1.513.648 2.488.594q2.109-.08 3.408-1.946c.864-1.241 1.567-3.028 2.054-5.354.431-2.324.649-4.704.649-7.192M242.577 354.925c2.055-.054 3.624-1.675 4.76-4.867 1.136-3.245 1.677-8.327 1.677-15.251 0-4.76-.271-8.49-.813-11.356-.541-2.92-1.243-5.031-2.163-6.329-.866-1.241-2.001-1.891-3.462-2h-.215q-1.866.001-3.083 1.622c-.865 1.082-1.513 2.65-2.001 4.759a34.7 34.7 0 0 0-.703 7.031c0 3.677.488 6.759 1.407 9.248.919 2.433 2.056 3.677 3.407 3.677.433 0 .865-.16 1.189-.378.271-.162.488-.324.649-.54.542-.649 1.083-1.624 1.568-2.921q-.243 6.246-.649 8.113c-.377 1.729-.864 2.595-1.568 2.595-.378 0-.702-.271-.918-.92-.271-.594-.488-1.623-.595-3.136l-4.164 1.352c.271 2.056.596 3.732 1.082 5.138.433 1.352 1.027 2.379 1.73 3.082s1.623 1.082 2.813 1.082zm1.46-21.794c-.378 1.136-.865 1.676-1.46 1.676-.594 0-1.027-.54-1.459-1.676-.379-1.137-.541-2.812-.541-4.922 0-2.107.162-3.731.541-4.813.378-1.026.812-1.568 1.406-1.568h.053c.596.054 1.029.649 1.46 1.784.379 1.137.594 2.813.594 4.869 0 2.001-.215 3.568-.594 4.65M179.432 382.83c-.865-.916-2.217-1.674-3.948-2.378l-2.542-.973-6.922-2.651-3.894 33.26 5.679 2.218 1.567-13.521.541.217q.73.244 1.298 1.299c.27.486.487 1.513.704 2.918l1.026 6.329.812 5.029 6.435 2.488-1.622-10.707c-.054-.542-.271-1.353-.542-2.38a15 15 0 0 0-.703-2.11 8.1 8.1 0 0 0-1.351-1.784c.919 0 1.622-.216 2.163-.542.864-.54 1.567-1.405 2.164-2.541.594-1.189 1.027-2.704 1.244-4.543.216-2.108.162-4.056-.217-5.732-.432-1.678-1.026-2.976-1.892-3.896m-3.732 8.222a4.3 4.3 0 0 1-.541 1.837c-.324.435-.648.65-1.081.65h-1.136c-.162-.053-.325-.053-.433-.107l-2.379-.921.811-6.76 2.001.757.487.216c1.027.378 1.73.919 2 1.676.325.704.434 1.57.271 2.652M268.664 420.849l-.215-6.651 9.032-.866-.217-6.921-8.977.865-.163-5.409 9.734-.917-.216-7.249-15.576 1.459.975 33.965 15.845-1.516-.216-7.678zM181.92 418.417l15.684 4.487.647-7.571-9.896-2.867.595-6.597 8.924 2.544.594-6.871-8.924-2.541.434-5.354 9.626 2.757.649-7.138-15.359-4.435zM315.39 388.347c-1.569-2.108-3.57-3.029-5.947-2.757-.542.053-1.029.162-1.569.271-3.03.864-5.247 3.082-6.652 6.596-.487 1.299-.919 2.65-1.137 4.166-.486 2.703-.595 5.838-.271 9.408.054.758.164 1.569.271 2.272.379 2.867.974 5.245 1.84 7.137 1.081 2.381 2.38 3.949 3.839 4.76 1.081.594 2.273.811 3.68.702.538-.054 1.079-.217 1.674-.376 2.055-.595 3.732-1.786 4.976-3.57 1.297-1.785 2.164-4.057 2.651-6.76.539-2.705.593-6.057.269-9.95-.489-5.409-1.677-9.411-3.624-11.899m-2.434 21.471c-.54 1.675-1.459 2.648-2.704 3.028-.271.053-.542.108-.809.108-.866-.055-1.569-.541-2.218-1.515-.813-1.297-1.407-3.623-1.677-7.031-.325-3.404-.163-5.948.378-7.625.594-1.73 1.459-2.705 2.596-3.028.325-.109.596-.164.921-.109.809 0 1.512.541 2.161 1.459.812 1.244 1.407 3.461 1.677 6.653.323 3.734.216 6.437-.325 8.06M230.809 394.35h-.487c-2.812-.108-5.083 1.19-6.813 3.949-1.785 2.92-2.759 7.192-2.921 12.708-.108 4.001.217 7.354 1.028 10.057.756 2.706 1.838 4.76 3.19 6.111 1.352 1.353 3.083 2.11 5.192 2.326h.325c1.946.161 3.624-.432 4.976-1.621 1.406-1.299 2.541-3.138 3.353-5.626.811-2.488 1.297-5.677 1.406-9.68.162-5.461-.595-9.789-2.163-12.978-1.624-3.192-3.95-4.922-7.086-5.246m3.461 17.575c-.108 3.787-.541 6.384-1.243 7.788-.704 1.299-1.569 1.95-2.705 1.95-.109 0-.163 0-.27-.057-1.19-.108-2.164-.92-2.813-2.487-.648-1.567-.919-4.056-.864-7.518q.161-5.19 1.297-7.3c.703-1.352 1.569-2.001 2.65-2.001h.216c1.243.108 2.164.973 2.867 2.488.648 1.569.972 3.893.865 7.137M297.112 414.25a10 10 0 0 0-.921-1.945c-.431-.813-.812-1.351-1.027-1.623-.324-.325-.865-.649-1.568-.919.866-.542 1.514-1.135 1.947-1.732.701-1.025 1.297-2.216 1.624-3.677.377-1.46.487-3.082.377-4.973-.108-2.165-.486-3.95-1.19-5.302-.649-1.405-1.458-2.27-2.432-2.649-.975-.378-2.382-.378-4.166-.052l-.702.106-8.922 1.731 2 33.799 5.785-1.081-.81-13.737.541-.107c.486-.109.973.053 1.406.485.055 0 .055.055.055.055.323.325.702 1.135 1.188 2.379l3.68 9.734 6.108-1.135.434-.11-.434-1.188zm-5.573-10.923c-.215.649-.485 1.027-.864 1.244-.758.487-1.243.703-1.513.756h-.108l-2.326.488-.377-6.867 2.542-.488c.054-.054.108-.054.162-.054.972-.161 1.622 0 2.054.486.378.541.649 1.354.703 2.436a4.9 4.9 0 0 1-.273 1.999M213.448 392.186l-3.19-.594-7.625-1.458-1.948 33.854 9.573 1.785.378.108c.432.054 1.298.054 2.649 0 .974-.054 1.731-.271 2.218-.704.866-.649 1.514-1.623 2.055-2.975.541-1.298.865-2.812.974-4.597.108-2.109-.109-4.002-.649-5.516-.541-1.568-1.514-2.758-2.812-3.569.92-.378 1.623-1.028 2.163-1.894.758-1.298 1.19-2.92 1.353-4.92.107-2.381-.271-4.489-1.135-6.274-.866-1.84-2.219-2.865-4.004-3.246m-.648 23.147c-.054 1.083-.325 1.894-.757 2.489-.378.487-.974.649-1.785.596-.107 0-.271-.055-.379-.055l-2.974-.541.432-6.867 2.921.539c1.027.216 1.676.649 2.054 1.354.38.647.542 1.512.488 2.485m0-13.141c-.054 1.026-.271 1.838-.648 2.326-.379.487-1.028.649-1.893.487h-.055l-2.488-.487.379-6.436 2.164.432.378.054c.865.164 1.46.596 1.785 1.19.324.649.432 1.462.378 2.434M254.009 420.795c-.595 1.136-1.406 1.677-2.542 1.677s-2.055-.703-2.65-2.108c-.649-1.352-.974-3.948-.974-7.734 0-3.028.271-5.299.812-6.707.703-1.893 1.677-2.865 3.028-2.865.596 0 1.081.215 1.568.648s.865 1.028 1.189 1.838c.218.486.379 1.245.542 2.271l5.083-2.055c-.647-3.569-1.622-6.22-3.028-7.95-1.298-1.784-3.136-2.651-5.515-2.651-3.029 0-5.354 1.516-7.031 4.544-1.623 3.027-2.488 7.354-2.488 12.977q0 6.332 1.46 10.385c.92 2.705 2.055 4.597 3.353 5.679 1.245 1.08 2.921 1.621 4.976 1.621 1.676 0 3.082-.431 4.163-1.296 1.028-.919 1.948-2.217 2.706-3.948.703-1.731 1.244-3.893 1.622-6.437l-5.083-2.812c-.218 2.165-.651 3.789-1.191 4.923M337.726 398.406c-.217-1.783-.65-3.353-1.298-4.65q-.973-1.867-2.76-2.759c-1.189-.596-3.082-.864-5.676-.919-1.083.055-1.731-.108-2.057-.487a1.95 1.95 0 0 1-.595-1.245 3.74 3.74 0 0 1 .271-2.054c.271-.65.758-1.083 1.407-1.353.811-.27 1.458-.163 2 .324q.81.73 1.297 2.922l5.301-2.652q-.974-5.028-3.083-6.65c-1.46-1.137-3.301-1.245-5.679-.323-1.893.755-3.352 1.729-4.38 3.027-.973 1.297-1.676 2.812-2.055 4.544-.326 1.729-.433 3.46-.216 5.137.27 2.649 1.08 4.542 2.324 5.84 1.299 1.242 3.192 1.892 5.843 2 1.565 0 2.595.273 3.135.758.486.541.757 1.245.865 2.11.108.918 0 1.783-.379 2.649-.323.866-.918 1.405-1.729 1.731-1.083.432-2 .107-2.758-1.029-.432-.702-.812-1.838-1.135-3.352l-5.356 2.649c.596 3.298 1.569 5.842 3.029 7.517 1.46 1.73 3.786 2.001 6.923.812 1.729-.703 3.19-1.73 4.219-3.136 1.081-1.352 1.838-3.083 2.27-5.137.433-2.056.54-4.11.272-6.274"/></svg>