<svg xmlns="http://www.w3.org/2000/svg" xml:space="preserve" viewBox="0 0 592 840"><path d="M297.352 281H129.098s-12.65 108.688 23.752 204.828C194.065 594.69 297.351 643.21 297.351 643.21s103.289-48.519 144.508-157.382C478.258 389.688 465.611 281 465.611 281H297.352z" style="fill:#ffd10c;stroke:#ed1c24;stroke-width:1.0495;stroke-miterlimit:2.6131"/><path d="M298.158 388.573c51.568 0 93.563-38.249 98.01-87.018h48.934s7.509 112.407-32.76 196.672c-37.345 78.148-114.99 121.262-114.99 121.262s-77.645-43.113-114.992-121.262c-40.263-84.265-32.755-196.672-32.755-196.672h48.939c4.442 48.769 48.037 87.018 99.614 87.018z" style="fill:#ffd10c;stroke:#ed1c24;stroke-width:1.0495;stroke-miterlimit:2.6131"/><path d="M205.061 633.229C173.621 607.47 153.62 569 153.62 526.027c0-25.933 7.263-50.216 19.933-71.066l123.83 94.906 127.204-94.101c12.368 20.663 19.428 44.655 19.428 70.261 0 42.569-19.587 80.72-50.517 106.471l55.232 47.033c42.122-38.491 68.408-93.031 68.408-153.504 0-69.447-34.633-131.062-88.134-169.548l-131.621 98.349-127.11-99.501c-54.416 38.403-89.78 100.558-89.78 170.701 0 61.141 26.915 116.215 69.855 154.781l54.713-47.58z" style="fill:#ed1c24;stroke:#000;stroke-width:4.1978;stroke-miterlimit:2.6131"/><path d="m189.295 707.159 5.154-31.987h.592l14.741 26.252 14.599-26.252h.587l5.208 31.987h-3.574l-3.55-22.875-12.823 22.875h-.911l-12.992-23.048-3.529 23.048z" style="stroke:#000;stroke-width:.3499;stroke-miterlimit:2.6131"/><path d="M254.626 674.373c5.49 0 10.085 1.62 13.788 4.852 3.695 3.232 5.544 7.206 5.544 11.935 0 4.685-1.849 8.646-5.544 11.912q-5.527 4.891-13.488 4.893c-5.378 0-9.91-1.619-13.609-4.871-3.698-3.239-5.548-7.173-5.548-11.781 0-3.08.838-5.923 2.514-8.549 1.693-2.619 3.992-4.672 6.904-6.151q4.36-2.241 9.439-2.24m.176 3.127c-2.679 0-5.219.62-7.619 1.85-2.399 1.237-4.273 2.892-5.622 4.977-1.343 2.093-2.02 4.413-2.02 6.985q-.001 5.694 4.462 9.626c2.99 2.613 6.587 3.92 10.799 3.92 2.81 0 5.408-.597 7.788-1.807 2.405-1.203 4.266-2.851 5.6-4.936 1.349-2.084 2.02-4.413 2.02-6.956q.002-3.809-2.02-6.875c-1.334-2.056-3.216-3.697-5.645-4.935a16.96 16.96 0 0 0-7.743-1.849"/><path d="M254.626 674.373c5.49 0 10.085 1.62 13.788 4.852 3.695 3.232 5.544 7.206 5.544 11.935 0 4.685-1.849 8.646-5.544 11.912q-5.527 4.891-13.488 4.893c-5.378 0-9.91-1.619-13.609-4.871-3.698-3.239-5.548-7.173-5.548-11.781 0-3.08.838-5.923 2.514-8.549 1.693-2.619 3.992-4.672 6.904-6.151q4.362-2.241 9.439-2.24m.176 3.127c-2.679 0-5.218.62-7.619 1.85-2.399 1.237-4.273 2.892-5.622 4.977-1.343 2.093-2.02 4.413-2.02 6.985q-.001 5.694 4.464 9.626 4.482 3.92 10.797 3.92c2.811 0 5.408-.597 7.788-1.807 2.405-1.203 4.266-2.851 5.6-4.936 1.349-2.084 2.02-4.413 2.02-6.956q.002-3.809-2.02-6.875c-1.334-2.056-3.216-3.697-5.645-4.935a16.96 16.96 0 0 0-7.743-1.849z" style="fill:none;stroke:#000;stroke-width:.3499;stroke-miterlimit:2.6131"/><path d="M281.427 675.172h7.225c4.023 0 6.754.153 8.184.439q3.23.658 5.249 2.807c1.349 1.419 2.024 3.178 2.024 5.262q-.002 2.608-1.407 4.588c-.919 1.32-2.242 2.314-3.966 2.996-1.73.665-4.11 1.007-7.153 1.021l13.047 14.874h-4.489l-13.016-14.874h-2.072v14.874h-3.626zm3.626 3.136v10.87l6.235.042c2.418 0 4.2-.202 5.355-.605 1.161-.409 2.065-1.048 2.708-1.931.66-.905.985-1.906.985-3.004a4.7 4.7 0 0 0-.985-2.912c-.661-.889-1.52-1.516-2.59-1.898-1.066-.374-2.845-.561-5.326-.561z"/><path d="M281.427 675.172h7.225c4.023 0 6.754.153 8.184.439q3.23.658 5.249 2.807c1.349 1.419 2.024 3.178 2.024 5.255 0 1.745-.471 3.274-1.407 4.595-.919 1.32-2.242 2.314-3.966 2.996-1.73.665-4.11 1.007-7.153 1.021l13.047 14.874h-4.489l-13.016-14.874h-2.072v14.874h-3.626v-31.987m3.626 3.136v10.87l6.235.042c2.418 0 4.2-.202 5.355-.605 1.161-.409 2.065-1.048 2.708-1.931.66-.905.985-1.906.985-3.011a4.68 4.68 0 0 0-.985-2.905c-.661-.889-1.52-1.516-2.59-1.898-1.066-.374-2.845-.561-5.326-.561h-6.382z" style="fill:none;stroke:#000;stroke-width:.3499;stroke-miterlimit:2.6131"/><path d="M311.896 675.172h20.786v3.157h-17.158v10.001h17.01v3.135h-17.01v12.543h17.01v3.151h-20.638zM338.943 675.172h3.653v28.901h13.924v3.086h-17.577zM361.75 675.172h3.623v31.987h-3.623z" style="stroke:#000;stroke-width:.3499;stroke-miterlimit:2.6131"/><path d="m388.499 675.172 16.914 31.987h-3.896l-5.694-10.523H380.19l-5.671 10.523h-4.037l17.128-31.987zm-.449 6.792-6.237 11.586h12.402z"/><path d="m388.499 675.172 16.914 31.987h-3.896l-5.694-10.523H380.19l-5.671 10.523h-4.037l17.128-31.987h.889m-.449 6.792-6.237 11.586h12.402l-6.165-11.586z" style="fill:none;stroke:#000;stroke-width:.3499;stroke-miterlimit:2.6131"/><path d="m119.701 271.848-37.913-38.879 33.809-.739-14.165-28.342 52.244 12.947-7.852 13.374-18.302-3.837 10.698 19.543-23.28.368 13.042 12.782zM191.537 128.808l18.25 47.802 15.817-5.871-7.006-18.366 37.471 9.662-17.803-46.773-15.169 4.732 7.096 18.805zM425.024 169.19l9.756-12.154s-9.052-10.474-14.08-13.105c-5.029-2.629-25.589-8.246-36.143 6.34-10.553 14.589-3.526 30.355 4.876 35.883 10.27 6.751 20.316 7.235 20.316 7.235l8.978-12.471s-12.662 1.599-18.605-3.706c-6.994-6.237-5.035-14.187-1.9-17.904 4.063-4.816 12.777-6.678 19.518-.786 4.825 4.217 7.284 10.668 7.284 10.668zM496.583 255.793c-.013.194 12.533-6.033 12.533-6.033s.133-9.349-4.464-15.763c-4.604-6.415-14.094-14.761-26.03-5.944-7.066 5.216-.298 25.426-6.422 26.526-5.476.985-8.078-16.105-7.534-19.984l-11.571 7.234s1.776 17.9 11.634 24.411c9.645 6.363 24.193.815 24.227-11.094.023-11.908-.428-16.04 2.02-16.935 2.447-.89 6.509 3.75 5.607 17.582z" style="stroke:#000;stroke-width:.2331;stroke-miterlimit:2.6131"/><path d="m279.374 152.8-2.469 6.32-17.123.578 27.65-50.881 33.851 47.893-18.966.955-3.121-5.564zm13.817-11.727-4.827-8.272-3.787 8.604z"/><path d="m279.374 152.8-2.469 6.32-17.123.578 27.653-50.881 33.848 47.893-18.966.955-3.121-5.564-19.822.699m13.817-11.727-4.827-8.272-3.787 8.604 8.614-.332z" style="fill:none;stroke:#000;stroke-width:.2331;stroke-miterlimit:2.6131"/><path d="m427.261 206.408-6.632 2.118-11.238-12.504 58.281-11.236-17.176 55.586-12.703-13.656 2.51-5.853zm18.118 3.006 3.611-8.836-9.296 2.566z"/><path d="m427.261 206.408-6.632 2.118-11.238-12.504 58.281-11.236-17.176 55.586-12.703-13.656 2.51-5.853-13.042-14.455m18.118 3.006 3.611-8.836-9.296 2.566 5.685 6.27z" style="fill:none;stroke:#000;stroke-width:.2331;stroke-miterlimit:2.6131"/><path d="M142.703 196.417c-7.529-7.962-12.804-24.482 4.975-38.19 17.315-13.345 33.85-6.092 40.175 2.23 6.167 8.117 8.554 24.132-6.111 35.543-15.548 12.095-31.505 8.378-39.039.417m12.997-10.299c-5.263-4.742-5.72-12.527-1.035-17.391 4.686-4.858 12.75-4.956 18.006-.214 5.255 4.742 5.72 12.526 1.034 17.39-4.685 4.862-12.749 4.957-18.005.215"/><path d="M142.703 196.417c-7.529-7.962-12.804-24.482 4.975-38.19 17.315-13.345 33.85-6.092 40.175 2.23 6.167 8.117 8.554 24.132-6.111 35.543-15.548 12.095-31.505 8.378-39.039.417m12.997-10.299c-5.263-4.742-5.72-12.527-1.035-17.391 4.686-4.858 12.75-4.956 18.006-.214 5.258 4.742 5.72 12.526 1.034 17.39-4.685 4.862-12.749 4.957-18.005.215z" style="fill:none;stroke:#000;stroke-width:.2331;stroke-miterlimit:2.6131"/><path d="m349.82 128.096-2.606 9.938s7.593 2.137 8.976-3.027c1.169-4.349-6.37-6.911-6.37-6.911m-11.079-14.505-13.98 46.278 15.803 3.719 4.497-16.818 6.021 20.827 18.575 4.681-9.601-25.148s9.883-.243 12.165-8.455c2.274-8.21-3.328-15.67-12.242-18.577-8.91-2.909-21.238-6.507-21.238-6.507"/><path d="m349.82 128.096-2.606 9.938s7.593 2.137 8.976-3.027c1.169-4.349-6.37-6.911-6.37-6.911m-11.079-14.505-13.98 46.278 15.803 3.719 4.497-16.818 6.021 20.827 18.575 4.681-9.601-25.148s9.883-.243 12.165-8.455c2.274-8.21-3.328-15.67-12.242-18.577-8.91-2.909-21.238-6.507-21.238-6.507z" style="fill:none;stroke:#000;stroke-width:.2331;stroke-miterlimit:2.6131"/><path d="M208.92 291.986c0-47.241 39.594-85.535 88.432-85.535 48.844 0 88.433 38.294 88.433 85.535 0 47.239-39.589 85.529-88.433 85.529-48.838.001-88.432-38.29-88.432-85.529" style="fill:#a7a9ac"/><path d="m262.644 217.207-3.501-2.37.799-.369 3.137.407z"/><path d="m262.199 219.582-5.366-3.631a83 83 0 0 1 2.307-1.114l3.503 2.37z" style="fill:#1c1b1c"/><path d="m261.754 221.96-7.164-4.852q1.11-.595 2.242-1.157l5.367 3.631z" style="fill:#2e2e2f"/><path d="m261.31 224.336-8.894-6.022c.718-.41 1.442-.815 2.174-1.206l7.164 4.852z" style="fill:#3d3d3e"/><path d="m260.864 226.713-10.561-7.155a83 83 0 0 1 2.113-1.245l8.894 6.022z" style="fill:#434345"/><path d="m260.421 229.086-12.166-8.241a93 93 0 0 1 2.048-1.288l10.561 7.155z" style="fill:#4a4b4c"/><path d="m259.977 231.462-13.718-9.287a82 82 0 0 1 1.997-1.329l12.166 8.241z" style="fill:#515254"/><path d="m259.532 233.838-15.208-10.296c.642-.464 1.284-.919 1.935-1.367l13.718 9.287z" style="fill:#58595b"/><path d="m257.676 235.259-15.233-10.316a88 88 0 0 1 1.881-1.401l15.208 10.296-.06.319z" style="fill:#5f6062"/><path d="m255.601 236.53-14.984-10.147q.903-.732 1.826-1.44l15.233 10.316z" style="fill:#656668"/><path d="m253.526 237.802-14.682-9.944a82 82 0 0 1 1.773-1.475l14.984 10.147z" style="fill:#6b6c6f"/><path d="m251.453 239.074-14.332-9.704a85 85 0 0 1 1.723-1.512l14.682 9.944z" style="fill:#6f7173"/><path d="m249.377 240.346-13.926-9.432a84 84 0 0 1 1.67-1.544l14.332 9.704z" style="fill:#757679"/><path d="m247.304 241.617-13.475-9.127a81 81 0 0 1 1.621-1.576l13.926 9.432z" style="fill:#7b7c7f"/><path d="m245.231 242.888-12.974-8.787q.773-.814 1.572-1.61l13.472 9.126z" style="fill:#808285"/><path d="m243.155 244.161-12.423-8.413q.75-.833 1.526-1.647l12.974 8.787z" style="fill:#86888a"/><path d="m241.079 245.435-11.824-8.009q.727-.85 1.477-1.678l12.423 8.413z" style="fill:#8c8e90"/><path d="m239.006 246.703-11.18-7.57q.702-.863 1.429-1.706l11.824 8.009z" style="fill:#919396"/><path d="m236.933 247.977-10.487-7.101q.68-.883 1.381-1.743l11.18 7.57z" style="fill:#95979a"/><path d="m234.86 249.249-9.748-6.597q.656-.9 1.333-1.776l10.487 7.101z" style="fill:#9b9da0"/><path d="m232.784 250.521-6.374-4.316-1.979-2.608q.338-.476.68-.944l9.748 6.597z" style="fill:#a1a3a6"/><path d="m230.707 251.793-.108-.075-4.189-5.513 6.374 4.316z" style="fill:#a7a9ac"/><path d="m233.826 294.231-10.952-7.416.024-.036.009-.008c.347-.461.708-.919 1.072-1.373 0 .001 4.144 4.131 9.847 8.833"/><path d="m248.781 306.575-26.984-18.276 1.077-1.483 10.952 7.416c4.49 3.704 9.944 7.763 15.102 10.451-.001 0-.069.672-.147 1.892" style="fill:#1c1b1c"/><path d="m248.672 308.712-27.907-18.901c.309-.475.633-.943.96-1.413l.073-.099 26.984 18.276a86 86 0 0 0-.11 2.137" style="fill:#2e2e2f"/><path d="m248.599 310.875-28.822-19.519a62 62 0 0 1 .988-1.544l27.907 18.901a99 99 0 0 0-.073 2.162" style="fill:#3d3d3e"/><path d="m248.562 313.063-29.731-20.135c.306-.523.617-1.045.945-1.572l28.822 19.519a127 127 0 0 0-.036 2.188" style="fill:#434345"/><path d="m248.559 315.273-30.635-20.749q.437-.791.907-1.597l29.731 20.135c-.004.704-.009 1.439-.003 2.211" style="fill:#4a4b4c"/><path d="m248.592 317.508-31.535-21.362c.276-.53.564-1.074.867-1.622l30.635 20.749q.009 1.076.033 2.235" style="fill:#515254"/><path d="m248.661 319.767-32.44-21.971q.396-.807.836-1.65l31.535 21.362q.028 1.096.069 2.259" style="fill:#58595b"/><path d="m248.766 322.051-33.344-22.582a87 87 0 0 1 .799-1.672l32.44 21.971c.03.74.063 1.505.105 2.283" style="fill:#5f6062"/><path d="m248.908 324.358-34.251-23.198c.236-.54.494-1.105.765-1.692l33.344 22.582q.06 1.133.142 2.308" style="fill:#656668"/><path d="m249.091 326.696-35.163-23.817q.331-.807.73-1.718l34.251 23.198q.081 1.149.182 2.337" style="fill:#6b6c6f"/><path d="m249.316 329.061-36.082-24.439c.198-.519.431-1.105.694-1.742l35.163 23.817q.102 1.162.225 2.364" style="fill:#6f7173"/><path d="m249.589 331.454-37.008-25.061a62 62 0 0 1 .653-1.771l36.082 24.439q.124 1.182.273 2.393" style="fill:#757679"/><path d="m249.907 333.884-37.309-25.268a50 50 0 0 1-.32-1.323s.1-.322.303-.9l37.008 25.061q.147 1.202.318 2.43" style="fill:#7b7c7f"/><path d="m250.281 336.352-36.922-25.007a56 56 0 0 1-.76-2.728l37.309 25.268q.17 1.222.373 2.467" style="fill:#808285"/><path d="m249.938 338.332-35.61-24.119a57 57 0 0 1-.97-2.869l36.922 25.007q.154.95.327 1.914c0 .001-.242.026-.669.067" style="fill:#86888a"/><path d="m247.071 338.6-31.531-21.357q-.639-1.47-1.212-3.03l35.61 24.119c-.616.062-1.625.156-2.867.268" style="fill:#8c8e90"/><path d="m244.167 338.847-27.1-18.354a60 60 0 0 1-1.527-3.249l31.531 21.357c-.871.077-1.857.161-2.904.246" style="fill:#919396"/><path d="m241.235 339.074-22.234-15.059a61 61 0 0 1-1.934-3.522l27.1 18.354c-.942.075-1.935.157-2.932.227" style="fill:#95979a"/><path d="m238.269 339.273-16.752-11.341a63 63 0 0 1-2.516-3.917l22.234 15.059c-.997.075-2.001.143-2.966.199" style="fill:#9b9da0"/><path d="m235.208 339.417-10.181-6.897a64 64 0 0 1-3.51-4.589l16.752 11.341c-1.083.065-2.12.111-3.061.145" style="fill:#a1a3a6"/><path d="m231.906 339.393-.431-.291c-.9-.756-3.444-2.994-6.448-6.582l10.181 6.897c-1.376.045-2.538.043-3.302-.024" style="fill:#a7a9ac"/><path d="m329.754 253.851-8.923-6.046c2.84-.099 4.622-.092 4.622-.092 1.46 1.776 2.901 3.873 4.301 6.138"/><path d="m332.831 259.199-16.5-11.177c1.679-.103 3.199-.172 4.5-.217l8.923 6.046a101 101 0 0 1 3.077 5.348" style="fill:#1c1b1c"/><path d="m335.395 264.199-23.407-15.852c1.522-.135 2.981-.242 4.344-.325l16.5 11.177c.893 1.657 1.75 3.341 2.563 5" style="fill:#2e2e2f"/><path d="m337.659 268.998-29.863-20.225c1.429-.167 2.836-.311 4.191-.426l23.407 15.852a173 173 0 0 1 2.265 4.799" style="fill:#3d3d3e"/><path d="m339.705 273.649-35.934-24.335c1.349-.205 2.697-.384 4.024-.54l29.863 20.225a225 225 0 0 1 2.047 4.65" style="fill:#434345"/><path d="m341.582 278.184-41.655-28.21a94 94 0 0 1 3.845-.66l35.934 24.335c.739 1.735 1.37 3.276 1.876 4.535" style="fill:#4a4b4c"/><path d="m342.534 282.099-46.256-31.327a77 77 0 0 1 3.648-.798l41.655 28.21a164 164 0 0 1 1.355 3.487c-.127.139-.268.283-.402.428" style="fill:#515254"/><path d="m340.602 284.057-47.735-32.331a57 57 0 0 1 3.411-.953l46.256 31.327c-.58.606-1.23 1.263-1.932 1.957" style="fill:#58595b"/><path d="m338.616 285.976-48.884-33.106a38 38 0 0 1 3.135-1.145l47.735 32.331q-.937.921-1.986 1.92" style="fill:#5f6062"/><path d="m336.599 287.875-49.423-33.47.076-.331.018-.028c.764-.42 1.589-.812 2.463-1.176l48.884 33.106q-.97.926-2.018 1.899" style="fill:#656668"/><path d="m334.559 289.759-48.029-32.527.646-2.827 49.423 33.47c-.665.617-1.345 1.248-2.04 1.884" style="fill:#6b6c6f"/><path d="m332.498 291.631-46.614-31.573.646-2.827 48.029 32.527q-1.02.93-2.061 1.873" style="fill:#6f7173"/><path d="m330.427 293.491-45.191-30.603.648-2.83 46.614 31.573q-1.028.93-2.071 1.86" style="fill:#757679"/><path d="m328.342 295.345-43.754-29.628.647-2.829 45.191 30.603c-.694.622-1.393 1.241-2.084 1.854" style="fill:#7b7c7f"/><path d="m326.24 297.191-42.298-28.646.646-2.828 43.754 29.628c-.711.626-1.409 1.24-2.102 1.846" style="fill:#808285"/><path d="m324.14 299.032-40.842-27.661.645-2.826 42.298 28.646c-.712.628-1.416 1.245-2.101 1.841" style="fill:#86888a"/><path d="M322.026 300.867 282.65 274.2l.647-2.829 40.842 27.661c-.727.635-1.434 1.248-2.113 1.835" style="fill:#8c8e90"/><path d="m319.905 302.7-37.903-25.671.648-2.829 39.376 26.666c-.743.646-1.456 1.259-2.121 1.834" style="fill:#919396"/><path d="m317.775 304.522-36.419-24.663.646-2.83 37.903 25.671c-.778.663-1.489 1.275-2.13 1.822" style="fill:#95979a"/><path d="m315.643 306.342-34.933-23.657.646-2.827 36.419 24.663c-.864.738-1.586 1.357-2.132 1.821" style="fill:#9b9da0"/><path d="m296.715 296.789-16.65-11.277.646-2.827 34.933 23.657-1.126.951c-5.318-3.689-11.835-7.377-17.803-10.504" style="fill:#a1a3a6"/><path d="m279.628 288.481-.21-.141.646-2.829 16.65 11.277a323 323 0 0 0-17.086-8.307" style="fill:#a7a9ac"/><path d="m347.374 351.825-4.626-3.133c1.758.286 3.431.471 4.948.521z"/><path d="m347.048 354.481-10.437-7.068a78 78 0 0 0 6.137 1.279l4.626 3.133z" style="fill:#1c1b1c"/><path d="m346.721 357.138-17.335-11.743c2.322.714 4.778 1.416 7.226 2.018l10.437 7.068z" style="fill:#2e2e2f"/><path d="m346.395 359.793-25.4-17.204c2.262.813 5.195 1.825 8.392 2.806l17.335 11.743z" style="fill:#3d3d3e"/><path d="m346.068 362.45-30.714-20.801q.546-.377 1.092-.771s1.766.709 4.548 1.711l25.4 17.204z" style="fill:#434345"/><path d="m344.567 364.314-31.33-21.22a98 98 0 0 0 2.117-1.445l30.714 20.801-.127 1.001c-.452.293-.913.579-1.374.863" style="fill:#4a4b4c"/><path d="M342.303 365.654 311.05 344.49a92 92 0 0 0 2.188-1.396l31.33 21.22c-.749.459-1.503.903-2.265 1.34" style="fill:#515254"/><path d="m339.962 366.948-31.165-21.108a99 99 0 0 0 2.253-1.35l31.253 21.165c-.774.441-1.554.875-2.341 1.293" style="fill:#58595b"/><path d="m337.547 368.188-31.07-21.041a91 91 0 0 0 2.32-1.307l31.165 21.108c-.8.426-1.602.836-2.415 1.24" style="fill:#5f6062"/><path d="M335.049 369.374 304.08 348.4a85 85 0 0 0 2.397-1.254l31.067 21.043q-1.234.612-2.495 1.185" style="fill:#656668"/><path d="m332.467 370.504-30.861-20.901a85 85 0 0 0 2.475-1.203l30.969 20.974q-1.28.585-2.583 1.13" style="fill:#6b6c6f"/><path d="m329.801 371.573-30.754-20.823a76 76 0 0 0 2.559-1.147l30.861 20.901a93 93 0 0 1-2.666 1.069" style="fill:#6f7173"/><path d="m327.035 372.58-30.632-20.743a84 84 0 0 0 2.644-1.087l30.754 20.823c-.918.349-1.835.687-2.766 1.007" style="fill:#757679"/><path d="m324.164 373.514-30.505-20.661a80 80 0 0 0 2.745-1.016l30.632 20.743c-.95.329-1.91.637-2.872.934" style="fill:#7b7c7f"/><path d="m321.186 374.377-30.385-20.58a78 78 0 0 0 2.857-.945l30.505 20.661q-1.48.457-2.977.864" style="fill:#808285"/><path d="m318.087 375.154-30.28-20.505c.881-.23 1.883-.509 2.995-.852l30.385 20.58a99 99 0 0 1-3.1.777" style="fill:#86888a"/><path d="m314.854 375.842-30.215-20.461a55 55 0 0 0 3.168-.732l30.28 20.505a97 97 0 0 1-3.233.688" style="fill:#8c8e90"/><path d="m311.476 376.435-26.516-17.962c-.772-1.72-1.255-2.791-1.305-2.908l.008-.015c.07-.011.409-.061.977-.17l30.215 20.461q-1.681.328-3.379.594" style="fill:#919396"/><path d="m307.935 376.914-21.115-14.302c-.72-1.597-1.354-3.006-1.861-4.138l26.516 17.962c-1.17.178-2.352.34-3.54.478" style="fill:#95979a"/><path d="m304.205 377.264-15.476-10.48a15 15 0 0 1-.32-.66l-1.589-3.514 21.115 14.302a89 89 0 0 1-3.73.352" style="fill:#9b9da0"/><path d="m300.266 377.471-7.684-5.203c-1.548-1.858-2.962-3.779-3.853-5.482l15.476 10.478a89 89 0 0 1-3.939.207" style="fill:#a1a3a6"/><path d="m292.582 372.268 7.684 5.203c-.961.034-1.921.045-2.889.045-1.442-1.465-3.19-3.318-4.795-5.248" style="fill:#a7a9ac"/><path d="m355.464 227.524-15.46-10.474a89 89 0 0 1 15.46 10.474" style="fill:#2e2e2f"/><path d="m359.383 231.036-24.113-16.331a92 92 0 0 1 4.734 2.345l15.46 10.474a89 89 0 0 1 3.919 3.512" style="fill:#3d3d3e"/><path d="m360.639 232.744-28.91-19.574c1.196.485 2.375 1 3.541 1.536l24.113 16.331a80 80 0 0 1 1.809 1.769z" style="fill:#434345"/><path d="m359.127 232.579-30.353-20.556a87 87 0 0 1 2.954 1.146l28.91 19.574z" style="fill:#4a4b4c"/><path d="m357.611 232.414-31.47-21.315q1.326.442 2.633.924l30.353 20.556z" style="fill:#515254"/><path d="m356.098 232.249-32.355-21.913c.808.243 1.604.499 2.399.763l31.47 21.315z" style="fill:#58595b"/><path d="m354.589 232.083-33.045-22.379q1.105.303 2.198.632l32.355 21.913z" style="fill:#5f6062"/><path d="m353.077 231.917-33.6-22.754q1.036.26 2.067.541l33.045 22.379z" style="fill:#656668"/><path d="m351.565 231.753-34.04-23.054q.98.22 1.951.464l33.6 22.754z" style="fill:#6b6c6f"/><path d="m350.051 231.588-34.388-23.29c.626.127 1.241.262 1.862.401l34.04 23.054z" style="fill:#6f7173"/><path d="m348.535 231.42-34.645-23.463q.888.161 1.772.341l34.388 23.29z" style="fill:#757679"/><path d="M347.023 231.256 312.18 207.66q.855.141 1.71.297l34.645 23.463z" style="fill:#7b7c7f"/><path d="m345.512 231.089-34.972-23.68a77 77 0 0 1 1.641.251l34.843 23.596z" style="fill:#808285"/><path d="m344.004 230.926-34.654-23.469a10 10 0 0 0-.289-.253q.745.094 1.48.206l34.972 23.68z" style="fill:#86888a"/><path d="m342.488 230.761-28.841-19.535a1348 1348 0 0 0-4.298-3.769l34.654 23.469z" style="fill:#8c8e90"/><path d="m340.974 230.595-23.106-15.65-4.22-3.719 28.841 19.535z" style="fill:#919396"/><path d="m339.462 230.43-17.387-11.774c-1.41-1.246-2.833-2.5-4.208-3.711l23.106 15.65z" style="fill:#95979a"/><path d="m337.95 230.264-11.701-7.922c-1.334-1.183-2.75-2.428-4.174-3.686l17.387 11.774z" style="fill:#9b9da0"/><path d="m336.438 230.098-6.034-4.083-4.155-3.673 11.701 7.922z" style="fill:#a1a3a6"/><path d="m334.923 229.933-.334-.226a2989 2989 0 0 0-4.185-3.692l6.034 4.083z" style="fill:#a7a9ac"/><path d="m382.038 267.313-.546-.372c.06-.264.122-.527.186-.777.125.381.242.767.36 1.149" style="fill:#1c1b1c"/><path d="m383.199 271.408-2.396-1.619c.246-1.006.475-1.964.689-2.848l.546.372a81 81 0 0 1 1.161 4.095" style="fill:#2e2e2f"/><path d="m384.1 275.322-3.991-2.699c.244-.973.475-1.926.695-2.834l2.396 1.619c.33 1.295.633 2.601.9 3.914" style="fill:#3d3d3e"/><path d="m384.78 279.093-5.383-3.642c.246-.956.484-1.905.711-2.829l3.991 2.699q.385 1.874.681 3.772" style="fill:#434345"/><path d="m385.267 282.728-6.599-4.467c.249-.935.493-1.875.729-2.809l5.383 3.642q.285 1.806.487 3.634" style="fill:#4a4b4c"/><path d="m385.582 286.251-7.664-5.194c.254-.917.504-1.852.75-2.795l6.599 4.467q.196 1.75.315 3.522" style="fill:#515254"/><path d="m385.749 289.668-8.622-5.838c.263-.892.524-1.821.791-2.773l7.664 5.194q.122 1.698.167 3.417" style="fill:#58595b"/><path d="m385.778 292.992-9.483-6.422c.274-.853.552-1.776.832-2.74l8.622 5.838q.034 1.155.035 2.318 0 .504-.006 1.006" style="fill:#5f6062"/><path d="m385.674 296.23-10.297-6.974c.293-.787.6-1.691.918-2.686l9.483 6.422a83 83 0 0 1-.104 3.238" style="fill:#656668"/><path d="m385.455 299.388-11.219-7.596c.341-.54.722-1.415 1.141-2.535l10.297 6.974a80 80 0 0 1-.219 3.157" style="fill:#6b6c6f"/><path d="m385.125 302.47-11.711-7.932c.11-1.117.35-2.022.774-2.669q.026-.038.048-.077l11.219 7.596a94 94 0 0 1-.33 3.082" style="fill:#6f7173"/><path d="m384.683 305.482-11.339-7.682c-.034-1.231-.028-2.323.07-3.262l11.711 7.932a88 88 0 0 1-.442 3.012" style="fill:#757679"/><path d="m384.15 308.423-10.636-7.203c-.074-1.23-.14-2.374-.171-3.419l11.339 7.682a81 81 0 0 1-.532 2.94" style="fill:#7b7c7f"/><path d="m383.517 311.299-9.8-6.638c-.065-1.209-.137-2.355-.202-3.441l10.636 7.203c-.194.967-.41 1.924-.634 2.876" style="fill:#808285"/><path d="m382.789 314.118-8.945-6.059a132 132 0 0 0-.127-3.398l9.8 6.638a87 87 0 0 1-.728 2.819" style="fill:#86888a"/><path d="m381.976 316.87-8.11-5.491a79 79 0 0 0-.021-3.321l8.945 6.059a94 94 0 0 1-.814 2.753" style="fill:#8c8e90"/><path d="m381.079 319.569-7.328-4.962q.095-1.652.114-3.228l8.11 5.491a80 80 0 0 1-.896 2.699" style="fill:#919396"/><path d="m380.099 322.211-6.612-4.476q.174-1.59.265-3.128l7.328 4.962q-.47 1.33-.981 2.642" style="fill:#95979a"/><path d="m379.036 324.798-5.961-4.034a53 53 0 0 0 .411-3.028l6.612 4.476a85 85 0 0 1-1.062 2.586" style="fill:#9b9da0"/><path d="m377.892 327.333-5.378-3.643q.33-1.48.561-2.927l5.961 4.034a76 76 0 0 1-1.144 2.536" style="fill:#a1a3a6"/><path d="m371.961 326.619-.157-.105c.273-.949.504-1.889.71-2.823l5.378 3.643c-.194.415-.389.831-.593 1.245z" style="fill:#a7a9ac"/><path d="m325.987 247.591 8.97-17.649s-21.56-18.823-25.377-22.639c0 0-13.789-1.537-24.616 0-14.457 2.055-24.948 6.919-24.948 6.919l3.059.587-3.818 19.704s17.335 10.272 27.676 19.39c0 0 8.376-3.729 18.829-5.137 12.013-1.615 20.225-1.175 20.225-1.175" style="fill:#fff"/><path d="M259.67 234.379s17.075 10.014 27.414 19.13c0 0 8.318-3.679 18.773-5.083 12.006-1.614 19.927-1.053 19.927-1.053l8.88-17.388s-21.634-18.891-25.448-22.705c0 0-13.232-1.517-24.057.021-14.458 2.056-24.437 6.715-24.437 6.715l2.763.847z" style="fill:#f3f4f4"/><path d="M260.082 234.245s16.814 9.758 27.155 18.874c0 0 8.253-3.626 18.717-5.033 12.004-1.614 19.627-.932 19.627-.932l8.792-17.129s-21.716-18.958-25.527-22.77c0 0-12.667-1.493-23.492.041-14.458 2.055-23.922 6.515-23.922 6.515l2.465 1.103z" style="fill:#ededee"/><path d="M260.493 234.113s16.561 9.499 26.895 18.619c0 0 8.196-3.577 18.657-4.988 12.004-1.613 19.336-.808 19.336-.808l8.695-16.868s-21.786-19.021-25.598-22.839c0 0-12.105-1.47-22.928.068-14.461 2.055-23.413 6.314-23.413 6.314l2.175 1.362z" style="fill:#e4e5e6"/><path d="M260.904 233.981s16.298 9.243 26.635 18.362c0 0 8.14-3.53 18.598-4.935 12.003-1.616 19.045-.691 19.045-.691l8.598-16.606s-21.855-19.091-25.675-22.904c0 0-11.534-1.451-22.366.09-14.454 2.052-22.893 6.109-22.893 6.109l1.871 1.621z" style="fill:#dcddde"/><path d="M261.319 233.847s16.034 8.985 26.369 18.104c0 0 8.081-3.477 18.541-4.884 12.006-1.613 18.748-.567 18.748-.567l8.507-16.345s-21.929-19.157-25.743-22.973c0 0-10.979-1.426-21.805.114-14.456 2.051-22.38 5.909-22.38 5.909l1.576 1.877z" style="fill:#d3d5d6"/><path d="M261.731 233.713s15.774 8.73 26.111 17.848c0 0 8.02-3.427 18.48-4.834 12.008-1.614 18.453-.447 18.453-.447l8.417-16.086s-22.009-19.221-25.824-23.036c0 0-10.409-1.405-21.238.13-14.451 2.056-21.869 5.713-21.869 5.713l1.282 2.136z" style="fill:#cdcfd0"/><path d="M262.137 233.583s15.516 8.471 25.854 17.59c0 0 7.963-3.376 18.424-4.785 12.004-1.616 18.158-.325 18.158-.325l8.323-15.824s-22.08-19.288-25.892-23.103c0 0-9.853-1.383-20.681.154-14.452 2.056-21.356 5.508-21.356 5.508l.988 2.394z" style="fill:#c4c6c8"/><path d="M259.109 234.511s24.146 15.177 27.632 19.273l-7.47 34.439s-15.936 6.5-30.37 16.373c0 0-15.695-9.633-24.654-19.264 0 0-.249-16.372 6.47-33.236z" style="fill:#939598"/><path d="M224.454 285.239s-.295-16.213 6.428-33.077l28.244-17.415s23.913 14.981 27.404 19.08l-7.421 34.24s-15.729 6.398-30.17 16.272c-.001 0-15.526-9.467-24.485-19.1" style="fill:#9b9da0"/><path d="M224.653 285.149s-.333-16.058 6.385-32.919l28.108-17.25s23.673 14.797 27.161 18.891l-7.373 34.044s-15.515 6.294-29.955 16.167c.001 0-15.361-9.298-24.326-18.933" style="fill:#a3a5a8"/><path d="M224.858 285.059s-.374-15.899 6.344-32.761l27.964-17.081s23.436 14.603 26.926 18.698l-7.327 33.848s-15.307 6.188-29.745 16.062c.001-.001-15.201-9.133-24.162-18.766" style="fill:#abadb0"/><path d="M225.061 284.97s-.416-15.742 6.308-32.605l27.82-16.915s23.202 14.412 26.687 18.508l-7.274 33.648s-15.101 6.085-29.536 15.959c0 0-15.042-8.964-24.005-18.595" style="fill:#b1b3b6"/><path d="M225.263 284.878s-.455-15.586 6.264-32.446l27.682-16.747s22.962 14.221 26.452 18.317l-7.23 33.448s-14.887 5.984-29.325 15.857c-.001.001-14.88-8.796-23.843-18.429" style="fill:#babcbe"/><path d="M225.465 284.79s-.497-15.428 6.226-32.292l27.538-16.579s22.727 14.031 26.218 18.128l-7.183 33.251s-14.682 5.878-29.116 15.753c0 0-14.721-8.632-23.683-18.261" style="fill:#c2c4c6"/><path d="M225.671 284.695s-.54-15.268 6.183-32.129l27.394-16.412s22.493 13.839 25.983 17.935l-7.138 33.056s-14.468 5.774-28.902 15.649c0 0-14.561-8.465-23.52-18.099" style="fill:#cbccce"/><path d="M225.877 284.605s-.581-15.11 6.136-31.973l27.258-16.242s22.252 13.65 25.743 17.746l-7.088 32.853s-14.254 5.673-28.691 15.546c0 0-14.399-8.299-23.358-17.93" style="fill:#d3d5d6"/><path d="M226.077 284.516s-.617-14.956 6.102-31.816l27.111-16.077s22.021 13.459 25.506 17.556l-7.04 32.658s-14.046 5.568-28.48 15.441c0 0-14.236-8.13-23.199-17.762" style="fill:#dcddde"/><path d="M226.278 284.426s-.658-14.797 6.064-31.66l26.967-15.909s21.785 13.269 25.276 17.366l-6.998 32.458s-13.835 5.465-28.27 15.339c-.001.001-14.075-7.962-23.039-17.594" style="fill:#e4e5e6"/><path d="M226.479 284.335s-.696-14.641 6.026-31.502l26.828-15.74s21.544 13.079 25.034 17.172l-6.947 32.262s-13.624 5.36-28.062 15.234c0 .001-13.912-7.798-22.879-17.426" style="fill:#ebebec"/><path d="M226.685 284.245s-.738-14.482 5.979-31.344l26.689-15.576s21.313 12.886 24.803 16.985l-6.902 32.061s-13.415 5.26-27.854 15.133c0 0-13.752-7.627-22.715-17.259" style="fill:#f3f4f4"/><path d="m224.137 243.586 6.801 8.604s-3.407 7.076-4.966 16.381c-1.562 9.311-1.821 16.352-1.821 16.352s-10.442 14.477-11.895 22.285l-2.722-4.393s-1.691-15.154 1.09-27.987c3.629-16.763 13.513-31.242 13.513-31.242" style="fill:#6d6e71"/><path d="M209.541 302.863s-1.712-15.253 1.043-27.954c3.677-16.907 13.505-31.225 13.505-31.225l6.73 8.532s-3.412 7.075-4.975 16.382c-1.556 9.307-1.817 16.349-1.817 16.349s-10.3 14.132-11.79 22.197z" style="fill:#757679"/><path d="M209.549 302.904s-1.736-15.342.998-27.913c3.716-17.054 13.489-31.212 13.489-31.212l6.656 8.461s-3.407 7.075-4.967 16.381c-1.563 9.306-1.82 16.351-1.82 16.351s-10.164 13.784-11.682 22.11z" style="fill:#7d7e81"/><path d="M209.563 302.953s-1.765-15.439.948-27.883c3.764-17.198 13.472-31.196 13.472-31.196l6.589 8.387s-3.413 7.079-4.977 16.384c-1.558 9.306-1.817 16.351-1.817 16.351s-10.018 13.44-11.576 22.025z" style="fill:#848689"/><path d="M209.568 302.999s-1.789-15.536.909-27.847c3.803-17.342 13.451-31.181 13.451-31.181l6.518 8.316s-3.412 7.077-4.969 16.383c-1.564 9.307-1.825 16.35-1.825 16.35s-9.876 13.096-11.471 21.937z" style="fill:#8a8c8e"/><path d="M209.581 303.045s-1.815-15.631.857-27.812c3.849-17.488 13.437-31.166 13.437-31.166l6.448 8.243s-3.407 7.075-4.971 16.381c-1.559 9.309-1.823 16.351-1.823 16.351s-9.732 12.752-11.362 21.853z" style="fill:#919396"/><path d="M209.589 303.091s-1.838-15.725.809-27.777c3.896-17.631 13.426-31.151 13.426-31.151l6.374 8.171s-3.413 7.076-4.971 16.384c-1.561 9.307-1.817 16.349-1.817 16.349s-9.601 12.404-11.261 21.766z" style="fill:#999b9e"/><path d="M209.601 303.138s-1.872-15.822.759-27.742c3.937-17.778 13.411-31.134 13.411-31.134l6.304 8.099s-3.408 7.074-4.972 16.379c-1.558 9.308-1.821 16.352-1.821 16.352s-9.456 12.059-11.151 21.682z" style="fill:#a1a3a6"/><path d="M209.608 303.185s-1.892-15.918.718-27.71c3.982-17.923 13.39-31.117 13.39-31.117l6.234 8.025s-3.413 7.075-4.971 16.381c-1.561 9.306-1.819 16.351-1.819 16.351s-9.318 11.716-11.048 21.594z" style="fill:#a9abae"/><path d="M209.615 303.231s-1.911-16.013.674-27.674c4.026-18.069 13.371-31.104 13.371-31.104l6.165 7.953s-3.409 7.074-4.971 16.384c-1.558 9.305-1.822 16.35-1.822 16.35s-9.175 11.367-10.94 21.508z" style="fill:#b1b3b6"/><path d="M209.623 303.278s-1.938-16.11.629-27.64c4.071-18.212 13.358-31.09 13.358-31.09l6.092 7.882s-3.413 7.075-4.971 16.383c-1.563 9.307-1.818 16.348-1.818 16.348s-9.037 11.025-10.841 21.424z" style="fill:#babcbe"/><path d="M209.634 303.322s-1.965-16.202.579-27.603c4.116-18.359 13.344-31.071 13.344-31.071l6.02 7.807s-3.408 7.076-4.969 16.383c-1.556 9.308-1.822 16.351-1.822 16.351s-8.889 10.679-10.728 21.335z" style="fill:#c2c4c6"/><path d="M209.642 303.367s-1.988-16.297.536-27.568c4.153-18.501 13.326-31.056 13.326-31.056l5.949 7.738s-3.41 7.072-4.967 16.38c-1.563 9.306-1.819 16.35-1.819 16.35s-8.753 10.335-10.627 21.25z" style="fill:#cbccce"/><path d="M209.651 303.414s-2.012-16.395.49-27.533c4.197-18.65 13.306-31.04 13.306-31.04l5.882 7.661s-3.407 7.075-4.969 16.383c-1.559 9.306-1.823 16.35-1.823 16.35s-8.609 9.99-10.518 21.166z" style="fill:#d1d3d4"/><path d="M209.662 303.461s-2.038-16.491.441-27.5c4.244-18.792 13.296-31.025 13.296-31.025l5.81 7.59s-3.416 7.075-4.975 16.383c-1.561 9.306-1.817 16.349-1.817 16.349s-8.471 9.646-10.419 21.079z" style="fill:#dadbdc"/><path d="M209.67 303.504s-2.059-16.585.395-27.462c4.285-18.938 13.279-31.009 13.279-31.009l5.739 7.516s-3.409 7.076-4.967 16.384c-1.563 9.307-1.827 16.347-1.827 16.347s-8.33 9.301-10.303 20.993z" style="fill:#e2e3e4"/><path d="M209.681 303.553s-2.085-16.682.348-27.429c4.334-19.083 13.264-30.995 13.264-30.995l5.67 7.445s-3.412 7.074-4.97 16.383c-1.563 9.305-1.824 16.349-1.824 16.349s-8.193 8.954-10.204 20.906z" style="fill:#ebebec"/><path d="M209.69 303.596s-2.11-16.774.302-27.391c4.374-19.228 13.247-30.98 13.247-30.98l5.597 7.37s-3.411 7.077-4.971 16.384-1.82 16.352-1.82 16.352-8.049 8.607-10.097 20.821z" style="fill:#f3f4f4"/><path d="M249.148 304.596s-1.999 14.453 1.237 33.716c0 0 13.454 15.182 33.12 17.343 0 0 16.43-2.407 32.621-14.694 0 0 1.494-26.734-1.995-34.195 0 0-28.634-17.339-35.106-18.543 0 0-17.188 7.222-29.877 16.373" style="fill:#808285"/><path d="M250.491 338.238s13.465 15.095 33.028 17.284c0 0 16.281-2.376 32.469-14.658 0 0 1.465-26.327-1.987-34.006 0 0-28.479-17.255-34.95-18.46 0 0-17.057 7.098-29.749 16.249-.001 0-2.053 14.327 1.189 33.591" style="fill:#888a8c"/><path d="M250.59 338.162s13.477 15.005 32.934 17.226c0 0 16.138-2.341 32.323-14.627 0 0 1.441-25.916-1.98-33.813 0 0-28.318-17.17-34.794-18.376 0 0-16.924 6.972-29.618 16.122.001.001-2.102 14.204 1.135 33.468" style="fill:#8d9092"/><path d="M250.696 338.087s13.484 14.915 32.842 17.168c0 0 15.983-2.311 32.175-14.595 0 0 1.409-25.509-1.979-33.618 0 0-28.162-17.089-34.631-18.293 0 0-16.801 6.844-29.488 15.999-.001-.001-2.161 14.074 1.081 33.339" style="fill:#95979a"/><path d="M250.8 338.012s13.487 14.826 32.741 17.109c0 0 15.844-2.279 32.031-14.56 0 0 1.384-25.103-1.967-33.428 0 0-28.007-17.003-34.478-18.211 0 0-16.67 6.723-29.362 15.872 0 .001-2.202 13.954 1.035 33.218" style="fill:#9d9fa2"/><path d="M250.904 337.94s13.496 14.736 32.649 17.049c0 0 15.696-2.246 31.884-14.53 0 0 1.355-24.693-1.963-33.233 0 0-27.852-16.923-34.319-18.128 0 0-16.543 6.598-29.237 15.748.001 0-2.254 13.828.986 33.094" style="fill:#a5a7aa"/><path d="M251.005 337.861s13.511 14.651 32.555 16.993c0 0 15.551-2.213 31.743-14.497 0 0 1.323-24.284-1.96-33.039 0 0-27.688-16.841-34.158-18.043 0 0-16.416 6.47-29.109 15.619-.001.001-2.306 13.705.929 32.967" style="fill:#abadb0"/><path d="M251.112 337.79s13.518 14.559 32.458 16.932c0 0 15.405-2.181 31.592-14.464 0 0 1.297-23.876-1.948-32.847 0 0-27.535-16.755-34.006-17.961 0 0-16.284 6.347-28.977 15.496-.001-.001-2.358 13.577.881 32.844" style="fill:#b3b5b8"/><path d="M251.215 337.713s13.522 14.471 32.361 16.873c0 0 15.258-2.146 31.445-14.428 0 0 1.274-23.465-1.944-32.657 0 0-27.373-16.672-33.844-17.878 0 0-16.155 6.222-28.848 15.37 0 0-2.41 13.457.83 32.72" style="fill:#bcbec0"/><path d="M251.316 337.639s13.534 14.383 32.273 16.815c0 0 15.109-2.115 31.299-14.397 0 0 1.245-23.059-1.936-32.463 0 0-27.224-16.588-33.692-17.794 0 0-16.029 6.094-28.72 15.244 0 0-2.462 13.329.776 32.595" style="fill:#c4c6c8"/><path d="M251.424 337.564s13.539 14.295 32.172 16.756c0 0 14.965-2.081 31.15-14.362 0 0 1.217-22.651-1.925-32.268 0 0-27.067-16.509-33.532-17.714 0 0-15.902 5.97-28.598 15.122 0-.002-2.506 13.2.733 32.466" style="fill:#cdcfd0"/><path d="M251.526 337.487s13.554 14.208 32.081 16.699c0 0 14.816-2.048 31.001-14.331 0 0 1.189-22.243-1.918-32.075 0 0-26.909-16.427-33.374-17.631 0 0-15.776 5.845-28.466 14.995.001.001-2.56 13.08.676 32.343" style="fill:#d3d5d6"/><path d="M251.628 337.417s13.559 14.113 31.986 16.637c0 0 14.669-2.016 30.857-14.298 0 0 1.161-21.833-1.918-31.885 0 0-26.745-16.343-33.215-17.547 0 0-15.639 5.722-28.337 14.872.001-.001-2.612 12.954.627 32.221" style="fill:#dcddde"/><path d="M251.729 337.338s13.575 14.028 31.893 16.58c0 0 14.525-1.98 30.71-14.265 0 0 1.137-21.421-1.909-31.69 0 0-26.586-16.258-33.058-17.464 0 0-15.517 5.595-28.206 14.745.001-.001-2.666 12.832.57 32.094" style="fill:#e4e5e6"/><path d="M251.836 337.264s13.575 13.939 31.799 16.521c0 0 14.375-1.952 30.563-14.23 0 0 1.105-21.017-1.905-31.497 0 0-26.433-16.179-32.905-17.38 0 0-15.385 5.468-28.072 14.617 0-.001-2.723 12.706.52 31.969" style="fill:#ededee"/><path d="M251.94 337.189s13.585 13.851 31.698 16.463c0 0 14.231-1.916 30.422-14.199 0 0 1.079-20.607-1.899-31.302 0 0-26.271-16.099-32.739-17.301 0 0-15.261 5.345-27.957 14.494 0 0-2.762 12.58.475 31.845" style="fill:#f3f4f4"/><path d="M343.023 281.716c.246-.481 15.43.964 30.123 11.561 0 0 3.725 22.639-1.499 33.233 0 0-15.188 17.096-24.4 22.64 0 0-13.695-2.412-31.122-8.427 0 0 .993-17.579-1.748-33.234.001 0 27.019-22.635 28.646-25.773" style="fill:#fff"/><path d="M316.424 340.501s1.033-16.898-1.652-32.894c0 0 26.775-22.47 28.397-25.606.252-.483 15.094.917 29.65 11.349 0 0 3.812 22.452-1.411 33.045 0 0-15.067 16.895-24.282 22.438 0 0-13.656-2.306-30.702-8.332" style="fill:#f3f4f4"/><path d="M316.727 340.278s1.068-16.216-1.565-32.552c0 0 26.537-22.309 28.159-25.443.246-.482 14.752.873 29.174 11.142 0 0 3.892 22.26-1.333 32.857 0 0-14.939 16.687-24.152 22.23 0 .001-13.62-2.197-30.283-8.234" style="fill:#ededee"/><path d="M317.036 340.054s1.092-15.533-1.486-32.207c0 0 26.298-22.144 27.922-25.28.247-.483 14.414.827 28.697 10.933 0 0 3.972 22.072-1.25 32.666 0 0-14.817 16.485-24.028 22.028 0 0-13.577-2.088-29.855-8.14" style="fill:#e4e5e6"/><path d="M317.336 339.833s1.128-14.855-1.398-31.868c0 0 26.061-21.978 27.683-25.115.252-.483 14.078.783 28.222 10.724 0 0 4.056 21.883-1.167 32.479 0 0-14.689 16.281-23.9 21.826-.002-.001-13.547-1.985-29.44-8.046" style="fill:#dcddde"/><path d="M317.638 339.609s1.163-14.174-1.31-31.522c0 0 25.819-21.818 27.445-24.953.246-.483 13.741.736 27.745 10.513 0 0 4.14 21.692-1.087 32.289 0 0-14.57 16.082-23.779 21.623 0-.001-13.502-1.877-29.014-7.95" style="fill:#d3d5d6"/><path d="M317.939 339.39s1.2-13.496-1.218-31.184c0 0 25.579-21.655 27.202-24.79.251-.483 13.4.695 27.273 10.307 0 0 4.215 21.503-1.012 32.098 0 0-14.439 15.876-23.65 21.419 0 .001-13.463-1.77-28.595-7.85" style="fill:#cdcfd0"/><path d="M318.246 339.168s1.227-12.815-1.14-30.841c0 0 25.347-21.49 26.971-24.629.246-.482 13.055.651 26.788 10.1 0 0 4.303 21.315-.921 31.909 0 0-14.313 15.673-23.529 21.216 0-.002-13.425-1.665-28.169-7.755" style="fill:#c4c6c8"/><path d="m361.094 232.624-26.042-2.599-9.216 17.528s9.68 14.024 17.143 34.107c0 0 14.855.301 30.446 11.769 0 0 7.196-17.268 8.127-27.343 0 0-7.353-22.295-20.458-33.462" style="fill:#fff"/><path d="M326.029 247.553s9.661 13.908 17.125 33.989c0 0 14.726.314 30.207 11.678 0 0 7.124-17.262 8.111-27.28 0 0-7.351-22.151-20.453-33.318l-25.822-2.549z" style="fill:#f3f4f4"/><path d="M326.222 247.553s9.644 13.793 17.1 33.874c0 0 14.606.329 29.982 11.581 0 0 7.049-17.254 8.096-27.218 0 0-7.356-22.002-20.459-33.172l-25.604-2.492z" style="fill:#ededee"/><path d="M326.415 247.553s9.623 13.677 17.089 33.758c0 0 14.471.343 29.738 11.487 0 0 6.976-17.247 8.08-27.156 0 0-7.357-21.858-20.461-33.023l-25.384-2.448z" style="fill:#e4e5e6"/><path d="M326.614 247.553s9.597 13.56 17.06 33.643c0 0 14.345.357 29.511 11.392 0 0 6.901-17.24 8.061-27.096 0 0-7.357-21.711-20.462-32.88l-25.156-2.389z" style="fill:#dcddde"/><path d="M326.808 247.553s9.581 13.444 17.042 33.526c0 0 14.211.372 29.271 11.296 0 0 6.83-17.234 8.045-27.033 0 0-7.356-21.564-20.457-32.732l-24.938-2.34z" style="fill:#d3d5d6"/><path d="M327 247.553s9.563 13.328 17.02 33.41c0 0 14.092.386 29.043 11.202 0 0 6.758-17.222 8.026-26.97 0 0-7.36-21.418-20.459-32.588l-24.717-2.288z" style="fill:#cdcfd0"/><path d="M327.19 247.553s9.546 13.212 17.012 33.295c0 0 13.955.401 28.805 11.11 0 0 6.683-17.221 8.007-26.91 0 0-7.364-21.273-20.461-32.442l-24.494-2.235z" style="fill:#c4c6c8"/><path d="M327.393 247.553s9.519 13.097 16.98 33.177c0 0 13.826.415 28.572 11.013 0 0 6.613-17.211 7.993-26.844 0 0-7.36-21.128-20.465-32.296l-24.271-2.184z" style="fill:#bcbec0"/><path d="M327.583 247.553s9.503 12.979 16.962 33.061c0 0 13.698.433 28.337 10.921 0 0 6.544-17.205 7.979-26.787 0 0-7.368-20.979-20.466-32.148l-24.052-2.132z" style="fill:#b3b5b8"/><path d="M327.778 247.553s9.483 12.862 16.941 32.945c0 0 13.573.446 28.103 10.825 0 0 6.475-17.198 7.966-26.722 0 0-7.372-20.835-20.476-32.004l-23.822-2.081z" style="fill:#abadb0"/><path d="M327.974 247.553s9.461 12.749 16.921 32.828c0 0 13.445.46 27.868 10.732 0 0 6.401-17.188 7.945-26.663 0 0-7.366-20.688-20.473-31.857l-23.599-2.026z" style="fill:#a5a7aa"/><path d="M328.164 247.553s9.445 12.633 16.903 32.714c0 0 13.316.474 27.637 10.635 0 0 6.322-17.183 7.927-26.601 0 0-7.369-20.539-20.47-31.708l-23.38-1.979z" style="fill:#9d9fa2"/><path d="M328.357 247.553s9.423 12.518 16.886 32.597c0 0 13.186.488 27.398 10.542 0 0 6.257-17.176 7.916-26.536 0 0-7.377-20.399-20.479-31.568l-23.156-1.924z" style="fill:#95979a"/><path d="M328.554 247.553s9.403 12.4 16.864 32.482c0 0 13.056.502 27.164 10.449 0 0 6.183-17.171 7.892-26.477 0 0-7.369-20.249-20.471-31.42l-22.936-1.874z" style="fill:#8d9092"/><path d="M328.752 247.553s9.378 12.283 16.841 32.366c0 0 12.93.516 26.927 10.351 0 0 6.107-17.161 7.882-26.414 0 0-7.37-20.104-20.476-31.273l-22.716-1.819z" style="fill:#888a8c"/><path d="M231.867 339.429c-.788 1.759-3.177 6.264-3.177 6.264s6.59 9.669 23.975 20.218c17.38 10.554 36.929 11.433 44.878 11.542 0 0-7.837-6.263-13.98-21.87 0 0-9.765-.985-18.627-6.042-8.862-5.055-14.542-11.541-14.542-11.541s-12.956 1.758-18.527 1.429" style="fill:#808285"/><path d="M228.69 345.713s6.665 9.748 24.055 20.247c17.405 10.507 36.67 11.369 44.619 11.48 0 0-7.742-6.157-13.877-21.73 0 0-9.733-.982-18.598-6.039-8.861-5.057-14.54-11.538-14.54-11.538s-12.952 1.715-18.518 1.387c-.795 1.757-3.141 6.193-3.141 6.193" style="fill:#888a8c"/><path d="M228.686 345.732s6.739 9.828 24.133 20.27c17.437 10.469 36.421 11.319 44.368 11.426 0 0-7.651-6.05-13.781-21.59 0 0-9.696-.977-18.559-6.035-8.867-5.055-14.546-11.538-14.546-11.538s-12.947 1.672-18.51 1.34c-.797 1.761-3.105 6.127-3.105 6.127" style="fill:#8d9092"/><path d="M228.686 345.75s6.812 9.908 24.215 20.3c17.457 10.427 36.162 11.259 44.107 11.37 0 0-7.558-5.948-13.68-21.451 0 0-9.665-.974-18.528-6.031-8.866-5.058-14.542-11.54-14.542-11.54s-12.94 1.63-18.508 1.297c-.794 1.758-3.064 6.055-3.064 6.055" style="fill:#95979a"/><path d="M228.686 345.769s6.88 9.988 24.29 20.327c17.489 10.382 35.907 11.205 43.856 11.314 0 0-7.467-5.84-13.584-21.31 0 0-9.633-.974-18.499-6.029-8.857-5.058-14.542-11.54-14.542-11.54s-12.935 1.584-18.501 1.256c-.791 1.757-3.02 5.982-3.02 5.982" style="fill:#9d9fa2"/><path d="M228.683 345.79s6.955 10.064 24.369 20.353c17.518 10.343 35.653 11.146 43.606 11.256 0 0-7.379-5.732-13.489-21.171 0 0-9.599-.969-18.463-6.024-8.861-5.059-14.542-11.541-14.542-11.541s-12.928 1.541-18.496 1.213c-.794 1.756-2.985 5.914-2.985 5.914" style="fill:#a5a7aa"/><path d="M228.683 345.808s7.024 10.145 24.451 20.383c17.536 10.299 35.393 11.091 43.346 11.199 0 0-7.283-5.632-13.388-21.031 0 0-9.568-.964-18.431-6.023s-14.542-11.537-14.542-11.537-12.928 1.496-18.491 1.166c-.797 1.756-2.945 5.843-2.945 5.843" style="fill:#abadb0"/><path d="M228.678 345.826s7.103 10.228 24.534 20.41c17.567 10.258 35.137 11.032 43.089 11.142 0 0-7.188-5.524-13.288-20.891 0 0-9.53-.961-18.396-6.018s-14.542-11.539-14.542-11.539-12.925 1.454-18.489 1.124c-.796 1.759-2.908 5.772-2.908 5.772" style="fill:#b3b5b8"/><path d="M228.678 345.845s7.173 10.307 24.613 20.437c17.589 10.216 34.88 10.976 42.832 11.087 0 0-7.099-5.419-13.196-20.754 0 0-9.495-.96-18.362-6.015-8.859-5.054-14.54-11.537-14.54-11.537s-12.915 1.408-18.477 1.081c-.8 1.755-2.87 5.701-2.87 5.701" style="fill:#bcbec0"/><path d="M228.674 345.864s7.249 10.387 24.692 20.464c17.618 10.174 34.625 10.918 42.578 11.027 0 0-7.008-5.312-13.095-20.608 0 0-9.461-.958-18.323-6.015-8.867-5.058-14.549-11.539-14.549-11.539s-12.905 1.368-18.473 1.037c-.794 1.76-2.83 5.634-2.83 5.634" style="fill:#c4c6c8"/><path d="M228.674 345.884s7.318 10.464 24.773 20.491c17.641 10.132 34.366 10.863 42.315 10.973 0 0-6.905-5.21-12.99-20.472 0 0-9.431-.952-18.294-6.01-8.861-5.056-14.541-11.538-14.541-11.538s-12.907 1.325-18.472.994c-.793 1.76-2.791 5.562-2.791 5.562" style="fill:#cdcfd0"/><path d="M228.671 345.902s7.392 10.546 24.855 20.518c17.663 10.092 34.111 10.808 42.065 10.918 0 0-6.82-5.104-12.899-20.335 0 0-9.394-.948-18.259-6.004-8.865-5.059-14.543-11.538-14.543-11.538s-12.898 1.277-18.467.948c-.798 1.758-2.752 5.493-2.752 5.493" style="fill:#d3d5d6"/><path d="M228.671 345.922s7.468 10.625 24.927 20.546c17.7 10.047 33.861 10.747 41.816 10.859 0 0-6.729-4.998-12.798-20.192 0 0-9.365-.95-18.23-6.004-8.858-5.056-14.541-11.539-14.541-11.539s-12.895 1.237-18.458.907c-.802 1.758-2.716 5.423-2.716 5.423" style="fill:#dcddde"/><path d="M228.671 345.941s7.539 10.704 25.012 20.573c17.716 10.005 33.599 10.692 41.552 10.801 0 0-6.633-4.892-12.701-20.053 0 0-9.331-.944-18.194-5.999-8.861-5.057-14.543-11.538-14.543-11.538s-12.886 1.192-18.455.863c-.795 1.758-2.671 5.353-2.671 5.353" style="fill:#e4e5e6"/><path d="M228.667 345.96s7.614 10.784 25.093 20.597c17.747 9.967 33.346 10.64 41.295 10.749 0 0-6.537-4.787-12.603-19.912 0 0-9.293-.941-18.156-5.999-8.863-5.055-14.541-11.537-14.541-11.537s-12.888 1.148-18.455.82c-.795 1.758-2.633 5.282-2.633 5.282" style="fill:#ededee"/><path d="M228.667 345.98s7.684 10.863 25.171 20.626c17.769 9.924 33.088 10.582 41.039 10.689 0 0-6.442-4.681-12.502-19.773 0 0-9.262-.935-18.126-5.992-8.863-5.058-14.542-11.54-14.542-11.54s-12.878 1.108-18.446.78c-.796 1.755-2.594 5.21-2.594 5.21" style="fill:#f3f4f4"/><path d="m377.146 328.441-5.599-2.002s-6.204 6.235-12.302 12.731c-6.115 6.496-11.826 9.79-11.826 9.79l-1.581 14.614s13.657-9.709 20.575-18.285c5.989-7.412 10.733-16.848 10.733-16.848" style="fill:#939598"/><path d="M345.987 363.425s13.477-9.562 20.395-18.138c5.987-7.412 10.76-16.81 10.76-16.81l-5.457-1.944s-6.207 6.235-12.313 12.729c-6.108 6.496-11.824 9.792-11.824 9.792z" style="fill:#9b9da0"/><path d="M346.137 363.273s13.297-9.41 20.216-17.986c5.986-7.414 10.783-16.778 10.783-16.778l-5.314-1.883s-6.204 6.237-12.315 12.732c-6.102 6.496-11.819 9.792-11.819 9.792z" style="fill:#a3a5a8"/><path d="M346.294 363.125s13.108-9.265 20.026-17.838c5.987-7.414 10.812-16.741 10.812-16.741l-5.177-1.827s-6.204 6.239-12.313 12.733c-6.106 6.494-11.823 9.79-11.823 9.79z" style="fill:#abadb0"/><path d="M346.447 362.975s12.924-9.115 19.845-17.691c5.986-7.414 10.835-16.705 10.835-16.705l-5.041-1.764s-6.204 6.237-12.309 12.731c-6.109 6.496-11.823 9.791-11.823 9.791z" style="fill:#b1b3b6"/><path d="M346.595 362.824s12.74-8.969 19.671-17.542c5.979-7.414 10.852-16.666 10.852-16.666l-4.896-1.707s-6.205 6.234-12.312 12.731c-6.105 6.497-11.822 9.791-11.822 9.791z" style="fill:#babcbe"/><path d="M346.748 362.677s12.556-8.822 19.486-17.396c5.979-7.413 10.879-16.629 10.879-16.629l-4.76-1.649s-6.202 6.237-12.309 12.733c-6.106 6.495-11.823 9.789-11.823 9.789z" style="fill:#c2c4c6"/><path d="M346.898 362.528s12.374-8.674 19.301-17.247c5.983-7.415 10.912-16.594 10.912-16.594l-4.622-1.588s-6.207 6.238-12.314 12.731c-6.105 6.496-11.826 9.789-11.826 9.789z" style="fill:#cbccce"/><path d="M347.051 362.378s12.195-8.524 19.116-17.101c5.984-7.411 10.94-16.558 10.94-16.558l-4.483-1.527s-6.203 6.238-12.311 12.733c-6.106 6.493-11.827 9.789-11.827 9.789z" style="fill:#d3d5d6"/><path d="M347.206 362.229s12.012-8.378 18.931-16.952c5.983-7.413 10.965-16.521 10.965-16.521l-4.345-1.469s-6.202 6.237-12.313 12.73c-6.104 6.497-11.825 9.791-11.825 9.791z" style="fill:#dcddde"/><path d="M347.36 362.08s11.821-8.229 18.746-16.804c5.985-7.412 10.987-16.483 10.987-16.483l-4.205-1.411s-6.203 6.235-12.309 12.731-11.827 9.789-11.827 9.789z" style="fill:#e4e5e6"/><path d="M347.511 361.929s11.641-8.079 18.564-16.653c5.982-7.415 11.02-16.446 11.02-16.446l-4.07-1.354s-6.203 6.236-12.308 12.731c-6.111 6.495-11.823 9.79-11.823 9.79z" style="fill:#ebebec"/><path d="M347.663 361.78s11.458-7.932 18.379-16.504c5.981-7.415 11.043-16.414 11.043-16.414l-3.926-1.294s-6.2 6.237-12.313 12.731c-6.103 6.496-11.824 9.792-11.824 9.792z" style="fill:#f3f4f4"/><path d="m377.079 328.899-3.784-1.232s-6.202 6.235-12.316 12.73c-6.101 6.496-11.818 9.789-11.818 9.789l-1.345 11.445s11.273-7.783 18.196-16.36c5.987-7.41 11.067-16.372 11.067-16.372M231.22 340.855c-.796 1.759-2.553 5.145-2.553 5.145s7.755 10.939 25.248 20.65c17.798 9.882 32.831 10.524 40.788 10.635 0 0-6.354-4.577-12.405-19.635 0 0-9.233-.933-18.094-5.989-8.863-5.057-14.543-11.538-14.543-11.538s-12.874 1.063-18.441.732M359.847 232.58l-22.495-1.77-8.406 16.743s9.362 12.167 16.82 32.25c0 0 12.801.529 26.698 10.256 0 0 6.031-17.155 7.861-26.351 0 .001-7.379-19.958-20.478-31.128m-15.625 51.4c.255-.48 12.726.603 26.317 9.891 0 0 4.389 21.124-.836 31.721 0 0-14.199 15.468-23.406 21.012 0 0-13.383-1.56-27.746-7.658 0 0 1.256-12.134-1.057-30.499 0-.001 25.109-21.327 26.728-24.467m-92.599 21.413s-2.818 12.458.422 31.721c0 0 13.592 13.762 31.604 16.403 0 0 14.083-1.882 30.273-14.167 0 0 1.049-20.197-1.895-31.109 0 0-26.114-16.01-32.587-17.217.001 0-15.123 5.219-27.817 14.369m-28.437-60.071 5.529 7.299s-3.413 7.077-4.972 16.384c-1.562 9.307-1.821 16.35-1.821 16.35s-7.909 8.264-9.991 20.732l-2.232-2.442s-2.133-16.874.259-27.362c4.414-19.371 13.228-30.961 13.228-30.961m36.187-7.762s21.074 12.697 24.562 16.794l-6.847 31.865s-13.21 5.153-27.645 15.026c0 0-13.592-7.461-22.557-17.092 0 0-.778-14.325 5.94-31.186zm65.004 8.285 8.222-15.563s-22.147-19.355-25.967-23.17c0 0-9.28-1.359-20.114.178-14.453 2.054-20.84 5.305-20.84 5.305l.693 2.655-3.822 18.199s15.256 8.214 25.595 17.332c0 0 7.905-3.325 18.367-4.731 11.999-1.616 17.866-.205 17.866-.205m-114.66 57.673 2.721 3.69s1.171 7.711 6.256 16.138c5.083 8.429 13.154 16.236 13.154 16.236l-3.449 6.052s-8.071-10.089-13.155-22.111c-4.138-9.788-5.527-20.005-5.527-20.005" style="fill:#fff"/><path d="m377.079 328.899-3.784-1.232s-6.202 6.235-12.316 12.73c-6.101 6.496-11.818 9.789-11.818 9.789l-1.345 11.445s11.273-7.783 18.196-16.36c5.987-7.41 11.067-16.372 11.067-16.372m-154.107-80.95c0-.795.015-1.585.031-2.376.114-.161.183-.25.183-.25l5.529 7.299s-2.713 5.619-4.405 13.43a123.5 123.5 0 0 1-1.338-18.103m57.959 105.081c-11.495-7.464-21.698-16.646-30.213-27.166-.849-12.722.905-20.472.905-20.472 12.694-9.15 27.818-14.369 27.818-14.369 6.474 1.207 32.587 17.217 32.587 17.217 2.943 10.912 1.895 31.109 1.895 31.109-16.19 12.285-30.273 14.167-30.273 14.167a42 42 0 0 1-2.719-.486m-51.786-66.578a123 123 0 0 1-2.175-7.348c.33-5.628 1.564-15.363 5.857-26.137l26.546-15.407s21.074 12.697 24.562 16.794l-6.847 31.865s-13.21 5.153-27.645 15.026c0 .001-11.48-6.296-20.298-14.793m130.702-53.872-22.495-1.77-8.406 16.743s9.362 12.167 16.82 32.25c0 0 12.801.529 26.698 10.256 0 0 6.031-17.155 7.861-26.351 0 .001-7.379-19.958-20.478-31.128m-15.625 51.4c.255-.48 12.726.603 26.317 9.891 0 0 4.389 21.124-.836 31.721 0 0-14.199 15.468-23.406 21.012 0 0-13.383-1.56-27.746-7.658 0 0 1.256-12.134-1.057-30.499 0-.001 25.109-21.327 26.728-24.467m-19.845-38.135 8.222-15.563s-22.147-19.355-25.967-23.17c0 0-9.28-1.359-20.114.178-14.453 2.054-20.84 5.305-20.84 5.305l.693 2.655-3.822 18.199s15.256 8.214 25.595 17.332c0 0 7.905-3.325 18.367-4.731 11.999-1.616 17.866-.205 17.866-.205" style="fill:#fff"/><path d="M254.856 247.949c0-2.684.12-5.339.344-7.966l4.173-2.422s21.074 12.697 24.562 16.794l-6.847 31.865s-4.625 1.806-11.391 5.323a92.7 92.7 0 0 1-10.841-43.594m113.232 94.647c-3.362.473-6.782.782-10.25.916a63 63 0 0 0 3.141-3.115c6.114-6.495 12.316-12.73 12.316-12.73l3.784 1.232s-3.951 6.969-8.991 13.697m-17.406.954c-11.245-.333-22.017-2.479-32.013-6.149.25-3.815.654-14.439-1.175-28.954 0 0 25.109-21.327 26.728-24.466.255-.48 12.726.603 26.317 9.891 0 0 4.389 21.124-.836 31.721 0-.001-10.284 11.203-19.021 17.957m-36.634-7.975c-19.339-8.211-35.445-22.226-45.948-39.774 6.499-3.104 11.341-4.777 11.341-4.777 6.474 1.207 32.587 17.217 32.587 17.217 2.154 7.989 2.165 20.959 2.02 27.334m45.799-102.995-22.495-1.77-8.406 16.743s9.362 12.167 16.82 32.25c0 0 12.801.529 26.698 10.256 0 0 6.031-17.155 7.861-26.351 0 .001-7.379-19.958-20.478-31.128m-35.47 13.265 8.222-15.563s-22.147-19.355-25.967-23.17c0 0-9.28-1.359-20.114.178-14.453 2.054-20.84 5.305-20.84 5.305l.693 2.655-3.822 18.199s15.256 8.214 25.595 17.332c0 0 7.905-3.325 18.367-4.731 11.999-1.616 17.866-.205 17.866-.205" style="fill:#fff"/><path d="M259.569 247.949c0-3.356.193-6.665.559-9.924 3.792 2.304 20.715 12.696 23.807 16.33l-6.847 31.865s-2.79 1.088-7.205 3.223a88.3 88.3 0 0 1-10.314-41.494m6.585-33.526c.343-.839.704-1.669 1.072-2.495 2.677-1.062 8.904-3.16 19.291-4.638 10.834-1.537 20.114-.178 20.114-.178 3.819 3.815 25.967 23.17 25.967 23.17l-8.222 15.563s-5.867-1.411-17.867.205c-10.462 1.406-18.367 4.731-18.367 4.731-10.339-9.118-25.595-17.332-25.595-17.332l3.822-18.199zm105.629 122.949a97 97 0 0 1-9.143 1.27c5.521-5.819 10.654-10.975 10.654-10.975l3.784 1.232c.001 0-2.146 3.788-5.295 8.473m-15.689 1.646q-1.166.027-2.343.027c-12.322 0-24.096-2.292-34.886-6.457.104-5.329-.06-13.735-1.371-24.141 0 0 25.109-21.327 26.728-24.466.255-.48 12.726.603 26.317 9.891 0 0 4.389 21.124-.836 31.721 0-.001-6.534 7.115-13.609 13.425m-41.995-8.419c-17.481-7.859-32.047-20.75-41.716-36.753 4.234-1.844 7.059-2.821 7.059-2.821 6.474 1.207 32.587 17.217 32.587 17.217 1.685 6.25 2.057 15.554 2.07 22.357m45.748-98.019-22.495-1.77-8.406 16.743s9.362 12.167 16.82 32.25c0 0 12.801.529 26.698 10.256 0 0 6.031-17.155 7.861-26.351 0 .001-7.379-19.958-20.478-31.128" style="fill:#f6f6f6"/><path d="M264.277 247.949q.001-3.628.307-7.179c6.479 4.045 16.981 10.798 19.351 13.585l-6.847 31.865s-1.083.422-2.96 1.255a83.9 83.9 0 0 1-9.851-39.526m.999-12.966a83.9 83.9 0 0 1 8.079-25.05c3.262-.888 7.621-1.854 13.163-2.643 10.834-1.537 20.114-.178 20.114-.178 3.819 3.815 25.967 23.17 25.967 23.17l-8.222 15.563s-5.867-1.411-17.867.205c-10.462 1.406-18.367 4.731-18.367 4.731-7.656-6.751-18.011-13.006-22.867-15.798m109.975 96.99a92 92 0 0 1-7.634 1.483c3.281-3.38 5.678-5.789 5.678-5.789l3.784 1.232s-.678 1.197-1.828 3.074m-13.968 2.212a94 94 0 0 1-7.532.306c-12.371 0-24.163-2.429-34.88-6.822a176 176 0 0 0-1.377-19.222s25.109-21.327 26.728-24.466c.255-.48 12.726.603 26.317 9.891 0 0 4.389 21.124-.836 31.721 0-.001-3.635 3.959-8.42 8.592m-47.264-8.676c-15.515-7.449-28.473-19.125-37.274-33.474 1.697-.664 2.696-1.011 2.696-1.011 6.474 1.207 32.587 17.217 32.587 17.217 1.292 4.796 1.815 11.386 1.991 17.268m45.828-92.929-22.495-1.77-8.406 16.743s9.362 12.167 16.82 32.25c0 0 12.801.529 26.698 10.256 0 0 6.031-17.155 7.861-26.351 0 .001-7.379-19.958-20.478-31.128" style="fill:#efeff0"/><path d="M268.987 247.949q0-2.177.117-4.322c6.023 3.859 12.96 8.531 14.831 10.728l-6.361 29.593a79.5 79.5 0 0 1-8.587-35.999m.671-10.367c1.361-10.428 4.749-20.248 9.77-29.079 2.104-.424 4.465-.839 7.089-1.213 10.834-1.537 20.114-.178 20.114-.178 3.819 3.815 25.967 23.17 25.967 23.17l-8.222 15.563s-5.867-1.411-17.867.205c-10.462 1.406-18.367 4.731-18.367 4.731-5.799-5.113-13.151-9.946-18.484-13.199m103.773 90.128q-.117.027-.236.057c.063-.065.101-.1.101-.1zm-6.982 1.309a88 88 0 0 1-12.698.916c-12.492 0-24.357-2.614-35.034-7.307a179 179 0 0 0-1.223-14.182s25.109-21.327 26.728-24.466c.255-.48 12.726.603 26.317 9.891 0 0 4.389 21.124-.836 31.721 0 0-1.252 1.366-3.254 3.427m-52.683-8.761c-12.879-6.678-23.768-16.476-31.581-28.353 9.088 3.616 29.844 16.336 29.844 16.336.916 3.401 1.442 7.706 1.737 12.017m46.081-87.678-22.495-1.77-8.406 16.743s9.362 12.167 16.82 32.25c0 0 12.801.529 26.698 10.256 0 0 6.031-17.155 7.861-26.351 0 .001-7.379-19.958-20.478-31.128" style="fill:#e9e9ea"/><path d="M273.699 247.949q0-.658.016-1.315c4.572 3.04 8.818 6.073 10.22 7.721l-4.712 21.924a75 75 0 0 1-5.524-28.33m.381-7.584c1.203-11.986 5.236-23.17 11.44-32.929q.49-.074.997-.146c10.834-1.537 20.114-.178 20.114-.178 3.819 3.815 25.967 23.17 25.967 23.17l-8.222 15.563s-5.867-1.411-17.867.205c-10.462 1.406-18.367 4.731-18.367 4.731-4.318-3.806-9.498-7.455-14.062-10.416m96.424 83.311a83 83 0 0 1-16.753 1.701c-12.688 0-24.691-2.857-35.349-7.94a185 185 0 0 0-.908-8.99s25.109-21.327 26.728-24.466c.255-.48 12.726.603 26.317 9.891 0-.001 3.899 18.776-.035 29.804m-57.264-8.932c-8.478-4.82-15.956-11.106-22.065-18.501 9.571 5.084 20.853 11.999 20.853 11.999.521 1.929.914 4.155 1.212 6.502m46.607-82.164-22.495-1.77-8.406 16.743s9.362 12.167 16.82 32.25c0 0 12.801.529 26.698 10.256 0 0 6.031-17.155 7.861-26.351 0 .001-7.379-19.958-20.478-31.128" style="fill:#e2e3e4"/><path d="M278.554 243.369c.87-13.537 5.557-26.074 13.037-36.613 8.502-.6 15.041.356 15.041.356 3.819 3.815 25.967 23.17 25.967 23.17l-8.222 15.563s-5.867-1.411-17.867.205c-10.462 1.406-18.367 4.731-18.367 4.731-2.951-2.6-6.304-5.127-9.589-7.412m93.163 75.369a78 78 0 0 1-17.966 2.088c-12.973 0-25.182-3.17-35.839-8.754a186 186 0 0 0-.418-3.626s25.109-21.327 26.728-24.466c.255-.48 12.726.603 26.317 9.891 0 0 2.899 13.953 1.178 24.867m-59.562-10.02a74 74 0 0 1-4.449-3.08 458 458 0 0 1 4.322 2.603q.064.236.127.477m-31.029-41.292a70.7 70.7 0 0 1-2.698-17.561c2.561 1.822 4.614 3.438 5.507 4.49zm78.721-34.846-22.495-1.77-8.406 16.743s9.362 12.167 16.82 32.25c0 0 12.801.529 26.698 10.256 0 0 6.031-17.155 7.861-26.351 0 .001-7.379-19.958-20.478-31.128" style="fill:#dcddde"/><path d="M283.129 246.697c.282-15.08 5.609-28.961 14.425-40.139 5.411.016 9.077.554 9.077.554 3.819 3.815 25.967 23.17 25.967 23.17l-8.222 15.563s-5.867-1.411-17.867.205c-10.462 1.406-18.367 4.731-18.367 4.731a92 92 0 0 0-5.013-4.084m89.063 67.218a73 73 0 0 1-18.441 2.355c-12.712 0-24.65-3.251-34.953-8.936 5.172-4.422 24.027-20.647 25.424-23.354.255-.48 12.726.603 26.317 9.891 0 0 2.127 10.243 1.653 20.044m-88.596-57.978a56 56 0 0 1-.226-2.175c.219.214.413.409.565.593zm76.251-23.357-22.495-1.77-8.406 16.743s9.362 12.167 16.82 32.25c0 0 12.801.529 26.698 10.256 0 0 6.031-17.155 7.861-26.351 0 .001-7.379-19.958-20.478-31.128" style="fill:#d5d7d8"/><path d="M287.826 247.949c0-15.693 5.861-30.054 15.582-41.163a53 53 0 0 1 3.224.326c3.819 3.815 25.967 23.17 25.967 23.17l-8.222 15.563s-5.867-1.411-17.867.205c-10.462 1.406-18.367 4.731-18.367 4.731l-.262-.226a66 66 0 0 1-.055-2.606m84.413 61.223a68 68 0 0 1-18.488 2.542c-11.295 0-21.928-2.746-31.221-7.587 7.419-6.406 20.538-17.907 21.691-20.147.255-.48 12.726.603 26.317 9.891.001 0 1.496 7.199 1.701 15.301m-12.392-76.592-22.495-1.77-8.406 16.743s9.362 12.167 16.82 32.25c0 0 12.801.529 26.698 10.256 0 0 6.031-17.155 7.861-26.351 0 .001-7.379-19.958-20.478-31.128" style="fill:#cfd1d2"/><path d="M292.531 247.949c0-15.149 5.883-28.968 15.56-39.439 6.194 5.771 24.508 21.772 24.508 21.772l-8.222 15.563s-5.867-1.411-17.867.205c-5.702.767-10.647 2.104-13.962 3.163q-.016-.627-.017-1.264m79.453 56.541a63.2 63.2 0 0 1-18.233 2.67c-9.879 0-19.21-2.264-27.475-6.283 7.409-6.459 16.97-15 17.945-16.897.255-.48 12.726.603 26.317 9.891.001 0 .957 4.62 1.446 10.619m-12.137-71.91-22.495-1.77-8.406 16.743s9.362 12.167 16.82 32.25c0 0 12.801.529 26.698 10.256 0 0 6.031-17.155 7.861-26.351 0 .001-7.379-19.958-20.478-31.128" style="fill:#c9cacc"/><path d="M297.239 247.867c.018-13.905 5.413-26.591 14.278-36.228 7.761 7.005 21.081 18.642 21.081 18.642l-8.222 15.563s-5.867-1.411-17.867.205a82 82 0 0 0-9.27 1.818m74.256 51.987a58.1 58.1 0 0 1-17.744 2.752c-8.466 0-16.499-1.802-23.712-5.032 6.545-5.775 13.365-12.006 14.183-13.594.255-.48 12.726.603 26.317 9.891 0 0 .496 2.401.956 5.983m-11.648-67.274-22.495-1.77-8.406 16.743s9.362 12.167 16.82 32.25c0 0 12.801.529 26.698 10.256 0 0 6.031-17.155 7.861-26.351 0 .001-7.379-19.958-20.478-31.128" style="fill:#c2c4c6"/><path d="M301.967 246.803c.287-12.293 5.148-23.491 13.002-32.065 7.708 6.877 17.63 15.544 17.63 15.544l-8.222 15.563s-5.867-1.411-17.867.205c-1.58.212-3.099.47-4.543.753m68.836 48.469a53.3 53.3 0 0 1-17.052 2.778c-7.057 0-13.792-1.366-19.926-3.841 5.174-4.646 9.736-8.948 10.396-10.228.255-.48 12.726.603 26.317 9.891.001-.001.107.507.265 1.4m-10.956-62.692-22.495-1.77-8.406 16.743s9.362 12.167 16.82 32.25c0 0 12.801.529 26.698 10.256 0 0 6.031-17.155 7.861-26.351 0 .001-7.379-19.958-20.478-31.128" style="fill:#bcbec0"/><path d="M306.704 246.024c.464-10.796 4.81-20.622 11.733-28.204a2679 2679 0 0 0 14.161 12.461l-8.222 15.563c.001.001-5.803-1.392-17.672.18m65.881 43.681q-.197.084-.395.167c-13.79-9.542-26.425-10.069-26.425-10.069-7.458-20.083-16.82-32.25-16.82-32.25l8.406-16.743 22.495 1.77c13.1 11.169 20.479 31.128 20.479 31.128-1.676 8.416-6.87 23.503-7.74 25.997m-5.531 1.947a48.5 48.5 0 0 1-13.303 1.846 48.5 48.5 0 0 1-16.131-2.741c3.453-3.196 6.111-5.823 6.602-6.776.23-.441 10.662.432 22.832 7.671" style="fill:#b6b8ba"/><path d="M311.443 245.52c.57-9.414 4.422-17.975 10.469-24.623a2970 2970 0 0 0 10.687 9.385l-8.222 15.563s-4.259-1.02-12.934-.325m63.194 38.103a42.7 42.7 0 0 1-7.346 3.183c-11.747-6.597-21.525-7.004-21.525-7.004-7.458-20.083-16.82-32.25-16.82-32.25l8.406-16.743 22.495 1.77c13.1 11.169 20.479 31.128 20.479 31.128-1.109 5.578-3.767 14.087-5.689 19.916m-13.834 4.752a44 44 0 0 1-7.052.567c-4.3 0-8.452-.621-12.361-1.773 1.506-1.488 2.543-2.628 2.832-3.188.188-.361 7.293.163 16.581 4.394" style="fill:#afb1b4"/><path d="M316.174 245.288c.609-8.142 3.983-15.54 9.22-21.325 4.095 3.602 7.205 6.319 7.205 6.319l-8.222 15.563s-2.711-.646-8.203-.557m60.655 31.462a38.16 38.16 0 0 1-15.873 6.969c-8.728-3.646-15.19-3.916-15.19-3.916-7.458-20.083-16.82-32.25-16.82-32.25l8.406-16.743 22.495 1.77c13.1 11.169 20.479 31.128 20.479 31.128-.723 3.624-2.1 8.484-3.497 13.042" style="fill:#a9abae"/><path d="M320.891 245.402c.573-7.008 3.486-13.377 7.985-18.377 2.249 1.973 3.723 3.257 3.723 3.257l-8.222 15.563s-1.158-.273-3.486-.443m58.417 22.685c-6.046 7.169-15.245 11.744-25.557 11.744-2.887 0-5.692-.355-8.364-1.032-7.392-19.483-16.441-31.247-16.441-31.247l8.406-16.743 22.495 1.77c13.1 11.169 20.479 31.128 20.479 31.128a90 90 0 0 1-1.018 4.38" style="fill:#a3a5a8"/><path d="M326.01 242.753c.952-4.786 3.193-9.127 6.358-12.669l.23.198zm52.925 17.59c-4.672 8.866-14.189 14.933-25.184 14.933-3.739 0-7.309-.702-10.578-1.979-6.87-16.171-14.228-25.744-14.228-25.744l8.406-16.743 22.495 1.77c9.79 8.346 16.381 21.597 19.089 27.763" style="fill:#9d9fa2"/><path d="M330.203 247.949q.001-1.752.269-3.436l6.089-12.12c.509-.53 1.052-1.04 1.61-1.519l21.676 1.706c7.384 6.296 12.944 15.387 16.4 22.118-2.977 9.283-11.919 16.024-22.496 16.024-5.091 0-9.81-1.563-13.661-4.219-4.072-8.417-7.908-14.336-9.841-17.128a25 25 0 0 1-.046-1.426" style="fill:#97999c"/><path d="M334.915 247.949c0-7.284 4.414-13.564 10.802-16.482l14.13 1.114c5.173 4.412 9.453 10.197 12.735 15.58-.115 9.965-8.5 18.008-18.831 18.008-10.404-.001-18.836-8.157-18.836-18.22" style="fill:#919396"/><path d="M339.625 247.949c0-7.545 6.324-13.665 14.126-13.665s14.129 6.12 14.129 13.665c0 7.547-6.328 13.664-14.129 13.664-7.802 0-14.126-6.117-14.126-13.664" style="fill:#8c8e90"/><path d="M344.333 247.949c0-5.03 4.215-9.108 9.418-9.108 5.198 0 9.421 4.078 9.421 9.108 0 5.033-4.223 9.109-9.421 9.109-5.203 0-9.418-4.077-9.418-9.109" style="fill:#86888a"/><path d="M349.042 247.949c0-2.514 2.11-4.554 4.709-4.554 2.6 0 4.709 2.041 4.709 4.554 0 2.515-2.109 4.553-4.709 4.553s-4.709-2.039-4.709-4.553" style="fill:#808285"/><path d="M205.061 633.229C173.621 607.47 153.62 569 153.62 526.027c0-25.933 7.263-50.216 19.933-71.066l123.83 94.906 127.204-94.101c12.368 20.663 19.423 44.655 19.423 70.261 0 42.569-19.582 80.72-50.513 106.471l55.232 47.033c42.122-38.491 68.408-93.031 68.408-153.504 0-69.447-34.633-131.062-88.134-169.548l-131.621 98.349-127.11-99.501c-54.416 38.403-89.78 100.558-89.78 170.701 0 61.141 26.915 116.215 69.855 154.781l54.714-47.58z" style="fill:#ed1c24;stroke:#fff;stroke-width:1.0495;stroke-miterlimit:2.6131"/><path d="m295.5 168.287 5.306 10.752 11.865 1.724-8.586 8.369 2.027 11.816-10.612-5.579-10.612 5.579 2.027-11.816-8.586-8.369 11.865-1.724z" style="fill:#ed1c24"/></svg>