<svg xmlns="http://www.w3.org/2000/svg" id="Layer_1" data-name="Layer 1" viewBox="0 0 319.32 458.77"><defs><style>.cls-2{fill:#0066b3}.cls-3{fill:#fff}</style></defs><title>all_svenskan_logo</title><path d="M0 0h319.32v458.77H0z" style="fill:#ffd41c"/><path d="M231.17 152.23c-5.3-10.61-53.76-118.35-104.37-118.35-52.42 0-75.46 88.66-75.46 88.66s47.23-129 131.29 51.55c25.1 53.9 34.87 96.34 27.46 123.62-11.66 42.91-74.86 20.06-74.86 20.06 42.06 18.51 113.06 41.75 126.73-17.11 13.33-57.55-30.79-148.43-30.79-148.43m-86.18 169c118.3 36.44 104.35-56.39 59.37-156.23-32.17-71.41-96.63-172.13-150.69-48.89C104.02-7.8 168.8 74.32 209.19 161.46c22.1 47.65 88.1 211.2-64.2 159.75Z" class="cls-2"/><path d="m130.73 315.27.46.23-.31-.21-1-.52Z" class="cls-3"/><path d="M214.69 95.18a64.45 64.45 0 0 0-66.31 52.15c-13.36 5.85-26.74 12-38 17.6-61.74 30.88-71.32 55.66-66.65 78.43 8.56 41.66 90.34 73.75 90.34 73.75s-33.71-21.76-27.06-53.22c5-23.8 36.88-36.31 70.33-49.78a64.43 64.43 0 1 0 37.35-118.9Zm-113.4 193.93c7.85 11.38 25 23.2 29.58 26.2l.66.34c.11.06.13.11-.07 0l-.28-.14.81.53-1.27-.76c-148.17-73.45-32.4-126.53-14-136.34 4.6-2.45 16.55-7.92 30.73-14.25a64.1 64.1 0 0 0 4 17.92l-5.33 2.23c-76.87 32.1-83.91 63.91-63.53 92.7 12.19 17.21 39.71 33.15 47.29 37.24-117.94-70.87-2.2-116.27 19.41-125.3l4.38-1.84a65 65 0 0 0 10.05 14.93l-4.29 1.64c-83.57 31.8-69.14 68.9-58.14 84.9" class="cls-3"/><path d="M214.42 131.43a64 64 0 0 1-9.8-1.21l-.92 2.89c9.36 3.88 17.36 12.25 21.19 23.57a43 43 0 0 1 1.82 7.57l2.58-.14c0-1.21 0-2.43.06-3.67.63-13.33 5.65-24.81 12.67-31l-2-2.59c-6.48 3.26-15.57 5.06-25.54 4.58ZM203.88 206.9l-.6-2c-12.11 3.41-24.71-1.21-33.18-11.11l-1.81 1.73c12 13 14.9 19 13.64 21.27a26.3 26.3 0 0 0 5.31 2.39 4.3 4.3 0 0 1-.06-.84c.48-4.91 6-7.76 16.72-11.44ZM163.53 189.66l2.2-2.05a42.6 42.6 0 0 1-3.37-7.47 41.57 41.57 0 0 1 .85-29.43l-2-1.39c-6.57 11.14-10.94 14.08-13.82 15.41a64 64 0 0 0 1.31 8.92c5.27 3 7.63 6.34 14.81 16ZM178.29 110.9c-.94 6.42-6.09 19.11-13.74 32.62l1.84 1.26a31.33 31.33 0 0 1 15.07-12.21 29.45 29.45 0 0 1 15.56-1.46l.88-2.74c-10.55-3.6-17.5-9.93-17.2-16.8a9 9 0 0 1 .21-1.56l-2.58.85ZM209.29 202.64l1 2.26c3.42-.95 7-1.8 10.72-2.51 9.49-1.84 18.44-2.38 24.95-1.7l.88-2.94c-8.35-2.8-14.77-12.69-16.87-25.42l-2.89.16c-.63 12.88-7.19 24.52-17.79 30.15M249.79 114.87c-.16 3.25-1.93 6.22-4.9 8.73l2 2.52a15.44 15.44 0 0 1 7.58-1.58c7.74.47 14.6 4.69 17.23 11.54a64.33 64.33 0 0 0-27.81-32.34c4.86 3.39 6.13 6.7 5.92 11.13ZM251.46 198.54l-.88 2.93c3.56.93 5.66 2.45 5.65 4.56a62.1 62.1 0 0 0 15.19-22.37c-4.7 8.5-10.31 15-20 14.88ZM276.16 213.8h-1.45v-3.82l-1.86 3.82h-.91l-1.86-3.82v3.82h-1.45v-4.76h2.29l1.5 2.81 1.44-2.81h2.36v4.76Zm-8.35-3.82h-2v3.82h-1.52v-3.82h-2v-.94h5.54v.94ZM200.5 96.05a64.3 64.3 0 0 0-27.09 11.6c1.87-1 3.33-1.34 4.1-1.06.52.19.82.75.93 1.61l3.84-1.48c2.25-4.2 9-8.6 18-10.64h.25ZM55.42 372.46a5.47 5.47 0 0 1 2.73-5 12 12 0 0 1 6-1.28c4.07 0 8.62 1.49 8.62 7.57v11a18 18 0 0 0 .28 2.21h-5.47a20 20 0 0 1-.2-2.69h-.09a6.59 6.59 0 0 1-6.2 3.3c-3.78 0-6.6-2.18-6.6-6.12a7 7 0 0 1 4.31-6.41 19.2 19.2 0 0 1 7.89-1.08v-1.85a2.58 2.58 0 0 0-2.78-2.5 2.73 2.73 0 0 0-2.7 2.9Zm4.87 8.17a2.83 2.83 0 0 0 2.94 2.9c3.34 0 3.46-3.7 3.46-6.08-2.09 0-6.4-.08-6.4 3.18M84.14 357.88v29.08h-6.03v-29.08zM95.56 357.88v29.08h-6.04v-29.08zM108.68 366.11c3.82 0 7 1.32 7.36 5.59h-2.61c-.24-2.53-2.5-3.38-5-3.38-2.25 0-4.55.89-4.55 3.26 0 3 3.91 2.7 9.39 4.63a4.93 4.93 0 0 1 3.42 4.71c0 4.55-4.23 6.61-8.5 6.61-3.5 0-7.53-1.65-7.61-6.12h2.62c.2 3 2.86 3.9 5.6 3.9 2.57 0 5.27-1.21 5.27-4s-3.18-3.39-6.4-4.11-6.4-1.69-6.4-5.44c0-4.18 3.86-5.63 7.41-5.63ZM122.08 366.74l6.97 16.87 6.72-16.87h2.66l-8.01 20.22h-2.74l-8.25-20.22zM143.47 377.41c.08 4.31 2.06 7.93 7 7.93a6 6 0 0 0 5.82-4.83h2.54c-1.25 4.83-4.27 7.05-9.14 7.05-6.05 0-8.86-5.2-8.86-10.71s3-10.71 9-10.71c6.76 0 9.22 5 9.22 11.27Zm13-2.21c-.28-3.91-2.38-6.85-6.56-6.85-3.95 0-6 3.3-6.37 6.85ZM167.02 386.95h-2.42v-15.66c0-1.57-.12-3.18-.2-4.55h2.5l.12 3 .08.08a6.94 6.94 0 0 1 6.32-3.66c6.6 0 7.13 5.83 7.13 8.17v12.64h-2.42v-13c0-3.51-2-5.56-5.32-5.56-4 0-5.79 3.34-5.79 7v11.63ZM193.48 366.11c3.83 0 7.05 1.32 7.37 5.59h-2.62c-.24-2.53-2.49-3.38-5-3.38-2.26 0-4.55.89-4.55 3.26 0 3 3.9 2.7 9.38 4.63a4.91 4.91 0 0 1 3.42 4.71c0 4.55-4.22 6.61-8.49 6.61-3.51 0-7.53-1.65-7.61-6.12h2.61c.21 3 2.86 3.9 5.6 3.9 2.58 0 5.28-1.21 5.28-4s-3.18-3.39-6.41-4.11-6.4-1.69-6.4-5.44c0-4.18 3.87-5.63 7.41-5.63ZM209.7 375l9.78-8.26h3.11l-10.23 8.74 11.03 11.48h-3.06L209.7 376v10.96h-2.42v-29.08h2.42zM239.07 372.7c-.24-3.3-1.93-4.35-4.79-4.35-2.54 0-4.63.77-5 3.5h-2.57c.6-4.14 3.7-5.71 7.57-5.71 4.47 0 7.25 2.05 7.16 6.68v9.58c0 1.57.12 3.18.21 4.55h-2.5l-.08-3h-.08l-.12.29c-.89 1.69-3.59 3.3-6.32 3.3-3.75 0-6.73-2.3-6.73-6.24a6.23 6.23 0 0 1 4.07-5.84c2.7-1.17 6.2-.77 9.14-.93v-1.85Zm-6 12.64c5.27 0 6.28-4.35 6-8.57-3.42.12-10.59-.53-10.59 4.55 0 2.73 2.09 4 4.55 4ZM84.02 422.19v-18h-4.07v-2.22h4.07v-4.31c0-3.46 1.41-5 4.87-5a11 11 0 0 1 2.3.44v1.94a9.6 9.6 0 0 0-1.49-.16c-3.31 0-3.39 1.65-3.26 4.55V402h4.59v2.22h-4.59v18ZM112.85 412.11c0 5.31-3 10.71-9.42 10.71s-9.42-5.4-9.42-10.71 3-10.71 9.42-10.71 9.42 5.39 9.42 10.71m-9.42-8.5c-4.87 0-6.8 4.75-6.8 8.5s1.93 8.49 6.8 8.49 6.86-4.78 6.86-8.49-1.94-8.5-6.81-8.5ZM119.19 404.19h-4v-2.22h4v-4.31l2.42-1v5.35h4.59v2.22h-4.59v13.53a2.49 2.49 0 0 0 2.77 2.85 7.2 7.2 0 0 0 2.1-.24v2.1a10.2 10.2 0 0 1-2.46.36c-5.11 0-4.83-3.26-4.83-6v-12.6ZM134.13 422.19h-2.5c.08-1.37.2-3 .2-4.55v-24.53h2.46v11.84l.08.08a8.08 8.08 0 0 1 6.92-3.66c6 0 8.3 5.39 8.3 10.63 0 5.07-2.3 10.79-8.18 10.79a8.25 8.25 0 0 1-7-3.75l-.08.17-.12 3Zm.12-10.51c0 4.59 1.61 8.89 6.88 8.89 4.63 0 5.8-5 5.8-8.77s-1.57-8.22-6.16-8.22-6.52 4-6.52 8.1M172.93 412.11c0 5.31-3 10.71-9.42 10.71s-9.43-5.4-9.43-10.71 3-10.71 9.43-10.71 9.42 5.39 9.42 10.71m-9.42-8.5c-4.88 0-6.81 4.75-6.81 8.5s1.93 8.49 6.81 8.49 6.8-4.75 6.8-8.49-1.93-8.5-6.8-8.5M180.53 422.19h-2.42v-29.07h2.42zM189.46 422.19h-2.41v-29.07h2.41zM249.96 386.95h-2.42v-15.67c0-1.57-.12-3.18-.2-4.55h2.49l.13 3 .08.08a7 7 0 0 1 6.32-3.66c6.6 0 7.13 5.84 7.13 8.17v12.65h-2.42v-13c0-3.5-2-5.55-5.32-5.55-4 0-5.79 3.34-5.79 7v11.64ZM196.54 407.19c1.63-1.79 8.64-7 8.64-9.71a2.23 2.23 0 0 0-2.19-2.37c-1.44 0-2.24 1.45-2.24 2.77h-4c-.13-3.69 2.79-5.33 6.11-5.33 3.13 0 6.15 1.46 6.15 5 0 4.43-6.12 7.83-8.65 10.7h8.78v2.56h-12.6zm23.17-5.29c0 .44.2 6.73-2.3 6.73s-2.3-6.29-2.3-6.73-.2-6.78 2.3-6.78 2.3 6.34 2.3 6.78m4 0c0-4.35-1.31-9.34-6.36-9.34-4.89 0-6.2 5-6.2 9.34s1.31 9.29 6.2 9.29c5.05 0 6.36-4.94 6.36-9.29m10.36 0c0 .44.2 6.73-2.3 6.73s-2.3-6.29-2.3-6.73-.2-6.78 2.3-6.78 2.3 6.34 2.3 6.78m4 0c0-4.35-1.31-9.34-6.36-9.34-4.89 0-6.2 5-6.2 9.34s1.31 9.29 6.2 9.29c5.05 0 6.36-4.94 6.36-9.29m10.36 0c0 .44.2 6.73-2.3 6.73s-2.3-6.29-2.3-6.73-.2-6.78 2.3-6.78 2.3 6.34 2.3 6.78m4 0c0-4.35-1.31-9.34-6.36-9.34-4.89 0-6.2 5-6.2 9.34s1.31 9.29 6.2 9.29c5 0 6.36-4.94 6.36-9.29" class="cls-2"/></svg>