<svg height="1000" viewBox="0 0 1000 1000" width="1000" xmlns="http://www.w3.org/2000/svg"><g transform="matrix(4.4851624 0 0 4.4851624 -57.703857 -7.564226)"><path d="m 264.311 1.965 c 58.588 0 106.371 47.783 106.371 106.371 c 0 11.425 -1.825 22.436 -5.185 32.765 v 0 h -3.294 h -8.484 h -133.02 h -45.794 h -8.564 h -3.214 h -133.02 h -7.443 h -4.335 v 0 c -3.36 -10.33 -5.185 -21.34 -5.185 -32.765 c 0 -58.588 47.784 -106.371 106.371 -106.371 c 27.922 0 53.386 10.859 72.399 28.565 c 19.011 -17.705 44.475 -28.565 72.397 -28.565 z" stroke="#000" stroke-miterlimit="1" stroke-width=".557"/><path d="m 35.448 181.325 c .976 0 1.833 -.106 2.581 -.311 c .748 -.214 1.387 -.508 1.906 -.906 c .976 -.766 1.459 -1.895 1.459 -3.399 c 0 -1.281 -.457 -2.286 -1.368 -3.024 c -.921 -.739 -2.18 -1.111 -3.795 -1.111 v 0 H 35.41 Z m 0 19.701 h .748 v 0 c 1.67 0 2.983 -.453 3.931 -1.352 c .94 -.907 1.414 -2.178 1.414 -3.825 c 0 -1.574 -.529 -2.811 -1.596 -3.718 c -1.059 -.898 -2.563 -1.352 -4.497 -1.352 v 0 z M 21.979 212.49 v -50.723 h 15.494 v 0 c 5.847 0 10.247 1.063 13.208 3.195 c 2.958 2.129 4.433 5.309 4.433 9.524 c 0 3.077 -.821 5.54 -2.463 7.401 c -1.633 1.85 -4.141 3.156 -7.517 3.921 c 3.777 .765 6.568 2.171 8.374 4.225 c 1.807 2.045 2.709 4.767 2.709 8.147 c 0 4.723 -1.576 8.291 -4.733 10.699 c -3.164 2.412 -7.835 3.61 -14.01 3.61 v 0 H 21.979 Z m 42.514 0 v -50.723 h 13.382 v 21.196 l 9.135 -21.196 h 14.934 l -10.727 23.419 l 11.009 27.304 H 86.71 l -8.835 -23.062 v 23.062 z m 61.826 0 v -50.723 h 14.282 v 18.207 h 6.708 v -18.207 h 14.245 v 50.723 h -14.245 v -19.833 h -6.708 v 19.833 z m 41.085 0 l 11.401 -50.723 h 16.353 l 11.366 50.723 h -14.147 l -1.104 -7.471 h -8.584 l -1.102 7.471 z m 16.709 -17.716 h 5.774 l -2.919 -18.793 z m 55.869 16.915 c -1.431 .605 -2.836 1.05 -4.222 1.352 c -1.395 .303 -2.709 .455 -3.941 .455 c -2.636 0 -5.66 -.518 -8.032 -1.548 c -2.38 -1.033 -4.575 -2.52 -6.594 -4.5 c -1.146 -1.123 -2.164 -2.437 -3.064 -3.904 c -.906 -1.475 -1.67 -3.046 -2.244 -4.742 c -1.177 -3.471 -1.742 -7.497 -1.742 -12.06 c 0 -7.641 1.942 -13.876 5.819 -18.687 c 3.885 -4.822 9.364 -7.232 15.392 -7.232 c 1.614 0 3.074 .126 4.388 .383 c 1.377 .205 2.79 .552 4.24 1.04 v 0 v 12.167 v 0 c -.41 -.212 -.829 -.409 -1.266 -.595 c -.438 -.188 -.895 -.348 -1.36 -.489 c -.455 -.143 -.912 -.24 -1.368 -.311 c -.447 -.072 -.894 -.106 -1.313 -.106 c -2.882 0 -5.584 1.184 -7.092 3.557 c -1.511 2.377 -2.263 5.87 -2.263 10.477 c 0 4.385 .742 7.754 2.226 10.113 c 1.489 2.365 4.101 3.549 6.8 3.549 c 1.004 0 1.97 -.143 2.91 -.419 c .94 -.276 1.842 -.684 2.727 -1.218 v 0 v 12.718 z m 7.995 .801 v -50.723 h 13.62 v 21.196 l 9.651 -21.196 h 14.179 l -10.726 23.419 l 11.01 27.304 h -15.002 l -9.112 -23.062 v 23.062 z m 43.647 0 v -50.723 h 25.831 v 12.301 h -12.449 v 6.457 h 11.345 v 11.883 h -11.345 v 6.982 h 12.449 v 13.1 z m 34.536 0 v -50.723 h 14.466 l 8.019 26.683 v -26.683 h 13.179 v 50.723 h -14.292 l -8.082 -25.4 v 25.4 z M 179.172 148.46 c 2.817 0 5.115 2.299 5.115 5.116 c 0 2.817 -2.298 5.115 -5.115 5.115 c -2.817 0 -5.115 -2.298 -5.115 -5.115 c 0 -2.817 2.298 -5.116 5.115 -5.116 z m 15.547 0 c 2.817 0 5.115 2.299 5.115 5.116 c 0 2.817 -2.298 5.115 -5.115 5.115 c -2.817 0 -5.116 -2.298 -5.116 -5.115 c 0 -2.817 2.299 -5.116 5.116 -5.116 z"/><path d="m 357.058 129.962 c 1.626 -6.952 2.487 -14.192 2.487 -21.626 c 0 -3.183 -.161 -6.328 -.469 -9.432 v 0 h -24.812 l -18.603 31.058 z M 357.286 87.73 C 352.419 65.814 339.967 46.698 322.84 33.301 v 0 l -10.587 17.675 l 22.015 36.754 z m -43.91 -60.955 c -14.344 -8.672 -31.139 -13.671 -49.065 -13.671 c -5.279 0 -10.46 .436 -15.512 1.269 v 0 l 18.544 30.958 h 34.92 z m -76.489 -9.632 c -14.039 4.242 -26.727 11.648 -37.228 21.383 c 12.011 13.767 20.549 30.638 24.219 49.219 v 0 h 11.269 l 22.015 -36.753 z m -11.418 81.776 c .274 3.104 .415 6.245 .415 9.417 c 0 7.406 -.766 14.639 -2.222 21.626 v 0 h 30.074 L 235.142 98.919 Z m 41.86 31.043 h 34.92 L 324.263 93.209 L 302.249 56.455 h -34.92 l -22.015 36.754 z m -91.06 -98.016 l -8.017 13.385 H 133.331 L 114.121 13.26 v 0 c 1.786 -.1 3.583 -.156 5.394 -.156 c 21.236 0 40.885 7.014 56.754 18.842 z M 36.983 60.91 L 56.32 93.195 L 34.305 129.949 h -7.54 v 0 C 25.141 123 24.281 115.765 24.281 108.337 C 24.282 91.088 28.909 74.888 36.983 60.91 Z M 47.687 129.962 L 66.29 98.904 h 34.92 l 18.604 31.058 z m 133.939 0 l 18.595 -31.043 h 14.058 v 0 c .307 3.099 .467 6.24 .467 9.417 c 0 7.434 -.862 14.674 -2.487 21.626 v 0 z m -3.414 -78.97 l 6.926 -11.563 v 0 c 13.464 12.829 23.189 29.548 27.354 48.316 v 0 H 200.227 Z M 44.28 50.977 L 46.404 47.431 v 0 C 60.238 30.861 79.579 19.036 101.569 14.813 v 0 l 21.66 36.164 l -22.013 36.753 H 66.294 Z m 67.022 42.232 l 22.015 -36.754 h 34.921 l 22.014 36.754 l -22.014 36.753 h -34.921 z" fill="#ffe600" stroke="#000" stroke-miterlimit="1" stroke-width=".557"/></g></svg>