<?xml version="1.0" encoding="iso-8859-1"?>
<!-- Generator: Adobe Illustrator 24.0.1, SVG Export Plug-In . SVG Version: 6.00 Build 0)  -->
<svg version="1.1" id="Layer_1" xmlns="http://www.w3.org/2000/svg" xmlns:xlink="http://www.w3.org/1999/xlink" x="0px" y="0px"
	 viewBox="0 0 612 792" style="enable-background:new 0 0 612 792;" xml:space="preserve">
<circle cx="305.5" cy="396.39" r="277.5"/>
<circle style="fill:#F7BB2F;" cx="305.5" cy="396.39" r="270.702"/>
<ellipse transform="matrix(0.7071 -0.7071 0.7071 0.7071 -190.8112 332.1212)" cx="305.5" cy="396.39" rx="203.773" ry="203.773"/>
<ellipse transform="matrix(0.1621 -0.9868 0.9868 0.1621 -135.1616 633.6085)" style="fill:#FFFFFF;" cx="305.5" cy="396.39" rx="196.974" ry="196.976"/>
<circle cx="305.5" cy="396.39" r="183.289"/>
<path style="fill:#F7BB2F;" d="M469.292,324.901v142.978c9.601-21.907,14.964-46.079,14.964-71.489
	C484.256,370.979,478.893,346.808,469.292,324.901z"/>
<path style="fill:#F7BB2F;" d="M272.741,544.783v27.302c10.628,1.978,21.566,3.061,32.759,3.061v-13.093l-1.403-0.635
	C292.872,556.335,282.452,550.792,272.741,544.783z"/>
<path style="fill:#F7BB2F;" d="M305.5,217.634c-11.193,0-22.131,1.084-32.759,3.062v72.206H305.5V217.634z"/>
<path style="fill:#F7BB2F;" d="M168.18,292.901h6.282v-17.927c-13.537,14.598-24.66,31.449-32.755,49.926v142.978
	c8.096,18.477,19.219,35.328,32.755,49.928V386.774c-4.435-26.79-6.48-56.777-6.299-90.492L168.18,292.901z"/>
<path style="fill:#F7BB2F;" d="M207.222,480.331v65.27c10.234,6.764,21.206,12.483,32.759,17.054V520.07
	C227.267,508.331,216.381,495.16,207.222,480.331z"/>
<path style="fill:#F7BB2F;" d="M239.981,230.125c-11.553,4.568-22.525,10.29-32.759,17.054v45.722h32.759V230.125z"/>
<path style="fill:#F7BB2F;" d="M403.778,480.334v65.267c12.01-7.938,23.006-17.278,32.76-27.797V386.779
	C430.422,423.738,419.705,454.549,403.778,480.334z"/>
<path style="fill:#F7BB2F;" d="M436.538,274.975c-9.754-10.518-20.75-19.859-32.76-27.796v45.722h32.76V274.975z"/>
<path style="fill:#F7BB2F;" d="M371.019,230.125c-10.478-4.143-21.428-7.322-32.759-9.43v72.206h32.759V230.125z"/>
<path style="fill:#F7BB2F;" d="M338.26,572.085c11.331-2.107,22.281-5.288,32.759-9.431v-42.581
	c-9.809,9.056-20.715,17.259-32.759,24.712V572.085z"/>
<path style="fill:#FFFFFF;" d="M306.468,534.725c-4.724,1.486-9.611,3.021-14.552,3.021c-5.652,0-11.673-1.327-17.496-2.61
	c-1.973-0.435-3.891-0.841-5.783-1.213c5.452,3.701,11.167,7.222,17.146,10.571c2.881,0.466,5.233,0.685,7.382,0.685
	c4.13,0,8.422-1.349,12.966-2.777c6.324-1.99,12.869-4.044,19.461-2.435l5.441,1.186c3.109-1.852,6.123-3.768,9.082-5.723
	c-5.043-0.497-10.675-1.499-17.027-3.047C317.932,531.123,312.362,532.874,306.468,534.725z"/>
<path style="fill:#FFFFFF;" d="M360.18,481.117c-6.821,2.826-16.166,6.698-42.087,0.372c-5.163-1.26-10.73,0.492-16.621,2.342
	c-4.726,1.486-9.612,3.022-14.553,3.022c-5.648,0-11.666-1.324-17.485-2.607c-5.79-1.275-11.26-2.48-16.243-2.451
	c-4.577,0.023-9.106,1.218-13.485,2.373c-3.537,0.932-7.193,1.895-10.905,2.262c-2.836,0.281-5.764,0.43-8.811,0.478
	c1.761,2.468,3.581,4.88,5.454,7.245c1.83-0.119,4.085-0.265,4.085-0.265c3.294-0.326,6.589-1.195,10.08-2.113
	c4.697-1.239,9.556-2.52,14.804-2.548c5.569-0.031,11.583,1.293,17.398,2.573c5.546,1.224,11.282,2.485,16.359,2.485
	c4.129,0,8.421-1.348,12.964-2.774c6.321-1.985,12.867-4.041,19.463-2.433c24.241,5.912,32.66,2.423,38.811-0.125
	c3.766-1.565,7.333-3.04,12.785-2.024c6.085,1.137,11.797,1.92,17.08,2.368c1.702-2.309,3.357-4.664,4.96-7.066
	c-7.261-0.236-15.372-1.165-24.265-2.823C366.061,478.679,363.722,479.646,360.18,481.117z"/>
<path style="fill:#FFFFFF;" d="M362.678,506.561c-6.82,2.828-16.166,6.701-42.086,0.374c-5.158-1.26-10.728,0.492-16.622,2.343
	c-4.723,1.485-9.611,3.022-14.551,3.022c-5.653,0-11.675-1.327-17.498-2.61c-5.787-1.275-11.251-2.48-16.23-2.454
	c-4.578,0.028-9.107,1.221-13.487,2.373l-2.511,0.58c2.059,2.054,4.163,4.068,6.327,6.035c3.423-0.832,7.04-1.532,10.89-1.551
	c5.573-0.034,11.59,1.293,17.409,2.574c5.543,1.223,11.276,2.485,16.35,2.485c4.129,0,8.423-1.349,12.967-2.774
	c6.327-1.986,12.869-4.042,19.46-2.434c24.239,5.91,32.661,2.423,38.811-0.125c2.368-0.981,4.643-1.899,7.339-2.22
	c2.279-2.207,4.507-4.455,6.662-6.764c-1.929-0.317-3.436-0.563-3.438-0.563C368.563,504.123,366.223,505.094,362.678,506.561z"/>
<path style="fill:#FFFFFF;" d="M370.402,467.645c-3.904-0.732-6.243,0.239-9.788,1.707c-6.823,2.829-16.166,6.701-42.089,0.375
	c-5.158-1.26-10.725,0.491-16.617,2.342c-4.725,1.486-9.611,3.022-14.553,3.022c-5.653,0-11.675-1.327-17.498-2.61
	c-5.787-1.275-11.251-2.479-16.23-2.454c-4.574,0.026-9.101,1.221-13.478,2.376c-3.54,0.932-7.198,1.897-10.914,2.265
	c-5.265,0.521-10.796,0.635-17.05,0.358c1.354,2.238,2.749,4.44,4.181,6.601c4.222,0.055,8.152-0.086,11.913-0.458
	c3.292-0.326,6.586-1.195,10.077-2.113c4.699-1.239,9.556-2.52,14.802-2.548c5.575-0.034,11.591,1.293,17.412,2.576
	c5.542,1.221,11.274,2.482,16.347,2.482c4.13,0,8.422-1.348,12.965-2.776c6.324-1.988,12.866-4.044,19.464-2.436
	c24.241,5.918,32.66,2.429,38.808-0.119c3.77-1.564,7.333-3.04,12.78-2.024c10.012,1.868,18.941,2.766,26.709,2.768
	c1.327-2.137,2.628-4.297,3.883-6.506C392.63,470.777,382.212,469.846,370.402,467.645z"/>
<path style="fill:#FFFFFF;" d="M361.432,493.838c-6.821,2.826-16.166,6.701-42.089,0.377c-5.164-1.26-10.73,0.489-16.625,2.34
	c-4.723,1.483-9.609,3.019-14.549,3.019c-5.652,0-11.673-1.327-17.496-2.607c-5.787-1.275-11.253-2.478-16.232-2.451
	c-4.578,0.023-9.106,1.218-13.486,2.373c-3.536,0.932-7.193,1.895-10.903,2.262l-0.51,0.034c1.905,2.237,3.871,4.427,5.884,6.576
	l5.431-1.265c4.699-1.236,9.556-2.517,14.804-2.548c5.569-0.031,11.583,1.296,17.399,2.576c5.547,1.223,11.281,2.488,16.359,2.488
	c4.13,0,8.422-1.349,12.966-2.777c6.326-1.988,12.869-4.044,19.461-2.435c24.239,5.915,32.661,2.425,38.808-0.122
	c3.776-1.561,7.336-3.04,12.783-2.022l6.654,1.088c1.846-2.121,3.644-4.286,5.393-6.493c-4.503-0.486-9.265-1.186-14.262-2.121
	C367.313,491.399,364.974,492.37,361.432,493.838z"/>
<path style="fill:#FFFFFF;" d="M321.841,519.662c-5.161-1.26-10.728,0.489-16.622,2.339c-4.726,1.483-9.61,3.02-14.551,3.02
	c-5.65,0-11.668-1.327-17.487-2.608c-5.79-1.275-11.259-2.479-16.243-2.451c-2.009,0.008-3.994,0.247-5.938,0.596
	c2.782,2.36,5.63,4.672,8.58,6.907c5.168,0.169,10.649,1.332,15.979,2.509c5.546,1.221,11.28,2.485,16.357,2.485
	c4.13,0,8.423-1.349,12.967-2.777c6.324-1.99,12.869-4.044,19.46-2.435c9.133,2.226,16.653,3.292,22.92,3.256
	c4.245-3.058,8.336-6.223,12.252-9.52C352.802,523.237,342.684,524.744,321.841,519.662z"/>
<path style="fill:#FFFFFF;" d="M307.717,547.445c-3.646,1.147-7.388,2.303-11.177,2.782c2.93,1.468,5.913,2.906,8.96,4.307
	c6.506-2.987,12.713-6.149,18.685-9.457C319.069,543.888,313.555,545.613,307.717,547.445z"/>
<path style="fill:#FFFFFF;" d="M228.716,469.403c3.295-0.325,6.593-1.194,10.086-2.115c4.695-1.239,9.551-2.52,14.796-2.551
	c5.569-0.031,11.583,1.296,17.399,2.576c5.547,1.224,11.281,2.488,16.359,2.488c4.13,0,8.423-1.348,12.968-2.776
	c6.322-1.988,12.864-4.045,19.456-2.436c24.242,5.915,32.663,2.426,38.813-0.122c3.769-1.566,7.331-3.04,12.781-2.022
	c12.879,2.405,23.983,3.253,33.105,2.577c21.746-41.257,31.57-94.698,31.57-164.615c0-0.234-0.003-0.472-0.003-0.708
	c-6.441,0-130.546,0-130.546,0s-124.106,0-130.548,0c0,0.229-0.001,0.46-0.001,0.687c0,72.501,10.554,127.296,34.017,169.147
	C216.411,470.015,222.78,469.989,228.716,469.403z"/>
<path d="M309.531,321.843c-1.271,3.15-2.024,5.387-2.024,7.865c0,1.357,0.265,2.82,0.757,4.511c-2.743-0.402-4.94-0.213-7.341,0.254
	c0.867-2.051,1.348-4.09,1.348-6.06c0-1.786-0.359-3.516-1.075-5.146c-1.643-3.732-5.065-6.61-9.64-8.105
	c-9.266-2.968-18.169-0.226-26.776,2.427l-5.54,1.653c-12.498,3.48-27.886,4.25-43.329,2.165c-0.004-0.001-8.741-1.457-8.741-1.457
	l-2.46-0.453c-0.021-0.002-0.696-0.083-0.696-0.083c-0.943-0.121-2.235-0.287-3.253,0.003c-2.984,0.921-4.961,3.092-5.431,5.954
	c-0.072,0.436-0.107,0.877-0.107,1.32c0,2.869,1.499,5.762,3.928,7.595c-0.269,1.258-0.423,2.355-0.423,3.3
	c0,3.572,1.956,5.266,5.895,7.795c-0.079,0.466-0.136,0.934-0.136,1.395c0,3.513,2.282,6.813,6.12,8.767
	c-0.122,0.396-0.218,0.791-0.218,1.176c0,4.07,6.168,7.479,7.274,8.057c-0.017,0.211-0.032,0.424-0.032,0.63
	c0,2.199,0.922,4.06,2.748,5.541c9.62,7.799,41.157,3.076,49.104,0.799c-0.375,0.807-1.534,3.303-1.534,3.303
	c-1.391,2.813-2.567,5.192-2.567,8.364c0,1.164,0.159,2.431,0.522,3.865c0.686,2.449,2.208,4.278,3.457,5.601
	c-0.073-0.141,0.251,1.543,0.251,1.543l1.425,5.913c-2.535,8.588-0.505,19.771,0.52,22.853c3.001,9.899,14.933,31.097,32.648,33.387
	c2.178,3.078,5.338,4.432,9.194,3.908c4.283-0.655,12.088-2.74,16.281-9.345c0.934-1.397,1.368-2.556,1.368-3.891
	c0-0.732-0.13-1.515-0.38-2.418c3.089-3.651,3.893-6.928,4.266-9.618c0.089-0.675,0.13-1.474,0.13-2.376
	c0-6.793-2.433-19.433-6.318-28.708c0.528-1.069,0.794-2.131,0.794-3.269c0-1.194-0.292-2.475-0.88-3.938
	c0.997-1.197,2.457-1.955,4.002-2.756c1.908-0.989,3.857-2.056,5.086-4.495c2.56,2.798,5.608,5.816,9.118,7.443
	c3.032,1.38,6.09,0.95,8.395-1.181c1.56-0.078,3.767-0.466,5.479-2.085c2.152-0.169,4.008-0.82,5.52-3.18
	c1.061-0.352,2.293-1.072,3.076-1.767c1.809-1.588,2.767-3.927,2.767-6.303c0-1.481-0.372-2.975-1.146-4.307
	c-0.77-1.408-1.902-2.35-3.102-3.347c0,0-0.183-0.153-0.336-0.284c6.09,0.229,17.608-0.572,22.526-5.265
	c1.544-1.473,2.327-3.232,2.327-5.231c0-0.023,0-0.047,0-0.07c2.782-1.397,5.899-4.606,6.253-8.052
	c4.055-2.238,5.994-5.189,6.345-9.65c2.72-0.963,5.788-5.404,5.788-9.318c0-0.25-0.02-0.497-0.047-0.742
	c2.814-1.646,4.211-5.028,4.211-8.223c0-1.137-0.175-2.247-0.52-3.243c-1.202-3.466-4.205-5.149-8.033-4.499
	c-0.003,0-3.397,1.043-3.397,1.043c-15.755,3.028-31.888-0.606-47.489-4.114l-5.304-1.184
	C339.602,313.75,314.471,309.581,309.531,321.843z"/>
<path style="fill:#F7BB2F;" d="M367.058,333.768c3.998,0.869,44.575,4.605,41.274-6.429c-0.177-0.783-10.081,1.129-11.122,1.215
	c-5.736,0.435-11.472,0.348-17.202-0.173c-17.468-1.391-33.889-8.428-51.352-8.428c-4.346,0.348-11.731,0.26-13.47,5.3
	c-1.13,3.476-1.218,6.864,1.129,9.645c2.259,2.52,3.561,3.91,4.081,7.473c0.177,1.302,0.088,2.432-0.083,3.648
	c-12.513-7.298-18.249-6.69-30.064,0.263c-0.522-4.173-0.782-6.519,1.911-9.995c3.476-4.343,5.912-9.905,0.087-13.642
	c-4.345-2.78-10.427-2.519-15.293-1.65c-5.473,0.955-10.686,2.868-15.987,4.518c-5.735,1.477-11.47,2.608-17.379,3.128
	c-11.556,0.955-23.46,0.26-34.841-1.825c-0.869-0.174-5.736-1.477-6.604-0.609c-1.826,1.651,1.477,3.303,1.997,3.65
	c3.39,2.694,20.507,5.822,25.807,5.214c5.213-0.522,13.293-2.173,13.902,0.086c0.869,3.215-14.164,3.737-20.332,3.475
	c-5.474-0.173-10.514-1.651-15.815-2.954c-3.301-0.869-2.606,1.737-0.782,3.388c3.303,2.868,8.168,3.823,12.427,4.17
	c9.123,0.782,18.941,0.435,27.978-0.868c0.695-0.174,2.521-0.348,2.693,0.608c0.608,2.608-7.906,3.387-9.037,3.476
	c-9.122,1.129-18.072,1.301-26.935-0.955c-4.692-1.216-3.302,2.779-0.347,4.344c6.169,3.216,15.466,3.302,22.243,3.216
	c5.474-0.088,9.472-1.046,14.771-2.519c0.608-0.177,5.996-1.827,6.256-0.263c0.174,0.955-1.738,2.173-2.433,2.433
	c-9.123,3.214-20.505,4.606-30.064,3.128c-1.217-0.174-10.079-1.304-6.517,1.479c9.123,7.037,32.497,2.259,42.315-0.088
	c5.386-1.218,6.517,0.869,0.52,2.868c-11.034,3.563-21.808,3.998-33.104,3.648c-1.217,0.088-4.865,0.088-2.693,1.564
	c10.514,7.3,31.887,2.954,43.183,0.086c3.476-0.952,6.864-1.999,10.254-3.04c-0.175,2.259-1.131,4.17-1.479,6.428
	c-0.347,1.827-0.607,3.305-1.216,5.126c-1.737,4.607-6.517,9.385-1.999,14.08c0.871,0.952,1.391,1.39,1.826,2.605
	c0.608,3.388,1.042,6.516,2.434,9.733c-0.609,1.041-0.957,1.91-1.131,3.128c-1.476,7.209,0.609,17.114,1.478,19.898
	c2.172,6.6,12.599,25.546,26.935,26.847l2.607,0.172c1.213,1.478,1.39,3.477,3.82,3.648c3.826,0.177,11.035-2.862,12.685-6.86
	c0.349-0.697-0.869-2.607-0.952-3.564c3.388-4.081,4.606-5.996,5.038-9.468c0.78-5.388-2.259-18.946-5.996-28.153
	c-1.041-2.52-1.39-2.259,0.089-3.997c1.129-1.219-0.609-3.823-0.697-4.344c-0.433-2.436,5.564-7.823,8.863-9.733
	c4.518-2.519-2.259-12.861-3.909-15.727c0.781-0.346,1.219-0.435,1.91-0.955c3.737,2.259,6.345,5.213,9.125,8.516
	c2.431,2.868,4.605,5.907,7.474,8.426c1.041,0.87,2.431,2.348,3.82,2.78c0.869,0.349,3.389,0.088,3.565-1.65
	c1.91,0.089,3.389,0.175,4.341-1.824c2.52,0.174,3.914,0.174,4.606-2.433c1.566,0,4.086-0.695,3.909-2.693
	c-0.172-1.129-1.302-1.913-2.171-2.605c-3.128-2.696-23.895-14.86-23.807-17.468c6.605,1.827,13.032,4.172,19.721,5.041
	c6.085,0.783,11.903,1.043,17.729,0.346c1.821-0.26,8.946-0.87,8.775-3.909c-0.172-2.085-2.78-1.041-4.347-0.781
	c-9.124,0.869-23.458-1.39-28.324-2.433c-4.95-1.132-5.908-1.913-5.56-3.043c0.344-1.218,1.302-0.432,2.431-0.26
	c8.864,1.304,17.729,3.042,26.764,3.216c4.43,0.172,12.685,0.26,15.12-4.607c0.344-0.781-0.26-1.738-1.655-1.304
	c-9.207,2.694-22.678,0.174-28.064-0.695c-5.299-0.869-10.254-0.955-9.645-3.477c0.349-1.561,2.259-0.953,3.045-0.781
	c11.117,2.519,22.678,4.432,34.144,2.779c2.956-0.432,6.085-1.476,7.906-3.909c3.306-4.345-2.342-1.999-4.169-1.65
	c-9.385,1.65-19.201,0.781-28.325-1.478c-1.998-0.522-4.346-0.869-6.256-1.564c-0.609-0.174-0.172-0.26-0.172-0.348
	c-0.697-2.693,4.861-1.564,7.646-1.129c2.691,0.435,8.516,1.912,13.117,2.172c6.173,0.347,14.079,0.347,19.897-2.432
	c0.438-0.261-0.083,0.26,1.307-0.783c1.39-0.955,5.996-5.56,0.172-4.431c-10.077,2.086-22.589,1.738-32.583-0.087
	C364.627,336.115,362.451,332.639,367.058,333.768z"/>
<path d="M312.75,433.518l-3.039-6.865l0.957-0.438c-0.608-0.343-1.046-0.692-1.566-1.732l-3.56-7.563
	c-0.349-1.041-0.692-1.39-0.083-2.259l-1.129,0.438l-1.827-4.086c1.218-0.869-0.088-3.737-2.087-2.69
	c-1.91,0.952-0.344,3.648,1.129,3.128l1.827,4.169c-0.437,0.172-0.781,0.349-1.129,0.52c0.609,0.172,0.781,0.349,1.218,1.041
	l3.821,8.166c0.349,0.786,0.52,1.307,0.26,2.088l1.218-0.35l3.04,6.782c-1.041,0.433-2.176,0.864-3.04,1.39l-3.216-6.604
	l0.869-0.521c-0.692-0.349-0.952-0.869-1.39-1.567l-3.909-8.686c-0.088-0.438-0.349-0.869,0-1.39l-1.738,0.609l-1.65-3.565
	c1.999-4.169-7.909-5.21-8.691,1.041c-0.434,3.388,2.433,8.52,4.257,11.82c0.435,0,1.39-0.089,1.737,0.432
	c-0.608,0.089-1.476,0.177-1.91,0.521c-0.435,0.266-0.348,0.525-0.174,0.958c2.433,0.26,3.91,4.085,4.781,5.996
	c1.212,3.388,1.478,3.997,0.609,7.297c2.779,0,4.689-1.822,3.648-4.258l-5.736-13.465c-1.044-0.177-2.085,0-2.607-1.046
	c1.304,0.266,3.042,0.785,2.955-0.953c-0.435-0.26,0,0.172-1.131-0.697c-1.129-0.78-4.865-6.34-2.867-9.035
	c0.608-0.781,1.39-1.13,2.432-0.692c-0.868,1.649,0.435,3.123,1.826,2.603l6.429,13.642c0.26,0.609,0.26,1.218,0.177,1.827
	l0.953-0.438l3.217,6.693c-2.087,1.738-4.43,3.477-4.258,6.688c0.088,1.218,0.958,2.087,1.739,2.176c0.52,0.083,1.212,0,1.65-0.786
	c-6.168-0.432,6.776-9.385,9.988-8.338c0.869,0.343-1.302,1.649,0,2.867c2.259,1.999,5.304-1.738,3.566-4.257
	C318.486,431.691,315.098,432.821,312.75,433.518z"/>
<path d="M319.007,426.564c-1.474-0.26-3.909-7.297-4.43-8.515c-1.301-3.561-3.217-11.467-7.906-12.857
	c-2.342-0.785-3.909,0.953-3.3,3.3c2.52-1.826,6.777,5.736,4.689,7.475c0.781,2.082,2.171,0.261,2.957-1.046
	c0.952,1.39-1.655,3.128,0.952,3.997c0.349,0.089,0.608,0.177,1.041,0.438c-0.261,0.608-2.254-0.52-3.123,1.129
	c4.602,2.779,5.127,9.905,8.078,10.514c1.39,0.261,2.868-0.525,3.389-1.826C322.135,427.174,321.183,424.483,319.007,426.564z"/>
<path d="M291.727,409.363c3.736-1.041,8.256-2.696,10.947-5.647l-1.473-2.348c0.083-1.13,0.781-1.738,1.041-2.782
	c0.521-1.996-1.827-3.734-3.388-2.345c1.91,1.652,1.999,2.52,1.999,4.866c-0.609,0.521-0.697,0.781-1.478,0.87
	c0.26-0.958,0.172-2.176-0.698-2.868c-2.083-1.652-3.387-1.652-0.26-2.868c-0.869-0.435-3.909,0.869-2.954,1.652
	c1.999,1.476,2.871,2.085,3.042,4.775c-1.13,1.047-1.391,1.047-2.173,1.307c-0.26-0.957-0.955-3.825-2.606-5.39
	c0.522-0.346,0.608-0.866-0.087-1.041c1.042-1.39-0.348-2.607-1.651-2.347l-1.042-1.91l1.304-0.697l-0.349-0.607l-1.303,0.607
	l-0.522-1.127l-0.695,0.346l0.522,1.129l-1.217,0.609l0.348,0.609l1.217-0.521l1.042,1.91c-1.042,0.609-1.129,2.608,0.695,2.78
	c-0.347,0.694,0.174,1.132,0.783,0.783c0.086,2.259,1.825,4.258,2.345,5.387c-3.563,1.91-4.083-2.17-4.17-4.866
	c-1.564,0.438-0.695,0.697-1.13,1.827c-0.434,1.561,0.522,4.257,2.346,4.257c-0.609,0.609-0.956,0.609-1.564,0.609
	c-1.303-0.266-3.215-1.915-2.781-3.737c0.087-0.608,0.696-1.39,1.043-2.436c-0.783,0.349-1.825,1.478-2.173,2.087
	c-1.564,2.956,1.39,4.169,3.737,4.606L291.727,409.363z"/>
<path d="M283.124,389.116c0.956,0.349,3.302-2.256,1.564-2.519C283.559,386.422,282.517,388.072,283.124,389.116L283.124,389.116z"
	/>
<path d="M276.521,383.383c1.044,2.347,3.215-1.999,1.391-2.259C276.435,380.949,276.435,382.425,276.521,383.383L276.521,383.383z"
	/>
<path d="M323.265,386.597c-1.822-0.346-1.474,1.564-1.999,2.782c-0.344,0.692,0.266,0-0.521,0.869
	c-1.821,1.822-5.038,2.519-7.469,1.999c-1.827-0.349-2.176-0.957-3.045,0.781c-0.083-0.088-0.083,1.129-0.083,1.301l0.083,1.478
	c0.869-1.301,1.218-2.259,2.436-1.215c0.521,0.346,1.041-0.523,1.65,0c1.218,0.955,4.169,3.909,4.257,5.298
	c0,0.521-1.998,4.258,0.609,2.348c3.128-2.436,1.301-2.259,0.869-4.344c-0.349-2.435,2.868-6.865,4.95-8.429
	c2.087-1.565,1.566-1.215,1.998-1.565c0.178-0.174,0.178-0.609,0.178-0.869C325.528,387.9,325.003,386.859,323.265,386.597z"/>
<path d="M309.799,383.294c-0.521-0.87-1.566-1.39-2.342-1.999c-0.609,1.827-0.958,3.565-2.264,4.955
	c-2.431,1.301-3.732,0.692-6.079,0.26c-1.653-0.26-2.434,0.086-2.782,1.824c-0.173,0.87,0,1.653,0.262,2.434
	c0.521-1.999,2.172-3.909,3.478-0.958c0.604-2.084,5.299-0.52,6.428,0.784c0.609,0.783,0.609,2.173,0.781,3.128
	c0.78-0.783,1.301-1.913,1.301-3.823c0-1.39-1.562-2.348-1.213-3.909C307.629,384.684,308.842,383.992,309.799,383.294z"/>
<path d="M279.823,386.597c-4.345,1.044-2.172,3.043-1.824,6.342c0.435,3.302,0.607,8.081,5.473,6.602
	c-0.955-3.125-2.954-5.905-2.258-9.47c0.26-1.215,0.521-2.345,0.608-3.56c1.737-1.65,3.041-2.259,4.431-0.174
	c3.302,2.173,0.262-4.781-0.086-5.473C282.864,381.124,281.561,384.252,279.823,386.597z"/>
<path d="M317.185,380.949c-0.697-1.215-1.041-3.128-2.436-3.737l0.089,0.174c0.521,2.087,1.998,5.647-0.521,6.865
	c-0.781,0.26-1.218,0.172-1.91,0.172c1.212,2.087-4.867-0.432-1.916,4.432c0.349,0.609,0.609,1.044,0.609,1.825
	c0.608-0.955,1.218-0.609,1.738-0.432c3.909,0.869,5.038,0.346,7.646-2.176C321.005,384.944,319.095,384.078,317.185,380.949z"/>
<path d="M305.021,383.034c-1.999-0.869-3.997-3.997-5.298-5.736c-0.958-1.213-4.173-1.213-5.737-1.822
	c-2.433-0.783-2.085,0.346-3.823,1.476c-0.955,0.346-1.824,0.435-2.693,1.043c0.607,2.779,1.391,4.778,2.606,7.386
	c1.391-2.087,4.692-0.957,6.083,0.781c0.347-1.218,1.565-1.564,4.173-0.869c2.779,0.523,4.601,0.26,4.861-2.345l-0.083,0.086
	H305.021z"/>
<path d="M63.763,321.167l10.185-27.309l7.647,2.851l-6.054,16.23l6.242,2.328l5.18-13.889l7.257,2.706l-5.18,13.889l14.59,5.441
	l-4.131,11.08L63.763,321.167z"/>
<path d="M116.481,293.424L84.53,272.596l10.718-16.442c1.988-3.049,3.769-5.209,5.342-6.479c1.574-1.27,3.39-1.938,5.448-2.004
	c2.06-0.065,4.105,0.566,6.139,1.891c1.771,1.156,3.052,2.531,3.841,4.126c0.792,1.597,1.153,3.319,1.085,5.167
	c-0.044,1.178-0.379,2.613-1.006,4.305c1.159-0.914,2.109-1.508,2.852-1.787c0.5-0.19,1.404-0.348,2.716-0.471
	c1.31-0.124,2.276-0.148,2.894-0.076l12.387,1.205l-7.275,11.159l-13.201-1.106c-1.7-0.156-2.91-0.099-3.627,0.176
	c-0.958,0.389-1.729,1.03-2.315,1.93l-0.566,0.869l12.976,8.46L116.481,293.424z M103.894,271.104l2.713-4.163
	c0.294-0.45,0.72-1.416,1.274-2.896c0.298-0.738,0.315-1.486,0.053-2.247c-0.26-0.761-0.736-1.366-1.426-1.815
	c-1.018-0.664-2.015-0.847-2.986-0.549c-0.972,0.299-2.046,1.348-3.219,3.149l-2.826,4.336L103.894,271.104z"/>
<path d="M118.834,225.985l8.178-8.542l27.551,26.377l-8.178,8.542L118.834,225.985z"/>
<path d="M158.282,222.519l8.688-7.169c1.269,1.337,2.484,2.173,3.649,2.511c1.888,0.543,3.742,0.154,5.563-1.165
	c1.357-0.985,2.173-2.063,2.445-3.236c0.271-1.174,0.101-2.184-0.513-3.028c-0.582-0.802-1.449-1.266-2.604-1.396
	c-1.157-0.127-3.218,0.454-6.186,1.748c-4.877,2.096-8.773,3.013-11.689,2.747c-2.932-0.252-5.273-1.587-7.024-4.004
	c-1.151-1.589-1.777-3.422-1.88-5.503c-0.102-2.078,0.48-4.192,1.745-6.342c1.265-2.148,3.505-4.391,6.727-6.726
	c3.953-2.865,7.498-4.317,10.635-4.358c3.136-0.039,6.059,1.394,8.769,4.302l-8.587,7.027c-1.248-1.213-2.488-1.857-3.716-1.93
	c-1.229-0.072-2.523,0.384-3.883,1.37c-1.118,0.811-1.789,1.656-2.014,2.54c-0.224,0.882-0.091,1.66,0.398,2.334
	c0.356,0.493,0.911,0.768,1.664,0.823c0.75,0.081,2.095-0.316,4.038-1.188c4.83-2.126,8.484-3.386,10.96-3.775
	c2.475-0.391,4.618-0.201,6.429,0.567c1.813,0.769,3.331,1.996,4.554,3.684c1.438,1.983,2.215,4.21,2.332,6.679
	c0.116,2.468-0.496,4.85-1.837,7.141c-1.341,2.29-3.509,4.523-6.503,6.693c-5.258,3.811-9.633,5.439-13.126,4.882
	C163.822,227.188,160.811,225.448,158.282,222.519z"/>
<path d="M191.914,169.862l10.92-4.539l5.533,13.309l5.836-18.035l14.47-6.014l-7.31,18.566l22.487,16.429l-13.398,5.571
	l-13.29-11.329l-3.229,8.202l3.542,8.52l-10.92,4.54L191.914,169.862z"/>
<path d="M278.272,177.001l-13.122,2.019l-0.936,6.548l-11.895,1.831l8.299-39.868l12.861-1.979l19.83,35.539l-12.198,1.878
	L278.272,177.001z M274.561,169.23l-6.17-12.906l-2.023,14.168L274.561,169.23z"/>
<path d="M325.469,143.553l12.169,1.962l4.141,28.469l12.738-25.748l11.813,1.905l-20.057,35.399l-12.627-2.035L325.469,143.553z"/>
<path d="M385.819,156.625l11.117,4.028l-12.991,35.86l-11.12-4.028L385.819,156.625z"/>
<path d="M419.244,170.252l10.249,5.898l-14.329,24.901l15.953,9.18l-4.695,8.156l-26.201-15.077L419.244,170.252z"/>
<path d="M474.999,208.983l8.83,7.864l-13.788,15.481c-2.893,3.251-5.387,5.466-7.474,6.649c-2.09,1.183-4.531,1.585-7.323,1.209
	c-2.795-0.376-5.557-1.777-8.281-4.204c-2.881-2.566-4.765-4.942-5.657-7.128c-0.893-2.189-1.104-4.412-0.633-6.678
	c0.469-2.264,1.605-4.566,3.412-6.905l9.407,6.341c-1.098,1.257-1.809,2.28-2.139,3.069c-0.328,0.79-0.409,1.591-0.242,2.406
	c0.12,0.547,0.494,1.099,1.124,1.657c0.992,0.885,2.043,1.167,3.159,0.85c1.114-0.317,2.444-1.341,3.987-3.076L474.999,208.983z"/>
<path d="M484.493,245.018c5.077-3.615,10.034-5.015,14.878-4.201c4.84,0.815,9.059,3.748,12.655,8.798
	c3.686,5.176,5.135,10.153,4.349,14.931c-0.786,4.78-3.68,8.951-8.687,12.515c-3.633,2.587-7.05,4.098-10.246,4.53
	c-3.198,0.433-6.267-0.046-9.207-1.438c-2.941-1.392-5.64-3.813-8.094-7.263c-2.498-3.508-4.005-6.808-4.525-9.901
	c-0.518-3.095-0.078-6.216,1.321-9.366C478.341,250.473,480.857,247.604,484.493,245.018z M491.316,254.676
	c-3.142,2.236-4.986,4.424-5.53,6.564c-0.547,2.141-0.106,4.211,1.319,6.212c1.463,2.057,3.268,3.17,5.416,3.342
	c2.147,0.17,4.963-0.984,8.444-3.464c2.931-2.086,4.653-4.198,5.166-6.337c0.516-2.138,0.055-4.216-1.382-6.232
	c-1.374-1.931-3.164-2.991-5.369-3.184C497.175,251.386,494.486,252.419,491.316,254.676z"/>
<path d="M498.772,301.606l35.424-14.136l7.274,18.228c1.348,3.381,2.09,6.081,2.223,8.099c0.132,2.017-0.367,3.887-1.5,5.606
	c-1.129,1.722-2.823,3.032-5.077,3.931c-1.965,0.785-3.825,1.04-5.585,0.767c-1.762-0.272-3.378-0.968-4.851-2.087
	c-0.937-0.714-1.918-1.813-2.94-3.3c0.08,1.473,0.018,2.593-0.183,3.361c-0.133,0.518-0.522,1.348-1.176,2.492
	c-0.653,1.143-1.189,1.946-1.606,2.41l-8.114,9.435l-4.936-12.371l8.502-10.159c1.106-1.3,1.757-2.322,1.944-3.067
	c0.234-1.006,0.15-2.007-0.245-3.002l-0.385-0.964l-14.387,5.741L498.772,301.606z M524.271,304.164l1.841,4.614
	c0.2,0.5,0.744,1.403,1.634,2.71c0.432,0.667,1.033,1.112,1.809,1.336c0.77,0.225,1.538,0.183,2.304-0.121
	c1.129-0.45,1.853-1.16,2.167-2.126c0.315-0.967,0.076-2.447-0.721-4.445l-1.918-4.807L524.271,304.164z"/>
<path d="M103.014,468.972l11.62,26.73l-7.485,3.256l-6.905-15.888l-6.111,2.656l5.91,13.596l-7.103,3.086l-5.909-13.595
	l-14.282,6.209l-4.714-10.844L103.014,468.972z"/>
<path d="M105.024,518.054c5.03-3.68,9.971-5.143,14.823-4.388c4.851,0.752,9.106,3.63,12.766,8.635
	c3.751,5.127,5.264,10.087,4.54,14.873c-0.725,4.791-3.566,8.999-8.527,12.624c-3.602,2.634-6.998,4.188-10.188,4.661
	c-3.192,0.474-6.267,0.033-9.224-1.322c-2.958-1.354-5.687-3.739-8.188-7.156c-2.541-3.478-4.091-6.756-4.649-9.846
	c-0.558-3.086-0.157-6.212,1.204-9.379C98.941,523.586,101.422,520.688,105.024,518.054z M111.971,527.623
	c-3.114,2.276-4.929,4.488-5.447,6.636c-0.519,2.148-0.052,4.211,1.397,6.193c1.491,2.038,3.311,3.129,5.459,3.271
	c2.149,0.146,4.95-1.046,8.4-3.57c2.904-2.121,4.599-4.255,5.085-6.402c0.485-2.145-0.001-4.216-1.461-6.212
	c-1.399-1.915-3.203-2.951-5.411-3.115C117.785,524.26,115.111,525.327,111.971,527.623z"/>
<path d="M150.661,545.923l26.923,23.609l-6.204,7.076l-9.016-7.909l-18.943,21.602l-8.891-7.797l18.943-21.6l-9.017-7.909
	L150.661,545.923z"/>
<path d="M188.311,576.907l19.409,10.598c3.233,1.764,5.282,3.922,6.138,6.467c0.857,2.548,0.643,5.002-0.646,7.365
	c-1.083,1.982-2.628,3.344-4.638,4.085c-1.342,0.497-2.954,0.586-4.839,0.269c2.087,1.89,3.313,3.847,3.679,5.871
	c0.366,2.027-0.033,4.102-1.194,6.232c-0.946,1.733-2.202,3.071-3.766,4.014c-1.564,0.941-3.266,1.434-5.108,1.473
	c-1.145,0.028-2.654-0.323-4.532-1.052c-2.499-0.971-4.13-1.663-4.891-2.079l-17.887-9.765L188.311,576.907z M184.397,608.928
	l5.286,2.886c1.785,0.974,3.217,1.346,4.294,1.111c1.078-0.232,1.909-0.882,2.493-1.951c0.54-0.992,0.613-1.988,0.217-2.985
	c-0.394-0.999-1.5-1.993-3.315-2.985l-5.263-2.873L184.397,608.928z M191.58,595.769l4.514,2.465c1.62,0.885,2.898,1.223,3.836,1.01
	c0.937-0.208,1.693-0.841,2.268-1.892c0.534-0.977,0.632-1.913,0.298-2.809c-0.334-0.896-1.288-1.772-2.861-2.631l-4.582-2.501
	L191.58,595.769z"/>
<path d="M225.495,616.925c1.626-6.017,4.566-10.248,8.824-12.694c4.256-2.446,9.378-2.86,15.362-1.244
	c6.134,1.658,10.414,4.58,12.844,8.771c2.428,4.189,2.842,9.251,1.239,15.183c-1.164,4.307-2.843,7.644-5.037,10.009
	c-2.194,2.363-4.869,3.942-8.025,4.736c-3.155,0.791-6.776,0.635-10.865-0.469c-4.156-1.124-7.417-2.714-9.783-4.773
	c-2.366-2.062-4.009-4.752-4.928-8.075C224.208,625.047,224.33,621.232,225.495,616.925z M236.9,620.048
	c-1.006,3.725-1.041,6.584-0.102,8.586c0.937,1.998,2.592,3.317,4.964,3.958c2.437,0.658,4.539,0.372,6.306-0.859
	c1.767-1.231,3.208-3.911,4.322-8.038c0.938-3.472,0.927-6.196-0.035-8.177c-0.962-1.979-2.637-3.29-5.025-3.936
	c-2.289-0.619-4.345-0.302-6.17,0.953C239.334,613.786,237.915,616.293,236.9,620.048z"/>
<path d="M282.53,610.26l11.815,0.495l-1.202,28.705l18.388,0.769l-0.394,9.403l-30.202-1.266L282.53,610.26z"/>
<path d="M325.966,610.516l11.677-1.874l4.552,28.369l18.17-2.915l1.491,9.291l-29.847,4.788L325.966,610.516z"/>
<path d="M425.129,601.337l10.57-2.15c0.761,2.876,0.942,5.522,0.547,7.938c-0.396,2.418-1.332,4.586-2.814,6.504
	c-1.48,1.918-3.727,3.69-6.737,5.312c-3.654,1.968-6.925,3.045-9.814,3.229c-2.887,0.188-5.892-0.604-9.013-2.371
	c-3.12-1.767-5.806-4.733-8.052-8.902c-2.993-5.56-3.815-10.629-2.462-15.209c1.351-4.58,4.736-8.33,10.152-11.248
	c4.239-2.284,8.031-3.224,11.378-2.82c3.344,0.403,6.558,2.056,9.645,4.96l-8.073,6.964c-0.871-0.843-1.608-1.405-2.215-1.686
	c-1.007-0.476-2.048-0.699-3.12-0.669c-1.072,0.029-2.129,0.323-3.172,0.886c-2.36,1.272-3.659,3.192-3.897,5.764
	c-0.192,1.921,0.523,4.383,2.145,7.393c2.01,3.73,3.951,5.981,5.827,6.754c1.879,0.773,3.844,0.607,5.895-0.497
	c1.988-1.072,3.19-2.438,3.607-4.102C425.945,605.725,425.813,603.707,425.129,601.337z"/>
<path d="M434.292,568.519l8.986-7.688l18.68,21.829l13.983-11.966l6.118,7.149l-22.969,19.653L434.292,568.519z"/>
<path d="M480.493,520.689l7.099-9.351l18.105,13.749c1.796,1.363,3.279,2.931,4.447,4.702c1.172,1.771,1.9,3.709,2.187,5.809
	c0.286,2.104,0.174,3.995-0.339,5.674c-0.71,2.337-2.035,4.783-3.977,7.339c-1.121,1.479-2.451,3.014-3.983,4.604
	c-1.536,1.588-3.056,2.738-4.563,3.445c-1.507,0.708-3.196,1.119-5.067,1.232c-1.871,0.114-3.544-0.104-5.02-0.658
	c-2.373-0.888-4.305-1.897-5.796-3.032l-18.104-13.749l7.102-9.351l18.529,14.072c1.658,1.259,3.3,1.782,4.932,1.568
	c1.632-0.216,3.068-1.14,4.31-2.773c1.231-1.622,1.738-3.24,1.52-4.859c-0.218-1.618-1.168-3.068-2.854-4.349L480.493,520.689z"/>
<path d="M495.21,498.111l8.931-20.229c1.489-3.37,3.467-5.59,5.934-6.659c2.465-1.067,4.93-1.06,7.392,0.028
	c2.066,0.911,3.552,2.337,4.46,4.278c0.606,1.294,0.83,2.895,0.672,4.799c1.71-2.237,3.558-3.622,5.543-4.155
	c1.988-0.534,4.091-0.313,6.311,0.666c1.807,0.799,3.246,1.936,4.315,3.417c1.072,1.48,1.704,3.133,1.897,4.965
	c0.122,1.141-0.102,2.673-0.669,4.606c-0.758,2.571-1.311,4.255-1.661,5.049l-8.232,18.642L495.21,498.111z M513.733,493.273
	l2.077-4.705c0.744-1.689,0.973-2.99,0.685-3.906c-0.286-0.917-0.979-1.619-2.077-2.104c-1.018-0.447-1.957-0.468-2.821-0.06
	c-0.863,0.408-1.657,1.432-2.384,3.071l-2.107,4.775L513.733,493.273z M527.446,499.326l2.433-5.509
	c0.82-1.861,1.07-3.318,0.747-4.372c-0.322-1.055-1.038-1.827-2.154-2.319c-1.033-0.455-2.03-0.445-2.993,0.034
	c-0.96,0.476-1.861,1.66-2.696,3.552l-2.42,5.486L527.446,499.326z"/>
</svg>
