<svg height="1000" viewBox="0 0 1000 999.99998" width="1000" xmlns="http://www.w3.org/2000/svg"><g transform="matrix(2.4048965 0 0 2.4048965 -6.484322 -68.33826)"><path d="m 200.208 30.203 c 107.801 0 195.725 87.925 195.725 195.726 c 0 107.803 -87.923 195.728 -195.725 195.728 C 92.406 421.657 4.483 333.732 4.483 225.929 C 4.483 118.128 92.406 30.203 200.208 30.203 Z" fill="#fff" stroke="#ffcb05" stroke-miterlimit="1" stroke-width="3.5734"/><path d="m 200.208 74.017 c 83.671 0 151.913 68.242 151.913 151.913 c 0 83.672 -68.242 151.914 -151.913 151.914 c -83.671 0 -151.913 -68.242 -151.913 -151.914 c 0 -83.671 68.242 -151.913 151.913 -151.913 z" fill="#00854a" stroke="#ffcb05" stroke-miterlimit="1" stroke-width="3.5734"/><path d="m 200.208 248.469 h 95.295 l .067 29.768 h -10.676 l -.044 -18.784 l -36.318 .002 l .102 18.782 h 19.301 l -.024 11.001 h -19.276 v 25.974 h 19.303 l -.026 10.986 H 200.21 v -10.986 h 19.301 l -.033 -55.759 l -19.268 .002 v -10.986 z" fill="#ffcb05"/><path d="m 92.829 278.22 h 67.719 v 11.009 l -19.262 .011 l 28.54 42.562 l 24.525 -42.562 h -22.2 v -11.02 h 51.292 l -.195 11.02 h -15.036 l -33.24 58.128 H 151.027 L 111.504 289.264 L 92.829 289.23 Z" fill="#ffcb05"/><path d="M 80.011 332.959 L 96.883 349.252 L 92.91 358 L 89.371 356.364 v 0 c .48 -1.36 .763 -2.47 .837 -3.335 c .076 -.858 .003 -1.704 -.225 -2.549 c -.225 -.839 -.596 -1.618 -1.116 -2.323 c -.354 -.472 -1.061 -1.227 -2.124 -2.253 v 0 l -2.518 -2.433 l -5.232 5.418 l 1.289 1.244 v 0 c .487 .471 .942 .766 1.36 .887 c .417 .121 .805 .125 1.149 .009 c .352 -.116 .788 -.449 1.316 -.995 v 0 l 1.046 -1.084 l 2.634 2.543 l -8.821 9.136 l -2.634 -2.544 l 1.275 -1.32 v 0 c .365 -.379 .603 -.692 .705 -.933 c .135 -.319 .2 -.624 .184 -.924 c -.013 -.294 -.095 -.568 -.237 -.82 c -.143 -.255 -.482 -.632 -1.006 -1.139 v 0 l -1.128 -1.089 l -4.14 4.286 v 0 c -.499 .518 -.791 .909 -.882 1.176 c -.087 .265 -.071 .532 .036 .81 c .112 .274 .447 .685 1.002 1.22 v 0 l .835 .808 l -2.729 2.825 l -9.951 -9.61 l 2.729 -2.825 l .656 .633 v 0 c .735 .71 1.305 1.079 1.718 1.109 c .413 .028 .898 -.241 1.455 -.819 v 0 L 78.19 339.736 v 0 c .518 -.537 .816 -.937 .901 -1.195 c .08 -.263 .06 -.536 -.059 -.817 c -.12 -.289 -.485 -.722 -1.092 -1.308 v 0 l -.654 -.632 z m 43.455 33.6 c 3.857 2.318 6.277 5.37 7.254 9.153 c .977 3.784 .361 7.521 -1.854 11.204 c -1.488 2.477 -3.353 4.347 -5.6 5.609 c -2.247 1.262 -4.644 1.835 -7.193 1.719 c -2.55 -.116 -5.185 -.99 -7.904 -2.623 c -3.594 -2.16 -5.941 -4.919 -7.046 -8.268 c -1.335 -4.047 -.804 -8.066 1.592 -12.052 c 2.229 -3.711 5.266 -6.014 9.109 -6.918 c 3.844 -.904 7.722 -.179 11.642 2.176 z m -2.259 3.911 c -1.848 -1.11 -3.734 -1.301 -5.658 -.574 c -2.42 .923 -4.459 2.758 -6.114 5.513 c -1.655 2.755 -2.327 5.318 -2.011 7.694 c .28 2.035 1.326 3.598 3.139 4.688 c 1.826 1.099 3.698 1.287 5.616 .574 c 2.278 -.868 4.235 -2.668 5.886 -5.414 c 1.158 -1.929 1.858 -3.721 2.098 -5.364 c .234 -1.644 .079 -3.075 -.473 -4.293 c -.549 -1.218 -1.377 -2.158 -2.483 -2.824 z m 29.872 7.92 l 2.603 .647 l .046 1.001 l 15.536 3.872 l .571 -.845 l 2.622 .655 l 1.009 10.503 l -3.994 .368 v 0 c -.415 -1.804 -.74 -2.996 -.972 -3.575 c -.458 -1.134 -1.072 -2.093 -1.845 -2.871 c -.577 -.589 -1.202 -.97 -1.874 -1.136 c -.317 -.081 -.555 -.059 -.709 .065 c -.159 .12 -.299 .451 -.436 .99 v 0 l -3.947 15.833 v 0 c -.234 .935 -.349 1.53 -.342 1.778 c .007 .254 .071 .468 .198 .651 c .123 .175 .317 .32 .584 .435 c .26 .118 .993 .322 2.191 .622 v 0 l -.95 3.811 l -13.422 -3.347 l .949 -3.81 l .809 .201 v 0 c .895 .223 1.48 .31 1.761 .262 c .275 -.049 .516 -.199 .718 -.449 c .201 -.251 .416 -.825 .638 -1.72 v 0 l 4.036 -16.187 v 0 c .115 -.461 .136 -.76 .06 -.909 c -.077 -.142 -.284 -.258 -.628 -.344 c -.683 -.171 -1.51 -.103 -2.481 .197 c -.974 .304 -1.901 .841 -2.791 1.612 c -.355 .303 -1.173 1.196 -2.451 2.681 v 0 l -3.293 -2.187 z m 36.956 12.694 l -.137 -3.925 l 16.122 -.563 v 0 c 2.466 -.087 4.42 .131 5.843 .66 c 1.431 .524 2.547 1.313 3.339 2.366 c .799 1.051 1.22 2.223 1.264 3.509 c .033 .936 -.134 1.829 -.504 2.686 c -.373 .852 -.924 1.616 -1.651 2.283 c -.732 .671 -1.704 1.238 -2.922 1.702 c 1.338 .292 2.368 .63 3.089 1.012 c 1.035 .532 1.87 1.301 2.498 2.304 c .635 1.005 .972 2.135 1.016 3.395 c .053 1.503 -.352 2.905 -1.213 4.205 c -.866 1.297 -2.12 2.312 -3.756 3.035 c -1.638 .719 -4.052 1.137 -7.252 1.251 v 0 l -14.883 .52 l -.137 -3.925 l 1.114 -.039 v 0 c .75 -.027 1.253 -.108 1.507 -.245 c .262 -.141 .443 -.329 .544 -.567 c .101 -.245 .134 -.776 .104 -1.604 v 0 l -.551 -15.819 v 0 c -.03 -.843 -.1 -1.378 -.218 -1.603 c -.118 -.225 -.312 -.401 -.581 -.526 c -.266 -.127 -.772 -.176 -1.523 -.151 v 0 z m 10.654 7.2 l 3.107 -.108 v 0 c 1.629 -.058 2.827 -.234 3.598 -.533 c .768 -.298 1.341 -.729 1.717 -1.294 c .37 -.562 .546 -1.203 .521 -1.921 c -.024 -.745 -.236 -1.378 -.628 -1.892 c -.389 -.517 -.942 -.874 -1.653 -1.072 c -.714 -.199 -1.978 -.265 -3.795 -.202 v 0 l -3.108 .109 z m .146 4.17 l .215 6.136 v 0 c .039 .87 .095 1.378 .151 1.522 c .074 .19 .193 .317 .352 .384 c .158 .072 .581 .096 1.275 .07 v 0 l 2.072 -.072 v 0 c 1.206 -.043 2.202 -.192 2.985 -.444 c .79 -.252 1.445 -.738 1.977 -1.461 c .532 -.727 .778 -1.579 .742 -2.568 c -.028 -.844 -.249 -1.551 -.661 -2.12 c -.416 -.568 -1.02 -.986 -1.816 -1.255 c -.796 -.274 -1.999 -.379 -3.612 -.322 v 0 z m 45.045 -22.588 c 4.327 -1.241 8.21 -.93 11.643 .936 c 3.434 1.866 5.746 4.865 6.929 8.995 c .796 2.779 .893 5.418 .284 7.922 c -.61 2.505 -1.826 4.647 -3.648 6.432 c -1.824 1.787 -4.26 3.119 -7.309 3.992 c -4.03 1.156 -7.65 .992 -10.852 -.486 c -3.87 -1.783 -6.448 -4.913 -7.73 -9.384 c -1.194 -4.161 -.806 -7.95 1.153 -11.38 c 1.959 -3.425 5.136 -5.767 9.53 -7.027 z m 1.32 4.318 c -2.072 .596 -3.496 1.844 -4.277 3.748 c -.975 2.397 -1.025 5.144 -.138 8.232 c .885 3.089 2.302 5.327 4.257 6.717 c 1.675 1.183 3.534 1.483 5.567 .901 c 2.048 -.588 3.465 -1.827 4.251 -3.715 c .919 -2.258 .935 -4.919 .053 -7.997 c -.62 -2.163 -1.454 -3.897 -2.492 -5.192 c -1.042 -1.294 -2.195 -2.155 -3.461 -2.584 c -1.267 -.429 -2.518 -.466 -3.76 -.11 z m 26.132 -13.792 l 11.892 -7.146 l 2.024 3.366 l -1.045 .628 v 0 c -.581 .349 -.929 .595 -1.047 .745 c -.212 .285 -.305 .584 -.292 .898 c .019 .316 .181 .735 .495 1.258 v 0 l 8.35 13.899 v 0 c .336 .558 .57 .885 .701 .982 c .13 .098 .298 .131 .504 .111 c .21 -.023 .549 -.171 1.012 -.451 c 1.557 -.935 2.689 -1.894 3.392 -2.869 c .702 -.975 1.162 -2.144 1.386 -3.499 c .219 -1.362 .139 -2.977 -.249 -4.853 v 0 l 3.869 -.831 l 2.201 10.929 l -18.574 11.16 l -2.022 -3.366 l 1.17 -.703 v 0 c .477 -.287 .8 -.566 .964 -.84 c .168 -.278 .243 -.554 .221 -.833 c -.017 -.281 -.188 -.688 -.51 -1.225 v 0 l -8.278 -13.777 v 0 c -.349 -.582 -.655 -.968 -.919 -1.155 c -.262 -.195 -.533 -.282 -.804 -.276 c -.274 .005 -.65 .151 -1.126 .44 v 0 l -1.292 .775 z m 32.254 -21.39 l 9.982 -9.637 l 2.727 2.823 l -.877 .848 v 0 c -.486 .471 -.771 .789 -.852 .962 c -.14 .324 -.165 .637 -.082 .939 c .09 .305 .342 .679 .766 1.117 v 0 l 11.262 11.664 v 0 c .455 .468 .753 .735 .905 .801 c .147 .065 .318 .059 .514 -.007 c .201 -.07 .497 -.289 .885 -.666 c 1.308 -1.263 2.195 -2.452 2.659 -3.559 c .465 -1.108 .648 -2.35 .563 -3.723 c -.09 -1.375 -.534 -2.929 -1.333 -4.671 v 0 l 3.585 -1.68 l 4.601 10.155 l -15.587 15.052 l -2.728 -2.825 l .98 -.948 v 0 c .401 -.388 .654 -.732 .753 -1.037 c .101 -.306 .112 -.593 .028 -.861 c -.079 -.271 -.337 -.628 -.773 -1.079 v 0 l -11.165 -11.56 v 0 c -.472 -.488 -.855 -.795 -1.154 -.919 c -.301 -.13 -.585 -.154 -.847 -.088 c -.266 .068 -.598 .293 -.999 .681 v 0 l -1.084 1.045 z M 41.034 132.067 L 54.82 113.092 l 9.215 2.716 l -1.128 3.733 v 0 c -1.413 -.287 -2.553 -.414 -3.418 -.366 c -.862 .044 -1.689 .234 -2.492 .579 c -.8 .337 -1.52 .813 -2.146 1.427 c -.418 .418 -1.067 1.22 -1.936 2.417 v 0 l -2.057 2.832 l 6.093 4.427 l 1.053 -1.449 v 0 c .399 -.549 .626 -1.04 .688 -1.472 c .062 -.431 .014 -.815 -.15 -1.139 c -.164 -.332 -.554 -.718 -1.169 -1.165 v 0 l -1.218 -.883 l 2.153 -2.963 l 10.273 7.464 l -2.152 2.963 l -1.483 -1.078 v 0 c -.425 -.309 -.769 -.501 -1.022 -.57 c -.335 -.088 -.648 -.109 -.941 -.05 c -.29 .052 -.55 .172 -.78 .346 c -.233 .178 -.559 .567 -.988 1.156 v 0 l -.921 1.268 l 4.821 3.502 v 0 c .581 .423 1.009 .657 1.287 .71 c .272 .051 .536 -.003 .796 -.148 c .255 -.15 .616 -.539 1.069 -1.163 v 0 l .683 -.94 l 3.178 2.31 l -8.131 11.192 l -3.177 -2.31 l .534 -.738 v 0 c .6 -.826 .887 -1.441 .859 -1.853 c -.028 -.414 -.364 -.857 -1.012 -1.329 v 0 l -13.202 -9.591 v 0 c -.603 -.436 -1.04 -.678 -1.308 -.725 c -.271 -.043 -.538 .015 -.8 .172 c -.27 .159 -.647 .579 -1.143 1.262 v 0 l -.536 .738 z M 70.105 95.159 L 83.309 83.68 v 0 c .853 -.74 1.845 -1.473 2.985 -2.194 c 1.144 -.724 2.349 -1.18 3.617 -1.365 c 1.269 -.183 2.475 -.074 3.618 .335 c 1.146 .406 2.152 1.111 3.026 2.117 c 1.415 1.627 1.979 3.45 1.693 5.465 c -.285 2.022 -1.09 3.874 -2.408 5.558 v 0 l 8.866 1.299 l .386 .072 v 0 c .588 .095 1.073 .129 1.456 .094 c .383 -.035 .725 -.12 1.022 -.254 c .297 -.133 .654 -.381 1.074 -.748 v 0 l .92 -.8 l 2.577 2.964 l -6.863 5.966 l -14.903 -3.249 l -1.781 1.547 l 3.711 4.268 v 0 c .643 .74 1.088 1.174 1.346 1.303 c .254 .125 .513 .16 .779 .102 c .262 -.057 .665 -.322 1.207 -.794 v 0 l .983 -.854 l 2.576 2.962 l -10.472 9.104 l -2.577 -2.964 l .952 -.827 v 0 c .503 -.437 .809 -.8 .928 -1.089 c .117 -.287 .134 -.586 .048 -.891 c -.054 -.167 -.365 -.572 -.926 -1.216 v 0 L 76.673 97.539 v 0 c -.411 -.472 -.736 -.776 -.989 -.909 c -.25 -.136 -.489 -.155 -.72 -.065 c -.339 .102 -.674 .291 -.988 .563 v 0 l -.418 .39 l -.799 .694 z m 10.947 -3.346 l 4.818 5.541 l 3.177 -2.759 v 0 c 1.251 -1.088 2.086 -2.014 2.506 -2.78 c .419 -.771 .596 -1.505 .539 -2.207 c -.065 -.703 -.363 -1.361 -.896 -1.975 c -.488 -.563 -1.054 -.92 -1.697 -1.071 c -.647 -.15 -1.32 -.09 -2.025 .186 c -.706 .268 -1.671 .935 -2.891 1.995 v 0 z m 45.499 -35.367 c 4.11 -1.83 7.999 -2.063 11.66 -.692 c 3.659 1.369 6.366 4.017 8.114 7.943 c 1.176 2.641 1.637 5.241 1.383 7.805 c -.254 2.566 -1.162 4.856 -2.719 6.879 c -1.558 2.021 -3.784 3.681 -6.682 4.969 c -3.83 1.706 -7.436 2.046 -10.814 1.03 c -4.081 -1.227 -7.069 -3.968 -8.96 -8.217 c -1.762 -3.955 -1.906 -7.761 -.442 -11.429 c 1.463 -3.669 4.282 -6.429 8.46 -8.288 z m 1.909 4.093 c -1.97 .879 -3.208 2.313 -3.717 4.306 c -.632 2.512 -.297 5.236 1.01 8.171 c 1.307 2.936 3.022 4.955 5.15 6.06 c 1.827 .939 3.708 .977 5.64 .118 c 1.946 -.867 3.176 -2.291 3.691 -4.271 c .596 -2.364 .243 -5.001 -1.061 -7.926 c -.915 -2.057 -1.981 -3.656 -3.189 -4.795 c -1.214 -1.135 -2.474 -1.829 -3.788 -2.076 c -1.312 -.251 -2.557 -.112 -3.736 .413 z m -9.545 -8.733 c .733 -.326 1.487 -.336 2.268 -.03 c .786 .306 1.336 .825 1.66 1.552 c .31 .695 .319 1.41 .033 2.147 c -.287 .738 -.795 1.266 -1.512 1.586 c -.728 .324 -1.471 .346 -2.233 .058 c -.758 -.283 -1.303 -.799 -1.633 -1.542 c -.336 -.757 -.366 -1.491 -.095 -2.211 c .275 -.713 .779 -1.234 1.512 -1.56 z m 8.959 -3.988 c .719 -.32 1.468 -.329 2.249 -.021 c .782 .308 1.337 .824 1.661 1.553 c .31 .696 .319 1.408 .032 2.148 c -.287 .737 -.784 1.26 -1.493 1.575 c -.742 .331 -1.489 .355 -2.251 .066 c -.759 -.282 -1.303 -.799 -1.634 -1.54 c -.336 -.757 -.365 -1.491 -.093 -2.21 c .275 -.716 .782 -1.239 1.529 -1.571 z m 36.149 -2.794 l 13.772 -1.691 l .479 3.898 l -1.21 .149 v 0 c -.671 .081 -1.092 .166 -1.26 .253 c -.309 .175 -.516 .411 -.632 .703 c -.11 .298 -.134 .746 -.061 1.35 v 0 l 1.977 16.095 v 0 c .08 .646 .16 1.04 .24 1.182 c .08 .143 .217 .241 .415 .307 c .202 .063 .569 .066 1.107 0 c 1.804 -.222 3.228 -.637 4.266 -1.242 c 1.039 -.606 1.933 -1.486 2.689 -2.634 c .756 -1.153 1.337 -2.664 1.747 -4.534 v 0 l 3.873 .816 l -2.437 10.879 l -21.506 2.64 l -.479 -3.898 l 1.354 -.166 v 0 c .554 -.069 .965 -.192 1.225 -.377 c .266 -.185 .448 -.407 .542 -.669 c .098 -.264 .107 -.706 .031 -1.327 v 0 l -1.959 -15.953 v 0 c -.082 -.673 -.204 -1.152 -.369 -1.43 c -.161 -.285 -.373 -.473 -.622 -.58 c -.255 -.104 -.656 -.124 -1.209 -.055 v 0 l -1.494 .183 z m 45.148 -3.453 l 13.751 1.688 l -.479 3.897 l -1.353 -.166 v 0 c -.622 -.077 -1.069 -.058 -1.351 .061 c -.281 .112 -.499 .3 -.651 .565 c -.158 .258 -.285 .814 -.389 1.663 v 0 l -1.258 10.256 v 0 c -.236 1.912 -.218 3.362 .047 4.351 c .266 .993 .759 1.778 1.473 2.363 c .715 .588 1.619 .95 2.727 1.086 c 1.101 .136 2.118 -.012 3.045 -.445 c .931 -.431 1.628 -1.042 2.104 -1.824 c .468 -.783 .824 -2.129 1.057 -4.044 v 0 l 1.39 -11.305 v 0 c .057 -.471 .035 -.813 -.056 -1.036 c -.129 -.289 -.324 -.501 -.578 -.642 c -.183 -.107 -.653 -.201 -1.422 -.295 v 0 l -1.088 -.134 l .479 -3.897 l 11.649 1.43 l -.479 3.898 l -.904 -.11 v 0 c -.905 -.113 -1.47 -.129 -1.7 -.048 c -.342 .122 -.608 .331 -.791 .624 c -.132 .188 -.259 .739 -.372 1.654 v 0 l -1.362 11.103 v 0 c -.252 2.048 -.756 3.729 -1.518 5.042 c -1.053 1.787 -2.545 3.088 -4.467 3.911 c -1.929 .824 -4.123 1.084 -6.583 .782 c -1.736 -.213 -3.261 -.672 -4.57 -1.375 c -1.306 -.695 -2.416 -1.606 -3.323 -2.721 c -.909 -1.114 -1.503 -2.252 -1.776 -3.405 c -.277 -1.156 -.281 -2.809 -.015 -4.965 v 0 l 1.336 -10.881 v 0 c .123 -.998 .144 -1.646 .077 -1.949 c -.074 -.302 -.224 -.536 -.451 -.701 c -.225 -.163 -.689 -.288 -1.387 -.374 v 0 l -1.292 -.158 z m 51.658 9.878 l 10.538 4.693 l .867 18.51 l 4.119 -9.255 v 0 c .355 -.793 .532 -1.308 .534 -1.542 c .008 -.354 -.066 -.633 -.227 -.849 c -.157 -.211 -.54 -.451 -1.144 -.72 v 0 l -1.266 -.563 l 1.596 -3.587 l 10.706 4.766 l -1.597 3.587 l -1.19 -.53 v 0 c -.596 -.264 -1.047 -.387 -1.367 -.362 c -.311 .022 -.569 .128 -.775 .32 c -.205 .19 -.479 .678 -.826 1.458 v 0 l -8.929 20.056 l -5.333 -2.375 l -1.124 -23.396 l -5.95 13.365 v 0 c -.341 .768 -.514 1.278 -.514 1.535 c -.002 .249 .092 .49 .278 .722 c .188 .233 .578 .481 1.172 .745 v 0 l 1.244 .552 l -1.599 3.587 l -10.756 -4.789 l 1.597 -3.587 l 1.114 .496 v 0 c .618 .275 1.065 .411 1.345 .411 c .274 -.004 .538 -.107 .79 -.304 c .253 -.199 .497 -.559 .725 -1.079 v 0 l 6.622 -14.869 v 0 c .253 -.572 .378 -1.018 .373 -1.34 c -.005 -.32 -.088 -.585 -.249 -.801 c -.156 -.212 -.484 -.426 -.976 -.646 v 0 l -1.395 -.62 z m 45.912 23.212 l 11.223 9.755 v 0 c 2.551 2.218 4.225 4.383 5.029 6.497 c .801 2.12 .957 4.36 .476 6.724 c -.484 2.366 -1.689 4.659 -3.623 6.884 c -1.343 1.544 -2.77 2.725 -4.286 3.548 c -1.514 .822 -3.145 1.33 -4.896 1.527 c -1.755 .193 -3.36 .087 -4.821 -.319 c -1.097 -.312 -2.461 -.966 -4.093 -1.971 c -1.635 -1.007 -2.881 -1.883 -3.738 -2.628 v 0 l -9.891 -8.597 l 2.577 -2.964 l .736 .639 v 0 c .624 .543 1.077 .847 1.362 .916 c .282 .064 .594 .033 .93 -.11 c .25 -.122 .659 -.51 1.229 -1.167 v 0 l 10.174 -11.704 v 0 c .567 -.651 .894 -1.114 .972 -1.378 c .078 -.262 .052 -.531 -.057 -.801 c -.116 -.273 -.5 -.688 -1.145 -1.248 v 0 l -.736 -.639 z m 4.84 10.246 l -11.57 13.311 v 0 c -.393 .451 -.604 .749 -.643 .898 c -.055 .221 -.025 .433 .081 .628 c .112 .195 .47 .554 1.071 1.078 c 1.678 1.458 3.216 2.341 4.612 2.649 c 1.4 .304 2.885 .142 4.459 -.493 c 1.577 -.63 3.049 -1.737 4.42 -3.314 c 1.354 -1.556 2.255 -3.147 2.709 -4.773 c .455 -1.627 .482 -3.033 .083 -4.209 c -.399 -1.167 -1.353 -2.411 -2.856 -3.717 v 0 z m 38.174 33.906 l 3.744 5.153 l -12.716 19.777 v 0 c -.674 1.057 -1.014 1.813 -1.02 2.264 c -.009 .449 .274 1.061 .853 1.83 v 0 l -3.177 2.309 l -7.893 -10.864 l 3.177 -2.308 l .495 .644 v 0 c .438 .603 .828 .97 1.159 1.099 c .333 .123 .615 .103 .848 -.064 c .197 -.144 .526 -.544 .991 -1.197 v 0 l 1.597 -2.197 l -5.082 -6.995 l -2.938 .83 v 0 c -.627 .183 -1.012 .333 -1.165 .445 c -.176 .127 -.285 .304 -.338 .534 c -.053 .228 -.009 .509 .136 .842 c .09 .219 .445 .753 1.058 1.596 v 0 l -3.18 2.308 l -6.456 -8.887 l 3.177 -2.308 v 0 c .414 .568 .768 .948 1.058 1.144 c .289 .188 .597 .299 .917 .324 c .315 .028 .826 -.051 1.512 -.229 v 0 z m -12.872 8.271 l 3.335 4.593 l 4.695 -6.83 z" fill="#ffcb05"/><path d="m 213.343 74.593 c 8.507 .736 16.821 2.168 24.877 4.254 v 0 v 147.082 h -24.877 z m 49.717 13.081 c 8.768 4.01 17.094 8.826 24.88 14.359 v 0 v 123.896 h -24.88 z m 49.757 36.476 c 10.024 11.077 18.436 23.633 24.879 37.29 v 0 v 64.489 H 312.817 Z M 62.721 161.44 c 6.442 -13.655 14.854 -26.213 24.878 -37.29 v 0 v 101.779 H 62.721 Z m 49.756 -59.407 c 7.785 -5.533 16.11 -10.349 24.879 -14.359 v 0 v 138.255 h -24.879 z m 49.719 -23.186 c 8.055 -2.088 16.37 -3.519 24.878 -4.254 v 0 v 151.336 h -24.878 z" fill="#fff" stroke="#ffcb05" stroke-linejoin="round" stroke-miterlimit="1" stroke-width="3.5734"/></g></svg>