<svg height="1000" viewBox="0 0 1000 999.99998" width="1000" xmlns="http://www.w3.org/2000/svg"><g transform="matrix(2.1898383 0 0 2.1898383 11.739723 -36.149874)"><path d="M 102.165 25.234 L 61.342 25.234 L 61.342 441.605 L 102.768 441.605 L 102.768 25.234 Z" fill="#5c2d91"/><ellipse cx="82.055" cy="233.41901" fill="#54bceb" rx="65.223999" ry="216.907"/><path d="M 168.33 25.234 L 127.509 25.234 L 127.509 441.605 L 168.934 441.605 L 168.934 25.234 Z" fill="#5c2d91"/><ellipse cx="148.22099" cy="233.41901" fill="#54bceb" rx="65.225998" ry="216.90601"/><path d="M 234.498 25.234 L 193.676 25.234 L 193.676 441.605 L 235.102 441.605 L 235.102 25.234 Z" fill="#5c2d91"/><ellipse cx="214.38901" cy="233.41901" fill="#54bceb" rx="65.210999" ry="216.911"/><path d="m 301.805 234.067 c 0 -84.82 -68.761 -153.581 -153.583 -153.581 c -84.819 0 -153.583 68.761 -153.583 153.581 c 0 84.822 68.764 153.583 153.583 153.583 c 19.07 0 37.321 -3.485 54.167 -9.836 l 16.669 21.669 h 63.524 L 246.27 352.279 c 33.928 -28.171 55.535 -70.665 55.535 -118.212 z m -153.583 99.769 c -55.099 0 -99.768 -44.667 -99.768 -99.769 c 0 -55.099 44.669 -99.767 99.768 -99.767 c 55.102 0 99.768 44.667 99.768 99.767 c 0 30.176 -13.414 57.199 -34.583 75.493 l -6.676 -8.676 h -63.522 l 23.95 31.133 c -6.134 1.18 -12.458 1.819 -18.937 1.819 z" fill="#5c2d91"/><path d="m 23.578 195.601 l -14.26 -3.752 l 2.526 -9.605 l 36.952 9.724 l -2.526 9.605 l -15.144 -3.985 l -3.65 13.87 l 15.144 3.985 l -2.529 9.606 l -36.951 -9.727 l 2.529 -9.605 l 14.261 3.753 z" fill="#fff"/><path d="m 37.629 139.889 l 17.71 12.167 c 4.051 2.783 7.948 5.706 8.844 10.933 c .781 4.411 -1.139 9.177 -3.666 12.852 c -2.524 3.676 -6.285 7.18 -10.683 8.033 c -5.201 1.038 -9.325 -1.55 -13.376 -4.334 l -17.71 -12.166 l 5.625 -8.188 l 16.583 11.393 c 4.094 2.813 8.764 5.589 12.379 .327 c 3.615 -5.263 -.653 -8.624 -4.747 -11.438 L 32.006 148.076 Z" fill="#fff"/><path d="m 70.967 124.063 c -2.373 -.064 -4.832 .583 -6.743 2.091 c -1.432 1.129 -2.684 3.469 -1.366 5.142 c 1.38 1.751 4.023 .765 5.721 .135 l 2.46 -.972 c 5.15 -2.06 10.038 -2.493 13.866 2.363 c 2.354 2.984 4.052 6.613 3.266 10.526 c -.78 3.841 -3.264 7.155 -6.29 9.539 c -3.78 2.981 -8.486 4.626 -13.244 4.893 l -1.615 -8.923 c 3.3 .173 6.706 -.253 9.372 -2.356 c 1.832 -1.443 3.059 -3.896 1.396 -6.003 c -1.725 -2.19 -5.385 -.529 -7.433 .31 c -5.993 2.466 -10.22 3.735 -14.802 -2.075 c -4.8 -6.088 -3.601 -13.488 2.409 -18.227 c 3.025 -2.385 7.479 -4.347 11.337 -4.936 z" fill="#fff"/><path d="m 113.012 117.475 l -8.451 4.222 l 7.808 3.69 c -.838 .673 -1.741 1.153 -2.699 1.491 c -5.59 1.976 -11.828 -.926 -14.024 -7.137 c -1.755 -4.969 1.276 -11.146 6.866 -13.121 c 5.638 -1.992 11.851 1.293 13.759 6.692 c .642 1.816 .761 3.978 .203 5.895 z m 21.076 10.663 l -8.247 -4.018 c 1.694 -4.791 1.85 -9.521 .161 -14.299 c -4.139 -11.706 -15.519 -16.23 -26.746 -12.261 c -10.369 3.664 -17.224 14.686 -13.374 25.579 c 4.122 11.659 15.387 16.921 26.95 12.836 c 3.87 -1.368 6.882 -3.185 9.062 -5.836 l 4.066 2.38 z" fill="#fff"/><path d="m 150.198 113.699 l 9.685 -23.043 l 10.794 .191 l -16.994 37.915 l -7.702 -.137 l -15.383 -38.488 l 10.79 .191 z" fill="#fff"/><path d="m 189.547 121.615 l -7.859 -2.54 l 7.646 -10.31 l .096 .03 z m .217 8.058 l .321 7.081 l 10.079 3.258 l -1.942 -40.785 l -10.318 -3.336 l -25.737 31.839 l 10.03 3.24 l 4.55 -5.506 z" fill="#fff"/><path d="m 226.098 122.151 l .776 .569 c 2.618 1.913 5.207 4.558 2.756 7.911 c -2.454 3.355 -5.758 1.696 -8.376 -.218 l -.776 -.567 z m -.882 17.871 c 4.946 2.422 10.011 .474 13.12 -3.783 c 4.811 -6.587 2.312 -12.871 -3.786 -17.324 l -11.99 -8.76 l -22.54 30.852 l 8.022 5.86 l 8.666 -11.867 l .082 .06 l -1.096 17.396 l 9.983 7.294 z" fill="#fff"/><path d="m 257.311 137.961 l 5.622 8.189 l -8.974 28.218 l .06 .083 l 19.262 -13.216 l 5.619 8.191 l -31.509 21.615 l -5.618 -8.191 l 9.014 -28.246 l -.056 -.084 l -19.308 13.243 l -5.618 -8.19 z" fill="#fff"/><path d="m 267.113 210.968 l -1.969 -8.022 l 12.788 1.088 l .026 .098 z m -6.742 4.421 l -5.856 3.995 l 2.525 10.286 l 33.677 -23.087 l -2.585 -10.532 l -40.61 -5.163 l 2.512 10.238 l 7.076 .975 z" fill="#fff"/><path d="m 59.473 307.514 l -4.941 4.043 l 6.9 8.432 l -6.51 5.329 l -6.9 -8.433 l -11.608 9.5 l -6.291 -7.686 l 29.57 -24.199 l 13.896 16.981 l -6.509 5.328 z" fill="#fff"/><path d="m 85.534 331.095 c 4.949 3.264 6.36 9.961 3.46 14.361 c -3.625 5.501 -10.336 6.843 -15.287 3.579 c -4.948 -3.263 -6.361 -9.96 -2.737 -15.461 c 2.902 -4.399 9.614 -5.741 14.564 -2.479 z m 5.297 -8.038 c -9.181 -6.052 -22.104 -4.86 -28.465 4.787 c -6.805 10.323 -4.196 22.482 6.043 29.232 c 10.238 6.748 22.439 4.352 29.245 -5.972 c 6.359 -9.647 2.359 -21.995 -6.823 -28.047 z" fill="#fff"/><path d="m 112.885 375.377 l -9.543 -2.755 l 8.261 -28.629 l -7.886 -2.276 l 2.333 -8.082 l 25.317 7.307 l -2.332 8.082 l -7.888 -2.276 z" fill="#fff"/><path d="m 142.364 363.775 l 1.013 .014 c 3.244 .045 8.166 -.343 8.102 4.269 c -.06 4.206 -5.023 3.983 -7.961 3.944 l -1.267 -.018 z m 5.152 15.883 c 6.992 .099 13.87 -2.441 13.98 -10.448 c .073 -5.321 -2.205 -9.052 -7.669 -9.836 l .002 -.102 c 3.113 -1.528 4.267 -4.3 4.313 -7.746 c .102 -7.297 -4.424 -9.995 -11.212 -10.087 l -14.186 -.197 l -.53 38.204 z m -4.947 -30.678 l .709 .009 c 2.687 .038 5.774 .282 5.727 3.779 c -.045 3.243 -2.789 3.662 -5.423 3.625 l -1.114 -.016 z" fill="#fff"/><path d="m 183.787 344.114 c 5.632 -1.853 11.757 1.203 13.402 6.208 c 2.058 6.258 -1.06 12.351 -6.693 14.202 c -5.632 1.853 -11.758 -1.202 -13.813 -7.46 c -1.648 -5.008 1.473 -11.101 7.104 -12.95 z m -3.006 -9.147 c -10.447 3.433 -17.542 14.3 -13.937 25.277 c 3.861 11.745 15.009 17.258 26.656 13.428 c 11.651 -3.829 17.356 -14.878 13.495 -26.626 c -3.608 -10.976 -15.769 -15.513 -26.214 -12.079 z" fill="#fff"/><path d="m 226.208 346.477 l 9.75 -6.835 l 4.83 6.888 l -17.884 12.538 l -21.931 -31.29 l 8.132 -5.7 z" fill="#fff"/><path d="m 247.581 327.698 l 8.123 -8.706 l 6.151 5.738 l -14.898 15.97 l -27.938 -26.068 l 6.774 -7.261 z" fill="#fff"/><path d="m 85.48 234.645 v -9.832 h 6.621 v 25.473 H 85.48 v -10.44 h -9.562 v 10.44 h -6.62 v -25.473 h 6.62 v 9.832 z" fill="#5c2d91"/><path d="m 147.157 230.421 v 4.256 h 7.264 v 5.608 h -7.264 v 10 h -6.62 v -25.473 h 14.627 v 5.608 h -8.007 z" fill="#5c2d91"/><path d="m 212.175 230.421 v 4.256 h 7.262 v 5.608 h -7.262 v 10 h -6.623 v -25.473 h 14.63 v 5.608 h -8.007 z" fill="#5c2d91"/><path d="m 118.598 237.33 c 0 2.237 -1.815 4.052 -4.052 4.052 c -2.238 0 -4.05 -1.815 -4.05 -4.052 c 0 -2.237 1.813 -4.05 4.05 -4.05 c 2.236 0 4.052 1.813 4.052 4.05 z" fill="#5c2d91"/><path d="m 184.769 237.33 c 0 2.237 -1.813 4.052 -4.052 4.052 c -2.237 0 -4.05 -1.815 -4.05 -4.052 c 0 -2.237 1.813 -4.05 4.05 -4.05 c 2.239 0 4.052 1.813 4.052 4.05 z" fill="#5c2d91"/></g></svg>