<svg xmlns="http://www.w3.org/2000/svg" xml:space="preserve" viewBox="0 0 612 792"><path d="M306.576 679.552c-61.704-35.208-114.408-79.416-157.464-136.296-53.856-71.28-84.528-152.568-86.904-241.56C60.552 241 71.424 184.552 83.88 125.584c43.056 29.52 87.192 46.656 140.112 32.616 31.608-8.424 57.096-26.064 82.584-45.576 25.488 19.512 50.976 37.152 82.584 45.576 52.92 14.04 97.056-3.096 140.112-32.616C541.728 184.552 552.6 241 550.944 301.696c-2.376 88.992-33.048 170.28-86.904 241.56-43.056 56.88-95.76 101.088-157.464 136.296" style="fill:#007ac2"/><path d="M306.576 665.008c-57.312-32.688-107.568-76.752-147.384-129.384-52.272-69.12-82.08-147.888-84.312-234.288-1.44-52.56 6.624-103.392 17.424-154.656 15.48 10.584 30.672 16.992 48.6 22.248 30.744 9 59.328 8.64 86.328 1.44 29.592-7.848 55.296-23.4 79.344-41.832 24.048 18.432 49.752 33.984 79.344 41.832 27 7.2 55.584 7.56 86.328-1.44 17.928-5.256 33.12-11.664 48.6-22.248 10.8 51.264 18.864 102.096 17.424 154.656-2.232 86.4-32.04 165.168-84.312 234.288-39.816 52.632-90.072 96.696-147.384 129.384" style="fill:#fff"/><path d="M415.8 183.832c-10.944-.72-21.6-2.52-32.04-5.256-27.288-7.272-52.92-21.168-77.184-39.456-24.264 18.288-49.896 32.184-77.184 39.384-28.44 7.56-58.536 7.92-90.864-1.512-13.968-4.104-27.936-8.928-40.536-16.416-9.576 46.44-15.984 93.024-14.688 140.616.936 35.208 6.552 69.192 16.488 101.664 1.224-.216 2.448-.504 3.672-.72 21.6-4.248 42.624-8.928 63.288-14.904 42.048-12.024 82.008-29.016 118.728-52.92 36.288-23.688 69.84-53.352 95.76-88.272 14.256-19.152 26.136-39.96 34.56-62.208" style="fill:#007ac2"/><path d="m529.632 308.392.216-7.2c1.296-47.592-5.112-94.176-14.688-140.616-12.6 7.488-26.568 12.312-40.536 16.416-17.28 5.04-33.912 7.272-49.968 7.128-8.64 23.904-21.312 46.296-36.648 66.96-26.712 35.928-61.56 66.6-97.92 90.288-39.456 25.632-79.416 42.12-121.032 54-21.744 6.192-43.92 11.16-66.672 15.552 14.04 42.48 35.496 82.512 63.576 119.592 4.752 6.336 9.648 12.528 14.76 18.576 23.688-6.552 47.736-14.256 71.784-23.256 45.792-17.136 91.296-38.808 133.056-66.096 41.976-27.36 78.696-59.616 107.856-96.192 13.824-17.424 25.992-35.856 36.216-55.152" style="fill:#007ac2"/><path d="M306.576 655.288c53.136-30.672 102.168-73.872 140.616-124.776 45.72-60.48 73.944-128.448 81-202.464-8.352 14.112-17.856 27.72-28.224 40.752-30.744 38.592-68.472 71.065-109.8 97.992-42.12 27.504-87.696 49.32-134.712 66.888-23.184 8.712-46.152 16.128-68.688 22.464 34.704 39.816 75.888 73.728 119.808 99.144" style="fill:#007ac2"/><path d="m521.208 306.16.216-5.184c1.152-43.128-4.032-85.464-12.312-127.656-10.296 4.968-21.168 8.568-32.184 11.736-15.984 4.68-31.392 7.056-46.44 7.488-8.856 22.608-21.096 43.848-35.712 63.504-27.36 36.864-63 68.184-100.152 92.376-40.176 26.136-80.928 42.912-123.264 55.008-18.936 5.4-38.16 9.936-57.888 13.896 13.752 38.232 33.696 74.376 59.184 108.144 3.6 4.752 7.272 9.432 11.088 14.04 21.744-6.192 43.776-13.32 65.808-21.528 45.288-16.92 90.216-38.376 131.472-65.304 41.184-26.856 77.184-58.464 105.768-94.392 13.104-16.488 24.696-33.912 34.416-52.128M306.576 532.528l-11.736 34.848-34.848 11.736 34.848 11.808 11.736 34.776 11.736-34.776 34.848-11.808-34.848-11.736zM121.752 287.656c0 5.184 3.312 8.064 7.704 8.064s7.704-2.88 7.704-8.064v-58.248c0-5.184-3.312-8.064-7.704-8.064s-7.704 2.88-7.704 8.064zM165.24 287.656c0 5.184 3.312 8.064 7.704 8.064 4.464 0 7.704-2.88 7.704-8.064v-22.32h15.912c4.968 0 7.416-3.6 7.416-7.2 0-3.528-2.448-6.984-7.416-6.984h-15.912v-14.976h18.936c4.608 0 6.84-3.6 6.84-7.128 0-3.6-2.376-7.056-6.84-7.056h-26.28c-5.184 0-8.064 3.816-8.064 7.992zM229.104 288.304c0 4.536 3.24 7.416 7.704 7.416 4.608 0 7.704-3.384 7.704-7.416v-26.208l26.568 28.8c2.88 3.024 4.824 4.824 7.776 4.824 4.248 0 7.992-2.304 7.992-7.128 0-3.096-1.8-5.328-4.32-7.776l-23.688-24.768 19.368-19.08c3.456-3.384 5.04-5.544 5.04-8.208 0-4.392-3.672-7.416-7.56-7.416-2.88 0-4.824 1.656-5.976 2.88l-25.2 26.928v-22.176c0-4.752-3.312-7.632-7.704-7.632-4.68 0-7.704 3.456-7.704 7.632z" style="fill:#fff"/><path d="M417.744 276.136c2.88-1.8 5.04-7.344 14.832-5.184 18.072 5.184 36.648 12.6 54.072 19.584 4.176.288 7.488-1.44 10.728-3.168 2.016-1.08 4.464-1.728 6.408-1.224 5.832 1.656.648 9.288-1.008 12.24-3.96 6.84-9.288 13.248-14.904 19.008-3.744 3.816-7.128 3.672-7.128-2.952 0-2.664.216-5.256-3.312-6.48-1.656-.72-4.104-.72-5.76 0-5.256 6.12-11.088 12.24-14.832 19.296-1.656 3.096-.576 4.824 2.52 6.768 2.592.936 4.752-1.152 6.84-2.52 3.672-2.304 8.928 1.224 7.128 4.68-5.4 8.28-12.672 15.336-18.936 23.616-2.016 2.736-3.384 4.104-6.48 1.656-1.584-1.296-2.52-3.6-1.296-6.408 1.152-2.736 4.104-5.256 2.088-8.712-6.552-11.448-29.52-40.248-35.568-52.056-2.808-5.472-1.584-6.768-.288-12.313-1.224.504-3.672 1.368-5.112 1.368-5.904 0-10.8-4.824-10.8-10.8s4.896-10.872 10.8-10.872c5.976 0 10.872 4.896 10.872 10.872.144 1.009-.576 3.169-.864 3.601m-10.008-8.64c-2.736 0-4.968 2.304-4.968 5.04s2.232 5.04 4.968 5.04c2.808 0 5.04-2.304 5.04-5.04s-2.232-5.04-5.04-5.04m51.048 34.56c-1.368-2.808-27.144-12.528-27.792-8.856-1.008 4.896 15.552 23.184 16.344 24.192z" style="fill:#007ac2"/><path d="M139.752 341.944c0 3.096 1.512 4.824 3.528 4.824 1.944 0 3.456-1.728 3.456-4.824v-34.992c0-2.52-1.08-4.392-3.096-4.392h-6.624c-2.016 0-3.168 2.088-3.168 4.248 0 2.088.936 4.248 3.168 4.248h2.736zM165.24 302.56c-6.912 0-11.736 7.272-11.736 15.264 0 7.272 4.176 13.752 9.792 13.752 1.008 0 2.088-.216 2.88-.72l.144.144c-1.584 2.88-4.608 6.84-6.48 9.864-.576.935-.936 1.656-.936 2.52 0 2.232 2.016 4.464 3.312 4.464.36 0 .864 0 1.368-.432.576-.504 1.152-1.008 1.512-1.44 4.68-5.832 11.808-18.864 11.808-28.152 0-8.208-4.464-15.264-11.664-15.264m0 21.672c-2.952 0-4.464-3.168-4.464-6.408 0-3.6 1.8-6.408 4.464-6.408 2.808 0 4.392 2.952 4.392 6.408 0 3.6-1.728 6.408-4.392 6.408M193.824 339.496c-4.752 0-5.04-9.936-5.04-14.256 0-4.68.288-14.328 5.04-14.328s5.112 9.648 5.112 14.328c0 4.32-.36 14.256-5.112 14.256m0 8.352c9.432 0 12.384-12.6 12.384-22.608 0-10.08-2.952-22.68-12.384-22.68-9.36 0-12.312 12.6-12.312 22.68 0 10.008 2.952 22.608 12.312 22.608M225 339.496c-4.824 0-5.112-9.936-5.112-14.256 0-4.68.288-14.328 5.112-14.328 4.752 0 5.04 9.648 5.04 14.328 0 4.32-.288 14.256-5.04 14.256m0 8.352c9.36 0 12.312-12.6 12.312-22.608 0-10.08-2.952-22.68-12.312-22.68-9.432 0-12.384 12.6-12.384 22.68 0 10.008 2.952 22.608 12.384 22.608" style="fill:#fff"/><path d="M398.448 322.432c.432 1.728.72 3.888-1.44 4.824-5.112.72-9.432-4.32-14.976-1.944-3.384 2.448-7.488 5.832-8.208 9.936-.648 4.968 6.264 12.816 9.792 16.632 1.584 1.728 3.456 2.88 5.4 1.944 4.824-4.104-4.104-11.088 3.6-14.256 4.824 0 7.992 6.048 11.376 8.928 1.872 2.304 4.392 4.608 5.688 7.128 1.944 4.032-1.224 8.208-5.184 5.688-1.944-.72-3.168-2.16-5.616-1.656-2.16.936-2.88 3.6-2.16 5.76 3.888 5.328 8.496 10.152 13.752 14.472 6.12.72 15.192-9.576 14.04-15.912-.792-4.32-4.536-7.992-3.6-12.528 4.104-2.232 7.2 3.384 10.368 5.76 7.272 8.136 12.744 11.376 2.304 20.376-10.728 9.288-22.464 20.808-33.48 29.664-2.304 1.872-5.472 5.04-7.92 1.368-4.104-4.104 2.88-7.272.216-12.096-9.864-15.12-23.688-28.944-36.432-42.696-1.368-3.6-8.496.792-10.8-1.296-3.168-2.808 1.368-6.048 3.24-7.56 11.52-9.432 23.76-21.96 33.624-34.128 4.968-3.6 13.032 7.776 16.416 11.592M285.696 410.704l11.736 31.536c5.616 14.976 8.136 27.576-11.88 35.496-17.064 6.84-32.4 6.12-39.672-12.6l-16.992-44.064c-.864-2.16-2.88-2.088-4.896-2.952-5.76-2.52-1.656-6.192 1.368-7.632 5.688-2.52 14.76-6.192 20.88-7.488 4.248-.936 8.064-.792 6.336 4.68-3.888 5.328-2.736 7.704-.504 13.32l13.104 33.984c2.808 5.472 7.704 14.76 15.984 12.384 10.872-3.168 8.208-14.112 5.544-21.312l-12.816-30.888c-2.52-4.176-2.88-10.368-8.784-12.528-12.816-4.68 8.784-12.24 13.608-13.392 5.976-.864 4.68 4.392 2.88 7.92-1.368 2.736 3.096 10.944 4.104 13.536M198.936 425.104c2.232 4.608-4.824 6.84-2.736 12.024l12.528 47.016c2.52 9.36 13.464 8.136 17.64.36 3.528-5.112-3.168-13.536 4.176-16.056 3.816-1.296 5.544 1.368 7.344 5.832 2.376 5.688 4.176 14.04 4.248 17.064-4.32 3.168-10.08 4.392-15.264 6.192-12.816 3.96-25.2 8.352-38.592 10.728-5.112.936-6.552-2.52-3.528-6.84 2.808-4.032 2.664-6.696 1.296-11.376L172.8 443.536c-.504-4.68-8.352-4.536-8.856-8.136-.504-3.744 7.776-6.696 15.912-8.928 3.384-.936 17.352-7.056 19.08-1.368M324.648 366.712c3.456 3.888-2.88 7.848.504 12.312l24.192 42.192c4.752 8.424 15.048 4.392 17.136-4.176 2.016-5.832-6.624-12.312-.144-16.56 3.384-2.232 5.76-.144 8.64 3.744 3.672 4.896 7.56 12.528 8.424 15.336-3.384 4.248-8.568 6.84-13.104 9.936-11.448 7.128-22.32 14.544-34.632 20.232-4.68 2.232-6.912-.72-5.184-5.688 1.728-4.608.936-7.2-1.656-11.304l-24.552-41.544c-1.728-4.32-9.288-2.232-10.656-5.544-1.512-3.528 5.832-8.496 13.032-12.744 3.024-1.8 14.904-11.232 18-6.192" style="fill:#007ac2"/></svg>