<svg xmlns="http://www.w3.org/2000/svg" width="1000" height="1000" viewBox="0 0 1000 1000"><g fill-rule="evenodd" clip-rule="evenodd"><path fill="#a39161" d="m87.323 364.232 1.256-1.282-1.036.505ZM611.57 363.455l-1.032-.505 1.252 1.282Z"/><path fill="#6a2c91" d="M349.556 262.176c-116.258 0-210.498 94.24-210.498 210.494s94.24 210.495 210.498 210.495c116.255 0 210.49-94.24 210.49-210.495.005-116.254-94.231-210.494-210.49-210.494m-105.19 73.102 57.143-10.708-54.669 112.377 102.72-39.021 102.716 39.02-54.668-112.376 57.142 10.708 64.86 126.12-68.157 140.686-59.355 11.273 56.054-126.116-98.596-39.84-98.603 39.84 56.061 126.116-59.35-11.273-68.154-140.686z"/><path fill="#a39161" d="M349.556 133.92c-187.09 0-338.75 151.663-338.75 338.75 0 187.091 151.663 338.75 338.75 338.75s338.75-151.659 338.75-338.75c0-187.09-151.659-338.75-338.75-338.75m206.002-23.767 39.966-33.872c1.646-1.442 3.195-3.723 5.247-2.588l20.846 11.557c1.624.9 2.933 2.099 1.734 4.254-1.328 2.402-3.934.486-5.623-.296-5.388-2.512-7.509 2.588-9.99 7.33l-23.7 45.552c-1.157 2.34-3.244 6.363-3.578 9.003-.265 2.52.934 3.658 2.706 4.797 1.453.96 4.15 2.454 2.823 4.856-1.336 2.402-3.711 1.082-5.225.247-5.403-2.994-10.325-6.348-15.728-9.342-4.534-2.515-9.338-4.553-13.982-7.125-1.407-.778-3.07-1.856-1.935-3.897 1.594-2.88 4.66-1.02 6.633-.243 5.304 2.151 6.989-1.146 9.41-5.767l24.128-45.316-47.676 40.899c-2.459 2.402-4.58 5.464-7.93 3.608-2.27-1.26-1.772-3.176-1.328-5.76l9.25-64.078-24.5 40.872c-3.282 5.404-6.211 10.681-.038 14.1 1.617.9 5.312 2.637 3.719 5.517-1.135 2.041-3.24 1.503-4.64.725-3.241-1.799-6.352-3.836-9.62-5.642-3.365-1.867-6.742-3.427-9.982-5.221-1.4-.778-2.565-1.734-1.503-3.658 1.336-2.398 4.314-.903 6.071-.247 5.15 1.916 6.914-2.288 9.596-6.606l28.917-47.053c3.21-5.282 5.262-7.437-.069-10.863-1.548-1.017-4.773-2.334-3.445-4.736 1.4-2.519 3.882-1.142 5.608-.182l20.144 11.163c2.27 1.26 1.564 2.28 1.23 4.918zm-453.41-15.811 27.944 39.908c4.645 6.633 6.128 9.615 13.292 6.276 1.472-.698 3.631-1.703 5.05.319 1.184 1.685.383 2.918-.933 3.836-5.263 3.68-10.636 6.777-15.898 10.461-4.857 3.4-9.399 7.247-14.256 10.65-1.419.995-2.743 1.253-3.923-.436-1.26-1.798-.137-3.422.922-4.496 5.813-5.915 4.17-7.611-.949-14.923l-27.949-39.913c-4.803-6.86-6.241-10.206-13.583-6.909-1.37.626-3.476 1.931-4.815.019-1.26-1.799-.486-2.842.933-3.836 5.263-3.684 10.635-6.777 15.894-10.461 4.857-3.404 9.403-7.251 14.153-10.582 1.42-.99 2.77-1.435 4.026.364 1.26 1.798-.201 3.157-1.256 4.234-6.01 6.06-3.927 7.957 1.347 15.489m75.787-23.46 41.23 22.447c1.965 1.073 6.343 3.62 8.48 4.17 1.574.497 3.266.045 4.788-.479 1.64-.576 2.933-.698 3.836 1.329 1.188 2.66-1.635 4.219-3.328 4.974-5.418 2.413-11.045 4.34-16.46 6.754-5.194 2.31-9.944 5-15.021 7.262-1.579.706-3.442.47-4.345-1.56-1.798-4.037 5.024-3.904 3.68-6.924-.777-1.75-3.699-3.15-5.106-3.874l-25.881-14.707c-.562-.353-3.707-2.25-4.387-1.95-1.127.505.494 3.529.828 3.98l7.577 17.014c3.286 7.384 4.174 10.586 11.838 8.674 1.582-.399 3.893-.975 4.906 1.305.846 1.901-.167 2.96-1.635 3.612-5.866 2.61-11.72 4.648-17.59 7.259-5.415 2.41-10.621 5.3-16.04 7.714-1.578.702-2.932.698-3.778-1.2-.904-2.026.508-3.41 1.749-4.272 6.833-4.693 5.547-6.67 1.927-14.801l-19.795-44.466c-3.407-7.65-4.181-11.212-12.016-9.376-1.469.353-3.783 1.233-4.732-.9-.892-2.003.068-2.883 1.647-3.585 5.87-2.61 11.736-4.621 17.605-7.236 5.415-2.413 10.61-5.323 15.91-7.683 1.582-.706 2.99-.88 3.882 1.123.891 2.007-.8 3.062-2.045 3.916-7.062 4.796-5.38 7.053-1.64 15.454l7.088 15.925c.057.425.778 2.66 1.681 2.254.334-.152.509-.676.68-.903.398-.93.74-1.985 1.084-3.036l2.675-7.353 6.049-19.822c.459-2.007 2.166-6.37 1.218-8.503-.782-1.757-2.759-1.028-4.053-.603-1.863.679-4.906 2.033-6.192-.85-.835-1.882.406-2.436 1.984-3.138l27.308-12.157c1.582-.706 3.165-1.711 4.113.421 1.397 3.138-2.72 4.819-4.64 5.673-6.997 3.115-8.928 7.28-11.55 14.76l-2.903 8.051c-.797 2.159-4.492 11.167-3.6 13.174.443 1.005 2.075 1.632 2.974 2.132M307.128 40.8l21.935-1.533c4.19-.292 4.075-.148 3.719-5.217l-.93-13.277c-.584-8.35-.091-11.963-8.082-12.92-1.499-.17-3.973-.136-4.136-2.462-.151-2.19 1.051-2.686 2.774-2.811 6.409-.448 12.608-.33 19.013-.778 5.916-.414 11.793-1.374 17.583-1.78 1.727-.121 3.112.198 3.26 2.383.155 2.193-1.803 2.603-3.256 2.982-8.28 2.091-7.471 4.789-6.83 13.964l3.4 48.605c.565 8.074.3 11.398 8.158 12.225 1.624.163 3.995.406 4.166 2.876.148 2.053-1.172 2.694-2.77 2.804-6.409.448-12.608.33-19.017.782-5.912.414-11.79 1.374-17.704 1.787-1.727.122-2.998-.341-3.138-2.394-.156-2.193 1.646-3.005 3.107-3.38 8.025-2.076 7.494-4.38 6.872-13.277l-1.465-20.949c-.383-3.688-.6-3.259-3.927-3.028l-21.931 1.533c-5.176.365-4.842-.212-4.451 5.403l1.34 19.17c.565 8.074.303 11.398 8.161 12.225 1.62.163 3.988.406 4.162 2.872.145 2.057-1.176 2.698-2.773 2.812-6.405.447-12.609.33-19.014.778-5.915.413-11.789 1.373-17.708 1.787-1.726.121-2.993-.342-3.141-2.395-.152-2.189 1.65-3.005 3.107-3.38 8.025-2.076 7.494-4.375 6.872-13.277l-3.4-48.601c-.584-8.352-.095-11.964-8.086-12.92-1.499-.17-3.972-.137-4.136-2.462-.155-2.19 1.051-2.687 2.778-2.808 6.408-.452 12.605-.33 19.013-.782 5.912-.41 11.79-1.373 17.583-1.78 1.727-.12 3.111.198 3.263 2.383.152 2.194-1.798 2.603-3.26 2.983-8.275 2.09-7.466 4.788-6.825 13.963l.93 13.28c.349 4.925.474 4.917 4.784 4.614m109.588-19.875-2.637 16.676c-.645 4.068-1.252 6.333 3.016 7.008 2.565.406 7.93 1.256 10.332 1.082 3.53-.137 5.46-2.888 6.997-6.253.763-1.685 2.053-4.265 4.246-3.916 1.95.307 2.178 2.015 1.882 3.912-.846 3.756-1.491 7.824-2.334 11.58-.599 3.795-1.001 7.9-1.354 11.732-.28 1.765-1.09 3.719-3.165 3.392-5.862-.93.475-13.265-12.456-15.313l-5.293-.558c-4.068-.364-4.121 1.57-4.705 5.228l-2.512 15.864c-.535 3.389-1.207 8.424.296 11.58 1.6 3.313 5.475 4.9 8.768 5.423 8.545 1.35 16.343-1.305 21.594-9.228 1.036-1.783 2.705-4.436 4.906-4.09 1.95.31 2.527 1.377 2.186 3.544-.194 1.221-1.484 4.629-1.943 5.95l-3.062 10.63c-.38 1.61-.748 2.38-2.334 2.133-9.034-1.43-17.97-3.403-27.004-4.83-11.71-1.855-23.506-3.168-35.215-5.024-1.711-.269-2.869-.865-2.542-2.902.341-2.167 2.295-2.69 3.81-2.732 8.529-.175 8.715-2.926 10.005-11.057l7.619-48.123c1.267-7.999 2.295-12.146-5.293-14.737-1.54-.524-3.757-1.568-3.578-2.653.341-2.17 1.734-3.062 3.437-2.789 7.323 1.161 14.309 2.823 21.632 3.98 12.688 2.008 25.464 3.48 38.27 5.506 2.69.425 1.71 2.634 1.327 5.073l-1.741 10.977c-.319 2.034-.296 4.261-3.104 3.817-1.829-.288-2.588-2.633-3.202-4.26-1.051-2.808-2.744-5.575-4.5-7.935-2.148-2.986-5.916-3.718-9.205-4.238-2.076-.326-8.784-1.392-10.814-.459-1.61.702-2.068 4.382-2.33 6.01m82.986 25.494-15.06 46.34c-2.497 7.7-3.988 10.678 2.986 14.389 1.446.755 3.544 1.874 2.778 4.223-.63 1.958-2.099 2.056-3.624 1.563-6.105-1.985-11.812-4.417-17.92-6.401-5.639-1.833-11.452-3.146-17.083-4.974-1.646-.535-2.652-1.439-2.014-3.4.683-2.087 2.652-2.167 4.143-1.97 8.226 1.082 8.59-1.252 11.345-9.736l15.06-46.336c2.587-7.964 4.394-11.129-2.652-15.007-1.329-.72-3.632-1.616-2.915-3.832.676-2.087 1.977-2.098 3.624-1.567 6.105 1.984 11.812 4.417 17.92 6.401 5.639 1.833 11.452 3.142 16.973 4.936 1.646.535 2.808 1.347 2.128 3.434-.675 2.091-2.637 1.738-4.135 1.545-8.454-1.158-8.716 1.646-11.554 10.392M392.144 913.74l-1.173-33.33c-.087-2.743-.25-7.266-1.328-9.702-1.468-3.244-3.972-4.12-6.826-4.436-2.105-.197-4.667.718-4.78-2.299-.095-2.884 2.618-2.975 4.47-3.043 3.706-.129 7.292.023 11-.11 3.577-.125 7.277-.527 10.855-.653 1.844-.064 3.468.293 3.551 2.622.11 3.29-4.113 2.474-6.204 2.827-5.775 1.024-4.803 7.581-4.617 12.931l2.269 65.02c.133 3.84.838 6.287-3.358 6.431-3.089.106-4.796-2.717-6.61-5.122l-51.121-65.923 1.582 45.266c.114 3.294.365 10.423 1.332 13.273 1.374 4.071 3.996 4.807 7.342 4.967 1.73.08 5.18-.319 5.286 2.701.083 2.33-1.875 2.949-3.605 3.01-3.95.136-7.672-.282-11.622-.145-3.946.137-7.88.827-11.706.96-1.73.06-3.358-.57-3.433-2.766-.107-3.02 2.993-2.853 4.959-3.058 2.713-.236 4.162-1.245 5.042-4.3 1.21-4.298.706-11.56.547-16.224l-1.491-42.652c-.186-5.35.087-11.542-6.098-11.74-1.98-.072-4.811.304-4.917-2.712-.088-2.467 2.383-2.558 4.109-2.615l21.73-.759c4.937-.17 4.576.114 7.813 4.265zm147.512-52.897-5.699-39.837c-.683-4.804-1.772-7.023 2.55-9.417 3.563-1.977 4.253-.475 7.418 2.166l54.574 45.972c1.646 1.438 4.245 3.59 6.082 4.607 2.424 1.316 3.802 1.502 6.025.424 1.905-.895 3.757-2.398 5.3.391 1.34 2.425-.747 3.738-2.26 4.576-4.535 2.516-9.122 4.443-13.444 6.838-5.403 2.993-10.324 6.34-15.511 9.216-1.51.839-3.593 1.67-4.876-.641-2.276-4.106 7.16-4.921 4.758-9.255-.861-1.551-2.504-2.99-3.6-3.95l-8.826-7.77c-3.73-3.408-3.267-3.35-7.16-1.192l-14.153 7.843c-3.779 2.098-3.585 1.677-2.766 6.23.823 3.768 1.742 8.739 3.67 12.21 4.727 8.534 12.555-2.58 15.556 2.846 1.207 2.178-.645 3.68-2.155 4.52-3.343 1.855-6.929 3.547-10.28 5.403-3.35 1.851-6.685 3.999-10.027 5.854-1.624.896-3.56 1.495-4.766-.69-1.142-2.057.349-3.199 1.616-4.22 2.8-2.34 3.749-3.175 3.578-7.311-.193-3.647-1.696-10.95-2.364-14.961zm1.783-24.056 3.84 23.764c.186.838.497 3.18.964 4.022.926 1.677 2.933-.065 3.904-.596l9.399-5.214c.755-.417 3.832-1.495 3.04-2.933-.335-.6-2.334-2.159-2.638-2.462zm-102.166 84.002-12.4-46.268c-1.817-6.757-2.697-11.493-9.36-9.14-1.75.61-4.166 2.113-4.982-.937-1.64-6.098 30.347-16.092 35.594-17.496 11.46-3.074 22.565-4.056 34.32.182 12.332 4.511 21.87 14.316 25.559 28.105 7.323 27.311-11.983 50.244-34.536 56.288-10.021 2.683-20.186 4.838-30.207 7.525-2.147.573-4.394 1.741-6.663 2.348-1.548.414-3.077-.026-3.646-2.147-.562-2.121 1.195-2.736 2.63-3.548 7.118-4.033 6.07-6.025 3.691-14.912m6.367-54.99 12.465 46.533c2.379 8.886 4.003 16.839 13.902 14.183 7.877-2.113 13.732-9.368 16.11-17.674 2.528-8.207 1.663-18.634-.614-27.114-4.728-17.629-18.482-34.123-36.141-29.395-8.59 2.303-8.135 4.455-5.722 13.466M176.61 917.07c-9.572-3.673-20.022-11.945-25.076-21.533-5.615-10.533-5.669-24.523-1.195-36.183 4.333-11.276 12.794-20.227 23.058-25.255 11.136-5.574 22.349-5.828 33.303-1.624 21.908 8.412 36.668 32.017 26.636 58.152-9.543 24.857-35.162 34.726-56.725 26.443m3.15-4.079c14.878 5.71 27.44-13.576 32.46-26.644 5.851-15.253 9.134-43.096-7.933-49.649-14.76-5.668-27.392 13.448-32.408 26.515-3.346 8.716-5.171 18.3-4.598 27.494.69 9.232 3.95 19.01 12.48 22.284m447.105-76.65-31.406-37.427c-5.38-6.412-7.107-9.626-14.134-5.702-1.312.743-3.297 2.23-4.796.44-1.407-1.681-.724-2.79.592-3.9 4.922-4.133 10.006-7.68 14.927-11.809 4.542-3.81 8.738-8.044 13.185-11.774 1.32-1.111 2.63-1.67 4.038.012 1.407 1.68.075 3.164-.88 4.325-5.468 6.557-3.233 8.264 2.682 15.307l31.406 37.427c4.674 5.578 8.87 9.038 15.69 3.324 13.716-11.516 3.14-24.5 6.928-27.676 1.51-1.271 2.595-.562 3.824.91 3.438 4.098 5.832 9.437 9.08 13.884 2.277 3.104.615 3.237-1.65 5.141-7.19 6.04-14.734 11.649-21.928 17.682-7.38 6.196-14.6 12.965-21.98 19.161-1.32 1.112-2.448 1.696-3.764.118-1.416-1.681-.615-3.605.349-4.773 5.27-6.394 3.574-7.84-2.163-14.67m-540.24-7.421 43.79-28.746c1.81-1.23 3.623-3.305 5.524-1.927l19.287 14.008c1.499 1.093 2.656 2.44 1.203 4.44-1.617 2.22-3.97 0-5.551-.98-5.04-3.152-7.763 1.651-10.814 6.06l-29.072 42.326c-1.43 2.182-3.996 5.92-4.648 8.5-.573 2.462.485 3.74 2.102 5.088 1.316 1.13 3.817 2.94 2.204 5.16-1.612 2.223-3.813.622-5.213-.391-4.997-3.635-9.47-7.562-14.468-11.19-4.2-3.05-8.72-5.653-13.015-8.776-1.297-.945-2.819-2.216-1.445-4.101 1.935-2.668 4.754-.452 6.613.561 5.001 2.781 7.08-.284 10.044-4.58l29.474-42.037-52.297 34.783c-2.736 2.083-5.213 4.864-8.31 2.61-2.098-1.521-1.37-3.37-.618-5.877l16.987-62.47-29.3 37.579c-3.912 4.963-7.463 9.846-1.756 13.993 1.498 1.09 4.959 3.26 3.02 5.927-1.37 1.89-3.392 1.1-4.69.156-2.997-2.174-5.836-4.58-8.852-6.773-3.119-2.265-6.28-4.22-9.277-6.401-1.298-.941-2.337-2.034-1.044-3.813 1.613-2.224 4.39-.376 6.052.497 4.884 2.527 7.145-1.43 10.332-5.392l34.438-43.176c3.832-4.849 6.131-6.742 1.26-10.79-1.42-1.204-4.459-2.904-2.846-5.123 1.696-2.334 3.991-.668 5.592.5l18.627 13.531c2.098 1.522 1.275 2.451.622 5.031zm112.847-6.572c-3.802-1.46-6.15-6.037-4.478-10.389 1.674-4.355 6.492-5.888 10.184-4.473 3.46 1.332 6.185 5.608 4.61 9.71-1.771 4.61-6.28 6.704-10.316 5.152m21.567 8.283c-3.806-1.46-5.874-6.078-4.2-10.434 1.525-3.973 6.21-5.847 9.671-4.515 3.692 1.419 6.743 5.524 4.97 10.142-1.764 4.606-6.404 6.355-10.441 4.807m33.101 89.121 7.646-48.26c1.309-8.271 2.6-11.679-4.97-14.407-1.423-.504-3.844-1.024-3.48-3.331.341-2.167 1.628-2.383 3.335-2.114 6.344 1.01 12.358 2.512 18.706 3.522 5.851.925 11.793 1.312 17.526 2.22 1.711.269 2.99.887 2.645 3.061-.342 2.167-2.337 2.133-3.844 2.167-8.533.178-8.351 2.986-9.79 12.073l-7.645 48.257c-1.138 7.186-1.001 12.627 7.786 14.016 17.693 2.804 20.554-13.698 25.434-12.924 1.954.308 2.124 1.587 1.82 3.487-.838 5.286-3.304 10.59-4.526 15.956-.842 3.756-2.037 2.599-4.966 2.136-9.27-1.472-18.46-3.483-27.73-4.952-9.516-1.506-19.362-2.512-28.878-4.018-1.708-.273-2.884-.736-2.561-2.77.341-2.166 2.326-2.823 3.832-2.865 8.29-.216 8.268-2.447 9.66-11.254M242.22 332.398l64.993-12.18-53.914 110.821 96.258-36.566 96.255 36.566-53.914-110.82 64.993 12.179 66.318 128.958-69.566 143.596-66.992 12.726 57.203-128.696-94.297-38.106-94.296 38.106 57.207 128.696-67-12.726L175.9 461.356zM128.256 472.667c0-122.223 99.077-221.3 221.304-221.3 122.22 0 221.304 99.077 221.304 221.3S471.784 693.97 349.56 693.97c-122.227 0-221.304-99.078-221.304-221.304m221.3-207.266-10.665.27-10.53.8-10.373 1.317-10.207 1.821-10.025 2.315-9.835 2.793-9.63 3.259-9.413 3.71-9.179 4.152-8.936 4.576-8.677 4.99-8.412 5.387-8.128 5.779-7.831 6.154-7.52 6.515-7.198 6.86-6.864 7.202-6.515 7.52-6.155 7.832-5.778 8.127-5.388 8.409-4.99 8.68-4.58 8.937-4.15 9.178-3.711 9.41-3.26 9.63-2.792 9.835-2.315 10.025-1.821 10.206-1.32 10.37-.801 10.53-.27 10.665.27 10.666.8 10.53 1.32 10.37 1.822 10.206 2.315 10.025 2.792 9.835 3.26 9.63 3.71 9.41 4.151 9.178 4.58 8.936 4.99 8.681 5.388 8.408 5.778 8.128 6.155 7.835 6.515 7.517 6.864 7.201 7.197 6.86 7.52 6.52 7.832 6.15 8.128 5.778 8.412 5.392 8.677 4.99 8.936 4.576 9.179 4.15 9.413 3.712 9.63 3.259 9.835 2.789 10.025 2.314 10.207 1.822 10.373 1.316 10.53.805 10.665.269 10.666-.27 10.53-.804 10.366-1.316 10.21-1.822 10.021-2.314 9.842-2.79 9.627-3.258 9.41-3.711 9.174-4.151 8.947-4.576 8.678-4.99 8.412-5.392 8.124-5.778 7.831-6.15 7.524-6.52 7.198-6.86 6.86-7.201 6.515-7.517 6.158-7.835 5.78-8.128 5.387-8.408 4.986-8.681 4.58-8.936 4.15-9.178 3.711-9.41 3.252-9.63 2.793-9.835 2.318-10.025 1.818-10.207 1.32-10.37.8-10.529.274-10.666-.273-10.666-.801-10.529-1.32-10.37-1.818-10.206-2.318-10.025-2.793-9.835-3.252-9.63-3.71-9.41-4.151-9.178-4.58-8.936-4.986-8.681-5.388-8.409-5.779-8.127-6.158-7.832-6.515-7.52-6.86-7.202-7.198-6.86-7.524-6.515-7.831-6.154-8.124-5.779-8.412-5.388-8.678-4.99-8.947-4.575-9.174-4.151-9.41-3.711-9.627-3.26-9.842-2.792-10.02-2.315-10.211-1.82-10.367-1.318-10.529-.8zm-101.304-41.764c25.418-1.56 35.833 4.523 57.514 14.995-13.887 3.252-25.543 6.049-38.133 12.647-23.89 12.514-46.147 6.557-68.958-3.89-10.161 9.115-21.195 17.857-30.127 23.647 20.577-4.44 31.804.28 51.223 9.076-8.507 4.815-17.063 9.531-24.856 15.473-12.157 9.27-15.667 15.595-33.007 17.906-12.87 1.719-20.804.812-30.453-2.136-8.409 14.445-17.853 28.503-27.635 39.794 12.313-7.034 26.22-9.793 44.626-12.574-8.31 11.228-15.827 22.216-22.497 34.52-12.411 22.903-22.622 28.22-39.158 45.203-6.234 6.408-13.454 22.06-17.082 37.84-1.893 8.242-2.223 19.64-2.197 27.251l.148.54c.57-5.643 1.522-10.758 2.918-15.072 8.792-27.258 22.448-38.03 42.083-56.87.452 43.4.539 60.452-19.624 96.893-5.415 9.785-12.305 19.518-11.2 33.101 1.388 17.113 7.463 35.132 12.107 46.823-.786-4.246-1.359-8.667-1.75-13.288-2.31-27.308 10.42-50.613 19.792-75.45 7.399 23.9 16.638 46.575 16.653 72.005.008 18.243-7.399 41.536 3.688 63.9 6.075 12.252 20.949 25.323 28.109 31.17-4.853-14.236-6.982-29.455-11.55-43.813l-5.206-16.365c30.521 25.27 48.108 40.702 63.122 76.752 3.468 8.328 13.963 25.327 40.934 34.46-13.747-12.411-20.312-25.927-31.095-46.72 14.95 8.534 28.624 16.058 45.194 21.085 29.907 9.069 47.555 23.677 67.517 45.229 2.823-12.457 9.595-23.168 20.212-23.168 10.613 0 17.39 10.711 20.212 23.168 19.966-21.552 37.61-36.16 67.513-45.229 16.57-5.027 30.244-12.551 45.198-21.085-10.784 20.79-17.348 34.309-31.095 46.72 26.967-9.133 37.462-26.132 40.93-34.46 15.014-36.05 32.6-51.478 63.126-76.752l-5.21 16.365c-4.564 14.358-6.693 29.577-11.546 43.813 7.16-5.847 22.034-18.918 28.109-31.17 11.087-22.364 3.676-45.657 3.684-63.9.015-25.426 9.258-48.105 16.653-72.005 9.376 24.837 22.106 48.142 19.795 75.45-.39 4.621-.971 9.042-1.749 13.288 4.64-11.69 10.715-29.71 12.108-46.823 1.096-13.583-5.787-23.316-11.205-33.101-20.16-36.441-20.068-53.493-19.624-96.892 19.64 18.839 33.295 29.61 42.087 56.87 1.392 4.317 2.34 9.428 2.914 15.07l.148-.539c.03-7.611-.304-19.01-2.193-27.25-3.624-15.781-10.845-31.436-17.083-37.841-16.531-16.987-26.746-22.303-39.157-45.202-6.67-12.301-14.183-23.293-22.493-34.52 18.41 2.78 32.313 5.539 44.621 12.573-9.774-11.291-19.222-25.35-27.626-39.794-9.657 2.944-17.587 3.855-30.457 2.136-17.333-2.311-20.846-8.636-33.007-17.906-7.79-5.942-16.35-10.658-24.857-15.473 19.416-8.799 30.643-13.515 51.224-9.076-8.932-5.786-19.966-14.528-30.123-23.646-22.82 10.446-45.073 16.403-68.966 3.889-12.59-6.595-24.242-9.395-38.13-12.647 21.678-10.472 32.097-16.554 57.515-14.995 14.836.907 24.44 3.616 33.994 8.69a154 154 0 0 1-5.794-6.443c-2.357-2.786-4.277-5.286-5.9-7.62l-7.062-.36c-31.69-1.628-50.54 10.09-80.242-10.689-8.925-6.241-17.936-11.212-27.577-16.232 22.557-8.302 33.473-12.548 58.36-8.72 23.635 3.632 35.61 10.834 49.35 23.461l-1.06-2.257c-6.662-14.286-14.786-27.21-23.365-40.391 34.764 11.129 66.143 25.308 78.827 62.364 4.01 11.709 14.142 24.575 22.899 36.645-9.05-23.157-8.826-37.124-9.099-64.003l9.16 11.672c14.532 18.512 32.176 28.98 39.271 52.862 6.01 20.232 7.501 31.497 17.97 59.94l8.249 23.51c-.156-5.98.512-12.215 2.269-18.828 2.94-11.084 5.297-22.106 7.418-33.375 19.283 23.684 39.575 44.754 37.374 78.239-1.423 21.665-7.13 30.965-18.023 46.84 2.667 15.595 2.899 31.805.8 44.937 6.515-15.219 19.204-26.754 27.384-41.165l1.237 8.94c5.202 23.107 9.012 35.298.24 55.784-10.303 24.033-19.477 32.38-38.62 48.56-2.193 13.792-5.35 26.947-8.95 37.222 8.093-9.744 16.91-18.858 26.662-27.02 10.814-9.052 16.297-29.124 25.054-40.075-1.275 30.233-3.847 63.885-20.193 86.742-9.695 13.561-25.999 17.526-39.863 26.105-4.254 2.633-27.748 19.879-42.508 30.935 8.203-3.908 17.143-7.148 27.11-9.637 16.84-4.197 29.072-10.54 45.51-16.141-22.649 34.828-42.05 64.693-85.597 70.13-16.919 2.114-30.75 5.775-46.302 10.746a74 74 0 0 1-5.304 2.838c23.854-2.345 37.594 2.592 61.635 1.537 6.188-.273 15.875-.983 15.875-.983-36.365 23.813-67.877 36.327-107.05 31.216-24.01-3.127-39.722-1.248-52.342.77 6.188.634 12.324 1.856 18.364 3.848 17.955 5.915 23.567 12.449 39.989 15.936 7.346 1.555 19.066 2.557 19.066 2.557-26.917 6.701-57.715 24.758-86.795 18.35-23.794-5.248-29.383-7.4-42.679-20.699-2.12 14.237-9.182 27.612-21.04 27.612-11.86 0-18.925-13.375-21.042-27.612-13.296 13.3-18.885 15.451-42.683 20.699-29.076 6.408-59.878-11.649-86.791-18.35 0 0 11.724-1.002 19.066-2.557 16.426-3.487 22.034-10.025 39.989-15.936 6.04-1.989 12.18-3.214 18.364-3.848-12.616-2.018-28.328-3.897-52.339-.77-39.172 5.11-70.688-7.403-107.05-31.216 0 0 9.68.706 15.876.983 24.034 1.05 37.773-3.882 61.632-1.537a75 75 0 0 1-5.305-2.838c-15.557-4.975-29.383-8.632-46.302-10.746-43.544-5.44-62.944-35.306-85.596-70.13 16.44 5.6 28.673 11.944 45.513 16.14 9.963 2.49 18.903 5.73 27.106 9.638-14.76-11.056-38.254-28.302-42.511-30.935-13.861-8.579-30.165-12.544-39.86-26.105-16.346-22.857-18.922-56.513-20.19-86.742 8.754 10.95 14.237 31.023 25.058 40.076 9.748 8.161 18.566 17.275 26.66 27.02-3.605-10.276-6.758-23.43-8.948-37.223-19.146-16.18-28.32-24.527-38.615-48.56-8.776-20.486-4.966-32.677.232-55.784l1.24-8.94c8.181 14.411 20.87 25.942 27.38 41.165-2.094-13.128-1.863-29.338.805-44.936-10.894-15.876-16.6-25.176-18.027-46.841-2.2-33.485 18.091-54.555 37.378-78.24 2.117 11.27 4.477 22.289 7.414 33.376 1.757 6.613 2.425 12.847 2.265 18.827l8.253-23.51c10.465-28.442 11.96-39.711 17.966-59.939 7.095-23.881 24.743-34.35 39.271-52.862l9.16-11.672c-.27 26.883-.053 40.846-9.099 64.003 8.765-12.07 18.888-24.936 22.899-36.645 12.688-37.052 44.067-51.235 78.827-62.364-8.579 13.181-16.699 26.101-23.365 40.39l-1.063 2.258c13.74-12.623 25.722-19.829 49.353-23.46 24.883-3.829 35.8.417 58.36 8.72-9.645 5.02-18.656 9.99-27.577 16.231-29.702 20.778-48.56 9.061-80.242 10.689l-7.061.36c-1.628 2.334-3.548 4.838-5.904 7.62-1.73 2.052-3.68 4.211-5.794 6.442 9.524-5.073 19.127-7.782 33.967-8.689m166.855-31.405c-12.62-1.94-21.521-1.822-31.986.88 3.335 2.14 5.98 4.064 8.514 5.836 22.603 15.818 37.071 9.698 61.526 8.78-11.02-8.754-21.92-13.015-38.054-15.496m-166.24 41.472c-14.154.865-23.552 3.433-34.188 9.838 15.504 5.912 33.413 6.583 48.272-1.199 3.066-1.608 6.352-3.377 10.525-5.141l2.25-.91c-8.343-2.607-16.145-3.245-26.86-2.588m35.139-41.472c-16.134 2.481-27.031 6.738-38.05 15.496 24.454.918 38.915 7.038 61.521-8.78 2.531-1.772 5.18-3.7 8.515-5.836-10.465-2.702-19.37-2.82-31.986-.88M80.174 471.95c-5.763 17.86-6.89 32.05-3.123 47.478 5.688-16.725 17.788-29.987 21.256-47.725 2.759-14.13 3.98-23.741 4.31-35.921-11.265 11.463-17.218 19.973-22.443 36.168m-44.997-27.703c.414 15.12-.766 24.185 5.677 39.218 5.941 13.876 11.458 22.516 20.773 31.634.038-22.728-6.7-46.743-21.286-64.455-1.612-1.957-3.32-4.006-5.164-6.397m43.077-114.425c-.888-3.355-2.037-7.164-3.377-12.913-13.064 16.468-23.08 32.025-21.6 54.529.762 11.61 2.727 19.506 7.459 28.173 10.54-22.998 24.72-42.649 17.518-69.79m7.244 52.441c-10.21 14.104-15.151 26.86-15.534 41.578 8.286-14.51 23.05-23.582 34.008-35.864 9.315-10.438 14.559-23.426 21.943-35.139-17.018 4.63-28.826 13.42-40.417 29.425m40.66-116.778c-4.713 15.868-6.686 26.276-12.283 43.582 21.036-19.283 37.473-53.053 40.125-81.601-12.316 13.534-22.052 18.539-27.842 38.019m62.636 22.08a136 136 0 0 1 8.458-5.947c-19.681-6.017-43.794 1.021-58.118 15.925l-2.63 4.868c13.77 3.688 30.932 2.675 42.209-6.59 2.8-2.304 5.862-5.043 10.081-8.257m23.552-68.193c9.66-11.424 14.126-24.598 21.358-37.385-20 8.78-38.285 25.813-45.448 46.72-1.879 5.486-3.723 11.595-6.955 19.324 11.675-7.77 20.166-15.796 31.045-28.659M92.79 610.397l1.328.831c-13.405-21.108-22.656-32.567-48.1-57.287-4.622-4.488-5.631-9.478-9.452-13.542 3.415 29.228 17.014 48.803 40.869 61.366 4.466 2.349 9.436 4.97 15.355 8.632m505.875 39.666c-24.412 6.09-47.607 19.814-65.444 37.492 7.16-1.533 14.415-2.398 21.67-3.301 26.233-3.275 49.963-18.972 66.036-39.735-8.564 2.383-15.606 3.882-22.262 5.544m-74.277 25.126c6.405-12.343 8.123-25 11.451-38.22-6.834 6.564-12.362 13.048-19.507 22.5-9.5 12.59-13.511 27.509-20.626 41.301 12.764-5.338 21.791-12.286 28.682-25.581m-47.828 54.468c27.471 4.318 44.97 4.712 71.402-9.809-16.972-.588-24.398-3.775-42.702-1.939-19.157 1.924-32.748 4.42-47.539 9.236 6.773.645 13.003 1.597 18.84 2.512m-51.151-5.316c14.524-8.5 23.722-16.377 31.762-28.018-6.352 2.637-11.827 4.303-16.957 5.859-22.728 6.894-40.975 19.051-57.723 36.308 15.697-1.032 27.399-5.062 42.918-14.15m-9.96 46.89c19.688 4.337 32.236-.983 49.979-6.985-7.502-2.053-12.666-4.193-17.2-6.193-22.61-9.94-47.376-10.176-71.648-5.911 11.367 10.301 22.052 15.382 38.869 19.09m-65.893-46.553c-4.037 0-11.633 8.674-11.633 26.618s7.6 26.617 11.633 26.617c4.034 0 11.63-8.674 11.63-26.617s-7.596-26.618-11.63-26.618m-65.896 46.553c16.82-3.71 27.502-8.788 38.873-19.085-24.268-4.265-49.038-4.034-71.644 5.911-4.538 1.996-9.706 4.14-17.204 6.192 17.739 6.003 30.29 11.323 49.975 6.982m-9.956-46.89c15.519 9.087 27.217 13.117 42.918 14.149-16.749-17.257-35-29.414-57.72-36.308-5.133-1.556-10.601-3.222-16.957-5.859 8.037 11.641 17.238 19.518 31.759 28.018m-51.148 5.316c5.828-.915 12.063-1.867 18.843-2.512-14.798-4.811-28.39-7.312-47.547-9.236-18.296-1.836-25.73 1.347-42.701 1.94 26.439 14.524 43.93 14.126 71.405 9.808m-47.83-54.468c6.893 13.295 15.92 20.243 28.68 25.578-7.114-13.793-11.125-28.708-20.626-41.302-7.137-9.451-12.665-15.932-19.502-22.5 3.327 13.223 5.042 25.881 11.447 38.224m-74.279-25.126c-6.655-1.662-13.693-3.16-22.257-5.544 16.069 20.763 39.798 36.456 66.032 39.735 7.255.903 14.514 1.768 21.666 3.3-17.837-17.68-41.028-31.401-65.44-37.491m1.795-75.401c1.518 17.966 5.616 30.795 14.48 43.233-.786-15.303 1.832-30.526 1.824-45.82-.007-15.717-2.743-26.986-7.486-41.473-6.61 16.532-10.404 25.308-8.818 44.06m504.08 35.735c5.92-3.661 10.894-6.28 15.356-8.632 23.855-12.563 37.461-32.138 40.876-61.366-3.824 4.064-4.837 9.057-9.455 13.542-25.449 24.72-34.7 36.175-48.105 57.287zm-9.447-35.735c1.586-18.748-2.209-27.528-8.818-44.06-4.743 14.483-7.48 25.756-7.487 41.472-.007 15.295 2.61 30.518 1.822 45.82 8.863-12.437 12.961-25.266 14.483-43.232m22.067-102.712c-5.224-16.195-11.182-24.71-22.447-36.168.334 12.18 1.556 21.79 4.314 35.92 3.46 17.74 15.565 31 21.249 47.726 3.771-15.424 2.644-29.619-3.116-47.478m44.99-27.703c-1.844 2.39-3.552 4.44-5.157 6.397-14.593 17.709-21.328 41.727-21.29 64.455 9.315-9.118 14.828-17.758 20.774-31.634 6.447-15.033 5.26-24.097 5.673-39.218m-50.317-61.984c-11.592-16.008-23.396-24.8-40.417-29.425 7.387 11.71 12.627 24.701 21.943 35.14 10.961 12.281 25.721 21.354 34.008 35.863-.38-14.718-5.323-27.474-15.534-41.578m7.24-52.441c-7.198 27.137 6.981 46.791 17.526 69.792 4.727-8.67 6.693-16.562 7.456-28.172 1.483-22.505-8.538-38.061-21.602-54.529-1.343 5.745-2.492 9.558-3.38 12.909m-110.533-42.258c4.216 3.218 7.278 5.953 10.078 8.257 11.28 9.262 28.435 10.278 42.212 6.59l-2.63-4.868c-14.323-14.904-38.44-21.942-58.114-15.925a137 137 0 0 1 8.454 5.946m62.63-22.08c-5.787-19.48-15.52-24.484-27.843-38.018 2.652 28.552 19.089 62.318 40.128 81.6-5.593-17.302-7.573-27.713-12.286-43.581m-86.189-46.112c10.878 12.863 19.37 20.888 31.045 28.659-3.232-7.729-5.077-13.838-6.958-19.325-7.16-20.906-25.441-37.939-45.445-46.72 7.232 12.788 11.702 25.962 21.358 37.386m-36.52 14.332c-10.708-.657-18.513-.02-26.857 2.591l2.254.91c4.174 1.761 7.456 3.533 10.522 5.142 14.859 7.782 32.772 7.11 48.275 1.2-10.643-6.41-20.038-8.978-34.194-9.843M0 472.667C0 279.61 156.5 123.114 349.556 123.114c193.052 0 349.557 156.497 349.557 349.553S542.612 822.223 349.556 822.223C156.501 822.227 0 665.726 0 472.667"/></g></svg>