<svg xmlns="http://www.w3.org/2000/svg" xml:space="preserve" viewBox="0 0 612 792"><path d="M249.036 175.206c8.602-6.802 17.14-14.351 25.594-22.681 8.29-8.168 16.451-17.039 24.458-26.64l6.997-8.389L309 114l2.915 3.496 6.997 8.389c8.008 9.601 16.167 18.472 24.457 26.64 8.454 8.33 16.993 15.879 25.595 22.682 8.719 6.895 17.568 13.072 26.522 18.563 9.133 5.6 18.326 10.456 27.559 14.604l7.275 3.269 3.031 1.363-.935 3.174-2.241 7.618a40 40 0 0 0-.95 3.938 41 41 0 0 0-.542 4.016c-.376 4.363.022 8.603 1.155 12.594a34 34 0 0 0 5.57 11.188c2.741 3.646 6.299 6.939 10.627 9.744 4.229 2.74 9.198 5.007 14.865 6.676a71 71 0 0 0 7.332 1.736q3.678.672 8.015 1.049l8.071.698 3.363.291.103 3.398.246 8.156c.235 7.806 1.196 15.401 2.692 22.7 1.653 8.064 3.972 15.777 6.701 23.023a172 172 0 0 0 10.693 23.005c4.621 8.289 9.448 15.369 13.82 20.982 1.025 1.317 2.61 3.128 4.525 5.21a265 265 0 0 0 6.977 7.265 282 282 0 0 0 7.503 7.275c2.205 2.054 4.167 3.793 5.631 4.966 3.145 2.521 5.497 5.071 7.178 7.653 1.78 2.733 2.801 5.482 3.196 8.253.497 3.471.067 6.596-1.085 9.464-1.114 2.771-2.881 5.222-5.116 7.462-1.9 1.903-4.211 3.626-6.785 5.121-2.611 1.516-5.511 2.814-8.542 3.849a58 58 0 0 1-8.887 2.259c-2.996.515-6.007.793-8.891.793-6.393 0-12.274-.661-17.84-1.748a111 111 0 0 1-9.292-2.258c.806 3.86 1.473 7.913 1.982 12.097.776 6.363 1.19 13.121 1.185 20.059-.011 11.061-1.082 22.513-3.459 33.445-2.175 9.993-5.443 19.612-9.996 28.191-10.048 18.937-23.938 33.642-39.806 46.265-15.703 12.492-33.261 22.883-50.929 33.34-13.01 7.699-26.085 15.438-38.215 23.978-12.026 8.466-23.164 17.745-32.462 28.609l-6.925 8.092L309 680l-2.886-3.371-6.925-8.092c-9.298-10.864-20.437-20.143-32.462-28.609-12.129-8.54-25.205-16.278-38.214-23.977-17.669-10.458-35.227-20.849-50.93-33.341-15.868-12.622-29.758-27.328-39.805-46.265-4.552-8.579-7.821-18.198-9.995-28.19-2.378-10.933-3.45-22.385-3.46-33.446-.006-6.938.408-13.695 1.184-20.059.51-4.184 1.176-8.235 1.982-12.096a110 110 0 0 1-9.292 2.257c-5.565 1.087-11.448 1.748-17.84 1.748-2.883 0-5.895-.278-8.89-.793a58 58 0 0 1-8.888-2.259c-3.03-1.034-5.931-2.333-8.541-3.849-2.575-1.495-4.885-3.218-6.786-5.121-2.236-2.24-4.003-4.691-5.116-7.462-1.153-2.868-1.582-5.993-1.085-9.464.396-2.771 1.417-5.521 3.196-8.253 1.681-2.582 4.034-5.133 7.178-7.653 1.462-1.173 3.423-2.911 5.629-4.965a282 282 0 0 0 7.504-7.275 266 266 0 0 0 6.98-7.269c1.914-2.079 3.497-3.891 4.522-5.206 4.372-5.613 9.199-12.693 13.819-20.981a171.5 171.5 0 0 0 10.694-23.007c2.729-7.246 5.047-14.959 6.701-23.022 1.497-7.299 2.456-14.894 2.692-22.7l.246-8.156.102-3.398 3.363-.291 8.071-.698a86 86 0 0 0 8.015-1.049 71 71 0 0 0 7.331-1.736c5.668-1.668 10.637-3.936 14.866-6.675 4.329-2.804 7.886-6.098 10.627-9.744a34 34 0 0 0 5.571-11.188c1.132-3.991 1.531-8.23 1.154-12.594a40 40 0 0 0-.543-4.017 41 41 0 0 0-.948-3.938l-2.242-7.618-.935-3.174 3.032-1.363 7.276-3.269c9.231-4.148 18.425-9.004 27.558-14.604 8.958-5.491 17.807-11.667 26.526-18.562" style="fill:#1b75bc"/><path d="M251.386 178.18c17.297-13.679 34.223-30.214 50.617-49.871l6.997-8.39 6.996 8.39c16.395 19.657 33.32 36.192 50.617 49.871 17.936 14.183 36.289 25.303 54.884 33.658l7.276 3.27-2.243 7.619a44.4 44.4 0 0 0-1.639 8.698c-.834 9.645 1.789 18.811 7.483 26.385 5.916 7.869 15.194 14.178 27.456 17.788 4.837 1.424 10.206 2.425 16.09 2.933l8.071.698.246 8.156c.512 16.938 4.317 32.845 9.632 46.958 7.111 18.886 16.866 34.44 25.079 44.983 2.337 3.001 6.932 7.926 11.8 12.817 5.053 5.079 10.276 9.983 13.445 12.524 5.653 4.531 8.35 9.002 8.991 13.482.794 5.549-1.344 9.919-5.131 13.713-3.376 3.383-8.364 6.173-13.854 8.048-5.233 1.786-11.118 2.843-16.558 2.843-12.284 0-22.559-2.532-32.359-5.794 2.913 10.932 4.614 24.111 4.601 37.751-.02 20.517-3.804 42.488-13.023 59.867-19.527 36.803-54.195 57.321-89.308 78.102-26.146 15.475-52.556 31.104-71.628 53.391L309 674.16l-6.925-8.092c-19.072-22.286-45.481-37.915-71.628-53.39-35.113-20.78-69.781-41.299-89.308-78.102-9.221-17.379-13.004-39.351-13.024-59.867-.013-13.64 1.689-26.819 4.601-37.751-9.8 3.262-20.075 5.794-32.359 5.794-5.439 0-11.325-1.057-16.558-2.843-5.491-1.875-10.478-4.665-13.854-8.048-3.787-3.794-5.925-8.164-5.131-13.713.642-4.48 3.338-8.951 8.991-13.482 3.17-2.541 8.392-7.445 13.446-12.523 4.868-4.892 9.463-9.817 11.8-12.818 8.214-10.543 17.968-26.097 25.08-44.983 5.314-14.113 9.12-30.021 9.631-46.958l.246-8.156 8.071-.698c5.885-.508 11.253-1.509 16.09-2.933 12.261-3.609 21.54-9.919 27.455-17.788 5.695-7.575 8.317-16.739 7.484-26.385a44.2 44.2 0 0 0-1.639-8.698l-2.243-7.619 7.276-3.27c18.595-8.354 36.949-19.474 54.884-33.657" style="fill:#a6956a"/><path d="M308.999 134.128c-34.344 41.18-71.072 69.083-108.784 86.028 9.533 32.38-12.638 63.614-57.35 67.477-1.271 42.105-21.435 77.78-36.638 97.296-5.288 6.789-20.021 21.478-26.709 26.84-7.324 5.872-6.762 10.008-3.11 13.666 4.746 4.753 15.081 8.179 23.951 8.179 18.795 0 33.086-6.794 48.744-12.219-13.108 18.029-18.404 74.047.105 108.933 32.73 61.688 114.247 76.594 159.792 129.814 45.547-53.221 127.064-68.127 159.794-129.814 18.511-34.886 13.213-90.903.105-108.933 15.657 5.425 29.948 12.219 48.744 12.219 8.87 0 19.206-3.426 23.95-8.179 3.652-3.658 4.215-7.794-3.109-13.666-6.688-5.361-21.422-20.051-26.71-26.84-15.203-19.517-35.368-55.191-36.637-97.296-44.714-3.863-66.885-35.097-57.353-67.477-37.711-16.945-74.44-44.848-108.785-86.028" style="fill:#1b75bc"/><path d="M536.488 420.358c.108.225.184.448.14.146l-.002-.008zM81.373 420.496l-.001.008c-.043.303.032.079.14-.146z" style="fill:#40b659"/><path d="M310.692 264.866c18.927 0 37.02 3.755 53.559 10.561a140.6 140.6 0 0 1 45.517 30.224c12.939 12.841 23.364 28.175 30.476 45.21 6.856 16.419 10.64 34.401 10.64 53.236s-3.783 36.816-10.64 53.236c-7.111 17.034-17.537 32.368-30.476 45.209a140.6 140.6 0 0 1-45.517 30.225c-16.539 6.805-34.632 10.561-53.559 10.561-18.925 0-37.018-3.756-53.558-10.561a140.6 140.6 0 0 1-45.516-30.225c-12.939-12.841-23.364-28.175-30.476-45.209-6.856-16.42-10.64-34.402-10.64-53.236 0-18.835 3.784-36.816 10.64-53.236 7.112-17.034 17.536-32.368 30.476-45.21a140.6 140.6 0 0 1 45.516-30.224c16.54-6.806 34.633-10.561 53.558-10.561" style="fill:#a6956a"/><path d="M310.692 271.262c36.915 0 70.356 14.872 94.577 38.911 24.228 24.046 39.216 57.255 39.216 93.922s-14.987 69.877-39.216 93.923c-24.221 24.039-57.662 38.911-94.577 38.911s-70.355-14.872-94.577-38.911c-24.228-24.046-39.216-57.256-39.216-93.923s14.988-69.876 39.216-93.922c24.222-24.039 57.663-38.911 94.577-38.911" style="fill:#1b75bc"/><ellipse cx="310.693" cy="404.096" rx="127.701" ry="126.741" style="fill:#fff"/><path d="M237.986 322.551c-.03-2.879-.531-6.95-1.03-8.58-13.455 9.832-24.592 21.566-33.542 35.667 5.481 1.362 12.883 8.104 13.544 17.463 2.167 30.693.028 61.54-.178 92.309-.031 4.688-1.304 8.448-4.633 13.009 10.02 14.03 20.512 24.439 31.007 30.406-3.182-6.489-3.542-21.442-3.653-32.328zM405.212 414.189c-10.288-17.736-23.26-34.215-32.658-50.049-6.024-10.149-14.584-25.362-7.117-33.716 8.704-9.738 16.237-2.887 25.935 4.686 4.159 3.247 13.692 11.095 20.718 42.328 1.565-13.218 3.658-25.696 6.414-37.244-7.468 1.387-11.896-4.212-16.018-9.681-7.195-9.55-11.491-22.396-30.229-22.396-13.538 0-29.208 12.082-31.362 29.853-1.565 12.914-3.516 24.089 13.993 50.692 9.934 15.092 20.595 26.675 32.498 44.931 3.415 5.237 15.958 21.797 7.405 32.282-2.701 3.314-6.656 5.838-11.667 6.089-19.655.986-42.716-21.138-52.767-29.813 10.661 19.512 21.041 43.326 30.99 73.75 3.227-4.182 3.897-14.566 5.384-18.481 1.753-4.616 3.677-3.826 9.405-3.658 19.545.577 43.689-16.487 43.875-44.113.082-12.401-8.491-24.584-14.799-35.46" style="fill:#a6956a"/><path d="m340.808 495.406-46.866-99.614c-.648-1.378-1.111-2.888-1.089-6.694.025-4.21.412-5.43 1.445-7.384l34.037-64.331c6.162-11.646 14.13-19.444 22.453-22.274-15.028-4.794-30.058-7.462-45.085-7.485 6.235 3.717 7.321 7.124 6.015 10.561-8.336 21.934-18.869 45.318-32.634 70.074-2.994 5.385-2.874 3.608-3.375-1.415-3.578-35.88-2.229-61.395 3.979-76.281-12.179 3.784-24.591 9.656-36.176 17.019 5.175 1.413 8.788 4.086 8.977 10.78 1.521 53.847.78 107.424 4.566 161.54.907 12.96-.577 20.677-8.197 27.443 12.541 8.607 27.86 13.907 45.62 14.925-7.051-3.891-16.594-30.427-16.257-55.546l.574-42.777c.035-2.584 1.427-4.041 2.673-1.781 12.771 23.161 23.859 45.957 33.502 68.429 7.764 18.095 8.633 27.351-8.644 36.041 17.126.194 34.643-2.982 52.482-8.954-5.466-3.354-13.937-13.638-18-22.276M285.535 559.525c-12.392.065-17.13 6.602-17.345 17.774-.161 8.318 3.789 16.541 16.551 16.541 2.14 0 6.422-1.242 8.443-2.397.446 8.457-1.764 17.918-8.666 17.838-2.806-.032-6.941-1.638-7.789-6.009h-6.047c.495 7.35 4.139 11.302 13.352 11.473 18.79.347 17.848-16.465 18.134-29.884.267-12.48-.097-25.423-16.633-25.336m.135 28.287c-5.782-.022-8.897-5.397-8.652-11.589.203-5.13 3.09-11.493 8.269-11.493 5.874 0 7.999 7.893 7.999 11.214-.001 3.565-1.532 11.893-7.616 11.868M327.214 609.301c12.307-.085 21.031-7.299 21.114-25.014.084-17.713-9.973-23.237-19.241-23.264-9.27-.028-20.332 6.285-20.248 24.338s6.067 24.025 18.375 23.94m2.039-42.254c6.609.09 10.317 5.091 10.272 18.703s-2.369 18.277-10.272 18.412c-7.905.134-10.765-5.606-10.81-18.412-.045-12.807 4.2-18.793 10.81-18.703M259.457 605.583l-.178-44.919-.001-.302-.001-.305h-8.316l-.091.139-.09.14-.748 1.153-.749 1.158c-2.047 3.163-4.125 6.375-6.373 9.611-2.236 3.221-4.629 6.446-7.304 9.638l-.179.214-.18.214.199.197.199.198.002.001 3.481 3.44.238.234.237.234.211-.258.211-.259 10.099-12.349.054-.066q.162-.186.371-.338.241-.177.541-.305.267-.113.59-.186.182-.041.384-.07l.043 32.786v.61h7.352l-.001-.307z" style="fill:#a6956a"/><path d="m367.208 581.193 15.544-20.569-32.997 3.333 4.736 6.242c4.281-.828 8.935-1.145 13.455-.182l-8.62 13.628c6.882 1.31 10.384 4.757 10.129 8.753-.264 4.131-2.903 6.528-8.215 9.52-20.813 11.724-38.911 23.897-53.46 39.291l8.198 6.772c10.153-16.808 29.415-33.622 49.941-42.684 9.07-4.004 12.513-10.201 12.547-14.099s-.889-7.997-11.258-10.005M300.342 244.585a65 65 0 0 1-2.709 2.635 39 39 0 0 0 10.296 1.378 38.7 38.7 0 0 0 16.103-3.481c-2.434.46-4.8.793-7.071.994-6.431.569-12.163.086-16.619-1.526M310.963 198.167l-.011.003c-4.571 1.467-9.61 2.474-15.073 3.039 1.719 6.024 1.218 12.944-1.208 19.735-2.322 6.5-6.417 12.907-12.017 18.303a38.7 38.7 0 0 0 11.145 6.705c7.428-6.409 12.626-13.846 15.585-21.62 3.283-8.621 3.813-17.662 1.579-26.165M310.431 230.592c-1.964 3.866-4.465 7.611-7.501 11.157 3.754 1.065 8.456 1.338 13.731.872 5.144-.455 10.79-1.612 16.603-3.426 5.156-4.454 9.108-10.244 11.303-16.825-5.581 3.95-10.99 6.703-16.243 8.202-6.18 1.763-12.139 1.8-17.893.02M314.265 196.994a45 45 0 0 1 1.375 15.704c5.67-.203 10.89-1.571 15.691-4.104 4.714-2.486 9.047-6.105 13.03-10.854a38.3 38.3 0 0 0-10.607-15.795c-4.54 6.807-11.133 11.784-19.489 15.049" style="fill:#a6956a"/><path d="M345.523 201.723c-3.861 4.257-8.042 7.578-12.564 9.963-5.432 2.865-11.338 4.37-17.762 4.515a48.6 48.6 0 0 1-2.542 9.375q-.346.908-.73 1.811c4.95 1.428 10.091 1.344 15.442-.183 5.911-1.686 12.091-5.123 18.564-10.216.381-2.155.579-4.372.579-6.634a38 38 0 0 0-.987-8.631M292.317 201.51c-3.573.238-7.314.299-11.21.19.579 4.985.066 9.743-1.491 14.08-1.408 3.925-3.67 7.489-6.749 10.549a38.3 38.3 0 0 0 7.24 10.518c5.26-5.033 9.1-11.017 11.266-17.079 2.278-6.375 2.693-12.81.944-18.258M301.708 180.656c5.408-1.626 10.226-4.155 14.57-7.646a39 39 0 0 0-8.349-.898 38.63 38.63 0 0 0-26.779 10.717c7.707.343 14.508-.354 20.558-2.173" style="fill:#a6956a"/><path d="M309.884 194.845c9.288-2.981 16.471-7.969 21.147-15.121a38.6 38.6 0 0 0-10.687-5.588c-5.178 4.618-10.997 7.877-17.635 9.872-7.19 2.162-15.326 2.833-24.642 2.136a38.1 38.1 0 0 0-6.519 11.458c15.031 1.411 27.989.564 38.336-2.757M277.561 201.555q-3.45-.185-7.053-.537a38 38 0 0 0-1.159 9.337c0 4.349.733 8.529 2.082 12.425a24.6 24.6 0 0 0 4.9-8.177c1.428-3.974 1.854-8.388 1.23-13.048" style="fill:#a6956a"/></svg>