<svg xmlns="http://www.w3.org/2000/svg" width="1000" height="1000" viewBox="0 0 1000 1000"><path fill="#fd0" d="M381.79 950c54.285-26.333 107.809-54.19 158.617-86.852 57.569-37.01 138.642-95.74 177.866-178.11 16.125-33.858 23.984-68.974 24.023-107.352.032-30.996-4.854-61.248-11.12-92.361-6.542-32.518-14.437-64.786-18.804-97.71-2.973-22.406-4.36-43.682-4.218-64.321.225-31.83 4.279-62.3 12.042-90.561 9.057-32.968 24.047-59.57 43.378-86.673L621.444 0c-42.911 25.76-85.653 42.184-129.42 42.576-41.287.372-75.89-14.124-110.235-34.71-34.35 20.586-68.947 35.08-110.234 34.71C227.785 42.184 185.046 25.76 142.13 0L0 146.06c19.33 27.103 34.318 53.705 43.38 86.673 7.764 28.26 11.818 58.73 12.038 90.56.144 20.64-1.24 41.916-4.213 64.322-4.367 32.921-12.265 65.192-18.81 97.71-6.263 31.113-11.149 61.365-11.112 92.361.04 38.378 7.898 73.494 24.018 107.352C84.53 767.41 165.603 826.136 223.17 863.148c50.809 32.662 104.335 60.52 158.62 86.852"/><path fill="#2c2d8b" d="M381.79 910.84c-54.616-26.766-100.34-52.096-139.574-77.318C188.27 798.84 112.46 744.146 77.102 669.894c-14.021-29.438-20.566-58.75-20.6-92.244-.032-28.144 4.634-56.69 10.613-86.317 5.17-25.623 11.237-51.116 15.631-76.894 5.505-32.28 8.094-62.349 7.888-91.392-.244-34.899-4.714-68.424-13.297-99.643-7.472-27.209-17.943-51.39-31.86-73.496L148.122 44.345c42.265 23.059 84.787 34.281 126.44 33.633 36.653-.568 72.645-10.33 107.227-29.293 34.578 18.963 70.573 28.723 107.225 29.293 41.656.648 84.175-10.577 126.438-33.633L718.099 149.91c-13.914 22.102-24.388 46.287-31.864 73.493-8.576 31.223-13.048 64.744-13.295 99.643-.203 29.043 2.383 59.112 7.89 91.392 4.397 25.778 10.46 51.271 15.631 76.894 5.977 29.624 10.643 58.173 10.616 86.317-.037 33.493-6.581 62.806-20.6 92.244-35.356 74.254-111.169 128.95-165.111 163.628-39.242 25.222-84.966 50.554-139.577 77.318"/><path fill="#fd0" d="M226.401 745.379v-80.716l-21.674-.064v-13.58c14.43-8.334 25.293-18.492 33.217-28.315h16.872V745.38H226.4Zm73.767-30.781c.375 3.374 1.774 6.06 4.13 8.069 2.354 2.01 5.339 3.021 8.99 3.021 6.196 0 10.781-2.64 13.776-7.949 3.002-5.309 4.511-13.468 4.511-24.47 0-.5-.024-1.353-.075-2.496a67 67 0 0 1-.076-2.667c-3.298 4.311-7.179 7.575-11.61 9.77-4.457 2.204-9.421 3.312-14.884 3.312-9.875 0-17.985-3.606-24.307-10.794-6.32-7.188-9.471-16.312-9.471-27.378 0-12.881 3.875-23.186 11.614-30.895 7.748-7.724 18.134-11.563 31.1-11.563 15.265 0 26.76 5.36 34.51 16.106 7.741 10.733 11.612 26.732 11.612 47.948 0 20.804-4.03 36.472-12.089 47.034-8.083 10.594-20 15.873-35.791 15.873-12.292 0-21.89-2.843-28.738-8.538q-10.315-8.579-10.88-24.383zm-2.444-52.874q0 7.923 4.534 13.031c3.024 3.403 6.902 5.101 11.611 5.101 5.065 0 8.984-1.659 11.74-5.015 2.759-3.364 4.129-8.067 4.129-14.147 0-5.573-1.443-9.999-4.33-13.316-2.878-3.31-6.724-4.991-11.536-4.991q-7.288 0-11.71 5.282c-2.953 3.523-4.438 8.215-4.438 14.055m101.745 48.21c.252 4.314 1.482 7.688 3.728 10.181 2.239 2.496 5.16 3.756 8.813 3.756 4.607 0 8.16-1.762 10.655-5.25 2.493-3.492 3.73-8.483 3.73-14.937 0-6.308-1.059-11.179-3.202-14.611-2.14-3.433-5.16-5.165-9.04-5.165-3.552 0-6.924.905-9.025 2.7-2.124 1.811-4.558 4.49-5.14 8.04H371.63l12.045-71.942h69.564v23.881h-47.515l-6.712 29.93c2.67-5.048 6.046-8.835 10.149-11.355 4.108-2.525 8.94-3.787 14.508-3.787 9.973 0 17.865 3.665 23.652 10.973 5.774 7.3 8.66 17.253 8.66 29.87 0 14.499-3.642 25.685-10.955 33.54-7.294 7.84-17.704 11.764-31.18 11.764-13.93 0-24.505-3.144-31.762-9.446-7.27-6.315-11.083-15.7-11.484-28.139h28.868zm68.118 35.445v-25.352c20.754-17.251 35.01-30.516 42.766-39.816 7.734-9.275 11.612-17.253 11.612-23.884 0-3.963-.981-7.019-2.921-9.155-1.94-2.14-4.686-3.227-8.211-3.227-3.704 0-6.626 1.174-8.766 3.489-2.139 2.32-3.198 5.458-3.198 9.42v.675h-29.442c.3-11.795 4.03-20.921 11.183-27.346 7.151-6.43 17.175-9.625 30.071-9.625 13.273 0 23.5 2.963 30.651 8.888 7.152 5.926 10.729 14.409 10.729 25.41 0 9.802-3.93 20.041-11.813 30.752-7.858 10.68-20.199 22.563-37.022 35.623h48.986v24.148zM477.743 540.56h47.946V392.977l56.47 147.581h50.387l-63.619-172.625 63.605-170.87h-50.403l-56.44 146.972V197.064h-47.946zm-28.467-267.113v46.837h-49.272v-51.447c0-9.214-.961-15.648-2.828-19.38-1.872-3.733-5.152-5.56-9.799-5.56-4.528 0-7.701 1.825-9.456 5.48-1.756 3.653-2.662 10.087-2.662 19.463v22.322c0 8.737 1.556 20.738 4.59 27.5 3.027 6.743 8.955 14.558 17.5 23.593l20.726 21.926c1.028 1.084 2.765 2.794 4.984 5.084 9.952 10.261 16.722 19.64 20.392 28.2 2.728 6.373 4.776 13.422 6 21.29 1.213 7.78 1.81 12.933 1.81 23.896v20.972c0 26.531-5.83 46.946-17.498 61.168-11.666 14.298-28.374 21.45-50.004 21.45q-33.215 0-47.743-20.019c-9.684-13.346-14.494-35.43-14.494-66.332v-46.676h50.625v50.412c0 10.562 1.12 18.039 3.342 22.482 2.193 4.374 5.948 6.59 11.213 6.59 5.324 0 9.004-2.067 11.103-6.194 2.09-4.054 3.17-11.678 3.17-22.88v-13.269c0-9.612-1.472-20.602-4.474-27.67-3.002-7.071-10.261-16.107-21.24-27.804l-20.724-22.083c-9.838-10.479-17.107-21.608-21.408-33.523-4.304-11.915-6.457-26.137-6.457-42.58v-27.378q.001-34.673 17.839-56.003c11.893-14.22 27.805-21.288 47.684-21.288 18.802 0 33.017 6.831 42.644 20.574 9.625 13.74 14.437 34.076 14.437 60.847m-201.631-76.383h47.95v343.495h-62.172l-41.257-186.105v186.105h-47.949V197.064h62.168l41.26 186.12z"/></svg>