<svg xmlns="http://www.w3.org/2000/svg" xml:space="preserve" viewBox="0 0 612 792"><path d="M307.8 136.96c60.84 0 116.136 24.84 156.168 64.872S528.84 297.088 528.84 358c0 60.768-24.84 116.064-64.872 156.096S368.64 578.968 307.8 578.968s-116.064-24.84-156.096-64.872S86.832 418.768 86.832 358c0-60.912 24.84-116.136 64.872-156.168S246.96 136.96 307.8 136.96M527.184 502.144c7.416-11.592 13.968-23.904 20.088-36.504l6.336 3.024-11.16 23.04 5.256 3.24 10.152-20.376 6.12 3.168-10.224 20.736 12.168 7.056-9.792 15.696zM103.104 522.736c9.288 10.512 19.008 20.592 29.304 30.096l-5.112 5.832-19.008-18.864-4.176 3.888c5.904 5.904 12.024 11.88 18.504 17.784l-4.68 5.4c-6.696-6.264-13.104-12.456-19.224-18.72l-4.896 4.608c6.48 7.416 13.464 14.256 21.168 21.168l-4.824 6.048A423 423 0 0 1 76.68 545.2zM51.48 414.088c4.32 17.496 9.936 34.92 17.496 51.912l-7.92 3.528-6.84-17.064-24.408 9.504-6.696-19.224 25.272-8.136-4.824-18.144zM40.968 489.544l31.32-15.984 13.104 23.472c2.16 3.96 6.768 10.296 7.488 15.768.72 5.112-3.672 10.368-9 9.072-3.672-.864-7.416-3.888-9.648-6.84 3.384 6.912-1.44 22.536-2.088 24.12l-11.52-16.416 3.384-13.824c1.008-3.528.936-5.616-1.296-9.144l-.432-.648-12.096 6.984zm32.904 2.736-5.976 3.528 2.952 4.608c.936 1.44 2.304 4.248 4.176 5.904 2.304 2.016 5.616 2.016 5.472-1.8-.072-1.224-1.224-4.248-2.952-6.768zM389.088 643.768l-9.288-33.336 23.76-7.416c3.96-1.224 10.584-4.248 15.768-3.816 4.752.36 8.784 5.76 6.696 10.512-1.368 3.312-4.752 6.264-7.848 7.776 6.84-1.8 20.376 6.12 21.672 7.128l-17.856 7.416-11.16-6.12c-3.096-1.728-5.04-2.088-8.712-.72l-.648.288 4.392 13.032zm8.136-30.816 2.232 6.48 4.68-1.872c1.512-.576 4.32-1.296 6.192-2.736 2.232-1.728 2.736-4.896-.72-5.616-1.152-.216-4.176.288-6.696 1.368zM139.752 559.312l12.456 9.216-15.552 21.384c7.848 6.048 13.032 9.36 21.96 14.616l-4.752 7.344c-13.752-8.208-23.544-15.408-36.216-25.56zM177.84 585.808l13.896 6.84-11.52 23.832c8.712 4.464 14.4 6.912 24.12 10.512l-3.384 8.064c-14.976-5.688-25.848-11.088-40.104-18.864zM219.168 605.32c13.392 4.176 26.928 7.704 40.68 10.44l-1.296 7.632-26.064-6.192-1.584 5.472c8.208 2.016 16.488 3.888 25.128 5.544l-1.224 7.056a536 536 0 0 1-26.136-5.976l-1.8 6.48c9.432 2.952 18.936 5.184 29.088 7.056l-.936 7.632c-15.912-3.168-31.464-7.272-46.728-12.168zM267.552 617.992l24.696 2.304c5.688.504 18.504 1.152 18.576 8.856 0 2.808-1.656 5.688-7.56 7.632 5.112 1.368 9.792 3.24 10.08 8.208.648 10.44-14.616 10.728-21.888 10.008l-28.152-2.952zm14.616 14.832 7.272.864c3.384.36 5.544-.864 6.048-2.376.648-1.944-.72-3.672-5.112-4.104l-7.56-.792zm-1.512 13.608 8.352.792c2.808.36 4.824.216 6.048-.288 1.224-.576 1.872-1.368 2.016-2.448.144-1.008-.288-1.872-1.368-2.592-1.08-.792-3.024-1.296-5.904-1.584l-8.352-.864zM322.2 638.08c-.432-5.544 1.656-10.152 6.192-13.824 4.536-3.6 11.16-5.832 19.656-6.768 8.784-.936 15.624-.144 20.592 2.376 4.968 2.592 7.632 6.624 8.064 12.096.288 3.96-.504 7.416-2.376 10.152-1.872 2.808-4.752 5.112-8.568 6.912-3.816 1.872-8.64 3.096-14.472 3.744-5.904.648-10.872.576-14.904-.288-3.96-.792-7.272-2.376-9.864-4.824-2.592-2.376-4.032-5.544-4.32-9.576m16.272-1.656c.216 3.456 1.368 5.76 3.456 7.128 2.088 1.224 4.824 1.728 8.28 1.368s6.12-1.44 7.92-3.096 2.592-4.464 2.304-8.28c-.216-3.168-1.44-5.472-3.528-6.696-2.088-1.296-4.896-1.728-8.28-1.368-3.312.36-5.904 1.368-7.776 3.096s-2.664 4.32-2.376 7.848M461.376 597.256l-3.816-6.12c7.128-4.464 14.112-9.144 20.808-14.04l9.072 11.808c-6.264 10.224-14.4 18.144-25.272 22.968-6.84 3.096-14.904 4.968-21.096 2.016-3.168-1.44-5.616-3.528-7.344-6.624-1.728-3.312-2.232-6.768-1.512-10.44 1.8-8.568 10.728-15.408 17.784-19.512 5.04-2.952 9-4.824 11.88-5.688 4.752-1.44 8.496-1.656 12.528 1.44L463.176 583c-1.224-.864-2.664-1.296-4.32-1.008-7.92 1.584-14.904 9.072-11.016 16.92 5.688 11.448 19.944 3.456 24.768-4.68l-1.8-2.88zM489.744 578.392l11.088-11.016c1.296 1.008 2.664 1.152 3.96 1.224 3.816 0 8.928-3.528 10.44-7.776 1.296-3.528-.144-4.896-3.6-3.816-1.368.432-3.816 1.728-7.488 4.248-5.904 4.032-10.584 6.48-13.968 7.272s-5.976.144-7.704-1.872c-1.152-1.296-1.656-3.096-1.512-5.328.072-2.304 1.008-4.824 2.736-7.632 1.728-2.88 4.608-6.12 8.64-9.936 4.968-4.536 14.616-12.96 21.528-7.488l-9.72 11.304c-1.296-.864-2.664-1.152-4.104-.792s-2.952 1.368-4.68 2.952c-1.368 1.296-2.232 2.448-2.592 3.528-.648 1.728 0 3.168 2.016 2.664.864-.144 2.448-1.08 4.824-2.736 5.904-4.104 10.512-6.48 13.248-8.208 4.104-2.52 13.824-5.832 15.048 3.6.504 4.248-2.088 9.648-3.816 12.168-2.016 2.88-4.32 6.552-8.136 10.008-6.552 6.12-12.168 9.216-16.2 9.936-3.96.648-7.416 0-10.008-2.304M551.016 456.856c5.04-12.888 9.432-29.448 12.96-42.984l7.056 1.368-6.768 27.288 5.76 2.088 6.12-23.616 6.696 1.728-6.192 24.192 13.392 4.68-6.912 18.36z" style="fill:#286fb7"/><path d="M342.072 570.328c45.576-7.344 86.4-29.088 117.72-60.408 37.152-37.152 60.912-87.768 63-143.712a413 413 0 0 1-12.096 13.32c-9.288 9.864-19.368 19.296-30.096 28.44-1.584 1.296-4.176.504-4.752-1.512-3.744-14.04-7.92-27.936-12.672-41.544-4.536-12.96-9.576-25.632-15.192-37.872l-94.896.432c12.24 44.856 16.56 88.2 13.536 131.112-2.736 37.44-11.016 74.52-24.552 111.744M92.88 366.208c2.088 55.944 25.776 106.56 62.928 143.712 31.32 31.32 72.216 53.064 117.792 60.408-13.608-37.224-21.888-74.304-24.552-111.744-3.024-42.912 1.296-86.256 13.536-131.112l-94.968-.432c-5.544 12.24-10.584 24.912-15.12 37.872-4.752 13.608-9 27.504-12.744 41.544-.504 2.016-3.096 2.808-4.68 1.512-10.8-9.144-20.808-18.576-30.168-28.44-4.176-4.392-8.136-8.856-12.024-13.32" style="fill:#fff"/><path d="M351.936 516.472c4.464-19.368 7.416-38.736 8.784-58.32 3.096-43.416-1.44-87.336-14.328-132.84-.504-1.728.936-3.672 2.808-3.672l98.568-.504 16.128-61.056a261 261 0 0 0-27.648-11.664c-10.224-3.672-20.664-6.84-31.248-9.72-30.96-8.28-64.08-12.384-97.2-12.384-33.048 0-66.168 4.104-97.2 12.384-10.584 2.88-21.024 6.048-31.248 9.72a274 274 0 0 0-27.648 11.664l16.128 61.056 98.568.504c1.872 0 3.312 1.944 2.808 3.672-12.816 45.504-17.424 89.424-14.256 132.84 1.368 19.584 4.32 38.952 8.712 58.32 14.112 1.871 29.16 2.808 44.136 2.808 15.048 0 30.096-.936 44.136-2.808" style="fill:#fff"/><path d="M340.272 503.584a360 360 0 0 0 6.264-46.368c1.512-21.168 1.224-42.192-1.08-63.144-2.232-21.313-6.48-42.912-12.672-64.944-3.024-10.8 5.472-21.6 16.344-21.672l87.768-.432 10.296-39.096c-14.832-6.408-30.24-11.376-45.864-15.552-60.192-16.128-126.864-16.128-187.056 0-15.624 4.176-30.96 9.144-45.864 15.552l10.368 39.096 87.696.432c10.944.072 19.44 10.872 16.344 21.672-6.192 22.032-10.368 43.632-12.672 64.944-2.232 20.952-2.592 41.976-1.08 63.144 1.152 15.552 3.24 31.032 6.336 46.368a348.7 348.7 0 0 0 64.872 0" style="fill:#286fb7"/><path d="M280.152 571.264c9.072 1.224 18.36 1.8 27.648 1.8 9.36 0 18.576-.576 27.648-1.8 6.048-16.2 11.088-32.472 15.048-48.672-13.68 1.728-28.224 2.592-42.696 2.592s-28.944-.864-42.696-2.592c4.032 16.2 9 32.472 15.048 48.672M171.36 191.896a240 240 0 0 0-15.552 14.04c-38.736 38.808-62.856 92.232-63.144 151.056 5.256 6.264 10.728 12.456 16.488 18.504 8.208 8.568 16.92 16.992 26.208 24.984 3.456-12.6 7.272-25.2 11.592-37.512 4.68-13.32 9.864-26.352 15.624-38.88l-17.136-64.872c-.288-1.08.504-2.808 1.512-3.312 9.936-4.968 20.088-9.288 30.456-13.032 10.296-3.744 20.952-6.912 31.68-9.792 31.536-8.424 65.16-12.672 98.712-12.672 33.624 0 67.248 4.248 98.712 12.672 10.8 2.88 21.384 6.048 31.752 9.792s20.52 8.064 30.384 13.032c1.08.504 1.8 2.232 1.512 3.312l-17.064 64.872c5.76 12.528 10.944 25.56 15.552 38.88 4.32 12.312 8.208 24.912 11.664 37.512 9.288-7.992 18-16.416 26.136-24.984 5.76-6.048 11.232-12.24 16.488-18.504-.288-58.824-24.336-112.248-63.144-151.056-4.896-4.896-10.08-9.576-15.48-14.04.288 2.016.36 3.96.144 5.904-.504 4.32-2.376 8.28-5.4 11.232-3.528 3.456-7.344 5.256-11.448 5.832-3.96.576-7.992-.072-12.168-1.441-34.776-11.952-71.208-17.928-107.64-17.928s-72.864 5.976-107.64 17.928c-4.104 1.368-8.208 2.016-12.168 1.441-4.032-.576-7.848-2.376-11.448-5.832-3.024-2.952-4.824-6.912-5.328-11.232-.216-1.944-.216-3.888.144-5.904" style="fill:#fff"/><path d="M307.8 142.792c-47.16 0-90.936 15.408-126.504 41.328-1.008 1.152-1.872 2.304-2.52 3.6a16.27 16.27 0 0 0-1.728 9.432c.36 2.952 1.584 5.688 3.6 7.704 2.592 2.52 5.328 3.816 8.208 4.248s6.048-.144 9.432-1.296A338.9 338.9 0 0 1 307.8 189.592c37.08 0 74.16 6.12 109.584 18.216 3.312 1.152 6.48 1.728 9.432 1.296 2.808-.432 5.544-1.728 8.208-4.248 2.016-2.016 3.24-4.752 3.6-7.704.36-3.096-.216-6.408-1.728-9.432-.72-1.296-1.584-2.448-2.592-3.6-35.568-25.92-79.272-41.328-126.504-41.328" style="fill:#fff"/><path d="M285.984 151.072c2.52-.144 4.968 4.32 5.976 10.512 5.256-.36 10.512-.504 15.84-.504s10.656.144 15.84.504c1.08-6.192 3.528-10.656 6.048-10.512 2.52.216 4.392 5.112 4.464 11.52 8.928 1.008 17.64 2.592 26.208 4.608 1.08.288 2.088.504 3.168.792 1.872-5.832 4.896-9.792 7.272-9.288 2.52.432 3.6 5.616 2.808 12.024a312 312 0 0 1 28.152 10.008c2.736-5.616 6.264-9.216 8.568-8.424 2.808.936 2.88 7.992.072 15.552-2.808 7.632-7.416 13.104-10.224 12.168-2.448-.864-2.736-6.12-1.008-12.456q-13.392-5.616-27.216-9.72c-1.872 5.76-4.896 9.72-7.272 9.216-2.448-.432-3.6-5.544-2.736-11.952-1.08-.288-2.16-.576-3.24-.792-8.208-1.944-16.56-3.456-25.128-4.464-1.008 6.12-3.456 10.512-5.976 10.368s-4.32-5.04-4.464-11.376a181 181 0 0 0-15.336-.432 179 179 0 0 0-15.264.432c-.144 6.336-1.944 11.232-4.464 11.376s-4.968-4.248-6.048-10.368a222 222 0 0 0-25.056 4.464c-1.08.216-2.16.504-3.24.792.792 6.408-.288 11.52-2.808 11.952-2.376.504-5.328-3.456-7.272-9.216-9.216 2.736-18.216 5.976-27.144 9.72 1.728 6.336 1.368 11.592-1.08 12.456-2.808.936-7.344-4.536-10.152-12.168-2.808-7.56-2.808-14.616 0-15.552 2.376-.792 5.904 2.808 8.64 8.424a297 297 0 0 1 28.152-10.008c-.864-6.408.288-11.592 2.736-12.024 2.448-.504 5.4 3.456 7.344 9.288a49 49 0 0 0 3.096-.792c8.64-2.016 17.352-3.6 26.208-4.608.144-6.408 1.944-11.304 4.536-11.52M192.528 365.848v25.488c.072.936.792 1.656 1.728 1.656h23.04a2.43 2.43 0 0 1 2.448 2.448v7.2a2.43 2.43 0 0 1-2.448 2.448h-23.112c-.864 0-1.584.72-1.656 1.656v32.832a3.457 3.457 0 0 1-3.456 3.456h-7.056a3.457 3.457 0 0 1-3.456-3.456v-85.968c0-1.44 1.152-2.664 2.592-2.664h46.296c1.44 0 2.664 1.224 2.664 2.664v7.92c0 1.44-1.224 2.664-2.664 2.664h-33.264c-.864 0-1.584.72-1.656 1.656M399.528 365.848v25.488c.072.936.792 1.656 1.728 1.656h23.04a2.43 2.43 0 0 1 2.448 2.448v7.2a2.43 2.43 0 0 1-2.448 2.448h-23.112c-.864 0-1.584.72-1.656 1.656v32.832a3.457 3.457 0 0 1-3.456 3.456h-7.056a3.457 3.457 0 0 1-3.456-3.456v-85.968c0-1.44 1.152-2.664 2.592-2.664h46.296c1.44 0 2.664 1.224 2.664 2.664v7.92c0 1.44-1.224 2.664-2.664 2.664h-33.264c-.864 0-1.584.72-1.656 1.656" style="fill:#286fb7"/></svg>