<svg xmlns="http://www.w3.org/2000/svg" width="1000" height="1000" viewBox="0 0 1000 1000"><path fill="#343536" d="m290.926 232.621 3.976-23.712c10.775-6.565 21.911-12.608 33.347-18.176a7474 7474 0 0 0 4.079 17.918 388 388 0 0 1 34.017-14.966c-5.316-23.271-24.684-108.085-25.87-113.341h-42.862c-.016.064-.029.132-.051.207l-.249-.058-28.046 167.596a388 388 0 0 1 21.66-15.468m19.896-118.86c.167.98 5.706 25.388 11.332 50.21a426 426 0 0 0-21.566 10.938zM406.199 180.877v-30.084l11.597-3.895c4.027 8.703 7.915 21.436 11.875 28.68a375 375 0 0 1 35.017-5.062c-4.75-6.355-9.34-20.045-14.122-29.362 10.027-4.703 13.374-10.196 13.464-19.76l.003-4.068V106.34c-.31-21.273-14.167-25.894-22.591-25.996h-69.938v111.41a379 379 0 0 1 34.695-10.877m0-82.347 13.48-.32c4.84-.054 9.879 3.862 9.937 11.886v8.224c-.058 6.84-2.39 9.812-7.087 10.213 0 0-9.556 2.293-16.327 4.044-.003-.004-.003-20.846-.003-34.047M509.358 168.92c-.016-15.725-.016-55.696 0-88.576h-35.936v89.439c11.926-.852 23.907-1.164 35.936-.862M554.947 172.921c-.019-15.424-.019-45.345-.019-74.391l13.525.274c9.34 0 10.404 9.388 10.437 14.58v63.955a380 380 0 0 1 33.747 9.01c-.013-20.546-.013-47.926-.013-75.27-.11-19.834-5.191-30.531-21.354-30.738h-71.714v88.98a372 372 0 0 1 35.391 3.6M634.79 194.157c2.563.997 5.13 2.002 7.692 3.053a387 387 0 0 1 49.217 24.537v-32.605c-.142-.064-22.537-8.098-29.091-10.938-2.383-1.025-4.592-5.602-4.653-10.48v-16.945a908 908 0 0 1 28.714 5.571v-25.14a1516 1516 0 0 0-28.714-3.264v-17.094c.039-6.161 1.712-10.05 5.858-9.975 9.428.35 18.458.716 27.886 1.127v-21.66h-51.573c-13.255.207-18.381 10.28-18.51 25.684v60.793c.103 12.16 3.798 21.062 13.174 27.336M735.786 252.052V189.37c2.353.834 4.6 3.694 6.938 4.566 4.41 21.949 8.63 45.817 13.013 75.087a400 400 0 0 1 40.127 42.278c-5.61-45.62-17.481-109.252-17.481-109.252 13.058-4.228 15.124-27.36 15.234-46.316 0-12.5.01-23.61.01-34.512-.43-35.53-14.16-40.758-22.592-40.877h-69.95v147.134a384 384 0 0 1 34.7 24.574m0-148.372s10.714.57 16.212.879c4.826.319 7.125 2.714 7.196 14.61v29.164c-.078 11.498-2.363 16.367-7.087 15.329-5.507-1.32-16.324-7.077-16.324-7.077.004-20.83.004-35.629.004-52.905M827.915 238.545c.851 5.327 1.606 7.685 2.035 10.976 1.099 9.812 1.757 20.588-1.351 29.453-1.003 2.555-3.099 2.073-4.766.872a783 783 0 0 0-21.63-15.322v54.713c18.532 23.787 34.417 49.61 47.388 76.923 1.76-.842 3.301-1.734 4.54-2.68 5.152-3.946 8.566-8.523 11.136-14.658 2.63-4.237 5.442-13.408 7.567-32.194.142-1.632.27-3.2.393-4.811.142-.882.264-1.734.39-2.64l-.142-.166c3.756-47.147-.354-79.478-2.427-91.83-7.903-47.728-15.492-81.056-23.408-109.674-1.102-4.038-1.834-7.153-1.899-7.75-1.415-10.06 1.296-15.267 1.635-16.01.841-1.185 2.57-1.66 4.22-1.534 7.551.614 14.77 1.218 22.318 1.87V80.346H821.39c-1.529.017-11.95.726-17.153 18.763-4.781 18.321-.928 37.046 1.087 43.937 7.657 25.657 14.947 54.988 22.591 95.498M135.804 430.441a424 424 0 0 1 26.78-58.194V118.171c7.093-.842 14.976-2.016 16.646 9.48-.01 49.31 0 119.76 0 217.23 10.427-15.76 21.798-30.618 34.018-44.46V111.134l6.483-.9c5.407.048 10.263 1.938 11.34 10.695v160.59a397 397 0 0 1 33.76-29.959c0-52.942-.007-95.04 0-131.917-.142-24.866-4.389-39.034-21.373-39.299H127.376v375.163c2.547-8.394 5.33-16.75 8.428-25.066"/><path fill="#fdd025" d="M627.948 236.272c-180.603-74.381-384.332 19.377-455.031 209.45-70.705 190.07 18.42 404.457 199.029 478.862 180.622 74.382 384.348-19.393 455.04-209.457 70.693-190.08-18.425-404.457-199.038-478.855"/><path fill="#3b59a1" d="M673.605 623.019c-.555.95-1.1 1.886-1.664 2.816l-1.27 9.1z"/><path fill="#0072af" d="M560 711.029a253 253 0 0 0 19.547 8.265c76.345 28.517 148.462 28.483 215.701.207a371 371 0 0 0 5.984-14.986c24.994-67.216 28.282-137.712 13.458-202.963-4.927 24.3-10.978 46.261-18.32 66.01-23.397 62.894-59.691 103.567-112.69 127.979-30.47 14.022-77.795 22.64-123.68 15.488M580.93 250.777c-66.739-18.237-135.155-13.04-196.34 11.559 16.034-1.886 32.597-2.667 49.678-2.307 145.437 3.097 260.49 129.99 260.955 281.45.016 6.534-1.267 14.453-3.257 22.762l-.029 1.785c35.737-118.071-9.93-251.23-111.006-315.25M619.949 838.773c-34.476-15.14-67.375-37.566-98.542-67.324-50.026-47.755-80.236-111.974-86.323-181.171-23.14 62.798-23.517 134.271 2.737 200.411 21.254 53.526 50.525 96.574 87.57 129.21 56.62-4.747 110.991-25.158 157.506-58.642-21.499-4.838-42.504-12.262-62.948-22.484"/><path fill="#0072af" d="M574.814 734.813c-37.077-11.448-70.692-30.82-99.28-56.912 12.493 31.167 30.687 59.952 54.162 84.825 47.765 50.648 101.118 81.916 159.614 93.801 42.807-32.449 78.52-76.25 102.534-129.26-12.971 5.123-26.2 9.33-39.68 12.448-55.274 16.049-114.482 14.481-177.35-4.902M255.397 477.802c-37.945 41.521-63.78 86.575-77.573 134.896 4.627 50.787 20.083 99.715 44.828 143.093-2.598-45.536 4.427-92.767 21.157-141.546C293.683 468.848 446.7 393.259 584.867 445.75c1.97.75 3.914 1.543 5.855 2.334-101.36-79.064-245.61-68.478-335.325 29.718"/><path fill="#0072af" d="M526.572 450.812c-113.86-16.354-228.078 50.516-271.772 167.98-19.451 52.334-27.083 103.125-22.962 152.192 30.706 47.93 73.252 88.068 125.367 114.97-15.727-33.48-25.81-70.72-29.562-111.883-1.922-15.457-2.986-31.404-3.166-47.876-.371-33.213 4.81-65.234 14.644-95.06 29.191-88.435 99.406-157.36 187.45-180.323"/><path fill="#0072af" d="M458.343 848.524c-10.769-16.601-20.57-34.617-29.343-54.113-44.654-99.216-30.194-213.372 32.99-295.659-75.333 45.773-126.3 130.923-127.776 228.24-.942 62.286 11.12 117.45 35.987 165.28 3.898 1.8 7.835 3.551 11.836 5.187 43.845 18.067 89.173 25.358 133.34 23.112-21.566-20.1-40.672-44.026-57.034-72.047M519.082 349.07c46.112 18.017 108.44 56.491 143.674 137.377 6.21 14.273 11.281 29.222 15.156 44.578-2.472-139.907-108.082-256.05-242.764-262.755-25.39-1.255-49.648.102-72.765 4.007-58.047 28.69-108.125 75.474-141.881 136.494 25.113-23.696 54.775-43.9 89.066-60.44 46.28-22.322 129.02-30.74 209.514.74"/><path fill="#0072af" d="M176.367 583.52c15.208-40.331 38.88-78.4 71.063-114.071 101.167-112.097 270.124-116.69 376.65-10.24a270 270 0 0 1 20.389 22.83l-.742-1.886c-33.225-68.546-87.729-102.929-128.836-119.859-76.896-31.672-156.177-25.209-200.641-4.733-41.588 19.15-76.393 43.883-104.362 74.083a360 360 0 0 0-11.217 26.678c-15.547 41.803-22.675 84.885-22.304 127.197"/><path fill="#0072af" d="M349.702 218.921c-91.758 42.244-162.396 119.55-198.896 217.688-75.358 202.59 19.97 431.936 212.49 511.237 192.525 79.297 410.457-21.019 485.811-223.616 75.364-202.586-19.97-431.935-212.499-511.23-93.261-38.41-195.153-36.313-286.906 5.921M155.574 438.584c36.004-96.801 105.678-173.055 196.176-214.72 90.504-41.657 191.01-43.726 282.988-5.842 189.889 78.205 283.91 304.42 209.585 504.244-74.316 199.828-289.272 298.77-479.158 220.569-189.885-78.226-283.904-304.437-209.59-504.251"/><path fill="#0072af" d="M163.141 441.698c-35.22 94.664-33.282 198.122 5.436 291.245 38.716 93.154 109.582 164.862 199.545 201.908 89.97 37.06 188.257 35.045 276.766-5.703 88.531-40.758 156.663-115.326 191.88-210 35.224-94.67 33.283-198.108-5.432-291.255-38.725-93.157-109.585-164.862-199.558-201.915-185.716-76.495-395.939 20.28-468.637 215.72m209.66 480.596c-86.775-35.743-155.136-104.906-192.482-194.752-37.351-89.843-39.205-189.62-5.245-280.94 70.118-188.5 272.897-281.834 452.033-208.06 86.78 35.744 155.135 104.907 192.48 194.746 37.336 89.842 39.2 189.625 5.24 280.947-33.967 91.315-99.69 163.247-185.075 202.56-85.375 39.299-180.18 41.246-266.952 5.5"/><path fill="#343536" d="m487.663 508.605 2.057 13.243 39.35-7.967 19.377-36.917-12.022-6.528c-19.484 7.695-36.35 21.056-48.762 38.17M534.132 593.569l40.728 31.136 40.73-31.136-15.56-50.4h-50.344zM658.855 520.219l2.034-13.178c-12.822-17.07-30.133-30.24-50.051-37.511l-10.72 5.798 19.376 36.928zM605.005 689.362l6.532-13.666-36.297-17.87-36.307 17.87 6.674 13.928c9.318 2.69 19.116 4.183 29.246 4.183a104.3 104.3 0 0 0 30.152-4.445M684.345 583.037l-10.411-10.887-27.383 30.81 4.94 41.861 14.557-2.358c10.871-17.113 17.487-37.487 18.297-59.426M483.697 642.487l13.777 2.242 4.943-41.867-27.38-30.807-9.695 10.124c.677 22.27 7.329 42.953 18.355 60.308"/><path fill="#0072af" d="M349.702 218.921c-91.758 42.244-162.396 119.55-198.896 217.688-75.358 202.59 19.97 431.936 212.49 511.237 192.525 79.297 410.457-21.019 485.811-223.616 75.364-202.586-19.97-431.935-212.499-511.23-93.261-38.41-195.153-36.313-286.906 5.921M155.574 438.584c36.004-96.801 105.678-173.055 196.176-214.72 90.504-41.657 191.01-43.726 282.988-5.842 189.889 78.205 283.91 304.42 209.585 504.244-74.316 199.828-289.272 298.77-479.158 220.569-189.885-78.226-283.904-304.437-209.59-504.251"/><path fill="#343536" d="M148.562 46.65h5.723v1.143c0 4.631-.768 7.64-2.293 8.995q-2.281 2.035-10.14 2.035c-5.942 0-9.604-1.062-10.962-3.21-1.367-2.144-2.057-7.874-2.057-17.198 0-5.483.926-9.096 2.776-10.82 1.86-1.733 5.73-2.592 11.627-2.592 4.29 0 7.16.706 8.601 2.134 1.435 1.422 2.167 4.255 2.167 8.483l.016.763h-5.732v-.862c0-2.171-.368-3.576-1.116-4.2-.738-.604-2.428-.906-5.081-.906-3.527 0-5.662.465-6.364 1.435-.716.954-1.068 3.797-1.068 8.51 0 6.375.31 10.14.945 11.308.648 1.163 2.705 1.744 6.197 1.744 2.824 0 4.665-.32 5.497-.974.858-.652 1.273-2.09 1.273-4.302zM196.843 30.65v8.515h14.077v4.614h-14.077v9.392h14.976v5.333h-20.718V25.312h20.573v5.337zM277.827 25.312v33.192h-9.702l-8.537-18.21c-.422-.905-1.093-2.493-1.996-4.766l-.967-2.375-.929-2.395h-.238l.097 2.202.074 2.154.032 4.353v19.037h-5.752V25.312h9.698l7.78 16.835a210 210 0 0 1 2.39 5.419l1.137 2.697 1.142 2.721h.193l-.068-2.134-.06-2.144-.046-4.275V25.312zM328.987 30.968v27.536h-5.748V30.968h-8.693v-5.656h23.443v5.656zM374.667 58.504V25.312h14.795c3.673 0 6.22.706 7.616 2.117 1.393 1.422 2.089 3.97 2.089 7.675 0 3.355-.361 5.66-1.054 6.894-.687 1.239-2.128 2.083-4.288 2.558v.207c3.353.231 5.042 2.375 5.042 6.447v7.29h-5.758v-6.035c0-3.4-1.509-5.106-4.54-5.106h-8.166V58.5h-5.736m5.739-16.476h8.137c1.938 0 3.218-.373 3.853-1.153.626-.77.951-2.304.951-4.625 0-2.354-.28-3.874-.822-4.573-.545-.679-1.74-1.028-3.588-1.028h-8.534v11.38zM455.796 52.143h-12.99l-1.867 6.365h-6.052l10.005-33.192h8.585l10.157 33.192h-5.926zm-1.322-4.615-5.204-17.32-5.113 17.32zM505.824 25.312v27.543h14.058v5.65H500.06V25.311zM620.317 46.65h5.732v1.143c0 4.631-.77 7.64-2.305 8.995q-2.293 2.035-10.14 2.035c-5.945 0-9.608-1.062-10.972-3.21-1.357-2.144-2.047-7.874-2.047-17.198 0-5.483.932-9.096 2.776-10.82 1.854-1.733 5.723-2.592 11.633-2.592 4.284 0 7.154.706 8.589 2.134 1.447 1.422 2.176 4.255 2.176 8.483l.016.763h-5.73v-.862c0-2.171-.38-3.576-1.121-4.2-.742-.604-2.422-.906-5.075-.906-3.537 0-5.671.465-6.377 1.435-.703.954-1.064 3.797-1.064 8.51 0 6.375.316 10.14.95 11.308q.965 1.744 6.204 1.744c2.828 0 4.652-.32 5.49-.974.858-.652 1.274-2.09 1.274-4.302zM675.959 25.003c5.455 0 8.982 1.008 10.552 3.006 1.57 2.009 2.354 6.48 2.354 13.453 0 7.62-.784 12.425-2.363 14.396q-2.384 2.97-11.465 2.969c-5.481 0-9.015-.98-10.618-2.935-1.605-1.954-2.402-6.263-2.402-12.92 0-7.926.778-12.903 2.354-14.939 1.583-2.025 5.442-3.03 11.588-3.03m-.445 5.409c-3.82 0-6.049.539-6.703 1.632-.645 1.082-.964 4.848-.964 11.288q0 7.164 1.128 8.617c.755.98 2.982 1.46 6.674 1.46 3.52 0 5.646-.544 6.348-1.636.7-1.093 1.055-4.418 1.055-9.975 0-5.568-.33-8.855-1-9.866-.67-1.018-2.856-1.52-6.538-1.52M744.758 52.143h-12.97l-1.883 6.365h-6.045l10.017-33.192h8.573l10.172 33.192h-5.942zm-1.318-4.615-5.191-17.32-5.133 17.32zM811.372 34.948h-5.578a7 7 0 0 1-.051-.672c-.126-1.852-.503-3.01-1.119-3.481-.613-.468-2.06-.71-4.356-.71-2.702 0-4.472.286-5.31.829-.816.55-1.238 1.716-1.238 3.48 0 2.094.339 3.35 1.019 3.78.674.414 2.914.733 6.706.964 4.475.278 7.367.98 8.68 2.12 1.325 1.137 1.982 3.492 1.982 7.078 0 4.41-.786 7.26-2.321 8.553-1.541 1.296-4.952 1.934-10.208 1.934-4.749 0-7.886-.63-9.44-1.903-1.544-1.266-2.328-3.83-2.328-7.705l-.029-1.218h5.565l.026.705c0 2.318.358 3.733 1.102 4.255.723.516 2.735.77 6.004.77 2.553 0 4.191-.292 4.89-.899.707-.597 1.055-1.978 1.055-4.163 0-1.608-.261-2.66-.806-3.193-.535-.532-1.683-.851-3.46-.963l-3.16-.22c-4.755-.303-7.795-1.039-9.107-2.203-1.329-1.136-1.993-3.62-1.993-7.416 0-3.868.8-6.454 2.393-7.746 1.589-1.283 4.768-1.924 9.546-1.924 4.537 0 7.58.584 9.15 1.768 1.577 1.184 2.357 3.484 2.357 6.914zM861.923 30.968v27.536h-5.758V30.968h-8.692v-5.656h23.449v5.656z"/></svg>