<svg xmlns="http://www.w3.org/2000/svg" xmlns:xlink="http://www.w3.org/1999/xlink" width="1000" height="1000" viewBox="0 0 1000 1000"><defs><clipPath id="k"><use xlink:href="#a" width="100%" height="100%"/></clipPath><clipPath id="l"><use xlink:href="#b" width="100%" height="100%"/></clipPath><clipPath id="m"><use xlink:href="#c" width="100%" height="100%"/></clipPath><clipPath id="n"><use xlink:href="#d" width="100%" height="100%"/></clipPath><clipPath id="o"><use xlink:href="#e" width="100%" height="100%"/></clipPath><path id="a" d="M181.85 282.39h235.302v280H181.85Z"/><path id="b" d="M181.85 282.39v280h235.301v-280"/><path id="c" d="M181.85 282.39v280h235.301v-280"/><path id="d" d="M181.85 282.39v280h235.301v-280"/><path id="e" d="M181.85 282.39v280h235.301v-280"/></defs><g clip-path="url(#k)" transform="translate(-516.155 -933.109)scale(3.39286)"><path fill="#aab3be" d="M299.315 282.39c49.2.003 105.276 25.041 105.276 25.041s12.553 49.196 12.553 77.831c0 28.62 1.316 79.024-53.855 129.284-46.979 42.786-63.974 47.844-63.974 47.844s-31.525-16.684-64.975-49.5c-33.442-32.803-55.104-70.249-52.238-129.133 2.749-56.568 12.541-76.326 12.541-76.326s52.775-25.041 104.672-25.041" clip-path="url(#l)"/></g><path fill="#00547c" d="M299.334 289.456c46.497.003 99.514 23.676 99.514 23.676s11.857 46.49 11.857 73.57c0 27.058 1.248 74.691-50.91 122.202-44.403 40.449-60.236 45.419-60.236 45.419s-30.035-15.967-61.648-46.96c-31.601-31.052-52.075-66.437-49.377-122.093 2.59-53.465 11.851-72.13 11.851-72.13s49.894-23.684 98.949-23.684" clip-path="url(#k)" transform="translate(-516.155 -933.109)scale(3.39286)"/><path fill="#fff" fill-rule="evenodd" d="M396.42 426.087v-54.224l-97.485 78.258-96.286-78.721v55.288l96.887 82.165Z" clip-path="url(#k)" clip-rule="evenodd" transform="translate(-516.155 -933.109)scale(3.39286)"/><g clip-path="url(#k)" transform="translate(-516.155 -933.109)scale(3.39286)"><path fill="none" stroke="#aab3be" stroke-width="11.657" d="M396.42 426.087v-54.224l-97.485 78.258-96.286-78.721v55.288l96.887 82.165Z" clip-path="url(#m)"/></g><path fill="#aab3be" d="M379.122 307.72c.13.43 13.428 42.771 13.428 82.996 0 11.807-1.878 43.177-19.299 79.292-16.748 34.741-40.543 65.483-73.692 84.314l1.563 3.546c.698-.195 17.442-5.499 62.009-46.071 52.241-47.611 52.198-94.963 52.177-123.251v-1.844c0-27.253-11.5-72.629-11.984-74.543l-.482-1.827-1.714-.767c-.269-.116-6.65-2.952-16.966-6.692l-7.438-2.698z" clip-path="url(#k)" transform="translate(-516.155 -933.109)scale(3.39286)"/><g clip-path="url(#k)" transform="translate(-516.155 -933.109)scale(3.39286)"><path fill="none" stroke="#aab3be" stroke-width="2.756" d="M379.122 307.72c.13.43 13.428 42.771 13.428 82.996 0 11.807-1.878 43.177-19.299 79.292-16.748 34.741-40.543 65.483-73.692 84.314l1.563 3.546c.698-.195 17.442-5.499 62.009-46.071 52.241-47.611 52.198-94.963 52.177-123.251v-1.844c0-27.253-11.5-72.629-11.984-74.543l-.482-1.827-1.714-.767c-.269-.116-6.65-2.952-16.966-6.692l-7.438-2.698z" clip-path="url(#n)"/></g><path fill="#aab3be" d="M220.034 307.72c-.138.43-13.439 42.771-13.439 82.996 0 11.807 1.877 43.177 19.28 79.292 16.737 34.741 40.569 65.483 73.704 84.314l-1.577 3.546c-.677-.195-17.429-5.499-61.977-46.071-52.26-47.619-52.217-94.963-52.184-123.251v-1.844c0-27.253 11.484-72.629 11.977-74.543l.471-1.827 1.722-.767c.268-.116 6.649-2.952 16.965-6.692l7.452-2.698z" clip-path="url(#k)" transform="translate(-516.155 -933.109)scale(3.39286)"/><g clip-path="url(#k)" transform="translate(-516.155 -933.109)scale(3.39286)"><path fill="none" stroke="#aab3be" stroke-width="2.756" d="M220.034 307.72c-.138.43-13.439 42.771-13.439 82.996 0 11.807 1.877 43.177 19.28 79.292 16.737 34.741 40.569 65.483 73.704 84.314l-1.577 3.546c-.677-.195-17.429-5.499-61.977-46.071-52.26-47.619-52.217-94.963-52.184-123.251v-1.844c0-27.253 11.484-72.629 11.977-74.543l.471-1.827 1.722-.767c.268-.116 6.649-2.952 16.965-6.692l7.452-2.698z" clip-path="url(#o)"/></g><path fill="#fff" d="M299.58 554.322s-16.524-4.97-60.924-45.419c-52.166-47.511-50.914-95.144-50.914-122.202 0-27.08 11.872-73.563 11.872-73.563s6.392-2.872 16.694-6.598c0 0-13.627 42.844-13.627 84.176.001 41.325 20.782 120.387 96.899 163.606" clip-path="url(#k)" transform="translate(-516.155 -933.109)scale(3.39286)"/><path fill="#fff" d="M299.559 554.322s16.531-4.97 60.931-45.419c52.155-47.511 50.899-95.144 50.899-122.202 0-27.08-11.854-73.57-11.854-73.57s-6.4-2.861-16.705-6.591c0 0 13.623 42.844 13.623 84.176s-20.793 120.387-96.894 163.606" clip-path="url(#k)" transform="translate(-516.155 -933.109)scale(3.39286)"/><path fill="#00547c" d="M199.151 313.139s-11.782 36.282-11.782 86.434c0 50.144 27.767 89.189 50.05 108.614 0 0-42.352-49.868-42.352-106.784 0-56.937 11.832-91.483 11.832-91.483z" clip-path="url(#k)" transform="translate(-516.155 -933.109)scale(3.39286)"/><path fill="#00547c" d="M400.026 313.132s11.764 36.289 11.764 86.44c0 50.144-27.748 89.189-50.035 108.614 0 0 42.342-49.868 42.342-106.784 0-56.944-11.837-91.483-11.837-91.483z" clip-path="url(#k)" transform="translate(-516.155 -933.109)scale(3.39286)"/><path fill="#fff" d="M223.398 332.246h7.89l4.268 18.579c.098.615.531 2.46.813 4.001.134.883.217 1.237.333 2.221.311-1.035.444-1.338.868-2.576.737-1.896 1.128-2.778 1.859-4.58l7.559-17.646 7.582-.043-15.406 35.979h-6.898z" clip-path="url(#k)" transform="translate(-516.155 -933.109)scale(3.39286)"/><path fill="none" stroke="#aab3be" stroke-width="4.327" d="M223.398 332.246h7.89l4.268 18.579c.098.615.531 2.46.813 4.001.134.883.217 1.237.333 2.221.311-1.035.444-1.338.868-2.576.737-1.896 1.128-2.778 1.859-4.58l7.559-17.646 7.582-.043-15.406 35.979h-6.898z" clip-path="url(#k)" transform="translate(-516.155 -933.109)scale(3.39286)"/><path fill="#fff" d="M262.835 330.133c2.314 0 4.073 1.903 3.95 4.261-.102 2.366-2.113 4.261-4.508 4.261-2.34 0-4.156-1.896-4.008-4.261.153-2.358 2.229-4.261 4.566-4.261m-4.251 11.973 7.051-1.085-1.346 26.906h-7.246z" clip-path="url(#k)" transform="translate(-516.155 -933.109)scale(3.39286)"/><path fill="none" stroke="#aab3be" stroke-width="4.327" d="M262.835 330.133c2.314 0 4.073 1.903 3.95 4.261-.102 2.366-2.113 4.261-4.508 4.261-2.34 0-4.156-1.896-4.008-4.261.153-2.358 2.229-4.261 4.566-4.261zm-4.251 11.973 7.051-1.085-1.346 26.906h-7.246z" clip-path="url(#k)" transform="translate(-516.155 -933.109)scale(3.39286)"/><path fill="#fff" d="m288.81 343.886-3.516 4.522c-1.389-1.281-2.891-2.04-4.211-2.04-3.157 0-4.655 2.662-4.865 8.826-.123 3.422.242 5.484 1.161 6.62.734.919 1.942 1.49 3.194 1.49 1.649 0 3.176-.673 4.988-2.156l.438-.362 3.198 4.168c-1.1 1.005-1.592 1.382-2.565 1.946-1.968 1.078-4.148 1.628-6.818 1.628-7.633 0-11.854-5.021-11.46-13.543.268-6.048 2.808-10.064 6.026-12.169 1.831-1.186 4.464-1.946 6.703-1.946 1.776 0 3.636.456 5.119 1.179.999.514 1.455.875 2.608 1.837" clip-path="url(#k)" transform="translate(-516.155 -933.109)scale(3.39286)"/><path fill="none" stroke="#aab3be" stroke-width="4.327" d="m288.81 343.886-3.516 4.522c-1.389-1.281-2.891-2.04-4.211-2.04-3.157 0-4.655 2.662-4.865 8.826-.123 3.422.242 5.484 1.161 6.62.734.919 1.942 1.49 3.194 1.49 1.649 0 3.176-.673 4.988-2.156l.438-.362 3.198 4.168c-1.1 1.005-1.592 1.382-2.565 1.946-1.968 1.078-4.148 1.628-6.818 1.628-7.633 0-11.854-5.021-11.46-13.543.268-6.048 2.808-10.064 6.026-12.169 1.831-1.186 4.464-1.946 6.703-1.946 1.776 0 3.636.456 5.119 1.179.999.514 1.455.875 2.608 1.837z" clip-path="url(#k)" transform="translate(-516.155 -933.109)scale(3.39286)"/><path fill="#fff" d="m306.677 341.586-1.762 4.565h-4.507l-.011 13.399c-.004 3.335.629 4.21 3.114 4.21.641 0 1.292-.159 2.583-.514l.955 4.109c-2.123.825-4.005 1.172-5.911 1.172-3.683 0-6.652-1.534-7.441-3.835-.413-1.136-.463-1.642-.449-4.059l.167-14.484h-2.677l.072-4.456h2.662c.019-2.576.036-4.319.329-6.272l7.021-1.736a79 79 0 0 0-.416 7.9h6.271" clip-path="url(#k)" transform="translate(-516.155 -933.109)scale(3.39286)"/><path fill="none" stroke="#aab3be" stroke-width="4.327" d="m306.677 341.586-1.762 4.565h-4.507l-.011 13.399c-.004 3.335.629 4.21 3.114 4.21.641 0 1.292-.159 2.583-.514l.955 4.109c-2.123.825-4.005 1.172-5.911 1.172-3.683 0-6.652-1.534-7.441-3.835-.413-1.136-.463-1.642-.449-4.059l.167-14.484h-2.677l.072-4.456h2.662c.019-2.576.036-4.319.329-6.272l7.021-1.736a79 79 0 0 0-.416 7.9h6.271z" clip-path="url(#k)" transform="translate(-516.155 -933.109)scale(3.39286)"/><path fill="#fff" d="M319.302 341.108c3.798 0 6.822 1.295 9.228 3.972 2.254 2.453 3.328 5.339 3.506 9.593.185 4.522-.753 7.603-3.025 10.164-2.029 2.257-4.739 3.647-9.007 3.647-7.543 0-12.51-5.339-12.596-13.601-.058-8.269 4.688-13.775 11.894-13.775m.224 5.094c-1.675 0-3.024 1.027-3.57 2.669-.439 1.389-.67 3.234-.611 5.853.047 3.031.419 5.296 1.027 6.627.684 1.433 2.308 2.156 3.711 2.156 3.129 0 4.377-2.662 4.182-8.884-.104-3.545-.665-5.846-1.632-7.032-.712-.876-1.837-1.389-3.107-1.389" clip-path="url(#k)" transform="translate(-516.155 -933.109)scale(3.39286)"/><path fill="none" stroke="#aab3be" stroke-width="4.327" d="M319.302 341.108c3.798 0 6.822 1.295 9.228 3.972 2.254 2.453 3.328 5.339 3.506 9.593.185 4.522-.753 7.603-3.025 10.164-2.029 2.257-4.739 3.647-9.007 3.647-7.543 0-12.51-5.339-12.596-13.601-.058-8.269 4.688-13.775 11.894-13.775zm.224 5.094c-1.675 0-3.024 1.027-3.57 2.669-.439 1.389-.67 3.234-.611 5.853.047 3.031.419 5.296 1.027 6.627.684 1.433 2.308 2.156 3.711 2.156 3.129 0 4.377-2.662 4.182-8.884-.104-3.545-.665-5.846-1.632-7.032-.712-.876-1.837-1.389-3.107-1.389z" clip-path="url(#k)" transform="translate(-516.155 -933.109)scale(3.39286)"/><path fill="#fff" d="m333.98 342.664 6.179-1.642c.688 1.085 1.118 2.265 1.31 3.748.908-1.331 2.503-2.72 3.776-3.35.558-.253 1.487-.398 2.265-.398 1.053 0 1.52.094 2.655.565l-1.534 6.055c-.709-.362-1.287-.514-2.087-.514-1.566 0-2.952.724-4.182 2.214l1.067 18.586h-7.264l-.832-17.566c-.165-3.546-.697-6.215-1.353-7.698" clip-path="url(#k)" transform="translate(-516.155 -933.109)scale(3.39286)"/><path fill="none" stroke="#aab3be" stroke-width="4.327" d="m333.98 342.664 6.179-1.642c.688 1.085 1.118 2.265 1.31 3.748.908-1.331 2.503-2.72 3.776-3.35.558-.253 1.487-.398 2.265-.398 1.053 0 1.52.094 2.655.565l-1.534 6.055c-.709-.362-1.287-.514-2.087-.514-1.566 0-2.952.724-4.182 2.214l1.067 18.586h-7.264l-.832-17.566c-.165-3.546-.697-6.215-1.353-7.698z" clip-path="url(#k)" transform="translate(-516.155 -933.109)scale(3.39286)"/><path fill="#fff" d="m351.608 342.106 7.086-.832 5.998 15.302c.615 1.599 1.925 5.433 1.925 5.433s.274-2.923.48-4.203c.275-1.643.352-1.896.728-3.647l2.864-12.465h7.361l-7.18 26.638c-1.426 5.086-2.648 7.293-4.559 8.667-1.743 1.295-4.095 2.12-6.604 2.417l-2.872-4.515c1.555-.412 3.371-1.013 4.405-1.743.767-.557 1.357-1.281 1.889-2.163.607-1.078.803-1.52 1.306-3.068h-1.838c-.525-1.23-.792-1.751-1.389-3.089-.669-1.591-1.74-4.203-1.813-4.319z" clip-path="url(#k)" transform="translate(-516.155 -933.109)scale(3.39286)"/><path fill="none" stroke="#aab3be" stroke-width="4.327" d="m351.608 342.106 7.086-.832 5.998 15.302c.615 1.599 1.925 5.433 1.925 5.433s.274-2.923.48-4.203c.275-1.643.352-1.896.728-3.647l2.864-12.465h7.361l-7.18 26.638c-1.426 5.086-2.648 7.293-4.559 8.667-1.743 1.295-4.095 2.12-6.604 2.417l-2.872-4.515c1.555-.412 3.371-1.013 4.405-1.743.767-.557 1.357-1.281 1.889-2.163.607-1.078.803-1.52 1.306-3.068h-1.838c-.525-1.23-.792-1.751-1.389-3.089-.669-1.591-1.74-4.203-1.813-4.319z" clip-path="url(#k)" transform="translate(-516.155 -933.109)scale(3.39286)"/><path fill="#fff" d="M223.398 332.246h7.89l4.268 18.579c.098.615.531 2.46.813 4.001.134.883.217 1.237.333 2.221.311-1.035.444-1.338.868-2.576.737-1.896 1.128-2.778 1.859-4.58l7.559-17.646 7.582-.043-15.406 35.979h-6.898z" clip-path="url(#k)" transform="translate(-516.155 -933.109)scale(3.39286)"/><path fill="none" stroke="#fff" stroke-width=".385" d="M223.398 332.246h7.89l4.268 18.579c.098.615.531 2.46.813 4.001.134.883.217 1.237.333 2.221.311-1.035.444-1.338.868-2.576.737-1.896 1.128-2.778 1.859-4.58l7.559-17.646 7.582-.043-15.406 35.979h-6.898z" clip-path="url(#k)" transform="translate(-516.155 -933.109)scale(3.39286)"/><path fill="#fff" d="M262.835 330.133c2.314 0 4.073 1.903 3.95 4.261-.102 2.366-2.113 4.261-4.508 4.261-2.34 0-4.156-1.896-4.008-4.261.153-2.358 2.229-4.261 4.566-4.261m-4.251 11.973 7.051-1.085-1.346 26.906h-7.246z" clip-path="url(#k)" transform="translate(-516.155 -933.109)scale(3.39286)"/><path fill="none" stroke="#fff" stroke-width=".385" d="M262.835 330.133c2.314 0 4.073 1.903 3.95 4.261-.102 2.366-2.113 4.261-4.508 4.261-2.34 0-4.156-1.896-4.008-4.261.153-2.358 2.229-4.261 4.566-4.261zm-4.251 11.973 7.051-1.085-1.346 26.906h-7.246z" clip-path="url(#k)" transform="translate(-516.155 -933.109)scale(3.39286)"/><path fill="#fff" d="m288.81 343.886-3.516 4.522c-1.389-1.281-2.891-2.04-4.211-2.04-3.157 0-4.655 2.662-4.865 8.826-.123 3.422.242 5.484 1.161 6.62.734.919 1.942 1.49 3.194 1.49 1.649 0 3.176-.673 4.988-2.156l.438-.362 3.198 4.168c-1.1 1.005-1.592 1.382-2.565 1.946-1.968 1.078-4.148 1.628-6.818 1.628-7.633 0-11.854-5.021-11.46-13.543.268-6.048 2.808-10.064 6.026-12.169 1.831-1.186 4.464-1.946 6.703-1.946 1.776 0 3.636.456 5.119 1.179.999.514 1.455.875 2.608 1.837" clip-path="url(#k)" transform="translate(-516.155 -933.109)scale(3.39286)"/><path fill="none" stroke="#fff" stroke-width=".385" d="m288.81 343.886-3.516 4.522c-1.389-1.281-2.891-2.04-4.211-2.04-3.157 0-4.655 2.662-4.865 8.826-.123 3.422.242 5.484 1.161 6.62.734.919 1.942 1.49 3.194 1.49 1.649 0 3.176-.673 4.988-2.156l.438-.362 3.198 4.168c-1.1 1.005-1.592 1.382-2.565 1.946-1.968 1.078-4.148 1.628-6.818 1.628-7.633 0-11.854-5.021-11.46-13.543.268-6.048 2.808-10.064 6.026-12.169 1.831-1.186 4.464-1.946 6.703-1.946 1.776 0 3.636.456 5.119 1.179.999.514 1.455.875 2.608 1.837z" clip-path="url(#k)" transform="translate(-516.155 -933.109)scale(3.39286)"/><path fill="#fff" d="m306.677 341.586-1.762 4.565h-4.507l-.011 13.399c-.004 3.335.629 4.21 3.114 4.21.641 0 1.292-.159 2.583-.514l.955 4.109c-2.123.825-4.005 1.172-5.911 1.172-3.683 0-6.652-1.534-7.441-3.835-.413-1.136-.463-1.642-.449-4.059l.167-14.484h-2.677l.072-4.456h2.662c.019-2.576.036-4.319.329-6.272l7.021-1.736a79 79 0 0 0-.416 7.9h6.271" clip-path="url(#k)" transform="translate(-516.155 -933.109)scale(3.39286)"/><path fill="none" stroke="#fff" stroke-width=".385" d="m306.677 341.586-1.762 4.565h-4.507l-.011 13.399c-.004 3.335.629 4.21 3.114 4.21.641 0 1.292-.159 2.583-.514l.955 4.109c-2.123.825-4.005 1.172-5.911 1.172-3.683 0-6.652-1.534-7.441-3.835-.413-1.136-.463-1.642-.449-4.059l.167-14.484h-2.677l.072-4.456h2.662c.019-2.576.036-4.319.329-6.272l7.021-1.736a79 79 0 0 0-.416 7.9h6.271z" clip-path="url(#k)" transform="translate(-516.155 -933.109)scale(3.39286)"/><path fill="#fff" d="M319.302 341.108c3.798 0 6.822 1.295 9.228 3.972 2.254 2.453 3.328 5.339 3.506 9.593.185 4.522-.753 7.603-3.025 10.164-2.029 2.257-4.739 3.647-9.007 3.647-7.543 0-12.51-5.339-12.596-13.601-.058-8.269 4.688-13.775 11.894-13.775m.224 5.094c-1.675 0-3.024 1.027-3.57 2.669-.439 1.389-.67 3.234-.611 5.853.047 3.031.419 5.296 1.027 6.627.684 1.433 2.308 2.156 3.711 2.156 3.129 0 4.377-2.662 4.182-8.884-.104-3.545-.665-5.846-1.632-7.032-.712-.876-1.837-1.389-3.107-1.389" clip-path="url(#k)" transform="translate(-516.155 -933.109)scale(3.39286)"/><path fill="none" stroke="#fff" stroke-width=".385" d="M319.302 341.108c3.798 0 6.822 1.295 9.228 3.972 2.254 2.453 3.328 5.339 3.506 9.593.185 4.522-.753 7.603-3.025 10.164-2.029 2.257-4.739 3.647-9.007 3.647-7.543 0-12.51-5.339-12.596-13.601-.058-8.269 4.688-13.775 11.894-13.775zm.224 5.094c-1.675 0-3.024 1.027-3.57 2.669-.439 1.389-.67 3.234-.611 5.853.047 3.031.419 5.296 1.027 6.627.684 1.433 2.308 2.156 3.711 2.156 3.129 0 4.377-2.662 4.182-8.884-.104-3.545-.665-5.846-1.632-7.032-.712-.876-1.837-1.389-3.107-1.389z" clip-path="url(#k)" transform="translate(-516.155 -933.109)scale(3.39286)"/><path fill="#fff" d="m333.98 342.664 6.179-1.642c.688 1.085 1.118 2.265 1.31 3.748.908-1.331 2.503-2.72 3.776-3.35.558-.253 1.487-.398 2.265-.398 1.053 0 1.52.094 2.655.565l-1.534 6.055c-.709-.362-1.287-.514-2.087-.514-1.566 0-2.952.724-4.182 2.214l1.067 18.586h-7.264l-.832-17.566c-.165-3.546-.697-6.215-1.353-7.698" clip-path="url(#k)" transform="translate(-516.155 -933.109)scale(3.39286)"/><path fill="none" stroke="#fff" stroke-width=".385" d="m333.98 342.664 6.179-1.642c.688 1.085 1.118 2.265 1.31 3.748.908-1.331 2.503-2.72 3.776-3.35.558-.253 1.487-.398 2.265-.398 1.053 0 1.52.094 2.655.565l-1.534 6.055c-.709-.362-1.287-.514-2.087-.514-1.566 0-2.952.724-4.182 2.214l1.067 18.586h-7.264l-.832-17.566c-.165-3.546-.697-6.215-1.353-7.698z" clip-path="url(#k)" transform="translate(-516.155 -933.109)scale(3.39286)"/><path fill="#fff" d="m351.608 342.106 7.086-.832 5.998 15.302c.615 1.599 1.925 5.433 1.925 5.433s.274-2.923.48-4.203c.275-1.643.352-1.896.728-3.647l2.864-12.465h7.361l-7.18 26.638c-1.426 5.086-2.648 7.293-4.559 8.667-1.743 1.295-4.095 2.12-6.604 2.417l-2.872-4.515c1.555-.412 3.371-1.013 4.405-1.743.767-.557 1.357-1.281 1.889-2.163.607-1.078.803-1.52 1.306-3.068h-1.838c-.525-1.23-.792-1.751-1.389-3.089-.669-1.591-1.74-4.203-1.813-4.319z" clip-path="url(#k)" transform="translate(-516.155 -933.109)scale(3.39286)"/><path fill="none" stroke="#fff" stroke-width=".385" d="m351.608 342.106 7.086-.832 5.998 15.302c.615 1.599 1.925 5.433 1.925 5.433s.274-2.923.48-4.203c.275-1.643.352-1.896.728-3.647l2.864-12.465h7.361l-7.18 26.638c-1.426 5.086-2.648 7.293-4.559 8.667-1.743 1.295-4.095 2.12-6.604 2.417l-2.872-4.515c1.555-.412 3.371-1.013 4.405-1.743.767-.557 1.357-1.281 1.889-2.163.607-1.078.803-1.52 1.306-3.068h-1.838c-.525-1.23-.792-1.751-1.389-3.089-.669-1.591-1.74-4.203-1.813-4.319z" clip-path="url(#k)" transform="translate(-516.155 -933.109)scale(3.39286)"/><path fill="#fff" d="M246.491 308.827h3.697l.246 6.052c.028.879.058 1.219.007 1.852.312-.633.63-1.186 1.046-1.899l3.501-6.004h3.755l-1.443 12.103h-3.027l1.009-6.464c.123-.767.182-1.28.341-1.935a19 19 0 0 1-.963 1.783l-4.029 6.616h-2.71l-.344-6.367c-.021-.582.015-2.102.015-2.102-.21.724-.452 1.4-.727 2.142l-2.352 6.327h-3.089z" clip-path="url(#k)" transform="translate(-516.155 -933.109)scale(3.39286)"/><path fill="#fff" d="m268.861 318.847-.34 2.084h-8.884l2.553-12.104h8.115l-.692 1.989h-4.927l-.541 2.793h4.184l-.34 1.99h-4.188l-.633 3.248Z" clip-path="url(#k)" transform="translate(-516.155 -933.109)scale(3.39286)"/><path fill="#fff" d="m279.532 318.912-.766 2.019h-8.039l1.838-12.104h2.945l-1.364 10.085Z" clip-path="url(#k)" transform="translate(-516.155 -933.109)scale(3.39286)"/><path fill="#fff" d="M282.357 308.805h4.789c1.748 0 2.652.231 3.477.875.789.586 1.11 1.288 1.078 2.156-.036.825-.416 1.516-1.07 2.04-.445.333-.706.456-1.39.629 1.961.484 2.872 1.457 2.808 3.039-.065 1.675-1.44 3.212-4.117 3.342-.477.022-1.11.043-1.953.043h-4.782zm2.66 2.07-.221 2.788h1.732c.694 0 1.006-.032 1.28-.148.395-.174.804-.774.836-1.252a1.3 1.3 0 0 0-.76-1.226c-.257-.09-.561-.163-1.197-.163h-1.67zm-.348 4.796-.261 3.267h1.972c.641 0 1.064-.076 1.437-.264.47-.282.817-.843.85-1.418.036-.694-.38-1.292-1.002-1.483-.354-.087-.463-.102-1.15-.102z" clip-path="url(#k)" transform="translate(-516.155 -933.109)scale(3.39286)"/><path fill="#fff" d="M299.739 308.661c3.783 0 6.211 2.366 6.355 6.157.104 2.728-1.009 4.775-3.158 5.744-.926.398-1.772.564-3.046.564-2.314 0-3.794-.521-4.919-1.711-1.107-1.183-1.653-2.717-1.6-4.497.087-2.615 1.346-4.703 3.408-5.65.848-.387 1.893-.607 2.96-.607m-.036 1.888c-.97 0-1.845.419-2.243 1.056-.514.796-.752 1.859-.775 3.314-.025 2.083.413 3.375 1.295 3.929.471.275 1.078.405 1.795.405 2.112 0 2.966-1.284 2.908-4.373-.029-1.23-.166-2.113-.435-2.804-.223-.608-1.012-1.527-2.545-1.527" clip-path="url(#k)" transform="translate(-516.155 -933.109)scale(3.39286)"/><path fill="#fff" d="M307.629 308.827h2.926l.518 7.954c.061.908.123 1.118.351 1.451.376.532 1.114.832 2.124.832 1.32 0 2.127-.521 2.17-1.418.011-.257-.007-.419-.065-1.071l-.698-7.748h2.916l.872 8.146c.119 1.15.134 1.382-.04 1.895-.282.955-1.631 2.279-4.92 2.279-2.329 0-4.051-.55-4.978-1.609-.542-.626-.709-1.118-.767-2.283z" clip-path="url(#k)" transform="translate(-516.155 -933.109)scale(3.39286)"/><path fill="#fff" d="m320.249 308.805 5.308.022c2.521 0 4.431 1.421 4.807 3.552.315 1.802-.896 3.307-2.734 3.343.34.195.484.3.713.506.994.865 4.402 4.703 4.402 4.703h-3.603a57 57 0 0 1-1.726-1.993c-1.805-2.171-2.376-2.753-2.923-2.956a2 2 0 0 0-.47-.108l.69 5.057h-3.002zm3.09 1.975.434 3.263h.999c1.248 0 1.787-.094 2.134-.394.337-.279.456-.712.376-1.219-.115-.756-.542-1.251-1.266-1.483-.348-.108-.948-.167-1.657-.167z" clip-path="url(#k)" transform="translate(-516.155 -933.109)scale(3.39286)"/><path fill="#fff" d="M332.107 308.827h3.176l3.798 4.84c1.027 1.288 1.896 2.561 2.406 3.426a50 50 0 0 1-1.01-3.325l-1.201-4.941h2.728l2.967 12.103h-3.201l-3.589-4.634c-1.14-1.52-2.377-3.216-2.825-3.968.318.984.622 2.42.857 3.429l1.132 5.173h-2.955z" clip-path="url(#k)" transform="translate(-516.155 -933.109)scale(3.39286)"/><path fill="#fff" d="m356.206 318.847.644 2.084h-8.877l-3.159-12.104h8.115l.231 1.989h-4.931l.775 2.793h4.199l.601 1.99h-4.193l.894 3.248Z" clip-path="url(#k)" transform="translate(-516.155 -933.109)scale(3.39286)"/><path fill="#fff" d="M333.504 383.381v-8.682h6.012l-.246 1.418h-3.539v1.989h2.829v1.418h-2.829v3.857Z" clip-path="url(#k)" transform="translate(-516.155 -933.109)scale(3.39286)"/><path fill="#fff" d="M339.074 381.362c.781 0 1.433.485 1.433 1.085 0 .623-.651 1.122-1.418 1.122-.781 0-1.411-.499-1.411-1.122 0-.6.63-1.085 1.396-1.085" clip-path="url(#k)" transform="translate(-516.155 -933.109)scale(3.39286)"/><path fill="#fff" d="m348.743 375.177-1.002 1.201a3.44 3.44 0 0 0-1.783-.499c-.749 0-1.486.29-1.885.76-.434.499-.637 1.223-.637 2.221 0 1.201.138 1.859.482 2.33.434.637 1.176.97 2.134.97.611 0 1.136-.123 1.689-.42.047-.036.138-.094.21-.137l1.034 1.1c-.868.565-1.834.817-3.096.817-1.538 0-2.721-.391-3.625-1.201-.904-.788-1.353-1.831-1.353-3.104 0-1.1.246-1.968.76-2.705.86-1.259 2.452-2.019 4.243-2.019 1.115-.002 2.215.273 2.829.686" clip-path="url(#k)" transform="translate(-516.155 -933.109)scale(3.39286)"/><path fill="#fff" d="M351.084 381.362c.774 0 1.418.485 1.418 1.085 0 .623-.644 1.122-1.411 1.122-.773 0-1.403-.499-1.403-1.122 0-.6.629-1.085 1.396-1.085" clip-path="url(#k)" transform="translate(-516.155 -933.109)scale(3.39286)"/><path fill="#fff" fill-rule="evenodd" d="m198.048 394.928 4.601 31.76 96.887 82.165 96.884-82.766 6.11-27.846-6.11-26.378-97.485 78.258-96.286-78.721Z" clip-path="url(#k)" clip-rule="evenodd" transform="translate(-516.155 -933.109)scale(3.39286)"/></svg>