<svg xmlns="http://www.w3.org/2000/svg" width="1000" height="1000" viewBox="0 0 1000 1000"><path fill="#5d2881" d="m859.529 600.27-109.693-29.166c18.77-36.094 31.145-73.37 34.952-110.492l74.74-19.875-73.788 3.96c1.066-48.203-.571-92.788-5.026-136.65l29.508-19.114-30.307 11.727c-7.31-67.696-21.36-134.213-42.568-210.552l-1.332-4.76-4.76-2.056C637.63 44.075 549.905 25 463.02 25S288.295 44.075 194.555 83.33l-4.835 2.018-1.295 4.798C152.902 218.99 137.748 320.802 140.87 450.94c8.795 151.27 168.252 310.118 317.428 376.291l4.57 2.018 4.606-1.98c6.206-2.703 12.45-5.635 18.695-8.642L587.333 975l-67.202-174.306c18.314-10.47 36.476-22.197 54.257-34.952l142.094 115.48L604.2 743.05a644 644 0 0 0 54.523-49.382L810.26 752.11l-128.502-83.155c21.055-23.91 39.864-49.154 55.513-75.197z"/><path fill="#fff" d="M718.957 96.77c-178.722-68.115-333.343-67.848-512.104.039-14.201 56.502-27.223 128.083-34.647 185.575 197.53 0 388.513-.304 582.35-.304-7.804-57.455-21.092-128.883-35.599-185.31m-523.45 92.408c184.662-37.77 350.667-38.798 535.291-.19 7.387 35.523 10.395 52.657 15.04 87.457-188.089 0-374.578.38-564.723.38 4.34-34.876 7.272-52.047 14.392-87.647"/><path fill="#c5c7c8" d="M164.819 454.177c-2.36-64.993-1.523-96.329 6.054-161.094 197.379 0 388.361-.304 585.055-.304 7.957 64.879 8.224 95.796 6.472 160.98-8.186 141.751-154.354 289.214-299.419 352.951-142.894-64.27-290.319-211.885-298.162-352.533m564.837-270.71c-5.673-26.729-8.91-55.475-16.105-83.688-174.991-62.938-326.262-62.671-501.253.038-7.044 28.29-10.204 57.035-15.649 83.802 184.282-39.826 348.726-40.854 533.007-.152"/><path fill="#f68b1f" d="M548.535 456.157 758.897 320.04c-.418-4.074-.875-8.224-1.37-12.564L519.56 399.274l86.354-106.305c-18.771 0-37.542.038-56.237.038l-75.235 61.148 23.606-61.11c-19.875.038-39.788.038-59.739.038l-20.75 32.06 1.75-32.06c-19.646.039-39.292.039-58.939.039l-5.825 22.045-5.864-22.045c-19.57.038-39.255.038-58.94.038l1.752 31.944-20.712-31.944c-19.8.038-39.712.038-59.663.038l23.53 60.92-64.727-52.582c-2.97 25.967-4.76 46.603-5.635 66.783l25.167 30.955-25.738-9.938c-.267 19.19.114 39.483 1.028 64.993 5.75 103.068 86.543 209.868 185.5 284.913a427 427 0 0 0 10.66 7.881c19.685 14.316 40.055 27.376 60.577 38.836l-3.922-72.722 57.112 88.257c12.527-5.902 25.092-12.45 37.504-19.494l-37.732-97.7 84.183 68.382c11.27-7.843 22.312-16.143 33.087-24.748l-72.152-88.79 119.897 46.26a534 534 0 0 0 25.967-27.49l-116.889-75.616 166.539 8.986c5.368-8.681 10.28-17.514 14.849-26.386l-171.374-45.613 202.785-53.99c.419-3.77.8-7.539.99-11.308.038-3.237.114-6.282.19-9.328z"/><path fill="#fff" d="M356.258 715.445c-107.599 0-195.132-87.533-195.132-195.17s87.533-195.17 195.132-195.17c107.637 0 195.17 87.57 195.17 195.17s-87.533 195.17-195.17 195.17"/><path fill="#5d2881" d="M356.258 707.107c-102.992 0-186.832-83.802-186.832-186.832 0-103.068 83.802-186.87 186.832-186.87 103.068 0 186.87 83.802 186.87 186.87 0 103.03-83.802 186.832-186.87 186.832"/><path fill="#c5c7c8" d="M356.258 341.705c98.614 0 178.57 79.956 178.57 178.57s-79.956 178.57-178.57 178.57c-98.575 0-178.532-79.957-178.532-178.57 0-98.614 79.957-178.57 178.532-178.57"/><path fill="#5d2881" d="m377.352 464.99 39.597 63.852-48.469 57.378-69.562-28.366 5.483-74.969zm-8.91-114.604c-11.65 3.883-22.121 11.65-22.121 11.65s15.648 11.842 26.842 24.711c11.27 12.907 23.835 28.823 23.835 28.823s21.208-4.95 38.76-5.712c17.59-.723 33.43.153 33.43.153s-5.902-16.83-9.176-23.911c-1.752-3.846-4.722-8.948-5.75-10.813-21.626-14.964-46.336-25.015-73.56-28.785-3.122.914-7.234 2.17-12.26 3.884m-173.24 105.619c.42 8.947 6.207 37.58 6.207 37.58s13.783-12.87 27.566-20.942c14.202-8.376 16.181-8.566 32.363-17.628 0 0 2.742-19.456 6.587-35.866 3.808-16.449 10.509-36.476 10.509-36.476l-36.247 5.178a173.5 173.5 0 0 0-47.175 66.707zm48.393 188.507c9.024 2.627 26.805 3.58 26.805 3.58s-2.703-14.47-4.417-28.519c-1.713-14.011-2.246-40.778-2.246-40.778s-14.354-6.053-28.328-15.458c-13.935-9.404-33.62-26.5-33.62-26.5l-9.594 37.504c8.528 24.862 20.75 46.45 38.684 64.688 2.208.914 8.11 4.189 12.716 5.483m116.242 46.984c24.71-.495 48.279-5.977 69.41-15.763 0 0 4.34-5.635 11.46-15.572 7.12-10.014 11.423-20.75 11.423-20.75s-19.951-2.133-36.628-5.94c-16.676-3.808-35.18-9.976-35.18-9.976s-15.192 17.134-29.013 28.061c-13.783 10.966-27.11 19.532-27.11 19.532s17.096 11.88 24.254 15.23c7.12 3.275 11.384 5.178 11.384 5.178m164.635-197.455c-4.721-7.615-19.99-21.36-19.99-21.36s-7.12 12.832-14.734 24.71c-7.615 11.918-24.254 32.86-24.254 32.86s7.158 13.782 11.918 30.002c4.721 16.106 9.023 41.844 9.023 41.844L519.18 578.3c6.891-18.694 10.47-38.988 10.47-60.081 0-5.864-.038-10.775-.647-16.487 0-.038.228-.076-4.531-7.69"/><path fill="#fff" d="M234.305 227.252c1.98-16.98 18.923-35.295 40.017-38.379 19.875-2.893 29.736-4.188 49.459-6.434-.381 5.33-.572 7.995-.914 13.326-17.933 1.751-26.957 2.78-45.042 5.026-12.603 1.599-20.485 13.668-21.665 23.987-1.104 10.394 4.226 21.816 17.362 21.017 11.118-.648 16.715-.99 27.756-1.6.42-7.195.648-10.813 1.143-18.009a1863 1863 0 0 0-28.137 2.285c.418-4.531.57-6.816.99-11.346 19.113-1.98 28.594-2.856 47.517-4.34-.99 17.133-1.41 25.623-2.209 42.719-21.893.761-32.896 1.218-55.094 2.208-21.131.99-33.048-14.126-31.183-30.46m119.593.457c.723-18.77 1.142-28.213 2.056-46.946-8.148.724-12.26 1.104-20.408 1.942-1.143 18.695-1.676 28.023-2.59 46.642-.266 5.14.153 8.224 2.285 12.602 5.52 11.537 19.647 13.707 34.724 13.326 11.803-.266 17.743-.418 29.584-.57l.19-12.527c-10.47.228-15.686.342-26.119.685-6.891.19-12.412-.343-16.41-5.026-2.703-3.046-3.465-5.787-3.312-10.128m101.773 27.528c23.606-.038 45.423-8.452 44.09-41.196-.99-24.787-10.127-42.187-44.775-41.54-31.107.571-44.471 18.238-44.814 41.273-.495 30.27 16.03 41.54 45.5 41.463m-1.486-68.8c17.438-.496 24.634 12.602 24.863 26.766.266 14.24-3.313 27.832-22.807 27.985-23.225.152-25.738-13.936-25.738-27.642.038-12.68 6.396-26.653 23.682-27.11m115.176-7.234c-23.264-1.98-34.876-2.741-58.178-3.77 1.066 31.146 1.523 46.87 2.399 78.168 7.843.076 11.84.152 19.684.267-.419-11.994-.647-18.01-1.066-30.003 8.757.266 13.136.419 21.893.761 8.948 12.07 13.478 18.048 22.578 29.813 9.214.228 13.783.342 22.997.609-9.861-12.108-14.696-18.276-24.406-30.802 11.194-1.219 19.19-8.986 18.847-19.228-.456-12.755-11.917-24.71-24.748-25.815m-38.76 10.204c9.595.495 14.392.724 23.987 1.37 9.252.61 15.687 4.798 16.182 11.918.495 7.349-8.453 10.166-14.43 9.9-9.938-.495-14.888-.724-24.787-1.066-.38-8.872-.61-13.288-.952-22.122m68.687-7.234c15.23 18.428 22.997 27.452 38.57 44.776 1.065 11.841 1.598 17.743 2.512 29.622 7.767.266 11.65.457 19.418.8-1.028-11.537-1.599-17.325-2.78-28.861 12.756-14.62 18.924-21.512 30.727-34.191-9.443-1.6-14.126-2.399-23.568-3.808-7.082 9.557-10.661 14.545-18.124 24.825-9.557-11.955-14.316-18.085-23.72-30.498-9.214-1.142-13.821-1.637-23.035-2.665m-68.04 319.75c.19-.913-.647-2.322-4.873-9.061-4.493-7.158-17.439-19.19-19.951-21.512-7.501-24.558-19.342-45.614-35.258-62.48-.913-2.552-6.091-17.134-9.1-23.76-1.75-3.807-4.568-8.718-5.787-10.812l-.228-.457-.571-.457c-22.54-15.573-47.594-25.396-74.512-29.165l-.533-.115-.495.153-3.275 1.066c-2.627.8-5.559 1.751-9.023 2.894-10.509 3.502-19.875 9.899-22.16 11.574-24.33 1.37-45.918 7.996-67.773 20.75l-35.866 5.103-.647.114-.571.419c-21.056 18.428-37.504 41.806-47.708 67.62l-.19.42.038.494.076.838.076.571c.343 8.643 5.483 34.305 6.13 37.58-1.142 7.881-1.256 16.105-1.256 23.834 0 6.283.8 12.45 1.523 18.39l.114.876-9.48 37.047-.191.647.228.647c9.062 26.5 21.893 47.974 39.217 65.565l.343.304.419.229 2.78 1.256c2.855 1.371 6.815 3.313 10.165 4.265 9.214 2.627 26.576 3.617 27.338 3.617h.038c15.572 10.051 32.592 17.21 50.6 21.245l1.905 1.295c.723.495 17.362 12.07 24.596 15.42 7.082 3.313 11.422 5.178 11.46 5.254l.457.19h.495c24.863-.494 48.507-5.9 70.362-16.029l.457-.228.343-.457c.038-.038 4.454-5.75 11.498-15.649 6.435-9.023 10.509-18.39 11.46-20.712 14.164-11.156 25.473-23.454 34.572-37.504l31.869-23.187.571-.419.228-.647c7.044-19.076 10.623-39.56 10.623-60.844.114-5.673.076-10.546-.533-16.181m-29.203-29.508c-1.713 3.008-7.805 13.783-14.164 23.759-6.663 10.394-20.446 27.908-23.53 31.83-2.55.114-10.47.304-24.482-.076-13.212-.343-19.342-.952-21.512-1.219l-37.922-61.147h.152c.038-.115 3.389-11.918 8.986-26.424 4.53-11.727 7.843-19.152 8.985-21.665 4.493-.99 22.35-4.797 37.275-5.444 14.887-.61 28.67-.077 32.287.114 15.268 16.372 26.653 36.59 33.925 60.272m-195.475 12.298 69.753-17.134 37.884 61.034-46.413 54.904-66.478-27.11zm-9.823 71.77-33.201 19.8c-3.465-1.523-15.345-7.082-26.843-14.812-12.336-8.338-29.394-22.844-32.82-25.776l-.038-.419c-.724-5.825-1.485-11.803-1.485-17.819 0-7.462.114-15.306 1.18-22.806 2.78-2.475 14.773-13.136 26.576-20.104 7.653-4.493 11.727-6.587 16.448-9.024 3.77-1.941 8.072-4.112 14.811-7.92l4.76 3.275c2.627 1.828 5.635 3.846 8.604 5.978 8.986 6.587 23.074 14.887 27.262 17.324zm72.38-203.965a408 408 0 0 1 8.947-2.856l2.78-.837c25.852 3.693 49.991 13.135 71.694 28.06 1.37 2.323 3.884 6.74 5.445 10.167 2.284 5.064 6.054 15.344 7.957 20.56-5.597-.19-17.514-.533-30.231 0-15.23.647-32.82 4.34-37.808 5.445-3.008-3.808-13.517-16.944-22.96-27.833-8.756-10.014-19.874-19.228-24.71-23.15 3.58-2.436 10.966-6.89 18.885-9.556M280.3 384.234c21.094-12.222 41.882-18.618 65.336-19.913 3.084 2.36 16.144 12.831 25.815 23.873 9.404 10.813 19.875 23.91 22.845 27.68-1.219 2.78-4.531 10.242-8.948 21.665-4.493 11.612-7.539 21.512-8.643 25.281l-71.96 17.667c-3.504-2.056-18.238-10.737-27.3-17.286-3.008-2.208-6.054-4.264-8.757-6.054l-4.836-3.389c.724-4.95 3.16-20.636 6.282-34.114 3.351-14.278 8.948-31.526 10.166-35.41m-82.774 71.657-.076-.876-.038-.114c9.861-24.71 25.7-47.137 45.842-64.88l31.944-4.53c-2.056 6.472-6.587 20.864-9.442 33.124-3.313 14.126-5.826 30.65-6.435 34.953-6.777 3.77-11.041 5.978-14.773 7.92-4.797 2.474-8.91 4.645-16.676 9.176-10.204 5.977-20.18 14.316-25.015 18.542-1.6-8.034-5.064-26.538-5.33-33.315m46.717 186.451c-3.008-.838-6.74-2.627-9.48-3.922l-2.552-1.218c-16.524-16.905-28.86-37.504-37.656-62.937l8.529-33.278c5.902 5.026 20.256 16.982 31.107 24.292 11.727 7.881 23.454 13.326 27.3 15.077.152 5.75.8 27.3 2.284 39.56 1.256 10.204 3.084 20.827 3.922 25.738-5.33-.418-16.905-1.408-23.454-3.312m28.175 3.998c-.724-3.922-2.78-15.649-4.15-26.995-1.485-11.994-2.132-33.696-2.247-39.217l33.087-19.76 67.392 27.527c.495 2.399 1.828 8.148 4.036 14.469 0 0 5.597 15.953 7.158 20.598-3.388 3.77-16.258 17.59-27.832 26.843-10.47 8.3-20.713 15.268-24.94 18.047-18.732-3.807-36.399-11.08-52.504-21.512m166.462 12.45c-5.94 8.339-9.937 13.593-11.041 15.04-20.942 9.633-43.672 14.81-67.583 15.344-1.218-.571-5.102-2.323-10.89-4.988-5.177-2.437-16.029-9.671-21.169-13.136 4.683-3.122 14.507-9.861 24.482-17.743 11.956-9.48 24.71-23.301 28.328-27.223 4.645 1.485 20.027 6.397 34 9.557 12.793 2.932 27.604 4.873 33.849 5.597-1.714 3.77-5.178 10.813-9.976 17.552m12.565-21.74c-4.074-.495-21.094-2.513-35.448-5.75-14.125-3.274-29.812-8.3-33.924-9.594l-7.234-20.865c-2.133-6.054-3.465-11.727-3.96-13.936l47.022-55.627c2.475.267 8.795.876 21.817 1.219 13.516.342 21.36.19 24.406.038 1.79 3.731 7.234 15.306 11.08 28.29 4.302 14.582 8.262 37.274 8.87 41.044-8.68 13.097-19.341 24.634-32.63 35.18m65.756-60.233-29.165 21.283c-1.371-7.615-4.798-25.967-8.491-38.531-4.036-13.555-9.519-25.282-11.423-29.09 3.58-4.568 16.83-21.473 23.493-31.906 5.597-8.68 10.965-18.01 13.402-22.35 4.264 4.036 13.973 13.403 17.514 19 3.008 4.873 3.96 6.51 4.188 7.005.571 5.483.61 10.28.61 15.954.038 20.522-3.427 40.206-10.128 58.635"/><path fill="#5d2881" d="M637.82 301.27v5.71h-11.422c-4.607 0-8.872 0-11.042 4.037l-.952 4.454h23.378v5.673h-23.225v14.164h-8.3v-20.903l.76-4.226c2.666-8.148 11.385-8.91 19.838-8.91zm18.2 34.152h14.925v-6.053l-13.745-.19c-4.607 0-6.282-5.331-6.587-10.014l-.038-1.41c0-4.835 1.675-10.089 6.206-10.089h14.012v-6.473h-13.479c-2.589 0-4.188.305-6.51 1.257-5.635 2.36-8.415 9.176-8.415 15.991 0 7.196 3.046 14.354 9.138 16.22zM315.86 79.142c17.134-3.084 23.682 9.595 22.845 20.18-.952 13.021-13.63 25.243-27.452 27.337-12.907 1.98-19.38 3.008-32.25 5.33-.99 9.862-1.37 14.812-2.246 24.635-7.462 1.18-11.155 1.79-18.618 3.084 2.78-27.909 4.264-41.958 7.615-70.172 20.065-4.759 30.079-6.853 50.106-10.394M282.47 97.456c-.914 8.871-1.333 13.326-2.209 22.198 9.785-1.866 14.697-2.742 24.444-4.341 6.854-1.142 12.984-7.234 13.402-13.745.42-6.51-5.597-9.861-12.07-8.643-9.442 1.675-14.163 2.59-23.567 4.531m78.89 43.976c5.75 2.209 9.785 2.856 16.372 2.36 14.85-1.218 22.274-1.75 37.123-2.474.114-5.254.152-7.843.267-13.136-13.327.762-19.951 1.219-33.24 2.323-5.178.419-8.566-1.6-11.688-4.874-2.894-3.122-4.113-6.282-3.884-11.003 19.608-2.018 29.47-2.856 49.116-3.96.114-5.33.153-7.996.267-13.25-19.609 1.18-29.394 2.018-48.964 4.188.266-5.33 1.675-9.138 5.33-13.212 3.808-4.188 7.577-5.901 12.793-6.396 12.375-1.219 18.505-1.714 30.84-2.513.115-5.255.191-7.882.343-13.136-13.25.838-19.875 1.409-33.2 2.78-7.083.723-11.766 2.056-18.238 6.13-11.651 7.234-18.314 21.969-19.114 35.447-.8 13.555 4.264 26.271 15.877 30.726m119.326-76.568c11.841.343 21.931 11.956 21.855 25.091-.038 10.509-7.767 18.58-18.238 19.99 8.567 12.526 12.946 18.846 21.779 31.487-8.567-.419-12.87-.57-21.436-.837-8.224-11.994-12.146-17.972-20.104-29.775-8.147-.152-12.183.153-20.255.419-.038 11.765-.076 17.705-.114 29.546-7.31.19-11.004.343-18.314.647.38-30.536.609-45.765 1.18-75.844 21.398-1.105 32.173-1.447 53.647-.724m-36.4 12.64c-.037 8.644-.075 12.984-.113 21.627 9.176-.342 13.744-.57 22.92-.419 5.521.115 14.012-3.007 13.822-10.432-.153-7.082-5.902-11.042-14.469-11.194-8.871-.076-13.326.152-22.16.419m65.527-10.737c.153 5.102.229 7.615.381 12.755 10.851.723 16.296 1.104 27.11 2.132 1.217 24.672 1.789 37.085 2.93 62.024 7.083.495 10.662.8 17.782 1.37-1.333-24.748-2.056-37.084-3.465-61.68 11.042 1.218 16.524 1.903 27.566 3.464-.343-5.026-.571-7.539-.952-12.526-28.518-4.227-42.834-5.75-71.352-7.54m80.718 8.682c2.437 29.393 3.58 44.128 5.75 73.56 7.31.838 10.965 1.257 18.276 2.208-.99-11.84-1.523-17.819-2.551-29.66 13.668 2.056 20.484 3.16 34.152 5.597a4435 4435 0 0 1 3.046 28.975c7.577 1.218 11.423 1.828 19.038 3.084-3.199-28.06-4.912-42.149-8.567-70.476-7.234-1.675-10.851-2.513-18.086-4.036 1.371 11.917 2.057 17.819 3.39 29.698-13.67-2.589-20.485-3.807-34.154-5.94-1.066-12.031-1.637-18.047-2.78-30.078-7.005-1.295-10.508-1.828-17.514-2.932"/></svg>