<?xml version="1.0" encoding="UTF-8" standalone="no"?>
<svg
   xmlns:dc="http://purl.org/dc/elements/1.1/"
   xmlns:cc="http://creativecommons.org/ns#"
   xmlns:rdf="http://www.w3.org/1999/02/22-rdf-syntax-ns#"
   xmlns:svg="http://www.w3.org/2000/svg"
   xmlns="http://www.w3.org/2000/svg"
   xmlns:sodipodi="http://sodipodi.sourceforge.net/DTD/sodipodi-0.dtd"
   xmlns:inkscape="http://www.inkscape.org/namespaces/inkscape"
   version="1.2"
   id="Layer_1"
   x="0px"
   y="0px"
   width="1000"
   height="1000"
   viewBox="0 0 999.99997 1000"
   xml:space="preserve"
   sodipodi:docname="1970 - Mexico.svg"
   inkscape:version="1.0.1 (3bc2e813f5, 2020-09-07)"><metadata
   id="metadata127"><rdf:RDF><cc:Work
       rdf:about=""><dc:format>image/svg+xml</dc:format><dc:type
         rdf:resource="http://purl.org/dc/dcmitype/StillImage" /><dc:title></dc:title></cc:Work></rdf:RDF></metadata><defs
   id="defs125" /><sodipodi:namedview
   pagecolor="#ffffff"
   bordercolor="#666666"
   borderopacity="1"
   objecttolerance="10"
   gridtolerance="10"
   guidetolerance="10"
   inkscape:pageopacity="0"
   inkscape:pageshadow="2"
   inkscape:window-width="1920"
   inkscape:window-height="1017"
   id="namedview123"
   showgrid="false"
   inkscape:zoom="0.827"
   inkscape:cx="500"
   inkscape:cy="500"
   inkscape:window-x="-8"
   inkscape:window-y="-8"
   inkscape:window-maximized="1"
   inkscape:current-layer="Layer_1"
   inkscape:document-rotation="0" />
<g
   id="g1012"
   transform="matrix(6.1301792,0,0,6.1301792,170,25)"><g
     id="g120">
	<path
   d="m 41.577,154.44 h 0.652 l -2.95,-8.608 c -0.068,-0.215 -0.171,-0.323 -0.309,-0.323 -0.16,0 -0.274,0.108 -0.343,0.323 l -2.95,8.608 h 0.652 l 2.607,-7.641 z"
   id="path2" />
	<path
   d="m 11.501,131.857 c 0.229,0.36 0.446,0.54 0.652,0.54 0.114,0 0.343,-0.192 0.686,-0.576 0.411,-0.432 0.834,-0.779 1.269,-1.043 0.64,-0.385 1.44,-0.576 2.401,-0.576 1.555,0 2.79,0.442 3.704,1.325 1.052,1.004 1.578,2.437 1.578,4.301 v 18.705 h 0.67 V 135.79 c 0,-1.987 -0.572,-3.58 -1.716,-4.776 -1.053,-1.102 -2.472,-1.652 -4.255,-1.652 -1.74,0 -3.192,0.682 -4.359,2.045 -1.167,-1.363 -2.609,-2.045 -4.325,-2.045 -1.761,0 -3.169,0.551 -4.221,1.652 -1.145,1.196 -1.716,2.789 -1.716,4.776 v 18.743 h 0.715 v -18.705 c 0,-1.864 0.502,-3.297 1.509,-4.301 0.915,-0.883 2.161,-1.325 3.739,-1.325 1.668,0 2.892,0.551 3.669,1.655 z"
   id="path4" />
	<path
   d="m 11.785,136.539 v 17.994 H 12.5 v -17.994 c 0,-1.051 0.319,-2.091 0.958,-3.119 0.775,-1.241 1.791,-1.863 3.047,-1.863 1.026,0 1.939,0.395 2.738,1.183 0.776,0.789 1.164,1.816 1.164,3.083 v 18.711 h 0.714 V 135.79 c 0,-1.58 -0.441,-2.813 -1.325,-3.699 -0.884,-0.886 -1.978,-1.328 -3.286,-1.328 -1.031,0 -1.949,0.335 -2.752,1.005 -0.803,0.67 -1.341,1.506 -1.616,2.51 -0.275,-1.004 -0.802,-1.84 -1.579,-2.51 -0.779,-0.67 -1.693,-1.005 -2.747,-1.005 -1.328,0 -2.402,0.431 -3.226,1.293 -0.893,0.909 -1.339,2.154 -1.339,3.734 v 18.743 h 0.67 v -18.711 c 0,-1.267 0.388,-2.294 1.163,-3.083 0.775,-0.788 1.686,-1.183 2.734,-1.183 1.23,0 2.234,0.622 3.008,1.863 0.64,1.029 0.959,2.069 0.959,3.12 z"
   id="path6" />
	<path
   d="m 4.593,135.817 v 18.716 h 0.67 v -18.722 c 0,-0.765 0.233,-1.422 0.702,-1.973 0.468,-0.551 1.079,-0.825 1.832,-0.825 0.753,0 1.393,0.395 1.918,1.184 0.456,0.741 0.685,1.519 0.685,2.331 v 18.005 h 0.714 v -17.998 c 0,-1.005 -0.32,-1.948 -0.961,-2.833 -0.664,-0.933 -1.442,-1.398 -2.334,-1.398 -0.869,0 -1.625,0.37 -2.266,1.111 -0.639,0.693 -0.96,1.494 -0.96,2.402 z"
   id="path8" />
	<path
   d="m 19.737,154.533 v -18.716 c 0,-0.908 -0.322,-1.709 -0.963,-2.402 -0.643,-0.741 -1.398,-1.111 -2.269,-1.111 -0.94,0 -1.731,0.466 -2.373,1.398 -0.642,0.885 -0.962,1.828 -0.962,2.833 v 17.998 h 0.715 v -18.005 c 0,-0.813 0.239,-1.602 0.719,-2.367 0.479,-0.764 1.108,-1.147 1.884,-1.147 0.753,0 1.363,0.274 1.833,0.825 0.468,0.551 0.702,1.208 0.702,1.973 v 18.722 h 0.714 z"
   id="path10" />
	<path
   d="m 28.704,153.833 c -1.762,0.049 -3.259,-0.562 -4.494,-1.829 -1.213,-1.268 -1.818,-2.811 -1.818,-4.628 v -10.691 c 0,-1.722 0.627,-3.24 1.883,-4.556 1.255,-1.315 2.705,-1.974 4.35,-1.974 1.575,0 3.002,0.664 4.281,1.992 1.279,1.328 1.883,2.828 1.815,4.502 h 0.714 c 0.137,-2.008 -0.491,-3.705 -1.886,-5.093 -1.395,-1.432 -3.028,-2.16 -4.902,-2.186 -1.92,-0.047 -3.555,0.635 -4.903,2.045 -1.348,1.365 -2.023,3.112 -2.023,5.241 v 10.697 c 0,1.985 0.687,3.674 2.061,5.062 1.396,1.412 3.031,2.117 4.909,2.117 1.877,0 3.491,-0.711 4.842,-2.135 1.35,-1.411 2.014,-3.108 1.992,-5.094 H 34.81 c 0.068,1.698 -0.526,3.204 -1.784,4.52 -1.235,1.293 -2.675,1.963 -4.322,2.01 z"
   id="path12" />
	<path
   d="m 28.806,152.385 c -1.505,0.071 -2.714,-0.371 -3.626,-1.327 -0.936,-0.979 -1.404,-2.211 -1.404,-3.693 v -5.021 h 7.205 v -0.747 h -7.205 v -4.949 c 0,-1.387 0.478,-2.581 1.434,-3.586 0.956,-1.004 2.094,-1.506 3.415,-1.506 1.297,0 2.423,0.515 3.38,1.545 0.956,1.006 1.4,2.191 1.332,3.556 h 0.714 c 0.091,-1.581 -0.412,-2.945 -1.511,-4.095 -1.123,-1.173 -2.427,-1.771 -3.915,-1.796 -1.556,-0.047 -2.873,0.527 -3.949,1.724 -1.076,1.174 -1.614,2.563 -1.614,4.167 v 10.703 c 0,1.652 0.539,3.042 1.617,4.167 1.078,1.125 2.419,1.676 4.026,1.651 1.491,-0.022 2.787,-0.61 3.887,-1.762 1.055,-1.147 1.571,-2.522 1.548,-4.125 h -0.714 c -0.046,1.482 -0.501,2.679 -1.369,3.587 -0.89,0.933 -1.974,1.436 -3.251,1.507 z"
   id="path14" />
	<path
   fill="#ffffff"
   stroke="#ffffff"
   stroke-width="3.2634"
   stroke-miterlimit="2.6131"
   d="m 31.984,136.662 h 0.682 c 0.115,-1.195 -0.262,-2.224 -1.13,-3.085 -0.822,-0.849 -1.792,-1.273 -2.911,-1.273 -0.617,0 -1.182,0.108 -1.695,0.322 -0.514,0.215 -0.954,0.52 -1.319,0.913 -0.366,0.394 -0.651,0.854 -0.856,1.378 -0.205,0.526 -0.308,1.11 -0.308,1.755 v 4.226 h 6.547 v -0.701 h -5.832 v -3.523 c 0,-1.079 0.33,-1.973 0.989,-2.68 0.66,-0.707 1.49,-1.037 2.491,-0.988 1.022,0.071 1.847,0.43 2.473,1.075 0.624,0.644 0.914,1.504 0.869,2.581 z"
   id="path16" />
	<path
   d="m 28.753,151.002 c -1.163,0.049 -2.052,-0.251 -2.668,-0.896 -0.616,-0.645 -0.923,-1.555 -0.923,-2.727 v -3.587 h 5.832 v -0.748 h -6.547 v 4.32 c 0,0.647 0.108,1.242 0.326,1.782 0.218,0.539 0.521,1.008 0.91,1.403 0.389,0.396 0.852,0.696 1.391,0.899 0.537,0.205 1.115,0.283 1.733,0.235 0.549,-0.024 1.064,-0.155 1.545,-0.395 0.48,-0.239 0.898,-0.551 1.253,-0.934 0.355,-0.383 0.635,-0.831 0.841,-1.346 0.206,-0.514 0.309,-1.082 0.309,-1.703 h -0.684 c -0.069,1.148 -0.411,2.039 -1.027,2.672 -0.614,0.638 -1.379,0.979 -2.291,1.025 z"
   id="path18" />
	<polygon
   points="32.967,154.44 33.653,154.44 37.941,141.918 33.653,129.361 32.967,129.361 37.255,141.918 "
   id="polygon20" />
	<polygon
   points="38.902,140.802 34.99,129.361 34.304,129.361 38.558,141.775 34.304,154.44 34.99,154.44 38.936,142.891 42.916,154.44 43.602,154.44 39.279,141.918 43.602,129.361 42.778,129.325 "
   id="polygon22" />
	<path
   fill="#ffffff"
   stroke="#ffffff"
   stroke-width="3.2634"
   stroke-miterlimit="2.6131"
   d="m 39.279,137.97 2.95,-8.609 H 41.577 L 38.936,137 36.329,129.36 h -0.652 l 2.95,8.609 c 0.069,0.238 0.172,0.357 0.309,0.357 0.16,0.002 0.274,-0.118 0.343,-0.356 z"
   id="path24" />
	<polygon
   points="40.308,140.914 40.034,141.918 44.253,154.44 44.94,154.44 40.617,141.918 44.94,129.361 44.253,129.361 "
   id="polygon26" />
	<polygon
   points="46.31,129.319 46.31,154.498 47.024,154.498 47.024,129.319 "
   id="polygon28" />
	<polygon
   points="48.364,129.319 47.694,129.319 47.694,154.498 48.364,154.498 "
   id="polygon30" />
	<polygon
   points="49.749,129.319 49.034,129.319 49.034,154.498 49.749,154.498 "
   id="polygon32" />
	<path
   d="m 64.225,147.258 h -0.67 c 0.068,1.697 -0.524,3.204 -1.78,4.519 -1.233,1.292 -2.672,1.961 -4.314,2.009 -1.599,0.024 -3.05,-0.596 -4.351,-1.861 -1.256,-1.289 -1.883,-2.781 -1.883,-4.476 v -10.956 c 0,-1.719 0.627,-3.199 1.883,-4.439 1.233,-1.218 2.684,-1.85 4.351,-1.898 1.574,-0.024 3,0.646 4.28,2.007 1.278,1.338 1.883,2.843 1.814,4.514 h 0.67 c 0.046,-1.934 -0.628,-3.642 -2.022,-5.123 -1.371,-1.529 -2.96,-2.282 -4.765,-2.259 -1.852,0.049 -3.475,0.777 -4.869,2.188 -1.372,1.41 -2.057,3.081 -2.057,5.016 v 10.964 c 0,1.912 0.696,3.596 2.091,5.052 1.417,1.435 3.028,2.139 4.835,2.114 1.874,-0.049 3.473,-0.807 4.799,-2.275 1.37,-1.46 2.034,-3.159 1.988,-5.096 z"
   id="path34" />
	<path
   d="M 62.885,147.292 H 62.17 c 0.068,1.412 -0.378,2.597 -1.338,3.554 -0.96,1.006 -2.093,1.521 -3.395,1.544 -1.304,0.024 -2.447,-0.442 -3.43,-1.399 -0.961,-0.958 -1.44,-2.131 -1.44,-3.519 v -10.985 c 0,-1.388 0.479,-2.548 1.44,-3.481 0.937,-0.966 2.08,-1.448 3.43,-1.448 1.302,0 2.435,0.515 3.395,1.545 0.96,1.006 1.406,2.191 1.338,3.556 h 0.715 c 0.091,-1.532 -0.424,-2.897 -1.545,-4.095 -1.1,-1.197 -2.394,-1.796 -3.88,-1.796 -1.604,0 -2.933,0.575 -3.985,1.724 -1.052,1.102 -1.579,2.49 -1.579,4.167 v 10.812 c 0,1.557 0.549,2.909 1.649,4.059 1.121,1.15 2.427,1.7 3.915,1.651 1.486,-0.022 2.791,-0.621 3.914,-1.794 1.099,-1.2 1.602,-2.563 1.511,-4.095 z"
   id="path36" />
	<path
   d="m 61.5,147.275 h -0.715 c 0.046,1.076 -0.244,1.955 -0.87,2.635 -0.628,0.682 -1.454,1.021 -2.478,1.021 -1.026,0 -1.863,-0.31 -2.514,-0.932 -0.648,-0.621 -0.973,-1.47 -0.973,-2.545 v -10.969 c 0,-1.074 0.324,-1.93 0.973,-2.563 0.65,-0.634 1.487,-0.938 2.514,-0.914 1.023,0.024 1.85,0.371 2.478,1.039 0.626,0.67 0.916,1.541 0.87,2.617 H 61.5 c 0.092,-1.147 -0.276,-2.175 -1.103,-3.082 -0.826,-0.885 -1.813,-1.327 -2.96,-1.327 -0.62,0 -1.183,0.108 -1.688,0.322 -0.506,0.216 -0.946,0.521 -1.324,0.915 -0.38,0.394 -0.671,0.86 -0.878,1.397 -0.206,0.538 -0.309,1.13 -0.309,1.774 v 10.789 c 0,1.195 0.413,2.199 1.239,3.012 0.803,0.813 1.79,1.219 2.961,1.219 1.146,0 2.134,-0.443 2.96,-1.327 0.826,-0.906 1.194,-1.934 1.102,-3.081 z"
   id="path38" />
	<path
   d="m 77.544,147.493 v -10.804 c 0,-2.034 -0.709,-3.721 -2.126,-5.062 -1.417,-1.339 -3.052,-2.01 -4.901,-2.01 -1.92,0 -3.509,0.683 -4.766,2.047 -1.28,1.34 -1.92,3.015 -1.92,5.024 v 10.804 c 0,1.915 0.662,3.603 1.988,5.062 1.325,1.459 2.891,2.189 4.697,2.189 1.987,0 3.645,-0.694 4.972,-2.082 1.371,-1.387 2.056,-3.111 2.056,-5.168 z m -0.67,-10.79 v 10.777 c 0,1.813 -0.628,3.342 -1.884,4.583 -1.281,1.265 -2.767,1.91 -4.457,1.934 -1.577,0 -2.982,-0.669 -4.216,-2.006 -1.212,-1.384 -1.816,-2.888 -1.816,-4.511 v -10.777 c 0,-1.646 0.616,-3.115 1.852,-4.403 1.232,-1.289 2.627,-1.934 4.181,-1.934 1.69,0 3.165,0.62 4.422,1.86 1.279,1.266 1.918,2.758 1.918,4.477 z m -0.67,10.793 v -10.798 c 0,-1.578 -0.571,-2.941 -1.717,-4.09 -1.122,-1.147 -2.439,-1.661 -3.949,-1.542 -1.466,-0.095 -2.725,0.431 -3.777,1.578 -1.03,1.196 -1.545,2.547 -1.545,4.054 v 10.798 c 0,1.506 0.526,2.857 1.579,4.054 1.099,1.291 2.347,1.889 3.743,1.793 1.556,0.12 2.885,-0.418 3.984,-1.614 1.122,-1.173 1.682,-2.583 1.682,-4.233 z m -0.715,-10.8 v 10.803 c 0,1.412 -0.488,2.621 -1.468,3.625 -1.001,0.98 -2.163,1.472 -3.482,1.472 -1.253,0 -2.333,-0.513 -3.243,-1.54 -0.911,-1.027 -1.365,-2.21 -1.365,-3.549 v -10.785 c 0,-0.716 0.113,-1.373 0.341,-1.97 0.228,-0.597 0.546,-1.11 0.955,-1.541 0.41,-0.43 0.894,-0.77 1.451,-1.021 0.558,-0.251 1.179,-0.376 1.861,-0.376 1.389,0 2.549,0.467 3.482,1.4 0.98,0.933 1.468,2.093 1.468,3.482 z m -0.67,10.792 v -10.783 c 0,-0.646 -0.108,-1.23 -0.324,-1.756 -0.218,-0.524 -0.514,-0.972 -0.892,-1.343 -0.376,-0.37 -0.827,-0.651 -1.353,-0.843 -0.525,-0.19 -1.097,-0.274 -1.712,-0.25 -1.12,-0.071 -2.056,0.322 -2.81,1.183 -0.752,0.836 -1.129,1.839 -1.129,3.009 v 10.783 c 0,1.171 0.388,2.198 1.164,3.081 0.776,0.885 1.7,1.325 2.774,1.325 1.141,0 2.146,-0.417 3.014,-1.253 0.846,-0.859 1.268,-1.911 1.268,-3.153 z m -0.67,-10.8 v 10.781 c 0,2.316 -1.204,3.558 -3.611,3.725 -0.963,-0.071 -1.749,-0.459 -2.355,-1.164 -0.609,-0.704 -0.912,-1.558 -0.912,-2.561 v -10.781 c 0,-1.074 0.286,-1.923 0.859,-2.543 0.573,-0.62 1.375,-0.932 2.408,-0.932 1.101,0 1.978,0.306 2.631,0.914 0.653,0.608 0.98,1.462 0.98,2.561 z"
   id="path40" />
	<polygon
   points="85.599,154.721 86.259,154.721 94.987,129.393 82.47,129.393 82.47,130.148 94.047,130.148 "
   id="polygon42" />
	<polygon
   points="93.108,130.856 82.47,130.856 82.47,131.611 92.17,131.611 84.208,154.735 84.903,154.735 "
   id="polygon44" />
	<polygon
   points="90.327,133.027 82.853,154.7 83.547,154.7 91.267,132.32 82.47,132.32 82.47,133.027 "
   id="polygon46" />
	<path
   d="m 106.421,147.644 v -10.917 c 0,-2.055 -0.719,-3.76 -2.154,-5.113 -1.438,-1.354 -3.094,-2.032 -4.97,-2.032 -1.946,0 -3.556,0.69 -4.83,2.068 -1.297,1.354 -1.946,3.047 -1.946,5.077 v 10.917 c 0,1.936 0.673,3.641 2.017,5.114 1.344,1.476 2.93,2.213 4.76,2.213 2.016,0 3.694,-0.701 5.039,-2.104 1.388,-1.403 2.084,-3.143 2.084,-5.223 z m -0.68,-10.903 v 10.89 c 0,1.834 -0.637,3.378 -1.91,4.632 -1.298,1.278 -2.804,1.93 -4.517,1.953 -1.598,0 -3.022,-0.675 -4.272,-2.025 -1.229,-1.399 -1.842,-2.919 -1.842,-4.56 v -10.89 c 0,-1.664 0.625,-3.147 1.877,-4.449 1.25,-1.303 2.663,-1.954 4.237,-1.954 1.713,0 3.207,0.627 4.481,1.881 1.298,1.278 1.946,2.785 1.946,4.522 z m -0.679,10.906 v -10.911 c 0,-1.594 -0.58,-2.972 -1.74,-4.133 -1.138,-1.158 -2.472,-1.678 -4.002,-1.559 -1.485,-0.096 -2.762,0.437 -3.828,1.596 -1.044,1.208 -1.566,2.573 -1.566,4.096 v 10.911 c 0,1.522 0.534,2.888 1.601,4.096 1.114,1.305 2.378,1.909 3.794,1.813 1.578,0.121 2.924,-0.423 4.037,-1.631 1.135,-1.185 1.704,-2.61 1.704,-4.278 z m -0.725,-10.913 v 10.916 c 0,1.427 -0.494,2.648 -1.486,3.663 -1.016,0.992 -2.192,1.487 -3.53,1.487 -1.269,0 -2.365,-0.519 -3.287,-1.557 -0.922,-1.038 -1.384,-2.233 -1.384,-3.585 V 136.76 c 0,-0.725 0.115,-1.388 0.346,-1.991 0.23,-0.603 0.553,-1.122 0.968,-1.557 0.416,-0.435 0.906,-0.778 1.472,-1.032 0.564,-0.253 1.193,-0.38 1.886,-0.38 1.406,0 2.583,0.472 3.53,1.415 0.991,0.944 1.485,2.116 1.485,3.519 z m -0.678,10.905 v -10.896 c 0,-0.652 -0.11,-1.244 -0.33,-1.774 -0.221,-0.531 -0.521,-0.983 -0.902,-1.357 -0.383,-0.374 -0.84,-0.657 -1.371,-0.851 -0.532,-0.194 -1.111,-0.278 -1.735,-0.253 -1.135,-0.073 -2.083,0.325 -2.847,1.194 -0.764,0.845 -1.145,1.857 -1.145,3.041 v 10.896 c 0,1.183 0.393,2.221 1.179,3.114 0.787,0.893 1.725,1.339 2.813,1.339 1.156,0 2.175,-0.422 3.054,-1.267 0.855,-0.868 1.284,-1.931 1.284,-3.186 z m -0.68,-10.913 v 10.894 c 0,2.341 -1.221,3.596 -3.66,3.765 -0.976,-0.072 -1.772,-0.464 -2.388,-1.176 -0.617,-0.712 -0.925,-1.574 -0.925,-2.589 v -10.894 c 0,-1.085 0.29,-1.941 0.873,-2.569 0.58,-0.627 1.394,-0.941 2.439,-0.941 1.115,0 2.004,0.309 2.667,0.924 0.663,0.614 0.994,1.477 0.994,2.586 z"
   id="path48" />
	<polygon
   points="85.692,154.668 86.353,154.668 95.08,129.34 82.563,129.34 82.563,130.095 94.142,130.095 "
   id="polygon50" />
	<polygon
   points="93.202,130.803 82.563,130.803 82.563,131.558 92.264,131.558 84.302,154.681 84.998,154.681 "
   id="polygon52" />
	<polygon
   points="90.421,132.974 82.946,154.647 83.642,154.647 91.36,132.266 82.563,132.266 82.563,132.974 "
   id="polygon54" />
	<path
   d="m 106.515,147.591 v -10.917 c 0,-2.055 -0.719,-3.76 -2.155,-5.114 -1.437,-1.354 -3.093,-2.031 -4.969,-2.031 -1.946,0 -3.556,0.689 -4.829,2.067 -1.298,1.354 -1.946,3.047 -1.946,5.078 v 10.917 c 0,1.935 0.672,3.64 2.016,5.114 1.343,1.475 2.93,2.212 4.76,2.212 2.016,0 3.694,-0.7 5.039,-2.104 1.387,-1.401 2.084,-3.142 2.084,-5.222 z m -0.68,-10.903 v 10.89 c 0,1.834 -0.637,3.378 -1.911,4.632 -1.297,1.278 -2.803,1.93 -4.515,1.953 -1.599,0 -3.022,-0.675 -4.273,-2.026 -1.228,-1.398 -1.841,-2.918 -1.841,-4.559 v -10.89 c 0,-1.664 0.625,-3.147 1.876,-4.449 1.25,-1.303 2.663,-1.954 4.238,-1.954 1.712,0 3.206,0.627 4.48,1.881 1.298,1.278 1.946,2.786 1.946,4.522 z m -0.679,10.906 v -10.911 c 0,-1.594 -0.58,-2.972 -1.74,-4.133 -1.138,-1.159 -2.472,-1.679 -4.002,-1.559 -1.486,-0.096 -2.763,0.436 -3.829,1.596 -1.044,1.208 -1.566,2.573 -1.566,4.096 v 10.911 c 0,1.522 0.534,2.888 1.601,4.096 1.114,1.306 2.379,1.908 3.795,1.813 1.577,0.121 2.923,-0.423 4.037,-1.631 1.135,-1.185 1.704,-2.61 1.704,-4.278 z m -0.724,-10.913 v 10.916 c 0,1.427 -0.496,2.648 -1.487,3.663 -1.016,0.991 -2.192,1.487 -3.53,1.487 -1.269,0 -2.364,-0.519 -3.287,-1.557 -0.923,-1.039 -1.384,-2.232 -1.384,-3.585 v -10.898 c 0,-0.725 0.115,-1.388 0.347,-1.991 0.229,-0.603 0.552,-1.122 0.968,-1.557 0.415,-0.435 0.905,-0.778 1.471,-1.032 0.566,-0.254 1.194,-0.38 1.886,-0.38 1.407,0 2.584,0.472 3.53,1.415 0.99,0.944 1.486,2.116 1.486,3.519 z m -0.679,10.905 V 136.69 c 0,-0.652 -0.11,-1.244 -0.33,-1.775 -0.22,-0.53 -0.521,-0.982 -0.902,-1.356 -0.381,-0.374 -0.839,-0.657 -1.371,-0.851 -0.533,-0.194 -1.111,-0.278 -1.735,-0.253 -1.135,-0.073 -2.084,0.325 -2.847,1.194 -0.764,0.845 -1.145,1.857 -1.145,3.041 v 10.896 c 0,1.183 0.393,2.221 1.179,3.114 0.787,0.893 1.725,1.339 2.813,1.339 1.156,0 2.175,-0.422 3.055,-1.267 0.854,-0.868 1.283,-1.931 1.283,-3.186 z m -0.68,-10.913 v 10.894 c 0,2.341 -1.22,3.596 -3.659,3.765 -0.977,-0.072 -1.773,-0.464 -2.389,-1.176 -0.616,-0.712 -0.924,-1.574 -0.924,-2.589 v -10.894 c 0,-1.086 0.29,-1.942 0.871,-2.569 0.581,-0.627 1.395,-0.941 2.441,-0.941 1.114,0 2.003,0.309 2.666,0.924 0.662,0.614 0.994,1.476 0.994,2.586 z"
   id="path56" />
	<path
   d="m 41.671,154.387 h 0.652 l -2.951,-8.608 c -0.068,-0.215 -0.171,-0.323 -0.309,-0.323 -0.16,0 -0.274,0.108 -0.343,0.323 l -2.951,8.608 h 0.653 l 2.607,-7.641 z"
   id="path58" />
	<path
   d="m 11.595,131.804 c 0.229,0.359 0.446,0.539 0.652,0.539 0.115,0 0.343,-0.191 0.687,-0.575 0.411,-0.433 0.834,-0.779 1.269,-1.043 0.64,-0.385 1.44,-0.577 2.4,-0.577 1.556,0 2.79,0.443 3.705,1.326 1.052,1.004 1.578,2.437 1.578,4.301 v 18.705 h 0.67 v -18.743 c 0,-1.988 -0.572,-3.58 -1.716,-4.777 -1.053,-1.101 -2.472,-1.651 -4.256,-1.651 -1.74,0 -3.192,0.682 -4.358,2.045 -1.167,-1.363 -2.609,-2.045 -4.325,-2.045 -1.762,0 -3.169,0.551 -4.222,1.651 -1.145,1.197 -1.716,2.789 -1.716,4.777 v 18.743 h 0.714 v -18.705 c 0,-1.864 0.502,-3.297 1.51,-4.301 0.914,-0.883 2.161,-1.326 3.738,-1.326 1.669,0 2.893,0.553 3.67,1.656 z"
   id="path60" />
	<path
   d="m 11.879,136.485 v 17.995 h 0.714 v -17.995 c 0,-1.05 0.319,-2.09 0.959,-3.118 0.775,-1.241 1.791,-1.863 3.046,-1.863 1.026,0 1.938,0.395 2.738,1.183 0.776,0.789 1.164,1.816 1.164,3.083 v 18.711 h 0.715 v -18.743 c 0,-1.58 -0.442,-2.813 -1.325,-3.699 -0.883,-0.886 -1.979,-1.328 -3.286,-1.328 -1.032,0 -1.95,0.334 -2.752,1.005 -0.803,0.67 -1.342,1.506 -1.617,2.51 -0.275,-1.004 -0.801,-1.84 -1.579,-2.51 -0.778,-0.671 -1.693,-1.005 -2.746,-1.005 -1.328,0 -2.403,0.431 -3.227,1.293 -0.893,0.909 -1.338,2.154 -1.338,3.734 v 18.743 h 0.67 V 135.77 c 0,-1.267 0.387,-2.294 1.162,-3.083 0.774,-0.788 1.686,-1.183 2.734,-1.183 1.23,0 2.233,0.622 3.008,1.863 0.642,1.028 0.96,2.068 0.96,3.118 z"
   id="path62" />
	<path
   d="m 4.688,135.764 v 18.716 h 0.67 v -18.722 c 0,-0.766 0.234,-1.422 0.702,-1.973 0.468,-0.55 1.078,-0.826 1.832,-0.826 0.753,0 1.392,0.396 1.918,1.185 0.457,0.741 0.685,1.519 0.685,2.331 v 18.005 h 0.715 v -17.999 c 0,-1.004 -0.321,-1.948 -0.961,-2.833 -0.664,-0.932 -1.441,-1.397 -2.334,-1.397 -0.87,0 -1.625,0.37 -2.266,1.111 -0.641,0.693 -0.961,1.494 -0.961,2.402 z"
   id="path64" />
	<path
   d="m 19.831,154.48 v -18.716 c 0,-0.908 -0.321,-1.709 -0.962,-2.402 -0.642,-0.741 -1.398,-1.111 -2.269,-1.111 -0.94,0 -1.731,0.466 -2.373,1.397 -0.642,0.885 -0.962,1.829 -0.962,2.833 v 17.999 h 0.714 v -18.005 c 0,-0.813 0.239,-1.602 0.719,-2.367 0.479,-0.765 1.107,-1.148 1.883,-1.148 0.753,0 1.364,0.276 1.832,0.826 0.467,0.551 0.703,1.207 0.703,1.973 v 18.722 h 0.715 z"
   id="path66" />
	<path
   d="m 28.797,153.78 c -1.761,0.049 -3.259,-0.562 -4.493,-1.829 -1.212,-1.269 -1.819,-2.811 -1.819,-4.628 v -10.691 c 0,-1.723 0.628,-3.24 1.884,-4.557 1.255,-1.314 2.706,-1.973 4.35,-1.973 1.576,0 3.002,0.664 4.281,1.992 1.278,1.328 1.883,2.828 1.815,4.501 h 0.714 c 0.137,-2.008 -0.491,-3.704 -1.886,-5.092 -1.395,-1.432 -3.028,-2.16 -4.902,-2.186 -1.92,-0.047 -3.554,0.635 -4.902,2.045 -1.349,1.364 -2.023,3.111 -2.023,5.241 V 147.3 c 0,1.985 0.687,3.673 2.06,5.062 1.396,1.412 3.032,2.117 4.91,2.117 1.877,0 3.491,-0.711 4.842,-2.135 1.35,-1.411 2.013,-3.108 1.991,-5.094 h -0.714 c 0.068,1.698 -0.526,3.204 -1.784,4.52 -1.236,1.293 -2.677,1.962 -4.324,2.01 z"
   id="path68" />
	<path
   d="m 28.9,152.333 c -1.506,0.071 -2.715,-0.371 -3.627,-1.327 -0.935,-0.979 -1.402,-2.211 -1.402,-3.693 v -5.021 h 7.204 v -0.746 h -7.204 v -4.949 c 0,-1.387 0.477,-2.582 1.433,-3.586 0.956,-1.004 2.094,-1.506 3.415,-1.506 1.297,0 2.423,0.515 3.38,1.545 0.956,1.006 1.4,2.19 1.331,3.556 h 0.715 c 0.09,-1.581 -0.413,-2.945 -1.511,-4.095 -1.123,-1.173 -2.427,-1.771 -3.915,-1.796 -1.557,-0.047 -2.873,0.527 -3.949,1.724 -1.076,1.174 -1.614,2.563 -1.614,4.167 v 10.703 c 0,1.652 0.539,3.042 1.617,4.167 1.078,1.125 2.42,1.676 4.025,1.651 1.491,-0.022 2.787,-0.61 3.888,-1.762 1.055,-1.147 1.57,-2.522 1.548,-4.126 H 33.52 c -0.046,1.483 -0.502,2.68 -1.368,3.588 -0.891,0.93 -1.974,1.434 -3.252,1.506 z"
   id="path70" />
	<path
   d="m 32.078,136.609 h 0.682 c 0.114,-1.195 -0.262,-2.224 -1.13,-3.085 -0.822,-0.849 -1.793,-1.273 -2.912,-1.273 -0.617,0 -1.181,0.107 -1.695,0.322 -0.514,0.215 -0.953,0.52 -1.318,0.913 -0.366,0.394 -0.651,0.853 -0.856,1.378 -0.206,0.526 -0.308,1.11 -0.308,1.755 v 4.225 h 6.547 v -0.7 h -5.833 v -3.524 c 0,-1.078 0.33,-1.972 0.99,-2.679 0.66,-0.707 1.489,-1.037 2.49,-0.989 1.024,0.072 1.848,0.431 2.473,1.075 0.625,0.645 0.915,1.506 0.87,2.582 z"
   id="path72" />
	<path
   d="m 28.847,150.95 c -1.164,0.049 -2.053,-0.251 -2.668,-0.896 -0.616,-0.646 -0.924,-1.555 -0.924,-2.727 v -3.588 h 5.833 v -0.747 h -6.547 v 4.32 c 0,0.647 0.108,1.242 0.327,1.782 0.218,0.539 0.52,1.008 0.91,1.403 0.388,0.396 0.852,0.696 1.391,0.899 0.537,0.205 1.115,0.282 1.734,0.234 0.549,-0.023 1.064,-0.154 1.545,-0.394 0.48,-0.239 0.898,-0.551 1.253,-0.934 0.355,-0.383 0.635,-0.831 0.841,-1.346 0.206,-0.514 0.309,-1.082 0.309,-1.703 h -0.685 c -0.068,1.148 -0.411,2.039 -1.026,2.672 -0.618,0.637 -1.381,0.978 -2.293,1.025 z"
   id="path74" />
	<polygon
   points="33.06,154.387 33.746,154.387 38.035,141.866 33.746,129.308 33.06,129.308 37.349,141.866 "
   id="polygon76" />
	<polygon
   points="38.996,140.75 35.084,129.308 34.398,129.308 38.652,141.722 34.398,154.387 35.084,154.387 39.03,142.838 43.009,154.387 43.695,154.387 39.373,141.866 43.695,129.308 42.873,129.272 "
   id="polygon78" />
	<path
   d="m 39.373,137.917 2.951,-8.608 h -0.652 l -2.642,7.64 -2.607,-7.64 H 35.77 l 2.951,8.608 c 0.069,0.239 0.172,0.358 0.309,0.358 0.159,0 0.275,-0.119 0.343,-0.358 z"
   id="path80" />
	<polygon
   points="40.402,140.861 40.127,141.866 44.347,154.387 45.033,154.387 40.711,141.866 45.033,129.308 44.347,129.308 "
   id="polygon82" />
	<polygon
   points="46.404,129.266 46.404,154.445 47.118,154.445 47.118,129.266 "
   id="polygon84" />
	<polygon
   points="48.458,129.266 47.789,129.266 47.789,154.445 48.458,154.445 "
   id="polygon86" />
	<polygon
   points="49.843,129.266 49.128,129.266 49.128,154.445 49.843,154.445 "
   id="polygon88" />
	<path
   d="m 64.318,147.205 h -0.669 c 0.067,1.698 -0.525,3.205 -1.781,4.52 -1.233,1.291 -2.672,1.961 -4.315,2.009 -1.598,0.024 -3.048,-0.596 -4.349,-1.861 -1.257,-1.289 -1.883,-2.781 -1.883,-4.476 V 136.44 c 0,-1.718 0.626,-3.198 1.883,-4.439 1.233,-1.217 2.683,-1.849 4.349,-1.897 1.575,-0.024 3.002,0.646 4.281,2.007 1.278,1.337 1.883,2.842 1.815,4.514 h 0.669 c 0.046,-1.935 -0.629,-3.642 -2.022,-5.123 -1.372,-1.529 -2.96,-2.282 -4.766,-2.259 -1.851,0.049 -3.474,0.777 -4.869,2.187 -1.371,1.41 -2.056,3.082 -2.056,5.017 v 10.964 c 0,1.911 0.696,3.596 2.091,5.052 1.417,1.435 3.028,2.139 4.833,2.114 1.874,-0.049 3.474,-0.807 4.8,-2.275 1.372,-1.462 2.035,-3.16 1.989,-5.097 z"
   id="path90" />
	<path
   d="m 62.979,147.238 h -0.715 c 0.069,1.413 -0.377,2.598 -1.338,3.555 -0.96,1.006 -2.093,1.521 -3.396,1.544 -1.303,0.023 -2.446,-0.442 -3.429,-1.4 -0.96,-0.958 -1.44,-2.13 -1.44,-3.518 v -10.985 c 0,-1.389 0.48,-2.549 1.44,-3.482 0.936,-0.965 2.08,-1.447 3.429,-1.447 1.303,0 2.436,0.515 3.396,1.545 0.961,1.006 1.407,2.19 1.338,3.556 h 0.715 c 0.092,-1.532 -0.424,-2.897 -1.545,-4.095 -1.1,-1.197 -2.393,-1.796 -3.881,-1.796 -1.602,0 -2.931,0.575 -3.983,1.724 -1.052,1.102 -1.579,2.49 -1.579,4.167 v 10.812 c 0,1.557 0.549,2.909 1.649,4.059 1.121,1.15 2.426,1.7 3.914,1.651 1.488,-0.022 2.792,-0.621 3.915,-1.795 1.097,-1.199 1.601,-2.562 1.51,-4.095 z"
   id="path92" />
	<path
   d="m 61.594,147.222 h -0.715 c 0.046,1.076 -0.244,1.954 -0.871,2.635 -0.626,0.682 -1.453,1.021 -2.478,1.021 -1.025,0 -1.863,-0.31 -2.512,-0.932 -0.649,-0.621 -0.974,-1.47 -0.974,-2.545 v -10.969 c 0,-1.074 0.324,-1.93 0.974,-2.563 0.648,-0.634 1.486,-0.938 2.512,-0.914 1.024,0.024 1.852,0.371 2.478,1.039 0.627,0.669 0.917,1.541 0.871,2.617 h 0.715 c 0.092,-1.147 -0.275,-2.175 -1.103,-3.082 -0.825,-0.885 -1.813,-1.327 -2.961,-1.327 -0.619,0 -1.182,0.108 -1.688,0.322 -0.505,0.216 -0.945,0.521 -1.324,0.915 -0.38,0.394 -0.672,0.86 -0.878,1.397 -0.207,0.538 -0.309,1.129 -0.309,1.774 v 10.789 c 0,1.195 0.413,2.198 1.239,3.011 0.803,0.813 1.79,1.219 2.96,1.219 1.147,0 2.136,-0.442 2.961,-1.326 0.827,-0.906 1.195,-1.933 1.103,-3.081 z"
   id="path94" />
	<path
   d="m 77.638,147.44 v -10.804 c 0,-2.034 -0.708,-3.722 -2.125,-5.062 -1.417,-1.34 -3.052,-2.01 -4.902,-2.01 -1.921,0 -3.509,0.683 -4.766,2.046 -1.28,1.34 -1.92,3.016 -1.92,5.025 v 10.804 c 0,1.915 0.662,3.603 1.988,5.062 1.325,1.459 2.891,2.189 4.697,2.189 1.987,0 3.645,-0.694 4.972,-2.082 1.37,-1.388 2.056,-3.11 2.056,-5.168 z m -0.669,-10.79 v 10.777 c 0,1.813 -0.63,3.342 -1.886,4.582 -1.28,1.266 -2.766,1.91 -4.456,1.935 -1.576,0 -2.981,-0.669 -4.216,-2.006 -1.212,-1.384 -1.816,-2.888 -1.816,-4.511 V 136.65 c 0,-1.647 0.616,-3.116 1.851,-4.404 1.235,-1.288 2.628,-1.934 4.182,-1.934 1.69,0 3.165,0.621 4.422,1.861 1.278,1.266 1.919,2.758 1.919,4.477 z m -0.67,10.792 v -10.797 c 0,-1.578 -0.573,-2.941 -1.718,-4.09 -1.122,-1.147 -2.439,-1.661 -3.949,-1.542 -1.466,-0.096 -2.725,0.431 -3.777,1.577 -1.03,1.197 -1.545,2.548 -1.545,4.055 v 10.797 c 0,1.507 0.526,2.858 1.579,4.054 1.099,1.292 2.347,1.89 3.743,1.794 1.557,0.12 2.885,-0.418 3.983,-1.614 1.122,-1.173 1.684,-2.583 1.684,-4.234 z m -0.716,-10.799 v 10.803 c 0,1.412 -0.488,2.62 -1.468,3.624 -1.002,0.981 -2.162,1.472 -3.482,1.472 -1.252,0 -2.334,-0.512 -3.243,-1.54 -0.91,-1.027 -1.365,-2.209 -1.365,-3.548 v -10.785 c 0,-0.716 0.113,-1.373 0.341,-1.97 0.228,-0.598 0.546,-1.11 0.956,-1.541 0.409,-0.431 0.893,-0.771 1.451,-1.021 0.557,-0.251 1.178,-0.376 1.86,-0.376 1.388,0 2.549,0.467 3.482,1.4 0.98,0.933 1.468,2.093 1.468,3.482 z m -0.67,10.792 v -10.783 c 0,-0.646 -0.108,-1.23 -0.324,-1.756 -0.218,-0.524 -0.514,-0.973 -0.891,-1.343 -0.378,-0.37 -0.829,-0.651 -1.354,-0.843 -0.525,-0.19 -1.097,-0.274 -1.712,-0.25 -1.12,-0.071 -2.056,0.322 -2.809,1.183 -0.754,0.836 -1.13,1.839 -1.13,3.009 v 10.783 c 0,1.17 0.388,2.198 1.164,3.081 0.775,0.884 1.701,1.325 2.774,1.325 1.141,0 2.146,-0.417 3.014,-1.254 0.846,-0.859 1.268,-1.91 1.268,-3.152 z m -0.67,-10.8 v 10.78 c 0,2.316 -1.203,3.559 -3.611,3.726 -0.963,-0.071 -1.749,-0.459 -2.356,-1.164 -0.607,-0.704 -0.911,-1.558 -0.911,-2.562 v -10.78 c 0,-1.074 0.286,-1.923 0.859,-2.543 0.573,-0.62 1.376,-0.932 2.408,-0.932 1.101,0 1.978,0.306 2.631,0.914 0.653,0.608 0.98,1.463 0.98,2.561 z"
   id="path96" />
	<polygon
   fill="#519cd5"
   points="21.018,39.998 20.745,21.501 33.559,12.399 50.19,20.033 50.463,26.786 28.106,42.934 "
   id="polygon98" />
	<polygon
   fill="#519cd5"
   points="58.914,19.446 74.455,12.399 88.905,23.263 88.087,41.172 81.271,43.227 59.188,26.199 "
   id="polygon100" />
	<polygon
   fill="#519cd5"
   points="83.726,52.623 90.269,50.273 101.174,65.541 95.993,81.102 79.362,85.505 75.001,79.34 "
   id="polygon102" />
	<polygon
   fill="#519cd5"
   points="18.291,49.687 24.835,51.742 33.014,79.046 28.106,85.211 12.021,80.221 7.386,64.073 "
   id="polygon104" />
	<polygon
   fill="#519cd5"
   points="71.729,91.671 67.366,84.918 40.103,85.211 36.286,91.083 45.828,107.231 61.642,107.525 "
   id="polygon106" />
	<polygon
   fill="#519cd5"
   points="54.28,39.705 70.639,52.329 64.641,71.706 43.647,72 38.194,52.035 "
   id="polygon108" />
	<path
   fill="#519cd5"
   d="M 68.092,113.571 C 80.92,109.955 91.883,101.45 99.12,90.042 l -19.071,5.104 z"
   id="path110" />
	<path
   fill="#519cd5"
   d="m 108.362,59.338 c 0.014,-0.53 0.021,-1.061 0.021,-1.594 0,-13.104 -4.097,-25.188 -10.999,-34.878 l -1.296,19.308 z"
   id="path112" />
	<path
   fill="#519cd5"
   d="M 36.905,3 C 42.334,1.055 48.146,0 54.191,0 60.744,0 67.026,1.24 72.842,3.511 l -17.739,8.014 z"
   id="path114" />
	<path
   fill="#519cd5"
   d="M 0.003,58.357 C 0,58.153 0,57.949 0,57.745 0,44.393 4.252,32.1 11.392,22.319 l 1.359,20.59 z"
   id="path116" />
	<path
   fill="#519cd5"
   d="M 38.001,112.868 C 25.83,108.813 15.503,100.307 8.701,89.139 l 18.623,5.262 z"
   id="path118" />
</g></g>
</svg>
