<svg height="1000" viewBox="0 0 999.99997 1000" width="1000" xmlns="http://www.w3.org/2000/svg"><g transform="matrix(6.1301792 0 0 6.1301792 170 25)"><g><path d="m 41.577 154.44 h .652 l -2.95 -8.608 c -.068 -.215 -.171 -.323 -.309 -.323 c -.16 0 -.274 .108 -.343 .323 l -2.95 8.608 h .652 l 2.607 -7.641 z"/><path d="m 11.501 131.857 c .229 .36 .446 .54 .652 .54 c .114 0 .343 -.192 .686 -.576 c .411 -.432 .834 -.779 1.269 -1.043 c .64 -.385 1.44 -.576 2.401 -.576 c 1.555 0 2.79 .442 3.704 1.325 c 1.052 1.004 1.578 2.437 1.578 4.301 v 18.705 h .67 V 135.79 c 0 -1.987 -.572 -3.58 -1.716 -4.776 c -1.053 -1.102 -2.472 -1.652 -4.255 -1.652 c -1.74 0 -3.192 .682 -4.359 2.045 c -1.167 -1.363 -2.609 -2.045 -4.325 -2.045 c -1.761 0 -3.169 .551 -4.221 1.652 c -1.145 1.196 -1.716 2.789 -1.716 4.776 v 18.743 h .715 v -18.705 c 0 -1.864 .502 -3.297 1.509 -4.301 c .915 -.883 2.161 -1.325 3.739 -1.325 c 1.668 0 2.892 .551 3.669 1.655 z"/><path d="m 11.785 136.539 v 17.994 H 12.5 v -17.994 c 0 -1.051 .319 -2.091 .958 -3.119 c .775 -1.241 1.791 -1.863 3.047 -1.863 c 1.026 0 1.939 .395 2.738 1.183 c .776 .789 1.164 1.816 1.164 3.083 v 18.711 h .714 V 135.79 c 0 -1.58 -.441 -2.813 -1.325 -3.699 c -.884 -.886 -1.978 -1.328 -3.286 -1.328 c -1.031 0 -1.949 .335 -2.752 1.005 c -.803 .67 -1.341 1.506 -1.616 2.51 c -.275 -1.004 -.802 -1.84 -1.579 -2.51 c -.779 -.67 -1.693 -1.005 -2.747 -1.005 c -1.328 0 -2.402 .431 -3.226 1.293 c -.893 .909 -1.339 2.154 -1.339 3.734 v 18.743 h .67 v -18.711 c 0 -1.267 .388 -2.294 1.163 -3.083 c .775 -.788 1.686 -1.183 2.734 -1.183 c 1.23 0 2.234 .622 3.008 1.863 c .64 1.029 .959 2.069 .959 3.12 z"/><path d="m 4.593 135.817 v 18.716 h .67 v -18.722 c 0 -.765 .233 -1.422 .702 -1.973 c .468 -.551 1.079 -.825 1.832 -.825 c .753 0 1.393 .395 1.918 1.184 c .456 .741 .685 1.519 .685 2.331 v 18.005 h .714 v -17.998 c 0 -1.005 -.32 -1.948 -.961 -2.833 c -.664 -.933 -1.442 -1.398 -2.334 -1.398 c -.869 0 -1.625 .37 -2.266 1.111 c -.639 .693 -.96 1.494 -.96 2.402 z"/><path d="m 19.737 154.533 v -18.716 c 0 -.908 -.322 -1.709 -.963 -2.402 c -.643 -.741 -1.398 -1.111 -2.269 -1.111 c -.94 0 -1.731 .466 -2.373 1.398 c -.642 .885 -.962 1.828 -.962 2.833 v 17.998 h .715 v -18.005 c 0 -.813 .239 -1.602 .719 -2.367 c .479 -.764 1.108 -1.147 1.884 -1.147 c .753 0 1.363 .274 1.833 .825 c .468 .551 .702 1.208 .702 1.973 v 18.722 h .714 z"/><path d="m 28.704 153.833 c -1.762 .049 -3.259 -.562 -4.494 -1.829 c -1.213 -1.268 -1.818 -2.811 -1.818 -4.628 v -10.691 c 0 -1.722 .627 -3.24 1.883 -4.556 c 1.255 -1.315 2.705 -1.974 4.35 -1.974 c 1.575 0 3.002 .664 4.281 1.992 c 1.279 1.328 1.883 2.828 1.815 4.502 h .714 c .137 -2.008 -.491 -3.705 -1.886 -5.093 c -1.395 -1.432 -3.028 -2.16 -4.902 -2.186 c -1.92 -.047 -3.555 .635 -4.903 2.045 c -1.348 1.365 -2.023 3.112 -2.023 5.241 v 10.697 c 0 1.985 .687 3.674 2.061 5.062 c 1.396 1.412 3.031 2.117 4.909 2.117 c 1.877 0 3.491 -.711 4.842 -2.135 c 1.35 -1.411 2.014 -3.108 1.992 -5.094 H 34.81 c .068 1.698 -.526 3.204 -1.784 4.52 c -1.235 1.293 -2.675 1.963 -4.322 2.01 z"/><path d="m 28.806 152.385 c -1.505 .071 -2.714 -.371 -3.626 -1.327 c -.936 -.979 -1.404 -2.211 -1.404 -3.693 v -5.021 h 7.205 v -.747 h -7.205 v -4.949 c 0 -1.387 .478 -2.581 1.434 -3.586 c .956 -1.004 2.094 -1.506 3.415 -1.506 c 1.297 0 2.423 .515 3.38 1.545 c .956 1.006 1.4 2.191 1.332 3.556 h .714 c .091 -1.581 -.412 -2.945 -1.511 -4.095 c -1.123 -1.173 -2.427 -1.771 -3.915 -1.796 c -1.556 -.047 -2.873 .527 -3.949 1.724 c -1.076 1.174 -1.614 2.563 -1.614 4.167 v 10.703 c 0 1.652 .539 3.042 1.617 4.167 c 1.078 1.125 2.419 1.676 4.026 1.651 c 1.491 -.022 2.787 -.61 3.887 -1.762 c 1.055 -1.147 1.571 -2.522 1.548 -4.125 h -.714 c -.046 1.482 -.501 2.679 -1.369 3.587 c -.89 .933 -1.974 1.436 -3.251 1.507 z"/><path d="m 31.984 136.662 h .682 c .115 -1.195 -.262 -2.224 -1.13 -3.085 c -.822 -.849 -1.792 -1.273 -2.911 -1.273 c -.617 0 -1.182 .108 -1.695 .322 c -.514 .215 -.954 .52 -1.319 .913 c -.366 .394 -.651 .854 -.856 1.378 c -.205 .526 -.308 1.11 -.308 1.755 v 4.226 h 6.547 v -.701 h -5.832 v -3.523 c 0 -1.079 .33 -1.973 .989 -2.68 c .66 -.707 1.49 -1.037 2.491 -.988 c 1.022 .071 1.847 .43 2.473 1.075 c .624 .644 .914 1.504 .869 2.581 z" fill="#fff" stroke="#fff" stroke-miterlimit="2.6131" stroke-width="3.2634"/><path d="m 28.753 151.002 c -1.163 .049 -2.052 -.251 -2.668 -.896 c -.616 -.645 -.923 -1.555 -.923 -2.727 v -3.587 h 5.832 v -.748 h -6.547 v 4.32 c 0 .647 .108 1.242 .326 1.782 c .218 .539 .521 1.008 .91 1.403 c .389 .396 .852 .696 1.391 .899 c .537 .205 1.115 .283 1.733 .235 c .549 -.024 1.064 -.155 1.545 -.395 c .48 -.239 .898 -.551 1.253 -.934 c .355 -.383 .635 -.831 .841 -1.346 c .206 -.514 .309 -1.082 .309 -1.703 h -.684 c -.069 1.148 -.411 2.039 -1.027 2.672 c -.614 .638 -1.379 .979 -2.291 1.025 z"/><path d="M 32.967 154.44 L 33.653 154.44 L 37.941 141.918 L 33.653 129.361 L 32.967 129.361 L 37.255 141.918 Z"/><path d="M 38.902 140.802 L 34.99 129.361 L 34.304 129.361 L 38.558 141.775 L 34.304 154.44 L 34.99 154.44 L 38.936 142.891 L 42.916 154.44 L 43.602 154.44 L 39.279 141.918 L 43.602 129.361 L 42.778 129.325 Z"/><path d="m 39.279 137.97 l 2.95 -8.609 H 41.577 L 38.936 137 L 36.329 129.36 h -.652 l 2.95 8.609 c .069 .238 .172 .357 .309 .357 c .16 .002 .274 -.118 .343 -.356 z" fill="#fff" stroke="#fff" stroke-miterlimit="2.6131" stroke-width="3.2634"/><path d="M 40.308 140.914 L 40.034 141.918 L 44.253 154.44 L 44.94 154.44 L 40.617 141.918 L 44.94 129.361 L 44.253 129.361 Z"/><path d="M 46.31 129.319 L 46.31 154.498 L 47.024 154.498 L 47.024 129.319 Z"/><path d="M 48.364 129.319 L 47.694 129.319 L 47.694 154.498 L 48.364 154.498 Z"/><path d="M 49.749 129.319 L 49.034 129.319 L 49.034 154.498 L 49.749 154.498 Z"/><path d="m 64.225 147.258 h -.67 c .068 1.697 -.524 3.204 -1.78 4.519 c -1.233 1.292 -2.672 1.961 -4.314 2.009 c -1.599 .024 -3.05 -.596 -4.351 -1.861 c -1.256 -1.289 -1.883 -2.781 -1.883 -4.476 v -10.956 c 0 -1.719 .627 -3.199 1.883 -4.439 c 1.233 -1.218 2.684 -1.85 4.351 -1.898 c 1.574 -.024 3 .646 4.28 2.007 c 1.278 1.338 1.883 2.843 1.814 4.514 h .67 c .046 -1.934 -.628 -3.642 -2.022 -5.123 c -1.371 -1.529 -2.96 -2.282 -4.765 -2.259 c -1.852 .049 -3.475 .777 -4.869 2.188 c -1.372 1.41 -2.057 3.081 -2.057 5.016 v 10.964 c 0 1.912 .696 3.596 2.091 5.052 c 1.417 1.435 3.028 2.139 4.835 2.114 c 1.874 -.049 3.473 -.807 4.799 -2.275 c 1.37 -1.46 2.034 -3.159 1.988 -5.096 z"/><path d="M 62.885 147.292 H 62.17 c .068 1.412 -.378 2.597 -1.338 3.554 c -.96 1.006 -2.093 1.521 -3.395 1.544 c -1.304 .024 -2.447 -.442 -3.43 -1.399 c -.961 -.958 -1.44 -2.131 -1.44 -3.519 v -10.985 c 0 -1.388 .479 -2.548 1.44 -3.481 c .937 -.966 2.08 -1.448 3.43 -1.448 c 1.302 0 2.435 .515 3.395 1.545 c .96 1.006 1.406 2.191 1.338 3.556 h .715 c .091 -1.532 -.424 -2.897 -1.545 -4.095 c -1.1 -1.197 -2.394 -1.796 -3.88 -1.796 c -1.604 0 -2.933 .575 -3.985 1.724 c -1.052 1.102 -1.579 2.49 -1.579 4.167 v 10.812 c 0 1.557 .549 2.909 1.649 4.059 c 1.121 1.15 2.427 1.7 3.915 1.651 c 1.486 -.022 2.791 -.621 3.914 -1.794 c 1.099 -1.2 1.602 -2.563 1.511 -4.095 z"/><path d="m 61.5 147.275 h -.715 c .046 1.076 -.244 1.955 -.87 2.635 c -.628 .682 -1.454 1.021 -2.478 1.021 c -1.026 0 -1.863 -.31 -2.514 -.932 c -.648 -.621 -.973 -1.47 -.973 -2.545 v -10.969 c 0 -1.074 .324 -1.93 .973 -2.563 c .65 -.634 1.487 -.938 2.514 -.914 c 1.023 .024 1.85 .371 2.478 1.039 c .626 .67 .916 1.541 .87 2.617 H 61.5 c .092 -1.147 -.276 -2.175 -1.103 -3.082 c -.826 -.885 -1.813 -1.327 -2.96 -1.327 c -.62 0 -1.183 .108 -1.688 .322 c -.506 .216 -.946 .521 -1.324 .915 c -.38 .394 -.671 .86 -.878 1.397 c -.206 .538 -.309 1.13 -.309 1.774 v 10.789 c 0 1.195 .413 2.199 1.239 3.012 c .803 .813 1.79 1.219 2.961 1.219 c 1.146 0 2.134 -.443 2.96 -1.327 c .826 -.906 1.194 -1.934 1.102 -3.081 z"/><path d="m 77.544 147.493 v -10.804 c 0 -2.034 -.709 -3.721 -2.126 -5.062 c -1.417 -1.339 -3.052 -2.01 -4.901 -2.01 c -1.92 0 -3.509 .683 -4.766 2.047 c -1.28 1.34 -1.92 3.015 -1.92 5.024 v 10.804 c 0 1.915 .662 3.603 1.988 5.062 c 1.325 1.459 2.891 2.189 4.697 2.189 c 1.987 0 3.645 -.694 4.972 -2.082 c 1.371 -1.387 2.056 -3.111 2.056 -5.168 z m -.67 -10.79 v 10.777 c 0 1.813 -.628 3.342 -1.884 4.583 c -1.281 1.265 -2.767 1.91 -4.457 1.934 c -1.577 0 -2.982 -.669 -4.216 -2.006 c -1.212 -1.384 -1.816 -2.888 -1.816 -4.511 v -10.777 c 0 -1.646 .616 -3.115 1.852 -4.403 c 1.232 -1.289 2.627 -1.934 4.181 -1.934 c 1.69 0 3.165 .62 4.422 1.86 c 1.279 1.266 1.918 2.758 1.918 4.477 z m -.67 10.793 v -10.798 c 0 -1.578 -.571 -2.941 -1.717 -4.09 c -1.122 -1.147 -2.439 -1.661 -3.949 -1.542 c -1.466 -.095 -2.725 .431 -3.777 1.578 c -1.03 1.196 -1.545 2.547 -1.545 4.054 v 10.798 c 0 1.506 .526 2.857 1.579 4.054 c 1.099 1.291 2.347 1.889 3.743 1.793 c 1.556 .12 2.885 -.418 3.984 -1.614 c 1.122 -1.173 1.682 -2.583 1.682 -4.233 z m -.715 -10.8 v 10.803 c 0 1.412 -.488 2.621 -1.468 3.625 c -1.001 .98 -2.163 1.472 -3.482 1.472 c -1.253 0 -2.333 -.513 -3.243 -1.54 c -.911 -1.027 -1.365 -2.21 -1.365 -3.549 v -10.785 c 0 -.716 .113 -1.373 .341 -1.97 c .228 -.597 .546 -1.11 .955 -1.541 c .41 -.43 .894 -.77 1.451 -1.021 c .558 -.251 1.179 -.376 1.861 -.376 c 1.389 0 2.549 .467 3.482 1.4 c .98 .933 1.468 2.093 1.468 3.482 z m -.67 10.792 v -10.783 c 0 -.646 -.108 -1.23 -.324 -1.756 c -.218 -.524 -.514 -.972 -.892 -1.343 c -.376 -.37 -.827 -.651 -1.353 -.843 c -.525 -.19 -1.097 -.274 -1.712 -.25 c -1.12 -.071 -2.056 .322 -2.81 1.183 c -.752 .836 -1.129 1.839 -1.129 3.009 v 10.783 c 0 1.171 .388 2.198 1.164 3.081 c .776 .885 1.7 1.325 2.774 1.325 c 1.141 0 2.146 -.417 3.014 -1.253 c .846 -.859 1.268 -1.911 1.268 -3.153 z m -.67 -10.8 v 10.781 c 0 2.316 -1.204 3.558 -3.611 3.725 c -.963 -.071 -1.749 -.459 -2.355 -1.164 c -.609 -.704 -.912 -1.558 -.912 -2.561 v -10.781 c 0 -1.074 .286 -1.923 .859 -2.543 c .573 -.62 1.375 -.932 2.408 -.932 c 1.101 0 1.978 .306 2.631 .914 c .653 .608 .98 1.462 .98 2.561 z"/><path d="M 85.599 154.721 L 86.259 154.721 L 94.987 129.393 L 82.47 129.393 L 82.47 130.148 L 94.047 130.148 Z"/><path d="M 93.108 130.856 L 82.47 130.856 L 82.47 131.611 L 92.17 131.611 L 84.208 154.735 L 84.903 154.735 Z"/><path d="M 90.327 133.027 L 82.853 154.7 L 83.547 154.7 L 91.267 132.32 L 82.47 132.32 L 82.47 133.027 Z"/><path d="m 106.421 147.644 v -10.917 c 0 -2.055 -.719 -3.76 -2.154 -5.113 c -1.438 -1.354 -3.094 -2.032 -4.97 -2.032 c -1.946 0 -3.556 .69 -4.83 2.068 c -1.297 1.354 -1.946 3.047 -1.946 5.077 v 10.917 c 0 1.936 .673 3.641 2.017 5.114 c 1.344 1.476 2.93 2.213 4.76 2.213 c 2.016 0 3.694 -.701 5.039 -2.104 c 1.388 -1.403 2.084 -3.143 2.084 -5.223 z m -.68 -10.903 v 10.89 c 0 1.834 -.637 3.378 -1.91 4.632 c -1.298 1.278 -2.804 1.93 -4.517 1.953 c -1.598 0 -3.022 -.675 -4.272 -2.025 c -1.229 -1.399 -1.842 -2.919 -1.842 -4.56 v -10.89 c 0 -1.664 .625 -3.147 1.877 -4.449 c 1.25 -1.303 2.663 -1.954 4.237 -1.954 c 1.713 0 3.207 .627 4.481 1.881 c 1.298 1.278 1.946 2.785 1.946 4.522 z m -.679 10.906 v -10.911 c 0 -1.594 -.58 -2.972 -1.74 -4.133 c -1.138 -1.158 -2.472 -1.678 -4.002 -1.559 c -1.485 -.096 -2.762 .437 -3.828 1.596 c -1.044 1.208 -1.566 2.573 -1.566 4.096 v 10.911 c 0 1.522 .534 2.888 1.601 4.096 c 1.114 1.305 2.378 1.909 3.794 1.813 c 1.578 .121 2.924 -.423 4.037 -1.631 c 1.135 -1.185 1.704 -2.61 1.704 -4.278 z m -.725 -10.913 v 10.916 c 0 1.427 -.494 2.648 -1.486 3.663 c -1.016 .992 -2.192 1.487 -3.53 1.487 c -1.269 0 -2.365 -.519 -3.287 -1.557 c -.922 -1.038 -1.384 -2.233 -1.384 -3.585 V 136.76 c 0 -.725 .115 -1.388 .346 -1.991 c .23 -.603 .553 -1.122 .968 -1.557 c .416 -.435 .906 -.778 1.472 -1.032 c .564 -.253 1.193 -.38 1.886 -.38 c 1.406 0 2.583 .472 3.53 1.415 c .991 .944 1.485 2.116 1.485 3.519 z m -.678 10.905 v -10.896 c 0 -.652 -.11 -1.244 -.33 -1.774 c -.221 -.531 -.521 -.983 -.902 -1.357 c -.383 -.374 -.84 -.657 -1.371 -.851 c -.532 -.194 -1.111 -.278 -1.735 -.253 c -1.135 -.073 -2.083 .325 -2.847 1.194 c -.764 .845 -1.145 1.857 -1.145 3.041 v 10.896 c 0 1.183 .393 2.221 1.179 3.114 c .787 .893 1.725 1.339 2.813 1.339 c 1.156 0 2.175 -.422 3.054 -1.267 c .855 -.868 1.284 -1.931 1.284 -3.186 z m -.68 -10.913 v 10.894 c 0 2.341 -1.221 3.596 -3.66 3.765 c -.976 -.072 -1.772 -.464 -2.388 -1.176 c -.617 -.712 -.925 -1.574 -.925 -2.589 v -10.894 c 0 -1.085 .29 -1.941 .873 -2.569 c .58 -.627 1.394 -.941 2.439 -.941 c 1.115 0 2.004 .309 2.667 .924 c .663 .614 .994 1.477 .994 2.586 z"/><path d="M 85.692 154.668 L 86.353 154.668 L 95.08 129.34 L 82.563 129.34 L 82.563 130.095 L 94.142 130.095 Z"/><path d="M 93.202 130.803 L 82.563 130.803 L 82.563 131.558 L 92.264 131.558 L 84.302 154.681 L 84.998 154.681 Z"/><path d="M 90.421 132.974 L 82.946 154.647 L 83.642 154.647 L 91.36 132.266 L 82.563 132.266 L 82.563 132.974 Z"/><path d="m 106.515 147.591 v -10.917 c 0 -2.055 -.719 -3.76 -2.155 -5.114 c -1.437 -1.354 -3.093 -2.031 -4.969 -2.031 c -1.946 0 -3.556 .689 -4.829 2.067 c -1.298 1.354 -1.946 3.047 -1.946 5.078 v 10.917 c 0 1.935 .672 3.64 2.016 5.114 c 1.343 1.475 2.93 2.212 4.76 2.212 c 2.016 0 3.694 -.7 5.039 -2.104 c 1.387 -1.401 2.084 -3.142 2.084 -5.222 z m -.68 -10.903 v 10.89 c 0 1.834 -.637 3.378 -1.911 4.632 c -1.297 1.278 -2.803 1.93 -4.515 1.953 c -1.599 0 -3.022 -.675 -4.273 -2.026 c -1.228 -1.398 -1.841 -2.918 -1.841 -4.559 v -10.89 c 0 -1.664 .625 -3.147 1.876 -4.449 c 1.25 -1.303 2.663 -1.954 4.238 -1.954 c 1.712 0 3.206 .627 4.48 1.881 c 1.298 1.278 1.946 2.786 1.946 4.522 z m -.679 10.906 v -10.911 c 0 -1.594 -.58 -2.972 -1.74 -4.133 c -1.138 -1.159 -2.472 -1.679 -4.002 -1.559 c -1.486 -.096 -2.763 .436 -3.829 1.596 c -1.044 1.208 -1.566 2.573 -1.566 4.096 v 10.911 c 0 1.522 .534 2.888 1.601 4.096 c 1.114 1.306 2.379 1.908 3.795 1.813 c 1.577 .121 2.923 -.423 4.037 -1.631 c 1.135 -1.185 1.704 -2.61 1.704 -4.278 z m -.724 -10.913 v 10.916 c 0 1.427 -.496 2.648 -1.487 3.663 c -1.016 .991 -2.192 1.487 -3.53 1.487 c -1.269 0 -2.364 -.519 -3.287 -1.557 c -.923 -1.039 -1.384 -2.232 -1.384 -3.585 v -10.898 c 0 -.725 .115 -1.388 .347 -1.991 c .229 -.603 .552 -1.122 .968 -1.557 c .415 -.435 .905 -.778 1.471 -1.032 c .566 -.254 1.194 -.38 1.886 -.38 c 1.407 0 2.584 .472 3.53 1.415 c .99 .944 1.486 2.116 1.486 3.519 z m -.679 10.905 V 136.69 c 0 -.652 -.11 -1.244 -.33 -1.775 c -.22 -.53 -.521 -.982 -.902 -1.356 c -.381 -.374 -.839 -.657 -1.371 -.851 c -.533 -.194 -1.111 -.278 -1.735 -.253 c -1.135 -.073 -2.084 .325 -2.847 1.194 c -.764 .845 -1.145 1.857 -1.145 3.041 v 10.896 c 0 1.183 .393 2.221 1.179 3.114 c .787 .893 1.725 1.339 2.813 1.339 c 1.156 0 2.175 -.422 3.055 -1.267 c .854 -.868 1.283 -1.931 1.283 -3.186 z m -.68 -10.913 v 10.894 c 0 2.341 -1.22 3.596 -3.659 3.765 c -.977 -.072 -1.773 -.464 -2.389 -1.176 c -.616 -.712 -.924 -1.574 -.924 -2.589 v -10.894 c 0 -1.086 .29 -1.942 .871 -2.569 c .581 -.627 1.395 -.941 2.441 -.941 c 1.114 0 2.003 .309 2.666 .924 c .662 .614 .994 1.476 .994 2.586 z"/><path d="m 41.671 154.387 h .652 l -2.951 -8.608 c -.068 -.215 -.171 -.323 -.309 -.323 c -.16 0 -.274 .108 -.343 .323 l -2.951 8.608 h .653 l 2.607 -7.641 z"/><path d="m 11.595 131.804 c .229 .359 .446 .539 .652 .539 c .115 0 .343 -.191 .687 -.575 c .411 -.433 .834 -.779 1.269 -1.043 c .64 -.385 1.44 -.577 2.4 -.577 c 1.556 0 2.79 .443 3.705 1.326 c 1.052 1.004 1.578 2.437 1.578 4.301 v 18.705 h .67 v -18.743 c 0 -1.988 -.572 -3.58 -1.716 -4.777 c -1.053 -1.101 -2.472 -1.651 -4.256 -1.651 c -1.74 0 -3.192 .682 -4.358 2.045 c -1.167 -1.363 -2.609 -2.045 -4.325 -2.045 c -1.762 0 -3.169 .551 -4.222 1.651 c -1.145 1.197 -1.716 2.789 -1.716 4.777 v 18.743 h .714 v -18.705 c 0 -1.864 .502 -3.297 1.51 -4.301 c .914 -.883 2.161 -1.326 3.738 -1.326 c 1.669 0 2.893 .553 3.67 1.656 z"/><path d="m 11.879 136.485 v 17.995 h .714 v -17.995 c 0 -1.05 .319 -2.09 .959 -3.118 c .775 -1.241 1.791 -1.863 3.046 -1.863 c 1.026 0 1.938 .395 2.738 1.183 c .776 .789 1.164 1.816 1.164 3.083 v 18.711 h .715 v -18.743 c 0 -1.58 -.442 -2.813 -1.325 -3.699 c -.883 -.886 -1.979 -1.328 -3.286 -1.328 c -1.032 0 -1.95 .334 -2.752 1.005 c -.803 .67 -1.342 1.506 -1.617 2.51 c -.275 -1.004 -.801 -1.84 -1.579 -2.51 c -.778 -.671 -1.693 -1.005 -2.746 -1.005 c -1.328 0 -2.403 .431 -3.227 1.293 c -.893 .909 -1.338 2.154 -1.338 3.734 v 18.743 h .67 V 135.77 c 0 -1.267 .387 -2.294 1.162 -3.083 c .774 -.788 1.686 -1.183 2.734 -1.183 c 1.23 0 2.233 .622 3.008 1.863 c .642 1.028 .96 2.068 .96 3.118 z"/><path d="m 4.688 135.764 v 18.716 h .67 v -18.722 c 0 -.766 .234 -1.422 .702 -1.973 c .468 -.55 1.078 -.826 1.832 -.826 c .753 0 1.392 .396 1.918 1.185 c .457 .741 .685 1.519 .685 2.331 v 18.005 h .715 v -17.999 c 0 -1.004 -.321 -1.948 -.961 -2.833 c -.664 -.932 -1.441 -1.397 -2.334 -1.397 c -.87 0 -1.625 .37 -2.266 1.111 c -.641 .693 -.961 1.494 -.961 2.402 z"/><path d="m 19.831 154.48 v -18.716 c 0 -.908 -.321 -1.709 -.962 -2.402 c -.642 -.741 -1.398 -1.111 -2.269 -1.111 c -.94 0 -1.731 .466 -2.373 1.397 c -.642 .885 -.962 1.829 -.962 2.833 v 17.999 h .714 v -18.005 c 0 -.813 .239 -1.602 .719 -2.367 c .479 -.765 1.107 -1.148 1.883 -1.148 c .753 0 1.364 .276 1.832 .826 c .467 .551 .703 1.207 .703 1.973 v 18.722 h .715 z"/><path d="m 28.797 153.78 c -1.761 .049 -3.259 -.562 -4.493 -1.829 c -1.212 -1.269 -1.819 -2.811 -1.819 -4.628 v -10.691 c 0 -1.723 .628 -3.24 1.884 -4.557 c 1.255 -1.314 2.706 -1.973 4.35 -1.973 c 1.576 0 3.002 .664 4.281 1.992 c 1.278 1.328 1.883 2.828 1.815 4.501 h .714 c .137 -2.008 -.491 -3.704 -1.886 -5.092 c -1.395 -1.432 -3.028 -2.16 -4.902 -2.186 c -1.92 -.047 -3.554 .635 -4.902 2.045 c -1.349 1.364 -2.023 3.111 -2.023 5.241 V 147.3 c 0 1.985 .687 3.673 2.06 5.062 c 1.396 1.412 3.032 2.117 4.91 2.117 c 1.877 0 3.491 -.711 4.842 -2.135 c 1.35 -1.411 2.013 -3.108 1.991 -5.094 h -.714 c .068 1.698 -.526 3.204 -1.784 4.52 c -1.236 1.293 -2.677 1.962 -4.324 2.01 z"/><path d="m 28.9 152.333 c -1.506 .071 -2.715 -.371 -3.627 -1.327 c -.935 -.979 -1.402 -2.211 -1.402 -3.693 v -5.021 h 7.204 v -.746 h -7.204 v -4.949 c 0 -1.387 .477 -2.582 1.433 -3.586 c .956 -1.004 2.094 -1.506 3.415 -1.506 c 1.297 0 2.423 .515 3.38 1.545 c .956 1.006 1.4 2.19 1.331 3.556 h .715 c .09 -1.581 -.413 -2.945 -1.511 -4.095 c -1.123 -1.173 -2.427 -1.771 -3.915 -1.796 c -1.557 -.047 -2.873 .527 -3.949 1.724 c -1.076 1.174 -1.614 2.563 -1.614 4.167 v 10.703 c 0 1.652 .539 3.042 1.617 4.167 c 1.078 1.125 2.42 1.676 4.025 1.651 c 1.491 -.022 2.787 -.61 3.888 -1.762 c 1.055 -1.147 1.57 -2.522 1.548 -4.126 H 33.52 c -.046 1.483 -.502 2.68 -1.368 3.588 c -.891 .93 -1.974 1.434 -3.252 1.506 z"/><path d="m 32.078 136.609 h .682 c .114 -1.195 -.262 -2.224 -1.13 -3.085 c -.822 -.849 -1.793 -1.273 -2.912 -1.273 c -.617 0 -1.181 .107 -1.695 .322 c -.514 .215 -.953 .52 -1.318 .913 c -.366 .394 -.651 .853 -.856 1.378 c -.206 .526 -.308 1.11 -.308 1.755 v 4.225 h 6.547 v -.7 h -5.833 v -3.524 c 0 -1.078 .33 -1.972 .99 -2.679 c .66 -.707 1.489 -1.037 2.49 -.989 c 1.024 .072 1.848 .431 2.473 1.075 c .625 .645 .915 1.506 .87 2.582 z"/><path d="m 28.847 150.95 c -1.164 .049 -2.053 -.251 -2.668 -.896 c -.616 -.646 -.924 -1.555 -.924 -2.727 v -3.588 h 5.833 v -.747 h -6.547 v 4.32 c 0 .647 .108 1.242 .327 1.782 c .218 .539 .52 1.008 .91 1.403 c .388 .396 .852 .696 1.391 .899 c .537 .205 1.115 .282 1.734 .234 c .549 -.023 1.064 -.154 1.545 -.394 c .48 -.239 .898 -.551 1.253 -.934 c .355 -.383 .635 -.831 .841 -1.346 c .206 -.514 .309 -1.082 .309 -1.703 h -.685 c -.068 1.148 -.411 2.039 -1.026 2.672 c -.618 .637 -1.381 .978 -2.293 1.025 z"/><path d="M 33.06 154.387 L 33.746 154.387 L 38.035 141.866 L 33.746 129.308 L 33.06 129.308 L 37.349 141.866 Z"/><path d="M 38.996 140.75 L 35.084 129.308 L 34.398 129.308 L 38.652 141.722 L 34.398 154.387 L 35.084 154.387 L 39.03 142.838 L 43.009 154.387 L 43.695 154.387 L 39.373 141.866 L 43.695 129.308 L 42.873 129.272 Z"/><path d="m 39.373 137.917 l 2.951 -8.608 h -.652 l -2.642 7.64 l -2.607 -7.64 H 35.77 l 2.951 8.608 c .069 .239 .172 .358 .309 .358 c .159 0 .275 -.119 .343 -.358 z"/><path d="M 40.402 140.861 L 40.127 141.866 L 44.347 154.387 L 45.033 154.387 L 40.711 141.866 L 45.033 129.308 L 44.347 129.308 Z"/><path d="M 46.404 129.266 L 46.404 154.445 L 47.118 154.445 L 47.118 129.266 Z"/><path d="M 48.458 129.266 L 47.789 129.266 L 47.789 154.445 L 48.458 154.445 Z"/><path d="M 49.843 129.266 L 49.128 129.266 L 49.128 154.445 L 49.843 154.445 Z"/><path d="m 64.318 147.205 h -.669 c .067 1.698 -.525 3.205 -1.781 4.52 c -1.233 1.291 -2.672 1.961 -4.315 2.009 c -1.598 .024 -3.048 -.596 -4.349 -1.861 c -1.257 -1.289 -1.883 -2.781 -1.883 -4.476 V 136.44 c 0 -1.718 .626 -3.198 1.883 -4.439 c 1.233 -1.217 2.683 -1.849 4.349 -1.897 c 1.575 -.024 3.002 .646 4.281 2.007 c 1.278 1.337 1.883 2.842 1.815 4.514 h .669 c .046 -1.935 -.629 -3.642 -2.022 -5.123 c -1.372 -1.529 -2.96 -2.282 -4.766 -2.259 c -1.851 .049 -3.474 .777 -4.869 2.187 c -1.371 1.41 -2.056 3.082 -2.056 5.017 v 10.964 c 0 1.911 .696 3.596 2.091 5.052 c 1.417 1.435 3.028 2.139 4.833 2.114 c 1.874 -.049 3.474 -.807 4.8 -2.275 c 1.372 -1.462 2.035 -3.16 1.989 -5.097 z"/><path d="m 62.979 147.238 h -.715 c .069 1.413 -.377 2.598 -1.338 3.555 c -.96 1.006 -2.093 1.521 -3.396 1.544 c -1.303 .023 -2.446 -.442 -3.429 -1.4 c -.96 -.958 -1.44 -2.13 -1.44 -3.518 v -10.985 c 0 -1.389 .48 -2.549 1.44 -3.482 c .936 -.965 2.08 -1.447 3.429 -1.447 c 1.303 0 2.436 .515 3.396 1.545 c .961 1.006 1.407 2.19 1.338 3.556 h .715 c .092 -1.532 -.424 -2.897 -1.545 -4.095 c -1.1 -1.197 -2.393 -1.796 -3.881 -1.796 c -1.602 0 -2.931 .575 -3.983 1.724 c -1.052 1.102 -1.579 2.49 -1.579 4.167 v 10.812 c 0 1.557 .549 2.909 1.649 4.059 c 1.121 1.15 2.426 1.7 3.914 1.651 c 1.488 -.022 2.792 -.621 3.915 -1.795 c 1.097 -1.199 1.601 -2.562 1.51 -4.095 z"/><path d="m 61.594 147.222 h -.715 c .046 1.076 -.244 1.954 -.871 2.635 c -.626 .682 -1.453 1.021 -2.478 1.021 c -1.025 0 -1.863 -.31 -2.512 -.932 c -.649 -.621 -.974 -1.47 -.974 -2.545 v -10.969 c 0 -1.074 .324 -1.93 .974 -2.563 c .648 -.634 1.486 -.938 2.512 -.914 c 1.024 .024 1.852 .371 2.478 1.039 c .627 .669 .917 1.541 .871 2.617 h .715 c .092 -1.147 -.275 -2.175 -1.103 -3.082 c -.825 -.885 -1.813 -1.327 -2.961 -1.327 c -.619 0 -1.182 .108 -1.688 .322 c -.505 .216 -.945 .521 -1.324 .915 c -.38 .394 -.672 .86 -.878 1.397 c -.207 .538 -.309 1.129 -.309 1.774 v 10.789 c 0 1.195 .413 2.198 1.239 3.011 c .803 .813 1.79 1.219 2.96 1.219 c 1.147 0 2.136 -.442 2.961 -1.326 c .827 -.906 1.195 -1.933 1.103 -3.081 z"/><path d="m 77.638 147.44 v -10.804 c 0 -2.034 -.708 -3.722 -2.125 -5.062 c -1.417 -1.34 -3.052 -2.01 -4.902 -2.01 c -1.921 0 -3.509 .683 -4.766 2.046 c -1.28 1.34 -1.92 3.016 -1.92 5.025 v 10.804 c 0 1.915 .662 3.603 1.988 5.062 c 1.325 1.459 2.891 2.189 4.697 2.189 c 1.987 0 3.645 -.694 4.972 -2.082 c 1.37 -1.388 2.056 -3.11 2.056 -5.168 z m -.669 -10.79 v 10.777 c 0 1.813 -.63 3.342 -1.886 4.582 c -1.28 1.266 -2.766 1.91 -4.456 1.935 c -1.576 0 -2.981 -.669 -4.216 -2.006 c -1.212 -1.384 -1.816 -2.888 -1.816 -4.511 V 136.65 c 0 -1.647 .616 -3.116 1.851 -4.404 c 1.235 -1.288 2.628 -1.934 4.182 -1.934 c 1.69 0 3.165 .621 4.422 1.861 c 1.278 1.266 1.919 2.758 1.919 4.477 z m -.67 10.792 v -10.797 c 0 -1.578 -.573 -2.941 -1.718 -4.09 c -1.122 -1.147 -2.439 -1.661 -3.949 -1.542 c -1.466 -.096 -2.725 .431 -3.777 1.577 c -1.03 1.197 -1.545 2.548 -1.545 4.055 v 10.797 c 0 1.507 .526 2.858 1.579 4.054 c 1.099 1.292 2.347 1.89 3.743 1.794 c 1.557 .12 2.885 -.418 3.983 -1.614 c 1.122 -1.173 1.684 -2.583 1.684 -4.234 z m -.716 -10.799 v 10.803 c 0 1.412 -.488 2.62 -1.468 3.624 c -1.002 .981 -2.162 1.472 -3.482 1.472 c -1.252 0 -2.334 -.512 -3.243 -1.54 c -.91 -1.027 -1.365 -2.209 -1.365 -3.548 v -10.785 c 0 -.716 .113 -1.373 .341 -1.97 c .228 -.598 .546 -1.11 .956 -1.541 c .409 -.431 .893 -.771 1.451 -1.021 c .557 -.251 1.178 -.376 1.86 -.376 c 1.388 0 2.549 .467 3.482 1.4 c .98 .933 1.468 2.093 1.468 3.482 z m -.67 10.792 v -10.783 c 0 -.646 -.108 -1.23 -.324 -1.756 c -.218 -.524 -.514 -.973 -.891 -1.343 c -.378 -.37 -.829 -.651 -1.354 -.843 c -.525 -.19 -1.097 -.274 -1.712 -.25 c -1.12 -.071 -2.056 .322 -2.809 1.183 c -.754 .836 -1.13 1.839 -1.13 3.009 v 10.783 c 0 1.17 .388 2.198 1.164 3.081 c .775 .884 1.701 1.325 2.774 1.325 c 1.141 0 2.146 -.417 3.014 -1.254 c .846 -.859 1.268 -1.91 1.268 -3.152 z m -.67 -10.8 v 10.78 c 0 2.316 -1.203 3.559 -3.611 3.726 c -.963 -.071 -1.749 -.459 -2.356 -1.164 c -.607 -.704 -.911 -1.558 -.911 -2.562 v -10.78 c 0 -1.074 .286 -1.923 .859 -2.543 c .573 -.62 1.376 -.932 2.408 -.932 c 1.101 0 1.978 .306 2.631 .914 c .653 .608 .98 1.463 .98 2.561 z"/><path d="M 21.018 39.998 L 20.745 21.501 L 33.559 12.399 L 50.19 20.033 L 50.463 26.786 L 28.106 42.934 Z" fill="#519cd5"/><path d="M 58.914 19.446 L 74.455 12.399 L 88.905 23.263 L 88.087 41.172 L 81.271 43.227 L 59.188 26.199 Z" fill="#519cd5"/><path d="M 83.726 52.623 L 90.269 50.273 L 101.174 65.541 L 95.993 81.102 L 79.362 85.505 L 75.001 79.34 Z" fill="#519cd5"/><path d="M 18.291 49.687 L 24.835 51.742 L 33.014 79.046 L 28.106 85.211 L 12.021 80.221 L 7.386 64.073 Z" fill="#519cd5"/><path d="M 71.729 91.671 L 67.366 84.918 L 40.103 85.211 L 36.286 91.083 L 45.828 107.231 L 61.642 107.525 Z" fill="#519cd5"/><path d="M 54.28 39.705 L 70.639 52.329 L 64.641 71.706 L 43.647 72 L 38.194 52.035 Z" fill="#519cd5"/><path d="M 68.092 113.571 C 80.92 109.955 91.883 101.45 99.12 90.042 l -19.071 5.104 z" fill="#519cd5"/><path d="m 108.362 59.338 c .014 -.53 .021 -1.061 .021 -1.594 c 0 -13.104 -4.097 -25.188 -10.999 -34.878 l -1.296 19.308 z" fill="#519cd5"/><path d="M 36.905 3 C 42.334 1.055 48.146 0 54.191 0 C 60.744 0 67.026 1.24 72.842 3.511 l -17.739 8.014 z" fill="#519cd5"/><path d="M .003 58.357 C 0 58.153 0 57.949 0 57.745 C 0 44.393 4.252 32.1 11.392 22.319 l 1.359 20.59 z" fill="#519cd5"/><path d="M 38.001 112.868 C 25.83 108.813 15.503 100.307 8.701 89.139 l 18.623 5.262 z" fill="#519cd5"/></g></g></svg>