<?xml version="1.0" encoding="UTF-8" standalone="no"?>
<svg
   xmlns:dc="http://purl.org/dc/elements/1.1/"
   xmlns:cc="http://creativecommons.org/ns#"
   xmlns:rdf="http://www.w3.org/1999/02/22-rdf-syntax-ns#"
   xmlns:svg="http://www.w3.org/2000/svg"
   xmlns="http://www.w3.org/2000/svg"
   xmlns:sodipodi="http://sodipodi.sourceforge.net/DTD/sodipodi-0.dtd"
   xmlns:inkscape="http://www.inkscape.org/namespaces/inkscape"
   version="1.1"
   id="Layer_1"
   x="0px"
   y="0px"
   viewBox="0 0 1000 1000"
   xml:space="preserve"
   sodipodi:docname="Fifaworldcup.svg"
   width="1000"
   height="1000"
   inkscape:version="1.0.1 (3bc2e813f5, 2020-09-07)"><metadata
   id="metadata33"><rdf:RDF><cc:Work
       rdf:about=""><dc:format>image/svg+xml</dc:format><dc:type
         rdf:resource="http://purl.org/dc/dcmitype/StillImage" /><dc:title></dc:title></cc:Work></rdf:RDF></metadata><defs
   id="defs31" /><sodipodi:namedview
   pagecolor="#ffffff"
   bordercolor="#666666"
   borderopacity="1"
   objecttolerance="10"
   gridtolerance="10"
   guidetolerance="10"
   inkscape:pageopacity="0"
   inkscape:pageshadow="2"
   inkscape:window-width="1920"
   inkscape:window-height="1017"
   id="namedview29"
   showgrid="false"
   inkscape:zoom="0.827"
   inkscape:cx="500"
   inkscape:cy="500"
   inkscape:window-x="-8"
   inkscape:window-y="-8"
   inkscape:window-maximized="1"
   inkscape:current-layer="Layer_1"
   inkscape:document-rotation="0" />




<g
   id="g871"
   transform="matrix(2.4477092,0,0,2.4477092,-470.51425,-250.15021)"><polygon
     style="clip-rule:evenodd;fill:#0c579f;fill-rule:evenodd"
     points="317.483,227.773 326.404,204.334 243.328,204.334 243.328,312.39 277.474,312.39 277.474,273.649 300.922,273.649 310.352,249.948 277.474,249.948 277.474,227.773 "
     id="polygon2" /><polygon
     style="clip-rule:evenodd;fill:#0c579f;fill-rule:evenodd"
     points="336.852,312.39 370.489,312.39 370.489,204.334 336.852,204.334 "
     id="polygon4" /><path
     style="clip-rule:evenodd;fill:#0c579f;fill-rule:evenodd"
     d="m 497.905,204.589 -38.99,108.052 h 32.621 l 4.335,-14.78 h 37.711 l 4.589,14.78 h 33.383 l -38.99,-108.052 h -34.659 m 16.817,27.775 -13.247,44.85 h 26.5 l -13.253,-44.85"
     id="path6" /><polygon
     style="clip-rule:evenodd;fill:#0c579f;fill-rule:evenodd"
     points="468.345,227.773 477.263,204.334 394.192,204.334 394.192,312.39 428.335,312.39 428.335,273.649 452.035,273.649 461.463,249.948 428.335,249.948 428.335,227.773 "
     id="polygon8" /><g
     id="g26">
	<path
   style="fill:#0c579f"
   d="m 246.508,383.918 -8.98,-33.328 -9.094,33.328 c -0.707,2.528 -1.27,4.342 -1.687,5.442 -0.416,1.099 -1.143,2.086 -2.179,2.959 -1.035,0.871 -2.413,1.307 -4.129,1.307 -1.389,0 -2.533,-0.26 -3.43,-0.776 -0.896,-0.518 -1.623,-1.25 -2.178,-2.197 -0.556,-0.947 -1.011,-2.072 -1.365,-3.372 -0.354,-1.301 -0.67,-2.507 -0.947,-3.618 l -9.245,-37.392 c -0.556,-2.172 -0.834,-3.825 -0.834,-4.962 0,-1.439 0.505,-2.652 1.516,-3.637 1.01,-0.985 2.261,-1.478 3.751,-1.478 2.046,0 3.423,0.657 4.13,1.97 0.707,1.313 1.326,3.22 1.857,5.718 l 7.274,32.418 8.146,-30.335 c 0.606,-2.323 1.149,-4.09 1.629,-5.302 0.48,-1.211 1.263,-2.26 2.35,-3.144 1.086,-0.883 2.563,-1.325 4.433,-1.325 1.895,0 3.366,0.46 4.414,1.383 1.048,0.922 1.774,1.925 2.179,3.012 0.404,1.085 0.948,2.877 1.629,5.376 l 8.222,30.335 7.275,-32.418 c 0.353,-1.69 0.689,-3.016 1.004,-3.975 0.316,-0.96 0.858,-1.819 1.629,-2.577 0.771,-0.757 1.888,-1.136 3.354,-1.136 1.465,0 2.708,0.486 3.731,1.459 1.023,0.972 1.535,2.19 1.535,3.655 0,1.035 -0.278,2.69 -0.834,4.962 l -9.245,37.392 c -0.632,2.525 -1.156,4.376 -1.573,5.55 -0.417,1.175 -1.124,2.204 -2.121,3.088 -0.998,0.884 -2.407,1.326 -4.225,1.326 -1.718,0 -3.095,-0.43 -4.13,-1.288 -1.036,-0.861 -1.756,-1.827 -2.16,-2.902 -0.402,-1.073 -0.97,-2.914 -1.702,-5.518 z"
   id="path10" />
	<path
   style="fill:#0c579f"
   d="m 316.017,372.606 c 0,3.081 -0.48,5.922 -1.44,8.521 -0.96,2.601 -2.349,4.836 -4.166,6.703 -1.819,1.869 -3.99,3.3 -6.514,4.299 -2.525,0.997 -5.366,1.496 -8.521,1.496 -3.131,0 -5.947,-0.505 -8.446,-1.516 -2.5,-1.01 -4.665,-2.458 -6.495,-4.34 -1.83,-1.884 -3.219,-4.108 -4.166,-6.671 -0.947,-2.566 -1.42,-5.402 -1.42,-8.512 0,-3.134 0.48,-6.002 1.439,-8.607 0.96,-2.6 2.336,-4.825 4.129,-6.671 1.792,-1.843 3.963,-3.266 6.514,-4.264 2.55,-0.999 5.365,-1.497 8.446,-1.497 3.13,0 5.97,0.506 8.521,1.519 2.55,1.01 4.733,2.453 6.552,4.324 1.817,1.872 3.199,4.098 4.147,6.678 0.946,2.581 1.42,5.428 1.42,8.538 z m -10.406,0 c 0,-4.219 -0.926,-7.504 -2.775,-9.854 -1.851,-2.351 -4.337,-3.525 -7.459,-3.525 -2.014,0 -3.79,0.525 -5.325,1.572 -1.536,1.049 -2.72,2.598 -3.55,4.644 -0.831,2.047 -1.246,4.435 -1.246,7.163 0,2.705 0.409,5.067 1.227,7.088 0.818,2.022 1.989,3.571 3.513,4.644 1.523,1.073 3.317,1.61 5.382,1.61 3.122,0 5.608,-1.181 7.459,-3.544 1.848,-2.363 2.774,-5.628 2.774,-9.798 z"
   id="path12" />
	<path
   style="fill:#0c579f"
   d="m 334.44,378.682 v 8.65 c 0,2.098 -0.491,3.672 -1.472,4.721 -0.982,1.05 -2.228,1.574 -3.737,1.574 -1.485,0 -2.704,-0.531 -3.662,-1.592 -0.957,-1.061 -1.434,-2.629 -1.434,-4.7 v -28.811 c 0,-4.648 1.673,-6.974 5.02,-6.974 1.711,0 2.944,0.544 3.699,1.626 0.754,1.086 1.17,2.686 1.246,4.805 1.235,-2.118 2.504,-3.719 3.805,-4.805 1.301,-1.082 3.037,-1.626 5.209,-1.626 2.172,0 4.281,0.544 6.327,1.628 2.046,1.084 3.069,2.522 3.069,4.315 0,1.259 -0.436,2.301 -1.307,3.12 -0.872,0.818 -1.813,1.229 -2.823,1.229 -0.379,0 -1.294,-0.233 -2.746,-0.7 -1.453,-0.469 -2.734,-0.702 -3.845,-0.702 -1.516,0 -2.753,0.398 -3.713,1.195 -0.959,0.797 -1.705,1.978 -2.235,3.547 -0.53,1.565 -0.897,3.432 -1.099,5.594 -0.2,2.162 -0.302,4.796 -0.302,7.906 z"
   id="path14" />
	<path
   style="fill:#0c579f"
   d="m 357.145,387.338 v -44.854 c 0,-2.071 0.459,-3.638 1.378,-4.698 0.918,-1.061 2.158,-1.591 3.718,-1.591 1.56,0 2.817,0.523 3.774,1.572 0.956,1.048 1.435,2.621 1.435,4.717 v 44.854 c 0,2.096 -0.484,3.667 -1.453,4.716 -0.969,1.048 -2.221,1.572 -3.756,1.572 -1.51,0 -2.736,-0.543 -3.68,-1.63 -0.945,-1.085 -1.416,-2.639 -1.416,-4.658 z"
   id="path16" />
	<path
   style="fill:#0c579f"
   d="m 406.457,387.725 v -1.021 c -1.389,1.589 -2.759,2.881 -4.109,3.877 -1.351,0.996 -2.814,1.754 -4.392,2.27 -1.578,0.516 -3.302,0.775 -5.17,0.775 -2.474,0 -4.765,-0.524 -6.874,-1.572 -2.107,-1.049 -3.932,-2.544 -5.472,-4.489 -1.539,-1.945 -2.707,-4.23 -3.502,-6.858 -0.796,-2.626 -1.193,-5.468 -1.193,-8.523 0,-6.465 1.578,-11.505 4.733,-15.116 3.156,-3.611 7.309,-5.416 12.458,-5.416 2.979,0 5.491,0.514 7.537,1.539 2.044,1.027 4.038,2.604 5.982,4.732 v -15.281 c 0,-2.123 0.423,-3.728 1.272,-4.816 0.848,-1.086 2.057,-1.63 3.627,-1.63 1.569,0 2.778,0.498 3.627,1.497 0.849,0.997 1.272,2.469 1.272,4.413 v 45.612 c 0,1.969 -0.456,3.446 -1.367,4.432 -0.911,0.984 -2.089,1.478 -3.532,1.478 -1.417,0 -2.589,-0.511 -3.514,-1.531 -0.922,-1.026 -1.383,-2.48 -1.383,-4.372 z m -20.305,-15.182 c 0,2.803 0.435,5.186 1.304,7.157 0.87,1.97 2.061,3.452 3.573,4.448 1.512,0.998 3.164,1.496 4.954,1.496 1.814,0 3.473,-0.473 4.972,-1.42 1.5,-0.946 2.696,-2.397 3.593,-4.354 0.894,-1.958 1.342,-4.399 1.342,-7.328 0,-2.751 -0.448,-5.117 -1.342,-7.1 -0.896,-1.982 -2.105,-3.494 -3.631,-4.543 -1.524,-1.048 -3.194,-1.571 -5.01,-1.571 -1.891,0 -3.58,0.536 -5.067,1.609 -1.487,1.073 -2.64,2.613 -3.46,4.618 -0.819,2.01 -1.228,4.339 -1.228,6.988 z"
   id="path18" />
	<path
   style="fill:#0c579f"
   d="m 494.069,375.139 c 0,1.768 -0.436,3.682 -1.308,5.739 -0.871,2.059 -2.241,4.079 -4.11,6.062 -1.868,1.982 -4.256,3.593 -7.159,4.83 -2.905,1.237 -6.29,1.857 -10.153,1.857 -2.929,0 -5.594,-0.277 -7.994,-0.834 -2.398,-0.555 -4.577,-1.42 -6.536,-2.595 -1.959,-1.175 -3.758,-2.722 -5.4,-4.641 -1.467,-1.743 -2.719,-3.693 -3.756,-5.853 -1.037,-2.16 -1.815,-4.465 -2.333,-6.914 -0.517,-2.449 -0.776,-5.052 -0.776,-7.804 0,-4.471 0.65,-8.474 1.952,-12.01 1.303,-3.535 3.166,-6.561 5.595,-9.073 2.428,-2.513 5.271,-4.426 8.528,-5.739 3.257,-1.313 6.73,-1.97 10.418,-1.97 4.495,0 8.498,0.897 12.009,2.69 3.511,1.793 6.2,4.01 8.069,6.648 1.869,2.639 2.804,5.134 2.804,7.482 0,1.288 -0.455,2.425 -1.364,3.409 -0.909,0.984 -2.008,1.478 -3.296,1.478 -1.439,0 -2.518,-0.341 -3.239,-1.023 -0.72,-0.682 -1.521,-1.855 -2.405,-3.522 -1.465,-2.753 -3.189,-4.812 -5.171,-6.176 -1.983,-1.363 -4.427,-2.046 -7.33,-2.046 -4.623,0 -8.304,1.757 -11.044,5.267 -2.74,3.511 -4.11,8.499 -4.11,14.965 0,4.317 0.606,7.911 1.818,10.777 1.213,2.867 2.93,5.007 5.151,6.421 2.224,1.414 4.824,2.122 7.806,2.122 3.232,0 5.967,-0.802 8.202,-2.405 2.233,-1.604 3.92,-3.96 5.057,-7.065 0.479,-1.466 1.073,-2.658 1.78,-3.58 0.707,-0.923 1.844,-1.384 3.409,-1.384 1.339,0 2.488,0.469 3.448,1.402 0.958,0.934 1.438,2.095 1.438,3.485 z"
   id="path20" />
	<path
   style="fill:#0c579f"
   d="m 530.361,387.776 v -1.325 c -1.238,1.564 -2.541,2.875 -3.905,3.935 -1.365,1.059 -2.857,1.848 -4.473,2.363 -1.62,0.518 -3.464,0.775 -5.536,0.775 -2.501,0 -4.745,-0.518 -6.728,-1.55 -1.985,-1.035 -3.521,-2.459 -4.607,-4.274 -1.285,-2.197 -1.926,-5.354 -1.926,-9.474 v -20.5 c 0,-2.072 0.464,-3.619 1.395,-4.642 0.932,-1.023 2.166,-1.535 3.701,-1.535 1.56,0 2.817,0.518 3.774,1.553 0.955,1.035 1.435,2.578 1.435,4.625 v 16.562 c 0,2.399 0.202,4.414 0.607,6.044 0.406,1.631 1.134,2.906 2.187,3.828 1.051,0.922 2.475,1.384 4.274,1.384 1.747,0 3.393,-0.518 4.94,-1.554 1.544,-1.036 2.671,-2.387 3.381,-4.058 0.584,-1.464 0.874,-4.671 0.874,-9.625 v -12.581 c 0,-2.047 0.481,-3.59 1.439,-4.625 0.961,-1.035 2.21,-1.553 3.751,-1.553 1.541,0 2.778,0.512 3.713,1.535 0.934,1.022 1.402,2.568 1.402,4.641 v 29.965 c 0,1.971 -0.449,3.448 -1.346,4.434 -0.896,0.983 -2.052,1.476 -3.466,1.476 -1.414,0 -2.583,-0.511 -3.505,-1.53 -0.919,-1.023 -1.381,-2.453 -1.381,-4.294 z"
   id="path22" />
	<path
   style="fill:#0c579f"
   d="m 559.897,357.34 v 1.253 c 1.946,-2.405 3.968,-4.174 6.064,-5.301 2.098,-1.127 4.471,-1.691 7.126,-1.691 3.182,0 6.111,0.82 8.792,2.462 2.678,1.643 4.795,4.042 6.35,7.198 1.553,3.157 2.329,6.895 2.329,11.214 0,3.182 -0.448,6.104 -1.345,8.77 -0.896,2.664 -2.13,4.9 -3.697,6.706 -1.565,1.805 -3.416,3.194 -5.551,4.166 -2.137,0.973 -4.428,1.459 -6.878,1.459 -2.958,0 -5.44,-0.594 -7.447,-1.776 -2.011,-1.185 -3.925,-2.926 -5.743,-5.222 v 15.534 c 0,4.547 -1.658,6.819 -4.975,6.819 -1.951,0 -3.242,-0.588 -3.874,-1.762 -0.634,-1.175 -0.949,-2.887 -0.949,-5.135 v -44.637 c 0,-1.969 0.429,-3.441 1.29,-4.414 0.86,-0.974 2.038,-1.458 3.533,-1.458 1.469,0 2.665,0.499 3.589,1.5 0.924,1.001 1.386,2.439 1.386,4.315 z m 20.256,15.039 c 0,-2.726 -0.417,-5.067 -1.251,-7.023 -0.833,-1.956 -1.987,-3.458 -3.462,-4.505 -1.477,-1.049 -3.112,-1.572 -4.903,-1.572 -2.853,0 -5.256,1.123 -7.214,3.37 -1.954,2.246 -2.933,5.555 -2.933,9.92 0,4.115 0.973,7.315 2.914,9.6 1.945,2.284 4.355,3.427 7.232,3.427 1.716,0 3.306,-0.499 4.769,-1.497 1.465,-0.995 2.637,-2.491 3.521,-4.485 0.886,-1.998 1.327,-4.408 1.327,-7.235 z"
   id="path24" />
</g></g>
</svg>
