<svg height="1000" viewBox="0 0 1000 1000" width="1000" xmlns="http://www.w3.org/2000/svg"><g transform="matrix(2.4477092 0 0 2.4477092 -470.51425 -250.15021)"><path clip-rule="evenodd" d="M 317.483 227.773 L 326.404 204.334 L 243.328 204.334 L 243.328 312.39 L 277.474 312.39 L 277.474 273.649 L 300.922 273.649 L 310.352 249.948 L 277.474 249.948 L 277.474 227.773 Z" fill="#0c579f" fill-rule="evenodd"/><path clip-rule="evenodd" d="M 336.852 312.39 L 370.489 312.39 L 370.489 204.334 L 336.852 204.334 Z" fill="#0c579f" fill-rule="evenodd"/><path clip-rule="evenodd" d="m 497.905 204.589 l -38.99 108.052 h 32.621 l 4.335 -14.78 h 37.711 l 4.589 14.78 h 33.383 l -38.99 -108.052 h -34.659 m 16.817 27.775 l -13.247 44.85 h 26.5 l -13.253 -44.85" fill="#0c579f" fill-rule="evenodd"/><path clip-rule="evenodd" d="M 468.345 227.773 L 477.263 204.334 L 394.192 204.334 L 394.192 312.39 L 428.335 312.39 L 428.335 273.649 L 452.035 273.649 L 461.463 249.948 L 428.335 249.948 L 428.335 227.773 Z" fill="#0c579f" fill-rule="evenodd"/><g><path d="m 246.508 383.918 l -8.98 -33.328 l -9.094 33.328 c -.707 2.528 -1.27 4.342 -1.687 5.442 c -.416 1.099 -1.143 2.086 -2.179 2.959 c -1.035 .871 -2.413 1.307 -4.129 1.307 c -1.389 0 -2.533 -.26 -3.43 -.776 c -.896 -.518 -1.623 -1.25 -2.178 -2.197 c -.556 -.947 -1.011 -2.072 -1.365 -3.372 c -.354 -1.301 -.67 -2.507 -.947 -3.618 l -9.245 -37.392 c -.556 -2.172 -.834 -3.825 -.834 -4.962 c 0 -1.439 .505 -2.652 1.516 -3.637 c 1.01 -.985 2.261 -1.478 3.751 -1.478 c 2.046 0 3.423 .657 4.13 1.97 c .707 1.313 1.326 3.22 1.857 5.718 l 7.274 32.418 l 8.146 -30.335 c .606 -2.323 1.149 -4.09 1.629 -5.302 c .48 -1.211 1.263 -2.26 2.35 -3.144 c 1.086 -.883 2.563 -1.325 4.433 -1.325 c 1.895 0 3.366 .46 4.414 1.383 c 1.048 .922 1.774 1.925 2.179 3.012 c .404 1.085 .948 2.877 1.629 5.376 l 8.222 30.335 l 7.275 -32.418 c .353 -1.69 .689 -3.016 1.004 -3.975 c .316 -.96 .858 -1.819 1.629 -2.577 c .771 -.757 1.888 -1.136 3.354 -1.136 c 1.465 0 2.708 .486 3.731 1.459 c 1.023 .972 1.535 2.19 1.535 3.655 c 0 1.035 -.278 2.69 -.834 4.962 l -9.245 37.392 c -.632 2.525 -1.156 4.376 -1.573 5.55 c -.417 1.175 -1.124 2.204 -2.121 3.088 c -.998 .884 -2.407 1.326 -4.225 1.326 c -1.718 0 -3.095 -.43 -4.13 -1.288 c -1.036 -.861 -1.756 -1.827 -2.16 -2.902 c -.402 -1.073 -.97 -2.914 -1.702 -5.518 z" fill="#0c579f"/><path d="m 316.017 372.606 c 0 3.081 -.48 5.922 -1.44 8.521 c -.96 2.601 -2.349 4.836 -4.166 6.703 c -1.819 1.869 -3.99 3.3 -6.514 4.299 c -2.525 .997 -5.366 1.496 -8.521 1.496 c -3.131 0 -5.947 -.505 -8.446 -1.516 c -2.5 -1.01 -4.665 -2.458 -6.495 -4.34 c -1.83 -1.884 -3.219 -4.108 -4.166 -6.671 c -.947 -2.566 -1.42 -5.402 -1.42 -8.512 c 0 -3.134 .48 -6.002 1.439 -8.607 c .96 -2.6 2.336 -4.825 4.129 -6.671 c 1.792 -1.843 3.963 -3.266 6.514 -4.264 c 2.55 -.999 5.365 -1.497 8.446 -1.497 c 3.13 0 5.97 .506 8.521 1.519 c 2.55 1.01 4.733 2.453 6.552 4.324 c 1.817 1.872 3.199 4.098 4.147 6.678 c .946 2.581 1.42 5.428 1.42 8.538 z m -10.406 0 c 0 -4.219 -.926 -7.504 -2.775 -9.854 c -1.851 -2.351 -4.337 -3.525 -7.459 -3.525 c -2.014 0 -3.79 .525 -5.325 1.572 c -1.536 1.049 -2.72 2.598 -3.55 4.644 c -.831 2.047 -1.246 4.435 -1.246 7.163 c 0 2.705 .409 5.067 1.227 7.088 c .818 2.022 1.989 3.571 3.513 4.644 c 1.523 1.073 3.317 1.61 5.382 1.61 c 3.122 0 5.608 -1.181 7.459 -3.544 c 1.848 -2.363 2.774 -5.628 2.774 -9.798 z" fill="#0c579f"/><path d="m 334.44 378.682 v 8.65 c 0 2.098 -.491 3.672 -1.472 4.721 c -.982 1.05 -2.228 1.574 -3.737 1.574 c -1.485 0 -2.704 -.531 -3.662 -1.592 c -.957 -1.061 -1.434 -2.629 -1.434 -4.7 v -28.811 c 0 -4.648 1.673 -6.974 5.02 -6.974 c 1.711 0 2.944 .544 3.699 1.626 c .754 1.086 1.17 2.686 1.246 4.805 c 1.235 -2.118 2.504 -3.719 3.805 -4.805 c 1.301 -1.082 3.037 -1.626 5.209 -1.626 c 2.172 0 4.281 .544 6.327 1.628 c 2.046 1.084 3.069 2.522 3.069 4.315 c 0 1.259 -.436 2.301 -1.307 3.12 c -.872 .818 -1.813 1.229 -2.823 1.229 c -.379 0 -1.294 -.233 -2.746 -.7 c -1.453 -.469 -2.734 -.702 -3.845 -.702 c -1.516 0 -2.753 .398 -3.713 1.195 c -.959 .797 -1.705 1.978 -2.235 3.547 c -.53 1.565 -.897 3.432 -1.099 5.594 c -.2 2.162 -.302 4.796 -.302 7.906 z" fill="#0c579f"/><path d="m 357.145 387.338 v -44.854 c 0 -2.071 .459 -3.638 1.378 -4.698 c .918 -1.061 2.158 -1.591 3.718 -1.591 c 1.56 0 2.817 .523 3.774 1.572 c .956 1.048 1.435 2.621 1.435 4.717 v 44.854 c 0 2.096 -.484 3.667 -1.453 4.716 c -.969 1.048 -2.221 1.572 -3.756 1.572 c -1.51 0 -2.736 -.543 -3.68 -1.63 c -.945 -1.085 -1.416 -2.639 -1.416 -4.658 z" fill="#0c579f"/><path d="m 406.457 387.725 v -1.021 c -1.389 1.589 -2.759 2.881 -4.109 3.877 c -1.351 .996 -2.814 1.754 -4.392 2.27 c -1.578 .516 -3.302 .775 -5.17 .775 c -2.474 0 -4.765 -.524 -6.874 -1.572 c -2.107 -1.049 -3.932 -2.544 -5.472 -4.489 c -1.539 -1.945 -2.707 -4.23 -3.502 -6.858 c -.796 -2.626 -1.193 -5.468 -1.193 -8.523 c 0 -6.465 1.578 -11.505 4.733 -15.116 c 3.156 -3.611 7.309 -5.416 12.458 -5.416 c 2.979 0 5.491 .514 7.537 1.539 c 2.044 1.027 4.038 2.604 5.982 4.732 v -15.281 c 0 -2.123 .423 -3.728 1.272 -4.816 c .848 -1.086 2.057 -1.63 3.627 -1.63 c 1.569 0 2.778 .498 3.627 1.497 c .849 .997 1.272 2.469 1.272 4.413 v 45.612 c 0 1.969 -.456 3.446 -1.367 4.432 c -.911 .984 -2.089 1.478 -3.532 1.478 c -1.417 0 -2.589 -.511 -3.514 -1.531 c -.922 -1.026 -1.383 -2.48 -1.383 -4.372 z m -20.305 -15.182 c 0 2.803 .435 5.186 1.304 7.157 c .87 1.97 2.061 3.452 3.573 4.448 c 1.512 .998 3.164 1.496 4.954 1.496 c 1.814 0 3.473 -.473 4.972 -1.42 c 1.5 -.946 2.696 -2.397 3.593 -4.354 c .894 -1.958 1.342 -4.399 1.342 -7.328 c 0 -2.751 -.448 -5.117 -1.342 -7.1 c -.896 -1.982 -2.105 -3.494 -3.631 -4.543 c -1.524 -1.048 -3.194 -1.571 -5.01 -1.571 c -1.891 0 -3.58 .536 -5.067 1.609 c -1.487 1.073 -2.64 2.613 -3.46 4.618 c -.819 2.01 -1.228 4.339 -1.228 6.988 z" fill="#0c579f"/><path d="m 494.069 375.139 c 0 1.768 -.436 3.682 -1.308 5.739 c -.871 2.059 -2.241 4.079 -4.11 6.062 c -1.868 1.982 -4.256 3.593 -7.159 4.83 c -2.905 1.237 -6.29 1.857 -10.153 1.857 c -2.929 0 -5.594 -.277 -7.994 -.834 c -2.398 -.555 -4.577 -1.42 -6.536 -2.595 c -1.959 -1.175 -3.758 -2.722 -5.4 -4.641 c -1.467 -1.743 -2.719 -3.693 -3.756 -5.853 c -1.037 -2.16 -1.815 -4.465 -2.333 -6.914 c -.517 -2.449 -.776 -5.052 -.776 -7.804 c 0 -4.471 .65 -8.474 1.952 -12.01 c 1.303 -3.535 3.166 -6.561 5.595 -9.073 c 2.428 -2.513 5.271 -4.426 8.528 -5.739 c 3.257 -1.313 6.73 -1.97 10.418 -1.97 c 4.495 0 8.498 .897 12.009 2.69 c 3.511 1.793 6.2 4.01 8.069 6.648 c 1.869 2.639 2.804 5.134 2.804 7.482 c 0 1.288 -.455 2.425 -1.364 3.409 c -.909 .984 -2.008 1.478 -3.296 1.478 c -1.439 0 -2.518 -.341 -3.239 -1.023 c -.72 -.682 -1.521 -1.855 -2.405 -3.522 c -1.465 -2.753 -3.189 -4.812 -5.171 -6.176 c -1.983 -1.363 -4.427 -2.046 -7.33 -2.046 c -4.623 0 -8.304 1.757 -11.044 5.267 c -2.74 3.511 -4.11 8.499 -4.11 14.965 c 0 4.317 .606 7.911 1.818 10.777 c 1.213 2.867 2.93 5.007 5.151 6.421 c 2.224 1.414 4.824 2.122 7.806 2.122 c 3.232 0 5.967 -.802 8.202 -2.405 c 2.233 -1.604 3.92 -3.96 5.057 -7.065 c .479 -1.466 1.073 -2.658 1.78 -3.58 c .707 -.923 1.844 -1.384 3.409 -1.384 c 1.339 0 2.488 .469 3.448 1.402 c .958 .934 1.438 2.095 1.438 3.485 z" fill="#0c579f"/><path d="m 530.361 387.776 v -1.325 c -1.238 1.564 -2.541 2.875 -3.905 3.935 c -1.365 1.059 -2.857 1.848 -4.473 2.363 c -1.62 .518 -3.464 .775 -5.536 .775 c -2.501 0 -4.745 -.518 -6.728 -1.55 c -1.985 -1.035 -3.521 -2.459 -4.607 -4.274 c -1.285 -2.197 -1.926 -5.354 -1.926 -9.474 v -20.5 c 0 -2.072 .464 -3.619 1.395 -4.642 c .932 -1.023 2.166 -1.535 3.701 -1.535 c 1.56 0 2.817 .518 3.774 1.553 c .955 1.035 1.435 2.578 1.435 4.625 v 16.562 c 0 2.399 .202 4.414 .607 6.044 c .406 1.631 1.134 2.906 2.187 3.828 c 1.051 .922 2.475 1.384 4.274 1.384 c 1.747 0 3.393 -.518 4.94 -1.554 c 1.544 -1.036 2.671 -2.387 3.381 -4.058 c .584 -1.464 .874 -4.671 .874 -9.625 v -12.581 c 0 -2.047 .481 -3.59 1.439 -4.625 c .961 -1.035 2.21 -1.553 3.751 -1.553 c 1.541 0 2.778 .512 3.713 1.535 c .934 1.022 1.402 2.568 1.402 4.641 v 29.965 c 0 1.971 -.449 3.448 -1.346 4.434 c -.896 .983 -2.052 1.476 -3.466 1.476 c -1.414 0 -2.583 -.511 -3.505 -1.53 c -.919 -1.023 -1.381 -2.453 -1.381 -4.294 z" fill="#0c579f"/><path d="m 559.897 357.34 v 1.253 c 1.946 -2.405 3.968 -4.174 6.064 -5.301 c 2.098 -1.127 4.471 -1.691 7.126 -1.691 c 3.182 0 6.111 .82 8.792 2.462 c 2.678 1.643 4.795 4.042 6.35 7.198 c 1.553 3.157 2.329 6.895 2.329 11.214 c 0 3.182 -.448 6.104 -1.345 8.77 c -.896 2.664 -2.13 4.9 -3.697 6.706 c -1.565 1.805 -3.416 3.194 -5.551 4.166 c -2.137 .973 -4.428 1.459 -6.878 1.459 c -2.958 0 -5.44 -.594 -7.447 -1.776 c -2.011 -1.185 -3.925 -2.926 -5.743 -5.222 v 15.534 c 0 4.547 -1.658 6.819 -4.975 6.819 c -1.951 0 -3.242 -.588 -3.874 -1.762 c -.634 -1.175 -.949 -2.887 -.949 -5.135 v -44.637 c 0 -1.969 .429 -3.441 1.29 -4.414 c .86 -.974 2.038 -1.458 3.533 -1.458 c 1.469 0 2.665 .499 3.589 1.5 c .924 1.001 1.386 2.439 1.386 4.315 z m 20.256 15.039 c 0 -2.726 -.417 -5.067 -1.251 -7.023 c -.833 -1.956 -1.987 -3.458 -3.462 -4.505 c -1.477 -1.049 -3.112 -1.572 -4.903 -1.572 c -2.853 0 -5.256 1.123 -7.214 3.37 c -1.954 2.246 -2.933 5.555 -2.933 9.92 c 0 4.115 .973 7.315 2.914 9.6 c 1.945 2.284 4.355 3.427 7.232 3.427 c 1.716 0 3.306 -.499 4.769 -1.497 c 1.465 -.995 2.637 -2.491 3.521 -4.485 c .886 -1.998 1.327 -4.408 1.327 -7.235 z" fill="#0c579f"/></g></g></svg>