<svg height="1000" viewBox="0 0 1000 999.99998" width="1000" xmlns="http://www.w3.org/2000/svg"><g transform="translate(124.99998 24.999981)"><ellipse cx="-496.63608" cy="435.70334" fill="#fff" rx="368.6134" ry="368.60892" stroke="#343536" stroke-width="6.20569" transform="matrix(.12220066 -.99250541 .99250541 .12220066 0 0)"/><path d="m 371.74733 60.597496 v 0 c 0 -.0045 -173.09294 -8.445973 -226.04685 77.603014 l 52.95391 116.66789 c 58.74364 27.30084 148.09718 37.23252 173.08844 27.30535 v 0 c 24.98676 9.93167 114.3448 0 173.08844 -27.30535 L 597.78518 138.20501 C 544.85378 52.192042 371.8824 60.592994 371.74733 60.597496 Z" fill="#343536" stroke="#343536" stroke-width="4.96449"/><path d="M 367.917 435.814 L 298.999 527.89 L 230.082 435.814 L 290.481 362.854 L 307.271 362.553 Z" fill="#fbea53" stroke="#343536" stroke-width=".5513" transform="matrix(4.5021182 0 0 4.5021182 -974.38601 -1428.6942)"/><g fill="#ee0010" transform="matrix(4.5021182 0 0 4.5021182 -974.38601 -1428.6942)"><path d="M 337.287 407.459 L 337.287 467.535 L 352.603 447.074 L 352.603 425.961 Z" fill="#ee0010"/><path d="M 306.656 370.463 L 306.656 508.463 L 321.973 488.001 L 321.973 388.964 Z" fill="#ee0010"/><path d="M 276.025 388.964 L 276.025 488.001 L 291.343 508.463 L 291.343 370.464 Z" fill="#ee0010"/><path d="M 245.396 425.964 L 245.396 447.079 L 260.712 467.54 L 260.712 407.465 Z" fill="#ee0010"/></g><g fill="#1e4d8b" stroke-width=".999974" transform="matrix(4.5021182 0 0 4.5021182 -974.38601 -1428.6942)"><path d="m 225.873 435.712 l 1.661 -2.006 l 43.696 -52.788 c -3.9 -1.069 -7.697 -2.397 -11.079 -3.97 l -1.113 -.516 l -.505 -1.116 l -.72 -1.583 c -21.453 13.662 -35.727 37.642 -35.727 64.907 c 0 37.49 26.97 68.783 62.52 75.543 l -57.174 -76.386 z" fill="#1e4d8b" stroke-width=".999974"/><path d="m 375.913 438.641 c 0 -26.613 -13.591 -50.107 -34.192 -63.92 l -.272 .597 l -.506 1.117 l -1.111 .516 c -3.851 1.79 -8.238 3.263 -12.705 4.401 l 43.338 52.353 l 1.662 2.007 l -1.561 2.086 l -57.176 76.386 c 35.553 -6.759 62.523 -38.053 62.523 -75.543 z" fill="#1e4d8b" stroke-width=".999974"/></g><g transform="matrix(4.5021182 0 0 4.5021182 -974.38601 -1428.6942)"><path d="m 271.471 425.654 h -5.836 c -5.511 0 -9.833 5.997 -9.833 11.344 c 0 5.348 4.322 11.344 9.833 11.344 h 5.836 v 7.567 h -6.268 c -9.078 0 -17.809 -7.46 -17.809 -18.911 c 0 -11.452 8.731 -18.912 17.809 -18.912 h 6.268 z" fill="#343536"/><path d="M 348.399 418.086 L 326.824 418.086 L 326.819 455.909 L 334.388 455.909 L 334.388 439.07 L 344.013 439.07 L 344.013 431.502 L 334.388 431.502 L 334.389 425.653 L 348.399 425.653 Z" fill="#343536"/><path d="M 298.999 448.973 L 279.364 388.057 L 248.572 388.06 L 248.572 400.047 L 270.486 400.047 L 299.001 488.498 L 327.512 400.041 L 349.428 400.041 L 349.428 388.06 L 318.636 388.06 Z" fill="#343536"/></g><path d="m 371.74733 79.285789 c 9.05376 0 16.38321 -7.329448 16.38321 -16.383208 c 0 -9.049258 -7.32945 -16.383208 -16.38321 -16.383208 c -9.04926 0 -16.3787 7.33395 -16.3787 16.383208 c 0 9.05376 7.32944 16.383208 16.3787 16.383208 z" fill="none"/><path d="m 371.72932 175.30246 v 0 c -22.13241 -.39618 -116.64988 .16658 -193.34796 34.95445 l 20.25953 44.6295 c .35116 .16658 .72484 .32415 1.08501 .48623 c 65.63638 -31.82998 149.88452 -34.36017 171.5262 -34.45922 v .005 c 25.85566 .0675 106.41657 2.39962 172.51667 34.45921 c .35566 -.16658 .72484 -.31965 1.08501 -.48623 l 20.25503 -44.6295 C 488.83392 175.66263 399.37233 174.91978 371.72932 175.30246 Z" fill="#fbea53" stroke="#343536" stroke-linejoin="round" stroke-width="4.96449"/><path d="m 628.18798 128.06174 v -.027 c -48.29872 -31.141147 -71.0029 26.78761 -39.22695 42.79264 c -54.64221 20.28204 -75.40598 -25.17585 -74.57309 -45.03019 c 23.1634 47.16419 88.52515 -9.93167 27.06674 -38.965831 l -.018 .009 c 24.60407 -25.743112 11.82256 -48.60937 -6.11388 -54.56117 l .004 -.009 c -17.34215 -7.496027 -42.10831 1.057997 -40.89724 36.647242 l -.009 -.02251 c -64.8125 -17.243113 -59.15333 70.251049 -3.30456 50.135589 c -43.14379 68.69782 -103.69728 6.01933 -113.78203 -22.393536 c -.27463 -.967956 -.54476 -1.86838 -.81488 -2.665254 c 22.24046 23.85222 43.38241 17.56276 52.40916 3.408103 c 10.22881 -16.045549 4.9073 -42.207358 -32.00106 -46.070176 l -.0225 .01351 c 13.817 -32.81594 -6.27145 -49.6358533 -25.15334 -48.8119657 v .013506 c -4.72272 -.2115996 -9.51297 .6798198 -13.83951 2.6607518 c -12.9661 5.9202859 -21.6777 21.5201259 -11.32282 46.1332059 l -.009 -.0045 c -6.51456 .675317 -12.04767 2.052965 -16.68035 3.948357 c -38.62817 15.766418 -15.05508 67.396718 19.73729 51.774368 c 5.55561 -2.50318 11.41287 -6.71266 17.34666 -13.069658 c -.009 .02251 -.009 .04952 -.0135 .07203 c -7.04581 26.900158 -70.07547 95.868108 -114.59241 24.986758 c 55.84878 20.11546 61.51244 -67.374201 -3.30455 -50.131088 l -.009 .02251 c 1.21602 -35.593768 -23.55013 -44.14329 -40.88779 -36.647263 v .0045 c -17.93644 5.947298 -30.71795 28.82256 -6.11387 54.565672 l -.018 -.009 c -61.45842 29.034159 3.89883 86.125519 27.07124 38.961329 c .82838 19.86335 -19.93538 65.31223 -74.57759 45.03919 c 31.78045 -16.01854 9.08077 -73.933783 -39.22246 -42.79714 v .0225 C 105.52358 93.823129 79.334755 93.300883 65.139576 105.77175 l 47.317264 72.97483 c 59.57203 46.3358 112.52144 22.34852 139.83129 -16.54978 c 40.54157 33.92796 103.74681 8.27939 119.47271 -23.98279 c 15.71689 32.27119 78.92663 57.91525 119.47271 23.99179 c 27.30535 38.8893 80.26376 62.88559 139.84029 16.55429 L 678.3866 105.77625 C 664.17792 93.296381 637.98009 93.823129 628.18798 128.06174 Z" fill="#fbea53" stroke="#343536" stroke-linejoin="round" stroke-width="4.96449"/><g transform="matrix(4.5021182 0 0 4.5021182 -974.38601 -1428.6942)"><path d="m 268.672 339.957 c 1.878 -.716 2.82 -2.819 2.103 -4.695 c -.716 -1.879 -2.818 -2.82 -4.695 -2.105 c -1.878 .716 -2.82 2.819 -2.103 4.697 c .715 1.876 2.818 2.819 4.695 2.103 z" fill="#e25645" stroke="#343536" stroke-linejoin="round" stroke-width="1.1027"/><path d="m 241.96 351.926 c -1.101 -1.37 -2.991 -1.733 -4.497 -.96 l 3.939 6.074 h .002 c 1.566 -1.258 1.815 -3.549 .556 -5.114 z" fill="#e25645" stroke="#343536" stroke-linejoin="round" stroke-width="1.1027"/><path d="m 298.999 334.952 c -2.011 0 -3.639 -1.63 -3.639 -3.639 c 0 -2.011 1.628 -3.64 3.639 -3.64 c 2.009 0 3.64 1.629 3.64 3.64 c 0 2.009 -1.631 3.639 -3.64 3.639 z" fill="#e25645" stroke="#343536" stroke-linejoin="round" stroke-width="1.1027"/><path d="m 329.327 339.958 c -1.878 -.716 -2.82 -2.818 -2.103 -4.696 c .716 -1.878 2.819 -2.818 4.694 -2.103 c 1.879 .716 2.82 2.818 2.105 4.695 c -.716 1.878 -2.82 2.82 -4.696 2.104 z" fill="#e25645" stroke="#343536" stroke-linejoin="round" stroke-width="1.1027"/><path d="m 356.039 351.928 c 1.1 -1.372 2.992 -1.732 4.497 -.959 l -3.939 6.076 v -.002 c -1.568 -1.259 -1.817 -3.549 -.558 -5.115 z" fill="#e25645" stroke="#343536" stroke-linejoin="round" stroke-width="1.1027"/></g><path d="M 299 357.639 L 291.281 361.497 L 299 365.357 L 306.719 361.497 Z" fill="#e25645" transform="matrix(4.5021182 0 0 4.5021182 -974.38601 -1428.6942)"/><g transform="matrix(4.5021182 0 0 4.5021182 -974.38601 -1428.6942)"><path d="M 265.81 362.898 L 260.324 368.396 L 268.015 369.487 L 273.5 363.987 Z" fill="#00a7e6"/><path d="M 332.412 362.899 L 337.896 368.397 L 330.207 369.487 L 324.721 363.989 Z" fill="#00a7e6"/></g></g></svg>