<svg height="1000" viewBox="0 0 1000 1000" width="1000" xmlns="http://www.w3.org/2000/svg"><g transform="matrix(1.4940302 0 0 1.4940302 12.136413 17.532837)"><path d="M 563.96 400.42 V 120.555 C 487.123 130.184 437.068 92.067 413.495 6.302 c -.2 -.3 -.2 -.802 -.2 -1.304 c -.302 .502 -.302 1.004 -.502 1.304 c -3.811 8.828 -11.938 16.652 -24.575 23.774 c -1.305 .802 -2.509 1.506 -3.813 2.306 c -16.852 8.226 -36.914 12.54 -59.886 12.54 c -22.97 0 -43.233 -4.314 -60.184 -12.54 c -1.204 -.8 -2.708 -1.503 -4.014 -2.306 c -12.339 -7.122 -20.262 -14.946 -23.974 -23.774 c -.3 -.3 -.3 -.802 -.3 -1.004 c -.202 .201 -.202 .703 -.202 1.004 C 212.574 92.067 162.52 130.183 85.583 120.555 V 400.42 c 3.813 85.664 51.861 150.364 144.445 193.597 c 18.457 9.932 38.62 16.451 61.088 19.961 c 11.135 2.106 22.271 10.934 33.705 26.884 c 11.337 -15.95 22.469 -24.777 33.504 -26.884 c 22.569 -3.51 42.831 -10.03 61.289 -19.961 C 512.1 550.784 560.146 486.084 563.96 400.42 Z" fill="#25398b"/><path d="M 548.813 399.917 V 137.206 c -68.011 3.311 -115.357 -30.293 -141.638 -101.111 c -3.512 2.306 -7.323 4.814 -11.335 7.123 c -.3 0 -.3 0 -.3 .198 c -1.204 .803 -2.509 1.305 -3.71 2.007 c -.302 0 -.503 0 -.503 .302 c -18.757 9.628 -41.026 14.443 -66.807 14.443 c -25.778 0 -48.048 -4.815 -67.006 -14.443 l .302 .198 c -1.807 -1.002 -3.512 -2.006 -5.115 -2.706 H 253 c -4.014 -2.309 -7.625 -4.616 -10.835 -6.824 c -26.08 70.519 -73.326 104.123 -141.336 100.812 v 262.711 c 1.205 26.782 7.323 51.26 17.956 73.827 c 1.705 3.211 3.51 6.823 5.316 10.132 c 20.663 37.115 55.069 67.71 103.117 91.984 c 3.01 1.505 6.019 3.01 9.33 4.516 c .301 0 .501 0 .802 .3 c 16.952 9.026 35.611 15.146 56.075 18.457 c .3 0 .3 0 .501 0 c 10.432 1.503 20.463 7.522 30.895 17.954 c 10.333 -10.433 20.462 -16.452 30.795 -17.954 c .202 0 .202 0 .503 0 c 20.462 -3.311 39.42 -9.431 56.372 -18.457 c .302 -.3 .502 -.3 .804 -.3 c 86.466 -40.725 131.706 -100.811 135.518 -180.458 z" fill="#f0e90c"/><path d="m 527.045 147.037 c 3.813 .3 7.625 .3 11.639 .6 v 251.779 c 0 0 0 .2 0 .5 c -4.316 75.534 -47.548 132.711 -129.701 171.431 c -.302 0 -.302 0 -.503 0 c -.302 0 -.302 0 -.302 .301 c -.198 0 -.198 0 -.5 .2 c -15.847 8.327 -33.603 14.144 -53.063 17.153 c -.503 0 -1.004 0 -1.306 .203 c -9.529 1.303 -19.159 6.119 -28.488 14.243 c -9.428 -8.125 -18.958 -12.94 -28.588 -14.243 c -.3 -.203 -.802 -.203 -1.304 -.203 c -19.459 -3.009 -36.913 -8.826 -52.763 -17.153 l 61.389 -91.582 c .203 0 .804 0 1.505 .301 c 6.621 .7 13.442 1.002 20.464 1.002 c 7.321 0 14.645 -.5 21.465 -1.303 c 5.316 -.702 10.332 -1.505 15.249 -2.509 c 29.088 -6.619 55.069 -21.264 77.538 -43.733 c 31.598 -31.598 47.545 -69.515 47.545 -114.254 c 0 -30.094 -7.02 -57.375 -21.465 -81.452 z" fill="#25398b"/><path d="m 253.2 55.053 c .502 .3 1.103 .3 1.805 .502 c 19.46 9.629 42.733 14.444 69.514 14.644 c 27.587 0 51.359 -5.015 71.321 -15.347 c .199 -.3 .501 -.3 .702 -.501 c 1.304 -.802 2.809 -1.604 4.112 -2.307 c .501 -.299 1.002 -.502 1.707 -.802 l -71.721 106.93 c -1.808 -.203 -3.31 -.203 -5.115 -.203 c -44.739 0 -82.855 15.648 -114.454 47.248 c -31.598 31.595 -47.347 69.813 -47.347 114.552 c 0 23.975 4.614 46.345 13.944 66.507 l -52.061 77.338 c -8.326 -19.462 -13.442 -40.726 -14.646 -63.697 V 147.638 c 63.396 -.3 108.635 -32.199 135.92 -96.097 c .301 0 .301 0 .502 .203 c 0 0 0 0 .302 .299 c 0 0 0 0 .298 0 c 1.707 1.003 3.512 2.007 5.217 3.01 z" fill="#25398b"/><path d="m 453.419 237.817 c 1.303 1.805 2.307 3.812 3.612 5.817 c 13.339 22.571 20.161 48.048 20.161 76.135 c 0 41.73 -14.848 77.638 -44.439 107.131 c -20.461 20.565 -44.035 34.207 -70.515 40.526 c -4.917 1.203 -9.932 2.005 -15.249 2.708 c -6.821 .802 -14.144 1.306 -21.465 1.306 c -6.52 0 -13.142 -.302 -19.461 -1.005 c -.2 0 -.2 0 -.5 0 c -.201 -.3 -.502 -.3 -.703 -.3 c -2.308 -.2 -4.313 -.502 -6.32 -.703 l -65.802 97.803 c -48.55 -23.974 -82.657 -55.07 -102.116 -92.987 l 58.681 -87.271 l -.301 -.201 c -.703 -1.503 -1.203 -3.108 -2.007 -4.611 c -.202 -.201 -.202 -.201 -.202 -.503 c 0 0 -2.305 -4.816 -6.62 -14.042 c -4.313 -9.431 -6.319 -25.38 -6.319 -47.85 c 0 -41.728 14.646 -77.639 44.238 -107.23 l .2 -.2 c 29.69 -29.592 65.503 -44.236 107.232 -44.236 c 1.504 0 3.009 0 4.613 .198 c .2 0 .2 0 .502 0 h .199 c 1.807 0 3.311 0 4.816 .302 l 71.521 -106.63 c 24.074 49.253 59.986 77.239 108.234 84.06 z" fill="#e63023"/><g><path d="m 321.21 218.859 v -15.147 c -30.094 .803 -56.073 12.138 -77.84 33.605 l -.201 .3 c -22.568 22.771 -33.905 50.054 -33.905 82.153 c -.302 16.951 3.008 32.3 9.329 46.845 c .201 0 .201 .201 .201 .503 c 0 .2 0 .2 .3 .502 c .2 .2 .2 .5 .502 .7 c 0 0 0 0 0 .302 c .2 .702 .703 1.204 1.005 2.006 c .198 .702 .702 1.705 1.002 2.508 c 5.316 10.33 12.639 19.662 21.566 28.488 l .201 .3 c 18.456 18.458 40.224 29.592 65.002 33.102 c .2 0 .702 0 1.001 0 c .702 .302 1.806 .302 2.81 .501 c 0 0 .2 0 .501 0 c 2.708 .302 5.516 .302 8.526 .502 v -15.147 c -2.507 -.302 -5.015 -.302 -7.323 -.501 c -1.003 -.302 -2.005 -.302 -3.008 -.302 h .501 c -.201 -.2 -.703 -.2 -1.003 -.2 c -21.467 -3.009 -40.224 -12.639 -56.375 -28.79 v .2 l -.3 -.2 h .3 c -7.823 -7.625 -13.942 -15.748 -18.757 -24.475 c -.201 -.802 -.703 -1.605 -1.003 -2.408 v -.2 c -.201 -.3 -.201 -.802 -.502 -1.002 c 0 -.302 0 -.302 0 -.503 c -.201 -.802 -.701 -1.302 -1.001 -1.805 c -.203 -.2 -.203 -.501 -.501 -.702 c 0 0 0 0 -.202 -.302 c 0 -.2 0 -.2 0 -.501 l .5 1.003 c -4.313 -9.831 -7.122 -20.462 -7.823 -31.797 c 0 0 0 -.802 -.302 -2.309 c 0 -1.304 0 -3.31 0 -6.117 v -.203 c 0 -28.087 9.831 -51.86 29.592 -71.519 c 18.658 -18.759 41.226 -28.588 67.207 -29.39 z" fill="#ffcb05"/></g><g><path d="m 321.21 244.137 c -5.316 .301 -10.331 1.002 -15.147 2.306 c -12.637 3.312 -23.974 9.834 -33.904 19.762 c -13.141 13.141 -20.464 28.788 -21.667 46.943 c -.301 2.31 -.502 4.316 -.301 6.622 c -.201 2.809 0 5.819 .301 8.628 c 1.705 16.149 8.024 30.293 19.159 42.43 l 9.128 -12.639 c -7.324 -8.828 -11.637 -18.658 -12.941 -29.791 h 40.224 v 41.729 h 15.147 v -125.99 z m -15.147 17.954 v 51.057 h -40.425 c 1.305 -13.84 7.022 -25.979 17.455 -36.412 c 6.821 -6.819 14.343 -11.835 22.97 -14.645 z" fill="#ffcb05"/></g><g><path d="m 421.321 253.767 c -4.013 -5.819 -8.527 -11.135 -13.644 -16.15 c -13.34 -13.441 -28.488 -23.071 -45.439 -28.588 c -4.917 -1.505 -9.932 -2.808 -15.249 -3.811 v 229.108 c 5.316 -1.106 10.332 -2.309 15.249 -3.814 c 16.951 -5.317 32.099 -14.946 45.439 -28.387 l .302 -.201 c 4.011 -4.313 7.825 -8.324 11.132 -12.639 l -12.637 -8.627 c -2.81 3.613 -6.119 7.123 -9.431 10.432 c 0 .2 0 .2 -.2 .2 c -10.432 10.333 -21.969 18.257 -34.605 22.972 V 225.179 c 12.637 4.813 24.173 12.638 34.605 23.072 c 5.518 5.517 10.332 11.333 14.644 17.654 z" fill="#ffcb05"/></g></g></svg>