<svg xmlns="http://www.w3.org/2000/svg" width="1000" height="1000" viewBox="0 0 750 750"><path fill="none" stroke="#191717" stroke-width="8.757579459999999" d="M684.871 55.857c2.811 119.932-7.945 245.295-47.35 359.287-32.576 94.235-84.167 178.223-160.497 243.252-26.53 22.607-55.353 42.303-85.928 59.044L375 726.257l-16.096-8.817c-30.575-16.74-59.397-36.437-85.932-59.044-76.326-65.029-127.917-149.017-160.492-243.252C73.074 301.152 62.318 175.79 65.129 55.857l.771-32.728h618.2Zm0 0"/><path fill="#f57f1e" fill-rule="evenodd" stroke="#f57f1e" stroke-width=".2410128" d="M259.762 599.822c33.503 35.173 71.984 64.54 115.238 88.225 159.926-87.58 254.67-252.788 273.351-502.185Zm0 0"/><path fill="#0f2882" fill-rule="evenodd" stroke="#0f2882" stroke-width=".2410128" d="M648.351 185.862c3.056-40.809 4.08-83.87 3.012-129.22H489.986L155.707 435.08c26.142 64.697 62.998 121.03 106.073 166.254Zm0 0"/><path fill="#eb1e23" fill-rule="evenodd" stroke="#eb1e23" stroke-width=".2410128" d="M489.986 56.641H98.633c-3.544 151.157 16.07 276.947 57.074 378.439Zm0 0"/><path fill="#fff" fill-rule="evenodd" stroke="#fff" stroke-width=".2410128" d="M273.308 506.254h-6.895l-2.737-6.769h-12.54l-2.584 6.769h-6.717l12.217-29.777h6.695zm-11.664-11.781-4.323-11.049-4.232 11.049zm15.037 11.781v-29.777h13.333c3.352 0 5.784.27 7.305.802 1.516.536 2.737 1.486 3.643 2.85.92 1.373 1.373 2.934 1.373 4.694 0 2.232-.693 4.084-2.074 5.54-1.382 1.447-3.457 2.371-6.207 2.746q2.06 1.143 3.395 2.502c.89.906 2.088 2.514 3.6 4.833l3.836 5.81h-7.575l-4.576-6.485q-2.444-3.47-3.339-4.372c-.597-.606-1.233-1.015-1.905-1.242-.67-.222-1.73-.331-3.19-.331h-1.282v12.43zm6.337-17.19h4.682c3.033 0 4.938-.118 5.696-.357.754-.244 1.338-.667 1.774-1.264.423-.597.645-1.338.645-2.232 0-1.007-.292-1.809-.85-2.427-.562-.615-1.355-1.003-2.388-1.173-.51-.06-2.049-.096-4.62-.096h-4.939zm39.88 6.242v-5.021h13.647v11.863c-1.33 1.22-3.247 2.293-5.766 3.226-2.52.92-5.07 1.386-7.65 1.386-3.277 0-6.14-.654-8.577-1.957-2.44-1.308-4.271-3.173-5.5-5.61q-1.839-3.647-1.84-7.928c0-3.099.69-5.862 2.053-8.272 1.369-2.406 3.374-4.258 6.015-5.54q3.013-1.483 7.51-1.482c3.892 0 6.934.776 9.118 2.319 2.192 1.556 3.595 3.696 4.227 6.437l-6.285 1.116c-.444-1.464-1.277-2.624-2.497-3.47-1.22-.845-2.737-1.267-4.563-1.267q-4.152 0-6.603 2.497c-1.635 1.67-2.446 4.14-2.446 7.418 0 3.53.824 6.185 2.485 7.95 1.647 1.77 3.818 2.65 6.494 2.65 1.334 0 2.659-.248 3.997-.741 1.329-.493 2.475-1.094 3.43-1.796v-3.778zm19.487 10.948v-29.777h23.253v5.038h-16.92v6.599h15.743v5.012h-15.743v8.107h17.517v5.021zm29.285 0v-29.777h6.163l12.84 19.883v-19.883h5.884v29.777h-6.359l-12.644-19.421v19.421zm38.638 0v-24.739h-9.305v-5.038h24.926v5.038h-9.284v24.739zm19.513-29.777h6.329v29.777h-6.329zm12.426 29.777v-29.777h6.163l12.84 19.883v-19.883h5.884v29.777h-6.359l-12.644-19.421v19.421zm59.864 0h-6.89l-2.742-6.769h-12.535l-2.585 6.769h-6.72l12.216-29.777h6.7zm-11.659-11.781-4.324-11.049-4.236 11.049zm0 0"/><path fill="#00a6eb" fill-rule="evenodd" stroke="#00a6eb" stroke-width=".2410128" d="M304.95 550.772h140.1v-21.858h-140.1zm0 0"/><path fill="#fff" fill-rule="evenodd" stroke="#fff" stroke-width=".2410128" d="M304.95 572.625h140.1v-21.853h-140.1zm0 0"/><path fill="#00a6eb" fill-rule="evenodd" stroke="#00a6eb" stroke-width=".2410128" d="M304.95 594.479h140.1v-21.854h-140.1zm0 0"/><path fill="#fff" fill-rule="evenodd" d="M195.613 103.177h18.781c3.692 0 6.686.505 8.961 1.503 2.275 1.012 4.154 2.445 5.653 4.32 1.486 1.887 2.559 4.066 3.225 6.56q1.013 3.738 1.012 7.914c0 4.367-.497 7.758-1.495 10.164q-1.486 3.609-4.141 6.054c-1.774 1.626-3.661 2.711-5.688 3.252q-4.159 1.116-7.527 1.115h-18.78zm12.623 9.248v22.329h3.103c2.641 0 4.528-.296 5.653-.876 1.111-.593 1.987-1.608 2.624-3.064.636-1.469.954-3.827.954-7.1 0-4.332-.706-7.292-2.127-8.887q-2.125-2.401-7.048-2.402zm30.858-9.248h33.804v8.734h-21.126v6.512h19.583v8.337h-19.583v8.05h21.754v9.25h-34.432zm40.416 0h21.012c4.577 0 8.002 1.085 10.286 3.264 2.275 2.18 3.417 5.283 3.417 9.306 0 4.131-1.246 7.365-3.73 9.688-2.485 2.332-6.281 3.492-11.38 3.492h-6.93v15.132H279.51zm12.674 17.473h3.108c2.463 0 4.184-.427 5.174-1.277q1.485-1.27 1.486-3.252c0-1.285-.432-2.37-1.295-3.264-.858-.898-2.475-1.343-4.855-1.343h-3.618zm26.256 2.998q-.002-10.01 5.579-15.581 5.575-5.576 15.538-5.575c6.803 0 12.047 1.827 15.73 5.47q5.523 5.486 5.522 15.35.001 7.167-2.41 11.743c-1.609 3.055-3.94 5.435-6.974 7.139-3.047 1.704-6.834 2.55-11.371 2.55q-6.912 0-11.45-2.197c-3.016-1.478-5.47-3.796-7.344-6.978q-2.82-4.755-2.82-11.92m12.618.027c0 4.123.771 7.09 2.305 8.887q2.307 2.701 6.281 2.702c2.71 0 4.825-.885 6.307-2.641 1.495-1.774 2.236-4.934 2.236-9.51 0-3.845-.78-6.652-2.328-8.421-1.569-1.778-3.665-2.663-6.328-2.663-2.554 0-4.607.902-6.15 2.702-1.552 1.796-2.323 4.786-2.323 8.944m35.953 20.384v-40.882h21.051c3.901 0 6.887.335 8.944 1.01 2.066.663 3.727 1.91 4.995 3.719 1.268 1.817 1.891 4.036 1.891 6.642 0 2.266-.483 4.228-1.45 5.87-.969 1.657-2.294 2.99-3.998 4.02-1.076.644-2.562 1.19-4.437 1.616 1.504.506 2.598.998 3.282 1.504.458.331 1.134 1.055 2.018 2.149.876 1.094 1.47 1.944 1.761 2.54l6.141 11.812h-14.274l-6.747-12.465c-.858-1.621-1.621-2.667-2.288-3.151-.91-.628-1.953-.942-3.099-.942h-1.116v16.558zm12.674-24.268h5.34c.57 0 1.695-.187 3.351-.562a3.26 3.26 0 0 0 2.044-1.281 3.82 3.82 0 0 0 .802-2.38q.001-1.987-1.26-3.047c-.836-.715-2.405-1.063-4.72-1.063h-5.557zm27.446-16.614h38.429v10.107h-12.906v30.775h-12.618v-30.775h-12.905zm43.842 0h12.674v40.882h-12.674zm16.946 0h13.201l9.21 29.424 9.079-29.424h12.818l-15.176 40.882h-13.686zm44.099 20.471q0-10.01 5.574-15.581c3.722-3.718 8.896-5.575 15.543-5.575 6.803 0 12.042 1.827 15.73 5.47 3.682 3.657 5.517 8.774 5.517 15.35 0 4.778-.797 8.692-2.406 11.743-1.608 3.055-3.94 5.435-6.973 7.139-3.047 1.704-6.834 2.55-11.376 2.55-4.602 0-8.42-.733-11.445-2.197-3.016-1.478-5.474-3.796-7.349-6.978-1.874-3.169-2.815-7.144-2.815-11.92m12.618.027c0 4.123.771 7.09 2.3 8.887q2.316 2.701 6.286 2.702c2.71 0 4.82-.885 6.307-2.641 1.495-1.774 2.236-4.934 2.236-9.51 0-3.845-.78-6.652-2.332-8.421-1.56-1.778-3.661-2.663-6.329-2.663q-3.826.001-6.15 2.702c-1.547 1.796-2.318 4.786-2.318 8.944M213.958 199.983h-19.574l-2.815 9.214h-17.63l21.042-55.91h18.912l20.951 55.91h-18.088zm-3.657-12.103-6.106-20.093-6.128 20.093zm29.19 21.317v-55.91h28.787c5.335 0 9.423.457 12.23 1.38 2.829.912 5.104 2.616 6.834 5.087 1.735 2.485 2.593 5.518 2.593 9.083q-.002 4.652-1.991 8.033c-1.317 2.262-3.139 4.084-5.466 5.492-1.473.884-3.504 1.625-6.067 2.21 2.057.692 3.552 1.368 4.49 2.057.627.457 1.55 1.447 2.758 2.942q1.8 2.244 2.41 3.473l8.395 16.153h-19.522l-9.227-17.05q-1.758-3.314-3.125-4.307c-1.246-.858-2.667-1.29-4.24-1.29h-1.526v22.647zm17.333-33.186h7.305c.78 0 2.314-.261 4.58-.771 1.142-.218 2.08-.806 2.799-1.757a5.22 5.22 0 0 0 1.09-3.251c0-1.809-.572-3.203-1.718-4.167-1.146-.976-3.29-1.455-6.46-1.455h-7.596zm41.972-22.725h22.786l8.682 34.018 8.709-34.018h22.681v55.91H347.52v-42.62l-10.905 42.62H323.81l-10.88-42.62v42.62h-14.134zm72.813 0h46.226v11.947h-28.892v8.904h26.783v11.398h-26.783v11.01h29.75v12.652H371.61Zm55.505 0h16.127l20.964 30.871v-30.87h16.318v55.91h-16.318l-20.85-30.701v30.7h-16.24zm64.55 0h17.333v55.91h-17.333zm26.456 27.995c0-9.123 2.54-16.231 7.623-21.305 5.095-5.09 12.173-7.627 21.256-7.627 9.305 0 16.475 2.498 21.514 7.484 5.038 4.999 7.548 11.999 7.548 20.99 0 6.534-1.094 11.886-3.295 16.061-2.196 4.18-5.387 7.431-9.536 9.759-4.167 2.332-9.345 3.491-15.555 3.491q-9.447 0-15.656-3.007c-4.123-2.018-7.484-5.191-10.046-9.541-2.563-4.332-3.853-9.772-3.853-16.305m17.26.04c0 5.635 1.054 9.692 3.146 12.155 2.11 2.458 4.973 3.696 8.59 3.696 3.71 0 6.6-1.212 8.63-3.618 2.045-2.423 3.051-6.742 3.051-13.001q.001-7.89-3.181-11.52c-2.136-2.432-5.012-3.643-8.656-3.643-3.487 0-6.298 1.238-8.408 3.696-2.118 2.458-3.173 6.546-3.173 12.234m0 0"/><path fill="#fff" fill-rule="evenodd" stroke="#fff" stroke-width=".2410128" d="M312.817 374.044V268.869h11.019c2.571 0 4.594-1.42 4.594-4.267v-11.506h115.456v11.506c0 2.846 2.022 4.267 4.59 4.267h11.018v105.175l-73.336 55.3zm0 0"/><path fill="#0f2882" fill-rule="evenodd" stroke="#0f2882" stroke-width=".2410128" d="M315.668 303.388h140.98v69.235l-70.49 53.156-70.49-53.156zm0 0"/><path fill="#fff" fill-rule="evenodd" stroke="#fff" stroke-width=".2410128" d="m339.901 330.86-5.64.584-3.578 8.87-4.385.291-2.554 7.872-4.916 5.43v17.142l67.33 50.768 67.521-50.964-16.514-13.162-27.345-26.827-5.85 6.25-.125 4.9-13.08 11.244-.811 8.482-7.383-6.538-12.134-14.937-5.614.022-7.218-9.1-3.652.021-8.556-9.597zm0 0"/><path fill="#0f2882" fill-rule="evenodd" stroke="#0f2882" stroke-width=".2410128" d="M315.668 300.542h140.98v-28.827h-8.173c-4.227 0-7.44-2.759-7.44-7.113v-8.66h-109.76v8.66c0 4.354-3.207 7.113-7.44 7.113h-8.167zM405.422 342.628l.192-5.174 4.267-4.393 18.362 18.035-1.098 1.486-4.851.776-2.393-3.49-.715 2.518-1.612-.191-3.749-1.94.061 4.655-1.804 2.584-3.748-2.78-1.617 2.2-1.487-2.715-4.463 4.782-1.617-1.678-4.393-.262-1.42-4.07zM325.522 351.162l-.448-1.875 2.388-7.304 4.398-.066 3.36-8.987 5.492-.453 5.047-8.142 7.431 8.272h3.88l7.047 9.049 5.818.13 6.721 8.534-6.145.842-5.94-4.076-7.96.388-4.907 4.912-2.842-3.36-5.043 5.108-3.49-3.556-2.917 3.687-3.613-4.01-3.103 3.491-1.617-1.809zM382.444 355.04l7.497 6.626v10.957h3.63c6.09 0 11.075 4.982 11.075 11.07v3.008c0 6.084-4.986 11.066-11.074 11.066h-11.128v-7.274h11.128c2.092 0 3.8-1.705 3.8-3.792v-3.008a3.81 3.81 0 0 0-3.8-3.796h-11.128zm0 0"/><path fill="#fff" fill-rule="evenodd" stroke="#fff" stroke-width=".2410128" d="m382.444 355.04 7.497 6.626v-25.21h11.25v-6.852h-11.25v-23.143h-7.497zm0 0"/><path fill="#fff" fill-rule="evenodd" d="M340.511 288.43h-5.749l-.819 2.702h-5.178l6.176-16.405h5.549l6.15 16.405h-5.31zm-1.072-3.552-1.796-5.897-1.795 5.897zm8.565 6.254v-16.405h8.446c1.565 0 2.764.13 3.587.405.833.266 1.5.767 2.005 1.49q.764 1.1.763 2.668c0 .907-.196 1.696-.584 2.354a4.5 4.5 0 0 1-1.604 1.612c-.431.262-1.029.48-1.783.65.606.205 1.046.4 1.321.606.183.13.453.422.806.863q.529.654.71 1.015l2.463 4.742h-5.731l-2.707-5.003c-.344-.65-.65-1.068-.915-1.264a2.15 2.15 0 0 0-1.247-.38h-.444v6.647zm5.086-9.737h2.14c.23 0 .68-.078 1.347-.226q.504-.098.82-.515a1.53 1.53 0 0 0 .322-.954q-.001-.8-.506-1.225c-.336-.283-.972-.427-1.892-.427h-2.231zm12.308-6.668h6.695l2.545 9.98 2.554-9.98h6.656v16.405h-4.145v-12.509l-3.2 12.51h-3.76l-3.191-12.51v12.51h-4.154zm21.374 0h13.564v3.504h-8.477v2.61h7.858v3.348h-7.858v3.23h8.73v3.713h-13.817zm16.284 0h4.733l6.154 9.057v-9.057h4.781v16.405h-4.78l-6.12-9.009v9.01h-4.768zm18.942 0h5.086v16.405h-5.086zm7.762 8.211q-.001-4.014 2.24-6.25 2.236-2.236 6.237-2.236 4.094 0 6.311 2.197c1.478 1.464 2.21 3.517 2.21 6.158 0 1.918-.318 3.487-.963 4.712a6.9 6.9 0 0 1-2.803 2.863q-1.825 1.026-4.559 1.025-2.77-.002-4.593-.885-1.823-.882-2.947-2.798c-.754-1.269-1.133-2.868-1.133-4.786m5.065.013c0 1.652.31 2.846.924 3.565q.93 1.086 2.519 1.086 1.636 0 2.532-1.06c.602-.71.898-1.978.898-3.817q-.001-2.314-.937-3.378c-.623-.715-1.469-1.068-2.537-1.068q-1.537.002-2.467 1.08-.933 1.087-.932 3.592m0 0"/></svg>