<?xml version="1.0" encoding="UTF-8" standalone="no"?>
<svg
   xmlns:dc="http://purl.org/dc/elements/1.1/"
   xmlns:cc="http://creativecommons.org/ns#"
   xmlns:rdf="http://www.w3.org/1999/02/22-rdf-syntax-ns#"
   xmlns:svg="http://www.w3.org/2000/svg"
   xmlns="http://www.w3.org/2000/svg"
   xmlns:sodipodi="http://sodipodi.sourceforge.net/DTD/sodipodi-0.dtd"
   xmlns:inkscape="http://www.inkscape.org/namespaces/inkscape"
   viewBox="0 0 1000 1000"
   id="svg36"
   height="1000"
   width="1000"
   version="1.1"
   sodipodi:docname="Club Comunicaciones (Buenos Aires).svg"
   inkscape:version="1.0.1 (3bc2e813f5, 2020-09-07)">
  <sodipodi:namedview
     pagecolor="#ffffff"
     bordercolor="#666666"
     borderopacity="1"
     objecttolerance="10"
     gridtolerance="10"
     guidetolerance="10"
     inkscape:pageopacity="0"
     inkscape:pageshadow="2"
     inkscape:window-width="1920"
     inkscape:window-height="1017"
     id="namedview24"
     showgrid="false"
     inkscape:zoom="0.845"
     inkscape:cx="500"
     inkscape:cy="500"
     inkscape:window-x="-8"
     inkscape:window-y="-8"
     inkscape:window-maximized="1"
     inkscape:current-layer="svg36" />
  <metadata
     id="metadata42">
    <rdf:RDF>
      <cc:Work
         rdf:about="">
        <dc:format>image/svg+xml</dc:format>
        <dc:type
           rdf:resource="http://purl.org/dc/dcmitype/StillImage" />
        <dc:title></dc:title>
      </cc:Work>
    </rdf:RDF>
  </metadata>
  <defs
     id="defs40" />
  <g
     id="g868"
     transform="matrix(1.5265672,0,0,1.5265672,33.992539,-103.77632)">
    <g
       id="Layer1000">
      <g
         id="Layer1001">
        <path
           id="path2"
           style="fill:#050109;fill-rule:evenodd"
           d="m 36.6885,437.3546 c 0,-148.4991 120.8101,-269.3094 269.3092,-269.3092 148.4989,3e-4 269.3135,120.8092 269.3135,269.3092 0,148.4995 -120.814,269.3135 -269.3135,269.3135 -148.4997,0 -269.3092,-120.8149 -269.3092,-269.3135 z" />
      </g>
      <path
         id="path5"
         style="fill:#000000;fill-rule:evenodd"
         d="m 39.6365,437.3546 c 0,146.872 119.4891,266.3656 266.3611,266.3656 146.8724,0 266.3656,-119.4936 266.3656,-266.3656 0,-146.8723 -119.4935,-266.3612 -266.3656,-266.3612 -146.872,-5e-4 -266.3611,119.4891 -266.3611,266.3612 z" />
      <path
         id="path7"
         style="fill:#ffffff;fill-rule:evenodd"
         d="m 45.3641,437.3546 c 0,143.7138 116.9197,260.6379 260.6335,260.6379 143.7142,0 260.638,-116.9241 260.638,-260.6379 0,-143.7138 -116.9241,-260.6335 -260.638,-260.6335 -143.7138,0 -260.6335,116.9197 -260.6335,260.6335 z" />
      <path
         id="path9"
         style="fill:#000000;fill-rule:evenodd"
         d="m 96.9175,437.3551 c 0,115.2875 93.7932,209.084 209.0807,209.084 115.2874,0 209.0839,-93.7965 209.0839,-209.084 3e-4,-115.2874 -93.7965,-209.0806 -209.0839,-209.0806 -115.2875,0 -209.0807,93.7932 -209.0807,209.0806 z" />
      <path
         id="path11"
         style="fill:#ffffff;fill-rule:evenodd"
         d="m 158.6571,437.3587 c 0,-81.2432 66.0976,-147.3389 147.3411,-147.3389 38.699,-2e-4 75.0748,14.8886 102.7338,41.8446 -2.3921,2.3966 -18.5116,18.5138 -20.6984,20.699 -22.1301,-21.4287 -51.1574,-33.2691 -82.0354,-33.2691 -65.1031,0 -118.0686,52.9632 -118.0686,118.0647 0,65.1009 52.9655,118.0642 118.0686,118.0642 30.8813,-3e-4 59.9053,-11.8449 82.0354,-33.2741 2.1871,2.1865 18.3104,18.3096 20.7023,20.7023 -27.6626,26.9579 -64.0387,41.8465 -102.7377,41.8465 -81.2435,0 -147.3411,-66.096 -147.3411,-147.3392 z" />
      <path
         id="path13"
         style="fill:#ffcc00;fill-rule:evenodd"
         d="m 305.9982,232.1753 v 53.9434 c 40.3995,0 78.3778,15.7322 106.9399,44.2998 l 1.3796,1.379 -26.2156,26.2153 -1.3785,-1.379 c -21.563,-21.5636 -50.2322,-33.4387 -80.7254,-33.4387 v 29.2742 c 22.6715,0 43.9915,8.8294 60.0231,24.863 l 1.379,1.379 -26.2148,26.2186 -1.3801,-1.379 c -9.0326,-9.0312 -21.0367,-14.0047 -33.8072,-14.0047 v 95.625 c 12.7743,0 24.7824,-4.9754 33.8111,-14.0088 l 1.3795,-1.3779 26.2151,26.2175 -1.3782,1.3801 c -16.0358,16.0347 -37.3563,24.8658 -60.0275,24.8658 v 29.2739 c 30.4935,0 59.1621,-11.8748 80.7252,-33.4415 l 1.3787,-1.379 26.2194,26.2186 -1.379,1.379 C 384.376,572.8643 346.393,588.599 305.9982,588.599 v 53.9387 c 113.1383,0 205.1826,-92.0445 205.1826,-205.1826 2e-4,-113.1369 -92.0446,-205.1792 -205.1826,-205.1798 z" />
      <path
         id="path15"
         style="fill:#ffffff;fill-rule:evenodd"
         d="m 225.0063,437.3587 c 0,-44.6559 36.3318,-80.988 80.9919,-80.988 20.9688,-3e-4 40.6274,8.0579 55.7518,22.4757 -2.4993,2.499 -18.6179,18.6204 -20.6988,20.7024 -9.5886,-8.8977 -21.9016,-13.9037 -35.053,-13.9037 -28.5161,0 -51.7155,23.1994 -51.7155,51.7139 0,28.5153 23.1994,51.7133 51.7155,51.7133 13.1547,-2e-4 25.468,-5.0062 35.0569,-13.9048 2.0817,2.079 18.1995,18.2026 20.6985,20.7021 -15.1278,14.4198 -34.7866,22.4769 -55.7554,22.4769 -44.6601,0 -80.9919,-36.3296 -80.9919,-80.9878 z" />
      <path
         id="path17"
         style="fill:#000000;fill-rule:evenodd"
         d="m 158.1339,643.6123 21.7403,-33.962 10.3009,6.5942 -8.7405,27.0595 20.8438,-19.3118 10.3246,6.6093 -21.7403,33.962 -6.3561,-4.0688 17.0914,-26.7515 -23.8111,22.4499 -6.609,-4.2308 10.4507,-31.0022 -17.1387,26.7209 z m 53.2555,7.2027 -6.034,-3.7274 c 1.7853,-2.3614 3.8293,-3.8227 6.1235,-4.3867 2.2939,-0.564 5.2077,-0.145 8.7325,1.2535 3.2017,1.2706 5.4434,2.5945 6.7128,3.9765 1.2607,1.3788 1.9879,2.7781 2.1607,4.2001 0.1729,1.4219 -0.3523,3.6875 -1.5917,6.8108 l -3.4283,8.3345 c -0.9449,2.3817 -1.5309,4.189 -1.7541,5.4136 -0.223,1.2241 -0.2767,2.6064 -0.1611,4.1469 l -7.1193,-2.8249 c 0.004,-0.5438 0.0452,-1.3355 0.1415,-2.3674 0.0561,-0.4726 0.0798,-0.7866 0.0795,-0.938 -1.6994,0.7195 -3.3646,1.0985 -4.9993,1.1467 -1.635,0.0481 -3.2394,-0.2351 -4.8185,-0.8616 -2.7831,-1.1043 -4.6807,-2.736 -5.6837,-4.8912 -1.0066,-2.1461 -1.0476,-4.3841 -0.1266,-6.705 0.6058,-1.5268 1.5158,-2.7514 2.7266,-3.6644 1.207,-0.9045 2.5948,-1.4242 4.1737,-1.5348 1.57,-0.1143 3.6935,0.082 6.3706,0.589 3.5994,0.7008 6.1648,1.0319 7.6707,1.0036 l 0.287,-0.7242 c 0.5541,-1.3961 0.6083,-2.5254 0.1668,-3.3974 -0.4538,-0.8671 -1.6272,-1.676 -3.5207,-2.4274 -1.2824,-0.5087 -2.3776,-0.6505 -3.2972,-0.4195 -0.9251,0.2185 -1.8574,0.889 -2.8114,1.9947 z m 7.3266,9.6326 c -1.0374,-0.058 -2.6396,-0.2697 -4.8072,-0.635 -2.1588,-0.3619 -3.6339,-0.4624 -4.404,-0.3033 -1.2001,0.3014 -2.0033,0.9518 -2.4085,1.9727 -0.4015,1.0121 -0.3691,2.0248 0.0903,3.0556 0.4597,1.0305 1.2651,1.7742 2.4255,2.2347 1.2912,0.5123 2.7,0.5767 4.2135,0.1977 1.1236,-0.3119 2.0107,-0.8687 2.6551,-1.7036 0.4258,-0.5378 0.9857,-1.6691 1.6677,-3.3877 z m 16.2194,20.2749 -7.4191,-2.1188 8.0263,-28.106 6.8776,1.9641 -1.1392,3.9892 c 1.7208,-1.5485 3.1389,-2.4811 4.2545,-2.7971 1.1153,-0.3162 2.2716,-0.2981 3.472,0.0446 1.6969,0.4845 3.1965,1.4203 4.5017,2.7988 l -4.1521,5.8231 c -1.0229,-1.1706 -2.0713,-1.9094 -3.1453,-2.216 -1.0471,-0.2992 -2.014,-0.2626 -2.8984,0.0997 -0.8871,0.3715 -1.7495,1.238 -2.5926,2.6176 -0.8431,1.3798 -1.9474,4.4612 -3.3109,9.236 z m 13.6667,3.9267 1.0635,-5.9886 12.9577,-10.4259 c 2.134,-1.7087 3.6897,-2.9005 4.6913,-3.5997 -0.8973,-0.1024 -2.0682,-0.2719 -3.5133,-0.5097 l -10.1575,-1.7465 1.1225,-6.3217 23.789,4.2248 -0.9552,5.3787 -13.2375,10.71 -4.6173,3.508 c 2.1268,0.2634 3.4488,0.441 3.9572,0.5312 l 11.765,2.0895 -1.1915,6.7097 z m 30.2568,-10.1324 c 0.1957,-2.5645 1.0118,-4.9969 2.4582,-7.2966 1.447,-2.3091 3.3735,-3.9978 5.7816,-5.085 2.4085,-1.0872 5.0308,-1.5276 7.8854,-1.3099 4.4081,0.3363 7.9024,2.0432 10.5007,5.1218 2.5984,3.0881 3.7266,6.8078 3.3925,11.1881 -0.3366,4.4175 -2.0382,7.9687 -5.0954,10.6538 -3.0666,2.6842 -6.7524,3.8626 -11.0673,3.5334 -2.6674,-0.2034 -5.1667,-1.0061 -7.4986,-2.3983 -2.3225,-1.3913 -4.0316,-3.3008 -5.1166,-5.737 -1.0859,-2.4269 -1.496,-5.32 -1.2405,-8.6703 z m 7.887,1.0153 c -0.2208,2.8924 0.2934,5.1626 1.5427,6.8015 1.2582,1.6493 2.8841,2.5452 4.8964,2.6988 2.003,0.1527 3.7462,-0.4864 5.221,-1.9273 1.4742,-1.4313 2.328,-3.6162 2.5513,-6.5457 0.2177,-2.8546 -0.2976,-5.1062 -1.5379,-6.7445 -1.2394,-1.6479 -2.8653,-2.5435 -4.8683,-2.6963 -2.0123,-0.1536 -3.7555,0.4855 -5.249,1.9248 -1.4836,1.4305 -2.3358,3.597 -2.5562,6.4887 z m 60.6864,12.0918 -7.6525,0.9862 -3.7315,-28.9527 c -2.4544,2.9854 -5.499,5.3558 -9.1356,7.1023 l -0.8997,-6.982 c 1.9176,-0.9097 3.9272,-2.4277 6.0274,-4.5628 2.1109,-2.1269 3.4373,-4.4651 3.9991,-7.0079 l 6.2096,-0.8001 z m 9.1746,-10.7956 6.9757,-2.8508 c 0.5918,1.4223 1.3639,2.3829 2.2958,2.878 0.9351,0.5043 2.0102,0.5781 3.2106,0.2351 1.5251,-0.4354 2.6124,-1.5172 3.2727,-3.2383 0.6606,-1.7211 0.4974,-4.8568 -0.4757,-9.3915 -1.2496,2.6996 -3.2688,4.448 -6.0758,5.2495 -3.0418,0.8685 -6.0126,0.4476 -8.8964,-1.2766 -2.884,-1.7244 -4.8587,-4.4695 -5.9363,-8.2423 -1.1235,-3.9353 -0.864,-7.4356 0.7881,-10.5041 1.6493,-3.0773 4.2851,-5.1284 7.8955,-6.1592 3.9262,-1.1211 7.593,-0.5186 10.9797,1.8042 3.3892,2.3314 6.0836,6.9801 8.0783,13.9656 2.0259,7.0943 2.1811,12.5946 0.4605,16.4833 -1.7181,3.897 -4.6814,6.442 -8.8873,7.6429 -3.0236,0.8635 -5.6927,0.7473 -8.0249,-0.3441 -2.3206,-1.0847 -4.214,-3.1697 -5.6605,-6.2517 z m 12.0896,-21.0426 c -0.6832,-2.3919 -1.7649,-4.0937 -3.2422,-5.0973 -1.4682,-1.0058 -2.9292,-1.3011 -4.3732,-0.8888 -1.3721,0.3917 -2.3545,1.2579 -2.9479,2.5989 -0.6022,1.3432 -0.5486,3.2411 0.1525,5.6963 0.714,2.5001 1.7338,4.1904 3.0525,5.0828 1.3162,0.8835 2.7115,1.1197 4.1915,0.6972 1.4261,-0.4074 2.4668,-1.3097 3.1194,-2.7165 0.6526,-1.4065 0.6683,-3.1975 0.0474,-5.3726 z m 16.153,11.4832 6.634,-3.5951 c 0.921,1.695 2.052,2.8233 3.393,3.384 1.3413,0.5606 2.6972,0.5708 4.0682,0.03 1.4756,-0.5819 2.4919,-1.6386 3.0605,-3.1643 0.5596,-1.5227 0.4671,-3.2416 -0.2906,-5.1629 -0.7129,-1.8072 -1.7614,-3.0588 -3.1472,-3.7329 -1.3859,-0.6744 -2.7748,-0.7421 -4.172,-0.191 -0.9169,0.3617 -1.9358,0.9755 -3.0696,1.8362 l -1.5059,-6.1463 c 1.9593,-0.7124 3.2661,-1.7223 3.9331,-3.0245 0.6705,-1.2934 0.7052,-2.6895 0.1161,-4.1827 -0.4993,-1.2661 -1.2711,-2.1222 -2.3217,-2.5857 -1.0468,-0.4547 -2.1904,-0.4376 -3.439,0.0548 -1.2314,0.4858 -2.1103,1.3267 -2.6374,2.5235 -0.5357,1.2001 -0.567,2.6553 -0.112,4.3726 l -7.0456,1.4773 c -0.4393,-2.4704 -0.4693,-4.5675 -0.0754,-6.3068 0.3881,-1.7272 1.2658,-3.3143 2.6148,-4.7547 1.3523,-1.4313 3.0661,-2.5612 5.1268,-3.374 3.5276,-1.3914 6.8012,-1.3806 9.8237,0.0407 2.4852,1.1588 4.1937,2.9067 5.1133,5.238 1.3017,3.3006 0.5464,6.6558 -2.2851,10.0428 2.3305,-0.3845 4.4486,-0.0289 6.3745,1.068 1.9171,1.1004 3.3278,2.7844 4.2231,5.0546 1.2984,3.2918 1.2023,6.5788 -0.2829,9.8485 -1.4853,3.2697 -4.0134,5.6087 -7.5933,7.0208 -3.3883,1.3363 -6.5854,1.4673 -9.587,0.3806 -3.0071,-1.0743 -5.3084,-3.1229 -6.9164,-6.1515 z m 50.312,-11.8184 -6.6963,3.8334 -14.5026,-25.3351 c -1.1288,3.6963 -3.0379,7.0497 -5.7321,10.0521 l -3.4973,-6.1097 c 1.425,-1.5728 2.703,-3.7428 3.8287,-6.5182 1.139,-2.7717 1.4724,-5.4392 1.0209,-8.0037 l 5.4335,-3.1106 z" />
      <path
         id="path19"
         style="fill:#000000;fill-rule:evenodd"
         d="m 88.2554,362.888 4.5334,-6.8908 c 3.9228,2.4059 6.5204,5.2663 7.8039,8.5743 1.2749,3.3052 1.3118,7.0318 0.0996,11.1855 -1.5015,5.1453 -4.4918,8.8587 -8.9731,11.149 -4.4794,2.2816 -9.7659,2.5381 -15.866,0.7581 -6.4427,-1.8803 -10.9665,-5.009 -13.5643,-9.375 -2.598,-4.3663 -3.1042,-9.266 -1.5213,-14.6907 1.3829,-4.7395 3.9111,-8.1771 7.576,-10.3147 2.1734,-1.2823 4.9361,-1.9039 8.3024,-1.8796 l -0.4176,8.2676 c -2.1346,-0.1241 -3.9994,0.3683 -5.5851,1.4795 -1.5882,1.1205 -2.6804,2.7184 -3.2851,4.791 -0.8387,2.8742 -0.4924,5.508 1.0504,7.8942 1.5312,2.3924 4.6049,4.2575 9.2183,5.6038 4.8841,1.4249 8.6288,1.5595 11.214,0.4071 2.597,-1.1588 4.301,-3.1448 5.124,-5.9653 0.6072,-2.0817 0.4726,-4.0665 -0.4156,-5.9489 -0.8879,-1.8825 -2.6449,-3.5684 -5.2939,-5.0451 z m 19.7588,-9.6056 -36.6208,-16.8805 3.2297,-7.0073 36.6212,16.8805 z m 16.1715,-30.9794 -3.8125,-2.1439 c 0.8332,1.6964 1.2276,3.5229 1.1863,5.4918 -0.0495,1.9647 -0.5458,3.7855 -1.4891,5.4626 -0.9661,1.7181 -2.2078,3.0445 -3.7241,3.9793 -1.521,0.943 -3.137,1.3264 -4.8356,1.1681 -1.7112,-0.1549 -3.7632,-0.9105 -6.1686,-2.2633 l -16.158,-9.0877 3.7822,-6.7249 11.732,6.5986 c 3.5917,2.0198 5.8534,3.1301 6.8058,3.3322 0.948,0.21 1.8475,0.1235 2.6864,-0.2769 0.8429,-0.3876 1.5494,-1.0887 2.12,-2.1032 0.6488,-1.1536 0.9094,-2.3639 0.7949,-3.6344 -0.1147,-1.2706 -0.5505,-2.3341 -1.3024,-3.1987 -0.7526,-0.8646 -2.9469,-2.3248 -6.6036,-4.3814 l -10.7666,-6.0555 3.7822,-6.7252 25.4768,14.3287 z m 8.0067,-12.4594 -30.5918,-26.2715 5.0269,-5.8534 11.0372,9.4785 c -0.5045,-3.5761 0.2976,-6.5989 2.4258,-9.0772 2.3176,-2.6986 5.2072,-4.0897 8.6822,-4.1742 3.475,-0.0842 7.0459,1.4484 10.7133,4.5978 3.7885,3.2534 5.9377,6.6577 6.4414,10.2206 0.4962,3.5567 -0.3617,6.6307 -2.5692,9.2015 -1.0886,1.2676 -2.4866,2.2323 -4.1926,2.9078 -1.7129,0.6694 -3.5639,0.9229 -5.5678,0.7489 l 3.2546,2.7949 z m -6.5611,-15.6568 c 2.3,1.9755 4.3209,3.0801 6.0412,3.2953 2.4414,0.3273 4.3803,-0.346 5.8298,-2.0335 1.1131,-1.2962 1.5053,-2.8769 1.1833,-4.7497 -0.3281,-1.8654 -1.6887,-3.8254 -4.074,-5.8741 -2.5422,-2.183 -4.7695,-3.292 -6.6839,-3.3399 -1.9141,-0.0473 -3.4855,0.6444 -4.7208,2.0828 -1.2108,1.4101 -1.6655,3.049 -1.3699,4.9234 0.2956,1.8747 1.5582,3.7756 3.7943,5.6957 z m 53.3271,-48.4554 7.8344,-2.5794 c 1.5772,4.3233 1.8338,8.1785 0.7826,11.5676 -1.0559,3.3815 -3.3438,6.3233 -6.8755,8.8237 -4.3743,3.0968 -9.0251,4.1466 -13.9593,3.1547 -4.9269,-0.9973 -9.2272,-4.0828 -12.899,-9.2694 -3.8777,-5.4777 -5.4761,-10.7407 -4.7968,-15.7756 0.6794,-5.0349 3.3286,-9.1876 7.9407,-12.4528 4.0297,-2.8527 8.1469,-3.9735 12.3463,-3.3699 2.4996,0.3468 5.05,1.5774 7.6718,3.6889 l -5.4667,6.2165 c -1.5948,-1.4244 -3.3614,-2.1979 -5.2945,-2.3129 -1.9405,-0.1096 -3.7893,0.4629 -5.5515,1.7104 -2.4436,1.7302 -3.8097,4.0084 -4.0847,6.8366 -0.2879,2.8257 0.9604,6.1973 3.7374,10.1198 2.9396,4.1524 5.7893,6.5857 8.5305,7.29 2.7544,0.7069 5.3239,0.2103 7.7218,-1.4872 1.7699,-1.2529 2.8984,-2.8915 3.373,-4.9181 0.4745,-2.0264 0.1464,-4.4392 -1.0105,-7.2429 z m 12.7127,-7.9558 c -1.1957,-2.2769 -1.7955,-4.7715 -1.7908,-7.4882 3e-4,-2.7253 0.7366,-5.1788 2.2001,-7.3789 1.4635,-2.2001 3.4522,-3.9652 5.9867,-5.2964 3.914,-2.0555 7.7813,-2.464 11.618,-1.2347 3.8411,1.2375 6.7722,3.7907 8.8148,7.68 2.0597,3.9223 2.5032,7.835 1.338,11.7336 -1.1734,3.9028 -3.6715,6.8581 -7.5025,8.8699 -2.3685,1.2439 -4.9126,1.8907 -7.6279,1.9491 -2.7068,0.0539 -5.1687,-0.6571 -7.382,-2.1456 -2.2086,-1.4797 -4.0921,-3.7137 -5.6544,-6.6888 z m 7.2228,-3.3267 c 1.3485,2.5681 2.9895,4.219 4.9184,4.9446 1.9417,0.7297 3.7955,0.6259 5.5821,-0.3124 1.7784,-0.9342 2.9163,-2.4013 3.4013,-4.4054 0.4894,-1.9956 0.0528,-4.3002 -1.3133,-6.9013 -1.3311,-2.5348 -2.9633,-4.1692 -4.884,-4.8989 -1.9251,-0.7385 -3.7786,-0.6345 -5.557,0.2997 -1.7869,0.9383 -2.9248,2.4051 -3.4263,4.4178 -0.4977,1.9999 -0.0696,4.2884 1.2788,6.8559 z m 23.5878,-27.2084 6.8119,-1.9879 1.1175,3.8296 c 1.5821,-3.6589 4.0613,-5.9862 7.4405,-6.9721 1.793,-0.5233 3.4596,-0.6089 4.9909,-0.2535 1.54,0.3523 2.9473,1.1541 4.222,2.4054 0.798,-1.856 1.8054,-3.3627 3.0137,-4.5168 1.2078,-1.1544 2.6229,-1.9684 4.2449,-2.4415 2.0545,-0.5995 3.9146,-0.6925 5.5917,-0.2728 1.6683,0.4228 3.0891,1.338 4.2653,2.7547 0.8607,1.0396 1.6782,2.9033 2.4591,5.5796 l 5.2269,17.9132 -7.4066,2.1613 -4.6721,-16.0121 c -0.8126,-2.7841 -1.5882,-4.5039 -2.3358,-5.1557 -0.9926,-0.8546 -2.2111,-1.0759 -3.6347,-0.6606 -1.036,0.3025 -1.9264,0.9045 -2.6614,1.8034 -0.7233,0.9053 -1.1194,2.0281 -1.1698,3.3628 -0.0479,1.3437 0.3166,3.3299 1.087,5.9701 l 3.9256,13.4531 -7.407,2.1613 -4.4802,-15.3545 c -0.7941,-2.7212 -1.4445,-4.4478 -1.9345,-5.1555 -0.4929,-0.7167 -1.0721,-1.1932 -1.7437,-1.4175 -0.6625,-0.2271 -1.4747,-0.1954 -2.4211,0.0807 -1.1442,0.3338 -2.0819,0.9399 -2.813,1.8183 -0.738,0.8901 -1.1291,1.9625 -1.1863,3.2405 -0.0573,1.2779 0.3071,3.2641 1.0908,5.9492 l 3.9729,13.6152 -7.4069,2.1613 z m 76.6826,14.9634 -0.3322,-4.3614 c -0.9488,1.6347 -2.2491,2.9763 -3.9102,4.0349 -1.6617,1.049 -3.4519,1.6466 -5.3704,1.7927 -1.9656,0.1498 -3.7577,-0.147 -5.377,-0.8896 -1.6287,-0.7421 -2.8445,-1.8733 -3.6553,-3.3743 -0.8208,-1.5097 -1.3311,-3.6357 -1.5406,-6.3874 l -1.4076,-18.4849 7.6932,-0.5858 1.022,13.4215 c 0.3129,4.1086 0.6443,6.6062 1.0049,7.5107 0.3515,0.9053 0.9227,1.6055 1.7212,2.0812 0.7902,0.4858 1.7657,0.6845 2.9261,0.5961 1.3199,-0.1004 2.471,-0.5551 3.4646,-1.3558 0.9931,-0.8005 1.6361,-1.7531 1.938,-2.8585 0.3017,-1.1057 0.2987,-3.7415 -0.0201,-7.925 l -0.9377,-12.3168 7.6935,-0.5858 2.2193,29.1451 z m 41.6078,2.1276 -7.6932,-0.5857 1.131,-14.8536 c 0.2395,-3.1447 0.2254,-5.1884 -0.0325,-6.1306 -0.2662,-0.9524 -0.7454,-1.7043 -1.455,-2.2758 -0.7096,-0.5719 -1.5887,-0.8931 -2.6371,-0.973 -1.3476,-0.1026 -2.5827,0.1704 -3.7054,0.8192 -1.1321,0.6482 -1.9361,1.5662 -2.4206,2.734 -0.4941,1.1767 -0.8607,3.3895 -1.1087,6.6465 l -1.0033,13.1781 -7.6932,-0.586 2.2191,-29.1451 7.1317,0.5431 -0.3256,4.2771 c 2.8039,-3.0718 6.1383,-4.456 10.0223,-4.1601 1.7036,0.1296 3.243,0.5576 4.6099,1.2736 1.3757,0.7261 2.3834,1.584 3.0322,2.5843 0.6573,1.0101 1.0809,2.1252 1.2697,3.3539 0.1982,1.2293 0.2073,2.9622 0.0363,5.2083 z m 15.1115,-30.2347 1.6132,-6.968 7.5171,1.7404 -1.6132,6.968 z m -7.4827,32.317 6.5934,-28.4762 7.517,1.7404 -6.5933,28.4762 z m 45.7022,-8.2875 -7.6561,-1.0077 c 0.215,-1.5171 0.003,-2.7756 -0.6325,-3.7844 -0.6383,-1 -1.6405,-1.7211 -3.0187,-2.1577 -1.8342,-0.5813 -3.5031,-0.4109 -4.9974,0.5139 -1.4941,0.9249 -2.7118,2.8725 -3.6559,5.8524 -1.0489,3.3107 -1.2342,5.8221 -0.5582,7.5426 0.6755,1.7206 1.9455,2.8715 3.8067,3.461 1.3958,0.4424 2.6689,0.4025 3.807,-0.1134 1.1475,-0.5128 2.2075,-1.6834 3.1924,-3.5179 l 6.8567,3.5311 c -1.8062,3.0908 -4.0437,5.1489 -6.712,6.1742 -2.6682,1.0253 -5.7918,0.971 -9.3802,-0.1657 -4.0624,-1.2871 -6.9022,-3.605 -8.5047,-6.9385 -1.6085,-3.3451 -1.6881,-7.2895 -0.2449,-11.844 1.4599,-4.6082 3.8111,-7.802 7.0494,-9.6018 3.2386,-1.7996 6.928,-2.0391 11.0708,-0.7264 3.3825,1.0718 5.8433,2.6589 7.3858,4.7525 1.5334,2.0908 2.262,4.7634 2.1918,8.0298 z m 13.5607,7.0739 -5.6066,-4.344 c 2.0245,-2.1598 4.2116,-3.3968 6.5524,-3.7156 2.3407,-0.3184 5.1939,0.4058 8.5514,2.169 3.0498,1.6017 5.1389,3.1549 6.2553,4.663 1.1079,1.5045 1.6835,2.9727 1.7052,4.4048 0.0215,1.4324 -0.7401,3.6297 -2.3025,6.6049 l -4.2892,7.9256 c -1.1912,2.2688 -1.965,4.004 -2.3162,5.198 -0.3512,1.1938 -0.5505,2.5626 -0.5981,4.1068 l -6.7811,-3.5612 c 0.0611,-0.5401 0.1858,-1.3231 0.3906,-2.3391 0.1057,-0.4641 0.1624,-0.7737 0.1781,-0.9243 -1.7657,0.5359 -3.4618,0.7369 -5.0924,0.6122 -1.6308,-0.125 -3.1965,-0.5758 -4.7004,-1.3658 -2.6509,-1.3919 -4.3655,-3.2149 -5.1354,-5.464 -0.7742,-2.2405 -0.5785,-4.4703 0.5825,-6.6808 0.7635,-1.4545 1.7976,-2.5758 3.0982,-3.3562 1.2959,-0.7718 2.7305,-1.142 4.3126,-1.0853 1.5733,0.0523 3.6641,0.4718 6.2727,1.2585 3.5053,1.0773 6.021,1.6776 7.5214,1.8084 l 0.3623,-0.6898 c 0.6983,-1.3297 0.8717,-2.4473 0.5246,-3.3611 -0.3598,-0.9097 -1.4412,-1.8384 -3.2444,-2.7852 -1.2218,-0.6416 -2.2958,-0.8982 -3.2347,-0.7658 -0.943,0.1198 -1.9408,0.6879 -3.0063,1.687 z m 6.2683,10.3524 c -1.0256,-0.1673 -2.5965,-0.5472 -4.7134,-1.1392 -2.1084,-0.588 -3.5648,-0.8437 -4.3473,-0.7669 -1.2251,0.1732 -2.0927,0.7352 -2.6033,1.7074 -0.5062,0.9642 -0.5811,1.9744 -0.2329,3.0478 0.3482,1.0732 1.0705,1.8982 2.1756,2.4787 1.2301,0.6457 2.624,0.8585 4.1695,0.6413 1.15,-0.1913 2.091,-0.6512 2.8199,-1.4134 0.48,-0.49 1.1563,-1.5557 2.0162,-3.1926 z m 39.5712,17.8318 -6.9599,-3.3451 c 0.6773,-1.3746 0.8686,-2.6363 0.5794,-3.7929 -0.2946,-1.1492 -1.022,-2.147 -2.1952,-2.9917 -1.5615,-1.1241 -3.2003,-1.4828 -4.9085,-1.0702 -1.7079,0.4126 -3.4725,1.8835 -5.2988,4.4202 -2.0292,2.8186 -2.9884,5.1469 -2.8827,6.9925 0.1051,1.8455 0.9529,3.3349 2.5372,4.4755 1.1886,0.8555 2.4104,1.2147 3.6526,1.0796 1.2502,-0.1294 2.6226,-0.9111 4.1304,-2.3468 l 5.4133,5.4934 c -2.6798,2.3732 -5.4477,3.6308 -8.3026,3.7729 -2.8549,0.142 -5.8058,-0.8836 -8.8606,-3.0828 -3.4585,-2.4902 -5.4339,-5.5777 -5.9167,-9.2448 -0.485,-3.6801 0.6697,-7.4524 3.461,-11.3299 2.8243,-3.9228 6.0544,-6.2242 9.6923,-6.9241 3.6386,-0.7 7.2185,0.2232 10.7455,2.7624 2.8797,2.0731 4.7225,4.3486 5.535,6.8187 0.8048,2.4649 0.6636,5.2314 -0.4217,8.3131 z m 13.9004,-4.4535 4.6597,-5.4263 5.8534,5.0269 -4.6597,5.426 z m -21.6112,25.166 19.0426,-22.1752 5.8537,5.0266 -19.0429,22.1752 z m 21.8118,-0.9355 c 1.9265,-1.7041 4.2064,-2.8811 6.8458,-3.5238 2.6468,-0.6493 5.2052,-0.5191 7.6904,0.3779 2.4856,0.8971 4.6738,2.4076 6.5705,4.5518 2.9292,3.3116 4.2477,6.9699 3.9683,10.9891 -0.2865,4.0255 -2.0674,7.4805 -5.358,10.3909 -3.3184,2.9356 -7.0125,4.2986 -11.0766,4.0963 -4.0701,-0.2097 -7.5355,-1.9314 -10.4025,-5.1725 -1.7723,-2.0038 -3.0068,-4.3206 -3.7106,-6.9437 -0.6975,-2.616 -0.594,-5.1763 0.3242,-7.6806 0.9111,-2.4976 2.6317,-4.8592 5.1485,-7.0854 z m 4.9523,6.2217 c -2.1728,1.9218 -3.385,3.9088 -3.63,5.955 -0.2458,2.0597 0.2968,3.8354 1.6339,5.3467 1.3311,1.5048 3.0269,2.2601 5.0888,2.2535 2.0548,-3e-4 4.1891,-0.9735 6.39,-2.9201 2.1442,-1.8968 3.3426,-3.8714 3.5936,-5.9107 0.2582,-2.0457 -0.2846,-3.821 -1.6154,-5.3258 -1.3372,-1.5114 -3.033,-2.2673 -5.1073,-2.2744 -2.061,-0.007 -4.1813,0.954 -6.3536,2.8758 z m 21.8997,53.4744 -4.2052,-6.4687 12.4891,-8.1193 c 2.6441,-1.7192 4.2598,-2.971 4.8518,-3.748 0.5951,-0.7895 0.9015,-1.627 0.9249,-2.5378 0.0237,-0.9111 -0.2549,-1.8049 -0.828,-2.6862 -0.7368,-1.1332 -1.7035,-1.9488 -2.9008,-2.447 -1.2023,-0.5059 -2.4197,-0.5876 -3.6418,-0.2631 -1.2354,0.3215 -3.2158,1.3738 -5.9545,3.1541 l -11.0805,7.2035 -4.2052,-6.4686 24.506,-15.9317 3.8984,5.9966 -3.5962,2.3379 c 4.1431,0.3631 7.2672,2.172 9.3904,5.4379 0.9312,1.4324 1.5257,2.9154 1.7869,4.4362 0.2582,1.5339 0.1883,2.8557 -0.2127,3.9784 -0.4035,1.1357 -1.0322,2.1492 -1.8937,3.0451 -0.8566,0.9039 -2.2282,1.9634 -4.1167,3.1912 z m 18.7963,18.6707 2.0005,7.5636 c -2.9804,0.2667 -5.5851,-0.2753 -7.8146,-1.6053 -2.2246,-1.3424 -4.003,-3.4739 -5.3225,-6.3902 -2.0933,-4.6266 -2.1313,-8.7408 -0.106,-12.3254 1.6355,-2.8521 4.2988,-5.1179 8.0018,-6.7934 4.4125,-1.9964 8.3984,-2.4093 11.9364,-1.2383 3.5466,1.1665 6.1147,3.5179 7.709,7.0411 1.7874,3.9512 1.8912,7.6646 0.3113,11.1405 -1.5838,3.4673 -5.0993,6.3764 -10.5506,8.7193 l -7.963,-17.5997 c -2.0635,0.9953 -3.4329,2.295 -4.1045,3.9072 -0.6755,1.6038 -0.6458,3.2182 0.0817,4.8259 0.4991,1.1032 1.2164,1.8912 2.1517,2.3644 0.9391,0.482 2.1607,0.6091 3.6688,0.3903 z m 7.318,-2.8166 c 2.0209,-0.9758 3.3413,-2.202 3.949,-3.6823 0.6163,-1.4839 0.597,-2.9386 -0.0528,-4.3751 -0.6926,-1.5307 -1.8299,-2.5411 -3.4027,-3.0349 -1.5733,-0.4935 -3.3244,-0.2885 -5.241,0.5992 z m -3.4156,15.1439 3.3127,7.1295 c -1.3405,0.7336 -2.2441,1.6915 -2.6991,2.8803 -0.4663,1.1822 -0.4388,2.6506 0.0688,4.3896 0.5601,1.9194 1.3322,3.2584 2.3187,4.0267 0.6851,0.5039 1.4467,0.6339 2.2755,0.3919 0.5587,-0.1629 0.9749,-0.48 1.2416,-0.9391 0.2436,-0.4721 0.335,-1.398 0.259,-2.7646 -0.4241,-6.3787 -0.3239,-10.5245 0.2987,-12.4465 0.8731,-2.6702 2.6583,-4.3936 5.3522,-5.18 2.442,-0.7126 4.769,-0.3451 6.9869,1.09 2.218,1.4354 3.9149,4.1673 5.0902,8.1947 1.1203,3.8387 1.3232,6.8794 0.6149,9.11 -0.7173,2.2334 -2.1975,4.0635 -4.4521,5.4841 l -3.3327,-6.5953 c 1.0123,-0.6185 1.6911,-1.4423 2.0321,-2.4511 0.3413,-1.0088 0.2797,-2.2915 -0.175,-3.8502 -0.5734,-1.9647 -1.2538,-3.2911 -2.0534,-3.987 -0.553,-0.4547 -1.1393,-0.5865 -1.752,-0.4079 -0.5315,0.1552 -0.911,0.5301 -1.1356,1.1335 -0.2987,0.8202 -0.3168,3.3385 -0.0609,7.5663 0.256,4.2276 -0.0357,7.3145 -0.8849,9.2638 -0.8607,1.9427 -2.4816,3.2568 -4.8427,3.9457 -2.5678,0.7492 -5.0974,0.324 -7.5732,-1.2904 -2.4726,-1.6055 -4.3292,-4.5154 -5.5598,-8.7325 -1.1151,-3.8205 -1.2235,-7.0742 -0.335,-9.7587 0.8915,-2.6752 2.556,-4.7448 5.0051,-6.2028 z" />
      <g
         id="Layer1002">
        <path
           id="path21"
           style="fill:#838383;fill-rule:evenodd;stroke:#838383;stroke-width:0.5669;stroke-linecap:butt;stroke-linejoin:miter;stroke-dasharray:none"
           d="m 84.5748,177.2274 4.9357,17.7874 16.0679,-9.0876 -9.0876,16.0679 17.7874,4.9357 -17.7874,4.9357 9.0876,16.0676 -16.0679,-9.0873 -4.9357,17.7872 -4.9357,-17.7872 -16.0676,9.0873 9.0873,-16.0676 -17.7871,-4.9357 17.7871,-4.9357 -9.0873,-16.0679 16.0676,9.0876 z" />
        <path
           id="path23"
           style="fill:#838383;fill-rule:evenodd;stroke:#838383;stroke-width:0.5669;stroke-linecap:butt;stroke-linejoin:miter;stroke-dasharray:none"
           d="m 161.9838,119.6212 4.9357,17.7871 16.0676,-9.0873 -9.0873,16.0676 17.7872,4.9357 -17.7872,4.936 9.0873,16.0676 -16.0676,-9.0873 -4.9357,17.7871 -4.9359,-17.7871 -16.0676,9.0873 9.0873,-16.0676 -17.7872,-4.936 17.7872,-4.9357 -9.0873,-16.0676 16.0676,9.0873 z" />
        <path
           id="path25"
           style="fill:#838383;fill-rule:evenodd;stroke:#838383;stroke-width:0.5669;stroke-linecap:butt;stroke-linejoin:miter;stroke-dasharray:none"
           d="m 248.3935,85.4169 4.9357,17.7872 16.0676,-9.0873 -9.0873,16.0676 17.7871,4.9359 -17.7871,4.9357 9.0873,16.0677 -16.0676,-9.0874 -4.9357,17.7872 -4.936,-17.7872 -16.0676,9.0874 9.0873,-16.0677 -17.7871,-4.9357 17.7871,-4.9359 -9.0873,-16.0676 16.0676,9.0873 z" />
      </g>
      <g
         id="Layer1003">
        <path
           id="path28"
           style="fill:#838383;fill-rule:evenodd;stroke:#838383;stroke-width:0.5669;stroke-linecap:butt;stroke-linejoin:miter;stroke-dasharray:none"
           d="m 527.4249,177.2274 -4.9359,17.7874 -16.0676,-9.0876 9.0873,16.0679 -17.7872,4.9357 17.7872,4.9357 -9.0873,16.0676 16.0676,-9.0873 4.9359,17.7872 4.9357,-17.7872 16.0677,9.0873 -9.0874,-16.0676 17.7872,-4.9357 -17.7872,-4.9357 9.0874,-16.0679 -16.0677,9.0876 z" />
        <path
           id="path30"
           style="fill:#838383;fill-rule:evenodd;stroke:#838383;stroke-width:0.5669;stroke-linecap:butt;stroke-linejoin:miter;stroke-dasharray:none"
           d="m 450.0159,119.6212 -4.9357,17.7871 -16.0676,-9.0873 9.0873,16.0676 -17.7871,4.9357 17.7871,4.936 -9.0873,16.0676 16.0676,-9.0873 4.9357,17.7871 4.9357,-17.7871 16.0679,9.0873 -9.0876,-16.0676 17.7874,-4.936 -17.7874,-4.9357 9.0876,-16.0676 -16.0679,9.0873 z" />
        <path
           id="path32"
           style="fill:#838383;fill-rule:evenodd;stroke:#838383;stroke-width:0.5669;stroke-linecap:butt;stroke-linejoin:miter;stroke-dasharray:none"
           d="m 363.6062,85.4169 -4.9356,17.7872 -16.0677,-9.0873 9.0873,16.0676 -17.7871,4.9359 17.7871,4.9357 -9.0873,16.0677 16.0677,-9.0874 4.9356,17.7872 4.9357,-17.7872 16.0679,9.0874 -9.0876,-16.0677 17.7874,-4.9357 -17.7874,-4.9359 9.0876,-16.0676 -16.0679,9.0873 z" />
      </g>
    </g>
  </g>
</svg>
