<svg height="1000" viewBox="0 0 1000 1000" width="1000" xmlns="http://www.w3.org/2000/svg"><g transform="matrix(4.523788 0 0 4.523788 -1412.2736 -882.13866)"><path d="m 486.827 241.507 c -2.407 -23.832 -8.146 -38.987 -8.39 -39.599 l -2.652 -6.908 l -4.229 6.051 c -.49 .694 -12.021 16.631 -33.561 16.631 c -22.628 0 -34.281 -16.474 -34.771 -17.175 l -3.25 -4.691 c 0 -.014 -3.209 4.705 -3.209 4.705 c -.477 .687 -12.143 17.161 -34.772 17.161 c -21.555 0 -33.085 -15.964 -33.56 -16.631 l -4.229 -5.989 c -.015 -.007 -2.638 6.846 -2.638 6.846 c -.245 .612 -5.997 15.767 -8.391 39.599 c -2.189 21.948 -1.809 55.692 12.553 91.796 c 11.489 28.855 30.69 46.697 44.793 56.59 c 15.283 10.723 27.808 14.618 28.338 14.768 l 1.129 .34 l 1.142 -.34 c .544 -.15 13.056 -4.045 28.353 -14.768 c 14.102 -9.893 33.303 -27.734 44.78 -56.59 c 14.359 -36.104 14.754 -69.848 12.564 -91.796" fill="#fff"/><path d="m 435.507 353.911 c .707 .707 1.088 1.829 1.088 3.25 c 0 1.618 -.448 2.991 -1.306 3.835 c -.57 .564 -1.291 .863 -2.08 .863 c -.87 0 -1.524 -.238 -2.013 -.728 c -.64 -.639 -.952 -1.673 -.952 -3.087 c 0 -1.707 .504 -3.23 1.374 -4.1 c .558 -.559 1.196 -.838 1.958 -.838 c .435 .001 1.237 .104 1.931 .805 m 35.111 -22.063 c -21.526 54.135 -70.63 69.053 -70.63 69.053 c 0 0 -32.051 -9.756 -55.727 -42.08 h 59.819 l 9.288 -25.823 l .625 -1.728 h -12.768 l 9.397 -25.959 h 31.399 l 1.916 -5.325 l .612 -1.733 l 5.208 -14.421 c 12.226 -6.174 17.324 -15.176 19.446 -21.656 c 2.38 -7.282 1.903 -10.294 1.346 -13.306 c -.571 -3.012 -1.55 -6.697 -1.55 -6.697 c 0 0 .584 -2.128 .829 -5.514 c .381 -5.358 -.136 -11.28 -.136 -11.28 c 0 0 -4.46 7.493 -7.67 10.688 c -1.127 1.142 -3.127 2.563 -4.882 3.23 c .585 -4.542 1.374 -7.826 -.23 -12.912 c -.571 -1.781 -1.401 -3.637 -2.258 -5.296 c -.408 -.782 -.815 -1.524 -1.196 -2.196 c 13.992 -5.093 21.309 -15.584 21.309 -15.584 c 0 0 23.09 60.057 -4.147 128.539 m -54.802 49.579 l .121 -.639 l 2.885 -15.517 l -6.772 .361 l -.108 1.51 h 2.679 l -.136 .646 l -2.435 13.149 l -.095 .457 h -3.033 l -.285 1.406 h 9.682 l .231 -1.374 h -2.734 m 23.893 -25.863 c -.693 -1.787 -2.04 -2.998 -3.631 -3.338 c -1.537 -.326 -6.663 -.985 -9.002 4.352 c -1.007 2.264 -.477 4.522 1.305 5.744 c 1.401 .96 3.984 1.436 6.65 -.353 l 1.332 -.905 l -.489 1.531 c -.979 2.979 -2.353 4.908 -4.079 5.725 c -.871 .414 -2.285 .762 -4.066 .02 l -.422 -.155 l .082 -.442 l .136 -.728 l -1.673 -.014 l -.489 2.583 c 2.788 .939 9.601 .802 12.089 -2.781 c 2.693 -3.822 3.522 -8.03 2.257 -11.239 m 16.59 -21.859 c -.707 -1.788 -2.027 -2.999 -3.631 -3.353 c -1.522 -.319 -6.677 -.973 -9.002 4.365 c -1.006 2.264 -.477 4.514 1.319 5.745 c 1.4 .959 3.971 1.429 6.636 -.36 l 1.333 -.897 l -.504 1.524 c -.965 2.978 -2.353 4.894 -4.079 5.73 c -.857 .415 -2.272 .755 -4.066 .027 l -.408 -.17 l .082 -.435 l .123 -.734 l -1.659 -.006 l -.503 2.584 c 2.814 .938 9.613 .795 12.115 -2.774 c 2.666 -3.835 3.508 -8.037 2.244 -11.246 m 10.987 -24.143 c -.693 -1.783 -2.013 -2.992 -3.631 -3.34 c -1.522 -.326 -6.663 -.986 -9.002 4.359 c -1.007 2.264 -.476 4.521 1.333 5.745 c 1.373 .966 3.957 1.442 6.622 -.36 l 1.333 -.898 l -.49 1.517 c -.979 2.985 -2.352 4.909 -4.079 5.746 c -.87 .407 -2.271 .748 -4.079 .021 l -.395 -.164 l .068 -.449 l .137 -.727 l -1.688 -.007 l -.477 2.583 c 2.789 .94 9.588 .796 12.104 -2.787 c 2.68 -3.821 3.522 -8.025 2.244 -11.239 m -17.12 21.688 c -.734 0 -1.414 .278 -1.944 .823 c -.87 .857 -1.401 2.4 -1.401 4.113 c 0 1.414 .326 2.447 .951 3.08 c .504 .496 1.157 .734 2.014 .734 c .816 0 1.523 -.299 2.094 -.871 c .844 -.836 1.307 -2.202 1.307 -3.834 c 0 -1.421 -.382 -2.543 -1.089 -3.25 c -.695 -.7 -1.496 -.795 -1.932 -.795 m 10.987 -24.138 c -.748 0 -1.414 .279 -1.958 .824 c -.87 .856 -1.387 2.399 -1.387 4.112 c 0 1.421 .34 2.455 .951 3.087 c .504 .49 1.156 .729 2.026 .729 c .789 0 1.51 -.301 2.081 -.879 c .843 -.836 1.318 -2.201 1.318 -3.826 c 0 -1.415 -.393 -2.543 -1.101 -3.243 c -.692 -.701 -1.508 -.804 -1.93 -.804 m -98.057 24.159 l 9.505 -25.959 h -30.882 l 1.944 -5.325 l .612 -1.733 l 4.515 -12.395 l 4.854 -13.367 l 4.854 -13.374 h 34.662 c 1.388 -3.461 3.373 -6.392 5.97 -8.799 c .544 -.509 1.129 -.985 1.728 -1.448 c 2.204 -1.679 4.772 -3.053 7.71 -4.093 c 9.07 -3.1 9.777 -4.583 11.097 -8.907 c 1.061 -3.488 3.698 -10.906 4.705 -13.666 c .244 -.673 .395 -1.075 .395 -1.075 c 0 0 .095 .483 .285 1.258 c .517 2.285 1.618 7.127 2.257 9.73 c .858 3.488 1.51 5.432 1.836 7.363 c 2.258 -1.285 4.963 -2.461 7.955 -3.066 c 9.628 -1.938 11.817 -10.076 12.646 -12.007 c .286 -.646 .504 -1.314 .693 -1.965 c .286 -.945 .477 -1.884 .612 -2.747 c -3.889 1.183 -8.254 1.91 -13.055 1.91 c -25.116 0 -38.007 -18.867 -38.007 -18.867 c 0 0 -12.878 18.867 -37.994 18.867 c -23.987 0 -36.757 -18.296 -36.757 -18.296 c 0 0 -23.104 60.057 4.134 128.539 c 3.74 9.362 8.282 17.549 13.259 24.688 l 1.033 -2.877 l 8.104 -22.39 h 11.33 m 10.321 -88.58 h .68 l .041 -.244 l 1.224 -6.541 l .055 -.326 h -.626 l .122 -.687 h 5.712 c .489 0 1.251 .211 1.809 .796 c .462 .496 .666 1.155 .611 1.958 c -.122 2.155 -.558 3.304 -1.646 4.378 c -1.114 1.075 -2.188 1.306 -3.494 1.306 h -4.583 l .095 -.64 m -12.157 -7.798 h 8.391 l -.272 1.38 h -.652 l .054 -.374 l .055 -.319 h -2.624 l -.041 .217 l -1.21 6.541 l -.068 .353 h .68 l -.135 .64 h -3.21 l .095 -.64 h .721 l .041 -.244 l 1.183 -6.541 l .068 -.326 h -2.475 l -.041 .211 l -.122 .482 h -.653 l .215 -1.38 m -12.171 7.03 h .53 l -.081 .381 l -.055 .272 l .272 .068 c .081 .014 .815 .218 1.196 .218 l .122 .006 c .395 0 1.238 .014 1.565 -.652 c .014 -.034 .041 -.089 .054 -.13 c .341 -.652 .504 -1.223 -.87 -2.304 l -.422 -.306 c -1.129 -.877 -1.645 -1.279 -1.4 -2.584 c .3 -1.659 1.999 -2.244 3.509 -2.244 c 1.02 0 1.646 .102 1.972 .17 l -.259 1.455 h -.584 l .026 -.326 l .014 -.204 l -.19 -.089 c -.04 -.02 -.829 -.353 -1.795 -.135 c -.448 .115 -1.074 .38 -1.033 1.325 c .014 .551 .436 .844 1.074 1.285 c .259 .184 .544 .381 .87 .646 c 1.143 .891 1.347 1.414 1.319 2.026 c -.026 .878 -.367 1.483 -1.061 1.979 c -1.102 .796 -2.013 .768 -2.733 .748 c -.107 0 -.218 -.007 -.313 -.007 c -.939 0 -1.672 -.095 -2.026 -.163 l .299 -1.435 m -12.537 .768 h .679 l .041 -.244 l 1.211 -6.541 l .082 -.326 h -.694 l .149 -.687 h 6.364 l -.271 1.38 h -.599 l .055 -.367 l .055 -.326 h -3.236 l -.041 .224 l -.436 2.448 l -.068 .347 h 2.91 l -.108 .686 h -2.925 l -.054 .232 l -.518 2.821 l -.081 .353 h 3.264 l .04 -.251 l .041 -.34 h .599 l -.231 1.231 h -6.337 l .109 -.64 m 40.836 0 h -1.428 l .067 -.353 l 1.211 -6.541 l .04 -.244 l .259 .027 h 1.033 c 1.088 0 1.768 .285 2.176 .938 c .599 .945 .503 2.257 -.258 3.91 c -.707 1.516 -1.727 2.263 -3.1 2.263" fill="#cf9c51"/><path d="m 347.362 358.82 h 51.769 v 39.17 c -6.5 -2.381 -31.903 -13 -51.769 -39.17 m 15.734 -27.55 l 9.505 -25.959 h -30.882 l 1.944 -5.325 h -21.24 c 2.054 9.995 5.031 20.385 9.233 30.964 c 3.399 8.52 7.506 16.053 12.007 22.709 l 8.104 -22.39 h 11.329 m 45.472 -86.492 c -2.938 1.04 -5.506 2.414 -7.71 4.093 v -41.224 c 3.902 4.271 11.763 11.247 23.512 14.558 c -1.007 2.76 -3.645 10.178 -4.705 13.666 c -1.319 4.324 -2.026 5.807 -11.097 8.907 m 65.273 -36.518 c -3.468 3.685 -9.886 9.376 -19.188 12.83 c .857 1.659 1.686 3.515 2.258 5.296 c 1.604 5.086 .815 8.37 .23 12.912 c 1.755 -.667 3.755 -2.088 4.882 -3.23 c 3.21 -3.195 7.67 -10.688 7.67 -10.688 c 0 0 .517 5.922 .136 11.28 c -.245 3.386 -.829 5.514 -.829 5.514 c 0 0 .978 3.685 1.55 6.697 c .558 3.012 1.034 6.024 -1.346 13.306 c -2.122 6.48 -7.221 15.482 -19.446 21.656 l -5.208 14.421 h 33.357 c 8.321 -42.89 -.517 -78.341 -4.066 -89.994 m -44.698 31.221 c 2.258 -1.285 4.963 -2.461 7.955 -3.066 c 9.628 -1.938 11.817 -10.076 12.646 -12.007 c .286 -.646 .504 -1.314 .693 -1.965 c -3.767 .999 -7.914 1.618 -12.442 1.618 c -4.745 0 -9.056 -.625 -12.945 -1.673 c .517 2.285 1.618 7.127 2.257 9.73 c .857 3.488 1.509 5.432 1.836 7.363" fill="#223f9a"/><path d="m 319.281 245.75 h 79.85 v 4.568 c -2.597 2.407 -4.582 5.338 -5.97 8.799 h -74.505 c .054 -4.679 .285 -9.152 .625 -13.367 m .83 40.108 h 28.679 l 4.854 -13.367 h -34.717 c .219 4.331 .613 8.798 1.184 13.367 m 41.883 -61.798 c -8.526 0 -15.692 -2.169 -21.445 -5.045 h -17.201 c -.871 3.821 -1.754 8.308 -2.516 13.374 h 78.299 v -13.374 h -15.148 c -5.888 2.889 -13.205 5.045 -21.989 5.045 m 104.518 82.447 c .76 .687 1.373 1.591 1.795 2.646 c 1.291 3.311 .611 7.498 -1.795 11.395 v 14.734 c .639 -1.414 1.237 -2.856 1.822 -4.331 c 4.201 -10.579 7.193 -20.97 9.246 -30.964 h -11.068 v 6.52 m -41.503 64.123 l -.462 -.149 l -.449 -.149 l .109 -.476 l .067 -.47 l .503 -2.584 l .068 -.462 l .082 -.441 h .924 c 0 0 .395 .007 .803 .007 v -3.686 c -1.319 -1.598 -1.564 -3.835 -.599 -6.086 c .19 -.414 .382 -.809 .599 -1.161 v -49.662 h -13.285 v 25.959 h .625 l -.625 1.728 v 31.466 l 5.398 -.299 l .693 -.027 l .707 -.033 l -.136 .672 l -.123 .688 l -2.76 14.87 h 2.72 l -.123 .651 l -.122 .641 l -.245 1.366 l -.081 .448 l -.069 .449 h -5.859 v 8.391 c 3.943 -2.129 8.499 -4.848 13.285 -8.295 v -12.974 c -.611 -.096 -1.182 -.219 -1.645 -.382 m 16.59 -21.858 l -.448 -.15 l -.463 -.156 l .096 -.469 l .082 -.471 l .488 -2.575 l .082 -.464 l .082 -.447 h .925 l 1.686 .006 l .653 .007 h .652 l -.108 .646 l -.136 .646 l -.041 .272 c 1.21 .381 2.162 .143 2.748 -.143 c 1.195 -.57 2.201 -1.808 3.004 -3.733 c -2.639 1.183 -5.1 .613 -6.541 -.367 c -2.256 -1.55 -2.924 -4.331 -1.713 -7.091 c 2.679 -6.119 8.525 -5.372 10.239 -4.991 c .122 .014 .232 .041 .354 .068 v -4.543 c -.232 -.067 -.448 -.114 -.64 -.176 l -.462 -.156 l -.462 -.156 l .096 -.463 l .082 -.469 l .502 -2.584 l .068 -.455 l .081 -.457 h .734 v -5.635 c -.245 -.912 -.259 -1.904 0 -2.918 v -11.362 h -9.302 l -1.916 5.325 h -2.082 v 48.355 c .313 .456 .571 .945 .789 1.489 c 1.102 2.795 .775 6.215 -.789 9.546 v 8.309 c 4.543 -4.324 9.043 -9.295 13.3 -14.986 v -10.748 c -3.426 2.433 -8.934 2.399 -11.64 1.496 m 9.723 -15.939 c .49 .483 .761 1.34 .761 2.462 c 0 2.162 -.911 3.603 -2.298 3.603 c -.557 0 -.952 -.129 -1.237 -.408 c -.408 -.414 -.626 -1.21 -.626 -2.305 c 0 -1.408 .408 -2.686 1.061 -3.338 c .354 -.341 .734 -.511 1.184 -.511 c .258 .001 .733 .069 1.155 .497" fill="#223f9a"/><path d="m 413.369 305.311 v 25.959 h -12.143 l 9.397 -25.959 h 2.746 m -4.732 78.578 h -1.347 l .136 -.639 l .123 -.667 l .299 -1.414 l .096 -.435 l .081 -.436 h 3.019 l 2.244 -12.068 h -2.516 l .055 -.571 l .027 -.578 l .082 -1.509 l .026 -.49 l .027 -.496 l .489 -.021 l .489 -.026 l 1.401 -.075 v -31.466 l -9.288 25.823 h -3.223 v 39.17 c 2.243 -.816 6.759 -2.617 12.511 -5.711 v -8.391 h -4.731 m 18.017 -28.916 v -49.662 h 13.285 v 48.355 c -.896 -1.318 -2.148 -2.209 -3.629 -2.521 c -1.619 -.34 -6.8 -1.008 -9.656 3.828 m 11.708 12.455 c -2.475 3.529 -8.104 4.154 -11.708 3.583 v 12.974 c 4.297 -3.053 8.811 -6.711 13.285 -10.975 v -8.309 c -.434 .91 -.951 1.843 -1.577 2.727 m -4.786 -13.225 c -.449 0 -.844 .17 -1.184 .51 c -.652 .666 -1.074 1.926 -1.074 3.332 c 0 1.102 .231 1.897 .64 2.305 c .285 .278 .68 .416 1.251 .416 c 1.373 0 2.284 -1.449 2.284 -3.604 c 0 -1.122 -.258 -1.978 -.763 -2.468 c -.406 -.422 -.896 -.491 -1.154 -.491 m -5.385 11.709 h .666 l -.136 .652 l -.123 .639 l -.04 .273 c 1.211 .373 2.162 .142 2.746 -.144 c 1.197 -.565 2.203 -1.81 3.02 -3.728 c -2.652 1.19 -5.113 .621 -6.555 -.359 c -.422 -.307 -.803 -.652 -1.115 -1.026 v 3.686 c .435 .007 .87 .007 .87 .007 h .667 M 462.31 308.69 c .488 .496 .761 1.352 .761 2.469 c 0 2.162 -.911 3.617 -2.285 3.617 c -.585 0 -.965 -.144 -1.251 -.422 c -.408 -.416 -.625 -1.211 -.625 -2.306 c 0 -1.401 .407 -2.685 1.074 -3.338 c .34 -.34 .721 -.503 1.169 -.503 c .259 0 .748 .061 1.157 .483 m 3.629 12.748 c -2.719 3.875 -9.232 4.25 -12.7 3.379 v 4.543 c 1.809 .517 3.291 1.924 4.079 3.93 c 1.401 3.563 .517 8.152 -2.365 12.273 c -.477 .679 -1.061 1.244 -1.714 1.713 v 10.748 c 4.909 -6.58 9.465 -14.127 13.272 -22.742 v -14.734 c -.177 .3 -.366 .584 -.572 .89 m -10.836 -1.53 h .666 l .666 .014 l -.259 1.292 l -.041 .265 c 1.21 .375 2.162 .144 2.761 -.143 c 1.183 -.57 2.189 -1.829 2.991 -3.727 c -2.624 1.184 -5.1 .605 -6.527 -.381 c -1.102 -.74 -1.809 -1.78 -2.121 -2.963 v 5.635 h .204 l 1.66 .008 m -1.469 -9.763 c 2.679 -6.112 8.526 -5.371 10.253 -4.998 c .979 .211 1.877 .688 2.625 1.36 v -6.521 H 453.24 v 11.362 c .094 -.401 .231 -.802 .394 -1.203 M 318.656 259.117 h 39.843 l -4.854 13.374 h -34.717 c -.258 -4.617 -.34 -9.091 -.272 -13.374 m 3.427 39.136 h 22.192 l 4.515 -12.395 h -28.679 c .517 4.045 1.156 8.186 1.972 12.395 m -2.802 -52.503 h 79.85 v -13.361 h -78.299 c -.612 4.093 -1.156 8.56 -1.551 13.361 m 53.388 -2.176 l .218 -1.231 l .04 -.245 h .694 l 1.088 -5.949 h -.626 l .055 -.354 l .244 -1.257 l .041 -.232 h 6.201 c .599 0 1.55 .252 2.229 .993 c .571 .605 .844 1.434 .775 2.38 c -.136 2.298 -.625 3.59 -1.822 4.759 c -1.074 1.047 -2.189 1.482 -3.902 1.482 h -5.29 l .055 -.346 m -12.266 -7.051 l .313 -1.972 l .041 -.245 h 9.601 l -.082 .347 l -.367 1.972 l -.068 .245 h -1.809 l .055 -.347 l .055 -.374 h -1.441 l -1.102 5.949 h .68 l -.299 1.585 l -.055 .237 h -4.379 l .027 -.346 l .218 -1.231 l .027 -.245 h .734 l 1.074 -5.949 h -1.292 l -.108 .483 l -.04 .238 h -1.837 l .054 -.347 m -12.253 7.003 l .395 -1.951 l .055 -.245 h 1.713 l -.054 .347 l -.082 .462 c .245 .061 .599 .122 .775 .122 l .122 .007 c .326 0 .871 .014 1.034 -.306 c .013 -.054 .04 -.102 .081 -.156 c .218 -.415 .354 -.707 -.734 -1.557 l -.395 -.313 c -1.183 -.897 -1.957 -1.489 -1.645 -3.155 c .313 -1.679 1.876 -2.726 4.093 -2.726 c 1.632 0 2.38 .251 2.407 .272 l .244 .081 l -.055 .238 l -.353 1.979 l -.054 .245 h -1.7 l .027 -.327 l .027 -.421 c -.245 -.068 -.693 -.157 -1.211 -.027 c -.476 .115 -.611 .278 -.598 .728 c .014 .245 .285 .434 .829 .823 c .259 .183 .544 .387 .898 .652 c 1.17 .925 1.578 1.612 1.537 2.523 c -.041 1.061 -.463 1.829 -1.279 2.427 c -1.291 .925 -2.393 .891 -3.113 .864 h -.299 c -1.455 0 -2.407 -.232 -2.448 -.238 l -.285 -.061 l .068 -.287 m -12.36 .041 l .231 -1.231 l .041 -.238 h .666 l 1.115 -5.949 h -.681 l .067 -.354 l .26 -1.257 l .054 -.232 h 7.547 l -.067 .347 l -.394 1.972 l -.055 .245 h -1.768 l .055 -.347 l .081 -.374 h -2.066 l -.327 1.863 h 2.896 l -.054 .34 l -.231 1.278 l -.027 .238 h -2.924 l -.421 2.23 h 2.04 l .04 -.34 l .055 -.244 h 1.795 l -.055 .353 l -.34 1.809 l -.054 .244 h -7.534 l .055 -.353 m 44.167 -3.393 c .681 -1.455 .775 -2.584 .286 -3.352 c -.299 -.476 -.789 -.673 -1.673 -.673 h -.789 l -1.114 5.949 h .721 c 1.128 0 1.958 -.619 2.569 -1.924 m -53.795 -31.915 c -.762 2.522 -1.781 6.159 -2.814 10.756 h 17.201 c -6.744 -3.379 -11.559 -7.751 -14.387 -10.756 m 72.969 -.613 v 11.369 h -15.148 c 7.206 -3.556 12.251 -8.207 15.148 -11.369" fill="#ed1a3b"/><path d="m 399.131 358.82 h 4.95 l 9.288 -25.823 l .625 -1.728 h -12.768 l 9.397 -25.959 h 31.399 l 1.916 -5.325 l .612 -1.733 l 5.208 -14.421 c 12.226 -6.174 17.324 -15.176 19.446 -21.656 c 2.38 -7.282 1.903 -10.294 1.346 -13.306 c -.571 -3.012 -1.55 -6.697 -1.55 -6.697 c 0 0 .584 -2.128 .829 -5.514 c .381 -5.358 -.136 -11.28 -.136 -11.28 c 0 0 -4.46 7.493 -7.67 10.688 c -1.127 1.142 -3.127 2.563 -4.882 3.23 c .585 -4.542 1.374 -7.826 -.23 -12.912 c -.571 -1.781 -1.401 -3.637 -2.258 -5.296 c -.408 -.782 -.815 -1.524 -1.196 -2.196 c -1.115 -1.945 -2.013 -3.278 -2.013 -3.278 c 0 0 0 1.788 -.395 4.08 c -.136 .863 -.326 1.802 -.612 2.747 c -.19 .652 -.407 1.319 -.693 1.965 c -.829 1.931 -3.018 10.069 -12.646 12.007 c -2.992 .605 -5.697 1.781 -7.955 3.066 c -.326 -1.931 -.978 -3.875 -1.836 -7.363 c -.639 -2.604 -1.74 -7.445 -2.257 -9.73 c -.19 -.775 -.285 -1.258 -.285 -1.258 c 0 0 -.15 .402 -.395 1.075 c -1.007 2.76 -3.645 10.178 -4.705 13.666 c -1.319 4.324 -2.026 5.807 -11.097 8.907 c -2.938 1.04 -5.506 2.414 -7.71 4.093 c -.599 .463 -1.184 .939 -1.728 1.448 c -2.597 2.407 -4.582 5.338 -5.97 8.799 h -34.662 l -4.854 13.374 l -4.854 13.367 l -4.515 12.395 l -.612 1.733 l -1.944 5.325 h 30.882 l -9.505 25.959 h -11.328 l -8.104 22.39 l -1.033 2.877 l -.829 2.284 h 57.329" fill="#fff"/><path d="m 446.291 280.718 l -7.303 20.275 h -22.736 l 6.812 -18.691 h -8.703 l -19.297 53.292 h 12.783 l -6.799 18.915 h -53.115 l 6.867 -18.915 h 11.327 L 385.6 282.302 h -8.771 l -6.759 18.691 h -22.192 l 13.652 -37.559 h 34.677 c 1.754 -6.153 5.356 -11.6 13.761 -14.571 c 9.288 -3.189 12.402 -5.453 13.912 -12.054 c 1.631 2.549 1.373 10.912 1.373 10.912 c 0 0 5.426 -5.616 12.701 -7.078 c 12.918 -2.597 14.713 -13.414 14.713 -13.414 c 1.007 5.085 .544 13.353 -1.318 17.582 c 5.045 -.286 10.416 -1.917 13.924 -5.888 c -.611 4.569 -3.643 12.796 -7.914 18.263 c 6.609 -1.238 9.098 -8.064 9.098 -8.064 c 0 0 3.087 20.887 -20.166 31.596 m -62.621 65.972 l -2.366 -2.004 l -.585 1.59 l -2.339 -1.979 l 1.319 -3.617 l -2.026 -1.721 l -1.319 3.624 l -2.176 -1.801 l .816 -2.169 l 1.277 1.088 l 1.144 -3.115 l -3.631 -3.052 l -3.958 10.771 l 2.353 1.977 l .707 -1.938 l 6.514 5.48 l -.463 1.319 l 2.366 1.984 l 2.367 -6.437 m 1.55 -4.249 l -2.366 -1.992 l -.978 2.691 l 2.353 1.985 l .991 -2.684 m 3.848 -10.437 l -4.161 -3.475 l -1.155 3.148 l 1.767 1.483 l -.775 2.135 l -6.527 -5.48 l .775 -2.142 l 1.292 1.088 l 1.102 -3.012 l -3.616 -3.059 l -2.068 5.568 c -1.02 2.794 .122 4.147 1.469 5.289 c .897 .762 6.459 5.46 6.459 5.46 c .98 .816 2.462 1.054 3.128 -.727 c .72 -2.012 2.31 -6.276 2.31 -6.276 m 1.537 -4.215 l -2.38 -1.999 l -.993 2.706 l 2.38 1.979 l .993 -2.686 m 17.515 -55.516 c -1.564 -1.36 -6.718 -5.684 -6.718 -5.684 c -1.659 -1.251 -2.72 -.925 -3.427 .965 l -1.265 3.475 c -.68 1.849 -.055 3.08 .381 3.678 l -1.32 -1.115 l -1.793 4.862 c 0 0 1.834 2.882 2.691 4.208 c .259 .401 .436 .571 .436 .571 c 0 0 -.367 -.197 -.911 -.415 c -1.265 -.468 -3.359 -1.21 -3.359 -1.21 l -2.95 8.017 l 3.807 6.643 l -4.759 -4.026 l -4.691 12.756 c -.544 1.475 -.408 2.794 .503 3.998 l -1.496 -1.266 l -4.596 12.49 l 3.604 3.148 l .925 -2.495 l -1.251 -1.156 l .883 -2.427 l 6.528 5.493 l -.449 1.196 l 2.366 2.006 l 2.19 -5.935 l -2.38 -1.999 l -.448 1.197 l -6.5 -5.494 l 1.414 -3.91 c .067 .056 .108 .095 .149 .136 c 1.536 1.293 6.636 5.569 6.636 5.569 c 1.033 .966 2.435 .904 3.073 -.823 l 1.414 -3.895 c .477 -1.271 .435 -3.066 -1.265 -4.556 c -1.713 -1.502 -6.649 -5.608 -6.649 -5.608 l 1.074 -2.876 l 6.513 5.486 l -.393 1.102 l 2.366 1.992 l 1.714 -4.664 l -4.324 -3.638 l .681 -1.883 l 4.323 3.651 l 2.08 -5.677 l -2.366 -1.986 l -.787 2.176 l -4 -3.352 l -.828 2.223 l -1.904 -3.807 l 1.197 -3.277 l 5.14 1.313 l 2.229 1.869 l -.42 1.143 l 2.379 1.992 l 2.107 -5.739 l -2.38 -1.999 l -.407 1.129 l -2.299 -1.91 l -3.413 -5.8 l .87 -2.366 l 6.514 5.507 c 1.184 .959 2.557 1.489 3.4 -.796 c .611 -1.686 1.373 -3.766 1.373 -3.766 c .365 -.96 .597 -2.891 -1.212 -4.441 m -21.255 33.948 l 6.527 5.487 l .762 -2.101 l -6.514 -5.486 l -.775 2.1 m 12.497 -34.091 l 6.541 5.487 l .748 -2.108 l -6.514 -5.459 l -.775 2.08" fill="#223f9a"/></g></svg>