<?xml version="1.0" encoding="UTF-8" standalone="no"?>
<svg
   xmlns:dc="http://purl.org/dc/elements/1.1/"
   xmlns:cc="http://creativecommons.org/ns#"
   xmlns:rdf="http://www.w3.org/1999/02/22-rdf-syntax-ns#"
   xmlns:svg="http://www.w3.org/2000/svg"
   xmlns="http://www.w3.org/2000/svg"
   xmlns:sodipodi="http://sodipodi.sourceforge.net/DTD/sodipodi-0.dtd"
   xmlns:inkscape="http://www.inkscape.org/namespaces/inkscape"
   width="1000"
   height="1000"
   viewBox="0 0 750 750.00003"
   version="1.1"
   id="svg26"
   sodipodi:docname="Club Atlético Rentistas.svg"
   inkscape:version="1.0.1 (3bc2e813f5, 2020-09-07)">
  <metadata
     id="metadata30">
    <rdf:RDF>
      <cc:Work
         rdf:about="">
        <dc:format>image/svg+xml</dc:format>
        <dc:type
           rdf:resource="http://purl.org/dc/dcmitype/StillImage" />
        <dc:title></dc:title>
      </cc:Work>
    </rdf:RDF>
  </metadata>
  <sodipodi:namedview
     pagecolor="#ffffff"
     bordercolor="#666666"
     borderopacity="1"
     objecttolerance="10"
     gridtolerance="10"
     guidetolerance="10"
     inkscape:pageopacity="0"
     inkscape:pageshadow="2"
     inkscape:window-width="1920"
     inkscape:window-height="1017"
     id="namedview28"
     showgrid="false"
     units="px"
     inkscape:zoom="0.827"
     inkscape:cx="500"
     inkscape:cy="500"
     inkscape:window-x="-8"
     inkscape:window-y="-8"
     inkscape:window-maximized="1"
     inkscape:current-layer="svg26" />
  <defs
     id="defs5">
    <clipPath
       id="clip1">
      <path
         d="M 0,0 H 484.30078 V 469.39844 H 0 Z m 0,0"
         id="path2" />
    </clipPath>
  </defs>
  <g
     id="surface1"
     transform="matrix(1.5179255,0,0,1.5179255,11.244071,18.75)">
    <g
       clip-path="url(#clip1)"
       clip-rule="nonzero"
       id="g9">
      <path
         style="fill:#e80f3a;fill-opacity:1;fill-rule:evenodd;stroke:none"
         d="m 242.16406,-0.0664063 c 133.73828,0 242.15625,105.0898463 242.15625,234.7304663 0,129.63672 -108.41797,234.72656 -242.15625,234.72656 C 108.42188,469.39062 0.00390625,364.30078 0.00390625,234.66406 0.00390625,105.02344 108.42188,-0.0664063 242.16406,-0.0664063 Z m 0,0"
         id="path7" />
    </g>
    <path
       style="fill:#ffffff;fill-opacity:1;fill-rule:evenodd;stroke:none"
       d="m 242.16406,6.453125 c 130.02344,0 235.42578,102.175785 235.42578,228.210935 0,126.03125 -105.40234,228.20313 -235.42578,228.20313 C 112.14063,462.86719 6.734375,360.69531 6.734375,234.66406 6.734375,108.62891 112.14063,6.453125 242.16406,6.453125 Z m 0,0"
       id="path11" />
    <path
       style="fill:#e80f3a;fill-opacity:1;fill-rule:evenodd;stroke:none"
       d="m 242.16406,66.355469 c 95.89453,0 173.62891,75.355471 173.62891,168.308591 0,92.94922 -77.73438,168.30469 -173.62891,168.30469 -95.89453,0 -173.63281,-75.35547 -173.63281,-168.30469 0,-92.95312 77.73828,-168.308591 173.63281,-168.308591 z m 0,0"
       id="path13" />
    <path
       style="fill:#ffffff;fill-opacity:1;fill-rule:evenodd;stroke:none"
       d="m 242.16406,116.11328 c 40.90625,0 77.11719,19.47266 99.32031,49.37109 l 29.41407,-15.71484 C 342.87109,109.91406 295.67187,83.746094 242.16406,83.746094 c -85.98828,0 -155.69531,67.566406 -155.69531,150.917966 0,83.34766 69.70703,150.91406 155.69531,150.91406 53.03906,0 99.875,-25.71484 127.98828,-64.98046 l -24.80859,-22.26954 c -21.71875,33 -59.8125,54.88282 -103.17969,54.88282 -67.54687,0 -122.30468,-53.07422 -122.30468,-118.54688 0,-65.47656 54.75781,-118.55078 122.30468,-118.55078 z m 0,0"
       id="path15" />
    <path
       style="fill:#e80f3a;fill-opacity:1;fill-rule:evenodd;stroke:none"
       d="m 87.839844,106.58594 7.109375,-4.66406 c 1.519531,1.93359 2.542969,3.86328 3.046875,5.78125 0.519531,1.92968 0.550781,3.8164 0.08984,5.68359 -0.457032,1.85937 -1.523438,3.83203 -3.210938,5.91406 -2.050781,2.52735 -4.109375,4.27344 -6.183594,5.25 -2.074218,0.96875 -4.554687,1.23828 -7.449218,0.82031 -2.890625,-0.41796 -5.867188,-1.86328 -8.910157,-4.33203 -4.058593,-3.29297 -6.351562,-6.84375 -6.882812,-10.65625 -0.515625,-3.8125 0.734375,-7.59375 3.765625,-11.328122 2.371094,-2.925782 4.859375,-4.726563 7.472656,-5.382813 2.605469,-0.652344 5.539063,-0.34375 8.789063,0.949219 l -3.644532,7.523436 c -0.921875,-0.38281 -1.652343,-0.58984 -2.195312,-0.625 -0.90625,-0.0664 -1.75,0.0703 -2.527344,0.39453 -0.785156,0.33203 -1.46875,0.85157 -2.050781,1.57422 -1.320313,1.62891 -1.640625,3.4375 -0.964844,5.42188 0.492188,1.48437 1.839844,3.12109 4.027344,4.89453 2.722656,2.20703 4.894531,3.32422 6.542969,3.35937 1.640625,0.0352 3.035156,-0.65625 4.183593,-2.07031 1.113282,-1.37109 1.546875,-2.73828 1.296875,-4.10547 -0.242187,-1.35937 -1.011718,-2.82812 -2.304687,-4.40234 z m 12.941406,-7.52344 6.5,-6.007812 5.96484,6.453125 -6.5,6.007817 z m 38.40625,-25.195312 -8.88672,5.523437 1.47656,5.21875 -8.00781,4.976563 -7.13672,-32.796875 8.58594,-5.335938 26.20312,20.949219 -8.21093,5.101562 z m -5.27344,-4.78125 -8.76953,-7.929688 3.21484,11.382813 z m 14.89063,-4.714844 7.92578,-3.933594 3.91015,7.871094 -7.92578,3.933594 z m 29.48047,-3.5 -8.39063,-30.484375 14.83594,-4.082031 c 2.75,-0.757813 4.92578,-1.089844 6.51172,-0.984375 1.59375,0.09375 3.02343,0.703125 4.28515,1.800781 1.26563,1.113281 2.16407,2.644531 2.69922,4.589844 0.46485,1.6875 0.52344,3.242187 0.17969,4.660156 -0.33984,1.417969 -1.00391,2.675781 -1.99219,3.773437 -0.625,0.683594 -1.5625,1.382813 -2.79297,2.066407 1.16016,0.07813 2.03516,0.238281 2.6211,0.484375 0.39062,0.160156 1.01562,0.566406 1.86328,1.210937 0.84375,0.644531 1.42969,1.164063 1.76172,1.554688 l 6.75,7.613281 -10.0586,2.769531 -7.3164,-7.984375 c -0.9336,-1.042969 -1.6875,-1.675781 -2.25391,-1.90625 -0.77344,-0.292969 -1.57031,-0.324219 -2.38281,-0.101562 l -0.78516,0.214843 3.39844,12.347657 z m 3.95312,-20.550781 3.76563,-1.039063 c 0.40234,-0.109375 1.15234,-0.46875 2.24218,-1.066406 0.5586,-0.285156 0.95313,-0.734375 1.17969,-1.355469 0.23438,-0.621094 0.25781,-1.261719 0.0742,-1.929687 -0.26953,-0.984375 -0.77344,-1.664063 -1.50781,-2.027344 -0.73828,-0.371094 -1.91797,-0.328125 -3.54688,0.121094 l -3.91797,1.078125 z m 20.51563,-18.207032 24.52734,-3.019531 0.82422,6.707031 -15.32813,1.886719 0.61719,4.996094 14.20703,-1.75 0.78906,6.394531 -14.20703,1.75 0.75782,6.1875 15.78515,-1.945312 0.875,7.101562 -24.98047,3.074219 z m 34.58203,-3.300781 8.61718,0.210938 10.77344,17.722656 0.42969,-17.449219 8.71875,0.214844 -0.77344,31.609375 -8.72265,-0.210938 -10.71485,-17.632812 -0.42578,17.359375 -8.67969,-0.214844 z m 36.92187,1.703125 27.41406,6.132813 -1.70703,7.628906 -9.20703,-2.058594 -5.19531,23.230469 -9.00391,-2.015625 5.19922,-23.230469 -9.20703,-2.058594 z m 34.96875,8.515625 8.80469,2.882813 -9.85547,30.050781 -8.80469,-2.886719 z m 6.03516,24.214844 8.26172,2.984375 c -0.4336,1.449219 -0.53516,2.660156 -0.3125,3.609375 0.35937,1.546875 1.34375,2.679687 2.96484,3.386719 1.20313,0.527343 2.26563,0.640625 3.17578,0.324218 0.92188,-0.3125 1.55078,-0.863281 1.89453,-1.652343 0.32813,-0.75 0.31641,-1.558594 -0.0391,-2.421875 -0.35937,-0.863282 -1.55859,-2.046875 -3.58594,-3.570313 -3.32422,-2.503906 -5.44922,-4.832031 -6.38672,-6.992187 -0.95312,-2.148438 -0.9375,-4.359375 0.0586,-6.625 0.64844,-1.480469 1.67187,-2.710938 3.0664,-3.667969 1.39454,-0.972656 3.07422,-1.472656 5.04297,-1.511719 1.96875,-0.03906 4.375,0.566406 7.22657,1.816406 3.49609,1.527344 5.85937,3.386719 7.08984,5.570313 1.23047,2.183594 1.35937,4.851562 0.39453,8.011719 l -8.17187,-2.984375 c 0.36718,-1.410157 0.33984,-2.5625 -0.0781,-3.449219 -0.41797,-0.898438 -1.22266,-1.605469 -2.41406,-2.128906 -0.98438,-0.429688 -1.82422,-0.535157 -2.51563,-0.3125 -0.6875,0.21875 -1.17187,0.648437 -1.44922,1.28125 -0.20312,0.457031 -0.17968,0.957031 0.0586,1.507812 0.22265,0.554688 1.01172,1.316406 2.35937,2.300781 3.32422,2.464844 5.59375,4.476563 6.8086,6.039063 1.22265,1.5625 1.92187,3.140625 2.08593,4.734375 0.16797,1.597656 -0.0976,3.1875 -0.78906,4.769531 -0.8125,1.855469 -2.04687,3.355469 -3.70312,4.5 -1.66016,1.136719 -3.53516,1.738281 -5.63672,1.785156 -2.09375,0.04297 -4.46094,-0.511718 -7.11328,-1.671875 -4.65235,-2.039062 -7.46094,-4.402343 -8.41797,-7.082031 -0.96094,-2.679687 -0.92188,-5.53125 0.125,-8.550781 z m 38.19922,-5.296875 23.85937,14.828125 -4.125,6.636719 -8.01172,-4.976563 -12.5664,20.214844 -7.83203,-4.867188 12.5625,-20.21875 -8.01172,-4.980468 z m 24.04297,50.402344 -7.6836,-7.105469 -4.64062,2.808594 -6.92578,-6.398438 29.72656,-15.585937 7.42187,6.859375 -13.23437,30.824222 -7.10547,-6.5625 z m 3.21093,-6.355469 5.31641,-10.5625 -10.12109,6.125 z m 10.23438,11.703126 5.97265,6.44531 c -1.04687,1.08985 -1.69531,2.11719 -1.93359,3.0586 -0.38672,1.54296 -0.0312,3 1.08203,4.375 0.82813,1.01953 1.71875,1.60546 2.67578,1.74609 0.96094,0.14062 1.77344,-0.0586 2.44141,-0.60156 0.63281,-0.51953 0.99609,-1.23828 1.07422,-2.17188 0.0781,-0.92969 -0.44531,-2.53125 -1.54688,-4.8164 -1.80468,-3.7461 -2.625,-6.79297 -2.47265,-9.13672 0.14062,-2.35157 1.17187,-4.308597 3.09375,-5.863285 1.25781,-1.023437 2.72656,-1.640625 4.40625,-1.855469 1.6875,-0.222656 3.41015,0.101563 5.17578,0.96875 1.76562,0.871094 3.6289,2.515625 5.58984,4.929684 2.40235,2.96485 3.65235,5.69922 3.74219,8.20313 0.0937,2.50391 -1.01563,4.93359 -3.32422,7.30078 l -5.89062,-6.40234 c 0.97265,-1.08203 1.47656,-2.1211 1.51562,-3.10157 0.0391,-0.98828 -0.35156,-1.98828 -1.17187,-3 -0.67579,-0.83203 -1.375,-1.30859 -2.08985,-1.42968 -0.71484,-0.1211 -1.33984,0.0391 -1.8789,0.47656 -0.39063,0.3125 -0.59766,0.76953 -0.63672,1.36328 -0.0586,0.59766 0.29297,1.63672 1.03906,3.12891 1.82422,3.71484 2.91797,6.54297 3.28125,8.48828 0.36719,1.94922 0.26562,3.67187 -0.32031,5.16797 -0.58203,1.49218 -1.54297,2.78125 -2.88672,3.87109 -1.57422,1.27734 -3.35938,2.04297 -5.35547,2.30078 -2,0.25 -3.94141,-0.0742 -5.82813,-1 -1.8789,-0.91797 -3.73046,-2.5 -5.55078,-4.74609 -3.19922,-3.94531 -4.60937,-7.33594 -4.23437,-10.15625 0.375,-2.82031 1.71875,-5.33594 4.03125,-7.54297 z m 0,0"
       id="path17" />
    <path
       style="fill:#e80f3a;fill-opacity:1;fill-rule:evenodd;stroke:none"
       d="m 205.97266,412.71094 -9.07422,40.55468 -11.19922,-2.5039 5.9375,-26.53516 c -2.11719,0.96875 -4.1211,1.67969 -6.00781,2.14453 -1.88672,0.46485 -4.19532,0.8086 -6.92188,1.00782 l 2.01953,-9.02735 c 4.04297,-0.38281 7.30469,-1.1914 9.76563,-2.4375 2.47265,-1.25 4.58203,-3 6.32422,-5.25 z m 2.54296,33.76562 11.37891,-0.57031 c 0.17969,1.57812 0.59766,2.72266 1.25391,3.41016 0.66406,0.69921 1.5039,1.08593 2.51953,1.16015 1.82031,0.13281 3.30469,-0.67187 4.46094,-2.43359 0.84375,-1.29688 1.61328,-4.11328 2.30468,-8.44922 -1.46093,1.29297 -2.92187,2.20312 -4.40234,2.74609 -1.46875,0.55078 -3.14453,0.75391 -5.02344,0.61328 -3.65234,-0.26953 -6.64062,-1.79687 -8.96484,-4.57031 -2.32422,-2.78515 -3.33203,-6.16406 -3.03906,-10.1289 0.19921,-2.70704 1.01562,-5.125 2.46093,-7.25782 1.44532,-2.1289 3.33203,-3.6875 5.65625,-4.66015 2.32422,-0.97266 5.1836,-1.33985 8.58203,-1.08985 4.07813,0.30078 7.29297,1.25 9.65625,2.82422 2.36329,1.58594 4.17188,3.95313 5.41797,7.10938 1.2461,3.15234 1.69141,7.23047 1.32032,12.23437 -0.54297,7.35938 -2.48438,12.625 -5.83985,15.82031 -3.34375,3.1875 -7.75781,4.58204 -13.2539,4.17579 -3.2461,-0.24219 -5.76954,-0.79688 -7.59375,-1.6836 -1.8125,-0.89062 -3.28907,-2.10547 -4.42579,-3.6289 -1.13671,-1.53516 -1.96093,-3.40625 -2.46875,-5.6211 z m 22.21875,-16.64844 c 0.16016,-2.21093 -0.26953,-3.98046 -1.28906,-5.3125 -1.01562,-1.33593 -2.32812,-2.0625 -3.92187,-2.17968 -1.50782,-0.10938 -2.79297,0.36718 -3.875,1.42187 -1.07813,1.05469 -1.69532,2.71875 -1.86328,4.98438 -0.16797,2.27734 0.21484,4.0625 1.16015,5.34375 0.9375,1.28125 2.1836,1.98437 3.71875,2.09765 1.59375,0.11328 2.96485,-0.375 4.11719,-1.46093 1.13672,-1.08985 1.79297,-2.72657 1.95312,-4.89454 z m 22.92969,-1.67578 -10.84375,-1.11718 c 0.64063,-3.47266 2.14453,-6.20704 4.54297,-8.21485 2.39063,-2 5.90234,-3.17578 10.52344,-3.51562 5.3125,-0.39063 9.21875,0.3125 11.73828,2.11718 2.50781,1.8125 3.87891,4.22266 4.09766,7.21875 0.1289,1.75782 -0.23438,3.38672 -1.08985,4.87891 -0.85156,1.49609 -2.20312,2.85156 -4.05859,4.07031 1.60156,0.27344 2.83984,0.63672 3.70703,1.09766 1.41797,0.73437 2.54297,1.76172 3.39062,3.05859 0.85157,1.31641 1.35157,2.91016 1.48829,4.79297 0.17578,2.375 -0.27344,4.69922 -1.35547,6.97266 -1.08203,2.26562 -2.74219,4.07422 -4.98828,5.42578 -2.25,1.34766 -5.26954,2.16016 -9.07422,2.44141 -3.70313,0.27343 -6.65625,0.0508 -8.85547,-0.66407 -2.20703,-0.71875 -4.0586,-1.85547 -5.56641,-3.43359 -1.5,-1.57813 -2.71875,-3.61719 -3.64844,-6.10938 l 11.21875,-2.33984 c 0.61719,2.25391 1.41797,3.80078 2.42188,4.61328 0.99219,0.8125 2.21484,1.17188 3.66406,1.06641 1.50781,-0.11328 2.73047,-0.76563 3.66406,-1.94922 0.92188,-1.19141 1.31641,-2.70313 1.17969,-4.56641 -0.14062,-1.88672 -0.73047,-3.3125 -1.77734,-4.28125 -1.04297,-0.96875 -2.39844,-1.39062 -4.0586,-1.26562 -0.88281,0.0625 -2.08984,0.37109 -3.60546,0.93359 l -0.008,-8.13672 c 0.625,0.043 1.10938,0.0586 1.46094,0.0352 1.46094,-0.11328 2.65234,-0.67578 3.55859,-1.68359 0.91016,-1.01172 1.32032,-2.16016 1.22657,-3.44922 -0.0937,-1.2461 -0.53516,-2.20313 -1.32032,-2.87891 -0.79296,-0.6875 -1.83593,-0.98047 -3.11718,-0.88672 -1.32813,0.0977 -2.3711,0.57422 -3.14844,1.44141 -0.76563,0.85937 -1.22266,2.30469 -1.36719,4.32812 z m 32.90235,-4.46875 -10.89063,0.47657 c 0.125,-3.52735 1.21875,-6.45313 3.29688,-8.78907 2.07421,-2.33203 5.375,-4 9.89453,-5.01172 5.19922,-1.16406 9.16797,-1.03906 11.92187,0.38282 2.7461,1.42187 4.45313,3.60547 5.10938,6.53906 0.38672,1.71484 0.26172,3.38281 -0.36328,4.98828 -0.62891,1.60156 -1.76563,3.14453 -3.42579,4.61719 1.62891,0.0312 2.90625,0.21484 3.82813,0.54687 1.51172,0.51953 2.77344,1.36328 3.80469,2.53125 1.03125,1.17188 1.75781,2.67578 2.17187,4.52735 0.51953,2.32031 0.41406,4.67968 -0.32422,7.08984 -0.74218,2.39844 -2.11718,4.43359 -4.14453,6.08984 -2.02734,1.66797 -4.89844,2.91407 -8.62109,3.74219 -3.6211,0.81641 -6.57422,1.02735 -8.85547,0.64063 -2.28906,-0.38672 -4.28516,-1.2461 -6.00781,-2.58594 -1.71485,-1.33984 -3.21875,-3.17969 -4.5,-5.50391 l 10.75781,-3.95703 c 0.9375,2.14063 1.95312,3.55078 3.06641,4.20703 1.10156,0.65625 2.35937,0.83203 3.78125,0.51953 1.47656,-0.33203 2.58984,-1.15625 3.33984,-2.46484 0.73828,-1.30469 0.91016,-2.86328 0.5,-4.68359 -0.41406,-1.84766 -1.20703,-3.17188 -2.38281,-3.98047 -1.17188,-0.80078 -2.57813,-1.02344 -4.20313,-0.66016 -0.86328,0.19531 -2.01172,0.67578 -3.42969,1.44922 l -1.19531,-8.04687 c 0.625,-0.043 1.10938,-0.10157 1.45313,-0.1836 1.42968,-0.3164 2.52343,-1.04687 3.27343,-2.17969 0.75,-1.13281 0.99219,-2.32812 0.70704,-3.58984 -0.26954,-1.22266 -0.84766,-2.10547 -1.72266,-2.65625 -0.88672,-0.56641 -1.96094,-0.70312 -3.21484,-0.42187 -1.30079,0.28906 -2.26172,0.91406 -2.90235,1.88671 -0.63281,0.96094 -0.875,2.45704 -0.72265,4.48047 z m 0,0"
       id="path19" />
    <path
       style="fill:#ffffff;fill-opacity:1;fill-rule:evenodd;stroke:none"
       d="m 157.375,299.66406 c -31.21875,-40.03125 -25.59766,-86.69922 -1.01953,-123.5039 17.38281,-27.34375 44.51562,-44.82422 82.16797,-44.91407 -0.33985,70.26172 -0.67969,140.52344 -1.01953,210.78125 -5.375,4.00782 -22.57422,2.85547 -27.5586,-7.14453 -1.3125,-27.98437 -2.23437,-56.09765 -2.8125,-84.21094 H 163.625 c 1.65625,9.98829 5.40625,20.13672 11.61328,30.11329 -5.44141,6.46093 -12.41797,12.41796 -17.86328,18.8789 z m 49.32422,-74.50781 c -0.26172,-19.42969 -0.36328,-38.83594 -0.32813,-58.18359 -22.05078,13.04296 -38.07422,34.19921 -42.50781,58.18359 z m 0,0"
       id="path21" />
    <path
       style="fill:#ffffff;fill-opacity:1;fill-rule:evenodd;stroke:none"
       d="m 256.38672,131.24609 c -0.16797,68.90235 -0.33985,137.80078 -0.51172,206.69922 -1.35938,9.69531 26.87891,1.01953 27.05078,-6.63672 0.17188,-26.02734 -0.17187,-51.54297 0,-77.57422 10.20703,22.11719 20.41406,44.23438 30.62109,66.34375 8.59766,-2.64453 19.48829,-15.89453 18.375,-21.42968 -5.78515,-16.67188 -11.57031,-33.34375 -17.35156,-50.01563 29.60938,-17.25 40.83985,-42.80469 25.51563,-65.32812 -25.14063,-34.31641 -47.4961,-48.35938 -83.69922,-52.0586 z m 28.07031,41.34375 c 0,16.66797 0,32.83203 0,49.50391 8.83594,-0.94922 21.86328,-0.91406 28.07031,-3.57422 9.01563,-5.67578 10.71875,-16.77734 -2.55078,-33.68359 -6.14062,-7.47266 -13.17187,-11.23828 -25.51953,-12.2461 z m 0,0"
       id="path23" />
  </g>
</svg>
