<?xml version="1.0" encoding="UTF-8" standalone="no"?>
<svg
   xmlns:dc="http://purl.org/dc/elements/1.1/"
   xmlns:cc="http://creativecommons.org/ns#"
   xmlns:rdf="http://www.w3.org/1999/02/22-rdf-syntax-ns#"
   xmlns:svg="http://www.w3.org/2000/svg"
   xmlns="http://www.w3.org/2000/svg"
   xmlns:sodipodi="http://sodipodi.sourceforge.net/DTD/sodipodi-0.dtd"
   xmlns:inkscape="http://www.inkscape.org/namespaces/inkscape"
   width="1000"
   height="1000"
   viewBox="0 0 750.00005 750.00002"
   version="1.1"
   id="svg88"
   sodipodi:docname="Club Atlético Boston River.svg"
   inkscape:version="1.0.1 (3bc2e813f5, 2020-09-07)">
  <metadata
     id="metadata92">
    <rdf:RDF>
      <cc:Work
         rdf:about="">
        <dc:format>image/svg+xml</dc:format>
        <dc:type
           rdf:resource="http://purl.org/dc/dcmitype/StillImage" />
        <dc:title></dc:title>
      </cc:Work>
    </rdf:RDF>
  </metadata>
  <sodipodi:namedview
     pagecolor="#ffffff"
     bordercolor="#666666"
     borderopacity="1"
     objecttolerance="10"
     gridtolerance="10"
     guidetolerance="10"
     inkscape:pageopacity="0"
     inkscape:pageshadow="2"
     inkscape:window-width="1920"
     inkscape:window-height="1017"
     id="namedview90"
     showgrid="false"
     units="px"
     inkscape:zoom="0.827"
     inkscape:cx="500"
     inkscape:cy="500"
     inkscape:window-x="-8"
     inkscape:window-y="-8"
     inkscape:window-maximized="1"
     inkscape:current-layer="svg88" />
  <defs
     id="defs5">
    <clipPath
       id="clip1">
      <path
         d="M 0,13 H 51.171875 V 68 H 0 Z m 0,0"
         id="path2" />
    </clipPath>
  </defs>
  <g
     id="g1638"
     transform="matrix(0.3800545,0,0,0.3800545,1354.2329,788.34704)">
    <g
       id="g1609">
      <g
         id="g1596">
        <path
           id="path1504-2-0-2"
           style="fill:#005c2b;fill-opacity:1;stroke:#005c2b;stroke-width:18.75;stroke-linecap:round;stroke-linejoin:round;stroke-miterlimit:4;stroke-dasharray:none;stroke-opacity:1"
           d="m -2577.2167,-1450.2684 c 0,0 -101.5096,65.3569 -155.1416,75.5991 -63.1084,12.0519 -165.6592,7.2305 -165.6592,7.2305 l -62.4507,136.7344 c 0,0 31.0571,20.0432 53.2471,63.1084 17.0566,33.1026 26.8522,73.9406 0,141.9946 -31.9084,80.86842 -54.2395,118.57317 -40.1001,178.14991 14.6233,61.61563 78.2817,130.43649 150.5405,145.28028 118.7629,24.3969 220.2217,137.39209 220.2217,137.39209 l -0.028,-36.93897 h 0.056 l -0.028,36.93897 c 0,0 101.4589,-112.99519 220.2217,-137.39209 72.2588,-14.84377 135.9173,-83.66468 150.5405,-145.28028 14.1394,-59.57674 -8.1917,-97.28147 -40.1001,-178.14991 -26.8521,-68.054 -17.0565,-108.892 0,-141.9946 22.1901,-43.0652 53.2471,-63.1084 53.2471,-63.1084 l -62.4507,-136.7344 c 0,0 -102.5508,4.8214 -165.6592,-7.2305 -53.6319,-10.2422 -155.1416,-75.5991 -155.1416,-75.5991 l -0.053,71.5283 h -1.21 z"
           sodipodi:nodetypes="csccssssccccssssccscccc" />
        <path
           id="path1565"
           style="opacity:0.998;fill:#e1303a;fill-opacity:1;stroke:none;stroke-width:16.4345;stroke-linecap:round;stroke-linejoin:round;stroke-miterlimit:4;stroke-dasharray:none;stroke-opacity:0.5;paint-order:fill markers stroke"
           d="m -2576.4416,-1305.4533 -0.6973,-123.7791 2.1765,1.0783 c 0.8695,0.4308 7.5919,4.5393 15.0632,8.9113 50.8376,29.749 93.0709,49.4726 120.5212,56.2853 7.7653,1.9272 24.4552,4.5369 37.7992,5.9105 28.0923,2.8916 49.7757,3.738 93.2479,3.6399 l 37.042,-0.084 28.1794,61.6914 28.1793,61.6915 -3.099,2.6035 c -12.1997,10.2489 -26.0967,26.0739 -35.9589,40.9479 l -3.1602,4.766 h -159.6466 -160.3246 z m -324.7072,116.2968 c -8.4532,-12.6489 -20.2621,-26.1666 -31.8504,-36.4595 l -5.1885,-4.6086 28.1919,-61.7352 28.192,-61.7351 44.0492,-0.01 c 45.3524,-0.01 56.7367,-0.4195 82.8346,-3.0052 32.2628,-3.1966 48.1316,-6.9043 72.9691,-17.0487 25.0327,-10.2239 64.2628,-30.6227 97.1575,-50.5193 4.2647,-2.5796 7.8885,-4.6901 8.0529,-4.6901 0.1644,0 0.2989,55.6142 0.2989,123.5872 v 123.5873 l -159.9075,-0.023 -159.9074,-0.023 -4.8923,-7.3205 z" />
        <path
           style="fill:#e1303a;fill-opacity:1;stroke:none;stroke-width:0.762059px;stroke-linecap:butt;stroke-linejoin:miter;stroke-opacity:1"
           d="m -2514.1155,-642.80333 v -517.50007 h 147.9103 v 449.29188 0 c 0,0 -49.9608,14.25245 -74.6125,24.09344 -24.6517,9.84098 -73.2978,44.11475 -73.2978,44.11475 z"
           id="path1575"
           sodipodi:nodetypes="ccccczc" />
        <path
           style="fill:#e1303a;fill-opacity:1;stroke:none;stroke-width:0.762559px;stroke-linecap:butt;stroke-linejoin:miter;stroke-opacity:1"
           d="m -2644.1518,-642.80333 0.6574,-517.50007 h -147.9103 v 449.88188 0 c 0,0 49.9608,14.27118 74.6125,24.12508 24.6517,9.85391 72.6404,43.49311 72.6404,43.49311 z"
           id="path1575-9"
           sodipodi:nodetypes="ccccczc" />
      </g>
      <text
         xml:space="preserve"
         style="font-size:146.346px;line-height:1.25;font-family:sans-serif;letter-spacing:15.2444px;word-spacing:0px;fill:#fef8f8;fill-opacity:0.992157;stroke-width:0.762219"
         x="-3194.667"
         y="-1063.2721"
         id="text1600"
         transform="scale(0.87424785,1.1438404)"><tspan
           sodipodi:role="line"
           id="tspan1598"
           x="-3194.667"
           y="-1063.2721"
           style="font-style:normal;font-variant:normal;font-weight:bold;font-stretch:normal;font-family:sans-serif;-inkscape-font-specification:'sans-serif Bold';fill:#fef8f8;fill-opacity:0.992157;stroke-width:0.762219">CABR</tspan></text>
    </g>
    <path
       style="fill:#e1303a;fill-opacity:1;stroke:#005c2b;stroke-width:18.75;stroke-linecap:round;stroke-linejoin:round;stroke-miterlimit:4;stroke-dasharray:none;stroke-opacity:1"
       d="m -2255.1005,-1367.4388 70.081,145.3935 c -46.0329,26.098 -68.0611,67.5904 -79.2843,119.5302 96.5214,63.7576 199.8983,29.5785 305.0239,-29.5821 -61.3583,-2.901 -117.1801,-15.7097 -155.1415,-60.4788 92.1866,-1.3798 182.4898,-14.4848 259.937,-79.7354 -67.1741,3.9311 -127.8175,-14.9955 -180.1218,-63.1084 133.9986,0.5526 269.1901,-40.8751 386.041,-255.8936 -85.3224,88.8052 -263.2414,160.7226 -378.6782,159.3129 -117.8874,-1.4396 -136.7537,36.0901 -227.8571,64.5617 z"
       id="path1611"
       sodipodi:nodetypes="ccccccccsc" />
    <path
       style="fill:#e1303a;fill-opacity:1;stroke:#005c2b;stroke-width:18.75;stroke-linecap:round;stroke-linejoin:round;stroke-miterlimit:4;stroke-dasharray:none;stroke-opacity:1"
       d="m -2898.0175,-1367.4388 -70.081,145.3935 c 46.0329,26.098 68.0611,67.5904 79.2843,119.5302 -96.5214,63.7576 -199.8983,29.5785 -305.0239,-29.5821 61.3583,-2.901 117.1801,-15.7097 155.1415,-60.4789 -92.1866,-1.3798 -182.4898,-14.4847 -259.937,-79.7353 67.1741,3.9311 127.8175,-14.9955 180.1218,-63.1084 -133.9986,0.5526 -269.1901,-40.8751 -386.041,-255.8936 85.3224,88.8052 263.2414,160.7226 378.6782,159.3129 117.8874,-1.4396 136.7537,36.0901 227.8571,64.5617 z"
       id="path1611-3"
       sodipodi:nodetypes="ccccccccsc" />
  </g>
</svg>
