<?xml version="1.0" encoding="UTF-8" standalone="no"?>
<svg
   xmlns:dc="http://purl.org/dc/elements/1.1/"
   xmlns:cc="http://creativecommons.org/ns#"
   xmlns:rdf="http://www.w3.org/1999/02/22-rdf-syntax-ns#"
   xmlns:svg="http://www.w3.org/2000/svg"
   xmlns="http://www.w3.org/2000/svg"
   xmlns:sodipodi="http://sodipodi.sourceforge.net/DTD/sodipodi-0.dtd"
   xmlns:inkscape="http://www.inkscape.org/namespaces/inkscape"
   version="1.0"
   width="1000"
   height="1000"
   id="svg43"
   sodipodi:docname="Seattle Sounders FC.svg"
   inkscape:version="1.0.1 (3bc2e813f5, 2020-09-07)">
  <metadata
     id="metadata49">
    <rdf:RDF>
      <cc:Work
         rdf:about="">
        <dc:format>image/svg+xml</dc:format>
        <dc:type
           rdf:resource="http://purl.org/dc/dcmitype/StillImage" />
        <dc:title>Seattle Sounders FC crest</dc:title>
      </cc:Work>
    </rdf:RDF>
  </metadata>
  <defs
     id="defs47" />
  <sodipodi:namedview
     pagecolor="#ffffff"
     bordercolor="#666666"
     borderopacity="1"
     objecttolerance="10"
     gridtolerance="10"
     guidetolerance="10"
     inkscape:pageopacity="0"
     inkscape:pageshadow="2"
     inkscape:window-width="1920"
     inkscape:window-height="1017"
     id="namedview45"
     showgrid="false"
     inkscape:zoom="0.845"
     inkscape:cx="500"
     inkscape:cy="500"
     inkscape:window-x="-8"
     inkscape:window-y="-8"
     inkscape:window-maximized="1"
     inkscape:current-layer="svg43" />
  <title
     id="title2">Seattle Sounders FC crest</title>
  <g
     id="g913"
     transform="matrix(2.6027397,0,0,2.6027397,175.73257,25.000005)">
    <g
       id="crest-outer">
      <path
         id="crest-outer-dark"
         style="fill:#142530"
         d="M 57.43975,258.35675 A 265.20177,265.20177 0 0 0 13.26263,224.29742 c 0,0 4.1334,-10.2055 5.51885,-15.31984 11.10246,-41.181 1.248,-74.21358 -16.96863,-111.90629 0,0 28.96793,3.20977 47.696,1.39686 26.8459,-2.61435 50.81795,-10.01855 75.08,-22.09426 42.18485,20.98742 76.77075,25.79252 122.76462,20.69356 -21.55616,44.59305 -29.97939,81.50725 -11.44978,127.22612 0,0 -10.86206,6.679 -17.5411,11.62158 C 170.24684,271.53161 146.13735,309.01816 124.58888,365 108.05539,322.0519 91.35779,290.57269 57.43975,258.35679" />
      <path
         id="crest-outer-light"
         style="fill:#ffffff"
         d="M 62.77154,252.7425 C 50.6348,241.21643 37.208,229.92307 22.88425,221.16021 A 93.53773,93.53773 0 0 0 26.24671,210.9928 C 35.7882,175.571 30.87629,139.43923 14.858,106.296 a 188.093,188.093 0 0 0 35.39516,-0.14117 212.31231,212.31231 0 0 0 74.33576,-21.13627 c 31.76166,15.80448 73.92356,25.33071 109.71951,21.27744 -16.0259,33.14326 -20.93793,69.275 -11.38875,104.69683 a 92.50325,92.50325 0 0 0 3.37,10.16741 c 0,0 -5.49975,3.35478 -12.51458,8.54914 -39.4942,29.22755 -71.34368,67.424 -89.18237,113.76893 -13.81605,-35.857 -34.26921,-64.54247 -61.82118,-90.73578" />
      <path
         id="crest-outer-blue"
         style="fill:#005595"
         d="m 64.88588,250.51367 c 20.72792,19.69353 44.929,48.30272 59.703,84.50318 17.354,-42.54743 50.54692,-80.54542 87.34279,-107.773 5.08371,-3.76313 8.81248,-6.23248 10.549,-7.35843 a 129.0666,129.0666 0 0 1 -6.85841,-32.94864 151.27565,151.27565 0 0 1 13.56039,-77.03409 c -34.59359,2.3587 -73.85111,-6.29363 -104.58991,-21.4454 -30.75032,15.148 -70.004,23.8041 -104.58618,21.4454 14.61762,31.59 18.26242,68.32469 9.2248,101.88773 -1.04966,3.87 -1.99612,6.62569 -2.5305,8.095 a 263.92773,263.92773 0 0 1 38.185,30.62826" />
    </g>
    <g
       id="crest-inner">
      <path
         id="crest-inner-dark"
         style="fill:#142530"
         d="m 41.7154,137.93941 c -9.656,-52.65 -8.469,-105.75406 -8.469,-105.75406 L 124.58888,0 215.92,32.18535 c 0,0 1.19466,53.10409 -8.469,105.75406 C 196.29118,198.85979 175.861,254.3722 124.58888,293.79 73.30526,254.376 52.898,198.86363 41.7154,137.93941" />
      <path
         id="crest-inner-light"
         style="fill:#ffffff"
         d="M 51.71486,136.22574 A 534.60949,534.60949 0 0 1 43.30305,39.72315 l 81.28583,-28.655 81.26673,28.655 a 534.405,534.405 0 0 1 -8.408,96.50259 c -9.4384,51.4553 -28.78087,110.63545 -72.85876,144.51529 -44.0893,-33.87984 -63.42036,-93.06 -72.874,-144.51529" />
      <path
         id="crest-inner-green"
         style="fill:#5d9741"
         d="m 56.96652,135.26775 c 9.20942,50.2378 28.33816,107.40658 67.62236,138.737 58.9931,-47.051 76.46547,-158.79327 76.01134,-230.49557 L 124.58888,16.732 48.56228,43.50923 a 524.99613,524.99613 0 0 0 8.40424,91.75852" />
    </g>
    <g
       id="needle">
      <g
         id="needle-outline"
         style="fill:#ffffff">
        <path
           id="needle-outline-top"
           d="M 105.60515,134.47771 99.79628,92.50286 c -5.27834,-1.46185 -15.10984,-4.8242 -15.10984,-11.67877 -5.01126,-2.46177 -10.385,-6.202 -10.385,-11.54144 0,-6.14466 6.85072,-10.12921 12.82,-12.5833 3.83185,-4.48072 11.35427,-7.54164 19.87674,-9.23994 a 11.526,11.526 0 0 1 3.50363,-6.328 24.70315,24.70315 0 0 1 7.32406,-4.36227 l 0.78247,-1.07248 1.3816,-18.17466 c 0.83581,-5.12564 6.17133,-4.54933 7.77819,-2.72117 a 4.71063,4.71063 0 0 1 1.29763,2.75937 l 1.48468,18.12125 0.82056,1.11055 c 8.85452,3.50363 10.57192,7.91948 11.01079,10.60629 8.35078,1.084 15.83127,4.79753 19.65555,9.30492 5.9844,2.45409 12.82755,6.43853 12.82755,12.5833 0,5.33937 -5.37373,9.04531 -10.385,11.49556 0,7.14085 -9.71316,10.41165 -15.21291,11.82378 l -5.76309,41.87572 h -37.89874" />
        <path
           id="needle-outline-bottom"
           d="m 97.81169,250.735 c 4.50355,-30.048 7.69038,-42.71911 9.35443,-73.53431 h 34.82642 c 1.83958,31.7923 5.12948,43.48632 10.09485,73.75188 L 124.58888,278.848 97.81169,250.735" />
      </g>
      <g
         id="needle-fg"
         style="fill:#142530">
        <path
           id="needle-fg-top"
           d="M 109.62021,134.47771 103.29234,89.33887 C 95.31555,87.46493 88.606,84.35055 88.606,80.82409 a 3.71093,3.71093 0 0 1 0.81682,-2.25562 c -6.5112,-2.519 -10.41934,-5.76309 -10.41934,-9.28582 0,-3.54183 3.96929,-6.79353 10.57192,-9.33917 2.95411,-4.24021 11.175,-7.67139 21.84618,-9.259 -1.996,-3.09527 1.7061,-6.63711 1.7061,-6.63711 a 19.67372,19.67372 0 0 1 7.14086,-3.954 l 2.19074,-3.01887 1.37392,-19.11349 c 0.73273,-2.68692 1.51136,0 1.51136,0 l 1.37019,19.11349 1.67931,2.30139 c 6.16761,1.80907 8.6217,4.83562 8.6217,4.83562 l -1.26712,-0.09155 c -5.65617,0.687 -7.19431,3.69826 -6.96917,5.71336 14.91533,0.66413 27.075,4.74407 30.82289,10.10638 6.5989,2.54564 10.56435,5.80119 10.56435,9.33918 0,3.52273 -3.89685,6.76686 -10.40793,9.28582 a 3.82773,3.82773 0 0 1 0.8053,2.25562 c 0,3.52646 -5.83555,6.64852 -14.82739,8.57208 L 139.55,134.47387 h -3.206 l 3.41977,-42.37563 c 0.0763,-0.50375 0.15642,-1.8892 -1.6488,-1.57239 -1.33583,0.2213 -4.5838,0.72132 -4.5838,0.72132 a 1.65937,1.65937 0 0 0 -1.6029,1.86252 c 0,0 0.0382,22.1744 0.0229,41.36045 h -14.7016 V 93.33483 a 1.74806,1.74806 0 0 0 -1.57238,-2.06472 l -4.44253,-0.71375 c -2.29,-0.44271 -1.84726,1.45417 -1.84726,1.45417 l 3.4808,42.45961 h -3.248" />
        <path
           id="needle-fg-bottom"
           d="m 101.12827,252.88379 c 2.34716,-12.881 8.72093,-41.94445 10.27433,-75.664 h 26.33832 c 1.54944,33.71958 7.89269,62.66468 10.259,75.56852 l -6.18671,7.721 c -2.8777,-14.17864 -4.5456,-22.61712 -7.14843,-36.6469 -0.40847,-2.23652 -0.99235,-3.52657 -1.96175,-3.40067 -0.78247,0.11077 -1.164,1.14889 -1.24429,3.66774 l -3.10284,47.63114 -3.77839,5.66386 -3.79377,-5.66386 -3.099,-47.63114 c -0.0878,-2.51885 -0.46182,-3.557 -1.24044,-3.66774 -0.96556,-0.1259 -1.55329,1.16415 -1.96549,3.40067 -2.60294,14.02978 -4.21353,22.28121 -7.07982,36.45984 l -6.27068,-7.43844" />
      </g>
      <path
         id="needle-highlight"
         style="fill:#ffffff"
         d="m 138.75994,60.787 a 33.81135,33.81135 0 0 0 -9.68276,-1.08018 l 1.09543,-0.61439 c 3.62185,-2.00381 9.28186,-2.54576 13.62515,-1.4466 3.88531,1.00377 13.81232,6.48441 11.38118,12.98408 a 33.62609,33.62609 0 0 0 -4.07622,-3.80506 1.7174,1.7174 0 0 0 -0.9694,2.164 c 2.75179,2.641 4.26315,6.07978 3.0877,9.22083 -3.66774,-5.118 -11.80863,-9.5338 -18.04869,-11.52223 l -0.55348,-0.17552 c 3.37773,-2.57627 7.96141,-2.14882 11.79326,-0.168 a 1.821,1.821 0 0 0 0.96953,-2.04573 33.8901,33.8901 0 0 0 -8.6217,-3.5112" />
    </g>
    <g
       id="wordmark-bg">
      <path
         id="wordmark-bg-dark"
         style="fill:#142530"
         d="m -6e-5,135.5693 c 40.84529,-17.43418 80.09128,-26.33075 124.58894,-26.33075 44.47855,0 83.73224,8.89657 124.5851,26.33075 v 78.4157 c -42.37179,-18.08305 -78.328,-27.58249 -124.5851,-27.58249 -46.24569,0 -82.217,9.49571 -124.58894,27.58249 v -78.4157" />
      <path
         id="wordmark-bg-light"
         style="fill:#ffffff"
         d="m 7.908,140.653 v 62.96612 a 300.5576,300.5576 0 0 1 234.94183,0 V 140.653 a 300.60215,300.60215 0 0 0 -234.94183,0" />
    </g>
    <g
       id="wordmark"
       style="fill:#142530">
      <g
         id="wordmark-seattle">
        <path
           id="seattle-S"
           d="m 61.94715,142.04218 c 0,2.37011 1.10684,2.73269 3.85852,2.19074 l 3.66017,-0.70606 c 4.01891,-0.78235 4.9196,-1.43122 4.9196,-4.3929 0,-3.19067 -1.08775,-3.2899 -5.78977,-2.36627 -3.24029,0.645 -3.60671,0.68311 -3.60671,-0.26719 0,-0.58772 0.46566,-0.9312 1.14493,-1.07249 l 3.35478,-0.64875 c 1.38545,-0.27861 1.46185,0.0458 1.46185,0.84722 l 3.03029,-0.59156 v -0.33964 c 0,-1.93508 -0.32438,-3.19067 -3.82032,-2.51128 l -4.21738,0.82428 c -3.8166,0.7367 -3.98071,2.30524 -3.98071,4.2861 0,2.69834 0.52285,3.19824 5.06845,2.30524 3.90057,-0.74427 4.25547,-0.76337 4.25547,0.19463 0,0.84349 -0.664,1.04954 -1.3052,1.17172 l -3.69838,0.72516 c -0.874,0.16784 -1.29378,0.16784 -1.31288,-0.99235 l -3.02271,0.58388 v 0.75952" />
        <path
           id="seattle-E1"
           d="m 83.381,140.962 10.958,-1.359 v -2.629 l -7.935,0.988 v -1.771 l 6.309,-0.778 1.053,-2.378 -7.362,0.893 v -1.767 l 7.77,-0.931 v -2.561 l -10.793,1.324 v 10.969" />
        <path
           id="seattle-A"
           d="m 109.61252,130.05045 1.96176,3.96544 -3.86621,0.28245 z m -7.29728,8.93466 3.36247,-0.24809 0.893,-1.99228 6.13324,-0.42745 0.93889,1.87778 3.36631,-0.25193 -5.431,-10.56808 -3.93108,0.26719 -5.3318,11.34286" />
        <path
           id="seattle-T1"
           d="m 122.734,129.856 4.248,0.084 v 8.236 l 3.019,0.053 v -8.236 l 4.255,0.077 v -2.733 l -11.522,-0.195 v 2.714" />
        <path
           id="seattle-T2"
           d="m 140.161,130.302 4.255,0.298 v 8.232 l 3.011,0.207 v -8.233 l 4.252,0.294 v -2.725 l -11.518,-0.798 v 2.725" />
        <path
           id="seattle-L"
           d="m 159.61,140.172 9.809,1.378 v -2.817 l -6.775,-0.958 v -8.133 l -3.034,-0.42 v 10.95" />
        <path
           id="seattle-E2"
           d="m 176.246,142.71 10.966,2.126 v -2.63 l -7.931,-1.553 v -1.756 l 6.083,1.161 1.267,-1.997 -7.35,-1.427 v -1.756 l 7.759,1.512 v -2.538 l -10.794,-2.111 v 10.969" />
      </g>
      <g
         id="wordmark-sounders-fc">
        <path
           id="sounders-S1"
           d="m 22.495,189.18855 a 14.33454,14.33454 0 0 1 -8.61785,0.36643 l 1.64879,-6.35467 a 10.01593,10.01593 0 0 0 7.13317,0.0115 c 2.10293,-0.76337 2.9045,-2.10293 2.9045,-3.45029 0,-1.41969 -0.66414,-2.1487 -4.56471,-2.39679 -4.50739,-0.26719 -6.06837,-2.49217 -6.06837,-5.78208 0,-3.98454 3.02656,-8.98427 8.98428,-11.1827 a 11.89554,11.89554 0 0 1 7.14843,-0.5267 l -1.4961,6.244 a 8.91383,8.91383 0 0 0 -5.64849,-0.16027 c -2.15638,0.79 -3.0304,2.19063 -3.0304,3.30889 0,1.7938 1.28237,1.916 4.4883,2.19843 4.786,0.39694 6.22107,2.351 6.22107,5.85464 -0.0038,4.36239 -2.97322,9.60252 -9.10262,11.86955" />
        <path
           id="sounders-O"
           d="m 45.23429,158.8085 c -3.78224,0.98466 -6.33172,5.10665 -6.33172,9.90022 0,4.77074 2.54948,7.61408 6.33172,6.62569 3.78608,-0.98478 6.324,-5.14485 6.324,-9.91559 0,-4.786 -2.538,-7.595 -6.324,-6.61032 m -0.09924,22.03708 c -7.40035,1.935 -12.12148,-2.77859 -12.12148,-10.6064 0,-7.85076 4.954,-15.07548 12.35431,-17.00288 7.36216,-1.9083 12.11764,2.78988 12.11764,10.633 0,7.83165 -4.98062,15.05264 -12.35047,16.97632" />
        <path
           id="sounders-U"
           d="m 69.3666,174.76952 c -6.09888,1.0839 -9.488,-2.11818 -9.488,-9.427 v -15.27021 l 5.24782,-1.09916 v 14.942 c 0,3.76313 1.35481,5.77823 4.36227,5.244 2.96552,-0.55721 4.3243,-3.07617 4.3243,-6.86225 v -14.97255 l 7.282,-1.11441 -2.03048,2.412 v 13.12909 c -0.0037,7.45 -3.62185,11.95365 -9.69791,13.01845" />
        <path
           id="sounders-N"
           d="m 103.807,143.615 0.127,25.815 -16.427,-12.953 2.484,3.641 -0.103,10.095 -6.072,0.717 -0.011,-25.941 14.003,11.636 0.084,-12.53 5.915,-0.48" />
        <path
           id="sounders-D"
           d="m 117.18083,162.93421 c 3.27849,0.12218 4.06853,-1.88535 4.06853,-3.78223 v -6.908 c 0,-5.18294 -3.37772,-3.97686 -6.51493,-4.17918 v 14.99162 l 2.4464,-0.12218 z M 126.314,150.954 v 8.301 c 0,6.763 -5.24012,9.10635 -8.00333,9.04147 -5.06845,0.168 -9.00338,0.20231 -9.00338,0.20231 l 0.0344,-22.61327 -2.21742,-2.49614 c 0,0 6.347,-0.4122 11.95737,-0.47707 3.50363,0.16795 7.2324,1.49237 7.2324,8.04166" />
        <path
           id="sounders-E"
           d="m 146.988,143.805 0.031,5.244 -9.816,-0.583 -0.061,4.885 8.369,0.736 -2.809,4.256 -5.53,-0.492 0.015,5.343 9.885,0.801 0.05,5.111 -15.667,-0.916 -0.115,-12.931 -2.912,-2.679 2.909,0.286 0.049,-9.889 15.602,0.828" />
        <path
           id="sounders-R"
           d="m 164.74325,171.00254 -4.44252,-10.01854 -2.65256,-0.39694 v 9.54533 l -5.53015,-0.63746 v -22.51021 l -2.73654,-2.9731 13.06806,1.41212 a 8.94194,8.94194 0 0 1 7.70179,9.22468 5.998,5.998 0 0 1 -4.19816,6.14094 l 5.27834,11.33144 -6.48826,-1.11826 m -3.17925,-20.39585 -3.912,-0.5649 v 5.6486 l 4.0761,0.61067 0.72143,0.0381 a 2.12535,2.12535 0 0 0 2.1678,-2.351 3.40517,3.40517 0 0 0 -3.05707,-3.38145 l 0.0801,-0.39694" />
        <path
           id="sounders-S2"
           d="m 181.04018,174.4413 a 20.18638,20.18638 0 0 1 -8.33552,-4.2288 l 1.46943,-5.03793 a 15.23747,15.23747 0 0 0 6.93854,3.82044 c 2.01137,0.39694 2.75936,-0.416 2.73654,-1.68315 -0.0229,-1.32058 -0.65645,-2.34333 -4.45021,-4.64857 -4.37,-2.66782 -5.93478,-5.56078 -5.9844,-8.62169 -0.061,-3.73262 2.79373,-6.75918 8.54157,-5.62182 a 16.43107,16.43107 0 0 1 6.91187,3.328 l -1.35494,5.00358 a 13.81578,13.81578 0 0 0 -5.46539,-3.15631 c -2.09523,-0.40836 -2.91579,0.43887 -2.88527,1.48084 0.0305,1.66021 1.28237,2.4655 4.38906,4.43483 4.63715,2.92732 6.05311,5.47308 6.11414,8.75529 0.0801,4.04943 -2.71359,7.347 -8.62542,6.1753" />
        <path
           id="fc-F"
           d="M 201.14975,164.04105 V 152.866 l 15.57933,4.16776 v 5.63335 l -9.87727,-2.63731 v 5.53027 l 8.54144,2.27845 -2.83193,3.83954 -5.70951,-1.5152 V 180.857 l -5.70206,-1.519 v -12.87337 l -2.86245,-3.20593 2.86245,0.78235 m 0,2.33191 -2.64488,-2.98078" />
        <path
           id="fc-C"
           d="m 229.74753,189.93281 c -7.87743,-2.88527 -13.22449,-10.59871 -13.22449,-18.38075 0,-7.81628 5.34321,-11.63672 13.22449,-8.75517 a 21.0119,21.0119 0 0 1 7.553,5.03781 l -1.71367,4.53419 a 17.09844,17.09844 0 0 0 -5.77835,-3.84711 c -4.51881,-1.65264 -7.32022,0.34348 -7.32022,5.21346 a 10.938,10.938 0 0 0 7.32022,10.5414 9.87932,9.87932 0 0 0 6.04554,0.28245 l 1.67547,5.77835 a 12.37822,12.37822 0 0 1 -7.782,-0.40463" />
      </g>
    </g>
  </g>
</svg>
