<?xml version="1.0" encoding="UTF-8" standalone="no"?>
<svg
   xmlns:dc="http://purl.org/dc/elements/1.1/"
   xmlns:cc="http://creativecommons.org/ns#"
   xmlns:rdf="http://www.w3.org/1999/02/22-rdf-syntax-ns#"
   xmlns:svg="http://www.w3.org/2000/svg"
   xmlns="http://www.w3.org/2000/svg"
   xmlns:sodipodi="http://sodipodi.sourceforge.net/DTD/sodipodi-0.dtd"
   xmlns:inkscape="http://www.inkscape.org/namespaces/inkscape"
   version="1.1"
   id="Layer_1"
   x="0px"
   y="0px"
   viewBox="0 0 1000 999.99998"
   xml:space="preserve"
   sodipodi:docname="O.F.I. Creta F.C..svg"
   width="1000"
   height="1000"
   inkscape:version="1.0.1 (3bc2e813f5, 2020-09-07)"><metadata
   id="metadata21"><rdf:RDF><cc:Work
       rdf:about=""><dc:format>image/svg+xml</dc:format><dc:type
         rdf:resource="http://purl.org/dc/dcmitype/StillImage" /><dc:title /></cc:Work></rdf:RDF></metadata><defs
   id="defs19" /><sodipodi:namedview
   pagecolor="#ffffff"
   bordercolor="#666666"
   borderopacity="1"
   objecttolerance="10"
   gridtolerance="10"
   guidetolerance="10"
   inkscape:pageopacity="0"
   inkscape:pageshadow="2"
   inkscape:window-width="1920"
   inkscape:window-height="1017"
   id="namedview17"
   showgrid="false"
   inkscape:zoom="0.827"
   inkscape:cx="500"
   inkscape:cy="500"
   inkscape:window-x="-8"
   inkscape:window-y="-8"
   inkscape:window-maximized="1"
   inkscape:current-layer="Layer_1"
   inkscape:document-rotation="0" />






<g
   id="g853"
   transform="matrix(4.523788,0,0,4.523788,-848.08882,-1408.5387)"><path
     style="fill:#343536"
     d="m 298,526.89 c 2.197,-2.916 4.694,-5.474 8.105,-7.679 2.201,-1.419 4.91,-2.89 8.209,-4.461 4.399,-2.097 9.225,-4.085 14.334,-6.19 5.688,-2.345 11.568,-4.769 16.932,-7.4 9.95,-4.882 21.136,-11.048 28.654,-19.772 6.974,-8.089 10.329,-17.751 10.254,-29.535 -0.066,-10.551 -2.179,-19.269 -5.078,-26.779 -3.533,-9.16 -8.658,-16.992 -13.108,-25.601 -2.913,-5.637 -4.95,-10.903 -4.767,-16.325 0.242,-7.156 4.504,-15.112 12.418,-23.29 2.857,-2.951 5.943,-5.591 9.049,-8.264 v 0 l -28.833,-34.705 v 0 c -3.965,2.21 -8.148,4.382 -12.54,6.051 -6.281,2.388 -12.336,3.684 -18.088,3.866 -9.371,0.295 -18.09,-4.899 -25.541,-9.628 -7.451,5.308 -16.171,10.503 -25.542,10.206 -5.752,-0.183 -11.806,-1.479 -18.087,-3.866 -4.392,-1.667 -8.575,-3.84 -12.541,-6.049 v 0 l -28.832,34.704 v 0 c 3.105,2.673 6.192,5.313 9.049,8.264 7.913,8.177 12.176,16.135 12.417,23.289 0.183,5.423 -1.854,10.69 -4.766,16.326 -4.45,8.607 -9.575,16.44 -13.11,25.601 -2.897,7.512 -5.01,16.228 -5.076,26.779 -0.075,11.785 3.279,21.446 10.253,29.535 7.52,8.724 18.705,14.891 28.656,19.773 5.363,2.631 11.244,5.054 16.931,7.397 5.11,2.106 9.935,4.094 14.334,6.19 3.299,1.572 6.008,3.042 8.208,4.464 3.412,2.203 5.909,4.761 8.106,7.099 z"
     id="path2" /><path
     style="fill:#ffffff"
     d="m 298,515.503 c 2.808,-2.787 7.301,-5.36 12.857,-8.007 4.595,-2.188 9.746,-4.313 14.73,-6.364 5.566,-2.296 11.324,-4.668 16.453,-7.184 9.222,-4.524 19.533,-10.178 26.107,-17.806 5.65,-6.554 8.367,-14.48 8.306,-24.238 -0.065,-10.224 -2.324,-18.62 -5.317,-25.837 -3.744,-9.032 -9.204,-16.912 -13.356,-25.701 -2.409,-5.101 -4.136,-10.25 -4.281,-15.773 v 0 L 244.688,489.672 v 0 c 3.094,1.76 6.242,3.368 9.271,4.856 5.128,2.516 10.886,4.888 16.454,7.183 4.982,2.055 10.135,4.177 14.729,6.365 5.555,2.645 10.05,5.218 12.858,7.427 z m 31.016,-181.082 c -1.758,0.223 -3.498,0.361 -5.22,0.416 -5.356,0.169 -10.506,-1.069 -15.154,-2.879 -3.976,-1.547 -7.585,-3.514 -10.642,-5.083 -3.057,2.149 -6.665,4.114 -10.641,5.662 -4.649,1.809 -9.799,3.048 -15.155,2.879 -4.863,-0.154 -9.877,-0.983 -15.007,-2.479 -4.388,-1.277 -8.86,-3.042 -13.396,-5.286 v 0 l -19.624,23.636 v 0 c 11.807,10.928 17.966,21.737 18.317,32.169 0.208,6.178 -1.616,11.863 -4.274,17.489 -4.152,8.789 -9.611,16.668 -13.358,25.7 -1.523,3.677 -2.856,7.659 -3.807,12.032 v 0 z"
     id="path4" /><path
     style="fill:#ffffff"
     d="m 323.884,393.836 c 1.798,-1.736 4.682,-1.686 6.418,0.112 1.735,1.8 1.686,4.681 -0.112,6.418 -1.799,1.736 -4.682,1.686 -6.418,-0.111 -1.737,-1.799 -1.687,-4.682 0.112,-6.419 z"
     id="path6" /><path
     style="fill:#ffffff"
     d="m 280.255,435.97 c 1.798,-1.736 4.681,-1.686 6.417,0.111 1.736,1.799 1.685,4.682 -0.112,6.418 -1.799,1.737 -4.681,1.686 -6.418,-0.112 -1.737,-1.798 -1.687,-4.68 0.113,-6.417 z"
     id="path8" /><path
     style="fill:#ffffff"
     d="m 234.399,462.338 c -2.079,-2.153 -3.639,-4.585 -4.692,-7.296 -1.054,-2.711 -1.539,-5.595 -1.465,-8.657 0.071,-2.895 0.647,-5.596 1.737,-8.094 1.083,-2.506 2.67,-4.763 4.755,-6.776 2.136,-2.063 4.481,-3.603 7.038,-4.612 2.55,-1.016 5.304,-1.504 8.255,-1.474 3.035,0.032 5.857,0.617 8.475,1.765 2.616,1.146 4.985,2.811 7.105,5.005 2.1,2.176 3.703,4.51 4.803,6.996 1.107,2.479 1.688,5.103 1.76,7.859 0.078,3.25 -0.446,6.247 -1.554,9 -1.115,2.76 -2.805,5.24 -5.083,7.44 -2.3,2.22 -4.844,3.815 -7.635,4.798 -2.796,0.99 -5.803,1.36 -9.025,1.092 -2.701,-0.188 -5.281,-0.883 -7.734,-2.089 -2.454,-1.193 -4.703,-2.848 -6.74,-4.957 z m 6.306,-5.942 c 1.205,1.247 2.537,2.222 3.993,2.921 1.456,0.707 2.992,1.108 4.601,1.208 1.92,0.144 3.714,-0.091 5.385,-0.692 1.668,-0.601 3.192,-1.561 4.573,-2.896 1.368,-1.321 2.388,-2.807 3.063,-4.455 0.674,-1.645 1.001,-3.435 0.969,-5.369 -0.028,-1.641 -0.363,-3.201 -1.011,-4.674 -0.645,-1.476 -1.588,-2.857 -2.829,-4.143 -1.254,-1.299 -2.657,-2.278 -4.211,-2.949 -1.555,-0.671 -3.233,-1.006 -5.043,-1.011 -1.759,-0.005 -3.403,0.301 -4.928,0.916 -1.528,0.613 -2.934,1.543 -4.216,2.781 -1.252,1.209 -2.21,2.56 -2.866,4.059 -0.661,1.494 -1.018,3.104 -1.074,4.829 -0.06,1.825 0.218,3.541 0.832,5.15 0.616,1.61 1.534,3.053 2.762,4.325 z"
     id="path10" /><path
     style="fill:#ffffff"
     d="m 274.667,391.565 6.011,-5.805 0.956,0.989 v 0 c 1.192,-0.789 2.439,-1.441 3.741,-1.954 2.551,-1.015 5.304,-1.504 8.255,-1.474 3.035,0.032 5.858,0.618 8.475,1.765 2.616,1.146 4.984,2.81 7.106,5.007 2.099,2.174 3.702,4.507 4.801,6.994 1.107,2.479 1.69,5.104 1.761,7.858 0.079,3.25 -0.446,6.249 -1.555,9.001 -0.595,1.474 -1.357,2.869 -2.28,4.184 v 0 l 0.969,1.003 -6.012,5.805 -0.943,-0.977 v 0 c -1.407,0.935 -2.89,1.676 -4.448,2.225 -2.798,0.99 -5.804,1.361 -9.026,1.091 -2.701,-0.186 -5.283,-0.881 -7.735,-2.089 -2.454,-1.191 -4.702,-2.847 -6.739,-4.956 -2.08,-2.153 -3.639,-4.585 -4.692,-7.296 -1.054,-2.711 -1.54,-5.596 -1.465,-8.658 0.071,-2.894 0.647,-5.594 1.737,-8.094 0.551,-1.273 1.23,-2.482 2.041,-3.628 v 0 z m 9.63,22.728 c 1.242,1.287 2.61,2.299 4.099,3.032 1.49,0.741 3.055,1.173 4.69,1.299 1.95,0.178 3.768,-0.032 5.455,-0.619 0.405,-0.141 0.802,-0.302 1.19,-0.485 v 0 l -17.884,-18.519 v 0 c -0.118,0.235 -0.23,0.473 -0.333,0.717 -0.648,1.508 -0.984,3.141 -1.015,4.891 -0.031,1.854 0.276,3.602 0.927,5.248 0.648,1.645 1.603,3.123 2.871,4.436 z m 3.559,-21.098 17.857,18.489 v 0 c 0.171,-0.335 0.325,-0.679 0.464,-1.029 0.659,-1.662 0.963,-3.475 0.9,-5.441 -0.056,-1.668 -0.419,-3.26 -1.1,-4.764 -0.676,-1.512 -1.657,-2.931 -2.937,-4.257 -1.294,-1.339 -2.734,-2.357 -4.321,-3.064 -1.589,-0.705 -3.3,-1.073 -5.136,-1.105 -1.785,-0.033 -3.449,0.251 -4.987,0.853 -0.249,0.098 -0.495,0.204 -0.74,0.318 z"
     id="path12" /><polygon
     style="fill:#ffffff"
     points="337.823,392.801 307.864,361.777 313.876,355.972 325.152,367.649 336.336,356.849 325.059,345.173 331.071,339.367 361.03,370.391 355.018,376.196 341.838,362.548 330.654,373.348 343.835,386.995 "
     id="polygon14" /></g>
</svg>
