<svg height="1000" viewBox="0 0 1000 1000" width="1000" xmlns="http://www.w3.org/2000/svg"><g transform="matrix(1.6190433 0 0 1.6190433 12.000027 19.833852)"><path d="M 301.338 580.771 C 258.246 557.622 221.9 533.132 188.612 505.285 C 145.664 469.354 110.585 426.704 83.444 379.37 C 56.305 332.037 37.103 280.021 25.913 225.363 C 17.335 183.459 12.698 141.559 10.056 99.739 C 8.243 71.096 7.797 41.153 8.132 12.377 c 96.1 63.937 185.069 67.715 293.194 3.135 c 108.126 64.581 197.267 60.802 293.367 -3.135 c .335 28.776 -.11 58.719 -1.923 87.362 c -2.643 41.819 -7.28 83.72 -15.859 125.624 c -11.19 54.658 -30.391 106.673 -57.53 154.007 c -27.141 47.334 -62.22 89.984 -105.168 125.915 c -33.287 27.847 -69.783 52.337 -112.875 75.486 z" fill="#ee3124"/><path d="M 301.326 567.827 C 404.875 512.249 475.448 441.6 519.619 354.44 C 565.193 264.515 583.433 157.396 583.152 32.297 C 490.805 89.889 398.079 87.003 301.327 28.786 v 0 z" fill="#009e4d"/><path d="m 323.872 102.131 l 1.368 1.392 v 0 c 1.391 1.41 2.813 2.744 4.265 4.005 c 1.875 1.7 3.8 3.217 5.758 4.543 c 2.358 1.682 4.717 2.958 7.075 3.83 c 2.091 .797 3.822 1.071 5.191 .812 c 1.885 -.315 2.792 -1.352 2.74 -3.11 c .051 -1.67 -.844 -3.182 -2.689 -4.531 c -1.503 -1.085 -3.8 -2.61 -6.889 -4.6 c -5.501 -3.498 -9.744 -6.896 -12.752 -10.179 c -4.046 -4.344 -6.076 -9.332 -6.076 -14.963 c 0 -2.666 .494 -4.892 1.495 -6.676 c 1.224 -2.305 3.151 -3.841 5.746 -4.638 c 4.191 -1.395 9.527 -.886 16.016 1.542 c 6.437 2.504 11.832 5.914 16.179 10.211 v 0 l 2.091 2.19 v 14.606 l -3.224 -2.931 v 0 c -4.449 -3.851 -9.166 -6.763 -14.162 -8.716 c -5.768 -2.152 -8.621 -1.819 -8.568 .992 c -.053 1.265 1.544 3.042 4.788 5.343 v 0 l 6.993 4.708 v 0 c 5.933 3.972 9.908 7.238 11.917 9.791 c 3.111 3.978 4.675 8.46 4.707 13.457 c 0 3.844 -1.061 6.917 -3.182 9.2 c -2.173 2.369 -5.118 3.505 -8.847 3.417 c -3.11 -.057 -6.427 -.761 -9.939 -2.13 c -2.822 -1.048 -5.614 -2.441 -8.373 -4.18 c -3.431 -2.082 -6.54 -4.495 -9.331 -7.222 v 0 l -2.296 -2.305 v -13.858 z m 78.594 -15.362 c 3.739 .622 7.094 1.384 10.07 2.277 c 9.651 2.969 14.521 9.491 14.61 19.571 c -.057 6.957 -2.381 12.297 -6.962 16.008 c -2.645 2.177 -5.579 3.349 -8.775 3.523 c -2.159 .113 -5.689 -.233 -10.592 -1.049 v 0 l -10.458 -1.741 v 17.359 l -16.734 -2.786 V 81.966 Z m -12.107 26.289 l 8.775 1.462 l 4.061 .56 v 0 c 2.303 .258 4.096 -.274 5.356 -1.62 c 1.272 -1.333 1.894 -2.969 1.86 -4.916 c .034 -3.869 -2.214 -6.407 -6.74 -7.606 c -1.361 -.351 -2.866 -.671 -4.538 -.948 v 0 l -8.775 -1.462 v 14.53 z m 42.056 5.776 c 0 -10.048 2.44 -17.516 7.332 -22.409 c 2.88 -2.946 6.569 -5.108 11.079 -6.519 c 3.801 -1.202 7.861 -1.939 12.169 -2.196 c 4.251 -.256 8.288 -.005 12.123 .741 c 4.455 .893 8.132 2.625 11.034 5.194 c 4.892 4.363 7.344 11.51 7.378 21.449 c 0 5.381 -.811 10.452 -2.418 15.196 c -1.789 5.343 -5.174 9.69 -10.144 13.032 c -4.341 2.896 -10.032 4.551 -17.096 4.946 c -5.51 .359 -10.223 .042 -14.147 -.929 c -3.511 -.815 -6.592 -2.505 -9.244 -5.05 c -2.656 -2.546 -4.534 -5.419 -5.646 -8.626 c -1.644 -4.548 -2.453 -9.496 -2.42 -14.829 z m 17.005 .863 c 0 5.711 1.101 9.78 3.295 12.198 c 2.193 2.429 5.623 3.499 10.28 3.22 c 5.207 -.342 8.929 -2.295 11.156 -5.875 c 1.553 -2.46 2.34 -6.256 2.374 -11.389 c .032 -2.6 -.281 -5.044 -.922 -7.343 c -1.519 -5.542 -5.736 -8.14 -12.654 -7.772 c -8.984 .615 -13.495 6.265 -13.529 16.961 z m 81.896 -45.781 c 4.849 -1.631 8.519 -2.438 11.027 -2.417 c 3.815 .031 6.408 1.472 7.798 4.313 c .898 1.901 1.359 4.118 1.391 6.649 c -.032 4.261 -1.181 8.282 -3.472 12.07 c -2.529 4.198 -5.948 7.313 -10.254 9.367 v 0 l -3.47 1.539 l 19.358 18.694 l -19.725 6.83 l -15.481 -18.571 v 23.93 l -15.805 5.471 V 83.828 Z m -12.827 18.216 v 11.505 l 8.739 -3.024 v 0 c 2.864 -.992 4.85 -2.047 5.969 -3.159 c 1.662 -1.656 2.496 -3.617 2.529 -5.899 c -.104 -3.558 -2.707 -4.453 -7.798 -2.69 v 0 z" fill="#fff"/><path d="M 301.327 567.827 C 197.778 512.249 127.206 441.6 83.035 354.44 C 37.461 264.515 19.22 157.396 19.503 32.297 c 92.346 57.592 185.07 54.706 281.823 -3.511 v 0 z"/><path d="m 227.506 224.302 c -16.237 10.887 -33.242 38.167 -30.978 57.492 c 5.068 43.31 31.212 70.794 69.568 94.829 v 0 l 2.287 39.577 v 0 c -7.984 -.279 -33.065 1.08 -41.215 5.533 c 11.571 .357 22.748 -2.038 34.567 -2.152 c -9.226 1.4 -19.884 5.896 -25.755 10.836 c 17.009 -4.878 25.419 -7.439 42.54 -10.684 v 0 l 11.377 .405 v 0 c -12.569 2.766 -27.524 6.887 -33.347 12.47 c 13.085 -3.391 30.646 -9.102 39.406 -9.996 c -6.773 2.061 -23.026 7.294 -28.016 15.329 c 15.985 -8.074 34.396 -12.534 40.932 -14.302 c 2.847 .005 13.708 .281 21.859 .354 c -4.531 -3.185 -23.17 -5.222 -28.569 -5.809 v 0 l -.473 -18.136 v 0 c 1.464 -4.405 3.138 -18.656 5.628 -22.682 c 6.835 -11.049 16.743 -13.508 25.395 -13.888 c 19.034 -.836 34.818 18.384 33.806 47.418 c 32.268 -8.346 45.722 -53.995 46.877 -87.113 c .683 -19.516 -8.524 -42.207 -31.562 -53.754 c -19.275 -9.66 -47.495 -12.818 -65.457 2.386 c -11.263 9.535 -19.379 26.055 -16.358 48.548 c -26.303 -22.639 -28.798 -93.915 7.628 -106.852 v 0 l 15.471 4.709 v 0 c 4.157 -4.592 8.481 -13.916 .826 -23.655 v 0 l 11.811 5.149 v 0 c .663 -18.925 -7.157 -23.935 -19.133 -24.353 v 0 l 8.149 -4.453 v 0 c -7.655 -9.741 -27.616 -10.437 -31.938 -1.115 c 0 0 -4.323 9.322 -8.151 4.453 v 0 l -11.644 -9.881 l 3.494 14.333 l -11.645 -9.881 v 0 c 7.49 14.473 -.661 18.925 -4.654 18.786 c -7.982 -.279 -16.135 4.174 -16.465 13.637 c -.33 9.461 11.482 14.61 19.796 5.427 c -.379 10.883 -27.332 11.184 -36.057 17.035 z m 66.318 175.76 l 1.352 18.375 l -20.376 -3.111 l 1.658 -34.028 v 0 c 13.39 3.578 11.168 11.799 17.366 18.764 z" fill="#fff"/><path d="m 250.742 515.638 h -9.368 v -32.384 v 0 c -3.082 1.7 -6.163 2.696 -9.246 3.591 v 0 v -7.815 v 0 c 4.057 -1.295 9.593 -7.268 11.014 -11.125 v 0 h 7.6 z m 13.266 -10.99 l 9.079 -.971 v 0 c .222 1.793 .803 3.121 1.734 3.984 c .929 .863 2.168 1.295 3.706 1.295 c 1.93 0 3.582 -.86 4.937 -2.591 c 1.353 -1.731 2.219 -5.32 2.596 -10.767 c -2.358 2.657 -5.304 3.986 -8.839 3.986 c -3.843 0 -7.165 -1.437 -9.958 -4.327 c -2.793 -2.887 -4.185 -6.641 -4.185 -11.273 c 0 -4.814 1.465 -8.704 4.416 -11.655 c 2.95 -2.95 6.703 -4.425 11.264 -4.425 c 4.962 0 9.03 1.866 12.212 5.595 c 3.18 3.725 4.766 9.862 4.766 18.405 c 0 8.684 -1.658 14.958 -4.97 18.804 c -3.315 3.85 -7.627 5.777 -12.946 5.777 c -3.818 0 -6.908 -.998 -9.266 -2.972 c -2.365 -1.978 -3.878 -4.93 -4.546 -8.865 z m 21.222 -19.915 c 0 -2.938 -.698 -5.225 -2.083 -6.842 c -1.39 -1.62 -2.997 -2.431 -4.826 -2.431 c -1.733 0 -3.178 .663 -4.32 1.992 c -1.146 1.335 -1.717 3.512 -1.717 6.532 c 0 3.073 .624 5.33 1.871 6.767 c 1.247 1.436 2.799 2.159 4.671 2.159 c 1.802 0 3.318 -.694 4.551 -2.077 c 1.235 -1.381 1.853 -3.419 1.853 -6.1 z m 49.281 -4.99 l -9.079 .972 v 0 c -.222 -1.819 -.803 -3.155 -1.734 -4.018 c -.931 -.872 -2.142 -1.304 -3.639 -1.304 c -1.98 0 -3.653 .871 -5.02 2.599 c -1.367 1.726 -2.229 5.328 -2.58 10.799 c 2.332 -2.681 5.235 -4.025 8.703 -4.025 c 3.912 0 7.266 1.452 10.06 4.35 c 2.793 2.896 4.186 6.632 4.186 11.214 c 0 4.865 -1.469 8.768 -4.408 11.706 c -2.929 2.948 -6.703 4.416 -11.307 4.416 c -4.937 0 -8.993 -1.866 -12.177 -5.595 c -3.178 -3.725 -4.767 -9.845 -4.767 -18.337 c 0 -8.716 1.658 -14.993 4.971 -18.844 c 3.313 -3.844 7.618 -5.77 12.911 -5.77 c 3.707 0 6.79 1.013 9.224 3.031 c 2.434 2.024 3.981 4.953 4.656 8.806 z m -21.257 19.875 c 0 2.962 .702 5.246 2.102 6.855 c 1.399 1.61 3.004 2.417 4.807 2.417 c 1.734 0 3.177 -.657 4.339 -1.977 c 1.153 -1.321 1.734 -3.479 1.734 -6.484 c 0 -3.088 -.625 -5.355 -1.872 -6.79 c -1.247 -1.445 -2.801 -2.16 -4.671 -2.16 c -1.802 0 -3.322 .689 -4.569 2.06 c -1.247 1.372 -1.87 3.397 -1.87 6.079 z m 61.138 -19.875 l -9.079 .972 v 0 c -.221 -1.819 -.804 -3.154 -1.732 -4.018 c -.935 -.87 -2.145 -1.304 -3.639 -1.304 c -1.982 0 -3.656 .872 -5.022 2.599 c -1.367 1.726 -2.228 5.328 -2.579 10.799 c 2.332 -2.681 5.235 -4.025 8.702 -4.025 c 3.912 0 7.268 1.452 10.06 4.35 c 2.793 2.896 4.185 6.632 4.185 11.214 c 0 4.865 -1.473 8.762 -4.406 11.706 c -2.934 2.942 -6.705 4.416 -11.307 4.416 c -4.936 0 -8.995 -1.865 -12.179 -5.595 c -3.179 -3.725 -4.764 -9.845 -4.764 -18.337 c 0 -8.716 1.654 -14.994 4.97 -18.844 c 3.312 -3.846 7.616 -5.77 12.913 -5.77 c 3.706 0 6.791 1.011 9.221 3.031 c 2.436 2.021 3.981 4.953 4.656 8.806 z m -21.256 19.875 c 0 2.962 .7 5.246 2.101 6.855 c 1.4 1.61 3.007 2.417 4.807 2.417 c 1.734 0 3.179 -.656 4.339 -1.977 c 1.155 -1.318 1.734 -3.479 1.734 -6.484 c 0 -3.088 -.626 -5.353 -1.871 -6.79 c -1.25 -1.443 -2.801 -2.16 -4.671 -2.16 c -1.803 0 -3.324 .689 -4.57 2.06 c -1.244 1.372 -1.869 3.397 -1.869 6.079 z" fill="#fff"/><path d="M 178.582 79.484 L 191.7 77.999 v 10.694 l -13.118 1.283 z M 56.433 71.682 c 2.095 .945 4.144 2.071 6.15 3.372 c 6.728 4.394 11.159 10.727 13.295 19.012 c 1.131 4.411 1.693 8.867 1.693 13.369 c 0 4.655 -.497 8.932 -1.5 12.828 c -1.366 5.343 -3.734 8.921 -7.121 10.718 c -2.932 1.549 -7.258 1.027 -12.983 -1.553 v 0 l -18.88 -8.51 V 62.962 Z m -7.21 10.525 v 31.884 l 5.773 2.603 v 0 c 2.167 1.006 3.797 1.413 4.889 1.217 c 1.277 -.178 2.4 -1.11 3.388 -2.809 c 1.396 -2.442 2.12 -6.029 2.16 -10.763 c .064 -9.899 -3.059 -16.253 -9.377 -19.053 v 0 z m 70.334 9.7 v 13.776 L 97.148 99.91 v 7.997 l 22.409 5.771 v 13.774 l -22.409 -5.77 v 8.634 l 22.409 5.771 v 13.774 L 84.394 140.805 V 82.852 Z m 25.08 2.527 l 12.468 35.469 v -34.74 l 13.075 -.018 v 58.347 l -16.551 -.968 l -14.967 -40.042 v 39.167 l -13.074 -.764 V 92.538 Z m 47.015 -1.129 v 57.954 l -13.043 1.272 V 94.578 Z m 47.101 -10.677 v 16.189 l -23.328 35.478 l 23.328 -6.008 v 12.297 l -38.918 10.024 v -12.23 l 25.173 -38.435 l -25.173 6.482 V 92.652 Z m 19.55 -7.974 v 44.181 l 16.525 -5.529 v 13.774 l -28.826 10.525 V 79.649 Z M 292.95 60.997 v 57.955 l -11.766 4.827 V 65.825 Z m -11.829 -10.349 l 11.964 -5.26 v 10.494 l -11.964 5.258 z" fill="#fff"/></g></svg>