<?xml version="1.0" encoding="UTF-8" standalone="no"?>
<svg
   xmlns:dc="http://purl.org/dc/elements/1.1/"
   xmlns:cc="http://creativecommons.org/ns#"
   xmlns:rdf="http://www.w3.org/1999/02/22-rdf-syntax-ns#"
   xmlns:svg="http://www.w3.org/2000/svg"
   xmlns="http://www.w3.org/2000/svg"
   xmlns:sodipodi="http://sodipodi.sourceforge.net/DTD/sodipodi-0.dtd"
   xmlns:inkscape="http://www.inkscape.org/namespaces/inkscape"
   height="1000"
   viewBox="0 0 1000 1000"
   width="1000"
   version="1.1"
   id="svg122"
   sodipodi:docname="Göztepe S.K..svg"
   inkscape:version="1.0.1 (3bc2e813f5, 2020-09-07)">
  <metadata
     id="metadata128">
    <rdf:RDF>
      <cc:Work
         rdf:about="">
        <dc:format>image/svg+xml</dc:format>
        <dc:type
           rdf:resource="http://purl.org/dc/dcmitype/StillImage" />
        <dc:title></dc:title>
      </cc:Work>
    </rdf:RDF>
  </metadata>
  <defs
     id="defs126" />
  <sodipodi:namedview
     pagecolor="#ffffff"
     bordercolor="#666666"
     borderopacity="1"
     objecttolerance="10"
     gridtolerance="10"
     guidetolerance="10"
     inkscape:pageopacity="0"
     inkscape:pageshadow="2"
     inkscape:window-width="1920"
     inkscape:window-height="1017"
     id="namedview124"
     showgrid="false"
     inkscape:zoom="0.84551802"
     inkscape:cx="500"
     inkscape:cy="500"
     inkscape:window-x="-8"
     inkscape:window-y="-8"
     inkscape:window-maximized="1"
     inkscape:current-layer="svg122" />
  <g
     transform="matrix(4.0356638,0,0,4.0356638,-733.71049,-1101.7509)"
     id="g120">
    <g
       id="g118">
      <path
         clip-rule="evenodd"
         d="m 423.215,320.95 c 0,0 3.352,-5.79 -18.283,-8.227 0,0 -2.133,-9.751 -16.15,-10.056 0,0 -5.947,-0.595 -7.56,-4.723 L 378.492,297 H 233.329 l -2.551,0.631 c -3.043,0.901 -3.421,4.562 -8.156,5.035 -14.017,0.305 -16.15,10.056 -16.15,10.056 -21.635,2.438 -18.283,8.227 -18.283,8.227 v 28.949 c 0,0 6.704,0 19.502,0 12.798,0 13.103,-3.657 13.103,-3.657 7.313,1.828 9.446,6.704 9.446,6.704 l 0.248,-0.172 c -0.053,18.169 -0.106,36.332 -0.159,53.94 3.861,34.747 17.374,61.451 75.285,90.085 45.364,-25.417 69.494,-40.538 75.607,-92.015 v -51.959 c 0.385,-0.762 2.757,-4.925 9.388,-6.583 0,0 0.305,3.657 13.103,3.657 12.798,0 19.502,0 19.502,0 V 320.95 Z"
         fill="#e7272a"
         fill-rule="evenodd"
         id="path2" />
      <path
         clip-rule="evenodd"
         d="m 305.55,494.236 c 10.72,-6.006 21.611,-12.128 31.723,-19.093 8.528,-5.874 16.546,-12.464 23.054,-20.571 11.674,-14.543 16.447,-31.68 18.626,-49.922 0,-35.128 0,-70.256 0,-105.384 -48.681,0.208 -97.361,0.416 -146.042,0.624 -0.107,35.568 -0.207,71.135 -0.315,106.702 0.85,7.6 2.21,15.143 4.567,22.429 4.235,13.089 11.241,23.812 21.001,33.467 13.297,13.152 30.695,23.428 47.386,31.748 z"
         fill="#f9c421"
         fill-rule="evenodd"
         id="path4" />
      <path
         clip-rule="evenodd"
         d="m 199.767,347.156 9.751,-0.609 c 0,0 4.876,-1.219 0.305,-3.352 -4.571,-2.133 -3.657,-5.79 -3.657,-5.79 l 0.305,-21.635 2.133,-0.305 -0.609,20.112 c 0,0 0.305,6.399 4.876,6.094 4.571,-0.305 4.571,3.657 4.571,3.657 0,0 0.305,2.133 -6.399,3.047 -6.704,0.914 -11.885,0.609 -11.276,-1.219 z"
         fill="#f9c421"
         fill-rule="evenodd"
         id="path6" />
      <path
         clip-rule="evenodd"
         d="m 211.347,336.491 c 0,0 8.837,-4.266 17.065,2.438 v -33.52 h 1.828 v 42.052 c 0,0 -5.79,-5.485 -10.361,-4.266 0,-10e-4 -1.524,-4.267 -8.532,-6.704 z"
         fill="#f9c421"
         fill-rule="evenodd"
         id="path8" />
      <path
         d="m 201.207,321.509 v 18.972 l -4.732,1.754 v -10.172 c 0,-1.468 -0.036,-2.339 -0.108,-2.608 -0.068,-0.271 -0.264,-0.422 -0.58,-0.461 -0.316,-0.035 -1.02,0.15 -2.116,0.556 l -0.468,0.174 v -2.212 c 2.288,-1.34 4.028,-2.997 5.216,-4.969 z"
         fill="#f9c421"
         id="path10" />
      <path
         d="m 213.712,327.141 4.736,-1.755 c 0,0.884 0.008,1.437 0.032,1.66 0.024,0.219 0.12,0.38 0.288,0.473 0.168,0.094 0.396,0.085 0.684,-0.021 0.244,-0.09 0.444,-0.237 0.6,-0.443 0.156,-0.206 0.244,-0.43 0.264,-0.674 0.02,-0.239 0.028,-0.718 0.028,-1.426 v -3.024 c -0.232,0.594 -0.584,1.104 -1.056,1.531 -0.468,0.429 -1.048,0.773 -1.744,1.03 -0.868,0.322 -1.632,0.369 -2.296,0.147 -0.664,-0.222 -1.088,-0.628 -1.268,-1.218 -0.18,-0.589 -0.268,-1.445 -0.268,-2.561 v -1.512 c 0,-1.328 0.052,-2.335 0.156,-3.022 0.108,-0.688 0.38,-1.389 0.816,-2.102 0.436,-0.714 1.044,-1.367 1.816,-1.957 0.776,-0.591 1.672,-1.075 2.696,-1.455 1.264,-0.469 2.304,-0.678 3.116,-0.627 0.812,0.051 1.444,0.321 1.888,0.816 0.444,0.496 0.704,1.095 0.772,1.794 0.072,0.701 0.108,2.092 0.108,4.18 v 2.636 c 0,2.26 -0.032,3.779 -0.096,4.563 -0.06,0.786 -0.332,1.607 -0.812,2.465 -0.48,0.858 -1.132,1.608 -1.952,2.251 -0.82,0.644 -1.768,1.167 -2.848,1.567 -1.336,0.495 -2.428,0.684 -3.276,0.571 -0.848,-0.118 -1.456,-0.497 -1.828,-1.139 -0.371,-0.644 -0.556,-1.56 -0.556,-2.748 z m 4.737,-7.671 c 0,0.796 0.1,1.251 0.308,1.362 0.208,0.111 0.42,0.124 0.64,0.043 0.328,-0.122 0.568,-0.33 0.72,-0.623 0.152,-0.296 0.228,-0.788 0.228,-1.484 v -3.436 c 0,-0.836 -0.072,-1.353 -0.216,-1.56 -0.144,-0.203 -0.384,-0.245 -0.72,-0.121 -0.204,0.076 -0.416,0.254 -0.632,0.534 -0.22,0.281 -0.328,0.857 -0.328,1.734 z"
         fill="#f9c421"
         id="path12" />
      <path
         clip-rule="evenodd"
         d="m 400.056,336.491 c 0,0 -8.837,-4.266 -17.065,2.438 v -33.52 h -1.828 v 42.052 c 0,0 5.79,-5.485 10.361,-4.266 0,-10e-4 1.523,-4.267 8.532,-6.704 z"
         fill="#f9c421"
         fill-rule="evenodd"
         id="path14" />
      <path
         d="m 398.725,328.009 v 3.236 l -10.42,-3.932 v -2.708 c 3.088,-3.879 4.92,-6.312 5.504,-7.291 0.58,-0.981 0.872,-1.807 0.872,-2.479 0,-0.516 -0.088,-0.933 -0.264,-1.251 -0.176,-0.322 -0.444,-0.551 -0.804,-0.687 -0.356,-0.134 -0.624,-0.091 -0.8,0.122 -0.176,0.213 -0.264,0.74 -0.264,1.576 v 1.804 l -4.244,-1.601 v -0.692 c 0,-1.06 0.056,-1.879 0.164,-2.45 0.112,-0.569 0.38,-1.073 0.808,-1.507 0.432,-0.429 0.988,-0.671 1.676,-0.716 0.688,-0.044 1.512,0.115 2.472,0.477 1.884,0.711 3.308,1.716 4.272,3.012 0.968,1.301 1.448,2.662 1.448,4.09 0,1.088 -0.272,2.133 -0.812,3.142 -0.544,1.003 -2.144,2.971 -4.8,5.897 z"
         fill="#f9c421"
         id="path16" />
      <path
         d="m 420.043,325.084 v 3.036 l -5.872,-2.216 v 3.22 c 0.736,-0.59 1.68,-0.666 2.836,-0.23 1.304,0.492 2.292,1.229 2.96,2.213 0.668,0.984 1,2.513 1,4.589 v 2.708 c 0,1.344 -0.064,2.308 -0.192,2.888 -0.128,0.58 -0.404,1.056 -0.828,1.432 -0.42,0.378 -1.008,0.568 -1.76,0.568 -0.756,-10e-4 -1.676,-0.204 -2.76,-0.613 -1.22,-0.46 -2.296,-1.078 -3.224,-1.856 -0.928,-0.774 -1.588,-1.659 -1.98,-2.651 -0.392,-0.992 -0.588,-2.37 -0.588,-4.134 v -1.032 l 4.736,1.787 v 1.184 c 0,1.224 0.044,2.113 0.128,2.661 0.088,0.549 0.384,0.917 0.892,1.108 0.232,0.088 0.424,0.088 0.568,-0.006 0.144,-0.094 0.224,-0.224 0.236,-0.391 0.008,-0.169 0.024,-0.911 0.04,-2.225 v -3.76 c 0,-0.712 -0.076,-1.224 -0.224,-1.541 -0.148,-0.312 -0.396,-0.533 -0.736,-0.662 -0.22,-0.083 -0.404,-0.088 -0.552,-0.012 -0.148,0.08 -0.244,0.184 -0.288,0.319 -0.044,0.136 -0.064,0.484 -0.064,1.036 l -4.688,-1.769 0.2,-9.484 z"
         fill="#f9c421"
         id="path18" />
      <path
         clip-rule="evenodd"
         d="m 411.636,347.156 -9.751,-0.609 c 0,0 -4.876,-1.219 -0.305,-3.352 4.571,-2.133 3.657,-5.79 3.657,-5.79 l -0.305,-21.635 -2.133,-0.305 0.609,20.112 c 0,0 -0.305,6.399 -4.876,6.094 -4.571,-0.305 -4.571,3.657 -4.571,3.657 0,0 -0.305,2.133 6.399,3.047 6.704,0.914 11.885,0.609 11.276,-1.219 z"
         fill="#f9c421"
         fill-rule="evenodd"
         id="path20" />
      <path
         clip-rule="evenodd"
         d="m 376.029,301.877 v 31.696 H 235.243 v -31.696 z"
         fill="#e7272a"
         fill-rule="evenodd"
         id="path22" />
      <path
         clip-rule="evenodd"
         d="m 376.029,404.925 v -69.011 h -69.147 v 69.011 z"
         fill="#e7272a"
         fill-rule="evenodd"
         id="path24" />
      <path
         clip-rule="evenodd"
         d="m 374.006,402.769 v -64.698 h -65.101 v 64.698 z"
         fill="#ffcb05"
         fill-rule="evenodd"
         id="path26" />
      <path
         clip-rule="evenodd"
         d="m 304.78,404.925 v -69.011 h -69.874 v 69.011 z"
         fill="#e7272a"
         fill-rule="evenodd"
         id="path28" />
      <path
         clip-rule="evenodd"
         d="m 248.711,349.097 v -11.026 h -11.644 v 11.026 z"
         fill="#f9c421"
         fill-rule="evenodd"
         id="path30" />
      <path
         clip-rule="evenodd"
         d="m 284.676,349.097 v -11.026 h -11.644 v 11.026 z"
         fill="#f9c421"
         fill-rule="evenodd"
         id="path32" />
      <path
         clip-rule="evenodd"
         d="m 266.968,367.025 v -11.027 h -11.644 v 11.027 z"
         fill="#f9c421"
         fill-rule="evenodd"
         id="path34" />
      <path
         clip-rule="evenodd"
         d="m 302.713,367.025 v -11.027 h -11.644 v 11.027 z"
         fill="#f9c421"
         fill-rule="evenodd"
         id="path36" />
      <path
         clip-rule="evenodd"
         d="M 248.711,385.14 V 374.113 H 237.067 V 385.14 Z"
         fill="#f9c421"
         fill-rule="evenodd"
         id="path38" />
      <path
         clip-rule="evenodd"
         d="M 284.676,385.14 V 374.113 H 273.032 V 385.14 Z"
         fill="#f9c421"
         fill-rule="evenodd"
         id="path40" />
      <path
         clip-rule="evenodd"
         d="m 266.968,403.067 v -11.026 h -11.644 v 11.026 z"
         fill="#f9c421"
         fill-rule="evenodd"
         id="path42" />
      <path
         clip-rule="evenodd"
         d="m 253.144,335.935 v 68.782 h -1.8 v -68.782 z"
         fill="#f9c421"
         fill-rule="evenodd"
         id="path44" />
      <path
         clip-rule="evenodd"
         d="m 270.844,335.935 v 68.782 h -1.8 v -68.782 z"
         fill="#f9c421"
         fill-rule="evenodd"
         id="path46" />
      <path
         clip-rule="evenodd"
         d="m 288.543,335.935 v 68.782 h -1.8 v -68.782 z"
         fill="#f9c421"
         fill-rule="evenodd"
         id="path48" />
      <path
         clip-rule="evenodd"
         d="m 234.803,351.555 h 70.068 v 1.8 h -70.068 z"
         fill="#f9c421"
         fill-rule="evenodd"
         id="path50" />
      <path
         clip-rule="evenodd"
         d="m 234.803,369.426 h 70.068 v 1.8 h -70.068 z"
         fill="#f9c421"
         fill-rule="evenodd"
         id="path52" />
      <path
         clip-rule="evenodd"
         d="m 234.803,387.297 h 70.068 v 1.8 h -70.068 z"
         fill="#f9c421"
         fill-rule="evenodd"
         id="path54" />
      <path
         clip-rule="evenodd"
         d="m 306.882,491.009 c 38.028,-19.027 66.624,-43.635 69.147,-83.675 -23.049,0 -46.098,0 -69.147,0 0,27.892 0,55.784 0,83.675 z"
         fill="#e7272a"
         fill-rule="evenodd"
         id="path56" />
      <path
         clip-rule="evenodd"
         d="m 304.438,491.009 c -38.028,-19.027 -66.624,-43.635 -69.147,-83.675 23.049,0 46.098,0 69.147,0 0,27.892 0,55.784 0,83.675 z"
         fill="#e7272a"
         fill-rule="evenodd"
         id="path58" />
      <path
         clip-rule="evenodd"
         d="m 302.454,487.779 c 0,-26.153 0,-52.307 0,-78.46 -21.675,0 -43.349,0 -65.024,0 3.409,38.76 32.465,61.72 65.024,78.46 z"
         fill="#f9c421"
         fill-rule="evenodd"
         id="path60" />
      <path
         clip-rule="evenodd"
         d="m 271.175,392.377 c 0,0 0.297,-16.487 17.676,-23.023 0,0 5.793,-8.021 19.904,-5.199 0,0 1.337,1.931 3.713,-0.149 2.377,-2.079 9.506,-0.743 10.992,3.119 0,0 -0.594,2.228 2.525,1.931 0,0 6.09,-1.634 9.655,7.427 0,0 11.586,2.08 10.397,21.538 0,0 5.199,8.912 -3.416,16.636 0,0 3.119,7.724 -5.199,10.695 0,0 -2.674,10.1 -10.992,8.466 0,0 -3.862,10.546 -17.23,5.496 0,0 -10.992,5.941 -16.339,-2.971 0,0 -11.734,0.148 -14.556,-11.289 0,0 0.148,-1.931 -1.634,-2.08 -1.782,-0.148 -5.941,-5.496 -5.199,-11.734 0,0 1.337,-2.822 -0.891,-3.268 -2.228,-0.446 -2.674,-10.546 -0.297,-11.734 -10e-4,0 1.336,-2.376 0.891,-3.861 z"
         fill="#e7272a"
         fill-rule="evenodd"
         id="path62" />
      <path
         clip-rule="evenodd"
         d="m 273.403,414.36 c 0,0 -0.743,-3.862 1.485,-4.456 0,0 9.358,-9.358 19.161,-11.734 9.803,-2.376 11.883,2.822 11.883,2.822 0,0 1.337,0.891 -1.188,1.04 -2.525,0.148 -7.872,0.297 -8.318,6.833 0,0 0.743,0.297 -2.377,1.634 -3.119,1.337 -8.466,2.971 -13.962,8.912 0,0 -1.04,2.674 -3.268,1.337 -2.228,-1.338 -3.416,-6.388 -3.416,-6.388 z"
         fill="#f9c421"
         fill-rule="evenodd"
         id="path64" />
      <path
         clip-rule="evenodd"
         d="m 271.472,398.169 c 0,0 -0.149,-2.525 1.634,-2.971 1.782,-0.446 0.149,-2.377 16.636,-6.238 0,0 2.674,-1.337 3.565,0.891 0,0 3.416,3.862 0.594,4.902 0,0 -14.111,3.565 -19.31,10.843 0,0 -2.525,1.782 -3.268,-0.594 0,0 -1.04,-5.347 0.149,-6.833 z"
         fill="#f9c421"
         fill-rule="evenodd"
         id="path66" />
      <path
         clip-rule="evenodd"
         d="m 275.779,389.851 c 0,0 -2.079,0.743 -2.079,-0.743 0,-1.486 2.822,-11.586 11.289,-15.596 0,0 2.377,-2.674 1.931,1.337 0,0 -2.822,7.13 -2.525,11.734 -10e-4,10e-4 -4.605,1.189 -8.616,3.268 z"
         fill="#f9c421"
         fill-rule="evenodd"
         id="path68" />
      <path
         clip-rule="evenodd"
         d="m 287.811,384.653 c 0,0 1.337,-13.22 5.05,-15.448 3.713,-2.228 7.427,-4.01 13.368,-2.971 0,0 -7.427,8.764 -10.992,18.121 0,10e-4 -5.05,1.486 -7.426,0.298 z"
         fill="#f9c421"
         fill-rule="evenodd"
         id="path70" />
      <path
         clip-rule="evenodd"
         d="m 297.02,388.812 c 0,0 -2.228,-1.931 0.446,-4.605 2.674,-2.674 2.822,-6.833 14.259,-17.082 0,0 2.228,-2.377 4.605,-1.634 0,0 7.13,0.743 4.01,4.605 0,0 -11.586,12.031 -16.19,20.201 0,0 -2.228,3.565 -4.605,1.782 z"
         fill="#f9c421"
         fill-rule="evenodd"
         id="path72" />
      <path
         clip-rule="evenodd"
         d="m 306.378,396.535 c 0,0 -2.525,-2.376 0.149,-4.753 0,0 8.021,-14.259 17.379,-19.904 0,0 1.634,-1.634 3.416,-0.446 0,0 7.278,2.525 4.605,6.239 0,0 -14.854,17.379 -18.567,19.607 -0.001,0 -2.081,3.416 -6.982,-0.743 z"
         fill="#f9c421"
         fill-rule="evenodd"
         id="path74" />
      <path
         clip-rule="evenodd"
         d="m 316.924,401.734 c 0,0 -1.931,-1.04 -0.446,-2.674 1.485,-1.634 4.01,-4.456 5.941,-2.971 1.931,1.485 15.151,16.042 18.567,19.161 0,0 1.782,6.536 -3.119,8.021 l -10.992,-11.883 c 0,0 -1.485,-0.594 -0.891,-2.228 0.594,-1.634 -2.525,-5.793 -4.159,-5.644 -1.634,0.149 -5.199,-0.594 -4.901,-1.782 z"
         fill="#f9c421"
         fill-rule="evenodd"
         id="path76" />
      <path
         clip-rule="evenodd"
         d="m 324.796,395.347 c 0,0 -2.674,-1.634 -0.891,-4.011 1.782,-2.376 3.119,-5.199 6.684,-3.119 3.565,2.079 12.626,10.397 12.626,10.397 0,0 2.377,1.485 1.634,4.01 -0.743,2.525 0.743,10.992 -3.119,10.249 -0.001,0.001 -5.497,-7.277 -16.934,-17.526 z"
         fill="#f9c421"
         fill-rule="evenodd"
         id="path78" />
      <path
         clip-rule="evenodd"
         d="m 331.926,385.544 c 0,0 -1.782,-1.04 0,-2.228 1.782,-1.188 2.525,-5.793 5.793,-3.713 3.268,2.079 6.09,8.467 6.09,10.249 0,1.782 0.891,5.644 -1.188,4.308 -2.08,-1.338 -9.061,-8.319 -10.695,-8.616 z"
         fill="#f9c421"
         fill-rule="evenodd"
         id="path80" />
      <path
         clip-rule="evenodd"
         d="m 323.014,422.084 c 0,0 -1.931,-3.862 0.446,-5.199 2.377,-1.337 1.634,-2.674 4.753,0.297 3.119,2.971 7.427,6.684 5.199,10.397 -2.228,3.713 -2.525,4.01 -5.644,3.119 -3.119,-0.891 -4.754,-8.614 -4.754,-8.614 z"
         fill="#f9c421"
         fill-rule="evenodd"
         id="path82" />
      <path
         clip-rule="evenodd"
         d="m 312.17,417.925 c 0,0 -1.337,-0.743 -1.337,3.268 0,4.01 -0.446,12.774 -0.446,12.774 0,0 -0.446,2.822 1.782,3.713 2.228,0.891 12.626,-0.149 11.14,-4.753 -1.486,-4.604 -4.605,-12.328 -4.605,-12.328 0,0 -0.147,-4.308 -6.534,-2.674 z"
         fill="#f9c421"
         fill-rule="evenodd"
         id="path84" />
      <path
         clip-rule="evenodd"
         d="m 307.269,417.628 -0.891,18.121 c 0,0 0.446,2.971 -2.228,3.268 -2.674,0.297 -9.803,-0.445 -8.764,-5.941 1.04,-5.496 4.308,-17.081 8.318,-16.487 0,-10e-4 2.525,0.147 3.565,1.039 z"
         fill="#f9c421"
         fill-rule="evenodd"
         id="path86" />
      <path
         clip-rule="evenodd"
         d="m 282.315,428.619 c 0,0 -4.01,-3.862 -0.297,-6.387 3.713,-2.525 8.912,-9.061 15.151,-9.061 0,0 2.377,1.782 0.891,3.862 -1.485,2.08 -4.605,6.981 -5.347,14.259 0,0 0.446,4.753 -3.862,2.674 -4.308,-2.079 -6.536,-5.347 -6.536,-5.347 z"
         fill="#f9c421"
         fill-rule="evenodd"
         id="path88" />
      <path
         clip-rule="evenodd"
         d="m 300.288,411.24 c 0,0 -3.713,-6.09 3.416,-6.684 0,0 10.546,0.743 13.814,0.743 3.268,0 4.605,2.079 5.05,4.307 1.766,8.833 -24.346,4.312 -22.28,1.634 z"
         fill="#f9c421"
         fill-rule="evenodd"
         id="path90" />
      <path
         clip-rule="evenodd"
         d="m 302.085,406.152 h 0.835 c 0.205,0 0.373,0.168 0.373,0.373 v 4.275 c 0,0.205 -0.168,0.373 -0.373,0.373 h -0.835 c -0.205,0 -0.373,-0.168 -0.373,-0.373 v -4.275 c 0,-0.205 0.168,-0.373 0.373,-0.373 z"
         fill="#e7272a"
         fill-rule="evenodd"
         id="path92" />
      <path
         clip-rule="evenodd"
         d="m 305.448,406.059 h 0.989 c 0.243,0 0.442,0.199 0.442,0.442 v 5.066 c 0,0.243 -0.199,0.442 -0.442,0.442 h -0.989 c -0.243,0 -0.442,-0.199 -0.442,-0.442 v -5.066 c 0,-0.243 0.198,-0.442 0.442,-0.442 z"
         fill="#e7272a"
         fill-rule="evenodd"
         id="path94" />
      <path
         clip-rule="evenodd"
         d="m 308.981,406.802 h 0.989 c 0.243,0 0.442,0.199 0.442,0.442 v 5.066 c 0,0.243 -0.199,0.442 -0.442,0.442 h -0.989 c -0.243,0 -0.442,-0.199 -0.442,-0.442 v -5.066 c 0,-0.242 0.198,-0.442 0.442,-0.442 z"
         fill="#e7272a"
         fill-rule="evenodd"
         id="path96" />
      <path
         clip-rule="evenodd"
         d="m 312.421,406.896 h 0.989 c 0.243,0 0.442,0.199 0.442,0.442 v 5.066 c 0,0.243 -0.199,0.442 -0.442,0.442 h -0.989 c -0.243,0 -0.442,-0.199 -0.442,-0.442 v -5.066 c 0,-0.244 0.199,-0.442 0.442,-0.442 z"
         fill="#e7272a"
         fill-rule="evenodd"
         id="path98" />
      <path
         clip-rule="evenodd"
         d="m 315.954,406.896 h 0.989 c 0.243,0 0.442,0.199 0.442,0.442 v 5.066 c 0,0.243 -0.199,0.442 -0.442,0.442 h -0.989 c -0.243,0 -0.442,-0.199 -0.442,-0.442 v -5.066 c 0,-0.244 0.199,-0.442 0.442,-0.442 z"
         fill="#e7272a"
         fill-rule="evenodd"
         id="path100" />
      <path
         clip-rule="evenodd"
         d="m 319.192,407.453 h 0.835 c 0.205,0 0.373,0.168 0.373,0.373 v 4.275 c 0,0.205 -0.168,0.373 -0.373,0.373 h -0.835 c -0.205,0 -0.373,-0.168 -0.373,-0.373 v -4.275 c 0,-0.205 0.168,-0.373 0.373,-0.373 z"
         fill="#e7272a"
         fill-rule="evenodd"
         id="path102" />
      <path
         clip-rule="evenodd"
         d="m 258.126,319.057 h -8.969 v 3.807 c 0,0 2.897,0 3.865,0 0,1.004 0,3.167 0,4.088 -0.708,0.078 -1.828,0.204 -1.828,0.204 -0.003,10e-4 -1.837,0.09 -1.837,0.09 -1.903,-10e-4 -3.215,-0.427 -3.903,-1.269 -0.486,-0.6 -1.066,-2.069 -1.066,-5.663 0,-3.719 0.52,-5.171 0.958,-5.736 0.601,-0.777 1.809,-1.17 3.594,-1.17 1.313,0 2.31,0.247 2.964,0.734 0.589,0.439 0.873,1.048 0.893,1.914 l 0.018,0.785 h 5.232 v -0.859 c 0,-2.013 -0.845,-3.591 -2.512,-4.69 -1.55,-1.019 -3.731,-1.535 -6.481,-1.535 -1.809,0 -3.33,0.198 -4.651,0.602 -1.354,0.418 -2.43,1.049 -3.201,1.875 -0.757,0.827 -1.303,1.848 -1.625,3.041 -0.31,1.151 -0.461,2.702 -0.461,4.741 0,2.632 0.204,4.568 0.624,5.916 0.435,1.415 1.183,2.531 2.222,3.314 0.794,0.601 1.819,1.052 3.046,1.337 1.192,0.281 2.602,0.418 4.309,0.418 l 3.648,-0.197 5.175,-0.701 -0.018,-0.71 v -10.336 z"
         fill="#f9c421"
         fill-rule="evenodd"
         id="path104" />
      <path
         clip-rule="evenodd"
         d="m 278.651,311.208 c -0.815,-0.619 -1.836,-1.078 -3.119,-1.405 -1.208,-0.307 -2.57,-0.463 -4.048,-0.463 -1.863,-10e-4 -3.495,0.227 -4.853,0.676 -1.413,0.466 -2.529,1.17 -3.317,2.091 -0.618,0.724 -1.055,1.672 -1.3,2.82 -0.231,1.088 -0.348,2.781 -0.348,5.033 0,2.728 0.185,4.624 0.562,5.792 0.4,1.237 1.105,2.237 2.096,2.973 0.835,0.621 1.883,1.094 3.112,1.41 1.209,0.309 2.57,0.468 4.048,0.468 1.829,0 3.444,-0.232 4.799,-0.69 1.433,-0.485 2.561,-1.196 3.351,-2.116 0.599,-0.698 1.036,-1.654 1.299,-2.845 0.245,-1.109 0.37,-2.721 0.37,-4.789 0,-2.788 -0.188,-4.727 -0.575,-5.931 -0.408,-1.27 -1.106,-2.288 -2.077,-3.024 z m -7.206,1.887 c 1.73,0 2.918,0.384 3.532,1.139 0.44,0.542 0.963,1.976 0.963,5.726 0,3.748 -0.526,5.189 -0.966,5.737 -0.612,0.762 -1.799,1.149 -3.529,1.149 -0.969,-10e-4 -1.776,-0.135 -2.398,-0.404 -0.594,-0.254 -1.047,-0.627 -1.385,-1.139 -0.213,-0.321 -0.374,-0.817 -0.48,-1.477 -0.079,-0.502 -0.173,-1.58 -0.173,-3.866 0,-2.693 0.147,-3.831 0.27,-4.313 0.166,-0.65 0.43,-1.152 0.808,-1.536 0.311,-0.315 0.732,-0.554 1.288,-0.731 0.592,-0.189 1.289,-0.285 2.07,-0.285 z m 6.845,-8.776 h -0.76 -3.81 v 4.31 h 4.569 v -4.31 z m -8.869,0 h -0.76 -3.936 v 4.31 h 4.696 z"
         fill="#f9c421"
         fill-rule="evenodd"
         id="path106" />
      <path
         clip-rule="evenodd"
         d="m 313.388,314.155 v 16.885 h -5.959 v -16.885 h -6.125 v -4.304 h 6.125 5.959 6.125 v 4.304 z"
         fill="#f9c421"
         fill-rule="evenodd"
         id="path108" />
      <path
         clip-rule="evenodd"
         d="m 327.294,314.155 v 3.642 h 7.78 v 4.304 h -7.78 v 4.635 h 8.774 v 4.304 h -8.774 -3.973 -1.987 v -21.189 h 1.987 3.973 8.774 v 4.304 z"
         fill="#f9c421"
         fill-rule="evenodd"
         id="path110" />
      <path
         clip-rule="evenodd"
         d="m 290.484,326.571 h 9.661 v 4.304 h -16.72 v -3.642 -0.662 h 0.533 l 9.989,-12.416 h -9.694 v -4.304 h 15.892 v 4.304 h -0.35 l 0.184,0.331 z"
         fill="#f9c421"
         fill-rule="evenodd"
         id="path112" />
      <path
         clip-rule="evenodd"
         d="m 350.801,310.064 c 2.193,0 5.02,2.052 5.297,7.402 -0.828,6.456 -5.463,6.622 -5.463,6.622 -1.876,0.044 -3.753,0.087 -5.628,0.131 0,2.274 0,4.548 0,6.822 -1.932,0 -3.863,0 -5.794,0 0,-7.063 0,-14.127 0,-21.19 4.387,0 9.395,0.213 11.588,0.213 z m -5.676,3.926 c 0,2.097 0,4.194 0,6.291 0,0 6.173,0.828 6.007,-3.145 -0.165,-3.974 -6.007,-3.146 -6.007,-3.146 z"
         fill="#f9c421"
         fill-rule="evenodd"
         id="path114" />
      <path
         clip-rule="evenodd"
         d="m 364.745,314.155 v 3.642 h 7.781 v 4.304 h -7.781 v 4.635 h 8.774 v 4.304 h -8.774 -3.973 -1.986 v -21.189 h 1.986 3.973 8.774 v 4.304 z"
         fill="#f9c421"
         fill-rule="evenodd"
         id="path116" />
    </g>
  </g>
</svg>
