<?xml version="1.0" encoding="UTF-8" standalone="no"?>
<svg
   xmlns:dc="http://purl.org/dc/elements/1.1/"
   xmlns:cc="http://creativecommons.org/ns#"
   xmlns:rdf="http://www.w3.org/1999/02/22-rdf-syntax-ns#"
   xmlns:svg="http://www.w3.org/2000/svg"
   xmlns="http://www.w3.org/2000/svg"
   xmlns:sodipodi="http://sodipodi.sourceforge.net/DTD/sodipodi-0.dtd"
   xmlns:inkscape="http://www.inkscape.org/namespaces/inkscape"
   version="1.1"
   id="Layer_1"
   x="0px"
   y="0px"
   viewBox="0 0 407.63052 407.91667"
   width="1000"
   height="1000"
   xml:space="preserve"
   sodipodi:docname="Matsumoto Yamaga FC.svg"
   inkscape:version="1.0.1 (3bc2e813f5, 2020-09-07)"><metadata
   id="metadata43"><rdf:RDF><cc:Work
       rdf:about=""><dc:format>image/svg+xml</dc:format><dc:type
         rdf:resource="http://purl.org/dc/dcmitype/StillImage" /><dc:title></dc:title></cc:Work></rdf:RDF></metadata><defs
   id="defs41" /><sodipodi:namedview
   pagecolor="#ffffff"
   bordercolor="#666666"
   borderopacity="1"
   objecttolerance="10"
   gridtolerance="10"
   guidetolerance="10"
   inkscape:pageopacity="0"
   inkscape:pageshadow="2"
   inkscape:window-width="1920"
   inkscape:window-height="1017"
   id="namedview39"
   showgrid="false"
   inkscape:zoom="0.845"
   inkscape:cx="500"
   inkscape:cy="500"
   inkscape:window-x="-8"
   inkscape:window-y="-8"
   inkscape:window-maximized="1"
   inkscape:current-layer="Layer_1" />
<style
   type="text/css"
   id="style2">
	.st0{fill:#B3A15B;}
	.st1{fill:#FFFFFF;}
	.st2{fill:#073E21;}
	.st3{fill:#0C8241;}
	.st4{fill:#12411F;}
	.st5{fill:#123F1E;}
</style>
















<g
   id="g885"
   transform="matrix(4.1534924,0,0,4.1534924,-5.8322689,-3.0932611)"><path
     class="st0"
     d="m 99.6,36.1 c -0.1,-1.2 -0.4,-2.4 -0.8,-3.6 v -0.1 c -0.4,-0.9 -0.8,-1.7 -1.3,-2.5 -0.2,-0.4 -0.4,-0.7 -0.6,-1 -0.2,-0.3 -0.4,-0.5 -0.6,-0.7 -0.4,-0.5 -1.1,-0.8 -1.7,-0.8 h -0.2 c -0.7,0 -1.4,0.4 -1.8,1 l -1.1,1.7 c -1.6,2.5 -3.6,4.7 -6,6.5 -1,-1.2 -2.3,-2.1 -3.8,-2.6 -0.8,-0.2 -1.5,-0.4 -2.3,-0.4 -1.2,0 -2.4,0.3 -3.5,0.9 H 75 V 12.1 C 75,11.2 74.5,10.4 73.6,10 73.3,9.9 72.9,9.8 72.6,9.8 72,9.8 71.5,10 71.1,10.4 l -2.3,2 c -0.5,0.4 -1,0.7 -1.6,0.9 -1,0.5 -2.1,0.8 -3.3,0.8 h -0.1 c -1.5,0 -3,-0.5 -4.3,-1.4 C 57.1,11 55.1,8.8 53.7,6.2 L 52.5,4.3 C 52.1,3.6 51.4,3.2 50.6,3.2 H 50.5 C 49.7,3.2 49,3.6 48.6,4.3 L 47.4,6.2 C 46,8.8 44,11 41.6,12.7 c -1.3,0.9 -2.8,1.4 -4.3,1.4 h -0.1 c -1.2,0 -2.3,-0.3 -3.4,-0.8 -0.4,-0.2 -0.7,-0.4 -1.1,-0.6 -0.1,-0.1 -0.2,-0.1 -0.3,-0.2 L 32.3,12.4 30,10.4 C 29.6,10 29,9.8 28.5,9.8 c -0.3,0 -0.7,0.1 -1,0.2 -0.8,0.4 -1.3,1.2 -1.3,2.1 V 34.6 H 25.3 C 24.2,34 23,33.7 21.8,33.7 h -0.1 c -0.8,0 -1.6,0.1 -2.3,0.3 -1.5,0.4 -2.9,1.3 -3.8,2.6 -2.4,-1.8 -4.4,-4 -6,-6.5 L 8.5,28.4 c -0.4,-0.6 -1.1,-1 -1.8,-1 H 6.6 c -0.7,0 -1.3,0.3 -1.8,0.8 -0.2,0.2 -0.4,0.5 -0.6,0.7 -0.7,1.1 -1.4,2.3 -1.9,3.5 v 0.1 C 1.9,33.6 1.6,34.8 1.4,36 1.3,37.1 1.2,38.3 1.2,39.4 v 0.9 c 0.3,2.8 0.8,6.4 2.8,9.3 1.8,2.7 4.3,5 7.2,6.4 0.5,0.2 1,0.4 1.5,0.6 l -0.1,0.2 c -0.1,0.2 -0.3,0.3 -0.4,0.4 -0.3,0.2 -0.6,0.4 -0.9,0.5 -0.3,0.1 -0.7,0.3 -1,0.4 L 10,58.3 H 9.9 l -1.4,0.3 c -0.6,0.1 -1.2,0.5 -1.6,1 -0.2,0.4 -0.4,0.8 -0.4,1.3 0,0.2 0,0.4 0.1,0.6 L 7,62.9 c 0.2,0.8 0.6,1.6 1.2,2.2 0.5,0.5 1,1 1.6,1.3 0.6,0.3 1.2,0.5 1.8,0.6 0.9,0.6 1.9,0.9 2.9,0.9 0.3,0 0.6,0 0.9,-0.1 0.1,0.2 0.1,0.3 0.2,0.5 l -1.3,1.2 c -0.4,0.3 -0.7,0.7 -1,1.1 -0.7,1 -1.1,2.2 -1.2,3.4 0,1.4 0.6,2.7 1.5,3.6 0.9,1 1.8,1.9 2.7,2.7 1.1,1.1 2.5,1.7 4,1.7 v 0 c 0.3,1 0.9,1.9 1.7,2.7 3.3,3 7.1,4.8 11.5,6.2 h 0.1 c 3.4,1.1 6.9,1.8 10.5,2.1 1.4,1.1 2.9,2.1 4.5,2.9 l 0.6,0.3 c 0.3,0.2 0.7,0.3 1,0.3 h 0.1 c 0.3,0 0.7,-0.1 1,-0.3 l 0.6,-0.3 c 1.6,-0.8 3.1,-1.8 4.5,-2.9 3.5,-0.2 7.1,-0.9 10.5,-1.8 H 67 c 4.4,-1.4 8.2,-3.2 11.5,-6.2 0.8,-0.7 1.4,-1.6 1.7,-2.7 1.5,0 2.9,-0.7 4,-1.7 1,-0.9 1.9,-1.8 2.7,-2.7 1,-1 1.6,-2.3 1.6,-3.7 0,-1.2 -0.4,-2.4 -1.2,-3.4 C 87,70.4 86.7,70 86.3,69.7 L 85,68.5 85.2,68 c 0.3,0 0.6,0.1 0.9,0.1 1.1,0 2.1,-0.3 3,-0.9 0.6,-0.1 1.2,-0.3 1.8,-0.6 0.6,-0.3 1.2,-0.7 1.7,-1.3 0.6,-0.7 1,-1.4 1.2,-2.3 l 0.4,-1.4 c 0,-0.2 0.1,-0.4 0.1,-0.6 0,-1.1 -0.8,-2.1 -1.9,-2.3 L 91,58.4 C 90.5,58.3 90,58.1 89.6,57.9 89.3,57.8 89,57.6 88.7,57.4 88.5,57.3 88.4,57.1 88.3,57 l -0.1,-0.2 c 0.5,-0.2 1,-0.4 1.4,-0.7 2.9,-1.5 5.4,-3.7 7.2,-6.4 2,-2.9 2.6,-6.5 2.8,-9.3 0,-0.3 0,-0.6 0,-0.9 0.2,-1.1 0.2,-2.3 0,-3.4 z"
     id="path4" /><path
     class="st1"
     d="m 97.2,33.1 c -0.5,-1.4 -1.3,-2.6 -2.2,-3.8 -0.1,-0.2 -0.3,-0.2 -0.4,-0.2 -0.2,0 -0.4,0.1 -0.4,0.3 L 93,31.1 c -2.1,3.3 -4.9,6 -8.2,8.1 -0.1,-0.4 -0.3,-0.8 -0.5,-1.2 -0.7,-1.1 -1.9,-1.9 -3.2,-2.3 -0.6,-0.2 -1.2,-0.3 -1.8,-0.3 -1.2,0 -2.3,0.4 -3.2,1.1 -0.3,-0.1 -0.5,-0.2 -0.8,-0.2 -0.4,0 -0.8,0.1 -1.1,0.3 -0.3,0.2 -0.5,0.5 -0.7,0.8 -0.1,0.2 -0.2,0.4 -0.2,0.6 0,0 0,0.1 -0.1,0.1 -0.1,0 0,-0.1 0,-0.1 V 12.1 c 0,-0.2 -0.1,-0.4 -0.3,-0.5 -0.2,-0.1 -0.4,0 -0.6,0.1 l -2.3,2 c -1.7,1.3 -3.9,2.1 -6.1,2.2 h -0.1 c -1.9,0 -3.7,-0.6 -5.3,-1.7 -2.6,-1.8 -4.8,-4.2 -6.4,-7 L 51,5.3 C 50.9,5.1 50.7,5 50.6,5 50.4,5 50.2,5.1 50.1,5.3 L 49,7.1 c -1.6,2.8 -3.7,5.2 -6.3,7 -1.6,1.1 -3.4,1.6 -5.3,1.7 H 37.3 C 35.1,15.7 33,15 31.2,13.6 l -2.3,-2 c -0.2,-0.2 -0.6,-0.2 -0.8,0.1 0,0 -0.1,0.2 -0.1,0.3 v 26 c 0,0 0,0.1 0,0.1 0,0 0,0 0,-0.1 0,-0.2 -0.1,-0.4 -0.2,-0.6 -0.2,-0.3 -0.4,-0.6 -0.7,-0.8 -0.3,-0.2 -0.7,-0.3 -1.1,-0.3 v 0 c -0.3,0 -0.5,0.1 -0.8,0.2 -0.9,-0.7 -2,-1.1 -3.2,-1.1 -0.6,0 -1.2,0.1 -1.8,0.3 -1.3,0.3 -2.4,1.2 -3.1,2.3 -0.2,0.4 -0.4,0.8 -0.5,1.2 -3.3,-2 -6.2,-4.7 -8.3,-8 L 7.2,29.5 C 7.1,29.3 6.9,29.3 6.8,29.2 c -0.2,0 -0.4,0.1 -0.5,0.2 -0.9,1.1 -1.7,2.4 -2.2,3.7 -0.7,2.3 -1,4.7 -0.9,7.2 0.2,2.6 0.8,6 2.5,8.4 4.8,6.9 9.8,6.7 9.8,6.7 -0.3,0.8 -0.7,1.6 -1.2,2.4 -0.5,0.8 -1.3,1.4 -2.2,1.7 -0.6,0.3 -1.2,0.5 -1.8,0.6 l -1.4,0.3 c -0.1,0 -0.3,0.1 -0.4,0.2 -0.1,0.1 -0.1,0.3 -0.1,0.4 l 0.4,1.4 c 0.3,1 1,1.9 1.9,2.3 0.5,0.3 1.1,0.5 1.7,0.5 l 0.2,0.2 c 0.6,0.4 1.3,0.6 2,0.6 0.7,0 1.4,-0.2 2,-0.4 0.4,1 0.8,2.1 1.3,3.1 l -2.2,2.1 c -0.3,0.2 -0.5,0.5 -0.7,0.8 -0.5,0.7 -0.8,1.5 -0.8,2.4 0,0.9 0.4,1.8 1,2.4 0.8,0.9 1.7,1.8 2.7,2.7 0.7,0.8 1.8,1.2 2.8,1.3 0.6,0 1.1,-0.1 1.7,-0.3 v 0.6 c 0,1.1 0.5,2.1 1.4,2.9 3,2.8 6.6,4.5 10.9,5.8 3.5,1.1 7,1.8 10.6,2.1 1.4,1.2 3,2.2 4.6,3 l 0.6,0.3 c 0.1,0.1 0.3,0.1 0.5,0 l 0.6,-0.3 c 1.6,-0.8 3.2,-1.8 4.6,-3 3.6,-0.3 7.2,-1 10.6,-2.1 h 0.1 c 4.3,-1.4 7.8,-3 10.9,-5.8 0.8,-0.7 1.3,-1.8 1.3,-2.9 v -0.1 c 0,-0.2 0,-0.3 0,-0.5 0.5,0.2 1,0.4 1.6,0.4 1.1,0 2.1,-0.5 2.8,-1.3 0.9,-0.8 1.8,-1.7 2.7,-2.7 0.7,-0.6 1,-1.5 1.1,-2.4 0,-0.9 -0.3,-1.7 -0.8,-2.4 -0.2,-0.3 -0.5,-0.6 -0.7,-0.8 l -2.2,-2.1 c 0.5,-1 0.9,-2 1.3,-3.1 0.6,0.3 1.3,0.4 2,0.4 0.7,0 1.4,-0.2 2,-0.6 l 0.2,-0.2 c 0.6,-0.1 1.2,-0.2 1.7,-0.5 1,-0.5 1.7,-1.3 1.9,-2.3 L 93.1,61 c 0,-0.1 0,-0.3 -0.1,-0.4 -0.1,-0.1 -0.2,-0.2 -0.4,-0.2 L 91.2,60.1 C 90.6,60 90,59.7 89.4,59.5 c -0.9,-0.4 -1.6,-1 -2.1,-1.7 -0.5,-0.8 -0.8,-1.6 -1.2,-2.4 0,0 5,0.1 9.8,-6.7 1.7,-2.4 2.3,-5.8 2.5,-8.4 -0.2,-2.5 -0.5,-4.9 -1.2,-7.2 z"
     id="path6" /><path
     class="st2"
     d="m 50.5,8.1 c -10,16.3 -20.7,7 -20.7,7 v 29.7 c 0,0 0,37.3 20.7,48 20.6,-10.7 20.6,-48 20.6,-48 V 15.1 c 0.1,0 -10.5,9.3 -20.6,-7"
     id="path8" /><path
     class="st3"
     d="m 48.3,38.3 v 45.5 h 4.4 V 38.3 h -4.4 m 8.9,0.2 V 79 c 0.1,-0.1 0.1,-0.2 0.2,-0.3 1.8,-3 3.2,-6.2 4.3,-9.5 V 38.8 c -1.5,-0.1 -3,-0.3 -4.5,-0.3 M 39.4,69.1 c 1.1,3.3 2.5,6.5 4.2,9.5 0.1,0.1 0.1,0.2 0.2,0.3 V 38.5 c -1.5,0.1 -3,0.2 -4.4,0.3 z"
     id="path10" /><path
     class="st1"
     d="m 51.3,23.4 h 1.5 v 2.9 h -1.5 z m -3,0 h 1.5 v 2.9 h -1.5 z"
     id="path12" /><path
     class="st4"
     d="m 56.2,75 c 0,0 -0.1,-0.1 -0.2,-0.1 v -0.3 -0.3 c 0.1,-0.1 0.2,-0.2 0.2,-0.4 0,-0.2 0,-0.3 0,-0.4 0,-0.1 0,-0.3 -0.1,-0.4 C 56,73 55.9,72.9 55.7,72.8 h -1.9 c -0.1,0 -0.2,0 -0.3,0.1 -0.1,0 -0.2,-0.1 -0.3,-0.1 -0.2,0 -0.4,0 -0.6,0 -0.4,0 -0.8,0.1 -1.1,0.2 V 72.9 C 51.6,73 51.4,73 51.3,73 h -0.7 c -0.3,0 -0.5,0.2 -0.6,0.5 L 49.7,73.2 C 49.6,73.1 49.4,73 49.2,73 h -0.8 c -0.1,0 -0.1,0 -0.2,0 h -1 c -0.1,0 -0.2,0 -0.3,0.1 -0.1,0 -0.2,-0.1 -0.3,-0.1 -0.2,0 -0.3,0 -0.5,0 -0.4,0 -0.8,0.1 -1.2,0.4 -0.3,0.3 -0.4,0.6 -0.4,1 0,0.2 0.1,0.4 0.2,0.6 -0.1,0.1 -0.1,0.2 -0.1,0.3 0,0.1 0,0.2 0,0.3 0,0 0,0.1 0,0.1 -0.1,0.2 0,0.5 0.3,0.6 0.2,0.1 0.3,0.2 0.5,0.2 0.2,0 0.4,0.1 0.5,0.1 H 46 c 0,0.1 0,0.2 0,0.4 v 0.4 c 0,0.2 0.1,0.3 0.2,0.4 0.1,0.1 0.1,0.1 0.2,0.1 V 79 c -0.1,0 -0.3,0.1 -0.4,0.2 -0.1,0.1 -0.1,0.2 -0.1,0.3 v 0.1 c 0,0.1 0,0.2 0.1,0.3 0.1,0.1 0.3,0.2 0.4,0.2 h 1.7 c 0.1,0.1 0.2,0.1 0.3,0.1 0.4,0 0.8,-0.1 1.2,-0.4 0.2,-0.1 0.3,-0.3 0.5,-0.4 0.1,0.2 0.3,0.4 0.5,0.5 0.2,0.2 0.5,0.2 0.8,0.2 0.3,0 0.6,-0.1 0.9,-0.3 0.1,0.1 0.1,0.1 0.2,0.2 0.1,0.1 0.2,0.1 0.4,0.1 0.1,0 0.3,0 0.4,0 0.5,0 0.9,-0.2 1.3,-0.5 0.4,-0.3 0.6,-0.8 0.6,-1.3 0,-0.4 -0.1,-0.7 -0.4,-1 0.1,-0.1 0.2,-0.2 0.2,-0.4 l 0.1,-0.6 v -0.1 h 0.8 c 0.3,0 0.5,-0.3 0.5,-0.5 0,-0.2 0,-0.3 0,-0.5 -0.1,0.1 -0.1,-0.1 -0.2,-0.2 z"
     id="path14" /><path
     class="st1"
     d="m 48.6,75.9 h 0.8 v -0.2 h -0.2 c 0,-0.1 0,-0.2 0,-0.3 V 74 c 0.1,0.2 1.3,1.6 1.6,2 0.1,0 0.2,0 0.3,0 v -2.1 -0.3 h 0.2 v -0.2 h -0.8 v 0.2 h 0.2 c 0,0.1 0,0.1 0,0.2 v 1.4 C 50.5,75 49.5,73.7 49.2,73.4 h -0.7 v 0.2 h 0.2 c 0,0.1 0,0.2 0,0.3 v 1.4 c 0,0.1 0,0.2 0,0.3 0,0 0,0 0,0.1 -0.1,0 -0.1,0 -0.2,0 z m 5,-2 h -0.2 c 0,-0.1 -0.1,-0.1 -0.1,-0.2 -0.1,0 -0.2,-0.1 -0.2,-0.1 -0.1,0 -0.2,0 -0.3,0 -0.3,0 -0.5,0.1 -0.7,0.3 -0.2,0.2 -0.3,0.5 -0.3,0.7 0,0.3 0.1,0.6 0.3,0.8 0.2,0.2 0.5,0.3 0.8,0.3 0.1,0 0.2,0 0.4,0 0.1,0 0.3,-0.1 0.4,-0.1 0,0.1 -0.1,0.1 -0.1,0.2 -0.1,0.1 -0.3,0.1 -0.4,0.2 -0.2,0 -0.4,0 -0.5,0 -0.3,0 -0.6,-0.1 -0.8,-0.2 -0.2,-0.1 -0.4,-0.3 -0.5,-0.5 -0.1,-0.2 -0.2,-0.4 -0.2,-0.7 0,-0.3 0.1,-0.7 0.4,-0.9 0.3,-0.3 0.7,-0.4 1.1,-0.4 0.2,0 0.3,0 0.5,0 0.2,0 0.3,0.1 0.5,0.1 z m 0.4,2 v 0 c 0.1,-0.1 0.1,-0.2 0.2,-0.2 0,-0.4 0,-0.8 0,-1.2 v -0.8 c 0,0 0,-0.1 0,-0.1 -0.1,0 -0.1,0 -0.2,0 v -0.2 h 1.9 c 0,0.2 -0.1,0.3 -0.1,0.5 h -0.1 c 0,-0.1 0,-0.2 0,-0.2 h -0.1 c -0.2,0 -0.3,0 -0.5,0 h -0.4 v 0.9 h 0.4 c 0.1,0 0.2,0 0.3,0 0,-0.1 0,-0.1 0,-0.2 h 0.2 v 0.7 h -0.1 c 0,-0.1 0,-0.1 0,-0.2 v 0 c -0.1,0 -0.3,0 -0.4,0 h -0.2 v 1 h 0.4 c 0.2,0 0.4,0 0.6,0 0,-0.1 0,-0.2 0.1,-0.3 h 0.2 c 0,0.2 0,0.4 0,0.6 H 54 Z m -6.8,0 v -0.2 h 0.2 c 0,0 0,-0.1 0,-0.1 V 74 c 0,-0.1 0,-0.2 0,-0.4 -0.1,0 -0.2,0 -0.2,0 v -0.3 h 1.1 v 0.2 c -0.1,0 -0.2,0 -0.2,0 0,0 0,0.1 0,0.1 v 1.7 c 0,0.1 0,0.2 0,0.3 0.1,0 0.1,0 0.2,0 v 0.2 z m -2,-0.7 h 0.2 c 0,0.1 0,0.2 0,0.3 0,0 0.1,0.1 0.1,0.1 0.1,0.1 0.1,0.1 0.2,0.1 0.1,0 0.2,0 0.3,0 0.1,0 0.3,0 0.4,-0.1 0.1,-0.1 0.2,-0.2 0.2,-0.3 0,-0.1 0,-0.2 -0.1,-0.3 -0.1,-0.1 -0.2,-0.1 -0.4,-0.1 -0.2,0 -0.4,-0.1 -0.6,-0.1 -0.1,0 -0.2,-0.1 -0.2,-0.2 -0.1,-0.1 -0.1,-0.2 -0.1,-0.3 0,-0.2 0.1,-0.4 0.2,-0.6 0.2,-0.2 0.5,-0.3 0.8,-0.2 0.1,0 0.2,0 0.4,0 0.1,0 0.2,0.1 0.3,0.1 0,0.1 0,0.3 -0.1,0.4 h -0.2 c 0,-0.1 0,-0.1 0,-0.2 0,-0.1 -0.1,-0.1 -0.2,-0.1 -0.1,0 -0.2,-0.1 -0.3,-0.1 -0.1,0 -0.3,0 -0.4,0.1 -0.1,0.1 -0.1,0.2 -0.1,0.3 0,0.1 0,0.1 0.1,0.2 0,0.1 0.1,0.1 0.2,0.1 0.1,0 0.3,0.1 0.4,0.1 l 0.4,0.1 c 0.1,0 0.2,0.1 0.3,0.2 0,0 0,0.1 0,0.3 0,0.2 -0.1,0.5 -0.3,0.6 -0.2,0.2 -0.5,0.3 -0.8,0.3 -0.1,0 -0.3,0 -0.4,-0.1 -0.1,0 -0.3,-0.1 -0.4,-0.1 0,-0.1 0,-0.2 0,-0.2 V 75 m 4.4,3.1 c -0.1,0.1 -0.2,0.2 -0.4,0.3 -0.1,0 -0.2,0.1 -0.3,0.1 -0.2,0 -0.4,-0.1 -0.5,-0.2 -0.1,-0.2 -0.2,-0.4 -0.2,-0.6 0,-0.3 0.1,-0.6 0.3,-0.8 0.2,-0.2 0.5,-0.3 0.7,-0.3 0.2,0 0.4,0 0.5,0.1 0.2,0.1 0.3,0.3 0.3,0.4 0.1,0.2 0.1,0.5 0.1,0.7 0,0.3 -0.1,0.7 -0.2,1 -0.1,0.3 -0.3,0.5 -0.6,0.7 -0.3,0.2 -0.6,0.3 -0.9,0.3 l -0.2,-0.2 0.1,-0.1 h 0.2 c 0.2,0 0.3,-0.1 0.5,-0.2 0.2,-0.1 0.3,-0.3 0.4,-0.4 0.1,-0.3 0.2,-0.5 0.2,-0.8 z m -0.4,0 c 0.1,0 0.2,0 0.3,-0.1 0.1,-0.1 0.1,-0.3 0.1,-0.4 0,-0.2 0,-0.4 -0.1,-0.6 -0.1,-0.1 -0.2,-0.2 -0.3,-0.2 -0.1,0 -0.2,0.1 -0.3,0.2 -0.1,0.1 -0.1,0.3 -0.1,0.5 0,0.2 0,0.4 0.1,0.6 0,0 0.2,0 0.3,0 z m 1.9,0 c 0.1,-0.1 0.2,-0.2 0.4,-0.3 0.1,0 0.2,-0.1 0.3,-0.1 0.2,0 0.4,0.1 0.5,0.2 0.1,0.2 0.2,0.4 0.2,0.7 0,0.3 -0.1,0.6 -0.3,0.8 -0.2,0.2 -0.4,0.3 -0.7,0.3 -0.2,0 -0.4,-0.1 -0.5,-0.2 -0.2,-0.1 -0.3,-0.3 -0.3,-0.4 -0.1,-0.2 -0.1,-0.5 -0.1,-0.7 0,-0.3 0.1,-0.7 0.2,-1 0.1,-0.3 0.4,-0.5 0.6,-0.7 0.3,-0.2 0.5,-0.3 0.8,-0.3 l 0.2,0.2 -0.1,0.1 H 52 c -0.2,0 -0.3,0.1 -0.5,0.2 -0.2,0.1 -0.3,0.3 -0.4,0.4 C 51,77.6 51,77.8 51,78.1 Z m 0.4,0 c -0.1,0 -0.2,0 -0.3,0.1 -0.1,0.1 -0.1,0.3 -0.1,0.4 0,0.2 0,0.5 0.1,0.7 0.1,0.1 0.2,0.2 0.3,0.2 0.1,0 0.2,-0.1 0.3,-0.2 0.1,-0.1 0.1,-0.3 0.1,-0.5 0,-0.2 0,-0.4 -0.1,-0.6 -0.1,0 -0.2,-0.1 -0.3,-0.1 z m 3,-1 h -1.3 v 0.8 c 0.1,-0.1 0.2,-0.1 0.3,-0.1 0.1,0 0.2,0 0.3,0 0.3,0 0.5,0.1 0.7,0.2 0.2,0.2 0.3,0.4 0.2,0.6 0,0.3 -0.1,0.6 -0.4,0.8 -0.3,0.2 -0.6,0.4 -1,0.4 -0.1,0 -0.2,0 -0.3,0 l -0.3,-0.1 c 0,-0.2 -0.1,-0.4 -0.1,-0.6 h 0.1 c 0.1,0.2 0.2,0.3 0.3,0.4 0.1,0.1 0.3,0.1 0.4,0.1 0.2,0 0.3,-0.1 0.4,-0.2 0.1,-0.1 0.2,-0.3 0.2,-0.5 0,-0.2 -0.1,-0.3 -0.2,-0.5 -0.1,-0.1 -0.3,-0.2 -0.5,-0.2 -0.1,0 -0.2,0 -0.3,0 l -0.3,0.2 h -0.1 v -0.9 -0.8 h 1.6 z m -6.5,2.4 c -0.1,0 -0.3,0 -0.4,-0.1 0,0 0,0 0,-0.1 0,-0.2 0,-0.4 0,-0.7 v -1.3 -0.8 h -0.1 c -0.3,0.1 -0.7,0.3 -1,0.4 v 0.4 l 0.3,-0.1 h 0.1 v 1.7 c 0,0.1 0,0.3 0,0.4 l -0.1,0.1 c -0.1,0 -0.3,0.1 -0.4,0.1 v 0.1 h 1.6 z"
     id="path16" /><path
     class="st5"
     d="m 75.4,38.3 c 0.7,1.1 0.7,2.4 0.1,3.5 0,0 1.4,2.6 -3.3,5.3 0,0 0,-5.6 3,-5.4 0.5,-1 0.5,-2.2 -0.1,-3.1 0,0 -0.1,-0.1 0.1,-0.2 0.1,-0.2 0.2,-0.2 0.2,-0.1"
     id="path18" /><path
     class="st1"
     d="m 50.5,14.9 c 0,0 -7.4,10.1 -18.6,6 v 24.2 c 0.2,6.9 1.1,13.7 2.8,20.4 1.3,5.2 3.2,10.2 5.9,14.9 2.3,4.1 5.6,7.5 9.5,10 l 0.3,0.2 0.3,-0.2 c 4,-2.5 7.2,-5.9 9.5,-10 2.7,-4.7 4.7,-9.7 5.9,-14.9 1.7,-6.7 2.6,-13.5 2.8,-20.4 V 20.9 C 58,25 50.5,14.9 50.5,14.9 Z m 0,2.9 c 0.6,0 1.1,0.5 1.1,1.1 0,0.6 -0.5,1.1 -1.1,1.1 -0.6,0 -1.1,-0.5 -1.1,-1.1 0,0 0,0 0,0 0.1,-0.6 0.5,-1.1 1.1,-1.1 0,0 0,0 0,0 z m 17.4,27.3 c -0.2,6.8 -1.1,13.5 -2.7,20.1 -1.2,5.1 -3.2,10 -5.8,14.6 -2.2,3.8 -5.2,7 -8.8,9.4 C 46.9,86.8 43.9,83.6 41.8,79.8 39.2,75.2 37.2,70.3 36,65.2 34.3,58.6 33.4,51.9 33.2,45.1 V 37.3 C 39,36.4 44.8,35.9 50.6,36 c 5.8,0 11.6,0.4 17.4,1.3 v 7.8 z m 0,-13.9 h -3.6 c -1.5,0 -2.9,-0.6 -3.8,-1.7 -0.8,-1.2 -2.2,-2 -3.6,-2.1 H 44.2 c -1.5,0.1 -2.8,0.9 -3.6,2.1 -1,1.1 -2.4,1.7 -3.8,1.7 h -3.6 v -5.3 c 5.3,0.1 10.5,-1.6 14.7,-5 0.1,0.5 0.4,0.8 0.9,0.8 0.2,0 0.4,-0.1 0.5,-0.2 0.2,0.6 0.7,1 1.3,1 0.6,0 1.2,-0.4 1.3,-1 0.2,0.1 0.3,0.2 0.5,0.2 0.5,0 0.9,-0.4 0.9,-0.8 4.1,3.4 9.3,5.1 14.7,5 v 5.3 z"
     id="path20" /><path
     class="st2"
     d="m 44.3,30.9 v -0.1 h 0.2 c 0,0 0.1,0 0.1,-0.2 v -1.4 c 0,-0.2 0,-0.3 0,-0.5 h -0.2 v -0.1 h 1 v 0.1 c -0.1,0 -0.1,0 -0.2,0 0,0.1 0,0.1 0,0.2 v 0.7 h 1.1 v -0.8 c 0,0 0,-0.1 0,-0.1 H 46 v -0.1 h 1 v 0.1 c -0.1,0 -0.1,0 -0.2,0 0,0.1 0,0.2 0,0.3 v 1.4 c 0,0.1 0,0.2 0,0.3 0,0 0,0 0,0.1 H 47 v 0.1 h -1 v -0.1 c 0.1,0 0.1,0 0.2,0 0,0 0,-0.1 0,-0.1 v -0.8 h -1.1 v 1 c 0,0 0.1,0 0.2,0 V 31 Z m 3,0 v -0.1 h 0.2 c 0,0 0,-0.1 0,-0.1 V 29.8 29 c 0,-0.1 0,-0.2 0,-0.3 0,0 0,0 0,0 -0.1,0 -0.1,0 -0.2,0 v -0.1 h 1 v 0.1 H 48 c 0,0 0,0 0,0.1 v 1.6 c 0,0.1 0,0.2 0,0.3 0.1,0 0.1,0 0.2,0 v 0.1 z m 1.3,0 h 0.7 v -0.1 c -0.1,0 -0.1,0 -0.2,0 0,-0.1 0,-0.2 0,-0.3 V 29 c 0.1,0.2 1.2,1.6 1.5,1.9 0.1,0 0.2,0 0.3,0 V 29 c 0,-0.1 0,-0.2 0,-0.3 0.1,0 0.1,0 0.2,0 v -0.1 h -0.7 v 0.1 h 0.2 c 0,0.1 0,0.1 0,0.2 v 1.4 c -0.2,-0.2 -1.2,-1.4 -1.4,-1.8 h -0.7 v 0.1 h 0.2 c 0,0.1 0,0.2 0,0.3 v 1.4 c 0,0.1 0,0.2 0,0.3 h -0.2 z m 7.7,-2.3 c 0,0.1 0,0.1 0,0.2 v 1.3 c 0,0.2 0,0.3 0.1,0.5 0.1,0.1 0.2,0.2 0.3,0.3 0.2,0.1 0.4,0.1 0.6,0.1 0.2,0 0.4,0 0.6,-0.1 0.1,-0.1 0.3,-0.2 0.3,-0.3 0.1,-0.1 0.1,-0.3 0.1,-0.4 0,-0.1 0,-0.3 0,-0.4 v -0.9 c 0,-0.3 0,-0.2 0.1,-0.2 0.1,0 0,0 0.2,0 v -0.1 h -0.7 v 0.1 H 58 c 0,0.1 0,0.2 0,0.3 v 0.6 c 0,0.2 0,0.5 0,0.7 0,0.1 -0.1,0.2 -0.2,0.3 -0.1,0.1 -0.3,0.1 -0.4,0.1 -0.1,0 -0.3,0 -0.4,-0.1 -0.1,0 -0.1,-0.1 -0.2,-0.2 -0.1,-0.1 -0.1,-0.3 -0.1,-0.4 v -0.6 -0.6 c 0,0 0,-0.1 0,-0.1 0.1,0 0.1,0 0.2,0 v -0.1 h -0.8 v 0.1 z m -5,1.5 h 0.2 c 0,0.1 0,0.2 0,0.3 0,0 0.1,0.1 0.1,0.1 0.1,0.1 0.1,0.1 0.2,0.1 0.1,0 0.2,0 0.3,0 0.1,0 0.3,0 0.4,-0.1 0.1,-0.1 0.1,-0.2 0.1,-0.3 0,-0.1 0,-0.2 -0.1,-0.3 -0.1,-0.1 -0.2,-0.1 -0.4,-0.1 -0.2,0 -0.4,-0.1 -0.6,-0.1 -0.1,0 -0.2,-0.1 -0.2,-0.2 -0.1,-0.1 -0.1,-0.2 -0.1,-0.3 0,-0.2 0.1,-0.4 0.2,-0.5 0.2,-0.2 0.5,-0.3 0.7,-0.2 0.1,0 0.2,0 0.3,0 0.1,0 0.2,0.1 0.3,0.1 0,0.1 0,0.2 -0.1,0.4 h -0.1 c 0,-0.1 0,-0.1 0,-0.2 -0.1,0 -0.1,-0.1 -0.2,-0.1 -0.1,0 -0.2,-0.1 -0.3,-0.1 -0.1,0 -0.3,0 -0.4,0.1 -0.1,0.1 -0.1,0.2 -0.1,0.3 0,0.1 0,0.1 0,0.2 0,0.1 0.1,0.1 0.2,0.1 0.1,0 0.3,0.1 0.4,0.1 l 0.4,0.1 c 0.1,0 0.2,0.1 0.3,0.2 0.1,0.1 0.1,0.2 0.1,0.4 0,0.2 -0.1,0.5 -0.3,0.6 -0.2,0.2 -0.5,0.3 -0.8,0.2 -0.1,0 -0.3,0 -0.4,0 -0.1,0 -0.3,-0.1 -0.4,-0.1 0,-0.1 0,-0.1 0,-0.2 l 0.3,-0.5 m 1.9,0.8 v -0.1 h 0.2 c 0,0 0.1,0 0.1,-0.2 v -1.4 c 0,-0.2 0,-0.3 0,-0.5 h -0.2 v -0.1 h 1 v 0.1 c -0.1,0 -0.1,0 -0.2,0 0,0.1 0,0.1 0,0.2 v 0.7 h 1.1 v -0.8 c 0,0 0,-0.1 0,-0.1 H 55 v -0.1 h 1 v 0.1 c -0.1,0 -0.1,0 -0.2,0 0,0.1 0,0.2 0,0.3 v 1.4 c 0,0.1 0,0.2 0,0.3 0,0 0,0 0,0.1 0.1,0 0.1,0 0.2,0 v 0.1 h -1 v -0.1 c 0.1,0 0.1,0 0.2,0 0,0 0,-0.1 0,-0.1 V 29.9 H 54 v 1 c 0,0 0.1,0 0.2,0 V 31 Z M 42.4,30.1 h 0.2 c 0,0.1 0,0.2 0,0.3 0,0 0.1,0.1 0.1,0.1 0.1,0.1 0.1,0.1 0.2,0.1 0.1,0 0.2,0 0.3,0 0.1,0 0.3,0 0.4,-0.1 0.2,-0.2 0.2,-0.4 0,-0.6 -0.1,-0.1 -0.2,-0.1 -0.4,-0.1 -0.2,0 -0.4,-0.1 -0.5,-0.1 -0.1,0 -0.2,-0.1 -0.2,-0.2 -0.1,-0.1 -0.1,-0.2 -0.1,-0.3 0,-0.2 0.1,-0.4 0.2,-0.5 0.2,-0.2 0.5,-0.3 0.7,-0.2 0.1,0 0.2,0 0.4,0 0.1,0 0.2,0.1 0.3,0.1 V 29 h -0.2 c 0,-0.1 0,-0.1 0,-0.2 0,-0.1 -0.1,-0.1 -0.2,-0.1 -0.1,0 -0.2,-0.1 -0.3,-0.1 -0.1,0 -0.3,0 -0.4,0.1 -0.1,0.1 -0.1,0.2 -0.1,0.3 0,0.1 0,0.1 0,0.2 0,0.1 0.1,0.1 0.2,0.1 0.1,0 0.3,0.1 0.4,0.1 l 0.4,0.1 c 0.1,0 0.2,0.1 0.3,0.2 0.1,0.1 0.1,0.2 0.1,0.4 0,0.2 -0.1,0.5 -0.3,0.6 -0.2,0.2 -0.5,0.3 -0.8,0.2 -0.1,0 -0.3,0 -0.4,0 -0.1,0 -0.2,-0.1 -0.4,-0.1 0,-0.1 0,-0.1 0,-0.2 l 0.1,-0.5 m 50.3,14.6 -1,0.3 -0.7,0.2 c -0.4,0.1 -0.9,0.2 -1.3,0.3 h -0.1 c -0.1,0 -0.2,-0.1 -0.2,-0.2 0,-0.1 0.1,-0.1 0.1,-0.2 L 89.8,45 c 1.1,-0.4 2.2,-0.8 3.3,-1.3 0.7,-0.3 1.3,-0.7 1.9,-1.2 0.8,-0.7 1.2,-1.8 1.2,-2.8 -1.3,1 -2.7,1.8 -4.2,2.5 l -1,0.5 -0.7,0.3 -1.2,0.5 H 89 c -0.1,0 -0.2,-0.1 -0.2,-0.2 0,-0.1 0,-0.2 0.1,-0.2 L 89.2,43 c 1.2,-0.5 2.3,-1.1 3.4,-1.8 0.3,-0.2 0.6,-0.4 0.8,-0.6 0.7,-0.5 1.3,-1 1.8,-1.7 0.7,-0.9 1,-2.1 0.6,-3.2 -1.9,2.2 -4.2,4.1 -6.8,5.6 -0.4,0.2 -0.8,0.4 -1.2,0.6 -0.1,0 -0.2,0 -0.2,-0.1 0,-0.1 0,-0.2 0.1,-0.2 L 88,41.4 c 1.6,-1 3.2,-2.2 4.6,-3.5 0.7,-0.6 1.3,-1.4 1.8,-2.2 0.7,-1.2 0.8,-2.6 0.2,-3.9 -2.4,3.8 -5.8,7 -9.7,9.1 -1.3,0.6 -2.3,2 -1.4,3.4 0.4,0.7 1,1.3 0.2,1.8 -0.8,0.5 -1.7,0.8 -2,0.6 -0.2,-0.8 -0.3,-1.7 -0.1,-2.5 0.2,-0.9 0.6,-1.7 1,-2.5 0.5,-0.9 0.6,-2.1 0.1,-3 -0.5,-0.7 -1.2,-1.2 -2,-1.4 -1.4,-0.6 -3.1,-0.1 -4,1.2 -0.3,-0.1 -0.6,0 -0.8,0.3 -0.8,0 -1.4,0.8 -1,2 0,0 1.9,-1.1 2,1.6 0.7,0.4 1,1.3 0.6,2 -0.4,0.9 -1.2,0.8 -2.2,0.7 0,0 0.4,1.3 -1.8,3.7 -1.7,1.8 -1.5,5.7 -0.7,7.4 2,4.2 -0.8,4.9 0.6,6.3 0.9,0.9 1.2,1.4 1.2,1.7 0,0.6 -0.3,0.7 -0.9,1.1 -0.3,0.2 0.4,0.7 0.1,0.9 -0.1,0.1 -0.6,-0.4 -0.7,-0.6 -0.4,-0.8 0.1,-1 0,-1.3 0,-0.1 -0.4,0 -0.4,-0.1 0.8,-1 0.3,-1.7 -0.3,-1.9 -0.2,-0.1 -0.5,-0.1 -0.8,0 -0.4,-0.4 -1,-0.4 -1.3,0 -0.1,0.1 -0.2,0.2 -0.2,0.3 0,0 0.8,-0.2 1,0.3 -0.4,0.4 0.3,0.8 0.4,1.3 -1,-0.3 -1.5,-0.2 -1.7,0.4 -0.4,-0.1 -0.8,0.2 -0.9,0.6 0,0.1 0,0.1 0,0.2 0.5,-0.3 0.9,-0.2 1,0.1 0.2,0.7 1.2,0.2 1.6,-0.1 0.1,0.1 0.1,0.2 0,0.3 0,0 -1.3,0.2 -1.2,1.1 -0.4,0.3 -0.5,0.9 -0.2,1.4 0,0 0.1,0.1 0.1,0.1 0,0 0.1,-0.7 0.5,-0.8 0.4,-0.1 1.2,-0.2 1.4,-0.8 0.7,1.2 -0.2,0.6 0,1.6 0,0.2 0.3,0.7 -0.4,1.1 0.5,0.2 1,-0.1 1.3,-0.6 0.7,-0.4 0.2,-0.7 0.4,-1.1 0.3,-0.4 0.7,-0.6 1.1,-0.8 0.1,0 -0.6,1 1,0.8 -0.1,-0.5 -0.1,-1 0.2,-1.4 0.1,0 0.1,0.6 1,0.8 -0.1,-0.9 0.1,-1.4 0.5,-1.6 0.5,-0.2 0.6,-0.4 0.4,-0.9 -0.1,-0.2 -1.5,-2.7 -1.6,-2.8 -0.1,-0.1 0.1,-0.3 0.2,-0.2 0.6,0.9 1.2,1.9 1.7,2.9 0.5,1 0.7,2 0.7,3.1 -0.3,0 -0.6,0.1 -0.9,0.2 -5,1.5 -9.6,4.1 -13.3,7.7 -1.3,1.2 -2.4,2.6 -3.3,4.1 -3.5,0.8 -7,1.2 -10.6,1.2 -3.6,0 -7.1,-0.4 -10.6,-1.2 -1,-1.5 -2.1,-2.9 -3.3,-4.1 -3.7,-3.6 -8.3,-6.2 -13.2,-7.7 -0.3,-0.1 -0.7,-0.2 -1,-0.2 0,-1.1 0.3,-2.1 0.8,-3.1 0.5,-1 1.1,-2 1.7,-2.9 0.1,-0.1 0.3,0 0.2,0.2 -0.1,0.2 -1.5,2.6 -1.6,2.8 -0.2,0.5 -0.1,0.8 0.4,0.9 0.3,0.1 0.6,0.6 0.5,1.6 0.9,-0.2 0.9,-0.8 1,-0.8 0.2,0.4 0.3,0.9 0.2,1.4 1.6,0.2 0.8,-0.8 1,-0.8 0.4,0.2 0.8,0.5 1.1,0.8 0.3,0.4 -0.2,0.7 0.4,1.1 0.3,0.5 0.8,0.7 1.3,0.5 -0.6,-0.4 -0.3,-0.9 -0.4,-1.1 0.1,-0.9 -0.8,-0.4 0,-1.6 0.2,0.6 0.9,0.7 1.4,0.8 0.5,0.1 0.5,0.8 0.5,0.8 0.4,-0.4 0.4,-1 0,-1.4 0,0 -0.1,-0.1 -0.1,-0.1 0.1,-0.9 -1.2,-1.1 -1.2,-1.1 0,-0.1 0,-0.2 0,-0.3 0.4,0.3 1.5,0.8 1.6,0.1 0.1,-0.3 0.5,-0.4 1,-0.1 0,-0.4 -0.3,-0.8 -0.7,-0.8 -0.1,0 -0.1,0 -0.2,0 -0.1,-0.6 -0.6,-0.7 -1.6,-0.4 0.1,-0.5 0.9,-0.9 0.4,-1.3 0.2,-0.5 1,-0.3 1,-0.3 -0.2,-0.5 -0.7,-0.7 -1.2,-0.6 -0.1,0 -0.2,0.1 -0.3,0.2 -0.2,-0.1 -0.5,-0.1 -0.8,0 -0.6,0.2 -1,1 -0.3,1.9 0,0.1 -0.4,0 -0.4,0.1 -0.1,0.3 0.4,0.4 0,1.3 -0.1,0.2 -0.6,0.6 -0.7,0.6 -0.1,0 0.4,-0.7 0.1,-0.9 -0.6,-0.3 -0.9,-0.4 -0.9,-1.1 0,-0.3 0.3,-0.8 1.2,-1.7 1.4,-1.4 -1.4,-2.1 0.6,-6.3 0.8,-1.8 1,-5.6 -0.7,-7.4 -2.1,-2.4 -1.8,-3.7 -1.8,-3.7 -1,0.1 -1.8,0.2 -2.2,-0.7 -0.4,-0.7 -0.1,-1.6 0.6,-2 0.1,-2.7 2,-1.6 2,-1.6 0.5,-1.2 -0.2,-2 -1,-2 -0.2,-0.3 -0.5,-0.4 -0.8,-0.3 -0.9,-1.3 -2.5,-1.8 -4,-1.2 -0.8,0.2 -1.6,0.7 -2,1.4 -0.5,1 -0.4,2.1 0.1,3 0.4,0.8 0.8,1.6 1,2.5 0.2,0.8 0.2,1.7 -0.1,2.5 -0.3,0.2 -1.3,-0.2 -2.1,-0.6 -0.8,-0.4 -0.3,-1 0.2,-1.8 0.9,-1.4 -0.1,-2.8 -1.4,-3.4 -4,-2.1 -7.4,-5.3 -9.8,-9.1 -0.7,1 -0.4,2.7 0.2,3.8 0.5,0.8 1.1,1.5 1.8,2.2 1.4,1.3 3,2.5 4.6,3.5 l 0.3,0.2 c 0.1,0.1 0.1,0.2 0,0.3 0,0.1 -0.1,0.1 -0.2,0.1 C 12.8,41.6 12.4,41.4 12,41.1 9.4,39.6 7.1,37.8 5.2,35.5 c -0.3,1.1 -0.1,2.3 0.6,3.1 0.5,0.7 1.1,1.2 1.8,1.7 0.4,0.7 0.7,0.9 1,1.1 1.1,0.7 2.2,1.3 3.4,1.8 l 0.3,0.1 c 0.1,0 0.1,0.1 0.1,0.2 0,0.1 -0.1,0.2 -0.2,0.2 h -0.1 c -0.4,-0.2 -0.9,-0.3 -1.3,-0.5 l -0.7,-0.3 -1,-0.5 C 7.6,41.7 6.3,40.9 4.9,39.9 4.8,41 5.3,42 6.1,42.7 c 0.6,0.5 1.2,0.9 1.9,1.2 1.1,0.5 2.2,0.9 3.4,1.3 l 0.3,0.1 c 0.1,0 0.1,0.1 0.1,0.2 0,0.1 -0.1,0.2 -0.2,0.2 H 11.5 C 11.1,45.6 10.6,45.5 10.2,45.4 L 9.4,45 8.4,44.7 C 7.5,44.4 6.6,44 5.7,43.6 L 5.5,43.5 c 0.1,1.1 0.8,2 1.8,2.4 1.4,0.5 2.8,0.9 4.2,1.2 0.1,0 0.2,0 0.2,0.2 0,0.2 -0.2,0.1 -0.2,0.1 C 9.9,47.3 8.2,47 6.6,46.6 c 0.3,0.9 1.1,1.6 2,1.9 1,0.2 2,0.2 3,0.2 0.1,0 0.1,0 0.1,0.1 0,0.1 -0.1,0.1 -0.1,0.1 -1.1,0.1 -2.2,0.2 -3.4,0.3 0.4,0.7 1.1,1.1 1.9,1.1 0.7,0 1.3,-0.1 1.9,-0.3 0,0 0.1,0 0.1,0 v 0.1 c -0.7,0.3 -1.3,0.5 -2,0.7 0.6,0.5 1.3,0.8 2.1,0.6 l 0.4,-0.1 c 0,0 0.1,0 0.1,0 0,0 0,0.1 0,0.1 0,0 0,0 0,0 -0.2,0.2 -0.4,0.5 -0.7,0.7 0.6,0.3 1.3,0.4 1.9,0.1 l 0.1,0.1 c -0.1,0.2 -0.2,0.5 -0.3,0.8 0.7,0.4 1.5,-0.1 1.7,0 0.2,0.1 -0.1,0.3 0.3,0.5 0.4,0.2 1.3,-0.2 1.4,-0.1 0.5,0.2 1,1.4 -1.2,5.3 -1.5,2.6 -5.3,3.3 -5.3,3.3 0.4,1 1.5,1.6 2.7,1.4 0.2,0.5 1,1.3 2.7,0.5 -0.1,-1.1 0.6,-1.6 0.8,-1.4 1,0.7 2.3,1.1 3.5,1.2 0.8,0 0.1,3.3 -1,3.6 0.3,0.8 1.3,0.5 1.5,1.4 L 17,72.2 c 0,0 -1.8,1.6 -0.4,2.9 0.8,0.9 1.6,1.8 2.5,2.6 0.7,0.8 2,0.9 2.8,0.2 0.1,-0.1 0.3,-0.2 0.4,-0.4 l 0.5,-0.6 c 0.9,0.3 1.7,0.7 2.6,1.2 l -0.7,0.8 c -0.8,0.9 -0.7,2.2 0.2,3 2.7,2.5 6,4.1 10.1,5.4 5,1.6 10.3,2.3 15.5,2.3 h 0.1 c 5.3,0 10.5,-0.7 15.5,-2.3 4.2,-1.3 7.4,-2.9 10.2,-5.4 0.9,-0.8 1,-2.1 0.2,-3 l -0.7,-0.8 c 0.8,-0.4 1.7,-0.8 2.6,-1.2 l 0.5,0.6 c 0.6,0.9 1.9,1.1 2.8,0.5 0.1,-0.1 0.3,-0.2 0.4,-0.4 0.9,-0.8 1.8,-1.7 2.6,-2.6 1.4,-1.4 -0.4,-2.9 -0.4,-2.9 l -3.8,-3.5 c 0.2,-0.9 1.2,-0.6 1.5,-1.4 -1.1,-0.3 -1.8,-3.6 -1,-3.6 1.3,-0.1 2.5,-0.5 3.5,-1.2 0.3,-0.2 0.9,0.3 0.8,1.4 1.7,0.7 2.5,0 2.7,-0.5 1.1,0.2 2.2,-0.3 2.7,-1.4 0,0 -3.8,-0.7 -5.3,-3.3 -2.3,-4 -1.7,-5.1 -1.2,-5.3 0.1,-0.1 0.9,0.2 1.4,0.1 0.5,-0.1 0.1,-0.5 0.3,-0.5 0.2,0 1.1,0.4 1.7,0 0,-0.3 -0.1,-0.5 -0.3,-0.8 L 87.4,52 c 0.6,0.3 1.3,0.2 1.9,-0.1 -0.2,-0.2 -0.5,-0.4 -0.7,-0.7 0,0 0,-0.1 0,-0.1 0,0 0.1,0 0.1,0 l 0.4,0.1 c 0.8,0.2 1.6,-0.1 2.1,-0.6 -0.7,-0.2 -1.3,-0.4 -2,-0.7 0,0 0,-0.1 0,-0.1 0,0 0,0 0,0 0,0 0.1,0 0.1,0 0.6,0.2 1.2,0.3 1.8,0.3 0.8,0 1.5,-0.4 1.9,-1.1 -1.1,0 -2.3,-0.1 -3.4,-0.3 0,0 -0.1,0 -0.1,-0.1 0,-0.1 0.1,-0.1 0.1,-0.1 1,0 2,0 3,-0.2 0.9,-0.3 1.7,-1 2,-1.9 -1.6,0.4 -3.2,0.6 -4.8,0.7 0,0 -0.2,0 -0.2,-0.1 0,-0.1 0.1,-0.2 0.2,-0.2 1.4,-0.2 2.8,-0.6 4.2,-1.2 1,-0.4 1.7,-1.4 1.8,-2.4 l -0.2,0.1 c -1.1,0.7 -2,1 -2.9,1.4 z"
     id="path22" /><path
     class="st0"
     d="M 71.3,76.8 C 71.2,76.9 71,77 70.9,77.1 l 3.8,4.4 0.3,-0.3 z m -41.5,0 -3.8,4.4 0.4,0.3 3.9,-4.4 z m 33.2,4 c -4.1,1.1 -8.3,1.7 -12.5,1.7 -4.2,0 -8.4,-0.5 -12.5,-1.7 -2.5,-0.7 -4.8,-1.7 -7,-3.1 l -4,4.4 c 2.8,2 6,3.4 9.3,4.3 4.6,1.3 9.3,1.9 14.1,1.9 4.8,0 9.5,-0.6 14.1,-1.9 3.3,-0.9 6.5,-2.4 9.3,-4.3 L 70,77.7 c -2.1,1.4 -4.5,2.4 -7,3.1 z"
     id="path24" /><path
     class="st2"
     d="m 34.2,84.6 c 0.1,0 0.2,0 0.4,0 0.1,0 0.2,-0.1 0.2,-0.2 0.2,-0.2 0.5,-0.5 0.8,-0.9 l 1.8,-2.2 0.4,0.1 0.4,3.6 c 0,0.3 0.1,0.5 0.1,0.8 0.1,0.1 0.2,0.2 0.4,0.2 l -0.1,0.3 -0.9,-0.3 -1,-0.3 0.1,-0.3 c 0.1,0 0.3,0.1 0.4,0.1 0,0 0.1,0 0.1,-0.1 0,-0.1 0,-0.3 0,-0.4 V 84.4 L 36.5,84.1 C 36.2,84 36,83.9 35.8,83.9 l -0.2,0.3 -0.3,0.4 c 0,0 0,0.1 0,0.1 0,0 0,0.1 0,0.1 0.1,0.1 0.3,0.1 0.4,0.2 l -0.1,0.3 C 35.2,85.1 35,85 34.7,85 34.4,84.9 34.2,84.9 34,84.8 Z m 2.8,-2.3 -1.1,1.3 c 0.2,0.1 0.4,0.1 0.6,0.2 l 0.7,0.2 z m 2,4 V 86 h 0.5 c 0,0 0.1,-0.2 0.1,-0.4 0.1,-0.5 0.2,-1 0.3,-1.6 0,-0.3 0.1,-0.7 0.2,-1.1 0,-0.1 0,-0.3 0,-0.4 0,0 0,-0.1 0,-0.1 L 39.7,82.3 V 82 l 0.7,0.1 0.8,0.1 c 0.1,0.3 0.1,0.6 0.2,0.8 0.1,0.2 0.3,1 0.7,2.5 0.9,-1.3 1.6,-2.2 2,-2.8 l 0.7,0.1 0.8,0.1 v 0.3 c -0.2,0 -0.3,0 -0.5,0 0,0 -0.1,0.1 -0.1,0.3 0,0.2 -0.2,0.7 -0.3,1.4 -0.1,0.4 -0.1,0.7 -0.2,1.1 0,0.2 -0.1,0.5 -0.1,0.7 0,0 0,0.1 0,0.1 0.1,0.1 0.3,0.1 0.4,0.1 v 0.3 c -0.3,-0.1 -0.6,-0.1 -0.9,-0.2 -0.3,-0.1 -0.6,0 -1,0 v -0.3 h 0.5 c 0.1,-0.1 0.1,-0.2 0.1,-0.3 0,-0.1 0.1,-0.5 0.2,-1 L 44,83.6 c -0.4,0.6 -1,1.3 -1.6,2.3 -0.3,0.4 -0.5,0.7 -0.6,0.9 H 41.6 C 41.5,86.4 41.4,86 41.2,85.4 l -0.7,-2.3 -0.1,0.4 c -0.2,1.1 -0.3,1.9 -0.4,2.4 0,0.1 0,0.2 0,0.3 0.1,0.1 0.3,0.1 0.4,0.2 v 0.3 C 40.2,86.6 40,86.6 39.8,86.6 L 39,86.3 m 6.2,0.7 c 0.1,0 0.2,0 0.4,0 0.1,-0.1 0.1,-0.1 0.2,-0.2 0.1,-0.3 0.3,-0.6 0.5,-1.1 l 1.3,-2.6 h 0.5 l 1.2,3.4 c 0.1,0.2 0.2,0.5 0.3,0.7 0.1,0.1 0.3,0.1 0.4,0.1 v 0.3 l -1,-0.1 h -1 v -0.3 c 0.1,0 0.3,0 0.4,0 0,0 0.1,-0.1 0.1,-0.1 0,-0.1 -0.1,-0.3 -0.1,-0.4 l -0.1,-0.6 h -1.6 l -0.2,0.3 c -0.1,0.1 -0.1,0.3 -0.2,0.4 0,0 0,0.1 0,0.1 0,0 0,0.1 0.1,0.1 0.1,0 0.3,0.1 0.4,0.1 v 0.3 L 46,87.3 h -0.7 z m 2.2,-2.9 -0.7,1.5 H 48 Z m 5.1,1.8 v -0.3 h 1.9 v 0.2 L 54.1,86 c 0,0.2 0,0.4 0,0.5 v 0.6 c -0.3,0.1 -0.7,0.2 -1,0.3 -0.3,0.1 -0.6,0.1 -0.8,0.1 -0.7,0.1 -1.4,-0.1 -1.9,-0.6 -0.5,-0.4 -0.7,-1 -0.7,-1.6 0,-0.6 0.2,-1.2 0.6,-1.6 0.6,-0.5 1.3,-0.7 2,-0.7 0.3,0 0.6,0 0.9,0 0.3,0 0.5,0.1 0.8,0.2 -0.1,0.3 -0.1,0.7 -0.1,1 h -0.3 c 0,-0.2 0,-0.3 0,-0.5 -0.1,-0.2 -0.3,-0.3 -0.5,-0.3 -0.2,-0.1 -0.5,-0.1 -0.7,-0.1 -0.5,0 -0.9,0.2 -1.3,0.5 -0.3,0.4 -0.5,0.8 -0.4,1.3 0,0.5 0.2,1 0.5,1.4 0.3,0.3 0.8,0.5 1.2,0.5 0.3,0 0.6,-0.1 0.8,-0.2 0,-0.1 0,-0.3 0,-0.4 0,-0.2 0,-0.4 -0.1,-0.5 -0.1,0 -0.4,0 -0.6,0 m 2.3,1.2 c 0.1,0 0.2,-0.1 0.3,-0.1 0.1,-0.1 0.1,-0.2 0.1,-0.3 0.1,-0.3 0.2,-0.7 0.3,-1.2 l 0.8,-2.8 0.5,-0.1 1.8,3.1 c 0.1,0.2 0.2,0.4 0.4,0.6 0.1,0 0.3,0 0.4,0 v 0.3 c -0.3,0 -0.7,0.1 -1,0.1 l -1,0.1 v -0.3 c 0.1,0 0.3,0 0.4,-0.1 v -0.1 c 0,-0.1 -0.1,-0.2 -0.2,-0.4 l -0.3,-0.5 -0.9,0.1 -0.7,0.1 -0.1,0.4 c 0,0.1 -0.1,0.3 -0.1,0.4 0,0 0,0.1 0,0.1 0,0 0,0.1 0.1,0.1 H 56 v 0.3 c -0.2,0 -0.5,0 -0.8,0.1 -0.3,0.1 -0.5,0.1 -0.7,0.1 z m 1.6,-3.2 -0.4,1.6 0.6,-0.1 0.7,-0.1 z m 4.8,2.6 -0.1,-0.3 c 0.2,0 0.3,-0.1 0.4,-0.2 V 85.8 C 61.4,85.4 61.3,85 61.2,84.5 61.1,84.1 61,83.7 60.9,83.3 60.8,83 60.8,82.8 60.7,82.6 h -0.1 c -0.1,0 -0.3,0 -0.4,0 l -0.1,-0.3 1,-0.2 1.2,-0.3 0.7,-0.2 0.4,-0.1 v 0.1 c 0,0.3 0.1,0.6 0.1,0.9 l -0.3,0.1 -0.1,-0.3 c 0,-0.1 0,-0.1 -0.1,-0.2 h -0.2 c -0.2,0 -0.4,0.1 -0.5,0.1 l -0.5,0.2 c 0.1,0.3 0.1,0.6 0.1,0.7 l 0.2,0.6 v 0.1 l 0.4,-0.1 c 0.2,0 0.4,-0.1 0.5,-0.2 0,0 0.1,0 0.1,-0.1 0,-0.1 0,-0.3 0,-0.4 l 0.3,-0.1 0.1,0.5 c 0,0.2 0.1,0.4 0.2,0.8 l -0.3,0.1 c 0,-0.2 -0.1,-0.3 -0.2,-0.4 h -0.1 c -0.2,0 -0.4,0.1 -0.6,0.1 h -0.4 l 0.3,1.1 c 0,0.2 0.1,0.3 0.2,0.5 0,0 0.1,0 0.1,0 0.2,0 0.3,0 0.5,-0.1 l 0.1,0.3 -0.9,0.2 -1.2,0.5 m 3.6,-2 c 0.3,-0.1 0.5,0.1 0.6,0.3 0,0.1 0,0.3 0,0.4 -0.1,0.2 -0.4,0.3 -0.7,0.2 -0.1,-0.1 -0.2,-0.2 -0.2,-0.3 -0.1,-0.1 -0.1,-0.3 0,-0.4 0.1,0 0.2,-0.1 0.3,-0.2 M 69.6,83 v 0 l 0.1,0.3 c -0.2,0.2 -0.3,0.4 -0.5,0.5 -0.2,0.1 -0.4,0.3 -0.7,0.4 -0.4,0.2 -0.9,0.3 -1.4,0.3 -0.4,0 -0.8,-0.2 -1.1,-0.4 -0.3,-0.3 -0.6,-0.6 -0.7,-1 -0.3,-0.5 -0.3,-1.2 0,-1.7 0.3,-0.6 0.9,-1.1 1.5,-1.3 0.2,-0.1 0.5,-0.2 0.8,-0.2 0.3,-0.1 0.5,-0.1 0.8,-0.1 0,0.1 0,0.2 0,0.3 0,0.2 0.1,0.4 0.2,0.6 l -0.2,0.1 c -0.1,-0.2 -0.1,-0.3 -0.2,-0.5 -0.1,0 -0.1,-0.1 -0.2,-0.1 -0.1,0 -0.3,0 -0.4,0 -0.2,0 -0.4,0.1 -0.6,0.1 -0.4,0.1 -0.7,0.5 -0.9,0.9 -0.1,0.5 0,1 0.2,1.4 0.2,0.5 0.5,0.9 1,1.1 0.5,0.2 1,0.2 1.4,0 0.2,-0.1 0.4,-0.2 0.6,-0.3 -0.1,0 0.1,-0.2 0.3,-0.4 m 0.6,-0.7 c 0.1,0 0.3,0 0.4,0 0.1,0 0.2,0.1 0.3,0.2 0.1,0.1 0.1,0.3 0,0.4 -0.1,0.3 -0.3,0.4 -0.6,0.3 -0.1,0 -0.2,-0.1 -0.3,-0.3 -0.1,-0.1 -0.1,-0.3 0,-0.4 0,0 0.1,-0.1 0.2,-0.2"
     id="path26" /><path
     class="st1"
     d="m 76.7,40.5 c -0.5,-0.3 -0.7,-0.4 -1.1,-0.3 0,0 -0.2,-0.7 0.8,-0.6 0,0 -0.2,0.4 0.2,0.5 0.4,0.1 0.4,-0.2 0.4,-0.2 0,0 0.3,0.9 -0.3,0.6 m 3.8,-1.2 c 0,-0.4 -0.3,-0.4 -0.4,-0.3 -0.1,0.1 -0.5,0.1 -0.6,-0.1 -0.1,-0.2 -0.2,-0.2 -0.4,-0.2 0,0 -0.1,0 -0.1,0.1 -0.1,0.1 -0.4,0.1 -0.5,0 0,0 0,0 0,0 -0.1,-0.1 -0.3,-0.1 -0.4,0 0,0 -0.1,0.1 -0.1,0.2 -0.1,0.2 -0.6,0.3 -0.6,0.3 0,0 -0.1,-0.1 0,-0.2 1.1,-1.1 2.9,-1.1 4,0 0.4,0.4 0.7,0.9 0.8,1.5 0,0.1 0,2.6 -2.2,1.8 -0.1,0.6 -0.7,0.9 -1.2,0.9 0.3,-0.7 -0.9,-0.9 -1.2,-1.1 -0.2,-0.2 -0.2,-0.4 0,-0.6 0,0 0,0 0.1,-0.1 0.2,-0.1 0.3,-0.4 0.2,-0.7 0,-0.1 -0.1,-0.1 -0.1,-0.1 -0.3,-0.2 -0.3,-0.5 0,-0.5 0.2,0.1 0.4,0.2 0.5,0.5 0.1,0.2 0.4,0.6 0.6,0.4 0.1,-0.2 0.3,-0.2 0.5,-0.2 0.7,0.2 1.4,-0.1 1.6,-0.8 0,-0.1 0.1,-0.2 0.1,-0.3 -0.1,-0.2 -0.6,-0.2 -0.6,-0.5"
     id="path28" /><path
     class="st1"
     d="m 78.9,39.6 c 0,0.2 -0.2,0.4 -0.4,0.4 v 0 c -0.2,0 -0.4,-0.2 -0.4,-0.3 0,0 0,0 0,0 0,-0.2 0.2,-0.4 0.4,-0.4 v 0 c 0.2,-0.1 0.4,0.1 0.4,0.3 m -1.6,7.9 c 0.3,-0.1 0.8,-1 0.9,-1.5 0.2,-1.5 2.1,-1.3 2.1,-1.3 0,0 -2.3,2 -0.2,3.7 C 80,49 79.7,49.5 79.3,49.9 77.2,49 77.3,51.1 76.8,51 76,50.7 76,49.6 76,49.6 c -0.2,0.4 -0.5,0.8 -0.9,1.1 -0.8,0.8 -1.3,2.2 -0.6,4.5 0.4,1.3 -0.6,0.1 -0.6,0 -1.2,-4 0.3,-5.3 0.8,-5.8 0.6,-0.7 1.1,-1.5 1.4,-2.3 0.5,-1.5 0.6,0.6 1.2,0.4 m -52.9,-7 c -0.7,0.3 -0.3,-0.6 -0.3,-0.6 0,0 0,0.3 0.4,0.2 0.4,-0.1 0.2,-0.5 0.2,-0.5 0.9,-0.1 0.8,0.6 0.8,0.6 -0.4,-0.1 -0.6,0 -1.1,0.3 m -3.8,-1.2 c 0,0.4 -0.5,0.4 -0.5,0.4 0.1,0.7 0.7,1.2 1.4,1.1 0.1,0 0.2,0 0.3,-0.1 0.2,0 0.4,0 0.5,0.2 0.2,0.2 0.4,-0.2 0.6,-0.4 0.1,-0.2 0.3,-0.4 0.5,-0.5 0.2,-0.1 0.2,0.3 0,0.5 -0.2,0.2 -0.2,0.5 0,0.7 0,0.1 0.1,0.1 0.2,0.1 0.2,0.1 0.3,0.4 0.1,0.6 0,0 0,0.1 -0.1,0.1 -0.2,0.3 -1.4,0.4 -1.2,1.1 -0.6,0 -1.1,-0.3 -1.2,-0.9 C 19,43 19,40.5 19,40.4 c 0.3,-1.5 1.7,-2.6 3.3,-2.3 0.6,0.1 1.1,0.4 1.5,0.8 0.1,0.1 0,0.2 0,0.2 0,0 -0.7,0 -0.7,-0.3 0,-0.2 -0.2,-0.3 -0.3,-0.3 -0.1,0 -0.1,0 -0.2,0.1 -0.1,0.1 -0.3,0.1 -0.5,0 0,0 0,0 0,0 -0.1,-0.1 -0.3,-0.1 -0.4,0 0,0 -0.1,0.1 -0.1,0.1 -0.1,0.2 -0.3,0.2 -0.6,0.1 -0.3,-0.1 -0.4,0.1 -0.4,0.5"
     id="path30" /><path
     class="st1"
     d="m 22.2,39.6 c 0,0.2 0.2,0.4 0.4,0.4 0.2,0 0.4,-0.2 0.4,-0.4 0,0 0,0 0,0 0,-0.2 -0.2,-0.4 -0.4,-0.4 -0.3,0 -0.4,0.2 -0.4,0.4 m 1.6,7.9 c -0.3,-0.1 -0.8,-1 -0.9,-1.5 -0.2,-1.5 -2.1,-1.3 -2.1,-1.3 0,0 2.4,2 0.2,3.7 0.1,0.6 0.4,1.1 0.8,1.5 2.1,-0.9 2,1.2 2.5,1.1 0.7,-0.2 0.7,-1.4 0.7,-1.4 0.2,0.4 0.5,0.8 0.9,1.1 0.8,0.8 1.3,2.2 0.6,4.5 -0.4,1.3 0.6,0.1 0.6,0 1.2,-4 -0.3,-5.3 -0.8,-5.8 -0.6,-0.7 -1.1,-1.5 -1.4,-2.3 -0.5,-1.5 -0.6,0.6 -1.1,0.4"
     id="path32" /><path
     class="st0"
     d="m 79.5,69.9 -0.3,0.3 4.3,4 c 0.1,-0.1 0.2,-0.2 0.3,-0.3 z m -3,3 3.9,4.4 c 0.8,-0.7 1.6,-1.5 2.3,-2.2 l -4.3,-4 c -0.5,0.5 -1.2,1.2 -1.9,1.8 z m -1.1,0.9 -1,-1.1 c 0,0 -0.6,-0.6 0.3,-1.7 0.1,-0.1 0.1,-0.2 0,-0.2 -0.1,-0.1 -0.2,-0.1 -0.3,-0.1 -2.4,1 -4.7,2.4 -6.8,4 -0.1,0.1 -0.2,0.4 -0.1,0.5 0.1,0.2 0.4,0.2 0.6,0.1 0.8,-0.5 1.6,-0.9 2.4,-1.2 1.4,-0.5 1.7,0 1.7,0 l 2.5,2.9 c 0.8,-0.4 1.7,-0.8 2.5,-1.2 z m -58.1,0.1 0.3,0.3 4.3,-4 C 21.8,70.1 21.7,70 21.6,69.9 Z m 5.3,-2.9 -4.3,4 c 0.8,0.8 1.5,1.5 2.3,2.2 l 3.9,-4.4 C 23.9,72.3 23.2,71.6 22.6,71 Z m 3,2.8 1,-1.1 c 0,0 0.6,-0.6 -0.3,-1.7 0,-0.1 0,-0.2 0,-0.2 0.1,-0.1 0.2,-0.1 0.3,-0.1 2.4,1 4.7,2.4 6.8,4 0.1,0.1 0.2,0.4 0.1,0.5 -0.1,0.2 -0.4,0.2 -0.6,0.1 -0.8,-0.5 -1.6,-0.9 -2.4,-1.2 -1.4,-0.5 -1.7,0 -1.7,0 L 26.3,77 c -0.8,-0.4 -1.7,-0.8 -2.5,-1.2 z"
     id="path34" /><path
     class="st2"
     d="M 37.6,31.9 H 37 l -1,3 -1,-3 h -1.4 v 0.2 h 0.3 c 0,0.1 0,0.2 0,0.3 v 3.3 c 0,0.1 0,0.2 0,0.3 0,0 -0.1,0.1 -0.2,0.1 h -0.2 v 0.3 l 0.7,-0.1 h 0.5 v -0.1 h -0.4 c 0,-0.1 0,-0.1 0,-0.2 v -3.6 0.1 l 1.2,3.8 h 0.2 l 1.2,-3.5 v 2.8 c 0,0.1 0,0.1 0,0.2 -0.1,0 -0.1,0.1 -0.2,0.1 h -0.2 v 0.3 l 0.9,-0.1 c 0.2,0 0.7,-0.1 0.7,-0.1 v -0.3 h -0.3 v -3.2 -0.2 c 0.1,-0.1 0.2,-0.1 0.3,-0.1 V 31.9 Z M 56.1,35 c 0,-0.2 0,-0.3 0,-0.5 v -2.1 c 0,-0.1 0,-0.1 0,-0.2 h 0.3 V 32 h -1.2 c -0.2,0.5 -0.6,1.3 -1.1,2.3 L 53.3,32.6 C 53.2,32.4 53.1,32.2 53,32 h -1.3 v 0.1 H 52 c 0,0.1 0,0.2 0,0.3 v 2.4 c 0,0 -0.1,0 -0.2,0 h -0.2 v 0.3 H 53 v -0.3 c -0.1,0 -0.2,0 -0.3,-0.1 0,-0.1 0,-0.2 0,-0.2 v -2 l 0.8,1.5 c 0.2,0.4 0.4,0.7 0.5,1 h 0.2 c 0.1,-0.2 0.2,-0.5 0.4,-0.8 0.3,-0.7 0.6,-1.3 0.9,-1.8 v 2.1 c 0,0.1 0,0.1 0,0.2 H 55 V 35 h 1.5 v 0.1 z M 45,31.9 h -3 v 0.8 h 0.3 V 32.3 H 43 v 2.8 c 0,0 0,0.1 0,0.1 h -0.4 v 0.3 c 0,0 0.5,-0.1 0.9,-0.1 h 0.8 v -0.3 h -0.4 c 0,-0.1 0,-0.1 0,-0.2 v -2.6 c 0,0 0,-0.1 0,-0.1 0.3,0 0.5,0 0.8,0 h 0.1 v 0.4 H 45 c 0,0 0,-0.6 0.1,-0.8 v 0 z m 15.1,0.7 C 60,32.4 59.7,32.2 59.5,32 c -0.3,-0.1 -0.7,-0.2 -1,-0.2 -0.3,0 -0.7,0.1 -1,0.2 -0.3,0.1 -0.5,0.3 -0.6,0.6 -0.2,0.3 -0.2,0.7 -0.2,1 0,0.1 0,0.3 0,0.4 0,0.4 0.2,0.7 0.4,1 0.4,0.3 0.9,0.5 1.4,0.5 h 0.2 c 0.3,0 0.5,-0.1 0.8,-0.2 0.3,-0.1 0.5,-0.3 0.7,-0.6 0.2,-0.3 0.2,-0.7 0.2,-1 v -0.4 c -0.1,-0.1 -0.1,-0.4 -0.3,-0.7 z m -0.9,2.3 c -0.2,0.2 -0.4,0.3 -0.6,0.3 h -0.1 c -0.2,0 -0.4,-0.1 -0.6,-0.2 -0.2,-0.1 -0.3,-0.3 -0.4,-0.5 -0.1,-0.3 -0.1,-0.7 -0.1,-1 0,-0.4 0.1,-0.7 0.3,-1 0.2,-0.2 0.5,-0.3 0.8,-0.3 0.3,0 0.6,0.1 0.8,0.3 0.2,0.3 0.3,0.7 0.3,1.1 V 34 c -0.1,0.3 -0.2,0.7 -0.4,0.9 z m 8.3,-1.5 c 0,-0.3 -0.1,-0.6 -0.2,-0.8 C 67.2,32.4 67,32.2 66.7,32 66.4,31.8 66,31.8 65.7,31.8 h -0.1 c -0.3,0 -0.6,0.1 -0.9,0.2 -0.3,0.1 -0.5,0.3 -0.7,0.6 -0.2,0.3 -0.3,0.7 -0.3,1 v 0.9 c 0,0.5 0.2,0.9 0.4,1.3 0.3,0.3 0.8,0.5 1.3,0.5 0.2,0 0.4,0 0.5,0 0.2,0 0.4,0 0.6,-0.1 0.3,-0.1 0.5,-0.3 0.7,-0.5 0.2,-0.3 0.3,-0.7 0.3,-1.1 z m -1.9,-1.2 c 0.3,0 0.6,0.1 0.8,0.3 0.2,0.3 0.3,0.7 0.3,1.1 v 1.1 c 0,0.4 -0.1,0.7 -0.3,1 -0.2,0.2 -0.4,0.2 -0.7,0.2 h -0.1 c -0.2,0 -0.4,-0.1 -0.6,-0.2 -0.2,-0.1 -0.3,-0.3 -0.4,-0.5 -0.1,-0.3 -0.1,-0.5 -0.1,-0.8 v -1 c 0,-0.4 0.1,-0.7 0.3,-1 0.2,-0.2 0.5,-0.3 0.8,-0.2 z m -2,-0.3 h -3 v 0.8 h 0.3 c 0,-0.1 0,-0.3 0,-0.4 h 0.8 v 3.1 c 0,0 0,0.1 0,0.1 h -0.4 v 0.3 c 0.2,0 0.5,0 0.8,0.1 l 0.7,0.1 v -0.3 c -0.1,0 -0.2,0 -0.3,-0.1 v -0.2 -3 c 0,0 0,-0.1 0,-0.1 0.2,0 0.5,0 0.7,0 0,0.1 0,0.3 0,0.4 h 0.3 c 0,-0.3 0,-0.5 0.1,-0.8 z m -21.8,3.3 -1.3,-3.4 h -0.4 l -1.3,3.5 c 0,0.1 -0.1,0.1 -0.1,0.2 l -0.3,0.1 v 0.3 c 0,0 0.4,-0.1 0.6,-0.1 h 0.6 v -0.3 h -0.4 c 0,0 0,-0.1 0,-0.1 l 0.2,-0.6 h 1.2 l 0.2,0.6 c 0,0 0,0.1 -0.1,0.1 h -0.3 v 0.3 c 0,0 0.6,-0.1 0.9,-0.1 H 42 V 35.4 C 41.8,35.3 41.8,35.2 41.8,35.2 Z M 40,34.4 h -0.5 l 0.5,-1.5 0.5,1.5 z m 11.1,-2.5 h -0.6 v 0.3 c 0.1,0 0.2,0 0.3,0 0,0.1 0,0.2 0,0.3 v 0.9 c 0,0.3 0,0.6 -0.1,1 0,0.1 -0.1,0.2 -0.3,0.3 -0.2,0.1 -0.4,0.1 -0.6,0.1 -0.2,0 -0.3,0 -0.5,-0.1 C 49.2,34.6 49.1,34.6 49.1,34.5 49,34.3 49,34.2 49,34 v -0.9 -0.8 c 0,0 0,-0.1 0,-0.1 0.1,0 0.2,0 0.3,0 v -0.3 h -1.5 v 0.3 c 0.1,0 0.2,0 0.3,0 0,0.1 0,0.1 0,0.2 v 1.7 c 0,0.2 0,0.4 0.1,0.6 0.1,0.2 0.3,0.3 0.5,0.4 0.3,0.1 0.5,0.1 0.8,0.1 0.3,0 0.5,0 0.8,-0.2 0.2,-0.1 0.4,-0.2 0.5,-0.4 0.1,-0.2 0.1,-0.4 0.2,-0.6 v -0.6 -1.2 c 0,-0.1 0,-0.2 0.1,-0.3 0.1,0 0.2,0 0.3,0 v -0.3 z m -3.8,1.4 c -0.2,0 -0.4,-0.1 -0.5,-0.1 -0.2,0 -0.4,0 -0.6,-0.1 -0.1,0 -0.1,-0.1 -0.2,-0.1 0,-0.1 -0.1,-0.2 -0.1,-0.2 0,-0.1 0.1,-0.3 0.2,-0.4 0.1,-0.1 0.3,-0.2 0.5,-0.2 0.1,0 0.2,0 0.4,0.1 0.1,0 0.2,0.1 0.2,0.1 0,0.1 0,0.2 0,0.3 h 0.3 v -0.3 c 0,-0.1 0,-0.2 0,-0.3 v 0 C 47.4,32 47.2,32 47.1,32 47,32 46.9,32 46.7,32 h -0.1 c -0.4,0 -0.7,0.1 -1,0.4 -0.2,0.2 -0.3,0.5 -0.3,0.8 0,0.2 0,0.3 0.1,0.5 0.1,0.1 0.2,0.2 0.3,0.3 0.2,0.1 0.5,0.1 0.8,0.1 0.2,0 0.3,0.1 0.5,0.2 0.1,0.1 0.1,0.2 0.1,0.3 0,0.2 -0.1,0.3 -0.2,0.4 -0.1,0.1 -0.3,0.2 -0.5,0.2 v 0 c -0.1,0 -0.2,0 -0.3,0 -0.1,0 -0.2,-0.1 -0.3,-0.1 -0.1,0 -0.1,-0.1 -0.1,-0.1 0,-0.1 0,-0.3 0,-0.4 h -0.3 v 0.5 c 0,0.1 -0.1,0.2 -0.1,0.3 0.1,0.1 0.3,0.2 0.5,0.2 0.1,0 0.3,0 0.4,0 h 0.1 c 0.4,0 0.8,-0.1 1.1,-0.4 0.3,-0.2 0.4,-0.5 0.4,-0.9 0,-0.2 0,-0.3 -0.1,-0.5 -0.1,-0.3 -0.2,-0.4 -0.4,-0.5 z m -12.1,47.3 -0.1,0.2 c 0.1,0 0.1,0.1 0,0.2 -0.7,0.5 -1.5,1.1 -1.5,1.1 0,-0.5 -0.2,-1.4 -0.3,-2 0,0 0,-0.1 0.2,-0.1 l 0.1,-0.2 c -0.7,-0.3 -1.4,-0.7 -1.4,-0.7 l -0.1,0.2 c 0.2,0.1 0.3,0.2 0.3,0.4 0,0.1 0.2,1.1 0.3,1.6 0.1,0.3 0.1,0.6 0.1,0.9 0,0.2 -0.1,0.3 -0.2,0.5 V 83 l -0.3,0.5 c 0,0.1 -0.1,0.1 -0.2,0.1 -0.1,0 -0.3,-0.1 -0.4,-0.1 l -0.1,0.2 c 0.4,0.2 0.7,0.3 1,0.4 0.3,0.1 0.6,0.3 0.8,0.4 l 0.1,-0.2 c -0.2,-0.1 -0.3,-0.1 -0.4,-0.2 0,-0.1 0,-0.1 0,-0.2 0.1,-0.2 0.2,-0.5 0.4,-1 0.1,-0.1 0.1,-0.3 0.2,-0.4 0.4,-0.3 0.8,-0.6 1.2,-0.9 l 0.5,-0.3 c 0.1,-0.1 0.3,-0.1 0.5,-0.1 H 36 L 36.1,81 c 0,0 -0.4,-0.2 -0.9,-0.4 z"
     id="path36" /></g>
</svg>
