<svg height="1000" viewBox="0 0 1000 1000" width="1000" xmlns="http://www.w3.org/2000/svg"><g transform="matrix(1.4795382 0 0 1.4795382 -258.75036 -412.15699)"><g transform="matrix(3.1703654 0 0 3.1703654 -752.52606 -330.82129)"><path d="M 361.692 251.769" fill="#fff"/><g><g><path d="m 361.645 252.267 c .639 0 .738 -.996 .094 -.996 c -.638 0 -.737 .996 -.094 .996 z"/></g></g></g><path d="m 292.80365 315.43233 c 9.39379 -12.81778 27.62656 -18.94927 41.8837 -19.96379 c 7.78324 19.71016 7.35841 52.11764 -2.49825 73.69198 c -10.55415 22.97246 -55.5448 89.76572 -63.66728 105.48122 l -9.33038 -35.74587 c 10.64291 -8.50292 36.15167 -35.34323 33.99265 -57.42482 c -1.98782 -20.09378 -20.81345 -24.72568 -32.3187 -24.15502 c 3.42716 -15.48723 14.8912 -30.8001 23.43534 -35.3686 l 13.57867 5.37377 l -5.07575 -11.88887" fill="#005aaa" stroke-width="3.17037"/><path d="m 272.8145 461.44668 c 4.44168 -9.5428 49.89838 -77.99099 55.86183 -92.41615 c 15.23044 -36.92841 3.57618 -69.18371 3.57618 -69.18371 c 0 0 -19.44068 .69431 -30.05507 13.89571 l 7.14918 21.42533 l -22.2528 -8.18588 c 0 0 -9.60304 7.61521 -14.51076 22.67445 c 0 0 66.18455 15.10362 -4.42266 92.09594 l 4.6541 19.69431" fill="#ba9753" stroke-width="3.17037"/><path d="m 240.09315 418.90989 c 6.70533 -14.42833 23.39413 -23.94577 37.20424 -27.70899 c 11.44502 17.8333 17.30386 49.71133 11.80644 72.74403 c -5.862 24.55765 -37.06157 98.88687 -41.90272 115.84832 l -16.11813 -33.20957 c 8.75654 -10.44636 28.59669 -41.70933 22.20841 -62.94761 c -5.83665 -19.3741 -25.21392 -20.22376 -36.42116 -17.47505 c .33606 -15.82013 8.67095 -33.0796 16.11814 -39.18889 l 14.38077 2.5997 l -7.27599 -10.66194" fill="#005aaa" stroke-width="3.17037"/><path d="m 248.80849 566.04655 c 2.51727 -10.21809 33.82146 -86.21809 36.89037 -101.53095 c 7.71667 -39.15402 -9.96446 -68.57818 -9.96446 -68.57818 c 0 0 -18.93342 4.48924 -26.7991 19.46288 l 11.16603 19.67211 l -23.39413 -3.74737 c 0 0 -7.95127 9.33039 -9.83447 25.06491 c 0 0 67.85533 1.98782 13.55648 91.21141 l 8.37928 18.44519" fill="#ba9753" stroke-width="3.17037"/><path d="m 199.22714 537.82713 c .80211 -15.86451 12.64659 -30.96496 24.0504 -39.68347 c 17.32287 12.2281 34.79476 39.47422 38.34874 62.91273 c 3.84882 24.99833 2.95795 105.54464 4.84114 123.14334 l -27.47438 -24.74471 c 4.22926 -12.92241 10.82997 -49.36893 -3.12915 -66.60937 c -12.69415 -15.75989 -30.96813 -9.24479 -40.27315 -2.47923 c -5.66862 -14.80243 -4.48607 -33.87852 .12681 -42.36242 l 14.29518 -3.00234 l -10.78559 -7.17453" fill="#005aaa" stroke-width="3.17037"/><path d="m 262.7898 670.82712 c -1.52495 -10.44635 -1.16352 -92.6032 -4.12465 -107.96045 c -7.57083 -39.12865 -34.98815 -59.72968 -34.98815 -59.72968 c 0 0 -15.90572 11.29601 -17.53212 28.13065 l 17.76673 13.98131 l -23.09928 5.36743 c 0 0 -3.84883 11.6606 .35825 26.94811 c 0 0 63.58485 -23.75238 46.91824 79.36375 l 14.70098 13.89888" fill="#ba9753" stroke-width="3.17037"/><path d="m 210.05711 664.06157 c -5.32938 -14.91023 -.23143 -33.46321 6.93993 -45.853 c 20.68347 4.60654 47.29551 23.1405 59.58385 43.4245 c 13.09044 21.59335 43.17087 96.34423 51.67379 111.84732 l -34.85817 -12.28517 c -1.0589 -13.58502 -8.94677 -49.81595 -28.44769 -60.37327 c -17.74771 -9.62206 -32.17604 3.34474 -38.12047 13.15702 c -10.89021 -11.48624 -17.15168 -29.56683 -16.17838 -39.12865 l 12.09812 -8.29685 l -12.69098 -2.4919" fill="#005aaa" stroke-width="3.17037"/><path d="m 319.75176 762.57116 c -5.41499 -9.07676 -36.59236 -85.09895 -45.22527 -98.12598 c -21.99599 -33.26982 -55.20557 -41.75371 -55.20557 -41.75371 c 0 0 -10.38295 16.47639 -5.41498 32.69915 l 21.74236 6.09344 l -19.2029 13.80694 c 0 0 .8877 12.20591 10.59853 24.77006 c 0 0 49.64158 -46.36025 73.77757 55.27215 l 18.93026 7.23795" fill="#ba9753" stroke-width="3.17037"/><path d="m 265.4751 777.60503 c -11.21041 -11.25163 -14.42516 -30.20407 -13.17921 -44.50242 c 20.72785 -4.56849 52.69147 .9099 72.40481 14.07008 c 20.98147 14.0257 79.89003 68.93009 94.21057 79.38278 l -36.8016 3.63324 c -6.72751 -11.88253 -29.18955 -41.28767 -51.33772 -42.59386 c -20.20157 -1.22693 -27.73119 16.68881 -28.97714 28.08627 c -14.74537 -5.75421 -28.07042 -19.52311 -31.19957 -28.61889 l 7.4028 -12.60854 l -12.52294 3.15134" fill="#005aaa" stroke-width="3.17037"/><path d="m 406.54051 820.294 c -8.73753 -5.92541 -69.19006 -61.55581 -82.51827 -69.71633 c -34.07509 -20.81662 -67.76973 -14.38395 -67.76973 -14.38395 c 0 0 -2.37144 19.33289 9.01018 31.89704 l 22.294 -3.67762 l -11.59085 20.64542 c 0 0 6.00784 10.69998 20.13816 17.89671 c 0 0 25.27415 -62.99199 90.25713 18.82563 l 20.17938 -1.4869" fill="#ba9753" stroke-width="3.17037"/><path d="m 365.63011 857.60603 c -14.53295 -6.39145 -24.43083 -22.82346 -28.5745 -36.5987 c 17.63991 -11.84131 49.36893 -18.44201 72.55064 -13.45186 c 24.66227 5.37377 99.58435 34.90573 116.76456 39.43301 l -32.9179 16.81245 c -10.57634 -8.52195 -42.30536 -27.68363 -63.39146 -20.81028 c -19.25046 6.26147 -19.69431 25.66094 -16.64759 36.74453 c -15.86451 .0444 -33.29201 -7.86884 -39.55665 -15.1702 l 2.28583 -14.48857 l -10.51293 7.52962" fill="#005aaa" stroke-width="3.17037"/><path d="m 512.52899 845.63156 c -10.27832 -2.28583 -86.95361 -31.89387 -102.32988 -34.60137 c -39.25864 -6.91773 -68.32455 11.40064 -68.32455 11.40064 c 0 0 4.88871 18.88586 20.05257 26.41548 l 19.39946 -11.6289 l -3.15451 23.43217 c 0 0 9.47939 7.80861 25.25513 9.34941 c 0 0 .46921 -67.94093 90.86901 -15.61088 l 18.23277 -8.75655" fill="#ba9753" stroke-width="3.17037"/><path d="m 740.59557 315.43233 c -9.39379 -12.81778 -27.58218 -18.94927 -41.8837 -19.96379 c -7.78324 19.71016 -7.35842 52.11764 2.49508 73.69198 c 10.57634 22.97246 55.52578 89.76572 63.64826 105.48122 l 9.36525 -35.74587 c -10.65559 -8.50292 -36.21191 -35.34323 -34.0085 -57.42482 c 1.94343 -20.09378 20.81027 -24.72568 32.27432 -24.15502 c -3.40181 -15.48723 -14.86585 -30.8001 -23.34658 -35.3686 l -13.62623 5.37377 l 5.0821 -11.88887" fill="#005aaa" stroke-width="3.17037"/><path d="m 760.60375 461.44668 c -4.48924 -9.5428 -49.95862 -77.99099 -55.88404 -92.41615 c -15.23043 -36.92841 -3.59836 -69.18371 -3.59836 -69.18371 c 0 0 19.44385 .69431 30.07726 13.89571 l -7.17454 21.42533 l 22.23377 -8.18588 c 0 0 9.64742 7.61521 14.55515 22.67445 c 0 0 -66.20674 15.10362 4.44168 92.09594 l -4.65092 19.69431" fill="#ba9753" stroke-width="3.17037"/><path d="m 793.35045 418.90989 c -6.74971 -14.42833 -23.41949 -23.94577 -37.23277 -27.70899 c -11.46087 17.8333 -17.33873 49.71133 -11.84132 72.74403 c 5.8842 24.55765 37.06158 98.88687 41.92492 115.84832 l 16.16252 -33.20957 c -8.79777 -10.44636 -28.66327 -41.70933 -22.2528 -62.94761 c 5.83665 -19.3741 25.23294 -20.22376 36.38312 -17.47505 c -.32021 -15.82013 -8.63291 -33.0796 -16.07693 -39.18889 l -14.38077 2.5997 l 7.31403 -10.66194" fill="#005aaa" stroke-width="3.17037"/><path d="m 784.59073 566.04655 c -2.56166 -10.21809 -33.84365 -86.21809 -36.86818 -101.53095 c -7.76105 -39.15402 9.89788 -68.57818 9.89788 -68.57818 c 0 0 18.95245 4.48924 26.7991 19.46288 l -11.12798 19.67211 l 23.35608 -3.74737 c 0 0 7.99566 9.33039 9.90105 25.06491 c 0 0 -67.90289 1.98782 -13.58501 91.21141 l -8.37294 18.44519" fill="#ba9753" stroke-width="3.17037"/><path d="m 834.12769 537.82713 c -.8021 -15.86451 -12.60537 -30.96496 -24.0282 -39.68347 c -17.32288 12.2281 -34.77257 39.47422 -38.34874 62.91273 c -3.8298 24.99833 -2.9421 105.54464 -4.84432 123.14334 l 27.47756 -24.74471 c -4.20391 -12.92241 -10.82997 -49.36893 3.15134 -66.60937 c 12.69097 -15.75989 31.00935 -9.24479 40.25096 -2.47923 c 5.66861 -14.80243 4.48607 -33.87852 -.10462 -42.36242 l -14.32054 -3.00234 l 10.76656 -7.17453" fill="#005aaa" stroke-width="3.17037"/><path d="m 770.62844 670.82712 c 1.50275 -10.44635 1.12231 -92.6032 4.0866 -107.96045 c 7.58986 -39.12865 35.04205 -59.72968 35.04205 -59.72968 c 0 0 15.86768 11.29601 17.51627 28.13065 l -17.80794 13.98131 l 23.07392 5.36743 c 0 0 3.91223 11.6606 -.31704 26.94811 c 0 0 -63.58485 -23.75238 -46.92141 79.36375 l -14.67245 13.89888" fill="#ba9753" stroke-width="3.17037"/><path d="m 823.31991 664.06157 c 5.37377 -14.91023 .25363 -33.46321 -6.93993 -45.853 c -20.66127 4.60654 -47.29551 23.1405 -59.60921 43.4245 c -13.09043 21.59335 -43.12648 96.34423 -51.65476 111.84732 l 34.88036 -12.28517 c 1.03988 -13.58502 8.92775 -49.81595 28.40964 -60.37327 c 17.7699 -9.62206 32.17287 3.34474 38.18072 13.15702 c 10.87435 -11.48624 17.13265 -29.56683 16.11813 -39.12865 l -12.0569 -8.29685 l 12.67195 -2.4919" fill="#005aaa" stroke-width="3.17037"/><path d="m 713.64746 762.57116 c 5.41499 -9.07676 36.59236 -85.09895 45.22527 -98.12598 c 21.99599 -33.26982 55.24678 -41.75371 55.24678 -41.75371 c 0 0 10.32271 16.47639 5.37377 32.69915 l -21.74236 6.09344 l 19.22826 13.80694 c 0 0 -.90989 12.20591 -10.64291 24.77006 c 0 0 -49.61939 -46.36025 -73.73636 55.27215 l -18.95245 7.23795" fill="#ba9753" stroke-width="3.17037"/><path d="m 767.92095 777.60503 c 11.19139 -11.25163 14.38395 -30.20407 13.15384 -44.50242 c -20.70565 -4.56849 -52.62489 .9099 -72.35724 14.07008 c -21.00368 14.0257 -79.9376 68.93009 -94.23595 79.38278 l 36.80478 3.63324 c 6.72751 -11.88253 29.18955 -41.28767 51.31236 -42.59386 c 20.22376 -1.22693 27.75338 16.68881 28.98031 28.08627 c 14.76122 -5.75421 28.08627 -19.52311 31.22176 -28.61889 l -7.4028 -12.60854 l 12.52294 3.15134" fill="#005aaa" stroke-width="3.17037"/><path d="m 626.83652 820.294 c 8.73753 -5.92541 69.19005 -61.55581 82.53729 -69.71633 c 34.0529 -20.81662 67.73169 -14.38395 67.73169 -14.38395 c 0 0 2.40313 19.33289 -8.97214 31.89704 l -22.29401 -3.67762 l 11.54965 20.64542 c 0 0 -6.00785 10.69998 -20.09378 17.89671 c 0 0 -25.29952 -62.99199 -90.23494 18.82563 l -20.22376 -1.4869" fill="#ba9753" stroke-width="3.17037"/><path d="m 667.74057 857.60603 c 14.55832 -6.39145 24.45303 -22.82346 28.55865 -36.5987 c -17.55431 -11.84131 -49.28333 -18.44201 -72.50625 -13.45186 c -24.66545 5.37377 -99.58435 34.90573 -116.717 39.43301 l 32.84815 16.81245 c 10.63658 -8.52195 42.34023 -27.68363 63.41365 -20.81028 c 19.2251 6.26147 19.69431 25.66094 16.64759 36.74453 c 15.86451 .0444 33.29201 -7.86884 39.55982 -15.1702 l -2.28901 -14.48857 l 10.4844 7.52962" fill="#005aaa" stroke-width="3.17037"/><path d="m 520.83852 845.63156 c 10.30369 -2.28583 86.96312 -31.89387 102.33623 -34.60137 c 39.32204 -6.91773 68.32454 11.40064 68.32454 11.40064 c 0 0 -4.88553 18.88586 -20.03037 26.41548 l -19.44385 -11.6289 l 3.23694 23.43217 c 0 0 -9.51743 7.80861 -25.29951 9.34941 c 0 0 -.4819 -67.94093 -90.86584 -15.61088 l -18.25814 -8.75655" fill="#ba9753" stroke-width="3.17037"/><path d="m 733.21179 484.48256 l 4.44168 -4.16903 c .0444 -.0254 -2.62189 -5.49742 -2.62189 -5.49742 l -1.79443 -3.78858 l -45.03504 -99.41632 h -83.95127 c 29.5478 86.95995 -46.87386 94.72418 -46.87386 94.72418 c 0 0 .76089 -16.41616 -1.26814 -71.07326 c -2.07025 -54.65709 -80.54631 -40.67578 -94.58786 -13.57867 c -9.92007 19.16486 -2.0322 35.64125 -2.0322 35.64125 c 0 0 -5.16135 -13.77207 24.43084 -12.24712 c 27.60437 1.37593 -8.1415 61.2578 -8.1415 61.2578 c 0 0 -76.40264 -7.76423 -46.87385 -94.72418 h -83.76106 l -44.29634 97.17487 l -2.74871 6.24245 l -2.41265 5.4562 l 4.35925 4.04221 c 1.68981 1.55982 41.22427 39.63591 1.52178 95.75455 l -1.60738 2.34607 l .12682 2.83748 c .0222 1.30619 1.52177 32.00166 13.17921 71.40614 c 10.85216 36.67478 32.84815 87.8857 76.33606 123.92958 c 41.45886 34.3731 72.68062 52.52027 93.51309 62.03771 v 43.11063 h 67.72535 v -43.44352 c 20.84198 -9.60621 51.80694 -27.70899 92.79976 -61.70482 c 43.48791 -36.04388 65.52829 -87.25163 76.35826 -123.92958 c 11.63524 -39.40765 13.0936 -70.09995 13.19823 -71.40614 l .10462 -2.83748 l -1.6264 -2.34607 c -39.68663 -56.11864 -.15218 -94.19473 1.53763 -95.79893" stroke-width="3.17037"/><path d="m 400.21563 768.00199 c -7.23795 -6.00784 -13.8545 -12.47855 -19.88453 -19.33288 V 527.97046 l 45.87835 30.81912 v 229.6898 c -8.10028 -6.02686 -16.77123 -12.81778 -25.99382 -20.47739" fill="#fff" stroke-width="3.17037"/><path d="m 331.66282 505.46087 c -1.84198 -5.41182 -4.04222 -10.23711 -6.36927 -14.422 l 44.12515 29.61122 v 214.61154 c -43.38645 -58.38545 -51.35675 -132.88269 -52.58685 -147.83731 c 23.27048 -34.36993 20.96245 -63.4295 14.83097 -81.96345" fill="#005aaa" stroke-width="3.17037"/><path d="m 483.108 824.39328 c -12.0347 -6.00784 -27.39195 -14.91022 -45.96078 -28.00066 V 566.08776 l 45.96078 30.87936 v 227.42616" fill="#005aaa" stroke-width="3.17037"/><path d="m 494.02357 851.26213 v -3.80761 c 4.50509 1.73419 8.27148 2.96112 11.27382 3.80761 h -11.27382" stroke-width="3.17037"/><path d="m 539.92412 851.26213 h -11.99349 c 3.17353 -.90989 7.19039 -2.24145 11.99349 -4.10562 v 4.10562" stroke-width="3.17037"/><path d="m 539.92412 829.13615 c -13.36943 5.83347 -20.92441 7.27599 -22.54764 7.59303 h -1.56616 c -1.45837 -.27266 -8.73435 -1.67079 -21.78675 -7.27599 V 604.2875 l 22.77908 15.26848 l 23.12147 -15.65527 v 225.23544" fill="#fff" stroke-width="3.17037"/><path d="M 596.73707 795.90438 C 578.27286 809.00116 562.96 817.94793 550.83652 823.99699 V 596.52327 l 45.90055 -30.94277 v 230.32388" fill="#005aaa" stroke-width="3.17037"/><path d="m 653.57538 747.9526 c -6.22026 7.10796 -13.03337 13.83231 -20.56299 20.04939 c -8.96262 7.425 -17.40214 14.05106 -25.33439 19.97014 V 558.21892 l 45.90055 -30.96813 V 747.9526" fill="#fff" stroke-width="3.17037"/><path d="M 664.50997 734.32954 V 519.8892 l 43.84932 -29.56683 c -2.49507 4.33389 -4.84431 9.38745 -6.7719 15.1385 c -6.17587 18.53395 -8.41732 47.59352 14.76122 81.96662 c -1.16035 14.87219 -9.04822 88.67195 -51.83864 146.90205" fill="#005aaa" stroke-width="3.17037"/><path d="M 299.136 375.635 L 339.68 375.635 L 339.68 374.135 L 339.693 343.256 L 339.693 341.756 L 338.192 341.756 L 299.629 341.756 L 301.237 344.098 L 311.104 358.455 L 300.776 373.279 Z" transform="matrix(3.1703654 0 0 3.1703654 -752.52606 -330.82129)"/><path d="M 305.313 344.766 L 336.698 344.766 L 336.698 372.639 L 304.873 372.639 L 314.16 359.322 L 314.761 358.469 L 314.174 357.615 Z" fill="#005aaa" transform="matrix(3.1703654 0 0 3.1703654 -752.52606 -330.82129)"/><path d="M 460.954 374.135 L 460.954 375.635 L 501.52 375.635 L 499.877 373.279 L 489.536 358.455 L 499.41 344.098 L 501.023 341.756 L 460.939 341.756 L 460.939 343.256 Z" transform="matrix(3.1703654 0 0 3.1703654 -752.52606 -330.82129)"/><path d="M 495.768 372.639 L 463.956 372.639 L 463.93 344.766 L 495.32 344.766 L 486.475 357.615 L 485.893 358.469 L 486.486 359.322 Z" fill="#005aaa" transform="matrix(3.1703654 0 0 3.1703654 -752.52606 -330.82129)"/><path d="M 324.896 374.107 L 324.896 346.592 L 337.738 343.256 L 337.698 374.135 Z" transform="matrix(3.1703654 0 0 3.1703654 -752.52606 -330.82129)"/><path d="M 475.212 374.107 L 475.212 346.627 L 462.488 343.256 L 462.502 374.135 Z" transform="matrix(3.1703654 0 0 3.1703654 -752.52606 -330.82129)"/><path d="m 749.35529 865.21808 c -.33923 85.47622 -465.6284 94.76539 -465.6284 -.0793 v -97.13683 c 0 97.1717 465.286 88.12031 465.6284 .0856 v 97.13049" fill="#fff" stroke-width="3.17037"/><path d="m 744.60925 768.06857 c -.12364 36.52578 -104.78692 64.95445 -238.25613 64.70082 c -128.26347 -.20924 -217.86434 -26.86251 -217.86434 -64.77057 h -9.52061 v 97.13683 c 0 53.09094 122.15735 72.21141 226.77307 72.42383 c 61.91407 .10462 123.04188 -6.19807 167.82329 -17.34507 c 52.60588 -13.07142 80.46388 -32.08727 80.54631 -54.9995 v -97.13049 l -9.50159 -.0159" stroke-width="3.17037"/><path d="m 744.60925 865.21808 c -.12364 35.49224 -105.08176 63.12197 -238.87118 62.86835 c -127.90522 -.29802 -217.25246 -26.1682 -217.25246 -62.94761 v -72.84866 c 30.67012 36.14851 130.34006 49.83498 217.86434 49.98398 c 61.76823 .12365 122.85166 -6.34707 167.48406 -17.7477 c 34.64893 -8.96579 58.55031 -20.47739 70.77207 -34.0307 v 74.72234" fill="#005aaa" stroke-width="3.17037"/><path d="m 382.10967 464.21758 c -.149 -1.28717 -.55164 -2.32705 -1.10011 -3.12598 c -.50726 -.76089 -1.14134 -1.41715 -1.90539 -1.90856 c -1.60738 -1.0589 -2.34924 -.80527 -2.34924 .46288 c 0 5.31353 13.01117 10.62072 13.01117 23.52411 c 0 8.2049 -4.35608 9.30819 -10.57633 5.20257 c -5.94444 -3.97564 -9.83765 -12.01252 -9.98666 -18.52762 l 7.11113 4.69214 c .12682 1.41715 .54531 2.62506 1.18255 3.63958 c .59286 .99233 1.39496 1.77858 2.1178 2.28583 c 1.86101 1.22694 3.04356 1.09695 3.04356 -.59602 c 0 -5.33256 -12.94461 -10.25931 -12.94461 -23.75238 c 0 -7.574 4.12148 -8.60754 9.75205 -4.86651 c 6.28049 4.16586 9.09578 11.08359 9.66644 17.62406 l -7.02236 -4.6541" fill="#fff" stroke-width="3.17037"/><path d="M 363.705 262.568 L 361.384 261.006 L 361.384 249.838 L 363.705 251.398 Z" fill="#fff" transform="matrix(3.1703654 0 0 3.1703654 -752.52606 -330.82129)"/><path d="M 372.019 256.902 L 372.019 268.065 L 369.823 266.625 L 367.288 258.857 L 367.388 261.461 L 367.388 264.996 L 365.146 263.516 L 365.146 252.354 L 367.328 253.795 L 369.863 261.58 L 369.776 258.971 L 369.776 255.43 Z" fill="#fff" transform="matrix(3.1703654 0 0 3.1703654 -752.52606 -330.82129)"/><path d="m 445.26969 509.35724 c -.21241 -3.8076 -1.67395 -6.89871 -3.97564 -8.42049 c -2.62506 -1.70882 -4.21024 .71968 -4.21024 7.57401 c 0 4.95528 .73869 10.06908 4.44168 12.56416 c 2.43167 1.61054 3.53179 -.27266 3.80761 -3.46838 l 7.12698 4.69214 c -.63407 8.7185 -4.82213 11.46721 -10.76656 7.51059 c -7.46621 -4.92992 -11.95228 -15.10362 -11.99349 -26.63107 c 0 -11.46087 4.99332 -15.26848 11.29601 -11.12164 c 6.85433 4.58752 10.70315 12.47856 11.29284 22.03721 l -7.01919 -4.73653" fill="#fff" stroke-width="3.17037"/><path d="M 386.916 269.4 L 383.44 267.092 L 383.447 268.699 L 386.383 270.654 L 386.383 273.256 L 383.447 271.309 L 383.447 273.068 L 387.057 275.457 L 387.057 278.061 L 381.119 274.117 L 381.119 262.955 L 386.916 266.797 Z" fill="#fff" transform="matrix(3.1703654 0 0 3.1703654 -752.52606 -330.82129)"/><path d="m 574.67767 538.37877 l -9.45086 6.34073 v -19.58652 l -7.425 4.99016 v -6.76873 c 4.98699 -3.46838 8.62657 -7.69765 9.68547 -14.23494 l 7.19356 -4.84115 v 34.10045" fill="#fff" stroke-width="3.17037"/><path d="m 594.30223 516.36058 c .50726 1.49958 1.94977 1.33156 3.81395 .10462 c 3.50642 -2.37143 4.92358 -6.6863 4.88553 -11.00433 c -2.54263 3.55398 -4.44485 5.41815 -7.46938 7.45035 c -7.44719 5.00918 -10.78241 1.22694 -10.78241 -3.57934 c 0 -8.16052 5.57984 -15.60454 12.77023 -20.45203 c 9.30819 -6.30585 15.01802 -4.86017 15.01802 7.32038 c 0 10.32271 -5.11697 20.68663 -13.98131 26.71984 c -5.98882 4.02002 -11.69548 5.83347 -13.04923 -.0444 l 8.7946 -6.5151 m 8.29684 -19.52311 c 0 -2.45703 -2.01318 -3.00233 -4.22926 -1.48056 c -2.79626 1.85784 -4.21659 4.65093 -4.21659 7.50426 c 0 2.64408 1.63274 3.36375 4.001 1.75955 c 3.21792 -2.28583 4.44485 -5.18355 4.44485 -7.78325" fill="#fff" stroke-width="3.17037"/><path d="m 624.51581 495.98781 c .50409 1.50593 1.96246 1.33156 3.80444 .0444 c 3.50959 -2.32705 4.94577 -6.61972 4.90772 -10.95995 c -2.53946 3.55398 -4.44485 5.37377 -7.46621 7.45035 c -7.46621 5.00918 -10.80777 1.22694 -10.80777 -3.59836 c 0 -8.16052 5.58301 -15.56649 12.79559 -20.45203 c 9.33039 -6.26147 14.99583 -4.84115 14.99583 7.33623 c 0 10.32271 -5.07892 20.68663 -13.96229 26.69447 c -5.96345 4.04222 -11.67328 5.83982 -13.02703 -.0444 l 8.75972 -6.47072 m 8.28734 -19.56749 c 0 -2.43484 -1.94661 -2.97697 -4.25146 -1.43618 c -2.7709 1.83881 -4.16903 4.61288 -4.16903 7.46621 c 0 2.66311 1.65176 3.37961 3.99466 1.77858 c 3.24011 -2.28583 4.42583 -5.20891 4.42583 -7.80861" fill="#fff" stroke-width="3.17037"/><path d="m 665.31524 477.16535 l -9.41598 6.34708 v -19.5675 l -7.425 5.00918 v -6.78775 c 5.01235 -3.44936 8.65193 -7.71984 9.66962 -14.23494 l 7.17136 -4.82213 v 34.05606" fill="#fff" stroke-width="3.17037"/><path d="m 322.43705 855.78624 l 16.64759 5.62106 l -1.52177 23.69214 l -5.58619 -1.85783 l -.48506 -5.77641 c -2.26364 1.9688 -5.60838 4.92992 -12.88437 2.43484 c -9.59986 -3.21475 -17.84915 -13.79109 -16.81244 -29.18955 c .8021 -12.03788 7.63424 -21.32071 21.04488 -16.71417 c 12.24712 4.15001 16.49858 14.53296 16.5398 20.75004 l -8.33489 -2.85333 c .12681 -1.6898 -2.36827 -8.14149 -8.24612 -10.14834 c -5.96663 -1.99416 -11.72084 .67529 -12.48173 11.95228 c -.8021 11.98715 4.90772 17.13266 10.59853 19.03488 c 1.83881 .61188 7.97664 1.90221 10.30052 -6.40731 l -9.26381 -3.09111 l .48506 -7.44719" fill="#fff" stroke-width="3.17037"/><path d="m 351.22397 890.26397 l -9.17821 -2.24145 l 16.20057 -41.33206 l 10.02787 2.40948 l 13.41064 48.52878 l -9.4572 -2.28583 l -2.38728 -9.92007 l -15.44285 -3.74737 l -3.17354 8.58852 m 5.75422 -15.77574 l 10.63974 2.53312 l -4.67312 -18.99049 l -.0856 -.0444 z" fill="#fff" stroke-width="3.17037"/><path d="M 372.285 374.947 L 372.259 389.26 L 369.71 388.973 L 369.71 377.004 L 369.67 377.004 L 367.135 388.699 L 364.452 388.385 L 362.145 376.148 L 362.104 376.148 L 362.024 388.119 L 359.462 387.824 L 359.563 373.52 L 363.572 373.961 L 365.854 385.516 L 365.894 385.516 L 368.322 374.494 Z" fill="#fff" transform="matrix(3.1703654 0 0 3.1703654 -752.52606 -330.82129)"/><path d="m 435.28304 858.87735 l 20.17938 1.13816 c 10.15468 .59603 12.77657 7.78325 12.77657 12.44051 c .0412 6.55632 -3.29718 8.16052 -5.03454 9.01018 c 5.12014 2.43167 6.4295 6.93676 6.45169 11.46087 c 0 3.59837 -1.33155 6.95895 -3.55398 9.18455 c -2.34607 2.39046 -4.60971 3.84565 -13.09044 3.37961 l -17.55748 -1.01452 l -.1712 -45.59936 m 8.46171 37.58468 l 10.62072 .61188 c 4.18488 .22827 6.63875 -1.65493 6.59753 -6.30269 c 0 -3.9788 -3.11013 -5.70982 -6.21709 -5.88102 l -11.04555 -.63091 l .0444 12.20274 m -.0444 -19.90672 l 10.15785 .59602 c 3.42717 .1934 6.0871 -1.10328 6.0871 -4.69214 c 0 -3.76639 -2.45069 -5.0599 -6.3439 -5.28817 l -9.96129 -.55164 l .0602 9.93593" fill="#fff" stroke-width="3.17037"/><path d="m 481.12018 906.63573 l -9.11797 -.0856 l 15.27482 -45.50108 l 9.9391 .14901 l 14.1113 45.85933 l -9.39063 -.16803 l -2.56165 -9.39696 l -15.27165 -.20607 l -2.98332 9.3494 m 5.56399 -17.93792 l 10.57634 .16802 l -4.95211 -18.15034 h -.10462 z" fill="#fff" stroke-width="3.17037"/><path d="m 545.14571 860.01551 c 5.50376 -.20924 19.97013 1.64859 20.81662 23.0549 c .84966 21.43167 -13.45186 24.66227 -18.93342 24.94126 c -5.47839 .27265 -19.94477 -1.62957 -20.79126 -23.03587 c -.84648 -21.38729 13.45503 -24.68764 18.90806 -24.96029 m 1.5725 39.93392 c 4.69215 -.20924 11.0836 -3.67762 10.61756 -16.47639 c -.46605 -12.75438 -7.21258 -15.58551 -11.84449 -15.37627 c -4.69531 .20925 -11.08359 3.70299 -10.62389 16.45737 c .50409 12.75121 7.19356 15.64892 11.85082 15.39529" fill="#fff" stroke-width="3.17037"/><path d="m 579.5632 890.93925 c -.0222 2.53947 .92892 7.23161 8.56633 6.55315 c 4.10245 -.35508 8.71533 -1.86101 8.90555 -6.67679 c .14901 -3.55398 -2.98014 -4.23561 -7.33939 -4.95528 l -4.42266 -.76089 c -6.68313 -1.05256 -13.09044 -2.09244 -12.73219 -12.11714 c .19022 -5.09477 3.02453 -14.19372 16.56199 -15.50625 c 12.77657 -1.12231 15.84232 7.6596 15.69331 13.23944 l -8.33172 .76089 c -.17437 -2.00684 -.70065 -6.76873 -8.29368 -6.04906 c -3.29718 .279 -7.3172 1.9688 -7.46304 6.09345 c -.14901 3.55398 2.49508 4.0866 4.22927 4.35925 l 10.04689 1.81979 c 5.63057 .9733 10.76973 3.02136 10.49391 11.20724 c -.52945 13.6833 -13.32505 16.03888 -17.00267 16.37177 c -15.20825 1.43617 -17.47506 -7.93226 -17.22143 -13.57868 l 8.30953 -.76089" fill="#fff" stroke-width="3.17037"/><path d="m 617.39834 901.34756 l -9.00384 1.39179 l 13.66111 -48.16102 l 9.90105 -1.56616 l 15.39846 43.59887 l -9.30819 1.4552 l -2.83114 -9.02921 l -15.14483 2.3651 l -2.67262 9.94543 m 4.78091 -18.19155 l 10.4527 -1.68981 l -5.4562 -17.30068 h -.0856 z" fill="#fff" stroke-width="3.17037"/><path d="M 445.915 371.879 L 445.93 377.643 L 450.993 370.572 L 454.589 369.65 L 449.171 376.844 L 454.909 383.715 L 451.333 384.635 L 447.223 379.484 L 445.93 381.246 L 445.93 386.037 L 443.167 386.758 L 443.152 372.605 Z" fill="#fff" transform="matrix(3.1703654 0 0 3.1703654 -752.52606 -330.82129)"/><path d="m 703.07112 880.27731 l -8.88653 4.25464 l 13.47405 -50.71951 l 9.79326 -4.63824 l 15.18922 37.01401 l -9.17821 4.40681 l -2.81845 -7.80861 l -14.9134 7.10796 l -2.65994 10.38294 m 4.71434 -17.80794 l 10.3449 -4.88553 l -5.3706 -14.95461 l -.12364 .0444 z" fill="#fff" stroke-width="3.17037"/><path d="m 516.88825 770.24978 c 27.16052 0 52.67245 -10.57634 71.85633 -29.78558 c 19.22509 -19.18388 29.80143 -44.71483 29.80143 -71.87852 c 0 -27.15735 -10.57634 -52.62807 -29.80143 -71.85316 c -19.18388 -19.20291 -44.69581 -29.76022 -71.85633 -29.76022 c -56.01085 0 -101.63558 45.56132 -101.63558 101.61338 c 0 27.16369 10.59853 52.69464 29.76022 71.87852 c 19.20608 19.20924 44.75922 29.78558 71.87536 29.78558" fill="#fff" stroke-width="3.17037"/><path d="m 516.80265 764.48923 c -52.91974 0 -95.79576 -42.89187 -95.79576 -95.81795 c 0 -52.92291 42.87602 -95.81796 95.79576 -95.81796 c 52.90705 0 95.82429 42.89188 95.82429 95.81796 c 0 52.92608 -42.92041 95.81795 -95.82429 95.81795" stroke-width="3.17037"/><path d="m 602.19961 669.18171 c -.11096 18.40397 -6.03004 35.36859 -16.03888 49.28333 c -.0444 -.33289 -.4819 -3.00234 -1.22693 -6.51511 c -.76089 -3.76639 -2.21926 -9.05139 -2.21926 -9.05139 c 0 0 -2.41265 2.09244 -13.24261 7.27599 c -11.12799 5.33255 -18.6798 5.28817 -18.6798 5.28817 c 0 0 -2.30485 7.19673 -10.78875 16.11814 c -8.26514 8.7185 -11.01702 10.36392 -11.01702 10.36392 c 0 0 4.56533 3.00234 7.91006 4.9109 c 3.21792 1.81345 5.713 3.12598 5.83664 3.21475 c -8.14149 2.5997 -16.87902 4.02002 -25.93358 4.02002 c -9.01018 0 -17.76356 -1.41715 -25.93042 -4.02002 c .16803 -.0856 2.62189 -1.39813 5.83664 -3.21475 c 3.34474 -1.90856 7.91006 -4.9109 7.91006 -4.9109 c 0 0 -2.70749 -1.64542 -10.99483 -10.36392 c -8.50609 -8.92141 -10.74753 -16.11814 -10.74753 -16.11814 c 0 0 -7.57401 .0444 -18.71784 -5.28817 c -10.85216 -5.18355 -13.26481 -7.27599 -13.26481 -7.27599 c 0 0 -1.43618 5.28817 -2.24145 9.05139 c -.71967 3.5096 -1.14133 6.13783 -1.22693 6.51511 c -9.94227 -13.91474 -15.92792 -30.87936 -15.99132 -49.28333 c .21241 .20924 2.15902 2.1178 4.8031 4.56849 c 2.83114 2.58068 7.12698 5.98882 7.12698 5.98882 c 0 0 .71967 -3.11647 6.47389 -13.68964 c 5.87786 -10.84899 12.01251 -15.22726 12.01251 -15.22726 c 0 0 -2.41265 -7.15235 -.76089 -19.41849 c 1.56617 -11.84448 2.7931 -14.82463 2.7931 -14.82463 c 0 0 -5.45937 .22827 -9.26381 .67529 c -3.59837 .42166 -6.30269 .77991 -6.6007 .86551 c 10.40514 -14.13032 25.0015 -24.89688 41.92174 -30.50209 c -.12681 .25363 -1.31253 2.68847 -2.83431 6.00785 c -1.56299 3.50959 -3.51276 8.60754 -3.51276 8.60754 c 0 0 3.19573 -.25363 14.999 1.9688 c 12.16469 2.19706 18.21058 6.6641 18.21058 6.6641 c 0 0 6.07125 -4.46387 18.23594 -6.6641 c 11.80327 -2.22243 14.97997 -1.9688 14.97997 -1.9688 c 0 0 -1.90856 -5.09478 -3.51276 -8.60754 c -1.48373 -3.31938 -2.72969 -5.75105 -2.8565 -6.00785 c 16.98682 5.60521 31.55782 16.37177 41.94393 30.50209 c -.29801 -.0856 -2.98014 -.44702 -6.6007 -.86551 c -3.82663 -.44702 -9.28283 -.67529 -9.28283 -.67529 c 0 0 1.28717 2.97698 2.83431 14.82463 c 1.60738 12.26614 -.73869 19.41849 -.73869 19.41849 c 0 0 6.11246 4.37827 12.01251 15.22726 c 5.69081 10.57634 6.4295 13.68964 6.4295 13.68964 c 0 0 4.27365 -3.40497 7.14917 -5.98882 c 2.6219 -2.45069 4.5685 -4.35925 4.80628 -4.56849" fill="#fff" stroke-width="3.17037"/><path d="m 533.62143 646.7165 c -8.23026 -6.21709 -16.81878 -10.90923 -16.81878 -10.90923 c 0 0 -7.23161 4.2039 -15.67112 10.10712 c -8.43951 5.90639 -15.58869 12.60855 -15.58869 12.60855 c 0 0 1.77541 8.16686 4.78091 18.06791 c 3.00234 9.89471 7.14601 18.73686 7.14601 18.73686 c 0 0 8.33489 .80527 18.6576 1.01452 c 10.30052 .12998 20.07158 -1.01452 20.07158 -1.01452 c 0 0 3.32254 -7.67863 6.68313 -17.44969 c 3.36693 -9.77107 5.22476 -19.35508 5.22476 -19.35508 c 0 0 -6.27415 -5.54497 -14.4854 -11.80644" stroke-width="3.17037"/></g></svg>