<?xml version="1.0" encoding="iso-8859-1"?>
<!-- Generator: Adobe Illustrator 24.0.1, SVG Export Plug-In . SVG Version: 6.00 Build 0)  -->
<svg version="1.1" id="Layer_1" xmlns="http://www.w3.org/2000/svg" xmlns:xlink="http://www.w3.org/1999/xlink" x="0px" y="0px"
	 viewBox="0 0 660 660" style="enable-background:new 0 0 660 660;" xml:space="preserve">
<path style="fill:#FFFFFF;stroke:#008C44;stroke-width:1.631;stroke-miterlimit:20;" d="M337.894,21.313
	c-81.353,0-141.489,16.525-219.699,59.216l0,0l13.332,36.406l0,0c-23.33,7.77-42.161,15.848-64.011,26.614
	c12.666,25.02,21.119,30.657,29.532,73.972c4.055,20.892,5.045,45.251,6.152,65.906c2.208,41.239-0.777,95.638,1.323,122.327
	c3.176,40.386,15.592,74.647,36.643,102.917c10.692,14.361,23.837,27.352,39.681,39.259c14.416,10.836,29.924,19.822,46.003,27.938
	c8.328,4.207,16.766,8.206,25.208,12.234c21.518,10.269,47.101,22.57,85.835,44.02c35.367-19.582,59.77-31.542,80.124-41.291
	c9.314-4.459,18.671-8.829,27.912-13.427c18.588-9.247,36.47-19.568,52.842-32.414c14.146-11.1,26.033-23.132,35.85-36.32
	c21.051-28.27,33.466-62.531,36.644-102.917c2.102-26.689-0.885-81.088,1.324-122.327c1.105-20.654,2.094-45.014,6.152-65.906
	c8.411-43.315,16.864-48.952,29.531-73.972c-21.851-10.766-40.681-18.844-64.011-26.614l0,0l13.333-36.406l0,0
	C479.382,37.839,419.248,21.313,337.894,21.313L337.894,21.313z"/>
<path style="fill:none;stroke:#008C44;stroke-width:4.3324;stroke-miterlimit:20;" d="M337.894,613.441
	c-28.973-15.646-50.403-26.48-68.265-35.203c-31.8-15.532-63-28.804-90.063-52.554c-11.797-10.353-21.693-21.444-29.268-32.798
	c-17.254-25.873-28.267-58.05-29.959-95.832c-0.651-14.497-0.02-38.468,0.15-63.499c0.125-18.266-0.153-37.06-1.027-53.309
	c-1.037-19.289-2.371-44.225-6.131-63.744c-7.735-40.164-11.643-44.333-23.003-65.143c20.479-10.055,38.128-16.871,62.77-23.544l0,0
	l-14.733-39.259l0,0c71.066-36.935,122.796-50.777,199.529-50.777c76.734,0,128.465,13.842,199.531,50.777l0,0l-14.734,39.259l0,0
	c24.64,6.674,42.29,13.489,62.77,23.544c-11.361,20.811-15.266,24.979-23.005,65.143c-3.758,19.519-5.092,44.455-6.129,63.744
	c-0.874,16.249-1.152,35.043-1.028,53.309c0.173,25.031,0.803,49.002,0.153,63.499c-1.695,37.782-12.705,69.959-29.963,95.832
	c-13.058,19.579-33.014,38.369-57.732,53.952c-15.626,9.851-32.368,17.318-48.975,25.29
	C398.404,581.911,374.011,593.939,337.894,613.441L337.894,613.441z"/>
<path style="fill:#FFFFFF;stroke:#008C44;stroke-width:1.631;stroke-miterlimit:20;" d="M611.271,456.708
	c-59.818-52.529-105.268-96.905-135.006-141.521c30.797-1.175,61.294-4.234,77.162-11.699c14.958-7.037,18.607-13.564,18.281-21.652
	c-0.75-18.676-23.679-31.109-44.351-37.564c-29.944-9.348-70.667-13.135-86.528-13.117c-49.515-2.334-111.979,11.323-82.824,45.218
	c-62.166-12.042-104.524-23.493-142.177-36.202c-44.395-14.981-101.874-42.979-132.806-57.427l0,0l15.133,33.364l0,0
	c-6.752,0.736-14.56,3.115-16.59,8.89c-15.014-1.386-24.757-1.898-34.843-1.904c-15.958-0.536-21.151,6.489-13.934,21.869
	c3.697,9.732,10.078,22.887,20.931,37.13c3.533,4.96,7.876,8.952,31.117,15.503c13.731,3.982,38.419,11.189,52.148,15.733l0,0
	l-38.664,0.022l0,0c-15.346,0.009-25.383,16.538-6.166,28.771c10.783,6.869,31.9,17.871,53.186,29.879
	c16.358,9.227,29.123,16.89,47.633,18.8l0,0l47.386,2.191l0,0c-3.723-8.773-7.79-15.255-13.136-22.171l0,0l18.248,1.495l0,0
	c31.656,23.697,65.317,52.761,89.595,84.393l0,0h59.567l0,0c-7.594-19.171-24.111-41.845-44.853-68.731l0,0l9.031-0.017l0,0
	c4.547,0.243,8.471,1.01,12.724,2.701c40.738,16.168,83.501,37.592,131.257,66.048l0,0H611.271L611.271,456.708z"/>
<path style="fill:#EE3124;" d="M337.894,51.546c-66.503,0.001-121.771,13.365-181.992,43.869l0,0l15.57,42.492l0,0
	c-18.705,3.368-43.174,10.733-61.929,19.605c6.633,12.045,11.547,27.414,15.167,44.775c28.784,13.308,62.642,28.274,91.118,37.883
	c37.654,12.708,80.012,24.16,142.18,36.202c-29.156-33.895,33.308-47.552,82.822-45.218c15.861-0.019,56.585,3.77,86.528,13.117
	c5.654,1.766,11.476,3.979,16.966,6.643c3.165-36.921,9.555-70.944,21.92-93.404c-18.754-8.872-43.221-16.235-61.926-19.605l0,0
	l15.571-42.492l0,0C459.665,64.91,404.395,51.545,337.894,51.546L337.894,51.546z M134.203,312.419
	c0.004,0.304,0.007,0.607,0.01,0.91l0,0l2.77-0.002l0,0C136.099,313.035,135.17,312.731,134.203,312.419L134.203,312.419z
	 M133.943,365.642c-0.061,3.488-0.125,6.914-0.191,10.261c-1.586,80.757,29.389,133.156,99.383,169.349
	c24.175,12.502,56.548,26.698,104.758,52.606c48.209-25.908,80.583-40.104,104.758-52.606
	c43.257-22.367,71.604-50.929,86.578-88.544l0,0h-26.438l0,0c-47.756-28.456-90.52-49.881-131.259-66.048
	c-4.252-1.691-8.176-2.457-12.724-2.701l0,0l-9.031,0.017l0,0c20.742,26.886,37.258,49.56,44.853,68.731l0,0h-59.566l0,0
	c-24.279-31.632-57.942-60.694-89.596-84.393l0,0l-18.248-1.495l0,0c5.345,6.915,9.414,13.397,13.136,22.171l0,0l-47.388-2.191l0,0
	c-18.508-1.91-31.273-9.574-47.631-18.8C141.513,369.841,137.698,367.718,133.943,365.642L133.943,365.642z M541.878,392.494
	c0.215-5.394,0.268-10.917,0.157-16.59c-0.404-20.645-0.773-44.166-0.381-68.281c-16.892,4.529-41.045,6.637-65.39,7.565
	C493.149,340.521,515.106,365.779,541.878,392.494L541.878,392.494z"/>
<path style="fill:#FFDD00;" d="M134.2,312.417c0.004,0.304,0.009,0.609,0.012,0.912l0,0l2.771-0.002l0,0
	C136.099,313.035,135.169,312.73,134.2,312.417L134.2,312.417z M133.943,365.642c-0.061,3.488-0.124,6.914-0.191,10.261
	c-1.283,65.397,18.792,112.195,63.643,146.853l0,0l131.33-73.997l0,0c-23.608-28.547-54.272-54.746-83.255-76.445l0,0l-18.249-1.495
	l0,0c5.346,6.915,9.414,13.397,13.138,22.171l0,0l-47.388-2.191l0,0c-18.51-1.91-31.274-9.574-47.633-18.8
	C141.515,369.841,137.697,367.718,133.943,365.642L133.943,365.642z M375.294,422.518l30.543-17.21l0,0
	c-11.632-5.309-23.044-10.182-34.305-14.649c-4.25-1.691-8.176-2.457-12.721-2.701l0,0l-9.032,0.017l0,0
	C359.333,400.361,367.991,411.85,375.294,422.518L375.294,422.518z M503.015,350.552l38.473-21.679l0,0
	c0-6.992,0.052-14.095,0.167-21.25c-16.894,4.529-41.045,6.637-65.391,7.565C484.1,326.942,493.025,338.677,503.015,350.552
	L503.015,350.552z M544.322,250.917c3.165-36.922,9.555-70.947,21.923-93.407c-18.754-8.872-43.224-16.235-61.928-19.605l0,0
	l15.57-42.492l0,0c-12.797-6.481-25.37-11.938-37.874-16.515l0,0l-278.49,156.919l0,0c4.188,1.545,8.299,3.002,12.304,4.353
	c37.653,12.708,80.011,24.16,142.181,36.202c-29.158-33.895,33.306-47.552,82.819-45.218c15.861-0.019,56.585,3.77,86.53,13.117
	C533.012,246.038,538.832,248.252,544.322,250.917L544.322,250.917z"/>
<path style="fill:#008C44;" d="M218.891,537.333c4.558,2.723,9.3,5.363,14.245,7.919c24.175,12.502,56.549,26.698,104.758,52.606
	c48.211-25.908,80.583-40.104,104.758-52.606c43.258-22.367,71.606-50.929,86.58-88.544l0,0h-26.44l0,0
	c-25-14.896-48.63-27.863-71.32-39.158l0,0l-43.814,24.688l0,0c2.796,5.034,5.146,9.853,6.974,14.469l0,0h-32.653L218.891,537.333
	L218.891,537.333z M541.878,392.496c0.215-5.395,0.268-10.92,0.157-16.593c-0.128-6.554-0.254-13.397-0.352-20.455l0,0
	l-22.972,12.943l0,0C525.979,376.32,533.706,384.34,541.878,392.496L541.878,392.496z"/>
<path style="fill:#008C44;" d="M440.05,306.246c30.387,41.029,67.795,87.361,135.9,144.69l0,0l17.942-0.512l0,0
	c-61.698-54.218-105.099-101.44-132.388-142.957c19.189,0.148,103.505,0.181,103.029-25.688
	c-0.5-27.015-88.802-42.497-121.063-42.784c-19.778-0.175-82.218,0.668-82.73,21.807c-0.482,19.888,48.153,28.005,86.506,29.259
	c25.491,0.833,76.438-3.473,65.642-24.918c-6.958-2.658-25.26-7.513-36.552-9.604c2.572,2.498,12.233,9.531,10.88,15.343
	c-1.67,7.187-21.07,7.93-42.759,7.951c-26.057,0.027-55.925-8.577-55.564-17.491c0.736-8.549,32.129-12.336,63.696-10.62
	c38.101,2.073,85.15,15.946,84.893,28.023c-0.324,15.354-50.271,15.534-72.458,15.571c-42.307,0.069-85.475-7.09-127.131-14.235
	c-83.66-14.347-133.879-31.894-234.196-77.659l0,0l15.819,28.469l0,0c-17.192-4.208-21.412-8.046-33.499,3.754
	c-16.301-0.529-26.419-1.923-37.897-2.972c-5.865-0.536-11.86,0.852-5.605,13.943c5.128,10.732,11.872,22.723,20.012,32.962
	c2.836,3.568,6.674,5.948,28.771,12.358c25.76,7.47,54.001,17.212,82.585,30.221l0,0h-68.989l0,0
	c-18.141,0-14.189,11.264-2.584,17.064c23.097,11.542,44.288,25.054,66.962,36.913c15.827,8.278,37.576,8.091,55.923,8.091
	c-1.724-4.791-6.989-9.543-10.587-13.141c-9.849,0.269-20.054,0.62-34.069-2.604c-12.501-5.425-29.046-15.121-45.439-26.178
	c-10.787-7.274-10.964-9.315,2.058-8.786c22.786,0.924,41.24,3.136,66.271,3.272c3.975,2.139,7.943,4.348,11.898,6.635
	c3.227,1.861,6.526,3.861,9.88,5.982l0,0l-57.934-1.276l20.93,11.51l58.336,4.393l0,0c31.116,22.897,64.543,54.079,91.352,87.474
	l0,0l19.549-0.322l0,0c-27.628-33.98-58.827-62.185-83.654-82.279c-59.773-48.376-111.271-68.428-181.909-90.263
	c-5.187-1.603-13.274-2.806-18.022-5.71c-7.099-4.338-15.001-23.106-17.767-27.667c27.968,3.778,34.535,4.209,45.135-3.083
	c5.63-3.876,15.215,0.896,39.67,7.765l0,0l-9.589-22.097l0,0c37.449,18.195,73.949,31.886,113.11,44.383
	c48.653,14.876,98.604,24.058,149.019,30.421C408.611,303.57,424.078,305.149,440.05,306.246L440.05,306.246z M561.09,450.424
	c-54.909-39.706-107.033-71.438-145.934-89.159c-40.131,3.069-78.195,6.126-100.324,13.196
	c21.342,25.321,40.25,50.642,55.607,75.962l0,0h14.893l0,0c-15.813-25.246-31.625-47.763-47.439-68.018l0,0l23.048-0.007l0,0
	c4.307,0,6.396,0.783,10.493,2.278c43.381,15.819,90.477,39.274,131.564,65.748l0,0h21.846l0,0
	c-44.771-27.003-91.338-52.736-131.834-69.846c-2.917-1.231-2.067-5.001,1.354-5.025l0,0l14.721-0.107l0,0
	c3.257-0.007,5.946,0.557,10.174,2.789c43.732,23.09,82.507,47.307,120.979,72.188l0,0H561.09L561.09,450.424z"/>
<path style="fill:none;stroke:#008C44;stroke-width:1.631;stroke-miterlimit:20;" d="M337.894,51.546
	c-66.503,0.001-121.771,13.365-181.992,43.869l0,0l15.57,42.492l0,0c-18.705,3.368-43.174,10.733-61.929,19.605
	c6.633,12.045,11.547,27.415,15.168,44.775c28.783,13.308,62.641,28.274,91.116,37.883c37.654,12.708,80.011,24.16,142.178,36.202
	c-29.155-33.895,33.309-47.552,82.824-45.218c15.861-0.019,56.584,3.77,86.528,13.117c5.654,1.766,11.474,3.979,16.966,6.643
	c3.165-36.921,9.555-70.944,21.92-93.404c-18.754-8.872-43.221-16.235-61.926-19.605l0,0l15.571-42.492l0,0
	C459.665,64.91,404.395,51.545,337.894,51.546L337.894,51.546z M134.203,312.419c0.004,0.304,0.007,0.607,0.01,0.91l0,0l2.769-0.002
	l0,0C136.098,313.035,135.17,312.731,134.203,312.419L134.203,312.419z M133.943,365.642c-0.061,3.488-0.125,6.914-0.191,10.261
	c-1.213,61.829,16.659,107.035,56.515,141.075c20.342,17.372,43.631,28.922,67.466,40.457c20.775,10.057,46.64,22.409,80.16,40.423
	c29.754-15.991,53.478-27.52,72.961-36.942c19.471-9.414,39.221-18.49,57.181-30.663c29.233-19.813,49.383-43.858,61.2-73.545l0,0
	H502.79l0,0c-47.756-28.456-90.519-49.881-131.257-66.048c-4.252-1.691-8.176-2.457-12.724-2.701l0,0l-9.031,0.017l0,0
	c20.742,26.886,37.258,49.56,44.853,68.731l0,0h-59.567l0,0c-24.279-31.632-57.941-60.694-89.595-84.393l0,0l-18.249-1.495l0,0
	c5.346,6.915,9.415,13.397,13.136,22.171l0,0l-47.386-2.191l0,0c-18.508-1.91-31.273-9.574-47.631-18.8
	C141.513,369.841,137.698,367.718,133.943,365.642L133.943,365.642z M541.881,392.5c0.213-5.398,0.265-10.924,0.154-16.597
	c-0.404-20.645-0.773-44.166-0.381-68.281c-16.892,4.529-41.045,6.637-65.39,7.565C493.149,340.521,515.107,365.779,541.881,392.5
	L541.881,392.5z"/>
<path style="fill:#FFFFFF;" d="M152.197,194.416l6.027-2.574c0.087,0.205,0.201,0.496,0.339,0.876
	c0.142,0.38,0.247,0.653,0.318,0.819c1.007,2.359,1.932,3.972,2.773,4.841c0.845,0.87,1.71,1.115,2.602,0.734
	c1.04-0.443,1.543-1.257,1.511-2.438c-0.034-1.181-0.867-3.686-2.498-7.51l-11.421-26.759l6.107-2.605l11.884,27.841
	c1.219,2.856,1.999,5.006,2.341,6.448c0.342,1.443,0.47,2.808,0.385,4.092c-0.09,1.638-0.582,3.016-1.483,4.135
	c-0.9,1.118-2.303,2.083-4.207,2.897c-2.959,1.262-5.54,1.214-7.738-0.149c-2.2-1.362-4.198-4.148-5.996-8.356
	c-0.26-0.613-0.453-1.076-0.578-1.396C152.438,194.993,152.316,194.692,152.197,194.416z"/>
<path style="fill:#FFFFFF;" d="M173.964,161.253l1.666-0.59c1.745-0.619,3.056-0.644,3.937-0.081c0.881,0.565,1.698,1.909,2.45,4.03
	c0.778,2.196,0.993,3.852,0.643,4.969c-0.349,1.117-1.376,1.976-3.083,2.581l-1.552,0.552L173.964,161.253z M165.371,156.888
	l14.868,41.937l6.257-2.219l-6.137-17.311l2.646-0.938c1.205-0.427,2.223-0.307,3.051,0.361c0.828,0.667,1.632,2.039,2.411,4.113
	c0.296,0.771,0.695,1.87,1.201,3.292c1.519,4.164,2.664,6.877,3.435,8.142l6.499-2.304c-0.664-1.027-1.306-2.204-1.926-3.536
	c-0.62-1.328-1.27-2.956-1.951-4.873c-0.081-0.229-0.196-0.583-0.345-1.064c-0.151-0.481-0.265-0.838-0.345-1.064
	c-1.28-3.61-2.467-5.932-3.557-6.969c-1.09-1.035-2.626-1.49-4.604-1.367c1.376-1.104,2.117-2.57,2.226-4.397
	c0.107-1.825-0.408-4.346-1.547-7.561c-1.442-4.066-3.098-6.638-4.968-7.723c-1.871-1.085-4.641-0.973-8.31,0.327L165.371,156.888z"
	/>
<path style="fill:#FFFFFF;" d="M213.301,187.842l-11.523-42.975l16.613-4.455l1.787,6.663l-10.115,2.712l2.747,10.245l9.299-2.492
	l1.765,6.578l-9.301,2.495l3.374,12.576l10.494-2.813l1.854,6.914L213.301,187.842z"/>
<path style="fill:#FFFFFF;" d="M236.987,144.919l7.229,18.182l-6.62,1.403L236.987,144.919z M257.399,177.412l-17.901-41.692
	l-8.268,1.749l0.439,45.388l6.495-1.374l-0.376-10.058l9.019-1.908l3.758,9.34L257.399,177.412z"/>
<path style="fill:#FFFFFF;" d="M257.08,163.619l6.705-1.04l0.181,1.171c0.353,2.278,0.876,3.863,1.571,4.748
	c0.691,0.885,1.682,1.227,2.965,1.03c0.989-0.153,1.711-0.71,2.17-1.67c0.459-0.962,0.571-2.193,0.34-3.693
	c-0.326-2.097-2.068-4.213-5.225-6.345c-0.222-0.129-0.379-0.228-0.47-0.295c-1.667-1.111-3.006-2.029-4.018-2.752
	c-1.011-0.721-1.779-1.329-2.307-1.82c-1.387-1.299-2.394-2.568-3.015-3.813c-0.623-1.241-1.083-2.823-1.379-4.741
	c-0.568-3.667-0.125-6.73,1.331-9.189c1.456-2.46,3.708-3.924,6.757-4.397c3.149-0.488,5.67,0.158,7.568,1.936
	c1.898,1.777,3.154,4.657,3.772,8.642l0.181,1.164l-6.477,1.003l-0.037-0.239c-0.321-2.069-0.826-3.585-1.519-4.547
	c-0.69-0.962-1.577-1.361-2.658-1.192c-0.961,0.148-1.668,0.676-2.121,1.584c-0.453,0.906-0.571,2.059-0.355,3.455
	c0.369,2.373,2.602,4.795,6.7,7.263c1.055,0.653,1.875,1.17,2.464,1.548c2.337,1.515,4.041,3.052,5.111,4.609
	c1.069,1.559,1.783,3.504,2.145,5.835c0.664,4.282,0.267,7.648-1.185,10.097c-1.453,2.45-3.94,3.946-7.461,4.49
	c-3.282,0.508-5.852-0.145-7.712-1.965c-1.86-1.82-3.129-4.927-3.811-9.32c-0.023-0.16-0.06-0.408-0.101-0.75
	C257.147,164.086,257.11,163.817,257.08,163.619z"/>
<path style="fill:#FFFFFF;" d="M288.582,173.019l-3.869-36.964l-7.205,0.754l-0.762-7.29l21.182-2.219l0.763,7.29l-7.204,0.755
	l3.869,36.962L288.582,173.019z"/>
<path style="fill:#FFFFFF;" d="M315.935,170.726l-1.565-44.468l16.374-0.575l0.243,6.894l-9.651,0.34l0.373,10.6l9.2-0.324
	l0.239,6.809l-9.201,0.324l0.709,20.165L315.935,170.726z"/>
<path style="fill:#FFFFFF;" d="M358.922,125.916l-0.452,27.908c-0.101,6.227-1.013,10.664-2.736,13.31
	c-1.726,2.644-4.509,3.934-8.351,3.873c-3.723-0.061-6.437-1.41-8.147-4.05c-1.708-2.638-2.516-6.701-2.427-12.184l0.472-29.207
	l6.639,0.108l-0.435,26.792c-0.082,5.094,0.175,8.331,0.775,9.71c0.599,1.378,1.701,2.081,3.305,2.106
	c1.561,0.025,2.663-0.721,3.299-2.243c0.635-1.519,0.993-4.667,1.07-9.438l0.435-26.791L358.922,125.916z"/>
<path style="fill:#FFFFFF;" d="M372.542,133.721l1.765,0.125c1.845,0.132,3.058,0.633,3.638,1.502
	c0.581,0.872,0.792,2.428,0.631,4.674c-0.166,2.324-0.634,3.929-1.401,4.811c-0.766,0.885-2.052,1.261-3.859,1.132l-1.64-0.116
	L372.542,133.721z M366.417,126.279l-3.171,44.381l6.623,0.474l1.309-18.321l2.799,0.2c1.277,0.091,2.16,0.609,2.652,1.553
	c0.493,0.944,0.679,2.522,0.561,4.734c-0.037,0.825-0.11,1.992-0.219,3.498c-0.275,4.422-0.312,7.367-0.113,8.835l6.877,0.491
	c-0.195-1.204-0.313-2.543-0.348-4.009c-0.037-1.468,0.02-3.216,0.164-5.248c0.018-0.241,0.051-0.615,0.109-1.115
	c0.055-0.501,0.091-0.872,0.11-1.113c0.271-3.819,0.116-6.423-0.469-7.809c-0.585-1.384-1.808-2.417-3.672-3.096
	c1.704-0.462,2.97-1.508,3.8-3.137c0.829-1.631,1.369-4.147,1.613-7.55c0.307-4.303-0.181-7.323-1.46-9.065
	c-1.281-1.741-3.862-2.75-7.744-3.028L366.417,126.279z"/>
<path style="fill:#FFFFFF;" d="M414.472,131.079l-3.517,27.689c-0.786,6.178-2.18,10.487-4.182,12.926
	c-2.005,2.44-4.913,3.417-8.726,2.933c-3.695-0.47-6.245-2.109-7.651-4.92c-1.408-2.809-1.768-6.937-1.075-12.378L393,128.353
	l6.586,0.836l-3.375,26.583c-0.642,5.055-0.743,8.301-0.296,9.735c0.443,1.436,1.462,2.256,3.053,2.457
	c1.549,0.198,2.724-0.423,3.525-1.865c0.799-1.442,1.501-4.531,2.101-9.265l3.375-26.581L414.472,131.079z"/>
<path style="fill:#FFFFFF;" d="M413.871,176.039l7.965-43.775l6.534,1.19l-3.463,19.022l11.58-17.546l6.814,1.24l-12.669,18.485
	l4.7,25.292l-7.554-1.376l-3.502-22.622l-3.873,21.281L413.871,176.039z"/>
<path style="fill:#FFFFFF;" d="M454.8,147.559l-1.205,19.53l-6.583-1.553L454.8,147.559z M459.429,185.65l1.558-45.347l-8.224-1.937
	l-18.932,41.252l6.461,1.522l3.944-9.258l8.973,2.112l-0.58,10.053L459.429,185.65z"/>
<path style="fill:#FFFFFF;" d="M465.029,187.179l6.53-44.537l6.57,2.013l-3.663,19.767c-0.283,1.534-0.751,3.798-1.407,6.794
	c-0.656,2.996-1.406,6.319-2.252,9.973c1.146-2.845,2.301-5.588,3.468-8.229c1.165-2.64,2.358-5.183,3.57-7.629l8.799-18.064
	l7.42,2.275l-3.225,20.026c-0.261,1.602-0.672,3.859-1.237,6.767c-0.563,2.908-1.244,6.239-2.035,9.994
	c0.977-2.435,2.048-4.959,3.207-7.568c1.157-2.609,2.446-5.37,3.868-8.278l8.829-18.055l5.597,1.716l-19.885,40.44l-7.091-2.172
	l3.592-23.572c0.242-1.546,0.575-3.405,0.999-5.578c0.423-2.174,0.975-4.744,1.653-7.714c-0.728,1.754-1.543,3.62-2.442,5.594
	c-0.9,1.975-1.986,4.251-3.259,6.825l-10.601,21.362L465.029,187.179z"/>
<path style="fill:#FFFFFF;" d="M519.584,167.34l-3.707,19.213l-6.332-2.387L519.584,167.34z M519.272,205.71l7.383-44.767
	l-7.905-2.981l-24.087,38.471l6.212,2.343l5.101-8.675l8.625,3.253l-1.866,9.894L519.272,205.71z"/>
<path style="fill:#FFFFFF;" d="M187.894,499.907l20.452-39.514l14.551,7.531l-3.172,6.126l-8.577-4.439l-4.876,9.417l8.176,4.234
	l-3.131,6.049l-8.176-4.234l-9.275,17.92L187.894,499.907z"/>
<path style="fill:#FFFFFF;" d="M229.025,480.981c1.358-1.656,2.754-2.177,4.195-1.56c1.401,0.601,1.976,1.948,1.722,4.037
	c-0.249,2.087-1.602,5.984-4.054,11.694c-2.771,6.451-4.834,10.491-6.189,12.118c-1.354,1.625-2.749,2.126-4.188,1.509
	c-1.402-0.6-1.956-1.98-1.662-4.139c0.292-2.157,1.736-6.258,4.333-12.304C225.721,486.425,227.668,482.64,229.025,480.981z
	 M223.078,515.898c1.72-0.259,3.257-0.998,4.612-2.213c1.433-1.246,2.822-2.999,4.167-5.26c1.344-2.262,3.118-5.964,5.327-11.107
	c2.123-4.94,3.481-8.778,4.075-11.514c0.595-2.736,0.624-5.061,0.091-6.978c-0.352-1.225-1-2.341-1.945-3.353
	c-0.95-1.007-2.125-1.815-3.531-2.418c-1.812-0.78-3.572-1.052-5.282-0.823c-1.708,0.231-3.24,0.953-4.595,2.169
	c-1.383,1.18-2.745,2.897-4.085,5.149c-1.339,2.249-2.921,5.505-4.751,9.76c-2.36,5.494-3.873,9.741-4.537,12.743
	c-0.665,3.003-0.71,5.491-0.135,7.469c0.31,1.164,0.946,2.248,1.906,3.251c0.96,1.004,2.114,1.796,3.465,2.375
	C219.618,515.905,221.357,516.153,223.078,515.898z"/>
<path style="fill:#FFFFFF;" d="M252.933,490.395c1.214-1.766,2.564-2.398,4.05-1.902c1.446,0.482,2.131,1.776,2.052,3.877
	c-0.077,2.103-1.101,6.099-3.071,11.993c-2.226,6.661-3.947,10.856-5.162,12.59c-1.214,1.73-2.564,2.348-4.047,1.85
	c-1.45-0.482-2.117-1.81-2.003-3.984c0.114-2.174,1.215-6.382,3.299-12.622C250.092,496.09,251.717,492.158,252.933,490.395z
	 M249.898,525.681c1.694-0.398,3.166-1.261,4.414-2.586c1.325-1.36,2.564-3.223,3.715-5.589c1.152-2.364,2.614-6.201,4.39-11.509
	c1.704-5.098,2.739-9.035,3.106-11.811c0.364-2.774,0.201-5.096-0.49-6.962c-0.452-1.191-1.189-2.251-2.216-3.177
	c-1.028-0.93-2.267-1.635-3.717-2.121c-1.871-0.625-3.648-0.751-5.332-0.379c-1.684,0.372-3.15,1.217-4.4,2.54
	c-1.282,1.292-2.495,3.116-3.643,5.472c-1.149,2.355-2.458,5.728-3.924,10.121c-1.896,5.669-3.053,10.029-3.466,13.076
	c-0.413,3.045-0.253,5.529,0.485,7.454c0.404,1.135,1.128,2.16,2.169,3.083c1.039,0.918,2.256,1.614,3.65,2.079
	C246.452,525.977,248.207,526.08,249.898,525.681z"/>
<path style="fill:#FFFFFF;" d="M266.508,531.157l8.945-36.074l-7.03-1.743l1.765-7.114l20.671,5.128l-1.763,7.113l-7.031-1.744
	l-8.944,36.071L266.508,531.157z"/>
<path style="fill:#FFFFFF;" d="M298.083,499.542l3.672,0.578c1.262,0.196,2.161,0.793,2.693,1.791
	c0.53,0.997,0.667,2.327,0.405,3.987c-0.311,1.982-0.857,3.397-1.637,4.247c-0.782,0.851-1.843,1.172-3.185,0.962l-3.672-0.576
	L298.083,499.542z M295.29,517.347l3.317,0.52c1.585,0.252,2.682,0.941,3.296,2.073c0.613,1.132,0.753,2.762,0.421,4.883
	c-0.336,2.143-0.979,3.654-1.927,4.529c-0.95,0.879-2.264,1.187-3.947,0.922l-3.109-0.487L295.29,517.347z M297.204,537.459
	c3.307,0.52,5.878-0.088,7.714-1.826c1.835-1.741,3.09-4.765,3.767-9.077c0.452-2.881,0.32-5.321-0.391-7.315
	c-0.711-1.993-1.935-3.352-3.667-4.072c1.635,0.034,3.066-0.813,4.286-2.532c1.221-1.723,2.067-4.06,2.53-7.022
	c0.564-3.595,0.228-6.394-1.008-8.398c-1.237-2.006-3.41-3.254-6.518-3.741l-11.071-1.736l-6.893,43.96L297.204,537.459z"/>
<path style="fill:#FFFFFF;" d="M327.37,504.41l2.285,19.433l-6.756-0.358L327.37,504.41z M338.692,541.072l-6.519-44.9l-8.44-0.447
	l-11.306,43.957l6.631,0.351l2.237-9.812l9.205,0.489l1.216,9.993L338.692,541.072z"/>
<path style="fill:#FFFFFF;" d="M344.911,540.825l-1.88-44.456l6.718-0.283l1.549,36.616l9.651-0.41l0.33,7.84L344.911,540.825z"/>
<path style="fill:#FFFFFF;" d="M367.21,539.548l-5.518-44.153l6.673-0.83l4.544,36.363l9.582-1.198l0.976,7.787L367.21,539.548z"/>
<path style="fill:#FFFFFF;" d="M417.169,514.107c0.101,0.225,0.191,0.47,0.275,0.739c0.083,0.269,0.196,0.673,0.341,1.216
	c1.142,4.268,1.195,7.779,0.16,10.538c-1.034,2.761-3.088,4.552-6.162,5.374c-1.422,0.38-2.821,0.474-4.195,0.28
	c-1.378-0.193-2.548-0.652-3.512-1.374c-1.676-1.197-3.159-3.137-4.449-5.813c-1.292-2.676-2.778-7.176-4.471-13.499
	c-1.161-4.338-1.897-7.747-2.206-10.228c-0.309-2.479-0.298-4.622,0.034-6.419c0.328-1.816,1.083-3.338,2.268-4.563
	c1.184-1.223,2.73-2.091,4.639-2.601c3.114-0.834,5.754-0.354,7.922,1.434c2.167,1.788,3.836,4.867,5.003,9.232l0.219,0.811
	l-6.438,1.725l-0.217-0.814c-0.608-2.267-1.311-3.878-2.112-4.836c-0.799-0.96-1.726-1.299-2.782-1.017
	c-1.444,0.385-2.179,1.621-2.211,3.695c-0.032,2.074,0.895,6.629,2.777,13.664c1.579,5.905,2.914,9.761,4.005,11.566
	c1.09,1.808,2.367,2.515,3.83,2.123c1.034-0.277,1.656-1.079,1.866-2.407c0.208-1.326-0.007-3.196-0.652-5.608
	c-0.043-0.155-0.111-0.394-0.207-0.71c-0.097-0.318-0.169-0.574-0.222-0.769L417.169,514.107z"/>
<path style="fill:#FFFFFF;" d="M428.052,526.401l-15.273-41.793l6.316-2.307l12.582,34.419l9.071-3.314l2.693,7.371L428.052,526.401
	z"/>
<path style="fill:#FFFFFF;" d="M449.171,469.31l11.805,25.294c2.636,5.642,3.755,10.032,3.362,13.163
	c-0.392,3.135-2.331,5.511-5.811,7.138c-3.375,1.574-6.409,1.55-9.099-0.079c-2.689-1.624-5.193-4.923-7.515-9.892l-12.356-26.469
	l6.018-2.808l11.333,24.279c2.156,4.619,3.805,7.416,4.946,8.395c1.143,0.978,2.44,1.126,3.895,0.446
	c1.416-0.659,2.079-1.813,1.983-3.458c-0.092-1.647-1.147-4.63-3.167-8.954l-11.332-24.28L449.171,469.31z"/>
<path style="fill:#FFFFFF;" d="M461.998,469.966l3.206-1.877c1.104-0.647,2.178-0.753,3.219-0.318
	c1.041,0.434,1.991,1.376,2.84,2.829c1.014,1.73,1.487,3.173,1.422,4.326c-0.066,1.152-0.685,2.075-1.855,2.759l-3.209,1.881
	L461.998,469.966z M471.109,485.517l2.896-1.698c1.385-0.81,2.672-0.972,3.862-0.485c1.193,0.492,2.332,1.661,3.418,3.515
	c1.097,1.872,1.555,3.446,1.376,4.728c-0.178,1.279-1.001,2.349-2.472,3.211l-2.715,1.589L471.109,485.517z M485.327,499.871
	c2.888-1.693,4.492-3.792,4.813-6.3c0.317-2.506-0.625-5.641-2.833-9.409c-1.475-2.518-3.118-4.32-4.933-5.414
	c-1.814-1.095-3.62-1.371-5.416-0.833c1.287-1.009,1.858-2.568,1.714-4.674c-0.142-2.106-0.971-4.45-2.488-7.037
	c-1.84-3.138-3.872-5.095-6.098-5.862c-2.229-0.769-4.699-0.359-7.411,1.232l-9.67,5.666l22.497,38.39L485.327,499.871z"/>
</svg>
