<svg height="1000" viewBox="0 0 1000 999.99998" width="1000" xmlns="http://www.w3.org/2000/svg"><g transform="matrix(3.2206883 0 0 3.2206883 -347.9374 -746.94847)"><path d="m 255.516 525.393 c 80.626 0 145.986 -65.372 145.986 -145.993 c 0 -80.633 -65.36 -145.992 -145.986 -145.992 c -80.615 0 -145.975 65.359 -145.975 145.992 c 0 80.621 65.36 145.993 145.975 145.993" fill="#fff"/><path d="m 288.06 326.055 c .55 1.125 1.074 2.2 1.601 3.36 c 3.324 6.096 9.072 8.461 13.974 9.849 c -1.246 -3.861 -4.013 -10.226 -6.742 -13.209 h -8.833" fill="#0066a5"/><path d="m 274.713 326.066 l 6.171 -4.958 c -1.83 -3.337 -2.573 -4.412 -3.92 -6.143 c -1.748 -1.639 -3.234 -3.255 -4.376 -4.766 c -.754 .212 -1.498 .326 -2.173 .367 c -1.027 .035 -2.055 -.257 -3.016 -.835 c .411 3.125 .915 7.615 1.155 12.495 c 1.829 8.039 15.734 21.636 23.984 26.257 c -1.119 -5.203 -5.553 -15.665 -8.946 -22.606 l -8.879 .189" fill="#0066a5"/><path d="m 284.563 318.016 l 7.679 -6.199 c -3.771 -3.17 -7.53 -5.805 -10.581 -7.291 c -1.554 -.525 -2.892 -1.016 -3.966 -1.427 c .298 1.777 -.114 3.101 -.628 3.988 c -.48 .846 -1.188 1.484 -1.954 2 c 2.388 3.021 4.983 5.77 9.45 8.929" fill="#0066a5"/><path d="m 277.238 297.283 c -2.033 1.228 -1.417 2.119 .24 2.735 c 1.611 .624 4.742 1.252 8.753 3.515 c 4.011 2.257 7.531 5.09 8.535 5.941 l 4.572 -3.827 c -.675 -.126 -17.93 -6.56 -22.1 -8.364" fill="#0066a5"/><path d="m 281.558 436.722 c -2.901 -.148 -5.771 -.736 -8.341 -1.298 L 271 434.979 c -.617 -.132 -1.086 -.222 -1.44 -.302 c 1.13 2.77 3.256 6.176 6.033 9.459 l .902 -1.421 c 1.281 -1.993 2.993 -4.017 5.063 -5.993" fill="#0066a5"/><path d="m 286.621 452.913 c 2.809 1.641 5.736 2.755 8.603 3 c .286 -1.604 .857 -3.315 1.748 -5.137 c -2.618 1.029 -6.546 2.247 -10.351 2.137" fill="#0066a5"/><path d="m 287.156 444.573 c -3.428 .524 -6.49 .735 -8.968 .621 l -1.007 -.045 c 2.034 2.188 4.309 4.257 6.731 5.998 c .147 -.479 .343 -1.039 .343 -1.039 c .308 -.959 1.176 -3.17 2.901 -5.535" fill="#0066a5"/><path d="m 271.011 430.3 l .112 -.121 c 2.151 -2.102 4.218 -4.117 6.768 -5.659 c -3.521 -.63 -7.566 -1.566 -10.274 -2.857 l -.399 -.196 c .215 4.303 .753 7.92 1.598 10.971 c .527 -.513 1.108 -1.086 1.108 -1.086 l 1.087 -1.052" fill="#0066a5"/><path d="m 236.697 370.447 c -.846 -.525 -1.692 -1.061 -1.692 -1.061 c -3.268 -2.058 -6.947 -4.366 -10.626 -6.411 c .011 .08 .011 .136 .011 .136 c .514 3.337 .103 8.662 -1.028 14.513 c 3.908 -2.588 9.689 -6.061 13.335 -7.177" fill="#0066a5"/><path d="m 325.002 420.33 c -1.576 -.817 -3.566 -1.056 -5.108 -.576 c -.536 .164 -1.211 .48 -1.53 1.079 c -.652 1.251 -.995 3.067 -.354 4.141 c .47 .83 1.577 1.298 3.313 1.383 c 4.332 .218 4.332 .218 4.435 .875 l .078 .658 l -.489 .176 c -.526 .383 -2.823 2.126 -2.823 2.126 c -.204 .154 -19.276 14.746 -22.704 25.612 c 8.672 -1.132 22.854 -13.151 27.401 -21.774 c 1.965 -3.753 2.57 -6.877 1.815 -9.3 c -.571 -1.799 -1.921 -3.286 -4.034 -4.4" fill="#0066a5"/><path d="m 325.195 427.307 l .149 -.052 c .057 -.046 .081 -.069 .081 -.069 l -.23 .121" fill="#0066a5"/><path d="m 332.748 421.651 c -.033 -.092 -.091 -.185 -.135 -.281 c -.07 -.033 -.139 -.058 -.207 -.091 l .342 .372" fill="#0066a5"/><path d="m 340.234 421.182 c -.103 .034 -.207 .074 -.31 .097 c -.069 .091 -.102 .187 -.148 .28 l .458 -.377" fill="#0066a5"/><path d="m 339.227 411.824 c -2.913 .901 -5.998 .525 -9.141 -1.137 c -1.053 -.538 -2.033 -1.297 -2.88 -2.2 l -.525 -.348 c -12.193 -8.274 -36.165 -21.204 -54.379 -24.516 c 9.974 8.975 24.589 19.236 32.793 23.699 c 8.092 4.359 16.295 7.52 17.495 7.976 c 1.566 .141 3.086 .56 4.412 1.262 c 2.661 1.395 4.535 3.29 5.61 5.605 c 2.123 1.136 4.74 .657 7.312 -.08 c 3.097 -5.538 5.577 -11.337 7.427 -17.351 c -2.319 3.742 -5.038 6.129 -8.124 7.09" fill="#0066a5"/><path d="m 280.3 411.709 c -4.192 -2.097 -10.1 -5.37 -12.9 -7.982 c -.035 1.007 -.067 2 -.067 2 c -.161 3.874 -.31 8.193 -.229 12.415 c .058 -.046 .092 -.081 .092 -.081 c 2.638 -2.096 7.459 -4.426 13.104 -6.352" fill="#0066a5"/><path d="m 272.816 402.568 c 3.967 2.702 10.262 5.993 13.462 7.336 c 4.045 -1.074 7.895 -1.765 11.334 -2.056 c -3.542 -2.212 -7.565 -4.926 -11.586 -7.816 c -2.321 -.288 -9.21 1.473 -13.21 2.536" fill="#0066a5"/><path d="m 267.549 395.524 c .011 1.205 0 2.518 -.023 4.061 c .103 -.036 .193 -.058 .193 -.058 l .39 -.108 c 4.535 -1.24 9.164 -2.48 12.866 -3.159 c -5.645 -4.309 -10.625 -8.52 -14.386 -12.125 c .467 3.235 .914 7.302 .96 11.389" fill="#0066a5"/><path d="m 245.438 442.702 c -8.033 -7.477 -22.637 -13.259 -32.018 -14.172 c -.069 .798 -.241 1.547 -.583 2.215 c -.343 .738 -.993 1.711 -2.159 2.515 c .867 .617 1.76 1.264 2.65 1.92 c 7.12 3.965 22.077 7.416 32.11 7.522" fill="#0066a5"/><path d="m 232.022 453.761 c .813 1.37 1.429 2.678 1.863 3.929 c 1.885 -.491 3.839 -1.33 5.817 -2.536 c -2.388 -.098 -5.005 -.578 -7.68 -1.393" fill="#0066a5"/><path d="m 233.211 444.996 c -3.348 -.572 -6.639 -1.321 -9.747 -2.2 c 1.188 1.124 2.285 2.222 3.28 3.3 c 2.685 1.711 7.952 3.533 12.34 3.921 c -1.234 -1.731 -3.118 -3.685 -5.873 -5.021" fill="#0066a5"/><path d="m 211.889 422.553 c .32 .49 .583 1.039 .834 1.651 c 1.896 .115 4.012 .429 6.353 .949 c 6.49 .594 24.373 -2.11 33.79 -5.503 c -8.64 -3.439 -25.426 -6.49 -33.196 -4.199 c -3.222 1.942 -6.386 3.743 -9.473 5.382 c .675 .47 1.247 1.028 1.692 1.72" fill="#0066a5"/><path d="m 254.441 435.797 c -2.524 .737 -5.347 1.572 -8.227 1.942 c 2.25 1.816 4.114 3.674 5.543 5.57 c 0 0 .034 .035 .056 .074 c 1.989 -2.811 3.611 -5.713 4.548 -8.147 c -.571 .179 -1.92 .561 -1.92 .561" fill="#0066a5"/><path d="m 249.117 446.848 c -2.273 .192 -5.016 .17 -8.009 -.047 c 1.861 2.011 2.902 3.879 3.347 4.804 c 1.611 -1.416 3.165 -3.005 4.662 -4.757" fill="#0066a5"/><path d="m 238.936 411.698 c 2.846 -1.493 9.255 -5.458 13.232 -8.65 c -6.125 -.961 -11.22 -1.327 -13.004 -.904 c -3.667 2.869 -7.677 5.725 -11.927 8.508 c 3.517 .023 7.505 .365 11.699 1.046" fill="#0066a5"/><path d="m 239.645 433.249 c 3.805 1.051 8.17 .011 11.906 -1.064 c -3.462 -2.767 -6.753 -4.788 -11.814 -4.892 c -3.132 .572 -6.388 1.053 -9.417 1.4 c 3.28 1.328 6.456 2.882 9.325 4.556" fill="#0066a5"/><path d="m 273.455 419.181 c 9.908 2.634 28.064 3.642 34.589 2.704 c 2.137 -.628 4.093 -1.063 5.84 -1.319 c .206 -.625 .423 -1.206 .72 -1.71 c .309 -.634 .754 -1.181 1.303 -1.65 c -2.708 -1.161 -6.309 -2.76 -10.056 -4.69 c -7.188 -2.155 -23.929 2.325 -32.396 6.665" fill="#0066a5"/><path d="m 325.938 396.809 c -.834 -1.69 -1.61 -3.685 -2.343 -5.964 c -2.719 -5.931 -14.022 -20.042 -21.653 -26.515 c 1.314 9.197 7.086 25.263 12.935 30.847 c 3.314 1.811 6.455 3.672 9.416 5.518 c .068 -.817 .263 -1.612 .641 -2.326 c .261 -.515 .604 -1.046 1.004 -1.56" fill="#0066a5"/><path d="m 334.406 369.082 c 1.177 3.183 2.183 6.422 2.971 9.536 c .376 -1.582 .776 -3.091 1.211 -4.509 c .127 -3.17 -.927 -8.621 -2.765 -12.62 c -.902 1.925 -1.646 4.537 -1.417 7.593" fill="#0066a5"/><path d="m 287.773 431.728 c 2.733 -1.909 5.758 -3.714 8.924 -5.292 c -3.039 -.102 -6.318 -.325 -9.495 -.645 c -5.039 .492 -8.159 2.789 -11.392 5.817 c 3.827 .771 8.248 1.452 11.963 .12" fill="#0066a5"/><path d="m 331.309 361.729 c .836 -2.605 1.921 -4.457 2.504 -5.286 c -2.034 -.691 -4.182 -1.25 -6.444 -1.662 c 1.312 1.886 2.649 4.246 3.94 6.948" fill="#0066a5"/><path d="m 313.679 354.301 c .444 .412 1.451 1.395 1.451 1.395 c 1.92 1.811 4.022 3.839 5.791 6.141 c .458 -2.845 1.133 -5.394 2.059 -7.57 l .035 -.091 c -3.441 -.331 -6.777 -.275 -9.336 .125" fill="#0066a5"/><path d="m 331.549 394.249 c .811 -.069 1.966 .012 3.258 .617 c .103 -1.074 .227 -2.161 .354 -3.251 c -.127 -8.142 -4.64 -22.842 -9.541 -31.566 c -2.478 10.678 -.193 26.207 3.724 34.782 c .731 -.326 1.465 -.524 2.205 -.582" fill="#0066a5"/><path d="m 339.251 358.77 c 1.096 2.108 2.011 4.634 2.65 7.336 c .765 -1.366 1.588 -2.561 2.481 -3.554 c -1.396 -1.406 -3.097 -2.669 -5.131 -3.782" fill="#0066a5"/><path d="m 286.482 369.071 c 3.783 1.028 9.462 3.81 13.417 5.965 c -1.601 -5.302 -2.516 -10.096 -2.526 -13.376 c -3.405 2.166 -6.753 4.509 -9.748 6.599 l -1.143 .812" fill="#0066a5"/><path d="m 332.074 406.91 c 2.103 1.109 4.081 1.395 5.908 .829 c 2.422 -.76 4.628 -3.029 6.604 -6.771 c 4.217 -8.021 5.839 -23.184 3.52 -31.839 l -.229 -.773 c -.229 -.776 -.525 -1.525 -.902 -2.263 c -7.005 9.011 -8.205 32.916 -8.216 33.162 l -.147 3.668 l -.104 2.205 l -1.349 -1.753 l -2.228 -2.914 c -1.061 -1.377 -2.068 -2.045 -3.029 -1.966 c -1.221 .108 -2.536 1.417 -3.185 2.657 c -.31 .599 -.196 1.347 -.023 1.863 c .479 1.541 1.793 3.061 3.38 3.895" fill="#0066a5"/><path d="m 282.517 371.796 c -1.246 .862 -2.332 1.566 -3.358 2.211 c -3.13 1.989 -6.446 3.673 -9.212 4.948 c 5.052 .644 10.868 2.12 17.29 4.375 c -2.183 -4.489 -4.206 -10.083 -4.72 -11.534" fill="#0066a5"/><path d="m 314.272 427.096 c -.354 -.647 -.594 -1.361 -.743 -2.155 c -9.291 1.646 -23.356 8.566 -30.772 16.648 c 3.221 -.291 7.004 -.981 11.083 -2.021 c .137 -.069 .675 -.355 .675 -.345 l .08 .143 c 8.065 -2.13 15.632 -5.181 19.813 -8.038 c .755 -.657 1.509 -1.272 2.23 -1.909 c -1.236 -.713 -1.954 -1.61 -2.366 -2.323" fill="#0066a5"/><path d="m 320.305 369.796 c -.982 -3.817 -4.056 -7.097 -6.867 -9.811 c -.674 4.388 -.754 8.263 1.692 12.686 c 2.044 2.433 4.078 5.009 5.906 7.466 c -.491 -3.496 -.742 -7.032 -.731 -10.341" fill="#0066a5"/><path d="m 295.189 442.915 c -2.651 1.543 -4.363 3.634 -5.438 5.452 c 4.296 -.795 9.451 -3.104 12.123 -5.068 c .857 -1.086 1.817 -2.201 2.834 -3.348 c -3.017 1.124 -6.239 2.13 -9.519 2.964" fill="#0066a5"/><path d="m 309.52 357.495 l .112 -.702 l .253 -1.497 c -2.617 .914 -5.463 2.233 -8.594 4.01 c 2.424 1.572 5.175 4.086 7.485 6.416 c -.206 -2.832 .263 -5.466 .744 -8.227" fill="#0066a5"/><path d="m 248.934 425.279 c 2.537 1.25 4.593 2.968 6.731 4.753 l .559 .468 l 1.166 .954 v .017 c .525 -2.742 .801 -5.865 .823 -9.466 c -2.559 1.321 -6.137 2.446 -9.279 3.274" fill="#0066a5"/><path d="m 302 381.177 c -2.708 -1.732 -9.336 -5.302 -14.09 -7.135 c 2.216 5.781 4.447 10.38 5.725 11.7 c 4.298 1.754 8.788 3.789 13.312 6.074 c -1.736 -3.057 -3.427 -6.674 -4.947 -10.639" fill="#0066a5"/><path d="m 255.641 302.025 c .046 1.166 -.125 2.393 -.456 3.587 l -.034 .624 c -1.075 14.695 -.309 41.923 5.93 59.345 c 2.8 -13.12 4.363 -30.898 4.125 -40.252 c -.251 -9.123 -1.623 -17.807 -1.827 -19.128 c -.664 -1.426 -1.064 -2.965 -1.121 -4.45 c -.126 -3.005 .572 -5.576 2.067 -7.662 c -.08 -1.874 -1.096 -3.673 -3.381 -5.941 c -6.091 .058 -12.101 .725 -17.975 1.965 c 3.874 .292 6.914 1.412 9.074 3.416 c 2.24 2.068 3.462 4.936 3.598 8.496" fill="#0066a5"/><path d="m 264.498 293.832 c -.07 .068 -.104 .165 -.173 .256 c .012 .069 .034 .143 .012 .224 l .161 -.48" fill="#0066a5"/><path d="m 260.704 287.924 c .09 .069 .159 .149 .24 .223 h .331 l -.571 -.223" fill="#0066a5"/><path d="m 236.536 307.207 c .024 -.012 .035 -.023 .046 -.034 c .023 0 .034 -.012 .046 -.012 l -.092 .046" fill="#0066a5"/><path d="m 214.015 331.203 c 10.478 -3.194 22.785 -12.952 28.271 -20.625 c -.652 -.468 -1.2 -1 -1.625 -1.606 c -.467 -.68 -.97 -1.707 -1.095 -3.147 c -.972 .457 -1.955 .915 -2.983 1.349 c -6.993 4.174 -17.46 15.407 -22.568 24.029" fill="#0066a5"/><path d="m 225.087 330.923 c -2.8 2.776 -4.079 7.055 -5.027 10.85 c 4.124 -1.617 7.53 -3.468 10.159 -7.793 c 1.063 -3.011 2.263 -6.05 3.484 -8.861 c -2.788 2.176 -5.724 4.152 -8.616 5.804" fill="#0066a5"/><path d="m 225.006 330.992 c .023 -.036 .047 -.047 .081 -.069 c .024 -.011 .058 -.035 .068 -.058 l -.149 .127" fill="#0066a5"/><path d="m 230.252 333.928 c -.012 .024 -.023 .04 -.034 .052 c -.013 .034 -.022 .058 -.047 .091 l .081 -.143" fill="#0066a5"/><path d="m 210.164 321.655 c 2.102 -.199 4.742 -.84 7.279 -2.57 c 2.17 -2.612 4.479 -5.09 6.765 -7.336 c -1.566 .45 -3.063 .862 -4.503 1.177 c -2.811 1.473 -7.004 5.124 -9.541 8.729" fill="#0066a5"/><path d="m 217.523 319.021 c -.013 .023 -.058 .041 -.08 .064 c -.024 .034 -.058 .058 -.08 .102 l .16 -.166" fill="#0066a5"/><path d="m 219.59 312.959 c .036 0 .08 -.023 .114 -.034 c .035 -.011 .058 -.022 .081 -.034 l -.195 .068" fill="#0066a5"/><path d="m 293.589 352.839 c -.011 -.011 -.136 -.046 -.136 -.046 c -3.13 -1.249 -7.54 -4.25 -12.022 -8.169 c .265 4.696 .377 11.432 -.468 15.151 l 1.747 -.931 c 3.418 -1.805 7.258 -3.828 10.879 -6.005" fill="#0066a5"/><path d="m 211.135 314.073 c -1.577 .024 -3.017 -.12 -4.319 -.388 c -.548 1.898 -.777 4.016 -.73 6.342 c 1.29 -2.022 3.015 -4.056 5.049 -5.954" fill="#0066a5"/><path d="m 257.184 404.301 c -2.787 2.757 -8.045 6.295 -11.873 8.632 c 5.405 1.266 10 2.878 12.844 4.507 c -.148 -4.029 -.513 -8.108 -.856 -11.747 c 0 0 -.057 -.668 -.115 -1.392" fill="#0066a5"/><path d="m 250.579 311.629 c -.742 .359 -1.53 .57 -2.33 .622 c -.595 .012 -1.222 -.052 -1.863 -.13 c -1.028 1.582 -2.376 3.261 -3.999 5.044 c -3.76 5.336 -10.353 22.162 -12.124 32.012 c 7.302 -5.76 18.317 -18.768 20.225 -26.642 c -.078 -3.77 -.034 -7.421 .091 -10.906" fill="#0066a5"/><path d="m 250.512 322.451 c -.011 .028 -.024 .062 -.024 .085 v .103 l .024 -.188" fill="#0066a5"/><path d="m 242.341 317.211 c .035 -.024 .035 -.036 .046 -.046 c .023 -.011 .023 -.034 .034 -.034 l -.08 .08" fill="#0066a5"/><path d="m 243.94 341.315 c .069 -.098 .114 -.154 .171 -.223 c 0 -.081 .012 -.177 .023 -.247 l -.194 .47" fill="#0066a5"/><path d="m 250.854 331.482 c -1.771 3.034 -4.046 6.308 -6.743 9.611 c -.125 3.228 .103 10.752 .87 15.768 c 3.895 -4.804 6.776 -9.056 7.289 -10.798 c -.639 -4.611 -1.095 -9.513 -1.416 -14.581" fill="#0066a5"/><path d="m 258.213 369.945 c -1.965 -4.69 -3.588 -10.449 -4.857 -17.139 c -2.777 4.129 -6.616 8.671 -7.633 9.837 c 1.384 .658 2.561 1.241 3.6 1.805 c 3.314 1.731 6.409 3.753 8.89 5.497" fill="#0066a5"/><path d="m 219.853 346.417 l -.674 .246 l -1.415 .525 h -.012 c 2.114 1.823 4.697 3.628 7.805 5.463 c .125 -2.904 .926 -6.543 1.805 -9.697 c -2.378 1.578 -4.881 2.504 -7.509 3.463" fill="#0066a5"/><path d="m 217.899 334.372 c -2.674 1.03 -5.209 1.721 -7.587 2.001 l -.079 .029 c 1.44 3.137 3.143 5.986 4.776 7.998 c .149 -.559 .48 -1.924 .48 -1.924 c .616 -2.566 1.302 -5.412 2.41 -8.104" fill="#0066a5"/><path d="m 241.393 360.587 c -.994 -3.794 -1.417 -10.102 -1.553 -14.593 c -3.76 4.034 -7.485 7.222 -10.307 8.856 c 3.565 1.885 7.279 3.615 10.592 5.148 c -.001 .001 .651 .308 1.268 .589" fill="#0066a5"/><path d="m 206.804 325.917 c .399 2.092 1.006 4.246 1.783 6.411 c .971 -2.084 2.343 -4.422 4.034 -6.901 c -2.664 .605 -4.8 .558 -5.817 .49" fill="#0066a5"/><path d="m 200.623 395.792 c .011 -.011 .023 -.023 .023 -.034 c .023 -.023 .023 -.047 .023 -.069 l -.046 .103" fill="#0066a5"/><path d="m 200.645 396.552 c -.515 2.166 -1.098 4.085 -1.76 5.737 c .423 .478 .823 .97 1.132 1.462 c .365 .594 .616 1.263 .776 1.966 c 2.331 -1.756 5.541 -4.085 9.073 -6.387 c 5.462 -5.115 9.942 -21.871 10.42 -31.361 c -7.231 7.254 -17.173 22.475 -19.641 28.583" fill="#0066a5"/><path d="m 202.383 384.479 c 1.623 -2.6 3.462 -5.325 5.313 -7.925 c 2.102 -4.61 1.656 -8.444 .674 -12.764 c -2.605 2.926 -5.394 6.424 -6.09 10.308 c .274 3.315 .319 6.844 .103 10.381" fill="#0066a5"/><path d="m 186.179 367.077 c -1.45 4.108 -2.044 9.735 -1.668 13.037 c .503 1.297 .995 2.68 1.475 4.144 c .548 -3.182 1.291 -6.485 2.194 -9.748 c -.012 -3.057 -.973 -5.572 -2.001 -7.433" fill="#0066a5"/><path d="m 240.091 373.213 c -1.199 4.525 -2.446 9.181 -3.714 12.718 c 6.569 -2.744 12.684 -4.948 17.7 -6.387 c -3.029 -1.224 -6.776 -2.857 -10.34 -4.857 c -1.04 -.588 -2.172 -1.269 -3.497 -2.063 c -.035 .12 -.046 .189 -.046 .189 l -.103 .4" fill="#0066a5"/><path d="m 244.444 397.815 c 4.982 .365 10.833 1.415 12.352 1.69 c -.114 -1.515 -.182 -2.81 -.228 -3.993 c -.161 -3.729 .045 -7.444 .296 -10.473 c -3.074 4.064 -7.245 8.342 -12.42 12.776" fill="#0066a5"/><path d="m 176.901 368.048 c 1.256 1.034 2.445 2.399 3.588 4.085 c .4 -2.783 1.324 -6.8 3.313 -10.04 c -2.821 1.619 -5.244 3.595 -6.901 5.955" fill="#0066a5"/><path d="m 211.513 358.832 l .376 1.462 l .034 .16 c .767 2.915 1.463 5.702 1.533 8.684 c 2.296 -2.736 5.153 -5.758 7.62 -7.465 l .378 -.259 c -3.85 -1.965 -7.244 -3.297 -10.318 -4.096 l .377 1.514" fill="#0066a5"/><path d="m 187.436 361.449 c .663 .749 2.136 2.599 3.336 5.29 c 1.235 -3.228 2.594 -6.005 3.942 -8.083 l .525 -.857 c -2.902 .667 -5.828 1.605 -8.547 2.833 c .333 .367 .744 .817 .744 .817" fill="#0066a5"/><path d="m 197.63 357.33 c .296 .588 .765 1.503 .765 1.503 c 1.108 2.103 1.977 4.582 2.662 7.381 c 1.578 -2.434 3.519 -4.622 5.292 -6.588 l 1.497 -1.686 c .421 -.48 .742 -.829 .993 -1.102 c -2.983 -.404 -6.994 -.257 -11.209 .492" fill="#0066a5"/><path d="m 196.246 364.821 c -1.37 2.935 -2.674 6.541 -3.792 10.603 c -.013 .16 -.035 .749 -.035 .749 h -.16 c -2.205 8.06 -3.324 16.123 -2.948 21.19 c .171 .982 .354 1.931 .514 2.884 c 1.234 -.708 2.399 -.885 3.199 -.885 c .744 0 1.498 .143 2.252 .434 c 3.199 -8.872 4.272 -24.538 .97 -34.975" fill="#0066a5"/><path d="m 189.311 396.592 v -.04 c 0 -.023 0 -.034 -.012 -.058 l .012 .098" fill="#0066a5"/><path d="m 221.945 383.698 c -1.12 4.044 -2.434 7.728 -3.896 10.842 c 3.669 -1.953 8.021 -4.083 12.534 -6.096 c 1.417 -1.897 3.348 -8.742 4.411 -12.718 c -4.308 2.069 -10.319 5.884 -13.049 7.972" fill="#0066a5"/><path d="m 273.765 363.757 c 1.04 -.611 2.181 -1.263 3.529 -1.999 c -.078 -.098 -.147 -.145 -.147 -.145 l -.288 -.28 c -3.336 -3.302 -6.729 -6.718 -9.141 -9.57 c -.912 7.028 -2.089 13.455 -3.313 18.512 c 2.548 -2.027 5.863 -4.438 9.36 -6.518" fill="#0066a5"/><path d="m 276.86 340.368 c -2.947 -2.983 -5.483 -5.982 -7.438 -8.8 c -.126 4.178 -.491 9 -.993 13.924 c .914 2.164 5.896 7.256 8.798 10.182 c .365 -4.789 .067 -11.89 -.367 -15.306" fill="#0066a5"/><path d="m 276.827 340.109 c .011 .069 .022 .149 .033 .259 c .07 .056 .138 .114 .207 .188 l -.24 -.447" fill="#0066a5"/><path d="m 226.321 457.645 l .777 .188 c .766 .189 1.578 .303 2.41 .338 c -4.319 -10.563 -24.429 -23.539 -24.613 -23.683 l -3.096 -1.977 l -1.84 -1.183 l 2.171 -.291 l 3.634 -.469 c 1.713 -.222 2.8 -.771 3.211 -1.65 c .525 -1.12 .045 -2.903 -.698 -4.086 c -.354 -.57 -1.075 -.828 -1.6 -.942 c -1.564 -.365 -3.565 .023 -5.05 .97 c -2.011 1.265 -3.268 2.841 -3.679 4.692 c -.572 2.479 .297 5.546 2.559 9.125 c 4.835 7.655 17.152 16.647 25.803 18.991 l .011 -.023" fill="#0066a5"/><path d="m 193.778 428.615 c .674 -2.982 2.537 -5.468 5.554 -7.37 c .994 -.624 2.159 -1.103 3.347 -1.383 l .548 -.281 c 13.279 -6.421 36.463 -20.71 48.438 -34.834 c -12.764 4.154 -28.966 11.679 -36.93 16.558 c -7.803 4.794 -14.637 10.341 -15.643 11.153 c -.903 1.296 -2.034 2.383 -3.291 3.181 c -2.548 1.602 -5.131 2.304 -7.679 2.057 c -2.023 1.264 -2.915 3.748 -3.554 6.308 c 3.188 5.393 6.98 10.449 11.255 15.095 c -2.056 -3.839 -2.753 -7.371 -2.045 -10.484" fill="#0066a5"/><path d="m 193.515 412.034 c 1.498 -.96 2.697 -2.588 3.063 -4.153 c .115 -.527 .183 -1.289 -.171 -1.851 c -.743 -1.195 -2.148 -2.388 -3.394 -2.399 c -.961 -.012 -1.932 .724 -2.879 2.197 c -2.285 3.595 -2.285 3.595 -2.88 3.418 l -.571 -.171 v -.553 c -.069 -.417 -.458 -3.577 -.458 -3.577 c -.034 -.247 -3.131 -24.06 -10.831 -32.458 c -3.36 8.074 -.046 26.361 5.176 34.611 c 2.25 3.565 4.651 5.673 7.118 6.222 c 1.851 .423 3.805 -.011 5.827 -1.286" fill="#0066a5"/><path d="m 210.072 307.767 c -.559 .578 -1.051 1.229 -1.485 1.932 c 11.301 1.542 32.59 -9.387 32.829 -9.489 c 0 0 2.252 -1.556 3.235 -1.686 c 1.004 -.126 1.988 .034 1.13 1.017 c -.881 .971 -1.417 3.382 -1.417 3.382 c -.697 1.604 -.743 2.822 -.194 3.617 c .721 1.004 2.491 1.485 3.896 1.439 c .674 -.034 1.257 -.514 1.634 -.925 c 1.075 -1.183 1.738 -3.085 1.669 -4.868 c -.068 -2.387 -.846 -4.233 -2.229 -5.519 c -1.85 -1.726 -4.958 -2.52 -9.175 -2.343 c -9.049 .349 -23.002 6.519 -29.343 12.85 l .011 .022 l -.561 .571" fill="#0066a5"/><path d="m 285.158 363.969 c 7.826 -5.503 16.74 -11.748 25.514 -14.191 c 8.892 -2.487 30.305 -.108 38.611 11.146 c .183 .256 .4 .537 .583 .835 c -1.119 -11.519 -6.902 -25.722 -13.036 -35.88 h -18.775 c -1.005 7.524 -5.748 16.837 -9.096 20.476 c -6.183 6.72 -15.771 11.787 -24.248 16.267 c -3.154 1.673 -6.136 3.245 -8.765 4.811 c -5.096 3.016 -9.896 7.461 -11.86 9.111 c 2.376 -.96 7.849 -3.833 12.798 -6.947 c 2.604 -1.64 5.347 -3.571 8.274 -5.628" fill="#0066a5"/><path d="m 238.331 364.665 c -8.696 -4.022 -18.536 -8.599 -25.047 -14.975 c -6.593 -6.474 -15.244 -26.196 -9.646 -38.999 c .069 -.19 .162 -.36 .24 -.549 c -1.873 1.606 -3.736 3.274 -5.46 5.033 c -14.204 14.181 -23.14 32.562 -25.563 52.301 c 7.28 -13.643 29.23 -16.569 38.211 -14.581 c 8.925 1.999 18.1 7.772 26.214 12.873 c 3.016 1.897 5.884 3.686 8.557 5.182 c 5.338 3 11.45 5.291 13.69 6.085 c -1.931 -1.498 -6.868 -5.206 -12.18 -8.017 c -2.721 -1.409 -5.783 -2.839 -9.016 -4.353" fill="#0066a5"/><path d="m 265.011 434.7 c -2.708 -8.708 -2.307 -19.563 -1.954 -29.138 c .137 -3.555 .251 -6.927 .217 -9.994 c -.068 -6.186 -1.166 -12.671 -1.599 -14.939 c -.309 2.29 -1.098 8.586 -.856 14.705 c .124 3.058 .422 6.417 .743 9.971 c .856 9.536 1.816 20.361 -.47 29.195 c -2.307 8.94 -15.06 26.305 -28.943 27.835 c -.514 .098 -1.064 .12 -1.624 .131 c 9.931 3.698 20.387 5.571 31.206 5.571 c 12.423 0 24.716 -2.611 36.005 -7.581 c -15.848 1.329 -29.902 -16.792 -32.725 -25.756" fill="#0066a5"/><path d="m 261.982 378.709 c 0 0 .139 -.4 .538 -.806 c .435 -.423 .836 -.725 1.566 -1.36 c -.639 .39 -1.224 .784 -1.234 .795 c 0 0 -.788 .297 -1.017 .377 l -.273 .046 c -.196 -.091 -.539 -.212 -1.202 -.423 c -.011 0 -.318 -.102 -.857 -.303 c .514 .411 .823 .657 .835 .668 c 0 0 .571 .469 .788 .646 l .137 .21 h .011 c .023 .218 .092 .572 .23 1.2 c 0 0 .058 .332 .159 .857 c .08 -.56 .137 -.881 .137 -.903 c .001 .001 .16 -.804 .182 -1.004" fill="#0066a5"/><path d="m 266.531 301.591 c .058 1.777 .881 3.628 2.058 4.714 c .399 .376 1.029 .804 1.715 .782 c 1.394 -.058 3.13 -.674 3.769 -1.743 c .48 -.827 .31 -2.034 -.468 -3.581 c -1.92 -3.719 -1.395 -2.605 -1.395 -3.623 c 0 -.993 1.612 -2.227 1.612 -2.227 l -4.64 -2.15 c -1.052 1.342 -2.742 5.662 -2.651 7.828" fill="#0066a5"/><path d="m 307.553 338.693 c .194 .593 .344 1.039 .458 1.405 c 1.841 -2.388 4.902 -8.508 5.77 -14.22 h -11.142 c 1.646 2.821 3.372 8.181 4.195 10.672 l .719 2.143" fill="#0066a5"/><path d="m 302.16 343.361 l -.184 -.035 c -2.89 -.816 -5.655 -1.605 -8.262 -3.016 c 1.19 3.353 2.412 7.313 2.663 10.318 l .023 .457 c 3.624 -2.365 6.491 -4.622 8.695 -6.878 c -.674 -.188 -1.496 -.423 -1.496 -.423 c 0 0 -1.451 -.423 -1.439 -.423" fill="#0066a5"/><path d="m 137.65 332.06 c .754 .326 2.39 .607 3.509 -1.874 c .617 -1.343 .971 -2.993 -.469 -3.662 c -1.04 -.481 -1.816 .412 -2.811 1.697 l -1.005 1.308 c -1.52 1.966 -2.982 3.874 -5.987 2.508 c -1.51 -.704 -3.829 -2.754 -1.795 -7.165 c 1.909 -4.187 5.154 -4.056 6.833 -3.308 l -1.245 2.738 c -.652 -.212 -2.194 -.646 -3.349 1.844 c -.479 1.091 -.674 2.566 .561 3.125 c 1.063 .492 1.691 -.291 2.08 -.793 l 2.341 -2.949 c 1.315 -1.652 2.857 -3.017 5.303 -1.897 c 4.09 1.886 2.537 6.228 2 7.422 c -2.274 4.971 -5.52 4.515 -7.223 3.744 l 1.257 -2.738" fill="#2e3192"/><path d="M 146.323 324.581 L 133.113 317.457 L 134.623 314.697 L 147.831 321.81 Z" fill="#2e3192"/><path d="M 141.673 311.127 L 150.631 316.954 L 149.043 319.411 L 136.462 311.229 L 138.257 308.458 L 150.278 309.173 L 150.287 309.138 L 141.559 303.425 L 143.135 300.979 L 155.727 309.173 L 153.989 311.795 L 141.695 311.092 Z" fill="#2e3192"/><path d="m 155.26 293.74 c -.859 -.376 -2.469 -1.091 -4.114 .91 c -.948 1.158 -1.6 3.501 1.68 6.204 c 2.067 1.72 4.604 2.434 6.295 .383 c 1.108 -1.332 1.119 -2.891 -.045 -4.355 l 1.988 -2.423 c 2.103 2.566 2.503 5.669 .114 8.56 c -2.548 3.073 -6.433 3.553 -10.421 .279 c -4.045 -3.347 -4.17 -7.386 -1.713 -10.369 c 2.855 -3.451 6.388 -2.892 8.193 -1.601 l -1.977 2.412" fill="#2e3192"/><path d="M 163.429 290.192 L 166.137 292.963 L 172.079 287.164 L 173.94 289.056 L 165.794 297.014 L 155.316 286.296 L 163.188 278.583 L 165.04 280.479 L 159.35 286.039 L 161.567 288.296 L 166.8 283.182 L 168.651 285.091 Z" fill="#2e3192"/><path d="m 172.811 272.783 l .365 -.273 c 2.492 -1.777 2.229 -3.554 1.578 -4.57 l 2.125 -1.52 l 9.404 13.134 l -2.605 1.852 l -6.467 -9.044 l -3.12 2.234 l -1.28 -1.813" fill="#2e3192"/><path d="m 188.934 273.355 v .022 c .73 .858 1.575 .914 2.421 .4 c 1.121 -.68 1.68 -2.32 -.022 -5.233 l -.069 -.012 c -.058 1.313 -.995 2.178 -1.931 2.753 c -2.662 1.589 -5.392 .516 -6.809 -1.805 c -2.034 -3.405 -.973 -6.177 1.737 -7.815 c 4.798 -2.879 7.986 2.233 9.152 4.188 c 3.233 5.36 1.736 8.621 -.744 10.124 c -2.365 1.412 -4.879 1.074 -6.455 -.995 l 2.72 -1.627 m -.332 -4.611 c .948 -.57 1.6 -1.885 .595 -3.519 c -.926 -1.582 -2.194 -2.142 -3.612 -1.303 c -.685 .422 -1.76 1.548 -.561 3.525 c 1.258 2.08 2.526 1.932 3.578 1.297" fill="#2e3192"/><path d="m 199.149 267.608 v .022 c .65 .926 1.496 1.046 2.376 .624 c 1.189 -.572 1.896 -2.166 .445 -5.217 l -.069 -.022 c -.182 1.297 -1.188 2.092 -2.171 2.57 c -2.775 1.349 -5.417 .012 -6.605 -2.421 c -1.736 -3.555 -.41 -6.251 2.423 -7.627 c 5.049 -2.434 7.759 2.958 8.753 5.005 c 2.729 5.626 .948 8.741 -1.68 10.015 c -2.48 1.194 -4.948 .635 -6.33 -1.564 l 2.858 -1.385 m .092 -4.623 c 1.004 -.49 1.77 -1.742 .913 -3.463 c -.788 -1.662 -1.999 -2.324 -3.485 -1.627 c -.743 .365 -1.896 1.37 -.879 3.468 c 1.073 2.199 2.365 2.155 3.451 1.622" fill="#2e3192"/><path d="m 218.505 259.792 l -1.703 .623 l 1.235 3.347 l -3.006 1.099 l -1.221 -3.36 l -5.977 2.189 l -.937 -2.583 l 2.195 -11.267 l 3.394 -1.245 l 3.473 9.489 l 1.702 -.617 l .845 2.325 m -5.552 -.605 c -1.337 -3.686 -2.138 -6.074 -2.309 -6.554 l -.045 .022 l -1.417 7.902 l 3.771 -1.37" fill="#2e3192"/><path d="M 138.415 353.496 L 133.137 352.37 L 130.954 362.69 L 126.829 361.814 L 128.989 351.501 L 119.139 349.412 L 120.168 344.521 L 143.615 349.468 L 140.084 366.156 L 135.936 365.266 Z" fill="#2e3192"/><path d="m 131.56 381.868 c 1.451 -.337 4.194 -1.005 4.33 -5.135 c .104 -2.412 -1.359 -6.007 -8.146 -6.262 c -4.273 -.148 -8.205 1.405 -8.377 5.644 c -.102 2.76 1.395 4.747 4.297 5.462 l -.171 5.004 c -5.175 -1.199 -8.673 -4.724 -8.467 -10.74 c .252 -6.377 4.718 -10.774 12.993 -10.473 c 8.352 .332 12.455 5.325 12.226 11.478 c -.274 7.177 -5.325 9.902 -8.867 10.031 l .182 -5.009" fill="#2e3192"/><path d="M 118.693 409.96 L 137.193 401.151 L 137.171 401.094 L 117.688 405.635 L 116.637 401.094 L 139.935 395.642 L 141.615 402.756 L 124.201 411.263 L 124.213 411.332 L 143.569 411.206 L 145.215 418.245 L 121.904 423.69 L 120.843 419.137 L 140.311 414.594 L 140.311 414.525 L 119.802 414.725 Z" fill="#2e3192"/><path d="M 124.543 429.765 L 146.791 420.925 L 148.643 425.57 L 126.384 434.409 Z" fill="#2e3192"/><path d="M 159.189 445.83 L 155.498 447.896 L 151.945 441.589 L 134.782 451.268 L 132.336 446.902 L 149.499 437.236 L 145.946 430.928 L 149.637 428.86 Z" fill="#2e3192"/><path d="m 167.28 454.73 c 2.056 2.424 6.397 9.678 -2.194 16.934 c -8.594 7.251 -15.015 1.767 -17.061 -.645 c -2.057 -2.434 -6.399 -9.679 2.205 -16.935 c 8.572 -7.261 15.005 -1.777 17.05 .646 m -16.009 13.551 c 1.726 2.07 5.451 3.887 10.58 -.444 c 5.131 -4.33 3.943 -8.308 2.194 -10.381 c -1.747 -2.058 -5.45 -3.886 -10.592 .444 c -5.12 4.332 -3.942 8.308 -2.182 10.381" fill="#2e3192"/><path d="M 181.471 481.173 L 189.219 486.404 L 194.281 478.857 L 198.44 481.641 L 185.082 501.546 L 180.923 498.751 L 186.911 489.834 L 179.152 484.615 L 173.175 493.541 L 169.016 490.747 L 182.363 470.853 L 186.533 473.641 Z" fill="#2e3192"/><path d="m 210.084 486.205 c 2.913 1.239 10.054 5.772 5.643 16.11 c -4.41 10.359 -12.615 8.349 -15.539 7.091 c -2.914 -1.238 -10.055 -5.764 -5.656 -16.11 c 4.411 -10.34 12.638 -8.343 15.552 -7.091 m -8.239 19.304 c 2.503 1.07 6.651 1.019 9.279 -5.157 c 2.639 -6.153 -.217 -9.198 -2.708 -10.249 c -2.491 -1.051 -6.637 -1.018 -9.266 5.146 c -2.629 6.182 .216 9.211 2.695 10.26" fill="#2e3192"/><path d="M 226.653 492.478 L 222.287 511.606 L 233.908 514.251 L 232.937 518.491 L 216.449 514.72 L 221.784 491.364 Z" fill="#2e3192"/><path d="M 243.998 495.473 L 242.615 515.034 L 254.488 515.868 L 254.19 520.183 L 237.325 519.005 L 239.016 495.123 Z" fill="#2e3192"/><path d="M 260.978 506.179 L 265.206 495.543 L 270.861 495.272 L 263.583 510.624 L 264.018 519.588 L 259.025 519.835 L 258.589 510.801 L 249.598 496.3 L 255.505 496.009 Z" fill="#2e3192"/><path d="M 288.002 500.517 L 296.892 497.673 L 294.15 489.039 L 298.903 487.513 L 306.204 510.332 L 301.44 511.841 L 298.159 501.613 L 289.271 504.46 L 292.527 514.685 L 287.773 516.205 L 280.484 493.404 L 285.236 491.879 Z" fill="#2e3192"/><path d="m 309.758 481.159 c 2.799 -1.506 10.776 -4.313 16.159 5.55 c 5.415 9.855 -1.246 15.06 -4.023 16.579 c -2.789 1.525 -10.741 4.342 -16.146 -5.537 c -5.416 -9.849 1.245 -15.053 4.01 -16.592 m 10.091 18.422 c 2.364 -1.298 4.913 -4.589 1.691 -10.472 c -3.224 -5.886 -7.359 -5.526 -9.735 -4.225 c -2.364 1.309 -4.892 4.581 -1.691 10.473 c 3.222 5.886 7.38 5.519 9.735 4.224" fill="#2e3192"/><path d="m 337.857 471.612 c -1.234 -.84 -3.555 -2.444 -6.731 .212 c -1.852 1.531 -3.541 5.033 .79 10.238 c 2.763 3.302 6.557 5.2 9.803 2.481 c 2.147 -1.768 2.628 -4.211 1.21 -6.858 l 3.841 -3.204 c 2.548 4.645 2.263 9.615 -2.354 13.465 c -4.902 4.075 -11.164 3.687 -16.466 -2.667 c -5.37 -6.444 -4.364 -12.819 .378 -16.77 c 5.507 -4.58 10.9 -2.65 13.381 -.101 l -3.852 3.204" fill="#2e3192"/><path d="M 346.483 450.566 L 350.619 445.59 L 351.923 459.364 L 369.406 460.438 L 365.292 465.392 L 352.483 464.375 L 352.826 467.705 L 359.076 472.875 L 355.877 476.738 L 337.457 461.449 L 340.644 457.599 L 348.141 463.809 Z" fill="#2e3192"/><path d="M 356.744 443.321 L 358.447 440.677 L 372 449.325 L 370.318 451.959 Z" fill="#2e3192"/><path d="m 377.61 439.458 l -3.142 5.96 l -14.227 -7.536 l 2.97 -5.616 c 1.395 -2.622 3.805 -3.593 5.874 -2.479 c 1.68 .874 2.297 2.302 1.84 3.81 h .058 c .97 -1.439 3.027 -2.268 5.221 -1.097 c 2.399 1.274 2.982 3.977 1.406 6.958 m -12.455 -5.581 l -1.292 2.475 l 3.577 1.89 l 1.404 -2.639 c .629 -1.183 .458 -2.285 -.673 -2.892 c -1.269 -.658 -2.409 .08 -3.016 1.166 m 5.873 2.657 l -1.486 2.821 l 4.103 2.167 l 1.521 -2.892 c .787 -1.486 .592 -2.892 -.744 -3.604 c -1.35 -.716 -2.675 .176 -3.394 1.508" fill="#2e3192"/><path d="m 385.072 422.741 l -4.4 -.233 l -2.217 5.46 l 3.325 2.938 l -1.166 2.868 l -12.797 -11.208 l 1.463 -3.607 l 16.979 .902 l -1.187 2.88 m -13.735 -.88 l -.068 .167 c 1.291 .737 5.118 4.177 5.118 4.177 l 1.566 -3.84 c 0 -.001 -5.177 -.147 -6.616 -.504" fill="#2e3192"/><path d="m 389.117 409.96 l -7.096 1.246 l -.812 2.783 l 6.195 1.822 l -.848 2.893 l -15.438 -4.537 l 1.819 -6.239 c .866 -2.914 3.151 -4.467 5.94 -3.662 c 2.468 .738 3.439 2.234 3.485 4.039 l 7.804 -1.817 l -1.049 3.472 m -13.886 -.782 l -.809 2.823 l 4.478 1.307 l .836 -2.857 c .422 -1.484 -.092 -2.702 -1.623 -3.158 c -1.384 -.405 -2.445 .445 -2.882 1.885" fill="#2e3192"/><path d="m 392.59 393.415 l -4.377 .68 l -1.027 5.804 l 3.851 2.177 l -.538 3.051 l -14.854 -8.329 l .675 -3.821 l 16.809 -2.624 l -.539 3.062 m -13.632 1.994 l -.023 .148 c 1.405 .457 5.862 3.045 5.862 3.045 l .719 -4.085 c .001 0 -5.072 .916 -6.558 .892" fill="#2e3192"/><path d="M 377.141 387.884 L 377.37 384.88 L 383.804 385.393 L 377.851 378.955 L 378.147 375.384 L 384.181 381.879 L 394.235 376.15 L 393.938 379.771 L 386.227 384.137 L 387.585 385.706 L 393.426 386.175 L 393.185 389.171 Z" fill="#2e3192"/><path d="M 378.009 373.772 L 378.032 370.635 L 394.122 370.671 L 394.11 373.818 Z" fill="#2e3192"/><path d="m 364.139 353.867 c -1.496 .879 -4.514 2.766 -4.514 2.766 l -5.759 -15.53 l -4.011 1.509 c 4.397 10.997 6.307 23.494 6.307 35.708 c 0 25.228 -9.826 48.946 -27.664 66.788 c -17.826 17.837 -41.558 27.675 -66.788 27.675 c -25.252 0 -48.964 -9.838 -66.799 -27.675 c -17.839 -17.842 -27.676 -41.56 -27.676 -66.788 c 0 -52.087 42.37 -94.47 94.476 -94.47 c 10.934 0 24.648 4.366 34.668 7.896 l -15.163 -12.516 l 19.413 -3.006 l -77.529 -16.534 l 17.037 9.512 l -51.613 11.02 l 18.544 5.525 l -48.598 22.031 l 24.042 -3.004 c 0 0 -30.304 26.056 -44.096 38.096 l 23.071 -7.033 l -21.162 54.185 l 14.134 -15.101 l .114 54.22 l 8.65 -18.145 l 13.026 50.603 l -.239 -21.541 l 32.246 41.594 l -7.691 -17.791 l 43.056 28.585 l -8.982 -13.553 l 41.823 11.77 c 0 0 -9.884 -7.828 -8.502 -8.096 c 19.208 -2.858 38.233 -10.017 53.636 -20.69 c 34.144 -24.321 51.547 -66.085 42.543 -108.01" fill="#2e3192"/><path d="m 382.502 342.989 c -1.704 -3.325 -2.412 -5.09 -2.412 -5.09 c .776 -.543 1.908 -1.228 3.051 -2.714 c 2.021 -6.604 -6.732 -7.599 -10.181 -10.215 c -5.532 -8.753 -10.364 -17.986 -15.895 -26.705 c -.595 -4.221 1.313 -11.09 -2.744 -15.586 c -2.753 -3.839 -7.334 -4.758 -11.825 -3.753 c -5.108 -7.148 -13.072 -19.929 -13.072 -19.929 l -1.805 10.931 l -110.176 -37.726 l -3.68 .914 c 20.614 8.633 41.16 18.466 61.053 27.464 c 11.278 4.56 35.64 16.705 35.64 16.705 l -21.207 3.44 l 18.281 16.546 l -33.491 -4.714 l 32.737 12.473 l -21.654 17.842 l 55.854 -.057 l 7.381 15.787 l 7.302 -2.926 l 6.239 15.699 l 5.246 -3.135 l 7.391 13.129 l 11.6 -12.553 c 0 0 -2.536 -4.181 -3.633 -5.827 m -30.487 -43.553 c -4.549 -1.628 -10.925 -4.331 -11.725 -9.49 c -.364 -2.056 -1.051 -4.598 .014 -6.564 c 3.519 -1.098 7.95 .034 9.746 1.885 c 1.803 1.846 4.217 7.216 1.965 14.169 m 19.48 29.276 c 2.814 -.807 4.298 .668 6.469 2.142 c 1.83 .925 1.932 4.537 -.628 5.291 c -1.887 1.051 -5.771 -4.229 -5.841 -7.433" fill="#2e3192"/><path d="m 255.516 231.922 c -8.718 0 -17.265 .794 -25.574 2.247 l 5.44 2.073 c 6.593 -.915 13.3 -1.418 20.133 -1.418 c 79.86 0 144.592 64.716 144.592 144.577 c 0 79.843 -64.732 144.587 -144.592 144.587 c -79.849 0 -144.593 -64.744 -144.593 -144.587 c 0 -67.651 46.473 -124.443 109.228 -140.211 l -4.17 -1.874 c -62.23 17.294 -107.948 74.337 -107.948 142.085 c 0 81.449 66.035 147.489 147.483 147.489 C 336.977 526.89 403 460.85 403 379.4 C 403 297.951 336.977 231.922 255.516 231.922" fill="#2e3192"/></g></svg>