<svg height="1000" viewBox="0 0 1000 999.99998" width="1000" xmlns="http://www.w3.org/2000/svg"><g transform="matrix(4.5237376 0 0 4.5237376 -891.73273 -1433.5235)"><path d="m 398.877 445.733 c 0 -1.127 -.05 -1.846 -.057 -1.952 c -.105 -1.494 -1.255 -2.699 -2.749 -2.896 c -1.487 -.184 -2.919 .712 -3.397 2.128 c -.015 .043 -1.594 4.667 -6.344 8.931 c -1.65 1.488 -2.927 1.961 -3.835 2.066 c .077 -1.059 .098 -1.34 .168 -2.221 c 1.087 -.551 2.454 -1.325 3.547 -2.178 l .219 -.17 c 1.867 -1.467 5.357 -4.187 5.675 -11.166 c .013 -.296 .013 -.585 .013 -.853 c 0 -6.507 -3.27 -9.917 -4.116 -10.7 c -.268 -.275 -3.115 -3.15 -7.07 -5.703 c -2.622 -1.692 -3.242 -3.376 -3.271 -3.446 l .028 .084 c -.438 -1.474 -1.889 -2.432 -3.426 -2.235 c -.191 .022 -.353 .106 -.536 .163 c 6.302 -8.142 6.921 -16.241 6.921 -18.821 c 0 -.479 -.027 -.775 -.027 -.839 c -.38 -5.097 -3.51 -8.283 -6.146 -10.094 c 1.811 -2.742 3.962 -6.993 3.99 -11.836 c 0 -.084 .014 -.176 .014 -.26 c 0 -8.008 -3.327 -12.019 -5.4 -14.134 c .635 -2.029 .979 -3.961 .979 -6.442 c 0 -.987 -.063 -2.059 -.176 -3.257 c -.141 -1.551 -1.41 -2.742 -2.961 -2.834 c -1.508 -.085 -2.84 .931 -3.214 2.39 c -.282 .219 -.986 .345 -1.847 .394 c -.536 -2.044 -1.699 -4.807 -4.315 -7.464 c -5.484 -5.583 -13.569 -5.273 -17.03 -5.139 c 0 0 -.232 0 -.466 .007 c -.45 -.247 -1.085 -.543 -1.974 -.902 c .748 -2.39 2.327 -4.124 3.757 -5.689 c 1.064 -1.156 1.98 -2.15 2.489 -3.369 c .407 -.973 .585 -1.868 .585 -2.672 c 0 -2.256 -1.332 -3.841 -2.544 -4.483 c -.057 -.035 -.113 -.056 -.177 -.092 c -.797 -.359 -7.852 -3.461 -12.371 -3.136 c -3.574 .239 -8.1 3.764 -10.836 6.196 c -.259 -.12 -.471 -.254 -.768 -.367 c -.479 -.169 -.958 -.141 -1.438 -.063 c -1.17 -1.022 -2.607 -1.974 -4.271 -2.439 c -1.078 -.304 -2.228 -.014 -3.031 .754 c -.459 .444 -.712 1.022 -.832 1.621 c -1.015 -.782 -2.291 -1.501 -4.004 -1.931 c -4.709 -1.22 -8.416 .253 -10.623 1.593 c -2.22 -1.34 -5.941 -2.813 -10.65 -1.593 c -1.713 .43 -2.988 1.149 -3.997 1.938 c -.134 -.606 -.374 -1.184 -.835 -1.628 c -.808 -.768 -1.963 -1.058 -3.038 -.754 c -1.653 .465 -3.099 1.417 -4.268 2.439 c -.476 -.078 -.951 -.106 -1.427 .063 c -.304 .113 -.516 .247 -.78 .367 c -2.73 -2.432 -7.256 -5.957 -10.841 -6.196 c -4.504 -.325 -11.557 2.777 -12.354 3.136 c -.056 .036 -.119 .057 -.179 .092 c -1.213 .642 -2.55 2.227 -2.55 4.49 c 0 .804 .174 1.692 .579 2.665 c .516 1.219 1.438 2.213 2.498 3.369 c 1.436 1.565 3.004 3.299 3.747 5.689 c -.874 .359 -1.525 .655 -1.97 .902 c -.232 -.007 -.466 -.007 -.466 -.007 c -3.457 -.134 -11.546 -.444 -17.026 5.139 c -2.619 2.657 -3.774 5.42 -4.324 7.464 c -.844 -.049 -1.559 -.175 -1.834 -.394 c -.373 -1.459 -1.708 -2.474 -3.217 -2.39 c -1.551 .092 -2.809 1.283 -2.961 2.834 c -.116 1.198 -.173 2.27 -.173 3.263 c 0 2.468 .346 4.399 .977 6.436 c -2.066 2.115 -5.394 6.126 -5.394 14.134 c 0 .084 0 .176 .008 .26 c .035 4.843 2.186 9.094 3.989 11.836 c -2.64 1.804 -5.766 4.991 -6.15 10.087 c 0 .071 -.027 .36 -.027 .818 c 0 2.587 .627 10.7 6.93 18.849 c -.181 -.057 -.346 -.141 -.54 -.163 c -1.532 -.197 -2.982 .761 -3.429 2.235 l .028 -.084 c -.021 .07 -.642 1.754 -3.271 3.446 c -3.947 2.559 -6.806 5.435 -7.066 5.703 c -.849 .783 -4.12 4.193 -4.12 10.688 c 0 .28 0 .569 .015 .858 c .316 6.972 3.802 9.7 5.668 11.166 l .221 .177 c 1.089 .853 2.471 1.627 3.56 2.178 c .064 .881 .086 1.156 .166 2.221 c -.917 -.105 -2.188 -.585 -3.849 -2.066 c -4.727 -4.264 -6.323 -8.888 -6.338 -8.931 c -.482 -1.416 -1.902 -2.326 -3.396 -2.128 c -1.488 .197 -2.637 1.402 -2.746 2.896 c -.007 .106 -.057 .825 -.057 1.967 c 0 3.539 .462 11.158 4.001 17.143 c .599 1.023 1.197 1.96 1.797 2.827 c -.327 .494 -.507 1.086 -.507 1.698 c 0 .093 0 .177 .007 .262 c .06 .719 .601 5.921 3.189 10.009 c -.814 .585 -1.29 1.522 -1.29 2.517 c 0 .162 .007 .317 .035 .479 c .056 .381 1.565 9.453 12.198 12.597 c 4.966 1.474 8.597 1.959 10.965 2.088 c .325 .795 .945 1.451 1.783 1.769 c .642 .246 1.329 .226 1.97 .042 c -.087 .754 -.15 1.516 -.15 2.313 c 0 .147 .007 .303 .007 .465 c .159 5.779 3.573 9.009 3.962 9.36 c .927 .847 2.259 1.036 3.408 .536 c 1.089 -.501 1.775 -1.564 1.832 -2.742 c 1.155 .057 2.292 -.529 2.898 -1.551 c .111 -.184 2.864 -4.561 11.394 -2.402 c 5.749 1.443 10.633 4.418 12.3 5.512 c 1.143 2.375 4.463 8.529 9.091 10.384 c 3.108 1.254 5.931 1.423 7.817 1.332 v .077 c -.021 .169 -.05 .283 -.078 .381 c -.863 .542 -1.448 1.486 -1.469 2.559 v .077 c 0 1.487 1.039 2.777 2.498 3.073 c .466 .107 4.652 .924 8.684 -.443 c 0 0 .008 0 .014 -.007 c 1.856 -.642 3.399 -1.48 4.533 -2.221 c 1.135 .74 2.665 1.579 4.505 2.221 c 4.046 1.374 8.233 .557 8.705 .45 c 1.46 -.296 2.495 -1.586 2.495 -3.073 v -.08 c -.021 -1.078 -.605 -2.023 -1.479 -2.574 c -.021 -.09 -.05 -.196 -.07 -.379 v -.064 c 1.882 .091 4.716 -.078 7.824 -1.332 c 4.617 -1.854 7.944 -8.009 9.086 -10.384 c 1.663 -1.094 6.556 -4.068 12.293 -5.512 c 8.529 -2.158 11.279 2.219 11.392 2.402 c .613 1.021 1.748 1.607 2.904 1.551 c .057 1.178 .754 2.241 1.848 2.742 c 1.127 .5 2.467 .311 3.396 -.536 c .396 -.345 3.808 -3.581 3.962 -9.36 v -.465 c 0 -.797 -.056 -1.559 -.154 -2.306 c .648 .177 1.332 .197 1.974 -.042 c .838 -.324 1.465 -.98 1.79 -1.775 c 2.368 -.129 5.999 -.614 10.968 -2.088 c 10.63 -3.143 12.132 -12.216 12.189 -12.597 c .035 -.162 .05 -.331 .05 -.479 c 0 -.986 -.487 -1.918 -1.298 -2.517 c 2.608 -4.081 3.13 -9.29 3.187 -10.009 c .014 -.085 .014 -.169 .014 -.262 c 0 -.612 -.184 -1.197 -.515 -1.698 c .606 -.867 1.206 -1.804 1.805 -2.827 c 3.528 -5.997 3.994 -13.61 3.994 -17.156 m -114.71 74.897 c .177 -.105 .417 -.204 .755 -.253 c -.281 .033 -.522 .147 -.755 .253 m 26.907 -.253 c .338 .049 .578 .148 .754 .253 c -.239 -.106 -.472 -.22 -.754 -.253" fill="#00406d"/><path d="m 306.506 343.094 c -.62 .852 1.579 -1.903 1.396 -2.841 c .411 -.086 1.495 .909 1.495 1.515 c .648 .163 3.962 -1.691 3.862 -3.961 c -.084 -2.263 -2.157 -3.56 -2.157 -3.56 c 0 0 -1.212 2.897 -5.308 3.595 c 1.241 1.882 1.325 4.426 .712 5.252" fill="#c0bdbb"/><path d="m 317.566 336.383 c .027 1.91 -1.305 6.013 -8.424 6.59 c 0 0 3.129 4.068 8.698 2.144 c 5.583 -1.924 5.83 -5.604 4.561 -7.895 c -.472 1.586 -1.148 2.855 -3.065 3.404 c .521 -.803 1.143 -2.847 .804 -5.667 c .93 -.148 6.217 -1.586 4.92 -4.709 c -.804 -1.945 -2.658 -2.728 -2.658 -2.728 c 0 0 .402 2.179 -.253 3.419 c -.902 1.727 -2.291 2.22 -2.813 2.355 c .225 -.318 1.17 -1.523 1.043 -4.434 c -.113 -2.911 -3.496 -4.434 -3.496 -4.434 c 0 0 .746 4.645 -2.199 6.943 c 2.05 1.79 2.847 3.086 2.882 5.012" fill="#c0bdbb"/><path d="m 286.867 341.768 c 0 -.606 1.087 -1.6 1.48 -1.515 c -.184 .938 2.017 3.693 1.396 2.841 c -.62 -.825 -.521 -3.37 .719 -5.252 c -4.089 -.698 -5.301 -3.595 -5.301 -3.595 c 0 0 -2.076 1.297 -2.165 3.56 c -.093 2.27 3.224 4.124 3.871 3.961" fill="#c0bdbb"/><path d="m 276.118 334.958 c -.347 2.82 .281 4.864 .796 5.667 c -1.913 -.549 -2.594 -1.818 -3.055 -3.404 c -1.27 2.291 -1.026 5.971 4.54 7.895 c 5.579 1.924 8.722 -2.144 8.722 -2.144 c -7.133 -.577 -8.469 -4.68 -8.434 -6.59 c .032 -1.925 .839 -3.222 2.883 -5.012 c -2.947 -2.298 -2.202 -6.943 -2.202 -6.943 c 0 0 -3.374 1.523 -3.493 4.434 c -.131 2.911 .835 4.116 1.039 4.434 c -.515 -.135 -1.893 -.628 -2.809 -2.355 c -.648 -1.24 -.246 -3.419 -.246 -3.419 c 0 0 -1.869 .783 -2.661 2.728 c -1.294 3.123 3.997 4.562 4.92 4.709" fill="#c0bdbb"/><path d="m 298.175 335.805 h -.1 c 0 0 -3.601 3.158 -3.587 6.584 c .021 3.157 2.34 4.772 3.587 5.618 h .1 c 1.254 -.846 3.581 -2.461 3.581 -5.618 c .014 -3.426 -3.581 -6.584 -3.581 -6.584" fill="#c0bdbb"/><path d="m 308.501 354.857 c 0 1.453 2.052 3.496 5.689 3.447 c 3.622 -.063 5.37 -2.234 5.37 -3.503 c 0 -1.283 -3.2 -3.031 -5.145 -2.968 c -1.924 .056 -3.137 .72 -3.433 1.205 c -.31 .48 -.247 -1.867 -.247 -1.867 c 0 0 -2.234 2.227 -2.234 3.686" fill="#c0bdbb"/><path d="m 314.965 361.082 c .973 -.128 2.735 -.176 4.596 -3.863 c 0 0 -1.508 3.073 -9.431 2.164 c 1.028 1.946 3.877 1.819 4.835 1.699" fill="#c0bdbb"/><path d="m 323.198 358.425 c 1.198 -1.699 1.142 -2.841 .359 -4.405 c 0 0 -.245 3.623 -4.42 5.914 c .248 .358 2.849 .183 4.061 -1.509" fill="#c0bdbb"/><path d="m 336.5 340.718 c -.247 -.071 1.628 4.159 -2.488 6.041 c .486 -1.276 2.178 -6.711 -3.145 -8.226 c 0 0 1.149 4.715 -1.452 6.767 c 1.395 1.283 3.574 2.545 3.27 5.456 c -.302 2.897 -1.691 4.398 -6.407 6.217 c 2.897 .127 8.22 -.543 9.186 -3.2 c 1.381 -3.771 -.353 -5.266 -.353 -5.266 c 0 0 4.525 -1.748 4.525 -3.989 c .001 -2.235 -2.904 -3.751 -3.136 -3.8" fill="#c0bdbb"/><path d="m 351.493 357.326 c .239 -1.072 .057 -2.044 -.423 -2.101 c -.494 -.071 3.088 .176 2.361 3.129 c -.733 2.975 -4.49 3.039 -4.49 3.039 c 0 0 2.791 2.122 3.031 3.559 c 1.522 -.295 6.168 -5.505 3.933 -9.67 c -2.537 -4.738 -7.556 -2.116 -7.556 -2.116 c 0 0 1.508 3.934 1.451 5.259 c .6 .598 1.446 0 1.693 -1.099" fill="#c0bdbb"/><path d="m 372.175 369.245 c 2.869 4.639 1.438 9.925 1.438 9.925 c 0 0 2.306 -7.563 0 -11.92 c -2.283 -4.341 -6.407 -7.62 -6.407 -7.62 c 0 0 3.877 -3.559 3.095 -7.126 c -2.594 2.044 -5.505 1.149 -5.505 1.149 c 0 0 1.148 2.954 -.12 5.731 c -1.269 2.798 -3.862 4.666 -3.862 4.666 c 0 0 8.513 .607 11.361 5.195" fill="#c0bdbb"/><path d="m 357.175 376.802 c -1.015 -1.974 -2.898 -1.805 -3.68 -1.805 c -.254 .783 -1.156 4.886 -2.129 5.985 c .55 1.509 2.157 2.926 5.689 2.418 c 4.532 -.663 8.706 -5.09 6.041 -10.7 c -2.65 -5.633 -10.031 -5.873 -10.031 -5.873 c 0 0 1.213 2.905 .847 4.956 c 1.332 -.127 5.871 .056 6.11 4.42 c .185 3.383 -3.269 3.933 -4.18 3.454 c .063 -.318 2.474 -.621 1.333 -2.855" fill="#c0bdbb"/><path d="m 366.733 389.575 c 0 0 6.238 2.298 4.596 8.769 c -1.636 6.464 -13.971 14.323 -13.971 14.323 l 2.058 8.17 c 0 0 18.512 -13.492 16.397 -24.968 c -1.481 -8.028 -9.08 -6.294 -9.08 -6.294" fill="#c0bdbb"/><path d="m 376.511 429.162 c -5.739 -4.659 -7.852 -14.754 -7.852 -14.754 c 0 0 -1.883 4.469 -1.094 8.458 c .789 4.004 3.44 7.373 3.44 7.373 c 0 0 2.537 -1.028 5.506 -1.077" fill="#c0bdbb"/><path d="m 366.536 444.401 l -2.172 .183 c 0 0 -.437 5.852 -1.396 9.849 c -.938 3.841 -2.777 9.248 -4.906 11.969 c 6.422 -1.995 8.594 -5.243 10.166 -7.605 c 1.465 -2.214 2.481 -9.685 1.211 -10.531 c -1.261 -.84 -2.903 -3.865 -2.903 -3.865" fill="#c0bdbb"/><path d="m 385.766 458.429 c -4.124 1.819 -4.956 .839 -4.956 .839 c 0 0 -2.305 6.233 -6.407 7.627 c .655 1.988 2.904 3.018 4.174 3.018 c 1.324 0 6.471 -1.381 11.18 -8.945 c 4.708 -7.563 5.377 -13.492 5.44 -13.908 c .056 -.439 -5.315 9.551 -9.431 11.369" fill="#c0bdbb"/><path d="m 354.863 471.724 c 0 0 -1.875 3.031 -2.482 3.341 c 1.157 .592 6.958 1.256 13.238 8.452 c -1.508 -6.4 -6.28 -9.609 -10.756 -11.793" fill="#c0bdbb"/><path d="m 374.994 484.307 c -5.258 -.966 -8.641 -4.174 -8.641 -4.174 c 0 0 1.635 5.745 1.324 6.831 c -.296 1.085 -2.234 -.903 -2.234 -.903 c 0 0 1.691 3.201 1.586 3.87 c -.135 .67 7.43 .071 10.814 -1.155 c 3.384 -1.22 8.459 -5.259 9.121 -6.457 c -1.805 1.255 -6.711 2.96 -11.97 1.988" fill="#c0bdbb"/><path d="m 345.431 482.318 c 0 0 -3.862 3.623 -5.202 4.342 c 1.149 .121 9.926 .91 14.944 6.232 c 5.018 5.315 4.412 11.793 4.286 12.16 c -.12 .358 4.06 -7.212 -.79 -13.915 c -4.836 -6.704 -13.238 -8.819 -13.238 -8.819" fill="#c0bdbb"/><path d="m 325.355 499.539 c -1.889 2.643 -3.694 6.464 -7.007 11.18 c -3.342 4.731 -6.118 5.752 -6.118 5.752 c 0 0 5.259 .544 8.105 -2.777 c 2.242 -2.615 2.714 -8.586 6.654 -13.668 c 1.721 -2.228 3.68 -4.828 7.381 -7.374 c -2.544 .592 -6.956 3.983 -9.015 6.887" fill="#c0bdbb"/><path d="m 311.145 513.264 c -3.623 -.359 -4.906 -2.897 -4.906 -2.897 c 0 0 -2.101 2.043 -3.686 3.75 c -1.564 1.685 -1.628 2.657 -.359 4.778 c 1.382 2.291 2.903 3.919 6.9 4.229 c -2.96 -2.848 -2.798 -6.407 -2.002 -7.443 c 1.05 -1.361 1.395 -.902 4.053 -2.417" fill="#c0bdbb"/><path d="m 287.756 354.857 c 0 -1.459 -2.242 -3.686 -2.242 -3.686 c 0 0 .07 2.347 -.239 1.867 c -.296 -.485 -1.522 -1.149 -3.447 -1.205 c -1.935 -.063 -5.138 1.685 -5.138 2.968 c 0 1.269 1.748 3.44 5.371 3.503 c 3.643 .05 5.695 -1.993 5.695 -3.447" fill="#c0bdbb"/><path d="m 281.281 361.082 c .973 .119 3.817 .246 4.839 -1.699 c -7.916 .909 -9.431 -2.164 -9.431 -2.164 c 1.878 3.688 3.624 3.735 4.592 3.863" fill="#c0bdbb"/><path d="m 272.699 354.02 c -.782 1.564 -.846 2.706 .366 4.405 c 1.198 1.692 3.804 1.868 4.051 1.509 c -4.174 -2.292 -4.417 -5.914 -4.417 -5.914" fill="#c0bdbb"/><path d="m 269.981 356.973 c -4.719 -1.819 -6.11 -3.32 -6.414 -6.217 c -.303 -2.911 1.874 -4.173 3.261 -5.456 c -2.591 -2.052 -1.442 -6.767 -1.442 -6.767 c -5.328 1.515 -3.63 6.95 -3.154 8.226 c -4.106 -1.882 -2.23 -6.112 -2.477 -6.041 c -.236 .049 -3.144 1.565 -3.144 3.8 c 0 2.241 4.539 3.989 4.539 3.989 c 0 0 -1.741 1.495 -.362 5.266 c .968 2.657 6.286 3.327 9.193 3.2" fill="#c0bdbb"/><path d="m 244.282 364.952 c .235 -1.437 3.017 -3.559 3.017 -3.559 c 0 0 -3.747 -.064 -4.47 -3.039 c -.729 -2.953 2.837 -3.2 2.354 -3.129 c -.485 .057 -.658 1.029 -.426 2.101 c .251 1.099 1.089 1.698 1.695 1.099 c -.063 -1.325 1.459 -5.259 1.459 -5.259 c 0 0 -5.018 -2.622 -7.566 2.116 c -2.236 4.165 2.417 9.375 3.937 9.67" fill="#c0bdbb"/><path d="m 224.083 369.245 c 2.837 -4.588 11.369 -5.195 11.369 -5.195 c 0 0 -2.604 -1.868 -3.87 -4.666 c -1.275 -2.777 -.123 -5.731 -.123 -5.731 c 0 0 -2.9 .895 -5.505 -1.149 c -.79 3.567 3.087 7.126 3.087 7.126 c 0 0 -4.112 3.279 -6.414 7.62 c -2.291 4.357 0 11.92 0 11.92 c 0 0 -1.41 -5.286 1.456 -9.925" fill="#c0bdbb"/><path d="m 233.151 372.7 c -2.664 5.61 1.515 10.037 6.04 10.7 c 3.535 .508 5.146 -.909 5.689 -2.418 c -.962 -1.099 -1.872 -5.202 -2.119 -5.985 c -.779 0 -2.667 -.169 -3.686 1.805 c -1.142 2.234 1.27 2.537 1.337 2.855 c -.917 .479 -4.36 -.071 -4.174 -3.454 c .232 -4.364 4.772 -4.547 6.107 -4.42 c -.363 -2.051 .836 -4.956 .836 -4.956 c 0 0 -7.368 .239 -10.03 5.873" fill="#c0bdbb"/><path d="m 236.852 420.837 l 2.045 -8.17 c 0 0 -12.35 -7.859 -13.982 -14.323 c -1.631 -6.471 4.61 -8.769 4.61 -8.769 c 0 0 -7.599 -1.734 -9.08 6.294 c -2.122 11.476 16.407 24.968 16.407 24.968" fill="#c0bdbb"/><path d="m 228.695 422.867 c .787 -3.989 -1.088 -8.458 -1.088 -8.458 c 0 0 -2.122 10.094 -7.864 14.754 c 2.961 .049 5.502 1.078 5.502 1.078 c 0 0 2.665 -3.37 3.45 -7.374" fill="#c0bdbb"/><path d="m 231.899 444.584 l -2.186 -.183 c 0 0 -1.632 3.024 -2.896 3.863 c -1.269 .847 -.271 8.317 1.206 10.531 c 1.574 2.362 3.753 5.61 10.164 7.605 c -2.114 -2.721 -3.962 -8.128 -4.91 -11.969 c -.958 -3.996 -1.378 -9.847 -1.378 -9.847" fill="#c0bdbb"/><path d="m 217.683 469.912 c 1.268 0 3.514 -1.029 4.176 -3.018 c -4.112 -1.395 -6.407 -7.627 -6.407 -7.627 c 0 0 -.846 .98 -4.959 -.839 c -4.117 -1.817 -9.492 -11.808 -9.436 -11.37 c .061 .416 .73 6.346 5.441 13.908 c 4.717 7.565 9.856 8.946 11.185 8.946" fill="#c0bdbb"/><path d="m 241.392 471.724 c -4.49 2.185 -9.259 5.393 -10.768 11.793 c 6.277 -7.196 12.096 -7.86 13.245 -8.452 c -.606 -.31 -2.477 -3.341 -2.477 -3.341" fill="#c0bdbb"/><path d="m 228.572 486.964 c -.303 -1.086 1.329 -6.831 1.329 -6.831 c 0 0 -3.395 3.208 -8.648 4.174 c -5.264 .973 -10.154 -.732 -11.967 -1.988 c .662 1.198 5.731 5.237 9.133 6.457 c 3.376 1.227 10.938 1.825 10.819 1.155 c -.123 -.669 1.565 -3.87 1.565 -3.87 c 0 0 -1.927 1.988 -2.231 .903" fill="#c0bdbb"/><path d="m 237.574 491.137 c -4.836 6.703 -.673 14.273 -.779 13.915 c -.116 -.367 -.722 -6.845 4.293 -12.16 c 5.012 -5.321 13.788 -6.11 14.938 -6.232 c -1.336 -.719 -5.206 -4.342 -5.206 -4.342 c 0 0 -8.403 2.115 -13.246 8.819" fill="#c0bdbb"/><path d="m 277.916 510.719 c -3.334 -4.716 -5.132 -8.537 -7.021 -11.18 c -2.051 -2.904 -6.479 -6.295 -9.009 -6.888 c 3.688 2.546 5.65 5.146 7.377 7.374 c 3.934 5.082 4.423 11.053 6.654 13.668 c 2.845 3.321 8.104 2.777 8.104 2.777 c 0 0 -2.785 -1.021 -6.105 -5.751" fill="#c0bdbb"/><path d="m 289.998 510.367 c 0 0 -1.263 2.537 -4.892 2.897 c 2.658 1.516 3.017 1.057 4.046 2.418 c .797 1.036 .973 4.596 -1.987 7.443 c 3.99 -.311 5.512 -1.938 6.893 -4.229 c 1.269 -2.121 1.212 -3.094 -.366 -4.778 c -1.566 -1.708 -3.694 -3.751 -3.694 -3.751" fill="#c0bdbb"/><path d="m 305.548 341.246 c .028 -3.34 -3.469 -3.813 -3.469 -3.813 c .663 .613 1.763 2.016 1.896 4.681 c .113 2.665 -1.585 4.772 -1.585 4.772 c 1.05 -.775 3.123 -2.298 3.158 -5.64" fill="#c0bdbb"/><path d="m 314.655 336.51 c .155 1.572 0 2.255 -.593 3.496 c .282 -.056 2.862 -1.269 2.228 -4.116 c -.606 -2.855 -3.962 -2.545 -3.962 -2.545 c .72 .239 2.144 1.276 2.327 3.165" fill="#c0bdbb"/><path d="m 285.401 332.548 c .247 -1.057 2.199 -4.955 5.513 -5.026 c 4.181 -.077 5.667 3.278 3.807 5.181 c .254 -.663 .211 -3.566 -3.723 -3.278 c -3.919 .276 -4.024 6.02 -.098 6.648 c 3.933 .655 5.941 -1.255 7.231 -2.242 c 1.283 .987 3.285 2.897 7.219 2.242 c 3.933 -.628 3.834 -6.372 -.1 -6.648 c -3.933 -.288 -3.961 2.615 -3.721 3.278 c -1.861 -1.903 -.382 -5.258 3.806 -5.181 c 3.327 .071 5.266 3.969 5.527 5.026 c 2.212 -.225 2.059 -7.401 -3.87 -8.177 c -5.929 -.782 -8.861 2.926 -8.861 2.926 c 0 0 -2.932 -3.708 -8.874 -2.926 c -5.935 .775 -6.066 7.952 -3.856 8.177" fill="#c0bdbb"/><path d="m 294.178 337.433 c 0 0 -3.504 .473 -3.476 3.813 c .028 3.342 2.115 4.865 3.166 5.64 c 0 0 -1.7 -2.107 -1.58 -4.772 c .12 -2.665 1.233 -4.068 1.89 -4.681" fill="#c0bdbb"/><path d="m 282.184 340.006 c -.585 -1.241 -.736 -1.924 -.585 -3.496 c .188 -1.889 1.614 -2.925 2.322 -3.165 c 0 0 -3.341 -.31 -3.961 2.545 c -.62 2.847 1.949 4.06 2.224 4.116" fill="#c0bdbb"/><path d="m 322.409 355.761 c .605 .183 .359 -3.024 -.55 -3.927 c -.903 -.916 3.03 .671 3.341 4.54 c 3.073 -.486 5.005 -2.975 4.821 -4.963 c -.176 -2.001 -.062 -3.016 -2.904 -5.075 c -2.834 -2.051 -2.48 -3.687 -2.48 -3.687 c 0 0 -1.572 1.269 -1.324 2.651 c .245 1.403 1.211 1.092 1.084 2.361 c -.113 1.269 -.959 .973 -1.564 1.213 c -.606 .233 -3.511 1.085 -3.272 3.391 c .253 2.283 2.242 3.318 2.848 3.496" fill="#c0bdbb"/><path d="m 340.539 345.482 c 3.573 1.452 6.302 6.957 6.302 6.957 c 0 0 2.228 -6.35 -1.036 -8.896 c -3.257 -2.537 -3.617 -3.129 -7.205 -4.292 l .071 2.121 c 0 0 2.234 1.086 1.868 4.11" fill="#c0bdbb"/><path d="m 359.896 350.756 c -5.33 -5.456 -11.371 -4.491 -11.371 -4.491 c 0 0 .367 2.369 .246 3.145 c 3.328 .303 13.606 2.361 8.897 12.772 c 6.64 -4.666 5.675 -11.941 1.685 -16.516 c -4.533 -5.202 -14.585 -4.595 -14.585 -4.595 l 1.818 1.508 c .001 0 11.674 2.297 13.31 8.177" fill="#c0bdbb"/><path d="m 365.161 381.159 c -3.997 6.964 -9.199 4.412 -13.188 3.813 c .677 1.142 11.948 8.987 18.87 -2.432 c 6.352 -10.447 -8.339 -14.606 -8.339 -14.606 c 0 0 6.64 6.273 2.657 13.225" fill="#c0bdbb"/><path d="m 360.813 401.17 c -3.934 .86 -5.633 -.176 -5.633 -.176 l 1.629 8.649 c 0 0 13.745 -6.633 11.8 -13.774 c -1.819 -6.661 -7.232 -5.364 -9.375 -4.976 c -1.63 .31 -6.049 3.214 -3.686 7.141 c 2.34 3.905 7.225 .832 6.83 -1.629 c -.303 -1.882 -1.812 -2.552 -1.812 -2.552 c 0 0 2.96 -.951 3.926 1.283 c .973 2.242 .246 5.195 -3.679 6.034" fill="#c0bdbb"/><path d="m 368.918 431.707 c -3.934 -2.362 -7.627 -11.011 -7.627 -11.011 c 0 0 .113 8.811 1.643 12.47 c 1.389 3.313 1.445 8.873 1.445 8.873 c 0 0 .438 0 1.523 -.183 c -1.037 -6.774 3.016 -10.149 3.016 -10.149" fill="#c0bdbb"/><path d="m 382.621 439.27 c -.303 .6 -1.451 2.411 -4.539 2.221 c -3.088 -.176 -3.807 -1.748 -4.229 -2.291 c -.424 -.55 1.578 1.508 3.692 .67 c 2.115 -.859 2.354 -2.221 2.115 -3.998 c -.254 -1.748 -2.721 -3.017 -4.174 -2.896 c -1.452 .113 -7.084 .432 -7.013 6.951 c .064 5.865 6.823 7.549 9.487 7.254 c 2.657 -.31 9.861 -1.876 9.679 -11.004 c -.127 -5.569 -4.301 -8.889 -7.078 -10.651 c -3.679 -2.319 -5.201 -4.286 -5.201 -4.286 c 0 0 1.071 5.095 5.146 9.312 c 3.44 3.571 2.426 8.097 2.115 8.718" fill="#c0bdbb"/><path d="m 377.362 458.541 c 1.382 -2.262 1.023 -6.702 .551 -8.344 c -1.763 .125 -5.633 -.721 -5.633 -.721 c 0 0 1.093 2.411 1.093 6.168 c 0 3.743 -.979 7.197 -2.734 9.672 c 2.678 -1.277 5.441 -4.701 6.723 -6.775" fill="#c0bdbb"/><path d="m 357.033 468.348 c 0 0 -.901 1.684 -1.262 1.882 c .91 .408 4.42 .831 8.713 5.3 c -2.008 -5.372 -7.451 -7.182 -7.451 -7.182" fill="#c0bdbb"/><path d="m 379.364 472.951 c -5.752 -.67 -4.849 -2.426 -9.263 -3.766 c -4.405 -1.324 -7.626 -.727 -7.626 -.727 c 0 0 2.968 1.869 5.146 5.267 c 2.185 3.392 4.469 5.556 7.923 6.217 c 3.447 .671 12.576 -2.825 14.155 -10.813 c -1.699 1.982 -5.569 4.371 -10.335 3.822" fill="#c0bdbb"/><path d="m 350.93 476.757 c 0 0 -2.777 3.25 -3.504 3.56 c 2.178 .909 10.461 3.504 16.995 11.801 c -4.23 -11.802 -13.491 -15.361 -13.491 -15.361" fill="#c0bdbb"/><path d="m 346.037 491.56 c -12.809 -.578 -19.167 13.908 -19.167 13.908 c 0 0 7.896 -5.337 16.192 -7.19 c 10.235 -2.305 11.927 2.961 11.927 2.961 c 0 0 -.916 -9.321 -8.952 -9.679" fill="#c0bdbb"/><path d="m 308.663 508.308 c 0 1.325 2.115 2.115 3.511 1.988 c 1.396 -.106 4.477 -1.925 7.493 -6.472 c 3.024 -4.533 5.928 -7.436 5.928 -7.436 c 0 0 -16.085 10.348 -16.932 11.92" fill="#c0bdbb"/><path d="m 271.067 356.374 c .296 -3.87 4.222 -5.456 3.329 -4.54 c -.911 .903 -1.15 4.11 -.551 3.927 c .599 -.177 2.603 -1.213 2.844 -3.496 c .239 -2.306 -2.657 -3.158 -3.264 -3.391 c -.606 -.24 -1.457 .056 -1.572 -1.213 c -.131 -1.269 .846 -.958 1.089 -2.361 c .24 -1.382 -1.329 -2.651 -1.329 -2.651 c 0 0 .355 1.636 -2.488 3.687 c -2.844 2.059 -2.721 3.074 -2.894 5.075 c -.176 1.987 1.746 4.477 4.836 4.963" fill="#c0bdbb"/><path d="m 249.42 352.439 c 0 0 2.721 -5.505 6.277 -6.957 c -.36 -3.024 1.886 -4.11 1.886 -4.11 l .063 -2.121 c -3.578 1.163 -3.934 1.755 -7.193 4.292 c -3.277 2.547 -1.033 8.896 -1.033 8.896" fill="#c0bdbb"/><path d="m 238.592 362.182 c -4.715 -10.411 5.566 -12.469 8.887 -12.772 c -.116 -.776 .242 -3.145 .242 -3.145 c 0 0 -6.04 -.965 -11.367 4.491 c 1.633 -5.879 13.31 -8.177 13.31 -8.177 l 1.811 -1.508 c 0 0 -10.045 -.607 -14.58 4.595 c -3.984 4.575 -4.95 11.85 1.697 16.516" fill="#c0bdbb"/><path d="m 244.282 384.972 c -4.001 .599 -9.192 3.151 -13.189 -3.813 c -3.986 -6.951 2.665 -13.225 2.665 -13.225 c 0 0 -14.698 4.159 -8.348 14.606 c 6.931 11.418 18.205 3.574 18.872 2.432" fill="#c0bdbb"/><path d="m 233.877 396.405 c -.396 2.461 4.483 5.534 6.83 1.629 c 2.358 -3.927 -2.044 -6.831 -3.689 -7.141 c -2.13 -.388 -7.557 -1.685 -9.369 4.976 c -1.955 7.141 11.793 13.774 11.793 13.774 l 1.633 -8.649 c 0 0 -1.695 1.036 -5.622 .176 c -3.933 -.839 -4.663 -3.792 -3.689 -6.034 c .962 -2.234 3.933 -1.283 3.933 -1.283 c 0 0 -1.524 .669 -1.82 2.552" fill="#c0bdbb"/><path d="m 231.871 442.039 c 0 0 .064 -5.561 1.453 -8.873 c 1.529 -3.659 1.62 -12.47 1.62 -12.47 c 0 0 -3.68 8.649 -7.612 11.011 c 0 0 4.056 3.375 3.031 10.149 c 1.088 .183 1.508 .183 1.508 .183" fill="#c0bdbb"/><path d="m 218.296 447.18 c 2.653 .295 9.424 -1.389 9.491 -7.254 c .064 -6.52 -5.565 -6.838 -7.018 -6.951 c -1.457 -.12 -3.934 1.148 -4.174 2.896 c -.242 1.777 0 3.139 2.107 3.998 c 2.133 .838 4.117 -1.22 3.698 -.67 c -.42 .543 -1.148 2.115 -4.23 2.291 c -3.084 .19 -4.236 -1.621 -4.54 -2.221 c -.296 -.62 -1.321 -5.147 2.122 -8.719 c 4.07 -4.217 5.132 -9.312 5.132 -9.312 c 0 0 -1.509 1.966 -5.198 4.286 c -2.778 1.763 -6.951 5.082 -7.074 10.651 c -.193 9.129 7.019 10.694 9.684 11.005" fill="#c0bdbb"/><path d="m 218.345 450.197 c -.476 1.642 -.846 6.082 .557 8.344 c 1.262 2.074 4.049 5.498 6.704 6.775 c -1.752 -2.475 -2.715 -5.929 -2.715 -9.672 c 0 -3.757 1.076 -6.168 1.076 -6.168 c 0 0 -3.861 .846 -5.622 .721" fill="#c0bdbb"/><path d="m 239.213 468.348 c 0 0 -5.441 1.811 -7.436 7.182 c 4.297 -4.469 7.789 -4.892 8.705 -5.3 c -.36 -.199 -1.269 -1.882 -1.269 -1.882" fill="#c0bdbb"/><path d="m 226.146 469.185 c -4.415 1.34 -3.498 3.096 -9.254 3.766 c -4.775 .549 -8.646 -1.84 -10.334 -3.821 c 1.572 7.987 10.697 11.483 14.154 10.813 c 3.443 -.661 5.744 -2.825 7.916 -6.217 c 2.175 -3.397 5.143 -5.267 5.143 -5.267 c 0 0 -3.207 -.598 -7.625 .726" fill="#c0bdbb"/><path d="m 245.317 476.757 c 0 0 -9.244 3.56 -13.482 15.36 c 6.525 -8.297 14.811 -10.892 16.985 -11.801 c -.715 -.309 -3.503 -3.559 -3.503 -3.559" fill="#c0bdbb"/><path d="m 250.22 491.56 c -8.046 .358 -8.959 9.679 -8.959 9.679 c 0 0 1.698 -5.266 11.92 -2.961 c 8.307 1.853 16.201 7.19 16.201 7.19 c 0 0 -6.351 -14.487 -19.162 -13.908" fill="#c0bdbb"/><path d="m 270.655 496.389 c 0 0 2.907 2.902 5.924 7.436 c 3.024 4.547 6.108 6.365 7.497 6.472 c 1.395 .127 3.504 -.663 3.504 -1.988 c -.84 -1.573 -16.925 -11.92 -16.925 -11.92" fill="#c0bdbb"/><path d="m 319.505 366.234 c 1.269 .48 5.929 -.972 6.527 -1.105 c .607 -.113 2.425 -1.748 3.327 -2.483 c .909 -.719 1.89 -.767 2.361 -.767 c .176 -.613 .176 -4.659 .176 -4.659 l -3.326 .296 c 0 0 .972 4.899 -3.271 6.478 c -4.229 1.564 -6.52 -3.151 -6.52 -3.151 l -3.024 .846 c 0 -.001 1.015 3.502 3.75 4.545" fill="#ffd800"/><path d="m 266.895 362.646 c .902 .734 2.721 2.369 3.327 2.483 c .599 .134 5.255 1.586 6.524 1.105 c 2.737 -1.043 3.753 -4.546 3.753 -4.546 l -3.017 -.846 c 0 0 -2.31 4.715 -6.539 3.151 c -4.242 -1.579 -3.264 -6.478 -3.264 -6.478 l -3.326 -.296 c 0 0 0 4.046 .18 4.659 c .483 .001 1.452 .05 2.362 .768" fill="#ffd800"/><path d="m 246.576 411.792 c -.508 2.538 -.977 4.85 -1.41 6.732 c -.381 1.636 -.902 3.469 -1.456 5.421 c -1.653 5.787 -3.669 12.892 -3.669 20.611 c 0 1.359 .067 2.742 .211 4.131 l 12.488 -17.003 l 22.419 7.825 l 8.163 25.13 l -13.514 18.01 l -11.972 -3.595 c 2.164 2.079 4.898 4.215 7.765 6.302 c 3.271 1.649 6.164 2.763 9.138 3.679 l -3.975 -5.75 l 13.093 -17.461 h 28.006 l 13.394 17.834 l -3.524 5.117 c 3.101 -1.1 6.365 -2.503 9.734 -4.209 l .014 .029 c 2.461 -1.833 4.759 -3.666 6.647 -5.45 l -12.109 3.638 l -13.394 -17.848 l 8.31 -25.553 l 22.057 -7.698 l 12.779 17.392 c .177 -1.523 .24 -3.033 .24 -4.52 c 0 -7.719 -2.017 -14.824 -3.658 -20.611 c -.558 -1.952 -1.072 -3.785 -1.459 -5.421 c -.416 -1.846 -.896 -4.123 -1.375 -6.598 l -5.64 -1.981 l -15.578 -13.52 c -.395 .099 -1.396 .233 -1.459 .233 l 15.6 13.534 l .169 20.414 l -21.908 7.642 l -22.085 -16.043 v -24.038 c -.239 0 -.81 0 -1.142 -.006 v 24.002 l -22.233 16.17 l -22.131 -7.726 l .173 -20.414 l 15.159 -13.661 c -.469 -.092 -.91 -.218 -1.297 -.367 l -15.289 13.781 l -5.282 1.846" fill="#c0bdbb"/><path d="m 350.196 381.524 c 0 0 -9.453 4.871 -26.625 5.744 c -15.726 .832 -25.384 -5.533 -25.384 -5.533 c 0 0 -9.67 6.365 -25.382 5.533 c -17.179 -.873 -26.621 -5.744 -26.621 -5.744 l -.882 4.307 c -.091 1.057 -.007 2.354 .688 3.32 c .441 .607 1.082 1.029 1.936 1.255 c -.377 -.537 -.377 -.987 -.363 -1.1 l 1.142 .056 c 0 .022 .152 1.918 6.281 2.672 c -.521 -.973 -.789 -1.713 -.812 -1.791 h 1.178 c .015 .05 1.688 4.631 5.502 5.767 c -.029 -.515 -.06 -.973 -.06 -1.326 c 0 -.528 .03 -.846 .03 -.874 c 0 0 .029 -.254 .325 -.408 c .296 -.149 .571 -.022 .571 -.022 c .014 .008 1.021 .684 3.274 .747 c -.599 -1.46 -.159 -2.615 -.145 -2.686 l 1.1 .007 c 0 .021 -.448 1.551 .352 2.721 c .571 .846 1.633 1.332 3.17 1.479 c 3.891 .374 8.112 .36 10.055 .331 c -.814 -1.6 -.528 -3.94 -.511 -4.039 h 1.138 c -.095 .712 -.165 2.932 .62 3.926 c .262 .304 .6 .473 1.013 .494 c 2.381 .191 13.012 .663 15.839 .797 v -5.153 h 1.142 v 5.159 c 2.644 -.133 13.52 -.612 15.945 -.803 c .415 -.021 .747 -.19 1 -.494 c .804 -.994 .726 -3.214 .627 -3.926 h 1.136 c .015 .099 .297 2.44 -.494 4.039 c 1.932 .029 6.147 .043 10.038 -.331 c 1.537 -.147 2.608 -.634 3.165 -1.479 c .797 -1.17 .36 -2.7 .36 -2.721 l 1.085 -.007 c .035 .07 .458 1.226 -.127 2.686 c 2.249 -.064 3.264 -.739 3.264 -.747 c 0 0 .282 -.127 .578 .022 c .296 .154 .317 .408 .317 .408 c .014 .028 .035 .346 .035 .874 c 0 .353 -.021 .811 -.057 1.326 c 3.814 -1.136 5.492 -5.717 5.507 -5.767 h 1.169 c -.022 .078 -.282 .818 -.79 1.791 c 6.112 -.754 6.273 -2.65 6.273 -2.672 l 1.136 -.056 c .007 .113 .007 .563 -.374 1.1 c .854 -.226 1.509 -.649 1.932 -1.255 c .55 -.754 .719 -1.706 .726 -2.587 l -1.022 -5.04" fill="#fff"/><path d="m 349.52 411.927 c -1.332 -6.851 -2.756 -15.198 -3.539 -19.927 c -1.212 .451 -2.918 .881 -5.315 1.114 c -1.733 3.524 -6.442 4.158 -6.442 4.158 c 0 0 .592 -1.994 .212 -2.671 c -.733 .268 -1.974 .571 -3.778 .535 c -.564 .6 -1.36 1.037 -2.354 1.29 l 15.578 13.52 l 5.638 1.981" fill="#fff"/><path d="M 291.295 493.477 L 291.295 501.556 L 292.465 501.556 L 292.465 491.574 L 291.675 491.574 L 290.513 493.012 L 290.513 493.477 Z" fill="#fff"/><path d="m 294.798 501.752 c -.247 0 -.5 -.064 -.754 -.196 c -.254 -.128 -.466 -.297 -.621 -.479 v 2.325 c .142 .134 .339 .24 .578 .339 c .24 .112 .536 .142 .889 .142 c .832 0 1.439 -.558 1.832 -1.728 c .389 -1.156 .578 -2.854 .578 -5.047 c 0 -1.847 -.189 -3.222 -.55 -4.146 c -.38 -.916 -.901 -1.388 -1.606 -1.388 c -.669 0 -1.185 .395 -1.551 1.162 c -.366 .776 -.55 1.784 -.55 3.073 c 0 1.128 .176 2.052 .515 2.778 c .331 .74 .796 1.093 1.374 1.093 c .24 0 .48 -.121 .684 -.339 c .22 -.247 .373 -.521 .473 -.811 c -.014 1.035 -.113 1.832 -.296 2.397 c -.191 .557 -.523 .825 -.995 .825 m 1.071 -4.489 c -.169 .387 -.401 .564 -.711 .564 c -.325 0 -.551 -.19 -.721 -.578 c -.183 -.395 -.26 -.881 -.253 -1.487 c 0 -.685 .085 -1.19 .253 -1.552 c .17 -.344 .396 -.514 .721 -.514 c .267 0 .493 .176 .677 .543 c .183 .373 .281 .896 .281 1.523 c 0 .62 -.085 1.127 -.247 1.501" fill="#fff"/><path d="m 299.641 501.752 c -.254 0 -.508 -.064 -.762 -.196 c -.254 -.128 -.472 -.297 -.634 -.479 v 2.325 c .162 .134 .345 .24 .592 .339 c .24 .112 .536 .142 .889 .142 c .831 0 1.438 -.558 1.832 -1.728 c .38 -1.156 .578 -2.854 .578 -5.047 c 0 -1.847 -.184 -3.222 -.55 -4.146 c -.367 -.916 -.896 -1.388 -1.607 -1.388 c -.677 0 -1.184 .395 -1.55 1.162 c -.36 .776 -.536 1.784 -.536 3.073 c 0 1.128 .162 2.052 .493 2.778 c .338 .74 .804 1.093 1.382 1.093 c .239 0 .48 -.121 .691 -.339 c .196 -.247 .366 -.521 .465 -.811 c -.015 1.035 -.099 1.832 -.297 2.397 c -.189 .557 -.528 .825 -.986 .825 m 1.064 -4.489 c -.177 .387 -.401 .564 -.712 .564 c -.31 0 -.55 -.19 -.727 -.578 c -.176 -.395 -.245 -.881 -.245 -1.487 c 0 -.685 .098 -1.19 .252 -1.552 c .17 -.344 .41 -.514 .72 -.514 c .267 0 .501 .176 .684 .543 c .177 .373 .275 .896 .275 1.523 c 0 .62 -.085 1.127 -.247 1.501" fill="#fff"/><path d="m 304.067 499.955 c -.197 0 -.423 -.057 -.705 -.17 c -.253 -.09 -.466 -.219 -.648 -.358 v 1.86 c .24 .141 .486 .254 .747 .31 c .275 .077 .543 .105 .79 .1 c .67 -.009 1.233 -.318 1.67 -.932 c .444 -.614 .67 -1.438 .67 -2.51 c 0 -1.12 -.19 -1.932 -.564 -2.452 c -.395 -.537 -.932 -.783 -1.636 -.783 c -.099 0 -.239 .007 -.409 .035 c -.176 .021 -.323 .042 -.45 .078 v -1.685 h 2.65 v -1.799 h -3.215 v 5.006 c .19 -.015 .366 -.028 .543 -.05 c .169 -.014 .345 -.02 .5 -.02 c .409 .007 .747 .162 .994 .443 c .239 .317 .374 .727 .374 1.24 c 0 .516 -.12 .91 -.324 1.213 c -.225 .304 -.55 .474 -.987 .474" fill="#fff"/><path d="m 316.798 492.765 l -.754 -.007 v -.127 c 0 -2.227 -.698 -3.285 -1.417 -4.012 c .021 .148 .028 .318 .028 .479 c 0 1.319 -.48 2.581 -.522 2.672 l -.071 .198 l -.197 .027 c -2.537 .543 -4.863 .938 -6.922 1.233 v 1.058 H 304.3 v .05 c .027 -.007 .091 -.007 .091 -.007 c .944 0 1.712 .381 2.241 1.1 c .486 .677 .721 1.613 .721 2.904 c 0 1.212 -.276 2.227 -.805 2.961 c -.593 .803 -1.368 1.232 -2.284 1.246 c -.31 0 -.648 -.034 -.973 -.119 c -.31 -.063 -.62 -.211 -.888 -.359 c -.042 .119 -.085 .275 -.127 .409 c -.62 1.868 -1.734 2.276 -2.552 2.276 c -.459 0 -.847 -.084 -1.185 -.211 c -.31 -.135 -.593 -.289 -.789 -.486 l -.269 -.227 v -1.516 c -.007 .057 -.022 .113 -.042 .163 c -.613 1.868 -1.733 2.276 -2.552 2.276 c -.452 0 -.846 -.084 -1.185 -.211 c -.311 -.135 -.577 -.289 -.789 -.486 l -.27 -.227 V 502.4 h -2.112 v -8.078 h -.79 v -1.037 c -2.13 -.287 -4.582 -.703 -7.266 -1.268 l -.238 -.07 l -.05 -.226 c -.081 -.381 -.37 -1.741 -.37 -2.904 c 0 -.12 .007 -.212 .015 -.303 c -.765 .719 -1.53 1.776 -1.53 4.116 v .127 l -.765 .021 c -.007 -.55 .029 -1.029 .096 -1.474 c -3.712 -.931 -6.975 -1.89 -10.497 -3.383 c 1.834 1.261 3.66 2.495 5.365 3.657 c 2.164 1.459 4.039 2.715 5.526 3.793 c 11.491 8.326 16.946 13.217 18.145 14.338 c 1.155 -1.113 6.272 -5.858 17.722 -14.148 c 1.494 -1.085 3.446 -2.382 5.694 -3.883 c 2.08 -1.41 4.343 -2.934 6.584 -4.491 c -4.032 1.806 -7.874 3.187 -11.461 4.103 c .059 .446 .102 .932 .087 1.475" fill="#fff"/><path d="m 342.992 431.685 l -21.789 7.614 c .05 -.071 .107 -.127 .163 -.205 c 0 0 1.05 -1.297 1.227 -1.508 l 20.018 -6.979 l -.169 -20.414 l -15.6 -13.534 c -4.78 .444 -9.96 .317 -10.933 .303 c -.367 .24 -.769 .367 -1.227 .408 c -2.46 .184 -13.563 .685 -16.065 .797 v 12.477 c -.415 -.26 -.796 -.493 -1.142 -.698 v -11.785 c -2.771 -.127 -13.498 -.607 -15.9 -.791 c -.465 -.041 -.874 -.168 -1.23 -.408 c -.986 .014 -6.291 .147 -11.122 -.317 c -.265 -.028 -.533 -.064 -.779 -.113 l -15.159 13.661 l -.173 20.414 l 17.038 5.95 c -.233 .316 -.455 .641 -.68 .965 l -16.731 -5.837 l -12.488 17.003 c .332 3.369 1.11 6.83 2.52 10.334 c 2.352 5.801 10.148 14.768 13.398 18.348 c .511 .551 1.061 1.114 1.667 1.685 l 11.972 3.595 l 3.099 -4.124 l 1.315 .148 l -3.458 4.611 l 3.975 5.75 c 1.597 .502 3.204 .938 4.917 1.361 c .477 -2.396 3.109 -3.835 3.109 -3.835 c -.152 .169 -.258 2.827 .197 4.631 c 2.636 .55 5.018 .931 7.091 1.22 l 1.283 -1.565 h 1.855 v 1.121 c .599 -.917 1.374 -1.121 1.952 -1.121 c 1.847 0 2.354 2.065 2.396 2.191 c .07 -.217 .647 -2.191 2.438 -2.191 c .698 0 1.65 .324 2.264 1.818 v -1.734 h 4.673 v 1.354 c 1.932 -.268 4.109 -.635 6.472 -1.135 c .732 -1.84 .141 -4.279 -.142 -4.688 c 0 0 2.834 1.453 3.207 3.92 c 1.706 -.424 3.469 -.967 5.28 -1.608 l 3.524 -5.117 l -5.633 -7.508 c .05 -.219 .092 -.443 .127 -.684 c .311 1.262 1.233 2.418 2.997 2.945 l 3.271 4.371 l 12.109 -3.638 c .635 -.599 1.24 -1.191 1.769 -1.776 c 3.244 -3.58 11.047 -12.547 13.387 -18.348 c 1.353 -3.363 2.137 -6.697 2.488 -9.945 l -12.778 -17.389 m -30.367 33.25 c 0 0 -.148 .091 -.338 .091 h -7.309 c -.503 0 -.925 .339 -1.066 .798 h -1.833 c -.127 -.467 -.549 -.812 -1.058 -.812 h -3.587 c -.501 0 -.917 .345 -1.065 .812 h -2.397 c -.014 -.043 -.027 -.093 -.042 -.127 c -.176 -.41 -.577 -.671 -1.015 -.671 h -3.693 c -.339 0 -.662 .163 -.875 .438 c -.042 .036 -.141 .155 -.254 .36 h -.45 c -.142 -.459 -.564 -.798 -1.071 -.798 h -3.388 c -.057 0 -.116 .021 -.173 .021 l .311 -.408 l -1.156 -3.532 c .138 -.076 .254 -.169 .349 -.303 l .995 -1.41 c .172 -.254 .242 -.565 .186 -.859 c -.064 -.304 -.243 -.564 -.505 -.727 c -.028 -.021 -1.441 -.952 -2.879 -2.439 l -2.728 -8.366 c .669 -2.22 2.231 -4.815 4.759 -7.909 l 1.275 -1.559 c 2.912 -3.53 5.52 -6.695 6.549 -10.059 l 7.31 -5.314 v -6.126 c .416 .55 .817 1.142 1.142 1.776 v 4.392 l .74 .541 c -.755 2.918 -3.757 6.642 -6.773 10.201 c -3.124 3.672 -6.352 7.478 -6.556 12.766 c -.275 6.979 13.02 14.576 14.541 15.423 c .494 .268 1.115 .141 1.445 -.331 l 1.009 -1.402 c .176 -.255 .239 -.565 .183 -.867 c -.057 -.297 -.239 -.564 -.493 -.727 c -.07 -.049 -6.733 -4.37 -5.907 -9.572 c .381 -2.468 2.03 -5.449 5.047 -9.143 l 1.283 -1.564 c 2.284 -2.777 4.385 -5.33 5.668 -7.916 l 3.777 2.741 c -.155 .204 -.323 .396 -.485 .593 c -3.123 3.68 -6.352 7.492 -6.563 12.766 c -.17 4.427 5.117 9.108 9.396 12.152 l -2.306 7.07 m 4.244 -13.04 c -.509 -1.128 -.762 -2.361 -.557 -3.658 c .366 -2.311 1.846 -5.09 4.489 -8.438 l -3.932 12.096" fill="#fff"/><path d="m 267.148 396.164 c -.624 -.267 -1.143 -.599 -1.547 -1.029 c -1.813 .036 -3.046 -.267 -3.789 -.535 c -.138 .691 .219 2.671 .219 2.671 c 0 0 -4.008 -.07 -6.433 -4.158 c -2.549 -.233 -4.296 -.691 -5.502 -1.199 c -.779 4.695 -2.192 13.027 -3.521 19.878 l 5.283 -1.847 l 15.29 -13.781" fill="#fff"/><path d="m 313.322 411.151 l 1.255 -1.283 c 0 0 13.775 7.134 13.965 14.387 c .127 4.709 -3.892 9.029 -8.051 14.14 c -2.509 3.059 -4.779 6.485 -5.286 9.664 c -.945 6.006 6.414 10.694 6.414 10.694 l -1.001 1.402 c 0 0 -14.218 -7.902 -13.972 -14.394 c .185 -4.767 3.004 -8.206 6.303 -12.097 c 3.13 -3.688 6.288 -7.57 7.035 -10.813 c 1.508 -6.49 -6.662 -11.7 -6.662 -11.7" fill="#00406d"/><path d="m 293.805 411.151 l 1.261 -1.283 c 0 0 13.774 7.134 13.964 14.387 c .127 4.709 -3.905 9.029 -8.049 14.14 c -2.51 3.059 -4.787 6.485 -5.28 9.664 c -.945 6.006 6.407 10.694 6.407 10.694 l -1 1.402 c 0 0 -14.211 -7.902 -13.964 -14.394 c .19 -4.767 2.994 -8.206 6.294 -12.097 c 3.129 -3.688 6.288 -7.57 7.041 -10.813 c 1.501 -6.49 -6.674 -11.7 -6.674 -11.7" fill="#00406d"/><path d="m 274.299 411.151 l 1.259 -1.283 c 0 0 13.763 7.134 13.96 14.387 c .127 4.709 -3.904 9.029 -8.043 14.14 c -2.505 3.059 -4.785 6.485 -5.289 9.664 c -.941 6.006 6.414 10.694 6.414 10.694 l -1.001 1.402 c 0 0 -14.221 -7.902 -13.96 -14.394 c .186 -4.767 2.98 -8.206 6.287 -12.097 c 3.123 -3.688 6.284 -7.57 7.034 -10.813 c 1.513 -6.49 -6.661 -11.7 -6.661 -11.7" fill="#00406d"/><path d="M 267.39801 466.14099 H 270.78501 V 477.52499 H 267.39801 Z" fill="#00406d"/><path d="m 276.661 477.553 c .049 -1.952 -.24 -3.411 -.832 -4.688 c -.49 -1.043 -1.558 -2.016 -1.558 -3.68 c 0 -1.648 1.275 -3.031 1.275 -3.031 h -3.211 c 0 0 -1.155 1.741 -1.155 3.405 c 0 1.671 .976 3.101 1.458 3.808 c .717 1.084 1.15 2.248 .81 4.186 h 3.213" fill="#00406d"/><path d="m 292.211 477.524 c .847 -1.057 1.086 -3.114 .684 -4.553 c -.31 -1.121 -.944 -2.179 -1.078 -3.828 c -.12 -1.649 1.1 -3.003 1.1 -3.003 h -3.693 c 0 0 -.959 1.248 -.959 2.904 c 0 1.656 .662 2.932 .888 3.758 c .593 2.227 .163 3.475 -.902 4.722 h 3.96" fill="#00406d"/><path d="m 317.813 477.524 c .847 -1.057 1.1 -3.114 .691 -4.553 c -.316 -1.121 -.951 -2.179 -1.071 -3.828 c -.12 -1.649 1.093 -3.003 1.093 -3.003 h -3.701 c 0 0 -.959 1.248 -.959 2.904 c 0 1.656 .67 2.932 .902 3.758 c .578 2.227 .155 3.475 -.902 4.722 h 3.947" fill="#00406d"/><path d="m 283.185 466.141 v 7.874 c 0 .437 -.345 .804 -.793 .804 c -.448 0 -.8 -.367 -.8 -.804 v -7.874 h -3.395 v 8.416 c .067 1.686 1.301 3.023 4.194 3.023 c 2.644 0 4.109 -1.338 4.181 -3.023 v -8.416 h -3.387" fill="#00406d"/><path d="m 325.715 466.141 v 7.874 c 0 .437 -.338 .804 -.797 .804 c -.451 0 -.803 -.367 -.803 -.804 v -7.874 h -3.384 v 8.416 c .07 1.686 1.305 3.023 4.187 3.023 c 2.645 0 4.117 -1.338 4.188 -3.023 v -8.416 h -3.391" fill="#00406d"/><path d="M 297.998 477.553 L 295.038 477.553 L 297.435 466.134 L 301.021 466.134 L 303.362 477.553 L 300.374 477.553 L 299.217 470.863 Z" fill="#00406d"/><path d="m 312.287 466.141 h -7.309 v 2.925 h 1.993 c 0 1.65 .359 3.116 .382 3.983 c .048 2.08 -.114 2.939 -.777 4.476 h 3.3 c .352 -.901 .444 -1.649 .542 -3.334 c .063 -1.022 -.203 -3.073 -.358 -4.251 c -.057 -.521 -.05 -.874 -.05 -.874 h 2.277 v -2.925" fill="#00406d"/><path d="m 356.928 419.759 c -2.39 -7.86 -4.885 -23.699 -5.759 -29.62 c -.944 1.064 -2.376 1.607 -4.313 1.649 c 0 0 -.028 .021 -.05 .028 c 1.063 6.373 3.334 19.73 4.94 26.667 c .374 1.628 .903 3.461 1.453 5.399 c 2.65 9.368 6.302 22.196 .902 35.569 c -2.397 5.92 -10.264 14.965 -13.535 18.582 c -4.229 4.666 -12.173 9.987 -18.552 14.267 c -2.243 1.516 -4.181 2.798 -5.676 3.891 c -13.075 9.468 -17.826 14.267 -17.868 14.324 l -.268 .269 l -.283 -.269 c -.056 -.042 -5.251 -5.047 -18.33 -14.515 c -1.486 -1.071 -3.349 -2.34 -5.513 -3.785 c -2.767 -1.867 -5.818 -3.94 -8.747 -6.049 c -.012 -.014 -.039 -.014 -.046 -.041 c -3.708 -2.68 -7.184 -5.484 -9.548 -8.092 c -3.278 -3.617 -11.138 -12.662 -13.541 -18.582 c -5.4 -13.373 -1.749 -26.201 .908 -35.569 c .547 -1.938 1.068 -3.771 1.442 -5.399 c 1.617 -6.958 3.905 -20.344 4.959 -26.701 c -1.956 -.05 -3.398 -.663 -4.308 -1.798 c -.866 5.794 -3.387 21.858 -5.79 29.775 c -2.792 9.198 -8.72 23.55 -1.572 40.482 c 2.15 5.076 6.598 11.49 12.737 17.969 c 6.281 6.625 21.391 16.649 27.914 20.76 c 15.008 9.41 18.8 16.734 18.8 16.734 h 1.86 c 0 0 3.701 -7.324 18.702 -16.734 c 6.534 -4.11 21.633 -14.135 27.907 -20.76 c 6.153 -6.478 10.587 -12.892 12.744 -17.969 c 7.149 -16.932 1.23 -31.284 -1.569 -40.482" fill="#ed1c2a"/><path d="m 259.179 340.253 c 2.853 -1.311 4.822 -2.623 7.441 -2.552 c -.73 2.629 -.952 7.07 1.528 7.07 c 3.134 0 2.563 -3.559 2.563 -3.559 c 0 0 3.422 1.966 3.056 4.215 c -.363 2.277 -1.679 2.051 -1.025 2.932 c 0 0 1.977 0 3.277 .939 c 1.318 .944 1.47 2.488 2.771 2.622 c 1.313 .162 1.97 -1.015 3.65 -.945 c 1.678 .071 2.553 .811 2.553 .811 c 0 0 -.797 -1.607 -1.741 -2.199 c -.955 -.571 4.983 1.318 5.237 5.47 c .155 2.417 -1.305 3.285 -1.452 4.003 c -.141 .741 -.141 1.255 -1.818 2.637 c -.085 -.071 -.297 .867 -.226 1.163 c .077 .296 -2.111 -.436 -5.686 3.651 c 2.479 1.523 3.862 2.623 3.862 2.623 c 0 0 4.501 -6.239 15.018 -6.275 c 10.504 .035 15 6.275 15 6.275 c 0 0 1.397 -1.1 3.878 -2.623 c -3.58 -4.088 -5.766 -3.355 -5.681 -3.651 c .056 -.296 -.156 -1.234 -.227 -1.163 c -1.677 -1.382 -1.677 -1.896 -1.832 -2.637 c -.135 -.718 -1.601 -1.586 -1.452 -4.003 c .254 -4.152 6.203 -6.041 5.244 -5.47 c -.944 .592 -1.733 2.199 -1.733 2.199 c 0 0 .859 -.74 2.537 -.811 c 1.678 -.07 2.34 1.107 3.651 .945 c 1.312 -.134 1.459 -1.678 2.771 -2.622 c 1.317 -.939 3.277 -.939 3.277 -.939 c .662 -.881 -.643 -.655 -1.015 -2.932 c -.367 -2.249 3.052 -4.215 3.052 -4.215 c 0 0 -.578 3.559 2.559 3.559 c 2.481 0 2.257 -4.441 1.537 -7.07 c 2.622 -.071 4.582 1.241 7.43 2.552 c -.804 -7.423 7.303 -13.626 7.077 -15.522 c -.148 -1.262 -8.1 -3.13 -9.848 -3.067 c -1.755 .071 -10.368 5.865 -9.552 6.994 c .797 1.106 1.565 1.465 1.171 3.658 c -.374 1.973 -2.411 3.122 -3.145 3.341 c 3.216 5.555 -1.022 9.565 -6.118 10.566 c -5.104 1.037 -7.288 -1.156 -8.967 -2.904 c -3.242 5.491 -9.501 6.055 -9.615 6.055 c -.119 0 -6.371 -.564 -9.627 -6.055 c -1.664 1.748 -3.85 3.941 -8.957 2.904 c -5.11 -1.001 -9.332 -5.011 -6.125 -10.566 c -.736 -.219 -2.767 -1.368 -3.141 -3.341 c -.405 -2.193 .374 -2.552 1.171 -3.658 c .827 -1.129 -7.811 -6.923 -9.552 -6.994 c -1.749 -.063 -9.7 1.805 -9.844 3.067 c -.21 1.895 7.876 8.098 7.068 15.522 m 73.733 -15.46 l 1.162 1.001 c -.049 .042 -4.25 5.047 -4.673 9.262 l -1.522 -.133 c .479 -4.694 4.849 -9.889 5.033 -10.13 m -36.966 26.139 c .071 .141 1.298 2.136 2.108 4.286 c .797 -2.143 1.98 -4.131 2.051 -4.272 l 1.305 .79 c -.713 1.198 -2.559 4.701 -2.559 6.682 v .762 h -1.594 v -.762 c 0 -1.981 -1.89 -5.484 -2.608 -6.675 l 1.297 -.811 m -32.653 -26.139 c .185 .24 4.56 5.435 5.029 10.13 l -1.516 .133 c -.424 -4.215 -4.632 -9.22 -4.671 -9.262 l 1.158 -1.001" fill="#ed1c2a"/><path d="m 249.311 381.517 c 0 0 11.384 3.863 24.65 4.004 c 0 0 7.061 .289 14.895 -1.699 c 3.15 -.825 9.319 -3.828 9.319 -3.828 c 3.087 1.615 6.196 3.003 9.347 3.828 c 7.824 1.988 14.888 1.699 14.888 1.699 c 13.273 -.141 24.657 -4.004 24.657 -4.004 c 5.823 -1.6 5.894 -9.784 4.385 -14.253 c -1.495 -4.448 -5.992 -5.64 -5.992 -5.64 l .226 -1.395 c 0 0 1.17 .528 2.127 .183 c .98 -.332 .382 -2.89 -.182 -4.483 c -.564 -1.621 -3.187 -2.707 -4.272 -4.018 c -1.078 -1.311 -.522 -2.094 -.944 -2.777 c -.402 -.67 -2.037 -1.932 -2.037 -1.932 c .085 1.135 -1.678 2.023 -2.433 2.531 c -1.416 .973 -.648 1.558 -1.028 3.13 c -.564 2.375 -2.179 2.34 -2.545 3.503 c -.247 .747 0 2.813 .113 3.672 c .443 .36 1.247 -.14 2.107 -.416 c .423 -2.304 3.13 -4.673 3.235 -4.772 l .712 .825 c -.028 .014 -2.164 1.91 -2.756 3.736 c 1.613 -.232 3.313 -.317 4.94 -.353 c 0 0 -.014 .473 -.19 1.586 c -2.488 -.796 -6.702 1.051 -6.702 1.051 c 0 0 2.579 -.042 3.186 .388 c -.079 .838 -.007 .084 -.05 1.219 c -8.677 -.909 -9.537 1.727 -9.537 1.727 c 0 0 3.383 -.12 3.947 3.701 c .564 3.842 -4.067 7.225 -4.067 6.894 c 0 -.353 -.164 -2.538 -5.576 -3.447 c -5.414 -.895 -9.588 2.784 -12.188 4.243 c -2.249 -.902 -8.72 -2.601 -13.359 -2.601 c -4.63 -.014 -11.108 1.699 -13.364 2.601 c -2.597 -1.459 -6.764 -5.138 -12.177 -4.243 c -5.406 .909 -5.587 3.094 -5.587 3.447 c 0 .331 -4.62 -3.052 -4.064 -6.894 c .564 -3.821 3.941 -3.701 3.941 -3.701 c 0 0 -.856 -2.636 -9.549 -1.727 c -.028 -1.135 .049 -.381 -.038 -1.219 c .609 -.43 3.2 -.388 3.2 -.388 c 0 0 -4.23 -1.847 -6.715 -1.051 c -.173 -1.113 -.186 -1.586 -.186 -1.586 c 1.645 .043 3.391 .121 5.044 .36 c -.463 -1.593 -2.267 -3.32 -3.047 -3.919 l .702 -.902 c .145 .105 3.232 2.551 3.557 5.068 c .818 .261 1.561 .719 1.98 .373 c .127 -.859 .36 -2.925 .127 -3.672 c -.38 -1.163 -1.998 -1.128 -2.561 -3.503 c -.374 -1.572 .397 -2.157 -1.009 -3.13 c -.758 -.508 -2.534 -1.396 -2.442 -2.531 c 0 0 -1.635 1.262 -2.047 1.932 c -.413 .683 .15 1.466 -.932 2.777 c -1.099 1.311 -3.711 2.397 -4.282 4.018 c -.563 1.593 -1.163 4.151 -.18 4.483 c .974 .345 2.13 -.183 2.13 -.183 l .232 1.395 c 0 0 -4.498 1.192 -5.999 5.64 c -1.499 4.469 -1.436 12.653 4.39 14.253 m 5.484 -12.751 c 6.164 .423 8.477 9.467 9.47 10.108 c 1.48 .931 12.823 2.51 20.729 .599 c 7.908 -1.91 8.55 -2.692 9.628 -3.306 c .522 -.281 1.982 -1.459 3.377 -1.578 h .105 c 1.397 .119 2.891 1.297 3.412 1.578 c 1.064 .614 1.72 1.396 9.629 3.306 c 7.916 1.911 19.244 .332 20.725 -.599 c 1 -.641 3.299 -9.685 9.473 -10.108 c 4.525 -.303 7.36 3.045 7.155 6.753 c -.148 2.876 -2.283 5.23 -5.047 5.308 c -3.898 .092 -3.299 -5.526 -3.299 -5.526 c 0 0 3.122 3.623 4.574 .479 c 1.212 -2.622 -2.487 -3.835 -3.961 -3.369 c -2.094 .747 -3.92 4.983 -4.99 7.337 c -1.079 2.362 -3.384 2.672 -3.384 2.672 c -2.137 .5 -14.944 2.185 -21.986 .36 c -5.054 -.726 -8.931 -2.764 -10.912 -3.849 c -.564 -.31 -.938 -.712 -1.424 -.712 c -.486 0 -.853 .402 -1.431 .712 c -1.96 1.085 -5.837 3.123 -10.904 3.849 c -7.046 1.825 -19.858 .14 -21.986 -.36 c 0 0 -2.31 -.311 -3.387 -2.672 c -1.076 -2.354 -2.894 -6.59 -4.98 -7.337 c -1.487 -.466 -5.181 .747 -3.977 3.369 c 1.46 3.144 4.575 -.479 4.575 -.479 c 0 0 .6 5.618 -3.291 5.526 c -2.764 -.078 -4.899 -2.432 -5.051 -5.308 c -.195 -3.708 2.633 -7.056 7.158 -6.753" fill="#ed1c2a"/></g></svg>