<svg xmlns="http://www.w3.org/2000/svg" id="Layer_1" data-name="Layer 1" viewBox="0 0 537.43 635.05"><defs><style>.cls-18,.cls-2{fill:#fff}.cls-3{fill:#231f20}.cls-14,.cls-4{fill:#ee3124}.cls-5{fill:#0078b9}.cls-6{fill:#000018}.cls-7{fill:#c5cdcd}.cls-8{fill:#200}.cls-10,.cls-17,.cls-19{fill:#f3c727}.cls-10,.cls-12,.cls-13,.cls-14,.cls-15,.cls-16,.cls-18,.cls-19,.cls-24{stroke:#000}.cls-10,.cls-12,.cls-13,.cls-14,.cls-16{stroke-width:.24px}.cls-12{fill:#fdd1b0}.cls-13,.cls-15{fill:none}.cls-15{stroke-width:.16px}.cls-16{fill:#ffcb05}.cls-18,.cls-24{stroke-width:.08px}.cls-19{stroke-width:.32px}.cls-22,.cls-24{fill:#007caa}</style></defs><title>agf-aarhus</title><path d="M128.64 27.45a185.2 185.2 0 0 0-64 29.34 28.81 28.81 0 0 0-11.8 23.15v456c0 23.33 22.1 29.33 22.33 29.39h-.13l239.76 72.45h-.14a18.32 18.32 0 0 0 12.52-.11l-.2.07L568 565.26c.11 0 22.21-6 22.21-29.36v-456a28.77 28.77 0 0 0-11.77-23.12 185.2 185.2 0 0 0-64.05-29.3 793.1 793.1 0 0 0-385.75-.03" style="fill:#112369" transform="translate(-52.81 -3.67)"/><path d="M263.91 628.13h-.08L24 555.63c-.81-.22-17.81-4.94-17.81-23.4v-456a22.51 22.51 0 0 1 9.23-18.1 178.8 178.8 0 0 1 61.87-28.35 786.9 786.9 0 0 1 382.8.07 178.7 178.7 0 0 1 61.88 28.3 22.5 22.5 0 0 1 9.22 18.12v456c0 18.46-16.94 23.18-17.67 23.37l-241.26 72.39h-.1a12.06 12.06 0 0 1-8.25.1" class="cls-2"/><path d="M450.52 458.1c8.54-22.49 16.95-47.6 19.41-55l-2.7-1.44a253.66 253.66 0 0 1-102.32 78.44l-1.39.58 6.51 17.1a271.92 271.92 0 0 1-205 0l6.52-17.1-1.39-.58a253.66 253.66 0 0 1-102.32-78.44l-2.7 1.44c2.46 7.45 10.88 32.59 19.4 55l-62.12-25.06 3.64 4.6a309.4 309.4 0 0 0 79.13 70.69l-9.36 14.52 1.35.83a325.19 325.19 0 0 0 340.8 0l1.35-.83-9.39-14.52a309.6 309.6 0 0 0 79.11-70.7l3.63-4.6Z" class="cls-3"/><path d="M267.55 568.8a321 321 0 0 1-167.4-47l7.66-11.88 1.7-2.63 14.08-21.85 2.5-3.87h.08q10.89 6.57 22.32 12.08l3.35 1.57 2.08 1q3.53 1.61 7.08 3.1h.1l2.77 1.16h.1a274.8 274.8 0 0 0 207.17 0h.09l2.78-1.16h.1q3.48-1.47 6.93-3c1.91-.87 3.8-1.77 5.69-2.68q11.35-5.48 22.21-12h.08c.25.4 1.16 1.82 2.49 3.87l14.09 21.82c.57.9 1.14 1.78 1.69 2.63l7.66 11.88a321 321 0 0 1-167.4 46.96" class="cls-2"/><path d="M162.11 496.51a268 268 0 0 1-26.92-13.18l29.31 6.82c-.49 1.43-1.52 4.1-2.39 6.36M373 496.51c-.88-2.26-1.9-4.93-2.44-6.33l29.31-6.85A268 268 0 0 1 373 496.51" class="cls-2"/><path d="m32.32 440.39 57.72 23.26-1.28-3.32c-6.87-17.83-13.85-38.05-17.88-50a256.74 256.74 0 0 0 96.73 72l-1.87 4.93-39.55-9.19-1.08-.66-.23.35h-.07l-.56 1-17.39 27a306.6 306.6 0 0 1-74.54-65.37M428.24 505.7l-17.4-27-.54-1h-.11l-.23-.35-1.08.66-39.55 9.19-1.84-4.87a256.66 256.66 0 0 0 96.7-72c-4 11.92-11 32.13-17.87 50l-1.29 3.34 57.73-23.26a306.8 306.8 0 0 1-74.52 65.29" class="cls-2"/><path d="m125.62 527.87 26.64-22.83 13.5 5.66 2.37 35-13.21-5.54v-4.48l-13.21-5.54-3.1 3.19Zm29.62-11.33-8.45 8.64 8.38 3.51ZM169.49 546.15l22.86-26.62 14.19 3.54 7.65 34.26-13.9-3.47-.65-4.43-13.91-3.46-2.6 3.61Zm27.55-15.71-7 9.83 8.82 2.2ZM234.01 548.26l-1 10.89-14.34-1.33 2.89-31.22 20.65 1.9c14.57 1.35 19.1 4.61 18.54 10.69-.33 3.59-2.86 6.42-8.05 6.95 4.5 1.64 7.22 2.68 6.64 9-.38 4.08-.69 5.45 1 5.6l-.09 1-14.5-1.41a14.9 14.9 0 0 1-.22-5.54c.38-4.07-.47-5.51-7.15-6.13Zm.64-6.85 5.64.52c4.43.41 6.87-.15 7.07-2.32s-2.12-3.48-5.46-3.79l-6.68-.62ZM267.96 561.71l-2.11-31.28 14.36-1 .71 10.56 13.57-.92-.72-10.55 14.36-1 2.11 31.28-14.36 1-.81-12.12-13.57.91.82 12.13ZM311.67 527.05l14-3.29 4.29 18.28c.71 3 2.14 5.4 7.9 4 5.05-1.18 6-3.82 5.22-7.13l-4.29-18.27 14-3.29 4.05 17.26c2.3 9.79-3.05 15.57-17.24 18.89-13.24 3.11-21.44 1.23-23.91-9.28ZM380.93 515.92a3 3 0 0 0-2.72-1.2 10.7 10.7 0 0 0-3.66.86c-2.94 1.19-4 2.32-3.58 3.37 1.76 4.36 24.09-7.78 28.35 2.81 2.72 6.74-3.82 13.18-15 17.69-10.74 4.33-19.56 2.67-22-2.46l12.78-5.16a3.85 3.85 0 0 0 3.14 1.42 10.5 10.5 0 0 0 4.08-.8c3.34-1.35 5.23-3 4.68-4.38-1.77-4.4-24 8.07-28.45-3-2.48-6.18 3.73-12.3 13.91-16.4 11.31-4.55 18.12-2.5 21.13 2.2Z" class="cls-4"/><path d="m139.53 217.89-.41.36V398.7c0 33.62 13.26 64.41 37.33 86.71 23.6 21.85 55.57 33.89 90 33.89 35.19 0 67.16-11.52 90-32.44 24.42-22.37 37.34-53.85 37.34-91V218.44l-.42-.36c-27.05-23.32-75.68-37.81-126.91-37.81-52.51 0-99.97 14.06-126.93 37.62" class="cls-3"/><path d="M391.41 219.56c-26.71-22.76-74.5-36.9-124.93-36.9-50.94 0-98.74 14.06-125 36.71V398.7a118.1 118.1 0 0 0 8.25 43.63h22.22v12.52h18.73v-12.52h23.91v12.52h18.73v-12.52h23.87v12.52h18.73v-12.52h23.9v12.52h18.73v-12.52h23.9v12.52h18.74v-12.52h22.27a133.2 133.2 0 0 0 7.93-46.55Z" class="cls-5"/><path d="M352.48 468.62h-188 205Z" class="cls-6"/><path d="m339.94 486.42-.21-.09c-3-1.21-6.45-2.59-10.12-2.59s-7.13 1.37-10.27 2.61a30 30 0 0 1-21.3.07 28.65 28.65 0 0 0-20.57-.1 29.7 29.7 0 0 1-21.27.1 28 28 0 0 0-10.33-2 28.3 28.3 0 0 0-10.27 1.91 30 30 0 0 1-21.3.07h-.12c-3.06-1.23-6.52-2.63-10.25-2.63s-7.11 1.36-10.2 2.58a29 29 0 0 1-10.7 2h-.16l3 2.4a27.6 27.6 0 0 0 7.59-1.83c3.12-1.23 6.65-2.63 10.5-2.63s7.52 1.46 10.78 2.77a29 29 0 0 0 20.53-.08 29.4 29.4 0 0 1 21.37.08 28.63 28.63 0 0 0 20.51-.12 29.58 29.58 0 0 1 21.33.12 28.93 28.93 0 0 0 20.57-.1c3.13-1.25 6.68-2.67 10.59-2.67s7.47 1.45 10.61 2.72l.14.05a27.5 27.5 0 0 0 8.93 1.8l3.1-2.61-1.88.1a29.1 29.1 0 0 1-10.6-1.93M287.67 510.7a28.2 28.2 0 0 0-10.2 1.85 28.8 28.8 0 0 1-10.7 2 29.1 29.1 0 0 1-10.58-1.89 28 28 0 0 0-10.33-2 28.3 28.3 0 0 0-10.27 1.89 23 23 0 0 1-2.4.78c4.75.94 17.52 3.33 23.45 3.33.17 0 17.15 2.44 43.45-3.31-.7-.21-1.39-.43-2-.69a27.9 27.9 0 0 0-10.42-1.96M350.51 475.23a29.1 29.1 0 0 1-10.57-1.9l-.21-.09c-3-1.22-6.45-2.59-10.12-2.59s-7.13 1.37-10.27 2.61a29.77 29.77 0 0 1-21.3.06 28.8 28.8 0 0 0-20.57-.1 29.42 29.42 0 0 1-21.28.11 28.6 28.6 0 0 0-20.6-.06 29.77 29.77 0 0 1-21.3.06h-.12c-3.06-1.23-6.52-2.63-10.25-2.63s-7.11 1.36-10.2 2.57a29.5 29.5 0 0 1-21.27.11l-1.09-.45a16 16 0 0 0-3.56-1.16l2.47 3a4.7 4.7 0 0 1 1.55.69l1.05.56a26.1 26.1 0 0 0 10.15 1.83 28.1 28.1 0 0 0 10.4-2c3.12-1.23 6.65-2.63 10.5-2.63s7.54 1.46 10.78 2.78a29 29 0 0 0 20.53-.09 29.48 29.48 0 0 1 21.37.09 28.7 28.7 0 0 0 20.51-.13 29.65 29.65 0 0 1 21.33.13 28.2 28.2 0 0 0 10.16 1.83 27.9 27.9 0 0 0 10.41-1.94c3.13-1.25 6.68-2.67 10.59-2.67s7.49 1.45 10.63 2.73l.12.05a28.68 28.68 0 0 0 20.5-.13 18.7 18.7 0 0 1 4.37-1.31l3-2.92a26.5 26.5 0 0 0-7 1.61 28.9 28.9 0 0 1-10.71 1.98M329.61 496.86c-3.69 0-7.14 1.37-10.27 2.61a28.7 28.7 0 0 1-10.73 2 29 29 0 0 1-10.57-1.93 28.72 28.72 0 0 0-20.57-.11 29.5 29.5 0 0 1-21.27.11 28 28 0 0 0-10.33-2 28.3 28.3 0 0 0-10.27 1.89 29.85 29.85 0 0 1-21.3.07 35 35 0 0 0-10.4-2.68 14.6 14.6 0 0 0-5.93 1l2.31 1.48a10.7 10.7 0 0 1 2.8-.19h1.19c3.32 0 6.28 1.26 8.89 2.37l1.55.64a29 29 0 0 0 20.53-.08 29.54 29.54 0 0 1 21.37.08 28.63 28.63 0 0 0 20.51-.12 29.72 29.72 0 0 1 21.33.12 29 29 0 0 0 20.59-.1c3.13-1.25 6.67-2.67 10.57-2.67a20 20 0 0 1 5.6.9l2.64-1.58a23.2 23.2 0 0 0-8.24-1.81" class="cls-5"/><path d="M459.13 127.53c-16.85-9.41-32.94-20.38-50.94-26.85-8 7.06-16.86 15.88-24.11 23.32 10.19 10.2 22.35 18.43 31.75 29.6-4.9 1.57-10.78 1-15.87 1.37-17.64 1.76-34.3 10.78-43.91 26.85 1 .59 2.36-1 3.53-1.37 14.31-9.41 28 3.72 41.94 6.08l2.94-.59 39.79-25.29c7.84-6.27 18.62-11 22.74-20.77.38-5.1-3.35-9.8-7.86-12.35M496.37 104.21c-6.66 2.94-16.26 6.47-23.12 1.37-2.75-1.57-4.9-4.31-8-4.7l-22.14 10.38a60.4 60.4 0 0 0 32.88 16.27l11-4.7c7.88-3.59 9.6-11.17 10.19-18.43Z" class="cls-4"/><path d="M356.43 98.92v-.79c5.69-3.92 11.37-7 18-8.23 28.22-2 51.35 18.62 79.18 10.58 11.17-6.66 23.13-16.07 30.57-27.43v-1.38c-20.48 1.88-40.57-.59-57.62-8.82-30.58-8.42-54.09 13.72-73.3 34.5-3.33-1.77-7.64-1.77-10-4.71 7.45-12.34 21.37-19.4 32.74-27.83l-14.81-15.29c-2 3.53-5.49 5.89-8.43 8.83-6.07 2.94-13.91 3.72-19.79-.79-4.51-4.51-.59-10.78-1.18-16.27h-2.4l-75.85 39.2c-.2 27.83 0 57.43.19 85.46a75 75 0 0 0 7.26-2.36c12.67-5.25 28-10.57 40-16.65.39-5.68.39-10.2.39-15.68l.21-2.78c8 3.14 17.83 3.56 23.52 12.38 4.31 4.9 5.48 12.54 3.52 18.62-6.07 14.31-21.75 18.62-36.06 19.2-18.81.4-39.2-1.56-50.37-18.62-6.12-9.13-8.06-18.65-9.21-33.71-1.45-19 6.66-35.47 18-50 13.06-13.53 23-16.25 25.87-17.84-2-1.17-4.51-.78-6.66-1.17-32.73-.4-66.44 9.6-81.93 41.15h-.58l-32.74-41.32c-.17.43-13.78 11.52-14.3 11.56-8.46-10.19-17.18-15.79-32.54-14.89-12.83 1-28.78 5.9-35.86 19.78 4-1.43 7.25-2.92 10.77-2.72 13.52-2.35 19.41 12.53 26.46 20.77l.39 2-48.8 67.43c-5.29 6.86-10 16.27-18 20.57 10.19-1.95 22.93-4.11 32 2.36 3.72 1.57 6.66 5.68 10.19 7.25 8.62-14.7 23.91-22 35.87-33.91a36.8 36.8 0 0 0-4.71-7.45c-3 2-7.06 5.34-9.21 6.47l-12-9.21c.4-2.35 2.55-3.92 3.73-6.08l47.62-.19 1.57.78 23.72 31-1.37 18.82.58.78 21.37-14.7 14.76 11.62c13.91 8.62 22.6 12.79 39 15.15 13.83 2 32.89.05 32.89.05 61.44-4.67 95.66-49.39 95.3-72-.19-14.87-5.99-25.85-17.95-33.49m-222.84 26.85c-7.25.19-23.33 0-23.33 0 5.05-7.5 11.77-16.86 11.77-16.86l1.16.42 11.56 15.88Zm201.29-40.18c-11.18 8.62-21.76 18.62-32.93 26.07 0-11.86.4-21.76.4-31.95 3.53 1.77 6.85 6.47 10.58 8a67.3 67.3 0 0 0 22.73-3.52ZM212.98 443.97h-20.69v10.58h20.69ZM255.61 443.97h-20.69v10.58h20.69ZM298.25 443.97h-20.7v10.58h20.7ZM340.88 443.97h-20.69v10.58h20.7ZM170.35 443.97h-20a113 113 0 0 0 5 10.58h14.92ZM362.81 454.55h15.32a113 113 0 0 0 4.74-10.58h-20.06ZM172.67 463.33a27.2 27.2 0 0 0 7.69 1.74v-8.56h-23.85c.94 1.66 1.93 3.29 3 4.9.83-.07 1.66-.12 2.5-.12a28.9 28.9 0 0 1 10.66 2.04M182.3 456.49v8.27h.56a28.1 28.1 0 0 0 10.35-2c3.12-1.23 6.67-2.63 10.56-2.63s7.65 1.49 10.87 2.79a27.2 27.2 0 0 0 8.35 1.74v-8.21H182.3ZM224.95 456.49v8.29a27.6 27.6 0 0 0 10-1.9 29.67 29.67 0 0 1 21.57.08 27.4 27.4 0 0 0 8.95 1.77v-8.24zM287.51 460.89a29.3 29.3 0 0 1 10.87 2.07 27.8 27.8 0 0 0 9.89 1.81v-8.28h-40.84v8.27a27.6 27.6 0 0 0 9.43-1.93 29.5 29.5 0 0 1 10.65-1.94M329.44 460.17c4 0 7.55 1.46 10.71 2.74l.13.05a27.9 27.9 0 0 0 10.07 1.82h.57v-8.28h-40.73v8.23a27.7 27.7 0 0 0 8.53-1.85c3.19-1.28 6.76-2.71 10.72-2.71M352.86 456.49v8.17a27.4 27.4 0 0 0 7.74-1.83 29.5 29.5 0 0 1 10.65-1.94 32 32 0 0 1 3.24.2c.91-1.51 1.79-3 2.62-4.6z" class="cls-4"/><path d="m339.84 486.66-.22-.09c-3-1.2-6.39-2.57-10-2.57s-7.11 1.38-10.17 2.6a30.17 30.17 0 0 1-21.5.06 28.4 28.4 0 0 0-20.37-.1 29.8 29.8 0 0 1-21.47.1 28.2 28.2 0 0 0-20.4-.06 30.17 30.17 0 0 1-21.5.06l-.12-.05c-3-1.22-6.47-2.61-10.15-2.61s-7.07 1.36-10.1 2.56a29 29 0 0 1-10.07 2c.77.63 1.56 1.26 2.35 1.87a27.6 27.6 0 0 0 7.23-1.78c3.13-1.24 6.69-2.64 10.59-2.64s7.65 1.48 10.88 2.79a28.7 28.7 0 0 0 20.37-.07 29.67 29.67 0 0 1 21.57.08 28.33 28.33 0 0 0 20.32-.13 29.88 29.88 0 0 1 21.52.13 28.7 28.7 0 0 0 20.38-.1c3.15-1.26 6.72-2.69 10.68-2.69s7.55 1.45 10.71 2.74l.13.05a27.4 27.4 0 0 0 8 1.71c.8-.64 1.6-1.28 2.38-1.93h-.31a29.2 29.2 0 0 1-10.73-1.93M297.94 512.9a28.4 28.4 0 0 0-20.37-.1 29.8 29.8 0 0 1-21.47.1 28.2 28.2 0 0 0-20.4-.06l-1.24.39c.69.17 1.39.32 2.09.48 5.95 1.11 15.24 2.68 20.09 2.69.05 0 2 .29 5.57.44 1.4 0 2.8.07 4.21.07 2.16 0 4.3-.05 6.42-.13a164.6 164.6 0 0 0 26.2-3.49ZM350.51 475.49a29.2 29.2 0 0 1-10.67-2l-.22-.09c-3-1.2-6.39-2.57-10-2.57s-7.11 1.38-10.17 2.6a30.17 30.17 0 0 1-21.5.06 28.4 28.4 0 0 0-20.37-.1 29.8 29.8 0 0 1-21.47.1 28.2 28.2 0 0 0-20.4-.06 30.17 30.17 0 0 1-21.5.06h-.12c-3-1.22-6.47-2.61-10.15-2.61s-7.07 1.36-10.1 2.56a29.8 29.8 0 0 1-21.47.1l-1.09-.45a18.6 18.6 0 0 0-2.74-.94l1.91 2.32a4.9 4.9 0 0 1 1.52.68l1 .55a26.1 26.1 0 0 0 10.06 1.81 27.8 27.8 0 0 0 10.31-2c3.13-1.24 6.69-2.64 10.59-2.64s7.65 1.48 10.88 2.79a28.7 28.7 0 0 0 20.33-.08 29.67 29.67 0 0 1 21.57.08 28.33 28.33 0 0 0 20.32-.13 29.88 29.88 0 0 1 21.52.13 28.7 28.7 0 0 0 20.38-.1c3.15-1.26 6.72-2.69 10.68-2.69s7.56 1.46 10.73 2.75l.12.06a28.33 28.33 0 0 0 20.32-.13 19.5 19.5 0 0 1 4.33-1.3l.33-.33c.51-.62 1-1.25 1.51-1.88a24.6 24.6 0 0 0-5.63 1.39 29.2 29.2 0 0 1-10.81 2.06M319.44 499.72a30.17 30.17 0 0 1-21.5.06 28.4 28.4 0 0 0-20.37-.1 29.8 29.8 0 0 1-21.47.1 28.2 28.2 0 0 0-20.4-.06 30.17 30.17 0 0 1-21.5.06 35 35 0 0 0-10.32-2.66 13.9 13.9 0 0 0-5.31.8l1.78 1.14a11 11 0 0 1 2.74-.18h1.18c3.38 0 6.36 1.27 9 2.39l1.54.65a28.7 28.7 0 0 0 20.33-.08 29.67 29.67 0 0 1 21.57.08 28.33 28.33 0 0 0 20.32-.13 29.88 29.88 0 0 1 21.52.13 28.66 28.66 0 0 0 20.39-.11c3.15-1.25 6.72-2.68 10.67-2.68a19 19 0 0 1 4.88.71c.74-.42 1.47-.84 2.19-1.27a21 21 0 0 0-7.07-1.46c-3.64.01-7.11 1.39-10.17 2.61" class="cls-5"/><path d="M319.63 503.53a30.56 30.56 0 0 1-21.77.11 28 28 0 0 0-20.15-.13 30.2 30.2 0 0 1-21.69.13 27.77 27.77 0 0 0-20.19-.08 29.9 29.9 0 0 1-11 2 29.5 29.5 0 0 1-10.64-1.92l.12-.05a12 12 0 0 1-1.71-.61c-2.48-1.06-5.28-2.25-8.31-2.25h-2.48a128.8 128.8 0 0 0 30.11 11.88l.9-.24v-.54l.71-.2 1.56-.49a30.17 30.17 0 0 1 21.76.06 28 28 0 0 0 20.12-.1 30.35 30.35 0 0 1 21.72.1l1.92.65v.47c.47.14.95.26 1.43.38a128 128 0 0 0 30.11-11.5 16.4 16.4 0 0 0-2.45-.21c-3.69-.01-7.08 1.34-10.07 2.54M339.63 490.46c-3-1.22-6.41-2.6-10-2.6s-7 1.36-10 2.56a30.5 30.5 0 0 1-21.75.09 28.08 28.08 0 0 0-20.15-.12 30.13 30.13 0 0 1-21.69.12 27.9 27.9 0 0 0-20.19-.08 30.46 30.46 0 0 1-21.71.08c-3.23-1.3-6.56-2.65-10.19-2.65s-6.93 1.34-9.91 2.51a28.7 28.7 0 0 1-5.86 1.62q3.94 2.91 8.12 5.51v-.31l.11-.21.14-.06c.1 0 .4-.18.85-.35v-.2a16.3 16.3 0 0 1 6.59-1.08 36.7 36.7 0 0 1 10.86 2.78 28.36 28.36 0 0 0 20.15-.06 30 30 0 0 1 21.76.06 28 28 0 0 0 20.12-.1 30.2 30.2 0 0 1 21.72.1 28.33 28.33 0 0 0 20.14-.06c3.22-1.28 6.86-2.73 10.85-2.73a24.8 24.8 0 0 1 8.81 2v.19h.05q4-2.52 7.82-5.33a27.7 27.7 0 0 1-6.54-1.62ZM350.51 479.33a29.9 29.9 0 0 1-10.75-1.95l-.12-.05c-3-1.22-6.41-2.61-10-2.61s-7 1.36-10 2.56a30.57 30.57 0 0 1-21.75.1 28 28 0 0 0-20.15-.13 29.6 29.6 0 0 1-10.97 2.08 29.9 29.9 0 0 1-10.75-1.95 27.84 27.84 0 0 0-20.19-.09 30.53 30.53 0 0 1-21.71.09c-3.22-1.31-6.55-2.66-10.19-2.66s-6.93 1.33-9.91 2.51a29.8 29.8 0 0 1-11 2.1 27.7 27.7 0 0 1-10.75-1.95h-.08l-.79-.43q3.18 3.47 6.67 6.71c1.21 1.12 2.45 2.21 3.7 3.27h1.07l.07-.18h.11a27.2 27.2 0 0 0 10.17-1.9c3.19-1.26 6.81-2.69 10.78-2.69s7.65 1.46 10.84 2.75h.1a28.36 28.36 0 0 0 20.15-.06 30 30 0 0 1 21.76.06 28 28 0 0 0 20.12-.1 30.2 30.2 0 0 1 21.72.1 28.33 28.33 0 0 0 20.14-.06c3.22-1.28 6.87-2.73 10.85-2.73s7.54 1.44 10.71 2.71l.2.08a27.3 27.3 0 0 0 9.9 1.82l1.88-.11.07.19h.55l1.93-1.72a108 108 0 0 0 8.28-8.45c-.52.18-1 .38-1.68.63a29.6 29.6 0 0 1-10.98 2.06M361.19 464.33a30.08 30.08 0 0 1-21.54.13l-.14-.06c-3-1.22-6.44-2.61-10.09-2.61s-7.08 1.37-10.11 2.59a30.48 30.48 0 0 1-21.56.08 28.28 28.28 0 0 0-20.3-.13 30.08 30.08 0 0 1-21.54.13 28.1 28.1 0 0 0-20.34-.09 29.2 29.2 0 0 1-10.88 2 29.8 29.8 0 0 1-10.77-2c-3.05-1.23-6.51-2.63-10.17-2.63s-7 1.35-10 2.54a30.08 30.08 0 0 1-21.54.13 27.4 27.4 0 0 0-10.21-1.95l-1.7.1q2.73 4.15 5.84 8.09l.35-.65h.29c.46.05.87.11 1.24.18l.1-.17a18 18 0 0 1 3.87 1.25l1.07.44a28 28 0 0 0 20.11-.1c3.19-1.26 6.81-2.69 10.78-2.69s7.65 1.46 10.84 2.75h.1a28.36 28.36 0 0 0 20.15-.06 30 30 0 0 1 21.76.06 28 28 0 0 0 20.12-.1 30.2 30.2 0 0 1 21.72.1 28.33 28.33 0 0 0 20.14-.06c3.22-1.28 6.87-2.73 10.85-2.73s7.54 1.44 10.71 2.71l.2.08a28 28 0 0 0 20.11-.1 28 28 0 0 1 7.39-1.72l.07.14h.33q2.7-3.62 5.09-7.42l-2.26-.15a27.7 27.7 0 0 0-10.08 1.92" class="cls-7"/><path d="M150.12 443.97a101 101 0 0 0 5 10.58h.28a113 113 0 0 1-5-10.58ZM378.36 454.55a92 92 0 0 0 4.72-10.58h-.21a113 113 0 0 1-4.74 10.58ZM156.19 456.49c.6 1.08 1.63 2.85 3 4.92h.28c-1-1.61-2-3.24-3-4.9ZM374.72 461.12c1.15-1.93 2.07-3.59 2.62-4.63h-.23a99 99 0 0 1-2.62 4.6Z" class="cls-8"/><path d="m349.19 490.58 2.42-2-.8.05c-.78.65-1.58 1.29-2.38 1.93ZM183.58 488.58l2.33 1.88h.2c-.79-.61-1.58-1.24-2.35-1.87ZM234.3 513.33l2.25.43c-.7-.16-1.4-.31-2.09-.48ZM262.25 516.84c2.68.11 6.26.14 10.63-.06-2.12.08-4.26.13-6.42.13-1.41 0-2.81-.03-4.21-.07M367.42 471.97l-.48.08c-.49.63-1 1.26-1.51 1.88ZM335.19 500.02l2.07-1.24-.56-.2c-.72.43-1.45.85-2.19 1.27Z" class="cls-6"/><path d="M382 439.18H256.48V343a29.9 29.9 0 0 1 3.84-14.48c6.75-12.12 20.45-17.73 32.39-14 0-15.75 11.87-28.56 26.53-28.56s26.53 12.82 26.53 28.56v.05-.05c11.93-3.73 25.64 1.87 32.4 14a30 30 0 0 1 3.83 14.63Z" style="fill:#fff;stroke:#fff;stroke-width:.16px" transform="translate(-52.81 -3.67)"/><path d="M250.09 363.03a4.77 4.77 0 1 0-4.76-4.77 4.77 4.77 0 0 0 4.76 4.77Z" class="cls-10"/><path d="M302.9 364.66a2.73 2.73 0 1 0-2.55-2.73 2.65 2.65 0 0 0 2.55 2.73Z" style="stroke:#000;stroke-width:.24px;fill:#e6e7e8" transform="translate(-52.81 -3.67)"/><path d="M241.49 364.94c1.08.4 2-.69 2.84-1.26s.78-1.44 1.51-2a16 16 0 0 1 3-2 9.65 9.65 0 0 1 6.69.25 2.1 2.1 0 0 1 .68.53 1.35 1.35 0 0 1 .33 1.77c0 .09.46 1.3-.41 1.75a1.39 1.39 0 0 1-1 1.74c-.25.1-.27.58-.48 1-.4.79-.56.73-1.33.51-.93-.26-2.11-1-3.32-.38-2.93 1.46-5.42 2.46-8.54 2.52Z" class="cls-12"/><path d="M250.96 364.79a7.46 7.46 0 0 1 4 .84M251.19 362.87a11.6 11.6 0 0 1 4.93 1M251.19 360.94a17.6 17.6 0 0 1 3.59.66 11 11 0 0 1 1.49.6" class="cls-13"/><path d="M247.99 342.43c1.51-1.69 1.38-4.19 2.21-6.24.39-.94 1.35-1.33 2.26-1.77a29 29 0 0 1 2.87-1.12 15.8 15.8 0 0 1 3.73-.67 2.06 2.06 0 0 1 1.31.2c.73.53.68 1.44.8 2.25a1.3 1.3 0 0 0 .15.51 1.61 1.61 0 0 1-.05 1.74c-.26.43-1 .4-.89.94a1.57 1.57 0 0 1-.36 1.28c-.74.85-2.12.58-2.78 1.67-.37.62-.25 1.34-.64 1.9-1 1.45-2.43 2.24-3.36 3.7a14.6 14.6 0 0 0-1.28 2.23c-1.23-.16-2.67-.1-3.45-1.23a9.4 9.4 0 0 1-1.24-2.86Z" class="cls-12"/><path d="M249.52 338.64c.18-1.13 1.52-1.56 2.42-2.05.25-.14.56-.17.82-.29a19 19 0 0 1 2.6-1 1 1 0 0 1 .83.12 1.06 1.06 0 0 1 .51 1.34c-.44.94-1.66 1-2.41 1.67-.46.41-.47 2.15-.34 2.74.27 1.17.69 2.71-.4 3.44M256.19 335.38a17.6 17.6 0 0 1 4.73-1.13" class="cls-13"/><path d="M256.19 337.74a47 47 0 0 1 5.15-2.15M260.38 338.02s-3.25 1-4.75 2.67" class="cls-13"/><path d="M257.01 262.93h18.9v12.04h-18.9z" class="cls-14"/><path d="M257.01 262.93h9.45v4.12h-9.45zM266.46 262.93h9.45v4.12h-9.45zM257.01 271.18h4.76v-4.13h-4.76M261.77 267.05h9.45v4.12h-9.45z" class="cls-13"/><path d="M275.91 267.05h-4.7v4.13h4.7" class="cls-13"/><path d="M275.88 265.67h-3.64M272.24 264.17h3.64M260.68 265.67h-3.64M257.04 264.17h3.64M275.88 269.85h-3.64M272.24 268.35h3.64M260.68 269.85h-3.64M257.04 268.35h3.64M275.88 274.04h-3.64M272.24 272.53h3.64M260.68 274.04h-3.64M257.04 272.53h3.64" class="cls-15"/><path d="m277.9 262.93-9.51-19.26h-3.86l-9.5 19.26z" class="cls-14"/><path d="m265.5 243.67-6.56 19.26M267.43 243.67l6.56 19.26M266.64 243.67l2.83 19.26M266.28 243.67l-2.83 19.26" class="cls-13"/><path d="M266.46 244.74a4.68 4.68 0 1 0-4.68-4.68 4.69 4.69 0 0 0 4.68 4.68Z" class="cls-16"/><path d="M263.6 241.57a3.2 3.2 0 0 0 2.86 1.73 3.25 3.25 0 0 0 3.24-3.24 3.28 3.28 0 0 0-1.73-2.87 3.24 3.24 0 0 1-4.37 4.38M195.6 277.33a18.44 18.44 0 0 0 14 6.37c10.06 0 18.21-7.85 18.21-17.53s-8.15-17.54-18.21-17.54a18.5 18.5 0 0 0-13.54 5.81h-1.45a23.58 23.58 0 1 1-.18 22.89Z"/><path d="M231.89 260.88a19.2 19.2 0 0 1 .65 4.76c0 10.61-9 19.21-20.1 19.21a20.5 20.5 0 0 1-3.52-.3h.73c10.62 0 19.24-8.23 19.24-18.38a17.4 17.4 0 0 0-.54-4.24 1.7 1.7 0 0 1-.06-.45 1.85 1.85 0 0 1 3.6-.61Z" class="cls-17"/><path d="m314.73 240.07-4.72 15.13-14.84-5.69 8.88 13.12-13.73 8 15.8 1.27-2.28 15.74 10.89-11.56 10.8 11.59-2.19-15.74 15.76-1.2-13.66-8.04 8.88-13.12-14.8 5.66z"/><path d="m316.46 263.73 14-11.11-10.53 4.03zM307.54 272.14l6.14-4.87-7.8 16.12zM316.95 265.62l17.17 3.97-9.56-5.69zM321.95 272.14l1.2 8.52-5.78-12.22zM313.02 263.74l-14.12-11.28 10.74 4.19zM312.38 265.63l-17.29 3.92 9.74-5.66zM311.36 255.8l3.37 7.1v-17.63zM315.7 269.34v5.81l5.65 6.08z" class="cls-17"/><path d="M336.6 326.24a42 42 0 0 0-2.79-6.11c-7.09-12.73-19.79-20.19-32.68-20.62-4.5-16-18.33-27.6-34.67-27.6s-30.17 11.62-34.67 27.6c-12.89.43-25.59 7.89-32.68 20.62a42 42 0 0 0-2.94 6.54l-1.21 50.85h8.74v-38.19a30 30 0 0 1 3.84-14.48c6.75-12.12 20.46-17.73 32.39-14 0-15.75 11.87-28.56 26.53-28.56s26.53 12.82 26.53 28.56v.05-.05c11.93-3.73 25.64 1.87 32.4 14a29.9 29.9 0 0 1 3.8 14.63v37.32h8.74Z" class="cls-14"/><path d="M201.47 378.33v-39a32.44 32.44 0 0 1 4.15-15.6c6.79-12.18 20-18.29 32.23-15.88 1.36-15.69 13.64-28 28.61-28s27.26 12.27 28.62 28c12.19-2.41 25.44 3.7 32.22 15.88a32.36 32.36 0 0 1 4.15 16.05v35.79l4.74-.24v-41.86a38.6 38.6 0 0 0-4.35-12.24c-7-12.52-19.75-19.6-32.45-19.34-3.69-15.83-17-27.55-32.92-27.55s-29.28 11.72-32.93 27.55c-12.69-.26-25.47 6.82-32.45 19.34a38.9 38.9 0 0 0-4.57 13.68v43.57Z" class="cls-4"/><path d="M153.8 374.39h49.89M153.8 374.39h49.89v65.24H153.8z" class="cls-14"/><path d="M153.83 376.65h6.23M153.83 383.48h4.57M153.83 378.88h5.71M153.83 385.83h4.57M153.83 390.55h4.57M153.83 392.9h4.57M153.83 397.62h4.57M153.83 399.97h4.57M153.83 404.7h4.57M153.83 407.04h4.57M153.83 411.77h4.57M153.83 414.11h4.57M153.83 418.84h4.57M153.83 421.18h4.57M153.83 425.91h4.57M153.83 428.26h4.57M153.83 433.04h4.57M153.83 435.24h5.32M153.83 437.43h6.41" class="cls-15"/><path d="M153.8 381.13h49.89M153.8 388.24h49.89M153.8 395.34h49.89M153.8 402.44h49.89M153.8 409.54h49.89M153.8 416.64h49.89M153.8 423.74h49.89M153.8 430.85h49.89M167.04 374.42v6.68M188.49 374.42v6.68M167.04 388.27v7.04M188.49 388.27v7.04M159.3 395.37v7.04M178.32 395.37v7.04M159.3 381.16v7.04M159.3 409.57v7.04M159.3 423.78v7.03M178.32 409.57v7.04M178.32 423.78v7.03M197.46 395.37v7.04M197.46 381.16v7.04M197.46 409.57v7.04M197.46 423.78v7.03M168.09 430.94v8.63M189.28 430.94v8.66" class="cls-13"/><path d="M203.6 376.65h-6.23M203.6 383.48h-4.57M203.6 378.88h-5.72M203.6 385.83h-4.57M203.6 390.55h-4.57M203.6 392.9h-4.57M203.6 397.62h-4.57M203.6 399.97h-4.57M203.6 404.7h-4.57M203.6 407.04h-4.57M203.6 411.77h-4.57M203.6 414.11h-4.57M203.6 418.84h-4.57M203.6 421.18h-4.57M203.6 425.91h-4.57M203.6 428.26h-4.57M203.6 433.04h-4.57M203.6 435.24h-5.33M203.6 437.43h-6.41" class="cls-15"/><path d="M162.71 425.61h10v-21.16a5 5 0 0 0-10 0Z"/><path d="M163.82 424.46h7.79v-19.4a4.94 4.94 0 0 0-2.17-4.15 5 5 0 0 1 .9 2.88v19.41h-6.53Z" class="cls-18"/><path d="M183.53 425.61h10v-21.16a5 5 0 0 0-10 0Z"/><path d="M184.64 424.46h7.8v-19.4a5 5 0 0 0-2.16-4.15 5 5 0 0 1 .9 2.88v19.41h-6.53Z" class="cls-18"/><path d="M178.74 395.33a7.11 7.11 0 1 0-7.1-7.1 7.1 7.1 0 0 0 7.1 7.1"/><path d="M184.19 385.43a6 6 0 0 1 .7 2.84 6.11 6.11 0 0 1-8.12 5.76h.48a7.12 7.12 0 0 0 7.11-7.11 7 7 0 0 0-.17-1.49Z" class="cls-18"/><path d="M158.79 313.73h37.74v60.66h-37.74z" class="cls-14"/><path d="M158.76 315.98h6.32M158.76 318.21h5.81M158.76 322.55h6.07M158.76 324.77h6.07M158.76 329.1h6.32M158.76 331.33h5.81M158.85 336.15h5.63M161.26 338.37h5.18M158.85 342.95h6.23M158.85 345.17h5.72M158.85 349.69h6.23M158.85 351.92h5.72M158.85 356.43h6.23M158.85 358.65h5.72M160.66 363.23h5.68M158.85 365.45h5.36M158.85 369.91h5.98M158.85 372.14h5.98M196.5 316.22h-6.26M196.5 318.45h-5.75M196.47 322.78h-5.98M196.47 325.01h-5.98M196.47 329.35h-6.23M196.47 331.57h-5.72M196.47 336.39h-5.63M194.06 338.61h-5M196.47 343.19h-6.23M196.47 345.41h-5.72M196.47 349.93h-6.23M196.47 352.16h-5.72M196.47 356.67h-6.23M196.47 358.89h-5.72M194.66 363.47h-5.69M196.47 365.69h-5.36M196.47 370.15h-5.98M196.47 372.38h-5.98" class="cls-15"/><path d="M158.82 367.65h37.71M166.44 320.5v6.68M188.91 320.5v6.68M158.82 360.91h37.71M158.82 354.17h37.71M158.82 347.43h37.71M158.82 340.69h37.71M158.82 333.95h37.71M158.82 327.21h37.71M158.82 320.47h37.71M166.44 334.01v6.68M188.91 334.01v6.68M166.44 347.52v6.59M188.91 347.52v6.59M166.44 360.94v6.68M188.91 361v6.59M177.6 354.19v6.68M177.6 367.67v6.68M169.75 313.76v6.68M184.37 313.76v6.68" class="cls-13"/><path d="M172.34 351.07h10v-24.62a5 5 0 0 0-10 0Z"/><path d="M173.45 349.93h7.79v-22.87a4.94 4.94 0 0 0-2.17-4.14 5 5 0 0 1 .9 2.87v22.87h-6.53Z" class="cls-18"/><path d="m199.33 312.04-2.8 1.69h-37.74l-2.8-1.69z"/><path d="m155.99 312.04 20.26-40.8h2.82l20.26 40.8z" class="cls-14"/><path d="m160.69 312.04 16.28-40.8M166.34 312.04l10.63-40.8M172.61 312.04l4.36-40.8M194.63 312.04l-16.28-40.8M188.97 312.04l-10.62-40.8M182.72 312.04l-4.37-40.8" class="cls-13"/><path d="M171.73 280.48h2.62M171.01 281.98h2.74M170.23 283.48h2.89M169.51 284.99h3.03M168.75 286.49h3.22M168.03 288h3.34M160.54 303.05h4.78M159.85 304.55h4.87M159.09 306.05h5.06M158.31 307.56h5.24M157.62 309.06h5.29M156.84 310.57h5.47M161.29 301.54h4.64M167.28 289.5h3.46M166.52 291.01h3.62M165.77 292.51h3.76M165.02 294.02h3.94M164.27 295.52h4.03M163.49 297.03h4.24M162.76 298.53h4.37M162.07 300.03h4.45M172.51 278.97h2.47M174.02 275.96h2.14M173.27 277.47h2.25M183.59 280.48h-2.68M184.31 281.98h-2.8M185.09 283.48h-2.95M185.82 284.99h-3.1M186.57 286.49h-3.28M187.29 288h-3.4M194.78 303.05h-4.84M195.47 304.55h-4.93M196.23 306.05h-5.12M197.01 307.56h-5.3M197.7 309.06h-5.36M198.48 310.57h-5.53M194.03 301.54h-4.7M188.04 289.5h-3.52M188.79 291.01h-3.67M189.55 292.51h-3.83M190.3 294.02h-4M191.05 295.52h-4.09M191.83 297.03h-4.3M192.56 298.53h-4.43M193.25 300.03h-4.52M182.8 278.97h-2.52M181.3 275.96h-2.2M182.05 277.47h-2.32" class="cls-15"/><path d="M177.66 274.74a6.28 6.28 0 1 0-6.27-6.27 6.28 6.28 0 0 0 6.27 6.27Z" class="cls-19"/><path d="M173.83 270.49a4.27 4.27 0 0 0 3.83 2.31 4.34 4.34 0 0 0 2-8.18 4.2 4.2 0 0 1 .51 2 4.33 4.33 0 0 1-4.33 4.34 4.3 4.3 0 0 1-2.01-.47"/><path d="M329.23 374.39h49.9M329.23 374.39h49.89v65.24h-49.89z" class="cls-14"/><path d="M329.26 376.65h6.23M329.26 383.48h4.58M329.26 378.88h5.72M329.26 385.83h4.58M329.26 390.55h4.58M329.26 392.9h4.58M329.26 397.62h4.58M329.26 399.97h4.58M329.26 404.7h4.58M329.26 407.04h4.58M329.26 411.77h4.58M329.26 414.11h4.58M329.26 418.84h4.58M329.26 421.18h4.58M329.26 425.91h4.58M329.26 428.26h4.58M329.26 433.04h4.58M329.26 435.24h5.33M329.26 437.43h6.41" class="cls-15"/><path d="M329.23 381.13h49.9M329.23 388.24h49.9M329.23 395.34h49.9M329.23 402.44h49.9M329.23 409.54h49.9M329.23 416.64h49.9M329.23 423.74h49.9M329.23 430.85h49.9M342.48 374.42v6.68M363.93 374.42v6.68M342.48 388.27v7.04M363.93 388.27v7.04M334.74 395.37v7.04M353.76 395.37v7.04M334.74 381.16v7.04M334.74 409.57v7.04M334.74 423.78v7.03M353.76 409.57v7.04M353.76 423.78v7.03M372.9 395.37v7.04M372.9 381.16v7.04M372.9 409.57v7.04M372.9 423.78v7.03M343.53 430.94v8.63M364.71 430.94v8.66" class="cls-13"/><path d="M379.04 376.65h-6.23M379.04 383.48h-4.58M379.04 378.88h-5.72M379.04 385.83h-4.58M379.04 390.55h-4.58M379.04 392.9h-4.58M379.04 397.62h-4.58M379.04 399.97h-4.58M379.04 404.7h-4.58M379.04 407.04h-4.58M379.04 411.77h-4.58M379.04 414.11h-4.58M379.04 418.84h-4.58M379.04 421.18h-4.58M379.04 425.91h-4.58M379.04 428.26h-4.58M379.04 433.04h-4.58M379.04 435.24h-5.33M379.04 437.43h-6.41" class="cls-15"/><path d="M338.19 425.61h10v-21.16a5 5 0 1 0-10 0Z"/><path d="M339.26 424.46h7.79v-19.4a5 5 0 0 0-2.17-4.15 5 5 0 0 1 .9 2.88v19.41h-6.53Z" class="cls-18"/><path d="M358.96 425.61h10.06v-21.16a5 5 0 0 0-10 0Z"/><path d="M360.08 424.46h7.79v-19.4a4.94 4.94 0 0 0-2.17-4.15 5 5 0 0 1 .91 2.88v19.41h-6.53Z" class="cls-18"/><path d="M354.19 395.33a7.11 7.11 0 1 0-7.1-7.1 7.11 7.11 0 0 0 7.1 7.1"/><path d="M359.59 385.43a6 6 0 0 1 .7 2.84 6.12 6.12 0 0 1-8.1 5.76h.49a7.11 7.11 0 0 0 7.1-7.11 7 7 0 0 0-.19-1.49Z" class="cls-18"/><path d="M336.4 313.73h37.74v60.66H336.4z" class="cls-14"/><path d="M336.37 315.98h6.32M336.37 318.21h5.8M336.37 322.55h6.06M336.37 324.77h6.06M336.37 329.1h6.32M336.37 331.33h5.8M336.46 336.15h5.62M338.86 338.37h5.18M336.46 342.95h6.23M336.46 345.17h5.71M336.46 349.69h6.23M336.46 351.92h5.71M336.46 356.43h6.23M336.46 358.65h5.71M338.26 363.23h5.69M336.46 365.45h5.35M336.46 369.91h5.97M336.46 372.14h5.97M374.1 316.22h-6.26M374.1 318.45h-5.75M374.07 322.78h-5.97M374.07 325.01h-5.97M374.07 329.35h-6.23M374.07 331.57h-5.72M374.07 336.39h-5.63M371.66 338.61h-4.99M374.07 343.19h-6.23M374.07 345.41h-5.72M374.07 349.93h-6.23M374.07 352.16h-5.72M374.07 356.67h-6.23M374.07 358.89h-5.72M372.27 363.47h-5.69M374.07 365.69h-5.36M374.07 370.15h-5.97M374.07 372.38h-5.97" class="cls-15"/><path d="M336.43 367.65h37.7M344.04 320.5v6.68M366.52 320.5v6.68M336.43 360.91h37.7M336.43 354.17h37.7M336.43 347.43h37.7M336.43 340.69h37.7M336.43 333.95h37.7M336.43 327.21h37.7M336.43 320.47h37.7M344.04 334.01v6.68M366.52 334.01v6.68M344.04 347.52v6.59M366.52 347.52v6.59M344.04 360.94v6.68M366.52 361v6.59M355.2 354.19v6.68M355.2 367.67v6.68M347.35 313.76v6.68M361.97 313.76v6.68" class="cls-13"/><path d="M349.94 351.07h10.05v-24.62a5 5 0 0 0-10 0Z"/><path d="M351.05 349.93h7.79v-22.87a4.91 4.91 0 0 0-2.17-4.14 4.9 4.9 0 0 1 .91 2.87v22.87h-6.53Z" class="cls-18"/><path d="m376.93 312.04-2.8 1.69h-37.74l-2.79-1.69z"/><path d="m333.6 312.04 20.25-40.8h2.83l20.25 40.8z" class="cls-14"/><path d="m338.29 312.04 16.28-40.8M343.95 312.04l10.62-40.8M350.21 312.04l4.36-40.8M372.24 312.04l-16.28-40.8M366.58 312.04l-10.62-40.8M360.32 312.04l-4.36-40.8" class="cls-13"/><path d="M349.33 280.48h2.62M348.61 281.98h2.74M347.83 283.48h2.89M347.11 284.99h3.04M346.36 286.49h3.22M345.63 288h3.34M338.14 303.05h4.79M337.45 304.55h4.87M336.7 306.05h5.05M335.91 307.56h5.24M335.22 309.06h5.3M334.44 310.57h5.48M338.9 301.54h4.63M344.88 289.5h3.46M344.13 291.01h3.61M343.38 292.51h3.76M342.63 294.02h3.94M341.87 295.52h4.03M341.09 297.03h4.24M340.37 298.53h4.36M339.68 300.03h4.45M350.12 278.97h2.46M351.62 275.96h2.14M350.87 277.47h2.26M361.19 280.48h-2.67M361.91 281.98h-2.79M362.69 283.48h-2.94M363.42 284.99h-3.1M364.17 286.49h-3.28M364.89 288h-3.4M372.39 303.05h-4.85M373.08 304.55h-4.93M373.83 306.05h-5.12M374.61 307.56h-5.29M375.31 309.06h-5.36M376.09 310.57h-5.54M371.63 301.54h-4.69M365.64 289.5h-3.51M366.4 291.01h-3.67M367.15 292.51h-3.82M367.9 294.02h-4M368.65 295.52h-4.09M369.44 297.03h-4.31M370.16 298.53h-4.42M370.85 300.03h-4.51M360.41 278.97h-2.53M358.91 275.96h-2.2M359.66 277.47h-2.32" class="cls-15"/><path d="M355.26 274.74a6.28 6.28 0 1 0-6.27-6.27 6.28 6.28 0 0 0 6.27 6.27Z" class="cls-19"/><path d="M351.43 270.49a4.28 4.28 0 0 0 3.83 2.31 4.33 4.33 0 0 0 4.34-4.33 4.39 4.39 0 0 0-2.32-3.85 4.34 4.34 0 0 1-5.85 5.87"/><path d="M203.69 435.51h125.56v4.12H203.69z" style="stroke:#000;stroke-width:.24px;fill:#c61d23"/><path d="M256.5 366.81c0-18 10.17-26.06 10.17-26.06 3.37-1.81 4-4.34 4-4.34l4.82-1.68 3.73 1.92a7.32 7.32 0 0 0 2.29 5.66s6.32 7 8.66 12.94l-.36 2.29.36-2.29a2.14 2.14 0 0 0 1.15-.12l9.26-9.15a4 4 0 0 0 1.27 4.22c2.11 1.62 3.55 1.26 4 1.14l.3.48-11.97 13.48a5.16 5.16 0 0 1-4.22.3c-2.41-.84-4-1.44-4-1.44l-.12 2.11a10.26 10.26 0 0 1 6.32 1.38 17.5 17.5 0 0 0 2.41.3v12.46a26.8 26.8 0 0 1 9 5.11l2.65 25.28a19.1 19.1 0 0 0-3.12 13.36l5.77 11.44a3.13 3.13 0 0 1-2.53.84c-1.68-.12-6.26-1.69-9.87-.36 0 0-2.28 1.93-5.77-1.93 0 0-2.05 2.89-7.35 1.93 0 0-1.92 2.4-4.81-.6a2.75 2.75 0 0 1-2.89 1.68c-2.29-.12-2.65-1.81-4.82-1.2s-2.4 1-3.85.24-1.44 2.28-4.81 0-5.72-1.08-5.72-1.08Z" style="stroke:#000;stroke-width:.24px;fill:#007caa" transform="translate(-52.81 -3.67)"/><path d="M221.45 332.8a19.9 19.9 0 0 1 3 8.37" class="cls-13"/><path d="M233.6 319.2v2.13l-.54 1.14 2.17 4.61s.39 1.11-1.27.93l-1.17-.12-.45 4s-.3 5.06-8.37 0l1.21-8.55 2.1-4.63 4.15-.36Z" class="cls-12"/><path d="M233 322.69s.3-1.29-4.39-.66l.12.48 1.41.06a.85.85 0 0 0 .84 1 .79.79 0 0 0 .94-.81Z"/><path d="m230.35 329.67 2.17.37" class="cls-15"/><path d="M213.8 332.33a7.1 7.1 0 0 0 3.13.8c2.13-.11 4.28.25 6.36-.37a1.9 1.9 0 0 0 1.28-1.17c1.14-3.83.4-8.29 3.28-11.33a3.3 3.3 0 0 1 1.85-1 13.9 13.9 0 0 1 4.32.17c-.17 0 .42-1.07.23-1.68a4.78 4.78 0 0 0-2.56-3.14 17.3 17.3 0 0 0-10.65-.05 7.4 7.4 0 0 0-1.31.72 6.6 6.6 0 0 0-1.91 1.67 5.5 5.5 0 0 0-1.07 2.25c-.78 3.34-1.44 5.28-2.05 8.66 0 .22-.33 1.4-.39 1.57-.19.62-.87 2.11-.51 2.9Z" class="cls-10"/><path d="M214.34 332.5s1.69-4 1.81-4.69M215.91 332.98s1.8-5.65 1.92-6.86M217.41 333.04s.85-2.94 1-4M218.74 333.04s.9-4 1.26-7.1M220.66 333.04a35 35 0 0 0 1.57-6.56M222.47 332.8a27.6 27.6 0 0 0 1.08-3.85" class="cls-15"/><path d="M213.86 337.08s7.4 8.48 14.81 1.56" class="cls-13"/><path d="M213.19 337.8s10.47 2.65 13.12 17.39" class="cls-13"/><path d="M232.19 343.42v4.25l-1.81-2.17v4.57s.12 1.69-.48 1.57-2.05-1.57-3.25-5.54a33 33 0 0 1 1.2 8.55s.61 2.17-2.4-.36c0 0-.6.12-1.57-.72a5.7 5.7 0 0 1-2.05-3.25c-.11-1.2 0-2.77-1.44-2.77s-1 2.65.12 4.09 7.46 9.27 8.79 11.68c0 0-6.26 3.25-9 12.4s-2.53 18.89-5.29 31.53-1 13.36-1 13.36 1 9.75.36 11-.48.61-.48.61l1.45.24 1.08-.12 2.17-.48s-2.05-.61-2.29-4.1 1.68-7.94 2.29-9a16.3 16.3 0 0 0 1.2-5.54c0-1.44.72-12.52 2.77-20s1.44-17.82 4.21-22.51 4.93-5.42 6.14-5.42-4.21 1.69-4.21 13.24 0 22.39-2.65 29.37a198 198 0 0 0-6.5 20.71c-.48 2.64.72 2.77 1.32 2.52s1-2.52 1.69-2.4 2 2.28 2.17 3l.84-.23 1.68.6a38 38 0 0 0-2-4.46c-.73-1.08-2.53-1.92-1-3.49a22.5 22.5 0 0 1 8.07-4.21c2.41-.6 5.41-4 6.5-5.66l.12 4.7a29.3 29.3 0 0 0-5.3 6.38h.6s2.65-3.61 4.7-4.34c0 0 1.93-.24 2 .73s-3 4.57-3 4.57 2.64-1.93 7 .12c0 0-4.58 1.44-6.74 3.61s.72.24.72.24 7.94-3.85 13.84-1.8l-2.65-9.51-.24-3.61.84-3.49 1.33-2.53 1.44-2.17-2.83-24.91-2-1.81-3.85-2.23-3.37-1.14v-12.33l-.25-.24-1.74-.3-1.63-.72-2-.54-1.93-.19-1 .13.06-2.59 2.23.72 2.77 1 2-.06 1.33-.48 2.46-2.77 4-4.45 5.18-5.9v-.24h-.9l-1.81-.48-9.32 9.68a2.78 2.78 0 0 1-2.7 1s-4.52-1.5-5-3.55-.12-10.05-.12-10.05Z"/><path d="M219.76 355.97a115.5 115.5 0 0 1-1.32 15.77s2.64-5.9 6.26-7.58c0 0-3.86-4.09-4.94-8.19M210.85 347.79s-3 7-3.25 12.76-.84 31.66-1.8 33.82-.85 1.21-.85 1.21l.73-28.17.24-13.12.12-3.25-.84 1.92-.85 3.26-.48 3.61v71.25l1.08-.12 1.57.12 2 .6-1.28-1.35v-1.92s.72-1.33 1.81-3 3.37-6.26 3-15.29-1.21-43-1.21-43-.35-15.12.01-19.33"/><path d="M210.61 426.39s0 3.61 1 4.57-5.33.49-1-4.57"/><path d="M208.93 410.5s-.46 11.17-2.89 16.85c0-.02-1.69-7.7 2.89-16.85M230.35 402.68s2.17.36 1.2 1.92-2.76-1.27-1.2-1.92M249.25 383.66s-4-4.09-8.07-5.66l-3.12 2.17s8.66 3.16 11.19 3.49M241.06 365.6v3.85s-4.25 1.36-6.49 2.29c-1.45.61-2.78-.84-2.29-1.44a13.33 13.33 0 0 1 8.78-4.7M234.57 381.25s14.56 5.06 15.89 11-12.52 12.47-16.27 12.84c0 0-1.08-.37.85-1.57s7.34-5.18 7-5.66-3.49.24-5.54 1.33c0 0 1.69-1.69 1.32-2.17s-3.61.84-3.61.84 2.77-3.49 4.34-3.73 2.17-1.57-2.17-2.41c0 0 1-3 .12-3.61s-1.68.6-1.68.6.12-2.16-.36-2.4-1.33.48-1.69 0-1.33-2.89-.72-4.21 2.52-.85 2.52-.85M239.19 412.07s1.8-4.82 2.41-5.3.36.6.72 1 .48 2.65 1.08 3.13 2.77 3 4 1.57-.84-2.65-.48-4.1 2.77-2.64.84-4.57l-1.56-1v1a2.92 2.92 0 0 0-2.17 0c-1.08.48-1.68 2.17-2.65 2.17s-2.64 1.08-4 2.4-3.37 2.66-4.33 2.78-.72 2.28-1.33 2.88-4.09 2.77-3.73 3.61 2.78.36 5.78-1.8 5.42-3.77 5.42-3.77" class="cls-22"/><path d="m280.91 345.14-2.65-4.33a23.4 23.4 0 0 0-.36-9s-1.09-.72-1.33.48a24 24 0 0 1-.64 3.12s-3.21-4.68-5.61-5.17c0 0-1.45.24-1.09 1.09 0 0-1.8-.48-1.56 1.56 0 0-.85.61-.12 1.93l.72 1.08s-1.57.36-.48 1.69a38 38 0 0 0 5.9 6l3.85 5.05 2.4-1.2Z" class="cls-12"/><path d="m269.23 331.3 3.79 4.15M267.66 332.87l3.62 3.79M268.27 335.88l2.16 2.52M274.4 337.98l1.54-2.49" class="cls-13"/><path d="M333.78 348.27s-.42 4.21-6.44 4.21c0 0-.72 5.24 5.53 13.3 0 0 2.91 3 4.82 3.37 3.37.61 7.22-5.78 9.39-5.29 0 0 .12 5.65-.49 7.7l-2 1.2s.24 8.43-1.45 11.2l-7.46 3.61-3.73 19.62s6.26 11.56 5.78 18.3l-1.97 2.51-1.32 1.93s-5.06 3.73-7.22 4.09c0 0-3 3.13.84 4.22 0 0 6.5-.85 10.35-.85s6.62 1.08 8.91 1.08 1.8-6.49 1.8-6.49 7.95.84 11.68-3.13c0 0 2.29 3.25 5.06 3.85 0 0-2.65 6.11 4.09 6s10.77 0 12.1-1.06v-2.41s-4 .12-5.36-2.16a9.8 9.8 0 0 0 5.36-2.29V364.7s-4.28-.84-4.52-2.77.6-8.3.6-8.3-.12-5.78-4.57-9.39-2.89-2.29-2.89-2.29l-4-5.54-7.34-2.29-3.85 1.33-.49 4a17.24 17.24 0 0 0-7.7 5.42c-3.25 4.09-3.14 7-4.57 8.9-1.87 2.47-4 1.09-4 1.09Z" style="stroke:#000;stroke-width:.24px" transform="translate(-52.81 -3.67)"/><path d="m277.9 349.24-2.53.48s3.13 8.42 5.78 11.55l4.33.24-1.44 1-.37.61s3.5.72 4.46-1.81a7.23 7.23 0 0 0-.48-5.78c-.48-1-1.21-.48-1.81-.6s-1.44-1.2-1.44-1.2l-2.21.6-2-2.93-1 2.41-.48-.85ZM293.3 351.04s-4.45 1.32-3.13 4.81c0 0 1 1.21 2.41-.84a4.48 4.48 0 0 0 .72-3.97ZM291.86 347.91l2.41-5.42 1.68.24s0-3.25 4-4.93c0 0 2 1.81 1 3.61s-4.88 6.86-9.09 6.5ZM302.93 335.63l4.1.24.24-1.32-1.08-1.69s-3 .73-3.26 2.77ZM308.59 335.75l6.02.49-4.94-2.05zM300.29 349.96l1 .24a63.7 63.7 0 0 1 1.33 11.91l-1.57.49s-.28-10.6-.76-12.64ZM296.8 348.27s-.24 2.17-.61 4.34-.72 3.85.24 6.37.25 6.86.25 6.86l2.4-2s-.72-4.82-.72-7-.12-7.51-1.56-8.57ZM305.94 366.33s-.84-2.65-1.92-2.17-9.39 4.81-9.39 4.81-2.53 1.33-2.17 3 1.45 2.29 2.89 1.69 10.11-4.7 10.11-4.7a4.66 4.66 0 0 0 .48-2.63ZM303.05 345.02a59.3 59.3 0 0 0 4.58 23.95 4 4 0 0 0 2.29 0c1.32-.36.72-2.28.72-2.28a92.6 92.6 0 0 1-6-17.7l.84-.36a84.8 84.8 0 0 0 6 16.85 94 94 0 0 0 3.61 11.44c1.69 3.73 7.83 9 7.83 9l1.92 4.21.72-.24-1.08-7s2.9 1.95 2.17 8.42c-1 8.55-.24 10-.24 10s1.08-.48 1.2-3 1-10-.24-14.08-6-11.07-6-11.07-10.11-16.49-9.51-22l.48-.48s3.25 8.54 4.94 11.07 3.25 0 3.25 0a39 39 0 0 0-1.57-5.66 12.7 12.7 0 0 1-.6-4.93l3.13 9.87s.12 4 0 5.42 2.29 3.85 2.41 5.78 1.2 4.57 1.81 4.57.84-3.61-.73-8.19-1.44-7.34-2.41-9.87-.48-6.62-.48-6.62l-.6-8.3a3.36 3.36 0 0 0-3.37-3.13c-3.13 0-3.85 1.44-5.54 1.56a70 70 0 0 1-7.1-.48s-1.56.84-1.68 1.33.48.72.48.72l1.68-.72s2.41 1.32 1.69 2.64-1.45 1.21-2.29.73-2.31-1.45-2.31-1.45Z" class="cls-24"/><path d="M296.19 376.44a56 56 0 0 0 7-.24c2.77-.36 6.62-1.21 9.27-.24 0 0-3.13.6-5.05.72s-6.16 4.09-11.22-.24Z" class="cls-24"/><path d="M295.59 378.24a13.16 13.16 0 0 0 7 1.69c3.85-.24 9.63-1 9.63-1s-5.78 3-8.67 3.14-6.63-.94-7.96-3.83Z" class="cls-24"/><path d="M296.31 380.65s9.15 4.82 17.34 5.3l-.84.72s-9.88.12-16.86-5.3Z" class="cls-24"/><path d="M292.46 415.33a112.1 112.1 0 0 0 18.66-27.57l3.73-.84v-1.81s-5.54-.36-7.22-1.32c0 0 1-1.68 3.85-1.93a24 24 0 0 0 5.06-1s.12 1.33 2 2.89 4.7 4.09 4.94 7l-3.25-2.05.48 2.17s3.73 2.65 4.09 5.42l-3.85-2.89s2.65 9.87 2.65 16.73-3.61 14.81-3.61 14.81.84 3 2.52 3 2.53-3.24 3.74-2.4a1.9 1.9 0 0 1 .84 2l-1.44 1.09-2.29.48a10.26 10.26 0 0 1-7.47-1.69s-5.41.36-6.62-2.64l.24-2.65-.72-23.11 1.09-4 2.52-6.14-.48-.12a180 180 0 0 1-10.35 17.34 89 89 0 0 1-9.22 10.91c.28 1.81 1.12 3.54 1 5a8.5 8.5 0 0 1-.6 3c3.49 1 10.23-18.66 10.23-18.66l3-1.2-6.14 22s-.12.84-4.57-.24a77.6 77.6 0 0 0-12.08-1.24l2.28-2.53 2.77-.36-2.77-1.33s.12-1.56-1.32-8.54a31.45 31.45 0 0 0-5.06-11.68l3.25-16.37 2.17-1.2 5.9-2.41 2.16.12.49-1.08 5.17 3.73s-1.81 1.08-3.85 4.57c-.06.1-.12.2-.17.3a4.15 4.15 0 0 0 4.5 2.59 40.5 40.5 0 0 0 8.79-1.56l-.48 1.2-5.18 1.81 1.32 1.32.85 1.81-.24 1.44s-4.14-5.44-10.43-5.48c-.22 2.57.51 5.29.68 8 .25 3.98-.95 12.41-1.56 15.31ZM313.53 429.16s-.67 3.13.3 4.09c1.32 1.33 2.34 1.31 7.28 1.23 5.69-.09 7.34-.75 7.34-.75v-1.4l-1.69-.36-3.84-1.75ZM295.71 428.2s-9-1.75-13.18-1.75c0 0-5.35 4-7.64 4.33 0 0-1.69 1.57-.6 2.53.7.63 1.44.72 5 .24s8.37-.66 11 .18 3.79.61 4.63 0 .79-5.53.79-5.53Z" class="cls-24"/><path d="m310.88 402.56.48 20.7 3.49 1.2-2.41-21.42z"/><path d="M291.74 369.09s-6.86-4.69-11.08-3.73c0 0-1.56.61-1.44 1.33a1.88 1.88 0 0 0-1.5 1.8 1.65 1.65 0 0 0-.66 1.93s-1.15.78-.79 1.74l.36 1.09 4.82 1.93 10.65.29Z" class="cls-12"/><path d="M279.19 366.69a19.6 19.6 0 0 1 4.57.54M277.72 368.49a34 34 0 0 1 5.05.36M277.06 370.42s3.49.42 4.75.72" class="cls-13"/><path d="M268.75 402.33s-.84 8.06-3.37 13a12.2 12.2 0 0 0 4.94-3.61 7.23 7.23 0 0 1 2.28 3.24 12.77 12.77 0 0 0-3.85-12.63ZM244.92 420.61a15.6 15.6 0 0 0 5.65.36s-6.25-4.57-9.27-8.66c0 0-2.88 8.54 3.86 12.4.03 0-.84-2.89-.24-4.1Z" class="cls-16"/><path d="m253.35 367.25 7.09 50.83s1 4.82 3.62 4.34 5.17-4.7 6.26-14.33l.84.85s.94 7.12-.25 11.55c-1 3.61-4.81 6.26-5.53 7.1l-4.34 5.3a2.4 2.4 0 0 1-1.92 0c-.84-.48-14-5.54-16.13-14.56 0 0 5.41 4.49 9.87 5.65 2.77.73 1.81-4.93 1.81-4.93l-5.6-51.72a8.4 8.4 0 0 1 2-.69 20 20 0 0 1 2.28.61Z" class="cls-10"/><path d="M259 422.42s-1.32 5.65 1.68 8.66l3.14-3.61s-4.46-2.14-4.82-5.05"/><path d="M236.97 371.86s14.93-3 27.33-2.28a2.46 2.46 0 0 1 2.64 2.4 2.43 2.43 0 0 1-2 2.77s-20.1 1.69-27.33 1.81a3.14 3.14 0 0 1-1.56-2.05 3 3 0 0 1 .92-2.65Z" class="cls-10"/><path d="m241.3 371.26.42 5.06M243.71 370.9l.61 5.3M258.88 369.58l.66 5.53M261.29 369.64l.72 5.29" class="cls-13"/><circle cx="251.84" cy="372.83" r="1.96" class="cls-16"/><path d="m279.7 377.04-7.46 46.7a41 41 0 0 0 .24 10.23s3.37-6 4.21-9.51l7.35-46.82Z" class="cls-10"/><path d="M272.72 370.78a13.1 13.1 0 0 0-1.56 6.62l8.54.12a3.55 3.55 0 0 0 1.81 1.21 3.7 3.7 0 0 0 2.28-.49l7.23 3s1.93-4.09 1.44-6.62l-7.82.36a3.36 3.36 0 0 0-1.81-1.44 4.7 4.7 0 0 0-2.53.48Z" class="cls-10"/><path d="m295.59 320.47.12 2 .72 1-1.24 4.46s0 1 1.2.72a11.3 11.3 0 0 0 1.81-.48l.6 3.73s.24 3.25 5.9.72l4.45-2.52-4.69-12.28-5.3-1Z" class="cls-12"/><path d="M302.19 321.55s-1.68-1.69-4.93.36a.7.7 0 0 0 .66.54s.06 1.39 1.14 1.15c0 0 1-.67.6-1.15l-.48-.42a6.4 6.4 0 0 1 3.01-.48"/><path d="M298.66 329.79a3.73 3.73 0 0 0 2.11-.78" class="cls-13"/><path d="M295.59 321.19a3.55 3.55 0 0 1-1.81-4c.61-2.82 3.86-5.95 9.76-5.41s7.7 3 8.36 4.15.72 5.06 2.23 7.1 4.27 4.34 4 6.5-8.24 3.92-9.21 4-1.62.18-2-1-.73-6.26-1-7.7a13.8 13.8 0 0 0-3.07-5.06c-.78-.6-3.18-.05-4.21.24s-3.05 1.18-3.05 1.18Z" class="cls-10"/><path d="M295.19 318.48a7.7 7.7 0 0 0 1.15 2.29M296.49 318.84a7.4 7.4 0 0 0 .91 1.51M297.85 318.75l.72 1.33M311.12 318.54a9.8 9.8 0 0 0 2.29 6M310.37 321.25a8.36 8.36 0 0 0 2 4M309.9 323.38a9.1 9.1 0 0 0 1.58 2.5M315.33 326.67a7.16 7.16 0 0 1 1.66 4.06M314.31 327.33a7.4 7.4 0 0 1 1.57 4.06M312.96 327.96a6.85 6.85 0 0 1 1.62 4M311.57 328.56a6.47 6.47 0 0 1 1.6 3.91M307.09 325.88s.54 4.42.72 5.78a3.63 3.63 0 0 0 .66 1.9M308.28 327.03c.18 1.42.44 3.51.55 4.39a3.23 3.23 0 0 0 .75 1.93M309.53 327.76c.17 1.17.36 2.47.45 3.12a3.94 3.94 0 0 0 1 2.2" class="cls-15"/><path d="M237.56 268.86a24 24 0 0 0 .18-2.8 22.55 22.55 0 0 0-32.67-20.16 22.6 22.6 0 0 1 6.5-.95 22 22 0 0 1 22.35 22c0 .63 0 1.25-.06 1.87a1.85 1.85 0 0 0 3.7 0Z" class="cls-17"/></svg>