<svg enable-background="new 0 0 660 660" viewBox="0 0 660 660" xmlns="http://www.w3.org/2000/svg"><path d="M 174.148 610.834 L 14.125 333.68 L 174.148 56.519 L 494.18 56.519 L 654.203 333.68 L 494.18 610.834 Z" fill="#005cab"/><path d="M 194.82 575.019 L 55.478 333.68 L 194.82 92.333 L 473.499 92.333 L 612.844 333.68 L 473.499 575.019 Z" fill="none" stroke="#fff" stroke-width="11.278"/><path d="M 218.189 534.546 L 102.213 333.68 L 218.189 132.799 L 450.139 132.799 L 566.115 333.68 L 450.139 534.546 Z" fill="none" stroke="#fff" stroke-width="4.5112"/><path d="M 194.843 448.594 V 324.198 H 226 v 124.397 H 194.843 z" fill="#fff" stroke="#fff" stroke-width="2.5062"/><path d="M 296.613 380.917 c -2.376 .784 -4.97 1.177 -7.768 1.177 c -5.478 0 -9.78 -1.671 -12.912 -5.028 c -3.125 -3.341 -4.687 -7.876 -4.687 -13.602 c 0 -5.391 1.612 -9.678 4.839 -12.868 c 3.226 -3.184 7.543 -4.774 12.948 -4.774 c 5.152 0 9.207 1.758 12.171 5.26 c 2.964 3.518 4.455 8.328 4.455 14.431 c 0 1.823 -.152 3.663 -.444 5.508 c -.292 1.86 -.763 3.851 -1.418 6.001 C 301.386 378.838 298.989 380.146 296.613 380.917 z M 282.581 417.096 c -5.864 5.545 -13.131 10.718 -21.798 15.542 l 16.233 18.282 c 18.137 -8.603 32.516 -20.425 43.153 -35.46 c 10.631 -15.027 15.95 -30.924 15.95 -47.681 c 0 -13.95 -4.317 -25.054 -12.934 -33.301 c -8.618 -8.247 -20.207 -12.374 -34.763 -12.374 c -13.907 0 -25.285 3.96 -34.135 11.888 c -8.851 7.927 -13.269 18.122 -13.269 30.576 c 0 11.095 3.734 20.083 11.212 26.964 c 7.478 6.881 17.2 10.324 29.152 10.324 c 2.805 0 5.405 -.217 7.788 -.638 c 2.385 -.43 4.615 -1.068 6.708 -1.919 C 292.878 405.622 288.445 411.551 282.581 417.096 z" fill="#fff" stroke="#fff" stroke-width="2.5062"/><path d="M 353.231 448.594 V 324.198 h 31.156 v 124.397 H 353.231 z" fill="#fff" stroke="#fff" stroke-width="2.5062"/><path d="M 402.655 442.767 v -24.168 c 5.871 3.496 11.226 6.032 16.059 7.615 c 4.824 1.585 9.656 2.384 14.487 2.384 c 7.637 0 13.444 -1.403 17.425 -4.199 c 3.982 -2.797 5.972 -6.867 5.972 -12.207 c 0 -5.072 -1.961 -9.114 -5.885 -12.107 c -3.923 -2.994 -9.46 -4.649 -16.596 -4.969 v -22.321 c 6.474 -.204 11.605 -1.729 15.397 -4.607 c 3.794 -2.863 5.69 -6.684 5.69 -11.451 c 0 -4.114 -1.862 -7.426 -5.588 -9.942 c -3.727 -2.514 -8.763 -3.763 -15.105 -3.763 c -4.449 0 -8.844 .566 -13.189 1.713 c -4.353 1.149 -8.945 2.9 -13.784 5.262 v -21.42 c 4.645 -2.223 9.773 -3.865 15.389 -4.912 c 5.617 -1.047 11.961 -1.57 19.016 -1.57 c 13.334 0 23.956 2.863 31.863 8.582 c 7.906 5.724 11.858 13.392 11.858 22.997 c 0 6.213 -1.657 11.626 -4.977 16.232 c -3.314 4.614 -8.458 8.618 -15.419 12.018 c 8.037 2.805 14.067 6.911 18.086 12.324 c 4.018 5.414 6.031 12.129 6.031 20.143 c 0 11.088 -4.397 19.909 -13.181 26.456 c -8.785 6.555 -20.724 9.832 -35.816 9.832 c -7.84 0 -14.932 -.67 -21.267 -2.006 C 412.784 447.345 407.292 445.376 402.655 442.767 z" fill="#fff" stroke="#fff" stroke-width="2.5062"/><path d="M 340.943 299.784 c 16.443 0 28.753 -2.979 36.941 -8.931 c 8.189 -5.958 12.288 -14.917 12.288 -26.892 c 0 -8.218 -2.136 -15.02 -6.409 -20.411 c -4.273 -5.391 -10.762 -9.453 -19.482 -12.192 c 5.406 -2.428 9.525 -5.711 12.353 -9.854 c 2.819 -4.142 4.237 -8.966 4.237 -14.473 c 0 -10.536 -4.172 -18.486 -12.514 -23.841 c -8.341 -5.355 -20.71 -8.037 -37.094 -8.037 H 285.3 v 124.63 H 340.943 z M 316.69 224.214 v -26.971 h 8.64 c 5.564 0 9.75 1.162 12.533 3.495 c 2.784 2.325 4.178 5.878 4.178 10.651 c 0 4.303 -1.379 7.523 -4.134 9.643 c -2.754 2.123 -6.954 3.182 -12.577 3.182 H 316.69 z M 316.69 246.536 h 10.419 c 7.775 0 13.485 1.288 17.134 3.852 c 3.647 2.572 5.471 6.541 5.471 11.916 c 0 5.253 -1.722 9.018 -5.166 11.286 c -3.438 2.273 -9.193 3.408 -17.265 3.408 H 316.69 V 246.536 z" fill="#fff" stroke="#fff" stroke-width="2.5062"/></svg>