<svg xmlns="http://www.w3.org/2000/svg" xml:space="preserve" viewBox="0 0 660 660"><path d="M585.239 177.968c9.155-7.099 31.404-24.347 31.404-24.347l-9.076-11.637C541.456 57.255 441.984 8.658 334.659 8.658c-107.648 0-207.303 48.835-273.416 133.984l-9.029 11.629 31.41 24.351C47.233 230.315 28.05 290.847 28.05 354.634c0 169.061 137.544 306.601 306.609 306.601 169.063 0 306.606-137.54 306.606-306.601 0-64.082-19.34-124.838-56.026-176.666"/><path d="m564.859 175.155 31.111-24.12C535.346 73.339 440.841 23.371 334.659 23.371c-106.466 0-201.192 50.238-261.796 128.293l31.111 24.121c-38.36 49.406-61.213 111.455-61.213 178.85 0 161.204 130.691 291.888 291.898 291.888 161.203 0 291.893-130.684 291.893-291.888 0-67.679-23.04-129.972-61.693-179.48" style="fill:#fff"/><ellipse cx="334.659" cy="354.63" rx="175.783" ry="175.784" transform="rotate(-80.671 334.661 354.63)"/><path d="M501.596 354.631c0 92.194-74.743 166.931-166.937 166.931-92.192 0-166.934-74.737-166.934-166.931s74.741-166.934 166.934-166.934c92.194 0 166.937 74.739 166.937 166.934" style="fill:#fff"/><ellipse cx="334.659" cy="354.63" rx="161.758" ry="161.756" transform="rotate(-5.503 334.578 354.553)"/><path d="M176.363 354.631c0-87.285 71.013-158.297 158.296-158.297 87.285 0 158.296 71.012 158.296 158.297 0 87.283-71.011 158.294-158.296 158.294-87.283-.001-158.296-71.011-158.296-158.294" style="fill:#fff"/><path d="M485.806 354.631c0 83.475-67.67 151.144-151.148 151.144-83.476 0-151.15-67.669-151.15-151.144s67.674-151.147 151.15-151.147c83.478 0 151.148 67.671 151.148 151.147"/><path d="M369.878 482.444c-11.573-10.607-15.428-16.393-18.32-25.07s0-111.843 0-144.624v-51.101c0-9.641 3.057-15.285 6.747-21.015 3.857-5.983 7.715-16.588 1.93-23.908a21.4 21.4 0 0 0-2.259-2.47 143 143 0 0 0-23.317-1.935 142.8 142.8 0 0 0-29.672 3.121c-.358.397-.718.821-1.082 1.284-5.785 7.32-1.927 17.924 1.928 23.908 3.694 5.73 6.749 11.374 6.749 21.015v51.101c0 32.782 2.892 135.949 0 144.624-2.893 8.677-6.749 14.464-18.32 25.07-3.461 3.175-3.647 5.825-2.23 7.988 13.459 4.221 27.777 6.502 42.628 6.502 12.266 0 24.167-1.553 35.52-4.471 3.116-2.452 4.333-5.769-.302-10.019M233.001 311.746h7.715c14.353 0 16.866 10.585 16.866 15.069 0 2.333-.542 15.43-17.404 15.43h-7.177zm-28.346 104.779h45.033c7.352 0 38.755-2.875 38.755-34.631 0-19.734-10.951-27.45-25.127-30.319v-.362c7.184-.895 22.612-8.788 22.612-28.706 0-13.454-8.25-31.214-34.626-31.214h-46.647zm28.346-53.827h11.304c9.687 0 15.788 5.56 15.788 16.507 0 16.147-14.887 16.147-18.834 16.147h-8.258zM388.936 291.293h69.433v21.89h-41.086v29.062h39.472v21.885h-39.472v52.396h-28.347z" style="fill:#fff"/><path d="M162.121 137.081q4.18-3.409 7.622-4.698 4.195-1.238 7.533 2.854 3.015 3.695 1.838 7.074c-.791 2.256-2.445 4.41-4.972 6.473l-14.141 11.541-10.54-12.909zm20.023 21.127c2.52-2.012 4.734-3.264 6.63-3.751q5.106-1.317 8.845 3.261 4.417 5.418 2.151 10.451-1.263 2.754-5.051 5.848l-14.135 11.536-12.769-15.649zm-24.379-34.236L129.667 146.9l47.454 58.145 26.212-21.392q4.435-3.618 7.575-7.495c2.093-2.589 3.491-5.347 4.188-8.285.64-2.582.765-5.229.384-7.944-.51-4.145-2.167-7.942-4.982-11.39q-4.09-5.011-9.22-6.683-5.124-1.665-10.889.336c1.126-2.579 1.694-4.884 1.704-6.903.024-3.61-1.408-7.188-4.306-10.734q-4.21-5.164-9.905-6.691c-6.236-1.611-12.943.428-20.117 6.108M258.813 140.476q-8.77 3.183-16.341-1.403-7.572-4.582-11.906-16.531-4.329-11.943-1.455-20.315c1.917-5.583 5.794-9.432 11.643-11.553q8.768-3.18 16.276 1.453 7.51 4.638 11.827 16.532 4.329 11.948 1.527 20.292-2.803 8.348-11.571 11.525m24.673-37.119c-4.691-12.932-11.762-21.348-21.222-25.253q-10.969-5.34-26.076.136-15.106 5.478-20.102 16.609-7.18 13.603-.148 32.998 6.896 19.015 21.266 25.233 10.966 5.342 26.075-.134 15.105-5.479 20.102-16.61 6.996-13.97.105-32.979M334.441 76.263q4.843-.068 7.282 1.232c2.897 1.53 4.379 4.589 4.441 9.169q.09 6.358-4.335 8.572-2.503 1.269-7.538 1.337l-16.902.242-.289-20.309zm3.032-12.957-35.891.505 1.056 75.043 15.344-.218-.417-29.463 15.366-.217c4.38-.061 7.375.695 8.996 2.269q2.421 2.364 2.621 9.549l.198 6.98q.097 3.319.741 6.465.32 1.528 1.055 4.014l17.235-.243-.025-1.885c-1.53-.897-2.521-2.313-2.962-4.241-.289-1.218-.462-3.547-.509-6.977l-.075-5.051q-.108-7.896-2.315-11.702-2.204-3.801-7.403-5.812c4.107-1.481 7.035-3.959 8.775-7.43 1.743-3.467 2.592-6.984 2.537-10.546q-.055-4.43-1.497-7.872a23.4 23.4 0 0 0-3.862-6.259 18.5 18.5 0 0 0-7.099-5.141q-4.17-1.723-11.869-1.768M394.427 67.953l15.139 4.841-14.037 43.895q-2.358 7.364-1.694 11.313.797 6.874 9.918 9.793c6.049 1.933 10.615 1.188 13.709-2.236q2.831-2.834 5.186-10.196l14.038-43.896 15.138 4.842-14.043 43.904q-3.639 11.391-9.208 16.608-10.304 9.52-28.857 3.589-18.554-5.935-21.468-19.686-1.505-7.478 2.14-18.865zM500.568 144.888q-3.423 4.783-7.414 5.259-3.99.477-8.348-2.636l-11.462-8.195 12.9-18.046 11.467 8.194q4.35 3.114 5.312 6.878c.638 2.511-.177 5.359-2.455 8.546m12.687 9.012c4.712-6.595 6.399-12.743 5.06-18.453-1.337-5.708-5.026-10.719-11.057-15.03l-26.162-18.701-43.642 61.055 12.66 9.049 15.72-21.999 12.684 9.069c6.621 4.731 12.775 6.882 18.472 6.453q8.547-.643 16.265-11.443M107.466 236.733l5.245-9.584 45.93 25.137-5.246 9.585zM128.044 304.486q-1.742 7.23-6.491 8.661-4.747 1.423-12.518-.446-5.631-1.357-9.317-3.957-6.717-4.754-4.905-12.262l2.357-9.784 33.232 8.006zm8.398 3.941 5.274-21.904-50.9-12.26-5.276 21.903q-2.776 11.521 5.392 19.328c4.044 3.845 9.447 6.583 16.219 8.215q4.001.963 8.656 1.063 4.652.098 9.092-1.643 5.494-2.181 8.542-7.101 1.794-2.892 3.001-7.601M123.214 376.975q.314 3.353-.448 5.119-1.35 3.14-6.086 3.582-4.385.41-6.158-2.538-1.013-1.669-1.337-5.157l-1.095-11.711 14-1.308zm9.257 1.384-2.327-24.904-52.132 4.868.997 10.664 20.466-1.913.99 10.615q.424 4.54-1.086 6.347-1.51 1.809-6.495 2.34l-4.845.528a25.3 25.3 0 0 0-4.451.886q-1.043.312-2.73.979l1.12 11.992 1.308-.123q.81-1.644 2.79-2.256 1.248-.402 4.825-.737l3.505-.327q5.488-.513 8.016-2.264 2.529-1.755 3.64-5.496 1.885 4.148 5.647 5.676t7.474 1.181q3.073-.287 5.388-1.475a16.4 16.4 0 0 0 4.138-3.03 12.9 12.9 0 0 0 3.186-5.211c.645-1.999.837-4.776.576-8.34M122.092 457.72l-5.809-11.338 24.692-3.523 2.105 4.111zm-31.603-18.51 5.18 10.111 11.666-1.663 7.151 13.959-9.917 5.081 17.413 33.985 8.087-4.144-12.53-24.453 12.132-6.216 11.047 21.567 8.088-4.143-11.047-21.565 10.011-5.129 12.282 23.971 8.086-4.142-22.55-44.02zM212.826 519.021l-6.294 6.854-11.552-10.61-29.12 31.713-8.047-7.388 29.118-31.713-11.553-10.609 6.29-6.855zM223.542 567.268q-1.073 3.49-.491 5.734 1.075 4.093 7.023 6.868c2.375 1.108 4.421 1.748 6.148 1.921 3.269.32 5.538-.868 6.797-3.565q1.102-2.364-.356-4.622-1.473-2.224-5.51-5.287l-4.583-3.517q-6.752-5.194-8.68-8.485-3.279-5.533-.018-12.52c1.984-4.249 5.189-7.052 9.626-8.406q6.647-2.036 15.713 2.197c5.051 2.357 8.738 5.69 11.07 10.001 2.327 4.311 2.405 9.02.229 14.135l-9.508-4.439q1.73-4.39-.973-7.841-1.807-2.29-5.314-3.926-3.904-1.823-6.952-1.367-3.05.456-4.339 3.224-1.185 2.54.524 4.864 1.086 1.523 5.349 4.892l7.363 5.834q4.839 3.831 6.544 7.257 2.648 5.318-.316 11.67-3.04 6.514-10.06 8.478-7.02 1.962-16.164-2.304-9.342-4.359-12.712-11.092c-2.253-4.492-2.225-9.204.081-14.144zM291.394 554.203l37.005 4.833-1.177 9.012-26.174-3.421-1.583 12.121 22.957 2.998-1.177 9.012-22.958-2.999-2.842 21.773-10.836-1.413zM382.608 597.957c-4.244.826-7.94-.08-11.08-2.718-3.137-2.636-5.267-6.844-6.391-12.616q-1.682-8.662 1.198-14.095t9.256-6.672q6.368-1.24 11.03 2.746t6.337 12.609q1.683 8.663-1.144 14.087-2.832 5.421-9.206 6.659m21.075-22.829q-2.743-14.116-11.897-19.679-6.988-4.862-18.007-2.723-11.02 2.148-15.676 9.271-6.433 8.594-3.691 22.71c1.796 9.225 5.771 15.781 11.934 19.67 4.658 3.242 10.658 4.147 18.008 2.718q11.015-2.142 15.675-9.268 6.344-8.862 3.654-22.699M444.644 536.577q2.902-1.716 4.821-1.78 3.415-.12 5.838 3.972 2.244 3.792.331 6.654-1.072 1.627-4.092 3.41l-10.123 5.989-7.16-12.104zm-2.7-8.961-21.527 12.735 26.655 45.064 9.218-5.454-10.463-17.69 9.174-5.428q3.928-2.32 6.205-1.726t4.888 4.872l2.546 4.157a25 25 0 0 0 2.7 3.648q.73.81 2.053 2.051l10.364-6.132-.668-1.132q-1.833-.029-3.234-1.558c-.598-.637-1.503-1.987-2.724-4.048l-1.792-3.028q-2.81-4.745-5.468-6.285-2.668-1.537-6.525-.946 2.947-3.474 2.721-7.53-.224-4.053-2.121-7.263-1.572-2.659-3.634-4.239a16.2 16.2 0 0 0-4.504-2.451 12.9 12.9 0 0 0-6.076-.655q-3.12.4-7.788 3.038M508.092 479.475l-17.74 20.412 8.329 7.237 16.252-18.696 6.858 5.96-16.251 18.697 10.289 8.941 18.592-21.392 7.02 6.104-25.617 29.474-39.517-34.346 24.767-28.496zM514.927 451.422l4.362-10.575 41.536-5.251-33.645-13.875 3.876-9.402 48.401 19.962-4.157 10.084-42.392 5.474 34.3 14.143-3.873 9.402zM589.028 382.646l-1.415 10.835-51.916-6.793 1.418-10.834zM539.125 348.546l-1.479-11.341 33.409-25.231-36.089 4.714-1.319-10.082 51.917-6.782 1.414 10.816-34.038 25.847 36.787-4.806 1.318 10.081zM524.711 243.419q-4.196 3.554-3.879 8.835.192 2.943 1.703 5.892 2.895 5.644 8.987 7.104 6.091 1.458 14.592-2.897 8.56-4.388 10.1-10.14c1.029-3.836.686-7.419-1.027-10.761q-2.517-4.911-6.891-6.631-4.375-1.717-9.226-.152l5.499 10.729-7.799 3.997-9.918-19.349 24.931-12.781 3.306 6.449-5.33 3.949q4.73 1.132 7.227 2.688 4.323 2.656 7.213 8.288 4.752 9.27 1.383 18.466-3.27 9.465-14.433 15.188-11.282 5.785-21.286 3.054c-6.665-1.822-11.751-6.145-15.25-12.971q-4.551-8.875-2.822-16.563 1.726-7.69 8.034-11.922z"/><path d="M460.296 409.844c0 6.658-5.396 12.055-12.054 12.055-6.656 0-12.052-5.397-12.052-12.055 0-6.656 5.396-12.051 12.052-12.051 6.658-.001 12.054 5.395 12.054 12.051" style="fill:#fff"/></svg>