<svg xmlns="http://www.w3.org/2000/svg" width="1000" height="1000" viewBox="0 0 1000 1000"><path fill="#212629" d="M109.295 0C49.002 0 0 49.047 0 109.309v674.495c0 28.505 10.87 56.444 30.69 78.683 19.456 21.85 45.505 35.838 73.367 39.393l-.516-.077 264.29 44.302.878.1c22.107 2.546 35.046 3.763 48.97 3.795h.063c13.92-.032 26.88-1.249 48.939-3.795.031 0 .936-.1.936-.1l264.25-44.302-.49.077c27.845-3.555 53.898-17.543 73.34-39.393 19.802-22.24 30.704-50.178 30.704-78.683V109.31C835.42 49.047 786.387 0 726.126 0z"/><path fill="#e8c73f" d="M109.295 12.644c-53.286 0-96.62 43.365-96.62 96.665v674.495c0 25.392 9.727 50.341 27.46 70.246 17.462 19.633 40.7 32.119 65.487 35.286.15.031 263.964 44.238 263.964 44.238l.566.095c21.583 2.48 34.218 3.66 47.563 3.714h.032c13.309-.059 25.917-1.235 47.5-3.714l.579-.095s263.828-44.207 263.946-44.238c24.831-3.167 48.056-15.653 65.55-35.286 17.715-19.905 27.46-44.854 27.46-70.246V109.31c0-53.3-43.348-96.665-96.652-96.665z"/><path fill="#212629" d="M35.539 606.62V783.8c0 40.895 33.205 78.248 73.833 82.948l263.413 44.17c20.307 2.34 32.612 3.557 44.944 3.557 12.29 0 24.577-1.222 44.898-3.556l263.417-44.17c40.615-4.7 73.874-42.054 73.874-82.95V606.62z"/><path fill="#fff" d="M278.133 713.825H130.937v52.278H78.334V699.9c0-16.335 3.33-29.5 9.27-36.131 10.74-11.83 30.734-19.593 58.94-22.701 13.712-1.502 21.506-1.828 46.387-1.828h85.202v22.642h-78.606c-21.117 0-40.008 1.307-48.518 3.212-13.313 3.262-20.067 9.704-20.067 19.222v6.844h147.195v22.664M508.53 766.098h-86.033c-42.62 0-62.972-3.022-82.284-12.513-21.122-10.454-32.621-27.998-32.621-50.671 0-28.518 19.651-49.64 54.507-58 14.042-3.393 38.552-5.682 62.6-5.682h83.827v22.642h-77.48c-24.437 0-41.89 3.393-52.602 10.251-8.206 5.116-12.644 15.218-12.644 28.324 0 18.687 7.78 31.82 22.596 37.326 9.659 3.809 24.474 5.686 44.451 5.686h75.679v22.637M541.866 661.015v105.083h51.486v-98.424c16.1 13.73 88.038 87.635 88.038 87.635 7.573 6.532 14.105 12.214 36.303 12.214 29.138 0 39.434-11.77 39.434-21.81v-106.48H705.67v98.211c-16.082-13.838-86.147-86.459-86.147-86.459-9.287-8.03-16.1-12.97-38.217-12.97-34.304 0-39.439 14.395-39.439 23"/><path fill="#943454" d="M396.317 301.883c8.894-56.127 74.023-87.373 105.13-112.48-1.209 4.863-4.344 12.793-6.529 16.96-20.886 39.99-82.27 50.73-98.813 96.162z"/><path fill="#943454" d="M367.487 447.328c8.555-6.962 15.992-17.602 18.697-21.9 2.75-4.252 9.581-6.994 17.616-8.998 22.289-5.564 27.106-8.106 27.106-8.106-15.751 2.646-33.756-1.968-46.658-5.94-9.35-2.782-5.904-11.065-2.438-14.386 4.686-4.614 11.083-10.237 19.968-17.435 29.006-23.564 23.37-43.021 23.37-43.021-.285 14.426-32.12 34.123-48.183 47.577-9.79 8.206-12.02 16.213-12.292 21.212-19.89-5.619-33.707-7.288-50.427-6.541-9.608.475-17.271-3.068-22.18-6.311 13.535-11.3 24.664-23.117 37.1-38.679 12.468-15.62 11.368-29.44 9.355-44.42-2.004-14.923 8.274-26.54 17.63-39.275 9.368-12.716 33.467-34.589 33.467-34.589-41.977 20.964-67.387 49.97-74.517 66.274-3.881 8.776-4.804 27.966-11.87 39.271-7.627 12.305-26.582 29.473-31.952 34.173-3.678 3.198-6.718 6.234-9.3 9.387h-.014s-5.994 6.008-8.822 19.158c-2.886 13.088-5.161 31.93-12.286 39.068-7.143 7.138-25.392 25.112-30.247 31.685-4.835 6.577-13.11 17.095-22.257 19.963-9.133 2.86-11.974 2.294-16.258 2.574-4.298.285-10.27.85-7.143 9.12 3.14 8.27 7.559 16.155 15.308 17.702 7.994 1.638 11.993 2.425 16.128 12.246 1.013 2.542 2.198 6.234 2.438 7.215.194.982 1.384 3.927-2.945 5.533-4.33 1.606-15.363 2.307-23.076 1.416-7.704-.891-22.967-3.103-30.025-7.035-7.016-3.9-12.255-7.233-11.286-16.946 1.026-9.712 4.817-32.15 6.351-39.615 1.606-7.496 2.601-11.174 3.257-12.956.67-1.773 2.475-3.14 4.361-4.479 1.905-1.32 23.013-15.023 26.098-30.671 3.149-15.589 2.9-23.65 3.583-29.201.683-5.61 3.126-24.564 8.957-33.042 0 0-10.088 9.577-17.421 16.512-7.397 6.899-22.551 20.081-35.73 26.12-13.168 6.008-38.38 16.259-55.995 15.35-17.3-.85-31.314-4.913-39.425-8.048v189.33h252.582V416.67c.299-9.627 8.546-12.839 24.072-3.859 15.575 9.016 4.134 27.134 2.393 31.156-2.307 5.265-4.628 9.64-11.884 19.144-6.668 8.804 3.84 16.037 9.49 21.004 5.655 4.959 31.364 23.909 37.684 27.297 6.306 3.361 16.485 4.732 25.94 4.972 9.495.24 30.915-.24 33.625-1.113 2.714-.923 3.583-1.832.905-8.378-2.72-6.546-7.243-12.17-11.532-16.25-4.265-4.017-9.237-4.017-14.204-2.918-4.958 1.131-10.152 2.262-14.463 2.71-4.266.448-6.722-.683-8.79-2.71-2.022-2.017-5.636-6.333-8.79-11.065-4.921-7.423-1.13-13.078.91-15.354 2.058-2.239 6.211-7.609 14.02-13.978m-281.133-49.36c26.541-6.514 60.682-38.886 74.543-55.072 13.481-15.698 36.584-63.27 79.665-78.814 12.39-4.447 23.641-8.301 33.92-11.604-28.058 16.747-21.218 57.715-55.716 87.902 59.642-30.942 38.814-71.57 103.613-101.025l-35.57 9.25c.452-.144.877-.266 1.307-.384V35.516H109.295c-40.601 0-73.76 33.205-73.76 73.788V393.03c8.794 3.913 28.255 10.504 50.82 4.94M726.125 35.52H547.314v120.944c2.1-.39 4.33-.715 6.777-.819 14.499-.701 25.193.742 35.367-4.243 1.76-.85 3.718-1.773 5.831-2.647-18.774 14.192-25.514 35.3-31.82 58.76-9.03 33.621-37.562 56.66-26.478 89.644.656-38.217 41.827-52.037 48.509-88.228 6.337-34.087 4.003-52.77 36.068-69.282 2.954-.86 5.84-1.579 8.536-2.171 13.047-2.855 21.425-4.284 26.392-5.682 5.035-1.443 13.775-4.289 13.775-4.289s4.954-10.44 8.555-15.168c5.012-6.619 13.196-10.89 16.928-4.28 3.764 6.605 5.356 11.93 7.138 18.01 0 0 11.6 6.251 18.209 9.45 6.605 3.212 16.245 8.387 20.339 11.065 4.085 2.646 4.637 2.859 5.338 5.7.715 2.873 4.46 11.585 11.228 17.656 6.786 6.071 13.553 11.247 12.142 16.78-1.425 5.536-2.873 5.862-3.556 9.463-.71 3.556-.891 6.216-2.144 8.736-1.276 2.497-6.22 11.065-8.4 13.404-2.113 2.289-6.397 8.509-15.165 3.537-8.73-4.994-16.027-9.106-20.868-9.446-4.79-.375-7.645.697-10.513 3.909-2.86 3.244-7.306 6.578-16.738 6.8-9.491.162-20.367-1.263-27.863-.548-7.464.71-7.821 1.063-10.336 4.994-2.502 3.927-12.87 19.04-17.657 24.415-4.809 5.397-7.871 8.433-9.64 14.282-1.8 5.903-13.182 44.967-15.68 72.268-2.533 27.27-2.41 29.35 5.162 36.208 6.397 5.786 18.43 14.802 24.456 15.503 6.025.643 20.769 1.99 30.793 11.039 10.043 9.029 17.394 17.059 22.063 25.749 4.732 8.686 10.726 21.407 7.396 27.79-3.334 6.351-12.734 13.684-23.09 13.033-2.976-.208-5.057-.507-6.608-1.04a1.2 1.2 0 0 1-.222-.077c-8.27-2.57-13.63-9.175-15.96-17.865-1.764-6.65-2.533-14.132-7.962-18.801-5.564-5.266-13.06-9.509-23.429-11.07 0 0-6.636-.52-13.078.24 10.5 1.814 21.24 4.076 26.776 10.03 10.726 11.576-1.592 38.05 22.642 45.758 9.238 2.84 15.277 3.18 18.787 1.755-.438 10.387-3.492 20.086-8.613 28.428l-5.325-11.753c-.312-.729-1.307-1.118-2.171-.85l-19.308 5.559c-.873.24-1.755 1.163-1.967 2.054l-4.637 19.547c-.208.873.24 1.841 1 2.144l10.5 4.149a58.74 58.74 0 0 1-28.297 7.233c-32.563 0-58.923-26.378-58.923-58.913 0-22.212 12.337-41.547 30.527-51.576-.104-.027-.208-.077-.308-.118-13.951-9.147-31.929-24.578-45.134-36.177-15.01-13.132-22.954-15.295-32.77-18.742-17.35-6.04-26.795-31.54-29.174-44.007-2.38-12.522 9.518-23.235 18.461-38.693 8.926-15.503 21.366-69.431 16.304-56.841-.85 2.112-2.606 5.8-3.795 8.572-10.41 23.805-46.324 63.017-49.197 66.51-11.382 13.639-8.749 21.438-7.944 26.97.774 5.537 7.157 20.647 14.64 40.077 7.572 19.43-19.82 32.15-19.82 32.15 19.82-6.74 33.726-15.086 41.656-19.416 28.369-15.648 42.886 26.152 48.002 41.624 3.75 11.246 4.257 22.908 4.298 23.772v158.135h252.6V109.309c-.009-40.583-33.214-73.788-73.792-73.788M577.813 469.196l14.62 19.606c.657.891 2.05 1.326 3.095.95l23.212-7.822c1.026-.325 1.872-1.515 1.872-2.646l-.257-24.456c0-1.085-.892-2.293-1.937-2.619l-23.383-7.32c-1.04-.307-2.439.15-3.063 1.06l-14.182 19.945c-.665.904-.665 2.415.023 3.302"/><path fill="#fff" d="M312.907 829.712h-8.54v-26.99h19.606c6.039 0 9.613.435 11.988 1.593 2.872 1.294 4.447 3.484 4.447 5.949 0 4.09-2.452 6.668-7.605 7.84 4.655.864 6.917 3.275 7.234 7.496.325 2.501.448 3.049.968 4.107h-9.55c-.312-.628-.344-.895-.448-1.474-.15-.76-.326-1.873-.416-2.362-.728-4.93-3.275-6.433-10.835-6.433h-6.858v10.274zm11.961-15.028c4.393 0 6.144-1.127 6.144-3.746 0-1.62-1.1-2.764-2.959-3.167-.683-.135-1.755-.226-3.185-.226h-11.96v7.139zM392.092 824.862h18.58c3.166 0 4.908-.18 5.94-.628 1.23-.534 1.99-1.416 1.99-2.47 0-1.276-.982-2.335-2.574-2.887-.86-.294-2.393-.475-4.325-.475h-7.397c-4.817 0-7.916-.565-10.042-1.755-2.394-1.43-3.796-3.614-3.796-5.953 0-3.438 2.782-6.429 6.994-7.424 1.787-.434 3.895-.552 8.586-.552h20.14v4.818h-18.222c-3.822.032-4.09.032-5.356.254-1.665.285-2.714 1.293-2.714 2.75 0 1.208.855 2.144 2.311 2.62 1.208.357 2.145.415 5.03.415h6.456c5.863 0 9.043.598 11.396 2.23 1.8 1.222 2.976 3.62 2.976 5.909 0 2.918-1.981 5.578-5.089 6.885-1.981.823-4.506 1.104-10.445 1.104h-20.443v-4.84M153.864 818.583h-24.8v11.129h-8.853v-14.105c0-3.452.566-6.28 1.534-7.673 1.827-2.501 5.18-4.166 9.952-4.795 2.32-.353 3.646-.416 7.813-.416h14.385v4.809h-13.272c-3.538 0-6.736.285-8.166.683-2.262.696-3.393 2.067-3.393 4.09v1.456h24.8zM195.533 829.712h-14.504c-7.17 0-10.635-.683-13.86-2.705-3.57-2.208-5.506-5.945-5.506-10.73 0-6.103 3.298-10.577 9.16-12.364 2.367-.71 6.515-1.19 10.577-1.19h14.133v4.809h-13.06c-4.122 0-7.076.728-8.885 2.198-1.385 1.086-2.145 3.212-2.145 5.994 0 3.99 1.326 6.759 3.827 7.917 1.62.819 4.135 1.221 7.483 1.221h12.775v4.85M213.402 807.364v22.348h8.654v-20.95c2.737 2.932 14.879 18.625 14.879 18.625 1.244 1.402 2.365 2.587 6.098 2.587 4.894 0 6.668-2.501 6.668-4.614v-22.642H241v20.855c-2.696-2.9-14.54-18.39-14.54-18.39-1.533-1.664-2.677-2.723-6.427-2.723-5.79.01-6.632 3.059-6.632 4.904M288.198 803.705c-2.293-.742-6.351-1.231-10.355-1.231h-1.683c-3.971 0-8.03.489-10.336 1.23-5.768 1.801-8.998 6.397-8.998 12.572 0 4.895 1.89 8.672 5.388 10.948 3.166 2.067 6.527 2.723 13.58 2.723h2.47c6.994 0 10.369-.656 13.567-2.723 3.497-2.276 5.383-6.053 5.383-10.948-.004-6.175-3.252-10.771-9.016-12.571m-4.329 20.094c-1.502.792-3.795 1.195-6.844 1.235-3.054-.045-5.375-.448-6.886-1.235-2.41-1.203-3.718-4.017-3.718-8.075 0-2.827.76-5.026 2.08-6.13 1.742-1.488 4.57-2.203 8.528-2.216 3.936.013 6.754.728 8.51 2.217 1.325 1.099 2.067 3.302 2.067 6.13-.005 4.057-1.299 6.875-3.737 8.074M376.458 803.913c-2.362-.71-6.5-1.19-10.577-1.19h-17.453v26.989h17.82c7.202 0 10.64-.683 13.892-2.705 3.574-2.208 5.492-5.945 5.492-10.73.005-6.103-3.311-10.577-9.174-12.364m-4.474 19.728c-1.606.819-4.108 1.221-7.469 1.221h-7.405v-17.33h7.722c4.116 0 7.048.728 8.848 2.198 1.366 1.086 2.14 3.212 2.14 5.994-.005 3.99-1.312 6.759-3.836 7.917M450.974 802.723h8.926v14.06c0 3.497-.598 6.27-1.566 7.677-1.827 2.515-5.234 4.18-9.952 4.831-2.352.312-3.646.42-7.826.42h-9.374v-4.849h8.243c3.569 0 6.767-.271 8.201-.656 2.217-.714 3.348-2.085 3.348-4.09zM514.66 824.862h-5.066c-3.249 0-6.135-.271-7.442-.656-1.326-.475-2.348-1.235-2.904-2.261l-1.977-3.38h17.39v-4.804h-20.204l-3.646-6.252h23.85v-4.79h-30.699c-3.172 0-4.768 1.261-5.497 2.456 0 .013-14.309 24.532-14.309 24.532h8.379s3.225-5.623 3.628-6.31h15.471l.538.89h.014c.032.06.045.1.077.164 1.651 2.515 4.7 4.18 8.998 4.831 2.099.312 3.289.42 7.093.42h6.31v-4.84zm-35.643-6.636c.937-1.755 3.778-7.08 4.669-8.808.968 1.67 4.09 7.007 5.166 8.808zM633.668 807.364v22.348h8.704v-20.95c2.692 2.932 14.824 18.625 14.824 18.625 1.267 1.402 2.398 2.587 6.09 2.587 4.926 0 6.636-2.501 6.636-4.614v-22.642h-8.659v20.855c-2.705-2.9-14.485-18.39-14.485-18.39-1.592-1.664-2.723-2.723-6.46-2.723-5.786.01-6.65 3.059-6.65 4.904M705.845 803.913c-2.375-.71-6.5-1.19-10.576-1.19h-17.421v26.989h17.819c7.157 0 10.64-.683 13.865-2.705 3.552-2.208 5.488-5.945 5.488-10.73.009-6.103-3.298-10.577-9.175-12.364m-4.428 19.728c-1.652.819-4.122 1.221-7.528 1.221h-7.365v-17.33h7.677c4.121 0 7.084.728 8.88 2.198 1.385 1.086 2.131 3.212 2.131 5.994 0 3.99-1.325 6.759-3.795 7.917M531.272 820.117c0 2.004 1.13 3.375 3.379 4.09 1.443.384 4.637.655 8.17.655h8.297v4.85h-9.37c-4.21 0-5.55-.104-7.853-.42-4.777-.657-8.088-2.322-9.934-4.832-.981-1.407-1.52-4.18-1.52-7.677v-14.06h8.835v17.394M564.67 820.117c0 2.004 1.118 3.375 3.358 4.09 1.447.384 4.632.655 8.206.655h8.238v4.85h-9.37c-4.197 0-5.491-.104-7.798-.42-4.76-.657-8.12-2.322-9.953-4.832-.981-1.407-1.56-4.18-1.56-7.677v-14.06h8.88zM614.347 805.193c-1.04-1.796-2.86-2.687-5.46-2.687-3.199 0-4.746 1.479-5.492 2.673 0 .014-14.277 24.533-14.277 24.533h8.319s3.239-5.623 3.642-6.31h15.602c.42.682 3.633 6.31 3.633 6.31h8.378zm-10.414 13.033c.937-1.755 3.732-7.08 4.669-8.808.968 1.67 4.098 7.007 5.134 8.808z"/><path fill="#943454" d="M709.397 148.788s.927 2.086 2.908 4.198c2.172 2.32 5.746 4.642 12.568 11.44 6.799 6.859.253 9.876-6.008 12.51-6.252 2.65-14.521 1.79-18.878.628-16.277-4.252-20.009-12.585-20.606-18.638-.253-5.012 2.601-8.333 3.778-9.568a117 117 0 0 0 4.433-4.818c10.22-11.766 3.868-22.225 1.04-25.795-2.352-2.972-1.8 0-1.8 0 3.57 13.052-28.102 34.825-39.57 53.467-11.5 18.625-6.383 52.002-6.383 52.002s.566-1.724 5.343-25.302c4.12-20.249 10.128-24.08 16.62-30.898 1.308-1.352 3.244-3.035 5.592-5.057-10.609 25.677 11.544 33.471 25.229 33.471 14.218 0 22.176-9.64 27.278-13.806 5.121-4.167 7.962-5.895 13.617-7.591 5.71-1.679 9.12 1.696 14.594 6.654 5.474 4.922 12.852 9.654 12.852 9.654-26.776-36.928-41.637-41.103-52.607-42.55"/></svg>