<svg height="1000" viewBox="0 0 1000 1000" width="1000" xmlns="http://www.w3.org/2000/svg"><g transform="matrix(2.1383971 0 0 2.1383971 -58.863657 -41.281756)"><path d="m 381.199 241.494 c 0 -81.966 -66.878 -148.844 -148.786 -148.844 c -81.966 0 -148.785 66.878 -148.785 148.844 c 0 81.907 66.819 148.727 148.785 148.727 c 81.908 0 148.786 -66.82 148.786 -148.727 z" fill="#2e3992"/><path d="M 232.413 90.028 L 207.015 66.434 L 232.413 39.111 L 257.697 66.434 Z" fill="#faa634"/><path d="m 53.684 141.118 c -16.719 29.77 -25.807 63.441 -26.157 97.813 l 26.797 25.167 C 50.537 234.62 54.266 204.501 65.043 176.597 Z" fill="#faa634"/><path d="m 69.354 179.858 c -7.398 19.516 -11.243 40.547 -11.243 61.635 c 0 7.631 .466 15.321 1.515 22.953 l 24.002 -25.75 c .465 -24.35 6.815 -48.119 18.583 -69.382 z" fill="#faa634"/><path d="M 89.512 350.023 C 71.569 326.488 59.685 298.642 55.024 269.223 L 27.527 243.881 c .35 34.43 9.438 68.218 26.331 98.221 z" fill="#faa634"/><path d="M 94.229 347.751 C 76.695 324.916 65.043 298.06 60.383 269.572 L 83.627 244.23 c .465 24.352 6.815 48.12 18.583 69.325 z" fill="#faa634"/><path d="m 437.299 239.104 c -.408 -34.138 -9.378 -67.927 -26.215 -97.87 l -11.302 35.537 c 8.04 20.681 12.06 42.644 12.06 64.723 c 0 7.456 -.525 14.972 -1.458 22.427 z" fill="#faa634"/><path d="m 381.199 238.696 c -.408 -24.059 -6.757 -47.886 -18.467 -69.149 l 32.622 10.311 c 7.517 19.749 11.361 40.605 11.361 61.635 c 0 7.573 -.583 15.205 -1.516 22.662 z" fill="#faa634"/><path d="m 411.026 341.811 c 16.895 -30.06 25.865 -63.791 26.273 -98.22 l -27.613 25.515 c -4.487 29.304 -16.371 57.092 -34.371 80.86 z" fill="#faa634"/><path d="m 404.443 269.514 c -4.602 28.254 -16.254 55.17 -33.788 78.064 l -8.04 -34.139 c 11.826 -21.321 18.176 -45.09 18.583 -69.44 z" fill="#faa634"/><path d="m 408.755 345.772 l -36.702 8.331 c -8.5 10.598 -18.138 20.103 -28.676 28.403 c -.335 -1.953 -.663 -3.909 -.986 -5.866 c 9.118 -7.422 17.524 -15.792 25.059 -25.042 l -7.573 -33.266 c -6.365 10.585 -13.728 19.997 -21.863 28.248 c -4.37 -34.63 -6.499 -69.66 -6.391 -105.086 c -.107 -35.373 2.008 -70.33 6.353 -104.875 c 8.333 8.391 15.735 17.825 21.96 28.209 l 33.555 10.137 c -11.228 -27.229 -28.972 -50.656 -51.109 -68.671 c .322 -1.948 .647 -3.896 .982 -5.842 c 23.629 18.588 42.599 43.105 54.613 71.776 l 10.719 -35.245 C 393.328 111.066 372.718 89.291 348.656 72.71 C 352.4 54.797 356.76 36.994 361.743 19.305 h -86.22 V 41.118 C 262.332 38.277 248.76 36.717 234.978 36.549 l 25.108 27.613 c 5.218 .821 10.365 1.881 15.437 3.138 v 5.275 c -4.918 -1.263 -9.907 -2.333 -14.971 -3.17 L 235.21 92.65 c 13.844 .283 27.389 2.494 40.313 6.415 V 215.57 H 232.414 H 189.305 V 99.016 c 12.993 -3.933 26.617 -6.129 40.545 -6.366 L 204.334 69.405 c -5.082 .832 -10.091 1.9 -15.03 3.163 v -5.3 c 5.148 -1.273 10.372 -2.342 15.67 -3.164 l 24.992 -27.555 c -13.811 .147 -27.422 1.701 -40.662 4.549 V 19.305 h -86.277 c 4.997 17.692 9.368 35.497 13.122 53.413 c -23.989 16.543 -44.56 38.267 -59.903 64.147 l 10.661 35.187 c 12.01 -28.623 30.956 -53.084 54.535 -71.633 c .336 1.947 .662 3.896 .984 5.845 c -22.089 17.962 -39.834 41.332 -51.091 68.526 l 33.614 -10.138 c 6.218 -10.328 13.595 -19.717 21.89 -28.071 c 4.354 34.557 6.472 69.526 6.363 104.912 c .108 35.414 -2.02 70.435 -6.392 105.056 c -8.128 -8.243 -15.49 -17.646 -21.861 -28.218 L 97.49 351.77 c 7.503 9.177 15.87 17.488 24.931 24.865 c -.321 1.947 -.648 3.893 -.983 5.837 c -10.525 -8.281 -20.179 -17.771 -28.725 -28.371 l -36.584 -8.099 c 15.397 25.921 35.997 47.649 60.009 64.19 c -3.751 17.9 -8.119 35.692 -13.113 53.371 h 86.277 v -21.767 c 14.015 3.015 28.453 4.581 43.109 4.581 c 14.653 0 29.091 -1.571 43.109 -4.591 v 21.776 h 86.22 c -4.982 -17.682 -9.338 -35.478 -13.084 -53.383 c 24.098 -16.594 44.74 -38.406 60.099 -64.407 z M 189.304 267.301 h 43.109 h 43.109 v 116.734 c -28.036 8.354 -58.169 8.354 -86.218 -.013 V 267.301 Z m 19.048 151.99 c -6.441 -.876 -12.796 -2.106 -19.048 -3.653 v -5.309 c 6.473 1.648 13.064 2.936 19.748 3.834 z m 24.061 11.942 c -7.107 0 -12.875 -5.768 -12.875 -12.876 c 0 -7.106 5.767 -12.931 12.875 -12.931 c 7.05 0 12.874 5.825 12.874 12.931 c .001 7.108 -5.824 12.876 -12.874 12.876 z m 24.293 -11.942 l -.932 -5.127 c 6.691 -.913 13.281 -2.208 19.749 -3.859 v 5.367 c -6.176 1.528 -12.453 2.747 -18.817 3.619 z" fill="#faa634"/><path d="m 123.707 57.753 c 4.078 18.526 7.631 37.051 10.545 55.751 c 2.796 18.758 5.01 37.516 6.699 56.45 l 1.048 14.214 c 2.156 35.828 2.272 71.539 .408 107.425 l -.932 14.213 c -3.903 49.693 -11.71 99.094 -24.584 147.213 h 61.868 V 256.757 h 107.308 v 196.264 h 61.868 C 336.866 411.775 329.642 369.54 325.156 327.13 c -.641 -7.108 -1.282 -14.214 -1.806 -21.323 c -2.68 -38.215 -2.971 -76.257 -.932 -114.473 l .932 -14.274 c 3.845 -49.693 11.71 -99.034 24.585 -147.212 H 286.067 V 226.113 H 178.76 V 29.849 h -61.868 c 2.446 9.262 4.66 18.583 6.815 27.904 z" fill="#ee3124"/><path d="M 256.765 297.478 L 234.161 319.38 L 257.755 351.482 L 248.317 351.482 L 229.151 324.159 L 220.297 332.78 L 220.297 351.482 L 213.189 351.482 L 213.189 297.478 L 220.297 297.478 L 220.297 324.274 L 247.094 297.478 Z" fill="#faa634"/><path d="m 251.113 161.566 c -1.747 -2.33 -4.311 -3.962 -7.572 -4.894 c 2.562 -1.282 4.425 -2.914 5.708 -4.952 c 1.223 -2.039 1.864 -4.195 1.864 -6.526 c 0 -2.446 -.699 -4.834 -2.096 -7.107 c -1.458 -2.272 -3.38 -3.961 -5.885 -5.067 c -2.504 -1.108 -11.01 -1.632 -11.01 -1.632 h -19.107 v 54.003 h 20.564 c 3.437 0 6.29 -.291 8.679 -.932 c 2.33 -.583 4.311 -1.458 5.885 -2.622 c 1.573 -1.224 2.912 -2.855 3.961 -5.068 c 1.107 -2.156 1.631 -4.486 1.631 -7.05 c 0 -3.144 -.874 -5.882 -2.622 -8.153 z M 220.12 137.739 c 0 0 11.652 0 12.001 .058 c 3.263 0 5.535 .291 6.991 .699 c 1.572 .525 2.796 1.458 3.67 2.796 c .874 1.398 1.283 2.972 1.283 4.777 c 0 1.864 -.467 3.438 -1.399 4.72 c -.873 1.222 -2.272 2.096 -4.078 2.679 c -1.338 .409 -3.437 .583 -6.466 .583 c -.057 0 -.174 0 -.291 0 h -11.71 v -16.312 z m 25.11 36.585 c -.699 1.281 -1.632 2.272 -2.681 2.971 c -1.106 .699 -2.504 1.164 -4.135 1.456 c -.932 .175 -18.294 .292 -18.294 .292 V 160.46 h 12.526 c 3.438 0 6.001 .291 7.866 .873 c 1.806 .642 3.261 1.69 4.253 3.146 c 1.048 1.515 1.573 3.261 1.573 5.242 c -.001 1.749 -.352 3.263 -1.108 4.603 z" fill="#faa634"/></g></svg>