<svg xmlns="http://www.w3.org/2000/svg" xml:space="preserve" viewBox="0 0 600 600"><path d="M298.552 586.122C33.697 447.287-.478 148.252-.478 148.252c106.797-8.544 136.7-111.069 136.7-111.069C240.884 86.31 298.552 5.144 298.552 5.144s55.537 81.166 162.336 32.04c0 0 29.904 102.525 136.699 111.069 0-.001-34.175 299.034-299.035 437.869z" style="fill:#173a71;stroke:#173a71;stroke-width:10.6851"/><path d="M298.552 586.122C33.697 447.287-.478 148.252-.478 148.252c106.797-8.544 136.7-111.069 136.7-111.069C240.884 86.31 298.552 5.144 298.552 5.144s55.537 81.166 162.336 32.04c0 0 29.904 102.525 136.699 111.069 0-.001-34.175 299.034-299.035 437.869z" style="fill:none;stroke:#fff;stroke-width:3.0529"/><path d="M396.809 240.098c0 54.267-43.99 98.254-98.256 98.254-54.261 0-98.25-43.987-98.25-98.254 0-54.264 43.99-98.254 98.25-98.254 54.265 0 98.256 43.99 98.256 98.254z" style="fill:none;stroke:#fff;stroke-width:3.0529"/><path d="M291.439 161.814c-40.074 3.596-71.487 37.271-71.487 78.284 0 14.388 3.865 27.872 10.614 39.47 0 0 18.864 28.168 11.742-7.431 0 0-14.952-71.911 46.991-90.421 0 0 9.254-.71 9.254-9.967-.001-9.258-7.114-9.935-7.114-9.935zM268.118 291.893c15.783-11.342 28.3 2.673 28.3 2.673 14.952 17.086 43.217 12.556 43.217 12.556-11.954 7.343-26.023 11.576-41.083 11.576-12.643 0-24.586-2.984-35.168-8.286 0 0-12.353-6.237 4.734-18.519zM360.568 288.398c7.401-7.07 11.042-15.188 13.813-25.339 0 0-33.821 19.044-74.403-3.025 0 0 .71 32.75 41.295 32.928.001 0 12.284 2.134 19.295-4.564zM340.206 255.585c-39.517.177-36.669-19.758-36.669-19.758 2.673-18.691 24.39-9.078 24.39-9.078 27.767 6.942 36.843-4.272 36.843-4.272 8.543-5.34 11.348 4.809 11.348 4.809a79 79 0 0 1 1.038 12.813c-.001-.001-2.239 15.328-36.95 15.486zM344.119 212.33c-31.325 0-23.495-41.295-23.495-41.295 1.427-6.763 7.865-3.639 7.865-3.639 14.08 5.806 26.114 15.586 34.693 27.945.001 0 15.825 16.989-19.063 16.989z" style="fill:none;stroke:#fff;stroke-width:2.4423"/><path d="M302.116 198.091s9.789 9.967.175 15.842c0 0-20.289 11.747-19.757 38.981 0 0 3.206 20.646-8.898 21.358 0 0-13.525 2.731-15.663-14.951 0 0-5.46-45.923 27.767-59.807 0 .001 11.746-4.984 16.376-1.423z" style="fill:none;stroke:#fff;stroke-width:2.4423"/><path d="M173.512 135.437V80.436h14.818v24.983l17.371-24.983h17.447l-20.301 26.824 22.061 28.177h-18.683l-17.896-24.683v24.683zM276.977 83.799a11.7 11.7 0 0 1 2.253 3.967q.748 2.24.748 4.984.002 6.505-4.35 10.979c-2.902 2.983-6.445 4.474-10.621 4.474q-2.624 0-4.82-.713a11.8 11.8 0 0 1-3.959-2.181zm-24.273 17.936q-1.353-2.028-1.99-4.172-.636-2.144-.637-4.589-.002-6.431 4.351-10.887c2.9-2.969 6.431-4.455 10.58-4.455 1.552 0 3.006.227 4.373.678 1.365.451 2.668 1.128 3.919 2.03zm-6.297 13.674q3.98 3.245 8.559 4.828 4.584 1.582 10.068 1.584 5.93 0 11.262-2.163a29.2 29.2 0 0 0 9.501-6.226q4.168-4.1 6.387-9.331 2.212-5.23 2.212-11.099c0-3.712-.656-7.235-1.958-10.571q-1.96-5.004-5.606-8.843l5.72-5.916-3.652-3.522-5.833 6.067q-3.903-3.107-8.215-4.586-4.313-1.48-9.374-1.481-6.154 0-11.556 2.16-5.398 2.16-9.637 6.294-4.2 4.094-6.415 9.316-2.213 5.222-2.211 11.083 0 5.375 1.739 10.09 1.742 4.716 5.337 8.996l-6.366 6.625 3.444 3.557zM341.444 100.194V88.712h29.428q.042.565.061 1.241.016.677.016 1.991-.002 14.205-7.485 22.042-7.488 7.834-21.072 7.834-6.677-.002-11.874-2.009-5.198-2.01-9.287-6.141-3.905-3.942-6.062-9.331-2.159-5.388-2.158-11.287 0-6.158 2.104-11.322c1.399-3.442 3.493-6.541 6.268-9.298a27.8 27.8 0 0 1 9.474-6.082q5.35-2.065 11.544-2.066 8.069 0 14.279 3.207 6.215 3.21 10.454 9.549l-12.954 6.2q-2.33-3.173-5.241-4.725-2.911-1.55-6.517-1.551-6.723 0-10.592 4.475c-2.578 2.981-3.867 7.058-3.867 12.222q-.001 7.825 3.871 12.317c2.578 2.996 6.105 4.493 10.594 4.493q5.706 0 9.517-2.806 3.814-2.806 4.454-7.473h-14.955zM391.753 135.437V80.436h33.64v12.016h-19.089v9.612h17.999v11.747h-17.999v9.345h19.089v12.282h-33.64zM102.558 281.48h3.226q5.588.001 7.523 1.257 1.932 1.263 1.933 4.378c0 2.006-.688 3.411-2.064 4.226q-2.066 1.22-7.616 1.219h-3.002zm1.612 44.056q9.38 0 13.511-.639 4.13-.64 6.943-2.138c2.302-1.228 4.071-2.951 5.311-5.182q1.858-3.338 1.859-7.729-.001-6.117-3.319-9.778-3.318-3.659-9.201-4.11 5.216-1.429 7.6-4.192 2.384-2.768 2.384-7.467-.002-3.722-1.592-6.564-1.592-2.837-4.624-4.532-2.66-1.466-6.346-2.068-3.688-.601-12.974-.602H88.674v55.001zm-1.612-23.23h5.478q5.444 0 7.458 1.378 2.016 1.374 2.016 4.838 0 3.13-2.202 4.465-2.201 1.337-7.498 1.337h-5.252zM150.894 358.903q-4.008-4.546-4.007-11.606c0-4.635 1.353-8.483 4.067-11.555q4.06-4.598 10.282-4.598 6.108 0 10.232 4.619c2.744 3.08 4.122 6.925 4.122 11.533 0 4.657-1.355 8.516-4.067 11.568-2.711 3.059-6.137 4.584-10.286 4.584q-6.333.002-10.343-4.545zm37.448-22.718q-2.193-5.224-6.325-9.276a29.1 29.1 0 0 0-9.548-6.253 29.8 29.8 0 0 0-11.28-2.194q-5.892-.002-11.278 2.194a28.7 28.7 0 0 0-9.475 6.253q-4.244 4.093-6.439 9.293t-2.195 11.096q-.001 5.854 2.195 11.074c1.463 3.48 3.61 6.581 6.439 9.312a28.7 28.7 0 0 0 9.475 6.25 29.6 29.6 0 0 0 11.278 2.197q5.817 0 11.225-2.197a30 30 0 0 0 9.604-6.25c2.783-2.73 4.893-5.818 6.347-9.273q2.173-5.181 2.175-11.112-.003-5.9-2.198-11.114zM201.943 410.976v-55.004h14.952v42.186h18.688v12.817h-33.64zM259.609 393.886h2.522q8.84 0 12.906 3.688 4.06 3.684 4.061 11.588-.002 7.902-4.061 11.533-4.067 3.63-12.906 3.629h-2.522zm-3.378 42.72h2.514q10.741 0 15.849-1.184 5.111-1.186 9.096-3.967c3.476-2.427 6.122-5.539 7.919-9.335 1.804-3.794 2.709-8.117 2.709-12.981 0-4.854-.905-9.184-2.709-12.977-1.798-3.794-4.443-6.907-7.919-9.337-2.685-1.874-5.795-3.219-9.336-4.017q-5.315-1.205-18.124-1.205h-11.44v55.002zM305.625 436.606v-55.002h14.815v24.981l17.371-24.981h17.444l-20.297 26.823 22.06 28.179h-18.68l-17.899-24.685v24.685zM363.303 410.976v-55.004h14.949v42.186h18.69v12.817h-33.639zM405.749 319.66h14.952v26.716c0 3.928.095 6.748.295 8.464.201 1.711.535 3.144 1.012 4.293.57 1.402 1.563 2.475 2.98 3.209 1.42.741 3.151 1.107 5.19 1.107s3.764-.366 5.168-1.107c1.408-.734 2.407-1.807 3.004-3.209q.707-1.725 1.005-4.293.303-2.573.302-8.464V319.66h14.952v29.042q0 9.069-1.09 13.375c-.725 2.875-1.952 5.323-3.674 7.356q-2.812 3.352-7.723 5.023-4.913 1.673-11.927 1.673-7.05 0-11.944-1.673-4.894-1.67-7.742-5.023c-1.698-2.033-2.917-4.481-3.654-7.356q-1.107-4.306-1.107-13.375V319.66zM481.918 281.48h3.225q5.59.001 7.521 1.257c1.288.842 1.939 2.301 1.939 4.378 0 2.006-.69 3.411-2.066 4.226-1.377.814-3.92 1.219-7.619 1.219h-2.998v-11.08zm1.61 44.056q9.38 0 13.511-.639 4.131-.64 6.941-2.138c2.305-1.228 4.072-2.951 5.313-5.182 1.236-2.225 1.859-4.802 1.859-7.729q-.002-6.117-3.32-9.778-3.318-3.659-9.196-4.11 5.211-1.429 7.595-4.192c1.587-1.845 2.386-4.335 2.386-7.467 0-2.482-.536-4.668-1.593-6.564-1.059-1.892-2.605-3.402-4.623-4.532q-2.66-1.466-6.345-2.068-3.689-.601-12.974-.602h-15.048v55.001zm-1.61-23.23h5.477q5.444 0 7.457 1.378 2.018 1.374 2.018 4.838 0 3.13-2.202 4.465c-1.472.891-3.969 1.337-7.501 1.337h-5.249z" style="fill:#fff;stroke:#173a71;stroke-width:1.0176"/><path d="m238.115 120.514 52.544-54.669" style="fill:none;stroke:#fff;stroke-width:2.0353"/></svg>