<svg xmlns="http://www.w3.org/2000/svg" viewBox="0 0 660 660"><path d="M64.437 524.748V403.033l18.679.062c2.662 0 3.02.359 4.09 2.319l29.415 55.24c4.992 9.444 8.38 18.532 10.519 25.837h.355c0-5.701-.533-18.175-.533-23.165l.103-60.294h20.191l.102 118.384c0 3.207-.533 3.742-3.726 3.742h-11.704c-2.483 0-3.015-.356-4.079-2.496L95.228 461.9c-5.348-9.978-8.379-16.214-10.161-24.233h-.354c0 2.316.531 11.405.531 19.602l-.039 67.479z"/><path d="M194.868 476.667h-24.029l14.418-35.893c4.271-8.955 8.365-21.518 9.256-24.391h.355zm65.187-73.572H183.3c-3.026 0-3.206.357-3.917 2.662l-49.126 114.791c-.178.708-.711 2.129-.711 2.484.178 1.773 1.247 2.128 3.56 2.128h17.977c2.671 0 3.026-.532 3.739-3.725l11.215-28.747h28.833l-.229 32.472 65.102.082v-19.446l-41.733-.041v-34.92l34.316.104-.165-19.12-34.151.105v-29.667l41.978-.103zM327.971 425.246c-.534 1.074-1.247 1.79-1.958 1.79-1.069 0-12.104-7.869-24.841-7.869-8.133 0-16.62 3.22-16.62 13.946 0 13.586 20.687 16.091 36.299 27.71 9.077 6.794 15.308 16.267 15.308 29.854 0 22.671-16.02 37.574-38.346 37.574-18.067 0-37.113-7.806-37.113-10.644 0-.532.535-1.774.891-2.84l4.094-11.755c.355-1.072 1.244-1.788 1.957-1.788 1.069 0 14.239 7.866 29.464 7.866 9.9 0 15.914-5.362 15.914-16.445 0-15.912-18.036-17.522-36.123-28.605-9.432-5.722-15.484-12.871-15.484-27.711 0-25.68 18.51-36.323 39.053-36.323 16.825 0 34.269 7.807 34.269 10.822 0 .533-.178 1.241-.89 2.662z"/><path d="M328.729 403.095h76.318c3.56 0 4.449.357 4.449 1.957 0 .888-.178 1.243-.533 2.487l-3.739 14.038c-.711 2.842-2.669 2.842-4.092 2.842h-22.073l.169 100.329-24.309.166.094-100.495h-23.318c-2.491 0-3.025-.534-3.025-3.022z"/><path d="m419.608 402.952 14.408 73.691c1.245 5.694 3.377 19.039 4.445 27.223h.354c1.068-8.184 3.912-21.529 5.333-27.184l14.397-73.69h29.667L452.68 522.164c-.71 2.496-.888 3.029-3.91 3.029h-20.264c-3.022 0-3.379-.533-3.911-3.029l-35.27-119.172z"/><path d="m540.747 470.977-33.748.103v34.673l41.781-.166v19.408h-70.457V402.992h70.457v19.16l-41.781.103v29.667l33.748-.105zM580.811 505.999v-83.744h6.418c19.964 0 27.631 8.93 27.631 40.892 0 34.104-7.487 42.852-27.631 42.852zm6.953 19.16c31.727 0 52.379-10.466 52.379-61.654 0-49.41-17.805-60.41-51.845-60.41l-31.894-.062v121.715z"/><circle cx="136.296" cy="254.167" r="127.612" fill="#368e52" transform="rotate(-76.443 136.295 254.167)"/><circle cx="136.296" cy="254.167" r="127.612" fill="none" transform="rotate(-76.443 136.295 254.167)"/><path fill="#2f9051" d="M277.767 275.489c5.253-25.772 0-44.191 0-44.191h199.938l11.125-10.878s29.666-31.768 62.422.989c0 0 40.792 50.062 78.493 19.16l.123 44.501c-37.7 32.138-77.997-19.778-77.997-19.778-34.611-31.52-64.277 0-64.277 0l-9.889 10.137z"/><path fill="#2f9051" d="M273.75 208.74c-10.198-31.21-24.105-44.191-24.105-44.191h228.06l11.125-10.878s29.666-31.767 62.422.99c0 0 40.792 50.062 78.493 19.16l.123 44.499c-37.7 32.139-77.997-19.777-77.997-19.777-34.611-31.521-64.277 0-64.277 0l-9.889 10.136zM273.75 297.306c-10.198 31.211-24.105 44.19-24.105 44.19l228.06.185 9.889-10.383s29.666-31.52 64.277 0c0 0 40.296 51.917 77.997 19.778l-.123-44.5c-37.701 30.902-78.493-19.16-78.493-19.16-32.756-32.756-62.422 0-62.422 0l-11.125 9.889z"/></svg>