<?xml version="1.0" encoding="iso-8859-1"?>
<!-- Generator: Adobe Illustrator 24.0.1, SVG Export Plug-In . SVG Version: 6.00 Build 0)  -->
<svg version="1.1" id="Layer_1" xmlns="http://www.w3.org/2000/svg" xmlns:xlink="http://www.w3.org/1999/xlink" x="0px" y="0px"
	 viewBox="0 0 660 660" style="enable-background:new 0 0 660 660;" xml:space="preserve">
<g>
	<path d="M118.157,498.188l11.085-10.598l9.243,9.665c4.522,4.732,4.963,8.579,1.315,12.068c-3.988,3.813-7.877,3.263-12.789-1.874
		L118.157,498.188z M78.616,512.446l11.76,12.302l18.184-17.384l7.947,8.314c4.979,5.206,4.565,8.833-1.657,14.911
		c-5.343,5.238-6.84,7.188-8.705,10.65l12.472,13.047l1.691-1.616c-0.341-2.521,0.008-3.375,2.92-6.417l5.619-5.761
		c5.011-5.18,7.083-9.101,6.222-12.03c-0.792-2.995-0.85-3.327-0.378-3.78c0.542-0.516,1.135-0.437,3.827,0.351
		c4.342,1.156,10.339-0.826,14.665-4.963c3.449-3.295,5.586-7.281,6.009-11.307c0.6-6.137-2.059-11.49-9.749-19.532l-22.231-23.251
		L78.616,512.446z"/>
	<path d="M190.131,536.834c8.899,5.344,10.003,14.95,3.023,26.575c-7.03,11.705-15.901,15.215-24.879,9.823
		c-8.978-5.391-10.099-14.791-3.021-26.576C172.283,534.95,181.152,531.443,190.131,536.834z M197.45,524.648
		c-17.717-10.638-36.02-5.594-47.186,13.005c-11.17,18.599-7.023,37.123,10.694,47.764c17.716,10.641,35.97,5.673,47.188-13.004
		C219.362,553.733,215.248,535.335,197.45,524.648z"/>
	<path d="M229.327,590.74c-1.883,7.534,1.004,12.36,8.643,14.567c7.006,2.024,11.635,0.828,12.802-3.214
		c0.881-3.055-0.177-5.114-4.19-7.733l-9.848-6.348c-13.104-8.555-17.629-16.479-14.826-26.182
		c3.555-12.309,15.785-17.246,31.598-12.68c8.713,2.517,14.688,6.774,17.868,12.949c2.749,4.978,3.071,9.257,1.433,15.598
		l-15.633-4.515c0.764-6.691-1.526-9.883-8.355-11.854c-5.388-1.558-9.684-0.17-10.748,3.514c-0.596,2.066,0.13,3.931,2.372,5.943
		c0.949,0.759,3.27,2.5,5.641,4.06l1.526,1.123l1.551,1.032l1.551,1.031l4.717,3.213c6.514,4.412,9.536,7.424,11.234,11.321
		c1.569,3.667,1.749,8.098,0.529,12.321c-3.633,12.579-16.375,17.268-33.626,12.287c-17.247-4.981-23.566-14.788-20.142-31.026
		L229.327,590.74z"/>
	<path d="M283.604,559.169l16.914,0.615l-0.93,25.604l24.947-24.731l20.653,0.749l-28.219,27.234l26.433,39.983l-20.56-0.747
		l-17.989-27.698l-6.009,5.678l-0.766,21.12l-16.916-0.614L283.604,559.169z"/>
	<path d="M346.648,559.043l17.026-2.487l9.722,66.529l-17.025,2.488L346.648,559.043z"/>
	<path d="M372.649,555.596l16.478-5.27l16.04,50.146l30.907-9.886l4.443,13.895l-47.384,15.155L372.649,555.596z"/>
	<path d="M463.206,576.473l-20.33-33.275l7.981-4.877c4.948-3.022,8.501-3.661,12.154-2.167c4.086,1.669,7.788,5.216,11.153,10.72
		c3.413,5.586,4.878,10.501,4.497,14.896c-0.336,3.931-2.608,6.853-7.476,9.827L463.206,576.473z M455.806,597.542l22.584-13.797
		c10.612-6.483,15.551-12.57,16.913-20.745c1.317-7.707-0.804-16.382-6.217-25.241c-5.361-8.776-11.984-14.596-19.574-16.972
		c-7.686-2.535-15.165-1.146-24.262,4.412l-24.498,14.967L455.806,597.542z"/>
	<path d="M474.026,506.179l35.793-36.412l9.804,9.636l-23.732,24.142l8.468,8.325l21.698-22.073l9.606,9.44l-21.699,22.074
		l10.269,10.095l24.518-24.941l9.803,9.637l-36.578,37.211L474.026,506.179z"/>
	
		<ellipse transform="matrix(0.1846 -0.9828 0.9828 0.1846 -53.6251 575.6283)" style="fill:none;stroke:#000000;stroke-width:5.3646;" cx="320.091" cy="320.131" rx="216.64" ry="216.638"/>
	<path style="fill:#EE3124;" d="M235.329,345.617l-119.312-84.488H265.1l54.992-159.752l54.732,159.752h149.341l-119.569,84.488
		l46.162,145.399l-130.667-83.922l-130.926,83.922L235.329,345.617z"/>
	<path d="M40.451,334.1c-1.798-0.011-3.526-0.314-5.179-0.91c-1.657-0.596-3.165-1.458-4.531-2.589
		c-1.829-1.516-3.237-3.331-4.23-5.442c-0.993-2.114-1.484-4.334-1.47-6.668c0.012-1.986,0.423-3.934,1.235-5.851
		c0.811-1.912,1.927-3.586,3.347-5.017c1.436-1.415,3.13-2.525,5.087-3.327c1.955-0.8,3.932-1.196,5.931-1.185
		c1.758,0.011,3.479,0.331,5.168,0.954c1.687,0.624,3.234,1.512,4.639,2.667c1.803,1.477,3.187,3.256,4.154,5.331
		c0.966,2.081,1.442,4.299,1.427,6.66c-0.012,1.786-0.318,3.502-0.919,5.15c-0.604,1.652-1.475,3.172-2.616,4.564
		c-1.503,1.844-3.297,3.252-5.382,4.226C45.029,333.636,42.807,334.115,40.451,334.1z"/>
	<path d="M51.122,246.819l-14.633-4.592l4.003-12.759c1.96-6.247,5.115-8.489,9.933-6.978c5.266,1.652,6.66,5.326,4.534,12.105
		L51.122,246.819z M82.695,274.568l5.096-16.238l-24-7.534l3.444-10.975c2.157-6.869,5.533-8.259,13.86-5.744
		c7.164,2.149,9.596,2.52,13.53,2.481l5.405-17.219l-2.233-0.7c-2.043,1.514-2.958,1.619-7.03,0.537l-7.757-2.141
		c-6.954-1.888-11.388-1.811-13.539,0.358c-2.24,2.139-2.503,2.351-3.128,2.153c-0.714-0.222-0.93-0.78-1.541-3.521
		c-1.081-4.358-5.711-8.653-11.422-10.445c-4.551-1.43-9.075-1.38-12.804,0.196c-5.663,2.436-9.067,7.346-12.4,17.965l-9.634,30.693
		L82.695,274.568z"/>
	<path d="M93.633,189.138c-3.636-0.588-7.49-2.214-11.718-4.974c-11.509-7.518-14.601-16.464-8.771-25.387
		c2.045-3.134,4.362-4.971,7.928-6.327L93.633,189.138z M102.914,216.313l5.352-1.866l-3.682-10.783
		c6.77-2.838,11.35-6.772,15.954-13.818c11.251-17.223,6.9-35.702-11.262-47.567c-5.324-3.479-11.39-5.99-16.61-6.717
		c-3.558-0.538-6.178-0.462-11.33,0.416l-3.601-10.394l-5.402,1.943l3.701,10.238c-6.327,3.016-10.646,6.896-14.79,13.237
		c-11.405,17.457-7.134,35.886,11.107,47.802c5.402,3.528,11.235,5.884,16.404,6.694c3.144,0.487,5.633,0.438,10.374-0.152
		L102.914,216.313z M86.669,151.749c4.598,0.659,8.502,2.203,13.043,5.17c11.352,7.415,14.521,16.413,8.896,25.023
		c-2.453,3.758-5.133,5.807-9.221,6.934L86.669,151.749z"/>
	<path d="M144.691,135.719l-25.578-29.438l7.06-6.133c4.378-3.802,7.777-5.022,11.626-4.155c4.307,0.965,8.546,3.848,12.778,8.718
		c4.295,4.941,6.557,9.54,6.909,13.941c0.324,3.933-1.431,7.192-5.737,10.935L144.691,135.719z M140.892,157.726l19.978-17.358
		c9.389-8.158,13.249-14.98,13.231-23.266c0.019-7.821-3.515-16.025-10.323-23.861c-6.748-7.764-14.244-12.4-22.122-13.482
		c-8-1.226-15.145,1.39-23.191,8.381l-21.671,18.829L140.892,157.726z"/>
	<path d="M159.992,56.569l45.609-22.956l6.18,12.281l-30.238,15.218l5.338,10.608l27.649-13.916l6.056,12.028l-27.65,13.916
		l6.474,12.864l31.243-15.722l6.179,12.276l-46.61,23.461L159.992,56.569z"/>
	<path d="M275.305,61.187c1.244,7.666,5.804,10.957,13.691,9.968c7.238-0.909,11.017-3.832,10.494-8.011
		c-0.396-3.153-2.183-4.625-6.905-5.447l-11.553-1.944c-15.416-2.682-22.703-8.176-23.961-18.197
		c-1.595-12.712,7.692-22.077,24.021-24.128c8.999-1.128,16.171,0.423,21.531,4.839c4.488,3.488,6.475,7.292,7.476,13.765
		l-16.145,2.025c-1.94-6.449-5.306-8.474-12.356-7.592c-5.57,0.701-8.966,3.672-8.488,7.476c0.267,2.132,1.671,3.559,4.525,4.523
		c1.171,0.323,3.991,1.006,6.787,1.504l1.844,0.428l1.833,0.334l1.834,0.335l5.602,1.09c7.726,1.479,11.692,3.056,14.792,5.966
		c2.888,2.746,4.805,6.747,5.353,11.108c1.629,12.991-8.225,22.331-26.04,24.567c-17.816,2.237-27.492-4.278-30.759-20.549
		L275.305,61.187z"/>
	<path d="M340.152,26.913l-19.177-1.831l1.291-13.498l55.481,5.298l-1.291,13.5l-19.175-1.834l-5.104,53.436l-17.129-1.636
		L340.152,26.913z"/>
	<path d="M389.474,62.84l-1.315,4.292c-1.948,6.345-0.951,9.784,3.339,11.102c5.454,1.674,7.681-0.481,10.672-10.224l12.407-40.407
		l16.091,4.94l-12.244,39.871c-3.4,11.086-6.713,16.134-12.238,18.84c-4.823,2.334-11.3,2.4-18.453,0.203
		c-14.662-4.5-19.355-14.062-14.586-29.911l0.952-3.423L389.474,62.84z"/>
	<path d="M449.986,40.414l44.443,25.14l-6.77,11.966l-29.465-16.668l-5.847,10.335l26.94,15.241l-6.629,11.72l-26.94-15.241
		l-7.093,12.535l30.443,17.222l-6.77,11.964L416.88,98.935L449.986,40.414z"/>
	<path d="M503.983,110.561l10.563-11.118l9.694,9.213c4.745,4.51,5.371,8.333,1.891,11.992c-3.798,3.999-7.713,3.634-12.863-1.261
		L503.983,110.561z M465.167,126.694l12.338,11.723l17.329-18.233l8.34,7.924c5.219,4.961,4.979,8.607-0.946,14.974
		c-5.084,5.486-6.487,7.507-8.185,11.055l13.082,12.435l1.612-1.695c-0.461-2.501-0.153-3.369,2.61-6.548l5.338-6.023
		c4.758-5.412,6.638-9.428,5.64-12.313c-0.937-2.952-1.01-3.283-0.559-3.757c0.517-0.542,1.112-0.491,3.842,0.168
		c4.389,0.946,10.285-1.319,14.407-5.659c3.287-3.458,5.233-7.54,5.462-11.583c0.308-6.158-2.603-11.377-10.67-19.043
		l-23.316-22.162L465.167,126.694z"/>
	<path d="M567.549,135.514l9.683,15.894c-8.668,15.792-13.294,24.195-15.481,28.154c-1.76,3.043-3.265,5.603-4.6,7.729l-4.379,6.83
		l2.746-1.782c7.632-5.087,5.685-3.793,6.832-4.602c4.297-2.834,9.039-5.835,12.234-7.779l14.616-8.903l8.658,14.216l-57.421,34.98
		l-9.632-15.814c7.81-14.501,12.831-23.693,15.242-28.007c1.567-2.817,2.964-5.2,4.881-8.341l3.792-6.361
		c-8.222,5.558-5.988,4.195-6.863,4.73c-4.358,3.094-8.223,5.557-11.737,7.698l-17.331,10.557l-8.659-14.217L567.549,135.514z"/>
	<path d="M607.407,207.988l14.674,48.906l-13.167,3.949l-9.729-32.421l-11.375,3.413l8.897,29.647l-12.898,3.871l-8.899-29.648
		l-13.791,4.14l10.054,33.498l-13.169,3.951l-14.998-49.979L607.407,207.988z"/>
	<path d="M599.296,299.203c1.798-0.031,3.532,0.227,5.202,0.784c1.668,0.554,3.201,1.38,4.593,2.474
		c1.864,1.472,3.322,3.25,4.367,5.338c1.042,2.085,1.587,4.295,1.633,6.628c0.037,1.984-0.326,3.945-1.09,5.88
		c-0.761,1.934-1.836,3.631-3.223,5.099c-1.398,1.452-3.065,2.603-5.001,3.451c-1.935,0.85-3.902,1.294-5.9,1.331
		c-1.758,0.034-3.49-0.242-5.191-0.823c-1.703-0.582-3.27-1.433-4.703-2.551c-1.838-1.433-3.268-3.176-4.287-5.227
		c-1.016-2.057-1.544-4.262-1.59-6.621c-0.033-1.786,0.231-3.509,0.792-5.173c0.561-1.664,1.394-3.206,2.501-4.626
		c1.458-1.88,3.215-3.334,5.273-4.358C594.732,299.784,596.94,299.249,599.296,299.203z"/>
</g>
</svg>
