<svg xmlns="http://www.w3.org/2000/svg" width="1000" height="1000" viewBox="0 0 1000 1000"><g transform="translate(-31.774 -25.816)scale(3.00496)"><circle cx="168.646" cy="166.663" r="158.072" fill="#0066b3"/><path fill="#fff" d="m77.172 234.493 12.551 13.474c3.746 4.02 4.762 9.559.421 13.603-2.38 2.217-5.907 3.459-8.962 1.923 1.059 2.618.045 5.784-2.578 8.708-1.036 1.145-3.739 3.722-4.201 5.355l-6.591-7.073c.829-1.434 1.898-2.669 2.999-3.876 2.006-2.23 4.109-4.55 1.503-7.347l-3.504-3.762-8.006 7.46-6.591-7.075zm-3.442 16.421 3.444 3.698c1.229 1.318 3.131 2.909 5.189.992 1.447-1.349 1.534-2.931-.982-5.631l-3.086-3.313zM110.822 263.418c8.138 4.974 10 14.146 5.005 22.321s-14.008 10.703-22.146 5.731c-8.137-4.973-10-14.146-5.004-22.32 4.995-8.176 14.008-10.704 22.145-5.732m-13.06 21.377c2.098 1.282 6.172 1.867 9.815-4.096 3.644-5.964 1.267-9.322-.834-10.604s-6.172-1.868-9.815 4.097c-3.645 5.961-1.267 9.321.834 10.603M126.977 294.685c-.225.757-.299 1.469-.251 2.08.135 2.009 2.045 2.989 3.772 3.502 1.516.451 3.983.635 4.647-1.597.462-1.56-.718-2.369-5.461-5.383-4.359-2.762-9.403-5.683-7.602-11.749 2.066-6.95 8.894-8.175 15.086-6.334 6.529 1.939 11.561 6.14 9.635 13.545l-8.762-2.604c.507-1.088.227-1.996-.38-2.728-.596-.774-1.587-1.295-2.513-1.572-1.264-.375-3.428-.652-3.929 1.032-.469 2.199 3.69 3.94 7.593 6.384s7.527 5.675 5.887 11.193c-2.329 7.834-10.282 8.221-16.98 6.232-3.412-1.016-12.779-5.129-10.009-14.758zM151.492 280.161l9.665.283-.316 10.808.088.002 8.925-10.554 11.905.348-11.736 11.922 12.663 19.497-12.037-.352-7.373-12.438-2.767 2.864-.271 9.27-9.664-.282zM183.34 279.833l9.533-1.606 5.214 30.939-9.532 1.607zM196.21 277.951l9.118-3.207 7.736 22.013 13.099-4.605 2.665 7.586-22.217 7.81zM220.032 269.651l13.175-8.845c8.688-5.829 16.064-1.464 20.474 5.106 5.365 7.991 4.537 15.907-4.55 22.008l-11.606 7.788zm21.039 13.991 3.139-2.108c5-3.355 3.009-7.897 1.369-10.342-1.103-1.643-4.676-5.86-10.479-1.966l-2.554 1.717zM245.885 251.667l17.055-19.589 6.066 5.281-10.706 12.296 2.95 2.568 9.725-11.169 5.634 4.905-9.726 11.17 2.95 2.568 11.024-12.66 6.067 5.278-17.375 19.953zM31.427 204.775l-1.626-9.53 10.655-1.819-.015-.087-12.105-6.669-2.004-11.738 14.001 9.155 16.614-16.254 2.027 11.867-10.739 9.68 3.352 2.145 9.14-1.559 1.626 9.528z"/><path fill="#fff" d="m26.553 165.109 2.2-24.156 8.009.73-1.325 14.529 3.895.354 1.136-12.472 7.439.68-1.136 12.47 11.903 1.085-.877 9.628zM57.825 112.726c8.216 2.87 10.606 8.686 7.446 17.729-3.159 9.045-8.667 12.149-16.881 9.279l-18.172-6.348 3.189-9.126 16.138 5.638c3.029 1.058 6.804 2.376 8.355-2.062 1.507-4.316-2.268-5.634-5.298-6.693l-16.139-5.636 3.189-9.129zM45.038 95.071l8.374-10.916 17.376 7.679.052-.07-11.918-14.793 8.374-10.917 24.901 19.102-5.564 7.255-15.974-12.254-.054.069 12.656 16.577-4.388 5.72-19.29-7.928-.054.069 15.973 12.252-5.564 7.255zM73.262 59.546l7.015-5.859 4.422 5.294c2.647 3.17 3.986 7.034 1.801 10.519-.876 1.417-1.92 2.29-2.563 2.827l-2.449-2.935c1.539-1.515 1.604-3.973.353-5.677l-3.001 2.507zM102.681 65.367c.407.679.883 1.214 1.366 1.59 1.575 1.258 3.587.511 5.131-.418 1.356-.814 3.157-2.512 1.957-4.508-.837-1.393-2.231-1.069-7.657.397-4.982 1.353-10.542 3.104-13.803-2.32-3.734-6.215-.03-12.08 5.508-15.409 5.839-3.508 12.334-4.387 16.499 2.032l-7.835 4.709c-.461-1.109-1.319-1.515-2.269-1.56-.973-.082-2.028.294-2.856.793-1.13.678-2.794 2.089-1.889 3.596 1.305 1.83 5.395-.063 9.834-1.295 4.438-1.231 9.269-1.725 12.233 3.21 4.212 7.006-.873 13.136-6.863 16.736-3.051 1.834-12.408 5.97-17.645-2.574zM133.21 28.841l16.98-2.637c8.165-1.267 10.616 3.065 11.108 6.236.485 3.125-.771 5.055-2.876 6.672 2.927.525 5.876 2.333 6.584 6.894.965 6.209-3.921 10.26-9.393 11.109l-17.588 2.732zm13.222 22.14 5.603-.87c1.997-.31 3.647-1.145 3.276-3.532-.284-1.825-1.524-2.656-3.783-2.305l-5.992.932zm-1.792-11.552 5.037-.781c1.997-.311 3.17-1.071 2.859-3.068-.244-1.563-1.634-1.925-3.588-1.621l-5.037.781zM187.198 25.51c9.456 1.237 14.885 8.86 13.643 18.361-1.242 9.499-8.451 15.47-17.907 14.232-9.455-1.237-14.885-8.861-13.642-18.36s8.449-15.471 17.906-14.233m-3.249 24.837c2.44.32 6.398-.803 7.306-7.73.905-6.929-2.63-9.032-5.071-9.351s-6.398.803-7.305 7.731 2.63 9.031 5.07 9.35M212.703 31.571l8.927 3.714-8.962 21.545 12.82 5.334-3.088 7.426-21.748-9.047zM243.68 45.625l12.55 9.705c8.273 6.398 6.461 14.775 1.623 21.032-5.886 7.613-13.656 9.326-22.312 2.632l-11.055-8.548zm-6.626 24.373 2.989 2.312c4.763 3.683 8.442.363 10.243-1.966 1.21-1.565 4.083-6.287-1.444-10.561l-2.433-1.882zM275.099 72.144l5.669 7.831-8.758 6.338.052.072 13.807.64 6.982 9.647-16.606-2.031-7.73 21.923-7.059-9.754 5.361-13.429-3.958-.445-7.51 5.435-5.669-7.832z"/><path fill="#fff" d="m296.948 105.485 3.454 9.028-21.793 8.339 4.962 12.968-7.512 2.875-8.417-21.997zM291.896 167.737c-8.65.93-13.303-3.298-14.327-12.822-1.022-9.523 2.622-14.689 11.271-15.617l19.135-2.056 1.033 9.61-16.994 1.826c-3.189.343-7.164.771-6.663 5.445.49 4.543 4.464 4.116 7.655 3.772l16.993-1.826 1.033 9.612zM310.612 177.136l-2.9 16.936c-1.395 8.143-6.281 9.09-9.443 8.549-3.12-.535-4.549-2.338-5.41-4.85-1.43 2.608-4.083 4.829-8.631 4.051-6.194-1.061-8.48-6.979-7.546-12.438l3.003-17.543zm-25.195 5.494-.957 5.587c-.341 1.993-.075 3.82 2.307 4.229 1.819.312 3.003-.601 3.388-2.854l1.023-5.977zm11.521 1.973-.86 5.024c-.34 1.993.008 3.344 1.999 3.685 1.56.267 2.346-.936 2.678-2.884l.861-5.024z"/><path fill="#0066b3" stroke="#fff" stroke-width="7.326" d="M168.646 260.835c52.008 0 94.17-42.164 94.17-94.172s-42.163-94.17-94.17-94.17-94.172 42.162-94.172 94.17 42.165 94.172 94.172 94.172z"/><path fill="#0066b3" stroke="#fff" stroke-width="7.326" d="M94.612 123.304h148.067l-74.033 128.229Z"/></g></svg>