<svg xmlns="http://www.w3.org/2000/svg" xml:space="preserve" viewBox="0 0 660 660"><path d="M576.604 248.784c-29.006-14.749-50.381-50.496-57.774-93.797a200 200 0 0 1-2.838-33.664c0-17.365 2.196-34.329 6.526-50.425l1.511-5.617-69.859-60.59-5.979 8.03c-1.124 1.514-2.243 2.936-3.365 4.405-71.058 92.941-133.531 95.151-134.164 95.161l-11.609.446c-3.412.137-84.608 2.256-194.548-89.358l-10.33-8.607-4.395 12.708c-1.294 3.74-31.568 92.99-20.104 212.981 5.484 57.389 19.69 112.021 42.314 162.91a505 505 0 0 0 16.878 34.389c12.042 22.347 25.869 43.85 41.355 64.514 36.762 49.052 83.059 93.257 138.396 131.927l5.014 3.504 5.2-3.226c94.92-58.851 165.213-124.751 208.927-195.864 35.399-57.595 53.541-118.659 53.922-181.492l.037-5.735z" style="fill:#004785"/><path d="M503.234 71.838c-6.269-5.437-36.033-31.253-46.313-40.165-7.979 10.231-15.852 19.348-23.573 27.576-9.835 31.037-25.273 70.354-49.074 111.814-59.252 103.216-144.867 178.78-255.041 225.343a486 486 0 0 0 16.221 32.962c12.233 22.643 26.365 44.413 42.304 65.273 157.529-71.134 247.873-183.406 297.625-271.688a679 679 0 0 0 20.994-40.379c-5.789-18.932-8.962-39.71-8.962-61.251a213.7 213.7 0 0 1 5.819-49.485" style="fill:#fff"/><path d="m191.636 398.464 10.442-4.596 4.919 55.637-9.508 4.186-37.646-41.227 10.753-4.734 26.664 32.137zM250.106 418.19q-5.663 3.306-11.448 1.105-5.785-2.198-10.265-9.87-4.479-7.668-3.552-13.791.927-6.117 6.592-9.422 5.626-3.288 11.374-1.047c3.832 1.495 7.236 4.786 10.21 9.881q4.48 7.671 3.596 13.762-.882 6.094-6.507 9.382m12.383-28.673q-7.313-12.523-17.852-14.794-8.238-2.314-17.985 3.375-9.749 5.694-11.808 14.027-3.232 10.308 4.079 22.831 7.17 12.277 17.878 14.777 8.272 2.299 18.021-3.391 9.745-5.69 11.778-14.01c2.038-7.022.668-14.63-4.111-22.815M279.308 355.615q2.685-2.036 4.605-2.318 3.41-.518 6.311 3.311c1.79 2.36 2.155 4.574 1.098 6.63-.595 1.175-1.827 2.466-3.686 3.876l-9.447 7.153-8.569-11.313zm-3.75-8.651-20.004 15.156 31.943 42.167 8.536-6.467-12.545-16.558 8.549-6.476q3.64-2.757 5.996-2.423 2.355.338 5.466 4.334l3.034 3.879a25.4 25.4 0 0 0 3.138 3.349q.827.727 2.302 1.819l9.669-7.323-.805-1.06q-1.856.192-3.442-1.18-1.011-.856-3.204-3.749l-2.148-2.837c-2.24-2.959-4.314-4.852-6.214-5.684-1.903-.832-4.105-.91-6.62-.245q2.52-3.79 1.825-7.832c-.463-2.69-1.451-5.039-2.966-7.035-1.253-1.656-2.635-2.935-4.133-3.84a16.4 16.4 0 0 0-4.794-1.941 13.1 13.1 0 0 0-6.148.023q-3.066.749-7.435 3.923M311.803 316.342l26.058-26.677 6.551 6.402-18.392 18.828 8.767 8.568 16.141-16.524 6.553 6.402-16.141 16.521 15.877 15.506-7.665 7.846zM364.09 271.92c1.4-1.754 2.701-2.88 3.893-3.378 2.126-.891 4.433-.334 6.932 1.666q3.471 2.781 2.688 6.163-.435 1.924-2.627 4.657l-7.403 9.25-11.082-8.868zm-5.759-7.469-15.684 19.591 41.294 33.062 6.693-8.36-16.213-12.982 6.701-8.373q2.854-3.561 5.219-3.813 2.367-.251 6.366 2.859l3.888 3.019a26 26 0 0 0 3.859 2.482q.984.5 2.68 1.198l7.581-9.468-1.039-.832q-1.75.64-3.627-.302-1.19-.58-4.024-2.847l-2.777-2.227q-4.35-3.48-7.416-3.99-3.072-.509-6.477 1.39 1.509-4.3-.149-8.045c-1.109-2.495-2.643-4.53-4.602-6.097q-2.435-1.947-4.943-2.71a16.4 16.4 0 0 0-5.126-.707 13.04 13.04 0 0 0-5.955 1.528q-2.786 1.474-6.249 5.624M374.772 243.01l6.11-9.42 27.183 17.627c3.046 1.969 5.495 3.05 7.358 3.238 3.207.493 6.021-1.13 8.439-4.859q3.61-5.57.977-9.66-1.401-2.435-5.964-5.395l-27.186-17.623 6.107-9.417 27.247 17.662q7.068 4.583 9.583 9.332 4.587 8.739-2.857 20.224c-4.968 7.661-10.736 11.29-17.315 10.896q-5.364-.356-12.431-4.94zM429.042 169.099l-12.694 24.083 9.932 5.236 11.608-22.032 8.106 4.273-11.614 22.029 12.098 6.377 13.296-25.227 8.335 4.393-18.292 34.698-46.794-24.665 17.685-33.559z"/><path d="M336.308 522.578H321.88v-69.432h14.427zM351.408 453.146h49.455v12.205h-35.029v16.011h30.753v11.888h-30.753v29.328h-14.426zM467.75 409.697l-5.187-2.618q1.643-3.645 2.046-5.232.649-2.519-.124-4.7c-.354-.992-1.012-1.946-1.98-2.852q-.873-.807-1.37-1.058l3.201-6.346 38.44 19.389-3.923 7.774-26.55-13.387zM492.984 379.004q-1.436 2.85-3.827 3.366-2.388.514-5.789-1.2-4.026-2.031-4.63-5.037-.39-1.91.576-3.829 1.325-2.624 3.987-3.18c1.77-.37 3.737-.013 5.894 1.079 2.686 1.355 4.14 3.17 4.352 5.448q.216 1.81-.563 3.353m-12.857 10.287q5.956 3.002 10.903 1.058 4.95-1.942 7.251-6.512c1.038-2.058 1.491-4.007 1.349-5.847q-.107-1.51-.887-3.2 4.259 2.42 6.127 4.388 3.368 3.596 1.481 7.336c-.651 1.286-1.528 2.146-2.633 2.563q-1.658.628-3.495.03l-3.788 7.512c3.439 1.311 6.584 1.244 9.45-.201q4.299-2.166 6.483-6.496c3.057-6.058 2.201-11.707-2.561-16.958q-3.757-4.129-10.714-7.637c-4.78-2.408-8.945-3.736-12.495-3.971q-9.396-.648-13.822 8.128-2.877 5.705-.848 11.197 2.032 5.498 8.199 8.61M513.36 366.403q-3.05-3.564-4.324-11.738c-.745-4.728-1.398-7.872-1.959-9.442q-1.325-3.613-4.311-5.126-2.431-1.223-4.725-.689c-1.525.356-2.712 1.372-3.553 3.045-1.159 2.289-1.09 4.281.193 5.964.745.974 2.163 2.042 4.262 3.21l-3.699 7.331q-4.81-2.66-7.027-5.775-4.23-5.925-.336-13.641 3.078-6.1 8.278-8.003 5.201-1.902 10.774.906c2.848 1.438 4.947 3.562 6.299 6.381.909 1.855 1.615 4.518 2.133 7.978l.624 4.115q.582 3.867.961 5.363a9.5 9.5 0 0 0 1.212 2.819l8.483-16.826 6.705 3.381-13.299 26.376q-4.104-2.21-6.691-5.629M523.684 318.128c-.96 1.9-2.233 3.022-3.829 3.364-1.592.345-3.517-.056-5.785-1.2q-4.026-2.031-4.627-5.034-.391-1.911.575-3.831c.879-1.75 2.209-2.808 3.981-3.18 1.775-.367 3.736-.008 5.898 1.082q4.028 2.033 4.354 5.446.212 1.812-.567 3.353m-12.86 10.285q5.957 3.003 10.909 1.063 4.944-1.943 7.253-6.512 1.555-3.09 1.347-5.85-.105-1.507-.891-3.195c2.841 1.612 4.886 3.072 6.127 4.384q3.37 3.597 1.483 7.334-.974 1.936-2.631 2.565c-1.105.417-2.269.429-3.5.032l-3.784 7.508q5.153 1.968 9.451-.199c2.867-1.446 5.026-3.611 6.485-6.498q4.584-9.087-2.564-16.958-3.756-4.128-10.716-7.638-7.163-3.61-12.492-3.974-9.393-.645-13.823 8.133c-1.915 3.799-2.198 7.534-.846 11.196q2.024 5.5 8.192 8.609" style="fill:#fff"/></svg>