<svg id="Layer_1" data-name="Layer 1" xmlns="http://www.w3.org/2000/svg" xmlns:xlink="http://www.w3.org/1999/xlink" viewBox="0 0 108.11 82.75"><defs><style>.cls-1,.cls-11,.cls-13,.cls-4,.cls-6,.cls-8,.cls-9{fill:none;}.cls-2{clip-path:url(#clip-path);}.cls-3{fill:#1a385b;}.cls-4,.cls-9{stroke:#193e5f;}.cls-11,.cls-13,.cls-4,.cls-6,.cls-8,.cls-9{stroke-miterlimit:3.86;}.cls-4{stroke-width:0.35px;}.cls-5{fill:#e13338;}.cls-6{stroke:#e03d40;}.cls-6,.cls-8,.cls-9{stroke-width:0.05px;}.cls-7{fill:#fbd227;}.cls-8{stroke:#fbd42c;}.cls-10{fill:#e03d40;}.cls-11{stroke:#e13338;}.cls-11,.cls-13{stroke-width:0.04px;}.cls-12{fill:#fbd42c;}.cls-13{stroke:#fbd227;}</style><clipPath id="clip-path" transform="translate(-305.03 -318.92)"><polyline class="cls-1" points="304.88 318.86 413.33 318.86 413.33 401.92 304.88 401.92 304.88 318.86"/></clipPath></defs><title>adelaidecrows [Converted]</title><g class="cls-2"><path class="cls-3" d="M311.3,386.5h4l.2,1.8h5.57l-2.94-14.48h-5.82L305,388.3h5.57Zm1.47-3.44,1.64-4.42h.19c0,.62,0,1.25.06,1.86l.22,2.56Z" transform="translate(-305.03 -318.92)"/><path class="cls-3" d="M322.3,388.3H329a8.16,8.16,0,0,0,8.36-7c.81-5.32-2.58-7.45-7.44-7.45h-5.36Zm6.8-9.94h.32c1.92,0,3,.86,2.65,2.89a3.19,3.19,0,0,1-3.51,2.71h-.33Z" transform="translate(-305.03 -318.92)"/><polygon class="cls-3" points="32.96 69.38 42.85 69.38 43.46 65.43 38.87 65.43 39.09 64 43.14 64 43.72 60.24 39.67 60.24 39.88 58.86 44.31 58.86 44.92 54.9 35.19 54.9 32.96 69.38"/><polygon class="cls-3" points="45.11 69.38 54.79 69.38 55.5 64.74 51.08 64.74 52.6 54.9 47.34 54.9 45.11 69.38"/><path class="cls-3" d="M366.88,386.5h4l.2,1.8h5.57l-2.94-14.48h-5.81l-7.26,14.48h5.56Zm1.47-3.44,1.64-4.42h.2c0,.62,0,1.25.05,1.86l.23,2.56Z" transform="translate(-305.03 -318.92)"/><polygon class="cls-3" points="72.47 69.38 77.73 69.38 79.95 54.9 74.69 54.9 72.47 69.38"/><path class="cls-3" d="M385.3,388.3H392a8.16,8.16,0,0,0,8.36-7c.82-5.32-2.58-7.45-7.44-7.45h-5.36Zm6.79-9.94h.32c1.92,0,3,.86,2.65,2.89S393.3,384,391.55,384h-.33Z" transform="translate(-305.03 -318.92)"/><polygon class="cls-3" points="96.15 69.38 106.04 69.38 106.64 65.43 102.06 65.43 102.27 64 106.33 64 106.91 60.24 102.85 60.24 103.07 58.86 107.5 58.86 108.11 54.9 98.38 54.9 96.15 69.38"/><path class="cls-3" d="M311,319.12c10.81-.38,32,3,34.84,3.58.43.1,3.21,3.07,9,6.25.18.1-16.92-3.52-31.46-4.66C318.41,323.5,310.13,319.15,311,319.12Z" transform="translate(-305.03 -318.92)"/><path class="cls-4" d="M311,319.12c10.81-.38,32,3,34.84,3.58.43.1,3.21,3.07,9,6.25.18.1-16.92-3.52-31.46-4.66C318.41,323.5,310.13,319.15,311,319.12Z" transform="translate(-305.03 -318.92)"/><path class="cls-5" d="M312.42,324.3c10.81-.38,30.73,2.85,33.61,3.46.43.1,3.21,3.07,9,6.25.18.1-18.15-3.68-30.51-4.64C319.44,328.53,311.93,324.31,312.42,324.3Z" transform="translate(-305.03 -318.92)"/><path class="cls-6" d="M312.42,324.3c10.81-.38,30.73,2.85,33.61,3.46.43.1,3.21,3.07,9,6.25.18.1-18.15-3.68-30.51-4.64C319.44,328.53,311.93,324.31,312.42,324.3Z" transform="translate(-305.03 -318.92)"/><path class="cls-7" d="M314.62,329.5c10.82-.38,30.54,3.13,33.41,3.74.43.09,2.57,2.6,8,6.07.17.1-15.78-3.61-29.1-4.64C322,333.88,313.75,329.53,314.62,329.5Z" transform="translate(-305.03 -318.92)"/><path class="cls-8" d="M314.62,329.5c10.82-.38,30.54,3.13,33.41,3.74.43.09,2.57,2.6,8,6.07.17.1-15.78-3.61-29.1-4.64C322,333.88,313.75,329.53,314.62,329.5Z" transform="translate(-305.03 -318.92)"/><path class="cls-3" d="M317.25,334.53c10.77,0,30.34,3.51,33.21,4.12.43.09,2.68,3.08,8.43,6.27a240.66,240.66,0,0,0-30-5C324.83,339.39,316.37,334.53,317.25,334.53Z" transform="translate(-305.03 -318.92)"/><path class="cls-9" d="M317.25,334.53c10.77,0,30.34,3.51,33.21,4.12.43.09,2.68,3.08,8.43,6.27a240.66,240.66,0,0,0-30-5C324.83,339.39,316.37,334.53,317.25,334.53Z" transform="translate(-305.03 -318.92)"/><path class="cls-5" d="M322.4,339.89c12.92.57,30.41,4.2,33.28,4.82.43.09,2.24,3,8.23,6.53a160.94,160.94,0,0,0-31.51-6C328.32,344.65,321.52,339.86,322.4,339.89Z" transform="translate(-305.03 -318.92)"/><path class="cls-6" d="M322.4,339.89c12.92.57,30.41,4.2,33.28,4.82.43.09,2.24,3,8.23,6.53a160.94,160.94,0,0,0-31.51-6C328.32,344.65,321.52,339.86,322.4,339.89Z" transform="translate(-305.03 -318.92)"/><path class="cls-7" d="M316,344.49c10.52.59,16.34.6,32.65,3.56a44.51,44.51,0,0,1,3.11,4.95c-11.29-1.89-20.17-3.45-32.56-3.92a19,19,0,0,1-1.57-2.16A20.78,20.78,0,0,1,316,344.49Z" transform="translate(-305.03 -318.92)"/><path class="cls-8" d="M316,344.49c10.52.59,16.34.6,32.65,3.56a44.51,44.51,0,0,1,3.11,4.95c-11.29-1.89-20.17-3.45-32.56-3.92a19,19,0,0,1-1.57-2.16A20.78,20.78,0,0,1,316,344.49Z" transform="translate(-305.03 -318.92)"/><path class="cls-3" d="M319.7,349.54c10.52.59,16,1.2,32.35,4.14a49.63,49.63,0,0,1,3.27,5.14,241.23,241.23,0,0,0-32.42-4.7,19,19,0,0,1-1.57-2.16A22.18,22.18,0,0,1,319.7,349.54Z" transform="translate(-305.03 -318.92)"/><path class="cls-9" d="M319.7,349.54c10.52.59,16,1.2,32.35,4.14a49.63,49.63,0,0,1,3.27,5.14,241.23,241.23,0,0,0-32.42-4.7,19,19,0,0,1-1.57-2.16A22.18,22.18,0,0,1,319.7,349.54Z" transform="translate(-305.03 -318.92)"/><path class="cls-3" d="M379.54,333c-12.71-6.76-32.68-10.49-32.08-9.92a29.58,29.58,0,0,0,9.33,6c2.89,1.31,4.7,1.58,7.72,2.56a75.93,75.93,0,0,1,9.5,3.91l-.77.16a68.38,68.38,0,0,0-10.28-4c-6.18-1.92-15.28-3.89-15.08-3.61,1.43,2.09,6.91,5.36,10.5,6.62,1.1.39,3.57,1.09,5.82,1.85,2,.69,5.13,1.85,5.13,1.85l-.41.34s-4.27-1.67-9.23-3.1-10.49-2.46-10.26-2.23c6.43,6.75,17.14,9.12,17.14,9.12l-.22.48s-14.89-4.68-14.25-4c4.47,5.07,13.62,8.17,13.62,8.17l0,.5s-8.61-2.89-8.41-2.53c1.3,2.39,8.38,6.37,8.38,6.37l-1.43.37a96,96,0,0,0-14.88-3.85c-.13,0,6.78,10.83,6.84,11.15l8.71-2.68s.92,1,1.57,1.52a22.4,22.4,0,0,0,3.82,2.26l1.93,5.11,3.81,2.05L374.33,370l1.6,1.76.14-2.14,2.16-.93,2.11,1,0,2.29,1.66-2.88-2.36-1.89-2.46-.24-3.14-2.72.29-2.35,1.67.35,1.61.33,2.81,4.12,4.2,1.29-1.34,2.77,1.86,1.42-.17-2.07,1.87-1.45,2.31.66.44,2,1.07-3-2.55-1.3-2.39.19L382,365.07l-.23-2.08a43.47,43.47,0,0,0,6.66-.33,44.38,44.38,0,0,0,5.28-1.47s1.45,2,2.51,3.22,3.2,3.09,3.2,3.09l-2.59-6.9,8.89,5.5a29.6,29.6,0,0,0-3.09-5.19,40.51,40.51,0,0,0-3-3.34s0-2.53-6.15-5.07a9.79,9.79,0,0,0-2.15-.45s-2.51-.94-4.15-1.41c-1.33-.37-3.44-.83-3.44-.83s4.77-1.47,6-4C391.74,341.69,390.84,339,379.54,333Z" transform="translate(-305.03 -318.92)"/><path class="cls-10" d="M395.63,355.8a10,10,0,0,1,1.59.81,10.29,10.29,0,0,1,1,.9l-.86.62s-.32-.57-.56-.91C396.38,356.63,395.63,355.8,395.63,355.8Z" transform="translate(-305.03 -318.92)"/><path class="cls-11" d="M395.63,355.8a10,10,0,0,1,1.59.81,10.29,10.29,0,0,1,1,.9l-.86.62s-.32-.57-.56-.91C396.38,356.63,395.63,355.8,395.63,355.8Z" transform="translate(-305.03 -318.92)"/><path class="cls-12" d="M403.35,363.35s-1.19-1.74-2.05-2.77-2.09-2.25-2.09-2.25l-.85.81s1.18.88,1.9,1.48C401.51,361.63,403.35,363.35,403.35,363.35Z" transform="translate(-305.03 -318.92)"/><path class="cls-13" d="M403.35,363.35s-1.19-1.74-2.05-2.77-2.09-2.25-2.09-2.25l-.85.81s1.18.88,1.9,1.48C401.51,361.63,403.35,363.35,403.35,363.35Z" transform="translate(-305.03 -318.92)"/><path class="cls-3" d="M313.41,373.82l-2.61,0a1.25,1.25,0,0,1,.81.54c.28.5-.22,1.28-.22,1.28Z" transform="translate(-305.03 -318.92)"/><path class="cls-3" d="M326.1,373.82l-2.6,0a1,1,0,0,1,.71.47,2.32,2.32,0,0,1,0,1.42Z" transform="translate(-305.03 -318.92)"/><path class="cls-3" d="M341.79,373.82l-2.61,0a1,1,0,0,1,.72.47,2.32,2.32,0,0,1,0,1.42Z" transform="translate(-305.03 -318.92)"/><path class="cls-3" d="M389.13,373.82l-2.61,0a1,1,0,0,1,.71.47,2.32,2.32,0,0,1,0,1.42Z" transform="translate(-305.03 -318.92)"/><path class="cls-3" d="M405,373.82l-2.61,0a1,1,0,0,1,.71.47,2.35,2.35,0,0,1,.05,1.42Z" transform="translate(-305.03 -318.92)"/><path class="cls-3" d="M369,373.82l-2.6,0a1.22,1.22,0,0,1,.8.54c.28.5-.22,1.28-.22,1.28Z" transform="translate(-305.03 -318.92)"/><path class="cls-3" d="M341.86,390.7l-1.42,0a.44.44,0,0,1,.36.24,1.54,1.54,0,0,1,.06.82Z" transform="translate(-305.03 -318.92)"/><path class="cls-3" d="M338.89,391a7.55,7.55,0,0,0-2.57-.45,6.8,6.8,0,0,0-6.52,5.68,4.54,4.54,0,0,0,4.65,5.47,9.36,9.36,0,0,0,2.86-.43l.74-4a3.69,3.69,0,0,1-2.41,1,1.81,1.81,0,0,1-1.87-2.11,2.56,2.56,0,0,1,2.46-2.11,2.94,2.94,0,0,1,2.14,1.09Z" transform="translate(-305.03 -318.92)"/><path class="cls-3" d="M339.35,401.5h3.84l.53-3.47h.08L345,401.5h4.53L347.7,398a2.15,2.15,0,0,0-.56-.64v-.09a3.1,3.1,0,0,0,2.53-2.81c.41-2.72-1.49-3.75-3.92-3.75H341Zm5-7.85h.3c.67,0,1.24.1,1.12.93s-.79.9-1.43.9h-.27Z" transform="translate(-305.03 -318.92)"/><path class="cls-3" d="M357.41,390.52a6.77,6.77,0,0,0-6.83,5.61c-.54,3.47,1.82,5.54,5.12,5.54a6.65,6.65,0,0,0,6.83-5.54C363.05,392.73,360.7,390.52,357.41,390.52Zm-.54,3.56a1.68,1.68,0,0,1,1.69,2.11,2.35,2.35,0,0,1-2.34,2.07,1.64,1.64,0,0,1-1.7-2.07A2.41,2.41,0,0,1,356.87,394.08Z" transform="translate(-305.03 -318.92)"/><path class="cls-3" d="M363.21,390.7l2.12,10.8h3.34l1.74-4.24a11,11,0,0,0,.46-1.64H371l.32,5.88h3.43l5.47-10.8h-4.08l-1.79,4.54a14.37,14.37,0,0,0-.56,1.91h-.09l-.49-6.45h-3l-1.84,4.45a14.47,14.47,0,0,0-.63,2h-.09l-.37-6.45Z" transform="translate(-305.03 -318.92)"/><path class="cls-3" d="M378.83,400.69a8.9,8.9,0,0,0,4,1c2.33,0,4.88-1.28,5.28-3.85.28-1.83-.79-2.72-2.39-3.1l-.86-.2c-.29-.07-.77-.12-.71-.53s.59-.57.94-.57a3.52,3.52,0,0,1,2.15.82l1.48-2.77a5.63,5.63,0,0,0-3.27-1c-2.35,0-4.91,1.44-5.3,4-.26,1.69.89,2.6,2.38,2.87l.76.14c.35.07.86.11.78.6s-.71.65-1.1.65a3.46,3.46,0,0,1-2.29-1l-.18-.16Z" transform="translate(-305.03 -318.92)"/><path class="cls-3" d="M327.61,355.89a1.59,1.59,0,0,1,0,2.24,1.57,1.57,0,0,1-2.24,0,1.59,1.59,0,0,1,1.12-2.71A1.54,1.54,0,0,1,327.61,355.89Zm.18-.18a1.83,1.83,0,0,0-2.6,0,1.79,1.79,0,0,0-.53,1.29,1.84,1.84,0,1,0,3.13-1.29Zm-1,1.21a.94.94,0,0,1-.34.05h-.32v-.73h.31a1,1,0,0,1,.43.07.32.32,0,0,1,.13.29A.31.31,0,0,1,326.76,356.92Zm-1,1.09h.35v-.8h.28a.89.89,0,0,1,.4.07c.13.07.19.23.19.47V358h.33v0a.27.27,0,0,1,0-.11v-.3a.53.53,0,0,0-.12-.31.47.47,0,0,0-.34-.2.9.9,0,0,0,.29-.09.45.45,0,0,0,.2-.4.49.49,0,0,0-.32-.51,1.45,1.45,0,0,0-.55-.07h-.7Z" transform="translate(-305.03 -318.92)"/></g></svg>