<?xml version="1.0" encoding="iso-8859-1"?>
<!-- Generator: Adobe Illustrator 24.0.1, SVG Export Plug-In . SVG Version: 6.00 Build 0)  -->
<svg version="1.1" id="Layer_1" xmlns="http://www.w3.org/2000/svg" xmlns:xlink="http://www.w3.org/1999/xlink" x="0px" y="0px"
	 viewBox="0 0 660 660" style="enable-background:new 0 0 660 660;" xml:space="preserve">
<path d="M504.752,119.382c0,0-57.6-98.991-191.875-98.991c-134.275,0-191.874,98.991-191.874,98.991
	c-3.193,23.37,4.789,124.638,17.563,190.296c12.773,65.655,35.924,170.266,90.209,250.388c49.71,73.373,84.102,97.401,84.102,97.401
	s34.393-24.027,84.102-97.401c54.285-80.122,77.436-184.733,90.21-250.388C499.96,244.02,507.944,142.752,504.752,119.382z"/>
<path style="fill:#FFF799;" d="M479.159,125.459c0,0-49.917-94.136-166.282-94.136c-116.364,0-166.281,94.136-166.281,94.136
	c-2.768,22.224,4.15,118.527,15.219,180.966c11.07,62.438,31.133,161.915,78.177,238.111c43.08,69.772,72.884,92.624,72.884,92.624
	s29.805-22.851,72.884-92.624c47.044-76.196,67.108-175.674,78.178-238.111C475.008,243.986,481.927,147.683,479.159,125.459z"/>
<g>
	<path d="M169.562,140.738l2.131-1.645c2.393-1.848,5.223-3.656,6.298-0.396c1.005,3.048-1.507,5.524-4.05,7.491l-2.057,1.586
		L169.562,140.738z M166.797,158.808l10.995-8.488c4.673-3.611,9.675-9.355,7.31-16.519c-1.204-3.648-3.705-4.407-7.453-2.536
		l-0.027-0.086c2.548-3.369,3.537-6.769,2.29-10.546c-1.696-5.146-6.132-4.793-10.993-1.037l-12.003,9.268L166.797,158.808z
		 M165.74,129.154l2.019-1.559c2.318-1.789,4.647-3.263,5.552-0.519c0.836,2.531-1.308,4.993-3.588,6.753l-1.944,1.503
		L165.74,129.154z"/>
	<path d="M200.629,106.284l1.949-0.989c2.824-1.431,5.526-2.194,6.169,0.771c0.782,3.601-2.221,5.225-4.607,6.436l-1.949,0.989
		L200.629,106.284z M198.831,135.853l7.395-3.752l-2.729-12.588l1.55-0.788c2.745-1.391,3.995-0.506,6.692,4.201l2.836,4.94
		l7.713-3.912l-4.582-7.295c-2.232-3.173-2.914-5.508-5.459-5.028l-0.02-0.092c3.371-2.771,4.507-6.488,3.588-10.728
		c-1.186-5.475-5.755-5.992-10.686-3.493l-13.2,6.694L198.831,135.853z"/>
	<path d="M247.94,101.447l-7.192,2.173l2.037-13.988l0.083-0.025L247.94,101.447z M230.665,120.433l7.767-2.349l1.352-7.708
		l10.767-3.251l3.043,6.378l8.384-2.533l-15.302-29.569l-9.369,2.832L230.665,120.433z"/>
	<path d="M270.869,75.251l12.246-1.279l7.178,21.601l0.083-0.01l5.485-22.922l11.785-1.232l1.495,33.465l-7.606,0.796l-1.022-25.713
		l-0.084,0.009l-6.29,26.475l-7.146,0.747l-8.251-24.956l-0.085,0.009l1.316,25.68l-7.606,0.794L270.869,75.251z"/>
	<path d="M322.42,97.048c1.976,1.371,4.756,2.503,7.978,2.703c2.47,0.151,4.829-0.282,4.9-2.972
		c0.163-6.241-13.751-3.152-13.432-15.347c0.211-8.066,7.133-9.855,12.994-9.496c2.804,0.171,5.553,0.823,7.5,1.713l-0.683,6.882
		c-1.982-1.181-4.23-1.797-6.448-1.935c-1.967-0.122-5.237-0.13-5.314,2.8c-0.143,5.426,13.766,2.624,13.447,14.724
		c-0.227,8.692-6.651,10.654-13.139,10.255c-2.721-0.165-6.098-0.855-8.668-1.976L322.42,97.048z"/>
	<path d="M358.688,74.878l9.83,2.131l7.7,24.671l0.082,0.018l1.963-22.581l7.051,1.529l-3.072,33.211l-9.581-2.076l-8.02-24.886
		l-0.083-0.019l-1.852,22.75l-7.093-1.536L358.688,74.878z"/>
	<path d="M414.257,111.726l-5.958-2.614l8.065-10.71l0.363,0.16L414.257,111.726z M392.456,116.211l7.851,3.445l4.231-5.596
		l8.576,3.764l-1.29,6.884l19.488,8.547l1.143-6.096l-11.999-5.266l1.367-7.297l10.792,4.733l1.144-6.099l-10.791-4.733l1.246-6.652
		l11.517,5.052l1.142-6.097l-23.674-10.385L392.456,116.211z"/>
	<path d="M444.516,133.011c1.472,2.441,3.743,5.14,6.661,7.241c2.236,1.613,4.519,2.62,5.268,0.184
		c1.739-5.652-11.861-11.095-8.462-22.138c2.248-7.305,9.08-4.828,14.385-1.004c2.538,1.827,4.907,4.065,6.473,6.044l-2.382,5.933
		c-1.525-2.267-3.437-4.176-5.445-5.621c-1.78-1.285-4.792-3.239-5.607-0.587c-1.512,4.911,12.01,10.615,8.638,21.573
		c-2.424,7.869-8.839,5.848-14.715,1.618c-2.462-1.776-5.397-4.421-7.48-6.985L444.516,133.011z"/>
</g>
<g>
	<path d="M427.986,258.195c7.578,3.048,16.184,6.509,16.184,6.509l14.809-86.147c0,0-11.773-4.734-34.851-14.018
		c-39.399-15.846-56.221,8.866-60.095,31.41c-2.269,13.199-4.674,24.947-4.674,24.947l-46.336,269.552l-59.8-208.32l-59.773,40.147
		l62.735,218.543l54.467-36.585l-0.006,0.037l61.599,24.776l25.331-147.355l24.771,9.964l12.859-74.813l-24.77-9.962
		c0.795-4.626,2.361-13.738,4.344-25.269C416.784,269.956,417.696,254.056,427.986,258.195z"/>
	<path d="M242.376,245.081c0,31.071-16.468,56.259-36.779,56.259c-20.311,0-36.777-25.188-36.777-56.259
		c0-31.069,16.466-56.257,36.777-56.257C225.909,188.823,242.376,214.011,242.376,245.081z"/>
</g>
</svg>
