<?xml version="1.0" encoding="iso-8859-1"?>
<!-- Generator: Adobe Illustrator 24.0.1, SVG Export Plug-In . SVG Version: 6.00 Build 0)  -->
<svg version="1.1" id="Layer_1" xmlns="http://www.w3.org/2000/svg" xmlns:xlink="http://www.w3.org/1999/xlink" x="0px" y="0px"
	 viewBox="0 0 660 660" style="enable-background:new 0 0 660 660;" xml:space="preserve">
<path style="fill:#6C8CC7;" d="M330.788,38.5c-164.524,0-298.745,134.407-298.745,298.744
	c0,164.709,134.221,299.115,298.745,299.115c164.708,0,298.93-134.406,298.93-299.115C629.718,172.907,495.496,38.5,330.788,38.5z"
	/>
<g>
	<polyline style="fill:none;stroke:#0095DA;stroke-width:0.5294;" points="555.169,404.54 556.471,401.567 557.401,398.777 	"/>
</g>
<g>
	<line style="fill:none;stroke:#000000;stroke-width:0.3308;" x1="227.619" y1="352.133" x2="227.619" y2="352.927"/>
</g>
<polygon style="fill:#FFFFFF;stroke:#FFFFFF;stroke-width:0.1985;" points="104.174,508.089 107.519,511.434 111.052,513.85 
	115.328,514.407 120.346,513.477 126.295,511.434 132.059,508.089 135.404,505.671 139.681,503.997 143.583,503.811 
	147.674,504.927 153.437,507.531 161.988,511.992 167.565,514.036 173.328,515.337 178.534,515.523 183.924,514.407 
	189.874,511.434 195.823,508.089 201.214,505.114 203.815,503.626 206.791,502.881 210.695,503.253 214.413,505.114 
	220.919,509.388 226.31,512.55 230.028,514.036 233.003,514.407 234.677,514.223 238.951,512.363 242.297,508.831 245.087,505.485 
	249.177,502.325 252.708,500.466 256.613,498.792 260.145,498.606 263.862,499.351 268.695,501.396 264.421,496.935 
	261.447,494.703 258.843,493.772 255.312,493.214 251.965,493.587 248.06,495.261 242.856,498.606 238.395,501.396 235.233,503.253 
	233.003,503.811 230.028,503.626 226.124,501.209 221.849,498.42 215.528,494.331 211.066,492.286 207.349,491.729 202.7,492.1 
	198.239,494.145 190.803,498.978 184.669,502.325 179.091,504.369 173.143,504.369 168.124,502.881 162.732,500.651 151.95,494.703 
	148.232,493.214 143.955,492.471 140.052,493.029 136.335,494.331 130.943,496.562 126.667,499.535 122.02,503.997 116.999,507.531 
	113.654,509.016 110.309,509.388 "/>
<polygon style="fill:#FFFFFF;stroke:#FFFFFF;stroke-width:0.1985;" points="83.166,449.342 86.512,452.875 90.045,455.29 
	94.32,455.849 99.34,454.919 105.289,452.875 111.052,449.528 114.398,447.112 118.673,445.439 122.577,445.251 126.667,446.369 
	132.43,448.784 140.981,453.433 146.559,455.478 152.322,456.779 157.526,456.779 162.917,455.849 168.867,452.875 174.816,449.528 
	180.208,446.553 182.809,444.88 185.785,444.136 189.688,444.695 193.405,446.553 199.913,450.83 205.304,453.99 209.021,455.478 
	211.997,455.849 213.668,455.662 217.945,453.805 221.662,450.458 224.079,446.925 226.31,442.836 227.984,438.19 228.727,433.54 
	226.31,437.26 223.336,440.234 221.29,442.092 219.431,443.209 216.83,445.067 212.183,445.81 208.835,445.251 205.118,442.651 
	200.843,439.861 194.521,435.586 190.06,433.726 186.342,433.17 181.694,433.54 177.232,435.586 169.797,440.234 163.662,443.766 
	158.085,445.81 152.135,445.81 147.117,444.323 141.726,442.092 130.943,436.145 127.226,434.656 122.948,433.726 119.044,434.471 
	115.328,435.773 109.937,438.003 105.661,440.978 101.013,445.439 95.992,448.969 92.646,450.271 89.302,450.83 "/>
<polygon style="fill:#FFFFFF;stroke:#FFFFFF;stroke-width:0.1985;" points="309.222,551.032 309.222,551.032 302.717,554.563 
	306.62,558.839 308.294,560.326 309.593,561.256 310.71,562 312.755,562.557 314.986,562.557 317.216,562.185 319.633,561.441 
	322.236,560.513 325.396,558.839 329.858,555.865 334.133,552.89 335.994,551.774 338.41,550.287 341.198,549.358 343.242,549.358 
	344.916,550.102 347.89,551.589 353.653,554.75 361.09,559.024 366.48,561.256 372.243,562.742 377.448,562.742 382.84,561.815 
	388.789,558.839 394.736,555.493 399.757,552.518 402.73,550.844 405.706,550.102 409.609,550.657 413.327,552.518 419.833,556.794 
	425.225,559.955 428.942,561.441 431.918,561.815 433.589,561.627 436.007,560.698 437.866,559.583 439.911,557.909 442.7,555.865 
	446.417,553.448 450.135,550.844 451.809,550.474 453.482,550.474 455.526,550.844 457.572,551.589 462.963,554.377 
	468.726,557.537 476.533,561.815 478.578,562.37 480.809,562.928 484.341,562.37 487.501,561.07 490.663,559.21 495.124,556.05 
	498.656,553.076 501.632,550.844 504.976,549.358 506.836,548.8 509.067,548.613 511.669,549.172 514.271,549.916 516.875,550.657 
	518.732,551.774 520.593,552.89 523.01,555.121 525.611,557.723 524.31,553.633 522.08,550.474 519.104,546.94 516.875,545.266 
	513.899,543.781 509.438,542.294 505.162,541.548 503.117,541.548 500.33,542.294 494.752,545.266 489.919,548.429 486.015,551.032 
	482.854,552.703 480.809,553.076 478.765,552.703 476.533,551.589 474.117,550.102 466.122,545.455 460.174,542.479 
	457.015,541.177 454.04,540.621 450.878,540.992 448.833,541.735 446.976,542.666 441.77,546.011 437.496,548.8 434.148,550.657 
	431.361,551.402 428.942,551.032 425.039,548.613 420.764,545.825 414.443,541.548 409.981,539.691 406.262,539.133 
	401.801,539.506 397.153,541.548 389.716,546.196 383.583,549.73 378.006,551.774 375.031,552.331 372.057,551.96 367.225,550.474 
	361.833,548.057 355.512,544.896 351.051,542.479 347.147,540.992 345.473,540.621 343.056,540.062 341.198,540.248 
	339.338,540.621 335.807,542.107 332.088,544.339 329.114,546.196 325.768,548.429 321.677,551.402 319.261,553.076 
	316.658,554.192 314.986,554.377 313.684,554.377 312.755,554.005 310.895,552.89 "/>
<polygon style="fill:#FFFFFF;stroke:#FFFFFF;stroke-width:0.1985;" points="302.717,554.563 309.222,551.032 304.761,546.94 
	303.088,545.825 301.415,544.896 298.81,543.967 295.465,543.595 291.934,544.152 288.028,546.011 282.825,549.172 278.363,551.96 
	275.017,553.82 272.971,554.563 269.997,554.192 265.908,551.774 261.817,548.985 255.312,544.896 251.036,543.038 247.131,542.479 
	242.669,542.851 238.023,544.711 230.771,549.544 224.637,552.89 218.873,555.121 213.11,554.935 208.091,553.633 202.7,551.217 
	191.918,545.266 188.2,543.781 183.924,543.038 180.021,543.781 176.303,544.896 170.911,547.127 166.45,550.102 161.988,554.563 
	156.97,558.094 153.623,559.583 150.276,560.141 144.143,558.653 147.489,562 150.835,564.416 155.109,565.159 160.128,564.231 
	166.263,562.185 172.026,558.653 175.188,556.237 179.65,554.563 183.368,554.563 187.642,555.493 193.22,558.094 201.957,562.557 
	207.535,564.602 213.296,565.904 218.502,566.089 223.893,564.974 229.842,562.185 235.791,558.653 240.996,555.679 
	243.786,554.192 246.573,553.448 250.664,554.005 254.382,555.679 260.888,560.141 266.279,563.114 269.811,564.602 
	272.971,564.974 274.645,564.788 278.92,562.928 282.081,559.583 285.055,556.05 287.101,554.192 288.958,552.703 290.818,551.589 
	292.677,551.032 296.21,550.474 298.439,551.032 300.299,552.331 "/>
<polygon style="fill:#FFFFFF;stroke:#FFFFFF;stroke-width:0.1985;" points="430.989,590.442 434.333,589.14 436.38,588.768 
	438.423,588.583 441.585,588.583 445.115,589.512 448.091,590.628 450.878,592.673 452.367,594.531 453.482,596.391 
	454.224,598.437 454.783,601.968 451.809,598.437 450.322,597.134 447.719,595.274 445.487,594.531 443.443,594.16 441.398,593.789 
	439.167,593.789 437.124,594.346 434.706,595.461 432.476,596.577 430.244,598.622 427.271,601.038 425.411,603.084 
	422.622,605.872 420.578,607.545 419.461,608.476 418.16,609.032 416.489,609.589 414.443,609.775 412.396,609.402 410.167,608.661 
	407.935,607.545 404.963,606.057 400.685,602.898 396.781,600.109 395.108,598.807 393.064,597.506 390.275,596.577 
	388.602,596.577 386.929,597.321 384.14,598.807 378.936,601.968 372.243,606.243 367.225,608.476 362.02,609.961 357.185,609.961 
	352.351,609.032 346.961,606.057 341.57,602.711 336.921,599.737 334.133,598.065 331.53,597.321 327.999,597.878 324.653,599.737 
	318.704,604.013 313.87,606.987 310.523,608.661 307.735,609.032 306.247,608.661 304.017,607.917 302.344,606.802 300.484,605.128 
	298.069,603.084 294.536,600.481 291.19,598.065 289.702,597.506 288.028,597.693 286.171,598.065 284.312,598.807 279.478,601.596 
	274.273,604.755 267.021,609.032 265.165,609.589 263.119,610.146 259.96,609.589 256.984,608.289 254.01,606.429 250.105,603.084 
	246.759,600.294 244.158,598.065 241.182,596.577 239.324,596.02 237.464,595.833 235.047,596.391 232.632,597.134 230.213,597.878 
	228.542,598.992 226.682,600.109 224.637,602.154 222.221,604.941 223.336,600.666 225.567,597.506 228.169,594.16 230.213,592.487 
	232.816,591 237.093,589.512 240.996,588.768 242.856,588.768 245.273,589.326 250.477,592.487 254.753,595.648 258.286,598.25 
	261.26,599.922 263.119,600.294 264.978,599.922 267.021,598.807 269.254,597.321 276.503,592.673 281.895,589.698 284.869,588.396 
	287.472,587.841 290.446,588.212 292.306,588.955 293.978,589.885 298.81,593.232 302.717,595.833 305.875,597.693 308.294,598.622 
	310.336,598.065 314.057,595.833 317.96,593.045 323.723,588.768 327.627,586.911 330.974,586.352 335.064,586.724 339.338,588.768 
	346.031,593.417 351.609,596.763 356.813,598.992 359.601,599.55 362.205,599.178 366.666,597.693 371.685,595.274 377.263,592.115 
	381.352,589.698 384.884,588.212 386.371,587.654 388.602,587.282 390.275,587.468 392.135,587.841 395.294,589.326 
	398.641,591.559 401.429,593.232 404.59,595.648 408.307,598.622 410.539,600.294 412.955,601.224 414.443,601.596 415.744,601.782 
	416.859,601.411 418.533,600.109 420.392,598.622 422.436,596.763 424.853,594.531 428.199,592.115 "/>
<polygon style="fill:#FFFFFF;stroke:#FFFFFF;stroke-width:0.1985;" points="403.475,506.972 406.82,510.505 410.167,512.735 
	414.443,513.477 419.461,512.55 425.598,510.505 431.174,507.159 434.52,504.742 438.981,503.068 442.7,502.881 446.976,503.811 
	452.552,506.415 461.289,511.061 466.867,512.922 472.63,514.223 477.835,514.407 483.226,513.477 489.175,510.505 494.938,507.159 
	500.33,504.183 503.117,502.511 505.906,501.768 509.996,502.325 513.713,503.997 520.221,508.46 525.611,511.434 529.143,513.107 
	532.304,513.477 533.977,513.107 538.253,511.248 541.413,507.902 544.203,504.555 548.293,501.396 552.01,499.351 555.728,497.862 
	559.26,497.491 562.977,498.234 567.997,500.466 563.536,496.005 560.562,493.772 557.958,492.843 554.612,492.286 551.265,492.471 
	547.362,494.331 542.157,497.678 537.695,500.279 534.348,502.139 532.304,502.881 529.329,502.511 525.239,500.279 
	520.964,497.307 514.643,493.214 510.367,491.357 506.464,490.799 502.003,491.172 497.355,493.029 490.105,497.862 483.97,501.209 
	478.206,503.44 472.443,503.253 467.424,501.953 461.848,499.535 451.25,493.772 447.533,492.286 443.258,491.357 439.352,492.1 
	435.635,493.401 430.244,495.633 425.783,498.606 421.135,502.881 416.302,506.415 412.955,507.902 409.609,508.46 "/>
<polygon style="fill:#FFFFFF;stroke:#FFFFFF;stroke-width:0.1985;" points="448.833,449.342 452.18,452.69 455.713,455.105 
	459.803,455.662 465.007,454.733 470.957,452.69 476.72,449.342 480.066,446.925 484.341,445.251 488.246,445.067 492.335,446.182 
	497.911,448.599 506.65,453.247 512.227,455.29 517.99,456.593 523.195,456.593 528.586,455.662 534.535,452.69 540.483,449.342 
	545.688,446.369 548.477,444.695 551.452,444.136 555.355,444.508 559.075,446.369 565.581,450.643 570.973,453.805 574.504,455.29 
	577.663,455.662 579.336,455.478 583.613,453.805 587.146,450.271 589.747,446.74 591.979,442.651 593.651,438.003 594.208,433.54 
	591.979,437.073 589.004,440.047 586.96,441.907 585.101,443.023 582.499,444.88 577.85,445.625 574.504,445.067 570.786,442.464 
	566.508,439.675 560.003,435.399 555.728,433.54 552.01,432.983 547.362,433.354 542.714,435.399 535.465,440.234 529.329,443.581 
	523.565,445.625 517.804,445.625 512.786,444.136 507.395,441.907 496.612,435.958 492.893,434.471 488.618,433.54 484.714,434.284 
	480.994,435.586 475.602,437.817 471.329,440.79 466.681,445.251 461.661,448.784 458.315,450.086 454.968,450.643 "/>
<polygon style="fill:#FFFFFF;stroke:#FFFFFF;stroke-width:0.1985;" points="486.2,337.615 489.547,341.149 493.079,343.378 
	497.355,344.122 502.373,343.192 508.322,341.149 514.085,337.801 517.433,335.386 521.895,333.712 525.611,333.526 
	529.887,334.456 535.465,337.06 544.017,341.706 549.593,343.75 555.355,344.865 560.562,345.052 565.952,344.122 571.902,341.149 
	577.85,337.801 583.241,334.828 585.844,333.154 588.818,332.411 592.723,332.967 596.44,334.828 602.947,339.102 608.338,342.076 
	612.056,343.75 615.029,344.122 616.703,343.75 620.979,342.076 624.698,338.73 627.114,335.2 629.345,331.11 631.017,326.462 
	631.762,321.813 629.345,325.532 626.371,328.506 624.327,330.367 622.466,331.295 619.863,333.154 615.216,334.085 611.87,333.339 
	608.153,330.923 603.877,328.135 597.556,323.858 593.095,322 589.375,321.441 584.915,321.813 580.267,323.858 572.83,328.506 
	566.695,331.853 561.119,334.085 555.169,334.085 550.337,332.596 544.758,330.367 533.977,324.417 530.258,322.93 525.984,322 
	522.08,322.743 518.362,324.045 512.969,326.277 508.694,329.25 504.047,333.712 499.028,337.244 495.682,338.545 492.335,339.102 
	"/>
<polygon style="fill:#FFFFFF;stroke:#FFFFFF;stroke-width:0.1985;" points="468.726,392.271 472.072,395.618 475.602,398.034 
	479.88,398.777 484.9,397.848 490.849,395.804 496.612,392.457 499.958,389.855 504.233,388.367 508.137,388.182 512.227,389.112 
	517.99,391.713 526.542,396.36 532.119,398.219 537.882,399.522 543.086,399.708 548.477,398.591 554.427,395.804 560.375,392.457 
	565.765,389.483 568.369,387.81 571.343,387.065 575.247,387.623 578.965,389.297 585.473,393.758 590.864,396.732 594.581,398.406 
	597.556,398.591 599.228,398.406 603.505,396.732 607.223,393.386 609.639,389.669 611.87,385.578 613.544,380.931 614.288,376.469 
	611.87,380.189 608.896,382.976 606.851,385.021 604.991,385.95 602.39,387.81 597.742,388.739 594.395,387.996 590.678,385.392 
	586.401,382.604 580.081,378.515 575.619,376.656 571.902,376.097 567.254,376.469 562.792,378.329 555.355,383.162 
	549.221,386.508 543.644,388.739 537.695,388.553 532.676,387.251 527.285,384.835 516.503,378.887 512.786,377.399 
	508.508,376.656 504.604,377.399 500.887,378.515 495.496,380.745 491.219,383.905 486.572,388.182 481.553,391.713 
	478.206,393.201 474.861,393.758 "/>
<ellipse style="fill:#FFFFFF;" cx="383.397" cy="298.019" rx="190.735" ry="239.44"/>
<g>
	<line style="fill:none;stroke:#000000;stroke-width:1.8527;" x1="39.107" y1="401.01" x2="554.799" y2="401.01"/>
</g>
<g>
	<line style="fill:none;stroke:#000000;stroke-width:1.8527;" x1="32.973" y1="314.937" x2="573.573" y2="314.937"/>
</g>
<path d="M501.258,292.07v-2.976l0.931-4.089h7.249l-1.488,7.065H501.258L501.258,292.07z M501.258,261.955v-0.557h0.745
	L501.258,261.955z M439.352,259.724h0.559l-0.559,2.045V259.724L439.352,259.724z M439.352,263.999h0.744
	c0.745,0,1.488,0,2.418,0.186c0.928,0,2.044,0.372,3.159,0.744c1.674,0.558,3.159,1.674,4.461,3.159
	c1.489,1.488,2.045,3.719,2.045,6.879c0,4.461-1.673,7.994-5.02,10.224c-2.23,1.673-4.832,2.789-7.808,3.16v-5.947
	c0.744-0.186,1.302-0.559,1.86-0.93c1.302-0.93,2.23-2.045,2.788-3.161c0.186-0.743,0.372-1.3,0.372-1.858
	c0.187-0.559,0.187-1.116,0.187-1.673c0-1.302-0.559-2.416-1.488-3.532c-0.556-0.745-1.858-1.302-3.719-1.488V263.999
	L439.352,263.999z M501.258,261.398v0.557l-14.128,14.128l9.11,15.987h-8.366l-7.808-15.244l0,0l-3.162,15.244h-7.25l6.506-30.672
	h7.251l-2.975,13.012h0.185l12.456-13.012H501.258L501.258,261.398z M501.258,289.094l-0.557,2.976h0.557V289.094L501.258,289.094z
	 M456.085,285.005h7.25l-1.487,7.065h-7.251L456.085,285.005z M426.526,288.909h-0.557v-5.948c0.557,0,1.115,0.187,1.672,0.187
	h0.744l2.789-13.386h-0.558c-1.859,0-3.344,0.187-4.647,0.558v-5.949c1.485-0.186,2.973-0.372,4.647-0.372h1.117l0.93-4.275h6.69
	v2.045l-0.371,2.229h0.371v5.763c-0.371,0-1.115,0-1.672,0h-0.557l-2.79,13.386h0.558c1.86,0,3.346-0.372,4.461-0.744v5.947
	c-1.301,0.372-2.972,0.558-4.461,0.558h-1.302l-0.742,4.278h-6.879v-2.232L426.526,288.909z M425.969,288.909h-0.745
	c-0.557,0-1.301-0.186-2.417-0.186c-0.928-0.186-2.044-0.557-3.16-0.927c-1.674-0.559-3.159-1.674-4.461-3.162
	c-1.302-1.486-2.045-3.718-2.045-6.693c0-3.902,1.487-7.248,4.646-9.852c2.045-2.044,4.834-3.159,8.181-3.718v5.949
	c-0.559,0.373-1.116,0.559-1.673,0.93c-1.302,0.929-2.231,2.044-2.789,3.346c-0.185,0.557-0.371,1.115-0.557,1.859
	c0,0.558,0,1.115,0,1.485c0,1.861,0.557,3.162,1.672,3.905c0.929,0.559,2.045,0.93,3.347,1.116V288.909L425.969,288.909z
	 M425.969,293.187h-0.371l0.371-2.232V293.187z"/>
<path d="M322.979,441.162c1.116-0.185,2.045-0.185,2.976-0.185c5.576,0,9.666,1.302,12.64,4.089
	c2.79,2.976,4.276,6.693,4.276,11.712c0,0.929-0.187,2.045-0.187,3.16c-0.185,1.115-0.372,2.231-0.558,3.161
	c-1.115,4.648-3.532,8.737-7.063,12.643c-2.976,3.16-7.065,5.02-12.085,5.391v-7.251c2.232-0.372,3.903-1.302,5.391-2.973
	c1.674-2.047,2.975-4.092,3.718-6.508c0.372-1.302,0.559-2.231,0.744-3.347c0.187-1.115,0.187-2.044,0.187-2.973
	c0-0.187,0-0.374,0-0.558c0-0.187,0-0.559,0-0.744c-0.187-2.045-0.745-3.904-1.86-5.763c-0.928-1.673-3.159-2.602-5.946-2.602
	c-0.745,0-1.489,0-2.232,0.185V441.162L322.979,441.162z M359.416,452.503h-0.187l-5.763,27.886h-8.922l7.992-38.297h13.015
	l3.531,26.212l13.758-26.212h13.384l-7.993,38.297h-9.11l5.949-27.886l0,0l-14.872,27.886h-7.251L359.416,452.503L359.416,452.503z
	 M433.589,466.816c-0.185,0.745-0.556,1.488-0.742,2.419c-0.372,0.929-0.744,1.673-1.302,2.601
	c-1.301,2.417-3.347,4.648-6.135,6.692c-2.603,2.046-6.506,2.976-11.34,2.976c-5.39,0-9.294-1.488-12.083-4.462
	c-2.603-2.974-3.904-6.693-3.904-11.154c0-1.487,0-2.974,0.372-4.834c0.186-1.858,0.743-3.718,1.488-5.763
	c1.299-3.531,3.531-6.876,6.69-9.852c3.162-2.975,7.81-4.461,13.573-4.461c5.391,0,9.294,0.929,11.526,2.789
	c2.229,2.044,3.531,4.089,3.902,6.32c0.187,0.372,0.187,0.929,0.187,1.301s0,0.744,0,1.116c0,0.558,0,0.93,0,1.302
	c0,0.372,0,0.928-0.187,1.3h-8.922c0.185-0.186,0.185-0.372,0.185-0.558c0-0.184,0-0.371,0-0.371c0-0.372,0-0.559-0.185-0.93
	c0-0.186,0-0.557,0-0.743c-0.372-1.116-0.93-2.045-2.045-2.789c-0.93-0.93-2.603-1.3-4.834-1.3c-2.975,0-5.39,0.928-7.064,2.974
	c-1.859,2.045-2.974,4.09-3.717,6.507c-0.371,1.301-0.745,2.416-0.93,3.531c-0.187,1.117-0.187,2.232-0.187,2.976
	c0,0.558,0,1.114,0,1.858c0.187,0.557,0.187,1.302,0.372,1.859c0.374,1.488,0.931,2.79,1.86,4.089
	c1.116,1.302,2.603,1.86,4.833,1.86c2.23,0,3.904-0.558,5.392-1.488c1.301-0.929,2.23-2.045,2.973-3.159
	c0.372-0.559,0.559-0.93,0.744-1.302c0.187-0.557,0.372-0.93,0.559-1.302H433.589L433.589,466.816z M465.565,442.092h10.967
	L458.13,460.31l11.339,20.079h-10.596l-9.668-18.964l0,0l-3.903,18.964h-9.109l8.179-38.297h9.11l-3.719,16.174h0.187
	L465.565,442.092z M320.192,481.504c-5.206-0.186-8.925-1.115-11.341-3.162c-2.418-2.044-4.09-4.275-4.835-6.692
	c-0.371-1.117-0.557-2.044-0.742-3.161c-0.186-1.115-0.186-2.045-0.186-2.787c0-1.116,0-2.231,0.186-3.348
	c0.186-1.115,0.372-2.23,0.557-3.16c1.115-4.648,3.532-8.738,7.064-12.643c2.975-3.159,7.065-5.018,12.084-5.391v7.436
	c-2.231,0.186-4.089,1.301-5.391,2.789c-1.86,2.045-2.975,4.09-3.718,6.507c-0.372,1.301-0.558,2.416-0.743,3.346
	c-0.187,1.115-0.372,2.232-0.372,3.16c0,2.603,0.557,4.648,1.302,5.948c0.929,1.302,1.857,2.231,2.973,2.79
	c0.744,0.372,1.488,0.744,2.231,0.744c0.744,0,1.301,0.186,1.672,0.186c0.744,0,1.487-0.186,2.045-0.186v7.251
	c-0.93,0.186-1.86,0.186-2.787,0.186V481.504z"/>
<polygon style="fill:#FFFFFF;stroke:#FFFFFF;stroke-width:0.1985;" points="129.827,125.502 133.173,129.034 136.706,131.266 
	140.981,132.01 146,131.08 151.95,129.034 157.713,125.688 161.059,123.271 165.521,121.599 169.239,121.412 173.328,122.529 
	179.091,124.945 187.642,129.593 193.22,131.638 198.983,132.94 204.187,132.94 209.579,132.01 215.528,129.034 221.477,125.688 
	226.869,122.712 229.47,121.04 232.445,120.297 236.35,120.856 240.065,122.712 246.573,126.99 251.965,129.964 255.684,131.638 
	258.658,132.01 260.331,131.823 264.606,129.964 268.323,126.619 270.74,123.084 272.971,118.995 274.645,114.348 275.388,109.701 
	272.971,113.419 269.997,116.393 267.952,118.252 266.094,119.367 263.491,121.227 258.843,121.971 255.497,121.227 251.778,118.81 
	247.504,116.022 241.182,111.747 236.721,109.886 233.003,109.33 228.355,109.701 223.893,111.747 216.458,116.393 210.323,119.738 
	204.746,121.971 198.796,121.971 193.778,120.484 188.386,118.252 177.604,112.302 173.887,110.816 169.611,109.886 
	165.706,110.631 161.988,111.931 156.598,114.162 152.322,117.136 147.674,121.599 142.654,125.129 139.308,126.432 135.963,126.99 
	"/>
<polygon style="fill:#FFFFFF;stroke:#FFFFFF;stroke-width:0.1985;" points="49.331,285.75 52.677,289.281 56.025,291.513 
	60.301,292.256 65.318,291.327 71.455,289.281 77.031,285.936 80.377,283.518 84.84,281.845 88.557,281.661 92.834,282.589 
	98.409,285.191 107.146,289.839 112.724,291.884 118.487,293 123.692,293.187 129.083,292.256 135.033,289.281 140.796,285.936 
	146.187,282.961 148.975,281.288 151.763,280.544 155.852,281.102 159.573,282.775 166.079,287.237 171.469,290.211 
	175.002,291.884 178.161,292.256 179.835,291.884 184.111,290.024 187.27,286.679 190.06,283.332 194.149,280.172 197.867,278.127 
	201.586,276.641 205.118,276.269 208.835,277.013 213.854,279.242 209.393,274.781 206.419,272.552 203.815,271.621 200.47,271.064 
	197.125,271.25 193.22,273.107 188.015,276.455 183.552,279.057 180.208,280.915 178.161,281.661 175.188,281.288 171.096,279.057 
	167.007,276.083 160.501,271.993 156.225,270.133 152.322,269.576 147.861,269.948 143.213,271.807 135.963,276.641 
	129.827,279.987 124.064,282.218 118.301,282.032 113.281,280.73 107.705,278.313 97.109,272.552 93.391,271.064 89.116,270.133 
	85.21,270.878 81.492,272.179 76.101,274.409 71.64,277.384 66.992,281.661 62.159,285.191 58.812,286.679 55.466,287.237 "/>
<polygon style="fill:#FFFFFF;stroke:#FFFFFF;stroke-width:0.1985;" points="96.923,180.529 100.269,183.875 103.615,186.293 
	107.89,186.85 113.096,186.107 119.044,184.062 124.809,180.529 128.153,178.112 132.43,176.44 136.335,176.254 140.424,177.368 
	146,179.972 154.739,184.433 160.315,186.479 166.079,187.779 171.283,187.964 176.674,186.85 182.623,184.062 188.572,180.529 
	193.778,177.554 196.566,176.068 199.354,175.324 203.444,175.883 207.163,177.554 213.668,182.016 219.059,184.992 
	222.593,186.479 225.752,186.85 227.425,186.666 231.702,184.992 235.233,181.645 237.836,177.927 240.065,173.836 241.739,169.19 
	242.297,164.727 240.065,168.445 237.093,171.233 235.047,173.093 233.188,174.209 230.586,176.068 225.938,176.997 
	222.593,176.254 218.688,173.65 214.598,170.863 208.091,166.771 203.815,164.914 200.098,164.357 195.451,164.727 190.803,166.586 
	183.552,171.419 177.417,174.766 171.655,176.997 165.892,176.81 160.872,175.51 155.481,173.093 144.699,167.144 140.981,165.657 
	136.706,164.914 132.8,165.472 129.083,166.771 123.692,169.003 119.418,171.978 114.77,176.44 109.75,179.972 106.403,181.458 
	103.057,182.016 "/>
<polygon style="fill:#FFFFFF;stroke:#FFFFFF;stroke-width:0.1985;" points="54.723,230.907 58.069,234.255 61.602,236.67 
	65.877,237.229 70.896,236.485 76.846,234.441 82.609,230.907 85.955,228.492 90.417,226.818 94.135,226.633 98.409,227.748 
	103.987,230.352 112.538,234.814 118.115,236.857 123.878,238.159 129.083,238.344 134.474,237.229 140.424,234.441 
	146.372,230.907 151.763,227.935 154.367,226.446 157.341,225.703 161.244,226.262 164.963,227.935 171.469,232.21 176.86,235.371 
	180.58,236.857 183.552,237.229 185.226,237.044 189.502,235.185 192.848,231.652 195.637,228.307 199.726,225.145 203.258,223.287 
	207.163,221.798 210.695,221.427 214.413,222.171 219.245,224.217 214.97,219.754 211.997,217.524 209.393,216.594 206.047,216.222 
	202.514,216.408 198.61,218.082 193.405,221.427 189.13,224.217 185.785,226.075 183.552,226.633 180.58,226.446 176.674,224.031 
	172.398,221.242 166.079,217.152 161.615,215.106 157.898,214.549 153.437,215.106 148.791,216.966 141.354,221.798 
	135.218,225.145 129.642,227.19 123.692,227.19 118.859,225.888 113.281,223.472 102.5,217.524 98.783,216.035 94.507,215.292 
	90.601,215.851 86.883,217.152 81.492,219.383 77.218,222.357 72.57,226.818 67.55,230.352 64.203,231.837 60.857,232.396 "/>
<g>
	<g>
		<path style="fill:#FFFFFF;stroke:#000000;stroke-width:0.397;stroke-linecap:round;stroke-linejoin:round;" d="M312.94,283.518
			c65.81,0,119.164-53.91,119.164-119.906c0-66.181-53.354-119.908-119.164-119.908c-66.182,0-119.908,53.726-119.908,119.908
			C193.033,229.608,246.759,283.518,312.94,283.518z"/>
		<polygon points="291.004,129.777 337.851,131.638 350.492,177.182 312.383,203.58 275.017,174.581 		"/>
		<path d="M268.695,52.443l24.726,12.641l-20.265,35.137l-37.737,9.48L226.31,81.63C238.208,68.803,251.778,58.765,268.695,52.443z"
			/>
		<path d="M403.103,84.232l-3.346,26.026l-39.597-10.038l-21.378-30.118l22.68-15.987C378.379,61.367,391.205,70.102,403.103,84.232
			z"/>
		<path d="M412.583,229.235l-27.885,5.02l0.929-43.315l24.168-25.468l20.635,18.59C427.642,200.42,421.135,216.035,412.583,229.235z
			"/>
		<path d="M294.164,282.032l-14.5-23.982l35.878-17.845l36.439,12.268l-7.809,26.956c-10.039,2.604-20.822,4.089-31.232,4.089
			C306.992,283.518,300.113,282.961,294.164,282.032z"/>
		<path d="M194.335,180.901l20.635-21.936l23.981,28.255l1.489,40.156h-28.816l-0.372-0.372
			C202.514,212.877,197.125,197.817,194.335,180.901z"/>
		<g>
			<path style="fill:none;stroke:#000000;stroke-width:0.397;stroke-linecap:round;stroke-linejoin:round;" d="M235.419,109.701
				c-5.949,3.718-20.078,21.564-20.449,49.264"/>
		</g>
		<g>
			<path style="fill:none;stroke:#000000;stroke-width:0.397;stroke-linecap:round;stroke-linejoin:round;" d="M273.156,100.221
				c3.72,5.391,17.848,29.557,17.848,29.557"/>
		</g>
		<g>
			<path style="fill:none;stroke:#000000;stroke-width:0.397;stroke-linecap:round;stroke-linejoin:round;" d="M360.16,100.221
				c-1.861,5.391-20.077,30.115-22.309,31.417"/>
		</g>
		<g>
			<path style="fill:none;stroke:#000000;stroke-width:0.397;stroke-linecap:round;stroke-linejoin:round;" d="M275.017,174.581
				c-4.461,3.16-31.418,11.897-36.065,12.64"/>
		</g>
		<g>
			<path style="fill:none;stroke:#000000;stroke-width:0.397;stroke-linecap:round;stroke-linejoin:round;" d="M350.492,177.182
				c6.88,2.419,31.418,10.969,35.135,13.757"/>
		</g>
		<g>
			<path style="fill:none;stroke:#000000;stroke-width:0.397;stroke-linecap:round;stroke-linejoin:round;" d="M312.383,203.58
				c0.557,3.72,3.159,32.905,3.159,36.624"/>
		</g>
		<g>
			<path style="fill:none;stroke:#000000;stroke-width:0.397;stroke-linecap:round;stroke-linejoin:round;" d="M240.44,227.377
				c2.229,7.25,31.045,30.116,39.224,30.673"/>
		</g>
		<g>
			<path style="fill:none;stroke:#000000;stroke-width:0.397;stroke-linecap:round;stroke-linejoin:round;" d="M293.421,65.084
				c6.32,0,31.79-6.878,45.36,5.018"/>
		</g>
		<g>
			<path style="fill:none;stroke:#000000;stroke-width:0.397;stroke-linecap:round;stroke-linejoin:round;" d="M399.757,110.258
				c5.949,5.949,11.341,37.925,10.039,55.213"/>
		</g>
		<g>
			<path style="fill:none;stroke:#000000;stroke-width:0.397;stroke-linecap:round;stroke-linejoin:round;" d="M384.698,234.255
				c-4.462,5.95-22.679,17.287-33.276,20.449"/>
		</g>
	</g>
</g>
<polygon style="fill:#FFFFFF;" points="38.921,401.01 555.355,401.01 557.401,396.174 558.702,392.643 560.003,388.367 
	561.304,384.092 562.792,379.073 563.908,375.168 566.324,365.873 568.555,355.648 570.229,345.795 571.343,339.102 571.902,334.27 
	572.644,328.506 573.202,321.441 573.573,317.539 573.573,315.13 32.786,315.124 32.414,322.185 32.229,328.878 32.042,338.918 
	32.042,341.335 32.042,345.052 32.414,352.859 32.786,359.181 33.158,363.086 33.53,367.36 34.275,373.682 35.204,381.117 
	36.32,388.182 37.434,394.688 "/>
<path style="fill:#EE3124;" d="M354.025,385.021v-8.738c2.976,0,5.02-0.186,6.135-0.372c1.302-0.371,2.417-1.115,3.346-2.229
	c1.115-1.117,1.487-2.417,1.487-4.091c0-2.416-0.743-4.089-2.415-5.206c-1.487-1.115-4.462-1.672-8.552-1.672v-8.738h3.16
	c3.532,0,6.692,0.559,9.481,1.489c2.603,0.93,4.833,2.787,6.506,5.391c1.859,2.601,2.788,5.577,2.788,8.923
	c0,3.347-0.93,6.506-2.788,8.925c-1.858,2.601-3.904,4.274-6.135,5.02c-2.23,0.929-5.576,1.3-9.853,1.3H354.025L354.025,385.021z
	 M381.91,333.339h10.411v51.682H381.91V333.339L381.91,333.339z M423.551,333.339h10.411v42.944h14.871v-42.944h10.411v42.944
	h15.432v-42.944h10.41l0.186,51.682h-61.721V333.339z M354.025,353.974v8.738h-0.187h-10.596v13.57h10.039c0.372,0,0.557,0,0.744,0
	v8.738h-21.378v-51.682h10.596v20.635H354.025L354.025,353.974z M219.617,365.501v-8.923c2.232,0,3.904-0.372,4.833-0.744
	c1.302-0.559,2.419-1.302,3.348-2.417c0.745-1.301,1.116-2.603,1.116-4.09c0-1.859-0.559-3.532-1.673-4.647
	c-1.117-1.302-2.604-2.045-4.276-2.232c-0.558-0.185-1.674-0.372-3.347-0.372v-8.737c4.833,0,7.995,0.187,9.668,0.746
	c2.976,0.744,5.393,2.417,7.436,5.018c1.858,2.604,2.976,5.95,2.976,10.039c0,3.162-0.559,5.949-1.674,7.996
	c-1.302,2.228-2.79,3.902-4.462,5.204c-1.859,1.114-3.533,2.044-5.391,2.415C226.124,365.128,223.336,365.315,219.617,365.501
	L219.617,365.501z M280.036,385.021v-42.945h-15.43v-8.737h41.084v8.737h-15.244v42.945H280.036z M128.153,333.339h9.668v34.394
	l21.007-34.394h10.411v51.682h-9.852v-33.834l-20.823,33.834h-10.41V333.339L128.153,333.339z M219.617,333.339v8.737
	c-1.115,0-2.416,0-4.089,0h-5.019v14.688h5.763c1.301,0,2.415-0.186,3.345-0.186v8.923c-0.744,0-1.485,0-2.416,0h-6.692v19.52
	h-10.411v-51.682h16.732C217.76,333.339,218.688,333.339,219.617,333.339z"/>
</svg>
