<?xml version="1.0" encoding="iso-8859-1"?>
<!-- Generator: Adobe Illustrator 24.0.1, SVG Export Plug-In . SVG Version: 6.00 Build 0)  -->
<svg version="1.1" id="Vectorportal.com" xmlns="http://www.w3.org/2000/svg" xmlns:xlink="http://www.w3.org/1999/xlink" x="0px"
	 y="0px" viewBox="0 0 900 900" style="enable-background:new 0 0 900 900;" xml:space="preserve">
<g>
	<path d="M22.149-71.218c-2.273,0.272-4.245,1.472-5.916,3.599c-1.909,2.435-2.863,5.38-2.863,8.834c0,3.435,0.954,6.37,2.863,8.806
		c1.672,2.146,3.644,3.355,5.916,3.626v7.089c-4.817-0.182-8.953-2.09-12.406-5.727c-3.653-3.817-5.48-8.434-5.48-13.85
		c0-5.417,1.827-10.043,5.48-13.878c3.454-3.617,7.589-5.517,12.406-5.698V-71.218z M30.055-67.619
		c-1.799-2.309-3.962-3.527-6.488-3.654v-7.171c4.889,0.164,9.087,2.072,12.596,5.726c1.781,1.873,3.125,3.935,4.035,6.188
		l-7.743,3.818C32-64.529,31.201-66.165,30.055-67.619z M36.163-44.99c-3.508,3.671-7.707,5.591-12.596,5.753v-7.062
		c2.526-0.126,4.689-1.353,6.488-3.68c0.891-1.144,1.572-2.398,2.046-3.762l7.524,3.898C38.752-48.097,37.598-46.48,36.163-44.99z"
		/>
	<path d="M51.508-39.237h-8.889v-39.179h8.889V-39.237z M69.366-56.823c0.69,0.71,1.354,1.737,1.99,3.082
		c0.273,0.291,0.508,1.454,0.709,3.489l0.272,1.39l0.818,4.309c0.182,0.454,0.418,1.327,0.709,2.617
		c0.309,0.473,0.863,1.336,1.663,2.591l-9.297,0.053c-0.309,0-0.864-1.108-1.664-3.326c-0.163-0.272-0.627-2.862-1.391-7.771
		c-0.327-1.164-1.072-2.09-2.235-2.782c-1.09-0.38-3.763-0.571-8.016-0.571v-7.088h7.117c2.78-0.982,4.171-2.818,4.171-5.51v-0.681
		c-0.619-2.926-2.291-4.444-5.017-4.553h-6.271v-6.952h6.271c5.252,0,9.06,1.426,11.424,4.28c1.672,2.437,2.509,4.99,2.509,7.663
		v0.518c0,3.052-0.882,5.733-2.645,8.043C70.157-57.586,69.784-57.186,69.366-56.823z"/>
	<path d="M86.702-39.237h-8.888v-39.179h8.888V-39.237z M106.55-78.335v7.198H88.229v-7.198H106.55z M105.107-63.53v7.2H88.283v-7.2
		H105.107z M106.632-46.49v7.198H88.31v-7.198H106.632z"/>
	<path d="M130.839-78.335l13.823,39.098h-10.088l-2.617-8.316h-10.825l2.101-7.225h6.652v-0.136l-4.034-14.396h-0.137l-8.453,30.073
		h-7.907v-5.672l11.37-33.426H130.839z"/>
	<path d="M175.604-78.252v7.197h-29.119v-7.197H175.604z M165.707-39.318h-8.89v-30.291h8.89V-39.318z"/>
	<path d="M187.486-39.237h-8.889v-39.179h8.889V-39.237z M207.336-78.335v7.198h-18.323v-7.198H207.336z M205.889-63.53v7.2h-16.821
		v-7.2H205.889z M207.417-46.49v7.198h-18.322v-7.198H207.417z"/>
	<path d="M219.028-39.237h-8.89v-39.179h8.89V-39.237z M231.733-66.556c-0.62-3.053-2.291-4.607-5.018-4.662l-6.27-0.083v-7.225
		h6.27c5.253,0,9.061,1.482,11.424,4.443c1.673,2.545,2.51,5.2,2.51,7.962v14.449c0,2.765-0.836,5.417-2.51,7.962
		c-2.363,2.962-6.171,4.444-11.424,4.444h-6.27v-7.227l6.27-0.081c2.727-0.054,4.398-1.607,5.018-4.662V-66.556z"/>
	<path d="M268.043-78.416h0.108c6.288,0,10.261,2.235,11.915,6.707c0.381,0.89,0.572,1.918,0.572,3.081v0.682
		c0.018,0.999-0.219,1.844-0.71,2.535c-0.582,1.709-1.544,3.099-2.889,4.171l-1.254,0.709l-0.655,0.217
		c0.708,0.382,1.29,0.682,1.745,0.9c2.762,1.656,4.335,4.117,4.716,7.389c0.091,0.364,0.137,0.791,0.137,1.281
		c-0.146,2.327-0.373,3.671-0.681,4.035c-0.184,0.981-0.828,2.146-1.937,3.491c-1.308,1.854-3.672,3.161-7.089,3.924l-2.345,0.136
		h-0.135c-0.183,0-0.682-0.009-1.5-0.026l-8.181,0.026v-7.144h9.135c2.345-0.762,3.544-2.198,3.6-4.307v-1.145
		c0.146-1.417-0.501-2.581-1.936-3.49c-0.292-0.454-1.165-0.745-2.618-0.872l-8.152-0.055l0.026-7.334h8.126
		c0.328-0.074,0.781-0.11,1.363-0.11c1.653-0.709,2.479-2.008,2.479-3.899l-0.136-0.981l-0.272-0.682h-0.137
		c-0.728-1.054-1.828-1.654-3.299-1.8l-8.233,0.055l0.052-7.526L268.043-78.416z"/>
	<path d="M284.317-78.361h9.788l5.779,9.896l-4.934,8.29L284.317-78.361z M295.386-58.213l11.777-20.148h9.789l-12.65,21.648v17.395
		h-8.889L295.386-58.213z"/>
	<path d="M353.234-39.237h-2.861l-14.26-39.098h8.451l8.669,23.775V-39.237z M354.899-54.232l8.751-24.02h8.453l-14.232,39.043
		h-2.972V-54.232z"/>
	<path d="M382.757-39.237h-8.887v-39.179h8.887V-39.237z M402.606-78.335v7.198h-18.321v-7.198H402.606z M401.161-63.53v7.2h-16.821
		v-7.2H401.161z M402.688-46.49v7.198h-18.321v-7.198H402.688z"/>
	<path d="M423.298-71.218c-2.273,0.272-4.244,1.472-5.918,3.599c-1.908,2.435-2.861,5.38-2.861,8.834
		c0,3.435,0.953,6.37,2.861,8.806c1.674,2.146,3.645,3.355,5.918,3.626v7.089c-4.818-0.182-8.954-2.09-12.406-5.727
		c-3.655-3.817-5.481-8.434-5.481-13.85c0-5.417,1.826-10.043,5.481-13.878c3.452-3.617,7.587-5.517,12.406-5.698V-71.218z
		 M431.202-67.619c-1.798-2.309-3.961-3.527-6.487-3.654v-7.171c4.89,0.164,9.087,2.072,12.597,5.726
		c1.78,1.873,3.125,3.935,4.035,6.188l-7.742,3.818C433.148-64.529,432.349-66.165,431.202-67.619z M437.311-44.99
		c-3.51,3.671-7.707,5.591-12.597,5.753v-7.062c2.526-0.126,4.69-1.353,6.487-3.68c0.892-1.144,1.574-2.398,2.047-3.762l7.523,3.898
		C439.899-48.097,438.747-46.48,437.311-44.99z"/>
	<path d="M472.805-78.252v7.197h-29.118v-7.197H472.805z M462.909-39.318h-8.891v-30.291h8.891V-39.318z"/>
	<path d="M493.685-71.218c-2.273,0.272-4.246,1.472-5.918,3.599c-1.908,2.435-2.863,5.38-2.863,8.834
		c0,3.435,0.955,6.37,2.863,8.806c1.672,2.146,3.645,3.355,5.918,3.626v7.089c-4.816-0.182-8.954-2.09-12.409-5.727
		c-3.651-3.817-5.477-8.434-5.477-13.85c0-5.417,1.825-10.043,5.477-13.878c3.455-3.617,7.593-5.517,12.409-5.698V-71.218z
		 M495.103-46.299c2.526-0.126,4.689-1.353,6.488-3.68c1.908-2.436,2.862-5.371,2.862-8.806c0-3.454-0.954-6.399-2.862-8.834
		c-1.8-2.309-3.962-3.527-6.488-3.654v-7.171c4.887,0.164,9.086,2.072,12.594,5.726c3.653,3.835,5.48,8.461,5.48,13.878
		c0,5.416-1.827,10.033-5.48,13.85c-3.508,3.671-7.707,5.591-12.594,5.753V-46.299z"/>
	<path d="M524.704-39.237h-8.886v-39.179h8.886V-39.237z M542.565-56.823c0.689,0.71,1.354,1.737,1.99,3.082
		c0.271,0.291,0.508,1.454,0.709,3.489l0.274,1.39l0.816,4.309c0.18,0.454,0.416,1.327,0.707,2.617
		c0.309,0.473,0.864,1.336,1.665,2.591l-9.296,0.053c-0.313,0-0.865-1.108-1.664-3.326c-0.164-0.272-0.627-2.862-1.393-7.771
		c-0.326-1.164-1.071-2.09-2.235-2.782c-1.088-0.38-3.762-0.571-8.015-0.571v-7.088h7.115c2.782-0.982,4.17-2.818,4.17-5.51v-0.681
		c-0.617-2.926-2.29-4.444-5.014-4.553h-6.271v-6.952h6.271c5.25,0,9.06,1.426,11.424,4.28c1.67,2.437,2.509,4.99,2.509,7.663v0.518
		c0,3.052-0.882,5.733-2.646,8.043C543.354-57.586,542.98-57.186,542.565-56.823z"/>
	<path d="M559.901-39.237h-8.891v-39.179h8.891V-39.237z M567.588-78.525c5.254,0,9.06,1.482,11.425,4.443
		c1.673,2.545,2.509,5.2,2.509,7.962v0.545c0,3.181-0.882,5.97-2.646,8.371c-2.363,3.199-7.054,4.681-14.067,4.443h-3.489v-7.362
		h7.117c2.779-1.017,4.171-2.925,4.171-5.726v-0.708c-0.62-3.053-2.29-4.635-5.018-4.744h-6.27v-7.225H567.588z"/>
	<path d="M602.266-71.218c-2.272,0.272-4.243,1.472-5.918,3.599c-1.905,2.435-2.86,5.38-2.86,8.834c0,3.435,0.955,6.37,2.86,8.806
		c1.675,2.146,3.646,3.355,5.918,3.626v7.089c-4.816-0.182-8.954-2.09-12.404-5.727c-3.653-3.817-5.481-8.434-5.481-13.85
		c0-5.417,1.828-10.043,5.481-13.878c3.45-3.617,7.588-5.517,12.404-5.698V-71.218z M603.684-46.299
		c2.526-0.126,4.689-1.353,6.487-3.68c1.909-2.436,2.865-5.371,2.865-8.806c0-3.454-0.956-6.399-2.865-8.834
		c-1.798-2.309-3.961-3.527-6.487-3.654v-7.171c4.889,0.164,9.086,2.072,12.598,5.726c3.651,3.835,5.481,8.461,5.481,13.878
		c0,5.416-1.83,10.033-5.481,13.85c-3.512,3.671-7.709,5.591-12.598,5.753V-46.299z"/>
	<path d="M633.288-39.237h-8.89v-39.179h8.89V-39.237z M651.146-56.823c0.693,0.71,1.355,1.737,1.99,3.082
		c0.274,0.291,0.51,1.454,0.711,3.489l0.271,1.39l0.816,4.309c0.184,0.454,0.419,1.327,0.71,2.617
		c0.308,0.473,0.861,1.336,1.662,2.591l-9.296,0.053c-0.31,0-0.865-1.108-1.662-3.326c-0.166-0.272-0.63-2.862-1.392-7.771
		c-0.329-1.164-1.074-2.09-2.236-2.782c-1.091-0.38-3.763-0.571-8.015-0.571v-7.088h7.116c2.779-0.982,4.171-2.818,4.171-5.51
		v-0.681c-0.62-2.926-2.29-4.444-5.019-4.553h-6.269v-6.952h6.269c5.253,0,9.063,1.426,11.426,4.28
		c1.673,2.437,2.509,4.99,2.509,7.663v0.518c0,3.052-0.883,5.733-2.646,8.043C651.936-57.586,651.564-57.186,651.146-56.823z"/>
	<path d="M688.631-78.252v7.197h-29.117v-7.197H688.631z M678.733-39.318h-8.886v-30.291h8.886V-39.318z"/>
	<path d="M713.109-78.335l13.824,39.098h-10.088l-2.617-8.316h-10.823l2.097-7.225h6.655v-0.136L708.12-69.31h-0.138l-8.448,30.073
		h-7.91v-5.672l11.369-33.426H713.109z"/>
	<path d="M737.723-39.237h-8.886v-39.179h8.886V-39.237z M757.901-46.461v7.198h-18.324v-7.198H757.901z"/>
	<path d="M769.755-46.435v7.198h-8.885v-7.198H769.755z"/>
	<path d="M790.396-71.218c-2.273,0.272-4.244,1.472-5.917,3.599c-1.907,2.435-2.861,5.38-2.861,8.834
		c0,3.435,0.954,6.37,2.861,8.806c1.673,2.146,3.644,3.355,5.917,3.626v7.089c-4.818-0.182-8.953-2.09-12.405-5.727
		c-3.653-3.817-5.48-8.434-5.48-13.85c0-5.417,1.827-10.043,5.48-13.878c3.452-3.617,7.587-5.517,12.405-5.698V-71.218z
		 M798.301-67.619c-1.799-2.309-3.961-3.527-6.488-3.654v-7.171c4.891,0.164,9.088,2.072,12.597,5.726
		c1.782,1.873,3.129,3.935,4.035,6.188l-7.741,3.818C800.247-64.529,799.448-66.165,798.301-67.619z M804.409-44.99
		c-3.509,3.671-7.706,5.591-12.597,5.753v-7.062c2.527-0.126,4.69-1.353,6.488-3.68c0.892-1.144,1.575-2.398,2.048-3.762
		l7.521,3.898C806.997-48.097,805.846-46.48,804.409-44.99z"/>
	<path d="M828.752-71.218c-2.273,0.272-4.245,1.472-5.918,3.599c-1.908,2.435-2.862,5.38-2.862,8.834
		c0,3.435,0.954,6.37,2.862,8.806c1.673,2.146,3.646,3.355,5.918,3.626v7.089c-4.817-0.182-8.953-2.09-12.409-5.727
		c-3.651-3.817-5.477-8.434-5.477-13.85c0-5.417,1.825-10.043,5.477-13.878c3.456-3.617,7.593-5.517,12.409-5.698V-71.218z
		 M830.17-46.299c2.526-0.126,4.69-1.353,6.489-3.68c1.908-2.436,2.863-5.371,2.863-8.806c0-3.454-0.955-6.399-2.863-8.834
		c-1.8-2.309-3.963-3.527-6.489-3.654v-7.171c4.887,0.164,9.088,2.072,12.595,5.726c3.651,3.835,5.48,8.461,5.48,13.878
		c0,5.416-1.829,10.033-5.48,13.85c-3.507,3.671-7.708,5.591-12.595,5.753V-46.299z"/>
	<path d="M859.771-39.237h-8.886V-75.99l8.886,14.833V-39.237z M872.644-41.936l-21.652-36.372h8.453l13.199,22.167V-41.936z
		 M874.715-56.167l13.195-22.168h8.452l-21.648,36.373V-56.167z M887.255-61.157l8.889-14.833v36.753h-8.889V-61.157z"/>
</g>
<g>
	<path d="M17.81-26.42c-1.398,0.169-2.61,0.906-3.638,2.214c-1.173,1.496-1.76,3.306-1.76,5.429c0,2.111,0.586,3.917,1.76,5.412
		c1.028,1.32,2.24,2.063,3.638,2.23v4.358c-2.962-0.112-5.504-1.285-7.627-3.519c-2.246-2.346-3.369-5.184-3.369-8.515
		c0-3.329,1.123-6.172,3.369-8.531c2.123-2.223,4.664-3.391,7.627-3.503V-26.42z M18.681-11.102
		c1.553-0.079,2.882-0.832,3.988-2.264c1.173-1.495,1.76-3.3,1.76-5.412c0-2.124-0.587-3.933-1.76-5.429
		c-1.106-1.419-2.435-2.169-3.988-2.247v-4.407c3.005,0.1,5.586,1.272,7.743,3.518c2.245,2.358,3.369,5.202,3.369,8.531
		c0,3.33-1.124,6.168-3.369,8.515c-2.156,2.256-4.737,3.435-7.743,3.535V-11.102z"/>
	<path d="M46.929-6.762h-5.463v-24.083h5.463V-6.762z M57.906-17.571c0.425,0.436,0.832,1.067,1.224,1.893
		c0.168,0.179,0.313,0.894,0.436,2.146l0.168,0.855l0.503,2.647c0.113,0.28,0.257,0.817,0.436,1.609
		c0.19,0.29,0.531,0.821,1.022,1.592l-5.715,0.033c-0.19,0-0.531-0.681-1.022-2.044c-0.101-0.167-0.385-1.759-0.855-4.776
		c-0.2-0.716-0.659-1.285-1.374-1.71c-0.671-0.234-2.312-0.352-4.926-0.352v-4.357h4.374c1.709-0.604,2.564-1.732,2.564-3.386
		v-0.419c-0.38-1.799-1.408-2.732-3.084-2.798h-3.854v-4.273h3.854c3.229,0,5.569,0.876,7.022,2.63
		c1.027,1.498,1.543,3.068,1.543,4.709v0.317c0,1.878-0.542,3.527-1.627,4.944C58.392-18.041,58.163-17.794,57.906-17.571z"/>
	<path d="M78.612-6.762h-5.464v-24.083h5.464V-6.762z"/>
	<path d="M101.292-26.42c-1.397,0.169-2.608,0.906-3.637,2.214c-1.173,1.496-1.759,3.306-1.759,5.429
		c0,2.111,0.586,3.917,1.759,5.412c1.028,1.32,2.239,2.063,3.637,2.23v4.358c-2.961-0.112-5.502-1.285-7.626-3.519
		c-2.245-2.346-3.368-5.184-3.368-8.515c0-3.329,1.123-6.172,3.368-8.531c2.124-2.223,4.665-3.391,7.626-3.503V-26.42z
		 M113.275-18.526c-0.068,3.206-1.19,5.95-3.369,8.229c-2.157,2.256-4.737,3.435-7.744,3.535v-4.339
		c1.554-0.079,2.883-0.832,3.989-2.264c0.19-0.234,0.365-0.479,0.52-0.735h-4.54v-4.425H113.275z M106.151-24.206
		c-1.105-1.419-2.435-2.169-3.989-2.247v-4.407c3.007,0.1,5.587,1.272,7.744,3.518c1.094,1.151,1.92,2.419,2.479,3.805l-4.759,2.345
		C107.348-22.307,106.856-23.314,106.151-24.206z"/>
	<path d="M130.461-6.762h-5.463v-24.083h5.463V-6.762z"/>
	<path d="M147.61-6.762h-5.463v-22.591l5.463,9.118V-6.762z M156.494-6.778l-14.279-24h5.195l14.295,24.016L156.494-6.778z
		 M156.276-30.794h5.462v22.591l-5.462-9.116V-30.794z"/>
	<path d="M186.785-30.794l8.498,24.032h-6.202l-1.609-5.111h-6.653l1.291-4.441h4.088v-0.083l-2.479-8.85h-0.083L178.44-6.762
		h-4.861v-3.485l6.988-20.547H186.785z"/>
	<path d="M211.965-6.762h-5.463v-24.083h5.463V-6.762z M224.368-11.203v4.425h-11.261v-4.425H224.368z"/>
	<path d="M261.788-6.762h-5.464v-24.083h5.464V-6.762z M273.989-30.794v4.425h-11.263v-4.425H273.989z M273.1-21.693v4.423h-10.34
		v-4.423H273.1z"/>
	<path d="M291.124-6.762h-5.464v-24.083h5.464V-6.762z M302.101-17.571c0.425,0.436,0.832,1.067,1.224,1.893
		c0.168,0.179,0.313,0.894,0.435,2.146l0.169,0.855l0.501,2.647c0.112,0.28,0.258,0.817,0.435,1.609
		c0.191,0.29,0.531,0.821,1.023,1.592l-5.715,0.033c-0.189,0-0.531-0.681-1.022-2.044c-0.102-0.167-0.386-1.759-0.855-4.776
		c-0.201-0.716-0.66-1.285-1.375-1.71c-0.67-0.234-2.312-0.352-4.927-0.352v-4.357h4.374c1.709-0.604,2.564-1.732,2.564-3.386
		v-0.419c-0.38-1.799-1.408-2.732-3.085-2.798h-3.854v-4.273h3.854c3.23,0,5.57,0.876,7.023,2.63
		c1.028,1.498,1.543,3.068,1.543,4.709v0.317c0,1.878-0.543,3.527-1.628,4.944C302.587-18.041,302.358-17.794,302.101-17.571z"/>
	<path d="M322.807-6.762h-5.463v-24.083h5.463V-6.762z M335.008-30.794v4.425h-11.262v-4.425H335.008z M334.12-21.693v4.423h-10.34
		v-4.423H334.12z M335.059-11.22v4.425h-11.261v-4.425H335.059z"/>
	<path d="M352.244-6.762h-5.464v-24.083h5.464V-6.762z M364.445-30.794v4.425h-11.261v-4.425H364.445z M363.557-21.693v4.423
		h-10.341v-4.423H363.557z M364.495-11.22v4.425h-11.262v-4.425H364.495z"/>
	<path d="M406.893-6.762h-1.76l-8.765-24.032h5.196l5.329,14.614V-6.762z M407.915-15.979l5.38-14.766h5.195l-8.749,23.999h-1.827
		V-15.979z"/>
	<path d="M435.09-6.762h-5.462v-24.083h5.462V-6.762z M447.292-30.794v4.425h-11.264v-4.425H447.292z M446.403-21.693v4.423h-10.342
		v-4.423H446.403z M447.341-11.22v4.425H436.08v-4.425H447.341z"/>
	<path d="M470.058-26.42c-1.396,0.169-2.608,0.906-3.638,2.214c-1.173,1.496-1.757,3.306-1.757,5.429
		c0,2.111,0.584,3.917,1.757,5.412c1.029,1.32,2.241,2.063,3.638,2.23v4.358c-2.959-0.112-5.503-1.285-7.625-3.519
		c-2.247-2.346-3.368-5.184-3.368-8.515c0-3.329,1.121-6.172,3.368-8.531c2.122-2.223,4.666-3.391,7.625-3.503V-26.42z
		 M474.921-24.206c-1.107-1.419-2.438-2.169-3.992-2.247v-4.407c3.006,0.1,5.586,1.272,7.742,3.518
		c1.094,1.151,1.921,2.419,2.48,3.805l-4.759,2.345C476.113-22.307,475.622-23.314,474.921-24.206z M478.671-10.297
		c-2.156,2.256-4.736,3.435-7.742,3.535v-4.339c1.555-0.079,2.885-0.832,3.992-2.264c0.545-0.703,0.964-1.473,1.254-2.312
		l4.627,2.398C480.265-12.208,479.556-11.213,478.671-10.297z"/>
	<path d="M510.54-30.744v4.425h-17.9v-4.425H510.54z M504.458-6.812h-5.464v-18.619h5.464V-6.812z"/>
	<path d="M533.424-26.42c-1.397,0.169-2.609,0.906-3.639,2.214c-1.173,1.496-1.757,3.306-1.757,5.429
		c0,2.111,0.584,3.917,1.757,5.412c1.029,1.32,2.241,2.063,3.639,2.23v4.358c-2.96-0.112-5.503-1.285-7.625-3.519
		c-2.248-2.346-3.369-5.184-3.369-8.515c0-3.329,1.121-6.172,3.369-8.531c2.122-2.223,4.665-3.391,7.625-3.503V-26.42z
		 M534.295-11.102c1.554-0.079,2.884-0.832,3.991-2.264c1.172-1.495,1.758-3.3,1.758-5.412c0-2.124-0.586-3.933-1.758-5.429
		c-1.107-1.419-2.438-2.169-3.991-2.247v-4.407c3.006,0.1,5.585,1.272,7.742,3.518c2.247,2.358,3.37,5.202,3.37,8.531
		c0,3.33-1.123,6.168-3.37,8.515c-2.157,2.256-4.736,3.435-7.742,3.535V-11.102z"/>
	<path d="M562.544-6.762h-5.465v-24.083h5.465V-6.762z M573.522-17.571c0.422,0.436,0.832,1.067,1.222,1.893
		c0.166,0.179,0.312,0.894,0.438,2.146l0.164,0.855l0.506,2.647c0.109,0.28,0.254,0.817,0.436,1.609
		c0.188,0.29,0.53,0.821,1.022,1.592l-5.718,0.033c-0.189,0-0.53-0.681-1.021-2.044c-0.1-0.167-0.386-1.759-0.854-4.776
		c-0.203-0.716-0.659-1.285-1.377-1.71c-0.669-0.234-2.31-0.352-4.923-0.352v-4.357h4.371c1.711-0.604,2.564-1.732,2.564-3.386
		v-0.419c-0.379-1.799-1.405-2.732-3.083-2.798h-3.852v-4.273h3.852c3.23,0,5.569,0.876,7.021,2.63
		c1.031,1.498,1.541,3.068,1.541,4.709v0.317c0,1.878-0.539,3.527-1.621,4.944C574.008-18.041,573.778-17.794,573.522-17.571z"/>
	<path d="M594.93-12.208c1.028,0.593,2.006,0.944,2.935,1.057l0.486,0.083l-0.035,4.306c-2.916,0.079-5.149-0.519-6.704-1.792
		c-1.731-1.118-2.659-3.061-2.783-5.832l5.045-0.486c0.09,1.174,0.442,2.039,1.057,2.598V-12.208z M596.74-17.017
		c-4.826-0.873-7.239-3.112-7.239-6.722v-0.319c0-3.766,2.435-5.982,7.307-6.652l1.508-0.034l0.035,4.005
		c-1.098,0.089-1.857,0.224-2.279,0.402c-0.885,0.336-1.315,1.096-1.292,2.279c0,1.107,1.401,1.917,4.206,2.43
		c0.703,0.124,1.28,0.24,1.727,0.352c4.972,0.827,7.459,3.195,7.459,7.106v0.336c0,4.009-2.438,6.375-7.311,7.088l-1.642,0.05v-4.24
		c1.162-0.123,1.957-0.279,2.381-0.468c0.883-0.359,1.314-1.168,1.29-2.431c0-1.186-1.386-2.101-4.157-2.75
		c-0.626-0.189-1.312-0.352-2.06-0.485L596.74-17.017z M599.137-30.794c2.403,0,4.52,0.676,6.35,2.028
		c1.075,0.895,1.858,2.548,2.349,4.96v0.235l-2.748,0.336l-2.281,0.149c-0.212-1.317-0.59-2.184-1.137-2.598
		c-0.448-0.379-1.287-0.731-2.515-1.055L599.137-30.794z"/>
	<path d="M636.102-12.208c1.027,0.593,2.006,0.944,2.934,1.057l0.486,0.083l-0.035,4.306c-2.916,0.079-5.148-0.519-6.704-1.792
		c-1.73-1.118-2.659-3.061-2.781-5.832l5.044-0.486c0.091,1.174,0.442,2.039,1.057,2.598V-12.208z M637.911-17.017
		c-4.824-0.873-7.238-3.112-7.238-6.722v-0.319c0-3.766,2.434-5.982,7.307-6.652l1.507-0.034l0.035,4.005
		c-1.097,0.089-1.857,0.224-2.279,0.402c-0.885,0.336-1.315,1.096-1.292,2.279c0,1.107,1.402,1.917,4.206,2.43
		c0.705,0.124,1.281,0.24,1.728,0.352c4.972,0.827,7.458,3.195,7.458,7.106v0.336c0,4.009-2.438,6.375-7.309,7.088l-1.642,0.05
		v-4.24c1.161-0.123,1.955-0.279,2.379-0.468c0.883-0.359,1.314-1.168,1.291-2.431c0-1.186-1.386-2.101-4.156-2.75
		c-0.627-0.189-1.314-0.352-2.06-0.485L637.911-17.017z M640.308-30.794c2.404,0,4.521,0.676,6.35,2.028
		c1.075,0.895,1.859,2.548,2.351,4.96v0.235l-2.75,0.336l-2.279,0.149c-0.212-1.317-0.591-2.184-1.139-2.598
		c-0.448-0.379-1.286-0.731-2.515-1.055L640.308-30.794z"/>
	<path d="M666.527-6.762h-5.464v-24.083h5.464V-6.762z"/>
	<path d="M683.677-6.762h-5.463v-22.591l5.463,9.118V-6.762z M692.56-6.778l-14.28-24h5.196l14.296,24.016L692.56-6.778z
		 M692.342-30.794h5.463v22.591l-5.463-9.116V-30.794z"/>
	<path d="M720.64-26.42c-1.397,0.169-2.61,0.906-3.639,2.214c-1.174,1.496-1.758,3.306-1.758,5.429c0,2.111,0.584,3.917,1.758,5.412
		c1.028,1.32,2.241,2.063,3.639,2.23v4.358c-2.96-0.112-5.505-1.285-7.626-3.519c-2.247-2.346-3.366-5.184-3.366-8.515
		c0-3.329,1.119-6.172,3.366-8.531c2.121-2.223,4.666-3.391,7.626-3.503V-26.42z M725.501-24.206
		c-1.107-1.419-2.436-2.169-3.991-2.247v-4.407c3.007,0.1,5.586,1.272,7.742,3.518c1.095,1.151,1.921,2.419,2.48,3.805l-4.759,2.345
		C726.694-22.307,726.202-23.314,725.501-24.206z M729.252-10.297c-2.156,2.256-4.735,3.435-7.742,3.535v-4.339
		c1.556-0.079,2.885-0.832,3.991-2.264c0.547-0.703,0.966-1.473,1.255-2.312l4.628,2.398
		C730.846-12.208,730.139-11.213,729.252-10.297z"/>
	<path d="M748.736-6.762h-5.463v-24.083h5.463V-6.762z M760.938-30.794v4.425h-11.261v-4.425H760.938z M760.05-21.693v4.423h-10.342
		v-4.423H760.05z M760.987-11.22v4.425h-11.261v-4.425H760.987z"/>
	<path d="M792.774-11.371v-0.704c0-3.911,2.558-6.547,7.662-7.91c0.445-0.112,1.022-0.23,1.726-0.351
		c2.736-0.794,4.072-2.067,4.005-3.823c0.023-1.184-0.407-1.944-1.289-2.278c-0.425-0.179-1.185-0.313-2.28-0.402l0.034-4.007
		l1.507,0.034c4.872,0.67,7.309,2.889,7.309,6.653v0.318c0,3.61-2.347,6.314-7.041,8.114c-0.705,0.099-1.367,0.244-1.994,0.435
		c-3.003,0.872-4.455,2.056-4.356,3.552l0.018,5.028h-5.299V-11.371z M798.576-25.75c-0.582,0.526-0.916,1.331-1.007,2.415
		l-4.776-0.454c0.112-2.569,0.99-4.374,2.632-5.413c1.475-1.184,3.591-1.742,6.35-1.675l0.035,4.005l-0.453,0.083
		c-0.883,0.101-1.809,0.43-2.78,0.989V-25.75z M811.479-11.203v4.425h-12.652v-4.425H811.479z"/>
	<path d="M830.692-26.286c-1.317,0.202-2.145,1.122-2.481,2.766v8.765c0,1.687,0.828,2.815,2.481,3.385v4.575
		c-2.713-0.2-4.625-0.916-5.731-2.144c-1.484-1.811-2.229-3.694-2.229-5.648v-8.667c0-1.697,0.515-3.328,1.542-4.892l-0.084-0.083
		v-0.083l0.084,0.083c1.363-1.654,3.502-2.531,6.418-2.631V-26.286z M831.9-30.811c2.917,0.101,5.057,0.979,6.418,2.632l0.085-0.085
		v0.085l-0.085,0.083c1.027,1.563,1.542,3.195,1.542,4.894v8.663c0,1.957-0.741,3.838-2.229,5.648
		c-1.106,1.229-3.017,1.945-5.731,2.146v-4.577c1.653-0.568,2.481-1.697,2.481-3.384v-8.765c-0.335-1.643-1.163-2.565-2.481-2.766
		V-30.811z"/>
	<path d="M859.628-26.286c-1.319,0.202-2.146,1.122-2.479,2.766v8.765c0,1.687,0.826,2.815,2.479,3.385v4.575
		c-2.717-0.2-4.626-0.916-5.731-2.144c-1.486-1.811-2.229-3.694-2.229-5.648v-8.667c0-1.697,0.513-3.328,1.543-4.892l-0.084-0.083
		v-0.083l0.084,0.083c1.362-1.654,3.502-2.531,6.418-2.631V-26.286z M860.835-30.811c2.916,0.101,5.055,0.979,6.419,2.632
		l0.082-0.085v0.085l-0.082,0.083c1.027,1.563,1.541,3.195,1.541,4.894v8.663c0,1.957-0.742,3.838-2.227,5.648
		c-1.107,1.229-3.021,1.945-5.733,2.146v-4.577c1.651-0.568,2.479-1.697,2.479-3.384v-8.765c-0.336-1.643-1.163-2.565-2.479-2.766
		V-30.811z"/>
	<path d="M880.616-26.386v-4.425h18.688v4.425H880.616z M886.4-11.789c0.972,0.559,1.892,0.887,2.766,0.988l0.468,0.085
		l-0.035,4.005c-2.758,0.067-4.875-0.492-6.351-1.676c-1.642-1.039-2.518-2.843-2.632-5.413l4.777-0.452
		c0.09,1.084,0.425,1.888,1.007,2.413V-11.789z M885.946-25.649c-0.244,2.415,1.027,3.687,3.821,3.822
		c0.937-0.011,1.915,0.15,2.935,0.486c4.378,1.452,6.569,3.982,6.569,7.591v0.318c0,3.766-2.436,5.983-7.309,6.654l-1.508,0.033
		l-0.031-4.005c1.095-0.09,1.853-0.223,2.278-0.402c0.883-0.336,1.313-1.096,1.29-2.28c0.066-1.754-1.135-3.028-3.604-3.821
		c-0.972-0.123-1.854-0.24-2.648-0.351c-4.894-0.347-7.252-3.023-7.073-8.028L885.946-25.649z"/>
</g>
<g style="opacity:0.25;">
	<path d="M279.576,864.625c-0.972,0.12-1.817,0.626-2.533,1.538c-0.816,1.044-1.22,2.3-1.22,3.776c0,1.475,0.404,2.725,1.22,3.769
		c0.716,0.919,1.561,1.43,2.533,1.549v3.033c-2.064-0.078-3.827-0.89-5.306-2.449c-1.564-1.635-2.346-3.61-2.346-5.924
		c0-2.316,0.782-4.292,2.346-5.936c1.478-1.546,3.242-2.357,5.306-2.437V864.625z M282.956,866.163
		c-0.77-0.986-1.693-1.508-2.775-1.563v-3.068c2.092,0.068,3.887,0.887,5.391,2.45c0.758,0.8,1.332,1.684,1.725,2.648l-3.313,1.634
		C283.787,867.486,283.448,866.785,282.956,866.163z M285.571,875.842c-1.504,1.568-3.299,2.389-5.391,2.459v-3.019
		c1.082-0.053,2.006-0.583,2.775-1.573c0.383-0.489,0.674-1.021,0.877-1.612l3.219,1.67
		C286.677,874.519,286.184,875.201,285.571,875.842z"/>
	<path d="M292.132,878.301h-3.801v-16.755h3.801V878.301z M299.768,870.783c0.299,0.302,0.582,0.737,0.853,1.313
		c0.119,0.125,0.219,0.623,0.301,1.493l0.116,0.592l0.355,1.85c0.076,0.19,0.18,0.566,0.299,1.116
		c0.135,0.202,0.368,0.57,0.715,1.111l-3.978,0.024c-0.131,0-0.366-0.479-0.712-1.428c-0.07-0.114-0.266-1.222-0.594-3.327
		c-0.143-0.49-0.459-0.889-0.958-1.185c-0.465-0.162-1.61-0.247-3.424-0.247v-3.028h3.042c1.188-0.423,1.785-1.204,1.785-2.357
		v-0.291c-0.268-1.257-0.979-1.898-2.146-1.948h-2.681v-2.976h2.681c2.245,0,3.873,0.613,4.885,1.834
		c0.717,1.038,1.072,2.134,1.072,3.274v0.222c0,1.307-0.377,2.448-1.127,3.445C300.104,870.455,299.946,870.627,299.768,870.783z"/>
	<path d="M307.181,878.301h-3.799v-16.755h3.799V878.301z M315.671,861.587v3.072h-7.834v-3.072H315.671z M315.058,867.914v3.079
		h-7.201v-3.079H315.058z M315.704,875.2v3.083h-7.836V875.2H315.704z"/>
	<path d="M326.058,861.587l5.909,16.714h-4.311l-1.117-3.552h-4.629l0.897-3.094h2.845v-0.063l-1.727-6.156h-0.055l-3.618,12.865
		h-3.381v-2.427l4.864-14.287H326.058z"/>
	<path d="M345.204,861.615v3.079h-12.455v-3.079H345.204z M340.972,878.266h-3.801v-12.947h3.801V878.266z"/>
	<path d="M350.286,878.301h-3.803v-16.755h3.803V878.301z M358.775,861.587v3.072h-7.839v-3.072H358.775z M358.153,867.914v3.079
		h-7.189v-3.079H358.153z M358.806,875.2v3.083h-7.828V875.2H358.806z"/>
	<path d="M363.778,878.301h-3.807v-16.755h3.807V878.301z M369.208,866.618c-0.262-1.3-0.979-1.968-2.143-1.993l-2.686-0.034v-3.094
		h2.686c2.246,0,3.873,0.636,4.883,1.9c0.717,1.092,1.074,2.228,1.074,3.407v6.179c0,1.185-0.357,2.317-1.074,3.404
		c-1.01,1.267-2.637,1.903-4.883,1.903h-2.686V875.2l2.686-0.034c1.164-0.027,1.881-0.685,2.143-1.996V866.618z"/>
	<path d="M384.739,861.546h0.049c2.689,0,4.383,0.956,5.093,2.87c0.162,0.377,0.244,0.815,0.244,1.311v0.293
		c0.009,0.433-0.093,0.794-0.302,1.088c-0.252,0.731-0.664,1.324-1.236,1.783l-0.533,0.309l-0.285,0.086
		c0.304,0.168,0.552,0.294,0.744,0.389c1.182,0.71,1.857,1.758,2.023,3.161c0.038,0.155,0.058,0.334,0.058,0.547
		c-0.064,0.995-0.161,1.571-0.296,1.724c-0.076,0.419-0.348,0.919-0.826,1.491c-0.559,0.798-1.568,1.355-3.031,1.685l-1.002,0.052
		h-0.061c-0.072,0-0.289,0-0.639-0.01l-3.5,0.01v-3.053h3.906c1.005-0.327,1.516-0.942,1.539-1.844v-0.486
		c0.063-0.608-0.215-1.107-0.827-1.492c-0.127-0.197-0.501-0.325-1.118-0.375l-3.486-0.025l0.009-3.139h3.478
		c0.139-0.03,0.336-0.04,0.58-0.04c0.71-0.31,1.063-0.862,1.063-1.671l-0.056-0.423l-0.12-0.292h-0.057
		c-0.313-0.45-0.786-0.704-1.411-0.769l-3.522,0.025l0.022-3.22L384.739,861.546z"/>
	<path d="M391.696,861.571h4.19l2.469,4.231l-2.11,3.545L391.696,861.571z M396.431,870.185l5.037-8.614h4.191l-5.412,9.256v7.439
		h-3.804L396.431,870.185z"/>
	<path d="M421.171,878.301h-1.221l-6.1-16.714h3.613l3.707,10.163V878.301z M421.882,871.888l3.744-10.273h3.615l-6.086,16.698
		h-1.274V871.888z"/>
	<path d="M433.798,878.301h-3.803v-16.755h3.803V878.301z M442.288,861.587v3.072h-7.838v-3.072H442.288z M441.673,867.914v3.079
		h-7.195v-3.079H441.673z M442.323,875.2v3.083h-7.838V875.2H442.323z"/>
	<path d="M451.14,864.625c-0.975,0.12-1.816,0.626-2.533,1.538c-0.82,1.044-1.223,2.3-1.223,3.776c0,1.475,0.402,2.725,1.223,3.769
		c0.717,0.919,1.559,1.43,2.533,1.549v3.033c-2.066-0.078-3.83-0.89-5.31-2.449c-1.559-1.635-2.344-3.61-2.344-5.924
		c0-2.316,0.785-4.292,2.344-5.936c1.48-1.546,3.244-2.357,5.31-2.437V864.625z M454.519,866.163
		c-0.77-0.986-1.695-1.508-2.775-1.563v-3.068c2.092,0.068,3.883,0.887,5.387,2.45c0.766,0.8,1.336,1.684,1.725,2.648l-3.305,1.634
		C455.349,867.486,455.005,866.785,454.519,866.163z M457.13,875.842c-1.504,1.568-3.295,2.389-5.387,2.459v-3.019
		c1.08-0.053,2.006-0.583,2.775-1.573c0.379-0.489,0.676-1.021,0.875-1.612l3.219,1.67
		C458.237,874.519,457.743,875.201,457.13,875.842z"/>
	<path d="M472.31,861.615v3.079h-12.451v-3.079H472.31z M468.075,878.266h-3.801v-12.947h3.801V878.266z"/>
	<path d="M481.246,864.625c-0.979,0.12-1.82,0.626-2.537,1.538c-0.811,1.044-1.225,2.3-1.225,3.776c0,1.475,0.414,2.725,1.225,3.769
		c0.717,0.919,1.559,1.43,2.537,1.549v3.033c-2.065-0.078-3.838-0.89-5.313-2.449c-1.559-1.635-2.346-3.61-2.346-5.924
		c0-2.316,0.787-4.292,2.346-5.936c1.475-1.546,3.248-2.357,5.313-2.437V864.625z M481.846,875.282
		c1.082-0.053,2.006-0.583,2.777-1.573c0.816-1.044,1.221-2.294,1.221-3.769c0-1.477-0.404-2.733-1.221-3.776
		c-0.771-0.986-1.695-1.508-2.777-1.563v-3.068c2.09,0.068,3.883,0.887,5.391,2.45c1.557,1.644,2.342,3.62,2.342,5.936
		c0,2.313-0.785,4.289-2.342,5.924c-1.508,1.568-3.301,2.389-5.391,2.459V875.282z"/>
	<path d="M494.506,878.301h-3.801v-16.755h3.801V878.301z M502.145,870.783c0.299,0.302,0.582,0.737,0.85,1.313
		c0.115,0.125,0.221,0.623,0.307,1.493l0.115,0.592l0.352,1.85c0.078,0.19,0.178,0.566,0.301,1.116
		c0.133,0.202,0.369,0.57,0.713,1.111l-3.979,0.024c-0.133,0-0.371-0.479-0.709-1.428c-0.066-0.114-0.27-1.222-0.596-3.327
		c-0.139-0.49-0.455-0.889-0.953-1.185c-0.469-0.162-1.615-0.247-3.432-0.247v-3.028h3.039c1.193-0.423,1.787-1.204,1.787-2.357
		v-0.291c-0.262-1.257-0.977-1.898-2.143-1.948h-2.684v-2.976h2.684c2.246,0,3.877,0.613,4.885,1.834
		c0.715,1.038,1.072,2.134,1.072,3.274v0.222c0,1.307-0.379,2.448-1.131,3.445C502.484,870.455,502.324,870.627,502.145,870.783z"/>
	<path d="M509.553,878.301h-3.795v-16.755h3.795V878.301z M512.85,861.497c2.242,0,3.873,0.636,4.885,1.9
		c0.717,1.092,1.072,2.228,1.072,3.407v0.235c0,1.363-0.383,2.554-1.131,3.577c-1.012,1.372-3.018,2.005-6.018,1.898h-1.49v-3.146
		h3.043c1.182-0.437,1.785-1.25,1.785-2.448v-0.304c-0.264-1.3-0.975-1.983-2.146-2.027h-2.682v-3.094H512.85z"/>
	<path d="M527.676,864.625c-0.967,0.12-1.813,0.626-2.529,1.538c-0.809,1.044-1.225,2.3-1.225,3.776
		c0,1.475,0.416,2.725,1.225,3.769c0.717,0.919,1.563,1.43,2.529,1.549v3.033c-2.057-0.078-3.828-0.89-5.307-2.449
		c-1.559-1.635-2.338-3.61-2.338-5.924c0-2.316,0.779-4.292,2.338-5.936c1.479-1.546,3.25-2.357,5.307-2.437V864.625z
		 M528.289,875.282c1.074-0.053,2.002-0.583,2.771-1.573c0.813-1.044,1.223-2.294,1.223-3.769c0-1.477-0.41-2.733-1.223-3.776
		c-0.769-0.986-1.697-1.508-2.771-1.563v-3.068c2.088,0.068,3.881,0.887,5.391,2.45c1.555,1.644,2.336,3.62,2.336,5.936
		c0,2.313-0.781,4.289-2.336,5.924c-1.51,1.568-3.303,2.389-5.391,2.459V875.282z"/>
	<path d="M540.947,878.301h-3.801v-16.755h3.801V878.301z M548.584,870.783c0.295,0.302,0.576,0.737,0.848,1.313
		c0.121,0.125,0.221,0.623,0.305,1.493l0.119,0.592l0.352,1.85c0.076,0.19,0.176,0.566,0.301,1.116
		c0.131,0.202,0.369,0.57,0.705,1.111l-3.973,0.024c-0.131,0-0.369-0.479-0.707-1.428c-0.074-0.114-0.27-1.222-0.596-3.327
		c-0.143-0.49-0.461-0.889-0.957-1.185c-0.463-0.162-1.615-0.247-3.428-0.247v-3.028h3.043c1.188-0.423,1.783-1.204,1.783-2.357
		v-0.291c-0.262-1.257-0.979-1.898-2.147-1.948h-2.68v-2.976h2.68c2.248,0,3.879,0.613,4.889,1.834
		c0.713,1.038,1.07,2.134,1.07,3.274v0.222c0,1.307-0.377,2.448-1.135,3.445C548.92,870.455,548.762,870.627,548.584,870.783z"/>
	<path d="M564.617,861.615v3.079h-12.455v-3.079H564.617z M560.381,878.266h-3.803v-12.947h3.803V878.266z"/>
	<path d="M575.084,861.587l5.914,16.714h-4.324l-1.107-3.552h-4.631l0.895-3.094h2.85v-0.063l-1.729-6.156h-0.061l-3.611,12.865
		h-3.387v-2.427l4.863-14.287H575.084z"/>
	<path d="M585.609,878.301h-3.799v-16.755h3.799V878.301z M594.242,875.212v3.079h-7.836v-3.079H594.242z"/>
	<path d="M599.31,875.226v3.075h-3.801v-3.075H599.31z"/>
	<path d="M608.139,864.625c-0.973,0.12-1.816,0.626-2.529,1.538c-0.82,1.044-1.227,2.3-1.227,3.776c0,1.475,0.406,2.725,1.227,3.769
		c0.713,0.919,1.557,1.43,2.529,1.549v3.033c-2.065-0.078-3.834-0.89-5.309-2.449c-1.561-1.635-2.342-3.61-2.342-5.924
		c0-2.316,0.781-4.292,2.342-5.936c1.475-1.546,3.244-2.357,5.309-2.437V864.625z M611.519,866.163
		c-0.771-0.986-1.695-1.508-2.775-1.563v-3.068c2.094,0.068,3.883,0.887,5.385,2.45c0.762,0.8,1.338,1.684,1.725,2.648l-3.307,1.634
		C612.352,867.486,612.01,866.785,611.519,866.163z M614.129,875.842c-1.502,1.568-3.291,2.389-5.385,2.459v-3.019
		c1.08-0.053,2.004-0.583,2.775-1.573c0.379-0.489,0.672-1.021,0.873-1.612l3.223,1.67
		C615.242,874.519,614.746,875.201,614.129,875.842z"/>
	<path d="M624.543,864.625c-0.977,0.12-1.811,0.626-2.531,1.538c-0.816,1.044-1.227,2.3-1.227,3.776c0,1.475,0.41,2.725,1.227,3.769
		c0.721,0.919,1.555,1.43,2.531,1.549v3.033c-2.061-0.078-3.828-0.89-5.313-2.449c-1.559-1.635-2.338-3.61-2.338-5.924
		c0-2.316,0.779-4.292,2.338-5.936c1.484-1.546,3.252-2.357,5.313-2.437V864.625z M625.144,875.282
		c1.084-0.053,2.012-0.583,2.777-1.573c0.816-1.044,1.227-2.294,1.227-3.769c0-1.477-0.41-2.733-1.227-3.776
		c-0.766-0.986-1.693-1.508-2.777-1.563v-3.068c2.094,0.068,3.891,0.887,5.391,2.45c1.557,1.644,2.342,3.62,2.342,5.936
		c0,2.313-0.785,4.289-2.342,5.924c-1.5,1.568-3.297,2.389-5.391,2.459V875.282z"/>
	<path d="M637.809,878.301h-3.803v-15.714l3.803,6.347V878.301z M643.32,877.148l-9.268-15.553h3.617l5.65,9.475V877.148z
		 M644.199,871.06l5.647-9.474h3.609l-9.256,15.55V871.06z M649.559,868.934l3.803-6.347v15.714h-3.803V868.934z"/>
</g>
<g>
	<path style="fill:#96C160;" d="M348.053,641.356c-1.61-0.92-3.201-0.973-4.774-0.158c-1.574,0.814-4.121,4.416-7.646,10.803
		l-27.084,49.049c-2.698,4.887-7.016,12.936-9.596,17.887c0,0-1.462,2.805-1.831,4.811c-0.372,2.008,0.469,3.596,2.517,4.766
		c2.095,1.199,3.974,0.996,5.632-0.611c1.656-1.605,4.502-6.063,8.537-13.369l26.574-48.127c2.698-4.889,6.982-12.955,9.521-17.93
		c0,0,0.305-0.596,0.584-2.553C350.766,643.963,349.953,642.441,348.053,641.356"/>
	<path style="fill:#96C160;" d="M276.504,582.43c1.029-1.68,0.886-3.406-0.426-5.178c-1.113-1.498-2.549-2.197-4.31-2.094
		c-1.763,0.102-5.519,2.359-11.27,6.766l-44.17,33.852c-4.399,3.371-11.532,8.979-15.851,12.457c0,0-2.446,1.973-3.577,3.66
		c-1.131,1.684-0.991,3.482,0.424,5.393c1.444,1.953,3.246,2.537,5.398,1.738c2.153-0.791,6.516-3.713,13.098-8.754l43.342-33.215
		c4.401-3.373,11.509-9.008,15.797-12.525C274.96,584.529,275.475,584.107,276.504,582.43"/>
	<path style="fill:#96C160;" d="M456.682,90.196c-194.186,0-352.172,159.081-352.172,354.619
		c0,195.537,157.985,354.619,352.172,354.619c194.19,0,352.175-159.082,352.175-354.619
		C808.856,249.277,650.871,90.196,456.682,90.196 M795.631,374.175l2.293,16.087c0.774,5.423-3.234,10.472-8.904,11.224L694.453,414
		c-5.67,0.751-9.677,5.801-8.904,11.224l0.292,2.053c0.775,5.423-3.233,10.473-8.906,11.225l-8.194,1.084
		c-5.674,0.751-10.944-3.071-11.717-8.494l-5.396-37.859c-0.774-5.423,3.234-10.474,8.904-11.226l123.382-16.325
		C789.585,364.93,794.857,368.752,795.631,374.175 M727.277,451.959c0,7.326-5.939,13.266-13.267,13.266
		c-7.328,0-13.268-5.939-13.268-13.266c0-7.329,5.939-13.267,13.268-13.267C721.338,438.692,727.277,444.63,727.277,451.959
		 M744.237,270.06c5.131-2.426,11.395-0.391,13.912,4.522l7.484,14.576c2.523,4.914,0.385,10.918-4.744,13.345l-85.576,40.455
		c-5.129,2.426-7.264,8.431-4.742,13.343l0.954,1.863c2.523,4.912,0.386,10.917-4.742,13.343l-7.419,3.506
		c-5.134,2.426-11.395,0.391-13.918-4.521l-17.607-34.304c-2.524-4.912-0.387-10.917,4.747-13.343L744.237,270.06z M675.038,179.043
		l24.946,21.831c4.225,3.694,5.075,10.443,1.897,14.993L631.74,316.225c-3.178,4.552-9.237,5.25-13.458,1.555l-13.141-11.499
		c-4.226-3.694-4.811-10.259-1.305-14.585l3.308-4.08c3.504-4.326,4.13-9.83,1.387-12.232c-2.74-2.399-8.424-1.32-12.621,2.402
		l-3.962,3.507c-4.197,3.722-11.087,3.741-15.31,0.046l-13.47-11.791c-4.224-3.695-4.104-9.61,0.266-13.146l95.981-77.649
		C663.786,175.217,670.815,175.348,675.038,179.043 M474.841,230.039l35.461-114.138c1.631-5.247,7.455-8.256,12.936-6.687
		l16.185,4.634c5.481,1.568,14.395,4.327,19.804,6.126c0,0,9.958,3.318,15.311,6.7c5.348,3.381,9.03,8.18,11.033,14.393
		c2.002,6.215,1.217,15.078-2.358,26.59c-2.42,7.785-5.382,12.846-8.887,15.187c-3.509,2.338-9.273,3.255-17.295,2.749
		c7.809,4.209,12.553,8.838,14.231,13.891c1.675,5.051,1.17,11.916-1.527,20.587l-0.87,2.811
		c-1.631,5.246-4.587,13.738-6.573,18.872c0,0-2.333,6.029-5.833,9.749c-3.499,3.721-7.845,5.705-13.041,5.95
		c-5.2,0.246-15.078-1.717-29.646-5.885l-31.918-9.137C476.368,240.863,473.213,235.285,474.841,230.039 M653.339,444.815
		c0,109.121-88.219,197.9-196.657,197.9c-108.436,0-196.656-88.779-196.656-197.9c0-109.122,88.22-197.901,196.656-197.901
		C565.12,246.914,653.339,335.693,653.339,444.815 M377.602,111.747l61.195-8.192c5.67-0.758,10.957,3.054,11.748,8.476l1.144,7.833
		c0.793,5.421-3.199,10.476-8.868,11.235l-1.614,0.215c-5.67,0.758-9.66,5.815-8.867,11.234l13.204,90.379
		c0.791,5.421-3.199,10.476-8.869,11.234l-16.82,2.253c-5.671,0.76-10.959-3.055-11.75-8.475l-13.205-90.378
		c-0.792-5.419-6.079-9.234-11.748-8.475l-1.526,0.205c-5.668,0.758-10.957-3.054-11.748-8.476l-1.144-7.833
		C367.94,117.561,371.932,112.507,377.602,111.747 M247.153,184.977c0.358-5.926,2.415-11.567,6.165-16.919
		c3.75-5.354,9.08-10.144,15.986-14.372c6.555-4.01,13.122-6.586,19.699-7.726c6.582-1.137,12.821-0.623,18.719,1.541
		c5.899,2.166,10.753,5.479,14.56,9.943c3.81,4.465,9.719,12.74,17.724,24.825l7.739,11.682c3.063,4.621,8.021,12.221,11.017,16.884
		c0,0,7.614,11.847,10.285,17.107c2.67,5.26,3.828,10.856,3.468,16.783c-0.361,5.927-2.417,11.569-6.165,16.92
		c-3.754,5.355-9.083,10.144-15.99,14.372c-6.553,4.01-13.122,6.585-19.698,7.725c-6.581,1.14-12.82,0.625-18.717-1.541
		c-5.899-2.163-10.751-5.478-14.562-9.943c-3.808-4.465-9.717-12.738-17.723-24.825l-7.74-11.68
		c-3.064-4.625-8.02-12.223-11.018-16.886c0,0-7.611-11.846-10.282-17.108C247.948,196.502,246.79,190.907,247.153,184.977
		 M150.453,282.524c0.875-6.385,3.426-12.938,7.655-19.655c4.012-6.374,8.702-11.468,14.073-15.282
		c5.37-3.815,11.202-6.005,17.496-6.573c6.297-0.567,12.188,0.338,17.679,2.717c5.488,2.378,14.631,7.276,27.428,14.693l12.37,7.169
		c4.894,2.837,12.87,7.534,17.725,10.435c0,0,12.33,7.371,17.171,10.945c4.84,3.577,8.477,8.093,10.909,13.551
		c2.434,5.46,3.212,11.381,2.338,17.767c-0.875,6.386-3.428,12.936-7.655,19.655c-4.014,6.375-8.702,11.468-14.072,15.282
		c-5.37,3.815-11.201,6.005-17.497,6.572c-6.294,0.567-12.188-0.338-17.677-2.716c-5.489-2.378-14.633-7.277-27.43-14.694
		l-12.37-7.168c-4.894-2.837-12.871-7.534-17.727-10.435c0,0-12.328-7.369-17.169-10.947c-4.84-3.574-8.477-8.089-10.91-13.549
		C150.354,294.832,149.577,288.91,150.453,282.524 M112.001,405.356l6.168-40.875c0.815-5.417,6.121-9.199,11.784-8.406l8.188,1.146
		c5.665,0.793,9.629,5.874,8.812,11.291l-0.771,5.11c-0.815,5.415,3.15,10.495,8.814,11.289l6.677,0.935
		c5.666,0.794,10.966-2.988,11.785-8.405l0.359-2.391c0.82-5.416,6.123-9.201,11.787-8.407l6.766,0.948
		c5.667,0.792,9.632,5.874,8.814,11.291l-0.361,2.391c-0.816,5.417,3.147,10.497,8.814,11.291l39.816,5.575
		c5.665,0.794,9.632,5.874,8.814,11.289l-2.424,16.071c-0.817,5.415-6.121,9.198-11.786,8.405l-123.243-17.257
		C115.15,415.854,111.181,410.773,112.001,405.356 M200.738,451.959c0,7.326-5.938,13.266-13.267,13.266
		c-7.327,0-13.267-5.939-13.267-13.266c0-7.329,5.94-13.267,13.267-13.267C194.8,438.692,200.738,444.63,200.738,451.959
		 M124.026,535.715l-4.473-14.879c-1.61-5.357,1.383-11.086,6.65-12.723l114.612-35.645c5.269-1.639,10.896,1.406,12.506,6.766
		l11.634,38.717c1.612,5.359-1.382,11.086-6.648,12.723l-7.615,2.369c-5.267,1.637-10.895-1.408-12.506-6.768l-1.306-4.348
		c-1.61-5.359-7.239-8.404-12.506-6.766l-6.209,1.932c-5.269,1.639-8.262,7.361-6.652,12.721l0.522,1.738
		c1.61,5.361-1.383,11.084-6.65,12.723l-6.292,1.957c-5.269,1.639-10.898-1.406-12.508-6.766l-0.521-1.736
		c-1.612-5.358-7.241-8.404-12.507-6.764l-37.029,11.514C131.263,544.119,125.637,541.074,124.026,535.715 M243.625,653.783
		c0,0-11.288,8.412-16.343,11.465c-5.057,3.061-10.536,4.692-16.436,4.906c-5.901,0.207-11.621-1.234-17.158-4.326
		c-5.537-3.098-10.612-7.76-15.22-13.982c-4.378-5.912-7.328-11.969-8.858-18.17c-1.529-6.203-1.399-12.236,0.394-18.096
		c1.788-5.859,4.782-10.826,8.98-14.895c4.195-4.074,12.044-10.516,23.546-19.33l11.116-8.52
		c4.401-3.371,11.637-8.842,16.081-12.152c0,0,11.284-8.41,16.341-11.463c5.057-3.059,10.536-4.693,16.438-4.902
		c5.899-0.211,11.62,1.23,17.157,4.322c5.536,3.098,10.61,7.758,15.222,13.986c4.375,5.91,7.328,11.963,8.858,18.17
		c1.527,6.201,1.394,12.23-0.394,18.094c-1.793,5.859-4.784,10.824-8.98,14.896c-4.197,4.07-12.046,10.512-23.549,19.326
		l-11.117,8.518C255.306,645.004,248.068,650.473,243.625,653.783 M379.231,667.338c-2.237,5.439-6.883,14.549-13.934,27.32
		l-6.816,12.344c-2.696,4.887-7.162,12.852-9.925,17.701c0,0-7.015,12.313-10.438,17.176c-3.424,4.869-7.798,8.602-13.118,11.207
		c-5.32,2.604-11.126,3.621-17.417,3.051c-6.294-0.572-12.782-2.764-19.464-6.584c-6.341-3.623-11.434-7.963-15.285-13.019
		c-3.847-5.055-6.111-10.631-6.784-16.731c-0.677-6.098,0.104-11.867,2.339-17.313c2.234-5.441,6.88-14.549,13.932-27.32
		l6.815-12.348c2.698-4.885,7.164-12.85,9.927-17.699c0,0,7.013-12.313,10.436-17.178c3.424-4.863,7.796-8.6,13.118-11.205
		c5.32-2.605,11.127-3.621,17.42-3.051c6.292,0.57,12.78,2.766,19.465,6.586c6.338,3.623,11.434,7.961,15.282,13.016
		c3.849,5.057,6.111,10.633,6.786,16.732C382.246,656.121,381.464,661.894,379.231,667.338 M471.461,663.096l-0.935,8.043
		c-0.649,5.564-5.655,9.578-11.125,8.92l-0.941-0.113c-5.471-0.66-10.477,3.352-11.123,8.918l-10.811,92.795
		c-0.648,5.565-5.655,9.578-11.126,8.92l-15.188-1.832c-5.471-0.66-9.416-5.752-8.768-11.316l10.812-92.795
		c0.646-5.566-3.297-10.656-8.768-11.318l-0.856-0.102c-5.471-0.662-9.417-5.756-8.768-11.32l0.937-8.043
		c0.648-5.566,5.655-9.578,11.125-8.918l56.77,6.846C468.164,652.44,472.11,657.531,471.461,663.096 M587.91,755.156
		c-0.721,5.049-3.043,9.043-6.968,12c-3.925,2.955-12.698,6.482-26.324,10.582l-29.581,8.9c-5.284,1.59-10.884-1.506-12.447-6.881
		l-33.995-116.91c-1.563-5.375,1.48-11.07,6.764-12.66l14.585-4.393c5.283-1.588,13.981-3.988,19.327-5.332
		c0,0,9.293-2.332,15.299-2.244c6.004,0.086,11.468,2.271,16.39,6.56c4.921,4.289,9.098,12.33,12.526,24.119
		c2.319,7.977,2.74,13.895,1.27,17.76c-1.475,3.861-5.48,7.691-12.018,11.488c8.371-0.498,14.578,0.981,18.618,4.441
		c4.038,3.465,7.351,9.635,9.935,18.52l0.839,2.881c1.56,5.373,3.84,14.24,5.063,19.705
		C587.193,743.693,588.631,750.109,587.91,755.156 M705.973,685.088l-12.169,10.682c-4.172,3.658-10.776,3.418-14.678-0.537
		l-3.67-3.723c-3.903-3.957-9.247-5.303-11.877-2.994c-2.633,2.307-2.14,7.908,1.094,12.445l3.055,4.281
		c3.235,4.537,2.468,11.242-1.704,14.904l-12.484,10.959c-4.172,3.66-10.068,2.828-13.104-1.848l-66.689-102.715
		c-3.034-4.676-2.107-11.496,2.064-15.156l23.494-20.619c4.171-3.662,10.985-3.648,15.143,0.027l91.55,80.953
		C710.154,675.426,710.144,681.428,705.973,685.088 M765.396,595.44l-18.016,32.615c-2.701,4.887-8.837,6.635-13.64,3.891
		l-104.48-59.729c-4.805-2.744-6.525-8.988-3.826-13.873l7.492-13.567c2.7-4.885,8.836-6.635,13.639-3.889l80.077,45.775
		c4.805,2.744,10.941,0.994,13.639-3.893l0.71-1.283c2.699-4.885,8.835-6.635,13.636-3.891l6.944,3.967
		C766.374,584.313,768.096,590.555,765.396,595.44 M795.981,497.16l-8.129,36.486c-1.218,5.467-6.607,8.924-11.981,7.685
		l-116.884-26.945c-5.374-1.24-8.773-6.723-7.556-12.191l3.381-15.174c1.218-5.465,6.606-8.924,11.981-7.686l89.584,20.652
		c5.374,1.24,10.766-2.219,11.983-7.686l0.319-1.438c1.215-5.463,6.608-8.924,11.98-7.684l7.767,1.789
		C793.8,486.209,797.199,491.693,795.981,497.16"/>
	<path style="fill:#96C160;" d="M534.204,690.986c0.413-1.988-0.556-7.027-2.906-15.117c-1.242-4.273-2.488-7.152-3.736-8.639
		c-1.252-1.488-2.545-2.275-3.882-2.361c-1.338-0.086-3.759,0.367-7.261,1.359l5.982,20.572c1.563,5.373,3.988,9.383,5.393,8.91
		l0.803-0.24C531.921,694.467,533.792,692.975,534.204,690.986"/>
	<path style="fill:#96C160;" d="M523.823,228.61l1.834-0.969c1.828-0.968,3.579-4.142,5.25-9.519l0.898-2.885
		c1.629-5.247,3.958-13.744,5.176-18.879l-0.886-1.569c-0.889-1.567-3.997-3.206-9.337-4.912l-8.619,27.735
		C516.51,222.857,519.067,227.807,523.823,228.61"/>
	<path style="fill:#96C160;" d="M535.976,169.846l0.858,0.245c3.558,1.019,6.078,0.831,7.579-0.564
		c1.494-1.393,3.466-6.04,5.923-13.941c1.293-4.167,1.799-7.202,1.517-9.105c-0.283-1.904-1.001-3.259-2.157-4.068
		c-1.152-0.808-3.588-1.771-7.296-2.895l-6.237,20.084C534.531,164.847,534.445,169.458,535.976,169.846"/>
	<path style="fill:#96C160;" d="M636.256,252.833c0,0,15.744-20.523,30.606-38.934c-21.536,17.228-36.994,30.082-46.362,38.558
		l1.92,1.682C626.644,257.834,632.868,257.247,636.256,252.833"/>
	<path style="fill:#96C160;" d="M189.605,287.75l49.149,28.484c4.893,2.838,12.967,7.383,17.935,10.104c0,0,2.813,1.538,4.855,1.953
		c2.046,0.416,3.717-0.406,5.012-2.466c1.328-2.108,1.205-4.02-0.373-5.736c-1.572-1.717-6.02-4.695-13.34-8.938L204.615,283.2
		c-4.893-2.837-12.985-7.349-17.979-10.028c0,0-0.595-0.32-2.596-0.642c-1.998-0.322-3.599,0.473-4.801,2.385
		c-1.02,1.619-1.147,3.235-0.382,4.851C179.625,281.379,183.207,284.041,189.605,287.75"/>
	<path style="fill:#96C160;" d="M316.689,235.787c3.063,4.624,8.174,12.126,11.36,16.676c0,0,1.803,2.575,3.439,3.815
		c1.636,1.24,3.515,1.212,5.63-0.082c2.168-1.327,2.949-3.093,2.335-5.301c-0.612-2.208-3.209-6.768-7.789-13.682l-30.176-45.544
		c-3.063-4.624-8.208-12.104-11.435-16.626c0,0-0.385-0.543-2.023-1.679c-1.642-1.138-3.443-1.104-5.408,0.098
		c-1.665,1.019-2.529,2.416-2.595,4.187c-0.065,1.773,1.905,5.682,5.909,11.724L316.689,235.787z"/>
	<path style="fill:#96C160;" d="M609.012,624.152c14.772,23.023,25.851,39.611,33.244,49.76l1.624-1.426
		c4.169-3.66,4.312-9.807,0.312-13.66C644.191,658.826,625.612,640.924,609.012,624.152"/>
	<path style="fill:#96C160;" d="M549.061,736.967c-1.562-5.373-4.333-13.916-6.16-18.977l-1.538-0.883
		c-1.541-0.881-4.857-0.647-9.948,0.705l8.262,28.406c1.565,5.373,6.235,8.281,10.381,6.463l0.909-1.801
		c0.903-1.797,0.557-5.451-1.045-10.959L549.061,736.967z"/>
	<path style="fill:#FFFFFF;" d="M470.73,514.852c-0.1,0.773-0.202,1.564-0.311,2.389c-1.132,8.557-2.814,19.918-4.688,31.252
		c-1.87,11.328-3.971,22.621-5.781,31.037c-0.436,2.109-0.898,4.027-1.274,5.734c-0.134,0.617-0.267,1.193-0.396,1.748
		c17.528,12.689,44.302,24.576,52.73,25.98c0.572-0.285,1.157-0.582,1.755-0.883c2.397-1.184,4.959-2.533,7.673-3.949
		c2.717-1.41,5.533-2.986,8.468-4.572c2.89-1.67,5.916-3.318,8.91-5.133c2.998-1.805,6.06-3.605,9.03-5.549
		c1.493-0.957,2.986-1.914,4.475-2.865c1.457-0.998,2.906-1.99,4.346-2.975c2.91-1.922,5.621-4.018,8.287-5.981
		c1.346-0.965,2.618-1.971,3.838-2.99c1.23-1.004,2.434-1.984,3.605-2.939c2.351-1.898,4.358-3.914,6.322-5.652
		c0.993-0.859,1.854-1.766,2.665-2.633c0.586-0.615,1.123-1.18,1.664-1.748c6.563-16.078,11.903-54.391,12.559-59.213
		l-56.972-29.701C526.275,483.027,486.227,506.955,470.73,514.852"/>
	<path style="fill:#FFFFFF;" d="M632.197,451.135c-0.159-2.471-0.218-5.151-0.603-7.966c-0.354-2.813-0.569-5.791-1.078-8.838
		c-0.54-3.042-0.96-6.202-1.638-9.369c-0.346-1.578-0.694-3.172-1.046-4.771c-0.335-1.6-0.696-3.2-1.151-4.779
		c-0.862-3.168-1.654-6.351-2.692-9.407c-0.493-1.536-0.98-3.059-1.464-4.561c-0.54-1.484-1.075-2.95-1.6-4.39
		c-0.994-2.899-2.233-5.598-3.262-8.205c-1.165-2.551-2.195-4.991-3.306-7.165c-0.541-1.095-1.059-2.14-1.552-3.137
		c-0.526-0.976-1.022-1.903-1.489-2.773c-0.921-1.749-1.815-3.21-2.518-4.432c-0.192-0.315-0.374-0.61-0.544-0.889
		c-9.949-7.37-29.634-19.701-41.823-24.232c-5.121,6.158-13.749,16.536-22.385,26.923c-6.736,8.159-13.448,16.341-18.404,22.512
		c-0.396,0.495-0.76,0.952-1.133,1.418l15.482,73.867L595,505.037c3.289-3.713,31.567-35.734,37.492-45.486
		c0.001-0.533,0.003-1.082,0.004-1.66C632.544,455.877,632.301,453.605,632.197,451.135"/>
	<path style="fill:#FFFFFF;" d="M388.21,599.402c-2.154-1.295-4.491-2.697-6.959-4.18c-2.448-1.522-4.964-3.219-7.607-4.926
		c-2.665-1.68-5.28-3.609-7.986-5.512c-2.73-1.871-5.385-3.934-8.049-5.992c-2.705-2.006-5.26-4.205-7.815-6.322
		c-2.584-2.092-4.929-4.379-7.311-6.475c-2.271-2.211-4.518-4.307-6.519-6.434c-1.003-1.063-1.98-2.094-2.925-3.094
		c-0.908-1.037-1.788-2.035-2.632-2.996c-1.705-1.908-3.135-3.789-4.437-5.43c-0.591-0.785-1.134-1.522-1.641-2.221
		c-8.647-3.682-23.106-8.486-34.955-21.469c21.223,45.065,59.887,80.242,107.164,96.644c-2.357-5.109-5.135-12.301-6.896-20.736
		C389.164,599.975,388.708,599.701,388.21,599.402"/>
	<path style="fill:#FFFFFF;" d="M458.931,579.35c1.195-8.506,2.47-19.885,3.513-31.281c1.047-11.397,1.898-22.811,2.403-31.363
		c0.041-0.699,0.081-1.369,0.117-2.025c-10.351-7.939-45.157-42.416-54.565-51.779l-72.415,14.242
		c-4.126,21.359-7.503,50.57-8.628,65.062c0.456,0.721,0.962,1.5,1.508,2.33c1.134,1.621,2.372,3.49,3.894,5.418
		c0.751,0.971,1.534,1.982,2.345,3.031c0.853,1.02,1.731,2.074,2.637,3.158c1.802,2.174,3.863,4.346,5.939,6.639
		c2.196,2.183,4.349,4.566,6.753,6.769c2.375,2.231,4.751,4.547,7.29,6.688c2.497,2.189,4.991,4.389,7.573,6.402
		c2.556,2.045,5.028,4.121,7.564,5.943c2.51,1.854,4.909,3.697,7.241,5.357c2.361,1.625,4.591,3.16,6.651,4.58
		c0.725,0.496,1.399,0.959,2.079,1.428c16.423-0.951,56.317-6.793,66.96-12.936c0.095-0.59,0.189-1.205,0.285-1.867
		C458.328,583.42,458.648,581.479,458.931,579.35"/>
	<path style="fill:#FFFFFF;" d="M437.097,276.852c0.215-0.008,0.417-0.017,0.639-0.026c2.454-0.015,5.222-0.13,8.237-0.065
		c1.506,0.019,3.075,0.036,4.699,0.055c1.622,0.062,3.299,0.124,5.022,0.189c3.448,0.085,7.074,0.433,10.821,0.65
		c3.74,0.39,7.61,0.677,11.521,1.207c3.906,0.532,7.88,1.001,11.816,1.744c1.969,0.339,3.941,0.679,5.902,1.017
		c1.948,0.416,3.889,0.832,5.813,1.243c1.92,0.428,3.839,0.788,5.707,1.262c1.864,0.49,3.706,0.972,5.52,1.446
		c1.806,0.491,3.599,0.904,5.322,1.435c1.717,0.54,3.396,1.069,5.033,1.584c1.634,0.514,3.223,1.014,4.76,1.499
		c1.179,0.396,2.3,0.826,3.396,1.241c5.473-1.356,17.456-4.033,24.896-3.515c-28.754-18.537-62.911-29.295-99.517-29.295
		c-23.113,0-45.242,4.3-65.659,12.128c4.078-1.111,8.038-1.88,11.761-2.2C419.118,269.599,430.336,273.555,437.097,276.852"/>
	<path style="fill:#FFFFFF;" d="M614.791,369.144c0.574,1.139,1.233,2.439,1.9,3.916c0.43,0.938,0.885,1.933,1.365,2.983
		c0.447,1.062,0.917,2.18,1.406,3.345c1.004,2.319,1.909,4.901,2.94,7.596c0.893,2.747,1.982,5.587,2.818,8.622
		c0.443,1.505,0.897,3.039,1.354,4.588c0.396,1.565,0.798,3.152,1.202,4.749c0.86,3.179,1.466,6.472,2.14,9.743
		c0.36,1.629,0.626,3.28,0.866,4.927c0.252,1.642,0.506,3.277,0.756,4.901c0.482,3.245,0.71,6.474,1.061,9.571
		c0.32,3.105,0.352,6.129,0.53,8.98c0.208,2.848,0.101,5.556,0.104,8.044c-0.052,2.49,0.049,4.77-0.124,6.789
		c-0.03,0.436-0.056,0.855-0.083,1.268c2.062,2.348,4.785,6.822,7.017,10.766c1.105-8.217,1.688-16.598,1.688-25.118
		c0-34.468-9.358-66.774-25.634-94.496C616.133,354.738,615.923,361.428,614.791,369.144"/>
	<path style="fill:#FFFFFF;" d="M587.008,568.648c-0.816,0.762-1.686,1.574-2.6,2.43c-0.909,0.863-1.871,1.762-2.951,2.596
		c-2.143,1.688-4.36,3.66-6.89,5.471c-1.26,0.91-2.554,1.848-3.876,2.805c-1.313,0.971-2.676,1.926-4.103,2.828
		c-2.833,1.846-5.719,3.815-8.779,5.59c-1.517,0.914-3.044,1.834-4.575,2.756c-1.561,0.875-3.125,1.754-4.69,2.633
		c-3.11,1.787-6.302,3.422-9.42,5.063c-3.118,1.646-6.255,3.127-9.251,4.633c-3.038,1.42-5.953,2.836-8.757,4.092
		c-2.802,1.26-5.445,2.459-7.911,3.506c-0.616,0.268-1.219,0.527-1.81,0.781c-3.926,4.926-6.531,8.645-8.233,11.324
		c37.719-9.861,70.79-31.432,95.161-60.602c-2.546,0.779-5.645,1.553-9.224,2.096C588.473,567.303,587.751,567.935,587.008,568.648"
		/>
	<path style="fill:#FFFFFF;" d="M517.833,395.825c1.071-1.159,2.271-2.443,3.585-3.84c5.458-5.8,12.793-13.438,20.153-21.052
		c9.42-9.674,18.821-19.332,24.409-25.073c-14.724-25.435-37.572-53.781-37.572-53.781s0.315-0.086,0.881-0.236
		c-0.58-0.182-1.159-0.364-1.762-0.532c-1.552-0.401-3.156-0.816-4.806-1.242c-1.648-0.424-3.341-0.862-5.07-1.31
		c-1.732-0.436-3.534-0.753-5.348-1.145c-1.815-0.376-3.661-0.759-5.53-1.146c-1.871-0.373-3.79-0.628-5.709-0.954
		c-1.923-0.307-3.859-0.617-5.801-0.927c-1.955-0.232-3.918-0.466-5.881-0.7c-3.914-0.531-7.863-0.788-11.732-1.11
		c-3.87-0.323-7.699-0.404-11.386-0.597c-3.7-0.022-7.271-0.179-10.655-0.084c-1.69,0.024-3.337,0.05-4.928,0.072
		c-1.591,0.063-3.125,0.126-4.6,0.188c-0.572,0.017-1.124,0.043-1.677,0.071c-4.679,4.99-33.126,35.557-38.362,46.218l41.629,59.342
		L517.833,395.825z"/>
	<path style="fill:#FFFFFF;" d="M299.004,415.665c0.522-2.101,1.074-4.479,1.834-7.022c0.686-2.568,1.6-5.294,2.536-8.18
		c0.992-2.867,2.085-5.875,3.304-8.945c1.287-3.044,2.524-6.225,4.063-9.334c0.741-1.564,1.489-3.14,2.239-4.723
		c0.821-1.546,1.646-3.099,2.473-4.649c1.579-3.138,3.471-6.104,5.233-9.073c0.442-0.737,0.886-1.474,1.327-2.208
		c0.479-0.707,0.957-1.413,1.429-2.114c0.951-1.399,1.889-2.778,2.811-4.138c0.46-0.677,0.917-1.35,1.37-2.016
		c0.489-0.64,0.975-1.274,1.454-1.902c0.962-1.25,1.903-2.475,2.819-3.667c0.934-1.176,1.766-2.378,2.706-3.435
		c0.733-0.838,1.43-1.636,2.121-2.429c-0.757,0.247-1.411,0.457-1.931,0.624l-1.141-36.664
		c-37.844,33.977-61.775,83.334-62.008,138.223l26.256-23.128C298.171,419.395,298.561,417.657,299.004,415.665"/>
	<path style="fill:#FFFFFF;" d="M442.376,390.811l-36.559-61.691c-0.04,0.088-0.095,0.189-0.129,0.274
		c-23.866-1.836-54.868,7.866-67.125,11.839c-0.156,0.202-0.307,0.4-0.467,0.602c-0.796,1.028-1.625,2.1-2.483,3.21
		c-0.867,1.1-1.623,2.345-2.478,3.564c-0.835,1.23-1.694,2.497-2.57,3.789c-0.437,0.647-0.878,1.302-1.324,1.962
		c-0.406,0.686-0.818,1.377-1.233,2.073c-0.829,1.393-1.672,2.809-2.526,4.242c-0.424,0.716-0.852,1.438-1.283,2.162
		c-0.389,0.747-0.781,1.498-1.176,2.252c-1.559,3.022-3.239,6.035-4.604,9.21c-0.718,1.565-1.435,3.132-2.149,4.692
		c-0.641,1.592-1.278,3.177-1.913,4.749c-1.322,3.121-2.341,6.3-3.417,9.332c-1.01,3.058-1.894,6.046-2.691,8.88
		c-0.74,2.854-1.468,5.541-1.98,8.056c-0.588,2.499-0.979,4.811-1.361,6.853c-0.229,1.422-0.438,2.714-0.602,3.867
		c4.867,9.93,18.55,36.583,31.486,50.083l74.395-14.631L442.376,390.811z"/>
	<path style="fill:#FFFFFF;" d="M308.76,527.33c1.647,0.689,3.353,1.305,5.183,1.709c1.814,0.402,3.791,0.633,5.895,0.182
		l1.164-0.248l0.228-1.104l0.703-3.424l0.592-3.42c0.357-2.279,0.705-4.557,0.991-6.836c0.6-4.559,1.093-9.119,1.527-13.682
		c0.878-9.125,1.55-18.25,2.079-27.395l0.02-0.332l-0.192-0.24c-4.753-5.926-9.421-11.938-13.975-18.025
		c-2.265-3.055-4.513-6.122-6.673-9.25c-1.068-1.572-2.143-3.142-3.144-4.757c-0.524-0.794-0.992-1.621-1.468-2.443
		c-0.503-0.808-0.872-1.685-1.307-2.534c0.401,0.86,0.741,1.758,1.216,2.584c0.447,0.84,0.885,1.688,1.381,2.501
		c0.945,1.654,1.961,3.265,2.975,4.879c2.05,3.212,4.19,6.365,6.345,9.505c4.274,6.17,8.657,12.256,13.139,18.285
		c-0.851,8.99-1.846,17.975-3.035,26.922c-0.6,4.52-1.254,9.029-2.012,13.514c-0.363,2.246-0.788,4.475-1.22,6.695l-0.697,3.315
		l-0.489,2.008c-0.992,0.016-2.068-0.148-3.145-0.436c-1.488-0.387-2.983-0.977-4.453-1.66c-2.942-1.369-5.79-3.1-8.564-4.945
		c-5.545-3.715-10.819-7.934-15.958-12.305c-1.833-1.565-3.628-3.178-5.426-4.789c1.046,3.283,2.182,6.525,3.402,9.729
		c5.008,3.916,10.143,7.691,15.609,11.072C302.415,524.221,305.47,525.94,308.76,527.33"/>
	<path style="fill:#FFFFFF;" d="M404.845,614.244c-0.388-0.869-0.772-1.744-1.118-2.603c-0.047-0.111-0.091-0.23-0.137-0.346
		c3.253-0.723,6.456-1.498,9.661-2.279l12.023-2.955c8.012-1.928,16.035-3.881,24.103-5.262c2.012-0.326,4.044-0.625,6.018-0.713
		c0.94-0.033,2.064-0.017,2.514,0.272c0.859,0.543,1.816,1.051,2.753,1.551c3.691,1.904,7.414,3.686,11.144,5.465
		c7.463,3.545,14.958,7.01,22.469,10.443c-7.35-3.764-14.684-7.557-21.975-11.424c-3.639-1.941-7.283-3.887-10.843-5.928
		c-0.861-0.516-1.71-1.006-2.573-1.603c-0.63-0.434-1.314-0.529-1.858-0.605c-0.57-0.068-1.117-0.094-1.657-0.098
		c-2.151,0-4.227,0.219-6.301,0.457c-8.267,1.033-16.385,2.629-24.506,4.193l-12.153,2.412c-4.038,0.793-8.103,1.617-12.085,2.252
		l-2.203,0.352l0.395,2.186c0.25,1.389,0.584,2.246,0.919,3.242c0.336,0.965,0.693,1.892,1.055,2.816
		c0.727,1.848,1.483,3.66,2.249,5.467c0.245,0.578,0.506,1.141,0.755,1.715c2.184,0.662,4.383,1.291,6.602,1.873
		c-0.938-1.883-1.897-3.76-2.806-5.646C406.452,617.734,405.626,615.99,404.845,614.244"/>
	<path style="fill:#FFFFFF;" d="M340.017,314.526c0.226,2.575,0.529,5.155,1.097,7.773c0.288,1.308,0.643,2.627,1.186,3.973
		c0.586,1.313,1.21,2.808,2.977,4.022l0.62,0.426l0.713-0.103l0.76-0.111l0.249-0.038l6.163-0.898
		c2.398-0.311,4.756-0.792,7.126-1.214c2.365-0.44,4.743-0.831,7.09-1.35l7.055-1.473c4.684-1.066,9.365-2.118,14.02-3.289
		c4.662-1.141,9.297-2.358,13.93-3.632l0.275-0.074l0.159-0.195c4.313-5.293,8.504-10.661,12.527-16.165
		c2.007-2.754,3.969-5.546,5.81-8.415c0.922-1.434,1.805-2.896,2.612-4.398c0.405-0.751,0.777-1.517,1.116-2.3
		c0.31-0.793,0.631-1.597,0.71-2.45c-0.115,0.85-0.468,1.633-0.807,2.407c-0.369,0.762-0.774,1.509-1.207,2.239
		c-0.866,1.459-1.805,2.876-2.781,4.263c-1.95,2.78-4.02,5.475-6.135,8.135c-4.175,5.235-8.521,10.347-12.959,15.352
		c-4.568,1.048-9.161,2.051-13.762,2.974c-4.678,0.972-9.379,1.821-14.075,2.685l-7.064,1.169c-2.348,0.417-4.713,0.701-7.071,1.041
		c-2.36,0.317-4.714,0.696-7.078,0.901l-6.133,0.633c-0.295-0.405-0.621-1.015-0.849-1.688c-0.357-1.008-0.622-2.138-0.824-3.295
		c-0.405-2.325-0.598-4.766-0.709-7.216c-0.207-4.907-0.076-9.887,0.174-14.861c0.055-1.024,0.133-2.049,0.198-3.076
		c-1.886,1.439-3.746,2.912-5.575,4.423C339.538,305.291,339.629,309.891,340.017,314.526"/>
	<path style="fill:#FFFFFF;" d="M547.965,292.948c-1.161,0.277-2.319,0.569-3.565,1.091c-0.62,0.264-1.271,0.567-2.002,1.161
		c-0.107,0.093-0.224,0.219-0.337,0.332c-0.114,0.117-0.223,0.249-0.336,0.396c-0.145,0.189-0.289,0.383-0.416,0.639
		c-0.339,0.654-0.395,1.561-0.208,2.26l0.099,0.37l0.209,0.298l13.554,19.333c2.248,3.233,4.559,6.425,6.722,9.717l6.579,9.816
		l0.182,0.272l0.248,0.109l40.563,17.878l-39.418-19.571l-5.995-9.889c-2.015-3.396-4.182-6.698-6.285-10.039l-11.983-18.872
		c0.137-0.061,0.278-0.126,0.443-0.183c0.225-0.082,0.49-0.147,0.741-0.22c0.106-0.031,0.208-0.065,0.32-0.096
		c0.579-0.15,1.183-0.288,1.801-0.403c2.061-0.368,4.226-0.588,6.399-0.749c4.233-0.307,8.526-0.4,12.822-0.423
		c-2.242-1.707-4.526-3.363-6.847-4.968c-2.143,0.164-4.29,0.359-6.442,0.614C552.547,292.095,550.278,292.426,547.965,292.948"/>
	<path style="fill:#FFFFFF;" d="M609.448,551.801c-0.479,0.043-0.953,0.066-1.427,0.094c-1.015,0.061-2.017,0.098-2.969,0.065
		c-0.692-0.025-1.379-0.086-1.899-0.205c-0.083-0.016-0.15-0.035-0.221-0.055c0.003-0.572,0.008-1.148,0.05-1.756
		c0.044-0.951,0.09-1.904,0.171-2.871c0.131-1.924,0.315-3.861,0.497-5.797c0.373-3.879,0.817-7.76,1.271-11.641
		c0.914-7.672,1.911-15.348,2.973-23.008l12.762-14.596l6.534-7.375l3.296-3.656c1.093-1.23,2.234-2.404,3.369-3.594
		c-1.189,1.129-2.395,2.252-3.544,3.426l-3.476,3.49l-6.895,7.047l-13.694,14.182l-0.182,0.188l-0.06,0.309
		c-1.493,7.695-2.919,15.397-4.265,23.125c-0.665,3.867-1.32,7.734-1.909,11.627c-0.289,1.949-0.582,3.895-0.823,5.867
		c-0.135,0.977-0.238,1.975-0.338,2.975c-0.12,0.982-0.157,2.047-0.224,3.082l-0.02,0.31l0.135,0.398
		c0.385,1.141,1.203,1.766,1.778,2.108c0.61,0.357,1.14,0.537,1.633,0.68c0.937,0.266,1.768,0.373,2.588,0.459
		c0.053,0.006,0.108,0.016,0.159,0.022c1.732,0.158,3.375,0.156,5.006,0.115c2.081-0.063,4.128-0.223,6.163-0.408v-5.426
		C613.73,551.316,611.576,551.615,609.448,551.801"/>
	<path style="fill:#FFFFFF;" d="M524.379,455.232c-1.251-4.287-2.462-8.583-3.768-12.857c-1.292-4.275-2.547-8.563-3.892-12.823
		c-1.318-4.27-2.663-8.533-4.065-12.781c0.773,4.406,1.606,8.798,2.465,13.182c0.831,4.393,1.752,8.761,2.636,13.143
		c0.871,4.381,1.837,8.738,2.763,13.105c0.796,3.742,1.61,7.48,2.449,11.211l-12.245,6.4l-13.748,7.353
		c-8.494,4.488-16.877,9.176-25.306,13.781c-3.272-2.982-6.582-5.922-9.872-8.883l-11.64-10.422
		c-7.406-6.445-14.73-12.98-22.198-19.359c1.703-4.15,3.423-8.294,5.085-12.463l5.694-14.299l5.547-14.366
		c1.829-4.796,3.606-9.616,5.352-14.45c-2.387,4.553-4.736,9.12-7.037,13.71l-6.843,13.792l-6.695,13.861
		c-2.23,4.619-4.378,9.275-6.572,13.912l-0.764,1.615l1.395,1.348c7.501,7.234,15.19,14.262,22.776,21.402l11.528,10.547
		c3.853,3.506,7.66,7.059,11.559,10.512l1.271,1.131l0.515,0.455l1.108-0.627l0.915-0.52c9.045-5.119,18.16-10.113,27.143-15.344
		l13.511-7.779l13.439-7.914l0.181-0.105l1.463-0.861l-0.443-1.611l-0.033-0.119C526.87,463.807,525.627,459.518,524.379,455.232"/>
	<path d="M738.595,161.281C663.301,85.497,563.185,43.76,456.683,43.76c-106.5,0-206.618,41.736-281.912,117.521
		C99.518,237.023,58.076,337.716,58.076,444.814c0,107.096,41.442,207.792,116.695,283.536
		c75.294,75.783,175.412,117.518,281.912,117.518c106.502,0,206.618-41.734,281.912-117.518
		c75.252-75.744,116.696-176.439,116.696-283.536C855.291,337.716,813.847,237.023,738.595,161.281 M456.683,799.434
		c-194.189,0-352.172-159.082-352.172-354.62c0-195.536,157.982-354.619,352.172-354.619c194.189,0,352.174,159.083,352.174,354.619
		C808.856,640.352,650.871,799.434,456.683,799.434 M260.026,444.814c0,109.124,88.22,197.901,196.657,197.901
		c108.437,0,196.656-88.777,196.656-197.901c0-109.122-88.219-197.901-196.656-197.901
		C348.246,246.913,260.026,335.692,260.026,444.814 M280.438,501.603c1.798,1.611,3.594,3.225,5.426,4.789
		c5.138,4.371,10.411,8.59,15.958,12.307c2.773,1.84,5.62,3.574,8.564,4.943c1.467,0.682,2.963,1.275,4.45,1.658
		c1.077,0.289,2.155,0.455,3.145,0.438l0.491-2.008l0.698-3.315c0.429-2.221,0.854-4.451,1.217-6.695
		c0.758-4.482,1.413-8.994,2.012-13.516c1.189-8.945,2.184-17.93,3.034-26.92c-4.481-6.031-8.861-12.117-13.136-18.285
		c-2.158-3.141-4.295-6.293-6.347-9.504c-1.011-1.615-2.03-3.224-2.975-4.879c-0.494-0.815-0.934-1.662-1.382-2.504
		c-0.474-0.825-0.812-1.722-1.215-2.581c0.435,0.847,0.802,1.725,1.308,2.534c0.476,0.823,0.942,1.648,1.466,2.442
		c1.001,1.615,2.076,3.185,3.144,4.756c2.161,3.129,4.409,6.199,6.673,9.251c4.554,6.088,9.222,12.1,13.976,18.029l0.191,0.236
		l-0.019,0.332c-0.527,9.145-1.203,18.27-2.078,27.395c-0.437,4.563-0.929,9.123-1.529,13.682c-0.286,2.279-0.634,4.557-0.991,6.836
		l-0.592,3.42l-0.704,3.424L321,528.971l-1.165,0.25c-2.103,0.451-4.08,0.221-5.894-0.184c-1.829-0.402-3.537-1.018-5.183-1.707
		c-3.291-1.391-6.343-3.109-9.313-4.926c-5.464-3.381-10.602-7.156-15.61-11.072C282.618,508.131,281.482,504.887,280.438,501.603
		 M338.095,341.836c0.16-0.202,0.311-0.402,0.467-0.603c12.257-3.974,43.259-13.676,67.125-11.839
		c0.035-0.086,0.09-0.185,0.129-0.273l36.559,61.69l-32.191,65.37l-74.395,14.631c-12.936-13.5-26.619-40.152-31.486-50.085
		c0.164-1.15,0.373-2.443,0.602-3.868c0.381-2.041,0.772-4.354,1.361-6.851c0.511-2.515,1.239-5.202,1.98-8.056
		c0.797-2.834,1.681-5.821,2.691-8.879c1.077-3.033,2.096-6.212,3.417-9.332c0.634-1.574,1.272-3.159,1.913-4.751
		c0.714-1.559,1.431-3.126,2.149-4.691c1.365-3.175,3.046-6.188,4.604-9.209c0.396-0.755,0.787-1.506,1.176-2.253
		c0.432-0.724,0.859-1.445,1.283-2.162c0.854-1.433,1.697-2.85,2.526-4.242c0.415-0.696,0.828-1.388,1.233-2.075
		c0.446-0.66,0.887-1.314,1.324-1.961c0.876-1.293,1.736-2.559,2.57-3.788c0.854-1.22,1.61-2.465,2.478-3.564
		C336.47,343.935,337.299,342.864,338.095,341.836 M444.404,282.429c0.553-0.027,1.104-0.054,1.677-0.071
		c1.475-0.06,3.01-0.122,4.6-0.188c1.591-0.023,3.237-0.048,4.928-0.071c3.387-0.097,6.955,0.062,10.655,0.082
		c3.687,0.194,7.516,0.274,11.386,0.597c3.871,0.324,7.818,0.579,11.732,1.109c1.963,0.234,3.926,0.468,5.881,0.701
		c1.942,0.311,3.88,0.62,5.801,0.926c1.919,0.326,3.838,0.581,5.709,0.955c1.869,0.388,3.715,0.769,5.53,1.145
		c1.813,0.394,3.616,0.711,5.348,1.144c1.729,0.448,3.422,0.886,5.07,1.312c1.649,0.427,3.254,0.841,4.806,1.24
		c0.603,0.168,1.182,0.352,1.762,0.535c-0.565,0.147-0.881,0.235-0.881,0.235s22.849,28.346,37.572,53.778
		c-5.588,5.741-14.989,15.398-24.409,25.075c-7.36,7.612-14.695,15.251-20.153,21.05c-1.315,1.397-2.513,2.682-3.585,3.841
		l-70.162-7.836l-41.629-59.342C411.278,317.988,439.726,287.419,444.404,282.429 M608.254,370.455
		c0.17,0.277,0.352,0.573,0.544,0.888c0.703,1.22,1.596,2.682,2.518,4.431c0.467,0.871,0.963,1.797,1.489,2.775
		c0.491,0.996,1.011,2.043,1.552,3.136c1.11,2.174,2.141,4.617,3.306,7.165c1.028,2.608,2.266,5.306,3.262,8.207
		c0.524,1.439,1.06,2.906,1.6,4.388c0.483,1.504,0.971,3.027,1.464,4.561c1.038,3.058,1.83,6.239,2.692,9.407
		c0.455,1.58,0.816,3.179,1.151,4.781c0.352,1.599,0.7,3.191,1.046,4.772c0.678,3.165,1.098,6.325,1.638,9.366
		c0.509,3.047,0.725,6.026,1.078,8.839c0.386,2.815,0.444,5.494,0.603,7.966c0.104,2.475,0.347,4.742,0.299,6.756
		c-0.001,0.576-0.003,1.127-0.004,1.662c-5.925,9.75-34.203,41.77-37.492,45.484l-55.009-34.096l-15.482-73.867
		c0.373-0.467,0.736-0.922,1.133-1.417c4.956-6.17,11.668-14.354,18.404-22.513c8.636-10.386,17.264-20.766,22.385-26.923
		C578.62,350.753,598.304,363.085,608.254,370.455 M582.05,565.125c-0.541,0.566-1.078,1.131-1.664,1.746
		c-0.81,0.867-1.672,1.773-2.665,2.633c-1.964,1.736-3.972,3.754-6.322,5.652c-1.172,0.955-2.375,1.938-3.605,2.938
		c-1.22,1.021-2.492,2.027-3.838,2.992c-2.666,1.963-5.377,4.057-8.287,5.981c-1.44,0.982-2.889,1.979-4.346,2.975
		c-1.488,0.951-2.982,1.908-4.475,2.865c-2.971,1.945-6.032,3.744-9.03,5.549c-2.994,1.814-6.021,3.463-8.91,5.133
		c-2.935,1.586-5.751,3.162-8.468,4.572c-2.714,1.416-5.275,2.766-7.673,3.949c-0.598,0.301-1.183,0.596-1.755,0.883
		c-8.429-1.404-35.204-13.291-52.732-25.982c0.132-0.557,0.265-1.129,0.398-1.746c0.376-1.707,0.838-3.625,1.274-5.734
		c1.81-8.416,3.911-19.707,5.781-31.037c1.874-11.334,3.556-22.695,4.686-31.252c0.11-0.824,0.213-1.617,0.313-2.389
		c15.496-7.897,55.545-31.824,66.906-38.639l56.972,29.697C593.953,510.732,588.613,549.045,582.05,565.125 M388.752,598.519
		c-2.06-1.418-4.29-2.953-6.65-4.578c-2.332-1.66-4.729-3.504-7.242-5.357c-2.536-1.822-5.009-3.898-7.564-5.943
		c-2.583-2.014-5.076-4.213-7.572-6.4c-2.542-2.141-4.917-4.459-7.292-6.689c-2.405-2.203-4.558-4.586-6.752-6.769
		c-2.078-2.293-4.136-4.465-5.941-6.639c-0.905-1.086-1.784-2.139-2.635-3.158c-0.811-1.049-1.595-2.061-2.346-3.031
		c-1.521-1.928-2.76-3.797-3.893-5.418c-0.549-0.83-1.052-1.609-1.508-2.332c1.124-14.49,4.502-43.701,8.626-65.061l72.415-14.242
		c9.409,9.363,44.215,43.84,54.566,51.779c-0.039,0.656-0.076,1.326-0.118,2.025c-0.505,8.553-1.355,19.967-2.403,31.363
		c-1.043,11.396-2.317,22.775-3.513,31.283c-0.282,2.127-0.603,4.068-0.854,5.795c-0.095,0.662-0.19,1.277-0.286,1.867
		c-10.642,6.143-50.534,11.984-66.957,12.936C390.151,599.481,389.477,599.018,388.752,598.519 M449.635,400.705
		c-1.742,4.834-3.523,9.655-5.352,14.45l-5.546,14.365l-5.693,14.299c-1.662,4.172-3.383,8.312-5.084,12.466
		c7.466,6.377,14.791,12.912,22.195,19.357l11.641,10.422c3.29,2.961,6.6,5.9,9.872,8.883c8.429-4.605,16.811-9.293,25.306-13.781
		l13.748-7.355l12.245-6.396c-0.839-3.73-1.653-7.469-2.449-11.213c-0.926-4.367-1.892-8.725-2.763-13.108
		c-0.884-4.377-1.805-8.747-2.636-13.141c-0.858-4.384-1.691-8.776-2.465-13.181c1.401,4.247,2.746,8.511,4.065,12.781
		c1.346,4.262,2.6,8.549,3.892,12.824c1.306,4.271,2.517,8.567,3.768,12.856c1.248,4.285,2.491,8.574,3.673,12.879l0.033,0.117
		l0.443,1.613l-1.463,0.859l-0.181,0.105l-13.439,7.912l-13.511,7.779c-8.983,5.233-18.098,10.225-27.143,15.346l-0.915,0.52
		l-1.108,0.623l-0.515-0.451l-1.271-1.129c-3.898-3.453-7.704-7.01-11.56-10.514l-11.527-10.547
		c-7.587-7.141-15.275-14.168-22.776-21.402l-1.397-1.348l0.765-1.615c2.194-4.637,4.343-9.293,6.573-13.913l6.694-13.86
		l6.842-13.794C444.898,409.825,447.25,405.256,449.635,400.705 M289.374,524.356c11.848,12.98,26.308,17.785,34.955,21.467
		c0.507,0.701,1.052,1.435,1.642,2.219c1.301,1.641,2.732,3.523,4.435,5.432c0.846,0.961,1.725,1.959,2.633,2.996
		c0.946,1,1.922,2.031,2.925,3.092c2.001,2.129,4.248,4.225,6.52,6.436c2.381,2.096,4.726,4.385,7.31,6.473
		c2.555,2.121,5.111,4.318,7.815,6.328c2.664,2.055,5.319,4.115,8.049,5.988c2.707,1.902,5.321,3.836,7.987,5.512
		c2.642,1.707,5.159,3.402,7.607,4.926c2.468,1.482,4.805,2.885,6.959,4.182c0.499,0.297,0.954,0.568,1.433,0.856
		c1.762,8.438,4.539,15.629,6.896,20.738C349.261,604.596,310.597,569.418,289.374,524.356 M403.491,623.25
		c-0.247-0.574-0.507-1.139-0.752-1.715c-0.769-1.805-1.524-3.617-2.248-5.467c-0.362-0.924-0.719-1.852-1.056-2.816
		c-0.337-0.994-0.668-1.854-0.921-3.244l-0.393-2.184l2.203-0.352c3.982-0.637,8.047-1.461,12.084-2.25l12.153-2.414
		c8.12-1.566,16.238-3.16,24.507-4.195c2.074-0.236,4.148-0.455,6.302-0.453c0.539,0.002,1.085,0.027,1.656,0.094
		c0.544,0.078,1.227,0.176,1.857,0.607c0.863,0.598,1.712,1.09,2.573,1.602c3.56,2.045,7.204,3.99,10.843,5.93
		c7.29,3.867,14.625,7.66,21.975,11.424c-7.511-3.434-15.006-6.898-22.469-10.443c-3.729-1.779-7.452-3.558-11.144-5.465
		c-0.936-0.5-1.893-1.01-2.753-1.551c-0.45-0.289-1.572-0.305-2.513-0.272c-1.978,0.088-4.007,0.387-6.019,0.713
		c-8.067,1.381-16.091,3.334-24.103,5.26l-12.023,2.957c-3.206,0.779-6.408,1.555-9.663,2.279c0.047,0.115,0.093,0.232,0.139,0.346
		c0.346,0.859,0.73,1.734,1.119,2.603c0.781,1.746,1.605,3.49,2.442,5.231c0.912,1.891,1.868,3.768,2.809,5.648
		C407.876,624.541,405.678,623.91,403.491,623.25 M503.163,625.15c1.702-2.676,4.308-6.394,8.233-11.32
		c0.591-0.254,1.193-0.514,1.81-0.783c2.466-1.045,5.109-2.244,7.911-3.504c2.804-1.258,5.719-2.672,8.757-4.094
		c2.996-1.504,6.133-2.984,9.251-4.633c3.118-1.639,6.31-3.273,9.42-5.06c1.565-0.881,3.129-1.758,4.69-2.633
		c1.531-0.922,3.059-1.842,4.575-2.756c3.06-1.777,5.943-3.744,8.777-5.59c1.429-0.902,2.792-1.857,4.104-2.828
		c1.322-0.957,2.616-1.891,3.876-2.805c2.529-1.813,4.746-3.781,6.89-5.473c1.08-0.834,2.042-1.73,2.951-2.594
		c0.914-0.855,1.783-1.668,2.6-2.43c0.743-0.715,1.465-1.348,2.093-1.996c3.578-0.545,6.678-1.318,9.224-2.102
		C573.953,593.723,540.882,615.293,503.163,625.15 M615.889,556.406c-2.035,0.185-4.082,0.344-6.163,0.406
		c-1.631,0.043-3.273,0.045-5.006-0.113c-0.052-0.006-0.106-0.016-0.159-0.022c-0.82-0.086-1.651-0.193-2.588-0.459
		c-0.493-0.143-1.022-0.322-1.633-0.68c-0.575-0.342-1.393-0.967-1.778-2.108l-0.137-0.398l0.021-0.31
		c0.066-1.035,0.104-2.1,0.224-3.082c0.1-1,0.203-1.998,0.338-2.975c0.241-1.973,0.534-3.918,0.823-5.867
		c0.589-3.893,1.244-7.76,1.909-11.627c1.346-7.728,2.771-15.43,4.265-23.125l0.06-0.309l0.182-0.188l13.694-14.182l6.895-7.047
		l3.476-3.49c1.149-1.174,2.355-2.297,3.544-3.426c-1.135,1.188-2.276,2.363-3.369,3.594l-3.296,3.656l-6.534,7.375l-12.762,14.596
		c-1.061,7.66-2.059,15.336-2.973,23.008c-0.454,3.881-0.898,7.762-1.271,11.641c-0.183,1.935-0.366,3.873-0.497,5.797
		c-0.081,0.967-0.127,1.92-0.171,2.871c-0.042,0.607-0.047,1.184-0.05,1.754c0.07,0.021,0.139,0.041,0.221,0.057
		c0.521,0.119,1.207,0.18,1.899,0.205c0.952,0.033,1.954-0.004,2.969-0.065c0.474-0.027,0.948-0.053,1.427-0.094
		c2.128-0.186,4.282-0.484,6.44-0.82V556.406z M641.731,444.814c0,8.52-0.583,16.901-1.688,25.118
		c-2.232-3.943-4.955-8.418-7.017-10.766c0.027-0.412,0.053-0.832,0.083-1.268c0.173-2.02,0.072-4.299,0.124-6.789
		c-0.003-2.489,0.104-5.197-0.104-8.045c-0.179-2.85-0.21-5.874-0.53-8.979c-0.351-3.098-0.578-6.326-1.061-9.571
		c-0.25-1.624-0.504-3.259-0.756-4.901c-0.24-1.647-0.506-3.298-0.866-4.927c-0.674-3.27-1.279-6.564-2.14-9.743
		c-0.404-1.597-0.806-3.185-1.202-4.749c-0.456-1.549-0.908-3.083-1.354-4.588c-0.836-3.035-1.926-5.875-2.818-8.622
		c-1.031-2.695-1.936-5.277-2.94-7.598c-0.489-1.164-0.959-2.282-1.406-3.344c-0.48-1.05-0.935-2.045-1.365-2.983
		c-0.667-1.477-1.326-2.777-1.9-3.916c1.134-7.715,1.342-14.405,1.307-18.825C632.373,378.04,641.731,410.346,641.731,444.814
		 M568.101,296.175c-4.296,0.023-8.589,0.116-12.822,0.423c-2.174,0.161-4.339,0.38-6.399,0.75c-0.618,0.114-1.222,0.25-1.801,0.403
		c-0.112,0.03-0.214,0.064-0.324,0.095c-0.247,0.072-0.513,0.136-0.737,0.221c-0.165,0.054-0.307,0.119-0.443,0.182l11.983,18.869
		c2.104,3.342,4.271,6.645,6.285,10.042l5.994,9.889l39.419,19.571l-40.563-17.879l-0.248-0.108l-0.182-0.272l-6.583-9.816
		c-2.159-3.292-4.47-6.484-6.718-9.716l-13.554-19.334l-0.209-0.299l-0.099-0.369c-0.187-0.702-0.131-1.607,0.208-2.261
		c0.124-0.255,0.271-0.449,0.416-0.638c0.113-0.148,0.222-0.278,0.336-0.396c0.113-0.114,0.229-0.24,0.337-0.331
		c0.731-0.595,1.382-0.898,2.002-1.163c1.246-0.522,2.404-0.814,3.565-1.089c2.313-0.524,4.582-0.852,6.847-1.127
		c2.152-0.253,4.299-0.45,6.442-0.615C563.574,292.813,565.858,294.468,568.101,296.175 M456.683,258.522
		c36.607,0,70.764,10.758,99.518,29.295c-7.44-0.519-19.424,2.158-24.896,3.515c-1.098-0.415-2.217-0.846-3.396-1.241
		c-1.537-0.482-3.128-0.985-4.76-1.499c-1.638-0.515-3.316-1.046-5.036-1.584c-1.721-0.531-3.514-0.944-5.321-1.435
		c-1.812-0.475-3.653-0.957-5.518-1.446c-1.868-0.474-3.787-0.834-5.707-1.262c-1.924-0.411-3.864-0.826-5.813-1.242
		c-1.963-0.339-3.934-0.679-5.905-1.018c-3.936-0.741-7.907-1.213-11.815-1.742c-3.908-0.533-7.778-0.819-11.519-1.209
		c-3.749-0.217-7.373-0.565-10.82-0.65c-1.724-0.065-3.399-0.128-5.023-0.189c-1.623-0.018-3.191-0.036-4.699-0.055
		c-3.014-0.065-5.781,0.049-8.235,0.065c-0.221,0.01-0.426,0.018-0.641,0.026c-6.757-3.297-17.977-7.254-34.311-8.403
		c-3.722,0.32-7.683,1.09-11.759,2.201C411.439,262.822,433.57,258.522,456.683,258.522 M345.129,296.278
		c-0.065,1.027-0.144,2.051-0.197,3.076c-0.251,4.974-0.382,9.954-0.175,14.863c0.112,2.448,0.303,4.889,0.709,7.214
		c0.203,1.158,0.467,2.288,0.824,3.295c0.228,0.674,0.554,1.286,0.849,1.689l6.133-0.632c2.364-0.206,4.718-0.585,7.078-0.902
		c2.358-0.34,4.723-0.624,7.071-1.042l7.064-1.168c4.695-0.864,9.396-1.715,14.075-2.685c4.602-0.924,9.194-1.925,13.763-2.975
		c4.436-5.003,8.783-10.116,12.958-15.351c2.115-2.659,4.185-5.355,6.134-8.135c0.977-1.388,1.916-2.804,2.781-4.262
		c0.433-0.73,0.837-1.478,1.208-2.241c0.337-0.772,0.692-1.557,0.806-2.405c-0.079,0.853-0.4,1.655-0.71,2.448
		c-0.338,0.783-0.711,1.551-1.118,2.301c-0.806,1.503-1.69,2.965-2.61,4.397c-1.841,2.871-3.803,5.661-5.81,8.415
		c-4.023,5.504-8.213,10.875-12.527,16.164l-0.159,0.195L403,318.615c-4.635,1.273-9.268,2.49-13.93,3.631
		c-4.655,1.17-9.336,2.222-14.02,3.29l-7.056,1.472c-2.347,0.519-4.724,0.908-7.088,1.35c-2.372,0.42-4.728,0.903-7.125,1.215
		l-6.164,0.896l-0.249,0.037l-0.76,0.111l-0.713,0.105l-0.62-0.429c-1.766-1.213-2.39-2.706-2.977-4.021
		c-0.542-1.345-0.897-2.665-1.186-3.973c-0.567-2.619-0.871-5.199-1.097-7.773c-0.388-4.635-0.479-9.233-0.462-13.824
		C341.384,299.19,343.244,297.719,345.129,296.278 M333.652,305.789l1.139,36.665c0.521-0.165,1.176-0.376,1.934-0.624
		c-0.691,0.791-1.388,1.589-2.124,2.43c-0.94,1.056-1.772,2.257-2.705,3.434c-0.917,1.193-1.857,2.415-2.818,3.667
		c-0.481,0.627-0.965,1.262-1.457,1.902c-0.453,0.667-0.909,1.339-1.369,2.018c-0.922,1.357-1.859,2.739-2.809,4.137
		c-0.475,0.701-0.951,1.406-1.432,2.115c-0.44,0.732-0.882,1.469-1.327,2.207c-1.761,2.965-3.654,5.933-5.234,9.071
		c-0.826,1.551-1.65,3.103-2.472,4.65c-0.75,1.583-1.498,3.159-2.237,4.723c-1.541,3.108-2.776,6.287-4.064,9.335
		c-1.22,3.066-2.312,6.074-3.304,8.942c-0.936,2.887-1.85,5.614-2.535,8.179c-0.759,2.546-1.311,4.924-1.835,7.025
		c-0.443,1.99-0.833,3.729-1.104,5.221l-26.254,23.128C271.875,389.124,295.809,339.768,333.652,305.789 M120.814,416.648
		c-5.664-0.794-9.632-5.874-8.813-11.292l6.166-40.876c0.818-5.417,6.121-9.198,11.786-8.406l8.186,1.147
		c5.665,0.793,9.632,5.874,8.814,11.29l-0.77,5.11c-0.818,5.415,3.147,10.496,8.813,11.289l6.678,0.935
		c5.666,0.793,10.967-2.99,11.785-8.406l0.36-2.391c0.817-5.417,6.122-9.199,11.786-8.406l6.767,0.947
		c5.667,0.793,9.632,5.874,8.814,11.29l-0.362,2.391c-0.815,5.418,3.148,10.499,8.813,11.293l39.818,5.573
		c5.665,0.795,9.632,5.874,8.813,11.29l-2.423,16.069c-0.818,5.418-6.121,9.201-11.786,8.406L120.814,416.648z M163.7,313.84
		c4.84,3.576,17.169,10.946,17.169,10.946c4.854,2.9,12.831,7.597,17.727,10.435l12.369,7.168
		c12.796,7.418,21.941,12.315,27.43,14.693c5.49,2.38,11.381,3.285,17.676,2.716c6.298-0.567,12.129-2.757,17.499-6.572
		c5.368-3.813,10.058-8.907,14.071-15.282c4.228-6.716,6.778-13.269,7.656-19.655c0.873-6.383,0.096-12.305-2.339-17.765
		c-2.431-5.457-6.067-9.975-10.911-13.55c-4.841-3.576-17.169-10.946-17.169-10.946c-4.854-2.902-12.833-7.599-17.726-10.435
		l-12.37-7.17c-12.794-7.416-21.938-12.313-27.428-14.693c-5.489-2.378-11.382-3.283-17.677-2.716
		c-6.293,0.569-12.126,2.758-17.498,6.572c-5.368,3.814-10.061,8.908-14.073,15.282c-4.227,6.718-6.777,13.271-7.653,19.656
		c-0.877,6.386-0.098,12.307,2.335,17.766C155.223,305.75,158.859,310.267,163.7,313.84 M179.239,274.915
		c1.202-1.913,2.804-2.707,4.803-2.385c1.998,0.322,2.596,0.642,2.596,0.642c4.993,2.679,13.083,7.19,17.978,10.028l48.226,27.951
		c7.322,4.242,11.768,7.221,13.342,8.938c1.577,1.716,1.7,3.628,0.373,5.736c-1.296,2.06-2.969,2.883-5.011,2.466
		c-2.043-0.415-4.858-1.955-4.858-1.955c-4.968-2.719-13.039-7.264-17.935-10.102l-49.146-28.484
		c-6.4-3.709-9.981-6.37-10.748-7.985C178.094,278.15,178.219,276.533,179.239,274.915 M260.901,218.868
		c2.999,4.663,7.956,12.262,11.018,16.886l7.74,11.68c8.007,12.087,13.913,20.362,17.723,24.825c3.81,4.464,8.664,7.78,14.563,9.945
		c5.897,2.164,12.136,2.678,18.716,1.539c6.577-1.14,13.146-3.713,19.699-7.725c6.908-4.228,12.236-9.017,15.988-14.37
		c3.751-5.353,5.804-10.994,6.168-16.92c0.357-5.929-0.798-11.523-3.47-16.785c-2.671-5.26-10.284-17.108-10.284-17.108
		c-2.997-4.664-7.953-12.262-11.016-16.885l-7.74-11.681c-8.007-12.085-13.914-20.358-17.724-24.824
		c-3.807-4.463-8.662-7.779-14.56-9.944c-5.898-2.165-12.139-2.679-18.718-1.541c-6.578,1.14-13.147,3.715-19.7,7.727
		c-6.906,4.227-12.238,9.017-15.986,14.37c-3.753,5.354-5.808,10.993-6.166,16.921c-0.363,5.929,0.795,11.524,3.466,16.785
		C253.29,207.024,260.901,218.868,260.901,218.868 M282.622,173.461c1.967-1.203,3.766-1.236,5.407-0.098
		c1.641,1.136,2.025,1.679,2.025,1.679c3.224,4.522,8.37,12.003,11.433,16.626l30.179,45.544c4.58,6.915,7.177,11.475,7.789,13.682
		c0.612,2.208-0.168,3.974-2.335,5.301c-2.116,1.295-3.995,1.323-5.631,0.082c-1.638-1.24-3.439-3.815-3.439-3.815
		c-3.185-4.55-8.297-12.052-11.361-16.676l-30.752-46.415c-4.005-6.042-5.975-9.95-5.909-11.724
		C280.094,175.876,280.958,174.482,282.622,173.461 M368.733,122.981c-0.793-5.421,3.199-10.476,8.869-11.236l61.193-8.19
		c5.671-0.759,10.956,3.053,11.749,8.474l1.143,7.835c0.793,5.42-3.196,10.474-8.867,11.234l-1.613,0.215
		c-5.67,0.76-9.661,5.815-8.87,11.236l13.205,90.377c0.792,5.421-3.197,10.477-8.868,11.236l-16.821,2.252
		c-5.67,0.758-10.957-3.055-11.748-8.477L394.9,147.561c-0.792-5.421-6.078-9.234-11.748-8.477l-1.526,0.205
		c-5.669,0.758-10.957-3.054-11.75-8.475L368.733,122.981z M481.853,242.433l31.918,9.136c14.567,4.167,24.445,6.129,29.646,5.884
		c5.196-0.246,9.542-2.228,13.041-5.951c3.5-3.72,5.833-9.749,5.833-9.749c1.986-5.133,4.942-13.625,6.573-18.871l0.87-2.812
		c2.697-8.671,3.202-15.533,1.527-20.587c-1.679-5.053-6.423-9.682-14.231-13.889c8.022,0.504,13.786-0.411,17.295-2.75
		c3.505-2.34,6.467-7.402,8.887-15.187c3.575-11.512,4.36-20.374,2.358-26.588c-2.003-6.214-5.686-11.012-11.033-14.395
		c-5.353-3.382-15.311-6.7-15.311-6.7c-5.408-1.799-14.322-4.557-19.804-6.125l-16.185-4.632
		c-5.482-1.571-11.306,1.438-12.936,6.685l-35.459,114.139C473.213,235.285,476.368,240.861,481.853,242.433 M536.162,159.602
		l6.237-20.083c3.708,1.121,6.144,2.086,7.296,2.894c1.156,0.81,1.874,2.164,2.157,4.066c0.282,1.904-0.225,4.94-1.517,9.108
		c-2.457,7.899-4.429,12.546-5.923,13.94c-1.501,1.396-4.021,1.582-7.579,0.564l-0.859-0.246
		C534.445,169.458,534.531,164.848,536.162,159.602 M518.139,217.611l8.618-27.735c5.341,1.706,8.449,3.345,9.338,4.912l0.886,1.569
		c-1.218,5.138-3.547,13.633-5.177,18.879l-0.897,2.887c-1.671,5.376-3.422,8.549-5.25,9.517l-1.834,0.969
		C519.067,227.807,516.51,222.858,518.139,217.611 M563.168,269.548l13.47,11.79c4.224,3.694,11.114,3.674,15.31-0.047l3.962-3.507
		c4.197-3.722,9.881-4.801,12.619-2.401c2.745,2.401,2.119,7.905-1.385,12.232l-3.308,4.08c-3.506,4.327-2.921,10.891,1.305,14.588
		l13.141,11.497c4.221,3.696,10.28,2.997,13.458-1.554l70.142-100.358c3.178-4.551,2.327-11.297-1.897-14.992l-24.946-21.831
		c-4.223-3.695-11.252-3.827-15.623-0.292l-95.981,77.651C559.065,259.936,558.944,265.853,563.168,269.548 M666.862,213.899
		c-14.862,18.41-30.606,38.934-30.606,38.934c-3.388,4.413-9.612,5.001-13.838,1.305l-1.918-1.679
		C629.87,243.981,645.326,231.126,666.862,213.899 M632.587,322.846l111.65-52.787c5.131-2.424,11.395-0.39,13.913,4.522
		l7.483,14.578c2.523,4.912,0.385,10.917-4.744,13.343l-85.576,40.454c-5.129,2.427-7.264,8.432-4.742,13.344l0.954,1.862
		c2.523,4.912,0.386,10.917-4.742,13.343l-7.419,3.508c-5.134,2.424-11.395,0.389-13.917-4.523l-17.607-34.304
		C625.315,331.275,627.453,325.271,632.587,322.846 M660.532,382.007l123.382-16.327c5.671-0.751,10.943,3.073,11.717,8.497
		l2.293,16.084c0.774,5.423-3.234,10.474-8.904,11.225l-94.566,12.514c-5.67,0.751-9.677,5.801-8.904,11.223l0.292,2.057
		c0.775,5.42-3.233,10.472-8.906,11.221l-8.194,1.087c-5.672,0.75-10.941-3.073-11.717-8.495l-5.396-37.86
		C650.853,387.808,654.862,382.757,660.532,382.007 M173.559,530.965l-37.028,11.516c-5.268,1.639-10.895-1.406-12.504-6.766
		l-4.474-14.879c-1.609-5.359,1.383-11.086,6.651-12.723l114.613-35.645c5.267-1.639,10.893,1.406,12.506,6.766l11.634,38.717
		c1.61,5.359-1.381,11.086-6.65,12.723l-7.612,2.367c-5.27,1.639-10.897-1.406-12.506-6.766l-1.309-4.348
		c-1.608-5.359-7.236-8.404-12.505-6.766l-6.209,1.932c-5.267,1.637-8.26,7.361-6.65,12.723l0.523,1.738
		c1.61,5.357-1.383,11.082-6.65,12.721l-6.294,1.957c-5.267,1.639-10.895-1.406-12.506-6.766l-0.522-1.736
		C184.455,532.373,178.827,529.326,173.559,530.965 M294.37,613.787c4.194-4.072,7.188-9.039,8.98-14.896
		c1.789-5.863,1.919-11.893,0.391-18.098c-1.529-6.201-4.48-12.256-8.855-18.166c-4.612-6.229-9.687-10.889-15.223-13.986
		c-5.539-3.094-11.256-4.533-17.155-4.322c-5.903,0.211-11.382,1.844-16.44,4.902c-5.056,3.055-16.342,11.463-16.342,11.463
		c-4.443,3.31-11.678,8.779-16.079,12.152l-11.117,8.52c-11.502,8.813-19.35,15.256-23.546,19.328
		c-4.197,4.07-7.192,9.037-8.981,14.896c-1.792,5.859-1.92,11.893-0.393,18.096c1.529,6.199,4.481,12.258,8.857,18.17
		c4.611,6.223,9.685,10.885,15.223,13.982c5.535,3.092,11.257,4.533,17.158,4.326c5.898-0.215,11.38-1.846,16.434-4.906
		c5.057-3.055,16.343-11.465,16.343-11.465c4.445-3.31,11.68-8.779,16.081-12.152l11.116-8.518
		C282.323,624.299,290.17,617.857,294.37,613.787 M259.164,597.055l-43.344,33.215c-6.581,5.041-10.943,7.963-13.097,8.754
		c-2.154,0.799-3.953,0.215-5.399-1.738c-1.413-1.91-1.556-3.709-0.423-5.393c1.132-1.688,3.576-3.66,3.576-3.66
		c4.318-3.479,11.452-9.088,15.85-12.457l44.172-33.852c5.75-4.406,9.507-6.664,11.269-6.764c1.763-0.106,3.198,0.594,4.31,2.092
		c1.313,1.773,1.455,3.5,0.428,5.178c-1.032,1.678-1.544,2.098-1.544,2.098C270.673,588.045,263.564,593.682,259.164,597.055
		 M374.784,633.291c-3.849-5.055-8.944-9.395-15.285-13.016c-6.683-3.82-13.17-6.016-19.462-6.586
		c-6.294-0.572-12.1,0.445-17.42,3.051c-5.322,2.604-9.695,6.34-13.118,11.205c-3.423,4.865-10.436,17.178-10.436,17.178
		c-2.763,4.85-7.229,12.815-9.927,17.699l-6.816,12.348c-7.053,12.771-11.696,21.879-13.932,27.32
		c-2.234,5.445-3.015,11.215-2.339,17.313c0.674,6.1,2.936,11.676,6.785,16.731c3.85,5.057,8.943,9.396,15.284,13.019
		c6.683,3.82,13.17,6.012,19.462,6.584c6.294,0.57,12.1-0.447,17.42-3.051c5.32-2.605,9.691-6.34,13.116-11.207
		c3.424-4.863,10.44-17.178,10.44-17.178c2.763-4.848,7.229-12.813,9.926-17.699l6.816-12.344
		c7.051-12.771,11.697-21.881,13.932-27.32c2.236-5.443,3.018-11.217,2.34-17.315C380.894,643.924,378.632,638.348,374.784,633.291
		 M350.486,645.922c-0.279,1.957-0.584,2.553-0.584,2.553c-2.537,4.975-6.82,13.041-9.518,17.928l-26.576,48.129
		c-4.034,7.307-6.881,11.764-8.537,13.369c-1.657,1.607-3.537,1.81-5.632,0.611c-2.048-1.17-2.888-2.758-2.516-4.766
		c0.368-2.006,1.829-4.811,1.829-4.811c2.58-4.951,6.897-13.002,9.595-17.887L335.63,652c3.527-6.387,6.074-9.988,7.649-10.803
		c1.572-0.815,3.162-0.762,4.774,0.158C349.954,642.441,350.765,643.963,350.486,645.922 M471.461,663.094l-0.935,8.045
		c-0.649,5.564-5.654,9.578-11.125,8.92l-0.941-0.113c-5.47-0.66-10.477,3.352-11.125,8.918l-10.811,92.795
		c-0.646,5.565-5.652,9.578-11.125,8.92l-15.186-1.832c-5.471-0.66-9.417-5.752-8.77-11.316l10.811-92.795
		c0.649-5.566-3.294-10.656-8.767-11.318l-0.856-0.102c-5.472-0.662-9.415-5.756-8.767-11.32l0.937-8.043
		c0.649-5.566,5.653-9.578,11.125-8.918l56.769,6.846C468.164,652.44,472.11,657.531,471.461,663.094 M582.13,723.988l-0.839-2.881
		c-2.584-8.885-5.897-15.055-9.935-18.52c-4.04-3.461-10.247-4.94-18.618-4.441c6.537-3.797,10.543-7.627,12.018-11.488
		c1.47-3.865,1.049-9.783-1.27-17.76c-3.429-11.789-7.606-19.83-12.526-24.119c-4.922-4.289-10.386-6.475-16.39-6.56
		c-6.006-0.088-15.296,2.244-15.296,2.244c-5.349,1.344-14.047,3.744-19.33,5.332l-14.585,4.393
		c-5.283,1.59-8.324,7.285-6.764,12.66l33.995,116.91c1.563,5.375,7.163,8.471,12.447,6.881l29.581-8.9
		c13.627-4.1,22.399-7.627,26.324-10.584c3.925-2.955,6.247-6.949,6.968-11.998c0.718-5.047-0.717-11.463-0.717-11.463
		C585.97,738.229,583.69,729.361,582.13,723.988 M527.793,695.711c-1.404,0.473-3.83-3.537-5.393-8.91l-5.981-20.572
		c3.501-0.994,5.922-1.445,7.26-1.359c1.337,0.086,2.63,0.873,3.882,2.361c1.248,1.486,2.494,4.365,3.736,8.639
		c2.35,8.09,3.319,13.129,2.906,15.117c-0.412,1.988-2.283,3.48-5.608,4.484L527.793,695.711z M550.967,750.881l-0.909,1.801
		c-4.145,1.818-8.815-1.09-10.381-6.465l-8.263-28.404c5.093-1.352,8.408-1.586,9.949-0.705l1.538,0.883
		c1.827,5.061,4.598,13.604,6.16,18.977l0.86,2.955C551.522,745.43,551.87,749.084,550.967,750.881 M705.997,671.748l-91.55-80.953
		c-4.157-3.676-10.972-3.688-15.143-0.027l-23.494,20.619c-4.172,3.66-5.099,10.48-2.064,15.156l66.689,102.715
		c3.035,4.676,8.932,5.508,13.104,1.848l12.484-10.959c4.172-3.662,4.94-10.367,1.704-14.904l-3.055-4.285
		c-3.233-4.533-3.727-10.135-1.094-12.441c2.63-2.309,7.974-0.965,11.877,2.994l3.67,3.723c3.901,3.955,10.506,4.195,14.678,0.537
		l12.169-10.682C710.144,681.428,710.154,675.426,705.997,671.748 M643.88,672.486l-1.624,1.426
		c-7.394-10.148-18.473-26.736-33.244-49.76c16.601,16.772,35.18,34.674,35.18,34.674
		C648.191,662.678,648.049,668.826,643.88,672.486 M765.396,595.44l-18.016,32.615c-2.701,4.885-8.837,6.635-13.64,3.891
		l-104.48-59.729c-4.805-2.744-6.525-8.99-3.826-13.873l7.492-13.567c2.7-4.885,8.836-6.637,13.639-3.889l80.078,45.775
		c4.804,2.744,10.94,0.994,13.638-3.893l0.71-1.285c2.698-4.883,8.835-6.637,13.638-3.889l6.942,3.967
		C766.374,584.31,768.096,590.555,765.396,595.44 M795.981,497.158l-8.129,36.488c-1.218,5.465-6.607,8.924-11.981,7.685
		l-116.884-26.949c-5.374-1.238-8.773-6.721-7.556-12.188l3.381-15.174c1.218-5.467,6.606-8.924,11.981-7.688l89.584,20.654
		c5.374,1.24,10.766-2.219,11.983-7.682l0.319-1.441c1.218-5.463,6.608-8.922,11.98-7.684l7.767,1.789
		C793.8,486.209,797.199,491.693,795.981,497.158 M187.471,438.691c7.327,0,13.268,5.94,13.268,13.268
		c0,7.326-5.941,13.266-13.268,13.266c-7.326,0-13.267-5.939-13.267-13.266C174.204,444.631,180.145,438.691,187.471,438.691
		 M714.011,438.691c7.327,0,13.267,5.94,13.267,13.268c0,7.326-5.939,13.266-13.267,13.266c-7.328,0-13.268-5.939-13.268-13.266
		C700.743,444.631,706.683,438.691,714.011,438.691"/>
</g>
</svg>
