<?xml version="1.0" encoding="UTF-8" standalone="no"?>
<svg
   xmlns:dc="http://purl.org/dc/elements/1.1/"
   xmlns:cc="http://creativecommons.org/ns#"
   xmlns:rdf="http://www.w3.org/1999/02/22-rdf-syntax-ns#"
   xmlns:svg="http://www.w3.org/2000/svg"
   xmlns="http://www.w3.org/2000/svg"
   xmlns:sodipodi="http://sodipodi.sourceforge.net/DTD/sodipodi-0.dtd"
   xmlns:inkscape="http://www.inkscape.org/namespaces/inkscape"
   version="1.1"
   id="Layer_1"
   x="0px"
   y="0px"
   viewBox="0 0 1000 1000"
   xml:space="preserve"
   sodipodi:docname="Glory Perth .svg"
   width="1000"
   height="1000"
   inkscape:version="1.0.1 (3bc2e813f5, 2020-09-07)"><metadata
   id="metadata121"><rdf:RDF><cc:Work
       rdf:about=""><dc:format>image/svg+xml</dc:format><dc:type
         rdf:resource="http://purl.org/dc/dcmitype/StillImage" /><dc:title></dc:title></cc:Work></rdf:RDF></metadata><defs
   id="defs119" /><sodipodi:namedview
   pagecolor="#ffffff"
   bordercolor="#666666"
   borderopacity="1"
   objecttolerance="10"
   gridtolerance="10"
   guidetolerance="10"
   inkscape:pageopacity="0"
   inkscape:pageshadow="2"
   inkscape:window-width="1920"
   inkscape:window-height="1017"
   id="namedview117"
   showgrid="false"
   inkscape:zoom="1.1186869"
   inkscape:cx="306"
   inkscape:cy="396"
   inkscape:window-x="-8"
   inkscape:window-y="-8"
   inkscape:window-maximized="1"
   inkscape:current-layer="Layer_1" />











<g
   id="g1003"
   transform="matrix(2.3188774,0,0,2.3188774,-38.820325,18.908126)"><path
     style="fill:#2e3192"
     d="m 318.177,48.013 c 109.554,0 201.529,77.832 223.522,181.009 H 94.737 C 116.647,125.844 208.623,48.013 318.177,48.013 Z"
     id="path2" /><g
     id="g86">
	<path
   style="fill:#f6863e"
   d="m 590.672,182.011 5.232,-0.9 -5.07,2.208 c -0.08,-0.407 -0.08,-0.898 -0.162,-1.308 z m -543.518,1.308 -5.068,-2.208 5.15,0.9 c 0,0.41 -0.082,0.901 -0.082,1.308 z"
   id="path4" />
	<path
   style="fill:#f68a42"
   d="m 583.804,183.319 12.101,-2.208 -11.857,5.152 c -0.08,-0.981 -0.161,-1.962 -0.244,-2.944 z m -529.864,2.945 -11.854,-5.152 12.099,2.208 c -0.081,0.981 -0.164,1.962 -0.245,2.944 z"
   id="path6" />
	<path
   style="fill:#f68c47"
   d="m 590.835,183.319 c -0.081,-0.408 -0.081,-0.898 -0.163,-1.308 l -13.818,2.535 c 0.164,1.553 0.245,3.107 0.327,4.66 z M 47.236,182.011 c 0,0.41 -0.081,0.9 -0.081,1.308 l 13.571,5.887 c 0.164,-1.553 0.245,-3.107 0.328,-4.66 z"
   id="path8" />
	<path
   style="fill:#f78f4b"
   d="m 584.048,186.264 c -0.08,-0.981 -0.162,-1.963 -0.244,-2.944 l -13.817,2.535 c 0.163,2.125 0.327,4.251 0.408,6.378 z M 54.185,183.319 c -0.081,0.981 -0.164,1.963 -0.245,2.944 l 13.653,5.968 c 0.083,-2.127 0.245,-4.253 0.411,-6.378 z"
   id="path10" />
	<path
   style="fill:#f7914d"
   d="m 577.181,189.207 c -0.082,-1.553 -0.163,-3.107 -0.327,-4.66 l -13.817,2.616 c 0.246,2.616 0.327,5.314 0.491,8.094 z M 61.054,184.546 c -0.083,1.553 -0.164,3.107 -0.328,4.66 l 13.735,6.049 c 0.081,-2.78 0.245,-5.477 0.41,-8.094 z"
   id="path12" />
	<path
   style="fill:#f79552"
   d="m 570.396,192.232 c -0.081,-2.127 -0.245,-4.253 -0.408,-6.378 l -13.816,2.535 c 0.163,3.269 0.327,6.54 0.489,9.81 z M 68.003,185.854 c -0.166,2.125 -0.328,4.251 -0.411,6.378 l 13.735,5.967 c 0.083,-3.269 0.247,-6.54 0.492,-9.81 z"
   id="path14" />
	<path
   style="fill:#f79756"
   d="m 563.528,195.256 c -0.164,-2.78 -0.245,-5.477 -0.491,-8.094 l -13.816,2.534 c 0.245,3.843 0.409,7.686 0.491,11.529 z M 74.87,187.162 c -0.164,2.616 -0.328,5.314 -0.41,8.094 l 13.817,5.969 c 0.081,-3.843 0.245,-7.686 0.491,-11.529 z m 412.216,-139.967 3.027,-3.026 -2.292,3.843 c -0.244,-0.245 -0.49,-0.49 -0.735,-0.817 z m -336.919,0.818 -2.29,-3.843 3.025,3.026 c -0.244,0.326 -0.488,0.571 -0.735,0.817 z"
   id="path16" />
	<path
   style="fill:#f8995a"
   d="m 556.66,198.199 c -0.163,-3.269 -0.327,-6.54 -0.489,-9.81 l -13.899,2.616 c 0.327,4.332 0.409,8.83 0.491,13.243 z m -474.84,-9.81 c -0.245,3.269 -0.41,6.54 -0.492,9.81 l 13.9,6.05 c 0,-4.414 0.164,-8.911 0.491,-13.243 z m 400.36,-136.207 7.933,-8.013 -6.051,10.139 c -0.574,-0.735 -1.227,-1.39 -1.882,-2.126 z m -328.334,2.127 -5.968,-10.139 7.931,8.013 c -0.653,0.735 -1.308,1.39 -1.963,2.126 z"
   id="path18" />
	<path
   style="fill:#f89d5e"
   d="m 549.712,201.225 c -0.082,-3.843 -0.246,-7.686 -0.491,-11.529 l -13.899,2.536 c 0.328,4.332 0.409,8.665 0.409,13.081 0,0.653 0,1.39 0,2.044 z M 487.821,48.013 c -0.244,-0.245 -0.49,-0.491 -0.735,-0.817 l -9.892,9.975 c 1.063,1.144 2.125,2.288 3.189,3.432 z M 150.903,47.195 c -0.245,0.327 -0.489,0.572 -0.736,0.817 l 7.44,12.59 c 1.063,-1.144 2.044,-2.288 3.107,-3.432 z M 88.769,189.696 c -0.246,3.843 -0.41,7.686 -0.491,11.529 l 13.98,6.132 c 0,-0.655 -0.083,-1.391 -0.083,-2.044 0,-4.416 0.164,-8.749 0.409,-13.081 z"
   id="path20" />
	<path
   style="fill:#f89f62"
   d="m 542.762,204.249 c -0.082,-4.414 -0.164,-8.911 -0.491,-13.243 l -13.817,2.533 c 0.163,3.926 0.327,7.849 0.327,11.774 0,1.716 -0.081,3.432 -0.081,5.068 z m -58.7,-149.94 c -0.574,-0.736 -1.227,-1.391 -1.882,-2.127 l -9.892,9.975 c 1.472,1.552 2.942,3.188 4.332,4.742 z M 155.809,52.182 c -0.653,0.736 -1.308,1.391 -1.963,2.127 l 7.522,12.59 c 1.391,-1.554 2.863,-3.19 4.252,-4.742 z M 95.718,191.005 c -0.327,4.332 -0.491,8.83 -0.491,13.243 l 14.062,6.132 c -0.082,-1.636 -0.082,-3.352 -0.082,-5.068 0,-3.925 0.082,-7.848 0.327,-11.774 z m 223.194,-199.159 0.491,3.68 c -0.163,0 -0.325,0 -0.491,0 -0.163,0 -0.244,0 -0.408,0 z"
   id="path22" />
	<path
   style="fill:#f9a265"
   d="m 535.731,205.313 c 0,-4.416 -0.081,-8.749 -0.409,-13.081 l -13.817,2.534 c 0.164,3.515 0.246,7.031 0.246,10.547 0,2.779 -0.082,5.478 -0.163,8.175 l 14.143,-6.131 c 0,-0.655 0,-1.391 0,-2.044 z M 480.383,60.603 c -1.064,-1.144 -2.126,-2.288 -3.189,-3.432 l -9.811,9.974 c 1.881,1.961 3.68,4.006 5.478,6.131 z M 160.715,57.17 c -1.063,1.144 -2.044,2.288 -3.107,3.432 l 7.521,12.673 c 1.716,-2.125 3.598,-4.169 5.477,-6.131 z m -58.13,135.062 c -0.245,4.332 -0.409,8.665 -0.409,13.081 0,0.653 0.083,1.39 0.083,2.044 l 14.144,6.131 c -0.164,-2.698 -0.244,-5.396 -0.244,-8.175 0,-3.516 0.163,-7.032 0.327,-10.547 z M 318.912,-8.154 320.303,2.475 c -0.409,0 -0.9,0 -1.391,0 -0.408,0 -0.899,0 -1.308,0 z"
   id="path24" />
	<path
   style="fill:#f9a469"
   d="m 528.781,205.313 c 0,-3.925 -0.164,-7.848 -0.327,-11.774 l -13.899,2.535 c 0.164,3.107 0.246,6.133 0.246,9.239 0,3.843 -0.163,7.603 -0.327,11.362 l 14.226,-6.294 c 0,-1.636 0.081,-3.352 0.081,-5.068 z M 476.62,66.899 c -1.39,-1.554 -2.86,-3.19 -4.332,-4.742 l -9.811,9.974 c 2.289,2.453 4.496,4.904 6.623,7.52 z M 319.403,-4.474 c -0.163,0 -0.325,0 -0.491,0 -0.163,0 -0.244,0 -0.408,0 l -1.799,13.979 c 0.736,0 1.472,0 2.207,0 0.819,0 1.555,0 2.29,0 z M 165.62,62.157 c -1.389,1.552 -2.861,3.188 -4.252,4.742 l 7.521,12.752 c 2.125,-2.616 4.333,-5.067 6.622,-7.52 z m -56.085,131.381 c -0.245,3.926 -0.327,7.849 -0.327,11.774 0,1.716 0,3.432 0.082,5.068 l 14.226,6.294 c -0.164,-3.759 -0.328,-7.519 -0.328,-11.362 0,-3.106 0.082,-6.132 0.245,-9.239 z"
   id="path26" />
	<path
   style="fill:#f9a86d"
   d="m 521.75,205.313 c 0,-3.516 -0.082,-7.032 -0.246,-10.547 l -13.899,2.616 c 0.083,2.616 0.164,5.315 0.164,7.931 0,4.904 -0.164,9.729 -0.57,14.47 l 14.389,-6.295 c 0.081,-2.698 0.162,-5.397 0.162,-8.175 z M 472.86,73.275 c -1.797,-2.125 -3.596,-4.169 -5.478,-6.131 l -9.81,9.974 c 2.698,2.861 5.231,5.885 7.767,8.912 z M 320.303,2.474 c -0.409,0 -0.9,0 -1.391,0 -0.408,0 -0.899,0 -1.308,0 l -1.799,14.062 c 0.981,0 2.045,-0.081 3.107,-0.081 1.064,0 2.127,0.081 3.188,0.081 z m -149.697,64.67 c -1.879,1.961 -3.76,4.006 -5.477,6.131 l 7.521,12.755 c 2.454,-3.027 5.07,-6.051 7.769,-8.912 z m -54.122,127.622 c -0.164,3.515 -0.327,7.031 -0.327,10.547 0,2.779 0.08,5.478 0.244,8.175 l 14.307,6.295 c -0.327,-4.742 -0.489,-9.566 -0.489,-14.47 0,-2.616 0,-5.315 0.163,-7.931 z"
   id="path28" />
	<path
   style="fill:#faaa71"
   d="m 514.801,205.313 c 0,-3.106 -0.082,-6.132 -0.246,-9.239 l -13.898,2.616 c 0.082,2.207 0.164,4.415 0.164,6.623 0,5.967 -0.327,11.854 -0.9,17.66 l 14.553,-6.298 c 0.164,-3.759 0.327,-7.52 0.327,-11.362 z M 469.1,79.651 c -2.127,-2.616 -4.333,-5.067 -6.623,-7.52 l -9.81,9.974 c 3.024,3.352 6.049,6.786 8.83,10.383 z M 321.202,9.505 c -0.735,0 -1.471,0 -2.29,0 -0.735,0 -1.471,0 -2.207,0 l -1.798,14.062 c 1.309,-0.081 2.697,-0.081 4.005,-0.081 1.391,0 2.781,0 4.088,0.081 z M 175.511,72.131 c -2.288,2.453 -4.496,4.904 -6.622,7.52 l 7.522,12.837 c 2.861,-3.598 5.804,-7.031 8.913,-10.383 z m -52.078,123.942 c -0.163,3.107 -0.245,6.133 -0.245,9.239 0,3.843 0.164,7.603 0.328,11.362 l 14.553,6.298 c -0.572,-5.806 -0.9,-11.693 -0.9,-17.66 0,-2.208 0.081,-4.416 0.164,-6.623 z m 366.433,-52.977 5.887,-2.78 -5.069,5.068 c -0.246,-0.736 -0.571,-1.553 -0.818,-2.288 z m -343.296,4.415 -1.635,-1.636 1.882,0.817 c -0.083,0.328 -0.164,0.572 -0.247,0.819 z"
   id="path30" />
	<path
   style="fill:#faac74"
   d="m 507.77,205.313 c 0,-2.616 -0.081,-5.315 -0.164,-7.931 l -13.896,2.534 c 0.08,1.8 0.08,3.598 0.08,5.397 0,7.112 -0.407,14.062 -1.226,20.847 l 14.636,-6.376 c 0.405,-4.743 0.57,-9.567 0.57,-14.471 z M 465.339,86.031 c -2.536,-3.027 -5.069,-6.051 -7.767,-8.912 l -9.892,9.974 c 3.515,3.762 6.867,7.767 9.974,11.855 z M 322.1,16.536 c -1.061,0 -2.124,-0.081 -3.188,-0.081 -1.061,0 -2.125,0.081 -3.107,0.081 l -1.799,13.981 c 1.636,0 3.272,-0.081 4.906,-0.081 1.717,0 3.352,0.081 4.988,0.081 z M 180.419,77.118 c -2.699,2.861 -5.315,5.885 -7.769,8.912 l 7.604,12.917 c 3.188,-4.088 6.54,-8.094 9.974,-11.855 z m -50.037,120.263 c -0.163,2.616 -0.163,5.315 -0.163,7.931 0,4.904 0.163,9.729 0.489,14.47 l 14.717,6.376 c -0.817,-6.785 -1.227,-13.734 -1.227,-20.847 0,-1.8 0,-3.598 0.082,-5.397 z m 353.106,-51.342 12.265,-5.723 -10.628,10.629 c -0.491,-1.635 -1.063,-3.271 -1.637,-4.906 z m -331.358,7.031 -7.195,-7.195 8.339,3.679 c -0.409,1.227 -0.817,2.37 -1.144,3.516 z"
   id="path32" />
	<path
   style="fill:#fab079"
   d="m 500.821,205.313 c 0,-2.208 -0.082,-4.416 -0.164,-6.623 l -13.898,2.535 c 0,1.389 0.082,2.697 0.082,4.088 0,8.094 -0.653,15.944 -1.716,23.709 h 0.899 l 13.898,-6.05 c 0.573,-5.805 0.899,-11.693 0.899,-17.659 z m -10.137,-59.929 c -0.246,-0.736 -0.571,-1.553 -0.817,-2.288 l -12.754,5.967 c 0.898,2.454 1.716,4.906 2.453,7.44 z M 461.497,92.488 c -2.78,-3.598 -5.806,-7.031 -8.83,-10.383 l -9.894,9.893 c 3.926,4.332 7.604,8.749 11.038,13.407 z M 323,23.567 c -1.307,-0.081 -2.697,-0.081 -4.088,-0.081 -1.308,0 -2.696,0 -4.005,0.081 l -1.799,13.981 c 1.962,0 3.844,-0.083 5.804,-0.083 1.964,0 3.925,0.083 5.887,0.083 z M 185.324,82.105 c -3.108,3.352 -6.051,6.786 -8.913,10.383 l 7.686,12.917 c 3.515,-4.659 7.194,-9.075 11.119,-13.407 z m -38.507,64.587 c -0.083,0.328 -0.164,0.572 -0.247,0.819 l 11.118,11.199 c 0.656,-2.126 1.309,-4.168 1.964,-6.295 z m -9.485,51.997 c -0.083,2.207 -0.164,4.415 -0.164,6.623 0,5.967 0.328,11.854 0.9,17.66 l 13.896,6.05 h 0.9 c -1.144,-7.766 -1.716,-15.616 -1.716,-23.709 0,-1.391 0,-2.699 0.082,-4.088 z"
   id="path34" />
	<path
   style="fill:#fab27b"
   d="m 493.789,205.313 c 0,-1.8 0,-3.598 -0.08,-5.397 l -13.899,2.617 c 0,0.9 0,1.88 0,2.78 0,8.094 -0.572,16.023 -1.717,23.709 h 7.931 l 6.54,-2.863 c 0.818,-6.784 1.225,-13.734 1.225,-20.846 z m -8.665,-54.368 c -0.491,-1.635 -1.062,-3.271 -1.636,-4.906 l -12.754,5.968 c 1.144,3.352 2.288,6.703 3.188,10.138 z m -27.47,-51.998 c -3.107,-4.088 -6.459,-8.094 -9.974,-11.855 l -9.811,9.894 c 4.333,4.741 8.339,9.729 12.099,14.961 z M 323.9,30.517 c -1.636,0 -3.271,-0.081 -4.988,-0.081 -1.633,0 -3.27,0.081 -4.906,0.081 l -1.797,14.062 c 2.289,-0.081 4.496,-0.081 6.703,-0.081 2.29,0 4.579,0 6.786,0.081 z M 190.228,87.092 c -3.433,3.762 -6.786,7.767 -9.974,11.855 l 7.767,12.999 c 3.679,-5.232 7.767,-10.219 12.099,-14.961 z m -36.954,62.462 c -0.41,1.227 -0.817,2.371 -1.144,3.516 l 11.28,11.363 c 0.82,-3.107 1.719,-6.131 2.699,-9.155 z m -8.992,50.361 c -0.082,1.8 -0.082,3.598 -0.082,5.397 0,7.112 0.409,14.062 1.227,20.847 l 6.539,2.863 h 7.931 c -1.144,-7.686 -1.716,-15.616 -1.716,-23.709 0,-0.9 0,-1.88 0,-2.78 z"
   id="path36" />
	<path
   style="fill:#fbb67f"
   d="m 486.841,205.313 c 0,-1.391 -0.082,-2.699 -0.082,-4.088 l -13.981,2.533 c 0,0.573 0,1.064 0,1.555 0,8.094 -0.572,16.023 -1.798,23.709 h 14.144 c 1.064,-7.766 1.717,-15.616 1.717,-23.709 z m -7.276,-48.81 c -0.737,-2.535 -1.555,-4.987 -2.453,-7.44 l -12.754,5.97 c 1.471,4.168 2.779,8.502 3.842,12.835 z m -25.754,-51.098 c -3.434,-4.659 -7.112,-9.075 -11.038,-13.407 l -9.808,9.975 c 4.741,5.232 9.073,10.791 13.081,16.596 z M 324.799,37.548 c -1.961,0 -3.923,-0.083 -5.887,-0.083 -1.96,0 -3.842,0.083 -5.804,0.083 l -1.799,14.062 c 2.536,-0.083 5.069,-0.163 7.603,-0.163 2.616,0 5.152,0.08 7.769,0.163 z m -129.583,54.45 c -3.925,4.332 -7.604,8.749 -11.119,13.407 l 7.847,13.163 c 3.924,-5.804 8.34,-11.363 13.082,-16.596 z m -35.564,60.417 c -0.655,2.127 -1.308,4.169 -1.964,6.295 l 11.528,11.529 c 0.9,-4.088 2.044,-8.094 3.354,-12.101 z m -8.422,48.81 c -0.082,1.389 -0.082,2.697 -0.082,4.088 0,8.094 0.572,15.944 1.716,23.709 h 14.144 c -1.225,-7.686 -1.879,-15.616 -1.879,-23.709 0,-0.491 0,-0.981 0.081,-1.555 z M 388.08,67.88 l 0.572,-0.981 -0.164,1.144 c -0.164,-0.081 -0.247,-0.163 -0.408,-0.163 z"
   id="path38" />
	<path
   style="fill:#fbb883"
   d="m 479.81,205.313 c 0,-0.9 0,-1.88 0,-2.78 l -13.981,2.535 c 0,0.081 0,0.163 0,0.245 0,8.094 -0.654,16.023 -1.961,23.709 h 14.225 c 1.144,-7.686 1.717,-15.616 1.717,-23.709 z m -5.888,-43.168 c -0.9,-3.435 -2.044,-6.786 -3.188,-10.138 l -12.754,5.968 c 1.799,5.151 3.271,10.383 4.415,15.697 z m -23.954,-50.198 c -3.76,-5.232 -7.766,-10.219 -12.099,-14.961 l -9.811,9.974 c 5.151,5.723 9.811,11.854 14.062,18.313 z M 325.698,44.579 c -2.207,-0.081 -4.496,-0.081 -6.786,-0.081 -2.207,0 -4.414,0 -6.703,0.081 l -1.799,14.143 c 2.862,-0.163 5.642,-0.245 8.502,-0.245 2.944,0 5.806,0.083 8.667,0.245 z M 200.121,96.986 c -4.332,4.741 -8.42,9.729 -12.099,14.961 l 7.847,13.326 c 4.252,-6.459 8.912,-12.59 14.063,-18.313 z m -34.012,58.292 c -0.98,3.024 -1.878,6.048 -2.699,9.155 l 11.611,11.691 c 1.063,-5.15 2.371,-10.219 3.924,-15.124 z m -7.929,47.254 c 0,0.9 0,1.88 0,2.78 0,8.094 0.572,16.023 1.716,23.709 h 14.145 c -1.227,-7.686 -1.881,-15.616 -1.881,-23.709 0,-0.083 0,-0.164 0,-0.245 z m 226.385,-128.603 4.087,-7.03 -1.309,8.42 c -0.9,-0.49 -1.88,-0.981 -2.778,-1.39 z m -129.423,-0.899 -0.407,-4.005 1.797,3.352 c -0.408,0.245 -0.898,0.408 -1.39,0.653 z"
   id="path40" />
	<path
   style="fill:#fcbc88"
   d="m 472.778,205.313 c 0,-0.491 0,-0.981 0,-1.555 l -13.979,2.616 c -0.083,7.687 -0.738,15.288 -1.964,22.648 h 14.145 c 1.226,-7.686 1.798,-15.616 1.798,-23.709 z M 468.2,167.868 c -1.063,-4.334 -2.371,-8.667 -3.842,-12.835 l -12.754,5.968 c 2.044,6.048 3.679,12.262 4.824,18.64 z m -22.155,-49.3 c -4.007,-5.804 -8.339,-11.363 -13.081,-16.596 l -9.894,9.974 c 5.56,6.214 10.628,12.917 15.042,20.112 z M 388.488,68.043 c -0.164,-0.081 -0.247,-0.163 -0.408,-0.163 l -7.031,12.099 c 1.716,0.817 3.433,1.718 5.149,2.698 z M 326.681,51.61 c -2.616,-0.083 -5.152,-0.163 -7.769,-0.163 -2.534,0 -5.067,0.08 -7.603,0.163 l -1.799,14.145 c 3.108,-0.165 6.215,-0.328 9.402,-0.328 3.188,0 6.379,0.163 9.566,0.328 z m -121.655,50.363 c -4.742,5.232 -9.158,10.791 -13.082,16.596 l 7.931,13.49 c 4.415,-7.195 9.403,-13.898 14.96,-20.112 z m -32.456,56.165 c -1.309,4.007 -2.453,8.012 -3.354,12.101 l 11.855,11.936 c 1.063,-6.296 2.452,-12.346 4.332,-18.313 z m -7.359,45.62 c -0.081,0.573 -0.081,1.064 -0.081,1.555 0,8.094 0.654,16.023 1.879,23.709 h 14.145 c -1.227,-7.359 -1.961,-14.961 -1.961,-22.648 z m 90.83,-123.37 -1.306,-11.363 5.231,9.483 c -1.308,0.573 -2.616,1.226 -3.925,1.88 z"
   id="path42" />
	<path
   style="fill:#fcbe8c"
   d="m 465.829,205.313 c 0,-0.083 0,-0.164 0,-0.245 l -14.06,2.615 c -0.083,7.276 -0.819,14.39 -2.045,21.34 h 14.145 c 1.305,-7.687 1.96,-15.617 1.96,-23.71 z m -3.434,-31.641 c -1.144,-5.313 -2.616,-10.546 -4.415,-15.697 l -12.754,5.967 c 2.289,7.033 4.088,14.309 5.151,21.748 z m -20.275,-48.4 c -4.251,-6.459 -8.911,-12.59 -14.062,-18.313 l -9.891,9.974 c 5.967,6.786 11.363,14.062 15.859,21.91 z M 387.342,75.319 c -0.899,-0.491 -1.879,-0.981 -2.777,-1.391 l -7.033,12.102 c 2.535,1.225 5.068,2.616 7.522,4.006 z M 327.579,58.722 c -2.861,-0.163 -5.723,-0.245 -8.667,-0.245 -2.86,0 -5.64,0.083 -8.502,0.245 l -1.799,14.145 c 3.434,-0.328 6.786,-0.409 10.301,-0.409 3.516,0 7.032,0.081 10.466,0.409 z m -71.046,13.654 c -0.409,0.245 -0.898,0.408 -1.391,0.653 l 1.8,14.798 c 2.126,-1.144 4.251,-2.208 6.458,-3.188 z m -46.601,34.584 c -5.151,5.723 -9.811,11.854 -14.063,18.313 l 8.094,13.571 c 4.499,-7.848 9.813,-15.124 15.862,-21.91 z m -30.986,54.041 c -1.553,4.904 -2.861,9.974 -3.924,15.124 l 12.181,12.265 c 0.982,-7.44 2.536,-14.717 4.662,-21.665 z m -6.787,44.066 c 0,0.081 0,0.163 0,0.245 0,8.094 0.655,16.023 1.881,23.709 h 14.226 c -1.227,-6.95 -1.962,-14.064 -2.125,-21.34 z"
   id="path44" />
	<path
   style="fill:#fcc190"
   d="m 456.428,179.641 c -1.145,-6.378 -2.78,-12.591 -4.824,-18.64 l -12.754,5.967 c 2.615,8.012 4.333,16.351 5.313,25.019 z m -18.315,-47.583 c -4.414,-7.195 -9.482,-13.898 -15.042,-20.112 l -9.812,9.974 c 6.46,7.276 12.018,15.289 16.678,23.955 z M 386.198,82.677 c -1.716,-0.98 -3.434,-1.88 -5.149,-2.698 l -7.031,12.099 c 3.352,1.636 6.622,3.435 9.81,5.396 z m -57.72,-16.922 c -3.187,-0.165 -6.378,-0.328 -9.566,-0.328 -3.187,0 -6.293,0.163 -9.402,0.328 l -1.797,14.225 c 3.679,-0.408 7.521,-0.573 11.199,-0.573 3.843,0 7.605,0.165 11.364,0.573 z m -68.512,12.753 c -1.308,0.574 -2.616,1.227 -3.925,1.88 l 1.881,14.881 c 2.861,-1.635 5.806,-3.107 8.83,-4.496 z m -45.13,33.439 c -5.558,6.214 -10.546,12.917 -14.96,20.112 l 8.176,13.817 c 4.659,-8.666 10.219,-16.678 16.678,-23.955 z m -29.432,51.916 c -1.88,5.967 -3.27,12.016 -4.332,18.313 l 12.509,12.59 c 0.736,-8.666 2.288,-17.086 4.741,-25.18 z m -6.212,42.511 c 0,7.687 0.734,15.288 1.961,22.648 h 14.226 c -1.227,-6.541 -1.961,-13.245 -2.208,-20.031 z m 277.643,22.648 c 1.227,-7.359 1.881,-14.961 1.964,-22.648 l -13.981,2.617 c -0.245,6.786 -0.983,13.49 -2.207,20.031 z"
   id="path46" />
	<path
   style="fill:#fcc493"
   d="m 450.377,185.69 c -1.063,-7.439 -2.861,-14.716 -5.151,-21.748 l -12.754,5.97 c 2.861,9.156 4.577,18.722 5.151,28.534 z m -16.351,-46.846 c -4.496,-7.848 -9.893,-15.124 -15.859,-21.91 l -9.811,9.975 c 6.867,7.847 12.671,16.596 17.332,26.079 z M 385.054,90.036 c -2.454,-1.389 -4.987,-2.78 -7.522,-4.006 l -7.031,12.099 c 4.251,2.044 8.258,4.332 12.182,6.784 z M 329.378,72.867 c -3.434,-0.328 -6.95,-0.409 -10.466,-0.409 -3.515,0 -6.867,0.081 -10.301,0.409 l -1.798,14.142 c 4.005,-0.408 8.094,-0.571 12.099,-0.571 4.171,0 8.259,0.163 12.265,0.571 z M 263.4,84.64 c -2.207,0.98 -4.332,2.044 -6.458,3.188 l 1.88,14.961 c 3.679,-2.125 7.439,-4.168 11.363,-5.885 z m -43.576,32.294 c -6.049,6.786 -11.363,14.062 -15.862,21.91 l 8.257,14.144 c 4.662,-9.483 10.547,-18.232 17.415,-26.079 z m -27.96,49.79 c -2.125,6.948 -3.68,14.225 -4.662,21.665 l 13.001,12.998 c 0.325,-9.974 1.88,-19.703 4.496,-28.94 z m -5.722,40.958 c 0.163,7.276 0.898,14.39 2.125,21.34 h 14.225 c -1.227,-6.05 -1.963,-12.348 -2.288,-18.722 z m 263.581,21.34 c 1.227,-6.95 1.963,-14.064 2.045,-21.34 l -14.062,2.618 c -0.245,6.374 -0.982,12.672 -2.208,18.722 z"
   id="path48" />
	<path
   style="fill:#fdc797"
   d="m 444.164,191.987 c -0.98,-8.667 -2.699,-17.006 -5.313,-25.019 l -12.755,5.969 c 3.107,10.219 4.743,21.093 4.743,32.376 z m -14.226,-46.112 c -4.66,-8.666 -10.219,-16.678 -16.678,-23.955 l -9.892,9.975 c 7.359,8.42 13.49,17.985 17.986,28.37 z m -46.111,-48.4 c -3.188,-1.961 -6.457,-3.76 -9.81,-5.396 l -7.031,12.182 c 5.067,2.371 9.891,5.151 14.553,8.256 z M 330.276,79.979 c -3.76,-0.408 -7.522,-0.573 -11.364,-0.573 -3.679,0 -7.52,0.165 -11.199,0.573 l -1.88,14.225 c 4.332,-0.49 8.747,-0.816 13.079,-0.816 4.498,0 8.913,0.327 13.163,0.816 z m -63.524,10.793 c -3.024,1.389 -5.968,2.861 -8.83,4.496 l 1.799,15.125 c 4.414,-2.78 9.076,-5.234 13.816,-7.358 z M 224.73,121.92 c -6.459,7.276 -12.02,15.289 -16.678,23.955 l 8.503,14.39 c 4.578,-10.385 10.709,-19.949 17.986,-28.37 z m -26.408,47.665 c -2.453,8.094 -4.005,16.514 -4.741,25.18 l 13.571,13.654 c 0,-1.063 0,-2.045 0,-3.107 0,-10.383 1.389,-20.439 4.087,-30.004 z m -5.151,39.406 c 0.247,6.786 0.981,13.49 2.208,20.031 h 14.306 c -1.224,-5.642 -2.042,-11.527 -2.369,-17.496 z m 249.441,20.031 c 1.224,-6.541 1.961,-13.245 2.207,-20.031 l -14.145,2.535 c -0.327,5.968 -1.144,11.854 -2.371,17.496 z"
   id="path50" />
	<path
   style="fill:#fdcb9c"
   d="m 437.623,198.446 c -0.574,-9.812 -2.289,-19.378 -5.151,-28.534 l -12.836,6.05 c 2.78,9.32 4.252,19.131 4.252,29.351 0,2.452 -0.165,4.823 -0.328,7.194 z m -11.936,-45.459 c -4.661,-9.483 -10.465,-18.232 -17.332,-26.079 l -9.894,9.973 c 7.848,9.075 14.144,19.539 18.478,30.904 z m -43.004,-48.073 c -3.924,-2.452 -7.931,-4.74 -12.182,-6.784 l -7.031,12.182 c 5.968,2.779 11.527,6.131 16.842,9.891 z M 331.177,87.009 c -4.005,-0.408 -8.094,-0.571 -12.265,-0.571 -4.005,0 -8.094,0.163 -12.099,0.571 l -1.88,14.309 c 4.578,-0.572 9.32,-0.9 13.979,-0.9 4.824,0 9.486,0.328 14.145,0.9 z m -60.992,9.894 c -3.924,1.718 -7.684,3.76 -11.363,5.885 l 1.88,15.372 c 5.068,-3.516 10.547,-6.459 16.27,-8.994 z m -40.551,30.006 c -6.867,7.847 -12.753,16.596 -17.415,26.079 l 8.832,14.798 c 4.332,-11.365 10.628,-21.829 18.477,-30.904 z M 204.7,172.447 c -2.616,9.238 -4.171,18.966 -4.496,28.94 l 10.791,10.874 -10.791,-1.961 c 0.325,6.374 1.061,12.672 2.288,18.722 h 14.307 c -1.716,-7.605 -2.697,-15.534 -2.697,-23.709 0,-9.403 1.227,-18.478 3.597,-27.143 z m 230.798,56.575 c 1.227,-6.05 1.963,-12.348 2.208,-18.722 l -14.145,2.616 c -0.41,5.477 -1.227,10.872 -2.371,16.106 z"
   id="path52" />
	<path
   style="fill:#fdcda0"
   d="m 430.838,205.313 c 0,-11.283 -1.636,-22.157 -4.743,-32.376 l -12.835,5.968 c 2.371,8.42 3.598,17.25 3.598,26.408 0,8.175 -0.981,16.105 -2.861,23.709 h 14.307 c 1.227,-5.642 2.044,-11.527 2.371,-17.496 l -7.522,1.389 z m -9.485,-45.048 c -4.496,-10.385 -10.627,-19.949 -17.986,-28.37 l -9.81,9.974 c 8.339,9.811 14.715,21.257 18.722,33.764 z m -39.814,-47.748 c -4.662,-3.105 -9.486,-5.885 -14.553,-8.256 l -7.031,12.101 c 6.786,3.188 13.243,7.112 19.13,11.69 z M 332.075,94.204 c -4.25,-0.49 -8.665,-0.816 -13.163,-0.816 -4.332,0 -8.747,0.327 -13.079,0.816 l -1.799,14.307 c 4.904,-0.735 9.893,-1.144 14.878,-1.144 5.152,0 10.139,0.409 15.044,1.144 z m -58.537,8.831 c -4.74,2.124 -9.402,4.578 -13.816,7.358 l 1.881,15.616 c 5.804,-4.252 12.098,-7.848 18.802,-10.71 z m -38.997,28.861 c -7.278,8.42 -13.409,17.985 -17.986,28.37 l 9.157,15.369 c 3.923,-12.507 10.383,-23.953 18.722,-33.764 z m -23.302,43.413 c -2.698,9.564 -4.087,19.621 -4.087,30.004 0,1.062 0,2.044 0,3.107 l 3.843,3.841 -3.679,-0.734 c 0.327,5.968 1.146,11.854 2.369,17.496 h 14.309 c -1.88,-7.605 -2.862,-15.534 -2.862,-23.709 0,-8.34 1.063,-16.516 3.024,-24.281 z"
   id="path54" />
	<path
   style="fill:#fed1a5"
   d="m 423.89,205.313 c 0,-10.219 -1.472,-20.03 -4.252,-29.351 l -10.383,4.905 7.686,-13.082 c -4.335,-11.365 -10.63,-21.829 -18.478,-30.904 l -9.893,9.975 c 13.328,15.861 21.259,36.218 21.259,58.456 0,8.175 -1.064,16.186 -3.108,23.709 h 14.471 c 1.144,-5.234 1.961,-10.629 2.371,-16.106 h -0.41 l 0.41,-0.409 c 0.161,-2.37 0.327,-4.741 0.327,-7.193 z m -43.577,-85.11 c -5.315,-3.76 -10.874,-7.112 -16.842,-9.891 l -7.031,12.181 c 7.766,3.516 14.96,8.094 21.419,13.573 z m -47.256,-18.885 c -4.659,-0.572 -9.32,-0.9 -14.145,-0.9 -4.659,0 -9.402,0.328 -13.979,0.9 l -1.88,14.472 c 5.231,-0.9 10.547,-1.391 15.859,-1.391 5.479,0 10.793,0.491 15.943,1.391 z m -56.084,7.849 c -5.723,2.535 -11.202,5.478 -16.27,8.994 l 1.88,15.859 c 6.459,-5.068 13.571,-9.32 21.257,-12.507 z m -37.445,27.714 c -7.849,9.075 -14.145,19.539 -18.477,30.904 l 9.483,16.108 -12.835,-5.723 c -2.371,8.665 -3.597,17.739 -3.597,27.143 0,8.175 0.981,16.105 2.697,23.709 h 14.472 c -2.044,-7.523 -3.188,-15.534 -3.188,-23.709 0,-22.238 8.013,-42.595 21.256,-58.456 z"
   id="path56" />
	<path
   style="fill:#fed3aa"
   d="m 416.857,205.313 c 0,-9.158 -1.227,-17.987 -3.598,-26.408 l -4.005,1.962 3.025,-5.233 c -4.007,-12.507 -10.383,-23.953 -18.722,-33.764 l -9.893,9.974 c 12.018,14.553 19.213,33.194 19.213,53.469 0,8.256 -1.227,16.186 -3.435,23.709 h 14.553 c 1.88,-7.605 2.862,-15.534 2.862,-23.709 z m -37.771,-77.262 c -5.887,-4.578 -12.345,-8.502 -19.13,-11.69 l -7.114,12.182 c 8.83,3.924 16.841,9.238 23.709,15.778 z m -45.13,-19.539 c -4.904,-0.735 -9.891,-1.144 -15.044,-1.144 -4.985,0 -9.974,0.409 -14.878,1.144 l -1.88,14.553 c 5.478,-1.062 11.118,-1.635 16.758,-1.635 5.806,0 11.446,0.573 16.925,1.635 z m -53.551,6.787 c -6.705,2.861 -12.998,6.458 -18.802,10.71 l 2.042,16.269 c 6.95,-6.131 14.879,-11.119 23.628,-14.634 z m -35.971,26.57 c -8.339,9.811 -14.799,21.257 -18.722,33.764 l 4.823,8.259 -6.378,-2.862 c -1.961,7.766 -3.024,15.941 -3.024,24.281 0,8.175 0.982,16.105 2.862,23.709 h 14.471 c -2.208,-7.523 -3.352,-15.453 -3.352,-23.709 0,-20.275 7.193,-38.917 19.211,-53.469 z"
   id="path58" />
	<path
   style="fill:#fed5ac"
   d="m 409.828,205.313 c 0,-22.238 -7.931,-42.595 -21.259,-58.456 l -9.892,10.056 c 10.792,13.162 17.169,30.087 17.169,48.4 0,8.256 -1.308,16.269 -3.679,23.709 h 14.553 c 2.043,-7.523 3.108,-15.534 3.108,-23.709 z M 377.859,136.065 C 371.4,130.586 364.205,126.008 356.44,122.492 l -7.112,12.101 c 9.891,4.251 18.64,10.546 25.835,18.232 z M 334.855,115.79 c -5.151,-0.9 -10.464,-1.391 -15.943,-1.391 -5.313,0 -10.628,0.491 -15.859,1.391 l -1.88,14.715 c 5.723,-1.389 11.69,-2.126 17.74,-2.126 6.134,0 12.183,0.736 17.906,2.126 z m -51.015,5.722 c -7.686,3.187 -14.798,7.439 -21.257,12.507 l 2.044,16.842 c 7.358,-7.358 16.188,-13.162 25.999,-17.088 z m -34.502,25.344 c -13.243,15.861 -21.256,36.218 -21.256,58.456 0,8.175 1.144,16.186 3.188,23.709 h 14.551 c -2.452,-7.44 -3.759,-15.453 -3.759,-23.709 0,-18.313 6.457,-35.238 17.169,-48.4 z"
   id="path60" />
	<path
   style="fill:#fed9b2"
   d="m 402.878,205.313 c 0,-20.275 -7.195,-38.917 -19.213,-53.469 l -9.892,10.056 2.778,-17.578 c -6.868,-6.54 -14.879,-11.854 -23.709,-15.778 l -7.031,12.18 c 25.263,10.547 43.087,35.483 43.087,64.589 0,8.339 -1.472,16.35 -4.171,23.709 h 14.717 c 2.207,-7.523 3.434,-15.453 3.434,-23.709 z m -67.041,-82.249 c -5.479,-1.062 -11.119,-1.635 -16.925,-1.635 -5.64,0 -11.281,0.573 -16.758,1.635 l -1.964,14.881 c 6.051,-1.636 12.346,-2.535 18.722,-2.535 6.542,0 12.836,0.899 18.805,2.535 z m -48.564,4.579 c -8.749,3.515 -16.678,8.503 -23.628,14.634 l 2.126,17.741 c 7.523,-8.911 17.25,-15.861 28.29,-20.029 z m -32.948,24.2 c -12.018,14.553 -19.211,33.194 -19.211,53.469 0,8.256 1.144,16.186 3.352,23.709 h 14.715 c -2.618,-7.359 -4.088,-15.37 -4.088,-23.709 0,-16.433 5.643,-31.478 15.125,-43.413 z"
   id="path62" />
	<path
   style="fill:#fedbb6"
   d="m 395.845,205.313 c 0,-18.313 -6.377,-35.238 -17.169,-48.4 l -4.904,4.987 1.389,-9.075 c -7.195,-7.686 -15.943,-13.981 -25.835,-18.232 l -7.033,12.263 c 23.22,9.238 39.572,31.967 39.572,58.456 0,8.42 -1.636,16.433 -4.579,23.709 h 14.879 c 2.372,-7.44 3.68,-15.452 3.68,-23.708 z m -59.027,-74.808 c -5.723,-1.389 -11.772,-2.126 -17.906,-2.126 -6.05,0 -12.017,0.736 -17.74,2.126 l -1.962,15.044 c 6.296,-2.044 12.918,-3.188 19.702,-3.188 6.95,0 13.573,1.144 19.785,3.188 z m -46.193,3.269 c -9.811,3.926 -18.641,9.73 -25.999,17.088 l 1.635,13.081 -7.029,-7.029 c -10.711,13.162 -17.169,30.087 -17.169,48.4 0,8.256 1.307,16.269 3.759,23.709 h 14.881 c -2.943,-7.276 -4.662,-15.289 -4.662,-23.709 0,-27.225 17.334,-50.362 41.451,-59.192 z"
   id="path64" />
	<path
   style="fill:#ffdfbb"
   d="m 388.897,205.313 c 0,-29.105 -17.824,-54.041 -43.087,-64.589 l -6.295,10.874 -1.799,-13.653 c -5.968,-1.636 -12.263,-2.535 -18.805,-2.535 -6.376,0 -12.671,0.899 -18.722,2.535 l -1.307,10.627 -4.823,-8.583 c -11.039,4.168 -20.766,11.118 -28.29,20.029 l 0.491,3.924 -2.044,-2.043 c -9.482,11.935 -15.125,26.98 -15.125,43.413 0,8.339 1.471,16.35 4.088,23.709 h 15.125 c -3.351,-7.195 -5.233,-15.208 -5.233,-23.709 0,-30.904 25.019,-55.921 55.839,-55.921 30.906,0 56.004,25.017 56.004,55.921 0,8.502 -1.88,16.514 -5.314,23.709 h 15.124 c 2.701,-7.358 4.173,-15.369 4.173,-23.708 z"
   id="path66" />
	<path
   style="fill:#ffe1c0"
   d="m 381.866,205.313 c 0,-26.489 -16.352,-49.219 -39.572,-58.456 l -2.779,4.742 -0.818,-6.05 c -6.212,-2.044 -12.836,-3.188 -19.785,-3.188 -6.784,0 -13.406,1.144 -19.702,3.188 l -0.327,3.024 -1.391,-2.452 c -24.117,8.83 -41.451,31.967 -41.451,59.192 0,8.42 1.719,16.433 4.662,23.709 h 15.451 c -3.843,-7.031 -6.051,-15.125 -6.051,-23.709 0,-27.061 21.912,-48.973 48.809,-48.973 27.063,0 48.973,21.912 48.973,48.973 0,8.584 -2.208,16.678 -6.131,23.709 h 15.533 c 2.943,-7.276 4.579,-15.289 4.579,-23.709 z"
   id="path68" />
	<path
   style="fill:#ffe5c5"
   d="m 374.916,205.313 c 0,-30.904 -25.098,-55.921 -56.004,-55.921 -30.82,0 -55.839,25.017 -55.839,55.921 0,8.502 1.881,16.514 5.233,23.709 h 16.106 c -4.66,-6.705 -7.359,-14.879 -7.359,-23.709 0,-23.137 18.805,-41.942 41.859,-41.942 23.22,0 42.023,18.805 42.023,41.942 0,8.83 -2.779,17.005 -7.358,23.709 h 16.025 c 3.434,-7.195 5.314,-15.208 5.314,-23.709 z"
   id="path70" />
	<path
   style="fill:#ffe7c8"
   d="m 367.885,205.313 c 0,-27.061 -21.911,-48.973 -48.973,-48.973 -26.897,0 -48.809,21.912 -48.809,48.973 0,8.584 2.208,16.678 6.051,23.709 h 17.169 c -5.723,-6.215 -9.238,-14.554 -9.238,-23.709 0,-19.296 15.615,-34.992 34.827,-34.992 19.378,0 34.992,15.697 34.992,34.992 0,9.155 -3.516,17.494 -9.239,23.709 h 17.089 c 3.923,-7.031 6.131,-15.125 6.131,-23.709 z"
   id="path72" />
	<path
   style="fill:#ffeacc"
   d="m 360.935,205.313 c 0,-23.137 -18.804,-41.942 -42.023,-41.942 -23.055,0 -41.859,18.805 -41.859,41.942 0,8.83 2.699,17.005 7.359,23.709 h 19.785 c -7.93,-4.906 -13.164,-13.734 -13.164,-23.709 0,-15.453 12.509,-27.962 27.879,-27.962 15.453,0 28.044,12.509 28.044,27.962 0,9.976 -5.315,18.804 -13.163,23.709 h 19.785 c 4.579,-6.705 7.357,-14.879 7.357,-23.709 z"
   id="path74" />
	<path
   style="fill:#ffeed2"
   d="m 353.904,205.313 c 0,-19.296 -15.614,-34.992 -34.992,-34.992 -19.212,0 -34.827,15.697 -34.827,34.992 0,9.155 3.515,17.494 9.238,23.709 h 51.343 c 5.722,-6.215 9.238,-14.554 9.238,-23.709 z m -13.98,0 c 0,11.609 -9.402,21.011 -21.012,21.011 -11.446,0 -20.848,-9.402 -20.848,-21.011 0,-11.61 9.402,-21.012 20.848,-21.012 11.61,0 21.012,9.402 21.012,21.012 z"
   id="path76" />
	<path
   style="fill:#fff0d7"
   d="m 346.956,205.313 c 0,-15.453 -12.591,-27.962 -28.044,-27.962 -15.37,0 -27.879,12.509 -27.879,27.962 0,9.976 5.234,18.804 13.164,23.709 h 29.596 c 7.848,-4.906 13.163,-13.734 13.163,-23.709 z m -14.062,0 c 0,7.766 -6.213,13.979 -13.982,13.979 -7.603,0 -13.898,-6.214 -13.898,-13.979 0,-7.686 6.295,-13.98 13.898,-13.98 7.769,-0.001 13.982,6.294 13.982,13.98 z"
   id="path78" />
	<path
   style="fill:#fff4dc"
   d="m 339.924,205.313 c 0,-11.61 -9.402,-21.012 -21.012,-21.012 -11.446,0 -20.848,9.402 -20.848,21.012 0,11.609 9.402,21.011 20.848,21.011 11.61,-0.001 21.012,-9.403 21.012,-21.011 z"
   id="path80" />
	<path
   style="fill:#fff7e1"
   d="m 332.894,205.313 c 0,-7.686 -6.213,-13.98 -13.982,-13.98 -7.603,0 -13.898,6.295 -13.898,13.98 0,7.766 6.295,13.979 13.898,13.979 7.769,0 13.982,-6.214 13.982,-13.979 z"
   id="path82" />
	<path
   style="fill:#fffde9"
   d="m 325.944,205.313 c 0,-3.843 -3.107,-6.95 -7.032,-6.95 -3.76,0 -6.867,3.107 -6.867,6.95 0,3.843 3.107,7.03 6.867,7.03 3.925,-10e-4 7.032,-3.188 7.032,-7.03 z"
   id="path84" />
</g><path
     style="fill:#2e3192"
     d="m 317.032,191.823 v -8.095 c 0.491,-0.08 0.9,-0.244 1.227,-0.572 0.409,-0.327 0.653,-0.898 0.653,-1.635 -0.081,-0.653 -0.244,-1.227 -0.735,-1.635 -0.245,-0.245 -0.655,-0.409 -1.146,-0.49 v -5.887 h 0.247 c 3.024,-0.082 5.314,0.573 6.867,1.8 1.635,1.307 2.454,3.187 2.454,5.64 0.082,1.635 -0.328,2.944 -1.064,4.005 -0.817,1.063 -1.88,1.718 -3.189,1.88 l 6.214,9.158 -9.158,0.163 z m 24.201,6.54 4.005,-14.798 -4.417,-1.144 1.882,-7.195 16.678,4.496 -1.88,7.195 -4.415,-1.227 -3.925,14.798 z m 22.565,7.686 11.037,-19.868 7.194,3.924 -3.679,6.623 4.334,2.452 3.679,-6.623 7.112,3.926 -10.956,19.866 -7.192,-3.924 3.923,-7.031 -4.414,-2.372 -3.843,6.95 z M 254.653,190.187 c 1.144,-0.408 2.208,-0.491 3.188,-0.327 2.043,0.245 3.843,1.636 5.395,4.088 1.391,2.289 1.8,4.25 1.31,6.132 -0.572,1.797 -2.208,3.515 -4.824,5.149 l -2.125,1.308 3.515,5.723 -6.458,4.007 v -14.88 l 0.899,-0.491 c 0.654,-0.408 1.063,-0.899 1.227,-1.39 0.164,-0.491 0.082,-0.982 -0.246,-1.472 -0.247,-0.57 -0.736,-0.816 -1.226,-0.898 -0.245,0 -0.408,0 -0.653,0 v -6.949 z m 62.379,-16.679 v 5.887 c -0.245,0 -0.408,-0.082 -0.653,-0.082 l -1.145,0.082 0.082,4.415 h 1.144 c 0.245,0 0.409,0 0.572,-0.083 v 8.095 l -1.634,-3.107 v 7.521 l -7.849,0.163 -0.409,-22.728 z m -35.644,28.698 -5.887,-21.912 14.717,-3.924 1.552,5.968 -6.948,1.8 0.572,2.125 6.295,-1.717 1.552,5.64 -6.294,1.717 0.572,2.289 7.112,-1.88 1.636,5.967 z m -27.227,14.389 -12.018,-19.296 8.258,-5.149 c 1.554,-0.981 2.944,-1.635 4.252,-1.963 v 6.95 c -0.328,0.083 -0.737,0.245 -1.144,0.491 l -1.064,0.736 2.044,3.19 0.164,-0.165 v 14.88 z"
     id="path88" /><rect
     x="16.740999"
     y="220.60001"
     style="fill:#2e3192"
     width="602.87402"
     height="168.5"
     id="rect90" /><g
     id="g94">
	<path
   style="fill:none;stroke:#f58220;stroke-width:17.2278"
   d="m 16.741,229.186 h 602.874 m -10e-4,151.33 H 16.741"
   id="path92" />
</g><path
     style="fill:#2e3192"
     d="m 318.177,208.174 c 53.223,0 96.718,43.33 96.718,96.635 0,53.224 -43.496,96.718 -96.718,96.718 -53.223,0 -96.637,-43.494 -96.637,-96.718 0,-53.305 43.415,-96.635 96.637,-96.635 z"
     id="path96" /><g
     id="g100">
	<path
   style="fill:#ffffff"
   d="m 318.177,385.094 c 44.23,0 80.284,-36.054 80.284,-80.284 0,-44.23 -36.054,-80.203 -80.284,-80.203 -44.149,0 -80.285,35.973 -80.285,80.203 0,44.23 36.136,80.284 80.285,80.284 z"
   id="path98" />
</g><g
     id="g104">
	<path
   style="fill:#2e3192"
   d="m 318.177,385.094 c 8.094,0 15.942,-1.227 23.301,-3.432 l 5.478,-14.389 -28.779,-14.309 -28.779,14.309 5.561,14.389 c 7.357,2.205 15.206,3.432 23.218,3.432 z m 72.191,-45.211 c 5.151,-10.629 8.094,-22.483 8.094,-35.074 0,-0.245 0,-0.408 0,-0.653 l -14.717,-10.302 -17.414,20.766 5.069,30.497 z m -11.854,-87.97 c -7.441,-8.503 -16.68,-15.453 -27.144,-20.194 l -20.602,8.502 13.818,27.063 29.513,3.598 z m -93.529,-20.194 c -10.384,4.742 -19.624,11.691 -27.144,20.194 l 4.415,18.968 29.596,-3.598 13.817,-27.063 z m -47.012,72.437 c 0,0.246 -0.081,0.408 -0.081,0.653 0,12.591 2.944,24.445 8.175,35.074 l 18.969,5.234 4.987,-30.497 -17.333,-20.766 z m 80.204,28.368 29.923,-22.074 -13.326,-32.211 h -33.113 l -13.324,32.211 z"
   id="path102" />
</g><g
     id="g108">
	<path
   style="fill:none;stroke:#2e3192;stroke-width:16.1252;stroke-linecap:square"
   d="m 251.463,296.714 12.265,-29.349 m 37.607,-27.061 h 33.358 m -32.294,38.835 -11.691,-13.246 m 0.735,103.177 -28.614,-25.918 m 5.314,-28.042 22.32,-5.068 m 94.182,-13.817 -11.446,-27.55 m -39.814,11.116 11.691,-13.081 m -26.899,87.317 v -22.809 m 27.224,37.361 27.879,-25.263 m -5.968,-28.45 -20.601,-4.66"
   id="path106" />
</g><path
     style="fill:#ffffff;stroke:#f58220;stroke-width:8.6139"
     d="m 190.392,242.103 0.082,19.784 h -13.898 v 85.602 h 13.816 v -15.617 l 30.904,0.081 v 35.402 h -87.235 v -19.866 h 10.384 l -0.083,-85.602 H 134.06 V 242.103 Z M 87.377,279.955 v -13.081 c -0.08,-3.352 -1.55,-4.988 -4.496,-4.988 H 69.474 c -3.762,0 -4.987,1.636 -4.742,5.152 L 64.65,340.21 c 0,4.742 2.372,7.278 7.032,7.278 h 15.695 l -0.08,-28.207 H 76.341 v -15.944 l 43.168,-0.081 v 64.098 H 49.608 c -13.409,0 -17.251,-9.403 -17.251,-19.866 l 0.083,-85.602 c 0,-12.426 5.149,-19.784 19.702,-19.784 h 48.073 c 12.999,0 19.213,7.767 19.294,19.784 l 0.081,18.069 z m 445.411,87.399 -0.081,-19.866 h 13.652 l 0.081,-25.264 -25.344,-22.974 0.081,-37.363 h -6.867 l -0.083,-19.784 h 39.245 l 0.08,50.853 11.038,8.83 11.119,-8.83 0.082,-50.853 h 39.243 l -0.082,19.784 h -6.868 l 0.083,37.363 -25.345,22.974 0.082,25.264 h 13.653 l -0.081,19.866 z M 405.411,242.103 h 79.795 c 12.508,0 16.759,8.748 16.759,19.784 l -0.083,41.781 -7.849,6.947 7.931,5.07 -0.083,31.804 h 12.346 l 0.083,19.866 h -44.885 v -46.602 l -18.804,0.083 v 46.52 H 405.41 l 0.083,-19.866 h 12.673 l 0.081,-85.602 H 405.41 v -19.785 z m 45.131,19.783 v 39.245 h 13.816 c 3.598,0 5.15,-2.452 5.15,-5.56 l -0.081,-28.123 c 0,-3.435 -1.962,-5.561 -4.823,-5.561 h -14.062 z"
     id="path110" /><circle
     transform="matrix(0.1487,-0.9889,0.9889,0.1487,-30.6055,574.1687)"
     style="fill:none;stroke:#f58220;stroke-width:17.2278"
     cx="318.177"
     cy="304.85999"
     id="ellipse112"
     r="88.027" /><circle
     transform="matrix(0.9403,-0.3404,0.3404,0.9403,-84.7777,126.5238)"
     style="fill:none;stroke:#2e3192;stroke-width:16.1252;stroke-linecap:square"
     cx="318.177"
     cy="304.86099"
     id="ellipse114"
     r="80.985001" /></g>
</svg>
