<svg height="1000" viewBox="0 0 1000 1000" width="1000" xmlns="http://www.w3.org/2000/svg" xmlns:xlink="http://www.w3.org/1999/xlink"><defs><clipPath id="a"><use height="100%" width="100%" xlink:href="#b"/></clipPath><path id="b" d="M 3220.1909 3999.5701 H 3625.9799 V 4390.02811 H 3220.1909 Z"/></defs><g transform="matrix(20.708479 0 0 20.708479 -5774.2068 -5757.9526)"><g transform="translate(-104.53338 -431.38854)"><g transform="matrix(.7536746 0 0 .7536746 45.749234 211.03642)"><g transform="matrix(0 .15 .15 0 -151.97412 178.26496)"><g><g clip-path="url(#a)"><path d="m 4878.804 4052.534 l -13.147 11.009 c 16.421 19.562 32.834 39.33 49.255 59.319 l 26.477 -21.73 c -16.499 -20.079 -32.973 -39.982 -49.428 -59.621 l -26.303 22.032 l 13.146 -11.009 l -13.147 11.009 c 16.377 19.562 32.834 39.369 49.255 59.358 l 26.477 -21.73 c -16.499 -20.157 -33.007 -40.021 -49.428 -59.66 l -26.303 22.032 z m 58.239 70.367 l -13.295 10.841 c 5.624 6.841 11.282 13.899 16.992 20.908 l 8.656 10.712 l 12.507 -6.31 l 19.021 -9.58 l -13.441 -16.507 c -5.805 -7.183 -11.558 -14.02 -17.164 -20.861 l -26.572 21.639 l 13.296 -10.842 l -13.295 10.802 c 5.796 7.191 11.541 14.028 17.165 20.861 l 13.285 -10.802 l -7.706 -15.282 l -.181 .083 l 7.714 15.289 l 13.269 -10.802 c -5.615 -6.928 -11.273 -13.976 -16.974 -20.986 l -26.572 21.639 z m -313.567 -356.448 l 12.37 -11.851 c -12.534 -13.109 -25.085 -25.91 -37.577 -38.669 l -24.48 23.963 c 12.508 12.75 24.947 25.47 37.317 38.397 l 24.74 -23.69 l -12.37 11.85 l 12.37 -11.851 c -12.534 -13.109 -25.085 -25.91 -37.577 -38.669 l -24.48 23.963 c 12.508 12.75 24.947 25.47 37.317 38.397 l 24.74 -23.69 z m 60.233 63.97 l 12.586 -11.622 c -12.94 -14.029 -25.915 -27.789 -38.846 -41.468 l -24.905 23.522 c 12.923 13.679 25.811 27.349 38.579 41.196 l 25.171 -23.25 l -12.585 11.622 l 12.586 -11.622 c -12.94 -14.029 -25.915 -27.789 -38.846 -41.468 l -24.905 23.522 c 12.923 13.679 25.811 27.349 38.579 41.196 l 25.171 -23.25 z m 60.312 66.291 l 12.767 -11.458 c -13.501 -15.074 -27.046 -30.014 -40.547 -44.773 l -25.267 23.129 c 13.424 14.72 26.874 29.573 40.298 44.551 l 25.517 -22.908 l -12.768 11.459 l 12.767 -11.458 c -13.501 -15.074 -27.046 -30.014 -40.547 -44.773 l -25.267 23.129 c 13.424 14.72 26.874 29.573 40.298 44.551 l 25.517 -22.908 z m 60.632 68.798 l 12.923 -11.229 c -14.202 -16.378 -28.351 -32.579 -42.621 -48.612 l -25.665 22.74 c 14.158 15.98 28.273 32.052 42.422 48.339 l 25.863 -22.468 l -12.922 11.23 l 12.923 -11.229 c -14.236 -16.378 -28.351 -32.54 -42.586 -48.612 l -25.655 22.74 c 14.115 15.941 28.177 32.052 42.379 48.339 l 25.863 -22.468 z m 61.176 71.603 l 13.113 -11.022 c -15.151 -18.027 -30.311 -35.801 -45.419 -53.388 l -26.045 22.286 c 15.108 17.601 30.182 35.283 45.239 53.142 l 26.225 -22.041 l -13.113 11.023 l 13.113 -11.022 c -15.151 -18.027 -30.311 -35.801 -45.419 -53.388 l -26.045 22.286 c 15.108 17.601 30.182 35.283 45.239 53.142 l 26.225 -22.041 z m -339.206 -368.52 l -11.973 12.279 c 12.284 11.938 24.429 23.91 36.54 36.061 l 24.3 -24.123 c -12.275 -12.417 -24.611 -24.481 -36.894 -36.501 l -23.946 24.563 l 11.973 -12.279 l -11.973 12.279 c 12.284 11.938 24.429 23.91 36.54 36.061 l 24.3 -24.123 c -12.275 -12.417 -24.611 -24.481 -36.894 -36.501 l -23.946 24.563 z m -59.88 -57.483 l -11.748 12.452 c 12.094 11.411 24.204 22.74 36.133 34.229 l 23.781 -24.649 c -12.188 -11.752 -24.394 -23.159 -36.41 -34.492 l -23.504 24.913 l 11.748 -12.453 l -11.748 12.452 c 12.094 11.411 24.204 22.74 36.133 34.229 l 23.781 -24.649 c -12.188 -11.752 -24.394 -23.159 -36.41 -34.492 l -23.504 24.913 z M 3249.5 2943.191 l 3.52 -16.767 c -7.359 -1.559 -14.629 -2.872 -21.418 -4.271 l -6.971 33.542 c 7.45 1.567 14.63 2.829 21.25 4.267 l 7.139 -33.538 l -3.52 16.767 l 3.611 -16.767 c -7.49 -1.611 -14.763 -2.872 -21.51 -4.271 l -6.971 33.542 c 7.399 1.567 14.591 2.868 21.341 4.267 l 7.14 -33.538 z m 78.56 18.072 l 4.09 -16.629 c -8.97 -2.229 -17.812 -4.142 -26.338 -6.141 l -7.843 33.36 c 8.88 2.091 17.63 4 26 6.051 l 8.18 -33.27 l -4.089 16.629 l 4.09 -16.629 c -8.97 -2.229 -17.812 -4.142 -26.338 -6.141 l -7.843 33.36 c 8.88 2.091 17.63 4 26 6.051 l 8.18 -33.27 z m 76.859 20.472 l 4.66 -16.503 c -9.527 -2.7 -19.159 -5.23 -28.648 -7.749 l -8.803 33.089 c 9.503 2.531 18.952 5.053 28.131 7.671 l 9.321 -33.01 l -4.661 16.502 l 4.66 -16.503 c -9.527 -2.7 -19.159 -5.23 -28.648 -7.749 l -8.803 33.089 c 9.503 2.531 18.952 5.053 28.131 7.671 l 9.321 -33.01 z m 75.356 22.818 l 5.218 -16.331 c -9.934 -3.179 -19.868 -6.18 -29.699 -9.191 l -10.02 32.751 c 9.882 3.049 19.635 5.969 29.232 9.062 l 10.487 -32.622 l -5.218 16.331 l 5.269 -16.292 c -10.02 -3.256 -19.954 -6.267 -29.75 -9.229 l -10.02 32.751 c 9.848 3.01 19.592 6.012 29.266 9.1 l 10.504 -32.622 z m 73.805 25.128 l 5.788 -16.118 c -10.055 -3.611 -20.214 -7.14 -30.303 -10.577 l -11.066 32.406 c 10.02 3.443 19.998 6.872 29.793 10.401 l 11.575 -32.229 l -5.787 16.117 l 5.788 -16.118 c -10.055 -3.611 -20.214 -7.14 -30.303 -10.577 l -11.066 32.406 c 10.02 3.443 19.998 6.872 29.793 10.401 l 11.575 -32.229 z m 72.423 27.444 l 6.357 -15.942 c -10.193 -4.008 -20.386 -7.969 -30.614 -11.851 l -12.111 32.061 c 10.064 3.779 20.085 7.662 30.009 11.662 l 12.716 -31.872 l -6.357 15.942 l 6.357 -15.942 c -10.193 -4.008 -20.386 -7.969 -30.614 -11.851 l -12.111 32.061 c 10.064 3.779 20.085 7.662 30.009 11.662 l 12.716 -31.872 z m 71.075 29.737 l 6.833 -15.718 c -10.098 -4.401 -20.256 -8.802 -30.484 -13.113 l -13.321 31.62 c 10.056 4.22 20.024 8.531 30.131 12.931 l 13.674 -31.439 l -6.833 15.719 l 6.833 -15.718 c -10.098 -4.401 -20.256 -8.802 -30.484 -13.113 l -13.321 31.62 c 10.056 4.22 20.024 8.531 30.131 12.931 l 13.674 -31.439 z m 69.676 31.962 l 7.412 -15.45 c -10.02 -4.803 -20.127 -9.593 -30.355 -14.292 l -14.287 31.18 c 9.969 4.531 19.903 9.229 29.828 14.019 l 14.815 -30.907 l -7.413 15.45 l 7.412 -15.45 c -10.02 -4.803 -20.127 -9.593 -30.355 -14.292 l -14.287 31.18 c 9.969 4.531 19.903 9.229 29.828 14.019 l 14.815 -30.907 z m -598.012 -191.312 l 2.778 -16.887 l -9.529 -1.573 l -5.58 33.789 l 9.541 1.572 l 5.567 -33.788 l -2.777 16.887 l 2.778 -16.887 l -9.529 -1.573 l -5.58 33.789 l 9.541 1.572 l 5.567 -33.788 z m 666.556 225.54 l 7.93 -15.19 c -9.977 -5.187 -19.989 -10.37 -30.053 -15.458 l -15.411 30.648 c 9.882 4.932 19.73 10.02 29.612 15.199 l 15.851 -30.39 l -7.929 15.191 l 7.93 -15.19 c -9.977 -5.187 -19.989 -10.37 -30.053 -15.458 l -15.411 30.648 c 9.882 4.932 19.73 10.02 29.612 15.199 l 15.851 -30.39 z m 545.685 380.191 l 11.316 -12.85 c -12.5 -11.009 -25.033 -21.682 -37.404 -32.268 l -22.304 26.048 c 12.456 10.668 24.818 21.159 37.058 31.918 l 22.649 -25.699 l -11.315 12.851 l 11.316 -12.85 c -12.5 -11.009 -25.033 -21.682 -37.404 -32.268 l -22.304 26.048 c 12.456 10.668 24.818 21.159 37.058 31.918 l 22.649 -25.699 z m 60.969 55.051 l 11.627 -12.59 c -12.197 -11.282 -24.446 -22.162 -36.505 -33.051 l -22.908 25.518 c 12.154 10.892 24.213 21.682 36.16 32.7 l 23.254 -25.167 l -11.628 12.59 l 11.627 -12.59 c -12.197 -11.282 -24.446 -22.162 -36.505 -33.051 l -22.908 25.518 c 12.154 10.892 24.213 21.682 36.16 32.7 l 23.254 -25.167 z m -122.42 -107.922 l 11.022 -13.108 c -14.124 -11.839 -28.273 -23.302 -42.38 -34.713 l -21.509 26.661 c 14.106 11.412 28.083 22.689 41.844 34.268 l 22.045 -26.216 l -11.022 13.108 l 11.022 -13.108 c -14.124 -11.839 -28.273 -23.302 -42.38 -34.713 l -21.509 26.661 c 14.106 11.412 28.083 22.689 41.844 34.268 l 22.045 -26.216 z m -85.191 -68.76 l 10.539 -13.55 c -12.543 -9.709 -25.128 -19.729 -38.025 -29.391 l -20.628 27.353 c 12.457 9.36 24.947 19.237 37.585 29.089 l 21.068 -27.051 l -10.539 13.55 l 10.539 -13.55 c -12.543 -9.709 -25.128 -19.729 -38.025 -29.391 l -20.628 27.353 c 12.457 9.36 24.947 19.237 37.585 29.089 l 21.068 -27.051 z m -70.194 -53.13 l 10.106 -13.851 c -10.021 -7.316 -20.213 -14.94 -30.666 -22.39 l -19.859 27.961 c 10.02 7.1 20.032 14.629 30.312 22.131 l 20.213 -27.703 l -10.106 13.852 l 10.106 -13.851 c -10.021 -7.316 -20.213 -14.94 -30.666 -22.39 l -19.859 27.961 c 10.02 7.1 20.032 14.629 30.312 22.131 l 20.213 -27.703 z m -261.393 -168.928 l 8.405 -14.94 c -9.831 -5.528 -19.756 -11.152 -29.871 -16.629 l -16.378 30.131 c 9.761 5.308 19.6 10.849 29.448 16.377 l 16.801 -29.879 l -8.405 14.94 l 8.405 -14.94 c -9.831 -5.528 -19.756 -11.152 -29.871 -16.629 l -16.378 30.131 c 9.761 5.308 19.6 10.849 29.448 16.377 l 16.801 -29.879 z m 66.506 38.707 l 8.803 -14.707 c -9.762 -5.839 -19.652 -11.904 -29.837 -17.82 l -17.242 29.62 c 9.761 5.658 19.471 11.627 29.473 17.626 l 17.605 -29.426 l -8.802 14.707 l 8.803 -14.707 c -9.762 -5.839 -19.652 -11.904 -29.837 -17.82 l -17.242 29.62 c 9.761 5.658 19.471 11.627 29.473 17.626 l 17.605 -29.426 z m 65.46 40.98 l 9.321 -14.37 c -9.709 -6.31 -19.6 -12.797 -29.715 -19.159 l -18.193 29.089 c 9.666 6.012 19.376 12.413 29.266 18.823 l 18.641 -28.752 l -9.32 14.369 l 9.321 -14.37 c -9.709 -6.31 -19.6 -12.797 -29.715 -19.159 l -18.193 29.089 c 9.666 6.012 19.376 12.413 29.266 18.823 l 18.641 -28.752 z m 64.676 43.213 l 9.743 -14.072 c -9.743 -6.751 -19.6 -13.718 -29.785 -20.469 l -18.995 28.481 c 9.666 6.487 19.427 13.276 29.274 20.118 l 19.505 -28.131 l -9.742 14.073 l 9.743 -14.072 c -9.743 -6.751 -19.6 -13.718 -29.785 -20.469 l -18.995 28.481 c 9.666 6.487 19.427 13.276 29.274 20.118 l 19.505 -28.131 z m -973.205 2307.24 l -2.881 -16.887 c -131.729 22.502 -214.608 23.426 -226.887 23.426 h -1.65 l -.181 17.113 l 15.989 -6.237 c -19.341 -49.635 -37.369 -98.104 -54.14 -145.451 l -4.31 -12.059 l -12.798 .692 c -33.802 1.874 -67.991 3.352 -102.653 4.137 l .402 17.122 l 16.149 -5.71 c -146.889 -415.844 -221.359 -853.915 -221.359 -1302.256 c 0 -448.169 74.47 -886.231 221.359 -1302.08 l -16.149 -5.71 l -.363 17.121 c 34.151 .739 67.862 2.168 101.214 4.047 l 12.759 .691 l 4.311 -12.011 c 16.636 -46.297 33.926 -92.156 52.347 -137.447 l -15.889 -6.44 l -.311 17.108 c 631.644 11.45 1181.71 369.081 1573.747 725.231 c 196.018 177.99 352.405 355.359 459.666 488.15 c 53.652 66.359 95.064 121.626 122.982 160.209 c 13.977 19.341 24.567 34.45 31.65 44.768 c 7.144 10.275 10.634 15.596 10.677 15.639 l 14.288 -9.45 l -14.331 -9.407 c -.043 .048 -18.468 28.126 -43.372 65.02 c -24.913 36.842 -56.227 82.435 -81.614 116.97 l 13.803 10.15 l -5.304 -16.292 c -56.183 18.382 -113.506 32.886 -171.417 44.159 l -5.795 1.131 l -3.87 4.44 c -24.87 28.696 -49.783 56.754 -74.695 84.361 l -30.613 33.931 l 45.384 -5.407 c 60.097 -7.187 119.882 -18.209 178.76 -33.922 l -4.439 -16.551 l -13.536 -10.495 c -70.03 90.546 -141.148 174.025 -212.829 251.009 l 12.534 11.68 l -.863 -17.113 c -23.634 1.218 -47.286 1.822 -70.937 1.822 c -32.576 0 -65.15 -1.123 -97.595 -3.256 l -7.62 -.493 l -5.494 5.321 c -22.649 22.122 -45.376 43.899 -68.155 65.115 l -26.347 24.507 l 35.668 5.01 c 55.656 7.749 111.838 12.068 168.315 12.284 l .095 -17.112 l -12.188 -12.059 c -70.902 71.681 -141.806 137.218 -212.708 197.271 l 11.066 13.069 l 3.083 -16.861 c -51.207 -9.364 -101.81 -21.682 -151.635 -36.402 l -8.535 -2.531 l -6.962 5.529 c -21.509 16.991 -43.157 33.672 -64.89 49.955 l -25.043 18.77 l 29.31 10.98 c 48.512 18.252 98.164 33.793 148.81 46.068 l 4.051 -16.629 l -10.711 -13.372 c -75.343 60.182 -150.253 113.921 -223.851 162.355 l 9.415 14.331 l 7.17 -15.558 c -44.064 -20.283 -87.005 -42.63 -128.849 -66.679 l -8.81 -5.044 l -8.656 5.27 c -21.69 13.233 -43.467 26.087 -65.46 38.587 l -23.945 13.631 l 22.823 15.463 c 40.099 27.124 81.649 52.521 124.857 75.688 l 8.103 -15.108 l -8.975 -14.59 c -73.952 45.419 -146.634 85.397 -216.966 120.537 l 7.671 15.333 l 10.227 -13.76 c -38.63 -28.706 -75.827 -58.922 -111.753 -90.373 l -8.232 -7.179 l -9.969 4.397 c -21.561 9.545 -43.156 18.814 -64.977 27.651 l -23.997 9.761 l 18.331 18.287 c 34.414 34.268 70.418 67.335 108.314 98.641 l 10.927 -13.2 l -7.222 -15.541 c -81.613 37.879 -160.005 69.192 -233.698 95.099 l 5.667 16.162 l 12.681 -11.541 c -33.585 -36.928 -65.503 -75.205 -95.988 -114.396 l -7.136 -9.157 l -11.199 3.23 c -23.043 6.703 -46.383 13.027 -69.944 19.03 l -23.768 6.056 l 13.89 20.247 c 28.821 42.034 59.478 83.143 92.321 122.862 l 13.195 -10.945 l -5.226 -16.326 c -84.53 27.003 -162.092 46.465 -230.071 60.795 l 3.529 16.767 l 14.37 -9.321 c -28.658 -44.375 -55.307 -89.924 -80.348 -136.259 l -5.749 -10.677 l -12.02 1.875 c -23.082 3.697 -46.422 7.005 -70.073 10.15 l -23.167 3.04 l 9.929 21.215 c 22.74 48.642 47.381 96.541 74.432 143.404 l 14.847 -8.576 l -2.881 -16.887 l 2.881 16.887 l 14.849 -8.586 c -26.52 -45.894 -50.741 -92.921 -73.118 -140.786 l -15.51 7.274 l 2.267 16.982 c 23.82 -3.136 47.51 -6.522 70.941 -10.236 l -2.7 -16.94 l -15.069 8.146 c 25.388 47.035 52.478 93.371 81.74 138.618 l 6.357 9.891 l 11.541 -2.445 c 69.032 -14.503 147.722 -34.32 233.466 -61.667 l 24.135 -7.706 l -16.154 -19.558 c -32.056 -38.846 -62.104 -79.083 -90.499 -120.408 l -14.106 9.71 l 4.22 16.593 c 23.91 -6.098 47.601 -12.508 71.07 -19.297 l -4.794 -16.456 l -13.536 10.539 c 31.007 39.796 63.452 78.694 97.719 116.399 l 7.62 8.414 l 10.754 -3.792 c 74.695 -26.26 154.045 -57.919 236.791 -96.333 l 24.594 -11.446 l -20.896 -17.293 c -37.024 -30.614 -72.25 -62.886 -105.965 -96.55 l -12.103 12.154 l 6.444 15.886 c 22.261 -9.009 44.211 -18.46 65.945 -28.091 l -6.937 -15.67 l -11.273 12.896 c 36.54 31.953 74.427 62.8 113.835 92.092 l 8.447 6.271 l 9.451 -4.7 c 71.196 -35.581 144.759 -75.99 219.583 -122.015 l 25.388 -15.592 l -26.26 -14.124 c -42.069 -22.554 -82.659 -47.329 -121.808 -73.857 l -9.632 14.202 l 8.5 14.901 c 22.244 -12.681 44.375 -25.699 66.316 -39.114 l -8.931 -14.633 l -8.526 14.858 c 42.716 24.558 86.529 47.337 131.56 68.061 l 8.673 4.008 l 7.921 -5.235 c 74.462 -48.935 150.253 -103.374 226.46 -164.255 l 27.314 -21.786 l -33.983 -8.224 c -49.255 -11.929 -97.509 -27.089 -144.846 -44.85 l -6.047 16.016 l 10.279 13.726 c 21.993 -16.464 43.9 -33.318 65.581 -50.568 l -10.625 -13.406 l -4.872 16.413 c 50.949 15.064 102.691 27.659 155.203 37.273 l 7.973 1.486 l 6.185 -5.27 c 71.68 -60.666 143.36 -126.904 214.954 -199.284 l 28.696 -29.051 l -40.798 -.164 c -54.827 -.173 -109.523 -4.406 -163.798 -11.99 l -2.35 17 l 11.67 12.534 c 23.038 -21.466 45.955 -43.425 68.769 -65.625 l -11.981 -12.284 l -1.123 17.122 c 33.188 2.125 66.497 3.299 99.858 3.299 c 24.221 0 48.426 -.604 72.682 -1.865 l 6.962 -.354 l 4.717 -5.088 c 72.371 -77.779 144.188 -162.053 214.815 -253.377 l 31.046 -40.15 l -49.031 13.104 c -57.133 15.247 -115.268 25.958 -173.974 32.973 l 2.048 17.026 l 12.707 11.498 c 25.094 -27.781 50.084 -56.011 75.136 -84.879 l -12.94 -11.238 l 3.265 16.81 c 59.146 -11.532 117.843 -26.303 175.503 -45.204 l 5.226 -1.693 l 3.266 -4.44 c 51.795 -70.471 125.945 -183.355 126.04 -183.476 l 6.177 -9.454 l -6.228 -9.398 c -.476 -.743 -235.211 -356.24 -630.462 -715.262 c -395.251 -358.797 -951.5 -722.01 -1596.215 -734.068 l -11.761 -.22 l -4.439 10.888 c -18.59 45.822 -36.061 92.109 -52.78 138.752 l 16.11 5.788 l .959 -17.108 c -33.711 -1.879 -67.759 -3.309 -102.432 -4.051 l -12.369 -.307 l -4.138 11.718 c -148.188 419.511 -223.359 861.491 -223.32 1313.49 c -.039 452.168 75.131 894.16 223.32 1313.667 l 4.138 11.713 l 12.422 -.301 c 35.101 -.787 69.628 -2.272 103.771 -4.138 l -.95 -17.121 l -16.163 5.753 c 16.94 47.606 35.063 96.42 54.481 146.418 l 4.22 10.798 l 11.588 .086 l 2.004 .043 c 13.938 0 98.726 -1.002 232.636 -23.91 l 24.261 -4.129 l -12.279 -21.354 l -14.848 8.583" fill="#fff"/><path d="m 2297.939 3367.972 l -217.528 54.741 c -50.733 13.021 -98.251 16.589 -98.251 16.589 v 2.402 c 0 0 48.688 3.658 99.43 14.422 l 216.349 48.067 z m -555.861 233.651 v -304.109 l 616.091 -183.782 h -616.091 v -284.729 h 309.594 v -109.999 h -309.594 v -284.768 h 800.78 v 284.768 h -315.429 v 109.999 h 315.429 v 479.353 l -98.458 24.52 v 204.459 l 60.882 13.198 c -14.331 88.893 -25.651 178.423 -34.013 268.533 l -729.191 -217.443" fill="#613a18"/><path d="m 2297.939 3367.972 l -2.091 -8.319 l -217.528 54.75 c -24.952 6.401 -49.25 10.491 -67.239 12.97 c -17.989 2.531 -29.521 3.361 -29.569 3.399 l -7.921 .562 v 18.339 l 7.921 .571 c .048 0 11.981 .911 30.307 3.131 c 18.343 2.267 42.992 5.839 67.982 11.147 l 226.719 50.383 v -157.95 l -10.673 2.699 l 2.092 8.318 h -8.578 v 125.509 l -205.901 -45.726 c -51.518 -10.931 -100.419 -14.581 -100.639 -14.581 l -.661 8.53 h 8.59 v -2.402 h -8.59 l .661 8.544 c .259 0 48.119 -3.572 99.728 -16.81 l 217.48 -54.741 l -2.09 -8.323 h -8.578 z m -547.279 233.651 v -297.708 l 609.949 -181.951 l -2.439 -16.81 h -607.51 v -267.57 h 309.59 v -127.158 h -309.59 v -267.613 h 783.63 v 267.613 h -315.43 v 127.158 h 315.43 v 464.067 l -98.467 24.511 v 218.103 l 67.629 14.676 l 1.831 -8.41 l -8.453 -1.347 c -14.369 89.061 -25.737 178.769 -34.099 269.09 l 8.539 .791 l 2.441 -8.233 l -729.193 -217.45 l -4.88 16.473 l 739.203 220.396 l .972 -10.409 c 8.349 -89.88 19.639 -179.247 33.957 -267.957 l 1.269 -8.012 l -62.057 -13.458 v -190.831 l 98.459 -24.52 V 2820.427 H 2236.02 v -92.839 h 315.421 V 2425.656 H 1733.5 v 301.932 h 309.59 v 92.839 H 1733.5 v 301.889 h 565.882 l -565.882 168.8 v 310.51 h 17.16" fill="#fff"/><path d="m 2041.219 5775.562 c -32.618 -67.197 -52.39 -89.241 -86.141 -89.241 c -30.268 0 -44.249 23.262 -44.249 64.803 c 0 46.431 16.292 89.233 32.622 118.552 l -164.14 57.479 c -25.608 -45.204 -48.862 -117.324 -48.862 -221.233 c 0 -182.077 121.021 -297 268.83 -297 c 77.999 0 168.8 34.225 228.149 156.473 c 31.4 65.978 52.404 86.745 82.62 86.745 c 25.612 0 43.113 -23.22 43.113 -65.979 c 0 -48.901 -22.122 -101.465 -38.414 -123.414 l 90.412 -29.741 l -298.793 -141.365 l -364.29 188.176 v -287.213 l 351.485 -151.497 v -2.496 h -351.485 v -519.754 l 367.384 -70.505 c 45.51 -8.535 89.319 -10.885 89.319 -10.885 v -2.401 c 0 0 -43.808 -1.261 -89.319 -9.848 l -367.384 -73.943 v -228.412 l 367.384 -77.438 c 45.51 -8.664 89.319 -11.234 89.319 -11.234 v -2.436 c 0 0 -43.808 -2.22 -89.319 -10.673 l -367.384 -67.071 v -289.117 l 724.833 205.119 c -8.141 102.432 -12.452 205.512 -12.759 309.11 l -175.982 43.943 c -38.449 9.537 -77.338 11.921 -77.338 11.921 v 2.401 c 0 0 40.017 3.627 77.338 13.164 l 177.2 46.595 c 2.571 101.811 8.971 203.025 19.083 303.582 l -544.071 153.165 h 562.448 c 13.282 95.106 29.962 189.609 50.028 283.196 v 1.521 H 2163.42 v 2.496 l 379.438 141.745 v 315.304 l -1.559 -.751 c 8.703 40.859 13.19 89.716 13.19 147.377 c 0 184.564 -116.409 310.501 -265.341 310.501 c -93.157 0 -172.288 -22.03 -247.929 -179.721" fill="#613a18"/><path d="m 2048.929 5771.813 c -16.46 -33.879 -29.746 -56.788 -44.159 -71.991 c -14.241 -15.281 -30.921 -22.252 -49.692 -22.08 c -17.29 -.207 -32.009 7.317 -40.63 20.689 c -8.669 13.243 -12.15 31.012 -12.197 52.693 c .047 48.478 16.857 92.456 33.71 122.724 l 7.49 -4.172 l -2.833 -8.111 l -164.135 57.487 l 2.829 8.103 l 7.446 -4.224 c -24.778 -43.771 -47.73 -114.37 -47.73 -217.009 c .35 -178.155 117.152 -288.12 260.253 -288.43 c 75.559 .311 162.088 32.177 220.452 151.644 c 15.847 33.266 29.167 55.604 43.286 70.324 c 13.981 14.771 29.91 21.432 47.031 21.267 c 15.463 .13 29.439 -7.497 38.242 -20.731 c 8.919 -13.165 13.411 -31.323 13.45 -53.834 c -.22 -51.562 -22.512 -104.557 -40.112 -128.511 l -6.88 5.097 l 2.703 8.146 l 110.79 -36.454 l -322.043 -152.388 l -355.541 183.649 V 5198.27 l 351.489 -151.506 v -16.732 H 1750.66 v -504.075 l 360.413 -69.209 c 22.377 -4.172 44.508 -6.876 60.969 -8.483 c 16.46 -1.659 27.18 -2.22 27.219 -2.22 l 8.098 -.44 v -18.866 l -8.318 -.259 c -.039 0 -10.711 -.293 -27.128 -1.641 c -16.46 -1.399 -38.539 -3.844 -60.882 -8.069 l -1.568 8.448 l 1.701 -8.405 l -360.503 -72.552 v -214.427 l 360.59 -75.999 l -1.788 -8.409 l 1.611 8.448 c 22.429 -4.311 44.508 -7.049 61.008 -8.79 c 16.473 -1.702 27.18 -2.311 27.219 -2.311 l 8.059 -.479 v -18.68 l -8.137 -.44 c -.052 0 -10.72 -.519 -27.219 -2.13 c -16.461 -1.572 -38.591 -4.233 -60.973 -8.401 l -360.369 -65.771 v -270.658 l 713.902 202.07 l 2.349 -8.271 l -8.53 -.7 c -8.189 102.648 -12.5 205.948 -12.802 309.771 l 8.573 .039 l -2.09 -8.318 l -175.982 43.934 c -18.728 4.664 -37.749 7.584 -52.041 9.373 c -14.326 1.737 -23.729 2.306 -23.729 2.306 l -8.06 .527 v 18.287 l 7.792 .7 c .048 0 9.761 .872 24.261 2.962 c 14.459 2.048 33.529 5.304 51.738 9.969 l 177.161 46.595 l 2.168 -8.311 l -8.577 .216 c 2.565 102.044 9.018 203.457 19.116 304.239 l 8.544 -.873 l -2.311 -8.275 l -544.061 153.155 l 2.302 16.862 h 562.448 v -8.578 l -8.5 1.166 c 13.329 95.331 30.009 190.049 50.132 283.809 l 8.396 -1.779 h -8.569 v 1.521 h 8.569 v -8.579 h -388.016 v 17.035 l 379.448 141.745 v 309.344 h 8.569 l 3.663 -7.765 l -1.572 -.734 l -15.67 -7.404 l 3.611 16.94 c 8.582 40.073 13.022 88.36 13.022 145.589 c -.35 181.031 -113.14 301.802 -256.763 301.932 c -45.99 0 -87.061 -5.399 -126.04 -29.448 c -38.967 -24.075 -76.729 -67.413 -114.137 -145.416 l -15.502 7.412 c 38.229 79.705 77.861 126.205 120.629 152.603 c 42.812 26.381 87.881 32.013 135.05 32.013 c 76.902 .035 145.8 -32.67 194.96 -88.983 c 49.26 -56.313 78.962 -136.043 78.962 -230.113 c 0 -58.101 -4.531 -107.52 -13.372 -149.156 l -8.401 1.779 l -3.658 7.757 l 1.568 .743 l 12.232 5.788 v -334.8 l -385.019 -143.845 l -3.001 8.06 h 8.582 v -2.496 h -8.582 v 8.586 h 388.021 v -11.022 l -.169 -.873 c -20.032 -93.405 -36.712 -187.691 -49.951 -282.59 l -1.049 -7.395 H 1992.53 l 491.191 -138.272 l -.743 -7.196 c -10.059 -100.341 -16.455 -201.314 -19.03 -302.925 l -.169 -6.444 l -183.428 -48.245 c -38.242 -9.761 -78.522 -13.329 -78.742 -13.372 l -.778 8.526 h 8.578 v -2.401 h -8.578 l .518 8.594 c .298 -.042 39.499 -2.444 78.871 -12.197 l 182.509 -45.549 v -6.66 c .31 -103.391 4.621 -206.251 12.719 -308.463 l .571 -7.057 l -742.519 -210.122 v 307.629 l 374.433 68.372 c 46.167 8.526 90.201 10.759 90.408 10.798 l .44 -8.578 h -8.577 v 2.436 h 8.577 l -.518 -8.578 c -.181 .039 -44.253 2.622 -90.412 11.368 l -.129 .043 l -374.221 78.867 v 242.397 l 374.26 75.334 l .129 .052 c 46.292 8.708 90.373 9.968 90.632 9.968 l .259 -8.578 h -8.577 v 2.401 h 8.577 l -.479 -8.586 c -.168 .043 -44.241 2.402 -90.412 11.022 l -374.39 71.853 v 535.441 h 360.063 v -8.586 h -8.573 v 2.496 h 8.573 l -3.39 -7.896 l -356.673 153.736 v 306.933 l 373.042 -192.659 l 275.538 130.343 l -81.307 26.744 l 7.1 9.536 c 14.979 19.903 36.928 72.069 36.708 118.318 c .048 20.248 -4.219 35.097 -10.448 44.202 c -6.363 9.096 -13.933 13.069 -24.084 13.199 c -13.108 -.173 -22.779 -3.879 -34.669 -16.033 c -11.8 -12.146 -24.688 -33.18 -40.19 -65.841 c -60.412 -125.072 -155.47 -161.656 -235.91 -161.354 c -76.12 -.043 -145.718 29.707 -196.062 82.918 c -50.387 53.177 -81.394 129.737 -81.346 222.668 c 0 105.17 23.557 178.82 49.993 225.458 l 3.525 6.219 l 180.508 -63.189 l -4.958 -8.915 c -15.809 -28.351 -31.569 -69.996 -31.53 -114.371 c -.039 -19.85 3.49 -34.483 9.359 -43.242 c 5.93 -8.673 13.328 -12.759 26.308 -12.983 c 14.983 .181 25.082 4.232 37.283 16.775 c 12.059 12.585 24.99 34.32 41.148 67.629 l 15.421 -7.487" fill="#fff"/><path d="m 2737.581 2885.794 c 995.846 22.041 1610.093 498.729 2256.767 1307.97 c -646.675 809.229 -1260.922 1285.792 -2256.767 1307.785 c -147.549 -417.684 -222.369 -857.708 -222.369 -1307.966 c 0 -450.081 74.82 -890.1 222.369 -1307.789" fill="#f3c031"/><path d="m 3126.691 5619.694 c -144.98 24.792 -231.599 23.652 -231.599 23.652 c -609.652 -1564.902 87.578 -1950.534 87.578 -1950.534 c 74.993 -350.487 291.609 -629.688 630.203 -523.598 c 102.346 32.048 197.193 105.741 269.564 204.247 c -39.96 -23.518 -83.86 -31.487 -131.82 -20.43 c -115.536 26.869 -192.529 181.87 -182.336 414.553 c 15.895 362.5 81.26 469.328 81.26 469.328 c 0 0 -134.04 -605.941 4.621 -773.298 c -10.158 41.627 -15.549 84.4 -15.549 128.467 c 0 363.069 244.911 657.589 817.332 657.589 c 208.129 0 372.688 -39.062 498.253 -105.908 C 4344.373 3392.49 3755.626 2940.05 2839.392 2889.893 c 16.637 -46.469 34.061 -92.589 52.568 -138.138 c 1276.34 23.509 2212.699 1441.656 2212.699 1441.656 c 0 0 -74.211 112.928 -125.514 182.733 c -374.691 122.939 -791.589 88.671 -1145.049 -106.83 c 314.743 233.25 712.05 299.193 1073.058 202.679 c -70.324 90.935 -141.797 174.812 -213.832 252.194 c -336.579 17.595 -674.058 -83.135 -947.146 -289.943 c 234.217 237.214 551.516 364.715 874.214 366.028 c -71.256 72.025 -142.539 137.918 -213.831 198.282 c -301.396 -55.18 -581.914 -203.811 -796.816 -427.661 c 177.551 246.414 437.319 416.734 725.006 486.54 c -75.774 60.528 -151.117 114.621 -225.146 163.314 c -265.089 -121.816 -491.55 -312.341 -658.734 -555.438 c 129.038 256.771 331.933 465.41 585.965 601.688 c -74.392 45.714 -147.506 85.916 -218.27 121.28 c -240.662 -178.682 -428.975 -410.669 -552.657 -677.063 c 88.322 277.71 253.852 523.2 481.53 711.289 c -82.184 38.154 -161.033 69.641 -235.253 95.72 c -215.303 -236.99 -367.681 -519.322 -445.983 -826.255 c 39.757 313.982 167.927 607.077 370.036 851.643 c -85.138 27.184 -163.266 46.819 -231.768 61.236 c -187.177 -290.08 -297.708 -621.279 -322.31 -968.406 c -12.019 348.266 72.903 686.461 244.532 983.253" fill="#613a18"/><path d="m 4087.171 5221.394 v 0 l .043 -.043" fill="#f3c031"/><path d="m 3237.26 3428.422 c 52.041 -7.23 135.702 2.613 211.208 130.692 c 59.845 101.637 69.417 260.118 83.877 365.807 c 17.035 129.09 50.526 268.49 117.195 311.991 c -117.54 -43.502 -129.427 -281.762 -175.33 -433.579 c -50.344 -166.609 -212.911 -159.211 -299.181 -131.642 c -48.339 15.54 -102.912 45.891 -133.871 17.411 c -25.128 -23.159 -8.668 -69.24 -8.668 -69.24 c 24.429 -84.96 57.349 -160.7 96.981 -224.408 c 15.939 32.048 60.931 39.459 107.789 32.968" fill="#f3c031"/><path d="m 3219.75 3622.433 c -16.461 -2.609 -27.69 -20.56 -24.208 -39.892 c 9.018 -50.348 48.21 -88.887 48.21 -88.887 c 5.826 -6.31 14.019 -8.439 19.47 -4.743 c 5.788 3.961 6.349 13.282 1.689 21.423 l .09 .091 c 0 0 -7.753 13.29 -11.592 27.608 c -4.959 18.602 1.222 38.409 1.222 38.409 h -.129 c 1.179 4.92 1.49 10.189 .609 15.64 c -3.041 19.379 -18.94 32.972 -35.361 30.351" fill="#613a18"/><path d="m 3295.179 4275.414 c 0 -117.191 -89.016 -213.649 -203.067 -225.333 c -.613 4.271 -1.27 8.5 -1.922 12.681 c -2 12.719 -4.44 25.262 -7.139 37.321 c 90.541 7.27 161.79 82.962 161.79 175.331 c 0 97.163 -78.699 176.064 -176.069 176.064 c -46.469 0 -88.839 -18.106 -120.331 -47.727 c -6.012 17.242 -11.32 35.14 -15.199 53.09 c 37.797 28.351 84.621 44.979 135.53 44.979 c 125.158 0 226.407 -101.247 226.407 -226.406 m -115.139 0 c 0 -50.344 -40.941 -91.281 -91.5 -91.281 c -12.279 0 -24.088 2.401 -34.799 6.79 c -13.018 30.104 -27.698 57.79 -43.29 82.436 l -.121 .138 c -.488 .881 -3.667 5.969 -8.5 14.495 l 5.49 -.337 c 21.82 0 39.411 17.587 39.411 39.407 c 0 9.269 -3.178 17.769 -8.53 24.524 c 14.452 9.537 31.741 15.108 50.339 15.108 c 50.559 0 91.5 -40.764 91.5 -91.28 m -100.389 -160.78 l -.082 .389 l .082 -.389 m -.95 3.827 c -3.269 12.633 -6.803 24.52 -10.5 35.49 l -.302 .92 l -.739 2.211 l -1.05 2.929 l -.479 1.343 l -1.391 3.84 l -.402 .998 l -1.559 4.09 c 5.922 -14.979 11.541 -32.618 16.422 -51.821" fill="#613a18"/><path d="m 3295.179 4275.414 c 0 -117.191 -89.016 -213.649 -203.067 -225.333 c -.613 4.271 -1.27 8.5 -1.922 12.681 c -2 12.719 -4.44 25.262 -7.139 37.321 c 90.541 7.27 161.79 82.962 161.79 175.331 c 0 97.163 -78.699 176.064 -176.069 176.064 c -46.469 0 -88.839 -18.106 -120.331 -47.727 c -6.012 17.242 -11.32 35.14 -15.199 53.09 c 37.797 28.351 84.621 44.979 135.53 44.979 c 125.158 0 226.407 -101.247 226.407 -226.406 m -115.139 0 c 0 -50.344 -40.941 -91.281 -91.5 -91.281 c -12.279 0 -24.088 2.401 -34.799 6.79 c -13.018 30.104 -27.698 57.79 -43.29 82.436 l -.121 .138 c -.488 .881 -3.667 5.969 -8.5 14.495 l 5.49 -.337 c 21.82 0 39.411 17.587 39.411 39.407 c 0 9.269 -3.178 17.769 -8.53 24.524 c 14.452 9.537 31.741 15.108 50.339 15.108 c 50.559 0 91.5 -40.764 91.5 -91.28 m -100.389 -160.78 l -.082 .389 l .082 -.389 m -.95 3.827 c -3.269 12.633 -6.803 24.52 -10.5 35.49 l -.302 .92 l -.739 2.211 l -1.05 2.929 l -.479 1.343 l -1.391 3.84 l -.402 .998 l -1.559 4.09 c 5.922 -14.979 11.541 -32.618 16.422 -51.821" fill="#1e211e"/><path d="m 2948.44 4403.708 c 16.111 -46.301 37.58 -87.575 50.521 -110.708 c 8.138 42.033 45.2 73.692 89.579 73.692 c 50.559 0 91.5 -40.764 91.5 -91.28 c 0 -50.344 -40.941 -91.281 -91.5 -91.281 c -12.408 0 -24.208 2.401 -34.967 6.881 c 2.997 -6.712 5.917 -13.709 8.707 -20.732 c 7.801 -19.639 14.983 -43.891 20.732 -70.198 c 90.537 7.23 161.828 82.918 161.828 175.331 c 0 97.163 -78.699 176.064 -176.069 176.064 c -46.469 0 -88.892 -18.157 -120.331 -47.769" fill="#f3c031"/><path d="m 3007.319 4287.654 c 21.82 0 39.411 17.587 39.411 39.407 c 0 21.863 -17.591 39.46 -39.411 39.46 c -15.199 0 -28.528 -8.543 -35.007 -21.293 c 11.321 -24.43 22.209 -44.47 29.427 -57.237 l 5.58 -.337" fill="#fff"/><path d="m 3097.122 3980.932 c 0 -42.72 -6.841 -80.867 -24.084 -103.559 c -109.567 219.921 -174.069 460.969 -188.659 712.031 c 11.109 -9.45 32.014 -37.585 46.072 -118.507 c 11.109 -65.002 43.64 -132.114 63.591 -168.964 c 2.868 -5.27 5.476 -9.968 7.697 -13.942 h .052 c 4.829 -8.526 8.05 -13.614 8.539 -14.495 l .121 -.138 c 15.592 -24.646 30.272 -52.332 43.29 -82.436 l -.168 .091 c 2.997 -6.712 5.917 -13.709 8.707 -20.732 l 1.559 -4.09 l .402 -.998 l 1.391 -3.84 l .479 -1.343 l 1.05 -2.929 l .739 -2.211 l .302 -.92 c 5.049 -14.939 9.748 -31.749 13.847 -49.596 l .963 -4.272 c 2.699 -12.059 5.139 -24.649 7.178 -37.321 c 4.31 -27.31 6.932 -55.439 6.932 -81.829" fill="#613a18"/><path d="m 3097.122 3980.932 c 0 -42.72 -6.841 -80.867 -24.084 -103.559 c -109.567 219.921 -174.069 460.969 -188.659 712.031 c 11.109 -9.45 32.014 -37.585 46.072 -118.507 c 11.109 -65.002 43.64 -132.114 63.591 -168.964 c 2.868 -5.27 5.476 -9.968 7.697 -13.942 h .052 c 4.829 -8.526 8.05 -13.614 8.539 -14.495 l .121 -.138 c 15.592 -24.646 30.272 -52.332 43.29 -82.436 l -.168 .091 c 2.997 -6.712 5.917 -13.709 8.707 -20.732 l 1.559 -4.09 l .402 -.998 l 1.391 -3.84 l .479 -1.343 l 1.05 -2.929 l .739 -2.211 l .302 -.92 c 5.049 -14.939 9.748 -31.749 13.847 -49.596 l .963 -4.272 c 2.699 -12.059 5.139 -24.649 7.178 -37.321 c 4.31 -27.31 6.932 -55.439 6.932 -81.829" fill="#1e211e"/><path d="m 3090.189 4062.762 c -2.039 12.672 -4.479 25.262 -7.178 37.321 h .039 c 2.7 -12.059 5.139 -24.602 7.139 -37.321 m -8.141 41.593 c -4.099 17.847 -8.798 34.657 -13.847 49.596 c 3.697 -10.97 7.23 -22.857 10.5 -35.49 l .868 -3.438 l .082 -.389 l 2.397 -10.279 m -14.149 50.516 l -.739 2.211 l .739 -2.211 m -1.789 5.14 l -.479 1.343 l .479 -1.343 m -1.87 5.182 l -.402 .998 l .402 -.998 m -10.5 25.729 v 0 c -13.018 30.104 -27.698 57.79 -43.29 82.436 l -.121 .138 l .121 -.138 c 15.592 -24.646 30.273 -52.332 43.29 -82.436" fill="#613a18"/><path d="m 3090.189 4062.762 c -2.039 12.672 -4.479 25.262 -7.178 37.321 h .039 c 2.7 -12.059 5.139 -24.602 7.139 -37.321 m -8.141 41.593 c -4.099 17.847 -8.798 34.657 -13.847 49.596 c 3.697 -10.97 7.23 -22.857 10.5 -35.49 l .868 -3.438 l .082 -.389 l 2.397 -10.279 m -14.149 50.516 l -.739 2.211 l .739 -2.211 m -1.789 5.14 l -.479 1.343 l .479 -1.343 m -1.87 5.182 l -.402 .998 l .402 -.998 m -10.5 25.729 v 0 c -13.018 30.104 -27.698 57.79 -43.29 82.436 l -.121 .138 l .121 -.138 c 15.592 -24.646 30.273 -52.332 43.29 -82.436" fill="#1e211e"/><path d="m 3083.05 4100.083 h -.039 l -.963 4.272 l -2.397 10.279 c 1.179 -4.803 2.31 -9.632 3.399 -14.551 m -3.481 14.94 l -.868 3.438 l .868 -3.438 m -17.29 55.258 v 0 c -2.79 7.023 -5.71 14.021 -8.707 20.732 l .168 -.091 c 2.959 -6.75 5.802 -13.67 8.539 -20.641" fill="#f3c031"/><path d="m 3083.05 4100.083 h -.039 l -.963 4.272 l -2.397 10.279 c 1.179 -4.803 2.31 -9.632 3.399 -14.551 m -3.481 14.94 l -.868 3.438 l .868 -3.438 m -17.29 55.258 v 0 c -2.79 7.023 -5.71 14.021 -8.707 20.732 l .168 -.091 c 2.959 -6.75 5.802 -13.67 8.539 -20.641" fill="#1e211e"/><path d="m 3001.791 4287.991 h -.052 c -2.22 3.974 -4.829 8.672 -7.697 13.942 c 2.868 -5.304 5.476 -9.969 7.749 -13.942" fill="#1e211e"/><path d="m 3794.395 3348.152 c -14.201 -.169 -28.8 1.442 -43.779 4.88 l -5.096 1.313 l 5.096 -1.313 c 14.979 -3.438 29.578 -5.049 43.779 -4.88 m -61.374 10.11 l -2.393 .873 l 2.393 -.873 m -2.609 .959 c -97.586 36.933 -163.046 170.972 -163.046 367.734 c 0 13.276 .311 26.826 .916 40.629 c -.604 -13.592 -.872 -26.959 -.872 -40.072 c 0 -197.051 65.321 -331.358 163.002 -368.291 m -126.075 -192.576 l -2.306 -.652 l 2.306 .652 m -8.621 -2.483 l -2.349 -.648 l 2.349 .648 m -8.621 -2.307 l -2.315 -.613 l 2.315 .613 m -8.716 -2.22 l -1.909 -.44 l 1.909 .44 m -8.923 -2.052 l -1.357 -.302 l 1.357 .302 m -9.588 -2.039 v 0 m -169.059 -.53 v 0 m -29.037 7.54 l -.83 .259 l .83 -.259 m -6.712 2.13 l -1.741 .571 l 1.741 -.571 m -6.661 2.22 l -2.358 .83 l 2.358 -.83 m -6.487 2.268 l -2.833 1.04 l 2.833 -1.04 m -6.194 2.349 l -3.476 1.39 l 3.476 -1.39 m -5.827 2.311 c -65.723 26.654 -123.293 71.59 -172.241 129.82 l -2.791 3.404 c 49.61 -59.843 108.052 -106.053 175.032 -133.224" fill="#f3c031"/><path d="m 3794.395 3348.152 c -14.201 -.169 -28.8 1.442 -43.779 4.88 l -5.096 1.313 l 5.096 -1.313 c 14.979 -3.438 29.578 -5.049 43.779 -4.88 m -61.374 10.11 l -2.393 .873 l 2.393 -.873 m -2.609 .959 c -97.586 36.933 -163.046 170.972 -163.046 367.734 c 0 13.276 .311 26.826 .916 40.629 c -.604 -13.592 -.872 -26.959 -.872 -40.072 c 0 -197.051 65.321 -331.358 163.002 -368.291 m -126.075 -192.576 l -2.306 -.652 l 2.306 .652 m -8.621 -2.483 l -2.349 -.648 l 2.349 .648 m -8.621 -2.307 l -2.315 -.613 l 2.315 .613 m -8.716 -2.22 l -1.909 -.44 l 1.909 .44 m -8.923 -2.052 l -1.357 -.302 l 1.357 .302 m -9.588 -2.039 v 0 m -169.059 -.53 v 0 m -29.037 7.54 l -.83 .259 l .83 -.259 m -6.712 2.13 l -1.741 .571 l 1.741 -.571 m -6.661 2.22 l -2.358 .83 l 2.358 -.83 m -6.487 2.268 l -2.833 1.04 l 2.833 -1.04 m -6.194 2.349 l -3.476 1.39 l 3.476 -1.39 m -5.827 2.311 c -65.723 26.654 -123.293 71.59 -172.241 129.82 l -2.791 3.404 c 49.61 -59.843 108.052 -106.053 175.032 -133.224" fill="#1e211e"/><path d="m 3882.436 3373.461 c -72.372 -98.506 -167.219 -172.199 -269.564 -204.247 l -8.535 -2.57 l -2.306 -.652 l -6.315 -1.831 l -2.349 -.648 l -6.271 -1.659 l -2.315 -.613 l -6.402 -1.607 l -1.909 -.44 l -7.014 -1.611 l -1.357 -.302 l -8.232 -1.736 c -60.658 -12.283 -117.057 -11.799 -169.059 -.531 c -9.839 2.138 -19.496 4.621 -29.037 7.541 l -.83 .259 l -5.882 1.87 l -1.741 .571 l -4.92 1.65 l -2.358 .83 l -4.129 1.438 l -2.833 1.04 l -3.36 1.309 l -3.476 1.39 l -2.35 .92 c -66.98 27.172 -125.423 73.382 -175.032 133.224 c -7.878 10.098 -30.048 40.927 -30.048 68.54 c 0 5.269 .79 10.409 2.617 15.237 l 2.042 4.661 v -.039 c 15.938 32.048 60.93 39.459 107.788 32.968 c 7.269 -.998 15.242 -1.698 23.69 -1.75 c 51.653 -.342 122.641 22.352 187.518 132.442 c 59.845 101.637 69.417 260.118 83.877 365.807 c 17.035 129.09 50.526 268.49 117.195 311.991 l -.043 -.077 c -2.004 -3.36 -65.936 -112.414 -81.217 -469.251 c -.604 -13.803 -.916 -27.353 -.916 -40.629 c 0 -196.762 65.46 -330.801 163.046 -367.734 l .217 -.086 l 2.393 -.873 c 4.103 -1.482 8.284 -2.79 12.5 -3.918 l 5.096 -1.313 c 14.979 -3.438 29.578 -5.049 43.779 -4.88 c 31.22 .31 60.573 9.112 88.042 25.309" fill="#613a18"/><path d="m 3882.436 3373.461 c -72.372 -98.506 -167.219 -172.199 -269.564 -204.247 l -8.535 -2.57 l -2.306 -.652 l -6.315 -1.831 l -2.349 -.648 l -6.271 -1.659 l -2.315 -.613 l -6.402 -1.607 l -1.909 -.44 l -7.014 -1.611 l -1.357 -.302 l -8.232 -1.736 c -60.658 -12.283 -117.057 -11.799 -169.059 -.531 c -9.839 2.138 -19.496 4.621 -29.037 7.541 l -.83 .259 l -5.882 1.87 l -1.741 .571 l -4.92 1.65 l -2.358 .83 l -4.129 1.438 l -2.833 1.04 l -3.36 1.309 l -3.476 1.39 l -2.35 .92 c -66.98 27.172 -125.423 73.382 -175.032 133.224 c -7.878 10.098 -30.048 40.927 -30.048 68.54 c 0 5.269 .79 10.409 2.617 15.237 l 2.042 4.661 v -.039 c 15.938 32.048 60.93 39.459 107.788 32.968 c 7.269 -.998 15.242 -1.698 23.69 -1.75 c 51.653 -.342 122.641 22.352 187.518 132.442 c 59.845 101.637 69.417 260.118 83.877 365.807 c 17.035 129.09 50.526 268.49 117.195 311.991 l -.043 -.077 c -2.004 -3.36 -65.936 -112.414 -81.217 -469.251 c -.604 -13.803 -.916 -27.353 -.916 -40.629 c 0 -196.762 65.46 -330.801 163.046 -367.734 l .217 -.086 l 2.393 -.873 c 4.103 -1.482 8.284 -2.79 12.5 -3.918 l 5.096 -1.313 c 14.979 -3.438 29.578 -5.049 43.779 -4.88 c 31.22 .31 60.573 9.112 88.042 25.309" fill="#1e211e"/><path d="m 3260.95 3426.673 c -8.448 .052 -16.421 .752 -23.69 1.75 c -46.858 6.491 -91.85 -.92 -107.788 -32.968 v .039 c 15.899 32.191 60.886 39.459 107.788 32.929 c 7.269 -.998 15.242 -1.698 23.69 -1.75" fill="#f3c031"/><path d="m 3260.95 3426.673 c -8.448 .052 -16.421 .752 -23.69 1.75 c -46.858 6.491 -91.85 -.92 -107.788 -32.968 v .039 c 15.899 32.191 60.886 39.459 107.788 32.929 c 7.269 -.998 15.242 -1.698 23.69 -1.75" fill="#1e211e"/><path d="m 3098.56 3508.852 c 53.652 -124.239 169.4 -229.37 177.81 -222.36 c 6.18 5.139 -71.08 57.612 -141.448 238.091 c -3.973 10.14 -16.032 14.629 -26.044 10.318 c -10.02 -4.358 -14.637 -16.028 -10.318 -26.049" fill="#fff"/></g></g></g></g></g></g></svg>