<?xml version="1.0" encoding="iso-8859-1"?>
<!-- Generator: Adobe Illustrator 24.0.1, SVG Export Plug-In . SVG Version: 6.00 Build 0)  -->
<svg version="1.1" id="Layer_1" xmlns="http://www.w3.org/2000/svg" xmlns:xlink="http://www.w3.org/1999/xlink" x="0px" y="0px"
	 viewBox="0 0 612 792" style="enable-background:new 0 0 612 792;" xml:space="preserve">
<g>
	<path style="fill:#FEE000;" d="M306.576,112.624L306.576,112.624c126.936,0,230.832,103.896,230.832,230.904v105.12
		c0,127.008-103.896,230.904-230.832,230.904l0,0c-126.936,0-230.832-103.896-230.832-230.904v-105.12
		C75.744,216.52,179.64,112.624,306.576,112.624z"/>
	<path style="fill:#008743;" d="M269.424,477.016c-2.592-10.44-8.784-18.288-19.584-20.952c-7.848,4.608-16.56,6.912-26.136,6.912
		c-15.12,0-27.576-5.184-37.224-15.624c-9.72-10.368-14.544-23.616-14.544-39.816c0-8.064,1.296-15.552,3.816-22.68
		c2.592-7.128,6.336-13.608,11.376-19.512c9.864-11.808,27.864-24.192,19.728-43.416c14.544-6.552,17.568-19.872,9-39.96
		c20.52-1.296,28.512-14.04,25.2-31.68c16.848-0.432,27.288-6.408,27.72-27c15.48,3.24,28.08-13.896,37.8-29.88
		c9.72,15.984,22.32,33.12,37.8,29.88c0.432,20.592,10.872,26.568,27.72,27c-3.312,17.64,4.68,30.384,25.2,31.68
		c-8.568,20.088-5.544,33.408,9,39.96c-9.864,23.328,7.848,23.544,20.952,30.096l3.816-5.4l9.792,6.048l-18.144,28.584
		c-8.208-6.912-15.12-12.096-20.808-15.552c-5.616-3.384-10.224-5.112-13.608-5.112c-2.664,0-4.896,0.648-6.624,2.016
		c-1.8,1.368-2.664,3.096-2.664,5.112c0,2.664,1.44,5.112,4.248,7.272c2.808,2.16,7.848,4.608,14.976,7.344
		c1.368,0.504,3.312,1.224,5.832,2.16c14.472,5.4,23.832,10.08,28.08,14.04c2.952,2.952,5.184,6.192,6.768,9.792
		c1.512,3.6,2.304,7.416,2.304,11.448c0,11.88-4.68,22.032-13.968,30.456c-9.36,8.496-20.592,12.744-33.84,12.744
		c-8.856,0-17.568-1.656-25.992-4.896c-1.512-0.576-3.024-1.224-4.536-1.872c-10.512,2.664-16.56,10.44-19.152,20.808h110.376
		l-2.232,8.712c-8.424,32.688-27.648,61.2-53.568,81.36c-25.416,19.8-57.312,31.536-91.728,31.536l0,0
		c-34.416,0-66.312-11.736-91.728-31.536c-25.92-20.16-45.144-48.672-53.568-81.36l-2.232-8.712H269.424z"/>
	<path style="fill:#F8E100;" d="M223.92,556.36c22.896,17.712,51.624,28.296,82.656,28.296l0,0c31.032,0,59.76-10.584,82.656-28.296
		H223.92z"/>
	<path style="fill:#FEE000;" d="M329.328,490.984c-0.648-3.24-1.368-6.48-1.44-9.792l0,0l0,0
		c-0.216-9.936,4.392-21.312,24.336-30.888c-3.024-2.016-5.976-4.176-8.856-6.624l19.512-28.296
		c9,9.576,17.136,16.704,24.408,21.312c7.272,4.68,13.752,6.984,19.512,6.984c3.888,0,7.056-0.864,9.36-2.664
		c2.304-1.8,3.456-4.248,3.456-7.272c0-1.944-0.936-3.672-2.88-5.328c-1.944-1.656-5.256-3.456-9.936-5.4
		c-3.24-1.44-9.216-3.672-17.784-6.84c-8.496-3.096-14.688-5.76-18.576-8.136c-5.112-3.168-9.072-6.912-11.736-11.376
		c-2.664-4.392-4.032-9.216-4.032-14.472c0-9.936,4.32-18.864,13.032-26.784c6.84-6.264,14.544-10.008,23.184-11.304
		c-1.872-5.616-1.584-12.456,3.168-20.016c-15.984-6.12-19.512-16.704-11.88-34.632c-17.28-4.824-24.696-16.992-18.936-32.328
		c-17.424-0.36-28.008-3.744-26.208-24.912c-15.12,3.672-25.272-5.544-30.456-21.6c-5.184,16.056-15.336,25.272-30.456,21.6
		c1.8,21.168-8.784,24.552-26.208,24.912c5.76,15.336-1.656,27.504-18.936,32.328c7.632,17.928,4.104,28.512-11.88,34.632
		c4.824,7.632,5.04,14.544,3.096,20.232c2.376-0.36,4.68-0.504,7.056-0.504c5.688,0,10.8,0.936,15.408,2.88
		c4.608,1.944,8.568,4.824,11.952,8.712l5.328-4.392l7.056,9.792l-35.712,28.944l-6.912-8.28c1.368-1.224,2.376-2.592,3.024-4.176
		c0.72-1.584,1.008-3.24,1.008-5.04c0-3.312-1.008-6.192-3.096-8.496c-2.016-2.376-4.608-3.528-7.632-3.528
		c-4.824,0-8.64,2.376-11.52,7.128c-2.88,4.752-4.32,11.088-4.32,19.152c0,14.184,3.384,26.064,10.008,35.784
		c6.696,9.648,14.976,14.472,24.84,14.472c5.112,0,9.72-1.008,14.04-3.168c4.176-2.088,8.28-5.328,12.096-9.72l8.712,7.92
		c-4.536,7.056-9.36,12.96-14.544,17.568c21.6,9.792,26.496,21.528,26.28,31.824l0,0c0,0.072,0,0.144,0,0.216
		c-0.144,3.24-0.792,6.408-1.44,9.576H177.408c3.096,9.36,7.2,18.288,12.168,26.64h234c4.968-8.352,9.072-17.28,12.168-26.64
		H329.328z"/>
	<path d="M525.96,396.088v52.56c0,120.672-98.712,219.456-219.384,219.456l0,0c-120.672,0-219.384-98.784-219.384-219.456v-52.56
		h57.168v52.56c0,89.28,73.008,162.288,162.216,162.288l0,0c89.208,0,162.216-73.008,162.216-162.288v-52.56H525.96z"/>
	<path style="fill:#008743;" d="M306.576,124.072L306.576,124.072c120.672,0,219.384,98.784,219.384,219.456v52.56h-57.168v-52.56
		c0-89.28-73.008-162.288-162.216-162.288l0,0c-89.208,0-162.216,73.008-162.216,162.288v52.56H87.192v-52.56
		C87.192,222.856,185.904,124.072,306.576,124.072z"/>
	<g>
		<path style="fill:#FEE000;" d="M486.36,305.872c-3.744,0.936-6.12,1.728-7.056,2.448c-1.008,0.72-1.512,1.728-1.656,3.024
			c-0.072,0.504,0,1.296,0.216,2.304c0.144,1.008,0.072,1.584-0.36,1.728c-0.288,0.072-0.504,0-0.648-0.216
			c-0.144-0.144-0.288-0.576-0.432-1.152l-4.536-18c-0.144-0.648-0.144-1.08-0.144-1.296c0.072-0.216,0.216-0.36,0.504-0.432
			c0.432-0.072,0.792,0.36,1.152,1.44c0.216,0.504,0.36,0.936,0.504,1.296c0.648,1.368,1.512,2.232,2.808,2.52
			c1.224,0.216,3.888-0.144,7.848-1.08l4.608-1.152l10.728-11.16c1.584-1.584,2.592-2.808,3.096-3.672
			c0.432-0.864,0.648-1.656,0.648-2.52c0-0.288-0.072-0.72-0.144-1.224c-0.144-1.008,0-1.512,0.36-1.656
			c0.288-0.072,0.504,0,0.648,0.143c0.144,0.216,0.288,0.576,0.432,1.152l4.176,16.56c0.144,0.648,0.144,1.08,0.144,1.296
			c-0.072,0.216-0.216,0.36-0.504,0.432c-0.36,0.072-0.72-0.288-1.008-1.152c-0.072-0.288-0.144-0.504-0.216-0.648
			c-0.36-1.08-0.792-1.8-1.152-2.088c-0.36-0.288-0.864-0.36-1.512-0.216c-0.432,0.144-0.936,0.504-1.512,1.08
			c-0.144,0.144-0.216,0.216-0.288,0.288l-9.576,9.72l8.928,3.312c1.224,0.432,2.304,0.72,3.24,0.936
			c1.008,0.144,1.728,0.144,2.304,0c0.864-0.216,1.44-0.576,1.728-1.152c0.216-0.576,0.288-1.656,0.072-3.24
			c-0.072-0.216-0.072-0.432-0.144-0.792c-0.144-0.72,0-1.152,0.36-1.224c0.216-0.072,0.432-0.072,0.576,0.144
			c0.216,0.144,0.36,0.504,0.432,1.08l3.168,12.456c0.144,0.648,0.216,1.008,0.144,1.224c-0.072,0.288-0.216,0.432-0.504,0.504
			c-0.36,0.072-0.72-0.288-1.152-1.152c-0.144-0.36-0.216-0.576-0.36-0.72c-0.648-1.296-1.728-2.448-3.168-3.384
			c-1.44-1.008-3.672-2.088-6.768-3.24l-10.512-3.888L486.36,305.872z"/>
		<path style="fill:#FEE000;" d="M489.528,268.936c1.368-0.36,2.448-0.648,3.384-1.008c0.936-0.288,1.656-0.648,2.304-0.936
			c1.08-0.576,1.8-1.296,2.016-2.16c0.288-0.864,0.144-2.016-0.36-3.384c-0.072-0.072-0.072-0.072-0.072-0.144
			c-0.432-1.152-0.432-1.8-0.072-2.016c0.216-0.144,0.432-0.144,0.648,0c0.216,0.144,0.432,0.432,0.648,0.936l5.472,10.224
			c0.288,0.504,0.432,0.936,0.432,1.152c0,0.216-0.143,0.432-0.36,0.576c-0.288,0.144-0.72-0.072-1.224-0.576
			c-0.288-0.36-0.576-0.576-0.72-0.792c-1.08-0.864-2.52-1.296-4.464-1.368c-1.944-0.072-4.392,0.216-7.416,0.936l-17.712,4.176
			c-0.432,0.576-0.72,1.224-0.792,1.944c-0.144,0.72-0.288,1.152-0.504,1.224c-0.216,0.144-0.648-0.144-1.368-0.792
			c-0.72-0.648-1.368-1.152-2.016-1.585c-0.936-0.576-1.872-1.008-2.88-1.296c-0.936-0.36-1.512-0.576-1.584-0.72
			c-0.072-0.144,0-0.288,0.144-0.504c0.144-0.288,0.432-0.576,0.864-1.008l17.856-17.856l-18.504,4.104
			c-0.432,0.576-0.648,1.152-0.792,1.944c-0.144,0.72-0.288,1.152-0.504,1.224c-0.216,0.144-0.648-0.144-1.368-0.792
			c-0.648-0.648-1.368-1.152-2.016-1.584c-0.864-0.504-1.8-0.936-2.808-1.296c-1.008-0.36-1.584-0.576-1.656-0.72
			c-0.072-0.144,0-0.288,0.144-0.576c0.144-0.216,0.432-0.504,0.864-0.936l18.648-18.648l0.648-0.576
			c3.384-3.456,4.968-5.832,4.824-7.272c-0.072-0.36-0.216-0.864-0.432-1.512c-0.288-0.864-0.288-1.44,0.072-1.584
			c0.216-0.144,0.432-0.144,0.648,0c0.216,0.072,0.432,0.432,0.648,0.936l7.128,13.32c0.288,0.504,0.432,0.936,0.432,1.152
			c0,0.288-0.144,0.432-0.36,0.576c-0.216,0.072-0.432,0.072-0.576-0.072c-0.216-0.072-0.504-0.432-0.792-0.864
			c-0.576-0.792-1.152-1.296-1.728-1.44c-0.576-0.144-1.368,0.072-2.232,0.504c-0.504,0.288-1.008,0.648-1.656,1.152
			c-0.648,0.504-1.368,1.152-2.16,1.944l-13.536,13.536l18.504-4.032c2.376-2.232,3.744-3.816,4.248-4.824
			c0.504-0.936,0.648-1.944,0.432-3.024c-0.072-0.216-0.144-0.504-0.288-0.792c-0.216-0.72-0.144-1.224,0.216-1.368
			c0.216-0.144,0.432-0.144,0.576,0c0.216,0.072,0.432,0.432,0.72,0.936l6.984,13.104c0.288,0.576,0.432,0.936,0.432,1.224
			c0,0.216-0.144,0.36-0.36,0.504c-0.216,0.072-0.36,0.144-0.504,0c-0.216-0.072-0.432-0.36-0.792-0.792
			c-0.648-0.864-1.296-1.368-1.872-1.512c-0.576-0.216-1.296-0.072-2.088,0.36c-0.504,0.288-1.152,0.648-1.8,1.224
			c-0.648,0.504-1.368,1.152-2.088,1.944l-13.536,13.608L489.528,268.936z"/>
		<path style="fill:#FEE000;" d="M433.296,200.896c2.016-1.944,4.248-3.384,6.552-4.32c2.376-0.936,4.824-1.368,7.344-1.224
			c2.304,0.144,4.68,0.792,7.056,1.944c2.304,1.152,4.464,2.664,6.264,4.608c2.016,2.016,3.456,4.248,4.536,6.624
			c1.008,2.376,1.512,4.824,1.512,7.2c0,2.448-0.576,4.824-1.656,7.128c-1.008,2.304-2.592,4.392-4.68,6.408
			c-2.016,1.944-4.104,3.384-6.408,4.32c-2.232,0.936-4.608,1.368-7.056,1.296c-2.52,0-5.04-0.648-7.488-1.728
			c-2.448-1.152-4.608-2.736-6.624-4.824c-4.032-4.176-5.976-8.784-5.904-13.752C426.888,209.536,429.048,205,433.296,200.896
			L433.296,200.896z M439.128,207.52c-4.248,4.104-6.84,7.776-7.776,11.16c-0.936,3.384-0.144,6.264,2.232,8.856
			c2.52,2.52,5.472,3.384,8.928,2.664c3.456-0.792,7.272-3.168,11.448-7.128c4.392-4.248,7.056-8.064,7.992-11.376
			c1.008-3.313,0.216-6.264-2.232-8.857c-2.448-2.52-5.472-3.384-9-2.52C447.12,201.112,443.232,203.488,439.128,207.52z"/>
		<path style="fill:#FEE000;" d="M412.416,193.768c-2.232,3.168-3.456,5.328-3.672,6.48c-0.288,1.152-0.072,2.304,0.72,3.384
			c0.288,0.432,0.792,0.936,1.584,1.584c0.792,0.648,1.08,1.152,0.864,1.44c-0.144,0.216-0.36,0.36-0.576,0.288
			c-0.216,0-0.648-0.216-1.152-0.504l-15.12-10.584c-0.504-0.36-0.792-0.648-0.936-0.864c-0.144-0.216-0.144-0.504,0.072-0.72
			c0.216-0.36,0.792-0.288,1.8,0.288c0.504,0.288,0.864,0.504,1.224,0.648c1.368,0.648,2.592,0.72,3.672,0.072
			c1.152-0.576,2.88-2.521,5.184-5.904l9.576-13.68c1.512-2.16,2.304-3.744,2.376-4.824c0.072-1.008-0.432-1.944-1.656-2.736
			c-1.008-0.72-2.232-1.152-3.744-1.224c-1.512-0.144-3.312,0.072-5.328,0.576c-0.792,0.144-1.728,0.432-2.808,0.792
			c-1.152,0.36-1.872,0.504-2.088,0.288c-0.144-0.072-0.216-0.216-0.288-0.36c0-0.144,0.072-0.36,0.144-0.504
			c0.072-0.072,0.144-0.144,0.216-0.216c0.144-0.072,0.216-0.144,0.36-0.216l8.928-5.616c0.432-0.288,0.792-0.504,1.008-0.576
			c0.216-0.072,0.432-0.072,0.576,0c0.144,0.144,0.216,0.432,0.216,0.936c0,0.504,0.072,0.864,0.144,1.224
			c0.216,0.648,0.792,1.368,1.728,2.232c1.008,0.864,2.808,2.232,5.544,4.176l4.896,3.384c2.232,1.584,3.96,2.736,5.112,3.456
			c1.224,0.647,2.088,1.08,2.736,1.152c0.504,0.072,1.08,0,1.656-0.216c0.576-0.143,0.936-0.216,1.08-0.143
			c0.216,0.216,0.288,0.648,0.072,1.44c0,0.144,0,0.216-0.072,0.216l-2.232,10.368c0,0.144,0,0.288-0.072,0.36
			c-0.072,0.144-0.072,0.216-0.144,0.288c-0.072,0.144-0.216,0.288-0.36,0.288c-0.144,0.072-0.288,0-0.432-0.072
			c-0.288-0.216-0.432-0.864-0.504-2.088c0-1.152-0.072-2.16-0.144-2.952c-0.216-2.088-0.648-3.816-1.296-5.184
			c-0.648-1.368-1.44-2.376-2.448-3.096c-1.152-0.864-2.232-1.008-3.168-0.648c-0.936,0.432-2.16,1.728-3.672,3.96L412.416,193.768z
			"/>
		<path style="fill:#FEE000;" d="M368.712,171.016c-1.368,3.6-2.016,6.048-2.016,7.2c0,1.224,0.576,2.232,1.512,3.096
			c0.432,0.36,1.08,0.72,2.016,1.152c0.936,0.432,1.296,0.864,1.152,1.224c-0.072,0.288-0.216,0.432-0.504,0.432
			c-0.216,0-0.648-0.072-1.224-0.288l-16.92-6.48c-0.504-0.216-0.864-0.432-1.008-0.576c-0.144-0.216-0.144-0.36-0.072-0.648
			c0.144-0.36,0.72-0.432,1.728-0.216c0.504,0.144,0.936,0.288,1.224,0.288c1.368,0.288,2.52,0,3.456-0.936
			c0.864-0.864,2.088-3.24,3.528-6.984l4.68-12.168c1.368-3.672,2.088-6.12,2.088-7.272c0-1.152-0.432-2.16-1.296-2.952
			c-0.36-0.288-0.936-0.648-1.8-1.08c-0.936-0.432-1.296-0.792-1.08-1.224c0.072-0.216,0.216-0.36,0.432-0.432
			c0.216,0,0.576,0.072,1.152,0.288l18,6.912c2.304,0.864,4.104,1.728,5.4,2.448c1.224,0.792,2.304,1.584,3.096,2.52
			c1.08,1.224,1.728,2.592,1.944,4.104c0.288,1.512,0.144,3.024-0.432,4.464c-0.864,2.304-2.376,3.888-4.536,4.752
			c-2.16,0.864-4.824,1.008-7.992,0.36l2.448,13.392c0.216,1.512,0.648,2.808,1.08,3.816c0.504,1.008,1.152,1.728,1.872,2.304
			c0.288,0.216,0.72,0.504,1.296,0.72c0.792,0.432,1.152,0.864,1.008,1.224c-0.072,0.216-0.216,0.36-0.504,0.432
			c-0.216,0-0.648-0.072-1.224-0.36l-8.928-3.384c-0.72-0.288-1.152-0.504-1.368-0.72c-0.216-0.288-0.36-0.576-0.432-1.08
			l-3.024-19.079l-2.52-0.936L368.712,171.016L368.712,171.016z M371.376,164.104l1.368,0.576c1.08,0.432,2.232,0.576,3.384,0.576
			c1.152-0.072,2.232-0.288,3.312-0.72c0.432-0.216,0.864-0.576,1.368-1.008c0.432-0.432,0.72-0.648,0.936-0.576
			c0.216,0.072,0.216,0.576-0.072,1.44c-0.216,0.864-0.36,1.584-0.432,2.232c1.152-0.36,2.16-0.936,2.952-1.8
			c0.864-0.864,1.512-1.944,2.088-3.384c0.936-2.52,1.08-4.68,0.432-6.48c-0.72-1.728-2.232-3.024-4.536-3.96
			c-1.872-0.648-3.312-0.792-4.392-0.288c-1.008,0.504-1.944,1.8-2.736,3.816L371.376,164.104z"/>
		<path style="fill:#FEE000;" d="M312.192,152.944c0.36-2.808,1.08-5.328,2.304-7.56c1.152-2.232,2.808-4.104,4.824-5.616
			c1.872-1.44,4.032-2.448,6.624-3.024c2.52-0.648,5.112-0.864,7.776-0.576c2.808,0.288,5.4,1.08,7.704,2.232
			c2.376,1.152,4.248,2.664,5.76,4.464c1.584,1.944,2.736,4.104,3.384,6.552c0.648,2.448,0.792,5.112,0.504,7.992
			c-0.288,2.736-1.008,5.184-2.088,7.344c-1.152,2.16-2.664,4.032-4.608,5.616c-1.944,1.584-4.248,2.664-6.84,3.384
			c-2.592,0.72-5.328,0.864-8.136,0.576c-5.832-0.576-10.296-2.808-13.392-6.768C312.84,163.672,311.616,158.776,312.192,152.944
			L312.192,152.944z M320.904,154.24c-0.576,5.832-0.216,10.368,1.224,13.536c1.512,3.168,3.96,4.968,7.416,5.328
			c3.528,0.36,6.408-0.864,8.568-3.672c2.16-2.808,3.6-7.056,4.176-12.816c0.648-6.048,0.216-10.728-1.152-13.896
			c-1.44-3.096-3.888-4.896-7.415-5.256c-3.528-0.36-6.336,0.936-8.568,3.816C322.92,144.16,321.552,148.552,320.904,154.24z"/>
		<path style="fill:#FEE000;" d="M285.696,153.664l4.68-0.288c2.664-0.216,4.608-1.08,5.832-2.52c1.296-1.512,1.872-3.6,1.656-6.264
			c-0.144-2.592-0.936-4.464-2.232-5.76c-1.368-1.224-3.24-1.728-5.616-1.584c-2.016,0.144-3.384,0.648-4.104,1.584
			c-0.792,0.936-1.08,2.448-0.936,4.608L285.696,153.664L285.696,153.664z M286.2,161.008c0.288,3.888,0.72,6.336,1.224,7.416
			c0.576,1.08,1.44,1.728,2.664,2.088c0.504,0.144,1.296,0.216,2.304,0.216c1.08,0,1.584,0.216,1.584,0.648
			c0.072,0.288-0.072,0.432-0.288,0.576c-0.288,0.216-0.648,0.288-1.224,0.288l-18.072,1.296c-0.432,0-0.864,0-1.08-0.144
			c-0.216-0.072-0.36-0.288-0.432-0.576c0-0.432,0.504-0.72,1.512-0.864c0.504-0.072,0.936-0.144,1.224-0.288
			c1.368-0.36,2.304-1.08,2.736-2.304c0.432-1.152,0.504-3.744,0.216-7.776l-0.936-13.032c-0.216-3.888-0.648-6.408-1.08-7.488
			c-0.504-1.008-1.368-1.728-2.448-2.088c-0.504-0.144-1.152-0.216-2.16-0.144c-0.936,0-1.44-0.216-1.44-0.648
			c-0.072-0.288,0.072-0.504,0.216-0.648c0.216-0.144,0.576-0.216,1.152-0.216l19.224-1.368c2.52-0.144,4.464-0.216,5.976-0.072
			c1.44,0.144,2.736,0.504,3.816,1.008c1.512,0.648,2.664,1.584,3.528,2.88c0.936,1.224,1.368,2.664,1.512,4.248
			c0.216,3.096-0.936,5.544-3.384,7.344c-2.448,1.8-6.192,2.88-11.16,3.168l-5.544,0.432L286.2,161.008z"/>
		<path style="fill:#FEE000;" d="M262.08,148.984c0.144,0.216,0.288,0.432,0.36,0.504c0.072,0.144,0.072,0.288,0.144,0.36
			c0.072,0.288,0.072,0.432,0,0.648c-0.072,0.144-0.216,0.216-0.36,0.288c-0.432,0.144-1.296-0.432-2.592-1.728
			c-0.792-0.648-1.368-1.224-1.8-1.584c-1.44-1.224-3.168-2.16-5.256-2.664c-2.016-0.504-3.96-0.504-5.688,0
			c-2.232,0.576-3.888,1.584-4.968,3.024c-1.08,1.512-1.44,3.096-0.936,4.752c0.216,0.864,0.576,1.512,1.08,2.088
			c0.504,0.576,1.224,1.008,2.16,1.368c0.72,0.288,3.744,0.432,8.928,0.432c1.368,0,2.448,0.072,3.24,0.072
			c3.384,0,5.976,0.648,7.92,1.872c2.016,1.224,3.312,3.096,3.96,5.616c0.936,3.456,0.36,6.696-1.656,9.648
			c-2.016,2.952-5.112,4.968-9.288,6.048c-1.08,0.288-2.304,0.504-3.6,0.648c-1.296,0.144-2.088,0.216-2.232,0.288
			c-0.864,0.216-1.44,0.864-1.8,1.872c-0.432,1.08-0.648,1.584-0.864,1.656c-0.144,0.072-0.288,0-0.36-0.072
			c-0.144-0.072-0.36-0.216-0.504-0.504l-8.136-10.008c-0.072-0.144-0.216-0.288-0.36-0.504c-0.072-0.144-0.144-0.216-0.216-0.288
			c0-0.216,0-0.432,0.072-0.576c0.072-0.216,0.216-0.288,0.36-0.36c0.288-0.072,1.08,0.36,2.376,1.44
			c1.224,1.08,2.52,1.944,3.744,2.664c2.088,1.296,4.104,2.088,5.976,2.448c1.872,0.36,3.816,0.216,5.76-0.288
			c2.304-0.648,3.96-1.728,5.112-3.24c1.152-1.584,1.44-3.312,0.936-5.184c-0.792-2.88-4.896-4.392-12.456-4.464
			c-0.504,0-0.936,0-1.152,0c-4.536-0.144-7.776-0.72-9.792-1.8c-2.016-1.08-3.384-2.88-4.032-5.4
			c-0.864-3.096-0.288-6.048,1.656-8.856c1.944-2.808,4.752-4.68,8.496-5.688c1.152-0.288,2.448-0.504,3.888-0.648
			c1.512-0.072,2.376-0.144,2.664-0.288c0.792-0.216,1.296-0.72,1.368-1.584c0.144-0.792,0.288-1.296,0.504-1.296
			c0.144-0.072,0.216,0,0.36,0.072c0.144,0.144,0.36,0.36,0.576,0.648L262.08,148.984z"/>
		<path style="fill:#FEE000;" d="M184.032,221.632c-0.36,0.288-0.72,0.432-0.936,0.504c-0.288,0.072-0.504-0.072-0.648-0.216
			c-0.288-0.36-0.072-0.864,0.648-1.584c0.432-0.36,0.72-0.648,0.936-0.936c0.936-1.08,1.224-2.232,0.936-3.456
			c-0.288-1.152-1.656-3.384-4.176-6.552l-7.992-10.296c-2.448-3.096-4.176-4.968-5.184-5.544c-0.936-0.648-2.016-0.72-3.168-0.432
			c-0.432,0.144-1.08,0.504-1.872,1.008c-0.792,0.576-1.296,0.648-1.584,0.288c-0.144-0.144-0.216-0.36-0.144-0.576
			c0.072-0.216,0.36-0.504,0.864-0.864l16.056-12.528c3.312-2.592,6.264-4.032,8.784-4.176c2.592-0.216,4.752,0.864,6.552,3.096
			c1.296,1.728,1.8,3.6,1.44,5.616c-0.36,2.016-1.656,4.032-3.672,6.12c3.024-1.8,5.832-2.664,8.352-2.52
			c2.448,0.144,4.536,1.224,6.192,3.384c1.944,2.52,2.448,5.256,1.584,8.28c-0.936,3.024-3.168,5.904-6.84,8.784L184.032,221.632
			L184.032,221.632z M182.232,198.88l7.704,9.936c1.08,1.368,2.304,2.088,3.528,2.088c1.296,0.072,2.736-0.576,4.392-1.8
			c2.16-1.728,3.384-3.672,3.6-5.76c0.216-2.088-0.648-4.247-2.448-6.624c-1.872-2.376-3.744-3.672-5.688-3.888
			c-1.944-0.216-4.104,0.576-6.48,2.448L182.232,198.88L182.232,198.88z M181.44,197.872l5.256-4.104
			c1.728-1.296,2.592-2.808,2.736-4.536c0.072-1.656-0.576-3.456-2.088-5.4c-1.584-1.944-3.168-3.096-4.824-3.312
			c-1.728-0.216-3.528,0.432-5.472,1.944c-1.8,1.44-2.808,2.736-2.88,3.96c-0.144,1.296,0.576,2.88,2.088,4.824L181.44,197.872z"/>
		<path style="fill:#FEE000;" d="M141.48,235.456c-3.024-2.448-5.112-3.888-6.192-4.248c-1.152-0.36-2.16-0.288-3.168,0.216
			c-0.432,0.216-0.936,0.648-1.512,1.368c-0.648,0.648-1.152,0.792-1.44,0.504c-0.216-0.144-0.36-0.36-0.288-0.576
			c0-0.216,0.216-0.504,0.576-0.936l11.232-13.824c0.36-0.504,0.648-0.792,0.864-0.864c0.216-0.144,0.432-0.072,0.648,0.072
			c0.36,0.288,0.216,0.864-0.432,1.8c-0.288,0.504-0.504,0.864-0.72,1.152c-0.72,1.368-0.864,2.592-0.288,3.744
			c0.504,1.152,2.376,3.024,5.544,5.616l11.448,9.288c1.224,1.008,2.232,1.656,3.024,2.088c0.792,0.36,1.512,0.576,2.304,0.72
			c1.296,0.144,2.592-0.144,3.888-0.864c1.368-0.72,2.664-1.872,3.96-3.456c2.376-2.952,3.384-5.616,3.024-8.064
			c-0.36-2.52-2.16-5.04-5.328-7.56l-10.152-8.28c-2.232-1.8-4.104-2.88-5.688-3.312c-1.584-0.432-2.952-0.216-4.032,0.72
			c-0.36,0.216-0.72,0.576-1.152,1.08c-0.72,0.72-1.296,0.936-1.656,0.72c-0.144-0.216-0.288-0.36-0.216-0.576
			c0.072-0.288,0.216-0.576,0.576-1.008l7.416-9.216c0.432-0.504,0.72-0.792,0.936-0.864c0.216-0.072,0.432-0.072,0.648,0.144
			c0.288,0.216,0.216,0.72-0.216,1.368c-0.216,0.288-0.36,0.504-0.432,0.648c-0.648,1.224-0.576,2.592,0.216,4.104
			c0.864,1.584,2.304,3.24,4.464,4.968l10.872,8.784c3.384,2.808,5.184,5.688,5.256,8.64c0.072,2.952-1.512,6.408-4.68,10.368
			c-1.584,1.944-3.24,3.528-4.896,4.752c-1.728,1.224-3.384,2.016-5.04,2.376c-1.44,0.36-2.736,0.288-3.96-0.072
			c-1.224-0.36-2.736-1.296-4.608-2.808L141.48,235.456z"/>
		<path style="fill:#FEE000;" d="M143.64,286.504c-0.216,0.432-0.432,0.72-0.648,0.864c-0.216,0.216-0.432,0.216-0.648,0.072
			c-0.432-0.144-0.432-0.72-0.072-1.728c0.144-0.432,0.288-0.864,0.36-1.152c0.36-1.44,0.144-2.592-0.72-3.528
			c-0.792-0.936-3.024-2.304-6.696-4.032l-11.808-5.472c-3.6-1.656-5.976-2.52-7.128-2.592c-1.152-0.144-2.16,0.288-2.952,1.08
			c-0.36,0.36-0.792,0.936-1.224,1.8c-0.432,0.792-0.864,1.152-1.296,0.936c-0.216-0.072-0.36-0.288-0.36-0.504
			c-0.072-0.216,0.072-0.576,0.288-1.152l7.632-16.416c0.288-0.504,0.504-0.864,0.72-1.008c0.144-0.144,0.36-0.216,0.648-0.072
			c0.36,0.144,0.36,0.792,0,1.8c-0.216,0.576-0.36,1.008-0.432,1.296c-0.36,1.512-0.216,2.808,0.648,3.816
			c0.792,1.008,3.024,2.376,6.696,4.032l15.048,7.056c2.376,1.08,4.104,1.44,5.256,1.08c1.224-0.36,2.232-1.512,3.168-3.384
			c0.864-1.944,1.368-3.888,1.368-5.832c0.072-1.944-0.36-4.032-1.152-6.264c-0.504-1.224-1.08-2.448-1.8-3.672
			c-0.72-1.224-1.008-2.016-0.864-2.232c0.072-0.144,0.144-0.216,0.36-0.288c0.144,0,0.288,0,0.432,0.072
			c0.072,0,0.144,0.072,0.288,0.216c0.144,0.144,0.288,0.288,0.504,0.504l9.072,10.728c0.216,0.288,0.432,0.504,0.432,0.648
			c0.072,0.072,0.072,0.216,0,0.36c-0.144,0.288-0.432,0.36-1.008,0.288c-0.576-0.072-0.936-0.072-1.224,0
			c-0.936,0.288-1.872,1.008-2.736,2.088c-0.936,1.152-1.944,3.024-3.096,5.544L143.64,286.504z"/>
		<path style="fill:#FEE000;" d="M125.568,313.576c3.816,0.72,6.336,1.008,7.488,0.72c1.152-0.216,2.088-0.864,2.736-2.016
			c0.288-0.432,0.504-1.152,0.792-2.16c0.288-1.008,0.576-1.44,1.008-1.368c0.288,0.072,0.432,0.216,0.504,0.432
			c0.072,0.216,0.072,0.648,0,1.296l-3.456,17.784c-0.144,0.504-0.288,0.864-0.432,1.08c-0.144,0.144-0.36,0.216-0.648,0.144
			c-0.432-0.072-0.576-0.648-0.504-1.656c0.072-0.504,0.072-0.936,0.072-1.224c0-1.44-0.504-2.52-1.512-3.24
			c-1.008-0.72-3.528-1.512-7.488-2.232l-12.816-2.52c-3.816-0.72-6.336-1.008-7.488-0.792c-1.152,0.144-2.016,0.792-2.664,1.8
			c-0.216,0.36-0.504,1.008-0.72,1.944c-0.288,0.936-0.648,1.368-1.08,1.296c-0.216-0.072-0.36-0.216-0.432-0.36
			c-0.072-0.216-0.072-0.648,0-1.224l3.456-17.784c0.144-0.576,0.288-1.008,0.432-1.152c0.144-0.216,0.36-0.288,0.576-0.216
			c0.432,0.072,0.648,0.648,0.504,1.728c-0.072,0.576-0.072,1.008-0.144,1.368c0,1.584,0.504,2.736,1.584,3.528
			c1.008,0.792,3.528,1.584,7.488,2.304l7.704,1.512l-1.8-2.88c-0.072-0.144-0.216-0.36-0.432-0.576
			c-1.368-2.304-3.024-3.96-4.968-5.112c-0.432-0.288-0.936-0.504-1.584-0.72c-0.576-0.216-0.864-0.432-0.792-0.72
			c0-0.288,0.504-0.504,1.296-0.576c0.576-0.072,1.08-0.216,1.44-0.288l-0.792-1.296c-1.08-1.728-2.088-3.024-2.88-3.96
			c-0.864-0.864-1.584-1.368-2.232-1.44c-0.72-0.144-1.296-0.072-1.656,0.288c-0.36,0.288-0.72,1.224-1.08,2.736
			c-0.216,0.72-0.36,1.152-0.504,1.368c-0.144,0.216-0.36,0.288-0.648,0.216c-0.216,0-0.432-0.144-0.504-0.36
			c-0.072-0.216,0-0.576,0.072-1.152l2.88-14.76c0.072-0.504,0.216-0.864,0.36-1.08c0.144-0.144,0.36-0.216,0.576-0.144
			c0.504,0.072,0.648,0.648,0.576,1.728c0,0.144,0,0.216,0,0.216c-0.072,1.728,0.288,3.744,1.008,5.904
			c0.72,2.232,1.8,4.392,3.096,6.48l3.024,4.896l19.08-7.92c1.944-0.792,3.384-1.512,4.392-2.304c1.008-0.72,1.728-1.512,2.16-2.376
			c0.072-0.216,0.216-0.576,0.36-1.08c0.288-0.864,0.576-1.224,1.008-1.152c0.288,0.072,0.432,0.216,0.504,0.432
			c0.072,0.216,0,0.648-0.072,1.224l-3.528,18.072c-0.144,0.576-0.216,0.936-0.36,1.08c-0.144,0.216-0.36,0.216-0.648,0.216
			c-0.216-0.072-0.432-0.216-0.504-0.432c-0.072-0.288,0-0.792,0.072-1.584c0.216-1.512,0.288-2.52,0.072-3.096
			c-0.144-0.504-0.576-0.864-1.224-0.936c-0.648-0.144-2.016,0.144-3.96,0.936l0,0l-13.176,5.328l3.096,5.184L125.568,313.576z"/>
	</g>
	<polygon style="fill:#008743;" points="281.952,345.904 333.36,345.904 333.36,358.936 325.152,358.936 325.152,447.784 
		333.36,447.784 333.36,460.6 281.952,460.6 281.952,447.784 290.16,447.784 290.16,358.936 281.952,358.936 	"/>
	
		<ellipse transform="matrix(0.1802 -0.9836 0.9836 0.1802 -61.8548 562.5844)" style="fill:#008743;" cx="306.576" cy="318.4" rx="20.664" ry="20.664"/>
	<g>
		<path style="fill:#FEE000;" d="M207.216,603.808c0.648-1.008,0.864-1.728,0.72-2.16c-0.144-0.504-0.936-1.224-2.448-2.232
			l-0.504-0.288l-1.44-0.936c-0.432-0.288-0.72-0.504-0.792-0.648c-0.072-0.072,0-0.216,0.072-0.36
			c0.144-0.288,0.72-0.216,1.728,0.288c0.792,0.36,1.44,0.648,2.016,0.864c2.52,0.936,5.328,1.656,8.28,2.088
			c0.792,0.144,1.296,0.216,1.44,0.288c0.072,0.072,0.144,0.216,0.144,0.36c0.072,0.144,0,0.288-0.144,0.504
			c-0.144,0.144-0.432,0.576-0.936,1.224c-0.504,0.72-0.936,1.368-1.296,1.944l-9.648,14.76c-1.152,1.8-1.728,3.24-1.656,4.176
			c0,1.008,0.648,1.944,1.872,2.808c0.216,0.216,0.504,0.432,0.936,0.72c0.936,0.72,1.296,1.152,1.08,1.512
			c-0.144,0.144-0.216,0.216-0.36,0.216c-0.144,0-0.432-0.072-0.792-0.36l-15.264-9.864c-0.36-0.288-0.576-0.432-0.648-0.576
			c-0.072-0.144-0.072-0.288,0.072-0.432c0.216-0.36,0.792-0.216,1.656,0.288c0.576,0.36,1.008,0.576,1.368,0.792
			c1.368,0.72,2.52,0.936,3.384,0.576c0.936-0.36,1.944-1.44,3.096-3.24L207.216,603.808z"/>
		<path style="fill:#FEE000;" d="M223.344,617.848c1.512-0.072,2.952,0,4.248,0.216c1.368,0.288,2.664,0.648,3.888,1.224
			c2.808,1.368,4.824,3.24,5.832,5.76c1.08,2.448,1.008,4.968-0.144,7.488c-1.296,2.808-3.456,4.536-6.408,5.4
			c-2.952,0.792-6.048,0.432-9.432-1.152c-2.664-1.224-4.608-2.88-5.76-4.968c-1.152-2.016-1.368-3.96-0.504-5.76
			c0.504-1.008,1.152-1.656,2.16-2.016c0.936-0.36,1.944-0.288,2.952,0.144c1.08,0.504,1.8,1.296,2.16,2.232
			c0.36,0.936,0.288,1.944-0.216,2.952c-0.144,0.36-0.36,0.648-0.504,0.864c-0.216,0.144-0.504,0.288-0.792,0.288
			c0.072-0.432,0-0.864-0.072-1.152c-0.144-0.288-0.36-0.504-0.72-0.648c-0.432-0.216-0.864-0.216-1.224,0
			c-0.432,0.144-0.792,0.504-1.008,1.008c-0.432,0.936-0.36,1.944,0.36,3.096c0.72,1.08,1.8,2.016,3.312,2.736
			c1.944,0.864,3.744,1.008,5.4,0.432c1.656-0.576,2.952-1.872,3.816-3.744c0.936-2.016,1.08-3.96,0.36-5.616
			c-0.792-1.8-2.232-3.168-4.536-4.248c-1.44-0.648-3.168-1.008-5.112-1.08c-0.504,0-0.792-0.072-0.936-0.072
			c-0.144-0.072-0.216-0.216-0.216-0.288c-0.072-0.072-0.072-0.216,0.072-0.432c0,0,0.072-0.144,0.216-0.36
			c1.368-2.088,2.736-4.536,4.104-7.488c1.008-2.088,1.728-4.032,2.088-5.76c0.072-0.144,0.072-0.288,0.072-0.288
			c0.144-0.216,0.216-0.288,0.36-0.432c0.144-0.072,0.288-0.072,0.432,0c0.216,0.144,0.288,0.288,0.36,0.504
			c0,0.288-0.072,0.576-0.288,1.008l11.592,5.4c0.504,0.216,0.936,0.36,1.368,0.504c0.432,0.144,0.792,0.144,1.08,0.144
			c0.216,0,0.576-0.144,0.936-0.36c0.36-0.216,0.648-0.288,0.864-0.216c0.144,0.144,0.288,0.216,0.36,0.288
			c0,0.144,0,0.216-0.072,0.36c0,0.144-0.144,0.288-0.432,0.648c-0.072,0-0.144,0.072-0.144,0.072l-3.528,3.456
			c-0.216,0.216-0.432,0.36-0.648,0.36c-0.216,0.072-0.432,0-0.72-0.144l-12.384-5.76L223.344,617.848z"/>
		<path style="fill:#FEE000;" d="M242.496,641.176c0.288-0.936,0.864-1.584,1.656-1.944c0.792-0.432,1.656-0.504,2.52-0.144
			c0.936,0.288,1.584,0.864,2.016,1.656c0.432,0.864,0.432,1.728,0.144,2.592c-0.288,0.864-0.864,1.512-1.728,1.944
			c-0.864,0.432-1.728,0.432-2.592,0.144c-0.864-0.288-1.512-0.864-1.944-1.656C242.208,642.904,242.136,642.04,242.496,641.176z"/>
		<path style="fill:#FEE000;" d="M272.088,622.672c-1.656-0.288-3.096,0.648-4.464,2.952c-1.368,2.304-2.448,5.832-3.384,10.584
			c-0.864,4.248-1.008,7.56-0.648,10.008c0.432,2.448,1.44,3.816,3.096,4.104c1.584,0.36,3.096-0.648,4.392-2.88
			c1.368-2.232,2.448-5.616,3.384-10.152c0.792-4.32,1.08-7.776,0.648-10.368C274.68,624.4,273.672,622.96,272.088,622.672
			L272.088,622.672z M258.12,634.768c0.36-1.872,0.936-3.528,1.656-5.112c0.792-1.512,1.728-2.88,2.808-4.104
			c1.44-1.584,3.024-2.664,4.68-3.24c1.656-0.648,3.456-0.792,5.256-0.432c1.44,0.288,2.736,0.864,3.888,1.8
			c1.224,0.936,2.16,2.088,2.88,3.528c0.864,1.584,1.44,3.312,1.656,5.184c0.216,1.944,0.144,3.888-0.288,5.976
			c-0.36,1.656-0.792,3.24-1.44,4.68c-0.648,1.368-1.512,2.664-2.448,3.816c-1.44,1.8-3.096,3.024-4.824,3.816
			c-1.8,0.72-3.672,0.864-5.544,0.504c-1.224-0.216-2.304-0.648-3.24-1.224c-1.008-0.648-1.872-1.44-2.52-2.376
			c-1.296-1.728-2.16-3.672-2.592-5.904C257.616,639.52,257.616,637.216,258.12,634.768z"/>
		<path style="fill:#FEE000;" d="M300.096,637.576c0.72-0.648,1.296-1.296,1.728-2.088c0.36-0.792,0.648-1.656,0.72-2.664
			c0.144-1.8-0.216-3.312-1.152-4.536c-0.936-1.224-2.232-1.872-3.888-2.016c-1.368-0.144-2.592,0.216-3.6,1.008
			c-1.008,0.72-1.584,1.728-1.728,3.024c-0.072,1.296,0.432,2.448,1.584,3.6C294.984,634.984,297.072,636.208,300.096,637.576
			L300.096,637.576z M292.032,640.384c-0.864,0.864-1.512,1.8-2.016,2.88c-0.576,1.152-0.864,2.232-0.936,3.456
			c-0.216,1.944,0.288,3.672,1.368,5.04c1.152,1.44,2.664,2.16,4.536,2.376c1.872,0.144,3.384-0.216,4.608-1.152
			c1.224-0.864,1.944-2.088,2.088-3.672c0.144-1.512-0.432-2.88-1.728-4.104C298.728,643.912,296.064,642.328,292.032,640.384
			L292.032,640.384z M291.096,639.664c-1.44-0.792-2.52-1.8-3.24-2.952c-0.72-1.224-1.008-2.592-0.864-4.032
			c0.216-2.304,1.368-4.176,3.528-5.616c2.088-1.44,4.68-2.016,7.704-1.728c2.88,0.216,5.112,1.08,6.696,2.448
			c1.584,1.368,2.232,3.096,2.088,5.112c-0.144,1.296-0.648,2.376-1.656,3.24c-0.936,0.936-2.448,1.584-4.32,2.016
			c2.304,1.152,3.96,2.376,5.04,3.816c0.936,1.368,1.368,3.024,1.224,4.824c-0.288,2.664-1.512,4.824-3.888,6.408
			c-2.448,1.584-5.328,2.304-8.712,1.944c-3.312-0.288-5.904-1.224-7.848-2.808c-1.872-1.656-2.736-3.6-2.52-5.904
			c0.144-1.584,0.72-2.952,1.872-4.104C287.352,641.176,289.008,640.312,291.096,639.664z"/>
		<path style="fill:#FEE000;" d="M314.064,651.904c-0.072-1.008,0.216-1.8,0.792-2.52c0.576-0.648,1.296-1.008,2.232-1.152
			c1.008-0.072,1.8,0.216,2.52,0.792c0.72,0.576,1.08,1.296,1.152,2.304c0.144,0.864-0.144,1.728-0.72,2.448
			c-0.648,0.72-1.44,1.08-2.376,1.224c-0.936,0.072-1.728-0.216-2.376-0.792C314.568,653.632,314.136,652.84,314.064,651.904z"/>
		<path style="fill:#FEE000;" d="M333.576,631.024c-0.216-1.152-0.576-1.8-1.008-2.088c-0.36-0.216-1.512-0.144-3.24,0.144
			l-0.576,0.144l-1.656,0.288c-0.576,0.144-0.864,0.144-1.008,0.144c-0.144-0.072-0.216-0.144-0.288-0.36
			c0-0.288,0.432-0.648,1.44-1.008c0.864-0.288,1.512-0.504,2.088-0.792c2.52-1.008,4.968-2.448,7.416-4.248
			c0.648-0.432,1.08-0.72,1.224-0.72c0.144,0,0.288,0,0.36,0.072c0.072,0.144,0.144,0.288,0.216,0.504
			c0.072,0.216,0.144,0.72,0.216,1.584c0.144,0.864,0.216,1.584,0.36,2.232l3.384,17.352c0.432,2.088,0.936,3.528,1.656,4.176
			c0.72,0.648,1.8,0.936,3.312,0.72c0.36,0,0.72-0.072,1.224-0.144c1.08-0.144,1.728-0.072,1.8,0.288c0,0.216,0,0.36-0.144,0.504
			c-0.072,0.072-0.36,0.144-0.792,0.216l-17.856,3.528c-0.432,0.072-0.72,0.072-0.864,0c-0.144,0-0.216-0.144-0.216-0.288
			c-0.072-0.432,0.36-0.72,1.44-1.008c0.576-0.144,1.08-0.288,1.44-0.36c1.512-0.432,2.52-1.08,2.88-1.944
			c0.432-0.864,0.432-2.376,0-4.464L333.576,631.024z"/>
		<path style="fill:#FEE000;" d="M366.84,625.408c-0.864-2.592-2.016-4.464-3.312-5.688c-1.296-1.152-2.664-1.512-4.104-1.008
			c-1.512,0.504-2.376,1.584-2.808,3.24c-0.36,1.656-0.144,3.744,0.72,6.12c0.936,2.88,2.088,4.824,3.312,5.976
			c1.296,1.152,2.664,1.512,4.248,1.008c1.44-0.504,2.376-1.656,2.736-3.312C367.992,630.016,367.704,627.928,366.84,625.408
			L366.84,625.408z M368.928,629.584c0.072,1.872-0.36,3.384-1.224,4.608c-0.792,1.224-2.088,2.16-3.888,2.808
			c-2.664,0.864-5.112,0.792-7.272-0.216c-2.232-1.008-3.816-2.88-4.68-5.472c-1.008-2.952-0.864-5.688,0.432-8.28
			c1.368-2.52,3.528-4.32,6.624-5.4c3.312-1.152,6.336-0.864,9.216,0.864c2.808,1.656,4.897,4.464,6.264,8.424
			c0.72,2.088,1.08,4.32,1.008,6.624c-0.072,2.304-0.576,4.464-1.44,6.48c-0.72,1.584-1.656,2.952-2.808,4.032
			c-1.224,1.152-2.592,1.944-4.248,2.52c-2.232,0.792-4.248,0.936-6.048,0.504c-1.8-0.504-2.952-1.368-3.384-2.736
			c-0.288-0.72-0.288-1.44,0.072-2.088c0.288-0.648,0.792-1.08,1.512-1.368c0.792-0.288,1.584-0.288,2.232,0.072
			c0.648,0.288,1.08,0.864,1.368,1.728c0.072,0.144,0.144,0.432,0.216,0.792c0,0.36,0.072,0.648,0.144,0.792
			c0.216,0.72,0.72,1.224,1.296,1.44c0.648,0.216,1.44,0.144,2.376-0.144c2.16-0.792,3.456-2.448,3.816-5.112
			C370.872,637.792,370.368,634.192,368.928,629.584z"/>
		<path style="fill:#FEE000;" d="M391.68,614.824c-1.152-2.52-2.448-4.32-3.888-5.328c-1.44-1.008-2.808-1.224-4.248-0.576
			c-1.368,0.648-2.16,1.8-2.376,3.528c-0.216,1.728,0.216,3.744,1.296,6.048c1.296,2.664,2.592,4.536,3.96,5.544
			c1.368,1.08,2.808,1.224,4.32,0.504c1.368-0.648,2.16-1.8,2.304-3.528C393.264,619.288,392.76,617.2,391.68,614.824
			L391.68,614.824z M394.128,618.712c0.288,1.872,0.072,3.456-0.648,4.752c-0.72,1.296-1.944,2.376-3.6,3.168
			c-2.592,1.152-4.968,1.368-7.272,0.576c-2.376-0.792-4.104-2.448-5.256-4.968c-1.296-2.808-1.44-5.544-0.36-8.28
			c1.008-2.664,3.024-4.68,5.976-6.048c3.168-1.512,6.192-1.512,9.216-0.144c3.024,1.368,5.4,3.96,7.128,7.704
			c1.008,2.088,1.512,4.248,1.728,6.552c0.144,2.232-0.144,4.464-0.792,6.552c-0.504,1.728-1.296,3.168-2.376,4.392
			c-1.008,1.152-2.376,2.16-3.888,2.88c-2.16,1.008-4.176,1.368-5.976,1.08c-1.872-0.216-3.096-1.008-3.744-2.304
			c-0.288-0.72-0.36-1.44-0.072-2.088c0.216-0.648,0.648-1.152,1.296-1.512c0.864-0.36,1.584-0.432,2.232-0.216
			c0.72,0.288,1.224,0.792,1.584,1.584c0.072,0.216,0.216,0.504,0.288,0.864c0.072,0.288,0.144,0.576,0.216,0.72
			c0.36,0.72,0.864,1.08,1.512,1.224c0.648,0.216,1.368,0.072,2.304-0.36c2.088-0.936,3.168-2.808,3.24-5.472
			C397.008,626.704,396.072,623.176,394.128,618.712z"/>
		<path style="fill:#FEE000;" d="M413.928,601.144c-1.512-2.376-3.024-3.96-4.608-4.752c-1.584-0.864-3.024-0.864-4.248,0
			c-1.296,0.864-1.944,2.088-1.944,3.816c0.072,1.728,0.792,3.672,2.16,5.832c1.656,2.448,3.168,4.104,4.68,4.968
			c1.512,0.792,2.952,0.792,4.32-0.072c1.296-0.864,1.944-2.16,1.872-3.888C416.088,605.248,415.368,603.304,413.928,601.144
			L413.928,601.144z M416.88,604.672c0.504,1.8,0.504,3.384,0,4.752c-0.504,1.44-1.584,2.592-3.096,3.6
			c-2.376,1.584-4.752,2.088-7.2,1.584c-2.376-0.432-4.32-1.872-5.832-4.176c-1.656-2.592-2.16-5.256-1.512-8.064
			c0.648-2.808,2.376-5.112,5.112-6.912c2.88-1.872,5.904-2.376,9.072-1.368c3.168,0.936,5.904,3.168,8.136,6.624
			c1.224,1.872,2.088,3.96,2.592,6.192c0.504,2.232,0.504,4.464,0.144,6.624c-0.288,1.8-0.864,3.312-1.728,4.68
			c-0.864,1.296-2.016,2.448-3.456,3.384c-2.016,1.296-3.96,1.944-5.76,1.944c-1.872,0-3.24-0.576-4.032-1.8
			c-0.36-0.648-0.504-1.368-0.432-2.016c0.144-0.72,0.576-1.296,1.152-1.728c0.792-0.432,1.512-0.648,2.232-0.504
			c0.648,0.216,1.224,0.648,1.728,1.368c0.144,0.144,0.216,0.432,0.36,0.792c0.144,0.288,0.288,0.576,0.36,0.72
			c0.432,0.576,1.008,0.936,1.656,1.008c0.648,0.072,1.44-0.144,2.232-0.72c1.944-1.224,2.736-3.168,2.448-5.832
			C420.768,612.16,419.4,608.776,416.88,604.672z"/>
	</g>
	<g>
		<path style="fill:#FEE000;" d="M220.608,536.128h3.888c1.296,0,2.232-0.432,2.88-1.224c0.648-0.864,1.008-2.016,1.008-3.6
			c0-1.656-0.36-2.808-1.08-3.6c-0.648-0.792-1.728-1.152-3.168-1.152c-1.296,0-2.232,0.288-2.736,0.864
			c-0.504,0.576-0.792,1.656-0.792,3.24V536.128L220.608,536.128z M220.608,536.92v8.064c0,1.152,0.288,1.944,0.864,2.52
			c0.576,0.504,1.44,0.72,2.664,0.72c1.656,0,2.88-0.432,3.744-1.44c0.792-1.008,1.224-2.448,1.224-4.32
			c0-1.944-0.36-3.312-1.224-4.248c-0.792-0.864-2.088-1.296-3.816-1.296H220.608L220.608,536.92z M213.336,549.16
			c-0.288,0-0.504-0.072-0.648-0.144c-0.144-0.072-0.216-0.216-0.216-0.36c0-0.288,0.288-0.432,0.864-0.504
			c0.288-0.072,0.576-0.072,0.72-0.144c0.864-0.143,1.44-0.648,1.728-1.368c0.288-0.72,0.432-2.376,0.432-4.968v-8.424
			c0-2.52-0.144-4.104-0.36-4.824c-0.216-0.72-0.648-1.224-1.296-1.44c-0.288-0.144-0.72-0.216-1.224-0.288
			c-0.576,0-0.864-0.144-0.864-0.432c0-0.216,0.072-0.288,0.144-0.36c0.144-0.072,0.36-0.144,0.72-0.144h11.88
			c2.448,0,4.32,0.504,5.544,1.368c1.224,0.936,1.872,2.304,1.872,4.176c0,1.44-0.432,2.52-1.368,3.384
			c-0.864,0.936-2.16,1.44-3.888,1.728c2.088,0.216,3.672,0.936,4.752,1.944c1.08,1.08,1.656,2.52,1.656,4.176
			c0,2.088-0.792,3.672-2.232,4.824c-1.512,1.224-3.6,1.8-6.336,1.8H213.336z"/>
		<path style="fill:#FEE000;" d="M243.072,536.92h0.864c0.72,0,1.368-0.144,1.944-0.432c0.648-0.288,1.224-0.648,1.656-1.224
			c0.216-0.216,0.36-0.504,0.576-0.864c0.144-0.36,0.288-0.576,0.36-0.576c0.144,0,0.216,0.288,0.288,0.864
			c0.072,0.576,0.144,1.08,0.216,1.44c0.576-0.504,0.936-1.08,1.224-1.728c0.288-0.72,0.432-1.584,0.432-2.52
			c0-1.8-0.36-3.096-1.152-3.96c-0.72-0.936-1.8-1.368-3.24-1.368c-1.152,0-2.016,0.288-2.448,0.864
			c-0.504,0.504-0.72,1.512-0.72,2.88V536.92L243.072,536.92z M243.072,541.672c0,2.448,0.144,4.104,0.432,4.824
			c0.216,0.72,0.72,1.152,1.44,1.44c0.288,0.144,0.72,0.216,1.368,0.288c0.576,0,0.864,0.144,0.864,0.432
			c0,0.216-0.072,0.288-0.144,0.36c-0.144,0.072-0.432,0.144-0.792,0.144h-10.512c-0.36,0-0.576-0.072-0.72-0.144
			c-0.072-0.072-0.144-0.144-0.144-0.36c0-0.288,0.288-0.432,0.864-0.504c0.36,0,0.576-0.072,0.72-0.072
			c0.864-0.216,1.368-0.648,1.728-1.368c0.288-0.792,0.432-2.448,0.432-5.04v-8.424c0-2.52-0.144-4.104-0.36-4.824
			c-0.216-0.72-0.648-1.224-1.296-1.44c-0.288-0.144-0.72-0.216-1.224-0.288c-0.576,0-0.864-0.144-0.864-0.432
			c0-0.216,0.072-0.288,0.144-0.36c0.144-0.072,0.36-0.144,0.72-0.144h11.232c1.44,0,2.592,0.072,3.456,0.288
			c0.864,0.144,1.584,0.432,2.232,0.792c0.792,0.504,1.44,1.152,1.872,1.944c0.504,0.864,0.72,1.8,0.72,2.808
			c0,1.584-0.504,2.88-1.512,3.96c-1.008,1.008-2.376,1.656-4.248,2.016l4.104,7.488c0.504,0.864,0.936,1.512,1.44,2.016
			c0.432,0.504,0.936,0.792,1.512,1.008c0.144,0.072,0.432,0.072,0.792,0.144c0.576,0,0.792,0.216,0.864,0.432
			c0,0.216-0.072,0.288-0.216,0.36c-0.144,0.072-0.36,0.144-0.72,0.144h-5.616c-0.432,0-0.72-0.072-0.864-0.144
			c-0.144-0.072-0.288-0.288-0.432-0.504l-5.688-10.8h-1.584V541.672z"/>
		<path style="fill:#FEE000;" d="M275.472,525.76c0.288,0,0.432,0.072,0.576,0.144c0.072,0,0.144,0.144,0.144,0.288
			c0,0.072-0.072,0.216-0.072,0.36c-0.072,0.072-0.144,0.216-0.216,0.432l-13.248,21.24h4.464c1.944,0,3.456-0.216,4.608-0.648
			c1.08-0.504,2.16-1.296,3.168-2.448c0.432-0.576,0.936-1.296,1.368-2.016c0.432-0.792,0.72-1.152,0.936-1.152
			c0.072,0,0.216,0,0.288,0.072c0.072,0.072,0.072,0.216,0.072,0.288c0,0.144-0.072,0.288-0.144,0.576l-0.072,0.072l-3.456,8.208
			c-0.072,0.216-0.144,0.36-0.216,0.432c-0.072,0.072-0.144,0.072-0.216,0.072c-0.144,0-0.288-0.144-0.36-0.504
			c-0.144-0.288-0.216-0.576-0.36-0.72c-0.36-0.432-0.936-0.792-1.8-1.008c-0.792-0.216-2.016-0.288-3.6-0.288h-9.216
			c-0.36,0-0.576-0.072-0.648-0.144c-0.144-0.072-0.144-0.216-0.144-0.36c0-0.216,0.072-0.432,0.216-0.72
			c0.072-0.072,0.144-0.072,0.144-0.144l13.104-21.168H268.2c-1.728,0-3.096,0.216-4.176,0.576c-1.08,0.432-2.16,1.08-3.096,2.016
			c-0.576,0.432-1.08,1.08-1.584,1.8c-0.432,0.72-0.792,1.08-1.008,1.08c-0.072,0-0.144-0.072-0.216-0.144
			c-0.072-0.072-0.072-0.144-0.072-0.288c0-0.072,0.072-0.216,0.144-0.432l2.376-6.48c0.144-0.288,0.216-0.432,0.288-0.504
			c0.072-0.072,0.216-0.144,0.288-0.144c0.144,0,0.216,0.144,0.36,0.36c0.216,0.288,0.36,0.432,0.432,0.576
			c0.36,0.288,0.936,0.432,1.656,0.576c0.72,0.072,2.088,0.144,4.032,0.144H275.472z"/>
		<path style="fill:#FEE000;" d="M278.496,549.16c-0.288,0-0.432-0.072-0.576-0.144c-0.144-0.072-0.216-0.216-0.216-0.36
			c0-0.288,0.288-0.432,0.864-0.504c0.288-0.072,0.576-0.072,0.72-0.144c0.864-0.143,1.368-0.648,1.728-1.368
			c0.288-0.72,0.432-2.376,0.432-4.968v-8.424c0-2.52-0.144-4.104-0.36-4.824c-0.288-0.72-0.72-1.224-1.368-1.44
			c-0.216-0.144-0.648-0.216-1.224-0.288c-0.504,0-0.792-0.144-0.792-0.432c0-0.216,0-0.288,0.144-0.36
			c0.144-0.072,0.36-0.144,0.648-0.144h10.296c1.512,0,2.736,0,3.528-0.072c0.792-0.144,1.368-0.216,1.728-0.432
			c0.288-0.144,0.504-0.36,0.72-0.72c0.288-0.288,0.36-0.432,0.432-0.432c0.144,0,0.216,0.072,0.288,0.144
			c0.072,0.072,0.216,0.288,0.288,0.504l2.448,6.48c0,0.144,0.072,0.288,0.072,0.36c0,0.072,0.072,0.144,0.072,0.216
			c0,0.072-0.072,0.144-0.144,0.216c-0.072,0-0.144,0.072-0.216,0.072c-0.144,0-0.504-0.36-1.008-1.08
			c-0.504-0.72-1.008-1.296-1.584-1.8c-0.936-0.864-1.944-1.512-3.024-1.944c-1.152-0.432-2.232-0.648-3.24-0.648
			c-1.224,0-2.088,0.288-2.52,0.864c-0.504,0.576-0.72,1.656-0.72,3.096v5.544h1.296c2.232,0,3.672-0.216,4.32-0.504
			c0.648-0.288,1.152-0.864,1.368-1.728c0.144-0.36,0.216-0.864,0.216-1.512c0-0.72,0.216-1.08,0.432-1.08
			c0.144,0,0.288,0.072,0.36,0.216c0.072,0.144,0.072,0.432,0.072,0.864v8.712c0,0.504,0,0.864-0.072,1.008
			c-0.072,0.144-0.216,0.216-0.36,0.216c-0.216,0-0.36-0.432-0.432-1.152c0-0.288-0.072-0.504-0.072-0.648
			c-0.072-1.224-0.504-2.088-1.224-2.664c-0.72-0.576-1.728-0.936-3.024-0.936h-2.88v7.056c0,1.656,0.288,2.808,0.792,3.384
			c0.504,0.576,1.44,0.864,2.808,0.864c1.512,0,2.88-0.216,3.96-0.72c1.08-0.432,2.16-1.224,3.096-2.304
			c0.576-0.648,1.152-1.368,1.656-2.088c0.504-0.792,0.864-1.224,1.008-1.224c0.072,0,0.144,0.072,0.216,0.144
			c0,0.072,0.072,0.216,0.072,0.288c0,0.072,0,0.144-0.072,0.216c0,0.144-0.072,0.288-0.144,0.432l-3.384,8.208
			c-0.072,0.216-0.144,0.36-0.216,0.432c-0.072,0.072-0.144,0.072-0.288,0.072c-0.144,0-0.288-0.144-0.36-0.504
			c-0.144-0.288-0.216-0.576-0.36-0.72c-0.36-0.432-0.936-0.792-1.728-1.008c-0.864-0.216-2.088-0.288-3.672-0.288H278.496z"/>
		<path style="fill:#FEE000;" d="M317.52,525.76c0.288,0,0.432,0.072,0.576,0.144c0.072,0,0.144,0.144,0.144,0.288
			c0,0.072-0.072,0.216-0.144,0.36c0,0.072-0.072,0.216-0.216,0.432l-13.104,21.24h4.392c1.944,0,3.456-0.216,4.608-0.648
			c1.08-0.504,2.16-1.296,3.096-2.448c0.504-0.576,0.936-1.296,1.44-2.016c0.432-0.792,0.72-1.152,0.936-1.152
			c0.072,0,0.216,0,0.288,0.072c0,0.072,0.072,0.216,0.072,0.288c0,0.144-0.072,0.288-0.144,0.576c-0.072,0-0.072,0.072-0.072,0.072
			l-3.456,8.208c-0.072,0.216-0.144,0.36-0.216,0.432c-0.072,0.072-0.144,0.072-0.216,0.072c-0.144,0-0.288-0.144-0.432-0.504
			c-0.072-0.288-0.144-0.576-0.288-0.72c-0.36-0.432-0.936-0.792-1.8-1.008c-0.792-0.216-2.016-0.288-3.672-0.288h-9.072
			c-0.36,0-0.576-0.072-0.648-0.144c-0.144-0.072-0.216-0.216-0.216-0.36c0-0.216,0.144-0.432,0.288-0.72
			c0.072-0.072,0.072-0.072,0.144-0.144l13.032-21.168h-2.592c-1.728,0-3.096,0.216-4.104,0.576c-1.152,0.432-2.16,1.08-3.168,2.016
			c-0.504,0.432-1.008,1.08-1.512,1.8c-0.504,0.72-0.792,1.08-1.008,1.08c-0.072,0-0.144-0.072-0.216-0.144
			c-0.072-0.072-0.072-0.144-0.072-0.288c0-0.072,0.072-0.216,0.144-0.432l2.376-6.48c0.144-0.288,0.216-0.432,0.288-0.504
			c0.072-0.072,0.144-0.144,0.288-0.144c0.072,0,0.216,0.144,0.36,0.36c0.144,0.288,0.288,0.432,0.432,0.576
			c0.36,0.288,0.864,0.432,1.656,0.576c0.72,0.072,2.016,0.144,3.888,0.144H317.52z"/>
		<path style="fill:#FEE000;" d="M324.36,541.744c0,1.944,0.144,3.384,0.576,4.392c0.36,1.008,0.936,1.584,1.8,1.872
			c0.216,0.072,0.504,0.144,0.936,0.144c0.576,0.072,0.792,0.216,0.792,0.504c0,0.216,0,0.288-0.144,0.36
			c-0.144,0.072-0.36,0.144-0.72,0.144h-6.84c-0.36,0-0.576-0.072-0.648-0.144c-0.144-0.072-0.216-0.144-0.216-0.36
			c0-0.288,0.216-0.432,0.72-0.432c0.216-0.072,0.288-0.072,0.36-0.072c0.792-0.144,1.44-0.792,1.872-1.872
			c0.432-1.08,0.648-2.52,0.648-4.464v-13.68c-0.432-0.864-1.224-1.296-2.448-1.296c-0.288-0.072-0.504-0.072-0.648-0.072
			c-0.216,0-0.36-0.072-0.504-0.144c-0.072-0.072-0.144-0.216-0.144-0.36c0-0.144,0.072-0.288,0.144-0.36
			c0.144-0.072,0.36-0.144,0.72-0.144h7.344c0.144,0,0.288,0,0.36,0.072c0.144,0,0.216,0.072,0.288,0.144
			c0,0,0.072,0.216,0.216,0.576c0.072,0.36,0.216,0.648,0.432,0.864l9.72,16.128v-10.656c0-1.8-0.216-3.24-0.576-4.176
			c-0.36-1.008-0.936-1.584-1.8-1.8c-0.216-0.072-0.504-0.144-0.936-0.144c-0.576-0.072-0.864-0.216-0.864-0.504
			c0-0.144,0.072-0.288,0.216-0.36c0.144-0.072,0.36-0.144,0.72-0.144h6.912c0.36,0,0.576,0.072,0.72,0.144
			c0.144,0.072,0.144,0.216,0.144,0.36c0,0.288-0.216,0.432-0.72,0.504c-0.144,0-0.288,0-0.36,0c-0.864,0.216-1.512,0.792-1.944,1.8
			c-0.432,0.936-0.648,2.376-0.648,4.32v11.664c0.288,0.432,0.72,0.72,1.224,1.008c0.504,0.216,0.72,0.36,0.72,0.504
			c0,0.144-0.216,0.36-0.792,0.648c-0.504,0.216-1.008,0.576-1.44,0.864c-0.432,0.36-0.864,0.792-1.296,1.368
			c-0.432,0.504-0.648,0.792-0.72,0.792c-0.144,0-0.36-0.216-0.648-0.72c0-0.072-0.072-0.072-0.072-0.144l-12.456-20.736V541.744z"
			/>
		<path style="fill:#FEE000;" d="M355.248,525.76c0.36,0,0.576,0.072,0.72,0.144c0.072,0.072,0.144,0.216,0.144,0.36
			c0,0.288-0.288,0.432-0.864,0.504c-0.576,0-1.008,0.072-1.224,0.216c-0.72,0.288-1.152,0.72-1.44,1.44
			c-0.216,0.72-0.36,2.304-0.36,4.824v8.424c0,2.52,0.144,4.104,0.36,4.824c0.288,0.648,0.72,1.152,1.44,1.44
			c0.216,0.072,0.648,0.144,1.224,0.216c0.576,0,0.864,0.216,0.864,0.504c0,0.144-0.072,0.288-0.216,0.36
			c-0.144,0.072-0.36,0.144-0.648,0.144h-10.512c-0.36,0-0.576-0.072-0.72-0.144c-0.072-0.072-0.144-0.216-0.144-0.36
			c0-0.288,0.288-0.432,0.864-0.504c0.576,0,1.008-0.072,1.224-0.216c0.72-0.288,1.152-0.792,1.368-1.44
			c0.288-0.72,0.432-2.304,0.432-4.824v-8.352c0-2.52-0.144-4.176-0.432-4.824c-0.216-0.72-0.648-1.224-1.368-1.44
			c-0.216-0.144-0.648-0.216-1.224-0.216c-0.576-0.072-0.864-0.216-0.864-0.504c0-0.216,0.072-0.36,0.216-0.432
			c0.144-0.072,0.36-0.144,0.648-0.144H355.248z"/>
		<path style="fill:#FEE000;" d="M374.4,524.752l2.304,7.2c0,0.072,0,0.144,0.072,0.216c0,0,0,0.072,0,0.144
			s-0.072,0.216-0.072,0.288c-0.072,0.072-0.144,0.144-0.288,0.144c-0.216,0-0.504-0.36-0.864-1.008
			c-0.144-0.36-0.36-0.72-0.504-0.936c-1.008-1.656-2.016-2.88-3.024-3.672c-1.008-0.72-2.16-1.152-3.312-1.152
			c-2.16,0-3.744,1.008-4.896,3.024c-1.08,1.944-1.656,4.824-1.656,8.568c0,3.744,0.576,6.552,1.728,8.424
			c1.152,1.872,2.88,2.88,5.184,2.88c1.368,0,2.664-0.36,3.744-1.152c1.08-0.72,2.016-1.8,2.736-3.24
			c0.144-0.288,0.288-0.648,0.432-1.08c0.144-0.648,0.432-1.008,0.72-1.008c0.072,0,0.216,0.072,0.288,0.216
			c0.143,0.072,0.143,0.216,0.143,0.36c0,0.288-0.143,0.792-0.432,1.44c-0.288,0.648-0.648,1.296-1.08,1.944
			c-0.864,1.152-1.872,2.016-3.096,2.592c-1.224,0.576-2.52,0.864-4.104,0.864c-1.224,0-2.376-0.144-3.456-0.504
			c-1.08-0.288-2.088-0.792-3.024-1.44c-1.44-1.08-2.592-2.448-3.456-4.32c-0.864-1.8-1.296-3.744-1.296-5.904
			c0-3.672,1.008-6.696,3.096-9.072c2.016-2.304,4.608-3.456,7.776-3.456c0.792,0,1.656,0.072,2.592,0.288
			c0.936,0.144,1.512,0.288,1.728,0.288c0.216,0,0.432-0.072,0.576-0.144c0.144-0.072,0.288-0.288,0.504-0.504
			c0-0.072,0.072-0.288,0.144-0.504c0.072-0.216,0.144-0.36,0.288-0.36c0.072,0,0.216,0.072,0.288,0.144
			C374.256,524.392,374.328,524.536,374.4,524.752z"/>
		<path style="fill:#FEE000;" d="M382.68,543.112c-0.144,0.504-0.288,0.936-0.36,1.368c-0.144,0.432-0.144,0.792-0.144,1.152
			c0,0.648,0.144,1.224,0.504,1.656c0.288,0.432,0.72,0.792,1.368,0.936c0.072,0,0.144,0,0.216,0c0.504,0.144,0.72,0.288,0.72,0.504
			c0,0.144-0.072,0.216-0.216,0.288c-0.072,0.072-0.288,0.144-0.576,0.144h-6.912c-0.288,0-0.504-0.072-0.576-0.144
			c-0.144-0.072-0.216-0.144-0.216-0.288c0-0.144,0.072-0.216,0.144-0.288c0.072-0.072,0.144-0.144,0.216-0.144
			c1.008,0,1.872-0.504,2.736-1.44c0.864-1.008,1.584-2.376,2.16-4.248l4.68-13.68c-0.144-0.288-0.504-0.504-0.864-0.72
			c-0.36-0.216-0.576-0.432-0.576-0.576s0.288-0.36,0.864-0.576c0.504-0.288,1.008-0.504,1.368-0.72
			c0.576-0.36,1.08-0.864,1.584-1.512c0.504-0.576,0.792-0.864,0.864-0.864c0.144,0,0.216,0.072,0.36,0.36
			c0.144,0.216,0.288,0.792,0.576,1.728l5.256,17.136c0.576,1.872,1.08,3.168,1.512,3.744c0.36,0.576,0.936,0.936,1.728,1.152
			c0.216,0.072,0.432,0.072,0.792,0.144c0.504,0.072,0.792,0.216,0.792,0.504c0,0.144-0.072,0.216-0.216,0.288
			c-0.072,0.072-0.288,0.144-0.576,0.144h-10.872c-0.288,0-0.504-0.072-0.648-0.144c-0.072-0.072-0.144-0.216-0.144-0.36
			c0-0.216,0.288-0.36,0.792-0.36c0.288-0.072,0.432-0.072,0.576-0.072c0.864-0.072,1.44-0.288,1.8-0.576
			c0.288-0.288,0.432-0.72,0.432-1.296c0-0.288,0-0.648-0.072-1.008c-0.072-0.432-0.288-1.079-0.576-1.944l-0.864-3.096h-6.696
			L382.68,543.112L382.68,543.112z M390.024,539.368l-2.952-9.864l-3.24,9.864H390.024z"/>
		<path style="fill:#FEE000;" d="M311.4,519.928l-2.376,4.392h1.728l3.528-4.032c0.36-0.432,0.648-0.936-0.216-0.936h-1.872
			C311.616,519.352,311.688,519.352,311.4,519.928z"/>
	</g>
</g>
</svg>
