<?xml version="1.0" encoding="iso-8859-1"?>
<!-- Generator: Adobe Illustrator 24.0.1, SVG Export Plug-In . SVG Version: 6.00 Build 0)  -->
<svg version="1.1" id="Layer_1" xmlns="http://www.w3.org/2000/svg" xmlns:xlink="http://www.w3.org/1999/xlink" x="0px" y="0px"
	 viewBox="0 0 600 600" style="enable-background:new 0 0 600 600;" xml:space="preserve">
<g>
	<g>
		<defs>
			<rect id="SVGID_1_" x="125.223" y="23.612" width="413.239" height="578.32"/>
		</defs>
		<clipPath id="SVGID_2_">
			<use xlink:href="#SVGID_1_"  style="overflow:visible;"/>
		</clipPath>
		<path style="clip-path:url(#SVGID_2_);fill:#FBAD1D;" d="M379.075,374.633c0,0-72.876,35.107-146.374,35.107
			c-73.49,0-79.102-41.36-52.318-79.614c0,0-28.9,26.231-28.961,56.649c-0.064,30.534,40.922,42.725,40.922,42.725
			s-69.179-8.241-67.073-45.457c4.345-76.662,193.067-198.088,306.746-198.088c41.492,0,47.749,6.285,47.749,6.285
			s-51.436,2.53-112.189,27.052c-79.151,31.939-172.561,94.75-172.561,147.517c0,21.839,17.982,30.787,42.696,32.773
			c0.788,0.06,9.509,0.433,10.296,0.433c0.171,0,5.061,0,5.931-0.018c9.214-0.274,32.184-1.389,66.223-9.279
			C357.607,382.02,379.075,374.633,379.075,374.633"/>
	</g>
	<g>
		<defs>
			<path id="SVGID_3_" d="M170.29,382.136c6.64,15.102,28.278,22.368,59.744,22.368l0,0c11.985,0,23.98-0.962,35.66-2.561l0,0
				c-4.875,0.406-9.654,0.681-14.309,0.825l0,0c-0.899,0.021-5.873,0.021-6.034,0.021l0,0c-0.882,0-9.731-0.369-10.643-0.444l0,0
				c-38.317-3.093-46.37-21.706-46.37-36.771l0,0c0-59.138,104.697-122.842,175.07-151.234l0,0
				c36.131-14.585,69.279-21.49,90.303-24.69l0,0c-6.198-0.557-14.173-0.931-24.361-0.931l0,0
				C316.169,188.718,140.542,314.37,170.29,382.136"/>
		</defs>
		<clipPath id="SVGID_4_">
			<use xlink:href="#SVGID_3_"  style="overflow:visible;"/>
		</clipPath>
		<g style="clip-path:url(#SVGID_4_);">
			
				<radialGradient id="SVGID_5_" cx="0" cy="600" r="1" gradientTransform="matrix(89.2286 38.872 38.872 -89.2286 -23166.0996 53855.0195)" gradientUnits="userSpaceOnUse">
				<stop  offset="0" style="stop-color:#FFE57C"/>
				<stop  offset="1" style="stop-color:#FBAD1D"/>
			</radialGradient>
			<polygon style="fill:url(#SVGID_5_);" points="190.72,74.46 532.952,223.551 403.998,519.557 61.767,370.465 			"/>
		</g>
	</g>
	<g>
		<defs>
			<path id="SVGID_6_" d="M127.922,379.718c0,16.891,13.241,53.206,71.38,53.206l0,0c-43.241-10.339-51.181-35.202-50.807-50.528
				l0,0c1.977-80.436,150.739-138.183,221.104-166.572l0,0c36.13-14.585,69.289-21.49,90.315-24.697l0,0
				c-6.21-0.551-19.041-5.504-29.245-5.504l0,0C317.497,185.623,127.922,307.16,127.922,379.718"/>
		</defs>
		<clipPath id="SVGID_7_">
			<use xlink:href="#SVGID_6_"  style="overflow:visible;"/>
		</clipPath>
		<g style="clip-path:url(#SVGID_7_);">
			
				<radialGradient id="SVGID_8_" cx="0" cy="600" r="1" gradientTransform="matrix(89.9658 39.1929 39.1929 -89.9658 -23359.4414 54308.6602)" gradientUnits="userSpaceOnUse">
				<stop  offset="0" style="stop-color:#FFE57C"/>
				<stop  offset="1" style="stop-color:#FBAD1D"/>
			</radialGradient>
			<polygon style="fill:url(#SVGID_8_);" points="180.277,64.187 549.892,225.207 406.402,554.584 36.786,393.564 			"/>
		</g>
	</g>
	<g>
		<defs>
			<rect id="SVGID_9_" x="125.223" y="23.612" width="413.239" height="578.32"/>
		</defs>
		<clipPath id="SVGID_10_">
			<use xlink:href="#SVGID_9_"  style="overflow:visible;"/>
		</clipPath>
		<path style="clip-path:url(#SVGID_10_);fill:#009ADA;" d="M524.935,172.616c-17.687-33.165-50.156-54.948-90.176-64.453
			c-8.331-1.972-17.009-3.354-25.907-4.257v51.805c9.021,1.311,17.669,3.074,25.907,5.324
			c134.271,36.651,73.577,149.494,18.954,204.261l-47.409,53.181C517.221,358.584,563.82,245.676,524.935,172.616"/>
	</g>
	<g>
		<defs>
			<path id="SVGID_11_" d="M431.512,393.18l-9.151,15.988c44.133-27.429,76.598-63.496,95.807-101.198l0,0
				C497.862,332.001,464.98,368.299,431.512,393.18"/>
		</defs>
		<clipPath id="SVGID_12_">
			<use xlink:href="#SVGID_11_"  style="overflow:visible;"/>
		</clipPath>
		<g style="clip-path:url(#SVGID_12_);">
			
				<radialGradient id="SVGID_13_" cx="0" cy="600" r="1" gradientTransform="matrix(58.3347 0 0 -58.3347 454.234 35386.2734)" gradientUnits="userSpaceOnUse">
				<stop  offset="0" style="stop-color:#7DCDF1"/>
				<stop  offset="1" style="stop-color:#0099DD"/>
			</radialGradient>
			<rect x="422.229" y="308.003" style="fill:url(#SVGID_13_);" width="95.809" height="101.198"/>
		</g>
	</g>
	<g>
		<defs>
			<path id="SVGID_14_" d="M417.245,147.356c7.572,1.263,14.886,2.905,21.813,4.88l0,0c46.648,13.352,78.907,40.735,84.484,78.38
				l0,0c3.496,23.62-1.582,50.739-3.731,61.306l0,0c6.343-13.828,10.97-27.845,13.78-41.749l0,0
				c4.508-30.186-1.49-57.416-13.202-80.586l0,0c-15.788-31.196-44.569-52.793-83.214-62.451l0,0
				c-6.205-1.549-12.904-2.784-19.931-3.68l0,0V147.356z"/>
		</defs>
		<clipPath id="SVGID_15_">
			<use xlink:href="#SVGID_14_"  style="overflow:visible;"/>
		</clipPath>
		<g style="clip-path:url(#SVGID_15_);">
			
				<radialGradient id="SVGID_16_" cx="0" cy="600" r="1" gradientTransform="matrix(109.841 0 0 -115.6102 477.8724 69535.4766)" gradientUnits="userSpaceOnUse">
				<stop  offset="0" style="stop-color:#7DCDF1"/>
				<stop  offset="1" style="stop-color:#0099DD"/>
			</radialGradient>
			<rect x="416.945" y="103.2" style="fill:url(#SVGID_16_);" width="329.523" height="346.831"/>
		</g>
	</g>
	<g>
		<defs>
			<rect id="SVGID_17_" x="125.223" y="4.897" width="413.239" height="597.035"/>
		</defs>
		<clipPath id="SVGID_18_">
			<use xlink:href="#SVGID_17_"  style="overflow:visible;"/>
		</clipPath>
		<path style="clip-path:url(#SVGID_18_);fill:#00B05A;" d="M248.133,139.518c-56.569,30.507-98.887,74.489-121.393,120.654
			c32.156-40.356,87.461-75.877,154.231-94.422c45.697-12.691,89.958-15.525,127.88-10.039v-51.805
			C359.594,98.883,302.363,110.264,248.133,139.518"/>
	</g>
	<g>
		<defs>
			<path id="SVGID_19_" d="M248.7,129.757c-42.226,22.779-77.422,63.369-101.845,98.426l0,0
				c33.969-30.748,80.243-55.462,131.697-69.748l0,0c30.689-8.524,61.215-12.849,90.714-12.849l0,0
				c11.727,0,23.224,0.703,34.235,2.094l0,0v-43.587c-6.207-0.521-12.564-0.788-18.971-0.788l0,0
				C339.673,103.306,292.7,106.023,248.7,129.757"/>
		</defs>
		<clipPath id="SVGID_20_">
			<use xlink:href="#SVGID_19_"  style="overflow:visible;"/>
		</clipPath>
		<g style="clip-path:url(#SVGID_20_);">
			
				<radialGradient id="SVGID_21_" cx="0" cy="600" r="1" gradientTransform="matrix(100.9095 0 0 -100.9095 270.9733 60709.4922)" gradientUnits="userSpaceOnUse">
				<stop  offset="0" style="stop-color:#ACD36C"/>
				<stop  offset="1" style="stop-color:#00B05A"/>
			</radialGradient>
			<rect x="147.066" y="103.12" style="fill:url(#SVGID_21_);" width="256.647" height="124.877"/>
		</g>
	</g>
	<g>
		<defs>
			<rect id="SVGID_22_" x="125.223" y="4.897" width="413.239" height="597.035"/>
		</defs>
		<clipPath id="SVGID_23_">
			<use xlink:href="#SVGID_22_"  style="overflow:visible;"/>
		</clipPath>
		<path style="clip-path:url(#SVGID_23_);fill:#001A49;" d="M437.211,118.717c-6.47,0-11.472,2.627-14.912,5.347
			c1.062-2.077,2.197-4.2,3.423-6.281c1.447-0.52,5.419-2.188,7.303-5.745l0.114-0.199l0.568-9.184
			c-0.578-3.775-7.812-9.738-34.406-14.452c-8.549-2.386-28.113-28.2-52.931-28.2c-1.085,0-2.41-0.142-3.849-0.181
			c3.895-3.844,6.32-9.172,6.32-15.077c0-11.508-9.193-20.833-20.638-21.132c-11.441,0.299-20.639,9.624-20.639,21.132
			c0,5.905,2.424,11.233,6.321,15.077c-1.441,0.039-2.765,0.181-3.852,0.181c-24.813,0-44.379,25.814-52.93,28.2
			c-26.594,4.714-33.829,10.676-34.407,14.452l0.57,9.184l0.116,0.199c1.883,3.557,5.854,5.226,7.298,5.745
			c1.229,2.082,2.363,4.204,3.422,6.281c-3.437-2.72-8.439-5.347-14.908-5.347c-19.761,0-21.548,11.831-21.548,15.633
			c0,9.997,8.481,13.61,9.442,13.98c0.149,1.175,1.175,7.939,1.175,7.979c0.04,0.45,0.255,2.669,2.431,3.842l0.406,0.206
			c1.971,1.014,6.594,3.375,8.362,12.816c1.872,9.992,3.354,20.005,4.576,30.579c1.056,9.175,2.468,15.009,7.531,23.036
			c0.079,0.419,4.229,26.919,4.229,26.919c5.248,29.024,19.024,37.746,29.781,39.935c1.018,0.772,1.343,1.248,1.379,1.382
			c0,0.153,0.112,16.279,7.58,19.033c4.499,24.114,12.591,31.955,16.673,34.411c-1.405,1.059-3.986,3.505-8,9.346
			c-3.265,4.739-6.13,6.642-9.479,8.857c-0.493,0.089-16.052,2.602-16.052,2.602l-0.065,0.006c-0.906,0.224-1.179,0.709-1.179,0.709
			l-10.68,13.345l-0.192,0.86l0.019,10.575c0,0.459,0.317,0.865,0.83,1.206c0.339,0.847,1.117,1.834,2.59,2.379l0.053,0.025
			c0,0,0.679,0.197,1.248,0.377c0.119,0.377,0.331,0.673,0.683,0.892v12.352c-1.312,0.764-8.245,4.936-8.245,4.936l-2.024,1.698
			l-12.073,20.976c-0.506,0.731-0.803,1.367-0.879,1.91c0,0-0.035,0.962,0.012,0.975c0.018,0.1,0.423,6.936,0.423,6.936
			c0,12.175,60.833,22.604,100,22.747c39.165-0.143,99.996-10.572,99.996-22.747c0,0,0.409-6.836,0.427-6.936
			c0.049-0.013,0.013-0.975,0.013-0.975c-0.074-0.543-0.374-1.179-0.88-1.91l-12.071-20.976l-2.024-1.698
			c0,0-6.932-4.172-8.246-4.936v-12.352c0.354-0.219,0.564-0.515,0.684-0.892c0.569-0.18,1.252-0.377,1.252-0.377l0.048-0.025
			c1.471-0.545,2.25-1.532,2.589-2.379c0.515-0.341,0.829-0.747,0.829-1.206l0.021-10.575l-0.194-0.86l-10.679-13.345
			c0,0-0.274-0.485-1.181-0.709l-0.064-0.006c0,0-15.559-2.513-16.05-2.602c-3.35-2.215-6.217-4.117-9.479-8.857
			c-4.014-5.841-6.596-8.287-8.001-9.346c4.082-2.456,12.176-10.297,16.675-34.411c7.472-2.754,7.58-18.88,7.58-19.033
			c0.037-0.134,0.358-0.609,1.379-1.382c10.759-2.189,24.532-10.911,29.783-39.935c0,0,4.148-26.499,4.23-26.919
			c5.06-8.027,6.474-13.861,7.53-23.036c1.219-10.574,2.702-20.586,4.573-30.579c1.77-9.44,6.393-11.802,8.361-12.816l0.411-0.206
			c2.174-1.173,2.388-3.392,2.429-3.842c0-0.039,1.025-6.804,1.174-7.979c0.962-0.369,9.44-3.982,9.44-13.98
			C458.758,130.548,456.971,118.717,437.211,118.717 M268.389,284.294c-16.442-6.106-22.403-39.265-23.238-55.964
			c0,0-0.018-0.217-0.018-0.32c-0.035-0.102-0.107-0.32-0.107-0.32c-0.076-0.192-6.983-19.107-6.983-40.288
			c0-19.258-8.294-29.883-10.844-32.696l-0.156-0.178v-2.75l0.303-0.182c3.124-2.001,4.714-4.669,4.714-7.916l-0.021-0.289
			l1.192-0.157l3.416,13.002c0.971,3.732,5.187,7.034,7.604,8.669l0.255,0.163v0.275c0.257,4.386,1.395,9.343,2.32,12.714
			l0.048,0.181l-0.091,0.169c-0.221,0.517-0.318,0.993-0.318,1.466l0.098,0.838c0.175,0.816,0.664,1.574,1.362,2.158l0.207,0.183
			v0.26c0.295,17.742,6.816,27.175,8.803,29.671l0.137,0.126v0.221c0.159,37.228,7.657,59.965,12.089,70.203l0.571,1.257
			L268.389,284.294z M429.363,154.528l-0.152,0.178c-2.556,2.813-10.847,13.438-10.847,32.696c0,21.181-6.909,40.096-6.987,40.288
			c0,0-0.067,0.218-0.105,0.32c0,0.104-0.018,0.32-0.018,0.32c-0.835,16.699-6.796,49.858-23.238,55.964l-1.341,0.496l0.57-1.257
			c4.432-10.238,11.931-32.976,12.09-70.203v-0.221l0.135-0.126c1.986-2.496,8.511-11.929,8.802-29.671v-0.26l0.207-0.183
			c0.706-0.584,1.19-1.343,1.362-2.158l0.103-0.838c0-0.474-0.103-0.949-0.324-1.466l-0.091-0.169l0.055-0.181
			c0.921-3.371,2.057-8.328,2.319-12.714v-0.275l0.25-0.163c2.419-1.635,6.633-4.937,7.603-8.669l3.417-13.002l1.192,0.157
			l-0.016,0.289c0,3.246,1.585,5.915,4.709,7.916l0.303,0.182V154.528z"/>
		<path style="clip-path:url(#SVGID_23_);fill:#009ADA;" d="M390.066,397.925c0,0-1.31-4.366-4.048-6.378
			c-2.738-1.998-4.584-0.948-9.183-8.642c-4.574-7.695-10.726-20.758-12.707-24.822c-1.969-4.063-7.091-7.084-7.091-7.084
			l-2.973-3.196l-0.844-1.116l-0.592-1.746c0,0,5.373-2.841,15.927-3.14c1.728,0.012,5.651-2.318,6.739-5.506
			c0,0,1.855-4.031,1.886-5.581c0.005-1.507-1.278-5.626-2.145-8.703c-0.878-3.043-0.641-7.293-1.334-9.264
			c-0.713-1.971-2.186-10.625-16.416-26.867c0,0,0.621,0.189,0.845-0.613c0.231-0.806-4.812-4.795-5.915-5.907
			c0,0,0.214-1.303-0.398-2.831c-0.638-1.535-1.166-3.071-2.16-4.517c-0.998-1.429-2.544-2.54-3.824-3.424
			c-1.272-0.891-1.441-1.111-1.441-1.111s-1.264-2.3-2.085-2.641c0,0,1.14-3.147,1.189-5.308c0.03-2.201-1.632-2.117-1.621-3.747
			c0.028-1.639,0.342-3.143,0.342-3.143s-0.494-1.689-1.153-3.502c4.969-2.891,8.558-7.038,8.558-7.038s3.291-1.618,6.053-1.559
			c2.762,0.035,9.219-0.49,13.11-1.243c3.933-0.739,9.167-2.365,13.337-5.742l4.186-3.376c0,0,1.828-2.531-0.074-5.294l0.529-1.488
			c0,0,1.459-2.274,0.604-3.676c-0.869-1.414-2.38-4.078-2.443-5.232c-0.069-1.186-0.022-4.145-2.449-5.256
			c-2.416-1.127-4.666-6.592-6.587-9.374c-1.917-2.798-3.229-5.092-4.077-6.317c-0.839-1.206-1.919-2.584-2.573-4.042
			c-0.654-1.44-1.885-5.926-1.997-8.287c-0.137-2.337-0.228-4.486-1.896-6.131c-1.666-1.651-2.536-3.456-2.995-4.549
			c-0.455-1.093-0.804-1.884-5.099-3.015c-5.299-1.394-16.931-8.852-19.331-9.47c0.042-0.379,0.072-1.22-0.267-1.785
			c0,0-0.389-0.107-0.897-0.249c0.022-0.063,0.03-0.135,0.03-0.188c0.038-0.821,1.66-4.072,2-5.426
			c0.387-1.364,0.725-3.316,0.819-4.593c0.13-1.282,0.461-1.222,0.662-1.776c0.217-0.551,0.3-2.903,0.3-2.903l1.537-6.708
			c0,0,0.346-2.657,0.45-3.224c0.11-0.575,0.048-2.13,0.048-2.13s-0.009-1.899,0.075-2.471c0.123-0.575-1.215-3.426-1.455-4.179
			c-0.204-0.752-1.156-1.161-1.417-1.693c-0.268-0.518-2.031-0.973-2.143-1.583c-0.123-0.615-2.186-2.063-2.623-2.154
			c-0.444-0.074-3.532-1.483-3.532-1.483s-2.593-1.68-3.751-2.366c-1.131-0.69-2.187,0.066-2.187,0.066s-3.669-0.205-4.213-0.316
			c-0.556-0.107-0.598,1.31-0.981,1.594c-0.394,0.288-3.753,0.247-4.262,0.498c-0.49,0.274-0.854,1.617-1.609,1.955
			c-0.756,0.333-2.644,1.274-2.962,1.812c-0.325,0.532-1.491,1.849-1.925,2.361c-0.441,0.52-1.336,3.54-2.023,4.833
			c-0.69,1.285-0.982,8.708-0.982,8.708s-1.272,1.414-2.202,5.979c-0.941,4.557,2.145,7.373,2.134,8.554
			c-0.007,1.18,0.219,2.015,0.219,2.015l-2.116,3.73c-2.01,0.204-3.256,0.33-3.256,0.33l-0.393,0.128
			c-0.228,0.131-1.641,0.942-2.711,2.531h-0.061c-0.106,0.187-0.217,0.362-0.303,0.57c0,0-0.669,0.183-3.251,1.888
			c-2.612,1.706-3.619,2.118-4.177,2.439c0,0-3.078,1.158-5.947,2.088c-2.652,0.864-3.688,1.868-6.486,4.209
			c-1.439,0.533-2.799,1.271-3.884,2.762c-0.25,0.38-0.534,0.787-0.847,1.224c-1.309,1.193-2.526,2.476-3.895,4.407
			c-2.645,3.68-7.92,11.326-7.974,14.709c-0.014,1.469,0.097,3.57,0.218,5.595c0.161,2.579,0.366,5.032,0.339,5.951
			c-0.009,0.995-0.557,3.735-0.998,6.483c0.037,0.029,0.075,0.063,0.128,0.091c1.967,0.994,2.958-0.815,2.16,5.398
			c-0.789,6.208-0.961,17.011-0.572,19.818c0.325,2.349-0.179,3.692-0.217,4.676c0,0.259,0.039,0.518,0.045,0.764
			c0.172,0.892,0.284,1.612,1.543,2.16c1.4,0.588,7.037,3.493,8.385,3.762c0.01,0.167,0.016,0.309,0.028,0.444l0.082,2.112
			c-0.007,2.621-2.174,7.031-1.7,8.684c0,0-0.402,2.083-0.43,3.534c-0.007,1.424,0.228,3.419,0.198,4.538
			c0,1.093-0.577,2.512-0.147,4.611c0,0-1.182,3.612-0.559,6.19c0.613,2.546,2.179,7.31,4.411,13.329
			c1.803,4.883,2.65,10.003,5.273,14.747c0.581,1.076,1.204,2.122,1.883,3.117c0.396,0.565,0.704,1.069,1,1.563h0.102l2.421,6.556
			c0.727,0.92,1.236,2.714,1.789,3.516c2.538,3.51,5.292,7.7,7.471,10.777c0,0,0.432,1.417,1.071,1.754l0.539,0.237
			c0,0,1.882-2.153,3.28-2.456c1.381-0.314,0.273,0,0.273,0s1.428,1.571,3.743,3.694c1.591,1.932,4.632,5.301,8.811,8.172
			c-1.104,4.029-1.423,8.708-2.146,10.17c-0.956,1.97-5.628,7.878-5.628,10.84c0,2.95-1.342,8.914-0.109,10.648
			c1.219,1.728,4.614,3.944,7.526,3.444c2.904-0.483,4.699-6.71,5.69-8.921c0.965-2.222,6.834-10.109,8.522-11.588
			c0.564-0.499,1.935-2.039,3.508-3.867c0.557,0.415,1.063,0.811,1.549,1.224c0.648,0.667,1.154,1.316,1.42,1.873
			c0,0-0.971,2.474,0.128,3.913c0,0-0.217,1.094,1.389,4.809c1.613,3.749,4.564,10.436,9.757,14.864
			c5.166,4.45,12.842,8.921,18.954,12.946c6.118,4.009,10.652,8.56,10.626,11.05c0,0-1.776,1.074-0.062,3.935
			c0,0,0.34,1.197-0.591,1.934c-0.93,0.752-2.235,1.932-2.272,3.57l0.557,0.976l17.673,0.293c0,0,1.849-0.186,2.887-1.367
			c1.025-1.198,1.348-3.686,1.348-3.686s0.49-1.416,0.526-3.912C393.313,402.661,391.448,398.283,390.066,397.925 M323.71,231.777
			c0,0-4.544-2.321-5.946-2.064c-0.566,0.117-1.48,1.534-0.68,2.678l0.792,1.174l0.378,0.735c0,0-1.917-2.009-2.561-1.88
			c0,0-1.448-5.807-1.55-7.743c0,0-2.338-19.438,11.431-25.771c5.044-2.314,17.705-0.403,25.097,11.481
			c1.005,1.562,5.616,7.768,5.9,15.59c0,0-1.466-2.837-1.512-3.984c-0.045-1.133-1.24-3.365-3.06-5.162
			c-1.822-1.78-2.593-4.089-3.622-5.041c0,0-0.702-1.02-0.752-1.667l-0.032-0.652c0,0-0.257-1.907-1.229-1.725
			c-0.985,0.199-2.235,1.484-2.155,2.962c0.07,1.473,0.322,3.301,1.063,4.726c0,0,0.149,1.444,0.871,2.627
			c0.727,1.173,0.893,1.874,0.377,2.627c-0.543,0.766-2.422,4.258-3.309,4.429c-0.905,0.164-4.41,0.937-6.269,1.373
			c0,0-3.063-0.394-4.58-0.84c-1.491-0.438-3.316-0.83-5.165-1.286c-1.827-0.48-4.848-1.235-5.432-0.182
			c-0.58,1.051-0.377,2.454,1.061,2.911c1.428,0.462,3.335,0.917,4.446,1.771c1.101,0.85,2.686,0.967,4.164,1.166
			c1.5,0.203,2.916,0.591,2.922,0.907c0,0-0.051,0.422-2.672,0.527C329.067,231.553,325.191,231.576,323.71,231.777
			 M339.754,327.465c0,0-1.846-4.332-3.512-6.561c-1.652-2.243-4.892-7.171-4.892-7.171c4.277,2.322,12.893,9.356,12.893,9.356
			L339.754,327.465z"/>
		<path style="clip-path:url(#SVGID_23_);fill:#EE343F;" d="M126.089,394.223c17.911,73.752,200.487,70.23,287.09,21.3
			c19.99-11.305,31.4-32.916,40.532-50.227C375.755,442.104,155.454,455.182,126.089,394.223"/>
	</g>
	<g>
		<defs>
			<path id="SVGID_24_" d="M130.136,405.018c1.833,3.529,4.106,6.851,6.768,9.95l0,0c-2.299-4.866-3.907-10.071-7.759-14.198l0,0
				C129.414,402.214,129.746,403.628,130.136,405.018 M160.814,432.936c61.288,31.089,185.463,20.385,252.365-17.416l0,0
				c13.107-7.41,22.527-19.253,30.035-31.412l0,0C365.637,450.156,210.43,451.213,160.814,432.936"/>
		</defs>
		<clipPath id="SVGID_25_">
			<use xlink:href="#SVGID_24_"  style="overflow:visible;"/>
		</clipPath>
		<g style="clip-path:url(#SVGID_25_);">
			
				<radialGradient id="SVGID_26_" cx="0" cy="600" r="1" gradientTransform="matrix(79.7073 -153.1749 -153.1749 -79.7073 92264.0703 48322.9336)" gradientUnits="userSpaceOnUse">
				<stop  offset="0" style="stop-color:#F5909B"/>
				<stop  offset="1" style="stop-color:#EE333F"/>
			</radialGradient>
			<polygon style="fill:url(#SVGID_26_);" points="96.822,447.024 335.944,-12.5 795.469,226.622 556.347,686.146 			"/>
		</g>
	</g>
	<g>
		<defs>
			<rect id="SVGID_27_" x="125.223" y="4.897" width="413.239" height="597.035"/>
		</defs>
		<clipPath id="SVGID_28_">
			<use xlink:href="#SVGID_27_"  style="overflow:visible;"/>
		</clipPath>
		<path style="clip-path:url(#SVGID_28_);fill:#001A49;" d="M511.97,594.935c0,3.867-3.13,6.997-6.976,6.997H162.439
			c-3.857,0-6.985-3.13-6.985-6.997v-24.243c0-3.854,3.128-6.981,6.985-6.981h342.555c3.846,0,6.976,3.127,6.976,6.981V594.935"/>
		<path style="clip-path:url(#SVGID_28_);fill:#001A49;" d="M224.546,486.151c2.965,0,5.249,2.654,5.249,5.979
			c-0.173,2.66-2.007,4.659-4.547,5.1l5.064,7.473h-5.113l-4.712-7.143h-4.903v7.18h-4.377v-18.587H224.546 M215.526,489.281v5.303
			h5.592c1.341,0,3.408-0.813,3.408-2.639c-0.04-1.753-1.442-2.664-3.549-2.664H215.526z M233.648,486.204l0.089,12.042
			c0,4.845,4.483,6.421,8.646,6.421h0.585c4.318-0.158,8.954-0.835,8.954-6.226v-12.258l-4.462,4.447l0.031,6.875
			c0,3.641-2.485,3.988-4.798,4.01c-1.663,0-4.472-0.713-4.472-3.979l-0.069-11.332H233.648 M255.551,495.401
			c0,4.675,2.906,9.224,7.533,9.224h12.139v-10.853h-10.701v3.047h6.298v4.676h-6.174c-2.874,0-4.25-3.248-4.25-6.141
			c0.04-2.886,1.518-5.929,4.376-5.929h10.23v-3.369h-11.311C258.899,486.056,255.551,490.558,255.551,495.401 M279.514,504.667
			v-18.403h11.34c2.632,0,4.868,1.668,5.178,4.294c0.035,0.226,0.035,0.415,0.035,0.623c0,1.901-0.991,3.507-2.833,4.336
			c1.903,0.698,2.986,2.14,3.083,4.17c0,2.876-2.307,4.98-4.947,4.98H279.514 M283.428,497.213v4.333h6.291
			c1.07,0,1.826-0.934,1.875-2.032c0-1.268-0.886-2.301-2.024-2.301H283.428z M283.522,489.723v4.457l5.991-0.018
			c1.083,0,1.857-0.985,1.857-2.109c0-1.202-0.877-2.33-2.092-2.33H283.522z M298.597,486.184l7.919,10.727v7.809h4.296v-7.809
			l8.014-10.759h-5.381l-4.826,7.44l-4.74-7.408H298.597 M338.297,498.017v-11.59h-4.691v11.724c0,1.282,0.133,2.056,0.632,3.196
			c1.395,2.962,4.492,3.577,7.848,3.577h6.579v-3.001h-5.835c-1.526,0-2.774-0.182-3.714-1.37
			C338.5,499.764,338.297,499.086,338.297,498.017 M355.205,503.62c1.412,0.689,2.392,0.939,3.963,0.939h8.877v-3.191h-7.99
			c-1.25,0-2.073-0.564-2.869-1.46c-0.759-0.852-1.074-1.661-1.074-2.825h11.934v-3.261h-11.957c0-1.313,0.292-2.23,1.145-3.141
			c0.903-0.958,1.793-1.279,3.11-1.279h7.601v-3.25h-8.236c-1.792,0-2.9,0.212-4.502,1.015c-2.82,1.505-4.243,4.923-4.243,8.303
			C350.962,498.88,352.366,502.215,355.205,503.62 M379.043,486.151h4.443l7.88,18.516h-4.57l-1.561-4.212h-7.51l-1.65,4.212h-4.515
			L379.043,486.151 M378.967,497.229h4.888l-2.487-6.446L378.967,497.229z M393.534,495.401c0,4.675,2.897,9.224,7.523,9.224h12.119
			v-10.853H402.49v3.047h6.282v4.676h-6.153c-2.893,0-4.259-3.248-4.259-6.141c0.06-2.886,1.535-5.929,4.367-5.929h10.229v-3.369
			h-11.284C396.853,486.056,393.534,490.558,393.534,495.401 M417.197,486.204l0.11,12.042c0,4.845,4.468,6.421,8.625,6.421h0.585
			c4.319-0.158,8.963-0.835,8.963-6.226v-12.258l-4.454,4.447l0.02,6.875c0,3.641-2.495,3.988-4.798,4.01
			c-1.66,0-4.473-0.713-4.473-3.979l-0.054-11.332H417.197 M443.282,503.62c1.427,0.689,2.397,0.939,3.97,0.939h8.888v-3.191h-8.012
			c-1.238,0-2.075-0.564-2.858-1.46c-0.758-0.852-1.065-1.661-1.065-2.825h11.935v-3.261h-11.996c0-1.313,0.308-2.23,1.185-3.141
			c0.869-0.958,1.792-1.279,3.097-1.279h7.608v-3.25h-8.244c-1.793,0-2.904,0.212-4.507,1.015c-2.81,1.505-4.233,4.923-4.233,8.303
			C439.049,498.88,440.441,502.215,443.282,503.62 M152.457,515.799l12.006,35.12h10.243l7.439-24.797l7.709,24.854h10.554
			l12.123-35.177h-9.589l-7.483,26.598l-8.212-26.598h-9.885L169.75,542l-7.79-26.201H152.457 M288.59,515.618
			c5.605,0,10.022,5.03,10.022,11.387c-0.339,5.075-3.821,8.904-8.67,9.72l9.637,14.254h-9.738l-8.994-13.63h-9.366v13.739h-8.325
			v-35.47H288.59 M271.386,521.563V531.7h10.658c2.582,0,6.496-1.552,6.496-5.034c-0.052-3.342-2.722-5.103-6.734-5.103H271.386z
			 M314.91,538.241v-22.089h-8.95v22.325c0,2.475,0.228,3.919,1.188,6.101c2.688,5.659,8.578,6.839,14.972,6.839h12.559v-5.722
			H323.54c-2.916,0-5.288-0.35-7.073-2.619C315.299,541.573,314.91,540.265,314.91,538.241 M341.273,550.919l0.048-35.267h17.625
			c2.538,0,3.939,0.344,6.209,1.181c5.915,2.22,8.822,9.631,8.822,16.937c0,7.772-3.31,15.459-9.847,16.817
			c-1.591,0.299-2.523,0.333-4.155,0.333H341.273 M349.353,521.898v22.977l10.386,0.047c4.831,0,6.188-5.956,6.34-10.898
			c0-5.955-1.783-12.208-7.031-12.208L349.353,521.898z M410.176,550.237c1.681,0.548,2.78,0.791,4.595,0.791h15.396v-6.256
			l-14.193-0.194c-4.741,0-6.49-5.475-6.785-10.304c-0.039-0.547-0.039-0.971-0.039-1.468c0-4.994,1.69-10.411,6.436-10.411h14.437
			v-6.685h-13.908c-2.667,0-4.308,0.338-6.737,1.294c-5.814,2.435-8.663,9.505-8.663,16.53
			C400.713,540.952,403.859,548.325,410.176,550.237 M436.641,515.711l0.183,22.962c0,9.245,8.531,12.246,16.477,12.246h1.12
			c8.226-0.284,17.111-1.596,17.111-11.86v-23.407l-8.532,8.542l0.043,13.082c0,6.927-4.757,7.599-9.164,7.646
			c-3.141,0-8.523-1.356-8.523-7.597l-0.104-21.613H436.641 M503.266,515.907c8.13,0,11.626,6.488,11.626,11.63
			c-0.146,6.232-5.627,11.333-12.016,11.333h-14.911v12.218h-8.484v-35.181H503.266 M487.986,521.815v10.95h11.395
			c3.191,0,5.807-2.47,5.807-5.669c-0.1-3.195-3.043-5.281-6.094-5.281H487.986z M258.114,525.334
			c-3.064-8.601-14.355-12.83-26.211-9.518c-12.548,3.5-20.968,14.149-18.784,23.785c1.754,7.814,9.947,12.556,19.688,12.178
			c-7.494-0.422-13.325-3.912-14.566-9.45c-0.52-2.316-0.182-4.699,0.855-7.034l14.202,0.112l2.418-2.439l-15.287-0.106
			c0.55-0.797,1.154-1.6,1.853-2.358l15.857,0.035l2.423-2.441l-15.706-0.03c0.805-0.661,1.667-1.288,2.598-1.902l15.073-0.014
			l2.439-2.425H232.04c1.399-0.599,2.92-1.158,4.462-1.571C245.321,519.738,253.693,521.171,258.114,525.334"/>
		<path style="clip-path:url(#SVGID_28_);fill:#FFFFFF;" d="M169.981,590.233v-15.962h12.041v3.123h-8.557v3.244h7.532v3.13h-7.532
			v3.349h8.663v3.116H169.981 M196.463,590.233h2.968v-15.962h-3.443v9.831l-7.485-9.831h-3.246v15.962h3.467v-10.148
			L196.463,590.233 M210.968,590.519c2.918,0,5.183-1.148,6.821-2.538v-6.924h-6.947v3.023h3.55v2.284
			c-0.893,0.631-2.025,0.954-3.301,0.954c-2.831,0-4.842-2.144-4.842-5.058v-0.045c0-2.714,2.03-4.982,4.574-4.982
			c1.861,0,2.966,0.589,4.194,1.628l2.206-2.675c-1.68-1.409-3.395-2.19-6.267-2.19c-4.844,0-8.376,3.728-8.376,8.265v0.042
			C202.579,587.017,205.996,590.519,210.968,590.519 M221.165,590.233h11.468v-3.196h-7.953v-12.766h-3.516V590.233
			 M247.161,590.233h3.68l-6.843-16.079h-3.233l-6.844,16.079h3.58l1.469-3.571h6.737L247.161,590.233 M244.449,583.56h-4.236
			l2.113-5.185L244.449,583.56z M264.506,590.233h2.984v-15.962h-3.467v9.831l-7.485-9.831h-3.242v15.962h3.483v-10.148
			L264.506,590.233 M277.551,590.233c5.023,0,8.488-3.485,8.488-7.974v-0.045c0-4.491-3.465-7.943-8.488-7.943h-6.223v15.962
			H277.551 M282.375,582.302c0,2.821-1.943,4.767-4.824,4.767h-2.712v-9.628h2.712c2.881,0,4.824,1.981,4.824,4.819V582.302z
			 M307.888,590.233h3.669l-6.847-16.079h-3.233l-6.842,16.079h3.588l1.462-3.571h6.748L307.888,590.233 M305.162,583.56h-4.229
			l2.118-5.185L305.162,583.56z M325.217,590.233h2.985v-15.962h-3.452v9.831l-7.495-9.831h-3.225v15.962h3.466v-10.148
			L325.217,590.233 M338.272,590.233c5.016,0,8.497-3.485,8.497-7.974v-0.045c0-4.491-3.481-7.943-8.497-7.943h-6.221v15.962
			H338.272 M343.088,582.302c0,2.821-1.94,4.767-4.815,4.767h-2.717v-9.628h2.717c2.876,0,4.815,1.981,4.815,4.819V582.302z
			 M374.273,590.343l5.443-16.071h-3.664l-3.312,10.804l-3.581-10.847h-3.015l-3.58,10.847l-3.299-10.804h-3.77l5.457,16.071h3.047
			l3.602-10.431l3.61,10.431H374.273 M392.145,590.233h3.692l-6.85-16.079h-3.247l-6.853,16.079h3.594l1.468-3.571h6.744
			L392.145,590.233 M389.436,583.56h-4.231l2.109-5.185L389.436,583.56z M398.294,590.233h11.457v-3.196h-7.953v-12.766h-3.504
			V590.233 M412.41,590.233h12.16v-3.116h-8.678v-3.349h7.533v-3.13h-7.533v-3.244h8.553v-3.123H412.41V590.233 M433.377,590.466
			c3.446,0,5.854-1.794,5.854-4.95v-0.044c0-2.787-1.813-3.945-5.068-4.799c-2.742-0.71-3.433-1.047-3.433-2.093v-0.045
			c0-0.775,0.696-1.388,2.047-1.388c1.339,0,2.743,0.587,4.152,1.561l1.823-2.639c-1.614-1.294-3.601-2.027-5.931-2.027
			c-3.252,0-5.586,1.902-5.586,4.817v0.04c0,3.167,2.065,4.06,5.287,4.878c2.672,0.69,3.223,1.139,3.223,2.036v0.041
			c0,0.939-0.869,1.506-2.297,1.506c-1.838,0-3.333-0.756-4.771-1.936l-2.077,2.484
			C428.515,589.619,430.951,590.466,433.377,590.466 M450.986,579.339c1.2-1.465,2.048-2.148,3.271-2.148
			c1.256,0,2.15,0.729,2.15,2.075c0,1.318-0.777,2.192-2.751,3.83l-5.308,4.355v2.781h11.803v-3.036h-6.959l2.591-1.997
			c2.833-2.193,4.206-3.529,4.206-6.207c0-2.986-2.115-4.95-5.494-4.95c-2.858,0-4.384,1.162-5.955,3.307L450.986,579.339
			 M469.737,590.519c4.255,0,7.102-3.627,7.102-8.29c0-4.646-2.801-8.233-7.071-8.233c-4.261,0-7.122,3.625-7.122,8.282
			C462.645,586.934,465.464,590.519,469.737,590.519 M473.248,582.277c0,2.923-1.342,5.055-3.48,5.055
			c-2.123,0-3.491-2.158-3.491-5.103c0-2.943,1.336-5.06,3.461-5.06C471.851,577.169,473.248,579.356,473.248,582.277
			 M483.083,574.165l-4.583,1.369l0.741,2.867l2.788-0.678v12.51h3.456v-16.068H483.083 M489.395,577.269h6.258l-3.814,3.837
			l0.563,2.249h1.46c2.013,0,3.115,0.725,3.115,2.053c0,1.202-0.934,1.954-2.253,1.954c-1.613,0-2.764-0.686-3.85-1.916
			l-2.423,2.306c1.371,1.619,3.355,2.768,6.24,2.768c3.539,0,5.736-2.222,5.736-5.255c0-2.986-2.094-4.117-4.283-4.496l4.032-3.849
			v-2.647h-10.782V577.269"/>
	</g>
</g>
</svg>
