<svg xmlns="http://www.w3.org/2000/svg" xml:space="preserve" viewBox="0 0 612 792"><path d="M126.072 178.72H476.28v1.872c-10.944 9.216-21.744 19.872-28.656 32.544-9.432 17.353-9.504 35.928 5.616 50.112 11.376 10.584 25.488 14.904 40.32 18 16.92 3.456 33.984 5.904 51.12 8.064 9.144 40.896 11.16 83.016 5.4 124.488-10.152 74.016-44.208 143.208-96.984 195.984-23.616 23.688-50.616 43.92-80.28 60.768-2.448 1.368-4.68 2.16-7.488 2.376-9.72 3.816-23.904 7.704-36.432 6.264-9-1.008-17.064-4.68-22.176-12.816-5.832 2.016-11.304 2.88-16.416 2.808-8.064-.072-16.128-2.664-22.896-7.056-4.968-3.168-9.432-7.848-12.384-13.032-.216-.36-.432-.72-.576-1.08-5.616.144-12.6.216-19.584-.504-14.832-1.44-26.784-6.264-33.696-20.376-3.24-6.624-4.896-14.472-5.184-23.256-4.248-.432-8.136-1.44-11.592-3.096q-5.832-2.7-10.368-7.56c-4.824-5.04-7.272-10.8-8.208-16.92-.72-5.112-.36-10.512.576-15.84-7.56-1.44-16.344-4.032-24.336-7.92-11.52-5.616-20.88-13.824-24.624-26.424-1.8-6.048-2.592-14.328-.648-20.52-8.064-4.104-15.984-9.648-19.728-18.144-4.392-9.864-4.392-20.376-.72-30.312l1.944-5.4c-10.224-7.848-20.952-16.272-24.552-29.232-2.232-7.992.288-16.992 3.6-24.264.792-1.8 2.592-5.688 4.896-8.64-5.184-5.184-10.656-10.512-13.68-17.28-2.448-5.4-3.816-11.448-3.816-17.136 0-5.184 1.008-10.08 3.384-14.256 1.872-3.24 3.024-6.768 5.112-9.936.432-.576.864-1.224 1.296-1.728-7.128-6.048-14.328-13.968-14.688-23.832-.36-10.656 6.12-21.096 13.176-28.512.504-.504 1.008-1.008 1.44-1.512-5.112-6.048-9.792-13.536-12.168-21.456-2.016-6.624-2.304-13.608.144-20.376 1.296-3.528 3.312-6.84 5.4-9.936-3.096-7.128-4.824-14.76-2.232-22.392 2.592-7.488 7.56-15.12 12.528-21.24 3.024-3.672 8.64-10.368 13.968-10.224.36-10.944 9.216-19.584 17.928-25.128 4.248-2.736 6.696-2.88 8.064-1.224 1.44 1.584 1.728 4.896 2.016 9.072.648 7.632.432 17.856.288 21.672 2.808.072 4.536 2.088 5.688 4.536"/><path d="M447.12 209.68c6.48-11.016 15.84-20.448 25.488-28.8H447.12zM447.12 612.664c1.44-1.44 2.952-2.952 4.464-4.392C504 555.784 537.84 487.024 547.92 413.512a345.9 345.9 0 0 0-5.04-122.184c-16.632-2.16-33.336-4.536-49.752-7.92-15.264-3.168-29.736-7.704-41.328-18.576a38.6 38.6 0 0 1-4.68-5.112z" style="fill:#ed1c24"/><path d="M189.072 540.016c.216.072.504.144.792.216V180.88h-62.928c.36.936.576 1.872.792 2.664 2.448 9 4.032 20.736 1.8 29.808-1.224 5.04-3.6 9.792-7.56 15.264.648 1.296 1.296 2.592 1.872 3.96 3.888 9 5.184 17.712 1.728 27.288q-3.456 9.396-12.744 18.792c1.656 2.088 3.024 4.536 4.536 6.768 5.4 8.064 10.152 15.12 10.872 23.4.648 8.424-3.96 19.728-9.864 25.632.792 1.44 1.584 2.952 2.448 4.392 3.816 6.912 7.776 13.968 8.352 21.6.648 9.936-4.392 19.008-10.44 26.424 3.816 3.384 8.28 9.144 11.16 12.744 5.04 6.552 9.144 11.592 11.16 20.16 1.44 6.336 1.656 13.464.504 21.528a75.3 75.3 0 0 1 11.664 9.72c2.088 2.16 4.104 4.536 5.832 7.056 7.272 10.656 6.768 22.536 2.808 34.272 24.192 5.256 29.592 25.776 27.216 47.664" style="fill:#ffe600"/><path d="M130.752 136.816v-23.688h5.04v10.728l7.92-10.728h5.832l-8.424 10.8 8.784 12.888h-6.12l-7.992-12.384v12.384z"/><path d="M174.384 129.832a12.9 12.9 0 0 1-2.736 4.032c-1.224 1.152-2.664 2.016-4.176 2.664-2.88 1.152-6.12 1.224-9 .216-1.44-.504-2.664-1.224-3.816-2.088-1.512-1.224-2.664-2.664-3.456-4.248-1.512-3.168-1.584-6.984-.216-10.152.576-1.512 1.512-2.808 2.736-3.96 1.152-1.224 2.52-2.088 4.104-2.736 3.168-1.224 6.552-1.224 9.648 0 1.584.648 2.952 1.512 4.176 2.736 1.152 1.152 2.088 2.448 2.736 3.96 1.224 3.024 1.224 6.552 0 9.576m-6.408.864c2.88-3.024 2.808-8.28 0-11.304-2.808-3.096-7.776-3.096-10.656 0-2.808 3.024-2.88 8.28 0 11.304 2.808 3.024 7.92 3.024 10.656 0M179.568 136.816v-23.688h5.112v19.44h8.064v4.248zM201.024 123.856h.72q2.052 0 3.024-.864c.648-.576.936-1.512.936-2.736 0-1.152-.288-2.016-.936-2.592-.648-.504-1.656-.792-3.024-.792h-.72zm-5.112 12.96v-23.688h5.832c3.096 0 5.4.648 6.912 1.8 1.44 1.224 2.232 3.024 2.232 5.544 0 2.232-.792 4.032-2.304 5.4-1.44 1.296-3.528 1.944-6.192 1.944h-1.368v9zM237.672 129.832c-.648 1.512-1.512 2.88-2.736 4.032s-2.592 2.016-4.176 2.664a12.9 12.9 0 0 1-9 .216 15.1 15.1 0 0 1-3.816-2.088c-1.512-1.224-2.664-2.664-3.456-4.248-1.44-3.168-1.584-6.984-.216-10.152.648-1.512 1.512-2.808 2.736-3.96 1.224-1.224 2.592-2.088 4.104-2.736a13.32 13.32 0 0 1 9.72 0c1.512.648 2.952 1.512 4.104 2.736 1.224 1.152 2.088 2.448 2.736 3.96a12.28 12.28 0 0 1 0 9.576m-6.336.864c2.808-3.024 2.808-8.28-.072-11.304-2.808-3.096-7.776-3.096-10.584 0-2.808 3.024-2.88 8.28-.072 11.304s7.92 3.024 10.728 0M260.064 136.816h-5.904l-6.192-11.016v11.016h-5.112v-23.688h7.272q4.32 0 6.48 1.728c1.44 1.08 2.16 2.808 2.16 5.04 0 1.584-.504 3.024-1.512 4.176-.936 1.152-2.232 1.8-3.744 2.016zm-12.096-13.536h.72c2.088 0 3.456-.288 4.104-.72s1.008-1.224 1.008-2.304c0-1.152-.36-2.016-1.08-2.52s-2.016-.72-4.032-.72h-.72zM271.8 117.448v19.368h-5.04v-19.368h-5.832v-4.32h16.704v4.32zM280.944 136.816v-23.688h13.968v4.32h-8.928v4.824h8.928v4.32h-8.928v5.976h8.928v4.248zM316.944 136.816h-5.832L304.92 125.8v11.016h-5.04v-23.688h7.128q4.32 0 6.48 1.728c1.44 1.08 2.16 2.808 2.16 5.04 0 1.584-.504 3.024-1.44 4.176-1.008 1.152-2.232 1.8-3.816 2.016zM304.92 123.28h.792c1.944 0 3.312-.288 3.96-.72s1.008-1.224 1.008-2.304c0-1.152-.36-2.016-1.08-2.52s-2.016-.72-3.888-.72h-.792zM330.048 136.816v-23.688h5.04v10.728l7.92-10.728h5.832l-8.424 10.8 8.784 12.888h-6.12l-7.992-12.384v12.384z"/><path d="M373.68 129.832a12.9 12.9 0 0 1-2.736 4.032c-1.224 1.152-2.592 2.016-4.176 2.664-2.88 1.152-6.12 1.224-9 .216-1.44-.504-2.664-1.224-3.816-2.088-1.512-1.224-2.664-2.664-3.456-4.248-1.512-3.168-1.584-6.984-.216-10.152.576-1.512 1.512-2.808 2.736-3.96 1.152-1.224 2.52-2.088 4.104-2.736 3.168-1.224 6.552-1.224 9.648 0 1.584.648 2.952 1.512 4.176 2.736 1.224 1.152 2.088 2.448 2.736 3.96 1.224 3.024 1.224 6.552 0 9.576m-6.408.864c2.88-3.024 2.808-8.28 0-11.304-2.808-3.096-7.776-3.096-10.656 0-2.808 3.024-2.808 8.28 0 11.304s7.92 3.024 10.656 0M396 136.816h-5.832l-6.192-11.016v11.016h-5.112v-23.688h7.272q4.32 0 6.48 1.728c1.44 1.08 2.16 2.808 2.16 5.04 0 1.584-.504 3.024-1.512 4.176-.936 1.152-2.232 1.8-3.816 2.016zm-12.024-13.536h.72c2.088 0 3.384-.288 4.104-.72.648-.432.936-1.224.936-2.304 0-1.152-.36-2.016-1.008-2.52-.72-.504-2.088-.72-4.032-.72h-.72zM422.28 129.832c-.648 1.512-1.512 2.88-2.736 4.032s-2.592 2.016-4.176 2.664a12.9 12.9 0 0 1-9 .216 15.1 15.1 0 0 1-3.816-2.088c-1.512-1.224-2.664-2.664-3.456-4.248-1.44-3.168-1.584-6.984-.216-10.152.648-1.512 1.512-2.808 2.736-3.96 1.224-1.224 2.592-2.088 4.104-2.736a13.32 13.32 0 0 1 9.72 0c1.512.648 2.88 1.512 4.104 2.736 1.224 1.152 2.088 2.448 2.736 3.96a12.28 12.28 0 0 1 0 9.576m-6.336.864c2.808-3.024 2.808-8.28-.072-11.304-2.808-3.096-7.776-3.096-10.584 0-2.808 3.024-2.88 8.28-.072 11.304s7.92 3.024 10.728 0M427.464 136.816v-23.688h5.328l10.44 13.824c.288.36.648.936 1.008 1.656.36.648.72 1.512 1.152 2.448-.144-.648-.216-1.368-.288-2.088-.072-.648-.072-1.512-.072-2.592v-13.248h4.824v23.688h-4.968l-10.8-14.04c-.288-.36-.576-.936-.936-1.584-.36-.72-.72-1.584-1.152-2.592.144.72.216 1.368.288 2.088 0 .72.072 1.584.072 2.664v13.464zM467.424 127.816l-2.664-7.632c-.072-.216-.144-.648-.288-1.152-.144-.576-.216-1.224-.36-2.016-.144.72-.288 1.44-.432 2.016-.144.648-.216 1.008-.288 1.224l-2.52 7.56zm-15.12 9 9.072-23.688h5.76l9.144 23.688h-5.76l-1.944-4.968h-9.144l-1.656 4.968z"/><path d="M286.272 482.344h31.032V496.6h-31.032zM286.272 502.792h31.032v14.256h-31.032z" style="fill:#ed1c24"/><path d="M192.024 540.952c7.056 2.304 14.4 5.112 20.304 9.72 11.304 8.784 16.848 21.24 15.912 35.424 10.224-2.88 25.848.576 34.2 6.408 6.984 4.896 11.88 12.456 14.4 23.4 7.344-.072 15.552 1.368 22.32 4.032 8.208 3.24 14.112 8.424 18.144 16.2v-107.28h-46.152L241.2 338.344c-11.088-.576-19.944-9.792-19.944-20.952 0-11.592 9.432-21.024 21.024-21.024s21.024 9.432 21.024 21.024c0 8.136-4.752 15.264-11.592 18.72L284.04 441.88l5.616-121.176c-9.936-1.656-17.568-10.296-17.568-20.736 0-11.592 9.432-21.024 21.024-21.024 11.52 0 20.88 9.432 20.88 21.024 0 9.288-6.048 17.208-14.4 19.944l17.712 111.384V180.88h-125.28z" style="fill:#ed1c24"/><path d="M319.536 502.792h31.104v14.256h-31.104zM319.536 482.344h31.104V496.6h-31.104z" style="fill:#ffe600"/><path d="M319.536 641.464c3.24-2.16 8.424-3.6 12.312-3.456 12.312.504 25.272 6.984 33.696 15.624 3.816 3.888 6.696 8.496 7.992 13.968 26.064-14.976 49.968-32.544 71.352-52.848V256.696c-8.496-13.032-7.488-28.368 0-43.056v-32.76H319.536v250.416l17.784-111.384c-8.424-2.736-14.472-10.656-14.472-19.944 0-11.592 9.432-21.024 20.952-21.024 11.592 0 21.024 9.432 21.024 21.024 0 10.44-7.632 19.08-17.568 20.736l5.616 121.176L385.2 336.112c-6.84-3.456-11.592-10.584-11.592-18.72 0-11.592 9.432-21.024 21.024-21.024s21.024 9.432 21.024 21.024c0 11.16-8.856 20.376-19.944 20.952L365.76 528.856h-46.224z" style="fill:#ffe600"/><path d="M254.664 579.544v-28.8h6.12v13.032l9.576-13.032h7.128l-10.296 13.104 10.728 15.696h-7.416l-9.72-15.048v15.048zM280.872 550.744h6.12v28.8h-6.12zM294.336 579.544v-28.8h16.848v5.184h-10.728v5.904h10.728v5.256h-10.728v7.2h10.728v5.256zM317.304 579.544v-28.8h6.192v23.544h9.864v5.256zM359.64 558.232c-1.296-1.152-2.592-1.944-3.888-2.448a11.6 11.6 0 0 0-4.176-.792c-3.096 0-5.544.936-7.344 2.736-1.872 1.872-2.736 4.32-2.736 7.416 0 3.024.864 5.472 2.52 7.2 1.728 1.8 4.032 2.664 6.912 2.664 1.656 0 3.24-.288 4.68-.792 1.44-.576 2.736-1.44 3.96-2.52l-.072 6.336a20.6 20.6 0 0 1-4.104 1.728c-1.44.36-2.952.576-4.536.576-4.608 0-8.352-1.44-11.304-4.32-2.952-2.808-4.392-6.48-4.392-10.872s1.44-7.992 4.392-10.8q4.428-4.32 11.448-4.32c1.584 0 3.024.144 4.536.504q2.16.54 4.32 1.512zM365.328 579.544v-28.8h16.992v5.184h-10.8v5.904h10.8v5.256h-10.8v7.2h10.8v5.256zM206.208 261.016v-36.432h7.776v16.488l12.096-16.488h9l-13.032 16.56 13.536 19.872h-9.36l-12.24-19.08v19.08z"/><path d="M273.168 250.216c-.936 2.376-2.376 4.392-4.176 6.12-1.872 1.8-4.032 3.24-6.408 4.176a19.27 19.27 0 0 1-13.896.288q-3.132-1.08-5.832-3.24c-2.304-1.8-4.032-3.96-5.256-6.48-2.304-4.824-2.448-10.656-.36-15.552.936-2.304 2.376-4.392 4.248-6.192 1.8-1.728 3.888-3.096 6.336-4.104 4.752-1.944 10.008-1.944 14.832 0a21.8 21.8 0 0 1 6.336 4.104 17.8 17.8 0 0 1 4.176 6.192c1.944 4.608 1.944 10.08 0 14.688m-9.72 1.368c4.32-4.752 4.248-12.744-.072-17.424-4.392-4.68-11.952-4.752-16.344 0-4.32 4.68-4.392 12.744-.072 17.424 4.32 4.608 12.168 4.608 16.488 0M308.592 261.016h-8.928l-9.576-17.064v17.064h-7.776v-36.432h11.16q6.588 0 9.936 2.592c2.232 1.728 3.24 4.32 3.24 7.704 0 2.52-.72 4.68-2.232 6.48-1.44 1.728-3.456 2.808-5.832 3.096zm-18.504-20.88h1.224c3.096 0 5.184-.36 6.192-1.079 1.008-.648 1.512-1.872 1.512-3.6s-.504-3.024-1.584-3.816c-1.08-.72-3.168-1.08-6.12-1.08h-1.224zM348.912 250.216c-1.008 2.376-2.376 4.392-4.176 6.12-1.872 1.8-4.032 3.24-6.408 4.176-4.464 1.8-9.36 1.944-13.896.288q-3.132-1.08-5.832-3.24c-2.304-1.8-4.032-3.96-5.256-6.48-2.304-4.824-2.448-10.656-.36-15.552.936-2.304 2.376-4.392 4.176-6.192a21.8 21.8 0 0 1 6.336-4.104 19.77 19.77 0 0 1 14.904 0 21.8 21.8 0 0 1 6.336 4.104c1.8 1.8 3.24 3.888 4.176 6.192 1.944 4.608 1.944 10.08 0 14.688m-9.792 1.368c4.392-4.752 4.32-12.744 0-17.424-4.392-4.68-11.952-4.752-16.344 0-4.32 4.68-4.392 12.744-.072 17.424 4.32 4.608 12.168 4.608 16.416 0M355.824 261.016v-36.432h8.064l16.128 21.168c.432.648.936 1.44 1.512 2.52q.756 1.62 1.728 3.888-.324-1.62-.432-3.24c-.072-1.08-.072-2.376-.072-3.96v-20.376h7.416v36.432h-7.632l-16.56-21.6c-.504-.576-1.008-1.44-1.512-2.52q-.864-1.62-1.728-3.888c.144 1.008.288 2.088.36 3.168s.144 2.376.144 4.032v20.808zM417.096 247.12l-4.104-11.736c-.072-.36-.216-.936-.432-1.8-.144-.864-.36-1.872-.576-3.096-.216 1.152-.432 2.232-.576 3.168-.216.936-.36 1.584-.504 1.872l-3.888 11.592zm-23.184 13.896 13.896-36.432h8.856l14.04 36.432h-8.856l-2.952-7.776h-14.112l-2.52 7.776zM130.464 163.24l2.232-1.08a3.25 3.25 0 0 0 1.224 1.8q.864.648 2.16.648c.864 0 1.512-.288 2.016-.72.504-.504.792-1.08.792-1.872 0-1.08-.864-1.944-2.592-2.736-.216-.144-.432-.216-.576-.288-1.872-.936-3.168-1.8-3.816-2.592-.648-.72-.936-1.656-.936-2.736 0-1.44.432-2.592 1.44-3.528.936-.864 2.232-1.296 3.816-1.296 1.296 0 2.376.216 3.24.72s1.44 1.224 1.8 2.16l-2.232 1.152c-.36-.576-.72-.936-1.152-1.224a3.3 3.3 0 0 0-1.44-.36c-.792 0-1.368.216-1.872.576-.432.432-.648.936-.648 1.656 0 1.008 1.008 2.016 2.952 2.88.144.072.288.144.36.216 1.728.792 2.952 1.584 3.6 2.304.648.792.936 1.728.936 2.88 0 1.656-.504 2.952-1.584 3.96-1.008.936-2.448 1.44-4.176 1.44-1.512 0-2.736-.36-3.672-1.008-.936-.72-1.584-1.656-1.872-2.952M147.744 156.544h.72c1.584 0 2.664-.144 3.168-.504s.792-.936.792-1.8c0-.936-.288-1.584-.864-2.016-.576-.36-1.584-.576-3.096-.576h-.72zm-.216 2.376v7.848h-2.664v-17.496h4.32c1.296 0 2.232 0 2.808.144.648.144 1.152.432 1.584.72.576.432 1.008.936 1.296 1.656.288.648.504 1.44.504 2.232a5.7 5.7 0 0 1-.504 2.304c-.288.72-.72 1.296-1.296 1.656-.432.36-.936.576-1.584.72q-.864.216-2.808.216h-1.656M172.44 155.536a6.3 6.3 0 0 0-1.44-2.16c-.576-.648-1.224-1.08-2.016-1.44-1.584-.648-3.384-.648-4.896 0-.792.36-1.512.792-2.088 1.44-.576.576-1.08 1.296-1.368 2.088-.648 1.656-.648 3.456 0 5.04.288.792.792 1.512 1.368 2.16s1.296 1.08 2.088 1.44c1.512.648 3.312.648 4.896 0 .72-.36 1.44-.792 2.016-1.44.648-.648 1.08-1.368 1.44-2.16a6.6 6.6 0 0 0 0-4.968m2.736 6.048c-.432 1.08-1.152 2.088-2.016 2.952-.936.864-1.944 1.512-3.096 1.944-2.232.936-4.896.936-7.128 0a8.4 8.4 0 0 1-3.024-1.944c-.936-.864-1.584-1.872-2.088-2.952-.936-2.232-.864-4.896 0-7.128.504-1.08 1.152-2.088 2.088-2.952.864-.864 1.872-1.512 3.024-2.016 2.232-.864 4.896-.864 7.2 0a11.7 11.7 0 0 1 3.024 2.016c.864.864 1.584 1.872 2.016 3.024a9.22 9.22 0 0 1 0 7.056M182.016 156.688h.504c1.512 0 2.52-.144 2.952-.504.504-.36.792-1.008.792-1.872 0-.936-.288-1.656-.792-2.016-.576-.432-1.512-.648-2.952-.648h-.504zm-.216 2.232v7.848h-2.664v-17.496h3.96c1.152 0 2.088.072 2.736.216s1.152.36 1.656.72a4.7 4.7 0 0 1 1.224 1.656q.432.972.432 2.16c0 1.44-.288 2.52-1.008 3.312-.648.792-1.656 1.296-3.024 1.44l6.048 7.992h-3.24l-5.76-7.848zM198.504 151.648v15.12h-2.808v-15.12h-4.68v-2.376h12.096v2.376zM218.952 155.536a7.4 7.4 0 0 0-1.368-2.16 6.8 6.8 0 0 0-2.088-1.44c-1.584-.648-3.384-.648-4.896 0-.792.36-1.512.792-2.088 1.44-.576.576-1.08 1.296-1.368 2.088-.648 1.656-.648 3.456 0 5.04.288.792.792 1.512 1.368 2.16s1.296 1.08 2.088 1.44c1.512.648 3.312.648 4.896 0 .72-.36 1.44-.792 2.088-1.44.576-.648 1.008-1.368 1.368-2.16a6.6 6.6 0 0 0 0-4.968m2.736 6.048c-.432 1.08-1.152 2.088-2.016 2.952-.936.864-1.944 1.512-3.096 1.944-2.232.936-4.824.936-7.128 0a8.4 8.4 0 0 1-3.024-1.944 8 8 0 0 1-2.016-2.952c-.936-2.232-.936-4.896 0-7.128a8 8 0 0 1 2.016-2.952c.864-.864 1.872-1.512 3.024-2.016 2.232-.864 4.896-.864 7.2 0a11.7 11.7 0 0 1 3.024 2.016c.864.864 1.584 1.872 2.016 3.024a9.22 9.22 0 0 1 0 7.056M223.56 149.272h2.808l3.312 8.784c.216.576.432 1.08.576 1.584.144.432.288.792.36 1.224.288-.936.576-1.872.864-2.736.072-.144.072-.216.072-.216l3.528-9.36 3.744 9.504c.144.504.36.936.504 1.44.144.432.288.864.432 1.368.072-.36.144-.792.288-1.152.144-.432.36-1.008.576-1.584l3.24-8.856h2.88l-6.84 18.144-3.96-10.008c-.144-.432-.36-.864-.504-1.224-.144-.432-.216-.864-.36-1.224-.144.504-.288.936-.432 1.368-.144.36-.216.792-.432 1.152l-3.888 9.936zM251.928 159.856h4.896l-1.8-3.96c-.144-.288-.216-.576-.36-.936-.072-.288-.216-.648-.288-1.08-.144.36-.216.72-.36 1.08-.072.36-.216.648-.288.936zm7.848 6.912-1.944-4.536h-6.984l-2.016 4.536h-2.952l8.424-18.216 8.496 18.216zM270.864 163.24l2.232-1.08a3.56 3.56 0 0 0 1.152 1.8c.576.432 1.368.648 2.232.648s1.512-.288 2.016-.72c.504-.504.72-1.08.72-1.872 0-1.08-.792-1.944-2.52-2.736-.216-.144-.432-.216-.576-.288-1.944-.936-3.168-1.8-3.816-2.592-.648-.72-1.008-1.656-1.008-2.736 0-1.44.504-2.592 1.512-3.528.936-.864 2.232-1.296 3.744-1.296 1.296 0 2.376.216 3.24.72s1.512 1.224 1.8 2.16l-2.16 1.152c-.36-.576-.792-.936-1.152-1.224a3.3 3.3 0 0 0-1.44-.36c-.792 0-1.44.216-1.872.576-.432.432-.648.936-.648 1.656 0 1.008 1.008 2.016 2.952 2.88.144.072.288.144.36.216 1.728.792 2.952 1.584 3.6 2.304.576.792.936 1.728.936 2.88 0 1.656-.504 2.952-1.584 3.96-1.008.936-2.448 1.44-4.248 1.44-1.44 0-2.664-.36-3.672-1.008-.936-.72-1.512-1.656-1.8-2.952M288.144 156.544h.72c1.584 0 2.592-.144 3.168-.504.504-.36.792-.936.792-1.8 0-.936-.288-1.584-.864-2.016-.576-.36-1.584-.576-3.096-.576h-.72zm-.216 2.376v7.848h-2.664v-17.496h4.32c1.296 0 2.232 0 2.808.144a5.3 5.3 0 0 1 1.584.72c.576.432 1.008.936 1.296 1.656.288.648.432 1.44.432 2.232 0 .864-.144 1.656-.432 2.304-.288.72-.72 1.296-1.296 1.656-.432.36-1.008.576-1.584.72q-.864.216-2.808.216h-1.656M312.768 155.536a6.3 6.3 0 0 0-1.44-2.16c-.576-.648-1.224-1.08-2.016-1.44a6.4 6.4 0 0 0-4.896 0c-.72.36-1.44.792-2.016 1.44-.648.576-1.08 1.296-1.44 2.088-.576 1.656-.576 3.456 0 5.04.36.792.792 1.512 1.44 2.16.576.648 1.296 1.08 2.016 1.44 1.584.648 3.312.648 4.824 0 .792-.36 1.512-.792 2.088-1.44.648-.648 1.08-1.368 1.44-2.16a6.6 6.6 0 0 0 0-4.968m2.736 6.048c-.504 1.08-1.152 2.088-2.088 2.952a8.4 8.4 0 0 1-3.024 1.944 9.22 9.22 0 0 1-7.056 0c-1.152-.432-2.16-1.08-3.096-1.944-.864-.864-1.512-1.872-2.016-2.952-.936-2.232-.936-4.896 0-7.128.504-1.08 1.152-2.088 2.016-2.952a10.9 10.9 0 0 1 3.096-2.016 9.93 9.93 0 0 1 7.056 0c1.152.504 2.16 1.152 3.024 2.016.936.864 1.584 1.872 2.088 3.024a9.22 9.22 0 0 1 0 7.056m-10.296-14.04 2.232-3.312h2.664l-3.456 3.312zM373.464 159.856h4.896l-1.8-3.96c-.144-.288-.216-.576-.36-.936-.072-.288-.216-.648-.288-1.08-.144.36-.216.72-.36 1.08-.072.36-.216.648-.288.936zm7.848 6.912-1.944-4.536h-6.984l-2.016 4.536h-2.952l8.424-18.216 8.496 18.216zM385.992 166.768v-17.496h2.808v7.2l6.336-7.2h3.456l-6.912 7.776 7.776 9.72h-3.672l-6.984-9v9zM414.36 153.52a8.1 8.1 0 0 0-2.592-1.584c-.864-.36-1.8-.504-2.808-.504-1.872 0-3.456.648-4.68 1.872-1.152 1.224-1.8 2.808-1.8 4.752 0 1.872.576 3.456 1.8 4.68 1.152 1.224 2.592 1.8 4.392 1.8 1.008 0 2.016-.144 2.952-.504s1.872-.936 2.736-1.656v3.168c-.792.576-1.656 1.008-2.52 1.224a9.8 9.8 0 0 1-2.952.432c-1.296 0-2.592-.216-3.672-.648a8.4 8.4 0 0 1-3.024-1.944c-.864-.864-1.512-1.8-1.944-2.952-.504-1.152-.72-2.376-.72-3.6 0-1.296.216-2.52.72-3.672a8.8 8.8 0 0 1 1.944-2.952 8.4 8.4 0 0 1 3.024-1.944c1.08-.432 2.304-.648 3.6-.648 1.08 0 2.016.144 2.952.432s1.872.72 2.736 1.368zM421.632 166.768v-8.064l-5.904-9.432h3.024l3.672 5.904c.072.144.216.36.288.576.144.288.288.504.432.792.072-.216.216-.504.36-.792.144-.216.216-.432.36-.648l3.816-5.832h2.808l-6.048 9.432v8.064zM432.288 163.528c.288.36.576.648.792.792q.432.216.864.216c.576 0 1.008-.144 1.224-.504s.288-1.08.288-2.088v-12.672h2.88v13.608c0 1.512-.36 2.592-1.008 3.312-.648.648-1.656 1.008-3.096 1.008-.72 0-1.44-.144-2.016-.432-.648-.288-1.224-.72-1.8-1.368zM442.08 166.768v-18.216l11.088 10.728.936.936c.288.36.648.72.936 1.152v-12.096h2.664v18.144l-11.376-10.872c-.288-.288-.576-.648-.864-.936-.288-.36-.576-.648-.792-1.008v12.168zM465.408 159.856h4.896l-1.8-3.96c-.144-.288-.216-.576-.36-.936-.072-.288-.216-.648-.288-1.08-.144.36-.216.72-.288 1.08-.144.36-.216.648-.36.936zm7.848 6.912-1.944-4.536h-6.984l-2.016 4.536h-2.952l8.424-18.216 8.496 18.216zM319.464 166.768v-6.84l-1.296.864V158.2l1.296-.864v-8.064h2.808v6.12l4.392-2.952v2.592l-4.392 2.952v6.192h6.408v2.592zM349.848 159.856h4.896l-1.8-3.96c-.144-.288-.216-.576-.36-.936-.072-.288-.216-.648-.288-1.08-.144.36-.216.72-.36 1.08-.072.36-.216.648-.288.936zm-18.864 6.912v-17.496h2.808v7.2l6.336-7.2h3.456l-6.912 7.776 7.344 9.216 8.208-17.712 8.496 18.216h-3.024l-1.944-4.536h-6.984l-2.016 4.536h-6.048l-6.912-9v9z"/><path d="M166.824 558.376c.432-2.232.648-4.32 1.8-6.408 1.44-2.664 3.888-2.952 6.408-1.944 0-.864-.072-2.16-.072-3.6-11.52-6.192-19.584-11.736-24.048-19.152-3.24-5.4-4.536-11.736-3.888-19.944-3.24-1.44-9.072-3.24-14.544-4.248-3.456-.576-11.16-2.088-13.176 2.016-2.592 5.328-1.368 15.12.216 20.376 3.6 12.024 12.528 19.728 23.544 25.128 7.776 3.816 16.344 6.336 23.76 7.776" style="fill:#008c44"/><path d="M174.96 543.976c.144-1.872.576-3.672 1.512-4.68 1.584-1.656 6.048-1.08 10.44.072 2.304-21.456-3.24-40.968-27.36-45.216-4.248-.72-7.344-2.304-8.496 2.664-3.168 13.392-2.52 22.32 1.728 29.376 4.032 6.768 11.52 11.952 22.176 17.784" style="fill:#008c44"/><path d="M147.312 505.024c.288-2.664.864-5.544 1.584-8.712 1.512-6.408 5.472-5.256 10.8-4.32 3.816-11.232 4.464-22.536-2.448-32.688-1.656-2.376-3.6-4.68-5.616-6.768-3.6-3.672-8.856-8.496-13.464-10.8-1.368-.648-2.448-.792-3.312-.216-3.384 2.376-6.84 13.536-8.208 17.424 7.632 6.912 12.312 15.192 14.76 25.2 1.512 6.12 2.232 12.672 2.376 19.584 1.296.432 2.52.864 3.528 1.296" style="fill:#008c44"/><path d="M117.648 503.584c2.736-4.752 10.8-3.456 15.192-2.664 2.952.504 5.976 1.296 8.712 2.088-.216-6.48-.864-12.672-2.232-18.288-2.52-10.368-7.488-18.576-15.624-25.416-3.384-2.808-7.272-5.472-11.808-8.064-2.232-1.224-6.336-3.6-8.928-2.376-2.304 1.079-3.744 6.767-4.68 9.288-3.384 9.36-3.312 19.224.72 28.368 3.6 8.064 11.088 13.176 18.648 17.064" style="fill:#008c44"/><path d="M99.216 449.656c.648-1.152 1.512-2.16 2.808-2.808 3.528-1.656 7.92.792 10.944 2.52 4.536 2.52 8.496 5.184 11.88 8.064.36-1.008.864-2.304 1.368-3.744-5.04-4.968-9.216-9.864-12.6-14.76-3.528-5.112-6.264-10.224-8.136-15.264-1.656-4.608-2.304-9.288-2.232-13.968.072-2.016.288-4.032.576-6.048-1.8-1.8-3.672-4.104-5.688-6.48-2.592-3.024-5.256-6.264-7.92-8.64-2.016-1.8-4.248-.216-6.12 2.232-2.232 2.808-4.032 6.624-4.824 8.352-3.024 6.768-5.472 15.408-3.456 22.824 3.456 12.24 13.752 20.376 23.4 27.72" style="fill:#008c44"/><path d="M127.08 451.456c1.872-4.824 4.392-10.224 6.552-11.736 1.944-1.296 4.032-.72 5.904.288.936-7.344.72-13.968-.648-19.8-1.872-8.064-6.048-13.104-10.728-19.224-4.176-5.256-11.88-15.192-14.112-14.688-3.672.792-5.256 7.056-6.192 10.008-.72 2.16-1.224 4.392-1.656 6.552v.072c-.432 2.304-.648 4.536-.72 6.84-.144 4.464.504 8.856 2.088 13.104 1.8 4.896 4.392 9.864 7.848 14.832 3.168 4.536 7.056 9.144 11.664 13.752" style="fill:#008c44"/><path d="M104.328 400.984c.36-1.8.864-3.6 1.44-5.328 1.296-4.032 2.952-10.44 7.848-11.52.864-.216 2.088.36 3.456 1.296 5.688-6.984 10.512-15.48 9.864-24.84-.504-7.128-4.32-13.968-8.064-20.664-1.512-2.736-3.024-5.472-4.32-8.208-1.152-2.376-2.592-2.52-4.032-1.656-3.528 1.944-7.416 7.344-9.72 10.656-1.296 1.8-2.304 3.456-2.88 4.608 3.816 6.048 5.472 13.104 6.408 20.088.792 6.192 1.008 12.456 1.224 17.856.144 5.112-.432 10.944-3.384 15.264.72.864 1.44 1.728 2.16 2.448" style="fill:#008c44"/><path d="M83.592 387.952c2.448-2.448 5.256-3.6 8.064-1.08s5.544 5.832 8.208 9c.288.216.576.576.792.936 2.376-3.888 2.808-9 2.664-13.536-.144-5.328-.36-11.592-1.152-17.568-.936-7.2-2.664-14.4-6.912-20.448-1.584-2.232-3.456-4.104-5.4-6.048-2.88-2.808-5.4-6.048-8.352-8.712s-4.32-1.44-6.408 1.728c-2.088 3.096-3.168 6.552-5.04 9.72-2.16 3.744-3.168 8.424-3.168 13.248.072 5.4 1.368 11.088 3.672 16.272 2.88 6.408 8.136 11.52 13.032 16.488" style="fill:#008c44"/><path d="M76.176 327.76c2.592-1.872 4.608-.864 6.768 1.08 3.024 2.736 5.544 5.976 8.424 8.784 1.8 1.8 3.6 3.6 5.184 5.688a39 39 0 0 1 2.736-4.248q-6.804-7.128-9.504-14.904c-3.816-10.728-1.584-21.312 2.664-31.464-1.584-2.448-3.096-4.896-4.968-7.128-1.224-1.44-2.376-3.312-3.528-5.184-1.44-2.304-2.808-4.536-3.96-5.328-1.296-.936-2.736.576-5.4 3.384-6.624 6.984-12.888 16.92-12.528 26.928.288 9.288 7.344 16.776 14.112 22.392" style="fill:#008c44"/><path d="M100.584 337.264c2.304-3.096 5.544-7.272 8.856-9.144 2.592-1.44 5.184-1.368 7.056 2.664.288.576.504 1.08.792 1.584 5.184-5.544 9.36-15.696 8.712-23.328-.648-7.776-5.184-14.616-10.44-22.392-1.584-2.304-3.312-5.472-5.184-7.488-1.512-1.728-3.672-3.312-5.76-1.44-3.312 2.952-6.264 7.56-8.64 12.456-5.04 10.368-8.136 22.032-4.176 33.264 1.728 4.824 4.608 9.36 8.784 13.824" style="fill:#008c44"/><path d="M93.528 290.32c2.304-5.112 5.4-10.44 9.648-14.256 2.736-2.448 5.832-1.368 8.208.936q8.856-8.964 12.096-17.928c3.312-9 2.016-17.136-1.656-25.632-1.296-3.024-2.808-5.976-4.176-8.496-4.32-7.704-10.224.576-13.536 4.392-3.384 3.888-5.976 8.28-9.144 12.24l1.08 4.104c1.44 5.976 1.944 12.096.792 18.936-.648 4.104-1.656 7.776-3.168 10.872-1.368 2.88-3.24 5.256-5.76 7.056.432.576.792 1.152 1.224 1.584 1.656 1.944 3.024 4.032 4.392 6.192" style="fill:#008c44"/><path d="M76.032 273.904c1.8-1.512 3.312-2.016 5.184-.648 1.584 1.08 3.024 3.528 4.608 5.976l.864 1.512c2.16-1.584 3.816-3.672 5.04-6.192 1.368-2.952 2.304-6.408 2.952-10.296 1.08-6.48.576-12.384-.792-18.072-1.368-5.76-3.6-11.304-5.904-17.136-.792-2.016-1.512-4.104-2.232-6.048-1.872-5.184-3.384-9.288-4.248-9.432-2.952-.504-7.272 5.256-8.856 7.2-3.168 4.032-6.336 8.712-8.136 13.536-2.304 6.336-2.016 12.816-.144 19.08 2.232 7.56 6.768 14.688 11.664 20.52" style="fill:#008c44"/><path d="M69.336 221.56c.576-.792 1.08-1.512 1.656-2.16 2.232-2.88 6.696-8.712 10.872-7.992 2.088.36 3.816 5.04 5.976 10.872.648 1.872 1.368 3.888 2.232 5.904 1.44 3.672 2.88 7.272 4.032 10.872 1.44-1.872 2.736-3.888 4.104-5.76-2.736-3.888-4.968-7.776-6.48-11.808-1.584-4.248-2.376-8.496-2.016-12.96.648-7.92 5.256-14.76 10.584-20.376-1.296-4.464-2.88-8.856-4.824-13.104-3.672-8.136-12.888 2.952-15.624 6.336-4.824 5.904-9.72 13.32-12.168 20.592-2.232 6.624-.936 13.32 1.656 19.584" style="fill:#008c44"/><path d="M99.576 231.424c.936-1.152 1.872-2.376 2.88-3.528 4.536-5.184 11.664-13.752 17.064-4.032.432.792.936 1.656 1.368 2.52 3.384-4.824 5.472-9.144 6.552-13.536 2.088-8.712.576-20.088-1.8-28.728-.864-3.024-2.088-8.352-6.336-7.704-1.728.288-3.744 1.296-5.904 3.024-9.072 7.056-20.52 17.064-21.456 29.304-.36 4.104.36 8.064 1.872 12.024 1.368 3.528 3.312 7.128 5.76 10.656M102.024 186.352c3.168-3.168 6.624-6.048 10.008-8.64 2.16-1.656 4.248-2.808 6.192-3.312.144-3.384.36-13.968-.288-21.744-.288-3.672-.36-6.552-1.44-7.632-.792-.792-2.16-.504-5.328 1.44-8.208 5.256-16.776 13.464-16.848 23.904 1.152.648 2.304 1.872 3.168 3.816a91.5 91.5 0 0 1 4.536 12.168M358.92 672.928a87.4 87.4 0 0 1-15.696-1.872c-5.328-1.08-10.368-2.808-14.616-5.04-2.736-1.368-6.552-5.256-9.288-9.432-2.232.072-13.608-.288-13.032 3.456.144 1.08.792 2.592 2.016 4.68 4.68 7.848 12.312 11.304 20.808 12.312 9.864 1.08 20.88-1.224 29.808-4.104M318.024 654.424c-1.656-3.024-2.592-6.12-2.088-8.568.216-1.08.864-2.088 1.728-2.952-.792-3.168-2.376-6.12-4.032-8.856-3.672-5.904-9.072-9.648-15.264-12.096-6.192-2.376-13.032-3.456-19.368-3.816-2.88-.144-7.056-.144-9.504 1.584-5.472 3.744 8.28 13.608 11.232 16.272 7.776.432 16.056 2.592 22.824 6.48 5.112 2.88 9.504 6.84 12.744 12.024.576-.072 1.152-.072 1.728-.072" style="fill:#008c44"/><path d="M371.52 668.752c-1.08-5.328-3.888-9.792-7.56-13.608-8.064-8.28-20.448-14.472-32.184-14.904-3.312-.144-12.888 2.088-13.68 6.048-1.152 5.472 7.056 15.48 11.52 17.784 4.032 2.16 8.928 3.744 14.04 4.896 5.616 1.152 11.592 1.728 17.352 1.8 3.816 0 7.056 0 10.512-2.016M305.712 664.432c-.936-1.656-1.44-2.952-1.584-4.104-.72-4.968 6.264-5.472 9.648-5.688-2.952-4.392-6.84-7.776-11.304-10.296-12.528-7.128-29.592-8.208-43.056-3.024-4.248 1.656-4.824 2.736-2.52 6.696 2.808 4.824 6.984 9.216 11.736 12.312 6.408 4.104 14.04 6.624 21.672 6.696 4.752.072 9.864-.72 15.408-2.592" style="fill:#008c44"/><path d="M253.584 645.856c-1.08-3.744 1.872-5.4 5.112-6.624 5.76-2.232 12.312-3.24 18.576-3.312-.072 0-.072 0-.072-.072-1.44-1.152-3.24-2.592-4.896-4.176-12.096 1.296-22.68-.648-30.96-5.904-8.064-5.112-13.896-13.32-16.488-24.624-.432-1.656-.864-3.384-1.152-5.04-6.624-3.024-13.68-5.04-20.88-6.192-4.752-.792-4.392-1.08-4.608 3.888-.144 4.248-.216 8.568.072 12.816.504 7.344 2.088 13.968 4.824 19.584 6.624 13.392 17.928 17.784 31.968 19.152 6.48.648 13.104.648 18.504.504" style="fill:#008c44"/><path d="M270.216 629.656c-2.88-3.096-6.912-8.352-2.016-11.736 1.872-1.296 4.248-1.728 6.408-1.944-2.376-10.152-6.984-17.136-13.392-21.672-6.768-4.752-15.624-6.768-26.136-6.768-2.592 0-6.408.144-8.64 1.8-2.232 1.728 0 8.928.504 11.304 2.52 10.728 7.992 18.504 15.624 23.328 7.344 4.68 16.848 6.552 27.648 5.688M223.344 593.512c-.216-2.664.144-5.04 2.664-6.48 1.224-13.896-3.96-26.064-15.048-34.632-4.608-3.672-10.152-5.976-15.624-7.992-2.52-.936-15.48-5.472-17.28-3.6-1.584 1.656-.792 7.776-.792 10.368 2.808 1.44 5.832 3.168 8.928 5.04 8.424 5.04 18.288 10.512 23.976 18.576 3.024 4.32 5.04 9.36 6.768 16.272 2.16.72 4.32 1.584 6.408 2.448" style="fill:#008c44"/><path d="M195.912 601.648c0-2.664 0-5.328.144-7.92.216-6.336.936-6.984 7.128-5.976 3.816.576 7.56 1.44 11.304 2.592-1.584-6.048-3.384-10.512-6.12-14.256-5.472-7.776-15.192-13.176-23.256-18-2.952-1.728-5.832-3.384-8.496-4.824-1.872-1.008-4.68-2.808-6.12-.216-1.224 2.304-1.656 5.904-2.088 8.496-.792 4.896-1.08 9.792-.432 14.4.864 5.76 3.168 11.16 7.632 15.768 2.808 3.024 6.048 5.4 9.648 7.056 3.24 1.512 6.768 2.448 10.656 2.88" style="fill:#008c44"/><path d="M326.232 651.544c2.664-.864 5.328-.864 7.776-.288-.432-2.016-1.944-4.824-3.888-5.616 4.536.216 4.968 2.376 7.128 6.84 8.712 5.112 7.776 10.08 20.592 10.8-3.456.72-6.12.576-8.352.288-5.688-.864-7.848-.072-11.088-1.224 1.656-.504 3.744-1.152 5.76-1.224-6.12-4.32-9.576-9.576-17.928-9.576M317.952 665.44c1.8 2.304 4.32 4.392 7.128 4.896 4.968.936 10.8 1.224 15.048 2.304-1.152.144-3.744.072-6.552.288-4.248.216-9-.072-10.584-.936-2.16-1.224-4.248-2.88-5.04-6.552M283.536 623.32c5.688 1.944 9 1.296 11.88 6.84 2.448 4.824 5.184 10.656 6.768 11.088-1.152-2.088-1.728-4.968-2.52-7.344-1.296-3.888-1.08-6.552-1.296-10.656-1.008 1.44-1.296 2.952-1.368 4.608-.576-.792-1.224-1.584-2.088-2.304-2.52-2.016-5.832-2.016-11.376-2.232M266.472 650.032c4.464 2.52 10.152 1.368 15.336.72-3.528-2.232-6.264-6.984-10.584-6.768 1.152-1.296 3.312-1.152 4.824-.36 2.808 1.512 6.48 4.68 9.288 6.768 5.76-.288 13.464 3.024 18.144 6.768-7.416-2.664-13.608-5.04-21.744-4.248-6.336.648-12.672 1.872-15.264-2.88M238.32 596.104c3.168 4.104 4.896 7.776 7.488 11.304 2.16 3.024 4.392 5.76 7.344 8.136-2.304.432-5.904-.144-7.992-.144 1.296.504 5.184 2.88 10.008 1.584 2.88 1.944 6.336 3.528 9.72 4.536-7.272-4.824-11.592-8.208-16.992-15.264-.144-4.248-.288-9.792-3.024-13.176.72 3.168.864 7.272 1.152 10.8-2.304-2.736-5.4-6.048-7.704-7.776M243.504 636.496c-5.544-2.808-13.248-6.696-17.136-11.592-3.384-4.248-4.824-10.08-8.424-14.616-3.528-4.464-8.136-6.48-13.68-6.48 5.184.792 8.712 3.672 11.376 7.272 2.808 3.816 4.752 9.576 7.704 13.824-2.16-.648-3.528-2.376-5.976-2.376s-5.328-2.088-5.976-4.536c-.216 2.88 2.376 6.336 5.184 6.336 3.168 0 5.472 2.448 8.712 2.88 4.392 4.248 13.032 8.136 18.216 9.288M196.128 551.68c0 8.352 6.84 12.168 12.6 16.416 5.184 3.816 5.544 10.008 9.936 15.336-1.44-4.824-3.024-10.008-5.832-14.184-1.872-2.808-3.96-3.456-4.536-7.272-.504-3.528.648-6.336-3.528-8.712.864 1.368 1.296 2.736 1.224 4.248 0 2.376.504 4.896.936 6.336-1.296-.864-2.736-1.872-4.248-3.24-2.952-2.664-5.544-6.264-6.552-8.928M171.504 562.984c.936 5.976 6.192 10.728 11.88 14.688-.144-1.44-.216-2.952.072-4.68.216-2.016-.36-4.104-.648-6.192 3.6 3.672 1.512 8.208 2.736 12.312 3.456 2.16 10.944 6.912 10.944 8.424-5.112-4.248-15.768-.576-16.848-5.184 0 .288 1.8 1.008 4.176.936 2.016 0 3.672-.288 5.76.072-5.184-2.592-11.304-5.256-14.904-10.368-1.872-2.808-3.456-5.832-3.168-10.008M169.776 506.968c1.152 2.952 1.008 5.472.936 8.424 0 2.016.792 3.024.936 5.04 1.44-1.224 2.808-11.952-1.872-13.464"/><path d="M160.272 500.92c-1.008 8.352 2.52 13.248 5.256 16.2 5.616 5.976 8.496 12.312 12.456 19.08-2.16-9.648-5.256-13.248-10.512-20.16-3.312-4.464-7.56-12.024-7.2-15.12"/><path d="m156.384 507.472 2.808 2.592c.288.288 1.872 1.152 1.872 1.8-3.096 1.44-4.752-1.872-4.68-4.392M144.864 531.808c1.944.072 3.672-.864 5.04.072s3.024 1.512 3.672 1.872c-1.224.288-3.168.432-4.896.072-1.512-.36-3.24-1.944-3.816-2.016"/><path d="M141.696 523.312c6.048 2.88 7.704 5.832 13.104 9.936-7.056-2.664-7.776-6.696-15.264-6.408-5.04.216-9.72.864-13.104-2.952 4.176 1.08 5.472 1.728 13.752 1.08-6.912-2.88-8.136-5.688-10.584-11.376 2.232 1.872 3.312 5.76 12.096 9.72M114.408 466.216c1.8-3.24 3.096-4.608 1.44-9.792 5.112 3.384 1.512 8.568-.504 12.888.36 1.512.648 3.024.72 4.32 1.8 12.816 3.024 13.32 8.784 20.304-7.272-4.032-9.288-8.496-10.368-15.408-9.432-1.872-7.344-7.272-7.2-9.504 0 1.728 1.8 6.12 6.912 7.344-.072-.72-.144-1.512-.216-2.304-.72-6.408-2.736-11.592-4.68-17.712 2.016 2.448 3.888 6.192 5.112 9.864M148.392 489.4c-.648-5.544.288-11.088-2.592-16.2-1.728-3.168-3.6-5.256-5.112-8.136-5.976-2.376-7.2-4.248-6.984-8.496.36 2.088 3.096 4.392 5.544 5.616-.936-2.376-1.512-5.472-1.368-9.792 1.296 7.488 4.248 11.16 7.272 15.264.432-3.168 1.008-6.552 1.224-9.216 2.808 4.104.144 9.648 2.448 15.192 2.016 5.112 1.296 9.792-.432 15.768M126.432 406.816c-1.728 7.776-1.008 12.24.288 14.976.072-2.88.504-5.472.648-7.272.288-3.456-.288-6.12-.936-7.704M117.936 406.312c1.152 4.824 1.008 7.992 2.376 10.224 3.024 5.184 5.4 7.416 6.624 14.76.36 1.8 1.008 3.744 1.008 5.328 1.296-7.488 0-11.952-2.232-15.552-1.512-2.448-3.816-4.248-4.752-7.128-.432-1.44-1.656-8.064-3.024-7.632M97.344 407.68c4.176 5.112 4.032 11.376.288 17.856.36-3.312.504-6.336.936-9.288.36-3.24-.36-6.12-1.224-8.568"/><path d="M88.344 401.272c-1.296 4.896-.936 10.368.864 15.12 2.592 6.84 8.352 12.672 14.472 20.448-4.464-7.92-9-14.832-12.168-21.168-2.376-4.824-3.024-9.936-3.168-14.4M88.344 369.016c-2.664-3.888-1.944-5.544-.792-9.432.72-2.592.504-5.04.144-7.704 2.376 3.168 2.448 5.4 1.512 8.64-.936 3.096-1.296 5.112-.864 8.496M110.52 378.808c2.16-8.208 5.112-12.456 2.808-21.24-.864-3.312-2.088-6.408-3.24-9.864 2.592 2.808 4.176 5.76 5.04 9.144 2.304 8.352 1.224 15.264-4.608 21.96"/><path d="M84.384 365.272c5.112 5.472 5.616 8.856 4.32 15.624-1.008-5.976-1.44-8.28-5.832-13.536-5.832-5.4-6.768-15.624-1.512-23.904-2.448 8.208-2.664 15.408 3.024 21.816M103.608 293.056c3.528 4.176 6.624 7.56 6.768 12.816.288 6.624-4.392 14.976-6.264 21.312 3.816-4.32 9.36-14.4 8.856-21.384 2.736-4.392 2.376-6.912 1.656-9.864 0 2.664-1.152 4.392-2.736 6.048-1.8-3.6-5.328-6.696-8.28-8.928M81.144 285.928c-1.512 5.544-3.672 13.032-3.456 18.576.216 5.112 2.304 8.856 5.184 16.56-5.256-5.832-7.632-10.656-8.064-15.336-4.536-6.12-4.896-9.864-2.664-13.968-.36 4.536 1.944 8.064 2.736 9.864.648-4.752 3.024-9.72 6.264-15.696M111.168 234.52c3.384 4.968 4.32 10.44 2.52 16.2-.936 3.168-2.736 6.048-4.896 9.072-1.8 2.52-3.528 4.752-3.888 5.904-.216-4.032 3.744-8.064 5.328-12.312.072-5.184-1.368-10.584-4.896-13.608 1.656-.144 5.544 4.032 6.696 7.128.648-3.816 1.08-9-.864-12.384M79.416 226.888c1.656 4.536 1.656 10.44 1.152 16.056-2.088-2.088-1.584-7.344-5.832-10.079 1.08 1.368 1.368 2.52 1.656 4.968.504 4.248 2.232 6.48 3.888 8.928-.576 4.464-1.944 11.088-.576 15.408.36-2.736 2.52-10.512 3.096-17.424.576-6.985-.216-14.977-3.384-17.857M104.976 218.752c-1.224-6.48-.936-13.464.504-17.28 1.656-4.68 6.984-9.72 11.88-15.912-2.304 5.472-4.896 8.496-6.984 11.52-1.728 2.52-2.808 5.832-3.6 9.072 1.944-1.8 7.128-9.72 12.744-9.36-.576.288-2.664 1.728-4.824 3.816-7.704 7.848-8.136 5.904-9.72 18.144M90.864 182.896c-4.68 7.128-8.424 16.056-8.28 24.696-.648-2.016-1.224-3.24-1.224-5.04 0-.36.072-.72.144-1.08-1.944-3.024-1.8-6.12-2.088-9.144 2.088 1.368 1.224 2.304 2.592 5.472 1.584-6.264 3.312-10.152 8.856-14.904M102.528 182.896c-.432-3.312 1.008-4.896 2.52-7.488 1.224-2.088 2.16-4.176 2.808-6.624 1.08-4.032 1.728-8.496 2.592-12.168.792 4.392.72 8.928-.36 13.248-1.08 4.248-3.096 6.192-4.968 8.928-1.008 1.368-1.656 2.808-2.592 4.104"/></svg>