<svg xmlns="http://www.w3.org/2000/svg" viewBox="0 0 612 792"><path fill="#013b82" d="M305.928 165.472c77.544-4.032 148.176 18 199.512 56.663 52.2 39.313 84.6 95.832 84.6 160.056 0 63.792-32.184 123.264-83.952 167.616-51.12 43.776-121.536 72.936-198.864 76.896-77.544 4.032-148.176-18-199.512-56.664-52.2-39.312-84.6-95.832-84.6-160.056 0-63.792 32.184-123.264 83.952-167.616 51.12-43.775 121.536-72.935 198.864-76.895"/><path fill="#fff" d="M306.576 178.288c149.04-7.632 270.576 83.952 270.576 203.904 0 119.88-121.536 223.992-270.576 231.696C157.536 621.52 36 529.936 36 409.984c0-119.88 121.536-223.992 270.576-231.696"/><path fill="#013b82" d="M55.656 455.992h385.56c-14.976 27.72-31.824 49.752-59.4 66.312-22.104 13.176-47.808 20.808-75.24 20.808s-53.136-7.632-75.24-20.808c-2.304-1.44-4.608-2.88-6.768-4.392h-95.256c107.568 100.944 259.56 97.776 358.704 12.24 46.656-41.112 78.84-99.432 74.592-162.864-.72-10.656-2.448-21.096-5.112-31.104z"/><path fill="#f47920" d="M125.136 262.024c-46.296 40.824-75.024 94.608-75.024 151.632 0 14.256 1.872 28.584 5.544 42.336l501.84-119.808h-385.56c14.976-27.72 31.824-49.752 59.4-66.312 22.104-13.176 47.808-20.808 75.24-20.808s53.136 7.632 75.24 20.808c2.304 1.44 4.608 2.88 6.84 4.392h95.184c-109.8-102.96-257.688-101.088-358.704-12.24"/><path fill="#004282" d="M388.656 274.264c18.648 12.6 34.344 29.448 45.576 49.032h119.304c-29.304-82.512-123.336-139.248-235.8-135.504 70.848 7.704 130.32 37.512 166.104 86.472z"/><path fill="#f47920" d="M224.568 517.912c-18.72-12.6-34.344-29.448-45.648-49.032H59.616c29.304 82.512 123.336 139.248 235.8 135.504-69.336-7.344-129.024-34.992-166.104-86.472z"/><path fill="#fff" d="M445.896 283.264h9.504l-2.376 11.304h5.184l14.688-11.448h14.4L466.2 298.528l16.2 15.768H468l-11.448-11.88h-5.112l-2.52 11.88h-9.432ZM483.624 314.296l6.408-31.032h21.24c4.248 0 6.912.144 8.136.288 2.952.432 4.824 1.368 5.616 2.952.72 1.584.72 4.392-.144 8.424-.792 3.816-1.8 6.48-3.024 8.064q-1.188 1.512-3.024 2.376c-1.224.504-2.808.936-4.752 1.152q-2.052.216-7.56.216h-11.88l-1.584 7.56zm12.6-15.336h11.808c2.16 0 3.528-.072 4.032-.072.432-.072.864-.144 1.296-.36.576-.288.936-.648 1.296-1.152.288-.576.504-1.368.72-2.448.288-1.152.288-1.944.216-2.448-.144-.504-.504-.864-1.008-1.152-.36-.144-2.016-.216-4.896-.288H497.88zM90.072 492.208h-5.616c.36-1.512.648-2.736.936-3.528.504-1.44 1.368-2.376 2.52-2.88.792-.36 1.8-.576 3.096-.72q2.052-.216 5.832-.216c3.96 0 6.408 0 7.488.143 1.08.072 1.872.288 2.448.648.576.432.936 1.008 1.08 1.8.072.72 0 1.872-.36 3.456a22 22 0 0 1-.72 2.664c-.288.648-.576 1.152-1.008 1.584a3.7 3.7 0 0 1-1.872 1.296c-1.296.432-2.736.648-4.392.792-4.032.216-6.696.36-7.848.504-1.224.072-1.944.216-2.232.432-.216.144-.432.288-.504.504-.144.144-.288.576-.432 1.08h17.496l-.936 4.392H82.224l.432-2.16c.432-2.16.864-3.744 1.152-4.68.648-1.8 1.944-2.952 3.816-3.384.72-.144 1.368-.288 1.944-.36.648-.072 2.304-.216 5.112-.432 2.736-.144 4.392-.288 4.896-.36q.756-.108 1.296-.216c.36-.144.648-.288.792-.504s.288-.576.36-1.08c.144-.576.144-.936.072-1.224a.82.82 0 0 0-.576-.504q-.54-.216-4.32-.216c-2.16 0-3.672.072-4.536.144s-1.368.144-1.656.36c-.144.144-.36.36-.432.648s-.288.937-.504 2.017M123.408 484.864c3.672 0 6.192.143 7.632.36 1.656.216 2.736.936 3.096 2.16.216.648.288 1.368.216 2.088s-.432 2.448-.936 5.184c-.432 2.088-.72 3.456-.864 4.032s-.36 1.152-.576 1.728c-.576 1.368-1.512 2.448-2.808 3.096-.576.216-1.224.432-1.872.576-.72.072-1.728.216-2.952.216-1.512.072-3.168.144-4.968.144-3.6 0-6.192-.144-7.632-.36-1.656-.288-2.664-1.008-3.096-2.232-.216-.576-.288-1.296-.216-2.088.072-.72.432-2.52 1.008-5.4.432-1.944.72-3.168.864-3.744s.288-1.152.504-1.728c.576-1.44 1.512-2.448 2.88-3.096.504-.288 1.152-.432 1.872-.576.648-.144 1.656-.216 2.88-.288 1.512 0 3.168-.072 4.968-.072m-1.368 4.968c-2.664 0-4.32.144-4.968.504-.36.216-.72.648-1.008 1.296-.288.576-.504 1.584-.792 2.952-.36 1.512-.504 2.664-.432 3.24 0 .576.216 1.008.72 1.224.288.144.648.216 1.08.288s1.512.072 3.384.144c2.376-.072 3.744-.144 4.104-.144 1.08-.144 1.872-.432 2.232-1.008.432-.576.792-1.8 1.224-3.672.288-1.512.432-2.592.432-3.168-.072-.648-.288-1.008-.72-1.224-.36-.144-.72-.288-1.152-.288-.432-.072-1.8-.072-4.104-.144M149.4 484.864c3.672 0 6.192.143 7.632.36 1.656.216 2.736.936 3.096 2.16.216.648.288 1.368.216 2.088s-.432 2.448-.936 5.184c-.432 2.088-.72 3.456-.864 4.032s-.36 1.152-.576 1.728c-.576 1.368-1.512 2.448-2.808 3.096-.576.216-1.224.432-1.872.576-.72.072-1.728.216-2.952.216-1.512.072-3.168.144-4.968.144-3.672 0-6.192-.144-7.632-.36-1.656-.288-2.736-1.008-3.096-2.232-.216-.576-.288-1.296-.216-2.088.072-.72.432-2.52 1.008-5.4.432-1.944.72-3.168.864-3.744s.288-1.152.504-1.728c.576-1.44 1.512-2.448 2.808-3.096.576-.288 1.224-.432 1.872-.576.72-.144 1.728-.216 2.952-.288 1.512 0 3.168-.072 4.968-.072m-1.368 4.968c-2.664 0-4.32.144-4.968.504-.36.216-.72.648-1.008 1.296-.288.576-.504 1.584-.792 2.952-.36 1.512-.504 2.664-.432 3.24 0 .576.216 1.008.648 1.224.36.144.72.216 1.152.288.36.072 1.512.072 3.384.144 2.376-.072 3.744-.144 4.104-.144 1.08-.144 1.872-.432 2.232-1.008.432-.576.792-1.8 1.224-3.672.288-1.512.432-2.592.432-3.168-.072-.648-.288-1.008-.72-1.224-.36-.144-.72-.288-1.152-.288-.432-.072-1.8-.072-4.104-.144M163.8 485.08h21.888l-.936 4.464-13.896 14.616h-7.344l13.752-14.256h-14.472ZM112.104 414.808c7.992 0 29.664-.072 31.32-.144 1.584-.072 2.952-.36 3.96-.792q2.268-.864 3.024-4.968.648-2.916-.648-3.888t-5.832-1.08c-2.304 0-7.2-.216-14.688-.576-7.632-.432-12.6-.648-14.976-.72-4.536-.144-7.92-.576-10.224-1.368-6.912-2.304-6.624-7.632-5.472-13.536l1.872-9c1.728-8.712 5.688-14.112 15.408-15.552 4.32-.648 12.96-1.008 25.848-1.008l34.848.864-3.816 14.328-52.272.72c-1.872.576-3.024 2.016-3.528 4.392-.432 2.376.144 4.248 1.8 4.752l39.672 1.872c3.312.432 5.832 1.224 7.632 2.448 1.944 1.512 3.168 3.456 3.6 5.904.432 2.52.216 6.192-.72 10.872-1.296 6.264-2.952 10.872-5.112 13.896-1.656 2.232-3.6 3.888-5.976 4.968-2.304 1.08-5.4 1.8-9.288 2.232-4.176.36-11.88.576-22.968.576-6.912 0-24.768-.144-35.352-.432zm81.432-51.84 69.12.216-3.384 16.848h-27.576l-9.792 48.96h-19.872l9.792-48.96h-22.32zm119.808 54.864-2.232 12.096h18.504l12.672-66.744h-43.416l-54.432 65.808h21.6l10.08-11.16zm2.808-14.4h-30.168l20.592-24.84h14.328zm31.536 25.56 13.104-65.808h45.72c10.728.072 17.136.216 19.224.36 4.68.504 8.64 3.744 9.288 8.568.36 2.592 0 6.768-1.152 12.456-.936 4.824-1.944 8.352-2.952 10.584-2.376 5.256-6.768 7.488-12.384 8.352 5.256.36 9.072 2.592 8.856 8.136-.144 1.8-.72 5.544-1.872 11.232l-1.224 6.12H405.72l.648-3.528c.72-3.672 1.152-6.264 1.224-7.848.072-2.592-.504-4.536-3.312-5.04-1.224-.216-3.744-.288-7.704-.288h-26.64l-3.312 16.704zm25.56-33.12h26.568c8.712-.144 12.6 1.152 14.472-8.352.72-3.6 1.296-7.344-3.384-7.704-.864-.072-3.528-.144-7.92-.144h-26.496zm80.64-32.904 69.048.216-3.312 16.848h-27.576l-9.792 48.96h-19.872l9.792-48.96h-22.32zM245.52 542.536l-2.952 5.904-7.848-2.88-11.952 23.4-7.488-2.664 11.952-23.472-7.92-2.88 3.024-5.832ZM282.96 559.024c-.216 1.152-.576 2.52-1.008 3.96l-2.232 6.912c-1.512 4.68-3.456 7.848-5.76 9.432q-3.78 2.7-10.8 1.296l-4.392-.864c-3.744-.72-6.264-1.872-7.704-3.456-1.584-1.8-2.016-4.536-1.296-8.136.216-1.152.576-2.448 1.008-3.888l2.232-6.912c1.512-4.68 3.456-7.848 5.76-9.432 2.52-1.8 6.12-2.232 10.728-1.368l4.392.864c3.744.72 6.264 1.872 7.704 3.456 1.584 1.872 2.088 4.536 1.368 8.136m-8.496-.144q.432-2.376-.648-3.456c-.648-.576-1.8-1.008-3.528-1.368l-1.656-.288c-2.376-.504-4.176-.216-5.256.792-.72.72-1.512 2.448-2.376 5.112l-1.8 5.544c-.504 1.44-.792 2.52-.936 3.24-.288 1.584-.072 2.664.72 3.384.576.576 1.728 1.008 3.384 1.296l1.656.36c2.448.432 4.176.216 5.256-.792.792-.72 1.584-2.376 2.448-5.112l1.8-5.472c.504-1.512.792-2.592.936-3.24M325.152 556.72c0 .504-.072 1.224-.144 2.088l-.36 2.88c-.504 4.608-2.952 7.2-7.344 7.704l-.072.432c3.744.648 5.616 2.736 5.616 6.336 0 .144-.072.36-.072.648-.072.288-.072.504-.072.72l-.864 6.912h-8.568l.72-6.048v-.648c.072-.36.072-.576.072-.72q0-1.944-1.08-2.592c-.576-.288-1.584-.504-2.952-.504h-5.616l-1.296 10.512h-8.424l4.32-34.992h13.536c3.888 0 6.696.288 8.352.936 2.808 1.008 4.248 3.168 4.248 6.336m-8.856 2.808c0-1.224-.432-2.088-1.152-2.52-.576-.36-1.584-.504-2.952-.504h-5.688l-1.152 10.296h5.616c1.728 0 2.952-.288 3.6-.935.72-.576 1.224-1.8 1.44-3.528l.144-1.368c0-.216.072-.432.072-.72.072-.289.072-.505.072-.721M370.368 541.024l1.152 22.104q.216 4.428 0 6.264c-.504 4.176-2.448 7.128-5.904 8.856-1.656.792-3.744 1.44-6.336 1.944l-4.68.792c-2.448.432-4.32.576-5.688.432-2.016-.144-3.672-.936-5.04-2.232s-2.232-3.168-2.664-5.616c-.216-1.152-.36-2.88-.504-5.04l-1.152-22.032 8.568-1.512 1.08 21.312c.072 1.368.216 2.448.36 3.24.288 1.8.936 2.88 1.944 3.384.864.36 2.232.432 4.104.072l1.8-.288q3.888-.756 4.968-2.808c.576-1.08.72-3.096.576-6.048l-1.08-21.312zM415.44 521.728l9.72 36.288-12.96 5.256-18.576-22.896-.36.072 7.344 27.504-7.848 3.168-9.792-36.288L396 529.576l18.36 22.68.432-.144-7.272-27.216Z"/><path fill="#fff" d="m397.152 525.112 6.48 7.92 1.944-.504-2.52-10.224Z"/><path fill="#013b82" d="m306.576 314.296-3.312-29.664c-5.4-3.744-10.944-6.048-22.176-8.64-9.864-2.232-19.008-1.008-32.544 3.672 36.216-25.344 79.848-25.344 116.064 0-13.536-4.68-22.68-5.904-32.544-3.672-11.232 2.592-16.776 4.896-22.176 8.64zM258.48 462.256l-14.688 25.992c2.16 6.192 5.256 11.304 12.888 20.016 6.624 7.56 14.76 11.952 28.44 16.128-44.136-.792-79.56-26.496-93.888-68.256 8.208 11.736 14.832 18.072 24.12 22.104 10.656 4.536 16.416 5.904 22.968 6.048zM354.672 462.256l20.16 22.032c6.552-.144 12.312-1.512 22.968-6.048 9.288-4.032 15.912-10.368 24.12-22.104-14.328 41.76-49.752 67.464-93.888 68.256 13.68-4.176 21.816-8.568 28.44-16.128 7.632-8.712 10.728-13.824 12.888-20.016zM185.832 336.184c6.768-11.736 16.128-22.32 27.936-31.248-8.568 11.448-12.6 19.728-13.536 29.808 0 .432-.072.936-.072 1.44zM412.992 336.184c0-.504-.072-1.008-.072-1.44-.936-10.08-4.968-18.36-13.536-29.808 11.808 8.928 21.168 19.512 27.936 31.248z"/></svg>