<?xml version="1.0" encoding="iso-8859-1"?>
<!-- Generator: Adobe Illustrator 24.0.1, SVG Export Plug-In . SVG Version: 6.00 Build 0)  -->
<svg version="1.1" id="Layer_1" xmlns="http://www.w3.org/2000/svg" xmlns:xlink="http://www.w3.org/1999/xlink" x="0px" y="0px"
	 viewBox="0 0 612 792" style="enable-background:new 0 0 612 792;" xml:space="preserve">
<path style="fill:#D2AB67;" d="M536.256,112.624l-49.752,98.208l48.672,30.672c-23.976,27-35.856,52.92-37.872,88.848
	c-2.16,38.16,6.12,83.016,31.896,112.248c-7.056,27.216-15.696,48.672-30.456,72.648c-31.176,45.144-69.984,75.024-115.704,104.904
	c-24.912,15.984-59.688,34.056-76.464,59.4c-16.704-25.272-51.624-43.416-76.464-59.4c-45.72-29.88-84.528-59.76-115.704-104.904
	c-14.76-23.976-23.4-45.432-30.456-72.648c25.776-29.232,34.056-74.088,31.896-112.248c-2.016-35.928-13.896-61.848-37.872-88.848
	l48.672-30.672l-49.752-98.208H536.256z"/>
<path style="fill:#FFFFFF;" d="M526.536,118.672H86.616l47.808,94.248l-47.376,29.952c21.528,25.776,32.904,53.424,34.848,87.12
	c2.16,38.88-5.904,83.376-31.392,114.12c6.48,24.192,15.696,46.44,28.872,67.824c29.952,43.416,70.272,74.664,113.976,103.176l0,0
	c4.464,2.88,9.216,5.76,14.04,8.784c20.664,12.672,44.136,27.072,59.184,45.576c15.048-18.576,38.52-32.904,59.184-45.576
	c4.824-3.024,9.576-5.904,14.04-8.784l0,0c43.704-28.512,84.024-59.76,113.976-103.176c13.176-21.384,22.392-43.632,28.872-67.824
	c-25.488-30.744-33.552-75.24-31.392-114.12c1.944-33.696,13.32-61.344,34.848-87.12l-47.376-29.952L526.536,118.672z"/>
<path style="fill:#0052A4;" d="M147.6,540.736c8.28,9,17.064,17.352,26.208,25.344c19.152,16.632,39.96,31.536,61.704,45.72v-0.072
	c2.52,1.656,4.752,3.024,6.84,4.32c13.176,8.208,26.496,16.056,39.096,25.2c9.216,6.696,17.928,13.968,25.128,22.104
	c7.2-8.136,15.912-15.408,25.128-22.104c12.6-9.144,25.92-16.992,39.096-25.2c2.088-1.296,4.32-2.664,6.84-4.32v0.072
	c21.744-14.184,42.552-29.088,61.704-45.72c19.008-16.56,36.36-34.992,51.192-56.448l-0.144,0.216
	c6.48-10.584,12.024-21.312,16.632-32.328c4.392-10.44,8.136-21.24,11.232-32.472c-11.52-14.472-19.44-31.68-24.48-49.752
	c-1.224-4.68-2.304-9.36-3.24-14.112L147.6,540.736z"/>
<path style="fill:#0052A4;" d="M93.816,244.888c19.512,24.912,30.24,53.208,32.04,84.888c1.944,34.488-3.816,71.784-21.672,101.808
	l411.624-189.216c-2.736-1.872-5.472-3.816-8.28-5.688h0.072c-7.344-4.968-15.048-10.008-23.184-15.12
	c-49.896-28.656-113.904-16.128-155.952,8.568c-7.704,4.536-15.192,9.72-21.888,15.624c-6.264-5.544-13.68-10.8-21.888-15.624
	c-42.048-24.696-106.056-37.224-155.952-8.568C116.136,229.408,104.544,237.256,93.816,244.888z"/>
<path style="fill:#D2AB67;" d="M431.64,191.752v-7.416l18.72-31.968h-15.264c-1.512,0-2.592,0.144-3.456,0.432v-7.416h36.648v7.488
	l-18.432,31.896h15.552c1.368-0.072,2.304-0.216,2.88-0.432v7.416H431.64z"/>
<path style="fill:#D2AB67;" d="M406.872,166.84h1.08c2.808,0,4.248-2.448,4.248-7.272c0-5.256-1.296-7.848-3.888-7.848h-1.44V166.84
	L406.872,166.84z M406.944,171.52v17.928c0,0.936,0.216,1.728,0.504,2.304h-16.704c0.288-0.432,0.432-1.224,0.504-2.304v-41.76
	c-0.072-0.936-0.216-1.728-0.504-2.304H414c4.248,0,7.632,1.08,10.152,3.312c2.592,2.232,3.888,5.472,3.888,9.648
	c0,2.88-0.576,5.184-1.656,6.984c-1.08,1.8-2.88,3.528-5.544,5.04l8.568,19.08c0.432,0.936,0.936,1.728,1.44,2.304h-18
	c0-0.216,0-0.288,0-0.36c0-0.36-0.144-1.008-0.432-1.944L406.944,171.52z"/>
<polygon style="fill:#D2AB67;" points="354.744,141.856 359.568,129.256 369.72,129.256 361.152,141.856 "/>
<path style="fill:#D2AB67;" d="M360.792,151.072c-2.88,0-4.968,1.368-6.336,4.104c-1.368,2.808-2.016,7.128-2.016,13.032
	c0,5.976,0.648,10.368,1.872,13.32c1.296,3.024,3.456,4.536,6.552,4.536c2.88,0,4.968-1.44,6.336-4.176
	c1.296-2.736,2.016-7.128,2.016-13.104c0-5.976-0.648-10.44-1.944-13.32C365.976,152.584,363.816,151.144,360.792,151.072
	L360.792,151.072z M360.792,144.52c6.84,0,12.456,1.584,16.632,4.68c5.4,3.96,8.136,10.44,8.136,19.368
	c0,8.28-2.376,14.4-7.056,18.432c-4.32,3.744-10.368,5.616-18.288,5.616c-5.4,0-9.648-0.864-12.816-2.448
	c-4.176-2.16-7.128-5.328-9.072-9.648c-1.512-3.456-2.232-7.56-2.232-12.456c0-2.52,0.288-5.04,0.936-7.56
	c0.648-2.52,1.44-4.608,2.52-6.336C343.512,147.832,350.64,144.592,360.792,144.52z"/>
<path style="fill:#D2AB67;" d="M311.112,185.272h1.728c1.224,0,2.16-0.504,2.808-1.512c0.576-1.008,0.864-2.592,0.864-4.752
	c0-2.592-0.288-4.392-0.864-5.472c-0.576-1.152-1.44-1.656-2.736-1.656h-1.8V185.272L311.112,185.272z M311.112,165.328h1.296
	c1.44,0,2.448-0.504,3.024-1.512c0.576-1.008,0.864-2.808,0.864-5.4c0-2.232-0.288-3.888-0.936-4.896
	c-0.648-1.008-1.656-1.512-3.024-1.512h-1.224V165.328L311.112,165.328z M295.056,145.384h23.976c3.888,0,6.984,1.008,9.216,3.024
	c2.088,2.016,3.168,4.968,3.168,8.784c0,4.104-1.224,6.984-3.744,8.64c-0.792,0.504-2.16,1.08-4.104,1.728
	c2.52,0.576,4.464,1.512,5.76,2.808c1.944,1.944,2.88,4.68,2.88,8.352c0,5.04-1.728,8.712-5.184,10.944
	c-2.232,1.368-4.824,2.088-7.848,2.088h-24.12c0.288-0.576,0.432-1.368,0.504-2.376v-41.688
	C295.488,146.608,295.344,145.888,295.056,145.384z"/>
<path style="fill:#D2AB67;" d="M271.44,145.384h16.632c-0.288,0.504-0.432,1.296-0.432,2.304v41.76c0,1.008,0.144,1.728,0.432,2.304
	H271.44c0.288-0.576,0.504-1.296,0.504-2.304v-41.76C271.944,146.68,271.728,145.888,271.44,145.384z"/>
<path style="fill:#D2AB67;" d="M266.976,146.896v9.936c-4.392-3.456-8.208-5.184-11.592-5.184c-3.384,0-5.976,1.512-7.848,4.464
	c-1.944,2.952-2.88,6.984-2.88,12.168c0,3.096,0.288,5.688,0.792,7.848c0.576,2.088,1.44,3.888,2.592,5.4
	c0.936,1.224,2.088,2.16,3.456,2.808c1.368,0.72,2.808,1.08,4.176,1.08c3.24,0,6.984-1.656,11.304-4.968v9.648
	c-4.536,1.656-9.36,2.52-14.4,2.52c-8.208,0-14.328-2.088-18.36-6.192c-3.96-4.104-5.904-10.152-5.904-18.288
	c0-5.472,0.936-9.864,2.808-13.032c1.296-2.16,3.096-4.104,5.256-5.832c2.232-1.656,4.68-2.808,7.488-3.6
	c2.88-0.792,6.264-1.152,10.152-1.152C258.624,144.52,262.944,145.312,266.976,146.896z"/>
<path style="fill:#D2AB67;" d="M197.64,173.032h8.28l-4.032-13.464L197.64,173.032L197.64,173.032z M195.192,180.016l-3.312,9.432
	c-0.216,0.792-0.36,1.368-0.36,1.728c0,0.144,0,0.288,0.072,0.576h-8.424c0.576-0.576,1.008-1.296,1.368-2.304l14.544-41.76
	c0.288-0.864,0.432-1.44,0.432-1.8c0-0.144,0-0.288-0.072-0.504h13.176c0,0.216,0,0.288,0,0.36c0,0.36,0.144,1.008,0.432,1.944
	l14.904,41.76c0.432,1.008,0.864,1.728,1.512,2.304h-17.928c0.072-0.288,0.072-0.432,0.072-0.576c0-0.432-0.072-1.008-0.288-1.728
	l-3.096-9.432H195.192z"/>
<path style="fill:#D2AB67;" d="M160.992,166.84h1.08c2.808,0,4.248-2.448,4.248-7.272c0-5.256-1.296-7.848-3.888-7.848h-1.44V166.84
	L160.992,166.84z M161.064,171.52v17.928c0,0.936,0.144,1.728,0.432,2.304h-16.632c0.288-0.432,0.432-1.224,0.432-2.304v-41.76
	c0-0.936-0.144-1.728-0.432-2.304h23.256c4.248,0,7.632,1.08,10.152,3.312c2.592,2.232,3.888,5.472,3.888,9.648
	c0,2.88-0.576,5.184-1.656,6.984c-1.08,1.8-2.952,3.528-5.544,5.04l8.496,19.08c0.432,0.936,0.936,1.728,1.512,2.304h-18.072
	c0.072-0.216,0.072-0.288,0.072-0.36c0-0.36-0.144-1.008-0.432-1.944L161.064,171.52z"/>
<path style="fill:#D2AB67;" d="M213.12,258.352h24.696c7.704,0,13.464,1.728,17.28,5.256c3.888,3.528,5.832,8.784,5.832,15.768
	c0,6.552-1.944,11.808-5.904,15.768c-3.96,3.96-9.288,5.976-15.84,5.976h-10.368l-0.432,23.832h-16.416L213.12,258.352
	L213.12,258.352z M228.96,270.16l-0.288,19.08h6.12c3.312,0,5.976-0.864,7.776-2.52c1.8-1.656,2.736-4.032,2.736-7.056
	c0-3.168-0.864-5.544-2.52-7.128c-1.656-1.584-4.176-2.376-7.56-2.376H228.96z"/>
<path style="fill:#D2AB67;" d="M149.112,258.352h16.272l-1.08,66.6h-16.272L149.112,258.352L149.112,258.352z M186.984,258.352
	l-22.032,32.688l20.736,33.912h19.728l-23.184-34.2l23.76-32.4H186.984z"/>
<polygon style="fill:#D2AB67;" points="351.144,481.768 349.128,477.088 364.68,460.888 364.68,515.968 359.352,517.048 
	359.352,474.856 "/>
<path style="fill:#D2AB67;" d="M381.312,522.52c3.312-5.976,5.616-10.152,6.912-12.672c1.224-2.52,2.52-5.4,3.888-8.784
	c-2.16,2.016-4.32,2.952-6.48,2.952c-3.384,0-6.336-1.944-8.712-5.976c-2.448-4.104-3.744-8.928-3.744-14.472
	c0-5.616,1.296-10.44,3.816-14.616c2.664-4.32,5.904-6.48,9.792-6.48c3.672,0,6.912,1.944,9.576,5.832
	c2.88,4.176,4.32,9.288,4.32,15.264c0,11.664-4.824,25.848-14.4,42.624L381.312,522.52L381.312,522.52z M386.928,470.248
	c-2.304,0-4.248,1.224-5.904,3.816c-1.584,2.448-2.376,5.472-2.376,9c0,3.888,0.864,7.128,2.592,9.648
	c1.584,2.376,3.456,3.6,5.688,3.6c2.376,0,4.392-1.44,6.048-4.176c1.512-2.52,2.232-5.472,2.232-8.784
	c0-3.672-0.792-6.84-2.376-9.288C391.248,471.544,389.232,470.248,386.928,470.248z"/>
<path style="fill:#D2AB67;" d="M401.328,504.088l22.752-43.2v37.008h6.84l-1.008,6.192h-5.832v11.88l-5.184,1.08v-12.96H401.328
	L401.328,504.088z M410.112,497.896h9.504v-19.44L410.112,497.896z"/>
<path style="fill:#D2AB67;" d="M454.464,454.696c-3.312,6.048-5.616,10.368-6.84,12.888c-1.296,2.52-2.592,5.544-3.888,8.928
	c1.224-1.152,2.304-1.944,3.24-2.376c0.864-0.432,1.944-0.648,3.168-0.648c3.456,0,6.336,2.088,8.712,6.12
	c2.52,4.176,3.744,9.144,3.744,14.76c0,5.76-1.296,10.728-3.816,14.976c-2.592,4.392-5.832,6.624-9.72,6.624
	c-3.744,0-6.912-2.016-9.576-5.976c-2.88-4.32-4.392-9.792-4.392-16.488c0-3.888,0.504-7.704,1.368-11.52
	c0.936-3.816,2.376-8.28,4.536-13.464c2.376-5.904,5.256-11.736,8.496-17.64L454.464,454.696L454.464,454.696z M448.848,481.408
	c-2.376,0-4.32,1.44-5.976,4.248c-1.512,2.592-2.304,5.544-2.304,8.928c0,3.744,0.792,6.912,2.376,9.576
	c1.584,2.592,3.6,3.888,5.976,3.888c2.232,0,4.176-1.296,5.832-3.888c1.584-2.592,2.376-5.688,2.376-9.288
	c0-1.8-0.216-3.672-0.648-5.4c-0.504-1.8-1.08-3.24-1.872-4.464C453.024,482.704,451.08,481.48,448.848,481.408z"/>
<path style="fill:#D2AB67;" d="M210.6,410.632c0,1.152,0.216,2.304,0.792,3.6l17.928,38.16c2.88,6.192,3.456,12.168,1.584,17.928
	c-2.736,8.64-10.44,15.912-23.112,21.816c-9.936,4.752-18.72,6.264-26.28,4.68c-3.96-0.72-7.272-2.376-10.08-4.752
	c-2.736-2.448-5.184-5.904-7.272-10.44l-17.424-37.008c-0.648-1.368-1.44-2.304-2.232-2.88l26.28-12.384
	c-0.072,1.08,0.144,2.304,0.72,3.6l18.144,38.664c2.088,4.392,4.752,7.128,7.992,8.208c3.6,1.224,7.704,0.792,12.168-1.368
	c3.528-1.656,6.264-3.96,8.28-7.056c1.368-2.088,2.016-4.248,2.016-6.48c0-2.304-0.72-4.896-2.088-7.92l-17.712-37.584
	c-0.72-1.44-1.44-2.376-2.232-2.88L210.6,410.632z"/>
<path style="fill:#D2AB67;" d="M255.456,421.648l16.416,35.064c0.72,1.368,1.44,2.304,2.304,2.808l-12.6,5.904
	c0.072-1.008-0.144-2.232-0.792-3.528l-27.288-58.104c-0.72-1.44-1.44-2.376-2.232-2.88l21.24-9.864
	c0.504,0.648,1.728,1.44,3.528,2.304l47.736,21.096l-16.776-35.64c-0.72-1.368-1.44-2.304-2.304-2.952l12.528-5.832
	c-0.216,0.576-0.216,1.008-0.144,1.368c0.072,0.36,0.36,1.08,0.864,2.16l27.216,57.96c0.504,1.08,1.224,2.016,2.304,2.952
	L306,444.544c-0.72-0.648-1.944-1.368-3.744-2.232L255.456,421.648z"/>
<path style="fill:#D2AB67;" d="M319.248,359.584l26.28-12.384c-0.072,1.008,0.144,2.16,0.792,3.6l27.288,58.032
	c0.648,1.368,1.44,2.304,2.232,2.808l-26.28,12.384c0.144-1.008-0.144-2.16-0.72-3.6l-27.288-57.96
	C320.832,361.096,320.112,360.088,319.248,359.584z"/>
<path style="fill:#D2AB67;" d="M403.056,365.416l20.664-9.072l-9.432-20.304C398.16,340.504,395.424,351.592,403.056,365.416
	L403.056,365.416z M408.672,376.648l5.976,13.32c0.576,1.368,1.44,2.304,2.232,2.808l-17.856,8.424
	c0.072-1.008-0.072-2.16-0.792-3.6c-4.896-10.008-9.72-20.16-14.616-30.24c-8.64-16.416-7.344-35.28,21.96-48.384l26.28-12.312
	c-0.072,0.936,0.144,2.16,0.792,3.528l27.288,58.104c0.648,1.368,1.44,2.304,2.232,2.88l-26.28,12.312
	c0.144-0.936-0.144-2.16-0.72-3.528l-5.976-12.744L408.672,376.648z"/>
<path style="fill:#D2AB67;" d="M362.952,552.76c-1.08-5.112-2.232-9.936-4.104-14.4c-2.232-4.968-5.112-9.576-8.136-14.112
	c-4.392-4.968-9.288-9.432-14.76-12.816c-2.232-1.584-4.68-3.024-7.416-3.96c-3.744-1.584-7.416-3.384-11.952-3.672
	c-0.72-0.792-2.592-0.144-3.456-0.648c-5.832-0.72-13.464-0.144-18.576-3.384l-10.44-0.288c-1.512,0.648-2.16,2.088-2.304,3.672
	c2.304-0.36,4.536,0.504,6.48,1.296c0.936,0.648,2.448,0.936,2.448,2.232l-3.096,0.504c-1.224,0.576-2.592,0.648-3.528,1.584
	c-0.936,0.864-3.528,0-2.88,2.376c3.168,0.504,7.416-0.504,9.648,1.584c0.288,0.504,1.512-0.288,1.656,0.504
	c2.16,0.936,4.248,1.728,5.472,4.032c2.304,2.808,0.936,8.424-0.288,11.52c-0.792,1.872-1.08,4.464-2.592,5.904
	c-2.736-0.144-5.112-0.504-7.416-1.152c-2.448-0.432-4.248-1.728-6.048-3.024c-2.592-2.376-1.224-8.64-1.08-12.312
	c-0.432-1.8-1.224-3.528-2.592-4.68c-0.864-0.792-2.232-0.936-3.168-1.584c-2.088-0.288-4.536-0.144-6.192,0.648
	c-2.448,1.584-5.328,2.736-6.552,5.616c-3.6,5.256-4.68,12.312-6.624,18.72c-2.592,6.552-4.248,13.752-8.352,19.008
	c-0.144,0.648-0.792,2.448,0.432,2.304c1.872,0,2.88-0.864,4.392-1.296c1.872-0.648,3.24-3.24,5.328-2.736
	c0.576,4.032,0.288,7.344-0.432,11.016c-0.648,3.888-1.224,7.704-2.88,10.728c-0.144,0.792-1.224,1.296-0.792,2.088
	c2.304-0.432,4.392-1.296,5.472-3.168c2.232-2.088,2.88-5.616,4.536-7.992c1.08,2.232-0.288,4.32-0.144,6.84
	c-0.432,0.648,0.144,2.088-0.432,2.592c-0.792,5.256-1.512,10.584-3.384,14.904c0.504,1.224,2.16,0.936,3.528,0.936
	c0.72-0.504,1.224-1.296,2.088-1.44c1.512-2.88,3.528-5.616,3.96-9.288c0.432-0.504-0.144-1.8,0.576-2.088
	c-0.144-1.296,0.144-2.232,0.504-3.168l0.288,0.144c0.288,3.528-0.432,6.912-0.792,10.368c-0.576,3.096-1.656,5.976-2.736,8.856
	c0.792,0.432,1.728,0,2.304-0.504c3.312-0.792,4.248-4.464,6.048-7.056c0.144-0.648,0.144-1.44,0.792-1.944
	c0.576-1.872,0.72-3.96,1.368-5.76c0-1.872,0.72-3.168,0.72-5.112c0.288-1.872,0.144-3.96,0.792-5.616
	c0.576,1.008,0.576,2.304,0.576,3.744c0.648,1.08,0.504,3.312,0.144,4.752c0.504,0.36,1.224,0.792,1.512,0.504
	c2.16-4.32,2.592-9.792,3.96-14.76c0.432-0.936-0.432-3.168,0.792-3.312l0.288,3.168c0.432,1.584,0.144,4.032,0,5.112
	c1.8,2.232,1.8-1.44,3.168-1.44c0,0.648,0,1.296-0.432,1.656c-0.504,2.664-1.08,5.4-1.512,8.136
	c-0.935,2.088-0.648,4.968-1.727,6.84l1.721-0.789c-0.03-0.002-0.04-0.003,0.007-0.003l-0.007,0.003
	c0.154,0.011,1.112,0.08,0.871,0.501c-2.304,4.464-4.536,9.144-7.128,13.464c0,0.936-0.864,1.08-1.368,1.584
	c-0.576-0.648-1.512-0.648-2.232-0.792c-2.304-0.792-5.04-0.936-7.416-1.44c-1.08,0.936-2.592,1.296-2.304,3.384
	c0.144,2.376,2.304,3.168,4.104,3.816c0.432-0.288,0.576-0.792,0.576-1.44c1.368-1.152,2.304,0.504,4.104,0
	c0.144,0.288,0.504,0.504,0.144,0.936c-2.232,0-3.6,3.384-5.76,1.44c-0.144,0.504-0.72,0-1.008,0
	c-1.368,0.504-2.304,1.296-2.88,2.592c0.144,2.232,1.944,3.384,3.456,3.96c0.576,0.36,1.224,1.656,1.944,0.648
	c-0.288-3.024,3.024-2.88,4.608-3.816l0.288,0.504c-1.152,1.152-2.376,2.304-3.384,3.672c0,1.584,0.648,3.168,2.016,3.672
	c2.232,0.144,5.472,0.648,7.272-0.36l-1.8-2.376c0.144-1.008-1.224-1.944-0.36-2.88c1.08-2.232,3.384-3.528,6.264-3.384
	c0.864,1.296-1.079,2.304,0.144,3.096c0.576-0.36,1.224-0.36,1.656-1.008c0.72,0,0.936-1.08,1.8-1.08
	c0.648-1.8,2.592-3.672,1.368-5.616c-1.08-1.584-2.88,0-4.536-0.36c-0.432-0.288-0.936-0.432-0.792-1.08
	c1.368-5.904,4.752-10.44,6.984-15.552c1.08-0.144,0.648,1.152,1.224,1.44c0.576,0.36-0.144,1.656,0.792,1.44
	c0.576-1.584,1.368-2.88,1.512-4.752c0.432-1.008,0-2.736,1.008-2.88c1.368,1.872,1.872,4.752,2.88,6.984
	c0,4.032,0.792,8.064-1.008,11.232c-0.936,3.024-3.528,4.68-4.608,7.488l3.816-0.144c0,1.944-1.224,3.384-1.8,5.112
	c-2.16,1.008-2.88,3.384-5.328,3.888c-2.88,0.288-4.536-0.792-6.984-0.792c0.792,3.528,3.672,5.76,6.84,6.984
	c3.456,1.296,7.272-0.144,10.44-0.936c1.368,1.8,2.736,3.816,5.112,4.176c0.576-0.144-0.144-1.584,0.432-2.088
	c8.784-0.648,17.136-2.088,23.688-6.264c2.232-0.936,4.392-2.52,6.624-3.816c2.592-1.584,4.536-4.176,7.272-5.904
	c4.68-4.968,8.64-10.44,11.808-16.632c2.16-4.536,3.816-9.288,4.896-14.472c0.864-2.376,0.432-5.76,1.008-8.28
	C364.464,562.048,362.952,557.584,362.952,552.76z M331.776,524.104c3.888,2.592,7.056,6.264,9.936,9.936
	c0.936,0.936,2.016,1.728,1.872,3.384c-4.896,1.872-9.72,3.816-14.544,5.544c-3.672,3.24-6.984,6.624-10.656,9.792
	c-0.864,0.648-1.8-0.288-2.232-0.936c-0.144-1.656,1.8-1.8,2.088-3.096c0.648-0.144,0.504-0.936,0.936-1.224
	c2.736-3.672,6.84-6.264,7.848-11.088C328.896,532.456,329.76,527.92,331.776,524.104z M309.744,516.112
	c2.016-0.504,3.024,0.648,5.04,0.504c4.248,1.08,8.496,2.232,12.096,4.464c0.144,1.08-0.864,1.296-1.224,2.088
	c-3.024,4.32-7.416,7.488-9.36,12.6c-1.368,4.176-2.88,8.496-4.248,12.816c-1.224,0.36-1.44-0.648-2.448-0.648l0.144-2.88
	c0.504-5.4,1.224-11.376,0.648-16.776c-0.504-0.936,0.288-2.88-0.504-3.672C310.392,521.368,309.024,518.632,309.744,516.112z
	 M324,605.104c-2.376,0.936-5.256,1.728-7.992,2.592c-1.224,0.288-2.736,0.576-4.104,0.576c-0.288,0.648-1.224,0.504-1.656,0.216
	c0.144-2.232-0.216-4.536,0.144-6.768h0.144l0.288-7.848c0.144-0.792,0.432-2.52-0.144-3.168c-0.432-4.968-0.792-8.784-1.224-13.968
	c0-0.576,0.792-0.576,0.936-0.936c1.8-0.792,1.512,1.44,1.944,2.232c0,1.152,1.08,1.152,0.936,2.232
	c2.376,4.968,3.024,11.232,7.128,14.904c2.088,2.592,3.6,5.616,5.76,7.992C326.016,604.312,324.936,604.744,324,605.104z
	 M339.624,593.44c-2.304,2.88-5.328,5.112-7.848,7.632c-1.224-0.288-0.792-1.872-1.368-2.664c-1.368-4.68-3.528-9-5.04-13.608
	c-2.736-4.032-6.192-7.416-9.072-11.376c-0.792-1.008,0.288-1.152,0.72-1.944c3.816,3.528,7.92,6.552,11.88,10.08
	c4.824,2.088,9.936,3.672,15.12,5.328C343.296,589.552,341.136,591.208,339.624,593.44z M350.712,567.664
	c-0.648,5.616-2.304,10.224-4.104,14.688c-4.68-3.168-8.352-7.848-12.888-11.376c-4.536-0.792-8.352-2.664-12.888-3.456
	c-0.288-0.504-1.08-0.504-1.08-1.152c0.144-0.504,0.144-1.296,0.648-1.584c3.312,0.648,6.336,1.44,9.36,2.232
	c2.592,0.936,5.472,1.08,8.352,0.504c4.104-0.864,7.992-2.088,12.24-2.736C351.144,565.216,350.856,567.016,350.712,567.664z
	 M347.328,558.808c-2.52-0.576-5.112-0.072-7.56-0.936l-5.76-0.504c-4.392,0.504-8.784,1.44-13.176,2.088l-0.792-0.288l0.36-1.152
	c4.968-1.872,10.152-3.672,14.832-5.904c2.088-1.296,3.312-3.528,5.328-4.824c1.512-2.232,3.888-3.168,5.544-5.112
	c1.728,0.792,1.368,3.384,2.448,4.968c1.152,3.888,1.944,7.848,2.304,11.88C352.008,559.024,348.552,559.096,347.328,558.808z"/>
</svg>
