<svg height="1000" viewBox="0 0 1000 1000" width="1000" xmlns="http://www.w3.org/2000/svg"><g transform="matrix(2.0242915 0 0 2.0242915 -202.00202 -23.84413)"><path d="m 549.786 243.154 c -.868 -4.906 -1.217 -9.639 -1.555 -14.213 c -.543 -7.345 -1.058 -14.283 -3.613 -21.364 c -1.544 -4.276 -4.498 -8.06 -7.628 -12.064 c -2.709 -3.468 -5.511 -7.056 -7.629 -11.255 c -2.587 -5.127 -4.398 -10.618 -6.15 -15.928 c -2.009 -6.091 -3.907 -11.844 -6.753 -16.451 c -2.365 -3.83 -5.515 -6.21 -8.849 -8.73 c -3.91 -2.956 -7.952 -6.01 -10.399 -11.314 c -9.467 -20.512 -23.535 -30.435 -32.706 -32.702 l -5.116 -1.264 l 2.524 -4.626 c 1.245 -2.28 2.503 -4.252 3.849 -6.032 c 0 0 3.717 -4.909 5.894 -7.782 c -3.582 -4.501 -51.576 -64.816 -53.829 -67.65 c -3.796 0 -175.917 0 -179.711 0 c -2.253 2.834 -50.248 63.151 -53.829 67.65 c 2.176 2.873 5.892 7.782 5.892 7.782 c 1.344 1.774 2.604 3.747 3.849 6.032 l 2.524 4.625 l -5.117 1.265 c -9.17 2.267 -23.238 12.19 -32.704 32.702 c -2.448 5.303 -6.49 8.358 -10.4 11.314 c -3.333 2.52 -6.484 4.9 -8.849 8.73 c -2.846 4.607 -4.744 10.36 -6.753 16.45 c -1.752 5.311 -3.564 10.802 -6.15 15.929 c -2.118 4.199 -4.919 7.786 -7.629 11.253 c -3.129 4.005 -6.083 7.789 -7.627 12.065 c -2.555 7.083 -3.069 14.019 -3.612 21.363 c -.338 4.576 -.689 9.309 -1.556 14.215 l -1.053 5.898 c -2.619 14.602 -5.312 29.616 -5.312 41.753 c 0 2.546 .118 4.967 .38 7.23 c 12.278 105.753 71.78 126.478 154.135 155.163 c 23.499 8.185 47.792 16.66 73.665 27.881 c 25.874 -11.221 50.166 -19.696 73.664 -27.881 c 82.355 -28.684 141.859 -49.41 154.136 -155.163 c .264 -2.263 .382 -4.684 .382 -7.23 c 0 -12.135 -2.693 -27.147 -5.312 -41.747 z"/><path d="M 225.472 293.002 L 203.347 276.927 L 205.831 258.833 L 221.107 253.871 L 242.04 268.954 L 242.04 284.953 Z" fill="#fff"/><path d="M 218.613 213.276 L 228.554 226.958 L 221.061 250.409 L 204.834 255.683 L 191.918 242.234 L 200.26 216.563 Z" fill="#fff"/><path d="M 221.281 211.324 L 229.694 195.622 L 257.468 195.622 L 265.879 211.337 L 255.946 225.025 L 231.229 225.014 Z" fill="#fff"/><path d="m 201.758 258.507 l -12.507 -13.156 l -5.318 1.513 c .39 11.457 4.013 22.093 10.008 31.008 l 5.462 -1.568 z" fill="#fff"/><path d="m 243.241 288.383 l -16.198 7.741 l .203 5.822 c 5.075 1.414 10.418 2.184 15.944 2.184 c 5.776 0 11.354 -.842 16.634 -2.38 l -.204 -5.538 z" fill="#fff"/><path d="m 217.451 209.799 l 8.647 -15.96 l -3.159 -4.703 c -3.992 1.438 -7.736 3.267 -11.213 5.421 c -.143 .09 -.284 .184 -.426 .273 c -.806 .509 -1.585 1.045 -2.361 1.589 c -.4 .284 -.806 .559 -1.199 .854 c -.157 .116 -.306 .243 -.462 .361 c -4.016 3.061 -7.624 6.624 -10.741 10.594 l 3.258 4.829 z" fill="#fff"/><path d="M 245.13 268.952 L 266.072 253.882 L 281.341 258.826 L 283.828 276.938 L 261.657 292.979 L 245.13 284.95 Z" fill="#fff"/><path d="M 268.572 213.255 L 286.379 216.453 L 294.879 242.61 L 282.331 255.688 L 266.119 250.412 L 259.182 226.95 Z" fill="#fff"/><path d="m 297.314 244.805 l -12.366 13.014 l 2.384 17.995 l 5.206 1.905 c 5.966 -8.935 9.561 -19.58 9.913 -31.046 z" fill="#fff"/><path d="m 268.861 209.674 l 17.851 3.292 l 3.423 -4.363 c -6.161 -7.974 -14.297 -14.341 -23.689 -18.348 c -.228 -.098 -.46 -.189 -.688 -.282 c -.607 -.249 -1.215 -.491 -1.83 -.72 l -3.624 4.637 z" fill="#fff"/><path d="m 432.558 69.581 l -9.031 -11.35 l -130.254 149.844 c 2.993 4.04 5.501 8.461 7.447 13.172 z" fill="#f47c50"/><path d="M 465.199 212.76 C 454.358 194.93 424.24 121.218 455.736 79.62 l -24.281 -30.51 l -7.928 9.121 l 17.586 22.103 c -27.829 48.782 3.909 122.118 13.932 138.601 c 4.727 7.777 7.227 16.729 7.227 25.89 c 0 19.097 -11.136 36.775 -28.365 45.041 l -1.43 .688 c -48.964 23.614 -67.872 30.122 -74.783 31.898 c -10.245 2.635 -21.024 8.558 -29.725 14.004 c -8.7 -5.446 -19.479 -11.369 -29.724 -14.004 c -5.148 -1.323 -16.959 -5.276 -42.877 -16.96 c -3.815 .737 -7.752 1.135 -11.783 1.135 c -7.01 0 -13.745 -1.167 -20.025 -3.317 c -.688 -.235 -1.37 -.482 -2.045 -.741 c -1.588 -.607 52.971 26.046 73.77 31.395 c 11.909 3.061 25.553 11.885 32.684 16.639 c 7.132 -4.754 20.775 -13.578 32.685 -16.639 c 20.798 -5.349 72.341 -30.48 78.391 -33.381 c 20.769 -9.962 35.111 -31.186 35.111 -55.757 c 0 -11.743 -3.274 -22.718 -8.957 -32.066 z" fill="#fff"/><path d="m 213.733 190.503 c 8.761 -4.77 18.798 -7.482 29.456 -7.482 c .074 0 .146 .005 .22 .005 c .059 0 .117 -.005 .176 -.005 c 4.629 0 9.137 .525 13.477 1.491 L 385.951 36.24 h -136.04 l -35.085 44.092 c 19.391 33.992 9.86 79.878 -1.093 110.171 z" fill="#f47c50"/><path d="M 244.179 24.354 L 200.204 79.62 c 29.667 39.183 4.673 106.839 -7.391 129.468 c 5.458 -7.671 12.608 -14.06 20.92 -18.585 c 10.952 -30.292 20.483 -76.179 1.093 -110.171 L 249.911 36.24 h 136.04 l 10.332 -11.886 z" fill="#fff"/><path d="m 266.695 67.751 l 15.93 -21.271 h 7.37 l -16.398 20.98 l 15.982 21.272 h -7.686 z m -.232 20.981 h -6.121 V 46.48 h 6.121 z"/><path d="m 296.468 76.55 h 5.468 c .097 2.184 .742 3.929 1.939 5.234 c 1.196 1.304 2.751 1.957 4.661 1.957 c 2.104 0 3.786 -.653 5.05 -1.957 c 1.266 -1.306 1.898 -3.051 1.898 -5.236 c 0 -1.915 -.462 -3.393 -1.387 -4.438 c -.925 -1.043 -2.859 -2.021 -5.807 -2.929 c -.155 -.037 -.415 -.106 -.78 -.203 c -3.524 -.948 -6.079 -2.504 -7.656 -4.672 c -.713 -.946 -1.247 -1.957 -1.604 -3.031 c -.356 -1.074 -.534 -2.22 -.534 -3.439 c 0 -3.617 1.069 -6.542 3.209 -8.777 c 2.139 -2.234 4.945 -3.351 8.415 -3.351 c 3.219 0 5.818 1 7.793 3.002 c 1.976 2.003 3.07 4.746 3.283 8.228 h -5.704 c -.098 -1.688 -.66 -3.05 -1.69 -4.088 c -1.03 -1.038 -2.325 -1.557 -3.883 -1.557 c -1.674 0 -3.037 .577 -4.086 1.729 c -1.05 1.152 -1.573 2.639 -1.573 4.458 c 0 .639 .095 1.239 .288 1.801 c .193 .563 .493 1.085 .898 1.568 c .83 .988 2.605 1.84 5.327 2.556 c 1.252 .331 2.218 .611 2.893 .843 c 2.777 1.043 4.887 2.562 6.323 4.553 c 1.438 1.992 2.156 4.379 2.156 7.163 c 0 4.079 -1.16 7.366 -3.478 9.86 c -2.32 2.494 -5.392 3.74 -9.217 3.74 c -3.595 0 -6.518 -1.194 -8.768 -3.58 c -2.251 -2.385 -3.397 -5.531 -3.434 -9.434 z"/><path d="m 308.442 165.697 l 4.856 -5.586 c 1.095 .777 2.483 .809 4.165 .097 c 1.681 -.712 3.382 -2.057 5.102 -4.035 c 1.89 -2.177 3.105 -4.183 3.64 -6.016 c .536 -1.831 .3 -3.184 -.702 -4.057 c -.863 -.751 -1.95 -.858 -3.26 -.325 c -1.31 .533 -3.485 2.144 -6.523 4.828 c -.161 .143 -.422 .385 -.789 .727 c -3.59 3.253 -6.576 5.273 -8.958 6.06 c -1.074 .357 -2.012 .508 -2.816 .454 c -.8 -.053 -1.478 -.321 -2.03 -.802 c -1.62 -1.408 -1.975 -3.655 -1.065 -6.737 c .913 -3.083 2.925 -6.413 6.035 -9.992 c 2.887 -3.321 5.668 -5.606 8.346 -6.855 c 2.677 -1.249 4.908 -1.292 6.692 -.126 l -5.063 5.822 c -.878 -.586 -2.021 -.553 -3.424 .101 c -1.402 .654 -2.809 1.79 -4.214 3.406 c -1.507 1.738 -2.469 3.381 -2.883 4.931 c -.41 1.553 -.206 2.686 .618 3.402 c .302 .265 .667 .406 1.091 .424 c .424 .021 .928 -.083 1.508 -.31 c 1.207 -.451 3.189 -1.938 5.947 -4.462 c 1.262 -1.167 2.258 -2.046 2.982 -2.64 c 2.939 -2.467 5.499 -4.054 7.681 -4.757 c 2.181 -.702 3.9 -.506 5.159 .585 c 1.828 1.589 2.251 4.057 1.274 7.403 c -.976 3.347 -3.181 6.994 -6.608 10.939 c -3.223 3.707 -6.374 6.258 -9.455 7.654 c -3.081 1.396 -5.515 1.353 -7.306 -.133 z" fill="#f47c50"/><path d="m 332.896 115.583 l 4.179 -4.806 c 2.681 -3.084 4.922 -5.146 6.736 -6.19 c 1.812 -1.043 3.263 -1.093 4.352 -.146 c 1.089 .948 1.242 2.374 .458 4.275 c -.784 1.901 -2.594 4.485 -5.43 7.747 l -3.994 4.595 z m 8.795 7.644 l 4.387 -5.046 c 4.045 -4.654 6.727 -8.803 8.043 -12.442 c 1.317 -3.641 1.092 -6.227 -.676 -7.765 c -1.013 -.88 -2.418 -1.158 -4.215 -.835 c -1.798 .323 -3.712 1.193 -5.745 2.606 c -1.266 .857 -2.605 1.977 -4.012 3.355 c -1.406 1.377 -3.349 3.491 -5.823 6.337 l -8.739 10.053 l 19.135 16.633 l 5.371 -6.181 z" fill="#f47c50"/><path d="m 379.474 95.345 l -5.473 6.3 l -19.136 -16.632 l 5.63 -6.475 l 33.05 -8.727 l -14.713 -12.372 l 5.372 -6.18 l 19.135 16.631 l -5.256 6.047 l -33.916 8.936 z" fill="#f47c50"/><path d="m 327.969 424.883 c 102.396 0 185.408 -17.56 185.408 -39.22 c 0 -21.661 -83.012 -39.222 -185.408 -39.222 c -102.396 0 -185.407 17.561 -185.407 39.222 c .001 21.66 83.011 39.22 185.407 39.22 z" fill="#edb166"/><path d="m 159.201 149.742 c 4.555 -5.743 8.574 -9.411 14.261 -13.271 c 1.023 2.162 -.283 13.255 -.811 16.647 c 7.15 -6.94 15.47 -22.589 12.697 -40.021 c -8.914 2.377 -24.365 18.62 -26.147 36.645 z" fill="#edb166"/><path d="m 145.334 189.756 c 6.142 -6.142 16.043 -12.776 22.186 -14.856 c 1.188 6.339 -10.3 20.601 -12.875 24.167 c 10.697 -4.557 24.761 -22.78 25.552 -37.834 c -8.517 .395 -28.127 13.269 -34.863 28.523 z" fill="#edb166"/><path d="m 136.421 185.794 c 1.386 -8.122 4.613 -20.701 10.3 -24.562 c 2.377 1.585 3.696 7.105 3.169 10.497 c 5.15 -4.753 4.557 -15.648 3.764 -24.166 c -8.913 2.377 -21.591 20.008 -17.233 38.231 z" fill="#edb166"/><path d="m 117.156 239.326 c 1.486 -8.319 6.24 -18.866 10.252 -21.244 c 2.229 2.526 5.941 12.925 0 31.941 c 11.29 -18.124 12.925 -46.203 4.456 -55.859 c -6.091 5.496 -18.421 19.164 -14.708 45.162 z" fill="#edb166"/><path d="m 243.585 433.203 c 7.576 .594 15.598 3.418 21.245 6.834 c -2.377 1.931 -6.611 4.241 -9.806 5.497 c 9.656 2.081 39.667 1.487 56.702 -2.822 c -6.551 -6.497 -47.045 -13.818 -68.141 -9.509 z" fill="#edb166"/><path d="m 213.881 349.838 c -8.092 -11.407 -15.992 -24.234 -16.252 -29.94 c 7.99 1.844 22.639 10.875 33.994 27.393 c 5.825 -.735 11.808 -1.4 17.921 -1.992 c -14.566 -22.821 -52.442 -51.55 -72.514 -56.379 c -1.635 14.764 8.249 47.006 19.818 64.059 c 5.416 -1.132 11.109 -2.178 17.033 -3.141 z" fill="#edb166"/><path d="m 180.662 343.271 c -17.511 -9.984 -36.836 -19.799 -42.458 -41.994 c 3.961 -1.188 24.958 11.489 34.863 25.751 c -4.359 -16.242 -36.052 -51.106 -60.615 -56.255 c -3.729 12.679 10.109 66.759 72.535 81 c -1.502 -2.679 -2.947 -5.526 -4.325 -8.502 z" fill="#edb166"/><path d="m 134.467 269.938 c 6.565 -23.495 24.693 -40.593 29.488 -42.547 c .753 4.333 1.105 28.91 -18.289 50.391 c 2.053 1.627 4.071 3.322 6.038 5.077 c 17.251 -15.633 29.682 -46.017 21.561 -79.038 c -10.946 2.871 -36.681 34.023 -45.259 62.537 c 2.16 1.069 4.317 2.275 6.461 3.58 z" fill="#edb166"/><path d="m 496.738 149.742 c -4.556 -5.743 -8.576 -9.411 -14.262 -13.271 c -1.022 2.162 .283 13.255 .81 16.647 c -7.148 -6.94 -15.469 -22.589 -12.696 -40.021 c 8.915 2.377 24.366 18.62 26.148 36.645 z" fill="#edb166"/><path d="m 510.605 189.756 c -6.141 -6.142 -16.043 -12.776 -22.186 -14.856 c -1.189 6.339 10.3 20.601 12.875 24.167 c -10.697 -4.557 -24.761 -22.78 -25.554 -37.834 c 8.519 .395 28.13 13.269 34.865 28.523 z" fill="#edb166"/><path d="m 519.519 185.794 c -1.387 -8.122 -4.616 -20.701 -10.301 -24.562 c -2.376 1.585 -3.697 7.105 -3.169 10.497 c -5.15 -4.753 -4.556 -15.648 -3.763 -24.166 c 8.914 2.377 21.589 20.008 17.233 38.231 z" fill="#edb166"/><path d="m 538.782 239.326 c -1.485 -8.319 -6.24 -18.866 -10.25 -21.244 c -2.229 2.526 -5.943 12.925 0 31.941 c -11.292 -18.124 -12.926 -46.203 -4.457 -55.859 c 6.09 5.496 18.421 19.164 14.707 45.162 z" fill="#edb166"/><path d="m 412.354 433.203 c -7.577 .594 -15.599 3.418 -21.245 6.834 c 2.376 1.931 6.611 4.241 9.805 5.497 c -9.657 2.081 -39.666 1.487 -56.701 -2.822 c 6.55 -6.497 47.044 -13.818 68.141 -9.509 z" fill="#edb166"/><path d="m 442.058 349.838 c 8.094 -11.407 15.992 -24.234 16.253 -29.94 c -7.991 1.844 -22.643 10.875 -33.996 27.393 c -5.823 -.735 -11.807 -1.4 -17.919 -1.992 c 14.566 -22.821 52.442 -51.55 72.513 -56.379 c 1.634 14.764 -8.249 47.006 -19.818 64.059 c -5.415 -1.132 -11.108 -2.178 -17.033 -3.141 z" fill="#edb166"/><path d="m 475.277 343.271 c 17.51 -9.984 36.836 -19.799 42.46 -41.994 c -3.964 -1.188 -24.96 11.489 -34.866 25.751 c 4.359 -16.242 36.054 -51.106 60.616 -56.255 c 3.728 12.679 -10.108 66.759 -72.536 81 c 1.503 -2.679 2.948 -5.526 4.326 -8.502 z" fill="#edb166"/><path d="m 521.47 269.938 c -6.564 -23.495 -24.69 -40.593 -29.484 -42.547 c -.755 4.333 -1.105 28.91 18.288 50.391 c -2.054 1.627 -4.071 3.322 -6.038 5.077 c -17.252 -15.633 -29.681 -46.017 -21.561 -79.038 c 10.946 2.871 36.68 34.023 45.259 62.537 c -2.161 1.069 -4.318 2.275 -6.464 3.58 z" fill="#edb166"/><path d="m 345.836 295.534 h -26.978 v -6.255 l 19.234 -31.541 h -18.045 v -6.18 h 25.434 v 5.557 l -19.984 32.356 h 20.339 z" fill="#edb166"/><path d="m 361.061 267.106 c .843 -2.046 2.017 -3.842 3.521 -5.388 c 1.446 -1.484 3.1 -2.616 4.969 -3.401 c 1.865 -.781 3.832 -1.174 5.902 -1.174 c 2.307 0 4.408 .428 6.306 1.281 c 1.899 .851 3.679 2.17 5.345 3.956 c 1.403 1.545 2.474 3.235 3.206 5.07 c .732 1.837 1.1 3.769 1.1 5.794 c 0 4.775 -1.526 8.771 -4.578 11.991 c -3.052 3.221 -6.844 4.832 -11.379 4.832 c -2.049 0 -4.056 -.431 -6.023 -1.294 c -1.968 -.863 -3.704 -2.077 -5.208 -3.643 c -1.426 -1.484 -2.521 -3.244 -3.282 -5.279 c -.763 -2.036 -1.144 -4.199 -1.144 -6.487 c -.001 -2.125 .421 -4.212 1.265 -6.258 z m -6.474 14.655 c .964 2.642 2.38 5 4.249 7.068 c 2.21 2.493 4.705 4.372 7.488 5.638 c 2.78 1.264 5.82 1.898 9.114 1.898 c 3.273 0 6.311 -.624 9.115 -1.867 c 2.802 -1.246 5.339 -3.096 7.61 -5.547 c 1.927 -2.09 3.373 -4.446 4.338 -7.068 c .964 -2.623 1.447 -5.491 1.447 -8.607 c 0 -3.135 -.563 -6.059 -1.689 -8.771 c -1.125 -2.714 -2.801 -5.165 -5.03 -7.357 c -2.172 -2.129 -4.567 -3.731 -7.189 -4.807 c -2.623 -1.075 -5.47 -1.614 -8.541 -1.614 c -2.994 0 -5.792 .539 -8.394 1.614 c -2.601 1.076 -4.965 2.657 -7.094 4.748 c -2.251 2.211 -3.959 4.694 -5.123 7.446 c -1.167 2.752 -1.748 5.667 -1.748 8.742 c 0 3.015 .481 5.843 1.447 8.484 z" fill="#edb166"/><path d="m 177.444 380.711 c 1.349 -1.776 3.059 -2.665 5.128 -2.665 c 2.095 0 3.815 .888 5.158 2.665 c 1.343 1.777 2.013 4.045 2.013 6.806 c 0 2.745 -.67 5.003 -2.013 6.772 c -1.343 1.77 -3.062 2.654 -5.158 2.654 c -2.069 0 -3.778 -.884 -5.128 -2.654 c -1.349 -1.77 -2.023 -4.028 -2.023 -6.772 c 0 -2.761 .675 -5.03 2.023 -6.806 z m -7.452 13.094 c .659 1.94 1.633 3.654 2.921 5.146 c 1.289 1.478 2.735 2.582 4.338 3.314 c 1.603 .731 3.38 1.097 5.328 1.097 c 1.977 0 3.773 -.37 5.393 -1.108 c 1.619 -.738 3.064 -1.839 4.339 -3.302 c 1.288 -1.492 2.262 -3.206 2.921 -5.146 c .658 -1.939 .988 -4.042 .988 -6.309 c 0 -2.282 -.33 -4.394 -.988 -6.332 c -.66 -1.939 -1.633 -3.668 -2.921 -5.191 c -1.274 -1.449 -2.717 -2.534 -4.328 -3.259 c -1.61 -.723 -3.413 -1.086 -5.403 -1.086 c -1.964 0 -3.747 .359 -5.35 1.077 c -1.604 .717 -3.043 1.806 -4.316 3.268 c -1.289 1.523 -2.262 3.252 -2.921 5.191 c -.66 1.938 -.989 4.05 -.989 6.332 c -.001 2.266 .328 4.369 .988 6.308 z"/><path d="m 201.539 400.379 v -6.823 c 1.893 1.435 3.488 2.436 4.786 3.007 c 1.298 .571 2.556 .856 3.774 .856 c 1.232 0 2.165 -.231 2.795 -.691 c .631 -.461 .947 -1.147 .947 -2.053 c 0 -.733 -.199 -1.321 -.591 -1.768 c -.395 -.445 -1.308 -.976 -2.74 -1.592 c -3.576 -1.536 -6.034 -3.104 -7.375 -4.708 c -1.341 -1.602 -2.011 -3.647 -2.011 -6.135 c 0 -2.618 .873 -4.747 2.621 -6.385 c 1.747 -1.639 4.019 -2.46 6.811 -2.46 c 1.42 0 2.845 .213 4.278 .638 c 1.434 .426 2.846 1.05 4.235 1.871 v 6.287 c -1.679 -1.031 -3.186 -1.795 -4.521 -2.288 c -1.336 -.495 -2.544 -.742 -3.626 -.742 c -1.199 0 -2.109 .212 -2.739 .634 c -.627 .424 -.941 1.028 -.941 1.816 c 0 .642 .282 1.243 .845 1.805 c .563 .561 1.406 1.098 2.53 1.608 c .25 .116 .614 .285 1.098 .504 c 2.384 1.083 4.095 2.013 5.134 2.787 c 1.083 .82 1.9 1.874 2.456 3.162 c .556 1.288 .835 2.794 .835 4.521 c 0 2.839 -.876 5.071 -2.628 6.694 c -1.751 1.625 -4.181 2.437 -7.288 2.437 c -1.554 0 -3.056 -.25 -4.507 -.745 c -1.451 -.497 -2.844 -1.242 -4.178 -2.237 z"/><path d="m 231.964 402.827 v -24.959 h -8.26 v -5.705 h 23.115 v 5.705 h -8.259 v 24.959 z"/><path d="m 258.114 384.701 v -7.071 h 3 c 1.094 0 1.938 .3 2.529 .9 c .591 .6 .887 1.473 .887 2.614 c 0 1.2 -.281 2.093 -.842 2.679 c -.563 .586 -1.421 .877 -2.574 .877 h -3 z m 0 18.126 v -12.479 c .071 0 .188 -.009 .35 -.023 c .16 -.015 .284 -.023 .373 -.023 c 1.196 0 2.124 .264 2.781 .791 c .657 .527 1.241 1.491 1.753 2.895 l 3.173 8.839 h 7.079 l -4.016 -10.505 c -.364 -.997 -.795 -1.822 -1.292 -2.475 c -.496 -.652 -1.05 -1.117 -1.663 -1.396 c 1.473 -.832 2.567 -1.85 3.283 -3.055 c .715 -1.204 1.073 -2.652 1.073 -4.346 c 0 -3.035 -.812 -5.276 -2.432 -6.722 c -1.619 -1.443 -4.122 -2.166 -7.508 -2.166 h -9.256 v 30.664 h 6.302 z"/><path d="m 284.813 380.711 c 1.349 -1.776 3.058 -2.665 5.127 -2.665 c 2.097 0 3.816 .888 5.159 2.665 c 1.341 1.776 2.013 4.045 2.013 6.806 c 0 2.745 -.671 5.003 -2.013 6.772 c -1.344 1.77 -3.063 2.654 -5.159 2.654 c -2.069 0 -3.778 -.884 -5.127 -2.654 c -1.349 -1.77 -2.023 -4.028 -2.023 -6.772 c 0 -2.761 .674 -5.03 2.023 -6.806 z m -7.454 13.094 c .66 1.94 1.634 3.654 2.923 5.146 c 1.288 1.478 2.734 2.582 4.338 3.314 c 1.603 .731 3.379 1.097 5.328 1.097 c 1.975 0 3.773 -.37 5.391 -1.108 c 1.619 -.738 3.065 -1.839 4.339 -3.302 c 1.289 -1.492 2.262 -3.206 2.921 -5.146 c .66 -1.939 .989 -4.042 .989 -6.309 c 0 -2.282 -.33 -4.394 -.989 -6.332 c -.659 -1.939 -1.633 -3.668 -2.921 -5.191 c -1.274 -1.449 -2.717 -2.534 -4.327 -3.259 c -1.611 -.723 -3.413 -1.086 -5.403 -1.086 c -1.964 0 -3.747 .359 -5.351 1.077 c -1.604 .717 -3.042 1.806 -4.315 3.268 c -1.289 1.523 -2.263 3.252 -2.923 5.191 c -.659 1.938 -.987 4.05 -.987 6.332 c 0 2.266 .329 4.369 .987 6.308 z"/><path d="m 316.574 403.064 l -10.102 -30.901 h 6.486 l 4.85 16.639 l 4.929 -16.639 h 4.179 l 4.908 16.639 l 4.811 -16.639 h 6.564 l -10.162 30.901 h -2.555 l -5.633 -19.175 l -5.719 19.175 z"/><path d="m 347.426 402.827 v -30.664 h 6.478 v 30.664 z"/><path d="m 361.007 402.827 v -30.664 h 16.699 v 5.645 h -10.458 v 6.24 h 9.982 v 5.704 h -9.982 v 7.31 h 10.754 v 5.765 z"/><path d="m 405.982 400.251 c -1.491 1.051 -3.025 1.833 -4.605 2.344 c -1.58 .511 -3.233 .767 -4.959 .767 c -1.943 0 -3.734 -.366 -5.372 -1.095 c -1.637 -.731 -3.071 -1.805 -4.299 -3.222 c -1.272 -1.475 -2.237 -3.199 -2.894 -5.172 c -.659 -1.973 -.986 -4.092 -.986 -6.355 c 0 -4.763 1.292 -8.601 3.877 -11.517 c 2.586 -2.914 6.004 -4.373 10.257 -4.373 c 1.534 0 3.023 .205 4.469 .614 c 1.447 .409 2.872 1.037 4.275 1.884 v 7.189 c -1.374 -1.098 -2.76 -1.915 -4.153 -2.457 c -1.397 -.54 -2.787 -.81 -4.174 -.81 c -2.53 0 -4.517 .839 -5.965 2.521 c -1.446 1.681 -2.169 3.997 -2.169 6.95 c 0 2.864 .691 5.151 2.074 6.861 c 1.381 1.71 3.244 2.565 5.585 2.565 c 1.507 0 3.016 -.325 4.532 -.977 c 1.514 -.652 3.016 -1.613 4.508 -2.886 v 7.169 z"/><path d="m 423.458 400.379 v -6.823 c 1.891 1.435 3.486 2.436 4.785 3.007 c 1.298 .571 2.557 .856 3.775 .856 c 1.232 0 2.163 -.231 2.796 -.691 c .629 -.461 .946 -1.147 .946 -2.053 c 0 -.733 -.198 -1.321 -.591 -1.768 c -.396 -.445 -1.308 -.976 -2.739 -1.592 c -3.577 -1.536 -6.036 -3.104 -7.376 -4.708 c -1.34 -1.602 -2.012 -3.647 -2.012 -6.135 c 0 -2.618 .875 -4.747 2.622 -6.385 c 1.748 -1.639 4.019 -2.46 6.813 -2.46 c 1.419 0 2.844 .213 4.278 .638 c 1.434 .426 2.845 1.05 4.234 1.871 v 6.287 c -1.679 -1.031 -3.186 -1.795 -4.522 -2.288 c -1.334 -.495 -2.544 -.742 -3.625 -.742 c -1.198 0 -2.11 .212 -2.738 .634 c -.627 .424 -.941 1.028 -.941 1.816 c 0 .642 .283 1.243 .846 1.805 c .563 .561 1.405 1.098 2.531 1.608 c .249 .116 .612 .285 1.095 .504 c 2.385 1.083 4.095 2.013 5.133 2.787 c 1.083 .82 1.902 1.874 2.457 3.162 c .555 1.288 .834 2.794 .834 4.521 c 0 2.839 -.877 5.071 -2.628 6.694 c -1.75 1.625 -4.179 2.437 -7.287 2.437 c -1.554 0 -3.057 -.25 -4.507 -.745 c -1.453 -.497 -2.846 -1.242 -4.179 -2.237 z"/><path d="m 455.07 403.064 l -10.102 -30.901 h 6.486 l 4.85 16.639 l 4.93 -16.639 h 4.179 l 4.906 16.639 l 4.811 -16.639 h 6.563 l -10.162 30.901 h -2.555 l -5.632 -19.175 l -5.719 19.175 z"/><path d="m 480.569 399.342 c 0 -1.081 .312 -2.008 .935 -2.783 c .621 -.773 1.378 -1.162 2.274 -1.162 c .909 0 1.669 .379 2.287 1.139 c .614 .759 .923 1.695 .923 2.806 c 0 1.081 -.316 2.001 -.945 2.76 c -.631 .76 -1.386 1.141 -2.265 1.141 c -.896 0 -1.653 -.377 -2.274 -1.129 c -.624 -.753 -.935 -1.676 -.935 -2.772 z"/><path d="m 431.727 370.978 l 1.619 -8.629 h 4.526 l -2.758 8.629 z"/></g></svg>