<svg height="1000" viewBox="0 0 1000 1000" width="1000" xmlns="http://www.w3.org/2000/svg"><g transform="matrix(2.1855912 0 0 2.1855912 -249.16614 11.808749)"><path d="m 167.424 270.25 l 5.862 17.685 v 0 c -11.372 -4.436 -31.212 -10.27 -48.298 -14.745 c 11.831 -.097 34.429 -1.235 42.436 -2.94 z"/><path d="m 444.458 270.234 l -5.862 17.686 v 0 c 11.372 -4.436 31.212 -10.273 48.298 -14.746 c -11.83 -.097 -34.428 -1.234 -42.436 -2.94 z"/><path d="m 305.942 429.262 c -26.364 -14.772 -52.421 -34.268 -74.818 -56.985 c -16.872 -17.116 -31.728 -36.622 -44.707 -58.72 c -12.766 -21.733 -22.52 -45.323 -29.719 -68.878 c -13.742 -44.972 -17.748 -89.825 -16.047 -121.418 c 39.094 1.349 68.551 -16.367 84.7 -40.792 c 13.38 -20.236 18.012 -45.558 15.657 -74.153 c 17.453 -7.009 42.366 -13.719 64.935 -13.719 c 22.567 0 47.45 6.71 64.904 13.719 c -2.113 28.595 2.307 53.917 15.687 74.153 c 16.149 24.424 45.607 42.14 84.7 40.792 c 1.7 31.593 -2.305 76.446 -16.047 121.418 c -7.199 23.556 -16.953 47.146 -29.718 68.878 c -12.98 22.098 -27.836 41.604 -44.708 58.72 c -22.399 22.717 -48.456 42.213 -74.819 56.985 z" fill="#fcdd28"/><path d="m 305.942 420.383 c 43.823 -25.012 87.492 -65.587 112.905 -110.772 c 34.426 -61.208 45.79 -132.533 44.546 -179.021 c -32.902 1.156 -64.939 -16.068 -82.678 -40.735 C 365.063 68.09 361.33 40.261 362.766 14.424 C 345.412 8.48 327.336 3.146 305.941 3.147 c -21.396 0 -39.472 5.334 -56.826 11.278 c 1.435 25.837 -2.296 53.666 -17.949 75.431 c -17.739 24.666 -49.777 41.891 -82.678 40.735 c -1.243 46.488 10.12 117.813 44.546 179.022 c 25.416 45.183 69.085 85.759 112.908 110.77 z" fill="#205da9"/><path d="m 277.902 371.233 h -5.064 v -19.095 l -4.638 -.027 v -2.018 v 0 c 3.072 -1.01 4.426 -2.136 5.594 -5.399 v 0 h 4.108 z m 7.68 -6.11 l 4.907 -.541 v 0 c .119 .997 .434 1.735 .936 2.215 c .503 .48 1.173 .721 2.003 .721 c 1.044 0 1.934 -.48 2.668 -1.441 c .729 -.965 1.201 -2.958 1.404 -5.986 c -1.274 1.477 -2.867 2.216 -4.777 2.216 c -2.078 0 -3.874 -.799 -5.381 -2.405 c -1.51 -1.605 -2.263 -3.692 -2.263 -6.268 c 0 -2.676 .794 -4.836 2.386 -6.48 c 1.598 -1.638 3.624 -2.459 6.089 -2.459 c 2.682 0 4.878 1.038 6.601 3.11 c 1.717 2.073 2.575 5.484 2.575 10.233 c 0 4.827 -.896 8.317 -2.686 10.453 c -1.791 2.143 -4.122 3.213 -6.998 3.213 c -2.063 0 -3.734 -.553 -5.007 -1.651 c -1.279 -1.1 -2.096 -2.744 -2.457 -4.93 z m 11.47 -11.075 c 0 -1.633 -.379 -2.902 -1.126 -3.802 c -.753 -.9 -1.619 -1.353 -2.608 -1.353 c -.937 0 -1.717 .37 -2.336 1.107 c -.619 .744 -.927 1.953 -.927 3.633 c 0 1.708 .336 2.963 1.011 3.761 c .674 .799 1.514 1.201 2.524 1.201 c .975 0 1.792 -.388 2.461 -1.154 c .664 -.771 1.001 -1.901 1.001 -3.393 z m 26.069 12.477 v 4.707 h -17.76 v 0 c .194 -1.778 .771 -3.466 1.731 -5.06 c .964 -1.591 2.86 -3.701 5.7 -6.336 c 2.279 -2.127 3.682 -3.567 4.2 -4.325 c .696 -1.048 1.042 -2.081 1.042 -3.101 c 0 -1.131 -.3 -1.999 -.91 -2.609 c -.604 -.605 -1.444 -.908 -2.515 -.908 c -1.057 0 -1.896 .319 -2.525 .956 c -.623 .637 -.982 1.693 -1.08 3.176 v 0 l -5.05 -.509 v 0 c .3 -2.788 1.248 -4.786 2.83 -5.999 c 1.587 -1.215 3.573 -1.824 5.949 -1.824 c 2.612 0 4.662 .702 6.152 2.108 c 1.486 1.409 2.234 3.158 2.234 5.249 c 0 1.19 -.213 2.321 -.642 3.396 c -.425 1.076 -1.102 2.202 -2.025 3.378 c -.615 .785 -1.723 1.907 -3.319 3.375 c -1.597 1.467 -2.612 2.441 -3.037 2.922 c -.429 .479 -.775 .95 -1.038 1.403 v 0 h 10.063 z m 20.534 0 v 4.707 h -17.761 v 0 c .193 -1.778 .771 -3.466 1.73 -5.06 c .965 -1.591 2.862 -3.701 5.701 -6.336 c 2.28 -2.127 3.684 -3.567 4.2 -4.325 c .697 -1.048 1.043 -2.081 1.043 -3.101 c 0 -1.131 -.299 -1.999 -.909 -2.609 c -.605 -.605 -1.445 -.908 -2.516 -.908 c -1.057 0 -1.897 .319 -2.525 .956 c -.622 .637 -.984 1.693 -1.08 3.176 v 0 l -5.049 -.509 v 0 c .3 -2.788 1.247 -4.786 2.829 -5.999 c 1.588 -1.215 3.574 -1.824 5.95 -1.824 c 2.613 0 4.663 .702 6.153 2.108 c 1.487 1.409 2.234 3.158 2.234 5.249 c 0 1.19 -.211 2.321 -.641 3.396 c -.425 1.076 -1.104 2.202 -2.027 3.378 c -.614 .785 -1.722 1.907 -3.318 3.375 c -1.598 1.467 -2.613 2.441 -3.038 2.922 c -.428 .479 -.774 .95 -1.038 1.403 v 0 h 10.062 z" fill="#fff"/><path d="M 256.653 62.313 V 33.372 h 5.567 v 23.817 h 10.61 v 5.124 z m 38.364 -17.83 h -9.458 v -6.295 h 9.458 V 33.25 h -15.23 v 11.232 h -6.942 v 5.119 h 6.942 v 12.831 h 15.23 v -4.917 h -9.458 v -7.914 h 9.458 V 49.576 V 44.66 Z m 30.161 -2.961 l -1.015 -.711 v 0 c -1.947 -1.349 -5.496 -2.749 -7.854 -2.734 c -5.386 .028 -8.287 4.572 -8.274 9.456 c .009 3.101 1.337 7.443 4.227 9.041 c 1.021 .563 3.753 1.143 5.142 1.133 c 2.792 -.018 5.568 -1.902 8.525 -4.519 v 0 l -.303 7.756 l -2.365 .905 v 0 c -2.255 .75 -4.649 1.125 -7.192 1.125 c -3.482 -.014 -6.405 -.821 -8.771 -2.424 c -1.764 -1.163 -3.173 -2.702 -4.226 -4.62 c -1.313 -2.303 -1.966 -4.875 -1.952 -7.717 c -.014 -4.558 1.572 -8.318 4.75 -11.27 c 2.997 -2.78 6.851 -4.188 11.574 -4.226 c 2.187 0 4.669 .332 7.439 .995 v 0 l .298 .076 v 7.734 z m 7.773 20.911 V 33.251 h 5.619 v 11.485 h 11.014 V 33.251 h 5.618 v 29.182 h -5.618 V 49.675 H 338.57 v 12.758 z" fill="#fff"/><path d="m 305.942 320.321 c -42.91 -1.405 -67.447 19.347 -101.638 22.118 c -34.047 -2.044 -52.255 -15.248 -89.457 -15.812 c 7.667 -7.666 15.128 -15.584 21.516 -21.972 c -5.748 -10.861 -13.416 -23.387 -22.359 -30.414 c 34.012 -6.777 52.271 18.435 84.854 17.59 c 28.551 -.739 48.54 -20.303 107.083 -21.57 c 58.543 1.253 78.531 20.815 107.081 21.555 c 32.584 .844 50.844 -24.368 84.855 -17.592 c -8.944 7.028 -16.611 19.554 -22.359 30.414 c 6.388 6.39 13.848 14.307 21.515 21.974 c -37.201 .564 -55.409 13.767 -89.456 15.812 c -34.189 -2.772 -58.726 -23.525 -101.635 -22.103 z" fill="#fcdd28"/><path d="m 152.171 316.753 l .322 -1.123 v 0 c 1.02 .247 1.609 .345 1.767 .299 c .119 -.021 .22 -.089 .309 -.206 c .147 -.195 .473 -1.1 .975 -2.711 c .504 -1.609 .975 -3.175 1.413 -4.7 c .815 -2.841 1.374 -4.882 1.67 -6.122 c .297 -1.241 .402 -1.949 .323 -2.13 c -.081 -.183 -.417 -.393 -1.006 -.634 v 0 l -.71 -.306 l .323 -1.123 l 1.403 .512 v 0 c .872 .314 1.565 .556 2.085 .725 c .709 .232 1.862 .587 3.454 1.065 c .861 .253 1.493 .444 1.894 .575 c 1.498 .488 2.564 .999 3.191 1.532 c .627 .538 1.042 1.17 1.237 1.904 c .198 .734 .165 1.557 -.098 2.472 c -.475 1.653 -1.421 2.857 -2.843 3.614 c -1.418 .754 -2.98 .857 -4.677 .304 c -.219 -.071 -.445 -.165 -.675 -.281 c -.234 -.113 -.479 -.245 -.736 -.4 c -.053 -.365 -.113 -.729 -.184 -1.081 v 0 l .385 -.242 v 0 c .17 .104 .331 .194 .477 .271 c .147 .078 .285 .137 .409 .178 c .845 .275 1.624 .188 2.337 -.256 c .714 -.445 1.229 -1.224 1.55 -2.339 c .356 -1.24 .345 -2.254 -.033 -3.042 c -.378 -.793 -1.1 -1.361 -2.17 -1.71 c -.436 -.142 -.965 -.247 -1.587 -.311 c -.881 2.715 -1.593 5.028 -2.141 6.933 c -.184 .64 -.739 2.697 -1.663 6.17 c -.365 1.37 -.548 2.168 -.549 2.392 c -.001 .164 .047 .3 .148 .4 c .154 .159 .84 .48 2.058 .961 v 0 l -.323 1.122 v 0 c -1.463 -.543 -2.701 -.979 -3.713 -1.31 c -.452 -.145 -1.991 -.613 -4.622 -1.402 z m 17.296 -1.011 c .537 -2.134 1.41 -3.599 2.617 -4.404 c 1.442 -.947 3.226 -1.121 5.349 -.514 c 2.113 .603 3.526 1.551 4.246 2.845 c .713 1.297 .796 3.043 .244 5.238 c -.57 2.261 -1.569 3.844 -2.997 4.748 c -1.428 .903 -3.139 1.071 -5.133 .502 c -1.961 -.56 -3.31 -1.556 -4.044 -2.992 c -.736 -1.436 -.832 -3.242 -.282 -5.423 z m 3.745 .072 c -.603 2.396 -.742 4.183 -.424 5.363 c .252 .912 .825 1.494 1.722 1.75 c .784 .224 1.475 .065 2.071 -.479 c .593 -.547 1.111 -1.695 1.554 -3.452 c .606 -2.413 .764 -4.157 .474 -5.233 c -.246 -.858 -.824 -1.421 -1.741 -1.682 c -.785 -.225 -1.49 -.062 -2.111 .483 c -.621 .546 -1.137 1.629 -1.545 3.25 z m 12.134 1.675 l -1.098 -.207 v 0 c .254 -1.06 .46 -2.058 .615 -2.991 v 0 l .119 -.802 l .173 -.08 v 0 c 2.627 .559 4.237 .893 4.833 1.005 c 1.714 .321 3.623 .648 5.717 .976 v 0 l -.16 .962 v 0 c -3.442 3.339 -6.433 6.397 -8.974 9.177 v 0 l 2.331 .437 v 0 c 2.024 .38 3.169 .519 3.425 .411 c .257 -.108 .548 -.704 .871 -1.793 v 0 l .217 -.751 l 1.138 .213 v 0 c -.345 1.179 -.676 2.599 -.986 4.27 v 0 l -.162 .17 v 0 c -.81 -.152 -1.413 -.266 -1.81 -.34 v 0 l -2.087 -.436 v 0 c -2.127 -.454 -3.428 -.727 -3.902 -.816 v 0 l -3.899 -.604 l .167 -1.012 v 0 c 1.055 -.947 2.312 -2.153 3.77 -3.62 c 2.185 -2.192 3.984 -4.052 5.401 -5.585 v 0 l -2.361 -.443 v 0 c -1.112 -.21 -1.819 -.313 -2.123 -.315 c -.211 0 -.369 .047 -.471 .147 c -.101 .102 -.248 .448 -.445 1.046 v 0 z m 9.818 11.574 l .057 -1.158 v 0 c .956 -.004 1.496 -.052 1.627 -.152 c .126 -.1 .21 -.336 .257 -.709 c .095 -.938 .205 -2.591 .322 -4.964 c .057 -1.172 .093 -2.184 .108 -3.033 c .009 -.522 -.013 -.831 -.06 -.928 c -.04 -.077 -.107 -.134 -.202 -.179 c -.092 -.041 -.611 -.103 -1.552 -.184 v 0 l .053 -1.075 v 0 c .472 .026 1.213 -.041 2.224 -.199 c 1.011 -.16 1.864 -.359 2.559 -.6 v 0 l .359 -.105 v 0 c .125 .007 .179 .118 .169 .332 v 0 l -.017 .124 v 0 c -.033 .261 -.076 .927 -.129 2.006 v 0 l 2.12 -1.699 v 0 c .263 -.218 .532 -.364 .808 -.43 c .388 -.09 .857 -.121 1.409 -.09 c .925 .052 1.671 .266 2.246 .638 c .571 .372 .98 .864 1.226 1.48 c .246 .616 .338 1.556 .275 2.822 c -.028 .561 -.073 1.206 -.135 1.938 c -.118 1.505 -.203 2.809 -.256 3.906 c -.032 .625 -.006 1.06 .08 1.309 c .063 .171 .154 .288 .278 .349 c .122 .064 .599 .162 1.423 .29 v 0 l -.056 1.157 l -1.611 -.143 l -1.034 -.087 l -2.704 -.068 l -.137 -.19 v 0 c .316 -1.757 .52 -3.561 .611 -5.424 c .116 -2.365 .054 -3.827 -.191 -4.392 c -.313 -.727 -.934 -1.117 -1.863 -1.169 c -.595 -.033 -1.115 .1 -1.57 .396 c -.453 .297 -.755 .622 -.903 .978 c -.067 .147 -.12 .614 -.16 1.408 c -.166 3.366 -.247 5.296 -.244 5.788 c .002 .491 .061 .796 .176 .914 c .151 .147 .734 .278 1.745 .391 v 0 l -.057 1.158 v 0 c -1.518 -.139 -2.802 -.238 -3.848 -.297 c -.624 -.037 -1.756 -.071 -3.403 -.109 z m 28.036 -3.737 l .226 1.135 l -.997 .182 v 0 c -.524 .093 -1.05 .197 -1.572 .315 c -.805 .183 -1.559 .382 -2.269 .598 v 0 l -.157 -.122 l -.249 -1.915 l -2.257 2.753 v 0 c -.456 .229 -.869 .384 -1.236 .467 c -.908 .204 -1.665 .076 -2.276 -.385 c -.61 -.462 -1.028 -1.246 -1.247 -2.348 c -.272 -1.359 -.124 -2.39 .442 -3.101 c .725 -.929 2.528 -2.018 5.401 -3.268 c -.231 -1.071 -.564 -1.81 -.992 -2.219 c -.607 -.559 -1.4 -.727 -2.386 -.503 c -.23 .051 -.461 .132 -.693 .248 c -.234 .115 -.461 .266 -.683 .447 v 0 l -.287 1.594 l -.933 -.03 l -.097 -.622 l -.134 -.6 l -.122 -.542 v 0 c 1.14 -1.163 1.971 -1.918 2.501 -2.269 c .385 -.258 .952 -.471 1.697 -.641 c 1.01 -.228 1.864 -.252 2.563 -.071 c .699 .179 1.25 .516 1.65 1.006 c .403 .49 .71 1.267 .922 2.335 c .09 .448 .233 1.25 .429 2.405 c .201 1.191 .373 2.147 .517 2.868 c .228 1.142 .396 1.828 .504 2.06 c .066 .139 .17 .233 .318 .286 c .152 .051 .622 .034 1.417 -.063 z m -5.957 -4.512 c -1.441 .688 -2.344 1.285 -2.717 1.794 c -.373 .508 -.49 1.105 -.354 1.788 c .111 .557 .343 .961 .699 1.214 c .353 .253 .753 .33 1.201 .23 c .677 -.154 1.289 -.717 1.838 -1.69 v 0 z m 7.51 5.393 l -.319 -1.108 v 0 c .897 -.352 1.39 -.596 1.479 -.736 c .087 -.141 .091 -.393 .014 -.761 c -.21 -.916 -.64 -2.509 -1.291 -4.781 c -.323 -1.123 -.614 -2.087 -.872 -2.89 c -.159 -.494 -.279 -.777 -.354 -.85 c -.063 -.058 -.144 -.087 -.249 -.094 c -.099 -.005 -.606 .125 -1.517 .392 v 0 l -.296 -1.03 v 0 c .454 -.147 1.128 -.479 2.027 -.997 c .897 -.517 1.636 -1.016 2.212 -1.495 v 0 l .303 -.23 v 0 c .119 -.038 .207 .046 .266 .251 v 0 l .025 .123 v 0 c .052 .256 .227 .899 .523 1.933 v 0 l 1.446 -2.368 v 0 c .177 -.302 .384 -.537 .622 -.7 c .336 -.226 .767 -.426 1.293 -.599 c .887 -.288 1.658 -.359 2.316 -.218 c .656 .142 1.199 .456 1.628 .944 c .428 .489 .816 1.34 1.164 2.551 c .154 .538 .32 1.161 .494 1.872 c .374 1.458 .713 2.712 1.015 3.763 c .173 .599 .336 .999 .496 1.201 c .113 .139 .238 .214 .375 .226 c .134 .016 .614 -.065 1.43 -.245 v 0 l .318 1.108 l -1.56 .454 l -.997 .295 l -2.565 .92 l -.189 -.13 v 0 c -.268 -1.765 -.657 -3.535 -1.169 -5.318 c -.65 -2.265 -1.178 -3.617 -1.589 -4.059 c -.529 -.569 -1.237 -.709 -2.126 -.418 c -.57 .185 -1.018 .499 -1.35 .944 c -.33 .444 -.51 .858 -.534 1.248 c -.017 .163 .083 .621 .301 1.38 c .926 3.224 1.469 5.068 1.629 5.528 c .161 .46 .314 .726 .46 .794 c .189 .084 .778 -.007 1.764 -.268 v 0 l .319 1.108 v 0 c -1.471 .423 -2.71 .796 -3.712 1.123 c -.595 .195 -1.67 .574 -3.23 1.137 z m 15.746 -10.323 c .409 1.121 .67 1.738 .778 1.845 c .298 .292 .743 .485 1.331 .575 c .59 .09 1.216 .012 1.876 -.23 c .81 -.297 1.361 -.694 1.651 -1.195 c .286 -.498 .335 -1.039 .146 -1.62 c -.162 -.501 -.436 -.845 -.819 -1.029 c -.383 -.185 -1.086 -.214 -2.109 -.085 c -1.548 .192 -2.579 .245 -3.098 .151 c -.512 -.092 -.978 -.338 -1.395 -.737 c -.419 -.4 -.735 -.943 -.958 -1.629 c -.263 -.812 -.304 -1.599 -.124 -2.365 c .175 -.764 .566 -1.457 1.165 -2.078 c .601 -.618 1.489 -1.145 2.665 -1.576 c 1.223 -.448 2.43 -.651 3.618 -.614 c .116 .756 .396 1.895 .841 3.416 v 0 l -.982 .359 v 0 c -.358 -.932 -.609 -1.468 -.753 -1.6 c -.205 -.213 -.514 -.338 -.918 -.39 c -.556 -.06 -1.109 .009 -1.656 .208 c -.693 .256 -1.179 .619 -1.456 1.091 c -.279 .47 -.338 .957 -.175 1.461 c .15 .467 .444 .772 .88 .918 c .436 .155 1.354 .121 2.742 -.104 c .96 -.151 1.638 -.218 2.033 -.197 c .666 .051 1.23 .276 1.696 .673 c .465 .393 .824 .98 1.076 1.755 c .48 1.49 .307 2.829 -.52 4.022 c -.827 1.188 -1.99 2.057 -3.489 2.607 c -.496 .182 -1.065 .323 -1.71 .419 c -.643 .101 -1.36 .158 -2.149 .182 v 0 l -.259 -.154 v 0 c -.149 -.804 -.477 -2.036 -.984 -3.693 v 0 z m 10.894 .623 l -.319 -1.109 v 0 c .887 -.326 1.392 -.561 1.518 -.7 c .058 -.075 .094 -.176 .104 -.296 c .012 -.217 -.201 -1.125 -.631 -2.725 c -.431 -1.6 -.894 -3.261 -1.387 -4.978 c -.399 -1.39 -.935 -3.168 -1.604 -5.338 c -.487 -1.578 -.779 -2.444 -.877 -2.604 c -.094 -.159 -.22 -.256 -.381 -.298 c -.156 -.043 -.663 .065 -1.513 .323 v 0 l -.276 -.962 v 0 c 1.088 -.48 1.958 -.918 2.611 -1.31 c .651 -.391 1.226 -.822 1.725 -1.287 c .136 -.124 .243 -.195 .307 -.216 c .126 -.04 .224 .057 .293 .298 v 0 l .139 .582 v 0 c .158 .671 .85 3.189 2.075 7.558 v 0 l 1.049 3.749 l .236 .727 v 0 c 1.31 -2.169 2.58 -4.687 3.816 -7.556 c .607 -.148 1.145 -.298 1.612 -.45 c .564 -.183 1.151 -.401 1.766 -.648 v 0 l .313 1.095 v 0 c -.914 .357 -1.455 .598 -1.627 .729 c -.175 .127 -.406 .412 -.692 .846 c -.287 .433 -1.06 1.748 -2.317 3.938 v 0 l 2.437 1.596 v 0 c 2.801 1.838 4.433 2.86 4.903 3.066 c .307 .14 .682 .164 1.13 .067 v 0 l .319 1.108 v 0 c -.955 .254 -1.823 .507 -2.611 .764 c -.611 .199 -1.203 .421 -1.783 .667 c -1.164 -.897 -2.303 -1.709 -3.419 -2.439 c -1.519 -.995 -2.75 -1.743 -3.692 -2.245 v 0 l .617 2.149 v 0 c .36 1.25 .653 2.078 .88 2.491 c .099 .186 .222 .291 .368 .326 c .148 .034 .676 -.067 1.589 -.304 v 0 l .318 1.108 v 0 c -1.632 .475 -2.719 .8 -3.262 .977 c -.531 .173 -1.773 .606 -3.734 1.301 z m 15.358 -26.065 c .546 -.133 1.06 -.043 1.536 .277 c .48 .316 .781 .77 .909 1.36 c .126 .582 .041 1.128 -.26 1.635 c -.296 .51 -.723 .832 -1.275 .968 c -.547 .135 -1.061 .044 -1.536 -.276 c -.479 -.316 -.78 -.767 -.908 -1.35 c -.127 -.59 -.043 -1.138 .258 -1.646 c .296 -.509 .724 -.83 1.276 -.968 z m .713 20.628 l -.246 -1.129 v 0 c .956 -.272 1.498 -.476 1.629 -.603 c .126 -.126 .17 -.405 .124 -.831 c -.057 -.593 -.298 -1.863 -.72 -3.812 c -.184 -.847 -.366 -1.625 -.546 -2.334 v 0 l -.383 -1.585 v 0 c -.113 -.526 -.24 -.84 -.371 -.936 c -.134 -.096 -.438 -.095 -.911 .003 v 0 l -.967 .194 l -.228 -1.05 v 0 c 2.02 -.669 3.63 -1.473 4.827 -2.406 v 0 l .381 .193 v 0 c .254 1.766 .742 4.306 1.461 7.618 c .416 1.918 .695 3.068 .841 3.452 c .103 .271 .221 .434 .357 .488 c .132 .052 .71 -.001 1.732 -.168 v 0 l .246 1.13 v 0 c -1.554 .327 -2.754 .592 -3.6 .8 c -.451 .112 -1.66 .438 -3.626 .976 z m 16.605 -4.15 l -.077 -1.17 v 0 c 1.061 -.162 1.652 -.281 1.778 -.359 c .095 -.054 .162 -.116 .201 -.194 c .078 -.138 .13 -.422 .152 -.855 c .049 -.739 .01 -2.103 -.11 -4.081 v 0 l -.331 -5.259 v 0 c -.11 -1.675 -.225 -3.069 -.346 -4.193 c -.124 -1.121 -.234 -1.769 -.334 -1.948 c -.061 -.118 -.155 -.205 -.28 -.259 c -.189 -.079 -.808 -.105 -1.861 -.073 v 0 l -.078 -1.171 v 0 c 1.578 -.052 2.98 -.125 4.211 -.216 c 1.474 -.109 2.87 -.247 4.184 -.409 v 0 l .077 1.171 v 0 c -1.095 .164 -1.725 .315 -1.888 .449 c -.163 .134 -.245 .434 -.25 .901 c -.005 .588 .125 2.932 .384 7.035 v 0 l .186 -.013 v 0 c .833 -.82 2.02 -2.178 3.563 -4.073 c 1.54 -1.893 2.727 -3.463 3.558 -4.713 v 0 l -.021 -.515 l -.046 -.517 l .107 -.148 v 0 c .957 -.006 1.773 -.035 2.446 -.085 c .708 -.053 1.5 -.145 2.377 -.275 v 0 l .076 1.171 l -.741 .138 v 0 c -.59 .111 -.967 .207 -1.14 .296 c -.338 .193 -.78 .571 -1.333 1.137 c -.82 .839 -1.857 1.981 -3.105 3.427 v 0 l -2.177 2.515 l 1.307 1.485 v 0 c 1.547 1.754 3.381 3.738 5.512 5.954 c 1.225 1.272 1.954 1.966 2.191 2.09 c .164 .084 .582 .126 1.258 .131 v 0 l .077 1.172 l -.695 .022 l -2.338 .106 v 0 c -.627 .046 -1.439 .139 -2.431 .277 c -.771 -.914 -2.065 -2.371 -3.893 -4.377 c -1.36 -1.505 -2.657 -2.866 -3.885 -4.08 c -.159 -.157 -.269 -.249 -.331 -.269 c -.051 -.018 -.101 -.021 -.155 -.018 c -.127 .01 -.215 .071 -.257 .189 c -.023 .078 -.011 .449 .033 1.117 v 0 l .33 4.223 v 0 c .099 1.234 .192 1.941 .282 2.121 c .063 .128 .156 .214 .28 .259 c .18 .073 .798 .102 1.852 .089 v 0 l .076 1.17 v 0 c -1.295 .032 -2.732 .107 -4.3 .224 c -.796 .059 -2.163 .193 -4.095 .401 z m 20.713 -19.819 v -.813 v 0 c 1.243 -.176 2.221 -.358 2.94 -.544 c .72 -.186 1.492 -.454 2.322 -.797 v 0 l .343 .307 v 0 c -.132 3.328 -.2 7.974 -.2 13.94 c 0 1.202 .018 2.415 .055 3.646 c .016 .783 .06 1.238 .124 1.364 c .067 .125 .17 .225 .314 .3 c .146 .075 .666 .132 1.566 .168 v 0 v 1.159 l -1.376 -.042 v 0 c -.857 -.026 -1.581 -.039 -2.165 -.039 v 0 l -3.925 .081 v -1.159 l .971 -.057 v 0 c .437 -.019 .719 -.103 .846 -.258 c .128 -.153 .206 -.737 .229 -1.753 c .044 -1.406 .068 -3.406 .068 -5.999 v 0 l -.014 -5.969 v 0 c -.01 -1.818 -.056 -2.841 -.144 -3.075 c -.033 -.11 -.102 -.196 -.195 -.251 c -.157 -.102 -.746 -.173 -1.759 -.209 z m 9.45 7.473 l .071 -1.074 v 0 c 1.407 -.035 2.729 -.203 3.968 -.501 v 0 l 1.33 -.392 v 0 c .157 .012 .227 .124 .212 .339 v 0 l -.107 .817 v 0 c -.288 2.126 -.496 4.184 -.628 6.173 c -.083 1.285 -.08 2.143 .016 2.574 c .093 .429 .293 .775 .597 1.03 c .304 .255 .721 .405 1.25 .444 c .621 .047 1.175 -.094 1.668 -.421 c .491 -.329 .805 -.707 .94 -1.134 c .14 -.431 .275 -1.669 .411 -3.726 c .107 -1.646 .143 -2.608 .111 -2.89 c -.027 -.153 -.081 -.262 -.164 -.322 c -.126 -.085 -.716 -.192 -1.768 -.329 v 0 l .071 -1.075 v 0 c 1.804 -.08 3.135 -.233 3.991 -.46 v 0 l 1.423 -.425 v 0 c .148 .012 .216 .113 .203 .31 v 0 l -.052 .373 v 0 c -.253 1.609 -.519 4.535 -.799 8.784 c -.085 1.303 -.105 2.123 -.057 2.464 c .033 .16 .096 .276 .19 .351 c .131 .092 .68 .212 1.633 .359 v 0 l -.076 1.156 v 0 c -1.002 -.128 -1.993 -.23 -2.98 -.305 c -.801 -.059 -1.552 -.086 -2.246 -.084 v 0 l -.101 -.258 v 0 c .074 -.465 .162 -1.19 .261 -2.184 c -.856 .636 -1.691 1.345 -2.507 2.127 c -.64 .244 -1.258 .341 -1.863 .296 c -.801 -.06 -1.49 -.284 -2.061 -.674 c -.571 -.387 -.977 -.87 -1.225 -1.44 c -.25 -.576 -.339 -1.368 -.273 -2.371 v 0 l .126 -1.518 v 0 c .088 -.938 .152 -1.696 .19 -2.282 c .109 -1.656 .14 -2.648 .101 -2.978 c -.03 -.216 -.11 -.373 -.246 -.473 c -.129 -.099 -.668 -.192 -1.61 -.281 z m 18.181 13.957 l -.563 -.398 v 0 c .601 -2.169 1.292 -5.199 2.068 -9.092 c .352 -1.762 .609 -3.122 .774 -4.083 v 0 l .626 -3.532 v 0 c .106 -.536 .134 -.901 .083 -1.093 c -.036 -.132 -.127 -.24 -.274 -.322 c -.105 -.06 -.599 -.211 -1.493 -.451 v 0 l .197 -.983 v 0 c .47 .107 1.241 .167 2.312 .188 c 1.068 .018 1.885 -.028 2.445 -.144 v 0 l .612 -.102 v 0 c .161 .036 .22 .164 .176 .384 v 0 l -.325 1.426 v 0 c -.115 .486 -.66 3.063 -1.637 7.731 v 0 l 1.831 -1.032 v 0 c .574 -.326 1.073 -.517 1.489 -.577 c .42 -.055 .901 -.023 1.45 .101 c 1.437 .325 2.493 1.073 3.169 2.246 c .673 1.174 .854 2.546 .538 4.125 c -.154 .773 -.433 1.548 -.837 2.316 c -.406 .772 -.839 1.38 -1.298 1.821 c -.46 .445 -1.012 .803 -1.659 1.078 c -.806 .322 -1.499 .626 -2.076 .917 c -.683 .339 -1.24 .539 -1.673 .59 c -.43 .057 -.939 .019 -1.52 -.113 c -.573 -.129 -1.092 -.327 -1.558 -.594 c -.464 -.27 -.971 -.678 -1.513 -1.231 c -.235 .118 -.685 .392 -1.344 .824 z m 4.719 -9.051 l -1.252 6.276 v 0 c .215 .576 .521 1.04 .917 1.397 c .393 .356 .875 .598 1.44 .725 c .914 .207 1.73 -.014 2.452 -.667 c .721 -.653 1.24 -1.772 1.557 -3.357 c .298 -1.495 .234 -2.687 -.192 -3.582 c -.423 -.89 -1.104 -1.443 -2.037 -1.653 c -.497 -.112 -.986 -.095 -1.467 .047 c -.48 .145 -.953 .414 -1.418 .814 z m 16.895 14.733 l .358 -1.11 v 0 c 1.011 .283 1.598 .403 1.756 .363 c .12 -.016 .222 -.083 .316 -.196 c .153 -.188 .509 -1.08 1.063 -2.671 c .558 -1.59 1.078 -3.137 1.565 -4.646 c .909 -2.809 1.533 -4.827 1.87 -6.057 c .336 -1.227 .465 -1.933 .392 -2.115 c -.074 -.187 -.404 -.409 -.984 -.671 v 0 l -.699 -.332 l .359 -1.11 l 1.384 .566 v 0 c .863 .346 1.547 .612 2.062 .801 c .702 .257 1.842 .657 3.417 1.192 c .854 .286 1.476 .5 1.874 .645 c 1.481 .543 2.528 1.094 3.138 1.65 c .611 .562 1.002 1.208 1.175 1.949 c .174 .74 .113 1.563 -.178 2.466 c -.528 1.635 -1.514 2.802 -2.96 3.506 c -1.443 .701 -3.006 .745 -4.684 .129 c -.217 -.08 -.439 -.18 -.666 -.304 c -.229 -.123 -.469 -.264 -.722 -.428 c -.043 -.367 -.089 -.733 -.149 -1.088 v 0 l .393 -.227 v 0 c .168 .11 .325 .206 .468 .289 c .143 .083 .28 .147 .403 .193 c .837 .306 1.615 .247 2.344 -.17 c .729 -.417 1.27 -1.177 1.626 -2.281 c .396 -1.224 .418 -2.237 .066 -3.04 c -.35 -.806 -1.054 -1.401 -2.113 -1.789 c -.431 -.158 -.957 -.283 -1.575 -.369 c -.97 2.68 -1.758 4.965 -2.367 6.849 c -.206 .633 -.828 2.668 -1.864 6.104 c -.409 1.356 -.619 2.146 -.628 2.371 c -.006 .162 .038 .301 .135 .404 c .15 .166 .824 .512 2.025 1.038 v 0 l -.358 1.11 v 0 c -1.446 -.598 -2.668 -1.081 -3.67 -1.447 c -.447 -.164 -1.97 -.689 -4.572 -1.574 z m 24.536 -12.444 c .533 .185 .928 .543 1.182 1.079 c .258 .533 .297 1.09 .121 1.665 c -.173 .568 -.51 .989 -1.014 1.259 c -.5 .275 -1.021 .317 -1.561 .129 c -.535 -.186 -.93 -.543 -1.185 -1.079 c -.256 -.533 -.297 -1.085 -.123 -1.653 c .174 -.575 .513 -1 1.016 -1.271 c .501 -.274 1.023 -.315 1.564 -.129 z m -9.366 18.073 l .335 -1.103 v 0 c .95 .291 1.513 .415 1.687 .376 c .171 -.039 .343 -.254 .508 -.645 c .237 -.539 .646 -1.759 1.226 -3.662 c .253 -.827 .472 -1.594 .66 -2.3 v 0 l .439 -1.567 v 0 c .157 -.514 .2 -.854 .134 -1.007 c -.069 -.155 -.33 -.322 -.781 -.496 v 0 l -.924 -.366 l .313 -1.024 v 0 c 2.055 .535 3.823 .729 5.302 .586 v 0 l .231 .374 v 0 c -.636 1.653 -1.445 4.098 -2.431 7.332 c -.571 1.872 -.888 3.011 -.949 3.419 c -.042 .289 -.019 .493 .071 .616 c .087 .116 .61 .388 1.567 .805 v 0 l -.337 1.102 v 0 c -1.49 -.572 -2.648 -1.003 -3.472 -1.288 c -.44 -.152 -1.634 -.535 -3.579 -1.152 z m 13.757 -14.802 l .223 -.777 v 0 c 1.237 .22 2.222 .35 2.961 .395 c .739 .047 1.552 .03 2.44 -.039 v 0 l .244 .4 v 0 c -1.039 3.143 -2.379 7.564 -4.017 13.269 c -.33 1.15 -.647 2.315 -.95 3.504 c -.199 .754 -.283 1.203 -.254 1.342 c .029 .141 .102 .27 .219 .386 c .118 .117 .599 .334 1.451 .649 v 0 l -.318 1.108 l -1.306 -.468 v 0 c -.813 -.292 -1.501 -.531 -2.06 -.713 v 0 l -3.776 -1.144 l .319 -1.108 l .944 .247 v 0 c .422 .12 .716 .125 .88 .018 c .164 -.108 .398 -.642 .7 -1.606 c .427 -1.331 1 -3.237 1.711 -5.715 v 0 l 1.626 -5.713 v 0 c .489 -1.742 .725 -2.735 .705 -2.984 c -.002 -.116 -.042 -.221 -.117 -.3 c -.122 -.149 -.664 -.401 -1.625 -.751 z m 3.19 20.686 l .227 -1.134 v 0 c .923 .172 1.473 .227 1.645 .171 c .086 -.035 .161 -.105 .226 -.206 c .109 -.183 .337 -1.087 .688 -2.709 c .351 -1.621 .703 -3.313 1.054 -5.07 c .284 -1.421 .625 -3.253 1.028 -5.496 c .292 -1.632 .431 -2.54 .417 -2.73 c -.009 -.188 -.076 -.339 -.196 -.458 c -.117 -.117 -.61 -.284 -1.471 -.496 v 0 l .196 -.984 v 0 c 1.17 .14 2.129 .207 2.879 .202 c .747 -.006 1.446 -.086 2.095 -.236 c .176 -.036 .302 -.045 .367 -.03 c .128 .029 .169 .167 .12 .411 v 0 l -.143 .583 v 0 c -.168 .668 -.709 3.227 -1.625 7.682 v 0 l -.792 3.819 l -.123 .759 v 0 c 2.134 -1.223 4.39 -2.767 6.776 -4.638 c .6 .182 1.137 .331 1.616 .439 c .576 .13 1.188 .243 1.839 .343 v 0 l -.224 1.12 v 0 c -.96 -.159 -1.545 -.228 -1.757 -.204 c -.211 .021 -.543 .151 -.991 .383 c -.447 .231 -1.72 .982 -3.818 2.249 v 0 l 1.405 2.652 v 0 c 1.613 3.054 2.575 4.79 2.892 5.213 c .206 .281 .524 .495 .958 .642 v 0 l -.227 1.134 v 0 c -.95 -.27 -1.824 -.497 -2.629 -.68 c -.626 -.14 -1.246 -.253 -1.864 -.337 c -.609 -1.386 -1.237 -2.684 -1.881 -3.898 c -.875 -1.653 -1.611 -2.944 -2.207 -3.869 v 0 l -.438 2.199 v 0 c -.255 1.277 -.376 2.154 -.365 2.632 c .002 .212 .061 .368 .173 .475 c .113 .105 .622 .29 1.528 .553 v 0 l -.227 1.135 v 0 c -1.643 -.427 -2.742 -.705 -3.298 -.831 c -.537 -.123 -1.822 -.385 -3.853 -.79 z m 28.32 2.566 l .058 1.158 l -1.013 .014 v 0 c -.531 .005 -1.066 .02 -1.599 .049 c -.822 .046 -1.597 .117 -2.329 .212 v 0 l -.138 -.147 l .036 -1.933 l -2.634 2.343 v 0 c -.483 .149 -.914 .234 -1.29 .255 c -.925 .052 -1.654 -.201 -2.192 -.759 c -.535 -.557 -.832 -1.4 -.887 -2.527 c -.068 -1.387 .229 -2.381 .893 -2.989 c .853 -.796 2.793 -1.571 5.814 -2.328 c -.07 -1.096 -.29 -1.883 -.655 -2.357 c -.515 -.652 -1.274 -.951 -2.28 -.895 c -.235 .014 -.476 .055 -.722 .13 c -.247 .075 -.496 .186 -.74 .328 v 0 l -.517 1.527 l -.918 -.186 l -.004 -.631 l -.044 -.614 l -.041 -.557 v 0 c 1.295 -.957 2.228 -1.565 2.805 -1.822 c .418 -.191 1.007 -.307 1.77 -.35 c 1.031 -.058 1.877 .06 2.541 .356 c .664 .292 1.159 .717 1.483 1.269 c .326 .55 .515 1.368 .568 2.459 c .022 .457 .046 1.273 .069 2.447 c .023 1.21 .054 2.183 .09 2.918 c .057 1.167 .122 1.872 .195 2.118 c .044 .149 .133 .259 .272 .337 c .143 .077 .61 .138 1.409 .175 z m -5.22 -5.449 c -1.524 .439 -2.505 .877 -2.948 1.317 c -.442 .441 -.647 1.011 -.612 1.708 c .027 .569 .197 1.007 .512 1.315 c .311 .309 .696 .453 1.152 .427 c .691 -.039 1.379 -.492 2.063 -1.363 v 0 z m 6.168 6.131 l -.172 -1.145 v 0 c .868 -.192 1.36 -.334 1.48 -.419 c .097 -.074 .163 -.172 .209 -.304 c .06 -.238 .043 -.735 -.051 -1.491 c -.164 -1.349 -.33 -2.578 -.494 -3.682 c -.316 -2.127 -.531 -3.385 -.639 -3.772 c -.061 -.226 -.165 -.374 -.308 -.448 c -.145 -.078 -.71 -.051 -1.689 .078 v 0 l -.159 -1.064 v 0 c 1.717 -.466 2.929 -.897 3.64 -1.28 v 0 l 1.253 -.748 v 0 c .123 -.02 .196 .058 .222 .23 v 0 l .019 .196 v 0 c .056 .586 .166 1.421 .328 2.506 c .375 -.523 .778 -1.177 1.21 -1.957 c .321 -.582 .617 -.976 .888 -1.185 c .268 -.206 .653 -.35 1.143 -.432 c .276 -.047 .564 -.045 .865 .009 c .061 .936 .194 2.196 .403 3.783 v 0 l -.551 .318 v 0 c -.252 -.323 -.506 -.538 -.765 -.638 c -.258 -.106 -.577 -.125 -.957 -.061 c -.519 .088 -.943 .304 -1.271 .653 c -.329 .349 -.52 .715 -.568 1.1 c -.028 .291 .078 1.233 .316 2.834 c .347 2.33 .579 3.682 .695 4.061 c .075 .248 .182 .411 .328 .48 c .215 .105 .883 .09 1.997 -.04 v 0 l .171 1.146 l -1.456 .202 v 0 c -.931 .132 -1.732 .252 -2.407 .367 c -.64 .107 -1.382 .247 -2.224 .415 v 0 z"/><path d="m 426.597 322.283 c .316 1.155 .524 1.793 .624 1.911 c .272 .318 .701 .55 1.279 .697 c .581 .145 1.209 .124 1.888 -.055 c .831 -.221 1.412 -.566 1.74 -1.038 c .327 -.471 .42 -1.005 .28 -1.603 c -.12 -.512 -.365 -.879 -.731 -1.099 c -.367 -.219 -1.064 -.315 -2.096 -.282 c -1.557 .049 -2.589 .006 -3.097 -.136 c -.504 -.139 -.948 -.426 -1.331 -.863 c -.383 -.437 -.655 -1.007 -.82 -1.711 c -.194 -.834 -.171 -1.622 .069 -2.368 c .238 -.745 .684 -1.399 1.332 -1.962 c .649 -.559 1.577 -1 2.783 -1.32 c 1.256 -.334 2.474 -.425 3.655 -.278 c .054 .764 .24 1.925 .56 3.48 v 0 l -1.009 .267 v 0 c -.28 -.961 -.486 -1.519 -.618 -1.664 c -.19 -.23 -.484 -.384 -.883 -.474 c -.55 -.111 -1.105 -.093 -1.667 .055 c -.711 .189 -1.226 .506 -1.541 .952 c -.316 .441 -.415 .921 -.293 1.439 c .112 .479 .38 .81 .801 .998 c .423 .192 1.339 .245 2.741 .15 c .97 -.064 1.65 -.067 2.042 -.008 c .661 .112 1.203 .389 1.634 .828 c .431 .435 .742 1.053 .928 1.848 c .358 1.529 .074 2.847 -.846 3.959 c -.922 1.107 -2.15 1.865 -3.689 2.273 c -.509 .135 -1.088 .223 -1.736 .259 c -.65 .039 -1.368 .031 -2.155 -.018 v 0 l -.246 -.178 v 0 c -.084 -.815 -.309 -2.071 -.679 -3.77 v 0 z m 11.022 1.954 l -.318 -1.109 v 0 c .886 -.326 1.392 -.561 1.517 -.7 c .059 -.075 .093 -.175 .105 -.295 c .011 -.217 -.2 -1.125 -.631 -2.725 c -.43 -1.6 -.894 -3.261 -1.388 -4.979 c -.398 -1.39 -.934 -3.168 -1.602 -5.338 c -.488 -1.577 -.78 -2.444 -.877 -2.604 c -.096 -.158 -.222 -.257 -.381 -.298 c -.157 -.043 -.663 .065 -1.513 .324 v 0 l -.277 -.961 v 0 c 1.088 -.482 1.957 -.917 2.611 -1.311 c .65 -.392 1.226 -.822 1.725 -1.288 c .136 -.123 .243 -.195 .307 -.215 c .125 -.041 .225 .057 .293 .297 v 0 l .139 .584 v 0 c .158 .671 .849 3.188 2.076 7.558 v 0 l 1.048 3.749 l .237 .727 v 0 c 1.31 -2.17 2.579 -4.687 3.815 -7.555 c .607 -.149 1.144 -.299 1.614 -.451 c .563 -.183 1.149 -.4 1.764 -.649 v 0 l .315 1.095 v 0 c -.914 .357 -1.456 .597 -1.628 .729 c -.175 .128 -.405 .412 -.692 .846 c -.287 .434 -1.059 1.747 -2.316 3.938 v 0 l 2.435 1.594 v 0 c 2.802 1.838 4.433 2.861 4.903 3.066 c .308 .14 .683 .163 1.13 .066 v 0 l .318 1.109 v 0 c -.953 .254 -1.822 .507 -2.609 .763 c -.611 .199 -1.204 .422 -1.784 .668 c -1.163 -.898 -2.304 -1.71 -3.42 -2.439 c -1.518 -.995 -2.749 -1.744 -3.691 -2.245 v 0 l .618 2.15 v 0 c .359 1.249 .653 2.078 .879 2.49 c .099 .186 .222 .291 .369 .326 c .146 .035 .676 -.067 1.588 -.305 v 0 l .318 1.11 v 0 c -1.63 .475 -2.718 .799 -3.261 .975 c -.531 .174 -1.774 .609 -3.736 1.303 z m 14.071 -26.042 c .54 -.165 1.056 -.103 1.546 .19 c .493 .288 .818 .725 .975 1.307 c .154 .575 .097 1.125 -.178 1.648 c -.272 .525 -.683 .871 -1.227 1.037 c -.54 .165 -1.057 .102 -1.548 -.189 c -.493 -.289 -.816 -.722 -.972 -1.297 c -.156 -.581 -.099 -1.136 .176 -1.658 c .27 -.526 .683 -.871 1.228 -1.038 z m 1.725 20.56 l -.301 -1.114 v 0 c .942 -.325 1.472 -.559 1.597 -.693 c .122 -.133 .151 -.414 .084 -.837 c -.086 -.587 -.389 -1.843 -.908 -3.766 c -.225 -.835 -.444 -1.603 -.66 -2.299 v 0 l -.46 -1.561 v 0 c -.14 -.521 -.281 -.826 -.418 -.916 c -.138 -.087 -.441 -.07 -.907 .054 v 0 l -.957 .248 l -.28 -1.036 v 0 c 1.986 -.78 3.553 -1.673 4.703 -2.671 v 0 l .389 .171 v 0 c .342 1.75 .955 4.259 1.834 7.526 c .509 1.892 .846 3.024 1.01 3.399 c .117 .267 .244 .421 .381 .467 c .135 .045 .71 -.04 1.722 -.265 v 0 l .302 1.114 v 0 c -1.537 .414 -2.723 .746 -3.556 1 c -.448 .138 -1.638 .532 -3.575 1.179 z"/><path d="m 254.98 103.605 c 25.927 2.622 35.14 11.833 30.412 18.942 c -4.171 6.272 -19.196 10.908 -43.172 7.935 c -.449 -.351 22.961 16.443 19.343 26.444 c -1.831 5.059 -10.608 7.578 -34.83 5.72 c 31.383 31.602 -11.25 58.34 59.176 95.229 c -18.714 -15.043 -35.455 -68.532 -2.742 -77.244 c 6.134 -1.634 11.625 .574 16.61 16.041 v 0 l .019 -35.431 v 0 c -.312 -5.262 -5.706 -5.347 -6.738 -9.803 c -.276 -5.652 7.425 -5.244 8.642 -11.604 v 0 l -15.446 -1.301 v 0 c 14.706 -7.217 18.473 -13.354 17.444 -19.477 c -1.965 -11.689 -25.313 -20.854 -48.718 -15.451 z m 101.894 0 c -25.926 2.622 -35.14 11.833 -30.412 18.942 c 4.171 6.272 19.197 10.908 43.172 7.935 c .45 -.351 -22.96 16.443 -19.342 26.444 c 1.829 5.059 10.607 7.578 34.829 5.72 c -31.384 31.602 11.25 58.34 -59.175 95.229 c 18.714 -15.043 35.454 -68.532 2.741 -77.244 c -6.133 -1.634 -11.624 .574 -16.609 16.041 v 0 l -.02 -35.431 v 0 c .313 -5.262 5.707 -5.347 6.739 -9.803 c .274 -5.652 -7.426 -5.244 -8.642 -11.604 v 0 l 15.445 -1.301 v 0 c -14.705 -7.217 -18.472 -13.354 -17.443 -19.477 c 1.963 -11.689 25.313 -20.854 48.717 -15.451 z" fill="#fff"/></g></svg>