<svg height="1000" viewBox="0 0 1000 1000" width="1000" xmlns="http://www.w3.org/2000/svg"><g transform="matrix(1.6757139 0 0 1.6757139 -38.725823 -188.72926)"><circle cx="306.57599" cy="396.08801" fill="#0db14b" r="283.46399" transform="matrix(.7071 -.7071 .7071 .7071 -190.2824 332.7935)"/><circle cx="306.57599" cy="396.08801" fill="#fff" r="213.336" transform="matrix(.7071 -.7071 .7071 .7071 -190.2824 332.7935)"/><path d="m 172.656 301.624 l .864 5.76 c 4.608 4.824 8.784 9.72 12.528 14.689 c 28.296 -8.065 58.752 -12.313 88.92 -11.448 c 28.944 .864 57.528 6.408 83.592 17.712 c 26.784 11.592 51.768 25.776 76.608 39.816 c 36.504 20.664 71.712 39.384 111.816 52.416 c -26.856 22.752 -55.224 42.696 -89.064 53.64 c -25.2 8.136 -51.768 10.512 -78.048 3.24 c -38.736 -10.728 -75.456 -21.024 -116.208 -20.016 c -22.536 .576 -44.496 2.016 -65.016 12.24 l 15.048 97.632 l -21.024 9 l -41.976 -270.432 c -10.584 -2.952 -18.432 -12.672 -18.432 -24.192 c 0 -13.896 11.304 -25.2 25.128 -25.2 c 13.824 0 25.128 11.304 25.128 25.2 c 0 8.135 -3.888 15.335 -9.864 19.943 z m 3.384 21.96 l 19.944 129.168 c 8.136 -23.328 11.16 -46.872 7.416 -69.768 c -3.312 -20.448 -12.024 -40.464 -27.36 -59.4 z"/><path d="m 153.792 265.768 c 5.616 1.296 10.296 6.912 11.376 14.112 c 1.224 8.568 -3.168 16.416 -9.864 17.928 c 9.648 1.296 18.432 -6.264 18.432 -16.128 c 0 -10.584 -9.936 -18.216 -19.944 -15.912 z" fill="#fff"/><path d="m 159.768 306.664 l 39.816 257.4 l 4.464 -1.656 L 164.376 305.8 c -1.512 .432 -3.024 .72 -4.608 .864 z" fill="#fff"/><path d="m 317.664 352.528 l .216 60.768 c .072 11.592 9.216 21.096 20.304 25.056 c 6.48 2.304 14.688 3.168 21.24 .648 c 4.536 -1.728 7.632 -5.04 7.632 -9.936 l .432 -60.912 c -8.424 -4.464 -16.848 -8.136 -25.416 -10.8 c -8.064 -2.52 -16.2 -4.176 -24.408 -4.824 z" fill="#ed1c24"/><path d="m 212.328 423.016 c -1.656 11.664 -4.608 23.328 -8.784 34.848 c 19.152 -7.488 39.456 -8.784 59.904 -9.288 c 41.688 -1.008 79.128 9.432 118.8 20.376 c 25.848 7.2 52.56 4.176 77.472 -4.68 c -29.808 -4.392 -59.04 -13.392 -91.296 -24.912 c -1.872 2.016 -4.248 3.528 -7.056 4.608 c -7.848 2.952 -17.208 2.088 -24.984 -.648 c -9.936 -3.528 -18.72 -11.016 -22.248 -20.88 c -12.6 -2.304 -25.992 -3.672 -39.455 -4.032 c -21.313 -.648 -42.841 1.008 -62.353 4.608 z" fill="#0db14b"/><path d="m 372.168 431.368 c 33.84 12.024 68.472 22.824 104.4 25.992 c 18.936 -8.856 36.792 -20.664 52.632 -33.408 c -8.424 -2.952 -16.632 -6.264 -24.696 -9.792 c -46.08 1.44 -89.136 -13.608 -131.832 -29.304 l -.288 44.28 c 0 .72 -.072 1.512 -.216 2.232 z" fill="#fff"/><path d="m 209.664 369.88 c 1.008 3.888 1.8 7.776 2.448 11.664 c 1.728 10.728 2.088 21.456 1.224 32.328 c 19.44 -3.384 40.608 -4.968 61.56 -4.32 c 12.816 .36 25.56 1.584 37.728 3.672 l -.216 -44.496 c -11.376 -1.728 -23.184 -2.736 -34.992 -3.096 c -22.968 -.792 -46.08 .72 -67.752 4.248 z" fill="#fff"/><path d="m 191.52 329.704 c 6.84 10.296 11.952 20.88 15.552 31.608 c 22.68 -3.744 46.728 -5.4 70.632 -4.536 c 11.664 .432 23.328 1.368 34.704 3.024 l -.072 -12.96 c 10.8 .576 20.952 2.233 31.32 5.472 c 10.152 3.168 19.8 7.632 29.16 12.672 l -.072 10.512 c 33.12 12.24 61.632 22.32 90.576 27.072 c 7.2 1.224 14.4 2.016 21.672 2.52 c -18.432 -9.072 -36.216 -19.152 -54.144 -29.304 c -24.552 -13.896 -49.32 -27.864 -75.744 -39.312 c -24.984 -10.872 -52.488 -16.2 -80.352 -16.992 c -28.224 -.792 -56.736 2.952 -83.232 10.224 z" fill="#0db14b"/><path d="M 229.392 402.064 L 216.504 403.936 L 216.504 379.096 L 221.112 378.448 L 221.112 399.04 L 229.392 397.888 Z"/><path d="M 236.808 386.512 L 244.44 385.936 L 244.44 389.896 L 236.808 390.4 L 236.808 397.24 L 245.16 396.592 L 245.16 400.84 L 232.272 401.704 L 232.272 376.936 L 245.016 376 L 245.016 380.176 L 236.808 380.752 Z"/><path d="m 257.76 391.336 l 4.536 -.144 c 0 .072 0 .216 0 .432 c 0 .216 0 .36 0 .504 c 0 2.88 -.576 4.968 -1.8 6.408 c -1.224 1.44 -3.096 2.232 -5.544 2.304 c -1.224 0 -2.232 -.072 -3.096 -.36 c -.792 -.288 -1.584 -.72 -2.16 -1.368 c -.864 -.792 -1.44 -2.016 -1.8 -3.384 c -.36 -1.512 -.504 -4.176 -.504 -7.92 c 0 -2.52 .072 -4.608 .288 -6.12 c .216 -1.512 .504 -2.664 .936 -3.384 c .72 -1.152 1.512 -2.016 2.52 -2.592 c 1.008 -.576 2.232 -.864 3.816 -.936 c 2.52 -.072 4.32 .576 5.472 1.8 c 1.152 1.296 1.728 3.384 1.728 6.264 l -4.464 .216 v -.648 c 0 -1.296 -.216 -2.304 -.648 -2.952 c -.432 -.648 -1.08 -1.008 -2.016 -.936 c -1.08 0 -1.872 .504 -2.232 1.44 c -.432 .936 -.648 3.456 -.648 7.632 c 0 4.464 .216 7.2 .576 8.136 c .432 .864 1.152 1.368 2.304 1.296 c 1.008 0 1.728 -.432 2.16 -1.152 c .36 -.72 .576 -2.16 .576 -4.176 z"/><path d="M 276.552 375.28 L 281.16 375.352 L 281.16 400.192 L 276.552 400.12 L 276.552 388.888 L 270.216 388.816 L 270.216 399.976 L 265.608 399.904 L 265.608 375.136 L 270.216 375.208 L 270.216 384.928 L 276.552 385.072 Z"/><path d="M 284.976 375.856 L 289.656 376.216 L 289.656 401.056 L 284.976 400.696 Z"/><path d="m 298.296 392.056 l 3.888 .36 l -1.944 -10.656 z m -6.624 9.216 l 5.544 -24.264 l 6.192 .648 l 5.544 25.416 l -4.896 -.504 l -1.224 -6.408 l -5.256 -.504 l -1.224 6.12 z"/><path d="m 380.952 410.92 l 1.872 .576 c 1.368 .504 2.304 .576 2.88 .144 c .504 -.36 .792 -1.224 .792 -2.592 c 0 -1.368 -.216 -2.448 -.72 -3.168 c -.504 -.648 -1.512 -1.296 -2.88 -1.728 l -1.944 -.72 z m -4.176 12.528 v -24.912 l 7.56 2.592 c 2.376 .792 4.032 1.944 5.04 3.384 c 1.008 1.44 1.512 3.456 1.512 5.976 c 0 2.448 -.504 4.032 -1.584 4.896 c -1.152 .792 -2.808 .864 -5.04 .072 l -3.168 -1.08 v 10.584 z"/><path d="m 397.008 417.76 c 0 4.105 .288 6.768 .72 7.992 c .432 1.152 1.296 1.944 2.52 2.304 c 1.224 .432 2.088 .144 2.52 -.792 c .432 -.864 .648 -3.384 .648 -7.56 c 0 -4.104 -.216 -6.768 -.648 -7.992 c -.504 -1.152 -1.296 -1.944 -2.52 -2.304 c -1.224 -.432 -2.088 -.144 -2.52 .792 c -.432 .936 -.72 3.456 -.72 7.56 z m -4.464 -1.368 c 0 -2.664 .072 -4.752 .288 -6.192 c .288 -1.512 .648 -2.592 1.152 -3.24 c .72 -.936 1.512 -1.512 2.448 -1.656 c 1.008 -.216 2.232 -.072 3.816 .432 c 1.584 .432 2.808 1.08 3.744 1.872 c 1.008 .792 1.8 1.8 2.52 3.168 c .504 1.008 .864 2.304 1.08 3.96 c .216 1.584 .36 3.744 .36 6.408 c 0 2.592 -.144 4.68 -.36 6.192 c -.216 1.44 -.576 2.592 -1.08 3.24 c -.72 .936 -1.512 1.44 -2.52 1.656 c -.936 .216 -2.16 .072 -3.744 -.432 c -1.584 -.504 -2.808 -1.08 -3.816 -1.872 c -.936 -.792 -1.728 -1.872 -2.448 -3.168 c -.504 -1.008 -.864 -2.304 -1.152 -3.96 c -.216 -1.656 -.288 -3.744 -.288 -6.408 z"/><path d="M 423.504 437.92 L 410.976 434.536 L 410.976 409.624 L 415.44 410.848 L 415.44 431.512 L 423.504 433.672 Z"/><path d="m 428.544 426.976 c 0 4.104 .288 6.696 .72 7.848 c .504 1.224 1.368 1.944 2.592 2.232 c 1.224 .288 2.088 -.072 2.52 -1.008 c .504 -.936 .72 -3.456 .72 -7.56 c 0 -4.176 -.216 -6.84 -.72 -7.992 c -.432 -1.152 -1.296 -1.872 -2.52 -2.16 c -1.296 -.288 -2.088 0 -2.592 1.008 c -.432 .936 -.72 3.456 -.72 7.632 z m -4.608 -1.08 c 0 -2.664 .144 -4.752 .36 -6.264 c .288 -1.512 .648 -2.592 1.152 -3.312 c .72 -.936 1.584 -1.584 2.52 -1.8 c 1.008 -.288 2.304 -.216 3.888 .144 c 1.584 .36 2.88 .864 3.816 1.584 c 1.008 .72 1.8 1.728 2.52 3.024 c .504 .936 .936 2.232 1.152 3.888 c .216 1.584 .36 3.744 .36 6.336 c 0 2.664 -.144 4.68 -.36 6.264 c -.216 1.512 -.648 2.592 -1.152 3.313 c -.72 .936 -1.512 1.584 -2.52 1.872 c -.936 .216 -2.232 .144 -3.816 -.216 c -1.584 -.36 -2.88 -.864 -3.888 -1.584 c -.936 -.72 -1.8 -1.728 -2.52 -3.024 c -.504 -.936 -.864 -2.16 -1.152 -3.816 c -.216 -1.657 -.36 -3.817 -.36 -6.409 z"/><path d="M 457.992 420.424 L 457.992 445.336 L 453.384 444.544 L 446.904 425.968 L 447.048 443.392 L 442.728 442.672 L 442.728 417.76 L 447.408 418.552 L 453.816 437.128 L 453.672 419.704 Z"/><path d="M 461.304 420.928 L 465.912 421.504 L 465.912 446.416 L 461.304 445.84 Z"/><path d="m 473.904 437.488 l 3.888 .36 l -1.944 -10.584 z m -6.624 9.432 l 5.544 -24.408 l 6.192 .576 l 5.688 25.344 l -5.04 -.432 l -1.224 -6.336 l -5.256 -.504 l -1.224 6.192 z"/><path d="m 355.68 383.632 l -25.56 -4.68 c -1.656 -5.76 -3.168 -11.664 -4.824 -17.496 c 1.224 1.152 2.592 2.448 4.032 3.744 c 1.512 1.296 3.096 2.592 4.968 3.672 c -2.088 2.088 -1.8 5.328 2.448 5.832 c 3.6 .504 2.736 -3.024 .288 -5.328 c 2.232 -1.368 4.103 -3.6 5.76 -5.4 c 1.656 2.52 3.6 5.616 5.832 7.92 c -2.448 1.224 -3.312 4.392 .36 5.472 c 4.248 1.296 4.464 -1.8 2.304 -4.752 c 1.872 -.288 3.456 -.864 4.968 -1.512 c 1.44 -.648 2.736 -1.296 4.032 -1.872 c -1.512 4.824 -3.096 9.576 -4.608 14.4 z" fill="#fff200"/><path d="m 346.608 393.208 c .576 -1.728 1.152 -3.528 1.8 -5.256 c -2.088 -.36 -4.104 -.72 -6.192 -1.08 c -2.016 -.36 -4.104 -.72 -6.12 -1.08 c .648 2.016 1.224 3.96 1.872 5.904 c -2.016 -.936 -4.032 -1.8 -5.976 -2.736 c 0 3.816 0 7.56 .072 11.376 c 1.944 -.216 3.96 -.432 5.976 -.72 c -.576 1.8 -1.224 3.528 -1.8 5.256 c 2.016 .36 4.104 .72 6.12 1.008 c 2.088 .36 4.104 .72 6.192 1.008 c -.648 -1.944 -1.296 -3.888 -1.944 -5.832 c 2.016 .936 4.032 1.8 6.048 2.736 c -.072 -3.816 -.072 -7.56 -.072 -11.232 c -2.016 .216 -4.032 .432 -5.976 .648 z" fill="#fff"/><path d="m 346.752 417.184 c .576 -1.728 1.224 -3.456 1.8 -5.256 c -2.088 -.288 -4.104 -.648 -6.12 -.936 c -2.088 -.36 -4.104 -.648 -6.192 -1.008 c .648 1.944 1.296 3.888 1.872 5.832 c -1.944 -.864 -3.96 -1.728 -5.976 -2.664 c .072 3.816 .072 7.704 .072 11.52 c 2.016 -.288 4.032 -.576 5.976 -.792 c -.576 1.728 -1.152 3.528 -1.8 5.256 c 2.088 .288 4.104 .576 6.192 .936 c 2.016 .288 4.104 .576 6.12 .864 c -.648 -1.872 -1.224 -3.816 -1.872 -5.76 c 2.016 .864 3.96 1.728 5.976 2.592 c 0 -3.744 -.072 -7.56 -.072 -11.304 c -2.016 .216 -3.96 .504 -5.976 .72 z" fill="#fff"/><path d="M 86.04 326.464 L 80.136 350.224 L 46.656 341.872 L 48.312 335.104 L 76.104 342.016 L 80.352 325.096 Z" fill="#fff"/><path d="M 70.848 307.456 L 77.4 291.328 L 82.8 293.488 L 76.248 309.688 L 85.032 313.216 L 92.304 295.216 L 97.776 297.376 L 87.84 321.928 L 55.584 308.896 L 65.304 284.992 L 70.704 287.224 L 63.72 304.576 Z" fill="#fff"/><path d="m 100.872 266.416 l 5.328 -4.752 c 2.736 2.88 4.248 5.832 4.536 8.856 c .36 3.024 -.432 6.12 -2.376 9.36 c -2.376 3.888 -5.688 6.336 -9.936 7.272 c -4.176 .936 -8.64 0 -13.32 -2.808 c -4.968 -3.024 -8.064 -6.624 -9.288 -10.8 c -1.224 -4.176 -.576 -8.424 1.944 -12.6 c 2.232 -3.6 5.04 -5.904 8.568 -6.912 c 2.088 -.576 4.536 -.504 7.344 .216 l -2.16 6.84 c -1.728 -.576 -3.384 -.576 -4.968 0 c -1.584 .576 -2.88 1.656 -3.816 3.24 c -1.296 2.232 -1.584 4.536 -.864 6.84 c .792 2.304 2.952 4.536 6.48 6.696 c 3.744 2.232 6.84 3.168 9.288 2.808 c 2.376 -.432 4.248 -1.656 5.544 -3.816 c 1.008 -1.656 1.296 -3.312 .936 -5.112 c -.288 -1.728 -1.368 -3.528 -3.24 -5.328 z" fill="#fff"/><path d="M 104.4 223.72 L 108.792 218.248 L 135.864 240.136 L 131.4 245.608 L 119.592 236.032 L 110.952 246.688 L 122.76 256.264 L 118.368 261.736 L 91.296 239.848 L 95.76 234.376 L 106.344 243.016 L 115.056 232.288 Z" fill="#fff"/><path d="M 117.288 210.112 L 122.4 205.288 L 146.088 230.704 L 140.976 235.528 Z" fill="#fff"/><path d="m 175.176 206.08 l -6.048 4.752 l -7.272 -4.392 l -10.944 8.568 l 2.664 7.992 l -5.904 4.608 l -10.728 -35.784 l 5.832 -4.536 z m -18.648 -2.88 l -11.736 -7.2 l 4.248 13.104 z" fill="#fff"/><path d="M 167.472 192.184 L 178.56 185.272 L 182.088 190.888 L 171 197.872 Z" fill="#fff"/><path d="m 192.384 195.424 l -15.84 -31.032 l 10.08 -5.112 c 3.744 -1.944 6.336 -3.024 7.632 -3.312 c 2.016 -.432 4.032 -.144 6.048 .792 c 1.944 .936 3.6 2.664 4.824 5.112 c 1.008 1.872 1.44 3.672 1.44 5.328 c -.072 1.656 -.432 3.096 -1.08 4.392 c -.72 1.224 -1.512 2.304 -2.52 3.096 c -1.296 1.08 -3.384 2.304 -6.264 3.744 l -4.032 2.088 l 5.904 11.664 z m -6.912 -28.944 l 4.464 8.784 l 3.456 -1.728 c 2.448 -1.296 4.032 -2.304 4.68 -3.024 c .648 -.72 1.08 -1.584 1.224 -2.52 c .072 -.936 -.072 -1.872 -.576 -2.736 c -.576 -1.152 -1.368 -1.944 -2.376 -2.304 c -1.008 -.432 -2.088 -.432 -3.24 -.072 c -.792 .216 -2.304 .936 -4.608 2.016 z" fill="#fff"/><path d="m 214.416 165.472 c -1.08 -3.384 -1.512 -6.408 -1.224 -9 c .216 -1.944 .72 -3.744 1.584 -5.544 c .864 -1.728 1.944 -3.168 3.312 -4.32 c 1.8 -1.584 4.032 -2.808 6.696 -3.672 c 4.896 -1.584 9.288 -1.296 13.176 .72 c 3.888 2.088 6.696 5.832 8.496 11.232 c 1.728 5.328 1.584 9.936 -.288 13.896 c -1.944 3.96 -5.328 6.768 -10.152 8.352 c -4.968 1.585 -9.36 1.368 -13.248 -.72 c -3.888 -2.016 -6.624 -5.688 -8.352 -10.944 z m 6.768 -2.448 c 1.224 3.672 3.024 6.264 5.4 7.632 c 2.376 1.368 4.824 1.656 7.488 .792 c 2.664 -.864 4.536 -2.592 5.616 -5.04 c 1.08 -2.448 1.008 -5.616 -.216 -9.432 c -1.224 -3.816 -2.952 -6.336 -5.256 -7.704 c -2.232 -1.296 -4.752 -1.512 -7.488 -.648 c -2.808 .936 -4.68 2.592 -5.76 5.04 c -1.08 2.376 -1.008 5.544 .216 9.36 z" fill="#fff"/><path d="M 281.808 166.336 L 257.688 170.584 L 251.712 136.672 L 258.624 135.448 L 263.592 163.6 L 280.8 160.576 Z" fill="#fff"/><path d="m 285.048 148.696 c -.072 -3.528 .36 -6.48 1.368 -8.928 c .792 -1.8 1.872 -3.384 3.168 -4.824 c 1.368 -1.44 2.808 -2.52 4.464 -3.168 c 2.16 -1.008 4.608 -1.512 7.488 -1.512 c 5.04 -.144 9.144 1.368 12.312 4.536 c 3.096 3.096 4.68 7.488 4.824 13.176 c .072 5.616 -1.368 10.008 -4.392 13.248 c -2.952 3.168 -7.056 4.824 -12.024 4.968 c -5.184 .072 -9.36 -1.44 -12.456 -4.536 c -3.096 -3.096 -4.68 -7.416 -4.752 -12.96 z m 7.2 -.36 c .072 3.96 1.008 6.912 2.88 8.928 c 1.872 2.016 4.176 2.952 6.984 2.88 c 2.808 0 4.968 -1.08 6.768 -3.096 c 1.728 -2.088 2.592 -5.112 2.52 -9.144 c -.072 -3.96 -1.008 -6.912 -2.808 -8.856 c -1.728 -1.944 -4.032 -2.88 -6.912 -2.808 c -2.88 .072 -5.184 1.08 -6.912 3.096 c -1.728 2.016 -2.592 5.04 -2.52 9 z" fill="#fff"/><path d="M 356.112 134.728 L 351.864 169.216 L 344.88 168.352 L 333.72 144.16 L 330.984 166.696 L 324.504 165.832 L 328.752 131.344 L 335.52 132.208 L 346.824 156.976 L 349.632 133.936 Z" fill="#fff"/><path d="M 348.64401 151.845 H 383.452009 V 158.866 H 348.64401 Z" fill="#fff" transform="matrix(.2255 -.9743 .9743 .2255 132.1645 476.9537)"/><path d="m 401.688 184.48 l -7.272 -2.376 l -.432 -8.424 l -13.248 -4.32 l -5.184 6.624 l -7.056 -2.304 l 23.616 -28.872 l 7.056 2.304 z m -8.064 -17.064 l -.576 -13.752 l -8.424 10.8 z" fill="#fff"/><path d="m 435.816 189.808 l 3.096 -4.968 l 12.816 7.992 l -7.272 11.736 c -2.016 .432 -4.536 .36 -7.416 -.144 c -2.952 -.576 -5.688 -1.656 -8.064 -3.168 c -3.096 -1.872 -5.4 -4.248 -6.84 -6.984 c -1.512 -2.664 -2.088 -5.616 -1.727 -8.784 c .36 -3.096 1.44 -6.048 3.168 -8.928 c 1.944 -3.024 4.248 -5.4 7.056 -6.984 c 2.808 -1.584 5.832 -2.232 9.072 -1.944 c 2.52 .216 5.184 1.224 7.992 2.952 c 3.672 2.304 6.048 4.824 7.128 7.632 c 1.08 2.88 1.08 5.832 0 8.856 l -6.624 -2.592 c .504 -1.656 .432 -3.312 -.216 -4.896 c -.576 -1.512 -1.728 -2.808 -3.456 -3.888 c -2.592 -1.656 -5.184 -2.088 -7.776 -1.44 c -2.592 .72 -4.824 2.664 -6.912 5.904 c -2.16 3.528 -3.024 6.624 -2.52 9.36 c .432 2.736 1.944 4.824 4.464 6.408 c 1.224 .792 2.592 1.368 4.176 1.656 c 1.584 .288 3.024 .36 4.32 .216 l 2.376 -3.744 z" fill="#fff"/><path d="m 469.296 186.208 l 9.864 8.28 c 2.232 1.8 3.744 3.384 4.608 4.752 c 1.224 1.728 1.872 3.672 1.944 5.832 c .144 2.088 -.216 4.247 -1.008 6.408 c -.864 2.232 -2.376 4.536 -4.464 7.056 c -1.8 2.16 -3.672 3.816 -5.544 4.968 c -2.304 1.368 -4.536 2.16 -6.84 2.304 c -1.656 .144 -3.528 -.216 -5.544 -1.008 c -1.512 -.648 -3.24 -1.8 -5.184 -3.456 l -10.152 -8.496 z m 1.656 9 l -14.832 17.64 l 4.032 3.384 c 1.512 1.296 2.664 2.088 3.456 2.448 c 1.08 .576 2.088 .792 3.096 .72 c 1.008 0 2.232 -.504 3.528 -1.368 c 1.368 -.864 2.952 -2.376 4.68 -4.392 c 1.728 -2.088 2.88 -3.816 3.456 -5.184 c .504 -1.44 .72 -2.736 .576 -3.888 c -.072 -1.152 -.576 -2.304 -1.44 -3.384 c -.576 -.792 -1.944 -2.088 -4.176 -3.888 z" fill="#fff"/><path d="m 493.992 260.224 l -5.04 -5.76 l 3.96 -7.488 l -9.072 -10.44 l -7.848 2.952 l -4.896 -5.616 l 35.136 -12.528 l 4.896 5.544 z m 1.872 -18.792 l 6.624 -12.096 l -12.816 4.968 z" fill="#fff"/><path d="m 495.504 263.608 l 29.16 -18.936 l 3.744 5.76 l -11.736 24.552 l 19.44 -12.6 l 3.6 5.472 l -29.16 18.936 l -3.888 -5.976 l 11.376 -24.048 l -19.008 12.312 z m 36 -11.952 l 2.304 3.528 l 9.504 1.584 l -4.032 -6.264 z" fill="#fff"/><path d="m 522.576 287.08 l 3.528 5.904 c -1.944 1.296 -3.096 2.808 -3.528 4.392 c -.432 1.584 -.216 3.312 .72 5.256 c .936 2.088 2.088 3.384 3.456 4.032 c 1.296 .648 2.592 .72 3.744 .144 c .72 -.36 1.296 -.864 1.584 -1.512 c .36 -.72 .432 -1.656 .288 -2.952 c -.072 -.864 -.432 -2.808 -1.008 -5.76 c -.72 -3.816 -.792 -6.624 -.216 -8.64 c .864 -2.736 2.52 -4.68 4.968 -5.832 c 1.656 -.72 3.384 -1.008 5.184 -.72 c 1.8 .216 3.456 1.08 5.04 2.448 c 1.512 1.368 2.808 3.24 3.96 5.688 c 1.872 3.961 2.376 7.344 1.584 10.152 c -.792 2.808 -2.664 4.896 -5.472 6.336 l -3.24 -6.192 c 1.44 -1.008 2.376 -2.16 2.664 -3.384 c .288 -1.224 0 -2.736 -.864 -4.536 c -.864 -1.872 -1.872 -3.096 -3.096 -3.816 c -.864 -.432 -1.656 -.504 -2.448 -.072 c -.792 .36 -1.224 .936 -1.512 1.8 c -.288 1.152 -.072 3.384 .648 6.84 c .72 3.456 1.008 6.12 .936 7.92 c -.072 1.872 -.648 3.528 -1.584 4.968 c -.936 1.512 -2.448 2.664 -4.464 3.6 c -1.8 .864 -3.672 1.152 -5.76 .864 c -2.016 -.288 -3.888 -1.152 -5.472 -2.592 c -1.656 -1.512 -3.096 -3.6 -4.32 -6.336 c -1.872 -3.96 -2.376 -7.488 -1.584 -10.44 c .864 -3.024 2.952 -5.544 6.264 -7.56 z" fill="#fff"/><path d="M 567.432 343.24 L 550.8 334.384 L 534.24 353.464 L 531.72 344.752 L 544.752 331.072 L 537.624 327.184 L 527.544 330.064 L 525.6 323.368 L 559.008 313.792 L 560.952 320.488 L 546.12 324.736 L 564.84 334.168 Z" fill="#fff"/><path d="m 56.088 442.168 l 2.16 6.48 c -2.16 .936 -3.6 2.088 -4.32 3.6 c -.792 1.44 -.936 3.24 -.432 5.328 c .504 2.16 1.368 3.744 2.52 4.608 c 1.224 .936 2.448 1.224 3.672 .936 c .792 -.144 1.44 -.576 1.872 -1.152 c .432 -.576 .792 -1.512 .864 -2.808 c .144 -.864 .216 -2.808 .216 -5.832 c .072 -3.888 .648 -6.696 1.584 -8.496 c 1.368 -2.52 3.456 -4.032 6.12 -4.68 c 1.728 -.36 3.456 -.288 5.184 .36 c 1.728 .648 3.168 1.8 4.392 3.456 c 1.224 1.656 2.088 3.744 2.736 6.336 c .936 4.32 .792 7.704 -.576 10.296 c -1.368 2.592 -3.6 4.248 -6.696 5.112 l -1.872 -6.768 c 1.656 -.72 2.736 -1.656 3.312 -2.808 c .504 -1.08 .576 -2.664 .144 -4.536 c -.432 -2.016 -1.224 -3.456 -2.304 -4.392 c -.72 -.648 -1.44 -.792 -2.376 -.648 c -.792 .216 -1.368 .72 -1.8 1.512 c -.504 1.008 -.792 3.312 -.792 6.84 c -.072 3.456 -.288 6.12 -.72 7.92 c -.504 1.8 -1.368 3.312 -2.592 4.536 c -1.296 1.224 -2.952 2.088 -5.112 2.592 c -1.944 .432 -3.888 .36 -5.832 -.36 c -1.944 -.648 -3.528 -1.944 -4.824 -3.672 c -1.296 -1.8 -2.232 -4.176 -2.952 -7.128 c -.936 -4.248 -.72 -7.776 .72 -10.512 c 1.44 -2.736 4.032 -4.824 7.704 -6.12 z" fill="#fff"/><path d="m 53.064 477.88 l 32.472 -12.456 l 4.032 10.512 c 1.512 3.96 2.376 6.624 2.52 7.992 c .216 2.016 -.288 3.96 -1.44 5.832 c -1.152 1.944 -3.024 3.313 -5.544 4.32 c -2.016 .792 -3.816 1.08 -5.472 .864 c -1.656 -.216 -3.024 -.72 -4.248 -1.512 c -1.224 -.864 -2.16 -1.8 -2.808 -2.808 c -.936 -1.44 -1.944 -3.672 -3.096 -6.624 l -1.656 -4.32 l -12.24 4.752 z m 29.448 -3.816 l -9.144 3.528 l 1.368 3.6 c .936 2.592 1.8 4.248 2.448 4.968 c .72 .72 1.512 1.224 2.376 1.44 c .936 .216 1.872 .144 2.808 -.216 c 1.224 -.432 2.088 -1.152 2.52 -2.16 c .504 -1.008 .648 -2.088 .432 -3.168 c -.144 -.864 -.648 -2.448 -1.584 -4.824 z" fill="#fff"/><path d="m 80.064 498.76 c 3.168 -1.584 6.048 -2.52 8.64 -2.664 c 1.944 -.072 3.888 .144 5.76 .72 c 1.872 .576 3.456 1.44 4.824 2.592 c 1.8 1.512 3.312 3.528 4.608 6.048 c 2.304 4.608 2.736 8.928 1.296 13.176 c -1.368 4.176 -4.608 7.488 -9.648 10.08 c -5.04 2.592 -9.648 3.168 -13.824 1.944 c -4.248 -1.296 -7.488 -4.248 -9.792 -8.784 c -2.376 -4.608 -2.808 -9 -1.44 -13.104 c 1.44 -4.176 4.608 -7.488 9.576 -10.008 z m 3.456 6.336 c -3.456 1.8 -5.76 3.96 -6.696 6.48 c -1.008 2.52 -.864 5.04 .432 7.56 c 1.224 2.52 3.168 4.104 5.832 4.752 c 2.592 .72 5.688 .144 9.288 -1.728 c 3.528 -1.8 5.76 -3.888 6.768 -6.336 c .936 -2.448 .72 -4.968 -.576 -7.56 c -1.296 -2.592 -3.24 -4.176 -5.832 -4.896 c -2.592 -.648 -5.616 -.072 -9.216 1.728 z" fill="#fff"/><path d="m 83.664 540.592 l 28.512 -19.944 l 8.496 12.096 c 2.088 3.096 3.384 5.472 3.816 7.2 c .504 1.728 .36 3.456 -.36 5.184 c -.72 1.8 -1.944 3.24 -3.6 4.392 c -2.16 1.512 -4.392 2.16 -6.624 1.872 c -2.304 -.288 -4.464 -1.584 -6.624 -3.816 c .144 1.728 .072 3.312 -.216 4.752 c -.288 1.44 -1.08 3.6 -2.304 6.48 l -3.168 7.416 l -4.752 -6.912 l 3.24 -8.496 c 1.224 -3.024 1.872 -4.968 2.088 -5.976 c .216 -.936 .144 -1.728 0 -2.52 c -.216 -.792 -.792 -1.8 -1.728 -3.096 L 99.648 538 L 87.696 546.352 Z m 20.52 -5.76 l 2.952 4.248 c 1.944 2.808 3.24 4.392 3.96 4.968 c .72 .504 1.512 .72 2.376 .72 c .792 0 1.656 -.288 2.52 -.864 c .936 -.72 1.512 -1.512 1.8 -2.448 c .216 -.864 .072 -1.872 -.432 -2.952 c -.288 -.504 -1.224 -1.872 -2.808 -4.248 l -3.168 -4.464 z" fill="#fff"/><path d="M 142.848 567.592 L 135.792 560.104 L 114.696 579.76 L 109.872 574.648 L 131.04 554.92 L 123.984 547.432 L 128.304 543.4 L 147.168 563.632 Z" fill="#fff"/><path d="m 134.568 575.656 c 2.304 -2.664 4.68 -4.608 7.056 -5.688 c 1.728 -.792 3.6 -1.296 5.544 -1.512 c 2.016 -.144 3.816 .072 5.472 .648 c 2.232 .72 4.392 2.016 6.552 3.888 c 3.888 3.312 5.904 7.2 6.192 11.664 c .216 4.392 -1.512 8.712 -5.256 12.96 c -3.672 4.248 -7.704 6.552 -12.096 6.984 c -4.392 .36 -8.496 -1.08 -12.312 -4.464 c -3.96 -3.384 -5.976 -7.272 -6.264 -11.664 c -.216 -4.392 1.512 -8.64 5.112 -12.816 z m 5.616 4.536 c -2.592 3.024 -3.816 5.832 -3.816 8.568 c .072 2.736 1.152 5.04 3.24 6.84 c 2.088 1.872 4.464 2.592 7.2 2.232 c 2.664 -.36 5.328 -2.016 7.992 -5.04 c 2.592 -3.024 3.888 -5.832 3.816 -8.496 c 0 -2.592 -1.08 -4.896 -3.312 -6.768 c -2.16 -1.872 -4.608 -2.664 -7.2 -2.376 c -2.664 .36 -5.256 2.016 -7.92 5.04 z" fill="#fff"/><path d="M 192.384 596.464 L 185.544 620.584 L 202.32 602.224 L 208.44 605.752 L 183.744 631.6 L 177.264 627.928 L 184.248 601.936 L 165.312 621.016 L 158.688 617.2 L 168.912 582.928 L 175.104 586.528 L 167.76 609.856 L 185.184 592.36 Z" fill="#fff"/><path d="m 219.24 648.592 l -6.984 -3.24 l .648 -8.424 l -12.6 -5.904 l -5.976 5.976 l -6.696 -3.168 l 26.928 -25.776 l 6.696 3.168 z m -5.904 -17.928 l 1.08 -13.752 l -9.72 9.72 z" fill="#fff"/><path d="m 235.368 640.816 l 6.84 .936 c -.216 2.376 .216 4.176 1.152 5.544 c 1.008 1.368 2.52 2.304 4.536 2.808 c 2.232 .504 4.032 .504 5.328 -.144 c 1.368 -.648 2.16 -1.656 2.52 -2.88 c .144 -.792 .072 -1.512 -.216 -2.232 c -.36 -.648 -1.008 -1.368 -2.088 -2.016 c -.72 -.504 -2.448 -1.44 -5.112 -2.88 c -3.384 -1.8 -5.688 -3.528 -6.84 -5.256 c -1.584 -2.376 -2.088 -4.896 -1.368 -7.56 c .36 -1.728 1.296 -3.168 2.664 -4.464 c 1.296 -1.224 3.024 -2.016 5.04 -2.304 c 2.016 -.36 4.32 -.216 6.912 .432 c 4.248 1.08 7.2 2.808 8.856 5.184 c 1.656 2.376 2.232 5.184 1.512 8.28 l -6.84 -1.368 c .144 -1.872 -.216 -3.24 -.936 -4.248 c -.792 -1.008 -2.16 -1.728 -4.032 -2.232 c -2.016 -.432 -3.672 -.432 -4.968 .072 c -.864 .36 -1.368 .936 -1.584 1.8 c -.216 .864 -.072 1.584 .504 2.304 c .648 .936 2.52 2.232 5.688 3.816 c 3.096 1.656 5.328 3.096 6.696 4.32 c 1.368 1.224 2.376 2.664 2.88 4.32 c .576 1.656 .576 3.6 0 5.688 c -.432 1.944 -1.44 3.672 -2.952 5.04 c -1.512 1.44 -3.312 2.304 -5.472 2.664 c -2.16 .288 -4.752 .144 -7.632 -.648 c -4.32 -1.008 -7.344 -2.808 -9.144 -5.4 c -1.8 -2.52 -2.448 -5.76 -1.944 -9.576 z" fill="#fff"/><path d="m 266.328 658.6 l 4.896 -34.416 l 11.16 1.584 c 4.176 .576 6.912 1.152 8.136 1.656 c 1.944 .792 3.456 2.16 4.536 4.104 c 1.079 1.872 1.44 4.248 1.008 6.984 c -.288 2.088 -.936 3.816 -1.872 5.112 c -1.008 1.368 -2.088 2.376 -3.384 3.024 c -1.296 .648 -2.592 1.008 -3.888 1.152 c -1.656 .072 -4.104 -.144 -7.272 -.576 l -4.536 -.648 l -1.8 13.032 z m 11.016 -27.576 l -1.368 9.72 l 3.816 .576 c 2.736 .36 4.536 .432 5.544 .216 c .936 -.216 1.8 -.72 2.376 -1.368 c .648 -.72 1.08 -1.584 1.224 -2.592 c .144 -1.224 -.072 -2.304 -.72 -3.24 c -.576 -.936 -1.44 -1.584 -2.52 -1.944 c -.864 -.288 -2.52 -.576 -5.04 -.936 z" fill="#fff"/><path d="m 296.28 645.28 c -.144 -3.528 .288 -6.552 1.296 -9 c .72 -1.8 1.728 -3.384 3.024 -4.824 c 1.368 -1.512 2.808 -2.592 4.392 -3.312 c 2.088 -1.008 4.536 -1.512 7.416 -1.656 c 5.112 -.144 9.216 1.296 12.456 4.32 c 3.168 3.096 4.824 7.488 5.04 13.104 c .216 5.616 -1.152 10.08 -4.104 13.32 c -2.952 3.312 -6.984 5.04 -12.096 5.184 c -5.112 .216 -9.216 -1.224 -12.384 -4.248 c -3.168 -3.096 -4.824 -7.344 -5.04 -12.888 z m 7.2 -.504 c .144 3.96 1.152 6.912 3.024 8.856 c 1.872 1.944 4.176 2.88 6.984 2.808 c 2.808 -.072 5.04 -1.224 6.768 -3.24 c 1.728 -2.088 2.52 -5.184 2.376 -9.216 c -.144 -3.96 -1.08 -6.912 -2.88 -8.784 c -1.872 -1.872 -4.176 -2.808 -7.128 -2.736 c -2.88 .144 -5.184 1.224 -6.768 3.24 c -1.728 2.088 -2.52 5.04 -2.376 9.072 z m 4.608 -19.512 l 3.024 -7.2 l 7.416 -.288 l -6.264 7.344 z" fill="#fff"/><path d="M 346.752 634.336 L 340.344 642.256 L 342.576 653.704 L 359.712 650.392 L 360.792 656.08 L 336.816 660.76 L 334.584 649.312 L 331.56 652.984 L 330.48 647.44 L 333.504 643.768 L 330.192 626.632 L 337.032 625.336 L 339.192 636.64 L 345.672 628.72 Z" fill="#fff"/><path d="M 385.488 614.176 L 376.632 630.736 L 395.784 647.584 L 387 649.96 L 373.32 636.712 L 369.504 643.84 L 372.384 653.92 L 365.616 655.792 L 356.04 622.24 L 362.808 620.44 L 367.056 635.272 L 376.416 616.696 Z" fill="#fff"/><path d="m 427.824 632.68 l -6.912 3.24 l -6.048 -5.832 l -12.6 5.832 l .72 8.352 l -6.768 3.168 l -2.376 -37.224 l 6.696 -3.168 z m -17.496 -6.984 l -9.792 -9.648 l 1.224 13.68 z" fill="#fff"/><path d="m 466.056 609.496 l -6.408 4.176 l -6.84 -4.968 l -11.664 7.56 l 1.944 8.208 l -6.264 4.032 l -7.56 -36.504 l 6.192 -4.104 z m -18.288 -4.464 l -11.088 -8.208 l 3.096 13.32 z" fill="#fff"/><path d="M 469.08 560.392 L 468.144 579.184 L 492.48 586.168 L 485.568 592.072 L 467.712 586.024 L 467.208 594.16 L 474.12 602.08 L 468.792 606.688 L 445.968 580.48 L 451.296 575.872 L 461.376 587.536 L 461.952 566.584 Z" fill="#fff"/><path d="m 500.112 558.808 l 6.048 -3.888 c 2.232 3.24 3.312 6.408 3.168 9.432 c -.216 3.024 -1.44 6.048 -3.888 8.856 c -2.952 3.528 -6.552 5.472 -10.872 5.688 c -4.392 .288 -8.64 -1.368 -12.816 -4.896 c -4.392 -3.744 -6.912 -7.776 -7.416 -12.096 c -.576 -4.32 .72 -8.352 3.888 -12.096 c 2.736 -3.24 5.904 -5.112 9.504 -5.544 c 2.16 -.216 4.608 .216 7.2 1.368 l -3.168 6.408 c -1.656 -.864 -3.312 -1.08 -4.896 -.72 c -1.656 .288 -3.096 1.152 -4.32 2.592 c -1.656 1.944 -2.232 4.176 -1.872 6.624 c .36 2.376 2.16 4.896 5.328 7.56 c 3.384 2.88 6.264 4.248 8.712 4.248 c 2.448 0 4.464 -1.008 6.12 -2.952 c 1.224 -1.368 1.8 -3.024 1.728 -4.824 c -.072 -1.8 -.864 -3.672 -2.448 -5.76 z" fill="#fff"/><path d="M 501.768 520.144 L 506.448 513.52 L 515.592 535.552 L 527.544 543.904 L 523.584 549.664 L 511.56 541.24 L 487.8 540.16 L 492.48 533.392 L 508.464 534.616 Z" fill="#fff"/><path d="m 510.912 503.224 l 3.168 -6.264 l 19.656 10.008 c 2.52 1.296 4.392 2.52 5.544 3.672 c 1.512 1.512 2.377 3.384 2.664 5.544 c .288 2.16 -.216 4.536 -1.584 7.128 c -1.584 3.024 -3.6 4.968 -6.192 5.76 c -2.52 .72 -5.472 .288 -8.784 -1.368 l 2.376 -6.264 c 1.8 .864 3.168 1.224 4.104 1.152 c 1.512 -.072 2.592 -.864 3.24 -2.232 c .72 -1.368 .864 -2.592 .36 -3.528 c -.504 -1.008 -2.016 -2.16 -4.536 -3.456 z" fill="#fff"/><path d="M 526.248 467.944 L 558.72 480.4 L 556.2 487.024 L 529.992 491.92 L 551.16 500.056 L 548.784 506.176 L 516.384 493.72 L 518.832 487.312 L 545.544 482.344 L 523.872 474.064 Z" fill="#fff"/><path d="m 568.584 443.032 l -1.728 7.416 l -8.352 1.152 l -3.168 13.536 l 7.056 4.608 l -1.656 7.272 l -30.816 -21.024 l 1.656 -7.272 z m -16.272 9.432 l -13.68 1.8 l 11.52 7.488 z" fill="#fff"/></g></svg>