<svg xmlns="http://www.w3.org/2000/svg" xml:space="preserve" viewBox="0 0 612 792"><path d="M525.312 305.152c2.592 4.824 5.328 9.504 8.28 13.896 3.6 5.328 7.488 10.368 11.736 15.12l2.016 2.232-2.52 1.728-36.648 24.912v114.84c0 110.88-90.72 201.672-201.6 201.672s-201.6-90.792-201.6-201.672V363.04l-36.648-24.912-2.52-1.728 2.016-2.232c4.248-4.752 8.136-9.792 11.736-15.12 2.952-4.392 5.688-9.072 8.28-13.896l1.152-2.304c4.536-9.648 7.488-19.368 8.784-29.16 1.368-10.656.504-20.808-1.944-31.248l8.568-8.568c.504-7.488 1.512-13.752 4.608-20.016 3.6-7.128 9.792-13.896 21.024-21.888 3.672-2.664 7.56-4.824 11.448-6.984 5.256-2.88 10.44-5.832 14.688-9.648 23.688-21.672 35.136-19.512 49.392-16.92 5.832 1.08 12.168 2.232 20.304 1.656 11.232-.864 23.544-13.176 35.136-24.84 3.6-3.528 7.128-7.128 10.584-10.224 28.8-26.28 67.896-4.896 97.848 11.448 3.096 1.656 6.048 3.312 9.216 4.968 16.2 8.568 27.72 9.216 38.304 9.864 16.848 1.08 31.464 1.944 57.384 30.96 8.28 9.216 16.128 19.08 21.816 31.176 1.872 3.96 3.456 8.136 4.824 12.672l16.344 16.344c-2.448 10.44-3.312 20.592-1.944 31.248 1.296 9.792 4.248 19.512 8.784 29.16z" style="fill:#00442b"/><path d="M173.304 471.616v6.264c0 73.368 59.976 133.344 133.272 133.344s133.272-59.976 133.272-133.344v-1.008c-7.488 1.656-14.976 2.448-21.096 1.512-6.84-1.008-12.168-4.032-14.76-9.864q-.864-2.052-1.296-4.536c-7.704 4.392-20.808 9.936-33.552 12.816-7.632 1.728-15.12 2.52-21.384 1.584-6.768-1.008-12.168-4.032-14.76-9.864q-.864-2.052-1.296-4.536c-7.632 4.392-20.808 9.936-33.408 12.816-7.632 1.728-15.192 2.52-21.456 1.584-6.768-1.008-12.096-4.032-14.688-9.864q-.972-2.052-1.296-4.536c-7.704 4.392-20.808 9.936-33.552 12.816-7.632 1.728-15.192 2.52-21.384 1.584-6.84-1.008-12.168-4.032-14.76-9.864q-.864-2.052-1.296-4.536c-4.176 2.448-10.08 5.184-16.56 7.632" style="fill:#ed1c24"/><path d="M110.232 469.384v8.496c0 108 88.344 196.416 196.344 196.416 107.856 0 196.128-88.2 196.344-196.056-4.752.648-9.216.72-13.248.144-6.768-1.008-12.096-4.032-14.688-9.864q-.972-2.052-1.296-4.536c-6.696 3.816-17.496 8.496-28.584 11.592v2.304c0 76.248-62.352 138.6-138.528 138.6s-138.528-62.352-138.528-138.6v-4.392c-3.816 1.296-7.776 2.448-11.736 3.312-7.632 1.728-15.12 2.52-21.384 1.584-6.768-1.008-12.168-4.032-14.76-9.864a15.9 15.9 0 0 1-1.224-4.32c-3.024 2.016-5.904 3.744-8.712 5.184M235.152 299.752l-45.792-91.584c-9.36 4.176-18.792 6.912-28.44 8.136q-14.904 1.944-30.24-1.296l-29.088 29.088c2.232 10.224 2.592 20.304 1.368 30.24-1.224 9.576-4.032 19.08-8.208 28.368l91.656 45.792a139.7 139.7 0 0 1 22.104-28.152 137.2 137.2 0 0 1 26.64-20.592M341.064 284.344l32.328-97.056c-9.576-3.672-18.216-8.352-25.848-14.328-7.92-6.12-14.76-13.536-20.376-22.32h-41.184c-5.616 8.784-12.456 16.2-20.376 22.32-7.632 5.976-16.272 10.656-25.848 14.328l32.328 97.056c11.088-2.808 22.608-4.32 34.488-4.32s23.4 1.512 34.488 4.32M426.744 348.496l91.656-45.792c-4.176-9.288-6.984-18.792-8.208-28.368-1.224-9.936-.864-20.016 1.368-30.24l-29.088-29.088q-15.336 3.24-30.24 1.296c-9.648-1.224-19.08-3.96-28.44-8.136L378 299.752c7.056 4.176 13.68 9 19.8 14.328 11.448 9.792 21.24 21.456 28.944 34.416" style="fill:#fff"/><path d="m228.312 297.808-41.472-82.872a141 141 0 0 1-10.152 3.456c-4.968 1.44-10.008 2.52-15.048 3.096-5.4.72-10.728.936-15.912.72-4.392-.216-8.856-.72-13.32-1.512l-25.128 25.128a93.6 93.6 0 0 1 1.584 13.248c.216 5.256-.072 10.584-.72 15.912-.648 5.112-1.728 10.152-3.168 15.12a94 94 0 0 1-3.456 10.152l82.944 41.4A145 145 0 0 1 204.84 316.6c7.128-7.056 14.976-13.32 23.472-18.792M337.608 278.152l29.232-87.84a108 108 0 0 1-9.576-4.752 90 90 0 0 1-12.888-8.424 88.4 88.4 0 0 1-11.736-10.8 85 85 0 0 1-8.28-10.44h-35.568a85 85 0 0 1-8.28 10.44c-3.528 3.888-7.488 7.488-11.736 10.8a90 90 0 0 1-12.888 8.424 108 108 0 0 1-9.576 4.752l29.232 87.84c10.008-2.232 20.448-3.384 31.032-3.384a143.3 143.3 0 0 1 31.032 3.384M428.688 341.656l82.944-41.4a94 94 0 0 1-3.456-10.152c-1.44-4.968-2.52-10.008-3.168-15.12-.648-5.328-.936-10.656-.72-15.912a93.6 93.6 0 0 1 1.584-13.248l-25.128-25.128a106 106 0 0 1-13.32 1.512 91.6 91.6 0 0 1-15.912-.72c-5.04-.576-10.08-1.656-15.048-3.096-3.456-1.008-6.768-2.16-10.152-3.456l-41.472 82.872a152.5 152.5 0 0 1 16.416 12.312c10.584 9.144 19.872 19.8 27.432 31.536" style="fill:#ed1c24"/><path d="M306.576 285.28c67.464 0 123.696 50.112 133.2 114.984-2.736 1.296-5.328 2.88-7.632 4.248-1.224.648-2.304 1.296-3.312 1.872-6.912 3.744-23.976 11.664-38.952 14.904-8.928 1.944-16.92 2.304-21.024-.936a5 5 0 0 1-.864-.864c-.432-.504-.648-1.008-.576-1.512 0-.504.216-1.08.648-1.584.288-.36.576-.648.936-.936 1.008-.864 1.944-1.368 2.664-1.368.504 0 1.152.432 1.944 1.512 1.584 2.088 3.456 2.664 5.4 2.16 1.656-.432 3.096-1.728 4.176-3.528.936-1.512 1.656-3.384 2.016-5.328.648-4.248-.288-8.712-4.392-10.656-8.208-3.888-18.216 2.016-25.488 6.264-1.152.648-2.304 1.296-3.312 1.872-6.912 3.744-23.976 11.664-38.952 14.904-8.784 1.944-16.776 2.304-20.952-.936a5 5 0 0 1-.864-.864c-.432-.504-.648-1.008-.576-1.512 0-.504.216-1.08.648-1.584.288-.36.576-.648.936-.936 1.008-.864 1.944-1.368 2.664-1.368.504 0 1.152.432 1.944 1.512 1.584 2.088 3.456 2.664 5.4 2.16 1.656-.432 3.168-1.728 4.248-3.528.792-1.512 1.512-3.384 1.872-5.328.72-4.248-.288-8.712-4.32-10.656-8.136-3.888-18.216 2.016-25.488 6.264-1.152.648-2.304 1.296-3.24 1.872-6.984 3.744-24.048 11.664-39.024 14.904-8.856 1.944-16.848 2.304-20.952-.936a3.7 3.7 0 0 1-.936-.864c-.432-.504-.576-1.008-.576-1.512s.216-1.08.648-1.584c.288-.36.576-.648.936-.936 1.08-.864 1.944-1.368 2.664-1.368.504 0 1.152.432 1.944 1.512 1.584 2.088 3.528 2.664 5.472 2.16 1.584-.432 3.096-1.728 4.176-3.528.936-1.512 1.584-3.384 1.944-5.328.72-4.248-.288-8.712-4.392-10.656-8.136-3.888-18.216 2.016-25.488 6.264-1.152.648-2.304 1.296-3.24 1.872-5.04 2.736-15.48 7.704-26.568 11.376 1.152-73.08 61.2-132.48 134.64-132.48"/><path d="M257.328 414.592c-.504-2.736-1.008-5.544-1.44-8.424-12.6-4.032-25.128-8.136-37.728-12.168-1.872 1.656-3.672 3.168-5.328 4.752 4.824-1.872 9.936-2.664 14.4-.504 4.104 1.944 5.112 6.408 4.392 10.656-.36 1.944-1.008 3.816-1.944 5.328-1.08 1.8-2.592 3.096-4.176 3.528-1.944.504-3.888-.072-5.472-2.16-.792-1.08-1.44-1.512-1.944-1.512-.72 0-1.584.504-2.664 1.368-.36.288-.648.576-.936.936-.432.504-.648 1.08-.648 1.584s.144 1.008.576 1.512c.216.288.504.576.936.864 4.104 3.24 12.096 2.88 20.952.936 6.984-1.512 14.4-4.032 21.024-6.696M413.136 413.728c-.504-.648-.935-1.368-1.44-2.016-4.32-6.048-9.936-11.952-16.704-17.712-4.608 1.512-9.216 2.952-13.824 4.392 3.816 2.088 4.68 6.408 4.032 10.512-.36 1.944-1.08 3.816-2.016 5.328-1.08 1.8-2.52 3.096-4.176 3.528-1.944.504-3.816-.072-5.4-2.16-.792-1.08-1.44-1.512-1.944-1.512-.72 0-1.656.504-2.664 1.368-.36.288-.648.576-.936.936-.432.504-.648 1.08-.648 1.584-.072.504.144 1.008.576 1.512q.324.432.864.864c4.104 3.24 12.096 2.88 21.024.936 7.776-1.656 16.056-4.608 23.256-7.56M220.32 343.384l-.072.216c-2.304 6.408-3.528 13.464-3.528 21.24 0 7.416 1.008 15.48 3.096 24.192 12.312 4.032 24.696 7.92 37.008 11.952 13.752-14.112 29.448-25.56 47.16-34.344v-38.808q-11.448-7.02-22.032-10.368c-7.416-2.376-14.472-3.456-21.312-3.24l-.432.072c-15.336 6.696-28.872 16.704-39.888 29.088M267.552 296.584c-26.856 8.496-49.968 25.632-66.096 48.096 4.536-2.088 9.576-3.672 14.544-4.392 11.736-13.32 26.352-24.048 42.84-31.176 2.232-4.536 5.328-8.856 8.712-12.528M352.944 314.296l-.432-.072c-6.84-.216-13.968.864-21.312 3.24q-10.584 3.348-22.032 10.368v38.808c17.64 8.784 33.408 20.232 47.16 34.344 12.312-4.032 24.696-7.92 37.008-11.952 2.088-8.712 3.096-16.776 3.096-24.192 0-7.776-1.224-14.832-3.528-21.24l-.072-.216c-11.016-12.384-24.552-22.392-39.888-29.088M411.696 344.68c-16.128-22.464-39.24-39.6-66.096-48.096 3.384 3.672 6.48 7.992 8.712 12.528 16.488 7.128 31.104 17.856 42.84 31.176 4.968.72 10.008 2.304 14.544 4.392M429.408 353.104a139.7 139.7 0 0 1 15.336 44.64c4.392-.576 8.64-1.584 12.816.504 4.176 1.944 5.112 6.408 4.392 10.656a14.3 14.3 0 0 1-1.944 5.328c-1.08 1.8-2.52 3.096-4.176 3.528-1.944.504-3.816-.072-5.4-2.16-.792-1.08-1.44-1.512-2.016-1.512-2.736-.072-4.68 3.384-3.312 5.76l.576.504c4.104 3.24 12.096 2.88 21.024.936 13.248-2.88 28.152-9.36 36.216-13.464v-47.592l36.504-24.84c-3.6-4.176-6.984-8.712-10.152-13.392a155 155 0 0 1-8.712-14.544zM92.592 307.456A155 155 0 0 1 83.88 322c-3.168 4.68-6.552 9.216-10.152 13.392l36.504 24.84v52.272a746 746 0 0 0 11.448-6.12c1.008-.576 2.088-1.224 3.312-1.872 7.2-4.248 17.28-10.152 25.416-6.264 4.104 1.944 5.112 6.408 4.392 10.656a14.3 14.3 0 0 1-1.944 5.328c-1.08 1.8-2.52 3.096-4.176 3.528-1.944.504-3.888-.072-5.472-2.16-.72-1.08-1.368-1.512-1.944-1.512-.72 0-1.584.504-2.664 1.368-.36.288-.648.576-.864.936-.432.504-.72 1.08-.72 1.584s.144 1.008.576 1.512c.216.288.576.576.936.864 4.104 3.24 12.096 2.88 20.952.936 2.376-.504 4.752-1.152 7.2-1.8v-1.8c.072-5.904.576-11.736 1.368-17.424l.36-2.52a139.7 139.7 0 0 1 15.336-44.64z" style="fill:#fff"/><path d="M176.112 207.664c.216-.504.36-.936.504-1.44 1.368-7.128 5.256-6.768 9.936-2.592.936-.432 1.944-.864 2.88-1.296l2.304-1.08 1.152 2.304 17.64 35.208c.576-2.664 1.152-4.608.72-6.336-24.048-87.192 0-16.272 7.776-6.264 1.944 2.52 2.448-18.504 8.352-15.84 3.24 1.44 12.24 18.432 13.104 16.344 1.44-3.456-4.68-23.76-3.744-31.824l-2.808-8.352-.792-2.376 2.448-.864c10.008-3.6 19.008-8.352 26.784-14.4 7.848-6.048 14.544-13.392 20.016-22.248l.72-1.224h46.944l.72 1.224c2.808 4.464 5.832 8.568 9.216 12.312 3.456 2.16 6.048 5.112 8.496 8.064.72.648 1.512 1.296 2.304 1.872 7.776 6.048 16.776 10.8 26.784 14.4l2.448.864c8.424-19.008 14.184-28.512-5.328 38.736-.936 3.096 13.104-22.608 16.128-22.752 5.04-.36.792 22.608 2.88 18.936 1.728-3.024-5.184 29.808 5.688-7.632 1.08-3.744 1.152 19.656 2.88 28.152l2.736-5.616c1.08-12.6 2.016-35.136 3.6-38.448 2.952-6.12 6.48 5.04 8.496 14.4l3.168-6.336 1.152-2.304 2.304 1.08c4.248 2.016 8.496 3.744 12.816 5.112-.072-1.224 0-2.16.288-2.664 5.904-10.296 20.736-3.096 27.576 6.984 6.048-.072 12.096-.792 18.288-2.232l1.44-.36 1.008 1.08 6.984 6.984c-.216-.504-.432-1.08-.72-1.656-5.4-11.376-12.888-20.88-20.952-29.88-24.552-27.36-38.088-28.152-53.784-29.16-11.088-.648-23.184-1.368-40.464-10.512-2.736-1.44-5.904-3.168-9.216-4.968-28.584-15.624-65.808-35.928-91.872-12.168-3.456 3.096-6.912 6.552-10.368 10.08-12.384 12.312-25.416 25.344-38.52 26.352-8.64.648-15.408-.648-21.6-1.728-12.888-2.376-23.112-4.248-44.928 15.624-4.68 4.248-10.152 7.272-15.696 10.368-3.744 2.088-7.488 4.176-10.872 6.624-10.512 7.416-16.2 13.608-19.368 19.944-1.872 3.744-2.88 7.56-3.528 11.808l17.784-17.712 1.008-1.08 1.44.36c10.08 2.376 20.016 2.88 29.808 1.584 5.328-.648 10.584-1.8 15.84-3.456" style="fill:#50b848"/><path d="M294.984 187.936c2.088 0 3.528.288 4.248.864s1.08 1.656 1.08 3.312v.648l-.504 17.784h2.088l2.232-6.192c3.384-9.072 5.4-14.04 5.832-14.76.36-.576.936-1.008 1.656-1.296.792-.288 1.872-.36 3.168-.36h12.528c2.304 0 3.816.072 4.464.36.648.216 1.008.72 1.008 1.368 0 .72-.504 1.872-1.512 3.384-.288.36-.504.72-.648.936l-11.592 18.72c-.072.144-.216.288-.288.432-.576 1.008-.864 1.872-.864 2.377 0 .72 2.304 5.976 6.912 15.623l.36.864q1.836 3.996 4.968 10.152c2.664 5.4 4.032 8.64 4.032 9.576 0 .576-.36 1.008-1.152 1.368-.792.288-1.872.504-3.24.504-.288 0-1.08-.072-2.52-.144s-2.736-.072-3.888-.072c-.36 0-1.152 0-2.232.072-1.152.072-2.088.144-2.808.144-3.384 0-5.4-.216-6.192-.648-.72-.432-1.512-1.872-2.448-4.32l-7.776-22.464h-1.8v22.248c0 2.232-.432 3.672-1.296 4.248s-2.52.936-4.824.936h-6.552c-4.104 0-6.48-.36-7.272-1.08S279 250.072 279 247.48c0-.36 0-1.224.072-2.736.072-7.632.144-15.192.144-22.68 0-8.496-.072-17.424-.144-26.568-.072-2.088-.072-3.312-.072-3.744 0-1.512.432-2.52 1.44-3.096.936-.504 3.096-.72 6.48-.72zM410.184 280.744l4.752-4.968.288-.288c1.152-1.152 2.376-1.656 3.528-1.512q1.728.216 4.104 2.592c.288.288 1.008 1.584 2.232 3.816 1.224 2.304 2.808 4.392 4.752 6.336 1.728 1.8 3.168 2.808 4.392 3.096 1.224.36 2.376 0 3.312-1.008 1.44-1.44 1.368-5.256-.36-11.448-.648-2.592-1.152-4.536-1.44-5.976-1.008-4.68-1.224-8.64-.576-11.88.648-3.168 2.232-5.976 4.68-8.496 4.392-4.32 9.432-5.76 15.264-4.392 5.832 1.44 12.312 5.832 19.584 13.032 4.464 4.464 7.056 7.416 7.704 8.928s.072 3.168-1.872 5.184l-4.752 4.68c-1.368 1.368-2.376 2.016-3.24 1.944q-1.188-.108-3.24-2.16c-.864-.792-1.872-2.088-3.168-3.96-1.224-1.8-2.304-3.096-3.096-3.96-1.44-1.368-2.808-2.304-3.96-2.592-1.224-.36-2.232-.072-3.096.792-1.08 1.152-.864 5.112.792 12.024.792 3.384 1.44 6.12 1.872 8.208q1.188 5.94.216 9.936c-.576 2.664-2.016 5.184-4.32 7.488-4.824 4.752-10.008 6.624-15.624 5.544-5.616-1.008-11.952-5.112-19.008-12.096-2.592-2.664-4.968-5.256-6.912-7.704-2.016-2.448-3.456-4.536-4.248-6.048-.432-.936-.648-1.728-.576-2.376.072-.576.576-1.368 1.512-2.232zM181.368 309.904c-.288.216-.576.648-1.08 1.224s-.936 1.008-1.296 1.368c-1.44 1.44-2.736 2.088-3.96 1.944-1.152-.072-3.168-1.512-5.832-4.248l-.648-.648c-2.016-1.944-5.328-5.328-9.936-10.08s-8.208-8.496-10.944-11.232c-1.296-1.296-3.528-3.456-6.768-6.624s-5.832-5.688-7.704-7.56c-2.016-2.016-2.952-3.456-3.024-4.32-.072-.936.504-2.088 1.8-3.312.072-.072.288-.288.648-.576 1.296-1.224 2.52-2.52 3.744-3.744.864-.792 1.8-1.8 2.952-3.024 1.08-1.152 1.8-1.944 2.088-2.233a11 11 0 0 1 1.152-1.008c.36-.288.648-.432.864-.504.576-.216 1.152-.144 1.728.144s1.368.936 2.448 2.016l.936.936c2.592 2.736 5.112 5.328 7.632 7.776 9.072 9.143 14.832 14.832 17.352 17.208s4.104 3.744 4.752 4.176c.936.576 1.872.72 2.664.504.864-.288 1.872-.936 3.096-2.088.288-.36.864-.936 1.584-1.872q1.188-1.404 1.944-2.16c1.656-1.584 3.024-2.448 4.248-2.592 1.152-.072 2.52.648 4.032 2.232l3.456 3.384c1.152 1.224 1.656 2.52 1.296 4.032-.288 1.44-1.368 3.096-3.168 4.968-.648.576-1.368 1.296-2.304 2.16-.864.864-1.44 1.44-1.728 1.656z" style="fill:#fff"/><path d="M237.168 537.64a8 8 0 0 1-1.368 1.8v-.072c-.648.648-1.44 1.08-2.304 1.44-.72.216-1.512.36-2.376.36s-1.656-.072-2.376-.36c-.864-.288-1.656-.792-2.376-1.44-.504-.576-.936-1.152-1.224-1.8h-.576a5.9 5.9 0 0 1-2.88-.72c-.72-.36-1.368-.936-1.944-1.584-.504-.648-.936-1.296-1.224-2.016a6.3 6.3 0 0 1-.504-2.52c0-1.008.216-1.872.576-2.736.144-.288.288-.576.504-.864-.144-.288-.36-.576-.504-.864-.36-.864-.576-1.728-.576-2.736 0-.864.144-1.656.432-2.448s.72-1.44 1.296-2.088v-.072c.648-.648 1.296-1.224 2.016-1.584a6.2 6.2 0 0 1 2.808-.648h.576c.36-.648.792-1.296 1.368-1.8.648-.576 1.44-1.08 2.304-1.368.72-.288 1.512-.36 2.376-.36.792 0 1.584.072 2.304.36.936.288 1.656.72 2.376 1.368.504.576 1.008 1.152 1.296 1.8h.576c.936 0 1.944.216 2.808.72.72.36 1.44.935 2.016 1.584l-.072-.072a7.2 7.2 0 0 1 1.296 2.088 6.6 6.6 0 0 1 .504 2.592c0 .936-.144 1.872-.576 2.736-.144.288-.288.576-.504.792.216.288.36.576.504.864.432.864.576 1.8.576 2.736 0 .864-.144 1.728-.432 2.52a7.2 7.2 0 0 1-1.296 2.088l-.072.072c-.504.648-1.224 1.152-1.944 1.512a5.8 5.8 0 0 1-2.808.72zM292.032 515.104c-.072.144-.144.36-.216.576-.432 1.08-.72 2.592-.936 4.392a61 61 0 0 0-.36 6.84c0 2.376.144 4.392.36 6.048.216 1.512.504 2.808.864 3.816l.216.432c.072-.144.144-.36.216-.576.36-1.08.72-2.52.936-4.248.216-1.8.288-3.96.288-6.48 0-2.448-.072-4.536-.288-6.264-.216-1.656-.504-2.952-.936-4.104-.072-.144-.144-.288-.144-.432m-13.248 25.704c-.576 1.224-1.224 2.232-2.088 3.168-1.152 1.296-2.448 2.232-3.96 2.88-1.44.576-3.024.936-4.752.936-1.296 0-2.736-.216-4.248-.648-1.368-.36-2.88-.936-4.464-1.656-.72-.288.288.144-.432-.216 0 0-.144-.072-.36-.144l-1.512-.648a4.16 4.16 0 0 1-1.296 1.656l-.144.144a6.1 6.1 0 0 1-1.8.936 6.1 6.1 0 0 1-1.656.216c-1.224 0-2.304-.36-3.384-1.08a7 7 0 0 1-2.016-2.304 7.5 7.5 0 0 1-.864-2.52c-.216-.792-.288-1.584-.288-2.448 0-1.368.216-2.736.504-4.032.36-1.368.792-2.592 1.44-3.816.72-1.224 1.44-2.304 2.376-3.312.288-.288.576-.648.864-.936a9.4 9.4 0 0 1-2.664-1.872c-1.728-1.8-2.664-4.032-2.664-6.696 0-2.016.504-3.96 1.44-5.76.864-1.656 2.088-3.168 3.744-4.536 1.656-1.224 3.384-2.232 5.328-2.88 1.944-.576 3.96-.864 6.12-.864 2.304 0 4.392.288 6.336.864a16.5 16.5 0 0 1 5.472 2.808l-.072-.072c1.728 1.368 3.024 2.88 3.96 4.608.072.144.144.36.216.504a1 1 0 0 0 .216-.288l-.072.072c.864-1.296 1.728-2.52 2.736-3.528 1.008-1.079 2.16-1.944 3.384-2.736 1.224-.72 2.52-1.296 3.888-1.656s2.808-.576 4.248-.576c1.152 0 2.376.144 3.528.432s2.232.72 3.312 1.224c1.008.576 2.016 1.224 2.952 2.016h.072c.864.72 1.728 1.584 2.52 2.52h-.072c.792.936 1.44 1.944 2.016 3.096.144-.288.288-.576.504-.864v.072c.792-1.296 1.656-2.52 2.664-3.528 1.008-1.079 2.16-1.944 3.384-2.736 1.224-.72 2.52-1.296 3.888-1.656s2.808-.576 4.248-.576c1.224 0 2.376.144 3.528.432s2.232.72 3.312 1.224c1.08.576 2.016 1.224 3.024 2.016.864.72 1.728 1.584 2.52 2.52h-.072c.792.936 1.512 1.944 2.088 3.096.144-.288.288-.576.504-.864v.072c.792-1.296 1.656-2.52 2.664-3.528 1.008-1.079 2.16-1.944 3.384-2.736 1.224-.72 2.52-1.296 3.888-1.656s2.808-.576 4.248-.576c1.224 0 2.376.144 3.528.432s2.232.72 3.312 1.224c1.08.576 2.016 1.224 3.024 2.016.864.72 1.728 1.584 2.52 2.52h-.072a17.8 17.8 0 0 1 2.232 3.312c.576 1.152 1.152 2.376 1.512 3.672.432 1.368.792 2.664.936 4.032.216 1.368.36 2.736.36 4.176 0 1.08-.072 2.232-.216 3.384-.144 1.08-.288 2.16-.576 3.24s-.576 2.088-1.008 3.096a21 21 0 0 1-1.296 2.88v-.072c-.792 1.512-1.728 2.808-2.664 3.96q-1.62 1.836-3.456 3.024a15.3 15.3 0 0 1-4.104 1.944 16.4 16.4 0 0 1-4.536.648q-1.404 0-2.808-.216c-.936-.216-1.872-.432-2.736-.792s-1.656-.72-2.52-1.224c-.792-.504-1.584-1.08-2.232-1.728h-.072a20.6 20.6 0 0 1-3.024-3.6 11.4 11.4 0 0 1-1.08-1.728c-.792 1.368-1.584 2.592-2.52 3.672q-1.62 1.836-3.456 3.024a14.7 14.7 0 0 1-4.176 1.944c-1.44.432-2.952.648-4.464.648q-1.404 0-2.808-.216c-.936-.216-1.872-.432-2.736-.792s-1.656-.72-2.52-1.224c-.792-.504-1.584-1.08-2.232-1.728h-.072a20.6 20.6 0 0 1-3.024-3.6c-.432-.576-.792-1.152-1.008-1.728-.792 1.368-1.584 2.592-2.52 3.672q-1.62 1.836-3.456 3.024a14.7 14.7 0 0 1-4.176 1.944c-1.44.432-2.952.648-4.464.648q-1.404 0-2.808-.216c-.936-.216-1.872-.432-2.736-.792s-1.656-.72-2.52-1.224c-.792-.504-1.584-1.08-2.232-1.728h-.072a18.3 18.3 0 0 1-2.664-3.096m42.264-25.704c-.072.144-.144.36-.216.576-.432 1.08-.72 2.592-.936 4.392a61 61 0 0 0-.36 6.84c0 2.376.144 4.392.36 6.048.216 1.512.504 2.808.864 3.816l.216.432c.072-.144.144-.36.216-.576.36-1.08.72-2.52.936-4.248.216-1.8.288-3.96.288-6.48 0-2.448-.072-4.536-.288-6.264-.216-1.656-.504-2.952-.936-4.104-.072-.144-.144-.288-.144-.432m29.088 0c-.072.144-.143.36-.216.576-.432 1.08-.72 2.592-.936 4.392a61 61 0 0 0-.36 6.84c0 2.376.144 4.392.36 6.048.216 1.512.504 2.808.864 3.816l.216.432c.072-.144.144-.36.216-.576.36-1.08.72-2.52.936-4.248.216-1.8.36-3.96.36-6.48 0-2.448-.144-4.536-.36-6.264-.216-1.656-.504-2.952-.936-4.104-.072-.144-.072-.288-.144-.432" style="fill:#00442b"/><path d="m251.64 537.208.504-.072q.648-2.16 1.944-3.24c.864-.648 1.944-1.008 3.312-1.008.72 0 1.512.072 2.376.288.864.288 2.016.72 3.528 1.368.288.144.648.288 1.08.504 2.664 1.152 4.536 1.728 5.544 1.728q1.405 0 2.376-1.08c.648-.72 1.008-1.584 1.008-2.736 0-1.08-.288-1.872-.72-2.52-.504-.648-1.152-.936-1.944-.936q-.432 0-1.08.216c-.504.144-.792.288-1.008.288-.288 0-.432-.072-.576-.216-.144-.072-.216-.288-.216-.432 0-.432.216-.72.648-.936.36-.288.864-.36 1.512-.36 1.585 0 2.952.648 3.96 1.944 1.08 1.296 1.584 2.952 1.584 5.112 0 2.376-.72 4.392-2.088 5.904s-3.168 2.304-5.4 2.304q-2.7 0-6.912-1.944c-.288-.144-.576-.216-.792-.36-2.16-.936-3.672-1.584-4.608-1.872-.936-.36-1.656-.504-2.16-.504-.648 0-1.152.144-1.512.504-.36.288-.576.792-.576 1.296 0 .36.288.648.792.864.576.288.792.576.792.864s-.072.432-.216.576a1.2 1.2 0 0 1-.72.216q-.972 0-1.512-1.08c-.36-.648-.576-1.656-.576-2.808 0-2.088.504-3.96 1.44-5.76a12.36 12.36 0 0 1 4.032-4.392c.576-.36 1.728-1.08 3.672-2.16 1.872-1.08 3.24-2.016 4.248-2.952 1.08-1.008 1.872-2.088 2.376-3.168.432-1.08.72-2.304.72-3.744 0-2.088-.576-3.816-1.656-5.039-1.08-1.224-2.592-1.8-4.464-1.8-1.8 0-3.456.576-4.896 1.728-1.368 1.152-2.088 2.448-2.088 3.888 0 .576.144 1.08.36 1.44q.432.648 1.08.648c.216 0 .36-.072.504-.216a.62.62 0 0 0 .288-.504c0-.216-.144-.432-.288-.648-.216-.216-.36-.36-.36-.504 0-.072.072-.144.144-.216a.55.55 0 0 1 .36-.144q1.296 0 2.376 1.296c.792.792 1.152 1.728 1.152 2.808s-.36 1.944-1.224 2.664c-.792.72-1.728 1.152-2.952 1.152-1.44 0-2.664-.504-3.6-1.44-.864-.936-1.368-2.16-1.368-3.6 0-2.664 1.224-4.896 3.528-6.768q3.564-2.808 8.64-2.808c3.672 0 6.696.864 9.072 2.736 2.376 1.8 3.528 4.104 3.528 6.84 0 2.664-.864 4.68-2.592 6.264q-2.484 2.268-9.288 3.888c-4.176 1.008-7.056 2.16-8.496 3.384-1.512 1.223-2.304 2.951-2.592 5.255M292.032 509.848c-1.944 0-3.384 1.44-4.464 4.32q-1.512 4.428-1.512 12.744 0 7.452 1.512 11.448c1.08 2.664 2.52 4.032 4.392 4.032 1.944 0 3.384-1.44 4.392-4.248s1.512-6.912 1.512-12.24c0-5.112-.504-9.144-1.512-11.88-1.008-2.808-2.448-4.176-4.32-4.176m-13.176 16.776c0-2.16.216-4.248.72-6.12.576-1.944 1.296-3.672 2.304-5.328 1.296-2.088 2.808-3.672 4.608-4.752a11.6 11.6 0 0 1 5.832-1.584c1.656 0 3.312.432 4.824 1.224 1.584.792 2.88 1.872 4.032 3.312 1.296 1.584 2.304 3.456 3.024 5.544.648 2.088 1.008 4.392 1.008 6.84 0 1.944-.216 3.816-.648 5.544a18.3 18.3 0 0 1-1.944 4.896c-1.224 2.376-2.808 4.176-4.608 5.4-1.872 1.152-3.96 1.8-6.192 1.8-1.44 0-2.736-.216-3.96-.72-1.224-.432-2.376-1.152-3.384-2.088-1.8-1.656-3.168-3.744-4.176-6.12-.936-2.376-1.44-4.968-1.44-7.848M321.048 509.848c-1.944 0-3.384 1.44-4.392 4.32-1.08 2.952-1.585 7.2-1.585 12.744 0 4.968.504 8.784 1.585 11.448 1.008 2.664 2.448 4.032 4.32 4.032 1.944 0 3.384-1.44 4.392-4.248s1.512-6.912 1.512-12.24c0-5.112-.504-9.144-1.512-11.88-1.008-2.808-2.448-4.176-4.32-4.176m-13.176 16.776c0-2.16.288-4.248.792-6.12.504-1.944 1.224-3.672 2.232-5.328 1.296-2.088 2.808-3.672 4.608-4.752a11.6 11.6 0 0 1 5.832-1.584c1.656 0 3.312.432 4.824 1.224 1.584.792 2.88 1.872 4.032 3.312 1.296 1.584 2.304 3.456 3.024 5.544.648 2.088 1.008 4.392 1.008 6.84 0 1.944-.216 3.816-.648 5.544-.432 1.8-1.08 3.384-1.872 4.896-1.296 2.376-2.88 4.176-4.68 5.4-1.872 1.152-3.96 1.8-6.192 1.8-1.368 0-2.736-.216-3.96-.72-1.224-.432-2.376-1.152-3.384-2.088-1.8-1.656-3.168-3.744-4.176-6.12-.936-2.376-1.44-4.968-1.44-7.848M350.136 509.848c-1.944 0-3.384 1.44-4.392 4.32-1.08 2.952-1.584 7.2-1.584 12.744 0 4.968.504 8.784 1.584 11.448 1.008 2.664 2.448 4.032 4.32 4.032 1.944 0 3.384-1.44 4.392-4.248s1.584-6.912 1.584-12.24c0-5.112-.576-9.144-1.584-11.88-1.008-2.808-2.448-4.176-4.32-4.176m-13.176 16.776c0-2.16.288-4.248.792-6.12.504-1.944 1.224-3.672 2.232-5.328 1.296-2.088 2.808-3.672 4.608-4.752a11.6 11.6 0 0 1 5.832-1.584c1.656 0 3.312.432 4.824 1.224 1.584.792 2.88 1.872 4.032 3.312 1.296 1.584 2.304 3.456 3.024 5.544.648 2.088 1.008 4.392 1.008 6.84 0 1.944-.216 3.816-.648 5.544-.432 1.8-1.08 3.384-1.872 4.896-1.296 2.376-2.88 4.176-4.68 5.4-1.872 1.152-3.888 1.8-6.192 1.8-1.368 0-2.736-.216-3.96-.72-1.224-.432-2.376-1.152-3.384-2.088-1.8-1.656-3.168-3.744-4.176-6.12-.936-2.376-1.44-4.968-1.44-7.848M231.48 527.776v.216c0 1.152.288 2.448.936 3.888s.936 2.376.936 2.736c0 .648-.144 1.152-.576 1.512-.432.432-1.008.576-1.656.576-.72 0-1.224-.144-1.584-.504-.432-.432-.576-.936-.576-1.584 0-.432.288-1.296.864-2.664.648-1.368.936-2.664.936-3.888v-.36c-.648.36-1.152.792-1.656 1.152-.432.504-.936 1.008-1.368 1.656a1 1 0 0 0-.216.288c-1.08 1.584-2.088 2.304-2.952 2.304-.504 0-1.008-.216-1.44-.72s-.648-1.08-.648-1.656.216-1.08.72-1.512c.432-.432 1.008-.648 1.728-.72h.504c2.16-.144 3.744-.648 4.968-1.44-1.152-.72-2.808-1.152-4.824-1.296H225c-.72-.072-1.368-.36-1.8-.72-.504-.432-.72-.936-.72-1.512s.216-1.152.648-1.656.864-.72 1.44-.72c.864 0 1.872.792 2.952 2.376.072.072.144.144.144.216.432.576.864 1.08 1.368 1.512s1.08.864 1.8 1.296v-.144c0-1.224-.288-2.592-.936-4.032-.648-1.368-.936-2.304-.936-2.664 0-.648.144-1.152.576-1.584.432-.36.936-.504 1.656-.504.648 0 1.224.144 1.584.504.432.36.576.936.576 1.584 0 .36-.288 1.296-.864 2.664-.648 1.368-.936 2.592-.936 3.744v.504c.504-.288 1.08-.72 1.584-1.152.432-.432.936-1.08 1.512-1.728 0-.144.144-.216.216-.432 1.08-1.44 2.016-2.16 2.88-2.16.504 0 1.008.216 1.44.792.432.504.648 1.008.648 1.656 0 .576-.216 1.08-.72 1.44-.432.504-1.008.72-1.728.792h-.504c-2.16.144-3.816.576-4.968 1.368 1.152.72 2.664 1.152 4.608 1.296h.648c.864.072 1.512.36 2.016.72q.648.648.648 1.512c0 .648-.216 1.152-.648 1.728-.432.504-.936.72-1.44.72-.936 0-1.944-.792-2.952-2.304-.072-.144-.144-.216-.144-.288a19 19 0 0 0-1.512-1.728 8.2 8.2 0 0 0-1.656-1.08" style="fill:#fff"/><path d="M375.984 537.64a8 8 0 0 0 1.368 1.8v-.072c.648.648 1.44 1.08 2.304 1.44.72.216 1.512.36 2.376.36s1.656-.072 2.376-.36c.864-.288 1.656-.792 2.376-1.44.504-.576.936-1.152 1.224-1.8h.576a5.9 5.9 0 0 0 2.88-.72c.72-.36 1.368-.936 1.944-1.584.504-.648.936-1.296 1.224-2.016a6.3 6.3 0 0 0 .504-2.52c0-1.008-.216-1.872-.576-2.736-.144-.288-.288-.576-.504-.864.144-.288.36-.576.504-.864.36-.864.576-1.728.576-2.736 0-.864-.143-1.656-.432-2.448-.288-.792-.72-1.44-1.296-2.088v-.072c-.648-.648-1.296-1.224-2.016-1.584a6.2 6.2 0 0 0-2.808-.648h-.576c-.36-.648-.792-1.296-1.368-1.8-.648-.576-1.44-1.08-2.304-1.368-.72-.288-1.512-.36-2.376-.36-.792 0-1.584.072-2.304.36-.936.288-1.656.72-2.376 1.368-.504.576-1.008 1.152-1.296 1.8h-.576c-.936 0-1.944.216-2.808.72-.72.36-1.44.935-2.016 1.584l.072-.072a7.2 7.2 0 0 0-1.296 2.088 6.6 6.6 0 0 0-.504 2.592c0 .936.144 1.872.576 2.736.144.288.288.576.504.792-.216.288-.36.576-.504.864-.432.864-.576 1.8-.576 2.736 0 .864.144 1.728.432 2.52.288.72.72 1.44 1.296 2.088l.072.072c.504.648 1.224 1.152 1.944 1.512.936.504 1.872.72 2.808.72z" style="fill:#00442b"/><path d="M381.672 527.776v.216c0 1.152-.288 2.448-.936 3.888s-.936 2.376-.936 2.736c0 .648.144 1.152.576 1.512.432.432 1.008.576 1.656.576.72 0 1.224-.144 1.584-.504.432-.432.576-.936.576-1.584 0-.432-.288-1.296-.864-2.664-.648-1.368-.936-2.664-.936-3.888v-.36c.648.36 1.152.792 1.656 1.152.432.504.936 1.008 1.368 1.656a1 1 0 0 1 .216.288c1.08 1.584 2.088 2.304 2.952 2.304.504 0 1.008-.216 1.44-.72s.648-1.08.648-1.656-.216-1.08-.72-1.512c-.432-.432-1.008-.648-1.728-.72h-.504c-2.16-.144-3.744-.648-4.968-1.44 1.152-.72 2.808-1.152 4.824-1.296h.576c.72-.072 1.368-.36 1.8-.72.504-.432.72-.936.72-1.512s-.216-1.152-.648-1.656-.864-.72-1.44-.72c-.864 0-1.872.792-2.952 2.376-.072.072-.144.144-.144.216-.432.576-.864 1.08-1.368 1.512s-1.08.864-1.8 1.296v-.144c0-1.224.288-2.592.936-4.032.648-1.368.936-2.304.936-2.664 0-.648-.144-1.152-.576-1.584-.432-.36-.936-.504-1.656-.504-.648 0-1.224.144-1.584.504-.432.36-.576.936-.576 1.584 0 .36.288 1.296.864 2.664.648 1.368.936 2.592.936 3.744v.504c-.504-.288-1.08-.72-1.584-1.152-.432-.432-.936-1.08-1.512-1.728 0-.144-.144-.216-.216-.432-1.08-1.44-2.016-2.16-2.88-2.16-.504 0-1.008.216-1.44.792-.432.504-.648 1.008-.648 1.656 0 .576.216 1.08.72 1.44.432.504 1.008.72 1.728.792h.504c2.16.144 3.816.576 4.968 1.368-1.152.72-2.664 1.152-4.608 1.296h-.648c-.864.072-1.512.36-2.016.72q-.648.648-.648 1.512c0 .648.216 1.152.648 1.728.432.504.936.72 1.44.72.936 0 1.944-.792 2.952-2.304.072-.144.144-.216.144-.288a19 19 0 0 1 1.512-1.728 8.2 8.2 0 0 1 1.656-1.08" style="fill:#fff"/><path d="M110.232 442.096v21.312c3.024-1.728 6.12-3.744 9.504-6.192l4.32-3.168-.144 5.4c-.144 2.808.288 5.112 1.08 6.984 1.728 3.96 5.616 5.976 10.656 6.768 5.616.792 12.456.072 19.512-1.512 14.616-3.312 29.592-10.152 35.496-14.472l4.392-3.168-.216 5.4c-.072 2.808.288 5.112 1.152 6.984 1.728 3.96 5.616 5.976 10.656 6.768 5.616.792 12.456.072 19.512-1.512 14.544-3.312 29.592-10.152 35.496-14.472l4.392-3.168-.216 5.4c-.072 2.808.288 5.112 1.08 6.984 1.8 3.96 5.688 5.976 10.728 6.768 5.544.792 12.456.072 19.512-1.512 14.472-3.312 29.52-10.152 35.424-14.472l4.32-3.168-.144 5.4c-.144 2.808.288 5.112 1.08 6.984 1.728 3.96 5.688 5.976 10.728 6.768 5.544.792 12.456.072 19.44-1.512 14.616-3.312 29.592-10.152 35.496-14.472l4.392-3.168-.216 5.4c-.072 2.808.288 5.112 1.152 6.984 1.728 3.96 5.616 5.976 10.656 6.768 5.616.792 12.456.072 19.512-1.512 14.544-3.312 29.592-10.152 35.496-14.472l4.392-3.168-.216 5.4c-.072 2.808.288 5.112 1.08 6.984 1.8 3.96 5.688 5.976 10.728 6.768 3.672.504 7.92.432 12.456-.216v-22.032c-4.752.576-9.216.72-13.248.144-6.768-1.008-12.096-4.032-14.688-9.864q-.972-2.052-1.296-4.536c-7.704 4.392-20.808 9.936-33.552 12.816-7.632 1.728-15.192 2.52-21.384 1.584-6.84-1.008-12.168-4.032-14.76-9.864q-.864-2.052-1.296-4.536c-7.704 4.392-20.808 9.936-33.552 12.816-7.632 1.728-15.12 2.52-21.384 1.584-6.768-1.008-12.168-4.032-14.76-9.864q-.864-2.052-1.296-4.536c-7.632 4.392-20.808 9.936-33.408 12.816-7.632 1.728-15.192 2.52-21.456 1.584-6.768-1.008-12.096-4.032-14.688-9.864q-.972-2.052-1.296-4.536c-7.704 4.392-20.808 9.936-33.552 12.816-7.632 1.728-15.192 2.52-21.384 1.584-6.84-1.008-12.168-4.032-14.76-9.864q-.864-2.052-1.296-4.536c-7.704 4.392-20.808 9.936-33.552 12.816-7.632 1.728-15.12 2.52-21.384 1.584-6.768-1.008-12.168-4.032-14.76-9.864a15.9 15.9 0 0 1-1.224-4.32c-3.024 2.016-5.904 3.744-8.712 5.184" style="fill:#50b848"/><path d="M110.232 418.336v17.784c3.024-1.728 6.12-3.744 9.504-6.192l4.32-3.168-.144 5.4c-.144 2.808.288 5.112 1.08 6.912 1.728 3.96 5.616 6.048 10.656 6.84 5.616.792 12.456.072 19.512-1.512 14.616-3.312 29.592-10.152 35.496-14.472l4.392-3.168-.216 5.4c-.072 2.808.288 5.112 1.152 6.912 1.728 3.96 5.616 6.048 10.656 6.84 5.616.792 12.456.072 19.512-1.512 14.544-3.312 29.592-10.152 35.496-14.472l4.392-3.168-.216 5.4q-.108 4.212 1.08 6.912c1.8 3.96 5.688 6.048 10.728 6.84 5.544.792 12.456.072 19.512-1.512 14.472-3.312 29.52-10.152 35.424-14.472l4.32-3.168-.144 5.4c-.144 2.808.288 5.112 1.08 6.912 1.728 3.96 5.688 6.048 10.728 6.84 5.544.792 12.456.072 19.44-1.512 14.616-3.312 29.592-10.152 35.496-14.472l4.392-3.168-.216 5.4c-.072 2.808.288 5.112 1.152 6.912 1.728 3.96 5.616 6.048 10.656 6.84 5.616.792 12.456.072 19.512-1.512 14.544-3.312 29.592-10.152 35.496-14.472l4.392-3.168-.216 5.4q-.108 4.212 1.08 6.912c1.8 3.96 5.688 6.048 10.728 6.84 3.672.504 7.92.36 12.456-.216v-32.04c-8.712 4.248-22.608 10.08-35.136 12.744-10.296 2.304-19.8 2.448-25.344-1.944a9 9 0 0 1-1.656-1.656c-1.368-1.584-1.872-3.312-1.872-4.968.072-1.728.72-3.312 1.872-4.68.432-.648 1.008-1.224 1.656-1.728 2.016-1.656 3.96-2.664 6.048-2.592 2.232 0 4.248 1.08 6.12 3.672.072.072-.288.216-.072.216.216-.072.576-.576 1.008-1.224a9.9 9.9 0 0 0 1.296-3.456c.36-2.16.072-4.32-1.512-5.112-5.616-2.664-14.328 2.448-20.52 6.048-1.296.792-2.448 1.44-3.456 2.016-7.128 3.888-24.84 12.024-40.392 15.408-10.224 2.304-19.8 2.448-25.344-1.944-.648-.504-1.152-1.08-1.656-1.656-1.296-1.584-1.872-3.312-1.8-4.968 0-1.728.648-3.312 1.8-4.68.432-.648 1.008-1.224 1.656-1.728 2.016-1.656 3.96-2.664 6.048-2.592 2.232 0 4.248 1.08 6.12 3.672.144.072-.216.216-.072.216.216-.072.648-.576 1.008-1.224a9.9 9.9 0 0 0 1.296-3.456c.36-2.16.072-4.32-1.512-5.112-5.616-2.664-14.328 2.448-20.52 6.048a47 47 0 0 1-3.456 2.016c-7.128 3.888-24.84 12.024-40.32 15.408-10.224 2.304-19.728 2.448-25.344-1.944-.648-.504-1.152-1.08-1.656-1.656-1.296-1.584-1.872-3.312-1.8-4.968 0-1.728.648-3.312 1.8-4.68q.648-.972 1.728-1.728c1.944-1.656 3.96-2.664 5.976-2.592 2.232 0 4.248 1.08 6.192 3.672.072.072-.288.216-.144.216.216-.072.648-.576 1.008-1.224.648-.936 1.08-2.16 1.296-3.456.36-2.16.072-4.32-1.512-5.112-5.616-2.664-14.328 2.448-20.52 6.048a47 47 0 0 1-3.456 2.016c-7.128 3.888-24.84 12.024-40.32 15.408-10.296 2.304-19.8 2.448-25.344-1.944a12.6 12.6 0 0 1-1.728-1.656c-1.296-1.584-1.872-3.312-1.8-4.968.072-1.728.72-3.312 1.8-4.68a9.8 9.8 0 0 1 1.728-1.728c1.944-1.656 3.96-2.664 5.976-2.592 2.232 0 4.32 1.08 6.192 3.672.072.072-.288.216-.144.216.288-.072.648-.576 1.08-1.224.576-.936 1.008-2.16 1.224-3.456.36-2.16.072-4.32-1.44-5.112-5.688-2.664-14.328 2.448-20.592 6.048a47 47 0 0 1-3.456 2.016c-7.128 3.888-24.768 12.024-40.32 15.408-10.296 2.304-19.8 2.448-25.344-1.944a12.6 12.6 0 0 1-1.728-1.656c-1.296-1.584-1.872-3.312-1.8-4.968.072-1.728.72-3.312 1.8-4.68a9.8 9.8 0 0 1 1.728-1.728c2.016-1.656 3.96-2.664 6.048-2.592 2.16 0 4.248 1.08 6.12 3.672.072.072-.288.216-.144.216.288-.072.648-.576 1.08-1.224.576-.936 1.008-2.16 1.224-3.456.36-2.16.072-4.32-1.44-5.112-5.688-2.664-14.328 2.448-20.592 6.048-1.224.792-2.376 1.44-3.384 2.016-6.12 3.312-10.368 5.616-13.968 7.344" style="fill:#50b848"/><path d="M300.024 664.432c-1.368 0-2.376-.216-3.024-.576s-.936-.936-.936-1.728c0-.864.72-1.512 2.232-1.944.432-.144.72-.288.936-.36a2.86 2.86 0 0 0 1.152-.864c.216-.36.288-.864.288-1.512v-24.192c0-.72-.072-1.224-.288-1.584a2.86 2.86 0 0 0-1.152-.864c-.216-.072-.504-.144-.936-.288-1.512-.504-2.232-1.152-2.232-2.016 0-.792.288-1.368.936-1.728s1.656-.504 3.024-.504H313.2c1.368 0 2.304.144 2.952.504s.936.936.936 1.728c0 .864-.72 1.512-2.16 2.016-.432.144-.792.216-.936.288-.576.216-.936.504-1.152.864s-.36.864-.36 1.584v24.192c0 .648.144 1.152.36 1.512s.576.648 1.152.864c.143.072.504.216.936.36q2.16.648 2.16 1.944c0 .792-.288 1.368-.936 1.728s-1.584.576-2.952.576zM415.44 619.216c.792.864 1.512 1.368 2.088 1.368.648 0 1.512-.432 2.52-1.296 3.528-2.952 5.616-6.12 6.12-9.432.576-3.312-.432-6.552-2.952-9.576-2.736-3.24-6.048-5.04-9.864-5.4-3.816-.432-7.272.648-10.296 3.168-1.08.936-1.8 1.8-1.944 2.592-.216.72.072 1.512.72 2.376zm-8.136 8.568-15.552-18.504c-.432-.504-.864-.864-1.224-1.008-.432-.144-.864-.072-1.44.072-.216.072-.504.216-.864.36-1.512.648-2.52.576-3.024-.072-.504-.576-.648-1.224-.36-1.944.216-.648.864-1.44 1.944-2.304l7.128-5.976c3.528-2.952 6.84-5.328 9.936-7.056 3.168-1.656 6.264-2.88 9.288-3.6 4.68-1.008 8.928-1.152 12.6-.288 3.744.864 6.696 2.664 9 5.4 3.312 3.888 4.104 8.424 2.376 13.536-1.656 5.112-5.76 10.296-12.168 15.696l-13.68 11.448c-1.008.936-1.944 1.44-2.664 1.584-.72.072-1.296-.144-1.8-.72-.576-.648-.432-1.656.432-2.952.216-.36.432-.648.504-.864.288-.504.432-.936.36-1.368s-.36-.864-.792-1.44M352.08 640.744c-.072.216-.072.432-.072.576 0 .216.072.288.072.432.144.432.504.648 1.152.648s1.8-.288 3.456-.792c2.088-.72 3.672-1.368 4.824-1.944 1.152-.648 1.584-1.152 1.512-1.584-.072-.144-.144-.288-.288-.504-.072-.144-.288-.36-.432-.576l-6.768-7.416c-.144-.216-.36-.432-.576-.504-.216-.144-.36-.144-.504-.144-.216.072-.36.216-.504.432a1.45 1.45 0 0 0-.216.792zm-10.872 21.96c-.864.288-1.584.36-2.16.144-.576-.144-1.008-.576-1.224-1.224-.288-1.008.216-1.944 1.656-2.88.36-.216.648-.36.864-.504.576-.432 1.008-1.008 1.368-1.8.36-.72.72-2.016 1.152-3.816l6.336-30.816c.072-.144.072-.36.144-.576q.216-1.296 2.16-1.944l5.4-1.728c.864-.288 1.44-.36 1.8-.288.288.072.792.504 1.44 1.296l20.088 21.888c.072.072.144.216.288.36 1.872 2.016 3.6 3.096 5.256 3.168h.504c1.584 0 2.52.432 2.808 1.368.216.576.072 1.08-.216 1.512-.36.432-1.08.792-2.088 1.08l-13.968 4.536c-1.296.432-2.304.576-2.88.432-.576-.072-1.008-.504-1.224-1.224-.144-.36-.072-.792.072-1.152q.216-.54.864-1.08c.144-.072.36-.216.576-.36.72-.504 1.008-1.08.792-1.656-.072-.36-.432-.864-1.008-1.44-.576-.648-1.08-1.08-1.656-1.44-.72-.432-1.512-.648-2.232-.648-.792 0-1.8.144-3.024.576l-7.416 2.376a15.7 15.7 0 0 0-2.88 1.224c-.792.432-1.368.936-1.728 1.368-.432.648-.72 1.512-.936 2.52-.216 1.08-.216 1.872 0 2.52.144.432.648.648 1.656.648a.22.22 0 0 0 .144.072c.792 0 1.44.144 1.8.288.432.216.648.504.792.936.216.576.072 1.08-.288 1.512-.36.504-.936.864-1.8 1.152zM245.376 646.504c-.36 1.08-.36 1.8 0 2.304.36.432 1.296.936 2.736 1.44 3.312 1.008 6.048 1.224 8.352.504 2.232-.72 3.744-2.304 4.464-4.68.792-2.448.576-4.68-.72-6.624-1.296-2.016-3.456-3.528-6.48-4.464-1.584-.576-2.808-.72-3.456-.576q-1.08.216-1.512 1.728zm5.904-18.288q-.324 1.188 0 1.728c.216.36.792.72 1.8 1.008 1.872.648 3.528.72 4.824.288 1.296-.36 2.232-1.296 2.664-2.592.432-1.512.36-2.808-.288-4.032-.648-1.152-1.728-2.016-3.312-2.52-1.08-.36-2.016-.504-2.592-.36-.648.144-1.152.576-1.368 1.296zm-20.088 21.312c-1.296-.432-2.232-.864-2.736-1.44-.432-.576-.576-1.152-.36-1.944.288-.792 1.224-1.152 2.808-1.152h.936c.576-.072 1.008-.216 1.368-.504.288-.288.576-.72.792-1.368l7.416-23.04c.216-.648.288-1.152.216-1.584-.144-.432-.432-.792-.864-1.152-.144-.144-.36-.288-.792-.576q-1.944-1.404-1.512-2.592c.216-.72.72-1.224 1.44-1.368q1.08-.216 3.024.432l14.544 4.752c5.472 1.728 9.504 3.888 11.952 6.48 2.52 2.52 3.312 5.184 2.448 7.992-.504 1.368-1.296 2.448-2.592 3.096-1.224.648-2.952.936-5.184.936 4.176 2.16 7.128 4.608 8.784 7.344 1.728 2.664 2.088 5.472 1.152 8.424-.432 1.368-1.296 2.592-2.52 3.672-1.224 1.008-2.664 1.728-4.464 2.16-1.872.504-3.96.576-6.12.36q-3.24-.324-8.856-2.16zM207.648 588.616c.72.648 1.224 1.296 1.368 1.872.216.576.072 1.152-.36 1.656-.576.72-1.656.648-3.168-.144-.576-.288-.936-.432-1.152-.432-1.008-.216-2.736.936-5.184 3.528-.504.504-.864.936-1.152 1.224l-7.704 7.776c-.144.216-.36.432-.576.648-.144.216-.432.504-.792.936-2.016 2.376-2.808 4.464-2.52 6.48.288 1.944 1.728 4.032 4.32 6.192 2.736 2.304 5.256 3.528 7.416 3.672 2.232.144 4.176-.864 5.904-2.88.432-.504.792-.936 1.08-1.368.288-.36.576-.792.936-1.224l6.408-9 .072-.144c2.448-3.312 3.528-5.4 3.168-6.336-.144-.36-.36-.792-.648-1.44-.648-1.224-.72-2.16-.288-2.664s.864-.648 1.368-.648c.504.072 1.008.36 1.656.864l8.208 6.84q.972.864 1.296 1.728c.144.576 0 1.08-.36 1.584-.504.504-1.368.576-2.664.072-.36-.072-.648-.216-.864-.288-.72-.216-1.224-.288-1.656-.216s-.792.36-1.152.792c-.144.144-.216.288-.288.36-.072.144-.144.216-.216.36l-6.768 9.72c-.144.288-.432.648-.72 1.152a414 414 0 0 1-4.32 5.904c-2.448 2.808-5.4 3.96-9 3.384-3.672-.576-7.848-2.88-12.6-6.912-5.544-4.608-8.928-8.712-10.224-12.456s-.648-7.2 2.088-10.368c.576-.72 1.8-1.944 3.672-3.744.864-.792 1.512-1.368 2.016-1.872l7.56-7.056.648-.648c.216-.216.504-.432.72-.72.432-.504.648-1.008.72-1.368 0-.432-.144-.936-.576-1.584-.072-.144-.216-.36-.288-.576-.792-1.296-.936-2.16-.432-2.736.36-.432.864-.648 1.44-.648.576.072 1.152.36 1.8.864z" style="fill:#00442b"/></svg>