<?xml version="1.0" encoding="iso-8859-1"?>
<!-- Generator: Adobe Illustrator 24.0.1, SVG Export Plug-In . SVG Version: 6.00 Build 0)  -->
<svg version="1.1" id="Layer_1" xmlns="http://www.w3.org/2000/svg" xmlns:xlink="http://www.w3.org/1999/xlink" x="0px" y="0px"
	 viewBox="0 0 612 792" style="enable-background:new 0 0 612 792;" xml:space="preserve">
<path style="fill:#2E3192;" d="M392.688,662.776c-56.088,22.32-116.136,22.32-172.224,0c-45.216-18-84.168-47.736-112.608-86.4
	c-27.36-37.152-45-82.512-49.176-133.416c-2.808-33.984,5.112-66.528,7.488-100.08c3.6-50.184-8.856-92.088-33.624-135.504
	l92.232-94.752c13.824,9.288,28.008,17.136,43.344,23.544c14.4,5.976,30.024,11.016,46.8,14.976
	c59.04,13.752,124.272,13.752,183.312,0c16.776-3.96,32.4-9,46.8-14.976c15.336-6.408,29.52-14.256,43.344-23.544l92.232,94.752
	c-24.768,43.416-37.224,85.32-33.624,135.504c2.376,33.552,10.296,66.096,7.488,100.08c-4.176,50.904-21.816,96.264-49.176,133.416
	C476.856,615.04,437.904,644.776,392.688,662.776z"/>
<path style="fill:#FFF200;" d="M564.768,203.992l-76.824-78.84l-189,164.52l-14.976-9.792c-1.512-1.008-1.368-2.304-1.44-4.104
	c3.456-0.432,6.336,0.144,10.08,0.864c3.384,0.648,6.552-0.144,9.72-0.72c-4.608-2.664-15.48-4.464-27.648-6.048
	c1.368-9.504,4.464-18.504,7.848-27.432c0.72-1.728,0.792-2.448,0.576-4.464c-0.144-0.936-0.432-1.152-1.368,0.792
	c-4.32,8.928-7.056,17.64-9.72,27.072c-0.36-7.56,0.864-16.632,1.08-24.912c0-1.296-0.72-1.512-1.8-1.656
	c-2.304,5.976-3.24,12.384-4.392,18.72c-1.152-9.72-2.592-19.224-4.896-28.512c0.36,10.728-0.072,21.24-0.864,31.608
	c-2.448-11.16-4.968-22.176-7.848-32.904c-0.36,1.944-0.72,4.68-0.504,7.344c0.504,6.192,0.288,11.808,0.216,17.64
	c-2.016-6.552-3.744-13.608-4.752-21.528c-0.792-6.552-2.376-12.816-4.392-18.864c-1.296-3.816,0.864-8.496,0.576-12.96
	c-3.816,3.888-7.2,14.616-10.656,24.984c0.072-2.088,0.072-4.248,0.216-6.264c0.36-5.76,0.36-11.376-0.504-17.568
	c-2.592,2.016-2.736,6.12-3.096,9.648c-2.232-6.84-2.952-15.048-6.696-19.8c-1.008,3.096-0.36,7.776-0.144,11.664
	c-1.152-4.68-2.232-9.288-4.104-13.176l-0.864,3.312c-0.648-1.728-1.584-3.168-2.664-4.176c-1.152,4.608,0,10.944,1.872,17.856
	c-3.6-7.416-7.056-14.184-9.864-16.344c2.808,11.016,7.272,21.888,12.24,32.472l-15.624-10.512
	c1.08-15.336-0.792-25.92-3.096-31.752c-0.648,2.304-1.224,4.968-1.296,7.776c-0.216,6.264,0.36,13.464,0.216,20.448
	c-2.016-13.968-5.544-23.976-10.152-31.176c0.432,7.488,2.016,16.704,5.112,27.936l-1.728-1.224
	c0.936-1.512,0.072-2.376-1.152-2.952c-2.16-1.008-3.888-0.864-5.4-1.44c-1.152-0.432-2.088-1.44-3.816-2.663l1.8-2.088l0.144,1.368
	c0.144,1.368,0.792,2.016,1.728,2.088c2.592,0.072,1.872-1.656,1.8-3.456c-0.72-11.016-2.52-22.248-6.912-30.816l-1.512,5.256
	c-0.576-3.168-1.656-5.544-2.952-7.2c-0.216,1.8-0.36,3.6-0.576,5.328c-0.72-1.944-1.584-3.816-2.664-5.472
	c-1.008,4.536-0.36,9,0.576,13.464c-2.808-5.256-5.688-10.008-8.856-13.464c1.44,10.44,6.408,20.448,10.944,30.528l-5.616-3.096
	c-0.72-6.192-3.816-15.192-9.288-23.76c-1.584-2.52-3.24-5.184-5.328-7.488c-0.648,2.52,0.936,7.2,3.096,12.6
	c-3.168-4.392-6.048-8.496-9.72-11.88c-1.08,2.808,1.08,6.048,3.816,10.584c2.304,3.888,4.896,9.072,8.136,13.536l-7.128-1.8
	c-2.448-6.984-6.048-13.536-10.296-19.152c-2.664-3.6-5.472-6.984-8.856-9.792c1.584,6.336,7.128,16.128,14.832,27.864
	c-7.704-10.656-16.056-19.44-25.56-24.84c0,1.368,0.576,3.384,2.232,5.256c3.672,4.032,9.72,9.576,14.976,15.84
	c-3.96,0.144-7.272,0.216-11.16-0.36c-6.912-10.08-14.976-17.712-24.048-23.04c0.576,3.168,3.384,6.048,6.048,9
	c-4.824-3.528-9.216-6.408-11.952-6.552c-0.288,0.864,0.936,2.376,2.736,4.032c1.728,1.728,3.744,3.96,6.336,5.76
	c3.312,2.376,6.84,4.896,9.432,7.848l-3.744-1.08c-2.808-2.808-5.904-5.184-8.784-7.344c-6.768-5.04-12.312-8.064-14.04-7.776
	c2.376,2.88,4.824,5.76,8.208,8.064c2.448,2.088,4.824,3.96,6.408,6.048c-1.08-0.504-6.624-1.584-4.536,1.152
	c0.432,0.576,1.296,0.864,2.376,0.792c1.584-0.072,3.24,0.576,4.752,1.008c-3.456,0.072-7.344-0.144-10.296-0.072
	c-2.376,0.072-4.032,0.576-4.752,1.224c5.904,1.8,10.728,2.448,14.688,2.736c4.464,0.288,7.272-0.288,8.712-1.584l9.504,1.44
	c-5.688,1.152-9.216,2.52-10.152,4.104c6.408-0.216,12.528,0.216,18.432-0.216c3.024-0.216,6.048,0.144,9.072,0.36
	c-5.616,1.296-11.304,2.592-15.552,4.464c2.52,2.16,12.168,0.792,15.912,0.288c6.336-0.792,12.6-0.648,18.504,0.072
	c-15.336,1.008-25.2,3.24-27.864,4.824c1.296,0.216,1.872,0.72,3.168,0.864c2.232,0.144,5.256-0.216,7.344-0.432
	c3.24-0.288,6.48-0.576,9.864-0.576c3.96,0,8.28,0.216,10.08-1.8l14.4,9.864c-3.528,0.072-6.912,0.504-10.008,0.504
	c-3.672,0.072-6.192,0.432-7.632,1.08c0.216,1.152,2.304,1.729,6.192,1.872c4.536,0.144,9.576,0.792,14.904,0.936
	c1.8,0,2.808,0.504,4.248,1.512c-11.016-0.648-18.432,0-22.104,1.944c8.28,2.16,18.216,2.952,27.216,2.808
	c3.384,0,3.672,1.296,6.048,3.6c-15.048,0-23.976,1.944-29.448,5.04c2.952,0.36,5.76,0.936,9.72,0.36
	c6.48-1.008,12.96-0.864,19.584-1.008c0.648-1.224,1.728-2.304,3.24-3.096l1.872,1.512l-2.52,2.952
	c-11.376-0.144-21.168,0.792-27.648,4.248c2.232,0.504,5.4,1.44,9.216,0.792c4.536-0.792,9.504-1.008,14.976-0.792
	c-4.248,5.904-6.768,10.368-8.064,13.896c-1.008-0.144-2.016-0.288-3.024-0.432c0.72,0.72,1.584,1.44,2.52,2.16
	c-0.288,0.936-0.432,1.728-0.576,2.52c0.576-0.576,1.152-1.08,1.728-1.656c3.96,2.808,9.432,5.689,15.696,8.496l-7.128,0.72
	c-8.712-6.984-18-11.736-27.648-14.904c-0.288,1.512,1.512,2.88,3.312,4.248l-7.272-2.16c0.072,2.088,1.368,3.312,2.88,4.464
	c-1.872-1.008-3.816-1.8-5.688-1.44c1.44,2.52,5.328,4.824,9.576,7.848c-7.056-2.016-11.88-2.376-15.624-1.944
	c7.344,4.032,16.344,7.2,25.56,10.296l-2.664,1.729c-10.152-5.688-20.376-6.912-30.528-6.912l10.656,5.328
	c-5.832-0.864-10.728-0.792-14.76,0.216c5.832,2.952,16.56,4.896,27.216,6.912l-6.768,4.248c-1.512-2.16-6.48-3.888-13.608-4.536
	c-7.2-0.648-16.272-1.296-21.168-0.792c5.328,3.384,15.192,5.184,24.84,6.192c-14.112,0.288-24.048,1.8-29.664,4.464
	c2.736,0.72,6.264,1.584,10.44,1.296c5.328-0.432,11.232-0.864,16.704-0.432c-3.24,2.736-7.272,5.04-11.52,7.272
	c-13.176-0.36-22.752,1.296-29.808,4.248l10.296,1.08c-5.688,1.224-10.008,2.808-12.384,4.968c4.104-0.144,8.64-0.576,13.464-1.152
	c3.744-0.504,7.632-1.152,11.736-1.872l-0.576,2.16c-12.24,0.504-20.808,3.6-28.368,7.416c7.776-0.36,16.128-1.224,25.344-3.024
	c-5.4,5.616-10.584,11.304-9.576,12.96c6.192-5.544,15.624-9.864,16.344-18.432l2.304-3.384c2.448-0.432,4.032-1.512,4.608-3.384
	l2.664-1.224c-3.24,4.536-5.688,9.144-6.552,13.68c5.4-5.256,10.584-10.872,14.544-19.008c2.16-0.864,5.4-2.52,9-4.464
	c2.232-1.224,4.536-2.376,6.768-3.672c-6.192,7.56-9.648,13.968-10.656,19.656c3.96-3.024,8.064-8.424,11.736-13.968
	c2.52-3.672,5.544-7.416,6.912-11.016c1.944,0.288,2.952-0.576,3.024-2.664l3.384-3.384c5.256,3.312,5.544,2.592,10.44-2.304
	c3.96-0.792,12.456-3.816,15.552-1.512c1.872,1.296,3.96,2.52,4.896-1.152c5.832,0.792,11.664,1.08,16.272,2.088
	c5.184,1.224,8.928,3.24,12.816,4.68c-6.336,1.8-13.104,3.528-16.488,6.336c6.912,0.432,14.832-1.152,22.68-2.664l1.584,1.08
	c-4.248,3.6-7.56,7.488-9.936,11.52c3.744-1.224,7.488-5.04,11.16-8.64l1.44,0.144c-5.688,6.336-11.736,13.248-12.96,19.008
	c4.464-3.24,8.856-7.776,13.32-12.456c-4.176,5.328-8.424,10.656-11.16,15.984l3.888-2.664l-3.384,6.408
	c6.768-4.752,12.888-11.376,19.152-17.568l7.992,5.832c-7.704,10.728-11.52,20.232-11.52,26.064
	c5.184-6.84,10.44-14.904,15.624-23.184c3.96,2.376,7.56,4.608,10.152,6.984c1.368,1.368,2.232,2.808,3.384,4.176L74.664,484.72
	c8.064,32.112,21.96,61.2,40.464,86.328c3.6,4.896,7.416,9.72,11.376,14.328L564.768,203.992z"/>
<path style="fill:#ED1C24;" d="M533.232,502.792c6.264-19.008,10.44-39.312,12.24-60.624c2.736-33.48-5.184-65.592-7.56-98.712
	c-3.312-46.584,6.696-87.984,28.296-128.736L446.4,318.976c-0.288,10.368,0,20.592,0.72,30.888
	c2.016,28.224,9.936,56.448,7.56,84.888c-0.72,8.208-1.872,16.2-3.528,23.832L533.232,502.792z"/>
<path style="fill:#FFF200;" d="M389.376,654.424c43.704-17.424,81.216-46.152,108.648-83.376c13.248-18,24.12-37.944,32.184-59.688
	l-81.288-43.704c-5.184,18.72-13.392,35.496-23.904,49.824c-17.136,23.328-40.968,41.4-68.976,52.488
	c-32.256,12.816-66.672,12.816-98.928,0c-21.6-8.568-40.752-21.312-56.232-37.368l-68.4,59.472
	c25.128,27.144,56.232,48.384,91.296,62.352C277.704,675.808,335.448,675.808,389.376,654.424z"/>
<path style="fill:#FFF200;" d="M111.24,320.56v37.296h-10.296v-24.408c-1.728,1.224-3.312,2.304-4.896,3.096
	c-1.512,0.792-3.456,1.512-5.832,2.232v-8.352c3.456-1.152,6.192-2.448,8.064-4.032c1.944-1.584,3.456-3.528,4.536-5.832H111.24z"/>
<path style="fill:#FFF200;" d="M120.816,349.648l10.152-1.296c0.288,1.44,0.72,2.448,1.368,3.024
	c0.648,0.576,1.368,0.864,2.304,0.864c1.656,0,2.952-0.792,3.816-2.448c0.648-1.224,1.152-3.816,1.512-7.776
	c-1.224,1.296-2.448,2.16-3.744,2.808c-1.296,0.576-2.808,0.864-4.464,0.864c-3.312,0-6.048-1.152-8.28-3.528
	c-2.304-2.304-3.384-5.256-3.384-8.856c0-2.448,0.576-4.608,1.728-6.624c1.152-2.016,2.664-3.528,4.752-4.536
	c2.016-1.08,4.536-1.584,7.56-1.584c3.672,0,6.624,0.648,8.856,1.944c2.232,1.224,3.96,3.24,5.328,5.976
	c1.296,2.736,1.944,6.336,1.944,10.872c0,6.624-1.368,11.448-4.176,14.544c-2.736,3.096-6.624,4.608-11.592,4.608
	c-2.88,0-5.184-0.36-6.84-1.008c-1.728-0.72-3.096-1.656-4.248-2.952C122.328,353.248,121.464,351.592,120.816,349.648
	L120.816,349.648z M139.608,333.304c0-2.016-0.504-3.528-1.512-4.68c-1.008-1.152-2.232-1.656-3.672-1.656
	c-1.296,0-2.448,0.504-3.312,1.512c-0.936,1.008-1.368,2.52-1.368,4.536c0,2.088,0.432,3.672,1.368,4.752
	c0.936,1.08,2.088,1.584,3.456,1.584c1.44,0,2.664-0.504,3.6-1.584C139.104,336.76,139.608,335.248,139.608,333.304z"/>
<path style="fill:#FFF200;" d="M174.6,351.016h-18.576v-8.352L174.6,320.56h8.856v22.536h4.608v7.92h-4.608v6.84H174.6V351.016
	L174.6,351.016z M174.6,343.096v-11.52l-9.864,11.52H174.6z"/>
<path style="fill:#FFF200;" d="M191.376,321.208h29.736v6.912c-2.592,2.304-4.752,4.824-6.48,7.56
	c-2.088,3.312-3.744,6.984-4.968,11.016c-0.936,3.169-1.584,6.84-1.944,11.16h-10.152c0.792-5.976,2.088-11.016,3.816-15.048
	c1.656-4.032,4.392-8.352,8.136-12.96h-18.144V321.208z"/>
<path style="fill:#FFF200;" d="M224.208,252.88l0.288,2.736c-2.016,2.664-4.68,6.192-6.768,9.216
	c-3.6,5.112-6.768,10.584-11.304,13.968c0.792-5.328,4.392-11.232,7.848-16.272C217.296,258.136,220.68,252.952,224.208,252.88z"/>
<path style="fill:#ED1C24;" d="M380.736,339.928l-36.864,31.752c-19.008-12.528-29.016-34.2-31.752-63.432l36.936-31.752
	C370.656,295.216,384.192,320.704,380.736,339.928L380.736,339.928z M366.336,342.304l-24.48-48.816l-14.976,12.888l24.408,48.888
	L366.336,342.304z"/>
<path style="fill:#ED1C24;" d="M522.432,218.176l-12.456,10.656l-12.96-25.848l-15.048,12.888L495,241.72l-10.008,8.568
	c-20.592-12.816-32.832-33.696-32.832-62.424l36.432-31.32C510.84,173.464,526.32,197.584,522.432,218.176L522.432,218.176z
	 M492.336,193.768l-10.368-20.664l-15.048,12.888l10.368,20.736L492.336,193.768z"/>
<path style="fill:#ED1C24;" d="M258.192,435.256l-7.704-15.408l17.568-15.048c4.32,9.792,6.12,19.512,4.608,28.08l-36.936,31.68
	c-18.936-12.528-29.016-34.2-31.68-63.432l39.6-33.912c8.208,5.832,13.68,14.184,16.56,22.392l-17.352,14.904l-9.072-18.072
	l-15.048,12.888l24.48,48.888L258.192,435.256z"/>
<path style="fill:#ED1C24;" d="M133.632,472.984l24.12,47.88l10.656-9.216c-6.624-30.744-19.224-48.456-35.496-58.104l7.488-11.952
	c30.672,6.336,45.216,26.568,45,66.312l-36.432,31.32c-19.944-12.384-28.872-35.064-29.376-54.144L133.632,472.984z"/>
<path style="fill:#ED1C24;" d="M219.816,478.24l-16.2,13.968L180.648,446.2l16.2-13.896L219.816,478.24L219.816,478.24z
	 M178.704,442.384l16.2-13.968l-3.672-7.272l-16.128,13.896L178.704,442.384z"/>
<path style="fill:#ED1C24;" d="M471.24,262.168l-16.2,13.896l-22.968-46.008l16.2-13.896L471.24,262.168L471.24,262.168z
	 M430.128,226.24l16.2-13.896L442.656,205l-16.128,13.896L430.128,226.24z"/>
<polygon style="fill:#ED1C24;" points="299.232,319.336 253.008,359.152 257.184,367.36 271.8,354.76 301.32,408.184 
	317.448,394.36 288,340.864 303.408,327.616 "/>
<path style="fill:#ED1C24;" d="M366.192,261.808l40.104-34.56c20.232,11.52,19.296,26.424,19.296,42.984l27.936,7.128
	l-15.408,13.248l-28.872-6.048l-5.112-9.936l7.129-6.12l-12.096-24.264l-13.032,11.16l27.936,55.872l-16.2,13.896L366.192,261.808z"
	/>
<path style="fill:#ED1C24;" d="M347.544,433.96l-11.448,90.288l15.48-1.944c9.792-25.488,14.76-47.16,15.48-66.168
	c0.72-19.08-2.808-35.496-10.08-50.328c-0.432-0.864,0.072-2.016,0.864-2.376l24.624-10.44c0.576-0.216,1.584,0,2.016,0.432
	c9.864,11.304,16.704,22.464,21.168,33.696c4.464,11.232,6.552,22.608,6.768,34.2c0.288,13.032-2.376,25.92-7.848,39.024
	c-5.4,13.032-13.464,26.28-23.976,39.96c-0.144,0.216-0.936,0.648-1.152,0.72l-75.168,9.288c-0.576,0.072-1.512-0.432-1.8-1.008
	c-4.608-10.008-7.632-20.52-9.072-31.176c-1.584-11.088-1.44-22.248,0.144-32.976c1.224-8.568,3.672-17.064,6.696-25.056
	c3.528-9.144,7.848-17.712,12.384-25.056c0.216-0.288,1.008-0.792,1.368-0.792l31.752-2.232
	C346.752,431.944,347.688,432.952,347.544,433.96z"/>
<path style="fill:#FFF200;" d="M343.872,435.616l-28.728,2.088c-4.248,6.984-8.352,14.976-11.592,23.688
	c-3.024,7.704-5.328,15.912-6.552,24.264c-1.584,10.44-1.656,21.24-0.144,32.04c1.368,9.864,4.104,19.656,8.28,28.944l73.152-9
	c10.08-13.32,17.856-26.064,23.04-38.592c5.256-12.672,7.848-25.056,7.56-37.656c-0.216-11.232-2.232-22.104-6.552-32.976
	c-4.176-10.584-10.584-21.096-19.656-31.752l-21.744,9.216c6.984,14.976,10.368,31.392,9.648,50.4
	c-0.792,19.585-5.904,41.976-16.128,68.256c-0.144,0.432-0.936,1.008-1.368,1.08l-18.792,2.376c-1.08,0.144-2.088-0.864-1.944-1.944
	L343.872,435.616z"/>
<path style="fill:#2E3192;" d="M227.448,567.088c-16.704,15.84-27.792,36.504-33.192,61.92l34.848,16.92
	c7.776-5.112,14.76-12.096,20.232-21.312l-19.368-9.504l-7.056,15.48l-8.136-4.536l18.864-40.392l7.848,4.248l-7.92,17.28
	l19.512,9.36c4.104-9.36,7.344-20.736,8.28-33.84L227.448,567.088z"/>
<path style="fill:#2E3192;" d="M281.232,596.752l-0.864,10.152l18.504,1.44l0.936-10.296L281.232,596.752L281.232,596.752z
	 M280.08,608.992l-4.104,49.32l18.288,1.368l4.392-49.32L280.08,608.992z"/>
<path style="fill:#2E3192;" d="M321.264,589.768c-2.952,14.112-2.304,28.368,1.512,42.768l29.232-6.12l3.456,16.272l-9.288,1.152
	l-2.304-11.664l-19.944,4.536c1.872,7.776,4.968,13.896,9.288,21.312l39.888-8.28c4.032-13.104-0.504-25.992-6.192-40.104
	l-26.64,5.616l-2.952-14.4l8.784-1.944l2.088,10.224l20.592-3.96c-2.592-7.56-5.688-14.616-10.944-22.896L321.264,589.768z"/>
<polygon style="fill:#2E3192;" points="373.968,575.224 413.568,631.312 452.088,604.456 445.68,595.384 422.424,612.16 
	412.704,598.12 428.976,586.312 421.704,576.088 405.288,587.464 397.008,575.44 419.904,558.52 412.416,547.864 "/>
<polygon style="fill:#2E3192;" points="419.112,541.816 473.4,584.296 484.848,569.68 466.344,555.064 496.368,555.064 
	507.168,541.24 462.672,543.256 451.8,499.408 438.984,516.04 444.312,537.208 430.344,527.272 "/>
<path style="fill:#2E3192;" d="M193.464,238.12c7.344,1.8,14.616,5.328,21.96,9.648c7.416,0.432,14.904,0.504,20.52,1.224
	c1.08,0.143,2.016-0.432,2.88-0.216c2.664,0.576,4.752,2.016,6.768,2.52c-2.448-2.232-4.752-4.464-5.832-7.128
	c-5.4,0.144-7.848,0.432-10.368,1.368c-4.464,1.584-7.056,3.096-11.88,0.288c-7.128-4.248-13.824-8.64-19.152-13.536
	C196.776,234.304,195.12,236.32,193.464,238.12z"/>
<path style="fill:#2E3192;" d="M199.656,230.56l4.248,2.664c4.968-0.72,10.944-0.432,16.848-0.216
	c-7.56-1.08-14.472-2.304-19.872-4.104C200.448,229.48,200.016,230.056,199.656,230.56z"/>
<path style="fill:#2E3192;" d="M201.456,228.04c5.112-0.648,12.24-0.504,21.312,0.504l-14.616-10.152
	C205.92,221.632,203.688,224.944,201.456,228.04z"/>
<path style="fill:#2E3192;" d="M242.28,213.64c-1.008,3.168-1.944,6.264-2.088,9.432c1.512,1.08,1.944,8.712,2.592,15.12
	c1.008-2.52,1.44-5.976,1.152-10.944c0-0.936-0.36-1.8-0.504-2.808C243.144,221.488,243.144,217.816,242.28,213.64z"/>
<path style="fill:#2E3192;" d="M221.832,224.008c2.592,1.44,4.968,3.24,7.416,5.04c0.144-0.864,0.288-1.656,0.072-2.16
	c-0.576-1.296-2.304-2.952-2.736-4.176c-0.936,1.44-2.088,1.368-3.024-0.216C223.056,223.288,222.552,223.792,221.832,224.008z"/>
<path style="fill:#2E3192;" d="M223.992,234.088c-0.216-0.504-0.792-0.504-1.224-0.648l-0.072,0.432
	C222.84,234.376,223.704,234.016,223.992,234.088z"/>
<polygon style="fill:#2E3192;" points="278.64,275.272 278.64,276.352 279.144,275.416 "/>
<path style="fill:#2E3192;" d="M207.432,235.384c3.744,1.872,10.8,7.632,14.112,8.712c2.952,1.008,7.416-1.728,11.808-3.961
	C226.224,238.336,217.008,236.824,207.432,235.384z"/>
<path style="fill:#FFF200;" d="M231.336,252.736l0.144,3.312c-2.016,2.736-4.68,6.192-6.768,9.288
	c-3.6,5.04-6.912,10.224-11.448,13.68c0.792-5.4,4.536-11.016,7.992-16.056C224.28,258.568,227.808,252.808,231.336,252.736z"/>
</svg>
