<?xml version="1.0" encoding="iso-8859-1"?>
<!-- Generator: Adobe Illustrator 24.0.1, SVG Export Plug-In . SVG Version: 6.00 Build 0)  -->
<svg version="1.1" id="Layer_1" xmlns="http://www.w3.org/2000/svg" xmlns:xlink="http://www.w3.org/1999/xlink" x="0px" y="0px"
	 viewBox="0 0 612 792" style="enable-background:new 0 0 612 792;" xml:space="preserve">
<path d="M186.192,598.552c-25.056-25.128-46.728-53.712-62.784-84.384C93.456,456.712,79.632,388.6,81.144,324.016V112.624h345.528
	c0,33.048-3.888,63.864-12.384,92.016h-177.48c-12.96-1.44-15.336,7.128-20.16,17.136c-4.536,9.36-9.144,21.816-11.448,32.04
	c-2.592,11.088,1.656,13.68,15.552,4.608c14.904-7.848,27.864-13.248,43.056-15.984c12.672-2.304,26.568-2.592,39.456-3.888
	c17.856-2.376,22.968,4.68,16.992,19.008l-90.72,142.704c-27.432,43.2-43.488,80.568-46.44,132.552
	C181.872,554.344,183.168,576.16,186.192,598.552z"/>
<path d="M532.008,112.624v211.392c1.512,64.584-12.312,132.696-42.264,190.152c-18.648,35.64-44.928,68.544-75.312,96.336
	c-31.536,28.872-67.608,52.416-104.256,68.112c-2.376,1.008-3.816,1.44-7.2,0c-34.272-14.616-67.896-36.144-97.848-62.352
	c-4.896-27.864-7.56-56.088-6.048-82.584c1.296-22.68,5.472-45,13.464-67.392h172.368c5.904,0.504,10.512-0.576,13.608-3.096
	c6.264-5.184,10.224-23.904,11.304-31.248c1.08-7.704,1.368-15.48-1.08-17.64c-1.512-1.296-9.072,1.728-16.416,5.04
	c-19.152,8.784-52.272,13.968-72.288,15.264c-24.264,3.168-10.872-20.736-5.256-29.808l78.192-122.112
	c13.968-21.888,26.064-41.688,34.416-66.6c10.584-31.536,15.264-66.24,15.264-103.464H532.008z"/>
<path style="fill:#FFFFFF;" d="M205.128,616.264c-2.16-1.944-4.32-3.816-6.408-5.76c-4.248-3.888-8.424-7.848-12.528-11.952
	c-3.024-22.392-4.32-44.208-3.096-65.736c2.952-51.984,19.008-89.352,46.44-132.552l90.72-142.704
	c5.976-14.328,0.864-21.384-16.992-19.008c-12.888,1.296-26.784,1.584-39.456,3.888c-15.192,2.736-28.152,8.136-43.056,15.984
	c-13.896,9.072-18.144,6.48-15.552-4.608c2.304-10.224,6.912-22.68,11.448-32.04c4.824-10.008,7.2-18.576,20.16-17.136h177.48
	c8.496-28.152,12.384-58.968,12.384-92.016h15.984c0,37.224-4.68,71.928-15.264,103.464c-8.352,24.912-20.448,44.712-34.416,66.6
	L314.784,404.8c-5.616,9.072-19.008,32.976,5.256,29.808c20.016-1.296,53.136-6.48,72.288-15.264
	c7.344-3.312,14.904-6.336,16.416-5.04c2.448,2.16,2.16,9.936,1.08,17.64c-1.08,7.344-5.04,26.064-11.304,31.248
	c-3.096,2.52-7.704,3.6-13.608,3.096H212.544C204.552,488.68,200.376,511,199.08,533.68
	C197.568,560.176,200.232,588.4,205.128,616.264z"/>
<path style="fill:#2BA44F;" d="M419.4,119.824H88.344V324.16c-1.512,63.504,12.024,130.176,41.472,186.624
	c12.456,23.904,28.44,46.512,46.872,67.176c-1.224-15.12-1.656-30.384-0.792-45.576c1.512-26.712,6.408-49.68,14.472-71.64
	c8.064-21.744,19.152-42.336,33.12-64.368l90.36-142.128c2.736-6.84,1.944-9-2.16-9.216c-13.176-0.72-33.48,2.088-46.656,4.464
	c-7.056,1.296-13.608,3.168-20.304,5.688c-6.624,2.592-13.248,5.688-20.304,9.36c-8.856,5.76-15.408,7.56-20.088,5.904
	c-6.552-2.376-8.352-8.64-6.12-18.216c2.952-12.888,7.776-24.552,13.32-36.504c6.84-14.76,9.936-18.288,27-18.288h170.352
	c3.744-13.536,6.48-27.648,8.208-42.336C418.464,143.728,419.184,131.92,419.4,119.824z"/>
<path style="fill:#FAE227;" d="M524.808,119.824h-75.024c-0.576,33.336-4.968,66.816-15.624,98.496
	c-8.208,24.624-21.24,46.512-35.136,68.256l-77.688,121.392c-2.088,3.24-14.04,18.648-3.96,19.44
	c11.232,0.864,41.184-5.328,42.048-5.544c11.232-2.376,21.96-5.4,29.952-9c5.976-2.736,18.072-9.072,23.976-4.032
	c6.192,5.256,4.536,17.064,3.528,24.12c-1.512,10.512-5.184,28.656-13.824,35.784c-5.184,4.248-12.168,5.256-18.648,4.752h-166.68
	c-10.944,32.76-13.536,66.888-10.8,101.232c1.008,12.672,2.664,25.2,4.752,37.728c28.944,25.056,61.272,45.504,94.104,59.544
	c0.648,0.288,0.936,0.288,1.584,0c35.928-15.336,71.208-38.376,102.168-66.744c29.88-27.36,55.584-59.544,73.8-94.464
	c29.448-56.448,42.984-123.12,41.472-186.624V119.824z"/>
</svg>
