<svg xmlns="http://www.w3.org/2000/svg" xml:space="preserve" viewBox="0 0 612 792"><path d="M306.576 679.552c-26.712 0-52.632-5.112-76.608-14.328-24.84-9.504-47.592-23.544-67.248-41.04-19.728-17.568-36.288-38.592-48.672-62.136-11.808-22.392-19.8-47.088-23.04-73.224-.144-1.152-.288-2.376-.144-3.528.432-3.96.936-7.92 1.368-11.88 6.84-58.464 13.824-117.864 13.68-169.632-.072-27-2.088-51.84-7.128-73.152-4.824-20.808-12.6-38.16-24.12-50.904-1.512-1.656-2.376-3.96-2.448-6.12s.576-4.536 1.944-6.336l39.888-50.976c1.224-1.512 3.096-2.664 4.968-3.24 1.872-.504 4.104-.576 5.976.144a253.5 253.5 0 0 0 44.496 12.024c14.76 2.52 29.664 3.672 44.568 3.528s29.808-1.584 44.712-4.248 29.88-6.48 44.784-11.448c.936-.288 5.112-.288 6.048 0 14.904 4.968 29.88 8.784 44.784 11.448s29.808 4.104 44.712 4.248 29.808-1.008 44.568-3.528A253.5 253.5 0 0 0 488.16 113.2c1.872-.72 4.104-.648 5.975-.144 1.872.576 3.744 1.728 4.968 3.24l39.888 50.976c1.368 1.8 2.016 4.176 1.944 6.336s-.936 4.464-2.448 6.12c-11.52 12.744-19.296 30.096-24.12 50.904-5.04 21.312-7.056 46.152-7.128 73.152-.144 51.768 6.84 111.168 13.68 169.632.432 3.96.936 7.92 1.368 11.88.144 1.152 0 2.376-.144 3.528-3.24 26.136-11.232 50.832-23.04 73.224-12.384 23.544-28.944 44.568-48.672 62.136-19.656 17.496-42.408 31.536-67.248 41.04-23.975 9.216-49.895 14.328-76.607 14.328" style="fill:#005baa"/><path d="M306.576 673.144c-52.848 0-102.096-20.376-139.608-53.784-37.656-33.48-63.576-80.064-69.768-132.552v-.792c7.272-62.496 15.264-126.648 15.12-182.232-.144-54.936-8.28-101.16-32.976-128.376-.864-.936-.936-3.096-.144-4.176l39.888-50.976c.648-.936 2.592-1.44 3.672-1.08 30.384 11.232 60.84 16.272 91.368 15.984 30.456-.288 60.984-5.904 91.44-16.056.36-.072 1.656-.072 2.016 0 30.456 10.152 60.984 15.768 91.44 16.056 30.528.288 60.984-4.752 91.368-15.984 1.08-.36 3.024.144 3.672 1.08l39.888 50.976c.792 1.08.72 3.24-.144 4.176-24.696 27.216-32.832 73.44-32.976 128.376-.144 55.584 7.848 119.736 15.12 182.232v.792c-6.192 52.488-32.112 99.072-69.768 132.552-37.512 33.408-86.76 53.784-139.608 53.784" style="fill:#fd0"/><path d="M306.576 666.592c51.192 0 98.928-19.728 135.288-52.128 34.488-30.672 58.824-72.72 66.456-120.24-4.896 3.888-10.584 7.2-16.56 9.936-11.16 5.112-23.328 8.424-32.904 10.08-2.664.432-4.752-2.664-3.312-4.968 38.592-61.632 33.12-102.528 5.256-130.32-28.296-28.368-79.56-43.848-131.544-54.072-19.296-3.744-55.872-13.824-86.76-27.864-16.416-7.488-31.32-16.056-41.184-25.56-10.08-9.648-15.192-20.16-12.096-31.392-9 6.12-16.128 14.04-21.096 23.04-6.696 12.168-9.504 26.352-7.776 40.752 3.528 30.024 26.496 49.464 54.936 62.784 29.016 13.536 63.864 20.736 90.144 26.136 22.608 4.608 63.864 12.024 97.272 27.792 34.344 16.2 60.264 41.04 50.04 80.352-8.64 32.976-28.008 61.056-53.856 80.928-25.776 19.8-58.032 31.464-92.304 31.464-83.232 0-151.2-67.968-151.2-151.272 0-1.296 0-2.592.072-3.888-3.888 5.976-6.192 12.312-6.624 19.224-.72 9.576 2.088 20.232 8.856 31.968 1.296 2.304-.72 5.328-3.384 4.897-9.576-1.656-21.744-4.968-32.904-10.08-5.976-2.736-11.664-6.048-16.56-9.936 7.632 47.52 31.968 89.568 66.456 120.24 36.36 32.399 84.096 52.127 135.288 52.127" style="fill:#0db14b"/><path d="M283.032 399.544c.648.072 3.6 15.552 11.52 16.704 12.312 1.944 37.152 9 49.032 12.96 6.768 2.232 9.576-4.32 11.736-3.456.144.576-6.336 3.168-5.04 11.016 2.016 12.312 3.024 38.16 2.88 50.688 0 7.128 22.104 16.488 21.96 18.792-.504.288-19.944-13.752-27.072-10.08-11.088 5.76-35.352 14.688-47.232 18.432-6.768 2.16-9.288 16.056-11.52 16.632-.432-.36 7.344-13.176 1.656-18.792-8.928-8.784-24.84-29.088-32.112-39.312-4.176-5.832-30.096-.288-31.32-2.16.216-.576 26.712-.792 30.312-7.92 5.616-11.16 20.016-32.616 27.432-42.696 4.248-5.76-3.672-19.08-2.232-20.808" style="fill:#005baa"/><path d="M208.152 348.28v-14.76c1.44 3.384 3.384 6.48 5.904 9.144 2.592 2.736 5.4 4.824 8.64 6.264 2.592 1.152 4.68 1.512 6.192.936s2.304-1.872 2.304-3.961c0-3.024-2.664-6.696-7.848-11.088-1.728-1.512-3.024-2.664-4.032-3.528-4.248-3.888-7.344-7.416-9.072-10.512s-2.664-6.48-2.664-10.08c0-4.68 1.584-7.776 4.608-9.36s6.984-1.296 11.808.864c2.304 1.08 4.824 2.736 7.488 5.112 2.664 2.304 4.176 3.528 4.536 3.744.288.144.648.144.936 0s.504-.432.72-.864v15.048c-1.368-3.456-3.168-6.48-5.472-9.072-2.232-2.592-4.752-4.536-7.488-5.76-2.52-1.08-4.464-1.296-5.904-.648-1.512.648-2.232 2.088-2.232 4.248q0 4.212 8.64 11.448c1.944 1.728 3.528 3.024 4.608 4.032 3.672 3.24 6.336 6.336 8.064 9.432s2.664 6.192 2.664 9.36q0 7.236-4.752 9.72c-3.168 1.656-7.272 1.368-12.312-.936-3.672-1.656-7.488-4.392-11.52-8.136-1.152-1.08-1.872-1.728-2.16-1.872-.36-.144-.72-.144-1.008.072-.288.217-.504.577-.648 1.153M255.24 343.888c0 5.256 1.368 10.008 4.176 14.112 2.736 4.176 6.264 6.768 10.512 7.848 4.248 1.008 7.704.216 10.512-2.592 2.736-2.736 4.104-6.768 4.104-12.024 0-5.328-1.368-10.08-4.176-14.256-2.736-4.104-6.264-6.768-10.44-7.776-4.247-1.08-7.776-.216-10.512 2.592-2.808 2.736-4.176 6.768-4.176 12.096m-10.152-2.52c0-3.6.648-6.84 1.872-9.648 1.224-2.88 3.024-5.184 5.472-7.056 2.304-1.728 4.968-2.952 7.92-3.456 3.024-.504 6.192-.288 9.576.504 2.736.72 5.4 1.8 7.92 3.312 2.52 1.44 4.824 3.312 6.984 5.472a35.1 35.1 0 0 1 7.272 10.872c1.728 4.032 2.592 8.136 2.592 12.384 0 3.528-.648 6.696-1.872 9.576-1.224 2.808-3.024 5.184-5.4 6.984a18.1 18.1 0 0 1-7.992 3.456c-3.024.504-6.192.36-9.504-.504-3.384-.792-6.552-2.232-9.576-4.248-3.024-1.944-5.616-4.392-7.92-7.344a33.6 33.6 0 0 1-5.472-9.72c-1.224-3.456-1.872-6.984-1.872-10.584M312.984 377.008v.648c0 1.296.216 2.232.504 2.736.36.576 1.008 1.152 1.944 1.656l-14.688-2.808c.864-.144 1.512-.504 1.872-.936.36-.36.504-1.224.504-2.52V335.32c0-1.296-.144-2.232-.504-2.808-.36-.504-1.008-1.08-1.872-1.512l14.688 2.736c-.936.216-1.512.504-1.872.936s-.576 1.296-.576 2.592v17.424l14.976-13.968c.216-.216.432-.504.504-.792a2.3 2.3 0 0 0 .216-1.008c0-.648-.216-1.152-.576-1.656s-.936-1.008-1.728-1.44l18 3.384c-1.224.288-2.304.576-3.24 1.08-1.008.504-2.088 1.296-3.311 2.376l-10.656 9.36 14.616 30.456c.648 1.368 1.296 2.448 2.016 3.312a14 14 0 0 0 2.736 2.16l-13.608-2.592-12.888-27.504-7.056 6.552v12.6zM368.424 341.08l-3.384 15.984 3.24.792c.216-.576.504-1.224.792-1.872 2.16-5.256 4.32-10.44 6.984-13.248z" style="fill:#fd0"/><path d="M354.528 365.488c0 5.256 1.368 10.08 4.176 14.328 2.736 4.176 6.192 6.912 10.44 8.136q6.264 1.728 10.368-2.16c2.736-2.664 4.104-6.696 4.104-11.952 0-5.328-1.368-10.08-4.104-14.328-1.728-2.664-3.672-4.68-5.904-6.192 1.008-2.304 2.016-4.464 3.024-6.12.072.072.216.144.288.216a35 35 0 0 1 6.984 5.76c3.096 3.312 5.544 6.984 7.2 11.088a31.6 31.6 0 0 1 2.52 12.456c0 3.528-.576 6.696-1.8 9.504s-3.024 5.04-5.4 6.84a17 17 0 0 1-7.92 3.096c-2.952.36-6.048.144-9.36-.792q-5.076-1.404-9.504-4.536a35.8 35.8 0 0 1-7.848-7.632c-2.376-3.168-4.176-6.48-5.472-9.936-1.224-3.528-1.8-7.056-1.8-10.656s.576-6.84 1.8-9.576c1.296-2.808 3.096-5.04 5.472-6.84 2.304-1.728 4.896-2.736 7.848-3.168 1.728-.216 3.384-.216 5.184-.072l-1.656 8.064c-1.656.36-3.168 1.224-4.464 2.52-2.808 2.664-4.176 6.624-4.176 11.952M398.52 404.296c.864.072 1.368-.072 1.728-.432s.504-1.152.504-2.448v-8.28l-1.656.576c-1.152.216-1.728 1.296-2.232 2.376v-7.992l3.888-1.584v-26.64c0-1.296-.144-2.304-.504-3.024a7.1 7.1 0 0 0-1.728-2.088l13.392 6.84c-.792-.072-1.368.072-1.656.432-.36.288-.504 1.152-.504 2.52v18.432l7.272-2.88c1.584-.504 2.808-1.224 3.744-2.304v8.28l-11.016 3.888v12.816l15.408 7.848c1.152.576 1.944.792 2.376.72.504-.144.864-.576 1.152-1.368v9.72zM175.752 573.424 159.48 589.12l-6.12-6.408 25.776-24.912 5.472 5.616-2.016 28.728L198 577.312l6.12 6.336-25.776 24.912-4.896-5.04zM189.216 617.056l21.096-29.016 7.488 5.4-21.096 29.088zM208.296 630.088l16.272-31.968 21.384 10.872-3.024 5.904-13.392-6.84-3.312 6.552 12.816 6.48-3.024 5.976-12.816-6.552-3.888 7.632 13.752 7.056-3.024 5.976zM240.984 646.648l8.64-34.776 7.704 1.872 7.704 16.848 14.688-11.232 7.704 1.944-8.712 34.776-8.568-2.16 5.4-21.528-13.536 10.152-7.056-15.264-5.4 21.528zM299.88 638.944c0 3.168.936 5.832 2.88 7.848 1.944 2.088 4.32 3.096 7.272 3.096 3.024 0 5.472-1.008 7.416-3.096 1.872-2.016 2.88-4.68 2.88-7.848 0-3.24-1.008-5.832-2.88-7.92-1.944-2.088-4.392-3.096-7.416-3.096-2.952 0-5.328 1.008-7.272 3.096s-2.88 4.68-2.88 7.92m-9.216 0c0-2.664.432-5.112 1.368-7.416.936-2.232 2.376-4.248 4.248-6.048 1.8-1.728 3.888-2.952 6.12-3.816 2.304-.864 4.824-1.224 7.632-1.224 2.88 0 5.472.36 7.776 1.224A19 19 0 0 1 324 625.48c1.8 1.8 3.24 3.816 4.176 6.048a19.45 19.45 0 0 1 1.44 7.416c0 2.664-.504 5.112-1.44 7.344-.936 2.304-2.376 4.32-4.176 6.048-1.872 1.656-3.96 2.952-6.264 3.816s-4.896 1.296-7.704 1.296-5.256-.432-7.56-1.224a18 18 0 0 1-6.192-3.888 16.6 16.6 0 0 1-4.176-6.048c-1.008-2.232-1.44-4.68-1.44-7.344M342.432 624.4l5.472 20.592 6.48-1.728c2.952-.792 5.112-2.376 6.408-4.752 1.368-2.448 1.656-5.184.792-8.208q-1.188-4.536-4.752-6.696c-2.376-1.44-5.04-1.728-7.992-.936zm-1.296 29.952-9.288-34.632 13.032-3.528c3.672-.936 6.624-1.44 8.856-1.44 2.16 0 4.32.432 6.408 1.296 2.664 1.008 4.824 2.592 6.624 4.608 1.728 2.016 3.024 4.392 3.744 7.272.864 3.024.864 6.048.216 8.928-.72 2.88-2.16 5.544-4.392 7.92-1.224 1.368-2.664 2.448-4.32 3.312-1.728.936-4.32 1.8-7.848 2.808zM385.776 640.024l-16.272-31.968 7.992-4.104L390.6 629.8l13.824-7.056 3.096 6.192zM416.448 622.096l-20.592-29.376 7.56-5.256 20.592 29.376zM425.16 586.456l15.912 15.912-6.264 6.336-25.344-25.416 5.544-5.544 28.728 1.512-15.12-15.12 6.264-6.264 25.344 25.344-4.968 4.968z" style="fill:#fd0"/><path d="M427.392 237.616a6.945 6.945 0 0 1 6.984 6.984c0 1.08-.216 2.088-.72 3.024l-3.528-1.512q.432-.648.432-1.512c0-1.728-1.44-3.168-3.168-3.168s-3.168 1.44-3.168 3.168 1.44 3.168 3.168 3.168c.936 0 1.8-.432 2.376-1.152l2.592 2.88c-1.296 1.296-3.024 2.088-4.968 2.088-3.816 0-6.984-3.168-6.984-6.984 0-3.888 3.168-6.984 6.984-6.984" style="fill:#005baa"/><path d="M380.016 266.776c7.776-5.544 14.184-14.04 24.408-14.04 5.832 0 10.512 6.912 10.512 12.96-1.584 6.192-4.032 16.2 1.296 21.528 1.008-18.216 5.904-27.576 13.032-31.896a7.9 7.9 0 0 1-1.872.216c-5.976 0-10.944-4.968-10.944-10.944 0-6.048 4.968-10.944 10.944-10.944a10.94 10.94 0 0 1 10.944 10.944c0 3.528-1.728 6.696-4.392 8.712 5.76-1.656 12.456-1.152 19.656.144-.504 6.624 2.952 11.376 4.608 13.536-2.88 0-11.952.936-12.888 4.176 0-1.224 7.056-2.16 8.064-2.232 3.744-.504 9.288.072 12.312 2.592.36-5.039-16.128-10.08-4.248-24.336-1.872 0-3.384.432-4.536 1.152-3.744-22.896-40.536-26.424-55.8-7.488-1.512 1.944-21.096 23.904-21.096 25.92" style="fill:#005baa"/><path d="M508.68 205.144c4.68-12.24 10.8-23.04 18.432-32.04l-36.72-46.944c-30.384 10.944-60.912 15.84-91.368 15.552-30.888-.288-61.776-5.904-92.448-16.056-30.672 10.152-61.56 15.768-92.448 16.056-30.456.288-60.984-4.608-91.368-15.552l-36.72 46.944c7.632 9 13.752 19.8 18.432 32.04z" style="fill:#0db14b"/><path d="M417.24 291.904c0 5.904-.144 10.44 2.16 15.192-7.848-3.96-3.096-9.144-2.16-15.192M412.56 310.408c0 2.16-1.584 5.904-.216 8.064l3.744 4.752c-6.336 0-7.272-8.856-3.528-12.816M430.92 283.408c-.504 2.016-1.224 9.648.936 9.648-6.984.72-1.872-9.576-.936-9.648M433.656 288.952c.576 1.944 3.888 9.216 5.904 8.568-6.912 3.456-6.984-7.992-5.904-8.568M433.224 297.592c.648 1.944 3.96 11.016 5.976 10.368-6.912 3.456-7.056-9.792-5.976-10.368M427.176 292.12c0 1.944 1.152 9.648 3.312 9.648-7.92 1.152-4.536-9.432-3.312-9.648M423.36 299.968c0 2.016-.072 11.016 2.088 11.016-7.056.288-3.024-11.088-2.088-11.016M428.976 306.232c-.072 2.016.36 9.936 2.448 9.36-6.552 2.52-3.24-9.072-2.448-9.36M432.504 310.984c.864 1.728 5.256 8.136 7.056 6.984-6.12 5.256-7.992-6.12-7.056-6.984M433.512 319.696c.936 1.728 5.256 8.136 7.056 6.984-6.048 5.256-7.992-6.12-7.056-6.984M426.816 315.808c.288 1.944 2.592 9.288 4.68 8.784-7.416 3.168-5.832-8.28-4.68-8.784M423.072 321.496c.36 1.944 2.664 9.36 4.752 8.784-7.416 3.168-5.904-8.208-4.752-8.784M418.392 309.904c.288 1.944 2.592 9.288 4.68 8.712-7.416 3.24-5.904-8.208-4.68-8.712M437.688 332.08c.864 1.8 5.256 8.208 7.056 6.984-6.12 5.256-8.064-6.12-7.056-6.984M430.92 328.192c.36 2.016 2.592 9.36 4.68 8.784-7.344 3.168-5.832-8.208-4.68-8.784M427.248 333.952c.288 1.944 2.592 9.288 4.68 8.712-7.416 3.168-5.832-8.208-4.68-8.712M433.872 340.36c3.672 6.696 5.328 7.56 12.744 10.656-5.544 3.024-14.112-5.4-12.744-10.656" style="fill:#005baa"/><path d="M509.184 484.576c-7.272-61.992-15.048-125.568-14.904-180.792.072-34.848 3.384-66.384 12.024-92.088H106.848c8.64 25.704 11.952 57.24 12.024 92.088.144 55.224-7.632 118.8-14.904 180.792 5.184 5.544 12.384 10.08 20.16 13.68 8.136 3.744 16.848 6.408 24.624 8.208-5.112-10.584-7.128-20.448-6.48-29.52.792-11.664 5.976-21.96 14.688-31.104 2.016-2.088 5.904-.288 5.616 2.592-.216 2.088-.36 4.32-.504 6.84-.072 2.304-.144 4.536-.144 6.768 0 79.704 65.016 144.72 144.648 144.72 32.76 0 63.648-11.16 88.344-30.096 24.696-19.008 43.272-45.864 51.48-77.328 7.56-29.16-7.488-49.68-30.888-64.368-.432-.288-8.784-4.608-9.288-4.896 15.336 20.808 16.92 38.664 13.896 48.96-1.8 6.12-7.344 8.64-6.84 9.936.576.144 3.672-3.528 7.128-5.904 10.368-6.984 27.792-15.768 19.512 14.832-6.624 24.696-20.016 46.656-37.944 63.864-5.328-4.608-10.368-8.712-14.256-11.448-6.48-4.608-3.744-11.016-4.248-11.304-2.16.864.504 7.56-5.832 10.728-11.232 5.688-33.696 18.36-43.704 25.776-6.408 4.752-19.584-3.96-20.016-3.6.216 2.304 15.264 6.048 16.344 13.104.504 3.384 1.296 7.848 2.232 12.744-8.424 1.584-17.064 2.448-25.92 2.448-23.616 0-45.864-5.976-65.376-16.56 2.808-6.48 5.184-12.6 6.552-17.064 2.448-7.632 9.288-7.056 9.432-7.632-1.512-1.656-6.984 2.88-12.024-2.16-8.784-8.928-27.792-26.424-38.016-33.624-6.48-4.608-2.232-19.8-2.736-20.16-2.088.936-1.008 16.416-7.344 19.584a440 440 0 0 0-11.376 6.048c-10.944-19.8-17.208-42.48-17.208-66.6 0-8.352.72-16.632 2.232-24.624 6.984.648 13.608 1.008 18.36 1.008 7.992-.072 9.504 6.624 10.08 6.624 1.152-2.016-4.824-5.832-1.584-12.168 5.688-11.16 16.488-34.632 20.232-46.44 1.224-4.032 6.192-6.12 10.584-7.272-34.128-12.816-69.84-34.632-74.52-74.52-1.872-15.768 1.152-31.32 8.496-44.712 7.2-13.032 18.432-23.976 33.048-30.96 2.808-1.368 5.904 2.376 4.104 4.896-1.728 2.304-2.88 4.536-3.672 6.696-3.024 9 1.224 17.856 9.936 26.136 9.36 8.928 23.616 17.136 39.384 24.336 29.16 13.248 63.432 22.896 82.944 27 6.552 1.296 25.92-19.008 32.688-23.76-7.488 4.176-15.624 10.08-21.24 10.584 10.656-19.152 29.592-48.888 44.064-66.888 19.944-24.696 45.864-23.616 65.808-15.048 21.24 9.072 35.496 27.576 24.84 59.904-5.976-18.576-34.129-8.064-32.184 3.816-4.176 21.168-1.008 60.984 16.704 74.808-4.896 1.152-11.016-3.888-16.776-5.256 8.856 5.4 16.704 11.448 23.472 18.144 28.944 28.944 35.784 70.632-.504 131.976 7.56-1.728 16.056-4.464 24.048-8.064 7.776-3.6 14.976-8.136 20.16-13.68" style="fill:#005baa"/><path d="M413.928 151.576c0 .36-.072.792-.072 1.296v1.944c0 1.08.072 2.232.144 3.456.072 1.152.216 2.448.36 3.816-3.528-1.296-6.912-2.304-10.008-2.952a42.8 42.8 0 0 0-8.928-.936c-2.808 0-4.896.36-6.336 1.152-1.44.72-2.16 1.872-2.16 3.384 0 1.224.576 2.16 1.872 2.808 1.224.648 4.464 1.368 9.648 2.232 6.624 1.08 11.376 2.736 14.112 5.112q4.104 3.456 4.104 10.152c0 4.824-1.8 8.568-5.328 11.088-3.528 2.592-8.64 3.888-15.264 3.888-3.744 0-7.416-.216-10.944-.576-3.528-.432-6.84-1.008-10.08-1.8-.072-2.808-.144-5.112-.288-6.912s-.288-3.384-.576-4.824c3.384 1.44 6.84 2.592 10.296 3.384 3.456.72 6.696 1.152 9.792 1.152q4.644 0 6.912-1.08c1.44-.72 2.16-1.8 2.16-3.384q0-3.456-8.856-5.184c-.36-.072-.648-.072-.864-.144q-.432-.108-1.296-.216c-6.264-1.224-10.44-2.52-12.672-3.888-1.8-1.152-3.24-2.664-4.248-4.536a12.56 12.56 0 0 1-1.512-6.048c0-4.68 1.872-8.28 5.76-10.872q5.724-3.888 16.2-3.888c2.664 0 5.544.216 8.568.576a100 100 0 0 1 9.504 1.8M297.144 150.568h15.048v22.392l21.312-22.392h16.704l-23.472 22.752 25.416 23.4h-18l-21.96-21.744v21.744h-15.048zM196.488 150.568h17.352l17.208 30.312 16.992-30.312h16.848v46.152h-13.68l.432-32.328-18 32.328h-6.048l-17.784-32.328.216 32.328h-13.536z" style="fill:#fd0"/></svg>