<svg xmlns="http://www.w3.org/2000/svg" xml:space="preserve" viewBox="0 0 612 792"><path d="m536.08 427.924-.883-2.46a84 84 0 0 0 1.123-5.7 97 97 0 0 0 1.049-14.286v-.761c0-9.323-1.342-18.593-3.969-26.175l-1.981-5.772-.336.297a69 69 0 0 0 .689-7.935c.053-2.392.053-4.781-.119-7.115-.121-2.332-.406-4.78-.76-7.288-1.342-8.805-3.73-15.744-6.938-21.63-2.508-4.607-5.482-8.455-8.865-12.013a50 50 0 0 0-3.031-3.089l-1.498-1.456c.26-2.112.451-4.378.51-6.824v-3.381c-.119-5.48-.936-11.662-2.977-18.657-2.973-10.146-13.41-21.865-25.422-29.914-2.041-1.341-4.082-2.623-6.176-3.729-2.859-1.516-5.715-2.797-8.576-3.789a40 40 0 0 0-7.375-1.91c-4.992-9.303-11.096-17.355-18.975-23.453-3.268-2.567-6.881-4.725-10.789-6.473-6.992-3.151-14.98-4.956-24.369-5.131l-3.264-.06v.003a31 31 0 0 0-2.627-2.277c-4.723-3.675-10.902-6.472-17.025-8.221a62 62 0 0 0-4.891-1.21l-1.287-.773c-5.602-3.32-11.195-5.362-18.426-5.418-.986 0-1.982.056-3.027.116-5.028.372-10.814 1.656-17.802 4.107a164 164 0 0 0-10.435-1.545c-2.554-12.103-5.672-28.224-6.9-43.102.589-.175 1.224-.36 1.819-.535 3.818-1.116 8.147-2.38 11.605-4.517 4.664-2.882 6.974-6.847 6.865-11.783-.055-5.91-3.537-11.231-9.805-14.956-6.113-3.636-14.758-5.722-23.716-5.722s-17.603 2.086-23.717 5.723c-6.267 3.725-9.749 9.046-9.803 14.983-.108 4.908 2.201 8.872 6.865 11.755 3.457 2.137 7.786 3.401 11.605 4.518.594.174 1.228.359 1.818.534-1.228 14.883-4.347 31.006-6.9 43.103q-5.215.6-10.434 1.545c-6.987-2.452-12.773-3.736-17.802-4.107-1.046-.06-2.04-.116-3.027-.116-7.231.056-12.825 2.098-18.427 5.418l-1.287.773c-1.602.328-3.242.73-4.891 1.21-6.123 1.749-12.302 4.546-17.024 8.221a31 31 0 0 0-2.627 2.277l-.001-.003-3.262.06c-9.389.174-17.378 1.98-24.37 5.131-3.908 1.748-7.521 3.905-10.79 6.473-7.877 6.098-13.982 14.149-18.974 23.453a40 40 0 0 0-7.375 1.91c-2.86.992-5.717 2.273-8.577 3.789-2.094 1.106-4.135 2.388-6.175 3.729-12.011 8.048-22.449 19.768-25.423 29.914-2.041 6.995-2.856 13.176-2.975 18.657v3.381c.058 2.446.25 4.711.508 6.824l-1.497 1.456a50 50 0 0 0-3.032 3.089c-3.383 3.558-6.356 7.406-8.865 12.013-3.208 5.886-5.596 12.825-6.937 21.63-.354 2.508-.64 4.956-.76 7.288-.172 2.334-.172 4.723-.12 7.115.077 2.693.312 5.341.689 7.935l-.336-.297-1.981 5.772c-2.626 7.582-3.969 16.853-3.969 26.175v.761c0 4.841.353 9.618 1.049 14.286a84 84 0 0 0 1.122 5.7l-.883 2.46c-1.815 4.955-2.744 10.67-2.8 16.5v1.867c.057 4.078.52 8.166 1.397 12.067.466 1.982.992 3.91 1.628 5.719a43 43 0 0 0 2.22 5.364h.061c3.098 6.112 7.96 11.941 13.704 17.16l.52 2.953c1.456 8.279 3.556 16.381 6.879 23.902 3.437 7.756 8.101 14.812 14.749 20.816 3.37 3.06 7.308 6.183 11.5 8.731l1.617 2.814c6.709 11.365 15.86 22.679 26.124 31.253a80 80 0 0 0 6.124 4.723c1.979 1.46 4.135 2.794 6.355 4.078 1.631.936 3.378 1.692 5.247 2.395 3.768 1.383 8.012 2.327 12.393 2.872l2.294 2.023c12.248 10.785 31.139 23.497 50.32 27.923 1.753.412 3.502.761 5.308.995 4.254.645 8.451.816 12.532.463 2.007-.169 4-.477 5.987-.925 1.756 2.052 3.725 3.845 5.972 5.302 2.199 1.487 4.679 2.657 7.452 3.617v10.256L307.5 679.39l30.996-38.597v-10.256c2.773-.96 5.253-2.13 7.453-3.617 2.246-1.457 4.215-3.25 5.971-5.302a44 44 0 0 0 5.988.925c4.08.354 8.277.182 12.531-.463 1.807-.234 3.555-.583 5.307-.995 19.182-4.426 38.072-17.138 50.32-27.923l2.295-2.023c4.381-.545 8.625-1.489 12.393-2.872 1.869-.702 3.615-1.458 5.246-2.395 2.221-1.284 4.377-2.618 6.355-4.078a80 80 0 0 0 6.123-4.723c10.264-8.574 19.416-19.888 26.125-31.253l1.615-2.814c4.193-2.548 8.131-5.671 11.502-8.731 6.647-6.005 11.313-13.061 14.748-20.816 3.324-7.521 5.424-15.623 6.881-23.902l.519-2.953c5.744-5.219 10.606-11.048 13.705-17.16h.061a43 43 0 0 0 2.221-5.364c.637-1.809 1.162-3.736 1.627-5.719.879-3.901 1.342-7.989 1.398-12.067v-1.867c-.056-5.831-.986-11.546-2.8-16.501"/><path d="m337.85 209.015 1.162 2.776c2.336 5.653 5.717 10.318 9.738 14.164 4.021 3.792 8.691 6.767 13.818 9.096l.289.177c2.451.875 4.725 1.632 6.879 2.334.355.114.648.174.936.291 7.521 2.343 13.365 3.529 17.744 3.872.363.44.719.889 1.09 1.318 2.563 3.09 5.422 6.004 8.451 8.802 5.491 4.972 11.529 9.306 17.825 13.029l-80.303-18.76-3.855-32.648c-.215-1.892-.985-5.503-2.057-10.454l1.812 1.549c2.258 1.92 4.369 3.336 6.471 4.454" style="fill:#f58432"/><path d="M338.496 344.901h82.248l.769 1.532.34.786.043.099.047.098c8.378 17.527 12.575 36.013 12.477 54.943-.095 17.967-4.018 35.464-11.664 52.006-16.068 34.771-46.317 60.288-82.991 70.01l-.055.014-.055.016c-.383.109-.773.202-1.158.307z" style="fill:#248051"/><path d="M217.044 251.844c3.028-2.797 5.889-5.712 8.451-8.802.371-.429.727-.877 1.089-1.318 4.379-.342 10.223-1.528 17.744-3.872.287-.117.581-.177.936-.291a252 252 0 0 0 6.878-2.334l.289-.177c5.127-2.33 9.798-5.304 13.82-9.096 4.021-3.846 7.401-8.511 9.737-14.164l1.162-2.776c2.102-1.118 4.212-2.534 6.472-4.456l1.81-1.547c-1.072 4.951-1.842 8.561-2.058 10.46l-3.854 32.641-80.302 18.76c6.296-3.723 12.335-8.056 17.826-13.028M307.5 672.973l-26.979-33.594v-9.072c2.62-.878 5.027-1.763 7.244-2.686 3.2-1.31 5.968-2.656 8.395-4.025v1.343c0 1.982 1.986 4.078 3.966 4.139l7.228.173h.147zM489.523 382.995c-.123-.105-.25-.206-.373-.312a123 123 0 0 1-4.902-4.608 91 91 0 0 1-4.547-4.898c-12.504-14.601-19.928-33.063-17.736-55.211l-.918-.705a79 79 0 0 1-6.996-6.06c-7.059-6.708-14.113-15.397-19.59-24.781-1.404-2.449-2.685-4.957-3.906-7.524a81 81 0 0 1-3.148-7.753l-.059-.056-.064-.191c-.857-.396-1.713-.794-2.566-1.212-.652-.316-1.299-.654-1.947-.982l-1.885 2.895-15.599 23.958-1.418 2.178a32 32 0 0 0-3.293-.579l-62.079-18.795v19.342H307.5v-28.727l-26.979 8.168v20.559h-4.018V278.36l-62.259 18.849-1.629.493h-1.504l-1.398-2.146-15.599-23.958-1.884-2.895c-.649.328-1.296.666-1.947.982-.854.417-1.71.816-2.567 1.212l-.063.191-.06.056a81 81 0 0 1-3.147 7.753c-1.222 2.567-2.502 5.075-3.907 7.524-5.477 9.384-12.531 18.073-19.589 24.781a80 80 0 0 1-6.997 6.06l-.918.705c2.192 22.149-5.233 40.61-17.736 55.211a90 90 0 0 1-4.547 4.898 123 123 0 0 1-4.901 4.608c-.123.106-.251.206-.374.312 2.521 5.761 4.459 11.44 5.742 17.116 1.692 7.29 2.217 14.406 1.627 21.398a63 63 0 0 1-1.274 11.009q.411.27.809.536c12.303 8.454 16.968 27.69 17.436 43.675.054 3.104 0 5.995-.205 8.634l.323.224a57 57 0 0 1 4.02 2.974c1.226.994 2.449 2.098 3.732 3.325a.8.8 0 0 1 .234.18c6.062 5.822 11.019 12.708 14.113 18.478v.057c.056 0 .056 0 .056.059.871 1.574 1.631 3.208 2.329 4.78a55 55 0 0 1 1.751 4.84c.812 2.745 1.279 5.423 1.338 7.873v1.394c8.43 1.717 16.526 4.528 24.023 8.746a63 63 0 0 1 2.8 1.641 71.8 71.8 0 0 1 14.418 11.847l1.728-.307c5.251-.993 11.199 1.225 16.972 4.781 4.665 2.857 9.325 6.647 13.235 10.147 3.498-.469 7.286-.991 11.25-1.278 1.869-.182 3.792-.234 5.713-.297 6.998-.116 14.052.584 19.995 3.322 3.263 1.48 6.087 3.171 8.516 4.982v-9.468c0-2.041 2.04-4.083 4.082-4.083h14.52c2.035 0 4.078 2.042 4.078 4.083v9.468c2.43-1.811 5.254-3.502 8.518-4.982 5.943-2.738 12.996-3.438 19.994-3.322 1.922.063 3.844.115 5.713.297 3.965.287 7.754.81 11.252 1.278 3.908-3.499 8.568-7.289 13.234-10.147 5.773-3.557 11.721-5.774 16.973-4.781l1.727.307a71.8 71.8 0 0 1 14.42-11.847 64 64 0 0 1 2.799-1.641c7.498-4.218 15.594-7.029 24.023-8.746v-1.394c.059-2.45.525-5.128 1.338-7.873a55 55 0 0 1 1.752-4.84c.697-1.572 1.457-3.206 2.328-4.78 0-.059 0-.059.057-.059v-.057c3.094-5.77 8.051-12.655 14.113-18.478a.8.8 0 0 1 .234-.18c1.283-1.228 2.506-2.331 3.732-3.325a58 58 0 0 1 4.02-2.974l.322-.224c-.205-2.639-.258-5.529-.205-8.634.469-15.984 5.133-35.221 17.438-43.675q.397-.267.809-.536a63 63 0 0 1-1.275-11.009c-.59-6.992-.065-14.108 1.629-21.398 1.281-5.677 3.221-11.356 5.74-17.117m-171.628-80.118.547-.606v2.545h2.363c.615 0 1.154-.014 1.658-.026.445-.009.869-.02 1.209-.02 1.148 0 1.766.202 1.766 1.881v22.33c0 1.846-1.453 1.821-3.414 1.791-.383-.005-.779-.013-1.219-.013h-.5l1.25-7.766.008-.045.115-.814.375-2.684h-7.387l-.416 1.855-.072.328c-1.136 3.583-3.629 5.595-6.678 6.717v-13.996zm-39.193 10.978.547-1.605a9.7 9.7 0 0 1 1.273-2.516v10.178l-4.018 4.426v-10.483zm1.819 31.046v186.788a105 105 0 0 1-6.779-1.678c-77.841-20.633-122.734-108.149-85.946-185.111l.405-.935 2.454-4.896h85.849v-1.194h4.018v7.026zm60.737 185.111c-10.842 3.1-21.98 4.379-33.758 4.379V337.875h30.996v1.194h85.849l2.454 4.896.405.935c36.788 76.962-8.105 164.479-85.946 185.112" style="fill:#f58432"/><path d="M276.504 344.901v179.813c-.386-.104-.776-.201-1.159-.311l-.054-.016-.055-.014c-36.674-9.722-66.923-35.239-82.992-70.01-7.645-16.542-11.569-34.039-11.663-52.006-.1-18.931 4.098-37.416 12.476-54.943l.047-.098.043-.1.34-.786.768-1.531h82.249z" style="fill:#2d5191"/><path d="m331.819 249.384-.164-1.397-4.022-34.051v-.009c-.211-1.854-1.089-5.89-2.26-11.298-2.831-13.048-7.373-33.978-8.775-53.041l-.117-1.572 1.522-.485c.852-.269 2.126-.642 3.42-1.021 7.376-2.155 15.751-4.603 15.58-12.355v-.023c-.045-4.868-3.137-8.772-7.84-11.567-5.684-3.381-13.672-5.158-21.663-5.158s-15.979 1.777-21.663 5.158c-4.703 2.795-7.795 6.699-7.84 11.567v.023c-.171 7.752 8.204 10.2 15.58 12.355 1.294.378 2.568.751 3.42 1.021l1.521.485-.117 1.572c-1.402 19.063-5.944 39.993-8.775 53.041-1.171 5.408-2.049 9.444-2.26 11.298v.009l-4.021 34.051-.164 1.397-85.698 20.02 15.599 23.958 94.419-28.586 94.419 28.586 15.599-23.958z" style="fill:#b1b6bb"/><path d="M307.501 140.541c-6.182 0-11.195-2.973-11.195-6.53 0-3.615 5.014-6.531 11.195-6.531 6.184 0 11.193 2.916 11.193 6.531 0 3.556-5.009 6.53-11.193 6.53"/><path d="M209.29 223.332c-2.684 0-4.842 2.218-4.842 4.898 0 2.623 2.158 4.841 4.842 4.841 2.68 0 4.833-2.218 4.833-4.841 0-2.68-2.154-4.898-4.833-4.898M154.015 267.061c-2.684 0-4.897 2.218-4.897 4.902 0 2.678 2.214 4.835 4.897 4.835a4.823 4.823 0 0 0 4.833-4.835c0-2.684-2.154-4.902-4.833-4.902M104.22 393.584a4.825 4.825 0 0 0-4.838 4.835c0 2.685 2.158 4.904 4.838 4.904 2.684 0 4.901-2.22 4.901-4.904.001-2.679-2.217-4.835-4.901-4.835M108.536 444.836a4.827 4.827 0 0 0-4.842 4.835c0 2.679 2.161 4.895 4.842 4.895 2.682 0 4.897-2.216 4.897-4.895 0-2.682-2.215-4.835-4.897-4.835M141.654 509.548c-2.686 0-4.9 2.218-4.9 4.899 0 2.684 2.214 4.842 4.9 4.842a4.826 4.826 0 0 0 4.839-4.842c0-2.681-2.154-4.899-4.839-4.899M234.123 577.596c-2.682 0-4.896 2.155-4.896 4.84 0 2.682 2.214 4.896 4.896 4.896s4.84-2.214 4.84-4.896a4.827 4.827 0 0 0-4.84-4.84M172.961 538.408c-2.68 0-4.897 2.162-4.897 4.845 0 2.681 2.218 4.896 4.897 4.896 2.681 0 4.842-2.215 4.842-4.896a4.835 4.835 0 0 0-4.842-4.845M115.213 327.652c-2.684 0-4.899 2.216-4.899 4.9 0 2.68 2.215 4.838 4.899 4.838a4.83 4.83 0 0 0 4.837-4.838c0-2.684-2.157-4.9-4.837-4.9M405.711 223.332c2.684 0 4.842 2.218 4.842 4.898 0 2.623-2.158 4.841-4.842 4.841-2.68 0-4.834-2.218-4.834-4.841 0-2.68 2.154-4.898 4.834-4.898M460.986 267.061c2.684 0 4.896 2.218 4.896 4.902 0 2.678-2.213 4.835-4.896 4.835a4.824 4.824 0 0 1-4.834-4.835c0-2.684 2.155-4.902 4.834-4.902M510.779 393.584a4.826 4.826 0 0 1 4.84 4.835c0 2.685-2.158 4.904-4.84 4.904-2.684 0-4.9-2.22-4.9-4.904 0-2.679 2.217-4.835 4.9-4.835M506.465 444.836a4.827 4.827 0 0 1 4.842 4.835c0 2.679-2.162 4.895-4.842 4.895-2.684 0-4.898-2.216-4.898-4.895-.001-2.682 2.214-4.835 4.898-4.835M473.346 509.548c2.688 0 4.9 2.218 4.9 4.899 0 2.684-2.213 4.842-4.9 4.842a4.826 4.826 0 0 1-4.838-4.842c0-2.681 2.154-4.899 4.838-4.899M380.877 577.596c2.682 0 4.896 2.155 4.896 4.84 0 2.682-2.215 4.896-4.896 4.896s-4.84-2.214-4.84-4.896a4.827 4.827 0 0 1 4.84-4.84M442.039 538.408c2.68 0 4.898 2.162 4.898 4.845 0 2.681-2.219 4.896-4.898 4.896-2.682 0-4.842-2.215-4.842-4.896a4.834 4.834 0 0 1 4.842-4.845M499.787 327.652c2.684 0 4.898 2.216 4.898 4.9 0 2.68-2.215 4.838-4.898 4.838a4.83 4.83 0 0 1-4.838-4.838c0-2.684 2.158-4.9 4.838-4.9" style="fill:#fff"/><path d="M286.016 571.878c-10.671-4.842-25.831-2.681-36.622-1.104-8.156-7.524-19.995-16.793-28.154-15.284-.852 7.888 1.812 14.729 6.612 20.567 1.624-1.586 3.806-2.605 6.27-2.605 2.449 0 4.663.993 6.296 2.621 1.635 1.641 2.68 3.915 2.68 6.363 0 .117-.014.232-.018.349 6.413.729 12.666 1.795 18.506 3.205 8.805 2.156 15.86 5.19 19.942 8.749.261.219.504.444.745.671a592 592 0 0 1 5.492-5.164 505 505 0 0 1 8.395-7.38v-4.496c-2.605-2.371-5.984-4.599-10.144-6.492M393.76 555.489c-8.158-1.509-19.998 7.76-28.154 15.284-10.789-1.576-25.951-3.737-36.621 1.104-4.16 1.893-7.539 4.121-10.145 6.491v4.496a509 509 0 0 1 8.395 7.38 592 592 0 0 1 5.492 5.164c.24-.227.484-.452.744-.671 4.082-3.559 11.137-6.593 19.943-8.749 5.838-1.41 12.092-2.476 18.506-3.205-.006-.116-.02-.231-.02-.349 0-2.448 1.045-4.723 2.68-6.363 1.635-1.628 3.848-2.621 6.297-2.621 2.465 0 4.646 1.02 6.269 2.605 4.801-5.837 7.465-12.678 6.614-20.566M166.606 549.606a8.88 8.88 0 0 1-2.624-6.354c0-.769.108-1.511.292-2.222-12.581-3.014-24.601.604-30.322 2.689 8.983 15.335 22.622 30.32 37.089 38.599 4.419 2.504 10.249 4.063 16.404 4.797l2.951-.953h.06a97 97 0 0 1 12.499-2.899q-.735-.364-1.424-.773c-4.896-2.68-9.271-6.418-13.526-11.429-4.434-5.246-8.808-11.017-12.363-17.198-.334-.594-.648-1.196-.966-1.798a9 9 0 0 1-1.715.168 8.89 8.89 0 0 1-6.355-2.627M217.161 561.676v-5.533c-12.192-13.805-27.861-20.68-44.726-23.383.069.513.164 1.019.251 1.528.092-.003.182-.015.274-.015 2.447 0 4.667 1.053 6.295 2.681 1.636 1.636 2.688 3.85 2.688 6.299 0 2.501-1.052 4.726-2.626 6.354a9 9 0 0 1-.882.761c3.495 6.517 8.05 12.554 12.718 18.075 6.202 7.331 12.593 11.623 20.66 13.758a143 143 0 0 1 13.369-.517 9 9 0 0 1 .38-1.953c-4.58-5.2-7.66-11.204-8.401-18.055M279.323 598.252c-3.558-3.321-10.166-6.221-18.668-8.302-5.873-1.417-12.197-2.493-18.675-3.208a9.5 9.5 0 0 1-1.499 2.047 9.02 9.02 0 0 1-6.357 2.621 8.91 8.91 0 0 1-8.338-5.654c-12.295-.122-24.317 1.207-34.164 4.313 16.635 14.7 45.837 32.98 70.493 27.563.128-.592.352-1.143.694-1.558 4.375-5.245 9.505-10.843 15.453-16.79.35-.344.708-.688 1.061-1.032M135.299 520.807a8.98 8.98 0 0 1-.405-12.264c-9.72-9.34-21.774-16.169-35.221-19.686 2.801 15.918 8.044 31.186 20.348 42.385 3.482 3.143 7.587 6.38 11.886 8.866l.65-.239c4.023-1.459 10.961-3.614 19.068-4.021a54 54 0 0 1 3.53-.05c-.806-4.119-4.139-9.217-8.166-14.18-1.503 1.123-3.362 1.811-5.335 1.811-2.449-.001-4.727-1.046-6.355-2.622M168.7 535.379a43 43 0 0 1-.343-2.097l-.699-5.419 5.423.873c.116.019.23.043.347.062-.017-4.675-1.814-10.405-5.011-16.331-4.144-7.642-11.662-17.377-20.818-23.497-4.468 4.746-5.638 10.742-5.093 16.543 2.117.201 4.056 1.142 5.443 2.582 1.635 1.636 2.685 3.903 2.685 6.353a8.76 8.76 0 0 1-.972 3.967c.127.155.26.309.385.465.061.059.12.059.12.117 1.808 2.217 3.499 4.432 4.893 6.647 2.333 3.662 3.957 7.213 4.429 10.417 2.231.235 4.506.642 6.797 1.247.106-.118.208-.24.32-.352a9.4 9.4 0 0 1 2.094-1.577M138.327 504.302v-2.852c.234-5.37 2.042-10.792 6.296-15.279l.86-.899c1.19-16.505-2.443-41.423-16.773-49.712-11.023 10.034-12.425 29.975-5.191 49.387 1.914 5.131 3.695 9.594 5.369 13.237a80 80 0 0 1 9.392 7.946q.093-.034.185-.067a33 33 0 0 1-.138-1.761M106.729 486.695c1.983.644 3.904 1.401 5.83 2.219a87 87 0 0 1 10.171 5.204 264 264 0 0 1-3-7.712c-2.859-7.58-4.43-15.219-4.724-22.446v-4.788c.055-1.225.165-2.421.298-3.605-.135.155-.269.311-.414.456a8.88 8.88 0 0 1-6.354 2.626 8.86 8.86 0 0 1-6.303-2.626c-1.628-1.629-2.68-3.903-2.68-6.352 0-1.49.393-2.89 1.051-4.126-5.621-2.822-10.843-6.183-17.843-16.223-4.135 11.492-3.203 27.463 2.28 38.245 3.061 5.979 7.965 11.719 13.748 16.811l1.933.512c2.101.523 4.081 1.162 6.007 1.805M102.706 410.079a577 577 0 0 0-1.063-3.063 8.94 8.94 0 0 1-3.718-2.235c-1.635-1.64-2.688-3.853-2.688-6.362 0-1.534.415-2.977 1.113-4.243-2.614-5.079-5.99-9.903-10.903-14.293-4.212 12.222-4.846 29.245-1.929 43.331l2.629 3.778c6.179 8.862 10.846 12.068 15.741 14.575.492.275 1 .535 1.515.788a9.04 9.04 0 0 1 3.815-1.546c-.602-10.647-2.686-23.464-4.512-30.73M110.575 404.781a8.9 8.9 0 0 1-2.979 1.968 85 85 0 0 0-.747 3.076c1.868 7.67 3.93 20.604 4.501 31.335a9.4 9.4 0 0 1 3.539 2.158 8.9 8.9 0 0 1 2.182 3.577 39 39 0 0 1 .788-2.296 41 41 0 0 1 3.328-6.529c1.399-2.042 2.974-3.905 4.723-5.539l1.8-1.658c.58-3.097.932-6.375 1-9.713 1.221-13.229-2.1-26.818-9.096-41.16-3.092 4.777-5.586 9.444-7.592 14.029a8.8 8.8 0 0 1 1.176 4.39 8.92 8.92 0 0 1-2.623 6.362M108.978 390.857c.348-.756.701-1.513 1.074-2.273 2.231-17.536 3.192-33.657 1.671-47.795a8.9 8.9 0 0 1-2.895-1.942c-1.634-1.634-2.626-3.849-2.626-6.295v-.06c0-2.449.992-4.663 2.626-6.298.044-.044.094-.083.139-.126-.89-3.19-1.945-6.256-3.232-9.154-8.628 8.395-15.041 17.84-17.547 34.4-1.386 9.124-1.176 18.102.768 26.25 2.115 1.946 3.974 3.979 5.586 6.109a54.6 54.6 0 0 1 4.733 7.302c1.43-.956 3.139-1.53 4.945-1.53 1.732-.001 3.368.53 4.758 1.412M121.536 338.847a9 9 0 0 1-5.628 2.587c.256 2.502.449 5.05.558 7.663.06 1.867.116 3.79.116 5.77v1.226c-.039 7.314-.521 15.069-1.33 23.168.308-.493.601-.984.921-1.479l.642-.989 3.327-5.074 3.147 6.534c.137.28.263.558.397.837 19.549-17.328 31.267-42.03 22.92-73.722-10.169 6.501-18.516 13.927-24.557 21.453 1.301 1.555 2.111 3.529 2.111 5.73-.002 2.447-1.054 4.662-2.624 6.296M118.797 324.349c3.157-3.934 6.864-7.813 11.077-11.573q.437-.352.878-.699c1.86-1.576 3.847-3.21 6.061-4.843 2.566-1.922 5.074-3.73 7.58-5.302l.046-.03a189 189 0 0 0 7.542-21.255 8.9 8.9 0 0 1-4.322-2.389c-1.635-1.634-2.623-3.848-2.623-6.294v-.061c0-2.452.988-4.663 2.623-6.297a9 9 0 0 1 8.18-2.434c.811-5.71 1.01-10.864.39-14.998-18.02 2.335-40.987 21.512-45.419 36.614-3.42 11.747-3.206 21.229-2.163 28.522l.877 1.972c1.211 2.764 2.225 5.664 3.098 8.663a9 9 0 0 1 2.563-.374 8.8 8.8 0 0 1 3.612.778M200.31 228.173c0-2.449.989-4.663 2.624-6.299a9 9 0 0 1 5.757-2.589c.407-1.812.45-3.765-.045-5.92-24.33.467-39.013 12.713-49.104 30.279l.129-.017.581 3.963c.107.59.188 1.22.251 1.872 13.458-2.454 26.93-5.354 39.747-17.906l.533-.541a8.5 8.5 0 0 1-.473-2.783z" style="fill:#c7cacf"/><path d="M162.99 271.963a8.7 8.7 0 0 1-.752 3.516c.326-.083.637-.15.985-.255 24.143-6.122 51.253-20.347 66.06-44.311-3.615-1.067-7.324-1.651-11.061-1.846a8.86 8.86 0 0 1-2.585 5.462 9 9 0 0 1-6.348 2.624c-2.422 0-4.669-.973-6.242-2.57-6.219 6.034-12.497 9.981-18.831 12.658-7.692 3.301-15.433 4.84-23.177 6.26-.126.144-.261.288-.384.431v1.122c-.09 3.078-.435 6.431-.993 9.964q.336.278.647.587c1.633 1.634 2.681 3.845 2.681 6.358M149.516 300.246l1.058 4.133a90 90 0 0 1 1.85 8.84c11.168-8.865 23.649-24.144 30.057-40.048a136 136 0 0 1-18.09 5.962c-2.542.827-4.771 1.074-6.584.899a9 9 0 0 1-1.623.572 194 194 0 0 1-6.668 19.642" style="fill:#c7cacf"/><path d="M232.723 233.071a82 82 0 0 1-2.717 4.13c5.105-.823 11.92-2.65 20.732-5.879 9.447-4.259 17.205-10.907 21.518-21.107-8.221-3.031-22.914-.059-24.955 1.109-4.954 2.794-17.73 11.496-21.463 14.518 1.528.298 3.048.662 4.552 1.108l2.394.698 2.799.876-2.766 4.434c.009-.001.011-.003.026-.003l-.06.057zM247.632 206.924c3.662-1.031 10.478-2.267 16.695-2.132 1.629.059 3.201.177 4.724.408 1.503.223 3.011.556 4.364 1.046 2.49-1.115 4.909-2.595 7.527-4.835-21.281-8.454-31.252-7.055-41.164-1.167 2.097 2.935 4.741 5.123 7.854 6.68M217.622 224.941c.745.028 1.49.045 2.233.102a30 30 0 0 1 2.784-1.826c2.452-2.101 9.972-7.405 16.034-11.37 1.458-.932 2.682-1.691 3.617-2.273.293-.181.569-.348.842-.514a25 25 0 0 1-6.672-6.424l-.6-.846c-8.608 1.954-18.076 6.235-22.92 12.315.104.735.164 1.446.196 2.117v1.166a15.6 15.6 0 0 1-.321 2.587 8.5 8.5 0 0 1 2.771 1.898 9.4 9.4 0 0 1 2.036 3.068M448.395 549.606a8.88 8.88 0 0 0 2.623-6.354c0-.769-.107-1.511-.291-2.222 12.58-3.014 24.6.604 30.32 2.689-8.982 15.335-22.621 30.32-37.088 38.599-4.418 2.504-10.25 4.063-16.404 4.797l-2.951-.953h-.06a97 97 0 0 0-12.498-2.899q.735-.364 1.424-.773c4.896-2.68 9.271-6.418 13.525-11.429 4.434-5.246 8.809-11.017 12.363-17.198.334-.594.648-1.196.967-1.798a9 9 0 0 0 1.715.168c2.501 0 4.72-.989 6.355-2.627M397.84 561.676v-5.533c12.191-13.805 27.861-20.68 44.725-23.383-.068.513-.164 1.019-.25 1.528-.092-.003-.182-.015-.275-.015-2.447 0-4.666 1.053-6.295 2.681-1.637 1.636-2.688 3.85-2.688 6.299 0 2.501 1.051 4.726 2.627 6.354.273.275.572.524.881.761-3.494 6.517-8.051 12.554-12.719 18.075-6.201 7.331-12.592 11.623-20.658 13.758a143 143 0 0 0-13.369-.517 9 9 0 0 0-.381-1.953c4.58-5.2 7.66-11.204 8.402-18.055M335.678 598.252c3.557-3.321 10.166-6.221 18.668-8.302 5.873-1.417 12.197-2.493 18.676-3.208.41.754.918 1.445 1.498 2.047a9.02 9.02 0 0 0 6.358 2.621 8.9 8.9 0 0 0 8.337-5.654c12.295-.122 24.318 1.207 34.164 4.313-16.635 14.7-45.836 32.98-70.492 27.563-.129-.592-.352-1.143-.695-1.558-4.375-5.245-9.504-10.843-15.453-16.79-.35-.344-.708-.688-1.061-1.032M479.701 520.807a9 9 0 0 0 2.629-6.359 8.99 8.99 0 0 0-2.223-5.905c9.719-9.34 21.773-16.169 35.221-19.686-2.801 15.918-8.045 31.186-20.35 42.385-3.48 3.143-7.586 6.38-11.885 8.866l-.65-.239c-4.023-1.459-10.961-3.614-19.068-4.021a54 54 0 0 0-3.529-.05c.805-4.119 4.139-9.217 8.166-14.18 1.502 1.123 3.361 1.811 5.334 1.811 2.449-.001 4.728-1.046 6.355-2.622M446.301 535.379c.129-.694.248-1.392.344-2.097l.697-5.419-5.422.873c-.117.019-.23.043-.348.062.017-4.675 1.814-10.405 5.012-16.331 4.143-7.642 11.662-17.377 20.818-23.497 4.469 4.746 5.639 10.742 5.092 16.543-2.115.201-4.055 1.142-5.443 2.582-1.635 1.636-2.684 3.903-2.684 6.353 0 1.424.363 2.767.971 3.967-.127.155-.26.309-.385.465-.061.059-.119.059-.119.117-1.809 2.217-3.5 4.432-4.893 6.647-2.334 3.662-3.959 7.213-4.43 10.417-2.23.235-4.506.642-6.797 1.247-.107-.118-.209-.24-.32-.352a9.4 9.4 0 0 0-2.093-1.577M476.674 504.302v-2.852c-.234-5.37-2.043-10.792-6.297-15.279l-.861-.899c-1.189-16.505 2.443-41.423 16.773-49.712 11.023 10.034 12.426 29.975 5.191 49.387-1.912 5.131-3.695 9.594-5.369 13.237a80 80 0 0 0-9.391 7.946q-.094-.034-.186-.067c.06-.585.112-1.171.14-1.761M508.271 486.695c-1.982.644-3.904 1.401-5.83 2.219a87 87 0 0 0-10.172 5.204 262 262 0 0 0 3-7.712c2.859-7.58 4.432-15.219 4.725-22.446v-4.788a53 53 0 0 0-.299-3.605c.135.155.27.311.414.456a8.88 8.88 0 0 0 6.355 2.626 8.86 8.86 0 0 0 6.303-2.626c1.627-1.629 2.68-3.903 2.68-6.352 0-1.49-.393-2.89-1.051-4.126 5.621-2.822 10.842-6.183 17.842-16.223 4.137 11.492 3.203 27.463-2.279 38.245-3.061 5.979-7.965 11.719-13.748 16.811l-1.934.512c-2.099.523-4.08 1.162-6.006 1.805M512.295 410.079q.527-1.537 1.063-3.063a8.94 8.94 0 0 0 3.717-2.235c1.635-1.64 2.69-3.853 2.69-6.362a8.8 8.8 0 0 0-1.113-4.243c2.613-5.079 5.99-9.903 10.902-14.293 4.213 12.222 4.846 29.245 1.93 43.331l-2.629 3.778c-6.18 8.862-10.848 12.068-15.742 14.575-.49.275-1 .535-1.514.788a9.04 9.04 0 0 0-3.816-1.546c.602-10.647 2.686-23.464 4.512-30.73M504.426 404.781a8.9 8.9 0 0 0 2.979 1.968c.268 1.028.52 2.054.746 3.076-1.867 7.67-3.93 20.604-4.502 31.335a9.4 9.4 0 0 0-3.539 2.158 8.94 8.94 0 0 0-2.182 3.577 40 40 0 0 0-.787-2.296 41 41 0 0 0-3.328-6.529c-1.4-2.042-2.975-3.905-4.723-5.539l-1.801-1.658a59.6 59.6 0 0 1-1-9.713c-1.221-13.229 2.102-26.818 9.096-41.16 3.092 4.777 5.586 9.444 7.592 14.029a8.8 8.8 0 0 0-1.176 4.39c0 2.509.994 4.723 2.625 6.362M506.023 390.857c-.348-.756-.701-1.513-1.074-2.273-2.232-17.536-3.193-33.657-1.672-47.795a8.9 8.9 0 0 0 2.895-1.942c1.635-1.634 2.625-3.849 2.625-6.295v-.06c0-2.449-.99-4.663-2.625-6.298-.045-.044-.094-.083-.139-.126.889-3.19 1.945-6.256 3.232-9.154 8.627 8.395 15.039 17.84 17.547 34.4 1.385 9.124 1.176 18.102-.768 26.25-2.115 1.946-3.975 3.979-5.588 6.109a54.6 54.6 0 0 0-4.732 7.302c-1.43-.956-3.139-1.53-4.945-1.53-1.73-.001-3.367.53-4.756 1.412M493.465 338.847a9 9 0 0 0 5.627 2.587c-.256 2.502-.449 5.05-.557 7.663-.061 1.867-.117 3.79-.117 5.77v1.226c.041 7.314.521 15.069 1.33 23.168-.307-.493-.6-.984-.92-1.479l-.643-.989-3.326-5.074-3.146 6.534c-.137.28-.264.558-.397.837-19.549-17.328-31.268-42.03-22.92-73.722 10.168 6.501 18.516 13.927 24.557 21.453-1.301 1.555-2.111 3.529-2.111 5.73 0 2.447 1.053 4.662 2.623 6.296M496.203 324.349c-3.156-3.934-6.863-7.813-11.076-11.573q-.438-.352-.879-.699c-1.859-1.576-3.846-3.21-6.06-4.843-2.566-1.922-5.074-3.73-7.58-5.302l-.045-.03a189 189 0 0 1-7.543-21.255 8.9 8.9 0 0 0 4.322-2.389c1.635-1.634 2.623-3.848 2.623-6.294v-.061c0-2.452-.988-4.663-2.623-6.297a9 9 0 0 0-8.179-2.434c-.813-5.71-1.01-10.864-.391-14.998 18.02 2.335 40.988 21.512 45.42 36.614 3.42 11.747 3.205 21.229 2.162 28.522l-.877 1.972c-1.211 2.764-2.225 5.664-3.098 8.663a9 9 0 0 0-2.563-.374 8.8 8.8 0 0 0-3.613.778M414.691 228.173c0-2.449-.99-4.663-2.625-6.299a9 9 0 0 0-5.756-2.589c-.408-1.812-.451-3.765.045-5.92 24.328.467 39.012 12.713 49.104 30.279l-.129-.017-.582 3.963a23 23 0 0 0-.25 1.872c-13.459-2.454-26.93-5.354-39.748-17.906l-.533-.541c.303-.877.475-1.81.475-2.783z" style="fill:#c7cacf"/><path d="M452.01 271.963c0 1.248.275 2.435.752 3.516-.326-.083-.637-.15-.984-.255-24.145-6.122-51.254-20.347-66.06-44.311 3.615-1.067 7.324-1.651 11.06-1.846a8.86 8.86 0 0 0 2.586 5.462 8.98 8.98 0 0 0 6.348 2.624c2.422 0 4.67-.973 6.242-2.57 6.219 6.034 12.496 9.981 18.83 12.658 7.691 3.301 15.434 4.84 23.176 6.26.127.144.262.288.385.431v1.122c.09 3.078.436 6.431.992 9.964a9 9 0 0 0-.646.587c-1.632 1.634-2.681 3.845-2.681 6.358M465.484 300.246l-1.059 4.133a91 91 0 0 0-1.85 8.84c-11.168-8.865-23.648-24.144-30.057-40.048a136 136 0 0 0 18.09 5.962c2.541.827 4.772 1.074 6.584.899a9 9 0 0 0 1.623.572 194 194 0 0 0 6.669 19.642" style="fill:#c7cacf"/><path d="M382.277 233.071a82 82 0 0 0 2.717 4.13c-5.105-.823-11.92-2.65-20.732-5.879-9.445-4.259-17.205-10.907-21.518-21.107 8.221-3.031 22.914-.059 24.955 1.109 4.955 2.794 17.73 11.496 21.463 14.518a49 49 0 0 0-4.551 1.108l-2.395.698-2.799.876 2.766 4.434c-.008-.001-.012-.003-.025-.003l.059.057zM367.367 206.924c-3.66-1.031-10.478-2.267-16.695-2.132-1.629.059-3.201.177-4.723.408-1.504.223-3.012.556-4.365 1.046-2.49-1.115-4.908-2.595-7.527-4.835 21.281-8.454 31.252-7.055 41.164-1.167-2.096 2.935-4.741 5.123-7.854 6.68M397.379 224.941c-.744.028-1.49.045-2.232.102a30 30 0 0 0-2.785-1.826c-2.451-2.101-9.971-7.405-16.033-11.37-1.457-.932-2.682-1.691-3.617-2.273-.293-.181-.568-.348-.842-.514a25 25 0 0 0 6.672-6.424l.602-.846c8.607 1.954 18.074 6.235 22.92 12.315a23 23 0 0 0-.197 2.117v1.166c.029.901.154 1.755.322 2.587a8.5 8.5 0 0 0-2.772 1.898 9.3 9.3 0 0 0-2.038 3.068M265.956 618.701c3.207 3.728 7.056 6.409 12.305 8.102 7.813-2.574 13.604-5.278 17.898-8.066v-30.44c-12.536 10.968-22.427 21.077-30.203 30.404M318.84 588.296v30.44c4.295 2.788 10.086 5.492 17.898 8.066 5.25-1.692 9.098-4.373 12.305-8.102-7.775-9.326-17.666-19.435-30.203-30.404M300.242 563.661v61.277l7.231.172 7.289-.172v-61.277z" style="fill:#c7cacf"/><path d="M257.794 608.203c-6.47-1.107-15.099-1.515-20.287-3.089-6.651-2.044-8.865-5.192-6.945-5.887 13.828-5.247 38.135 10.841 27.232 8.976M285.836 584.469c-12.997.528-23.901-2.852-26.409-5.479-6.59-6.822 33.237 5.193 26.409 5.479M215.352 570.826c-8.457-2.329-19.477-15.154-20.291-18.13-2.801-10.784 28.22 20.354 20.291 18.13M174.074 571.237c-11.839-11.371-25.715-24.194-18.66-22.451 8.628 2.22 26.348 29.861 18.66 22.451M162.35 527.568c-2.795-7.345-10.959-22.68-4.896-16.91 10.554 10.089 7.75 24.485 4.896 16.91M140.895 530.012c-19.649-6.873-30.203-16.262-23.266-17.897 5.485-1.34 27.054 19.241 23.266 17.897M134.307 494.332c-3.615-30.138.699-43.963 2.971-20.696 1.515 15.334-1.456 33.468-2.971 20.696M109.352 484.13c-9.738-16.147-27.403-25.65-17.143-26.117 8.396-.353 23.611 36.787 17.143 26.117M117.575 434.628c-5.716-2.272.931-36.966 2.273-27.399 1.282 9.386 1.225 28.799-2.273 27.399M97.227 426.703c.232 4.95-12.597-23.269-8.11-19.535 12.305 10.145 7.584 6.008 8.11 19.535M102.997 379.417c-4.838 5.829-7.698-11.603-2.681-31.369 1.804-7.112 4.547 29.093 2.681 31.369M128.651 357.203c-14.692 12.711-4.314-10.319 9.558-29.443 8.515-11.721.118 20.989-9.558 29.443M115.593 306.941c-1.694-16.148 33.875-56.493 22.793-36.673-13.292 23.849-21.221 50.727-22.793 36.673M157.803 296.448c6.588 3.207 14.459-19.589 8.28-15.567-4.371 2.857-11.37 14.05-8.28 15.567M172.961 262.807c12.359-5.128 28.743-4.196 37.609-21.222 3.147-5.948-49.793 26.353-37.609 21.222M173.547 239.949c3.376-2.973 27.984-14.692 19.649-16.617-12.944-2.972-26.879 23.031-19.649 16.617M357.207 608.203c6.469-1.107 15.098-1.515 20.287-3.089 6.65-2.044 8.863-5.192 6.945-5.887-13.828-5.247-38.136 10.841-27.232 8.976M329.164 584.469c12.996.528 23.9-2.852 26.408-5.479 6.592-6.822-33.236 5.193-26.408 5.479M399.648 570.826c8.457-2.329 19.477-15.154 20.291-18.13 2.801-10.784-28.22 20.354-20.291 18.13M440.926 571.237c11.84-11.371 25.715-24.194 18.66-22.451-8.627 2.22-26.348 29.861-18.66 22.451M452.65 527.568c2.795-7.345 10.959-22.68 4.895-16.91-10.553 10.089-7.748 24.485-4.895 16.91M474.105 530.012c19.648-6.873 30.203-16.262 23.266-17.897-5.484-1.34-27.055 19.241-23.266 17.897M480.693 494.332c3.615-30.138-.699-43.963-2.971-20.696-1.515 15.334 1.456 33.468 2.971 20.696M505.648 484.13c9.738-16.147 27.402-25.65 17.143-26.117-8.397-.353-23.611 36.787-17.143 26.117M497.426 434.628c5.715-2.272-.932-36.966-2.273-27.399-1.282 9.386-1.225 28.799 2.273 27.399M517.773 426.703c-.232 4.95 12.598-23.269 8.109-19.535-12.304 10.145-7.583 6.008-8.109 19.535M512.004 379.417c4.838 5.829 7.697-11.603 2.68-31.369-1.803-7.112-4.547 29.093-2.68 31.369M486.35 357.203c14.691 12.711 4.315-10.319-9.559-29.443-8.516-11.721-.117 20.989 9.559 29.443M499.406 306.941c1.695-16.148-33.873-56.493-22.793-36.673 13.293 23.849 21.223 50.727 22.793 36.673M457.197 296.448c-6.588 3.207-14.459-19.589-8.279-15.567 4.369 2.857 11.369 14.05 8.279 15.567M442.039 262.807c-12.359-5.128-28.742-4.196-37.609-21.222-3.147-5.948 49.793 26.353 37.609 21.222M441.453 239.949c-3.375-2.973-27.984-14.692-19.648-16.617 12.943-2.972 26.879 23.031 19.648 16.617" style="fill:#7c8086"/><path d="M444.238 336.038c1.98 0 3.787-.818 5.129-2.157 1.281-1.284 2.098-3.15 2.098-5.131 0-1.984-.816-3.792-2.098-5.132-1.342-1.283-3.148-2.098-5.129-2.098-1.986 0-3.852.815-5.131 2.098-1.342 1.34-2.16 3.148-2.16 5.132 0 1.981.818 3.847 2.16 5.131 1.28 1.339 3.145 2.157 5.131 2.157M307.685 546.224c-3.497 0-6.474 2.917-6.474 6.532 0 3.556 2.977 6.531 6.474 6.531 3.615 0 6.531-2.976 6.531-6.531a6.52 6.52 0 0 0-6.531-6.532M165.716 453.112a6.5 6.5 0 0 0 2.212.929c1.108.299 2.273.299 3.559-.052 1.691-.47 3.03-1.342 4.022-2.682 1.049-1.343 1.575-2.92 1.635-4.609 0-1.69-.413-4.255-1.344-7.693l-3.498-13.12-.76.234c.355 1.277.466 2.212.355 2.733q-.18.795-.703 1.227c-.352.295-1.282.647-2.8 1.052l-.466.173-17.842 4.785c-1.574.407-2.506.522-2.972.468-.406-.115-.814-.353-1.229-.702-.347-.409-.695-1.285-1.047-2.564l-.755.173 3.842 14.462.763-.174c-.349-1.339-.469-2.222-.349-2.804.111-.523.349-.929.697-1.225q.528-.435 2.797-1.046l7.931-2.098.467 1.864-10.437 12.532 2.392 8.867.761-.177c-.12-.758-.061-1.515.231-2.214.173-.408.756-1.285 1.748-2.513l7.751-9.323c.877 1.631 1.929 2.8 3.039 3.497m-2.452-7.583c-.641-.872-1.166-2.268-1.688-4.192l-.353-1.169 6.705-1.81 5.654-1.516.641 2.218c.586 2.276.466 4.023-.286 5.31-.759 1.276-2.16 2.215-4.317 2.797-.64.117-1.166.234-1.691.289-.813.063-1.515 0-2.162-.172-1.048-.295-1.92-.872-2.503-1.755M215.976 518.183c1.511-.118 2.738-.703 3.724-1.749.12-.116.239-.232.357-.41a6.4 6.4 0 0 0 1.338-3.15c.234-1.395 0-2.803-.583-4.194-.172-.407-.466-.875-.755-1.346-.823-1.165-2.104-2.56-3.853-4.2l-5.652-5.299-4.314-3.967-.293-.29-.523.585c.286.287.583.574.816.809.465.53.812.993.93 1.349.174.525.235.991.061 1.397-.061.35-.408.814-.99 1.512-.233.297-.53.586-.816.879l-3.732 4.025-9.211 9.853c-.816.875-1.462 1.513-1.868 1.803-.175.058-.294.116-.349.178q-.613.26-1.399 0c-.527-.12-1.282-.642-2.273-1.575l-.583.586 4.604 4.255 6.295 5.889c1.635 1.513 3.209 2.677 4.784 3.439 1.338.644 2.623.988 3.904 1.107h.645a6.72 6.72 0 0 0 4.314-1.515c.232-.236.465-.405.699-.7 1.4-1.514 1.981-3.266 1.688-5.363-.173-1.341-.988-3.15-2.387-5.313-.121-.107-.177-.225-.294-.342.117 0 .173.057.294.117 2.152 1.16 4.019 1.69 5.422 1.63m-8.635.932c-.174.926-.586 1.748-1.104 2.502q-.35.444-.703.876a6.6 6.6 0 0 1-2.799 1.808c-.35.117-.698.234-1.047.234-.703.114-1.398.062-2.098-.117a6.24 6.24 0 0 1-2.8-1.629c-.583-.523-.874-1.052-.932-1.637 0-.522.233-1.111.813-1.685l.698-.765 4.318-4.607 2.098-2.215c1.049.936 1.868 1.811 2.451 2.565.292.469.582.877.759 1.225.52 1.105.638 2.222.346 3.445m1.342-5.894c-.695-.232-1.516-.754-2.445-1.511-.41-.294-.876-.64-1.289-1.11l1.289-1.336 4.314-4.607 2.214-2.453c1.575 1.401 2.567 2.622 2.913 3.557.412.992.525 1.927.353 2.919-.232.934-.757 1.864-1.631 2.799-.875.989-1.808 1.572-2.743 1.807a3.7 3.7 0 0 1-1.105.173c-.645-.002-1.231-.058-1.87-.238M190.61 493.461c2.1-2.042 3.556-4.491 4.196-7.409.877-4.018.059-7.926-2.562-11.776-.527-.874-1.05-1.686-1.635-2.448-1.98-2.331-4.548-3.906-7.584-4.665-4.02-.934-7.868-.285-11.598 1.979a19.6 19.6 0 0 0-3.5 2.918 15.8 15.8 0 0 0-3.149 5.311c-1.515 4.311-.873 8.745 1.927 13.174a9.5 9.5 0 0 0 1.223 1.748c2.626 3.328 5.949 5.246 9.971 5.596 3.558.353 6.88-.466 10.029-2.387a26 26 0 0 0 2.682-2.041m-14.405-1.111c-2.095.522-3.843.47-5.303-.115-1.105-.467-2.101-1.339-2.86-2.63-.053-.051-.113-.113-.113-.168-1.049-1.811-1.223-3.616-.522-5.484l.522-1.052c1.286-2.384 3.788-4.718 7.464-7.052 3.559-2.214 6.587-3.441 9.096-3.673 2.68-.171 4.667.525 6.122 2.159.173.289.406.581.585.875.816 1.224 1.105 2.508 1.05 3.902-.062 1.227-.644 2.567-1.635 4.026-.12.115-.234.291-.349.467-1.226 1.575-3.499 3.439-6.763 5.478-2.799 1.751-5.192 2.803-7.294 3.267M250.543 526.812c-1.221-1.169-3.438-2.567-6.588-4.143l-2.968-1.576-9.097-4.603-.353.701c1.169.636 1.928 1.108 2.273 1.573.293.468.468.875.468 1.342-.06.465-.409 1.394-1.107 2.8l-8.63 16.91c-.702 1.396-1.229 2.212-1.575 2.502-.406.291-.814.412-1.399.412-.348 0-.875-.121-1.513-.412-.357-.117-.702-.29-1.108-.523l-.349.756 1.457.702 11.889 6.062.353-.699c-1.164-.637-1.925-1.168-2.273-1.572-.352-.469-.466-.878-.466-1.342 0-.472.405-1.395 1.107-2.799l3.732-7.288 1.688.874 2.334 16.152 2.568 1.284 5.654 2.85.35-.697c-.701-.352-1.169-.877-1.519-1.575-.172-.465-.404-1.457-.639-3.031l-1.746-12.012c1.746.407 3.32.472 4.602.121 2.041-.524 3.5-1.81 4.487-3.679.82-1.566 1.052-3.205.7-4.838-.29-1.633-1.101-3.09-2.332-4.252m-4.72 5.885c-.695 1.399-1.514 2.331-2.446 2.917a4.1 4.1 0 0 1-2.389.756h-.586c-1.047-.117-2.448-.641-4.256-1.575l-1.052-.58 5.776-11.371.117.063 1.923.99c2.098 1.051 3.32 2.275 3.789 3.672.47 1.456.177 3.149-.876 5.128M284.481 537.54c1.282.288 2.158.699 2.565 1.104.291.353.404.7.345 1.054-.113.697-1.045 1.979-2.739 3.843l-6.876 7.641-3.32-10.494c-.705-2.279-1.049-3.617-.933-4.138.057-.297.228-.47.637-.648.349-.23.994-.23 1.809-.057l.641.117.12-.755-13.76-2.686-.12.76c.932.233 1.574.584 2.04 1.108.467.521 1.17 2.159 2.041 4.839l4.375 13.581-1.172 5.775c-.23 1.459-.52 2.332-.751 2.622-.299.468-.643.698-1.049.879-.526.173-1.227.173-2.103.056l-1.515-.29-.118.759 16.092 3.148.12-.82-1.575-.29c-.76-.176-1.343-.408-1.75-.762-.41-.408-.645-.756-.756-1.16-.06-.351.054-1.345.346-2.803l1.342-6.939 8.223-9.149c2.042-2.396 3.438-3.788 4.314-4.201.578-.352 1.342-.468 2.335-.406l.113-.821-8.75-1.69zM166.061 413.988c.758 0 1.401 0 1.867.063.406 0 .639.055.818.113.523.236.873.523 1.051.876.345.524.466 1.222.525 2.045v.989l.814-.063-.295-15.16h-.814l.056.935c0 .816-.117 1.452-.404 1.982-.29.463-.583.815-.992.995-.121.051-.407.116-.76.167-.522.064-1.169.064-2.04.12l-8.224.117-.233-10.322 8.285-.111c.989-.059 1.689 0 2.212.057.234 0 .406.055.525.117.526.173.816.466 1.049.871.295.522.465 1.17.465 2.045l.061.932h.761l-.235-15.275h-.814v.992a4.07 4.07 0 0 1-.35 1.981c-.293.464-.589.819-.996.935-.113.056-.291.113-.466.173a21 21 0 0 1-2.33.117l-19.187.349c-1.513 0-2.387-.056-2.738-.173-.523-.235-.873-.465-1.046-.875-.298-.525-.471-1.166-.53-2.041v-.931h-.755l.235 15.271h.813l-.061-.989c0-.818.124-1.457.413-1.987.295-.46.583-.754.989-.928.353-.179 1.284-.293 2.8-.293l9.038-.173.175 10.32-9.036.173c-1.458 0-2.391-.059-2.744-.233a1.94 1.94 0 0 1-1.047-.877c-.29-.464-.464-1.159-.464-2.039l-.064-.929h-.759l.233 15.218h.818v-.937c-.056-.872.117-1.517.355-1.979.288-.529.636-.82.987-.996.346-.174 1.28-.289 2.8-.289zM148.34 370.029l2.445.638c-1.457-2.154-2.387-4.077-2.739-5.769-.406-1.69-.348-3.442.113-5.189.59-2.158 1.574-3.79 3.036-4.842 1.403-1.106 3.266-1.687 5.483-1.747q3.41-.174 7.168.875c1.457.407 2.799.932 4.081 1.576.932.465 1.752.989 2.566 1.631 1.456 1.109 2.508 2.507 3.088 4.253.641 1.752.701 3.5.235 5.252-.583 2.155-1.748 3.846-3.555 5.128-.7.524-1.517.934-2.335 1.225-1.342.468-2.795.701-4.427.641l-.237.816 4.664 1.227 5.133 1.396.174-.815c-.64-.29-1.112-.641-1.338-1.052a1.67 1.67 0 0 1-.181-1.28q.09-.526 1.401-2.275c1.458-1.984 2.451-3.962 2.975-5.946.697-2.682.757-5.365.06-8.161-.7-2.744-2.101-5.135-4.144-7.174-1.219-1.283-2.618-2.272-4.08-3.03a16.7 16.7 0 0 0-2.972-1.167c-2.564-.641-5.131-.701-7.755 0q-3.939.964-6.646 4.023c-1.806 1.985-3.149 4.49-3.967 7.522-.643 2.273-.756 4.374-.463 6.295.237 1.927.992 3.908 2.217 5.949M170.842 335.279a6.52 6.52 0 0 0 6.533-6.528 6.52 6.52 0 0 0-6.533-6.53 6.517 6.517 0 0 0-6.529 6.53 6.52 6.52 0 0 0 6.529 6.528M469.072 405.595c-2.623-2.388-5.772-3.789-9.445-4.081-.406-.062-.813-.062-1.223-.062-3.791-.116-7.111 1.054-9.971 3.44-2.158 1.872-3.676 4.201-4.43 6.999l-2.799-3.148-.584 6.354 2.742 1.224c-.41 4.086.641 7.641 3.141 10.673 2.629 3.205 6.131 5.011 10.44 5.363.525.061.992.061 1.461.061 3.266.056 6.184-.82 8.801-2.565 3.848-2.572 5.949-6.478 6.416-11.722.469-5.189-1.053-9.328-4.549-12.536m2.92 12.479c-.18 2.215-1.174 3.843-2.92 4.895-2.447 1.457-6.01 2.043-10.668 1.689-.174 0-.408 0-.584-.059-4.195-.347-7.348-1.162-9.443-2.504-2.213-1.34-3.383-3.097-3.555-5.127l3.023 1.279.18-1.811-2.68-3.025c.287-.529.58-.996.988-1.465.875-.99 2.277-1.801 4.258-2.331 1.809-.522 4.428-.638 7.813-.405.285 0 .641.056.934.056 3.205.291 5.832.88 7.748 1.748 1.986.816 3.383 1.929 4.139 3.268.65 1.045.884 2.333.767 3.792M437.59 353.529c-.234-1.108-.234-1.867-.06-2.333.236-.465.641-.815 1.228-.992.35-.057.811-.114 1.277-.114.525-.06 1.459.057 2.801.174l13.354 1.342-12.014 8.746c-1.459 1.049-2.33 1.633-2.682 1.747-.289.061-.584.061-.81-.055-.297-.121-.533-.293-.701-.587-.238-.346-.529-1.048-.758-1.981l-.818.235 3.668 13.643.822-.175c-.234-.875-.353-1.573-.18-2.1.063-.524.353-1.049.818-1.516.469-.465 1.398-1.284 2.918-2.332l2.68-1.982 9.272 1.226 2.627.349-2.627 1.921-9.619 7.293c-1.516 1.105-2.566 1.746-3.092 1.866-.41.114-.76.057-1.105-.176-.35-.293-.701-.875-.996-1.868l-.756.234 3.264 12.244.758-.234c-.119-.931-.055-1.63.352-2.096q.617-.789 3.668-3.15l7.527-5.656 13.057-9.796-.236-.757-12.82-1.81-7.406-1.049 7.406-5.364 8.916-6.471-.234-.816-8.682-.875-16.965-1.748c-2.215-.234-3.385-.408-3.615-.408-.586-.176-1.053-.35-1.4-.7-.348-.293-.582-.699-.764-1.167l-.809.175 1.978 7.346zM352.342 551.413c.353-.287 1.111-.523 2.103-.816l-.121-.759-13.992 2.45.182.758.699-.117a3.9 3.9 0 0 1 1.865.117c.521.177.936.412 1.107.702.234.29.467 1.052.639 2.157l1.051 6.001c-.699.404-1.4.761-2.096 1.052a9.6 9.6 0 0 1-2.107.588c-2.033.342-3.84.171-5.414-.53-1.629-.756-2.982-2.098-3.971-4.078-1.045-1.924-1.801-4.317-2.27-7.055-.41-2.276-.529-4.556-.295-6.821.232-2.276.938-4.145 2.16-5.602 1.225-1.455 2.916-2.39 5.012-2.741 2.277-.407 4.49-.053 6.65 1.052 2.15 1.109 3.902 2.973 5.365 5.539l.756-.119-1.75-10.145-.816.184c-.117.81-.352 1.449-.639 1.8-.295.352-.646.53-.992.586-.293.058-1.17-.056-2.625-.356-1.518-.285-2.564-.402-3.205-.402-1.168-.061-2.51.055-3.91.352-4.603.81-8.221 2.97-10.728 6.47-2.504 3.552-3.377 7.463-2.621 11.78.469 2.447 1.34 4.545 2.684 6.292a13.3 13.3 0 0 0 3.906 3.499 16.8 16.8 0 0 0 5.309 2.099c1.918.412 4.246.412 6.99-.055 2.16-.406 4.201-.992 6.066-1.747 1.926-.762 3.728-1.693 5.416-2.861l-1.045-6.005c-.176-1.053-.232-1.693-.115-1.983.115-.528.351-.995.752-1.286M393.744 532.175c.582 2.331.816 4.195.758 5.596-.059 1.397-.408 2.565-.992 3.558-.639.99-1.629 1.862-2.971 2.682l-2.104 1.169c-1.226.695-1.98 1.104-2.332 1.162-.584.06-.988 0-1.34-.29-.35-.297-.93-1.052-1.693-2.331l-4.074-7.054 6.293-8.346-3.262-2.445-5.246 6.885-2.979-5.191c-.758-1.279-1.166-2.099-1.166-2.447-.059-.524 0-.994.229-1.343.299-.523.82-.989 1.578-1.396l1.113-.646-.412-.696-13.527 7.752.408.696.814-.464c.756-.404 1.4-.64 1.926-.588.586 0 .99.122 1.342.355q.434.349 1.576 2.271l4.49 7.815-3.791 5.013 3.26 2.509 2.74-3.671 2.914 5.009c.762 1.284 1.111 2.099 1.17 2.453.06.521 0 .989-.232 1.338-.291.521-.815.993-1.574 1.398l-.816.529.404.694 22.455-12.996-4.143-9.449zM458.404 455.615l-1.75-.691c-.988-.41-1.635-.7-1.807-.935-.41-.412-.639-.877-.699-1.342 0-.467.115-1.227.465-2.22l-.756-.287-5.309 13.117.758.291.295-.641c.23-.702.58-1.17 1.047-1.516.412-.409.816-.582 1.223-.582.352-.065 1.047.173 2.158.582l4.375 1.805 1.223.469c0 .868-.117 1.634-.234 2.392-.115.756-.348 1.396-.578 2.099-.125.292-.295.58-.41.816-.701 1.458-1.695 2.622-2.971 3.499-1.459.988-3.266 1.396-5.482 1.225-2.219-.178-4.605-.816-7.234-1.869-2.156-.873-4.143-1.981-5.945-3.379-1.803-1.403-2.973-2.98-3.611-4.782-.586-1.811-.469-3.732.348-5.715.873-2.152 2.334-3.846 4.43-5.069 2.045-1.225 4.605-1.751 7.58-1.574l.295-.757-9.565-3.852-.293.703c.639.578 1.049 1.107 1.166 1.512.178.469.178.875 0 1.228-.057.229-.639.935-1.691 2.04-.992 1.107-1.688 1.925-2.037 2.448a18.7 18.7 0 0 0-1.807 3.497c-1.754 4.377-1.813 8.512-.121 12.539 1.635 4.022 4.49 6.822 8.57 8.448 2.273.938 4.553 1.288 6.768 1.109a14 14 0 0 0 5.068-1.515c1.637-.816 3.148-1.924 4.553-3.381a12.2 12.2 0 0 0 1.98-2.625c.586-.932 1.168-2.098 1.689-3.322.754-2.043 1.396-4.023 1.748-6.066.352-2.039.467-4.076.41-6.124zM427.559 493.924c-2.975-2.505-6.24-3.73-9.85-3.671-.416 0-.82 0-1.285.057-4.08.349-7.522 2.395-10.377 6.066-2.916 3.2-4.195 6.874-3.906 10.957.35 4.145 2.16 7.583 5.477 10.38 2.975 2.511 6.24 3.787 9.857 3.851h.234c4.486 0 8.396-1.979 11.717-5.892 3.383-4.025 4.543-8.339 3.557-12.946-.756-3.498-2.567-6.407-5.424-8.802m2.156 17.198c-.109 1.228-.641 2.396-1.57 3.556-1.402 1.692-3.147 2.453-5.189 2.278-1.637-.063-3.385-.639-5.246-1.632-1.522-.816-3.211-1.984-4.959-3.442-3.205-2.681-5.307-5.185-6.297-7.522-1.164-2.802-.932-5.247.816-7.287.936-1.109 2.043-1.866 3.383-2.156 1.281-.349 2.914-.181 4.84.466.695.237 1.459.581 2.217 1.045 1.512.883 3.205 2.103 5.129 3.737 2.506 2.038 4.313 4.02 5.361 5.886 1.109 1.804 1.632 3.497 1.515 5.071M247.866 300.413l-12.885 21.4-13.293-21.4-.174-.35h-21.4v2.391h2.274c.993 0 1.747.117 2.388.234.119.058.233.058.352.117.173.06.293.06.346.116.53.177.879.407 1.108.642.06 0 .06.057.121.057v.06c.054 0 .054.057.054.057.064.118.119.35.179.582 0 .119 0 .175.061.235.053.524.053 1.165.053 1.982v23.32c0 .293 0 .526-.053.583-.12.351-.239.642-.414.875a2.6 2.6 0 0 1-.462.642 3.9 3.9 0 0 1-1.226.64c-.119.061-.179.061-.292.121-.121 0-.233.055-.348.055v.06c-.643.117-1.288.23-1.924.29h-2.218v2.39h18.425v-2.39h-.76c-1.912 0-6.415-.185-6.415-2.973 0-.056-.06-.176-.06-.176v-23.437l17.961 28.626.173.349h1.695l.232-.349 17.667-28.803v22.622c0 4.902-2.505 4.14-6.996 4.14v2.39h27.346v-2.39c-4.452 0-6.998.748-6.998-4.14v-22.387c0-3.566.778-4.142 4.666-4.142h2.332v-2.391h-21.346zM352.289 313.939l13.584-7.462c3.9-2.201 6.733-4.023 11.256-4.023v-2.391h-20.758v2.391h.699c4.648.281 7.232 1.046 1.395 3.906l-17.314 9.62v-9.327c0-4.364 1.75-4.199 5.773-4.199v-2.391h-26.119v2.391c4.518 0 6.994-.775 6.994 4.199v22.33c0 4.734-3.074 4.14-6.994 4.14v2.39h26.467v-2.39c-4.193 0-6.121.378-6.121-4.14v-8.859l.988-.586 11.027 9.446c2.098 1.902 5.223 4.14-.117 4.14l-.707.057v2.332h27.291v-2.39c-4.594 0-7.309-2.061-10.73-4.897zM414.154 318.664c-5.494-4.643-13.557-5.444-19.828-8.572-1.352-.676-3.732-1.808-3.732-3.672 0-1.729 2.293-2.968 3.732-3.323.869-.445 2.658-.469 3.617-.469 5.902 0 12.184 3.292 13.582 9.448h2.855l-.055-.761-.406-12.012h-2.34l-.174.527c-.77 3.147-4.869 1.014-7.109.423-4.258-1.133-9.068-1.365-13.238-.191a16.3 16.3 0 0 0-5.127 2.215c-2.648 1.683-4.727 4.242-4.727 7.522 0 5.656 6.059 8.615 10.559 10.378 1.627.699 3.555 1.398 5.826 2.158 1.934.645 10.027 2.911 10.027 6.414 0 3.504-6.061 4.372-8.277 4.372-6.736 0-13.517-3.82-15.334-10.609l-.172-.526h-2.629v14.342h2.451c2.494-3.755 6.836-1.202 10.088-.583 4.641 1.187 11.385.594 15.447-1.049 4.008-1.777 8.221-4.64 8.221-9.505.001-2.6-1.302-4.877-3.257-6.527M316.432 322.336c-2.81 8.875-12.225 9.855-20.464 9.855h-7.811l27.987-30.902 1.107-1.226H275.91l-.115.641-1.338 9.971-.12.817h2.68c2.553-7.481 9.328-8.106 15.979-8.106h5.71l-28.044 30.901-1.104 1.225h47.576l.119-.581 1.98-12.304.113-.814h-2.795z"/></svg>