<?xml version="1.0" encoding="iso-8859-1"?>
<!-- Generator: Adobe Illustrator 24.0.1, SVG Export Plug-In . SVG Version: 6.00 Build 0)  -->
<svg version="1.1" id="Layer_1" xmlns="http://www.w3.org/2000/svg" xmlns:xlink="http://www.w3.org/1999/xlink" x="0px" y="0px"
	 viewBox="0 0 612 792" style="enable-background:new 0 0 612 792;" xml:space="preserve">
<path style="fill:#FFFFFF;" d="M307.5,113.389c155.875,0,283,127.128,283,282.999c0,155.875-127.125,283-283,283
	c-155.869,0-283-127.125-283-283C24.5,240.518,151.631,113.389,307.5,113.389"/>
<path style="fill:#034EA2;" d="M39.938,396.421v-0.033c0-0.014,0-0.03,0-0.049C39.98,249.018,160.16,128.861,307.5,128.861
	c147.345,0,267.521,120.156,267.565,267.479v0.049v0.033C575.043,543.776,454.861,663.954,307.5,663.954
	C160.144,663.954,39.96,543.776,39.938,396.421"/>
<path style="fill:#FFFFFF;" d="M307.5,231.531c90.801,0,164.862,74.058,164.862,164.858c0,90.801-74.061,164.857-164.862,164.857
	c-90.8,0-164.857-74.056-164.857-164.857C142.643,305.588,216.7,231.531,307.5,231.531"/>
<path style="fill:#034EA2;" d="M307.5,259.921c37.683,0,71.799,15.283,96.493,39.979c24.7,24.7,39.978,58.815,39.978,96.492
	c0,37.679-15.277,71.795-39.978,96.496c-24.694,24.694-58.811,39.978-96.493,39.978c-37.677,0-71.796-15.283-96.493-39.978
	c-24.697-24.701-39.976-58.817-39.976-96.496c0-37.676,15.279-71.792,39.976-96.492C235.704,275.204,269.823,259.921,307.5,259.921"
	/>
<path style="fill:#FFFFFF;" d="M307.5,278.654c32.507,0,61.942,13.183,83.249,34.493c21.308,21.303,34.486,50.744,34.486,83.247
	c0,32.5-13.179,61.936-34.486,83.243c-21.307,21.309-50.742,34.487-83.249,34.487c-32.501,0-61.939-13.179-83.245-34.487
	c-21.31-21.307-34.487-50.742-34.487-83.243c0-32.503,13.178-61.944,34.487-83.247C245.561,291.837,274.999,278.654,307.5,278.654"
	/>
<path d="M307.5,294.403c28.163,0,53.662,11.421,72.114,29.872c18.458,18.458,29.876,43.955,29.876,72.119
	c0,28.162-11.418,53.656-29.876,72.108c-18.452,18.459-43.951,29.877-72.114,29.877V294.403z"/>
<polygon style="fill:#FFFFFF;" points="156.478,594.573 154.607,593.165 156.019,591.279 192.031,543.488 193.449,541.613 
	195.327,543.026 202.031,548.083 203.909,549.496 202.489,551.372 166.474,599.162 165.06,601.044 163.179,599.625 "/>
<path style="fill:#FFFFFF;" d="M216.56,628.886l-2.26-0.696l0.69-2.239l17.496-57.24l0.69-2.25l2.243,0.685l17.509,5.356
	c3.073,0.94,5.259,1.751,6.969,2.533c1.781,0.821,2.989,1.588,4.078,2.42l0.011,0.005c3.028,2.338,5.137,5.535,6.127,9.265
	c0.946,3.556,0.874,7.568-0.393,11.711c-1.253,4.106-3.578,7.558-6.564,10.004c-2.258,1.854-4.895,3.138-7.737,3.691
	c0.053,0.234,0.112,0.474,0.162,0.729l0.016,0.038l5.368,25.929l0.802,3.877l-3.783-1.153l-9.081-2.777l-1.36-0.414l-0.268-1.396
	l-4.844-25.081l-8.638-2.637l-6.277,20.525l-0.688,2.251l-2.24-0.686L216.56,628.886z M237.301,597.771l9.252,2.827
	c2.503,0.767,4.725,0.62,6.459-0.332c1.751-0.956,3.118-2.789,3.91-5.371c0.529-1.74,0.664-3.284,0.424-4.605
	c-0.223-1.267-0.802-2.381-1.702-3.31l0.037,0.032c-0.487-0.479-1.066-0.93-1.968-1.397c-1.004-0.517-2.422-1.07-4.521-1.712
	l-7.001-2.137L237.301,597.771z"/>
<polygon style="fill:#FFFFFF;" points="313.148,646.077 310.816,646.322 310.577,643.984 304.317,584.467 304.072,582.134 
	306.412,581.89 314.764,581.014 317.09,580.769 317.34,583.112 319.727,605.807 324.908,605.257 336.723,579.856 337.288,578.638 
	338.615,578.508 347.809,577.54 351.978,577.1 350.174,580.889 336.424,609.759 357.285,637.879 359.731,641.179 355.638,641.613 
	346.194,642.604 344.846,642.75 344.052,641.657 326.132,617.104 320.967,617.643 323.593,642.625 323.838,644.952 321.494,645.202 
	"/>
<path style="fill:#FFFFFF;" d="M385.546,601.348h0.017c-4.627-8.014-5.595-16.941-3.393-25.025
	c2.609-9.597,8.541-14.713,15.652-20.78l-4.528-2.729l-1.414-9.117l8.808-5.089l4.1-2.359l-0.582,4.681l-1.625,13.098
	c6.709-2.626,13.793-2.952,20.312-1.224c8.102,2.143,15.344,7.454,19.965,15.469c4.729,8.193,5.817,17.294,3.719,25.515
	c-2.109,8.232-7.416,15.566-15.468,20.22c-8.053,4.648-17.072,5.578-25.282,3.295C397.632,615.017,390.276,609.536,385.546,601.348
	 M397.115,594.672c3.029,5.246,7.585,8.748,12.565,10.259c5.017,1.523,10.471,1.044,15.207-1.69v-0.011
	c4.74-2.735,7.872-7.193,9.041-12.266c1.164-5.057,0.398-10.755-2.643-16.018h0.012c-2.926-5.056-7.362-8.399-12.239-9.808
	c-4.931-1.425-10.33-0.87-15.081,1.87v-0.011c-4.758,2.745-7.955,7.171-9.205,12.167
	C393.538,584.107,394.201,589.626,397.115,594.672"/>
<polygon style="fill:#FFFFFF;" points="460.472,502.625 459.265,501.282 460.249,499.771 464.315,493.513 465.3,492.001 
	467.013,492.561 506.413,505.425 478.321,475.206 477.076,473.868 478.071,472.33 482.779,465.077 484.438,462.527 486.487,464.772 
	528.14,510.52 529.357,511.856 528.373,513.379 523.056,521.562 522.077,523.073 520.364,522.514 483.682,510.53 509.54,539.172 
	510.752,540.509 509.763,542.031 504.456,550.209 503.461,551.736 501.732,551.154 443.231,531.359 440.371,530.392 
	442.019,527.852 446.722,520.6 447.733,519.045 449.478,519.664 488.194,533.321 "/>
<path style="fill:#FFFFFF;" d="M79.33,500.662l57.503-29.784l6.644,10.641l-21.069,30.077l-0.034,0.022
	c-0.439,0.608-0.927,1.261-1.424,1.919c0.808-0.158,1.605-0.305,2.362-0.436h0.026l36.276-5.757l6.643,10.629l-51.977,38.623
	l-6.895-11.048l30.069-22.247l-28.73,4.088l-5.578-8.927l16.389-24.08l-33.25,17.403L79.33,500.662z"/>
<path style="fill:#FFFFFF;" d="M164.175,273.185l-1.66,1.662l-1.658-1.662l-35.933-35.933l-1.665-1.661l1.665-1.668l10.987-10.991
	h0.012c1.968-1.968,3.454-3.292,4.704-4.245c1.331-1.01,2.416-1.626,3.51-2.13l0.011-0.014c3.019-1.366,6.337-1.679,9.593-0.924
	c3.113,0.724,6.16,2.419,8.813,5.07c2.625,2.63,4.329,5.812,4.985,9.088c0.479,2.363,0.42,4.777-0.226,7.085
	c0.085,0.027,0.167,0.053,0.255,0.078l0.029,0.008l21.579,6.306l3.811,1.116l-2.801,2.797l-5.698,5.702l-1.002,0.999l-1.351-0.409
	l-20.53-6.308l-5.021,5.027l12.636,12.641l1.663,1.655l-1.669,1.673L164.175,273.185z M148.881,244.473l5.562-5.562
	c1.492-1.492,2.226-3.124,2.21-4.712c-0.017-1.612-0.802-3.285-2.355-4.839h-0.008c-1.971-1.965-3.698-2.544-5.278-2.232
	c-1.798,0.354-3.658,1.775-5.539,3.658h-0.013l-4.132,4.133L148.881,244.473z"/>
<polygon style="fill:#FFFFFF;" points="286.122,207.928 286.122,205.575 286.122,154.759 286.124,152.404 297.958,152.404 
	297.958,173.783 301.836,173.783 313.959,153.554 314.649,152.404 328.019,152.404 325.822,155.983 311.762,178.961 
	326.778,204.381 328.877,207.928 324.756,207.928 316.693,207.928 315.34,207.928 314.66,206.753 301.817,184.609 297.958,184.609 
	297.958,207.928 "/>
<path style="fill:#FFFFFF;" d="M431.385,244.426l0.102-1.937l1.925-0.279l6.671-0.966l2.681-0.392v2.718
	c0,0.018-0.038,6.718,4.605,11.366c1.359,1.351,2.963,2.205,4.518,2.327c1.277,0.101,2.566-0.322,3.659-1.414v0.009
	c2.463-2.466,0.69-6.995-1.239-11.911c-2.914-7.427-6.105-15.567,0.983-22.657c3.333-3.331,7.759-4.863,12.331-4.529
	c4.366,0.321,8.862,2.343,12.63,6.107c7.367,7.369,7.253,15.434,7.253,15.458v1.756l-1.702,0.496l-6.464,1.886l-2.795,0.813
	l-0.217-2.906c0-0.008-0.18-5.592-4.078-9.491h-0.011c-1.478-1.476-3.153-2.283-4.708-2.453c-1.441-0.152-2.79,0.249-3.72,1.181
	c-2.196,2.194-0.483,6.391,1.414,11.048c3.05,7.467,6.476,15.876-1.109,23.462c-3.344,3.345-7.736,5.06-12.347,4.793
	c-4.235-0.251-8.634-2.179-12.516-6.068v0.008C430.873,254.475,431.385,244.454,431.385,244.426"/>
<path style="fill:#FFFFFF;" d="M66.083,414.53h20.872v-4.42h-7.92v-31.864h-4.521l-8.691,8.424l3.088,3.188l3.393-3.338
	c1.336-1.286,1.745-2.109,1.745-2.109h0.101c0,0-0.047,1.129-0.047,2.26v23.44h-8.02V414.53z"/>
<path style="fill:#FFFFFF;" d="M99.751,415.155c11.26,0,16.346-11.112,16.346-20.413c0-10.386-5.859-17.117-13.57-17.117
	c-6.781,0-11.666,4.983-11.666,12.128c0,6.732,4.572,11.928,11.459,11.928c3.193,0,6.531-1.343,8.023-3.393h0.099
	c-0.773,6.014-4.211,12.174-10.896,12.174c-2.883,0-5.193-1.229-5.193-1.229l-1.642,4.415
	C92.711,413.649,95.433,415.155,99.751,415.155 M103.35,397.415c-4.68,0-7.456-3.24-7.456-7.661c0-4.215,2.47-7.458,6.682-7.458
	c4.628,0,8.176,5.298,8.176,10.027C110.752,394.896,107.462,397.415,103.35,397.415"/>
<path style="fill:#FFFFFF;" d="M497.932,414.53h23.385v-4.42h-17.991c0.103-8.28,17.425-10.129,17.425-22.051
	c0-6.275-4.778-10.434-11.461-10.434c-8.171,0-11.466,6.886-11.466,6.886l3.751,2.518c0,0,2.577-4.627,7.357-4.627
	c3.801,0,6.524,2.414,6.524,6.013c0,8.532-17.784,10.386-17.784,23.336C497.671,412.627,497.779,413.552,497.932,414.53"/>
<path style="fill:#FFFFFF;" d="M526.307,410.213c0,0,4.366,4.938,11.766,4.938c7.454,0,12.336-5.453,12.336-11.673
	c0-7.04-5.86-10.129-10.64-10.645l9.868-11.354v-3.232h-21.688v4.417h12.281c2.007,0,3.083-0.159,3.083-0.159v0.103
	c0,0-1.076,0.978-2.262,2.367l-7.916,9.3l1.186,2.727h2.523c4.469,0,8.422,2.213,8.422,6.677c0,3.908-3.333,6.633-7.399,6.633
	c-5.241,0-8.786-3.958-8.786-3.958L526.307,410.213z"/>
<path style="fill:#007DC5;" d="M129.101,356.544c5.186-23.141,14.776-44.644,27.845-63.582
	c-13.392,0.593-26.979-4.197-37.168-14.386c-7.732-7.735-12.356-17.43-13.873-27.511c-20.8,28.741-35.622,62.065-42.604,98.139
	C83.498,336.163,112.061,338.584,129.101,356.544 M204.071,245.857c20.682-14.262,44.425-24.389,70.01-29.146
	c-9.836-9.047-16.012-22.013-16.012-36.369c0-11.026,3.644-21.228,9.788-29.468c-38.963,6.285-74.943,21.688-105.686,43.918
	c10.083,1.517,19.781,6.141,27.517,13.871C199.875,218.857,204.672,232.459,204.071,245.857 M340.926,216.706
	c25.58,4.763,49.323,14.885,70.005,29.149c-0.604-13.398,4.197-26.995,14.386-37.191c7.737-7.727,17.426-12.354,27.506-13.871
	c-30.74-22.238-66.722-37.639-105.688-43.923c6.148,8.236,9.797,18.442,9.797,29.473
	C356.938,194.698,350.756,207.659,340.926,216.706 M458.041,292.962c13.082,18.952,22.678,40.464,27.859,63.619
	c17.044-17.958,45.588-20.432,65.786-7.421c-6.976-36.056-21.802-69.37-42.587-98.105c-1.518,10.086-6.145,19.781-13.875,27.518
	C485.035,288.765,471.443,293.561,458.041,292.962"/>
</svg>
