<svg xmlns="http://www.w3.org/2000/svg" xml:space="preserve" viewBox="0 0 612 792"><path d="M306.576 679.552c-28.08-22.104-60.048-35.712-92.016-50.76-19.728-9.36-37.152-19.224-52.92-31.32-15.84-12.24-29.952-26.64-43.056-45.144-21.312-30.096-39.024-62.568-60.192-92.88 33.192-33.336 61.344-72.648 61.848-121.68.36-44.568-22.032-83.016-48.96-116.64l60.84-100.8c59.832 25.416 116.64 20.52 174.456-7.704 57.816 28.224 114.624 33.12 174.456 7.704l60.84 100.8c-26.928 33.624-49.32 72.072-48.96 116.64.504 49.032 28.656 88.344 61.848 121.68-21.168 30.312-38.88 62.784-60.192 92.88-13.104 18.504-27.216 32.904-43.056 45.144-15.768 12.096-33.192 21.96-52.92 31.32-31.968 15.048-63.936 28.656-92.016 50.76" style="fill:#d2ab67"/><path d="M306.576 664.936c26.64-20.088 57.168-32.472 87.048-46.584 19.152-9 35.856-18.432 50.832-30.024 14.976-11.52 28.296-25.2 40.752-42.696 19.44-27.504 35.568-57.096 54.576-84.888-40.104-41.544-58.032-82.584-58.392-122.904s16.704-79.56 46.512-117.576L476.28 134.8c-56.376 22.392-115.56 16.416-169.704-9.36-54.144 25.776-113.328 31.752-169.704 9.36l-51.624 85.464c29.808 38.016 46.872 77.256 46.512 117.576s-18.288 81.36-58.392 122.904c19.008 27.792 35.136 57.384 54.576 84.888 12.456 17.496 25.776 31.176 40.752 42.696 14.976 11.592 31.68 21.024 50.832 30.024 29.88 14.112 60.408 26.496 87.048 46.584" style="fill:#ed1c24"/><path d="m306.576 253.816 35.856 94.608 101.16 4.968-78.912 63.288 26.568 97.704-84.672-55.44-84.672 55.44 26.568-97.704-78.912-63.288 101.16-4.968z" style="fill:#d2ab67"/><path d="m306.576 286.288 27.792 73.296 78.264 3.816-61.056 49.032 20.52 75.672-65.52-42.984-65.52 42.984 20.52-75.672L200.52 363.4l78.264-3.816z" style="fill:#00aeef"/><path d="m227.664 600.568-10.152-2.16 11.16-52.776-8.136 4.176-3.528-8.208 16.416-10.008 8.568 1.584zM269.064 560.032c-.216 2.952-.432 7.056 1.008 10.008 2.376 4.752 9.72 4.968 12.816.792 2.016-2.736 2.592-6.984 2.808-9.936.504-5.904-.216-13.32-7.488-13.824-7.416-.576-8.64 7.128-9.144 12.96m14.544 25.056.288-3.528c-4.68 2.592-10.944 2.232-15.696.216-2.736-1.152-5.112-2.952-6.552-5.184-2.664-4.104-3.6-10.8-3.096-17.28.864-10.584 4.536-20.448 16.2-21.816 8.496-1.008 17.64 2.592 20.448 11.016.432 1.44.72 2.952.935 4.608.648 5.76.144 11.592-.288 17.28-.144 1.44-.216 2.808-.288 3.888-.216 2.664-.432 5.328-.72 8.064-.504 5.112-1.08 11.232-3.024 15.912-3.096 7.488-9.72 10.44-17.496 9.936-11.448-.864-15.984-6.48-16.488-15.984l10.152-1.008c-.072 4.176.936 7.2 6.552 7.632 7.993.504 8.641-7.776 9.073-13.752M395.496 575.368c-.504-2.88-1.368-6.912-3.528-9.432-3.528-3.96-10.656-2.232-12.528 2.592-1.224 3.168-.792 7.416-.216 10.296 1.08 5.904 3.672 12.816 10.8 11.448 7.344-1.368 6.552-9.144 5.472-14.904m-20.52-20.448.72 3.456c3.816-3.672 9.936-4.968 15.12-4.248 2.88.432 5.616 1.512 7.632 3.312 3.6 3.312 6.264 9.504 7.416 15.912 1.944 10.44.936 20.952-10.008 25.272-7.92 3.168-17.712 2.088-22.536-5.4a25 25 0 0 1-2.16-4.176c-2.088-5.4-3.168-11.16-4.176-16.776-.216-1.368-.504-2.736-.72-3.816a264 264 0 0 1-1.368-7.992c-.864-5.04-1.872-11.088-1.224-16.128 1.08-8.064 6.624-12.6 14.328-14.112 11.232-2.16 17.136 2.088 20.016 11.16l-9.504 3.528c-1.008-3.96-2.736-6.624-8.28-5.616-7.92 1.584-6.336 9.72-5.256 15.624M329.112 537.136c14.976-1.728 19.584 10.008 21.528 21.816 1.296 7.488 2.16 15.264 2.664 22.824.36 5.472.504 11.376-1.8 16.488-2.664 5.976-7.992 8.928-14.184 9.648-10.44 1.224-17.064-4.464-19.944-14.184-2.808-9.432-3.672-20.664-4.32-30.528-.792-11.952 1.152-24.336 16.056-26.064m12.744 34.344c-.648-5.616-1.368-10.224-2.232-13.896-1.08-4.968-2.808-11.952-9.504-11.16-6.624.72-6.768 7.92-6.696 13.032 0 3.816.36 8.496 1.008 14.04.648 5.688 1.368 10.296 2.16 13.896 1.152 5.04 2.808 11.952 9.576 11.16 6.696-.792 6.768-7.92 6.696-13.032 0-3.744-.36-8.424-1.008-14.04M173.304 564.28c5.184 0 9.504-4.248 9.504-9.504 0-5.184-4.32-9.504-9.504-9.504-5.256 0-9.504 4.32-9.504 9.504a9.495 9.495 0 0 0 9.504 9.504M439.848 564.28a9.495 9.495 0 0 0 9.504-9.504c0-5.184-4.248-9.504-9.504-9.504-5.184 0-9.504 4.32-9.504 9.504 0 5.256 4.32 9.504 9.504 9.504M184.464 258.64c3.096 0 5.688-2.52 5.688-5.688 0-3.096-2.592-5.616-5.688-5.616a5.623 5.623 0 0 0-5.616 5.616c0 3.168 2.52 5.688 5.616 5.688M243 242.44a5.623 5.623 0 0 0 5.616-5.616c0-3.096-2.52-5.689-5.616-5.689s-5.616 2.592-5.616 5.689A5.623 5.623 0 0 0 243 242.44M199.944 238.192c2.952 1.44 6.408 2.376 9.864 2.376 3.096.072 6.048-.504 8.352-1.8.36-.216.648-.432 1.008-.648 1.872-1.512 3.24-3.888 3.816-6.408.576-2.448.36-5.04-.792-7.056-.144-.288-.36-.576-.576-.864-2.448-3.096-7.848-4.896-13.32-6.768s-11.016-3.744-15.408-7.272a19.7 19.7 0 0 1-4.248-4.608c-2.448-3.6-3.528-7.704-3.312-11.808.216-4.032 1.728-7.992 4.392-11.376 1.296-1.584 2.88-3.024 4.68-4.248 3.672-2.52 8.064-3.96 12.528-4.32 4.464-.432 9.072.288 13.176 2.088l-4.248 9.648c-2.376-1.008-5.184-1.368-7.992-1.152s-5.472 1.08-7.56 2.52c-.936.576-1.656 1.296-2.304 2.088-1.224 1.584-1.944 3.384-2.016 5.328-.144 1.872.36 3.744 1.44 5.4.504.792 1.224 1.512 2.088 2.16 2.88 2.376 7.56 3.96 12.168 5.544 6.984 2.304 13.896 4.68 18.288 10.224v-.072c.504.648.936 1.44 1.44 2.232 2.52 4.392 3.024 9.72 1.944 14.616-1.152 4.824-3.816 9.36-7.632 12.384-.72.576-1.512 1.08-2.304 1.584-4.104 2.304-8.928 3.312-13.752 3.24-5.04-.144-10.224-1.368-14.544-3.6zM268.128 164.248l14.256 51.12 12.672-52.992 10.368-.072 12.312 50.256 11.088-49.896 10.584 1.224-16.2 73.008-10.368-.576-12.528-50.328-12.384 51.192-10.296.648-20.232-72.72zM356.472 165.832l-8.568 73.656-10.584-1.224 8.64-73.656zM360.864 226.96c2.088 2.448 4.968 4.608 8.136 5.976 2.808 1.224 5.76 1.872 8.424 1.512.36-.072.792-.144 1.152-.288 2.376-.648 4.536-2.304 6.048-4.464 1.44-2.016 2.232-4.464 1.944-6.768v-.072a12 12 0 0 1-.216-1.008c-1.08-3.744-5.4-7.488-9.72-11.304-4.392-3.816-8.856-7.632-11.52-12.6q-1.62-2.808-2.16-5.832a19.43 19.43 0 0 1 1.44-12.168c1.728-3.672 4.68-6.84 8.424-8.856 1.728-1.008 3.744-1.728 5.904-2.16 4.32-.936 8.928-.576 13.248.792 4.248 1.296 8.28 3.672 11.376 6.912l-7.632 7.344c-1.8-1.872-4.248-3.312-6.912-4.176-2.664-.792-5.472-1.008-7.992-.504a11.2 11.2 0 0 0-2.952 1.08c-1.728.936-3.096 2.376-3.888 4.104a8.55 8.55 0 0 0-.648 5.544q.216 1.404 1.08 2.808c1.8 3.312 5.472 6.552 9.144 9.792 5.544 4.824 11.016 9.576 12.96 16.344.216.792.432 1.656.504 2.592.72 5.04-.864 10.152-3.744 14.256-2.88 4.032-7.056 7.2-11.736 8.568h-.072c-.792.216-1.728.432-2.664.576-4.68.576-9.504-.36-13.968-2.304-4.608-2.016-8.928-5.184-12.024-8.856zM429.912 181.096l-10.152 31.608 12.456-2.16-2.88 8.712-12.384 2.232-6.552 20.52 13.608 4.608 46.152-50.544 9.216 3.96-6.12 79.992-10.224-5.904 1.512-20.448-21.888-11.808-15.552 16.992-29.664-10.08 8.064-25.272-4.464.864 2.736-8.784 4.464-.792 11.88-37.224zm35.496 60.984 2.16-27.432-17.496 19.152zM120.888 206.152l39.456-19.008 4.608 9.792L148.248 205l25.344 57.456-9.936 4.392-25.2-57.168-12.888 6.264z" style="fill:#d2ab67"/></svg>