<?xml version="1.0" encoding="iso-8859-1"?>
<!-- Generator: Adobe Illustrator 24.0.1, SVG Export Plug-In . SVG Version: 6.00 Build 0)  -->
<svg version="1.1" id="Layer_1" xmlns="http://www.w3.org/2000/svg" xmlns:xlink="http://www.w3.org/1999/xlink" x="0px" y="0px"
	 viewBox="0 0 612 792" style="enable-background:new 0 0 612 792;" xml:space="preserve">
<path style="fill:#0066B3;" d="M292.4,486.451c40.309-26.563,83.171-50.668,120.067-81.085
	c34.26-28.243,61.237-52.385,61.197-97.697c-0.035-38.992-23.692-76.094-35.77-95.156l0,0h29.292V107.947h-43.266l50.704-51.248l0,0
	c-58.499-1.01-143.44-14.417-182.225-36.487c-38.785,22.073-123.729,35.48-182.226,36.49l0,0l50.704,51.249h-43.266v104.567h29.293
	l0,0c-12.078,19.062-35.735,56.164-35.771,95.157c-0.04,45.31,26.938,69.453,61.197,97.695
	C209.229,435.785,252.092,459.89,292.4,486.451L292.4,486.451z"/>
<path style="fill:#FFFFFF;" d="M292.4,474.572c38.729-25.502,82.259-51.468,117.309-81.222
	c25.926-22.009,52.956-48.677,51.955-86.479c-1.19-42.618-28.82-76.106-44.25-105.055l0,0h39.098V118.61l-58.459,0.005
	l52.738-52.522l0,0c-43.923-1.556-122.196-13.59-158.391-34.174l0,0v86.691H128.288v83.206H292.4v43.142l0,0
	c0.155,0,0.309-0.003,0.464-0.003c60.467,0,110.797,21.694,110.797,61.327c0,39.627-50.793,84.607-111.262,84.607l0,0V474.572
	L292.4,474.572z"/>
<path style="fill:#0066B3;" d="M450.073,125.199H134.727v70.034h315.347V125.199L450.073,125.199z"/>
<path style="fill:#FFFFFF;" d="M295.173,362.621h-28.728l18.87-90.129h36.497l0,0c24.556,0,37.632,17.154,38.091,29.563
	c0.391,10.564-6.543,22.562-17.499,27.447c-9.363,4.172-20.714,5.682-29.559,5.682l0,0h-11.867L295.173,362.621L295.173,362.621z
	 M304.047,320.248h5.727l0,0c7.738,0,15.578-0.801,20.42-7.744c1.816-2.6,2.841-6.514,2.961-10.432
	c0.348-11.401-4.975-14.755-15.896-14.755l0,0h-6.348L304.047,320.248L304.047,320.248z"/>
<path style="fill:#FFFFFF;stroke:#0066B3;stroke-width:4.6994;stroke-miterlimit:1;" d="M346.177,240.444
	c36.548,6.834,69.323,23.471,69.773,63.292c0.246,21.533-7.21,41.679-25.189,57.846c-23.248,20.912-63.936,35.088-98.361,35.258
	c-69.263,0.337-74.454-68.596-65.3-104.585l0,0l-53.252-6.658l0,0c-10.319-2.361-10.323-8.292-11.307-12.508l0,0l100.834,0.107l0,0
	c-5.191,11.757-18.169,40.779-18.313,62.719c-0.214,32.754,13.675,48.821,47.338,49.337c42.25,0.646,96.629-33.368,98.029-78.988
	c1.118-36.422-46.318-54.358-98.029-55.805c-52.173-1.458-103.548,6.17-125.163,9.593l0,0l-5.141-12.448l0,0
	c43.06-8.358,86.467-12.104,130.304-12.237C310.819,235.313,330.477,237.511,346.177,240.444L346.177,240.444z"/>
<path style="fill:#FFFFFF;" d="M147.89,179.656h-8.15l8.281-39.555h14.748l0,0c2.859,0,5.118,0.338,6.782,1.015
	c1.664,0.676,2.984,1.789,3.95,3.343c0.973,1.561,1.458,3.412,1.458,5.574c0,1.995-0.387,3.937-1.16,5.829
	c-0.773,1.885-1.721,3.398-2.846,4.531c-1.126,1.133-2.335,1.99-3.626,2.576c-1.298,0.588-3.041,1.027-5.235,1.333
	c-1.278,0.178-2.332,0.27-5.839,0.27l0,0h-5.208L147.89,179.656L147.89,179.656z M152.394,158.017h2.513l0,0
	c4.297,0,5.826-0.269,7.268-0.807c1.438-0.538,2.569-1.403,3.398-2.59c0.829-1.188,1.243-2.494,1.243-3.91
	c0-0.954-0.216-1.74-0.635-2.348c-0.423-0.615-1.015-1.061-1.782-1.341c-0.765-0.279-2.473-0.415-5.109-0.415l0,0h-4.493
	L152.394,158.017L152.394,158.017z M200.976,167.728h-19.42l0,0c-0.021,0.312-0.029,0.547-0.029,0.706
	c0,1.906,0.545,3.447,1.63,4.613c1.09,1.169,2.417,1.754,3.979,1.754c2.576,0,4.579-1.332,6.022-3.992l0,0l6.928,1.161l0,0
	c-1.349,2.782-3.15,4.876-5.409,6.27c-2.258,1.395-4.787,2.094-7.589,2.094c-3.855,0-6.983-1.223-9.395-3.661
	c-2.41-2.438-3.612-5.657-3.612-9.67c0-3.922,1.081-7.412,3.267-10.469c2.959-4.14,7.197-6.203,12.702-6.203
	c3.508,0,6.296,1.088,8.363,3.254c2.069,2.164,3.109,5.2,3.109,9.103C201.521,164.558,201.335,166.236,200.976,167.728
	L200.976,167.728z M194.448,163.011c0.021-0.346,0.028-0.601,0.028-0.78c0-2.128-0.475-3.717-1.429-4.779
	c-0.952-1.059-2.231-1.589-3.834-1.589c-1.602,0-3.035,0.598-4.301,1.803c-1.268,1.204-2.129,2.989-2.577,5.345l0,0H194.448
	L194.448,163.011z M203.605,156.754l1.181-5.747h3.778l0.947-4.593l8.875-5.339l-2.079,9.932h4.724l-1.189,5.747h-4.745
	l-2.513,12.003l0,0c-0.455,2.174-0.67,3.419-0.67,3.723c0,0.594,0.188,1.056,0.567,1.389c0.374,0.329,1.056,0.496,2.051,0.496
	c0.337,0,1.196-0.061,2.563-0.186l0,0l-1.216,5.747l0,0c-1.332,0.269-2.7,0.408-4.102,0.408c-2.734,0-4.717-0.533-5.96-1.583
	c-1.244-1.049-1.865-2.513-1.865-4.386c0-0.877,0.337-2.914,1.001-6.09l0,0l2.403-11.52H203.605L203.605,156.754z M223.468,151.007
	h7.231l-1.16,5.553l0,0c2.7-4.151,5.621-6.23,8.763-6.23c1.12,0,2.314,0.276,3.592,0.836l0,0l-2.97,6.34l0,0
	c-0.697-0.248-1.444-0.38-2.237-0.38c-1.333,0-2.686,0.505-4.063,1.512c-1.373,1.009-2.452,2.355-3.224,4.033
	c-0.774,1.685-1.528,4.354-2.294,7.999l0,0l-1.885,8.986h-7.742L223.468,151.007L223.468,151.007z M238.392,167.755
	c0-5.304,1.501-9.537,4.496-12.695c2.991-3.155,6.927-4.73,11.804-4.73c4.226,0,7.526,1.17,9.897,3.494
	c2.374,2.33,3.563,5.464,3.563,9.401c0,4.641-1.488,8.649-4.455,12.031c-2.967,3.38-6.941,5.077-11.921,5.077
	c-2.7,0-5.088-0.542-7.176-1.624c-2.084-1.079-3.645-2.604-4.669-4.585C238.912,172.147,238.392,170.021,238.392,167.755
	L238.392,167.755z M260.466,162.23c0-1.837-0.54-3.31-1.609-4.414c-1.072-1.106-2.454-1.658-4.138-1.658
	c-1.678,0-3.159,0.515-4.455,1.547c-1.294,1.032-2.295,2.537-3.017,4.511c-0.722,1.968-1.085,3.777-1.085,5.435
	c0,2.052,0.561,3.675,1.677,4.883c1.114,1.201,2.516,1.803,4.207,1.803c2.12,0,3.897-0.91,5.338-2.722
	C259.432,169.043,260.466,165.912,260.466,162.23L260.466,162.23z M288.292,168.86l7.529,1.216l0,0
	c-1.244,3.349-3.078,5.895-5.505,7.639c-2.428,1.745-5.242,2.618-8.447,2.618c-3.655,0-6.548-1.092-8.688-3.268
	c-2.142-2.175-3.211-5.172-3.211-8.985c0-3.107,0.651-6.049,1.947-8.82c1.294-2.768,3.247-4.952,5.85-6.541
	c2.612-1.594,5.469-2.389,8.585-2.389c3.378,0,6.077,0.886,8.088,2.646c2.016,1.762,3.149,4.081,3.405,6.962l0,0l-7.369,0.78l0,0
	c-0.181-1.603-0.67-2.783-1.473-3.537c-0.8-0.752-1.844-1.132-3.142-1.132c-1.491,0-2.887,0.559-4.179,1.671
	c-1.298,1.119-2.291,2.784-2.983,5.007c-0.689,2.218-1.036,4.303-1.036,6.243c0,1.693,0.41,3.002,1.235,3.917
	c0.825,0.915,1.865,1.374,3.108,1.374c1.237,0,2.435-0.453,3.585-1.354C286.741,172.006,287.642,170.664,288.292,168.86
	L288.292,168.86z M305.295,179.656h-7.742l8.28-39.555h7.742l-2.961,14.083l0,0c1.74-1.36,3.371-2.348,4.882-2.95
	c1.505-0.599,3.128-0.904,4.855-0.904c2.321,0,4.153,0.661,5.503,1.996c1.351,1.331,2.025,3.073,2.025,5.236
	c0,1.145-0.255,2.928-0.761,5.338l0,0l-3.507,16.756h-7.742l3.591-17.081l0,0c0.388-1.849,0.566-3.038,0.566-3.557
	c0-0.952-0.3-1.718-0.892-2.292c-0.595-0.579-1.401-0.864-2.432-0.864c-1.291,0-2.539,0.443-3.721,1.347
	c-1.551,1.182-2.717,2.646-3.531,4.371c-0.451,0.957-1.046,3.191-1.782,6.714l0,0L305.295,179.656L305.295,179.656z
	 M356.941,167.728H337.52l0,0c-0.02,0.312-0.026,0.547-0.026,0.706c0,1.906,0.542,3.447,1.629,4.613
	c1.09,1.169,2.417,1.754,3.979,1.754c2.576,0,4.579-1.332,6.023-3.992l0,0l6.927,1.161l0,0c-1.349,2.782-3.152,4.876-5.41,6.27
	c-2.258,1.395-4.786,2.094-7.588,2.094c-3.856,0-6.984-1.223-9.395-3.661c-2.409-2.438-3.612-5.657-3.612-9.67
	c0-3.922,1.082-7.412,3.268-10.469c2.958-4.14,7.195-6.203,12.7-6.203c3.51,0,6.297,1.088,8.364,3.254
	c2.069,2.164,3.109,5.2,3.109,9.103C357.487,164.558,357.3,166.236,356.941,167.728L356.941,167.728z M350.415,163.011
	c0.02-0.346,0.028-0.601,0.028-0.78c0-2.128-0.476-3.717-1.429-4.779c-0.953-1.059-2.232-1.589-3.835-1.589
	c-1.602,0-3.034,0.598-4.303,1.803c-1.266,1.204-2.128,2.989-2.576,5.345l0,0H350.415L350.415,163.011z M363.37,151.007h7.288
	l-0.725,3.474l0,0c2.839-2.769,5.822-4.15,8.95-4.15c2.164,0,3.829,0.449,4.995,1.347c1.167,0.897,1.914,2.141,2.238,3.722
	c0.994-1.436,2.411-2.64,4.269-3.612c1.851-0.97,3.77-1.457,5.765-1.457c2.288,0,4.067,0.609,5.347,1.837
	c1.277,1.225,1.914,2.839,1.914,4.855c0,0.988-0.246,2.695-0.753,5.125l0,0l-3.669,17.508h-7.743l3.669-17.508l0,0
	c0.459-2.195,0.668-3.44,0.668-3.723c0-0.793-0.233-1.417-0.71-1.879c-0.474-0.457-1.196-0.683-2.149-0.683
	c-1.921,0-3.635,1.019-5.151,3.045c-1.094,1.461-2.027,4.043-2.806,7.744l0,0l-2.728,13.004h-7.743l3.619-17.322l0,0
	c0.418-1.995,0.623-3.288,0.623-3.882c0-0.76-0.258-1.38-0.774-1.864c-0.514-0.483-1.216-0.726-2.113-0.726
	c-0.851,0-1.721,0.249-2.619,0.752c-0.897,0.504-1.684,1.196-2.363,2.079c-0.675,0.879-1.264,2.015-1.74,3.398
	c-0.222,0.647-0.57,2.114-1.05,4.4l0,0l-2.755,13.164h-7.742L363.37,151.007L363.37,151.007z M412.862,140.101h7.743l-1.457,7.016
	h-7.742L412.862,140.101L412.862,140.101z M410.599,151.007h7.742l-5.997,28.649h-7.742L410.599,151.007L410.599,151.007z
	 M428.733,159.123l-7.549-0.643l0,0c0.864-2.556,2.369-4.553,4.517-5.996c2.147-1.439,4.995-2.154,8.538-2.154
	c3.688,0,6.415,0.739,8.176,2.224c1.762,1.485,2.647,3.293,2.647,5.435c0,0.864-0.08,1.783-0.235,2.757
	c-0.156,0.966-0.688,3.522-1.603,7.659c-0.757,3.419-1.134,5.809-1.134,7.177c0,1.222,0.213,2.582,0.65,4.075l0,0h-7.529l0,0
	c-0.304-1.043-0.496-2.121-0.566-3.239c-1.132,1.264-2.44,2.226-3.917,2.9c-1.471,0.673-2.955,1.016-4.449,1.016
	c-2.376,0-4.336-0.782-5.882-2.335c-1.547-1.553-2.321-3.557-2.321-6.002c0-2.735,0.852-4.923,2.556-6.561
	c1.701-1.636,4.732-2.611,9.104-2.964c3.688-0.297,6.153-0.676,7.39-1.105c0.324-1.083,0.49-1.947,0.49-2.59
	c0-0.829-0.339-1.519-1.001-2.079c-0.663-0.561-1.659-0.836-2.971-0.836c-1.379,0-2.471,0.283-3.272,0.849
	C429.569,157.279,429.022,158.08,428.733,159.123L428.733,159.123z M436.102,166.299c-0.47,0.13-1.091,0.256-1.864,0.352
	c-3.88,0.476-6.419,1.151-7.607,2.051c-0.851,0.646-1.27,1.519-1.27,2.617c0,0.898,0.328,1.656,0.975,2.28
	c0.644,0.62,1.499,0.932,2.563,0.932c1.168,0,2.273-0.284,3.302-0.849c1.034-0.568,1.81-1.299,2.321-2.189
	c0.509-0.892,0.975-2.278,1.367-4.165l0,0L436.102,166.299L436.102,166.299z"/>
<path style="fill:#0066B3;stroke:#0066B3;stroke-width:1.3427;stroke-miterlimit:1;" d="M333.461,118.194v-2.801l11.688-14.611l0,0
	c0.828-1.04,1.618-1.941,2.368-2.711l0,0h-12.732v-2.692h16.342v2.692l-12.81,15.829l-1.386,1.601H351.5v2.694H333.461
	L333.461,118.194z M354.627,118.194V95.378h3.019v11.313l11.33-11.313h4.093l-9.569,9.247l9.985,13.569h-3.983l-8.124-11.545
	l-3.732,3.641v7.905H354.627L354.627,118.194z M374.981,110.864l2.846-0.247l0,0c0.137,1.139,0.452,2.075,0.946,2.808
	c0.488,0.728,1.254,1.323,2.293,1.772c1.036,0.451,2.204,0.678,3.502,0.678c1.153,0,2.167-0.171,3.048-0.514
	c0.885-0.344,1.538-0.813,1.968-1.407c0.431-0.597,0.65-1.251,0.65-1.956c0-0.713-0.212-1.338-0.626-1.873
	c-0.414-0.538-1.099-0.983-2.051-1.346c-0.614-0.238-1.968-0.61-4.065-1.115c-2.093-0.503-3.559-0.977-4.4-1.423
	c-1.092-0.569-1.906-1.279-2.438-2.124c-0.535-0.844-0.802-1.792-0.802-2.84c0-1.152,0.328-2.228,0.98-3.231
	c0.653-1,1.61-1.761,2.866-2.279c1.253-0.518,2.647-0.776,4.187-0.776c1.687,0,3.183,0.27,4.473,0.816
	c1.29,0.545,2.282,1.345,2.98,2.402c0.694,1.059,1.066,2.258,1.119,3.597l0,0l-2.893,0.215l0,0c-0.159-1.441-0.686-2.529-1.58-3.266
	c-0.898-0.738-2.223-1.103-3.976-1.103c-1.825,0-3.155,0.334-3.992,1.003c-0.836,0.67-1.251,1.474-1.251,2.418
	c0,0.821,0.296,1.495,0.885,2.024c0.581,0.529,2.099,1.072,4.554,1.624c2.453,0.554,4.135,1.04,5.046,1.454
	c1.331,0.614,2.31,1.391,2.943,2.328c0.633,0.94,0.949,2.023,0.949,3.247c0,1.211-0.348,2.358-1.044,3.43
	c-0.694,1.075-1.693,1.908-2.996,2.504c-1.301,0.599-2.765,0.897-4.394,0.897c-2.063,0-3.796-0.302-5.191-0.904
	c-1.394-0.601-2.491-1.506-3.283-2.717C375.442,113.756,375.025,112.389,374.981,110.864L374.981,110.864z"/>
</svg>
