<svg xmlns="http://www.w3.org/2000/svg" width="68.227" height="68pt" viewBox="0 0 51.17 68"><defs><clipPath id="a"><path d="M0 13h51.172v55H0Zm0 0"/></clipPath></defs><g clip-path="url(#a)"><path fill="#0f1f44" d="M49.328 51.664c-.164 1.934-.832 3.68-2.172 5.188-1.383 1.566-3.488 2.906-6.476 3.976-1.828.652-3.711.902-5.547 1.152-1.727.23-3.41.454-5.024.989a10.7 10.7 0 0 0-2.613 1.277c-.633.43-1.254.938-1.914 1.547-.66-.61-1.277-1.117-1.914-1.547a10.6 10.6 0 0 0-2.61-1.277c-1.617-.535-3.296-.758-5.027-.989-1.836-.25-3.715-.5-5.547-1.152-2.988-1.07-5.09-2.41-6.472-3.976-1.34-1.508-2.012-3.254-2.176-5.188-.129-1.543.07-3.21.5-4.969.437-1.812 1.125-3.718 1.977-5.703.59-1.375 1.156-2.715 1.585-4.062.438-1.399.715-2.774.696-4.184a9 9 0 0 0-.375-2.43h5.004v-1.664H5.582a14 14 0 0 0-.242-.484c-.188-.387-.41-.781-.652-1.191h6.535v-1.668H3.59a39 39 0 0 0-1.27-1.672h16.34v-1.668H4.586l2.258-1.676H18.66v-1.664H9.113l4.172-3.082c2.653 2.238 7.488 3.707 12.297 3.707s9.645-1.469 12.3-3.707l4.173 3.082h-9.551v1.664H44.32l2.262 1.676H32.504v1.668h16.344a36 36 0 0 0-1.27 1.672h-7.637v1.668h6.536c-.239.41-.461.804-.653 1.191-.086.164-.164.32-.238.484H39.94v1.664h5.008a8.8 8.8 0 0 0-.379 2.43c-.015 1.41.258 2.785.696 4.184.43 1.347.996 2.687 1.59 4.062.851 1.985 1.539 3.89 1.976 5.703.43 1.758.625 3.426.496 4.97m-.988-11.309c-.797-1.87-1.64-3.785-2-5.789-.215-1.234-.207-2.394.12-3.605.446-1.625 1.278-2.973 2.196-4.363a131 131 0 0 1 2.508-3.262l-13.352-9.852c-1.804 1.52-3.445 2.508-5.753 3.211-2 .602-4.235.938-6.477.938a22.7 22.7 0 0 1-6.473-.938c-2.312-.703-3.953-1.691-5.754-3.21L0 23.334a131 131 0 0 1 2.508 3.263c.918 1.39 1.754 2.738 2.199 4.363.324 1.21.336 2.371.117 3.605-.36 2.004-1.199 3.918-2 5.79-.832 1.925-1.562 3.917-2.058 5.953-.438 1.777-.696 3.656-.551 5.496.2 2.293 1.055 4.394 2.586 6.12 1.87 2.122 4.508 3.49 7.137 4.434 1.906.676 3.898.961 5.89 1.227 1.586.207 3.195.414 4.723.918a9.3 9.3 0 0 1 2.215 1.09c1.03.687 1.906 1.574 2.816 2.406.91-.832 1.785-1.719 2.816-2.406a9.3 9.3 0 0 1 2.215-1.09c1.532-.504 3.137-.711 4.727-.918 1.992-.266 3.984-.55 5.89-1.227 2.63-.945 5.266-2.312 7.137-4.433 1.528-1.727 2.387-3.828 2.586-6.121.145-1.84-.113-3.72-.55-5.496-.5-2.036-1.231-4.028-2.063-5.954"/></g><path fill="#fff" d="m39.883 42.031-.192-.687-.015-.043H37.84l-.02.043-.199.687H36.02l1.886-5.386h1.707l1.89 5.386Zm-.45 14.77h-1.671l-1.813-5.383h1.672l.98 3.512 1.032-3.512h1.613Zm-13.855-2.293-15.406-7.883 15.406-7.883 15.414 7.883Zm8.055 4.808-.645.207-.25-.761-1.183-1.059.703-.23.61.601.148-.851.687-.223-.32 1.555Zm-2.078.586-.137-.265-.715.136-.023.301-.653.13.332-2.286.688-.137 1.168 2Zm-2.14.215c-.188.196-.47.274-.74.309-.288.035-.609.015-.84-.156-.179-.137-.257-.333-.292-.56l-.16-1.39.668-.086.164 1.34c.035.258.164.352.402.328.25-.035.336-.164.301-.414l-.164-1.34.672-.074.172 1.39c.035.24-.008.474-.184.653m-2.79.367-.043-.214a.75.75 0 0 1-.3.214 1 1 0 0 1-.387.07c-.165 0-.301-.015-.422-.07a.9.9 0 0 1-.317-.222 1.3 1.3 0 0 1-.207-.36c-.05-.136-.066-.3-.078-.48 0-.184.02-.344.07-.492a1 1 0 0 1 .215-.36q.159-.153.352-.23c.137-.05.3-.086.48-.086.25 0 .5.043.696.195a.87.87 0 0 1 .312.578l-.644.008a.46.46 0 0 0-.13-.2.42.42 0 0 0-.242-.065c-.367.007-.437.375-.43.675 0 .157.028.336.122.457.078.11.207.153.336.153a.5.5 0 0 0 .152-.024.37.37 0 0 0 .266-.285h-.324l-.008-.437.933-.016.028 1.184Zm-2.191-.761a.83.83 0 0 1-.223.53c-.23.216-.574.24-.875.216-.258-.028-.55-.094-.746-.285-.18-.172-.235-.403-.207-.641l.12-1.402.669.058-.11 1.352c-.027.258.067.367.325.394.242.016.36-.086.379-.336l.12-1.34.677.051Zm-2.387-1.008a.7.7 0 0 1-.16.336c-.078.086-.207.156-.285.148.085.04.18.117.222.203.02.043.035.086.035.149.008.16-.043.386-.05.531q-.002.088.007.129v.008c0 .02.008.035.008.043l-.668-.13c-.011-.077 0-.136.008-.206.016-.145.094-.36.016-.489-.051-.07-.145-.101-.23-.12l-.317-.06-.14.747-.661-.129.422-2.137 1.02.196c.214.043.5.113.663.285a.45.45 0 0 1 .11.215.7.7 0 0 1 0 .28m-3.004.836a1.1 1.1 0 0 1-.363.05 1.7 1.7 0 0 1-.438-.085c-.16-.051-.3-.121-.41-.192-.05-.039-.105-.074-.148-.117-.23-.223-.266-.516-.168-.809l.437-1.34.64.215-.417 1.282c-.078.246-.012.375.23.46.242.079.371 0 .446-.238l.414-1.289.644.215-.43 1.332c-.078.23-.214.422-.437.516m-4.348-4.758a1.2 1.2 0 0 1-.148.375 1 1 0 0 1-.238.3c-.094.098-.2.165-.329.235a2 2 0 0 1-.265.11q-.158.04-.309.07a4 4 0 0 1-.445.043q-.277.013-.664.015H9.918V50.56h2.2c.241 0 .444 0 .624.007.184.008.32.02.43.028.113.008.207.023.3.05a1.54 1.54 0 0 1 .613.258q.154.119.255.274c.07.113.129.222.164.351.035.13.05.278.05.43q0 .168-.042.336a1 1 0 0 1-.11.285c-.05.082-.12.16-.199.238q-.13.105-.281.2l-.121.058.129.043c.136.051.265.113.367.188q.148.117.25.258c.07.105.113.214.148.343q.05.197.051.438a2 2 0 0 1-.05.449M9.66 38.699c0-.445.063-.844.184-1.187.117-.344.308-.645.547-.903.25-.246.53-.437.867-.566a3.2 3.2 0 0 1 1.144-.188c.782 0 1.391.188 1.836.567.223.18.395.414.524.68.113.25.191.539.222.859h-1.578a1 1 0 0 0-.086-.336.74.74 0 0 0-.199-.285.9.9 0 0 0-.3-.172 1.3 1.3 0 0 0-.403-.059c-.371 0-.652.172-.86.446-.222.3-.335.722-.324 1.136 0 .418.118.84.352 1.149.203.258.496.437.883.437q.216 0 .386-.066a.8.8 0 0 0 .31-.191.8.8 0 0 0 .198-.301c.051-.102.078-.223.094-.352h1.555a3 3 0 0 1-.215.887 2.13 2.13 0 0 1-1.313 1.133 3.3 3.3 0 0 1-1.039.144c-.437 0-.828-.058-1.168-.187a2.38 2.38 0 0 1-1.433-1.461 3.6 3.6 0 0 1-.184-1.184m2.324-11.844h1.493q.17.001.312.043c.094.016.18.063.258.102.074.055.152.105.215.164.058.07.11.137.144.215.043.078.067.164.094.242a1.2 1.2 0 0 1 .008.453 1.4 1.4 0 0 1-.059.192.8.8 0 0 1-.105.18 1 1 0 0 1-.067.085.7.7 0 0 1 .114.121q.085.102.136.203.05.118.075.235.028.11.027.238a.8.8 0 0 1-.035.25.8.8 0 0 1-.266.445.8.8 0 0 1-.223.157.9.9 0 0 1-.293.101 1.3 1.3 0 0 1-.335.035h-1.493Zm3.102 0h2.422v.739h-1.59v.55h1.46v.747h-1.46v.68h1.664v.745h-2.496Zm2.773 0h.79v2.715h1.503v.746H17.86Zm2.602 0h.789v2.715h1.512v.746H20.46Zm.488-5.566q.043-.154.102-.3a1.3 1.3 0 0 1 .148-.274c.121-.18.274-.324.473-.43.23-.129.515-.172.781-.164.016 0 .043.012.059.012h-.008c.164.008.316.05.465.11.078.034.144.077.215.12a1.2 1.2 0 0 1 .343.344c.102.137.172.293.203.453.02.113.028.215.028.328h-.766c-.05-.379-.203-.652-.617-.652a.57.57 0 0 0-.402.144 1 1 0 0 0-.149.172c-.137.223-.187.508-.187.766q0 .143.027.273c.016.086.043.172.066.258.051.149.137.285.258.395.106.097.23.136.371.136.164 0 .309-.039.43-.152.137-.121.188-.265.223-.445h.781c-.027.426-.207.824-.574 1.074-.27.168-.567.238-.887.238-.238 0-.48-.043-.695-.164-.285-.164-.473-.422-.602-.722a3 3 0 0 1-.094-.297 2.553 2.553 0 0 1 .008-1.223m3.04 5.566h.878l.008.051 1.098 3.324.027.086h-.844l-.008-.043-.222-.636h-1.004l-.192.636-.007.043h-.84l.023-.086 1.067-3.324Zm.113-4.046h.78v.816h-.78Zm3.082-2.645h.875l1.152 3.461h-.84l-.25-.684h-.996l-.207.684h-.84Zm2.57 6.691-1.094 3.461h-.676l-1.058-3.46h.8l.602 2.285.633-2.286Zm.96 0v3.461h-.788v-3.46Zm-1.21-4.046h.789v.816h-.79Zm1.476 6.332h.79v.07c0 .082.02.152.043.21.027.056.07.106.12.15a.8.8 0 0 0 .422.12c.11 0 .196-.011.274-.027a.4.4 0 0 0 .18-.07H32.8a.3.3 0 0 0 .105-.102.4.4 0 0 0 .032-.156c0-.066-.016-.125-.067-.172a.5.5 0 0 0-.094-.066c-.035-.028-.07-.043-.113-.063h-.008q-.064-.022-.164-.05c-.07-.016-.137-.044-.222-.06q-.128-.027-.215-.05a.6.6 0 0 0-.121-.027 2 2 0 0 1-.274-.094 2 2 0 0 1-.234-.137 1.2 1.2 0 0 1-.18-.156 1 1 0 0 1-.129-.188h-.008a.91.91 0 0 1-.07-.617c.02-.07.035-.14.07-.207a.7.7 0 0 1 .102-.18.8.8 0 0 1 .156-.164c.051-.05.121-.093.188-.136a1.51 1.51 0 0 1 .492-.164c.101-.008.195-.02.308-.02.223.012.41.035.567.086.164.055.293.14.379.242q.13.154.195.36c.043.136.07.285.07.457v.066h-.746v-.066a.6.6 0 0 0-.035-.207.36.36 0 0 0-.113-.13.8.8 0 0 0-.188-.077 1 1 0 0 0-.234-.024.8.8 0 0 0-.36.067.26.26 0 0 0-.12.199c.007.035.02.078.027.11.027.034.05.07.086.105a.6.6 0 0 0 .164.093c.066.028.144.063.246.079q.234.064.43.128c.129.043.25.086.343.137.106.05.2.113.27.172a.921.921 0 0 1 .316.465c.024.094.032.195.032.3v.008a.8.8 0 0 1-.051.282.8.8 0 0 1-.117.258.95.95 0 0 1-.465.386 1 1 0 0 1-.336.106 2 2 0 0 1-.395.031c-.078 0-.156 0-.222-.016a1.3 1.3 0 0 1-.223-.043c-.078-.023-.156-.058-.234-.093a2 2 0 0 1-.207-.13 1 1 0 0 1-.188-.171.9.9 0 0 1-.137-.207 1 1 0 0 1-.093-.258 1 1 0 0 1-.036-.29Zm2.73-2.286h2.622v.739h-.902v2.722h-.782v-2.722h-.937Zm3.446 0h.875l.016.051 1.101 3.324.032.086h-.84l-.016-.043-.234-.636h-1.004l-.18.636-.015.043h-.844l.027-.086 1.063-3.324Zm9.7 14.137c-.594-1.375-1.16-2.715-1.59-4.062-.438-1.399-.711-2.774-.696-4.184a8.8 8.8 0 0 1 .38-2.43H39.94v-1.664h5.645c.074-.164.152-.32.238-.484.192-.387.414-.781.653-1.191H39.94v-1.668h7.637c.387-.54.805-1.098 1.27-1.672H32.504v-1.668h14.078l-2.262-1.676H32.504v-1.664h9.55l-4.171-3.082c-2.656 2.238-7.492 3.707-12.301 3.707s-9.644-1.469-12.297-3.707l-4.172 3.082h9.547v1.664H6.844l-2.258 1.676H18.66v1.668H2.32q.69.862 1.27 1.672h7.633v1.668H4.687c.243.41.465.804.653 1.191.086.164.164.32.242.484h5.64v1.664H6.22c.246.84.367 1.649.375 2.43.02 1.41-.258 2.785-.696 4.184-.43 1.347-.996 2.687-1.585 4.062-.852 1.985-1.54 3.89-1.977 5.703-.43 1.758-.629 3.426-.5 4.97.164 1.933.836 3.679 2.176 5.187 1.383 1.566 3.484 2.906 6.472 3.976 1.832.652 3.711.902 5.547 1.152 1.73.23 3.41.454 5.028.989.945.308 1.785.73 2.609 1.277.637.43 1.254.938 1.914 1.547.66-.61 1.281-1.117 1.914-1.547a10.7 10.7 0 0 1 2.613-1.277c1.614-.535 3.297-.758 5.024-.989 1.836-.25 3.719-.5 5.547-1.152 2.988-1.07 5.093-2.41 6.476-3.976 1.34-1.508 2.008-3.254 2.172-5.188.129-1.543-.066-3.21-.496-4.969-.437-1.812-1.125-3.718-1.977-5.703"/><path fill="#fff" d="m21.129 58.426-.317-.063-.085.438.332.062c.086.016.214.043.285-.027.035-.023.058-.086.066-.137.012-.058.012-.12-.015-.156-.06-.074-.188-.102-.266-.117M12.633 52.723a.6.6 0 0 0 .222-.086.45.45 0 0 0 .137-.172.7.7 0 0 0 .035-.25.6.6 0 0 0-.043-.25.4.4 0 0 0-.144-.172.9.9 0 0 0-.285-.082 3.4 3.4 0 0 0-.489-.027h-.55v1.074h.789c.129 0 .234-.02.328-.035M24.445 28.016l-.285.918h.559ZM13.004 53.762a.7.7 0 0 0-.262-.094 2 2 0 0 0-.36-.027h-.866v1.132h.875c.148 0 .265-.007.363-.035a.65.65 0 0 0 .258-.093.54.54 0 0 0 .195-.446.6.6 0 0 0-.05-.258.5.5 0 0 0-.153-.18M37.61 28.016l-.274.918h.559ZM13.574 28.188c.043-.008.067-.036.094-.06h.008a.35.35 0 0 0 .078-.226.32.32 0 0 0-.078-.222.2.2 0 0 0-.102-.059.3.3 0 0 0-.14-.027h-.704v.617h.704a.34.34 0 0 0 .14-.023M13.668 29.578a.3.3 0 0 0 .102-.07.5.5 0 0 0 .07-.11 1 1 0 0 0 .015-.136 1 1 0 0 0-.015-.14c-.016-.032-.043-.067-.07-.102-.024-.036-.06-.051-.102-.067a.3.3 0 0 0-.145-.027h-.793v.68h.793c.051 0 .102-.012.145-.028M38.766 38.09l-.618 2.094-.027.078h1.274l-.028-.078zM27.64 21.324l-.277.918h.559ZM30.738 59.324l.48-.094-.394-.773Zm0 0"/><path fill="#0f1f44" d="M30.293 22.809h-.79v.816h.79zM27.64 21.324l.282.918h-.559Zm-.515 1.617h.996l.25.684h.84l-1.152-3.46h-.875l-1.106 3.46h.84zM24.883 22.809h-.781v.816h.78zM21.035 22.809c.13.3.317.558.602.722.215.121.457.164.695.164.32 0 .617-.07.887-.238.367-.25.547-.648.574-1.074h-.781c-.035.18-.086.324-.223.445a.6.6 0 0 1-.43.152.52.52 0 0 1-.37-.136.94.94 0 0 1-.259-.395c-.023-.086-.05-.172-.066-.258a1.3 1.3 0 0 1-.027-.273c0-.258.05-.543.187-.766a1 1 0 0 1 .149-.172.57.57 0 0 1 .402-.144c.414 0 .566.273.617.652h.766a2 2 0 0 0-.028-.328 1.1 1.1 0 0 0-.203-.453 1.2 1.2 0 0 0-.343-.344c-.07-.043-.137-.086-.215-.12a1.4 1.4 0 0 0-.465-.11h.008c-.016 0-.043-.012-.059-.012-.265-.008-.55.035-.781.164-.2.106-.352.25-.473.43a1.3 1.3 0 0 0-.148.273q-.06.148-.102.301a2.55 2.55 0 0 0-.008 1.223c.028.101.059.203.094.297M34.648 30.316h.782v-2.722h.902v-.739h-2.621v.739h.937zM31.11 29.758a.9.9 0 0 0 .136.207 1 1 0 0 0 .188.172q.106.075.207.129c.078.035.156.07.234.093.066.02.145.036.223.043.066.016.144.016.222.016.137 0 .274-.008.395-.031a1 1 0 0 0 .336-.106.948.948 0 0 0 .465-.387.8.8 0 0 0 .117-.257.8.8 0 0 0 .05-.282v-.007c0-.106-.007-.207-.03-.301a.92.92 0 0 0-.317-.465 1.3 1.3 0 0 0-.27-.172 2 2 0 0 0-.343-.137 9 9 0 0 0-.43-.128c-.102-.016-.18-.051-.246-.079a.6.6 0 0 1-.164-.093c-.035-.035-.059-.07-.086-.106-.008-.031-.02-.074-.027-.11a.26.26 0 0 1 .12-.198.8.8 0 0 1 .36-.067q.129 0 .234.024c.067.02.13.043.188.078q.074.052.113.129a.6.6 0 0 1 .035.207v.066h.746v-.066c0-.172-.027-.32-.07-.457a1 1 0 0 0-.195-.36.84.84 0 0 0-.38-.242 2.3 2.3 0 0 0-.566-.086c-.113 0-.207.012-.308.02a1.5 1.5 0 0 0-.492.164c-.067.043-.137.086-.188.136a.8.8 0 0 0-.156.165.7.7 0 0 0-.102.18c-.035.066-.05.136-.07.206a.9.9 0 0 0 0 .418q.03.105.07.2h.008a1 1 0 0 0 .13.187c.05.05.112.113.179.156q.105.075.234.137c.086.035.172.07.274.094.02 0 .05.007.12.027q.089.023.216.05c.085.016.152.044.222.06q.1.028.164.05h.008c.043.02.078.035.113.063a.5.5 0 0 1 .094.066c.05.047.066.106.066.172a.4.4 0 0 1-.03.156.3.3 0 0 1-.106.102h.008a.4.4 0 0 1-.18.07 1.3 1.3 0 0 1-.274.027.815.815 0 0 1-.422-.121.5.5 0 0 1-.12-.148.6.6 0 0 1-.043-.211v-.07h-.79v.07c0 .102.008.195.036.289a1 1 0 0 0 .093.258M29.926 30.316h.789v-3.46h-.79zM28.328 29.14l-.601-2.285h-.801l1.058 3.461h.676l1.094-3.46h-.793zM22.762 29.57H21.25v-2.715h-.79v3.461h2.302zM20.152 29.57h-1.504v-2.715h-.789v3.461h2.293zM17.582 29.57h-1.664v-.68h1.46v-.745h-1.46v-.551h1.59v-.739h-2.422v3.461h2.496zM37.61 28.016l.285.918h-.56Zm-1.563 2.3h.844l.015-.043.18-.636h1.004l.234.636.016.043h.84l-.032-.086-1.101-3.324-.016-.05h-.875l-.02.05-1.062 3.324zM24.445 28.016l.274.918h-.559Zm-1.562 2.3h.84l.007-.043.192-.636h1.004l.222.636.008.043H26l-.027-.086-1.098-3.324-.008-.05h-.879l-.015.05-1.067 3.324zM12.73 28.926h.793a.3.3 0 0 1 .145.027c.043.016.078.031.102.067.027.035.054.07.07.101q.014.065.015.14a1 1 0 0 1-.015.137.5.5 0 0 1-.07.11.3.3 0 0 1-.102.07.4.4 0 0 1-.145.027h-.793Zm0-1.332h.704c.062 0 .105.008.14.027a.2.2 0 0 1 .102.059c.05.058.078.129.078.222a.35.35 0 0 1-.078.227h-.008c-.027.023-.05.05-.094.058a.34.34 0 0 1-.14.024h-.704Zm1.082 2.687c.106-.015.2-.05.293-.101a.8.8 0 0 0 .223-.157.8.8 0 0 0 .266-.445.8.8 0 0 0 .035-.25 1 1 0 0 0-.027-.238 1.4 1.4 0 0 0-.075-.235 1 1 0 0 0-.136-.203.7.7 0 0 0-.114-.12c.024-.028.051-.063.067-.087a.8.8 0 0 0 .105-.18 1.034 1.034 0 0 0 .078-.387q.002-.128-.027-.257c-.027-.078-.05-.164-.094-.242a1 1 0 0 0-.144-.215c-.063-.059-.14-.11-.215-.164-.078-.04-.164-.086-.258-.102a1.1 1.1 0 0 0-.312-.043h-1.493v3.461h1.493c.12 0 .234-.007.335-.035M11.277 41.344c.34.129.73.187 1.168.187.387 0 .727-.043 1.04-.144a2.135 2.135 0 0 0 1.313-1.133c.108-.27.186-.559.214-.887h-1.555c-.016.13-.043.25-.094.352a.8.8 0 0 1-.199.3.8.8 0 0 1-.309.192 1.1 1.1 0 0 1-.386.066c-.387 0-.68-.18-.883-.437-.234-.309-.352-.73-.352-1.149-.011-.414.102-.836.325-1.136.207-.274.488-.446.859-.446.156 0 .285.02.402.059a.9.9 0 0 1 .301.172.74.74 0 0 1 .2.285c.042.102.077.215.085.336h1.578a2.7 2.7 0 0 0-.222-.86 2 2 0 0 0-.524-.68c-.445-.378-1.054-.566-1.836-.566-.43 0-.808.06-1.144.188-.336.129-.617.32-.867.566-.239.258-.43.559-.547.903a3.6 3.6 0 0 0-.184 1.187q.001.657.184 1.184.186.517.554.894c.25.25.543.446.88.567M38.602 54.93l-.98-3.512h-1.673l1.813 5.383h1.672l1.812-5.383h-1.613zM38.121 40.262l.027-.078.618-2.094.601 2.094.028.078Zm-.215-3.617L36.02 42.03h1.601l.2-.687.019-.043h1.836l.015.043.192.687h1.62l-1.89-5.386zM13.156 54.457a.5.5 0 0 1-.144.188.65.65 0 0 1-.258.093 1.4 1.4 0 0 1-.363.035h-.875v-1.132h.867q.206-.002.36.027c.112.023.198.05.26.094q.1.075.153.18a.6.6 0 0 1 .051.257.6.6 0 0 1-.05.258m-1.64-2.773h.55q.295-.002.489.027c.129.016.222.05.285.082.066.047.11.098.144.172.036.07.043.156.043.25s-.007.18-.035.25a.45.45 0 0 1-.137.172.6.6 0 0 1-.222.086c-.094.015-.2.035-.328.035h-.79Zm3.03 1.879a1.3 1.3 0 0 0-.25-.258 1.5 1.5 0 0 0-.366-.188l-.13-.043.122-.058q.152-.095.281-.2c.078-.078.149-.156.2-.238q.074-.134.109-.285.042-.168.043-.336c0-.152-.016-.3-.051-.43a1.3 1.3 0 0 0-.164-.351 1.1 1.1 0 0 0-.254-.274 1.5 1.5 0 0 0-.613-.257 1.4 1.4 0 0 0-.301-.051c-.11-.008-.246-.02-.43-.028-.18-.007-.383-.007-.625-.007H9.918v5.382h2.379q.387-.001.664-.015c.187-.008.332-.028.445-.043q.151-.03.309-.07.14-.047.265-.11c.13-.07.235-.137.329-.234.093-.082.18-.188.238-.301.07-.117.121-.238.148-.375a2 2 0 0 0 0-.887 1.1 1.1 0 0 0-.148-.343M33.016 57.223l-.149.851-.61-.601-.702.23 1.183 1.059.25.761.645-.207-.25-.761.32-1.555zM29.426 58.074l-.672.074.164 1.34c.035.25-.05.38-.3.414-.24.024-.368-.07-.403-.328l-.164-1.34-.668.086.16 1.39c.035.227.113.423.293.56.23.171.55.19.84.156.27-.035.55-.114.738-.309.176-.18.219-.414.184-.652zM26.094 59.309l.008.437h.324a.37.37 0 0 1-.266.285.5.5 0 0 1-.152.024c-.13 0-.258-.043-.336-.153-.094-.12-.121-.3-.121-.457-.008-.3.062-.668.43-.675.085 0 .164.015.242.066.058.05.101.121.129.2l.644-.009a.87.87 0 0 0-.312-.578c-.196-.152-.446-.195-.696-.195-.18 0-.343.035-.48.086q-.194.077-.352.23a1 1 0 0 0-.215.36 1.5 1.5 0 0 0-.07.492c.012.18.027.344.078.48.055.137.121.258.207.36.094.101.2.172.317.222.12.055.257.07.422.07a1 1 0 0 0 .386-.07.75.75 0 0 0 .301-.214l.043.214.43-.007-.028-1.184zM23.766 59.61c-.02.25-.137.35-.38.335-.257-.027-.35-.136-.323-.394l.109-1.352-.668-.058-.121 1.402c-.028.238.027.469.207.64.195.192.488.258.746.286.3.023.644 0 .875-.215a.83.83 0 0 0 .223-.531l.128-1.403-.675-.05zM19.266 57.488l-.414 1.29c-.075.238-.204.316-.446.238-.242-.086-.308-.215-.23-.461l.418-1.282-.64-.214-.438 1.34c-.098.292-.063.585.168.808.043.043.097.078.148.117.11.07.25.14.41.192q.233.075.438.086c.129.007.25-.02.363-.051.223-.094.36-.285.437-.516l.43-1.332zM30.738 59.324l.086-.867.395.773Zm-.379-1.406-.332 2.285.653-.129.023-.3.715-.137.137.265.66-.12-1.168-2zM21.41 58.7c-.008.05-.031.112-.066.136-.07.07-.2.043-.285.027l-.332-.062.085-.438.317.063c.078.015.207.043.266.117.027.035.027.098.015.156m.527-.481c-.164-.172-.449-.242-.664-.285l-1.02-.196-.421 2.137.66.129.14-.746.317.058c.086.02.18.051.23.121.079.13 0 .344-.015.489-.008.07-.02.129-.008.207l.668.129c0-.008-.008-.024-.008-.043v-.008q-.009-.04-.007-.129c.007-.145.058-.371.05-.531a.33.33 0 0 0-.035-.149.5.5 0 0 0-.222-.203c.078.008.207-.062.285-.148a.7.7 0 0 0 .16-.336.7.7 0 0 0 0-.281.45.45 0 0 0-.11-.215"/><path fill="#fce900" d="m25.578 38.742-15.406 7.883 15.406 7.883 15.414-7.883z"/><path fill="#0f1f44" d="M22.61 9.055c-.5 1.804-1.227 3.547-1.575 5.394 1.543-.988 2.836-2.324 4.41-3.27 1.555.958 2.864 2.258 4.387 3.266-.277-1.894-1.129-3.64-1.57-5.496 1.43-1.183 3.066-2.113 4.367-3.445-1.82-.086-3.64.027-5.461-.035-.629-1.805-1.04-3.68-1.715-5.469-.707 1.781-1.098 3.664-1.746 5.465-1.82.074-3.637-.055-5.457.039 1.297 1.363 3.031 2.219 4.36 3.55"/></svg>