<svg xmlns="http://www.w3.org/2000/svg" width="371.28" height="512.12" viewBox="0 0 278.46 384.09"><defs><clipPath id="a"><path d="M0 0h278.46v384.09H0Zm0 0"/></clipPath></defs><g clip-path="url(#a)"><path fill="#009a3e" d="M278.465 0v277.18L139.23 384.09 0 277.18V0"/></g><path fill="#fff" d="M150.223 333.691c-.766.586-1.52 1.168-2.258 1.735v20.976c3.508-2.691 7.707-5.914 12.39-9.511Zm12.164 11.641c2.312-1.777 4.726-3.633 7.226-5.55l-10.133-13.2c-2.5 1.922-4.917 3.777-7.226 5.55Zm-44.282 1.559c4.688 3.597 8.883 6.82 12.395 9.511v-20.976c-.738-.567-1.492-1.149-2.262-1.735Zm27.301-9.5-6.176 4.742c-1.882-1.45-3.953-3.04-6.171-4.742v20.98c2.597 1.992 4.703 3.61 6.171 4.738 1.473-1.129 3.575-2.746 6.176-4.738ZM261.824 21.273v-4.632h-5.633l-15.53 16.64h4.523v3.207Zm-9.137-4.632h-7.062l-15.027 16.64h6.558Zm9.137 16.48v-8.379l-16.64 15.219v8.465ZM33.281 36.488v-3.207h4.524l-15.532-16.64h-5.632v4.632Zm92.93 295.645-7.227-5.551-10.136 13.2c2.5 1.917 4.918 3.773 7.226 5.55ZM254.78 43.074v222.438c-10.422 8.004-55.39 42.531-87.422 67.125l4.286 5.586c34.292-26.332 82.585-63.414 90.18-69.243V36.602ZM111.105 332.637c-32.035-24.594-77-59.121-87.425-67.125V43.074l-7.04-6.472V268.98c7.594 5.829 55.887 42.91 90.18 69.243ZM41.305 33.28h6.558L32.84 16.641h-7.067ZM252.223 45.43l-7.04 6.472v208.875c-13.91 10.68-54.042 41.493-83.671 64.246l4.285 5.586 86.426-66.363Zm-18.715-19.188h-83.719l6 7.04h71.36Zm-86.617.54-5 6.5h10.535ZM33.28 48.425V39.96l-16.64-15.219v8.38Zm98.223-21.645-5.54 6.5H136.5Zm-14.55 298.242C87.32 302.27 47.187 271.457 33.28 260.777V51.902l-7.043-6.472v218.816c11.403 8.754 55.117 42.32 86.426 66.36ZM146.788 22.72l4.672-6.078h-9.852Zm-15.184 0 5.176-6.078h-9.851Zm17.672.96h86.54l6.359-7.038H154.69Zm-106.632 0h86.472l-5.418-7.038H36.285Zm85.957 2.563H44.957l6.36 7.04h71.285Zm10.593 6.348-6.14-7.61 6.14-7.226 6.13 7.238-6.15 7.598Zm125.188 237.652c-9.504 7.297-110.684 84.988-125.153 96.094L14.082 270.242V14.082h250.3ZM2.559 2.562v273.36c1.953 1.496 133.644 102.617 136.671 104.941l136.672-104.941V2.562"/><path fill="#fff" d="M35.84 35.84v223.676c18.719 14.37 76.058 58.398 103.39 79.386l103.391-79.386V35.84"/><path fill="#d0261d" d="m174.426 92.328 68.195 27.797v-8.79l-85.93-31.374c6.43 2.7 12.114 7.02 17.735 12.367m25.894 27.59 42.301 21.625v-8.43L189.234 108c3.403 3.754 7.059 7.762 11.086 11.918m-55.03-53.059h3.651l.926 4.121 92.754 28.582v-7.765L144.86 65.344Zm97.331-6.515v-6.895L70.266 38.773c.082-.968.132-1.945.132-2.933H35.84v34.558c.719 0 1.43-.027 2.133-.07l6.359 79.012c2.383-1.461 4.684-2.95 6.914-4.461l-10.57-74.824a34 34 0 0 0 4.086-.825l17.96 67.208c1.915-1.52 3.77-3.051 5.575-4.59l-21.39-63.27a34 34 0 0 0 3.023-1.183l25.816 57.824a303 303 0 0 0 6.488-6.192L52.672 66.02a35 35 0 0 0 3.816-2.465l34.653 46.504q1.381-1.418 2.734-2.813l2-2.058L58.453 61.96a34 34 0 0 0 3.363-3.344l42.942 37.649a172 172 0 0 1 4.558-4.258L63.29 56.824q.676-.88 1.297-1.8l49.43 32.98a74 74 0 0 1 4.398-3.293L65.578 53.44a38 38 0 0 0 1.031-1.87l57.786 29.534c.695-.355 1.39-.687 2.093-1.003l.285-1.485-59.66-28.066q.386-.82.73-1.664l59.938 24.43.7-3.657-60.172-21.965q.304-.826.562-1.675l64.363 19.835.602-3.496-64.637-17.492q.312-1.148.543-2.332l172.88 34.14v-5.679L69.905 41.633q.141-.855.246-1.727Zm-97.82 9.074 2.25.691c-.067-.293-.121-.53-.156-.691Zm6.652 8.633 1.594.582a34 34 0 0 0-1.563-.445"/><path d="M129.313 78.96c.539-2.823 1.574-8.265 1.82-9.542h15.762c.23 1.035 1.152 5.129 1.828 8.152a41.4 41.4 0 0 0-7.641-.699c-4.144 0-8.031.742-11.77 2.09m7.079-16.348h5.03c.235.84.802 2.817 1.208 4.246h-6.973c.239-1.37.574-3.316.735-4.246m98.222 86.516c-21.293-14.531-35.289-29.984-46.55-42.426-12.278-13.558-22.454-24.8-36.579-28.52l-2.543-11.324h-3.652l-1.937-6.804h-9.118l-1.172 6.804h-4.05l-2.524 13.243c-11.05 4.96-20.968 15.16-32.613 27.144-13.14 13.524-28.023 28.832-49.203 41.883h-30.59V272.55h250.3V149.129"/><path fill="#009a3e" d="M16.64 269.988h245.184V151.691H16.641ZM229.75 149.129c-47.262-33.492-56.594-69.695-89.047-69.695-29.226 0-46.07 40.175-91.617 69.695"/><path fill="#d0261d" d="M139.23 180.91c4.141 1.707 51.395 21.164 72.176 29.723a506306 506306 0 0 0-72.176 29.719 506306 506306 0 0 0-72.175-29.72c20.78-8.558 68.035-28.015 72.175-29.722M30.074 210.633l109.156 44.945 109.157-44.945-109.157-44.95M50.059 174.547q-.001-2.133-1.192-3.117-1.195-.985-3.402-.985H44.28v8.918h1.14q2.204 0 3.423-1.152c.808-.774 1.215-1.992 1.215-3.664m10.222 15.816h-8.168q-2.115-3.23-3.515-5.148a93 93 0 0 0-3.485-4.43h-.832v6.442q0 .539.203.914c.133.246.395.457.774.625q.286.123.894.246.609.13 1.047.172v1.18H35.84v-1.18q.435-.042 1.15-.125c.472-.055.812-.125 1.011-.204.379-.16.637-.363.766-.605q.194-.37.195-.937v-14.997q0-.54-.168-.898-.165-.359-.793-.629-.482-.193-1.133-.328a23 23 0 0 0-1.027-.195v-1.18H47.78q4.002 0 6.082 1.254 2.076 1.255 2.078 3.793-.001 2.238-1.285 3.597c-.851.907-2.156 1.614-3.902 2.125.68.88 1.473 1.895 2.379 3.055q1.355 1.734 2.828 3.55.463.58 1.266 1.423c.535.558 1.007.906 1.418 1.035q.345.104.878.18c.356.047.606.078.758.086M240.973 169.684q-.599.075-1.02.152c-.277.05-.59.117-.941.21q-.615.165-.785.587a2.45 2.45 0 0 0-.172.957v11.726q-.002 1.621-.653 2.97a6.5 6.5 0 0 1-1.793 2.265 8.2 8.2 0 0 1-2.578 1.355c-.949.309-1.965.457-3.043.457q-2.802 0-4.52-1.347c-1.144-.903-1.714-2.133-1.714-3.707 0-.926.262-1.7.785-2.309.527-.61 1.246-.914 2.168-.914q1.301-.001 2.074.766.774.766.774 1.89 0 .962-.668 1.778-.668.82-1.524 1.511v.196c.09.199.29.367.586.507q.457.211.918.211 1.805 0 2.836-1.289 1.031-1.29 1.031-3.898v-12.02c0-.355-.054-.66-.168-.898q-.164-.358-.796-.63a5.4 5.4 0 0 0-1.094-.327 17 17 0 0 0-1.063-.2v-1.175h11.36M54.96 236.57h-1.179c-.293-.824-.8-1.707-1.535-2.636q-1.102-1.396-2.086-1.532-.45-.059-1.2-.105a22 22 0 0 0-1.374-.043H44.28v8.34h2.114q.9-.002 1.562-.203a2.75 2.75 0 0 0 1.168-.73c.25-.25.492-.673.727-1.259q.352-.88.43-1.511h1.136v8.98h-1.137c-.043-.45-.195-1-.465-1.644-.273-.649-.5-1.079-.691-1.29-.29-.32-.66-.554-1.11-.71-.449-.157-.992-.235-1.62-.235H44.28v7.04c0 .359.067.663.203.921.133.254.395.461.774.621q.331.135.91.246.58.113 1.152.172v1.18H35.84v-1.18c.289-.031.676-.07 1.156-.129q.719-.08 1.004-.199.54-.21.75-.586c.14-.25.21-.566.21-.96v-14.993q0-.51-.187-.89-.187-.385-.773-.637a6.3 6.3 0 0 0-1.11-.332q-.689-.148-1.05-.196v-1.18h19.12M233.242 252.172c-1.562 0-3.023-.25-4.383-.758a10.3 10.3 0 0 1-3.558-2.2q-1.483-1.408-2.34-3.487-.855-2.079-.856-4.575-.001-2.472.864-4.582a10.9 10.9 0 0 1 2.422-3.656q1.53-1.517 3.68-2.348c1.429-.554 2.96-.836 4.593-.836 1.18 0 2.258.149 3.227.434q1.459.434 2.46.973l.93-.825h1.301l.14 7.758h-1.32q-1.124-3.55-2.699-5.215-1.577-1.664-3.84-1.664-2.818 0-4.289 2.485t-1.469 6.969c0 1.695.165 3.136.5 4.332.336 1.195.774 2.16 1.313 2.886.578.766 1.266 1.32 2.05 1.676.794.356 1.665.531 2.626.531q2.097 0 3.738-1.14c1.094-.762 2.094-1.914 2.992-3.457l1.297.78c-.43.884-.918 1.669-1.469 2.364a8.8 8.8 0 0 1-1.906 1.797c-.793.55-1.664.98-2.621 1.293q-1.43.464-3.383.465"/><path fill="#1e307a" d="M139.23 295.387c7.743 4.96 15.54 5.254 21.836-.352-9.078 1.797-16.046-.398-21.836-4.758-5.789 4.36-12.757 6.555-21.832 4.758 6.297 5.606 14.09 5.313 21.832.352m0-14.106c7.47 4.785 14.985 5.067 21.055-.336-8.754 1.73-15.472-.386-21.055-4.59-5.582 4.204-12.3 6.32-21.054 4.59 6.074 5.403 13.59 5.121 21.054.336m75.012-.289c-8.648 1.715-15.285-.379-20.797-4.531-5.511 4.152-12.148 6.246-20.793 4.531 5.996 5.34 13.422 5.063 20.793.336 7.375 4.727 14.797 5.004 20.797-.336m-33.258 9.168c-5.187 1.027-9.172-.226-12.48-2.719-3.305 2.493-7.29 3.747-12.477 2.72 3.602 3.202 8.055 3.038 12.477.202 4.426 2.836 8.879 3 12.48-.203m-6.41 15.797c-5.187 1.027-9.172-.227-12.476-2.719-3.309 2.492-7.293 3.746-12.48 2.719 3.6 3.203 8.054 3.035 12.48.2 4.422 2.835 8.875 3.003 12.476-.2M85.02 281.328c7.37 4.727 14.793 5.004 20.793-.336-8.645 1.715-15.282-.379-20.793-4.531-5.516 4.152-12.153 6.246-20.797 4.531 6 5.34 13.422 5.063 20.797.336m24.937 9.035c4.426 2.836 8.879 3 12.477-.203-5.188 1.027-9.168-.226-12.477-2.719-3.309 2.493-7.289 3.747-12.477 2.72 3.598 3.202 8.055 3.038 12.477.202m6.41 15.793c4.422 2.836 8.88 3.004 12.477-.199-5.188 1.027-9.168-.227-12.477-2.719-3.308 2.492-7.289 3.746-12.476 2.719 3.597 3.203 8.05 3.035 12.476.2m-3.129 9.417c10.809 2.14 19.102-.472 25.992-5.664 6.891 5.192 15.188 7.805 25.997 5.664-7.5 6.672-16.778 6.324-25.997.414-9.214 5.91-18.496 6.258-25.992-.414"/></svg>