<?xml version="1.0" encoding="UTF-8" standalone="no"?>
<svg
   xmlns:dc="http://purl.org/dc/elements/1.1/"
   xmlns:cc="http://creativecommons.org/ns#"
   xmlns:rdf="http://www.w3.org/1999/02/22-rdf-syntax-ns#"
   xmlns:svg="http://www.w3.org/2000/svg"
   xmlns="http://www.w3.org/2000/svg"
   xmlns:sodipodi="http://sodipodi.sourceforge.net/DTD/sodipodi-0.dtd"
   xmlns:inkscape="http://www.inkscape.org/namespaces/inkscape"
   version="1.1"
   id="Layer_1"
   x="0px"
   y="0px"
   viewBox="0 0 1000 999.99997"
   xml:space="preserve"
   sodipodi:docname="Asociación Atlética Argentino Juniors.svg"
   width="1000"
   height="1000"
   inkscape:version="1.0.1 (3bc2e813f5, 2020-09-07)"><metadata
   id="metadata133"><rdf:RDF><cc:Work
       rdf:about=""><dc:format>image/svg+xml</dc:format><dc:type
         rdf:resource="http://purl.org/dc/dcmitype/StillImage" /><dc:title></dc:title></cc:Work></rdf:RDF></metadata><defs
   id="defs131" /><sodipodi:namedview
   pagecolor="#ffffff"
   bordercolor="#666666"
   borderopacity="1"
   objecttolerance="10"
   gridtolerance="10"
   guidetolerance="10"
   inkscape:pageopacity="0"
   inkscape:pageshadow="2"
   inkscape:window-width="1920"
   inkscape:window-height="1017"
   id="namedview129"
   showgrid="false"
   units="px"
   inkscape:zoom="0.827"
   inkscape:cx="500"
   inkscape:cy="500"
   inkscape:window-x="-8"
   inkscape:window-y="-8"
   inkscape:window-maximized="1"
   inkscape:current-layer="Layer_1"
   inkscape:document-rotation="0" />






























































<g
   id="g955"
   transform="matrix(1.6045554,0,0,1.6045554,24.999993,24.999993)"><circle
     transform="rotate(-45)"
     style="fill:#ffffff;stroke-width:0.99999"
     cx="-2.8421709e-14"
     cy="418.65271"
     id="ellipse2"
     r="296.03217" /><circle
     style="fill:#2e3192"
     cx="296.03659"
     cy="296.03162"
     r="288.814"
     id="circle4" /><circle
     transform="rotate(-45)"
     style="fill:#ffffff;stroke-width:0.99999"
     cx="-0.00035381317"
     cy="418.65363"
     id="ellipse6"
     r="226.23584" /><rect
     x="90.681572"
     y="201.51361"
     style="fill:#ee3124"
     width="410.14801"
     height="189.041"
     id="rect8" /><rect
     x="103.33957"
     y="214.17162"
     style="fill:#ffffff"
     width="384.832"
     height="163.724"
     id="rect10" /><path
     style="fill:#ee3124"
     d="m 478.32558,366.64061 v -142.624 h -294.532 z"
     id="path12" /><path
     style="fill:#ee3124"
     d="m 114.59258,224.01661 h -1.408 v 144.032 h 298.471 z"
     id="path14" /><path
     d="m 271.28058,164.09761 c -1.406,0.845 -2.529,1.406 -3.094,2.813 -0.843,0.846 -1.126,2.254 -1.126,3.378 0,1.687 0.846,3.374 2.252,4.499 1.406,1.408 3.658,2.251 6.75,3.094 1.969,0.282 3.376,0.847 3.94,1.406 0.278,0.281 0.561,1.127 0.843,1.689 -0.282,0.845 -0.565,1.125 -0.843,1.689 -0.564,0.563 -1.408,0.563 -2.534,0.842 -1.406,-0.278 -2.529,-0.559 -3.377,-1.686 -0.279,-0.562 -0.843,-1.406 -0.843,-2.534 l -7.033,0.564 c 0,2.249 1.127,4.218 2.535,5.909 1.685,1.688 4.499,2.248 8.718,2.248 2.25,0 4.22,-0.282 5.625,-0.842 1.689,-0.846 2.814,-1.689 3.658,-3.096 0.845,-1.122 1.125,-2.811 1.125,-4.218 0,-1.406 -0.28,-2.25 -0.842,-3.376 -0.565,-1.126 -1.691,-2.249 -3.097,-2.814 -1.407,-0.844 -3.658,-1.407 -7.033,-2.249 -1.123,-0.283 -1.966,-0.564 -2.531,-0.843 -0.283,-0.281 -0.563,-0.564 -0.563,-0.847 0,-0.559 0.279,-1.123 0.844,-1.407 0.283,-0.56 1.126,-0.56 1.969,-0.56 0.843,0 1.686,0.28 2.533,0.843 0.28,0.564 0.844,1.123 1.122,2.249 l 6.755,-0.279 c -0.283,-2.534 -1.127,-4.22 -2.814,-5.627 -1.69,-1.128 -3.941,-1.687 -7.033,-1.687 -2.53,0 -4.5,0.281 -5.906,0.842 z"
     id="path16" /><path
     d="m 255.52758,163.53661 v 13.502 l -9.002,-13.502 h -7.032 v 24.191 h 7.032 v -13.218 l 9.002,13.218 h 7.033 v -24.191 z"
     id="path18" /><path
     d="m 322.47958,170.56961 c -0.28,-2.534 -1.124,-4.22 -2.814,-5.627 -1.406,-1.128 -3.936,-1.687 -7.033,-1.687 -2.529,0 -4.5,0.28 -5.906,0.842 -1.406,0.845 -2.532,1.406 -3.097,2.813 -0.843,0.846 -1.123,2.254 -1.123,3.378 0,1.687 0.843,3.374 2.249,4.499 1.128,1.408 3.658,2.251 6.755,3.094 1.965,0.282 3.371,0.847 3.935,1.406 0.563,0.281 0.844,1.127 0.844,1.689 0,0.845 -0.28,1.125 -0.844,1.689 -0.564,0.563 -1.406,0.563 -2.53,0.842 -1.405,-0.278 -2.532,-0.559 -3.377,-1.686 -0.283,-0.562 -0.842,-1.406 -0.842,-2.534 l -7.033,0.564 c 0,2.249 1.124,4.218 2.814,5.909 1.406,1.688 4.22,2.248 8.438,2.248 2.251,0 4.219,-0.282 5.626,-0.842 1.687,-0.846 2.814,-1.689 3.657,-3.096 0.842,-1.122 1.122,-2.811 1.122,-4.218 0,-1.406 -0.28,-2.25 -0.841,-3.376 -0.564,-1.126 -1.688,-2.249 -3.094,-2.814 -1.407,-0.844 -3.657,-1.407 -7.034,-2.249 -1.408,-0.283 -2.249,-0.564 -2.532,-0.843 -0.282,-0.281 -0.565,-0.564 -0.565,-0.847 0,-0.559 0.283,-1.123 0.847,-1.407 0.28,-0.56 1.124,-0.56 1.966,-0.56 0.846,0 1.689,0.28 2.533,0.843 0.564,0.564 0.843,1.123 1.126,2.249 z"
     id="path20" /><path
     d="m 341.88958,163.53661 h -8.158 l -9.004,24.191 h 7.598 l 1.126,-3.939 h 8.438 l 1.407,3.939 h 7.596 z m -6.751,14.909 2.532,-8.723 2.812,8.723 z"
     id="path22" /><path
     d="m 353.42358,163.53661 v 24.191 h 6.752 v -13.218 l 9.002,13.218 h 7.033 v -24.191 h -7.033 v 13.502 l -9.002,-13.502 z"
     id="path24" /><path
     d="m 378.46158,187.72761 h 7.595 l 1.406,-3.939 h 8.157 l 1.406,3.939 h 7.597 l -9.002,-24.191 h -7.877 z m 15.752,-9.282 h -5.343 l 2.53,-8.723 z"
     id="path26" /><path
     d="m 183.51258,163.53661 v 24.191 h 5.907 v -18.285 l 4.783,18.285 h 5.343 l 4.784,-18.285 v 18.285 h 6.188 v -24.191 h -9.846 l -3.656,14.627 -3.657,-14.627 z"
     id="path28" /><path
     d="m 215.01758,163.53661 v 24.191 h 20.254 v -5.626 h -12.658 v -4.5 h 11.534 v -5.066 h -11.534 v -3.654 h 12.377 v -5.346 h -19.973 z"
     id="path30" /><path
     d="m 297.72458,410.81261 h -6.753 v 23.91 h 6.753 v -13.224 l 9.283,13.224 h 7.033 v -23.91 h -7.033 v 13.218 z"
     id="path32" /><path
     d="m 285.34558,434.72161 v -23.91 h -7.314 v 23.91 z"
     id="path34" /><path
     style="fill:#ffffff"
     d="m 57.144579,213.85461 -11.207999,-8.382 13.973999,0.749 z m 17.638,-6.813 4.11,-11.342 -39.823999,0.377 -4.318,11.914 30.319999,25.851 4.007,-11.061 -5.177,-3.872 4.43,-12.228 z"
     id="path36" /><path
     style="fill:#ffffff"
     d="m 67.908579,190.76261 4.652,-9.923 c 1.671,0.643 3.091,0.867 4.259,0.671 1.891,-0.322 3.37,-1.455 4.432,-3.395 0.794,-1.449 1.066,-2.751 0.819,-3.904 -0.248,-1.154 -0.816,-1.977 -1.709,-2.465 -0.848,-0.463 -1.813,-0.504 -2.891,-0.122 -1.08,0.383 -2.659,1.768 -4.739,4.154 -3.427,3.898 -6.487,6.339 -9.174,7.327 -2.698,1.002 -5.326,0.804 -7.887,-0.6 -1.683,-0.92 -3.004999,-2.278 -3.967999,-4.074 -0.963,-1.794 -1.336,-3.906 -1.119,-6.334 0.216,-2.427 1.258,-5.345 3.125999,-8.759 2.29,-4.186 4.814,-6.952 7.566,-8.301 2.755,-1.349 5.938,-1.305 9.551,0.131 l -4.671,9.841 c -1.594,-0.545 -2.943,-0.592 -4.05,-0.143 -1.107,0.451 -2.051,1.39 -2.834,2.818 -0.644,1.178 -0.879,2.202 -0.707,3.069 0.171,0.868 0.615,1.497 1.329,1.888 0.521,0.285 1.125,0.296 1.81,0.032 0.692,-0.241 1.713,-1.153 3.063,-2.739 3.375,-3.904 6.075,-6.547 8.098,-7.928 2.023,-1.382 3.997,-2.112 5.919,-2.194 1.922,-0.081 3.778,0.367 5.564,1.345 2.102,1.15 3.718,2.792 4.855,4.923 1.136,2.132 1.594,4.489 1.368,7.075 -0.226,2.586 -1.205,5.465 -2.941,8.635 -3.049,5.57 -6.231,8.839 -9.551,9.807 -3.318,0.974 -6.71,0.695 -10.17,-0.835 z"
     id="path38" /><path
     style="fill:#ffffff"
     d="m 82.883579,138.39661 c -0.446,-2.12 0.041,-4.099 1.461,-5.933 1.482,-1.914 3.299,-2.931 5.45,-3.052 2.151,-0.122 4.618,0.895 7.403,3.052 3.312001,2.564 5.190001,4.876 5.640001,6.938 0.449,2.059 -0.084,4.067 -1.597,6.021 -1.471001,1.9 -3.288001,2.898 -5.447001,2.991 -2.159,0.094 -4.735,-1.018 -7.721,-3.332 -3.014,-2.335 -4.744,-4.562 -5.189,-6.685 z m 8.272,20.403 c 3.345,0.424 6.39,-0.039 9.135001,-1.396 2.747,-1.358 5.407,-3.698 7.983,-7.02 2.531,-3.271 4.03,-6.474 4.499,-9.617 0.468,-3.143 0.047,-6.148 -1.263,-9.017 -1.311,-2.87 -3.691,-5.641 -7.142,-8.313 -4.754001,-3.682 -9.476001,-5.215 -14.169001,-4.607 -4.692,0.611 -8.939,3.366 -12.736,8.27 -3.706,4.784 -5.253,9.555 -4.644,14.316 0.611,4.758 3.326,9.003 8.146,12.737 3.451,2.674 6.848,4.222 10.191,4.647 z"
     id="path40" /><path
     style="fill:#ffffff"
     d="m 129.66658,104.56561 9.467,-4.642003 c 1.43,2.536003 2.257,4.998003 2.482,7.380003 0.225,2.384 -0.127,4.668 -1.053,6.846 -0.925,2.18 -2.613,4.407 -5.059,6.681 -2.97,2.758 -5.796,4.579 -8.48,5.466 -2.684,0.885 -5.721,0.874 -9.108,-0.034 -3.388,-0.904 -6.658,-3.056 -9.813,-6.449 -4.204,-4.527 -6.234,-9.121 -6.086,-13.788 0.149,-4.664 2.422,-9.043003 6.823,-13.132003 3.443,-3.2 6.798,-5.018 10.061,-5.46 3.262,-0.44 6.709,0.334 10.345,2.324 l -5.891,8.585 c -1.04,-0.593 -1.884,-0.952 -2.531,-1.073 -1.08,-0.21 -2.124,-0.17 -3.136,0.118 -1.012,0.288 -1.944,0.825 -2.792,1.612 -1.921,1.787003 -2.678,3.929003 -2.267,6.422003 0.291,1.864 1.575,4.022 3.854,6.475 2.822,3.037 5.217,4.691 7.183,4.962 1.969,0.271 3.786,-0.369 5.453,-1.919 1.618,-1.502 2.42,-3.091 2.408,-4.763 -0.014,-1.673 -0.633,-3.545 -1.86,-5.611 z"
     id="path42" /><path
     style="fill:#ffffff"
     d="m 128.69858,76.976607 9.3,-6.808 22.039,30.109003 -9.3,6.808 z"
     id="path44" /><path
     style="fill:#ffffff"
     d="m 168.40658,78.043607 -3.052,-13.661 10.121,9.666 z m 17.824,6.308 10.502,-5.935 -30.475,-25.639 -11.033,6.235 6.188,39.362 10.241,-5.788 -1.409,-6.31 11.325,-6.398 z"
     id="path46" /><path
     style="fill:#ffffff"
     d="m 214.81558,55.670607 10.519,-0.699 c 0.36,2.891 0.192,5.482 -0.506,7.769 -0.699,2.293 -1.89,4.27 -3.574,5.936 -1.685,1.663 -4.092,3.084 -7.219,4.258 -3.794,1.422 -7.102,2.034 -9.92,1.835 -2.821,-0.201 -5.624,-1.364 -8.415,-3.49 -2.789,-2.124 -4.997,-5.355 -6.625,-9.693 -2.171,-5.783 -2.302,-10.805 -0.393,-15.064 1.908,-4.259 5.673,-7.446999 11.298,-9.558999 4.402,-1.651 8.194,-2.062 11.381,-1.229 3.184,0.831 6.08,2.858 8.685,6.078999 l -8.709,5.703 c -0.739,-0.944 -1.381,-1.597 -1.935,-1.954 -0.918,-0.602 -1.901,-0.963 -2.946,-1.081 -1.044,-0.118 -2.11,0.026 -3.194,0.432 -2.457,0.922 -3.97,2.616 -4.537,5.078 -0.439,1.836 -0.07,4.319 1.106,7.455 1.458,3.881 3.043,6.322 4.761,7.319 1.717,0.998 3.642,1.096 5.771,0.296 2.068,-0.775 3.414,-1.939 4.039,-3.492 0.623,-1.554 0.761,-3.52 0.413,-5.899 z"
     id="path48" /><path
     style="fill:#ffffff"
     d="m 224.43058,29.786608 11.193,-2.748 8.9,36.234999 -11.193,2.75 z"
     id="path50" /><path
     style="fill:#ffffff"
     d="m 259.13158,33.488608 c 1.202,-1.803 2.954,-2.841 5.257,-3.11 2.404,-0.284 4.404,0.3 5.996,1.75 1.594,1.45 2.596,3.925 3.006,7.422 0.49,4.159999 0.157,7.119999 -0.999,8.883999 -1.156,1.765 -2.962,2.79 -5.417,3.079 -2.387,0.28 -4.371,-0.317 -5.951,-1.794 -1.577,-1.477 -2.589,-4.093 -3.029,-7.845 -0.445,-3.786999 -0.067,-6.580999 1.137,-8.385999 z m -8.769,20.193999 c 2.037,2.684 4.501,4.532 7.395,5.544 2.891,1.009 6.424,1.27 10.599,0.779 4.106,-0.483 7.445,-1.656 10.016,-3.522 2.57,-1.867 4.42,-4.273 5.551,-7.218 1.131,-2.945 1.441,-6.585 0.931,-10.920999 -0.702,-5.969 -2.913,-10.414 -6.636,-13.338 -3.721,-2.924 -8.663,-4.024 -14.823,-3.299 -6.01,0.707 -10.5,2.945 -13.47,6.712 -2.969,3.768 -4.098,8.68 -3.386,14.735999 0.509,4.336 1.784,7.843 3.823,10.527 z"
     id="path52" /><path
     style="fill:#ffffff"
     d="m 292.53058,19.901608 10.719,0.549 12.94,21.308999 1.053,-20.594999 10.861,0.555 -1.904,37.264999 -10.862,-0.555 -12.871,-21.194999 -1.046,20.483999 -10.794,-0.551 z"
     id="path54" /><path
     style="fill:#ffffff"
     d="m 362.14858,52.209607 7.615,-11.744999 0.188,13.994999 z m 7.981,17.14 11.592,3.343 -3.044,-39.709999 -12.178,-3.508 -23.761,31.982999 11.305,3.258 3.517,-5.426 12.495,3.602 z"
     id="path56" /><path
     style="fill:#ffffff"
     d="m 392.17858,37.092608 31.933,14.246999 -3.739,8.385 -10.705,-4.776 -11.461,25.691 -10.527,-4.698 11.462,-25.69 -10.705,-4.776 z"
     id="path58" /><path
     style="fill:#ffffff"
     d="m 430.98658,55.319607 9.762,6.132 -14.963,23.821 15.219,9.559 -4.884,7.776003 -24.98,-15.690003 z"
     id="path60" /><path
     style="fill:#ffffff"
     d="m 462.27258,75.701607 23.582,19.916 -5.125,6.070003 -14.776,-12.478003 -3.824,4.526 13.732,11.597003 -4.916,5.82 -13.732,-11.596003 -4.748,5.621003 15.224,12.857 -5.461,6.468 -24.03,-20.293 z"
     id="path62" /><path
     style="fill:#ffffff"
     d="m 490.97258,100.44461 23.154,26.202 -6.881,6.081 -7.76,-8.785 -21.08,18.628 -7.633,-8.637 21.081,-18.626 -7.762,-8.783 z"
     id="path64" /><path
     style="fill:#ffffff"
     d="m 518.28158,132.94661 6.628,9.43 -30.527,21.456 -6.628,-9.429 z"
     id="path66" /><path
     style="fill:#ffffff"
     d="m 523.24858,183.16061 2.115,10.329 c -2.814,0.748 -5.404,0.931 -7.766,0.55 -2.366,-0.38 -4.486,-1.294 -6.363,-2.737 -1.879,-1.444 -3.61,-3.635 -5.198,-6.573 -1.925,-3.567 -2.978,-6.761 -3.162,-9.582 -0.183,-2.82 0.592,-5.758 2.319,-8.81 1.726,-3.05 4.629,-5.677 8.706,-7.877 5.435,-2.934 10.392,-3.745 14.871,-2.43 4.479,1.312 8.146,4.613 11.002,9.9 2.231,4.137 3.15,7.839 2.761,11.108 -0.393,3.268 -2.009,6.412 -4.847,9.43 l -6.831,-7.857 c 0.834,-0.858 1.394,-1.584 1.672,-2.182 0.473,-0.992 0.699,-2.012 0.673,-3.064 -0.024,-1.051 -0.312,-2.088 -0.861,-3.107 -1.247,-2.309 -3.129,-3.578 -5.646,-3.806 -1.879,-0.185 -4.291,0.515 -7.236,2.105 -3.649,1.97 -5.852,3.871 -6.606,5.71 -0.756,1.836 -0.594,3.754 0.487,5.758 1.05,1.945 2.385,3.121 4.008,3.529 1.625,0.405 3.59,0.275 5.902,-0.394 z"
     id="path68" /><path
     style="fill:#ffffff"
     d="m 533.16558,208.89561 13.984,-0.578 -11.308,8.245 z m -9.372,16.421 3.977,11.389 30.639,-25.442 -4.178,-11.963 -39.833,-0.897 3.877,11.106 6.459,-0.267 4.288,12.279 z"
     id="path70" /><path
     style="fill:#ffffff"
     d="m 49.80458,386.26061 13.958999,-1.014 -11.044999,8.594 z m -8.854,16.706 4.33,11.259 29.828999,-26.384 -4.549,-11.83 -39.841999,0.35 4.222,10.979 6.447,-0.467 4.668,12.138 z"
     id="path72" /><path
     style="fill:#ffffff"
     d="m 79.985579,415.18961 2.513,4.348 c 1.044,1.806 1.474,3.198 1.292,4.178 -0.183,0.979 -0.797,1.773 -1.844,2.378 -0.71,0.41 -1.455,0.563 -2.242,0.464 -0.786,-0.099 -1.435,-0.438 -1.946,-1.016 -1.044,-1.126 -1.696,-1.915 -1.957,-2.366 l -2.411,-4.17 z m -25.765,14.895 13.08,-7.561 0.506,0.874 c 0.521,0.902 0.738,1.854 0.652,2.855 -0.079,0.744 -0.56,1.819 -1.448,3.227 l -6.794,10.977 6.518,11.276 6.555,-10.222 c 0.334,-0.506 0.732,-1.356 1.196,-2.551 0.462,-1.194 0.719,-2.049 0.773,-2.569 0.081,-0.768 -0.021,-1.86 -0.311,-3.275 1.197,1.288 2.298,2.21 3.308,2.765 1.58,0.869 3.245,1.31 4.988,1.321 1.745,0.011 3.514,-0.503 5.312,-1.541 2.059,-1.191 3.519,-2.7 4.379,-4.527 0.857,-1.827 1.082,-3.704 0.671,-5.638 -0.412,-1.935 -1.507,-4.442 -3.285,-7.518 l -9.595,-16.603 -32.305999,18.672 z"
     id="path74" /><path
     style="fill:#ffffff"
     d="m 92.433579,462.29061 6.016,-4.885 11.205001,13.8 -12.390001,10.061 c -3.946,-1.186 -7.07,-2.53 -9.37,-4.037 -2.301,-1.507 -4.583,-3.654 -6.849,-6.444 -2.79,-3.434 -4.476,-6.711 -5.061,-9.829 -0.585,-3.117 -0.2,-6.212 1.153,-9.287 1.354,-3.076 3.533,-5.832 6.538,-8.274 3.166,-2.569 6.446,-4.152 9.843,-4.749 3.397,-0.598 6.722001,-0.133 9.976001,1.394 2.526,1.202 5.138,3.458 7.829,6.775 2.596,3.197 4.246,5.823 4.954,7.878 0.708,2.057 0.875,4.105 0.503,6.141 -0.372,2.038 -1.279,4.079 -2.725,6.127 l -8.563,-7.39 c 0.806,-1.246 1.157,-2.526 1.05,-3.847 -0.107,-1.32 -0.693,-2.636 -1.761,-3.95 -1.591,-1.958 -3.54,-2.966 -5.852001,-3.019 -2.312,-0.054 -4.945,1.121 -7.901,3.521 -3.144,2.551 -4.909,4.964 -5.297,7.236 -0.391,2.272 0.271,4.463 1.982,6.572 0.814,0.999 1.736,1.837 2.767,2.508 1.034,0.67 2.378,1.305 4.038,1.903 l 2.762,-2.241 z"
     id="path76" /><path
     style="fill:#ffffff"
     d="m 124.83958,463.59161 22.925,20.67 -5.32,5.899 -14.366,-12.95 -3.967,4.4 13.349,12.035 -5.102,5.658 -13.349,-12.035 -4.926,5.465 14.798,13.343 -5.668,6.287 -23.360001,-21.062 z"
     id="path78" /><path
     style="fill:#ffffff"
     d="m 150.68758,486.70761 8.989,5.865 0.465,24.928 11.269,-17.27 9.107,5.941 -20.39,31.249 -9.108,-5.941 -0.462,-24.794 -11.207,17.178 -9.052,-5.907 z"
     id="path80" /><path
     style="fill:#ffffff"
     d="m 182.27258,507.11061 31.905,14.311 -3.757,8.378 -10.694,-4.796 -11.514,25.667 -10.516,-4.717 11.513,-25.667 -10.694,-4.797 z"
     id="path82" /><path
     style="fill:#ffffff"
     d="m 217.31058,521.93761 10.975,3.524 -11.405,35.528 -10.974,-3.525 z"
     id="path84" /><path
     style="fill:#ffffff"
     d="m 233.60758,527.57961 10.545,2.006 9.914,22.875 3.85,-20.259 10.685,2.031 -6.966,36.656 -10.684,-2.032 -9.861,-22.751 -3.829,20.15 -10.621,-2.018 z"
     id="path86" /><path
     style="fill:#ffffff"
     d="m 284.97658,545.49161 c 1.439,-1.622 3.318,-2.409 5.637,-2.359 2.419,0.05 4.319,0.905 5.696,2.558 1.38,1.656 2.033,4.244 1.96,7.767 -0.088,4.186 -0.826,7.074 -2.212,8.662 -1.388,1.587 -3.318,2.356 -5.789,2.304 -2.402,-0.049 -4.285,-0.915 -5.646,-2.595 -1.361,-1.677 -2.001,-4.409 -1.923,-8.186 0.079,-3.814 0.839,-6.53 2.277,-8.151 z m -11.461,18.797 c 1.649,2.94 3.837,5.109 6.563,6.508 2.725,1.397 6.188,2.141 10.391,2.23 4.134,0.085 7.603,-0.618 10.406,-2.112 2.803,-1.496 4.966,-3.626 6.491,-6.388 1.523,-2.761 2.332,-6.323 2.424,-10.687 0.125,-6.011 -1.455,-10.719 -4.742,-14.124 -3.284,-3.408 -8.026,-5.176 -14.227,-5.306 -6.05,-0.128 -10.804,1.473 -14.264,4.796 -3.461,3.325 -5.255,8.036 -5.382,14.13 -0.09,4.363 0.689,8.014 2.34,10.953 z"
     id="path88" /><path
     style="fill:#ffffff"
     d="m 314.65458,559.98761 10.753,-2.132 c 0.472,1.728 1.133,3.004 1.983,3.828 1.38,1.335 3.167,1.854 5.362,1.56 1.636,-0.221 2.846,-0.772 3.63,-1.656 0.784,-0.881 1.107,-1.827 0.972,-2.836 -0.129,-0.958 -0.668,-1.76 -1.616,-2.402 -0.948,-0.643 -2.998,-1.094 -6.153,-1.355 -5.17,-0.453 -8.95,-1.471 -11.339,-3.05 -2.405,-1.58 -3.802,-3.816 -4.19,-6.71 -0.256,-1.9 0.055,-3.769 0.93,-5.609 0.876,-1.837 2.355,-3.389 4.439,-4.654 2.082,-1.266 5.053,-2.155 8.909,-2.673 4.729,-0.634 8.453,-0.241 11.169,1.178 2.719,1.421 4.568,4.01 5.554,7.77 l -10.694,2.07 c -0.507,-1.606 -1.269,-2.72 -2.288,-3.347 -1.018,-0.624 -2.333,-0.83 -3.949,-0.612 -1.329,0.178 -2.293,0.594 -2.89,1.247 -0.599,0.652 -0.843,1.384 -0.733,2.188 0.077,0.589 0.427,1.083 1.046,1.478 0.604,0.416 1.945,0.699 4.021,0.848 5.145,0.404 8.873,1.012 11.185,1.825 2.312,0.81 4.07,1.966 5.275,3.466 1.203,1.501 1.942,3.261 2.212,5.28 0.316,2.373 -0.045,4.65 -1.089,6.828 -1.044,2.179 -2.674,3.943 -4.889,5.294 -2.216,1.349 -5.117,2.265 -8.699,2.747 -6.293,0.843 -10.811,0.218 -13.56,-1.882 -2.747,-2.098 -4.531,-4.995 -5.351,-8.689 z"
     id="path90" /><path
     style="fill:#ffffff"
     d="m 377.22558,520.99761 10.873,-3.821 6.723,19.134 c 1.412,4.017 2.128,7.201 2.151,9.546 0.025,2.346 -0.785,4.628 -2.426,6.84 -1.644,2.214 -4.148,3.908 -7.51,5.091 -3.554,1.25 -6.479,1.735 -8.77,1.459 -2.292,-0.273 -4.294,-1.147 -6.009,-2.625 -1.718,-1.477 -3.148,-3.543 -4.297,-6.2 l 9.882,-5.072 c 0.564,1.557 1.109,2.67 1.633,3.334 0.524,0.668 1.175,1.126 1.952,1.378 0.528,0.161 1.178,0.102 1.952,-0.169 1.227,-0.431 1.966,-1.198 2.222,-2.304 0.255,-1.105 0.006,-2.731 -0.747,-4.877 z"
     id="path92" /><path
     style="fill:#ffffff"
     d="m 413.79158,504.25661 10.175,-5.419 10.453,19.631 c 1.036,1.947 1.712,3.945 2.027,5.996 0.315,2.053 0.173,4.07 -0.432,6.054 -0.603,1.984 -1.474,3.616 -2.615,4.896 -1.583,1.783 -3.756,3.412 -6.521,4.885 -1.599,0.852 -3.403,1.669 -5.414,2.451 -2.011,0.783 -3.828,1.179 -5.453,1.19 -1.625,0.009 -3.291,-0.318 -4.999,-0.986 -1.709,-0.666 -3.104,-1.549 -4.185,-2.642 -1.744,-1.762 -3.047,-3.453 -3.908,-5.069 l -10.452,-19.63 10.173,-5.417 10.695,20.083 c 0.956,1.797 2.196,2.936 3.722,3.422 1.522,0.484 3.16,0.258 4.911,-0.674 1.736,-0.925 2.833,-2.145 3.29,-3.666 0.456,-1.521 0.199,-3.193 -0.773,-5.021 z"
     id="path94" /><path
     style="fill:#ffffff"
     d="m 427.77658,496.37061 8.501,-6.555 23.689,7.779 -12.593,-16.333 8.611,-6.64 22.782,29.55 -8.612,6.641 -23.559,-7.737 12.523,16.244 -8.561,6.601 z"
     id="path96" /><path
     style="fill:#ffffff"
     d="m 459.59958,470.50661 8.214,-8.086 26.179,26.588 -8.213,8.085 z"
     id="path98" /><path
     style="fill:#ffffff"
     d="m 487.94258,455.79861 c -0.417,-2.126 0.095,-4.097 1.541,-5.913 1.507,-1.895 3.336,-2.888 5.487,-2.981 2.153,-0.094 4.607,0.956 7.365,3.148 3.276,2.608 5.125,4.944 5.548,7.011 0.422,2.067 -0.135,4.066 -1.676,6 -1.495,1.881 -3.325,2.854 -5.485,2.918 -2.161,0.065 -4.72,-1.08 -7.679,-3.432 -2.982,-2.374 -4.682,-4.623 -5.101,-6.751 z m 8.004,20.51 c 3.338,0.469 6.389,0.043 9.154,-1.277 2.762,-1.319 5.455,-3.625 8.071,-6.914 2.575,-3.236 4.117,-6.421 4.627,-9.557 0.508,-3.134 0.127,-6.146 -1.147,-9.034 -1.273,-2.885 -3.615,-5.689 -7.032,-8.406 -4.704,-3.741 -9.406,-5.338 -14.107,-4.789 -4.7,0.549 -8.982,3.249 -12.844,8.103 -3.767,4.734 -5.376,9.485 -4.829,14.253 0.547,4.767 3.206,9.046 7.977,12.845 3.417,2.716 6.792,4.307 10.13,4.776 z"
     id="path100" /><path
     style="fill:#ffffff"
     d="m 509.10258,420.43761 2.453,-4.379 c 1.019,-1.822 1.997,-2.902 2.931,-3.246 0.937,-0.344 1.931,-0.22 2.987,0.372 0.713,0.399 1.228,0.963 1.544,1.689 0.316,0.725 0.357,1.456 0.12,2.192 -0.433,1.473 -0.776,2.436 -1.033,2.891 l -2.353,4.204 z m 25.965,14.54 -13.181,-7.382 0.494,-0.88 c 0.509,-0.911 1.216,-1.582 2.12,-2.022 0.681,-0.313 1.852,-0.447 3.515,-0.401 l 12.907,0.231 6.363,-11.364 -12.137,-0.414 c -0.605,-0.027 -1.539,0.064 -2.801,0.276 -1.264,0.213 -2.131,0.429 -2.603,0.648 -0.705,0.322 -1.591,0.968 -2.66,1.939 0.498,-1.686 0.728,-3.103 0.688,-4.254 -0.061,-1.805 -0.533,-3.459 -1.414,-4.964 -0.881,-1.506 -2.226,-2.764 -4.037,-3.778 -2.075,-1.161 -4.118,-1.646 -6.128,-1.451 -2.008,0.195 -3.738,0.963 -5.192,2.303 -1.451,1.342 -3.046,3.563 -4.784,6.667 l -9.369,16.729 32.556,18.231 z"
     id="path102" /><path
     style="fill:#ffffff"
     d="m 537.35158,404.74761 3.207,-10.482 c 1.745,0.401 3.182,0.423 4.311,0.063 1.828,-0.585 3.129,-1.913 3.908,-3.985 0.581,-1.548 0.668,-2.874 0.26,-3.98 -0.408,-1.108 -1.089,-1.842 -2.041,-2.201 -0.904,-0.338 -1.864,-0.243 -2.879,0.289 -1.016,0.53 -2.382,2.125 -4.104,4.781 -2.844,4.339 -5.528,7.191 -8.051,8.546 -2.529,1.374 -5.159,1.548 -7.891,0.521 -1.797,-0.673 -3.298,-1.831 -4.504,-3.473 -1.206,-1.642 -1.874,-3.678 -2.001,-6.111 -0.129,-2.433 0.489,-5.471 1.857,-9.113 1.678,-4.467 3.783,-7.562 6.319,-9.287 2.536,-1.724 5.694,-2.128 9.473,-1.22 l -3.234,10.403 c -1.655,-0.313 -2.998,-0.169 -4.031,0.433 -1.032,0.6 -1.834,1.665 -2.405,3.189 -0.473,1.256 -0.562,2.301 -0.268,3.136 0.293,0.837 0.82,1.396 1.582,1.683 0.556,0.208 1.154,0.133 1.796,-0.224 0.65,-0.336 1.533,-1.383 2.646,-3.143 2.79,-4.343 5.089,-7.339 6.899,-8.993 1.808,-1.654 3.658,-2.656 5.55,-3.007 1.89,-0.353 3.79,-0.169 5.696,0.547 2.244,0.842 4.078,2.238 5.504,4.187 1.425,1.95 2.209,4.221 2.352,6.812 0.14,2.59 -0.424,5.579 -1.694,8.964 -2.232,5.944 -4.922,9.629 -8.071,11.058 -3.148,1.428 -6.543,1.629 -10.186,0.607 z"
     id="path104" /><path
     d="m 156.89658,448.30861 3.712,6.65 c -1.773,1.128 -3.511,1.818 -5.219,2.073 -1.708,0.254 -3.363,0.089 -4.966,-0.493 -1.602,-0.583 -3.27,-1.711 -4.996,-3.383 -2.095,-2.031 -3.512,-3.993 -4.252,-5.889 -0.74,-1.895 -0.849,-4.077 -0.329,-6.543 0.52,-2.466 1.938,-4.892 4.254,-7.285 3.087,-3.186 6.307,-4.815 9.663,-4.883 3.354,-0.068 6.583,1.399 9.688,4.406 2.427,2.351 3.861,4.692 4.303,7.017 0.439,2.327 0.014,4.832 -1.276,7.515 l -6.42,-3.948 c 0.385,-0.766 0.611,-1.382 0.673,-1.848 0.111,-0.776 0.046,-1.521 -0.195,-2.23 -0.242,-0.71 -0.658,-1.355 -1.252,-1.927 -1.341,-1.302 -2.896,-1.756 -4.66,-1.365 -1.32,0.282 -2.815,1.284 -4.483,3.006 -2.067,2.134 -3.16,3.911 -3.28,5.327 -0.122,1.417 0.404,2.693 1.574,3.825 1.134,1.099 2.301,1.612 3.5,1.536 1.2,-0.079 2.521,-0.6 3.961,-1.561 z"
     id="path106" /><path
     d="m 178.05958,455.03861 c 1.521,-0.375 2.971,-0.072 4.346,0.904 1.436,1.023 2.234,2.308 2.395,3.857 0.162,1.547 -0.492,3.354 -1.96,5.416 -1.745,2.453 -3.357,3.867 -4.833,4.24 -1.477,0.375 -2.948,0.042 -4.415,-1 -1.425,-1.016 -2.208,-2.301 -2.35,-3.858 -0.14,-1.554 0.578,-3.441 2.151,-5.653 1.59,-2.231 3.144,-3.535 4.666,-3.906 z m -14.415,6.542 c -0.204,2.417 0.226,4.592 1.287,6.53 1.06,1.939 2.828,3.786 5.3,5.546 2.432,1.73 4.784,2.72 7.061,2.97 2.277,0.25 4.428,-0.136 6.455,-1.157 2.025,-1.022 3.946,-2.809 5.764,-5.366 2.503,-3.517 3.462,-6.954 2.88,-10.313 -0.585,-3.357 -2.7,-6.334 -6.347,-8.93 -3.559,-2.53 -7.043,-3.512 -10.449,-2.944 -3.408,0.571 -6.382,2.639 -8.919,6.209 -1.819,2.554 -2.828,5.04 -3.032,7.455 z"
     id="path108" /><path
     d="m 205.08358,469.46761 3.25,1.637 c 1.349,0.68 2.165,1.352 2.446,2.014 0.28,0.663 0.226,1.38 -0.165,2.157 -0.264,0.525 -0.654,0.911 -1.168,1.16 -0.515,0.246 -1.042,0.298 -1.58,0.148 -1.08,-0.269 -1.787,-0.489 -2.126,-0.66 l -3.118,-1.572 z m -9.637,19.135 4.892,-9.712 0.651,0.328 c 0.673,0.338 1.182,0.827 1.528,1.466 0.248,0.479 0.382,1.317 0.405,2.515 l 0.257,9.299 8.376,4.217 -0.11,-8.74 c 0,-0.438 -0.094,-1.108 -0.284,-2.011 -0.193,-0.904 -0.375,-1.523 -0.545,-1.857 -0.253,-0.497 -0.747,-1.114 -1.477,-1.852 1.233,0.307 2.263,0.43 3.091,0.367 1.298,-0.097 2.478,-0.485 3.531,-1.162 1.055,-0.679 1.92,-1.684 2.59,-3.014 0.769,-1.526 1.05,-3.008 0.845,-4.446 -0.206,-1.436 -0.816,-2.656 -1.828,-3.656 -1.013,-1.004 -2.663,-2.081 -4.952,-3.234 l -12.347,-6.217 -12.069,23.959 z"
     id="path110" /><path
     d="m 231.26758,480.91861 2.241,0.755 c 1.473,0.494 2.381,1.11 2.728,1.845 0.345,0.735 0.385,1.502 0.117,2.298 -0.277,0.823 -0.811,1.396 -1.601,1.715 -0.793,0.319 -1.946,0.226 -3.463,-0.286 l -1.931,-0.648 z m -14.705,17.592 7.901,2.654 3.152,-9.38 4.307,1.447 c 3.172,1.064 5.775,1.132 7.808,0.201 2.033,-0.932 3.483,-2.684 4.349,-5.261 0.842,-2.505 0.782,-4.675 -0.179,-6.51 -0.963,-1.834 -2.869,-3.229 -5.716,-4.186 l -13.077,-4.395 z"
     id="path112" /><path
     d="m 256.98258,490.16461 c 1.216,-0.99 2.654,-1.336 4.315,-1.04 1.735,0.31 3.007,1.13 3.816,2.46 0.808,1.331 0.989,3.245 0.546,5.734 -0.529,2.965 -1.382,4.931 -2.556,5.902 -1.175,0.971 -2.647,1.299 -4.418,0.983 -1.723,-0.309 -2.981,-1.134 -3.774,-2.481 -0.793,-1.345 -0.949,-3.357 -0.473,-6.03 0.481,-2.698 1.328,-4.54 2.544,-5.528 z m -10.23,12.081 c 0.85,2.27 2.169,4.055 3.957,5.351 1.787,1.299 4.175,2.212 7.163,2.745 2.938,0.524 5.488,0.411 7.653,-0.336 2.164,-0.748 3.944,-2.017 5.337,-3.807 1.393,-1.791 2.366,-4.227 2.916,-7.316 0.758,-4.251 0.155,-7.769 -1.808,-10.554 -1.963,-2.783 -5.149,-4.57 -9.557,-5.355 -4.299,-0.767 -7.869,-0.164 -10.705,1.809 -2.835,1.973 -4.639,5.114 -5.405,9.427 -0.551,3.085 -0.401,5.765 0.449,8.036 z"
     id="path114" /><path
     d="m 287.58658,491.64761 3.639,0.091 c 1.511,0.038 2.535,0.299 3.072,0.776 0.537,0.479 0.794,1.152 0.772,2.02 -0.015,0.589 -0.202,1.104 -0.561,1.549 -0.359,0.443 -0.815,0.712 -1.365,0.809 -1.091,0.218 -1.825,0.321 -2.203,0.31 l -3.493,-0.087 z m -0.543,21.416 0.276,-10.871 0.729,0.019 c 0.752,0.018 1.422,0.242 2.007,0.671 0.43,0.328 0.91,1.028 1.441,2.102 l 4.205,8.297 9.374,0.238 -3.833,-7.857 c -0.185,-0.396 -0.558,-0.963 -1.117,-1.699 -0.559,-0.735 -0.987,-1.217 -1.285,-1.445 -0.442,-0.34 -1.151,-0.688 -2.126,-1.043 1.245,-0.25 2.228,-0.579 2.952,-0.989 1.133,-0.643 2.032,-1.497 2.695,-2.56 0.667,-1.065 1.018,-2.341 1.057,-3.831 0.042,-1.709 -0.336,-3.168 -1.136,-4.378 -0.801,-1.212 -1.871,-2.055 -3.214,-2.528 -1.344,-0.473 -3.295,-0.744 -5.859,-0.808 l -13.82,-0.351 -0.68,26.819 z"
     id="path116" /><path
     d="m 307.26058,486.37261 22.126,-2.538 0.653,5.694 -13.843,1.587 0.488,4.27 12.811,-1.47 0.624,5.436 -12.81,1.469 0.6,5.241 14.234,-1.633 0.689,6.018 -22.513,2.582 z"
     id="path118" /><path
     d="m 348.90258,497.94761 7.339,-2.908 c 0.56,1.166 1.191,1.987 1.897,2.463 1.15,0.769 2.477,0.907 3.986,0.417 1.124,-0.365 1.906,-0.911 2.344,-1.637 0.438,-0.725 0.544,-1.436 0.318,-2.131 -0.216,-0.659 -0.698,-1.158 -1.446,-1.491 -0.75,-0.332 -2.256,-0.386 -4.522,-0.162 -3.718,0.351 -6.523,0.122 -8.417,-0.685 -1.908,-0.805 -3.185,-2.205 -3.835,-4.201 -0.426,-1.311 -0.449,-2.674 -0.065,-4.088 0.382,-1.414 1.231,-2.703 2.544,-3.869 1.314,-1.165 3.303,-2.182 5.97,-3.05 3.271,-1.063 5.963,-1.269 8.075,-0.613 2.112,0.656 3.761,2.255 4.95,4.798 l -7.29,2.852 c -0.571,-1.08 -1.261,-1.779 -2.067,-2.091 -0.807,-0.313 -1.773,-0.287 -2.896,0.078 -0.925,0.3 -1.559,0.722 -1.901,1.262 -0.343,0.542 -0.42,1.089 -0.239,1.646 0.13,0.405 0.442,0.707 0.93,0.907 0.481,0.216 1.464,0.24 2.954,0.078 3.693,-0.384 6.41,-0.437 8.151,-0.165 1.741,0.274 3.134,0.863 4.181,1.766 1.045,0.903 1.796,2.051 2.249,3.442 0.53,1.634 0.568,3.288 0.111,4.962 -0.457,1.675 -1.382,3.132 -2.775,4.374 -1.394,1.242 -3.325,2.264 -5.799,3.068 -4.342,1.414 -7.62,1.556 -9.835,0.428 -2.217,-1.128 -3.853,-2.945 -4.912,-5.45 z"
     id="path120" /><path
     d="m 384.55558,483.19361 -1.607,-9.962 6.869,7.375 z m 12.543,5.226 7.794,-3.833 -20.813,-19.664 -8.185,4.027 2.76,28.538 7.605,-3.739 -0.74,-4.573 8.423,-4.14 z"
     id="path122" /><path
     d="m 394.26658,459.63161 6.365,-4.44 16.831,6.394 -8.508,-12.2 6.41,-4.47 15.346,22.007 -6.409,4.469 -16.74,-6.358 8.461,12.132 -6.409,4.471 z"
     id="path124" /><path
     d="m 430.14858,441.67161 c -0.085,-1.565 0.481,-2.932 1.698,-4.1 1.271,-1.222 2.682,-1.767 4.233,-1.637 1.553,0.13 3.206,1.108 4.958,2.934 2.085,2.17 3.173,4.016 3.268,5.538 0.092,1.521 -0.507,2.905 -1.806,4.152 -1.262,1.212 -2.67,1.742 -4.227,1.591 -1.554,-0.152 -3.271,-1.207 -5.152,-3.167 -1.899,-1.978 -2.89,-3.747 -2.972,-5.311 z m 3.747,15.381 c 2.335,0.648 4.554,0.631 6.654,-0.05 2.101,-0.682 4.247,-2.074 6.434,-4.175 2.153,-2.067 3.564,-4.195 4.233,-6.386 0.67,-2.189 0.691,-4.376 0.064,-6.556 -0.627,-2.18 -2.025,-4.4 -4.198,-6.663 -2.99,-3.114 -6.19,-4.696 -9.598,-4.748 -3.408,-0.052 -6.725,1.473 -9.954,4.575 -3.149,3.024 -4.762,6.265 -4.835,9.718 -0.074,3.454 1.406,6.761 4.438,9.919 2.171,2.26 4.424,3.717 6.762,4.366 z"
     id="path126" /></g>
</svg>
