<?xml version="1.0" encoding="UTF-8" standalone="no"?>
<svg
   xmlns:dc="http://purl.org/dc/elements/1.1/"
   xmlns:cc="http://creativecommons.org/ns#"
   xmlns:rdf="http://www.w3.org/1999/02/22-rdf-syntax-ns#"
   xmlns:svg="http://www.w3.org/2000/svg"
   xmlns="http://www.w3.org/2000/svg"
   xmlns:sodipodi="http://sodipodi.sourceforge.net/DTD/sodipodi-0.dtd"
   xmlns:inkscape="http://www.inkscape.org/namespaces/inkscape"
   version="1.0"
   id="Ebene_1"
   x="0px"
   y="0px"
   width="1000"
   height="1000"
   viewBox="0 0 999.99998 999.99995"
   enable-background="new 0 0 508.083 527.241"
   xml:space="preserve"
   sodipodi:version="0.32"
   inkscape:version="1.0.1 (3bc2e813f5, 2020-09-07)"
   sodipodi:docname="Escudo_del_Club_Atlético_Independiente_de_Avellaneda.svg"
   inkscape:output_extension="org.inkscape.output.svg.inkscape"><metadata
   id="metadata2222"><rdf:RDF><cc:Work
       rdf:about=""><dc:format>image/svg+xml</dc:format><dc:type
         rdf:resource="http://purl.org/dc/dcmitype/StillImage" /><dc:title></dc:title></cc:Work></rdf:RDF></metadata><defs
   id="defs2220" /><sodipodi:namedview
   inkscape:window-height="1017"
   inkscape:window-width="1920"
   inkscape:pageshadow="2"
   inkscape:pageopacity="0.0"
   guidetolerance="10.0"
   gridtolerance="10.0"
   objecttolerance="10.0"
   borderopacity="1.0"
   bordercolor="#666666"
   pagecolor="#ffffff"
   id="base"
   inkscape:zoom="0.581668"
   inkscape:cx="375.6511"
   inkscape:cy="353.64614"
   inkscape:window-x="-8"
   inkscape:window-y="-8"
   inkscape:current-layer="Ebene_1"
   inkscape:document-rotation="0"
   showgrid="false"
   inkscape:window-maximized="1" />



<g
   id="g842"
   transform="matrix(1.9225805,0,0,1.9225802,-3.091957,-5.3544633)"><path
     style="fill:#ec1c24;fill-opacity:1;fill-rule:evenodd;stroke-width:0.937195"
     id="path2211"
     d="m 327.11442,469.83501 12.82552,-9.93895 12.50686,-10.2576 11.86396,-10.58187 11.54249,-10.90614 10.90333,-11.54249 10.58187,-11.5425 9.93895,-12.18541 9.29978,-12.18541 8.97833,-12.8227 8.33635,-13.15166 8.01771,-13.14603 7.37478,-13.78895 7.05333,-13.78333 6.41416,-14.11322 5.77125,-14.42624 5.44979,-14.43093 4.81062,-15.07103 4.48917,-15.07103 3.84906,-15.07104 3.20427,-15.71113 2.88562,-15.71395 2.24552,-15.71114 1.925,-16.03353 1.28208,-16.35312 0.96062,-16.03353 V 113.58845 96.913873 L 498.0213,62.28358 H 474.93538 C 460.82497,60.358582 448.63956,52.021295 438.05769,42.723383 433.88999,39.196719 430.0428,35.348596 426.5152,30.859432 L 414.65312,15.788399 c -10.26041,8.015829 -20.2003,16.353116 -31.10362,23.40832 -8.01771,5.130205 -16.35312,9.297911 -25.33145,12.183535 l -4.48916,1.283957 c -10.58187,2.243644 -20.84228,2.885623 -31.74561,0.960625 -4.1677,-0.641042 -7.69343,-1.603541 -11.54249,-2.885624 C 297.29475,45.609007 286.06997,36.950262 274.848,28.934433 l -13.4675,-9.940827 -15.39249,11.22291 c -10.90145,8.337287 -22.12436,16.353116 -35.27133,21.163738 l -3.52667,0.962499 c -11.22291,2.885623 -22.12623,3.207081 -33.6706,1.282083 -2.88562,-0.641042 -5.77125,-1.282083 -8.65687,-2.244582 -11.86395,-3.848123 -22.44582,-9.61937 -32.70623,-16.994157 -8.01677,-6.092705 -16.03447,-12.50593 -23.72884,-18.597698 -4.81062,6.412288 -9.619371,12.825514 -15.071035,18.919155 C 82.774567,45.930465 69.626658,56.511396 54.5575,61.00056 c -2.885624,0.641042 -5.451664,1.283957 -8.337287,1.283957 h -21.1628 l -1.603541,34.629356 v 16.674577 16.67363 l 0.960625,16.03353 1.282083,16.35312 1.924998,16.03353 2.244582,15.71114 2.885624,15.71395 3.207081,15.71113 3.846248,15.07104 4.491039,15.07103 4.808747,15.07103 5.451663,14.43093 5.771247,14.42624 6.412288,14.11322 7.055204,13.78333 7.374788,13.78895 8.015829,13.14603 8.338224,13.15166 8.977388,12.8227 9.29979,12.18541 9.93895,12.18541 10.58187,11.5425 10.90333,11.54249 11.54249,10.90614 11.86395,10.58187 12.50499,10.2576 12.82833,9.93895 13.46655,9.3026 14.11041,8.97833 14.1076,8.65405 23.72978,13.14604 24.04936,-13.14604 14.10759,-8.65405 14.11041,-8.97833 z"
     clip-rule="evenodd" /><path
     id="path2213"
     d="m 261.3805,498.07832 19.23874,-10.58187 14.1076,-8.33635 13.46749,-8.65968 13.14885,-9.29698 12.82551,-9.62124 11.86395,-9.93895 11.86395,-10.58187 11.22479,-10.58187 10.58187,-11.22479 10.26041,-11.54249 9.61843,-11.54249 9.29979,-12.18541 8.65687,-12.50406 8.33822,-12.50405 7.69625,-13.15166 7.37478,-13.14604 6.73281,-13.78895 6.41416,-13.78332 5.77125,-14.11322 5.12927,-14.1076 4.81062,-14.42999 4.16771,-14.74957 3.84906,-15.07104 3.20708,-15.07009 2.88562,-15.39249 2.24365,-15.71208 1.60354,-15.71207 1.28208,-15.71208 0.96344,-16.03165 0.31864,-16.35312 -0.31864,-16.353115 -1.28209,-25.331443 c -5.77124,0 -11.5453,0.319583 -17.31749,-0.321458 -2.88562,-0.641041 -5.44978,-1.282083 -8.33634,-2.244582 -5.45261,-1.923124 -10.58187,-4.489164 -15.71395,-7.696245 -9.93896,-6.412289 -19.23874,-14.429055 -27.25363,-23.407383 -2.56698,-2.885623 -4.81063,-6.092704 -7.05614,-8.978328 -4.81063,3.848123 -9.93896,7.694371 -14.74958,11.542494 -9.61843,7.055204 -19.5602,12.826451 -30.46071,17.315615 -2.24552,0.962499 -4.81062,1.60354 -7.05614,2.56604 -10.90052,3.205206 -21.80384,4.167706 -33.34634,3.526664 -5.4526,-0.641041 -10.58187,-1.60354 -16.03447,-3.207081 -2.88562,-0.962499 -5.77124,-1.923124 -8.33635,-3.207081 C 287.99403,50.122538 274.848,39.540669 261.37957,29.9213 c -11.86395,8.977391 -24.04936,18.276239 -37.19727,25.010923 -5.44979,2.885623 -10.90146,4.810622 -16.67364,6.414162 l -4.81062,0.960625 c -10.26041,1.603541 -20.2003,1.283957 -30.78217,-0.321458 -6.41416,-1.282083 -12.50687,-3.205207 -18.91916,-5.771247 -8.01583,-3.205207 -15.39061,-7.37385 -22.44582,-12.183535 -7.05333,-5.132079 -13.78707,-10.260411 -20.52082,-15.712074 -2.56604,3.205207 -4.81062,6.733746 -7.69624,9.61937 -11.863018,13.146971 -25.973426,24.369881 -42.326541,30.462586 -2.885624,0.962499 -5.449789,1.603541 -8.33635,2.244582 -5.771247,0.641041 -11.544368,0.321458 -17.315615,0.321458 l -1.282083,25.331443 -0.321457,16.353115 0.321457,16.35312 0.960625,16.03165 1.282083,15.71208 1.603541,15.71207 2.244582,15.71208 2.885623,15.39249 3.207081,15.07009 3.848123,15.07104 4.167706,14.74957 4.810622,14.42999 5.130206,14.1076 5.773121,14.11322 6.412288,13.78332 6.733746,13.78895 7.374788,13.14604 7.696245,13.15166 8.015829,12.50405 8.97833,12.50406 9.29978,12.18541 9.61937,11.54249 10.26041,11.54249 10.58187,11.22479 11.22291,10.58187 11.86395,10.58187 11.86396,9.93895 12.82645,9.62124 13.14603,9.29698 13.46749,8.65968 14.10854,8.33635 z"
     clip-rule="evenodd"
     style="fill:#ffffff;fill-rule:evenodd;stroke-width:0.937195" /><path
     id="path2215"
     d="m 95.27956,85.394809 c 5.77125,0 10.26041,4.489164 10.26041,9.940827 0,5.771244 -4.48916,10.260414 -10.26041,10.260414 -5.449789,0 -9.938953,-4.48917 -9.938953,-10.260414 0,-5.451663 4.489164,-9.940827 9.938953,-9.940827 z m 98.1215,91.387761 c 5.77125,0 10.26042,4.81062 10.26042,10.26041 0,5.45166 -4.48917,9.94083 -10.26042,9.94083 -5.45166,0 -9.94082,-4.48917 -9.94082,-9.94083 0,-5.44979 4.48916,-10.26041 9.94082,-10.26041 z m 111.90765,95.87505 c 5.4526,0 9.94176,4.81062 9.94176,10.26322 0,5.44791 -4.48916,9.93895 -9.94176,9.93895 -5.44979,0 -10.26041,-4.49197 -10.26041,-9.93895 -9.4e-4,-5.4526 4.80968,-10.26322 10.26041,-10.26322 z m 73.10871,74.39172 c 5.4526,0 9.94176,4.49198 9.94176,10.26323 0,5.44791 -4.48916,9.93895 -9.94176,9.93895 -5.44979,0 -10.26042,-4.49198 -10.26042,-9.93895 0,-5.77125 4.81063,-10.26323 10.26042,-10.26323 z M 167.10712,130.92937 c 0.9625,5.44978 7.05521,7.05332 12.50687,7.05332 2.88562,0 3.52573,-1.92499 2.88562,-5.77124 -2.88562,-18.27812 -7.69624,-37.197272 -32.7081,-38.479354 -24.36895,-1.603541 -37.1954,16.674574 -39.7605,40.082894 -2.88562,31.74467 11.86395,50.66382 35.27227,53.22799 26.61353,3.20708 33.02675,-20.20124 36.87487,-31.42415 2.56417,-7.37479 -14.10853,-7.05333 -14.74957,1.925 -0.64292,11.54249 2.56417,17.31561 -8.9802,17.6352 -13.1451,0.31958 -14.74958,-17.31562 -14.74958,-34.95082 0,-13.14603 -1.28208,-25.65196 8.01583,-27.57602 10.58281,-1.92406 13.46937,7.37385 15.39249,18.27718 z m 101.64817,70.22214 c -11.86395,-10.90145 -24.6904,-20.84228 -36.23477,-32.06519 -3.84625,-3.84625 -6.41229,-4.48916 -9.61937,-1.28208 -1.92312,2.56417 -2.24458,5.13021 -0.96062,7.37479 2.24364,4.48916 2.88562,8.33728 2.88562,12.50499 l -17.6352,37.51685 c -2.24552,4.81062 -7.0552,2.56417 -10.5828,3.52667 -1.92313,2.24552 -1.92313,4.48916 -0.31959,6.73374 l 9.94083,9.61937 c 1.28208,1.60354 4.16771,2.24552 6.41229,0 0.9625,-0.9625 0.9625,-2.56416 0.64104,-3.84812 -1.28208,-6.41229 0,-10.58093 2.88562,-8.01583 l 27.89749,22.76728 c 3.84812,3.20521 4.48916,8.33729 4.48916,12.82364 -0.31958,3.84906 -0.64104,4.17333 1.92312,7.05614 l 23.40739,23.08592 c 2.56697,2.56979 6.41416,2.24552 8.33822,-1.60354 1.60354,-3.52572 -0.64292,-6.7328 -2.56698,-12.18541 -8.01489,-24.04654 -11.22197,-49.0584 -11.22197,-72.46579 2.24552,-0.64104 3.20708,-1.60354 3.20708,-3.20708 0.64104,-3.52573 -0.32239,-6.09177 -2.88656,-8.33635 z m -35.59279,-11.86395 -14.42999,30.78311 23.7279,18.91915 -2.88562,-40.72393 c -0.32052,-3.84812 -3.52667,-7.37479 -6.41229,-8.97833 z m 123.13055,85.93422 -27.25644,-20.52082 c -2.88562,-2.56417 -6.08989,-2.56417 -8.01489,-0.9625 -2.56417,2.24552 -1.60354,5.45166 0.32146,7.69625 1.92218,2.24552 2.88562,7.0552 2.56416,9.94364 v 56.75371 c 0,3.52573 -0.64291,7.37479 -2.88562,7.69344 -3.84625,0.32427 -5.44979,-0.31865 -6.09271,2.24552 -0.6401,1.92781 -0.6401,4.1677 2.24552,6.41416 l 31.42415,25.0128 c 2.56417,1.92218 5.77125,1.60354 8.01489,0 1.60354,-0.96063 0.32146,-3.84906 -0.64291,-5.4526 -2.88563,-3.52573 -4.16771,-6.0899 -4.16771,-9.29698 v -65.09475 c 0,-4.49198 6.41416,-5.12927 7.05333,-8.65968 0.64385,-2.88375 -0.31677,-4.16865 -2.56323,-5.77219 z"
     clip-rule="evenodd"
     style="fill-rule:evenodd;stroke-width:0.937195" /><path
     style="fill:#ec1c24;fill-opacity:1;fill-rule:evenodd;stroke-width:0.937195"
     id="path2217"
     d="m 261.3805,487.1778 c 36.23196,-18.91822 67.97757,-42.00883 95.23401,-67.97756 L 42.692611,127.72135 C 47.181775,280.67532 121.25298,413.42337 261.3805,487.1778 Z M 433.89186,315.62801 C 469.48465,246.36555 484.87621,165.87924 479.74506,80.586061 444.15227,82.189602 411.44604,41.787125 411.44604,41.787125 392.2073,57.177742 367.8393,72.890753 335.45077,72.890753 303.06506,73.210337 284.14778,58.141178 261.3805,41.787125 c -22.44582,16.353116 -41.36497,31.423212 -73.75162,31.103628 -5.77125,0 -11.22291,-0.319583 -16.67364,-1.283957 z"
     clip-rule="evenodd" /></g>
</svg>
