<svg xmlns="http://www.w3.org/2000/svg" width="1000" height="1000" viewBox="0 0 1000 1000"><g fill-rule="evenodd" clip-rule="evenodd"><path fill="#352f29" d="M25 483.375v33.249c.362.569 1.805 24.04 1.907 26.594.31 7.802 1.834 17.982 3.135 25.365 3.062 17.36 5.167 32.123 9.31 48.165 7.243 28.037 18.131 60.594 30.139 84.336 12.476 24.67 25.985 51.526 42.09 72.386 4.218 5.463 7.889 10.892 12.092 16.41 4.17 5.474 9.132 10.766 12.954 16.019 6.572 9.029 19.253 21.865 27.432 30.045 8.273 8.273 20.534 20.37 29.758 27.242 5.455 4.061 10.194 8.601 15.766 12.734 5.62 4.17 11.197 8.042 16.692 12.282 20.943 16.17 47.699 29.712 72.329 42.148 11.746 5.93 27.296 12.092 40.306 16.692 14.5 5.128 28.459 8.818 43.97 13.506 14.327 4.326 32.074 6.895 48.14 9.335 6.978 1.059 17.634 2.995 25.284 3.218 2.607.075 26.486 1.527 27.074 1.899h33.25c.568-.362 24.04-1.805 26.595-1.906 7.804-.31 17.98-1.833 25.362-3.136 17.362-3.062 32.124-5.165 48.166-9.31 28.088-7.255 60.556-18.109 84.339-30.139 24.668-12.472 51.526-25.983 72.385-42.089 5.463-4.217 10.892-7.886 16.411-12.091 5.474-4.169 10.767-9.131 16.018-12.953 9.03-6.571 21.865-19.255 30.045-27.432 8.273-8.273 20.37-20.535 27.242-29.76 4.063-5.453 8.603-10.19 12.734-15.764 4.173-5.62 8.045-11.197 12.282-16.692 16.17-20.943 29.713-47.699 42.15-72.329 5.885-11.66 12.125-27.401 16.692-40.306 2.34-6.616 4.493-14.943 7.05-21.449 2.728-6.943 3.936-15.177 6.454-22.522 2.183-6.367 3.569-16.228 5.23-23.27 1.86-7.872 2.842-16.55 4.103-24.87 1.062-6.977 2.998-17.633 3.22-25.282.076-2.608 1.529-26.488 1.899-27.075v-33.249c-.37-.588-1.824-24.468-1.9-27.074-.221-7.65-2.157-18.306-3.219-25.282-1.261-8.32-2.243-17-4.103-24.873-1.661-7.04-3.047-16.9-5.23-23.266-2.532-7.385-3.762-15.453-6.46-22.516-2.557-6.692-4.665-14.729-7.044-21.456-4.566-12.907-10.805-28.649-16.693-40.308-12.436-24.63-25.979-51.387-42.15-72.33-4.236-5.493-8.108-11.069-12.28-16.691-4.134-5.573-8.672-10.31-12.735-15.764-6.871-9.227-18.97-21.486-27.242-29.759-8.18-8.178-21.015-20.862-30.045-27.433-5.251-3.822-10.544-8.784-16.018-12.954-5.519-4.204-10.948-7.873-16.411-12.09-20.86-16.106-47.717-29.617-72.385-42.091-23.783-12.028-56.249-22.884-84.34-30.138-16.04-4.144-30.803-6.247-48.165-9.309-7.382-1.301-17.56-2.826-25.362-3.135-2.555-.102-26.025-1.547-26.595-1.907h-33.25c-.588.372-24.467 1.824-27.074 1.9-7.65.222-18.306 2.158-25.284 3.217-15.906 2.414-33.931 5.045-48.14 9.336-15.532 4.692-29.456 8.372-43.97 13.505-13.012 4.6-28.562 10.762-40.306 16.692-24.632 12.435-51.386 25.977-72.329 42.146-5.493 4.24-11.071 8.112-16.692 12.284-5.572 4.134-10.31 8.673-15.766 12.736-9.224 6.869-21.485 18.969-29.758 27.241-8.179 8.18-20.86 21.015-27.432 30.044-3.822 5.253-8.784 10.547-12.954 16.02-4.203 5.517-7.874 10.946-12.092 16.41-16.103 20.86-29.614 47.717-42.09 72.385-5.733 11.335-12.6 28.142-16.764 40.71-2.218 6.696-4.535 14.924-7.107 21.395-2.566 6.455-4.2 15.526-6.283 22.219-4.473 14.368-6.452 32.062-9.297 48.178-1.3 7.383-2.824 17.563-3.134 25.366-.1 2.55-1.546 26.022-1.906 26.59m472.15-382.852c0-5.797-12.83-27.129-13.3-32.775h11.875c1.845 0 3.83 8.441 4.462 10.264.762 2.194 3.093 9.625 3.138 11.586h.95l6.86-21.308 13.09-.067-15.3 30.587-.373 20.714h-11.4v-19.001Zm44.65.95c0-14.625 8.693-28.5 22.801-28.5h6.648c2.416 0 7.345 1.96 9.026 2.851l-2.904 9.006c-2.73-.213-5.072-2.356-9.443-2.356-8.898 0-13.776 8.91-13.776 18.049v1.9c0 7.623 6.083 13.3 13.776 13.3h3.321c1.284 0 1.31-.227 2.376-.474v8.548c0 1.094-.331 1.426-1.424 1.426h-7.128c-13.707 0-23.273-10-23.273-23.75m35.652 790.54 32.278-6.769c-.008 7.477 2.183 3.374-.102 11.755-.93 3.411-2.612 7.418-3.776 10.949-1.368 4.147-6.763 18.444-7.051 21.924l19.43-4.016 2.088 9.684-34.331 7.211c-.01-2.956-.963-3.685-.963-6.23 0-1.83 5.281-16.545 6.236-19.414 1.118-3.352 5.886-16.335 6.116-19.06l-18.464 3.624Zm103.049-772.964c.132-1.563 3.272-9.026 4.275-9.026 2.524 0 24.19 12.66 28.975 13.776-.662 7.968-10.763 12.245-16.338 15.96-3.065 2.041-18.19 11.164-18.811 13.489 1.865.433 17.1 7.753 17.1 8.55 0 .31-3.361 7.638-3.798 8.55l-31.372-15.16c1.78-7.603 11.04-11.503 16.931-15.429 2.891-1.928 18.162-11.71 19.188-13.11zM411.979 942.673l8.875-50.768 27.807 4.928-1.697 9.324-16.308-2.45c-.006 4.55-3.924 9.828 1.206 10.705 4.654.799 8.032 1.218 12.088 2.164l-1.23 9.052-1.62-.03c-3.416 0-9.965-2.373-14.248-2.373l-1.584 11.853 16.775 2.916-1.253 9.482zm214.371-812.7c0-12.492 10.244-27.867 12.825-38.95l10.882 3.916c-1.496 6.483-12.309 29.558-12.309 33.612v4.75c0 1.813 3.107 4.275 5.224 4.275h1.427c6.037 0 9.176-12.11 11.21-17.29 2.552-6.493 4.96-14.334 7.788-20.234l10.933 4.26c-5.572 10.535-12.105 43.24-25.657 43.24h-5.7c-6.317 0-16.624-7.587-16.624-13.776v-3.803zm-333.45 4.275c0-6.179 4.532-14.062 8.073-16.626 3.068-2.223 11.296-8.074 16.152-8.074h3.325l1.867 9.507c-7.997-.006-17.542 6.047-17.542 13.77v.948c0 7.069 7.35 19.001 13.775 19.001h3.325c2.703 0 6.017-1.811 7.125-3.325l-4.738-9.506c-.838.443-4.412 2.38-5.238 2.38-.858 0-3.986-6.833-4.275-8.075l15.544-7.403c1.209 4.905 11.532 21.739 11.532 24.979 0 1.245-9.257 7.24-10.913 8.084-4.12 2.097-8.522 3.79-14.736 3.79h-.95c-5.356 0-12.515-5.8-15.018-9.206-2.253-3.067-7.306-12.296-7.306-16.919v-3.325zm326.36 747.279 13.71-4.468 28.445 44.969-11.757 3.667-6.303-10.487-11.282 3.806 1.045 12.274-11.426 3.613-2.576-49.198zm-171.216 65.432 3.697-49.371 12.153.606 13.756 35.489.895-29.463.081-4.748h4.75l6.167.549.008 1.827-3.492 49.391-11.7-.593c-.987-4.08-5.009-12.624-6.853-17.25-.946-2.368-6.454-16.264-6.454-17.772v-1.9h-.95v10.45l-1.451 21.85.027 3.325-5.211-.582-5.24.107zM591.202 89.123c0-2.173 1.39-9.974 3.325-9.974h1.424c8.907 0 27.551 6.428 27.551 14.724v3.325c0 7.098-5.281 13.627-11.875 13.774 5.778 8.628 3.327 9.614 3.327 21.85v3.799c-2.8 0-5.907-1.414-8.845-2.083-3.965-.899-2.558-3.473-2.558-8.366 0-10.045 1.93-12.727-6.65-14.726l-4.983 18.937-11.122-2.483 9.625-37.308zM354.16 927.97l16.81-48.864c2.014.451 10.649 3.269 12.183 3.269h1.426v17.1l-.908 19.003 17.128-31.316 13.654 3.479-10.38 50.64-2.428-.883-5.625-1.199-2.316-.987 8.152-36.431-18.68 32.855-8.538-2.051-.034-6.987.812-29.454-10.977 34.143-1.236.06c-2.373.002-6.078-2.307-9.043-2.377M435.4 93.4c0-12.153 8.139-23.75 19.475-23.75h1.427l5.694.52c5.972 3.949 6.712 2.074 11.322 9.064 1.912 2.901 4.835 10.984 4.835 15.59V101c0 11.536-8.082 21.375-19.475 21.375h-4.275c-10.619 0-19-14.383-19-25.649v-3.328zm101.177 822.7c0-10.212 9.416-21.375 19.476-21.375h1.897c14.835 0 21.376 14.54 21.376 29.925v1.901c0 6.2-2.964 11.961-6.042 15.334-2.17 2.376-10.095 6.635-14.86 6.042l-5.216-.544c-5.171-3.39-7.74-2.622-11.693-9.147-2.349-3.875-4.94-10.049-4.94-15.962V916.1zM337.075 113.348c0-6.653 2.404-10.72 5.817-14.133 2.436-2.436 8.778-6.292 13.182-6.292h1.901c13.178 0 23.75 17.658 23.75 31.35 0 12.281-8.893 21.373-20.9 21.373-12.524 0-23.75-15.678-23.75-27.55zM494.77 899.862l16.143-1.05 1.912.187c12.746 0 21.85 9.925 21.85 22.8v6.175c0 7.039-4.35 15.117-8.64 17.958-5.94 3.933-11.15 5.318-20.811 5.318h-1.9l-8.068-.561-.006-10.365zM383.624 84.85c5.02-2.657 15.02-5.226 22.8-5.226h.475c15.547 0 21.85 14.586 21.85 30.4v.475c0 15.013-18.762 23.274-34.199 23.274zM137.576 483.848c0-12.262 1.99-29.412 3.979-40.671 1.08-6.118 2.74-12.83 3.621-18.705.856-5.713 3.334-12.485 4.238-17.612 1.927-10.92 7.375-23.596 10.757-33.893 3.158-9.617 8.774-22.236 13.19-30.984 21.359-42.296 42.77-70.875 74.537-102.64 53.753-53.754 144.461-102.244 252.107-102.244h3.8c52.824 0 111.9 15.597 147.416 33.083 43.593 21.462 73.596 41.866 106.116 74.386C812.952 300.184 862.905 388.851 862.905 500c0 111.409-50.057 199.918-105.807 255.666-30.013 30.014-65.279 55.892-106.516 74.461-39.079 17.596-91.188 32.772-147.73 32.772h-.473c-109.24 0-199.524-47.283-254.008-101.768-32.029-32.029-53.471-60.459-75.01-103.116-4.703-9.312-9.756-21.125-13.319-31.332-3.387-9.706-8.805-23.209-10.63-33.545-.96-5.449-3.357-12.015-4.285-18.038-.9-5.833-2.378-12.36-3.467-18.857-1.977-11.784-4.082-27.105-4.082-40.093v-32.302z"/><path fill="#dad8d9" d="M52.551 381.248c-2.455 3.664-10.15 45.283-11.299 53.3-2.674 18.645-4.376 39.352-4.376 60.225v12.35c0 10.588 1.47 20.841 1.432 30.394-.025 6.348 1.947 22.197 3.118 28.708 1.66 9.234 8.24 48.212 11.127 52.524 0 5.777 9.25 31.257 11.326 37.597 3.456 10.551 9.357 25.111 14.157 34.768 11.597 23.337 21.187 42.343 34.93 63.396 5.746 8.806 13.754 20.714 20.451 28.472 3.821 4.425 7.112 9.247 10.931 13.769 3.8 4.498 7.911 8.638 11.631 13.07 12.277 14.628 34.888 36.657 50.188 48.136 9.573 7.18 17.922 14.125 27.84 21.087 9.72 6.819 19.547 13.321 29.934 19.465 20.465 12.11 42.558 23.149 65.944 32.383C374.02 948.32 432.82 963.125 494.3 963.125h11.401c60.505 0 120.576-14.662 164.072-32.104 24.142-9.679 44.663-19.972 65.984-32.34 9.807-5.69 20.889-12.589 29.686-19.237 4.706-3.555 9.636-6.907 14.334-10.368 4.698-3.463 9.202-7.567 13.776-10.926 13.122-9.64 40.303-35.323 50.261-48.065 2.727-3.49 8.207-9.563 11.379-12.845 3.683-3.812 7.547-9.471 10.948-13.751 7.27-9.145 14.122-18.79 20.703-28.697 6.73-10.132 11.975-20.271 18.427-30.496 6.18-9.796 11.196-22.256 16.531-32.87 5.085-10.115 10.228-23.695 14.198-34.73 2.088-5.812 11.453-32.747 11.453-37.946 3.444-5.144 9.733-46.185 11.594-56.805 3.265-18.67 4.08-43.344 4.08-64.795 0-140.293-64.815-253.63-135.016-323.831-19.563-19.561-39.213-36.293-62.116-52.363-19.988-14.025-48.984-32.364-72.952-41.995-13.475-5.414-26.137-11.826-40.557-16.442C638.37 58 623.442 52.776 608.13 49.4c-30.825-6.796-65.201-12.524-102.424-12.524h-3.801c-16.368 0-32.447.699-47.058 2.343-14.822 1.665-29.833 2.862-43.387 6.012-6.286 1.46-14.68 2.645-20.307 4.393-5.323 1.653-14.31 4.177-19.416 5.282-8.888 1.925-29.602 8.871-37.342 12.534-5.643 2.67-11.8 4.422-17.577 7.121-5.913 2.765-11.183 4.875-16.945 7.756-11.426 5.715-22.031 10.962-32.629 17.246-19.934 11.822-41.542 25.878-58.762 40.513-37.517 31.886-66.713 62.368-94.557 103.993-13.693 20.47-24.294 40.716-35.395 63.88-5.48 11.437-9.636 22.808-14.384 35.018-2.095 5.374-11.594 33.429-11.594 38.281m444.6-280.725c0-5.797-12.83-27.129-13.301-32.775h11.875c1.845 0 3.83 8.441 4.462 10.264.762 2.194 3.093 9.625 3.138 11.586h.95l6.86-21.308 13.09-.067-15.3 30.587-.373 20.714h-11.4v-19.001Zm44.65.95c0-14.625 8.692-28.5 22.8-28.5h6.648c2.416 0 7.345 1.96 9.026 2.851l-2.904 9.006c-2.73-.213-5.072-2.356-9.443-2.356-8.898 0-13.776 8.91-13.776 18.049v1.9c0 7.623 6.083 13.3 13.776 13.3h3.321c1.284 0 1.31-.227 2.376-.474v8.548c0 1.094-.331 1.426-1.424 1.426h-7.128c-13.707 0-23.273-10-23.273-23.75m35.651 790.54 32.278-6.769c-.008 7.477 2.183 3.374-.102 11.755-.93 3.411-2.612 7.418-3.776 10.949-1.368 4.147-6.763 18.444-7.051 21.924l19.43-4.016 2.088 9.684-34.331 7.211c-.01-2.956-.963-3.685-.963-6.23 0-1.83 5.281-16.545 6.236-19.414 1.118-3.352 5.886-16.335 6.116-19.06l-18.464 3.624Zm103.049-772.964c.132-1.563 3.272-9.026 4.275-9.026 2.524 0 24.19 12.66 28.975 13.776-.662 7.968-10.763 12.245-16.338 15.96-3.065 2.041-18.19 11.164-18.811 13.489 1.865.433 17.1 7.753 17.1 8.55 0 .31-3.361 7.638-3.798 8.55l-31.372-15.16c1.78-7.603 11.04-11.503 16.931-15.429 2.891-1.928 18.162-11.71 19.188-13.11zM411.979 942.673l8.875-50.768 27.807 4.928-1.697 9.324-16.308-2.45c-.006 4.55-3.924 9.828 1.206 10.705 4.654.799 8.032 1.218 12.088 2.164l-1.23 9.052-1.62-.03c-3.416 0-9.965-2.373-14.248-2.373l-1.584 11.853 16.775 2.916-1.253 9.482zm214.371-812.7c0-12.492 10.244-27.867 12.825-38.95l10.882 3.916c-1.496 6.483-12.309 29.558-12.309 33.612v4.75c0 1.813 3.107 4.275 5.224 4.275h1.427c6.037 0 9.176-12.11 11.21-17.29 2.552-6.493 4.96-14.334 7.788-20.234l10.933 4.26c-5.572 10.535-12.105 43.24-25.657 43.24h-5.7c-6.317 0-16.624-7.587-16.624-13.776v-3.803zm-333.45 4.275c0-6.179 4.532-14.062 8.073-16.626 3.068-2.223 11.296-8.074 16.152-8.074h3.325l1.867 9.507c-7.997-.006-17.542 6.047-17.542 13.77v.948c0 7.069 7.35 19.001 13.775 19.001h3.325c2.703 0 6.017-1.811 7.125-3.325l-4.738-9.506c-.838.443-4.412 2.38-5.238 2.38-.858 0-3.986-6.833-4.275-8.075l15.544-7.403c1.209 4.905 11.532 21.739 11.532 24.979 0 1.245-9.257 7.24-10.913 8.084-4.12 2.097-8.522 3.79-14.736 3.79h-.95c-5.356 0-12.515-5.8-15.018-9.206-2.253-3.067-7.306-12.296-7.306-16.919v-3.325zm326.36 747.279 13.71-4.468 28.445 44.969-11.757 3.667-6.303-10.487-11.282 3.806 1.045 12.274-11.426 3.613-2.576-49.198zm-171.216 65.432 3.697-49.371 12.153.606 13.756 35.489.895-29.463.081-4.748h4.75l6.167.549.008 1.827-3.492 49.391-11.7-.593c-.987-4.08-5.009-12.624-6.853-17.25-.946-2.368-6.454-16.264-6.454-17.772v-1.9h-.95v10.45l-1.451 21.85.027 3.325-5.211-.582-5.24.107zM591.202 89.123c0-2.173 1.39-9.974 3.325-9.974h1.424c8.907 0 27.551 6.428 27.551 14.724v3.325c0 7.098-5.281 13.627-11.875 13.774 5.778 8.628 3.327 9.614 3.327 21.85v3.799c-2.8 0-5.907-1.414-8.845-2.083-3.965-.899-2.558-3.473-2.558-8.366 0-10.045 1.93-12.727-6.65-14.726l-4.983 18.937-11.122-2.483 9.625-37.308zM354.16 927.97l16.81-48.864c2.014.451 10.649 3.269 12.183 3.269h1.426v17.1l-.908 19.003 17.128-31.316 13.654 3.479-10.38 50.64-2.428-.883-5.625-1.199-2.316-.987 8.152-36.431-18.68 32.855-8.538-2.051-.034-6.987.812-29.454-10.977 34.143-1.236.06c-2.373.002-6.078-2.307-9.043-2.377M435.4 93.4c0-12.153 8.139-23.75 19.475-23.75h1.427l5.694.52c5.972 3.949 6.712 2.074 11.322 9.064 1.912 2.901 4.835 10.984 4.835 15.59V101c0 11.536-8.082 21.375-19.475 21.375h-4.275c-10.619 0-19-14.383-19-25.649v-3.328zm101.177 822.7c0-10.212 9.416-21.375 19.476-21.375h1.897c14.835 0 21.376 14.54 21.376 29.925v1.901c0 6.2-2.964 11.961-6.042 15.334-2.17 2.376-10.095 6.635-14.86 6.042l-5.216-.544c-5.171-3.39-7.74-2.622-11.693-9.147-2.349-3.875-4.94-10.049-4.94-15.962V916.1zM337.075 113.348c0-6.653 2.404-10.72 5.817-14.133 2.436-2.436 8.778-6.292 13.182-6.292h1.901c13.178 0 23.75 17.658 23.75 31.35 0 12.281-8.893 21.373-20.9 21.373-12.524 0-23.75-15.678-23.75-27.55zM494.77 899.862l16.143-1.05 1.912.187c12.746 0 21.85 9.925 21.85 22.8v6.175c0 7.039-4.35 15.117-8.64 17.958-5.94 3.933-11.15 5.318-20.811 5.318h-1.9l-8.068-.561-.006-10.365zM383.624 84.85c5.02-2.657 15.02-5.226 22.8-5.226h.475c15.547 0 21.85 14.586 21.85 30.4v.475c0 15.013-18.762 23.274-34.199 23.274zM137.576 483.848c0-12.262 1.99-29.412 3.979-40.671 1.08-6.118 2.74-12.83 3.621-18.705.856-5.713 3.334-12.485 4.238-17.612 1.927-10.92 7.375-23.596 10.757-33.893 3.158-9.617 8.774-22.236 13.19-30.984 21.359-42.296 42.77-70.875 74.537-102.64 53.753-53.754 144.461-102.244 252.107-102.244h3.8c52.824 0 111.9 15.597 147.416 33.083 43.593 21.462 73.596 41.866 106.116 74.386C812.952 300.184 862.905 388.851 862.905 500c0 111.409-50.057 199.918-105.807 255.666-30.013 30.014-65.279 55.892-106.516 74.461-39.079 17.596-91.188 32.772-147.73 32.772h-.473c-109.24 0-199.524-47.283-254.008-101.768-32.029-32.029-53.471-60.459-75.01-103.116-4.703-9.312-9.756-21.125-13.319-31.332-3.387-9.706-8.805-23.209-10.63-33.545-.96-5.449-3.357-12.015-4.285-18.038-.9-5.833-2.378-12.36-3.467-18.857-1.977-11.784-4.082-27.105-4.082-40.093v-32.302z"/><path fill="#352f29" d="M137.576 483.848v32.3c0 12.988 2.105 28.31 4.082 40.093 1.091 6.498 2.568 13.025 3.467 18.858.93 6.022 3.326 12.59 4.286 18.038 1.824 10.334 7.243 23.839 10.63 33.545 3.562 10.208 8.615 22.021 13.318 31.332 21.538 42.657 42.98 71.087 75.01 103.115 54.484 54.486 144.768 101.768 254.009 101.768h.473c56.54 0 108.65-15.175 147.729-32.771 41.236-18.571 76.503-44.448 106.517-74.461 55.75-55.75 105.807-144.26 105.807-255.667 0-111.149-49.954-199.816-105.568-255.432-32.52-32.52-62.524-52.922-106.117-74.385-35.519-17.487-94.595-33.082-147.42-33.082H500c-107.644 0-198.352 48.489-252.107 102.244-31.766 31.765-53.178 60.344-74.536 102.64-4.417 8.748-10.033 21.367-13.19 30.984-3.382 10.297-8.831 22.974-10.757 33.893-.905 5.127-3.383 11.897-4.239 17.612-.88 5.875-2.538 12.587-3.621 18.705-1.985 11.26-3.974 28.41-3.974 40.671m11.398 16.15c0-193.337 157.686-351.025 351.026-351.025S851.026 306.66 851.026 499.998c0 193.34-157.686 351.026-351.026 351.026-193.339 0-351.026-157.687-351.026-351.026M383.624 84.85l10.926 48.925c15.439 0 34.2-8.262 34.2-23.275v-.477c0-15.813-6.303-30.399-21.851-30.399h-.474c-7.778 0-17.781 2.569-22.801 5.226m13.302 5.223c1.794-.417 2.97-.95 5.225-.95h2.375c7.19 0 11.876 10.148 11.876 17.574v5.225c0 2.705-1.963 6.183-3.436 7.49-1.038.922-6.128 3.435-7.49 3.435h-1.425zM494.77 899.862l.481 40.462.007 10.365 8.068.561h1.9c9.661 0 14.87-1.385 20.81-5.318 4.29-2.84 8.641-10.92 8.641-17.958v-6.176c0-12.874-9.105-22.8-21.85-22.8l-1.912-.186zm11.881 8.636c.574-.222 1.626-.475 2.373-.475h2.376c7.564 0 10.926 7.727 10.926 15.676v3.8c0 6.785-4.404 14.25-10.451 14.25h-5.224zM337.075 113.348v4.75c0 11.872 11.226 27.55 23.75 27.55 12.007 0 20.9-9.092 20.9-21.374 0-13.691-10.572-31.35-23.75-31.35h-1.9c-4.405 0-10.747 3.856-13.183 6.293-3.413 3.41-5.817 7.478-5.817 14.131m11.401-2.374c0-3.359 2.762-7.6 6.174-7.6h1.9c7.252 0 13.3 15.769 13.3 24.698v.476c0 3.594-3.558 7.124-7.6 7.124-7.41.002-13.774-15.456-13.774-24.698M536.577 916.1v6.173c0 5.913 2.59 12.087 4.94 15.962 3.953 6.527 6.521 5.757 11.693 9.147l5.216.544c4.764.593 12.69-3.666 14.86-6.042 3.077-3.373 6.041-9.136 6.041-15.334v-1.9c0-15.385-6.542-29.926-21.375-29.926h-1.898c-10.061 0-19.477 11.163-19.477 21.375m11.874.95c0-5.377 2.58-12.35 7.602-12.35h1.422c5.572 0 9.5 10.24 9.5 16.15v8.074c0 3.91-3.259 9.024-7.124 9.024h-1.427c-6.353 0-9.973-11.948-9.973-19zM435.4 93.398v3.325c0 11.266 8.381 25.649 19 25.649h4.275c11.395 0 19.474-9.839 19.474-21.376v-6.175c0-4.609-2.922-12.69-4.834-15.59-4.609-6.99-5.35-5.116-11.322-9.064l-5.694-.522h-1.427c-11.333.003-19.472 11.602-19.472 23.753m11.875-1.899c0-5.418 2.668-11.875 8.075-11.875h.95c5.774 0 9.5 10.38 9.5 16.625v5.7c0 5.108-2.391 10.925-7.125 10.925h-1.426c-6.97-.001-9.974-13.428-9.974-21.375M354.16 927.97c2.964.07 6.67 2.378 9.04 2.378l1.236-.06 10.977-34.143-.811 29.453.033 6.988 8.538 2.05 18.68-32.855-8.151 36.432 2.315.987 5.626 1.2 2.428.88 10.38-50.638-13.655-3.48-17.127 31.316.907-19.002v-17.1h-1.426c-1.532 0-10.168-2.818-12.182-3.27zM591.202 89.123l-.781 1.47-9.625 37.309 11.122 2.483 4.983-18.938c8.58 1.998 6.65 4.682 6.65 14.726 0 4.894-1.407 7.468 2.558 8.367 2.938.668 6.045 2.083 8.845 2.083v-3.799c0-12.237 2.45-13.222-3.327-21.85 6.596-.147 11.875-6.677 11.875-13.774v-3.325c0-8.298-18.644-14.724-27.551-14.724h-1.424c-1.936-.002-3.325 7.799-3.325 9.972m7.92 14.21 3.646-13.688c3.57-.047 8.858 1.958 8.858 5.654v2.85c0 3.42-3.454 6.175-7.128 6.175-2.047-.001-2.288-.95-5.375-.992M448.044 946.96l.181 1.913 5.24-.107 5.211.582-.027-3.326 1.451-21.85v-10.449h.95v1.9c0 1.506 5.51 15.402 6.454 17.771 1.845 4.626 5.866 13.173 6.853 17.25l11.7.593 3.492-49.39-.008-1.828-6.166-.548h-4.75l-.082 4.747-.894 29.463-13.757-35.489-12.152-.606zM619.26 881.527l-.146 4.176 2.577 49.198 11.425-3.613-1.044-12.274 11.281-3.806 6.304 10.487 11.757-3.667-28.445-44.97zm11.372 28.396-2.045-20.41 10.77 17.93zM292.9 134.248v3.325c0 4.623 5.053 13.852 7.306 16.919 2.504 3.406 9.662 9.205 15.018 9.205h.95c6.215 0 10.619-1.692 14.736-3.789 1.657-.843 10.913-6.84 10.913-8.084 0-3.24-10.323-20.074-11.532-24.98l-15.544 7.404c.29 1.242 3.42 8.075 4.275 8.075.826 0 4.4-1.937 5.239-2.38l4.737 9.506c-1.108 1.514-4.422 3.325-7.124 3.325h-3.325c-6.425 0-13.776-11.93-13.776-19v-.95c0-7.72 9.545-13.775 17.542-13.769l-1.867-9.507h-3.325c-4.855 0-13.083 5.85-16.151 8.074-3.539 2.564-8.072 10.447-8.072 16.626M626.35 129.973v3.8c0 6.189 10.308 13.776 16.624 13.776h5.7c13.553 0 20.086-32.705 25.657-43.24l-10.932-4.26c-2.827 5.9-5.237 13.742-7.788 20.234-2.035 5.18-5.173 17.29-11.21 17.29h-1.427c-2.118 0-5.224-2.462-5.224-4.275v-4.75c0-4.054 10.813-27.127 12.308-33.613l-10.881-3.914c-2.583 11.085-12.827 26.46-12.827 38.952M411.979 942.673l28.81 4.803 1.253-9.482-16.775-2.916 1.583-11.853c4.283 0 10.832 2.373 14.25 2.373l1.62.03 1.229-9.052c-4.055-.947-7.433-1.365-12.089-2.164-5.13-.877-1.212-6.155-1.205-10.706l16.307 2.451 1.697-9.324-27.806-4.928zM680.5 119.049l16.15 7.601c-1.026 1.4-16.296 11.181-19.187 13.11-5.892 3.927-15.152 7.829-16.931 15.43l31.372 15.16c.435-.912 3.798-8.24 3.798-8.55 0-.798-15.235-8.115-17.1-8.55.621-2.326 15.746-11.448 18.81-13.49 5.576-3.716 15.677-7.993 16.339-15.96-4.785-1.114-26.45-13.775-28.975-13.775-1.005-.002-4.143 7.46-4.275 9.024M577.452 892.013l1.46 9.662 18.463-3.625c-.23 2.725-4.997 15.71-6.115 19.06-.957 2.869-6.237 17.582-6.237 19.414 0 2.547.954 3.274.963 6.23l34.332-7.21-2.089-9.684-19.43 4.015c.289-3.48 5.681-17.777 7.051-21.924 1.164-3.53 2.847-7.54 3.776-10.949 2.287-8.38.096-4.278.102-11.755zM541.8 101.473c0 13.75 9.566 23.75 23.275 23.75h7.128c1.092 0 1.424-.332 1.424-1.426v-8.548c-1.067.247-1.094.473-2.376.473h-3.322c-7.69 0-13.775-5.676-13.775-13.298v-1.901c0-9.137 4.878-18.05 13.775-18.05 4.371 0 6.714 2.144 9.443 2.357l2.904-9.006c-1.68-.891-6.61-2.85-9.025-2.85h-6.648c-14.11 0-22.803 13.874-22.803 28.5M497.15 100.523v19h11.4l.373-20.713 15.3-30.587-13.09.067-6.86 21.308h-.95c-.043-1.961-2.376-9.392-3.138-11.586-.631-1.823-2.618-10.264-4.462-10.264h-11.875c.472 5.646 13.302 26.978 13.302 32.775"/><path fill="#dad8d9" d="M548.451 917.05v1.899c0 7.051 3.62 19 9.973 19h1.427c3.865 0 7.125-5.115 7.125-9.025v-8.075c0-5.91-3.93-16.15-9.5-16.15h-1.423c-5.021 0-7.602 6.974-7.602 12.35M447.275 91.499c0 7.947 3.004 21.374 9.974 21.374h1.426c4.732 0 7.126-5.817 7.126-10.925v-5.7c0-6.246-3.727-16.625-9.5-16.625h-.951c-5.407.001-8.075 6.458-8.075 11.876M348.476 110.974c0 9.242 6.364 24.7 13.774 24.7 4.042 0 7.6-3.53 7.6-7.125v-.475c0-8.93-6.048-24.699-13.3-24.699h-1.9c-3.412-.001-6.174 4.239-6.174 7.599M506.651 908.498v33.252h5.224c6.047 0 10.45-7.466 10.45-14.251v-3.8c0-7.949-3.359-15.676-10.925-15.676h-2.376c-.747 0-1.799.255-2.373.475M396.926 90.073l7.125 32.776h1.425c1.362 0 6.45-2.513 7.49-3.435 1.473-1.308 3.436-4.784 3.436-7.49V106.7c0-7.426-4.685-17.574-11.876-17.574h-2.375c-2.254-.002-3.431.532-5.225.948M599.123 103.332c3.087.042 3.328.992 5.375.992 3.674 0 7.128-2.755 7.128-6.176v-2.85c0-3.695-5.286-5.7-8.858-5.653zM628.587 889.513l2.045 20.41 8.725-2.48Z"/><path fill="#0081c3" d="M211.627 282.034c.072.117.97 50.554.965 55.04-.016 18.681 1.336 36.55 1.598 54.732.054 3.726.35 9.145.653 13.189.32 4.278.313 9.097.645 13.517.588 7.868.806 18.698 2 26.323 1.088 6.943 2.117 18.305 2.51 25.498.446 8.205 2.263 17.036 3.228 25.095.982 8.206 3.001 16.657 3.824 24.18.896 8.194 3.709 16.248 4.545 23.782.32 2.888 1.875 8.185 2.634 11.209.912 3.635 1.838 7.714 2.765 11.398 1.864 7.42 4.351 14.705 6.377 21.95 1.876 6.714 4.554 14.625 7.076 20.928 2.727 6.814 4.967 13.808 8.012 20.315 3.056 6.54 5.589 12.83 8.752 19.253 3.151 6.402 6.67 12.382 9.777 18.552 2.985 5.931 6.954 11.983 10.307 17.7 3.033 5.172 7.608 12.367 11.204 17.124 4.061 5.372 7.612 10.864 11.733 16.27 4.06 5.333 8.674 10.653 12.468 15.86 3.436 4.72 8.915 10.566 12.964 15.046 4.562 5.046 8.82 9.907 13.51 14.818 4.574 4.79 9.308 9.29 14.012 13.994 4.803 4.803 9.8 9.105 14.487 13.84 4.419 4.463 9.942 9.116 14.807 13.2 5.117 4.297 9.893 9.022 15.155 13.174 10.555 8.327 20.597 16.77 31.377 24.958 10.695 8.126 21.442 16.237 32.432 23.903 3.674 2.563 32.412 22.162 33.156 23.18h.645c3.165-2.751 9.78-6.854 13.52-9.334 4.2-2.787 9.408-6.318 13.436-9.422 8.612-6.647 17.812-12.88 26.618-19.414 8.495-6.3 18.139-13.226 26.024-20.01 4.156-3.578 8.357-6.73 12.56-10.297 3.925-3.33 8.59-7.605 12.6-10.577 3.252-2.411 9.28-7.783 12.192-10.665 3.871-3.833 8.04-7.081 11.905-10.948 7.737-7.735 15.405-15.078 23.182-22.854 3.888-3.887 7.322-7.767 11.114-11.74 3.743-3.918 7.061-8.563 10.773-12.405 7.442-7.705 13.752-17.108 20.473-25.561 6.07-7.633 13.761-18.53 18.72-26.99 2.853-4.862 5.757-9.129 8.59-14.264 2.616-4.73 5.483-10.312 8.29-14.89 2.283-3.718 5.977-11.063 7.701-15.152 2.167-5.137 5.417-10.83 7.184-15.995 1.827-5.34 4.953-10.899 6.561-16.292.86-2.89 2.21-5.464 3.081-8.505.711-2.48 1.965-6.29 2.933-8.659 2.167-5.311 3.66-11.66 5.386-17.467 1.505-5.066 4.266-13.064 5.017-18.16.858-5.818 3.197-12.328 4.388-18.468.706-3.658 1.221-6.206 1.918-9.67.573-2.85 1.027-7.34 1.783-9.803 1.403-4.557 2.358-14.102 3.312-19.541 1.153-6.546 1.966-13.835 2.754-20.424.759-6.333 2.188-14.037 2.253-20.603.024-2.464.762-7.508.98-10.61.233-3.404.962-6.955.965-10.62l1.284-.645v-11.91c0-7.23 1.003-13.329.966-20.602-.033-6.351.69-13.823.957-20.612.522-13.41 1.625-28.134 1.622-41.832-.003-7.01 1.27-85.596 1.287-85.62v-76.929H211.627z"/><path fill="#fdfdfe" d="M687.145 363.146 304.025 471.62c-1.824 1.221-15.108 4.421-18.392 5.43-6.17 1.895-12.515 3.455-12.515 11.628v6.76c0 11.986.966 23.57.966 35.73 0 5.908.322 11.726.322 18.025 0 2.792-.314 6.378.376 8.636.533 1.745 2.628 4.562 4.774 4.562 4.237.002 9.678-2.229 13.527-3.213 2.577-.66 11.094-3.548 13.132-3.774l75.017-21.227 160.325-45.404 58.982-16.83c1.188 0 12.206-3.154 13.65-3.734 1.541-.622 5.003-1.434 6.762-1.93 2.518-.71 4.256-1.234 6.885-1.806 3.775-.82 9.231-2.73 13.46-3.925 4.743-1.338 9.105-2.529 13.79-3.916 18.236-5.4 36.165-10.237 54.463-15.397 9.148-2.582 17.957-5.172 27.108-7.66 13.816-3.753 12.511-6.422 12.287-22.134-.168-11.578-.632-22.753-.632-34.13 0-6.03-.32-10.976-.32-17.06 0-5.974.01-11.91-5.798-11.91h-.645c-3.388 0-22.694 5.946-27.162 7.282-3.977 1.191-24.741 7.523-27.242 7.523M244.788 202.528v26.396c0 1.314 1.399 3.54 2.575 3.54h519.625c2.188 0 3.22-1.64 3.22-3.863v-26.715c0-1.083-1.442-2.575-2.896-2.575H248.006c-1.618 0-3.218 1.599-3.218 3.217M497.524 517.674l-.007 337.95c0 .809 6.643 5.473 7.728 5.473.113 0 5.794-3.742 5.794-4.506l-.033-342.603zM548.71 504.13l.121 325.58 13.398-10.137V499.946c-1.98.044-5.007 1.19-6.953 1.738-1.256.354-6.566 1.188-6.566 2.446M600.019 788.162l13.721-12.044.01-290.624-13.797 3.717ZM446.055 531.983l-.048 285.657c0 .94 12.159 10.307 13.52 10.623l-.02-300.063zM651.372 475.022l.036 262.795c1.372-.919 13.844-15.21 13.844-16.095l-.035-250.555zM394.494 546.94l.139 228.06 13.705 12.064V542.435c-2.026.47-5.182 1.263-7.083 1.931-1.24.434-6.76 1.327-6.76 2.574M240.602 431.385c0 7.888 1.086 17.445 1.906 24.812.209 1.885.453 11.189 1.827 11.138 1.628-.06 10.112-2.23 10.112-3.438V242.12h-13.845zM305.636 450.376V242.12h-13.522v211.798ZM357.147 436.215V242.12h-13.842v197.957ZM702.937 460.735l-.013 208.52c1.66-1.913 13.52-22.64 13.52-24.784l-.04-187.477zM408.338 422.052V242.12h-13.844v183.472ZM343.303 560.45l.002 160.627c0 .86 12.5 15.194 13.844 16.095l.006-180.553zM446.006 411.429c1.93-.927 13.52-2.843 13.52-4.507V242.12h-13.52z"/><path fill="#0081c3" d="M381.616 462.609c.173 2.06 2.804 10.621 3.583 13.155 1.278 4.162 2.209 8.858 3.64 13.1 1.463 4.337 2.264 8.666 3.605 13.132.433 1.444 3.468 13.078 3.983 13.078 1.443 0 23.896-6.627 25.437-7.4 7.69-3.865 12.554-9.076 12.554-20.603 0-14.047-9.051-31.223-22.857-31.223h-3.541c-1.825 0-10.896 2.686-13.08 3.34-2.594.777-11.083 3.371-13.324 3.42"/><path fill="#fdfdfe" d="M497.519 397.267c1.513-.727 4.959-1.582 6.888-2.125 1.5-.425 6.632-.775 6.632-2.381V242.12h-13.52zM562.23 379.24V242.12h-13.52v140.662ZM613.74 365.079V242.12h-13.842V368.62ZM651.408 354.456c2.353-.547 4.6-1.472 7.057-1.957 1.367-.27 6.787-1.094 6.787-2.55V242.12h-13.844z"/><path fill="#0081c3" d="M458.885 457.458v5.15c0 13.185 11.765 27.681 25.434 27.681h2.253c5.895 0 12.691-2.93 16.429-5.14 2.312-1.368 11.258-8.078 11.258-10.632 0-1-2.233-8.292-2.703-10.172-.764-3.058-2.527-7.526-2.768-10.429-2.448.055-8.836 2.282-11.52 2.968-1.132.292-11.339 2.953-11.339 3.47 0 .848 1.997 8.368 2.576 8.368 3.189 0 8.569-2.822 11.84-2.876l1.682 6.416c-2.483 3.708-8.597 8.37-14.81 8.37h-.643c-10.992 0-16.742-11.878-16.742-22.853v-.965c0-7.19 7.528-13.197 15.131-13.197h2.897c1.976 0 6.533 3.417 7.136 5.581l10.25-4.938c-4.125-6.159-7.665-10.622-18.03-10.622h-.642c-6.57 0-15.393 3.644-18.912 6.842-3.983 3.617-8.777 9.624-8.777 16.978M619.859 396.623l-5.754 58.088 11.226-3.046.024-1.607.973-11.478 21.15-5.832-.076.356 7.892 10.264 11.25-2.967c-.245-.91-15.841-21.014-17.77-23.44-1.827-2.3-17.334-23.234-17.97-23.234-1.585-.001-8.506 2.842-10.945 2.896"/><path fill="#fdfdfe" d="M702.924 339.972c2.103 0 4.996-1.146 6.96-1.728 1.32-.393 6.559-1.12 6.559-2.456V242.12h-13.52v97.852z"/><path fill="#0081c3" d="M312.72 499.302v.644c0 7.906 2.901 16.515 6.347 21.013 3.365 4.39 9.757 10.21 17.155 10.21h3.863c10.947 0 22.215-9.51 22.215-20.6v-3.542h-10.947c0 8.176-3.25 14.486-11.268 14.484h-1.609c-9.382 0-14.81-13.506-14.81-22.854v-2.575c0-5.681 5.968-11.264 11.913-11.264h1.609c6.303 0 8.906 5.793 9.336 5.793.598 0 8.79-4.568 9.659-5.149-2.68-5.064-9.048-10.623-16.742-10.623h-1.609c-13.657 0-25.113 10.435-25.113 24.463M535.829 437.18v2.253c0 7.662 3.827 16.284 7.212 20.795 3.865 5.155 10.247 9.14 19.188 9.14 13.694 0 23.5-9.893 23.5-24.142h-11.265v2.253c0 6.948-4.878 12.232-11.915 12.232h-.64c-5.68 0-9.505-4.154-11.278-8.04-1.306-2.86-4.281-11.133-3.937-15.464l.404-4.5c1.816-2.71 1.505-3.852 4.442-6.177 1.729-1.367 5.13-2.836 8.115-2.836h1.287c2.945 0 7.727 3.702 8.504 6.357l9.846-5.712c-3.29-4.916-8.301-10.301-16.417-10.301h-1.289c-14.094 0-25.757 10.026-25.757 24.142"/><path fill="#fdfdfe" d="m292.14 574.711-.026 69.436c0 1.778 12.288 23.559 13.522 24.465l.03-97.745zM767.954 322.27v-80.15h-13.842v83.689Z"/><path fill="#0081c3" d="M674.322 381.688c.094 1.58.888 4.414 1.436 6.04 1.161 3.435-.143 3.312 4.186 2.014 2.457-.736 10.502-3.267 12.153-3.364l4.338 16.399.48.987 7.296 26.012c1.17-.274 10.3-2.645 10.3-3.22 0-1.954-4.745-18.264-5.671-21.367-.798-2.666-5.916-19.827-5.916-21.122l.059-.738 15.238-4.135-2.438-9.035z"/><path fill="#fdfdfe" d="m394.816 468.724 9.337 34.441c2.077-.046 11.47-2.83 13.091-3.648 4.197-2.116 6.225-4.37 6.225-10.515 0-4.849-2.253-11.814-3.815-15.177-2.027-4.361-4.72-8.32-10.997-8.32-4.748 0-9.794 2.882-13.84 3.219M754.116 446.537l-.006 89.781c1.312-2.071 7.369-39.522 8.06-45.375.88-7.482 2.458-15.965 2.887-23.828.207-3.784 1.124-7.86 1.283-11.915.098-2.353.804-10.135 1.247-12.391zM628.55 409.498l-1.299 19.267 14.026-3.939-12.422-17.159-.304.222Z"/><path fill="#0081c3" d="M446.328 490.933c0 .778 2.266 9.014 2.558 9.595l10.071-2.534-2.65-10.28c-1.322.11-9.98 2.551-9.98 3.22M669.438 428.492c0 1.582 1.326 5.854 1.814 7.519 1.048 3.605 1.848 2.468 5.784 1.36 3.838-1.08 5.268-.381 4.45-3.865-.626-2.662-1.467-5.012-2.097-7.71zM523.275 469.046l2.575 9.977c2.715-.226 5.07-1.403 7.416-1.916 4.322-.946 2.226-2.057 1.344-5.554-.89-3.523-.181-5.696-3.806-4.634-2.645.775-4.819 1.495-7.53 2.127M596.36 448.782l2.57 9.963c1.184 0 9.645-2.288 9.877-2.706.303-.555-2.185-8.617-2.494-9.938zM375.817 520.85l10.02-2.889-2.639-10.07-9.918 2.798Z"/></g></svg>