<svg height="1000" viewBox="0 0 1000 1000" width="1000" xmlns="http://www.w3.org/2000/svg"><g transform="matrix(1.6224368 0 0 1.6224368 8.189232 12.325524)"><path d="m 547.591 285.826 c -13.082 -19.884 -24.377 -37.057 -24.83 -62.458 c -.677 -37.822 18.774 -69.883 61.207 -100.898 l 4.319 -3.158 l -67.664 -111.5 H 517.342 H 84.188 l -67.663 111.5 l 4.32 3.158 c 42.434 31.016 61.882 63.076 61.208 100.898 c -.454 25.4 -11.751 42.573 -24.831 62.458 c -6.346 9.648 -12.911 19.624 -18.792 31.342 c -11.85 23.604 -18.409 53.976 -18.474 85.525 c -.103 50.505 13.171 87.341 40.573 112.605 c 25.937 23.91 63.66 38.067 126.141 47.327 c 39.608 5.876 84.262 13.455 112.933 29.189 l 2.804 1.537 l 2.804 -1.537 c 28.67 -15.734 73.325 -23.313 112.932 -29.189 c 62.482 -9.264 100.205 -23.417 126.142 -47.327 c 27.401 -25.264 40.673 -62.1 40.57 -112.605 c -.06 -31.547 -6.623 -61.921 -18.473 -85.525 c -5.881 -11.718 -12.444 -21.694 -18.791 -31.342 z" fill="#034ea2"/><path d="m 185.474 75.682 l -.553 16.045 v 0 c -2.511 1.227 -5.243 2.147 -8.193 2.761 c -2.95 .613 -6.176 .918 -9.696 .918 c -9.663 0 -17.417 -2.671 -23.257 -8.016 c -5.856 -5.343 -8.776 -12.396 -8.776 -21.157 c 0 -3.824 .644 -7.385 1.928 -10.716 c 1.284 -3.313 3.183 -6.321 5.694 -8.993 c 3.299 -3.549 7.299 -6.178 11.973 -7.916 c 4.672 -1.738 10.089 -2.613 16.251 -2.613 c 1.973 0 4.116 .101 6.468 .306 c 2.335 .192 4.877 .512 7.608 .935 v 0 l -.776 15.14 h -1.577 v 0 c -.058 -.145 -.159 -.377 -.308 -.729 c -2.043 -5.3 -3.341 -8.205 -3.882 -8.717 c -.629 -.569 -1.724 -1.051 -3.27 -1.431 c -1.564 -.394 -3.287 -.586 -5.169 -.586 c -6.265 0 -11.156 2.176 -14.645 6.529 c -3.488 4.351 -5.241 10.454 -5.241 18.324 c 0 7.329 1.81 13.243 5.43 17.741 c 3.622 4.482 8.335 6.729 14.118 6.729 c 2.119 0 3.972 -.276 5.564 -.816 c 1.592 -.541 2.832 -1.33 3.724 -2.351 c .831 -.949 2.351 -4.381 4.57 -10.325 v 0 l .438 -1.065 h 1.577 z m 8.28 12.965 c 0 -1.941 .657 -3.563 1.969 -4.876 c 1.314 -1.314 2.922 -1.971 4.834 -1.971 c 1.943 0 3.563 .657 4.876 1.971 c 1.316 1.313 1.973 2.935 1.973 4.876 c 0 1.854 -.672 3.447 -2.017 4.775 c -1.344 1.328 -2.95 1.984 -4.832 1.984 c -1.856 0 -3.447 -.657 -4.79 -1.984 c -1.343 -1.328 -2.013 -2.921 -2.013 -4.775 z m 66.828 5.52 v -1.534 l .423 -.174 v 0 c 4.366 -1.475 7.096 -3.109 8.177 -4.877 c 1.679 -2.761 4.83 -8.953 9.432 -18.574 c 4.598 -9.606 9.608 -20.558 14.995 -32.851 v 0 h 8.175 v 0 c 4.643 12.354 9.052 23.405 13.23 33.174 c 4.174 9.783 7.152 16.163 8.917 19.156 c .835 1.416 3.114 2.729 6.85 3.927 c .235 .058 .424 .131 .598 .219 v 0 l -.04 1.534 v 0 c -3.084 -.263 -5.872 -.453 -8.369 -.585 c -2.496 -.117 -4.689 -.189 -6.557 -.189 c -2.424 0 -5.065 .072 -7.912 .189 c -2.859 .132 -5.912 .321 -9.155 .585 v 0 l -.044 -1.578 v 0 c 3.301 -.932 5.536 -1.709 6.688 -2.293 c 1.154 -.583 1.737 -1.211 1.737 -1.896 c 0 -.453 -.378 -1.752 -1.109 -3.9 c -.741 -2.131 -1.753 -4.79 -3.009 -7.957 v 0 h -21.9 v 0 c -1.679 3.738 -2.863 6.527 -3.548 8.367 c -.684 1.842 -1.022 3.11 -1.022 3.826 c 0 .715 .629 1.372 1.897 1.971 c 1.27 .598 3.328 1.225 6.19 1.882 v 0 v 1.578 v 0 c -2.773 -.232 -5.226 -.396 -7.388 -.51 c -2.147 -.119 -4.132 -.176 -5.958 -.176 c -1.151 0 -2.613 .043 -4.395 .145 c -1.779 .103 -4.084 .277 -6.903 .541 z m 23.829 -23.48 h 16.981 v 0 c -1.139 -2.933 -2.367 -6.029 -3.682 -9.256 c -1.313 -3.241 -2.758 -6.729 -4.366 -10.466 c -1.563 3.444 -3.735 8.218 -6.497 14.292 v 0 z m 51.436 17.96 c 0 -1.941 .662 -3.563 1.973 -4.876 c 1.314 -1.314 2.922 -1.971 4.835 -1.971 c 1.94 0 3.564 .657 4.878 1.971 c 1.312 1.313 1.972 2.935 1.972 4.876 c 0 1.854 -.674 3.447 -2.018 4.775 c -1.346 1.328 -2.95 1.984 -4.832 1.984 c -1.855 0 -3.449 -.657 -4.789 -1.984 c -1.344 -1.328 -2.019 -2.921 -2.019 -4.775 z m 78.466 5.52 v -1.666 v 0 c 2.85 -.831 5.129 -1.678 6.821 -2.539 c 1.692 -.877 2.641 -1.667 2.846 -2.38 c .235 -.804 .381 -2.468 .471 -5.008 c .084 -2.541 .129 -6.862 .129 -12.996 v 0 v -8.513 v 0 c 0 -.057 -.015 -2.03 -.045 -5.913 c -.029 -3.882 -.044 -7.723 -.044 -11.549 c -.305 0 -.8 -.014 -1.442 -.044 c -2.207 -.086 -3.724 -.131 -4.588 -.131 c -2.54 0 -4.555 .06 -6.045 .19 c -1.503 .132 -2.422 .307 -2.761 .54 c -.538 .367 -1.572 2.467 -3.078 6.293 c -.483 1.254 -.878 2.249 -1.154 2.992 v 0 h -1.328 l .085 -15.872 v 0 c 2.282 .265 5.784 .454 10.528 .585 c 4.734 .132 10.31 .189 16.72 .189 c 6.192 0 11.592 -.057 16.237 -.189 c 4.63 -.131 8.089 -.32 10.365 -.585 v 0 l .088 15.872 h -1.287 v 0 c -.271 -.744 -.682 -1.738 -1.194 -2.992 c -1.504 -3.827 -2.543 -5.927 -3.081 -6.293 c -.307 -.233 -1.226 -.408 -2.729 -.54 c -1.521 -.13 -3.521 -.19 -6.031 -.19 c -.895 0 -2.426 .045 -4.631 .131 c -.643 .03 -1.138 .044 -1.444 .044 c 0 2.25 -.013 5.795 -.043 10.644 c -.028 4.847 -.045 8.572 -.045 11.169 c 0 9.537 .059 15.536 .176 18.032 c .114 2.498 .323 4.003 .643 4.512 c .393 .716 1.445 1.49 3.152 2.323 c 1.725 .816 3.841 1.561 6.381 2.218 v 0 v 1.666 v 0 c -3.049 -.232 -5.982 -.396 -8.787 -.51 c -2.819 -.119 -5.523 -.176 -8.103 -.176 c -2.458 0 -5.053 .057 -7.799 .176 c -2.733 .114 -5.726 .277 -8.983 .51 z m 41.85 -5.52 c 0 -1.941 .657 -3.563 1.969 -4.876 c 1.315 -1.314 2.922 -1.971 4.834 -1.971 c 1.943 0 3.561 .657 4.879 1.971 c 1.311 1.313 1.972 2.935 1.972 4.876 c 0 1.854 -.673 3.447 -2.018 4.775 c -1.343 1.328 -2.95 1.984 -4.833 1.984 c -1.854 0 -3.442 -.657 -4.788 -1.984 c -1.347 -1.328 -2.015 -2.921 -2.015 -4.775 z" fill="#fff"/><path d="m 214.295 117.762 v 437.401 c 20.527 3.459 40.66 7.606 58.74 13.288 V 117.762 Z" fill="#fffffd"/><path d="m 331.777 117.762 v 450.689 c 18.079 -5.682 38.213 -9.829 58.741 -13.288 V 117.762 Z" fill="#fffffd"/><path d="m 96.814 117.762 v 408.301 c 15.642 7.885 34.796 14.127 58.74 19.203 V 117.762 Z" fill="#fffffd"/><path d="M 449.256 117.762 V 545.266 C 473.201 540.19 492.354 533.948 508 526.063 V 117.762 Z" fill="#fffffd"/><path d="M 302.31 593.122" fill="#fff"/></g></svg>