<svg height="1000" viewBox="0 0 1000 1000" width="1000" xmlns="http://www.w3.org/2000/svg"><g transform="matrix(10.547557 0 0 10.547557 -357.28665 -135.55491)"><g><path clip-rule="evenodd" d="m 83.027 21.56 c .199 .588 .302 1.207 .302 1.829 c 0 3.142 -2.546 5.689 -5.688 5.689 c -3.141 0 -5.688 -2.547 -5.688 -5.689 c 0 -3.069 2.438 -5.586 5.505 -5.685 c -.093 .155 -.212 .161 -.252 .239 c -.119 .237 .115 .596 .27 .873 c .205 .371 1.071 .618 1.071 .618 l 2.102 .206 c 0 0 1.236 -.494 1.236 -.041 c 0 .453 -.907 .783 -.577 .989 c .329 .206 .618 1.277 .741 2.019 c .124 .742 .783 .948 .783 .948 z" fill-rule="evenodd" stroke="#000" stroke-miterlimit="2.6131" stroke-width=".1365"/><path clip-rule="evenodd" d="m 79.927 25.945 c 0 0 -1.03 .412 -.7 .948 c .329 .536 .906 .907 1.442 .701 c .536 -.206 1.896 -1.071 2.06 -1.648 C 82.894 25.369 82.4 24.627 82.4 24.627 Z" fill="#c9252f" fill-rule="evenodd"/><path clip-rule="evenodd" d="m 76.692 23.02 c 0 0 .701 -.454 1.113 -.083 c .412 .372 .99 .907 .99 .907 c 0 0 .494 .413 .453 .824 c -.042 .413 -.206 1.071 -.206 1.071 l -1.195 -.783 z" fill="#f49530" fill-rule="evenodd"/><path d="m 77.352 19.064 c 0 0 .906 .947 .906 1.237 c 0 .288 -.453 1.442 -.659 1.689 c -.206 .247 -1.566 .577 -1.566 .577 z" style="clip-rule:evenodd;fill:#f49530;fill-rule:evenodd;stroke:#000;stroke-width:.1365;stroke-miterlimit:2.6131"/><path clip-rule="evenodd" d="m 47.402 45.285 c -.208 7.203 3.622 9.201 3.622 9.201 l 2.997 2.207 c 1.417 1.665 11.117 3.164 11.117 3.164 l 1.416 -.833 l 9.24 3.083 c 3.666 19.872 10.962 23.858 10.962 23.858 l .608 -1.006 l 1.514 -4.936 l 1.75 -9.833 l -.334 -10.334 l -3.001 -6.833 l -6.166 -9.25 c 0 0 -16.167 -10.167 -17.417 -11 c -1.25 -.833 -6.334 -2.25 -6.334 -2.25 c 0 0 -5.346 3.62 -8.674 9.85 c -.094 .176 -.187 .63 -.116 1.233 c .118 1.005 .299 2.427 -1.184 3.679 z" fill="#f49530" fill-rule="evenodd"/><path clip-rule="evenodd" d="M 93.321 71.054 C 97.341 43.29 70.238 29.109 69.534 28.736 c 3.31 .897 7.209 2.165 12.636 2.764 c 1.396 -1.381 2.642 -3.99 3.299 -5.34 c 0 0 14.635 15.776 7.852 44.894 z" fill="#f49530" fill-rule="evenodd"/><path clip-rule="evenodd" d="m 50.672 56.023 c -2.629 -1.639 -4.504 -3.961 -5.284 -6.874 c -2.356 -8.804 6.192 -19.665 19.089 -24.255 c 1.545 -.551 3.083 -.985 4.598 -1.31 c -.179 -.428 -.271 -.856 -.174 -1.284 c -2.44 -.1 -3.81 -.228 -6.105 -.707 c -14.561 4.786 -22.953 17.241 -20.413 26.79 c 1.098 4.131 4.314 6.853 8.592 8.602 c -.169 -.313 -.256 -.634 -.303 -.962 z" fill="#27965a" fill-rule="evenodd"/><path clip-rule="evenodd" d="M 86.766 85.95 C 106.631 48.462 66.002 29.586 66.002 29.586 c 0 0 -.315 -.116 -.758 .011 c -3.445 .879 -5.224 4.158 -5.224 4.158 c 0 0 40.39 10.252 26.746 52.195 z" fill="#c9252f" fill-rule="evenodd"/><path clip-rule="evenodd" d="m 94.39 75.209 c 10.233 -27.728 -5.033 -47.533 -5.033 -47.533 c 0 0 6.602 3.508 8.376 5.528 l 1.691 1.898 c 0 .001 8.005 18.981 -5.034 40.107 z" fill="#27965a" fill-rule="evenodd"/><path clip-rule="evenodd" d="m 72.985 52.078 c -11.036 4.19 -14.391 1.15 -14.391 1.15 c 0 0 -1.434 -1.039 .105 -2.411 c 1.537 -1.371 8.021 -4.904 9.205 -6.878 c 2.534 -6.03 -1.361 -8.014 -1.963 -8.201 c -.603 -.187 -.624 .458 -.624 .458 l -.062 1.601 c -2.199 4.647 -8.769 8.596 -10.346 9.281 c -1.578 .686 -2.864 .686 -2.761 0 c .104 -.685 2.657 -.83 2.636 -2.036 c -.021 -1.205 -5.109 -3.491 -6.021 -3.782 c -.911 -.289 -1.357 .715 -1.357 .715 c -.498 .643 -.54 1.056 -.582 2.238 c -.042 1.182 1.836 3.133 2.501 4.38 c .665 1.247 .332 3.782 1.538 7.897 c 1.196 4.083 8.458 7.607 10.307 8.687 c 1.85 1.081 2.151 1.673 2.151 2.422 c 0 .125 .214 .233 .241 .387 c .02 .119 -.103 .231 -.049 .333 c .031 .059 .069 .112 .115 .156 c .212 .206 .506 .205 .77 .141 c .203 -.05 .348 -.101 .461 -.362 c .366 -.839 .384 -1.134 -.545 -2.343 c -.13 -.169 -.402 -.356 -.566 -.567 c -.644 -.826 -2.298 -1.718 -3.902 -2.673 c -1.708 -1.017 -3.37 -2.1 -4.078 -3.063 c -.461 -.628 -.557 -1.274 -.556 -1.885 c .002 -1.211 .561 -2.291 .681 -2.854 c .182 -.846 .457 -.498 .665 -.456 c .208 .042 1.497 .997 2.41 2.036 c .915 1.04 2.744 2.661 3.367 2.744 c .624 .083 2.764 .915 6.92 2.536 c 4.156 1.621 9.333 1.038 10.702 .913 c 1.37 -.124 .707 2.079 .707 2.079 c -1.663 7.98 -2.618 23.399 -2.618 23.399 l .041 1.288 l .645 .022 c 1.464 -3.015 2.784 -6.31 4.158 -9.645 c 1.037 -2.513 2.142 -5.032 3.162 -7.571 c .792 -1.971 1.546 -3.967 2.355 -5.869 c .353 -.83 .457 -1.977 .457 -2.163 c 0 -.187 .103 -.562 .332 -.998 c .229 -.438 -.047 -1.821 -.216 -2.144 c -.172 -.322 -.388 -.894 -.351 -1.454 c .038 -.561 .018 -.701 .018 -1.241 c 0 -.539 -.669 -.899 -1.251 -.899 c -.582 0 -2.935 -.501 -2.935 -.501 c 0 0 -5.128 -.208 -4.277 -2.744 c .853 -2.537 .27 -1.396 .684 -3.306 c .416 -1.908 3.92 -2.697 3.92 -2.697 c 0 0 1.197 -.186 2.604 -.75 c .902 -.362 1.892 -.953 2.707 -1.51 c 2.087 -1.426 3.275 -.976 6.192 -3.454 c 2.956 -2.514 3.449 -7.439 3.449 -7.439 c 0 0 .249 -2.161 0 -5.069 c -.25 -2.91 -2.287 -3.41 -2.287 -3.41 c .146 1.662 .124 3.223 -.005 4.664 c -3.947 10.323 -19.361 14.615 -19.361 14.5 c 0 -.114 -4.875 1.576 -5.457 2.447 c -.58 .872 .955 1.454 .955 1.454 c 0 0 1.849 .973 -.6 2.447 z" fill-rule="evenodd"/><path d="m 111.342 15.222 v 0 v .002 c 2.555 0 4.867 1.035 6.54 2.708 c 1.672 1.673 2.706 3.984 2.707 6.539 h .002 v 0 v .001 h -.002 c 0 2.555 -1.035 4.867 -2.708 6.54 c -1.672 1.672 -3.983 2.708 -6.538 2.708 v .002 h -.001 h -.001 V 33.72 c -2.555 0 -4.867 -1.035 -6.539 -2.708 c -1.674 -1.673 -2.708 -3.985 -2.708 -6.538 h -.002 v -.002 v 0 h .002 c 0 -2.555 1.034 -4.867 2.708 -6.54 c 1.672 -1.672 3.984 -2.707 6.538 -2.707 v -.002 h .002 z m 1.891 12.669 c .001 .007 .275 2.374 1.736 3.993 c .82 -.403 1.565 -.939 2.206 -1.579 c 1.493 -1.494 2.418 -3.557 2.418 -5.833 h -.002 v -.001 v 0 h .002 c 0 -2.276 -.925 -4.338 -2.418 -5.832 c -.979 -.979 -2.2 -1.713 -3.566 -2.103 c .728 1.788 2.217 6.598 -.376 11.355 z m 1.017 4.304 c -.926 -1.123 -1.382 -2.49 -1.592 -3.357 c -.825 1.237 -1.948 2.455 -3.46 3.602 c .684 .184 1.401 .282 2.143 .282 V 32.72 h .001 h .001 v .002 c 1.023 .001 2.002 -.185 2.907 -.527 z m -5.923 -.041 l .027 -.02 c 1.345 -1.577 1.911 -3.347 1.818 -4.981 c -.043 -.756 -.228 -1.483 -.541 -2.148 c -.313 -.666 -.756 -1.269 -1.315 -1.774 c -1.124 -1.018 -2.725 -1.654 -4.709 -1.642 c -.335 .897 -.518 1.868 -.518 2.882 h .002 v 0 v .002 h -.002 c 0 2.275 .923 4.338 2.418 5.832 c .797 .796 1.755 1.43 2.82 1.849 z m 2.563 -2.266 c 1.539 -1.713 2.369 -3.508 2.764 -5.216 c -.236 .162 -.522 .257 -.831 .257 v .002 h -.001 h -.001 v -.002 c -.334 0 -.643 -.112 -.89 -.299 c .145 1.611 -.149 3.275 -.838 4.826 c -.065 .146 -.132 .289 -.203 .432 z m 2.679 -11.033 c -.297 -1.246 -.688 -2.152 -.861 -2.523 c -.444 -.075 -.901 -.113 -1.366 -.113 v .002 v 0 h -.002 v -.002 c -1.631 0 -3.151 .475 -4.433 1.294 c .7 .354 1.324 .762 1.874 1.211 c .606 -.572 1.426 -.923 2.327 -.923 v -.002 h .001 v 0 v .001 c .938 0 1.788 .38 2.402 .994 v .001 c .019 .02 .04 .04 .058 .06 z m -4.226 .367 c .085 .083 .169 .167 .249 .251 c .926 .965 1.57 2.073 1.952 3.25 c .064 -.113 .145 -.217 .237 -.309 c .265 -.265 .632 -.43 1.039 -.43 v -.001 h .001 v 0 v .001 c .271 0 .526 .074 .744 .202 c .017 -.041 .032 -.081 .046 -.123 v -.001 c .013 -.035 .025 -.074 .038 -.116 c .072 -.244 .108 -.495 .109 -.749 h -.002 v -.002 v -.001 h .002 c -.001 -.73 -.298 -1.392 -.776 -1.872 l -.001 .001 c -.479 -.48 -1.142 -.777 -1.872 -.777 v .002 v 0 h -.001 v -.002 c -.678 0 -1.296 .256 -1.765 .676 z m 1.585 8.458 c .267 -1.023 .354 -2.069 .25 -3.089 c -.023 .001 -.047 .001 -.068 .001 v 0 v -.002 c -.315 0 -.62 -.043 -.909 -.122 c .037 .071 .073 .145 .107 .217 c .354 .751 .563 1.573 .612 2.427 c .01 .188 .013 .378 .008 .568 z m .137 -3.836 c -.278 -1.403 -.938 -2.733 -2.012 -3.852 c -.063 -.066 -.127 -.131 -.192 -.195 c -.255 .407 -.401 .886 -.401 1.399 h .001 v 0 v .002 h -.001 c 0 .729 .297 1.391 .776 1.871 v -.001 c .472 .47 1.117 .764 1.829 .776 z m -2.768 -4.552 c -.598 -.487 -1.29 -.921 -2.081 -1.286 c -.248 .196 -.485 .407 -.708 .63 c -.64 .641 -1.176 1.386 -1.579 2.207 c 1.504 .041 2.804 .433 3.861 1.071 c -.05 -.232 -.076 -.472 -.076 -.718 h -.002 v -.002 v 0 h .002 c 0 -.705 .214 -1.36 .583 -1.902 z m 4.524 3.439 v 0 v 0 v 0 v 0 c -.201 0 -.382 .082 -.514 .214 c -.131 .13 -.212 .312 -.212 .512 h .001 v 0 v .001 h -.001 c 0 .2 .081 .381 .213 .513 c .131 .131 .312 .212 .512 .212 v -.001 h .001 h .001 v .001 c .199 0 .381 -.081 .512 -.213 c .132 -.131 .213 -.312 .213 -.512 h -.002 v 0 v 0 h .002 c 0 -.2 -.082 -.381 -.213 -.513 c -.132 -.133 -.313 -.214 -.513 -.214 z" fill="#265194"/><path clip-rule="evenodd" d="m 102.664 77.458 c 18.38 -19.201 18.018 -45.802 17.979 -47.414 c -1.804 3.002 -5.019 5.061 -8.727 5.255 c .338 1.8 3.662 21.657 -9.252 42.159 z" fill="#0071b0" fill-rule="evenodd"/><path d="m 120.609 47.323 v 57.899 H 44.088 c 0 0 -2.031 -1.862 -2.031 -3.047 c 0 -1.185 0 -3.894 0 -3.894 h 17.607 c 0 0 48.593 .171 60.945 -50.958 z" style="clip-rule:evenodd;fill:#564d94;fill-rule:evenodd;stroke:#265194;stroke-width:.1365;stroke-miterlimit:2.6131"/><path clip-rule="evenodd" d="m 88.402 85.785 c 0 0 13.563 -12.202 15.137 -27.637 c 1.53 18.794 -15.137 27.637 -15.137 27.637 z" fill="#265194" fill-rule="evenodd"/><path clip-rule="evenodd" d="M 93.188 53.178 C 90.713 39.073 75.227 30.279 75.227 30.279 c 2.239 .549 4.822 .999 6.939 1.236 c .705 -.778 1.438 -1.847 1.961 -2.751 c 0 0 7.658 10.391 9.061 24.414 z" fill-rule="evenodd"/><path d="m 48.222 78.516 c .061 .211 .159 .553 .295 .841 c .889 1.872 1.643 3.686 1.977 5.857 c -.68 .038 -1.628 -.019 -2.311 -.03 c -.061 -.28 -.363 -1.429 -.413 -1.832 c -.289 -.058 -1.093 -.038 -1.754 -.063 c -.166 .363 -.559 1.528 -.69 1.924 c -.79 .054 -1.3 -.12 -2.092 -.164 c .536 -1.249 .867 -2.727 1.549 -4.031 c .466 -.892 .803 -1.731 1.37 -2.479 c .941 -.133 1.121 -.075 2.069 -.023 z m -1.774 3.505 c .319 .147 .754 .397 1.275 .184 c -.054 -.355 -.343 -1.207 -.661 -1.748 c -.244 .537 -.529 1.182 -.614 1.564 z m 4.076 2.735 c -.043 -.839 .244 -2.647 .44 -4.025 c .143 -1.005 .16 -1.779 .345 -1.779 c .751 0 2.725 -.217 3.861 -.363 c .016 .742 -.043 .57 -.181 1.391 c -.935 .058 -1.486 .094 -2.177 .259 l -.017 .979 c .168 .009 .208 -.028 .369 -.028 c .602 0 1.116 .111 1.546 .082 c -.063 .47 -.003 .254 -.026 1.008 l -1.798 .229 c -.005 .592 .049 1.977 .12 2.827 c -.829 -.025 -1.762 -.163 -2.482 -.58 z m 7.866 -2.543 l 2.413 2.401 c -.157 .043 -.442 .347 -.65 .432 c -.458 .188 -1.05 .233 -1.158 .259 c -.221 -.337 -1.364 -1.866 -1.69 -2.473 c .061 .416 .392 1.986 .416 2.435 c -.508 -.018 -1.398 .009 -2.104 -.045 l .009 -3.131 c 0 -.05 -.002 -.14 -.004 -.273 l -.048 -2.322 l -.008 -.865 c .344 .009 .588 .013 .732 .013 c .589 0 1.068 -.016 1.439 -.045 c .158 -.01 .254 -.016 .286 -.016 c .217 0 .441 .07 .675 .217 c .235 .144 .586 .305 .828 .671 c .946 1.434 -.505 2.28 -1.136 2.742 z m -1.319 -2.437 l .021 1.457 c .32 .017 .725 -.186 1.048 -.448 c .159 -.129 .057 -.603 .011 -.705 c -.134 -.287 -.782 -.262 -1.08 -.304 z m 4.173 -1.175 l 1.65 .042 c .08 1.24 .642 5.275 .847 6.635 c -.698 .008 -1.302 .108 -1.796 -.087 c -.239 -.094 -.503 -.182 -.772 -.318 c -.058 -1.994 -.087 -4.328 .071 -6.272 z m 6.867 1.42 c -1.124 -.077 -2.801 .976 -2.331 2.204 c .388 1.016 1.223 1.429 2.467 1.37 c -.015 .069 -.365 1.363 -.476 1.674 c -.035 .094 -.086 .075 -.191 .078 c -.428 .01 -1.356 -.303 -1.675 -.417 c -1.653 -.583 -2.738 -2.262 -2.043 -4.032 c .143 -.366 .328 -.687 .553 -.961 c .224 -.274 .462 -.516 .732 -.684 c .967 -.604 1.529 -.698 2.747 -.864 c .163 -.022 .09 .813 .217 1.632 z m 5.29 -1.443 c 1.04 2.414 1.777 4.608 2.275 6.553 c -.723 .041 -1.44 .148 -2.166 .137 c -.06 -.28 -.343 -1.535 -.393 -1.939 c -.288 -.059 -1.281 -.08 -1.942 -.105 c -.166 .364 -.477 1.574 -.608 1.97 c -.873 .059 -1.338 -.096 -2.214 -.145 c .755 -1.885 1.434 -4.263 2.88 -6.45 c .719 -.101 1.446 -.06 2.168 -.021 z m -1.856 3.526 c .43 -.068 .92 .098 1.287 .154 c -.15 -.331 -.354 -1.292 -.547 -1.863 c -.147 .537 -.588 1.328 -.74 1.709 z" fill="#c9252f"/><path clip-rule="evenodd" d="m 66.674 89.947 c 0 1.644 -.952 3.13 -2.596 3.13 c -1.349 0 -2.588 -.98 -2.889 -2.267 c -.091 -.389 -.09 -1.316 -.022 -1.712 c .168 -.999 .901 -1.839 1.828 -2.165 c 1.948 -.686 3.679 1.089 3.679 3.014 z m -2.653 -1.421 c .664 0 1.003 .483 1.003 1.146 c 0 .664 -.276 1.226 -.94 1.226 c -.663 0 -1.277 -.665 -1.277 -1.328 c -.001 -.664 .549 -1.044 1.214 -1.044 z" fill-rule="evenodd"/><path clip-rule="evenodd" d="m 75.937 89.947 c 0 1.644 -.952 3.13 -2.596 3.13 c -1.349 0 -2.588 -.98 -2.89 -2.267 c -.091 -.389 -.089 -1.316 -.022 -1.712 c .168 -.999 .903 -1.839 1.829 -2.165 c 1.947 -.686 3.679 1.089 3.679 3.014 z m -2.655 -1.421 c .664 0 1.004 .483 1.004 1.146 c 0 .664 -.276 1.226 -.94 1.226 c -.664 0 -1.277 -.665 -1.277 -1.328 c -.001 -.664 .55 -1.044 1.213 -1.044 z" fill-rule="evenodd"/><path clip-rule="evenodd" d="m 58.967 73.61 c 0 1.866 -1.017 3.317 -2.737 3.317 c -1.411 0 -2.873 -1.025 -3.188 -2.371 c -.096 -.406 -.094 -1.376 -.024 -1.789 c .177 -1.045 1.109 -1.925 2.079 -2.266 c 2.037 -.717 3.87 1.244 3.87 3.109 z m -2.798 -1.608 c .694 0 1.05 .671 1.05 1.365 c 0 .694 -.289 1.323 -.984 1.323 c -.693 0 -1.502 -.736 -1.502 -1.431 c 0 -.694 .742 -1.257 1.436 -1.257 z" fill-rule="evenodd"/><path clip-rule="evenodd" d="m 52.646 71.58 l -.527 -1.491 c 0 0 -.233 .004 -.587 .028 c -1.522 .103 -3.323 .549 -4.064 2.02 c -.185 .369 -.099 .772 .384 1.059 c .911 .538 1.957 1.057 2.402 1.45 c .445 .394 .165 1.015 -.622 .766 c -.786 -.248 -1.563 -.745 -1.895 -.745 c -.331 0 -.424 .187 -.383 .519 c .016 .123 -.003 .376 .023 .643 c .044 .445 .703 .962 1.376 .962 c 1.315 0 2.507 .504 3.421 -.662 c 1.44 -1.835 -2.49 -3.816 -2.46 -3.842 c .332 -.29 1.399 -.798 2.186 -.675 c .736 .02 .746 -.032 .746 -.032 z" fill-rule="evenodd"/><path clip-rule="evenodd" d="m 59.15 70.73 c 0 0 .146 -.353 .478 -.353 c .332 0 1.204 0 1.204 0 l .311 4.055 c 0 0 0 .374 .603 .581 c .602 .208 1.267 .063 1.371 -.331 c .104 -.396 -.166 -4.43 -.166 -4.43 c 0 0 1.204 -.083 1.432 .374 c .229 .457 .582 6.093 .582 6.093 c 0 0 -1.08 .498 -1.246 .436 c -.167 -.063 -.187 -.686 -.187 -.686 c 0 0 -.27 -.146 -.415 .042 c -.146 .186 -1.412 .728 -2.575 .186 C 59.379 76.156 59.4 76.136 59.4 76.136 Z" fill-rule="evenodd"/><path clip-rule="evenodd" d="m 65.483 70.315 c .711 .112 1.048 .078 1.749 -.093 l 2.446 -.074 l -.063 1.123 l -1.475 .104 l .333 5.468 c 0 0 -2.051 .271 -2.216 .166 c -.167 -.104 -.104 -.644 -.104 -.644 l .327 -4.637 c 0 0 -1.578 .437 -1.495 .104 c .083 -.331 .498 -1.517 .498 -1.517 z" fill-rule="evenodd"/><path clip-rule="evenodd" d="m 70.143 70.479 l 1.825 -.021 l -.144 2.361 c -.001 .007 1.016 .056 1.598 -.086 c .202 -.05 -.063 -1.819 .103 -2.048 c .166 -.228 1.141 -.228 1.327 -.228 c .187 0 .332 .312 .332 .58 c 0 .623 .484 5.83 .311 5.83 c -.27 0 -1.846 0 -1.846 0 c .01 -.335 .157 -2.237 -.08 -2.435 c -.109 -.093 -.376 -.034 -.584 -.034 c -.332 0 -1.038 0 -1.038 0 l .104 2.759 l -2.137 -.062 c -.233 -.004 .029 -5.471 .229 -6.616 z" fill-rule="evenodd"/><path clip-rule="evenodd" d="m 56.77 88.75 l -.458 -1.125 c 0 0 1.623 -.915 2.581 -.998 c .958 -.084 2.332 .457 2.123 1.873 c -.208 1.415 -3.247 2.789 -3.247 2.789 l 2.706 .25 c 0 0 .167 .708 .375 .916 c .208 .208 .125 .333 -.249 .458 c -.375 .125 -3.623 .374 -4.206 .333 c -.583 -.042 -.999 -.25 -.999 -.25 c 0 0 -.25 -1.832 .874 -2.664 c 1.125 -.833 2.54 -1.374 2.707 -1.708 c .167 -.332 .125 -.457 -.458 -.332 c -.584 .124 -1.749 .458 -1.749 .458 z" fill-rule="evenodd"/><path clip-rule="evenodd" d="m 69.635 86.71 c 0 0 0 -.375 -.375 -.291 c -.375 .083 -1.832 .291 -2.082 .582 c -.25 .292 -.375 .958 -.125 1.166 c .25 .208 .585 .166 .585 .665 c 0 .391 -.176 2.371 -.192 3.29 c -.004 .251 -.092 .538 .14 .595 c .184 .045 .571 .165 .883 .321 c .416 .208 1.457 .083 1.457 .083 z" fill-rule="evenodd"/><path clip-rule="evenodd" d="m 74.92 19.064 c 0 0 -.495 .123 -.495 .454 c 0 .329 -.371 1.359 -.577 1.812 c -.206 .453 -.289 .577 -.041 .783 c .248 .205 .659 .577 .659 .577 h 1.318 c 0 0 1.813 -1.319 1.69 -2.679 c -.124 -1.359 -.207 -1.194 -.207 -1.194 c 0 0 -.618 -.247 -1.319 -.123 c -.699 .122 -1.028 .37 -1.028 .37 z" fill="#fff" fill-rule="evenodd"/><path clip-rule="evenodd" d="m 80.36 20.918 h -1.443 l -.577 1.071 c 0 0 -.205 -.659 0 -1.071 c .207 -.412 .124 -.577 .494 -.536 c .371 .042 1.278 0 1.402 .247 c .124 .248 .124 .289 .124 .289 z" fill="#fff" fill-rule="evenodd"/><path clip-rule="evenodd" d="m 73.973 23.185 c 0 .081 -.825 -.413 -.907 -.619 c -.083 -.205 .165 -.577 .33 -.205 c .164 .37 .577 .741 .577 .824 z" fill="#fff" fill-rule="evenodd"/><path clip-rule="evenodd" d="m 78.67 26.316 c 0 0 .618 -.7 .124 -1.484 c -.496 -.783 -1.814 -1.896 -2.185 -1.813 c -.371 .082 -1.648 .742 -1.854 1.524 c -.207 .783 -.289 1.195 0 1.608 c .288 .412 .453 .865 .825 1.03 c .37 .165 .947 .577 1.36 .412 c .412 -.165 1.112 -.288 1.359 -.619 c .248 -.328 .371 -.658 .371 -.658 z" fill="#fff" fill-rule="evenodd"/><path clip-rule="evenodd" d="m 79.947 25.493 c 0 0 0 -1.113 .413 -1.361 c .411 -.247 1.235 -.535 1.235 -.535 l .124 .618 l -.659 .782 z" fill="#f49530" fill-rule="evenodd"/><path clip-rule="evenodd" d="m 80.236 26.852 c 0 0 .782 0 1.317 -.412 c .536 -.412 1.278 -1.607 .989 -2.101 c -.288 -.495 -.823 -.825 -.823 -.825 c 0 0 -1.112 1.401 -1.648 1.648 c -.535 .247 -.577 .495 -.329 .824 c .247 .33 .494 .866 .494 .866 z" fill="#fff" fill-rule="evenodd"/><path clip-rule="evenodd" d="m 78.135 19.147 c 0 0 .288 .948 1.359 .988 c 1.071 .042 1.401 .124 1.649 -.288 c .246 -.412 .287 -.412 .287 -.412 z" fill="#f49530" fill-rule="evenodd"/><path clip-rule="evenodd" d="m 71.953 22.896 c .216 -2.359 1.679 -3.555 1.679 -3.555 c 0 0 .216 .793 .011 1.123 c -.206 .33 -.124 .784 -.289 .989 c -.165 .207 -1.401 1.443 -1.401 1.443 z" fill="#f49530" fill-rule="evenodd"/><path clip-rule="evenodd" d="m 72.988 26.698 c -.866 -1.175 -.989 -2.406 -1.004 -2.483 c 0 0 .669 1.236 1.453 1.236 c .782 0 .7 .659 .907 .906 c .205 .248 2.101 1.36 2.348 1.731 c .248 .371 -.824 .124 -.824 .124 c 0 0 -1.401 -.701 -1.69 -1.154 c -.289 -.453 -.33 -.906 -.618 -.906 c -.288 0 -.572 .546 -.572 .546 z" fill="#cf3943" fill-rule="evenodd"/><path clip-rule="evenodd" d="M 99.1 91.076 L 99.77 89.288 L 93.174 89.288 L 93.174 97.896 L 95.857 97.896 L 95.857 94.766 L 97.758 94.766 L 98.54 92.865 L 95.857 92.865 L 95.857 91.076 Z" fill="#fff" fill-rule="evenodd"/><path clip-rule="evenodd" d="M 100.664 89.288 L 100.664 97.896 L 103.348 97.896 L 103.348 89.288 Z" fill="#fff" fill-rule="evenodd"/><path clip-rule="evenodd" d="m 113.632 89.288 l -3.13 8.607 h 2.683 l .336 -1.229 h 3.019 l .335 1.229 h 2.683 l -3.13 -8.607 z m .336 5.701 l 1.006 -3.577 l 1.118 3.577 z" fill="#fff" fill-rule="evenodd"/><path clip-rule="evenodd" d="M 108.042 94.766 L 109.942 94.766 L 110.613 92.865 L 108.042 92.865 L 108.042 91.076 L 111.173 91.076 L 111.955 89.288 L 105.248 89.288 L 105.248 97.896 L 108.042 97.896 Z" fill="#fff" fill-rule="evenodd"/><path d="m 111.721 103.659 h -1.551 c -.155 0 -.311 -.022 -.466 -.067 c -.297 -.094 -.532 -.31 -.706 -.646 c -.157 -.306 -.236 -.661 -.236 -1.068 c 0 -.392 .07 -.739 .211 -1.041 c .154 -.334 .373 -.561 .656 -.683 c .222 -.094 .447 -.141 .677 -.141 h 1.405 v .698 h -1.46 c -.234 .037 -.409 .134 -.516 .401 c -.084 .208 -.126 .48 -.126 .817 c 0 .284 .055 .525 .16 .724 c .125 .233 .3 .318 .521 .349 h 1.43 v .657 z m 3.922 -1.234 c 0 .479 -.185 .817 -.552 1.015 c -.274 .147 -.667 .22 -1.178 .22 c -.499 0 -.898 -.086 -1.199 -.255 c -.385 -.217 -.577 -.555 -.577 -1.017 v -2.375 h .888 v 2.261 c 0 .284 .099 .491 .296 .62 c .145 .093 .322 .141 .536 .141 c .365 0 .616 -.074 .753 -.225 c .116 -.128 .176 -.317 .176 -.567 v -2.229 h .857 z m 4.082 -1.203 c 0 .322 -.119 .597 -.359 .825 c -.238 .228 -.525 .341 -.857 .341 h -1.491 v 1.271 h -.863 v -3.646 h 2.402 c .375 0 .671 .134 .888 .401 c .186 .232 .28 .502 .28 .808 z m -.978 -.047 c 0 -.157 -.063 -.287 -.186 -.391 c -.124 -.105 -.266 -.157 -.427 -.157 h -1.118 v 1.131 h 1.144 c .164 0 .303 -.056 .416 -.167 c .114 -.111 .171 -.25 .171 -.416 z" fill="#fff"/><path d="m 87.296 103.602 l -.91 -3.531 h .789 l .575 2.426 l .698 -2.426 h .916 l .67 2.466 l .586 -2.466 h .775 l -.927 3.531 H 89.65 l -.76 -2.64 l -.759 2.64 z m 4.337 -1.745 c 0 -.36 .059 -.662 .175 -.905 c .087 -.18 .205 -.342 .354 -.484 c .151 -.143 .315 -.248 .494 -.318 c .238 -.093 .512 -.139 .823 -.139 c .563 0 1.013 .16 1.351 .484 c .338 .321 .507 .771 .507 1.346 c 0 .57 -.168 1.016 -.504 1.338 c -.336 .322 -.781 .482 -1.343 .482 c -.568 0 -1.02 -.16 -1.355 -.479 c -.334 -.322 -.502 -.763 -.502 -1.325 z m .794 -.023 c 0 .399 .101 .702 .3 .909 c .2 .207 .453 .309 .761 .309 c .308 0 .56 -.102 .757 -.308 c .196 -.204 .295 -.511 .295 -.92 c 0 -.404 -.096 -.706 -.287 -.905 c -.192 -.2 -.447 -.299 -.765 -.299 c -.317 0 -.574 .101 -.768 .302 c -.196 .201 -.293 .505 -.293 .912 z m 3.844 1.768 v -3.531 h 1.623 c .409 0 .374 .032 .559 .096 c .185 .063 .325 .182 .445 .338 c .327 .43 .156 1.438 -.499 1.539 c .074 .039 .84 1.357 .975 1.559 h -.921 c -.167 -.229 -.752 -1.398 -.866 -1.436 c -.082 -.025 -.211 -.039 -.388 -.039 h -.156 v 1.475 h -.772 z m .771 -2.039 h .57 c .369 0 .271 -.015 .362 -.043 c .092 -.028 .164 -.079 .217 -.149 c .052 -.07 .078 -.159 .078 -.265 c 0 -.119 -.035 -.215 -.104 -.288 c -.068 -.073 -.165 -.121 -.291 -.139 c -.062 -.009 .081 -.012 -.232 -.012 h -.601 v .896 z m 2.768 2.039 V 100.1 h .771 v 2.906 h 1.917 v .596 z m 3.236 -3.532 h 1.408 c .317 0 .56 .022 .727 .067 c .225 .06 .416 .169 .575 .325 c .16 .156 .282 .347 .365 .571 c .083 .226 .125 .505 .125 .836 c 0 .29 -.039 .541 -.117 .751 c -.095 .257 -.232 .465 -.409 .624 c -.133 .12 -.314 .214 -.541 .281 c -.17 .051 -.398 .075 -.683 .075 h -1.45 z m .77 .598 v 2.338 h .575 c .215 0 .37 -.011 .466 -.034 c .125 -.028 .229 -.077 .313 -.146 c .082 -.069 .148 -.183 .202 -.342 c .051 -.157 .077 -.373 .077 -.646 c 0 -.272 -.026 -.481 -.077 -.628 c -.054 -.146 -.127 -.261 -.22 -.342 c -.094 -.082 -.214 -.138 -.357 -.166 c -.106 -.023 -.318 -.034 -.633 -.034 z" fill="#fff"/></g></g></svg>