<?xml version="1.0" encoding="iso-8859-1"?>
<!-- Generator: Adobe Illustrator 24.0.1, SVG Export Plug-In . SVG Version: 6.00 Build 0)  -->
<svg version="1.1" id="Layer_1" xmlns="http://www.w3.org/2000/svg" xmlns:xlink="http://www.w3.org/1999/xlink" x="0px" y="0px"
	 viewBox="0 0 612 792" style="enable-background:new 0 0 612 792;" xml:space="preserve">
<path d="M588.965,198.816l-110.38-99.78c-45.896,41.196-106.558,66.267-173.085,66.267c-66.527,0-127.19-25.071-173.084-66.267
	l-110.38,99.78c24.673,37.98,43.967,84.126,43.967,147.987c0,52.83-9.802,67.857-9.802,128.671
	c0,48.838,8.512,85.466,38.801,115.756c71.41,71.409,134.805,32.915,210.499,102.513c75.693-69.598,139.089-31.104,210.498-102.513
	c30.29-30.29,38.802-66.918,38.802-115.756c0-60.813-9.804-75.841-9.804-128.671C544.996,282.942,564.291,236.796,588.965,198.816z"
	/>
<path style="fill:#F68B1F;" d="M477.929,128.829c-49.229,38.151-109.688,59.015-172.428,59.015
	c-62.742,0-123.2-20.864-172.428-59.015c-18.692,16.896-64.117,57.959-82.102,74.216c25.547,44.772,37.574,90.927,37.574,143.758
	c0,27.02-2.466,45.058-4.851,62.503c-2.435,17.811-4.953,36.226-4.953,66.168c0,30.238,3.49,52.489,11.689,70.565l429.46-379.279
	C503.738,152.16,487.402,137.392,477.929,128.829z"/>
<path d="M202.071,201.346c-49.73,0-90.045,40.314-90.045,90.046c0,49.73,40.315,90.045,90.045,90.045s90.046-40.314,90.046-90.045
	C292.117,241.66,251.801,201.346,202.071,201.346z M202.071,340.641c-27.2,0-49.249-22.049-49.249-49.25
	c0-27.2,22.049-49.249,49.249-49.249c27.2,0,49.249,22.049,49.249,49.249C251.32,318.591,229.271,340.641,202.071,340.641z"/>
<path style="fill:#F68B1F;" d="M448.846,568.925c0,2.594-2.102,4.695-4.695,4.695h-31.065c-1.517,0-2.938-0.732-3.82-1.965
	l-55.919-78.239c-1.188-1.661-3.311-2.364-5.255-1.741c-1.942,0.623-3.263,2.432-3.263,4.472v53.29
	c0,5.477,8.337,9.156,8.337,14.088v5.4c0,2.594-2.104,4.695-4.698,4.695h-27.001c-2.594,0-4.695-2.102-4.695-4.695v-5.4
	c0-4.932,8.334-8.61,8.334-14.088v-94.025c0-0.98-0.305-1.934-0.875-2.73l-11.164-15.621c-0.567-0.797-0.875-1.751-0.875-2.73
	v-6.285c0-2.594,2.104-4.696,4.697-4.696h32.861c1.516,0,2.939,0.731,3.82,1.965l67.036,93.796c1.187,1.66,3.311,2.364,5.255,1.741
	c1.941-0.623,3.262-2.433,3.262-4.473v-68.845c0-5.479-8.336-9.157-8.336-14.088v-5.4c0-2.594,2.104-4.696,4.697-4.696h27.001
	c2.594,0,4.695,2.103,4.695,4.696v5.4c0,4.931-8.335,8.609-8.335,14.088V568.925z"/>
</svg>
