<?xml version="1.0" encoding="iso-8859-1"?>
<!-- Generator: Adobe Illustrator 24.0.1, SVG Export Plug-In . SVG Version: 6.00 Build 0)  -->
<svg version="1.1" id="Layer_1" xmlns="http://www.w3.org/2000/svg" xmlns:xlink="http://www.w3.org/1999/xlink" x="0px" y="0px"
	 viewBox="0 0 612 792" style="enable-background:new 0 0 612 792;" xml:space="preserve">
<polygon style="fill:#D5262C;" points="24.698,113.59 307.5,679.189 590.302,113.59 "/>
<polygon style="fill:#FFFFFF;" points="139.447,180.983 307.5,550.792 475.553,180.983 "/>
<rect x="24.5" y="220.683" width="566" height="105.74"/>
<path style="fill:#FFFFFF;" d="M116.835,243.96l-8.755,20.758c-5.735-6.418-12.315-9.612-19.752-9.612
	c-4.138,0-6.217,1.273-6.217,3.871c0,0.806,0.657,1.637,1.955,2.468c1.306,0.832,4.722,2.13,10.244,3.923
	c6.08,1.975,10.763,3.793,14.049,5.404c3.286,1.638,5.749,3.716,7.385,6.262c1.624,2.52,2.449,5.456,2.449,8.833
	c0,7.042-3.235,12.418-9.699,16.134c-6.468,3.689-15.964,5.534-28.507,5.534c-14.074,0-26.208-1.663-36.385-4.962l8.593-22.006
	c2.501,3.222,5.605,5.768,9.314,7.664c3.696,1.896,7.248,2.858,10.653,2.858c1.663,0,3.065-0.363,4.195-1.091
	c1.13-0.701,1.702-1.585,1.702-2.624c0-0.961-0.559-1.896-1.649-2.806c-1.092-0.884-3.996-2.13-8.679-3.689
	c-4.24-1.429-7.754-2.806-10.534-4.131c-2.781-1.352-5.183-3.247-7.236-5.715c-2.058-2.495-3.086-5.612-3.086-9.379
	c0-7.3,3.223-12.809,9.646-16.523c6.437-3.717,15.92-5.561,28.468-5.561C96.453,239.569,107.066,241.025,116.835,243.96"/>
<path style="fill:#FFFFFF;" d="M128.174,240.608h48.221c10.171,0,17.991,2.131,23.448,6.392c5.456,4.286,8.184,9.56,8.184,15.874
	c0,6.158-2.599,11.379-7.769,15.692c-5.176,4.338-11.417,6.495-18.719,6.495c-6.079,0-12.146-1.923-18.18-5.768v27.149h-35.186
	V240.608z M163.36,254.846v14.315c1.032,0.233,2.007,0.363,2.91,0.363c2.65,0,4.773-0.701,6.41-2.079
	c1.638-1.377,2.462-3.196,2.462-5.43c0-2.234-0.708-3.976-2.085-5.248c-1.403-1.3-3.384-1.922-5.949-1.922H163.36z"/>
<path style="fill:#FFFFFF;" d="M235.365,306.443H200.13l27.63-65.861h50.2l27.61,65.861H270.4l-4.585-11.119h-25.858
	L235.365,306.443z M246.368,279.787h13.036l-6.521-16.342L246.368,279.787z"/>
<path style="fill:#FFFFFF;" d="M313.593,240.608h51.974c8.99,0,16.068,1.871,21.212,5.639c5.139,3.74,7.717,8.443,7.717,14.082
	c0,6.21-3.032,11.067-9.074,14.575c8.58,8.105,13.706,18.628,15.381,31.54h-36.543c-0.668-8.314-2.169-14.444-4.507-18.421
	c-2.344-3.974-6.001-5.949-10.977-5.949v24.37h-35.184V240.608z M348.777,254.145v12.704h1c6.314,0,9.483-2.078,9.483-6.184
	c0-1.713-0.657-3.247-1.928-4.546c-1.295-1.325-3.437-1.974-6.414-1.974H348.777z"/>
<polygon style="fill:#FFFFFF;" points="401.772,269.759 401.772,240.608 472.445,240.608 472.445,269.759 454.727,269.759 
	454.727,306.443 419.489,306.443 419.489,269.759 "/>
<path style="fill:#FFFFFF;" d="M501.193,306.443h-35.238l27.631-65.861h50.203l27.608,65.861h-35.181l-4.574-11.119h-25.856
	L501.193,306.443z M512.195,279.787h13.036l-6.522-16.342L512.195,279.787z"/>
</svg>
