<?xml version="1.0" encoding="iso-8859-1"?>
<!-- Generator: Adobe Illustrator 24.0.1, SVG Export Plug-In . SVG Version: 6.00 Build 0)  -->
<svg version="1.1" id="Layer_1" xmlns="http://www.w3.org/2000/svg" xmlns:xlink="http://www.w3.org/1999/xlink" x="0px" y="0px"
	 viewBox="0 0 792 612" style="enable-background:new 0 0 792 612;" xml:space="preserve">
<path d="M611.536,101.508c0.132-1.867,1.051-15.018,1.051-15.018l-0.382-0.329c-54.118-46.676-143.967-74.541-240.343-74.54
	c-96.38,0-186.227,27.866-240.347,74.54l-0.382,0.329c0,0,0.92,13.152,1.05,15.019c-2.037,0-37.897,0-37.897,0l13.341,123.885
	c0,0,31.452,0,33.226,0c0.129,1.859,16.906,241.599,16.906,241.599l0.111,0.197c40.011,70.768,108.113,116.6,202.415,136.223
	c4.074,0.85,7.712,3.083,10.818,6.639l0.759,0.868l0.759-0.868c3.103-3.559,6.741-5.792,10.814-6.639
	c94.304-19.626,162.404-65.456,202.415-136.223l0.112-0.197c0,0,16.776-239.74,16.907-241.599c1.772,0,33.225,0,33.225,0
	l13.34-123.886C649.434,101.508,613.574,101.508,611.536,101.508z"/>
<path style="fill:#FFFFFF;" d="M449.554,19.845c-24.98-4.073-51.081-6.21-77.693-6.21c-26.438,0-52.371,2.115-77.204,6.133v561.913
	c20.329,8.233,42.348,14.831,66.039,19.76c4.19,0.875,7.927,3.107,11.165,6.532c3.236-3.425,6.973-5.66,11.162-6.532
	c27.67-5.757,53.047-13.803,76.124-24.062c-3.158,1.404-6.35,2.774-9.593,4.093V19.845z"/>
<path style="fill:#EE3124;" d="M583.986,466.383c0.031-0.481,17.003-243.003,17.003-243.003s31.584,0,33.295,0
	c0.19-1.755,12.674-117.685,12.908-119.857c-2.112,0-37.817,0-37.817,0s1.062-15.168,1.13-16.146
	c-38.842-33.336-96.108-56.965-160.952-67.532v561.628C509.318,557.155,554.393,518.626,583.986,466.383z"/>
<path style="fill:#EE3124;" d="M133.211,87.378c0.069,0.977,1.132,16.145,1.132,16.145s-35.704,0-37.817,0
	c0.236,2.174,12.719,118.102,12.91,119.857c1.711,0,33.294,0,33.294,0s16.97,242.521,17.006,243.002
	c29.673,52.387,74.91,90.991,134.922,115.298V19.768C229.609,30.297,172.151,53.958,133.211,87.378z"/>
<path style="fill:#BCBEC0;" d="M535.469,313.138c-10.299-10.605-33.256-27.352-71.907-22.219
	c-19.826-19.45-63.641-32.896-91.701-32.895c-28.064,0-71.878,13.447-91.704,32.895c-38.654-5.132-61.61,11.615-71.907,22.221
	c-25.972,26.746-22.007,68.417-9.639,98.495c3.96,9.629,9.082,19.222,15.224,28.51c8.583,12.982,19.334,25.49,31.957,37.175
	c4.656,4.31,9.673,8.61,14.911,12.788l1.759,1.374c3.682,2.839,13.457,10.388,14.007,15.015c0.066,0.556-0.036,0.919-0.371,1.338
	l-5.093,6.34c-1.8,2.242-2.337,4.789-1.475,6.987c0.726,1.852,2.332,3.128,4.296,3.418c2.206,0.323,4.457-0.672,6.024-2.663
	l6.137-7.812c4.464-5.68,7.225-13.87,7.575-22.475c0.032-0.77,0.047-1.531,0.047-2.279c0-14.08-5.437-24.154-11.682-35.728
	c-3.91-7.241-7.566-13.503-10.792-19.028l-6.341-11.074c-4.826-8.847-6.915-14.875-6.983-20.161
	c-0.003-0.099-0.003-0.197-0.003-0.297c0-7.849,4.125-15.568,13.734-25.736c1.701-1.801,3.476-3.54,5.226-5.187
	c-0.611,2.982-1.018,6.284-1.018,10.024c0,0.217,0.001,0.437,0.004,0.656c0.179,14.94,5.954,24.369,12.065,34.351
	c2.511,4.102,5.11,8.345,7.437,13.171c4.956,10.278,11.787,25.589,13.886,39.836l0.652,4.74c0.493,3.723,0.958,7.238,1.944,11.602
	c1.074,4.748,1.304,10.077,1.304,15.73c0,2.082-0.032,4.206-0.063,6.359c-0.032,2.24-0.066,4.549-0.066,6.915
	c0,7.733,0.363,16.075,2.3,24.585l0.462,2.497c0.496,2.597,0.963,5.052,0.988,7.393c0.115,11.499,3.834,19.794,11.704,26.107
	c4.822,3.867,10.644,6.711,15.782,9.218c5.206,2.542,10.122,4.943,12.552,7.688c3.721,4.2,11.278,5.322,15.16,5.322
	c3.879,0,11.438-1.122,15.159-5.326c2.428-2.741,7.343-5.142,12.547-7.681c5.138-2.51,10.963-5.354,15.785-9.221
	c7.87-6.313,11.59-14.609,11.706-26.107c0.023-2.342,0.492-4.799,0.989-7.397l0.456-2.475c1.94-8.513,2.303-16.859,2.303-24.596
	c0-2.37-0.033-4.68-0.066-6.918c-0.033-2.16-0.063-4.288-0.063-6.366c0-5.658,0.23-10.981,1.303-15.728
	c0.989-4.369,1.455-7.888,1.948-11.615l0.652-4.729c2.097-14.25,8.929-29.558,13.885-39.833c2.329-4.826,4.926-9.071,7.438-13.174
	c6.111-9.982,11.884-19.412,12.063-34.348c0.003-0.219,0.004-0.435,0.004-0.649c0-3.744-0.408-7.049-1.019-10.034
	c1.75,1.648,3.524,3.386,5.226,5.187c9.609,10.171,13.735,17.891,13.735,25.741c0,0.099,0,0.197,0,0.296
	c-0.072,5.288-2.162,11.316-6.989,20.158l-6.35,11.092c-3.223,5.522-6.876,11.778-10.781,19.013
	c-6.245,11.574-11.684,21.648-11.684,35.725c0,0.751,0.015,1.51,0.048,2.281c0.351,8.605,3.111,16.796,7.573,22.476l6.14,7.808
	c1.566,1.995,3.816,2.99,6.023,2.667c1.963-0.291,3.57-1.566,4.294-3.415c0.866-2.2,0.329-4.748-1.473-6.992l-5.093-6.341
	c-0.337-0.417-0.437-0.779-0.371-1.335c0.551-4.63,10.325-12.176,14.003-15.015l1.764-1.377c5.243-4.18,10.259-8.483,14.909-12.788
	c12.622-11.683,23.374-24.189,31.957-37.173c6.146-9.296,11.268-18.89,15.224-28.51
	C557.477,381.556,561.443,339.885,535.469,313.138z"/>
<path style="fill:#FFFFFF;" d="M534.128,314.44c-10.133-10.436-32.827-26.984-71.228-21.566
	c-20.132-20.448-66.305-32.983-91.04-32.981c-24.738,0-70.913,12.536-91.041,32.981c-38.406-5.418-61.095,11.132-71.23,21.567
	c-25.341,26.096-21.393,66.951-9.249,96.484c3.914,9.517,8.978,18.999,15.055,28.188c8.499,12.855,19.153,25.25,31.666,36.832
	c4.622,4.281,9.605,8.554,14.806,12.703l1.738,1.352c4.568,3.527,14.075,10.866,14.719,16.273c0.124,1.055-0.119,1.922-0.77,2.732
	l-5.092,6.341c-1.37,1.704-1.804,3.574-1.193,5.136c0.478,1.218,1.534,2.059,2.829,2.248c1.533,0.228,3.133-0.51,4.281-1.97
	l6.137-7.809c4.226-5.381,6.842-13.178,7.177-21.396c0.03-0.735,0.045-1.461,0.045-2.177c0-13.634-5.334-23.513-11.459-34.866
	c-3.893-7.215-7.541-13.46-10.76-18.974l-6.366-11.122c-4.982-9.13-7.141-15.421-7.215-21.029c-0.001-0.109-0.003-0.218-0.003-0.326
	c0-8.367,4.279-16.472,14.247-27.017c3.319-3.512,6.9-6.818,10.041-9.558c-1.457,4.243-2.604,9.285-2.604,15.658
	c0,0.218,0.001,0.435,0.004,0.655c0.174,14.425,5.817,23.639,11.791,33.398c2.535,4.14,5.156,8.422,7.525,13.332
	c5.01,10.389,11.917,25.876,14.052,40.378l0.656,4.767c0.487,3.681,0.946,7.155,1.915,11.433c1.114,4.923,1.351,10.368,1.351,16.133
	c0,2.095-0.031,4.23-0.065,6.399c-0.033,2.222-0.065,4.518-0.065,6.864c0,7.677,0.359,15.945,2.281,24.321
	c-0.022-0.107,0.448,2.432,0.448,2.432c0.489,2.567,0.995,5.216,1.021,7.729c0.108,10.892,3.605,18.732,11.004,24.667
	c4.659,3.736,10.137,6.41,15.433,8.995c5.376,2.625,10.455,5.103,13.131,8.126c3.287,3.714,10.437,4.693,13.76,4.693
	c3.321,0,10.47-0.983,13.758-4.696c2.674-3.021,7.751-5.499,13.127-8.124c5.299-2.585,10.777-5.259,15.435-8.995
	c7.4-5.936,10.896-13.775,11.008-24.67c0.024-2.51,0.53-5.162,1.021-7.728l0.467-2.537c1.904-8.279,2.26-16.518,2.26-24.178
	c0-2.36-0.034-4.663-0.068-6.9c-0.03-2.169-0.062-4.306-0.062-6.406c0-5.76,0.237-11.203,1.351-16.126
	c0.97-4.284,1.429-7.765,1.916-11.445l0.655-4.755c2.134-14.503,9.041-29.988,14.052-40.378c2.369-4.911,4.992-9.194,7.526-13.335
	c5.974-9.758,11.616-18.973,11.791-33.395c0.002-0.218,0.002-0.434,0.002-0.648c0-6.376-1.147-11.422-2.605-15.667
	c3.141,2.74,6.722,6.045,10.042,9.559c9.967,10.544,14.247,18.65,14.247,27.018c0,0.108-0.001,0.216-0.003,0.326
	c-0.074,5.614-2.232,11.903-7.215,21.029l-6.375,11.137c-3.215,5.507-6.86,11.752-10.751,18.959
	c-6.124,11.35-11.459,21.232-11.459,34.864c0,0.715,0.017,1.441,0.047,2.176c0.335,8.221,2.951,16.018,7.177,21.399l6.135,7.806
	c1.148,1.46,2.748,2.197,4.282,1.973c1.292-0.189,2.35-1.03,2.828-2.248c0.612-1.559,0.177-3.432-1.192-5.136l-5.093-6.341
	c-0.65-0.81-0.895-1.677-0.767-2.732c0.643-5.407,10.148-12.745,14.718-16.273l1.737-1.355c5.207-4.155,10.189-8.427,14.806-12.701
	c12.512-11.581,23.166-23.972,31.668-36.833c6.08-9.194,11.144-18.678,15.053-28.188C555.521,381.393,559.471,340.54,534.128,314.44
	z"/>
<path style="fill:#BCBEC0;" d="M267.256,373.276c-10.737,11.363-15.348,20.293-15.348,29.776c0,0.13,0.001,0.259,0.002,0.388
	c0.082,6.311,2.389,13.162,7.707,22.907l6.423,11.224c3.201,5.485,6.833,11.703,10.694,18.855
	c6.732,12.477,10.977,20.977,10.977,32.857c0,0.69-0.015,1.395-0.044,2.112c-0.296,7.278-2.659,14.41-6.319,19.069
	c0,0-0.168,0.213-0.179,0.227c0.744-1.193,1.215-2.473,1.215-3.888c0-0.329-0.021-0.663-0.06-1.004
	c-0.778-6.537-8.8-13.229-16.258-18.988l-1.688-1.313c-5.126-4.087-10.03-8.296-14.583-12.507
	c-12.275-11.365-22.719-23.511-31.043-36.098c-5.931-8.971-10.874-18.226-14.688-27.501c-5.455-13.262-9.214-28.878-9.214-44.271
	c0-17.51,4.863-34.73,17.628-47.874c9.594-9.88,31.096-25.56,67.711-20.415c1.912,3.813,4.504,7.25,7.026,10.576
	c3.837,5.063,7.462,9.845,8.867,15.835c1.167,4.974,0.225,12.158-2.522,19.217c-2.332,5.993-6.105,12.055-9.847,15.816l0.02,0.017
	C280.085,361.218,273.25,366.935,267.256,373.276z"/>
<path style="fill:#BCBEC0;" d="M300.566,427.78c-2.455-5.089-5.13-9.46-7.716-13.686c-5.925-9.672-11.039-18.029-11.199-31.341
	c-0.105-8.527,2.048-14.611,4.177-19.54c9.361,2.969,16.245,6.269,21.426,9.921c-4.156,5.404-6.268,11.099-6.392,17.374
	c-0.216,10.945,4.004,17.241,8.891,24.532l3.251,4.956c2.702,4.299,6.582,12.192,9.732,25.39l0.082-0.02
	c-0.422,2.617-0.892,5.014-1.401,7.078c-1.629,6.602-3.901,11.003-5.906,14.892c-0.227,0.439-0.437,0.855-0.652,1.277
	C312.528,453.779,305.611,438.244,300.566,427.78z"/>
<path style="fill:#BCBEC0;" d="M324.091,435.22c-2.185-6.874-4.749-12.707-7.678-17.367l-3.314-5.059
	c-4.693-6.999-8.402-12.528-8.21-22.207c0.107-5.455,1.892-10.25,5.548-14.993c5.714,4.868,8.928,10.32,11.263,16.401
	C325.309,401.396,325.54,419.837,324.091,435.22z"/>
<path style="fill:#BCBEC0;" d="M411.66,571.51c-4.308,3.456-9.583,6.03-14.681,8.517c-5.745,2.806-11.171,5.455-14.376,9.074
	c-1.826,2.063-6.997,3.337-10.743,3.337c-3.747,0-8.92-1.274-10.745-3.333c-3.206-3.623-8.633-6.272-14.379-9.078
	c-5.099-2.488-10.37-5.063-14.68-8.517c-5.762-4.625-8.711-10.411-9.356-18.488c1.746,1.337,4.017,3.442,5.337,4.667l3.213,2.878
	c3.212,2.593,6.848,4.869,10.365,7.068c5.294,3.311,10.296,6.441,13.737,10.444c2.185,2.544,6.562,4.105,11.155,3.979
	c2.086-0.061,3.873-0.329,5.348-1.68c1.46,1.33,3.158,1.6,5.222,1.674c4.571,0.161,9.107-1.434,11.286-3.973
	c3.443-4.002,8.445-7.133,13.74-10.446c3.516-2.2,7.152-4.473,10.363-7.066l3.221-2.884c1.319-1.223,3.589-3.329,5.33-4.664
	C420.371,561.099,417.423,566.885,411.66,571.51z"/>
<path style="fill:#BCBEC0;" d="M426.227,485.219c-1.625,7.178-1.507,15.097-1.385,23.479c0.143,9.717,0.289,19.762-2.112,30.227
	c-0.022,0.105-0.477,2.572-0.477,2.572c-0.418,2.186-0.835,4.432-1.004,6.704c-2.112,0.899-4.772,3.254-8.3,6.529l-3.012,2.703
	c-3.023,2.439-6.555,4.65-9.969,6.785c-5.319,3.328-10.816,6.768-14.659,11.234c-1.381,1.61-4.784,2.69-8.09,2.574
	c-2.209-0.078-2.685-0.225-3.344-1.451v-31.669c6.349-0.031,12.753-0.19,19.745-0.497c5.162-0.229,10.693-3.388,14.939-6.112
	c4.419-2.843,5.656-8.467,4.574-12.321c-1.08-3.842-5.629-6.806-13.359-4.76c-3.442,0.911-4.579,3.84-5.678,6.672
	c-0.655,1.685-1.394,3.592-2.684,5.433c-2.041,2.918-11.819,7.566-19.551,7.566c-7.734,0-17.514-4.648-19.556-7.564
	c-1.288-1.843-2.027-3.75-2.682-5.435c-1.097-2.833-2.234-5.761-5.678-6.672c-7.73-2.043-12.278,0.918-13.357,4.76
	c-1.082,3.854,0.15,9.481,4.574,12.321c4.243,2.725,9.775,5.883,14.937,6.112c6.988,0.308,13.393,0.47,19.749,0.497v31.583
	c-0.625,1.307-1.085,1.477-3.451,1.544c-3.268,0.088-6.626-0.996-7.987-2.578c-3.841-4.47-9.339-7.91-14.657-11.234
	c-3.416-2.137-6.947-4.345-9.97-6.788l-3.003-2.695c-3.533-3.276-6.193-5.634-8.308-6.534c-0.171-2.275-0.586-4.518-1.003-6.701
	l-0.457-2.473c-2.422-10.57-2.275-20.615-2.134-30.332c0.124-8.382,0.241-16.299-1.386-23.479c-0.711-3.151-1.128-5.789-1.508-8.537
	c0.437-2.315,1.614-4.608,3.108-7.503c2.001-3.878,4.495-8.711,6.236-15.772c3.779-15.322,5.762-48.206,0.135-62.855
	c-4.924-12.825-13.3-23.039-37.533-30.895c3.365-3.818,6.599-9.1,8.844-14.434c23.836,23.171,40.333,35.452,55.095,36.899
	c-20.537-12.032-37.853-26.295-53.297-41.854c2.016-6.593,2.574-13.104,1.438-17.945c-1.603-6.822-5.656-12.173-9.578-17.348
	c-2.437-3.212-4.718-6.285-6.438-9.618c19.542-19.5,63.971-31.436,87.871-31.436c23.899,0,68.324,11.934,87.868,31.437
	c-1.721,3.331-4.003,6.404-6.44,9.617c-3.922,5.175-7.977,10.525-9.577,17.348c-1.136,4.841-0.577,11.352,1.438,17.945
	c-15.444,15.555-32.762,29.819-53.299,41.854c14.762-1.447,31.259-13.728,55.097-36.899c2.242,5.334,5.48,10.614,8.844,14.434
	c-24.234,7.856-32.608,18.07-37.535,30.895c-5.625,14.649-3.644,47.536,0.137,62.855c1.741,7.06,4.234,11.893,6.237,15.772
	c1.493,2.894,2.67,5.185,3.105,7.503C427.359,479.43,426.941,482.068,426.227,485.219z"/>
<path style="fill:#BCBEC0;" d="M388.185,540.564c2.999-1.549,5.392-3.309,6.527-4.933c1.567-2.24,2.439-4.482,3.139-6.286
	c1.083-2.792,1.619-3.882,2.953-4.237c4.33-1.144,7.806-0.339,8.452,1.956c0.151,0.544,0.229,1.142,0.229,1.76
	c0,2.223-0.999,4.729-3.104,6.083c-2.453,1.577-8.2,5.267-12.937,5.477C391.62,540.466,389.938,540.501,388.185,540.564z"/>
<path style="fill:#BCBEC0;" d="M355.536,540.567c-1.753-0.063-3.438-0.101-5.26-0.182c-4.74-0.21-10.485-3.9-12.938-5.477
	c-2.105-1.351-3.104-3.857-3.104-6.081c0-0.619,0.077-1.216,0.23-1.763c0.646-2.296,4.121-3.1,8.451-1.956
	c1.334,0.355,1.87,1.445,2.954,4.237c0.7,1.804,1.57,4.048,3.138,6.288C350.143,537.259,352.538,539.015,355.536,540.567z"/>
<path style="fill:#BCBEC0;" d="M422.02,391.995c2.333-6.081,5.546-11.533,11.26-16.401c3.656,4.744,5.442,9.538,5.549,14.993
	c0.189,9.679-3.518,15.208-8.211,22.209l-3.313,5.057c-2.93,4.66-5.495,10.493-7.678,17.367
	C418.178,419.837,418.408,401.393,422.02,391.995z"/>
<path style="fill:#BCBEC0;" d="M450.873,414.091c-2.589,4.229-5.264,8.596-7.72,13.689c-5.044,10.461-11.96,25.994-14.292,40.829
	c-0.215-0.422-0.422-0.835-0.65-1.274c-2.005-3.889-4.277-8.29-5.906-14.892c-0.509-2.064-0.98-4.461-1.404-7.078l0.083,0.02
	c3.149-13.195,7.029-21.088,9.73-25.39l3.25-4.956c4.886-7.289,9.107-13.583,8.893-24.532c-0.122-6.273-2.234-11.966-6.392-17.374
	c5.181-3.652,12.063-6.952,21.426-9.921c2.127,4.929,4.279,11.013,4.178,19.54C461.909,396.063,456.795,404.417,450.873,414.091z"/>
<path style="fill:#BCBEC0;" d="M539.653,409.391c-3.811,9.272-8.752,18.522-14.689,27.499c-8.322,12.59-18.766,24.737-31.043,36.099
	c-4.545,4.208-9.449,8.417-14.581,12.51l-1.689,1.313c-7.456,5.759-15.478,12.448-16.255,18.988
	c-0.041,0.341-0.061,0.675-0.061,1.004c0,1.415,0.473,2.695,1.215,3.888c-0.011-0.011-0.179-0.227-0.179-0.227
	c-3.66-4.659-6.022-11.79-6.319-19.072c-0.03-0.719-0.044-1.422-0.044-2.116c0-11.873,4.246-20.377,10.976-32.85
	c3.859-7.146,7.486-13.359,10.686-18.841l6.433-11.237c5.317-9.741,7.622-16.59,7.707-22.907c0.003-0.129,0.003-0.258,0.003-0.388
	c0-9.482-4.612-18.415-15.348-29.777c-5.995-6.347-12.829-12.058-16.479-14.981l0.018-0.015c-3.741-3.767-7.515-9.826-9.847-15.819
	c-2.745-7.059-3.688-14.243-2.522-19.217c1.407-5.99,5.03-10.772,8.867-15.835c2.522-3.326,5.115-6.763,7.028-10.576
	c36.611-5.147,58.117,10.533,67.712,20.414c12.765,13.145,17.627,30.366,17.627,47.874
	C548.867,380.512,545.108,396.126,539.653,409.391z"/>
<path style="fill:#009444;" d="M399.001,199.564c-13.184,0-23.913,10.202-23.913,22.742v111.009
	c0,12.539,10.729,22.741,23.913,22.741h9.03c13.187,0,23.914-10.203,23.914-22.741V222.306c0-12.54-10.727-22.742-23.914-22.742
	H399.001z M397.161,325.843v-96.106c0-8.582,2.96-8.582,6.389-8.582c3.251,0,6.322,0,6.322,8.582v96.106
	c0,8.582-3.071,8.582-6.322,8.582C400.122,334.426,397.161,334.426,397.161,325.843z"/>
<path style="fill:#009444;" d="M335.687,199.559c-13.184,0-23.913,10.202-23.913,22.741v61.695c0,9.854,3.275,18.768,8.982,24.459
	c4.855,4.841,11.448,7.386,19.07,7.364c0,0,3.903-0.014,6.731-0.021c0,3.485,0,10.04,0,10.04c0,8.583-3.071,8.583-6.323,8.583
	l-22.348-0.038l0.027,21.681l26.804-0.012c13.184-0.002,23.911-10.206,23.911-22.743V222.3c0-12.54-10.728-22.741-23.913-22.741
	H335.687z M341.468,292.701L341.468,292.701c-5.484-0.007-7.621-2.236-7.621-7.952V229.73c0-8.581,2.96-8.581,6.388-8.581
	c3.252,0,6.323,0,6.323,8.581c0,0,0,57.704,0,62.978C344.207,292.703,341.468,292.701,341.468,292.701z"/>
<path style="fill:#FFFFFF;" d="M399.001,201.579c-12.071,0-21.895,9.297-21.895,20.726v111.009c0,11.428,9.823,20.725,21.895,20.725
	h9.03c12.074,0,21.897-9.297,21.897-20.725V222.306c0-11.429-9.823-20.726-21.897-20.726H399.001z M378.834,333.314V222.306
	c0-10.476,9.046-18.997,20.167-18.997h9.03c11.122,0,20.17,8.522,20.17,18.997v111.009c0,10.474-9.048,18.998-20.17,18.998h-9.03
	C387.88,352.312,378.834,343.789,378.834,333.314z"/>
<path style="fill:#FFFFFF;" d="M335.687,201.575c-12.073,0-21.897,9.297-21.897,20.725v61.695c0,9.322,3.059,17.718,8.391,23.032
	c4.529,4.518,10.464,6.797,17.64,6.774c0,0,7.316-0.023,8.753-0.026c0,1.508,0,12.061,0,12.061c0,10.599-4.821,10.599-8.34,10.599
	l-20.329-0.033l0.022,17.643l24.789-0.011c12.074-0.003,21.895-9.3,21.895-20.727V222.3c0-11.427-9.822-20.725-21.895-20.725
	H335.687z M323.402,305.805c-5.01-4.996-7.882-12.944-7.882-21.81V222.3c0-10.475,9.046-18.997,20.168-18.997h9.03
	c11.121,0,20.169,8.522,20.169,18.997v111.008c0,10.473-9.048,18.997-20.169,19.001c0,0-21.459,0.007-23.063,0.007
	c-0.002-1.455-0.017-12.721-0.018-14.183c1.582,0.003,18.597,0.032,18.597,0.032c3.521,0,10.068,0,10.068-12.328v-13.794
	l-10.486,0.031C333.117,312.092,327.595,309.983,323.402,305.805z"/>
<path style="fill:#FFFFFF;" d="M330.102,229.73v55.019c0,7.752,3.823,11.688,11.361,11.697l8.838,0.008V229.73
	c0-12.326-6.548-12.326-10.067-12.326C336.694,217.404,330.102,217.404,330.102,229.73z M341.465,294.717L341.465,294.717
	c-6.573-0.007-9.634-3.175-9.634-9.968V229.73c0-10.596,4.857-10.596,8.404-10.596c3.519,0,8.34,0,8.34,10.596c0,0,0,63.31,0,64.994
	C347.199,294.724,341.465,294.717,341.465,294.717z"/>
<path style="fill:#FFFFFF;" d="M393.416,229.737v96.106c0,12.326,6.593,12.326,10.134,12.326c3.518,0,10.066,0,10.066-12.326
	v-96.106c0-12.326-6.548-12.326-10.066-12.326C400.009,217.411,393.416,217.411,393.416,229.737z M395.145,325.843v-96.106
	c0-10.599,4.859-10.599,8.405-10.599c3.52,0,8.338,0,8.338,10.599v96.106c0,10.599-4.819,10.599-8.338,10.599
	C400.004,336.442,395.145,336.442,395.145,325.843z"/>
<g>
	<path d="M205.104,74.838c-2.429-2.082-5.364-3.151-8.73-3.173c-3.823-0.026-8.178,1.255-13.314,3.915
		c-3.909,2.028-8.684,4.845-12.898,7.332l-3.563,2.101l-0.004,1.644v107.043l9.866-0.003l6.515,0.002
		c10.229-0.085,17.404-2.974,21.936-8.83c5.736-7.413,6.215-18.648,6.215-29.521v-53.429
		C211.127,86.97,209.214,78.365,205.104,74.838z M192.42,98.689v65.884c0,5.967-1.02,7.865-1.459,8.404
		c-0.451,0.555-1.862,1.492-5.821,1.814c0-5.306,0-78.947,0-82.297c0.467-0.222,1-0.473,1-0.473c3.63-1.742,4.909-1.615,5.197-1.556
		C191.68,91.092,192.42,93.466,192.42,98.689z"/>
	<path d="M308.331,104.533c0-0.008-0.019-37.747-0.019-37.747c-0.001-4.274-0.558-12.406-4.267-18.845
		c-3.288-5.708-8.419-9.007-14.448-9.288c-3.634-0.17-9.178,1.538-12.621,3.885c-2.163,1.477-3.893,3.097-5.464,4.671
		c-2.278-1.44-4.464-2.769-5.777-3.284l-2.109-0.827l-8.963,12.807c-2.839-3.386-8.073-6.14-17.59-3.053
		c-6.979,2.263-15.463,5.79-19.158,13.048c-3.087,6.062-3.081,15.722-3.071,27.952l0.001,63.67c0,13.262,1.568,22.271,4.794,27.548
		c3.499,5.725,9.459,8.629,17.714,8.629c8.675,0,14.816-3.078,18.249-9.15c3.247-5.738,4.826-15.675,4.826-30.382v-67.89
		c0-12.181-1.093-20.803-3.321-26.2l1.049,1.109c2.959,3.007,6.313,6.418,6.313,9.979V193.7h18.018c0,0,0-56.422,0-61.213
		c0.09-0.008,0.308-0.03,0.308-0.03c2.833-0.266,4.908,0.122,5.549,1.037c0.352,0.505,1.504,2.833,1.504,11.615V193.7h18.869
		v-56.213c0-10.196-1.71-14.11-4.599-17.177C306.845,116.702,308.331,111.385,308.331,104.533z M289.407,70.015
		c0,0.248-0.002,1.299-0.002,1.299v19.608c0,8.008-0.877,15.843-1.63,17.24c-0.789,1.337-2.593,2.196-5.286,2.594
		c0-5.638,0-46.777,0-48.636c1.896-2.47,3.044-3.059,3.663-3.08c0.536-0.018,0.892,0.11,1.23,0.438
		C289.281,61.327,289.407,67.138,289.407,70.015z M241.681,158.471c0,8.684-0.707,12.315-1.299,13.831
		c-0.729,1.862-1.792,2.148-2.833,2.178c-1.391,0.042-2.109-0.411-2.652-1.677c-0.578-1.341-1.266-4.733-1.266-13.277V89.074
		c0-5.796,0.076-12.184,0.967-14.599c0.512-1.389,1.511-2.112,3.817-2.76c1.509-0.423,1.709,0.03,2.014,0.721
		c0.571,1.299,1.252,4.647,1.252,13.222V158.471z"/>
	<path d="M404.778,96.769c0,0,0.033-33.118,0.033-33.144c0-7.11-0.93-16.986-5.344-23.83c-2.647-4.097-5.837-8.129-13.122-8.496
		c-5.651-0.288-10.755,1.303-15.011,4.46c-1.649-1.771-3.431-3.508-5.545-5.225l-2.034-1.649l-1.835,1.87l-10.982,11.2
		c-4.141-5.759-11.672-8.232-22.426-7.336l-9.441,0.977l-6.706,0.744l-0.011,2.577v154.787l16.4-0.019
		c11.211-0.009,18.857-3.215,22.729-9.527c3.663-5.971,5.444-17.462,5.444-35.129v-71.36c0-17.762-1.791-29.201-5.471-34.972
		c-0.152-0.237-0.318-0.459-0.483-0.686l2.449,1.947c3.033,2.411,7.544,7.797,7.544,12.753V193.7h18.021c0,0,0-59.88,0-64.495h0.022
		c2.985,0.018,5.03,0.665,5.753,1.821c0.478,0.759,1.583,3.5,1.583,12.527v50.066l18.904,0.021l0.007-2.879l-0.003-9.042
		l0.003-19.47c0,0,0.038-28.122,0.038-28.156c0-5.185-0.653-11.87-4.876-15.814C404.308,113.39,404.768,104.804,404.778,96.769z
		 M338.218,68.396v90.648c0,7.914-1.025,10.663-1.634,11.596c-1.004,1.534-3.566,1.907-5.644,1.945c0-5.415,0-112.046,0-117.056
		c2.047-0.127,4.659,0.025,5.643,1.451C337.075,57.696,338.218,60.241,338.218,68.396z M385.953,61.657l-0.011,24.915
		c-0.002,8.455-0.903,17.003-1.65,18.488c-0.802,1.288-2.589,1.942-5.304,1.952c0-4.736,0-50.544,0-52.791
		c0.072-0.088,0.153-0.177,0.223-0.26c0.759-0.918,1.905-2.304,3.194-2.314c0.63-0.004,1.074,0.167,1.482,0.574
		C384.659,52.986,385.953,55.233,385.953,61.657z"/>
	<path d="M427.478,120.574c4.001,0.244,16.03,0.977,16.03,0.977v-21.139c0,0-12.325-0.907-16.03-1.18c0-4.424,0-36.61,0-41.886
		c4.203,0.485,16.84,1.941,16.84,1.941V38.103l-35.425-4.062v3.227v156.365l36.355,0.072v-21.09c0,0-13.768-0.217-17.77-0.28
		C427.478,167.498,427.478,125.773,427.478,120.574z"/>
	<path d="M471,165.642c-0.224,3.564-0.654,5.37-0.977,6.259c-0.578,1.592-1.171,1.58-1.605,1.571
		c-0.737-0.018-1.509-0.177-2.13-1.903c-0.514-1.43-1.125-5.241-1.125-15.289l-0.003-80.04c-0.01-5.895-0.014-10.156,0.607-11.767
		c0.493-1.275,0.614-1.436,2.082-1.325c1.082,0.079,2.692,0.403,2.689,0.963l-0.019,8.822l1.411,0.838
		c5.042,2.991,10.311,3.632,13.837,3.855l3.067,0.192l-0.074-29.458l-1.91-0.677c-4.685-1.662-11.037-3.393-17.885-4.877
		c-8.1-1.756-15.891,1.231-19.383,7.432c-3.208,5.694-3.208,14.912-3.208,30.187v71.677c0,15.433,1.48,25.833,4.523,31.797
		c3.316,6.503,9.096,9.8,17.175,9.8c8.032,0,13.813-2.618,17.184-7.781c2.714-4.159,4.215-10.695,4.586-19.982l0.118-2.992h-18.793
		L471,165.642z"/>
	<path d="M534.412,62.631v0.338l-17.039-6.622c0,0,0,44.948,0,51.003c-3.034-0.597-5.9-1.159-8.17-1.604c0-4.315,0-52.077,0-52.077
		l-18.586-5.536v3.86V193.7h18.586c0,0,0-62.48,0-68.594c2.977,0.481,5.825,0.942,8.17,1.322c0,4.544,0,67.272,0,67.272h18.585
		V83.807c2.775,1.13,8.5,3.458,10.436,4.247c0,3.729,0,105.512,0,105.512l18.708,0.158c0,0,0-88.424,0-96.985
		c3.556,1.834,12.023,6.199,12.023,6.199V84.514L534.412,62.631z"/>
</g>
<path style="fill:#FFFFFF;" d="M184.521,88.649l-3.112,1.471l-0.009,0.551v88.115l3.551-0.21c4.459-0.286,7.374-1.347,8.912-3.237
	c1.547-1.901,2.3-5.422,2.3-10.766V98.689c0-2.818-0.244-9.552-2.493-11.24C191.925,86.139,188.932,86.532,184.521,88.649z
	 M185.268,90.208c4.882-2.347,6.711-1.869,7.366-1.378c0.865,0.652,1.8,4.015,1.8,9.859v65.884c0,4.862-0.644,8.117-1.911,9.676
	c-1.201,1.475-3.786,2.352-7.684,2.602c0,0-0.949,0.055-1.712,0.102c0-1.756,0-84.665,0-85.735
	C183.788,90.907,185.268,90.208,185.268,90.208z"/>
<path style="fill:#FFFFFF;" d="M183.987,77.369c-3.859,2.001-8.611,4.804-12.803,7.278l-2.576,1.518v105.523l7.863-0.004
	l6.486,0.004c9.571-0.081,16.232-2.714,20.363-8.049c5.345-6.91,5.793-17.763,5.793-28.29v-53.429
	c0-14.122-1.741-22.481-5.32-25.552c-2.086-1.789-4.517-2.668-7.432-2.688C192.921,73.656,188.757,74.897,183.987,77.369z
	 M172.064,86.136c4.173-2.462,8.901-5.253,12.719-7.233c4.518-2.341,8.41-3.517,11.569-3.495c2.487,0.015,4.555,0.757,6.317,2.271
	c2.151,1.845,4.718,7.551,4.718,24.24v53.429c0,10.226-0.42,20.752-5.433,27.232c-3.785,4.889-10.003,7.303-19.01,7.378
	l-6.464-0.002c0,0-4.806,0.002-6.143,0.002c0-1.672,0-101.838,0-102.806C170.885,86.829,172.064,86.136,172.064,86.136z"/>
<path style="fill:#FFFFFF;" d="M237.694,54.767c-6.095,1.975-14.589,5.374-17.986,12.047c-2.869,5.63-2.86,15.077-2.852,27.037
	l0.001,63.671c0,12.88,1.473,21.547,4.5,26.498c3.11,5.088,8.491,7.667,15.996,7.667c7.898,0,13.447-2.734,16.498-8.128
	c3.03-5.354,4.564-15.241,4.564-29.392v-67.89c0-14.232-1.463-23.385-4.471-27.979C251.774,54.988,247.194,51.686,237.694,54.767z
	 M222.831,183.119c-2.816-4.607-4.247-13.218-4.247-25.596V93.85c-0.008-11.728-0.015-20.992,2.664-26.252
	c3.105-6.099,11.177-9.305,16.978-11.188c6.793-2.201,11.593-1.248,14.27,2.836c2.781,4.245,4.19,13.34,4.19,27.033v67.89
	c0,13.848-1.462,23.451-4.341,28.54c-2.76,4.879-7.665,7.25-14.993,7.25C230.393,189.958,225.645,187.722,222.831,183.119z"/>
<path style="fill:#FFFFFF;" d="M237.404,68.115c-2.454,0.689-5.122,1.83-6.317,5.066c-1,2.714-1.195,7.882-1.195,15.893v70.453
	c0,7.475,0.512,12.301,1.567,14.755c1.145,2.664,3.29,4.027,6.203,3.94c2.928-0.089,5.073-1.664,6.204-4.557
	c1.048-2.679,1.558-7.649,1.558-15.194V85.658c0-7.51-0.515-12.329-1.571-14.73C242.667,68.236,240.436,67.263,237.404,68.115z
	 M233.048,173.598c-0.948-2.201-1.428-6.936-1.428-14.071V89.074c0-6.244,0.083-12.569,1.088-15.296c0.872-2.36,2.694-3.307,5.161-4
	c2.179-0.611,3.577-0.023,4.4,1.845c0.945,2.148,1.425,6.87,1.425,14.035v72.813c0,7.225-0.485,12.123-1.438,14.564
	c-0.885,2.259-2.403,3.391-4.645,3.459C235.405,176.56,233.913,175.612,233.048,173.598z"/>
<path style="fill:#FFFFFF;" d="M286.03,55.303c-3.195,0.102-5.647,3.368-6.695,4.763l-0.471,0.612l-0.118,0.408v53.911l3.595-0.424
	c4.266-0.491,7.179-2.011,8.66-4.52c1.561-2.649,2.143-13.14,2.143-19.132l0.002-20.216c0.015-3.504,0.045-10.793-3.159-13.907
	C288.917,55.755,287.583,55.252,286.03,55.303z M280.719,61.104c0.82-1.095,3.001-3.999,5.367-4.074
	c1.082-0.036,1.964,0.294,2.697,1.007c2.473,2.403,2.637,8.38,2.637,11.852c0,0.289-0.004,1.425-0.004,1.425v19.608
	c0,7.256-0.766,16.322-1.904,18.254c-1.207,2.045-3.616,3.249-7.368,3.681c0,0-1.441,0.171-1.667,0.199c0-1.866,0-51.293,0-51.739
	C280.567,61.236,280.719,61.104,280.719,61.104z"/>
<path style="fill:#FFFFFF;" d="M278.111,44.203c-2.316,1.578-4.189,3.356-6.318,5.568c-0.026-0.016-0.103-0.066-0.103-0.066
	c-1.941-1.24-5.188-3.316-6.689-3.907l-0.634-0.247l-7.754,11.078l2.98,3.146c3.229,3.285,6.891,7.005,6.891,11.392v120.521h13.993
	c0,0,0-59.5,0-61.029c0.178-0.018,2.13-0.206,2.13-0.206c2.594-0.244,5.986-0.115,7.388,1.888c0.851,1.219,1.867,4.422,1.867,12.769
	v46.579h14.844v-54.201c0-11.633-2.316-14.404-5.351-17.088c3.209-3.121,4.963-8.508,4.963-15.866
	c0-0.007-0.019-37.747-0.019-37.747c-0.001-4.071-0.522-11.805-3.997-17.838c-2.935-5.095-7.479-8.036-12.797-8.284
	C286.3,40.515,281.19,42.101,278.111,44.203z M272.538,51.466c2.277-2.4,4.168-4.214,6.547-5.837
	c2.767-1.886,7.503-3.37,10.34-3.238c4.708,0.221,8.749,2.855,11.378,7.418c3.275,5.686,3.768,13.079,3.769,16.979
	c0,0,0.018,37.739,0.018,37.746c0,7.359-1.725,12.641-4.988,15.274l-0.803,0.649l0.779,0.675c3.133,2.721,5.399,4.687,5.399,16.355
	c0,0,0,50.799,0,52.472c-1.401,0-9.985,0-11.387,0c0-1.663,0-44.85,0-44.85c0-7.163-0.713-11.665-2.179-13.759
	c-1.51-2.155-4.526-3.035-8.967-2.616l-3.697,0.355c0,0,0,59.191,0,60.87c-1.378,0-9.156,0-10.536,0c0-1.703,0-118.791,0-118.791
	c0-5.093-4.095-9.257-7.385-12.603c0,0-1.381-1.459-1.987-2.099c0.669-0.958,5.431-7.76,6.13-8.762
	c1.545,0.755,4.229,2.459,5.792,3.458l1.29,0.823L272.538,51.466z"/>
<path style="fill:#FFFFFF;" d="M330.637,51.8l-3.438,0.245v124.316l3.499-0.02c4.417-0.026,7.449-1.254,9.017-3.652
	c1.511-2.313,2.247-6.777,2.247-13.646V68.396c0-6.862-0.752-11.29-2.297-13.537C338.068,52.541,335.031,51.512,330.637,51.8z
	 M330.749,53.523c3.745-0.244,6.266,0.536,7.49,2.316c0.908,1.321,1.993,4.571,1.993,12.556v90.648
	c0,6.433-0.66,10.705-1.964,12.699c-1.232,1.882-3.781,2.847-7.58,2.87c0,0-1.353,0.008-1.76,0.011c0-1.701,0-119.396,0-120.972
	C329.429,53.616,330.749,53.523,330.749,53.523z"/>
<path style="fill:#FFFFFF;" d="M328.679,36.626l-9.384,0.969l-4.925,0.548l-0.004,0.774v152.771l14.386-0.017
	c10.463-0.011,17.535-2.892,21.014-8.566c3.463-5.646,5.146-16.793,5.146-34.078v-71.36c0-17.126-1.734-28.528-5.155-33.888
	C346.177,38.164,339.085,35.759,328.679,36.626z M319.491,39.312l9.332-0.963c9.717-0.813,16.27,1.327,19.479,6.359
	c3.24,5.081,4.882,16.169,4.882,32.959v71.36c0,16.721-1.645,27.882-4.892,33.174c-3.144,5.127-9.719,7.731-19.541,7.741
	c0,0-11.256,0.014-12.655,0.016c0-1.703,0-148.748,0-150.268C317.12,39.576,319.491,39.312,319.491,39.312z"/>
<path style="fill:#FFFFFF;" d="M382.38,47.907c-3.037,0.022-4.999,2.396-6.054,3.671l-0.556,0.632l0.355-0.095l-0.644,0.17
	l-0.237,0.695v57.755l2.414,0.018l1.074,0.004c4.256,0.04,7.201-1.222,8.757-3.749c1.652-2.686,2.191-14.925,2.193-20.432
	l0.011-24.918c0-6.016-1.037-9.973-3.173-12.092C385.404,48.455,384.009,47.896,382.38,47.907z M377.658,52.679
	c0.937-1.133,2.504-3.027,4.734-3.044c1.168-0.008,2.119,0.37,2.913,1.158c1.766,1.752,2.662,5.408,2.662,10.864l-0.011,24.917
	c-0.004,7.752-0.8,17.678-1.936,19.527c-1.218,1.976-3.663,2.962-7.271,2.926c0,0-1.436-0.007-1.777-0.01c0-1.623,0-54.714,0-55.587
	C377.186,53.235,377.397,52.997,377.658,52.679z"/>
<path style="fill:#FFFFFF;" d="M363.358,32.164l-9.433,9.619l0.75,0.597c2.872,2.283,8.306,8.219,8.306,14.329v134.978h13.991
	c0,0,0-62.88,0-64.508c0.533,0.004,2.048,0.011,2.048,0.011c3.806,0.023,6.313,0.954,7.449,2.764
	c0.862,1.377,1.892,4.851,1.892,13.598v48.054l14.881,0.02l0.001-29.38c0,0,0.04-28.12,0.04-28.152
	c0-5.413-0.723-12.611-5.982-15.608c5.372-4.131,5.455-15.407,5.463-21.718c0,0,0.031-33.113,0.031-33.136
	c0-5.618-0.656-15.977-5.022-22.744c-3.027-4.692-5.76-7.288-11.53-7.578c-5.811-0.295-11,1.533-15.13,5.181
	c-1.873-2.19-4.01-4.296-6.595-6.393l-0.608-0.496L363.358,32.164z M364.019,33.96c2.459,2.051,4.567,4.1,6.333,6.252l0.593,0.722
	l0.674-0.648c3.927-3.774,8.819-5.541,14.54-5.252c5.052,0.256,7.386,2.488,10.164,6.789c4.125,6.396,4.747,16.381,4.747,21.808
	c0,0.022-0.034,33.133-0.034,33.133c-0.007,6.404-0.021,18.323-5.706,21.061l-1.816,0.874l1.886,0.712
	c4.198,1.588,6.155,6.259,6.155,14.699c0,0.026-0.04,28.133-0.04,28.133l-0.001,19.477c0,0,0,6.76,0,8.175
	c-1.405-0.002-10.023-0.012-11.424-0.014c0-1.623,0-46.329,0-46.329c0-7.455-0.705-12.203-2.158-14.517
	c-1.469-2.342-4.464-3.545-8.901-3.573c-0.003,0-3.789-0.019-3.789-0.019l0.004,0.869c0,0,0,61.996,0,63.646
	c-1.379,0-9.155,0-10.537,0c0-1.689,0-133.249,0-133.249c0-6.3-4.874-12.145-8.233-15.058
	C357.503,40.604,363.092,34.904,364.019,33.96z"/>
<path style="fill:#FFFFFF;" d="M410.907,37.268v154.355l32.326,0.065v-17.093c0,0-16.226-0.254-17.768-0.281
	c0-1.623,0-54.129,0-55.881c1.629,0.1,16.029,0.978,16.029,0.978v-17.129c0,0-14.583-1.074-16.029-1.181c0-1.519,0-44.184,0-46.014
	c1.712,0.197,16.84,1.943,16.84,1.943V39.898l-31.398-3.6V37.268z"/>
<path d="M412.634,38.237c1.756,0.201,26.537,3.042,27.942,3.203c0,1.299,0,12.04,0,13.651c-1.714-0.197-16.84-1.941-16.84-1.941
	v49.558c0,0,14.584,1.074,16.029,1.182c0,1.351,0,12.151,0,13.686c-1.628-0.1-16.029-0.979-16.029-0.979v59.421
	c0,0,16.226,0.254,17.769,0.281c0,1.427,0,12.206,0,13.659c-1.586-0.004-27.288-0.056-28.871-0.059
	C412.634,188.204,412.634,40.138,412.634,38.237z"/>
<path style="fill:#FFFFFF;" d="M451.337,51.226c-2.948,5.234-2.948,14.255-2.948,29.199v71.677c0,15.105,1.407,25.207,4.303,30.882
	c2.945,5.774,8.121,8.703,15.382,8.703c7.31,0,12.523-2.311,15.498-6.87c2.475-3.79,3.908-10.17,4.26-18.962l0.036-0.898H473.06
	l-0.051,0.811c-0.19,3.052-0.559,5.348-1.092,6.819c-0.962,2.643-2.482,2.919-3.543,2.896c-1.938-0.041-3.206-1.068-3.982-3.233
	c-0.837-2.329-1.246-7.552-1.246-15.97l-0.001-80.038c-0.01-6.569-0.015-10.533,0.742-12.495c0.841-2.17,1.802-2.781,4.108-2.608
	c2.082,0.155,4.561,0.797,4.556,2.975l-0.019,7.674l0.423,0.251c4.665,2.768,9.619,3.368,12.936,3.577l0.922,0.058l-0.064-25.891
	l-0.574-0.203c-4.605-1.633-10.869-3.341-17.637-4.808C461.307,43.205,454.393,45.798,451.337,51.226z"/>
<path d="M454.23,182.197c-2.73-5.349-4.112-15.473-4.112-30.095V80.425c0-14.159,0-23.511,2.725-28.35
	c2.682-4.763,8.844-7.019,15.33-5.612c6.438,1.396,12.369,3.005,16.854,4.558c0.004,1.137,0.052,21.078,0.056,22.785
	c-3.156-0.252-7.014-0.907-10.818-3.047c0.003-0.923,0.015-6.648,0.015-6.652c0-2.729-2.185-4.395-6.152-4.691
	c-3.048-0.227-4.742,0.847-5.849,3.708c-0.874,2.264-0.87,6.121-0.859,13.119l0.003,80.036c0,8.74,0.427,13.999,1.345,16.555
	c1.275,3.545,3.734,4.337,5.571,4.377c1.69,0.036,3.965-0.636,5.201-4.033c0.536-1.474,0.893-3.715,1.108-6.493
	c1.27,0,9.886,0,11.39,0c-0.4,7.977-1.698,13.795-3.914,17.188c-2.672,4.095-7.269,6.085-14.051,6.085
	C461.423,189.958,456.895,187.42,454.23,182.197z"/>
<path style="fill:#FFFFFF;" d="M492.629,51.994v139.693h14.559c0,0,0-66.976,0-68.947c1.63,0.264,10.99,1.778,12.197,1.973
	c0,1.439,0,66.975,0,66.975h14.558V64.948l-14.558-5.659c0,0,0,48.494,0,50.509c-1.673-0.329-11.036-2.168-12.197-2.396
	c0-1.382,0-52.231,0-52.231l-14.559-4.336V51.994z"/>
<path d="M494.355,53.153c1.757,0.523,10.087,3.003,11.107,3.305c0,1.258,0,52.366,0,52.366l15.649,3.074c0,0,0-47.684,0-50.084
	c1.852,0.719,10.192,3.959,11.105,4.314c0,1.162,0,122.149,0,123.83c-1.396,0-9.709,0-11.105,0c0-1.684,0-66.715,0-66.715
	l-15.649-2.532c0,0,0,67.562,0,69.247c-1.398,0-9.71,0-11.107,0C494.355,188.267,494.355,55.419,494.355,53.153z"/>
<path style="fill:#FFFFFF;" d="M536.427,67.34v14.484c0,0,10.996,4.479,11.98,4.877c0,1.149,0,104.871,0,104.871l14.681,0.124
	c0,0,0-95.501,0-98.254c2.019,1.041,12.022,6.196,12.022,6.196V85.744l-38.683-19.818V67.34z"/>
<path d="M538.154,68.752c2.318,1.188,34.341,17.595,35.229,18.048c0,0.846,0,7.91,0,10c-2.021-1.04-12.022-6.196-12.022-6.196
	s0,97.635,0,99.347c-1.41-0.012-9.84-0.083-11.227-0.094c0-1.687,0-104.319,0-104.319s-10.997-4.477-11.979-4.877
	C538.154,79.707,538.154,70.929,538.154,68.752z"/>
</svg>
