<?xml version="1.0" encoding="UTF-8" standalone="no"?>
<svg
   xmlns:dc="http://purl.org/dc/elements/1.1/"
   xmlns:cc="http://creativecommons.org/ns#"
   xmlns:rdf="http://www.w3.org/1999/02/22-rdf-syntax-ns#"
   xmlns:svg="http://www.w3.org/2000/svg"
   xmlns="http://www.w3.org/2000/svg"
   xmlns:sodipodi="http://sodipodi.sourceforge.net/DTD/sodipodi-0.dtd"
   xmlns:inkscape="http://www.inkscape.org/namespaces/inkscape"
   version="1.1"
   id="Layer_1"
   x="0px"
   y="0px"
   viewBox="0 0 1000 1000"
   xml:space="preserve"
   sodipodi:docname="Fc Den Bosch.svg"
   width="1000"
   height="1000"
   inkscape:version="1.0.1 (3bc2e813f5, 2020-09-07)"><metadata
   id="metadata71"><rdf:RDF><cc:Work
       rdf:about=""><dc:format>image/svg+xml</dc:format><dc:type
         rdf:resource="http://purl.org/dc/dcmitype/StillImage" /><dc:title></dc:title></cc:Work></rdf:RDF></metadata><defs
   id="defs69" /><sodipodi:namedview
   pagecolor="#ffffff"
   bordercolor="#666666"
   borderopacity="1"
   objecttolerance="10"
   gridtolerance="10"
   guidetolerance="10"
   inkscape:pageopacity="0"
   inkscape:pageshadow="2"
   inkscape:window-width="1920"
   inkscape:window-height="1017"
   id="namedview67"
   showgrid="false"
   inkscape:zoom="1.1186869"
   inkscape:cx="306"
   inkscape:cy="396"
   inkscape:window-x="-8"
   inkscape:window-y="-8"
   inkscape:window-maximized="1"
   inkscape:current-layer="Layer_1" />































<g
   id="g928"
   transform="matrix(1.6784423,0,0,1.6784423,-39.018748,-188.81133)"><path
     style="fill:#ffffff"
     d="m 23.247,395.492 c 0,156.295 126.702,283.001 282.998,283.001 156.3,0 283.002,-126.706 283.002,-283.001 0,-156.294 -126.702,-283 -283.002,-283 -156.296,0 -282.998,126.706 -282.998,283"
     id="path2" /><path
     style="fill:#86b3e0"
     d="m 186.27,336.317 c 3.55,-0.77 7.051,1.49 7.818,5.038 0,0 1.231,5.707 2.323,10.736 9.566,-2.058 52.178,-11.215 64.824,-13.934 -1.037,-1.65 -2.264,-3.501 -3.666,-5.462 -10.166,-14.208 -29.796,-34.426 -56.535,-28.68 -19.423,4.174 -28.199,22.29 -30.729,28.68 -0.539,1.364 -0.794,2.192 -0.807,2.236 -0.593,1.986 -2.091,3.584 -4.033,4.301 -1.948,0.716 -4.115,0.482 -5.854,-0.645 0,0 -4.003,-2.593 -9.092,-5.892 C 141.623,326.928 129.4,319 129.4,319 c -1.459,-0.944 -2.483,-2.428 -2.85,-4.125 l -7.287,-33.635 c -0.104,-0.462 -0.152,-0.93 -0.152,-1.396 0,-1.252 0.358,-2.489 1.05,-3.56 0.951,-1.469 2.439,-2.5 4.144,-2.867 0,0 8.634,-1.853 14.912,-3.2 -1.463,-6.805 -3.683,-17.143 -3.683,-17.143 -0.099,-0.46 -0.147,-0.925 -0.147,-1.383 0,-2.129 1.037,-4.165 2.837,-5.409 2.188,-1.511 5.072,-1.553 7.304,-0.111 0,0 22.908,14.8 26.789,17.307 4.589,-0.989 46.155,-9.921 50.748,-10.905 2.492,-3.86 16.609,-25.701 16.609,-25.701 1.499,-2.319 4.277,-3.453 6.971,-2.844 0,0 28.498,6.432 37.309,8.421 0.683,-3.04 1.339,-7.441 1.339,-13.163 0,-11.589 -2.714,-28.518 -13.44,-50.096 -101.473,15.295 -181.101,97.189 -192.952,199.749 1.743,-0.226 3.442,-0.539 5.053,-0.969 5.599,-1.495 9.479,-4.879 13.978,-8.799 5.224,-4.549 11.143,-9.705 20.387,-12.169 16.615,-4.429 44.557,1.281 45.735,1.528 2.585,0.538 4.533,2.551 5.073,5.047 l 13.515,-2.929 -1.409,-6.513 c -0.769,-3.55 1.485,-7.049 5.037,-7.818 z"
     id="path4" /><path
     style="fill:#86b3e0"
     d="m 360.041,185.043 c 1.396,-1.446 3.381,-2.176 5.38,-1.982 2.003,0.201 3.803,1.305 4.886,2.996 0,0 13.609,21.202 17.594,27.414 6.867,-1.95 27.703,-7.869 27.703,-7.869 2.034,-0.58 4.218,-0.144 5.875,1.17 1.585,1.248 2.5,3.151 2.5,5.154 0,0.099 -0.004,0.194 -0.009,0.293 0,0 -0.815,18.396 -1.157,26.034 8.116,1.588 32.664,6.39 32.664,6.39 1.903,0.371 3.545,1.566 4.486,3.259 0.548,0.989 0.829,2.089 0.829,3.196 0,0.789 -0.141,1.583 -0.426,2.34 0,0 -7.146,18.77 -9.684,25.439 5.866,4.317 23.485,17.281 23.485,17.281 1.75,1.288 2.682,3.278 2.682,5.303 0,1.252 -0.358,2.521 -1.1,3.639 0,0 -14.412,21.643 -18.348,27.556 0.008,0.013 0.013,0.027 0.025,0.04 0.96,1.294 2.039,2.76 3.027,4.1 3.16,-1.459 6.332,-2.827 9.522,-4.1 17.186,-6.876 34.788,-11.063 52.477,-12.494 C 491.506,231.33 407.329,167.4 308.091,166.616 c 9.063,10.672 17.979,25.646 24.727,46.65 9.476,-9.822 27.223,-28.223 27.223,-28.223 z"
     id="path6" /><path
     style="fill:#227abf"
     d="m 190.909,593.142 1.782,-3.101 c 3.003,-5.359 38.848,-69.169 39.561,-70.447 30.45,-56.835 81.182,-119.011 99.673,-138.667 20.969,-22.294 20.326,-42.558 20.286,-43.41 l 0.008,0.156 c -0.004,-0.137 -0.021,-0.531 -0.025,-0.672 -0.004,-0.057 -0.139,-2.867 -1.231,-6.954 -0.417,0.854 -0.664,1.401 -0.677,1.427 -1.495,3.458 -4.448,6.104 -8.061,7.196 -3.604,1.095 -7.521,0.563 -10.689,-1.484 0,0 -5.249,-3.393 -8.923,-5.768 -0.63,10.724 -3.311,20.075 -8.297,27.794 -9.33,14.44 -22.8,17.695 -24.301,18.015 l -27.864,5.987 c -19.294,4.151 -24.057,12.486 -24.246,12.836 l 0.242,-0.525 c -0.25,0.54 -0.699,1.431 -1.022,1.929 l -9.815,15.189 c -3.845,5.949 -11.786,7.658 -17.735,3.811 0,0 -6.851,-4.425 -13.529,-8.738 -4.672,7.227 -9.585,14.83 -9.585,14.83 -2.818,4.355 -7.983,6.587 -13.084,5.651 -5.108,-0.938 -9.144,-4.857 -10.233,-9.931 0,0 -2.65,-12.399 -5.479,-25.604 -3.622,2.016 -7.128,5.875 -8.445,13.192 -1.252,6.973 -7.922,11.609 -14.893,10.358 -6.973,-1.256 -11.608,-7.928 -10.354,-14.899 1.412,-7.867 4.172,-14.14 7.703,-19.117 -2.621,2.293 -4.77,4.637 -6.895,6.958 -6.379,6.986 -13.615,14.908 -29.088,18.194 -5.751,1.221 -11.445,1.472 -16.993,0.82 -0.354,-0.016 -0.655,-0.06 -0.946,-0.099 l 0.029,0.004 c 4.165,78.969 48.753,147.311 113.126,185.069 z"
     id="path8" /><path
     style="fill:#227abf"
     d="m 522.451,320.202 c 4.805,-0.389 9.617,-0.553 14.428,-0.533 -32.748,-94.095 -124.722,-158.977 -228.884,-153.165 0.031,0.037 0.063,0.074 0.094,0.111 99.238,0.784 183.418,64.711 214.362,153.587 z"
     id="path10" /><path
     d="m 94.396,401.23 c 13.508,-2.867 19.742,-9.693 25.768,-16.289 7.551,-8.263 16.104,-17.631 43.919,-23.542 3.044,-0.647 5.215,-3.337 5.206,-6.446 -0.004,-3.111 -2.188,-5.789 -5.236,-6.423 -1.178,-0.247 -29.12,-5.957 -45.735,-1.528 -9.244,2.464 -15.163,7.62 -20.387,12.169 -4.499,3.921 -8.379,7.305 -13.978,8.799 -13.529,3.604 -33.233,-0.704 -33.431,-0.75 -2.504,-0.559 -5.107,0.392 -6.663,2.43 -1.552,2.045 -1.781,4.8 -0.58,7.066 5.838,10.995 24.03,30.269 51.117,24.514 z m -7.059,-20.55 c 8.552,-2.283 14.229,-7.226 19.238,-11.59 4.741,-4.132 8.837,-7.702 15.131,-9.383 2.903,-0.773 6.52,-1.075 10.323,-1.161 -10.685,5.655 -16.522,11.99 -21.573,17.523 -5.466,5.985 -9.415,10.306 -18.793,12.3 -11.497,2.439 -20.267,-1.321 -26.367,-6.005 6.983,0.394 14.983,0.194 22.041,-1.684 z"
     id="path12" /><path
     d="m 110.39,339.97 c 8.519,-4.581 14.767,-0.712 15.452,-0.259 2.988,1.995 7.064,1.252 9.107,-1.705 2.036,-2.954 1.372,-6.969 -1.551,-9.054 -0.532,-0.379 -13.203,-9.191 -29.236,-0.565 -9.451,5.086 -17.084,3.786 -22.678,-3.864 -2.146,-2.926 -6.259,-3.567 -9.189,-1.421 -2.93,2.146 -3.569,6.261 -1.423,9.191 9.515,12.999 24.288,15.871 39.518,7.677 z"
     id="path14" /><path
     d="m 223.156,152.911 c 29.508,24.157 35.906,60.815 35.971,61.182 0.597,3.58 3.976,6.002 7.555,5.414 3.58,-0.591 6.006,-3.963 5.422,-7.542 -0.281,-1.695 -7.157,-41.837 -40.62,-69.233 -2.806,-2.298 -6.95,-1.887 -9.252,0.923 -2.301,2.81 -1.886,6.954 0.924,9.256 z"
     id="path16" /><path
     d="m 257.375,253.247 c -3.545,-0.787 -7.06,1.446 -7.846,4.994 -0.108,0.478 -0.159,0.959 -0.159,1.429 0,3.017 2.085,5.734 5.154,6.415 0,0 4.532,1.007 6.423,1.425 0.65,3.023 1.366,6.341 1.366,6.341 0.759,3.541 4.239,5.799 7.779,5.057 l 23.048,-4.844 c 3.032,-0.638 5.211,-3.303 5.23,-6.397 0.013,-3.095 -2.129,-5.784 -5.157,-6.459 z"
     id="path18" /><path
     d="m 126.55,314.875 c 0.367,1.697 1.391,3.181 2.85,4.125 0,0 12.223,7.928 21.12,13.696 5.089,3.299 9.092,5.892 9.092,5.892 1.739,1.128 3.906,1.362 5.854,0.645 1.941,-0.717 3.44,-2.314 4.033,-4.301 0.013,-0.044 0.268,-0.872 0.807,-2.236 2.53,-6.39 11.305,-24.505 30.729,-28.68 26.738,-5.746 46.368,14.472 56.535,28.68 1.402,1.96 2.629,3.811 3.666,5.462 -12.646,2.719 -55.257,11.876 -64.824,13.934 -1.091,-5.03 -2.323,-10.736 -2.323,-10.736 -0.767,-3.548 -4.269,-5.808 -7.818,-5.038 -3.552,0.77 -5.806,4.269 -5.038,7.819 l 3.712,17.156 c 0.77,3.544 4.267,5.797 7.81,5.034 l 80.008,-17.195 c 1.964,-0.423 3.626,-1.72 4.515,-3.52 0.889,-1.805 0.906,-3.911 0.042,-5.724 -0.228,-0.493 -1.554,-3.233 -3.932,-7.192 -9.355,-15.593 -35.06,-50.145 -75.114,-41.54 -21.936,4.72 -33.231,21.78 -38.178,32.073 -7.321,-4.75 -18.304,-11.868 -21.266,-13.791 -0.773,-3.56 -3.67,-16.948 -5.318,-24.547 6.275,-1.347 14.897,-3.194 14.897,-3.194 1.706,-0.366 3.196,-1.395 4.14,-2.862 0.696,-1.071 1.054,-2.315 1.054,-3.571 0,-0.457 -0.048,-0.923 -0.148,-1.376 0,0 -0.948,-4.433 -1.73,-8.055 7.819,5.051 15.745,10.169 15.745,10.169 1.463,0.946 3.242,1.269 4.948,0.902 l 56.077,-12.049 c 1.705,-0.367 3.193,-1.394 4.14,-2.857 0,0 11.89,-18.401 15.593,-24.134 7.196,1.627 38.743,8.752 38.743,8.752 2.979,0.672 6.027,-0.794 7.361,-3.541 0.344,-0.713 4.199,-8.997 4.199,-23.89 0,-13.915 -3.527,-33.671 -16.249,-58.309 13.093,8.613 30.798,27.117 41.034,66.758 0.601,2.304 2.391,4.108 4.693,4.713 2.306,0.609 4.753,-0.078 6.406,-1.792 0,0 21.259,-22.039 29.318,-30.397 5.437,8.476 15.737,24.526 15.737,24.526 1.564,2.435 4.542,3.567 7.327,2.773 0,0 14.303,-4.062 23.631,-6.71 -0.409,9.247 -1.005,22.583 -1.005,22.583 -0.004,0.095 -0.009,0.196 -0.009,0.293 0,3.131 2.22,5.848 5.315,6.451 0,0 20.774,4.064 30.566,5.98 -3.185,8.375 -8.687,22.819 -8.687,22.819 -0.289,0.761 -0.426,1.556 -0.426,2.335 0,2.047 0.953,4.033 2.675,5.297 0,0 15.728,11.571 22.467,16.527 -4.834,7.262 -17.429,26.175 -17.429,26.175 -0.702,1.058 -1.068,2.27 -1.101,3.489 0,0.053 0,0.103 0,0.154 0,1.375 0.432,2.747 1.288,3.904 l 4.446,6.036 c -4.124,2.241 -8.211,4.631 -12.261,7.192 -33.285,21.042 -62.69,52.39 -80.684,86.006 -23.374,43.682 -26.565,80.241 -26.69,81.775 -0.293,3.619 2.401,6.788 6.018,7.085 3.618,0.293 6.79,-2.395 7.089,-6.014 0.03,-0.35 3.172,-35.516 25.178,-76.643 16.948,-31.674 44.69,-61.228 76.112,-81.092 23.724,-14.995 60.315,-31.171 104.503,-27.851 -6.788,7.772 -14.615,19.406 -15.863,32.733 -0.116,1.244 -0.172,2.481 -0.172,3.708 0,9.646 3.604,18.651 10.738,26.818 2.39,2.738 6.545,3.019 9.282,0.627 2.736,-2.387 3.012,-6.546 0.626,-9.278 -5.647,-6.463 -8.061,-13.202 -7.383,-20.609 1.658,-18.051 21.084,-33.61 21.278,-33.764 0.308,-0.238 0.584,-0.502 0.839,-0.786 1.438,-1.624 2.006,-3.881 1.45,-6.027 -0.651,-2.521 -2.734,-4.42 -5.306,-4.84 -31.192,-5.059 -62.9,-1.299 -93.309,10.867 -3.189,1.273 -6.362,2.641 -9.522,4.1 -0.989,-1.34 -2.068,-2.806 -3.027,-4.1 -0.013,-0.013 -0.017,-0.027 -0.025,-0.04 3.936,-5.913 18.348,-27.556 18.348,-27.556 0.742,-1.117 1.1,-2.386 1.1,-3.639 0,-2.025 -0.932,-4.016 -2.682,-5.303 0,0 -17.619,-12.964 -23.485,-17.281 2.538,-6.67 9.684,-25.439 9.684,-25.439 0.285,-0.757 0.426,-1.551 0.426,-2.34 0,-1.106 -0.28,-2.207 -0.829,-3.196 -0.94,-1.693 -2.582,-2.888 -4.486,-3.259 0,0 -24.548,-4.802 -32.664,-6.39 0.342,-7.637 1.157,-26.034 1.157,-26.034 0.004,-0.099 0.009,-0.194 0.009,-0.293 0,-2.002 -0.915,-3.906 -2.5,-5.154 -1.657,-1.313 -3.841,-1.75 -5.875,-1.17 0,0 -20.836,5.919 -27.703,7.869 -3.984,-6.212 -17.594,-27.414 -17.594,-27.414 -1.083,-1.69 -2.883,-2.795 -4.886,-2.996 -1.999,-0.194 -3.984,0.536 -5.38,1.982 0,0 -17.747,18.4 -27.225,28.222 -21.055,-65.536 -63.219,-72.45 -65.093,-72.724 -2.553,-0.367 -5.082,0.786 -6.476,2.953 -0.7,1.084 -1.045,2.319 -1.045,3.558 0,1.233 0.345,2.473 1.045,3.556 19.668,30.583 24.046,53.944 24.046,68.678 0,5.721 -0.656,10.123 -1.339,13.163 -8.811,-1.99 -37.309,-8.421 -37.309,-8.421 -2.694,-0.609 -5.473,0.525 -6.971,2.844 0,0 -14.117,21.841 -16.609,25.701 -4.593,0.984 -46.159,9.916 -50.748,10.905 -3.881,-2.507 -26.789,-17.307 -26.789,-17.307 -2.232,-1.442 -5.116,-1.4 -7.304,0.111 -1.8,1.244 -2.837,3.28 -2.837,5.409 0,0.458 0.048,0.923 0.147,1.383 0,0 2.22,10.338 3.683,17.143 -6.278,1.347 -14.912,3.2 -14.912,3.2 -1.705,0.367 -3.193,1.398 -4.144,2.867 -0.691,1.071 -1.05,2.309 -1.05,3.56 0,0.466 0.048,0.934 0.152,1.396 z"
     id="path20" /><path
     d="m 565.869,414.034 c -112.11,-43.094 -171.9,15.171 -174.393,17.671 -2.557,2.568 -2.545,6.712 0.013,9.281 2.563,2.565 6.722,2.565 9.294,0.013 0.143,-0.141 14.187,-13.879 40.794,-22.501 22.621,-7.332 58.929,-12.193 106.932,3.371 -11.48,9.009 -22.774,23.616 -22.774,42.948 0,6.539 1.292,13.616 4.309,21.198 1.343,3.379 5.165,5.026 8.54,3.681 3.377,-1.341 5.021,-5.162 3.678,-8.537 -14.41,-36.23 22.48,-54.293 24.061,-55.039 2.37,-1.136 3.849,-3.571 3.751,-6.2 -0.105,-2.625 -1.753,-4.943 -4.205,-5.886 z"
     id="path22" /><path
     d="m 404.156,462.478 c -3.588,0.518 -6.076,3.84 -5.565,7.428 0.508,3.588 3.832,6.088 7.424,5.586 0.213,-0.025 7.975,-0.991 20.435,0.398 -0.358,0.535 -0.696,1.083 -1.063,1.615 -39.649,57.582 -113.577,77.488 -175.521,51.201 6.183,-11.535 13.017,-23.683 20.696,-35.551 12.823,4.68 26.647,6.813 40.32,6.178 3.63,-0.168 6.432,-3.246 6.262,-6.878 -0.168,-3.626 -3.246,-6.428 -6.872,-6.263 -10.884,0.504 -21.866,-1.024 -32.206,-4.387 10.559,-15.654 21.649,-30.838 32.029,-44.325 4.878,2.163 15.498,6.134 27.914,6.291 3.632,0.046 6.611,-2.859 6.657,-6.489 0.048,-3.632 -2.858,-6.615 -6.488,-6.657 -7.952,-0.105 -15.114,-2.207 -19.66,-3.916 11.137,-14.027 20.924,-25.463 27.539,-32.491 2.698,-2.871 5.102,-5.729 7.265,-8.552 5.057,2.032 13.099,4.594 21.306,4.465 3.632,-0.053 6.532,-3.044 6.476,-6.676 -0.055,-3.63 -3.048,-6.526 -6.678,-6.472 -4.848,0.074 -9.83,-1.221 -13.628,-2.551 11.284,-19.807 10.901,-35.802 10.793,-37.908 -0.048,-1.944 -0.765,-15.933 -10.471,-30.421 6.813,-5.829 15.5,-9.631 25.671,-6.324 25.389,8.245 19.231,41.59 18.96,43.007 -0.689,3.563 1.629,7.015 5.185,7.711 3.563,0.698 7.012,-1.607 7.72,-5.163 3.16,-15.932 1.417,-48.568 -27.802,-58.067 -25.99,-8.444 -45.611,12.853 -54.966,29.628 -7.897,-5.103 -24.626,-15.917 -24.626,-15.917 -2.236,-1.446 -5.12,-1.402 -7.308,0.114 -2.19,1.509 -3.253,4.191 -2.69,6.79 9.423,43.849 -14.389,50.143 -15.41,50.39 0.074,-0.017 -27.781,5.972 -27.781,5.972 -27.354,5.879 -35.746,19.56 -37.463,23.011 -0.255,0.397 -3.238,5.011 -6.027,9.332 -6.596,-4.26 -18.781,-12.131 -18.781,-12.131 -3.052,-1.969 -7.119,-1.096 -9.087,1.952 0,0 -3.972,6.147 -7.931,12.269 -2.323,-10.806 -4.806,-22.336 -4.806,-22.336 -0.615,-2.871 -3.065,-4.985 -5.995,-5.181 -11.019,-0.725 -33.113,4.875 -37.858,31.265 -0.643,3.575 1.731,6.999 5.306,7.637 3.575,0.643 6.99,-1.73 7.637,-5.305 2.715,-15.102 12.956,-19.111 19.242,-20.14 1.727,8.048 6.95,32.345 6.95,32.345 0.557,2.599 2.629,4.605 5.24,5.08 2.616,0.485 5.269,-0.66 6.71,-2.896 0,0 8.586,-13.281 12.977,-20.075 6.598,4.26 18.78,12.132 18.78,12.132 3.048,1.968 7.119,1.096 9.092,-1.957 l 9.809,-15.184 c 0.152,-0.234 0.35,-0.613 0.47,-0.862 0.218,-0.456 5.605,-11.179 28.499,-16.097 l 27.863,-5.991 c 1.244,-0.267 12.4,-2.97 20.364,-15.295 5.042,-7.802 7.57,-17.524 7.57,-29.042 0,-2.216 -0.234,-4.593 -0.419,-6.938 8.927,5.768 18.715,12.096 18.715,12.096 1.628,1.05 3.634,1.326 5.491,0.761 1.849,-0.563 3.362,-1.92 4.128,-3.699 0.065,-0.152 2.681,-6.113 7.424,-12.724 6.2,10.771 6.467,20.469 6.472,20.585 0,0.091 0.004,0.255 0.015,0.341 0.051,0.951 1.064,23.507 -21.98,48.007 -18.331,19.493 -68.285,81.375 -98.432,137.709 l -39.792,74.363 C 129.946,560.515 82.107,490.011 77.783,408.071 l -0.095,-0.013 c -1.315,84.979 44.464,160.844 114.145,201.223 115.255,61.671 257.994,20.766 323.564,-90.994 2.54,2.315 5.074,4.712 7.608,7.275 2.551,2.586 6.714,2.612 9.298,0.065 2.587,-2.555 2.612,-6.718 0.065,-9.305 C 470.579,453.713 406.835,462.09 404.156,462.478 Z"
     id="path24" /><path
     style="fill:#ffffff"
     d="m 249.076,583.074 c -4.338,20.19 3.628,21.831 9.901,23.181 l 3.263,0.7 1.851,-8.609 c -4.747,-1.017 -7.377,-2.143 -5.015,-13.124 2.361,-10.978 5.22,-10.926 9.962,-9.904 l 1.853,-8.606 -3.268,-0.704 c -6.269,-1.347 -14.207,-3.126 -18.547,17.066"
     id="path26" /><path
     style="fill:#ffffff"
     d="m 292.185,601.913 1.183,-23.485 c 3.687,0.329 4.96,1.701 4.441,11.992 -0.517,10.294 -1.921,11.531 -5.624,11.493 m 2.118,-32.279 -0.496,-0.021 -9.231,-0.466 -2.068,41.116 9.235,0.462 0.496,0.025 c 6.408,0.325 14.529,0.799 15.563,-19.828 1.038,-20.622 -7.091,-20.964 -13.499,-21.288 z"
     id="path28" /><path
     style="fill:#ffffff"
     d="m 418.125,569.814 c -2.274,1.451 -2.897,0.898 -8.988,-8.257 -6.096,-9.166 -6.341,-9.914 -4.123,-11.45 2.274,-1.45 2.867,-0.932 8.963,8.229 6.096,9.162 6.364,9.942 4.148,11.478 m 4.182,-17.021 c -11.349,-17.062 -15.942,-14.834 -22.138,-10.747 v 0 c -0.12,0.085 -0.236,0.161 -0.358,0.243 -0.121,0.078 -0.236,0.156 -0.358,0.238 v 0 c -6.164,4.132 -9.998,7.506 1.351,24.569 11.352,17.062 15.949,14.838 22.14,10.744 v 0 c 0.121,-0.076 0.241,-0.158 0.359,-0.236 0.12,-0.082 0.24,-0.161 0.362,-0.243 h -0.004 c 6.168,-4.131 9.998,-7.507 -1.354,-24.568 z"
     id="path30" /><path
     style="fill:#ffffff"
     d="m 389.792,584.784 -3.506,-7.641 c 0.846,-0.762 3.679,-2.829 5.711,1.604 2.046,4.464 -0.266,5.329 -2.205,6.037 m -5.26,-21.198 c 1.737,3.781 -0.949,4.722 -2.098,5.154 l -2.772,-6.039 c 1.223,-0.92 3.515,-2.073 4.87,0.885 z m 7.361,5.042 c 0,0 3.609,-2.02 -0.133,-10.184 -4.326,-9.429 -12.52,-4.486 -12.52,-4.486 l -2.961,1.356 -0.955,0.436 -7.452,3.419 17.162,37.417 8.855,-4.058 c 8.854,-4.062 10.283,-8.462 6.288,-17.165 -3.992,-8.704 -8.284,-6.735 -8.284,-6.735 z"
     id="path32" /><polyline
     style="fill:#ffffff"
     points="250.104,570.135 253.239,561.876 236.325,555.462 233.189,563.72 230.924,569.699   221.722,593.953 230.365,597.229 236.432,581.234 244.267,584.208 247.402,575.951 239.566,572.975 241.837,566.996   250.104,570.135 "
     id="polyline34" /><polyline
     style="fill:#ffffff"
     points="328.832,577.518 328.168,568.71 310.13,570.07 310.796,578.877 311.274,585.258   311.939,594.065 313.231,611.121 331.267,609.757 330.602,600.95 321.783,601.616 321.161,593.37 329.515,592.739 328.849,583.928   320.497,584.558 320.013,578.181 328.832,577.518 "
     id="polyline36" /><polyline
     style="fill:#ffffff"
     points="346.752,565.209 350.854,584.39 349.883,584.598 339.665,566.725 330.624,568.653   339.229,608.912 347.488,607.146 343.361,587.831 344.193,587.655 354.575,605.632 354.628,605.622 363.616,603.701   355.011,563.442 346.752,565.209 "
     id="polyline38" /><path
     style="fill:#ffffff"
     d="m 438.685,553.712 c 1.537,-1.29 1.76,-2.452 0.615,-3.812 -1.661,-1.977 -4.643,-1.343 -8.853,-1.627 -4.693,-0.329 -7.856,-1.866 -10.698,-5.251 -4.977,-5.926 -4.188,-11.68 2.401,-17.212 0,0 2.02,-1.589 5.088,-2.69 l 6.418,7.637 c -2.855,1.174 -4.25,1.916 -5.346,2.835 -1.32,1.107 -1.507,2.31 -0.548,3.455 1.364,1.624 4.663,1.179 10.237,1.667 4.201,0.367 6.678,1.805 9.186,4.792 5.422,6.453 5.104,11.963 -1.355,17.385 -4.524,3.798 -7.144,3.988 -7.835,3.997 l -6.459,-7.689 c -0.002,0.001 4.699,-1.432 7.149,-3.487"
     id="path40" /><path
     style="fill:#ffffff"
     d="m 444.148,534.133 c 15.654,13.47 20.905,7.262 25.092,2.401 l 2.182,-2.534 -6.676,-5.742 c -3.169,3.678 -5.414,5.449 -13.928,-1.878 -8.508,-7.325 -7.091,-9.809 -3.927,-13.487 l -6.674,-5.746 -2.178,2.53 c -4.186,4.866 -9.544,10.984 6.109,24.456"
     id="path42" /><polyline
     style="fill:#ffffff"
     points="450.682,493.72 463.14,502.479 460.905,505.658 448.449,496.897 443.13,504.457   476.804,528.138 482.124,520.579 468.131,510.738 470.364,507.562 484.354,517.399 489.673,509.836 455.999,486.161 450.682,493.72   "
     id="polyline44" /><path
     d="m 196.411,480.345 c -3.566,-7.062 -8.324,-13.128 -13.902,-18.097 v 0 c -14.204,-16.069 -36.429,-24.252 -58.852,-19.456 -4.667,0.997 -9.088,2.517 -13.231,4.462 l -0.004,-0.004 c -0.018,0.009 -0.036,0.019 -0.049,0.027 -25.224,11.863 -39.974,39.95 -33.901,68.353 2.791,13.067 9.591,24.261 18.818,32.607 17.985,20.692 48.396,27.439 73.966,14.541 30.212,-15.238 42.394,-52.221 27.155,-82.433 z"
     id="path46" /><path
     style="fill:#ffffff"
     d="m 130.686,563.898 c 0.029,0.004 0.057,0.008 0.086,0.012 -0.029,-0.004 -0.057,-0.008 -0.086,-0.012"
     id="path48" /><path
     style="fill:#ffffff"
     d="m 80.655,514.737 c -3.423,-16.004 0.272,-31.896 8.915,-44.398 -2.797,6.99 -2.793,12.749 -2.656,14.903 -4.8,6.294 -6.625,14.265 -4.964,22.031 1.655,7.74 6.549,14.237 13.458,18.027 1.36,4.733 8.725,25.709 33.781,34.124 -23.331,-3.035 -43.34,-20.403 -48.534,-44.687 z"
     id="path50" /><path
     style="fill:#ffffff"
     d="m 105.305,489.956 c 5.253,-1.121 10.002,-3.931 13.635,-7.861 4.924,2.098 10.402,2.72 15.662,1.598 5.15,-1.096 9.805,-3.834 13.414,-7.633 5.504,3.238 9.454,8.487 10.797,14.777 1.347,6.299 -0.112,12.701 -3.817,17.904 -4.842,-1.995 -10.209,-2.576 -15.355,-1.484 -5.26,1.126 -10.004,3.938 -13.639,7.869 -4.922,-2.097 -10.405,-2.724 -15.659,-1.6 -5.149,1.101 -9.804,3.824 -13.413,7.631 -5.508,-3.238 -9.454,-8.482 -10.801,-14.777 -1.347,-6.294 0.112,-12.701 3.811,-17.903 4.853,1.997 10.216,2.581 15.365,1.479 z"
     id="path52" /><path
     style="fill:#ffffff"
     d="m 112.433,451.032 c 3.799,-1.76 7.848,-3.146 12.119,-4.06 1.882,-0.402 3.761,-0.704 5.639,-0.917 -15.488,10.095 -14.542,28.287 -14.031,32.844 -3.101,3.512 -7.133,5.89 -11.748,6.878 -4.515,0.964 -9.075,0.483 -13.262,-1.351 -0.156,-4.494 0.797,-20.943 21.283,-33.394 z"
     id="path54" /><path
     style="fill:#ffffff"
     d="m 140.654,445.865 c 6.695,0.501 13.167,2.163 19.151,4.856 -12.062,4.878 -13.919,18.266 -14.195,21.742 -3.122,3.605 -7.213,6.048 -11.901,7.049 -4.551,0.972 -9.14,0.479 -13.354,-1.389 -0.578,-4.975 -1.538,-25.337 20.299,-32.258 z"
     id="path56" /><path
     style="fill:#ffffff"
     d="m 173.137,459.076 c 24.75,36.017 10.46,60.659 7.776,64.684 -13.185,3.967 -20.65,-8.35 -22.602,-12.165 4.581,-6.239 6.312,-14.035 4.684,-21.647 -1.623,-7.597 -6.376,-13.995 -13.08,-17.813 0.379,-3.98 2.591,-16.306 15.435,-18.559 2.744,1.614 5.344,3.457 7.787,5.5 z"
     id="path58" /><path
     style="fill:#ffffff"
     d="m 185.738,531.62 c -0.993,-2.127 -1.265,-4.368 -1.334,-5.414 2.367,-3.668 12.926,-22.366 2.82,-49.569 2.271,4.395 4.01,9.157 5.093,14.231 3.102,14.478 0.378,28.876 -6.579,40.752 z"
     id="path60" /><path
     style="fill:#ffffff"
     d="m 165.301,552.08 c -5.042,2.953 -10.616,5.177 -16.617,6.493 -37.978,-1.627 -47.498,-28.428 -49.091,-34.109 3.088,-3.445 7.085,-5.785 11.645,-6.761 4.639,-0.993 9.326,-0.457 13.607,1.505 2.013,5.206 13.457,31.283 40.456,32.872 z"
     id="path62" /><path
     style="fill:#ffffff"
     d="m 171.716,547.712 c -28.656,2.572 -40.446,-23.677 -42.735,-29.621 3.073,-3.381 7.037,-5.69 11.55,-6.645 4.676,-1.005 9.393,-0.453 13.698,1.543 3.385,7.222 12.498,18.255 26.04,15.363 0.032,-0.004 0.058,-0.017 0.087,-0.025 0.32,2.037 1.058,4.861 2.789,7.313 -3.187,4.534 -7.029,8.613 -11.429,12.072 z"
     id="path64" /></g>
</svg>
