<?xml version="1.0" encoding="iso-8859-1"?>
<!-- Generator: Adobe Illustrator 24.0.1, SVG Export Plug-In . SVG Version: 6.00 Build 0)  -->
<svg version="1.1" id="Calque_1" xmlns="http://www.w3.org/2000/svg" xmlns:xlink="http://www.w3.org/1999/xlink" x="0px" y="0px"
	 viewBox="0 0 595.276 841.89" style="enable-background:new 0 0 595.276 841.89;" xml:space="preserve">
<path style="fill:#FFFFFF;" d="M583.091,478.587l-2.893-2.054c-3.055-2.167-6.346-2.403-9.169-2.391c-0.193,0-0.4,0.001-0.618,0.004
	c-3.016,0.075-7.942,0.271-11.975,3.745c-0.109,0.081-0.213,0.168-0.314,0.263l-0.124,0.118c-0.054,0.051-0.106,0.104-0.156,0.158
	c-1.199,1.151-2.499,2.845-3.772,5.421c-1.141,2.296-2.311,5.323-3.542,9.51c-3.806,0.234-7.692,1.692-11.909,4.138l-0.049,0.03
	c-3.543,2.132-6.513,4.553-9.13,7.47c0.837-3.029,1.307-6.143,1.31-9.273c0-0.099-0.002-0.185-0.002-0.257
	c-0.017-9.969-7.224-18.161-16.857-18.131c-0.001,0-0.008,0-0.022,0c-0.026-0.001-0.078-0.001-0.159,0.002
	c-3.641,0.042-7.17,1.122-10.188,3.107c-6.477,4.09-12.658,11.37-17.639,19.47c-0.784-1.452-1.758-2.632-2.863-3.51
	c-2.762-2.212-5.688-2.509-7.239-2.517c-0.008,0-0.021,0-0.039,0c-0.034-0.001-0.088-0.001-0.165,0.001
	c-1.563,0.01-3.011,0.335-4.276,0.856c-1.261-0.482-2.685-0.795-4.229-0.792c0,0-0.007,0-0.022,0c-0.02,0-0.058,0-0.118,0.001
	c-3.218,0.028-6.315,0.991-8.845,2.915l-0.151,0.122l-0.09,0.075c-2.354,1.89-4.128,4.211-5.487,6.861
	c-0.029,0.057-0.053,0.119-0.082,0.176c-1.338-1.551-2.9-2.88-4.647-3.914c-0.287-1.389-0.896-2.653-1.745-3.634
	c-1.835-2.119-4.223-2.929-6.347-3.377c-2.152-0.432-4.22-0.469-5.787-0.472c-0.327,0-0.639,0.001-0.932,0.004
	c-1.769,0.02-3.527,0.181-5.263,0.471c42.771-24.211,69.763-54.005,69.763-82.207c0-35.361-41.25-58.782-100.426-65.9
	c0.327-2.47,0.508-4.953,0.508-7.441c0-7.042-1.313-14.099-3.928-20.881c-5.826-15.101-17.487-27.137-32.69-33.813
	c-10.205-4.507-21.101-6.772-32.028-6.772c-8.97,0-17.963,1.525-26.616,4.58c-10.157,3.587-19.248,9.069-26.824,16.101
	c-1.434-0.081-2.894-0.123-4.371-0.123c-15.364,0.022-32.872,4.422-44.707,16.479c-0.742,0.742-1.441,1.578-2.077,2.474
	c-1.609,1.844-2.987,3.917-4.031,5.988c-1.528,3.052-2.938,6.615-4.122,10.531c-1.577,3.618-3.132,6.522-4.936,8.519
	c-2.861,3.191-6.65,6.158-10.478,9.098c-3.318,2.63-7.565,5.642-10.103,9.52c-1.004,1.598-4.44,5.496-8.724,9.68
	c-4.305,4.225-9.562,8.922-14.54,12.752c-3.14,2.409-5.775,4.762-7.985,7.183c-47.5,24.953-77.981,56.715-77.981,86.683
	c0,4.484,0.672,8.774,1.951,12.866c-6.072,3.635-10.707,7.579-14.717,12.621c0.796-1.727,1.287-3.803,1.274-6.168
	c0-0.07,0-0.112,0-0.121v-0.048c0.01-2.101-0.411-6.089-3.845-9.083c-0.121-0.111-0.168-0.134-0.222-0.182
	c-0.242-0.177-0.224-0.152-0.277-0.188c-0.281-0.17-0.909-0.522-1.641-0.936c-0.7-0.397-1.369-0.773-1.371-0.773l-0.627-0.273
	c-2.286-0.77-4.037-1.002-6.646-0.965c-0.457,0-0.964,0.002-1.538,0.007c-0.407-0.016-1.371-0.047-1.58-0.055l-3.168-0.143
	c-3.984-0.267-10.477-0.456-12.727-0.457c-0.043,0-0.115-0.001-0.233,0.002c-2.516,0.013-4.675,0.329-6.646,1.141l-0.058,0.025
	l-0.167,0.071l-0.043,0.02c-3.9,1.798-7.13,5.003-9.36,7.685c-0.11,0.106-0.199,0.212-0.264,0.313
	c-0.026,0.033-0.055,0.07-0.087,0.113c-1.844,2.283-3.009,4.997-3.019,7.888c0,0,0,0.044,0.001,0.126
	c-0.003,3.082,1.266,5.817,3.172,7.535c0.808,0.744,1.681,1.323,2.579,1.782c-2.031,5.002-4.259,10.818-6.112,16.101
	c-1.136,3.241-2.13,6.276-2.855,8.836c-0.717,2.608-1.206,4.533-1.239,6.373c0.001,0-0.001,0.042,0.002,0.137
	c0.047,3.656,1.929,6.88,4.64,8.997c2.734,2.155,6.32,3.351,10.223,3.354c0.068,0,0.088,0,0.088,0h0.061
	c4.644-0.038,9.115-2.066,12.716-5.432c3.41-3.118,5.787-6.881,7.972-12.534c0.49-0.02,0.847-0.034,0.966-0.039l1.655-0.013
	c1.91-0.024,3.85-0.021,5.88-0.389c0.946-0.169,1.925-0.445,2.886-0.855c1.311,4.414,3.877,8.315,7.301,11.337
	c5.037,4.462,11.914,7.101,19.494,7.101c0.096,0,0.18-0.001,0.253-0.001c4.829-0.056,10.757-1.464,16.561-3.508
	c5.776-2.063,11.295-4.713,15.125-7.704v0.001c2.691-2.086,4.322-4.823,6.141-8.253c0.768-1.471,1.358-2.929,1.743-4.38
	c2.06,0.877,4.177,1.723,6.355,2.533c0.991,5.079,3.555,9.609,7.513,13.013c5.65,4.946,14.209,7.715,22.94,7.75
	c0.108,0,0.204,0,0.29,0c9.135-0.094,17.494-3.361,24.167-8.763c1.734,0.178,3.481,0.344,5.243,0.495
	c0.595,1.151,1.32,2.216,2.196,3.151c2.601,2.805,6.384,4.377,10.502,4.357h0.02h0.121c2.729-0.017,5.321-0.919,7.688-2.384
	c1.328-0.817,2.618-1.8,3.933-2.944c2.669,3.357,6.861,5.47,11.553,5.459v-0.002l0.129,0.002c2.445-0.013,4.717-0.566,6.73-1.586
	c2.021-1.018,3.773-2.398,5.674-4.05l0.055-0.048l0.114-0.104c0.003-0.002,0.027-0.025,0.072-0.067
	c0.945,2.635,2.498,5.1,4.92,7.219l0.04,0.036c3.61,3.146,7.91,4.936,12.348,4.929l0.003-0.001l0.132,0.002
	c2.956-0.042,6.002-0.765,8.69-2.277c1.754-0.986,3.392-2.404,4.544-4.236c1.49,0.481,3.08,0.747,4.731,0.747
	c0.013,0,0.026,0,0.04,0l0.019-0.001l0.123,0.001c3.279-0.018,6.427-1.185,8.956-3.295l0.258-0.203l0.447-0.424l0.115-0.132
	l2.681-3.044l0.048-0.055c0.513-0.608,1.122-1.309,1.789-2.06c3,4.871,8.038,8.119,14.042,8.087h0.005l0.122,0.001
	c3.611-0.084,7.448-1.252,10.599-3.117c2.319,1.788,5.052,2.785,7.951,2.865l0.155,0.003h0.144h0.235
	c2.126-0.022,4.22-0.453,6.141-1.307l0.103-0.048l0.307-0.151l0.311-0.173l0.281-0.177c3.605-2.253,5.181-5.621,6.045-7.85
	c0.123-0.295,0.229-0.592,0.348-0.887c1.174,2.572,2.55,4.685,4.246,6.438l0.138,0.144l0.136,0.135
	c2.54,2.427,5.892,3.761,9.401,3.725v-0.003l0.141,0.003c3.279-0.006,6.343-1.063,8.897-2.912c1.214-0.871,2.331-1.894,3.389-3.051
	c3.971,6.261,10.048,10.145,16.906,10.145c0.025,0,0.051,0,0.076,0c0.069,0,0.102,0,0.103,0h0.064
	c3.663-0.01,6.868-1.102,9.378-2.954c2.521-1.846,4.35-4.271,6.005-6.901l0.021-0.035c1.035-1.694,1.979-3.406,2.86-5.151
	c0.837,1.12,1.723,2.04,2.567,2.753c5.391,4.481,13.646,6.975,21.658,7.026c0.117,0,0.206-0.001,0.269-0.001h0.045
	c7.896-0.106,16.405-3.216,22.913-8.227c0.86,2.277,2.136,4.084,3.717,5.358c2.929,2.372,6.241,2.81,8.559,2.817l0.001-0.002
	l0.136,0.002c4.218-0.047,8.31-1.677,11.756-4.5c1.999-1.623,3.508-3.43,4.425-5.523c0.795-1.804,1.145-3.655,1.393-5.694
	c0.908,3.846,2.905,7.238,5.763,9.78c3.935,3.523,9.353,5.453,15.418,5.453c0.007,0,0.014,0,0.021,0c0.087,0,0.151,0,0.195,0h0.05
	c7.268-0.076,14.167-3.143,19.374-7.7c0.849-0.749,1.652-1.544,2.41-2.376c0.797,2.013,1.929,3.832,3.369,5.362
	c2.957,3.165,7.199,5.048,11.866,5.048c0.016,0,0.031,0,0.047,0c0.068,0,0.088,0,0.088,0h0.07
	c5.548-0.145,10.869-2.915,15.421-5.964c2.217,3.369,6.111,5.355,10.305,5.348c0.035,0,0.036,0,0.036,0v-0.001l0.066,0.001
	c5.824-0.135,11.934-3.208,16.409-5.97l3.104-1.986c1.296-0.829,1.86-2.423,1.375-3.882l-1.126-3.378
	c-2.332-6.982-3.282-12.049-3.323-17.36c-0.002-0.179-0.003-0.339-0.003-0.494c-0.002-3.655,0.469-8.464,1.288-13.104
	c1.162-6.454,1.781-8.693,4.224-15.484l1.182-3.252C584.815,481.047,584.319,479.46,583.091,478.587z M63.163,508.982
	c-0.865-0.429-1.781-0.77-2.76-1.016c0.324-0.114,0.653-0.237,0.992-0.371c1.19-0.449,2.744-1.228,4.218-2.564
	C64.73,506.335,63.912,507.654,63.163,508.982z"/>
<linearGradient id="SVGID_1_" gradientUnits="userSpaceOnUse" x1="159.8149" y1="563.1284" x2="159.8149" y2="314.9575">
	<stop  offset="0" style="stop-color:#DBDCEF"/>
	<stop  offset="0.1613" style="stop-color:#BCBEE0"/>
	<stop  offset="0.5665" style="stop-color:#7D83C0"/>
	<stop  offset="0.8561" style="stop-color:#5A67B0"/>
	<stop  offset="1" style="stop-color:#4B5EAA"/>
</linearGradient>
<path style="fill:url(#SVGID_1_);" d="M104.074,511.366c2.552,2.016,5.331,3.953,8.341,5.805h103.141
	c-1.748-1.852-3.364-3.803-4.85-5.805H104.074z"/>
<linearGradient id="SVGID_2_" gradientUnits="userSpaceOnUse" x1="148.7969" y1="563.1284" x2="148.7969" y2="314.9575">
	<stop  offset="0" style="stop-color:#DBDCEF"/>
	<stop  offset="0.1613" style="stop-color:#BCBEE0"/>
	<stop  offset="0.5665" style="stop-color:#7D83C0"/>
	<stop  offset="0.8561" style="stop-color:#5A67B0"/>
	<stop  offset="1" style="stop-color:#4B5EAA"/>
</linearGradient>
<path style="fill:url(#SVGID_2_);" d="M91.593,498.087c1.299,1.95,2.772,3.861,4.411,5.7h109.997c-0.952-1.839-1.806-3.75-2.563-5.7
	H91.593z"/>
<linearGradient id="SVGID_3_" gradientUnits="userSpaceOnUse" x1="153.4634" y1="563.1284" x2="153.4634" y2="314.9575">
	<stop  offset="0" style="stop-color:#DBDCEF"/>
	<stop  offset="0.1613" style="stop-color:#BCBEE0"/>
	<stop  offset="0.5665" style="stop-color:#7D83C0"/>
	<stop  offset="0.8561" style="stop-color:#5A67B0"/>
	<stop  offset="1" style="stop-color:#4B5EAA"/>
</linearGradient>
<path style="fill:url(#SVGID_3_);" d="M96.855,504.723c1.849,2.003,3.881,3.901,6.113,5.759h107.104
	c-1.302-1.858-2.49-3.756-3.563-5.759H96.855z"/>
<linearGradient id="SVGID_4_" gradientUnits="userSpaceOnUse" x1="168.3967" y1="563.1284" x2="168.3967" y2="314.9575">
	<stop  offset="0" style="stop-color:#DBDCEF"/>
	<stop  offset="0.1613" style="stop-color:#BCBEE0"/>
	<stop  offset="0.5665" style="stop-color:#7D83C0"/>
	<stop  offset="0.8561" style="stop-color:#5A67B0"/>
	<stop  offset="1" style="stop-color:#4B5EAA"/>
</linearGradient>
<path style="fill:url(#SVGID_4_);" d="M113.796,517.989c3.537,2.094,7.35,4.051,11.453,5.864h97.749
	c-2.379-1.819-4.591-3.783-6.636-5.864H113.796z"/>
<linearGradient id="SVGID_5_" gradientUnits="userSpaceOnUse" x1="180.2426" y1="563.1284" x2="180.2426" y2="314.9575">
	<stop  offset="0" style="stop-color:#DBDCEF"/>
	<stop  offset="0.1613" style="stop-color:#BCBEE0"/>
	<stop  offset="0.5665" style="stop-color:#7D83C0"/>
	<stop  offset="0.8561" style="stop-color:#5A67B0"/>
	<stop  offset="1" style="stop-color:#4B5EAA"/>
</linearGradient>
<path style="fill:url(#SVGID_5_);" d="M127.036,524.626c5.115,2.179,10.635,4.169,16.539,5.923h89.875
	c-3.368-1.767-6.522-3.757-9.438-5.923H127.036z"/>
<linearGradient id="SVGID_6_" gradientUnits="userSpaceOnUse" x1="142.2979" y1="563.1284" x2="142.2979" y2="314.9575">
	<stop  offset="0" style="stop-color:#DBDCEF"/>
	<stop  offset="0.1613" style="stop-color:#BCBEE0"/>
	<stop  offset="0.5665" style="stop-color:#7D83C0"/>
	<stop  offset="0.8561" style="stop-color:#5A67B0"/>
	<stop  offset="1" style="stop-color:#4B5EAA"/>
</linearGradient>
<path style="fill:url(#SVGID_6_);" d="M84.701,478.191c0.128,1.885,0.38,3.705,0.753,5.53h114.44
	c-0.229-1.826-0.366-3.646-0.425-5.53H84.701z"/>
<linearGradient id="SVGID_7_" gradientUnits="userSpaceOnUse" x1="142.0852" y1="563.1284" x2="142.0852" y2="314.9575">
	<stop  offset="0" style="stop-color:#DBDCEF"/>
	<stop  offset="0.1613" style="stop-color:#BCBEE0"/>
	<stop  offset="0.5665" style="stop-color:#7D83C0"/>
	<stop  offset="0.8561" style="stop-color:#5A67B0"/>
	<stop  offset="1" style="stop-color:#4B5EAA"/>
</linearGradient>
<path style="fill:url(#SVGID_7_);" d="M84.636,477.033h114.798c-0.03-1.793,0.016-3.632,0.124-5.465H84.813
	C84.629,473.4,84.577,475.239,84.636,477.033z"/>
<linearGradient id="SVGID_8_" gradientUnits="userSpaceOnUse" x1="379.436" y1="563.1284" x2="379.436" y2="314.9575">
	<stop  offset="0" style="stop-color:#DBDCEF"/>
	<stop  offset="0.1613" style="stop-color:#BCBEE0"/>
	<stop  offset="0.5665" style="stop-color:#7D83C0"/>
	<stop  offset="0.8561" style="stop-color:#5A67B0"/>
	<stop  offset="1" style="stop-color:#4B5EAA"/>
</linearGradient>
<path style="fill:url(#SVGID_8_);" d="M378.755,511.883c0.458-0.184,0.91-0.347,1.361-0.517h-0.55
	C379.279,511.536,379.023,511.7,378.755,511.883z"/>
<linearGradient id="SVGID_9_" gradientUnits="userSpaceOnUse" x1="145.5112" y1="563.1284" x2="145.5112" y2="314.9575">
	<stop  offset="0" style="stop-color:#DBDCEF"/>
	<stop  offset="0.1613" style="stop-color:#BCBEE0"/>
	<stop  offset="0.5665" style="stop-color:#7D83C0"/>
	<stop  offset="0.8561" style="stop-color:#5A67B0"/>
	<stop  offset="1" style="stop-color:#4B5EAA"/>
</linearGradient>
<path style="fill:url(#SVGID_9_);" d="M87.957,491.47c0.845,1.911,1.846,3.796,3.001,5.628h112.107
	c-0.668-1.832-1.256-3.717-1.741-5.628H87.957z"/>
<linearGradient id="SVGID_10_" gradientUnits="userSpaceOnUse" x1="143.3926" y1="563.1284" x2="143.3926" y2="314.9575">
	<stop  offset="0" style="stop-color:#DBDCEF"/>
	<stop  offset="0.1613" style="stop-color:#BCBEE0"/>
	<stop  offset="0.5665" style="stop-color:#7D83C0"/>
	<stop  offset="0.8561" style="stop-color:#5A67B0"/>
	<stop  offset="1" style="stop-color:#4B5EAA"/>
</linearGradient>
<path style="fill:url(#SVGID_10_);" d="M85.709,484.821c0.465,1.911,1.07,3.763,1.813,5.596h113.554
	c-0.439-1.832-0.789-3.685-1.05-5.596H85.709z"/>
<linearGradient id="SVGID_11_" gradientUnits="userSpaceOnUse" x1="218.1936" y1="563.1284" x2="218.1936" y2="314.9575">
	<stop  offset="0" style="stop-color:#DBDCEF"/>
	<stop  offset="0.1613" style="stop-color:#BCBEE0"/>
	<stop  offset="0.5665" style="stop-color:#7D83C0"/>
	<stop  offset="0.8561" style="stop-color:#5A67B0"/>
	<stop  offset="1" style="stop-color:#4B5EAA"/>
</linearGradient>
<path style="fill:url(#SVGID_11_);" d="M245.544,539.764c3.878-0.216,7.762-0.504,11.63-0.838c-1.492-0.308-2.961-0.654-4.404-1.034
	h-73.556C198.985,540.458,221.283,541.171,245.544,539.764z"/>
<linearGradient id="SVGID_12_" gradientUnits="userSpaceOnUse" x1="128.1123" y1="563.1284" x2="128.1123" y2="314.9575">
	<stop  offset="0" style="stop-color:#DBDCEF"/>
	<stop  offset="0.1613" style="stop-color:#BCBEE0"/>
	<stop  offset="0.5665" style="stop-color:#7D83C0"/>
	<stop  offset="0.8561" style="stop-color:#5A67B0"/>
	<stop  offset="1" style="stop-color:#4B5EAA"/>
</linearGradient>
<path style="fill:url(#SVGID_12_);" d="M106.956,430.395h42.312c-0.802-1.819-1.512-3.685-2.114-5.563H112.69
	C110.687,426.665,108.77,428.536,106.956,430.395z"/>
<linearGradient id="SVGID_13_" gradientUnits="userSpaceOnUse" x1="198.1882" y1="563.1284" x2="198.1882" y2="314.9575">
	<stop  offset="0" style="stop-color:#DBDCEF"/>
	<stop  offset="0.1613" style="stop-color:#BCBEE0"/>
	<stop  offset="0.5665" style="stop-color:#7D83C0"/>
	<stop  offset="0.8561" style="stop-color:#5A67B0"/>
	<stop  offset="1" style="stop-color:#4B5EAA"/>
</linearGradient>
<path style="fill:url(#SVGID_13_);" d="M146.045,531.255c8.695,2.474,18.197,4.47,28.414,5.982h75.873
	c-5.546-1.59-10.73-3.58-15.488-5.982H146.045z"/>
<linearGradient id="SVGID_14_" gradientUnits="userSpaceOnUse" x1="133.6509" y1="563.1284" x2="133.6509" y2="314.9575">
	<stop  offset="0" style="stop-color:#DBDCEF"/>
	<stop  offset="0.1613" style="stop-color:#BCBEE0"/>
	<stop  offset="0.5665" style="stop-color:#7D83C0"/>
	<stop  offset="0.8561" style="stop-color:#5A67B0"/>
	<stop  offset="1" style="stop-color:#4B5EAA"/>
</linearGradient>
<path style="fill:url(#SVGID_14_);" d="M121.967,416.938h23.368c-0.184-1.453-0.315-2.88-0.315-4.234
	c0-0.491,0.036-0.975,0.059-1.453h-15.534C126.921,413.109,124.392,415.007,121.967,416.938z"/>
<linearGradient id="SVGID_15_" gradientUnits="userSpaceOnUse" x1="144.1978" y1="563.1284" x2="144.1978" y2="314.9575">
	<stop  offset="0" style="stop-color:#DBDCEF"/>
	<stop  offset="0.1613" style="stop-color:#BCBEE0"/>
	<stop  offset="0.5665" style="stop-color:#7D83C0"/>
	<stop  offset="0.8561" style="stop-color:#5A67B0"/>
	<stop  offset="1" style="stop-color:#4B5EAA"/>
</linearGradient>
<path style="fill:url(#SVGID_15_);" d="M147.177,399.855c-2.022,1.198-4.019,2.389-5.959,3.593h4.958
	C146.454,402.218,146.797,401.027,147.177,399.855z"/>
<linearGradient id="SVGID_16_" gradientUnits="userSpaceOnUse" x1="429.5486" y1="563.1284" x2="429.5486" y2="314.9575">
	<stop  offset="0" style="stop-color:#DBDCEF"/>
	<stop  offset="0.1613" style="stop-color:#BCBEE0"/>
	<stop  offset="0.5665" style="stop-color:#7D83C0"/>
	<stop  offset="0.8561" style="stop-color:#5A67B0"/>
	<stop  offset="1" style="stop-color:#4B5EAA"/>
</linearGradient>
<path style="fill:url(#SVGID_16_);" d="M445.642,478.191h-27.128c-1.629,1.885-3.318,3.705-5.059,5.53h23.718
	C440.086,481.896,442.913,480.076,445.642,478.191z"/>
<linearGradient id="SVGID_17_" gradientUnits="userSpaceOnUse" x1="138.4988" y1="563.1284" x2="138.4988" y2="314.9575">
	<stop  offset="0" style="stop-color:#DBDCEF"/>
	<stop  offset="0.1613" style="stop-color:#BCBEE0"/>
	<stop  offset="0.5665" style="stop-color:#7D83C0"/>
	<stop  offset="0.8561" style="stop-color:#5A67B0"/>
	<stop  offset="1" style="stop-color:#4B5EAA"/>
</linearGradient>
<path style="fill:url(#SVGID_17_);" d="M131.021,410.196h14.13c0.174-2.009,0.452-3.914,0.825-5.746h-6.329
	C136.669,406.348,133.796,408.246,131.021,410.196z"/>
<linearGradient id="SVGID_18_" gradientUnits="userSpaceOnUse" x1="130.3652" y1="563.1284" x2="130.3652" y2="314.9575">
	<stop  offset="0" style="stop-color:#DBDCEF"/>
	<stop  offset="0.1613" style="stop-color:#BCBEE0"/>
	<stop  offset="0.5665" style="stop-color:#7D83C0"/>
	<stop  offset="0.8561" style="stop-color:#5A67B0"/>
	<stop  offset="1" style="stop-color:#4B5EAA"/>
</linearGradient>
<path style="fill:url(#SVGID_18_);" d="M113.953,423.667h32.825c-0.553-1.893-1.001-3.785-1.299-5.63h-24.896
	C118.286,419.882,116.067,421.774,113.953,423.667z"/>
<linearGradient id="SVGID_19_" gradientUnits="userSpaceOnUse" x1="126.7346" y1="563.1284" x2="126.7346" y2="314.9575">
	<stop  offset="0" style="stop-color:#DBDCEF"/>
	<stop  offset="0.1613" style="stop-color:#BCBEE0"/>
	<stop  offset="0.5665" style="stop-color:#7D83C0"/>
	<stop  offset="0.8561" style="stop-color:#5A67B0"/>
	<stop  offset="1" style="stop-color:#4B5EAA"/>
</linearGradient>
<path style="fill:url(#SVGID_19_);" d="M95.847,443.871h61.776c-1.401-1.61-2.785-3.43-4.081-5.458h-53.65
	C98.445,440.225,97.104,442.031,95.847,443.871z"/>
<linearGradient id="SVGID_20_" gradientUnits="userSpaceOnUse" x1="133.3154" y1="563.1284" x2="133.3154" y2="314.9575">
	<stop  offset="0" style="stop-color:#DBDCEF"/>
	<stop  offset="0.1613" style="stop-color:#BCBEE0"/>
	<stop  offset="0.5665" style="stop-color:#7D83C0"/>
	<stop  offset="0.8561" style="stop-color:#5A67B0"/>
	<stop  offset="1" style="stop-color:#4B5EAA"/>
</linearGradient>
<path style="fill:url(#SVGID_20_);" d="M86.291,463.662h94.048c-2.608-1.341-5.311-3.154-7.707-5.36H88.075
	C87.372,460.095,86.779,461.881,86.291,463.662z"/>
<linearGradient id="SVGID_21_" gradientUnits="userSpaceOnUse" x1="142.6074" y1="563.1284" x2="142.6074" y2="314.9575">
	<stop  offset="0" style="stop-color:#DBDCEF"/>
	<stop  offset="0.1613" style="stop-color:#BCBEE0"/>
	<stop  offset="0.5665" style="stop-color:#7D83C0"/>
	<stop  offset="0.8561" style="stop-color:#5A67B0"/>
	<stop  offset="1" style="stop-color:#4B5EAA"/>
</linearGradient>
<path style="fill:url(#SVGID_21_);" d="M84.95,470.337h114.696c0.134-1.774,0.34-3.593,0.619-5.413h-0.985
	c-4.916,1.42-9.86,2.061-13.849,0.844c-0.733-0.242-1.522-0.51-2.324-0.844H85.948C85.497,466.757,85.176,468.564,84.95,470.337z"/>
<linearGradient id="SVGID_22_" gradientUnits="userSpaceOnUse" x1="129.2871" y1="563.1284" x2="129.2871" y2="314.9575">
	<stop  offset="0" style="stop-color:#DBDCEF"/>
	<stop  offset="0.1613" style="stop-color:#BCBEE0"/>
	<stop  offset="0.5665" style="stop-color:#7D83C0"/>
	<stop  offset="0.8561" style="stop-color:#5A67B0"/>
	<stop  offset="1" style="stop-color:#4B5EAA"/>
</linearGradient>
<path style="fill:url(#SVGID_22_);" d="M91.858,450.272h74.858c-0.049-0.105-0.108-0.21-0.147-0.308
	c-1.197-0.308-2.33-0.694-3.314-1.244c-1.447-0.811-2.919-2.042-4.389-3.521H94.937C93.828,446.881,92.804,448.576,91.858,450.272z"
	/>
<linearGradient id="SVGID_23_" gradientUnits="userSpaceOnUse" x1="129.9382" y1="563.1284" x2="129.9382" y2="314.9575">
	<stop  offset="0" style="stop-color:#DBDCEF"/>
	<stop  offset="0.1613" style="stop-color:#BCBEE0"/>
	<stop  offset="0.5665" style="stop-color:#7D83C0"/>
	<stop  offset="0.8561" style="stop-color:#5A67B0"/>
	<stop  offset="1" style="stop-color:#4B5EAA"/>
</linearGradient>
<path style="fill:url(#SVGID_23_);" d="M89.381,455.173c-0.269,0.602-0.517,1.204-0.772,1.78h82.66
	c-1.433-1.486-2.696-3.168-3.704-4.968H90.945C90.398,453.053,89.872,454.12,89.381,455.173z"/>
<linearGradient id="SVGID_24_" gradientUnits="userSpaceOnUse" x1="126.8428" y1="563.1284" x2="126.8428" y2="314.9575">
	<stop  offset="0" style="stop-color:#DBDCEF"/>
	<stop  offset="0.1613" style="stop-color:#BCBEE0"/>
	<stop  offset="0.5665" style="stop-color:#7D83C0"/>
	<stop  offset="0.8561" style="stop-color:#5A67B0"/>
	<stop  offset="1" style="stop-color:#4B5EAA"/>
</linearGradient>
<path style="fill:url(#SVGID_24_);" d="M100.932,437.129h51.821c-1.051-1.741-2.045-3.593-2.942-5.517h-44.01
	C104.087,433.439,102.464,435.271,100.932,437.129z"/>
<linearGradient id="SVGID_25_" gradientUnits="userSpaceOnUse" x1="445.2886" y1="563.1284" x2="445.2886" y2="314.9575">
	<stop  offset="0" style="stop-color:#DBDCEF"/>
	<stop  offset="0.1613" style="stop-color:#BCBEE0"/>
	<stop  offset="0.5665" style="stop-color:#7D83C0"/>
	<stop  offset="0.8561" style="stop-color:#5A67B0"/>
	<stop  offset="1" style="stop-color:#4B5EAA"/>
</linearGradient>
<path style="fill:url(#SVGID_25_);" d="M424.581,363.703c2.396,1.911,4.621,3.927,6.676,6.08h34.739
	c-3.547-2.167-7.409-4.182-11.545-6.08H424.581z"/>
<linearGradient id="SVGID_26_" gradientUnits="userSpaceOnUse" x1="453.7314" y1="563.1284" x2="453.7314" y2="314.9575">
	<stop  offset="0" style="stop-color:#DBDCEF"/>
	<stop  offset="0.1613" style="stop-color:#BCBEE0"/>
	<stop  offset="0.5665" style="stop-color:#7D83C0"/>
	<stop  offset="0.8561" style="stop-color:#5A67B0"/>
	<stop  offset="1" style="stop-color:#4B5EAA"/>
</linearGradient>
<path style="fill:url(#SVGID_26_);" d="M431.924,370.502c1.767,1.924,3.397,3.927,4.87,6.015h38.745
	c-2.553-2.101-5.354-4.104-8.391-6.015H431.924z"/>
<linearGradient id="SVGID_27_" gradientUnits="userSpaceOnUse" x1="433.6096" y1="563.1284" x2="433.6096" y2="314.9575">
	<stop  offset="0" style="stop-color:#DBDCEF"/>
	<stop  offset="0.1613" style="stop-color:#BCBEE0"/>
	<stop  offset="0.5665" style="stop-color:#7D83C0"/>
	<stop  offset="0.8561" style="stop-color:#5A67B0"/>
	<stop  offset="1" style="stop-color:#4B5EAA"/>
</linearGradient>
<path style="fill:url(#SVGID_27_);" d="M414.227,356.916c3.397,1.845,6.571,3.9,9.503,6.132h29.261
	c-5.125-2.245-10.688-4.3-16.643-6.132H414.227z"/>
<linearGradient id="SVGID_28_" gradientUnits="userSpaceOnUse" x1="459.9554" y1="563.1284" x2="459.9554" y2="314.9575">
	<stop  offset="0" style="stop-color:#DBDCEF"/>
	<stop  offset="0.1613" style="stop-color:#BCBEE0"/>
	<stop  offset="0.5665" style="stop-color:#7D83C0"/>
	<stop  offset="0.8561" style="stop-color:#5A67B0"/>
	<stop  offset="1" style="stop-color:#4B5EAA"/>
</linearGradient>
<path style="fill:url(#SVGID_28_);" d="M476.455,377.303h-39.111c1.303,1.898,2.5,3.9,3.56,5.949h41.664
	C480.735,381.19,478.7,379.201,476.455,377.303z"/>
<linearGradient id="SVGID_29_" gradientUnits="userSpaceOnUse" x1="464.4878" y1="563.1284" x2="464.4878" y2="314.9575">
	<stop  offset="0" style="stop-color:#DBDCEF"/>
	<stop  offset="0.1613" style="stop-color:#BCBEE0"/>
	<stop  offset="0.5665" style="stop-color:#7D83C0"/>
	<stop  offset="0.8561" style="stop-color:#5A67B0"/>
	<stop  offset="1" style="stop-color:#4B5EAA"/>
</linearGradient>
<path style="fill:url(#SVGID_29_);" d="M441.323,384.089c0.942,1.898,1.806,3.874,2.533,5.903h43.797
	c-1.263-2.029-2.73-4.005-4.366-5.903H441.323z"/>
<linearGradient id="SVGID_30_" gradientUnits="userSpaceOnUse" x1="411.4885" y1="563.1284" x2="411.4885" y2="314.9575">
	<stop  offset="0" style="stop-color:#DBDCEF"/>
	<stop  offset="0.1613" style="stop-color:#BCBEE0"/>
	<stop  offset="0.5665" style="stop-color:#7D83C0"/>
	<stop  offset="0.8561" style="stop-color:#5A67B0"/>
	<stop  offset="1" style="stop-color:#4B5EAA"/>
</linearGradient>
<path style="fill:url(#SVGID_30_);" d="M413.043,497.099c3.711-1.832,7.323-3.717,10.838-5.628h-18.345
	c-2.094,1.911-4.228,3.796-6.44,5.628H413.043z"/>
<linearGradient id="SVGID_31_" gradientUnits="userSpaceOnUse" x1="470.6106" y1="563.1284" x2="470.6106" y2="314.9575">
	<stop  offset="0" style="stop-color:#DBDCEF"/>
	<stop  offset="0.1613" style="stop-color:#BCBEE0"/>
	<stop  offset="0.5665" style="stop-color:#7D83C0"/>
	<stop  offset="0.8561" style="stop-color:#5A67B0"/>
	<stop  offset="1" style="stop-color:#4B5EAA"/>
</linearGradient>
<path style="fill:url(#SVGID_31_);" d="M447.252,416.938h46.363c0.249-1.938,0.367-3.829,0.354-5.688h-46.474
	C447.494,413.109,447.416,415.007,447.252,416.938z"/>
<linearGradient id="SVGID_32_" gradientUnits="userSpaceOnUse" x1="388.7295" y1="563.1284" x2="388.7295" y2="314.9575">
	<stop  offset="0" style="stop-color:#DBDCEF"/>
	<stop  offset="0.1613" style="stop-color:#BCBEE0"/>
	<stop  offset="0.5665" style="stop-color:#7D83C0"/>
	<stop  offset="0.8561" style="stop-color:#5A67B0"/>
	<stop  offset="1" style="stop-color:#4B5EAA"/>
</linearGradient>
<path style="fill:url(#SVGID_32_);" d="M380.928,510.482h1.505c4.797-1.858,9.503-3.756,14.098-5.759h-7.239
	C386.563,506.713,383.775,508.624,380.928,510.482z"/>
<linearGradient id="SVGID_33_" gradientUnits="userSpaceOnUse" x1="400.7912" y1="563.1284" x2="400.7912" y2="314.9575">
	<stop  offset="0" style="stop-color:#DBDCEF"/>
	<stop  offset="0.1613" style="stop-color:#BCBEE0"/>
	<stop  offset="0.5665" style="stop-color:#7D83C0"/>
	<stop  offset="0.8561" style="stop-color:#5A67B0"/>
	<stop  offset="1" style="stop-color:#4B5EAA"/>
</linearGradient>
<path style="fill:url(#SVGID_33_);" d="M390.575,503.787h8.135c4.202-1.839,8.299-3.75,12.297-5.7h-13.128
	C395.503,500.037,393.075,501.948,390.575,503.787z"/>
<linearGradient id="SVGID_34_" gradientUnits="userSpaceOnUse" x1="467.6423" y1="563.1284" x2="467.6423" y2="314.9575">
	<stop  offset="0" style="stop-color:#DBDCEF"/>
	<stop  offset="0.1613" style="stop-color:#BCBEE0"/>
	<stop  offset="0.5665" style="stop-color:#7D83C0"/>
	<stop  offset="0.8561" style="stop-color:#5A67B0"/>
	<stop  offset="1" style="stop-color:#4B5EAA"/>
</linearGradient>
<path style="fill:url(#SVGID_34_);" d="M444.176,390.863c0.654,1.911,1.23,3.875,1.695,5.851h45.237
	c-0.812-1.977-1.78-3.94-2.913-5.851H444.176z"/>
<linearGradient id="SVGID_35_" gradientUnits="userSpaceOnUse" x1="417.9284" y1="563.1284" x2="417.9284" y2="314.9575">
	<stop  offset="0" style="stop-color:#DBDCEF"/>
	<stop  offset="0.1613" style="stop-color:#BCBEE0"/>
	<stop  offset="0.5665" style="stop-color:#7D83C0"/>
	<stop  offset="0.8561" style="stop-color:#5A67B0"/>
	<stop  offset="1" style="stop-color:#4B5EAA"/>
</linearGradient>
<path style="fill:url(#SVGID_35_);" d="M401.504,350.129c0.249,0.321,0.93,0.642,1.322,0.949c1.832,1.034,3.482,1.937,5.079,2.808
	c1.78,0.759,3.521,1.564,5.19,2.435h21.257c-8.62-2.539-18.057-4.614-28.214-6.191H401.504z"/>
<linearGradient id="SVGID_36_" gradientUnits="userSpaceOnUse" x1="421.0276" y1="563.1284" x2="421.0276" y2="314.9575">
	<stop  offset="0" style="stop-color:#DBDCEF"/>
	<stop  offset="0.1613" style="stop-color:#BCBEE0"/>
	<stop  offset="0.5665" style="stop-color:#7D83C0"/>
	<stop  offset="0.8561" style="stop-color:#5A67B0"/>
	<stop  offset="1" style="stop-color:#4B5EAA"/>
</linearGradient>
<path style="fill:url(#SVGID_36_);" d="M406.688,490.417h19.111c3.285-1.832,6.466-3.698,9.568-5.596h-22.985
	C410.543,486.719,408.645,488.584,406.688,490.417z"/>
<linearGradient id="SVGID_37_" gradientUnits="userSpaceOnUse" x1="454.8867" y1="563.1284" x2="454.8867" y2="314.9575">
	<stop  offset="0" style="stop-color:#DBDCEF"/>
	<stop  offset="0.1613" style="stop-color:#BCBEE0"/>
	<stop  offset="0.5665" style="stop-color:#7D83C0"/>
	<stop  offset="0.8561" style="stop-color:#5A67B0"/>
	<stop  offset="1" style="stop-color:#4B5EAA"/>
</linearGradient>
<path style="fill:url(#SVGID_37_);" d="M475.912,451.986h-39.314c-0.864,1.669-1.78,3.338-2.735,4.968h37.475
	C472.94,455.324,474.465,453.655,475.912,451.986z"/>
<linearGradient id="SVGID_38_" gradientUnits="userSpaceOnUse" x1="449.8342" y1="563.1284" x2="449.8342" y2="314.9575">
	<stop  offset="0" style="stop-color:#DBDCEF"/>
	<stop  offset="0.1613" style="stop-color:#BCBEE0"/>
	<stop  offset="0.5665" style="stop-color:#7D83C0"/>
	<stop  offset="0.8561" style="stop-color:#5A67B0"/>
	<stop  offset="1" style="stop-color:#4B5EAA"/>
</linearGradient>
<path style="fill:url(#SVGID_38_);" d="M470.008,458.302h-36.945c-1.086,1.793-2.212,3.579-3.403,5.36h34.667
	C466.31,461.881,468.202,460.095,470.008,458.302z"/>
<linearGradient id="SVGID_39_" gradientUnits="userSpaceOnUse" x1="443.9045" y1="563.1284" x2="443.9045" y2="314.9575">
	<stop  offset="0" style="stop-color:#DBDCEF"/>
	<stop  offset="0.1613" style="stop-color:#BCBEE0"/>
	<stop  offset="0.5665" style="stop-color:#7D83C0"/>
	<stop  offset="0.8561" style="stop-color:#5A67B0"/>
	<stop  offset="1" style="stop-color:#4B5EAA"/>
</linearGradient>
<path style="fill:url(#SVGID_39_);" d="M462.9,464.925h-34.091c-1.244,1.819-2.539,3.626-3.9,5.413h31.44
	C458.627,468.551,460.806,466.744,462.9,464.925z"/>
<linearGradient id="SVGID_40_" gradientUnits="userSpaceOnUse" x1="459.3925" y1="563.1284" x2="459.3925" y2="314.9575">
	<stop  offset="0" style="stop-color:#DBDCEF"/>
	<stop  offset="0.1613" style="stop-color:#BCBEE0"/>
	<stop  offset="0.5665" style="stop-color:#7D83C0"/>
	<stop  offset="0.8561" style="stop-color:#5A67B0"/>
	<stop  offset="1" style="stop-color:#4B5EAA"/>
</linearGradient>
<path style="fill:url(#SVGID_40_);" d="M481.324,445.199h-41.493c-0.733,1.695-1.532,3.403-2.369,5.072h39.896
	C478.765,448.603,480.087,446.894,481.324,445.199z"/>
<linearGradient id="SVGID_41_" gradientUnits="userSpaceOnUse" x1="437.1438" y1="563.1284" x2="437.1438" y2="314.9575">
	<stop  offset="0" style="stop-color:#DBDCEF"/>
	<stop  offset="0.1613" style="stop-color:#BCBEE0"/>
	<stop  offset="0.5665" style="stop-color:#7D83C0"/>
	<stop  offset="0.8561" style="stop-color:#5A67B0"/>
	<stop  offset="1" style="stop-color:#4B5EAA"/>
</linearGradient>
<path style="fill:url(#SVGID_41_);" d="M454.778,471.568H423.96c-1.433,1.833-2.913,3.671-4.45,5.465h27.808
	C449.896,475.239,452.383,473.4,454.778,471.568z"/>
<linearGradient id="SVGID_42_" gradientUnits="userSpaceOnUse" x1="463.1001" y1="563.1284" x2="463.1001" y2="314.9575">
	<stop  offset="0" style="stop-color:#DBDCEF"/>
	<stop  offset="0.1613" style="stop-color:#BCBEE0"/>
	<stop  offset="0.5665" style="stop-color:#7D83C0"/>
	<stop  offset="0.8561" style="stop-color:#5A67B0"/>
	<stop  offset="1" style="stop-color:#4B5EAA"/>
</linearGradient>
<path style="fill:url(#SVGID_42_);" d="M485.794,438.412H442.52c-0.648,1.826-1.355,3.632-2.114,5.458h41.873
	C483.549,442.044,484.714,440.238,485.794,438.412z"/>
<linearGradient id="SVGID_43_" gradientUnits="userSpaceOnUse" x1="469.9329" y1="563.1284" x2="469.9329" y2="314.9575">
	<stop  offset="0" style="stop-color:#DBDCEF"/>
	<stop  offset="0.1613" style="stop-color:#BCBEE0"/>
	<stop  offset="0.5665" style="stop-color:#7D83C0"/>
	<stop  offset="0.8561" style="stop-color:#5A67B0"/>
	<stop  offset="1" style="stop-color:#4B5EAA"/>
</linearGradient>
<path style="fill:url(#SVGID_43_);" d="M493.464,418.037h-46.304c-0.177,1.845-0.425,3.724-0.759,5.63h45.832
	C492.764,421.761,493.183,419.882,493.464,418.037z"/>
<linearGradient id="SVGID_44_" gradientUnits="userSpaceOnUse" x1="469.6154" y1="563.1284" x2="469.6154" y2="314.9575">
	<stop  offset="0" style="stop-color:#DBDCEF"/>
	<stop  offset="0.1613" style="stop-color:#BCBEE0"/>
	<stop  offset="0.5665" style="stop-color:#7D83C0"/>
	<stop  offset="0.8561" style="stop-color:#5A67B0"/>
	<stop  offset="1" style="stop-color:#4B5EAA"/>
</linearGradient>
<path style="fill:url(#SVGID_44_);" d="M446.074,397.663c0.419,1.898,0.739,3.829,0.975,5.786h46.107
	c-0.419-1.957-0.975-3.888-1.688-5.786H446.074z"/>
<linearGradient id="SVGID_45_" gradientUnits="userSpaceOnUse" x1="468.4243" y1="563.1284" x2="468.4243" y2="314.9575">
	<stop  offset="0" style="stop-color:#DBDCEF"/>
	<stop  offset="0.1613" style="stop-color:#BCBEE0"/>
	<stop  offset="0.5665" style="stop-color:#7D83C0"/>
	<stop  offset="0.8561" style="stop-color:#5A67B0"/>
	<stop  offset="1" style="stop-color:#4B5EAA"/>
</linearGradient>
<path style="fill:url(#SVGID_45_);" d="M491.887,424.832h-45.689c-0.347,1.833-0.746,3.691-1.237,5.563h44.89
	C490.644,428.523,491.318,426.665,491.887,424.832z"/>
<linearGradient id="SVGID_46_" gradientUnits="userSpaceOnUse" x1="470.5578" y1="563.1284" x2="470.5578" y2="314.9575">
	<stop  offset="0" style="stop-color:#DBDCEF"/>
	<stop  offset="0.1613" style="stop-color:#BCBEE0"/>
	<stop  offset="0.5665" style="stop-color:#7D83C0"/>
	<stop  offset="0.8561" style="stop-color:#5A67B0"/>
	<stop  offset="1" style="stop-color:#4B5EAA"/>
</linearGradient>
<path style="fill:url(#SVGID_46_);" d="M493.955,410.196c-0.065-1.95-0.268-3.861-0.602-5.746h-46.192
	c0.196,1.885,0.301,3.796,0.327,5.746H493.955z"/>
<linearGradient id="SVGID_47_" gradientUnits="userSpaceOnUse" x1="466.1436" y1="563.1284" x2="466.1436" y2="314.9575">
	<stop  offset="0" style="stop-color:#DBDCEF"/>
	<stop  offset="0.1613" style="stop-color:#BCBEE0"/>
	<stop  offset="0.5665" style="stop-color:#7D83C0"/>
	<stop  offset="0.8561" style="stop-color:#5A67B0"/>
	<stop  offset="1" style="stop-color:#4B5EAA"/>
</linearGradient>
<path style="fill:url(#SVGID_47_);" d="M489.204,431.894c0.046-0.098,0.079-0.19,0.125-0.281h-44.681
	c-0.013,0.052-0.026,0.104-0.04,0.157c-0.497,1.793-1.034,3.586-1.649,5.36h43.568C487.509,435.402,488.405,433.641,489.204,431.894
	z"/>
<path style="fill:#4B5EAA;" d="M305.336,485.501l-1.04,0.196c-7.271,0.818-14.772,5.799-14.863,13.325l5.098,0.785
	c0.085-5.327,5.569-8.868,10.747-9.274l1.878-0.32c0.497-0.053,0.916-0.275,1.283-0.583l2.061-1.911
	c2.415-3.181,4.326-6.8,4.994-10.753l-5.105-1.008c-0.157,2.743-1.61,4.935-2.958,7.239L305.336,485.501"/>
<path style="fill:#4B5EAA;" d="M346.267,454.349l-0.353-0.079c-0.969-0.294-1.99-0.458-2.984-0.523l-3.874-0.347
	c-0.615-0.039-1.251,0.157-1.741,0.517l-1.453,1.434c-2.003,3.71-3.417,7.65-5.341,11.381l4.595,2.31
	c1.767-3.488,3.2-7.173,5-10.661l0.249,0.013c1.59,0.386,3.318,0.229,4.882,0.818l1.518,0.281c0.838,0.105,1.65-0.137,2.251-0.7
	l1.021-0.956c2.605-2.29,4.234-5.196,6.034-8.057l-4.032-3.115c-1.963,2.114-2.618,5.092-5.02,6.905L346.267,454.349"/>
<path style="fill:#4B5EAA;" d="M355.711,431.115l0.439-0.039c7.421,4.732,15.419-1.499,20.74-6.401l-3.789-3.366
	c-4.477,4.197-10.485,8.7-16.663,4.812l-1.839,0.105c-0.438,0.052-0.897,0.19-1.25,0.439c-0.667,0.471-1.322,0.91-1.957,1.283
	c-3.115,2.166-5.713,5.092-6.885,8.698l4.804,1.807c0.883-3.155,3.423-5.478,6.237-7.226L355.711,431.115"/>
<path style="fill:#4B5EAA;" d="M232.893,370.129l-2.421-7.186l4.454-6.237l0.069-0.098l2.909-5.099
	c0.841-1.564,4.545-0.471,10.216-0.085c5.092,0.334,9.238-0.425,10.02-0.569l0.137-0.026c-5.053,0.092-18.783-3.259-21.48-3.927
	l-0.464-0.111c-1.813,4.156-7.775,11.918-8.95,13.417l-0.196,0.249L232.893,370.129"/>
<path style="fill:#4B5EAA;" d="M166.854,420.491l1.6-4.582c0.5-0.144,3.033-0.903,4.293-1.911c1.404-1.132,2.147-3.645,2.477-5.151
	c0.34-1.486,1.126-3.54,0.962-4.974c-0.173-1.466,0.556-3.979,0.952-5.007c0.35-0.922,1.94-1.95,2.301-2.205l4.1-3.822
	c-0.337,0.111-2.153,0.844-4.267,2.382c-2.359,1.721-3.93,1.4-6.335,2.631c-2.421,1.237-7.019,5.622-8.374,7.252
	c-1.345,1.59-1.064,4.005-0.114,7.828c0.854,3.423,2.12,6.8,2.359,7.454L166.854,420.491"/>
<path style="fill:#4B5EAA;" d="M319.879,442.084l-0.668,0.118c-4.771,0.563-9.516,2.565-12.703,6.309
	c-2.769,3.338-1.951,7.402-2.153,11.191c0.013,0.321,0.419,0.654,0.641,0.988c-6.944-1.427-14.254,0.059-18.626,5.851l3.685,3.501
	c3.318-4.516,8.757-5.838,14.091-4.222c6.505-0.837,4.699-8.417,5.962-12.769c1.263-4.516,7.101-5.917,11.695-6.159l1.473-0.51
	c0.713-0.334,1.197-0.923,1.4-1.604l0.327-1.4c-0.674-5.838-1.564-11.702-0.956-17.605c2.821-3.824,7.755-5.185,11.846-7.417
	l1.538-1.872c0.89-0.772,1.113-2.042,0.511-3.03l-0.53-0.949c-1.734-3.207-5.452-5.014-5.975-9.11
	c5.811-0.949,9.607-6.296,7.5-11.689l-5.137,0.556c-0.144,1.688,1.917,3.22-0.642,4.935c-2.376,1.57-5.53,2.225-6.434,4.994
	c-1.505,4.719,2.684,8.482,5.544,11.852l0.242,0.399l-0.092,0.065c-5.183,2.696-12.278,4.568-13.378,11.167
	C318.164,431.239,318.583,436.645,319.879,442.084"/>
<path style="fill:#4B5EAA;" d="M352.642,408.927c10.164,1.989,21.657-2.86,25.394-12.429l-4.791-1.852
	c-2.755,7.049-11.866,11.624-19.379,9.019l-3.763,0.582c-0.55,0.203-0.995,0.589-1.283,1.086l-0.38,0.615l-4.018,6.545l4.45,2.539
	c1.178-2.022,2.539-3.933,3.711-6.001L352.642,408.927"/>
<path style="fill:#4B5EAA;" d="M395.758,415.923c1.61-3.377,4.601-6.368,8.39-7.304c9.163,2.86,13.011-7.415,17.632-12.814
	l-4.136-3.017c-4.215,4.673-6.846,13.652-14.975,11.086c-5.196,1.348-9.451,5.347-11.571,9.941L395.758,415.923"/>
<path style="fill:#4B5EAA;" d="M390.051,390.438c1.348-3.652,3.501-6.964,7.173-8.842c3.246,0.452,6.702-0.006,9.49-1.78
	l-2.586-4.287c-0.491,0.269-0.916,0.615-1.446,0.786c-2.474,0.779-5.125,0.079-7.507,0.962c-5.105,1.833-8.057,6.401-9.863,11.126
	L390.051,390.438"/>
<path style="fill:#4B5EAA;" d="M234.526,361.831c2.69,1.204,7.406,2.153,9.758,0.432c2.359-1.708,3.259-2.775,3.989-5.314
	c0.654-2.258,0.045-4.784-0.082-5.255l-0.157-0.105c-0.782-0.052-4.768-0.308-6.881,1.244c-2.124,1.538-5.795,7.598-6.512,8.803
	L234.526,361.831"/>
<path style="fill:#4B5EAA;" d="M198.504,437.3c1.819-0.426,2.926-2.193,2.467-3.927c-0.448-1.734-2.287-2.801-4.1-2.35
	c-0.805,0-2.235,0.373-2.654,0.478l-8.518,2.167c-9.382,2.297-14.277,2.755-14.696,2.513c-3.128-1.754-11.469-15.192-10.71-24.453
	c0.766-9.359,3.6-14.771,13.273-22.213c10.422-8.004,22.246-19.759,25.593-24.955c1.103-1.721,3.609-3.73,7.788-6.977
	c2.879-2.225,6.276-4.83,9.352-7.828c-0.199,2.461-0.543,5.236-1.351,8.835c-1.83,8.135-8.891,17.193-12.435,20.904
	c-1.273,1.322-1.185,3.403,0.216,4.634c1.388,1.217,3.567,1.126,4.843-0.223c3.763-3.914,11.859-14.045,14.081-23.94
	c1.063-4.719,1.377-8.162,1.606-11.146l0.063-0.864c0.189-2.592,0.35-4.679,0.89-7.108c0.413-1.819,0.874-3.58,1.391-5.223
	c1.093-3.691,2.379-6.964,3.704-9.621c0.939-1.859,2.137-3.462,3.21-4.66c0.356-0.484,0.736-0.923,1.122-1.322
	c9.179-9.379,23.757-13.364,37.164-13.391c-3.491,4.182-6.433,8.803-8.832,13.776c-0.795,1.656-0.039,3.633,1.692,4.405
	c1.738,0.74,3.786,0.026,4.591-1.643c5.049-10.472,12.795-19.235,22.461-25.649l10.511,37.089l-0.026-0.484
	c-0.222-2.775-1.374-16.898-3.089-20.976c-1.898-4.529-2.147-6.047-2.677-10.164c-0.386-2.952-0.648-6.237-0.766-7.88
	c3.449-1.937,7.121-3.646,10.969-5l0.785-0.249l-0.065,0.582l0.118,6.512l-0.013,0.196c-0.04,1.165-0.255,7.284,0.275,13.934
	c0.523,6.643,1.178,10.112,1.309,10.727l0.02,0.111l0.235-12.173l0.831-4.784l-0.164-8.698l1.263-5.007l0.563-2.736
	c3.573-0.949,7.186-1.636,10.825-2.009l0.157,2.768l-0.026,0.21c-0.164,1.06-0.982,6.551-0.943,8.515
	c0.04,2.173-0.785,6.957-1.629,10.661c-0.753,3.351-0.216,7.356-0.098,8.135l0.013,0.118l2.984-11.342l0.825-4.797l0.583-5.209
	l1.23-7.186l0.55-2.153c5.642-0.301,11.29,0.125,16.853,1.244l-0.785,1.924l-1.728,5.249l-4.156,9.195l-2.579,7.867l3.096-4.836
	l3.73-6.787l2.847-6.368l3.325-4.398l0.635-0.832c3.403,0.897,6.767,2.061,10.04,3.515c1.296,0.563,2.54,1.191,3.77,1.846
	l-1.139,2.002l-4.005,5.269l-3.083,4.843l-5.308,8.135l3.351-3.325l4.464-4.424l4.679-5.072l2.657-3.515l1.8-1.924
	c5.17,3.285,9.634,7.389,13.26,12.146l-3.305,3.685l-6.878,4.058l-4.097,2.036l-4.83,3.03l7.677-2.591l4.862-1.793l4.091-2.042
	l3.305-2.271l1.087-1.44c1.989,2.991,3.652,6.185,4.961,9.575c0.805,2.101,1.453,4.228,1.963,6.361l-3.344,1.178l-7.71,1.361
	l-6.931,1.603l-2.815,0.799l5.419,0.399l6.676-0.864l4.123-0.805l3.082-0.294l2.219,0.216c1.041,6.558,0.7,13.2-0.995,19.641
	l-1.905-0.884l-2.873-1.669l-3.881-1.165l-4.666-1.4l-5.197-2.382l4.189,4.117l5.445,1.643l4.156,1.656l3.711,3.436
	c-0.628,1.846-1.361,3.685-2.238,5.491c-1.335,2.775-2.985,5.34-4.882,7.696l-3.05-3.462l-3.652-4.234l-2.657-2.553l-2.618-2.421
	l3.567,4.745l3.305,4.863l2.801,5.681c-3.187,3.285-6.957,6.061-11.165,8.161l-0.413-0.766l-1.093-3.188l-0.838-3.305l-0.942-2.324
	l-1.427-3.167l-0.34-2.467l0.19,3.94l0.196,3.325l0.177,2.703l0.956,2.939l-0.34,2.349l0.125,1.604l-1.126,0.426
	c-5.033,1.78-10.269,2.591-15.459,2.46l0.281-0.164l0.642-1.243l0.353-1.722l0.864-1.989l0.589-3.103l0.89-3.069l1.708-2.886
	l-3.75,3.914l-1.152,3.194l-1.754,2.749l-1.748,2.729l-0.438,1.335c-4.175-0.452-8.298-1.512-12.238-3.207l0.144-0.255l1.001-1.734
	l0.871-1.375l1.388-1.629l0.877-1.368l4.319-3.403l-4.607,1.695l-1.368,1.08l-1.551,1.302l-1.78,1.505l-1.388,1.629l-1.322,0.871
	c-4.332-2.448-7.958-5.812-10.655-9.804l0.216-0.111l1.669-0.53l2.173-0.759l2.042-1.034l3.082-0.91l3.855-0.681l-4.529-0.543
	l-2.186,0.17l-3.711,0.923l-2.847,0.144l-1.348,0.688c-0.595-1.1-1.139-2.251-1.597-3.443c-1.826-4.725-2.409-9.68-1.773-14.529
	l2.624,0.962l1.951,1.191l3.246,0.556l4.418,2.153l-4.85-4.104l-1.721-0.962l-2.31-1.067l-1.702-1.322l-0.878-1.296
	c0.484-1.8,1.139-3.554,1.951-5.288c1.322-2.703,3.115-5.131,5.301-7.173l0.739,0.582l1.839,2.179l2.644,3.659l2.637,3.024
	l2.128,3.9l-0.969-3.554l-3.22-5.321c-0.209-0.478-1.256-2.828-1.963-3.567c-0.713-0.772-1.224-2.146-1.322-2.454l-0.255-0.334
	c1.996-1.433,4.221-2.618,6.617-3.475c2.133-0.746,4.319-1.205,6.525-1.401l0.557,1.283l1.61,3.554l-0.059,3.442l0.321,3.567
	l0.844-3.207l0.196-3.213l0.203-2.579l-0.4-1.342l-0.517-1.597c3.417,0.065,6.82,0.812,10.026,2.225
	c1.132,0.484,2.206,1.1,3.207,1.793l-0.517,2.67l-1.872,3.115l-2.023,2.232l2.036-1.015l2.271-2.984l2.421-1.518l-0.013-0.642
	c2.016,1.898,3.6,4.195,4.607,6.813c0.275,0.72,0.484,1.44,0.668,2.186l-0.602,0.177l-2.683,1.027l-3.482-0.118l3.115,1.23
	l2.291-0.576h1.708c0.452,3.096,0.072,6.237-1.106,9.176l-0.157-0.013l-2.081-0.818l-2.409-2.926l1.257,3.181l1.819,0.962
	l1.125,0.681l-0.039,0.072c-1.407,2.926-3.691,5.151-6.401,6.571L347,353.873l-0.602-1.564l-0.131-1.565l-0.641,1.486l0.223,1.76
	l0.608,1.551l0.255,1.525c-3.521,1.4-7.592,1.505-11.401-0.026c-2.291-0.91-4.758-2.362-5.857-3.331
	c0.406-0.223,1.014-0.465,1.97-0.746c9.896-2.899,11.434-8.495,12.16-11.205l0.196-0.642c0.563-1.754-0.445-3.593-2.265-4.156
	c-1.819-0.537-3.77,0.425-4.332,2.167c-0.111,0.308-0.196,0.641-0.288,0.962c-0.569,2.121-1.289,4.738-7.494,6.558
	c-4.719,1.375-7.186,3.567-7.337,6.506c-0.262,5.092,7.304,8.678,10.576,9.994c10.891,4.339,23.273-0.294,28.214-10.518
	c2.952-6.132,3.227-12.984,0.779-19.326c-2.448-6.309-7.311-11.368-13.718-14.176c-7.795-3.436-16.525-3.743-24.582-0.922
	c-8.05,2.86-14.464,8.521-18.057,15.988c-4.392,9.11-4.804,19.307-1.171,28.738c3.639,9.411,10.903,16.911,20.432,21.12
	c11.702,5.144,24.824,5.635,36.913,1.374c12.094-4.274,21.735-12.795,27.121-23.993c0.681-1.413,1.296-2.84,1.819-4.3
	c2.304,1.08,3.089,5.196,5.432,6.479l1.688,1.053c0.615,0.282,1.315,0.373,1.951,0.203l1.073-0.334
	c6.047-2.552,7.984,3.901,11.034,7.252l0.34,0.576c0.393,0.589,1.06,1.041,1.761,1.132l1.577,0.229
	c1.885-0.039,3.822,0.026,5.72-0.079h0.131c2.395,2.108,3.822,4.85,6.78,6.761l1.989-4.987c-1.963-0.53-2.559-2.991-4.371-4.137
	l-2.108-2.127c-0.438-0.294-1.034-0.504-1.623-0.491l-1.885,0.039l-2.226,0.053l-2.33-0.105l-0.877-0.936
	c-2.134-5.543-7.801-10.21-14.241-8.24l-1.27,0.367l-0.242-0.118c-1.505-2.873-3.658-6.008-6.761-7.199
	c3.272-11.329,2.749-23.313-1.59-34.563c-5.504-14.254-16.486-25.61-30.911-31.952c-17.814-7.867-37.776-8.593-56.18-2.101
	c-10.21,3.606-19.264,9.195-26.699,16.381c-15.943-1.217-35.633,2.67-47.92,15.256c-0.667,0.668-1.276,1.4-1.835,2.206
	c-1.456,1.643-2.746,3.567-3.675,5.419c-1.453,2.899-2.82,6.361-3.966,10.184c-1.659,3.809-3.344,7.094-5.593,9.601
	c-3.148,3.501-7.094,6.564-10.929,9.516c-3.328,2.591-7.389,5.635-9.32,8.665c-2.719,4.221-13.81,15.406-24.045,23.286
	c-10.988,8.43-14.886,15.445-15.822,26.8c-0.933,11.46,8.433,27.424,14.061,30.605c1.345,0.753,3.567,0.923,6.113,0.733
	c-0.085,0.334-0.124,0.674-0.121,1.047c0.082,7.16,9.378,12.984,14.451,14.516c6.81,2.088,23.544-6.944,27.988-9.909l1.558-1.067
	c5.262,1.643,31.784,9.444,48.732,1.427l-0.033,0.386c-0.003,4.3,1.073,8.927,4.974,11.42c-0.713,4.09-3.276,7.775-2.425,12.134
	c0.687,3.39,4.951,5.367,4.535,8.587c-0.736,5.269,1.535,9.823,4.385,13.855c-1.417,1.682-2.674,3.462-5.216,5.57l3.22,3.691
	c10.393-8.017,7.206-12.841,2.762-17.906c1.476-5.877-1.718-10.871-4.863-15.603c1.07-2.873,1.643-5.825,2.601-8.737
	c1.109-3.429-2.389-5.209-3.75-7.762c-1.234-2.323-2.104-6.276,0.602-7.971c4.45-0.065,8.875,3.154,14.889,7.212
	c2.402,1.604,2.212,2.899,2.186,2.362c0.039,1.165,0.7,2.245,1.773,2.795c1.08,0.576,2.376,0.55,3.436-0.065
	c1.034-0.589,1.675-1.682,1.649-2.86v-0.105c-0.079-1.381-0.812-4.588-5.092-7.494c-5.782-3.894-15.992-12.507-27.151-6.12
	c-11.329,6.493-30.557,2.853-40.391,0.275l7.144-5.314l0.298-0.216c1.489-1.132,1.751-3.187,0.563-4.607
	c-1.165-1.42-3.325-1.669-4.814-0.543l-0.291,0.222c-1.794,1.361-10.619,7.991-15.213,11.061
	c-6.008,3.999-19.245,9.863-21.977,9.045c-4.461-1.374-9.64-5.74-9.663-8.338c-0.007,0.125,0.383-0.956,9.702-3.442
	c2.481-0.668,5.422-1.446,7.651-2.409L198.504,437.3"/>
<path d="M555.201,519.645c-1.544,1.205-2.631,1.78-3.357,1.78c-0.452,0-0.635-0.15-0.635-0.55c0-0.15,0.079-0.484,0.255-0.962
	c0.622-1.617,0.883-3.069,0.87-4.594c-0.013-2.003-0.589-4.398-1.61-6.571c-0.458-1.191-1.015-1.741-1.649-1.741
	c-0.275,0-0.628,0.164-0.818,0.413c-2.886,2.912-5.727,10.792-5.674,15.857c0.026,2.965,1.132,4.641,3.22,4.628
	c2.186-0.026,6.172-2.54,9.412-6.015L555.201,519.645z"/>
<path d="M30.524,485.979l-0.167,0.072c-3.171,1.427-6.352,4.522-8.322,6.97c-1.577,1.872-2.451,4.005-2.431,6.04
	c0.046,4.647,3.282,6.584,6.833,7.415c-4.65,11.1-11.329,29.078-11.286,33.313c0.049,5.144,5.16,9.15,11.64,9.097
	c3.659-0.026,7.363-1.643,10.452-4.529c3.367-3.108,5.524-6.675,7.887-13.345c1.626-0.065,3.246-0.131,3.246-0.131l1.721-0.013
	c3.809-0.039,7.098-0.065,9.676-2.356c2.366-2.133,5.619-6.957,5.586-10.498c-0.049-4.915-3.707-7.376-10.897-7.317
	c0,0-1.502,0.039-2.804,0.079c0.792-2.37,1.077-3.207,1.597-4.784c3.302-0.334,4.588-0.622,6.941-1.525
	c2.336-0.877,6.283-3.312,6.224-9.653c-0.016-1.833-0.314-4.516-2.729-6.617c-0.023-0.026-2.919-1.656-2.919-1.656
	c-2.588-0.825-3.269-0.825-7.219-0.798c-0.291-0.013-1.679-0.059-1.679-0.059l-3.197-0.144c-3.96-0.268-10.851-0.464-12.733-0.452
	C33.659,485.102,31.99,485.377,30.524,485.979z M21.934,493.139c0.026-0.04,0.072-0.079,0.101-0.118c0.01,0,0.01-0.013,0.016-0.026
	L21.934,493.139z"/>
<path d="M85.32,491.136c-6.607,3.914-11.191,7.939-15.321,13.508c-5.521,7.304-8.796,15.446-8.737,21.761
	c0.108,12.265,10.949,21.774,24.674,21.657c8.305-0.065,22.988-5.269,29.644-10.518c2.026-1.558,3.449-3.802,5.22-7.16
	c1.096-2.094,1.714-4.058,1.842-5.825l0.01-0.17l-0.003-0.255c-0.026-3.397-2.788-5.969-6.417-5.936
	c-0.311,0-0.615,0.085-0.913,0.124c4.928-5.877,7.893-12.972,7.834-19.398c-0.082-8.803-7.121-14.667-17.514-14.562
	C99.862,484.402,92.65,486.811,85.32,491.136z"/>
<path d="M160.519,488.708c-14.33,6.97-25.894,23.417-25.773,36.683c0.059,6.119,2.412,11.368,6.823,15.19
	c4.869,4.313,12.949,6.997,21.035,6.931c20.269-0.184,36.601-17.658,36.402-38.954c-0.04-5.249-1.338-12.049-4.83-15.373
	c-1.123-1.073-2.736-1.885-4.431-2.343c0.082-0.36,0.18-0.733,0.17-1.145c-0.036-3.999-3.423-6.015-10.056-5.962
	C174.229,483.767,166.635,485.744,160.519,488.708z M170.365,502.898c-0.007,0.17-0.063,0.288-0.063,0.451
	c0.023,1.99,1.024,3.672,2.34,5.662l0.062,0.098l0.063,0.091c2.238,3.044,3.38,5.93,3.406,8.547
	c0.056,6.506-6.011,13.162-9.44,13.188c-3.917,0.026-4.791-5.825-4.833-10.753c-0.026-2.46,0.219-3.939,0.435-4.758l0.033-0.118
	l0.023-0.111c0.282-1.375,0.7-2.631,1.326-3.953l0.013-0.02c1.653-3.508,2.602-4.745,6.172-7.952
	C170.067,503.146,170.214,503.015,170.365,502.898z M154.772,507.38c0-0.013,0.013-0.013,0.013-0.013L154.772,507.38z"/>
<path d="M228.135,504.16c-0.775,0.615-1.656,1.407-2.588,2.284c-1.08-3.75-5.049-6.276-10.226-6.237
	c-4.346,0.039-8.044,2.114-10.969,6.185c-1.986,2.768-3.481,5.923-6.302,12.468c-3.292,7.625-4.559,12.075-4.522,15.923
	c0.065,7.212,4.604,12.023,11.293,11.97c4.074-0.039,7.677-2.539,12.497-7.376c1.436,4.411,5.654,7.546,10.805,7.507
	c4.022-0.039,6.601-1.643,10.236-4.811l0.115-0.105c0,0,2.444-2.271,4.447-4.143c0.333,4.568,1.485,8.096,5.036,11.277
	c3.154,2.736,6.679,4.136,10.252,4.11c4.814-0.052,10.262-2.493,11.352-7.088l0.242-0.988l-0.17-0.727l-0.834-3.75
	c-0.946-3.685-1.109-5.105-1.125-6.905c-0.013-1.381,0.308-5.556,0.952-10.903c0.425-2.749,0.71-5.838,0.7-6.931
	c-0.062-6.839-4.241-11.237-10.655-11.185c-3.348,0.026-5.877,1.407-9.136,4.3c-0.864-5.301-5.426-9.47-10.74-9.418
	C235.36,499.645,231.869,501.13,228.135,504.16z"/>
<path d="M277.433,502.544c-2.389,2.245-4.535,5.504-6.116,9.234c-3.659,8.201-6.397,18.718-6.349,24.405
	c0.065,6.584,4.853,11.316,11.388,11.264c2.566-0.026,4.879-0.884,6.885-2.553l0.291-0.229l0.115-0.131l2.687-3.05
	c1.384-1.643,3.374-3.855,5.351-5.956c1.872,6.519,6.813,10.838,13.142,10.792c3.351-0.026,7.749-1.583,10.367-3.606
	c1.584-1.152,2.494-2.84,2.474-4.738c-0.013-1.002-0.275-2.009-0.7-3.292l-0.046-0.171l-0.079-0.157
	c-0.308-0.727-0.523-1.42-0.681-2.18c-0.236-1.165-0.399-3.22-0.419-5.413c-0.013-2.153,0.039-3.737,0.445-6.839
	c0.007-0.092,0.367-5.105,0.367-5.105c-0.092-9.392-5.903-11.316-10.759-11.276c-3.796,0.033-6.964,1.433-10.714,4.424
	c-0.596-5.249-4.189-8.56-9.516-8.521C282.407,499.475,279.671,500.515,277.433,502.544z M315.193,542.715
	c-0.046,0.039-0.091,0.085-0.144,0.124l0.347-0.268C315.337,542.624,315.258,542.65,315.193,542.715z"/>
<path d="M322.078,502.236c-5.38,5.786-10.007,19.628-9.915,29.621c0.046,5.223,1.381,8.541,4.614,11.447
	c2.14,1.859,4.084,2.644,6.78,2.769h0.144h0.235c1.636-0.013,3.325-0.367,4.772-1.015l0.308-0.15l0.281-0.177
	c2.696-1.682,3.933-4.234,4.719-6.263c4.019-9.647,6.322-19.621,6.25-27.226c-0.065-7.212-4.483-12.206-10.753-12.153
	C326.607,499.114,323.897,500.26,322.078,502.236z"/>
<path d="M325.102,485.017c-3.023,2.755-5.458,8.416-5.419,12.677c0.046,5.465,3.508,8.914,9.032,9.032h0.235
	c6.846-0.065,12.579-7.226,12.494-15.642c-0.052-5.452-3.6-8.829-9.261-8.776C329.185,482.334,327.065,483.139,325.102,485.017z
	 M329.63,496.693 M325.003,485.089c0.033-0.026,0.072-0.032,0.098-0.072c0.02-0.013,0.033-0.039,0.046-0.052L325.003,485.089z"/>
<path d="M365.247,500.037l-0.458,0.294l-0.17,0.184l-1.551,1.564l0.079-0.039c-0.347,0.478-1.113,1.525-3.174,6.224
	c-0.353-4.66-1.898-9.327-9.163-9.261c-10.079,0.072-15.144,5.518-15.046,16.126c0.033,3.783,0.661,8.312,1.878,13.482
	c1.715,7.101,3.724,11.512,6.506,14.346l0.137,0.144c2.055,1.924,4.418,2.847,7.226,2.821c5.262-0.04,9.031-3.109,12.919-8.855
	c0.53,1.296,1.093,2.526,1.734,3.645c3.606,6.106,8.849,9.444,14.778,9.392c6.152-0.053,9.477-3.351,12.573-8.286
	c3.089-5.059,5.386-10.19,7.277-16.218c2.049-6.754,3.096-12.782,3.057-17.455c-0.085-9.097-5.877-10.033-8.364-10.007
	c-3.815,0.026-8.102,2.336-10.484,4.463c-0.661,0.628-1.139,1.263-1.617,1.905c-0.929-3.554-3.272-6.728-9.378-6.676
	C370.247,497.871,367.636,498.525,365.247,500.037z M376.962,529.384L376.962,529.384L376.962,529.384z"/>
<path d="M398.743,526.301c0.065,6.492,2.893,10.295,5.249,12.33c4.49,3.803,12.415,6.276,19.752,6.211
	c7.54-0.065,16.244-3.436,22.212-8.593c4.941-4.339,8.096-11.525,8.031-18.338c-0.065-7.133-4.032-13.161-9.549-15.602
	c0.013-0.085,0.026-0.177,0.026-0.281c-0.052-6.067-7.854-5.988-11.604-5.962C415.824,496.215,398.612,511.471,398.743,526.301z
	 M424.372,523.696c-0.026-2.998,0.811-5.884,2.225-8.325c0.098,0.079,0.209,0.17,0.301,0.242c2.684,1.734,4.189,4.365,4.215,7.304
	c0.026,3.128-2.107,5.517-3.501,5.517C424.732,528.461,424.385,525.123,424.372,523.696z"/>
<path d="M471.376,498.473c-1.283-0.707-2.71-1.178-4.372-1.165c-2.631,0.026-4.948,0.766-6.898,2.238l-0.131,0.111
	c-3.96,3.181-5.805,7.513-7.815,14.392l-0.039,0.157l0.144-0.465l-0.563,2.579l0.235-1.472l-0.353,1.034
	c-1.643,5.432-2.775,12.553-2.736,17.082c0.098,10.367,6.44,11.852,10.21,11.826c3.377-0.039,6.728-1.335,9.673-3.744
	c3.475-2.847,4.241-5.275,4.725-9.941l0,0c0-0.013,0.065-0.916,0.124-1.617c0.046-0.196,0.203-0.942,0.203-0.942l0.007-0.137
	c0,0,0.02-0.308,0.026-0.373c0.045,0.013,0.059,0.013,0.098,0.013c8.115-0.065,10.615-13.188,10.556-19.543
	c-0.098-10.53-6.787-11.303-8.829-11.263C473.915,497.256,472.534,497.74,471.376,498.473z"/>
<path d="M505.33,483.27c-12.383,7.723-25.982,31.074-25.865,44.55c0.091,9.785,7.755,16.578,18.626,16.486
	c12.671-0.104,25.014-11.008,24.916-21.99c-0.033-2.873-1.368-4.765-3.096-5.74c4.791-6.132,7.552-13.678,7.487-21.106
	c-0.078-8.475-5.923-14.831-13.6-14.778C510.762,480.717,507.836,481.614,505.33,483.27z M517.097,493.473
	c0-0.373-0.144-0.681-0.209-1.041c0.419,0.936,0.688,2.016,0.694,3.115c0.04,4.058-1.191,8.096-3.246,11.794
	C516.043,502.001,517.123,496.693,517.097,493.473z"/>
<path d="M560.331,480.691c-1.891,1.748-4.371,5.288-7.29,16.113c-0.511-0.072-1.021-0.124-1.61-0.124
	c-3.227,0.026-6.872,1.244-11.126,3.717c-4.503,2.723-7.834,5.76-10.864,9.935c-4.764,6.453-7.592,14.019-7.526,20.177
	c0.065,8.24,5.707,14.196,13.397,14.13c5.406-0.053,11.814-3.914,16.709-7.599c0.262,0.667,0.589,1.361,1.014,2.206
	c1.394,2.925,4.522,4.804,8.109,4.778c4.542-0.039,10.537-2.854,14.647-5.452l3.089-1.976l-1.125-3.378
	c-2.402-7.173-3.456-12.677-3.495-18.397c-0.046-4.005,0.452-9.176,1.335-14.202c1.165-6.532,1.911-9.228,4.372-16.041l1.185-3.259
	l-2.893-2.055c-2.363-1.662-4.83-1.793-7.795-1.767C567.518,477.537,563.264,477.883,560.331,480.691z M560.306,480.704
	c0.006,0,0.026-0.013,0.026-0.013c0.033-0.039,0.072-0.079,0.098-0.105L560.306,480.704z"/>
<path style="fill:#F68C3D;" d="M33.463,502.681c-6.731-0.104-8.924-0.962-8.943-3.449c-0.01-0.884,0.435-2.016,1.325-3.057
	c1.983-2.513,4.604-4.771,6.6-5.668c0.812-0.347,1.905-0.517,3.541-0.53c1.734-0.013,8.466,0.17,12.474,0.465
	c3.181,0.137,3.73,0.137,5.007,0.203c3.911-0.039,3.911-0.039,5.642,0.504c0.458,0.164,0.913,0.406,1.283,0.72
	c0.834,0.726,1.109,1.662,1.119,3.207c0.026,2.729-0.955,4.411-3.135,5.229c-2.359,0.916-2.994,1.001-8.813,1.518l-4.693,14.098
	c2.454-0.04,3.456-0.052,5.547-0.216c1.365-0.091,2.729-0.104,4.091-0.118c4.463-0.039,5.929,0.681,5.943,2.684
	c0.02,1.603-2.052,5.235-4.032,7.016c-0.991,0.89-2.359,1.054-6.358,1.106l-1.721,0.013c-2.281,0.013-4.284,0.118-6.829,0.282
	c-2.562,7.984-4.444,11.525-7.693,14.509c-2.17,2.029-4.702,3.174-7.065,3.201c-3.646,0.019-6.663-1.951-6.689-4.444
	c-0.029-2.965,6.715-22.043,12.418-35.014L33.463,502.681z"/>
<path style="fill:#F68C3D;" d="M117.742,524.456c-0.075,1.132-0.523,2.487-1.325,4.018c-1.613,3.063-2.687,4.679-3.953,5.654
	c-5.874,4.621-19.385,9.392-26.575,9.444c-10.92,0.091-19.641-7.376-19.722-16.997c-0.043-5.223,2.896-12.462,7.837-19.019
	c3.776-5.079,7.834-8.645,13.901-12.226c6.61-3.9,12.962-6.047,17.775-6.08c7.743-0.065,12.504,3.665,12.56,9.915
	c0.062,6.584-3.878,14.32-10.01,19.824c-4.234,3.979-8.583,6.263-11.774,6.29c-1.365,0.006-2.183-0.707-2.192-1.839
	c-0.01-0.72,0.252-1.191,1.155-2.408c1.437-1.865,2.245-3.312,3.671-6.289c2.317-5.478,4.077-12.716,4.032-16.885
	c-0.013-1.375-0.38-2.094-1.109-2.081c-0.723,0-2.088,0.975-3.711,2.428c-8.295,8.018-13.554,19.451-13.466,29.34
	c0.046,5.275,1.057,6.807,4.614,6.768c1.629,0,3.629-0.425,5.717-1.171c5.075-1.793,10.969-4.667,16.309-7.828
	c2.805-1.643,3.979-2.206,4.797-2.206c0.917-0.013,1.463,0.465,1.469,1.27V524.456z"/>
<path style="fill:#F68C3D;" d="M159.255,509.507c-0.802,1.689-1.332,3.299-1.682,4.98c-0.435,1.695-0.605,3.783-0.585,5.936
	c0.091,10.112,3.511,15.478,9.784,15.426c6.83-0.065,14.392-9.601,14.31-17.952c-0.033-3.528-1.427-7.285-4.287-11.185
	c-1.109-1.695-1.571-2.565-1.578-3.207c-0.01-1.198,0.527-2.003,1.97-3.22c3.164-2.749,7.513-4.955,9.784-4.968
	c1.276-0.013,2.919,0.602,3.744,1.401c1.927,1.845,3.338,6.8,3.39,12.094c0.17,18.77-13.983,34.065-31.539,34.209
	c-6.646,0.052-13.675-2.134-17.703-5.713c-3.4-2.952-5.164-6.938-5.21-11.748c-0.101-11.486,10.498-26.342,23.09-32.462
	c5.53-2.683,12.333-4.431,17.16-4.47c3.459-0.033,5.099,0.347,5.108,1.309c0.003,0.491-0.357,0.975-1.073,1.708
	c-2.35,2.016-3.714,2.762-8.07,3.835c-4.719,1.322-5.985,1.905-9.238,4.497C162.57,503.617,161.219,505.313,159.255,509.507z"/>
<path style="fill:#F68C3D;" d="M235.056,538.802c-3.256,2.847-4.709,3.567-6.973,3.593c-3.642,0.026-6.395-2.52-6.427-6.047
	c-0.023-2.258,0.592-4.424,2.647-9.169c0.53-1.296,0.71-1.532,1.064-2.494c-3.786,3.403-5.138,4.765-8.564,8.482
	c-6.218,6.722-9.385,9.071-12.023,9.097c-3.907,0.026-6.302-2.683-6.342-7.323c-0.026-3.07,1.119-7.068,4.149-14.078
	c2.847-6.61,4.189-9.339,5.805-11.61c1.977-2.749,4.241-4.129,6.97-4.156c3.275-0.026,5.563,1.486,5.583,3.567
	c0.013,2.088-0.599,4.424-2.464,9.006c-1.159,2.657-1.342,3.312-1.954,5.249c1.895-1.708,2.254-2.107,5.409-5.596
	c4.231-4.686,7.117-7.598,9.378-9.378c2.795-2.271,5.239-3.417,7.52-3.436c3.096-0.026,5.946,2.984,5.975,6.453
	c0.017,1.354-0.874,4.012-2.65,8.606c-0.897,2.095-0.985,2.5-1.42,3.862c1.62-1.296,2.343-1.872,3.524-2.834
	c1.888-1.63,3.871-3.488,5.949-5.426c4.424-4.379,6.23-5.517,8.505-5.53c3.635-0.026,5.661,2.284,5.697,6.532
	c0.01,0.713-0.232,3.613-0.668,6.336c-0.589,4.902-1.001,9.634-0.985,11.499c0.02,2.395,0.314,4.248,1.257,7.925
	c0.474,1.761,0.56,2.095,0.756,3.364c-0.438,1.846-3.423,3.397-6.614,3.423c-2.362,0.026-4.738-1.001-6.849-2.834
	c-2.759-2.461-3.59-4.941-3.642-10.713c-0.023-2.487-0.026-3.07,0.373-8.43L235.056,538.802z"/>
<path style="fill:#F68C3D;" d="M291.37,518.107c7.402-7.441,10.655-9.641,14.477-9.667c4.188-0.033,5.753,1.8,5.792,6.61
	c0.013,1.132-0.072,2.245-0.321,4.503c-0.425,3.285-0.51,5.059-0.484,7.454c0.026,2.657,0.223,4.902,0.517,6.342
	c0.19,0.884,0.478,1.846,0.942,2.958c0.373,1.119,0.465,1.61,0.471,1.931c0.007,0.392-0.176,0.713-0.537,0.969
	c-1.813,1.453-5.262,2.611-7.441,2.618c-5.184,0.052-8.96-4.811-9.032-11.708c-0.007-1.544,0.072-2.827,0.51-5.544
	c-2.631,2.422-3.704,3.397-5.419,5.092c-2.716,2.755-6.136,6.48-8.391,9.137c-1.433,1.78-1.616,1.95-2.425,2.762
	c-1.171,0.955-2.349,1.381-3.714,1.394c-3.822,0.026-6.404-2.605-6.44-6.624c-0.039-4.96,2.513-14.778,5.992-22.579
	c1.332-3.142,3.125-5.89,4.931-7.598c1.348-1.217,2.89-1.78,4.807-1.793c3.001-0.026,4.657,1.721,4.69,5.249
	c0.026,2.899-0.576,6.348-1.721,11.25L291.37,518.107z"/>
<path style="fill:#F68C3D;" d="M323.806,541.596c-1.453-0.079-2.369-0.386-3.652-1.498c-2.199-1.977-3.05-4.143-3.076-8.083
	c-0.085-8.737,4.176-21.61,8.678-26.46c0.897-0.976,2.265-1.565,3.803-1.565c3.462-0.039,5.753,2.925,5.805,7.494
	c0.065,6.905-2.127,16.388-5.956,25.57c-0.799,2.081-1.617,3.207-2.788,3.953c-0.727,0.32-1.715,0.589-2.723,0.589H323.806z
	 M328.819,502.236c-2.827-0.052-4.202-1.492-4.228-4.378c-0.026-2.965,1.845-7.402,3.914-9.261c1.086-1.067,1.996-1.388,3.717-1.401
	c3.011-0.026,4.293,1.244,4.326,4.13c0.046,5.622-3.639,10.871-7.644,10.91H328.819z"/>
<path style="fill:#F68C3D;" d="M364.174,528.252c-5.452,9.922-8.613,13.155-12.71,13.181c-1.545,0.013-2.644-0.452-3.744-1.479
	c-2.107-2.153-3.783-5.917-5.288-12.16c-1.146-4.876-1.728-9.137-1.761-12.5c-0.072-8.03,2.899-11.342,10.177-11.407
	c3.645-0.02,4.293,1.093,4.359,8.227c0.039,4.09,0.34,8.672,0.837,12.278c0.196,0.707,0.288,1.76,0.576,3.122
	c0.798-1.453,1.067-1.924,1.702-3.148c1.518-3.141,3.115-6.761,4.817-10.877c1.872-4.49,3.298-7.559,4.012-8.522
	c0.268-0.333,0.452-0.484,0.818-0.818c1.531-0.962,3.253-1.401,6.086-1.427c3.992-0.026,4.921,1.485,5.072,8.24
	c0.033,3.848,1.198,11.774,2.611,17.553c0.288,1.191,0.759,2.958,1.512,5.36c0.792-1.859,1.073-2.5,1.42-4.032
	c0.877-3.613,1.289-7.86,1.23-14.366l-0.013-1.76c-0.039-3.783,0.497-5.628,2.474-7.494c1.898-1.695,5.065-3.155,7.16-3.181
	c2.369-0.026,3.39,1.499,3.416,5.341c0.039,4.333-0.995,9.967-2.847,16.074c-1.689,5.386-3.829,10.314-6.787,15.151
	c-2.781,4.444-4.856,5.969-8.403,6.008c-4.097,0.026-7.762-2.428-10.445-6.983c-1.663-2.873-2.88-6.479-3.835-11.368
	c-0.183-0.55-0.275-1.433-0.471-2.552L364.174,528.252z"/>
<path style="fill:#F68C3D;" d="M439.569,502.269c0,0.962-1.086,1.604-2.997,1.708c-9.543,0.563-17.2,9.522-17.108,19.968
	c0.052,5.694,3.272,9.437,8.181,9.392c4.47-0.039,8.43-4.804,8.377-10.256c-0.04-4.49-2.35-8.567-6.296-11.1
	c-0.811-0.55-1.283-1.034-1.283-1.283c0-0.38,0.72-1.034,1.807-1.688c2.899-1.708,6.617-2.952,8.796-2.965
	c5.458-0.052,9.974,5.386,10.033,12.107c0.046,5.458-2.533,11.421-6.42,14.824c-4.961,4.3-12.579,7.324-18.954,7.376
	c-6.086,0.066-12.84-1.977-16.427-4.994c-2.284-1.996-3.58-4.948-3.619-8.874c-0.111-12.357,14.876-25.407,29.249-25.524
	C437.37,500.927,439.556,501.307,439.569,502.269z"/>
<path style="fill:#F68C3D;" d="M456.611,516.491c0-0.157,0.085-0.478,0.274-0.962c2.029-6.918,3.547-9.896,6.257-12.088
	c1.086-0.825,2.356-1.217,3.901-1.23c2.094-0.026,3.377,1.086,3.848,3.332c0.452-0.406,0.635-0.576,1.171-1.126
	c1.623-1.787,2.441-2.271,3.626-2.284c2.546-0.013,3.842,2.297,3.881,6.617c0.065,7.134-2.867,14.798-5.694,14.824
	c-1.086,0-1.466-1.44-1.492-4.889c-0.033-3.364-0.419-5.131-1.427-6.329c-0.995,1.616-1.427,3.861-1.636,10.046
	c-0.157,2.644-0.144,3.456-0.406,5.714l-0.17,0.792c0,0.642-0.079,1.283-0.17,1.924c-0.412,4.032-0.857,5.072-3.03,6.853
	c-2.166,1.787-4.431,2.604-6.525,2.618c-3.547,0.026-5.209-2.042-5.249-7.186c-0.039-4.156,1.08-10.917,2.487-15.577
	L456.611,516.491z"/>
<path style="fill:#F68C3D;" d="M512.189,493.722c0-0.406-0.197-0.727-0.459-0.727c-1.008,0.013-3.875,4.621-5.386,8.561
	c-5.15,13.279-6.211,17.69-6.159,23.554c0.04,3.528,0.773,4.889,2.684,4.876c3.188-0.026,7.716-2.873,10.864-6.976
	c1.44-1.8,2.16-2.35,2.977-2.363c0.917,0,1.368,0.55,1.381,1.911c0.079,8.508-10.033,17.18-20.04,17.258
	c-8.103,0.072-13.606-4.621-13.672-11.833c-0.105-11.958,12.526-33.653,23.75-40.649c1.715-1.139,3.704-1.715,5.707-1.728
	c4.915-0.039,8.6,4.182,8.652,10.112c0.079,8.109-3.757,16.473-10.262,22.311c-3.063,2.847-6.054,4.463-8.142,4.477
	c-0.917,0.013-1.558-0.373-1.564-1.028c-0.007-0.399,0.445-1.204,1.158-2.258c1.086-1.525,2.52-4.273,3.586-6.518
	c0.183-0.484,0.537-1.204,0.89-2.258C510.553,504.246,512.215,497.256,512.189,493.722z"/>
<path style="fill:#F68C3D;" d="M556.85,501.837c2.277-9.483,4.594-15.511,6.937-17.618c1.257-1.217,3.351-1.793,6.715-1.819
	c2.729-0.026,3.835,0.124,4.83,0.844c-2.572,7.081-3.357,9.967-4.568,16.807c-0.956,5.393-1.453,10.845-1.414,15.014
	c0.053,6.093,1.113,11.944,3.724,19.798c-4.339,2.755-9.143,4.646-11.97,4.673c-1.636,0.013-3.004-0.786-3.652-2.134
	c-1.303-2.552-1.394-2.965-2.186-9.136c-7.657,7.199-15.622,11.846-19.994,11.885c-5.007,0.039-8.41-3.789-8.462-9.483
	c-0.039-5.131,2.448-11.741,6.663-17.461c2.696-3.724,5.596-6.315,9.385-8.586c3.351-1.951,6.263-3.024,8.626-3.037
	c1.453-0.013,2.356,0.379,4.935,1.885L556.85,501.837z M555.201,519.835c-1.538,1.224-2.631,1.787-3.357,1.8
	c-0.452,0-0.635-0.157-0.635-0.556c0-0.164,0.079-0.471,0.255-0.975c0.622-1.604,0.89-3.043,0.87-4.575
	c-0.013-2.002-0.583-4.418-1.604-6.558c-0.464-1.204-1.021-1.76-1.656-1.76c-0.275,0-0.628,0.17-0.818,0.412
	c-2.886,2.913-5.727,10.805-5.674,15.858c0.026,2.977,1.139,4.646,3.227,4.621c2.179-0.013,6.165-2.54,9.411-6.021L555.201,519.835z
	"/>
</svg>
