<svg enable-background="new 0 0 612 792" viewBox="0 0 612 792" xmlns="http://www.w3.org/2000/svg"><path d="M 571.137 159.353 c -91.652 38.374 -190.458 21.145 -263.637 -45.963 c -73.178 67.108 -171.984 84.337 -263.636 45.963 c 0 0 -58.914 321.377 263.636 520.037 C 630.051 480.73 571.137 159.353 571.137 159.353 z"/><path d="M 307.5 130.513 c -47.835 40.471 -104.917 61.795 -165.781 61.795 c -29.399 0 -58.662 -5.072 -87.209 -15.096 c -.893 8.938 -1.788 21.43 -1.976 36.692 c -.366 29.615 1.93 76.041 14.947 129.033 c 14.585 59.374 39.402 114.795 73.763 164.725 c 41.636 60.501 97.547 113.151 166.256 156.582 c 68.709 -43.431 124.62 -96.081 166.256 -156.582 c 34.361 -49.93 59.179 -105.352 73.764 -164.725 c 13.017 -52.992 15.313 -99.418 14.948 -129.033 c -.188 -15.262 -1.083 -27.754 -1.977 -36.692 c -28.547 10.024 -57.811 15.096 -87.21 15.096 C 412.416 192.307 355.335 170.983 307.5 130.513 L 307.5 130.513 z" fill="#ed1c24"/><ellipse cx="307.5" cy="568.051" rx="70.581" ry="70.581" transform="matrix(.7071 -.7071 .7071 .7071 -311.6078 383.8135)"/><path d="M 330.337 632.969 c -7.149 2.518 -14.835 3.887 -22.832 3.887 c -10.815 0 -21.057 -2.498 -30.156 -6.939 l .193 -2.288 l .314 -.322 l 18.581 -14.734 l 26.909 3.848 L 330.337 632.969 z" fill="#fff"/><path d="M 371.232 593.986 c -1.589 3.932 -3.549 7.686 -5.832 11.218 l -1.073 -5.906 L 371.232 593.986 z" fill="#fff"/><path d="M 375.68 558.843 c .4 3.014 .605 6.091 .605 9.208 c 0 7.842 -1.306 15.372 -3.726 22.386 l -10.143 8.368 l -18.912 -2.247 l -6.72 -26.576 l 12.494 -21.467 l 18.903 -1.279 l 7.353 12.486 L 375.68 558.843 z" fill="#fff"/><path d="M 335.936 505.386 c 13.859 6.306 25.25 17.059 32.361 30.457 l -.439 -.139 v 9.606 l -18.257 1.277 l -20.824 -23.38 l -1.6 -16.65 L 335.936 505.386 z" fill="#fff"/><path d="M 319.52 500.305 c 4.672 .819 9.179 2.117 13.49 3.833 l -6.798 .81 L 319.52 500.305 z" fill="#fff"/><path d="M 295.83 500.241 c 3.794 -.649 7.686 -.991 11.665 -.991 c 2.78 0 5.51 .171 8.212 .493 l 8.915 6.169 l 1.921 17.299 l -26.266 15.372 l -23.066 -6.081 l 1.931 -19.046 L 295.83 500.241 z" fill="#fff"/><path d="M 270.189 510.243 c 6.71 -4.345 14.229 -7.548 22.286 -9.337 l -14.298 10.776 L 270.189 510.243 z" fill="#fff"/><path d="M 240.051 554.454 c .965 -4.823 2.429 -9.472 4.35 -13.876 l .83 7.043 L 240.051 554.454 z" fill="#fff"/><path d="M 248.088 602.765 c -5.969 -10.183 -9.384 -22.048 -9.384 -34.714 c 0 -3.117 .205 -6.194 .606 -9.208 l 6.836 -9.691 l 9.939 5.125 l 4.476 27.546 l -5.774 22.742 L 248.088 602.765 z" fill="#fff"/><path d="M 275.436 628.936 c -10.505 -5.541 -19.411 -13.734 -25.808 -23.667 l 5.492 1.536 l 20.492 19.868 L 275.436 628.936 z" fill="#fff"/><path d="M 276.899 534.424 L 299.956 540.505 L 305.077 567.733 L 286.185 587.588 L 262.162 581.189 L 257.996 552.361 L 275.621 534.102 Z" fill="#fff"/><path d="M 334.863 572.221 L 306.685 569.333 L 286.828 590.159 L 296.113 610.656 L 325.074 614.622 L 341.271 596.884 Z" fill="#fff"/><path d="M 474.453 444.214 v .142 c 0 0 .77 -.059 1.306 -.021 c .967 .082 1.22 .649 1.814 1.39 c .731 .917 1.083 .965 2.33 1.375 c .733 .254 1.698 .503 1.933 .463 c .204 -.034 1.258 -.829 1.473 -1.111 c .292 -.385 .536 -.838 .653 -1.268 c .097 -.297 .068 -1.43 -.039 -1.727 c -.068 -.21 -.166 -.418 -.146 -.54 c .009 -.04 .019 -.058 .03 -.088 c .048 -.162 -1.444 -3.667 -1.708 -3.975 c -.116 -.151 -.244 -.268 -.361 -.429 c -.068 -.112 -.148 -.229 -.225 -.35 c -.897 -1.43 -2.204 -3.234 -3.033 -4.174 c -1.483 -1.669 -2.526 -2.458 -3.735 -4.546 c -.195 -.345 -.361 -.669 -.556 -1.008 c -.42 -.717 -4.243 -4.995 -6.107 -7.428 c -.829 -1.091 -1.638 -2.331 -2.33 -3.058 c -.829 -.868 -4.896 -3.926 -5.53 -4.623 c -.449 -.502 -.81 -1.028 -1.239 -1.551 c -1.893 -2.296 -7.471 -6.997 -10.153 -7.815 c -.994 -.313 -1.433 -.353 -1.99 -.811 c -.312 -.259 -.634 -.62 -.956 -.93 c -1.961 -1.917 -2.945 -1.405 -6.076 -2.757 c -.771 -.34 -1.463 -.779 -2.166 -1.247 c -2.721 -1.838 -4.389 -2.628 -8.27 -3.296 c -2.282 -.399 -6.105 -.409 -8.875 -.126 c -2.73 .277 -6.281 1.234 -8.466 .677 c -.682 -.18 -1.414 -.512 -2.185 -.742 c -1.521 -.458 -1.989 -.389 -3.091 -1.057 c -.371 -.23 -.732 -.499 -1.112 -.766 c -2.371 -1.721 -3.541 -2.409 -5.803 -2.999 c -.361 -.098 -.41 -.143 -.547 -.478 c -.898 -2.181 -2.019 -5.014 -2.808 -6.491 c -.42 -.791 -.868 -1.541 -1.18 -2.34 c -.566 -1.469 -.4 -1.596 -1.2 -3.005 c -1.619 -2.896 -3.042 -4.116 -5.598 -5.296 c -.586 -.278 -.859 -.386 -1.337 -.278 c -.722 .162 -1.814 .6 -1.989 .552 c -.166 -.049 -.81 -1.059 -1.395 -1.61 c -.741 -.678 -1.638 -.46 -2.556 .239 c -.351 .268 -.429 .57 -.253 1.18 c .097 .327 .272 .619 .281 .908 c .022 .302 -.145 .619 -.242 .96 c -.244 .839 .038 3.906 .273 4.823 c .156 .629 .42 1.238 .566 1.876 c .009 .049 .292 2.001 .135 2.585 c -.078 .294 -.106 .323 -.302 .372 c -.165 .029 -.311 .02 -.477 .009 c -.888 -.029 -3.484 -.108 -4.497 -.658 c -.38 -.21 -1.414 -1.41 -2.194 -1.984 c -.39 -.284 -.857 -.493 -1.355 -.655 c -1.581 -.496 -1.843 -.439 -2.975 -1.165 c -1.512 -.96 -3.765 -2.716 -4.623 -3.145 c -.995 -.512 -2.291 -.961 -2.916 -1.371 c -.576 -.381 -2.116 -2.078 -3.277 -3.049 c -.916 -.745 -1.989 -1.297 -2.926 -2.032 c -.965 -.751 -1.804 -1.703 -2.74 -2.507 c -1.571 -1.4 -5.033 -3.627 -6.378 -4.505 c -.946 -.61 -1.892 -1.21 -2.994 -1.41 c -.693 -.116 -1.717 -.297 -1.893 -.439 c -.225 -.179 -.361 -.458 -.556 -.726 c -1.122 -1.521 -3.053 -1.8 -4.75 -1.61 c -.994 .123 -1.96 .336 -2.936 .46 c -1.053 .111 -7.256 -.239 -8.914 -.131 c -2.585 .169 -6.867 .624 -7.364 .521 c -.518 -.102 -.994 -.278 -1.511 -.381 c -.507 -.087 -3.657 .103 -5.589 .323 c -2.808 .316 -6.798 .516 -8.085 .774 c -3.053 .609 -10.212 2.658 -10.808 2.667 c -.352 0 -.691 -.009 -1.052 .012 c -2.497 .18 -8.418 2.588 -9.715 3.456 c -.946 .64 -1.201 1.058 -1.648 2.249 c -.194 .546 -.43 1.135 -.273 1.697 c .117 .409 .351 .78 .069 .95 c -.059 .04 -.137 .06 -.167 .098 c -.048 .058 -.018 .151 .01 .249 c .099 .259 1.385 1.79 1.541 1.828 c .391 .098 1.328 -.209 1.97 -.379 c 1.406 -.362 2.947 -.22 4.273 .619 c .467 .297 .878 .727 1.355 1.049 c .274 .19 .575 .341 .82 .531 c .312 .23 .557 .517 .819 .795 c .371 .38 6.623 4.175 7.344 4.457 c .692 .267 1.336 .307 2.156 -.04 c .311 -.131 .731 -.34 .731 -.34 s .742 1.457 1.317 2.467 c .83 1.438 1.14 1.697 1.99 2.316 c .409 .297 7.256 2.916 7.452 2.847 c .361 -.151 .722 -.379 .722 -.379 s .536 1.077 .897 1.555 c .585 .742 1.619 .922 2.653 1.102 c .595 .107 2.02 .468 2.573 .23 c .254 -.123 .421 -.38 .577 -.4 c .118 -.01 .595 .687 1.064 1.136 c .429 .43 1.111 .684 1.6 .63 c .339 -.039 .643 -.22 .994 -.289 c .604 -.121 4.165 1.181 5.218 1.728 c .829 .438 1.717 1.208 2.586 1.779 c .8 .526 2.077 1.165 3.023 1.165 c .459 -.009 .995 -.106 1.21 -.02 c .185 .064 .576 .619 .907 1.059 c .245 .312 2.234 1.819 2.799 2.111 c .537 .279 1.629 .795 2.244 .937 c .839 .181 1.385 .087 1.755 .477 c .488 .512 .633 1.332 1.042 1.459 c .159 .063 .968 -.326 1.183 -.289 c .116 .03 .526 .938 .907 1.537 c .165 .264 .849 .854 1.229 1.059 c 2.018 1.102 3.344 1.15 4.496 2.599 c .469 .581 .73 1.088 1.395 1.136 c .42 .044 1.034 -.097 1.21 -.02 c .175 .083 .399 .522 .644 .868 c .38 .521 1.239 1.189 1.902 1.321 c .302 .049 .586 .011 .81 .117 c .234 .104 .595 .693 .964 .991 c .157 .131 .343 .22 .557 .302 c .293 .108 .615 .195 .889 .346 c .224 .131 .409 .292 .614 .43 c .557 .369 1.249 .609 1.843 1.009 c .078 .048 1.336 1.228 1.707 1.316 c .271 .074 .555 -.059 .81 -.01 c .175 .035 .595 .463 .907 .79 c .224 .24 2.301 1.308 2.789 1.439 c 1.317 .361 3.834 .55 5.169 1.516 c .253 .19 .536 .41 .536 .41 s -.38 .389 -.75 .75 c -.469 .467 -10.163 6.783 -11.119 7.252 c -.975 .468 -4.799 2.584 -5.725 4.125 c -.371 .609 -.79 2.058 -.839 2.565 c -.068 .932 .039 2.229 .039 2.229 s 1.268 .297 1.628 .507 c .146 .082 .41 .579 .41 .76 c 0 .717 -.273 2.145 -.214 2.624 c .028 .283 .682 1.58 .896 1.78 c .137 .142 .302 .249 .478 .332 c .4 .166 1.063 .239 1.22 .376 c .117 .111 .214 .838 .361 1.409 c .068 .302 .692 1.649 1.034 1.936 c .371 .323 .479 .243 .722 .102 c .312 -.17 .819 .068 .896 .161 c .156 .19 .255 .918 .421 1.385 c .068 .181 .165 .333 .283 .474 c .185 .209 .449 .366 .614 .6 c .205 .258 .283 .604 .419 .926 c .311 .688 1.492 2.088 1.942 2.258 c .224 .078 .574 .068 .876 -.02 c 1.132 -.332 1.347 -.722 2.01 .507 c .604 1.161 1.444 2.131 2.936 1.936 c .663 -.087 1.493 -.316 1.705 -.258 c .197 .054 .744 .668 1.183 1.121 c .224 .22 1.433 .849 1.657 .849 c .438 .01 .887 -.219 1.347 -.25 c .302 -.009 1.638 .498 2.544 .786 c .391 .122 4.185 .092 5.413 -.039 c .352 -.04 .771 -.02 .849 .073 c .118 .126 .078 .258 .36 .156 c .187 -.06 .313 -.2 .479 -.288 c .234 -.122 1.872 -.049 2.32 -.19 c .42 -.121 .41 -.42 .781 -.951 c .557 -.786 1.98 -.697 2.936 -1.385 c .391 -.283 .8 -.941 1.258 -1.331 c .292 -.258 .876 -.575 1.268 -.585 c .214 0 .4 .087 .595 .097 c .185 .011 1.121 -.507 1.365 -.741 c .693 -.687 1.502 -2.067 2.449 -2.643 c .975 -.609 1.463 -.663 1.434 -1.799 c -.03 -1.259 -.946 -2.449 -1.698 -3.614 c -.487 -.76 -4.019 -8.592 -4.652 -10.338 c -.81 -2.239 -1.6 -4.414 -2.341 -6.632 c -.118 -.353 -.127 -.391 -.087 -.44 c .106 -.161 .428 -.277 .536 -.311 c .311 -.069 .663 -.049 1.005 -.01 c 1.531 .151 13.371 2.667 15.048 2.848 c 1.483 .171 11.119 .059 14.093 .249 c 1.376 .083 2.986 .473 4.331 1.409 c .478 .342 .878 .752 1.18 .859 c .215 .073 1.96 -.317 2.341 -.259 c .195 .03 1.902 1.469 2.194 1.848 c .781 1.011 2.02 2.639 3.492 2.996 c .118 .019 .215 .028 .332 -.01 c .272 -.099 .614 -.46 .848 -.547 c .538 -.224 1.239 1.137 1.971 1.775 c .264 .25 .722 .459 1.122 .59 c .263 .089 1.756 .068 1.891 -.029 c .342 -.239 .684 -.678 .684 -.678 s .76 .707 1.296 1.117 c .605 .479 2.185 1.38 2.848 1.565 c .438 .122 .946 .245 1.082 .391 c .223 .234 .371 .702 .557 .8 c .097 .048 .38 .102 .507 .029 c .106 -.067 .127 -.229 .214 -.317 c .283 -.312 2.214 .288 2.468 .439 c .204 .111 .359 .239 .506 .258 c .195 .03 .352 -.097 .537 -.137 c .137 -.043 1.414 .669 2.379 1.239 c .254 .146 5.842 .615 6.097 .507 c .409 -.199 .877 -.439 1.111 -.429 c .234 .02 .77 .318 1.287 .591 c .391 .209 4.497 1.117 4.789 1.067 c .468 -.092 .897 -.302 1.268 -.293 c .342 0 2.02 .673 3.024 1.064 C 474.403 444.125 474.453 444.155 474.453 444.214"/><path d="M 463.705 439.419 c .019 .035 .038 .054 .038 .073 c .049 .147 -.175 .717 -.38 1.147 c -.273 .531 -1.083 .6 -1.775 .56 c -.946 -.039 -2.527 -.131 -3.072 -.277 c -.517 -.151 -1.043 -.381 -1.347 -.37 c -.185 .009 -.312 .078 -.468 .107 c -.186 .044 -2.907 -1.288 -3.19 -1.546 c -.068 -.059 -.135 -.132 -.204 -.2 l -5.307 -1.789 c .068 .083 .127 .17 .174 .253 c .138 .186 .284 .458 .205 .547 c -.038 .029 -.126 .02 -.223 0 c -.868 -.219 -2.887 -1.448 -3.521 -2.439 l -1.073 -.087 c -.116 .259 -.263 .498 -.418 .59 c -.157 .087 -1.259 .059 -1.561 -.029 c -.429 -.151 -1.638 -.991 -1.96 -1.659 l -1.463 -.551 c -.215 .142 -.468 .303 -.605 .381 c -.292 .151 -.477 .058 -.965 -.24 c -.468 -.288 -.986 -.751 -1.288 -1.141 c -.37 -.488 -.722 -1.196 -1.17 -1.526 c -.225 -.181 -.546 -.322 -.8 -.459 c -.262 -.141 -.789 -.693 -.829 -.849 v -.083 l -1.014 -.498 c -.654 .097 -2.127 .21 -2.263 .151 c -.311 -.151 -.526 -.38 -.77 -.6 c -.323 -.269 -1.562 -.912 -2.039 -1.038 c -.908 -.264 -4.009 -.639 -4.009 -.639 l .108 -.113 h -.703 l .088 .084 l -2.721 -.084 h -.75 c -.021 .03 -.049 .059 -.146 .093 c -.273 .097 -2.78 -.044 -2.78 -.044 v -.049 h -.79 c -.05 0 -.127 .01 -.215 .01 c -3.697 .093 -4.993 .122 -8.3 -.546 c -3.658 -.75 -10.026 -2.17 -11.372 -2.311 c -.984 -.098 -1.55 -.098 -2.38 .244 c -.126 .048 -.272 .117 -.36 .229 c -.039 .049 -.03 .097 .097 .44 c 1.112 3.242 2.244 6.403 3.462 9.71 c .517 1.403 3.784 8.285 4.174 8.807 c .751 .981 .908 1.17 1.18 2.248 c .342 1.327 -.321 1.029 -2.048 2.346 c -.35 .268 -.887 1.18 -1.053 1.229 c -.019 0 -.127 -.171 -.302 -.479 l -3.249 1.907 c -.029 .268 -.175 .45 -.487 .888 c -.311 .42 -.809 .917 -1.092 1.058 c -.458 .249 -1.171 .468 -1.171 .468 s -.039 -.156 -.108 -.428 l -2.252 1.15 c -.03 .537 -.068 .956 -.068 .956 l -1.795 .03 l -.039 -.606 l -2.818 .328 l -.049 .331 l -1.881 .162 c 0 0 -.021 -.181 -.03 -.455 l -2.478 -.335 l -.331 .829 c 0 0 -1.609 -.932 -1.961 -.999 c -.214 -.049 -.321 .111 -.712 .297 c -.683 .331 -1.726 -.327 -2.35 -.995 c -.41 -.439 -.703 -.951 -.996 -.991 c -.213 -.029 -.664 .288 -1.278 .391 c -.466 .078 -1.072 .019 -1.072 .019 s .167 -.649 .419 -1.526 l -2.594 -1.454 c -.167 .191 -.313 .313 -.429 .323 c -.04 .009 -.147 -.01 -.264 -.108 c -.068 -.064 -.059 -.102 .068 -.444 l .029 -.097 l -3.883 -2.191 c -.261 .084 -.476 .124 -.614 .094 c -.77 -.17 -.808 -1.629 -1.141 -2.268 c -.107 -.22 -.38 -.478 -.565 -.531 c -.293 -.088 -1.015 .102 -1.259 .024 c -.126 -.043 -.721 -1.292 -.76 -1.609 c -.118 -.819 -.097 -1.542 -.634 -1.809 c -.643 -.308 -.956 -.098 -1.492 -.507 c -.361 -.273 -.644 -.882 -.692 -1.312 c -.059 -.507 .302 -2.156 .233 -2.497 c -.087 -.419 -.537 -1.337 -.965 -1.558 c -.03 -.008 -.654 -.218 -.83 -.228 c -.185 -.01 -.205 -.049 -.235 -.41 c -.252 -3.018 1.073 -4.335 3.619 -6.003 c 3.414 -2.228 9.383 -5.754 10.612 -6.69 c .478 -.361 .935 -.722 1.404 -1.029 c .478 -.313 2.506 -1.318 2.653 -2.078 c .078 -.448 -.342 -1.049 -.703 -1.316 c -.302 -.245 -2.466 -1.103 -2.905 -1.15 c -1.015 -.142 -1.609 .048 -2.761 -.508 c -1.092 -.531 -3.443 -2.229 -3.676 -2.229 c -.264 -.008 -.518 .069 -.762 0 c -.205 -.062 -.781 -.688 -1.258 -1.057 c -.468 -.361 -1.415 -.648 -1.912 -1.029 c -.283 -.219 -.528 -.512 -.819 -.658 c -.371 -.191 -.908 -.191 -1.21 -.391 c -.302 -.18 -.576 -.608 -.859 -.887 c -.087 -.073 -.156 -.131 -.234 -.181 c -.39 -.253 -1.735 -.551 -2.039 -.76 c -.371 -.269 -1.423 -1.746 -1.598 -1.8 c -.498 -.126 -1.21 .234 -1.668 -.107 c -.233 -.17 -.526 -.848 -.83 -1.132 c -.194 -.184 -.458 -.229 -.81 -.516 c -.156 -.143 -.331 -.333 -.331 -.333 l .156 -.008 l -1.133 -.621 c .05 .181 .041 .24 -.115 .211 c -.712 -.127 -2.867 -1.386 -3.258 -1.936 c -.848 -1.191 -.643 -2.25 -1.56 -1.859 c -.264 .122 -.566 .352 -.722 .342 c -.137 -.019 -.946 -1.399 -1.201 -1.589 c -.166 -.117 -.994 -.143 -1.618 -.24 c -.946 -.151 -3.268 -1.526 -4.028 -2.286 c -1.434 -1.439 -1.474 -2.078 -2.468 -1.937 c -1.366 .19 -2.039 .04 -3.542 -.864 c -.935 -.556 -1.892 -1.395 -2.799 -1.907 c -.819 -.467 -4.34 -1.848 -5.569 -1.746 c -.927 .068 -.936 .219 -1.659 -.092 c -.273 -.117 -.566 -.336 -.741 -.586 c -.371 -.512 -.781 -1.502 -.781 -1.502 l -1.121 1.121 c 0 0 -2.614 -.389 -3.57 -.681 c -.624 -.186 -.877 -.537 -1.277 -1.269 c -.146 -.249 -.234 -.418 -.254 -.546 l -1.239 -.352 c -.029 .039 -.068 .069 -.116 .104 c -.108 .038 -.195 .038 -.302 .028 c -.439 -.019 -6.458 -2.358 -6.837 -2.647 c -.645 -.478 -1.804 -1.727 -2.273 -2.857 c -.399 -.927 -.907 -2.269 -1.044 -2.335 c -.146 -.069 -.302 -.069 -.478 -.02 c -.106 .029 -.224 .078 -.302 .048 c -.106 -.04 -.175 -.609 -.38 -.887 c -.126 -.161 -.458 -.269 -.712 -.381 c -.205 -.098 -.527 -.43 -.585 -.61 c -.039 -.126 .262 -.868 .39 -.945 c .292 -.181 .75 -.2 1.209 -.35 c .429 -.151 1.248 -.629 1.59 -.908 c .146 -.111 .186 -.2 .156 -.483 c -.02 -.145 -.059 -.181 -.399 -.307 l -1.054 -.4 c 0 0 4.067 -1.198 4.359 -1.418 c .313 -.229 .138 -.517 -.272 -.658 c -.381 -.133 -1.571 -.22 -2.301 -.182 c -.878 .049 -2.655 .192 -2.567 -.296 c .02 -.142 3.726 -1.199 5.453 -1.56 c .292 -.06 .546 -.118 .858 -.128 c .801 -.023 1.775 .239 1.589 -.434 c -.028 -.118 -.115 -.19 -.263 -.277 c -.575 -.308 -2.506 -.908 -2.506 -.908 s 2.594 -.41 2.887 -.581 c .233 -.131 .468 -.522 .791 -.878 c .438 -.492 .487 -.419 .799 -.522 c .311 -.107 2.525 -1.965 2.643 -1.925 l .049 .02 c .107 .047 1.287 -.839 2.126 -1.326 c .545 -.323 1.267 -.494 1.853 -.742 c .703 -.327 1.784 -1.029 2.301 -1.18 c .479 -.147 1.123 -.289 1.239 -.43 c .108 -.126 .097 -.22 .323 -.336 c .194 -.112 1.56 -.342 1.697 -.351 c .361 -.02 .439 -.02 .809 -.039 c 2.819 -.078 7.237 -.238 8.457 -.131 c 1.628 .161 3.033 .503 4.827 .19 c 1.982 -.327 3.444 -.945 5.063 -.01 c .399 .23 .849 .552 1.093 .859 c .253 .321 .311 .64 .545 .868 c .146 .161 1.951 .619 3.093 .952 c 2.721 .78 8.202 5.022 9.411 6.242 c .644 .658 1.288 1.4 1.911 1.858 c .382 .277 .8 .517 1.22 .789 c 1.064 .679 2.546 1.888 3.384 2.814 c .625 .711 .878 1.097 1.678 1.542 c .634 .356 1.434 .574 2.165 .906 c .614 .278 1.199 .65 1.765 1.049 c 1.395 1 3.599 2.62 4.214 2.896 c 1.015 .45 2.74 .742 3.658 1.42 c .604 .448 1.239 1.326 1.921 1.848 c .118 .098 .243 .185 .38 .25 c .205 .067 .264 .087 .625 .141 l 3.715 .547 c .361 .048 .41 .058 .507 .111 c .361 .181 .752 -.292 1.024 -.942 c .731 -1.784 -.762 -5.959 -.936 -6.87 c -.098 -.552 -.118 -2.195 -.02 -2.415 c .224 -.482 .917 -.731 1.824 -.341 c .322 .126 .625 .361 .946 .487 c .42 .19 .888 .21 1.307 .43 c .371 .18 1.961 1.876 2.36 2.086 c .761 .41 1.892 .264 2.409 -.507 c .283 -.419 .752 -1.747 .752 -1.747 s .897 .897 1.463 1.576 c .399 .468 .857 1.249 1.111 1.868 c 1.336 3.238 4.701 11.567 5.043 12.025 c .244 .353 .399 .259 1.277 .318 c .439 .035 .936 .19 1.356 .379 c 1.083 .512 4.583 3.01 5.706 3.546 c 1.042 .503 4.33 1.428 5.851 1.589 c .625 .059 5.482 -.659 8.418 -.951 c 3.773 -.366 9.353 .092 12.405 1.488 c 1.562 .711 5.121 3.009 6.116 3.398 c 1.21 .489 2.468 .697 3.716 1.219 c .399 .17 2.038 1.355 2.185 1.575 c .399 .648 .321 .77 1.014 .999 c 2.624 .859 2.799 .741 5.159 2.478 c .722 .516 1.463 1.077 2.185 1.707 c .429 .38 2.458 2.208 2.584 2.608 c .098 .297 0 1.004 .04 1.459 c .009 .228 .077 .438 .214 .668 c .41 .725 3.122 3.822 3.082 3.983 c -.029 .171 -.118 .059 -.342 .2 c -.087 .06 -.116 .732 -.038 .98 c .312 .989 2.067 2.946 2.761 3.833 c .38 .493 .975 1.571 .965 1.731 c -.019 .147 -.098 .258 -.273 .336 c -.264 .142 -.741 .22 -.936 .379 c -.078 .069 -.068 .337 .01 .488 c .517 .913 4.039 3.117 4.107 3.995 c .01 .132 -.439 .771 -.576 .809 c -.429 .142 -1.21 .029 -1.502 .151 c -.185 .082 -.224 .239 -.185 .41 c .048 .288 3.735 4.88 3.852 5.262 c .049 .17 -.019 .21 -.321 .142 c -1.22 -.25 -2.272 -1.449 -3.219 -2.366 c -.595 -.59 -.672 -.59 -1.219 -.654 c -.429 -.048 -.614 -.068 -.341 .571 c .048 .123 .107 .239 .185 .342 c .117 .133 .156 .17 .429 .42 c 1.063 .989 2.76 2.565 3.091 3.057 c .625 .908 1.249 2.165 1.249 2.165 s -.323 .288 -.595 .38 c -.116 .03 -.682 -.239 -.975 -.459 L 463.705 439.419 z" fill="#fff"/><path d="M 359.88 441.297 c .576 .361 .927 .097 1.463 -.307 c 1.102 -.854 2.926 -3.478 3.316 -4.146 c 1.366 -2.316 3.765 -6.545 4.107 -6.842 c .282 -.263 1.024 -.878 .878 -1.36 c -.195 -.59 -.742 -.356 -1.015 -.068 c -.245 .248 -.566 1.02 -.849 1.555 c -.43 .819 -4.253 4.896 -4.633 5.194 c -.566 .453 -1.189 .8 -1.687 1.38 c -.4 .448 -.722 1.037 -1.161 1.428 c -.595 .527 -1.522 1.316 -1.512 1.448 c .009 .288 .576 1.097 .79 1.366 C 359.675 441.097 359.783 441.239 359.88 441.297" fill="#c1c2c2"/><path d="M 360.192 435.996 c 2.019 -2.209 5.704 -6.223 5.96 -6.716 c .185 -.355 .312 -.706 .585 -1.077 c .399 -.561 1.161 -1.289 .682 -1.459 c -.116 -.038 -.245 -.009 -.38 .039 c -.352 .142 -4.125 3.858 -4.769 4.248 c -.731 .46 -2.624 1.078 -3.063 1.399 c -.819 .586 -1.854 1.625 -1.854 1.625 s .351 .293 .606 .609 c .829 1.048 .448 2.35 1.482 1.96 c .118 -.049 .234 -.122 .332 -.21 C 359.91 436.303 359.948 436.265 360.192 435.996" fill="#c1c2c2"/><path d="M 372.179 431.694 c -.137 -.258 -.418 -.399 -.779 -.361 c -.137 .021 -.167 .059 -.371 .361 c -1.328 1.975 -2.487 3.814 -4.068 5.863 c -1.765 2.277 -4.398 5.544 -4.584 6.013 c -.205 .517 .731 1.107 1.765 1.355 c .712 .172 .946 -.19 1.698 -1.506 c 3.004 -5.271 3.452 -7.053 6.192 -11.265 C 372.218 431.856 372.237 431.802 372.179 431.694" fill="#c1c2c2"/><path d="M 466.26 439.039 l -.068 -.059 c -.965 -.829 -1.911 -1.189 -2.418 -1.848 c -.313 -.4 -.752 -1.678 -1.259 -2.536 c -.39 -.673 -1.306 -1.6 -1.853 -2.4 c -.253 -.361 -.449 -.741 -.692 -1.126 c -.507 -.839 -3.473 -4.126 -5.072 -6.175 c -.165 -.219 -1.239 -1.598 -1.326 -2.086 c -.077 -.41 .049 -.62 -.39 -.439 c -.186 .067 -.401 .288 -.469 .487 c -.019 .063 .196 2.608 .528 3.546 c .106 .322 .215 .341 .487 .458 c .235 .103 2.419 3.858 3.99 6.013 c .682 .932 3.56 3.737 3.901 4.287 c .216 .351 .372 .708 .626 1.01 c .447 .498 1.257 1.029 1.452 1.248 L 466.26 439.039 z" fill="#c1c2c2"/><path d="M 453.308 438.912 c -2.039 -2.077 -4.761 -7.768 -5.716 -10.255 c -.654 -1.668 -1.307 -3.468 -1.99 -5.072 c -.761 -1.8 -3.365 -7.773 -4.096 -8.441 c -.215 -.19 -.507 -.162 -.595 .048 c -.068 .151 1.258 3.028 1.999 4.784 c .254 .61 .595 1.989 .712 2.946 c .497 3.745 .877 9.577 3.287 12.874 c .342 .469 .76 .889 1.102 1.332 L 453.308 438.912 z" fill="#c1c2c2"/><path d="M 444.636 435.484 c -.175 -.283 -.243 -.541 -.146 -.75 c .069 -.151 .175 -.288 .243 -.468 c .352 -.839 -.77 -4.165 -1.14 -5.155 c -.371 -.97 -.859 -2.02 -1.336 -3.067 c -.634 -1.478 -1.991 -4.843 -2.411 -6.829 c -.087 -.36 -.116 -.399 -.321 -.399 l -.468 .01 c 0 0 -.009 .517 .01 .965 c .029 .561 .458 2.332 .722 2.989 c .536 1.336 2.028 6.349 2.136 7.169 c .156 1.277 .81 4.237 .937 4.305 c .351 .181 .917 .232 .936 .327 c .03 .111 -.067 .482 -.224 .81 L 444.636 435.484 z" fill="#c1c2c2"/><path d="M 439.623 434.294 c -.019 -.049 -.039 -.088 -.048 -.137 c -.02 -.064 -.03 -.112 -.01 -.132 c .029 -.029 .107 -.01 .194 .04 c .517 .248 .684 .54 .849 .17 c .097 -.21 .059 -.59 .019 -.932 c -.224 -1.858 -1.541 -7.178 -2.633 -13.181 c -.488 -2.707 -.984 -5.974 -.984 -5.974 l -.722 .009 l .341 12.816 l -.185 3.785 c -.019 .361 .01 .419 .312 .619 c .352 .239 .625 .419 .965 .792 c .42 .466 .976 1.228 .976 1.228 s -.254 .17 -.537 .35 L 439.623 434.294 z" fill="#c1c2c2"/><path d="M 432.503 429.832 c .01 -.347 .332 -1.439 .566 -2.297 c .575 -2.106 .487 -9.408 .302 -10.914 c -.205 -1.56 -.556 -3.477 -.556 -3.477 l -.624 .008 c 0 0 -.215 1.171 -.332 2.258 c -.099 .99 .419 9.808 .313 10.685 c -.04 .332 -.108 .658 -.128 1.02 c -.019 .39 .02 .819 .02 1.161 c .019 .297 -.137 .868 -.253 .975 c -.03 .024 -.137 .054 -.322 .083 L 432.503 429.832 z" fill="#c1c2c2"/><path d="M 415.503 427.096 c -.02 -.083 -.02 -.254 0 -.38 c .02 -.2 .487 -.979 .614 -1.17 c .186 -.267 .41 -.467 .634 -.707 c .526 -.589 1.062 -1.428 1.551 -2.18 c .194 -.307 .205 -.361 .078 -.526 l -.264 -.391 c 0 0 -1.775 2.146 -2.379 3.116 c -.009 .01 -.78 1.448 -.819 2.004 c -.01 .161 -.03 .215 -.195 .234 H 415.503 z" fill="#c1c2c2"/><path d="M 419.171 427.096 l -.342 -.01 c 0 0 2.76 -3.735 3.404 -4.355 c .311 -.312 1.249 -1.15 .682 -1.467 c -.068 -.034 -.127 -.034 -.185 -.025 c -.175 .044 -1.619 1.722 -2.243 2.6 c -.585 .848 -1.083 1.497 -1.678 2.204 c -.205 .254 -.42 .58 -.42 .742 c 0 .159 .059 .238 .03 .311 H 419.171 z" fill="#c1c2c2"/><path d="M 422.505 427.091 c .089 -.097 .215 -.238 .323 -.376 c .205 -.272 .819 -2.057 1.092 -3.067 c .185 -.639 .517 -1.379 .917 -2.038 c .195 -.331 1.024 -1.649 .479 -1.859 c -.078 -.028 -.186 -.028 -.273 .02 c -.127 .079 -.234 .259 -.342 .292 c -.088 .011 -.165 -.063 -.244 -.063 c -.097 0 -.185 .131 -.253 .283 c -.254 .468 -.429 1.536 -.703 2.356 c -.224 .696 -.937 1.906 -1.434 2.877 c -.147 .277 -.282 .565 -.478 .829 c -.224 .277 -.224 .327 -.059 .487 l .273 .258 H 422.505 z" fill="#c1c2c2"/><path d="M 394.348 450.928 l 3.25 -1.907 c -1.104 -1.935 -4.8 -9.069 -4.839 -9.397 c -.068 -.552 -.03 -1.087 -.448 -1.2 c -.157 -.048 -.908 -.057 -1.015 .113 c -.04 .059 -.068 .187 -.078 .288 c -.009 .142 -.04 .151 -.156 .151 l -.264 .01 l .009 .356 c 0 .161 .01 .219 .108 .571 c .419 1.619 .78 3.136 1.384 4.833 c .78 2.16 2.029 5.515 2.048 5.994 C 394.358 450.807 394.358 450.871 394.348 450.928" fill="#c1c2c2"/><path d="M 389.227 454.064 l 2.263 -1.15 c -.321 -1.298 -1.258 -5.111 -1.366 -6.111 c -.067 -.531 -.088 -2.478 -.536 -3.086 c -.097 -.142 -.302 -.259 -.468 -.132 c -.175 .141 .019 .341 .087 .59 c .096 .351 .078 1.019 .078 1.019 s -.205 -.97 -.361 -1.199 c -.039 -.059 -.126 -.117 -.272 -.132 c -.079 -.009 -.195 0 -.195 0 s -.019 1.409 .038 2.53 c .099 1.927 .781 5.321 .781 6.389 C 389.276 453.2 389.248 453.674 389.227 454.064" fill="#c1c2c2"/><path d="M 384.517 454.771 l 2.818 -.328 l -.428 -6.524 c 0 0 -.176 .044 -.273 .009 c -.087 -.029 -.03 -.224 -.068 -.355 c -.029 -.103 -.195 -.162 -.302 -.132 c -.225 .059 -.38 .549 -.498 .912 C 385.444 449.46 384.722 453.586 384.517 454.771" fill="#c1c2c2"/><path d="M 380.079 454.469 l 2.478 .351 c -.019 -.342 -.038 -.82 0 -1.283 c .165 -2.375 1.073 -3.355 .479 -3.736 c -.595 -.366 -.878 -.326 -1.2 .253 c -.116 .219 -.156 .278 -.283 .62 L 380.079 454.469 z" fill="#c1c2c2"/><path d="M 364.727 447.534 l 3.893 2.174 c .312 -.897 .643 -1.848 .848 -2.715 c .078 -.361 .137 -.707 .245 -1.078 c .449 -1.507 1.619 -4.205 1.59 -4.472 c -.03 -.224 -.099 -.41 -.089 -.663 c 0 -.63 .351 -1.927 .273 -2.107 c -.059 -.128 -.156 -.21 -.283 -.181 c -.137 .025 -.371 .361 -.526 .684 c -.459 .975 -.722 1.887 -1.161 2.843 c -.225 .482 -2.107 4.096 -2.73 4.613 C 366.668 446.744 365.517 447.305 364.727 447.534" fill="#c1c2c2"/><path d="M 369.214 450.05 l 2.575 1.449 c .38 -1.372 .936 -3.297 1.307 -4.297 c .137 -.336 .262 -1.546 .185 -1.657 c -.156 -.219 -.418 -.448 -.418 -.448 s -.898 1.107 -1.454 1.867 C 371.194 447.266 369.965 449.261 369.214 450.05" fill="#c1c2c2"/><path d="M 412.918 425.594 c -.028 .161 -.078 .502 .01 .654 c .059 .078 .342 .067 .45 -.01 c .097 -.074 .166 -.181 .224 -.312 c .194 -.381 .331 -.917 .654 -1.39 c .409 -.619 1.794 -1.848 1.843 -2.053 c .068 -.294 -.156 -.542 -.459 -.453 c -.596 .171 -2.205 2.56 -2.458 2.999 C 413.064 425.228 412.949 425.448 412.918 425.594 M 406.726 425.81 c .107 -.074 .058 -.372 .078 -.562 c .019 -.17 .116 -.259 .214 -.41 c .156 -.22 .331 -.609 .293 -.752 c -.021 -.078 -.041 -.078 0 -.179 c .078 -.186 2.681 -1.946 2.722 -2.117 c .048 -.211 -.128 -.399 -.324 -.478 c -.146 -.04 -3.578 2.458 -4.077 2.966 c -.253 .247 -.954 .897 -.916 1.086 c .01 .102 .332 .274 .469 .253 c .165 -.023 .331 -.141 .477 -.17 c .137 -.039 .097 .04 .186 .18 C 405.905 425.736 406.589 425.906 406.726 425.81 M 400.99 424.56 c .965 -.445 3.423 -1.818 3.813 -1.892 c .146 -.02 .283 -.03 .421 -.01 c .155 .03 .311 .093 .438 .072 c .059 -.008 1.005 -1 1.102 -1.331 c .117 -.399 -.147 -.585 -.4 -.507 c -.576 .181 -2.458 1.459 -3.99 2.205 c -.663 .321 -1.345 .58 -1.726 .854 c -.236 .165 -.236 .438 .058 .556 C 400.796 424.536 400.912 424.581 400.99 424.56 M 398.601 423.507 l 2.721 -1.044 c .34 -.131 .39 -.151 .507 -.245 c .38 -.315 .409 -.746 .205 -.857 c -.186 -.089 -.391 -.01 -.538 .189 c -.068 .093 -.116 .113 -.458 .24 l -3.121 1.131 c -.341 .128 -.39 .137 -.43 .176 c -.107 .083 -.126 .162 -.078 .253 c .137 .288 .371 .361 .663 .327 C 398.21 423.658 398.259 423.638 398.601 423.507 M 377.914 439.78 c 0 0 -.732 1.156 -.995 1.848 c -.215 .526 -.331 1.975 -.175 2.517 c .272 .878 2.252 3.193 3.042 3.813 c .265 .21 .4 .267 .585 .21 c .877 -.318 1.639 -2.629 1.911 -3.395 c .743 -2.169 1.864 -5.047 2.312 -6.773 c .156 -.601 .273 -1.17 .439 -1.756 c .156 -.512 1.57 -3.17 1.883 -3.497 c .253 -.277 1.375 -1.399 .76 -1.609 c -.107 -.04 -.956 -.03 -1.063 .029 c -.215 .103 -.537 .41 -.537 .41 s -.126 -.589 -.224 -.849 c -.078 -.19 -.147 -.18 -.352 -.107 c -1.092 .375 -3.179 2.525 -3.92 4.003 c -.302 .591 -.654 1.611 -.654 1.611 s -.03 -.493 -.019 -.941 c .029 -1.468 1.404 -4.424 .663 -5.453 c -.156 -.21 -.371 -.38 -.615 -.458 c -.371 -.122 -1.189 -.22 -1.189 -.22 s -.41 1.595 -.927 3.146 c -.438 1.365 -.956 2.707 -.956 2.707 s -.633 -2.439 -.946 -4.414 c -.097 -.663 .215 -7.402 .488 -10.079 c .078 -.81 .332 -2.668 -.479 -2.449 c -.331 .092 -.643 .751 -.799 1.093 c -1.727 3.744 -1.688 6.1 -2.458 10.264 c -.196 1.04 -.401 2.517 -.361 3.04 c .078 .905 .448 2.023 .448 2.662 c 0 .741 -.174 1.76 -.097 2.16 c .137 .707 .692 1.755 .712 2.117 c .048 1.029 -.215 1.189 .555 1.507 c .604 .248 1.239 .321 1.746 -.162 c .205 -.189 .342 -.477 .663 -.687 C 377.582 439.927 377.914 439.78 377.914 439.78 M 370.755 414.129 c 0 0 1.151 1.41 2.223 2.419 c .488 .448 1.005 .868 1.005 .868 s 1.034 -3.995 1.551 -6.159 c .176 -.752 .682 -3.078 .312 -3.886 c -.106 -.23 -.349 -.24 -.536 -.03 c -.224 .218 -.477 1.039 -.809 1.628 c -.253 .46 -1.482 1.586 -1.98 2.317 c -.165 .238 -.273 .488 -.458 .746 c -.186 .282 -1.093 1.029 -1.307 1.093 c -.234 .059 -.449 .039 -.547 .146 c -.116 .113 -.107 .371 -.244 .591 c -.311 .457 -.965 .619 -.224 .97 c .059 .029 .097 .029 .156 0 C 370.151 414.71 370.755 414.129 370.755 414.129 M 367.158 412.671 c -.607 -3.185 -1.152 -7.866 -2.917 -9.798 c -.138 -.161 -.265 -.258 -.674 -.458 c -.323 -.161 -.811 -.391 -.811 -.391 s -.048 5.496 .108 7.07 c .127 1.323 .448 3.658 1.414 4.277 c .225 .138 .498 .24 .741 .27 c .283 .029 .547 -.02 .791 .069 c .302 .131 .819 .75 .985 .76 c .165 .01 .546 -.599 .468 -1.18 C 367.244 413.09 367.225 413.022 367.158 412.671 M 357.208 409.247 c .029 .01 .078 -.009 .117 -.029 c .098 -.069 .108 -.171 .117 -.282 c .048 -.747 -.956 -7.131 -.897 -7.759 c .029 -.278 .088 -.517 .126 -.81 c .1 -.799 -.059 -2.862 -.068 -4.262 c -.01 -.639 .03 -1.21 .168 -1.79 c .193 -.746 .495 -1.747 .438 -1.946 c -.03 -.121 -.342 -.321 -.469 -.301 c -.293 .042 -.624 .332 -.732 .692 c -.087 .297 .019 .839 .03 1.344 c 0 .512 -.585 2.629 -.82 3.868 c -.507 2.604 -.088 9.378 -.048 9.465 c .088 .22 1.327 1.439 1.638 1.61 C 356.954 409.125 357.11 409.209 357.208 409.247 M 344.752 400.449 c 0 0 .273 -.73 .391 -1.237 c .107 -.42 .097 -.673 .126 -.942 c .059 -.746 .528 -2.048 .878 -3.642 c .361 -1.669 .79 -5.536 .79 -5.536 s -.546 -.067 -.859 .01 c -.116 .029 -.506 .809 -.545 1.086 c -.165 1.21 -1.561 5.668 -2.058 7.965 c -.234 1.088 -.351 1.375 .399 1.813 C 344.216 400.167 344.752 400.449 344.752 400.449 M 341.788 399.002 c .205 .077 .351 -.074 .39 -.143 c .488 -.926 .897 -2.638 .956 -3.555 c .108 -1.725 .165 -5.144 .312 -5.544 c .235 -.628 .615 -1.276 .021 -1.555 c -.84 -.409 -2.195 4.101 -2.263 4.345 c -.273 .897 -.8 4.115 -.741 4.453 c .078 .418 .429 1.21 1.014 1.759 C 341.583 398.859 341.701 398.957 341.788 399.002 M 339.077 397.271 c .224 .074 .331 0 .38 -.117 c .264 -.58 .916 -3.116 1.073 -4.194 c .233 -1.56 .564 -3.579 .75 -3.978 c .302 -.648 .81 -1.376 .908 -1.775 c .048 -.21 .019 -.269 -.147 -.371 c -.321 -.179 -.8 -.36 -1.015 -.336 c -.73 .059 -1.843 2.194 -2.292 3.336 c -.517 1.288 -1.131 3.956 -1.258 5.569 C 337.39 396.612 337.672 396.822 339.077 397.271 M 335.906 395.647 c 0 0 .246 -.475 .419 -.874 c .283 -.62 .44 -1.229 .507 -1.755 c .087 -.589 .146 -1.258 .244 -1.888 c .097 -.629 1.035 -3.276 1.483 -4.194 c .43 -.881 .966 -1.94 .966 -1.94 s -.332 -.287 -.604 -.346 c -.45 -.102 -3.112 2.385 -3.385 2.746 c -.185 .239 -1.161 3.726 -1.218 4.325 c -.118 1.576 -.146 2.215 .935 3.298 C 335.526 395.296 335.906 395.647 335.906 395.647 M 331.869 394.315 c .176 .083 .332 -.146 .4 -.277 c .517 -.933 .545 -1.2 .848 -2.497 c .137 -.63 1.269 -4.814 2.175 -5.993 c .186 -.24 1.659 -1.507 1.005 -1.888 c -.068 -.039 -.156 -.029 -.245 .01 c -.243 .122 -.263 .22 -.439 .19 c -.253 -.049 -.496 -.311 -.742 -.361 c -.408 -.079 -1.228 .712 -1.54 1.103 c -1.131 1.433 -2.204 5.807 -2.37 7.388 C 330.863 392.929 330.933 393.876 331.869 394.315 M 316.156 388.513 c 1.219 .102 1.736 -.138 2.624 -.85 c 1.112 -.878 5.413 -5.52 6.456 -7.169 c .479 -.76 1.151 -1.857 1.483 -2.16 c .204 -.18 .77 -.629 .507 -.908 c -.128 -.131 -.654 0 -.83 .079 c -.292 .132 -.555 .381 -.819 .649 c -1.404 1.454 -3.375 3.858 -4.184 4.556 c -.908 .77 -2.946 2.15 -4.155 2.568 c -1.238 .44 -3.11 1.196 -3.179 1.338 c -.313 .697 .897 1.296 1.775 1.77 C 315.941 388.444 316.068 388.501 316.156 388.513 M 311.191 386.717 l 1.249 .347 c -.01 -.059 -.01 -.106 .011 -.156 c .058 -.161 1.131 -.863 2.048 -1.331 c .741 -.39 7.578 -5.521 8.788 -6.603 c .75 -.66 3.481 -2.874 3.315 -4.054 c -.038 -.287 -.4 -.448 -.837 -.287 c -.265 .099 -.792 .659 -1.249 1.024 c -.264 .205 -.547 .371 -.8 .551 c -.507 .37 -.889 .809 -1.328 1.238 c -.36 .353 -6.729 3.907 -7.207 4.014 c -1.034 .244 -2.409 .512 -2.809 .721 c -.381 .202 -.703 .479 -1.2 .688 c -1.083 .469 -3.151 1.011 -3.21 1.151 c -.165 .336 .566 1.029 1.229 1.375 c .703 .361 1.795 .839 1.97 1.039 C 311.24 386.527 311.259 386.634 311.191 386.717 M 348.712 404.434 l 1.142 .619 l .605 -.009 c 0 0 .223 -1.2 .332 -2.24 c .088 -.951 -.264 -4.242 -.243 -6.202 c .019 -.99 .165 -2.107 .311 -3.145 c .048 -.361 .029 -.41 -.156 -.508 c -.585 -.302 -.839 -.189 -.956 .138 c -.615 1.969 -1.093 7.1 -1.249 9.139 c -.059 .608 -.021 1.477 .097 1.848 C 348.645 404.225 348.683 404.341 348.712 404.434" fill="#c1c2c2"/><path d="M 452.215 414.31 l -.722 .008 l .01 .508 c 0 .218 .019 .278 .146 .619 c .185 .478 2.301 5.954 3.072 7.1 c .302 .429 .654 .82 .956 1.259 c .546 .77 .946 1.697 1.463 2.536 c .4 .628 2.702 3.478 3.492 4.048 c .351 .248 .741 .39 .888 .126 c .067 -.088 .067 -.229 .058 -.366 c -.02 -.43 -3.317 -9.149 -3.588 -9.481 c -.89 -1.078 -3.386 -3.277 -3.767 -3.833 c -.312 -.474 -.585 -.999 -.994 -1.512 c -.245 -.279 -.596 -.62 -.644 -.927 C 452.576 414.318 452.537 414.31 452.215 414.31 M 448.801 419.342 l -.722 .01 l .01 .537 h -.263 c 0 0 .078 .799 .165 1.502 c .292 2.394 .653 3.911 .956 5.462 c .088 .498 .244 1.117 .42 1.355 c .185 .264 .439 .409 .682 .674 c .332 .337 .956 1.727 1.522 2.525 c .429 .62 1.053 1.118 1.57 1.727 c .546 .63 1.531 2.537 2.283 3.594 c .302 .439 1.024 1.15 1.482 1.457 c .576 .392 1.297 .791 1.725 1.093 c .137 .097 .235 .176 .45 .22 c .39 .067 1.159 -.024 1.159 -.024 s .012 -.288 -.009 -.537 c -.048 -.638 -.877 -2.126 -1.043 -2.408 c -.302 -.478 -2.155 -2.278 -3.287 -3.424 c -2.301 -2.326 -5.013 -7.603 -6.505 -10.948 c -.097 -.229 -.185 -.449 -.273 -.8 C 448.938 420.63 448.801 419.342 448.801 419.342 M 435.156 416.064 c -.526 4.165 -.029 8.598 -.984 12.524 c -.205 .8 -.693 2.029 .019 2.287 c .205 .083 .693 -.326 .937 -.687 c .264 -.38 .556 -1.39 .653 -1.761 c .595 -2.395 .692 -8.091 .293 -10.505 c -.078 -.512 -.225 -1.969 -.488 -1.999 C 435.458 415.904 435.165 415.978 435.156 416.064 M 434.912 429.12 c 0 .03 -.087 .03 -.137 0 c -.078 -.054 -.068 -.293 -.009 -.399 c .029 -.04 .127 -.04 .146 0 C 434.941 428.817 434.952 429.018 434.912 429.12 M 435.04 428.711 c 0 .039 -.078 .039 -.128 .01 c -.097 -.064 -.097 -.503 -.019 -.679 c .019 -.044 .126 -.044 .137 0 C 435.067 428.188 435.067 428.549 435.04 428.711 M 435.165 428.042 c -.009 .03 -.078 .04 -.135 0 c -.078 -.064 -.089 -.609 -.011 -.81 c .021 -.043 .118 -.043 .137 0 C 435.195 427.399 435.195 427.837 435.165 428.042 M 435.273 426.959 c 0 .03 -.078 .04 -.127 0 c -.087 -.058 -.097 -.736 -.019 -.935 c .019 -.04 .127 -.04 .137 -.01 C 435.311 426.212 435.302 426.721 435.273 426.959 M 435.4 425.882 c 0 .028 -.089 .028 -.137 0 c -.087 -.049 -.078 -.39 -.01 -.541 c .02 -.04 .126 -.04 .137 0 C 435.429 425.472 435.429 425.751 435.4 425.882 M 429.294 422.746 l -.009 -.21 c 0 -.096 .009 -.151 .097 -.497 c .195 -.721 .429 -1.497 .674 -2.13 c .135 -.366 .214 -.586 -.011 -.737 c -.097 -.059 -.253 -.131 -.36 -.131 c -.089 .01 -.147 .059 -.283 .029 c -.098 -.02 -.254 -.088 -.254 -.088 l -3.257 6.243 c -.176 .322 -.187 .371 -.195 .439 c -.019 .21 .068 .341 .399 .439 c .226 .058 .42 .038 .566 .121 c .166 .107 .312 .526 .537 .82 c .39 .487 1.648 1.01 2.087 .819 c 1.151 -.483 1.239 -3.345 1.23 -4.458 c -.011 -.725 -.031 -1.613 -.031 -1.613 s -.409 -.083 -.586 .01 C 429.752 421.878 429.294 422.746 429.294 422.746 M 413.182 421.126 c -1.288 1.21 -2.565 2.887 -3.393 4.116 c -.372 .532 -.586 .942 -.313 1.152 c .322 .258 .672 -.61 1.278 -1.531 c .467 -.688 2.457 -2.668 2.779 -3.156 c .039 -.049 .059 -.097 -.009 -.238 C 413.456 421.318 413.241 421.068 413.182 421.126 M 400.171 394.555 l .01 .287 c 0 .131 0 .19 -.048 .551 c -.118 1.116 -.235 2.326 -.488 3.345 c -.566 2.184 -1.717 5.769 -1.658 6.042 c .049 .192 .186 .39 .4 .298 c .137 -.059 .371 -.737 .576 -.888 c .106 -.082 .564 .049 .994 .059 c .312 0 1.102 -.289 1.717 -.499 c 1.385 -.473 7.169 -1.179 7.929 -1.189 c .682 -.009 1.326 .039 1.999 .018 c 1.307 -.038 5.316 -.856 6.75 -.916 c 1.209 -.054 2.311 .117 3.472 .171 c .712 .029 3.608 -.311 4.165 -.492 c 2.292 -.737 2.877 -1.479 4.429 -.878 c 2.048 .78 2.867 1.727 4.885 3.078 c 3.355 2.224 7.676 3.793 11.051 4.135 c 1.385 .127 2.321 .166 2.068 -.483 c -.078 -.199 -5.453 -3.242 -6.526 -3.682 c -2.067 -.868 -4.057 -1.76 -5.987 -2.97 c -2.761 -1.716 -4.487 -2.975 -6.975 -3.355 c -.702 -.107 -7.032 .313 -10.777 .44 c -1.024 .043 -6.808 -.517 -7.715 -.747 c -1.024 -.253 -2.028 -.561 -3.111 -.76 c -.673 -.118 -1.374 -.191 -2.029 -.371 c -1.336 -.356 -3.765 -1.194 -4.233 -1.209 C 400.649 394.53 400.171 394.555 400.171 394.555 M 396.056 409.155 l -.361 .01 c -.156 0 -.176 .038 -.254 .398 c -.556 2.508 -1.249 5.93 -1.764 7.501 c -.04 .108 -1.434 3.735 -1.142 3.995 c .068 .059 .224 .019 .418 -.089 c .723 -.409 .858 -.779 1.425 -.624 c .243 .083 .545 .234 .838 .332 c .849 .284 4.195 .029 4.965 -.487 c 1.531 -1.01 1.697 -2.667 1.55 -4.224 c -.068 -.809 -.166 -1.17 -.546 -1.6 c -.771 -.868 -2.945 -2.588 -3.161 -2.955 c -.253 -.41 -.321 -.82 -.565 -1.268 c -.39 -.77 -1.395 -2.219 -1.774 -1.92 c -.049 .028 -.059 .082 -.01 .218 C 395.763 408.682 396.056 409.155 396.056 409.155 M 384.721 404.361 l -.798 .009 v .537 l .809 -.01 L 384.721 404.361 z M 383.103 403.713 c 0 0 .166 -.264 .175 -.474 c 0 -.126 -.244 -.429 -.39 -.467 c -.498 -.118 -.557 .721 -.498 1.218 c .039 .372 .049 .41 .107 .44 c .039 .029 .078 .038 .127 .047 c .43 .133 .614 .029 .888 -.448 c .078 -.137 .068 -.297 -.01 -.316 C 383.385 403.668 383.103 403.713 383.103 403.713 M 375.31 402.731 c .059 .029 .186 .049 .293 .029 c .137 -.029 1.102 -4.374 1.385 -6.349 c .087 -.561 1.258 -3.755 1.551 -4.199 c .595 -.916 1.288 -1.814 .839 -2.034 c -.538 -.263 -1.142 1.068 -1.511 1.917 c -1.435 3.243 -2.292 6.531 -2.731 9.676 C 375.104 401.932 375.046 402.629 375.31 402.731 M 359.061 398.32 l -.01 -.274 l -.663 .01 c 0 0 .263 3.657 .244 5.754 c -.01 .79 -.059 1.36 0 1.868 c .078 .65 .332 1.21 .448 2.229 c .127 1.059 .087 2.595 .087 2.595 s 1.044 0 1.307 .111 c .225 .089 .439 .499 .615 .591 c .595 .277 .829 -1.321 .838 -1.702 c .03 -.678 -1.024 -7.062 -1.268 -7.711 c -.098 -.267 -.195 -.507 -.283 -.804 c -.224 -.83 -.292 -2.859 -1.053 -2.741 C 359.217 398.266 359.061 398.32 359.061 398.32 M 354.077 398.216 c .01 -1.468 .029 -5.721 -.098 -5.872 c -.058 -.078 -.565 -.151 -.867 .279 c -.146 .22 -.205 .502 -.264 .81 c -.361 2.238 -1.043 11.987 -.8 12.576 c .214 .507 .566 .995 1.014 .879 c .663 -.161 .77 -.478 .868 -1.059 C 354.077 404.927 354.067 400.114 354.077 398.216 M 348.906 391.277 c .011 -.103 -.164 -.259 -.282 -.331 c -.76 -.429 -1.346 1.751 -1.56 2.59 c -.429 1.765 -1.102 5.821 -1.161 6.939 c -.019 .468 .283 2.278 .401 2.346 c .34 .253 .672 0 .906 -.678 c .225 -.668 1.005 -8.329 1.268 -9.237 C 348.645 392.287 348.879 391.697 348.906 391.277 M 333.185 367.646 c .039 .029 .118 0 .195 -.03 c .137 -.068 .146 -.18 .215 -.269 c .078 -.131 2.243 -.658 2.838 -.691 c 2.78 -.177 5.529 .443 7.988 1.858 c .975 .56 5.637 4.027 6.846 5.096 c 2.156 1.916 4.019 3.852 6.116 5.72 c 1.775 1.58 3.706 3.107 5.354 4.716 c 3.707 3.618 5.12 6.071 9.49 8.949 c .722 .468 1.277 .532 2.019 -.17 c .867 -.829 2.634 -6.35 2.653 -6.53 c .019 -.342 0 -.688 -.176 -.74 c -.165 -.06 -.507 .18 -.81 .198 c -.185 0 -.975 -.608 -1.531 -.868 c -.234 -.107 -.477 -.161 -.741 -.19 c -.312 -.039 -.624 -.068 -.946 -.117 c -2.105 -.379 -6.095 -2.726 -7.188 -3.515 c -1.277 -.942 -11.011 -9.719 -12.289 -10.637 c -.703 -.521 -7.705 -4.104 -8.535 -4.374 c -.604 -.19 -4.994 -1.36 -5.695 -2.058 c -.186 -.2 -.273 -.419 -.47 -.542 c -.145 -.097 -.936 -.121 -1.238 -.039 c -.419 .108 -.858 .328 -1.248 .63 c -.702 .527 -1.083 .946 -1.659 .858 c -.106 -.02 -.213 -.059 -.311 -.049 c -.526 .049 -1.092 1.346 -1.218 1.766 C 332.727 367.007 332.766 367.386 333.185 367.646 M 331.859 382.407 c 0 0 -.76 .418 -1.297 .829 c -1.336 .99 -3.55 5.422 -3.247 7.52 c .116 .868 .779 1.36 1.833 1.219 c .312 -.04 .352 -.088 .41 -.45 c .428 -2.647 .751 -4.364 1.697 -6.622 c .078 -.17 .137 -.317 .263 -.478 c .585 -.74 .918 -.648 .761 -1.059 C 332.17 383.089 331.859 382.407 331.859 382.407 M 325.939 387.121 c .956 -.96 8.427 -8.767 8.69 -9.846 c .078 -.321 .059 -.96 -.361 -.901 c -.234 .038 -.819 .409 -1.249 .76 c -.547 .428 -.986 .848 -1.463 1.237 c -.557 .44 -1.17 .86 -1.795 1.308 c -1.511 1.068 -6.827 5.462 -8.408 6.959 c -.722 .673 -1.404 1.41 -1.072 2.121 c .233 .499 1.609 .64 2.379 .591 C 323.647 389.277 324.808 388.259 325.939 387.121 M 333.185 362.851 c .078 -.128 .078 -.459 -.009 -.591 c -.059 -.087 -1.541 -.067 -2.048 .044 c -.097 .02 -18.521 2.135 -20.053 3.004 c -.615 .361 -1.502 1.108 -1.102 1.82 c .526 .916 4.437 .01 5.452 -.132 c 2.136 -.297 16.669 -3.248 16.971 -3.434 C 332.737 363.319 333.048 363.071 333.185 362.851 M 327.869 366.844 c .108 -.316 -.234 -.546 -.371 -.584 c -.331 -.093 -1.239 -.044 -2.067 .038 c -3.696 .307 -16.034 1.795 -16.249 1.956 c -.01 .01 -.975 1.039 -.771 1.591 c .146 .409 1.103 .619 1.611 .599 c .448 -.01 1.413 -.322 2.184 -.57 c .79 -.259 8.954 -1.318 13.119 -2.03 c .595 -.106 2.184 -.668 2.418 -.848 C 327.801 366.947 327.85 366.898 327.869 366.844 M 302.541 380.339 c -.079 .049 .829 1.122 1.288 1.511 c .917 .786 .994 1.195 1.599 1.316 c 1.386 .279 3.11 -.658 4.379 -1.487 c 2.897 -1.848 4.253 -3.067 7.607 -4.394 c .781 -.302 1.522 -.541 2.273 -.873 c .977 -.438 3.189 -1.868 4.895 -2.946 c .878 -.56 2.664 -1.638 2.283 -2.212 c -.351 -.542 -1.619 .487 -2.536 .975 c -.556 .292 -2.35 .79 -3.56 1.141 c -1.063 .307 -8.719 3.853 -10.357 4.404 C 307.573 378.72 303.038 380.041 302.541 380.339 M 302.628 378.5 c 2.994 -.546 8.212 -2.405 10.436 -3.863 c .488 -.332 .907 -.658 1.454 -.97 c .77 -.418 9.168 -3.184 9.5 -3.453 c .39 -.302 .351 -.482 -.099 -.671 c -.224 -.089 -15.272 2.677 -16.413 3.028 c -2.244 .678 -3.122 1.526 -5.18 4.184 c -.448 .58 -.586 .819 -.517 1.248 c .02 .112 .039 .201 .136 .288 C 302.101 378.423 302.452 378.535 302.628 378.5" fill="#c1c2c2"/><path d="M 137.982 458.394 v .113 c 0 0 -.576 -.049 -.965 -.019 c -.702 .059 -.897 .467 -1.326 1.019 c -.538 .678 -.801 .706 -1.718 1.004 c -.536 .181 -1.238 .371 -1.413 .342 c -.156 -.02 -.937 -.609 -1.083 -.819 c -.205 -.278 -.4 -.609 -.486 -.917 c -.059 -.22 -.041 -1.058 .028 -1.277 c .049 -.151 .128 -.312 .107 -.4 c 0 -.02 -.01 -.038 -.02 -.063 c -.028 -.118 1.073 -2.688 1.258 -2.916 c .089 -.108 .176 -.2 .265 -.318 c .049 -.068 .107 -.17 .164 -.248 c .655 -1.059 1.61 -2.381 2.225 -3.067 c 1.093 -1.23 1.854 -1.8 2.739 -3.346 c .148 -.249 .274 -.487 .41 -.731 c .313 -.526 3.121 -3.672 4.487 -5.461 c .594 -.79 1.199 -1.708 1.717 -2.249 c .604 -.63 3.589 -2.872 4.057 -3.384 c .322 -.372 .576 -.752 .896 -1.137 c 1.396 -1.692 5.482 -5.145 7.461 -5.745 c .732 -.22 1.045 -.249 1.454 -.6 c .233 -.18 .479 -.449 .702 -.678 c 1.444 -1.4 2.165 -1.029 4.467 -2.028 c .555 -.239 1.073 -.561 1.59 -.908 c 1.999 -1.35 3.218 -1.931 6.066 -2.419 c 1.678 -.297 4.497 -.297 6.525 -.087 c 1.999 .199 4.614 .908 6.212 .487 c .498 -.132 1.035 -.371 1.601 -.541 c 1.111 -.326 1.453 -.277 2.273 -.776 c .271 -.171 .536 -.359 .809 -.56 c 1.735 -1.259 2.604 -1.78 4.263 -2.209 c .263 -.069 .302 -.097 .399 -.347 c .663 -1.6 1.493 -3.678 2.059 -4.764 c .311 -.581 .651 -1.131 .867 -1.717 c .419 -1.073 .304 -1.17 .877 -2.209 c 1.201 -2.127 2.245 -3.018 4.117 -3.886 c .43 -.2 .634 -.289 .995 -.211 c .516 .122 1.316 .45 1.443 .409 c .138 -.038 .605 -.774 1.043 -1.175 c .537 -.501 1.201 -.341 1.864 .176 c .261 .191 .321 .41 .194 .86 c -.089 .253 -.204 .453 -.214 .671 c -.011 .22 .097 .459 .175 .697 c .175 .621 -.02 2.868 -.196 3.545 c -.115 .46 -.312 .907 -.418 1.38 c -.011 .04 -.215 1.468 -.1 1.897 c .049 .21 .069 .239 .225 .27 c .118 .018 .225 .018 .341 .008 c .655 -.018 2.556 -.078 3.308 -.486 c .282 -.152 1.042 -1.029 1.608 -1.449 c .284 -.219 .635 -.371 .986 -.477 c 1.159 -.371 1.364 -.332 2.194 -.859 c 1.103 -.712 2.759 -1.999 3.394 -2.322 c .74 -.366 1.677 -.697 2.145 -.995 c .42 -.282 1.552 -1.531 2.409 -2.238 c .663 -.55 1.444 -.96 2.146 -1.497 c .711 -.55 1.317 -1.239 2.009 -1.838 c 1.15 -1.019 3.696 -2.668 4.681 -3.307 c .693 -.448 1.375 -.878 2.194 -1.029 c .517 -.087 1.258 -.218 1.395 -.332 c .166 -.126 .254 -.336 .41 -.525 c .819 -1.122 2.243 -1.333 3.493 -1.182 c .721 .079 1.423 .25 2.146 .332 c .779 .089 5.325 -.179 6.543 -.102 c 1.893 .131 5.042 .463 5.404 .391 c .38 -.079 .731 -.211 1.122 -.278 c .36 -.069 2.672 .067 4.085 .229 c 2.069 .239 4.995 .381 5.951 .58 c 2.233 .448 7.491 1.945 7.929 1.945 c .254 .01 .507 0 .771 .02 c 1.824 .131 6.173 1.887 7.13 2.526 c .692 .473 .878 .781 1.21 1.659 c .146 .398 .311 .839 .193 1.237 c -.077 .312 -.253 .571 -.047 .697 c .047 .035 .097 .044 .127 .084 c .029 .038 .01 .112 -.011 .181 c -.069 .189 -1.003 1.307 -1.122 1.336 c -.292 .082 -.984 -.147 -1.454 -.279 c -1.024 -.258 -2.164 -.16 -3.13 .459 c -.352 .22 -.654 .532 -1.004 .77 c -.195 .143 -.42 .249 -.594 .39 c -.236 .171 -.41 .376 -.605 .58 c -.263 .279 -4.857 3.064 -5.395 3.273 c -.517 .2 -.985 .22 -1.569 -.028 c -.234 -.098 -.548 -.249 -.548 -.249 s -.545 1.068 -.965 1.804 c -.614 1.064 -.829 1.249 -1.463 1.712 c -.292 .22 -5.326 2.136 -5.461 2.078 c -.274 -.102 -.547 -.273 -.547 -.273 s -.379 .799 -.663 1.151 c -.42 .542 -1.18 .668 -1.931 .799 c -.439 .079 -1.483 .346 -1.893 .171 c -.185 -.092 -.311 -.283 -.43 -.292 c -.078 -.01 -.428 .501 -.78 .838 c -.302 .313 -.811 .493 -1.171 .45 c -.243 -.021 -.477 -.157 -.73 -.209 c -.43 -.079 -3.063 .872 -3.832 1.282 c -.595 .316 -1.258 .878 -1.892 1.298 c -.595 .389 -1.531 .857 -2.224 .849 c -.332 0 -.722 -.069 -.889 -.011 c -.125 .049 -.417 .459 -.663 .781 c -.184 .229 -1.638 1.336 -2.048 1.545 c -.399 .21 -1.199 .589 -1.657 .688 c -.625 .131 -1.014 .072 -1.278 .351 c -.361 .381 -.468 .98 -.77 1.077 c -.118 .04 -.722 -.247 -.868 -.209 c -.087 .01 -.39 .679 -.673 1.123 c -.118 .194 -.615 .628 -.898 .773 c -1.482 .811 -2.457 .85 -3.297 1.908 c -.34 .43 -.537 .8 -1.024 .839 c -.311 .034 -.76 -.078 -.888 -.019 c -.126 .063 -.292 .38 -.467 .643 c -.273 .386 -.917 .868 -1.404 .966 c -.215 .039 -.43 .01 -.595 .078 c -.166 .083 -.429 .522 -.702 .741 c -.117 .088 -.265 .161 -.411 .21 c -.205 .083 -.457 .151 -.663 .258 c -.157 .103 -.293 .209 -.449 .312 c -.399 .278 -.906 .45 -1.346 .747 c -.059 .043 -.984 .902 -1.258 .97 c -.184 .049 -.409 -.04 -.586 -.01 c -.135 .029 -.438 .339 -.671 .581 c -.156 .169 -1.687 .955 -2.048 1.058 c -.966 .268 -2.809 .4 -3.794 1.116 c -.186 .132 -.391 .304 -.391 .304 s .284 .277 .547 .545 c .351 .342 7.462 4.973 8.173 5.316 c .712 .345 3.511 1.897 4.195 3.038 c .273 .448 .586 1.507 .614 1.873 c .06 .681 -.02 1.638 -.02 1.638 s -.936 .219 -1.199 .371 c -.107 .068 -.302 .429 -.302 .561 c 0 .526 .205 1.576 .156 1.926 c -.02 .21 -.507 1.17 -.655 1.307 c -.115 .103 -.223 .181 -.349 .245 c -.304 .126 -.78 .175 -.898 .277 c -.079 .078 -.156 .61 -.263 1.04 c -.059 .219 -.517 1.208 -.761 1.418 c -.272 .237 -.361 .18 -.526 .078 c -.233 -.132 -.604 .049 -.663 .122 c -.118 .126 -.184 .668 -.312 1.004 c -.049 .132 -.118 .254 -.205 .351 c -.137 .151 -.332 .273 -.449 .43 c -.146 .2 -.205 .458 -.311 .693 c -.225 .506 -1.093 1.525 -1.425 1.657 c -.156 .059 -.419 .059 -.645 -.01 c -.827 -.253 -.983 -.531 -1.472 .365 c -.449 .85 -1.073 1.562 -2.156 1.42 c -.487 -.058 -1.091 -.229 -1.247 -.191 c -.146 .04 -.548 .504 -.868 .83 c -.167 .161 -1.064 .62 -1.22 .62 c -.322 .009 -.655 -.162 -.996 -.181 c -.214 -.01 -1.2 .361 -1.863 .571 c -.292 .087 -3.081 .068 -3.978 -.02 c -.254 -.031 -.557 -.02 -.615 .048 c -.077 .103 -.049 .19 -.273 .113 c -.126 -.044 -.225 -.142 -.351 -.21 c -.165 -.084 -1.365 -.039 -1.706 -.142 c -.302 -.092 -.294 -.297 -.566 -.687 c -.41 -.59 -1.454 -.522 -2.156 -1.029 c -.283 -.201 -.585 -.693 -.927 -.972 c -.204 -.189 -.634 -.428 -.926 -.428 c -.156 0 -.302 .057 -.438 .067 c -.127 .011 -.83 -.371 -.996 -.545 c -.517 -.503 -1.112 -1.512 -1.806 -1.941 c -.711 -.449 -1.061 -.478 -1.042 -1.317 c .019 -.926 .692 -1.799 1.239 -2.659 c .361 -.554 2.945 -6.299 3.413 -7.587 c .605 -1.638 1.18 -3.238 1.715 -4.866 c .089 -.259 .089 -.288 .069 -.317 c -.087 -.124 -.311 -.21 -.399 -.23 c -.224 -.053 -.479 -.039 -.731 -.01 c -1.122 .108 -9.812 1.956 -11.05 2.097 c -1.093 .107 -8.163 .039 -10.35 .18 c -1.004 .059 -2.184 .345 -3.17 1.029 c -.351 .249 -.653 .556 -.877 .629 c -.155 .059 -1.433 -.234 -1.717 -.191 c -.135 .021 -1.395 1.078 -1.599 1.356 c -.575 .751 -1.483 1.926 -2.575 2.2 c -.079 .019 -.156 .019 -.234 -.01 c -.205 -.073 -.448 -.332 -.624 -.4 c -.4 -.161 -.917 .839 -1.443 1.307 c -.205 .181 -.547 .332 -.829 .429 c -.195 .068 -1.288 .049 -1.396 -.02 c -.243 -.181 -.496 -.497 -.496 -.497 s -.567 .517 -.947 .819 c -.449 .345 -1.609 1.014 -2.097 1.156 c -.313 .083 -.692 .17 -.79 .278 c -.166 .17 -.283 .512 -.409 .59 c -.069 .044 -.294 .073 -.371 .024 c -.079 -.053 -.099 -.17 -.157 -.243 c -.215 -.22 -1.618 .219 -1.823 .331 c -.137 .079 -.253 .171 -.36 .19 c -.146 .019 -.264 -.073 -.392 -.111 c -.107 -.03 -1.042 .501 -1.754 .911 c -.185 .118 -4.291 .458 -4.467 .375 c -.312 -.137 -.653 -.316 -.819 -.307 c -.176 .01 -.576 .229 -.947 .429 c -.282 .15 -3.305 .819 -3.52 .781 c -.342 -.073 -.663 -.221 -.928 -.21 c -.253 0 -1.49 .487 -2.212 .78 C 138.012 458.336 137.982 458.346 137.982 458.394"/><path d="M 145.873 454.878 c -.02 .021 -.028 .03 -.028 .049 c -.031 .113 .126 .531 .271 .839 c .195 .39 .791 .439 1.308 .418 c .683 -.038 1.843 -.097 2.253 -.21 c .379 -.107 .771 -.277 .984 -.267 c .136 0 .235 .059 .352 .078 c .126 .029 2.126 -.946 2.34 -1.137 c .049 -.038 .098 -.092 .146 -.151 l 3.893 -1.307 c -.049 .059 -.088 .118 -.127 .181 c -.099 .137 -.205 .335 -.146 .399 c .029 .03 .087 .03 .156 .009 c .645 -.161 2.126 -1.072 2.584 -1.789 l .79 -.068 c .096 .19 .205 .366 .311 .429 c .108 .068 .918 .049 1.142 -.019 c .322 -.113 1.21 -.722 1.444 -1.22 l 1.072 -.4 c .157 .108 .341 .219 .449 .278 c .214 .113 .35 .039 .711 -.18 c .323 -.21 .712 -.547 .937 -.839 c .273 -.356 .536 -.868 .858 -1.116 c .166 -.142 .409 -.239 .594 -.342 c .186 -.097 .576 -.497 .604 -.619 v -.059 l .742 -.371 c .487 .083 1.561 .161 1.667 .113 c .225 -.113 .371 -.273 .566 -.429 c .235 -.2 1.141 -.673 1.502 -.771 c .654 -.189 2.938 -.468 2.938 -.468 l -.08 -.082 h .518 l -.08 .064 l 2.01 -.064 h .557 c .01 .02 .04 .053 .097 .073 c .197 .068 2.048 -.03 2.048 -.03 v -.043 h .566 c .04 0 .088 0 .166 .009 c 2.712 .073 3.658 .092 6.086 -.41 c 2.701 -.545 7.363 -1.584 8.349 -1.687 c .732 -.078 1.142 -.068 1.756 .17 c .087 .04 .205 .088 .264 .171 c .019 .038 .019 .068 -.069 .326 c -.819 2.38 -1.648 4.696 -2.545 7.125 c -.381 1.039 -2.78 6.082 -3.072 6.471 c -.537 .717 -.663 .849 -.868 1.649 c -.235 .965 .244 .746 1.511 1.716 c .263 .2 .663 .868 .781 .908 c .01 0 .087 -.127 .214 -.356 l 2.39 1.404 c .02 .189 .118 .321 .361 .648 c .215 .312 .585 .673 .79 .78 c .353 .181 .868 .342 .868 .342 l .079 -.322 l 1.658 .848 c .02 .4 .039 .703 .039 .703 l 1.317 .029 l .028 -.449 l 2.069 .239 l .048 .24 l 1.375 .121 c 0 0 .02 -.13 .031 -.331 l 1.812 -.25 l .245 .61 c 0 0 1.18 -.679 1.433 -.731 c .167 -.04 .235 .082 .528 .219 c .496 .244 1.267 -.24 1.725 -.736 c .294 -.323 .507 -.688 .722 -.722 c .166 -.02 .499 .21 .947 .283 c .342 .058 .789 .02 .789 .02 s -.136 -.483 -.313 -1.132 l 1.892 -1.058 c .138 .142 .246 .229 .323 .244 c .03 0 .107 -.015 .205 -.092 c .038 -.039 .038 -.068 -.049 -.317 l -.03 -.083 l 2.848 -1.6 c .195 .063 .352 .092 .449 .073 c .575 -.132 .596 -1.2 .829 -1.668 c .097 -.17 .292 -.351 .42 -.39 c .215 -.059 .75 .078 .936 .01 c .088 -.03 .517 -.941 .557 -1.17 c .087 -.61 .067 -1.137 .468 -1.327 c .468 -.23 .692 -.078 1.092 -.381 c .253 -.199 .479 -.648 .506 -.956 c .041 -.38 -.223 -1.589 -.164 -1.829 c .058 -.312 .4 -.989 .702 -1.15 c .019 -.011 .477 -.162 .614 -.172 c .127 -.009 .146 -.038 .167 -.297 c .195 -2.218 -.79 -3.184 -2.654 -4.403 c -2.506 -1.638 -6.895 -4.223 -7.793 -4.915 c -.35 -.259 -.692 -.526 -1.024 -.761 c -.35 -.229 -1.843 -.965 -1.95 -1.516 c -.068 -.328 .253 -.776 .507 -.971 c .233 -.175 1.814 -.805 2.125 -.848 c .762 -.098 1.191 .043 2.04 -.366 c .799 -.391 2.525 -1.639 2.701 -1.639 c .185 0 .379 .049 .555 0 c .156 -.048 .566 -.512 .927 -.78 c .342 -.269 1.034 -.478 1.404 -.761 c .205 -.156 .371 -.366 .596 -.477 c .283 -.142 .663 -.142 .898 -.278 c .224 -.142 .409 -.458 .633 -.658 c .049 -.054 .109 -.093 .166 -.132 c .283 -.18 1.268 -.399 1.502 -.561 c .253 -.19 1.034 -1.277 1.161 -1.317 c .361 -.102 .897 .172 1.221 -.078 c .184 -.131 .389 -.619 .614 -.829 c .146 -.141 .341 -.17 .594 -.38 c .128 -.113 .254 -.25 .254 -.25 h -.126 l .837 -.463 c -.039 .142 -.029 .181 .087 .161 c .518 -.097 2.097 -1.019 2.391 -1.429 c .616 -.867 .478 -1.647 1.133 -1.355 c .213 .088 .417 .259 .545 .24 c .097 -.01 .683 -1.02 .877 -1.161 c .117 -.088 .723 -.107 1.19 -.175 c .692 -.112 2.399 -1.121 2.956 -1.682 c 1.053 -1.059 1.083 -1.517 1.804 -1.415 c .995 .137 1.502 .029 2.605 -.638 c .681 -.4 1.385 -1.019 2.048 -1.4 c .614 -.341 3.199 -1.351 4.097 -1.277 c .682 .048 .682 .169 1.21 -.074 c .194 -.077 .419 -.249 .545 -.43 c .273 -.37 .585 -1.097 .585 -1.097 l .81 .819 c 0 0 1.921 -.278 2.625 -.502 c .458 -.137 .653 -.396 .945 -.927 c .097 -.181 .165 -.312 .185 -.409 l .907 -.249 c .019 .03 .048 .049 .087 .068 c .068 .03 .136 .03 .215 .03 c .322 -.02 4.75 -1.727 5.033 -1.947 c .458 -.351 1.307 -1.267 1.657 -2.098 c .284 -.676 .663 -1.667 .771 -1.715 c .107 -.054 .225 -.054 .341 -.019 c .089 .029 .166 .067 .225 .047 c .087 -.028 .126 -.448 .292 -.658 c .088 -.121 .322 -.199 .507 -.283 c .156 -.067 .401 -.307 .439 -.438 c .028 -.099 -.205 -.65 -.292 -.698 c -.215 -.141 -.558 -.152 -.877 -.264 c -.323 -.106 -.918 -.468 -1.182 -.658 c -.106 -.087 -.136 -.156 -.106 -.356 c .019 -.111 .049 -.141 .302 -.234 l .75 -.287 c 0 0 -2.974 -.878 -3.188 -1.039 c -.234 -.181 -.098 -.39 .194 -.487 c .282 -.092 1.161 -.161 1.698 -.131 c .632 .029 1.941 .142 1.881 -.22 c -.02 -.097 -2.749 -.878 -3.998 -1.136 c -.215 -.054 -.41 -.103 -.635 -.103 c -.585 -.02 -1.297 .172 -1.17 -.316 c .02 -.092 .089 -.142 .196 -.199 c .418 -.229 1.843 -.674 1.843 -.674 s -1.911 -.297 -2.116 -.419 c -.186 -.099 -.351 -.386 -.585 -.658 c -.312 -.346 -.361 -.297 -.576 -.376 c -.253 -.073 -1.861 -1.453 -1.95 -1.41 l -.04 .019 c -.077 .03 -.946 -.619 -1.56 -.98 c -.4 -.238 -.937 -.361 -1.357 -.546 c -.525 -.245 -1.307 -.752 -1.695 -.863 c -.353 -.107 -.819 -.219 -.909 -.317 c -.077 -.102 -.066 -.161 -.243 -.248 c -.136 -.083 -1.131 -.254 -1.24 -.254 c -.262 -.02 -.321 -.02 -.584 -.029 c -2.078 -.058 -5.326 -.181 -6.213 -.097 c -1.199 .117 -2.223 .366 -3.55 .136 c -1.453 -.239 -2.526 -.697 -3.706 -.01 c -.302 .171 -.624 .41 -.799 .629 c -.197 .244 -.235 .473 -.401 .653 c -.126 .108 -1.442 .449 -2.283 .689 c -1.999 .57 -6.017 3.682 -6.905 4.583 c -.477 .479 -.947 1.019 -1.405 1.355 c -.272 .21 -.584 .381 -.896 .581 c -.78 .503 -1.864 1.39 -2.478 2.068 c -.469 .522 -.643 .809 -1.229 1.141 c -.477 .259 -1.052 .42 -1.599 .658 c -.45 .21 -.878 .479 -1.289 .766 c -1.034 .742 -2.643 1.932 -3.102 2.13 c -.74 .327 -1.999 .537 -2.682 1.04 c -.448 .335 -.916 .975 -1.405 1.364 c -.087 .074 -.195 .133 -.292 .172 c -.136 .058 -.184 .068 -.448 .111 l -2.73 .4 c -.265 .039 -.302 .048 -.371 .078 c -.263 .142 -.557 -.21 -.751 -.688 c -.535 -1.311 .557 -4.375 .674 -5.046 c .088 -.401 .097 -1.605 .028 -1.766 c -.164 -.361 -.673 -.541 -1.344 -.258 c -.236 .097 -.46 .268 -.684 .366 c -.322 .13 -.663 .151 -.975 .311 c -.264 .138 -1.424 1.376 -1.727 1.536 c -.555 .302 -1.385 .19 -1.766 -.38 c -.205 -.308 -.545 -1.277 -.545 -1.277 s -.663 .658 -1.083 1.161 c -.293 .336 -.626 .906 -.81 1.364 c -.986 2.371 -3.453 8.49 -3.708 8.831 c -.174 .25 -.282 .192 -.935 .23 c -.331 .03 -.693 .142 -.995 .288 c -.79 .371 -3.365 2.2 -4.186 2.599 c -.77 .371 -3.189 1.049 -4.3 1.167 c -.46 .042 -4.028 -.479 -6.185 -.699 c -2.76 -.268 -6.866 .059 -9.109 1.088 c -1.132 .522 -3.766 2.208 -4.478 2.497 c -.896 .361 -1.823 .512 -2.74 .902 c -.292 .117 -1.482 .985 -1.6 1.157 c -.292 .467 -.234 .56 -.751 .721 c -1.923 .639 -2.038 .547 -3.785 1.814 c -.526 .391 -1.073 .8 -1.59 1.258 c -.321 .283 -1.815 1.629 -1.912 1.922 c -.067 .22 .01 .736 -.018 1.067 c -.01 .171 -.059 .318 -.166 .488 c -.292 .54 -2.284 2.819 -2.263 2.926 c .029 .132 .087 .054 .253 .151 c .068 .04 .087 .526 .031 .717 c -.226 .722 -1.513 2.171 -2.02 2.809 c -.282 .371 -.732 1.156 -.712 1.278 c .01 .111 .069 .189 .195 .248 c .195 .103 .545 .151 .683 .273 c .059 .059 .049 .258 -.01 .366 c -.381 .668 -2.955 2.277 -3.003 2.926 c -.01 .102 .32 .571 .428 .6 c .312 .102 .878 .019 1.103 .113 c .126 .058 .146 .18 .126 .297 c -.029 .21 -2.741 3.589 -2.828 3.867 c -.04 .116 .009 .151 .243 .097 c .887 -.181 1.667 -1.068 2.35 -1.736 c .45 -.429 .507 -.439 .908 -.478 c .302 -.044 .448 -.054 .243 .418 c -.028 .089 -.078 .172 -.136 .25 c -.077 .097 -.117 .126 -.312 .307 c -.781 .732 -2.029 1.878 -2.271 2.24 c -.458 .676 -.908 1.597 -.908 1.597 s .234 .21 .44 .269 c .077 .029 .496 -.17 .701 -.326 L 145.873 454.878 z" fill="#fff"/><path d="M 222.085 456.253 c -.42 .259 -.683 .078 -1.073 -.229 c -.81 -.619 -2.145 -2.546 -2.438 -3.038 c -.996 -1.708 -2.761 -4.804 -3.005 -5.033 c -.223 -.191 -.759 -.639 -.653 -.991 c .147 -.429 .546 -.258 .742 -.046 c .186 .179 .419 .749 .634 1.148 c .302 .585 3.11 3.585 3.393 3.804 c .421 .328 .868 .59 1.239 1.01 c .292 .329 .525 .756 .849 1.048 c .439 .391 1.131 .966 1.121 1.068 c -.01 .21 -.429 .8 -.584 1 C 222.241 456.103 222.154 456.206 222.085 456.253" fill="#c1c2c2"/><path d="M 221.852 452.362 c -1.473 -1.619 -4.184 -4.575 -4.371 -4.925 c -.136 -.269 -.233 -.517 -.429 -.8 c -.292 -.41 -.848 -.937 -.497 -1.068 c .079 -.029 .176 -.01 .273 .03 c .264 .102 3.044 2.837 3.502 3.116 c .546 .342 1.932 .79 2.253 1.029 c .604 .429 1.355 1.2 1.355 1.2 s -.253 .209 -.449 .439 c -.604 .77 -.332 1.726 -1.072 1.438 c -.098 -.029 -.186 -.078 -.254 -.151 C 222.066 452.591 222.036 452.563 221.852 452.362" fill="#c1c2c2"/><path d="M 213.054 449.202 c .097 -.19 .312 -.288 .565 -.259 c .108 .01 .136 .04 .282 .259 c .967 1.449 1.825 2.804 2.985 4.297 c 1.298 1.676 3.229 4.081 3.364 4.422 c .156 .38 -.535 .81 -1.296 1 c -.517 .116 -.703 -.142 -1.248 -1.113 c -2.204 -3.871 -2.535 -5.168 -4.545 -8.266 C 213.025 449.314 213.015 449.285 213.054 449.202" fill="#c1c2c2"/><path d="M 143.99 454.596 l .049 -.04 c .712 -.609 1.405 -.878 1.774 -1.356 c .234 -.302 .557 -1.237 .918 -1.867 c .294 -.493 .966 -1.18 1.376 -1.761 c .175 -.259 .32 -.536 .496 -.829 c .381 -.61 2.555 -3.024 3.735 -4.535 c .118 -.146 .897 -1.165 .967 -1.526 c .057 -.297 -.03 -.449 .282 -.333 c .136 .064 .303 .225 .351 .361 c .02 .049 -.156 1.916 -.38 2.609 c -.087 .238 -.166 .248 -.371 .335 c -.165 .083 -1.774 2.839 -2.917 4.419 c -.497 .678 -2.623 2.735 -2.877 3.146 c -.146 .249 -.263 .517 -.448 .736 c -.331 .371 -.927 .751 -1.073 .921 L 143.99 454.596 z" fill="#c1c2c2"/><path d="M 153.499 454.503 c 1.503 -1.527 3.503 -5.706 4.205 -7.53 c .477 -1.218 .956 -2.535 1.453 -3.726 c .557 -1.316 2.467 -5.706 3.005 -6.192 c .164 -.142 .379 -.117 .438 .029 c .048 .123 -.927 2.229 -1.462 3.516 c -.195 .448 -.43 1.458 -.527 2.17 c -.361 2.745 -.643 7.027 -2.409 9.446 c -.254 .342 -.566 .649 -.81 .98 L 153.499 454.503 z" fill="#c1c2c2"/><path d="M 159.869 451.987 c .127 -.21 .177 -.4 .108 -.552 c -.049 -.106 -.128 -.219 -.195 -.345 c -.245 -.61 .584 -3.058 .848 -3.775 c .273 -.722 .645 -1.492 .975 -2.258 c .479 -1.077 1.462 -3.554 1.786 -5.016 c .048 -.26 .068 -.289 .234 -.289 l .34 .009 c 0 0 0 .371 -.02 .711 c -.018 .396 -.32 1.707 -.525 2.185 c -.391 .991 -1.482 4.668 -1.561 5.262 c -.118 .941 -.585 3.107 -.685 3.16 c -.261 .137 -.682 .166 -.701 .249 c -.01 .078 .059 .347 .166 .59 L 159.869 451.987 z" fill="#c1c2c2"/><path d="M 163.546 451.114 c .02 -.04 .028 -.068 .038 -.097 c .01 -.054 .021 -.084 0 -.103 c -.018 -.019 -.077 -.01 -.136 .03 c -.381 .18 -.496 .399 -.624 .122 c -.069 -.151 -.049 -.43 -.02 -.678 c .176 -1.361 1.131 -5.267 1.941 -9.68 c .361 -1.985 .721 -4.384 .721 -4.384 l .527 .01 l -.253 9.406 l .146 2.78 c .01 .259 -.01 .308 -.244 .459 c -.244 .17 -.449 .297 -.702 .581 c -.312 .336 -.711 .897 -.711 .897 s .185 .121 .389 .258 L 163.546 451.114 z" fill="#c1c2c2"/><path d="M 168.773 447.841 c -.009 -.263 -.243 -1.058 -.419 -1.687 c -.419 -1.551 -.36 -6.905 -.214 -8.012 c .147 -1.146 .409 -2.556 .409 -2.556 l .458 .01 c 0 0 .148 .858 .236 1.648 c .067 .727 -.303 7.208 -.225 7.857 c .029 .244 .067 .482 .088 .741 c .008 .293 -.01 .6 -.021 .849 c 0 .229 .108 .638 .195 .721 c .02 .02 .108 .039 .234 .059 L 168.773 447.841 z" fill="#c1c2c2"/><path d="M 181.258 445.828 c 0 -.064 .009 -.181 0 -.278 c -.01 -.151 -.361 -.722 -.458 -.863 c -.136 -.191 -.292 -.337 -.45 -.517 c -.399 -.429 -.789 -1.048 -1.151 -1.6 c -.136 -.22 -.145 -.258 -.059 -.39 l .197 -.278 c 0 0 1.305 1.57 1.743 2.277 c 0 .019 .577 1.068 .597 1.477 c .01 .123 .028 .162 .146 .172 H 181.258 z" fill="#c1c2c2"/><path d="M 178.557 445.828 l .253 -.01 c 0 0 -2.018 -2.736 -2.487 -3.199 c -.245 -.22 -.926 -.84 -.507 -1.069 c .049 -.029 .088 -.029 .136 -.019 c .126 .029 1.191 1.258 1.64 1.897 c .438 .628 .799 1.102 1.229 1.628 c .156 .181 .322 .42 .311 .552 c 0 .107 -.049 .171 -.019 .22 H 178.557 z" fill="#c1c2c2"/><path d="M 176.108 445.828 c -.058 -.073 -.156 -.181 -.233 -.278 c -.156 -.207 -.595 -1.512 -.8 -2.249 c -.137 -.473 -.38 -1.01 -.673 -1.497 c -.136 -.245 -.76 -1.21 -.351 -1.371 c .059 -.019 .137 -.019 .205 .019 c .088 .059 .165 .191 .243 .21 c .059 .01 .127 -.038 .186 -.038 c .068 0 .127 .097 .175 .199 c .186 .347 .323 1.127 .517 1.736 c .177 .512 .684 1.399 1.055 2.107 c .107 .21 .214 .418 .351 .609 c .166 .21 .166 .239 .048 .361 l -.215 .191 H 176.108 z" fill="#c1c2c2"/><path d="M 196.785 463.325 l -2.39 -1.399 c .81 -1.42 3.522 -6.66 3.55 -6.901 c .06 -.399 .02 -.8 .322 -.878 c .136 -.043 .684 -.053 .762 .078 c .029 .049 .048 .142 .048 .21 c .011 .098 .021 .117 .108 .117 h .205 v .264 c -.01 .116 -.01 .156 -.077 .418 c -.323 1.2 -.586 2.307 -1.035 3.546 c -.566 1.584 -1.473 4.052 -1.493 4.403 C 196.775 463.233 196.785 463.281 196.785 463.325" fill="#c1c2c2"/><path d="M 200.54 465.621 l -1.658 -.848 c .234 -.946 .926 -3.746 1.005 -4.482 c .039 -.39 .048 -1.818 .38 -2.266 c .078 -.099 .234 -.181 .351 -.089 c .126 .098 -.02 .249 -.068 .429 c -.068 .259 -.049 .746 -.049 .746 s .146 -.707 .253 -.878 c .03 -.048 .098 -.087 .205 -.102 h .146 c 0 0 .01 1.044 -.029 1.862 c -.067 1.415 -.565 3.902 -.565 4.691 C 200.512 464.998 200.53 465.333 200.54 465.621" fill="#c1c2c2"/><path d="M 204.003 466.148 l -2.068 -.244 l .312 -4.783 c 0 0 .138 .024 .196 0 c .067 -.021 .029 -.167 .057 -.259 c .021 -.068 .138 -.116 .225 -.097 c .167 .039 .274 .399 .352 .668 C 203.32 462.252 203.847 465.276 204.003 466.148" fill="#c1c2c2"/><path d="M 207.26 465.919 l -1.814 .259 c .009 -.249 .02 -.595 0 -.936 c -.126 -1.746 -.79 -2.468 -.352 -2.745 c .43 -.268 .645 -.24 .878 .19 c .087 .156 .107 .2 .205 .448 L 207.26 465.919 z" fill="#c1c2c2"/><path d="M 218.525 460.833 l -2.848 1.6 c -.245 -.664 -.478 -1.361 -.624 -2.001 c -.068 -.258 -.108 -.521 -.186 -.789 c -.33 -1.108 -1.189 -3.088 -1.17 -3.287 c .021 -.157 .069 -.297 .069 -.478 c 0 -.468 -.253 -1.419 -.204 -1.546 c .039 -.102 .117 -.161 .213 -.142 c .099 .019 .273 .269 .373 .497 c .34 .722 .545 1.399 .856 2.087 c .168 .361 1.551 3.02 2.011 3.4 C 217.102 460.253 217.939 460.662 218.525 460.833" fill="#c1c2c2"/><path d="M 215.229 462.676 l -1.893 1.064 c -.272 -1.001 -.683 -2.42 -.955 -3.152 c -.097 -.248 -.186 -1.135 -.137 -1.213 c .126 -.161 .313 -.332 .313 -.332 s .663 .809 1.062 1.371 C 213.786 460.642 214.684 462.1 215.229 462.676" fill="#c1c2c2"/><path d="M 183.14 444.73 c .029 .112 .058 .371 0 .473 c -.039 .059 -.254 .059 -.322 -.01 c -.079 -.054 -.127 -.132 -.175 -.219 c -.137 -.283 -.234 -.682 -.469 -1.02 c -.312 -.462 -1.326 -1.361 -1.355 -1.517 c -.049 -.215 .107 -.39 .342 -.331 c .428 .127 1.61 1.876 1.794 2.205 C 183.042 444.462 183.121 444.613 183.14 444.73 M 187.686 444.882 c -.069 -.049 -.031 -.269 -.049 -.41 c -.01 -.116 -.079 -.2 -.156 -.297 c -.128 -.169 -.245 -.449 -.215 -.55 c .01 -.059 .028 -.059 0 -.132 c -.059 -.146 -1.961 -1.435 -1.999 -1.557 c -.039 -.161 .097 -.297 .243 -.35 c .097 -.04 2.624 1.798 2.985 2.169 c .185 .191 .702 .668 .682 .81 c -.008 .068 -.253 .191 -.351 .176 c -.115 -.018 -.243 -.098 -.35 -.127 c -.099 -.02 -.068 .029 -.137 .142 C 188.3 444.824 187.801 444.955 187.686 444.882 M 191.908 443.964 c -.702 -.321 -2.517 -1.339 -2.799 -1.38 c -.117 -.019 -.215 -.029 -.312 -.009 c -.108 .019 -.225 .059 -.321 .05 c -.049 -.011 -.742 -.728 -.811 -.975 c -.087 -.294 .098 -.43 .303 -.373 c .409 .127 1.794 1.069 2.926 1.62 c .478 .239 .985 .418 1.257 .628 c .166 .118 .166 .318 -.039 .4 C 192.054 443.954 191.967 443.983 191.908 443.964 M 193.664 443.194 l -1.999 -.771 c -.253 -.087 -.292 -.105 -.371 -.18 c -.282 -.224 -.302 -.547 -.146 -.625 c .127 -.073 .274 -.009 .389 .137 c .049 .068 .09 .092 .333 .18 l 2.292 .83 c .244 .092 .274 .102 .323 .132 c .078 .058 .087 .107 .058 .175 c -.107 .216 -.282 .273 -.487 .243 C 193.946 443.306 193.908 443.296 193.664 443.194 M 208.84 455.137 c 0 0 .537 .853 .742 1.361 c .156 .39 .243 1.457 .116 1.848 c -.195 .639 -1.647 2.346 -2.224 2.794 c -.204 .151 -.302 .2 -.429 .151 c -.643 -.229 -1.209 -1.926 -1.404 -2.487 c -.555 -1.599 -1.366 -3.707 -1.697 -4.964 c -.118 -.449 -.195 -.859 -.322 -1.298 c -.118 -.38 -1.15 -2.325 -1.385 -2.565 c -.186 -.208 -1.005 -1.019 -.557 -1.18 c .079 -.028 .702 -.019 .781 .021 c .156 .078 .399 .304 .399 .304 s .079 -.431 .156 -.621 c .049 -.141 .108 -.132 .254 -.083 c .81 .283 2.34 1.848 2.887 2.936 c .214 .439 .478 1.18 .478 1.18 s .019 -.361 .01 -.688 c -.02 -1.068 -1.024 -3.247 -.479 -3.994 c .108 -.151 .264 -.283 .451 -.341 c .271 -.093 .867 -.162 .867 -.162 s .313 1.17 .682 2.307 c .322 1.01 .703 1.989 .703 1.989 s .46 -1.799 .693 -3.247 c .078 -.478 -.167 -5.433 -.352 -7.403 c -.059 -.585 -.253 -1.946 .342 -1.786 c .244 .068 .477 .552 .585 .8 c 1.268 2.746 1.24 4.472 1.814 7.539 c .137 .761 .282 1.838 .253 2.229 c -.049 .668 -.32 1.487 -.332 1.955 c 0 .543 .137 1.288 .089 1.581 c -.118 .517 -.518 1.288 -.528 1.556 c -.038 .752 .157 .868 -.417 1.107 c -.43 .181 -.909 .235 -1.278 -.117 c -.146 -.142 -.245 -.361 -.487 -.497 C 209.093 455.249 208.84 455.137 208.84 455.137 M 214.107 436.313 c 0 0 -.849 1.029 -1.638 1.766 c -.362 .34 -.731 .643 -.731 .643 s -.771 -2.927 -1.152 -4.525 c -.118 -.552 -.497 -2.258 -.225 -2.848 c .079 -.171 .253 -.171 .401 -.03 c .156 .171 .351 .771 .585 1.2 c .195 .336 1.092 1.165 1.463 1.707 c .117 .17 .205 .361 .332 .551 c .146 .199 .799 .746 .965 .794 c .166 .044 .333 .025 .399 .103 c .079 .088 .069 .269 .177 .439 c .233 .342 .712 .449 .166 .708 c -.049 .024 -.079 .024 -.117 0 C 214.555 436.732 214.107 436.313 214.107 436.313 M 216.741 435.236 c .448 -2.327 .849 -5.774 2.136 -7.193 c .118 -.108 .205 -.181 .497 -.337 c .245 -.123 .604 -.283 .604 -.283 s .041 4.038 -.077 5.194 c -.107 .96 -.332 2.678 -1.044 3.136 c -.164 .111 -.361 .17 -.535 .191 c -.215 .03 -.41 -.011 -.596 .057 c -.213 .094 -.595 .552 -.712 .562 c -.127 .009 -.4 -.438 -.351 -.868 C 216.682 435.542 216.692 435.503 216.741 435.236 M 224.046 432.729 c -.02 0 -.049 -.011 -.087 -.03 c -.069 -.043 -.079 -.122 -.089 -.2 c -.029 -.55 .712 -5.248 .663 -5.695 c -.02 -.211 -.058 -.391 -.088 -.596 c -.078 -.589 .039 -2.101 .049 -3.13 c .01 -.467 -.018 -.888 -.136 -1.316 c -.128 -.547 -.352 -1.278 -.312 -1.43 c .028 -.088 .253 -.24 .352 -.22 c .214 .029 .458 .239 .537 .512 c .059 .22 -.01 .61 -.02 .986 c 0 .37 .43 1.93 .594 2.838 c .361 1.906 .06 6.88 .04 6.949 c -.068 .162 -.975 1.064 -1.21 1.18 C 224.23 432.636 224.123 432.699 224.046 432.729 M 233.194 426.267 c 0 0 -.205 -.542 -.292 -.912 c -.068 -.298 -.068 -.487 -.087 -.689 c -.049 -.55 -.392 -1.506 -.645 -2.677 c -.265 -1.229 -.576 -4.062 -.576 -4.062 s .39 -.054 .625 .01 c .079 .02 .371 .6 .391 .799 c .136 .888 1.16 4.156 1.521 5.853 c .166 .791 .253 1.004 -.302 1.326 C 233.593 426.057 233.194 426.267 233.194 426.267 M 235.37 425.2 c -.146 .068 -.264 -.044 -.293 -.103 c -.361 -.678 -.644 -1.927 -.693 -2.604 c -.087 -1.267 -.126 -3.773 -.233 -4.067 c -.165 -.467 -.45 -.935 -.02 -1.15 c .614 -.297 1.619 3.018 1.667 3.189 c .194 .659 .586 3.024 .537 3.268 c -.059 .307 -.312 .898 -.742 1.296 C 235.516 425.097 235.438 425.175 235.37 425.2 M 237.359 423.926 c -.175 .064 -.243 .015 -.284 -.079 c -.195 -.418 -.673 -2.286 -.79 -3.076 c -.165 -1.147 -.408 -2.625 -.536 -2.927 c -.234 -.469 -.605 -1.009 -.682 -1.308 c -.041 -.15 -.011 -.189 .115 -.258 c .235 -.141 .586 -.273 .742 -.263 c .547 .053 1.346 1.618 1.678 2.457 c .39 .95 .83 2.896 .937 4.096 C 238.607 423.449 238.394 423.609 237.359 423.926 M 239.68 422.741 c 0 0 -.176 -.351 -.302 -.638 c -.205 -.458 -.321 -.902 -.371 -1.288 c -.068 -.444 -.106 -.932 -.185 -1.391 c -.068 -.458 -.751 -2.399 -1.073 -3.076 c -.322 -.649 -.723 -1.429 -.723 -1.429 s .236 -.21 .45 -.258 c .331 -.069 2.283 1.755 2.488 2.019 c .135 .189 .847 2.736 .878 3.174 c .096 1.166 .115 1.638 -.675 2.429 C 239.964 422.482 239.68 422.741 239.68 422.741 M 242.645 421.762 c -.126 .058 -.243 -.108 -.292 -.2 c -.371 -.678 -.39 -.878 -.614 -1.838 c -.108 -.46 -.936 -3.537 -1.6 -4.395 c -.136 -.181 -1.229 -1.107 -.74 -1.389 c .059 -.029 .117 -.029 .184 .013 c .167 .089 .187 .157 .323 .138 c .176 -.04 .361 -.23 .545 -.27 c .302 -.049 .888 .517 1.122 .811 c .839 1.057 1.63 4.261 1.745 5.423 C 243.376 420.742 243.338 421.443 242.645 421.762 M 254.184 417.499 c -.888 .078 -1.278 -.103 -1.93 -.62 c -.801 -.639 -3.972 -4.058 -4.731 -5.267 c -.361 -.556 -.848 -1.355 -1.101 -1.584 c -.138 -.132 -.557 -.459 -.361 -.663 c .087 -.098 .476 0 .604 .053 c .225 .098 .41 .287 .594 .478 c 1.045 1.068 2.478 2.839 3.082 3.346 c .663 .569 2.156 1.579 3.044 1.886 c .906 .323 2.291 .878 2.34 .981 c .224 .507 -.653 .96 -1.298 1.296 C 254.33 417.445 254.252 417.499 254.184 417.499 M 257.832 416.186 l -.909 .249 c 0 -.039 0 -.079 -.008 -.116 c -.059 -.113 -.839 -.62 -1.511 -.971 c -.537 -.288 -5.559 -4.053 -6.448 -4.842 c -.555 -.488 -2.566 -2.117 -2.438 -2.976 c .03 -.218 .293 -.341 .615 -.218 c .194 .067 .585 .487 .916 .755 c .196 .151 .401 .274 .595 .4 c .37 .272 .645 .589 .964 .911 c .274 .259 4.947 2.874 5.288 2.946 c .76 .181 1.774 .381 2.068 .526 c .272 .151 .517 .352 .876 .512 c .8 .347 2.312 .736 2.36 .839 c .128 .25 -.418 .757 -.906 1.019 c -.517 .259 -1.326 .619 -1.444 .757 C 257.801 416.05 257.783 416.119 257.832 416.186 M 230.288 429.193 l -.829 .458 l -.458 -.009 c 0 0 -.168 -.878 -.234 -1.648 c -.068 -.688 .175 -3.107 .165 -4.545 c -.009 -.737 -.117 -1.546 -.224 -2.316 c -.031 -.259 -.02 -.299 .117 -.373 c .419 -.218 .624 -.136 .692 .103 c .458 1.448 .819 5.213 .926 6.711 c .04 .439 .012 1.078 -.079 1.361 C 230.337 429.042 230.309 429.125 230.288 429.193" fill="#c1c2c2"/><path d="M 154.309 436.439 l .518 .01 v .372 c 0 .161 -.01 .209 -.107 .458 c -.146 .352 -1.687 4.364 -2.263 5.204 c -.205 .321 -.477 .609 -.702 .932 c -.39 .555 -.682 1.248 -1.063 1.857 c -.302 .468 -1.999 2.556 -2.565 2.975 c -.264 .18 -.535 .288 -.663 .092 c -.04 -.064 -.04 -.161 -.029 -.273 c .01 -.307 2.429 -6.709 2.633 -6.949 c .645 -.8 2.488 -2.419 2.761 -2.818 c .224 -.347 .429 -.736 .731 -1.107 c .176 -.21 .438 -.459 .469 -.679 C 154.038 436.439 154.066 436.43 154.309 436.439 M 156.816 440.138 l .527 .009 l -.01 .39 l .205 .011 c 0 0 -.069 .579 -.137 1.086 c -.205 1.76 -.479 2.878 -.694 4.014 c -.077 .371 -.184 .819 -.311 1 c -.136 .189 -.332 .302 -.497 .493 c -.244 .249 -.712 1.268 -1.122 1.858 c -.323 .448 -.781 .814 -1.161 1.258 c -.39 .469 -1.121 1.868 -1.669 2.643 c -.224 .322 -.76 .839 -1.091 1.068 c -.409 .292 -.957 .58 -1.277 .8 c -.089 .073 -.167 .132 -.313 .161 c -.292 .059 -.857 -.01 -.857 -.01 s 0 -.219 .008 -.4 c .04 -.458 .645 -1.555 .762 -1.765 c .224 -.35 1.589 -1.665 2.417 -2.521 c 1.678 -1.697 3.678 -5.579 4.771 -8.027 c .077 -.171 .146 -.331 .204 -.59 C 156.708 441.087 156.816 440.138 156.816 440.138 M 166.824 437.728 c .389 3.058 .028 6.315 .73 9.203 c .147 .58 .506 1.477 -.01 1.677 c -.166 .058 -.527 -.24 -.703 -.512 c -.195 -.278 -.41 -1.02 -.469 -1.288 c -.438 -1.755 -.507 -5.939 -.224 -7.709 c .059 -.371 .176 -1.449 .361 -1.468 C 166.598 437.61 166.813 437.659 166.824 437.728 M 166.999 447.305 c .009 .034 .068 .034 .107 .01 c .059 -.04 .049 -.215 .011 -.297 c -.029 -.029 -.098 -.029 -.108 0 C 166.989 447.091 166.98 447.247 166.999 447.305 M 166.911 447.017 c 0 .019 .059 .019 .097 0 c .059 -.039 .059 -.371 .01 -.497 c -.019 -.02 -.097 -.034 -.097 0 C 166.89 446.628 166.89 446.895 166.911 447.017 M 166.824 446.52 c 0 .03 .058 .03 .097 0 c .059 -.043 .068 -.454 .01 -.59 c -.02 -.029 -.099 -.029 -.099 0 C 166.803 446.057 166.803 446.379 166.824 446.52 M 166.734 445.729 c 0 .03 .059 .03 .098 0 c .058 -.038 .069 -.54 .01 -.687 c -.01 -.029 -.087 -.029 -.098 0 C 166.716 445.179 166.716 445.56 166.734 445.729 M 166.647 444.94 c 0 .02 .068 .02 .097 0 c .068 -.04 .059 -.288 .011 -.4 c -.011 -.029 -.098 -.029 -.108 0 C 166.627 444.632 166.619 444.842 166.647 444.94 M 171.124 442.644 l .008 -.162 c 0 -.068 -.008 -.108 -.077 -.366 c -.126 -.531 -.312 -1.102 -.487 -1.561 c -.099 -.269 -.166 -.439 .009 -.551 c .079 -.038 .186 -.097 .274 -.088 c .058 0 .107 .039 .194 .02 c .079 -.01 .186 -.059 .186 -.059 l 2.388 4.575 c .137 .238 .137 .269 .157 .316 c .01 .161 -.068 .264 -.303 .332 c -.166 .048 -.313 .029 -.409 .088 c -.127 .082 -.245 .38 -.4 .6 c -.282 .361 -1.209 .741 -1.533 .599 c -.847 -.35 -.906 -2.457 -.896 -3.266 c 0 -.538 .01 -1.186 .01 -1.186 s .314 -.063 .429 .011 C 170.793 441.994 171.124 442.644 171.124 442.644 M 182.955 441.444 c .947 .893 1.884 2.126 2.498 3.028 c .263 .39 .429 .678 .224 .839 c -.234 .189 -.498 -.45 -.936 -1.118 c -.341 -.512 -1.794 -1.958 -2.038 -2.32 c -.029 -.04 -.049 -.068 0 -.176 C 182.749 441.585 182.905 441.404 182.955 441.444 M 192.514 421.941 l -.01 .21 c 0 .097 0 .136 .029 .399 c .097 .83 .175 1.717 .361 2.454 c .41 1.609 1.267 4.238 1.219 4.439 c -.039 .146 -.136 .287 -.283 .228 c -.117 -.049 -.283 -.552 -.429 -.663 c -.078 -.049 -.42 .043 -.731 .053 c -.245 0 -.811 -.219 -1.258 -.371 c -1.034 -.35 -5.267 -.868 -5.823 -.868 c -.507 -.01 -.975 .019 -1.482 .01 c -.947 -.029 -3.892 -.628 -4.945 -.668 c -.888 -.039 -1.697 .079 -2.557 .117 c -.516 .02 -2.643 -.229 -3.051 -.361 c -1.667 -.536 -2.108 -1.078 -3.248 -.65 c -1.493 .581 -2.108 1.284 -3.59 2.269 c -2.447 1.629 -5.628 2.789 -8.115 3.029 c -1.004 .097 -1.696 .131 -1.521 -.351 c .068 -.151 4.019 -2.375 4.799 -2.706 c 1.523 -.639 2.976 -1.288 4.39 -2.175 c 2.028 -1.258 3.296 -2.18 5.129 -2.457 c .507 -.079 5.16 .228 7.911 .316 c .75 .033 4.993 -.386 5.657 -.546 c .75 -.18 1.492 -.411 2.283 -.561 c .497 -.087 1.014 -.142 1.49 -.268 c .986 -.258 2.761 -.878 3.113 -.893 C 192.162 421.917 192.514 421.941 192.514 421.941 M 195.528 432.656 l .272 .011 c .107 0 .127 .027 .186 .292 c .4 1.843 .917 4.349 1.288 5.51 c .028 .068 1.061 2.735 .847 2.926 c -.058 .049 -.176 .021 -.312 -.059 c -.535 -.312 -.635 -.581 -1.044 -.458 c -.185 .049 -.41 .165 -.623 .238 c -.614 .21 -3.072 .02 -3.638 -.361 c -1.122 -.736 -1.248 -1.955 -1.142 -3.096 c .059 -.6 .118 -.858 .399 -1.18 c .576 -.639 2.157 -1.897 2.322 -2.166 c .185 -.297 .233 -.6 .41 -.926 c .292 -.561 1.034 -1.63 1.306 -1.41 c .04 .02 .048 .059 0 .161 C 195.733 432.305 195.528 432.656 195.528 432.656 M 203.847 429.139 l .594 .011 l -.009 .39 l -.585 -.01 V 429.139 z M 205.047 428.662 c 0 0 -.138 -.189 -.138 -.351 c -.009 -.088 .187 -.307 .284 -.336 c .371 -.094 .41 .526 .371 .897 c -.029 .268 -.04 .297 -.079 .316 c -.028 .024 -.059 .035 -.087 .044 c -.321 .088 -.468 .02 -.653 -.342 c -.059 -.097 -.059 -.219 0 -.229 C 204.831 428.633 205.047 428.662 205.047 428.662 M 210.752 427.94 c -.049 .024 -.127 .035 -.205 .024 c -.107 -.024 -.81 -3.219 -1.015 -4.657 c -.079 -.418 -.935 -2.755 -1.14 -3.087 c -.439 -.668 -.946 -1.336 -.625 -1.487 c .402 -.2 .84 .78 1.123 1.399 c 1.043 2.386 1.678 4.794 2.008 7.101 C 210.908 427.354 210.957 427.862 210.752 427.94 M 222.689 424.707 v -.2 l .498 .009 c 0 0 -.194 2.678 -.184 4.214 c 0 .581 .038 1.001 0 1.38 c -.06 .468 -.246 .878 -.333 1.638 c -.087 .766 -.069 1.897 -.069 1.897 s -.76 0 -.946 .078 c -.175 .073 -.322 .37 -.458 .439 c -.43 .201 -.605 -.965 -.614 -1.248 c -.021 -.497 .75 -5.184 .926 -5.661 c .069 -.201 .146 -.372 .215 -.591 c .164 -.609 .205 -2.096 .771 -2.004 C 222.573 424.667 222.689 424.707 222.689 424.707 M 226.347 424.628 c 0 -1.082 -.028 -4.208 .069 -4.316 c .049 -.053 .42 -.102 .643 .21 c .108 .156 .148 .371 .187 .601 c .263 1.633 .77 8.788 .585 9.227 c -.156 .371 -.41 .727 -.73 .648 c -.499 -.117 -.576 -.361 -.645 -.78 C 226.347 429.559 226.347 426.023 226.347 424.628 M 230.141 419.532 c 0 -.077 .108 -.19 .205 -.24 c .556 -.321 .996 1.278 1.142 1.897 c .322 1.298 .819 4.278 .857 5.097 c .011 .337 -.204 1.668 -.293 1.727 c -.252 .181 -.497 0 -.663 -.512 c -.165 -.478 -.741 -6.101 -.926 -6.768 C 230.328 420.284 230.162 419.839 230.141 419.532 M 241.689 402.186 c -.028 .019 -.106 0 -.146 -.02 c -.107 -.053 -.115 -.131 -.156 -.199 c -.058 -.094 -1.658 -.484 -2.087 -.512 c -2.037 -.118 -4.066 .33 -5.861 1.37 c -.723 .41 -4.135 2.955 -5.023 3.745 c -1.58 1.396 -2.955 2.824 -4.497 4.195 c -1.308 1.155 -2.721 2.277 -3.931 3.466 c -2.721 2.644 -3.755 4.453 -6.963 6.56 c -.527 .352 -.937 .389 -1.482 -.122 c -.635 -.606 -1.932 -4.663 -1.941 -4.789 c -.02 -.254 -.01 -.512 .126 -.552 c .108 -.039 .361 .142 .586 .151 c .136 0 .712 -.453 1.121 -.643 c .186 -.079 .362 -.108 .547 -.136 c .225 -.029 .458 -.049 .692 -.093 c 1.551 -.278 4.478 -1.994 5.287 -2.575 c .936 -.687 8.075 -7.129 9.012 -7.812 c .517 -.376 5.665 -3.003 6.281 -3.204 c .43 -.151 3.648 -1 4.176 -1.517 c .136 -.142 .195 -.302 .33 -.391 c .118 -.074 .694 -.092 .917 -.03 c .302 .079 .635 .24 .916 .458 c .518 .39 .791 .697 1.221 .63 c .087 -.01 .156 -.039 .224 -.029 c .392 .039 .801 .975 .898 1.296 C 242.021 401.712 241.992 401.996 241.689 402.186 M 242.655 413.021 c 0 0 .557 .307 .955 .61 c .986 .726 2.604 3.984 2.38 5.52 c -.087 .629 -.566 1.001 -1.344 .893 c -.236 -.035 -.265 -.064 -.304 -.322 c -.312 -1.95 -.546 -3.208 -1.249 -4.876 c -.048 -.118 -.097 -.229 -.184 -.338 c -.43 -.55 -.684 -.483 -.566 -.779 C 242.44 413.519 242.655 413.021 242.655 413.021 M 247.006 416.475 c -.704 -.697 -6.186 -6.432 -6.39 -7.217 c -.048 -.245 -.038 -.713 .274 -.664 c .166 .02 .594 .303 .917 .561 c .391 .322 .722 .619 1.072 .913 c .41 .316 .868 .624 1.316 .955 c 1.103 .78 5.005 4.014 6.186 5.106 c .516 .497 1.014 1.039 .779 1.556 c -.175 .371 -1.181 .468 -1.754 .429 C 248.693 418.064 247.844 417.313 247.006 416.475 M 241.68 398.661 c -.049 -.093 -.049 -.331 .009 -.42 c .049 -.072 1.122 -.054 1.493 .02 c .097 .02 13.606 1.565 14.737 2.214 c .448 .254 1.092 .809 .809 1.331 c -.389 .678 -3.256 0 -4.008 -.102 c -1.57 -.22 -12.23 -2.375 -12.455 -2.526 C 242.012 399.017 241.787 398.831 241.68 398.661 M 245.58 401.595 c -.067 -.228 .187 -.399 .274 -.428 c .243 -.072 .906 -.02 1.512 .029 c 2.721 .23 11.782 1.316 11.939 1.438 c 0 .01 .722 .761 .566 1.167 c -.108 .301 -.81 .453 -1.18 .443 c -.331 -.01 -1.035 -.245 -1.6 -.42 c -.594 -.19 -6.583 -.97 -9.636 -1.502 c -.429 -.069 -1.609 -.478 -1.775 -.619 C 245.64 401.674 245.601 401.635 245.58 401.595 M 264.17 411.5 c .069 .044 -.604 .829 -.926 1.112 c -.683 .575 -.741 .879 -1.18 .965 c -1.024 .2 -2.283 -.488 -3.219 -1.088 c -2.126 -1.364 -3.121 -2.257 -5.58 -3.224 c -.585 -.233 -1.121 -.399 -1.667 -.653 c -.722 -.317 -2.351 -1.366 -3.6 -2.155 c -.654 -.41 -1.95 -1.2 -1.678 -1.628 c .254 -.4 1.191 .361 1.863 .721 c .4 .21 1.728 .581 2.614 .839 c .79 .219 6.397 2.824 7.599 3.225 C 260.484 410.325 263.82 411.28 264.17 411.5 M 264.122 410.154 c -2.204 -.4 -6.038 -1.765 -7.666 -2.838 c -.361 -.239 -.663 -.487 -1.073 -.708 c -.565 -.311 -6.72 -2.336 -6.973 -2.536 c -.283 -.219 -.253 -.351 .079 -.492 c .156 -.069 11.206 1.97 12.045 2.219 c 1.647 .497 2.301 1.126 3.804 3.076 c .331 .43 .429 .601 .379 .919 c -.008 .068 -.028 .14 -.097 .199 C 264.503 410.097 264.25 410.184 264.122 410.154" fill="#c1c2c2"/><path d="M 82.618 267.927 c 2.565 1.517 5.16 3.023 7.794 4.522 c .292 -6.54 .575 -13.09 .868 -19.634 c 5.978 2.287 12.054 4.564 18.219 6.813 c .261 -2.907 .536 -5.814 .799 -8.72 c -6.302 -1.945 -12.514 -3.916 -18.669 -5.891 c .167 -3.688 .331 -7.364 .498 -11.045 c 7.383 1.765 14.845 3.544 22.374 5.3 c .282 -2.945 .576 -5.9 .858 -8.846 c -10.856 -2.019 -21.623 -4.018 -32.284 -5.993 C 82.93 238.935 82.764 253.423 82.618 267.927" fill="#fff"/><path d="M 149.545 276.432 c -1.395 4.257 -3.141 7.06 -5.257 8.499 c -2.096 1.428 -4.349 1.668 -6.905 .688 c -3.396 -1.308 -5.902 -3.926 -7.638 -7.857 c -1.676 -3.818 -2.194 -9.319 -1.374 -16.381 c .8 -6.803 2.497 -11.338 5.042 -13.855 c 2.565 -2.526 5.647 -3.452 9.246 -2.677 c 2.564 .551 4.622 1.961 6.232 4.146 c 1.639 2.239 2.468 5.077 2.673 8.383 c 3.355 -.225 6.729 -.473 10.104 -.751 c -.497 -5.306 -1.649 -9.559 -3.57 -12.664 c -3.218 -5.224 -7.686 -8.282 -13.703 -9.321 c -6.829 -1.174 -12.553 .532 -17.293 4.848 c -4.604 4.184 -7.432 10.582 -8.379 19.623 c -.918 8.529 .294 16.04 3.53 22.642 c 3.308 6.75 7.863 11.563 13.949 14.172 c 4.974 2.126 9.381 2.199 13.108 .18 c 3.793 -2.058 6.847 -6.461 9.158 -12.933 C 155.475 280.909 152.51 278.661 149.545 276.432" fill="#fff"/><path d="M 198.564 274.686 c .644 -5.964 1.307 -11.923 1.96 -17.888 c 2.605 .43 5.209 .858 7.823 1.269 c 4.154 .648 6.593 1.078 7.354 1.35 c 1.648 .601 2.838 1.776 3.59 3.414 c .769 1.717 1.004 3.745 .759 6.251 c -.193 2.18 -.682 3.945 -1.531 5.316 c -.857 1.355 -1.912 2.214 -3.159 2.575 c -1.249 .361 -4.38 .141 -9.295 -.8 C 203.559 275.695 201.063 275.197 198.564 274.686 M 183.818 312.231 c 3.403 1.034 6.846 2.058 10.279 3.053 c 1.083 -9.798 2.156 -19.595 3.239 -29.402 c .673 .152 1.364 .309 2.058 .46 c 2.378 .532 4.018 1.117 5.08 1.917 c 1.064 .799 1.99 2.028 2.81 3.686 c .811 1.668 2.282 5.672 4.39 11.904 c 1.979 5.823 3.988 11.664 6.017 17.561 c 4.263 .965 8.535 1.897 12.835 2.785 c -1.775 -5.301 -3.53 -10.578 -5.237 -15.84 c -2.039 -6.272 -3.647 -10.676 -4.876 -13.142 c -1.277 -2.571 -2.906 -4.984 -4.984 -7.243 c 4.585 -.067 8.202 -1.735 10.729 -4.954 c 2.604 -3.327 4.067 -7.701 4.526 -13.284 c .371 -4.415 -.069 -8.448 -1.219 -12.012 c -1.17 -3.637 -2.829 -6.232 -5.16 -7.872 c -2.273 -1.59 -6.135 -2.706 -11.431 -3.409 c -7.031 -.916 -14.054 -1.925 -21.047 -2.946 C 189.154 266.405 186.49 289.32 183.818 312.231" fill="#fff"/><path d="M 236.281 325.321 c 3.423 .629 6.857 1.237 10.29 1.818 c 1.19 -18.478 2.37 -36.965 3.559 -55.443 c -3.267 -.366 -6.534 -.755 -9.791 -1.155 C 238.983 288.809 237.628 307.063 236.281 325.321 M 240.885 263.24 c 3.238 .372 6.476 .727 9.714 1.059 c .292 -4.526 .576 -9.062 .878 -13.593 c -3.199 -.292 -6.399 -.589 -9.596 -.901 C 241.548 254.283 241.217 258.763 240.885 263.24" fill="#fff"/><path d="M 269.881 273.535 c -3.267 -.259 -6.525 -.526 -9.792 -.83 c -.947 17.791 -1.902 35.585 -2.857 53.375 c -.246 4.574 -.489 7.33 -.771 8.139 c -.333 .916 -.781 1.706 -1.482 2.209 c -.722 .497 -1.59 .737 -2.693 .556 c -.341 -.049 -.771 -.118 -1.188 -.298 c -.41 -.189 -.919 -.389 -1.328 -.58 c -.876 4.087 -1.755 8.159 -2.644 12.236 c 1.337 .717 2.683 1.439 3.872 1.878 c 1.191 .438 2.294 .746 3.336 .908 c 3.014 .478 5.442 -.049 7.453 -1.448 c 1.94 -1.347 3.305 -3.478 4.096 -6.423 c .76 -2.834 1.364 -7.891 1.677 -15.049 C 268.34 309.979 269.11 291.764 269.881 273.535 M 260.489 265.235 c 3.248 .274 6.476 .532 9.724 .771 c .195 -4.624 .389 -9.237 .594 -13.855 c -3.199 -.195 -6.397 -.419 -9.586 -.648 C 260.976 256.077 260.732 260.661 260.489 265.235" fill="#fff"/><path d="M 313.928 332.26 l -.234 -35.605 c -.03 -4.433 -.264 -7.749 -.634 -10.093 c -.39 -2.449 -1.015 -4.537 -1.941 -6.385 c -.926 -1.838 -2.292 -3.384 -4.057 -4.556 c -1.786 -1.175 -3.716 -1.856 -5.843 -1.886 c -4.905 -.068 -8.934 2.994 -12.329 9.255 l .187 -8.348 c -3.034 -.127 -6.048 -.269 -9.071 -.439 c -.605 18.956 -1.19 37.911 -1.784 56.872 c 3.471 .267 6.933 .507 10.406 .717 c .176 -8.598 .342 -17.201 .527 -25.798 c .128 -6.383 .42 -10.806 .986 -13.113 c .585 -2.316 1.51 -4.262 2.936 -5.672 c 1.364 -1.33 2.925 -1.998 4.604 -1.96 c 1.374 .035 2.506 .532 3.442 1.551 c .897 .98 1.57 2.487 1.98 4.336 c .379 1.726 .622 5.793 .594 11.953 l -.118 29.215 C 307.031 332.324 310.475 332.313 313.928 332.26" fill="#fff"/><path d="M 335.365 331.23 c 3.091 -.249 6.183 -.527 9.275 -.829 c 4.35 -19.355 8.495 -38.633 12.455 -57.799 c -3.336 .302 -6.671 .59 -10.007 .848 c -1.95 9.784 -4.145 19.557 -5.999 29.398 c -.302 1.608 -.604 3.355 -.897 4.965 c -.127 .745 -.41 2.365 -.819 4.964 c -.83 -3.2 -1.6 -6.414 -2.468 -9.612 c -2.546 -9.534 -5.267 -19.053 -7.832 -28.631 c -3.414 .136 -6.817 .249 -10.231 .336 C 324.139 293.788 329.64 312.586 335.365 331.23" fill="#fff"/><path d="M 372.574 298.66 c -.381 -5.443 .244 -9.7 1.785 -12.792 c 1.581 -3.18 3.597 -4.896 6.154 -5.257 c 2.556 -.371 4.75 .741 6.74 3.335 c 1.941 2.537 3.239 6.384 3.697 11.695 c .468 5.314 -.117 9.63 -1.619 12.767 c -1.531 3.213 -3.57 5.062 -6.194 5.554 c -2.624 .488 -4.935 -.56 -6.973 -3.189 C 374.173 308.218 372.964 304.233 372.574 298.66 M 362.275 299.337 c .38 6.355 1.482 11.646 3.442 15.941 c 1.912 4.185 4.623 7.149 7.959 8.851 c 3.374 1.708 6.827 2.244 10.387 1.528 c 5.715 -1.152 10.183 -4.853 13.372 -10.959 c 3.179 -6.051 4.389 -13.163 3.618 -21.111 c -.751 -7.831 -3.131 -14.103 -7.188 -18.76 c -4.028 -4.623 -8.827 -6.618 -14.358 -5.91 c -3.549 .458 -6.769 2.048 -9.489 4.735 c -2.751 2.726 -4.837 6.432 -6.175 11.275 C 362.528 289.663 361.982 294.427 362.275 299.337" fill="#fff"/><path d="M 416.561 289.35 c -.557 -5.174 -.185 -9.192 1.024 -12.025 c 1.219 -2.819 2.965 -4.403 5.229 -4.878 c 2.418 -.497 4.478 .391 6.28 2.498 c 1.814 2.106 3.072 5.725 3.678 10.806 c .585 4.877 .263 8.812 -1.113 11.816 c -1.326 2.927 -3.169 4.765 -5.539 5.413 c -2.215 .619 -4.174 -.098 -5.951 -2.219 C 418.385 298.615 417.165 294.85 416.561 289.35 M 410.943 321.736 l .167 1.678 c .468 4.593 2.155 8.148 5.178 10.357 c 2.975 2.19 7.686 2.199 14.006 .03 c 3.266 -1.126 5.988 -2.556 7.987 -4.282 c 2.009 -1.732 3.58 -3.629 4.642 -5.667 c 1.113 -2.155 1.776 -4.671 2.137 -7.728 c .35 -3.043 .214 -7.423 -.479 -13.104 c -1.775 -14.372 -3.54 -28.742 -5.305 -43.115 c -2.956 .609 -5.911 1.21 -8.886 1.809 l .829 6.978 c -3.5 -4.824 -7.549 -6.768 -11.977 -5.959 c -4.37 .785 -7.744 3.725 -10.222 8.816 c -2.468 5.102 -3.268 12.017 -2.39 20.774 c .712 6.96 2.418 12.534 5.238 16.669 c 3.501 5.145 7.832 6.939 12.777 5.491 c 4.437 -1.297 7.832 -5.13 10.095 -11.436 c .262 2.418 .507 4.828 .779 7.232 c .332 2.976 .419 4.936 .234 6.204 c -.213 1.618 -.683 2.905 -1.492 3.924 c -1.112 1.401 -2.985 2.547 -5.609 3.396 c -1.989 .639 -3.511 .696 -4.554 -.029 c -.741 -.542 -1.326 -1.63 -1.697 -3.439 C 418.6 320.839 414.777 321.306 410.943 321.736" fill="#fff"/><path d="M 471.785 271.223 c -4.563 1.41 -9.158 2.79 -13.781 4.146 c -.429 -3.355 -.137 -6.11 .965 -8.397 c 1.073 -2.228 2.662 -3.614 4.701 -4.145 c 1.883 -.498 3.521 -.02 5.062 1.39 C 470.244 265.572 471.287 267.868 471.785 271.223 M 472.721 283.039 c -.244 2.352 -.81 4.214 -1.619 5.526 c -.849 1.384 -1.951 2.316 -3.355 2.833 c -2.146 .799 -4 .439 -5.657 -1.005 c -1.678 -1.472 -2.78 -4.077 -3.317 -7.602 c 7.706 -2.468 15.314 -5.014 22.813 -7.631 c -.878 -8.559 -3.043 -14.488 -6.534 -17.879 c -3.511 -3.404 -7.91 -4.555 -13.128 -3.364 c -4.633 1.068 -8.309 4.077 -10.826 9.11 c -2.575 5.145 -3.277 11.635 -2.292 19.448 c .819 6.49 2.624 11.6 5.531 15.039 c 3.599 4.262 8.387 5.184 14.375 2.775 c 3.755 -1.497 6.73 -3.965 8.876 -7.082 c 2.165 -3.144 3.609 -6.968 4.272 -11.513 C 478.837 282.162 475.784 282.621 472.721 283.039" fill="#fff"/><path d="M 490.735 289.867 c 2.858 -1.322 5.686 -2.647 8.485 -3.998 c -1.902 -17.996 -3.813 -36 -5.725 -54.009 c -3.092 .579 -6.173 1.146 -9.284 1.726 C 486.395 252.341 488.57 271.111 490.735 289.867" fill="#fff"/><path d="M 503.854 272.292 c 1.091 3.256 2.993 5.305 5.627 6.145 c 2.556 .8 5.93 .038 10.017 -2.238 c 4.349 -2.419 7.56 -5.415 9.713 -8.851 c 2.116 -3.345 3.199 -6.388 3.17 -9.305 c -.03 -2.648 -.898 -4.298 -2.604 -5.087 c -1.765 -.799 -4.877 -.819 -9.314 -.247 c -4.594 .579 -7.354 .678 -8.164 .321 c -.605 -.274 -.916 -.799 -.975 -1.502 c -.068 -.776 .234 -1.518 .838 -2.184 c .927 -1.02 2.526 -1.907 4.837 -2.648 c 1.814 -.591 3.249 -.698 4.243 -.327 c 1.024 .376 1.668 1.205 2.078 2.384 c 2.614 -1.449 5.227 -2.887 7.832 -4.306 c -.868 -2.526 -2.371 -4.126 -4.565 -4.94 c -2.233 -.854 -5.588 -.638 -10.152 .621 c -4.808 1.316 -8.27 3.355 -10.368 6.158 c -2.116 2.829 -2.984 5.945 -2.682 9.198 c .351 3.657 1.863 6.061 4.633 7.051 c 1.959 .712 6.378 .44 13.146 -.859 c 1.395 -.258 2.341 -.238 2.751 .01 c .41 .248 .624 .658 .654 1.38 c .038 .936 -.215 1.907 -.917 2.897 c -.956 1.336 -2.506 2.545 -4.574 3.574 c -1.883 .951 -3.443 1.258 -4.545 .81 c -1.17 -.468 -1.98 -1.487 -2.468 -3.208 C 509.345 268.849 506.603 270.565 503.854 272.292" fill="#fff"/><path d="M 155.08 214.717 c 0 2.887 .79 5.145 2.36 6.813 c 1.59 1.639 3.735 2.468 6.429 2.468 c 2.651 0 4.798 -.829 6.377 -2.497 c 1.59 -1.639 2.38 -3.925 2.38 -6.862 c 0 -2.965 -.79 -5.256 -2.408 -6.924 c -1.611 -1.669 -3.727 -2.498 -6.38 -2.498 c -1.473 0 -2.77 .234 -3.91 .712 c -.849 .371 -1.638 .907 -2.333 1.639 c -.711 .736 -1.277 1.584 -1.697 2.486 C 155.354 211.333 155.08 212.879 155.08 214.717 M 158.835 214.61 c 0 -2.088 .448 -3.648 1.385 -4.696 c .927 -1.039 2.146 -1.546 3.649 -1.546 c 1.521 0 2.7 .507 3.646 1.516 c .897 1.02 1.357 2.576 1.357 4.662 c 0 2.097 -.479 3.677 -1.424 4.726 c -.928 1.047 -2.118 1.579 -3.579 1.579 c -1.454 0 -2.662 -.532 -3.619 -1.579 C 159.314 218.195 158.835 216.644 158.835 214.61" fill="#fff"/><path d="M 175.513 223.646 h 3.639 v -6.842 h 2.38 c 1.667 0 2.907 -.077 3.785 -.248 c .652 -.137 1.267 -.42 1.9 -.878 c .615 -.419 1.123 -1.019 1.541 -1.779 c .4 -.757 .605 -1.699 .605 -2.795 c 0 -1.439 -.342 -2.599 -1.054 -3.535 c -.701 -.897 -1.55 -1.497 -2.592 -1.746 c -.685 -.2 -2.127 -.292 -4.352 -.292 h -5.852 V 223.646 z M 179.151 208.588 h 1.746 c 1.335 0 2.215 .028 2.662 .112 c .566 .118 1.073 .395 1.445 .814 c .389 .435 .594 .991 .594 1.649 c 0 .53 -.146 1.009 -.42 1.409 c -.263 .42 -.652 .712 -1.131 .907 c -.488 .19 -1.442 .282 -2.886 .282 h -2.01 V 208.588 z" fill="#fff"/><path d="M 200.804 217.01 h 4.215 v 2.286 c -.566 .43 -1.221 .791 -2.011 1.113 c -.77 .307 -1.521 .448 -2.281 .448 c -1.59 0 -2.83 -.542 -3.794 -1.618 c -.965 -1.069 -1.445 -2.677 -1.445 -4.823 c 0 -2.009 .48 -3.506 1.405 -4.525 c .975 -1.02 2.244 -1.528 3.833 -1.528 c 1.063 0 1.942 .25 2.642 .756 c .712 .541 1.191 1.219 1.453 2.132 l 3.608 -.683 c -.371 -1.668 -1.189 -2.965 -2.428 -3.936 c -1.277 -.927 -3.023 -1.404 -5.275 -1.404 c -1.728 0 -3.17 .307 -4.331 .897 c -1.522 .8 -2.682 1.927 -3.473 3.395 c -.798 1.467 -1.189 3.136 -1.189 5.032 c 0 1.721 .361 3.336 1.073 4.838 c .703 1.467 1.756 2.625 3.161 3.414 c 1.422 .789 3.063 1.19 4.944 1.19 c 1.503 0 2.964 -.282 4.419 -.848 c 1.461 -.571 2.563 -1.22 3.335 -1.981 v -7.206 h -7.862 V 217.01 z" fill="#fff"/><path d="M 212.049 223.651 L 225.784 223.651 L 225.784 220.594 L 215.697 220.594 L 215.697 215.654 L 224.768 215.654 L 224.768 212.596 L 215.697 212.596 L 215.697 208.593 L 225.45 208.593 L 225.45 205.536 L 212.049 205.536 Z" fill="#fff"/><path d="M 228.923 223.651 h 3.647 v -7.568 h .742 c .848 0 1.433 .049 1.835 .186 c .389 .151 .759 .399 1.101 .77 c .34 .371 .984 1.269 1.922 2.687 l 2.605 3.926 h 4.367 l -2.194 -3.535 c -.878 -1.41 -1.559 -2.4 -2.066 -2.936 c -.508 -.57 -1.162 -1.067 -1.951 -1.526 c 1.579 -.225 2.77 -.79 3.559 -1.668 c .792 -.902 1.189 -2.009 1.189 -3.37 c 0 -1.068 -.253 -2.024 -.789 -2.844 c -.507 -.847 -1.22 -1.418 -2.088 -1.76 c -.877 -.307 -2.301 -.477 -4.214 -.477 h -7.665 V 223.651 z M 232.57 213.196 v -4.604 h 2.83 c 1.493 0 2.379 .028 2.651 .049 c .596 .117 1.054 .335 1.395 .707 c .304 .399 .478 .877 .478 1.496 c 0 .541 -.117 .991 -.371 1.361 c -.254 .371 -.595 .621 -1.023 .761 c -.42 .146 -1.523 .229 -3.269 .229 H 232.57 z" fill="#fff"/><path d="M 247.043 205.536 H 250.691 V 223.652 H 247.043 Z" fill="#fff"/><path d="M 265.81 216.98 c -.312 1.331 -.819 2.288 -1.531 2.907 c -.712 .628 -1.521 .94 -2.516 .94 c -1.327 0 -2.399 -.483 -3.218 -1.467 c -.811 -.97 -1.249 -2.609 -1.249 -4.866 c 0 -2.175 .438 -3.735 1.278 -4.692 c .819 -.96 1.921 -1.439 3.277 -1.439 c .967 0 1.786 .279 2.458 .82 c .712 .535 1.132 1.297 1.367 2.239 l 3.607 -.883 c -.418 -1.449 -1.015 -2.575 -1.861 -3.335 c -1.385 -1.328 -3.17 -1.976 -5.395 -1.976 c -2.544 0 -4.583 .849 -6.135 2.516 c -1.56 1.667 -2.35 3.984 -2.35 7.003 c 0 2.852 .762 5.121 2.322 6.76 c 1.56 1.638 3.53 2.457 5.931 2.457 c 1.95 0 3.568 -.478 4.836 -1.438 c 1.268 -.972 2.175 -2.469 2.711 -4.444 L 265.81 216.98 z" fill="#fff"/><path d="M 272.48 223.651 L 276.129 223.651 L 276.129 215.713 L 283.278 215.713 L 283.278 223.651 L 286.916 223.651 L 286.916 205.536 L 283.278 205.536 L 283.278 212.655 L 276.129 212.655 L 276.129 205.536 L 272.48 205.536 Z" fill="#fff"/><path d="M 294.777 223.651 L 298.426 223.651 L 298.426 208.593 L 303.77 208.593 L 303.77 205.536 L 289.432 205.536 L 289.432 208.593 L 294.777 208.593 Z" fill="#fff"/><path d="M 303.994 213.987 h 3.472 v -3.478 h -3.472 V 213.987 z M 303.994 223.652 h 3.472 v -3.477 h -3.472 V 223.652 z" fill="#fff"/><path d="M 329.801 220.428 h -6.925 c .185 -.307 .419 -.619 .703 -.955 c .302 -.342 .994 -.99 2.096 -2.011 c 1.092 -.99 1.863 -1.779 2.283 -2.316 c .653 -.789 1.101 -1.56 1.385 -2.288 c .312 -.74 .458 -1.526 .458 -2.345 c 0 -1.419 -.517 -2.628 -1.532 -3.598 c -1.054 -.957 -2.458 -1.435 -4.233 -1.435 c -1.638 0 -3.004 .419 -4.106 1.249 c -1.102 .838 -1.746 2.194 -1.951 4.12 l 3.443 .342 c .068 -1.021 .313 -1.727 .771 -2.181 c .418 -.429 1.024 -.649 1.746 -.649 c .741 0 1.336 .191 1.765 .619 c .42 .42 .614 1.019 .614 1.78 c 0 .708 -.225 1.42 -.702 2.117 c -.371 .54 -1.337 1.525 -2.888 2.974 c -1.951 1.81 -3.277 3.248 -3.931 4.345 c -.643 1.078 -1.043 2.239 -1.19 3.458 h 12.192 V 220.428 z" fill="#fff"/><path d="M 332.229 219.467 c .243 1.499 .819 2.625 1.668 3.396 c .878 .76 2.039 1.131 3.443 1.131 c 1.951 0 3.57 -.742 4.779 -2.209 c 1.21 -1.469 1.834 -3.849 1.834 -7.149 c 0 -3.277 -.585 -5.593 -1.775 -7.032 c -1.161 -1.418 -2.692 -2.127 -4.526 -2.127 c -1.668 0 -3.042 .566 -4.155 1.699 c -1.102 1.106 -1.638 2.573 -1.638 4.413 c 0 1.745 .507 3.194 1.56 4.295 c 1.015 1.098 2.254 1.634 3.669 1.634 c 1.336 0 2.398 -.507 3.276 -1.526 c -.137 2.096 -.448 3.447 -.956 4.126 c -.507 .648 -1.112 .989 -1.804 .989 c -.576 0 -1.024 -.17 -1.356 -.483 c -.371 -.337 -.576 -.85 -.654 -1.526 L 332.229 219.467 z M 340.061 211.865 c 0 1.02 -.234 1.809 -.682 2.316 c -.449 .541 -1.015 .79 -1.697 .79 c -.684 0 -1.239 -.278 -1.717 -.819 c -.458 -.536 -.683 -1.375 -.683 -2.565 c 0 -1.142 .205 -1.961 .624 -2.468 c .419 -.498 .956 -.76 1.609 -.76 c .674 0 1.269 .312 1.776 .931 C 339.798 209.891 340.061 210.767 340.061 211.865" fill="#fff"/><path d="M 353.99 223.651 L 357.383 223.651 L 357.402 209.383 L 360.943 223.651 L 364.474 223.651 L 368.063 209.383 L 368.063 223.651 L 371.456 223.651 L 371.456 205.536 L 365.947 205.536 L 362.747 217.888 L 359.471 205.536 L 353.99 205.536 Z" fill="#fff"/><path d="M 375.135 223.651 L 388.877 223.651 L 388.877 220.594 L 378.771 220.594 L 378.771 215.654 L 387.853 215.654 L 387.853 212.596 L 378.771 212.596 L 378.771 208.593 L 388.526 208.593 L 388.526 205.536 L 375.135 205.536 Z" fill="#fff"/><path d="M 391.861 205.536 H 395.51 V 223.652 H 391.861 Z" fill="#fff"/><path d="M 417.015 220.428 H 410.1 c .185 -.307 .42 -.619 .702 -.955 c .313 -.342 .986 -.99 2.088 -2.011 c 1.102 -.99 1.873 -1.779 2.292 -2.316 c .644 -.789 1.092 -1.56 1.385 -2.288 c .312 -.74 .449 -1.526 .449 -2.345 c 0 -1.419 -.507 -2.628 -1.531 -3.598 c -1.044 -.957 -2.448 -1.435 -4.232 -1.435 c -1.649 0 -2.995 .419 -4.107 1.249 c -1.092 .838 -1.745 2.194 -1.94 4.12 l 3.442 .342 c .059 -1.021 .322 -1.727 .772 -2.181 c .418 -.429 1.013 -.649 1.745 -.649 c .741 0 1.326 .191 1.755 .619 c .42 .42 .625 1.019 .625 1.78 c 0 .708 -.234 1.42 -.712 2.117 c -.371 .54 -1.326 1.525 -2.877 2.974 c -1.96 1.81 -3.287 3.248 -3.931 4.345 c -.654 1.078 -1.053 2.239 -1.189 3.458 h 12.181 V 220.428 z" fill="#fff"/><path d="M 425.217 205.476 c -1.755 0 -3.139 .63 -4.125 1.868 c -1.19 1.498 -1.794 3.956 -1.794 7.35 c 0 3.478 .545 5.905 1.646 7.261 c 1.074 1.355 2.488 2.04 4.273 2.04 c 1.746 0 3.131 -.62 4.117 -1.868 c 1.19 -1.498 1.785 -3.955 1.785 -7.373 c 0 -3.453 -.595 -5.911 -1.785 -7.409 C 428.348 206.106 426.963 205.476 425.217 205.476 M 425.217 208.363 c .43 0 .781 .136 1.123 .4 c .312 .278 .604 .814 .819 1.604 c .205 .791 .312 2.229 .312 4.385 c 0 2.121 -.107 3.617 -.361 4.515 c -.166 .678 -.43 1.161 -.77 1.449 c -.342 .248 -.693 .389 -1.123 .389 c -.428 0 -.789 -.141 -1.131 -.389 c -.321 -.259 -.595 -.801 -.819 -1.59 c -.205 -.786 -.312 -2.253 -.312 -4.374 c 0 -2.157 .107 -3.653 .36 -4.55 c .176 -.684 .429 -1.161 .771 -1.439 C 424.428 208.5 424.789 208.363 425.217 208.363" fill="#fff"/><path d="M 439.292 205.476 c -1.755 0 -3.141 .63 -4.126 1.868 c -1.189 1.498 -1.783 3.956 -1.783 7.35 c 0 3.478 .535 5.905 1.638 7.261 c 1.073 1.355 2.486 2.04 4.272 2.04 c 1.746 0 3.131 -.62 4.125 -1.868 c 1.18 -1.498 1.785 -3.955 1.785 -7.373 c 0 -3.453 -.605 -5.911 -1.785 -7.409 C 442.423 206.106 441.038 205.476 439.292 205.476 M 439.292 208.363 c .42 0 .79 .136 1.122 .4 c .311 .278 .604 .814 .819 1.604 c .205 .791 .313 2.229 .313 4.385 c 0 2.121 -.108 3.617 -.361 4.515 c -.167 .678 -.429 1.161 -.771 1.449 c -.331 .248 -.702 .389 -1.122 .389 c -.419 0 -.79 -.141 -1.132 -.389 c -.312 -.259 -.605 -.801 -.819 -1.59 c -.205 -.786 -.312 -2.253 -.312 -4.374 c 0 -2.157 .107 -3.653 .361 -4.55 c .166 -.684 .429 -1.161 .77 -1.439 C 438.501 208.5 438.872 208.363 439.292 208.363" fill="#fff"/><path d="M 454.302 223.657 h 3.365 v -3.648 h 2.253 v -3.058 h -2.253 v -11.475 h -2.916 l -7.86 11.475 v 3.058 h 7.412 V 223.657 z M 454.302 216.951 h -4.155 l 4.155 -6.16 V 216.951 z" fill="#fff"/><path d="M 148.976 179.342 L 148.976 192.192" fill="none"/></svg>