<?xml version="1.0" encoding="iso-8859-1"?>
<!-- Generator: Adobe Illustrator 24.0.1, SVG Export Plug-In . SVG Version: 6.00 Build 0)  -->
<svg version="1.1" id="Layer_1" xmlns="http://www.w3.org/2000/svg" xmlns:xlink="http://www.w3.org/1999/xlink" x="0px" y="0px"
	 viewBox="0 0 612 792" style="enable-background:new 0 0 612 792;" xml:space="preserve">
<polygon style="fill:#3155A6;" points="113.396,415.26 113.396,531.592 46.796,531.592 46.796,464.368 23.17,464.368 23.17,622.444 
	46.796,622.444 46.796,555.22 113.396,555.22 113.396,622.444 137.022,622.444 137.022,425.293 "/>
<path style="fill:#3155A6;" d="M260.714,477.823l-37.03-15.727c-3.511-1.489-7.209-2.179-10.939-2.179
	c-18.631,0.001-37.995,17.206-37.995,37.653v87.145c0,20.854,14.764,37.728,33.01,37.728h42.947c17.754,0,35.73-16.874,35.73-37.728
	v-66.574C286.436,493.962,273.708,483.343,260.714,477.823z M267.669,582.505c0,10.211-13.056,21.172-20.691,21.172H215.94
	c-7.721,0-22.424-11.375-22.424-21.652v-75.551c0-9.993,6.899-23.2,20.919-23.2c1.941,0,4.563,0.712,5.651,1.174l33.291,14.139
	c8.579,3.643,14.291,8.957,14.291,23.046V582.505z"/>
<polygon style="fill:#3155A6;" points="431.492,534.582 431.492,512.432 324.404,512.432 324.404,622.444 431.492,622.444 
	431.492,600.293 348.029,600.293 348.029,576.155 394.732,576.155 394.732,554.005 348.029,554.005 348.029,534.582 "/>
<polygon style="fill:#3155A6;" points="585.727,466.294 559.712,466.294 494.796,558.863 494.796,451.926 471.171,434.289 
	471.171,622.444 494.796,622.444 494.796,595.96 522.013,557.148 559.712,622.444 585.727,622.444 536.281,536.803 "/>
<polygon style="fill:#3155A6;" points="140.631,172.758 117.005,172.758 117.005,221.577 51.127,221.577 51.127,172.758 
	27.501,172.758 27.501,304.849 30.009,304.849 51.127,295.881 51.127,245.203 117.005,245.203 117.005,292.153 140.631,302.186 "/>
<path style="fill:#3155A6;" d="M204.54,211.47c0-11.203,12.087-20.268,27.024-20.268c29.874,0,54.048,26.059,54.048,26.059
	l-1.448-25.094c0,0-23.526-19.409-52.6-19.409c-26.674,0-48.257,17.531-48.257,39.195c0,45.362,96.032,49.222,96.032,95.066
	c0,11.736-10.576,21.233-23.646,21.233c-42.144,0-76.247-38.605-76.247-38.605v29.023l67.519,28.673
	c16.678,7.083,53.125-3.648,53.125-40.324C300.089,254.419,204.54,237.047,204.54,211.47z"/>
<polygon style="fill:#3155A6;" points="348.579,353.479 477.633,172.758 450.076,172.758 364.032,293.25 344.777,172.758 
	319.7,172.758 "/>
<path style="fill:#3155A6;" d="M88.454,299.912l-65.285,34.275v102.152h72.904v-53.985l72.276,30.693l-2.013-8.927
	c-0.803-3.56-1.237-7.242-1.237-11.027c0-17.975,9.475-33.699,23.715-42.522l7.696-4.771l-8.333-3.539L88.454,299.912z"/>
<path style="fill:#3155A6;" d="M433.052,281.733l-2.829,3.59l-94.304,119.681l-73.914-31.388l1.917,8.852
	c0.742,3.432,1.142,6.98,1.142,10.624c0,18.116-9.628,33.96-24.057,42.739l-7.816,4.753l125.503,53.301l87.666-111.251l99.198,74.05
	l43.61-58.424L433.052,281.733z"/>
<path style="fill:#FFFFFF;" d="M186.343,346.581l-97.675-41.479l-60.804,31.921v94.625h63.519v-56.232l0.158-0.085l70.218,29.821
	c-0.874-3.883-1.351-7.915-1.351-12.061C160.408,373.44,170.779,356.218,186.343,346.581z"/>
<path style="fill:#FFFFFF;" d="M433.91,288.227l-96.525,122.5l-68.878-29.251c0.811,3.745,1.249,7.629,1.249,11.616
	c0,19.81-10.537,37.16-26.311,46.751l113.787,48.324l88.274-112.025l99.104,73.977l37.995-50.902L433.91,288.227z"/>
<path style="fill:#3155A6;" d="M170.659,391.107c0-24.733,20.05-44.783,44.784-44.783l0,0c24.733,0,44.783,20.05,44.786,44.783l0,0
	c-0.003,24.733-20.053,44.783-44.786,44.786l0,0C190.708,435.891,170.659,415.841,170.659,391.107L170.659,391.107z"/>
<path style="fill:#FFFFFF;" d="M180.261,399.716c-0.001-0.003-0.001-0.003-0.003-0.006c-0.079-0.572-0.247-1.863-0.418-3.701
	c-0.228-2.421-0.452-5.747-0.469-9.414c0.109-0.249,0.276-0.617,0.519-1.1c1.288-2.685,4.637-7.726,8.975-8.826l9.524,5.47
	l0.216,18.663l-6.771,8.166c-4.057-1.247-6.909-3.469-8.804-5.488c-1.039-1.11-1.784-2.148-2.256-2.896
	C180.537,400.212,180.367,399.912,180.261,399.716z"/>
<path style="fill:#FFFFFF;" d="M236.715,360.86c2.578,1.327,5.29,4.266,7.229,6.952c1.015,1.39,1.843,2.697,2.415,3.65
	c0.264,0.439,0.461,0.785,0.604,1.042c-0.066,4.376-0.925,7.666-1.764,9.852c-0.424,1.096-0.84,1.912-1.148,2.453l-11.412,0.801
	l-10.076-14.149l1.764-9.785c1.651-0.4,4.837-1.016,8.715-1.013C234.21,360.66,235.446,360.726,236.715,360.86z"/>
<path style="fill:#FFFFFF;" d="M218.339,370.471l-17.679,7.978l-9.225-5.299c0.177-3.484,1.073-6.675,1.986-9.056
	c0.506-1.328,1.015-2.402,1.39-3.133c0.078-0.151,0.144-0.275,0.208-0.393c0.181-0.143,0.445-0.345,0.802-0.605
	c2.19-1.601,7.453-4.877,13.247-5.542c2.921,0.015,5.876,1.619,8.083,3.375c1.114,0.88,2.027,1.773,2.651,2.434
	c0.122,0.129,0.221,0.239,0.318,0.346L218.339,370.471z"/>
<path style="fill:#FFFFFF;" d="M206.797,350.398c-6.788,1.301-12.12,4.99-14.072,6.475l-1.046-0.157
	c4.482-3.105,9.597-5.359,15.118-6.526V350.398z"/>
<path style="fill:#FFFFFF;" d="M221.247,407.326l-19.603-3.406l-6.673,8.047c1.514,6.003,4.206,9.564,4.855,10.342
	c0.179,0.116,0.467,0.299,0.902,0.553c0.755,0.44,1.861,1.031,3.225,1.623c2.735,1.189,6.499,2.35,10.543,2.35
	c1.724,0.024,3.725-1.078,5.52-2.77c1.787-1.66,3.297-3.768,4.183-5.161c0.184-0.289,0.33-0.529,0.458-0.743L221.247,407.326z"/>
<path style="fill:#FFFFFF;" d="M199.096,426.912c2.593,1.45,7.542,3.753,13.568,4.181l0.307,1.762
	c-5.395-0.323-10.511-1.667-15.164-3.838L199.096,426.912z"/>
<path style="fill:#FFFFFF;" d="M243.592,413.498c-0.87,1.033-1.663,1.87-2.23,2.444c-0.223,0.226-0.395,0.394-0.538,0.53
	c-0.923,0.238-3.23,0.734-6.284,0.734c-1.742,0-3.731-0.181-5.842-0.633l-3.455-10.979l7.727-15.664l11.404-0.801
	c1.176,1.549,3.938,6.275,4.037,16.796C247.193,408.792,245.267,411.516,243.592,413.498z"/>
<path style="fill:#FFFFFF;" d="M252.019,370.853l-1.361-0.583c-1.216-2.165-5.155-8.905-10.721-12.52l0.133-0.42
	C244.968,360.909,249.058,365.521,252.019,370.853z"/>
<path style="fill:#FFFFFF;" d="M173.781,387.482l1.27,0.347c0.08,4.81,0.48,8.886,0.741,11.092l-1.344,0.484
	c-0.543-2.681-0.834-5.456-0.839-8.298C173.611,389.885,173.677,388.678,173.781,387.482z"/>
<path style="fill:#FFFFFF;" d="M244.696,420.966l-0.4-1.835c1.732-1.723,5.512-5.807,7.859-10.943l1.664-0.473
	C251.648,412.716,248.533,417.205,244.696,420.966z"/>
<polygon style="fill:#3155A6;" points="520.967,324.097 590.316,324.097 590.316,319.406 590.316,286.321 470.361,286.321 "/>
<polygon style="fill:#3155A6;" points="509.949,172.758 482.972,210.532 590.316,210.532 590.316,205.839 590.316,172.758 "/>
<polygon style="fill:#3155A6;" points="442.424,267.313 590.316,267.313 590.316,262.624 590.316,229.539 469.401,229.539 "/>
<polygon style="fill:#FFFFFF;" points="585.625,319.405 585.625,291.014 484.491,291.014 522.527,319.405 "/>
<polygon style="fill:#FFFFFF;" points="585.625,205.841 585.625,177.45 512.366,177.45 492.092,205.841 "/>
<polygon style="fill:#FFFFFF;" points="585.625,262.623 585.625,234.232 471.817,234.232 451.544,262.623 "/>
</svg>
