<?xml version="1.0" encoding="iso-8859-1"?>
<!-- Generator: Adobe Illustrator 24.0.1, SVG Export Plug-In . SVG Version: 6.00 Build 0)  -->
<svg version="1.1" id="Layer_1" xmlns="http://www.w3.org/2000/svg" xmlns:xlink="http://www.w3.org/1999/xlink" x="0px" y="0px"
	 viewBox="0 0 612 792" style="enable-background:new 0 0 612 792;" xml:space="preserve">
<polygon style="fill:#FFFFFF;" points="346.47,373.747 410.376,208.736 474.277,373.747 530.796,373.747 596.44,204.241 
	523.754,204.241 522.538,208.406 502.534,277.017 481.319,204.241 412.116,204.241 339.426,204.241 338.212,208.406 
	318.211,277.023 296.996,204.241 224.305,204.241 289.95,373.747 "/>
<polygon style="fill:#FFFFFF;" points="454.977,389.56 410.372,257.827 365.773,389.56 234.08,389.56 339.616,468.975 
	300.201,589.293 410.375,520.697 520.549,589.295 481.133,468.975 586.673,389.56 "/>
<polygon style="fill:#FFFFFF;" points="215.008,204.561 147.302,204.561 128.386,270.436 111.085,204.561 42.634,204.561 
	15.204,374.066 22.001,374.066 82.746,374.066 88.768,313.488 107.38,374.066 149.378,374.066 169.647,311.213 175.277,374.066 
	242.89,374.066 "/>
<polyline style="fill:#D3B21B;" points="410.376,513.885 310.652,575.975 346.402,466.844 251.384,395.343 369.923,395.343 
	410.376,275.859 450.829,395.343 569.368,395.343 474.35,466.844 510.1,575.975 410.376,513.885 "/>
<path d="M22,368.284h55.51l6.704-67.448c0.626-6.284,1.045-12.778,1.465-19.06h1.883c0.42,6.699,1.888,12.983,3.563,19.69
	l20.528,66.818h33.514l22.831-70.799c1.678-5.029,2.724-10.473,3.771-15.71h1.048l7.749,86.508h55.51L210.1,210.344h-58.441
	l-17.805,62.001c-1.885,6.707-2.928,14.036-3.978,20.948h-1.465l-21.786-82.949H47.557L22,368.284"/>
<path d="M343.766,210.025l-20.943,71.849c-2.306,7.749-3.982,15.501-3.982,23.458h-1.258c0-7.957-1.675-15.709-3.981-23.458
	l-20.946-71.849h-59.909l61.164,157.939h48.598l61.166-157.939H343.766"/>
<path d="M528.092,210.025l-20.948,71.849c-2.303,7.749-3.979,15.501-3.979,23.458h-1.258c0-7.957-1.676-15.709-3.979-23.458
	l-20.945-71.849h-59.906l61.164,157.939h48.595L588,210.025H528.092"/>
</svg>
