<?xml version="1.0" encoding="iso-8859-1"?>
<!-- Generator: Adobe Illustrator 24.0.1, SVG Export Plug-In . SVG Version: 6.00 Build 0)  -->
<svg version="1.1" id="Layer_1" xmlns="http://www.w3.org/2000/svg" xmlns:xlink="http://www.w3.org/1999/xlink" x="0px" y="0px"
	 viewBox="0 0 612 792" style="enable-background:new 0 0 612 792;" xml:space="preserve">
<polygon style="fill:#00A160;" points="116.727,445.748 116.727,315.079 235.829,315.079 235.829,188.613 379.172,188.613 
	379.172,315.079 498.273,315.079 498.273,445.748 590.5,445.748 590.5,604.166 24.5,604.166 24.5,445.748 "/>
<rect x="34.384" y="464.889" style="fill:#FFF200;" width="546.231" height="120.138"/>
<rect x="245.727" y="207.476" style="fill:#FFF200;" width="123.544" height="238.272"/>
<rect x="126.646" y="325" style="fill:#FFF200;" width="108.742" height="120.421"/>
<rect x="379.612" y="325" style="fill:#FFF200;" width="108.742" height="120.421"/>
<path d="M321.08,277.497c0.205-4.081-4.708-7.818-15.052-7.964c-7.325-0.065-12.744,1.661-13.247,5.808
	c-0.4,3.464,1.306,4.158,4.611,5.063c1.714,1.246,15.561,2.763,18.363,3.114c4.021,0.482,12.654,1.73,17.266,4.983
	c8.43,6.094,4.515,18.067-4.62,22.149c-6.214,2.768-14.756,3.452-22.885,3.525c-3.713,0.066-12.541-0.834-17.959-3.533
	c-6.521-3.254-9.732-8.234-10.232-13.015l14.649-0.001c0,1.317,0.598,3.397,3.114,5.201c3.308,2.348,8.722,3.113,13.742,2.976
	c5.021-0.069,9.737-1.104,11.648-2.352c3.204-2.078,3.91-6.023,0.3-8.516c-4.817-3.456-19.277-3.458-28.707-5.675
	c-7.927-1.871-14.448-5.814-13.244-13.988c1.209-8.026,9.638-13.976,27.499-13.97c3.918,0,17.565,0.208,24.693,6.44
	c3.81,3.39,4.812,8.1,4.216,9.762L321.08,277.497"/>
<polygon points="338.76,346.177 313.963,396.625 301.021,396.625 276.239,346.165 291.396,346.164 307.545,384.238 323.608,346.171 
	"/>
<polygon points="152.455,498.933 152.457,517.893 123.456,517.891 123.456,498.93 108.407,498.927 108.398,549.377 123.451,549.379 
	123.454,526.547 152.455,526.55 152.446,549.388 167.502,549.385 167.51,498.936 "/>
<path d="M247.188,498.954l-0.002,34.806c0,4.434-1.612,11.075-13.751,15.158c-4.517,1.38-9.835,2.072-14.955,2.069
	c-5.115,0.003-10.138-0.613-14.147-1.661c-12.136-4.647-15.15-10.596-15.15-15.574l0.004-34.814l15.055,0.009l-0.008,34.942
	c0.202,3.182,1.605,8.103,13.853,8.103c11.935,0,14.044-4.916,14.045-8.099l0.009-34.945L247.188,498.954"/>
<rect x="267.857" y="498.958" width="15.053" height="50.449"/>
<polygon points="354.964,498.972 354.961,507.625 317.532,540.764 354.955,540.772 354.949,549.42 299.967,549.411 299.968,540.758 
	337.314,507.623 299.977,507.614 299.976,498.965 "/>
<polygon points="426.722,498.983 426.721,507.638 388.784,507.631 388.778,519.111 423.798,519.117 423.798,527.771 
	388.778,527.762 388.778,540.78 428.41,540.781 428.413,549.432 373.723,549.426 373.731,498.977 "/>
<polygon points="461.944,498.994 491.537,533.667 491.549,498.997 506.6,499.001 506.588,549.448 491.737,549.448 462.145,514.285 
	462.139,549.443 447.073,549.442 447.085,498.995 "/>
</svg>
