<?xml version="1.0" encoding="iso-8859-1"?>
<!-- Generator: Adobe Illustrator 24.0.1, SVG Export Plug-In . SVG Version: 6.00 Build 0)  -->
<svg version="1.1" id="Layer_1" xmlns="http://www.w3.org/2000/svg" xmlns:xlink="http://www.w3.org/1999/xlink" x="0px" y="0px"
	 viewBox="0 0 612 792" style="enable-background:new 0 0 612 792;" xml:space="preserve">
<polygon style="fill:#DB3D3B;" points="80.456,113.599 187.958,679.599 230.613,679.599 123.117,113.599 "/>
<polygon style="fill:#DB3D3B;" points="134.749,113.599 242.236,679.599 284.891,679.599 177.404,113.599 "/>
<polygon style="fill:#DB3D3B;" points="263.044,280.34 248.038,201.611 205.947,201.611 220.949,280.34 "/>
<polygon style="fill:#DB3D3B;" points="317.566,280.34 302.555,201.611 260.465,201.611 275.466,280.34 "/>
<path style="fill:#DB3D3B;" d="M494.821,297.625H345.917l-16.773,44.946l-8.79-45.486H278.26l23.043,120.091l-7.342,19.674
	l-27.01-139.765h-42.09l73.407,382.514h42.605L307.852,508.73h11.018l32.786,170.869h42.615L361.253,508.73h107.464
	c12.233,1.1,34.27-11.773,37.618-31.081l22.826-142.731C531.38,318.627,513.351,296.46,494.821,297.625z M468.487,444.288
	c-1.326,13.611-7.36,23.506-18.077,23.506h-63.285l12.409-49.382h50.794C471.576,418.412,469.813,430.677,468.487,444.288z
	 M484.068,362.386c-1.208,9.11-5.827,22.197-18.68,22.197l-57.395,0.161l11.932-47.483h39.677
	C479.83,337.261,486.146,346.721,484.068,362.386z"/>
</svg>
