<svg enable-background="new 0 0 595.276 841.89" viewBox="0 0 595.276 841.89" xmlns="http://www.w3.org/2000/svg" xmlns:xlink="http://www.w3.org/1999/xlink"><defs><radialGradient id="a" cx="311.6113" cy="437.0947" gradientUnits="userSpaceOnUse" r="43.8928"><stop offset="0" stop-color="#fff"/><stop offset=".1152" stop-color="#f7f7f7"/><stop offset=".2957" stop-color="#e2e2e0"/><stop offset=".3058" stop-color="#e1e1df"/><stop offset=".4006" stop-color="#d8d8d5"/><stop offset=".534" stop-color="#c2c1bf"/><stop offset=".6904" stop-color="#a3a19f"/><stop offset=".8628" stop-color="#7e7c7a"/><stop offset=".9515" stop-color="#6b6a69"/></radialGradient><radialGradient id="b" cx="311.6123" cy="437.0947" gradientUnits="userSpaceOnUse" r="43.8872"><stop offset="0" stop-color="#808080"/><stop offset=".1398" stop-color="#787878"/><stop offset=".3593" stop-color="#616161"/><stop offset=".631" stop-color="#3d3d3d"/><stop offset=".9418" stop-color="#0a0a0a"/><stop offset="1"/></radialGradient><radialGradient id="c" cx="311.6084" cy="437.0957" gradientUnits="userSpaceOnUse" r="43.8898"><stop offset="0" stop-color="#808080"/><stop offset=".1398" stop-color="#787878"/><stop offset=".3593" stop-color="#616161"/><stop offset=".631" stop-color="#3d3d3d"/><stop offset=".9418" stop-color="#0a0a0a"/><stop offset="1"/></radialGradient><radialGradient id="d" cx="311.6113" cy="437.0937" gradientUnits="userSpaceOnUse" r="43.8933"><stop offset="0" stop-color="#808080"/><stop offset=".1398" stop-color="#787878"/><stop offset=".3593" stop-color="#616161"/><stop offset=".631" stop-color="#3d3d3d"/><stop offset=".9418" stop-color="#0a0a0a"/><stop offset="1"/></radialGradient><radialGradient id="e" cx="311.6104" cy="437.0957" gradientUnits="userSpaceOnUse" r="43.8907"><stop offset="0" stop-color="#808080"/><stop offset=".1398" stop-color="#787878"/><stop offset=".3593" stop-color="#616161"/><stop offset=".631" stop-color="#3d3d3d"/><stop offset=".9418" stop-color="#0a0a0a"/><stop offset="1"/></radialGradient><radialGradient id="f" cx="311.6104" cy="437.0937" gradientUnits="userSpaceOnUse" r="43.8931"><stop offset="0" stop-color="#808080"/><stop offset=".1398" stop-color="#787878"/><stop offset=".3593" stop-color="#616161"/><stop offset=".631" stop-color="#3d3d3d"/><stop offset=".9418" stop-color="#0a0a0a"/><stop offset="1"/></radialGradient></defs><path d="M 578.519 208.817 h -95.534 l 8.107 -20.395 c .549 -1.38 .378 -2.942 -.456 -4.171 c -.834 -1.229 -2.223 -1.965 -3.708 -1.965 H 113.073 c -1.485 0 -2.874 .736 -3.708 1.965 c -.834 1.229 -1.005 2.79 -.456 4.171 l 8.106 20.395 H 21.481 c -2.475 0 -4.481 2.006 -4.481 4.48 v 76.557 c 0 2.474 2.006 4.481 4.481 4.481 H 151.01 l 144.827 364.331 c .678 1.706 2.329 2.826 4.164 2.826 c 1.836 0 3.485 -1.12 4.164 -2.826 l 144.826 -364.331 h 129.528 c 2.475 0 4.481 -2.007 4.481 -4.481 v -76.557 C 583 210.823 580.994 208.817 578.519 208.817 z" fill="#abe1fa"/><path d="M 578.519 213.298 L 476.382 213.298 L 486.929 186.768 L 113.073 186.768 L 123.619 213.298 L 21.481 213.298 L 21.481 289.855 L 154.051 289.855 L 300.001 657.012 L 445.95 289.855 L 578.519 289.855 Z" fill="#3551a3"/><path d="M 45.998 261.736 l -12.586 -31.23 h 8.675 l 5.881 15.939 l 1.706 5.323 c .451 -1.353 .735 -2.245 .853 -2.676 c .275 -.882 .568 -1.764 .882 -2.646 l 5.94 -15.939 h 8.499 l -12.41 31.23 H 45.998 z" fill="#f7ef6f"/><path d="M 72.216 261.736 v -8.263 h 8.264 v 8.263 H 72.216 z" fill="#f7ef6f"/><path d="M 103.317 261.736 l -12.586 -31.23 h 8.676 l 5.881 15.939 l 1.706 5.323 c .45 -1.353 .734 -2.245 .852 -2.676 c .274 -.882 .569 -1.764 .882 -2.646 l 5.94 -15.939 h 8.499 l -12.41 31.23 H 103.317 z" fill="#f7ef6f"/><path d="M 129.537 261.736 v -8.263 h 8.264 v 8.263 H 129.537 z" fill="#f7ef6f"/><path d="M 174.594 218.626 h 15.909 c 3.588 0 6.323 .275 8.205 .823 c 2.529 .746 4.695 2.069 6.499 3.97 c 1.804 1.902 3.176 4.23 4.118 6.985 c .94 2.754 1.411 6.15 1.411 10.188 c 0 3.549 -.441 6.607 -1.323 9.175 c -1.079 3.137 -2.617 5.675 -4.617 7.617 c -1.509 1.47 -3.549 2.617 -6.116 3.441 c -1.921 .608 -4.49 .912 -7.705 .912 h -16.38 V 218.626 z M 183.299 225.919 v 28.553 h 6.499 c 2.431 0 4.186 -.137 5.264 -.412 c 1.412 -.352 2.583 -.95 3.515 -1.794 c .93 -.842 1.69 -2.23 2.279 -4.161 c .588 -1.931 .882 -4.562 .882 -7.896 c 0 -3.333 -.294 -5.892 -.882 -7.675 c -.588 -1.784 -1.412 -3.177 -2.471 -4.176 c -1.059 -1 -2.402 -1.676 -4.029 -2.029 c -1.215 -.274 -3.597 -.411 -7.145 -.411 H 183.299 z" fill="#f7ef6f"/><path d="M 223.839 226.271 v -7.646 h 8.263 v 7.646 H 223.839 z M 223.839 261.736 v -31.23 h 8.263 v 31.23 H 223.839 z" fill="#f7ef6f"/><path d="M 254.44 230.506 v 30.26 c 0 3.98 -.259 6.788 -.778 8.425 c -.52 1.637 -1.52 2.915 -3 3.838 c -1.48 .92 -3.367 1.382 -5.661 1.382 c -.824 0 -1.711 -.074 -2.662 -.221 c -.951 -.147 -1.975 -.368 -3.073 -.662 l 1.44 -7.057 c .393 .078 .76 .142 1.103 .19 c .343 .048 .662 .074 .956 .074 c .843 0 1.534 -.181 2.074 -.544 c .539 -.363 .897 -.799 1.073 -1.308 c .176 -.511 .264 -2.04 .264 -4.588 v -29.789 H 254.44 z M 246.177 226.271 v -7.646 h 8.263 v 7.646 H 246.177 z" fill="#f7ef6f"/><path d="M 268.574 261.736 v -43.11 h 8.263 v 22.878 l 9.675 -10.998 h 10.175 l -10.675 11.41 l 11.439 19.82 h -8.91 l -7.852 -14.027 l -3.852 4.028 v 9.999 H 268.574 z" fill="#f7ef6f"/><path d="M 305.232 252.825 l 8.292 -1.264 c .354 1.608 1.067 2.829 2.148 3.662 c 1.078 .833 2.588 1.249 4.527 1.249 c 2.137 0 3.745 -.392 4.822 -1.176 c .726 -.548 1.089 -1.283 1.089 -2.205 c 0 -.628 -.196 -1.146 -.587 -1.558 c -.413 -.393 -1.334 -.755 -2.766 -1.088 c -6.666 -1.471 -10.891 -2.814 -12.674 -4.029 c -2.47 -1.686 -3.705 -4.029 -3.705 -7.028 c 0 -2.706 1.068 -4.979 3.204 -6.823 c 2.138 -1.841 5.45 -2.764 9.939 -2.764 c 4.275 0 7.45 .696 9.529 2.088 c 2.077 1.392 3.509 3.45 4.294 6.175 l -7.794 1.441 c -.332 -1.215 -.966 -2.146 -1.896 -2.794 c -.932 -.646 -2.261 -.97 -3.985 -.97 c -2.176 0 -3.735 .304 -4.676 .912 c -.627 .431 -.939 .99 -.939 1.676 c 0 .588 .273 1.089 .822 1.501 c .746 .548 3.318 1.323 7.719 2.322 c 4.402 1 7.475 2.226 9.22 3.676 c 1.726 1.471 2.587 3.52 2.587 6.146 c 0 2.862 -1.195 5.323 -3.588 7.381 c -2.391 2.059 -5.929 3.088 -10.615 3.088 c -4.254 0 -7.621 -.862 -10.1 -2.588 C 307.618 258.129 305.997 255.786 305.232 252.825 z" fill="#f7ef6f"/><path d="M 365.504 251.796 l 8.234 1.383 c -1.06 3.018 -2.729 5.317 -5.014 6.896 c -2.284 1.578 -5.142 2.367 -8.572 2.367 c -5.432 0 -9.449 -1.774 -12.058 -5.323 c -2.059 -2.843 -3.087 -6.43 -3.087 -10.763 c 0 -5.175 1.354 -9.229 4.059 -12.159 c 2.704 -2.93 6.126 -4.396 10.263 -4.396 c 4.645 0 8.31 1.534 10.997 4.602 c 2.686 3.068 3.971 7.769 3.852 14.101 h -20.702 c .06 2.452 .725 4.357 1.998 5.72 c 1.275 1.363 2.863 2.044 4.766 2.044 c 1.295 0 2.382 -.354 3.265 -1.058 C 364.387 254.502 365.054 253.365 365.504 251.796 z M 365.975 243.445 c -.058 -2.391 -.676 -4.21 -1.852 -5.455 c -1.177 -1.246 -2.607 -1.868 -4.295 -1.868 c -1.803 0 -3.293 .657 -4.471 1.97 c -1.174 1.314 -1.754 3.099 -1.734 5.353 H 365.975 z" fill="#f7ef6f"/><path d="M 409.298 218.626 h 17.232 c 3.41 0 5.954 .142 7.63 .426 c 1.676 .284 3.176 .877 4.499 1.779 c 1.324 .9 2.428 2.102 3.31 3.602 c .881 1.5 1.323 3.181 1.323 5.043 c 0 2.02 -.545 3.873 -1.633 5.558 c -1.087 1.687 -2.563 2.95 -4.425 3.794 c 2.626 .764 4.645 2.069 6.058 3.91 c 1.411 1.843 2.117 4.01 2.117 6.499 c 0 1.961 -.456 3.867 -1.367 5.719 c -.914 1.854 -2.158 3.334 -3.736 4.441 c -1.578 1.107 -3.522 1.789 -5.836 2.043 c -1.45 .158 -4.95 .255 -10.499 .294 h -14.673 V 218.626 z M 418.002 225.801 v 9.969 h 5.705 c 3.391 0 5.498 -.048 6.321 -.147 c 1.491 -.177 2.663 -.691 3.515 -1.543 c .852 -.853 1.28 -1.976 1.28 -3.368 c 0 -1.333 -.367 -2.416 -1.103 -3.249 c -.733 -.833 -1.828 -1.338 -3.278 -1.515 c -.863 -.099 -3.344 -.147 -7.44 -.147 H 418.002 z M 418.002 242.945 v 11.527 h 8.057 c 3.138 0 5.128 -.088 5.969 -.265 c 1.295 -.235 2.35 -.809 3.162 -1.72 c .813 -.911 1.22 -2.132 1.22 -3.661 c 0 -1.294 -.313 -2.392 -.94 -3.293 c -.627 -.901 -1.533 -1.559 -2.72 -1.971 c -1.186 -.412 -3.758 -.617 -7.72 -.617 H 418.002 z" fill="#f7ef6f"/><path d="M 456.57 245.68 c 0 -2.745 .678 -5.402 2.031 -7.97 c 1.353 -2.568 3.268 -4.528 5.749 -5.88 c 2.479 -1.353 5.249 -2.029 8.308 -2.029 c 4.724 0 8.595 1.534 11.616 4.602 c 3.018 3.068 4.528 6.945 4.528 11.631 c 0 4.725 -1.525 8.642 -4.574 11.748 c -3.048 3.107 -6.886 4.661 -11.512 4.661 c -2.863 0 -5.593 -.647 -8.19 -1.94 c -2.599 -1.294 -4.573 -3.191 -5.926 -5.69 C 457.248 252.311 456.57 249.268 456.57 245.68 z M 465.042 246.121 c 0 3.097 .733 5.47 2.205 7.116 c 1.471 1.647 3.283 2.471 5.439 2.471 c 2.156 0 3.966 -.824 5.426 -2.471 c 1.461 -1.646 2.191 -4.039 2.191 -7.176 c 0 -3.058 -.73 -5.41 -2.191 -7.057 c -1.46 -1.647 -3.27 -2.47 -5.426 -2.47 c -2.156 0 -3.969 .823 -5.439 2.47 C 465.775 240.651 465.042 243.023 465.042 246.121 z" fill="#f7ef6f"/><path d="M 497.142 230.506 h 8.794 l 7.468 22.173 l 7.293 -22.173 h 8.558 l -11.027 30.054 l -1.971 5.44 c -.725 1.823 -1.416 3.215 -2.072 4.176 c -.658 .961 -1.412 1.74 -2.266 2.338 c -.853 .598 -1.9 1.063 -3.145 1.397 c -1.246 .333 -2.653 .5 -4.222 .5 c -1.588 0 -3.146 -.167 -4.675 -.5 l -.735 -6.47 c 1.294 .254 2.46 .382 3.499 .382 c 1.923 0 3.343 -.563 4.265 -1.691 c .921 -1.127 1.627 -2.564 2.117 -4.309 L 497.142 230.506 z" fill="#f7ef6f"/><path d="M 537.417 252.825 l 8.294 -1.264 c .354 1.608 1.067 2.829 2.146 3.662 c 1.077 .833 2.587 1.249 4.528 1.249 c 2.138 0 3.744 -.392 4.822 -1.176 c .727 -.548 1.09 -1.283 1.09 -2.205 c 0 -.628 -.198 -1.146 -.589 -1.558 c -.413 -.393 -1.334 -.755 -2.765 -1.088 c -6.666 -1.471 -10.89 -2.814 -12.675 -4.029 c -2.47 -1.686 -3.705 -4.029 -3.705 -7.028 c 0 -2.706 1.067 -4.979 3.205 -6.823 c 2.138 -1.841 5.45 -2.764 9.94 -2.764 c 4.273 0 7.449 .696 9.528 2.088 c 2.077 1.392 3.51 3.45 4.294 6.175 l -7.794 1.441 c -.333 -1.215 -.965 -2.146 -1.897 -2.794 c -.931 -.646 -2.26 -.97 -3.983 -.97 c -2.176 0 -3.735 .304 -4.677 .912 c -.628 .431 -.941 .99 -.941 1.676 c 0 .588 .276 1.089 .824 1.501 c .745 .548 3.318 1.323 7.719 2.322 c 4.401 1 7.474 2.226 9.219 3.676 c 1.725 1.471 2.589 3.52 2.589 6.146 c 0 2.862 -1.197 5.323 -3.588 7.381 c -2.393 2.059 -5.932 3.088 -10.616 3.088 c -4.255 0 -7.622 -.862 -10.102 -2.588 C 539.805 258.129 538.183 255.786 537.417 252.825 z" fill="#f7ef6f"/><path d="M 241.326 333.604 c -.806 -.339 -1.392 -.807 -1.758 -1.402 c -.366 -.596 -.549 -1.248 -.549 -1.957 c 0 -1.213 .423 -2.214 1.27 -3.005 c .846 -.792 2.05 -1.187 3.609 -1.187 c 1.546 0 2.745 .396 3.599 1.187 c .854 .791 1.281 1.792 1.281 3.005 c 0 .753 -.196 1.425 -.588 2.013 c -.393 .587 -.944 1.037 -1.653 1.347 c .902 .363 1.588 .892 2.058 1.587 c .469 .695 .704 1.497 .704 2.406 c 0 1.502 -.478 2.721 -1.437 3.66 c -.957 .939 -2.23 1.408 -3.82 1.408 c -1.479 0 -2.709 -.388 -3.692 -1.164 c -1.161 -.917 -1.741 -2.174 -1.741 -3.771 c 0 -.88 .218 -1.688 .654 -2.423 C 239.699 334.571 240.386 334.004 241.326 333.604 z M 241.68 337.43 c 0 .857 .22 1.527 .66 2.007 c .44 .48 .989 .72 1.647 .72 c .643 0 1.176 -.231 1.596 -.693 c .422 -.461 .632 -1.129 .632 -2.002 c 0 -.761 -.214 -1.373 -.643 -1.835 c -.429 -.462 -.973 -.693 -1.63 -.693 c -.762 0 -1.329 .262 -1.703 .788 C 241.867 336.247 241.68 336.816 241.68 337.43 z M 241.969 330.465 c 0 .622 .175 1.105 .526 1.453 c .351 .349 .818 .522 1.402 .522 c .592 0 1.065 -.175 1.42 -.527 c .355 -.351 .532 -.838 .532 -1.458 c 0 -.585 -.176 -1.052 -.527 -1.403 c -.351 -.351 -.815 -.527 -1.392 -.527 c -.599 0 -1.076 .178 -1.431 .533 C 242.146 329.413 241.969 329.882 241.969 330.465 z" fill="#f7ef6f"/><path d="M 260.207 330.599 h 2.872 v 1.608 c 1.028 -1.25 2.251 -1.875 3.671 -1.875 c .754 0 1.408 .156 1.963 .466 c .555 .31 1.009 .779 1.364 1.408 c .517 -.629 1.075 -1.099 1.675 -1.408 c .598 -.311 1.238 -.466 1.918 -.466 c .865 0 1.597 .176 2.196 .527 c .599 .352 1.045 .867 1.342 1.547 c .214 .502 .322 1.316 .322 2.44 v 7.531 h -3.117 v -6.732 c 0 -1.168 -.107 -1.922 -.322 -2.262 c -.288 -.444 -.732 -.665 -1.331 -.665 c -.436 0 -.846 .132 -1.231 .399 c -.384 .266 -.662 .656 -.832 1.17 c -.17 .514 -.255 1.325 -.255 2.434 v 5.656 h -3.116 v -6.455 c 0 -1.147 -.055 -1.885 -.167 -2.217 c -.11 -.333 -.282 -.581 -.516 -.743 c -.232 -.163 -.548 -.244 -.948 -.244 c -.48 0 -.913 .129 -1.297 .388 c -.385 .259 -.66 .632 -.827 1.12 c -.166 .488 -.249 1.298 -.249 2.429 v 5.723 h -3.117 V 330.599 z" fill="#f7ef6f"/><path d="M 288.545 338.627 l 3.105 .522 c -.4 1.138 -1.03 2.006 -1.891 2.601 c -.861 .595 -1.939 .893 -3.233 .893 c -2.048 0 -3.564 -.669 -4.546 -2.008 c -.777 -1.072 -1.165 -2.424 -1.165 -4.059 c 0 -1.952 .51 -3.479 1.531 -4.586 c 1.02 -1.105 2.31 -1.657 3.87 -1.657 c 1.752 0 3.134 .578 4.147 1.736 c 1.014 1.156 1.497 2.928 1.453 5.316 h -7.808 c .023 .925 .274 1.644 .754 2.157 c .481 .514 1.08 .771 1.797 .771 c .488 0 .898 -.133 1.231 -.399 C 288.124 339.648 288.374 339.219 288.545 338.627 z M 288.723 335.479 c -.022 -.902 -.255 -1.588 -.699 -2.058 c -.443 -.469 -.983 -.704 -1.619 -.704 c -.681 0 -1.242 .248 -1.686 .743 c -.443 .496 -.661 1.168 -.654 2.019 H 288.723 z" fill="#f7ef6f"/><path d="M 295.446 329.002 v -2.884 h 3.116 v 2.884 H 295.446 z M 295.446 342.376 v -11.778 h 3.116 v 11.778 H 295.446 z" fill="#f7ef6f"/><path d="M 317.555 342.376 h -3.116 v -11.744 c -1.138 1.064 -2.482 1.852 -4.025 2.362 v -2.829 c .814 -.266 1.697 -.77 2.65 -1.513 c .954 -.743 1.607 -1.61 1.962 -2.601 h 2.529 V 342.376 z" fill="#f7ef6f"/><path d="M 323.369 338.617 l 3.017 -.333 c .074 .613 .266 1.067 .577 1.364 c .31 .295 .721 .443 1.23 .443 c .643 0 1.191 -.296 1.641 -.887 c .452 -.591 .74 -1.819 .865 -3.682 c -.783 .909 -1.763 1.364 -2.939 1.364 c -1.278 0 -2.382 -.493 -3.31 -1.481 c -.929 -.986 -1.393 -2.271 -1.393 -3.853 c 0 -1.649 .49 -2.977 1.471 -3.986 c .979 -1.01 2.228 -1.514 3.744 -1.514 c 1.646 0 3.001 .638 4.057 1.913 c 1.058 1.275 1.587 3.373 1.587 6.293 c 0 2.972 -.551 5.116 -1.651 6.433 c -1.104 1.315 -2.537 1.973 -4.303 1.973 c -1.272 0 -2.302 -.337 -3.084 -1.014 C 324.094 340.973 323.591 339.963 323.369 338.617 z M 330.423 331.808 c 0 -1.006 -.232 -1.787 -.693 -2.34 c -.462 -.555 -.996 -.832 -1.602 -.832 c -.576 0 -1.055 .227 -1.437 .682 c -.38 .455 -.57 1.199 -.57 2.234 c 0 1.05 .206 1.821 .621 2.313 c .413 .492 .931 .738 1.551 .738 c .601 0 1.104 -.236 1.517 -.71 C 330.217 333.42 330.423 332.724 330.423 331.808 z" fill="#f7ef6f"/><path d="M 343.135 342.376 v -3.272 h -6.653 v -2.728 l 7.052 -10.325 h 2.619 v 10.314 h 2.018 v 2.739 h -2.018 v 3.272 H 343.135 z M 343.135 336.366 v -5.556 l -3.735 5.556 H 343.135 z" fill="#f7ef6f"/><path d="M 353.418 333.604 c -.804 -.339 -1.391 -.807 -1.758 -1.402 c -.366 -.596 -.548 -1.248 -.548 -1.957 c 0 -1.213 .422 -2.214 1.27 -3.005 c .847 -.792 2.049 -1.187 3.609 -1.187 c 1.545 0 2.745 .396 3.599 1.187 c .855 .791 1.281 1.792 1.281 3.005 c 0 .753 -.195 1.425 -.588 2.013 c -.392 .587 -.941 1.037 -1.651 1.347 c .901 .363 1.586 .892 2.057 1.587 c .469 .695 .703 1.497 .703 2.406 c 0 1.502 -.48 2.721 -1.437 3.66 c -.957 .939 -2.23 1.408 -3.82 1.408 c -1.478 0 -2.709 -.388 -3.692 -1.164 c -1.159 -.917 -1.741 -2.174 -1.741 -3.771 c 0 -.88 .219 -1.688 .655 -2.423 C 351.793 334.571 352.479 334.004 353.418 333.604 z M 353.773 337.43 c 0 .857 .219 1.527 .659 2.007 c .44 .48 .99 .72 1.647 .72 c .644 0 1.175 -.231 1.597 -.693 c .422 -.461 .632 -1.129 .632 -2.002 c 0 -.761 -.214 -1.373 -.643 -1.835 c -.43 -.462 -.971 -.693 -1.63 -.693 c -.761 0 -1.329 .262 -1.701 .788 C 353.96 336.247 353.773 336.816 353.773 337.43 z M 354.063 330.465 c 0 .622 .175 1.105 .525 1.453 c .352 .349 .819 .522 1.403 .522 c .592 0 1.065 -.175 1.42 -.527 c .355 -.351 .532 -.838 .532 -1.458 c 0 -.585 -.176 -1.052 -.527 -1.403 c -.351 -.351 -.814 -.527 -1.393 -.527 c -.599 0 -1.074 .178 -1.431 .533 C 354.238 329.413 354.063 329.882 354.063 330.465 z" fill="#f7ef6f"/><path d="M 237.104 388.991 v -21.006 h 3.945 v 8.268 h 7.729 v -8.268 h 3.944 v 21.006 h -3.944 v -9.185 h -7.729 v 9.185 H 237.104 z" fill="#f7ef6f"/><path d="M 267.098 384.148 l 3.731 .674 c -.48 1.47 -1.238 2.591 -2.272 3.36 c -1.036 .77 -2.33 1.153 -3.885 1.153 c -2.461 0 -4.282 -.864 -5.464 -2.594 c -.933 -1.385 -1.399 -3.133 -1.399 -5.244 c 0 -2.522 .613 -4.497 1.839 -5.926 c 1.227 -1.427 2.776 -2.142 4.65 -2.142 c 2.106 0 3.768 .747 4.984 2.243 c 1.217 1.495 1.799 3.785 1.746 6.872 h -9.382 c .027 1.194 .328 2.122 .906 2.786 c .578 .665 1.297 .997 2.159 .997 c .586 0 1.08 -.172 1.48 -.517 C 266.591 385.466 266.894 384.912 267.098 384.148 z M 267.31 380.078 c -.027 -1.165 -.306 -2.05 -.839 -2.658 c -.532 -.606 -1.182 -.909 -1.946 -.909 c -.818 0 -1.492 .32 -2.025 .96 c -.533 .64 -.795 1.51 -.786 2.607 H 267.31 z" fill="#f7ef6f"/><path d="M 276.21 388.991 v -21.006 h 3.745 v 21.006 H 276.21 z" fill="#f7ef6f"/><path d="M 285.642 373.773 h 3.452 v 2.078 c 1.234 -1.614 2.706 -2.421 4.41 -2.421 c .907 0 1.693 .201 2.36 .603 c .665 .4 1.213 1.007 1.639 1.818 c .622 -.811 1.293 -1.418 2.012 -1.818 c .719 -.402 1.486 -.603 2.306 -.603 c 1.041 0 1.918 .228 2.638 .681 c .72 .454 1.258 1.12 1.612 2 c .257 .649 .387 1.7 .387 3.152 v 9.729 h -3.744 v -8.697 c 0 -1.51 -.13 -2.484 -.386 -2.924 c -.348 -.573 -.88 -.859 -1.6 -.859 c -.524 0 -1.017 .171 -1.479 .516 c -.462 .343 -.795 .847 -.999 1.511 c -.205 .664 -.307 1.713 -.307 3.145 v 7.309 h -3.746 v -8.34 c 0 -1.48 -.066 -2.435 -.2 -2.865 c -.133 -.43 -.339 -.75 -.62 -.96 c -.279 -.21 -.659 -.315 -1.139 -.315 c -.578 0 -1.098 .167 -1.559 .501 c -.463 .334 -.794 .817 -.993 1.447 c -.2 .63 -.301 1.676 -.301 3.138 v 7.394 h -3.744 V 373.773 z" fill="#f7ef6f"/><path d="M 311.451 381.168 c 0 -1.338 .308 -2.632 .919 -3.884 c .613 -1.251 1.482 -2.207 2.607 -2.866 c 1.124 -.659 2.378 -.989 3.765 -.989 c 2.141 0 3.895 .747 5.264 2.243 c 1.367 1.495 2.053 3.384 2.053 5.668 c 0 2.302 -.69 4.21 -2.073 5.724 c -1.382 1.514 -3.12 2.271 -5.217 2.271 c -1.297 0 -2.533 -.315 -3.711 -.945 c -1.178 -.631 -2.073 -1.555 -2.686 -2.773 C 311.759 384.399 311.451 382.915 311.451 381.168 z M 315.29 381.383 c 0 1.509 .333 2.664 .999 3.467 c .666 .802 1.488 1.203 2.466 1.203 c .976 0 1.796 -.401 2.457 -1.203 c .663 -.803 .993 -1.967 .993 -3.496 c 0 -1.49 -.33 -2.637 -.993 -3.44 c -.661 -.802 -1.481 -1.203 -2.457 -1.203 c -.978 0 -1.8 .401 -2.466 1.203 C 315.623 378.717 315.29 379.873 315.29 381.383 z" fill="#f7ef6f"/><path d="M 343.992 388.991 h -3.746 v -7.767 c 0 -1.642 -.079 -2.705 -.238 -3.188 c -.162 -.482 -.421 -.857 -.78 -1.125 c -.36 -.267 -.793 -.4 -1.3 -.4 c -.647 0 -1.23 .19 -1.746 .572 c -.515 .383 -.868 .889 -1.059 1.519 c -.19 .631 -.287 1.797 -.287 3.497 v 6.893 h -3.744 v -15.218 h 3.479 v 2.236 c 1.235 -1.719 2.791 -2.579 4.663 -2.579 c .827 0 1.582 .161 2.268 .481 c .683 .32 1.201 .728 1.552 1.225 c .35 .497 .596 1.061 .732 1.691 c .138 .63 .208 1.533 .208 2.708 V 388.991 z" fill="#f7ef6f"/><path d="M 362.897 388.991 h -3.478 v -2.235 c -.578 .869 -1.26 1.517 -2.046 1.942 c -.786 .424 -1.579 .637 -2.38 .637 c -1.624 0 -3.017 -.704 -4.176 -2.113 c -1.161 -1.409 -1.74 -3.374 -1.74 -5.896 c 0 -2.58 .564 -4.54 1.693 -5.883 c 1.127 -1.343 2.554 -2.014 4.276 -2.014 c 1.581 0 2.95 .707 4.106 2.121 v -7.565 h 3.743 V 388.991 z M 352.903 381.053 c 0 1.624 .208 2.8 .626 3.525 c .604 1.052 1.448 1.576 2.532 1.576 c .86 0 1.595 -.394 2.198 -1.181 c .604 -.789 .906 -1.967 .906 -3.532 c 0 -1.749 -.293 -3.007 -.879 -3.776 c -.587 -.77 -1.338 -1.153 -2.253 -1.153 c -.888 0 -1.632 .379 -2.231 1.139 C 353.203 378.409 352.903 379.543 352.903 381.053 z" fill="#f7ef6f"/><path d="M 30.839 280.095 H 569.162 V 283.107 H 30.839 Z" fill="#f7ef6f"/><path d="M 300 421.656 c -14.939 0 -27.049 12.11 -27.049 27.05 c 0 14.94 12.11 27.05 27.049 27.05 c 14.939 0 27.05 -12.11 27.05 -27.05 C 327.05 433.766 314.939 421.656 300 421.656 z" fill="url(#a)"/><path d="M 318.715 435.095 l 4.455 -.351 c -3.297 -5.46 -8.47 -9.655 -14.622 -11.703 l 1.831 5.589 L 318.715 435.095 z" fill="url(#b)"/><path d="M 276.694 443.093 l -2.612 -2.133 c -.732 2.455 -1.131 5.053 -1.131 7.746 c 0 3.107 .53 6.09 1.495 8.868 l 3.013 -4.36 L 276.694 443.093 z" fill="url(#c)"/><path d="M 281.457 462.315 L 287.751 471.842 L 299.661 470.822 L 300.342 460.103 L 288.943 454.659 Z" fill="url(#d)"/><path d="M 321.438 442.241 l -10.209 2.892 l -.85 12.079 l 9.696 4.763 l 6.492 -8.192 c .1 -.52 .181 -1.043 .249 -1.572 L 321.438 442.241 z" fill="url(#e)"/><path d="M 287.922 427.099 L 282.308 436.456 L 290.984 444.281 L 302.042 439.688 L 300.001 428.971 Z" fill="url(#f)"/></svg>