<?xml version="1.0" encoding="iso-8859-1"?>
<!-- Generator: Adobe Illustrator 24.0.1, SVG Export Plug-In . SVG Version: 6.00 Build 0)  -->
<svg version="1.1" id="Layer_1" xmlns="http://www.w3.org/2000/svg" xmlns:xlink="http://www.w3.org/1999/xlink" x="0px" y="0px"
	 viewBox="0 0 612 792" style="enable-background:new 0 0 612 792;" xml:space="preserve">
<path style="fill:#F58220;" d="M365.168,312.984c-100.172,0-181.377,81.205-181.377,181.377
	c0,99.511,80.143,180.292,179.403,181.351c-77.292-6.748-137.909-71.059-137.909-149.41c0-82.847,67.768-150.007,151.362-150.007
	c83.596,0,151.36,67.161,151.36,150.007c0,38.826-14.885,74.209-39.307,100.847c35.579-33.114,57.843-80.349,57.843-132.788
	C546.544,394.189,465.34,312.984,365.168,312.984"/>
<path style="fill:#F58220;" d="M142.725,462.579c0-119.003,97.292-215.472,217.31-215.472c120.015,0,217.309,96.47,217.309,215.472
	c0,54.988-20.783,105.155-54.974,143.227c42.154-43.005,68.13-101.72,68.13-166.471c0-131.837-107.645-238.713-240.43-238.713
	c-132.784,0-240.426,106.876-240.426,238.713c0,131.841,107.643,238.716,240.426,238.716c1.664,0,3.322-0.028,4.979-0.062
	C237.334,675.36,142.725,579.93,142.725,462.579"/>
<polygon points="72.333,357.588 28.205,362.359 24.5,374.467 95.46,366.744 96.71,362.649 42.067,317.053 38.395,329.053 "/>
<path d="M93.9,332.375c-1.684,0.928-2.858,2.371-3.428,4.237c-0.574,1.886-0.41,3.703,0.494,5.404
	c0.905,1.705,2.321,2.859,4.207,3.436c1.866,0.571,3.664,0.391,5.342-0.531c1.076-0.594,1.942-1.408,2.571-2.422
	c0.332-0.539,0.602-1.138,0.799-1.784c0.581-1.899,0.441-3.723-0.415-5.425c-0.871-1.726-2.259-2.891-4.131-3.461
	C97.448,331.246,95.618,331.431,93.9,332.375"/>
<polygon points="95.164,304.897 50.941,301.118 44.981,312.289 116.104,318.319 118.118,314.542 73.237,259.311 67.331,270.385 "/>
<path d="M121.166,284.292c-1.829,0.585-3.257,1.782-4.172,3.499c-0.929,1.737-1.115,3.555-0.555,5.401
	c0.562,1.846,1.73,3.25,3.469,4.177c1.724,0.918,3.522,1.088,5.345,0.502c1.17-0.374,2.176-1.008,2.988-1.883
	c0.43-0.463,0.809-1.001,1.128-1.596c0.935-1.755,1.149-3.574,0.633-5.404c-0.523-1.86-1.663-3.27-3.391-4.19
	C124.866,283.865,123.034,283.696,121.166,284.292"/>
<path d="M154.739,196.551c-5.402-1.75-10.787-1.931-16-0.533c-5.175,1.381-10.738,4.876-16.576,10.408l-15.219,14.425l42.319,46.733
	l14.354-13.603c3.802-3.605,6.218-6.107,7.393-7.652c1.176-1.554,2.29-3.479,3.3-5.699c1.8-3.81,2.772-7.898,2.894-12.144
	c0.138-4.141-0.528-8.228-1.976-12.148c-1.449-3.92-3.612-7.485-6.434-10.6C164.856,201.39,160.126,198.298,154.739,196.551
	 M150.206,251.619l-27.628-30.51l6.307-5.975c2.793-2.646,4.927-4.463,6.347-5.4c1.385-0.914,3.058-1.675,5.008-2.277
	c1.924-0.594,3.887-0.865,5.843-0.808c5.329,0.128,9.877,2.351,13.902,6.796c4.12,4.549,6.09,9.467,6.027,15.023
	c-0.033,1.681-0.283,3.327-0.737,4.895c-0.459,1.565-1.289,3.303-2.462,5.169c-1.184,1.877-3.243,4.212-6.122,6.942L150.206,251.619
	z"/>
<polygon points="199.699,214.023 191.736,200.392 213.619,187.611 207.886,177.792 186.003,190.571 178.219,177.247 200.866,164.02 
	195.156,154.239 161.891,173.668 194.791,230.004 228.785,210.149 223.074,200.372 "/>
<polygon points="285.215,121.78 272.461,150.376 247.152,131.816 236.587,134.602 253.241,197.771 265.132,194.637 253.661,151.126 
	275.108,166.945 278.291,166.105 288.945,141.871 300.405,185.337 312.34,182.189 295.684,119.021 "/>
<polygon points="328.501,169.82 327.756,154.051 353.07,152.856 352.535,141.499 327.219,142.694 326.493,127.278 352.69,126.04 
	352.159,114.728 313.675,116.545 316.752,181.711 356.074,179.854 355.542,168.543 "/>
<polygon points="373.335,169.906 374.888,154.197 400.106,156.688 401.225,145.372 376.006,142.88 377.522,127.524 403.622,130.101 
	404.737,118.831 366.399,115.042 359.986,179.965 399.161,183.837 400.272,172.567 "/>
<path d="M446.547,181.846c-1.729-6.385-3.169-10.839-4.387-13.616c-0.767-1.751-1.615-3.342-2.542-4.762
	c2.686-0.513,5.101-0.654,7.469-1.595c3.529-1.403,6.268-4.996,7.379-8.663c1.637-5.395,2.406-10.209-0.507-14.649
	c-2.845-4.336-10.938-9.287-17.279-11.327l-16.436-5.277l-18.41,60.835l11.734,3.767l7.592-25.083l0.559,0.182
	c2.43,0.781,4.159,1.636,4.899,2.378c0.865,0.874,1.785,2.186,2.733,3.904c0.976,1.767,1.974,4.1,2.935,6.808l2.844,10.567
	l0.976,2.844c0.124,0.331,0.201,0.56,0.258,0.768l1.697,5.498l13.385,3.917l-2.225-7.657
	C448.488,188.67,447.591,185.695,446.547,181.846 M438.12,151.475c-1.078,0.942-2.318,1.482-3.79,1.645
	c-1.064,0.121-3.395-0.072-8.41-1.682l-1.568-0.507l4.532-14.992l0.899,0.288c3.908,1.258,6.645,2.43,8.115,3.505
	c1.3,0.955,2.147,2.113,2.576,3.547c0.446,1.48,0.441,2.933-0.017,4.442C439.986,149.282,439.22,150.51,438.12,151.475"/>
<polygon points="503.209,228.068 534.976,171.155 524.877,165.758 502.907,205.123 491.457,147.895 483.209,143.491 
	451.444,200.403 461.47,205.759 483.242,166.747 494.587,223.459 "/>
<ellipse transform="matrix(0.7071 -0.7071 0.7071 0.7071 -261.9874 419.539)" cx="375.435" cy="526.016" rx="132.183" ry="132.183"/>
<polygon style="fill:#FFFFFF;" points="382.921,605.566 382.921,578.197 429.198,544.793 456.058,550.868 457.964,582.412 
	413.024,616.346 "/>
<polygon style="fill:#FFFFFF;" points="345.586,619.321 296.439,584.003 296.439,550.604 327.233,541.547 374.365,579.475 
	374.365,605.857 "/>
<polygon style="fill:#FFFFFF;" points="289.678,471.404 322.61,461.964 339.14,485.921 324.224,533.514 293.422,542.574 
	271.893,520.557 "/>
<polygon style="fill:#FFFFFF;" points="346.896,434.472 406.094,434.472 421.039,458.261 404.841,480.673 345.913,480.673 
	329.668,457.127 "/>
<polygon style="fill:#FFFFFF;" points="461.284,471.674 476.311,521.766 458.552,542.659 432.917,536.862 413.028,483.95 
	427.965,463.284 "/>
<path style="fill:#FFFFFF;" d="M266.266,527.038l21.618,22.11v37.035l-16.851,11.894c-13.125-18.957-21.227-41.642-22.361-66.119
	L266.266,527.038z"/>
<path style="fill:#FFFFFF;" d="M466.621,583.815l-2.112-34.953l17.277-20.325l20.362,4.47c-1.172,21.478-7.705,41.549-18.286,58.897
	L466.621,583.815z"/>
<path style="fill:#FFFFFF;" d="M477.172,450.232l-12.93,13.36l-35.336-8.896l-15.938-25.366l6.906-22.186
	C442.866,415.767,462.714,430.874,477.172,450.232z"/>
<path style="fill:#FFFFFF;" d="M329.876,407.57l10.198,21.737l-18.234,23.978l-37.028,10.613l-12.442-11.844
	C286.7,432.142,306.649,416.536,329.876,407.57z"/>
<path style="fill:#FFFFFF;" d="M343.691,648.903l5.158-21.664l30.013-14.04l30.049,10.76l7.25,22.262
	c-12.788,4.344-26.487,6.702-40.727,6.702C364.477,652.923,353.84,651.526,343.691,648.903z"/>
</svg>
