<svg xmlns="http://www.w3.org/2000/svg" width="1000" height="1000" viewBox="0 0 1000 1000"><path fill="#dedee2" d="M485.464 25.233c-.646.076-3.915.38-7.259.723s-8.475.988-11.4 1.482c-2.927.494-7.145 1.254-9.312 1.71-2.204.456-5.738 1.216-7.828 1.748s-5.853 1.558-8.361 2.28c-2.508.76-6.004 1.824-7.79 2.432-1.787.57-5.207 1.787-7.601 2.66-2.433.913-6.689 2.623-9.54 3.8-2.811 1.217-7.524 3.383-10.45 4.79-2.926 1.405-7.639 3.838-10.45 5.396a393 393 0 0 0-9.35 5.32c-2.28 1.368-6.46 4.029-9.196 5.853-2.775 1.824-6.651 4.484-8.59 5.89-1.937 1.368-5.738 4.219-8.474 6.347-2.698 2.09-7.943 6.384-11.59 9.5-3.65 3.155-11.288 10.337-16.95 16-5.663 5.624-12.617 12.921-15.43 16.151-2.85 3.23-7.638 8.97-10.679 12.731-3.002 3.763-7.22 9.16-9.31 11.971a480 480 0 0 0-6.84 9.501c-1.711 2.394-4.675 6.765-6.613 9.691s-5.359 8.323-7.601 11.971-5.397 8.893-6.955 11.591c-1.558 2.736-4.332 7.639-6.118 10.945-1.824 3.268-5.169 9.69-7.449 14.251-2.28 4.523-5.434 11.06-7.068 14.517-1.635 3.459-4.447 9.767-6.271 14.062-1.824 4.294-4.294 10.26-5.51 13.3a748 748 0 0 0-4.979 12.922c-1.52 4.066-4.066 11.249-5.624 15.961-1.597 4.713-3.763 11.363-4.827 14.821s-2.546 8.247-3.23 10.641c-.722 2.395-2.318 8.21-3.534 12.921a1113 1113 0 0 0-3.307 12.732 217 217 0 0 1-1.558 6.27c-.266 1.14-.76 3.306-1.064 4.75-.342 1.483-.988 4.637-1.52 7.031s-1.368 6.499-1.9 9.12c-.532 2.623-1.406 7.07-1.9 9.882-.532 2.812-1.33 7.182-1.748 9.69-.419 2.509-1.103 6.69-1.52 9.311a585 585 0 0 0-1.52 10.261c-.419 3.04-1.103 8.247-1.52 11.591-.419 3.344-1.103 9.311-1.559 13.301-.418 3.99-1.102 11.25-1.52 16.152s-1.102 15.695-1.52 23.942c-.57 11.4-.76 20.293-.76 36.863s.19 25.462.76 36.863c.418 8.247 1.102 19.04 1.52 23.942s1.102 12.199 1.52 16.151c.456 3.99 1.14 9.957 1.558 13.302s1.292 9.69 1.9 14.06c.608 4.41 1.292 8.931 1.482 10.072.19 1.14.722 4.218 1.14 6.84a820 820 0 0 0 1.787 9.881c.532 2.812 1.368 7.183 1.862 9.69.532 2.509 1.33 6.537 1.862 8.932.494 2.394 1.178 5.586 1.52 7.03.304 1.444 1.254 5.473 2.09 8.93.874 3.46 2.318 9.274 3.269 12.922.95 3.648 1.976 7.41 2.242 8.36s.874 3.003 1.292 4.561a714 714 0 0 0 3.344 11.021c1.368 4.484 3.572 11.439 4.903 15.391 1.33 3.99 3.192 9.35 4.142 11.971.95 2.623 2.166 5.967 2.736 7.411.532 1.482 2.242 5.815 3.762 9.69 1.559 3.877 4.333 10.642 6.233 15.012a518 518 0 0 0 5.434 12.351c1.103 2.394 4.295 8.893 7.07 14.441 2.773 5.549 6.004 11.857 7.182 14.062s3.876 6.992 5.966 10.64 5.435 9.311 7.449 12.542c1.976 3.23 5.244 8.36 7.22 11.4a419 419 0 0 0 7.601 11.211c2.204 3.155 6.157 8.513 8.779 11.972s6.536 8.474 8.779 11.21c2.204 2.737 6.422 7.677 9.348 11.021s9.501 10.3 14.632 15.43c5.13 5.13 10.983 10.755 12.959 12.503s4.218 3.686 4.94 4.332c.722.684 3.572 3.002 6.27 5.207 2.737 2.204 7.26 5.738 10.11 7.828a386 386 0 0 0 8.74 6.27c1.976 1.369 6.347 4.181 9.691 6.271 3.344 2.052 8.133 4.903 10.679 6.27a387 387 0 0 0 10.07 5.245c3.041 1.52 8.438 3.99 11.972 5.51 3.572 1.52 7.525 3.155 8.779 3.611a562 562 0 0 0 6.65 2.318c2.394.836 6.955 2.242 10.071 3.193 3.154.912 7.259 2.014 9.12 2.47 1.901.418 5.511 1.216 8.02 1.71 2.508.532 6.764 1.292 9.5 1.71a356 356 0 0 0 10.261 1.368c3.458.418 10.071.684 18.66.798 11.515.152 14.441.076 21.51-.608 4.484-.418 10.907-1.216 14.25-1.786a363 363 0 0 0 9.692-1.71c2.014-.418 5.244-1.178 7.258-1.672 1.976-.494 4.979-1.254 6.65-1.71 1.673-.456 6.043-1.825 9.692-3.003 3.686-1.216 9.158-3.192 12.199-4.408 3.002-1.216 7.904-3.268 10.83-4.636 2.927-1.33 8.133-3.915 11.592-5.7 3.458-1.787 8.854-4.79 12.009-6.69 3.116-1.862 7.752-4.788 10.26-6.46s6.461-4.37 8.741-6.005c2.318-1.634 6.955-5.168 10.3-7.828 3.381-2.66 7.98-6.499 10.298-8.475a588 588 0 0 0 6.233-5.472c1.14-1.064 5.966-5.777 10.64-10.49 4.713-4.712 10.907-11.21 13.796-14.44 2.85-3.23 7.03-8.095 9.234-10.831 2.243-2.699 5.625-6.993 7.563-9.501s5.358-7.107 7.677-10.261c2.28-3.116 6.916-9.881 10.299-15.011 3.344-5.13 8.322-12.998 10.982-17.482 2.699-4.484 6.651-11.439 8.855-15.391 2.166-3.953 6.385-12.161 9.387-18.242 3.002-6.042 7.145-14.783 9.197-19.381 2.014-4.599 4.294-9.805 5.016-11.591.722-1.787 1.9-4.675 2.622-6.46a486 486 0 0 0 3.915-10.072c1.444-3.762 3.572-9.5 4.712-12.73s3.192-9.312 4.599-13.492a708 708 0 0 0 4.18-13.301c.95-3.116 2.356-7.905 3.116-10.641s1.52-5.435 1.71-6.08c.152-.609 1.406-5.511 2.737-10.831 1.368-5.32 3.116-12.504 3.876-15.962s1.558-7.03 1.786-7.98c.19-.95 1.216-5.891 2.204-11.021 1.026-5.13 1.938-10.071 2.09-11.021s.57-3.497.989-5.7c.38-2.205 1.026-6.195 1.444-8.932.456-2.698 1.14-7.41 1.558-10.45s1.102-8.247 1.52-11.592c.418-3.344 1.14-9.31 1.558-13.3a943 943 0 0 0 1.52-16.342c.418-5.016 1.064-14.327 1.406-20.712.532-9.12.684-17.557.684-39.523 0-22.194-.152-30.365-.684-39.714-.38-6.46-1.102-16.721-1.634-22.801-.494-6.081-1.178-13.34-1.52-16.152a840 840 0 0 0-1.33-11.21c-.38-3.345-1.102-8.628-1.52-11.782a1058 1058 0 0 0-2.66-16.911c-1.027-6.157-2.623-15.05-3.573-19.762a824 824 0 0 0-2.47-12.161c-.38-1.976-1.444-6.613-2.28-10.26-.874-3.65-2.508-10.338-3.686-14.822a659 659 0 0 0-4.143-15.391 714 714 0 0 0-4.142-13.872c-1.14-3.648-2.964-9.31-4.029-12.54-1.102-3.23-3.306-9.577-4.94-14.062s-3.154-8.589-3.382-9.12c-.228-.533-1.52-3.763-2.888-7.221a1063 1063 0 0 0-3.573-8.931c-.608-1.482-2.774-6.423-4.788-11.02-2.052-4.6-6.157-13.302-9.159-19.383-3.002-6.042-7.183-14.175-9.31-18.051a3640 3640 0 0 0-5.435-9.69c-.836-1.445-2.85-4.79-4.409-7.412a433 433 0 0 0-5.738-9.31c-1.558-2.509-4.484-6.955-6.46-9.881a610 610 0 0 0-8.361-11.971c-2.66-3.649-6.65-9.045-8.97-11.971-2.28-2.926-6.156-7.715-8.588-10.641-2.47-2.926-7.182-8.323-10.527-11.971s-9.159-9.653-12.92-13.301c-3.725-3.649-8.78-8.361-11.174-10.49a824 824 0 0 0-8.36-7.182c-2.205-1.824-7.07-5.624-10.87-8.475-3.762-2.812-9.31-6.764-12.35-8.778-3.04-1.976-8.361-5.32-11.781-7.373-3.459-2.014-9.957-5.548-14.48-7.829-4.484-2.28-9.387-4.636-10.83-5.244a491 491 0 0 0-7.031-2.964c-2.432-.988-8.17-3.079-12.77-4.599-4.598-1.52-11.02-3.458-14.25-4.294-3.269-.836-7.715-1.862-9.92-2.318-2.166-.418-6.46-1.216-9.5-1.71s-9.007-1.254-13.301-1.71c-6.347-.609-10.185-.76-20.56-.723-7.03.038-13.263.152-13.871.228"/><path fill="#1b2838" d="M492.874 47.237c-.95.076-4.294.342-7.41.532-3.154.228-8.627.836-12.2 1.369-3.534.532-8.094 1.292-10.07 1.71-2.014.418-6.27 1.406-9.5 2.204-3.27.836-9.008 2.508-12.77 3.762s-9.159 3.23-11.971 4.37c-2.85 1.14-7.449 3.155-10.299 4.447-2.812 1.33-7.449 3.61-10.26 5.13-2.813 1.52-7.107 3.915-9.502 5.32-2.432 1.445-6.954 4.295-10.108 6.385-3.117 2.09-8.361 5.777-11.591 8.209-3.23 2.394-7.943 6.119-10.451 8.209-2.509 2.052-6.119 5.13-8.019 6.84-1.862 1.672-6.119 5.7-9.463 8.931-3.306 3.23-8.094 8.133-10.64 10.831-2.547 2.736-6.575 7.259-9.007 10.07a370 370 0 0 0-7.45 8.932 483 483 0 0 0-7.068 9.12c-2.166 2.927-5.852 7.981-8.132 11.211s-5.967 8.703-8.171 12.161c-2.242 3.459-5.625 8.931-7.563 12.161s-5.206 8.893-7.258 12.541a757 757 0 0 0-7.145 13.302c-1.9 3.648-5.016 9.994-6.917 14.06-1.938 4.067-3.382 7.64-3.268 7.905.114.228 1.938 3.04 4.029 6.157l3.8 5.7v531.666c5.966 11.325 8.893 16.76 10.375 19.381 1.444 2.623 4.56 7.905 6.878 11.781s6.879 11.06 10.147 15.962c3.306 4.902 7.98 11.667 10.451 15.011s6.385 8.475 8.703 11.4a621 621 0 0 0 7.98 9.692 435 435 0 0 0 8.627 9.69c2.698 2.927 6.955 7.373 9.463 9.881l4.598 4.56c0-438.1.152-565.297.304-565.297s2.66 1.406 5.587 3.154c2.926 1.786 8.17 4.712 11.629 6.537 3.458 1.824 8.779 4.484 11.895 5.928 3.078 1.444 8.057 3.648 11.02 4.864 2.965 1.255 7.487 3.04 9.996 3.953 2.508.912 7.22 2.546 10.45 3.61 3.269 1.064 8.4 2.584 11.44 3.458 3.002.837 6.232 1.71 7.106 1.9l1.634.419v584.11c10.755 3.496 15.772 5.054 18.052 5.662 2.318.646 6.498 1.672 9.349 2.28 2.812.646 7.258 1.482 9.88 1.938 2.623.418 6.917.988 9.501 1.292 2.622.304 8.551.722 13.15.95 4.598.228 10.374.266 12.844.114l4.447-.266V631.12h82.58v297.565a203 203 0 0 0 12.732-7.334l6.118-3.763-.19-305.47h-101.24v-71.066h101.24c-.038-180.439.038-199.023.456-199.365.267-.228 1.597-.874 2.965-1.482 1.33-.57 5.89-2.774 10.07-4.864 4.181-2.052 10.185-5.245 13.302-7.03 3.154-1.749 7.79-4.523 10.299-6.12 2.508-1.557 6.802-4.408 9.5-6.27 2.737-1.862 7.259-5.13 10.071-7.296 2.85-2.129 7.297-5.663 9.92-7.867l4.75-3.952.19 244.246c103.292-.19 103.596-.19 103.71-.95.076-.418.228-4.256.342-8.55.152-4.295.304-8.171.418-8.627l.152-.874h-85.583V278.259c4.789-5.32 7.98-8.969 10.185-11.591 2.166-2.622 6.157-7.639 8.817-11.211 2.66-3.534 6.384-8.779 8.246-11.59 1.9-2.813 3.725-5.625 4.105-6.271l.722-1.14c-10.945-22.08-15.733-31.315-17.634-34.774a555 555 0 0 0-7.524-12.92c-2.166-3.649-6.765-10.832-10.147-15.962-3.42-5.13-8.209-12.047-10.679-15.391-2.432-3.345-6.46-8.551-8.855-11.591-2.432-3.04-5.89-7.22-7.676-9.311a594 594 0 0 0-6.651-7.6c-1.9-2.09-6.08-6.5-9.349-9.844-3.23-3.306-8.284-8.17-11.21-10.83-2.927-2.699-7.64-6.803-10.49-9.121-2.812-2.356-7.334-5.967-10.07-8.019s-7.335-5.358-10.261-7.335c-2.927-1.976-8.095-5.244-11.44-7.258s-9.424-5.359-13.49-7.41c-4.105-2.053-9.463-4.637-12.01-5.74-2.508-1.101-7.03-2.926-10.07-4.066s-7.753-2.736-10.451-3.572c-2.736-.836-7.6-2.204-10.87-3.002-3.23-.798-7.676-1.824-9.88-2.242s-6.575-1.102-9.69-1.52c-3.155-.419-7.868-.95-10.49-1.179-2.584-.228-8.246-.456-12.54-.532-4.295-.076-8.552-.076-9.502 0"/><path fill="#fff" d="M507.24 68.101c-.038.076-2.319.228-5.055.342-2.736.152-5.814.342-6.84.418-1.064.076-2.85.228-3.99.342-1.179.114-3.041.304-4.181.456-1.178.114-2.508.228-2.964.19-.456 0-.988.228-1.14.57s-.114.722.076.836c.228.152.722.76 1.102 1.407.38.646 1.026 1.9 1.444 2.85s.988 2.204 1.292 2.85c.266.646.608 1.596.722 2.204.114.57.342 1.482.494 2.09.152.57.304 34.887.304 76.273-.038 41.385-.152 75.664-.304 76.196-.114.532-1.026 2.547-1.976 4.485-.95 1.9-1.71 3.61-1.71 3.8 0 .152-.342.684-.798 1.216-.418.532-.76 1.178-.76 1.444 0 .228-.152.456-.38.456-.19 0-.38.342-.38.76 0 .76.266.76 20.94.76 13.718 0 20.94-.114 20.94-.38 0-.19-.609-1.292-1.331-2.356-.722-1.102-1.33-2.166-1.33-2.394 0-.19-.342-1.216-.76-2.28-.38-1.026-.836-2.242-.988-2.66s-.342-.95-.38-1.14-.228-.875-.38-1.52c-.19-.609-.38-14.936-.418-31.81l-.114-30.706c18.887.076 20.217.152 22.231.836 1.255.418 2.357.912 2.395 1.102s.304.342.57.342 1.292.874 2.28 1.9c.988 1.064 1.862 1.9 1.9 1.9s.114-8.132.114-18.051c0-11.781-.152-18.052-.38-18.052s-1.178.457-2.128.989c-.912.532-1.938 1.026-2.28 1.102-.304.038-1.14.38-1.9.722-.723.342-1.749.722-2.28.874-.533.152-5.435.266-10.946.266l-9.994.038c.076-37.091.114-48.226.152-48.606.038-.418.57-1.33 1.216-2.014 1.026-1.179 1.292-1.255 3.23-1.179 1.14.038 3.154.456 4.446.95 1.33.495 2.395.76 2.395.57-.038-.151.19-.075.456.153.266.266 1.064.532 1.748.684.646.114 1.254.19 1.33.152.038-.038.418.152.836.38a6 6 0 0 0 1.71.57c.532.114 3.192.95 5.89 1.9 2.737.912 5.473 1.9 6.119 2.166.608.266 1.9.76 2.85 1.102.912.38 3.383 1.482 5.397 2.546 2.052 1.026 4.066 2.015 4.484 2.243s.76.494.76.684c0 .152.152.266.38.266.19 0 .646.228.95.494.342.228.798.646 1.064.836.266.228.988.798 1.597 1.254.646.494 1.292.874 1.444.836.152 0 .266-6.613.266-14.707l.038-14.746c-1.368-.646-2.243-1.064-2.889-1.33-.608-.266-1.444-.608-1.824-.798-.342-.19-.836-.342-1.026-.342-.228 0-.988-.266-1.71-.57s-1.938-.836-2.66-1.14-1.52-.57-1.71-.57c-.228 0-.95-.228-1.634-.532-.685-.304-4.409-1.596-8.285-2.888-3.838-1.292-7.449-2.432-7.98-2.546a5.6 5.6 0 0 1-1.597-.533c-.38-.19-.684-.266-.684-.152s-.304.038-.646-.152a8.2 8.2 0 0 0-1.634-.57c-.532-.114-1.33-.266-1.824-.38a23 23 0 0 0-1.71-.456c-.457-.114-1.027-.228-1.217-.304-.228-.038-.722-.19-1.14-.342a22 22 0 0 0-2.28-.456c-.836-.152-1.976-.342-2.47-.418a27 27 0 0 0-2.28-.342c-.76-.114-3.763-.266-6.727-.342s-5.472-.114-5.548-.038m-86.724 19.382c-.076.076-.912.266-1.862.38-.912.152-1.786.304-1.9.38-.076.076-.608.266-1.14.342a11 11 0 0 0-1.71.57c-.418.228-2.205 1.064-3.99 1.938-1.787.836-3.573 1.748-3.991 2.014-.418.228-.836.532-.95.646s-.684.456-1.292.76c-.57.304-1.406.874-1.786 1.254-.418.343-.912.647-1.102.647-.228 0-.38.152-.38.38s-.228.38-.495.38c-.266 0-.988.494-1.672 1.064-.646.57-1.558 1.292-2.014 1.596s-1.14.836-1.52 1.14-1.102.836-1.558 1.14-1.254.912-1.71 1.33a80 80 0 0 1-1.862 1.52 42 42 0 0 0-1.9 1.52 82 82 0 0 1-2.129 1.71c-.684.533-1.748 1.369-2.28 1.9a39 39 0 0 1-2.47 2.09 146 146 0 0 0-2.964 2.471c-.836.722-2.28 2.014-3.23 2.85s-2.205 1.938-2.775 2.47-2.47 2.243-4.18 3.8a160 160 0 0 0-5.549 5.245l-2.432 2.356c2.242.343 3.23.685 3.648.95.418.305 1.254 1.407 1.863 2.547.646 1.102 1.178 2.204 1.216 2.394.038.228.266 1.254.494 2.28.228 1.254.38 17.52.38 46.934 0 35.685-.114 45.452-.494 47.124-.266 1.14-.532 2.166-.532 2.28s-.19.874-.418 1.71c-.228.837-.418 1.635-.418 1.825 0 .152-.608 1.292-1.33 2.546-.76 1.254-1.33 2.356-1.33 2.47s-.457.646-.95 1.254c-.533.57-.989 1.33-.989 1.71 0 .532.456.684 2.204.836 1.216.114 17.596.228 36.445.266 18.812 0 34.621-.076 35.077-.228a50 50 0 0 0 1.635-.418c.418-.114 1.14-.266 1.596-.38.494-.114 1.482-.38 2.204-.646.722-.228 1.748-.646 2.28-.95.532-.266 1.14-.494 1.33-.494.228 0 2.09-.874 4.18-1.938 2.09-1.026 4.333-2.242 4.941-2.66.646-.38 1.406-.836 1.748-.988.304-.152.76-.456 1.026-.646.228-.228.722-.646 1.026-.874.342-.266.722-.494.874-.494s.57-.304.95-.647c.342-.38 1.293-1.178 2.09-1.824.799-.608 2.129-1.824 2.965-2.66s2.28-2.432 3.23-3.572c.95-1.102 2.09-2.622 2.584-3.306.456-.723.836-1.483.836-1.673s.114-.418.304-.456c.152-.076.95-1.482 1.787-3.154.836-1.672 1.52-3.116 1.558-3.23 0-.114.152-.456.266-.76s.418-1.254.684-2.09c.266-.837.532-1.673.608-1.9.038-.19.19-.76.304-1.217.114-.494.304-1.254.418-1.71.114-.494.304-1.634.456-2.584s.266-4.256.266-7.41c0-3.117-.114-6.461-.266-7.411s-.342-2.129-.456-2.66c-.114-.533-.304-1.369-.418-1.9-.114-.533-.266-1.103-.304-1.33-.076-.19-.418-1.33-.798-2.471-.342-1.14-.722-2.318-.836-2.546-.076-.266-.152-.57-.152-.684s-.57-1.254-1.216-2.509c-.684-1.292-1.406-2.66-1.634-3.04-.19-.418-.495-.722-.647-.722-.19 0-.304-.152-.304-.38 0-.19-.152-.608-.38-.836-.19-.266-1.064-1.33-1.9-2.394-.836-1.026-2.774-2.964-4.294-4.257-1.52-1.33-2.964-2.394-3.23-2.394s-.456-.19-.456-.38-.456-.456-.95-.57c-.533-.114-.95-.304-.95-.456 0-.19-.913-.722-2.015-1.216s-2.356-1.026-2.774-1.178c-.418-.19-1.482-.57-2.356-.912-.912-.342-1.596-.494-1.596-.342 0 .19-.266.038-.608-.266-.57-.532-.57-.608 0-.836.304-.19.57-.57.57-.874s.152-.608.342-.646c.19-.076 1.102-1.292 2.052-2.775.912-1.482 2.47-4.256 3.458-6.156.988-1.938 1.672-3.534 1.596-3.534-.114 0 .038-.418.38-.95.304-.533.418-.95.266-.95-.152.037-.076-.19.152-.457.228-.266.76-1.596 1.216-2.964s.875-2.888.989-3.42c.076-.532.266-1.368.418-1.9.114-.532.304-1.292.38-1.71.076-.419.304-1.71.494-2.85.228-1.14.342-4.751.266-7.981s-.228-6.537-.342-7.297c-.152-.798-.608-2.508-1.026-3.8-.418-1.33-1.369-3.573-2.09-5.055-.723-1.444-1.71-3.154-2.167-3.724-.456-.608-2.128-2.356-3.724-3.914-1.558-1.559-2.964-2.813-3.116-2.813s-.532-.228-.798-.494c-.266-.228-.799-.684-1.217-.95a131 131 0 0 0-3.61-1.824c-1.558-.76-3.686-1.634-4.75-1.976-1.064-.304-2.242-.608-2.66-.684s-1.293-.266-1.9-.38c-.647-.152-3.725-.304-6.88-.38-3.192-.076-5.814-.076-5.928.038"/><path fill="#1b2838" d="M416.944 118.113c-.836.19-3.04 1.14-4.94 2.053-1.863.95-4.94 2.85-6.841 4.256-1.862 1.444-5.092 4.218-7.145 6.194l-3.724 3.61c.228 31.315.228 31.543.988 31.391.418-.038 3.04-1.216 5.89-2.584 2.813-1.33 6.841-3.496 8.931-4.75 2.09-1.292 5.359-3.459 7.221-4.865 1.9-1.406 4.978-4.18 6.879-6.118 2.432-2.546 3.876-4.447 4.978-6.613.874-1.672 1.786-3.8 2.052-4.75.228-.95.456-2.812.456-4.18 0-1.369-.228-3.23-.456-4.18-.266-.95-.874-2.509-1.368-3.497-.532-1.026-1.482-2.432-2.166-3.23-.684-.76-2.09-1.787-3.116-2.28-1.33-.609-2.547-.875-4.029-.837-1.14.038-2.774.19-3.61.38"/><path fill="#fff" d="M606.2 117.923c-.076.076-.722.228-1.482.342-.722.076-1.748.266-2.28.38-.494.152-1.444.342-2.09.456-.609.114-1.559.456-2.09.723-.533.304-1.217.532-1.559.532-.304 0-.722.114-.874.304-.152.152-.418.266-.532.266-.152.038-1.786.798-3.61 1.71-1.862.95-3.687 1.9-4.105 2.09-.38.228-.722.494-.722.684 0 .152-.228.266-.494.266s-1.406.722-2.546 1.596c-1.178.874-3.724 3.23-5.7 5.245-2.015 1.976-3.99 4.104-4.409 4.712-.418.57-.912 1.254-1.14 1.52-.19.228-.912 1.254-1.596 2.242s-1.254 1.976-1.254 2.167c0 .228-.114.38-.266.38s-1.064 1.482-1.976 3.306c-.912 1.862-1.938 3.914-2.28 4.636a20 20 0 0 0-.647 1.52c0 .114-.114.494-.266.798-.114.304-.608 1.673-1.064 3.04-.418 1.369-.874 2.813-.95 3.23-.076.419-.304 1.179-.494 1.711-.228.532-.456 1.482-.532 2.09s-.228 1.33-.38 1.52c-.114.228-.304 1.216-.456 2.28-.152 1.065-.342 2.319-.418 2.85-.076.533-.266 2.167-.418 3.611-.152 1.482-.304 6.157-.304 10.451s.114 9.007.304 10.45c.152 1.483.38 3.27.494 3.991s.266 1.672.342 2.09.228 1.293.342 1.9c.114.647.304 1.52.418 2.015.114.456.266 1.216.418 1.71.114.456.228.988.304 1.216.038.228.57 1.824 1.14 3.61s1.178 3.573 1.33 3.99c.19.419.95 2.129 1.749 3.801.798 1.672 1.71 3.268 1.976 3.534.266.228.494.722.494 1.026s.19.57.38.57c.228 0 .38.266.38.57s.19.57.38.57c.228 0 .38.229.38.495 0 .228.57 1.102 1.254 1.938.684.798 2.698 2.926 4.446 4.674 1.787 1.786 3.953 3.686 4.789 4.256.836.533 1.596 1.103 1.71 1.217.076.152 2.014 1.216 4.256 2.394s4.105 2.014 4.067 1.862c0-.19.228-.114.494.114s1.444.722 2.584 1.102c1.14.342 2.28.684 2.47.76.228.038.798.19 1.33.304.532.152 1.482.342 2.09.456.647.114 1.939.342 2.85.494.95.114 4.295.228 7.45.228 3.116 0 6.536-.114 7.6-.266a36 36 0 0 0 2.47-.456c.304-.114.988-.266 1.52-.418.532-.114 1.102-.228 1.33-.304.19-.038 1.407-.418 2.66-.798 1.255-.38 2.547-.798 2.85-.95.305-.152 1.331-.646 2.281-1.102.95-.418 2.052-1.026 2.47-1.254.418-.266 1.444-.95 2.28-1.482.837-.57 2.357-1.749 3.383-2.66l1.862-1.673c-.722-2.356-1.026-3.306-1.14-3.61s-.228-.646-.266-.76-.266-.874-.57-1.71c-.266-.836-.912-2.432-1.406-3.497-.494-1.102-.912-2.204-.912-2.394s-.19-.836-.418-1.406c-.266-.608-.494-1.254-.532-1.444s-.457-1.178-.875-2.166c-.456-1.026-.836-2.052-.836-2.28.038-.266-.152-.646-.342-.874-.19-.19-.494-.95-.646-1.673-.19-.722-.532-1.368-.798-1.444-.266-.038-.722.114-.988.38-.266.228-.988.798-1.596 1.216-.608.456-2.508 1.445-4.18 2.243-1.673.76-3.345 1.596-3.725 1.786-.342.19-1.292.456-2.09.57-.76.114-1.672.38-1.976.532s-2.736.266-5.32.228c-2.623-.038-5.207-.19-5.739-.342-.494-.152-1.292-.38-1.71-.532-.418-.114-1.938-.912-3.42-1.748-1.445-.836-3.535-2.395-4.599-3.459-1.026-1.064-2.584-3.116-3.42-4.598s-1.71-3.078-1.976-3.61c-.228-.532-.722-1.976-1.102-3.23a222 222 0 0 1-.76-2.85c-.076-.305-.228-1.255-.342-2.091s-.266-1.596-.342-1.71-.266-1.976-.457-4.18c-.152-2.205-.266-4.485-.266-5.131 0-.608.114-3.002.266-5.32.153-2.28.343-4.599.419-5.13.076-.533.266-1.635.418-2.471s.266-1.786.266-2.09.228-.798.456-1.064.304-.57.114-.646c-.152-.114-.038-.76.266-1.445.304-.646.646-1.748.76-2.356s.456-1.672.76-2.28.836-1.862 1.254-2.774c.38-.874.798-1.596.988-1.596.152 0 .266-.152.266-.38s.912-1.52 2.014-2.889c1.102-1.406 2.66-3.078 3.496-3.724.837-.646 1.635-1.254 1.71-1.368.115-.114 1.33-.76 2.66-1.444 1.369-.684 2.927-1.33 3.421-1.444a46 46 0 0 1 2.318-.418c.722-.114 2.243-.228 3.42-.228 1.14 0 2.547.076 3.079.152.57.076 1.178.304 1.33.456.19.152.608.266.912.266s1.71.608 3.116 1.33c1.444.722 2.85 1.558 3.193 1.824.342.228 1.33 1.178 2.204 2.09.836.874 1.71 1.634 1.862 1.596.152 0 .646-.646 1.14-1.406.456-.798 1.406-2.47 2.09-3.724a95 95 0 0 0 2.204-4.37c.57-1.14 1.14-2.167 1.293-2.28.19-.115.798-1.14 1.33-2.28.57-1.14 1.596-3.193 2.318-4.561.912-1.824 1.178-2.66.912-3.116-.19-.38-.76-1.14-1.216-1.71s-1.216-1.369-1.634-1.787c-.418-.456-1.368-1.292-2.09-1.862-.723-.57-1.825-1.482-2.47-1.976-.609-.532-2.509-1.596-4.181-2.432s-4.37-1.938-6.005-2.47c-1.596-.533-3.572-1.103-4.37-1.217-.76-.114-3.762-.266-6.613-.342-2.85-.076-5.244-.076-5.32.038"/><path fill="#1b2838" d="M421.694 182.87c-1.33.267-3.838.951-5.51 1.521-1.672.532-4.675 1.786-6.65 2.698-1.977.95-5.245 2.812-7.221 4.143s-4.333 3.002-5.245 3.762l-1.596 1.368v25.842c7.487.152 12.617.076 16.151-.076 3.573-.114 8.285-.532 10.451-.874 2.205-.342 5.397-.95 7.069-1.368s3.914-1.102 5.016-1.52c1.103-.38 3.079-1.254 4.409-1.9 1.482-.76 3.344-2.204 5.054-3.915 2.28-2.318 2.812-3.078 3.497-5.244.456-1.444.836-3.42.836-4.484 0-1.027-.266-3.155-.608-4.637-.304-1.52-1.217-4.066-1.939-5.624-.95-1.976-2.09-3.573-3.686-5.169-1.33-1.33-3.192-2.698-4.408-3.268-1.14-.532-3.003-1.178-4.105-1.406s-3.572-.418-5.51-.38c-1.938 0-4.637.266-6.005.532"/><path fill="#9f1f33" d="M264.247 241.32c-1.14 2.546-3.534 8.247-5.396 12.617-1.825 4.408-4.713 11.743-6.461 16.341-1.71 4.599-4.902 13.681-7.069 20.142-2.166 6.46-5.206 16.227-6.764 21.662-1.596 5.434-3.725 13.225-4.789 17.291s-2.774 11.173-3.838 15.772c-1.064 4.598-3.04 13.833-4.37 20.521s-3.193 17.026-4.143 22.992-2.242 14.784-2.888 19.572c-.608 4.826-1.558 12.77-2.09 17.672-.494 4.902-1.368 14.745-1.862 21.851-.532 7.107-1.026 14.822-1.14 17.102-.114 2.318-.418 11.097-.646 19.572-.342 11.59-.342 19.23 0 30.972.228 8.589.532 17.368.646 19.572s.456 7.676.76 12.16c.304 4.485.798 11.174 1.102 14.822.342 3.648.836 9.12 1.178 12.161.304 3.04.912 8.323 1.33 11.781s1.178 9.273 1.672 12.921c.532 3.649 1.634 10.831 2.508 15.962.836 5.13 2.509 14.365 3.763 20.521a818 818 0 0 0 3.99 18.812c.95 4.18 2.698 11.21 3.8 15.581 1.14 4.409 3.193 11.82 4.523 16.532 1.368 4.712 3.686 12.389 5.206 17.101 1.482 4.713 4.067 12.313 5.7 16.912 1.635 4.598 4.219 11.515 5.701 15.39 1.482 3.877 4.066 10.186 5.7 14.062a589 589 0 0 0 6.005 13.681 681 681 0 0 0 5.473 11.591l2.432 4.94.19-531.095c-6.005-8.968-7.829-11.705-7.943-11.857-.152-.152-1.178 1.787-2.28 4.37"/><path fill="#fff" d="M732.105 239.116c-.57.95-1.064 1.9-1.064 2.09a.38.38 0 0 1-.38.38c-.19 0-.38.266-.38.57s-.152.57-.38.57c-.19 0-.38.228-.342.494 0 .228-.343.836-.76 1.33-.457.456-.799 1.026-.799 1.216 0 .228-.114.38-.266.38s-.798.836-1.444 1.9c-.608 1.027-1.254 1.9-1.406 1.9s-.304.19-.304.38-.19.609-.456.913c-.266.266-.76.912-1.064 1.368s-.95 1.292-1.444 1.824c-.456.57-1.33 1.71-1.9 2.546s-1.482 2.052-2.052 2.66c-.609.608-1.065 1.217-1.065 1.33.038.115-.38.647-.836 1.179-.494.57-1.292 1.558-1.824 2.204-.532.684-1.292 1.634-1.71 2.09-.418.494-1.254 1.482-1.862 2.166-.57.722-1.786 2.128-2.66 3.116a138 138 0 0 1-3.763 4.18l-2.204 2.357.038 243.79c76.31 0 85.28-.113 85.47-.455.151-.266.227-9.73.227-21.016 0-11.287-.19-24.778-.456-30.023-.228-5.206-.494-10.793-.608-12.35-.114-1.559-.456-6.537-.76-11.022-.342-4.484-.912-11.667-1.33-15.961s-1.292-11.971-1.9-17.101c-.646-5.13-1.748-13.34-2.47-18.242s-2.014-12.77-2.85-17.481c-.875-4.713-2.243-11.972-3.079-16.152-.874-4.18-2.318-10.945-3.268-15.011-.912-4.066-2.394-10.147-3.23-13.491a667 667 0 0 0-3.23-12.351 765 765 0 0 0-4.333-15.012c-1.444-4.788-4.066-12.997-5.814-18.241-1.787-5.207-4.37-12.58-5.777-16.342-1.406-3.762-3.876-10.184-5.548-14.25-1.634-4.067-4.105-9.958-5.51-13.112-1.369-3.116-2.585-6.004-2.661-6.346-.114-.38-.456-.684-.836-.684s-1.14.76-1.71 1.71"/><path fill="#dedee2" d="M360.281 247.134c-.19.152-.304.494-.266.798.038.342.57.456 1.672.418 1.33-.038 1.406-.076.38-.19-.76-.076-1.292-.342-1.33-.722-.076-.342-.266-.494-.456-.304m54.573 1.558c2.014.076 5.32.076 7.41 0 2.129-.038.494-.114-3.61-.114-4.066 0-5.776.076-3.8.114"/><path fill="#fff" d="M515.714 262.982c-.114.114-.912.342-1.748.456-.836.152-2.432.722-3.61 1.292-1.14.57-2.584 1.33-3.23 1.748-.608.418-2.09 1.71-3.23 2.888-1.14 1.216-2.47 2.66-2.927 3.269-.494.57-.874 1.292-.874 1.558 0 .228-.114.456-.304.456-.152 0-.798 1.14-1.482 2.546-.684 1.444-1.482 3.344-1.824 4.294s-.684 2.052-.76 2.47-.266 1.179-.38 1.71a52 52 0 0 0-.418 2.28c-.152.723-.304 1.863-.38 2.471-.076.646-.152 2.774-.19 4.75 0 1.977.076 4.485.19 5.51.152 1.065.304 2.32.38 2.851s.266 1.368.418 1.9c.114.532.304 1.368.418 1.9.114.533.266 1.027.342 1.14.076.115.266.609.38 1.14.114.533.874 2.319 1.71 3.991s1.748 3.382 2.014 3.762c.228.418.646.988.836 1.292.228.304 1.71 1.9 3.344 3.535 1.597 1.672 3.193 3.002 3.497 3.002.342 0 .57.114.57.304 0 .152.532.532 1.216.836.722.304 1.444.57 1.634.608.228.038 1.178.304 2.09.608.95.304 2.85.494 4.219.456 1.33-.038 3.04-.19 3.8-.342.722-.114 2.584-.874 4.142-1.634 1.748-.874 3.686-2.242 5.13-3.686 1.293-1.254 2.889-3.079 3.573-4.067.684-1.026 1.216-1.976 1.216-2.204 0-.19.152-.38.304-.38.152.038.494-.494.76-1.14.266-.608.456-1.216.456-1.33s.304-.76.646-1.406c.342-.684.722-1.52.874-1.824s.38-1.14.532-1.786c.114-.685.266-1.369.266-1.52.038-.19.19-.57.38-.875.152-.304.418-1.596.57-2.85.19-1.254.304-4.598.304-7.41s-.114-5.815-.228-6.651c-.152-.836-.38-2.128-.532-2.85-.114-.722-.38-1.634-.57-2.015-.19-.342-.228-.646-.152-.646.114 0-.114-.912-.494-1.976-.38-1.102-.988-2.47-1.33-3.078-.342-.57-.494-1.026-.342-1.026.152.038.076-.19-.19-.456-.228-.266-.836-1.216-1.33-2.09a23 23 0 0 0-1.824-2.85 36 36 0 0 0-2.47-2.775c-.836-.836-1.939-1.824-2.395-2.166-.456-.38-1.026-.684-1.216-.684-.228 0-.38-.114-.38-.266 0-.19-.646-.608-1.406-.988-.798-.38-1.52-.646-1.634-.646-.114.038-.722-.152-1.33-.38-.646-.266-1.482-.532-1.9-.608-.418-.114-1.71-.304-2.85-.418-1.179-.114-2.205-.114-2.28 0m54.003.38c-.114.114-1.026.266-2.09.38a35 35 0 0 0-2.85.456c-.533.114-1.369.304-1.9.418-.533.114-1.14.342-1.33.456-.229.152-.457.266-.57.266-.115 0-.95.342-1.825.76-.912.418-1.634.874-1.596 1.064 0 .152-.228.266-.494.266s-1.254.798-2.204 1.824c-.95.988-2.053 2.318-2.47 2.926-.419.647-1.179 2.243-1.71 3.61-.76 2.091-.913 3.155-.913 6.841 0 2.395.114 4.713.228 5.13.114.419.418 1.52.722 2.471.266.95.722 1.976.988 2.28s.494.684.494.874c.038.152.228.532.494.874.267.342 1.027 1.178 1.673 1.825.646.646 1.482 1.406 1.824 1.672.342.228 1.14.798 1.824 1.216.684.38 2.432 1.102 3.914 1.558s2.927.912 3.23.988c.305.076 1.255.228 2.09.38.837.152 2.433.228 3.535.19 1.558-.076 1.976.038 1.976.494 0 .304-.19.95-.418 1.406-.228.494-.532.95-.684 1.064-.114.114-.532.646-.874 1.254-.38.57-1.52 1.444-2.584 1.977-1.026.532-2.622 1.216-3.496 1.482-1.14.418-2.889.532-5.815.456-2.318-.076-4.56-.266-5.054-.38-.836-.228-.836-.19-.874 4.066v4.256c3.116 1.026 4.788 1.445 5.738 1.597.95.114 2.812.228 4.18.228s3.079-.114 3.8-.228c.723-.152 1.749-.343 2.28-.457.533-.114 1.407-.304 1.901-.418.532-.114 1.558-.456 2.28-.798a39 39 0 0 0 2.47-1.102c.646-.304 1.52-.76 1.939-1.026a37 37 0 0 0 1.9-1.216c.608-.418 2.318-1.976 3.762-3.458 1.482-1.482 2.85-2.964 3.078-3.268.19-.305.57-.875.836-1.293.228-.38.95-1.786 1.597-3.078.646-1.33 1.178-2.508 1.216-2.66 0-.19.152-.494.342-.684s.418-.798.532-1.33.304-1.368.418-1.9a31 31 0 0 0 .57-2.47c.19-.837.266-3.725.228-6.461-.076-2.698-.266-5.549-.38-6.27-.152-.723-.38-1.597-.494-1.9-.114-.305-.304-.837-.342-1.141-.076-.304-.76-1.862-1.558-3.42q-1.426-2.85-3.763-5.13c-1.292-1.255-2.622-2.509-2.964-2.737-.342-.266-.722-.494-.798-.494-.114 0-.684-.342-1.254-.76-.57-.456-1.292-.836-1.596-.874a6 6 0 0 1-1.444-.57c-.456-.266-.874-.38-.874-.266s-.457 0-1.027-.228-1.406-.494-1.824-.57-1.444-.228-2.28-.38c-.836-.114-1.596-.152-1.71-.038m-113.06.874c-.076.076-.38.228-.684.266-.342.076-1.52.418-2.698.76-1.14.342-2.888 1.14-3.876 1.786-.988.608-2.813 2.128-4.067 3.344-1.216 1.178-2.584 2.775-3.04 3.497-.418.722-.988 1.748-1.216 2.28-.266.532-.646 1.444-.95 2.09-.266.608-.608 1.9-.76 2.85s-.266 3.078-.266 4.75.076 3.649.228 4.371c.114.722.304 1.786.418 2.356.114.608.418 1.52.684 2.128.228.57.494 1.292.532 1.597.076.304.608 1.254 1.178 2.09s1.824 2.28 2.774 3.23 2.737 2.242 3.99 2.85c1.977.988 2.737 1.102 5.55 1.102 1.747 0 4.255-.114 5.51-.266 1.254-.19 2.356-.38 2.47-.456s.646-.228 1.216-.342l2.09-.418a14 14 0 0 0 1.52-.38c.304-.114.494.114.494.57 0 .418-.304 1.862-.684 3.23-.342 1.369-.76 2.47-.95 2.47-.152 0-.266.19-.266.38 0 .229-.38.76-.874 1.217-.456.494-1.558 1.216-2.356 1.596-.836.418-1.786.798-2.09.874-.342.076-1.787.152-3.23.152-1.483 0-3.079-.114-3.535-.228a40 40 0 0 0-1.52-.342c-.38-.076-1.938-.608-3.534-1.178-1.558-.57-3.497-1.368-4.257-1.748-.798-.418-1.596-.722-1.824-.722s-.38 1.862-.38 4.864c-.038 3.496.114 4.94.456 5.283.266.228 1.786 1.102 3.344 1.938 1.597.798 3.459 1.672 4.18 1.9.76.266 1.787.57 2.281.684a71 71 0 0 0 2.128.418c.608.114 2.736.228 4.75.228 1.977.038 4.029-.076 4.56-.19.533-.114 1.407-.418 1.977-.646.608-.228 1.064-.342 1.064-.228s1.064-.38 2.394-1.026c1.293-.684 2.585-1.482 2.85-1.71.305-.266.647-.494.76-.494.153 0 1.065-.798 2.053-1.787.988-1.026 2.204-2.28 2.698-2.85.456-.57 1.558-2.432 2.394-4.18.874-1.748 1.786-3.838 2.052-4.675.267-.836.57-1.862.647-2.28.038-.418.228-1.444.38-2.28s.304-4.256.304-7.6c0-3.345-.114-6.841-.266-7.791s-.38-2.204-.494-2.85c-.114-.609-.76-2.66-1.407-4.56-.608-1.863-1.406-3.991-1.748-4.675s-.76-1.216-.912-1.216-.304-.266-.304-.57-.152-.57-.38-.57c-.19 0-.38-.228-.342-.494 0-.229-1.064-1.52-2.394-2.85-1.33-1.293-2.622-2.357-2.85-2.357-.266 0-.494-.114-.494-.266.038-.19-.95-.76-2.167-1.33s-2.736-1.14-3.344-1.292c-.646-.152-3.04-.304-5.396-.38-2.319-.038-4.295-.038-4.37.076m-41.537 2.166c-.532.874-1.444 2.014-2.014 2.546-.608.532-2.053 1.368-3.193 1.862s-2.432.95-2.85 1.026-1.216.228-1.824.342l-1.026.19v7.981c4.56-.266 6.232-.418 6.65-.532.418-.076.95-.19 1.217-.19.228-.038.722-.304 1.026-.608.57-.532.608 1.026.608 16.911v17.482c1.938.836 3.686 1.52 5.13 2.09 1.482.57 3.002 1.14 3.42 1.33a20 20 0 0 1 1.825.722l2.09.836c.57.228 1.368.57 1.71.76.38.19.76.342.874.342.076 0 .19-12.047.19-26.792 0-17.481-.152-26.868-.38-26.982s-1.9-.266-3.724-.38-4.56-.266-6.08-.38l-2.737-.152z"/><path fill="#dedee2" d="m403.909 276.283.076 4.256c.228-7.6.304-8.209.874-8.323.494-.114.418-.152-.19-.19-.836-.038-.836.038-.76 4.257"/><path fill="#1b2838" d="M458.253 275.523c-.76.266-1.9.874-2.584 1.33-.76.494-1.634 1.71-2.242 3.04-.912 1.976-.988 2.508-.874 5.625.152 3.002.304 3.686 1.33 5.32.798 1.292 1.672 2.128 2.85 2.736.95.494 2.395.836 3.307.836s2.166-.228 2.85-.494c.684-.304 1.9-1.102 2.698-1.824s1.824-2.052 2.242-3.002c.57-1.178.798-2.394.76-3.99 0-1.33-.38-3.23-.912-4.56-.456-1.255-1.368-2.775-2.014-3.421-.646-.608-1.824-1.368-2.66-1.596-.836-.266-1.976-.494-2.47-.456-.532 0-1.558.19-2.28.456m109.754.418c-1.14.57-2.318 1.52-2.926 2.394-.57.798-1.217 2.204-1.445 3.154-.266.95-.342 2.356-.228 3.155.114.76.57 2.052.95 2.85.419.76 1.217 1.862 1.825 2.432.57.57 1.558 1.216 2.128 1.406.57.228 1.824.418 2.736.418.95 0 2.204-.228 2.774-.532.57-.266 1.558-1.102 2.204-1.786.647-.722 1.483-2.128 1.863-3.192.532-1.406.646-2.395.456-3.8-.152-1.027-.684-2.623-1.216-3.497-.494-.912-1.559-2.052-2.357-2.584-.798-.494-2.204-1.026-3.154-1.14-1.33-.19-2.09-.038-3.61.722m-54.307 1.748c-1.14.722-2.318 1.938-3.23 3.344-.76 1.178-1.824 3.459-2.356 5.017-.874 2.584-.95 3.42-.95 9.12 0 5.89.038 6.461 1.064 9.311.57 1.672 1.71 3.99 2.47 5.093.76 1.178 2.128 2.546 3.078 3.154 1.216.76 2.242 1.064 3.344 1.064.875 0 2.243-.304 3.04-.722.799-.38 1.977-1.33 2.66-2.09.685-.76 1.75-2.356 2.357-3.535.608-1.216 1.406-3.306 1.786-4.674.494-1.824.684-3.838.684-7.6 0-3.725-.19-5.815-.684-7.601-.38-1.368-1.216-3.573-1.862-4.903-.684-1.33-1.938-3.078-2.85-3.876-.874-.836-2.052-1.634-2.546-1.862-.532-.19-1.71-.38-2.585-.38-1.14 0-2.166.342-3.42 1.14"/><path fill="#9f1f33" d="M677.76 300.68c-2.584 2.243-7.03 5.815-9.88 7.944-2.813 2.166-7.335 5.434-10.072 7.296-2.698 1.862-6.992 4.713-9.5 6.27-2.509 1.597-7.145 4.371-10.3 6.12-3.116 1.785-9.12 4.978-13.3 7.03-4.18 2.09-8.741 4.294-10.071 4.864-1.368.608-2.698 1.254-2.965 1.482-.418.342-.494 18.926-.494 99.91l.038 99.455h-101.24v71.066h101.24c0 274.46.076 305.128.456 305.014.267-.076 2.28-1.368 4.485-2.888a380 380 0 0 0 7.03-5.092 277 277 0 0 0 7.601-5.967c2.508-2.014 6.803-5.586 9.539-7.98 2.698-2.357 8.703-8.057 13.301-12.694 4.636-4.598 10.945-11.249 14.061-14.82 3.117-3.535 7.753-9.122 10.337-12.352l4.713-5.89v-237.33l95.844.19c.608-3.535 1.292-8.133 1.9-12.542a684 684 0 0 0 1.9-14.25c.456-3.46 1.216-10.642 1.748-15.962.494-5.32 1.216-13.225 1.52-17.558.304-4.37.57-8.588.57-9.425v-1.52H682.74l-.266-244.398z"/><path fill="#dedee2" d="M442.026 314.742c0 2.736.076 3.762.152 2.28.038-1.444.038-3.686 0-4.94-.076-1.254-.152-.038-.152 2.66"/><path fill="#9f1f33" d="M351.692 605.2v282.63c7.487 6.765 11.895 10.604 14.632 12.884 2.736 2.318 7.524 6.08 10.679 8.399 3.154 2.356 7.334 5.358 9.31 6.726 2.015 1.368 5.7 3.763 8.209 5.32 2.508 1.597 6.689 4.067 9.31 5.511a246 246 0 0 0 10.072 5.32c2.926 1.483 7.98 3.8 11.249 5.169 3.23 1.368 6.27 2.584 6.726 2.698l.874.228v-583.73c-2.508-.607-5.738-1.481-8.74-2.318-3.04-.874-8.171-2.394-11.44-3.458a442 442 0 0 1-10.45-3.61c-2.509-.912-7.03-2.698-9.995-3.953-2.964-1.216-7.943-3.42-11.021-4.864-3.116-1.444-8.437-4.104-11.895-5.928-3.458-1.825-8.703-4.75-11.63-6.537-2.925-1.748-5.434-3.154-5.586-3.154s-.304 127.197-.304 282.668"/><path fill="#dedee2" d="M591.683 349.439c.38.19.494 18.812.57 86.343l.114 86.078c.19-168.393.152-172.725-.494-172.725-.456 0-.494.114-.19.304"/><path fill="#fff" d="M590.999 349.667c-.076.114-.722.266-1.406.38a12.7 12.7 0 0 0-2.09.57c-.457.19-.989.342-1.14.38-.153 0-1.179.38-2.28.798-1.103.418-2.585.874-3.307.988-.76.114-1.558.418-1.824.646-.304.266-.494.342-.494.19 0-.19-.456-.114-1.026.114s-1.33.494-1.71.57-.95.228-1.33.304-1.445.38-2.395.647c-.912.266-1.862.532-2.09.57-.19.076-.798.228-1.33.342s-1.368.304-1.9.418-1.634.38-2.47.57-1.863.418-2.28.532a21 21 0 0 0-1.71.38c-.533.114-1.293.304-1.711.38a68 68 0 0 0-1.71.342c-.532.152-1.634.342-2.47.418-.836.114-1.787.304-2.09.38-.343.114-1.027.266-1.52.38-.533.114-1.559.304-2.28.418-.76.114-1.787.266-2.32.342-.493.076-1.633.266-2.47.38-.835.114-1.937.304-2.47.38-.494.076-1.634.266-2.47.38s-2.356.304-3.42.418c-1.026.114-2.318.266-2.85.304-.532.076-2.052.228-3.42.38-1.369.114-3.497.304-4.75.418-1.255.114-3.573.304-5.131.456-1.597.114-4.067.266-5.549.304-1.444.038-2.85.076-3.116.114-.38.076-.494 16.152-.494 78.933v78.857h82.2c0-157.904-.075-172.535-.493-172.535-.304 0-.608.076-.684.152"/><path fill="#1b2838" d="m682.739 730.801-.038 118.647c3.762-5.017 6.042-8.095 7.448-10.071 1.444-1.976 4.637-6.613 7.145-10.261l4.484-6.65V631.118l73.574-.19c.722-4.104 1.445-8.247 2.053-11.781.646-3.534 1.064-6.575.988-6.727-.076-.19-21.624-.304-47.922-.304h-47.732z"/><path fill="#fff" d="M509.976 791.873v160.753c4.294-.342 7.258-.608 9.349-.798 2.09-.228 5.51-.646 7.6-.95s5.587-.912 7.791-1.33 5.89-1.178 8.17-1.71c2.319-.532 6.765-1.71 9.92-2.622 3.116-.912 8.36-2.623 11.59-3.8 3.23-1.179 8.285-3.155 11.211-4.447 2.965-1.254 7.867-3.572 10.945-5.092l5.625-2.813V631.12h-82.201Zm191.802-65.556c0 63.2.114 95.198.38 95.198.19 0 .684-.57 1.064-1.216.418-.684 2.128-3.572 3.877-6.384a657 657 0 0 0 6.84-11.591c2.052-3.535 5.625-10.147 8.019-14.632 2.356-4.484 5.092-9.88 6.08-11.97s2.775-5.853 3.953-8.361c1.216-2.509 3.99-8.741 6.194-13.872 2.204-5.13 4.94-11.705 6.08-14.63 1.14-2.927 3.193-8.324 4.561-11.972s3.496-9.653 4.75-13.301c1.217-3.648 3.383-10.26 4.751-14.631 1.33-4.37 3.496-11.553 4.75-15.962 1.216-4.37 3.269-12.009 4.485-16.911s2.85-11.667 3.61-15.011c.722-3.345 1.976-9.083 2.698-12.731.722-3.649 1.33-6.765 1.33-6.917 0-.19-16.531-.304-36.71-.304h-36.712z"/></svg>