<svg xmlns="http://www.w3.org/2000/svg" width="1000" height="1000" viewBox="0 0 1000 1000"><path fill="#a39161" d="M25 500.015C25 237.675 237.654 25 500.012 25 762.339 25 975 237.674 975 500.015 975 762.325 762.34 975 500.012 975 237.654 975 25 762.326 25 500.015"/><path d="M76.646 500.023c0-233.847 189.553-423.377 423.366-423.377 233.797 0 423.344 189.53 423.344 423.377 0 233.818-189.547 423.333-423.344 423.333-233.813 0-423.366-189.517-423.366-423.333"/><path fill="#fff" d="M107.625 500.015c0 108.334 43.913 206.42 114.92 277.43 71.006 71.007 169.1 114.932 277.46 114.932 108.349 0 206.439-43.925 277.449-114.932 71.005-71.01 114.925-169.096 114.925-277.43 0-108.35-43.92-206.447-114.925-277.457-71.01-71.012-169.1-114.933-277.449-114.933-108.36 0-206.454 43.921-277.46 114.933-71.007 71.01-114.92 169.107-114.92 277.457"/><path d="M210.74 500.007c0-159.777 129.485-289.267 289.257-289.267 159.749 0 289.263 129.49 289.263 289.267 0 159.747-129.514 289.253-289.263 289.253-159.772 0-289.257-129.506-289.257-289.253"/><path fill="#fff" d="M237.031 500.017c0-145.253 117.725-262.986 262.984-262.986 145.214 0 262.954 117.731 262.954 262.986 0 145.22-117.74 262.952-262.954 262.952-145.26 0-262.984-117.731-262.984-262.952"/><path d="M265.632 500.017c0-129.462 104.93-234.387 234.371-234.387 129.429 0 234.367 104.925 234.367 234.387 0 129.43-104.938 234.353-234.367 234.353-129.441 0-234.371-104.923-234.371-234.353"/><path fill="#a39161" d="M363.02 625.15v-57.49h-24.876v-36.1l24.876.042V493.29s.088-53.94 60.789-53.94c60.649 0 61.412 54.047 61.412 54.047v38.394l23.938.052a110.5 110.5 0 0 1-2.954-25.416c0-12.303 2.016-24.093 5.677-35.004l-80.744-54.273s-17.766-17.138-6.245-43.508c11.506-26.37 34.673-26.829 34.673-26.829h105.76v34.222H464.048s-4.258-1.208-7.729 4.487c-4.476 7.363 3.246 12.4 3.246 12.4l67.883 43.932c16.842-22.2 42.163-36.34 70.534-36.34 15.007 0 29.2 3.966 41.717 11.025l-17.262 29.383c-7.468-3.667-15.736-5.715-24.455-5.715-16.654 0-31.72 7.439-42.6 19.44 7.728 4.068 36.37 21.29 36.37 53.56 0 30.17-13.407 43.612-25.3 49.604 9.186 6.215 19.958 9.797 31.53 9.797 18.362 0 34.789-9.034 45.831-23.282l26.792 18.762c-16.785 23.852-43.08 39.238-72.622 39.238-29.738 0-56.166-15.569-72.933-39.668h-39.828v57.536h-35v-57.536h-52.098v57.536zm179.268-93.531c2.803-1.093 12.913-5.919 12.913-18.41 0-14.476-10.642-19.812-10.642-19.812l-4.933-3.325a72.5 72.5 0 0 0-1.85 16.356c.002 8.908 1.61 17.438 4.512 25.19m-92.067.114v-32.134s-.568-23.705-26.412-23.705c-25.889 0-25.686 23.705-25.686 23.705v32.062z"/><path d="M345.48 216.996c4.368 6.717 4.898 13.427 1.624 20.13q-4.967 10.044-19.33 19.369c-5.474 3.558-10.278 6.287-14.375 8.194-4.112 1.922-7.656 3.266-10.641 4.038l-7.097-10.91c2.561-.268 6.158-1.31 10.808-3.128 4.62-1.85 8.915-4.07 12.875-6.647 5.574-3.624 9.025-6.724 10.306-9.302 1.309-2.613 1.04-5.343-.808-8.203-1.208-1.848-3.028-2.99-5.473-3.442-2.424-.445-7.956.466-16.573 2.716-6.885 1.752-12.832 2.175-17.825 1.235-5.029-.952-9.185-3.993-12.496-9.075-3.174-4.876-3.349-10.61-.56-17.204 2.817-6.615 8.64-12.772 17.44-18.494q6.387-4.158 12.075-6.572c3.784-1.674 6.514-2.73 8.18-3.181l6.274 9.66a260 260 0 0 0-9.629 4.038c-3.145 1.42-6.333 3.167-9.557 5.263q-6.855 4.453-8.735 8.184c-1.252 2.476-1.309 4.61-.159 6.363 1.455 2.25 3.305 3.443 5.576 3.624 2.249.161 7.794-1.025 16.601-3.565 8.203-2.382 14.789-2.905 19.754-1.594 4.976 1.269 8.892 4.107 11.746 8.503M393.03 170.147l-2.359-6.857c-.938-2.729-2.533-4.416-4.795-5.087-2.271-.668-5.489-.284-9.645 1.15l-6.025 2.074 7.679 22.307 7.053-2.422q4.53-1.574 6.943-4.564c1.591-1.994 1.977-4.208 1.148-6.601m19.418-7.838c2.09 6.049 1.449 11.398-1.922 16.004-3.37 4.592-9.243 8.335-17.62 11.208l-11.652 4.01 9.985 28.988-19.33 6.654-24.601-71.455 32.169-11.08c9.2-3.173 16.244-3.514 21.121-1.025 4.922 2.446 8.218 6.128 9.913 11.04zM500.44 202.009l-57.417 5.028-6.587-75.305 54.95-4.795.99 11.222-34.6 3.03 1.762 20.203 26.885-2.351 1.004 11.376-26.892 2.35 1.863 21.26 37.053-3.24zM571.12 211.029l-61.902-8.706 1.427-10.16 46.988-47.97-37.743-5.305 1.562-11.164 60.176 8.465-1.382 9.91-47.149 48.204 39.588 5.56zM606.017 223.684l-19.324-6.645 24.603-71.47 19.329 6.66zM678.26 229.005l5.248-29.497-23.596 18.033zm11.675 41.557-17.738-11.092 3.945-18.907-25.378-15.868-15.417 11.747-14.127-8.82 65.954-47.903 16.159 10.088zM374.23 859.83l-17.338-6.652 20.62-53.733-11.835-4.54 3.26-8.517c5.502 1.689 10.044 2.06 13.667 1.121 3.626-.925 6.071-1.804 7.322-2.613l11.383 4.38zM469.822 829.766c.67-5.502-.06-9.57-2.193-12.22-2.087-2.686-5.261-4.281-9.526-4.803-4.128-.509-7.542.269-10.212 2.328-2.679 2.024-4.352 5.824-5.035 11.385-.657 5.304.058 9.359 2.146 12.182 2.075 2.766 5.19 4.411 9.317 4.928 3.67.453 6.995-.384 10-2.518 3.013-2.15 4.846-5.906 5.503-11.282m18.486 11.76c-2.284 12.263-7.11 21.716-14.505 28.348-7.35 6.636-17.169 9.184-29.47 7.677-3.174-.384-5.96-.91-8.349-1.578a296 296 0 0 1-6.499-1.806l1.595-12.924a169 169 0 0 0 7.59 2.298c2.46.643 4.869 1.101 7.212 1.383 5.764.715 10.386-.282 13.879-2.982 3.471-2.708 5.663-6.689 6.558-11.966q-2.064 2.325-7.605 3.713c-3.713.925-7.112 1.193-10.227.822-9.258-1.151-16.187-4.265-20.758-9.382-4.548-5.123-6.31-11.82-5.298-20.073 1.062-8.545 4.775-14.993 11.165-19.366 6.396-4.367 14.76-5.916 25.102-4.639 11.05 1.365 19.004 4.805 23.851 10.35 4.905 5.518 7.082 13.371 6.558 23.566-.044.967-.16 2.19-.384 3.684-.197 1.483-.328 2.44-.415 2.876M549.91 838.957l-.255-2.04c-1.235-10.107-2.905-16.95-4.993-20.522-2.06-3.597-5.459-5.079-10.182-4.506-4.736.584-7.657 2.845-8.791 6.828-1.135 3.98-1.07 11.017.183 21.118l.233 2.047c1.25 10.103 2.91 16.886 4.976 20.326 2.075 3.413 5.445 4.833 10.098 4.265 4.737-.58 7.677-2.772 8.82-6.586q1.766-5.764-.089-20.93m20.358-.43c1.462 11.929-.307 21.177-5.32 27.75-4.965 6.536-12.418 10.408-22.36 11.632-9.957 1.223-18.136-.729-24.577-5.86-6.405-5.174-10.342-13.728-11.82-25.653l-.741-6.108c-1.407-11.405.218-20.553 4.856-27.46 4.677-6.928 12.27-11.039 22.78-12.32 10.486-1.305 18.837.865 25.005 6.47q9.324 8.338 11.422 25.441zM635.858 825.31c-1.921-4.985-4.491-8.203-7.707-9.645q-4.785-2.238-10.611 0c-3.444 1.311-5.999 3.634-7.635 6.946-1.669 3.29-1.521 7.452.42 12.504 1.98 5.173 4.528 8.448 7.628 9.837 3.13 1.34 6.71 1.237 10.7-.298q5.842-2.241 8.006-6.825c1.479-3.1 1.193-7.271-.8-12.52m18.617-8.484c3.101 8.035 2.803 15.5-.866 22.372-3.64 6.878-10.314 12.177-20.038 15.903-10.401 3.997-19.048 4.717-25.964 2.13-6.885-2.603-12.496-8.535-16.81-17.795-.424-.866-.882-2.005-1.39-3.425-.489-1.435-.816-2.338-.984-2.745-3.654-11.536-3.755-22.075-.284-31.601 3.458-9.55 10.853-16.5 22.2-20.85 2.99-1.145 5.677-1.98 8.04-2.504a257 257 0 0 1 6.654-1.479L629.698 789a134 134 0 0 0-7.823 1.594 49 49 0 0 0-6.979 2.103c-5.278 2.025-8.778 5.037-10.497 9.062-1.723 3.997-1.906 8.565-.515 13.725.457-2.014 2.132-4.294 4.963-6.84 2.845-2.56 5.72-4.396 8.626-5.517 8.726-3.353 16.324-3.828 22.823-1.462q9.707 3.513 14.18 15.16"/></svg>