<svg xmlns="http://www.w3.org/2000/svg" width="1000" height="1000"><path fill="#ecb215" d="M491.437 25.022c-23.633.826-51.693 3.61-96.427 7.922-99.079 9.549-126.687 11.523-180.243 4.83-34.147-4.267-80.36-12.646-86.532-12.558.192 6.214-9.832 61.51-9.895 61.824-3.027 15.141-5.689 37.023-9.313 76.702-11.94 130.701 2.913 267.748 41.326 382.348 38.1 113.667 97.326 215.384 172.87 297.339 33.845 36.716 83.579 75.17 120.874 103.363 2.984 2.051 45.117 27.343 56.071 28.208 10.955-.865 53.087-26.157 56.071-28.208 37.296-28.192 87.03-66.647 120.874-103.363 75.545-81.955 134.77-183.672 172.87-297.339 38.413-114.6 53.265-251.647 41.326-382.348-3.624-39.679-6.286-61.56-9.313-76.702-.062-.314-10.086-55.61-9.894-61.824-6.173-.088-52.386 8.29-86.533 12.558-53.556 6.693-81.164 4.719-180.243-4.83-46.177-4.45-74.645-7.195-98.755-7.922-2.169-.065-4.295.038-6.403 0-2.108.038-4.234-.065-6.403 0-.753.025-1.565-.024-2.328 0"/><path fill="#881f19" d="M483.823 44.982c-113.196 9.452-230.544 28.141-342.007 3.337-14.484 96.954-25.952 195.952-14.217 294.595 19.933 223.114 126.075 446.52 311.848 578.823 11.509 8.196 52.075 33.356 60.092 33.363 8.503.008 48.51-24.334 58.55-31.34 228.851-159.734 333.07-450.113 318.095-722.746-3.19-51.148-6.855-105.206-20.141-153.088-101.342 23.33-206.739 10.002-309.383-.847-20.883-1.746-41.882-2.534-62.837-2.097"/><g fill="#f8fbfd" stroke="#e9aa0f"><path stroke-width="1.082" d="M388.96 498.016v18.135h5.163v-6.917h4.977v-4.135h-5.065v-2.86h9.187v-4.223h-9.85z" transform="matrix(6.2086 0 0 6.18249 -1797.927 -2755.87)"/><path stroke-width="1.055" d="M413.249 498.184c-4.09.403-7.312 4.263-7.312 8.937 0 4.942 3.583 8.97 8.007 8.97 2.882 0 5.429-1.714 6.849-4.272l-4.037-1.019c-.13.134-.28.245-.43.362-6.183 3.214-7.531-7.95-2.702-8.606.045-.006.092-.025.132-.033.017-.003.05 0 .067 0 1.24-.054 2.18.172 2.9.95l4.037-1.117c-1.427-2.513-3.958-4.172-6.816-4.172-.208 0-.392-.018-.596 0-.032.003-.067-.003-.1 0z" transform="matrix(6.2086 0 0 6.18249 -1797.927 -2755.87)"/></g><path fill="#fffbff" d="M489.388 68.24c-3.096.022-6.19.054-9.29.124-1.599.036-3.245.134-4.845.184-103.974 8.473-211.389 22.54-314.115 6.976-10.633 63.193-15.204 128.126-13.394 192.97h705.015c1.427-65.704-4.212-131.237-16.82-194.537-66.93 16.849-139.088 6.88-207.61 2.704-46.252-3.864-92.493-8.742-138.94-8.42"/><path fill="#518ac3" d="M147.589 268.493h705.155v12.25H147.59Z" opacity=".96"/><g fill="#881f19" stroke="#e9aa0f"><path stroke-width="6.557400480000001" d="M190.836 109.716v34.182h31.043v97.38h30.048v-97.38h32.038v-34.182Z"/><path stroke-width="6.16143376" d="M532.115 109.123h30.267v132.353h-30.267ZM581.977 108.693v132.401h29.88v-59.418l44.623 58.844.776.956h29.491V108.693h-31.043v66.105l-48.892-65.914v-.19h-24.834zM414.345 108.214v133.262h30.048v-49.46h19.621l18.626 49.46h35.304l-22.111-57.032c14.548-4.397 17.85-19.695 17.85-37.638 0-20.314-13.76-36.975-31.237-38.592H439.18Zm29.991 28.913h32.094c6.836.21 12.224 4.484 12.224 12.852s-5.388 13.238-12.223 13.45h-32.096z"/><path stroke-width="6.5781568" d="M343.26 107.721c-28.882 2.194-51.997 31.23-51.997 66.678 0 36.875 24.979 66.869 55.49 66.869 30.51 0 55.1-29.994 55.1-66.87 0-36.875-24.59-66.677-55.1-66.677-.477 0-.885-.012-1.359 0-.7.019-1.44-.056-2.134 0zm1.358 34.635c.113-.019.081.019.194 0 31.228-1.356 34.301 60.794 4.656 67.713-33.046 3.151-37.6-62.567-4.85-67.713zM750.894 107.721c-28.883 2.194-51.997 31.23-51.997 66.678 0 36.875 24.978 66.869 55.489 66.869s55.101-29.994 55.101-66.87c0-36.875-24.59-66.677-55.101-66.677-.477 0-.884-.012-1.358 0-.7.019-1.441-.056-2.134 0zm1.358 34.635c.112-.019.08.019.193 0 31.229-1.356 34.302 60.794 4.657 67.713-33.046 3.151-37.6-62.567-4.85-67.713z"/></g><g fill="#fff"><path d="M230.06 320.75c-4.563.398-6.354.808-8.624 1.904-2.114 1.022-4.63 2.18-6.604 4.495-3.687 4.323-4.532 5.944-4.596 12.296-.036 3.597 1.789 6.704 3.563 8.515 2.935 2.996 6.011 4.415 12.224 5.028 4.446.439 8.992-.397 10.607-1.268a45 45 0 0 1 1.956-.99c.737-.35.976-.6 1.026-.573.183.101-.25 1.58-.38 1.952-.406 1.162-1.815 3.139-4.169 5.653-2.82 3.011-6.562 5.32-10.47 6.557-2.092.664-5.564 1.796-6.306 2.017-.077.023-.081-.045-.07.045l.793 6.588c.001.013 1.996-.142 4.285-.56 11.586-2.118 21.428-10.584 24.152-20.775 2.26-11.348 3.17-24.443-9.486-29.355-2.24-.87-4.843-1.452-7.9-1.529m.08 8.413c2.713-.018 5.461.677 7.703 2.258 3.573 2.522 3.902 8.609.622 11.523-6.758 6.005-20.113 2.577-20.113-5.164 0-5.088 5.818-8.577 11.788-8.617M276.312 321.378c-6.66-.003-13.277 3.187-16.553 9.568-2.88 5.61-3.96 20.513-1.934 26.697 2.089 6.377 6.25 11.478 11.19 13.729 8.483 3.865 18.571.08 23.85-8.948 3.597-6.15 3.75-24.993.256-31.471-3.443-6.384-10.149-9.573-16.81-9.575m.065 8.386c3.177 0 6.355 1.202 8.136 3.605 5.202 7.019 4.687 23.046-.924 28.699-4.194 4.224-9.856 4.11-14.22-.284-5.841-5.884-6.445-21.231-1.12-28.415 1.78-2.403 4.952-3.605 8.128-3.605M193.244 321.164h7.972v50.67h-7.972ZM322.434 373.561c4.564-.397 6.355-.807 8.625-1.904 2.115-1.02 4.63-2.18 6.604-4.494 3.687-4.324 4.532-5.944 4.596-12.296.036-3.597-1.789-6.704-3.563-8.515-2.935-2.997-6.011-4.415-12.224-5.028-4.446-.439-8.992.397-10.607 1.268-.806.434-1.547.795-1.956.99-.736.35-.976.6-1.026.573-.183-.101.25-1.58.38-1.952.406-1.162 1.815-3.139 4.17-5.653 2.819-3.012 6.561-5.32 10.469-6.558 2.093-.663 5.564-1.795 6.306-2.016.077-.023.082.045.07-.046l-.793-6.587c-.001-.013-1.996.142-4.285.56-11.586 2.118-21.428 10.584-24.152 20.774-2.26 11.349-3.17 24.443 9.486 29.355 2.24.87 4.843 1.453 7.9 1.53m-.079-8.412c-2.713.018-5.461-.677-7.703-2.259-3.573-2.521-3.902-8.608-.622-11.523 6.758-6.004 20.113-2.576 20.113 5.164 0 5.089-5.818 8.578-11.788 8.618"/></g><path fill="#fff" d="m538.033 852.24-3.498-3.124 11.9-18.452c6.545-10.15 13.061-21.001 14.481-24.116s5.686-8.75 9.48-12.521c7.844-7.799 15.746-22.816 16.776-31.879.855-7.524-1.623-11.743-20.634-35.136-23.48-28.894-31.773-42.558-34.9-57.504-2.876-13.747 2.64-32.988 13.626-47.535l6.636-8.788-7.369 7.138c-14.704 14.24-20.318 31.747-16.099 50.197 3.742 16.365 3.73 16.416-4.026 16.834-11.263.606-19.025-6.155-20.707-18.038-.736-5.196-.88-4.597-1.033 4.271-.318 18.452-5.906 20.658-52.322 20.658H422.99l-4.087 3.413c-2.66 2.22-4.094 4.637-4.107 6.92-.034 5.766-1.48 6.748-9.636 6.535-9.122-.238-12.34 2.062-13.91 9.945-1.91 9.578-15.113 16.683-31.004 16.683-6.346 0-14.233-3.037-15.343-5.908-1.032-2.668 11.42-19.066 24.725-32.559a7202 7202 0 0 0 18.62-18.964c12.846-13.145 14.547-13.68 43.586-13.715l24.324-.029-1.039-6.26c-1.795-10.83-.885-42.744 1.48-51.906 3.762-14.57 7.868-16.616 27.503-13.705 6.803 1.008 12.499 1.704 12.658 1.546 1.062-1.054-8.78-16.996-17.85-28.91-11.232-14.759-16.927-24.774-18.455-32.462-.788-3.959-.609-4.395 1.474-3.602 5.756 2.192 25.996 4.812 37.17 4.812 15.043 0 24.079-2.48 29.345-8.053l3.931-4.16-5.887 3.8c-5.703 3.681-6.386 3.795-21.917 3.662-19.484-.168-24.56-1.6-66.821-18.85-32.868-13.416-58.857-22.482-64.532-22.511-4.575-.024-8.823 2.026-11.736 5.663-1.405 1.753-3.792 2.764-6.642 2.81l-4.45.074-.098 8.568c-.138 11.892-1.06 13.814-8.254 17.21-14.045 6.63-28.544 8.598-32.731 4.444-2.94-2.918-3.103-2.509 7.6-19.13 5.33-8.275 11.058-17.856 12.732-21.292 4.03-8.274 13.12-16.083 21.095-18.123 3.464-.886 12.602-1.923 20.307-2.305 16.932-.838 27.03.968 57.442 10.276 11.718 3.586 21.59 6.237 21.94 5.89 1.021-1.013-11.436-5.917-23.652-9.31-6.21-1.726-13.98-3.903-17.268-4.84l-5.978-1.703 10.373-.386c9.207-.343 37.122 2.44 46.073 4.593 3.18.765 3.23.688 1.109-1.703-3.815-4.3-4.102-8.738-1.083-16.744 1.557-4.13 3.365-7.508 4.017-7.508 3.399 0 10.691-8.632 12.556-14.861 3.13-10.46 2.38-11.344-2.091-2.465-5.55 11.021-10.239 14.302-23.824 16.672-12.68 2.212-17.242 4.633-17.242 9.15 0 6.286-12.884 7.606-19.697 2.018-4.085-3.35-3.264-7.013 1.764-7.877 4.565-.785 5.754-3.988 2.63-7.087-4.232-4.2-10.875 2.756-9.438 9.884.606 3.01.291 3.789-1.527 3.773-9.357-.083-10.448-16.157-3.348-49.331 2.594-12.12 3.026-16.285 1.88-18.106-2.44-3.878-1.71-11.561 2.124-22.298l3.612-10.118-4.78-5.25c-2.63-2.887-5.586-7.55-6.572-10.364-2.433-6.946-2.056-21.799.81-31.841 2.609-9.145 4.646-11.725 4.646-5.883 0 8.025 4.081 17.666 10.245 24.204 3.333 3.536 6.517 6.428 7.075 6.428.56 0 1.432-3.41 1.94-7.579.509-4.168 1.944-10.84 3.19-14.828l2.267-7.25 1.715 8.536c2.145 10.675 5.144 16.5 11.646 22.623 8.38 7.893 12.224 9.108 37.507 11.858 42.578 4.631 60.529 10.918 76.544 26.809 16.56 16.431 20.38 27.537 24.492 71.206 3.351 35.577 8.865 79.876 11.481 92.245 7.688 36.341 53.897 83.231 70.297 71.332 6.025-4.371 1.642-16.933-13.518-38.746-9.303-13.387-23.046-37.08-23.046-39.735 0-4.584 33.21 39.435 47.246 62.623 13.234 21.864 16.176 32.545 12.065 43.804-3.74 10.241-17.89 18.607-28.599 16.908l-4.897-.777-1.55 12.86c-2.79 23.148-6.748 29.614-31.903 52.11-8.396 7.508-7.394 11.822 5.513 23.748l6.495 6.002-.812 6.796c-.899 7.532-5.39 14.546-11.264 17.591-8.46 4.385-16.153 17.046-18.893 31.09-2.133 10.936-3.34 12.882-9.89 15.937-3.31 1.543-6.088 3.186-6.173 3.65s-.315 5.25-.512 10.636c-.416 11.364-.293 11.223-15.137 17.374-13.963 5.785-26.111 6.694-31.01 2.319zm76.912-113.227c-6.282-6.933-9.58-14.16-8.437-18.494.948-3.6-.64-3.17-5.012 1.359l-3.773 3.907 3.192 4.771c2.465 3.685 17.063 14.912 19.588 15.066.25.014-2.251-2.959-5.558-6.609m19.722-45.133c5.693-6.6 9.734-18.75 10.816-32.523l.781-9.948-4.294 4.13c-4.07 3.914-4.306 4.674-4.52 14.499-.274 12.508-3.184 19.681-12.377 30.507l-6.354 7.483 5.62-4.347c3.092-2.39 7.74-6.801 10.328-9.801m-11.155-87.283c-8.041-8.656-16.237-21.808-26-41.725-9.377-19.128-12.34-30.38-15.557-59.093-.895-7.983-2.185-14.514-2.868-14.514-2.007 0-.083 45.636 2.273 53.92 6.017 21.15 24.976 50.614 40.016 62.187 8.537 6.57 8.853 6.455 2.136-.775M421.909 395.954c7.017-1.072 8.848-2.97 8.848-9.171v-5.306l-2.989 4.479c-1.643 2.463-5.514 5.643-8.6 7.065-3.087 1.423-5.913 3.365-6.28 4.315-.486 1.257-.044 1.41 1.627.561 1.262-.64 4.59-1.515 7.394-1.943m46.658-21.99c17.925-1.845 23.542-5.271 19.37-11.817-1.011-1.585-1.729-1.296-4.053 1.636-2.747 3.465-10.074 6.248-21.348 8.108-2.612.43-5.9 1.71-7.306 2.841s-1.868 1.72-1.028 1.305c.84-.414 7.305-1.347 14.365-2.073M445.37 358.8c0-1.403-1.446-1.982-4.981-1.993-6.103-.019-16.73-2.74-22.728-5.819-2.455-1.26-4.059-1.64-3.563-.845 1.031 1.656 9.64 6.182 16.588 8.722 6.752 2.469 14.684 2.433 14.684-.065m-65.667 205.946c-1.986-7.43-5.43-18.829-7.653-25.329-6.053-17.7-3.954-32.144 6.01-41.371l3.353-3.104 7.072 2.294c3.89 1.261 8.738 3.13 10.774 4.151l3.703 1.858-2.79 3.518c-2.053 2.59-2.694 5.04-2.43 9.292.268 4.327-.21 6.089-1.91 7.032-3.606 2.003-2.832 7.355 1.385 9.57 2.01 1.056 5.32 4.035 7.359 6.62 3.451 4.377 3.603 5.075 2.22 10.174-4.335 15.973-13.22 28.805-19.945 28.805-3.363 0-3.71-.658-7.148-13.51m298.424-7.505c-1.95-4.129-6.152-9.13-11.813-14.062-14.343-12.495-17.611-23.931-9.16-32.058 5.447-5.24 7.984-10.754 6.907-15.011-1.782-7.049-13.838-15.34-27.269-18.753-10.073-2.56-15.803-1.761-21.507 3.001l-4.177 3.488 2.733-5.316c6.782-13.19 22.704-15.24 48.654-6.264 29.632 10.25 36.947 27.329 24.354 56.864-3.88 9.097-4.368 11.607-4.368 22.435 0 6.706-.299 12.168-.664 12.138s-2.026-2.937-3.69-6.462m-.767-22.239c.862-2.67 3.1-8.414 4.973-12.763 7.775-18.054 3.169-31.81-13.415-40.056-7.756-3.857-8.157-3.486-1.62 1.503 11.176 8.528 13.587 20.858 7.024 35.916-4.708 10.803-5.354 15.948-2.407 19.179 2.785 3.054 3.373 2.646 5.445-3.779"/></svg>