<?xml version="1.0" encoding="UTF-8" standalone="no"?>
<svg
   xmlns:dc="http://purl.org/dc/elements/1.1/"
   xmlns:cc="http://creativecommons.org/ns#"
   xmlns:rdf="http://www.w3.org/1999/02/22-rdf-syntax-ns#"
   xmlns:svg="http://www.w3.org/2000/svg"
   xmlns="http://www.w3.org/2000/svg"
   xmlns:sodipodi="http://sodipodi.sourceforge.net/DTD/sodipodi-0.dtd"
   xmlns:inkscape="http://www.inkscape.org/namespaces/inkscape"
   version="1.1"
   id="Capa_1"
   x="0px"
   y="0px"
   viewBox="-24.5 43.5 1000 1000"
   xml:space="preserve"
   sodipodi:docname="Asociación Mutual Social y Deportiva Atlético de Rafaela.svg"
   width="1000"
   height="1000"
   inkscape:version="1.0.1 (3bc2e813f5, 2020-09-07)"><metadata
   id="metadata101"><rdf:RDF><cc:Work
       rdf:about=""><dc:format>image/svg+xml</dc:format><dc:type
         rdf:resource="http://purl.org/dc/dcmitype/StillImage" /><dc:title></dc:title></cc:Work></rdf:RDF></metadata><defs
   id="defs99" /><sodipodi:namedview
   pagecolor="#ffffff"
   bordercolor="#666666"
   borderopacity="1"
   objecttolerance="10"
   gridtolerance="10"
   guidetolerance="10"
   inkscape:pageopacity="0"
   inkscape:pageshadow="2"
   inkscape:window-width="1920"
   inkscape:window-height="1017"
   id="namedview97"
   showgrid="false"
   inkscape:zoom="0.845"
   inkscape:cx="500"
   inkscape:cy="413.53101"
   inkscape:window-x="-8"
   inkscape:window-y="-8"
   inkscape:window-maximized="1"
   inkscape:current-layer="Capa_1" />
<g
   id="g92"
   transform="matrix(1.548303,0,0,1.548303,-9.9502777,-42.409595)">
	<path
   style="fill:#efa127"
   d="m 64.221,338.969 c 0.52,0.52 6.739,60.216 7.776,66.965 3.111,18.168 10.366,41.526 15.549,58.658 5.702,16.609 14.514,37.374 23.325,51.392 4.666,8.304 8.812,14.533 13.996,22.839 5.183,7.787 10.367,14.016 16.067,21.283 18.142,24.916 51.835,52.429 77.749,70.078 13.995,9.343 31.619,20.764 46.132,28.551 7.256,3.633 17.622,8.824 24.361,12.978 6.219,4.151 19.695,8.823 24.36,13.495 h 4.146 c 1.037,-2.075 40.95,-23.358 47.168,-26.992 15.55,-9.345 30.064,-18.169 45.096,-28.031 31.618,-21.283 52.352,-42.046 76.713,-70.598 22.807,-26.473 39.392,-58.658 52.868,-93.956 7.258,-18.688 10.366,-38.413 15.55,-58.659 1.556,-7.267 7.257,-65.406 7.776,-65.926 V 71.633 H 64.221 Z"
   id="path2" />
	<path
   style="fill:#ffffff"
   d="m 79.252,124.582 -1.554,151.577 v 4.672 c 0,114.203 13.476,184.28 59.606,253.319 19.698,30.108 49.761,56.583 78.268,77.865 13.995,10.901 31.619,22.322 48.204,30.628 7.775,4.152 17.105,9.343 24.879,14.015 4.148,2.078 24.879,11.94 26.434,12.978 3.629,-2.076 8.295,-3.114 12.959,-5.191 4.146,-2.076 7.775,-4.151 11.922,-5.708 7.256,-3.636 15.031,-9.347 22.288,-13.5 14.516,-8.823 31.1,-19.206 44.058,-29.068 29.028,-22.32 52.87,-40.49 74.64,-70.599 25.398,-34.258 34.209,-50.87 49.241,-96.032 10.884,-33.223 19.178,-82.017 19.178,-126.142 V 86.688 H 79.252 Z"
   id="path4" />
	<path
   style="fill:#0084c9"
   d="m 155.446,193.621 v 160.923 c 0,51.909 25.917,107.452 50.278,134.964 5.183,6.23 15.55,19.727 21.252,24.398 7.774,5.708 17.622,15.054 24.879,21.801 7.256,6.229 49.759,32.704 60.126,32.704 h 1.556 c 12.44,0 51.833,-22.321 61.163,-28.55 19.696,-13.497 33.69,-22.321 48.723,-41.526 12.957,-16.612 24.881,-35.299 33.173,-56.584 6.738,-17.648 15.031,-50.871 15.031,-74.75 v -173.38 c -5.183,0 -27.471,-5.708 -33.691,-7.786 -8.294,-2.076 -25.399,-6.229 -34.728,-6.229 -12.439,-0.519 -26.434,-3.633 -38.357,-3.633 -12.958,0 -26.434,-1.557 -40.429,-1.557 -57.016,-0.001 -121.808,7.787 -168.976,19.205 z"
   id="path6" />
	<path
   style="fill:#ffffff"
   d="m 178.772,307.823 h 31.618 c -4.665,8.306 -8.811,26.994 -8.811,39.453 v 1.037 c 0,16.61 4.146,39.451 9.329,50.352 h -32.136 c 1.036,10.383 11.922,36.339 16.587,43.605 3.111,5.191 20.733,35.819 24.361,35.819 h 193.855 c 3.109,0 19.177,-30.628 21.251,-35.299 4.665,-10.381 12.959,-30.628 13.995,-44.124 h -45.613 c 5.701,-8.304 9.848,-12.459 15.031,-22.839 3.11,-5.71 7.775,-21.803 7.775,-30.628 v -10.9 c 0,-9.345 -4.665,-19.208 -5.185,-26.475 h 25.917 V 231.517 H 178.772 Z"
   id="path8" />
	<path
   style="fill:#efa127"
   d="m 319.239,461.995 h 29.547 v -57.1 l 9.848,0.519 14.514,42.565 28.508,-17.648 c -0.519,-8.825 -8.814,-16.612 -8.814,-28.551 0,-3.115 26.955,-30.627 26.955,-58.658 v -2.077 c 0,-31.145 -14.514,-50.352 -30.582,-65.925 -11.922,-11.938 -46.133,-25.954 -69.976,-25.954 z"
   id="path10" />
	<path
   style="fill:#efa127"
   d="m 208.835,345.198 v 7.787 c 0,24.916 7.776,43.083 16.067,59.176 5.184,10.382 25.918,34.261 37.32,37.375 v -48.795 c -5.183,-1.037 -12.44,-11.939 -12.958,-19.207 h 35.247 v 80.461 h 27.471 v -212.83 c -29.545,0 -58.053,11.42 -73.085,26.473 -9.329,9.863 -13.476,17.132 -20.215,29.589 -4.146,8.307 -9.847,28.551 -9.847,39.971 z"
   id="path12" />
	<path
   style="fill:#ffffff"
   d="m 347.747,371.153 c 21.77,0 37.319,-9.863 37.319,-31.147 0,-21.283 -20.732,-42.046 -37.319,-46.199 z"
   id="path14" />
	<path
   style="fill:#31373e"
   d="m 452.45,159.361 c 11.403,0 17.103,-10.9 17.103,-22.841 v -5.709 c 0,-12.977 -19.178,-14.016 -30.579,-16.611 -0.518,9.862 -4.667,20.764 -6.223,31.146 -1.035,8.825 -5.701,8.825 3.629,11.42 3.629,0.519 11.925,2.595 16.07,2.595 z"
   id="path16" />
	<path
   style="fill:#ffffff"
   d="m 246.673,340.527 v 2.077 h 37.838 l -1.036,-36.858 v -8.304 c -8.293,1.038 -20.734,8.304 -25.4,14.015 -4.145,5.711 -11.402,19.206 -11.402,29.07 z"
   id="path18" />
	<polygon
   style="fill:#31373e"
   points="230.087,151.575 238.38,151.056 236.307,120.429 246.156,150.536 254.968,149.499 259.632,118.871 260.15,118.871 262.741,148.979 271.035,148.461 266.886,106.414 258.075,107.451 254.448,107.451 249.264,136.002 239.935,109.528 235.788,109.01 226.977,110.047 "
   id="polygon20" />
	<path
   style="fill:#31373e"
   d="m 223.348,588.655 v 3.114 c 0,7.268 9.33,16.092 15.031,16.092 h 5.183 c 7.777,0 17.107,-10.899 17.107,-17.13 v -5.19 c 0,-7.267 -8.812,-15.573 -16.587,-15.573 h -4.146 c -6.739,0 -16.588,10.9 -16.588,18.687 z"
   id="path22" />
	<path
   style="fill:#31373e"
   d="m 140.934,506.637 15.031,24.398 4.667,-3.634 -10.367,-17.649 8.811,-4.671 8.812,15.573 6.22,-3.114 -9.33,-16.092 6.22,-3.635 16.586,24.915 -22.288,18.689 h -0.518 l 4.665,6.748 23.843,-19.726 7.256,7.787 4.666,-3.114 c -4.666,-7.27 -12.439,-14.016 -17.104,-20.766 -2.075,-3.113 -13.996,-21.802 -15.033,-24.917 z"
   id="path24" />
	<path
   style="fill:#0084c9"
   d="m 354.487,364.406 c 10.884,-0.521 22.806,-9.863 22.806,-21.284 v -8.823 c 0,-11.422 -12.958,-25.436 -22.806,-27.513 z"
   id="path26" />
	<path
   style="fill:#31373e"
   d="m 291.248,638.489 h 15.551 c 7.255,0 13.476,-6.229 13.476,-14.015 v -5.711 c 0,-7.269 -4.665,-15.053 -12.439,-15.053 h -16.588 z"
   id="path28" />
	<path
   style="fill:#31373e"
   d="m 153.374,164.033 8.813,-1.038 1.554,-9.863 14.515,-2.077 h 2.592 l 4.146,8.305 9.848,-1.557 -22.807,-38.932 c -6.737,0.52 -8.811,0.52 -10.367,5.71 -1.036,4.671 -1.554,9.344 -2.591,13.496 -1.557,5.193 -5.703,21.803 -5.703,25.956 z"
   id="path30" />
	<path
   style="fill:#31373e"
   d="m 416.168,589.175 h -1.557 c -5.701,-0.52 -9.329,-5.709 -18.658,-5.709 1.035,-1.558 3.627,-5.192 3.627,-7.27 0,-5.708 -5.184,-11.421 -10.366,-11.421 -4.148,0 -22.29,12.461 -22.29,14.018 0,1.037 8.812,12.976 9.851,15.054 1.555,1.555 10.366,14.533 10.883,14.533 2.074,0 3.63,-2.595 6.738,-3.635 l -8.812,-13.496 c 2.074,-0.519 3.63,-2.076 4.147,-2.076 6.221,0 14.513,5.71 17.624,5.71 1.554,0.002 7.774,-4.671 8.813,-5.708 z"
   id="path32" />
	<path
   style="fill:#31373e"
   d="m 310.946,114.719 v 1.557 c 0,13.497 23.844,10.382 23.844,17.13 0,2.596 -2.073,5.711 -4.666,5.711 h -5.701 c -4.148,0 -5.184,-2.596 -6.221,-5.711 -1.035,-3.634 -3.629,-1.038 -8.813,-1.038 0,8.306 6.74,14.536 16.068,14.536 h 4.666 c 7.256,0 13.477,-5.192 13.477,-12.459 v -1.557 c 0,-15.054 -24.361,-10.901 -24.361,-18.167 0,-2.596 3.628,-4.153 6.738,-4.153 4.666,0 7.256,2.077 7.776,6.229 2.073,0 2.591,-0.519 4.665,-0.519 h 3.629 V 114.2 c 0,-5.191 -6.738,-10.382 -12.441,-10.382 h -6.221 c -6.219,0 -12.439,5.192 -12.439,10.901 z"
   id="path34" />
	<path
   style="fill:#31373e"
   d="m 489.25,427.734 -2.072,7.788 32.655,22.839 2.072,-8.304 c -1.555,0 -7.256,-3.114 -7.256,-4.671 0,-5.192 2.593,-8.826 3.109,-14.018 8.812,0 10.367,0 10.887,-8.825 z"
   id="path36" />
	<path
   style="fill:#31373e"
   d="m 414.611,589.175 h 1.557 c 0.517,-0.52 4.663,-3.634 4.663,-4.152 0,-3.114 -2.072,-5.191 -2.072,-8.306 0,-1.556 9.33,-7.785 10.885,-9.862 1.036,0.518 7.256,4.151 8.294,4.151 0.519,0 5.184,-4.67 6.22,-5.71 -6.22,-1.038 -32.656,-17.649 -34.729,-17.649 -2.072,0 -6.219,3.635 -6.219,4.673 -0.002,5.709 9.847,28.548 11.401,36.855 z"
   id="path38" />
	<path
   style="fill:#31373e"
   d="m 115.017,422.024 3.628,14.017 -7.256,5.71 1.556,7.267 0.517,0.52 32.137,-23.36 -2.074,-8.306 -39.392,-4.151 c 0.517,7.785 2.591,8.303 10.884,8.303 z"
   id="path40" />
	<path
   style="fill:#31373e"
   d="m 445.194,511.828 c 0,1.04 17.624,29.071 18.66,33.741 2.072,-0.517 5.7,-5.191 5.7,-5.709 0,-1.038 -3.628,-6.229 -4.146,-7.786 l 8.293,-11.42 9.331,2.596 5.183,-6.23 -38.875,-11.938 c -0.518,3.633 -4.146,3.633 -4.146,6.746 z"
   id="path42" />
	<path
   style="fill:#31373e"
   d="m 458.152,495.737 32.655,18.168 13.478,-24.916 c -2.075,-0.519 -2.592,-2.078 -4.666,-2.078 -1.556,0 -9.33,15.574 -10.368,17.65 l -8.292,-5.711 c 1.037,-2.077 8.292,-13.496 8.292,-15.054 0,-1.038 -4.144,-3.113 -5.183,-3.113 -0.519,0 -8.292,13.495 -8.811,15.572 l -7.257,-3.634 9.848,-17.647 -5.701,-3.115 z"
   id="path44" />
	<polygon
   style="fill:#31373e"
   points="350.858,616.688 333.753,616.688 333.753,609.419 352.411,609.419 352.411,603.71 325.977,603.71 325.977,638.489 352.93,638.489 352.93,632.26 333.753,632.26 333.753,623.435 350.858,623.435 "
   id="polygon46" />
	<path
   style="fill:#31373e"
   d="m 384.548,154.69 h -1.036 c -1.555,0 -1.555,-0.519 -3.11,-1.038 v 5.19 c 0,2.077 3.629,2.596 6.221,2.596 10.366,0 12.957,-12.977 17.104,-20.244 2.592,-3.116 4.664,-7.787 6.74,-11.941 3.625,-6.747 4.663,-7.266 -4.668,-8.304 l -10.364,19.725 -3.628,-21.283 -8.295,-1.038 c 0,8.824 12.44,36.337 1.036,36.337 z"
   id="path48" />
	<path
   style="fill:#31373e"
   d="m 195.359,568.411 v 1.557 c 0,6.748 7.255,15.573 13.995,15.573 h 3.628 c 3.629,0 4.665,-1.039 7.774,-2.075 l -3.628,-6.75 c -2.591,0.52 -3.627,2.078 -6.219,2.078 -15.032,0 -5.184,-22.842 5.703,-22.842 h 1.035 c 3.629,0 7.776,3.634 7.776,7.268 0,2.596 -0.52,3.115 -0.52,5.191 l 6.22,3.634 c 1.037,-2.077 2.075,-4.153 2.075,-7.27 0,-7.785 -7.775,-16.091 -15.55,-16.091 h -3.11 c -8.295,10e-4 -19.179,11.422 -19.179,19.727 z"
   id="path50" />
	<polygon
   style="fill:#31373e"
   points="448.305,531.554 436.899,541.935 431.716,535.707 443.638,523.25 440.009,519.098 421.35,536.746 446.747,563.74 452.45,558.029 441.565,546.609 442.083,546.609 452.967,536.227 "
   id="polygon52" />
	<path
   style="fill:#0084c9"
   d="m 254.448,335.855 h 22.288 v -29.07 c -9.85,2.077 -21.768,18.169 -22.288,29.07 z"
   id="path54" />
	<path
   style="fill:#ffffff"
   d="m 440.529,150.536 11.923,1.038 c 6.217,1.038 8.809,-11.939 8.809,-18.688 0,-6.748 -8.809,-9.343 -15.031,-9.862 z"
   id="path56" />
	<path
   style="fill:#31373e"
   d="m 143.007,435.523 3.11,10.9 -28.508,10.38 2.592,7.27 29.027,-10.383 3.627,9.863 5.702,-1.557 c 0,-3.114 -9.329,-27.512 -10.366,-27.512 -2.593,-10e-4 -2.075,1.039 -5.184,1.039 z"
   id="path58" />
	<path
   style="fill:#ffffff"
   d="m 231.122,589.694 v 3.114 c 0,4.152 4.147,8.306 8.295,8.306 h 2.073 c 5.183,0 12.439,-9.345 12.439,-14.534 0,-5.193 -5.184,-9.864 -9.849,-9.864 -6.219,0 -12.958,7.786 -12.958,12.978 z"
   id="path60" />
	<path
   style="fill:#31373e"
   d="m 126.939,478.088 10.885,24.398 c 1.037,-0.52 5.701,-2.595 5.701,-3.634 0,-2.077 -6.737,-12.46 -7.255,-16.093 l 26.953,-12.979 c -0.518,-2.075 -2.074,-6.746 -3.629,-6.746 -3.109,0.001 -26.435,13.495 -32.655,15.054 z"
   id="path62" />
	<path
   style="fill:#31373e"
   d="m 505.32,473.936 -28.509,-11.939 c -0.518,3.635 -2.073,4.153 -2.073,6.229 0,1.557 13.477,7.27 16.067,8.305 4.147,2.079 12.958,6.23 17.105,7.269 l 10.366,-24.397 -5.703,-2.077 z"
   id="path64" />
	<path
   style="fill:#f0f1f4"
   d="m 298.506,632.26 h 6.738 c 5.182,0 7.775,-2.597 7.775,-7.785 v -6.749 c 0,-4.672 -2.073,-7.786 -6.219,-7.786 h -8.294 z"
   id="path66" />
	<path
   style="fill:#31373e"
   d="m 180.327,559.066 4.665,5.709 c 2.591,-1.555 27.47,-24.396 27.47,-24.396 0,-1.037 -3.109,-4.15 -4.664,-6.229 z"
   id="path68" />
	<path
   style="fill:#f0f1f4"
   d="m 376.775,578.794 4.665,8.304 c 2.072,-1.557 10.366,-6.747 10.366,-8.824 v -1.038 c 0,-2.597 -1.557,-4.673 -4.148,-4.673 -3.11,0 -7.256,5.192 -10.883,6.231 z"
   id="path70" />
	<path
   style="fill:#0084c9"
   d="m 258.594,389.322 17.623,10.899 0.518,-0.518 v -7.785 c 0,-2.077 0.518,-2.077 0.518,-3.636 z"
   id="path72" />
	<polygon
   style="fill:#f0f1f4"
   points="165.813,145.345 176.698,143.789 168.406,130.293 "
   id="polygon74" />
	<polygon
   style="fill:#31373e"
   points="206.762,155.728 206.243,147.422 197.432,148.461 198.469,156.766 "
   id="polygon76" />
	<rect
   x="278.811"
   y="139.117"
   style="fill:#31373e"
   width="8.2919998"
   height="8.3050003"
   id="rect78" />
	<path
   style="fill:#31373e"
   d="m 350.338,146.904 c 1.555,0.519 1.555,0.519 3.629,0.519 h 4.666 v -8.305 h -8.295 z"
   id="path80" />
	<path
   style="fill:#31373e"
   d="m 471.627,165.589 7.775,0.52 1.557,-7.268 c -8.293,-2.075 -9.332,-3.113 -9.332,6.748 z"
   id="path82" />
	<polygon
   style="fill:#f0f1f4"
   points="124.348,432.408 135.232,423.582 121.756,422.544 "
   id="polygon84" />
	<polygon
   style="fill:#f0f1f4"
   points="416.168,569.968 423.423,563.22 410.984,556.471 "
   id="polygon86" />
	<polygon
   style="fill:#f0f1f4"
   points="497.543,433.965 508.948,441.75 510.503,432.408 "
   id="polygon88" />
	<polygon
   style="fill:#f0f1f4"
   points="461.78,525.843 467.482,518.577 454.524,514.425 "
   id="polygon90" />
</g>
<rect
   x="56.759998"
   y="64.815002"
   style="fill:none"
   width="513.55603"
   height="627.67902"
   id="rect94" />
</svg>
