<svg enable-background="new 0 0 643 721" height="1000" viewBox="0 0 1000 1000" width="1000" xmlns="http://www.w3.org/2000/svg"><g transform="matrix(1.3405563 0 0 1.3405563 69.496431 14.311761)"><g><g><g><path clip-rule="evenodd" d="m 99.75 194.88 l 23.285 365.162 c .272 4.29 2.742 11.779 4.308 15.097 c 2.551 5.41 5.005 7.273 7.981 11.425 c 4.315 6.019 16.767 11.664 27.491 11.643 l 135.255 .579 c 8.155 1.554 15.355 9.125 22.979 15.866 c 8.465 -6.741 12.194 -12.45 21.576 -15.805 l 135.517 -.641 c 23.02 .021 36.979 -17.542 40.041 -37.58 L 541.53 194.88 c 2.206 -42.937 -30.332 -44.379 -30.332 -44.379 l -160.156 -1.873 c -13.962 .001 -25.701 -15.632 -30.301 -27.307 c -5.987 11.51 -16.761 27.446 -30.488 27.643 L 145.406 148.83 c -.002 0 -46.147 -.238 -45.656 46.05 z" fill="#332d26" fill-rule="evenodd"/><path clip-rule="evenodd" d="m 112.363 190.028 l 25.769 378.202 c 2.972 6.94 10.783 16.292 19.834 16.715 c 45.301 2.111 90.822 .857 136.158 .644 c 11.154 -.052 22.108 8.552 26.616 17.17 c 5.24 -8.875 12.757 -15.488 21.637 -16.774 l 115.39 -.392 c 13.101 0 26.504 1.364 34.547 -3.938 c 7.733 -5.099 12.282 -13.766 13.617 -25.194 l 22.986 -366.108 c .858 -29.942 -25.194 -28.782 -25.883 -28.786 c -43.66 0 -97.984 0 -141.644 0 c -13.307 0 -19.222 .537 -27.622 -5.043 c -7.979 -5.299 -12.209 -13.545 -13.452 -19.538 c -.154 6.941 -8.543 16.097 -13.126 19.217 c -8.59 5.847 -13.598 5.364 -27.301 5.364 c -21.775 0 -43.552 0 -65.329 0 c -21.776 0 -43.552 0 -65.329 0 c -13.184 0 -18.646 .467 -26.392 6.273 c -3.39 2.542 -4.842 5.616 -6.93 9.243 c -1.299 2.259 -3.546 9.538 -3.546 12.945 z" fill="#fadf00" fill-rule="evenodd"/><path clip-rule="evenodd" d="m 299.294 173.533 l -17.581 -.002 l 3.349 282.039 H 212.62 L 201.3 173.533 h -61.125 c -.927 0 -5.264 1.27 -6.088 1.674 c -1.904 .934 -3.518 1.708 -4.826 3.259 c -1.671 1.983 -4.609 7.747 -4.609 11.239 l 16.817 270.071 h 187.578 c 2.178 0 3.881 3.587 3.881 5.82 v 5.499 c 0 1.884 -1.67 5.822 -3.233 5.822 H 143.086 c 0 9.084 1.605 18.414 1.617 27.491 c .005 3.193 .272 10.495 .67 13.885 c .475 4.051 .588 9.769 1.202 13.676 c .444 2.83 .742 10.974 .716 13.84 c -.04 4.478 .809 8.879 .956 13.598 c .227 7.24 7.504 14.219 15.214 14.219 h 54.002 l -3.55 -92.504 h 71.675 l .769 92.504 c 15.545 -1.473 22.882 .147 34.281 10.672 c 12.744 -10.546 19.27 -11.899 35.252 -10.672 l 3.234 -237.728 l 76.378 .003 l -10.726 237.725 h 52.715 c 9.962 0 15.702 -7.851 15.836 -17.803 L 507.569 332.017 H 314.818 c -2.152 0 -3.881 -4.545 -3.881 -7.116 v -3.881 c 0 -2.492 1.768 -6.145 4.852 -6.145 l 192.95 -.008 l 7.889 -126.132 c .856 -15.333 -14.676 -15.168 -15.524 -15.202 h -58.537 l -5.822 137.138 l -76.733 -.001 l 2.026 -136.813 h -19.082 c -4.902 0 -9.736 -3.496 -12.873 -5.562 c -1.878 -1.236 -3.2 -2.703 -4.975 -4.082 c -1.482 -1.152 -3.095 -3.906 -4.468 -4.912 c -.58 .425 -3.112 3.597 -4.123 4.608 c -1.745 1.744 -2.858 2.698 -4.844 4.213 c -2.689 2.054 -7.9 5.411 -12.379 5.411 z" fill="#332d26" fill-rule="evenodd"/></g><path clip-rule="evenodd" d="M 7.917 594.895 L 8.646 595.624 L 9.375 597.081 L 10.104 597.811 L 10.832 599.269 L 11.56 599.999 L 12.289 601.457 L 13.017 602.186 L 13.745 603.644 L 14.474 604.372 L 15.203 605.83 L 15.93 606.559 L 16.659 608.017 L 17.387 608.745 L 18.116 609.475 L 18.845 610.932 L 19.573 611.661 L 20.301 613.121 L 21.03 613.85 L 21.758 615.308 L 22.486 616.036 L 23.214 617.494 L 23.943 618.223 L 24.672 619.681 L 25.399 620.409 L 26.128 621.867 L 26.857 622.596 L 27.585 624.054 L 28.314 624.782 L 29.042 625.512 L 29.77 626.972 L 30.499 627.698 L 31.227 629.158 L 31.956 629.887 L 32.685 631.345 L 33.413 632.073 L 34.141 633.531 L 34.87 634.26 L 34.87 635.718 L 34.141 637.176 L 33.413 637.904 L 32.685 639.362 L 31.956 640.091 L 31.227 640.819 L 30.499 642.279 L 29.77 643.009 L 29.042 644.467 L 28.314 645.194 L 27.585 646.652 L 26.857 647.382 L 26.128 648.839 L 25.399 649.568 L 24.672 651.026 L 23.943 651.757 L 23.214 653.212 L 22.486 653.943 L 21.758 655.401 L 21.03 656.13 L 20.301 656.858 L 19.573 658.316 L 18.845 659.045 L 18.116 660.503 L 17.387 661.231 L 16.659 662.689 L 15.93 663.419 L 15.203 664.876 L 14.474 665.605 L 13.745 667.065 L 13.017 667.794 L 12.289 669.252 L 11.56 669.98 L 10.832 671.438 L 10.104 672.167 L 9.375 672.896 L 8.646 674.354 L 7.917 675.082 L 7.19 676.54 L 6.461 677.271 L 5.733 678.727 L 5.004 679.458 L 4.276 680.915 L 4.276 681.645 L 30.499 682.373 L 65.463 682.373 L 65.463 702.055 L 67.648 702.785 L 74.932 703.513 L 81.488 704.241 L 88.044 704.97 L 95.328 705.701 L 102.613 706.43 L 110.625 707.159 L 118.637 707.888 L 126.65 708.616 L 135.391 709.345 L 144.86 710.074 L 154.33 710.803 L 164.528 711.532 L 175.454 712.261 L 187.109 712.989 L 200.22 713.719 L 214.06 714.447 L 231.543 715.177 L 251.938 715.905 L 282.533 716.634 L 359.744 716.634 L 390.339 715.905 L 410.732 715.177 L 428.216 714.447 L 442.056 713.719 L 455.167 712.989 L 466.821 712.261 L 477.748 711.532 L 487.946 710.803 L 497.416 710.074 L 506.884 709.345 L 515.626 708.616 L 523.639 707.888 L 531.652 707.159 L 539.664 706.43 L 546.948 705.701 L 554.232 704.97 L 560.788 704.241 L 567.345 703.513 L 574.628 702.785 L 576.813 702.055 L 576.813 681.645 L 638 681.645 L 638 680.915 L 637.271 679.458 L 636.543 678.727 L 635.814 677.271 L 635.087 676.54 L 634.359 675.082 L 633.629 674.354 L 632.901 672.896 L 632.174 672.167 L 631.444 671.438 L 630.716 669.98 L 629.988 669.252 L 629.259 667.794 L 628.531 667.065 L 627.802 665.605 L 627.074 664.876 L 626.346 663.419 L 625.617 662.689 L 624.889 661.231 L 624.16 660.503 L 623.432 659.045 L 622.703 658.316 L 621.975 656.858 L 621.246 656.13 L 620.519 655.401 L 619.789 653.943 L 619.062 653.212 L 618.332 651.757 L 617.604 651.026 L 616.876 649.568 L 616.147 648.839 L 615.419 647.382 L 614.691 646.652 L 613.963 645.194 L 613.234 644.467 L 612.506 643.009 L 611.777 642.279 L 611.049 640.819 L 610.32 640.091 L 609.592 639.362 L 608.864 637.904 L 608.135 637.176 L 607.406 635.718 L 607.406 634.26 L 608.135 633.531 L 608.864 632.073 L 609.592 631.345 L 610.32 629.887 L 611.049 629.158 L 611.777 627.698 L 612.506 626.972 L 613.234 625.512 L 613.963 624.782 L 614.691 624.054 L 615.419 622.596 L 616.147 621.867 L 616.876 620.409 L 617.604 619.681 L 618.332 618.223 L 619.062 617.494 L 619.789 616.036 L 620.519 615.308 L 621.246 613.85 L 621.975 613.121 L 622.703 611.661 L 623.432 610.932 L 624.16 609.475 L 624.889 608.745 L 625.617 608.017 L 626.346 606.559 L 627.074 605.83 L 627.802 604.372 L 628.531 603.644 L 629.259 602.186 L 629.988 601.457 L 630.716 599.999 L 631.444 599.269 L 632.174 597.811 L 632.901 597.081 L 633.629 595.624 L 634.359 594.895 L 635.087 593.438 L 635.814 592.709 L 636.543 591.979 L 637.271 590.521 L 638 589.793 L 638 588.335 L 553.504 588.335 L 549.134 593.438 L 549.134 611.661 L 545.491 611.661 L 538.935 612.39 L 531.652 613.121 L 524.366 613.85 L 516.354 614.576 L 508.341 615.308 L 500.329 616.036 L 491.588 616.766 L 482.118 617.494 L 472.648 618.223 L 462.451 618.952 L 450.797 619.681 L 438.413 620.409 L 425.302 621.139 L 409.277 621.867 L 390.339 622.596 L 364.843 623.325 L 273.791 623.325 L 248.296 622.596 L 229.357 621.867 L 214.06 621.139 L 200.22 620.409 L 188.566 619.681 L 177.64 618.952 L 167.442 618.223 L 157.973 617.494 L 148.503 616.766 L 140.49 616.036 L 131.749 615.308 L 124.465 614.576 L 116.453 613.85 L 109.168 613.121 L 102.613 612.39 L 96.057 611.661 L 93.143 611.661 L 93.143 593.438 L 88.801 588.394 L 4.276 588.335 L 4.276 589.793 L 5.004 590.521 L 5.733 591.979 L 6.461 592.709 L 7.19 593.438 Z" fill="#352f29" fill-rule="evenodd"/><path clip-rule="evenodd" d="m 74.204 693.309 c 8.092 0 21.805 1.22 30.542 2.238 c 8.491 .987 20.744 1.788 29.472 3.31 c 9.399 1.638 21.297 .883 30.465 2.315 c 9.042 1.41 21.623 .554 31.116 1.663 c 17.732 2.077 44.279 2.174 62.668 2.894 c 21.677 .847 42.98 .701 64.857 .701 h 7.284 c 42.235 0 81.231 -2.125 121.673 -3.618 c 8.127 -.3 20.251 -1.731 29.11 -2.215 c 9.029 -.491 20.788 -.836 29.136 -2.187 c 6.116 -.989 22.772 -2.728 28.382 -2.943 c 10.676 -.412 19.347 -2.158 29.164 -2.158 V 620.41 c -75.521 6.744 -162.329 15.849 -246.206 13.851 h -24.038 c -19.938 0 -38.5 -1.46 -57.544 -1.457 c -18.688 0 -39.159 -2.982 -56.815 -2.918 c -10.035 .038 -17.668 -1.888 -26.926 -2.213 c -8.065 -.283 -20.911 -.745 -27.89 -1.977 c -8.206 -1.449 -19.092 -1.821 -26.918 -2.947 c -8.423 -1.217 -18.643 -2.339 -27.53 -2.339 v 72.899 z" fill="#fde100" fill-rule="evenodd"/><path clip-rule="evenodd" d="M 22.105 598.8 L 46.646 634.907 L 21.758 672.167 L 65.463 672.167 L 65.463 608.745 L 77.846 598.539 Z" fill="#fde100" fill-rule="evenodd"/><path clip-rule="evenodd" d="M 564.43 598.539 L 576.813 608.745 L 576.813 671.438 L 620.063 671.25 L 595.63 634.907 L 619.789 598.539 Z" fill="#fde100" fill-rule="evenodd"/><path clip-rule="evenodd" d="M 260.391 49.542 L 261.118 51.001 L 285.117 77.985 L 282.936 115.908 L 284.366 115.762 L 319.296 102.052 L 320.024 102.052 L 354.931 115.908 L 356.394 116.205 L 356.327 114.899 L 354.203 77.985 L 378.202 51.001 L 378.93 49.542 L 378.93 48.813 L 377.475 48.084 L 342.567 40.063 L 340.387 39.333 L 339.659 37.874 L 321.479 9.432 L 320.752 8.702 L 320.024 7.973 L 319.296 7.973 L 318.569 8.702 L 317.859 9.495 L 298.934 39.333 L 261.846 48.084 L 260.391 48.813 Z" fill="#332d26" fill-rule="evenodd"/><path clip-rule="evenodd" d="M 343.966 75.018 L 362.203 53.918 L 333.95 46.516 L 319.296 24.747 L 305.371 46.516 L 277.117 53.918 L 295.212 75.061 L 293.116 102.052 L 319.296 91.842 L 346.321 102.042 Z" fill="#fde100" fill-rule="evenodd"/><path clip-rule="evenodd" d="m 124.016 642.126 c -.671 -.42 -1.52 -.816 -2.461 -1.193 c -.938 -.374 -2.014 -.694 -3.222 -.97 c -1.161 -.266 -2.46 -.464 -3.892 -.554 c -2.549 -.162 -4.787 .062 -6.755 .649 c -1.966 .586 -3.639 1.473 -5.011 2.672 c -1.357 1.185 -2.352 2.627 -3.042 4.292 c -.696 1.678 -1.075 3.497 -1.075 5.491 c 0 2.789 .907 5.375 2.685 7.788 c 1.756 2.384 4.377 4.576 7.875 6.507 c 1.512 .836 2.725 1.586 3.714 2.311 c .979 .716 1.701 1.445 2.146 2.201 c .45 .768 .672 1.605 .672 2.548 c 0 .938 -.228 1.74 -.672 2.413 c -.449 .682 -1.167 1.178 -2.102 1.514 c -.899 .325 -2.06 .466 -3.491 .365 c -1.162 -.079 -2.371 -.284 -3.534 -.586 c -1.163 -.301 -2.284 -.686 -3.311 -1.117 c -1.029 -.432 -1.923 -.894 -2.729 -1.386 c -.581 2.954 -1.162 5.904 -1.7 8.852 c .716 .464 1.604 .921 2.73 1.361 c 1.156 .451 2.414 .827 3.801 1.159 c 1.386 .329 2.863 .553 4.34 .653 c 2.685 .187 5.058 -.011 7.113 -.574 c 2.06 -.567 3.846 -1.46 5.279 -2.662 c 1.429 -1.198 2.526 -2.654 3.267 -4.395 c .735 -1.727 1.118 -3.683 1.118 -5.824 c 0 -1.937 -.359 -3.766 -1.029 -5.478 c -.67 -1.71 -1.748 -3.31 -3.22 -4.801 c -1.48 -1.498 -3.357 -2.886 -5.683 -4.151 c -1.791 -.975 -3.186 -1.816 -4.25 -2.554 c -1.037 -.719 -1.777 -1.447 -2.237 -2.118 c -.478 -.695 -.693 -1.462 -.671 -2.305 c .02 -.777 .195 -1.471 .626 -2.101 c .417 -.607 1.031 -1.099 1.879 -1.428 c .852 -.331 1.926 -.478 3.222 -.392 c 1.208 .083 2.279 .276 3.22 .537 c .983 .273 1.833 .574 2.595 .925 c .758 .351 1.432 .687 1.925 1.012 c .627 -2.884 1.253 -5.776 1.88 -8.661 z m 32.926 .468 v 0 c -4.249 -.225 -8.499 -.475 -12.706 -.723 c -1.967 7.705 -3.937 15.402 -5.86 23.097 c -1.925 7.697 -3.847 15.396 -5.771 23.096 c 3.354 .198 6.754 .408 10.154 .611 c .762 -3.594 1.566 -7.18 2.371 -10.773 c 3.357 .204 6.756 .406 10.156 .588 c .851 3.684 1.7 7.366 2.55 11.049 c 3.445 .175 6.891 .351 10.38 .529 c -1.879 -7.912 -3.758 -15.827 -5.637 -23.737 c -1.877 -7.91 -3.757 -15.822 -5.637 -23.737 z m -10.602 27.309 v 0 c .626 -3.095 1.306 -6.184 1.968 -9.284 c .143 -.672 .292 -1.415 .448 -2.238 c .156 -.821 .291 -1.68 .447 -2.559 c .157 -.89 .315 -1.751 .493 -2.586 c .18 -.847 .313 -1.634 .447 -2.339 c .044 0 .09 .007 .135 .007 c .133 .723 .287 1.511 .447 2.377 c .153 .838 .334 1.72 .493 2.615 c .154 .877 .291 1.764 .447 2.608 c .156 .847 .343 1.615 .493 2.338 c .656 3.17 1.252 6.344 1.922 9.514 c -2.595 -.147 -5.19 -.298 -7.74 -.453 z m 64.066 -24.875 v 0 c -3.042 -.124 -6.039 -.248 -9.037 -.372 c 0 3.728 0 7.444 0 11.166 c 0 2.604 .067 5.123 .135 7.586 c .066 2.451 .2 4.772 .313 6.977 c .111 2.194 .268 4.219 .447 6.062 c -.044 0 -.089 -.007 -.134 -.007 c -.403 -1.21 -.85 -2.475 -1.342 -3.803 c -.491 -1.32 -1.051 -2.642 -1.566 -3.985 c -.513 -1.338 -1.029 -2.645 -1.565 -3.903 c -.537 -1.259 -1.087 -2.42 -1.565 -3.497 c -1.266 -2.847 -2.506 -5.704 -3.758 -8.558 c -1.252 -2.852 -2.505 -5.71 -3.759 -8.563 c -3.58 -.147 -7.158 -.311 -10.737 -.485 c 0 7.822 0 15.64 0 23.458 c 0 7.816 0 15.64 0 23.458 c 2.997 .151 5.995 .275 9.037 .404 c 0 -3.841 0 -7.68 0 -11.527 c 0 -4.198 -.09 -8.066 -.178 -11.596 c -.09 -3.535 -.224 -6.678 -.359 -9.428 c .046 0 .135 .006 .224 .011 c .403 1.244 .851 2.537 1.343 3.893 c .491 1.356 1.034 2.723 1.566 4.095 c .54 1.394 1.119 2.74 1.655 4.051 c .539 1.314 1.098 2.539 1.61 3.699 c 1.276 2.888 2.549 5.795 3.803 8.693 c 1.251 2.892 2.596 5.788 3.892 8.687 c 3.312 .141 6.622 .282 9.977 .401 c 0 -7.818 0 -15.642 0 -23.458 c 0 -7.816 -.002 -15.635 -.002 -23.459 z m 39.327 1.203 v 0 c -10.067 -.244 -20.088 -.564 -30.11 -.892 c 0 3.117 0 6.229 0 9.347 c 3.312 .107 6.623 .217 9.977 .323 c 0 6.263 0 12.527 0 18.786 c 0 6.258 0 12.527 0 18.786 c 3.311 .112 6.666 .227 10.022 .305 c 0 -6.252 0 -12.517 0 -18.774 c 0 -6.252 0 -12.523 0 -18.782 c 3.355 .086 6.71 .165 10.111 .244 c 0 -3.112 0 -6.224 0 -9.343 z m 29.125 .578 v 0 c -4.251 -.058 -8.502 -.119 -12.706 -.198 c -1.97 7.771 -3.939 15.549 -5.861 23.316 c -1.924 7.771 -3.849 15.544 -5.772 23.315 c 3.355 .081 6.756 .16 10.156 .239 c .76 -3.627 1.565 -7.255 2.372 -10.88 c 3.355 .052 6.757 .097 10.156 .146 c .85 3.661 1.698 7.306 2.55 10.954 c 3.444 .049 6.889 .101 10.378 .152 c -1.879 -7.84 -3.758 -15.687 -5.636 -23.524 c -1.879 -7.836 -3.758 -15.676 -5.637 -23.52 z m -10.604 27.737 v 0 c .671 -3.116 1.351 -6.239 2.013 -9.364 c .143 -.675 .269 -1.423 .403 -2.259 c .135 -.825 .336 -1.68 .492 -2.569 c .156 -.889 .293 -1.772 .447 -2.61 c .159 -.86 .313 -1.644 .448 -2.354 c .044 0 .089 0 .134 0 c .135 .716 .291 1.5 .447 2.349 c .156 .844 .314 1.712 .491 2.599 c .179 .875 .336 1.746 .493 2.58 c .157 .84 .308 1.612 .447 2.323 c .621 3.146 1.253 6.28 1.924 9.42 c -2.594 -.034 -5.188 -.075 -7.739 -.115 z m 79.547 -27.462 v 0 c -4.027 .018 -8.054 .034 -12.079 .056 c -.627 2.516 -1.253 5.04 -1.88 7.554 c -.626 2.519 -1.257 5.032 -1.878 7.552 c -.451 1.823 -.871 3.685 -1.298 5.598 c -.422 1.894 -.806 3.797 -1.163 5.694 c -.357 1.896 -.717 3.749 -1.03 5.562 c -.09 0 -.179 0 -.223 0 c -.403 -2.768 -.941 -5.551 -1.521 -8.359 c -.582 -2.817 -1.179 -5.619 -1.833 -8.404 c -.597 -2.528 -1.21 -5.049 -1.791 -7.575 c -.582 -2.522 -1.164 -5.055 -1.744 -7.586 c -4.117 -.017 -8.188 -.034 -12.258 -.056 c -.538 7.813 -1.029 15.618 -1.521 23.425 c -.491 7.799 -.984 15.611 -1.477 23.41 c 2.998 .018 5.995 .035 8.992 .052 c .09 -2.772 .27 -5.557 .358 -8.331 c .091 -2.772 .292 -5.558 .403 -8.336 c .069 -1.695 .135 -3.515 .225 -5.461 c .09 -1.961 .156 -3.963 .222 -6.007 c .066 -2.039 .18 -4.044 .225 -5.986 c .045 0 .089 0 .178 0 c .313 1.932 .626 3.892 .986 5.875 c .356 1.976 .737 3.889 1.117 5.727 c .38 1.845 .773 3.505 1.12 5.022 c .637 2.781 1.297 5.563 1.923 8.341 c .627 2.78 1.342 5.553 2.015 8.331 c 2.505 -.01 5.055 -.027 7.604 -.033 c .717 -2.801 1.433 -5.603 2.146 -8.398 c .717 -2.801 1.396 -5.606 2.148 -8.404 c .408 -1.522 .85 -3.188 1.298 -5.027 c .445 -1.83 .895 -3.729 1.343 -5.694 c .445 -1.96 .896 -3.886 1.252 -5.777 c .045 0 .089 0 .179 -.007 c -.045 2.073 .023 4.123 .044 6.152 c .022 2.032 .069 3.999 .137 5.896 c .064 1.898 .154 3.677 .224 5.348 c .11 2.785 .178 5.57 .267 8.36 c .09 2.784 .224 5.576 .358 8.358 c 3.132 -.017 6.264 -.027 9.439 -.062 c -.447 -7.795 -.895 -15.601 -1.296 -23.394 c -.405 -7.804 -.81 -15.616 -1.211 -23.416 z m 34.717 -.468 v 0 c -4.249 .073 -8.499 .141 -12.706 .196 c -1.967 7.836 -3.937 15.67 -5.859 23.493 c -1.925 7.827 -3.848 15.656 -5.771 23.479 c 3.355 -.045 6.755 -.09 10.156 -.142 c .804 -3.638 1.61 -7.279 2.415 -10.929 c 3.354 -.047 6.711 -.096 10.11 -.171 c .852 3.61 1.701 7.221 2.595 10.824 c 3.446 -.082 6.892 -.158 10.336 -.237 c -1.88 -7.75 -3.759 -15.505 -5.637 -23.255 c -1.88 -7.746 -3.76 -15.503 -5.639 -23.258 z m -10.603 28.026 v 0 c .671 -3.133 1.354 -6.272 2.015 -9.415 c .141 -.675 .247 -1.432 .401 -2.266 c .156 -.831 .336 -1.687 .492 -2.58 c .156 -.899 .294 -1.778 .447 -2.62 c .159 -.861 .314 -1.656 .493 -2.368 c 0 0 .045 0 .089 0 c .133 .707 .29 1.49 .447 2.334 c .155 .834 .336 1.703 .493 2.575 c .155 .872 .313 1.734 .49 2.563 c .18 .836 .309 1.601 .448 2.306 c .62 3.119 1.252 6.235 1.923 9.341 c -2.592 .051 -5.188 .092 -7.738 .13 z m 53.553 -4.536 v 0 c 1.344 -.62 2.582 -1.514 3.669 -2.638 c 1.105 -1.143 1.992 -2.466 2.641 -4.016 c .648 -1.544 .982 -3.247 .982 -5.09 c 0 -2.135 -.314 -3.937 -.895 -5.42 c -.582 -1.492 -1.342 -2.713 -2.325 -3.672 c -.984 -.963 -2.052 -1.713 -3.266 -2.249 c -1.247 -.547 -2.506 -.924 -3.803 -1.158 c -1.298 -.233 -2.553 -.37 -3.804 -.406 c -1.209 -.034 -2.325 -.034 -3.31 .006 c -1.521 .06 -2.999 .144 -4.432 .276 c -1.43 .132 -2.773 .293 -4.025 .464 c -1.253 .173 -2.415 .371 -3.445 .575 c 0 7.688 0 15.38 0 23.068 c 0 7.688 0 15.381 0 23.063 c 3.312 -.109 6.622 -.217 9.978 -.329 c 0 -3.027 0 -6.066 0 -9.1 c 0 -3.026 0 -6.066 0 -9.105 c .626 -.017 1.255 -.029 1.925 -.062 c 1.116 -.052 2.053 .121 2.817 .513 c .754 .387 1.368 1.109 1.834 2.138 c .473 1.039 .871 2.492 1.209 4.354 c .333 1.838 .692 3.486 1.028 4.97 c .333 1.477 .65 2.729 .939 3.747 c .291 1.025 .537 1.761 .716 2.201 c 3.444 -.113 6.89 -.227 10.38 -.361 c -.224 -.464 -.448 -1.147 -.716 -2.066 c -.269 -.921 -.538 -1.988 -.807 -3.198 c -.27 -1.214 -.56 -2.489 -.85 -3.802 c -.292 -1.323 -.607 -2.61 -.895 -3.869 c -.339 -1.479 -.715 -2.803 -1.207 -3.948 c -.49 -1.141 -1.077 -2.101 -1.79 -2.881 c -.718 -.782 -1.565 -1.376 -2.551 -1.761 c .003 -.079 .003 -.158 .003 -.244 z m -12.034 -3.592 v 0 c 0 -2.105 0 -4.213 0 -6.318 c 0 -2.107 0 -4.215 0 -6.32 c .268 -.103 .673 -.188 1.253 -.261 c .538 -.066 1.209 -.126 1.969 -.151 c .626 -.023 1.254 .019 1.968 .173 c .671 .146 1.333 .453 1.924 .876 c .615 .44 1.162 1.059 1.566 1.881 c .401 .825 .58 1.898 .58 3.222 c 0 1.28 -.248 2.43 -.761 3.426 c -.517 1.009 -1.295 1.807 -2.28 2.402 c -.982 .595 -2.193 .932 -3.623 .987 c -.896 .033 -1.747 .057 -2.596 .083 z m 30.243 24.966 v 0 c 3.355 -.147 6.71 -.295 10.067 -.436 c 0 -7.789 0 -15.584 0 -23.373 c 0 -7.788 0 -15.588 0 -23.383 c -3.357 .141 -6.712 .288 -10.067 .436 c 0 7.793 0 15.589 0 23.377 c 0 7.79 0 15.585 0 23.379 z m 54.985 -49.591 v 0 c -3.043 .192 -6.04 .384 -9.038 .57 c 0 3.717 0 7.421 0 11.128 c 0 2.59 .066 5.1 .135 7.545 c .066 2.438 .2 4.731 .313 6.914 c .111 2.181 .268 4.175 .402 5.993 c -.044 .005 -.089 .005 -.089 .005 c -.404 -1.163 -.851 -2.377 -1.344 -3.649 c -.491 -1.269 -1.05 -2.534 -1.565 -3.816 c -.516 -1.283 -1.029 -2.537 -1.565 -3.74 c -.537 -1.202 -1.087 -2.311 -1.567 -3.337 c -1.264 -2.713 -2.504 -5.453 -3.756 -8.174 c -1.253 -2.723 -2.506 -5.45 -3.759 -8.187 c -3.579 .195 -7.159 .385 -10.737 .577 c 0 7.795 0 15.588 0 23.373 c 0 7.788 0 15.583 0 23.372 c 2.998 -.157 5.994 -.31 9.037 -.472 c 0 -3.83 0 -7.667 0 -11.495 c 0 -4.186 -.09 -8.032 -.179 -11.54 c -.091 -3.512 -.223 -6.633 -.359 -9.36 c .046 0 .137 -.006 .225 -.01 c .402 1.201 .849 2.44 1.342 3.755 c .49 1.3 1.034 2.614 1.567 3.931 c .538 1.332 1.121 2.621 1.654 3.876 c .539 1.263 1.1 2.43 1.61 3.534 c 1.278 2.767 2.55 5.543 3.803 8.305 c 1.252 2.761 2.596 5.529 3.893 8.28 c 3.312 -.199 6.621 -.413 9.978 -.622 c 0 -7.789 0 -15.584 0 -23.373 c -.001 -7.789 -.001 -15.588 -.001 -23.383 z m 33.374 -2.287 v 0 c -4.249 .316 -8.499 .626 -12.705 .936 c -1.969 7.947 -3.938 15.886 -5.861 23.799 c -1.924 7.916 -3.847 15.838 -5.771 23.744 c 3.355 -.209 6.755 -.417 10.155 -.654 c .805 -3.683 1.611 -7.365 2.415 -11.061 c 3.356 -.244 6.712 -.485 10.111 -.728 c .852 3.57 1.7 7.14 2.596 10.702 c 3.446 -.247 6.891 -.495 10.381 -.75 c -1.924 -7.66 -3.804 -15.332 -5.683 -22.994 c -1.878 -7.66 -3.758 -15.33 -5.638 -22.994 z m -10.602 28.626 v 0 c .671 -3.176 1.35 -6.35 2.014 -9.53 c .142 -.683 .247 -1.443 .402 -2.287 c .156 -.84 .316 -1.706 .492 -2.609 c .18 -.916 .337 -1.783 .491 -2.649 c .156 -.865 .314 -1.673 .448 -2.396 c 0 0 .046 0 .091 -.004 c .132 .705 .29 1.47 .445 2.311 c .155 .826 .337 1.68 .494 2.545 c .155 .861 .338 1.722 .49 2.538 c .158 .826 .309 1.581 .449 2.28 c .62 3.08 1.296 6.158 1.968 9.235 c -2.593 .185 -5.19 .378 -7.784 .566 z" fill-rule="evenodd"/><path clip-rule="evenodd" d="m 176.039 238.631 l 10.258 3.961 c -1.608 7.162 -4.258 12.388 -7.981 15.692 c -3.722 3.291 -8.308 4.944 -13.743 4.944 c -6.833 0 -12.373 -2.636 -16.616 -7.891 c -4.898 -6.074 -7.34 -14.279 -7.34 -24.597 c 0 -10.914 2.457 -19.446 7.384 -25.609 c 4.273 -5.345 10.007 -8.025 17.228 -8.025 c 5.866 0 10.78 2.01 14.74 6.015 c 2.814 2.859 4.884 7.088 6.194 12.702 l -10.467 3.052 c -.67 -3.469 -1.995 -6.12 -3.99 -7.967 c -1.995 -1.846 -4.348 -2.769 -7.043 -2.769 c -3.87 0 -7.027 1.683 -9.469 5.062 c -2.442 3.365 -3.663 8.934 -3.663 16.706 c 0 8.056 1.191 13.788 3.573 17.183 c 2.383 3.41 5.479 5.107 9.292 5.107 c 2.798 0 5.211 -1.087 7.236 -3.247 c 2.038 -2.174 3.513 -5.614 4.407 -10.319 z" fill="#ffed00" fill-rule="evenodd"/><path clip-rule="evenodd" d="m 380.977 198.191 h 19.311 c 4.884 0 8.576 .55 11.063 1.638 c 2.485 1.086 4.779 2.933 6.863 5.523 c 2.1 2.576 3.738 5.941 4.942 10.066 c 1.191 4.139 1.787 9.261 1.787 15.395 c 0 5.54 -.625 10.333 -1.876 14.428 c -1.25 4.08 -2.844 7.311 -4.765 9.708 c -1.921 2.381 -4.229 4.169 -6.952 5.375 c -2.726 1.206 -6.21 1.816 -10.497 1.816 h -19.877 v -63.949 z m 10.541 10.825 v 0 v 42.345 h 7.951 c 3.395 0 5.867 -.313 7.386 -.953 c 1.532 -.64 2.782 -1.608 3.751 -2.902 c .983 -1.296 1.787 -3.336 2.427 -6.135 c .641 -2.786 .953 -6.462 .953 -11.033 c 0 -4.735 -.327 -8.472 -.983 -11.212 c -.653 -2.725 -1.667 -4.883 -3.052 -6.446 c -1.384 -1.579 -3.052 -2.606 -5.032 -3.098 c -1.49 -.388 -4.348 -.566 -8.591 -.566 z" fill-rule="evenodd"/><path clip-rule="evenodd" d="m 453.889 241.341 l 10.333 -1.235 c 1.161 8.173 4.973 12.268 11.436 12.268 c 3.186 0 5.702 -.833 7.533 -2.515 c 1.847 -1.667 2.755 -3.738 2.755 -6.209 c 0 -1.459 -.313 -2.695 -.953 -3.708 c -.641 -1.027 -1.622 -1.861 -2.934 -2.515 c -1.31 -.656 -4.468 -1.743 -9.499 -3.292 c -4.512 -1.37 -7.816 -2.843 -9.901 -4.452 c -2.1 -1.593 -3.768 -3.693 -5.003 -6.298 c -1.235 -2.605 -1.847 -5.405 -1.847 -8.398 c 0 -3.484 .789 -6.625 2.368 -9.425 c 1.593 -2.785 3.781 -4.898 6.566 -6.327 c 2.799 -1.415 6.239 -2.129 10.347 -2.129 c 6.166 0 10.974 1.667 14.428 5.018 c 3.469 3.335 5.301 8.13 5.494 14.354 l -10.585 .565 c -.477 -3.439 -1.475 -5.837 -3.022 -7.207 c -1.534 -1.355 -3.737 -2.04 -6.582 -2.04 c -2.844 0 -5.047 .596 -6.581 1.787 c -1.548 1.19 -2.322 2.665 -2.322 4.452 c 0 1.742 .699 3.202 2.1 4.393 c 1.4 1.205 4.616 2.501 9.634 3.931 c 5.329 1.548 9.171 3.171 11.538 4.868 c 2.367 1.697 4.184 3.901 5.435 6.582 c 1.252 2.695 1.877 5.956 1.877 9.797 c 0 5.553 -1.713 10.214 -5.122 13.996 c -3.424 3.781 -8.77 5.672 -16.036 5.672 c -12.852 -.002 -20.014 -7.312 -21.457 -21.933 z" fill="#ffed00" fill-rule="evenodd"/><path clip-rule="evenodd" d="M 333.032 198.191 L 345.197 198.191 L 325.914 235.311 L 325.914 262.141 L 315.359 262.141 L 315.359 235.221 L 296.166 198.191 L 308.554 198.191 L 320.898 223.488 Z" fill="#ffed00" fill-rule="evenodd"/><path clip-rule="evenodd" d="m 220.094 241.341 l 10.333 -1.235 c 1.161 8.173 4.973 12.268 11.436 12.268 c 3.186 0 5.702 -.833 7.533 -2.515 c 1.847 -1.667 2.755 -3.738 2.755 -6.209 c 0 -1.459 -.313 -2.695 -.953 -3.708 c -.641 -1.027 -1.623 -1.861 -2.933 -2.515 c -1.311 -.656 -4.467 -1.743 -9.5 -3.292 c -4.512 -1.37 -7.816 -2.843 -9.901 -4.452 c -2.1 -1.593 -3.767 -3.693 -5.003 -6.298 c -1.235 -2.605 -1.847 -5.405 -1.847 -8.398 c 0 -3.484 .789 -6.625 2.368 -9.425 c 1.593 -2.785 3.782 -4.898 6.566 -6.327 c 2.799 -1.415 6.238 -2.129 10.348 -2.129 c 6.165 0 10.974 1.667 14.428 5.018 c 3.469 3.335 5.301 8.13 5.495 14.354 l -10.586 .565 c -.477 -3.439 -1.475 -5.837 -3.023 -7.207 c -1.534 -1.355 -3.737 -2.04 -6.582 -2.04 c -2.844 0 -5.047 .596 -6.581 1.787 c -1.548 1.19 -2.322 2.665 -2.322 4.452 c 0 1.742 .699 3.202 2.1 4.393 c 1.4 1.205 4.616 2.501 9.633 3.931 c 5.331 1.548 9.172 3.171 11.539 4.868 c 2.368 1.697 4.184 3.901 5.435 6.582 c 1.251 2.695 1.876 5.956 1.876 9.797 c 0 5.553 -1.713 10.214 -5.123 13.996 c -3.425 3.781 -8.77 5.672 -16.035 5.672 c -12.85 -.002 -20.012 -7.312 -21.456 -21.933 z" fill-rule="evenodd"/></g></g></g></svg>