<?xml version="1.0" encoding="UTF-8" standalone="no"?>
<svg
   xmlns:dc="http://purl.org/dc/elements/1.1/"
   xmlns:cc="http://creativecommons.org/ns#"
   xmlns:rdf="http://www.w3.org/1999/02/22-rdf-syntax-ns#"
   xmlns:svg="http://www.w3.org/2000/svg"
   xmlns="http://www.w3.org/2000/svg"
   xmlns:sodipodi="http://sodipodi.sourceforge.net/DTD/sodipodi-0.dtd"
   xmlns:inkscape="http://www.inkscape.org/namespaces/inkscape"
   width="1000"
   height="1000"
   viewBox="0 0 749.99998 750"
   version="1.1"
   id="svg51"
   sodipodi:docname="Club Atlético Estudiantes(Caseros).svg"
   inkscape:version="1.0.1 (3bc2e813f5, 2020-09-07)">
  <metadata
     id="metadata55">
    <rdf:RDF>
      <cc:Work
         rdf:about="">
        <dc:format>image/svg+xml</dc:format>
        <dc:type
           rdf:resource="http://purl.org/dc/dcmitype/StillImage" />
        <dc:title></dc:title>
      </cc:Work>
    </rdf:RDF>
  </metadata>
  <sodipodi:namedview
     pagecolor="#ffffff"
     bordercolor="#666666"
     borderopacity="1"
     objecttolerance="10"
     gridtolerance="10"
     guidetolerance="10"
     inkscape:pageopacity="0"
     inkscape:pageshadow="2"
     inkscape:window-width="1920"
     inkscape:window-height="1017"
     id="namedview53"
     showgrid="false"
     units="px"
     inkscape:zoom="0.845"
     inkscape:cx="500"
     inkscape:cy="500"
     inkscape:window-x="-8"
     inkscape:window-y="-8"
     inkscape:window-maximized="1"
     inkscape:current-layer="svg51" />
  <defs
     id="defs8">
    <clipPath
       id="clip1">
      <path
         d="M 5,145 H 482 V 695.80078 H 5 Z m 0,0"
         id="path2" />
    </clipPath>
    <clipPath
       id="clip2">
      <path
         d="M 3,144 H 482 V 695.80078 H 3 Z m 0,0"
         id="path5" />
    </clipPath>
  </defs>
  <g
     id="surface1"
     transform="matrix(1.0240193,0,0,1.0240193,128.19805,18.759952)">
    <g
       clip-path="url(#clip1)"
       clip-rule="nonzero"
       id="g12">
      <path
         style="fill:#000000;fill-opacity:1;fill-rule:evenodd;stroke:none"
         d="m 5.320313,245.81641 c 47.355468,-20.55078 87.203125,-54.24219 120.242187,-99.84375 41.98438,29.26562 71.03125,42.20312 118.02734,42.20312 46.99219,0 76.03907,-12.9375 118.02344,-42.20312 33.03906,45.60156 72.88672,79.29297 120.24219,99.84375 -14.64063,29.14843 -21.40625,59.70312 -22.34766,91.2539 C 453.53906,536.53125 376.41797,650.80859 243.58984,695.64844 110.75781,650.80859 33.636719,536.53125 27.667969,337.07031 26.726563,305.51953 19.960938,274.96484 5.320313,245.81641 Z m 0,0"
         id="path10" />
    </g>
    <g
       clip-path="url(#clip2)"
       clip-rule="nonzero"
       id="g16">
      <path
         style="fill:none;stroke:#000000;stroke-width:2.454;stroke-linecap:butt;stroke-linejoin:miter;stroke-miterlimit:4;stroke-opacity:1"
         d="m 53.203125,4499.8359 c 473.554685,205.5078 872.031245,542.4219 1202.421875,998.4375 419.8437,-292.6562 710.3125,-422.0312 1180.2734,-422.0312 469.9219,0 760.3907,129.375 1180.2344,422.0312 C 3946.5234,5042.2578 4345,4705.3437 4818.5547,4499.8359 4672.1484,4208.3516 4604.4922,3902.8047 4595.0781,3587.2969 4535.3906,1592.6875 3764.1797,449.91406 2435.8984,1.515625 1107.5781,449.91406 336.36719,1592.6875 276.67969,3587.2969 c -9.41406,315.5078 -77.07031,621.0547 -223.476565,912.539 z m 0,0"
         transform="matrix(0.1,0,0,-0.1,0,695.8)"
         id="path14" />
    </g>
    <path
       style="fill:#ffffff;fill-opacity:1;fill-rule:evenodd;stroke:#ffffff;stroke-width:2.454;stroke-linecap:butt;stroke-linejoin:miter;stroke-miterlimit:4;stroke-opacity:1"
       d="M 1283.4766,5330.6953 C 993.78906,4956.125 641.95312,4648.1953 216.44531,4440.0312 332.65625,4170.6172 390.50781,3886.4375 399.33594,3590.9688 444.64844,2076.2813 912.85156,666.47656 2435.8984,131.32031 3958.9063,666.47656 4427.1094,2076.2813 4472.4219,3590.9688 c 8.8281,295.4687 66.6797,579.6484 182.8906,849.0624 -425.4688,208.1641 -777.3437,516.0938 -1067.0312,890.6641 -370.8594,-247.1484 -678.2422,-377.1875 -1152.3829,-377.1875 -474.1797,0 -781.5234,130.0391 -1152.4218,377.1875 z m 0,0"
       transform="matrix(0.1,0,0,-0.1,0,695.8)"
       id="path18" />
    <path
       style="fill:#000000;fill-opacity:1;fill-rule:evenodd;stroke:#000000;stroke-width:2.454;stroke-linecap:butt;stroke-linejoin:miter;stroke-miterlimit:4;stroke-opacity:1"
       d="M 1424.7266,3977.6875 V 1273.7812 c -478.63285,625.1172 -641.25004,1471.3672 -666.87504,2327.9297 -6.79687,227.5 -39.41406,450.8204 -100.78125,667.3438 -0.46875,1.6797 -0.97656,3.3594 -1.44531,5.039 3.08594,1.9141 6.13281,3.8282 9.21875,5.7813 258.16406,-125.0391 511.48435,-225.8984 759.88285,-302.1875 z m 0,0"
       transform="matrix(0.1,0,0,-0.1,0,695.8)"
       id="path20" />
    <path
       style="fill:#ffffff;fill-opacity:1;fill-rule:evenodd;stroke:#ffffff;stroke-width:2.454;stroke-linecap:butt;stroke-linejoin:miter;stroke-miterlimit:4;stroke-opacity:1"
       d="M 1607.2656,3925.8125 V 1062.4922 c -65.4297,67.1094 -126.1719,137.6562 -182.539,211.289 v 2703.9063 c 61.1328,-18.7891 121.9921,-36.0547 182.539,-51.875 z m 0,0"
       transform="matrix(0.1,0,0,-0.1,0,695.8)"
       id="path22" />
    <path
       style="fill:#000000;fill-opacity:1;fill-rule:evenodd;stroke:#000000;stroke-width:2.454;stroke-linecap:butt;stroke-linejoin:miter;stroke-miterlimit:4;stroke-opacity:1"
       d="M 2025.9375,3839.875 V 766.32031 l -68.5938,2.26563 c -129.414,88.35937 -245.7031,186.79687 -350.0781,293.90626 v 2863.3203 c 141.1719,-36.7969 280.7422,-65.4687 418.6719,-85.9375 z m 0,0"
       transform="matrix(0.1,0,0,-0.1,0,695.8)"
       id="path24" />
    <path
       style="fill:#ffffff;fill-opacity:1;fill-rule:evenodd;stroke:#ffffff;stroke-width:2.454;stroke-linecap:butt;stroke-linejoin:miter;stroke-miterlimit:4;stroke-opacity:1"
       d="M 2219.1797,3816.5156 V 760.03125 l -193.2422,6.28906 V 3839.875 c 64.8047,-9.6094 129.2188,-17.3828 193.2422,-23.3594 z m 0,0"
       transform="matrix(0.1,0,0,-0.1,0,695.8)"
       id="path26" />
    <path
       style="fill:#000000;fill-opacity:1;fill-rule:evenodd;stroke:#000000;stroke-width:2.454;stroke-linecap:butt;stroke-linejoin:miter;stroke-miterlimit:4;stroke-opacity:1"
       d="M 2691.5625,3806.2031 V 744.60156 l -472.3828,15.42969 V 3816.5156 c 159.7656,-14.8437 317.2266,-18.3203 472.3828,-10.3125 z m 0,0"
       transform="matrix(0.1,0,0,-0.1,0,695.8)"
       id="path28" />
    <path
       style="fill:#ffffff;fill-opacity:1;fill-rule:evenodd;stroke:#ffffff;stroke-width:2.454;stroke-linecap:butt;stroke-linejoin:miter;stroke-miterlimit:4;stroke-opacity:1"
       d="M 2884.8047,3822.2578 V 748.66406 c -5,-3.28125 -10,-6.5625 -15.0391,-9.84375 l -178.2031,5.78125 V 3806.2031 c 64.8047,3.3203 129.2188,8.6719 193.2422,16.0547 z m 0,0"
       transform="matrix(0.1,0,0,-0.1,0,695.8)"
       id="path30" />
    <path
       style="fill:#000000;fill-opacity:1;fill-rule:evenodd;stroke:#000000;stroke-width:2.454;stroke-linecap:butt;stroke-linejoin:miter;stroke-miterlimit:4;stroke-opacity:1"
       d="M 3303.5156,3900.8125 V 1103.5078 C 3181.6016,972.10156 3042.7344,853.03906 2884.8047,748.66406 V 3822.2578 c 141.5625,16.2891 281.1328,42.3828 418.7109,78.5547 z m 0,0"
       transform="matrix(0.1,0,0,-0.1,0,695.8)"
       id="path32" />
    <path
       style="fill:#ffffff;fill-opacity:1;fill-rule:evenodd;stroke:#ffffff;stroke-width:2.454;stroke-linecap:butt;stroke-linejoin:miter;stroke-miterlimit:4;stroke-opacity:1"
       d="m 3496.7578,3958.5859 v -2617.539 c -59.1015,-82.8907 -123.3984,-162.2657 -193.2422,-237.5391 v 2797.3047 c 64.8438,17.0313 129.2578,36.2891 193.2422,57.7734 z m 0,0"
       transform="matrix(0.1,0,0,-0.1,0,695.8)"
       id="path34" />
    <path
       style="fill:#000000;fill-opacity:1;fill-rule:evenodd;stroke:#000000;stroke-width:2.454;stroke-linecap:butt;stroke-linejoin:miter;stroke-miterlimit:4;stroke-opacity:1"
       d="m 3496.7578,3958.5859 v -2617.539 c 440.2735,617.8515 592.4219,1434.414 617.1484,2260.664 6.875,229.2969 39.9219,454.2969 102.2266,672.3828 -8.6328,5.3907 -17.2656,10.8204 -25.8594,16.2891 -224.9609,-141.6797 -456.1718,-252.0703 -693.5156,-331.7969 z m 0,0"
       transform="matrix(0.1,0,0,-0.1,0,695.8)"
       id="path36" />
    <path
       style="fill:#191717;fill-opacity:1;fill-rule:evenodd;stroke:none"
       d="m 169.14844,254.23438 9.51562,6.04296 c -3.20312,5.41407 -7.05468,9.02344 -11.54687,10.85157 -4.48828,1.8125 -9.57813,1.94531 -15.28125,0.3789 -7.0625,-1.9375 -12.19922,-5.9414 -15.42578,-12.01562 -3.21485,-6.07031 -3.67969,-13.28906 -1.38282,-21.65625 2.42969,-8.84766 6.60547,-15.09766 12.51563,-18.74219 5.90625,-3.64453 12.58984,-4.44141 20.03516,-2.39844 6.50781,1.78907 11.25781,5.16797 14.25781,10.12891 1.80078,2.94141 2.71094,6.69922 2.75,11.30469 l -11.30469,-0.39453 c 0.125,-2.91797 -0.58984,-5.45704 -2.14453,-7.59766 -1.56641,-2.14453 -3.76953,-3.60547 -6.61719,-4.38281 -3.9414,-1.08203 -7.53515,-0.55469 -10.76172,1.60547 -3.23437,2.14453 -5.71484,6.38281 -7.45703,12.71484 -1.83984,6.70703 -1.9414,11.82422 -0.3125,15.33203 1.64063,3.52344 4.39453,5.80859 8.26563,6.87109 2.85547,0.78516 5.5664,0.5586 8.11718,-0.69921 2.55079,-1.25391 4.81641,-3.69141 6.77735,-7.34375 z m 14.32422,23.92187 1.96484,-10.35937 10.35547,1.96093 -1.96094,10.35938 z m 89.30468,5.39063 -12.01562,0.16406 -4.92578,-12.48438 -22.09766,0.29297 -4.41015,12.60156 -11.80079,0.15625 20.66407,-55.3789 11.78906,-0.15625 z m -20.67968,-21.58204 -7.92578,-20.29296 -7.16797,20.49218 z M 278.51172,282.1875 277,271.75391 l 10.43359,-1.51172 1.51563,10.43359 z m 42.26562,-7.5 -15.70312,-52.81641 39.09375,-11.625 2.65234,8.92579 -28.39843,8.44531 3.48828,11.73047 26.40625,-7.85157 2.65625,8.92579 -26.41016,7.85156 4.25781,14.3125 29.42969,-8.75 2.65625,8.91797 z m 48.5586,-16.07422 -3.99219,-9.75781 9.75781,-3.98828 3.99219,9.76172 z m 0,0"
       id="path38" />
    <path
       style="fill:#d9d499;fill-opacity:1;fill-rule:evenodd;stroke:#d9d499;stroke-width:6.442;stroke-linecap:butt;stroke-linejoin:miter;stroke-miterlimit:4;stroke-opacity:1"
       d="m 2450,6947.6094 134.375,-416.3282 437.4219,0.8594 -354.375,-256.3672 135.9765,-415.7422 -353.3984,257.7735 -353.3594,-257.7735 135.9766,415.7422 -354.375,256.3672 437.4219,-0.8594 z m 0,0"
       transform="matrix(0.1,0,0,-0.1,0,695.8)"
       id="path40" />
    <path
       style="fill:#d9d499;fill-opacity:1;fill-rule:evenodd;stroke:#d9d499;stroke-width:6.442;stroke-linecap:butt;stroke-linejoin:miter;stroke-miterlimit:4;stroke-opacity:1"
       d="m 1190.7031,6754.3672 100.7813,-312.3047 328.164,0.625 -265.8593,-192.3438 102.0312,-311.9531 -265.1172,193.4375 -265.11716,-193.4375 101.99216,311.9531 -265.85935,192.3438 328.16405,-0.625 z m 0,0"
       transform="matrix(0.1,0,0,-0.1,0,695.8)"
       id="path42" />
    <path
       style="fill:#d9d499;fill-opacity:1;fill-rule:evenodd;stroke:#d9d499;stroke-width:6.442;stroke-linecap:butt;stroke-linejoin:miter;stroke-miterlimit:4;stroke-opacity:1"
       d="m 3595.5078,6732.8828 100.8203,-312.2656 328.1641,0.625 -265.8594,-192.3828 101.9922,-311.9141 -265.1172,193.3984 -265.1172,-193.3984 102.0313,311.9141 -265.8594,192.3828 328.125,-0.625 z m 0,0"
       transform="matrix(0.1,0,0,-0.1,0,695.8)"
       id="path44" />
    <path
       style="fill:#d9d499;fill-opacity:1;fill-rule:evenodd;stroke:#d9d499;stroke-width:6.442;stroke-linecap:butt;stroke-linejoin:miter;stroke-miterlimit:4;stroke-opacity:1"
       d="m 303.71094,6131.6719 68.98437,-213.711 224.53125,0.4297 -181.91406,-131.5625 69.80469,-213.4375 -181.40625,132.3438 -181.36719,-132.3438 69.76563,213.4375 -181.875005,131.5625 224.531255,-0.4297 z m 0,0"
       transform="matrix(0.1,0,0,-0.1,0,695.8)"
       id="path46" />
    <path
       style="fill:#d9d499;fill-opacity:1;fill-rule:evenodd;stroke:#d9d499;stroke-width:6.442;stroke-linecap:butt;stroke-linejoin:miter;stroke-miterlimit:4;stroke-opacity:1"
       d="m 4383.3203,6174.6016 68.9844,-213.6329 224.5312,0.4297 -181.914,-131.6406 69.8047,-213.3984 -181.4063,132.3437 -181.3672,-132.3437 69.7656,213.3984 -181.8749,131.6406 224.5312,-0.4297 z m 0,0"
       transform="matrix(0.1,0,0,-0.1,0,695.8)"
       id="path48" />
  </g>
</svg>
