<?xml version="1.0" encoding="UTF-8" standalone="no"?>
<svg
   xmlns:dc="http://purl.org/dc/elements/1.1/"
   xmlns:cc="http://creativecommons.org/ns#"
   xmlns:rdf="http://www.w3.org/1999/02/22-rdf-syntax-ns#"
   xmlns:svg="http://www.w3.org/2000/svg"
   xmlns="http://www.w3.org/2000/svg"
   xmlns:sodipodi="http://sodipodi.sourceforge.net/DTD/sodipodi-0.dtd"
   xmlns:inkscape="http://www.inkscape.org/namespaces/inkscape"
   width="1000"
   height="1000"
   viewBox="0 0 749.99998 750.00002"
   version="1.1"
   id="svg35"
   sodipodi:docname="Club Deportivo Morón.svg"
   inkscape:version="1.0.1 (3bc2e813f5, 2020-09-07)">
  <metadata
     id="metadata41">
    <rdf:RDF>
      <cc:Work
         rdf:about="">
        <dc:format>image/svg+xml</dc:format>
        <dc:type
           rdf:resource="http://purl.org/dc/dcmitype/StillImage" />
        <dc:title></dc:title>
      </cc:Work>
    </rdf:RDF>
  </metadata>
  <defs
     id="defs39" />
  <sodipodi:namedview
     pagecolor="#ffffff"
     bordercolor="#666666"
     borderopacity="1"
     objecttolerance="10"
     gridtolerance="10"
     guidetolerance="10"
     inkscape:pageopacity="0"
     inkscape:pageshadow="2"
     inkscape:window-width="1920"
     inkscape:window-height="1017"
     id="namedview37"
     showgrid="false"
     units="px"
     inkscape:zoom="0.845"
     inkscape:cx="500"
     inkscape:cy="500"
     inkscape:window-x="-8"
     inkscape:window-y="-8"
     inkscape:window-maximized="1"
     inkscape:current-layer="svg35" />
  <g
     id="surface1"
     transform="matrix(1.0454623,0,0,1.0454623,115.93326,18.346796)">
    <path
       style="fill:#eb1c23;fill-opacity:1;fill-rule:evenodd;stroke:none"
       d="m 17.015625,91.609375 c 0.875,16.710935 1.050781,33.773435 1.488281,50.402345 0.523438,16.88672 1.050782,33.77344 1.488282,50.66406 l 7.175781,353.59766 c 0.523437,18.11328 0.933594,27.76172 9.683594,40.625 3.5,5.16015 8.863281,10.125 14.027343,13.80078 31.390625,15.5625 92.996094,4.85156 149.777344,27.41015 18.50391,9.96485 27.10547,23.58985 39.09375,38.55469 l 9.93359,15.23828 0.44141,-0.35156 0.17188,-0.17578 2.36328,-3.23438 c 0.96484,-1.3125 1.83984,-2.45312 2.80078,-3.76562 2.625,-3.67188 6.80078,-10.09766 10.03906,-13.51172 1.18359,-3.23047 19.63281,-23.68359 24.75781,-25.875 33.07422,-26.69141 85.13672,-21.19531 116.66797,-25.08984 27.03906,-4.55078 39.42578,-1.21094 56.75391,-22.08594 8.66406,-12.16406 9.57422,-25 10.10156,-42.50391 l 4.11328,-252.70703 c 1.04688,-33.6875 2.01172,-67.28906 3.0625,-100.89062 0.17188,-4.11328 2.71094,-99.488284 3.14844,-100.800784 v -3.328125 c -8.66406,-1.222656 -13.91406,-2.886718 -22.57422,-4.199218 -26.95312,-4.113282 -53.28906,-7.523438 -80.58984,-10.148438 -28.17578,-2.625 -56.70313,-4.550781 -85.14063,-5.515625 l -29.40234,-0.785156 h -27.30078 c -1.75,0.4375 -12.51172,0.175781 -15.13672,0.261719 -14.78906,0.261718 -29.66406,0.875 -44.36328,1.574218 -19.25391,0.964844 -38.41407,2.449219 -57.40235,4.199219 -31.066404,2.976563 -64.753904,7.265625 -95.554685,12.425781 -1.222656,0.175782 -8.3125,1.75 -9.625,2.363282 z m 0,0"
       id="path2" />
    <path
       style="fill:#ffffff;fill-opacity:1;fill-rule:evenodd;stroke:none"
       d="m 44.40625,109.80859 c -0.175781,7.26172 0.261719,15.40235 0.4375,22.75 l 8.921875,408.375 c 0.175781,7.08985 0.34375,16.29297 1.140625,22.05078 3.003906,12.88282 9.671875,15.57813 21.523438,18.55079 44.820312,5.58984 98.609372,2.58593 147.441402,29.75 7.08985,4.28906 14.26563,13.03906 20.125,18.55078 1.14063,1.05078 1.92579,1.48828 3.0625,2.80078 0.61329,0.69922 2.1875,2.36328 3.06641,2.88672 l 7.4375,-7.08594 c 0.60938,-0.52344 0.96094,-0.78906 1.57422,-1.3125 3.76172,-3.58984 12.16016,-12.94922 17.0625,-15.83984 36.00391,-21.42579 73.55469,-20.96094 108.76172,-26.71094 12.95312,-2.1875 26.92969,-1.64063 39.29297,-4.61328 19.2539,-1.41407 22.48047,-11.19922 22.13672,-38.15235 l 9.71484,-386.0625 c 0.52344,-15.05078 0.52344,-30.71093 0.61328,-45.85156 -0.78906,-0.4375 -1.14062,-0.52344 -2.10156,-0.69922 -15.57422,-2.44922 -31.41406,-4.72265 -46.98828,-6.47265 -17.23828,-2.10157 -32.72657,-2.10157 -50.22657,-3.500004 -88.53515,-5.59375 -167.64062,-3.75 -262.945309,3.500004 -8.578125,0.96093 -17.0625,2.1875 -25.464843,3.41015 -8.226563,1.13672 -16.273438,2.80078 -24.324219,3.67578 z m 0,0"
       id="path4" />
    <path
       style="fill:#de000f;fill-opacity:1;fill-rule:evenodd;stroke:none"
       d="m 239.97266,211.57422 c -32.72657,0.52734 -65.36328,2.625 -97.30469,6.5625 -22.13672,2.71484 -45.410157,6.30078 -67.289064,10.67578 -3.03125,0.73047 -4.050781,2.37109 -4.363281,4.27344 -0.308594,1.87109 1.039063,4.57031 3.164063,4.7539 4.195312,0.22266 3.949218,0.17969 8.15625,-0.5039 l 33.296872,-5.98438 c 98.98438,-14.47265 199.36328,-13.05468 298.73438,4.89844 6.47265,1.22656 17.1914,4.88281 19.55078,-0.10937 1.08203,-4.52735 -2.22656,-5.22657 -4.85156,-6.45313 -3.15235,-1.48828 -39.98828,-7.4375 -43.92578,-8.05078 -48.21485,-7.34766 -95.99219,-10.84766 -145.16797,-10.0625 z m 0,0"
       id="path6" />
    <path
       style="fill:#ff0000;fill-opacity:1;fill-rule:evenodd;stroke:none"
       d="m 71.691406,237.63672 c -2.078125,-2.07813 -2.273437,-4.68359 -0.507812,-6.75 1.53125,-1.78906 15.035156,-4.58594 40.499996,-8.37891 17.02735,-2.53515 24.60547,-3.44922 50.39844,-6.08203 47.75391,-4.875 104.75781,-5.68359 154.4375,-2.1914 14.67969,1.03515 58.25,5.50781 66.23828,6.80078 3.56641,0.57812 11.17969,1.73828 16.92188,2.57812 16.5039,2.41406 31.79297,5.58985 33.25,6.91016 1.84375,1.66797 1.70312,5.57812 -0.26563,7.41015 -1.75781,1.64063 -3.11328,1.76563 -7.66015,0.71485 -7.9961,-1.84375 -39.23828,-6.65625 -58.08594,-8.94922 -78.37891,-9.53906 -150.90234,-9.53906 -229.67578,-0.004 -19.4336,2.35157 -52.191409,7.44532 -57.96094,9.01563 -3.953125,1.07422 -5.6875,0.82812 -7.589844,-1.07422 z M 113.3125,199.47656 c -10,-2.26953 -19.113281,-9.63672 -23.398437,-18.92187 -3.066407,-6.64063 -3.632813,-16.35156 -1.382813,-23.73047 3.441406,-11.30469 11.65234,-19.63281 22.54297,-22.86719 4.69922,-1.39453 15.51172,-1.4414 20.60156,-0.0859 5.41406,1.44141 12.39453,4.85547 15.5,7.58204 3.32813,2.92187 3.71485,6.71484 0.94922,9.3125 -2.50781,2.35546 -5.31641,2.10546 -10.51562,-0.94141 -8.23829,-4.82813 -18.83985,-6.08594 -25.33594,-3 -7.25391,3.44141 -12.09766,10.48437 -12.664065,18.41797 -0.464844,6.47265 2.066405,12.375 7.238285,16.89844 4.92968,4.3125 9.5625,5.67187 18.02734,5.29296 6.99219,-0.3164 11.375,-1.87109 17.04688,-6.05078 6.82812,-5.03125 13.58203,2.85938 7.94531,9.28125 -2.61719,2.98047 -9.20313,6.57422 -14.64453,7.99219 -6.23828,1.625 -16.64844,2.01563 -21.91016,0.82031 z m 227.26953,-3.21875 -1.1914,-1.1914 -0.66016,-1.54297 -0.25,-1.78516 V 166.125 c 0,-9.53125 0.0273,-16.24609 0.16016,-21.01562 0.0312,-1.10938 0.11718,-2.11719 0.11328,-3.02735 -0.0469,-7.34375 1.0664,-8.41406 2.63281,-9.2539 0.72656,-0.38672 2.01953,-1.09375 3.95703,-1.09375 2.73828,0 4.73047,0.75 5.875,2.01171 0.80469,0.89063 5.31641,8.82813 10.02344,17.63672 4.70703,8.8125 8.8789,15.91407 9.27734,15.78907 0.39453,-0.12891 2.85156,-4.09766 5.45313,-8.82032 12.01562,-21.78906 13.8164,-24.83984 15.07422,-25.51172 2.5039,-1.33984 6.96484,-0.84375 9.13281,1.01954 1.29687,1.11718 1.88281,2.84375 1.97656,7.01953 0.0117,0.66015 0.0273,1.39453 0.0352,2.21484 0.0547,5.41797 -0.0469,14.48047 -0.17188,29.92188 l -0.16406,19.98828 -0.0781,1.38281 -0.53125,1.03516 -1.17578,1.17578 c -2.40234,2.40234 -6.30078,2.40234 -8.70312,0 l -0.97266,-0.97266 -0.73047,-1.23828 -0.0664,-1.69922 V 178.23828 L 389.375,161.66797 c -0.29687,0.0117 -3.77344,5.23437 -7.33594,11.60547 -3.5625,6.37109 -7.2539,12.1914 -8.19531,12.9375 -2.05078,1.61328 -4.96484,1.74609 -7.00781,0.3125 -0.82031,-0.57031 -8.23438,-13.31641 -8.23438,-13.31641 l -5.66406,-9.61328 c -1.0625,-1.80078 -1.74219,-1.94141 -2,-1.25 -0.082,0.21484 -0.0625,0.83984 -0.0781,1.24609 -0.0195,0.46094 -0.0664,0.73047 -0.0156,1.42579 0.0742,1.11718 0.0781,8.1289 0.008,15.58203 l -0.12109,10.65625 -0.19922,2.26953 -0.60937,1.42969 -1.3086,1.30468 c -1.26953,1.26953 -2.86328,1.47266 -4.01562,1.47266 -1.15235,0 -2.7461,-0.20313 -4.01563,-1.47266 h 0.004 z m -124.77344,-6.02343 c -1.04687,-1.04297 -1.68359,-1.51954 -1.95312,-3.64844 0,0 -0.20703,-10.94141 -0.17578,-17.70703 0.0664,-13.35547 0.0234,-18.39844 0.0234,-18.39844 l 0.15625,-19.78125 c 0.0195,-2.36719 1.80468,-2.94531 2.69531,-3.53516 2.8164,-1.28515 32.07812,-1.05859 37.24609,0.28906 11.32422,2.94922 19.5625,12.94532 21.46094,26.02735 2.59375,17.87109 -6.87891,32.92578 -23.54297,37.41406 -2.48047,0.67188 -8.35937,0.97656 -18.92969,0.98047 -15.02343,0.008 -15.36718,-0.0234 -16.98047,-1.64062 z m 36.86329,-13.08594 c 7.38281,-4.0625 10.61328,-10.39453 10.05468,-19.70703 -0.38672,-6.51953 -2.02343,-10.1836 -6.24609,-13.9961 -4.32813,-3.91406 -8.71875,-4.92578 -20.32031,-4.68359 l -9.64063,0.20312 -0.1914,19.42969 c -0.10547,10.6836 -0.0195,19.8711 0.1875,20.41406 0.30468,0.79688 2.53125,0.9375 11.35156,0.71875 10.53515,-0.26171 11.125,-0.35546 14.80469,-2.3789 z m 0,0"
       id="path8" />
    <path
       style="fill:#ff0000;fill-opacity:1;fill-rule:evenodd;stroke:none"
       d="m 218.50781,254.55859 c -0.17578,0.0117 -0.35937,0.043 -0.55078,0.0859 -1.23437,0.23438 -2.00781,0.77735 -2.47265,1.63281 -0.38672,0.78125 -1.00391,1.875 -1.23438,2.8086 -0.54297,2.49219 -0.23437,4.4414 -1.93359,6.07422 -0.85157,0.78125 -1.9336,0.78125 -3.01563,0.15625 -0.85156,-0.46875 -1.46484,-1.16797 -2.16406,-1.79297 -1.08203,-1.08985 -2.39453,-3.19141 -5.17578,-2.72656 -2.32031,0.39062 -1.9336,4.1289 -1.54688,5.84375 1.15625,4.51953 4.25,5.92187 7.03125,8.95703 1.16016,1.24609 3.17188,3.27343 2.62891,5.22265 -1.23828,0.6211 -3.86328,-0.93359 -6.80078,-1.40234 -2.9375,-0.46875 -5.02344,-0.78125 -8.11719,-0.54688 -2.31641,0.15625 -5.17578,0.69922 -7.03125,1.63672 -1.00391,0.46485 -2.78516,1.78907 -3.94531,2.49219 -0.53906,0.39063 -0.61719,1.01172 -0.38281,1.71484 0.23046,0.23438 3.9414,1.16797 4.55859,1.40235 2.08594,0.69922 5.02344,3.8164 6.64844,5.45312 0.61718,0.6211 2.23828,2.80469 1.69922,4.05078 -0.46485,1.01172 -2.47266,1.63672 -3.78516,2.17969 -3.48047,1.48047 -6.57422,3.42969 -9.89453,5.29688 -0.69531,0.39062 -1.3125,0.85547 -1.3125,1.71484 1.39062,1.08984 4.94531,0.46875 7.03125,0.77734 0.23437,1.17188 -2.00781,2.02735 -2.9375,2.57422 -1.23438,0.77735 -2.39453,1.39844 -3.55469,2.25782 -1.3125,1.01171 -4.94531,4.05078 -6.18359,5.29687 -1.3125,1.40234 -3.94141,4.90625 -4.63672,6.85547 -1.625,4.90625 -0.0781,9.42578 2.70312,13.32031 1.16016,1.5586 1.31641,2.17969 0.6211,4.28516 -0.92969,2.88281 -1.9336,6.07812 -2.55078,9.03515 -1.46875,6.46875 -1.46875,14.87891 -0.46485,21.5 2.16406,13.63282 6.95703,23.52735 13.13672,33.03125 2.9375,4.51954 8.58203,12.3086 12.36719,16.4375 0.62109,0.6211 0.77734,0.9336 1.39453,1.5586 0.53906,0.46484 0.77344,1.01172 1.39062,1.48047 1.00391,0.93359 1.85547,2.02343 2.9375,2.88281 l 3.16797,2.64844 c 9.19922,7.39843 17.23828,11.14062 23.42188,22.66797 1.3125,2.49218 2.54687,4.32812 1.39062,7.51953 -0.46484,1.48047 -1.47265,2.80468 -2.32031,3.50781 -3.48047,2.72656 -10.66797,0.54297 -14.375,-0.46875 -4.5625,-1.24609 -15.15234,-3.27344 -19.40234,-3.58594 -3.86328,-0.30859 -6.80078,-0.38672 -10.125,1.09375 -1.23438,0.54297 -2.24219,1.40235 -3.63282,2.02344 -2.3164,1.01172 -2.70312,0.46875 -5.02343,0.78125 -3.40235,0.46484 -4.17188,2.17969 -9.35157,2.25781 -2.32031,0 -3.09375,-0.39062 -5.02343,0.625 -2.32032,1.16797 -2.78516,2.64844 -4.25391,4.44141 -1.46875,1.71094 -4.48047,2.17969 -5.48437,3.1914 -0.77344,0.78125 -1.85547,1.94922 -2.16407,3.50391 -0.23437,1.25 -0.30859,4.36328 0,5.53125 0.0781,0.39063 0.69532,1.40234 0.92578,1.94922 0.38672,0.77734 0.61719,1.16797 1.3125,1.63672 1.31641,1.01172 1.85547,1.79297 4.17579,1.63672 -0.15625,-1.94922 -1.46875,-1.63672 -1.39063,-4.13282 0.69531,-0.46484 1.92969,-0.85546 2.70313,-1.32031 0.85156,-0.46875 1.69921,-1.17187 2.24218,-1.87109 1.46875,-2.1836 -1.08203,-2.64844 2.78125,-5.375 3.71094,-2.57031 4.5625,-2.57031 8.50391,-3.73828 1.00391,-0.3125 2.47266,-0.78125 3.32422,0 -0.38672,0.77734 -2.32031,0.93359 -4.17578,2.17968 -3.01172,2.02735 -4.5586,3.19532 -6.72266,5.92188 -1.31641,1.71094 -1.54687,1.32422 -2.47266,3.89453 -0.54296,1.63281 -1.39453,3.11328 -1.08203,5.0625 0.61719,3.03906 2.31641,6.07422 5.02344,7.63281 1.3125,0.78125 2.62891,1.79297 4.63672,1.2461 0,-1.08985 -0.69531,-1.40235 -1.39063,-1.94532 -1.625,-1.09375 -5.10156,-3.8164 -2.39843,-5.76562 0.77343,-0.62109 1.77734,-0.3125 2.85937,-0.46484 0.77344,-0.15625 1.54688,-0.9375 1.78125,-1.64063 0.76953,-2.17969 -1.16015,-3.66016 -0.69531,-5.91797 0.38281,-1.94922 1.85547,-2.25781 3.63281,-3.03906 2.625,-1.08984 2.16016,-0.62109 3.78516,-1.16797 0.46484,-0.15625 0.77344,-0.39062 1.23828,-0.46875 2.31641,-0.85547 3.47656,0.625 4.48047,1.55859 5.95312,5.76563 9.19922,2.96094 15.61328,4.44141 2.78516,0.62109 3.16797,-0.0781 5.41016,-0.85547 0.92968,-0.3125 1.625,0.46485 1.93359,1.08985 0.69531,1.48046 -0.54297,5.76562 1.39062,5.21875 0.69532,-0.23438 1.08204,-1.32422 1.3125,-2.10157 1.31641,-3.66406 2.32032,-7.16797 -1.85156,-9.42968 -3.01562,-1.63282 -4.2539,-0.3086 -5.33594,0 -1.23437,0.3125 -5.02343,0.23437 -6.49218,0.15625 -4.63672,0 -10.97266,-5.9961 -0.0742,-8.25782 3.39844,-0.69922 8.65625,0.23438 11.74609,1.25 1.77735,0.6211 3.16797,1.24219 4.8711,1.86719 0.84765,0.3125 1.69921,0.46875 2.54687,0.78125 5.10156,1.71094 8.11719,2.80469 13.99219,2.72656 5.48828,-0.0781 5.02344,-1.94922 11.67187,-1.71484 6.33594,0.30859 11.20313,0.23437 15.84375,-4.05078 0.76953,-0.70313 2.47266,-2.88281 2.00782,-4.67578 -1.00391,-0.3086 -2.85938,1.32422 -4.01954,1.79297 -3.24609,1.24609 -6.8789,1.87109 -10.43359,1.87109 -1.00391,0 -1.92969,-0.0781 -2.85937,-0.23438 -1.6211,-0.23437 -1.23438,-0.23437 -2.16407,-1.01562 0.0781,-0.77734 0.61719,-1.63281 0.92578,-2.17969 1.70313,-2.33594 2.86329,-1.13281 6.10938,-1.59765 11.74609,-1.79297 15.76562,-5.29688 19.01172,-6.07813 1.70312,-0.39062 2.55078,1.48047 4.5625,3.11719 l 2.54687,2.17969 c 4.01953,3.58593 10.35938,7.08984 15.07422,10.1289 1.08203,0.69922 0.77344,0.85547 1.46875,1.55469 0.53906,0.54687 1.08203,0.85937 1.54297,1.64062 0.77344,1.16797 1.47266,2.87891 2.08984,4.20313 1.54688,3.03906 1.3125,7.63281 1.54297,11.14062 0.0781,0.9336 0.3086,1.71485 0.38672,2.64844 0.0234,0.90235 0.0586,1.19531 0.0899,1.27344 -0.0352,0.14844 -0.0781,0.39844 -0.16407,1.07422 -0.23437,1.79297 -0.62109,3.35156 -1.3164,4.90625 -0.92578,2.10547 -1.46875,2.18359 -2.85938,3.42969 -3.63281,3.19531 -4.71484,2.02734 -10.04687,2.49218 -5.56641,0.46875 -7.96094,4.28516 -12.21094,6.6211 -1.77734,1.01171 -2.55078,1.32421 -5.02344,1.32421 -1.93359,0 -3.71094,0.23438 -5.17969,1.08985 -2.32031,1.40234 -2.16406,2.49609 -3.01562,3.35156 -2.55078,2.49219 -3.86328,5.21875 -2.85938,9.03906 0.0781,0.38672 0.23047,0.85547 0.46094,1.16407 1.16016,1.48046 2.08985,3.11718 3.32422,4.59765 l 0.69922,0.9375 c 0.38672,0.46485 0.30859,0.54297 0.92578,0.6211 0.0781,-1.71485 -1.3125,-3.58594 -1.54687,-5.45313 -0.15235,-1.55859 -0.53907,-5.6875 1.93359,-4.20703 1.39062,0.85547 1.23828,2.10547 5.25781,1.24609 2.23828,-0.46484 4.17188,-3.34765 5.41016,-4.98437 2.08594,-2.80469 2.47265,-2.57031 6.25781,-4.28516 0.77344,-0.39062 1.625,-0.69922 2.32031,-1.08984 0.38672,-0.15625 0.77344,-0.39063 1.15625,-0.54688 0.69922,-0.15625 0.85157,-0.0781 1.47266,-0.39062 1.08203,-0.46485 1.77734,-0.38672 2.85937,-0.6211 0.46094,-0.0781 0.84766,-0.3125 1.3125,-0.39062 0.3086,-0.0781 0.6211,-0.0781 0.92969,-0.0781 0.0742,0 0.3086,0 0.38281,0.0781 1.39454,0.39062 -0.23046,2.18359 -0.46093,2.57031 -1.00782,1.40235 -1.77735,2.96094 -2.9375,4.20703 -0.54297,0.625 -1.00782,1.32813 -1.54688,2.02735 -1.93359,2.64843 -3.86328,5.76562 -5.64062,8.72265 -1.77735,2.88282 -3.63282,6.6211 -3.48047,10.98438 0.15625,3.66015 3.24609,7.71484 6.72656,7.71484 0.15234,-1.55859 -1.46875,-1.94922 -2.70703,-4.28515 -1.00391,-2.02735 -0.61719,-3.97266 0.77344,-5.0625 1.625,-1.25 3.63281,-0.54688 5.41015,0.15234 1.23828,0.46875 1.3125,0.625 2.85938,0.54687 1.16015,-0.0781 1.93359,-0.46875 2.32031,-1.24609 0.85156,-1.63672 0,-4.36328 -0.77344,-5.60937 -0.46484,-0.70313 -0.92968,-1.32422 -1.16015,-2.26172 -0.15625,-0.85547 -0.23047,-2.25782 0.30859,-2.95703 0.46484,-0.625 1.08203,-2.96094 2.32031,-4.75391 0.92578,-1.32422 1.9336,-3.50391 3.16797,-4.36328 0.3086,-0.23047 0,0.082 0.23047,-0.15235 l 1.16016,-1.48046 c 0.30859,-0.39063 0.46484,-0.625 0.77343,-0.9336 0.38672,-0.39062 0.54297,-0.625 0.92579,-0.9375 1.16015,-1.08984 3.17187,-2.33594 4.94921,-0.85547 1.77735,1.5586 2.85938,7.47657 3.71094,10.4375 0.61719,2.02344 1.08203,3.66016 0.61719,5.9961 -1.16016,6.85547 3.63281,5.84375 4.01953,7.71484 0.0781,0.46875 0.0781,1.16797 -0.15625,1.55859 -1.23437,2.02344 -3.55469,-1.01171 -5.17578,-0.15625 -0.62109,2.88282 4.78906,6.07422 7.41797,4.4375 2.47265,-1.47656 3.16797,-3.58203 3.47656,-6.30859 0.15625,-1.40234 0.46484,-1.48047 1.08594,-2.17969 2.55078,-2.96093 1.3125,-7.16797 -0.92969,-9.42578 -1.85547,-1.87109 -4.09375,-5.6875 -5.10156,-8.02344 -1.23438,-2.72656 -3.16797,-7.16796 -1.6211,-10.51562 0.53907,-1.16797 2.16407,-2.57031 3.2461,-3.19531 1.15625,-0.6211 0.84765,-0.23438 2.00781,-1.32422 4.09766,-3.97266 7.96094,-7.79297 8.58203,-14.25781 0.0742,-1.08985 0.15235,-2.10157 0.0742,-3.19141 0,-1.40234 -0.15625,-1.55859 -0.61719,-2.64844 h -1.54687 c -0.61719,1.5586 -0.23047,2.72266 -1.3125,5.14063 -0.77344,1.71094 -1.39063,2.88281 -2.55078,4.05078 -1.00391,1.01172 -5.17969,5.84375 -8.03907,4.44141 -0.46484,-1.63672 -0.87109,-3.41407 -1.33203,-6.0625 -0.54297,-5.29297 -1.11328,-3.75391 -1.1289,-8.57032 0.23047,-3.27343 0.16015,-6.49218 1.55078,-8.82812 1.54687,-2.64844 4.62109,-5.64453 7.01562,-7.51172 2.62891,-2.02734 4.40625,-4.05469 4.8711,-7.94922 0.15625,-1.32422 0.0781,-2.72656 -0.0781,-4.05078 -0.23047,-1.63672 -0.15625,-2.49219 -1.85547,-2.49219 -0.23047,0.46485 -0.46484,1.08985 -0.61718,1.71485 l -2.32032,5.0625 c -1.08203,2.10156 -3.01562,4.20703 -4.40625,5.45312 -5.87109,5.21875 -6.875,0.66016 -5.2539,-2.14453 l 7.34375,-12.30859 c 1.23437,-2.17969 2.08593,-4.51954 3.08984,-6.77735 0.46484,-1.01172 1.16016,-2.49219 1.46875,-3.5039 0.77344,-2.49219 0.92969,-5.76563 2.47266,-7.48047 1.70312,-0.15625 2.6289,0.625 3.17187,1.71484 0.38672,0.69922 0.53906,1.01172 0.92578,1.55469 0.61719,0.9375 0.3086,0.78125 0.61719,1.94922 2.47266,9.66015 -1.3125,14.5664 2.08594,16.98437 0.46484,0.3086 1.3164,0.46485 2.01172,0.3086 0.77343,-0.23438 0.69531,-0.69922 1.23828,-1.32422 0.46094,-0.54297 0.77344,-0.6211 1.3125,-1.24219 2.85937,-2.96094 1.08203,-1.25 3.24609,-4.13281 0.77344,-1.01172 1.23438,-1.94532 1.85547,-3.19141 0.46094,-0.85937 1.39063,-2.33984 1.69922,-3.19531 0.23047,-0.77735 0.0781,-1.16797 0.53906,-1.94531 0.92969,-1.8711 0.92969,-4.12891 1.31641,-6.15625 1.0039,-5.92188 0.53906,-3.19532 0.61719,-9.03516 0,-0.9375 0.0781,-1.48047 0.54296,-1.94922 2.16407,-2.02344 4.86719,4.36328 5.64063,6.15234 0.92969,2.41797 1.54687,5.14454 2.08594,7.8711 0.69531,3.73828 0.54297,5.375 0.30859,9.1914 -0.0742,1.48047 0.004,3.11719 0.77344,4.05079 0.62109,0.85546 2.24219,1.40234 3.55469,0.69921 2.01171,-1.01171 2.6289,-3.89062 3.63671,-6.30859 0.76954,-1.78906 1.15625,-3.73828 1.85157,-5.60547 0.23437,-0.625 0.30859,-1.32812 0.54297,-2.02734 1.62109,-4.83203 2.78125,-11.14063 3.47656,-16.51563 0.46484,-3.5039 0.30859,-5.92187 0.23047,-9.42578 0,-1.16797 -0.0742,-3.50781 0.92968,-4.05078 2.55079,-1.24609 5.64063,6.69922 6.41407,8.25781 1.54687,3.03516 1.78125,3.50391 3.09375,6.85547 0.38672,0.9336 1.0039,2.72656 1.46875,3.42578 1.08203,1.71485 2.16406,5.21875 2.625,7.32422 0.30859,1.32422 0.69922,2.64844 1.08593,3.97266 2.16407,7.55469 2.625,14.17969 1.69922,22.04687 -0.15625,1.48047 -0.85156,2.88282 -0.77343,4.20703 0,0.69922 0.23046,1.32422 0.46484,1.86719 0.46094,0.9375 0.38281,0.9375 1.54297,1.01172 4.63672,0.3125 5.02344,-4.59375 6.33984,-8.64453 0.77344,-2.49219 1.77735,-4.90625 2.55078,-7.32422 2.47266,-7.32031 5.02344,-20.79687 5.64063,-29.13281 0.0781,-0.9336 0.0781,-4.20703 0.30859,-4.75391 v -5.76562 c -0.23047,-0.77735 -0.23047,-4.20703 -0.38281,-5.45313 -0.15625,-1.71094 -0.38672,-3.34765 -0.69531,-5.0625 -1.46875,-9.58203 -3.17188,-18.38281 -7.65235,-26.64062 -2.9375,-5.45313 -4.94922,-9.26953 -8.8125,-14.02344 -4.17578,-5.21875 -11.67187,-12.85156 -17.39062,-16.90625 -4.40625,-3.11328 -10.28125,-5.68359 -15.84766,-6.92969 -9.58203,-2.18359 -19.70703,0.0742 -27.04687,5.44922 -1.08203,0.78125 -2.16797,1.63672 -3.17188,2.49609 l -3.01172,2.72657 c -4.64062,4.20703 -9.50781,10.75 -12.60156,15.96875 -1.77734,3.03906 -2.625,4.90625 -4.09375,7.40234 -0.77344,1.24609 -1.16016,2.49219 -1.93359,3.73828 -3.78907,5.6875 -7.26563,-2.41797 -10.20313,-6 l -2.6289,-3.03515 c -0.46094,-0.54688 -0.84766,-0.9375 -1.3125,-1.40235 l -4.48438,-4.05469 c -1.54297,-1.63281 -3.86328,-3.34765 -5.87109,-5.44921 -0.46485,-0.46875 -0.77344,-0.85938 -1.16016,-1.63672 -1.625,-3.58594 -3.55859,-15.96875 -5.95312,-22.66797 -2.78125,-8.02735 -8.88672,-19.08985 -14.29688,-25.78906 -0.46484,-0.54297 -0.77344,-1.01172 -1.31641,-1.55469 l -1.3125,-1.48047 c -1.23828,-1.55859 -4.32812,-4.59766 -5.94921,-5.45313 -1.70313,-0.9375 -1.31641,-0.78125 -2.16407,-3.50781 -0.46484,-1.48047 -1.46875,-2.88281 -1.625,-4.28125 2.78125,0.3086 5.71875,5.14063 6.72266,6.07422 0.69531,0.70313 1.23828,1.32422 1.93359,2.10156 0.54297,0.625 0.53907,0.39063 1.23438,0.85938 1.23828,0.93359 2.78515,1.87109 4.64062,1.32422 2.62891,-0.85547 4.71485,-5.29688 5.10157,-7.48047 0.23046,-1.40235 0.30859,-2.25781 0.61718,-3.58203 0.61719,-2.49219 0.46485,-5.29688 0.46485,-7.86719 0,-3.81641 0.38672,-7.63281 -1.78125,-10.90625 -0.53907,-0.77734 -1.23438,-1.48047 -2.625,-1.40234 -1.46875,0.0781 -2.24219,0.38671 -3.09375,1.08984 -0.76953,0.69922 -1.39063,1.32422 -2.23828,1.94922 -2.16407,1.48047 -4.8711,1.55859 -4.5625,-2.02735 0.23046,-2.80468 0.92578,-4.51953 0.85156,-7.55468 -0.0781,-2.57032 -2.16406,-3.50782 -4.71485,-1.71485 -0.69531,0.46875 -3.16796,3.66016 -3.78515,4.51953 -0.54297,0.85547 -1.08594,1.71094 -2.08985,2.10157 -5.76562,2.33984 -3.55078,-11.1836 -8.95703,-10.75782 z m -23.125,28.96485 c 1.65625,0 3.4375,0.4414 4.64453,0.8789 1.23438,0.39063 1.92969,0.70313 3.01563,1.32422 l 5.33203,3.34766 c 1.69922,1.32422 2.24219,1.94922 3.47656,3.11719 1.08203,1.09375 2.08985,2.02734 3.01563,3.42968 1.0039,1.5586 4.63672,3.89454 3.01562,4.98438 l -16.23437,1.16797 c -2.31641,0.15625 -6.02735,0.54687 -8.26953,0.15625 0,-0.85547 1.39453,-1.40235 2.08984,-1.79297 0.84766,-0.46484 1.69922,-0.85547 2.54688,-1.32422 1.93359,-1.01172 3.32421,-1.71094 4.79296,-2.88281 0,-3.11328 -2.24218,-5.91797 -3.63281,-7.39844 -1.3125,-1.32422 -4.55859,-3.35156 -6.49219,-4.44141 0.75391,-0.41015 1.70313,-0.5664 2.69922,-0.5664 z m 23.85157,2.33203 c 1.32031,-0.0391 3.26562,0.10547 3.90234,0.33594 1.00391,0.39062 2.16406,1.71484 2.78125,2.49609 1.78125,2.33594 2.9375,5.0625 0.23437,7.32031 -1.85546,1.63672 -5.41406,0.0781 -7.34375,-2.10156 -1.625,-1.94922 -1.69921,-3.73828 -1.69921,-6.30859 -0.0781,-1.16797 0.0781,-1.40235 1.08203,-1.63672 0.23047,-0.0586 0.60156,-0.0938 1.04297,-0.10547 z m 9.16015,19.73437 c 1.54297,0.15625 1.54297,1.17188 2.85938,2.1836 1.54297,1.16797 2.47265,2.95703 3.70703,4.4375 4.01953,4.83203 5.10156,8.41406 6.33984,10.05078 1.69922,2.33594 1.85547,4.83203 2.9375,6.85547 2.08594,4.1289 4.17188,15.1914 5.64063,20.64453 0.46484,1.48047 0.69531,4.12891 0.92968,5.76562 0.15235,1.2461 0.84766,4.90625 -0.23437,5.60547 -1.77734,1.09375 -4.79297,-2.88281 -5.71875,-3.97265 -0.61719,-0.77735 -1.08203,-1.01172 -1.54688,-1.63282 l -3.32031,-4.98828 c -0.46484,-0.77734 -0.62109,-2.64843 -2.47656,-2.10156 -0.15234,1.71484 0.23437,2.33594 0.30859,3.89453 0.15625,1.8711 -0.0742,6.15235 -1.0039,7.71094 -0.38672,0.70312 -1.3125,1.71484 -2.16407,2.02734 -1.54687,0.625 -2.39453,0.15625 -3.47656,-0.46875 -1.70312,-0.85547 -7.34375,-4.28515 -8.42578,-4.36328 -5.48828,-0.46484 -6.41406,7.94531 -8.03906,9.19141 -1.15625,0.9375 -2.47266,-0.23047 -2.9375,-0.85547 -1.69922,-2.10156 -0.69141,-1.01172 -1.6211,-2.57031 -0.23046,-0.39063 -0.62109,-0.69922 -0.85156,-1.32422 -0.15625,-0.46485 -0.30859,-1.08985 -0.46094,-1.63672 -0.38671,-1.32422 -1.54687,-3.58203 -3.32421,-2.80469 -1.54688,0.70313 -2.62891,6.07813 -3.71094,7.16797 -0.85156,0.85547 -2.62891,0.39063 -3.16797,-0.23437 -1.54688,-1.78907 -0.92969,-3.73829 -3.16797,-5.375 -2.39844,-1.78907 -4.25391,0.93359 -5.17969,2.25781 -1.54687,2.26172 -1.46875,4.59765 -2.85937,5.6875 -0.38672,0.3125 -1.23828,0.46875 -1.69922,0.15625 -0.3125,-0.23438 -0.62109,-1.01172 -0.77734,-1.40235 -2.16016,-5.53125 -1.85157,-12.92968 0.85156,-17.67968 1.77734,-0.15625 1.46875,0.23047 2.70703,0.62109 0.92578,0.3125 8.96484,0.23047 9.89062,0.15625 1.9336,-0.15625 3.94141,-0.54687 5.48829,-1.32422 1.93359,-1.01562 2.70703,-1.32422 3.86328,-2.80469 5.875,-7.63671 5.41015,-17.14062 7.03515,-27.1875 0.3086,-1.79296 1.46875,-6.62109 2.32032,-8.02343 0.46093,-0.78125 0.61718,-1.79297 1.3125,-2.10547 1.93359,-0.9336 3.40234,1.16797 4.01953,2.25781 0.85156,1.48047 1.69922,2.88281 2.55078,4.36328 l 3.63281,6.69922 c 0.84766,1.55859 1.77734,5.92188 3.78906,6.39063 0,-2.02735 -0.38672,-3.74219 -0.62109,-5.92188 -0.0781,-2.41406 -1.62109,-10.75 -2.55078,-13.08594 -0.3086,-0.78125 -0.69531,-1.40234 -0.84766,-2.26172 z m -22,1.98438 c 0.82422,0.0273 1.53516,0.20703 2.05469,0.58984 0.15625,1.2461 -0.53906,1.94532 -1.00391,2.87891 l -3.86328,7.24609 c -0.92969,1.5586 -1.69922,3.34766 -2.55078,4.98438 -1.77734,3.58594 -1.46875,6.70312 -2.08594,9.19531 -0.30859,1.16797 -0.46484,1.86719 -0.61718,3.11328 -0.3125,2.26172 -0.85157,4.20703 -2.47657,4.91016 -1.54297,0.62109 -5.17578,0.23437 -6.41406,-0.54688 -0.77344,-0.46484 -1.39062,-1.16797 -2.00781,-1.71484 -1.46875,-1.24609 -4.94922,-4.05078 -5.41406,-5.83984 -0.53907,-2.02735 -0.23047,-4.51954 0.39062,-6.46875 0.30859,-0.9336 0.84766,-1.63282 1.3125,-2.57032 0.69531,-1.48047 1.00391,-1.32422 1.54688,-2.10156 2.08593,-2.80469 4.71484,-5.45312 7.49609,-7.48047 0.77344,-0.62109 1.23828,-1.08984 2.01172,-1.71094 2.25781,-1.83593 8.03906,-4.59765 11.62109,-4.48437 z m 127.39844,42.79687 c 3.51562,-0.0312 7.06641,0.54297 10.38281,1.80469 2.31641,0.9336 6.87891,3.66016 8.65625,5.45313 l 2.32031,2.26172 c 0.84766,0.85546 1.6211,1.55468 2.46875,2.33593 l 6.57422,7.47657 c 0.38672,0.46875 0.61719,1.01171 0.92578,1.48046 3.01563,4.36329 3.47657,4.67188 6.26172,10.125 1.39063,2.57032 5.25391,16.51563 1.00391,7.16797 -2.32031,-5.21875 -7.80469,-12.23047 -11.51563,-16.58984 -0.38671,-0.39063 -0.85156,-0.78125 -1.23828,-1.17188 -1.54687,-1.63671 -7.11328,-8.17578 -9.35156,-6.54296 -2.08984,1.55859 -0.15625,13.01171 -2.16406,16.59375 -1.31641,-0.0781 -2.32031,-0.85547 -2.9375,-1.48047 -1.85547,-2.02344 -5.56641,-8.33594 -7.03516,-10.98438 -0.53906,-0.93359 -1.0039,-2.10156 -1.54297,-2.96094 -1.93359,-2.88281 -6.18359,-9.34765 -9.89453,-5.375 -1.77734,1.94922 -1.54687,4.51954 -1.46875,7.5586 0.0781,2.95703 0.0781,5.91797 0.15625,8.8789 0.0781,1.71485 0.38672,4.44141 -1.46875,5.22266 -0.46484,0.23047 -1.46875,0.30859 -1.93359,0.0742 -0.46485,-0.23438 -0.61719,-0.93359 -0.77344,-1.47656 -1.54297,-4.36328 -1.93359,-9.27344 -6.95703,-8.72657 -2.85938,0.3125 -5.79297,4.05079 -7.41797,6.07422 -1.69922,1.94922 -8.65625,10.82813 -9.66016,12.85547 -1.00781,1.8711 -2.01171,4.59766 -3.94531,4.98438 -3.55469,0.70312 -4.63672,-2.33594 -6.8789,-1.71094 -1.3125,1.48047 0.54296,4.20703 1.16015,5.375 0.85156,1.55859 1.69922,3.19141 2.55078,4.75 0.85157,1.63672 1.77735,3.03906 2.62891,4.67187 0.84766,1.71485 1.77734,2.88282 2.78125,4.51954 2.70703,4.67578 5.56641,9.11718 7.96094,14.02343 0.54297,1.2461 1.23828,2.72657 1.46875,4.05078 0,0.23438 0.0781,0.54688 0,0.78125 -0.0781,0.54297 0,0.23047 -0.3086,0.46485 -1.39062,0.62109 -6.33593,-2.96094 -7.41797,-3.58203 -1.16015,-0.70313 -2.32031,-1.40235 -3.48046,-2.1836 -1.16016,-0.69922 -2.31641,-1.40234 -3.39844,-2.17968 -1.08203,-0.85547 -2.62891,-1.2461 -3.55469,-2.17969 -2.08984,-2.1836 -4.17578,-2.88672 -6.57422,-4.51953 -0.69531,-0.46875 -3.01172,-2.02735 -3.86328,-1.5586 -0.23047,0.625 0.54297,1.79297 0.77344,2.49219 0.61719,1.48047 2.85937,7.08984 0.85156,7.63281 -1.16016,0.3125 -4.25391,-1.16797 -4.94922,-1.63281 -2.55078,-1.79297 -4.94531,-3.89453 -7.26562,-6 -0.61719,-0.54297 -1.23438,-1.01172 -1.77735,-1.55859 -0.30859,-0.3125 -1.39062,-1.32422 -1.92968,-1.40235 -1.00391,-0.15625 -1.31641,1.01563 -1.23829,1.94922 0.0781,1.08985 0.38672,1.78906 0.69532,2.64844 l 2.08593,4.51562 c 0.38672,0.9375 0.46485,1.5586 0.77344,2.65235 0.38672,1.32422 2.32031,5.60937 -2.625,5.76172 -4.48437,0.15625 -14.60937,-5.91797 -18.08594,-8.56641 -1.23828,-0.9375 -6.88281,-4.59766 -8.73828,-4.44141 -0.38672,0.54297 -1.0039,1.01172 -0.61718,2.02735 0.15625,0.46484 0.61718,1.24609 0.92968,1.71094 0.61719,1.08984 1.23438,2.26171 1.77735,3.50781 0.61718,1.24609 1.16015,2.41406 1.77734,3.66015 0.69531,1.5586 0.84766,2.49219 0.61719,4.51954 -3.86328,3.42578 -17.08203,-8.96094 -18.55078,-10.20704 l -3.01172,-2.64843 c -0.38672,-0.3125 -0.6211,-0.46485 -1.00781,-0.85547 l -1.85157,-1.8711 c -2.24218,-2.17968 -5.10156,-5.29687 -6.57031,-8.33593 -0.61719,-1.16797 -0.23047,-1.8711 0.46484,-2.57032 3.94141,0.54688 7.33985,3.82032 9.50391,4.59766 1.78125,0.625 4.32813,0.54297 5.79688,-0.46875 1.69921,-1.08984 1.46875,-3.11719 1.46875,-5.45312 0,-2.33594 0.85156,-4.28516 3.32421,-2.96094 1.625,0.93359 5.17969,4.28515 6.72266,5.6875 0.38672,0.3125 0.54297,0.39062 0.92969,0.77734 l 1.92969,1.63672 c 5.48828,3.74219 10.74609,1.09375 10.66796,-3.19141 0,-1.87109 -1.08203,-4.98828 0.38672,-6.07812 2.08594,-1.55859 5.71875,1.08984 7.34375,2.33594 0.69532,0.46875 1.46875,0.85937 2.16407,1.40234 1.39062,1.08984 2.3164,2.18359 3.86328,3.11719 1.69922,1.08984 3.9414,1.24609 4.71484,-0.77735 0.92578,-2.33593 -0.46484,-3.27343 1.3125,-5.6875 4.94922,-0.3125 8.27344,3.27344 13.29688,5.375 1.62109,0.70313 2.6289,0.3125 2.16406,-1.71484 -0.69531,-3.42578 -1.39063,-4.12891 -2.62891,-6.77734 -1.625,-3.50391 -3.24609,-6.38672 -3.47656,-10.59375 -0.0781,-2.02735 0.15234,-2.88282 2.16406,-1.94532 1.08203,0.46485 1.92969,1.08594 3.01172,1.55469 2.70703,1.16797 5.64453,0.46875 7.34375,-1.08984 0.77344,-0.70313 1.46875,-1.63672 2.24219,-2.49219 4.40234,-5.14062 6.18359,-10.67187 8.80859,-14.56641 1.23828,-1.87109 2.55078,-3.73828 3.86719,-5.53125 1.00391,-1.24609 3.39844,-3.50781 4.63672,-4.7539 3.16797,-3.11719 6.41406,-6.07422 10.58984,-8.17969 3.82422,-1.88281 8.28516,-2.92969 12.80469,-2.97266 z M 200.72266,487.375 c -2.01172,-0.30859 -9.27735,4.67578 -11.36328,6.69922 -0.38672,0.3125 -0.69532,0.78125 -1.00391,1.09375 -2.9375,2.95703 -4.63672,5.60937 -6.80078,9.34766 -0.46485,0.85546 -1.00391,1.63671 -1.46875,2.49218 -0.53906,0.85547 -0.92969,1.86719 -1.9336,2.17969 -6.64843,1.79297 -12.59765,-1.16797 -14.29687,0.23438 -0.0781,0.77734 0.15234,0.93359 0.76953,1.16796 1.31641,0.625 3.25,1.08985 4.71875,1.40235 3.01172,0.70312 9.42969,1.08984 12.59766,-0.23438 0.77343,-0.3125 0.61718,-0.46484 0.92578,-1.16797 0.77344,-1.86718 1.625,-3.8164 2.55078,-5.53125 2.08984,-3.97265 4.48437,-6.30859 7.34375,-8.72265 1.69922,-1.40235 5.02344,-3.89844 7.1875,-4.83203 1.08203,-0.39063 1.93359,-0.85547 2.31641,-1.79297 0.38671,-1.2461 -0.53907,-2.17969 -1.54297,-2.33594 z m -53.46485,0.3125 c -0.87109,-0.0781 -1.79687,0.3125 -2.33984,1.08984 -4.09375,5.76563 -5.875,16.125 -5.33203,23.3711 0.23047,2.96093 1.3125,9.73828 2.47265,11.99609 1.23438,2.41406 2.24219,4.91016 3.47657,7.32422 0.46484,0.85547 1.08203,1.08984 1.08203,2.41406 -1.92969,0.54297 -4.01563,0.39063 -6.02735,0.54688 -1.16015,0.15625 -1.54687,0.39062 -2.85937,0.39062 -4.17188,0 -10.74219,1.01172 -14.6836,1.78906 -4.09765,0.78125 -13.52734,3.26954 -16.62109,6.46485 -1.08203,1.08984 -0.53906,0.85547 -1.23437,2.10156 l 0.38671,0.31641 v 1.16406 c 0.23047,0.39062 0.3086,0.85937 0.61719,1.25 0.3086,0.46484 0.54297,0.62109 0.92969,0.93359 0.69531,0.6211 1.39062,0.9336 2.23828,1.48047 6.64844,3.58203 22.33985,5.92188 29.91406,6.54297 l 13.67969,0.77734 h 12.82813 c 0.62109,-0.23437 10.05078,-0.46484 11.75,-0.54296 3.71093,-0.23438 7.34375,-0.625 10.97656,-1.08985 3.55469,-0.46875 7.03125,-1.01562 10.43359,-1.87109 3.01563,-0.70313 6.64453,-1.63672 9.35157,-2.72656 3.16796,-1.32422 8.58203,-4.59766 5.02343,-8.02344 -1.23437,-1.2461 -2.85937,-1.63672 -1.15625,-3.42969 0.53907,-0.54297 0.92578,-0.85547 1.46485,-1.55859 0.92968,-1.08985 1.77734,-2.33203 2.6289,-3.57813 2.78125,-3.74219 4.79297,-7.32422 6.26172,-12 3.16797,-10.1289 2.39453,-21.26562 -1.70312,-31.16015 -0.61719,-1.48047 -1.46875,-2.80469 -3.55469,-2.49219 -2.47266,0.3125 -0.92578,2.88281 -0.30859,3.81641 2.78125,4.36328 3.63281,15.26953 3.16796,21.26562 -0.53906,6.77734 -2.00781,10.67578 -5.48828,15.89453 -0.46093,0.62109 -1.08203,1.16797 -2.00781,0.69922 -0.77344,-1.08984 -0.38672,-4.05078 -0.61719,-5.60938 -0.15625,-0.93359 -0.54297,-1.63671 -0.61718,-2.49218 -5.84375,-19.35156 -6.32422,-15.16406 -8.73438,-20.71875 l -1.78125,-2.1836 c -0.38281,-0.46875 -3.55469,-3.89453 -3.86328,-4.05078 -3.32422,-0.23437 -0.30859,3.03907 0.15625,3.66016 l 2.08594,3.03906 c 0.84765,1.2461 1.47265,3.20703 2.09375,4.29688 3.3789,6.36718 5.10937,9.34375 6.40625,18.375 0.38672,2.10156 0.46484,3.42578 0.54297,5.60546 0.0781,3.42969 0.38671,2.64844 -1.46875,4.59766 -1.85547,2.02344 -3.86329,3.89453 -6.64844,5.60938 -1.15625,0.69921 -6.72266,4.36328 -8.42188,3.34765 -0.54297,-0.62109 1.16016,-9.11328 0,-10.90625 -0.23047,-0.39062 -0.3125,-0.62109 -0.54297,-1.01172 h -1.16015 c -0.61719,0.9336 -1.15625,5.45313 -1.69922,7.16797 -0.61719,1.78906 -1.62109,5.21875 -2.85938,5.92188 -1.08203,0.62109 -6.64843,0.23047 -8.26953,0.15234 -7.65234,-0.62109 -13.44922,-2.80469 -19.01562,-7.39844 -1.6211,-1.40234 -7.57422,-6.69922 -7.72656,-9.73828 0.84765,0.0781 2.55078,0.70313 3.55468,0.9336 3.71094,1.01562 7.34375,1.79296 11.20703,2.25781 7.57422,0.9375 17.15625,1.32812 24.42188,-1.16406 1.70312,-0.625 1.47266,-1.17188 0.92969,-2.96094 -2.16407,-7.71485 -0.61719,-5.30078 -5.10157,-12.9336 -0.54296,-0.85546 -1.16015,-2.17968 -2.47265,-2.02343 -0.23438,2.33593 1.69922,6.69922 2.39453,8.95703 1.08203,3.50781 1.69922,5.76562 -2.55078,6.93359 -7.26563,2.02344 -21.79688,-1.01562 -29.60156,-2.88281 -8.11719,-2.02734 -5.79688,-1.01172 -7.34375,-5.29688 -0.76954,-2.10546 -0.38672,-0.46875 -0.85157,-3.42578 -0.53906,-3.82031 -1.38672,-12.39062 0.23438,-15.5039 4.25,2.55078 5.96094,3.08984 7.65234,3.97265 1.00391,0.77735 6.25781,4.12891 7.80469,3.89454 0.61719,-0.39063 1.23828,-3.19141 1.46875,-4.05079 0.15625,-0.46484 0.38672,-0.77734 0.54297,-1.16796 0.53906,-1.5586 1.92969,-4.28516 -0.15625,-5.0625 -0.46485,-0.15625 -1.23438,-0.3125 -1.6211,-0.0781 -0.0781,0 -0.77343,0.77734 -0.92968,0.93359 -0.61719,0.70313 -0.69532,1.40235 -1.08203,2.49219 -0.38672,1.09375 -1.46875,0.85547 -2.62891,0.54688 -0.92578,-0.3125 -2.32422,-1.01563 -3.09766,-1.40625 -1.62109,-0.77735 -2.54297,-1.47657 -4.08984,-2.25782 -1.00391,-0.46484 -1.62109,-0.62109 -2.00781,-1.55468 -0.92969,-2.33985 2.9375,-5.60938 2.08593,-8.25782 -0.30859,-1.09375 -1.12109,-1.63671 -1.98828,-1.71484 z m 0,0"
       id="path10" />
    <path
       style="fill:#eb1c23;fill-opacity:1;fill-rule:evenodd;stroke:none"
       d="m 211.46484,298.03516 c 0.0781,-1.2461 -0.69531,-1.5586 -1.3125,-2.33594 l -3.86328,-3.89453 c -1.00781,-0.78125 -0.77343,-1.48047 -2.47656,-1.48047 0.0781,1.40234 1.625,4.67187 2.24219,5.60547 0.54297,0.78125 1.16015,1.09375 2.39844,1.40234 1.0039,0.15625 1.92968,0.78125 3.01171,0.70313 z m 0,0"
       id="path12" />
    <path
       style="fill:#eb1c23;fill-opacity:1;fill-rule:evenodd;stroke:none"
       d="m 220.42969,288.6875 c -0.76953,0.3125 -1.15625,0.54297 -0.92578,1.71484 0.46484,2.80469 3.08984,3.81641 4.32812,3.34766 1.23828,-0.46875 1.16016,-2.80469 0.46485,-3.89453 -0.61719,-0.85547 -2.32032,-1.79297 -3.86719,-1.16797 z m 0,0"
       id="path14" />
    <path
       style="fill:#eb1c23;fill-opacity:1;fill-rule:evenodd;stroke:none"
       d="m 189.55859,188.19922 c 0,-4.31641 -3.53125,-7.8125 -7.88671,-7.8125 -4.35547,0 -7.89063,3.49609 -7.89063,7.8125 0,4.3125 3.53516,7.80859 7.89063,7.80859 4.35546,0 7.88671,-3.49609 7.88671,-7.80859 z m 0,0"
       id="path16" />
    <path
       style="fill:#eb1c23;fill-opacity:1;fill-rule:evenodd;stroke:none"
       d="m 312.0625,186.44531 c 0,-4.3125 -3.53125,-7.80859 -7.88672,-7.80859 -4.35547,0 -7.89062,3.49609 -7.89062,7.80859 0,4.31641 3.53515,7.8125 7.89062,7.8125 4.35547,0 7.88672,-3.49609 7.88672,-7.8125 z m 0,0"
       id="path18" />
    <path
       style="fill:#ff0000;fill-opacity:1;fill-rule:evenodd;stroke:none"
       d="m 181.73438,0.515625 v 49.746094 h -6.79297 V 13.722656 H 164.42578 V 9.363281 C 175.36328,8.570313 175.44141,4.242188 177.25,0.515625 Z m 0,0"
       id="path20" />
    <path
       style="fill:#ff0000;fill-opacity:1;fill-rule:evenodd;stroke:none"
       d="m 220.32422,0.515625 c -2.42188,0.136719 -13.70313,-0.5898438 -16.28125,14.746094 l 0.12891,4.230469 c 0.59375,3.753906 2.17578,11.828125 13.46093,14.230468 2.6836,0.480469 4.19141,0.171875 5.89844,0 2.73828,-0.742187 5.51563,-1.816406 8.58984,-5.253906 0.64454,6.222656 -2.02734,14.5625 -8.20703,16.410156 -1.07422,0.265625 -1.83203,0.640625 -4.87109,0.253907 -2.23438,-0.628907 -4.79688,-0.914063 -7.17969,-8.078125 l -6.41015,1.410156 c 1.07421,3.109375 3.45312,10.195312 12.4375,11.796875 2.51953,0.320312 5.04296,0.363281 7.5625,0 6.22656,-1.503906 10.09375,-4.679688 13.33593,-17.4375 0.32422,-4.347656 0.90235,-7.597656 0.25391,-16.152344 -0.41797,-3.363281 -2.70313,-13.96875 -13.71875,-16.15625 -1.98438,-0.203125 -3.69531,-0.140625 -5,0 z m 1.08984,5.003906 c 0.34375,0 0.6875,0.015625 1.03125,0.054688 0.34375,0.035156 0.6836,0.09375 1.01953,0.167969 0.33985,0.070312 0.67188,0.164062 1,0.273437 0.32813,0.109375 0.65235,0.238281 0.96875,0.382813 0.31641,0.144531 0.625,0.304687 0.92969,0.484375 0.30078,0.179687 0.59375,0.371093 0.87891,0.582031 0.28515,0.210937 0.55859,0.4375 0.82031,0.675781 0.26563,0.238281 0.51563,0.492188 0.75391,0.761719 0.24218,0.265625 0.46875,0.542969 0.68359,0.835937 0.21484,0.292969 0.41406,0.59375 0.60156,0.90625 0.1836,0.3125 0.35547,0.636719 0.51172,0.96875 0.15625,0.332032 0.29688,0.671875 0.42188,1.015625 0.125,0.347657 0.23437,0.699219 0.32422,1.058594 0.0938,0.359375 0.16796,0.722656 0.22656,1.089844 0.0586,0.363281 0.0977,0.734375 0.125,1.105469 0.0156,0.261718 0.0234,0.523437 0.0234,0.789062 0,0.371094 -0.0156,0.742188 -0.0508,1.113281 -0.0352,0.371094 -0.0859,0.738282 -0.15234,1.101563 -0.0703,0.367187 -0.15625,0.726562 -0.25781,1.082031 -0.10156,0.355469 -0.21875,0.703125 -0.35156,1.046875 -0.13672,0.34375 -0.28516,0.675781 -0.44922,1.003906 -0.16407,0.324219 -0.34375,0.644532 -0.53907,0.949219 -0.19531,0.308594 -0.40234,0.605469 -0.625,0.890625 -0.22265,0.285156 -0.45703,0.554688 -0.70312,0.8125 -0.24609,0.261719 -0.50391,0.507813 -0.77344,0.738281 -0.26953,0.230469 -0.55078,0.445313 -0.83984,0.648438 -0.28906,0.199219 -0.58985,0.386719 -0.89453,0.554687 -0.3086,0.167969 -0.6211,0.320313 -0.94532,0.453125 -0.32031,0.136719 -0.64453,0.253907 -0.97656,0.355469 -0.33203,0.09766 -0.66797,0.179688 -1.00781,0.242188 -0.33984,0.0625 -0.67969,0.109375 -1.02344,0.132812 -0.24219,0.01953 -0.48437,0.03125 -0.73047,0.03125 -0.34375,0 -0.6875,-0.01953 -1.03125,-0.05859 -0.33984,-0.03516 -0.67968,-0.08984 -1.01953,-0.164062 -0.33594,-0.07422 -0.67187,-0.167969 -1,-0.277344 -0.32812,-0.109375 -0.65234,-0.238281 -0.96875,-0.382812 -0.3164,-0.144532 -0.625,-0.304688 -0.92578,-0.484375 -0.30469,-0.179688 -0.59766,-0.371094 -0.88281,-0.582032 -0.28125,-0.210937 -0.55469,-0.4375 -0.82031,-0.675781 -0.26172,-0.238281 -0.51563,-0.492187 -0.75391,-0.761719 -0.23828,-0.265625 -0.46875,-0.542968 -0.67969,-0.835937 -0.21484,-0.292969 -0.41406,-0.59375 -0.60156,-0.90625 -0.1875,-0.3125 -0.35938,-0.636719 -0.51172,-0.96875 -0.16016,-0.328125 -0.30078,-0.667969 -0.42578,-1.015625 -0.12109,-0.347656 -0.23047,-0.699219 -0.32422,-1.058594 -0.0898,-0.359375 -0.16797,-0.722656 -0.22266,-1.089844 -0.0586,-0.363281 -0.10156,-0.734375 -0.125,-1.105468 -0.0195,-0.261719 -0.0273,-0.523438 -0.0273,-0.789063 0,-0.371094 0.0156,-0.742187 0.0508,-1.113281 0.0352,-0.371094 0.0859,-0.738281 0.15625,-1.101563 0.0664,-0.367187 0.15235,-0.726562 0.25391,-1.082031 0.10156,-0.355469 0.21875,-0.703125 0.35547,-1.046875 0.13281,-0.339844 0.28125,-0.675781 0.44531,-1.003906 0.16797,-0.324219 0.34766,-0.644531 0.54297,-0.949219 0.1914,-0.308594 0.40234,-0.601562 0.62109,-0.886719 0.22266,-0.285156 0.45703,-0.558593 0.70703,-0.816406 0.2461,-0.261719 0.50391,-0.503906 0.77344,-0.734375 0.26953,-0.234375 0.54688,-0.449219 0.83984,-0.652344 0.28907,-0.199218 0.58594,-0.382812 0.89454,-0.550781 0.30468,-0.171875 0.62109,-0.324219 0.9414,-0.457031 0.32031,-0.136719 0.64844,-0.253906 0.98047,-0.351563 0.32813,-0.101562 0.66406,-0.183593 1.00391,-0.246093 0.33984,-0.0625 0.67968,-0.105469 1.02343,-0.132813 0.2461,-0.019531 0.48829,-0.027344 0.73047,-0.027344 z m 0,0"
       id="path22" />
    <path
       style="fill:#ff0000;fill-opacity:1;fill-rule:evenodd;stroke:none"
       d="m 284.55859,32.441406 h -29.61718 l 15.89843,-21.921875 v 39.742188 h 6.66407 V 0.515625 h -5.80078 l -23.6836,31.925781 -0.1289,5.640625 h 36.66796 z m 0,0"
       id="path24" />
    <path
       style="fill:#ff0000;fill-opacity:1;fill-rule:evenodd;stroke:none"
       d="m 296.86719,15.003906 h 5.51172 v -8.9375 H 322.25 l 0.12891,1.757813 c -3.89063,8.929687 -16.23047,20.992187 -20.12891,42.4375 h 7.69141 c 3.35937,-20.105469 13.86328,-33.195313 17.5664,-41.027344 v -8.71875 h -30.64062 z m 0,0"
       id="path26" />
    <path
       style="fill:#ff0000;fill-opacity:1;fill-rule:evenodd;stroke:none"
       d="m 3.984375,47.289063 c -2.335937,0.484375 -3.9179687,3.175781 -3.652344,6.25 0.222657,2.5625 2.214844,4.003906 4.835938,4.445312 2.917969,-0.226562 4.386719,-0.523437 6.304687,-0.90625 C 58.257813,48.496094 93.800781,44.992188 144.27344,41.121094 L 143.84766,30.316406 C 83.640625,34.214844 53.539063,38.46875 9.898438,46.019531 c -2.09375,0.421875 -4.347657,0.84375 -5.914063,1.269532 z m 0,0"
       id="path28" />
    <path
       style="fill:#ff0000;fill-opacity:1;fill-rule:evenodd;stroke:none"
       d="m 493.25,45.839844 c 2.36328,0.484375 3.96484,3.175781 3.69141,6.246094 -0.22266,2.566406 -2.23828,4.007812 -4.88672,4.449218 -2.95313,-0.226562 -4.4375,-0.527343 -6.37891,-0.90625 C 435.15625,47.941406 398.75,44.207031 346.62891,41.121094 l 0.43359,-10.804688 c 53.17188,2.941407 99.03906,7.722657 140.20703,14.253907 2.11328,0.421875 4.39453,0.84375 5.98047,1.265625 z m 0,0"
       id="path30" />
    <path
       style="fill:#ff0000;fill-opacity:1;fill-rule:evenodd;stroke:none"
       d="m 53.765625,540.93359 -8.921875,-408.375 c -0.175781,-7.34765 -0.613281,-15.48828 -0.4375,-22.75 h 0.261719 c 8.050781,-0.875 16.097656,-2.53906 24.324219,-3.67578 8.402343,-1.22265 16.886718,-2.44922 25.464843,-3.41015 95.304689,-7.250004 174.410159,-9.093754 262.945309,-3.500004 17.5,1.398434 32.98829,1.398434 50.22657,3.500004 15.57422,1.75 31.41406,4.02343 46.98828,6.47265 0.96094,0.17578 1.3125,0.26172 2.10156,0.70313 -0.0898,15.13672 -0.0898,30.79687 -0.61328,45.84765 l -9.71484,386.0625 c 0.34375,26.95313 -2.88282,36.73828 -22.13672,38.15235 -12.36328,2.97265 -26.33985,2.42578 -39.29297,4.61328 -35.20703,5.75 -72.75781,5.28515 -108.76172,26.71094 -4.90234,2.89062 -13.30078,12.25 -17.0625,15.83984 -0.61328,0.52344 -0.96484,0.78906 -1.57422,1.3125 l -7.4375,7.08594 c -0.875,-0.52344 -2.45312,-2.1875 -3.0625,-2.88672 -1.14062,-1.3125 -1.92578,-1.75 -3.06641,-2.80078 -5.85937,-5.51172 -13.03515,-14.26172 -20.125,-18.55078 C 175.03906,584.12109 121.25,587.125 76.429688,581.53516 64.578125,578.5625 57.910156,575.86719 54.90625,562.98437 54.109375,557.22656 53.941406,548.02344 53.765625,540.93359 Z M 480.95703,191.71094 c 0.17188,-4.11328 2.71094,-99.488284 3.14844,-100.800784 v -3.328125 c -8.66406,-1.222656 -13.91406,-2.886718 -22.57422,-4.199218 -26.95312,-4.113282 -53.28906,-7.523438 -80.58984,-10.148438 -28.17578,-2.625 -56.70313,-4.550781 -85.14063,-5.515625 l -29.40234,-0.785156 h -27.30078 c -1.75,0.4375 -12.51172,0.175781 -15.13672,0.261719 -14.78906,0.261718 -29.66406,0.875 -44.36328,1.574218 -19.25391,0.964844 -38.41407,2.449219 -57.40235,4.199219 -31.066404,2.976563 -64.753904,7.265625 -95.554685,12.425781 -1.222656,0.175782 -8.3125,1.75 -9.625,2.363282 v 3.851562 c 0.875,16.710935 1.050781,33.773435 1.488281,50.402345 0.523438,16.88672 1.050782,33.77344 1.488282,50.66406 l 7.175781,353.59766 c 0.523437,18.11328 0.933594,27.76172 9.683594,40.625 3.5,5.16015 8.867187,10.125 14.027343,13.80078 31.390625,15.5625 92.996094,4.85156 149.777344,27.41015 18.50391,9.96485 27.10547,23.58985 39.09375,38.55469 l 9.93359,15.23828 0.44141,-0.35156 0.17188,-0.17578 2.36328,-3.23438 c 0.96484,-1.3125 1.83984,-2.45312 2.80078,-3.76562 2.625,-3.67188 6.80078,-10.09766 10.03906,-13.51172 1.18359,-3.23047 19.63281,-23.68359 24.75781,-25.875 33.07422,-26.69141 85.13672,-21.19531 116.66797,-25.08984 27.03906,-4.55078 39.42578,-1.21094 56.75391,-22.08594 8.66406,-12.16406 9.57422,-25 10.10156,-42.50391 l 4.11328,-252.70703 c 1.04688,-33.6875 2.01172,-67.28906 3.0625,-100.89062 z m 0,0"
       id="path32" />
  </g>
</svg>
