<svg enable-background="new 0 0 594.123 708.662" height="1000" viewBox="0 0 1000 1000" width="1000" xmlns="http://www.w3.org/2000/svg"><g transform="matrix(1.3405563 0 0 1.3405563 101.77233 25.001356)"><g><path clip-rule="evenodd" d="m 0 122.706 v 53.224 c .175 .38 1.576 45.153 1.874 50.387 c 2.651 46.515 7.379 94.289 17.493 139.271 c 6.38 28.375 13.539 54.372 23.268 80.639 c 11.758 31.747 29.144 67.014 47.795 94.528 c 5.735 8.46 10.087 14.636 16.241 22.743 c 5.776 7.608 10.157 12.58 15.884 19.578 c .53 .646 .946 .981 1.528 1.647 l 21.937 23.354 c 1.25 1.188 1.893 1.747 3.235 3.142 c 7.005 7.281 27.58 24.603 34.582 30.049 c 4.746 3.692 9.515 7.43 14.689 11.075 c 9.981 7.033 20.072 14.009 30.885 20.605 c 5.278 3.22 10.562 6.35 16.103 9.608 c 10.476 6.162 30.629 16.62 42.227 21.865 c 1.522 .688 2.75 1.291 4.319 2.028 c .856 .403 4.376 2.211 4.996 2.211 c 1.513 -.248 8.009 -3.661 9.099 -4.171 c 29.028 -13.604 63.73 -33.036 89.415 -52.178 c 8.56 -6.379 24.539 -18.392 32.435 -25.767 c 1.099 -1.025 2.299 -1.972 3.458 -2.929 c 1.119 -.924 2.134 -2.101 3.287 -3.08 l 23.045 -22.206 c 2.06 -2.327 4.024 -4.714 6.192 -6.871 c 3.332 -3.316 6.461 -7.469 9.145 -10.314 c .989 -1.049 2.162 -2.518 3.025 -3.672 l 17.006 -21.652 c 4.597 -6.084 11.563 -16.582 15.783 -23.207 c 3.41 -5.353 6.553 -10.659 9.847 -16.369 c 50.039 -86.758 68.331 -190.069 73.524 -292.197 c .434 -8.527 .861 -16.832 1.065 -25.368 l .598 -25.27 c .016 -.074 .054 -.179 .068 -.237 c .014 -.058 .042 -.157 .075 -.231 v -46.919 c -.402 -.962 -.252 -1.125 -.247 -3.983 l -.242 -12.093 C 593.189 94.112 593.115 78.035 592.242 62.309 L 590.075 15.322 C 589.834 10.685 589.808 4.53 589.228 -.001 H 5.053 C 4.641 4.279 4.254 10.453 4.003 15.322 C 3.238 30.228 2.765 46.293 1.9 60.888 C 1.304 70.943 .927 81.653 .86 91.677 C .855 92.477 .521 121.574 0 122.706 Z" fill="#ebebeb" fill-rule="evenodd"/><path clip-rule="evenodd" d="M 10.097 5.727 C 10.087 5.971 10.055 6.553 10.044 6.796 C 9.093 28.95 7.69 51.092 7.019 73.293 C 6.193 100.596 5.51 127.273 5.56 154.466 c .25 136.536 17.144 264.582 80.085 368.226 c 3.297 5.431 6.737 11.039 10.198 16.01 c 5.782 8.307 18.219 26.03 25.113 33.628 l 16.8 19.22 c .72 .666 1.032 .858 1.656 1.53 c 3.449 3.716 12.699 13.313 16.36 16.434 l 8.459 7.781 c 11.851 10.354 21.007 18.303 34.131 27.853 c 22.89 16.654 38.936 26.337 63.959 40.12 c 3.545 1.953 32.993 17.033 34.729 17.004 c 1.916 -.033 30.863 -14.931 34.534 -16.927 c 26.87 -14.606 54.976 -31.976 78.714 -51.425 c 4.894 -4.009 12.952 -10.483 17.595 -14.854 l 8.544 -7.702 c .815 -.68 .961 -1.014 1.712 -1.756 c 1.134 -1.121 2.321 -1.848 3.334 -3.052 l 9.797 -9.938 c 2.177 -2.241 4.397 -4.272 6.431 -6.627 l 6.143 -6.936 c .632 -.678 1.001 -.898 1.569 -1.611 l 10.457 -12.506 c 9.951 -11.944 24.392 -32.347 32.482 -46.06 c 3.251 -5.509 6.42 -10.874 9.587 -16.645 c 56.838 -103.554 70.913 -229.138 70.567 -362.085 c -.089 -33.967 -1.209 -69.975 -2.802 -104.055 c -.203 -4.332 -1.322 -32.544 -1.876 -34.366 H 14.567 Z" fill-rule="evenodd"/><path clip-rule="evenodd" d="m 16.802 135.669 l 560.483 .006 c .851 -9.572 -2.883 -109.276 -3.854 -118.449 L 20.657 17.169 c -.839 6.669 -2.347 50.985 -2.611 58.294 c -.213 5.849 -1.78 55.095 -1.244 60.206 z" fill="#fff" fill-rule="evenodd"/><path clip-rule="evenodd" d="m 256.313 668.954 c 2.751 2.012 38.91 20.78 40.738 20.755 c 1.926 -.027 38.134 -18.813 40.777 -20.817 l .06 -521.856 l -81.616 .056 z" fill="#fff" fill-rule="evenodd"/><path clip-rule="evenodd" d="m 419.611 611.135 c 1.114 -.604 4.455 -3.816 5.968 -5.086 l 4.272 -4.126 c 2.177 -1.969 6.852 -6.221 8.555 -8.274 l 9.69 -10.047 c 9.815 -9.516 28.716 -33.574 35.551 -43.489 c 3.087 -4.48 6.025 -8.778 9.024 -13.387 c 1.505 -2.311 2.94 -4.542 4.407 -6.949 c 1.057 -1.733 3.589 -5.347 4.178 -7.097 l .005 -365.645 l -81.609 .063 z" fill="#fff" fill-rule="evenodd"/><path clip-rule="evenodd" d="m 93.93 514.488 c .518 1.618 3.164 5.528 4.202 7.117 c 1.439 2.202 2.84 4.547 4.309 6.756 c 5.8 8.723 16.402 24.002 23.245 32.02 l 12.758 15.133 c 2.02 2.508 5.753 6.197 7.948 8.596 c 1.817 1.986 3.481 3.749 5.373 5.657 c 1.77 1.784 3.864 3.563 5.475 5.551 c 1.091 1.347 2.884 2.7 4.199 3.93 c .569 .533 .8 .938 1.38 1.509 c .732 .721 10.381 9.667 11.735 10.498 l -.025 -464.217 l -80.62 -.001 z" fill="#fff" fill-rule="evenodd"/><path clip-rule="evenodd" d="m 365.833 101.196 c 0 .985 -.051 1.81 -.156 2.491 c -.106 .683 -.247 1.238 -.441 1.632 c -.176 .413 -.403 .7 -.634 .86 c -.245 .179 -.526 .269 -.826 .269 h -36.881 c -.263 0 -.527 -.09 -.773 -.269 c -.229 -.16 -.44 -.447 -.633 -.86 c -.193 -.394 -.335 -.949 -.44 -1.632 c -.104 -.681 -.159 -1.505 -.159 -2.491 c 0 -1.004 .036 -1.849 .124 -2.547 c .089 -.681 .229 -1.22 .423 -1.65 c .191 -.412 .404 -.716 .65 -.914 c .229 -.197 .51 -.286 .809 -.286 h 12.452 V 51.584 l -10.711 6.025 c -.772 .376 -1.425 .627 -1.917 .716 c -.509 .072 -.897 -.017 -1.195 -.322 c -.282 -.305 -.476 -.808 -.58 -1.542 c -.106 -.734 -.16 -1.774 -.16 -3.101 c 0 -.842 .019 -1.542 .054 -2.08 c .035 -.538 .123 -1.004 .265 -1.38 c .122 -.396 .316 -.7 .563 -.951 c .228 -.251 .562 -.501 .967 -.789 l 14.316 -9.448 c .175 -.143 .386 -.251 .632 -.34 c .264 -.09 .598 -.162 1.021 -.215 c .405 -.054 .95 -.089 1.618 -.108 c .668 -.018 1.529 -.018 2.604 -.018 c 1.3 0 2.357 .018 3.165 .072 c .809 .054 1.425 .144 1.829 .27 c .422 .125 .687 .287 .827 .502 c .139 .214 .21 .465 .21 .789 v 56.137 h 10.904 c .317 0 .599 .089 .861 .286 c .265 .198 .477 .502 .67 .914 c .193 .43 .334 .969 .421 1.65 c .086 .696 .121 1.54 .121 2.545 z M 109.059 50.222 c 0 1.004 -.037 1.883 -.124 2.618 c -.089 .735 -.211 1.326 -.37 1.756 c -.158 .449 -.333 .753 -.563 .916 c -.228 .179 -.493 .268 -.791 .268 c -.458 0 -1.18 -.321 -2.163 -.949 c -1.003 -.627 -2.323 -1.327 -3.975 -2.062 c -1.653 -.735 -3.606 -1.435 -5.892 -2.062 c -2.287 -.627 -4.942 -.951 -7.967 -.951 c -3.22 0 -6.139 .574 -8.742 1.703 c -2.62 1.147 -4.854 2.762 -6.7 4.842 c -1.848 2.097 -3.271 4.59 -4.275 7.53 c -1.002 2.922 -1.494 6.15 -1.494 9.699 c 0 3.892 .51 7.316 1.512 10.292 c 1.02 2.958 2.444 5.432 4.257 7.441 c 1.829 1.99 4.027 3.495 6.577 4.518 c 2.567 1.021 5.399 1.524 8.477 1.524 c 1.513 0 3.007 -.179 4.485 -.52 c 1.495 -.358 2.867 -.897 4.132 -1.597 V 79.339 H 82.835 c -.615 0 -1.091 -.395 -1.443 -1.183 c -.333 -.789 -.508 -2.116 -.508 -4.016 c 0 -.969 .034 -1.794 .121 -2.458 c .089 -.663 .23 -1.201 .387 -1.595 c .176 -.413 .388 -.7 .617 -.897 c .246 -.197 .528 -.287 .826 -.287 h 22.512 c .545 0 1.038 .09 1.46 .287 c .439 .197 .808 .484 1.142 .878 c .317 .377 .58 .843 .739 1.38 c .176 .557 .265 1.184 .265 1.884 v 27.108 c 0 1.058 -.177 1.972 -.546 2.761 c -.352 .79 -1.091 1.417 -2.216 1.865 c -1.108 .466 -2.498 .932 -4.15 1.434 c -1.654 .483 -3.36 .914 -5.136 1.255 c -1.759 .358 -3.552 .628 -5.363 .789 c -1.793 .179 -3.605 .27 -5.435 .27 c -5.33 0 -10.095 -.789 -14.316 -2.348 c -4.204 -1.561 -7.774 -3.82 -10.694 -6.778 c -2.92 -2.958 -5.153 -6.562 -6.702 -10.83 c -1.546 -4.267 -2.319 -9.089 -2.319 -14.486 c 0 -5.576 .825 -10.579 2.479 -15.007 c 1.635 -4.447 3.975 -8.211 7.001 -11.313 c 3.024 -3.102 6.665 -5.469 10.957 -7.119 c 4.273 -1.649 9.04 -2.474 14.28 -2.474 c 2.902 0 5.523 .198 7.897 .611 c 2.357 .412 4.433 .895 6.209 1.488 c 1.757 .572 3.235 1.201 4.396 1.863 c 1.178 .682 1.987 1.255 2.444 1.757 c .476 .484 .809 1.184 1.002 2.081 c .213 .88 .318 2.206 .318 3.963 z m 58.054 57.409 l -5.574 16.567 c -.316 .878 -1.144 1.506 -2.516 1.901 c -1.372 .375 -3.377 .573 -6.014 .573 c -1.373 0 -2.481 -.054 -3.289 -.179 c -.827 -.126 -1.443 -.323 -1.865 -.609 c -.404 -.287 -.633 -.628 -.667 -1.04 c -.037 -.43 .069 -.932 .315 -1.525 l 6.121 -15.688 c -.44 -.216 -.844 -.537 -1.196 -.968 c -.37 -.449 -.633 -.915 -.809 -1.399 L 135.844 62.161 c -.44 -1.219 -.669 -2.17 -.669 -2.814 c 0 -.646 .211 -1.147 .616 -1.524 c .404 -.359 1.107 -.61 2.074 -.752 c .986 -.144 2.269 -.215 3.889 -.215 c 1.458 0 2.621 .018 3.481 .071 c .861 .054 1.53 .197 2.005 .394 c .475 .215 .845 .538 1.074 .986 c .246 .431 .475 1.058 .72 1.865 l 10.816 31.376 h .159 l 9.813 -32.004 c .211 -.915 .475 -1.524 .808 -1.828 c .317 -.287 .862 -.503 1.619 -.645 c .755 -.144 2.093 -.215 3.976 -.215 c 1.495 0 2.726 .071 3.693 .215 c .985 .142 1.706 .393 2.18 .788 c .458 .376 .687 .896 .687 1.542 c 0 .646 -.124 1.416 -.406 2.295 z m 83.646 -5.432 c 0 1.021 -.034 1.864 -.123 2.563 c -.087 .682 -.21 1.237 -.386 1.651 c -.176 .429 -.387 .735 -.651 .932 c -.247 .197 -.545 .287 -.845 .287 h -33.45 c -1.127 0 -2.076 -.341 -2.851 -1.022 c -.773 -.681 -1.161 -1.792 -1.161 -3.334 V 44 c 0 -1.542 .388 -2.653 1.161 -3.334 c .775 -.681 1.724 -1.022 2.851 -1.022 h 33.292 c .299 0 .58 .09 .826 .269 c .228 .18 .44 .484 .617 .915 c .158 .449 .298 1.004 .387 1.686 c .087 .699 .123 1.56 .123 2.617 c 0 .986 -.036 1.812 -.123 2.51 c -.088 .681 -.212 1.238 -.387 1.65 c -.176 .431 -.389 .735 -.617 .933 c -.247 .197 -.527 .287 -.826 .287 H 224.8 v 16.566 h 20.049 c .317 0 .6 .091 .844 .288 c .264 .197 .476 .484 .651 .896 c .176 .395 .298 .932 .386 1.632 c .088 .681 .124 1.506 .124 2.474 c 0 1.022 -.036 1.864 -.124 2.527 c -.088 .664 -.21 1.202 -.386 1.597 c -.176 .412 -.388 .698 -.651 .861 c -.245 .179 -.527 .269 -.844 .269 H 224.8 v 19.148 h 23.954 c .317 0 .598 .09 .845 .287 c .264 .197 .475 .502 .651 .933 c .176 .413 .299 .969 .386 1.65 c .089 .695 .123 1.538 .123 2.56 z M 424.586 69.353 c 0 2.76 -.141 5.629 -.403 8.587 c -.282 2.96 -.81 5.864 -1.584 8.696 c -.773 2.833 -1.828 5.523 -3.2 8.086 c -1.354 2.546 -3.113 4.788 -5.259 6.688 c -2.146 1.901 -4.767 3.425 -7.845 4.536 c -3.078 1.129 -6.7 1.686 -10.904 1.686 c -1.478 0 -2.936 -.107 -4.414 -.323 c -1.46 -.197 -2.778 -.466 -3.993 -.77 c -1.195 -.323 -2.215 -.664 -3.059 -1.004 c -.844 -.358 -1.46 -.717 -1.83 -1.076 c -.387 -.376 -.668 -.896 -.826 -1.595 c -.177 -.7 -.265 -1.686 -.265 -2.94 c 0 -1.165 .019 -2.08 .071 -2.779 c .055 -.7 .158 -1.255 .316 -1.632 c .158 -.394 .353 -.645 .563 -.77 c .228 -.109 .492 -.181 .809 -.181 c .403 0 1.002 .125 1.76 .376 c .755 .234 1.67 .521 2.76 .844 c 1.091 .305 2.321 .591 3.693 .826 c 1.372 .25 2.919 .376 4.608 .376 c 2.885 0 5.328 -.52 7.334 -1.579 c 1.986 -1.058 3.606 -2.474 4.854 -4.267 c 1.247 -1.792 2.146 -3.873 2.742 -6.222 c .582 -2.348 .916 -4.823 .985 -7.423 c -1.582 1.022 -3.5 1.901 -5.731 2.654 c -2.234 .754 -4.804 1.13 -7.688 1.13 c -3.552 0 -6.559 -.467 -9.023 -1.417 c -2.478 -.95 -4.502 -2.312 -6.049 -4.088 c -1.548 -1.793 -2.673 -3.944 -3.378 -6.508 c -.703 -2.546 -1.055 -5.432 -1.055 -8.643 c 0 -3.406 .493 -6.526 1.495 -9.376 c 1.003 -2.833 2.479 -5.307 4.434 -7.387 c 1.951 -2.08 4.396 -3.693 7.315 -4.841 c 2.919 -1.166 6.297 -1.74 10.146 -1.74 c 3.097 0 5.806 .36 8.109 1.095 c 2.321 .734 4.309 1.792 5.98 3.156 c 1.67 1.363 3.06 3.029 4.168 4.966 c 1.125 1.937 2.004 4.105 2.638 6.49 c .633 2.366 1.073 4.949 1.335 7.709 c .268 2.761 .391 5.647 .391 8.66 z m -13.4 -1.955 c 0 -3.729 -.211 -6.849 -.616 -9.34 c -.422 -2.511 -1.038 -4.52 -1.864 -6.007 c -.826 -1.487 -1.865 -2.563 -3.095 -3.191 c -1.232 -.627 -2.691 -.932 -4.345 -.932 c -1.617 0 -3.007 .287 -4.168 .861 c -1.178 .574 -2.146 1.38 -2.92 2.42 c -.773 1.058 -1.353 2.276 -1.741 3.711 c -.37 1.435 -.563 2.994 -.563 4.698 c 0 1.847 .159 3.478 .494 4.877 c .316 1.417 .844 2.581 1.546 3.496 c .705 .933 1.618 1.614 2.762 2.062 c 1.144 .448 2.516 .681 4.134 .681 c 1.987 0 3.887 -.304 5.646 -.915 c 1.775 -.61 3.358 -1.417 4.73 -2.421 z m 72.683 4.787 c 0 5.432 -.423 10.328 -1.284 14.703 c -.861 4.375 -2.268 8.104 -4.204 11.188 c -1.952 3.083 -4.465 5.45 -7.579 7.082 c -3.112 1.649 -6.929 2.474 -11.431 2.474 c -4.573 0 -8.354 -.789 -11.344 -2.384 c -2.991 -1.596 -5.366 -3.891 -7.107 -6.885 c -1.759 -2.995 -2.989 -6.652 -3.692 -10.973 c -.703 -4.32 -1.057 -9.216 -1.057 -14.666 c 0 -5.396 .44 -10.292 1.319 -14.684 c .881 -4.393 2.286 -8.122 4.222 -11.206 c 1.951 -3.083 4.467 -5.451 7.58 -7.083 c 3.113 -1.649 6.911 -2.474 11.38 -2.474 c 4.572 0 8.354 .79 11.361 2.385 c 3.007 1.595 5.4 3.89 7.14 6.885 c 1.758 2.994 2.972 6.652 3.658 10.972 c .686 4.321 1.038 9.216 1.038 14.666 z m -13.614 .717 c 0 -3.227 -.088 -6.06 -.263 -8.515 c -.177 -2.475 -.44 -4.608 -.792 -6.438 c -.369 -1.811 -.826 -3.353 -1.355 -4.606 c -.526 -1.255 -1.176 -2.278 -1.952 -3.013 c -.755 -.753 -1.616 -1.291 -2.584 -1.613 c -.967 -.305 -2.041 -.466 -3.218 -.466 c -2.023 0 -3.711 .501 -5.047 1.488 c -1.338 1.004 -2.375 2.492 -3.167 4.5 c -.773 1.989 -1.32 4.464 -1.617 7.44 c -.318 2.977 -.476 6.438 -.476 10.381 c 0 4.823 .193 8.822 .563 11.977 c .386 3.173 .984 5.683 1.793 7.566 c .809 1.864 1.864 3.173 3.13 3.927 c 1.285 .753 2.814 1.129 4.625 1.129 c 1.338 0 2.532 -.216 3.571 -.665 c 1.037 -.43 1.935 -1.093 2.726 -1.954 c .774 -.878 1.425 -1.972 1.935 -3.317 c .528 -1.326 .949 -2.868 1.267 -4.607 c .334 -1.758 .563 -3.729 .687 -5.936 c .122 -2.186 .174 -4.624 .174 -7.278 z m 71.312 15.312 c 0 3.065 -.527 5.827 -1.565 8.229 c -1.056 2.42 -2.603 4.464 -4.643 6.114 c -2.04 1.667 -4.59 2.922 -7.614 3.783 c -3.026 .861 -6.509 1.291 -10.466 1.291 c -3.763 0 -7.088 -.377 -9.937 -1.147 c -2.851 -.771 -5.241 -1.901 -7.177 -3.389 c -1.916 -1.488 -3.359 -3.335 -4.325 -5.522 c -.969 -2.188 -1.442 -4.697 -1.442 -7.531 c 0 -1.918 .281 -3.729 .844 -5.432 c .581 -1.704 1.407 -3.281 2.533 -4.734 c 1.107 -1.453 2.515 -2.815 4.167 -4.088 c 1.672 -1.273 3.59 -2.493 5.753 -3.658 c -1.759 -.968 -3.341 -2.026 -4.749 -3.174 c -1.407 -1.129 -2.604 -2.367 -3.606 -3.729 c -1.002 -1.344 -1.758 -2.814 -2.268 -4.428 c -.511 -1.614 -.774 -3.37 -.774 -5.253 c 0 -2.725 .475 -5.199 1.424 -7.422 c .932 -2.225 2.357 -4.16 4.221 -5.773 c 1.883 -1.632 4.222 -2.887 7.035 -3.767 c 2.833 -.878 6.085 -1.309 9.797 -1.309 c 3.693 0 6.841 .395 9.479 1.202 c 2.621 .807 4.783 1.954 6.473 3.425 c 1.67 1.47 2.919 3.227 3.728 5.271 c .811 2.044 1.216 4.321 1.216 6.794 c 0 1.651 -.265 3.246 -.793 4.806 c -.544 1.56 -1.283 3.047 -2.251 4.446 c -.968 1.399 -2.146 2.708 -3.554 3.963 c -1.406 1.237 -3.008 2.365 -4.801 3.388 c 2.093 1.111 3.975 2.294 5.61 3.567 c 1.653 1.255 3.044 2.619 4.187 4.071 c 1.125 1.453 2.004 2.994 2.604 4.644 c .595 1.651 .894 3.426 .894 5.362 z M 526.582 55.242 c 0 -1.219 -.175 -2.313 -.508 -3.299 c -.353 -.968 -.881 -1.812 -1.619 -2.493 c -.737 -.682 -1.652 -1.184 -2.728 -1.542 c -1.07 -.34 -2.354 -.52 -3.814 -.52 c -2.885 0 -5.014 .681 -6.421 2.026 c -1.407 1.345 -2.109 3.191 -2.109 5.577 c 0 1.111 .176 2.151 .545 3.083 c .352 .951 .915 1.848 1.671 2.672 c .739 .843 1.724 1.667 2.92 2.474 c 1.196 .807 2.619 1.65 4.256 2.564 c 2.498 -1.506 4.432 -3.102 5.786 -4.823 c 1.353 -1.703 2.021 -3.621 2.021 -5.719 z m 1.583 33.886 c 0 -1.291 -.21 -2.474 -.649 -3.532 c -.422 -1.076 -1.09 -2.08 -2.006 -3.013 c -.914 -.95 -2.057 -1.864 -3.446 -2.725 c -1.373 -.878 -2.973 -1.774 -4.802 -2.671 c -1.582 .861 -2.989 1.739 -4.186 2.618 c -1.214 .861 -2.216 1.792 -3.007 2.744 c -.792 .967 -1.391 1.972 -1.777 3.047 c -.403 1.058 -.597 2.205 -.597 3.425 c 0 2.725 .86 4.804 2.602 6.238 c 1.741 1.435 4.346 2.152 7.792 2.152 c 3.377 0 5.89 -.735 7.563 -2.206 c 1.669 -1.468 2.513 -3.495 2.513 -6.077 z" fill-rule="evenodd"/></g></g></svg>