<svg xmlns="http://www.w3.org/2000/svg" width="1000" height="1000" viewBox="0 0 1000 1000"><g fill-rule="evenodd" clip-rule="evenodd"><path fill="#d62c27" d="M200 852.998c.946 51.182 10.886 72.07 64.755 72.07 46.386 0 90.27-.689 136.533-.781 29.882-.06 86.6 24.27 86.6 50.713 2.425-3.49 1.554-7.15 5.144-12.02 3.296-4.474 4.115-5.41 7.926-9.24 4.978-5.005 13.475-10.76 20.215-14.112 13.358-6.646 34.856-15.341 54.095-15.341 36.146 0 71.716.78 106.886.78 96.2 0 94.885-16.405 94.402-120.929V265.81H200Z"/><path fill="#004a90" d="m575.27 911.035 133.986-.168c42.79.13 52.479-17.409 52.479-56.467V440.57H575.269ZM214.823 857.972c0 34.2 12.991 52.602 40.893 53.234l144.011.188V440.571H214.823Z"/><path fill="#fefdfd" d="M537.82 410.925h33.548v-43.69h5.462c8.353 0 13.635 13.466 17.03 19.638 2.34 4.256 11.826 20.654 12.618 24.052h38.23c-.888-3.807-11.135-21.496-13.781-26.79-2.41-4.821-4.448-8.653-7.858-12.426-3.669-4.06-10.647-7.432-11.91-9.156 13.401-1.115 24.966-14.364 24.966-29.648 0-21.95-15.292-30.427-37.45-30.427h-60.853v108.447zM405.189 352.41v6.242c0 30.129 20.041 53.832 49.932 53.832h12.483c9.718 0 21.647-2.302 28.078-5.468 3.55-1.747 20.293-9.805 20.293-13.255V349.29h-52.272v22.625h22.625v8.581c0 4.387-15.617 8.582-21.846 8.582h-4.681c-11.682 0-21.065-14.38-21.065-26.526V350.85c0-12.134 8.467-25.746 20.285-25.746h9.363c5.454 0 12.104 6.726 13.338 12.126l31.913-5.884c-.185-8.343-7.128-16.59-11.914-20.855-4.27-3.802-16.034-9.573-23.195-9.573H453.56c-26.131 0-48.371 24.531-48.371 51.492M657.19 302.478v108.447h92.062v-24.187h-57.735l-.78-21.845h52.272v-21.846h-52.323l.83-17.163h55.394v-23.406ZM229.647 329.005h34.328v81.92h32.768v-81.92h34.328v-26.527H229.647ZM349.795 302.478h33.549v108.447h-33.549Z"/><path fill="#c91f28" d="M571.368 346.948h10.143c9.795 0 21.065-2.152 21.065-11.702v-2.342c0-4.56-7.317-8.582-12.484-8.582h-18.724Z"/><path fill="#d06e75" d="M743.01 364.893h-52.273l.78 21.845v-21.064h52.274v-23.407h-52.274v-16.383l-.83 17.163h52.322Z"/></g><path fill="#eab918" stroke="#004a90" stroke-linejoin="round" stroke-width="1.92686" d="M549.803 218.647c-.624.446-61.315-45.118-62.083-45.124-.767-.007-62.185 44.572-62.802 44.116-.618-.456 23.962-72.257 23.73-72.988-.23-.732-61.607-45.369-61.364-46.097s76.125.46 76.75.015c.624-.446 24.11-72.612 24.877-72.606.768.006 23.086 72.542 23.703 72.998s76.508.492 76.74 1.224c.23.731-61.858 44.372-62.1 45.1-.244.728 23.174 72.915 22.55 73.362z"/></svg>