<?xml version="1.0" encoding="UTF-8" standalone="no"?>
<svg
   xmlns:dc="http://purl.org/dc/elements/1.1/"
   xmlns:cc="http://creativecommons.org/ns#"
   xmlns:rdf="http://www.w3.org/1999/02/22-rdf-syntax-ns#"
   xmlns:svg="http://www.w3.org/2000/svg"
   xmlns="http://www.w3.org/2000/svg"
   xmlns:sodipodi="http://sodipodi.sourceforge.net/DTD/sodipodi-0.dtd"
   xmlns:inkscape="http://www.inkscape.org/namespaces/inkscape"
   viewBox="0 0 1000 1000"
   height="1000"
   width="1000"
   xml:space="preserve"
   version="1.1"
   id="svg2"
   sodipodi:docname="Club Atlético Mitre (Santiago del Estero).svg"
   inkscape:version="1.0.1 (3bc2e813f5, 2020-09-07)"><sodipodi:namedview
     pagecolor="#ffffff"
     bordercolor="#666666"
     borderopacity="1"
     objecttolerance="10"
     gridtolerance="10"
     guidetolerance="10"
     inkscape:pageopacity="0"
     inkscape:pageshadow="2"
     inkscape:window-width="1920"
     inkscape:window-height="1017"
     id="namedview14"
     showgrid="false"
     inkscape:zoom="0.863"
     inkscape:cx="500"
     inkscape:cy="500"
     inkscape:window-x="-8"
     inkscape:window-y="-8"
     inkscape:window-maximized="1"
     inkscape:current-layer="svg2" /><metadata
     id="metadata8"><rdf:RDF><cc:Work
         rdf:about=""><dc:format>image/svg+xml</dc:format><dc:type
           rdf:resource="http://purl.org/dc/dcmitype/StillImage" /><dc:title></dc:title></cc:Work></rdf:RDF></metadata><defs
     id="defs6" /><g
     transform="matrix(5.4054577,0,0,-5.4054577,-17.577499,1024.0313)"
     id="g10"><g
       id="g4182"><path
         id="path16"
         style="fill:#231f20;fill-opacity:1;fill-rule:evenodd;stroke:none"
         d="m 42.2379,182.581 -13.6,-22.756 C 40.5168,145.035 42.9516,136.523 32.1637,113.304 6.81055,41.1617 68.0945,42.3414 96.6379,13.6867 c 32.1561,29.2754 83.5921,25.7 65.9851,95.5723 -11.123,22.207 -11.879,39.484 2.518,49.555 L 150.03,182.581 H 42.2379" /><path
         id="path18"
         style="fill:#f4ea29;fill-opacity:1;fill-rule:evenodd;stroke:none"
         d="m 29.4398,161.848 1.2,-6.573 H 162.156 l 2.64,6.573 H 29.4398" /><path
         id="path20"
         style="fill:#f4ea29;fill-opacity:1;fill-rule:evenodd;stroke:none"
         d="M 38.7117,136.346 H 61.882 V 35.9363 L 38.7117,51.6121 v 84.7339" /><path
         id="path22"
         style="fill:#f4ea29;fill-opacity:1;fill-rule:evenodd;stroke:none"
         d="M 83.5578,136.346 H 109.718 V 25.8227 L 96.6379,13.1813 83.5578,23.8004 V 136.346" /><path
         id="path24"
         style="fill:#f4ea29;fill-opacity:1;fill-rule:evenodd;stroke:none"
         d="m 131.393,136.346 h 23.171 V 51.1063 L 131.393,36.4418 v 99.9042" /><path
         id="path26"
         style="fill:#f4ea29;fill-opacity:1;fill-rule:evenodd;stroke:none"
         d="m 57.3422,169.849 2.3891,-0.694 c -0.3657,-1.215 -0.975,-2.119 -1.8262,-2.707 -0.8508,-0.591 -1.9344,-0.885 -3.2442,-0.885 -1.6226,0 -2.9566,0.505 -3.9984,1.514 -1.0434,1.011 -1.5664,2.394 -1.5664,4.145 0,1.854 0.525,3.296 1.5734,4.321 1.0504,1.025 2.4309,1.539 4.1399,1.539 1.4937,0 2.7082,-0.403 3.641,-1.208 0.5539,-0.477 0.9707,-1.162 1.2476,-2.052 l -2.4398,-0.532 c -0.1441,0.576 -0.4477,1.033 -0.9043,1.367 -0.4566,0.334 -1.0148,0.502 -1.6687,0.502 -0.9039,0 -1.6399,-0.298 -2.2028,-0.888 -0.5633,-0.592 -0.8469,-1.555 -0.8469,-2.881 0,-1.408 0.2793,-2.413 0.8333,-3.009 0.5542,-0.599 1.2789,-0.898 2.1656,-0.898 0.6558,0 1.2211,0.19 1.6906,0.571 0.4723,0.38 0.8133,0.978 1.0172,1.793 z m 4.8148,-4.097 v 2.136 h 2.3403 v -2.136 z m 20.5043,0 h -2.6816 l -1.0656,2.53 h -4.8825 l -1.0062,-2.53 h -2.6152 l 4.7539,11.139 h 2.6086 z m -4.5386,4.409 -1.6821,4.132 -1.6511,-4.135 z m 6.155,-4.409 v 2.136 h 2.3407 v -2.136 z m 9.4614,0 -0.0024,11.139 h 3.6903 l 2.216,-7.598 2.192,7.598 h 3.697 v -11.139 h -2.29 v 8.769 l -2.424,-8.769 h -2.3739 l -2.4156,8.769 v -8.769 z m 14.4929,0 v 11.139 h 2.464 v -11.139 z m 7.886,0 v 9.255 h -3.623 v 1.884 h 9.702 v -1.884 h -3.615 v -9.255 z m 8.006,0 -0.002,11.139 h 5.19 c 1.303,0 2.254,-0.101 2.843,-0.299 0.59,-0.2 1.064,-0.558 1.419,-1.068 0.355,-0.511 0.534,-1.097 0.534,-1.754 0,-0.838 -0.27,-1.529 -0.807,-2.073 -0.538,-0.544 -1.345,-0.888 -2.415,-1.029 0.532,-0.283 0.975,-0.595 1.32,-0.934 0.346,-0.34 0.816,-0.945 1.403,-1.81 l 1.492,-2.172 h -2.95 l -1.782,2.423 c -0.631,0.865 -1.065,1.413 -1.298,1.638 -0.233,0.226 -0.482,0.382 -0.741,0.464 -0.261,0.084 -0.675,0.126 -1.243,0.126 h -0.499 v -4.651 z m 2.464,6.43 1.825,-0.002 c 1.181,0 1.921,0.047 2.213,0.136 0.295,0.091 0.528,0.248 0.692,0.471 0.166,0.222 0.25,0.503 0.25,0.837 0,0.374 -0.111,0.677 -0.328,0.908 -0.219,0.23 -0.529,0.376 -0.928,0.436 -0.2,0.025 -0.803,0.039 -1.8,0.039 h -1.924 z m 10.171,-6.43 -0.002,11.139 h 9.056 v -1.884 h -6.589 v -2.469 h 6.13 v -1.878 h -6.13 v -3.031 h 6.821 v -1.877 h -9.286" /><path
         id="path28"
         style="fill:#231f20;fill-opacity:1;fill-rule:nonzero;stroke:none"
         d="M 43.7242,179.808 31.0848,159.396 c 15.8109,-13.71 11.0761,-26.723 5.3531,-42.447 -2.4313,-6.68 -5.0555,-13.888 -6.1395,-21.7748 l 0.0051,-4e-4 C 25.6477,57.2902 47.3102,46.302 68.4902,35.5582 78.8754,30.2906 89.1504,25.0781 96.6379,16.9176 c 7.4871,8.1605 17.7621,13.373 28.1481,18.6406 21.18,10.7438 42.842,21.732 38.186,59.6156 l 0.005,4e-4 c -1.084,7.8868 -3.708,15.0948 -6.139,21.7748 -5.724,15.724 -10.458,28.737 5.353,42.447 l -12.639,20.412 z m -18.0301,-19.635 14.5215,23.452 0.7395,1.194 H 152.32 l 0.74,-1.194 14.522,-23.452 1.167,-1.885 -1.735,-1.384 c -15.036,-11.993 -10.725,-23.838 -5.478,-38.252 2.52,-6.925 5.241,-14.4 6.398,-22.8387 v -0.0035 l 0.01,-0.0289 C 173.027,54.4238 149.773,42.6281 127.037,31.0953 116.209,25.6031 105.505,20.1738 98.5953,11.5219 L 96.6379,9.0707 94.6801,11.5219 C 87.7703,20.1738 77.0668,25.6031 66.2391,31.0953 43.5027,42.6281 20.2488,54.4238 25.332,95.7809 l 0.0098,0.0289 c 1.1562,8.4402 3.877,15.9152 6.398,22.8422 5.2469,14.414 9.5582,26.259 -5.4781,38.252 l -1.7351,1.384 1.1675,1.885" /></g></g></svg>
