<svg height="1000" viewBox="0 0 999.99998 1000" width="1000" xmlns="http://www.w3.org/2000/svg"><g transform="translate(99.999983 24.999996)"><path d="M 808.88045 149.71024 L 654.72333 .0000037 C 487.96746 87.159827 321.36087 87.159827 154.15714 .0000037 L .00001744 149.71024 C 55.294278 245.91764 68.77969 338.26173 40.61911 426.15893 C -12.892778 555.40808 3.8588086 677.69964 90.276731 793.02456 c 52.769989 59.28877 115.763739 94.71908 188.248389 106.57593 c 61.51447 9.78495 103.60832 26.38273 125.99654 50.39952 v -.44786 c 22.68228 -23.56893 64.7716 -40.16671 126.14131 -49.95166 C 603.29691 887.74364 665.84733 852.31785 718.61731 793.02456 C 805.03976 677.70416 821.78682 555.4126 768.27493 426.15893 C 740.10078 338.26173 753.74 245.91764 808.88045 149.71024" stroke-width="4.52379"/><path d="M 652.94548 12.897323 L 796.13242 151.79119 c -53.50736 96.20287 -66.11064 188.98576 -37.5022 277.4801 c 0 .44786 0 .74191 .29404 1.04048 c 51.73404 125.55321 35.72436 243.83669 -47.87524 355.74616 c -51.1369 57.21235 -111.90947 91.61123 -182.01914 103.17403 c -58.40663 9.3371 -99.7631 24.90346 -124.51274 46.54526 c -24.4556 -21.6418 -66.26445 -37.21268 -124.21869 -46.54526 C 209.74545 877.66916 149.41169 843.2748 98.279312 786.05793 C 14.679709 674.15299 -1.3345 555.86498 50.39954 430.31177 c 0 -.29405 0 -.59262 .294046 -1.04048 C 78.85869 340.78148 66.409225 247.99406 13.195907 151.79119 L 156.38284 12.897323 c 165.27208 84.346028 330.992 84.346028 496.56264 0" stroke-width="4.52379"/><path d="M 774.49514 154.90355 L 649.53907 33.647939 c -163.20018 79.600571 -326.54964 79.600571 -490.04386 0 L 34.688424 154.90355 c 50.399522 96.94478 61.215899 190.32029 32.317941 279.55653 v 1.03595 c -.29857 .44785 -.29857 1.18523 -.59714 1.48832 c -49.065004 118.8761 -34.091266 231.2289 44.767405 337.51078 c .28952 .44333 .28952 .44333 .7419 .73738 l .29857 .29404 c 47.87525 53.51189 104.94284 85.82983 170.89967 96.65073 c 53.81045 8.5952 94.42502 22.2299 121.40489 41.35647 c 26.83059 -19.12205 67.44516 -32.75675 121.6899 -41.35647 c 65.67183 -10.82542 122.59013 -43.13884 170.90871 -96.65073 l .29405 -.29404 c 0 -.29405 0 -.29405 .29404 -.29405 v -.44333 c 49.80691 -66.55397 74.41179 -135.7815 73.22204 -207.51973 c -.59262 -42.53718 -9.92972 -85.97459 -28.0113 -129.99105 c -.29857 -.30309 -.73738 -1.04047 -.73738 -1.48832 c -.29857 -.29405 -.29857 -.59262 -.29857 -1.03595 c -28.76224 -89.23624 -18.0861 -182.61627 32.61199 -279.55653" stroke-width="4.52379"/><path d="M 647.45813 46.251212 L 761.74258 156.98449 c -26.08416 51.43095 -41.05337 101.82595 -44.90764 150.74167 H 92.344102 C 88.195788 258.81044 73.375859 208.41544 47.58122 156.98449 L 161.56711 46.251212 c 162.16422 76.777728 324.02536 76.777728 485.89102 0" fill="#fff" stroke-width="4.52379"/><path d="m 733.582 441.42219 c 0 .45238 0 .74642 .29405 1.04499 c 16.75611 41.0579 25.79464 81.36938 26.6813 120.95252 c -.29405 1.04048 -.29405 2.37047 0 3.5557 c .7419 69.66181 -22.82703 136.66816 -71.14561 201.295 l -.29857 .44785 c -28.45915 31.57152 -60.02615 55.4345 -94.86384 71.89656 V 343.5998 h 121.54514 c .7419 31.56699 5.92616 62.40113 16.00516 93.08146 v .60166 c .29405 .7419 .29405 1.48381 .7419 2.07642 c .29857 .7419 .59262 1.47023 1.04047 2.06285" fill="#189145" stroke-width="4.52379"/><path d="m 77.076317 436.98435 c 0 -.30309 0 -.30309 .447855 -.30309 c 9.635669 -30.68033 14.81993 -61.51447 15.864925 -93.08146 H 213.59519 v 496.26406 c -34.38531 -16.2992 -65.66278 -40.02195 -93.68312 -71.14561 l -.43881 -.44785 C 69.073736 700.97905 45.504801 630.71105 48.617167 558.23092 c 0 -1.03595 0 -2.37047 .294046 -3.5557 c 1.782373 -36.46625 10.526855 -73.97298 26.093209 -111.7647 c .447855 -.44786 .447855 -.74191 .737378 -1.03595 c .29857 -.73738 .29857 -1.045 .741901 -1.47928 c .294046 -1.03595 .294046 -2.08547 .592616 -3.11689 z" fill="#189145" stroke-width="4.52379"/><path d="M 463.064 875.59274 C 439.78912 882.55485 420.22373 890.856 404.51714 900.93048 C 388.65674 890.856 368.94207 882.55485 345.22837 875.2987 V 343.5998 h 117.84016 v 531.99294 z" fill="#189145" stroke-width="4.52379"/><path d="M 478.637 239.952 L 478.637 252.174 L 482.863 252.174 L 482.863 224.126 L 478.637 224.126 L 478.637 235.202 L 470.412 235.202 L 470.412 224.126 L 466.35 224.126 L 466.35 252.174 L 470.412 252.174 L 470.412 239.952 Z" transform="matrix(4.523788 0 0 4.523788 -1504.5983 -878.85891)"/><path d="m 569.64897 176.40059 l 19.11301 -5.93521 c -2.0719 -10.37304 -5.18426 -18.38015 -9.78043 -23.56893 c -7.25616 -9.3371 -16.30373 -13.78398 -27.71725 -13.78398 c -12.90184 0 -23.7137 5.93068 -31.57152 17.63372 c -8.44591 11.42257 -12.60327 28.16963 -12.60327 49.35905 c 0 19.42062 4.15736 34.98245 12.15994 47.1424 c 8.00258 11.11494 18.08158 16.74706 30.9789 17.04111 c 9.63567 -.28953 18.08611 -3.85427 24.60488 -10.37305 c 6.67259 -6.66806 11.11495 -16.75159 13.92875 -30.237 l -18.37111 -8.30567 c -1.48832 9.3371 -3.85879 15.8604 -7.70853 20.158 c -3.85427 4.4514 -8.0071 6.5233 -12.89732 6.5233 c -6.51425 0 -12.15994 -3.41094 -16.30373 -10.37757 c -4.44236 -6.66806 -6.5233 -17.78754 -6.5233 -33.64794 c 0 -15.26778 2.08094 -26.09321 6.5233 -32.75675 c 4.14379 -6.96663 9.78948 -10.37757 16.74706 -10.37757 c 5.18879 0 9.3371 2.08095 13.19137 5.93069 c 3.10784 3.41546 5.18426 8.60425 6.22925 15.5754" stroke-width="4.52379"/><path d="M 433.092 252.174 L 433.092 224.126 L 429.192 224.126 L 429.192 242.869 L 420.805 224.126 L 416.74 224.126 L 416.74 252.174 L 420.574 252.174 L 420.574 233.891 L 428.864 252.174 Z" transform="matrix(4.523788 0 0 4.523788 -1504.5983 -878.85891)"/><path d="M 474.17889 237.61198 H 492.115709 V 261.922817 H 474.17889 Z" stroke-width="4.52379"/><path d="m 128.21322 150.75072 c -8.30568 11.42256 -12.59875 28.16962 -12.59875 49.35905 c 0 19.42062 4.29307 34.98245 12.15994 47.14239 c 8.00258 11.11495 18.08158 16.74706 30.9789 17.04111 c 9.78948 -.28952 17.64277 -3.85427 24.30631 -10.37305 c 6.67711 -6.66806 11.124 -16.75158 14.23184 -30.23699 l -18.37563 -8.30568 c -1.77785 9.3371 -4.15283 15.8604 -7.70853 20.158 c -3.70951 4.45141 -8.00711 6.5233 -13.19137 6.5233 c -6.51878 0 -11.71208 -3.41093 -16.30373 -10.37757 c -4.45141 -6.66806 -6.52783 -17.78753 -6.22926 -33.64793 c -.29857 -15.26779 1.77785 -26.09321 6.22926 -32.75675 c 4.59617 -6.96664 10.07448 -10.37757 17.04563 -10.37757 c 4.89474 0 9.03853 2.08094 12.90185 5.93068 c 3.11236 3.40642 5.48735 8.59068 6.51878 15.56636 l 19.11752 -5.93521 c -2.36594 -10.37305 -5.62759 -18.38015 -9.7759 -23.56894 c -7.26521 -9.33709 -16.6023 -13.78398 -27.72178 -13.78398 c -13.20041 .005 -23.57798 5.93521 -31.58508 17.64278" stroke-width="4.52379"/><path d="M 343.59525 237.61198 H 361.527545 V 261.922817 H 343.59525 Z" stroke-width="4.52379"/><path d="M 213.00261 237.61198 H 230.939429 V 261.922817 H 213.00261 Z" stroke-width="4.52379"/><path d="m 286.5277 164.68851 l 12.8928 47.13334 h -25.35131 z m -46.10192 97.2343 h 20.158 l 7.56377 -28.90701 h 37.49768 l 8.0071 28.90701 h 20.158 L 296.6067 135.0396 h -19.71467 z" stroke-width="4.52379"/></g></svg>