<?xml version="1.0" encoding="UTF-8" standalone="no"?>
<svg
   xmlns:dc="http://purl.org/dc/elements/1.1/"
   xmlns:cc="http://creativecommons.org/ns#"
   xmlns:rdf="http://www.w3.org/1999/02/22-rdf-syntax-ns#"
   xmlns:svg="http://www.w3.org/2000/svg"
   xmlns="http://www.w3.org/2000/svg"
   xmlns:sodipodi="http://sodipodi.sourceforge.net/DTD/sodipodi-0.dtd"
   xmlns:inkscape="http://www.inkscape.org/namespaces/inkscape"
   version="1.1"
   id="Capa_1"
   x="0px"
   y="0px"
   width="1000"
   height="1000"
   viewBox="0 0 1000 1000"
   enable-background="new 0 0 694 721"
   xml:space="preserve"
   sodipodi:docname="Club Atlético San Martín(San Juan).svg"
   inkscape:version="1.0.1 (3bc2e813f5, 2020-09-07)"><metadata
   id="metadata19"><rdf:RDF><cc:Work
       rdf:about=""><dc:format>image/svg+xml</dc:format><dc:type
         rdf:resource="http://purl.org/dc/dcmitype/StillImage" /><dc:title></dc:title></cc:Work></rdf:RDF></metadata><defs
   id="defs17">
	
	
	
	
	
</defs><sodipodi:namedview
   pagecolor="#ffffff"
   bordercolor="#666666"
   borderopacity="1"
   objecttolerance="10"
   gridtolerance="10"
   guidetolerance="10"
   inkscape:pageopacity="0"
   inkscape:pageshadow="2"
   inkscape:window-width="1920"
   inkscape:window-height="1017"
   id="namedview15"
   showgrid="false"
   inkscape:zoom="0.43446367"
   inkscape:cx="-464.58525"
   inkscape:cy="371.79085"
   inkscape:window-x="-8"
   inkscape:window-y="-8"
   inkscape:window-maximized="1"
   inkscape:current-layer="Capa_1" />
<g
   id="g862"><g
     id="g854"
     transform="matrix(1.3405563,0,0,1.3405563,31.109431,15.652301)"><path
       fill-rule="evenodd"
       clip-rule="evenodd"
       fill="#14110c"
       d="m 6.632,93.852 v 34.538 c 0.575,1.688 0.925,23.666 1.115,27.597 4.215,87.12 22.384,182.462 57.767,261.131 6.066,13.487 11.927,26.591 18.758,39.193 21.095,38.917 41.241,70.717 69.502,104.405 l 16.69,19.169 c 8.181,8.244 16.252,17.877 25.093,25.981 l 34.138,30.715 c 22.323,20.24 71.81,53.508 98.504,68.515 2.982,1.676 6.139,3.385 9.137,5.122 2.442,1.415 7.619,3.759 9.379,5.416 h 0.806 c 1.899,-1.712 6.493,-3.703 9.106,-5.232 17.748,-10.388 27.528,-15.877 45.316,-27.393 17.518,-11.342 34.174,-23.639 50.494,-36.471 7.16,-5.631 34.687,-28.927 38.739,-33.467 2.705,-3.03 4.807,-4.701 7.538,-7.205 4.957,-4.545 9.705,-9.694 14.354,-14.627 28.638,-30.392 54.105,-61.867 75.92,-97.967 48.782,-80.732 76.691,-162.839 90.016,-257.739 3.733,-26.589 6.222,-52.665 7.522,-79.547 0.189,-3.937 0.538,-25.902 1.114,-27.597 V 94.053 c -7.416,1.224 -15.561,3.614 -23.114,5.178 -25.784,5.337 -50.931,7.984 -77.612,7.537 C 503.546,105.373 425.362,70.621 362.927,19.675 L 347.567,6.973 h -0.517 c -1.346,1.679 -5.968,4.776 -7.846,6.314 -16.227,13.294 -40.983,30.122 -58.743,40.488 -53.178,31.039 -109.475,51.598 -173.998,53.141 -26.15,0.625 -51.92,-2.071 -77.209,-7.681 C 21.961,97.618 13.743,95.021 6.632,93.852 Z"
       id="path2" /><path
       fill-rule="evenodd"
       clip-rule="evenodd"
       fill="#40ab35"
       d="m 300.169,303.199 0.019,357.431 c 2.547,2.513 44.841,28.6 46.95,28.6 2.119,-10e-4 44.342,-26.062 46.888,-28.6 l 0.063,-375.497 z"
       id="path4"
       style="fill:#01662f;fill-opacity:1" /><path
       fill-rule="evenodd"
       clip-rule="evenodd"
       fill="#40ab35"
       d="m 488.34,266.598 -0.103,317.136 c 1.043,-2.004 4.611,-4.341 6.597,-6.291 2.264,-2.223 4.139,-4.606 6.271,-7.01 1.122,-1.264 2.125,-1.86 3.237,-3.126 1.136,-1.29 1.946,-2.575 3.136,-3.762 l 12.686,-14.325 c 4.955,-6.631 12.646,-14.803 17.962,-22.312 7.524,-10.629 14.677,-19.726 22.246,-31.287 7.069,-10.798 13.548,-21.712 20.516,-33.503 2.535,-4.289 1.272,-19.279 1.272,-25.431 V 248.43 Z"
       id="path6"
       style="fill:#01662f;fill-opacity:1" /><path
       fill-rule="evenodd"
       clip-rule="evenodd"
       fill="#40ab35"
       d="m 112.134,339.736 -0.033,116.11 c -0.039,5.012 0.506,4.723 2.552,8.435 4.989,9.052 10.557,17.898 15.99,26.241 8.796,13.507 16.52,24.453 26.123,37.25 l 21.143,26.02 c 1.105,1.25 1.524,1.513 2.544,2.848 l 12.716,13.796 c 2.222,2.499 5.177,6.235 7.603,8.136 1.414,1.107 4.537,3.913 5.058,5.163 l 0.208,-262.18 z"
       id="path8"
       style="fill:#01662f;fill-opacity:1" /><path
       fill-rule="evenodd"
       clip-rule="evenodd"
       fill="#ffffff"
       d="m 78.268,211.426 3.962,-0.769 c 0.915,4.537 1.575,7.182 1.995,7.915 0.421,0.735 1.5,1.585 3.256,2.565 1.756,0.98 3.907,1.639 6.468,1.973 2.545,0.337 5.089,0.25 7.619,-0.242 4.34,-0.843 7.574,-2.664 9.734,-5.481 2.148,-2.798 2.893,-5.93 2.227,-9.356 -0.616,-3.174 -1.952,-5.428 -3.992,-6.776 -2.074,-1.359 -5.624,-1.909 -10.649,-1.666 -7.448,0.371 -12.558,0.189 -15.33,-0.561 -2.769,-0.734 -5.123,-2.186 -7.061,-4.353 -1.942,-2.184 -3.236,-4.983 -3.906,-8.426 -1.122,-5.768 -0.046,-11.066 3.229,-15.863 3.292,-4.8 9.38,-8.055 18.309,-9.792 3.491,-0.677 6.639,-1.012 9.458,-1.022 2.805,-0.006 5.692,0.33 8.66,0.992 l 0.67,1.012 c -0.125,2.046 -0.13,3.859 -0.03,5.471 0.099,1.596 0.436,4.336 1.027,8.217 l -3.963,0.771 c -1.076,-4.7 -1.812,-7.315 -2.239,-7.834 -0.778,-0.893 -2.463,-1.675 -5.054,-2.33 -2.591,-0.655 -5.42,-0.692 -8.469,-0.1 -4.197,0.816 -7.252,2.471 -9.166,4.963 -1.914,2.494 -2.567,5.345 -1.941,8.566 0.383,1.966 1.187,3.587 2.43,4.863 1.226,1.263 2.771,2.088 4.604,2.449 1.847,0.358 5.663,0.434 11.449,0.238 5.256,-0.238 8.845,-0.153 10.812,0.231 3.203,0.616 5.821,2.001 7.822,4.156 2.021,2.168 3.394,5.116 4.121,8.856 1.262,6.492 -0.17,12.383 -4.297,17.671 -4.146,5.276 -10.518,8.75 -19.132,10.425 -3.836,0.746 -7.396,1.062 -10.667,0.932 -3.272,-0.131 -6.746,-0.713 -10.425,-1.759 0.135,-2.244 0.117,-4.265 -0.033,-6.046 -0.235,-2.467 -0.729,-5.763 -1.498,-9.89 z m 56.999,4.795 c 2.847,-0.716 4.568,-1.345 5.158,-1.917 0.398,-0.388 0.896,-1.691 1.491,-3.911 1.095,-4.356 2.405,-10.371 3.936,-18.025 l 8.509,-43.089 6.791,-1.32 30.396,45.429 c 3.917,5.715 6.246,8.802 6.991,9.277 0.746,0.474 2.758,0.507 6.053,0.081 l 0.807,4.148 c -5.052,0.787 -9.802,1.612 -14.251,2.476 -5.312,1.033 -10.355,2.112 -15.114,3.232 l -0.807,-4.15 c 3.632,-0.869 5.703,-1.468 6.216,-1.846 0.517,-0.36 0.71,-0.872 0.583,-1.531 -0.113,-0.582 -1.136,-2.406 -3.073,-5.489 l -4.533,-7.128 c -3.817,0.676 -8.052,1.467 -12.735,2.377 -4.072,0.792 -7.776,1.543 -11.097,2.255 l -1.019,5.581 c -0.275,1.521 -0.542,3.76 -0.783,6.71 -0.068,0.665 -0.051,1.25 0.05,1.769 0.134,0.691 0.528,1.12 1.179,1.287 0.652,0.167 2.864,0.048 6.633,-0.374 l 0.806,4.149 c -3.04,0.396 -6.799,1.028 -11.279,1.899 -4.26,0.827 -7.622,1.58 -10.1,2.256 z m 21.473,-50.504 -5.107,25.594 c 2.853,-0.426 5.962,-0.963 9.374,-1.627 3.552,-0.69 6.936,-1.414 10.165,-2.171 z m 52.885,40.356 c 5.78,-1.318 9.55,-2.15 11.326,-2.495 2.122,-0.413 5.677,-1.006 10.649,-1.776 l -0.733,-3.773 c -3.874,0.459 -6.132,0.589 -6.783,0.356 -0.363,-0.108 -0.634,-0.333 -0.825,-0.639 -0.496,-0.703 -1.268,-3.587 -2.347,-8.632 -1.46,-6.844 -2.666,-12.711 -3.613,-17.583 l -3.48,-17.904 c 4.359,3.883 9.996,8.628 16.941,14.227 13.727,11.035 25.39,20.171 34.978,27.376 1.584,-0.078 4.295,-0.148 8.167,-0.2 l 0.472,-0.761 c -1.158,-4.946 -2.22,-9.91 -3.191,-14.909 l -3.521,-18.614 -3.449,-18.499 c -0.748,-4.014 -1.08,-6.396 -1.019,-7.174 0.041,-0.465 0.161,-0.847 0.342,-1.176 0.195,-0.331 0.471,-0.598 0.849,-0.834 0.637,-0.417 2.65,-1.054 6.034,-1.939 l -0.733,-3.773 c -3.642,0.904 -7.711,1.793 -12.238,2.673 -3.315,0.645 -6.652,1.195 -10.02,1.654 l 0.733,3.772 c 3.86,-0.456 6.052,-0.67 6.587,-0.611 0.517,0.062 0.898,0.266 1.158,0.591 0.509,0.603 1.102,2.396 1.808,5.358 1.104,5.005 2.331,10.982 3.681,17.93 l 3.559,18.312 c -5.22,-3.781 -11.479,-8.616 -18.813,-14.548 -11.001,-8.84 -20.928,-17.106 -29.774,-24.768 -3.201,0.818 -6.074,1.474 -8.621,1.97 -2.294,0.446 -5.867,1.042 -10.681,1.782 l 0.733,3.773 c 4.075,-0.433 6.453,-0.536 7.139,-0.279 0.432,0.129 0.799,0.416 1.06,0.838 0.501,0.734 1.239,3.69 2.245,8.863 l 3.896,19.536 c 0.731,3.757 1.736,9.353 3,16.774 0.79,4.48 1.076,7.132 0.891,7.936 -0.113,0.594 -0.352,1.046 -0.727,1.381 -0.582,0.455 -2.717,1.131 -6.411,2.012 z m -114.383,111.809 -0.734,-3.773 2.715,-0.723 c 2.208,-0.56 3.514,-1.222 3.952,-1.992 0.44,-0.754 0.34,-3.035 -0.302,-6.841 -1.283,-7.613 -2.788,-15.854 -4.505,-24.688 -0.913,-4.7 -1.969,-10.042 -3.164,-16.024 -0.734,-3.609 -1.37,-5.786 -1.886,-6.518 -0.267,-0.356 -0.661,-0.622 -1.208,-0.76 -0.537,-0.156 -2.771,0.017 -6.692,0.485 l -0.734,-3.772 c 3.723,-0.658 7.359,-1.332 10.912,-2.023 4.135,-0.804 8.106,-1.608 11.929,-2.417 2.408,3.578 4.873,7.112 7.395,10.602 1.786,2.475 9.603,12.979 23.43,31.499 6.406,-23.024 10.743,-39.903 13,-50.619 3.73,-0.529 7.254,-1.117 10.571,-1.761 3.898,-0.757 7.636,-1.582 11.231,-2.476 l 0.733,3.773 c -4.022,1.042 -6.247,1.85 -6.693,2.409 -0.425,0.573 -0.495,2.071 -0.184,4.507 0.563,3.902 1.898,11.277 4.003,22.109 1.06,5.454 2.232,11.229 3.505,17.278 1.278,6.064 2.15,9.469 2.624,10.224 0.313,0.43 0.681,0.733 1.139,0.906 0.458,0.171 2.685,0.048 6.697,-0.374 l 0.733,3.773 c -5.003,0.777 -9.471,1.548 -13.368,2.305 -3.931,0.765 -9.241,1.895 -15.963,3.396 l -0.733,-3.772 2.67,-0.616 c 2.103,-0.508 3.381,-1.066 3.802,-1.67 0.434,-0.621 0.52,-2.026 0.252,-4.241 -0.283,-2.213 -1.197,-7.336 -2.761,-15.384 l -5.405,-27.808 c -2.899,10.434 -6.528,24.075 -10.907,40.912 -1.783,6.938 -3.139,12.551 -4.057,16.891 l -2.987,0.581 c -3.341,-4.849 -7.72,-10.931 -13.145,-18.277 l -22.289,-29.729 1.216,6.256 c 3.367,17.322 5.75,29.242 7.146,35.756 0.611,2.638 1.278,4.221 2.01,4.716 0.735,0.508 3.106,0.456 7.104,-0.126 l 0.733,3.773 c -3.149,0.417 -6.295,0.931 -9.407,1.536 -4.653,0.901 -8.768,1.799 -12.378,2.697 z m 93.508,-22.483 c 2.847,-0.716 4.568,-1.345 5.158,-1.917 0.398,-0.387 0.896,-1.691 1.491,-3.911 1.095,-4.357 2.405,-10.37 3.936,-18.025 l 8.509,-43.088 6.791,-1.32 30.396,45.428 c 3.917,5.715 6.247,8.803 6.991,9.277 0.746,0.476 2.758,0.508 6.053,0.081 l 0.807,4.149 c -5.052,0.787 -9.802,1.612 -14.251,2.477 -5.312,1.033 -10.355,2.111 -15.114,3.231 l -0.807,-4.149 c 3.632,-0.869 5.703,-1.468 6.216,-1.845 0.517,-0.361 0.71,-0.873 0.583,-1.532 -0.113,-0.583 -1.136,-2.406 -3.073,-5.488 l -4.534,-7.128 c -3.816,0.675 -8.051,1.466 -12.734,2.376 -4.072,0.792 -7.776,1.544 -11.097,2.256 l -1.019,5.58 c -0.275,1.522 -0.542,3.759 -0.783,6.711 -0.068,0.665 -0.051,1.249 0.05,1.768 0.134,0.691 0.528,1.121 1.179,1.287 0.652,0.167 2.864,0.049 6.633,-0.375 l 0.806,4.15 c -3.039,0.395 -6.799,1.028 -11.279,1.898 -4.26,0.829 -7.621,1.58 -10.1,2.257 z m 21.472,-50.503 -5.106,25.593 c 2.853,-0.426 5.962,-0.963 9.374,-1.626 3.552,-0.691 6.936,-1.414 10.166,-2.172 z m 52.979,40.337 c 5.167,-1.2 10.005,-2.238 14.549,-3.122 4.245,-0.825 9.151,-1.681 14.689,-2.561 l -0.733,-3.773 c -3.527,0.49 -5.652,0.626 -6.371,0.375 -0.536,-0.157 -0.928,-0.407 -1.196,-0.778 -0.343,-0.505 -1.079,-3.038 -2.223,-7.578 -1.485,-6.041 -2.613,-11.01 -3.374,-14.923 l -2.984,-17.365 -2.366,-13.684 c 2.354,-0.654 4.221,-1.114 5.621,-1.387 4.386,-0.852 7.888,-0.458 10.489,1.175 2.601,1.632 4.261,4.294 4.985,8.019 0.831,4.277 0.086,7.832 -2.248,10.682 -2.316,2.849 -4.907,4.544 -7.768,5.1 -0.598,0.116 -1.522,0.229 -2.772,0.343 -0.078,0.601 -0.195,1.179 -0.376,1.753 l 12.297,12.569 c 6.904,7.075 12.1,12.493 15.604,16.248 2.227,-0.547 7.21,-1.597 14.998,-3.16 l 2.694,-0.572 -0.677,-3.489 c -1.609,0.28 -2.813,0.303 -3.598,0.046 -0.781,-0.24 -2.084,-1.161 -3.907,-2.731 l -9.833,-9.883 -12.663,-12.938 c 4.867,-3.166 8.101,-6.339 9.681,-9.533 1.6,-3.183 2.042,-6.614 1.328,-10.292 -0.558,-2.877 -1.706,-5.248 -3.458,-7.125 -1.748,-1.862 -3.875,-3.064 -6.339,-3.581 -2.481,-0.512 -6.223,-0.292 -11.222,0.681 l -23.037,4.771 c -1.84,0.358 -5.96,1.062 -12.348,2.107 l 0.733,3.772 c 3.545,-0.314 5.593,-0.353 6.14,-0.132 0.402,0.132 0.715,0.399 0.917,0.767 0.716,1.249 1.698,4.792 2.966,10.648 1.66,7.867 2.985,14.346 3.981,19.471 0.736,3.788 1.665,8.99 2.788,15.607 0.72,4.282 0.982,6.809 0.812,7.608 -0.063,0.437 -0.259,0.768 -0.553,1.021 -0.479,0.387 -2.452,1.063 -5.959,2.071 z m 80.752,-15.696 -0.734,-3.772 c 1.729,-0.337 3.506,-0.846 5.318,-1.507 0.851,-0.328 1.414,-0.699 1.721,-1.133 0.295,-0.417 0.437,-1.112 0.439,-2.108 -0.053,-1.36 -0.805,-6.238 -2.292,-14.644 -1.064,-5.976 -2.196,-12.053 -3.399,-18.246 -2.368,-12.182 -3.604,-18.371 -3.729,-18.589 -0.125,-0.222 -1.23,-0.121 -3.336,0.288 -4.274,0.832 -7.929,1.672 -10.977,2.526 -1.749,0.487 -2.725,0.84 -2.93,1.043 -0.204,0.202 -0.327,0.504 -0.374,0.921 -0.05,0.417 0.227,3.186 0.799,8.31 l -3.961,0.77 c -1.096,-5.969 -2.249,-11.063 -3.459,-15.281 l 0.429,-0.474 c 9.77,-1.442 19.227,-3.053 28.376,-4.831 9.117,-1.771 19.292,-3.979 30.509,-6.616 l 0.649,0.657 c 0.246,4.373 0.809,9.452 1.688,15.233 l -3.867,0.752 c -1.297,-5.163 -2.118,-7.957 -2.483,-8.326 -0.271,-0.307 -0.805,-0.447 -1.599,-0.423 -2.531,0.068 -7.444,0.81 -14.755,2.232 -0.611,0.118 -0.954,0.284 -1.044,0.496 -0.087,0.229 0.024,1.056 0.3,2.471 l 5.736,31.021 c 1.745,8.976 2.894,14.463 3.447,16.476 0.539,2.017 1.157,3.184 1.821,3.496 0.464,0.203 2.934,0.067 7.437,-0.434 l 0.733,3.772 c -4.533,0.687 -9.329,1.52 -14.375,2.501 -6.634,1.287 -11.991,2.427 -16.088,3.419 z m 50.363,-9.789 -0.732,-3.773 c 4.106,-1.026 6.382,-1.828 6.818,-2.434 0.438,-0.592 0.535,-1.866 0.282,-3.84 -0.538,-4.104 -1.886,-11.705 -4.043,-22.803 -0.825,-4.245 -2.084,-10.394 -3.781,-18.45 -1.116,-5.491 -1.831,-8.502 -2.125,-9 -0.275,-0.499 -0.667,-0.832 -1.171,-0.995 -0.743,-0.213 -3.094,-0.05 -7.072,0.462 l -0.733,-3.773 c 6.308,-1.03 11.12,-1.868 14.438,-2.512 5.721,-1.112 10.875,-2.213 15.458,-3.299 l 0.734,3.773 c -4.085,1.055 -6.347,1.837 -6.802,2.35 -0.453,0.527 -0.596,1.551 -0.46,3.09 0.322,3.004 1.361,9.017 3.115,18.04 2.334,12.01 4.009,20.379 5.023,25.093 0.999,4.715 1.826,7.458 2.456,8.267 0.252,0.374 0.706,0.613 1.33,0.718 0.644,0.12 2.78,-0.05 6.429,-0.498 l 0.733,3.772 -5.417,0.922 c -3.417,0.549 -6.474,1.095 -9.146,1.615 z m 36.518,-7.099 c 5.778,-1.318 9.549,-2.15 11.324,-2.495 2.122,-0.413 5.678,-1.005 10.649,-1.776 l -0.732,-3.773 c -3.876,0.459 -6.133,0.588 -6.783,0.356 -0.363,-0.109 -0.634,-0.333 -0.825,-0.64 -0.495,-0.703 -1.269,-3.586 -2.347,-8.63 -1.46,-6.844 -2.665,-12.711 -3.613,-17.584 l -3.48,-17.905 c 4.36,3.883 9.997,8.628 16.942,14.228 13.727,11.035 25.389,20.171 34.978,27.376 1.583,-0.079 4.294,-0.149 8.167,-0.2 l 0.473,-0.762 c -1.157,-4.946 -2.22,-9.91 -3.191,-14.909 l -3.521,-18.614 -3.448,-18.499 c -0.748,-4.014 -1.08,-6.396 -1.019,-7.175 0.039,-0.464 0.16,-0.845 0.342,-1.174 0.195,-0.333 0.472,-0.598 0.85,-0.835 0.635,-0.417 2.649,-1.054 6.033,-1.938 l -0.734,-3.773 c -3.642,0.903 -7.71,1.792 -12.236,2.672 -3.317,0.645 -6.652,1.195 -10.021,1.653 l 0.733,3.773 c 3.859,-0.456 6.052,-0.67 6.586,-0.612 0.517,0.063 0.899,0.266 1.159,0.592 0.507,0.602 1.101,2.396 1.808,5.357 1.103,5.006 2.33,10.983 3.681,17.931 l 3.56,18.313 c -5.221,-3.781 -11.479,-8.618 -18.815,-14.548 -11,-8.84 -20.927,-17.107 -29.772,-24.767 -3.201,0.817 -6.076,1.474 -8.622,1.969 -2.295,0.446 -5.866,1.043 -10.681,1.783 l 0.733,3.773 c 4.075,-0.434 6.453,-0.537 7.14,-0.279 0.432,0.128 0.799,0.416 1.06,0.837 0.502,0.735 1.239,3.692 2.244,8.863 l 3.896,19.537 c 0.729,3.757 1.735,9.352 2.999,16.774 0.79,4.48 1.076,7.131 0.89,7.936 -0.113,0.592 -0.351,1.046 -0.727,1.38 -0.581,0.455 -2.717,1.131 -6.411,2.013 z"
       id="path10" /></g></g>
</svg>
