<?xml version="1.0" encoding="UTF-8" standalone="no"?>
<svg
   xmlns:dc="http://purl.org/dc/elements/1.1/"
   xmlns:cc="http://creativecommons.org/ns#"
   xmlns:rdf="http://www.w3.org/1999/02/22-rdf-syntax-ns#"
   xmlns:svg="http://www.w3.org/2000/svg"
   xmlns="http://www.w3.org/2000/svg"
   xmlns:sodipodi="http://sodipodi.sourceforge.net/DTD/sodipodi-0.dtd"
   xmlns:inkscape="http://www.inkscape.org/namespaces/inkscape"
   id="Layer_1"
   data-name="Layer 1"
   viewBox="0 0 999.99998 999.99998"
   version="1.1"
   sodipodi:docname="Club Almagro.svg"
   width="1000"
   height="1000"
   inkscape:version="1.0.1 (3bc2e813f5, 2020-09-07)">
  <metadata
     id="metadata43">
    <rdf:RDF>
      <cc:Work
         rdf:about="">
        <dc:format>image/svg+xml</dc:format>
        <dc:type
           rdf:resource="http://purl.org/dc/dcmitype/StillImage" />
        <dc:title>almagro</dc:title>
      </cc:Work>
    </rdf:RDF>
  </metadata>
  <sodipodi:namedview
     pagecolor="#ffffff"
     bordercolor="#666666"
     borderopacity="1"
     objecttolerance="10"
     gridtolerance="10"
     guidetolerance="10"
     inkscape:pageopacity="0"
     inkscape:pageshadow="2"
     inkscape:window-width="1920"
     inkscape:window-height="1017"
     id="namedview41"
     showgrid="false"
     inkscape:zoom="0.845"
     inkscape:cx="500"
     inkscape:cy="500"
     inkscape:window-x="-8"
     inkscape:window-y="-8"
     inkscape:window-maximized="1"
     inkscape:current-layer="Layer_1" />
  <defs
     id="defs4">
    <style
       id="style2">.cls-1{fill:#fff;}.cls-2{fill:#034ea2;}</style>
  </defs>
  <title
     id="title6">almagro</title>
  <g
     id="g884"
     transform="matrix(2.3699638,0,0,2.3699638,34.562809,25.000005)">
    <path
       d="M 399.91,125.09 C 356.81,120.77 321.52,111.79 292.04,97.64 263.71,84 239.86,65.17 219.15,40 L 213,32.51 206.89,40 C 186.18,65.17 162.34,84 134,97.64 104.52,111.79 69.24,120.77 26.13,125.09 l -9.5,1 2.68,9.17 c 27.51,94.08 82.67,221.64 189.21,295 l 4.5,3.1 4.5,-3.1 c 106.54,-73.41 161.7,-201 189.21,-295 l 2.68,-9.17 z"
       transform="translate(-16.63,-32.51)"
       id="path8" />
    <path
       class="cls-1"
       d="m 211,43.32 c -42.47,51.68 -99.32,78.52 -184.32,87 l -3.17,0.32 0.89,3.05 C 51.66,227 106.26,353.38 211.52,425.9 l 1.5,1 1.5,-1 C 319.78,353.38 374.39,227 401.66,133.72 l 0.89,-3.05 -3.17,-0.32 c -85,-8.51 -141.85,-35.35 -184.32,-87 l -2,-2.48 z m 2,5.68 c 42.66,50.62 99.26,77.33 182.67,86.2 C 368.5,226.92 314.9,349.43 213,420.47 111.12,349.47 57.52,226.92 30.34,135.24 113.77,126.37 170.37,99.66 213,49 Z"
       transform="translate(-16.63,-32.51)"
       id="path10" />
    <path
       class="cls-1"
       d="m 330.69,128.9 0.25,-0.18 q -5.83,-1.6 -11.47,-3.4 v 11.41 z"
       transform="translate(-16.63,-32.51)"
       id="path12" />
    <path
       class="cls-1"
       d="m 153.48,307.26 -27.17,18.94 v 0 a 423.49,423.49 0 0 0 38.41,46 v -72.76 z"
       transform="translate(-16.63,-32.51)"
       id="path14" />
    <path
       class="cls-1"
       d="m 220,206.13 44.11,-30.78 11.22,-7.83 V 106.78 A 224.87,224.87 0 0 1 213,57.12 q -2.09,2.35 -4.21,4.63 V 214 Z"
       transform="translate(-16.63,-32.51)"
       id="path16" />
    <path
       class="cls-1"
       d="m 264.14,230.12 -44.14,30.75 -11.22,7.82 v 142.22 q 2.1,1.54 4.21,3.06 A 362.46,362.46 0 0 0 275.33,356.9 V 222.3 Z"
       transform="translate(-16.63,-32.51)"
       id="path18" />
    <path
       class="cls-1"
       d="m 374.8,153 -44.11,30.75 -11.22,7.82 V 296.8 C 351,246 372.72,191.53 387.47,144.16 Z"
       transform="translate(-16.63,-32.51)"
       id="path20" />
    <path
       class="cls-1"
       d="M 37.23,139.77 C 42,155.49 47.59,172.05 54,189 v -51.55 q -8.18,1.29 -16.77,2.32 z"
       transform="translate(-16.63,-32.51)"
       id="path22" />
    <path
       class="cls-1"
       d="m 98.15,127.88 v 154.87 q 1.74,3 3.51,6 l 7.71,-5.38 44.11,-30.78 11.22,-7.83 V 98.58 c -19.62,12.48 -41.61,22.15 -66.55,29.3 z"
       transform="translate(-16.63,-32.51)"
       id="path24" />
    <path
       class="cls-2"
       d="M 330.69,277.87 A 655.69,655.69 0 0 0 374.8,181.54 V 153 l -44.11,30.75 z"
       transform="translate(-16.63,-32.51)"
       id="path26" />
    <path
       class="cls-2"
       d="m 330.69,128.65 v 0.25 l 0.26,-0.18 z"
       transform="translate(-16.63,-32.51)"
       id="path28" />
    <path
       class="cls-2"
       d="m 220,408.81 a 359.37,359.37 0 0 0 44.11,-39.57 V 230.12 L 220,260.87 Z"
       transform="translate(-16.63,-32.51)"
       id="path30" />
    <path
       class="cls-2"
       d="M 264.14,100.31 A 223.84,223.84 0 0 1 220,64.69 v 141.44 l 44.11,-30.78 z"
       transform="translate(-16.63,-32.51)"
       id="path32" />
    <path
       class="cls-2"
       d="m 153.48,105.25 a 252,252 0 0 1 -44.11,19.17 v 158.94 l 44.11,-30.78 z"
       transform="translate(-16.63,-32.51)"
       id="path34" />
    <path
       class="cls-2"
       d="m 153.48,360.07 v -52.81 l -27.17,18.94 a 433,433 0 0 0 27.17,33.87 z"
       transform="translate(-16.63,-32.51)"
       id="path36" />
    <path
       class="cls-1"
       d="m 148.64,287.55 -10.34,-8.11 3.78,12.71 z m 2.9,-24.52 6.87,-4.81 13.1,18.72 11,-7.7 4.14,6 -17.81,12.47 -17.3,-24.71 z m -12.79,45.75 -7.75,-31.39 8.33,-5.83 27,17.85 -7.66,5.36 -5.13,-3.67 -9.72,6.81 1.78,6.09 -6.85,4.8 z m 91.74,-78.5 -10.34,-8.11 3.78,12.71 z m -9.88,21.18 -7.74,-31.37 8.33,-5.83 27,17.86 -7.66,5.36 -5.1,-3.65 -9.72,6.81 1.68,6 -6.83,4.78 z M 272.28,214 c -1.75,1.84 -3.46,3.5 -5.1,5 a 55.94,55.94 0 0 1 -4.91,3.89 q -6.67,4.68 -12.26,3.88 -5.59,-0.8 -9.93,-7 -4.43,-6.33 -3.33,-12 c 0.73,-3.82 3.31,-7.21 7.66,-10.26 3.71,-2.6 6.88,-3.93 9.55,-3.91 2.67,0.02 5,1.35 7,4 v 0 l -7,4.92 v 0 a 3.71,3.71 0 0 0 -2.81,-1.51 5.48,5.48 0 0 0 -3.49,1.15 6.85,6.85 0 0 0 -3.2,5.38 q -0.19,3.28 2.49,7.11 c 1.87,2.67 3.89,4.27 6.06,4.78 2.17,0.51 4.44,-0.08 6.84,-1.76 a 17.57,17.57 0 0 0 1.73,-1.37 19.39,19.39 0 0 0 1.69,-1.7 v 0 l -3.17,-4.6 -5.1,3.58 -3.29,-4.68 11.4,-8 z m 2.34,-21.41 3.5,-2.43 v 0 a 7,7 0 0 0 2.78,-3 3.39,3.39 0 0 0 -0.76,-3 3.13,3.13 0 0 0 -2.48,-1.59 6.62,6.62 0 0 0 -3.6,1.48 v 0 l -3.64,2.55 4.2,6 z m 3.11,18.86 -17.28,-24.7 11.95,-8.36 v 0 c 3.06,-2.15 5.7,-3.27 8,-3.29 a 7.44,7.44 0 0 1 5.92,3.51 8.83,8.83 0 0 1 1.67,5.59 6.58,6.58 0 0 1 -2,4.45 9.42,9.42 0 0 1 5.49,0.31 c 4.05,1.31 7.91,4.49 9.86,6 v 0 l -8.34,5.85 v 0 a 20.89,20.89 0 0 0 -9,-5.29 7.86,7.86 0 0 0 -6.65,0.94 v 0 l 7.18,10.26 -6.77,4.75 z m 15.67,-29.42 q -4.23,-6 -3.25,-11.71 c 0.65,-3.79 3,-7.08 7,-9.87 4,-2.79 7.86,-3.84 11.64,-3.15 3.78,0.69 7.08,3 9.9,7.05 2.82,4.05 3.88,7.92 3.24,11.73 -0.64,3.81 -2.95,7.09 -6.92,9.87 -3.97,2.78 -7.86,3.83 -11.66,3.14 -3.8,-0.69 -7.11,-3.05 -9.91,-7.06 z m 7,-5 q 2.67,3.81 5.43,4.77 a 5.88,5.88 0 0 0 5.51,-1 5.8,5.8 0 0 0 2.78,-4.82 q 0,-2.9 -2.64,-6.72 -2.64,-3.82 -5.42,-4.79 a 5.8,5.8 0 0 0 -5.48,1 5.88,5.88 0 0 0 -2.81,4.85 q 0,2.92 2.63,6.74 z m -110.48,58.41 5.51,15.14 -12.34,-10.35 -10.27,7.19 17.29,24.68 6.18,-4.33 -11.36,-16.22 15.78,13.13 6.16,-4.31 -7.16,-19.93 11.72,16.74 6.18,-4.33 -17.29,-24.69 z"
       transform="translate(-16.63,-32.51)"
       id="path38" />
  </g>
</svg>
