<svg enable-background="new 0 0 595 507.5" height="1000" viewBox="0 0 1000 1000" width="1000" xmlns="http://www.w3.org/2000/svg"><g transform="matrix(1.4198177 0 0 1.4198177 56.045808 20.740544)"><path clip-rule="evenodd" d="m 2.785 319.7867 c .695864 .7636 9.77298 18.88259 11.806001 22.46119 l 19.051868 32.292 c 6.679663 9.55905 34.642902 60.04368 40.653477 71.02438 c 1.145718 2.09027 2.005243 3.37806 3.238444 5.57529 c 6.277197 11.1879 15.096957 27.18207 21.823984 38.46078 c 8.516116 14.27992 19.731176 34.79697 27.998276 49.43634 c 2.01557 3.56795 4.25641 7.49956 6.17619 10.98188 c 2.09688 3.8006 4.20523 7.1493 6.24224 10.90965 c 1.95081 3.60154 4.23798 7.30322 6.22669 10.91526 c 8.07867 14.66896 17.27526 30.12554 24.95027 44.17262 c 7.25203 13.27402 17.36166 30.94393 24.98317 44.1031 c 2.16684 3.74579 4.31617 7.03138 5.81095 11.98081 h 62.605 c 1.55969 -.98424 98.81574 -.31028 114.59846 -.31028 c 6.48304 0 12.86509 -.31291 19.38118 -.31291 c 15.71444 0 13.05461 -2.88842 23.20636 -19.59147 c 5.49497 -9.04019 10.91674 -19.58229 16.38378 -29.06784 c 10.00772 -17.35422 23.39388 -39.85824 32.93189 -57.43859 l 8.27016 -14.41737 c 4.95028 -9.60464 10.57284 -18.10059 16.22125 -28.78163 l 10.18148 -17.60162 c .69475 -1.2316 1.32904 -2.2227 2.03814 -3.5251 c 1.48035 -2.7175 2.6764 -4.82916 4.16082 -7.45426 c 2.77322 -4.90914 5.33317 -9.47605 8.09104 -14.13921 l 12.44104 -21.35954 c 5.63177 -10.27595 19.4019 -34.85285 24.53863 -43.14817 c 1.56866 -2.5355 2.65163 -4.93346 4.13705 -7.4676 c 5.50599 -9.3986 11.32516 -19.36139 16.44346 -29.0035 c .7245 -1.37079 1.21454 -1.97783 2.05545 -3.49158 c 2.42117 -4.35707 9.92144 -17.48806 12.26429 -21.07597 c .9408 -1.4443 1.51717 -2.13178 2.3624 -3.60001 l 8.26278 -14.45228 c 2.55274 -4.64985 5.86845 -11.97428 8.02295 -14.50188 V 3.0000022 H 390.99177 L 390.92708 46.715216 L 222.61865 46.306007 V 3.0000022 H 2.785 Z" fill-rule="evenodd" stroke-width="1.1734"/><g transform="translate(8.59912 9.650742)"><path clip-rule="evenodd" d="m 266.383 646.74079 l 121.427 .19487 c 12.323 -.0351 9.003 -1.95129 17.135 -15.1102 c 4.319 -6.99323 8.27 -14.24239 12.255 -21.51753 c 7.57 -13.82407 16.653 -28.67185 24.633 -42.87656 c 9.083 -16.1677 21.175 -38.12693 30.602 -53.60089 c 2.196 -3.6051 4.023 -7.40896 6.105 -11.03873 c 12.259 -21.40061 25.175 -43.40401 37.104 -64.62014 l 49.138 -86.42996 c 4.548 -7.77921 24.021 -38.98696 24.021 -44.21077 V 8.4511609 c -68.013 0 -136.637 -.3715518 -204.57 .010393 l -.002 42.3179321 c -3.789 .596302 -154.927 -.01299 -172.008 -.01819 c -.541 -4.409254 -.191 -33.722873 -.192 -42.0684986 L 7.144 8.45246 c 0 99.04844 .318 198.24887 -.016 297.10894 c -.017 4.82887 3.093 9.35115 5.987 15.00887 c .781 1.52648 1.631 2.79313 2.42 4.343 c 1.99 3.91299 17.341 30.37761 20.171 34.69852 c 12.657 19.33109 29.864 52.66032 42.761 74.74427 c 3.34 5.71878 6.588 11.51161 9.906 17.58376 c 5.768 10.55415 13.93 24.55749 19.929 35.01551 l 39.975 70.37529 c 3.38 6.00848 6.496 11.66621 9.824 17.69288 c 9.385 16.99785 20.381 35.45462 29.917 52.49014 c 3.411 6.09423 6.711 11.53239 9.86 17.64481 c 1.7 3.2985 3.011 2.16176 9.713 2.16176 h 35.351 c 7.961 .001 15.58 -.55993 23.441 -.57942 z" fill="#fff" fill-rule="evenodd" stroke-width="1.13979"/><path clip-rule="evenodd" d="m 174.742 95.357909 l -.028 490.247021 c 0 3.12312 1.598 4.85876 2.814 7.11015 c 2.621 4.85616 25.245 44.77199 25.838 44.99545 c 1.113 .41312 43.234 .1442 53.256 -.23645 c .391 -8.59635 .074 -31.34936 .071 -41.38645 L 256.668 60.212485 c -14.711 -.367654 -39.89 .633977 -52.772 -.309193 c -.13 -14.29695 .338 -27.854694 -.053 -42.025628 c -7.444 -.376748 -21.958 -.189673 -29.102 .09484 z" fill="#ed2124" fill-rule="evenodd" stroke-width="1.13979"/><path clip-rule="evenodd" d="m 391.745 28.959262 c -.03 10.407348 .14 20.840679 -.176 31.240232 l -53.003 -.02858 l .925 577.186246 c 9.643 .23904 52.271 .56123 52.929 .11433 c .546 -.37286 19.595 -34.53873 21.229 -37.26691 c 8.012 -13.35378 6.521 -12.88999 6.533 -26.58155 l .47 -555.777843 l -28.877 .06885 z" fill="#ed2124" fill-rule="evenodd" stroke-width="1.13979"/><path clip-rule="evenodd" d="m 502.696 443.7306 c 1.117 -1.18611 4.285 -7.22967 5.488 -9.25502 l 16.167 -28.42631 c 7.158 -12.73799 14.446 -25.03947 21.677 -37.7294 c 3.628 -6.36964 6.991 -12.82893 10.722 -19.02709 c 3.801 -6.31248 7.223 -12.28329 11.046 -18.59707 c 3.675 -6.07085 7.124 -12.25082 10.661 -19.09075 c 3.044 -5.88767 2.314 -5.38101 2.316 -13.55774 l .024 -247.119633 c .002 -6.034469 .597 -28.560122 -.223 -32.719943 c -8.608 -.07015 -75.673 -1.125049 -78.015 .04417 c -.449 17.304441 -.166 35.271439 -.192 52.644734 c -.027 17.805906 -.031 35.611812 -.042 53.417722 c -.009 18.36063 -.422 316.41793 .371 319.41633 z" fill="#ed2124" fill-rule="evenodd" stroke-width="1.13979"/><path clip-rule="evenodd" d="M 92.764 442.46395 L 92.822 17.865972 L 14.737 17.820502 c -.665 21.487647 -.219 44.050975 -.192 65.55551 l .103 213.172008 c 0 7.99226 -.694 8.05851 2.153 13.74222 c 6.007 11.99099 14.773 26.29443 21.594 37.84502 c 2.022 3.42451 3.631 5.92014 5.683 9.08483 c 3.238 4.99386 23.328 40.7174 26.96 47.35207 c 3.581 6.54243 7.078 12.58469 10.673 19.08165 c .874 1.58364 9.542 17.78382 11.053 18.81014 z" fill="#ed2124" fill-rule="evenodd" stroke-width="1.13979"/><g transform="matrix(1 0 0 1.2991322 0 -.897394)"><path d="m 66.237 305.489 l 80.209 108.733 c .134 -.132 .689 -.376 1.389 -.748 c 2.045 -1.093 5.676 -2.833 6.025 -3.014 c 9.329 -4.854 19.188 -9.75 28.171 -14.61 c 6.078 -3.291 15.684 -7.88 20.954 -10.901 c 2.748 -1.575 11.188 -5.896 14.088 -7.318 l 10.638 -5.51 c 5.366 -2.775 12.376 -6.315 17.5 -9.129 c 6.533 -3.587 14.321 -7.221 20.964 -10.882 c 1.197 -.661 2.352 -1.188 3.602 -1.88 c 3.331 -1.839 7.11 -3.489 10.486 -5.434 c 1.195 -.688 2.401 -1.235 3.601 -1.859 c 3.348 -1.744 7.15 -3.862 10.474 -5.455 c 6.496 -3.116 14.306 -7.616 20.967 -10.896 c 5.109 -2.515 15.762 -8.142 20.928 -10.924 c 10.264 -5.533 21.427 -10.806 31.623 -16.391 l 10.46 -5.473 c 9.276 -4.917 19.007 -9.681 28.17 -14.607 l 13.911 -7.257 c 27.064 -14.017 53.968 -27.872 80.717 -41.938 l 31.445 -16.336 c 4.923 -2.523 9.439 -4.939 14.094 -7.306 l 13.921 -7.242 l 18.153 -9.441 l 1.871 -1.025 l .196 -150.83 l -5.368 2.979 l -69.976 36.377 c -7.95 3.995 -16.653 8.734 -24.707 12.837 l -41.308 21.492 c -5.913 3.017 -10.924 5.703 -16.485 8.549 l -8.361 4.379 c -2.729 1.347 -5.535 2.814 -8.247 4.277 c -5.418 2.923 -11.27 5.668 -16.457 8.576 c -.744 .416 -1.417 .708 -2.115 1.069 l -47.49 24.647 c -10.66 5.542 -22.524 11.935 -33.063 17.228 c -5.063 2.542 -11.791 6.311 -16.497 8.532 c -1.442 .681 -2.788 1.48 -4.158 2.213 L 162.561 255.39 c -1.292 .661 -2.806 1.559 -4.033 2.115 c -2.885 1.307 -13.502 6.997 -16.632 8.623 c -13.6 7.073 -27.654 14.562 -41.326 21.488 l -28.26 14.745 z" fill="#ed1c24"/><path d="m 68.167 312.538 l 73.149 96.053 c 1.708 -.682 25.567 -13.357 28.178 -14.685 c 9.167 -4.662 18.157 -9.698 27.4 -14.243 c 8.3 -4.083 19.052 -9.854 27.385 -14.259 c 9.09 -4.806 18.373 -9.297 27.413 -14.234 c 8.942 -4.883 18.382 -9.387 27.411 -14.231 c 9.06 -4.864 18.292 -9.496 27.405 -14.234 c 18.363 -9.553 36.455 -19.02 54.785 -28.505 l 68.429 -35.563 c 4.618 -2.406 9.16 -4.855 13.785 -7.151 c 9.276 -4.604 18.056 -9.616 27.4 -14.246 c 7.77 -3.851 19.776 -10.12 27.391 -14.251 c 8.935 -4.85 18.397 -9.277 27.412 -14.233 l 27.411 -14.232 c 4.606 -2.44 9.079 -4.818 13.768 -7.167 c 4.502 -2.255 12.901 -6.173 17.474 -8.235 c 2.544 -31.234 .042 -98.654 .019 -134.735 c -2.61 1.155 -31.833 16.666 -35.387 18.627 c -4.035 2.228 -11.709 6.186 -15.867 8.254 c -5.318 2.648 -10.698 5.513 -16.029 8.318 c -15.813 8.327 -31.96 16.487 -47.755 24.839 c -5.288 2.796 -10.672 5.652 -16.03 8.318 c -10.715 5.327 -21.055 11.211 -31.747 16.496 c -2.688 1.328 -5.367 2.758 -7.922 4.137 c -7.314 3.946 -16.531 8.681 -23.957 12.454 c -15.821 8.039 -31.877 16.739 -47.783 24.808 c -13.083 6.637 -26.692 13.89 -39.813 20.72 c -2.626 1.366 -5.291 2.646 -7.947 4.112 c -2.576 1.421 -5.304 2.812 -7.935 4.125 c -7.531 3.76 -16.514 8.508 -23.962 12.449 c -15.827 8.376 -31.952 16.463 -47.755 24.838 c -5.319 2.819 -10.697 5.653 -16.027 8.317 c -10.752 5.373 -21.24 11.205 -31.9 16.57 c -10.794 5.433 -21.083 11.156 -31.878 16.593 c -10.656 5.367 -21.16 11.177 -31.9 16.57 c -7.881 3.957 -16.024 8.497 -23.816 12.366 c -.646 .319 -10.136 4.631 -10.805 5.24 z" fill="#fff"/><path d="m 135.115 300.653 l 22.719 -11.808 l 40.67 68.791 l -22.719 11.809 z m 155.687 -5.83 l -25.828 13.424 l 3.16 13.203 l -23.163 12.039 l -13.098 -83.122 l 24.718 -12.847 l 68.256 54.453 l -23.728 12.332 z m -13.547 -12.412 l -22.733 -20.512 l 6.558 28.92 z m 122.827 -66.286 l 23.2 -4.688 c 1.755 5.914 2.229 11.363 1.433 16.362 c -.797 5 -2.804 9.498 -6.007 13.486 c -3.193 4.004 -8.086 7.7 -14.646 11.109 c -7.978 4.146 -15.146 6.448 -21.464 6.905 c -6.345 .45 -12.981 -1.105 -19.891 -4.674 c -6.895 -3.578 -12.878 -9.618 -17.924 -18.155 c -6.732 -11.388 -8.685 -21.827 -5.835 -31.286 c 2.84 -9.474 10.17 -17.284 21.975 -23.418 c 9.241 -4.803 17.534 -6.831 24.904 -6.076 c 7.368 .756 14.478 4.095 21.33 10.019 l -17.549 14.585 c -1.94 -1.733 -3.585 -2.89 -4.932 -3.467 c -2.219 -.961 -4.513 -1.402 -6.861 -1.334 c -2.366 .079 -4.672 .711 -6.942 1.893 c -5.126 2.663 -7.926 6.652 -8.367 11.949 c -.362 3.957 1.265 9.016 4.91 15.182 c 4.517 7.64 8.851 12.213 12.987 13.77 c 4.153 1.547 8.454 1.155 12.912 -1.163 c 4.339 -2.255 6.945 -5.097 7.813 -8.541 c .877 -3.428 .521 -7.578 -1.046 -12.458 z m 117.323 -60.977 l 23.201 -4.688 c 1.755 5.914 2.229 11.362 1.432 16.361 c -.796 5 -2.804 9.498 -6.006 13.487 c -3.193 4.004 -8.088 7.699 -14.646 11.109 c -7.978 4.146 -15.146 6.448 -21.465 6.905 c -6.344 .45 -12.98 -1.105 -19.893 -4.674 c -6.893 -3.578 -12.876 -9.618 -17.924 -18.155 c -6.731 -11.388 -8.682 -21.827 -5.832 -31.285 c 2.84 -9.474 10.17 -17.283 21.975 -23.418 c 9.241 -4.803 17.534 -6.831 24.901 -6.075 c 7.37 .755 14.48 4.095 21.333 10.019 l -17.549 14.585 c -1.942 -1.734 -3.585 -2.89 -4.932 -3.468 c -2.221 -.96 -4.513 -1.402 -6.862 -1.333 c -2.366 .078 -4.671 .711 -6.943 1.892 c -5.124 2.664 -7.924 6.652 -8.367 11.949 c -.363 3.958 1.266 9.016 4.912 15.182 c 4.517 7.64 8.85 12.213 12.986 13.771 c 4.152 1.547 8.453 1.154 12.912 -1.163 c 4.34 -2.255 6.946 -5.097 7.813 -8.541 c .878 -3.429 .523 -7.579 -1.046 -12.46 z" fill="#ed1c24"/></g></g></g></svg>