<?xml version="1.0" encoding="utf-8"?>
<!-- Generator: Adobe Illustrator 15.0.0, SVG Export Plug-In . SVG Version: 6.00 Build 0)  -->
<!DOCTYPE svg PUBLIC "-//W3C//DTD SVG 1.1//EN" "http://www.w3.org/Graphics/SVG/1.1/DTD/svg11.dtd">
<svg version="1.1" id="Calque_1" xmlns="http://www.w3.org/2000/svg" xmlns:xlink="http://www.w3.org/1999/xlink" x="0px" y="0px"
	 width="645.457px" height="500px" viewBox="0 0 645.457 500" enable-background="new 0 0 645.457 500" xml:space="preserve">
<linearGradient id="SVGID_1_" gradientUnits="userSpaceOnUse" x1="60.7202" y1="149.9351" x2="542.0868" y2="462.5382" gradientTransform="matrix(0.9272 -0.3746 0.3746 0.9272 -69.1007 139.4997)">
	<stop  offset="0.1474" style="stop-color:#E1E43C"/>
	<stop  offset="0.2895" style="stop-color:#FFFFFF"/>
	<stop  offset="0.46" style="stop-color:#FFFFFF"/>
	<stop  offset="0.467" style="stop-color:#EFEFF8"/>
	<stop  offset="0.5005" style="stop-color:#BDC0E1"/>
	<stop  offset="0.5355" style="stop-color:#959CCE"/>
	<stop  offset="0.5716" style="stop-color:#7883C0"/>
	<stop  offset="0.6088" style="stop-color:#6071B6"/>
	<stop  offset="0.6476" style="stop-color:#4C64AE"/>
	<stop  offset="0.6887" style="stop-color:#3E5CAA"/>
	<stop  offset="0.7336" style="stop-color:#3457A7"/>
	<stop  offset="0.7895" style="stop-color:#3155A6"/>
</linearGradient>
<polygon fill="url(#SVGID_1_)" points="9.29,431.077 9.29,446.929 634.21,194.444 643.83,174.707 "/>
<polygon points="51.934,465.96 36.373,472.246 34.976,465.059 51.763,458.279 50.31,450.806 24.163,461.37 31.672,500 
	41.033,496.219 37.826,479.72 53.386,473.433 "/>
<path d="M88.91,467.026c-0.855,1.221-2.086,2.539-3.697,3.955s-3.347,2.5-5.21,3.252c-2.939,1.189-5.283,1.482-7.029,0.882
	c-1.748-0.601-2.908-2.015-3.483-4.246l20.193-8.156l-0.636-3.27c-0.874-4.497-2.671-7.487-5.392-8.972
	c-2.718-1.484-6.317-1.323-10.793,0.485c-4.852,1.961-8.397,4.91-10.637,8.843c-2.239,3.936-2.891,8.309-1.957,13.118
	c0.946,4.858,3.143,8.01,6.594,9.45c3.452,1.44,7.939,1.048,13.46-1.187c2.141-0.864,4.055-1.843,5.746-2.935
	c1.69-1.094,3.448-2.468,5.277-4.118l-1.456-7.5L88.91,467.026z M69.369,460.176c0.912-1.377,2.218-2.409,3.917-3.096
	c1.83-0.739,3.272-0.791,4.331-0.153c1.058,0.635,1.8,1.921,2.229,3.854l-11.444,4.624
	C68.133,463.294,68.456,461.551,69.369,460.176z"/>
<path d="M109.724,424.927l2.411,12.4c-1.221-0.122-2.394-0.156-3.517-0.103c-1.125,0.054-2.512,0.412-4.16,1.079
	c-1.582,0.64-3.096,1.638-4.539,2.995c-1.443,1.355-2.595,2.908-3.452,4.653c-0.908,1.841-1.516,3.855-1.82,6.038
	c-0.306,2.185-0.22,4.514,0.261,6.987c0.901,4.636,2.621,7.915,5.16,9.836c2.537,1.922,5.479,2.207,8.823,0.857
	c1.731-0.701,3.194-1.629,4.396-2.786c1.2-1.154,2.432-2.697,3.695-4.626l0.589,3.037l8.847-3.574l-7.847-40.369L109.724,424.927z
	 M113.887,459.495c-0.836,0.681-1.65,1.184-2.45,1.506c-2.054,0.833-3.672,0.789-4.851-0.127c-1.179-0.915-2.047-2.803-2.603-5.661
	c-0.528-2.718-0.365-5.078,0.496-7.08c0.858-2,2.446-3.467,4.761-4.402c0.57-0.231,1.21-0.425,1.918-0.578
	c0.709-0.156,1.399-0.22,2.073-0.193l2.783,14.316C115.428,458.071,114.719,458.812,113.887,459.495z"/>
<path d="M159.836,438.372c-0.856,1.221-2.086,2.539-3.698,3.952c-1.611,1.419-3.347,2.5-5.208,3.255
	c-2.941,1.187-5.285,1.481-7.03,0.879c-1.748-0.599-2.908-2.015-3.481-4.243l20.192-8.159l-0.636-3.27
	c-0.874-4.494-2.669-7.488-5.392-8.973c-2.719-1.484-6.317-1.32-10.793,0.488c-4.853,1.959-8.397,4.908-10.637,8.844
	c-2.238,3.936-2.891,8.308-1.957,13.115c0.946,4.86,3.144,8.01,6.594,9.45c3.452,1.443,7.939,1.045,13.461-1.184
	c2.141-0.864,4.055-1.844,5.746-2.938c1.691-1.091,3.449-2.466,5.278-4.118l-1.458-7.498L159.836,438.372z M140.296,431.519
	c0.911-1.374,2.218-2.41,3.916-3.094c1.83-0.739,3.273-0.791,4.331-0.156c1.059,0.638,1.801,1.922,2.229,3.855l-11.444,4.624
	C139.06,434.639,139.382,432.894,140.296,431.519z"/>
<path d="M183.827,407.019c-0.396,0.143-0.747,0.273-1.056,0.4c-1.208,0.488-2.472,1.309-3.794,2.469
	c-1.321,1.16-2.781,3.013-4.377,5.559l-0.833-4.279l-8.847,3.574l5.664,29.136l8.847-3.576l-3.793-19.507
	c1.028-0.865,2.007-1.578,2.935-2.139c0.928-0.563,2.019-1.097,3.275-1.604c0.553-0.222,1.253-0.466,2.098-0.732
	c0.844-0.269,1.467-0.407,1.87-0.423l0.781-0.314l-1.729-8.898C184.569,406.765,184.221,406.878,183.827,407.019z"/>
<path d="M213.503,396.862c-2.548-0.734-6.33-0.088-11.345,1.939c-2.106,0.852-4.176,1.879-6.205,3.08
	c-2.031,1.204-3.487,2.122-4.368,2.76l1.367,7.028l0.808-0.327c0.662-0.584,1.764-1.482,3.308-2.693
	c1.545-1.211,3.044-2.111,4.497-2.697c2.418-0.979,4.308-1.408,5.669-1.297c1.36,0.113,2.197,0.973,2.51,2.581l0.031,0.156
	c-2.567,1.204-5.028,2.458-7.382,3.765c-2.354,1.307-4.272,2.678-5.754,4.116c-1.499,1.445-2.567,3.024-3.203,4.736
	c-0.635,1.712-0.748,3.63-0.333,5.759c0.516,2.664,1.825,4.495,3.922,5.494c2.097,1.001,4.453,0.972,7.067-0.086
	c1.111-0.449,2.113-0.959,3.005-1.535c0.892-0.576,1.729-1.246,2.516-2.01c0.559-0.562,1.14-1.252,1.738-2.072
	s1.096-1.517,1.498-2.09l0.599,3.09l8.748-3.535l-3.853-19.821C217.665,399.71,216.051,397.595,213.503,396.862z M209.869,421.403
	c-0.833,0.745-1.692,1.295-2.573,1.653c-1.111,0.449-1.943,0.696-2.498,0.745c-0.555,0.046-1.053-0.025-1.497-0.221
	c-0.459-0.186-0.775-0.449-0.945-0.788c-0.173-0.339-0.317-0.811-0.435-1.416c-0.178-0.911-0.088-1.745,0.269-2.493
	c0.356-0.746,0.947-1.447,1.772-2.097c0.671-0.532,1.685-1.167,3.039-1.909c1.354-0.742,2.616-1.406,3.789-1.992l1.177,6.053
	C211.4,419.837,210.703,420.657,209.869,421.403z"/>
<path d="M251.016,395.866c-1.377-0.928-3.29-1.242-5.732-0.944c-1.1,0.144-2.187,0.337-3.259,0.573
	c-1.073,0.237-2.077,0.445-3.012,0.615c-1.704,0.299-2.813,0.352-3.324,0.169c-0.512-0.186-0.835-0.622-0.969-1.315
	c-0.148-0.76,0.223-1.549,1.114-2.354c0.891-0.809,2.048-1.5,3.469-2.073c1.715-0.693,3.468-1.079,5.259-1.159
	c1.79-0.078,3.432,0.092,4.924,0.518l0.759-0.309l-1.432-7.367c-1.161-0.074-2.726,0.051-4.7,0.373
	c-1.972,0.32-3.987,0.896-6.046,1.727c-4.346,1.758-7.59,4.072-9.736,6.945c-2.147,2.871-2.948,5.708-2.402,8.511
	c0.422,2.178,1.382,3.755,2.874,4.729c1.494,0.971,3.557,1.299,6.191,0.98c0.964-0.109,2.025-0.3,3.179-0.57
	c1.155-0.271,2.074-0.459,2.759-0.569c1.428-0.259,2.418-0.329,2.971-0.208c0.553,0.123,0.898,0.537,1.037,1.248
	c0.154,0.796-0.146,1.564-0.901,2.307c-0.753,0.742-1.996,1.465-3.728,2.164c-1.323,0.537-2.593,0.893-3.808,1.076
	c-1.217,0.184-2.319,0.262-3.313,0.234c-1.148-0.021-2.051-0.109-2.706-0.264c-0.657-0.154-1.235-0.311-1.741-0.457l-0.81,0.328
	l1.493,7.678c1.323,0.1,3.028-0.012,5.116-0.332s4.355-0.977,6.807-1.965c4.426-1.79,7.734-4.121,9.926-6.992
	c2.19-2.871,2.994-5.813,2.41-8.824C253.285,398.284,252.394,396.79,251.016,395.866z"/>
<path d="M282.438,369.36c-2.029-1.157-4.528-1.138-7.497,0.063c-1.762,0.71-3.297,1.704-4.608,2.981
	c-1.309,1.273-2.621,2.875-3.934,4.807l-2.809-14.451l-8.846,3.574l7.847,40.369l8.846-3.574l-4.015-20.652
	c0.847-0.993,1.655-1.797,2.427-2.406c0.77-0.611,1.556-1.077,2.357-1.402c1.127-0.453,2.034-0.661,2.72-0.619
	c0.686,0.039,1.255,0.313,1.707,0.82c0.386,0.441,0.75,1.221,1.089,2.344c0.342,1.12,0.627,2.27,0.856,3.444l2.809,14.45
	l8.846-3.574l-3.687-18.962C285.836,372.923,284.466,370.518,282.438,369.36z"/>
<path d="M318.763,356.084c-3.16-1.709-7.142-1.592-11.945,0.349c-4.738,1.914-8.167,4.781-10.286,8.604
	c-2.12,3.824-2.711,8.147-1.772,12.975c0.931,4.789,2.983,8.031,6.159,9.724c3.174,1.694,7.147,1.575,11.917-0.352
	c4.771-1.927,8.207-4.802,10.309-8.628c2.102-3.823,2.687-8.133,1.756-12.922C323.967,361.04,321.923,357.79,318.763,356.084z
	 M316.185,374.095c-0.083,1.162-0.338,2.23-0.764,3.205c-0.376,0.879-0.9,1.609-1.571,2.188s-1.407,1.03-2.207,1.355
	c-0.932,0.375-1.791,0.554-2.578,0.537c-0.789-0.02-1.508-0.26-2.162-0.721c-0.677-0.493-1.268-1.268-1.773-2.319
	c-0.504-1.058-0.911-2.38-1.22-3.972c-0.347-1.783-0.475-3.326-0.384-4.629c0.089-1.307,0.338-2.402,0.746-3.297
	c0.463-0.971,1.002-1.709,1.618-2.219c0.614-0.51,1.346-0.936,2.196-1.279s1.67-0.518,2.462-0.52c0.792-0.003,1.52,0.244,2.18,0.742
	c0.655,0.48,1.245,1.24,1.764,2.279c0.519,1.043,0.946,2.418,1.279,4.129C316.129,371.426,316.267,372.933,316.185,374.095z"/>
<path d="M355.153,339.98c-2.029-1.157-4.526-1.136-7.498,0.063c-1.763,0.713-3.296,1.706-4.606,2.98
	c-1.309,1.274-2.622,2.879-3.934,4.808l-0.627-3.216l-8.846,3.574l5.662,29.134l8.845-3.571l-4.014-20.654
	c0.848-0.992,1.655-1.797,2.427-2.405c0.771-0.61,1.558-1.077,2.358-1.401c1.128-0.454,2.034-0.664,2.72-0.623
	c0.687,0.042,1.255,0.313,1.707,0.82c0.386,0.442,0.749,1.224,1.089,2.344c0.342,1.123,0.627,2.271,0.856,3.447l2.808,14.449
	l8.848-3.572l-3.688-18.965C358.551,343.542,357.181,341.138,355.153,339.98z"/>
<path d="M400.788,307.331l2.412,12.4c-1.224-0.122-2.396-0.156-3.521-0.105c-1.123,0.054-2.51,0.415-4.158,1.079
	c-1.584,0.64-3.096,1.639-4.538,2.996c-1.445,1.354-2.596,2.907-3.452,4.655c-0.911,1.841-1.517,3.853-1.821,6.038
	c-0.306,2.183-0.218,4.512,0.261,6.984c0.901,4.637,2.622,7.915,5.159,9.837c2.539,1.924,5.48,2.209,8.825,0.857
	c1.731-0.699,3.193-1.627,4.395-2.784s2.432-2.697,3.696-4.629l0.589,3.037l8.848-3.574l-7.847-40.368L400.788,307.331z
	 M404.948,341.896c-0.835,0.684-1.65,1.187-2.446,1.509c-2.056,0.83-3.675,0.786-4.854-0.127c-1.18-0.915-2.046-2.803-2.603-5.664
	c-0.527-2.717-0.364-5.078,0.495-7.077c0.859-2,2.446-3.47,4.764-4.404c0.566-0.229,1.208-0.425,1.916-0.579
	c0.708-0.156,1.399-0.22,2.07-0.19l2.783,14.316C406.491,340.474,405.783,341.213,404.948,341.896z"/>
<polygon points="421.403,311.115 427.067,340.251 435.912,336.677 430.25,307.541 "/>
<polygon points="428.312,296.208 418.973,299.982 420.35,307.063 429.689,303.293 "/>
<polygon points="484.635,291.138 469.074,297.424 467.677,290.236 484.461,283.454 483.009,275.983 456.864,286.548 
	464.372,325.178 473.734,321.396 470.526,304.897 486.087,298.61 "/>
<path d="M510.69,275.044l4.014,20.651c-0.737,0.911-1.538,1.699-2.396,2.363c-0.859,0.667-1.662,1.147-2.414,1.45
	c-1.128,0.457-2.034,0.667-2.72,0.625c-0.687-0.039-1.245-0.314-1.68-0.832c-0.454-0.506-0.815-1.233-1.099-2.173
	c-0.278-0.94-0.562-2.146-0.848-3.616l-2.808-14.45l-8.848,3.574l3.687,18.965c0.703,3.613,2.054,6.016,4.051,7.204
	c2.002,1.187,4.519,1.17,7.554-0.059c1.875-0.757,3.425-1.753,4.646-2.98c1.221-1.23,2.52-2.835,3.896-4.808l0.625,3.218
	l8.848-3.574l-5.664-29.136L510.69,275.044z"/>
<path d="M550.355,283.276c-0.261,0.29-0.742,0.69-1.44,1.196c-0.703,0.508-1.279,0.854-1.735,1.037
	c-1.108,0.449-1.985,0.61-2.632,0.488c-0.647-0.119-1.146-0.439-1.492-0.952c-0.361-0.508-0.625-1.14-0.788-1.895
	c-0.166-0.757-0.347-1.646-0.545-2.666l-2.009-10.342l8.232-3.325l-1.23-6.33l-8.232,3.325l-1.621-8.328l-8.848,3.574l1.621,8.328
	l-3.628,1.465l1.23,6.333l3.628-1.468l2.646,13.621c0.693,3.562,2.019,5.739,3.981,6.535c1.958,0.794,4.653,0.496,8.086-0.891
	c1.536-0.62,2.82-1.216,3.853-1.795c1.035-0.576,2-1.182,2.896-1.823l-1.24-6.385L550.355,283.276z"/>
<path d="M579.762,250.563c-2.396-1.896-5.327-2.144-8.802-0.739c-1.846,0.744-3.403,1.758-4.678,3.034
	c-1.271,1.282-2.476,2.764-3.608,4.456l-2.773-14.271l-8.845,3.576l7.847,40.366l8.477-3.425l0.085-1.602
	c1.172,0.236,2.373,0.293,3.597,0.171c1.228-0.125,2.607-0.493,4.141-1.113c3.571-1.443,6.274-4.09,8.104-7.947
	c1.828-3.853,2.297-8.071,1.406-12.656C583.803,255.742,582.155,252.461,579.762,250.563z M575.216,271.501
	c-0.859,1.909-2.454,3.338-4.785,4.277c-0.799,0.322-1.492,0.557-2.078,0.701c-0.588,0.144-1.223,0.227-1.904,0.239l-2.842-14.609
	c0.701-0.823,1.468-1.546,2.295-2.171c0.828-0.622,1.658-1.104,2.49-1.44c2.134-0.859,3.753-0.759,4.856,0.303
	c1.101,1.064,1.906,2.891,2.409,5.481C576.222,267.183,576.073,269.59,575.216,271.501z"/>
<path d="M614.413,236.633c-3.158-1.709-7.141-1.592-11.945,0.349c-4.736,1.914-8.166,4.781-10.285,8.604
	c-2.119,3.823-2.711,8.146-1.773,12.974c0.934,4.79,2.984,8.032,6.158,9.724c3.176,1.694,7.148,1.575,11.918-0.352
	c4.771-1.926,8.209-4.802,10.309-8.628c2.104-3.823,2.688-8.132,1.758-12.922C619.618,241.59,617.573,238.341,614.413,236.633z
	 M611.834,254.646c-0.08,1.162-0.336,2.227-0.764,3.203c-0.376,0.879-0.9,1.609-1.57,2.188c-0.674,0.581-1.406,1.03-2.209,1.355
	c-0.93,0.373-1.789,0.557-2.576,0.537c-0.788-0.018-1.508-0.259-2.162-0.721c-0.677-0.49-1.268-1.265-1.773-2.321
	c-0.505-1.055-0.91-2.378-1.221-3.968c-0.346-1.782-0.473-3.325-0.383-4.631c0.088-1.304,0.337-2.405,0.744-3.296
	c0.465-0.972,1.004-1.709,1.619-2.219c0.615-0.509,1.346-0.937,2.195-1.278c0.85-0.344,1.67-0.519,2.463-0.521
	c0.791-0.001,1.519,0.245,2.18,0.743c0.654,0.48,1.243,1.242,1.764,2.279c0.52,1.042,0.947,2.417,1.279,4.131
	C611.782,251.978,611.918,253.483,611.834,254.646z"/>
<polygon points="631.955,213.932 623.11,217.506 630.956,257.876 639.801,254.299 "/>
<path d="M202.579,467.659c-1.703-1.011-3.795-1.284-6.279-0.823l-0.039-0.207c1.543-1.482,2.643-3.125,3.297-4.927
	c0.654-1.805,0.798-3.641,0.436-5.508c-0.313-1.606-0.93-2.903-1.852-3.882c-0.922-0.981-2.15-1.563-3.682-1.746
	c-1.479-0.168-2.919-0.08-4.323,0.264c-1.405,0.345-3.578,1.111-6.519,2.3l-14.164,5.721l7.508,38.63l15.929-6.433
	c2.646-1.072,4.784-2.197,6.414-3.377c1.628-1.179,3.052-2.629,4.268-4.355c1.053-1.467,1.792-3.083,2.218-4.841
	c0.425-1.756,0.457-3.569,0.092-5.438C205.383,470.462,204.282,468.667,202.579,467.659z M180.193,462.151l0.882-0.354
	c1.846-0.747,3.281-1.313,4.308-1.699c1.026-0.388,1.91-0.581,2.649-0.583c0.829,0.002,1.456,0.264,1.883,0.781
	c0.425,0.518,0.701,1.096,0.825,1.735c0.163,0.83,0.173,1.614,0.034,2.352c-0.138,0.737-0.593,1.477-1.365,2.217
	c-0.549,0.537-1.34,1.045-2.375,1.519s-2.296,1.011-3.783,1.611l-1.47,0.593L180.193,462.151z M196.008,479.534
	c-0.227,0.864-0.789,1.709-1.684,2.539c-0.876,0.82-1.886,1.472-3.022,1.948c-1.138,0.479-3.028,1.252-5.669,2.319l-0.685,0.275
	l-1.872-9.626l2.055-0.828c1.402-0.568,2.75-1.101,4.042-1.604c1.289-0.503,2.324-0.791,3.102-0.864
	c1.139-0.105,1.998,0.085,2.577,0.568c0.578,0.486,0.986,1.341,1.226,2.571C196.258,477.767,196.235,478.667,196.008,479.534z"/>
<path d="M235.122,446.06c-3.161-1.706-7.141-1.592-11.945,0.35c-4.739,1.914-8.167,4.78-10.286,8.604
	c-2.12,3.823-2.711,8.146-1.773,12.974c0.931,4.79,2.983,8.032,6.16,9.724c3.172,1.694,7.146,1.575,11.917-0.352
	c4.769-1.929,8.207-4.802,10.309-8.628c2.102-3.823,2.687-8.132,1.755-12.922C240.327,451.019,238.282,447.767,235.122,446.06z
	 M232.545,464.07c-0.083,1.162-0.339,2.231-0.764,3.205c-0.376,0.879-0.901,1.609-1.571,2.188c-0.673,0.579-1.408,1.03-2.208,1.353
	c-0.931,0.379-1.79,0.56-2.578,0.54c-0.787-0.018-1.507-0.259-2.162-0.721c-0.675-0.49-1.267-1.267-1.772-2.321
	c-0.504-1.055-0.912-2.378-1.22-3.97c-0.347-1.782-0.476-3.325-0.386-4.629s0.339-2.402,0.747-3.296
	c0.463-0.972,1.002-1.712,1.616-2.22c0.615-0.51,1.348-0.938,2.197-1.279c0.849-0.342,1.67-0.518,2.462-0.52
	c0.792-0.003,1.519,0.244,2.179,0.742c0.657,0.48,1.245,1.242,1.764,2.28c0.52,1.04,0.947,2.417,1.28,4.131
	C232.489,461.404,232.627,462.908,232.545,464.07z"/>
<path d="M271.512,429.956c-2.029-1.157-4.527-1.135-7.498,0.063c-1.763,0.713-3.297,1.707-4.607,2.981
	c-1.31,1.274-2.621,2.878-3.934,4.81l-0.626-3.218l-8.845,3.574l5.663,29.133l8.845-3.574l-4.014-20.651
	c0.846-0.994,1.654-1.795,2.425-2.405s1.558-1.076,2.358-1.398c1.128-0.459,2.033-0.667,2.72-0.625
	c0.685,0.039,1.255,0.313,1.707,0.82c0.385,0.441,0.749,1.223,1.089,2.344c0.342,1.123,0.626,2.272,0.856,3.447l2.809,14.45
	l8.845-3.574l-3.685-18.965C274.911,433.519,273.541,431.116,271.512,429.956z"/>
<path d="M305.391,415.921c-2.547-0.735-6.33-0.088-11.345,1.938c-2.105,0.853-4.176,1.878-6.205,3.082
	c-2.031,1.203-3.487,2.121-4.366,2.758l1.366,7.029l0.808-0.327c0.662-0.583,1.764-1.481,3.309-2.692
	c1.545-1.211,3.044-2.109,4.498-2.698c2.417-0.979,4.308-1.409,5.668-1.296c1.359,0.111,2.197,0.974,2.51,2.58l0.03,0.156
	c-2.567,1.203-5.028,2.459-7.38,3.768c-2.356,1.304-4.272,2.676-5.755,4.113c-1.499,1.445-2.567,3.025-3.203,4.734
	c-0.635,1.714-0.747,3.633-0.335,5.762c0.519,2.663,1.826,4.494,3.924,5.493c2.097,1.001,4.453,0.972,7.066-0.086
	c1.111-0.446,2.113-0.959,3.004-1.535c0.894-0.576,1.731-1.245,2.518-2.01c0.56-0.562,1.14-1.252,1.739-2.072
	c0.597-0.82,1.095-1.517,1.497-2.088l0.599,3.086l8.748-3.535l-3.853-19.819C309.552,418.767,307.938,416.653,305.391,415.921z
	 M301.756,440.462c-0.832,0.744-1.69,1.296-2.573,1.65c-1.11,0.451-1.943,0.7-2.497,0.747c-0.556,0.046-1.054-0.024-1.497-0.22
	c-0.459-0.186-0.775-0.449-0.944-0.789c-0.174-0.339-0.317-0.813-0.436-1.416c-0.176-0.913-0.086-1.745,0.27-2.492
	s0.947-1.448,1.772-2.098c0.672-0.532,1.685-1.167,3.038-1.909s2.616-1.406,3.789-1.992l1.177,6.05
	C303.288,438.895,302.589,439.715,301.756,440.462z"/>
<polygon points="317.787,409.163 323.45,438.299 332.296,434.725 326.632,405.589 "/>
<polygon points="324.694,394.255 315.358,398.027 316.735,405.11 326.073,401.341 "/>
<path d="M355.099,394.004c-0.396,0.142-0.747,0.273-1.055,0.397c-1.209,0.488-2.474,1.314-3.794,2.471
	c-1.323,1.158-2.781,3.014-4.38,5.563l-0.83-4.283l-8.846,3.574l5.662,29.137l8.845-3.577l-3.789-19.509
	c1.025-0.862,2.005-1.572,2.933-2.137c0.928-0.562,2.019-1.096,3.273-1.604c0.555-0.223,1.255-0.469,2.1-0.735
	s1.468-0.405,1.87-0.42l0.781-0.315l-1.729-8.898C355.841,393.75,355.495,393.862,355.099,394.004z"/>
<polygon points="369.303,376.233 359.967,380.005 361.344,387.087 370.677,383.315 "/>
<polygon points="362.394,391.14 368.058,420.276 376.903,416.702 371.239,387.565 "/>
<path d="M403.182,376.409c-2.546-0.732-6.328-0.088-11.343,1.938c-2.106,0.853-4.177,1.881-6.206,3.082
	c-2.033,1.203-3.486,2.121-4.367,2.758l1.367,7.031l0.808-0.326c0.662-0.586,1.766-1.482,3.309-2.695
	c1.545-1.211,3.044-2.109,4.497-2.698c2.419-0.977,4.309-1.409,5.669-1.296c1.359,0.111,2.197,0.974,2.51,2.582l0.031,0.154
	c-2.568,1.203-5.029,2.461-7.38,3.768c-2.356,1.303-4.275,2.676-5.757,4.115c-1.499,1.443-2.568,3.023-3.203,4.734
	c-0.635,1.714-0.747,3.633-0.332,5.76c0.518,2.663,1.823,4.496,3.921,5.492c2.097,1.002,4.453,0.973,7.067-0.082
	c1.108-0.449,2.112-0.963,3.003-1.539c0.894-0.573,1.731-1.244,2.518-2.009c0.559-0.562,1.14-1.253,1.738-2.073
	c0.598-0.817,1.099-1.516,1.496-2.087l0.601,3.089l8.748-3.535l-3.853-19.822C407.345,379.255,405.731,377.142,403.182,376.409z
	 M399.552,400.95c-0.835,0.746-1.692,1.296-2.576,1.652c-1.11,0.449-1.94,0.698-2.497,0.744c-0.557,0.047-1.055-0.023-1.497-0.219
	c-0.459-0.186-0.773-0.449-0.944-0.787c-0.171-0.342-0.317-0.813-0.435-1.418c-0.179-0.91-0.088-1.746,0.269-2.492
	c0.356-0.748,0.947-1.445,1.772-2.096c0.671-0.531,1.685-1.169,3.039-1.908c1.353-0.745,2.615-1.406,3.787-1.992l1.177,6.049
	C401.083,399.382,400.382,400.205,399.552,400.95z"/>
<path d="M441.09,361.442c-2.029-1.156-4.529-1.137-7.498,0.064c-1.76,0.71-3.296,1.706-4.606,2.979
	c-1.309,1.276-2.622,2.881-3.936,4.809l-0.625-3.215l-8.848,3.572l5.664,29.135l8.848-3.574l-4.014-20.651
	c0.845-0.993,1.652-1.797,2.427-2.405c0.769-0.609,1.555-1.078,2.355-1.4c1.126-0.455,2.034-0.664,2.72-0.623
	c0.687,0.039,1.255,0.313,1.707,0.82c0.386,0.441,0.749,1.223,1.089,2.344c0.342,1.121,0.627,2.271,0.854,3.445l2.81,14.453
	l8.846-3.574l-3.687-18.965C444.489,365.005,443.119,362.601,441.09,361.442z"/>
<path d="M483.551,357.915c-0.933-4.79-2.977-8.042-6.136-9.749c-3.161-1.709-7.144-1.592-11.945,0.35
	c-4.736,1.917-8.167,4.782-10.286,8.606c-2.121,3.82-2.71,8.145-1.772,12.971c0.931,4.79,2.981,8.035,6.16,9.725
	c3.174,1.693,7.146,1.574,11.916-0.352c4.769-1.927,8.206-4.803,10.308-8.629C483.898,367.015,484.484,362.705,483.551,357.915z
	 M474.837,366.179c-0.083,1.162-0.339,2.229-0.764,3.206c-0.376,0.876-0.901,1.606-1.572,2.185
	c-0.672,0.582-1.406,1.031-2.207,1.354c-0.933,0.378-1.79,0.559-2.578,0.539c-0.786-0.018-1.509-0.259-2.161-0.721
	c-0.676-0.49-1.267-1.264-1.774-2.321c-0.503-1.055-0.908-2.376-1.219-3.968c-0.347-1.781-0.476-3.324-0.386-4.631
	c0.091-1.304,0.34-2.404,0.745-3.296c0.464-0.97,1.006-1.712,1.618-2.22c0.615-0.508,1.348-0.938,2.197-1.279
	c0.848-0.342,1.67-0.518,2.461-0.52c0.794-0.002,1.521,0.246,2.181,0.742c0.656,0.48,1.245,1.242,1.763,2.283
	c0.52,1.039,0.947,2.414,1.281,4.128C474.782,363.511,474.918,365.017,474.837,366.179z"/>
<polygon points="491.908,81.275 491.908,34.992 375.15,82.167 375.15,253.64 427.985,232.295 427.985,174.671 469.466,157.911 
	469.466,118.417 427.985,135.176 427.985,107.102 "/>
<path d="M644.526,95.608c-3.455-18.229-15.826-30.165-30.799-32.013c12.402-11.005,13.201-24.086,7.619-37.897
	c-9.416-23.306-31.438-30.3-49.895-22.843l-73.022,29.503v171.475l114.541-46.277C635.182,148.582,649.308,120.846,644.526,95.608z
	 M534.73,54.078l28.062-11.337c6.487-2.621,12.767,0.959,14.028,7.995c1.26,7.036-2.976,14.863-9.46,17.483l-32.63,13.183V54.078z
	 M589.292,130.733l-54.562,22.043v-30.772l49.419-19.966c7.305-2.953,14.378,1.08,15.799,9.002
	C601.369,118.966,596.598,127.782,589.292,130.733z"/>
<path d="M368.629,131.083V84.801l-116.757,47.173v1.787c-30.255-28.945-75.795-39.204-117.138-22.501
	c-56.245,22.727-83.417,86.739-60.694,142.983c22.727,56.245,86.737,83.413,142.986,60.693
	c13.346-5.394,25.052-13.115,34.846-22.503v11.016l52.833-21.348V224.48l41.482-16.76v-39.495l-41.482,16.759l0.001-28.074
	L368.629,131.083z"/>
<path fill="#ED1C24" d="M150.31,346.689c-26.505-5.073-50.386-14.048-69.063-28.833c13.462,14.221,30.608,25.427,50.32,32.137
	l7.792,28.532l2.855,10.452l12.539-16.67l11.754-15.631c11.746,0.594,23.261-0.453,34.26-2.961
	c8.473-1.934,16.64-4.731,24.369-8.318c-3.24,0.972-6.541,1.78-9.884,2.466C195.049,351.997,173.049,351.042,150.31,346.689z"/>
<path fill="#ED1C24" d="M220.193,76.206l-10.648-38.988l-24.293,32.3c-20.793-1.047-40.866,3.037-58.629,11.282
	c22.817-6.846,48.325-6.366,74.829-1.292c26.503,5.073,50.385,14.048,69.06,28.833C257.048,94.12,239.903,82.911,220.193,76.206z"/>
<path fill="#ED1C24" d="M314.616,180.98c-1.727-5.903-3.881-11.632-6.437-17.139c1.766,5.888,3.036,11.958,3.875,18.174
	L314.616,180.98z"/>
<path fill="#ED1C24" d="M319.459,222.471c0.068-1.339,0.112-2.676,0.138-4.008l-7.507,3.032c-0.641,5.667-1.512,11.394-2.62,17.173
	c-1.313,6.862-2.895,13.544-4.765,20.011l0.001,17.361c3.138-5.906,5.852-12.124,8.065-18.631l38.987-10.644L319.459,222.471z"/>
<path fill="#ED1C24" d="M280.637,307.731c7.377-6.984,13.933-14.966,19.481-23.774l-6.077,2.454
	C290.221,294.074,285.79,301.223,280.637,307.731z"/>
<path fill="#ED1C24" d="M71.121,118.465c-14.22,13.463-25.429,30.609-32.134,50.32L0,179.432l32.298,24.293
	c-1.047,20.793,3.037,40.867,11.282,58.63c-6.844-22.817-6.366-48.325-1.292-74.83C47.361,161.023,56.335,137.142,71.121,118.465z"
	/>
<path fill="#FFFFFF" d="M137.296,117.598c-8.36,3.38-16.031,7.73-22.94,12.869l3.68,4.125c0,0,30.798,4.619,77.344-22.635
	C176.523,108.299,156.44,109.866,137.296,117.598z"/>
<path fill="#FFFFFF" d="M105.813,255.671c-4.551,4.443-7.226,7.84-8.317,11.353c-1.327,4.275,0.329,10.376,5.492,18.882
	c9.429,9.432,20.545,16.865,32.645,22.005c21.371,9.064,45.757,10.957,69.286,4.011
	C193.679,268.444,160.106,258.013,105.813,255.671z"/>
<path fill="#FFFFFF" d="M189.844,125.244c-23.508,9.497-35.729,19.556-35.729,19.556s-10.117,9.607-15.135,26.761l-12.045,5.334
	c0,0-3.879-24.005-8.335-28.705c-4.405-4.648-10.401-5.656-17.612-5.834c-8.445,8.954-15.166,19.303-19.92,30.497
	c-10.3,24.275-11.342,52.446-0.686,78.828c0.293,0.726,0.597,1.443,0.903,2.158c2.053,1.763,4.036,2.649,6.169,2.64
	c4.6-0.022,18.373-12.182,18.373-12.182c5.903-13.907,16.75-51.319,16.75-51.319l13.695,0.589c0.311,8.419,2.13,17.793,6.26,28.014
	c14.731,36.46,61.883,51.592,106.17,29.201v9.038c-22.983,10.525-29.341,27.967-34.827,49.004c0.195-0.078,0.393-0.151,0.588-0.229
	c14.749-5.959,27.355-14.941,37.409-25.942V145.315C241.821,136.118,219.272,119.854,189.844,125.244z"/>
</svg>
