<svg height="1000" viewBox="0 0 1000 1000" width="1000" xmlns="http://www.w3.org/2000/svg"><g transform="matrix(14.971239 0 0 14.971239 -2375.1871 16.932471)"><path d="m 181.299 43.338 c .292 .844 .666 1.928 1.11 3.221 c -1.914 -.982 -8.091 1.777 -10.294 2.518 c 0 0 -1.213 -1.121 -1.969 -1.465 c -.407 -.186 -1.282 -.061 -1.767 .346 c -.128 -.082 -.295 -.303 -.574 .104 c -.182 .268 -.091 .326 .099 .453 c -.083 .133 -.236 .393 -.314 .559 c -.156 -.045 -.279 -.215 -.494 .193 c -.239 .451 0 .473 .203 .555 c -.621 1.258 -1.649 2.025 -2.266 3.326 c -.197 -.078 -.342 -.168 -.54 .346 c -.141 .365 0 .426 .214 .541 c -.105 .385 -.183 .713 -.237 1.033 c -.053 -.008 -.366 -.076 -.411 .26 c -.071 .52 -.002 .596 .312 .631 c -.012 .227 -.016 .465 -.016 .736 c .178 .758 .852 .912 1.247 .609 c 2.115 -1.613 3.743 -2.674 4.941 -3.535 c 3.14 -.295 11.734 -.873 14.252 -1.096 c 1.244 .082 4.964 -3.129 5.001 -4.225 c .071 -2.072 .006 -3.473 -.114 -5.109 h 60.291 V 56.04 c 0 3.152 -2.557 5.707 -5.709 5.707 h -79.907 c -3.152 0 -5.707 -2.555 -5.707 -5.707 V 43.338 h 22.649" fill="#da4b4a"/><path d="M 158.65 43.338 V 4.67 c 0 -3.152 2.555 -5.707 5.707 -5.707 h 79.907 c 3.152 0 5.709 2.555 5.709 5.707 v 12.223 c -1.036 -1.07 -2.488 -1.736 -4.092 -1.736 c -3.145 0 -5.693 2.549 -5.693 5.691 c 0 3.142 2.548 5.691 5.693 5.691 c 1.604 0 3.056 -.664 4.092 -1.736 v 18.535 h -60.291 c -.1 -1.334 -.237 -2.822 -.362 -4.963 l .583 -.186 l .048 -4.475 l 1.189 .061 c 0 0 -.023 .01 .129 -.506 c 3.045 .332 8.778 1.236 12.594 .973 c .713 -.049 1.385 .221 1.854 .746 c .974 .82 8.092 1.57 14.033 1.607 c .74 1.996 2.339 2.367 2.339 2.367 c .13 .072 .229 -.01 .566 -.164 c .189 .201 .296 .309 .646 .125 c .281 -.146 .274 -.279 .179 -.508 l .284 -.18 c .179 .186 .338 .287 .605 .115 c .256 -.166 .293 -.24 .102 -.531 c .603 -.4 4.081 -3.004 4.081 -3.004 c .128 .129 .205 .197 .279 .184 c .107 -.023 .451 -.275 .505 -.395 c .044 -.098 -.054 -.215 -.165 -.352 l .598 -.463 c .103 .137 .191 .213 .267 .186 c .119 -.039 .287 -.18 .362 -.344 c .04 -.082 -.063 -.217 -.153 -.342 l .393 -.48 c -.153 -.693 -.838 -.615 -1.438 -.572 c -1.497 .111 -5.773 .752 -7.404 .676 c -3.051 -1.016 -14.654 -5.354 -15.336 -5.606 c -.744 -.277 -1.395 -.355 -2.188 -.332 c -3.128 -1.676 -9.041 -2.957 -9.58 -3.108 c -.156 -.043 -.097 -.299 -.145 -.494 c 0 0 -2.569 -.467 -4.664 -.449 c .391 -1.508 .955 -6.074 .959 -7.451 c .34 .207 .561 .313 .957 .354 c .735 .078 1.501 -.455 2.429 -.832 c .486 -.199 .556 .088 .834 -.084 c .62 -.387 .927 -1.508 1.845 -2.193 c .58 -.463 1.185 -.318 1.431 -.85 c .415 -.892 .21 -1.517 .039 -2.463 c -.259 -1.426 -.568 -2.402 -1.702 -3.303 c -.899 -.713 -1.627 -.963 -2.774 -.98 c -1.347 -.021 -3.605 .637 -4.838 3.754 c -1.386 -.795 -1.916 -1.193 -3.386 -1.719 c -2.674 -.959 -11.096 .897 -12.037 1.332 c .072 .434 .07 .824 .07 .824 c 0 0 -1.03 .033 -1.436 .621 c -1.98 2.871 -4.254 6.904 -4.254 6.904 c -.82 .164 -1.363 .756 -1.751 1.57 c -.403 .846 -.774 .953 -1.612 1.494 c -.581 .193 -.369 .836 -.041 .814 c .608 -.039 1.151 -.389 1.77 -.851 c -.335 1.019 -1.535 1.74 -1.569 2.156 c .121 .555 1.416 1.324 3.1 .041 c .535 -.408 1.117 -.76 1.478 -1.291 c .211 -.256 .325 -1.365 .563 -2.172 c .375 -.172 3.218 -2.766 5.264 -4.832 c 0 0 4.193 -.846 6.195 -1.16 c 0 0 -1.555 .74 -3.103 1.273 c -2.591 9.623 -2.39 13.859 -1.029 14.297 c -1.059 1.902 1.377 9.707 2.665 12.982 l .631 .111 c 0 0 .256 .73 .717 2.066 l -22.648 .002" fill="#da4b4a"/><path d="M 265.162 52.799 L 265.162 23.141 L 254.865 23.141 L 254.865 61.76 L 279.826 61.76 L 279.826 52.799 Z" fill="#353437"/><path d="M 284.36899 23.141001 H 294.66799 V 61.76 H 284.36899 Z" fill="#353437"/><path d="m 334.77 35.395 c 0 -12.254 -7.104 -12.305 -17.092 -12.305 c -11.33 0 -18.335 1.906 -18.335 14.674 v 9.99 c 0 12.512 6.181 14.57 18.335 14.57 c 13.795 0 17.092 -2.369 17.092 -15.395 v -6.746 h -17.559 v 7.158 h 7.105 c 0 5.354 -1.389 6.537 -6.639 6.537 c -5.357 0 -7.727 -.721 -7.727 -7.568 v -6.281 c .103 -6.23 .31 -8.496 7.727 -8.496 c 3.088 0 6.432 -.051 6.639 3.861 h 10.454" fill="#353437"/><path d="m 361.986 55.117 l 2.01 6.643 H 374.5 L 362.76 23.141 H 347.108 L 335.521 61.76 h 10.709 l 1.906 -6.643 z M 359.928 47.6 h -9.574 l 4.684 -16.734 h .104 z" fill="#353437"/><path d="m 254.865 18.815 h 10.51 c 4.197 0 6.469 -.66 6.469 -5.518 c 0 -2.482 -.503 -4.252 -3.435 -4.438 V 8.648 c 2.616 -.422 3.118 -2.059 3.118 -4.566 c 0 -4.332 -2.326 -5.07 -6.259 -5.07 h -10.403 z m 5.281 -15.473 h 4.436 c 1.479 .053 1.662 .502 1.662 1.689 c 0 1.584 -.449 1.9 -2.296 1.9 h -3.802 z m 0 7.262 h 4.092 c 1.717 0 2.325 .236 2.325 1.873 c 0 1.611 -.713 2.008 -2.43 2.008 h -3.987 v -3.881" fill="#353437"/><path d="m 286.197 -1.037 v 12.859 c 0 2.324 -.766 2.51 -3.01 2.51 c -2.219 0 -3.485 -.027 -3.485 -2.271 V -1.037 h -5.281 v 13.203 c 0 4.752 .847 6.758 8.767 6.758 c 5.809 0 8.293 -1.476 8.293 -6.758 V -1.037 h -5.284" fill="#353437"/><path d="M 309.215 -1.004 L 309.533 14.203 L 309.322 14.203 L 303.646 -1.004 L 294.721 -1.004 L 294.721 18.799 L 300.004 18.799 L 299.685 3.59 L 299.896 3.59 L 305.494 18.799 L 314.498 18.799 L 314.498 -1.004 Z" fill="#353437"/><path d="m 317.564 18.781 h 10.746 c 5.52 0 7.26 -2.561 7.26 -7.973 V 6.662 c 0 -5.623 -2.457 -7.682 -7.975 -7.682 h -10.031 z m 5.28 -15.207 h 4.619 c 1.852 0 2.666 .527 2.666 3.088 v 4.147 c 0 2.086 -.711 3.381 -2.666 3.381 h -4.619 V 3.574" fill="#353437"/><path d="M 352.938 18.768 L 352.938 14.438 L 343.746 14.438 L 343.746 10.582 L 352.197 10.582 L 352.197 6.91 L 343.746 6.91 L 343.746 3.293 L 352.751 3.293 L 352.751 -1.037 L 338.468 -1.037 L 338.468 18.768 Z" fill="#353437"/><path d="m 363.334 6.633 c -1.4 -.106 -2.166 -.16 -2.166 -1.744 c 0 -1.109 .24 -1.69 3.09 -1.69 c 2.113 0 2.958 0 2.958 2.033 h 5.068 V 4.414 c 0 -5.465 -3.696 -5.545 -8.026 -5.545 c -5.176 0 -8.371 .369 -8.371 6.047 c 0 5.676 2.85 5.65 7.736 5.992 l 1.162 .08 c 2.482 .158 2.773 .133 2.773 1.85 c 0 1.662 -.818 1.82 -3.301 1.82 c -2.588 0 -3.326 -.211 -3.326 -2.27 h -5.072 c 0 6.494 3.353 6.6 8.398 6.6 c 8.713 0 8.58 -3.221 8.58 -6.494 c 0 -4.541 -1.451 -5.281 -7.313 -5.705 l -2.19 -.156" fill="#353437"/></g></svg>