<svg xmlns="http://www.w3.org/2000/svg" width="1000" height="1000" viewBox="0 0 1000 1000"><path fill="#70bf52" d="M904.298 278.28v-40.585"/><path fill="#006bb6" d="M432.028 950S-10.1 739.958.176 250.835c0 0 142.49-11.748 123.391-167.45 0 0 139.538-69.034 308.46-69.034 0 0 175.775-3.922 330.482 70.49 0 0-13.714 127.311 133.188 162.564.003 0 22.511 460.231-463.67 702.595"/><path fill="#fff" d="M372.723 793.643h43.774v12.387H388.2v12.163h24.466v11.98H388.2v22.887h-15.478zM420.411 837.585h15.475v15.475h-15.475ZM493.555 814.852c-.823-5.983-5.493-9.144-11.978-9.144-9.981 0-13.814 8.822-13.814 17.63 0 8.834 3.83 17.657 13.814 17.657 7.24 0 11.393-4.164 11.978-11h15.478c-.826 15.32-12.068 24.31-27.125 24.31-17.978 0-29.623-13.727-29.623-30.966 0-17.225 11.645-30.953 29.623-30.953 12.806 0 26.716 8.148 27.125 22.464h-15.478M524.844 837.585h15.478v15.475h-15.478Z"/><path d="M437.468 738.407c106.348 0 192.554-83.702 192.554-186.957 0-103.237-86.203-186.948-192.554-186.948-106.348 0-192.579 83.711-192.579 186.948-.003 103.255 86.23 186.957 192.579 186.957"/><path fill="#fff" d="M452.593 143.113c-.585-5.86-2.444-10.766-2.934-16.637 0-3.441 0-7.339 2.934-9.304 4.404-2.445 7.831 2.937 12.233 4.412 4.894 1.45 2.937-5.384 1.957-7.85-3.427-8.804-9.296-17.133-12.233-26.426-.991-4.41 2.937-9.808 1.957-14.685-3.427 4.387-5.398 9.785-10.29 12.218-1.957.991-4.39.504-6.36.991-.978.49-2.445 1.955-1.955 2.935 1.954 7.831 1.954 15.674 1.954 23.5.49 25.459-1.464 50.926-5.381 75.893-11.743 26.445-34.265 46.022-55.81 65.122-15.195 5.872-25.96 17.138-34.783 30.841-5.382 8.327-9.282 15.674-12.233 24.48-.49 1.957 0 4.41 0 6.366 0 .49.49.49.991.49 1.456-1.458 2.447-3.928 4.892-2.937 4.894 1.957 7.34 6.367 8.808 11.267.473 3.419.98 6.356 1.467 9.29.977 12.238-.994 23.99-2.937 35.749-4.404 4.41-5.395 10.766-6.851 16.642-1.971 8.809-1.971 17.141 0 25.46.476 1.957 3.413-.49 5.381 0 3.914-24.48 22.035-41.62 33.778-62.662 5.381-9.79 7.353-21.063 4.908-31.826 11.743-3.92 23.5-6.367 34.265-14.2 14.204-10.276 19.588-25.469 20.078-41.613 1.467.49 3.424-.994 3.424-.49 4.405 24.48 10.293 48.96-2.444 71.481 0 .49 0 1.955.49 1.955 8.319-8.812 11.267-20.081 14.201-31.334 2.447-8.327 2.937-16.16 4.404-24.964 1.467-5.885 1.467-11.756 1.957-17.642.983-39.162-1.954-77.358-5.868-116.522"/><path fill="#fff" d="M395.302 368.34c-11.197 2.705-21.529 5.872-31.832 9.795-6.838 8.8-12.233 18.608-14.68 29.86 0 .49-.49 1.958.504 1.958 12.723-.986 25.443.98 38.165 0 20.075-15.17 40.655-29.864 60.716-45.045-3.413-2.455-7.342-.98-10.766-.98-14.2-.481-27.918.98-42.107 4.413M305.213 415.342c-5.97 5.264-10.766 10.766-16.147 16.643-4.419 6.375-8.823 11.757-13.238 18.112-9.789 15.176-16.637 29.38-22.035 46.03 0 1.465-.473 2.445-.473 3.926-4.405 12.233-5.872 24.955-7.353 37.692 0 .476.98.476 1.481.476 10.276-8.304 20.551-14.68 30.827-22.508 4.418-18.594 8.332-36.726 12.75-55.32 14.68-14.204 27.907-29.878 42.587-44.068-1.467-6.857 0-14.2-2.447-21.058-9.302 5.382-17.62 12.729-25.952 20.075M341.437 581.311c-2.657-15.125-5.384-29.86-6.837-45.03-15.67-7.339-32.324-12.233-48.483-18.132-13.226 10.303-27.416 18.619-40.15 29.888-1.456.98-.966 3.915-.49 6.348.49 6.375 0 12.736.98 19.098 1.481 7.828 2.951 15.657 4.894 23.513 3.438 14.204 8.823 27.417 15.198 40.137.963 1.467 1.453 2.937 2.447 4.404 2.447 4.418 4.891 9.31 8.319 13.226 9.295-.49 19.095.98 28.393.98 13.227-16.637 25.947-33.777 39.66-49.938-1.486-8.333-2.45-16.164-3.93-24.494M349.294 583.282c1.285 7.37 1.943 14.19 3.41 21.055 24.97 11.256 48.959 23.013 74.416 33.288 20.568-20.075 42.124-39.17 63.165-58.744-1.943-24.967-3.914-49.46-5.871-74.43-.49-.98-1.958-1.957-2.937-2.433-27.92-11.266-54.847-23.989-82.751-34.777-19.098 22.53-38.67 44.563-57.767 67.575 3.413 16.158 5.384 31.813 8.335 48.466M314.511 674.839c-3.382-4.416-6.347-8.806-9.296-13.227-7.842-1.453-15.183-.476-23.012-1.453-.49 0-.49.473-.49.977 44.555 62.185 120.44 89.098 191.434 74.404-11.256-8.806-23.488-15.184-35.735-23.975-.98-.504-2.937 0-3.914.49-13.714 6.848-27.417 12.232-41.13 19.095-16.652-6.373-33.288-13.224-50.427-19.095-10.782-11.27-17.63-24.494-27.43-37.216M439.856 636.17c-3.06 2.794-5.871 5.367-8.808 8.304 1.957 20.075 5.86 39.66 7.831 59.752 13.711 10.276 28.88 19.095 43.087 28.88 19.586-2.95 37.693-11.742 55.335-21.541 17.126-9.8 31.328-22.537 44.54-36.726-5.871-21.543-10.275-43.564-16.16-65.596-23.99-8.333-47.968-15.184-71.958-23.026-18.118 16.65-35.256 32.811-53.867 49.952M603.4 525.501c-12.137 24.242-18.622 49.953-28.41 75.412-.98 2.43-1.481 4.892-.98 7.829a1471 1471 0 0 0 10.765 44.554c1.482 4.404.49 9.8 3.929 13.7 11.255-15.66 21.542-31.818 28.38-49.925 3.438-9.8 6.375-19.599 8.819-29.888 1.481-6.838 1.971-13.213 2.447-19.574.98-15.657 1.971-31.818-1.957-47.492-6.849 0-13.21-.963-20.075.49-1.955 0-1.955 2.937-2.918 4.894M600.463 511.309c1.51 1.413 2.447 2.447 3.9 2.937 6.866 2.447 13.714.49 20.582.49-2.937-22.033-12.75-43.088-24.983-63.166-14.19-23.004-32.308-40.64-54.343-55.334-4.905 1.481-9.31 4.41-13.714 6.863 2.445 18.12 5.872 36.72 8.333 54.847 20.06 17.616 40.136 34.757 60.225 53.363M513.784 474.582c7.51-6.179 14.694-11.255 21.543-17.628-4.402-17.622-5.858-35.735-11.256-52.867-25.46-9.808-49.936-20.574-75.41-30.85-17.616 14.196-35.734 26.927-53.365 40.644 1.957 14.685 3.914 29.86 6.361 44.546 20.076 9.304 40.64 17.623 61.206 25.941 8.822 3.438 16.65 8.822 25.95 10.292 8.32-6.85 16.656-13.223 24.971-20.078M73.307 368.794c-9.254-5.837-14.817-12.834-16.693-20.968-1.635-7.075-.35-13.938 3.858-20.615 5.633-8.92 12.695-13.594 21.153-14.014 4.726-.196 8.78.655 12.205 2.579l-7.003 11.079c-2.993-.888-5.493-1.173-7.506-.87q-5.348.832-9.103 6.786c-2.559 4.02-2.934 8.229-1.145 12.61 1.775 4.383 5.634 8.445 11.575 12.197 5.955 3.769 11.185 5.353 15.699 4.765 4.516-.585 7.968-2.771 10.373-6.57 2.447-3.882 3.047-7.645 1.79-11.296-.644-1.993-2.112-4.222-4.363-6.683l6.922-10.981c5.171 4.606 8.318 10.038 9.45 16.259q1.696 9.362-4.153 18.602c-4.807 7.627-11.057 12.079-18.692 13.359q-11.512 1.888-24.367-6.239M144.02 318.662l-8.08 10.164-49.088-39.047 8.084-10.15 18.703 14.89 15.268-19.19-18.72-14.887 8.11-10.195 49.1 39.059-8.126 10.174-21.906-17.418-15.254 19.18zM183.32 272.394l-5.914-12.252 16.525-16.164 11.91 6.404 10.164-9.957-59.738-29.298-10.597 10.365 27.864 60.484zm.445-33.581-11.379 11.135-11.477-23.304zM239.77 206.258l-19.125-46.847 15.419-10.847 36.099 51.291-9.996 7.033-24.41-34.704c-.71-.986-1.676-2.403-2.908-4.209a262 262 0 0 0-2.91-4.194l20.594 49.875-10.402 7.332-39.943-36.264c.686.98 1.677 2.363 2.965 4.139a439 439 0 0 1 2.99 4.166l24.424 34.704-9.996 7.011-36.099-51.282 15.587-10.982zM304.247 121.993c-6.306-2.565-13.56-2.05-21.78 1.562-8.193 3.607-13.49 8.59-15.868 14.957-3.508 7.837-2.95 16.993 1.664 27.52 4.516 10.32 10.891 16.954 19.126 19.868 6.288 2.565 13.531 2.047 21.752-1.545 8.206-3.606 13.506-8.59 15.895-14.96 3.37-8.03 2.81-17.197-1.705-27.512-4.626-10.53-10.973-17.157-19.084-19.89m-13.252 51.91c-4.376-2.26-7.983-6.625-10.808-13.1q-4.257-9.704-2.307-16.82c1.288-4.751 4.306-8.178 9.058-10.267 4.754-2.077 9.312-1.971 13.646.314q6.502 3.456 10.738 13.114c2.836 6.47 3.634 12.07 2.377 16.81-1.257 4.727-4.25 8.129-9.018 10.22-4.752 2.092-9.31 2.008-13.686-.271M342.149 105.084l16.343 60.556-12.57 3.397-16.356-60.553zM366.194 143.113l12.415-1.546c.739 2.789 1.789 4.824 3.116 6.081q3.629 3.462 11.323 2.49c3.063-.387 5.521-1.028 7.355-1.944 3.466-1.747 4.992-4.382 4.544-7.904-.266-2.044-1.34-3.525-3.298-4.418q-2.895-1.31-8.85-1.865l-6.768-.658c-6.655-.655-11.34-1.685-14.022-3.102-4.558-2.35-7.2-6.571-7.968-12.686-.697-5.578.767-10.463 4.362-14.644 3.592-4.194 9.31-6.787 17.152-7.758 6.572-.818 12.387.232 17.446 3.125 5.063 2.9 8.109 7.654 9.173 14.24l-12.499 1.545c-.7-3.704-2.657-6.165-5.9-7.369-2.166-.79-4.74-.994-7.76-.616-3.355.412-5.942 1.428-7.759 3.021q-2.747 2.398-2.307 6.023c.291 2.237 1.481 3.768 3.578 4.628 1.355.571 4.166 1.083 8.43 1.56L399 122.558c4.853.543 8.57 1.598 11.214 3.194 4.082 2.461 6.46 6.48 7.16 12.026.696 5.68-.897 10.678-4.769 14.974-3.886 4.289-9.8 6.946-17.726 7.932-8.123 1-14.722-.042-19.826-3.181-5.113-3.125-8.061-7.921-8.859-14.391M500.95 159.943l10.64-61.813 13.548 2.332 17.197 47.388 7.422-43.163 12.037 2.075-10.64 61.813-12.915-2.215-17.687-48.262-7.563 43.908zM593.657 115.982l-17.66 60.183-12.498-3.668 17.673-60.178zM657.054 147.536q-3.375-9.624-15.6-15.245c-8.137-3.74-15.377-4.382-21.725-1.935-8.195 2.579-14.68 9.08-19.476 19.51-4.712 10.242-5.437 19.406-2.15 27.492 2.251 6.409 7.464 11.493 15.615 15.245 8.136 3.747 15.39 4.388 21.727 1.93 8.246-2.79 14.722-9.288 19.431-19.524 4.81-10.438 5.536-19.602 2.178-27.473M609.468 172.1c-1.204-4.782-.336-10.368 2.615-16.791 2.95-6.418 6.624-10.724 11.042-12.9 4.405-2.194 8.977-2.194 13.7-.036 4.698 2.181 7.633 5.642 8.809 10.41 1.159 4.766.28 10.351-2.671 16.735-2.951 6.418-6.61 10.738-10.99 12.933-4.362 2.215-8.918 2.229-13.616.056-4.723-2.159-7.674-5.642-8.89-10.407M688.567 159.805l-38.347 49.628 10.136 7.829 15.043-19.468 10.707 8.277c3.05 2.363 4.726 4.494 5.034 6.409.28 1.91-.767 4.477-3.175 7.677l-3.494 4.653c-1.092 1.49-2.055 3.021-2.85 4.62-.392.776-.854 1.837-1.397 3.18l11.42 8.823.966-1.251c-.52-1.37-.42-2.803.305-4.279.434-.943 1.54-2.564 3.287-4.824l2.574-3.332c2.682-3.48 4.208-6.445 4.569-8.864.364-2.43-.252-4.998-1.842-7.689 3.48 1.176 6.683 1.078 9.628-.285 2.952-1.355 5.343-3.209 7.16-5.57 1.509-1.956 2.53-3.936 3.09-5.954.547-2.002.785-4.05.659-6.138-.112-2.53-.812-4.922-2.083-7.16-1.257-2.236-3.607-4.725-7.034-7.486zm19.91 30.53c1.204 2.582.641 5.37-1.68 8.375-2.167 2.797-4.625 3.852-7.422 3.194-1.577-.355-3.55-1.447-5.872-3.233l-11.756-9.089 10.303-13.33 12.054 9.304c2.234 1.733 3.701 3.332 4.373 4.78M742.434 204.01l33.621 38.11-8.33 7.338-12.414-14.07L716.6 269.55l-8.725-9.892 38.711-34.162-12.47-14.125zM739.19 298.663l13.184-3.39 12.596 19.369-8.612 10.424 7.758 11.924 40.473-52.825-8.08-12.415-64.787 15.436zm32.842 7.016-8.669-13.33 25.096-6.683zM829.236 326.757l-55.04 30.07-6.247-11.42 55.055-30.08zM797.418 358.835l5.494 11.242c-2.403 1.615-3.999 3.25-4.752 4.922-1.383 3.055-.966 6.885 1.3 11.524 1.371 2.775 2.768 4.88 4.224 6.328 2.78 2.721 5.76 3.293 8.946 1.733q2.792-1.35 3.13-4.55c.196-2.12-.182-5.11-1.106-8.976l-1.576-6.61c-1.54-6.516-2.07-11.267-1.607-14.277.756-5.068 3.886-8.946 9.421-11.637 5.063-2.47 10.136-2.676 15.28-.635 5.118 2.035 9.421 6.619 12.89 13.728 2.892 5.941 3.8 11.784 2.696 17.51-1.106 5.726-4.614 10.164-10.5 13.288l-5.52-11.322c3.298-1.86 4.975-4.508 5.076-7.963.042-2.285-.616-4.81-1.943-7.53-1.468-3.031-3.257-5.17-5.368-6.372-2.11-1.218-4.264-1.288-6.462-.224-2.013.989-3.074 2.601-3.2 4.878-.098 1.475.319 4.292 1.243 8.486l2.402 10.855c1.064 4.755 1.257 8.635.616 11.626-1.005 4.67-4.04 8.22-9.057 10.667-5.147 2.514-10.374 2.626-15.7.356-5.325-2.29-9.757-7.03-13.251-14.218-3.578-7.339-4.712-13.932-3.427-19.767 1.302-5.85 4.894-10.212 10.751-13.062"/><path fill="#70bf52" d="M904.298 263.964V223.38"/><path fill="#006bb6" d="M432.028 935.684S-10.1 725.642.176 236.52c0 0 142.49-11.748 123.391-167.45 0 0 139.538-69.033 308.46-69.033 0 0 175.775-3.92 330.482 70.49 0 0-13.714 127.313 133.188 162.564.003-.003 22.511 460.23-463.67 702.594"/><path fill="#fff" d="M372.723 779.327h43.774v12.387H388.2v12.163h24.466v11.98H388.2v22.887h-15.478zM420.411 823.266h15.475v15.475h-15.475ZM493.555 800.534c-.823-5.984-5.493-9.145-11.978-9.145-9.981 0-13.814 8.823-13.814 17.631 0 8.834 3.83 17.66 13.814 17.66 7.24 0 11.393-4.167 11.978-11.004h15.478c-.826 15.323-12.068 24.31-27.125 24.31-17.978 0-29.623-13.727-29.623-30.966 0-17.222 11.645-30.953 29.623-30.953 12.806 0 26.716 8.151 27.125 22.464h-15.478M524.844 823.266h15.478v15.475h-15.478Z"/><path d="M437.468 724.091c106.348 0 192.554-83.7 192.554-186.956 0-103.238-86.203-186.946-192.554-186.946-106.348 0-192.579 83.708-192.579 186.946-.003 103.257 86.23 186.956 192.579 186.956"/><path fill="#fff" d="M452.593 128.794c-.585-5.857-2.444-10.766-2.934-16.637 0-3.438 0-7.339 2.934-9.301 4.404-2.447 7.831 2.934 12.233 4.41 4.894 1.456 2.937-5.385 1.957-7.851-3.427-8.803-9.296-17.133-12.233-26.426-.991-4.41 2.937-9.805 1.957-14.685-3.427 4.39-5.398 9.786-10.29 12.219-1.957.994-4.39.504-6.36.994-.978.49-2.445 1.957-1.955 2.937 1.954 7.828 1.954 15.67 1.954 23.5.49 25.456-1.464 50.923-5.381 75.89-11.743 26.442-34.265 46.025-55.81 65.12-15.195 5.874-25.96 17.14-34.783 30.84-5.382 8.327-9.282 15.674-12.233 24.48-.49 1.957 0 4.41 0 6.367 0 .49.49.49.991.49 1.456-1.459 2.447-3.928 4.892-2.937 4.894 1.957 7.34 6.367 8.808 11.27.473 3.418.98 6.352 1.467 9.286.977 12.242-.994 23.99-2.937 35.75-4.404 4.41-5.395 10.765-6.851 16.642-1.971 8.808-1.971 17.14 0 25.46.476 1.956 3.413-.49 5.381 0 3.914-24.48 22.035-41.618 33.778-62.662 5.381-9.791 7.353-21.058 4.908-31.824 11.743-3.922 23.5-6.37 34.265-14.203 14.204-10.276 19.588-25.465 20.078-41.612 1.467.49 3.424-.992 3.424-.49 4.405 24.48 10.293 48.958-2.444 71.48 0 .49 0 1.958.49 1.958 8.319-8.814 11.267-20.084 14.201-31.336 2.447-8.327 2.937-16.161 4.404-24.961 1.467-5.889 1.467-11.757 1.957-17.645.983-39.162-1.954-77.356-5.868-116.523"/><path fill="#fff" d="M395.302 354.025c-11.197 2.707-21.529 5.874-31.832 9.794-6.838 8.8-12.233 18.605-14.68 29.86 0 .49-.49 1.958.504 1.958 12.723-.983 25.443.98 38.165 0 20.075-15.167 40.655-29.86 60.716-45.045-3.413-2.452-7.342-.98-10.766-.98-14.2-.478-27.918.98-42.107 4.413M305.213 401.027c-5.97 5.263-10.766 10.765-16.147 16.642-4.419 6.376-8.823 11.757-13.238 18.113-9.789 15.175-16.637 29.379-22.035 46.03 0 1.467-.473 2.447-.473 3.928-4.405 12.23-5.872 24.953-7.353 37.69 0 .475.98.475 1.481.475 10.276-8.304 20.551-14.68 30.827-22.508 4.418-18.594 8.332-36.726 12.75-55.32 14.68-14.204 27.907-29.878 42.587-44.065-1.467-6.857 0-14.204-2.447-21.063-9.302 5.384-17.62 12.73-25.952 20.078M341.437 566.993c-2.657-15.125-5.384-29.861-6.837-45.03-15.67-7.34-32.324-12.234-48.483-18.133-13.226 10.304-27.416 18.62-40.15 29.889-1.456.98-.966 3.914-.49 6.35.49 6.372 0 12.737.98 19.095 1.481 7.829 2.951 15.66 4.894 23.514 3.438 14.203 8.823 27.416 15.198 40.139.963 1.467 1.453 2.934 2.447 4.401 2.447 4.418 4.891 9.313 8.319 13.227 9.295-.49 19.095.98 28.393.98 13.227-16.634 25.947-33.778 39.66-49.939-1.486-8.33-2.45-16.158-3.93-24.493M349.294 568.964c1.285 7.369 1.943 14.19 3.41 21.055 24.97 11.255 48.959 23.012 74.416 33.288 20.568-20.078 42.124-39.174 63.165-58.745-1.943-24.97-3.914-49.462-5.871-74.432-.49-.98-1.958-1.957-2.937-2.433-27.92-11.267-54.847-23.99-82.751-34.774-19.098 22.527-38.67 44.56-57.767 67.575 3.413 16.158 5.384 31.818 8.335 48.466M314.511 660.523c-3.382-4.418-6.347-8.809-9.296-13.227-7.842-1.456-15.183-.476-23.012-1.456-.49 0-.49.476-.49.98 44.555 62.183 120.44 89.095 191.434 74.401-11.256-8.808-23.488-15.18-35.735-23.978-.98-.504-2.937 0-3.914.49-13.714 6.852-27.417 12.233-41.13 19.098-16.652-6.375-33.288-13.226-50.427-19.098-10.782-11.264-17.63-24.49-27.43-37.21M439.856 621.854c-3.06 2.797-5.871 5.367-8.808 8.304 1.957 20.075 5.86 39.663 7.831 59.752 13.711 10.276 28.88 19.096 43.087 28.884 19.586-2.951 37.693-11.743 55.335-21.545 17.126-9.8 31.328-22.536 44.54-36.723-5.871-21.546-10.275-43.567-16.16-65.599-23.99-8.332-47.968-15.184-71.958-23.026-18.118 16.65-35.256 32.812-53.867 49.953M603.4 511.185c-12.137 24.242-18.622 49.953-28.41 75.412-.98 2.433-1.481 4.892-.98 7.829a1469 1469 0 0 0 10.765 44.554c1.482 4.405.49 9.803 3.929 13.7 11.255-15.657 21.542-31.818 28.38-49.922 3.438-9.802 6.375-19.602 8.819-29.891 1.481-6.835 1.971-13.213 2.447-19.571.98-15.66 1.971-31.821-1.957-47.492-6.849 0-13.21-.966-20.075.49-1.955 0-1.955 2.931-2.918 4.891M600.463 496.995c1.51 1.412 2.447 2.445 3.9 2.935 6.866 2.447 13.714.49 20.582.49-2.937-22.033-12.75-43.088-24.983-63.163-14.19-23.006-32.308-40.643-54.343-55.337-4.905 1.481-9.31 4.41-13.714 6.866 2.445 18.118 5.872 36.717 8.333 54.844 20.06 17.62 40.136 34.757 60.225 53.365M513.784 460.27c7.51-6.18 14.694-11.256 21.543-17.631-4.402-17.623-5.858-35.735-11.256-52.868-25.46-9.808-49.936-20.573-75.41-30.849-17.616 14.198-35.734 26.926-53.365 40.643 1.957 14.686 3.914 29.86 6.361 44.55 20.076 9.3 40.64 17.619 61.206 25.94 8.822 3.441 16.65 8.82 25.95 10.29 8.32-6.849 16.656-13.227 24.971-20.076M73.307 354.479c-9.254-5.835-14.817-12.832-16.693-20.969-1.635-7.072-.35-13.938 3.858-20.613 5.633-8.92 12.695-13.599 21.153-14.016 4.726-.196 8.78.655 12.205 2.579l-7.003 11.08c-2.993-.886-5.493-1.174-7.506-.874-3.565.557-6.6 2.816-9.103 6.786-2.559 4.021-2.934 8.227-1.145 12.611q2.663 6.571 11.575 12.196c5.955 3.77 11.185 5.357 15.699 4.769 4.516-.588 7.968-2.775 10.373-6.572 2.447-3.88 3.047-7.649 1.79-11.297-.644-1.99-2.112-4.222-4.363-6.684l6.922-10.98c5.171 4.608 8.318 10.037 9.45 16.258q1.696 9.363-4.153 18.6c-4.807 7.627-11.057 12.081-18.692 13.36q-11.512 1.89-24.367-6.234M144.02 304.347l-8.08 10.163-49.088-39.047 8.084-10.15 18.703 14.89 15.268-19.19-18.72-14.887 8.11-10.192 49.1 39.053-8.126 10.178-21.906-17.421-15.254 19.182zM183.32 258.079l-5.914-12.256 16.525-16.163 11.91 6.403 10.164-9.954-59.738-29.3-10.597 10.365 27.864 60.486zm.445-33.582-11.379 11.138-11.477-23.307zM239.77 191.942l-19.125-46.847 15.419-10.85 36.099 51.294-9.996 7.033-24.41-34.707c-.71-.985-1.676-2.402-2.908-4.208-1.243-1.814-2.21-3.22-2.91-4.192l20.594 49.872-10.402 7.333-39.943-36.264c.686.98 1.677 2.363 2.965 4.135a479 479 0 0 1 2.99 4.166l24.424 34.705-9.996 7.01-36.099-51.276 15.587-10.984zM304.247 107.677c-6.306-2.565-13.56-2.05-21.78 1.56-8.193 3.606-13.49 8.59-15.868 14.96-3.508 7.836-2.95 16.992 1.664 27.52 4.516 10.317 10.891 16.95 19.126 19.865 6.288 2.567 13.531 2.05 21.752-1.546 8.206-3.606 13.506-8.59 15.895-14.96 3.37-8.03 2.81-17.196-1.705-27.511-4.626-10.528-10.973-17.155-19.084-19.888m-13.252 51.907c-4.376-2.256-7.983-6.624-10.808-13.1-2.839-6.465-3.606-12.076-2.307-16.82 1.288-4.75 4.306-8.178 9.058-10.267 4.754-2.074 9.312-1.97 13.646.314q6.502 3.46 10.738 13.115c2.836 6.473 3.634 12.073 2.377 16.81-1.257 4.73-4.25 8.131-9.018 10.22-4.752 2.091-9.31 2.01-13.686-.272M342.149 90.769l16.343 60.556-12.57 3.396-16.356-60.556zM366.194 128.794l12.415-1.546c.739 2.789 1.789 4.825 3.116 6.082q3.629 3.461 11.323 2.489c3.063-.384 5.521-1.028 7.355-1.94 3.466-1.75 4.992-4.382 4.544-7.907-.266-2.042-1.34-3.523-3.298-4.419q-2.895-1.31-8.85-1.864l-6.768-.656c-6.655-.657-11.34-1.688-14.022-3.105-4.558-2.349-7.2-6.57-7.968-12.686-.697-5.577.767-10.463 4.362-14.643 3.592-4.192 9.31-6.787 17.152-7.756 6.572-.817 12.387.23 17.446 3.125 5.063 2.898 8.109 7.652 9.173 14.237l-12.499 1.546c-.7-3.705-2.657-6.166-5.9-7.367-2.166-.79-4.74-.994-7.76-.616-3.355.409-5.942 1.425-7.759 3.018q-2.747 2.399-2.307 6.026c.291 2.237 1.481 3.768 3.578 4.625 1.355.574 4.166 1.084 8.43 1.56L399 108.24c4.853.546 8.57 1.601 11.214 3.197 4.082 2.459 6.46 6.477 7.16 12.023.696 5.681-.897 10.679-4.769 14.974-3.886 4.292-9.8 6.946-17.726 7.932-8.123 1-14.722-.042-19.826-3.18-5.113-3.123-8.061-7.919-8.859-14.392M500.95 145.627l10.64-61.813 13.548 2.335 17.197 47.385 7.422-43.163 12.037 2.075-10.64 61.813-12.915-2.215-17.687-48.259-7.563 43.903zM593.657 101.666l-17.66 60.186-12.498-3.67 17.673-60.178zM657.054 133.218c-2.25-6.418-7.45-11.497-15.6-15.246-8.137-3.738-15.377-4.379-21.725-1.934-8.195 2.581-14.68 9.08-19.476 19.512-4.712 10.24-5.437 19.403-2.15 27.49 2.251 6.411 7.464 11.49 15.615 15.245 8.136 3.746 15.39 4.39 21.727 1.929 8.246-2.789 14.722-9.29 19.431-19.527 4.81-10.435 5.536-19.596 2.178-27.47m-47.586 24.566c-1.204-4.782-.336-10.365 2.615-16.791 2.95-6.417 6.624-10.724 11.042-12.896 4.405-2.193 8.977-2.193 13.7-.037 4.698 2.181 7.633 5.645 8.809 10.41 1.159 4.768.28 10.351-2.671 16.735-2.951 6.418-6.61 10.738-10.99 12.933-4.362 2.215-8.918 2.229-13.616.056-4.723-2.164-7.674-5.645-8.89-10.41M688.567 145.487l-38.347 49.63 10.136 7.829 15.043-19.465 10.707 8.274c3.05 2.366 4.726 4.497 5.034 6.412.28 1.91-.767 4.474-3.175 7.674l-3.494 4.654c-1.092 1.49-2.055 3.02-2.85 4.62-.392.775-.854 1.839-1.397 3.18l11.42 8.822.966-1.251c-.52-1.37-.42-2.803.305-4.276.434-.946 1.54-2.567 3.287-4.824l2.574-3.334c2.682-3.48 4.208-6.446 4.569-8.862q.545-3.65-1.842-7.691c3.48 1.176 6.683 1.078 9.628-.286 2.952-1.355 5.343-3.209 7.16-5.572 1.509-1.957 2.53-3.934 3.09-5.955.547-2 .785-4.046.659-6.137-.112-2.529-.812-4.923-2.083-7.16-1.257-2.237-3.607-4.726-7.034-7.487zm19.91 30.535c1.204 2.579.641 5.368-1.68 8.372-2.167 2.797-4.625 3.853-7.422 3.197-1.577-.358-3.55-1.447-5.872-3.236l-11.756-9.086 10.303-13.333 12.054 9.304c2.234 1.733 3.701 3.335 4.373 4.782M742.434 189.691l33.621 38.112-8.33 7.342-12.414-14.075-38.711 34.164-8.725-9.892 38.711-34.162-12.47-14.128zM739.19 284.347l13.184-3.39 12.596 19.369-8.612 10.424 7.758 11.925 40.473-52.823-8.08-12.417-64.787 15.435zm32.842 7.02-8.669-13.334 25.096-6.683zM829.236 312.441l-55.04 30.07-6.247-11.423 55.055-30.076zM797.418 344.517l5.494 11.241c-2.403 1.616-3.999 3.25-4.752 4.922-1.383 3.055-.966 6.885 1.3 11.527 1.371 2.775 2.768 4.878 4.224 6.325 2.78 2.722 5.76 3.293 8.946 1.734q2.792-1.35 3.13-4.55c.196-2.12-.182-5.11-1.106-8.974l-1.576-6.613c-1.54-6.516-2.07-11.267-1.607-14.274.756-5.07 3.886-8.948 9.421-11.64 5.063-2.466 10.136-2.676 15.28-.638 5.118 2.036 9.421 6.62 12.89 13.728 2.892 5.942 3.8 11.788 2.696 17.51-1.106 5.727-4.614 10.167-10.5 13.289l-5.52-11.323c3.298-1.859 4.975-4.508 5.076-7.963.042-2.284-.616-4.81-1.943-7.526-1.468-3.035-3.257-5.174-5.368-6.375-2.11-1.218-4.264-1.285-6.462-.224-2.013.988-3.074 2.601-3.2 4.88-.098 1.473.319 4.29 1.243 8.484l2.402 10.858c1.064 4.751 1.257 8.632.616 11.622-1.005 4.67-4.04 8.22-9.057 10.668-5.147 2.52-10.374 2.632-15.7.358-5.325-2.293-9.757-7.033-13.251-14.218-3.578-7.341-4.712-13.93-3.427-19.77 1.302-5.843 4.894-10.205 10.751-13.058"/></svg>