<svg xmlns="http://www.w3.org/2000/svg" xml:space="preserve" viewBox="0 0 660 660"><path d="M333.413 19.423c172.95 0 314.006 141.058 314.006 314.009 0 172.947-141.056 314.005-314.006 314.005-172.951 0-314.007-141.058-314.007-314.005 0-172.952 141.056-314.009 314.007-314.009" style="fill:#fff"/><path d="M425.986 258.146 309.865 276.95l16.076 32.46 87.602-14.185-15.267 42.611-53.933 8.734 29.48 59.526-19.307 53.899-111.38-211.992 164.657-29.818 18.193 39.961z" style="fill:#ee3124;stroke:#ee3124;stroke-width:1.1115;stroke-miterlimit:1"/><path d="m409.677 261.15-116.12 18.753 16.076 32.377 87.603-14.147-15.268 42.5-53.932 8.711 29.483 59.375-19.311 53.759L226.83 251.031l164.655-29.739 18.192 39.858z" style="fill:#fff;stroke:#ee3124;stroke-width:1.1115;stroke-miterlimit:1"/><path d="m389.656 264.358-116.119 18.803 16.074 32.459 87.601-14.185-15.264 42.612-53.934 8.733 29.482 59.526-19.308 53.898-111.379-211.993 164.657-29.815 18.19 39.962z" style="fill:#025ba5;stroke:#025ba5;stroke-width:1.1115;stroke-miterlimit:1"/><path d="M221.517 348.933c31.544 0 57.273 25.942 57.273 57.751s-25.729 57.749-57.273 57.749-57.272-25.941-57.272-57.749 25.727-57.751 57.272-57.751z" style="fill:#fff;stroke:#000;stroke-width:.6947;stroke-miterlimit:1"/><path d="M165.375 418.103a58.15 58.15 0 0 1 .519-25.166l1.68-3.371 8.319-4.453 7.488 19.482-8.598 16.699zM260.094 364.063c8.181 7.539 14.195 17.431 16.978 28.589l-9.432 8.137-14.366-12.056-2.772-18.647.06-.083zM200.3 405.986l11.649 20.596 23.149-5.134 2.313-25.537-19.082-10.52z"/><path d="m295.261 158.994 178.246 63.908 34.175-25.33-109.9-15.978 25.629-19.483zM282.111 157.75c5.2 2.208 8.838 7.149 8.838 12.868 0 7.763-6.705 14.096-14.927 14.096-3.998 0-7.637-1.5-10.32-3.93 8.797-1.735 15.443-5.884 17.579-11.866 1.29-3.607.785-7.448-1.17-11.168M306.705 167.142c4.561 0 8.281 3.31 8.281 7.37 0 4.059-3.721 7.37-8.281 7.37s-8.281-3.312-8.281-7.37c0-4.06 3.72-7.37 8.281-7.37M302.321 186.474c-.536 7.275-4.669 18.909-11.447 31.012a135 135 0 0 1-3.85 6.444 20.16 20.16 0 0 1-17.306 9.784c-11.058 0-20.079-8.896-20.079-19.8 0-10.89 8.997-19.775 20.037-19.798v-.271c14.567-.73 26.969-3.674 32.645-7.371" style="fill:#ee3124"/><path d="M243.137 92.335c9.325-3.446 12.499-12.785 7.834-25.413-4.663-12.628-13.221-17.857-22.544-14.413-9.326 3.444-12.693 12.857-7.957 25.678 4.664 12.63 13.342 17.594 22.667 14.148m19.683-29.79c3.732 10.102 3.689 18.949-.009 26.276-2.623 6.046-8.049 10.48-16.016 13.423-7.964 2.943-14.97 3.1-20.895.21-7.572-3.163-13.357-9.858-17.088-19.96-3.876-10.492-3.761-19.144-.063-26.471 2.623-6.046 8.052-10.48 16.016-13.423 7.964-2.941 14.97-3.1 20.896-.212 7.571 3.166 13.285 9.666 17.159 20.157M187.301 61.72l30.784 51.571-10.67 6.369-30.783-51.57zM131.85 99.692l39.051-29.047 6.303 8.475-14.291 10.631 29.541 39.714-10.136 7.54-29.54-39.715-14.624 10.877zM55.737 199.093l9.782 3.98-9.555 23.48 11.893 4.84 8.807-21.638 9.59 3.903-8.806 21.638 14.387 5.855 9.991-24.554 9.975 4.058-13.738 33.762-55.629-22.637zM83.284 172.586l-6.201 9.997 13.727 8.516 6.026-9.715c1.222-1.97 1.92-3.489 2.003-4.801q-.011-3.517-4.237-6.138-4.75-2.945-7.906-1.396c-1.052.519-2.278 1.708-3.412 3.537m-7.752-7.148c3.757-5.662 6.999-7.355 11.477-7.501 3.6-.302 7.466.535 11.513 3.047 4.752 2.949 8.897 8.052 8.039 13.76 4.206-2.46 8.159-2.152 15.374 2.322l3.343 2.075c2.288 1.418 3.873 2.401 4.84 2.807 1.583.591 2.725.714 3.954.308l1.23.763-5.851 9.434c-1.144-.514-2.374-.889-3.165-1.184-1.496-.733-2.992-1.464-4.577-2.449l-4.574-2.838c-6.599-3.896-9.232-3.581-12.377 1.488l-5.502 8.87 20.063 12.446-5.153 8.307-51.037-31.66zM43.282 270.892l-1.815 8.93 38.561 7.839 1.814-8.929c.959-4.708-1.222-8.533-6.745-11.516-2.846-1.592-6.604-2.864-10.867-3.731-11.974-2.435-19.101-1.685-20.948 7.407m-9.784-3.849q.889-4.384 2.702-7.059c2.082-2.958 5.044-5.06 9.126-6.43 6.546-2.05 13.847-1.579 20.139-.301 7.712 1.567 14.145 4.227 19.129 7.778 6.614 4.894 9.176 10.996 7.758 17.976l-4.126 20.296-58.855-11.965zM26.719 305.885l10.556.388-.933 25.331 12.833.475.858-23.346 10.348.381-.859 23.344 15.523.572.974-26.492 10.763.397-1.341 36.425-60.019-2.208zM90.826 378.689l-59.371 9.077-5.132-33.575 10.44-1.597 3.632 23.748 13.717-2.097-3.18-20.799 10.237-1.565 3.179 20.799 24.976-3.818zM280.296 91.158l-7.595-59.579 12.943-1.65 29.119 38.464-5.288-41.501 11.504-1.464 7.594 59.575-12.325 1.572-29.842-39.206 5.392 42.322zM377.257 90.671l14.21-58.355 33.001 8.035-2.5 10.263-23.341-5.684-3.283 13.483 20.444 4.978-2.45 10.059-20.444-4.976-5.977 24.549zM451.665 62.475l-10.74-4.807-6.597 14.745 10.436 4.671c2.115.948 3.713 1.436 5.025 1.342q3.483-.483 5.513-5.021 2.286-5.105.326-8.023c-.654-.973-1.999-2.027-3.963-2.907m6.045-8.641c6.114 2.964 8.226 5.951 8.972 10.37.782 3.526.466 7.47-1.478 11.817-2.285 5.104-6.789 9.897-12.56 9.81 3 3.838 3.228 7.798-.243 15.548l-1.606 3.591c-1.102 2.458-1.862 4.159-2.133 5.172-.376 1.648-.344 2.795.224 3.957l-.59 1.324-10.132-4.535c.356-1.202.561-2.473.747-3.295.527-1.58 1.05-3.16 1.814-4.861l2.201-4.914c2.978-7.063 2.312-9.63-3.135-12.067l-9.525-4.264-9.644 21.55-8.924-3.994 24.535-54.819zM497.887 149.627l43.707-41.194 8.948 9.496-13.963 46.174 30.442-28.692 7.954 8.44-43.708 41.193-8.52-9.044 14.139-47.196-31.043 29.262zM562.644 174.999c9.098-4.941 17.579-6.248 25.343-4.099q9.965 2.721 15.446 12.821c4.844 8.92 5.39 16.871 1.84 24.219-2.092 3.963-4.676 7.016-8.033 9.075l-6.028-11.101c2.25-1.93 3.661-4.109 4.343-5.892 1.278-3.287.788-6.791-1.386-10.797-4.349-8.008-13.752-9.265-25.583-2.843-11.827 6.425-14.869 15.145-10.719 22.79q3.113 5.731 8.564 6.661c2.052.301 4.547.123 7.671-.631l5.93 10.92c-12.455 4.406-25.109.201-31.038-10.719l-4.46-.406c1.152 1.258 1.632 1.705 2.026 2.433 2.077 3.824 1.458 7.457-2.184 9.434-4.366 2.371-9.271-.15-12.335-5.792-.691-1.273-1.116-2.927-1.641-4.764-.032-.926-.36-2.397-.504-3.969l3.782-.406c.246 1.754.559 2.761.574 3.224.509 1.374.821 2.383 1.215 3.11 1.484 2.73 3.632 3.213 5.088 2.422 2.004-1.086 1.659-3.022.768-4.659-.495-.91-1.17-1.721-2.227-2.796l.667-2.248 7.059.411c-3.064-5.642-3.366-11.841-.824-18.878q3.815-10.553 16.646-17.52M637.265 303.085l-59.692 6.639-1.372-12.35 59.692-6.639zM598.457 312.725l-.117 9.609c-2.9.131-4.979.77-6.232 1.582-2.506 1.626-3.779 4.429-3.831 8.404-.027 2.32.158 4.309.966 5.811 1.209 2.832 3.471 4.185 6.785 4.226 2.071.024 3.528-.621 4.787-1.93 1.054-1.479 1.91-3.623 2.773-6.596l1.511-5.116c1.509-4.953 3.002-8.415 4.681-10.217q4.409-4.916 13.105-4.812c10.77.129 18.767 6.688 18.621 18.783-.122 10.105-7.261 18.138-19.898 18.319l.116-9.61c3.525-.124 6.234-1.416 7.709-3.719 1.055-1.478 1.493-3.461 1.521-5.78.06-5.137-2.59-8.481-7.355-8.539-2.07-.026-3.733.619-4.788 2.097-.633.986-1.488 3.129-2.562 6.265l-2.584 8.252c-1.079 3.633-2.561 6.432-4.45 8.232-2.931 2.781-6.886 4.225-12.269 4.161-10.979-.134-18.966-7.355-18.817-19.615.147-12.429 7.696-19.96 20.328-19.807M632.428 397.536l-10.44-1.603 3.847-25.056-12.691-1.949-3.547 23.091-10.234-1.571 3.547-23.092-15.353-2.357-4.026 26.203-10.645-1.635 5.535-36.028 59.364 9.118zM498.979 93.747l-19.71 15.088 12.617 8.699zm-49.692 22.085 51.825-37.217 11.593 7.994-16.532 61.554-11.254-7.761 3.986-12.345-18.246-12.579-10.461 7.878zM613.535 253.372l-24.797-1.156 4.049 14.781zm-52.24-15.115 63.615 4.913 3.721 13.583-52.294 36.436-3.611-13.185 11.001-6.875-5.851-21.376-13.08-.712zM122.076 129.352l11.695 21.893 10.628-11.042zm13.747 52.613-28.336-57.169 9.767-10.145 58.066 26.28-9.48 9.848-11.536-5.93-15.369 15.966 6.079 11.599zM134.245 494.706l-5.781-7.046-30.422 24.958 5.779 7.045c3.049 3.713 7.39 4.438 13.191 2.036 3.032-1.203 6.39-3.313 9.752-6.07 9.447-7.751 13.365-13.75 7.481-20.923m9.161-5.161q2.838 3.46 3.768 6.554c.982 3.482.743 7.107-.775 11.138-2.542 6.371-7.515 11.738-12.479 15.808-6.083 4.991-12.209 8.303-18.107 9.927-7.972 2.039-14.322.175-18.84-5.333l-13.135-16.01 46.434-38.093zM188.13 532.499l-6.732 8.137-19.53-16.158-8.185 9.893 17.999 14.893-6.6 7.978-18-14.891-9.901 11.966 20.426 16.899-6.866 8.298-28.083-23.236 38.285-46.274zM206.117 611.917l22.433-55.713 31.506 12.688-3.945 9.797-22.284-8.973-5.184 12.87 19.52 7.862-3.868 9.605-19.518-7.859-9.439 23.439zM280.35 626.84c9.787 1.739 17.246-4.721 19.601-17.975s-2.385-22.09-12.174-23.829c-9.786-1.738-17.448 4.684-19.84 18.143-2.355 13.254 2.627 21.921 12.413 23.661m32.04-15.763c-1.884 10.604-6.392 18.213-13.284 22.669-5.318 3.895-12.244 4.978-20.602 3.49-8.36-1.485-14.486-4.887-18.141-10.375-4.936-6.553-6.544-15.253-4.659-25.857 1.957-11.013 6.428-18.419 13.319-22.875 5.32-3.892 12.242-4.976 20.604-3.491 8.358 1.484 14.486 4.889 18.138 10.375 4.936 6.556 6.582 15.051 4.625 26.064M352.889 630.97c9.931-.52 15.731-8.497 15.023-21.94-.709-13.447-7.327-20.979-17.254-20.456-9.928.525-15.936 8.515-15.216 22.163.707 13.442 7.523 20.757 17.447 20.233m27.637-22.607c.567 10.754-2.099 19.189-7.804 25.089-4.299 4.996-10.796 7.622-19.279 8.066-8.478.448-15.215-1.48-20.015-5.996-6.293-5.269-9.83-13.379-10.397-24.133-.587-11.168 2.091-19.398 7.794-25.296 4.301-4.997 10.798-7.62 19.276-8.067 8.48-.446 15.217 1.481 20.02 5.997 6.294 5.271 9.818 13.173 10.405 24.34M375.107 575.649l37.727-9.64 2.613 10.234-13.803 3.528 12.25 47.958-9.792 2.503-12.253-47.96-14.125 3.61zM436.961 566.893l-9.606 4.086 5.191 12.196 10.824-4.606c3.812-1.622 5.907-4.313 3.961-8.886-1.132-2.668-2.777-3.996-4.629-4.109-1.613.013-3.607.408-5.741 1.319m10.453 20.759-10.977 4.671 6.324 14.863 10.824-4.604c1.83-.779 3.193-1.807 4.017-2.833 1.415-2.178 1.509-4.92.048-8.35-1.216-2.86-2.942-4.374-5.409-4.673-1.309-.118-2.998.147-4.827.926m-11.457-31.587c5.336-2.27 10.039-1.795 13.949 1.045 2.344 1.702 4.323 4.238 5.702 7.477 1.458 3.43 1.83 6.421 1.35 9.102-.277 1.467-.937 2.874-2.057 4.476 5.465.15 9.698 3.75 12.374 10.04 1.46 3.43 2.066 6.548 1.83 9.801-.186 2.104-.532 3.829-1.338 5.744-1.609 3.836-5.248 6.285-9.822 8.229l-19.969 8.5-23.514-55.267zM477.372 548.17l6.781 23.879 12.729-8.535zm2.265 54.334-15.553-61.881 11.698-7.841 51.162 38.006-11.354 7.611-10.016-8.244-18.407 12.338 3.478 12.629zM535.65 562.251l-42.168-42.767 7.078-6.98 34.608 35.097 16.991-16.752 7.56 7.669zM565.329 531.11l-48.097-35.965 5.951-7.961 39.477 29.515 14.286-19.106 8.624 6.448zM221.517 348.933c2.138 0 4.247.123 6.322.352l2.739 8.745-16.71 8.383-21.493-1.509 1.479-8.758a56.5 56.5 0 0 1 27.663-7.213M212.356 463.689c-11.926-1.951-22.639-7.632-30.911-15.817l4.983-8 17.526 3.72 13.817 12.852zM273.578 430.711c-5.696 12.477-15.681 22.581-28.03 28.372l-6.205-5.009 7.076-17.583 18.872-12.177z"/></svg>