<?xml version="1.0" encoding="iso-8859-1"?>
<!-- Generator: Adobe Illustrator 24.0.1, SVG Export Plug-In . SVG Version: 6.00 Build 0)  -->
<svg version="1.1" id="Layer_1" xmlns="http://www.w3.org/2000/svg" xmlns:xlink="http://www.w3.org/1999/xlink" x="0px" y="0px"
	 viewBox="0 0 612 792" style="enable-background:new 0 0 612 792;" xml:space="preserve">
<path d="M306.576,679.552c-15.696-17.712-30.816-38.88-52.776-48.816c-29.016-13.032-55.584-24.624-79.848-40.32
	c-24.48-15.912-46.152-35.784-64.656-65.16c-23.688-37.512-33.984-79.2-36.432-123.192c13.68-9.936,24.48-20.808,32.112-36.144
	c12.672-25.344,15.696-58.104,1.728-83.664c-9.288-16.92-24.048-27.144-39.888-37.296l73.368-132.336
	c54.216,18.72,109.008,29.52,166.392,29.52c57.384,0,112.176-10.8,166.392-29.52l73.368,132.336
	c-15.84,10.152-30.6,20.376-39.888,37.296c-13.968,25.56-10.944,58.32,1.728,83.664c7.632,15.336,18.432,26.208,32.112,36.144
	c-2.448,43.992-12.744,85.68-36.432,123.192c-18.504,29.376-40.176,49.248-64.656,65.16c-24.264,15.696-50.832,27.288-79.848,40.32
	C337.608,640.528,322.2,661.912,306.576,679.552z"/>
<path style="fill:#FFFFFF;" d="M306.576,670.624c-13.104-14.76-28.512-35.424-50.328-45.288
	c-57.672-25.92-105.984-46.08-141.984-103.248c-22.536-35.712-32.976-75.24-35.28-117.144c13.536-9.936,23.76-21.168,31.32-36.36
	c13.536-27.144,16.488-61.92,1.584-89.136c-8.856-16.272-21.96-26.712-37.224-36.504l68.256-123.048
	c109.008,37.584,218.304,37.584,327.312,0l68.256,123.048c-15.264,9.792-28.368,20.232-37.224,36.504
	c-14.904,27.216-11.952,61.992,1.584,89.136c7.56,15.192,17.784,26.424,31.32,36.36c-2.304,41.904-12.744,81.432-35.28,117.144
	c-36,57.168-84.312,77.328-141.984,103.248C336.024,634.768,321.192,654.136,306.576,670.624z"/>
<path d="M306.576,650.536c12.672-14.328,26.28-28.944,44.856-37.296c55.08-24.84,101.736-43.56,136.224-98.208
	c19.008-30.312,30.096-65.664,32.76-103.752c-12.672-10.08-22.464-22.68-29.52-36.792c-15.48-31.104-18.36-70.272-1.296-101.448
	c6.984-12.744,17.208-24.48,31.248-34.416l-56.88-102.528c-103.104,34.344-211.68,34.344-314.784,0l-56.88,102.528
	c14.04,9.936,24.264,21.672,31.248,34.416c17.064,31.176,14.184,70.344-1.296,101.448C115.2,388.6,105.408,401.2,92.736,411.28
	c2.664,38.088,13.752,73.44,32.76,103.752C159.984,569.68,206.64,588.4,261.72,613.24
	C280.296,621.592,293.904,636.208,306.576,650.536z"/>
<path style="fill:#FFFFFF;" d="M474.12,342.88c-4.536-24.624-1.872-50.472,10.224-72.648c7.2-13.032,17.136-24.192,28.8-33.264
	l-40.608-73.296L100.008,424.24c3.888,30.96,13.824,61.056,30.528,87.624c11.304,17.928,24.48,32.112,39.096,43.992L474.12,342.88z"
	/>
<polygon style="fill:#FFFFFF;" points="187.704,342.232 133.2,264.4 170.496,238.264 181.008,253.312 161.352,267.064 
	172.152,282.544 189.792,270.232 200.232,285.064 182.592,297.448 205.344,329.92 "/>
<path style="fill:#FFFFFF;" d="M210.888,284.92l17.424-12.24l4.392,6.336c1.872,2.664,3.672,4.248,5.544,4.896
	c1.8,0.648,3.672,0.288,5.616-1.08c1.8-1.296,2.808-2.808,3.024-4.752c0.216-1.944-0.288-3.816-1.584-5.688
	c-1.152-1.656-2.808-2.88-4.896-3.816c-2.16-0.936-4.824-1.512-7.92-1.656c-1.44-0.144-3.528-0.216-6.192-0.36
	c-8.784-0.432-15.048-1.008-18.864-1.728c-3.456-0.648-6.696-2.016-9.648-4.032c-2.952-2.016-5.544-4.68-7.848-7.92
	c-4.536-6.552-6.12-12.96-4.68-19.44c1.512-6.48,5.832-12.168,13.032-17.208c7.2-5.04,13.752-7.2,19.728-6.408
	c5.904,0.72,11.232,4.392,15.84,11.016l4.464,6.408l-16.632,11.664l-3.744-5.328c-1.728-2.52-3.456-4.032-5.184-4.608
	c-1.728-0.504-3.528-0.144-5.4,1.152c-1.512,1.08-2.448,2.52-2.664,4.248c-0.216,1.656,0.288,3.384,1.512,5.112
	c2.016,2.952,9.144,4.824,21.312,5.76l0.72,0.144l2.088,0.144c10.8,0.864,17.712,2.088,20.736,3.6
	c2.088,1.08,4.032,2.448,5.832,4.032c1.872,1.656,3.6,3.6,5.112,5.904c4.752,6.696,6.336,13.392,4.752,20.016
	c-1.512,6.696-6.048,12.6-13.536,17.856c-7.416,5.256-14.4,7.272-20.952,6.192c-6.48-1.008-12.24-5.184-17.28-12.384L210.888,284.92
	z"/>
<path style="fill:#FFFFFF;" d="M315.216,218.536c5.544,7.992,7.848,15.336,6.84,22.104c-1.08,6.768-5.4,12.816-13.176,18.216
	c-7.56,5.328-14.76,7.416-21.528,6.048c-6.696-1.296-12.888-5.904-18.432-13.896l-22.464-32.04
	c-5.544-7.92-7.776-15.264-6.696-22.032c1.08-6.768,5.4-12.816,13.104-18.216c7.776-5.4,14.976-7.488,21.6-6.192
	c6.624,1.296,12.744,5.976,18.36,14.04l4.248,5.976L279.288,205l-6.264-8.856c-1.728-2.52-3.456-4.032-5.112-4.608
	c-1.728-0.504-3.528-0.144-5.4,1.152c-1.8,1.296-2.736,2.808-2.808,4.608c-0.072,1.728,0.792,3.888,2.592,6.408l26.424,37.728
	c1.8,2.52,3.456,4.032,5.112,4.608c1.656,0.504,3.456,0.144,5.328-1.152c1.872-1.368,2.808-2.88,2.88-4.608
	c0.072-1.729-0.792-3.888-2.592-6.408l-7.488-10.656l17.784-12.456L315.216,218.536z"/>
<polygon points="157.68,514.528 119.52,460.096 131.904,451.456 162.576,495.232 176.04,485.8 183.528,496.528 "/>
<path d="M172.584,444.184l18.504,26.424c1.224,1.728,2.448,2.808,3.6,3.168c1.152,0.432,2.376,0.144,3.672-0.792
	c1.368-0.936,2.016-2.016,2.016-3.168c0.072-1.224-0.504-2.736-1.8-4.536l-18.504-26.424c-1.224-1.728-2.448-2.808-3.6-3.24
	c-1.152-0.36-2.376-0.072-3.744,0.864c-1.296,0.864-1.944,1.944-1.944,3.168C170.712,440.872,171.36,442.384,172.584,444.184
	L172.584,444.184z M161.496,454.912c-3.888-5.616-5.472-10.728-4.752-15.48c0.792-4.752,3.888-9,9.216-12.744
	c5.472-3.816,10.512-5.256,15.12-4.32c4.68,0.864,8.928,4.176,12.888,9.792l15.696,22.392c3.888,5.616,5.544,10.728,4.824,15.48
	c-0.792,4.752-3.816,8.928-9.216,12.744c-5.4,3.744-10.44,5.184-15.12,4.248c-4.752-0.936-9.072-4.176-12.96-9.72L161.496,454.912z"
	/>
<polygon points="228.672,465.568 190.512,411.064 202.824,402.424 216.936,422.584 224.136,417.472 210.024,397.384 
	222.408,388.816 260.568,443.248 248.184,451.888 231.552,428.128 224.352,433.168 240.984,456.928 "/>
<polygon points="268.128,437.272 229.968,382.912 256.032,364.624 263.448,375.136 249.696,384.784 257.256,395.656 
	269.568,387.016 276.84,397.312 264.528,405.952 280.44,428.704 "/>
<polygon points="300.168,414.88 262.008,360.448 289.656,341.152 297,351.664 281.736,362.392 289.296,373.192 302.76,363.76 
	310.032,374.2 296.64,383.56 305.136,395.8 320.76,384.784 328.176,395.296 "/>
<polygon points="334.656,390.832 296.568,336.4 308.88,327.76 339.552,371.536 352.944,362.104 360.432,372.832 "/>
<path d="M348.192,314.368l-1.584,1.08l25.128,35.856l1.512-1.08c2.376-1.656,3.744-3.096,3.888-4.32
	c0.216-1.152-0.36-2.736-1.8-4.752l-17.928-25.632c-1.44-2.016-2.736-3.096-3.888-3.312
	C352.368,311.92,350.568,312.712,348.192,314.368L348.192,314.368z M327.744,314.8l15.264-10.727
	c6.624-4.608,11.736-6.624,15.552-6.12c3.744,0.504,7.632,3.6,11.52,9.144l17.568,25.056c2.088,3.024,3.384,5.616,3.96,7.92
	c0.504,2.232,0.432,4.608-0.216,6.984c-0.576,2.016-1.656,3.888-3.312,5.688c-1.584,1.8-4.608,4.248-9.072,7.416l-1.8,1.224
	l-11.304,7.848L327.744,314.8z"/>
<polygon points="405.72,341.872 367.56,287.368 395.136,268.072 402.552,278.584 387.288,289.24 394.848,300.112 408.312,290.68 
	415.584,301.048 402.12,310.48 410.688,322.72 426.384,311.704 433.8,322.216 "/>
<path d="M439.416,317.752l-38.16-54.504l13.824-9.648l21.888,17.64c2.448,1.944,4.896,3.96,7.344,6.048
	c2.448,2.16,5.04,4.464,7.704,6.912c-2.232-2.448-4.464-5.04-6.552-7.632c-2.088-2.592-4.392-5.688-6.84-9.288l-14.184-20.232
	l11.952-8.352l38.16,54.504l-13.32,9.288l-23.472-18.432c-2.448-1.944-4.968-4.032-7.416-6.192c-2.448-2.16-4.968-4.464-7.488-6.984
	c3.168,3.816,6.12,7.488,8.856,10.944c2.736,3.456,5.184,6.768,7.344,9.864L451.44,309.4L439.416,317.752z"/>
<path style="fill:#FFFFFF;" d="M307.944,604.96L267.408,547c-2.232,1.944-4.464,3.888-6.912,5.616l-8.928-11.88
	c3.672-3.96,5.4-9,4.896-14.4l14.544-10.224l53.856,76.968L307.944,604.96z"/>
<path style="fill:#FFFFFF;" d="M344.808,551.464l1.08,1.512c1.152,1.656,2.376,2.592,3.672,2.88c1.224,0.288,2.592-0.072,3.96-1.08
	c1.44-1.008,2.232-2.16,2.376-3.384c0.144-1.296-0.432-2.808-1.584-4.464l-6.984-9.72c-0.648,2.232-1.656,4.32-3.024,6.192
	c-1.368,1.872-3.096,3.528-5.112,4.968c-4.968,3.6-9.792,4.896-14.472,3.816c-4.608-1.008-8.928-4.32-12.888-9.864l-12.168-17.136
	c-4.824-6.624-6.552-12.888-5.328-18.72c1.296-5.904,5.544-11.448,12.744-16.632c7.272-5.184,13.896-7.416,19.872-6.696
	c5.904,0.648,11.304,4.392,16.056,11.016l27.504,38.448c4.752,6.696,6.552,12.96,5.256,18.792
	c-1.224,5.904-5.544,11.376-12.816,16.632c-6.984,5.04-13.536,7.272-19.512,6.696c-6.048-0.504-11.16-3.744-15.48-9.792l-0.72-0.936
	L344.808,551.464L344.808,551.464z M315,510.496l14.184,19.8c1.224,1.728,2.52,2.736,3.888,3.024c1.368,0.36,2.808,0,4.32-1.08
	c1.512-1.152,2.376-2.376,2.52-3.744c0.144-1.296-0.432-2.88-1.728-4.608l-14.112-19.872c-1.296-1.728-2.592-2.736-3.888-3.024
	c-1.296-0.36-2.736,0.072-4.248,1.152c-1.584,1.152-2.448,2.304-2.592,3.672C313.2,507.112,313.776,508.696,315,510.496z"/>
<path style="fill:#FFFFFF;" d="M393.768,544.912l-1.44-2.16c-4.392-6.264-7.344-12.168-8.928-17.784
	c-1.584-5.616-2.016-11.664-1.296-18c0.36-3.672,1.296-8.712,2.736-14.976c2.448-10.728,2.232-18.144-0.576-22.248l-2.376-3.384
	c-1.296-1.944-2.664-3.096-3.96-3.528c-1.368-0.432-2.736-0.072-4.248,0.936c-1.728,1.224-2.592,2.808-2.52,4.68
	c0.072,1.944,1.08,4.248,2.952,6.984l4.248,6.192l-17.496,12.096l-4.536-6.624c-4.752-6.84-6.408-13.536-4.968-20.088
	c1.44-6.552,5.832-12.384,13.248-17.496c7.416-5.184,14.184-7.272,20.448-6.48c6.192,0.864,11.664,4.68,16.344,11.376
	c5.4,7.848,6.624,19.368,3.528,34.56l-0.432,2.448c-1.584,7.92-2.52,13.608-2.664,17.064c-0.216,3.528,0.072,6.336,0.936,8.568
	l27.864-19.296l10.08,14.616L393.768,544.912z"/>
<path style="fill:#FFFFFF;" d="M472.392,489.04l-10.44-14.976l-25.56,17.496l-9.792-14.184l-9.216-63l18.576-13.032l14.544,21.024
	l0,0l18.432,26.352l5.832-4.104l9.576,13.752l-5.832,4.032l10.512,14.976L472.392,489.04L472.392,489.04z M435.6,434.032
	l4.536,34.776l12.169-8.496L435.6,434.032z"/>
</svg>
