<svg xmlns="http://www.w3.org/2000/svg" xml:space="preserve" width="500" height="617.457" viewBox="0 0 500 617.457"><path d="m250 0-21.345 21.345H0v421.769c0 32.221 12.046 58.336 36.828 79.837 18.692 16.218 44.636 29.718 81.645 42.484 17.088 5.895 32.89 9.643 48.171 13.267 31.375 7.441 58.47 13.868 80.951 36.348l2.405 2.406 2.405-2.406c22.481-22.48 49.577-28.907 80.951-36.348 15.281-3.625 31.083-7.372 48.171-13.267 37.009-12.767 62.953-26.267 81.645-42.484C487.954 501.45 500 475.335 500 443.114V21.345H271.345z"/><path fill="#fff" d="M493.197 443.114c0 67.503-57.571 96.464-113.889 115.891-16.768 5.785-32.403 9.493-47.522 13.079-31.304 7.425-58.469 13.919-81.786 35.883-23.317-21.964-50.482-28.458-81.786-35.883-15.12-3.586-30.754-7.294-47.522-13.079C64.374 539.578 6.803 510.617 6.803 443.114V28.148h224.67L250 9.621l18.527 18.527h224.67z"/><path fill="#1caa59" d="M484.127 443.114c0 27.348-10.257 49.541-31.357 67.848-17.108 14.845-41.391 27.386-76.418 39.469-16.343 5.637-31.754 9.292-46.659 12.828-28.697 6.807-55.973 13.309-79.693 32.638-23.72-19.329-50.996-25.831-79.693-32.638-14.904-3.536-30.315-7.19-46.659-12.828-35.027-12.083-59.31-24.625-76.418-39.469-21.1-18.307-31.357-40.5-31.357-67.848V37.218H235.23L250 22.448l14.77 14.77h219.357z"/><path d="M250 285.801c-54.39 0-98.64 44.25-98.64 98.64S195.61 483.08 250 483.08s98.64-44.249 98.64-98.639-44.25-98.64-98.64-98.64"/><path fill="#fff" d="M341.837 384.44c0 7.295-.881 14.385-2.496 21.193h-16.867l-12.235-21.193 12.235-21.193h16.867a91.7 91.7 0 0 1 2.496 21.193M158.163 384.44c0-7.295.881-14.385 2.496-21.193h16.867l12.235 21.193-12.235 21.193h-16.867a91.7 91.7 0 0 1-2.496-21.193M304.348 430.228h-23.985l-12.236-21.193 12.236-21.193h23.985l12.235 21.193zM219.638 430.228h-23.986l-12.235-21.193 12.235-21.193h23.986l12.236 21.193zM195.652 338.653h23.986l12.236 21.193-12.236 21.193h-23.986l-12.235-21.193zM304.348 381.039h-23.985l-12.236-21.193 12.236-21.193h23.985l12.235 21.193zM304.348 331.851h-23.984l-12.236-21.193 8.193-14.19c13.747 4.121 26.141 11.38 36.363 20.944zM262.236 314.059l12.236 21.193-12.236 21.192h-24.472l-12.236-21.192 12.236-21.193zM219.638 331.851h-23.986l-8.336-14.439c10.222-9.565 22.617-16.825 36.364-20.945l8.193 14.191zM195.652 437.03h23.986l12.236 21.193-8.193 14.191c-13.748-4.121-26.143-11.38-36.364-20.945zM237.765 454.822l-12.236-21.193 12.236-21.193h24.472l12.236 21.193-12.236 21.193zM280.363 437.03h23.984l8.336 14.439c-10.222 9.565-22.616 16.824-36.363 20.945l-8.193-14.19zM50.027 277.589h6.307v14.491H41.467q-2.281-2.113-4.018-6.122t-1.736-8.121q0-5.225 2.452-9.108 2.452-3.886 7.012-5.838 4.56-1.954 9.92-1.954 5.818 0 10.339 2.181t6.936 6.385q1.854 3.202 1.854 7.975 0 6.202-2.909 9.69t-8.04 4.487l-1.382-6.661q2.742-.705 4.33-2.653 1.587-1.948 1.587-4.862 0-4.419-3.128-7.026c-3.128-2.607-5.18-2.607-9.283-2.607q-6.639 0-9.958 2.636c-3.319 2.636-3.319 4.061-3.319 6.909q0 2.113.927 4.239t2.249 3.648h4.726zM73.624 298.189v6.732H53.422q-4.81 0-6.233.249-2.29.43-3.677 2.051-1.386 1.62-1.386 4.429 0 2.854 1.311 4.306 1.31 1.45 3.218 1.744t6.335.295h20.634v6.731H54.045q-6.714 0-9.484-.544-2.772-.545-4.679-2.009-1.907-1.465-3.038-3.916-1.131-2.452-1.132-6.402 0-4.768 1.233-7.23t3.204-3.893q1.97-1.432 4.132-1.885 3.204-.658 9.459-.658zM36.351 340.513h15.688l21.585-12.206v7.877l-14.768 7.866 14.768 7.666v7.734l-21.637-12.206H36.351zM38.872 390.298l-.729-7.27 8.132-3.735-1.328-13.23-8.696-1.887-.711-7.089 38.373 9.17.708 7.067zm13.435-13.777 13.302-5.94-14.208-3.09zM40.842 397.851l35.405-11.635 2.04 6.208-19.394 20.704 23.644-7.77 1.948 5.928L49.08 422.92l-2.104-6.402 18.902-20.327-23.089 7.587zM68.716 458.979l-3.676-6.317 5.855-6.769-6.69-11.497-8.698 1.884-3.584-6.16 38.729-7.541 3.573 6.141zm6.522-18.107 9.647-10.917-14.213 3.07zM81.091 473.986l26.731-25.972 15.896 16.361-4.521 4.394-11.214-11.542-6.328 6.147 9.68 9.963-4.522 4.394-9.679-9.963-11.36 11.037zM113.232 480.573q3.342-4.611 6.84-6.849 2.59-1.64 5.507-2.32c2.917-.68 3.762-.519 5.451-.195q3.383.63 6.672 3.014 5.952 4.314 6.526 11.042.575 6.728-4.767 14.099-5.297 7.308-11.834 8.866-6.538 1.559-12.472-2.743-6.008-4.354-6.577-11.03-.569-6.679 4.654-13.884m5.752 3.855q-3.715 5.127-3.52 9.303t3.448 6.534c3.253 2.358 4.581 1.985 7.239 1.244q3.988-1.114 7.793-6.363 3.76-5.188 3.58-9.212c-.18-4.024-1.301-4.836-3.542-6.461q-3.363-2.436-7.292-1.344-3.931 1.09-7.706 6.299M142.831 501.528q2.45-5.139 5.486-7.971a17.8 17.8 0 0 1 4.995-3.277q2.745-1.196 5.326-1.177 3.44.008 7.107 1.756 6.636 3.165 8.421 9.677t-2.132 14.723q-3.885 8.143-10.032 10.858t-12.763-.442q-6.698-3.195-8.468-9.656-1.769-6.463 2.06-14.491m6.357 2.75q-2.724 5.713-1.775 9.784.95 4.07 4.576 5.8t7.345-.086q3.72-1.815 6.51-7.666 2.758-5.78 1.851-9.705-.906-3.925-4.655-5.713-3.748-1.787-7.416-.003t-6.436 7.589M179.012 536.704l8.847-29.668-9.46-2.821 1.801-6.041 25.334 7.554-1.801 6.041-9.438-2.813-8.847 29.668zM207.217 506.09l13.159 1.931q3.907.574 5.773 1.22c1.866.646 2.315 1.106 3.212 2.026q1.346 1.38 2.074 3.452c.728 2.072.611 2.869.377 4.462q-.38 2.591-1.944 4.571t-3.855 2.749q2.865 1.424 4.135 4.025t.801 5.796a12.2 12.2 0 0 1-1.762 4.74q-1.394 2.223-3.41 3.38-2.017 1.156-4.713 1.094-1.692-.044-8.054-.926l-11.206-1.644zm3.595 21.778-1.447 9.861 6.153.903q3.593.528 4.591.442a4.06 4.06 0 0 0 2.63-1.117q1.104-1.033 1.392-2.995.244-1.66-.305-2.922t-1.83-1.991q-1.281-.727-5.817-1.393zm2.152-14.665-1.251 8.528 4.356.64q3.885.57 4.846.582 1.74.025 2.877-.927 1.138-.95 1.4-2.737.25-1.71-.434-2.903-.687-1.193-2.314-1.663-.97-.27-5.663-.96zM268.075 547.205l-7.309.104-3.027-8.421-13.301.19-2.625 8.502-7.127.102 12.428-37.443 7.104-.101zm-12.581-14.564-4.783-13.76-4.297 13.89zM274.227 546.475l-5.334-36.575 6.647-.969 4.428 30.361 16.527-2.411.906 6.213zM304.671 541.403l-10.101-35.569 6.462-1.835 8.385 29.527 16.069-4.563 1.716 6.042zM346.337 527.312l-16.941-33.199 20.325-10.372 2.866 5.616-14.339 7.317 4.01 7.858 12.378-6.316 2.865 5.616-12.377 6.316 7.2 14.109zM373.813 512.613l-21.705-30.283 20.046-14.368 3.672 5.123-14.588 10.456 4.812 6.713 13.573-9.729 3.657 5.102-13.573 9.729 5.908 8.242 15.104-10.826 3.657 5.102zM374.624 465.978l8.608-8.761q2.913-2.963 4.947-4.019 2.742-1.411 5.964-1.173t6.534 1.964 7.047 5.396q3.282 3.224 4.94 6.287 2.025 3.742 2.198 7.156.134 2.583-1.188 5.453-.999 2.139-3.607 4.795l-8.862 9.019zm9.206-.375 17.605 17.299 3.517-3.579q1.973-2.008 2.594-3.148.82-1.486.795-3.021-.024-1.536-1.333-3.776t-4.39-5.27q-3.083-3.028-5.21-4.165-2.126-1.135-3.911-1.169-1.782-.034-3.43.99-1.24.753-4.121 3.686zM426.422 464.969l-30.916-20.805 13.769-20.46 5.23 3.52-10.019 14.889 6.854 4.612 9.322-13.854 5.208 3.505-9.322 13.854 8.415 5.662 10.374-15.416 5.209 3.505zM445.089 435.652l-34.391-14.337 5.441-13.052q2.052-4.923 3.909-6.769 1.857-1.844 4.785-2.197 2.929-.352 5.978.918 3.872 1.614 5.546 4.697 1.676 3.084.646 7.4 2.153-1.463 4.27-2.117t7.055-1.203l8.272-.953-3.092 7.417-9.353 1.364q-5.007.715-6.418 1.161-1.41.445-2.208 1.268-.798.822-1.688 2.959l-.524 1.257 14.357 5.985zm-17.262-14.475 1.913-4.588q1.861-4.462 1.901-5.749a3.7 3.7 0 0 0-.729-2.346q-.77-1.059-2.319-1.705-1.735-.724-3.148-.34-1.412.382-2.323 1.773-.432.705-2.003 4.476l-2.018 4.84zM463.844 370.992l-1.304 7.192-8.848 1.349-2.373 13.088 7.84 4.213-1.271 7.013-34.361-19.402 1.267-6.991zm-16.717 9.542-14.427 2.044 12.807 6.89zM463.586 360.277l-30.955-.566-.181 9.874-6.303-.115.484-26.443 6.303.115-.181 9.851 30.955.567zM463.649 339.229h-37.273v-6.732h37.273zM445.259 327.487q-5.69 0-9.552-1.521a17.8 17.8 0 0 1-5.106-3.098q-2.26-1.964-3.354-4.302-1.474-3.108-1.474-7.172 0-7.355 5.106-11.769 5.107-4.415 14.202-4.415 9.018 0 14.112 4.381t5.093 11.712q0 7.422-5.068 11.804c-5.068 4.382-8.03 4.38-13.959 4.38m-.254-6.909q6.333 0 9.601-2.618 3.27-2.617 3.269-6.646t-3.243-6.612-9.728-2.583q-6.408 0-9.563 2.515-3.153 2.515-3.153 6.681c0 4.166 1.064 5.015 3.191 6.715q3.192 2.548 9.626 2.548M463.649 289.958h-37.273v-6.532l24.928-13.664h-24.928v-6.236h37.273v6.737l-24.406 13.459h24.406zM95.087 57.227h309.825V265.76H95.087z"/><path fill="#1caa59" d="M99.623 61.762h300.755v199.463H99.623z"/><path fill="#bf2030" d="M99.623 70.67v181.646l136.945-90.822z"/><path fill="#fff" d="m99.608 261.225 287.338-99.731L99.608 61.762h13.432l287.337 99.732-287.337 99.731z"/><path fill="#e8e73c" d="M99.639 61.773 250 161.494 99.639 261.213l287.307-99.719z"/><path d="M99.623 61.762v8.908l136.945 90.824-136.945 90.822v8.909L250 161.494z"/></svg>