<svg enable-background="new 0 0 612 700.5" height="1000" viewBox="0 0 1000 1000" width="1000" xmlns="http://www.w3.org/2000/svg" xmlns:xlink="http://www.w3.org/1999/xlink"><defs><filter id="a" color-interpolation-filters="sRGB" height="1.043928" width="1.000146" x="-.000073" y="-.000013"><feGaussianBlur stdDeviation=".0026210408"/></filter><filter id="b" color-interpolation-filters="sRGB" height="1.00002" width="1.000146" x="-.000073" y="-.00001"><feGaussianBlur stdDeviation=".0026210408"/></filter><filter id="c" color-interpolation-filters="sRGB" height="1.000026" width="1.000145" x="-.000073" y="-.000013"><feGaussianBlur stdDeviation=".0026210408"/></filter><filter id="d" color-interpolation-filters="sRGB" height="1.043928" width="1.000146" x="-.000073" y="-.000013"><feGaussianBlur stdDeviation=".0026210408"/></filter></defs><g transform="matrix(1.0795455 0 0 1.0795455 -29.837933 -8.265806)"><g transform="matrix(1 0 0 .92631577 76.009445 40.329336)"><g><path clip-rule="evenodd" d="m -2.0543098 284.25727 v 26.65669 c .7989103 2.16926 1.09572767 26.14212 1.34954812 30.89397 c .53676784 10.00164 1.30377718 20.22242 2.39673078 29.92308 c 2.2205822 19.7009 4.7879137 38.13687 8.0584526 57.35926 c 11.1181683 65.34559 36.1728813 136.47079 65.7575273 195.66366 c 12.495456 24.99924 39.182661 68.96704 56.022201 90.64303 l 35.67217 45.67243 c 3.26361 4.18873 13.49271 14.66333 15.53575 17.34994 l 15.45809 16.99904 c 5.54382 5.39958 10.89902 10.85047 16.44007 16.45117 l 20.9284 19.52337 c 9.84906 7.70338 20.42492 17.60931 31.32255 26.01035 c 39.90529 30.76221 87.84546 59.07359 134.91875 77.52759 c 2.60339 1.02083 10.03908 3.46749 11.79363 4.79762 h 1.76704 c 1.93347 -1.55205 41.44763 -18.57328 44.99141 -20.18913 c 15.4775 -7.05843 29.21015 -14.41367 42.78885 -22.5498 c 14.0808 -8.4371 26.76627 -16.82011 39.49752 -25.84669 l 58.283 -47.94848 c 1.86412 -1.87245 2.44944 -2.46608 4.39539 -4.03339 c 1.36758 -1.10266 2.71436 -2.63668 4.032 -3.97652 c 1.55067 -1.57563 2.84335 -2.37593 4.46752 -3.97929 l 30.00352 -30.88981 l 46.57258 -56.10403 c 15.37487 -21.73008 25.20867 -35.93432 39.14245 -59.0833 c 53.92089 -89.58752 86.07842 -191.14483 96.45454 -296.16963 c 1.00558 -10.17362 1.69353 -20.03795 2.38425 -30.51255 c .1276 -1.95566 .63802 -29.78853 1.46189 -31.55834 v -28.5125 c -1.05827 -2.16371 -.94177 -24.84944 -1.23026 -29.47646 c -1.88077 -30.10893 -4.62564 -55.48265 -7.97246 -85.39463 c -1.54789 -13.83946 -9.91425 -78.673244 -17.69392 -90.844142 c -1.48131 -2.317672 -4.65754 -7.339989 -6.43428 -9.109797 l -24.25303 9.030738 c -24.8425 9.205499 -49.41454 19.327803 -75.55527 24.861921 c -38.65977 8.18467 -83.1158 8.55361 -122.74369 1.969536 c -27.90638 -4.635344 -62.27062 -14.96015 -85.06175 -31.805229 L 466.91712 47.824209 c -1.36065 -1.355096 -2.44944 -2.864149 -4.04726 -4.395393 c -13.40117 -12.843592 -29.63597 -29.513909 -40.1175 -43.88597229 c -2.34264 -3.21089801 -4.99042 -6.52720791 -7.1153 -9.81439071 h -.37171 l -7.48701 9.43851452 C 405.2221 2.162881 401.21784 7.738609 398.41056 10.695687 l -51.56023 50.655904 c -.9917 .861325 -1.42722 1.061053 -2.43834 2.009759 c -1.51044 1.420285 -3.02226 2.534043 -4.67002 3.765697 C 317.13392 84.005413 280.46311 94.812894 252.8799 99.789439 C 211.02865 107.33748 169.70169 105.26669 129.63967 96.235953 C 111.76128 92.206726 94.379431 85.977723 77.563479 80.338193 C 69.317782 77.573908 60.89871 74.34914 52.224431 71.460025 C 47.977446 70.045288 29.068516 63.638749 26.008801 63.55969 C 24.624578 72.257548 22.449766 80.96789 20.84085 89.567271 C 15.799116 116.50969 11.258087 142.19826 7.4812946 169.58451 c -4.1887309 30.37247 -6.3857342 54.61856 -8.33169097 84.93831 c -.28572133 4.3954 -.43829103 27.97296 -1.20391343 29.73445 z" fill="#e00914" fill-rule="evenodd" stroke-width="1.387"/><path clip-rule="evenodd" d="m 202.3627 117.69557 c -57.96677 .0485 -95.71389 -12.5121 -147.041105 -31.088151 c -4.334365 -1.568693 -14.872769 -5.652012 -19.112819 -6.213746 c -.811393 7.324731 -3.244186 16.736893 -4.628409 24.280767 c -1.531244 8.35527 -3.019492 16.53162 -4.441164 24.92018 c -8.455134 49.84728 -15.7868 108.66705 -15.7868 158.87079 c 0 52.36469 2.366217 83.02287 11.012756 135.18783 c 7.800472 47.05665 25.511036 104.43255 43.655731 148.35597 c 6.348285 15.37209 12.924038 29.54026 20.05459 43.94978 c 7.075071 14.29161 14.94628 28.19348 22.79807 41.21322 c 11.49266 19.05596 25.10742 40.42126 38.77073 57.23305 c 12.49129 15.3707 23.89795 32.12285 37.40176 46.59339 c .76285 .81694 1.07492 1.38145 1.78784 2.2289 l 7.63403 8.36082 c 1.25662 1.59505 2.53959 2.53959 3.82256 4.17625 c 8.02378 10.23465 44.51151 45.3437 57.10128 54.90289 l 17.51639 14.47747 c 39.23121 30.34888 85.58881 58.12905 131.53308 76.45405 c 2.05276 .81972 3.72964 1.44248 5.73801 2.26358 c 2.7629 1.12902 3.25112 1.89325 5.89474 .73233 c 7.39269 -3.24973 14.5815 -6.68255 22.06296 -9.97112 c 24.74819 -10.87544 40.13137 -17.62873 63.57855 -32.40441 c 6.56882 -4.14018 13.31517 -8.14444 19.49563 -12.50794 c 14.35681 -10.13617 22.934 -16.1488 36.822 -27.18375 c 9.17082 -7.28867 13.49548 -11.36783 21.57613 -18.41516 l 8.68814 -7.32473 c 1.5687 -1.74346 2.47579 -2.49521 4.12216 -3.87388 l 51.28699 -52.7156 l 25.51242 -30.49035 c 9.42187 -11.24023 18.3153 -24.30019 27.17405 -37.27693 c 32.79554 -48.04697 63.46343 -107.19129 84.40847 -171.60343 c 21.75228 -66.88655 35.63612 -145.21998 35.63612 -220.80299 c 0 -47.02752 -2.51463 -75.4998 -7.59936 -122.20276 c -1.86274 -17.10722 -4.01813 -34.26299 -6.64372 -51.1039 c -1.74761 -11.21249 -6.36493 -38.694447 -10.53979 -47.081618 c -5.10415 1.416124 -29.21848 10.851865 -35.86219 13.413648 c -43.66267 16.84092 -77.6011 24.17675 -126.37346 24.24055 c -45.84857 .0583 -96.05509 -9.16389 -131.4887 -28.461181 c -10.78252 -5.872546 -21.52897 -12.867172 -28.95356 -20.836856 c -1.835 -1.970923 -3.16513 -2.653326 -5.33162 -4.886391 c -3.29967 -3.406464 -5.25256 -4.707468 -10.07653 -9.935059 c -3.28857 -3.564583 -6.47867 -6.66036 -9.87403 -10.127852 L 433.64306 33.099849 C 429.30453 28.507502 418.29455 16.361569 415.14329 11.681841 L 376.4225 52.270922 c -1.74068 1.730972 -3.15542 3.14987 -4.94049 4.836458 C 360.08228 67.876025 345.48414 80.924893 331.94012 87.797463 C 295.451 106.30832 249.32087 117.65535 202.3627 117.69557 Z" fill="#fff" fill-rule="evenodd" stroke-width="1.387"/></g><path d="m 460.48986 225.97405 h -85.9043 l -.082 600.85742 c 5.76298 3.82949 13.64767 7.44926 20.49805 10.37305 c 2.89466 1.2372 20.65861 8.89772 22.16211 9.01562 c 1.67964 .13037 39.5738 -17.04499 43.47265 -19.06445 z" fill="#e00914" filter="url(#b)" stroke-width="1.387" transform="matrix(1.1608403 0 0 .99999843 -68.452015 84.227524)"/><path d="m 689.86328 318.41797 h -86.08789 l .0488 491.32617 c .79614 -.87797 1.63112 -1.32295 2.77539 -2.30078 l 14.54687 -12.48047 c 7.76441 -6.3788 21.34664 -19.26469 28.20118 -25.89453 c 1.73929 -1.68104 3.5496 -4.06568 5.16406 -5.56641 c 1.00419 -.93484 1.8217 -1.3927 2.77734 -2.36914 c 1.02361 -1.04441 1.68136 -1.83681 2.68555 -2.89648 c 1.86135 -1.96676 3.34868 -3.55178 5.15039 -5.58789 c 2.53959 -2.87109 7.03285 -6.97802 10.36719 -11.10156 c 2.75596 -3.40924 5.71421 -6.17779 9.86133 -11.58985 c .56451 -.73788 4.33755 -5.56162 5.04492 -5.74609 c -.77256 -1.33152 -.55767 -3.03357 -.54102 -4.58008 c .018 -1.57285 .006 -3.14981 .006 -4.72266 z" fill="#e00914" filter="url(#c)" stroke-width="1.387"/><path d="m 231.80078 318.41797 h -86.0625 l .0312 406.60937 c 1.05273 1.91267 3.28386 3.99141 4.7832 5.76954 c 1.60337 1.90156 3.14312 3.89937 5.00586 5.73437 l 10.13477 11.31641 c 5.16517 6.07782 31.48133 41.97079 36.68673 46.38698 l 29.88631 36.56621 z" fill="#e00914" filter="url(#a)" stroke-width="1.387" transform="matrix(1.1614724 0 0 .99999801 -23.532217 .001123)"/><path d="m 231.80078 318.41797 h -86.0625 l .0312 406.60937 c 1.05273 1.91267 3.28386 3.99141 4.7832 5.76954 c 1.60337 1.90156 3.14312 3.89937 5.00586 5.73437 l 10.13477 11.31641 c 5.16517 6.07782 31.48133 41.97079 36.68673 46.38698 l 29.88631 36.56621 z" fill="#e00914" filter="url(#d)" stroke-width="1.387" transform="matrix(-1.1614724 0 0 .99999801 859.13427 .000634)"/></g><text style="font-size:183.824;font-family:sans-serif;letter-spacing:0;word-spacing:0;fill:#e00914;stroke-width:.957414" x="171.88831" y="313.28885"><tspan fill="#e00914" font-family="RockoFLF" font-weight="bold" stroke-width=".957414" x="171.88831" y="313.28885">R.P.F.C.</tspan></text></g></svg>