<svg xmlns="http://www.w3.org/2000/svg" width="1000" height="1000" viewBox="0 0 750 750"><path fill="#005c2b" stroke="#005c2b" stroke-linecap="round" stroke-linejoin="round" stroke-width="7.1259375" d="M374.75 237.166s-38.58 24.84-58.962 28.732c-23.985 4.58-62.96 2.748-62.96 2.748l-23.734 51.966s11.803 7.618 20.236 23.985c6.483 12.58 10.206 28.101 0 53.966-12.126 30.734-20.614 45.064-15.24 67.706 5.558 23.418 29.752 49.573 57.214 55.215C336.44 530.756 375 573.7 375 573.7l-.01-14.039h.02l-.01 14.04s38.56-42.945 83.696-52.217c27.463-5.642 51.656-31.797 57.214-55.215 5.374-22.642-3.113-36.972-15.24-67.706-10.206-25.865-6.483-41.385 0-53.966 8.433-16.367 20.236-23.985 20.236-23.985l-23.734-51.966s-38.975 1.832-62.96-2.748c-20.383-3.893-58.962-28.732-58.962-28.732l-.02 27.185h-.46z"/><path fill="#e1303a" d="m375.045 292.204-.265-47.043.827.41c.33.163 2.885 1.725 5.725 3.386 19.32 11.307 35.372 18.803 45.804 21.392 2.952.732 9.295 1.724 14.366 2.246 10.677 1.1 18.918 1.42 35.44 1.384l14.077-.032 10.71 23.446 10.71 23.446-1.178.99c-4.637 3.894-9.918 9.909-13.666 15.562l-1.201 1.811H374.787zm-123.407 44.199c-3.212-4.808-7.7-9.945-12.105-13.857l-1.972-1.751 10.715-23.463 10.714-23.463 16.741-.004c17.237-.003 21.564-.159 31.482-1.142 12.262-1.215 18.293-2.624 27.732-6.48 9.514-3.885 24.424-11.637 36.926-19.2 1.62-.98 2.998-1.782 3.06-1.782.063 0 .114 21.137.114 46.97v46.97l-60.774-.009-60.773-.008-1.86-2.783z" opacity=".998"/><path fill="#e1303a" d="M398.732 544.047V347.369h56.214v170.755s-18.988 5.417-28.357 9.157-27.857 16.766-27.857 16.766M349.311 544.047l.25-196.678h-56.214v170.98s18.988 5.423 28.357 9.168 27.607 16.53 27.607 16.53"/><text x="-3194.667" y="-1063.272" style="font-size:146.346;font-family:sans-serif;letter-spacing:15.2444;word-spacing:0;fill:#fef8f8;fill-opacity:.992157;stroke-width:.762219" transform="matrix(.33226 0 0 .43472 1354.233 788.347)"><tspan x="-3194.667" y="-1063.272" fill-opacity=".992" stroke-width=".762" font-weight="bold">CABR</tspan></text><path fill="#e1303a" stroke="#005c2b" stroke-linecap="round" stroke-linejoin="round" stroke-width="7.1259375" d="m497.172 268.646 26.634 55.257c-17.495 9.919-25.867 25.688-30.132 45.428 36.683 24.232 75.972 11.242 115.926-11.243-23.32-1.102-44.535-5.97-58.962-22.985 35.035-.524 69.356-5.505 98.79-30.304-25.53 1.494-48.578-5.699-68.456-23.984 50.926.21 102.307-15.535 146.716-97.254-32.427 33.751-100.046 61.084-143.918 60.548-44.804-.547-51.974 13.716-86.598 24.537M252.828 268.646l-26.634 55.257c17.495 9.919 25.867 25.688 30.132 45.428-36.683 24.232-75.972 11.242-115.926-11.243 23.32-1.102 44.535-5.97 58.963-22.985-35.036-.524-69.356-5.505-98.79-30.304 25.53 1.494 48.577-5.699 68.455-23.984-50.926.21-102.306-15.535-146.716-97.254 32.427 33.751 100.046 61.084 143.918 60.548 44.804-.547 51.974 13.716 86.598 24.537"/></svg>