<svg xmlns="http://www.w3.org/2000/svg" width="1000" height="1000" viewBox="0 0 750 750"><path fill="#009e51" d="M18.75 375c0 196.42 159.83 356.25 356.25 356.25S731.25 571.42 731.25 375 571.42 18.75 375 18.75 18.75 178.58 18.75 375"/><path fill="#fff" d="M37.127 375C37.127 188.69 188.69 37.127 375 37.127S712.873 188.69 712.873 375 561.31 712.873 375 712.873 37.127 561.31 37.127 375"/><path fill="#009e51" d="m233.343 648.532 9.782 10.232c-2.701 2.865-5.525 4.952-8.472 6.221-2.988 1.228-6.058 1.72-9.21 1.392-3.192-.287-6.712-1.556-10.64-3.766-4.749-2.701-8.228-5.607-10.438-8.677-2.251-3.11-3.479-6.999-3.684-11.706-.204-4.706 1.228-9.74 4.298-15.184 4.093-7.204 9.168-11.665 15.185-13.343 6.057-1.679 12.565-.532 19.605 3.438q8.227 4.665 11.051 10.682c1.883 4.011 2.292 8.76 1.187 14.244l-13.384-4.093q.49-2.333.368-3.684a8.9 8.9 0 0 0-1.432-3.97c-.778-1.187-1.801-2.128-3.152-2.906-3.07-1.76-6.098-1.842-9.127-.327-2.251 1.146-4.502 3.642-6.712 7.53q-4.114 7.245-3.438 11.174c.45 2.62 2.005 4.707 4.665 6.222 2.58 1.473 4.953 1.841 7.122 1.146 2.129-.696 4.257-2.21 6.426-4.625M268.829 659.5c-1.596 4.79-1.883 8.555-.819 11.215 1.105 2.702 3.152 4.543 6.222 5.567 3.11 1.064 5.893.86 8.308-.614s4.503-4.87 6.303-10.192c1.474-4.46 1.679-8.022.573-10.682-1.105-2.66-3.192-4.502-6.262-5.567-2.947-.982-5.648-.695-8.145.778-2.496 1.474-4.543 4.666-6.18 9.496m-14.694-5.034c2.579-7.776 6.795-13.097 12.566-15.962 5.77-2.865 12.524-3.029 20.219-.45 7.94 2.66 13.302 6.835 16.167 12.524 2.865 5.69 2.988 12.36.45 20.015-1.883 5.566-4.338 9.782-7.408 12.729s-6.712 4.788-10.887 5.566c-4.216.819-8.923.327-14.203-1.433-5.362-1.8-9.536-4.174-12.483-7.04-2.947-2.905-4.87-6.548-5.812-10.968-.942-4.462-.491-9.455 1.391-14.98M316.88 647.754l15.349 2.21-5.403 37.491 23.944 3.48-1.76 12.156-39.333-5.69zM373.731 678.656c.164 5.034 1.187 8.636 3.11 10.805q2.948 3.193 7.736 3.07c3.316-.082 5.853-1.27 7.613-3.48s2.538-6.098 2.374-11.705c-.163-4.707-1.187-8.145-3.151-10.273-1.965-2.088-4.543-3.111-7.818-3.03-3.11.124-5.566 1.27-7.367 3.562-1.801 2.25-2.66 5.934-2.497 11.05m-15.553.327c-.246-8.186 1.842-14.612 6.262-19.319 4.42-4.666 10.724-7.162 18.869-7.408 8.35-.245 14.816 1.842 19.482 6.18 4.625 4.339 7.08 10.52 7.326 18.623.164 5.853-.695 10.683-2.537 14.49-1.883 3.806-4.625 6.794-8.268 9.004-3.684 2.21-8.309 3.397-13.875 3.52-5.648.204-10.355-.573-14.12-2.251-3.766-1.72-6.836-4.462-9.25-8.309-2.416-3.806-3.725-8.636-3.889-14.53M414.62 651.478l14.12-3.274 24.68 22.757-6.261-27.054 14.202-3.275 11.379 48.87-14.244 3.315-24.558-22.634 6.263 26.89-14.244 3.275zM469.179 636.949l14.448-5.69 18.418 46.7-14.489 5.69zM531.473 641.82l-13.67-13.057 4.093 18.459zm8.186 7.817-15.266 8.677 1.841 8.39-13.793 7.777-8.227-52.963 14.735-8.35 41.093 34.422-14.12 7.981zM263.467 88.74l3.561-1.31c2.742-1.024 4.502-2.251 5.28-3.643.778-1.35.86-2.824.286-4.339-.532-1.473-1.514-2.537-2.865-3.192-1.35-.655-3.356-.491-6.057.491l-4.093 1.555Zm-22.02-14.572 24.067-9.004c5.239-1.965 9.659-2.17 13.179-.655 3.56 1.515 6.18 4.584 7.9 9.21 1.76 4.747 1.718 8.963-.123 12.687-1.842 3.725-5.69 6.672-11.502 8.882l-7.94 2.947 6.549 17.518-14.571 5.403zM295.27 55.71l15.266-2.907 7.122 37.205 23.78-4.543 2.292 12.074-39.047 7.49z"/><path fill="#009e51" d="m375.819 77.484-5.73-17.968-5.24 18.131zm3.438 10.805-17.56.287-2.373 8.267-15.84.246 18.132-50.466 16.986-.246 19.523 49.893-16.208.246z"/><path fill="#009e51" d="m407.866 47.4 43.222 7.163-1.637 9.946-32.58 24.353 28.773 4.789-1.76 10.6-46.946-7.817 1.72-10.232 32.21-24.108-24.762-4.093z"/><path fill="#009e51" d="m480.885 96.966 1.023-18.827-11.338 15.103zm-.574 11.338-16.535-5.976-5.157 6.917-14.898-5.403 34.83-40.765 15.963 5.77.614 53.577-15.267-5.525zM106.093 375c0 148.287 120.62 268.907 268.907 268.907S643.907 523.287 643.907 375 523.287 106.093 375 106.093 106.093 226.713 106.093 375"/><path fill="#fff" d="M124.47 375c0-138.137 112.393-250.53 250.53-250.53S625.53 236.864 625.53 375 513.136 625.53 375 625.53 124.47 513.136 124.47 375"/><path fill="#009e51" d="M158.074 500.244 375 124.553l216.926 375.691Zm0 0"/><path fill="#fff" d="M471.798 375c0 53.454-43.344 96.798-96.798 96.798S278.202 428.454 278.202 375s43.344-96.798 96.798-96.798 96.798 43.344 96.798 96.798"/></svg>