<svg height="1000" viewBox="0 0 749.99996 749.99994" width="1000" xmlns="http://www.w3.org/2000/svg"><g transform="matrix(2.792834 0 0 2.792834 -803.78324 -456.9809)"><g><path d="M 421.96094 425.45703 L 329.57031 372.46875 V 170.33984 h 185.00781 v 202.12891 z m 0 0" fill="#5c2b91" fill-rule="evenodd"/><path d="m 421.96094 419.62891 l 87.61718 -50.07422 V 175.5625 H 334.56641 v 193.99219 z m 0 0" fill="#fff"/><path d="m 496.23828 326.38281 c .1875 1.04297 .1875 2.07031 .1875 3.1211 c -1.65234 29.83203 -23.54687 50.69531 -53.79687 48.38671 c -6.25391 -.82812 -13.35547 -3.11718 -18.98047 -6.25 c -13.98828 9.19532 -32.78125 8.15235 -47.58203 .83594 c -17.3086 -10.22265 -26.27735 -28.16797 -25.01954 -46.09375 h -11.28125 v 40.05469 l 82.19532 46.91016 l 82.19531 -46.91016 v -40.05469 z m 0 0" fill="#5c2b91" fill-rule="evenodd"/><path d="M 460.12891 198.92969 L 473.07422 192.875 H 371.91406 l 12.51172 6.05469 z m 0 0" fill="#5c2b91" fill-rule="evenodd"/><path d="m 356.46484 308.01953 c 1.04688 -2.08203 2.29688 -4.16797 3.75391 -6.25391 h -20.45313 v 6.25391 z m 0 0" fill="#5c2b91" fill-rule="evenodd"/><path d="m 365.43359 295.71094 c 2.4961 -2.29688 4.79297 -4.16016 7.51563 -6.04297 h -33.1836 v 6.04297 z m 0 0" fill="#5c2b91" fill-rule="evenodd"/><path d="m 475.57422 289.66797 c 2.5 1.88281 4.99609 3.74609 7.09765 6.04297 h 21.69141 v -6.04297 z m 0 0" fill="#5c2b91" fill-rule="evenodd"/><path d="m 487.68359 301.76562 c 1.26172 2.08594 2.71094 4.16407 3.77344 6.25391 h 12.90625 v -6.25391 z m 0 0" fill="#5c2b91" fill-rule="evenodd"/><path d="m 493.73437 314.08984 c .83594 1.83203 1.23829 3.92188 1.8711 5.8125 h 8.75781 v -5.8125 z m 0 0" fill="#5c2b91" fill-rule="evenodd"/><path d="m 486.00781 186.61328 l 12.9336 -6.03906 H 346.24219 l 12.51562 6.03906 z m 0 0" fill="#5c2b91" fill-rule="evenodd"/><path d="m 352.30078 319.90234 c .40234 -1.89062 .8125 -3.74609 1.46484 -5.80859 h -14 v 5.80859 z m 0 0" fill="#5c2b91" fill-rule="evenodd"/><path d="m 424.47656 208.50781 v 13.55469 h 8.34375 v -13.55469 z m -4.17187 2.71094 v -2.71094 h -8.74219 v 13.55469 h 8.74219 z m 42.75781 72.39453 c -5.21484 -1.47266 -10.83594 -2.30078 -16.89844 -2.30078 c -7.51172 .40625 -16.07031 2.50781 -22.72656 6.89062 c -12.51563 -7.30859 -25.875 -8.55468 -38.18359 -4.58984 h -45.48829 v -6.26172 h 65.09766 l 1.04688 -6.07031 h -66.14454 v -6.02344 h 66.96094 l 1.0625 -6.24219 h -68.02344 v -5.85156 h 69.06641 l 1.03516 -6.05469 h -70.10157 v -1.45312 l 12.75782 -4.80469 h 58.17968 l 1.03516 -6.04687 H 368.5625 l 16.06641 -6.07032 h 27.96093 l .42578 -1.85156 l -11.07421 -1.89844 v -1.66406 l 4.18359 -.61328 v -13.16406 l -3.96875 -2.06641 l -5.20703 -2.72656 l 10.21094 .41797 v -2.92188 h 30.2539 V 204.75 h 10.23047 l -2.30078 1.03516 l -6.88281 3.75781 v 13.16406 l 4.16797 .61328 v 1.66406 l -11.05469 1.89844 l .19531 1.85156 h 28.14844 l 15.85937 6.07032 h -42.95703 l 1.05078 6.04687 h 57.76172 l 12.73047 4.59375 v 1.66406 h -69.45312 l 1.04687 6.05469 h 68.40625 v 5.85156 h -67.56641 l 1.01563 6.24219 h 66.55078 v 6.02344 h -65.51172 l 1.0586 6.07031 h 64.45312 v 6.26172 z m 0 0" fill="#5c2b91" fill-rule="evenodd"/><path d="m 399.23828 373.30859 c -11.90234 0 -22.75 -4.78906 -30.46484 -12.72265 c -7.92578 -7.94141 -12.73438 -18.55078 -12.73438 -30.44141 c 0 -24.00391 19.41016 -43.38672 43.19922 -43.38672 c 11.87891 0 22.72266 4.79297 30.67188 12.71094 c 7.69921 7.92578 12.71875 18.54297 12.71875 30.67578 c 0 23.75781 -19.6211 43.16406 -43.39063 43.16406 m 32.33594 -75.72656 c -8.13672 -8.33594 -19.6211 -13.35547 -32.33594 -13.35547 c -25.24609 0 -45.91016 20.45313 -45.91016 45.91797 c 0 12.49609 5.22266 23.98438 13.57422 32.33984 c 8.35938 8.32813 19.80078 13.3086 32.33594 13.3086 c 25.23828 0 45.88281 -20.41406 45.88281 -45.64844 c 0 -12.73828 -5.21093 -24.20312 -13.54687 -32.5625" fill="#0085ca" fill-rule="evenodd"/><path d="m 447.83594 375.79297 c -12.52344 0 -24.01172 -4.98828 -32.31641 -13.32031 c -8.14453 -8.34375 -13.36328 -19.82813 -13.36328 -32.54688 c 0 -15.22656 7.50391 -28.79687 18.97656 -37.14062 c .82813 .6289 1.67188 1.05468 2.30078 1.66406 c -11.26562 7.73828 -18.5625 20.86719 -18.5625 35.47656 c 0 11.89844 4.78907 22.71875 12.50391 30.66016 c 7.93359 7.93359 18.78125 12.72265 30.46094 12.72265 c 23.98828 0 43.39843 -19.40625 43.39843 -43.38281 c 0 -11.91406 -4.80078 -22.73828 -12.73437 -30.45703 c -7.71875 -7.91797 -18.57422 -12.71094 -30.66406 -12.71094 c -7.92578 0 -15.4336 2.28125 -21.89844 6.02735 c -.82813 -.41797 -1.69141 -1.03907 -2.50391 -1.44141 c 7.08203 -4.58594 15.64063 -7.11719 24.40235 -7.11719 c 12.73047 0 24.1914 5.01563 32.53906 13.35547 c 8.33984 8.35938 13.57422 19.82422 13.57422 32.34375 c 0 25.45313 -20.66406 45.86719 -46.11328 45.86719" fill="#de022b" fill-rule="evenodd"/><path d="m 375.50781 337.50781 h 3.8125 c 2.22266 0 3.84375 -.58594 4.84375 -1.75 c .98828 -1.0664 1.49219 -2.95703 1.49219 -5.64844 c 0 -2.59765 -.48828 -4.5 -1.43359 -5.73046 c -.8711 -1.19922 -2.32032 -1.79688 -4.28516 -1.79688 h -4.42969 z m -4.65625 4.16406 v -20.6875 c 0 -.68359 .23438 -1.24609 .71485 -1.73046 c .46093 -.48047 1.05468 -.70313 1.72656 -.70313 h 6.64453 c 3.53516 0 6.17578 .93359 7.93359 2.83203 c 1.74219 1.98438 2.65235 4.86328 2.65235 8.72656 c 0 2.07032 -.3711 3.9336 -.97266 5.58204 c -.71875 1.70312 -1.67187 3.0039 -2.83594 3.89843 c -.97656 .77344 -2.02734 1.31641 -3.15625 1.61719 c -1.07031 .32031 -2.67968 .46484 -4.88281 .46484 z m 0 0" fill="#211714"/><path d="m 413.53125 334.49219 h 4.69141 c .18359 1.33984 .68359 2.27734 1.53125 2.83203 c .91406 .60937 2.14843 .9375 3.70703 .9375 c 1.38672 0 2.4375 -.26172 3.16015 -.75391 c .72266 -.47265 1.08985 -1.21484 1.08985 -2.15625 c 0 -1.4375 -2.04297 -2.58594 -6.06641 -3.49219 l -.11328 -.0625 l -.55078 -.13671 c -2.28125 -.4961 -3.8125 -1.00782 -4.59375 -1.55079 c -.8711 -.48437 -1.50391 -1.19531 -1.84766 -2.15234 c -.45703 -.81641 -.69531 -1.83203 -.69531 -3.07422 c 0 -2.21875 .76953 -3.92187 2.29297 -5.16797 c 1.53125 -1.23047 3.74219 -1.8164 6.66015 -1.8164 c 2.73047 0 4.84375 .61718 6.32032 1.86328 c 1.52343 1.38281 2.32812 3.19531 2.42578 5.43359 h -2.70313 c -1.04297 0 -1.75 -.46875 -2.21875 -1.38672 c -.22656 -.4414 -.54687 -.85156 -.95312 -1.16406 c -.78125 -.57422 -1.88672 -.84375 -3.27735 -.84375 c -1.33203 0 -2.30859 .21484 -2.89453 .72266 c -.66406 .48828 -1 1.18359 -1 2.07422 c 0 1.21093 1.30469 2.12109 3.89453 2.70312 c .76172 .21094 1.32032 .33594 1.67188 .40625 c .82422 .25 1.50391 .45703 2.125 .63672 c .59375 .14453 1.08984 .27734 1.45312 .36328 c .60938 .26563 1.24219 .52344 1.86719 .79688 c .88672 .54687 1.60938 1.24218 2.09766 2.08984 c .48437 .94922 .73828 1.97266 .73828 3.09766 c 0 2.40234 -.80078 4.30078 -2.40625 5.63281 c -1.62109 1.27344 -3.92578 1.89453 -6.88281 1.89453 c -3.02735 0 -5.33203 -.65625 -6.84766 -1.95703 c -1.66797 -1.28906 -2.55078 -3.22656 -2.67578 -5.76953" fill="#211714"/><path d="m 474.71484 333.67578 c -.21484 2.6875 -1.23437 4.80859 -3.0039 6.32422 c -1.85157 1.48047 -4.27344 2.22266 -7.28907 2.22266 c -3.49609 0 -6.15625 -1.07032 -7.98437 -3.17188 c -1.82813 -2.02344 -2.77734 -5.00391 -2.77734 -8.94141 c 0 -4.01953 .94921 -7.0625 2.82421 -9.0664 c 1.92188 -2.10156 4.71485 -3.14453 8.35157 -3.14453 c 2.95312 0 5.28906 .72265 7.05859 2.20703 c 1.67188 1.44531 2.60547 3.45703 2.82031 6.04297 h -2.89062 c -1.07422 0 -1.82031 -.46485 -2.28906 -1.42188 c -.32422 -.57812 -.6875 -1.09375 -1.16016 -1.55078 c -.87891 -.65234 -2.0625 -.99609 -3.53906 -.99609 c -2.0625 0 -3.64844 .68359 -4.77344 2.01953 c -1.08984 1.33594 -1.625 3.3125 -1.625 5.91015 c 0 2.51563 .53516 4.4336 1.625 5.78125 c 1.02344 1.38672 2.57422 2.09766 4.64062 2.09766 c 1.42579 0 2.60157 -.35547 3.56641 -1.08594 c .85547 -.6875 1.44531 -1.74218 1.80469 -3.22656 z m 0 0" fill="#211714"/></g></g></svg>