<svg height="1000" viewBox="0 0 1000 1000" width="1000" xmlns="http://www.w3.org/2000/svg"><g transform="matrix(2.7081961 0 0 2.7081961 -21.367667 -12.289794)"><g><path d="m 281.835 179.931 c 0 -28.126 -11.861 -53.519 -30.825 -71.491 v 142.982 c 18.963 -17.972 30.825 -43.362 30.825 -71.491 z"/><path d="m 84.733 179.931 c 0 28.128 11.863 53.519 30.825 71.491 v -142.98 c -18.962 17.971 -30.825 43.363 -30.825 71.489 z"/><path d="m 195.439 82.158 v 195.548 c 11.091 -1.371 21.616 -4.577 31.259 -9.328 V 91.487 c -9.643 -4.753 -20.168 -7.96 -31.259 -9.329 z"/><path d="m 139.869 91.487 v 176.891 c 9.642 4.751 20.168 7.957 31.259 9.328 V 82.158 c -11.091 1.371 -21.617 4.576 -31.259 9.329 z"/><g><path d="m 183.283 81.381 c -4.117 0 -8.168 .283 -12.155 .777 v 195.548 c 3.987 .492 8.038 .776 12.155 .776 c 4.118 0 8.168 -.284 12.156 -.776 V 82.158 c -3.988 -.494 -8.038 -.777 -12.156 -.777 z" fill="#fff"/><path d="m 226.698 268.378 c 8.954 -4.417 17.138 -10.155 24.312 -16.956 V 108.44 c -7.173 -6.801 -15.358 -12.539 -24.312 -16.953 z" fill="#fff"/><path d="m 115.558 108.442 v 142.98 c 7.173 6.801 15.356 12.539 24.311 16.956 V 91.487 c -8.955 4.414 -17.138 10.155 -24.311 16.955 z" fill="#fff"/></g></g><path d="M 183.283 4.538 C 86.415 4.538 7.89 83.063 7.89 179.931 c 0 96.869 78.526 175.394 175.394 175.394 c 96.869 0 175.395 -78.525 175.395 -175.394 C 358.678 83.063 280.152 4.538 183.283 4.538 Z m 0 263.09 c -48.434 0 -87.697 -39.263 -87.697 -87.697 c 0 -48.434 39.263 -87.697 87.697 -87.697 c 48.435 0 87.698 39.263 87.698 87.697 c 0 48.434 -39.263 87.697 -87.698 87.697 z"/><path d="m 251.01 30.037 c -7.801 -3.541 -15.92 -6.492 -24.312 -8.79 c -10.07 -2.76 -20.523 -4.57 -31.259 -5.359 c -4.019 -.295 -8.062 -.496 -12.156 -.496 c -4.094 0 -8.136 .201 -12.155 .496 c -10.737 .789 -21.189 2.6 -31.259 5.359 c -8.392 2.298 -16.509 5.248 -24.311 8.79 c -57.029 25.868 -96.815 83.305 -96.815 149.895 c 0 66.591 39.786 124.026 96.815 149.894 c 7.802 3.542 15.92 6.493 24.311 8.793 c 10.069 2.757 20.522 4.568 31.259 5.358 c 4.019 .295 8.062 .496 12.155 .496 c 4.095 0 8.137 -.204 12.156 -.496 c 10.735 -.79 21.189 -2.601 31.259 -5.358 c 8.392 -2.3 16.511 -5.251 24.312 -8.793 c 57.029 -25.869 96.814 -83.304 96.814 -149.894 c 0 -66.591 -39.785 -124.028 -96.814 -149.895 z m 0 221.385 c -7.173 6.801 -15.358 12.539 -24.312 16.956 c -9.643 4.751 -20.168 7.957 -31.259 9.328 c -3.988 .492 -8.038 .776 -12.156 .776 c -4.117 0 -8.168 -.284 -12.155 -.776 c -11.091 -1.371 -21.617 -4.577 -31.259 -9.328 c -8.955 -4.417 -17.138 -10.155 -24.311 -16.956 c -18.962 -17.973 -30.825 -43.363 -30.825 -71.491 c 0 -28.126 11.863 -53.519 30.825 -71.489 c 7.173 -6.801 15.356 -12.542 24.311 -16.955 c 9.642 -4.753 20.168 -7.958 31.259 -9.329 c 3.987 -.494 8.038 -.777 12.155 -.777 c 4.118 0 8.168 .283 12.156 .777 c 11.091 1.37 21.616 4.576 31.259 9.329 c 8.954 4.414 17.138 10.152 24.312 16.953 c 18.963 17.973 30.825 43.365 30.825 71.491 c 0 28.129 -11.862 53.519 -30.825 71.491 z" fill="#f26323"/><path d="m 42.847 231.025 l -2.042 -6.546 c -.696 -2.232 -.72 -4.105 -.07 -5.614 c .647 -1.509 1.918 -2.557 3.808 -3.147 c 2.265 -.705 4.115 -.661 5.547 .128 c 1.434 .794 2.517 2.368 3.253 4.726 l 2.041 6.545 z m 20.31 -6.329 l -1.83 -5.872 c -.867 -2.778 -.932 -5.02 -.201 -6.732 c .733 -1.713 2.328 -2.951 4.785 -3.718 c 2.461 -.766 4.483 -.641 6.063 .377 c 1.585 1.018 2.836 3.002 3.757 5.956 l 1.725 5.532 z m 19.325 -15.684 c -1.804 -5.787 -4.245 -9.666 -7.324 -11.634 c -3.08 -1.967 -7.088 -2.181 -12.034 -.641 c -3.271 1.021 -5.688 2.737 -7.25 5.152 c -1.562 2.411 -2.102 5.277 -1.615 8.595 c -1.13 -2.744 -3.017 -4.61 -5.664 -5.593 c -2.643 -.984 -5.65 -.953 -9.016 .094 c -4.113 1.282 -6.757 3.569 -7.935 6.855 c -1.177 3.287 -.913 7.669 .792 13.143 l 6.095 19.55 l 50.152 -15.631 z"/><path d="m 37.087 172.671 c -2.324 -1.29 -3.361 -3.349 -3.109 -6.174 c .248 -2.773 1.603 -4.583 4.065 -5.435 c 2.462 -.851 7.338 -.954 14.624 -.303 c 8.25 .737 13.51 1.749 15.783 3.034 c 2.273 1.288 3.282 3.354 3.028 6.207 c -.246 2.747 -1.646 4.542 -4.199 5.385 c -2.554 .843 -7.682 .921 -15.385 .234 c -7.548 -.674 -12.483 -1.656 -14.807 -2.948 z m 41.756 -11.474 c -.815 -2.772 -2.136 -4.95 -3.962 -6.531 c -1.869 -1.662 -4.311 -2.939 -7.326 -3.839 c -3.013 -.898 -7.798 -1.64 -14.355 -2.226 c -6.32 -.563 -11.136 -.499 -14.448 .189 c -3.314 .688 -5.982 2.08 -8.006 4.182 c -1.298 1.353 -2.377 3.146 -3.23 5.376 c -.854 2.234 -1.406 4.727 -1.652 7.484 c -.32 3.592 -.08 6.767 .722 9.526 c .804 2.76 2.119 4.93 3.944 6.506 c 1.771 1.603 4.158 2.851 7.158 3.749 c 3.002 .899 7.222 1.587 12.656 2.071 c 7.022 .628 12.356 .585 15.999 -.124 c 3.643 -.712 6.507 -2.168 8.59 -4.372 c 1.216 -1.28 2.236 -3.041 3.067 -5.29 c .829 -2.247 1.362 -4.697 1.599 -7.351 c .311 -3.459 .058 -6.577 -.756 -9.35 z"/><path d="m 82.746 147.347 l -47.606 -22.211 l 5.14 -11.017 l 39.244 18.312 l 7.48 -16.033 l 8.361 3.901 z"/><path d="m 77.488 74.335 c 2.732 -2.691 5.434 -3.713 8.102 -3.067 c 2.669 .645 6.631 3.636 11.888 8.973 c 5.258 5.338 8.189 9.346 8.794 12.024 c .604 2.678 -.461 5.362 -3.193 8.053 l -3.708 3.654 l -25.592 -25.983 z m 18.857 44.041 l 13.59 -13.386 c 5.304 -5.223 7.672 -10.27 7.108 -15.143 c -.566 -4.871 -4.269 -10.78 -11.11 -17.727 C 99.055 65.139 93.183 61.328 88.321 60.689 C 83.459 60.051 78.376 62.342 73.072 67.566 L 59.481 80.952 Z"/><path d="m 127.791 89.375 l -20.07 -48.546 l 11.133 -4.602 l 8.717 21.084 l 5.123 -26.806 l 11.636 -4.811 l -6.166 28.68 l 26.238 19.865 l -12.9 5.335 l -22.329 -18.386 l 9.752 23.586 z"/><path d="m 163.956 76.043 l -3.173 -52.435 l 12.133 -.734 l 2.615 43.226 l 17.66 -1.067 l .557 9.208 z"/><path d="m 245.909 34.176 l -9.151 31.633 c -2.045 7.057 -4.969 11.673 -8.777 13.852 c -3.806 2.178 -9.07 2.293 -15.786 .35 c -6.465 -1.871 -10.802 -4.724 -13.004 -8.56 c -2.205 -3.833 -2.404 -8.865 -.6 -15.093 l 9.578 -33.103 l 11.573 3.349 l -8.785 30.352 c -1.668 5.774 -2.194 9.595 -1.574 11.462 c .621 1.868 2.341 3.207 5.159 4.022 c 2.717 .788 4.861 .461 6.427 -.975 c 1.564 -1.439 3.128 -4.858 4.687 -10.256 l 8.785 -30.353 z"/><path d="m 272.256 59.885 l 5.311 4.338 c 1.811 1.478 2.862 3.027 3.155 4.643 c .291 1.618 -.19 3.194 -1.441 4.727 c -1.5 1.836 -3.07 2.821 -4.701 2.95 c -1.631 .128 -3.405 -.586 -5.318 -2.148 l -5.311 -4.337 z m -13.455 16.48 l 4.762 3.888 c 2.256 1.84 3.549 3.677 3.88 5.506 c .333 1.834 -.315 3.749 -1.943 5.741 c -1.628 1.996 -3.385 3.005 -5.268 3.028 c -1.879 .026 -4.019 -.942 -6.417 -2.897 l -4.487 -3.665 z m -7.476 23.739 c 4.694 3.833 8.869 5.722 12.522 5.667 c 3.653 -.056 7.116 -2.088 10.393 -6.101 c 2.167 -2.652 3.235 -5.418 3.208 -8.292 c -.023 -2.875 -1.156 -5.562 -3.388 -8.063 c 2.456 1.667 5.057 2.183 7.807 1.545 c 2.747 -.636 5.241 -2.321 7.469 -5.052 c 2.724 -3.335 3.673 -6.701 2.843 -10.092 c -.832 -3.392 -3.467 -6.903 -7.907 -10.528 L 268.41 46.235 L 235.184 86.926 Z"/><path d="m 311.461 103.118 l 3.253 6.038 c 1.108 2.058 1.488 3.891 1.139 5.496 c -.35 1.606 -1.393 2.878 -3.142 3.817 c -2.085 1.125 -3.91 1.435 -5.466 .931 c -1.561 -.504 -2.924 -1.843 -4.095 -4.017 l -3.253 -6.039 z m -18.73 10.086 l 2.914 5.413 c 1.381 2.562 1.873 4.751 1.482 6.571 c -.393 1.819 -1.723 3.342 -3.992 4.561 c -2.265 1.223 -4.277 1.484 -6.02 .787 c -1.75 -.696 -3.359 -2.408 -4.824 -5.131 l -2.748 -5.1 z m -15.981 19.08 c 2.873 5.336 6.01 8.678 9.405 10.022 c 3.398 1.344 7.377 .792 11.939 -1.664 c 3.016 -1.624 5.06 -3.771 6.132 -6.438 c 1.075 -2.667 1.058 -5.582 -.05 -8.747 c 1.632 2.479 3.839 3.951 6.624 4.413 c 2.786 .462 5.729 -.143 8.833 -1.814 c 3.796 -2.042 5.956 -4.79 6.485 -8.241 c .529 -3.454 -.566 -7.703 -3.284 -12.749 l -9.711 -18.033 l -46.25 24.906 z"/><path d="m 285.328 151.429 l 52.087 -6.802 l 4.04 30.94 l -8.069 1.055 l -2.469 -18.888 l -12.482 1.631 l 2.27 17.373 l -7.967 1.04 l -2.266 -17.373 l -15.175 1.981 l 2.557 19.587 l -8.394 1.098 z"/><path d="m 290.177 185.66 l 50.837 13.231 l -4.074 15.65 l -29.196 3.859 c -3.415 .468 -6.719 .807 -9.908 1.021 c -3.188 .213 -6.274 .298 -9.262 .251 c 2.249 .285 4.605 .665 7.074 1.143 c 2.47 .478 5.104 1.086 7.913 1.815 l 29.471 6.932 l -2.814 10.82 l -50.84 -13.232 l 3.992 -15.336 l 30.767 -4.131 c 2.317 -.289 5.061 -.533 8.231 -.733 c 3.171 -.2 6.645 -.345 10.423 -.441 c -3.286 -.552 -6.17 -1.072 -8.649 -1.553 c -2.479 -.481 -4.571 -.929 -6.271 -1.346 l -30.486 -7.235 z"/><path d="m 104.193 315.981 l 18.6 -33.908 c -2.561 .323 -4.698 .486 -6.409 .483 c -1.713 -.004 -3.178 -.143 -4.394 -.424 l 4.594 -8.375 c 1.861 .306 3.901 .333 6.123 .092 c 2.22 -.249 4.663 -.788 7.33 -1.625 l 8.482 4.653 l -24.431 44.534 z"/><path d="m 165.881 293.927 c .439 1.595 .322 4.217 -.348 7.859 c -.657 3.568 -1.454 5.956 -2.393 7.163 c -.938 1.208 -2.269 1.652 -3.991 1.336 c -1.723 -.315 -2.809 -1.273 -3.259 -2.869 c -.451 -1.594 -.35 -4.162 .301 -7.707 c .636 -3.462 1.459 -5.847 2.47 -7.149 c 1.007 -1.299 2.374 -1.792 4.097 -1.476 c 1.645 .303 2.685 1.253 3.123 2.843 z m -2.857 23.024 c -.108 .735 -.287 1.784 -.537 3.141 c -.637 3.463 -1.476 5.851 -2.514 7.171 c -1.039 1.319 -2.446 1.817 -4.217 1.492 c -1.234 -.227 -2.123 -.804 -2.669 -1.733 c -.548 -.929 -.745 -2.171 -.594 -3.72 l -10.938 -2.012 l -.049 .265 c -.656 3.568 .114 6.553 2.313 8.958 c 2.199 2.404 5.635 4.036 10.309 4.894 c 3.155 .582 5.978 .509 8.459 -.217 c 2.481 -.727 4.601 -2.106 6.357 -4.148 c 1.277 -1.466 2.372 -3.514 3.279 -6.149 c .909 -2.635 2.016 -7.499 3.32 -14.588 c 1.633 -8.889 1.56 -15.243 -.219 -19.062 c -1.782 -3.819 -5.611 -6.27 -11.489 -7.349 c -5.368 -.987 -9.607 -.258 -12.724 2.184 c -3.117 2.442 -5.229 6.682 -6.339 12.719 c -.958 5.22 -.697 9.287 .785 12.204 c 1.482 2.913 4.214 4.738 8.197 5.467 c 1.796 .333 3.498 .359 5.102 .082 c 1.605 -.275 3.087 -.858 4.447 -1.753 c -.078 .703 -.17 1.418 -.279 2.154 z"/><path d="m 194.493 295.807 c .496 -2.15 1.781 -3.365 3.861 -3.639 c 2.028 -.267 3.558 .553 4.592 2.463 c 1.031 1.909 2.1 7.024 3.202 15.351 c 1.109 8.381 1.414 13.625 .916 15.738 c -.502 2.113 -1.767 3.3 -3.792 3.571 c -2.083 .275 -3.639 -.569 -4.68 -2.53 c -1.038 -1.96 -2.106 -7.078 -3.202 -15.354 c -1.094 -8.246 -1.392 -13.45 -.897 -15.6 z m -4.819 -8.751 c -2.143 1.221 -3.699 2.774 -4.66 4.668 c -.995 1.841 -1.582 4.046 -1.754 6.61 c -.172 2.567 .176 7.147 1.049 13.747 l .569 4.281 c .739 5.576 1.608 9.561 2.612 11.958 c 1.001 2.402 2.429 4.322 4.28 5.762 c 1.615 1.265 3.471 2.12 5.557 2.568 c 2.089 .452 4.402 .505 6.942 .17 c 3.236 -.428 5.953 -1.387 8.154 -2.879 c 2.201 -1.493 3.809 -3.48 4.826 -5.96 c .655 -1.618 1.024 -3.551 1.109 -5.807 c .081 -2.249 -.17 -5.607 -.76 -10.067 l -.805 -6.068 c -.854 -6.444 -1.881 -11.016 -3.082 -13.712 c -1.201 -2.7 -2.917 -4.728 -5.152 -6.092 c -1.218 -.814 -2.83 -1.356 -4.844 -1.632 c -2.012 -.274 -4.131 -.261 -6.359 .031 c -2.978 .397 -5.538 1.205 -7.682 2.422 z"/><path d="m 231.101 316.028 l 10.087 -4.891 c 1.214 2.331 2.398 3.813 3.551 4.45 c 1.151 .634 2.503 .577 4.061 -.18 c 1.509 -.729 2.336 -1.77 2.479 -3.116 c .146 -1.351 -.383 -3.273 -1.594 -5.766 c -1.401 -2.893 -2.873 -4.609 -4.412 -5.142 c -1.537 -.532 -3.755 -.098 -6.652 1.307 c -.162 .081 -.437 .22 -.821 .419 c -.383 .204 -.682 .354 -.892 .455 l -3.503 -7.228 l .563 -.272 c 3.328 -1.61 5.285 -3.103 5.875 -4.473 c .591 -1.367 .234 -3.4 -1.072 -6.088 c -.974 -2.012 -2.036 -3.341 -3.178 -3.986 c -1.142 -.645 -2.411 -.631 -3.802 .044 c -1.251 .607 -1.998 1.54 -2.228 2.805 c -.235 1.262 .058 2.73 .869 4.403 l .223 .457 l -9.704 4.705 c -.139 -.167 -.264 -.353 -.38 -.56 c -.115 -.206 -.261 -.499 -.444 -.878 c -1.74 -3.589 -1.893 -6.791 -.455 -9.603 c 1.439 -2.814 4.545 -5.378 9.321 -7.692 c 4.938 -2.395 8.967 -3.142 12.088 -2.249 c 3.121 .899 5.752 3.558 7.896 7.978 c 1.356 2.797 1.886 5.253 1.588 7.373 c -.296 2.12 -1.415 3.968 -3.355 5.546 c 2.992 -.664 5.45 -.434 7.38 .692 c 1.927 1.129 3.757 3.479 5.491 7.058 c 2.249 4.633 2.663 8.682 1.248 12.142 c -1.413 3.46 -4.707 6.445 -9.879 8.951 c -4.657 2.256 -8.612 2.975 -11.871 2.158 c -3.257 -.817 -5.837 -3.195 -7.744 -7.126 c -.214 -.444 -.373 -.783 -.472 -1.014 c -.096 -.228 -.184 -.455 -.262 -.679 z"/><path d="m 225.83 179.931 c 0 23.495 -19.051 42.545 -42.546 42.545 c -23.498 0 -42.545 -19.05 -42.545 -42.545 c 0 -23.499 19.048 -42.545 42.545 -42.545 c 23.494 0 42.546 19.047 42.546 42.545 z" fill="#fff"/><g><path d="m 225.83 179.931 c 0 23.495 -19.051 42.545 -42.546 42.545 c -23.498 0 -42.545 -19.05 -42.545 -42.545 c 0 -23.499 19.048 -42.545 42.545 -42.545 c 23.494 0 42.546 19.047 42.546 42.545 z" fill="none" stroke="#000" stroke-width="6.2516"/><path d="m 200.866 183.404 c 0 5.875 -4.762 10.637 -10.636 10.637 c -5.874 0 -10.637 -4.762 -10.637 -10.637 c 0 -5.874 4.763 -10.637 10.637 -10.637 c 5.874 .001 10.636 4.763 10.636 10.637 z" fill="none" stroke="#000" stroke-width="6.2516"/><path d="m 148.652 155.26 c 0 0 9.018 16.422 32.64 22.407" fill="none" stroke="#000" stroke-width="6.2516"/><path d="m 176.782 137.878 c 0 0 17.79 11.663 11.278 34.889" fill="none" stroke="#000" stroke-width="6.2516"/><path d="m 143.456 194.811 c 0 0 24.633 4.657 37.622 -6.007" fill="none" stroke="#000" stroke-width="6.2516"/><path d="m 178.864 222.25 c 0 0 8.761 -11.929 8.015 -28.755" fill="none" stroke="#000" stroke-width="6.2516"/><path d="m 208.03 214.229 c 0 0 0 -12.59 -9.859 -23.763" fill="none" stroke="#000" stroke-width="6.2516"/><path d="m 225.655 182.362 c 0 0 -10.419 6.252 -24.789 1.042" fill="none" stroke="#000" stroke-width="6.2516"/><path d="m 196.152 174.57 c 0 0 16.653 -5.927 18.458 -23.355" fill="none" stroke="#000" stroke-width="6.2516"/></g></g></svg>