<?xml version="1.0" encoding="iso-8859-1"?>
<!-- Generator: Adobe Illustrator 24.0.1, SVG Export Plug-In . SVG Version: 6.00 Build 0)  -->
<svg version="1.1" id="Layer_1" xmlns="http://www.w3.org/2000/svg" xmlns:xlink="http://www.w3.org/1999/xlink" x="0px" y="0px"
	 viewBox="0 0 660 660" style="enable-background:new 0 0 660 660;" xml:space="preserve">
<path style="fill:#FFFFFF;" d="M332.05,643.649c0,0,21.749,2.905,39.154-14.497c17.405-17.401,41.502-38.729,116.01-78.306
	c46.403-24.657,43.504-111.665,43.504-111.665s0.45-116.911,37.7-175.46c20.307-31.9,18.854-68.157,18.854-68.157
	s2.897-43.503-52.205-62.353c-55.102-18.851-93.252-31.231-153.715-87.008c-28.289-26.101-49.304-26.101-49.304-26.101
	s-21.012,0-49.306,26.101c-60.463,55.777-98.605,68.157-153.71,87.008c-55.106,18.851-52.205,62.353-52.205,62.353
	s-1.449,36.257,18.849,68.157c37.255,58.548,37.706,175.46,37.706,175.46s-2.902,87.007,43.503,111.665
	c74.508,39.577,98.604,60.905,116.011,78.306C310.303,646.554,332.05,643.649,332.05,643.649z"/>
<path style="fill:#2E3192;" d="M140.296,166.143l3.024-1.033c54.906-18.77,98.279-33.596,163.024-93.325
	c12.346-11.389,21.692-13.462,25.706-14.682c4.016,1.22,13.362,3.293,25.708,14.682c64.745,59.729,108.12,74.555,163.026,93.325
	l3.027,1.033c26.356,9.019,28.615,23.963,28.683,28.327c0,0,0-0.072,0-0.081c0,0,0,2.456,0,2.706
	c0,3.412-0.483,27.589-13.433,47.944c-41.455,65.154-43.094,181.016-43.146,194.008l0.018,1.206c0.034,1.198,0.05,2.422,0.05,3.679
	c0,26.637-7.579,66.878-25.091,76.182c-78.45,41.677-105.292,65.435-124.296,84.433c-4.673,4.664-13.897,6.133-14.547,6.1
	c-1.109-0.119-9.872-1.437-14.545-6.1c-19.003-18.998-45.845-42.756-124.291-84.433c-18.34-9.745-25.789-53.42-25.045-79.861
	l0.018-1.206c-0.052-12.992-1.687-128.854-43.146-194.008c-13.897-21.841-13.434-48.088-13.427-48.347l0.026-1.143l-0.085-2.298
	l0.051,1.218C111.67,190.106,113.928,175.162,140.296,166.143z"/>
<path style="fill:#FFFFFF;" d="M544.886,194.676c-0.102-3.15-2.102-13.998-23.539-21.331l-3.028-1.032
	c-34.981-11.958-65.426-22.391-99.988-43.895c0,3.881,0,7.826,0,7.949c0.026,0.288,0.065,0.807,0.065,1.693
	c0,5.659-1.759,22.399-21.033,35.89c-23.373,16.362-135.882,98.802-195.489,150.959c-22.122,19.353-27.66,47.224-28.988,62.302
	c2.609,26.413,2.889,46.323,2.914,51.867l-0.019,1.391c-0.029,1.066-0.045,2.159-0.045,3.275c0,25.449,7.591,62.495,21.05,69.639
	c17.745,9.425,33.298,18.199,47.53,26.751c0-8.412,0-33.88,0-33.88c0-1.665,0.337-41.017,29.552-63.491
	c27.668-21.283,110.677-79.878,185.039-130.619c35.472-24.205,54.069-42.069,73.098-70.271c0.178-0.382,0.362-0.719,0.489-0.936
	c0.18-0.309,0.512-0.829,0.94-1.327c11.114-18.471,11.45-40.318,11.45-42.67c0-0.079-0.001-0.137-0.001-0.17
	c0,0,0.01-1.309,0.015-2.093H544.886z"/>
<path style="fill:#FFFFFF;" d="M303.473,475.747c-0.424,7.416-3.516,14.546-9.194,21.231c0.855,1.178,2.417,3.329,3.464,4.771
	c0.045-0.033,0.199-0.144,0.199-0.144c5-3.635,6.977-4.314,8.037-4.51c1.854-0.332,3.513,0.078,4.801,1.181
	c0.657,0.561,2.08,2.061,6.815,8.592c0,0,21.145,29.103,22.915,31.536c1.995-1.45,10.651-7.745,12.645-9.195
	c-1.794-2.471-40.791-56.149-42.587-58.622C308.795,471.877,304.361,475.1,303.473,475.747z"/>
<path style="fill:#FFFFFF;" d="M375.955,473.499l-6.181-8.514c-4.831-6.646-8.239-11.1-10.124-13.232
	c-1.738-1.961-3.995-3.457-6.705-4.444c-2.662-0.972-5.597-1.111-8.723-0.416c-3.198,0.711-6.789,2.5-10.674,5.318
	c-3.11,2.258-5.53,4.728-7.195,7.34c-1.618,2.539-2.491,5.092-2.597,7.586c-0.107,2.507,0.369,4.826,1.417,6.895
	c1.126,2.239,3.246,5.504,6.298,9.707l3.544,4.871c2.517,3.465,4.804,6.035,6.795,7.64c1.826,1.466,4.108,2.16,6.983,2.122
	c2.922-0.038,5.57-0.951,8.101-2.791c2.001-1.451,3.423-3.026,4.227-4.684c0.768-1.591,0.972-3.248,0.623-5.074l2.921-1.267
	l7.057,9.712c0,0,3.287,4.724,3.301,4.746c0.687,1.151,0.919,2.356,0.697,3.583c-0.228,1.257-0.908,2.309-2.032,3.133
	c-1.268,0.907-2.575,1.285-3.902,1.125c-1.293-0.17-2.396-0.76-3.28-1.746c-0.553-0.617-1.616-2.002-3.173-4.122
	c-1.981,1.438-10.539,7.655-12.601,9.151c2.33,2.944,4.734,5.151,7.173,6.479h0.004c2.732,1.496,5.715,1.958,9.114,1.41
	c3.454-0.548,7.28-2.33,11.363-5.287c3.297-2.41,5.833-5.047,7.542-7.845c1.7-2.779,2.508-5.601,2.47-8.627
	c-0.039-3.002-0.78-5.715-2.199-8.058C384.632,485.647,381.186,480.698,375.955,473.499z M357.928,484.41
	c-1.026,0.749-2.315,1.048-3.842,0.882c-1.631-0.19-3.349-1.636-5.571-4.691l-8.294-11.419c-2.412-3.322-3.337-5.549-2.996-7.224
	c0.319-1.571,0.984-2.723,1.953-3.412c1.961-1.432,3.722-1.11,4.852-0.588c1.355,0.629,2.993,2.311,5.155,5.288l8.02,11.042
	c1.849,2.555,2.753,4.423,2.849,5.88C360.128,481.336,359.82,483.023,357.928,484.41z"/>
<path style="fill:#FFFFFF;" d="M421.073,451.254l-14.836-20.418c-3.285-4.521-5.914-7.671-7.816-9.364
	c-1.826-1.617-3.905-2.769-6.194-3.429c-2.247-0.663-5.019-0.65-8.238,0.039c-3.253,0.695-6.499,2.206-9.648,4.492
	c-3.84,2.786-6.564,5.975-8.093,9.478c-1.506,3.451-1.774,6.654-0.815,9.8c1.003,3.304,3.52,7.744,7.481,13.195l15.519,21.368
	c3.031,4.165,5.531,7.004,7.433,8.438c1.852,1.404,4.074,2.467,6.607,3.159c2.417,0.66,5.023,0.584,7.741-0.225
	c2.851-0.864,6.063-2.58,9.537-5.102c2.593-1.893,4.694-4,6.239-6.268c1.481-2.184,2.349-4.662,2.579-7.355
	c0.04-0.513,0.061-1.019,0.061-1.517c0-2.144-0.379-4.133-1.13-5.933C426.505,459.238,424.344,455.754,421.073,451.254z
	 M413.919,476.493c-2.194,1.593-3.902,1.052-4.72,0.588c-0.798-0.445-2.1-1.571-5.69-6.521l-21.657-29.814
	c-3.247-4.451-3.9-6.123-4.106-6.991c-0.249-1.021-0.332-2.981,1.889-4.608c2.262-1.653,4.05-0.967,4.928-0.4
	c0.745,0.49,2.021,1.634,5.316,6.162l21.989,30.276c3.062,4.222,3.711,5.814,3.932,6.716
	C416.058,472.917,416.158,474.866,413.919,476.493z"/>
<path style="fill:#FFFFFF;" d="M461.434,421.941l-14.844-20.418c-3.292-4.525-5.925-7.677-7.827-9.366
	c-1.841-1.634-3.861-2.756-6.178-3.431c-2.27-0.66-5.047-0.649-8.252,0.038c-3.251,0.698-6.495,2.21-9.639,4.492
	c-3.84,2.786-6.561,5.974-8.09,9.479c-1.511,3.445-1.777,6.651-0.815,9.806c0.985,3.274,3.501,7.711,7.472,13.192l15.534,21.362
	c3.013,4.158,5.51,6.997,7.424,8.444c1.85,1.404,4.074,2.467,6.607,3.159c2.451,0.67,4.987,0.594,7.75-0.234
	c2.832-0.854,6.036-2.569,9.521-5.104c2.597-1.879,4.694-3.985,6.237-6.26c1.489-2.182,2.354-4.656,2.577-7.359
	c0.229-2.697-0.125-5.201-1.053-7.441C466.876,429.95,464.713,426.465,461.434,421.941z M454.274,447.184
	c-2.093,1.506-3.73,1.142-4.712,0.581c-0.79-0.432-2.083-1.546-5.702-6.52l-21.668-29.819c-3.212-4.449-3.876-6.072-4.095-6.987
	c-0.431-1.785,0.243-3.422,1.892-4.608c2.284-1.662,4.062-0.96,4.908-0.401c0.751,0.487,2.036,1.629,5.325,6.165l21.998,30.275l0,0
	c3.072,4.223,3.721,5.81,3.944,6.723C456.41,443.605,456.495,445.542,454.274,447.184z"/>
<path style="fill:#2E3192;" d="M249.598,356.975c-0.808-1.025-1.875-2.456-3.208-4.292l-3.913-5.387
	c-3.021-4.155-4.656-6.958-4.919-8.42c-0.264-1.456,0.438-2.79,2.103-4.001c2.825-2.052,5.522-2.736,8.088-2.048
	c2.566,0.688,5.119,2.775,7.657,6.266c3.326,4.576,5.016,8.314,5.079,11.204c0.061,2.892-1.456,5.458-4.548,7.705
	c-0.387,0.281-0.863,0.57-1.42,0.855c-0.557,0.289-1.388,0.65-2.484,1.092C251.218,358.994,250.405,358,249.598,356.975z
	 M264.612,373.103c0.433-0.464,0.938-0.909,1.52-1.334c4.347-3.157,11.483-0.591,21.417,7.694c1.031,0.857,1.784,1.478,2.239,1.86
	c0.154,0.133,0.319,0.276,0.502,0.442c7.781,6.391,14.159,9.745,19.129,10.065c2.808,0.174,5.796-0.339,8.965-1.543
	c3.174-1.198,6.554-3.101,10.137-5.702c6.037-4.383,10.218-8.794,12.554-13.232c2.336-4.44,2.46-8.103,0.365-10.988
	c-1.614-2.221-4.865-2.663-9.751-1.321c-0.546,0.161-0.997,0.28-1.355,0.361c-1.332,0.374-3.938-1.372-7.811-5.238
	c-0.739-0.774-1.336-1.381-1.781-1.836c-3.943-3.871-7.571-6.635-10.88-8.284c-3.309-1.652-6.725-2.451-10.246-2.396
	c-1.722,0-4.024,0.51-6.904,1.53c-2.881,1.022-4.647,1.079-5.302,0.177c-0.536-0.738-0.239-2.234,0.9-4.495
	c0.728-1.362,1.245-2.484,1.555-3.363c1.372-3.731,1.768-7.422,1.18-11.072c-0.581-3.649-2.129-7.208-4.647-10.676
	c-5.254-7.239-12.035-10.804-20.32-10.702c-8.289,0.107-17.538,3.867-27.742,11.279c-1.988,1.445-5.528,4.133-10.611,8.072
	c-5.086,3.939-9.249,7.079-12.482,9.428c-1.99,1.444-4.319,3.114-6.996,4.996c-2.682,1.881-4.369,3.077-5.069,3.586
	c-5.224,3.797-8.738,7.233-10.54,10.324c-1.81,3.084-1.878,5.772-0.216,8.058c1.631,2.248,4.55,3.031,8.751,2.341
	c1.49-0.255,2.625-0.395,3.395-0.42c1.354-0.034,3.262,1.266,5.718,3.896c2.451,2.629,7.179,8.764,14.181,18.398l3.228,4.445
	c6.496,8.943,11.412,16.348,14.744,22.219c3.33,5.87,4.707,9.406,4.128,10.595c-0.212,0.458-0.475,1.003-0.79,1.648
	c-2.022,4.088-2.201,7.283-0.535,9.586c2.123,2.914,5.518,3.662,10.191,2.227c4.674-1.429,11.276-5.234,19.812-11.439
	c8.529-6.202,14.034-11.113,16.516-14.732c2.476-3.636,2.665-6.894,0.558-9.797c-1.735-2.388-4.733-3.382-8.986-2.99
	c-1.233,0.115-2.155,0.161-2.77,0.126c-0.9,0-1.925-0.544-3.08-1.638c-1.151-1.096-3.055-3.471-5.714-7.129l-8.391-11.552
	C263.762,374.057,264.178,373.565,264.612,373.103z"/>
<path style="fill:#2E3192;" d="M353.642,350.904c-1.765-2.431-1.787-5.684-0.056-9.749c0.6-1.457,1.005-2.532,1.22-3.225
	c0.5-1.668-0.457-4.621-2.881-8.857c-2.422-4.231-7.553-11.747-15.395-22.543c-1.355-1.861-3.06-4.249-5.108-7.15
	c-2.047-2.901-3.454-4.876-4.217-5.927c-3.047-4.192-5.409-7.061-7.096-8.598c-1.683-1.533-3.221-2.33-4.622-2.379
	c-0.722-0.013-1.789,0.043-3.186,0.158c-3.917,0.335-6.663-0.578-8.235-2.738c-2.19-3.021-1.851-6.694,1.02-11.028
	c2.868-4.334,8.306-9.405,16.302-15.214c7.876-5.722,14.156-9.219,18.833-10.498c4.678-1.272,8.097-0.424,10.256,2.551
	c1.568,2.153,1.826,4.731,0.789,7.727c-1.041,3-1.542,4.6-1.507,4.813c0.021,1.653,2.23,5.852,6.614,12.581
	c4.393,6.737,11.832,17.316,22.313,31.744c2.974,4.1,5.226,6.87,6.763,8.318c1.53,1.453,2.914,2.26,4.165,2.423
	c0.78,0.088,1.995,0.122,3.652,0.102c4.028-0.025,6.816,1.023,8.362,3.156c2.142,2.94,1.759,6.546-1.138,10.808
	c-2.899,4.27-8.414,9.35-16.528,15.247c-7.536,5.482-13.956,8.944-19.253,10.397C359.411,354.478,355.724,353.767,353.642,350.904z"
	/>
<path style="fill:#2E3192;" d="M416.946,305.265c-2.03-2.797-2.03-6.109-0.008-9.958c0.51-1.02,0.892-1.802,1.156-2.346
	c0.561-1.423-0.152-3.968-2.166-7.643c-2.016-3.671-6.382-10.128-13.094-19.377c-6.637-9.125-12.142-16.373-16.519-21.743
	c-4.375-5.365-7.103-8.255-8.173-8.667c-1.13-0.421-2.574-0.361-4.334,0.169c-1.753,0.537-2.854,0.783-3.292,0.744
	c-1.503-0.106-2.643-0.357-3.411-0.765c-0.769-0.404-1.482-1.057-2.137-1.962c-1.801-2.477-2.175-5.035-1.114-7.668
	c1.067-2.635,3.57-5.385,7.507-8.247c0.349-0.254,2.694-1.866,7.036-4.83c4.334-2.966,8.447-5.868,12.355-8.702
	c13.018-9.462,24.997-19.046,35.924-28.761c1.445-1.292,2.277-2.027,2.515-2.196c2.65-1.925,6.491-1.687,11.506,0.709
	c5.012,2.396,9.379,6.148,13.084,11.246c1.955,2.692,2.872,5.199,2.753,7.52c-0.119,2.318-1.249,4.251-3.382,5.798
	c-1.937,1.406-5.251,1.615-9.94,0.611c-1.037-0.195-1.836-0.364-2.397-0.488c-4.265-0.757-8.105-0.645-11.521,0.327
	c-3.424,0.974-7.697,3.327-12.831,7.054c-2.19,1.592-3.754,3.011-4.68,4.252c-0.926,1.239-1.24,2.311-0.935,3.223
	c0.45,1.279,1.606,3.477,3.483,6.585c1.869,3.11,4.079,6.419,6.627,9.925c0.741,1.02,1.47,1.486,2.192,1.401
	c0.733-0.081,2.406-1.07,5.006-2.971c1.861-1.349,2.999-2.608,3.414-3.78c0.426-1.172,0.272-2.664-0.441-4.482
	c-0.152-0.365-0.357-0.866-0.645-1.503c-2.014-4.576-1.597-7.898,1.241-9.967c2.838-2.062,6.066-2.009,9.652,0.148
	c3.593,2.158,7.86,6.631,12.797,13.421c5.064,6.984,8.088,12.672,9.073,17.058c0.97,4.393-0.051,7.68-3.058,9.863
	c-1.173,0.855-2.532,1.233-4.078,1.135c-1.53-0.102-2.804-0.628-3.79-1.579c-0.391-0.372-0.899-0.864-1.52-1.48
	c-4.954-4.911-9.296-6.011-13.027-3.295c-1.775,1.287-2.769,2.341-2.99,3.147c-0.212,0.816,0.459,2.294,2.006,4.434l0.476,0.644
	c4.06,5.593,7.366,9.651,9.907,12.166c2.54,2.516,4.485,3.637,5.845,3.36c0.987-0.186,2.27-0.641,3.823-1.369
	c1.564-0.716,2.566-1.096,3.026-1.133c1.64-0.113,3.041,0.072,4.214,0.569c1.164,0.497,2.2,1.368,3.11,2.617
	c2.463,3.403,2.344,7.232-0.358,11.496c-2.701,4.262-8.513,9.637-17.435,16.119c-9.16,6.653-16.254,10.677-21.275,12.077
	C423.089,309.571,419.367,308.599,416.946,305.265z"/>
<path style="fill:#FFFFFF;" d="M267.211,165.254c0,0-22.579,7.783-25.243,8.701c0.05,2.697,0.448,25.605,0.496,28.303
	c2.583,0.789,24.466,7.477,27.05,8.268c1.551-2.213,14.686-20.97,16.237-23.184c-1.627-2.157-15.417-20.448-17.044-22.605
	C267.96,164.995,267.211,165.254,267.211,165.254z"/>
<path style="fill:#FFFFFF;" d="M215.615,179.703c5.082-4.444,10.592-8.425,16.374-11.831c0,0,0.433-0.256,0.866-0.511
	c0.086-0.502,0.169-0.999,0.169-0.999c1.107-6.437,2.917-12.929,5.393-19.292c0,0,0.648-1.681,1.303-3.364
	c-1.793,0.209-3.581,0.415-3.581,0.415s-6.101,0.703-7.129,0.82c-0.237,0.188-0.476,0.374-0.476,0.374
	c-8.449,6.581-14.699,15.503-18.072,25.809c0,0-0.102,0.305-0.198,0.611c0.224,0.855,1.729,6.555,2.714,10.278
	C214.294,180.858,215.615,179.703,215.615,179.703z"/>
<path style="fill:#FFFFFF;" d="M233.602,209.845c0,0-0.11-0.501-0.22-0.999c-0.455-0.234-0.911-0.472-0.911-0.472
	c-5.57-2.862-11.118-6.546-16.487-10.952c0,0-1.355-1.109-2.714-2.221c-0.393,1.708-0.787,3.415-0.787,3.415
	s-1.364,5.898-1.61,6.959c0.116,0.305,0.227,0.608,0.227,0.608c3.754,10.158,10.306,18.854,18.942,25.142
	c0,0,0.259,0.187,0.518,0.378c0.876,0.052,6.751,0.392,10.591,0.612c-0.688-1.612-1.372-3.226-1.372-3.226
	C237.099,222.772,235.022,216.298,233.602,209.845z"/>
<path style="fill:#FFFFFF;" d="M274.188,221.336c0,0-0.49-0.041-0.978-0.089c-0.355,0.335-0.713,0.672-0.713,0.672
	c-4.822,4.554-10.131,8.705-15.783,12.336c0,0-1.479,0.957-2.96,1.914c3.325,1.962,8.41,4.967,9.166,5.411
	c0.324-0.012,0.642-0.024,0.642-0.024c10.932-0.407,21.25-3.973,29.835-10.315c0,0,0.256-0.188,0.511-0.378
	c0.314-0.817,2.405-6.268,3.782-9.858c-1.751,0.171-3.501,0.346-3.501,0.346C287.839,221.969,281.108,221.966,274.188,221.336z"/>
<path style="fill:#FFFFFF;" d="M312.895,171.121c0,0-0.102-0.311-0.2-0.617c-0.683-0.555-5.258-4.277-8.245-6.708
	c-0.387,1.708-0.773,3.421-0.773,3.421c-1.457,6.452-3.547,12.855-6.215,19.032c0,0-0.192,0.445-0.388,0.897
	c0.204,0.44,0.413,0.881,0.413,0.881l6.886,18.821c0,0,0.452,1.713,0.896,3.424c2.903-2.566,7.342-6.488,7.992-7.06
	c0.086-0.306,0.175-0.609,0.175-0.609c1.401-4.864,2.102-9.852,2.102-14.843C315.537,182.163,314.653,176.554,312.895,171.121z"/>
<path style="fill:#FFFFFF;" d="M271.413,153.401c0,0,0.383,0.339,0.761,0.676c0.501-0.076,1.007-0.15,1.007-0.15
	c6.457-0.978,13.19-1.252,20.014-0.841c0,0,1.814,0.111,3.624,0.222c-1.653-3.599-4.171-9.07-4.521-9.834
	c-0.255-0.171-0.505-0.341-0.505-0.341c-8.91-6.028-19.316-9.219-30.099-9.232c0,0-0.324,0-0.651,0
	c-0.266,0.174-5.701,3.704-8.917,5.791c1.5,0.896,2.999,1.788,2.999,1.788C260.941,144.959,266.422,148.969,271.413,153.401z"/>
</svg>
