<?xml version="1.0" encoding="UTF-8" standalone="no"?>
<svg
   xmlns:dc="http://purl.org/dc/elements/1.1/"
   xmlns:cc="http://creativecommons.org/ns#"
   xmlns:rdf="http://www.w3.org/1999/02/22-rdf-syntax-ns#"
   xmlns:svg="http://www.w3.org/2000/svg"
   xmlns="http://www.w3.org/2000/svg"
   xmlns:sodipodi="http://sodipodi.sourceforge.net/DTD/sodipodi-0.dtd"
   xmlns:inkscape="http://www.inkscape.org/namespaces/inkscape"
   version="1.1"
   id="Layer_1"
   x="0px"
   y="0px"
   viewBox="0 0 1000 1000"
   xml:space="preserve"
   sodipodi:docname="Roskilde Bk .svg"
   width="1000"
   height="1000"
   inkscape:version="1.0.1 (3bc2e813f5, 2020-09-07)"><metadata
   id="metadata59"><rdf:RDF><cc:Work
       rdf:about=""><dc:format>image/svg+xml</dc:format><dc:type
         rdf:resource="http://purl.org/dc/dcmitype/StillImage" /><dc:title></dc:title></cc:Work></rdf:RDF></metadata><defs
   id="defs57" /><sodipodi:namedview
   pagecolor="#ffffff"
   bordercolor="#666666"
   borderopacity="1"
   objecttolerance="10"
   gridtolerance="10"
   guidetolerance="10"
   inkscape:pageopacity="0"
   inkscape:pageshadow="2"
   inkscape:window-width="1920"
   inkscape:window-height="1017"
   id="namedview55"
   showgrid="false"
   inkscape:zoom="1.3358586"
   inkscape:cx="396"
   inkscape:cy="306"
   inkscape:window-x="-8"
   inkscape:window-y="-8"
   inkscape:window-maximized="1"
   inkscape:current-layer="Layer_1" />
<g
   id="g910"
   transform="matrix(3.0049596,0,0,3.0049596,-31.774412,-25.815572)"><g
     id="g52">
	<circle
   style="fill:#0066b3"
   cx="168.646"
   cy="166.66299"
   r="158.07201"
   id="circle2" />
	<path
   style="fill:#ffffff"
   d="m 77.172,234.493 12.551,13.474 c 3.746,4.02 4.762,9.559 0.421,13.603 -2.38,2.217 -5.907,3.459 -8.962,1.923 1.059,2.618 0.045,5.784 -2.578,8.708 -1.036,1.145 -3.739,3.722 -4.201,5.355 l -6.591,-7.073 c 0.829,-1.434 1.898,-2.669 2.999,-3.876 2.006,-2.23 4.109,-4.55 1.503,-7.347 l -3.504,-3.762 -8.006,7.46 -6.591,-7.075 z m -3.442,16.421 3.444,3.698 c 1.229,1.318 3.131,2.909 5.189,0.992 1.447,-1.349 1.534,-2.931 -0.982,-5.631 l -3.086,-3.313 z"
   id="path4" />
	<path
   style="fill:#ffffff"
   d="m 110.822,263.418 c 8.138,4.974 10,14.146 5.005,22.321 -4.995,8.175 -14.008,10.703 -22.146,5.731 -8.137,-4.973 -10,-14.146 -5.004,-22.32 4.995,-8.176 14.008,-10.704 22.145,-5.732 z m -13.06,21.377 c 2.098,1.282 6.172,1.867 9.815,-4.096 3.644,-5.964 1.267,-9.322 -0.834,-10.604 -2.1,-1.283 -6.172,-1.868 -9.815,4.097 -3.645,5.961 -1.267,9.321 0.834,10.603 z"
   id="path6" />
	<path
   style="fill:#ffffff"
   d="m 126.977,294.685 c -0.225,0.757 -0.299,1.469 -0.251,2.08 0.135,2.009 2.045,2.989 3.772,3.502 1.516,0.451 3.983,0.635 4.647,-1.597 0.462,-1.56 -0.718,-2.369 -5.461,-5.383 -4.359,-2.762 -9.403,-5.683 -7.602,-11.749 2.066,-6.95 8.894,-8.175 15.086,-6.334 6.529,1.939 11.561,6.14 9.635,13.545 l -8.762,-2.604 c 0.507,-1.088 0.227,-1.996 -0.38,-2.728 -0.596,-0.774 -1.587,-1.295 -2.513,-1.572 -1.264,-0.375 -3.428,-0.652 -3.929,1.032 -0.469,2.199 3.69,3.94 7.593,6.384 3.903,2.444 7.527,5.675 5.887,11.193 -2.329,7.834 -10.282,8.221 -16.98,6.232 -3.412,-1.016 -12.779,-5.129 -10.009,-14.758 z"
   id="path8" />
	<path
   style="fill:#ffffff"
   d="m 151.492,280.161 9.665,0.283 -0.316,10.808 0.088,0.002 8.925,-10.554 11.905,0.348 -11.736,11.922 12.663,19.497 -12.037,-0.352 -7.373,-12.438 -2.767,2.864 -0.271,9.27 -9.664,-0.282 z"
   id="path10" />
	<path
   style="fill:#ffffff"
   d="m 183.34,279.833 9.533,-1.606 5.214,30.939 -9.532,1.607 z"
   id="path12" />
	<path
   style="fill:#ffffff"
   d="m 196.21,277.951 9.118,-3.207 7.736,22.013 13.099,-4.605 2.665,7.586 -22.217,7.81 z"
   id="path14" />
	<path
   style="fill:#ffffff"
   d="m 220.032,269.651 13.175,-8.845 c 8.688,-5.829 16.064,-1.464 20.474,5.106 5.365,7.991 4.537,15.907 -4.55,22.008 l -11.606,7.788 z m 21.039,13.991 3.139,-2.108 c 5,-3.355 3.009,-7.897 1.369,-10.342 -1.103,-1.643 -4.676,-5.86 -10.479,-1.966 l -2.554,1.717 z"
   id="path16" />
	<path
   style="fill:#ffffff"
   d="m 245.885,251.667 17.055,-19.589 6.066,5.281 -10.706,12.296 2.95,2.568 9.725,-11.169 5.634,4.905 -9.726,11.17 2.95,2.568 11.024,-12.66 6.067,5.278 -17.375,19.953 z"
   id="path18" />
	<path
   style="fill:#ffffff"
   d="m 31.427,204.775 -1.626,-9.53 10.655,-1.819 -0.015,-0.087 -12.105,-6.669 -2.004,-11.738 14.001,9.155 16.614,-16.254 2.027,11.867 -10.739,9.68 3.352,2.145 9.14,-1.559 1.626,9.528 z"
   id="path20" />
	<path
   style="fill:#ffffff"
   d="m 26.553,165.109 2.2,-24.156 8.009,0.73 -1.325,14.529 3.895,0.354 1.136,-12.472 7.439,0.68 -1.136,12.47 11.903,1.085 -0.877,9.628 z"
   id="path22" />
	<path
   style="fill:#ffffff"
   d="m 57.825,112.726 c 8.216,2.87 10.606,8.686 7.446,17.729 -3.159,9.045 -8.667,12.149 -16.881,9.279 l -18.172,-6.348 3.189,-9.126 16.138,5.638 c 3.029,1.058 6.804,2.376 8.355,-2.062 1.507,-4.316 -2.268,-5.634 -5.298,-6.693 l -16.139,-5.636 3.189,-9.129 z"
   id="path24" />
	<path
   style="fill:#ffffff"
   d="m 45.038,95.071 8.374,-10.916 17.376,7.679 0.052,-0.07 -11.918,-14.793 8.374,-10.917 24.901,19.102 -5.564,7.255 -15.974,-12.254 -0.054,0.069 12.656,16.577 -4.388,5.72 -19.29,-7.928 -0.054,0.069 15.973,12.252 -5.564,7.255 z"
   id="path26" />
	<path
   style="fill:#ffffff"
   d="m 73.262,59.546 7.015,-5.859 4.422,5.294 c 2.647,3.17 3.986,7.034 1.801,10.519 -0.876,1.417 -1.92,2.29 -2.563,2.827 l -2.449,-2.935 c 1.539,-1.515 1.604,-3.973 0.353,-5.677 l -3.001,2.507 z"
   id="path28" />
	<path
   style="fill:#ffffff"
   d="m 102.681,65.367 c 0.407,0.679 0.883,1.214 1.366,1.59 1.575,1.258 3.587,0.511 5.131,-0.418 1.356,-0.814 3.157,-2.512 1.957,-4.508 -0.837,-1.393 -2.231,-1.069 -7.657,0.397 -4.982,1.353 -10.542,3.104 -13.803,-2.32 -3.734,-6.215 -0.03,-12.08 5.508,-15.409 5.839,-3.508 12.334,-4.387 16.499,2.032 l -7.835,4.709 c -0.461,-1.109 -1.319,-1.515 -2.269,-1.56 -0.973,-0.082 -2.028,0.294 -2.856,0.793 -1.13,0.678 -2.794,2.089 -1.889,3.596 1.305,1.83 5.395,-0.063 9.834,-1.295 4.438,-1.231 9.269,-1.725 12.233,3.21 4.212,7.006 -0.873,13.136 -6.863,16.736 -3.051,1.834 -12.408,5.97 -17.645,-2.574 z"
   id="path30" />
	<path
   style="fill:#ffffff"
   d="m 133.21,28.841 16.98,-2.637 c 8.165,-1.267 10.616,3.065 11.108,6.236 0.485,3.125 -0.771,5.055 -2.876,6.672 2.927,0.525 5.876,2.333 6.584,6.894 0.965,6.209 -3.921,10.26 -9.393,11.109 l -17.588,2.732 z m 13.222,22.14 5.603,-0.87 c 1.997,-0.31 3.647,-1.145 3.276,-3.532 -0.284,-1.825 -1.524,-2.656 -3.783,-2.305 l -5.992,0.932 z m -1.792,-11.552 5.037,-0.781 c 1.997,-0.311 3.17,-1.071 2.859,-3.068 -0.244,-1.563 -1.634,-1.925 -3.588,-1.621 l -5.037,0.781 z"
   id="path32" />
	<path
   style="fill:#ffffff"
   d="m 187.198,25.51 c 9.456,1.237 14.885,8.86 13.643,18.361 -1.242,9.499 -8.451,15.47 -17.907,14.232 -9.455,-1.237 -14.885,-8.861 -13.642,-18.36 1.243,-9.499 8.449,-15.471 17.906,-14.233 z m -3.249,24.837 c 2.44,0.32 6.398,-0.803 7.306,-7.73 0.905,-6.929 -2.63,-9.032 -5.071,-9.351 -2.441,-0.319 -6.398,0.803 -7.305,7.731 -0.907,6.928 2.63,9.031 5.07,9.35 z"
   id="path34" />
	<path
   style="fill:#ffffff"
   d="m 212.703,31.571 8.927,3.714 -8.962,21.545 12.82,5.334 -3.088,7.426 -21.748,-9.047 z"
   id="path36" />
	<path
   style="fill:#ffffff"
   d="m 243.68,45.625 12.55,9.705 c 8.273,6.398 6.461,14.775 1.623,21.032 -5.886,7.613 -13.656,9.326 -22.312,2.632 l -11.055,-8.548 z m -6.626,24.373 2.989,2.312 c 4.763,3.683 8.442,0.363 10.243,-1.966 1.21,-1.565 4.083,-6.287 -1.444,-10.561 l -2.433,-1.882 z"
   id="path38" />
	<path
   style="fill:#ffffff"
   d="m 275.099,72.144 5.669,7.831 -8.758,6.338 0.052,0.072 13.807,0.64 6.982,9.647 -16.606,-2.031 -7.73,21.923 -7.059,-9.754 5.361,-13.429 -3.958,-0.445 -7.51,5.435 -5.669,-7.832 z"
   id="path40" />
	<path
   style="fill:#ffffff"
   d="m 296.948,105.485 3.454,9.028 -21.793,8.339 4.962,12.968 -7.512,2.875 -8.417,-21.997 z"
   id="path42" />
	<path
   style="fill:#ffffff"
   d="m 291.896,167.737 c -8.65,0.93 -13.303,-3.298 -14.327,-12.822 -1.022,-9.523 2.622,-14.689 11.271,-15.617 l 19.135,-2.056 1.033,9.61 -16.994,1.826 c -3.189,0.343 -7.164,0.771 -6.663,5.445 0.49,4.543 4.464,4.116 7.655,3.772 l 16.993,-1.826 1.033,9.612 z"
   id="path44" />
	<path
   style="fill:#ffffff"
   d="m 310.612,177.136 -2.9,16.936 c -1.395,8.143 -6.281,9.09 -9.443,8.549 -3.12,-0.535 -4.549,-2.338 -5.41,-4.85 -1.43,2.608 -4.083,4.829 -8.631,4.051 -6.194,-1.061 -8.48,-6.979 -7.546,-12.438 l 3.003,-17.543 z m -25.195,5.494 -0.957,5.587 c -0.341,1.993 -0.075,3.82 2.307,4.229 1.819,0.312 3.003,-0.601 3.388,-2.854 l 1.023,-5.977 z m 11.521,1.973 -0.86,5.024 c -0.34,1.993 0.008,3.344 1.999,3.685 1.56,0.267 2.346,-0.936 2.678,-2.884 l 0.861,-5.024 z"
   id="path46" />
	<path
   style="fill:#0066b3;stroke:#ffffff;stroke-width:7.3256"
   d="m 168.646,260.835 c 52.008,0 94.17,-42.164 94.17,-94.172 0,-52.008 -42.163,-94.17 -94.17,-94.17 -52.007,0 -94.172,42.162 -94.172,94.17 0,52.008 42.165,94.172 94.172,94.172 z"
   id="path48" />
	<polygon
   style="fill:#0066b3;stroke:#ffffff;stroke-width:7.3256"
   points="94.612,123.304 242.679,123.304 168.646,251.533 "
   id="polygon50" />
</g></g>
</svg>
