<?xml version="1.0" encoding="iso-8859-1"?>
<!-- Generator: Adobe Illustrator 24.0.1, SVG Export Plug-In . SVG Version: 6.00 Build 0)  -->
<svg version="1.1" id="Layer_1" xmlns="http://www.w3.org/2000/svg" xmlns:xlink="http://www.w3.org/1999/xlink" x="0px" y="0px"
	 viewBox="0 0 660 660" style="enable-background:new 0 0 660 660;" xml:space="preserve">
<ellipse transform="matrix(0.7071 -0.7071 0.7071 0.7071 -138.1159 333.4186)" style="fill:#004FA3;" cx="333.414" cy="333.43" rx="313.02" ry="313.021"/>
<ellipse transform="matrix(0.7071 -0.7071 0.7071 0.7071 -138.1159 333.418)" style="fill:none;stroke:#FFFFFF;stroke-width:4.4798;" cx="333.413" cy="333.43" rx="291.108" ry="291.109"/>
<path style="fill:none;" d="M516.811,333.431c0,101.288-82.106,183.398-183.397,183.398c-101.29,0-183.4-82.109-183.4-183.398
	c0-101.29,82.111-183.4,183.4-183.4C434.705,150.031,516.811,232.14,516.811,333.431z"/>
<ellipse transform="matrix(0.2556 -0.9668 0.9668 0.2556 -74.163 570.5406)" style="fill:none;" cx="333.414" cy="333.43" rx="183.398" ry="183.397"/>
<g>
	<path style="fill:#FFFFFF;" d="M328.894,150.086c-45.23,1.094-86.4,18.562-117.813,46.701c0,0,34.16-1.13,44.445,37.079
		c0,0,2.939,23.514,38.21,23.514c0,0,35.268,4.407,35.268-37.475L328.894,150.086z"/>
	<path style="fill:#FFFFFF;" d="M337.935,150.086c45.23,1.094,86.4,18.562,117.81,46.701c0,0-34.16-1.13-44.443,37.079
		c0,0-2.94,23.514-38.209,23.514c0,0-35.27,4.407-35.27-37.475L337.935,150.086z"/>
	<path style="fill:#FFFFFF;" d="M328.894,516.774c-45.23-1.096-86.4-18.562-117.813-46.703c0,0,34.16,1.131,44.445-37.079
		c0,0,2.939-23.513,38.21-23.513c0,0,35.268-4.409,35.268,37.475L328.894,516.774z"/>
	<path style="fill:#FFFFFF;" d="M337.935,516.774c45.23-1.096,86.4-18.562,117.81-46.703c0,0-34.16,1.131-44.443-37.079
		c0,0-2.94-23.513-38.209-23.513c0,0-35.27-4.409-35.27,37.475L337.935,516.774z"/>
	<path style="fill:#FFFFFF;" d="M239.36,239.008c-43.352,0-44.822,46.292-44.822,46.292c0,36.74,26.452,48.13,26.452,48.13h-70.977
		c0-49.149,19.333-93.784,50.81-126.71c0,0,33.944-8.676,44.415,28.615C245.239,235.335,246.156,239.008,239.36,239.008z"/>
	<path style="fill:#FFFFFF;" d="M239.36,427.853c-43.352,0-44.822-46.293-44.822-46.293c0-36.74,26.452-48.129,26.452-48.129
		h-70.977c0,49.147,19.333,93.78,50.81,126.711c0,0,33.944,8.673,44.415-28.616C245.239,431.525,246.156,427.853,239.36,427.853z"/>
	<path style="fill:#FFFFFF;" d="M427.466,239.008c43.354,0,44.825,46.292,44.825,46.292c0,36.74-26.454,48.13-26.454,48.13h70.974
		c0-49.149-19.333-93.784-50.809-126.71c0,0-33.943-8.676-44.413,28.615C421.589,235.335,420.669,239.008,427.466,239.008z"/>
	<path style="fill:#FFFFFF;" d="M427.466,427.853c43.354,0,44.825-46.293,44.825-46.293c0-36.74-26.454-48.129-26.454-48.129h70.974
		c0,49.147-19.333,93.78-50.809,126.711c0,0-33.943,8.673-44.413-28.616C421.589,431.525,420.669,427.853,427.466,427.853z"/>
	<path style="fill:#FFFFFF;" d="M333.414,329.021h-96.717c0,0-33.066-0.55-33.066-44.086c0,0,3.582-37.752,38.577-37.752
		c0,0,8.682,0.414,14.881,6.614c0,0,7.99,13.226,34.717,13.226c0,0,41.608,0.827,41.608-25.074V329.021z"/>
	<path style="fill:#FFFFFF;" d="M333.414,329.021h96.716c0,0,33.067-0.55,33.067-44.086c0,0-3.583-37.752-38.577-37.752
		c0,0-8.68,0.414-14.88,6.614c0,0-7.99,13.226-34.719,13.226c0,0-41.607,0.827-41.607-25.074V329.021z"/>
	<path style="fill:#FFFFFF;" d="M333.414,337.839h-96.717c0,0-33.066,0.55-33.066,44.088c0,0,3.582,37.75,38.577,37.75
		c0,0,8.682-0.416,14.881-6.614c0,0,7.99-13.227,34.717-13.227c0,0,41.608-0.826,41.608,25.077V337.839z"/>
	<path style="fill:#FFFFFF;" d="M333.414,337.839h96.716c0,0,33.067,0.55,33.067,44.088c0,0-3.583,37.75-38.577,37.75
		c0,0-8.68-0.416-14.88-6.614c0,0-7.99-13.227-34.719-13.227c0,0-41.607-0.826-41.607,25.077V337.839z"/>
</g>
<path style="fill:#FFFFFF;stroke:#FFFFFF;stroke-width:0.7466;" d="M155.216,260.753l-55.96-26.364l-9.396,19.94l-15.827-7.457
	l27.363-58.081l15.829,7.459l-9.395,19.941l55.961,26.365L155.216,260.753z"/>
<path style="fill:#FFFFFF;stroke:#FFFFFF;stroke-width:0.7466;" d="M162.919,188.033l-14.123-27.048l27.488,12.803L162.919,188.033z
	 M171.567,204.188l21.02-22.408l13.469,6.585l15.095-16.09l-77.865-32.987L128.266,155.3l36.988,76.559l13.484-14.374
	L171.567,204.188z"/>
<path style="fill:#FFFFFF;stroke:#FFFFFF;stroke-width:0.7466;" d="M244.099,127.873l-0.816-30.5l19.081,23.57L244.099,127.873z
	 M244.776,146.185l28.726-10.904l9.21,11.829l20.626-7.831l-55.482-63.82l-20.526,7.792l-0.372,85.026l18.424-6.997L244.776,146.185
	z"/>
<path style="fill:#FFFFFF;stroke:#FFFFFF;stroke-width:0.7466;" d="M342.257,78.205c2.801,0.077,4.787,0.75,5.954,2.017
	c1.168,1.267,1.714,3.315,1.633,6.143c-0.072,2.723-0.757,4.701-2.047,5.935c-1.293,1.237-3.284,1.816-5.976,1.744l-11.197-0.31
	l0.434-15.836L342.257,78.205z M329.32,141.109l0.857-31.123l12.438,0.341c3.155,0.088,5.236,0.774,6.239,2.059
	c1.007,1.286,1.531,3.707,1.579,7.266l0.232,11c0.041,2.446,0.143,4.53,0.31,6.261c0.169,1.728,0.447,3.335,0.837,4.817
	l20.477,0.563c-0.511-2.6-0.924-5.054-1.244-7.363c-0.319-2.309-0.527-4.307-0.626-5.998l-0.713-13.224
	c-0.259-4.985-1.393-8.572-3.408-10.761c-2.018-2.187-5.414-3.524-10.195-4.015c4.587-0.341,8.234-2.115,10.933-5.322
	c2.702-3.208,4.124-7.429,4.268-12.662c0.095-3.474-0.31-6.632-1.215-9.474c-0.91-2.841-2.234-5.093-3.977-6.755
	c-1.538-1.478-3.574-2.555-6.117-3.236c-2.542-0.68-7.336-1.118-14.386-1.31l-33.937-0.936l-2.185,79.327L329.32,141.109z"/>
<path style="fill:#FFFFFF;stroke:#FFFFFF;stroke-width:0.7466;" d="M377.793,143.11l31.746-72.73l22.901,9.996l3.267,59.544
	l21.309-48.818l17.427,7.606l-31.746,72.731l-23.763-10.371l-2.344-59.317l-21.372,48.963L377.793,143.11z"/>
<path style="fill:#FFFFFF;stroke:#FFFFFF;stroke-width:0.7466;" d="M516.932,155.846c1.754,1.802,2.575,3.647,2.468,5.534
	c-0.109,1.885-1.139,3.779-3.086,5.677c-1.972,1.923-3.891,2.916-5.754,2.977c-1.866,0.062-3.689-0.822-5.466-2.649l-7.296-7.485
	l11.84-11.539L516.932,155.846z M496.71,177.736c2.015,2.067,2.996,4.126,2.955,6.184c-0.043,2.052-1.086,4.078-3.133,6.07
	c-2.047,1.997-4.103,2.982-6.173,2.957c-2.067-0.023-4.095-1.057-6.082-3.094l-8.385-8.605l12.431-12.114L496.71,177.736z
	 M480.051,208.611c4.249,4.358,8.757,6.378,13.525,6.055c4.765-0.323,9.667-2.936,14.702-7.843c4.084-3.98,6.532-7.939,7.349-11.882
	c0.816-3.941,0.053-8.242-2.288-12.905c4.116,1.807,7.871,2.396,11.269,1.771c3.395-0.63,6.699-2.506,9.912-5.637
	c2.644-2.579,4.567-5.206,5.769-7.881c1.197-2.677,1.609-5.289,1.232-7.832c-0.258-1.858-0.916-3.677-1.975-5.456
	c-1.06-1.785-3.105-4.231-6.144-7.348l-25.587-26.255l-56.831,55.387L480.051,208.611z"/>
<path style="fill:#FFFFFF;stroke:#FFFFFF;stroke-width:0.7466;" d="M502.376,241.42l25.27-12.253l33.458-48.523L571.99,203.1
	l-21.438,27.069l34.651,0.189l9.137,18.842l-57.92-1.933l-25.268,12.253L502.376,241.42z"/>
<path style="fill:#FFFFFF;stroke:#FFFFFF;stroke-width:1.0602;" d="M134.735,400.409c0.842,2.533,0.811,4.658-0.088,6.381
	c-0.898,1.721-2.636,3.012-5.217,3.871c-2.614,0.866-4.786,0.887-6.515,0.054c-1.726-0.835-3.019-2.53-3.868-5.095l-3.499-10.529
	l15.689-5.211L134.735,400.409z M107.016,411.361c0.978,2.938,1.013,5.375,0.113,7.308c-0.899,1.93-2.709,3.348-5.418,4.25
	c-2.713,0.9-5.014,0.836-6.897-0.188c-1.883-1.028-3.307-2.996-4.273-5.898l-4.02-12.099l16.475-5.472L107.016,411.361z
	 M78.783,432.57c2.069,6.221,5.354,10.344,9.861,12.359c4.502,2.015,10.089,1.915,16.762-0.301c5.41-1.797,9.315-4.371,11.719-7.717
	c2.402-3.347,3.505-7.822,3.307-13.42c3.001,3.682,6.187,6.051,9.562,7.102c3.372,1.046,7.185,0.866,11.444-0.547
	c3.504-1.165,6.37-2.725,8.596-4.676c2.221-1.952,3.7-4.224,4.427-6.816c0.532-1.919,0.689-3.982,0.467-6.182
	c-0.219-2.203-1.065-5.52-2.539-9.956l-12.367-37.23l-75.311,25.017L78.783,432.57z"/>
<path style="fill:#FFFFFF;stroke:#FFFFFF;stroke-width:1.0602;" d="M158.327,458.827c5.383-0.478,9.801,1.396,13.244,5.623
	c3.691,4.532,4.765,9.382,3.221,14.55c-1.545,5.166-5.622,10.441-12.233,15.828c-6.085,4.957-11.605,7.541-16.556,7.757
	c-4.954,0.217-9.284-1.954-12.998-6.515c-3.674-4.504-4.856-9.16-3.549-13.97c1.302-4.811,5.08-9.76,11.331-14.851
	C147.09,462.112,152.94,459.303,158.327,458.827z M147.05,522.57c9.659,1.011,19.638-2.674,29.927-11.057
	c10.511-8.565,16.412-17.682,17.696-27.352c1.284-9.671-2.104-19.455-10.163-29.35c-8.131-9.983-17.101-15.424-26.911-16.335
	c-9.809-0.911-19.805,2.778-29.985,11.072c-10.457,8.517-16.352,17.526-17.683,27.025c-1.331,9.499,1.978,19.128,9.927,28.884
	C128.325,515.854,137.391,521.559,147.05,522.57z"/>
<path style="fill:#FFFFFF;stroke:#FFFFFF;stroke-width:1.0602;" d="M223.975,566.251l-9.169,14.74l-46.559-28.963l41.919-67.383
	l18.366,11.424l-32.751,52.643L223.975,566.251z"/>
<path style="fill:#FFFFFF;stroke:#FFFFFF;stroke-width:1.0602;" d="M296.519,547.209c2.559,4.415,3.006,10.305,1.336,17.667
	c-1.7,7.505-4.553,12.584-8.547,15.236c-3.996,2.654-9.591,3.164-16.781,1.533l-10.16-2.3l9.839-43.401l10.159,2.304
	C289.244,539.806,293.96,542.794,296.519,547.209z M274.868,599.976c11.667,2.645,21.284,1.435,28.842-3.638
	c7.563-5.071,12.746-13.798,15.552-26.181c2.911-12.836,1.895-23.354-3.039-31.555c-4.939-8.2-13.538-13.688-25.799-16.471
	l-35.446-8.032l-17.544,77.391L274.868,599.976z"/>
<path style="fill:#FFFFFF;stroke:#FFFFFF;stroke-width:1.0602;" d="M338.881,608.094l-10.804-78.619l21.156-2.906l4.053,29.475
	l18.012-32.508l25.845-3.549l-20.463,37.185l35.224,40.889l-26.572,3.65l-30.788-36.499l5.493,39.974L338.881,608.094z"/>
<path style="fill:#FFFFFF;stroke:#FFFFFF;stroke-width:1.0602;" d="M487.155,539.662l8.705,15.018l-47.437,27.502l-39.802-68.651
	l18.711-10.85l31.096,53.634L487.155,539.662z"/>
<path style="fill:#FFFFFF;stroke:#FFFFFF;stroke-width:1.0602;" d="M455.536,487.629l13.891-15.855l33.992,29.786
	c4.964,4.348,9.44,6.655,13.428,6.92c3.987,0.268,7.652-1.506,10.994-5.322c3.245-3.705,4.463-7.542,3.646-11.509
	c-0.815-3.967-3.664-8.092-8.544-12.371l-33.992-29.784l13.435-15.336l33.749,29.572c9.315,8.164,14.246,16.305,14.795,24.419
	c0.548,8.121-3.284,16.863-11.495,26.236c-8.141,9.289-16.178,14.146-24.113,14.565c-7.933,0.424-16.615-3.498-26.039-11.752
	L455.536,487.629z"/>
<path style="fill:#FFFFFF;stroke:#FFFFFF;stroke-width:1.0602;" d="M534.346,393.306c0.772-2.552,2.023-4.273,3.75-5.164
	c1.726-0.891,3.891-0.943,6.494-0.157c2.637,0.799,4.423,2.035,5.354,3.712c0.935,1.674,1.01,3.805,0.23,6.391l-3.208,10.621
	l-15.826-4.782L534.346,393.306z M563.313,400.329c0.895-2.965,2.268-4.976,4.119-6.038c1.849-1.058,4.141-1.176,6.877-0.351
	c2.738,0.827,4.578,2.202,5.528,4.125c0.947,1.925,0.978,4.353,0.092,7.284l-3.685,12.204l-16.619-5.021L563.313,400.329z
	 M598.608,399.262c1.897-6.277,1.585-11.538-0.937-15.782c-2.519-4.242-7.144-7.379-13.875-9.414
	c-5.457-1.648-10.13-1.794-14.025-0.445c-3.893,1.351-7.37,4.373-10.436,9.061c-0.326-4.739-1.568-8.509-3.723-11.31
	c-2.149-2.801-5.373-4.851-9.667-6.148c-3.536-1.068-6.774-1.446-9.72-1.133c-2.939,0.314-5.457,1.32-7.546,3.019
	c-1.539,1.262-2.857,2.857-3.943,4.783c-1.087,1.926-2.31,5.128-3.661,9.603l-11.346,37.553l75.968,22.949L598.608,399.262z"/>
<path style="fill:#FFFFFF;" d="M118.489,322.409c0,9.129-7.405,16.533-16.533,16.533c-9.133,0-16.532-7.405-16.532-16.533
	c0-9.132,7.399-16.532,16.532-16.532C111.084,305.877,118.489,313.276,118.489,322.409z"/>
<path style="fill:#FFFFFF;" d="M584.713,322.409c0,9.129-7.401,16.533-16.532,16.533c-9.133,0-16.533-7.405-16.533-16.533
	c0-9.132,7.4-16.532,16.533-16.532C577.312,305.877,584.713,313.276,584.713,322.409z"/>
</svg>
