<?xml version="1.0" encoding="UTF-8" standalone="no"?>
<svg
   xmlns:dc="http://purl.org/dc/elements/1.1/"
   xmlns:cc="http://creativecommons.org/ns#"
   xmlns:rdf="http://www.w3.org/1999/02/22-rdf-syntax-ns#"
   xmlns:svg="http://www.w3.org/2000/svg"
   xmlns="http://www.w3.org/2000/svg"
   xmlns:sodipodi="http://sodipodi.sourceforge.net/DTD/sodipodi-0.dtd"
   xmlns:inkscape="http://www.inkscape.org/namespaces/inkscape"
   version="1.1"
   id="Layer_1"
   x="0px"
   y="0px"
   viewBox="0 0 1000 1000"
   xml:space="preserve"
   sodipodi:docname="Boavista.svg"
   width="1000"
   height="1000"
   inkscape:version="1.0.1 (3bc2e813f5, 2020-09-07)"><metadata
   id="metadata665"><rdf:RDF><cc:Work
       rdf:about=""><dc:format>image/svg+xml</dc:format><dc:type
         rdf:resource="http://purl.org/dc/dcmitype/StillImage" /><dc:title /></cc:Work></rdf:RDF></metadata><defs
   id="defs663" /><sodipodi:namedview
   pagecolor="#ffffff"
   bordercolor="#666666"
   borderopacity="1"
   objecttolerance="10"
   gridtolerance="10"
   guidetolerance="10"
   inkscape:pageopacity="0"
   inkscape:pageshadow="2"
   inkscape:window-width="1920"
   inkscape:window-height="1017"
   id="namedview661"
   showgrid="false"
   inkscape:zoom="0.845"
   inkscape:cx="500"
   inkscape:cy="500"
   inkscape:window-x="-8"
   inkscape:window-y="-8"
   inkscape:window-maximized="1"
   inkscape:current-layer="Layer_1"
   inkscape:document-rotation="0" />








































































































































































































































































































































<g
   id="g1819"
   transform="matrix(4.3164615,0,0,4.3164615,-800.54327,-642.44719)"><path
     style="clip-rule:evenodd;fill:#f7db2a;fill-rule:evenodd"
     d="m 300.826,190.222 -39.831,4.17 c -8.404,-2.978 -11.785,-8.19 -9.995,-15.635 -1.591,-1.441 -2.536,-2.979 -2.785,-4.716 -1.939,-0.993 -2.933,-2.134 -3.033,-3.375 2.933,-3.772 5.47,-5.511 9.05,-1.49 5.818,0.2 2.238,4.22 6.116,8.736 1.99,2.283 0.846,1.639 -5.171,3.425 -0.15,7.595 23.322,9.829 20.089,-5.508 -4.524,2.083 -7.16,2.183 -6.961,0 0.496,-5.512 -4.824,-7.595 -2.089,-9.383 2.735,-1.786 1.393,-3.375 3.034,-4.665 1.64,-1.291 3.431,0.495 5.669,0 2.883,-0.646 2.535,-2.184 5.022,-1.489 2.784,0.843 1.094,2.68 3.73,3.425 2.933,0.793 -1.244,5.856 0.795,10.025 0.846,1.59 -0.298,2.582 -6.116,1.29 0,8.043 19.592,12.609 20.537,-0.991 -3.979,1.39 -5.868,1.142 -5.669,-0.795 0.796,-4.715 -3.68,-7.346 -1.294,-8.885 3.233,-2.085 0.896,-2.68 2.437,-4.069 1.592,-1.44 4.277,-0.1 6.515,0.745 l 0.099,0.048 c 2.288,-0.793 4.873,-2.083 6.514,-0.645 1.542,1.39 -0.845,1.935 2.387,4.021 2.437,1.588 -2.089,4.218 -1.293,8.884 0.249,1.935 -1.64,2.234 -5.668,0.845 0.994,13.551 20.586,9.033 20.586,0.942 -5.817,1.29 -6.961,0.348 -6.166,-1.289 2.088,-4.121 -2.089,-9.183 0.796,-10.027 2.685,-0.745 0.994,-2.581 3.729,-3.376 2.537,-0.744 2.188,0.845 5.022,1.439 2.288,0.495 4.029,-1.291 5.669,0 1.641,1.339 0.299,2.93 3.083,4.716 2.685,1.737 -2.585,3.873 -2.138,9.332 0.2,2.185 -2.387,2.133 -6.912,0 -3.282,15.387 20.19,13.104 20.04,5.509 -5.968,-1.786 -7.11,-1.142 -5.171,-3.376 3.878,-4.517 0.298,-8.586 6.166,-8.735 3.531,-4.02 6.116,-2.283 9.049,1.44 -0.098,1.29 -1.142,2.432 -3.083,3.425 -0.248,1.687 -1.142,3.275 -2.735,4.665 1.741,7.496 -1.591,12.707 -10.044,15.684 l -39.831,-4.219 z"
     id="path2" /><path
     style="fill:none;stroke:#ffffff;stroke-width:10.12;stroke-miterlimit:2.613"
     d="m 300.826,190.222 -39.831,4.17 c -8.404,-2.978 -11.785,-8.19 -9.995,-15.635 -1.591,-1.441 -2.536,-2.979 -2.785,-4.716 -1.939,-0.993 -2.933,-2.134 -3.033,-3.375 2.933,-3.772 5.47,-5.511 9.05,-1.49 5.818,0.2 2.238,4.22 6.116,8.736 1.99,2.283 0.846,1.639 -5.171,3.425 -0.15,7.595 23.322,9.829 20.089,-5.508 -4.524,2.083 -7.16,2.183 -6.961,0 0.496,-5.512 -4.824,-7.595 -2.089,-9.383 2.735,-1.786 1.393,-3.375 3.034,-4.665 1.64,-1.291 3.431,0.495 5.669,0 2.883,-0.646 2.535,-2.184 5.022,-1.489 2.784,0.843 1.094,2.68 3.73,3.425 2.933,0.793 -1.244,5.856 0.795,10.025 0.846,1.59 -0.298,2.582 -6.116,1.29 0,8.043 19.592,12.609 20.537,-0.991 -3.979,1.39 -5.868,1.142 -5.669,-0.795 0.796,-4.715 -3.68,-7.346 -1.294,-8.885 3.233,-2.085 0.896,-2.68 2.437,-4.069 1.592,-1.44 4.277,-0.1 6.515,0.745 l 0.099,0.048 c 2.288,-0.793 4.873,-2.083 6.514,-0.645 1.542,1.39 -0.845,1.935 2.387,4.021 2.437,1.588 -2.089,4.218 -1.293,8.884 0.249,1.935 -1.64,2.234 -5.668,0.845 0.994,13.551 20.586,9.033 20.586,0.942 -5.817,1.29 -6.961,0.348 -6.166,-1.289 2.088,-4.121 -2.089,-9.183 0.796,-10.027 2.685,-0.745 0.994,-2.581 3.729,-3.376 2.537,-0.744 2.188,0.845 5.022,1.439 2.288,0.495 4.029,-1.291 5.669,0 1.641,1.339 0.299,2.93 3.083,4.716 2.685,1.737 -2.585,3.873 -2.138,9.332 0.2,2.185 -2.387,2.133 -6.912,0 -3.282,15.387 20.19,13.104 20.04,5.509 -5.968,-1.786 -7.11,-1.142 -5.171,-3.376 3.878,-4.517 0.298,-8.586 6.166,-8.735 3.531,-4.02 6.116,-2.283 9.049,1.44 -0.098,1.29 -1.142,2.432 -3.083,3.425 -0.248,1.687 -1.142,3.275 -2.735,4.665 1.741,7.496 -1.591,12.707 -10.044,15.684 l -39.831,-4.219 z"
     id="path4" /><path
     style="clip-rule:evenodd;fill:#f7db2a;fill-rule:evenodd"
     d="M 292.074,334.315 H 258.56 c -5.073,0 -9.2,-4.12 -9.2,-9.133 V 209.729 h 102.785 v 115.454 c 0,5.013 -4.127,9.133 -9.2,9.133 h -33.366 c -4.674,0 -6.962,2.035 -8.752,6.006 -1.791,-4.021 -4.178,-6.007 -8.753,-6.007 m 0.697,-4.467 h -31.328 c -3.63,0 -6.564,-2.432 -6.564,-5.41 v -83.983 h 91.745 v 83.983 c 0,2.978 -2.933,5.41 -6.564,5.41 h -31.327 c -3.779,0 -6.564,1.341 -7.956,2.731 -1.442,-1.44 -4.277,-2.731 -8.006,-2.731"
     id="path6" /><path
     style="fill:none;stroke:#ffffff;stroke-width:10.12;stroke-miterlimit:2.613"
     d="m 292.771,329.848 h -31.328 c -3.63,0 -6.564,-2.432 -6.564,-5.41 v -83.983 h 91.745 v 83.983 c 0,2.978 -2.933,5.41 -6.564,5.41 h -31.327 c -3.779,0 -6.564,1.341 -7.956,2.731 -1.442,-1.44 -4.277,-2.731 -8.006,-2.731 z"
     id="path8" /><path
     style="fill:none;stroke:#ffffff;stroke-width:10.12;stroke-miterlimit:2.613"
     d="M 292.074,334.315 H 258.56 c -5.073,0 -9.2,-4.12 -9.2,-9.133 V 209.729 h 102.785 v 115.454 c 0,5.013 -4.127,9.133 -9.2,9.133 h -33.366 c -4.674,0 -6.962,2.035 -8.752,6.006 -1.791,-4.021 -4.178,-6.007 -8.753,-6.007 z"
     id="path10" /><path
     style="clip-rule:evenodd;fill:#f7db2a;fill-rule:evenodd"
     d="M 340.806,195.532 338.22,207 c -26.405,-9.036 -47.886,-9.036 -74.938,0 l -2.586,-11.468 c 26.406,-7.097 53.109,-7.097 80.11,0"
     id="path12" /><path
     style="fill:none;stroke:#ffffff;stroke-width:10.12;stroke-miterlimit:2.613"
     d="M 340.806,195.532 338.22,207 c -26.405,-9.036 -47.886,-9.036 -74.938,0 l -2.586,-11.468 c 26.406,-7.097 53.109,-7.097 80.11,0 z"
     id="path14" /><path
     style="clip-rule:evenodd;fill:#f7db2a;fill-rule:evenodd"
     d="m 341.949,209.531 c 4.227,-3.921 -17.702,-11.069 -41.024,-11.069 -23.62,0 -45.549,7.148 -41.372,11.069 z"
     id="path16" /><path
     style="fill:none;stroke:#ffffff;stroke-width:10.12;stroke-miterlimit:2.613"
     d="m 341.949,209.531 c 4.227,-3.921 -17.702,-11.069 -41.024,-11.069 -23.62,0 -45.549,7.148 -41.372,11.069 z"
     id="path18" /><path
     style="clip-rule:evenodd;fill:#f7db2a;fill-rule:evenodd"
     d="m 343.243,198.561 c 4.226,-3.474 -18.996,-9.729 -42.318,-9.729 -23.62,0 -46.842,6.255 -42.665,9.729 11.388,2.434 10.94,-5.359 42.616,-5.359 31.576,-0.001 32.073,7.692 42.367,5.359"
     id="path20" /><path
     style="fill:none;stroke:#ffffff;stroke-width:10.12;stroke-miterlimit:2.613"
     d="m 343.243,198.561 c 4.226,-3.474 -18.996,-9.729 -42.318,-9.729 -23.62,0 -46.842,6.255 -42.665,9.729 11.388,2.434 10.94,-5.359 42.616,-5.359 31.576,-0.001 32.073,7.692 42.367,5.359 z"
     id="path22" /><path
     style="clip-rule:evenodd;fill:#009c69;fill-rule:evenodd"
     d="m 367.46,349.555 c -4.625,-2.929 -8.205,-6.752 -9.946,-11.864 -1.74,-4.863 1.443,-6.552 5.321,-3.673 2.537,1.936 4.475,6.402 4.625,15.537"
     id="path24" /><path
     style="fill:none;stroke:#ffffff;stroke-width:10.12;stroke-miterlimit:2.613"
     d="m 367.46,349.555 c -4.625,-2.929 -8.205,-6.752 -9.946,-11.864 -1.74,-4.863 1.443,-6.552 5.321,-3.673 2.537,1.936 4.475,6.402 4.625,15.537 z"
     id="path26" /><path
     style="clip-rule:evenodd;fill:#009c69;fill-rule:evenodd"
     d="m 374.77,337.492 c -4.079,-3.573 -7.012,-7.941 -8.007,-13.303 -0.894,-5.063 2.487,-6.254 5.868,-2.73 2.237,2.284 3.432,7 2.139,16.033"
     id="path28" /><path
     style="fill:none;stroke:#ffffff;stroke-width:10.12;stroke-miterlimit:2.613"
     d="m 374.77,337.492 c -4.079,-3.573 -7.012,-7.941 -8.007,-13.303 -0.894,-5.063 2.487,-6.254 5.868,-2.73 2.237,2.284 3.432,7 2.139,16.033 z"
     id="path30" /><path
     style="clip-rule:evenodd;fill:#009c69;fill-rule:evenodd"
     d="m 382.229,318.035 c -5.222,-1.689 -9.598,-4.566 -12.582,-9.133 -2.834,-4.318 -0.148,-6.701 4.277,-4.814 2.933,1.24 5.918,5.112 8.305,13.947"
     id="path32" /><path
     style="fill:none;stroke:#ffffff;stroke-width:10.12;stroke-miterlimit:2.613"
     d="m 382.229,318.035 c -5.222,-1.689 -9.598,-4.566 -12.582,-9.133 -2.834,-4.318 -0.148,-6.701 4.277,-4.814 2.933,1.24 5.918,5.112 8.305,13.947 z"
     id="path34" /><path
     style="clip-rule:evenodd;fill:#009c69;fill-rule:evenodd"
     d="m 385.46,298.479 c -5.27,-1.44 -9.795,-4.07 -12.978,-8.439 -3.083,-4.169 -0.547,-6.701 4.027,-5.063 2.985,1.092 6.166,4.815 8.951,13.502"
     id="path36" /><path
     style="fill:none;stroke:#ffffff;stroke-width:10.12;stroke-miterlimit:2.613"
     d="m 385.46,298.479 c -5.27,-1.44 -9.795,-4.07 -12.978,-8.439 -3.083,-4.169 -0.547,-6.701 4.027,-5.063 2.985,1.092 6.166,4.815 8.951,13.502 z"
     id="path38" /><path
     style="clip-rule:evenodd;fill:#009c69;fill-rule:evenodd"
     d="m 385.958,278.773 c -5.32,-1.242 -9.945,-3.724 -13.327,-7.991 -3.183,-4.022 -0.746,-6.651 3.878,-5.162 3.035,0.992 6.316,4.567 9.449,13.153"
     id="path40" /><path
     style="fill:none;stroke:#ffffff;stroke-width:10.12;stroke-miterlimit:2.613"
     d="m 385.958,278.773 c -5.32,-1.242 -9.945,-3.724 -13.327,-7.991 -3.183,-4.022 -0.746,-6.651 3.878,-5.162 3.035,0.992 6.316,4.567 9.449,13.153 z"
     id="path42" /><path
     style="clip-rule:evenodd;fill:#009c69;fill-rule:evenodd"
     d="m 383.521,257.033 c -5.47,0.148 -10.592,-1.042 -14.917,-4.27 -4.128,-3.077 -2.487,-6.254 2.387,-6.005 3.182,0.149 7.308,2.78 12.53,10.275"
     id="path44" /><path
     style="fill:none;stroke:#ffffff;stroke-width:10.12;stroke-miterlimit:2.613"
     d="m 383.521,257.033 c -5.47,0.148 -10.592,-1.042 -14.917,-4.27 -4.128,-3.077 -2.487,-6.254 2.387,-6.005 3.182,0.149 7.308,2.78 12.53,10.275 z"
     id="path46" /><path
     style="clip-rule:evenodd;fill:#009c69;fill-rule:evenodd"
     d="m 374.868,236.234 c -4.723,-2.729 -8.453,-6.452 -10.392,-11.516 -1.89,-4.813 1.193,-6.602 5.171,-3.821 2.636,1.836 4.726,6.205 5.221,15.337"
     id="path48" /><path
     style="fill:none;stroke:#ffffff;stroke-width:10.12;stroke-miterlimit:2.613"
     d="m 374.868,236.234 c -4.723,-2.729 -8.453,-6.452 -10.392,-11.516 -1.89,-4.813 1.193,-6.602 5.171,-3.821 2.636,1.836 4.726,6.205 5.221,15.337 z"
     id="path50" /><path
     style="clip-rule:evenodd;fill:#009c69;fill-rule:evenodd"
     d="m 384.964,256.635 c 3.879,-3.821 6.612,-8.338 7.26,-13.699 0.645,-5.112 -2.786,-6.104 -5.968,-2.433 -2.088,2.382 -3.083,7.148 -1.292,16.132"
     id="path52" /><path
     style="fill:none;stroke:#ffffff;stroke-width:10.12;stroke-miterlimit:2.613"
     d="m 384.964,256.635 c 3.879,-3.821 6.612,-8.338 7.26,-13.699 0.645,-5.112 -2.786,-6.104 -5.968,-2.433 -2.088,2.382 -3.083,7.148 -1.292,16.132 z"
     id="path54" /><path
     style="clip-rule:evenodd;fill:#009c69;fill-rule:evenodd"
     d="m 387.897,279.071 c 4.526,-3.028 8.056,-6.949 9.747,-12.063 1.591,-4.913 -1.592,-6.551 -5.42,-3.573 -2.487,1.986 -4.377,6.503 -4.327,15.636"
     id="path56" /><path
     style="fill:none;stroke:#ffffff;stroke-width:10.12;stroke-miterlimit:2.613"
     d="m 387.897,279.071 c 4.526,-3.028 8.056,-6.949 9.747,-12.063 1.591,-4.913 -1.592,-6.551 -5.42,-3.573 -2.487,1.986 -4.377,6.503 -4.327,15.636 z"
     id="path58" /><path
     style="clip-rule:evenodd;fill:#009c69;fill-rule:evenodd"
     d="m 386.753,298.23 c 5.421,-0.893 10.195,-3.026 13.824,-7.048 3.482,-3.821 1.243,-6.6 -3.481,-5.459 -3.083,0.793 -6.614,4.119 -10.343,12.507"
     id="path60" /><path
     style="fill:none;stroke:#ffffff;stroke-width:10.12;stroke-miterlimit:2.613"
     d="m 386.753,298.23 c 5.421,-0.893 10.195,-3.026 13.824,-7.048 3.482,-3.821 1.243,-6.6 -3.481,-5.459 -3.083,0.793 -6.614,4.119 -10.343,12.507 z"
     id="path62" /><path
     style="clip-rule:evenodd;fill:#009c69;fill-rule:evenodd"
     d="m 384.516,317.538 c 5.47,-0.148 10.491,-1.588 14.669,-5.063 3.979,-3.325 2.138,-6.403 -2.685,-5.857 -3.183,0.299 -7.16,3.128 -11.984,10.92"
     id="path64" /><path
     style="fill:none;stroke:#ffffff;stroke-width:10.12;stroke-miterlimit:2.613"
     d="m 384.516,317.538 c 5.47,-0.148 10.491,-1.588 14.669,-5.063 3.979,-3.325 2.138,-6.403 -2.685,-5.857 -3.183,0.299 -7.16,3.128 -11.984,10.92 z"
     id="path66" /><path
     style="clip-rule:evenodd;fill:#009c69;fill-rule:evenodd"
     d="m 375.715,336.5 c 5.27,1.538 10.491,1.737 15.515,-0.298 4.822,-1.887 4.027,-5.41 -0.748,-6.403 -3.081,-0.645 -7.757,0.795 -14.767,6.701"
     id="path68" /><path
     style="fill:none;stroke:#ffffff;stroke-width:10.12;stroke-miterlimit:2.613"
     d="m 375.715,336.5 c 5.27,1.538 10.491,1.737 15.515,-0.298 4.822,-1.887 4.027,-5.41 -0.748,-6.403 -3.081,-0.645 -7.757,0.795 -14.767,6.701 z"
     id="path70" /><path
     style="clip-rule:evenodd;fill:#009c69;fill-rule:evenodd"
     d="m 368.752,348.908 c 4.576,3.027 9.547,4.716 14.968,4.27 5.123,-0.447 5.42,-4.021 1.144,-6.353 -2.784,-1.539 -7.657,-1.539 -16.112,2.083"
     id="path72" /><path
     style="fill:none;stroke:#ffffff;stroke-width:10.12;stroke-miterlimit:2.613"
     d="m 368.752,348.908 c 4.576,3.027 9.547,4.716 14.968,4.27 5.123,-0.447 5.42,-4.021 1.144,-6.353 -2.784,-1.539 -7.657,-1.539 -16.112,2.083 z"
     id="path74" /><path
     style="fill:none;stroke:#ffffff;stroke-width:10.12;stroke-miterlimit:2.613"
     d="M 353.835,362.212 C 389.34,344.243 396.898,269.441 374.77,235.739"
     id="path76" /><line
     style="fill:none;stroke:#ffffff;stroke-width:10.12;stroke-miterlimit:2.613"
     x1="379.642"
     y1="329.64899"
     x2="376.957"
     y2="322.60199"
     id="line78" /><line
     style="fill:none;stroke:#ffffff;stroke-width:10.12;stroke-miterlimit:2.613"
     x1="380.58801"
     y1="326.026"
     x2="386.20599"
     y2="323.84399"
     id="line80" /><line
     style="fill:none;stroke:#ffffff;stroke-width:10.12;stroke-miterlimit:2.613"
     x1="385.21201"
     y1="310.242"
     x2="380.58801"
     y2="305.62601"
     id="line82" /><line
     style="fill:none;stroke:#ffffff;stroke-width:10.12;stroke-miterlimit:2.613"
     x1="387.151"
     y1="290.58701"
     x2="383.02399"
     y2="285.22601"
     id="line84" /><line
     style="fill:none;stroke:#ffffff;stroke-width:10.12;stroke-miterlimit:2.613"
     x1="387.64899"
     y1="287.905"
     x2="391.08099"
     y2="284.53101"
     id="line86" /><line
     style="fill:none;stroke:#ffffff;stroke-width:10.12;stroke-miterlimit:2.613"
     x1="386.20599"
     y1="267.50601"
     x2="381.33301"
     y2="262.64099"
     id="line88" /><line
     style="fill:none;stroke:#ffffff;stroke-width:10.12;stroke-miterlimit:2.613"
     x1="379.39499"
     y1="243.979"
     x2="380.58801"
     y2="239.36099"
     id="line90" /><line
     style="fill:none;stroke:#ffffff;stroke-width:10.12;stroke-miterlimit:2.613"
     x1="378.64801"
     y1="242.737"
     x2="374.76999"
     y2="241.79401"
     id="line92" /><path
     style="clip-rule:evenodd;fill:#343536;fill-rule:evenodd"
     d="m 379.742,239.114 c 0,-0.896 0.696,-1.588 1.591,-1.588 0.846,0 1.592,0.692 1.592,1.588 0,0.894 -0.746,1.588 -1.592,1.588 -0.895,0 -1.591,-0.694 -1.591,-1.588"
     id="path94" /><path
     style="fill:none;stroke:#ffffff;stroke-width:10.12;stroke-miterlimit:2.613"
     d="m 379.742,239.114 c 0,-0.896 0.696,-1.588 1.591,-1.588 0.846,0 1.592,0.692 1.592,1.588 0,0.894 -0.746,1.588 -1.592,1.588 -0.895,0 -1.591,-0.694 -1.591,-1.588 z"
     id="path96" /><path
     style="clip-rule:evenodd;fill:#343536;fill-rule:evenodd"
     d="m 372.831,242.092 c 0,-0.893 0.696,-1.589 1.591,-1.589 0.846,0 1.592,0.696 1.592,1.589 0,0.844 -0.746,1.539 -1.592,1.539 -0.896,0 -1.591,-0.695 -1.591,-1.539"
     id="path98" /><path
     style="fill:none;stroke:#ffffff;stroke-width:10.12;stroke-miterlimit:2.613"
     d="m 372.831,242.092 c 0,-0.893 0.696,-1.589 1.591,-1.589 0.846,0 1.592,0.696 1.592,1.589 0,0.844 -0.746,1.539 -1.592,1.539 -0.896,0 -1.591,-0.695 -1.591,-1.539 z"
     id="path100" /><path
     style="clip-rule:evenodd;fill:#343536;fill-rule:evenodd"
     d="m 379.89,263.286 c 0,-0.844 0.698,-1.538 1.593,-1.538 0.844,0 1.541,0.694 1.541,1.538 0,0.894 -0.697,1.589 -1.541,1.589 -0.895,0 -1.593,-0.695 -1.593,-1.589"
     id="path102" /><path
     style="fill:none;stroke:#ffffff;stroke-width:10.12;stroke-miterlimit:2.613"
     d="m 379.89,263.286 c 0,-0.844 0.698,-1.538 1.593,-1.538 0.844,0 1.541,0.694 1.541,1.538 0,0.894 -0.697,1.589 -1.541,1.589 -0.895,0 -1.593,-0.695 -1.593,-1.589 z"
     id="path104" /><path
     style="clip-rule:evenodd;fill:#343536;fill-rule:evenodd"
     d="m 381.731,285.424 c 0,-0.893 0.696,-1.588 1.542,-1.588 0.895,0 1.591,0.695 1.591,1.588 0,0.844 -0.696,1.539 -1.591,1.539 -0.846,0 -1.542,-0.695 -1.542,-1.539"
     id="path106" /><path
     style="fill:none;stroke:#ffffff;stroke-width:10.12;stroke-miterlimit:2.613"
     d="m 381.731,285.424 c 0,-0.893 0.696,-1.588 1.542,-1.588 0.895,0 1.591,0.695 1.591,1.588 0,0.844 -0.696,1.539 -1.591,1.539 -0.846,0 -1.542,-0.695 -1.542,-1.539 z"
     id="path108" /><path
     style="clip-rule:evenodd;fill:#343536;fill-rule:evenodd"
     d="m 389.737,284.183 c 0,-0.844 0.697,-1.589 1.591,-1.589 0.846,0 1.541,0.745 1.541,1.589 0,0.894 -0.695,1.59 -1.541,1.59 -0.893,0 -1.591,-0.697 -1.591,-1.59"
     id="path110" /><path
     style="fill:none;stroke:#ffffff;stroke-width:10.12;stroke-miterlimit:2.613"
     d="m 389.737,284.183 c 0,-0.844 0.697,-1.589 1.591,-1.589 0.846,0 1.541,0.745 1.541,1.589 0,0.894 -0.695,1.59 -1.541,1.59 -0.893,0 -1.591,-0.697 -1.591,-1.59 z"
     id="path112" /><path
     style="clip-rule:evenodd;fill:#343536;fill-rule:evenodd"
     d="m 379.395,305.328 c 0,-0.893 0.696,-1.589 1.591,-1.589 0.846,0 1.592,0.695 1.592,1.589 0,0.845 -0.746,1.539 -1.592,1.539 -0.896,0 -1.591,-0.694 -1.591,-1.539"
     id="path114" /><path
     style="fill:none;stroke:#ffffff;stroke-width:10.12;stroke-miterlimit:2.613"
     d="m 379.395,305.328 c 0,-0.893 0.696,-1.589 1.591,-1.589 0.846,0 1.592,0.695 1.592,1.589 0,0.845 -0.746,1.539 -1.592,1.539 -0.896,0 -1.591,-0.694 -1.591,-1.539 z"
     id="path116" /><path
     style="clip-rule:evenodd;fill:#343536;fill-rule:evenodd"
     d="m 375.615,322.8 c 0,-0.894 0.746,-1.588 1.592,-1.588 0.894,0 1.591,0.694 1.591,1.588 0,0.845 -0.697,1.538 -1.591,1.538 -0.846,0 -1.592,-0.693 -1.592,-1.538"
     id="path118" /><path
     style="fill:none;stroke:#ffffff;stroke-width:10.12;stroke-miterlimit:2.613"
     d="m 375.615,322.8 c 0,-0.894 0.746,-1.588 1.592,-1.588 0.894,0 1.591,0.694 1.591,1.588 0,0.845 -0.697,1.538 -1.591,1.538 -0.846,0 -1.592,-0.693 -1.592,-1.538 z"
     id="path120" /><path
     style="clip-rule:evenodd;fill:#343536;fill-rule:evenodd"
     d="m 384.615,323.743 c 0,-0.844 0.697,-1.589 1.591,-1.589 0.895,0 1.592,0.745 1.592,1.589 0,0.894 -0.697,1.588 -1.592,1.588 -0.893,0 -1.591,-0.694 -1.591,-1.588"
     id="path122" /><path
     style="fill:none;stroke:#ffffff;stroke-width:10.12;stroke-miterlimit:2.613"
     d="m 384.615,323.743 c 0,-0.844 0.697,-1.589 1.591,-1.589 0.895,0 1.592,0.745 1.592,1.589 0,0.894 -0.697,1.588 -1.592,1.588 -0.893,0 -1.591,-0.694 -1.591,-1.588 z"
     id="path124" /><path
     style="clip-rule:evenodd;fill:#009c69;fill-rule:evenodd"
     d="m 235.137,349.555 c 4.625,-2.929 8.205,-6.752 9.945,-11.864 1.741,-4.863 -1.442,-6.552 -5.32,-3.673 -2.535,1.936 -4.476,6.402 -4.625,15.537"
     id="path126" /><path
     style="fill:none;stroke:#ffffff;stroke-width:10.12;stroke-miterlimit:2.613"
     d="m 235.137,349.555 c 4.625,-2.929 8.205,-6.752 9.945,-11.864 1.741,-4.863 -1.442,-6.552 -5.32,-3.673 -2.535,1.936 -4.476,6.402 -4.625,15.537 z"
     id="path128" /><path
     style="clip-rule:evenodd;fill:#009c69;fill-rule:evenodd"
     d="m 227.828,337.492 c 4.077,-3.573 7.011,-7.941 8.006,-13.303 0.894,-5.063 -2.487,-6.254 -5.869,-2.73 -2.236,2.284 -3.431,7 -2.137,16.033"
     id="path130" /><path
     style="fill:none;stroke:#ffffff;stroke-width:10.12;stroke-miterlimit:2.613"
     d="m 227.828,337.492 c 4.077,-3.573 7.011,-7.941 8.006,-13.303 0.894,-5.063 -2.487,-6.254 -5.869,-2.73 -2.236,2.284 -3.431,7 -2.137,16.033 z"
     id="path132" /><path
     style="clip-rule:evenodd;fill:#009c69;fill-rule:evenodd"
     d="m 220.418,318.035 c 5.172,-1.689 9.547,-4.566 12.531,-9.133 2.835,-4.318 0.199,-6.701 -4.276,-4.814 -2.934,1.24 -5.918,5.112 -8.255,13.947"
     id="path134" /><path
     style="fill:none;stroke:#ffffff;stroke-width:10.12;stroke-miterlimit:2.613"
     d="m 220.418,318.035 c 5.172,-1.689 9.547,-4.566 12.531,-9.133 2.835,-4.318 0.199,-6.701 -4.276,-4.814 -2.934,1.24 -5.918,5.112 -8.255,13.947 z"
     id="path136" /><path
     style="clip-rule:evenodd;fill:#009c69;fill-rule:evenodd"
     d="m 217.136,298.479 c 5.271,-1.44 9.796,-4.07 12.979,-8.439 3.083,-4.169 0.547,-6.701 -4.028,-5.063 -2.983,1.092 -6.166,4.815 -8.951,13.502"
     id="path138" /><path
     style="fill:none;stroke:#ffffff;stroke-width:10.12;stroke-miterlimit:2.613"
     d="m 217.136,298.479 c 5.271,-1.44 9.796,-4.07 12.979,-8.439 3.083,-4.169 0.547,-6.701 -4.028,-5.063 -2.983,1.092 -6.166,4.815 -8.951,13.502 z"
     id="path140" /><path
     style="clip-rule:evenodd;fill:#009c69;fill-rule:evenodd"
     d="m 216.639,278.773 c 5.32,-1.242 9.994,-3.724 13.326,-7.991 3.183,-4.022 0.746,-6.651 -3.878,-5.162 -3.034,0.992 -6.315,4.567 -9.448,13.153"
     id="path142" /><path
     style="fill:none;stroke:#ffffff;stroke-width:10.12;stroke-miterlimit:2.613"
     d="m 216.639,278.773 c 5.32,-1.242 9.994,-3.724 13.326,-7.991 3.183,-4.022 0.746,-6.651 -3.878,-5.162 -3.034,0.992 -6.315,4.567 -9.448,13.153 z"
     id="path144" /><path
     style="clip-rule:evenodd;fill:#009c69;fill-rule:evenodd"
     d="m 219.075,257.033 c 5.471,0.148 10.592,-1.042 14.918,-4.27 4.128,-3.077 2.487,-6.254 -2.386,-6.005 -3.183,0.149 -7.31,2.78 -12.532,10.275"
     id="path146" /><path
     style="fill:none;stroke:#ffffff;stroke-width:10.12;stroke-miterlimit:2.613"
     d="m 219.075,257.033 c 5.471,0.148 10.592,-1.042 14.918,-4.27 4.128,-3.077 2.487,-6.254 -2.386,-6.005 -3.183,0.149 -7.31,2.78 -12.532,10.275 z"
     id="path148" /><path
     style="clip-rule:evenodd;fill:#009c69;fill-rule:evenodd"
     d="m 227.778,236.234 c 4.674,-2.729 8.404,-6.452 10.343,-11.516 1.889,-4.813 -1.194,-6.602 -5.172,-3.821 -2.635,1.836 -4.724,6.205 -5.171,15.337"
     id="path150" /><path
     style="fill:none;stroke:#ffffff;stroke-width:10.12;stroke-miterlimit:2.613"
     d="m 227.778,236.234 c 4.674,-2.729 8.404,-6.452 10.343,-11.516 1.889,-4.813 -1.194,-6.602 -5.172,-3.821 -2.635,1.836 -4.724,6.205 -5.171,15.337 z"
     id="path152" /><path
     style="clip-rule:evenodd;fill:#009c69;fill-rule:evenodd"
     d="m 217.633,256.635 c -3.878,-3.821 -6.613,-8.338 -7.26,-13.699 -0.646,-5.112 2.785,-6.104 5.968,-2.433 2.088,2.382 3.083,7.148 1.292,16.132"
     id="path154" /><path
     style="fill:none;stroke:#ffffff;stroke-width:10.12;stroke-miterlimit:2.613"
     d="m 217.633,256.635 c -3.878,-3.821 -6.613,-8.338 -7.26,-13.699 -0.646,-5.112 2.785,-6.104 5.968,-2.433 2.088,2.382 3.083,7.148 1.292,16.132 z"
     id="path156" /><path
     style="clip-rule:evenodd;fill:#009c69;fill-rule:evenodd"
     d="m 214.749,279.071 c -4.575,-3.028 -8.105,-6.949 -9.796,-12.063 -1.591,-4.913 1.592,-6.551 5.42,-3.573 2.487,1.986 4.376,6.503 4.376,15.636"
     id="path158" /><path
     style="fill:none;stroke:#ffffff;stroke-width:10.12;stroke-miterlimit:2.613"
     d="m 214.749,279.071 c -4.575,-3.028 -8.105,-6.949 -9.796,-12.063 -1.591,-4.913 1.592,-6.551 5.42,-3.573 2.487,1.986 4.376,6.503 4.376,15.636 z"
     id="path160" /><path
     style="clip-rule:evenodd;fill:#009c69;fill-rule:evenodd"
     d="m 215.843,298.23 c -5.42,-0.893 -10.194,-3.026 -13.823,-7.048 -3.482,-3.821 -1.243,-6.6 3.48,-5.459 3.083,0.793 6.614,4.119 10.343,12.507"
     id="path162" /><path
     style="fill:none;stroke:#ffffff;stroke-width:10.12;stroke-miterlimit:2.613"
     d="m 215.843,298.23 c -5.42,-0.893 -10.194,-3.026 -13.823,-7.048 -3.482,-3.821 -1.243,-6.6 3.48,-5.459 3.083,0.793 6.614,4.119 10.343,12.507 z"
     id="path164" /><path
     style="clip-rule:evenodd;fill:#009c69;fill-rule:evenodd"
     d="m 218.081,317.538 c -5.47,-0.148 -10.492,-1.588 -14.669,-5.063 -3.977,-3.325 -2.138,-6.403 2.684,-5.857 3.183,0.299 7.161,3.128 11.985,10.92"
     id="path166" /><path
     style="fill:none;stroke:#ffffff;stroke-width:10.12;stroke-miterlimit:2.613"
     d="m 218.081,317.538 c -5.47,-0.148 -10.492,-1.588 -14.669,-5.063 -3.977,-3.325 -2.138,-6.403 2.684,-5.857 3.183,0.299 7.161,3.128 11.985,10.92 z"
     id="path168" /><path
     style="clip-rule:evenodd;fill:#009c69;fill-rule:evenodd"
     d="m 226.882,336.5 c -5.221,1.538 -10.492,1.737 -15.515,-0.298 -4.822,-1.887 -4.027,-5.41 0.747,-6.403 3.082,-0.645 7.758,0.795 14.768,6.701"
     id="path170" /><path
     style="fill:none;stroke:#ffffff;stroke-width:10.12;stroke-miterlimit:2.613"
     d="m 226.882,336.5 c -5.221,1.538 -10.492,1.737 -15.515,-0.298 -4.822,-1.887 -4.027,-5.41 0.747,-6.403 3.082,-0.645 7.758,0.795 14.768,6.701 z"
     id="path172" /><path
     style="clip-rule:evenodd;fill:#009c69;fill-rule:evenodd"
     d="m 233.844,348.908 c -4.575,3.027 -9.547,4.716 -14.967,4.27 -5.122,-0.447 -5.42,-4.021 -1.144,-6.353 2.784,-1.539 7.657,-1.539 16.111,2.083"
     id="path174" /><path
     style="fill:none;stroke:#ffffff;stroke-width:10.12;stroke-miterlimit:2.613"
     d="m 233.844,348.908 c -4.575,3.027 -9.547,4.716 -14.967,4.27 -5.122,-0.447 -5.42,-4.021 -1.144,-6.353 2.784,-1.539 7.657,-1.539 16.111,2.083 z"
     id="path176" /><path
     style="fill:none;stroke:#ffffff;stroke-width:10.12;stroke-miterlimit:2.613"
     d="M 248.762,362.212 C 213.257,344.243 205.699,269.441 227.828,235.739"
     id="path178" /><line
     style="fill:none;stroke:#ffffff;stroke-width:10.12;stroke-miterlimit:2.613"
     x1="222.955"
     y1="329.64899"
     x2="225.63901"
     y2="322.60199"
     id="line180" /><line
     style="fill:none;stroke:#ffffff;stroke-width:10.12;stroke-miterlimit:2.613"
     x1="222.009"
     y1="326.026"
     x2="216.39"
     y2="323.84399"
     id="line182" /><line
     style="fill:none;stroke:#ffffff;stroke-width:10.12;stroke-miterlimit:2.613"
     x1="217.38499"
     y1="310.242"
     x2="222.009"
     y2="305.62601"
     id="line184" /><line
     style="fill:none;stroke:#ffffff;stroke-width:10.12;stroke-miterlimit:2.613"
     x1="215.44501"
     y1="290.58701"
     x2="219.573"
     y2="285.22601"
     id="line186" /><line
     style="fill:none;stroke:#ffffff;stroke-width:10.12;stroke-miterlimit:2.613"
     x1="214.948"
     y1="287.905"
     x2="211.567"
     y2="284.53101"
     id="line188" /><line
     style="fill:none;stroke:#ffffff;stroke-width:10.12;stroke-miterlimit:2.613"
     x1="216.39"
     y1="267.50601"
     x2="221.263"
     y2="262.64099"
     id="line190" /><line
     style="fill:none;stroke:#ffffff;stroke-width:10.12;stroke-miterlimit:2.613"
     x1="223.203"
     y1="243.979"
     x2="222.009"
     y2="239.36099"
     id="line192" /><line
     style="fill:none;stroke:#ffffff;stroke-width:10.12;stroke-miterlimit:2.613"
     x1="223.94901"
     y1="242.737"
     x2="227.828"
     y2="241.79401"
     id="line194" /><path
     style="clip-rule:evenodd;fill:#343536;fill-rule:evenodd"
     d="m 219.672,239.114 c 0,-0.896 0.746,-1.588 1.591,-1.588 0.896,0 1.592,0.692 1.592,1.588 0,0.894 -0.696,1.588 -1.592,1.588 -0.845,0 -1.591,-0.694 -1.591,-1.588"
     id="path196" /><path
     style="fill:none;stroke:#ffffff;stroke-width:10.12;stroke-miterlimit:2.613"
     d="m 219.672,239.114 c 0,-0.896 0.746,-1.588 1.591,-1.588 0.896,0 1.592,0.692 1.592,1.588 0,0.894 -0.696,1.588 -1.592,1.588 -0.845,0 -1.591,-0.694 -1.591,-1.588 z"
     id="path198" /><path
     style="clip-rule:evenodd;fill:#343536;fill-rule:evenodd"
     d="m 226.585,242.092 c 0,-0.893 0.745,-1.589 1.591,-1.589 0.894,0 1.591,0.696 1.591,1.589 0,0.844 -0.697,1.539 -1.591,1.539 -0.845,0 -1.591,-0.695 -1.591,-1.539"
     id="path200" /><path
     style="fill:none;stroke:#ffffff;stroke-width:10.12;stroke-miterlimit:2.613"
     d="m 226.585,242.092 c 0,-0.893 0.745,-1.589 1.591,-1.589 0.894,0 1.591,0.696 1.591,1.589 0,0.844 -0.697,1.539 -1.591,1.539 -0.845,0 -1.591,-0.695 -1.591,-1.539 z"
     id="path202" /><path
     style="clip-rule:evenodd;fill:#343536;fill-rule:evenodd"
     d="m 219.573,263.286 c 0,-0.844 0.696,-1.538 1.541,-1.538 0.895,0 1.592,0.694 1.592,1.538 0,0.894 -0.697,1.589 -1.592,1.589 -0.844,0 -1.541,-0.695 -1.541,-1.589"
     id="path204" /><path
     style="fill:none;stroke:#ffffff;stroke-width:10.12;stroke-miterlimit:2.613"
     d="m 219.573,263.286 c 0,-0.844 0.696,-1.538 1.541,-1.538 0.895,0 1.592,0.694 1.592,1.538 0,0.894 -0.697,1.589 -1.592,1.589 -0.844,0 -1.541,-0.695 -1.541,-1.589 z"
     id="path206" /><path
     style="clip-rule:evenodd;fill:#343536;fill-rule:evenodd"
     d="m 217.733,285.424 c 0,-0.893 0.696,-1.588 1.591,-1.588 0.846,0 1.592,0.695 1.592,1.588 0,0.844 -0.746,1.539 -1.592,1.539 -0.895,0 -1.591,-0.695 -1.591,-1.539"
     id="path208" /><path
     style="fill:none;stroke:#ffffff;stroke-width:10.12;stroke-miterlimit:2.613"
     d="m 217.733,285.424 c 0,-0.893 0.696,-1.588 1.591,-1.588 0.846,0 1.592,0.695 1.592,1.588 0,0.844 -0.746,1.539 -1.592,1.539 -0.895,0 -1.591,-0.695 -1.591,-1.539 z"
     id="path210" /><path
     style="clip-rule:evenodd;fill:#343536;fill-rule:evenodd"
     d="m 209.727,284.183 c 0,-0.844 0.696,-1.589 1.541,-1.589 0.896,0 1.592,0.745 1.592,1.589 0,0.894 -0.696,1.59 -1.592,1.59 -0.845,0 -1.541,-0.697 -1.541,-1.59"
     id="path212" /><path
     style="fill:none;stroke:#ffffff;stroke-width:10.12;stroke-miterlimit:2.613"
     d="m 209.727,284.183 c 0,-0.844 0.696,-1.589 1.541,-1.589 0.896,0 1.592,0.745 1.592,1.589 0,0.894 -0.696,1.59 -1.592,1.59 -0.845,0 -1.541,-0.697 -1.541,-1.59 z"
     id="path214" /><path
     style="clip-rule:evenodd;fill:#343536;fill-rule:evenodd"
     d="m 220.02,305.328 c 0,-0.893 0.746,-1.589 1.592,-1.589 0.895,0 1.591,0.695 1.591,1.589 0,0.845 -0.696,1.539 -1.591,1.539 -0.846,0 -1.592,-0.694 -1.592,-1.539"
     id="path216" /><path
     style="fill:none;stroke:#ffffff;stroke-width:10.12;stroke-miterlimit:2.613"
     d="m 220.02,305.328 c 0,-0.893 0.746,-1.589 1.592,-1.589 0.895,0 1.591,0.695 1.591,1.589 0,0.845 -0.696,1.539 -1.591,1.539 -0.846,0 -1.592,-0.694 -1.592,-1.539 z"
     id="path218" /><path
     style="clip-rule:evenodd;fill:#343536;fill-rule:evenodd"
     d="m 223.799,322.8 c 0,-0.894 0.697,-1.588 1.591,-1.588 0.896,0 1.592,0.694 1.592,1.588 0,0.845 -0.696,1.538 -1.592,1.538 -0.893,0 -1.591,-0.693 -1.591,-1.538"
     id="path220" /><path
     style="fill:none;stroke:#ffffff;stroke-width:10.12;stroke-miterlimit:2.613"
     d="m 223.799,322.8 c 0,-0.894 0.697,-1.588 1.591,-1.588 0.896,0 1.592,0.694 1.592,1.588 0,0.845 -0.696,1.538 -1.592,1.538 -0.893,0 -1.591,-0.693 -1.591,-1.538 z"
     id="path222" /><path
     style="clip-rule:evenodd;fill:#343536;fill-rule:evenodd"
     d="m 214.799,323.743 c 0,-0.844 0.696,-1.589 1.591,-1.589 0.895,0 1.592,0.745 1.592,1.589 0,0.894 -0.697,1.588 -1.592,1.588 -0.895,0 -1.591,-0.694 -1.591,-1.588"
     id="path224" /><path
     style="fill:none;stroke:#ffffff;stroke-width:10.12;stroke-miterlimit:2.613"
     d="m 214.799,323.743 c 0,-0.844 0.696,-1.589 1.591,-1.589 0.895,0 1.592,0.745 1.592,1.589 0,0.894 -0.697,1.588 -1.592,1.588 -0.895,0 -1.591,-0.694 -1.591,-1.588 z"
     id="path226" /><polygon
     style="clip-rule:evenodd;fill:#ffffff;fill-rule:evenodd"
     points="294.659,348.164 281.881,355.609 281.881,364.347 246.525,364.347 254.033,356.603 246.624,348.164 "
     id="polygon228" /><polygon
     style="fill:none;stroke:#ffffff;stroke-width:10.12;stroke-miterlimit:2.613"
     points="294.659,348.164 281.881,355.609 281.881,364.347 246.525,364.347 254.033,356.603 246.624,348.164 "
     id="polygon230" /><polygon
     style="clip-rule:evenodd;fill:#ffffff;fill-rule:evenodd"
     points="307.439,348.164 320.17,355.56 320.17,364.297 355.575,364.297 348.017,356.553 355.425,348.164 "
     id="polygon232" /><polygon
     style="fill:none;stroke:#ffffff;stroke-width:10.12;stroke-miterlimit:2.613"
     points="307.439,348.164 320.17,355.56 320.17,364.297 355.575,364.297 348.017,356.553 355.425,348.164 "
     id="polygon234" /><path
     style="clip-rule:evenodd;fill:#ffffff;fill-rule:evenodd"
     d="m 281.881,355.907 c 0,-0.198 0.149,-0.348 0.347,-0.348 h 37.643 c 0.15,0 0.348,0.149 0.348,0.348 v 13.402 c 0,0.198 -0.198,0.347 -0.348,0.347 h -37.643 c -0.198,0 -0.347,-0.148 -0.347,-0.347 z"
     id="path236" /><path
     style="fill:none;stroke:#ffffff;stroke-width:10.12;stroke-miterlimit:2.613"
     d="m 281.881,355.907 c 0,-0.198 0.149,-0.348 0.347,-0.348 h 37.643 c 0.15,0 0.348,0.149 0.348,0.348 v 13.402 c 0,0.198 -0.198,0.347 -0.348,0.347 h -37.643 c -0.198,0 -0.347,-0.148 -0.347,-0.347 z"
     id="path238" /><polygon
     style="clip-rule:evenodd;fill:#343536;fill-rule:evenodd"
     points="307.39,355.56 320.319,355.56 307.39,348.164 "
     id="polygon240" /><polygon
     style="fill:none;stroke:#ffffff;stroke-width:10.12;stroke-miterlimit:2.613"
     points="307.39,355.56 320.319,355.56 307.39,348.164 "
     id="polygon242" /><polygon
     style="clip-rule:evenodd;fill:#343536;fill-rule:evenodd"
     points="294.659,355.56 281.731,355.56 294.659,348.164 "
     id="polygon244" /><polygon
     style="fill:none;stroke:#ffffff;stroke-width:10.12;stroke-miterlimit:2.613"
     points="294.659,355.56 281.731,355.56 294.659,348.164 "
     id="polygon246" /><path
     style="clip-rule:evenodd;fill:#343536;fill-rule:evenodd"
     d="m 292.472,358.34 v 9.232 h -2.287 v -4.963 c 0,-0.694 0,-1.142 -0.05,-1.291 -0.05,-0.099 -0.149,-0.247 -0.298,-0.297 -0.149,-0.1 -0.498,-0.1 -0.995,-0.1 h -0.249 v -1.092 c 1.095,-0.249 1.94,-0.745 2.536,-1.489 z m 1.641,6.8 h 2.288 c 0,0.447 0,0.695 0.049,0.795 0,0.148 0.05,0.197 0.099,0.297 0.1,0.099 0.199,0.099 0.348,0.099 0.15,0 0.249,0 0.299,-0.099 0.1,-0.05 0.149,-0.148 0.149,-0.297 v -0.646 -1.489 c -0.1,0.248 -0.298,0.447 -0.497,0.547 -0.249,0.148 -0.547,0.198 -0.845,0.198 -0.448,0 -0.796,-0.1 -1.144,-0.348 -0.299,-0.249 -0.548,-0.497 -0.597,-0.844 -0.1,-0.299 -0.149,-0.745 -0.149,-1.291 v -0.695 c 0,-0.646 0.049,-1.141 0.099,-1.44 0.05,-0.348 0.149,-0.645 0.398,-0.893 0.199,-0.247 0.498,-0.495 0.846,-0.646 0.397,-0.148 0.845,-0.198 1.342,-0.198 0.597,0 1.094,0.1 1.492,0.248 0.398,0.199 0.696,0.446 0.945,0.745 0.199,0.299 0.347,0.646 0.347,0.994 0.05,0.346 0.05,1.041 0.05,2.084 v 1.24 c 0,1.142 0,1.836 -0.05,2.233 0,0.348 -0.148,0.694 -0.397,1.043 -0.199,0.347 -0.547,0.595 -0.945,0.745 -0.398,0.148 -0.845,0.246 -1.392,0.246 -0.647,0 -1.143,-0.098 -1.592,-0.297 -0.397,-0.248 -0.696,-0.545 -0.895,-0.893 -0.149,-0.396 -0.248,-0.843 -0.248,-1.438 m 2.288,-2.878 c 0,0.396 0.049,0.645 0.148,0.693 0.1,0.1 0.199,0.15 0.348,0.15 0.15,0 0.249,-0.051 0.348,-0.15 0.051,-0.148 0.1,-0.347 0.1,-0.693 v -1.689 c 0,-0.396 -0.049,-0.646 -0.1,-0.794 -0.099,-0.099 -0.198,-0.148 -0.348,-0.148 -0.099,0 -0.199,0.05 -0.298,0.148 -0.149,0.05 -0.198,0.348 -0.198,0.744 z m 10.193,-0.795 v 3.078 c 0,0.695 -0.049,1.24 -0.15,1.538 -0.048,0.297 -0.198,0.596 -0.446,0.894 -0.249,0.298 -0.548,0.496 -0.846,0.595 -0.348,0.101 -0.746,0.198 -1.144,0.198 -0.546,0 -1.043,-0.098 -1.392,-0.198 -0.348,-0.148 -0.647,-0.347 -0.845,-0.595 -0.248,-0.298 -0.398,-0.547 -0.497,-0.845 -0.101,-0.297 -0.101,-0.794 -0.101,-1.438 v -3.227 c 0,-0.844 0.051,-1.439 0.2,-1.887 0.15,-0.397 0.448,-0.744 0.845,-0.993 0.448,-0.247 0.995,-0.397 1.592,-0.397 0.497,0 0.994,0.1 1.392,0.248 0.398,0.199 0.696,0.397 0.894,0.646 0.15,0.248 0.3,0.547 0.399,0.893 0.05,0.298 0.099,0.795 0.099,1.49 m -2.337,-0.745 c 0,-0.495 0,-0.794 -0.049,-0.942 -0.05,-0.099 -0.15,-0.148 -0.348,-0.148 -0.15,0 -0.249,0.05 -0.349,0.198 -0.049,0.099 -0.049,0.397 -0.049,0.893 v 4.468 c 0,0.546 0,0.893 0.049,0.992 0.05,0.1 0.199,0.148 0.349,0.148 0.198,0 0.298,-0.049 0.348,-0.198 0.049,-0.099 0.049,-0.396 0.049,-0.844 z m 8.206,1.638 c 0.347,0.1 0.596,0.298 0.795,0.595 0.149,0.248 0.248,0.895 0.248,1.887 0,0.695 -0.099,1.29 -0.248,1.689 -0.199,0.397 -0.448,0.694 -0.896,0.942 -0.397,0.199 -0.944,0.297 -1.542,0.297 -0.745,0 -1.342,-0.148 -1.739,-0.347 -0.398,-0.248 -0.696,-0.546 -0.796,-0.942 -0.15,-0.349 -0.199,-0.943 -0.199,-1.837 v -0.745 h 2.288 v 1.54 c 0,0.396 0,0.645 0.049,0.743 0.049,0.1 0.149,0.148 0.349,0.148 0.148,0 0.298,-0.049 0.348,-0.198 0.05,-0.148 0.05,-0.495 0.05,-1.042 v -0.645 c 0,-0.349 0,-0.646 -0.1,-0.794 -0.1,-0.149 -0.2,-0.249 -0.348,-0.298 -0.15,-0.05 -0.448,-0.1 -0.896,-0.1 v -1.34 c 0.548,0 0.896,-0.051 0.994,-0.051 0.15,-0.05 0.25,-0.148 0.3,-0.298 0.05,-0.148 0.05,-0.347 0.05,-0.645 v -0.496 c 0,-0.348 0,-0.546 -0.1,-0.646 -0.05,-0.099 -0.15,-0.148 -0.298,-0.148 -0.15,0 -0.25,0.05 -0.3,0.148 -0.098,0.1 -0.098,0.348 -0.098,0.694 v 0.745 h -2.288 v -0.794 c 0,-0.895 0.199,-1.439 0.597,-1.787 0.398,-0.298 1.044,-0.447 1.889,-0.447 1.094,0 1.84,0.198 2.238,0.646 0.399,0.447 0.597,1.043 0.597,1.787 0,0.496 -0.05,0.894 -0.198,1.092 -0.149,0.251 -0.399,0.449 -0.746,0.647"
     id="path248" /><path
     style="fill:none;stroke:#ffffff;stroke-width:10.12;stroke-miterlimit:2.613"
     d="m 312.463,362.36 c 0.347,0.1 0.596,0.298 0.795,0.595 0.149,0.248 0.248,0.895 0.248,1.887 0,0.695 -0.099,1.291 -0.248,1.689 -0.199,0.397 -0.448,0.694 -0.896,0.942 -0.397,0.199 -0.944,0.297 -1.542,0.297 -0.745,0 -1.342,-0.148 -1.739,-0.347 -0.398,-0.248 -0.696,-0.546 -0.796,-0.942 -0.15,-0.348 -0.199,-0.943 -0.199,-1.837 v -0.745 h 2.288 v 1.54 c 0,0.396 0,0.645 0.049,0.743 0.049,0.1 0.149,0.148 0.349,0.148 0.148,0 0.298,-0.049 0.348,-0.197 0.05,-0.149 0.05,-0.496 0.05,-1.043 v -0.645 c 0,-0.349 0,-0.646 -0.1,-0.794 -0.1,-0.149 -0.2,-0.249 -0.348,-0.298 -0.15,-0.05 -0.448,-0.1 -0.896,-0.1 v -1.34 c 0.548,0 0.896,-0.051 0.994,-0.051 0.15,-0.05 0.25,-0.148 0.3,-0.297 0.05,-0.149 0.05,-0.348 0.05,-0.646 v -0.496 c 0,-0.348 0,-0.546 -0.1,-0.646 -0.05,-0.099 -0.15,-0.148 -0.298,-0.148 -0.15,0 -0.25,0.05 -0.3,0.148 -0.098,0.1 -0.098,0.348 -0.098,0.694 v 0.745 h -2.288 v -0.794 c 0,-0.895 0.199,-1.439 0.597,-1.787 0.398,-0.298 1.044,-0.447 1.889,-0.447 1.094,0 1.84,0.198 2.238,0.646 0.399,0.447 0.597,1.043 0.597,1.787 0,0.496 -0.05,0.894 -0.198,1.092 -0.149,0.251 -0.399,0.449 -0.746,0.647 z"
     id="path250" /><path
     style="fill:none;stroke:#ffffff;stroke-width:10.12;stroke-miterlimit:2.613"
     d="m 304.257,360.722 c 0,-0.495 0,-0.794 -0.049,-0.942 -0.05,-0.099 -0.15,-0.148 -0.348,-0.148 -0.15,0 -0.249,0.05 -0.349,0.198 -0.049,0.099 -0.049,0.397 -0.049,0.893 v 4.468 c 0,0.546 0,0.893 0.049,0.992 0.05,0.1 0.199,0.148 0.349,0.148 0.198,0 0.298,-0.049 0.348,-0.197 0.049,-0.1 0.049,-0.397 0.049,-0.845 z"
     id="path252" /><path
     style="fill:none;stroke:#ffffff;stroke-width:10.12;stroke-miterlimit:2.613"
     d="m 306.594,361.467 v 3.078 c 0,0.695 -0.049,1.24 -0.15,1.538 -0.048,0.297 -0.198,0.596 -0.446,0.894 -0.249,0.298 -0.548,0.496 -0.846,0.595 -0.348,0.101 -0.746,0.198 -1.144,0.198 -0.546,0 -1.043,-0.098 -1.392,-0.198 -0.348,-0.148 -0.647,-0.347 -0.845,-0.595 -0.248,-0.298 -0.398,-0.547 -0.497,-0.844 -0.101,-0.298 -0.101,-0.795 -0.101,-1.439 v -3.227 c 0,-0.844 0.051,-1.439 0.2,-1.887 0.15,-0.397 0.448,-0.744 0.845,-0.993 0.448,-0.247 0.995,-0.397 1.592,-0.397 0.497,0 0.994,0.1 1.392,0.248 0.398,0.199 0.696,0.397 0.894,0.646 0.15,0.248 0.3,0.547 0.399,0.893 0.05,0.298 0.099,0.795 0.099,1.49 z"
     id="path254" /><path
     style="fill:none;stroke:#ffffff;stroke-width:10.12;stroke-miterlimit:2.613"
     d="m 296.401,362.262 c 0,0.396 0.049,0.645 0.148,0.693 0.1,0.1 0.199,0.15 0.348,0.15 0.15,0 0.249,-0.051 0.348,-0.15 0.051,-0.148 0.1,-0.347 0.1,-0.693 v -1.689 c 0,-0.396 -0.049,-0.646 -0.1,-0.794 -0.099,-0.099 -0.198,-0.148 -0.348,-0.148 -0.099,0 -0.199,0.05 -0.298,0.148 -0.149,0.05 -0.198,0.348 -0.198,0.744 z"
     id="path256" /><path
     style="fill:none;stroke:#ffffff;stroke-width:10.12;stroke-miterlimit:2.613"
     d="m 294.113,365.14 h 2.288 c 0,0.447 0.049,0.695 0.049,0.795 0,0.148 0.05,0.198 0.099,0.297 0.1,0.099 0.199,0.099 0.348,0.099 0.15,0 0.249,0 0.299,-0.099 0.1,-0.05 0.149,-0.148 0.149,-0.297 v -0.646 -1.489 c -0.1,0.248 -0.298,0.447 -0.497,0.547 -0.249,0.148 -0.547,0.198 -0.845,0.198 -0.448,0 -0.796,-0.1 -1.144,-0.348 -0.299,-0.249 -0.548,-0.497 -0.597,-0.844 -0.1,-0.299 -0.149,-0.745 -0.149,-1.291 v -0.695 c 0,-0.646 0.049,-1.141 0.099,-1.44 0.05,-0.348 0.149,-0.645 0.398,-0.893 0.199,-0.247 0.498,-0.495 0.846,-0.646 0.398,-0.148 0.845,-0.198 1.342,-0.198 0.597,0 1.094,0.1 1.492,0.248 0.398,0.199 0.696,0.446 0.945,0.745 0.199,0.299 0.348,0.646 0.348,0.994 0.049,0.346 0.049,1.041 0.049,2.084 v 1.24 c 0,1.142 0,1.836 -0.049,2.233 0,0.348 -0.149,0.694 -0.398,1.043 -0.199,0.347 -0.547,0.595 -0.945,0.745 -0.398,0.148 -0.845,0.246 -1.392,0.246 -0.647,0 -1.143,-0.098 -1.592,-0.297 -0.397,-0.248 -0.696,-0.545 -0.895,-0.893 -0.149,-0.396 -0.248,-0.843 -0.248,-1.438 z"
     id="path258" /><path
     style="fill:none;stroke:#ffffff;stroke-width:10.12;stroke-miterlimit:2.613"
     d="m 292.472,358.34 v 9.232 h -2.287 v -4.963 c 0,-0.694 0,-1.142 -0.05,-1.291 -0.05,-0.099 -0.149,-0.247 -0.298,-0.297 -0.149,-0.1 -0.498,-0.1 -0.995,-0.1 h -0.249 v -1.092 c 1.095,-0.249 1.94,-0.745 2.536,-1.489 z"
     id="path260" /><path
     style="clip-rule:evenodd;fill:#f7db2a;fill-rule:evenodd"
     d="m 300.826,190.222 -39.831,4.17 c -8.404,-2.978 -11.785,-8.19 -9.995,-15.635 -1.591,-1.441 -2.536,-2.979 -2.785,-4.716 -1.939,-0.993 -2.933,-2.134 -3.033,-3.375 2.933,-3.772 5.47,-5.511 9.05,-1.49 5.818,0.2 2.238,4.22 6.116,8.736 1.99,2.283 0.846,1.639 -5.171,3.425 -0.15,7.595 23.322,9.829 20.089,-5.508 -4.524,2.083 -7.16,2.183 -6.961,0 0.496,-5.512 -4.824,-7.595 -2.089,-9.383 2.735,-1.786 1.393,-3.375 3.034,-4.665 1.64,-1.291 3.431,0.495 5.669,0 2.883,-0.646 2.535,-2.184 5.022,-1.489 2.784,0.843 1.094,2.68 3.73,3.425 2.933,0.793 -1.244,5.856 0.795,10.025 0.846,1.59 -0.298,2.582 -6.116,1.29 0,8.043 19.592,12.609 20.537,-0.991 -3.979,1.39 -5.868,1.142 -5.669,-0.795 0.796,-4.715 -3.68,-7.346 -1.294,-8.885 3.233,-2.085 0.896,-2.68 2.437,-4.069 1.592,-1.44 4.277,-0.1 6.515,0.745 l 0.099,0.048 c 2.288,-0.793 4.873,-2.083 6.514,-0.645 1.542,1.39 -0.845,1.935 2.387,4.021 2.437,1.588 -2.089,4.218 -1.293,8.884 0.249,1.935 -1.64,2.234 -5.668,0.845 0.994,13.551 20.586,9.033 20.586,0.942 -5.817,1.29 -6.961,0.348 -6.166,-1.289 2.088,-4.121 -2.089,-9.183 0.796,-10.027 2.685,-0.745 0.994,-2.583 3.729,-3.376 2.537,-0.745 2.188,0.845 5.022,1.439 2.288,0.495 4.029,-1.291 5.669,0 1.641,1.339 0.299,2.93 3.083,4.716 2.685,1.737 -2.585,3.873 -2.138,9.332 0.2,2.185 -2.387,2.133 -6.912,0 -3.282,15.387 20.19,13.104 20.04,5.509 -5.968,-1.786 -7.11,-1.142 -5.171,-3.376 3.878,-4.517 0.298,-8.586 6.166,-8.735 3.531,-4.02 6.116,-2.283 9.049,1.439 -0.098,1.291 -1.142,2.433 -3.083,3.426 -0.248,1.687 -1.142,3.275 -2.735,4.665 1.741,7.496 -1.591,12.707 -10.044,15.684 l -39.831,-4.219 z"
     id="path262" /><path
     style="fill:none;stroke:#343536;stroke-width:1.669;stroke-miterlimit:2.613"
     d="m 300.826,190.222 -39.831,4.17 c -8.404,-2.978 -11.785,-8.19 -9.995,-15.635 -1.591,-1.441 -2.536,-2.979 -2.785,-4.716 -1.939,-0.993 -2.933,-2.134 -3.033,-3.375 2.933,-3.772 5.47,-5.511 9.05,-1.49 5.818,0.2 2.238,4.22 6.116,8.736 1.99,2.283 0.846,1.639 -5.171,3.425 -0.15,7.595 23.322,9.829 20.089,-5.508 -4.524,2.083 -7.16,2.183 -6.961,0 0.496,-5.512 -4.824,-7.595 -2.089,-9.383 2.735,-1.786 1.393,-3.375 3.034,-4.665 1.64,-1.291 3.431,0.495 5.669,0 2.883,-0.646 2.535,-2.184 5.022,-1.489 2.784,0.843 1.094,2.68 3.73,3.425 2.933,0.793 -1.244,5.856 0.795,10.025 0.846,1.59 -0.298,2.582 -6.116,1.29 0,8.043 19.592,12.609 20.537,-0.991 -3.979,1.39 -5.868,1.142 -5.669,-0.795 0.796,-4.715 -3.68,-7.346 -1.294,-8.885 3.233,-2.085 0.896,-2.68 2.437,-4.069 1.592,-1.44 4.277,-0.1 6.515,0.745 l 0.099,0.048 c 2.288,-0.793 4.873,-2.083 6.514,-0.645 1.542,1.39 -0.845,1.935 2.387,4.021 2.437,1.588 -2.089,4.218 -1.293,8.884 0.249,1.935 -1.64,2.234 -5.668,0.845 0.994,13.551 20.586,9.033 20.586,0.942 -5.817,1.29 -6.961,0.348 -6.166,-1.289 2.088,-4.121 -2.089,-9.183 0.796,-10.027 2.685,-0.745 0.994,-2.583 3.729,-3.376 2.537,-0.745 2.188,0.845 5.022,1.439 2.288,0.495 4.029,-1.291 5.669,0 1.641,1.339 0.299,2.93 3.083,4.716 2.685,1.737 -2.585,3.873 -2.138,9.332 0.2,2.185 -2.387,2.133 -6.912,0 -3.282,15.387 20.19,13.104 20.04,5.509 -5.968,-1.786 -7.11,-1.142 -5.171,-3.376 3.878,-4.517 0.298,-8.586 6.166,-8.735 3.531,-4.02 6.116,-2.283 9.049,1.439 -0.098,1.291 -1.142,2.433 -3.083,3.426 -0.248,1.687 -1.142,3.275 -2.735,4.665 1.741,7.496 -1.591,12.707 -10.044,15.684 l -39.831,-4.219 z"
     id="path264" /><path
     style="clip-rule:evenodd;fill:#df4145;fill-rule:evenodd"
     d="m 272.333,166.744 c 0.547,-0.794 1.74,-0.1 2.933,-0.248 0.995,-0.148 1.99,-1.241 2.836,-0.693 0.845,0.644 0,1.785 0.149,2.927 0.1,1.043 1.293,2.085 0.746,2.83 -0.448,0.595 -1.542,-0.249 -2.835,0 -0.995,0.148 -2.089,1.488 -2.934,0.893 -0.646,-0.446 0.199,-1.786 0,-2.879 -0.148,-1.241 -1.243,-2.333 -0.895,-2.83"
     id="path266" /><path
     style="fill:none;stroke:#343536;stroke-width:1.561;stroke-linejoin:round;stroke-miterlimit:2.613"
     d="m 272.333,166.744 c 0.547,-0.794 1.74,-0.1 2.933,-0.248 0.995,-0.148 1.99,-1.241 2.836,-0.693 0.845,0.644 0,1.785 0.149,2.927 0.1,1.043 1.293,2.085 0.746,2.83 -0.448,0.595 -1.542,-0.249 -2.835,0 -0.995,0.148 -2.089,1.488 -2.934,0.893 -0.646,-0.446 0.199,-1.786 0,-2.879 -0.148,-1.241 -1.243,-2.333 -0.895,-2.83 z"
     id="path268" /><path
     style="clip-rule:evenodd;fill:#df4145;fill-rule:evenodd"
     d="m 329.468,166.844 c -0.547,-0.744 -1.69,-0.051 -2.884,-0.248 -1.044,-0.1 -2.039,-1.241 -2.834,-0.646 -0.896,0.646 -0.05,1.787 -0.149,2.929 -0.15,1.042 -1.293,2.084 -0.747,2.78 0.399,0.594 1.493,-0.2 2.785,0 0.994,0.148 2.139,1.538 2.935,0.941 0.646,-0.496 -0.15,-1.786 0,-2.878 0.198,-1.29 1.292,-2.382 0.894,-2.878"
     id="path270" /><path
     style="fill:none;stroke:#343536;stroke-width:1.561;stroke-linejoin:round;stroke-miterlimit:2.613"
     d="m 329.468,166.844 c -0.547,-0.744 -1.69,-0.051 -2.884,-0.248 -1.044,-0.1 -2.039,-1.241 -2.834,-0.646 -0.896,0.646 -0.05,1.787 -0.149,2.929 -0.15,1.042 -1.293,2.084 -0.747,2.78 0.399,0.594 1.493,-0.2 2.785,0 0.994,0.148 2.139,1.538 2.935,0.941 0.646,-0.496 -0.15,-1.786 0,-2.878 0.198,-1.29 1.292,-2.382 0.894,-2.878 z"
     id="path272" /><path
     style="clip-rule:evenodd;fill:#df4145;fill-rule:evenodd"
     d="m 353.189,173.891 c -0.847,-0.545 -1.343,-1.934 -2.289,-1.736 -1.094,0.248 -0.745,1.639 -1.292,2.632 -0.547,0.942 -2.039,1.439 -1.789,2.333 0.148,0.693 1.49,0.347 2.584,1.041 0.846,0.545 3.83,-3.674 2.786,-4.27"
     id="path274" /><path
     style="fill:none;stroke:#343536;stroke-width:1.561;stroke-linejoin:round;stroke-miterlimit:2.613"
     d="m 353.189,173.891 c -0.847,-0.545 -1.343,-1.934 -2.289,-1.736 -1.094,0.248 -0.745,1.639 -1.292,2.632 -0.547,0.942 -2.039,1.439 -1.789,2.333 0.148,0.693 1.49,0.347 2.584,1.041 0.846,0.545 3.83,-3.674 2.786,-4.27 z"
     id="path276" /><path
     style="clip-rule:evenodd;fill:#df4145;fill-rule:evenodd"
     d="m 248.613,173.742 c 0.895,-0.496 1.393,-1.935 2.338,-1.687 1.043,0.248 0.695,1.639 1.292,2.632 0.497,0.893 1.989,1.389 1.79,2.283 -0.149,0.693 -1.491,0.397 -2.586,1.09 -0.843,0.547 -3.878,-3.672 -2.834,-4.318"
     id="path278" /><path
     style="fill:none;stroke:#343536;stroke-width:1.561;stroke-linejoin:round;stroke-miterlimit:2.613"
     d="m 248.613,173.742 c 0.895,-0.496 1.393,-1.935 2.338,-1.687 1.043,0.248 0.695,1.639 1.292,2.632 0.497,0.893 1.989,1.389 1.79,2.283 -0.149,0.693 -1.491,0.397 -2.586,1.09 -0.843,0.547 -3.878,-3.672 -2.834,-4.318 z"
     id="path280" /><path
     style="clip-rule:evenodd;fill:#df4145;fill-rule:evenodd"
     d="m 297.942,164.56 c 0.646,-0.694 1.69,0.199 2.884,0.25 1.044,0 2.187,-0.944 2.933,-0.25 0.747,0.795 -0.297,1.738 -0.347,2.93 -0.051,1.042 0.944,2.233 0.347,2.879 -0.546,0.496 -1.491,-0.447 -2.784,-0.447 -0.995,0 -2.337,1.142 -3.033,0.447 -0.597,-0.596 0.398,-1.737 0.447,-2.83 0,-1.291 -0.895,-2.532 -0.447,-2.979"
     id="path282" /><path
     style="fill:none;stroke:#343536;stroke-width:1.561;stroke-linejoin:round;stroke-miterlimit:2.613"
     d="m 297.942,164.56 c 0.646,-0.694 1.69,0.199 2.884,0.25 1.044,0 2.187,-0.944 2.933,-0.25 0.747,0.795 -0.297,1.738 -0.347,2.93 -0.051,1.042 0.944,2.233 0.347,2.879 -0.546,0.496 -1.491,-0.447 -2.784,-0.447 -0.995,0 -2.337,1.142 -3.033,0.447 -0.597,-0.596 0.398,-1.737 0.447,-2.83 0,-1.291 -0.895,-2.532 -0.447,-2.979 z"
     id="path284" /><rect
     x="254.92799"
     y="240.45399"
     style="clip-rule:evenodd;fill:#343536;fill-rule:evenodd"
     width="18.349001"
     height="18.315001"
     id="rect286" /><rect
     x="254.92799"
     y="258.76999"
     style="clip-rule:evenodd;fill:#ffffff;fill-rule:evenodd"
     width="18.349001"
     height="18.313999"
     id="rect288" /><rect
     x="254.92799"
     y="277.08499"
     style="clip-rule:evenodd;fill:#343536;fill-rule:evenodd"
     width="18.349001"
     height="18.316"
     id="rect290" /><rect
     x="254.92799"
     y="295.401"
     style="clip-rule:evenodd;fill:#ffffff;fill-rule:evenodd"
     width="18.349001"
     height="18.313999"
     id="rect292" /><rect
     x="254.92799"
     y="313.71701"
     style="clip-rule:evenodd;fill:#343536;fill-rule:evenodd"
     width="18.349001"
     height="18.315001"
     id="rect294" /><rect
     x="273.27701"
     y="240.45399"
     style="clip-rule:evenodd;fill:#ffffff;fill-rule:evenodd"
     width="18.35"
     height="18.315001"
     id="rect296" /><rect
     x="273.27701"
     y="258.76999"
     style="clip-rule:evenodd;fill:#343536;fill-rule:evenodd"
     width="18.35"
     height="18.313999"
     id="rect298" /><rect
     x="273.27701"
     y="277.08499"
     style="clip-rule:evenodd;fill:#ffffff;fill-rule:evenodd"
     width="18.35"
     height="18.316"
     id="rect300" /><rect
     x="273.27701"
     y="295.401"
     style="clip-rule:evenodd;fill:#343536;fill-rule:evenodd"
     width="18.35"
     height="18.313999"
     id="rect302" /><rect
     x="273.27701"
     y="313.71701"
     style="clip-rule:evenodd;fill:#ffffff;fill-rule:evenodd"
     width="18.35"
     height="18.315001"
     id="rect304" /><rect
     x="291.62701"
     y="240.45399"
     style="clip-rule:evenodd;fill:#343536;fill-rule:evenodd"
     width="18.349001"
     height="18.315001"
     id="rect306" /><rect
     x="291.62701"
     y="258.76999"
     style="clip-rule:evenodd;fill:#ffffff;fill-rule:evenodd"
     width="18.349001"
     height="18.313999"
     id="rect308" /><rect
     x="291.62701"
     y="277.08499"
     style="clip-rule:evenodd;fill:#343536;fill-rule:evenodd"
     width="18.349001"
     height="18.316"
     id="rect310" /><rect
     x="291.62701"
     y="295.401"
     style="clip-rule:evenodd;fill:#ffffff;fill-rule:evenodd"
     width="18.349001"
     height="18.313999"
     id="rect312" /><rect
     x="291.62701"
     y="313.71701"
     style="clip-rule:evenodd;fill:#343536;fill-rule:evenodd"
     width="18.349001"
     height="18.315001"
     id="rect314" /><rect
     x="309.97699"
     y="240.45399"
     style="clip-rule:evenodd;fill:#ffffff;fill-rule:evenodd"
     width="18.35"
     height="18.315001"
     id="rect316" /><rect
     x="309.97699"
     y="258.76999"
     style="clip-rule:evenodd;fill:#343536;fill-rule:evenodd"
     width="18.35"
     height="18.313999"
     id="rect318" /><rect
     x="309.97699"
     y="277.08499"
     style="clip-rule:evenodd;fill:#ffffff;fill-rule:evenodd"
     width="18.35"
     height="18.316"
     id="rect320" /><rect
     x="309.97699"
     y="295.401"
     style="clip-rule:evenodd;fill:#343536;fill-rule:evenodd"
     width="18.35"
     height="18.313999"
     id="rect322" /><rect
     x="309.97699"
     y="313.71701"
     style="clip-rule:evenodd;fill:#ffffff;fill-rule:evenodd"
     width="18.35"
     height="18.315001"
     id="rect324" /><rect
     x="328.32599"
     y="240.45399"
     style="clip-rule:evenodd;fill:#343536;fill-rule:evenodd"
     width="18.349001"
     height="18.315001"
     id="rect326" /><rect
     x="328.32599"
     y="258.76999"
     style="clip-rule:evenodd;fill:#ffffff;fill-rule:evenodd"
     width="18.349001"
     height="18.313999"
     id="rect328" /><rect
     x="328.32599"
     y="277.08499"
     style="clip-rule:evenodd;fill:#343536;fill-rule:evenodd"
     width="18.349001"
     height="18.316"
     id="rect330" /><rect
     x="328.32599"
     y="295.401"
     style="clip-rule:evenodd;fill:#ffffff;fill-rule:evenodd"
     width="18.349001"
     height="18.313999"
     id="rect332" /><rect
     x="328.32599"
     y="313.71701"
     style="clip-rule:evenodd;fill:#343536;fill-rule:evenodd"
     width="18.349001"
     height="18.315001"
     id="rect334" /><path
     style="clip-rule:evenodd;fill:#f7db2a;fill-rule:evenodd"
     d="M 292.074,334.315 H 258.56 c -5.073,0 -9.2,-4.12 -9.2,-9.133 V 209.729 h 102.785 v 115.454 c 0,5.013 -4.127,9.133 -9.2,9.133 h -33.366 c -4.674,0 -6.962,2.035 -8.752,6.006 -1.791,-4.021 -4.178,-6.007 -8.753,-6.007 m 0.697,-4.467 h -31.328 c -3.63,0 -6.564,-2.432 -6.564,-5.41 v -83.983 h 91.745 v 83.983 c 0,2.978 -2.933,5.41 -6.564,5.41 h -31.327 c -3.779,0 -6.564,1.341 -7.956,2.731 -1.442,-1.44 -4.277,-2.731 -8.006,-2.731"
     id="path336" /><path
     style="fill:none;stroke:#343536;stroke-width:1.669;stroke-miterlimit:2.613"
     d="m 292.771,329.848 h -31.328 c -3.63,0 -6.564,-2.432 -6.564,-5.41 v -83.983 h 91.745 v 83.983 c 0,2.978 -2.933,5.41 -6.564,5.41 h -31.327 c -3.779,0 -6.564,1.341 -7.956,2.731 -1.442,-1.44 -4.277,-2.731 -8.006,-2.731 z"
     id="path338" /><path
     style="fill:none;stroke:#343536;stroke-width:1.669;stroke-miterlimit:2.613"
     d="M 292.074,334.315 H 258.56 c -5.073,0 -9.2,-4.12 -9.2,-9.133 V 209.729 h 102.785 v 115.454 c 0,5.013 -4.127,9.133 -9.2,9.133 h -33.366 c -4.674,0 -6.962,2.035 -8.752,6.006 -1.791,-4.021 -4.178,-6.007 -8.753,-6.007 z"
     id="path340" /><rect
     x="254.879"
     y="214.84399"
     style="clip-rule:evenodd;fill:#343536;fill-rule:evenodd"
     width="91.745003"
     height="20.15"
     id="rect342" /><rect
     x="254.879"
     y="214.84399"
     style="fill:none;stroke:#343536;stroke-width:1.669;stroke-miterlimit:2.613"
     width="91.745003"
     height="20.15"
     id="rect344" /><path
     style="clip-rule:evenodd;fill:#f7db2a;fill-rule:evenodd"
     d="m 280.636,227.053 v 1.439 c 0,1.886 -0.745,3.424 -4.673,3.424 h -15.067 v -13.799 h 15.067 c 3.878,0 4.673,1.54 4.673,3.425 0,1.488 -1.242,2.632 -2.834,2.632 1.294,0 2.834,0.991 2.834,2.879 m -14.619,-6.502 h 7.807 c 1.343,0 1.741,0.842 1.741,1.587 0,0.795 -0.398,1.638 -1.741,1.638 h -7.807 z m 0,4.963 h 7.807 c 1.392,0 1.741,1.142 1.741,2.085 0,0.943 -0.349,2.085 -1.741,2.085 h -7.807 z"
     id="path346" /><polygon
     style="clip-rule:evenodd;fill:#f7db2a;fill-rule:evenodd"
     points="296.052,225.464 296.052,231.916 290.831,231.916 290.831,218.117 310.572,218.117 310.572,220.501 296.052,220.501 296.052,223.727 308.185,223.727 308.185,225.464 "
     id="polygon348" /><path
     style="clip-rule:evenodd;fill:#f7db2a;fill-rule:evenodd"
     d="m 321.414,218.117 h 14.52 v 2.384 h -13.775 c -0.397,0 -0.745,0.396 -0.745,0.743 v 7.546 c 0,0.347 0.348,0.693 0.745,0.693 h 13.775 v 2.433 h -14.52 c -3.779,0 -5.221,-0.743 -5.221,-3.623 v -6.553 c -10e-4,-2.679 1.191,-3.623 5.221,-3.623"
     id="path350" /><rect
     x="308.086"
     y="229.483"
     style="clip-rule:evenodd;fill:#f7db2a;fill-rule:evenodd"
     width="2.437"
     height="2.4330001"
     id="rect352" /><rect
     x="283.37299"
     y="229.483"
     style="clip-rule:evenodd;fill:#f7db2a;fill-rule:evenodd"
     width="2.3870001"
     height="2.4330001"
     id="rect354" /><rect
     x="338.22"
     y="229.483"
     style="clip-rule:evenodd;fill:#f7db2a;fill-rule:evenodd"
     width="2.437"
     height="2.4330001"
     id="rect356" /><path
     style="clip-rule:evenodd;fill:#f7db2a;fill-rule:evenodd"
     d="M 340.806,195.532 338.22,207 c -26.405,-9.036 -47.886,-9.036 -74.938,0 l -2.586,-11.468 c 26.406,-7.097 53.109,-7.097 80.11,0"
     id="path358" /><path
     style="fill:none;stroke:#343536;stroke-width:1.716;stroke-miterlimit:2.613"
     d="M 340.806,195.532 338.22,207 c -26.405,-9.036 -47.886,-9.036 -74.938,0 l -2.586,-11.468 c 26.406,-7.097 53.109,-7.097 80.11,0 z"
     id="path360" /><path
     style="clip-rule:evenodd;fill:#f7db2a;fill-rule:evenodd"
     d="m 341.949,209.531 c 4.227,-3.921 -17.702,-11.07 -41.024,-11.07 -23.62,0 -45.549,7.15 -41.372,11.07 z"
     id="path362" /><path
     style="fill:none;stroke:#343536;stroke-width:1.618;stroke-miterlimit:2.613"
     d="m 341.949,209.531 c 4.227,-3.921 -17.702,-11.07 -41.024,-11.07 -23.62,0 -45.549,7.15 -41.372,11.07 z"
     id="path364" /><path
     style="clip-rule:evenodd;fill:#df4145;fill-rule:evenodd"
     d="m 266.266,209.531 c 24.565,-8.688 44.506,-8.688 69.021,0 z"
     id="path366" /><path
     style="fill:none;stroke:#343536;stroke-width:1.783;stroke-miterlimit:2.613"
     d="m 266.266,209.432 c 18.847,-8.588 50.124,-8.885 69.021,0 z"
     id="path368" /><line
     style="fill:none;stroke:#343536;stroke-width:2.667;stroke-miterlimit:2.613"
     x1="300.77701"
     y1="203.02699"
     x2="300.77701"
     y2="209.58"
     id="line370" /><line
     style="fill:none;stroke:#343536;stroke-width:2.667;stroke-miterlimit:2.613"
     x1="304.655"
     y1="203.375"
     x2="304.655"
     y2="209.58"
     id="line372" /><line
     style="fill:none;stroke:#343536;stroke-width:2.667;stroke-miterlimit:2.613"
     x1="308.58301"
     y1="203.575"
     x2="308.58301"
     y2="209.58"
     id="line374" /><line
     style="fill:none;stroke:#343536;stroke-width:2.667;stroke-miterlimit:2.613"
     x1="312.51199"
     y1="204.07001"
     x2="312.51199"
     y2="209.58"
     id="line376" /><line
     style="fill:none;stroke:#343536;stroke-width:2.667;stroke-miterlimit:2.613"
     x1="316.39001"
     y1="204.46899"
     x2="316.39001"
     y2="209.58"
     id="line378" /><line
     style="fill:none;stroke:#343536;stroke-width:2.667;stroke-miterlimit:2.613"
     x1="320.319"
     y1="205.11301"
     x2="320.319"
     y2="209.58"
     id="line380" /><line
     style="fill:none;stroke:#343536;stroke-width:2.667;stroke-miterlimit:2.613"
     x1="324.24799"
     y1="206.155"
     x2="324.24799"
     y2="209.58"
     id="line382" /><line
     style="fill:none;stroke:#343536;stroke-width:2.667;stroke-miterlimit:2.613"
     x1="327.48001"
     y1="207"
     x2="327.48001"
     y2="209.58"
     id="line384" /><line
     style="fill:none;stroke:#343536;stroke-width:2.667;stroke-miterlimit:2.613"
     x1="296.798"
     y1="203.327"
     x2="296.798"
     y2="209.382"
     id="line386" /><line
     style="fill:none;stroke:#343536;stroke-width:2.667;stroke-miterlimit:2.613"
     x1="292.87"
     y1="203.52299"
     x2="292.87"
     y2="209.382"
     id="line388" /><line
     style="fill:none;stroke:#343536;stroke-width:2.667;stroke-miterlimit:2.613"
     x1="288.991"
     y1="204.021"
     x2="288.991"
     y2="209.382"
     id="line390" /><line
     style="fill:none;stroke:#343536;stroke-width:2.667;stroke-miterlimit:2.613"
     x1="285.064"
     y1="204.41701"
     x2="285.064"
     y2="209.382"
     id="line392" /><line
     style="fill:none;stroke:#343536;stroke-width:2.667;stroke-miterlimit:2.613"
     x1="281.134"
     y1="205.064"
     x2="281.134"
     y2="209.382"
     id="line394" /><line
     style="fill:none;stroke:#343536;stroke-width:2.667;stroke-miterlimit:2.613"
     x1="277.25601"
     y1="206.106"
     x2="277.25601"
     y2="209.382"
     id="line396" /><line
     style="fill:none;stroke:#343536;stroke-width:2.667;stroke-miterlimit:2.613"
     x1="274.02301"
     y1="206.95"
     x2="274.02301"
     y2="209.382"
     id="line398" /><path
     style="clip-rule:evenodd;fill:#f7db2a;fill-rule:evenodd"
     d="m 343.243,198.561 c 4.226,-3.474 -18.996,-9.729 -42.318,-9.729 -23.62,0 -46.842,6.255 -42.665,9.729 11.388,2.434 10.94,-5.359 42.616,-5.359 31.576,-0.001 32.073,7.692 42.367,5.359"
     id="path400" /><path
     style="fill:none;stroke:#343536;stroke-width:1.517;stroke-miterlimit:2.613"
     d="m 343.243,198.561 c 4.226,-3.474 -18.996,-9.729 -42.318,-9.729 -23.62,0 -46.842,6.255 -42.665,9.729 11.388,2.434 10.94,-5.359 42.616,-5.359 31.576,-0.001 32.073,7.692 42.367,5.359 z"
     id="path402" /><path
     style="clip-rule:evenodd;fill:#df4145;fill-rule:evenodd"
     d="m 296.848,195.881 c 0,-1.042 1.74,-1.837 3.929,-1.837 2.138,0 3.927,0.795 3.927,1.837 0,1.042 -1.789,1.838 -3.927,1.838 -2.189,0 -3.929,-0.796 -3.929,-1.838"
     id="path404" /><path
     style="fill:none;stroke:#343536;stroke-width:0.779;stroke-miterlimit:2.613"
     d="m 296.848,195.881 c 0,-1.042 1.74,-1.837 3.929,-1.837 2.138,0 3.927,0.795 3.927,1.837 0,1.042 -1.789,1.838 -3.927,1.838 -2.189,0 -3.929,-0.796 -3.929,-1.838 z"
     id="path406" /><path
     style="clip-rule:evenodd;fill:#df4145;fill-rule:evenodd"
     d="m 323.651,197.815 c 0.198,-0.793 1.74,-1.041 3.48,-0.645 1.741,0.448 2.984,1.439 2.786,2.234 -0.2,0.794 -1.741,1.092 -3.482,0.646 -1.74,-0.447 -2.983,-1.44 -2.784,-2.235"
     id="path408" /><path
     style="fill:none;stroke:#343536;stroke-width:0.779;stroke-miterlimit:2.613"
     d="m 323.651,197.815 c 0.198,-0.793 1.74,-1.041 3.48,-0.645 1.741,0.448 2.984,1.439 2.786,2.234 -0.2,0.794 -1.741,1.092 -3.482,0.646 -1.74,-0.447 -2.983,-1.44 -2.784,-2.235 z"
     id="path410" /><polygon
     style="clip-rule:evenodd;fill:#df4145;fill-rule:evenodd"
     points="318.429,197.023 314.799,195.036 311.468,196.327 315.097,198.313 "
     id="polygon412" /><polygon
     style="fill:none;stroke:#343536;stroke-width:0.779;stroke-miterlimit:2.613"
     points="318.429,197.023 314.799,195.036 311.468,196.327 315.097,198.313 "
     id="polygon414" /><polygon
     style="clip-rule:evenodd;fill:#df4145;fill-rule:evenodd"
     points="339.364,200.646 338.469,203.724 335.783,200.844 "
     id="polygon416" /><polygon
     style="fill:none;stroke:#343536;stroke-width:0.779;stroke-miterlimit:2.613"
     points="339.364,200.646 338.469,203.724 335.783,200.844 "
     id="polygon418" /><path
     style="clip-rule:evenodd;fill:#df4145;fill-rule:evenodd"
     d="m 275.863,198.561 c -0.198,-0.793 -1.74,-1.092 -3.481,-0.645 -1.74,0.397 -2.983,1.39 -2.784,2.183 0.199,0.795 1.74,1.094 3.482,0.645 1.739,-0.445 2.984,-1.438 2.783,-2.183"
     id="path420" /><path
     style="fill:none;stroke:#343536;stroke-width:0.779;stroke-miterlimit:2.613"
     d="m 275.863,198.561 c -0.198,-0.793 -1.74,-1.092 -3.481,-0.645 -1.74,0.397 -2.983,1.39 -2.784,2.183 0.199,0.795 1.74,1.094 3.482,0.645 1.739,-0.445 2.984,-1.438 2.783,-2.183 z"
     id="path422" /><polygon
     style="clip-rule:evenodd;fill:#df4145;fill-rule:evenodd"
     points="281.283,197.171 284.864,195.186 288.195,196.476 284.565,198.461 "
     id="polygon424" /><polygon
     style="fill:none;stroke:#343536;stroke-width:0.779;stroke-miterlimit:2.613"
     points="281.283,197.171 284.864,195.186 288.195,196.476 284.565,198.461 "
     id="polygon426" /><polygon
     style="clip-rule:evenodd;fill:#df4145;fill-rule:evenodd"
     points="261.89,200.795 262.785,203.872 265.47,200.943 "
     id="polygon428" /><polygon
     style="fill:none;stroke:#343536;stroke-width:0.779;stroke-miterlimit:2.613"
     points="261.89,200.795 262.785,203.872 265.47,200.943 "
     id="polygon430" /><path
     style="fill:none;stroke:#343536;stroke-width:1.669;stroke-miterlimit:2.613"
     d="m 260.845,194.739 c 5.023,-0.646 13.278,-6.305 17.306,-12.757 7.21,6.801 17.553,7.148 22.824,-2.134 6.017,9.331 15.217,9.034 22.676,2.233 4.027,6.453 12.282,12.112 17.304,12.757"
     id="path432" /><path
     style="clip-rule:evenodd;fill:#009c69;fill-rule:evenodd"
     d="m 367.46,349.555 c -4.625,-2.929 -8.205,-6.752 -9.946,-11.864 -1.74,-4.863 1.443,-6.552 5.321,-3.673 2.537,1.936 4.475,6.402 4.625,15.537"
     id="path434" /><path
     style="fill:none;stroke:#343536;stroke-width:2.463;stroke-miterlimit:2.613"
     d="m 367.46,349.555 c -4.625,-2.929 -8.205,-6.752 -9.946,-11.864 -1.74,-4.863 1.443,-6.552 5.321,-3.673 2.537,1.936 4.475,6.402 4.625,15.537 z"
     id="path436" /><path
     style="clip-rule:evenodd;fill:#009c69;fill-rule:evenodd"
     d="m 374.77,337.492 c -4.079,-3.573 -7.012,-7.941 -8.007,-13.303 -0.894,-5.063 2.487,-6.254 5.868,-2.73 2.237,2.284 3.432,7 2.139,16.033"
     id="path438" /><path
     style="fill:none;stroke:#343536;stroke-width:2.463;stroke-miterlimit:2.613"
     d="m 374.77,337.492 c -4.079,-3.573 -7.012,-7.941 -8.007,-13.303 -0.894,-5.063 2.487,-6.254 5.868,-2.73 2.237,2.284 3.432,7 2.139,16.033 z"
     id="path440" /><path
     style="clip-rule:evenodd;fill:#009c69;fill-rule:evenodd"
     d="m 382.229,318.035 c -5.222,-1.689 -9.598,-4.566 -12.582,-9.133 -2.834,-4.318 -0.148,-6.701 4.277,-4.814 2.933,1.24 5.918,5.112 8.305,13.947"
     id="path442" /><path
     style="fill:none;stroke:#343536;stroke-width:2.463;stroke-miterlimit:2.613"
     d="m 382.229,318.035 c -5.222,-1.689 -9.598,-4.566 -12.582,-9.133 -2.834,-4.318 -0.148,-6.701 4.277,-4.814 2.933,1.24 5.918,5.112 8.305,13.947 z"
     id="path444" /><path
     style="clip-rule:evenodd;fill:#009c69;fill-rule:evenodd"
     d="m 385.46,298.479 c -5.27,-1.44 -9.795,-4.07 -12.978,-8.439 -3.083,-4.169 -0.547,-6.701 4.027,-5.063 2.985,1.092 6.166,4.815 8.951,13.502"
     id="path446" /><path
     style="fill:none;stroke:#343536;stroke-width:2.463;stroke-miterlimit:2.613"
     d="m 385.46,298.479 c -5.27,-1.44 -9.795,-4.07 -12.978,-8.439 -3.083,-4.169 -0.547,-6.701 4.027,-5.063 2.985,1.092 6.166,4.815 8.951,13.502 z"
     id="path448" /><path
     style="clip-rule:evenodd;fill:#009c69;fill-rule:evenodd"
     d="m 385.958,278.773 c -5.32,-1.242 -9.945,-3.724 -13.327,-7.991 -3.183,-4.022 -0.746,-6.651 3.878,-5.162 3.035,0.992 6.316,4.567 9.449,13.153"
     id="path450" /><path
     style="fill:none;stroke:#343536;stroke-width:2.463;stroke-miterlimit:2.613"
     d="m 385.958,278.773 c -5.32,-1.242 -9.945,-3.724 -13.327,-7.991 -3.183,-4.022 -0.746,-6.651 3.878,-5.162 3.035,0.992 6.316,4.567 9.449,13.153 z"
     id="path452" /><path
     style="clip-rule:evenodd;fill:#009c69;fill-rule:evenodd"
     d="m 383.521,257.033 c -5.47,0.148 -10.592,-1.042 -14.917,-4.27 -4.128,-3.077 -2.487,-6.254 2.387,-6.005 3.182,0.149 7.308,2.78 12.53,10.275"
     id="path454" /><path
     style="fill:none;stroke:#343536;stroke-width:2.463;stroke-miterlimit:2.613"
     d="m 383.521,257.033 c -5.47,0.148 -10.592,-1.042 -14.917,-4.27 -4.128,-3.077 -2.487,-6.254 2.387,-6.005 3.182,0.149 7.308,2.78 12.53,10.275 z"
     id="path456" /><path
     style="clip-rule:evenodd;fill:#009c69;fill-rule:evenodd"
     d="m 374.868,236.234 c -4.723,-2.729 -8.453,-6.452 -10.392,-11.516 -1.89,-4.813 1.193,-6.602 5.171,-3.821 2.636,1.836 4.726,6.205 5.221,15.337"
     id="path458" /><path
     style="fill:none;stroke:#343536;stroke-width:2.463;stroke-miterlimit:2.613"
     d="m 374.868,236.234 c -4.723,-2.729 -8.453,-6.452 -10.392,-11.516 -1.89,-4.813 1.193,-6.602 5.171,-3.821 2.636,1.836 4.726,6.205 5.221,15.337 z"
     id="path460" /><path
     style="clip-rule:evenodd;fill:#009c69;fill-rule:evenodd"
     d="m 384.964,256.635 c 3.879,-3.821 6.612,-8.338 7.26,-13.699 0.645,-5.112 -2.785,-6.104 -5.968,-2.433 -2.088,2.382 -3.083,7.148 -1.292,16.132"
     id="path462" /><path
     style="fill:none;stroke:#343536;stroke-width:2.463;stroke-miterlimit:2.613"
     d="m 384.964,256.635 c 3.879,-3.821 6.612,-8.338 7.26,-13.699 0.645,-5.112 -2.785,-6.104 -5.968,-2.433 -2.088,2.382 -3.083,7.148 -1.292,16.132 z"
     id="path464" /><path
     style="clip-rule:evenodd;fill:#009c69;fill-rule:evenodd"
     d="m 387.897,279.071 c 4.526,-3.028 8.056,-6.949 9.747,-12.063 1.591,-4.913 -1.592,-6.551 -5.42,-3.573 -2.487,1.986 -4.377,6.503 -4.327,15.636"
     id="path466" /><path
     style="fill:none;stroke:#343536;stroke-width:2.463;stroke-miterlimit:2.613"
     d="m 387.897,279.071 c 4.526,-3.028 8.056,-6.949 9.747,-12.063 1.591,-4.913 -1.592,-6.551 -5.42,-3.573 -2.487,1.986 -4.377,6.503 -4.327,15.636 z"
     id="path468" /><path
     style="clip-rule:evenodd;fill:#009c69;fill-rule:evenodd"
     d="m 386.753,298.23 c 5.421,-0.893 10.195,-3.026 13.824,-7.048 3.482,-3.821 1.243,-6.6 -3.481,-5.459 -3.083,0.793 -6.614,4.119 -10.343,12.507"
     id="path470" /><path
     style="fill:none;stroke:#343536;stroke-width:2.463;stroke-miterlimit:2.613"
     d="m 386.753,298.23 c 5.421,-0.893 10.195,-3.026 13.824,-7.048 3.482,-3.821 1.243,-6.6 -3.481,-5.459 -3.083,0.793 -6.614,4.119 -10.343,12.507 z"
     id="path472" /><path
     style="clip-rule:evenodd;fill:#009c69;fill-rule:evenodd"
     d="m 384.516,317.538 c 5.47,-0.148 10.491,-1.588 14.669,-5.063 3.979,-3.325 2.138,-6.403 -2.685,-5.857 -3.182,0.299 -7.16,3.128 -11.984,10.92"
     id="path474" /><path
     style="fill:none;stroke:#343536;stroke-width:2.463;stroke-miterlimit:2.613"
     d="m 384.516,317.538 c 5.47,-0.148 10.491,-1.588 14.669,-5.063 3.979,-3.325 2.138,-6.403 -2.685,-5.857 -3.182,0.299 -7.16,3.128 -11.984,10.92 z"
     id="path476" /><path
     style="clip-rule:evenodd;fill:#009c69;fill-rule:evenodd"
     d="m 375.715,336.5 c 5.27,1.538 10.491,1.737 15.515,-0.298 4.822,-1.887 4.027,-5.41 -0.748,-6.403 -3.081,-0.645 -7.757,0.795 -14.767,6.701"
     id="path478" /><path
     style="fill:none;stroke:#343536;stroke-width:2.463;stroke-miterlimit:2.613"
     d="m 375.715,336.5 c 5.27,1.538 10.491,1.737 15.515,-0.298 4.822,-1.887 4.027,-5.41 -0.748,-6.403 -3.081,-0.645 -7.757,0.795 -14.767,6.701 z"
     id="path480" /><path
     style="clip-rule:evenodd;fill:#009c69;fill-rule:evenodd"
     d="m 368.752,348.908 c 4.576,3.027 9.547,4.716 14.968,4.27 5.123,-0.447 5.42,-4.021 1.144,-6.353 -2.784,-1.539 -7.657,-1.539 -16.112,2.083"
     id="path482" /><path
     style="fill:none;stroke:#343536;stroke-width:2.463;stroke-miterlimit:2.613"
     d="m 368.752,348.908 c 4.576,3.027 9.547,4.716 14.968,4.27 5.123,-0.447 5.42,-4.021 1.144,-6.353 -2.784,-1.539 -7.657,-1.539 -16.112,2.083 z"
     id="path484" /><path
     style="fill:none;stroke:#343536;stroke-width:2.463;stroke-miterlimit:2.613"
     d="M 353.835,362.212 C 389.34,344.243 396.898,269.441 374.77,235.739"
     id="path486" /><line
     style="fill:none;stroke:#343536;stroke-width:2.463;stroke-miterlimit:2.613"
     x1="379.642"
     y1="329.64899"
     x2="376.957"
     y2="322.60199"
     id="line488" /><line
     style="fill:none;stroke:#343536;stroke-width:2.463;stroke-miterlimit:2.613"
     x1="380.58801"
     y1="326.026"
     x2="386.20599"
     y2="323.84399"
     id="line490" /><line
     style="fill:none;stroke:#343536;stroke-width:2.463;stroke-miterlimit:2.613"
     x1="385.21201"
     y1="310.242"
     x2="380.58801"
     y2="305.62601"
     id="line492" /><line
     style="fill:none;stroke:#343536;stroke-width:2.463;stroke-miterlimit:2.613"
     x1="387.151"
     y1="290.58701"
     x2="383.02399"
     y2="285.22601"
     id="line494" /><line
     style="fill:none;stroke:#343536;stroke-width:2.463;stroke-miterlimit:2.613"
     x1="387.64899"
     y1="287.905"
     x2="391.08099"
     y2="284.53101"
     id="line496" /><line
     style="fill:none;stroke:#343536;stroke-width:2.463;stroke-miterlimit:2.613"
     x1="386.20599"
     y1="267.50601"
     x2="381.33301"
     y2="262.64099"
     id="line498" /><line
     style="fill:none;stroke:#343536;stroke-width:2.463;stroke-miterlimit:2.613"
     x1="379.39499"
     y1="243.979"
     x2="380.58801"
     y2="239.36099"
     id="line500" /><line
     style="fill:none;stroke:#343536;stroke-width:2.463;stroke-miterlimit:2.613"
     x1="378.64801"
     y1="242.737"
     x2="374.76999"
     y2="241.79401"
     id="line502" /><path
     style="clip-rule:evenodd;fill:#343536;fill-rule:evenodd"
     d="m 379.742,239.114 c 0,-0.896 0.696,-1.588 1.591,-1.588 0.846,0 1.592,0.692 1.592,1.588 0,0.894 -0.746,1.588 -1.592,1.588 -0.895,0 -1.591,-0.694 -1.591,-1.588"
     id="path504" /><path
     style="fill:none;stroke:#343536;stroke-width:2.463;stroke-miterlimit:2.613"
     d="m 379.742,239.114 c 0,-0.896 0.696,-1.588 1.591,-1.588 0.846,0 1.592,0.692 1.592,1.588 0,0.894 -0.746,1.588 -1.592,1.588 -0.895,0 -1.591,-0.694 -1.591,-1.588 z"
     id="path506" /><path
     style="clip-rule:evenodd;fill:#343536;fill-rule:evenodd"
     d="m 372.831,242.092 c 0,-0.893 0.696,-1.589 1.591,-1.589 0.846,0 1.592,0.696 1.592,1.589 0,0.844 -0.746,1.539 -1.592,1.539 -0.896,0 -1.591,-0.695 -1.591,-1.539"
     id="path508" /><path
     style="fill:none;stroke:#343536;stroke-width:2.463;stroke-miterlimit:2.613"
     d="m 372.831,242.092 c 0,-0.893 0.696,-1.589 1.591,-1.589 0.846,0 1.592,0.696 1.592,1.589 0,0.844 -0.746,1.539 -1.592,1.539 -0.896,0 -1.591,-0.695 -1.591,-1.539 z"
     id="path510" /><path
     style="clip-rule:evenodd;fill:#343536;fill-rule:evenodd"
     d="m 379.89,263.286 c 0,-0.844 0.698,-1.538 1.593,-1.538 0.846,0 1.541,0.694 1.541,1.538 0,0.894 -0.695,1.589 -1.541,1.589 -0.895,0 -1.593,-0.695 -1.593,-1.589"
     id="path512" /><path
     style="fill:none;stroke:#343536;stroke-width:2.463;stroke-miterlimit:2.613"
     d="m 379.89,263.286 c 0,-0.844 0.698,-1.538 1.593,-1.538 0.846,0 1.541,0.694 1.541,1.538 0,0.894 -0.695,1.589 -1.541,1.589 -0.895,0 -1.593,-0.695 -1.593,-1.589 z"
     id="path514" /><path
     style="clip-rule:evenodd;fill:#343536;fill-rule:evenodd"
     d="m 381.731,285.424 c 0,-0.893 0.696,-1.588 1.542,-1.588 0.895,0 1.591,0.695 1.591,1.588 0,0.844 -0.696,1.539 -1.591,1.539 -0.846,0 -1.542,-0.695 -1.542,-1.539"
     id="path516" /><path
     style="fill:none;stroke:#343536;stroke-width:2.463;stroke-miterlimit:2.613"
     d="m 381.731,285.424 c 0,-0.893 0.696,-1.588 1.542,-1.588 0.895,0 1.591,0.695 1.591,1.588 0,0.844 -0.696,1.539 -1.591,1.539 -0.846,0 -1.542,-0.695 -1.542,-1.539 z"
     id="path518" /><path
     style="clip-rule:evenodd;fill:#343536;fill-rule:evenodd"
     d="m 389.737,284.183 c 0,-0.844 0.697,-1.589 1.591,-1.589 0.846,0 1.541,0.745 1.541,1.589 0,0.894 -0.695,1.59 -1.541,1.59 -0.893,0 -1.591,-0.697 -1.591,-1.59"
     id="path520" /><path
     style="fill:none;stroke:#343536;stroke-width:2.463;stroke-miterlimit:2.613"
     d="m 389.737,284.183 c 0,-0.844 0.697,-1.589 1.591,-1.589 0.846,0 1.541,0.745 1.541,1.589 0,0.894 -0.695,1.59 -1.541,1.59 -0.893,0 -1.591,-0.697 -1.591,-1.59 z"
     id="path522" /><path
     style="clip-rule:evenodd;fill:#343536;fill-rule:evenodd"
     d="m 379.395,305.328 c 0,-0.893 0.696,-1.589 1.591,-1.589 0.846,0 1.592,0.695 1.592,1.589 0,0.845 -0.746,1.539 -1.592,1.539 -0.896,0 -1.591,-0.694 -1.591,-1.539"
     id="path524" /><path
     style="fill:none;stroke:#343536;stroke-width:2.463;stroke-miterlimit:2.613"
     d="m 379.395,305.328 c 0,-0.893 0.696,-1.589 1.591,-1.589 0.846,0 1.592,0.695 1.592,1.589 0,0.845 -0.746,1.539 -1.592,1.539 -0.896,0 -1.591,-0.694 -1.591,-1.539 z"
     id="path526" /><path
     style="clip-rule:evenodd;fill:#343536;fill-rule:evenodd"
     d="m 375.615,322.8 c 0,-0.894 0.746,-1.588 1.592,-1.588 0.894,0 1.591,0.694 1.591,1.588 0,0.845 -0.697,1.538 -1.591,1.538 -0.846,0 -1.592,-0.693 -1.592,-1.538"
     id="path528" /><path
     style="fill:none;stroke:#343536;stroke-width:2.463;stroke-miterlimit:2.613"
     d="m 375.615,322.8 c 0,-0.894 0.746,-1.588 1.592,-1.588 0.894,0 1.591,0.694 1.591,1.588 0,0.845 -0.697,1.538 -1.591,1.538 -0.846,0 -1.592,-0.693 -1.592,-1.538 z"
     id="path530" /><path
     style="clip-rule:evenodd;fill:#343536;fill-rule:evenodd"
     d="m 384.615,323.743 c 0,-0.844 0.697,-1.589 1.591,-1.589 0.895,0 1.592,0.745 1.592,1.589 0,0.894 -0.697,1.588 -1.592,1.588 -0.893,0 -1.591,-0.694 -1.591,-1.588"
     id="path532" /><path
     style="fill:none;stroke:#343536;stroke-width:2.463;stroke-miterlimit:2.613"
     d="m 384.615,323.743 c 0,-0.844 0.697,-1.589 1.591,-1.589 0.895,0 1.592,0.745 1.592,1.589 0,0.894 -0.697,1.588 -1.592,1.588 -0.893,0 -1.591,-0.694 -1.591,-1.588 z"
     id="path534" /><path
     style="clip-rule:evenodd;fill:#009c69;fill-rule:evenodd"
     d="m 235.137,349.555 c 4.625,-2.929 8.205,-6.752 9.945,-11.864 1.741,-4.863 -1.442,-6.552 -5.32,-3.673 -2.535,1.936 -4.476,6.402 -4.625,15.537"
     id="path536" /><path
     style="fill:none;stroke:#343536;stroke-width:2.463;stroke-miterlimit:2.613"
     d="m 235.137,349.555 c 4.625,-2.929 8.205,-6.752 9.945,-11.864 1.741,-4.863 -1.442,-6.552 -5.32,-3.673 -2.535,1.936 -4.476,6.402 -4.625,15.537 z"
     id="path538" /><path
     style="clip-rule:evenodd;fill:#009c69;fill-rule:evenodd"
     d="m 227.828,337.492 c 4.077,-3.573 7.011,-7.941 8.006,-13.303 0.894,-5.063 -2.487,-6.254 -5.869,-2.73 -2.236,2.284 -3.431,7 -2.137,16.033"
     id="path540" /><path
     style="fill:none;stroke:#343536;stroke-width:2.463;stroke-miterlimit:2.613"
     d="m 227.828,337.492 c 4.077,-3.573 7.011,-7.941 8.006,-13.303 0.894,-5.063 -2.487,-6.254 -5.869,-2.73 -2.236,2.284 -3.431,7 -2.137,16.033 z"
     id="path542" /><path
     style="clip-rule:evenodd;fill:#009c69;fill-rule:evenodd"
     d="m 220.418,318.035 c 5.172,-1.689 9.547,-4.566 12.531,-9.133 2.835,-4.318 0.199,-6.701 -4.276,-4.814 -2.934,1.24 -5.918,5.112 -8.255,13.947"
     id="path544" /><path
     style="fill:none;stroke:#343536;stroke-width:2.463;stroke-miterlimit:2.613"
     d="m 220.418,318.035 c 5.172,-1.689 9.547,-4.566 12.531,-9.133 2.835,-4.318 0.199,-6.701 -4.276,-4.814 -2.934,1.24 -5.918,5.112 -8.255,13.947 z"
     id="path546" /><path
     style="clip-rule:evenodd;fill:#009c69;fill-rule:evenodd"
     d="m 217.136,298.479 c 5.271,-1.44 9.796,-4.07 12.979,-8.439 3.083,-4.169 0.547,-6.701 -4.028,-5.063 -2.983,1.092 -6.166,4.815 -8.951,13.502"
     id="path548" /><path
     style="fill:none;stroke:#343536;stroke-width:2.463;stroke-miterlimit:2.613"
     d="m 217.136,298.479 c 5.271,-1.44 9.796,-4.07 12.979,-8.439 3.083,-4.169 0.547,-6.701 -4.028,-5.063 -2.983,1.092 -6.166,4.815 -8.951,13.502 z"
     id="path550" /><path
     style="clip-rule:evenodd;fill:#009c69;fill-rule:evenodd"
     d="m 216.639,278.773 c 5.32,-1.242 9.994,-3.724 13.326,-7.991 3.183,-4.022 0.746,-6.651 -3.878,-5.162 -3.034,0.992 -6.315,4.567 -9.448,13.153"
     id="path552" /><path
     style="fill:none;stroke:#343536;stroke-width:2.463;stroke-miterlimit:2.613"
     d="m 216.639,278.773 c 5.32,-1.242 9.994,-3.724 13.326,-7.991 3.183,-4.022 0.746,-6.651 -3.878,-5.162 -3.034,0.992 -6.315,4.567 -9.448,13.153 z"
     id="path554" /><path
     style="clip-rule:evenodd;fill:#009c69;fill-rule:evenodd"
     d="m 219.075,257.033 c 5.471,0.148 10.592,-1.042 14.918,-4.27 4.128,-3.077 2.487,-6.254 -2.386,-6.005 -3.183,0.149 -7.31,2.78 -12.532,10.275"
     id="path556" /><path
     style="fill:none;stroke:#343536;stroke-width:2.463;stroke-miterlimit:2.613"
     d="m 219.075,257.033 c 5.471,0.148 10.592,-1.042 14.918,-4.27 4.128,-3.077 2.487,-6.254 -2.386,-6.005 -3.183,0.149 -7.31,2.78 -12.532,10.275 z"
     id="path558" /><path
     style="clip-rule:evenodd;fill:#009c69;fill-rule:evenodd"
     d="m 227.778,236.234 c 4.674,-2.729 8.404,-6.452 10.343,-11.516 1.889,-4.813 -1.194,-6.602 -5.172,-3.821 -2.635,1.836 -4.724,6.205 -5.171,15.337"
     id="path560" /><path
     style="fill:none;stroke:#343536;stroke-width:2.463;stroke-miterlimit:2.613"
     d="m 227.778,236.234 c 4.674,-2.729 8.404,-6.452 10.343,-11.516 1.889,-4.813 -1.194,-6.602 -5.172,-3.821 -2.635,1.836 -4.724,6.205 -5.171,15.337 z"
     id="path562" /><path
     style="clip-rule:evenodd;fill:#009c69;fill-rule:evenodd"
     d="m 217.633,256.635 c -3.878,-3.821 -6.613,-8.338 -7.26,-13.699 -0.646,-5.112 2.785,-6.104 5.968,-2.433 2.088,2.382 3.083,7.148 1.292,16.132"
     id="path564" /><path
     style="fill:none;stroke:#343536;stroke-width:2.463;stroke-miterlimit:2.613"
     d="m 217.633,256.635 c -3.878,-3.821 -6.613,-8.338 -7.26,-13.699 -0.646,-5.112 2.785,-6.104 5.968,-2.433 2.088,2.382 3.083,7.148 1.292,16.132 z"
     id="path566" /><path
     style="clip-rule:evenodd;fill:#009c69;fill-rule:evenodd"
     d="m 214.749,279.071 c -4.575,-3.028 -8.105,-6.949 -9.796,-12.063 -1.591,-4.913 1.592,-6.551 5.42,-3.573 2.487,1.986 4.376,6.503 4.376,15.636"
     id="path568" /><path
     style="fill:none;stroke:#343536;stroke-width:2.463;stroke-miterlimit:2.613"
     d="m 214.749,279.071 c -4.575,-3.028 -8.105,-6.949 -9.796,-12.063 -1.591,-4.913 1.592,-6.551 5.42,-3.573 2.487,1.986 4.376,6.503 4.376,15.636 z"
     id="path570" /><path
     style="clip-rule:evenodd;fill:#009c69;fill-rule:evenodd"
     d="m 215.843,298.23 c -5.42,-0.893 -10.194,-3.026 -13.823,-7.048 -3.482,-3.821 -1.243,-6.6 3.48,-5.459 3.083,0.793 6.614,4.119 10.343,12.507"
     id="path572" /><path
     style="fill:none;stroke:#343536;stroke-width:2.463;stroke-miterlimit:2.613"
     d="m 215.843,298.23 c -5.42,-0.893 -10.194,-3.026 -13.823,-7.048 -3.482,-3.821 -1.243,-6.6 3.48,-5.459 3.083,0.793 6.614,4.119 10.343,12.507 z"
     id="path574" /><path
     style="clip-rule:evenodd;fill:#009c69;fill-rule:evenodd"
     d="m 218.081,317.538 c -5.47,-0.148 -10.492,-1.588 -14.669,-5.063 -3.977,-3.325 -2.138,-6.403 2.684,-5.857 3.183,0.299 7.161,3.128 11.985,10.92"
     id="path576" /><path
     style="fill:none;stroke:#343536;stroke-width:2.463;stroke-miterlimit:2.613"
     d="m 218.081,317.538 c -5.47,-0.148 -10.492,-1.588 -14.669,-5.063 -3.977,-3.325 -2.138,-6.403 2.684,-5.857 3.183,0.299 7.161,3.128 11.985,10.92 z"
     id="path578" /><path
     style="clip-rule:evenodd;fill:#009c69;fill-rule:evenodd"
     d="m 226.882,336.5 c -5.221,1.538 -10.492,1.737 -15.515,-0.298 -4.822,-1.887 -4.027,-5.41 0.747,-6.403 3.082,-0.645 7.758,0.795 14.768,6.701"
     id="path580" /><path
     style="fill:none;stroke:#343536;stroke-width:2.463;stroke-miterlimit:2.613"
     d="m 226.882,336.5 c -5.221,1.538 -10.492,1.737 -15.515,-0.298 -4.822,-1.887 -4.027,-5.41 0.747,-6.403 3.082,-0.645 7.758,0.795 14.768,6.701 z"
     id="path582" /><path
     style="clip-rule:evenodd;fill:#009c69;fill-rule:evenodd"
     d="m 233.844,348.908 c -4.575,3.027 -9.547,4.716 -14.967,4.27 -5.122,-0.447 -5.42,-4.021 -1.144,-6.353 2.784,-1.539 7.657,-1.539 16.111,2.083"
     id="path584" /><path
     style="fill:none;stroke:#343536;stroke-width:2.463;stroke-miterlimit:2.613"
     d="m 233.844,348.908 c -4.575,3.027 -9.547,4.716 -14.967,4.27 -5.122,-0.447 -5.42,-4.021 -1.144,-6.353 2.784,-1.539 7.657,-1.539 16.111,2.083 z"
     id="path586" /><path
     style="fill:none;stroke:#343536;stroke-width:2.463;stroke-miterlimit:2.613"
     d="M 248.762,362.212 C 213.257,344.243 205.699,269.441 227.828,235.739"
     id="path588" /><line
     style="fill:none;stroke:#343536;stroke-width:2.463;stroke-miterlimit:2.613"
     x1="222.955"
     y1="329.64899"
     x2="225.63901"
     y2="322.60199"
     id="line590" /><line
     style="fill:none;stroke:#343536;stroke-width:2.463;stroke-miterlimit:2.613"
     x1="222.009"
     y1="326.026"
     x2="216.39"
     y2="323.84399"
     id="line592" /><line
     style="fill:none;stroke:#343536;stroke-width:2.463;stroke-miterlimit:2.613"
     x1="217.38499"
     y1="310.242"
     x2="222.009"
     y2="305.62601"
     id="line594" /><line
     style="fill:none;stroke:#343536;stroke-width:2.463;stroke-miterlimit:2.613"
     x1="215.44501"
     y1="290.58701"
     x2="219.573"
     y2="285.22601"
     id="line596" /><line
     style="fill:none;stroke:#343536;stroke-width:2.463;stroke-miterlimit:2.613"
     x1="214.948"
     y1="287.905"
     x2="211.567"
     y2="284.53101"
     id="line598" /><line
     style="fill:none;stroke:#343536;stroke-width:2.463;stroke-miterlimit:2.613"
     x1="216.39"
     y1="267.50601"
     x2="221.263"
     y2="262.64099"
     id="line600" /><line
     style="fill:none;stroke:#343536;stroke-width:2.463;stroke-miterlimit:2.613"
     x1="223.203"
     y1="243.979"
     x2="222.009"
     y2="239.36099"
     id="line602" /><line
     style="fill:none;stroke:#343536;stroke-width:2.463;stroke-miterlimit:2.613"
     x1="223.94901"
     y1="242.737"
     x2="227.828"
     y2="241.79401"
     id="line604" /><path
     style="clip-rule:evenodd;fill:#343536;fill-rule:evenodd"
     d="m 219.672,239.114 c 0,-0.896 0.746,-1.588 1.591,-1.588 0.896,0 1.592,0.692 1.592,1.588 0,0.894 -0.696,1.588 -1.592,1.588 -0.845,0 -1.591,-0.694 -1.591,-1.588"
     id="path606" /><path
     style="fill:none;stroke:#343536;stroke-width:2.463;stroke-miterlimit:2.613"
     d="m 219.672,239.114 c 0,-0.896 0.746,-1.588 1.591,-1.588 0.896,0 1.592,0.692 1.592,1.588 0,0.894 -0.696,1.588 -1.592,1.588 -0.845,0 -1.591,-0.694 -1.591,-1.588 z"
     id="path608" /><path
     style="clip-rule:evenodd;fill:#343536;fill-rule:evenodd"
     d="m 226.585,242.092 c 0,-0.893 0.745,-1.589 1.591,-1.589 0.894,0 1.591,0.696 1.591,1.589 0,0.844 -0.697,1.539 -1.591,1.539 -0.845,0 -1.591,-0.695 -1.591,-1.539"
     id="path610" /><path
     style="fill:none;stroke:#343536;stroke-width:2.463;stroke-miterlimit:2.613"
     d="m 226.585,242.092 c 0,-0.893 0.745,-1.589 1.591,-1.589 0.894,0 1.591,0.696 1.591,1.589 0,0.844 -0.697,1.539 -1.591,1.539 -0.845,0 -1.591,-0.695 -1.591,-1.539 z"
     id="path612" /><path
     style="clip-rule:evenodd;fill:#343536;fill-rule:evenodd"
     d="m 219.573,263.286 c 0,-0.844 0.696,-1.538 1.541,-1.538 0.895,0 1.592,0.694 1.592,1.538 0,0.894 -0.697,1.589 -1.592,1.589 -0.844,0 -1.541,-0.695 -1.541,-1.589"
     id="path614" /><path
     style="fill:none;stroke:#343536;stroke-width:2.463;stroke-miterlimit:2.613"
     d="m 219.573,263.286 c 0,-0.844 0.696,-1.538 1.541,-1.538 0.895,0 1.592,0.694 1.592,1.538 0,0.894 -0.697,1.589 -1.592,1.589 -0.844,0 -1.541,-0.695 -1.541,-1.589 z"
     id="path616" /><path
     style="clip-rule:evenodd;fill:#343536;fill-rule:evenodd"
     d="m 217.733,285.424 c 0,-0.893 0.696,-1.588 1.591,-1.588 0.846,0 1.592,0.695 1.592,1.588 0,0.844 -0.746,1.539 -1.592,1.539 -0.895,0 -1.591,-0.695 -1.591,-1.539"
     id="path618" /><path
     style="fill:none;stroke:#343536;stroke-width:2.463;stroke-miterlimit:2.613"
     d="m 217.733,285.424 c 0,-0.893 0.696,-1.588 1.591,-1.588 0.846,0 1.592,0.695 1.592,1.588 0,0.844 -0.746,1.539 -1.592,1.539 -0.895,0 -1.591,-0.695 -1.591,-1.539 z"
     id="path620" /><path
     style="clip-rule:evenodd;fill:#343536;fill-rule:evenodd"
     d="m 209.727,284.183 c 0,-0.844 0.696,-1.589 1.541,-1.589 0.896,0 1.592,0.745 1.592,1.589 0,0.894 -0.696,1.59 -1.592,1.59 -0.845,0 -1.541,-0.697 -1.541,-1.59"
     id="path622" /><path
     style="fill:none;stroke:#343536;stroke-width:2.463;stroke-miterlimit:2.613"
     d="m 209.727,284.183 c 0,-0.844 0.696,-1.589 1.541,-1.589 0.896,0 1.592,0.745 1.592,1.589 0,0.894 -0.696,1.59 -1.592,1.59 -0.845,0 -1.541,-0.697 -1.541,-1.59 z"
     id="path624" /><path
     style="clip-rule:evenodd;fill:#343536;fill-rule:evenodd"
     d="m 220.02,305.328 c 0,-0.893 0.746,-1.589 1.592,-1.589 0.895,0 1.591,0.695 1.591,1.589 0,0.845 -0.696,1.539 -1.591,1.539 -0.846,0 -1.592,-0.694 -1.592,-1.539"
     id="path626" /><path
     style="fill:none;stroke:#343536;stroke-width:2.463;stroke-miterlimit:2.613"
     d="m 220.02,305.328 c 0,-0.893 0.746,-1.589 1.592,-1.589 0.895,0 1.591,0.695 1.591,1.589 0,0.845 -0.696,1.539 -1.591,1.539 -0.846,0 -1.592,-0.694 -1.592,-1.539 z"
     id="path628" /><path
     style="clip-rule:evenodd;fill:#343536;fill-rule:evenodd"
     d="m 223.799,322.8 c 0,-0.894 0.697,-1.588 1.591,-1.588 0.896,0 1.592,0.694 1.592,1.588 0,0.845 -0.696,1.538 -1.592,1.538 -0.893,0 -1.591,-0.693 -1.591,-1.538"
     id="path630" /><path
     style="fill:none;stroke:#343536;stroke-width:2.463;stroke-miterlimit:2.613"
     d="m 223.799,322.8 c 0,-0.894 0.697,-1.588 1.591,-1.588 0.896,0 1.592,0.694 1.592,1.588 0,0.845 -0.696,1.538 -1.592,1.538 -0.893,0 -1.591,-0.693 -1.591,-1.538 z"
     id="path632" /><path
     style="clip-rule:evenodd;fill:#343536;fill-rule:evenodd"
     d="m 214.799,323.743 c 0,-0.844 0.696,-1.589 1.591,-1.589 0.895,0 1.592,0.745 1.592,1.589 0,0.894 -0.697,1.588 -1.592,1.588 -0.895,0 -1.591,-0.694 -1.591,-1.588"
     id="path634" /><path
     style="fill:none;stroke:#343536;stroke-width:2.463;stroke-miterlimit:2.613"
     d="m 214.799,323.743 c 0,-0.844 0.696,-1.589 1.591,-1.589 0.895,0 1.592,0.745 1.592,1.589 0,0.894 -0.697,1.588 -1.592,1.588 -0.895,0 -1.591,-0.694 -1.591,-1.588 z"
     id="path636" /><polygon
     style="clip-rule:evenodd;fill:#ffffff;fill-rule:evenodd"
     points="294.659,348.164 281.881,355.609 281.881,364.347 246.525,364.347 254.033,356.603 246.624,348.164 "
     id="polygon638" /><polygon
     style="fill:none;stroke:#343536;stroke-width:2.463;stroke-linejoin:round;stroke-miterlimit:2.613"
     points="294.659,348.164 281.881,355.609 281.881,364.347 246.525,364.347 254.033,356.603 246.624,348.164 "
     id="polygon640" /><polygon
     style="clip-rule:evenodd;fill:#ffffff;fill-rule:evenodd"
     points="307.439,348.164 320.17,355.56 320.17,364.297 355.575,364.297 348.017,356.553 355.425,348.164 "
     id="polygon642" /><polygon
     style="fill:none;stroke:#343536;stroke-width:2.463;stroke-linejoin:round;stroke-miterlimit:2.613"
     points="307.439,348.164 320.17,355.56 320.17,364.297 355.575,364.297 348.017,356.553 355.425,348.164 "
     id="polygon644" /><path
     style="clip-rule:evenodd;fill:#ffffff;fill-rule:evenodd"
     d="m 281.881,355.907 c 0,-0.198 0.149,-0.348 0.347,-0.348 h 37.643 c 0.15,0 0.348,0.149 0.348,0.348 v 13.402 c 0,0.198 -0.198,0.347 -0.348,0.347 h -37.643 c -0.198,0 -0.347,-0.148 -0.347,-0.347 z"
     id="path646" /><path
     style="fill:none;stroke:#343536;stroke-width:2.463;stroke-miterlimit:2.613"
     d="m 281.881,355.907 c 0,-0.198 0.149,-0.348 0.347,-0.348 h 37.643 c 0.15,0 0.348,0.149 0.348,0.348 v 13.402 c 0,0.198 -0.198,0.347 -0.348,0.347 h -37.643 c -0.198,0 -0.347,-0.148 -0.347,-0.347 z"
     id="path648" /><polygon
     style="clip-rule:evenodd;fill:#343536;fill-rule:evenodd"
     points="307.39,355.56 320.319,355.56 307.39,348.164 "
     id="polygon650" /><polygon
     style="fill:none;stroke:#343536;stroke-width:2.463;stroke-linecap:round;stroke-linejoin:round;stroke-miterlimit:2.613"
     points="307.39,355.56 320.319,355.56 307.39,348.164 "
     id="polygon652" /><polygon
     style="clip-rule:evenodd;fill:#343536;fill-rule:evenodd"
     points="294.659,355.56 281.731,355.56 294.659,348.164 "
     id="polygon654" /><polygon
     style="fill:none;stroke:#343536;stroke-width:2.463;stroke-linecap:round;stroke-linejoin:round;stroke-miterlimit:2.613"
     points="294.659,355.56 281.731,355.56 294.659,348.164 "
     id="polygon656" /><path
     style="clip-rule:evenodd;fill:#343536;fill-rule:evenodd"
     d="m 292.472,358.34 v 9.232 h -2.287 v -4.963 c 0,-0.694 0,-1.142 -0.05,-1.291 -0.05,-0.099 -0.149,-0.247 -0.298,-0.297 -0.149,-0.1 -0.498,-0.1 -0.995,-0.1 h -0.249 v -1.092 c 1.095,-0.249 1.94,-0.745 2.536,-1.489 z m 1.641,6.8 h 2.288 c 0,0.447 0,0.695 0.049,0.795 0,0.148 0.05,0.197 0.099,0.297 0.1,0.099 0.199,0.099 0.348,0.099 0.15,0 0.249,0 0.299,-0.099 0.1,-0.05 0.149,-0.148 0.149,-0.297 v -0.646 -1.489 c -0.1,0.248 -0.298,0.447 -0.497,0.547 -0.249,0.148 -0.547,0.198 -0.845,0.198 -0.448,0 -0.796,-0.1 -1.144,-0.348 -0.299,-0.249 -0.548,-0.497 -0.597,-0.844 -0.1,-0.299 -0.149,-0.745 -0.149,-1.291 v -0.695 c 0,-0.646 0.049,-1.141 0.099,-1.44 0.05,-0.348 0.149,-0.645 0.398,-0.893 0.199,-0.247 0.498,-0.495 0.846,-0.646 0.397,-0.148 0.845,-0.198 1.342,-0.198 0.597,0 1.094,0.1 1.492,0.248 0.398,0.199 0.696,0.446 0.945,0.745 0.199,0.299 0.347,0.646 0.347,0.994 0.05,0.346 0.05,1.041 0.05,2.084 v 1.24 c 0,1.142 0,1.836 -0.05,2.233 0,0.348 -0.148,0.694 -0.397,1.043 -0.199,0.347 -0.547,0.595 -0.945,0.745 -0.398,0.148 -0.845,0.246 -1.392,0.246 -0.647,0 -1.143,-0.098 -1.592,-0.297 -0.397,-0.248 -0.696,-0.545 -0.895,-0.893 -0.149,-0.396 -0.248,-0.843 -0.248,-1.438 m 2.288,-2.878 c 0,0.396 0.049,0.645 0.148,0.693 0.1,0.1 0.199,0.15 0.348,0.15 0.15,0 0.249,-0.051 0.348,-0.15 0.051,-0.148 0.1,-0.347 0.1,-0.693 v -1.689 c 0,-0.396 -0.049,-0.646 -0.1,-0.794 -0.099,-0.099 -0.198,-0.148 -0.348,-0.148 -0.099,0 -0.199,0.05 -0.298,0.148 -0.149,0.05 -0.198,0.348 -0.198,0.744 z m 10.193,-0.795 v 3.078 c 0,0.695 -0.049,1.24 -0.15,1.538 -0.048,0.297 -0.198,0.596 -0.446,0.894 -0.249,0.298 -0.548,0.496 -0.846,0.595 -0.348,0.101 -0.746,0.198 -1.144,0.198 -0.546,0 -1.043,-0.098 -1.392,-0.198 -0.348,-0.148 -0.647,-0.347 -0.845,-0.595 -0.248,-0.298 -0.398,-0.547 -0.497,-0.845 -0.101,-0.297 -0.101,-0.794 -0.101,-1.438 v -3.227 c 0,-0.844 0.051,-1.439 0.2,-1.887 0.15,-0.397 0.448,-0.744 0.845,-0.993 0.448,-0.247 0.995,-0.397 1.592,-0.397 0.497,0 0.994,0.1 1.392,0.248 0.398,0.199 0.696,0.397 0.894,0.646 0.15,0.248 0.3,0.547 0.399,0.893 0.05,0.298 0.099,0.795 0.099,1.49 m -2.337,-0.745 c 0,-0.495 0,-0.794 -0.049,-0.942 -0.05,-0.099 -0.15,-0.148 -0.348,-0.148 -0.15,0 -0.249,0.05 -0.349,0.198 -0.049,0.099 -0.049,0.397 -0.049,0.893 v 4.468 c 0,0.546 0,0.893 0.049,0.992 0.05,0.1 0.199,0.148 0.349,0.148 0.198,0 0.298,-0.049 0.348,-0.198 0.049,-0.099 0.049,-0.396 0.049,-0.844 z m 8.206,1.638 c 0.347,0.1 0.596,0.298 0.795,0.595 0.149,0.248 0.248,0.895 0.248,1.887 0,0.695 -0.099,1.29 -0.248,1.689 -0.199,0.397 -0.448,0.694 -0.896,0.942 -0.397,0.199 -0.944,0.297 -1.542,0.297 -0.745,0 -1.342,-0.148 -1.739,-0.347 -0.398,-0.248 -0.696,-0.546 -0.796,-0.942 -0.15,-0.349 -0.199,-0.943 -0.199,-1.837 v -0.745 h 2.288 v 1.54 c 0,0.396 0,0.645 0.049,0.743 0.049,0.1 0.149,0.148 0.349,0.148 0.148,0 0.298,-0.049 0.348,-0.198 0.05,-0.148 0.05,-0.495 0.05,-1.042 v -0.645 c 0,-0.349 0,-0.646 -0.1,-0.794 -0.1,-0.149 -0.2,-0.249 -0.348,-0.298 -0.15,-0.05 -0.448,-0.1 -0.896,-0.1 v -1.34 c 0.548,0 0.896,-0.051 0.994,-0.051 0.15,-0.05 0.25,-0.148 0.3,-0.298 0.05,-0.148 0.05,-0.347 0.05,-0.645 v -0.496 c 0,-0.348 0,-0.546 -0.1,-0.646 -0.05,-0.099 -0.15,-0.148 -0.298,-0.148 -0.15,0 -0.25,0.05 -0.3,0.148 -0.098,0.1 -0.098,0.348 -0.098,0.694 v 0.745 h -2.288 v -0.794 c 0,-0.895 0.199,-1.439 0.597,-1.787 0.398,-0.298 1.044,-0.447 1.889,-0.447 1.094,0 1.84,0.198 2.238,0.646 0.399,0.447 0.597,1.043 0.597,1.787 0,0.496 -0.05,0.894 -0.198,1.092 -0.149,0.251 -0.399,0.449 -0.746,0.647"
     id="path658" /></g>
</svg>
