<svg height="1000" viewBox="0 0 1000 1000" width="1000" xmlns="http://www.w3.org/2000/svg"><g transform="matrix(4.6854679 0 0 4.6854679 -1374.1895 -910.32452)"><path d="M 399.854 376.636 L 458.771 282 L 341.179 282.001 Z" fill="#c6b366"/><path d="M 480.872 270.147 L 477.989 270.147 L 319.124 270.147 L 399.832 400.316 Z" fill="#d3bd6c"/><path d="m 480.872 270.147 c -.947 1.518 -80.095 128.655 -81.04 130.17 c -.938 -1.518 -79.766 -128.651 -80.708 -130.17 z m -163.667 -1.031 l 82.625 133.261 l 82.965 -133.261 z" fill="#343536"/><path d="m 475.107 273.238 c -2.731 4.389 -72.547 116.526 -75.268 120.901 c -2.716 -4.38 -72.243 -116.516 -74.962 -120.9 c 5.438 0 144.781 -.001 150.23 -.001" fill="#343536"/><path d="M 399.841 392.08 L 473.185 274.269 L 326.795 274.27 Z" fill="#a9714b"/><path d="m 449.162 287.154 c -8.98 14.422 -40.344 64.805 -49.298 79.185 c -8.923 -14.394 -40.16 -64.776 -49.094 -79.184 c 17.878 0 80.481 -.001 98.392 -.001" fill="#a9714b"/><path d="M 399.853 376.637 L 458.771 282 L 341.179 282.001 Z" fill="#343536"/><path d="m 456.848 283.03 c -.938 1.51 -56.056 90.041 -56.993 91.545 c -.933 -1.505 -55.823 -90.035 -56.757 -91.543 c 1.854 0 113.27 -.002 113.75 -.002" fill="#d3bd6c"/><path d="m 451.084 286.124 c -3.458 5.557 -47.774 76.734 -51.222 82.274 c -3.438 -5.545 -47.568 -76.723 -51.011 -82.274 z" fill="#343536"/><path d="m 449.166 287.148 c -2.652 4.26 -46.65 74.934 -49.3 79.188 c -2.637 -4.26 -46.458 -74.921 -49.098 -79.186 z" fill="#fff"/><path d="m 398.004 300.173 l -5.13 -3.723 c -2.776 1.213 -5.179 3.112 -7.01 5.478 l 6.69 4.853 z" fill="#d3bd6c"/><path d="m 407.745 317.804 l 7.03 5.102 c 1.66 -2.43 2.732 -5.286 3.024 -8.369 l -4.605 -3.34 z" fill="#d3bd6c"/><path d="m 382.12 312.747 c 0 .032 -.004 .065 -.004 .096 c 0 1.929 .314 3.78 .881 5.522 l 2.571 -3.116 z" fill="#d3bd6c"/><path d="m 397.275 330.498 c .891 .137 1.796 .23 2.725 .23 c 1.968 0 3.857 -.331 5.633 -.921 l -4.873 -3.535 z" fill="#d3bd6c"/><path d="m 391.871 307.604 l -6.646 -4.82 c -1.716 2.513 -2.795 5.486 -3.04 8.691 l 4.063 2.948 z" fill="#d3bd6c"/><path d="m 401.441 325.447 l 5.397 3.916 c 2.898 -1.204 5.403 -3.155 7.298 -5.604 l -7.071 -5.13 z" fill="#d3bd6c"/><path d="m 402.184 295.106 c -.72 -.088 -1.443 -.146 -2.184 -.146 c -2.085 0 -4.077 .377 -5.939 1.033 l 4.623 3.355 z" fill="#d3bd6c"/><path d="m 416.814 306.81 l -2.939 3.561 l 3.986 2.893 c .006 -.141 .022 -.278 .022 -.421 c .001 -2.118 -.388 -4.146 -1.069 -6.033" fill="#d3bd6c"/><path d="M 412.331 310.568 L 406 305.974 L 400.55 312.582 L 399.867 313.408 L 394.244 320.226 L 400.575 324.818 L 406.199 318 L 406.879 317.177 Z" fill="#d3bd6c"/><path d="M 405.134 305.347 L 398.867 300.801 L 393.418 307.408 L 392.738 308.233 L 387.114 315.051 L 393.38 319.598 L 399.002 312.779 L 399.684 311.955 Z" fill="#d3bd6c"/><path d="m 393.564 321.049 l -.867 -.627 l -6.262 -4.546 l -3.01 3.648 c 1.021 2.529 2.608 4.762 4.599 6.564 c .264 .238 .528 .477 .806 .701 c 2.084 1.673 4.547 2.883 7.241 3.49 l 3.825 -4.636 z" fill="#d3bd6c"/><path d="m 411.564 299.226 c -.269 -.23 -.555 -.445 -.838 -.659 c -2.125 -1.602 -4.608 -2.746 -7.315 -3.271 l -3.86 4.682 l 6.264 4.545 l .865 .628 l 6.331 4.594 l 3.359 -4.073 c -1.099 -2.501 -2.751 -4.699 -4.806 -6.446" fill="#d3bd6c"/><path d="m 417.848 306.565 c -.127 -.44 -.219 -.708 -.246 -.708 c -1.541 .894 -.697 -1.531 -.81 -1.746 c -1.14 -2.186 -2.685 -4.124 -4.547 -5.706 c -.272 -.231 -.558 -.444 -.841 -.661 c -1.996 -1.512 -4.295 -2.642 -6.795 -3.269 c -.145 -.037 -.313 -.189 -.436 -.104 c -2.17 1.612 -1.542 -.227 -1.726 -.256 c -.971 -.154 -1.434 -.223 -2.447 -.223 c -2.228 0 -3.931 .223 -5.917 .935 c -.213 .076 -.147 .897 -.355 .979 c -.158 .061 -1.016 -.44 -1.17 -.371 c -.223 .098 -.446 .2 -.665 .306 c -2.456 1.169 -4.622 2.848 -6.36 4.904 c -.181 .217 .09 .966 -.081 1.189 c -.216 .281 -.888 .029 -1.091 .324 c -.116 .172 -.231 .346 -.344 .522 c -1.518 2.38 -2.519 5.121 -2.845 8.061 c -.046 .416 .829 1.016 .81 1.436 c -.012 .282 -.933 .384 -.933 .667 c 0 2.006 .328 3.932 .913 5.745 c .079 .245 .733 -.157 .82 .084 c .141 .383 -.288 1.411 -.125 1.783 c 1.09 2.478 2.702 4.669 4.688 6.456 c .264 .238 .529 .478 .805 .699 c 2.079 1.671 4.514 2.899 7.171 3.577 c .385 .098 1.216 -.534 1.609 -.46 c 1.142 .215 .267 1.069 3.07 1.069 c 2.154 0 4.219 -.379 6.148 -1.049 c .176 -.06 .129 -.8 .302 -.866 c .394 -.146 .999 .374 1.38 .2 c 2.833 -1.291 5.288 -3.257 7.169 -5.697 c .216 -.281 -.518 -.837 -.315 -1.131 c .18 -.264 1.309 -.257 1.478 -.53 c 1.366 -2.228 2.276 -4.763 2.621 -7.476 c .053 -.407 -.522 -.787 -.497 -1.203 c .023 -.389 .666 -.807 .666 -1.202 c -.001 -1.778 -.711 -4.887 -1.104 -6.278" fill="#343536"/><path d="m 384.827 316.147 l -.877 1.063 c 0 0 -1.168 .907 -1.38 -.379 c -.191 -.833 -.324 -1.684 -.396 -2.556 c -.038 -.472 .432 -1.186 1.01 -.767 c .393 .282 .829 .601 1.186 .87 c .882 .669 .457 1.769 .457 1.769" fill="#d3bd6c"/><path d="m 390.977 308.69 l -3.711 4.5 c 0 0 -1.238 .964 -2.293 .308 c -1.055 -.654 -1.827 -1.323 -1.827 -1.323 c 0 0 -1.164 -.798 -.806 -2.067 c .287 -1.859 .856 -3.628 1.669 -5.255 c .442 -1.55 2.474 -1.16 2.762 -.957 c .984 .695 3.233 2.291 3.896 2.837 c .858 .705 .31 1.957 .31 1.957" fill="#d3bd6c"/><path d="m 400.428 298.91 l 2.256 -2.736 c 0 0 .986 -.88 2.213 -.522 c 2.129 .618 4.1 1.612 5.83 2.915 c .283 .214 .569 .43 .838 .659 c 1.533 1.303 2.842 2.858 3.865 4.602 c .922 1.476 .19 2.75 .19 2.75 l -1.643 1.995 c 0 0 -.94 1.38 -2.435 .105 c -.644 -.415 -4.862 -3.527 -4.862 -3.527 l -.865 -.628 c 0 0 -4.279 -3.105 -5.272 -3.826 c -.992 -.72 -.115 -1.787 -.115 -1.787" fill="#d3bd6c"/><path d="m 407.323 306.891 c 1.069 .756 2.816 2.047 3.939 2.883 c .883 .979 .217 1.826 .217 1.826 c 0 0 -8.099 9.857 -9.42 11.423 c -1.325 1.565 -3.101 .622 -3.101 .622 l -3.222 -2.337 c 0 0 -1.492 -1.082 -.079 -2.795 c .271 -.396 9.411 -11.41 9.411 -11.41 c 0 0 .739 -1.331 2.255 -.212" fill="#d3bd6c"/><path d="m 395.621 295.519 c 1.401 -.36 2.865 -.559 4.379 -.559 c .179 0 .356 .003 .534 .009 c 1.469 .058 .886 1.061 .886 1.061 l -1.872 2.271 c 0 0 -.749 1.265 -2.188 .086 c -.65 -.445 -1.472 -1.042 -2.135 -1.532 c -.664 -.486 -.132 -1.202 .396 -1.336" fill="#d3bd6c"/><path d="m 391.248 305.833 l -3.934 -2.854 c 0 0 -.861 -1.279 -.332 -2.362 c .739 -.72 2.707 -2.481 4.32 -3.385 c 1.624 -1.071 2.666 .014 2.666 .014 l 2.708 1.964 c 0 0 1.328 .964 .458 2.017 c -.351 .483 -2.192 2.695 -3.43 4.18 c -.978 1.298 -2.456 .426 -2.456 .426" fill="#d3bd6c"/><path d="m 388.416 313.474 l 4.322 -5.24 l .68 -.825 l 4.289 -5.203 c 0 0 1.158 -1.641 2.674 -.309 c 1.221 .737 3.48 2.527 3.48 2.527 c 0 0 1.41 .879 .349 2.086 c -1.288 1.605 -4.526 5.445 -4.526 5.445 l -.682 .824 l -4.25 5.153 c 0 0 -1.372 1.665 -2.758 .642 c -1.265 -.934 -3.015 -2.214 -3.519 -2.537 c -1.155 -.99 -.059 -2.563 -.059 -2.563" fill="#d3bd6c"/><path d="m 398.853 326.905 l -1.87 2.266 c 0 0 -.987 1.49 -2.872 .549 c -1.933 -.678 -3.715 -1.673 -5.281 -2.931 c -.278 -.224 -.542 -.463 -.806 -.701 c -1.588 -1.439 -2.92 -3.15 -3.913 -5.066 c -.595 -1.105 .084 -2.434 .084 -2.434 l 1.294 -1.565 c 0 0 1.365 -1.176 2.25 -.198 c .516 .29 4.958 3.598 4.958 3.598 l .867 .627 c 0 0 3.747 2.677 4.925 3.575 c 1.177 .898 .364 2.28 .364 2.28" fill="#d3bd6c"/><path d="m 403.954 330.276 c -1.271 .293 -2.595 .451 -3.954 .451 c -.247 0 -.49 -.006 -.733 -.018 c -1.403 .085 -1.046 -1.357 -1.046 -1.357 l 1.48 -1.796 c 0 0 1.165 -1.434 2.337 -.356 c .633 .393 1.639 1.129 2.425 1.718 c .661 .495 .06 1.229 -.509 1.358" fill="#d3bd6c"/><path d="m 412.99 325.1 c -1.319 1.401 -2.859 2.593 -4.567 3.512 c -1.585 .752 -2.983 -.263 -2.983 -.263 l -2.666 -1.933 c 0 0 -1.572 -1.026 -.119 -2.44 c .143 -.212 2.025 -2.48 3.283 -3.993 c 1.336 -1.399 2.686 -.22 2.686 -.22 l 4.246 3.08 c 0 0 1.077 1.545 .12 2.257" fill="#d3bd6c"/><path d="m 417.637 315.78 c -.335 2.025 -1.012 3.936 -1.968 5.675 c -.854 1.064 -2.567 .235 -2.567 .235 l -3.908 -2.835 c 0 0 -1.448 -1.052 -.293 -2.453 c .31 -.424 3.453 -4.186 3.453 -4.186 c 0 0 1.039 -1.107 2.246 -.018 c .774 .554 1.914 1.388 2.603 1.896 c .36 .266 .501 1.276 .434 1.686" fill="#d3bd6c"/><path d="m 416.978 312.701 c -.867 -.557 -2.082 -1.351 -2.252 -1.548 c -1.047 -.712 -.147 -1.636 -.147 -1.636 l 1.389 -1.682 c 0 0 .847 -1.026 1.192 .002 c .197 .585 .544 2.294 .672 3.735 c .02 .232 .052 1.939 -.854 1.129" fill="#d3bd6c"/><path d="M 398.134 316.602 L 396.9 316.188 L 396.077 315.177 L 396.488 314.584 L 397.721 314.999 L 398.543 316.009 Z" fill="#343536"/><path d="M 399.335 314.999 L 398.102 314.585 L 397.278 313.575 L 397.689 312.982 L 398.922 313.398 L 399.744 314.406 Z" fill="#343536"/><path d="M 400.803 313.265 L 399.571 312.85 L 398.746 311.84 L 399.158 311.247 L 400.392 311.663 L 401.213 312.672 Z" fill="#343536"/><path d="M 402.139 311.529 L 400.905 311.115 L 400.082 310.105 L 400.493 309.512 L 401.727 309.928 L 402.549 310.938 Z" fill="#343536"/><path d="m 301.63 207.889 c -.86 2.383 2.03 3.244 2.03 3.244 l 5.274 2.435 l 1.623 4.056 l 3.243 2.028 c 0 0 1.427 1.536 .812 3.651 c -.457 1.571 .812 2.028 .812 2.028 c 5.73 -1.369 4.462 1.217 4.462 1.217 c -3.752 4.868 2.636 3.65 2.636 3.65 c 8.214 -2.129 2.434 3.043 2.434 3.043 c -5.477 7.909 4.665 4.665 4.665 4.665 c 5.273 -2.028 3.244 5.273 3.244 5.273 c 7.303 2.84 8.114 -1.217 8.114 -1.217 c 2.028 -1.216 3.244 3.245 3.244 3.245 c 0 0 4.007 2.181 5.681 0 l 1.215 -1.622 c 0 0 -2.079 -.051 1.624 .812 c 3.702 .861 9.734 0 9.734 0 c 5.679 15.008 17.443 14.602 17.443 14.602 l -2.84 1.623 l -3.243 2.028 v 2.028 l -1.218 1.622 l -1.622 4.463 l 1.622 -.407 l 1.622 -1.217 h 2.436 l 2.432 .812 l .406 2.029 l 2.839 2.027 v -1.621 v -2.436 h 1.623 l 2.029 1.623 l 1.623 1.623 l 2.84 -.406 l -1.624 -2.027 l 1.624 -1.217 l .809 -3.246 c 10.953 2.028 15.009 -.811 15.009 -.811 v 8.113 l 2.029 -1.116 l 1.216 -2.13 h 3.651 l .305 3.348 l 2.129 -3.348 l 3.348 .711 l -1.219 2.434 c 3.143 -1.521 5.174 -4.361 5.174 -4.361 h 27.176 C 449.692 259.1 436.71 252.104 436.71 252.104 C 428.396 249.669 424.541 237.5 424.541 237.5 l 6.084 -.406 c 3.551 -1.419 6.085 2.84 6.085 2.84 c 8.114 -2.434 5.274 1.623 5.274 1.623 l 14.603 -.811 c 4.465 -.406 6.085 -4.057 6.085 -4.057 c 7.301 -.405 4.462 -4.867 4.462 -4.867 c 4.767 2.027 5.679 -2.029 5.679 -2.029 l 8.113 -.811 c 8.926 1.216 5.274 -4.463 5.274 -4.463 c -.811 -4.056 4.866 -2.839 4.866 -2.839 c 6.898 -.406 3.651 -4.462 3.651 -4.462 c -.813 -2.028 2.433 -2.434 2.433 -2.434 c 5.679 -1.217 17.85 -12.169 17.85 -12.169 h -19.877 l -35.696 1.622 c -6.083 -1.216 -23.528 9.735 -23.528 9.735 l -5.273 1.623 h -6.488 c -13.793 0 -25.962 7.302 -25.962 7.302 c -7.303 1.217 -14.198 1.217 -14.198 1.217 c -38.129 -20.688 -76.26 -23.934 -76.26 -23.934 c -14.604 -1.622 -22.717 .811 -22.717 .811 c 0 0 14.754 7.556 16.629 6.898" fill="#343536"/><path d="m 409.787 238.971 l 2.787 -1.015 c 0 0 -.321 .125 1.979 -.152 c 3.803 -.457 6.184 .255 6.389 .761 c .203 .508 0 0 0 0 c 0 0 -.152 -3.65 -3.651 -4.258 c 0 0 -.149 0 -2.737 -.153 c .1 -2.535 -1.217 -6.084 -4.564 -6.845 h -15.514 l 4.867 -1.52 c 0 0 2.738 -.305 6.388 -1.218 c 1.918 -.48 2.739 -.305 2.739 -.305 h 3.042 c 0 0 .609 -.912 3.043 -1.521 c 2.434 -.608 3.65 -1.521 3.65 -1.521 h 3.955 c 0 0 1.978 -.608 3.652 0 c 1.672 .609 3.347 0 3.347 0 h 2.434 l 4.564 -.305 l 1.824 -1.521 l 3.348 -.304 l 2.13 -1.521 l 1.823 -.305 l 4.261 -2.434 l 2.737 -1.826 l 5.477 -2.129 l 3.042 -.304 l 1.218 -1.522 h 6.086 l 2.433 -1.216 h 3.651 l 2.129 -.913 h 5.172 l 1.522 -1.217 h 3.65 l 8.822 -1.52 l -6.998 .303 h -7.907 h -6.694 l -4.26 .305 l -3.348 .304 l -3.649 .914 l -3.955 -.914 l -4.259 1.218 l -2.739 1.217 l -3.346 1.521 l -2.132 1.522 c 0 0 -3.648 0 -6.996 3.041 c -3.346 3.043 -.912 1.521 -.912 1.521 c 0 0 -5.781 .913 -8.518 1.825 h -7.912 l -5.474 .913 l -3.348 1.218 l -3.347 1.52 l -4.563 2.13 l -3.348 .608 l -5.477 1.217 l -3.042 .608 h -3.347 l -3.651 .305 l -3.347 -.609 l -2.129 -1.217 l -2.282 -1.064 l -4.412 -1.369 c 0 0 -1.065 -.913 -3.498 -2.282 c -3.042 0 -3.042 -1.368 -3.042 -1.368 c 0 0 -2.129 0 -3.194 -.913 c -1.523 -.305 -3.652 -1.522 -3.652 -1.522 c 0 0 -.607 -.456 -1.37 -.76 c -2.736 0 -3.192 -.913 -3.192 -.913 l -3.042 -1.369 l -2.892 -.608 c 0 0 -2.738 -1.217 -4.26 -1.825 c -.912 .305 -4.867 -.609 -4.867 -.609 c 0 0 -2.586 -2.281 -3.954 -1.977 c -1.37 .305 -5.781 -1.674 -5.781 -1.674 c 0 0 -2.587 -.608 -5.02 -.608 c -2.433 0 -6.846 -1.064 -6.846 -1.064 l -3.954 -.913 c 0 0 -1.825 -.76 -4.563 -.455 c -2.739 .303 -12.626 -1.219 -12.626 -1.219 l -10.648 .305 l 12.168 2.434 c 0 0 9.28 -.151 11.562 .913 c 2.282 1.064 8.823 1.218 8.823 1.218 c 0 0 5.627 0 6.084 .912 c .457 .913 6.997 1.521 6.997 1.521 c 0 0 4.411 .76 4.867 1.825 c .457 1.064 5.173 2.434 5.173 2.434 l 6.997 1.826 l 3.651 2.129 l 6.388 1.217 l 2.434 2.434 l 3.348 2.131 l 1.52 2.737 h 4.565 l 2.432 1.218 l 1.825 1.521 l 8.824 -.609 c 0 0 1.014 .71 0 .912 c -1.014 .203 -3.65 0 -4.563 .609 c -.913 .607 0 2.434 0 2.434 c 0 0 -.406 2.23 -1.521 2.13 c -1.116 -.103 -2.74 0 -2.74 0 l -2.128 .304 c 0 0 -2.028 .305 -1.826 1.521 c .203 1.217 -.303 3.042 -.303 3.042 c 0 0 -.506 3.244 0 3.346 c .506 .103 -.912 1.826 -.912 1.826 v 1.521 c 0 0 .302 1.116 .912 1.218 c .608 .102 .303 1.217 .303 1.217 l 1.521 1.825 l 1.218 1.521 v 1.218 l 2.738 1.216 l 1.52 1.827 l 2.436 .912 c 0 0 .201 .204 1.52 .608 c 1.319 .406 -.152 -4.107 .304 -3.348 c .456 .762 2.434 0 2.434 0 c 0 0 .406 .204 .913 .914 c .507 .71 3.955 0 3.955 0 v .913 l -3.043 .304 l -.609 1.217 c 0 0 -3.041 -.456 -2.432 0 c .607 .456 0 1.217 0 1.217 c 0 0 .911 -.709 2.129 0 c 1.218 .711 2.13 0 2.13 0 l 3.043 -1.217 c 0 0 -.813 1.015 -2.74 2.129 c -1.925 1.117 1.827 .608 1.827 .608 c 0 0 2.13 -1.824 2.432 -1.216 c .305 .608 3.347 0 3.347 0 c 0 0 -2.231 1.521 -3.954 1.824 c -1.724 .305 2.13 .609 2.13 .609 l 5.171 -.305 l 1.217 .608 l 1.521 1.217 l 2.129 -.303 l 1.22 .607 l 1.367 -.761 l 1.369 -1.065 l 1.52 -.152 c 0 0 -.303 -.304 1.371 -.913 c 1.674 -.608 1.826 -2.281 2.584 -2.281 c .762 0 3.348 -1.521 3.348 -1.521 c 0 0 -1.672 -.912 -2.434 0 c -.76 .913 -1.522 .913 -1.522 .913 l -1.52 1.217 l -2.131 1.216 l -1.217 1.522 l -2.436 .304 v -2.13 l 1.826 -1.216 l 1.217 -1.623 c 0 0 1.017 -1.622 1.42 -2.638 c 2.84 -2.838 4.058 -6.388 4.058 -6.388 c 0 0 2.435 -2.738 -.913 -4.868 c -1.714 -1.09 -3.955 1.674 -3.955 1.674 l -.912 1.673 h -.762 l -1.326 .694 c 0 0 -1.359 1.233 -2.173 1.131 c -.812 -.101 -3.346 1.369 -3.346 1.369 l -.81 .862 c 0 0 -.408 -.507 -1.167 .203 c -.761 .71 -2.13 2.282 -2.13 2.282 c 0 0 -1.266 1.064 -1.268 1.367 c 0 .305 -.861 .305 -.861 .305 c 0 0 -.761 1.116 -.611 1.369 c -1.67 -.456 -1.063 -2.89 -1.063 -2.89 l 2.13 -1.521 l 1.825 -1.217 c 0 0 1.42 -2.13 2.738 -2.434 c 1.318 -.305 2.434 -.405 2.738 -1.521 c -.203 -.608 1.217 -.71 2.129 -.913 c .756 -.166 1.674 .153 1.674 .153 l 1.675 -2.18 c 0 0 1.216 -1.218 3.042 -1.624 c 3.347 .203 4.055 0 5.171 0 c 1.116 0 .913 -1.825 .913 -1.825 z" fill="#d3bd6c"/><path d="m 414.553 234.153 c -1.217 -.76 -3.652 -.608 -3.652 -.608 c 0 0 -1.113 .254 -1.52 .964 c -1.27 1.318 -.304 2.383 -.304 2.383 c 0 0 .76 -1.52 2.433 -1.673 c .458 -.305 3.968 -.486 3.043 -1.066" fill="#343536"/><path d="m 401.978 231.365 c -1.015 2.232 .201 2.737 1.215 2.941 c 0 0 6.188 .607 3.297 -3.804 c 0 0 -1.977 -1.825 -4.867 -.913 c 0 0 -4.868 1.826 -4.716 4.717 c 1.065 -1.572 5.561 -4.017 5.071 -2.941" fill="#343536"/><path d="m 386.308 241.219 l -.078 .179 l 1.854 3.252 l 5.352 1.905 c 0 0 -.179 -.688 -4.134 -4.035 c -1.692 -1.431 -1.321 -5.256 -1.321 -5.256 z" fill="#343536"/><path d="m 386.563 234.61 v 2.129 z" fill="#343536"/><path d="M 387.07 233.596 L 385.954 234.61 L 385.954 236.739 L 386.563 236.739 Z" fill="#343536"/><path d="M 381.688 245.409 L 382.222 235.726 L 382.688 236.131 L 383.02 243.128 Z" fill="#343536"/><path d="M 375.155 246.779 L 375.307 241.15 L 376.22 241.15 L 376.677 243.433 L 377.437 243.585 L 377.437 245.409 L 376.677 245.714 L 376.522 246.779 Z" fill="#343536"/><path d="M 377.893 245.866 L 378.045 247.844 L 379.718 249.518 L 381.392 250.733 L 383.063 252.255 L 381.847 250.126 L 380.176 248.148 Z" fill="#343536"/><path d="M 403.491 261.41 L 405.273 260.394 L 406.557 259.112 L 407.421 258.055 L 408.564 256.848 L 406.798 258.23 L 405.238 259.661 Z" fill="#343536"/><path d="M 376.265 250.539 L 376.363 251.764 L 377.445 252.799 L 378.528 253.552 L 379.61 254.494 L 378.823 253.175 L 377.741 251.951 Z" fill="#343536"/><path d="m 370.286 245.563 c 0 0 -.626 1.567 .068 1.887 c .694 .317 1.483 1.105 1.483 1.105 l 1.417 1.268 l 1.443 .837 l -1.139 -1.141 l -1.317 -1.866 z" fill="#d3bd6c"/><path d="M 377.741 234.307 L 377.741 237.956 L 378.501 238.261 L 378.806 240.542 L 379.87 240.542 L 379.87 237.651 L 378.501 234.002 Z" fill="#343536"/><path d="M 373.024 240.818 L 372.873 235.399 L 373.481 235.58 L 373.785 240.456 Z" fill="#343536"/><path d="M 373.938 248.054 L 373.785 240.809 L 374.394 241.05 L 374.697 247.57 Z" fill="#343536"/><path d="m 371.359 248.729 l 2.514 2.518 l 4.166 3.109 c 0 0 .372 .711 .173 .726 c -4.738 -2.532 -6.853 -6.353 -6.853 -6.353" fill="#d3bd6c"/><path d="m 375.715 254.248 l 1.891 1.583 l 3.298 1.568 c 0 0 .229 .57 .045 .658 c -3.906 -.78 -5.234 -3.809 -5.234 -3.809" fill="#d3bd6c"/><path d="m 381.007 256.707 l 3.338 1.133 l 5.106 .771 c 0 0 .626 .522 .447 .656 c -5.411 .178 -8.891 -2.56 -8.891 -2.56" fill="#d3bd6c"/><path d="m 381.685 258.492 l 4.894 1.602 l 7.37 1.448 c 0 0 .959 .619 .722 .736 c -7.683 -.503 -12.986 -3.786 -12.986 -3.786" fill="#d3bd6c"/><path d="m 395.463 262.066 l 2.459 .292 l 3.633 -.612 c 0 0 .504 .392 .397 .59 c -3.711 1.734 -6.489 -.27 -6.489 -.27" fill="#d3bd6c"/><path d="m 380.741 259.849 l 1.103 .354 l 1.749 -.1 c 0 0 .188 .271 .117 .383 c -1.913 .765 -2.969 -.637 -2.969 -.637" fill="#c6b366"/><path d="M 370.896 240.801 L 370.744 239.222 L 371.353 239.273 L 371.655 240.694 Z" fill="#d3bd6c"/><path d="M 380.441 257.887 L 379.547 256.576 L 380.104 256.329 L 381.056 257.428 Z" fill="#c6b366"/><path d="M 376.828 232.784 L 378.501 232.177 L 379.984 231.751 L 379.109 232.938 Z" fill="#c6b366"/><path d="M 387.003 258.684 L 386.071 257.76 L 386.482 257.472 L 387.427 258.219 Z" fill="#d3bd6c"/><path d="M 412.035 257.739 L 410.707 257.662 L 413.725 255.194 L 415.751 254.574 Z" fill="#d3bd6c"/><path d="M 416.212 260.581 L 414.884 260.505 L 417.9 258.036 L 419.927 257.415 Z" fill="#d3bd6c"/><path d="M 440.107 258.036 L 434.329 262.447 L 429.863 267.162 L 430.499 263.952 L 438.893 256.515 Z" fill="#d3bd6c"/><path d="M 433.249 266.971 L 431.919 266.894 L 441.629 258.036 L 439.5 261.688 Z" fill="#d3bd6c"/><path d="M 419.682 249.208 L 418.934 248.649 L 420.206 247.012 L 420.129 248.301 Z" fill="#d3bd6c"/><path d="M 431.041 264.218 L 430.293 263.657 L 431.566 262.022 L 431.488 263.31 Z" fill="#d3bd6c"/><path d="M 432.664 260.971 L 431.915 260.412 L 433.188 258.776 L 433.111 260.065 Z" fill="#d3bd6c"/><path d="M 432.664 256.51 L 431.915 255.951 L 433.188 254.313 L 433.111 255.602 Z" fill="#d3bd6c"/><path d="M 435.367 266.995 L 444.063 258.747 L 439.5 265.033 L 444.063 261.688 L 444.368 265.033 L 441.629 265.945 L 446.191 266.858 Z" fill="#d3bd6c"/><path d="M 409.126 269.547 L 407.201 270.965 L 406.997 265.186 L 408.822 266.098 L 413.842 264.121 L 413.641 268.684 L 411.257 266.402 Z" fill="#d3bd6c"/><path d="M 418.71 270.611 L 418.912 268.178 L 417.086 267.467 L 414.299 270.205 L 415.261 266.961 L 417.289 264.932 L 420.129 265.54 L 422.665 267.975 Z" fill="#d3bd6c"/><path d="M 418.051 260.773 L 421.518 257.636 L 423.072 256.376 L 420.789 259.311 Z" fill="#d3bd6c"/><path d="M 420.789 261.077 L 416.996 262.53 L 422.31 258.492 L 424.592 257.123 Z" fill="#d3bd6c"/><path d="M 445.889 220.615 L 447.715 219.398 L 447.715 220.311 Z" fill="#d3bd6c"/><path d="M 470.076 230.959 L 470.379 231.72 L 468.951 231.415 L 469.619 230.503 Z" fill="#d3bd6c"/><path d="M 505.148 208.241 L 506.605 207.26 L 506.586 207.968 Z" fill="#c6b366"/><path d="M 502.236 211.557 L 503.693 210.576 L 503.675 211.284 Z" fill="#d3bd6c"/><path d="M 380.701 235.16 L 381.669 232.487 L 382.124 232.777 L 381.39 235.24 Z" fill="#343536"/><path d="M 382.351 232.193 L 383.675 230.785 L 384.036 231.278 L 382.956 232.67 Z" fill="#343536"/><path d="M 384.603 233.45 L 385.543 231.77 L 385.706 231.941 L 384.911 233.487 Z" fill="#343536"/><path d="M 385.993 229.083 L 385.937 227.156 L 386.164 227.221 L 386.277 228.955 Z" fill="#343536"/><path d="M 384.301 231.816 L 385.125 230.074 L 385.299 230.235 L 384.612 231.831 Z" fill="#343536"/><path d="M 386.558 231.772 L 387.373 229.477 L 387.675 229.682 L 387.032 231.785 Z" fill="#343536"/><path d="M 384.627 248.627 L 386.765 249.614 L 387.511 248.704 L 386.228 246.938 L 384.002 245.508 L 383.162 246.349 Z" fill="#343536"/><path d="m 420.535 224.368 c 0 0 -1.57 3.079 4.061 5.12 c 2.778 2.817 8.108 .152 8.108 .152 c 0 0 -1.578 -2.971 -3.831 -1.901 c -1.8 -.584 -4.505 -2.588 -4.505 -4.082 z" fill="#d3bd6c"/><path d="m 460.419 224.57 c 0 0 2.025 3.65 5.314 4.26 l 4.555 .607 c 0 0 5.57 -1.52 -2.275 -2.434 c -1.266 -.456 -2.91 -1.216 -4.81 -3.347 c -4.683 -.911 -2.784 .914 -2.784 .914" fill="#d3bd6c"/><path d="m 433.721 223.528 c 0 0 .748 2.346 1.03 3.39 c .285 1.042 2.17 1.042 3.515 1.303 h 2.066 c 0 0 1.33 -.834 -.208 -1.824 c -1.653 -2.087 -4.132 -2.315 -4.132 -3.651 z" fill="#d3bd6c"/><path d="m 452.886 228.501 c 0 0 -.438 3.113 3.405 4.187 c 1.08 .302 5.936 1.719 7.595 1.395 c 1.657 -.321 .261 -3.864 .261 -3.864 c 0 0 -2.619 1.182 -4.188 -1.072 c -2.099 -2.577 -2.882 -3.012 -4.978 -2.577 c -2.095 .434 -2.095 1.931 -2.095 1.931" fill="#d3bd6c"/><path d="m 436.154 231.664 c 0 0 .468 3.475 1.463 3.858 c 5.533 2.129 11.619 3.651 17.574 2.482 c 0 0 3.091 -3.399 -3.582 -3.216 c -4.392 -.92 -3.875 -1.25 -5.693 -2.298 c -1.952 -2.206 -6.225 -1.517 -7.813 -2.481 c -1.583 -.965 -1.949 1.655 -1.949 1.655" fill="#d3bd6c"/><path d="m 442.238 222.846 c 0 0 3.232 .542 3.65 1.623 c .42 1.082 1.368 1.353 3.348 1.623 h 3.041 c 0 0 1.961 -.864 -.303 -1.894 c -2.435 -2.163 -5.326 -1.605 -7.303 -2.975 c -2.128 .305 -2.433 1.623 -2.433 1.623" fill="#d3bd6c"/><path d="m 449.54 219.366 c -1.063 .641 3.751 2.314 4.662 2.567 c 1.222 .339 1.423 -2.484 3.247 -.544 c 1.826 1.94 7.607 0 7.607 0 c 0 0 1.723 -.421 -3.955 -1.265 c -5.681 -.844 -3.857 -5.734 -8.216 -3.289 c .001 .001 -2.282 1.89 -3.345 2.531" fill="#d3bd6c"/><path d="m 467.338 211.606 c 0 0 7.148 1.402 8.214 0 c .763 -1.008 3.802 -.742 5.78 -.495 l 1.824 -1.978 c 0 0 -1.521 -1.235 -6.691 0 c -1.219 -1.235 -1.521 1.978 -5.171 .494 z" fill="#d3bd6c"/><path d="m 488.477 209.054 c 1.657 .914 6.633 -1.216 7.461 -.912 c 1.109 .407 2.279 .305 7.096 -.608 c 4.543 -.861 5.529 -2.839 5.529 -2.839 c 0 0 -6.086 -.507 -13.453 1.318 c -1.106 -1.523 -2.211 2.434 -5.529 .608 c -.001 0 -2.765 1.521 -1.104 2.433" fill="#d3bd6c"/><path d="m 483.764 213.617 c 1.115 0 2.006 1.218 3.342 .305 c 2.229 -.71 3.119 -.101 6.908 -.913 c 3.785 -.811 2.45 -2.433 2.45 -2.433 c -4.901 -.812 -2.941 .103 -9.134 .608 c -1.296 .105 -.669 -2.435 -3.566 -.608 c 0 0 -1.112 3.041 0 3.041" fill="#d3bd6c"/><path d="m 478.718 219.703 c 1.679 1.216 3.353 0 4.192 .304 c 1.122 .407 4.844 .811 8.104 .304 c 1.957 -.506 .932 -2.737 .279 -3.347 c -2.7 -.811 -8.102 .305 -8.102 .305 c 0 0 -1.121 -1.217 -3.076 -2.13 c -.974 -.455 -3.074 3.347 -1.397 4.564" fill="#d3bd6c"/><path d="m 471.073 224.781 c 1.909 .816 2.894 -1.223 5.118 .678 c 2.227 1.899 5.225 1.997 7.14 -.108 c 0 0 1.427 -2.423 -.175 -2.253 c -1.598 .168 -.906 -2.091 -4.42 -.742 c -4.238 -3.01 -4.582 -.7 -7.866 -2.355 c 0 0 -1.707 3.965 .203 4.78" fill="#d3bd6c"/><path d="m 458.667 214.987 c 0 0 2.435 2.327 3.347 2.586 c 1.217 .346 1.115 -1.725 5.78 -.776 l 3.347 -.441 c 0 0 9.127 -3.438 3.955 -2.145 c -4.867 -.517 -9.431 -1.506 -13.994 -.898 c -1.934 .258 -2.435 1.674 -2.435 1.674" fill="#d3bd6c"/><path d="m 359.791 234.002 c 0 0 3.194 -3.499 3.954 -2.738 c .762 .761 2.435 -.609 2.435 -.609 l 3.346 -3.65 c 0 0 2.739 -.304 1.827 .914 c -.914 1.216 -1.218 2.433 -1.218 2.433 c 0 0 .609 3.803 -.912 3.651 c -1.523 -.152 -2.131 1.521 -3.043 .608 c -.913 -.914 -6.389 -.609 -6.389 -.609" fill="#d3bd6c"/><path d="m 352.489 227.309 l 3.652 -.912 l 3.346 -.913 l 2.129 .305 l 1.216 1.825 c 0 0 -2.28 1.217 -3.954 .607 c -1.674 -.607 -1.824 .913 -1.824 .913 c 0 0 -3.196 -.304 -4.565 0 c -1.37 .304 0 -1.825 0 -1.825" fill="#d3bd6c"/><path d="M 351.88 224.874 L 346.709 224.874 L 345.797 223.657 L 348.23 223.657 L 350.359 221.833 L 352.489 220.311 L 354.619 220.311 L 354.619 222.441 L 352.184 223.962 Z" fill="#d3bd6c"/><path d="m 339.103 220.007 v 1.826 c 0 0 3.194 1.824 3.346 .304 c .153 -1.521 1.522 -1.826 1.522 -1.826 l 3.65 -.607 l 2.13 -1.217 l -2.738 -.609 l -2.434 .305 l -1.826 .913 z" fill="#d3bd6c"/><path d="m 334.54 218.486 c 1.673 .152 1.216 -.913 1.216 -.913 l 1.826 -.913 c 0 0 3.65 -.151 2.434 -1.522 c -1.218 -1.367 -5.172 -1.521 -5.172 -1.521 l -1.521 1.521 l -.302 1.825 c -.001 .001 -.156 1.371 1.519 1.523" fill="#d3bd6c"/><path d="m 326.325 212.4 c .762 .608 3.651 0 3.651 0 c 0 0 5.172 -1.064 2.435 -1.824 c -2.739 -.761 -5.174 0 -5.174 0 c 0 0 -1.674 1.217 -.912 1.824" fill="#d3bd6c"/><path d="m 308.982 207.964 c 0 0 7.608 -1.09 7.302 0 c -.303 1.09 .914 .971 .914 .971 l 3.043 .323 v 1.292 c 0 0 -5.932 .736 -6.086 0 c -.151 -.734 -1.52 -.646 -1.52 -.646 c 0 0 -.761 -.138 -.913 .646 c -.153 .786 -5.172 0 -5.172 0 l 1.826 -1.615 z" fill="#d3bd6c"/><path d="m 313.547 214.262 c 2.587 -1.101 10.648 0 10.648 0 l -1.216 1.293 l -1.217 .97 c 0 0 -5.324 .776 -6.391 0 c -1.062 -.776 0 .016 -1.824 0 c -1.825 -.016 -2.585 -1.164 0 -2.263" fill="#d3bd6c"/><path d="m 317.502 219.095 c 0 0 6.997 -.761 5.477 0 c -1.521 .761 2.433 -2.131 2.433 -2.131 h 2.434 l .303 1.522 l -2.128 2.433 l -1.826 .914 c 0 0 -3.195 -.457 -6.083 .912 c -2.891 1.369 -.61 -3.65 -.61 -3.65" fill="#d3bd6c"/><path d="m 322.675 226.092 l 3.346 -2.435 l 3.042 -1.824 l 3.348 -.609 l 2.129 -.305 l .912 .914 l -.912 2.129 l -1.52 1.826 l -2.131 .608 l -1.826 1.217 c 0 0 -.305 -.609 -3.651 .305 c -3.347 .912 -2.737 -1.826 -2.737 -1.826" fill="#d3bd6c"/><path d="m 327.541 235.523 c -1.824 .761 0 -2.738 0 -2.738 l 1.826 -.912 l 2.434 -2.13 l 2.131 -.608 l 2.432 -.913 c 0 0 3.652 1.217 2.739 3.651 l -1.826 .912 l -1.825 1.218 l -2.13 .608 l -2.13 1.217 c 0 -.001 -4.867 1.064 -3.651 -.305" fill="#d3bd6c"/><path d="m 335.554 238.108 l 2.311 -2.861 l 4.291 -2.863 l 2.973 -2.862 l 2.642 -1.908 h 1.98 v 1.271 l -1.98 .637 v 1.271 l -.331 2.227 c 0 0 0 1.59 -1.322 3.181 c -1.32 1.59 -2.97 2.864 -2.97 2.864 c 0 0 -5.587 2.885 -6.934 1.906 c -1.22 -.885 -.66 -2.863 -.66 -2.863" fill="#d3bd6c"/><path d="m 346.405 241.479 c -1.334 -.504 1.998 -2.689 1.998 -2.689 c 0 0 2.666 -2.858 2.999 -2.017 c .334 .84 1.333 -.337 1.333 -.337 c 0 0 1.499 .168 .667 1.01 c -.834 .839 -1.5 .839 -.667 2.017 c .832 1.178 .5 2.689 -.999 2.354 c -1.5 -.337 -3.001 1.009 -3.001 1.009 c 0 0 -.999 -.843 -2.33 -1.347" fill="#d3bd6c"/><path d="M 352.793 234.002 L 353.402 234.914 L 354.619 235.523 L 356.141 234.002 L 356.749 232.784 L 354.01 232.177 Z" fill="#d3bd6c"/><path d="M 362.225 239.174 L 363.137 235.523 L 361.008 236.131 L 359.791 237.651 L 358.574 239.781 L 357.966 240.999 L 356.749 241.606 L 359.791 241.911 L 360.398 239.781 Z" fill="#d3bd6c"/><path d="M 338.798 227.004 L 340.016 227.309 L 339.406 225.788 Z" fill="#c6b366"/><path d="M 356.414 222.228 L 356.141 223.05 L 356.414 222.225 Z" fill="#c6b366"/><path d="M 357.966 223.05 L 356.414 222.225 L 356.141 223.05 Z" fill="#d3bd6c"/><path d="M 330.585 215.139 L 331.801 214.531 L 330.585 213.922 Z" fill="#c6b366"/><path d="M 378.653 263.207 L 377.437 262.903 L 375.61 266.858 L 378.653 266.25 Z" fill="#d3bd6c"/><path d="M 389.91 264.425 L 387.172 266.555 L 385.954 263.512 L 383.521 264.729 L 380.479 265.338 L 378.957 267.772 L 381.088 270.205 L 383.825 267.467 L 386.867 270.205 L 388.998 268.987 Z" fill="#d3bd6c"/><path d="m 377.115 290.149 l -.833 2.124 c -.795 -.579 -2.045 -.87 -3.751 -.87 c -1.598 0 -2.879 .688 -3.843 2.061 c -.966 1.373 -1.446 3.145 -1.446 5.313 c 0 2.068 .493 3.747 1.482 5.032 c .987 1.287 2.263 1.932 3.827 1.932 c 1.703 0 3.014 -.603 3.933 -1.809 l 1.365 1.9 c -1.439 1.427 -3.29 2.14 -5.557 2.14 c -2.371 0 -4.24 -.857 -5.604 -2.569 c -1.364 -1.712 -2.045 -3.971 -2.045 -6.775 c 0 -2.713 .727 -4.967 2.184 -6.763 c 1.455 -1.796 3.339 -2.692 5.648 -2.692 c 1.974 -.001 3.523 .325 4.64 .976" fill="#a9714b"/><path d="m 425.087 291.71 v 13.601 c .556 .083 1.244 .124 2.067 .124 c 1.742 0 3.113 -.652 4.111 -1.956 c .994 -1.305 1.492 -3.115 1.492 -5.435 c 0 -4.305 -1.939 -6.457 -5.816 -6.457 c -.232 0 -.85 .041 -1.854 .123 m 1.186 15.956 h -3.664 v -18.187 c 2.336 -.082 3.83 -.123 4.486 -.123 c 2.541 0 4.555 .771 6.037 2.313 c 1.482 1.545 2.223 3.6 2.223 6.165 c 0 6.556 -3.025 9.832 -9.082 9.832" fill="#a9714b"/><path d="m 400.169 338.688 l -2.837 8.009 h 5.408 z m 4.538 13.664 l -1.258 -3.82 h -6.779 l -1.348 3.82 h -2.781 l 7.397 -18.433 h .673 l 6.847 18.433 z" fill="#a9714b"/></g></svg>