<?xml version="1.0" encoding="UTF-8" standalone="no"?>
<svg
   xmlns:dc="http://purl.org/dc/elements/1.1/"
   xmlns:cc="http://creativecommons.org/ns#"
   xmlns:rdf="http://www.w3.org/1999/02/22-rdf-syntax-ns#"
   xmlns:svg="http://www.w3.org/2000/svg"
   xmlns="http://www.w3.org/2000/svg"
   xmlns:sodipodi="http://sodipodi.sourceforge.net/DTD/sodipodi-0.dtd"
   xmlns:inkscape="http://www.inkscape.org/namespaces/inkscape"
   viewBox="0 0 999.99999 1000"
   id="svg60"
   height="1000"
   width="1000"
   version="1.1"
   sodipodi:docname="FK Budućnost Dobanovci.svg"
   inkscape:version="1.0.1 (3bc2e813f5, 2020-09-07)">
  <sodipodi:namedview
     pagecolor="#ffffff"
     bordercolor="#666666"
     borderopacity="1"
     objecttolerance="10"
     gridtolerance="10"
     guidetolerance="10"
     inkscape:pageopacity="0"
     inkscape:pageshadow="2"
     inkscape:window-width="1920"
     inkscape:window-height="1017"
     id="namedview36"
     showgrid="false"
     inkscape:zoom="0.845"
     inkscape:cx="500"
     inkscape:cy="500"
     inkscape:window-x="-8"
     inkscape:window-y="-8"
     inkscape:window-maximized="1"
     inkscape:current-layer="svg60" />
  <metadata
     id="metadata66">
    <rdf:RDF>
      <cc:Work
         rdf:about="">
        <dc:format>image/svg+xml</dc:format>
        <dc:type
           rdf:resource="http://purl.org/dc/dcmitype/StillImage" />
        <dc:title></dc:title>
      </cc:Work>
    </rdf:RDF>
  </metadata>
  <defs
     id="defs64" />
  <g
     id="Layer1000"
     transform="matrix(1.6756945,0,0,1.6756945,1.2497242,-205.37497)">
    <path
       id="path2"
       style="fill:#ecbc22;fill-rule:evenodd"
       d="m 60.0673,137.4803 h 475.1413 v 340.779 c 0,31.5376 -0.8178,61.2776 -12.4357,87.7395 -19.2719,43.8949 -63.4238,84.7589 -109.088,109.0019 -34.8114,18.4811 -73.2386,29.4087 -116.1025,29.4087 -27.5528,0 -52.9201,-4.0595 -79.4377,-13.0471 -65.6165,-22.24 -122.6571,-72.781 -142.5562,-119.2455 -11.616,-27.1232 -15.5212,-61.78 -15.5212,-93.8575 z" />
    <path
       id="path4"
       style="fill:#c52b26;fill-rule:evenodd"
       d="m 82.6455,577.3722 c 10.6246,21.1094 27.5692,40.4949 44.8232,55.9401 22.9982,20.5871 50.2735,37.6665 78.8987,49.2226 4.3258,1.7462 8.7001,3.3729 13.1185,4.8704 25.7274,8.7196 50.9557,12.8259 78.0965,12.8259 40.4887,0 78.4758,-9.9853 114.1432,-28.9209 42.6821,-22.6599 87.5975,-62.294 107.2214,-106.9911 11.6948,-26.6372 12.0834,-57.445 12.0834,-86.0599 V 276.8302 Z" />
    <path
       id="path6"
       style="fill:#ffffff;fill-rule:evenodd"
       d="M 64.2455,141.6585 V 452.2279 L 525.1998,141.6585 Z" />
    <g
       id="Layer1001">
      <path
         id="path8"
         style="fill:#ecbc22;fill-rule:evenodd"
         d="m 116.5711,187.6954 v 13.6042 h 23.7272 v 7.6843 h -23.7272 v 25.6046 h -8.4645 v -54.5774 h 33.2279 v 7.6843 z" />
      <path
         id="path10"
         style="fill:#ecbc22;fill-rule:evenodd"
         d="m 158.6596,210.2488 -2.3777,2.6576 v 21.6821 h -8.4645 v -54.5774 h 8.4645 v 23.3155 l 20.7924,-23.3155 H 187.59 l -22.7113,24.4835 23.8355,30.0939 h -10.9594 z" />
    </g>
    <g
       id="Layer1002">
      <path
         id="path13"
         style="fill:#c52b26;fill-rule:evenodd"
         d="m 128.4354,481.9763 c 2.8775,-0.7517 5.8194,-0.7934 8.7086,0.1604 3.4882,1.1487 6.1602,3.5364 8.2163,6.53 1.6062,2.3386 2.7804,4.9255 3.1918,7.7477 0.3708,2.5453 0.2175,5.0739 -0.5691,7.5207 -0.8387,2.708 -2.1235,5.2236 -3.9347,7.4106 -2.1043,2.5598 -4.962,4.7872 -7.6814,6.655 l -14.6868,10.0873 -34.6099,-50.3908 13.6349,-9.3649 c 2.5652,-1.7618 5.3761,-3.6799 8.1545,-5.0793 2.0095,-1.0284 4.1676,-1.6412 6.4102,-1.8923 2.3768,-0.2531 4.7112,0.0491 6.854,1.1507 2.1392,1.1245 3.8477,2.841 5.2069,4.82 1.6341,2.3792 2.5416,5.0171 2.5751,7.9046 0.0376,2.3721 -0.4886,4.6254 -1.4704,6.7403 z m -28.7312,-2.7432 8.909,12.9711 6.6848,-4.5913 c 1.3399,-0.9203 3.0238,-2.0883 4.1378,-3.2826 0.8402,-0.8809 1.4603,-1.9874 1.9288,-3.1056 0.4709,-1.1125 0.5983,-2.2442 0.3334,-3.4234 -0.3171,-1.4143 -1.056,-2.7745 -1.8707,-3.9606 -0.6502,-0.9467 -1.4618,-1.8312 -2.4509,-2.4295 -0.866,-0.5237 -1.809,-0.709 -2.8101,-0.6321 -1.3834,0.125 -2.6984,0.5534 -3.9149,1.2274 -1.8496,1.0044 -3.6696,2.2281 -5.4036,3.419 z m 13.5828,19.776 11.4945,16.7355 4.5925,-3.1543 c 2.1533,-1.4789 4.4424,-3.1211 6.3384,-4.9191 1.2917,-1.241 2.3286,-2.6739 2.9686,-4.3503 0.5204,-1.3908 0.8178,-2.8741 0.6389,-4.3607 -0.1907,-1.5897 -1.0241,-3.1455 -1.9179,-4.447 -0.9724,-1.4157 -2.1965,-2.8708 -3.6678,-3.7864 -1.3902,-0.8585 -3.156,-0.9237 -4.7363,-0.7425 -1.3363,0.1484 -2.6024,0.555 -3.7968,1.181 -1.7885,0.9138 -3.5748,2.1161 -5.2294,3.2525 z" />
      <path
         id="path15"
         style="fill:#c52b26;fill-rule:evenodd"
         d="m 190.7975,465.4221 c 0.9855,2.9693 1.2081,5.9936 0.5886,9.062 -0.569,2.7011 -1.6698,5.1795 -3.2959,7.4098 -1.8607,2.5878 -4.4528,4.7541 -7.0648,6.5481 -2.6166,1.7971 -5.4953,3.3272 -8.5675,4.1762 -2.6727,0.734 -5.4152,0.9196 -8.1582,0.4584 -3.0392,-0.5564 -5.7735,-1.8191 -8.1739,-3.7652 -2.7917,-2.2437 -5.1802,-5.2155 -7.1995,-8.1556 l -21.2549,-30.9463 7.8996,-5.4257 21.2549,30.9463 c 1.2531,1.8245 2.6452,3.6659 4.209,5.2371 1.2146,1.22 2.6152,2.1595 4.2183,2.7839 1.6703,0.6474 3.3912,0.783 5.1544,0.4577 2.1164,-0.3827 4.1346,-1.4398 5.8923,-2.647 1.7592,-1.2083 3.3595,-2.6845 4.5052,-4.5031 0.9886,-1.5393 1.5423,-3.2078 1.5373,-5.0311 -0.0431,-1.7158 -0.42,-3.3588 -1.1046,-4.937 -0.8372,-1.9753 -2.0379,-3.9016 -3.2499,-5.6661 l -21.3618,-31.102 7.8994,-5.4255 21.2549,30.9463 c 2.0195,2.9403 3.8744,6.1847 5.0171,9.5788 z" />
      <path
         id="path17"
         style="fill:#c52b26;fill-rule:evenodd"
         d="m 230.9992,416.026 c 2.9628,4.3136 5.0018,9.0704 5.7109,14.2739 0.6484,4.7134 0.2496,9.3759 -1.5489,13.8082 -1.3598,3.1473 -3.172,6.0664 -5.5539,8.5438 -2.7251,2.8391 -6.1011,5.3633 -9.3381,7.5866 l -11.9338,8.1964 -34.4492,-50.1568 11.7997,-8.1043 c 3.5197,-2.4174 7.6622,-5.0315 11.6959,-6.4854 2.8458,-1.0162 5.8524,-1.7289 8.8837,-1.7888 4.7642,-0.1025 9.2366,1.0528 13.4151,3.3418 4.6341,2.5626 8.3427,6.4517 11.3186,10.7846 z m -44.4745,3.7954 24.9067,36.2634 4.2572,-2.924 c 2.4731,-1.6986 4.8943,-3.6065 6.9662,-5.7828 1.7536,-1.8458 3.1013,-3.9653 4.0055,-6.3486 1.1538,-2.9656 1.411,-6.0126 0.8441,-9.1409 -0.6933,-3.713 -2.5824,-7.2772 -4.7025,-10.364 -2.1717,-3.162 -4.8736,-6.129 -8.2081,-8.0861 -2.8819,-1.6911 -5.9923,-2.4879 -9.3327,-2.2888 -2.3539,0.1276 -4.6367,0.63 -6.8316,1.489 -2.6772,1.0481 -5.2841,2.6355 -7.6477,4.2589 z" />
      <path
         id="path19"
         style="fill:#c52b26;fill-rule:evenodd"
         d="m 257.3219,429.4957 c -3.0498,-0.5783 -5.7856,-1.8659 -8.185,-3.8252 -2.8032,-2.2689 -5.2047,-5.2635 -7.2379,-8.2239 l -21.4143,-31.1784 7.8672,-5.4035 21.4143,31.1785 c 1.2635,1.8396 2.6648,3.6954 4.2381,5.283 1.2192,1.2304 2.6252,2.1837 4.2349,2.8212 1.6674,0.6575 3.3865,0.8072 5.1524,0.4902 2.108,-0.3709 4.1171,-1.419 5.866,-2.6203 1.7508,-1.2024 3.3395,-2.6738 4.4715,-4.4887 0.9823,-1.5455 1.5209,-3.2164 1.5059,-5.0403 -0.0537,-1.727 -0.442,-3.3801 -1.1344,-4.9658 -0.8485,-1.9892 -2.0598,-3.9295 -3.2817,-5.7085 l -21.5219,-31.335 7.8675,-5.4036 21.4143,31.1784 c 2.0337,2.961 3.905,6.2262 5.0667,9.6391 0.9984,2.975 1.2428,6.0113 0.6409,9.0939 -0.5519,2.7026 -1.6349,5.1847 -3.2506,7.4197 -1.8432,2.5852 -4.4218,4.7462 -7.0237,6.5332 -2.6067,1.7904 -5.4755,3.309 -8.5395,4.1432 -2.6736,0.7229 -5.4095,0.8914 -8.1507,0.4128 z" />
      <path
         id="path21"
         style="fill:#c52b26;fill-rule:evenodd"
         d="m 321.6103,392.012 c -3.1059,2.1332 -6.5071,3.7316 -10.1915,4.5526 -3.5303,0.8054 -7.0701,0.7881 -10.5981,-0.022 -3.7755,-0.8776 -7.2086,-2.6653 -10.291,-4.9878 -3.6652,-2.7426 -6.7298,-6.2679 -9.3125,-10.0281 -2.5189,-3.6675 -4.7087,-7.7182 -5.9129,-12.0211 -1.0373,-3.7231 -1.4034,-7.5402 -0.932,-11.3828 0.4502,-3.6299 1.6436,-7.0116 3.596,-10.1024 2.0583,-3.2723 4.8248,-5.9371 8,-8.1179 1.5801,-1.0853 3.2399,-2.061 4.9786,-2.8771 1.5327,-0.7057 3.1068,-1.3408 4.7214,-1.8573 1.3674,-0.4121 2.7584,-0.749 4.1624,-1.0034 1.4754,-0.2729 2.9606,-0.484 4.4542,-0.6286 l 0.4905,-0.0476 6.1408,8.9409 -1.4842,1.0194 -0.3234,-0.0469 c -1.1473,-0.1659 -2.307,-0.2828 -3.4581,-0.3938 -1.5331,-0.1368 -3.1014,-0.0886 -4.6302,0.0541 -1.7108,0.1694 -3.3991,0.5599 -5.0339,1.0835 -1.8899,0.6097 -3.6852,1.6002 -5.3172,2.7211 -1.9588,1.3454 -3.5661,3.0352 -4.7863,5.0756 -1.2448,2.0813 -1.9309,4.3699 -2.1689,6.7741 -0.242,2.7605 0.2258,5.5277 1.0647,8.1567 1.0128,3.2354 2.6606,6.2786 4.5746,9.0654 1.9315,2.8122 4.2331,5.5615 6.9649,7.628 2.1861,1.6399 4.6016,2.9826 7.2444,3.7191 2.2768,0.6326 4.5986,0.7766 6.9236,0.3482 2.3064,-0.4254 4.4314,-1.3171 6.3658,-2.6458 1.686,-1.158 3.2606,-2.5155 4.5618,-4.1 1.1429,-1.3868 2.1699,-2.8927 2.9578,-4.5151 0.6509,-1.3101 1.22,-2.6793 1.6275,-4.0913 0.3123,-1.0282 0.6062,-2.092 0.8017,-3.1491 l 0.0628,-0.3409 1.467,-1.0076 6.0929,8.8711 -0.2683,0.458 c -0.6851,1.1697 -1.3621,2.344 -2.0345,3.5209 -0.7595,1.3306 -1.6624,2.6029 -2.5971,3.8152 -1.027,1.3333 -2.1194,2.6273 -3.2916,3.8416 -1.366,1.3853 -3.0211,2.6218 -4.6217,3.7211 z m -38.5737,-75.6028 -0.5718,20.4996 -6.321,4.3415 -2.8625,-18.1409 z" />
      <path
         id="path23"
         style="fill:#c52b26;fill-rule:evenodd"
         d="m 323.3318,330.9733 27.3548,39.8277 -7.442,5.1114 -34.391,-50.0721 10.3197,-7.0878 43.5231,23.646 -24.9856,-36.3782 7.4422,-5.1115 34.391,50.0721 -8.3822,5.7571 z" />
      <path
         id="path25"
         style="fill:#c52b26;fill-rule:evenodd"
         d="m 394.8964,275.3611 c 3.7036,0.9615 7.0763,2.8353 10.0959,5.1546 3.5955,2.7611 6.6196,6.2564 9.1783,9.9818 2.5346,3.6902 4.659,7.7033 5.969,11.9954 1.1294,3.6875 1.6531,7.5275 1.2013,11.3735 -0.4328,3.666 -1.6162,7.0996 -3.6404,10.1883 -2.0651,3.1516 -4.7853,5.7529 -7.8825,7.8801 -3.1472,2.1616 -6.6167,3.8082 -10.37,4.586 -3.5627,0.7246 -7.1106,0.6094 -10.6231,-0.3251 -3.731,-0.9654 -7.107,-2.823 -10.1329,-5.1833 -3.5496,-2.7622 -6.5396,-6.2147 -9.0788,-9.9116 -2.5422,-3.7015 -4.7559,-7.7766 -6.0219,-12.102 -1.0822,-3.6828 -1.5566,-7.488 -1.1768,-11.3217 0.3912,-3.5951 1.5838,-6.9308 3.5367,-9.9722 2.0547,-3.2352 4.818,-5.879 7.9657,-8.0409 3.1812,-2.1849 6.6902,-3.8236 10.4926,-4.5668 3.5124,-0.6735 7.0177,-0.6183 10.4869,0.2639 z m 11.1384,20.7243 c -1.9306,-2.8108 -4.1697,-5.5125 -6.7997,-7.7003 -2.0495,-1.7195 -4.3682,-3.1989 -6.9244,-4.0291 -2.249,-0.723 -4.5486,-0.9454 -6.8792,-0.5449 -2.4284,0.4175 -4.6572,1.4293 -6.6807,2.8191 -2.0141,1.3834 -3.8337,3.0927 -5.0838,5.21 -1.2023,2.0355 -1.79,4.3099 -1.9396,6.6544 -0.1494,2.7144 0.414,5.4323 1.2977,7.9859 1.1207,3.2069 2.8052,6.2381 4.7242,9.0322 3.3364,4.8576 7.8914,9.833 13.6936,11.6246 4.8992,1.5109 9.3972,0.6779 13.6084,-2.2145 4.2013,-2.8856 6.602,-6.7806 6.929,-11.8892 0.3979,-6.0554 -2.6107,-12.0927 -5.9455,-16.9482 z" />
      <path
         id="path27"
         style="fill:#c52b26;fill-rule:evenodd"
         d="m 426.8503,282.5338 c -1.8953,0.2545 -3.7947,0.1749 -5.6644,-0.2369 -1.8924,-0.4182 -3.6401,-1.2217 -5.238,-2.3156 -1.8027,-1.2408 -3.2907,-2.8945 -4.5245,-4.691 -2.9058,-4.2307 -3.6298,-8.8759 -2.3539,-13.8363 1.4012,-5.403 4.8335,-9.4997 9.3731,-12.6176 2.656,-1.8243 5.4852,-3.3971 8.4799,-4.5936 2.7594,-1.1021 5.6186,-1.9207 8.5587,-2.3647 l 0.5175,-0.078 6.1279,8.9221 -1.4492,0.9954 -0.3219,-0.0456 c -2.7324,-0.3856 -5.5583,-0.1621 -8.2583,0.3515 -3.0557,0.5812 -5.8563,1.7616 -8.4203,3.5227 -2.4329,1.671 -4.5877,3.8542 -5.5287,6.7128 -0.7974,2.4208 -0.5123,4.6431 0.9331,6.7474 1.1259,1.6394 2.593,3.0148 4.5597,3.5128 2.0348,0.4941 4.1847,0.1218 6.1306,-0.549 1.976,-0.6965 3.9383,-1.432 5.8923,-2.1881 1.9424,-0.7522 3.9077,-1.4897 5.8934,-2.1311 3.5769,-1.1233 7.4813,-1.6136 11.1025,-0.389 3.4062,1.1621 6.0177,3.4819 8.0361,6.4206 1.4064,2.0477 2.3359,4.3295 2.8512,6.757 0.518,2.4422 0.5267,4.9041 -0.0174,7.3462 -0.6199,2.5932 -1.69,5.0168 -3.1966,7.2143 -1.7384,2.573 -4.3015,4.7255 -6.8428,6.4709 -3.0577,2.1001 -6.46,4.0547 -10.0016,5.2085 -2.939,0.9474 -5.9502,1.6855 -9.0082,2.126 l -0.5142,0.074 -6.3648,-9.2669 1.422,-0.9766 0.3283,0.0515 c 3.4064,0.5341 6.8129,0.4335 10.1819,-0.305 3.0834,-0.6648 6.0673,-1.7978 8.6773,-3.5904 2.5954,-1.7826 5.3483,-4.2596 6.2561,-7.3895 0.7535,-2.5629 0.3011,-4.9164 -1.2055,-7.1101 -1.064,-1.5492 -2.4518,-2.8848 -4.2804,-3.4552 -1.9299,-0.6023 -4.0756,-0.2154 -5.9485,0.4181 -1.6213,0.5368 -3.2443,1.0973 -4.831,1.7302 -1.8195,0.7259 -3.6588,1.4113 -5.4997,2.0844 -1.8916,0.6835 -3.8586,1.2096 -5.8517,1.4638 z" />
      <path
         id="path29"
         style="fill:#c52b26;fill-rule:evenodd"
         d="m 459.524,232.7602 -16.3923,11.2587 -4.9169,-7.1589 40.652,-27.921 4.9169,7.1589 -16.3922,11.2587 29.5964,43.0913 -7.8675,5.4036 z" />
    </g>
    <path
       id="path32"
       style="fill:#ecbc22;fill-rule:evenodd"
       d="m 161.0887,603.3599 c -6.1794,7.0224 -15.86,11.8536 -25.357,10.5379 -3.3185,-0.46 -6.4913,-1.4813 -9.4125,-3.1289 -3.3123,-1.8684 -6.4818,-4.4298 -9.3302,-6.9362 l -10.5943,-9.3222 39.4164,-44.7873 10.4763,9.2184 c 3.0985,2.7264 6.5278,5.9989 8.8264,9.4491 1.6236,2.4538 2.9867,5.1293 3.7364,7.9848 1.1922,4.512 1.1042,9.0608 -0.1089,13.5659 -1.3768,5.0394 -4.2263,9.5246 -7.6526,13.4185 z m -13.8067,-40.8809 -28.0472,31.8677 3.6054,3.1727 c 2.1588,1.8996 4.5053,3.7022 7.0214,5.1044 2.1315,1.1875 4.422,1.9053 6.8453,2.1715 6.8495,0.7523 12.7121,-3.0762 17.0614,-8.0194 2.4775,-2.8154 4.6634,-6.0872 5.7515,-9.7065 0.9289,-3.0881 0.9877,-6.191 0.0423,-9.2803 -0.6486,-2.1643 -1.6329,-4.1756 -2.9366,-6.0197 -1.5894,-2.2485 -3.6769,-4.3036 -5.7381,-6.1174 z" />
    <path
       id="path34"
       style="fill:#ecbc22;fill-rule:evenodd"
       d="m 210.4632,605.9451 c 0.847,3.6587 0.753,7.473 0.1241,11.1566 -0.7528,4.404 -2.3936,8.6561 -4.4392,12.6128 -2.0265,3.921 -4.5159,7.6428 -7.617,10.7979 -2.6549,2.7067 -5.7243,4.9779 -9.2528,6.4091 -3.3425,1.3528 -6.8389,1.9628 -10.4404,1.6704 -3.6472,-0.2948 -7.1215,-1.4145 -10.3622,-3.0903 -3.2941,-1.7023 -6.2816,-3.9267 -8.6467,-6.8017 -2.2483,-2.7522 -3.7501,-5.8823 -4.5299,-9.3483 -0.8543,-3.6785 -0.7766,-7.4984 -0.116,-11.2003 0.7742,-4.3654 2.3928,-8.5679 4.4233,-12.4959 2.033,-3.9326 4.5358,-7.7609 7.6857,-10.8937 2.6716,-2.664 5.7327,-4.8752 9.2165,-6.3622 3.2665,-1.3572 6.6836,-1.9111 10.2088,-1.6591 3.7144,0.2462 7.2444,1.383 10.5395,3.0864 3.3299,1.7214 6.329,3.9835 8.6864,6.9173 2.1814,2.7332 3.7141,5.7947 4.5199,9.201 z m -30.3054,-8.8756 c -2.3792,1.1412 -4.4412,2.8959 -6.2117,4.8333 -2.2373,2.4629 -4.0691,5.3238 -5.5932,8.2738 -2.633,5.092 -4.8603,11.3275 -3.7913,17.1352 0.8916,4.8317 3.5641,8.2779 7.9186,10.5286 4.3446,2.2455 8.701,2.4437 13.1437,0.3618 5.3476,-2.4956 9.1475,-7.9183 11.7784,-13.0086 1.5336,-2.9662 2.8388,-6.147 3.5284,-9.4255 0.5463,-2.5412 0.7741,-5.212 0.3384,-7.7866 -0.3844,-2.2325 -1.2113,-4.2923 -2.5924,-6.093 -1.4292,-1.8655 -3.2752,-3.2887 -5.3547,-4.3643 -2.0699,-1.0701 -4.3257,-1.8213 -6.6697,-1.8989 -2.268,-0.0761 -4.4562,0.4896 -6.4945,1.4442 z" />
    <path
       id="path36"
       style="fill:#ecbc22;fill-rule:evenodd"
       d="m 238.4356,639.1791 c 2.1463,1.798 3.7863,4.0352 4.6747,6.7742 1.1167,3.4331 0.786,6.9812 -0.3629,10.3598 -0.9009,2.6491 -2.2463,5.1109 -4.2202,7.1149 -1.773,1.7997 -3.8427,3.1874 -6.2236,4.0271 -2.5973,0.9466 -5.3085,1.4326 -8.0743,1.3061 -3.2073,-0.1352 -6.5918,-1.0567 -9.6174,-2.0857 l -16.4043,-5.5782 19.3949,-57.035 15.2415,5.1832 c 2.8425,0.9665 5.9548,2.0361 8.6364,3.3834 1.9716,0.974 3.7017,2.3137 5.1935,3.9305 1.5885,1.7401 2.6991,3.7729 3.0738,6.1164 0.3551,2.3474 -0.005,4.7435 -0.7646,6.9767 -0.9175,2.698 -2.4591,4.9885 -4.7099,6.7392 -1.7497,1.3724 -3.7165,2.2835 -5.8376,2.7874 z m -14.5666,-23.9394 -4.8666,14.3108 7.2325,2.4594 c 1.4653,0.4984 3.3325,1.1234 4.8801,1.2878 1.1448,0.1344 2.3402,-0.0335 3.4514,-0.3203 1.1056,-0.2808 2.0272,-0.8343 2.766,-1.7073 0.9053,-1.0681 1.5296,-2.4337 1.9772,-3.7497 0.3552,-1.0445 0.5756,-2.1812 0.4748,-3.2877 -0.0862,-0.9466 -0.4641,-1.7614 -1.0782,-2.476 -0.8711,-0.9858 -1.9351,-1.7456 -3.1355,-2.2893 -1.8324,-0.8489 -3.8209,-1.5478 -5.7316,-2.1977 z m -7.5724,22.2679 -6.308,18.5492 4.9184,1.6727 c 2.3705,0.806 4.9513,1.6242 7.4202,2.043 1.6776,0.2728 3.3644,0.2367 4.9978,-0.2415 1.3596,-0.4079 2.6563,-1.0395 3.6854,-2.034 1.1086,-1.0704 1.8277,-2.6242 2.3171,-4.0626 0.5344,-1.5718 0.9627,-3.3692 0.8317,-5.039 -0.1262,-1.5471 -1.0651,-2.9327 -2.0933,-4.0412 -0.8641,-0.9383 -1.886,-1.6742 -3.0384,-2.2298 -1.7246,-0.8536 -3.6784,-1.5385 -5.4987,-2.1576 z" />
    <path
       id="path38"
       style="fill:#ecbc22;fill-rule:evenodd"
       d="m 274.7532,664.2833 -20.1642,-2.8365 -7.3824,15.4122 -9.6267,-1.3543 28.0695,-56.8866 10.6379,1.4965 11.2856,62.423 -9.963,-1.4016 z m -1.4957,-8.8596 -4.1639,-24.1186 -10.6124,22.0399 z" />
    <path
       id="path40"
       style="fill:#ecbc22;fill-rule:evenodd"
       d="m 298.8443,634.9835 3.3086,47.0022 -9.0121,0.6344 -4.2301,-60.0935 12.3058,-0.8663 24.3401,41.3759 -3.0182,-42.8768 9.0123,-0.6344 4.2301,60.0935 -10.0479,0.7073 z" />
    <path
       id="path42"
       style="fill:#ecbc22;fill-rule:evenodd"
       d="m 372.1508,614.6259 c 3.1457,2.0284 5.7126,4.8073 7.8198,7.878 2.5203,3.6727 4.299,7.8539 5.584,12.105 1.2726,4.2112 2.0774,8.602 2.0505,13.0119 -0.0193,3.7721 -0.6359,7.521 -2.1624,10.9885 -1.4463,3.2787 -3.518,6.1345 -6.288,8.4196 -2.808,2.3168 -6.0643,3.9251 -9.5392,4.9753 -3.5312,1.0673 -7.2049,1.5507 -10.8858,1.1383 -3.509,-0.4062 -6.746,-1.5988 -9.7023,-3.5307 -3.17,-2.0407 -5.7443,-4.8054 -7.8454,-7.9165 -2.4775,-3.6598 -4.2376,-7.79 -5.5127,-12.0092 -1.2767,-4.224 -2.146,-8.6996 -2.0687,-13.127 0.0616,-3.7548 0.7136,-7.4556 2.17,-10.9321 1.3882,-3.2269 3.4444,-5.9906 6.1307,-8.2499 2.8218,-2.3985 6.1299,-4.0328 9.6622,-5.1005 3.5646,-1.0774 7.2826,-1.5422 10.993,-1.0832 3.449,0.4394 6.661,1.5609 9.5943,3.4325 z m 4.2464,22.7506 c -0.9697,-3.2085 -2.2543,-6.4106 -4.0497,-9.2542 -1.3879,-2.2185 -3.0966,-4.3065 -5.2171,-5.8611 -1.8493,-1.3473 -3.8987,-2.2574 -6.1662,-2.5912 -2.343,-0.3449 -4.6844,-0.0785 -6.9428,0.6041 -2.2505,0.68 -4.4099,1.7225 -6.1616,3.3132 -1.6954,1.5401 -2.8842,3.4865 -3.6897,5.6146 -0.9195,2.4958 -1.1791,5.2059 -1.099,7.8482 0.111,3.3378 0.7918,6.6784 1.7558,9.8684 1.668,5.5195 4.4286,11.5664 9.2688,15.0079 4.0275,2.8613 8.4193,3.4837 13.1369,2.0578 4.7227,-1.4276 8.0188,-4.3512 9.7716,-8.9798 2.1112,-5.5473 1.0606,-12.1105 -0.607,-17.6279 z" />
    <path
       id="path44"
       style="fill:#ecbc22;fill-rule:evenodd"
       d="m 412.2436,638.2247 -8.0029,-48.2321 8.4334,-4.3893 9.7953,62.5017 -8.324,4.3327 -45.5766,-43.8771 8.7695,-4.5649 z" />
    <path
       id="path46"
       style="fill:#ecbc22;fill-rule:evenodd"
       d="m 463.6536,621.014 c -2.9102,2.1852 -6.1306,3.8519 -9.6598,4.7694 -3.3979,0.9021 -6.8335,0.9909 -10.2828,0.3145 -3.7162,-0.7392 -7.1337,-2.3807 -10.2263,-4.5399 -3.6931,-2.5611 -6.8388,-5.9027 -9.5281,-9.4848 -2.6231,-3.4935 -4.9494,-7.373 -6.3342,-11.5353 -1.1872,-3.58 -1.7409,-7.3054 -1.4774,-11.0752 0.2524,-3.5429 1.2337,-6.886 2.9788,-9.9777 1.8293,-3.2565 4.3766,-5.9481 7.3532,-8.1829 1.4786,-1.1099 3.0402,-2.1153 4.6856,-2.9672 1.4514,-0.7377 2.9465,-1.4076 4.4857,-1.963 1.3067,-0.4458 2.6392,-0.8191 3.9871,-1.1114 1.4177,-0.3131 2.8469,-0.5659 4.2868,-0.7544 l 0.4837,-0.0631 6.4111,8.5387 -1.4245,1.0698 -0.3296,-0.0368 c -1.119,-0.1251 -2.2484,-0.2028 -3.369,-0.2747 -1.4881,-0.084 -3.0027,0.0111 -4.4775,0.1993 -1.6436,0.2182 -3.257,0.6512 -4.8138,1.2134 -1.7943,0.6518 -3.4807,1.6728 -5.0028,2.8156 -1.8295,1.3736 -3.2936,3.0666 -4.3681,5.086 -1.1039,2.074 -1.6476,4.3258 -1.7565,6.6626 -0.0953,2.7049 0.5015,5.3911 1.4424,7.9167 1.1458,3.1261 2.8959,6.0404 4.8895,8.6958 2.0117,2.6795 4.3787,5.2874 7.1327,7.2188 2.1921,1.5239 4.5993,2.7604 7.2033,3.3961 2.2225,0.5414 4.4758,0.614 6.7118,0.1212 2.2034,-0.4857 4.2114,-1.4178 6.017,-2.7733 1.5725,-1.1807 3.0266,-2.5516 4.2034,-4.1331 1.0373,-1.3885 1.9546,-2.8876 2.6335,-4.489 0.5646,-1.2983 1.0463,-2.6502 1.369,-4.0361 0.2507,-1.0126 0.4814,-2.0587 0.6171,-3.0938 l 0.0459,-0.3487 1.4094,-1.0575 6.3618,8.4732 -0.243,0.4667 c -0.6048,1.1623 -1.2016,2.3285 -1.7934,3.4974 -0.669,1.3215 -1.4811,2.5931 -2.3269,3.8076 -0.9278,1.3333 -1.9222,2.6308 -2.9985,3.8542 -1.2542,1.3949 -2.7994,2.6569 -4.2966,3.7809 z" />
    <path
       id="path48"
       style="fill:#ecbc22;fill-rule:evenodd"
       d="m 481.509,593.5424 -31.08,-31.7612 -5.201,5.0947 -5.3306,-5.4423 17.0123,-16.6642 5.3305,5.4421 -5.2014,5.0953 31.0803,31.7612 5.2009,-5.0947 5.3309,5.4426 -17.0122,16.6642 -5.3309,-5.4424 z" />
    <g
       id="Layer1003">
      <path
         id="path50"
         style="fill:#ecbc22;fill-rule:evenodd"
         d="m 389.553,525.5588 v -30.6789 h -8.6728 v -5.7564 h 0.6963 c 2.1073,0 5.0342,-0.1833 6.8885,-1.2928 1.6351,-0.9858 2.1493,-2.9551 2.2852,-4.7414 l 0.049,-0.6434 h 6.3197 v 43.1129 h 8.4756 v 6.2721 h -24.7143 v -6.2721 z" />
      <path
         id="path52"
         style="fill:#ecbc22;fill-rule:evenodd"
         d="m 437.0876,511.8925 c -1.2206,0.7412 -2.5105,1.386 -3.8526,1.8523 -1.7055,0.5886 -3.4927,0.8387 -5.2932,0.8387 -1.6897,0 -3.3871,-0.1735 -5.0236,-0.6039 -1.6966,-0.4465 -3.2515,-1.3094 -4.6406,-2.3665 -1.8228,-1.3816 -3.1891,-3.1379 -4.1094,-5.2317 -1.0284,-2.3523 -1.3743,-4.9768 -1.3743,-7.5269 0,-2.3952 0.3732,-4.7645 1.2543,-6.9977 0.8005,-2.0395 1.9264,-3.8979 3.4297,-5.496 1.4376,-1.5325 3.1721,-2.6698 5.1097,-3.4782 1.9506,-0.8025 3.991,-1.237 6.0996,-1.237 2.1431,0 4.2632,0.3423 6.2517,1.1596 1.8668,0.7674 3.5016,1.8972 4.8802,3.3684 1.9021,2.0156 3.1539,4.5412 3.9938,7.1621 1.1072,3.4681 1.4036,7.3898 1.4036,11.0123 0,3.8529 -0.4232,7.6893 -1.3585,11.4299 -0.805,3.2111 -2.0582,6.3871 -4.0417,9.0614 -1.8401,2.4755 -4.1231,4.4908 -6.879,5.8863 -3.0356,1.5306 -6.5058,2.0373 -9.8748,2.0373 -0.9354,0 -1.8707,-0.0513 -2.8011,-0.1463 -0.9601,-0.098 -1.915,-0.2749 -2.8361,-0.566 l -0.4867,-0.1537 v -7.3358 h 1.1933 l 0.1571,0.0863 c 0.6719,0.3705 1.5958,0.6209 2.3387,0.7994 1.0802,0.2622 2.1894,0.3972 3.3008,0.3972 3.6573,0 6.9238,-1.0838 9.3645,-3.9049 2.3952,-2.7562 3.4189,-6.45 3.7946,-10.0466 z m 0.1722,-6.2938 c 0.0217,-0.307 0.0443,-0.6139 0.0635,-0.9214 0.0353,-0.5688 0.0423,-1.1413 0.0423,-1.7109 0,-2.5164 -0.1571,-5.3266 -0.8707,-7.7522 -0.4663,-1.5772 -1.1783,-3.2468 -2.3242,-4.4643 -0.7164,-0.7922 -1.5911,-1.5398 -2.5939,-1.9387 -0.932,-0.3707 -1.9216,-0.5317 -2.9225,-0.5317 -2.3108,0 -4.2687,0.7735 -5.7578,2.5771 -1.7501,2.105 -2.1858,5.0952 -2.1858,7.7458 0,1.5471 0.1457,3.271 0.7187,4.7222 0.4874,1.2337 1.2721,2.2565 2.3019,3.0919 0.7284,0.5908 1.5532,0.9916 2.4757,1.188 1.0287,0.2323 2.0961,0.3231 3.1493,0.3231 1.4289,0 2.8634,-0.2769 4.2269,-0.6936 1.2841,-0.3897 2.5398,-0.9167 3.6766,-1.6353 z" />
      <path
         id="path54"
         style="fill:#ecbc22;fill-rule:evenodd"
         d="m 459.9747,524.9449 h 22.4459 v 6.886 h -30.9204 v -7.7052 l 0.2159,-0.2059 c 2.0111,-1.9169 4.0149,-3.8417 6.0024,-5.7832 1.891,-1.8467 3.7267,-3.7506 5.4974,-5.7152 2.5147,-2.7651 5.5381,-6.2032 7.3506,-9.484 1.2194,-2.2175 1.9091,-4.596 1.9091,-7.131 0,-1.1025 -0.149,-2.2184 -0.5724,-3.2429 -0.3535,-0.8557 -0.8476,-1.6247 -1.5362,-2.2415 -0.6919,-0.6002 -1.4832,-1.0281 -2.3537,-1.3088 -0.9785,-0.3154 -2.0058,-0.4488 -3.032,-0.4488 -1.1092,0 -2.2097,0.1465 -3.2871,0.4184 -1.1106,0.2724 -2.2014,0.6223 -3.2626,1.0445 -0.8655,0.3485 -1.6981,0.7713 -2.4916,1.2619 -0.6716,0.4153 -1.3482,0.8395 -1.9944,1.2933 l -0.1803,0.1264 h -1.2673 v -7.9338 l 0.3827,-0.1931 c 1.7403,-0.8777 3.7927,-1.496 5.6723,-2.003 2.2501,-0.5941 4.5796,-0.9663 6.9108,-0.9663 4.0041,0 7.9594,0.9345 10.9471,3.7403 2.8822,2.6953 4.0142,6.2298 4.0142,10.1244 0,1.8083 -0.2014,3.6153 -0.6833,5.3615 -0.4418,1.5913 -1.061,3.1261 -1.886,4.5553 -0.8463,1.493 -1.8368,2.9042 -2.9159,4.2395 -1.144,1.4019 -2.3325,2.7652 -3.5704,4.0793 -2.1704,2.3604 -4.44,4.6306 -6.7625,6.8398 -1.5379,1.4699 -3.0791,2.9381 -4.6323,4.3921 z" />
      <path
         id="path56"
         style="fill:#ecbc22;fill-rule:evenodd"
         d="m 516.3766,526.4802 c -2.7671,4.4423 -6.9954,6.3484 -12.1371,6.3484 -5.2039,0 -9.4592,-1.9381 -12.1971,-6.477 -3.1955,-5.2972 -3.7952,-13.045 -3.7952,-19.0872 0,-6.035 0.5736,-14.0446 3.8448,-19.305 2.7688,-4.4203 6.9991,-6.3138 12.1475,-6.3138 5.2375,0 9.47,1.9813 12.1875,6.5344 3.1749,5.3197 3.7935,12.9731 3.7935,19.0295 0,6.0434 -0.5821,13.997 -3.8439,19.2707 z m -5.7256,-4.9389 c 0.7056,-1.8272 1.0621,-3.891 1.273,-5.83 0.2928,-2.8141 0.3797,-5.6737 0.3797,-8.5018 0,-2.8211 -0.0878,-5.6723 -0.3797,-8.4778 -0.2122,-1.9554 -0.5794,-4.0234 -1.3033,-5.8587 -0.5223,-1.3095 -1.2802,-2.551 -2.4253,-3.4069 -1.1362,-0.8577 -2.5593,-1.132 -3.9559,-1.132 -1.4098,0 -2.8201,0.2827 -3.9735,1.1367 -1.1744,0.8613 -1.9501,2.1359 -2.4835,3.4651 -0.7284,1.8713 -1.078,3.9941 -1.2708,5.9838 -0.2571,2.7693 -0.3476,5.564 -0.3476,8.3447 0,2.7615 0.049,5.574 0.3042,8.3263 0.1746,1.9905 0.5682,3.9855 1.2844,5.8565 0.5116,1.3557 1.2751,2.6027 2.43,3.5022 1.1557,0.8999 2.6206,1.1905 4.0568,1.1905 1.4055,0 2.8124,-0.2853 3.9623,-1.1365 1.1699,-0.8579 1.932,-2.1298 2.4492,-3.4621 z" />
    </g>
  </g>
</svg>
