<?xml version="1.0" encoding="UTF-8" standalone="no"?>
<svg
   xmlns:dc="http://purl.org/dc/elements/1.1/"
   xmlns:cc="http://creativecommons.org/ns#"
   xmlns:rdf="http://www.w3.org/1999/02/22-rdf-syntax-ns#"
   xmlns:svg="http://www.w3.org/2000/svg"
   xmlns="http://www.w3.org/2000/svg"
   xmlns:sodipodi="http://sodipodi.sourceforge.net/DTD/sodipodi-0.dtd"
   xmlns:inkscape="http://www.inkscape.org/namespaces/inkscape"
   width="1000"
   height="1000"
   viewBox="0 0 750 750.00005"
   version="1.1"
   id="svg50"
   sodipodi:docname="FK Jagodina.svg"
   inkscape:version="1.0.1 (3bc2e813f5, 2020-09-07)">
  <metadata
     id="metadata54">
    <rdf:RDF>
      <cc:Work
         rdf:about="">
        <dc:format>image/svg+xml</dc:format>
        <dc:type
           rdf:resource="http://purl.org/dc/dcmitype/StillImage" />
        <dc:title></dc:title>
      </cc:Work>
    </rdf:RDF>
  </metadata>
  <sodipodi:namedview
     pagecolor="#ffffff"
     bordercolor="#666666"
     borderopacity="1"
     objecttolerance="10"
     gridtolerance="10"
     guidetolerance="10"
     inkscape:pageopacity="0"
     inkscape:pageshadow="2"
     inkscape:window-width="1920"
     inkscape:window-height="1017"
     id="namedview52"
     showgrid="false"
     units="px"
     inkscape:zoom="0.845"
     inkscape:cx="500"
     inkscape:cy="500"
     inkscape:window-x="-8"
     inkscape:window-y="-8"
     inkscape:window-maximized="1"
     inkscape:current-layer="svg50" />
  <defs
     id="defs5">
    <clipPath
       id="clip1">
      <path
         d="M 0,0 H 229.60938 V 323.35938 H 0 Z m 0,0"
         id="path2" />
    </clipPath>
  </defs>
  <g
     id="g921">
    <g
       clip-path="url(#clip1)"
       clip-rule="nonzero"
       id="g9"
       transform="matrix(2.2034308,0,0,2.2034308,122.04013,18.750004)"
       style="fill:#073769;fill-opacity:1">
      <path
         style="fill:#073769;fill-opacity:1;fill-rule:nonzero;stroke:none"
         d="M 224.79688,-0.00390625 H 0 V 217.41406 c 0,23.00782 14.589844,40.70313 28.246094,49.59375 l 83.933596,54.64063 2.625,1.71094 2.625,-1.71094 83.93359,-54.64063 c 13.65235,-8.89062 28.24219,-26.58593 28.24219,-49.59375 V -0.00390625"
         id="path7" />
    </g>
    <path
       style="fill:#ffffff;fill-opacity:1;fill-rule:nonzero;stroke:none;stroke-width:2.20343"
       d="M 132.64414,29.354015 V 497.80684 c 0,46.45279 29.66025,82.31019 57.41831,100.38522 L 375.00432,718.5975 559.93758,598.19206 C 587.70425,580.11703 617.3645,544.25963 617.3645,497.80684 V 29.354015"
       id="path11" />
    <path
       style="fill:#073769;fill-opacity:1;fill-rule:nonzero;stroke:none;stroke-width:2.20343"
       d="m 608.13763,497.80684 c 0,42.76894 -27.49126,75.90647 -53.22662,92.65598 L 375.00432,707.58894 195.09763,590.46282 C 169.36225,573.71331 141.87101,540.57578 141.87101,497.80684 V 429.09596 L 416.74038,294.01532 v 197.06074 c 0,24.65089 -17.16265,41.86519 -41.73606,41.86519 -24.57343,0 -41.73608,-17.2143 -41.73608,-41.86519 V 402.07811 H 203.09368 v 54.05291 c 0,43.04437 18.07501,78.18737 52.28844,101.61603 29.97871,20.52805 71.34468,31.39028 119.6222,31.39028 48.2775,0 89.64348,-10.86223 119.62219,-31.39028 34.20482,-23.42866 52.28845,-58.57166 52.28845,-101.61603 V 230.03836 l 61.22267,-30.08199"
       id="path13" />
    <path
       style="fill:#073769;fill-opacity:1;fill-rule:nonzero;stroke:none;stroke-width:2.20343"
       d="M 141.87101,267.71186 V 38.572275 h 466.26662"
       id="path15" />
    <path
       style="fill:#073769;fill-opacity:1;fill-rule:nonzero;stroke:none;stroke-width:2.20343"
       d="m 155.30677,318.51127 7.54847,-3.70967 10.39744,21.15637 c 4.68229,9.52812 1.74725,15.09694 -5.60325,18.71196 -1.73865,0.85208 -4.16586,1.67837 -5.8959,1.91077 l -2.1604,-6.51561 c 1.21361,-0.17209 2.67683,-0.57669 4.16586,-1.30829 3.17604,-1.56651 4.45851,-3.97651 1.89358,-9.19243"
       id="path17" />
    <path
       style="fill:#073769;fill-opacity:1;fill-rule:nonzero;stroke:none;stroke-width:2.20343"
       d="m 194.83942,322.94396 -5.57744,-6.07664 c -1.5751,-1.69563 -3.39121,-3.89045 -4.86304,-5.62909 l -0.0947,0.0516 c 0.482,2.22924 1.22222,5.00076 1.62675,7.20419 l 1.50625,8.08212 z m -5.71515,9.82937 1.84193,9.7605 -7.84972,3.856 -6.21436,-38.49118 9.93265,-4.88025 26.81988,28.36917 -8.14236,3.99372 -6.79965,-7.31607"
       id="path19" />
    <path
       style="fill:#073769;fill-opacity:1;fill-rule:nonzero;stroke:none;stroke-width:2.20343"
       d="m 222.45116,285.51146 3.04693,6.21436 -12.66112,6.22297 13.39273,27.25884 -7.59151,3.72691 -16.44826,-33.46461"
       id="path21" />
    <path
       style="fill:#073769;fill-opacity:1;fill-rule:nonzero;stroke:none;stroke-width:2.20343"
       d="m 240.04418,297.76804 c 3.21907,6.55003 8.56411,9.65722 13.63373,7.16975 5.11264,-2.51328 5.6549,-8.82232 2.45303,-15.32072 -2.95225,-6.0164 -8.36615,-9.76052 -13.58208,-7.20418 -5.11265,2.51327 -5.69793,8.84814 -2.50468,15.35515 m 23.96231,-12.33405 c 5.39668,10.97412 2.00546,20.89817 -7.77226,25.70956 -9.93265,4.88025 -19.42634,0.2324 -24.10863,-9.30434 -4.9319,-10.02733 -2.21204,-20.67437 7.66897,-25.52881 10.27694,-5.05238 19.67595,-0.11194 24.21192,9.12359"
       id="path23" />
    <path
       style="fill:#073769;fill-opacity:1;fill-rule:nonzero;stroke:none;stroke-width:2.20343"
       d="m 277.08075,271.8605 c 1.90218,3.87324 3.2535,7.89276 3.89904,11.70573 0.43036,2.37558 0.58529,4.82862 0.47339,6.85989 l 11.12044,-5.46552 -10.38883,-21.15639 -7.29886,3.58919 z m 9.67444,-17.94591 13.51323,27.50847 3.42564,-1.43741 6.65333,14.4256 -5.75818,2.83174 -4.5704,-8.29728 -19.56406,9.61418 3.77854,8.68463 -5.75818,2.83173 -7.30747,-14.10711 2.68543,-1.56651 c 0.17215,-3.03831 0.0689,-6.0164 -0.482,-9.01167 -0.71439,-3.8388 -2.12597,-7.70342 -4.12283,-11.7832 l -4.38964,-8.93423"
       id="path25" />
    <path
       style="fill:#073769;fill-opacity:1;fill-rule:nonzero;stroke:none;stroke-width:2.20343"
       d="m 301.80049,246.52105 4.87165,9.93267 c 2.63379,5.36224 5.14707,10.72449 7.04926,15.33792 l 0.19795,-0.0947 c -0.18936,-4.77695 -0.1291,-10.29415 0.1033,-14.84734 l 0.73161,-16.69786 7.74644,-3.80436 16.44826,33.46461 -6.95458,3.41704 -4.85443,-9.88102 c -2.53911,-5.1643 -4.68229,-9.77773 -6.38651,-14.36534 l -0.14633,0.0687 c 0.41315,4.72532 0.44758,10.19948 0.19796,14.70103 l -0.87793,15.40678 -8.64158,4.24332 -16.43966,-33.4646"
       id="path27" />
    <path
       style="fill:#073769;fill-opacity:1;fill-rule:nonzero;stroke:none;stroke-width:2.20343"
       d="m 337.20171,229.11739 6.32625,12.85908 12.46315,-6.11967 -6.31765,-12.85909 7.53987,-3.70968 16.44826,33.46461 -7.54847,3.70967 -6.8771,-14.00384 -12.46316,6.12829 6.87711,13.99525 -7.60012,3.7355 -16.43965,-33.46461"
       id="path29" />
    <path
       style="fill:#073769;fill-opacity:1;fill-rule:nonzero;stroke:none;stroke-width:2.20343"
       d="m 390.04961,227.00864 -5.57743,-6.07664 c -1.56651,-1.69562 -3.3826,-3.88183 -4.85443,-5.62908 l -0.10334,0.0516 c 0.482,2.22925 1.23084,5.00075 1.63537,7.21279 l 1.50624,8.07351 z m -5.70653,9.82937 1.83332,9.76051 -7.84111,3.856 -6.22297,-38.49118 9.93264,-4.88025 26.82849,28.36917 -8.14236,4.00232 -6.80827,-7.32468"
       id="path31" />
    <path
       style="fill:#ff0000;fill-opacity:1;fill-rule:nonzero;stroke:none;stroke-width:2.20343"
       d="m 430.57209,243.87865 v 247.19741 c 0,30.78777 -21.99989,55.69687 -55.56777,55.69687 -33.5679,0 -55.56777,-24.9091 -55.56777,-55.69687 V 415.90979 H 216.91676 v 40.22123 c 0,81.64744 70.70775,119.16601 158.08756,119.16601 87.3798,0 158.07895,-37.51857 158.07895,-119.16601 V 243.87865"
       id="path33" />
    <path
       style="fill:#ff0000;fill-opacity:1;fill-rule:nonzero;stroke:none;stroke-width:2.20343"
       d="m 529.37357,181.57149 c 0,-29.35039 -23.79877,-53.14055 -53.14055,-53.14055 -29.35039,0 -53.14054,23.79016 -53.14054,53.14055 0,29.35039 23.79015,53.14055 53.14054,53.14055 29.34178,0 53.14055,-23.79016 53.14055,-53.14055"
       id="path35" />
    <path
       style="fill:#ffffff;fill-opacity:1;fill-rule:nonzero;stroke:none;stroke-width:2.20343"
       d="m 272.00253,81.556388 h 14.61494 v 29.367602 l 27.02646,-29.367602 h 18.33323 l -27.99906,29.367602 30.16807,41.42622 H 315.417 l -21.89659,-31.37307 -6.90294,6.90294 v 24.47013 h -14.61494"
       id="path37" />
    <path
       style="fill:#ffffff;fill-opacity:1;fill-rule:nonzero;stroke:none;stroke-width:2.20343"
       d="M 231.71246,134.01698 V 100.4663 c 5.71514,0.77464 18.20412,3.02972 18.20412,16.77534 0,13.75423 -12.48898,16.0007 -18.20412,16.77534 m -14.06409,0 c -5.71515,-0.77464 -18.19552,-3.02111 -18.19552,-16.77534 0,-13.74562 12.48037,-16.0007 18.19552,-16.77534 z m 13.96941,-44.791619 v -7.608722 h -13.87473 v 7.608722 c -12.58366,1.067287 -33.10311,7.393544 -33.10311,28.016279 0,20.63134 20.51945,26.9576 33.10311,28.01628 v 7.61733 h 13.87473 v -7.61733 c 12.58365,-1.05868 32.31985,-7.38494 32.31985,-28.01628 0,-20.622735 -19.7362,-26.948992 -32.31985,-28.016279"
       id="path39" />
    <path
       style="fill:#ffffff;fill-opacity:1;fill-rule:nonzero;stroke:none;stroke-width:2.20343"
       d="m 443.4656,174.66856 h -0.0776 l -4.51875,2.15178 -0.90374,-4.15725 6.266,-2.91783 h 4.58761 v 23.68689 h -5.35356"
       id="path41" />
    <path
       style="fill:#ffffff;fill-opacity:1;fill-rule:nonzero;stroke:none;stroke-width:2.20343"
       d="m 464.91463,173.3947 c -1.85914,0 -3.23629,1.66978 -3.20187,4.14864 0,2.0399 1.0931,3.78715 3.34818,3.78715 1.49765,0 2.55633,-0.73161 3.06416,-1.5665 0.18068,-0.31847 0.29263,-0.68857 0.29263,-1.38575 0,-2.51329 -0.94679,-4.98354 -3.46007,-4.98354 z m -6.55005,16.02651 c 0.68857,0.0689 1.30829,0.0689 2.40139,0 1.67839,-0.11189 3.39123,-0.58528 4.66508,-1.45461 1.52347,-1.05868 2.54772,-2.59075 2.98668,-4.37243 l -0.11193,-0.043 c -1.05007,1.09311 -2.59075,1.71282 -4.73394,1.71282 -4.01093,0 -7.39355,-2.80593 -7.39355,-7.39354 0,-4.62204 3.7097,-8.52108 8.91702,-8.52108 6.08526,0 8.96865,4.66507 8.96865,10.19947 0,4.91468 -1.56651,8.52969 -4.15726,10.88805 -2.25508,2.0485 -5.35365,3.17604 -9.0375,3.32236 -0.94679,0.0689 -1.89358,0.0344 -2.50468,0"
       id="path43" />
    <path
       style="fill:#ffffff;fill-opacity:1;fill-rule:nonzero;stroke:none;stroke-width:2.20343"
       d="m 483.8934,174.66856 h -0.0687 l -4.51875,2.15178 -0.91238,-4.15725 6.26601,-2.91783 h 4.58761 v 23.68689 h -5.35363"
       id="path45" />
    <path
       style="fill:#ffffff;fill-opacity:1;fill-rule:nonzero;stroke:none;stroke-width:2.20343"
       d="m 505.35102,173.3947 c -1.85914,0 -3.2449,1.66978 -3.21046,4.14864 0,2.0399 1.0931,3.78715 3.35677,3.78715 1.48906,0 2.54772,-0.73161 3.05554,-1.5665 0.18068,-0.31847 0.29266,-0.68857 0.29266,-1.38575 0,-2.51329 -0.94679,-4.98354 -3.46009,-4.98354 z m -6.55864,16.02651 c 0.68857,0.0689 1.30829,0.0689 2.40139,0 1.67839,-0.11189 3.39121,-0.58528 4.66508,-1.45461 1.53207,-1.05868 2.54771,-2.59075 2.98668,-4.37243 l -0.11193,-0.043 c -1.05007,1.09311 -2.58214,1.71282 -4.73392,1.71282 -4.00233,0 -7.39354,-2.80593 -7.39354,-7.39354 0,-4.62204 3.71828,-8.52108 8.92561,-8.52108 6.08526,0 8.96005,4.66507 8.96005,10.19947 0,4.91468 -1.56651,8.52969 -4.14866,10.88805 -2.26367,2.0485 -5.35363,3.17604 -9.03751,3.32236 -0.94679,0.0689 -1.89356,0.0344 -2.51327,0"
       id="path47" />
  </g>
</svg>
