<svg height="1000" viewBox="0 0 1000 1000" width="1000" xmlns="http://www.w3.org/2000/svg"><g transform="matrix(1.4871145 0 0 1.4871145 3.682971 1.177927)"><path d="m 482.447 582.867 v 0 c 54.891 -26.565 64.164 -48.766 64.164 -101.983 v 0 V 16.019 H 120.879 v 464.865 v 0 c 0 53.217 9.273 75.418 64.162 101.983 v 0 l 148.702 71.973 z" fill="#fff"/><path d="m 132.452 324.658 v -81.645 h 22.253 v 59.875 h 28.736 v 21.77 z" fill="#da2128"/><path d="M 532.072 243.013 L 501.901 282.834 L 534.701 324.658 L 506.928 324.658 L 480.315 288.016 L 480.315 324.658 L 458.29 324.658 L 458.29 243.013 L 480.315 243.013 L 480.315 280.096 L 506.147 243.013 Z"/><path d="m 359.802 298.276 c 3.313 3.749 6.585 6.567 9.803 8.415 c 3.217 1.864 6.415 2.797 9.611 2.797 c 2.973 0 5.426 -.798 7.33 -2.399 c 1.924 -1.598 2.874 -3.617 2.874 -6.074 c 0 -2.72 -.816 -4.813 -2.472 -6.28 c -1.66 -1.467 -5.409 -2.988 -11.233 -4.549 c -7.995 -2.153 -13.65 -4.969 -16.961 -8.414 c -3.311 -3.465 -4.968 -8.204 -4.968 -14.221 c 0 -7.804 2.61 -14.179 7.846 -19.111 c 5.213 -4.929 11.991 -7.386 20.31 -7.386 c 4.511 0 8.773 .609 12.81 1.811 c 4.038 1.218 7.843 3.044 11.462 5.499 v 0 l -6.971 16.008 v 0 c -2.531 -2.149 -5.118 -3.785 -7.783 -4.893 c -2.667 -1.085 -5.291 -1.635 -7.882 -1.635 c -2.684 0 -4.853 .647 -6.528 1.923 c -1.677 1.275 -2.513 2.93 -2.513 4.929 c 0 2.058 .742 3.695 2.208 4.913 c 1.465 1.238 4.302 2.398 8.489 3.52 c .269 .075 .611 .175 1.01 .285 c 9.08 2.44 15.038 5.142 17.893 8.071 c 1.943 2.018 3.409 4.419 4.417 7.234 c 1.008 2.799 1.505 5.921 1.505 9.329 c 0 8.662 -2.838 15.628 -8.529 20.882 c -5.693 5.274 -13.268 7.9 -22.749 7.9 c -5.69 0 -10.868 -.97 -15.532 -2.894 c -4.664 -1.944 -9.159 -4.969 -13.48 -9.099 v 0 z"/><path d="m 223.375 324.658 l 28.172 -81.645 h 27.887 l 28.211 81.645 h -22.139 l -4.131 -14.62 h -31.619 l -4.246 14.62 z m 31.181 -30.515 h 22.139 l -11.079 -35.929 z"/><path d="m 231.616 371.382 l 6.626 -31.647 h 6.498 l -5.36 25.705 h 10.584 l -1.241 5.945 z m 57.314 .003 l 6.627 -31.65 h 6.496 l -6.601 31.65 z m 77.551 0 h -6.072 l -8.548 -21.267 l -4.442 21.267 h -6.066 l 6.604 -31.65 h 6.086 l 8.572 21.179 l 4.429 -21.179 h 6.042 z m 42.334 0 l 1.116 -5.945 l 16.771 -19.8 H 414.1 l 1.251 -5.905 h 20.525 l -1.182 5.905 l -17.112 19.8 h 12.98 l -1.258 5.945 z"/><path d="M 305.017 627.631 L 247.56 599.826 V 382.992 h 57.457 z M 190.101 572.017 c -49.803 -24.108 -57.457 -41.946 -57.457 -91.291 v 0 v -97.734 h 57.457 z M 362.474 382.992 h 57.457 v 216.833 l -57.457 27.805 z m 114.914 0 h 57.457 v 97.734 v 0 c 0 49.344 -7.652 67.182 -57.457 91.291 v 0 z"/><path d="m 333.282 26.609 c -48.979 0 -88.924 39.947 -88.924 88.925 c 0 48.979 39.945 88.924 88.924 88.924 c 48.978 0 88.922 -39.945 88.922 -88.924 c 0 -48.979 -39.944 -88.925 -88.922 -88.925 z"/><path d="m 252.622 115.533 c 0 -7.215 .963 -14.212 2.752 -20.875 l -6.384 -1.712 c -1.94 7.213 -2.979 14.78 -2.979 22.587 c 0 7.807 1.039 15.378 2.979 22.586 l 6.384 -1.712 c -1.789 -6.662 -2.752 -13.658 -2.752 -20.874 z" fill="#fff"/><path d="m 390.27 58.547 l 4.674 -4.675 C 384.27 43.198 370.851 35.271 355.87 31.24 l -1.712 6.389 c 13.848 3.723 26.247 11.049 36.112 20.918 z" fill="#fff"/><path d="m 312.408 37.629 l -1.712 -6.389 c -14.985 4.03 -28.4 11.958 -39.075 22.631 l 4.671 4.675 c 9.864 -9.868 22.267 -17.194 36.116 -20.917 z" fill="#fff"/><path d="m 276.292 172.522 l -4.671 4.671 c 10.674 10.674 24.09 18.601 39.075 22.631 l 1.712 -6.384 c -13.849 -3.724 -26.252 -11.053 -36.116 -20.918 z" fill="#fff"/><path d="m 354.157 193.441 l 1.712 6.384 c 14.982 -4.031 28.4 -11.957 39.071 -22.631 l -4.671 -4.671 c -9.864 9.864 -22.263 17.193 -36.112 20.918 z" fill="#fff"/><path d="m 413.941 115.533 c 0 7.216 -.96 14.211 -2.754 20.874 l 6.389 1.712 c 1.938 -7.208 2.975 -14.779 2.975 -22.586 c 0 -7.808 -1.038 -15.375 -2.975 -22.587 l -6.389 1.712 c 1.793 6.663 2.754 13.66 2.754 20.875 z" fill="#fff"/><path d="m 333.282 167.404 c -28.57 0 -51.872 -23.301 -51.872 -51.871 h -27.137 c 0 43.517 35.493 79.008 79.008 79.008 c 43.514 0 79.005 -35.491 79.005 -79.008 h -27.132 c .001 28.571 -23.302 51.871 -51.872 51.871 z" fill="#fff"/><path d="m 333.282 63.661 c -28.57 0 -51.872 23.303 -51.872 51.873 H 385.154 C 385.155 86.963 361.852 63.661 333.282 63.661 Z" fill="#fff"/><path d="m 294.56 165.631 c -7.894 -18.448 -22.795 -51.029 -29.759 -64.532 c 11.387 -8.153 49.56 -20.562 79.659 -20.264 c 8.767 .088 15.923 .457 19.136 2.414 c -.107 2.736 -.036 5.865 .18 9.273 c 8.526 .139 17.627 -1.935 26.608 -4.903 c -4.068 7.099 -7.03 13.251 -12.554 22.703 c 7.63 3.544 19.742 6.341 32.957 8.532 c -4.797 4.439 -11.934 10.698 -20.518 15.625 c -4.12 2.366 -27.559 14.522 -32.664 8.607 c -2.122 -2.593 -4.259 -6.682 -5.463 -10.912 c -5.314 1.727 -9.842 5.186 -14.597 8.696 c -8.018 5.911 -18.726 13.526 -42.985 24.761 z"/><path d="m 285.05 94.391 c 5.509 11.435 12.905 27.367 19.124 41.128 c -5.38 2.518 -11.135 4.727 -17.505 6.193 c -6.731 -14.634 -14.077 -30.243 -18.793 -39.806 c 4.089 -2.348 10.081 -4.965 17.174 -7.515 z" fill="#da2128"/><path d="m 367.432 129.837 c -.421 -2.058 -.826 -4.133 -1.212 -6.21 c -18.177 -4.688 -30.321 7.353 -44.483 15.168 c -9.067 5.004 -18.566 10.605 -30.034 13.934 c 1.431 3.155 2.787 6.163 4.024 8.933 c 24.017 -11.193 32.966 -17.226 41.061 -23.017 c 7.341 -5.256 13.084 -9.773 22.373 -9.829 c 1.938 -.008 4.897 .235 8.271 1.021 z m -4.645 -29.224 c -.321 -3.064 -.555 -5.981 -.688 -8.678 c -20.817 -7.131 -41.607 1.943 -55.714 5.905 c -.319 -.683 -.636 -1.356 -.95 -2.018 c 5.425 -1.855 9.914 -3.075 15.838 -4.854 c -6.134 .591 -10.972 2.281 -16.341 3.847 c -.231 -.497 -.712 -1.443 -.941 -1.927 c 6.134 -2.011 10.259 -2.926 15.737 -4.387 c -6.415 .526 -10.871 1.904 -16.208 3.349 c -.212 -.445 -.646 -1.284 -.853 -1.715 c 5.064 -1.699 10.097 -2.584 15.077 -3.735 c -5.307 .295 -9.026 .97 -13.264 2.02 c -2.632 .686 -4.899 1.293 -7.415 2.04 c -4.23 1.257 -8.272 2.584 -12.015 3.931 c 5.509 11.427 12.924 27.406 19.124 41.128 c 5.905 -2.759 11.356 -5.889 16.657 -8.816 c 13.246 -7.309 26.996 -14.509 44.03 -10.847 c -.468 -2.848 -.885 -5.671 -1.255 -8.42 c -17.768 -3.55 -35.402 4.406 -48.657 8.891 c -.193 -.415 -.464 -1.051 -.653 -1.466 c 5.768 -2.209 9.903 -3.61 15.681 -5.795 c -6.567 1.18 -10.436 2.744 -16.123 4.817 c -.226 -.489 -.561 -1.215 -.787 -1.704 c 5.366 -2.055 9.479 -3.521 15.176 -5.504 c -6.151 .954 -10.406 2.81 -15.59 4.6 c -.167 -.37 -.542 -1.164 -.712 -1.532 c 5.121 -1.869 8.755 -3.028 14.644 -4.897 c -5.995 .731 -10.672 2.544 -15.088 3.965 c -.229 -.496 -.548 -1.179 -.777 -1.668 c 17.085 -5.113 33.88 -11.937 52.067 -6.53 z m -20.63 23.833 c -4.922 2.767 -8.888 5.118 -14.014 8.186 c -3.911 2.342 -8.614 5.295 -13.222 7.091 c 3.65 -2.88 8.315 -5.352 12.225 -7.695 c 5.128 -3.068 8.972 -5.66 15.011 -7.582 z m -2.025 -1.946 c -4.974 2.724 -9.501 5.179 -14.683 8.156 c -3.948 2.271 -7.956 4.753 -12.473 6.461 c 3.701 -2.815 7.737 -4.916 11.69 -7.189 c 5.181 -2.976 9.394 -5.69 15.466 -7.428 z m -1.892 -1.568 c -5.022 2.754 -9.75 4.851 -14.979 7.738 c -3.991 2.202 -7.12 4.124 -12.007 5.934 c 3.871 -2.629 7.154 -4.344 11.145 -6.538 c 5.252 -2.887 9.878 -5.504 15.841 -7.134 z" fill="#fff"/><path d="m 357.106 139.89 c -1.391 -2.374 -2.635 -5.246 -3.438 -8.156 c 1.787 -.45 3.671 -.702 5.682 -.692 c 1.473 .009 5.171 .245 8.183 .891 c -3.339 1.342 -9.321 4.442 -10.427 7.957 z m 13.102 -7.497 c 4.171 -1.189 9.694 -3.236 13.961 -5.286 c 5.458 -2.614 10.729 -5.714 14.025 -8.556 c 3.042 .636 5.772 1.267 8.268 1.659 c -4.139 3.645 -9.43 7.937 -16.342 11.896 c -2.09 1.196 -26.999 13.947 -31.293 10.286 c -.478 -.555 -.585 -1.199 -.069 -2.254 c 1.807 -3.688 8.709 -6.817 11.45 -7.745 z m -2.084 -7.777 c -.509 -2.77 -.995 -5.552 -1.447 -8.316 c 4.108 -.97 7.974 -2.031 11.454 -3.23 c 3.153 1.231 6.83 2.127 10.136 3.058 c -5.605 3.886 -13.637 7.377 -20.143 8.488 z m -2.639 -16.115 c -.422 -3.012 -.791 -5.955 -1.092 -8.784 c 9.809 -1.355 17.632 -3.499 18.814 -4.047 c -1.575 2.861 -3.645 6.634 -5.507 9.715 c -3.553 1.168 -7.779 2.244 -12.215 3.116 z" fill="#fff"/><path d="m 393.859 79.104 l 1.931 3.092 l 2.642 -1.653 l -5.782 -9.248 l -2.638 1.648 l 1.94 3.097 l -10.366 6.477 l 1.906 3.056 z" fill="#fff"/><path d="m 353.964 60.797 l 3.355 1.29 l 5.495 -14.315 l -3.355 -1.287 z" fill="#fff"/><path d="m 309.795 61.887 l 8.744 -2.842 l -.964 -2.959 l -5.324 1.728 l -1.032 -3.178 l 5.183 -1.633 l -.963 -2.964 l -5.184 1.637 l -.826 -2.542 l 5.327 -1.734 l -.957 -2.94 l -8.744 2.842 z" fill="#fff"/><path d="m 279.441 87.24 c .883 .072 1.738 -.136 2.544 -.627 c .93 -.567 1.842 -1.411 2.446 -2.473 c .665 -1.162 .967 -2.571 .795 -3.778 c -.183 -1.31 -.896 -2.375 -2.116 -3.169 c -.82 -.532 -1.734 -.741 -2.717 -.62 c -.668 .081 -1.396 .313 -2.173 .699 c -.76 .378 -1.405 .859 -2.121 1.293 c -.45 .278 -.854 .467 -1.21 .575 c -.893 .265 -1.757 -.072 -1.869 -1.08 c -.056 -.491 .118 -1.015 .421 -1.454 c .343 -.497 .856 -.886 1.398 -.989 c .321 -.062 .684 -.082 .96 -.052 v 0 l -.564 -2.967 v 0 c -.935 .017 -1.696 .226 -2.46 .691 c -.647 .391 -1.342 1.015 -1.85 1.795 c -.868 1.337 -1.13 2.644 -.992 3.937 c .141 1.306 .757 2.325 1.839 3.025 c .788 .513 1.622 .737 2.485 .663 c .578 -.046 1.274 -.255 2.074 -.622 c 1.12 -.513 2.117 -1.274 3.233 -1.756 c .781 -.34 1.361 -.39 1.733 -.144 c .256 .163 .445 .355 .572 .583 c .359 .645 .167 1.451 -.189 2.052 c -.324 .551 -.82 1.019 -1.343 1.255 c -.503 .229 -1.306 .301 -1.855 .196 v 0 l .781 2.822 l .035 .136 z" fill="#fff"/><path d="m 271.177 156.78 l 12.948 -8.092 l -2.938 -4.778 l -3.226 1.858 l 1.237 1.967 l -9.874 6.085 z"/><path d="m 312.813 176.263 c -.221 .61 -.565 1.029 -1.051 1.282 c -.481 .247 -.983 .269 -1.536 .07 c -.623 -.229 -1.047 -.584 -1.26 -1.058 c -.213 -.479 -.203 -1.045 .029 -1.686 c .219 -.602 .566 -1.011 1.056 -1.258 c .484 -.237 1.003 -.254 1.58 -.041 c .598 .216 .993 .554 1.206 1.035 c .212 .481 .201 1.035 -.024 1.656 z m -3.271 3.991 l -5.598 3.783 l 3.858 1.414 l 3.523 -2.587 v 0 c 1.231 -.906 2.241 -1.803 3.002 -2.671 c .774 -.883 1.329 -1.774 1.651 -2.648 c .544 -1.504 .531 -2.895 -.044 -4.137 c -.555 -1.212 -1.663 -2.129 -2.942 -2.647 c -1.451 -.586 -3.126 -.654 -4.491 -.054 c -1.339 .591 -2.362 1.837 -2.839 3.25 c -.396 1.177 -.418 2.464 .059 3.594 c .354 .824 .909 1.474 1.656 1.943 c .604 .378 1.389 .68 2.165 .76 z"/><path d="m 361.918 176.109 c -.892 -2.329 -2.064 -3.988 -3.486 -4.926 c -1.446 -.955 -3.041 -1.109 -4.738 -.46 c -1.683 .648 -2.757 1.836 -3.199 3.535 c -.431 1.666 -.202 3.675 .679 5.975 c .896 2.331 2.071 3.991 3.498 4.931 c 1.451 .961 3.047 1.114 4.743 .464 c 1.683 -.643 2.758 -1.832 3.191 -3.531 c .429 -1.665 .198 -3.682 -.688 -5.988 z m -7.401 2.859 c -.564 -1.474 -.814 -2.681 -.734 -3.59 c .072 -.856 .421 -1.395 1.067 -1.643 c .64 -.245 1.251 -.085 1.869 .494 c .654 .612 1.273 1.671 1.839 3.148 c .572 1.492 .827 2.707 .751 3.606 c -.064 .85 -.418 1.382 -1.072 1.632 c -.636 .242 -1.247 .076 -1.875 -.513 c -.662 -.623 -1.287 -1.678 -1.845 -3.134 z"/><path d="m 385.684 148.345 c .268 -.431 .58 -.689 .96 -.79 c .373 -.098 .748 -.022 1.154 .226 c .394 .251 .622 .556 .691 .931 c .069 .38 -.035 .794 -.314 1.239 c -.271 .438 -.588 .696 -.966 .796 c -.374 .1 -.749 .026 -1.151 -.225 c -.383 -.239 -.601 -.542 -.672 -.934 c -.071 -.403 .024 -.808 .298 -1.243 z m 8.521 5.351 c -.346 .553 -.754 .886 -1.25 1.013 c -.484 .12 -.986 .021 -1.499 -.298 c -.51 -.321 -.824 -.732 -.928 -1.228 c -.108 -.506 .006 -1.018 .349 -1.568 c .346 -.559 .751 -.884 1.239 -1.003 c .476 -.115 .986 -.006 1.512 .324 c .522 .327 .831 .721 .934 1.207 c .103 .495 -.011 1.001 -.357 1.553 z m -3.037 -5.634 c .039 -.571 -.04 -1.103 -.242 -1.59 c -.271 -.654 -.746 -1.196 -1.409 -1.608 c -1.107 -.693 -2.254 -.863 -3.4 -.503 c -1.133 .352 -2.114 1.179 -2.91 2.46 c -.791 1.261 -1.105 2.499 -.938 3.677 c .173 1.196 .794 2.137 1.848 2.797 c .712 .443 1.414 .652 2.092 .62 c .516 -.02 1.051 -.182 1.593 -.49 c -.101 .718 -.005 1.415 .274 2.074 c .351 .826 .967 1.523 1.834 2.061 c 1.185 .744 2.413 .908 3.65 .496 c 1.216 -.412 2.287 -1.345 3.182 -2.775 c .904 -1.452 1.277 -2.823 1.101 -4.081 c -.184 -1.274 -.893 -2.306 -2.113 -3.066 c -.846 -.529 -1.725 -.768 -2.62 -.718 c -.702 .038 -1.351 .254 -1.942 .646 z"/></g></svg>