<svg height="1000" viewBox="0 0 1000 1000" width="1000" xmlns="http://www.w3.org/2000/svg"><g transform="matrix(1.6784482 0 0 1.6784482 -3.538484 .007905)"><path d="m 508.814 162.679 c 1.747 -33.66 1.657 -68.825 -.293 -105.389 l -.105 -1.964 h -1.632 C 495.192 50.46 406.049 14.89 278.007 14.89 C 149.965 14.89 60.821 50.46 49.229 55.326 h -1.631 l -.104 1.964 c -5.377 100.755 3.322 190.946 25.853 268.066 c 1.098 3.758 2.23 7.481 3.394 11.177 c -9.365 9.265 -19.508 25.16 -22.171 51.535 c -5.633 55.702 -4.588 80.702 -4.54 81.739 l .22 4.853 l 105.092 12.42 c 30.568 37.639 61.67 60.931 82.57 73.912 c 23.205 14.413 38.811 19.486 39.464 19.695 l .632 .202 l .632 -.202 c .653 -.209 16.259 -5.282 39.464 -19.695 c 21.355 -13.264 53.361 -37.282 84.566 -76.381 c 30.393 -38.081 54.665 -83.462 72.35 -135.148 l 8.795 -2.592 c 1.325 -.347 16.031 -4.352 31.266 -15.402 c 20.889 -15.143 32.661 -36.346 34.053 -61.302 l 4.617 -82.75 l .302 -5.464 z" fill="#fff"/><path d="m 55.357 473.154 l 74.162 -21.858 c 7.47 11.646 15.408 22.768 23.826 33.315 c .044 .056 .089 .11 .134 .166 z"/><path d="m 550.94 182.915 l -2.119 .656 l -42.442 13.128 c .964 -10.462 1.733 -21.088 2.319 -31.865 z"/><path d="m 49.563 57.4 h .085 c 5.147 -2.182 95.88 -40.437 228.359 -40.437 c 132.478 0 223.211 38.255 228.358 40.437 h .085 c 2.743 51.402 1.736 97.902 -2.181 139.951 l -24.674 7.633 c 3.592 -34.169 5.226 -71.565 4.378 -112.486 l -.025 .037 C 478.729 90.351 395.562 57.068 278.007 57.068 C 160.451 57.068 77.284 90.351 72.065 92.535 L 72.04 92.498 c -1.949 94.132 9.208 169.635 27.221 230.017 c -4.17 1.366 -11.173 4.327 -18.475 10.355 c -.775 .641 -1.567 1.333 -2.367 2.067 C 56.191 263.841 43.393 173.019 49.563 57.4 Z"/><path d="m 278.007 578.712 c 0 0 -80.644 -25.813 -146.426 -128.024 l 23.286 -6.864 c 54.824 82.182 117.566 106.07 123.14 108.066 c 7.163 -2.565 108.758 -41.29 166.605 -193.466 l 27.982 -8.248 C 408.09 537.091 278.007 578.712 278.007 578.712 Z"/><path d="m 156.941 443.213 c 4.166 6.199 8.476 12.248 12.953 18.12 c 11.848 15.538 23.791 28.536 35.214 39.369 l -17.796 -66.44 z"/><path d="m 208.447 428.032 l 26.706 97.576 c 20.679 14.817 36.564 21.644 42.025 23.758 L 241.31 418.346 Z"/><path d="m 265.18 411.311 l 34.94 127.65 c 8.423 -4.812 18.671 -11.423 29.974 -20.278 L 298.045 401.624 Z"/><path d="m 319.96 395.164 l 29.313 107.076 c 8.933 -8.348 18.207 -18.023 27.521 -29.205 l -23.969 -87.557 z"/><path d="m 373.649 379.341 l 19.3 70.496 l 1.959 -.537 c 8.313 -11.861 16.031 -24.346 23.162 -37.436 l -11.553 -42.211 z"/><path d="m 442.371 359.086 l -16.186 4.77 l 5.603 20.466 c 3.73 -8.206 7.265 -16.611 10.583 -25.236 z"/><path d="m 549.945 187.207 l -4.609 82.746 c -3.244 58.158 -62.54 73.249 -62.54 73.249 L 53.832 469.636 c 0 0 -1.146 -25.119 4.523 -81.184 c 5.666 -56.064 45.465 -63.239 45.465 -63.239 L 549.945 187.207"/><path d="m 352.927 94.848 c -13.827 2.013 -29.064 4.43 -42.719 9.185 c -16.848 5.871 -27.784 14.149 -33.426 25.311 l -.474 .936 l -1.005 .295 c -10.082 2.958 -20.608 5.477 -30.784 7.915 c -19.251 4.61 -39.129 9.372 -57.529 17.386 c .39 .73 .79 1.489 1.204 2.265 c 5.476 10.324 12.972 24.462 21.815 26.308 l 1.499 .311 l .357 1.489 c 1.317 5.457 5.722 10.549 10.663 12.807 c -1.36 -5.273 -2.237 -11.368 4.33 -15.756 l .716 -.481 l .859 .084 c 2.503 .238 4.574 1.177 6.579 2.08 c .899 .407 1.767 .802 2.633 1.104 c 1.24 -2.22 2.631 -4.476 4.784 -6.624 l 1.067 -1.068 l 1.427 .492 c 1.148 .395 2.293 .816 3.4 1.226 c 1.84 .683 3.603 1.334 5.395 1.876 c 3.796 -5.402 9.315 -8.348 15.716 -8.348 c 11.695 0 24.097 9.899 27.079 21.616 l .469 1.836 l -1.669 .893 c -4.825 2.58 -9.378 3.781 -14.314 3.781 c -3.571 0 -6.843 -.636 -10.007 -1.25 c -1.868 -.362 -3.652 -.706 -5.471 -.927 c -.2 .405 -.369 .857 -.556 1.362 c -.667 1.783 -1.58 4.226 -4.793 5.969 l -.745 .399 l -.833 -.146 c -2.039 -.363 -3.674 -1.421 -5.112 -2.357 c -1.261 -.821 -2.37 -1.54 -3.523 -1.683 c -.926 .64 -1.312 1.381 -1.852 2.424 c -.889 1.706 -1.996 3.832 -5.477 5.298 l -.86 .363 l -.877 -.311 c -3.943 -1.382 -7.267 -4.679 -9.394 -9.169 c -1.462 3.278 -1.643 6.932 -1.83 10.742 c -.043 .907 -.088 1.849 -.151 2.783 l -.076 1.079 l -.85 .661 c -3.61 2.82 -5.427 5.318 -5.119 7.03 c .686 3.794 10.85 7.008 18.269 9.356 c 3.908 1.235 7.531 2.381 10.485 3.656 c -.26 -1.494 -.288 -2.997 .143 -4.497 l .579 -2.02 l 2.081 .293 c 2.538 .356 4.753 1.256 6.897 2.127 c 1.9 .776 3.719 1.516 5.626 1.802 c -.214 -2.074 -.003 -4.354 1.643 -6.407 l .718 -.896 l 1.145 -.009 c 1.421 -.013 3.002 -.039 4.721 -.063 c 3.255 -.052 6.943 -.111 10.949 -.111 c 20.809 0 49.83 1.505 61.626 14.52 l .124 .132 l .099 .151 c .659 .989 1.342 1.917 2.034 2.817 l 30.858 -9.545 c -5.629 -27.556 -36.707 -38.432 -60.222 -44.259 l -23.233 -5.762 l 23.921 .999 c 15.202 .635 30.668 4.518 43.552 10.939 c 15.496 7.728 27.021 19.034 33.369 32.704 l 78.686 -24.34 c 2.58 -24.627 4.049 -50.325 4.448 -77.026 c -5.313 -5.356 -10.88 -9.685 -16.633 -12.914 l -7.811 -4.384 l 8.954 -.144 c 1.152 -.017 2.214 -.006 3.189 .003 c .611 .01 1.205 .02 1.729 .014 c -3.645 -2.136 -10.293 -5.422 -19.128 -8.841 c -13.803 -5.339 -26.261 -8.403 -34.172 -8.403 c -.314 0 -.62 .005 -.929 .014 l -1.419 .047 l -.568 -.955 c -.244 -.105 -.677 -.244 -.98 -.337 c 3.478 -5.105 6.844 -10.712 9.836 -16.347 c -.479 -.115 -.951 -.23 -1.435 -.346 c -7.851 -1.867 -15.751 -3.566 -23.686 -5.125 c -19.74 10.577 -40.603 20.78 -46.573 23.678 z m -29.529 28.201 c -8.594 7.132 -15.905 13.621 -18.364 20.806 l -1.336 3.909 l -2.752 -3.078 c -1.978 -2.208 -1.653 -4.239 -1.439 -5.47 c -.149 .023 -.309 .048 -.467 .075 c -.871 .142 -1.78 .289 -2.718 .289 c -1.559 0 -2.817 -.416 -3.84 -1.27 l -2.307 -1.92 l 2.366 -1.843 c .52 -.406 1.058 -.828 1.612 -1.263 c 7.379 -5.792 17.49 -13.731 27.512 -14.507 l 7.587 -.589 z"/><path d="m 118.963 101.801 c -2.037 -8.793 -7.17 -14.614 -13.711 -17.099 c -.631 -.252 -1.265 -.476 -1.901 -.681 c -15.799 4.715 -25.898 8.587 -29.266 9.931 c -.307 15.849 -.249 31.358 .169 46.528 l 19.87 -4.616 c 20.793 -4.818 28.151 -19.791 24.839 -34.063 z" fill="#00984a"/><path d="m 164.873 187.493 l -18.42 -79.389 c -.212 17.165 -9.346 32.756 -25.869 42.678 l 41.199 44.971 z" fill="#00984a"/><path d="m 243.392 133.787 c 4.83 -1.155 9.738 -2.333 14.634 -3.564 l -16.243 -70.04 c -.158 .009 -.317 .016 -.476 .025 l -30.581 82.041 c 10.863 -3.231 21.861 -5.873 32.666 -8.462 z" fill="#ed1c24"/><path d="m 92.994 160.174 l -17.776 4.123 c 1.385 25.637 3.856 50.241 7.398 73.805 l 64.445 -14.937 z" fill="#00984a"/><path d="m 83.112 241.335 c 4.408 28.419 10.386 55.31 17.936 80.633 c .87 -.243 1.5 -.386 1.834 -.455 l 86.848 -26.865 l -17.188 -74.062 z" fill="#00984a"/><path d="m 275.854 232.206 c -1.189 .022 -2.312 .039 -3.365 .052 c -.36 1.121 -.094 2.559 .327 4.45 l .592 2.663 l -2.713 .268 c -.498 .052 -1.005 .075 -1.503 .075 c -3.474 0 -6.329 -1.162 -9.091 -2.287 c -1.055 -.426 -2.081 -.847 -3.105 -1.18 c .216 1.23 .692 2.609 1.185 4.036 c .162 .464 .325 .932 .477 1.399 l 3.636 11.015 l -7.733 -8.646 c -1.915 -2.144 -8.486 -4.22 -14.277 -6.054 c -10.013 -3.165 -20.366 -6.441 -21.568 -13.107 c -.635 -3.512 1.344 -7.119 6.042 -11.008 c .028 -.549 .056 -1.099 .085 -1.639 c .061 -1.248 .127 -2.535 .241 -3.837 l -49.108 11.392 l 17.128 73.809 l 95.945 -29.678 l -7.381 -31.8 c -2.054 .019 -4.007 .049 -5.814 .077 z" fill="#ed1c24"/><path d="m 211.619 62.652 c -23.41 2.477 -46.617 6.252 -69.464 11.332 l 24.937 107.55 z" fill="#ed1c24"/><path d="m 142.438 56.784 c -2.251 -5.222 -3.383 -7.831 -5.685 -13.038 c -.683 -1.536 -1.662 -2.169 -2.915 -1.899 c -1.295 .276 -1.941 1.264 -1.935 2.94 c .048 5.692 .086 8.534 .183 14.219 c -2.823 -5.957 -4.251 -8.93 -7.141 -14.865 c -1.231 .28 -1.844 .421 -3.073 .708 c 3.365 6.808 5.028 10.211 8.305 17.047 c .308 .666 .712 1.131 1.216 1.396 c .499 .263 1.079 .321 1.736 .173 c 1.311 -.293 1.953 -1.17 1.922 -2.65 c -.087 -5.577 -.117 -8.365 -.158 -13.949 c 2.259 5.107 3.376 7.663 5.584 12.785 c .584 1.358 1.547 1.898 2.898 1.62 c 1.292 -.27 1.955 -1.143 1.987 -2.639 c .178 -7.577 .292 -11.356 .56 -18.943 c -1.234 .243 -1.853 .362 -3.086 .611 c -.195 6.596 -.275 9.894 -.398 16.484 z" fill="#fff"/><path d="m 169.813 41.235 c -.295 -1.826 -.977 -3.159 -2.058 -3.945 c -.71 -.513 -1.406 -.811 -2.046 -.896 c -.642 -.084 -1.711 .002 -3.205 .255 c -.906 .156 -1.357 .236 -2.264 .393 c -1.431 .25 -2.472 .532 -3.107 .844 c -.634 .316 -1.163 .808 -1.59 1.48 c -.426 .672 -.681 1.328 -.773 1.964 c -.091 .64 -.045 1.466 .138 2.467 c .649 3.528 .976 5.289 1.621 8.821 c .339 1.836 1.046 3.136 2.086 3.907 c .674 .501 1.338 .803 1.988 .876 c .653 .076 1.695 -.016 3.126 -.266 c .882 -.154 1.32 -.226 2.201 -.377 c 1.39 -.233 2.395 -.507 3.014 -.804 c .617 -.305 1.149 -.793 1.59 -1.453 c .441 -.664 .712 -1.309 .804 -1.947 c .093 -.632 .056 -1.458 -.107 -2.464 c -.566 -3.544 -.851 -5.309 -1.418 -8.855 z m -1.759 11.625 c -.329 .412 -1.044 .705 -2.138 .891 c -1.259 .212 -1.888 .323 -3.146 .54 c -1.114 .195 -1.892 .149 -2.331 -.133 c -.438 -.283 -.753 -.932 -.933 -1.935 c -.651 -3.645 -.98 -5.468 -1.631 -9.111 c -.177 -1.006 -.097 -1.715 .247 -2.14 c .339 -.425 1.056 -.738 2.159 -.928 c 1.284 -.226 1.935 -.333 3.222 -.553 c 1.101 -.188 1.88 -.119 2.346 .183 c .471 .304 .778 .944 .936 1.91 c .605 3.663 .909 5.49 1.513 9.156 c .165 1.004 .088 1.712 -.244 2.12 z" fill="#fff"/><path d="m 186.31 50.62 c -.911 .127 -1.567 .05 -1.949 -.221 c -.384 -.268 -.639 -.81 -.753 -1.633 c -.852 -6.031 -1.278 -9.042 -2.128 -15.074 c -1.216 .172 -1.824 .263 -3.037 .439 c .881 6.041 1.325 9.055 2.205 15.091 c .24 1.643 .885 2.836 1.935 3.575 c 1.052 .747 2.444 .992 4.182 .753 c 3.06 -.418 4.589 -.619 7.653 -1.003 c -.147 -1.177 -.222 -1.763 -.369 -2.943 c -3.1 .39 -4.644 .591 -7.739 1.016 z" fill="#fff"/><path d="m 214.466 38.633 c -4.285 .397 -6.422 .611 -10.7 1.079 c -.162 -1.481 -.247 -2.219 -.409 -3.699 c -.082 -.766 .118 -1.385 .599 -1.788 c .259 -.218 .583 -.366 .929 -.439 c .363 -.041 .543 -.063 .908 -.098 c 3.266 -.343 4.898 -.509 8.165 -.809 c -.108 -1.187 -.17 -1.772 -.277 -2.958 c -3.154 .296 -4.73 .453 -7.881 .784 c -1.247 .132 -2.149 .288 -2.709 .483 c -.565 .195 -1.076 .528 -1.539 .995 c -1.006 1.027 -1.399 2.53 -1.173 4.52 c .682 5.97 1.019 8.959 1.698 14.93 c 1.181 -.133 1.771 -.2 2.953 -.328 c -.378 -3.458 -.567 -5.18 -.943 -8.637 c 4.257 -.463 6.387 -.68 10.651 -1.078 c -.109 -1.179 -.165 -1.775 -.272 -2.957 z" fill="#fff"/><path d="m 234.158 38.285 c -.978 -.709 -2.112 -1.028 -3.409 -.94 c -1.464 .101 -2.197 .156 -3.662 .263 c -1.318 .099 -2.026 -.543 -2.135 -1.937 c -.063 -.813 -.09 -1.222 -.154 -2.036 c -.085 -1.108 .496 -1.715 1.744 -1.81 c 3.482 -.256 5.219 -.374 8.703 -.588 c -.074 -1.185 -.113 -1.776 -.185 -2.963 c -3.43 .211 -5.143 .328 -8.569 .583 c -.763 .057 -1.37 .152 -1.816 .299 c -.452 .146 -.887 .391 -1.29 .698 c -.657 .507 -1.124 1.076 -1.366 1.701 c -.244 .624 -.33 1.452 -.247 2.468 c .083 1.014 .128 1.516 .21 2.533 c .099 1.184 .653 2.129 1.672 2.833 c 1.018 .709 2.24 1.001 3.67 .897 c 1.249 -.096 1.87 -.142 3.118 -.224 c .674 -.047 1.224 .075 1.638 .359 c .417 .284 .642 .692 .676 1.217 c .068 1.029 .102 1.544 .169 2.569 c .031 .469 -.131 .876 -.494 1.221 c -.362 .346 -.814 .542 -1.368 .578 c -3.303 .227 -4.954 .354 -8.258 .622 c .098 1.186 .142 1.777 .238 2.961 c 3.413 -.277 5.126 -.406 8.54 -.641 c 1.326 -.089 2.393 -.581 3.215 -1.485 c .821 -.898 1.199 -2.003 1.12 -3.304 c -.08 -1.277 -.122 -1.915 -.199 -3.19 c -.063 -1.073 -.584 -1.971 -1.561 -2.684 z" fill="#fff"/><path d="m 259.225 38.928 c -.213 -.488 -.499 -.907 -.822 -1.116 c -.089 -.058 -.205 -.126 -.336 -.217 c -.127 -.089 -.364 -.195 -.366 -.216 c -.001 -.008 .821 -.676 1 -.917 c .176 -.237 .343 -.606 .492 -1.11 c .151 -.501 .221 -.965 .214 -1.377 c -.026 -.98 -.038 -1.475 -.064 -2.454 c -.01 -.472 -.137 -.975 -.373 -1.503 c -.24 -.531 -.562 -1.003 -.962 -1.423 c -.826 -.866 -1.916 -1.273 -3.267 -1.23 c -4.29 .137 -6.435 .222 -10.724 .427 c .39 8.151 .591 12.223 .981 20.376 c 4.012 -.192 6.02 -.27 10.034 -.4 c 1.364 -.045 2.475 -.587 3.34 -1.611 c .869 -1.027 1.285 -2.289 1.246 -3.804 c -.019 -.771 -.028 -1.16 -.048 -1.93 c -.015 -.512 -.131 -1.008 -.345 -1.495 z M 247.2 30.619 c 2.771 -.122 4.159 -.176 6.932 -.266 c .607 -.021 1.117 .147 1.538 .49 c .417 .343 .637 .787 .654 1.329 c .024 .779 .033 1.169 .057 1.945 c .02 .602 -.158 1.08 -.524 1.436 c -.368 .361 -.866 .545 -1.506 .567 c -2.76 .092 -4.139 .148 -6.896 .27 c -.104 -2.311 -.153 -3.465 -.255 -5.771 z m 8.814 13.487 c -.424 .446 -.905 .686 -1.462 .705 c -2.689 .088 -4.035 .143 -6.723 .258 c -.099 -2.285 -.149 -3.43 -.247 -5.717 c 2.734 -.115 4.098 -.17 6.834 -.257 c .579 -.022 1.112 .189 1.583 .573 c .361 .295 .565 .621 .575 .982 c .023 .771 .04 1.151 .063 1.925 c .016 .572 -.196 1.081 -.623 1.531 z" fill="#fff"/><path d="m 274.838 27.02 c -1.155 .001 -2.019 .06 -2.587 .175 c -.566 .117 -1.104 .349 -1.61 .693 c -1.301 .888 -1.936 2.322 -1.914 4.265 c .045 3.925 .063 5.892 .11 9.82 c .014 .999 .122 1.783 .319 2.355 c .198 .569 .546 1.122 1.057 1.645 c .51 .521 1.092 .9 1.736 1.12 c .645 .221 1.445 .329 2.394 .325 c 3.183 -.008 4.77 -.005 7.95 .022 c .012 -1.188 .024 -1.777 .036 -2.966 c -2.888 -.025 -4.331 -.028 -7.216 -.022 c -.645 -.001 -.97 0 -1.611 .003 c -.341 -.057 -.716 -.233 -1.059 -.537 c -.403 -.353 -.607 -.793 -.613 -1.27 c -.003 -.508 -.006 -.755 -.008 -1.267 c -.01 -1.087 -.014 -1.631 -.023 -2.72 c 4.254 -.03 6.381 -.028 10.632 .009 c .011 -1.188 .015 -1.785 .029 -2.974 c -4.271 -.038 -6.406 -.033 -10.676 -.008 c -.009 -1.39 -.017 -2.089 -.025 -3.482 c -.004 -.623 .175 -1.148 .531 -1.574 c .355 -.425 .801 -.637 1.326 -.64 c .514 -.005 .776 -.009 1.289 -.008 c 3.044 -.006 4.561 0 7.598 .024 c .017 -1.188 .02 -1.78 .036 -2.969 c -3.081 -.024 -4.621 -.029 -7.701 -.019 z" fill="#fff"/><path d="m 305.832 29.143 c -.907 -1.041 -2.047 -1.583 -3.375 -1.632 c -4.278 -.166 -6.417 -.228 -10.696 -.327 c -.184 8.164 -.268 12.236 -.461 20.399 c 1.189 .029 1.78 .039 2.966 .072 c .193 -6.975 .283 -10.452 .474 -17.423 c 2.832 .076 4.246 .115 7.086 .22 c 1.263 .049 1.867 .705 1.811 1.962 c -.03 .9 -.054 1.353 -.09 2.253 c -.021 .453 -.228 .828 -.629 1.136 c -.392 .306 -.851 .44 -1.373 .424 c -1.826 -.07 -2.738 -.099 -4.561 -.156 c -.694 -.021 -1.25 .155 -1.665 .522 c -.415 .368 -.626 .875 -.649 1.518 c -.009 .422 .108 .763 .357 1.035 c 2.906 3.491 4.337 5.245 7.173 8.768 c 1.576 .062 2.367 .096 3.944 .169 c -2.859 -3.609 -4.31 -5.404 -7.252 -8.976 c 1.407 .043 2.115 .068 3.521 .124 c 1.037 .04 1.97 -.325 2.809 -1.086 c .833 -.769 1.281 -1.664 1.327 -2.699 c .061 -1.411 .089 -2.114 .151 -3.527 c .029 -.658 -.019 -1.178 -.135 -1.558 c -.122 -.379 -.369 -.794 -.733 -1.218 z" fill="#fff"/><path d="m 326.852 44.292 c -.045 .664 -.292 1.152 -.714 1.478 c -.43 .325 -.98 .467 -1.648 .416 c -1.658 -.117 -2.485 -.173 -4.14 -.284 c -.32 -.021 -.478 -.032 -.802 -.054 c -.472 -.031 -.854 -.257 -1.137 -.67 c -.281 -.415 -.398 -.94 -.354 -1.584 c .254 -4.029 .371 -6.049 .626 -10.081 c .048 -.789 .263 -1.344 .633 -1.66 c .372 -.32 .966 -.451 1.786 -.396 c 3.345 .222 5.016 .339 8.356 .6 c .092 -1.186 .139 -1.77 .231 -2.958 c -3.245 -.253 -4.868 -.368 -8.121 -.586 c -3.739 -.249 -5.712 1.424 -5.918 4.986 c -.228 3.9 -.335 5.85 -.567 9.744 c -.061 1.058 .021 1.896 .255 2.514 c .23 .617 .717 1.215 1.378 1.81 c .831 .738 1.989 1.199 3.468 1.296 c 1.641 .113 2.458 .17 4.094 .288 c 1.006 .071 1.819 .006 2.436 -.202 c .617 -.209 1.221 -.621 1.798 -1.235 c .441 -.473 .758 -.967 .947 -1.484 c .199 -.514 .332 -1.182 .397 -2.012 c .203 -2.506 .308 -3.758 .506 -6.264 c -1.203 -.097 -1.807 -.147 -3.01 -.238 c -.198 2.63 -.295 3.945 -.5 6.576 z" fill="#fff"/><path d="m 344.234 30.569 c -.575 .058 -1.14 .227 -1.677 .517 c -1.392 .748 -2.18 2.102 -2.361 4.034 c -.373 3.912 -.564 5.872 -.932 9.782 c -.096 .997 -.07 1.783 .065 2.373 c .136 .591 .431 1.177 .878 1.75 c .456 .57 1 1.011 1.616 1.302 c .621 .288 1.409 .475 2.354 .571 c 3.169 .325 4.752 .507 7.911 .869 c .146 -1.18 .209 -1.767 .342 -2.948 c -2.869 -.332 -4.308 -.489 -7.186 -.787 c -.642 -.068 -.956 -.103 -1.594 -.168 c -.343 -.091 -.689 -.307 -1.004 -.643 c -.363 -.394 -.515 -.859 -.468 -1.33 c .054 -.507 .07 -.755 .124 -1.263 c .11 -1.08 .159 -1.626 .27 -2.707 c 4.237 .421 6.35 .646 10.582 1.135 c .136 -1.178 .204 -1.767 .344 -2.949 c -4.25 -.491 -6.382 -.716 -10.63 -1.141 c .135 -1.386 .203 -2.085 .343 -3.468 c .059 -.623 .296 -1.121 .693 -1.507 c .399 -.388 .87 -.56 1.398 -.504 c .511 .052 .766 .082 1.277 .136 c 3.026 .315 4.54 .479 7.568 .83 c .139 -1.182 .203 -1.766 .342 -2.947 c -3.067 -.355 -4.595 -.519 -7.662 -.84 c -1.154 -.12 -2.018 -.154 -2.593 -.097 z" fill="#fff"/><path d="m 377.481 36.072 c -.793 -1.129 -1.863 -1.788 -3.189 -1.98 c -4.245 -.617 -6.366 -.913 -10.616 -1.464 c -1.05 8.1 -1.574 12.137 -2.624 20.236 c 1.178 .153 1.771 .232 2.944 .393 c .929 -6.915 1.391 -10.369 2.323 -17.283 c 2.811 .377 4.222 .573 7.032 .978 c 1.257 .179 1.785 .901 1.602 2.144 c -.128 .896 -.199 1.337 -.334 2.229 c -.063 .45 -.31 .807 -.739 1.064 c -.427 .26 -.897 .344 -1.413 .272 c -1.815 -.261 -2.728 -.392 -4.539 -.64 c -.688 -.098 -1.254 .021 -1.709 .344 c -.452 .321 -.725 .8 -.809 1.439 c -.054 .414 .024 .779 .248 1.075 c 2.52 3.779 3.766 5.675 6.208 9.478 c 1.571 .231 2.359 .341 3.926 .583 c -2.469 -3.891 -3.727 -5.83 -6.282 -9.698 c 1.396 .194 2.103 .302 3.5 .504 c 1.03 .147 1.998 -.108 2.911 -.778 c .916 -.677 1.448 -1.526 1.603 -2.55 c .213 -1.395 .32 -2.09 .534 -3.484 c .101 -.652 .112 -1.177 .029 -1.568 c -.072 -.396 -.274 -.832 -.606 -1.294 z" fill="#fff"/><path d="m 410.576 40.611 c -.295 -.368 -.762 -.618 -1.416 -.749 c -.598 -.119 -1.099 -.059 -1.498 .181 c -.396 .24 -.834 .725 -1.301 1.463 c -4.172 6.717 -6.226 10.082 -10.259 16.855 c 1.261 .233 1.88 .35 3.141 .59 c .935 -1.554 1.412 -2.328 2.352 -3.875 c 3.541 .679 5.313 1.032 8.844 1.76 c .263 1.792 .387 2.687 .638 4.479 c 1.271 .261 1.912 .391 3.177 .658 c -1.126 -7.798 -1.729 -11.69 -3.004 -19.493 c -.162 -.881 -.388 -1.505 -.674 -1.869 z m -7.338 11.763 c 2.022 -3.389 3.051 -5.08 5.109 -8.452 c .655 3.913 .955 5.87 1.573 9.779 c -2.671 -.545 -4.009 -.814 -6.682 -1.327 z" fill="#fff"/><path d="m 427.337 49.196 c .315 -1.378 1.186 -1.908 2.622 -1.574 c 3.322 .776 4.987 1.18 8.309 1.997 c .281 -1.153 .42 -1.733 .71 -2.884 c -3.496 -.862 -5.244 -1.278 -8.75 -2.091 c -1.437 -.335 -2.701 -.152 -3.76 .549 c -1.072 .706 -1.764 1.797 -2.092 3.274 c -.919 4.082 -1.381 6.13 -2.3 10.216 c -.293 1.307 -.118 2.53 .528 3.66 c .64 1.134 1.588 1.838 2.818 2.122 c 3.451 .804 5.174 1.214 8.622 2.06 c .278 -1.152 .417 -1.725 .697 -2.878 c -3.225 -.792 -4.83 -1.184 -8.063 -1.936 c -.618 -.143 -1.076 -.466 -1.381 -.962 c -.294 -.493 -.386 -1.041 -.244 -1.647 c .911 -3.963 1.374 -5.943 2.284 -9.906 z" fill="#fff"/><path d="m 360.176 519.037 c -.499 -.569 -.75 -.852 -1.249 -1.422 c 1.69 -1.483 2.527 -2.229 4.185 -3.743 c .149 -.135 .228 -.204 .375 -.341 c .405 -.362 .346 -.83 -.165 -1.388 c -.239 -.26 -.359 -.391 -.596 -.647 c -.488 -.528 -1.011 -.531 -1.581 -.009 c -.789 .715 -1.189 1.075 -1.983 1.785 c -.664 .596 -1.294 .908 -1.867 .957 c -.336 .034 -.689 -.014 -1.046 -.156 c -.36 -.146 -.647 -.341 -.869 -.597 c -.377 -.432 -.565 -.642 -.947 -1.073 c -.536 -.607 -.784 -1.239 -.745 -1.887 c .037 -.653 .352 -1.242 .95 -1.775 c 1.797 -1.605 2.683 -2.42 4.449 -4.061 c .52 .558 .775 .83 1.292 1.389 c -1.612 1.497 -2.426 2.239 -4.063 3.709 c -.115 .103 -.174 .157 -.289 .259 c -.179 .162 -.28 .351 -.294 .572 c -.012 .22 .065 .426 .229 .611 c .216 .249 .328 .369 .547 .614 c .172 .204 .404 .296 .676 .287 c .271 -.01 .52 -.115 .75 -.315 c .871 -.779 1.295 -1.173 2.157 -1.955 c .559 -.509 1.214 -.759 1.973 -.749 c .754 .001 1.377 .262 1.867 .786 c .489 .524 .728 .788 1.214 1.313 c .444 .471 .648 1.068 .614 1.789 c -.041 .721 -.311 1.316 -.814 1.778 c -1.889 1.727 -2.844 2.579 -4.77 4.269" fill="#fff"/><path d="m 368.605 511.363 c -2.603 -2.758 -5.206 -5.521 -7.815 -8.277 c .554 -.524 .837 -.788 1.386 -1.318 c 2.622 2.746 5.246 5.491 7.866 8.23 c -.574 .551 -.857 .82 -1.437 1.365 m -9.784 -9.806 c -.255 -.273 -.384 -.587 -.384 -.937 c 0 -.345 .133 -.648 .399 -.901 c .274 -.257 .599 -.389 .964 -.382 c .366 .009 .679 .145 .93 .407 c .257 .262 .374 .572 .367 .938 c -.009 .355 -.153 .663 -.418 .917 c -.27 .258 -.584 .379 -.94 .37 c -.364 -.007 -.667 -.148 -.918 -.412" fill="#fff"/><path d="m 372.082 508.026 c -2.355 -2.421 -3.537 -3.637 -5.897 -6.061 c -.692 -.712 -.987 -1.5 -.895 -2.365 c .075 -.641 .462 -1.306 1.159 -1.999 c .871 -.86 1.302 -1.295 2.156 -2.166 c .696 -.701 1.365 -1.098 2.012 -1.185 c .419 -.05 .828 0 1.229 .146 c .395 .144 .774 .394 1.143 .74 c 2.433 2.354 3.647 3.525 6.087 5.874 c -.552 .571 -.828 .853 -1.378 1.417 c -2.35 -2.288 -3.525 -3.436 -5.87 -5.733 c -.154 -.149 -.23 -.223 -.38 -.368 c -.097 -.08 -.267 -.133 -.462 -.123 c -.294 .014 -.633 .222 -.957 .549 c -.876 .894 -1.322 1.336 -2.208 2.217 c -.357 .357 -.544 .669 -.544 .93 c -.009 .26 .152 .559 .478 .886 c 2.299 2.34 3.456 3.51 5.761 5.844 c -.571 .56 -.856 .839 -1.434 1.397" fill="#fff"/><path d="m 386.407 493.147 c -1.231 1.364 -1.848 2.043 -3.099 3.39 c -.645 .688 -1.385 1.083 -2.218 1.166 c -.835 .09 -1.551 -.153 -2.146 -.723 c -1.636 -1.547 -2.447 -2.323 -4.082 -3.868 c -.419 -.396 -.695 -.77 -.835 -1.119 c -.141 -.347 -.141 -.77 -.059 -1.212 c .126 -.694 .43 -1.381 .983 -1.976 c 1.196 -1.295 1.794 -1.945 2.97 -3.25 c .568 .506 .851 .762 1.409 1.269 c -1.186 1.316 -1.782 1.969 -2.994 3.268 c -.26 .281 -.386 .587 -.384 .907 c .009 .319 .15 .609 .428 .87 c 1.444 1.352 2.164 2.029 3.614 3.38 c .272 .259 .605 .39 .989 .388 c .382 -.006 .706 -.142 .968 -.42 c 1.23 -1.327 1.84 -1.996 3.05 -3.335 c .558 .505 .838 .759 1.406 1.265" fill="#fff"/><path d="m 383.173 484.672 c .689 .605 1.042 .906 1.731 1.51 c .728 -2.389 1.078 -3.588 1.744 -5.976 c -.057 -.053 -.082 -.078 -.145 -.125 c -.271 -.234 -.518 -.337 -.731 -.304 c -.214 .04 -.468 .232 -.767 .582 c -.823 .96 -1.235 1.44 -2.064 2.396 c -.564 .645 -.493 1.284 .232 1.917 m 11.209 -.717 c -1.711 2.052 -2.575 3.067 -4.329 5.08 c -.648 .743 -1.382 1.157 -2.178 1.239 c -.803 .081 -1.539 -.188 -2.222 -.794 c -1.521 -1.355 -2.285 -2.033 -3.806 -3.387 c -1.633 -1.452 -1.662 -3.06 -.11 -4.846 c .75 -.867 1.125 -1.302 1.87 -2.169 c .623 -.738 1.306 -1.148 2.041 -1.229 c .738 -.081 1.463 .172 2.169 .767 c .418 .348 .623 .523 1.037 .863 c -.904 3.232 -1.378 4.85 -2.383 8.089 c .11 .099 .17 .148 .28 .247 c .164 .11 .246 .166 .41 .271 c .145 .07 .239 .117 .28 .144 c .044 .029 .122 .045 .214 .056 c .285 .049 .64 -.12 1.028 -.564 c 1.718 -1.976 2.568 -2.971 4.244 -4.979 c .586 .488 .876 .729 1.455 1.212" fill="#fff"/><path d="m 402.794 473.429 c -4.013 -3.07 -8.032 -6.146 -12.052 -9.216 c .534 -.697 .8 -1.047 1.329 -1.749 c 4.04 3.044 8.08 6.089 12.118 9.128 c -.556 .737 -.833 1.104 -1.395 1.837" fill="#fff"/><path d="m 401.38 462.032 c .365 -.131 .681 -.401 .915 -.726 c .879 -1.225 1.316 -1.839 2.177 -3.075 c .265 -.376 .392 -.74 .37 -1.085 c -.011 -.348 -.177 -.629 -.489 -.842 c -.904 -.622 -1.345 -.934 -2.248 -1.557 c -.311 -.217 -.674 -.266 -1.093 -.16 c -.416 .105 -.75 .337 -.986 .686 c -.872 1.236 -1.307 1.849 -2.183 3.073 c -.189 .265 -.265 .571 -.224 .917 c .044 .348 .205 .622 .479 .818 c .911 .659 1.361 .989 2.279 1.652 c .397 .29 .745 .396 1.003 .299 m 4.858 6.801 c -.708 -.523 -1.064 -.783 -1.777 -1.306 c 1.818 -2.473 2.713 -3.721 4.471 -6.231 c .264 -.377 .374 -.738 .335 -1.095 c -.032 -.351 -.225 -.648 -.574 -.887 c -.614 -.431 -.92 -.639 -1.539 -1.07 c -1.21 1.752 -1.823 2.62 -3.064 4.352 c -.683 .945 -1.482 1.491 -2.404 1.644 c -.92 .154 -1.738 -.039 -2.463 -.57 c -.979 -.725 -1.475 -1.089 -2.453 -1.809 c -.727 -.53 -1.168 -1.27 -1.341 -2.199 c -.17 -.929 -.012 -1.727 .483 -2.413 c 1.005 -1.405 1.504 -2.103 2.491 -3.517 c .555 -.797 1.286 -1.289 2.208 -1.477 c .92 -.178 1.778 -.004 2.576 .54 c 2.733 1.863 4.102 2.792 6.835 4.66 c .916 .624 1.449 1.364 1.6 2.225 c .146 .858 -.096 1.755 -.74 2.675 c -1.825 2.618 -2.753 3.912 -4.644 6.478" fill="#fff"/><path d="m 414.732 456.714 c -.733 -.491 -1.105 -.732 -1.84 -1.224 c 1.477 -2.207 2.201 -3.318 3.624 -5.563 c .193 -.298 .255 -.612 .205 -.946 c -.061 -.332 -.23 -.584 -.511 -.767 c -.559 -.348 -.838 -.518 -1.389 -.873 c -.832 -.523 -1.502 -.387 -2.003 .41 c -.667 1.035 -.993 1.551 -1.663 2.576 c -.742 -.479 -1.112 -.725 -1.851 -1.204 c .664 -1.02 .993 -1.529 1.646 -2.563 c .136 -.202 .195 -.436 .221 -.625 c .041 -.235 .06 -.448 .018 -.577 c -.078 -.239 -.317 -.507 -.734 -.767 c -.556 -.355 -.832 -.528 -1.391 -.878 c -.267 -.172 -.569 -.219 -.903 -.14 c -.326 .072 -.586 .26 -.766 .545 c -1.382 2.166 -2.081 3.24 -3.503 5.367 c -.713 -.47 -1.07 -.71 -1.783 -1.187 c 1.362 -2.05 2.039 -3.077 3.358 -5.157 c .624 -.972 1.369 -1.555 2.192 -1.771 c .4 -.107 .81 -.145 1.228 -.086 c .416 .059 .8 .195 1.15 .41 c .743 .464 1.117 .694 1.858 1.154 c .264 .165 .499 .366 .71 .609 c .214 .235 .357 .485 .414 .727 c .064 .244 .025 1.115 .025 1.115 c .035 .024 .502 -.273 .524 -.288 c .143 -.075 .304 -.122 .414 -.147 c .244 -.056 .543 -.044 .879 .029 c .332 .071 .638 .192 .912 .362 c .74 .462 1.115 .688 1.857 1.156 c .75 .463 1.194 1.162 1.32 2.095 c .129 .932 -.101 1.868 -.69 2.792 c -1.385 2.185 -2.093 3.266 -3.528 5.416" fill="#fff"/><path d="m 422.32 444.77 c -4.33 -2.613 -8.659 -5.23 -12.99 -7.843 c .453 -.756 .684 -1.134 1.134 -1.892 c 4.35 2.58 8.695 5.164 13.043 7.747 c -.474 .796 -.708 1.193 -1.187 1.988" fill="#fff"/><path d="m 134.885 333.753 l 12.893 -3.827 l 35.691 64.131 l -5.737 -63.061 c -.639 -7.445 1.746 -11.972 7.155 -13.581 c 5.249 -1.565 9.645 .941 13.186 7.521 l 29.749 55.915 l -5.232 -73.209 l 12.884 -3.847 l 5.874 84.199 c .475 6.619 -2.075 10.758 -7.652 12.413 c -5.818 1.735 -10.255 -.315 -13.314 -6.153 l -29.072 -54.9 l 5.722 61.857 c .637 6.56 -1.878 10.679 -7.53 12.365 c -2.828 .84 -5.388 .747 -7.674 -.284 c -2.287 -1.026 -4.208 -2.98 -5.764 -5.853 z" fill="#fff"/><path d="m 308.622 300.214 l -2.178 43.776 l 28.417 -8.464 z m -17.793 81.994 l 5.365 -87.552 c .262 -3.849 .892 -6.648 1.906 -8.4 c 1.014 -1.753 2.772 -2.996 5.276 -3.744 c 2.735 -.813 5.021 -.792 6.862 .064 c 1.831 .854 3.963 2.856 6.391 5.992 l 52.294 70.377 l -13.617 4.094 l -11.906 -16.237 l -37.826 11.265 l -1.227 20.103 z" fill="#fff"/><path d="m 466.613 329.845 l -37.362 11.133 c -5.318 1.581 -10.441 .874 -15.376 -2.135 c -4.935 -3.005 -8.251 -7.368 -9.957 -13.094 l -13.329 -44.732 c -1.918 -6.446 -1.654 -12.188 .798 -17.213 c 2.45 -5.03 6.692 -8.448 12.735 -10.25 l 36.755 -10.948 l 3.784 12.694 l -35.061 10.447 c -6.048 1.797 -8.169 5.72 -6.361 11.765 l 12.929 43.404 c .793 2.661 2.302 4.624 4.52 5.891 c 2.223 1.275 4.66 1.509 7.32 .715 l 34.823 -10.363 z" fill="#fff"/></g></svg>