<svg height="1000" viewBox="0 0 999.99996 1000" width="1000" xmlns="http://www.w3.org/2000/svg" xmlns:xlink="http://www.w3.org/1999/xlink"><defs><clipPath id="a"><path d="M 0 600 H 800 V 0 H 0 Z"/></clipPath></defs><g transform="matrix(5.0666665 0 0 -5.0666665 -1218.1294 1711.4628)"><g transform="matrix(.60622522 0 0 .60622522 96.614414 57.236936)"><g clip-path="url(#a)"><g transform="translate(400.0005 454.6455)"><path d="m 0 0 c -85.409 -.001 -154.645 -69.237 -154.646 -154.646 c .001 -85.409 69.237 -154.644 154.646 -154.645 c 85.409 .001 154.644 69.236 154.645 154.645 C 154.644 -69.237 85.409 -.001 0 0" fill="#018202"/></g><g transform="translate(552.0791 299.999)"><path d="m 0 0 c -.001 -27.447 -7.273 -53.19 -19.993 -75.417 l -26.787 46.398 c 2.541 9.242 3.904 18.971 3.904 29.019 c 0 50.808 -34.697 93.508 -81.687 105.706 l -26.77 46.364 c 41.702 -.201 79.429 -17.174 106.789 -44.534 C -17.021 80.012 -.001 42.001 0 0" fill="#fff"/></g><g transform="translate(488.084 256.6357)"><path d="m 0 0 c -1.928 -3.907 -4.104 -7.668 -6.514 -11.26 c -2.607 -3.886 -5.485 -7.575 -8.606 -11.04 c -3.595 -3.991 -7.512 -7.683 -11.71 -11.041 c -16.791 -13.426 -38.082 -21.459 -61.253 -21.459 c -23.171 0 -44.463 8.033 -61.253 21.459 h 19.907 h 82.691 c 5.718 3.09 11.052 6.799 15.912 11.041 h -114.515 h -15.706 h -14.295 h -26.449 l 13.208 22.876 c 1.738 -4.076 3.716 -8.024 5.917 -11.829 c .002 -.002 .003 -.005 .005 -.007 h 13.007 c -2.41 3.593 -4.587 7.355 -6.514 11.261 c -2.051 4.16 -3.816 8.484 -5.27 12.951 c -1.645 5.053 -2.895 10.284 -3.706 15.66 c -.725 4.812 -1.103 9.739 -1.103 14.752 c 0 41.602 25.88 77.157 62.418 91.449 l -9.976 -17.278 l -41.363 -71.643 c -.024 -.84 -.039 -1.683 -.039 -2.528 c 0 -5.75 .563 -11.367 1.625 -16.804 l 57.31 99.263 l 7.845 13.588 l 7.135 12.359 l 13.208 22.876 h .001 l 13.207 -22.876 c -4.329 .522 -8.736 .797 -13.207 .797 h -.002 v 0 l .001 -.001 l .001 .001 l -6.5 -11.258 c 2.149 .141 4.316 .22 6.501 .22 c 2.184 0 4.35 -.079 6.498 -.219 v -.002 c 4.713 -.308 9.336 -.947 13.844 -1.897 c 5.303 -1.118 10.451 -2.661 15.402 -4.598 c 36.537 -14.292 62.418 -49.847 62.418 -91.449 c 0 -5.013 -.379 -9.939 -1.103 -14.752 l -9.976 17.28 l -41.363 71.643 c -5.473 3.381 -11.345 6.174 -17.534 8.289 L -2.586 26.56 L 5.27 12.952 L 12.416 .577 L 25.623 -22.3 H -.825 c 2.653 3.52 5.1 7.206 7.319 11.04 c .001 .002 .002 .003 .004 .006 z" fill="#fff"/></g><g transform="translate(292.4639 407.5352)"><path d="M 0 0 C 27.361 27.36 65.087 44.333 106.791 44.534 L 80.022 -1.83 C 33.03 -14.028 -1.667 -56.729 -1.667 -107.536 c 0 -10.049 1.364 -19.778 3.905 -29.019 l -26.788 -46.4 c -12.72 22.228 -19.992 47.971 -19.993 75.419 C -44.542 -65.537 -27.523 -27.524 0 0" fill="#fff"/></g><g transform="translate(507.5352 192.4639)"><path d="m 0 0 c -27.523 -27.522 -65.536 -44.542 -107.535 -44.543 c -42 .001 -80.011 17.021 -107.536 44.543 c -9.187 9.188 -17.196 19.548 -23.8 30.831 h 53.616 c 19.8 -20.061 47.306 -32.498 77.72 -32.498 c 30.415 0 57.92 12.437 77.721 32.498 H 23.799 C 17.195 19.548 9.188 9.188 0 0" fill="#fff"/></g><g transform="translate(330.3687 177.5527)"><path d="m 0 0 l -2.28 1.45 c .246 .544 .382 .758 .667 1.311 c -1.794 -.46 -3.204 -.264 -4.677 .673 c -3.61 2.296 -3.875 6.968 -.686 11.981 c 3.324 5.226 7.701 6.912 11.549 4.464 C 6.71 18.52 7.896 16.396 7.782 14.067 C 7.719 12.973 7.424 12.193 6.73 10.632 l -.081 -.181 l -3.041 1.934 l .067 .158 c .372 .898 .482 1.228 .542 1.69 c .144 1.277 -.331 2.312 -1.352 2.962 c -1.971 1.254 -4.441 -.111 -6.738 -3.72 C -6.08 10.006 -6.23 7.199 -4.282 5.961 C -2.667 4.933 -.457 5.629 .947 7.572 l -2.708 1.723 l 1.693 2.66 l 5.463 -3.476 z" fill="#018202"/></g><g transform="translate(342.5684 184)"><path d="m 0 0 c -1.059 .525 -2.253 -.045 -3.193 -1.559 l 3.808 -1.89 C 1.239 -1.684 1.034 -.514 0 0 m -5.169 -10.542 c -3.102 1.54 -3.829 4.95 -1.89 8.858 c 1.991 4.01 5.222 5.645 8.248 4.143 C 2.677 1.72 3.713 .389 3.982 -1.16 C 4.264 -2.871 3.879 -4.598 2.728 -6.918 C 2.69 -6.992 2.59 -7.194 2.477 -7.422 l -6.935 3.443 c -.025 -.051 -.038 -.076 -.063 -.126 c -.838 -1.69 -.607 -3.25 .578 -3.839 c .883 -.438 1.851 -.133 2.642 .826 l 3.026 -1.501 c -1.478 -2.473 -4.246 -3.236 -6.894 -1.923" fill="#018202"/></g><g transform="translate(350.478 172.0918)"><path d="M 0 0 C 1.209 -.465 2.477 .556 3.295 2.684 C 4.144 4.893 3.887 6.499 2.679 6.964 C 1.443 7.438 .229 6.398 -.621 4.19 C -1.439 2.063 -1.209 .465 0 0 M 4.15 -4.19 C 3.473 -5.951 2.929 -6.737 1.929 -7.379 c -1.26 -.843 -2.823 -.905 -4.662 -.197 c -2.97 1.141 -4.154 3.316 -3.216 5.912 l 3.232 -1.243 c -.184 -1.106 .101 -1.698 1.047 -2.062 c 1.235 -.474 2.024 .006 2.63 1.583 l .404 1.051 c -.923 -.519 -1.896 -.537 -3 -.113 c -1.182 .455 -2.162 1.435 -2.565 2.586 c -.531 1.44 -.416 2.995 .362 5.018 c 1.537 3.995 4.211 5.772 7.075 4.67 C 4.393 9.381 5.04 8.711 5.421 7.508 l .365 .945 l 2.812 -1.08 z" fill="#018202"/></g><g transform="translate(364.041 177.9922)"><path d="m 0 0 l -.411 -1.375 c .932 .955 2.061 1.293 3.14 .971 c .162 -.049 .27 -.08 .469 -.2 L 2.36 -3.408 c -.1 .059 -.289 .116 -.289 .116 c -1.186 .354 -1.963 .116 -2.708 -.807 c -.378 -.474 -.77 -1.297 -1.092 -2.377 l -1.951 -6.526 l -3.129 .935 l 3.869 12.946 z" fill="#018202"/></g><g transform="translate(376.0693 177.0273)"><path d="m 0 0 l -2.255 .494 l .788 3.602 l 2.255 -.492 z m -3.685 .807 l -2.228 .486 l .788 3.603 l 2.228 -.488 z m 2.17 -16.295 l -3.025 .661 l .235 1.072 c -.904 -.84 -1.907 -1.081 -3.173 -.805 c -2.337 .512 -3.293 2.334 -2.686 5.112 l 2.021 9.241 l 3.19 -.697 l -1.726 -7.894 c -.3 -1.375 -.342 -1.567 -.295 -2.01 c .044 -.586 .489 -1.057 1.094 -1.19 c .797 -.174 1.589 .286 1.92 1.136 c .19 .477 .314 .911 .609 2.258 l 1.534 7.014 l 3.189 -.698 z" fill="#018202"/></g><g transform="translate(382.5303 174.0176)"><path d="m 0 0 l -.135 -1.089 c .82 .892 1.828 1.249 3.058 1.097 c 1.313 -.162 2.333 -.856 2.876 -1.973 c .41 -.815 .456 -1.588 .269 -3.096 l -1.132 -9.164 l -3.241 .401 l .967 7.823 l .114 .921 c .183 1.481 -.202 2.267 -1.18 2.388 c -.782 .095 -1.494 -.383 -1.765 -1.201 c -.17 -.461 -.264 -.988 -.406 -2.133 l -.915 -7.405 l -3.241 .401 l 1.658 13.411 z" fill="#018202"/></g><g transform="translate(395.4766 161.877)"><path d="M 0 0 C 1.267 -.039 2.134 1.624 2.214 4.241 C 2.293 6.858 1.526 8.487 .204 8.527 C -1.063 8.566 -1.927 6.987 -2.006 4.427 C -2.09 1.669 -1.351 .041 0 0 m 5.158 -2.637 l -3.151 .097 l .03 .984 c -.959 -.957 -1.786 -1.297 -2.968 -1.26 c -2.842 .086 -4.559 2.899 -4.424 7.317 c .129 4.249 2.101 7.006 4.887 6.921 c 1.097 -.034 1.958 -.454 2.747 -1.352 l .188 6.162 l 3.264 -.099 z" fill="#018202"/></g><g transform="translate(408.0332 170.833)"><path d="M 0 0 C -1.18 -.071 -1.932 -1.16 -1.992 -2.94 L 2.25 -2.683 C 1.912 -.842 1.152 .071 0 0 m .77 -11.713 c -3.458 -.21 -5.786 2.383 -6.051 6.738 c -.272 4.468 1.715 7.495 5.087 7.7 c 1.658 .1 3.219 -.537 4.223 -1.746 c 1.098 -1.343 1.623 -3.032 1.782 -5.617 c .004 -.084 .017 -.308 .033 -.561 L -1.883 -5.67 c .004 -.057 .006 -.084 .008 -.141 c .115 -1.882 1.094 -3.12 2.414 -3.04 c .983 .06 1.671 .807 1.879 2.033 l 3.371 .205 c -.051 -2.88 -2.07 -4.92 -5.019 -5.1" fill="#018202"/></g><g transform="translate(418.1465 174.1152)"><path d="M 0 0 L 1.729 .229 L 2.051 -2.198 L .32 -2.427 L 1.188 -8.984 L 1.258 -9.516 c .137 -1.032 .555 -1.402 1.39 -1.292 c .114 .015 .252 .034 .364 .048 l .164 .05 l .332 -2.512 C 2.877 -13.39 2.466 -13.5 1.88 -13.578 c -1.647 -.218 -2.718 .151 -3.241 1.104 c -.301 .557 -.401 .884 -.571 2.168 l -.984 7.451 l -1.368 -.181 l -.32 2.428 l 1.366 .18 l -.553 4.186 l 3.236 .428 z" fill="#018202"/></g><g transform="translate(439.6211 164.9609)"><path d="m 0 0 l -4.01 -1.094 l -3.309 12.143 l -3.521 -.96 l -.674 2.472 l .261 .072 c 2.543 .692 3.187 1.801 3.13 4.062 l -.004 .145 l 3.291 .898 z" fill="#018202"/></g><g transform="translate(448.1133 180.8301)"><path d="m 0 0 c -.721 1.895 -2.338 2.814 -3.853 2.238 c -1.578 -.601 -2.108 -2.25 -1.376 -4.17 c .743 -1.946 2.233 -2.824 3.844 -2.211 C .193 -3.541 .742 -1.946 0 0 m -2.248 -8.899 c .724 -1.14 1.805 -1.512 3.036 -1.042 c 1.704 .649 2.206 2.466 1.36 5.157 c -.687 -1.136 -1.799 -2.011 -3.252 -2.565 c -3.41 -1.298 -6.73 .207 -8.053 3.679 c -1.434 3.762 .256 7.297 4.233 8.813 c 4.42 1.683 8.128 -.457 10.233 -5.982 c 1.072 -2.814 1.346 -5.241 .851 -7.357 c -.495 -2.117 -1.995 -3.682 -4.457 -4.62 c -3.283 -1.251 -5.851 -.393 -7.613 2.522 z" fill="#018202"/></g><g transform="translate(469.8477 177.7188)"><path d="m 0 0 l -11.857 -6.126 c -.065 .125 -.104 .2 -.156 .3 c -1.073 2.077 -.819 4.9 .673 8.049 l 1.039 2.184 c 1.189 2.484 1.358 3.997 .596 5.474 c -.698 1.35 -1.875 1.788 -3.136 1.137 c -1.471 -.76 -1.606 -1.971 -.533 -4.268 l -3.513 -1.814 c -.064 .125 -.115 .224 -.141 .274 c -1.874 3.628 -.867 6.683 2.796 8.575 c 3.572 1.845 6.776 1.092 8.339 -1.935 C -4.73 9.599 -4.92 7.535 -6.66 3.689 L -7.438 1.956 c -.693 -1.53 -.816 -1.879 -.888 -2.55 l 6.814 3.52 z" fill="#018202"/></g><g transform="translate(482.4063 185.8193)"><path d="m 0 0 l -11.139 -7.347 c -.077 .118 -.124 .19 -.185 .284 c -1.287 1.949 -1.334 4.784 -.185 8.072 l .802 2.281 c .918 2.596 .926 4.118 .012 5.504 c -.838 1.269 -2.053 1.58 -3.239 .799 c -1.38 -.91 -1.387 -2.129 -.078 -4.3 l -3.299 -2.176 c -.077 .118 -.138 .212 -.169 .259 c -2.249 3.407 -1.571 6.552 1.871 8.82 c 3.355 2.214 6.62 1.804 8.495 -1.039 c 1.395 -2.115 1.425 -4.185 .102 -8.194 l -.59 -1.806 c -.526 -1.595 -.611 -1.955 -.612 -2.629 l 6.401 4.221 z" fill="#018202"/></g><g transform="translate(264.9624 306.2104)"><path d="m 0 0 c -.084 .002 -.112 .003 -.168 .004 c -1.577 .042 -2.644 -.916 -2.684 -2.435 c -.037 -1.407 .81 -2.415 2.048 -2.448 c 1.07 -.028 1.788 .545 2.359 1.909 l .873 2.146 c .693 1.699 1.309 2.64 2.172 3.322 c .891 .68 2.055 1.044 3.35 1.01 c 1.519 -.04 2.94 -.612 3.955 -1.625 c 1.236 -1.187 1.814 -2.779 1.759 -4.862 C 13.553 -7.2 11.215 -9.363 6.94 -9.166 l .096 3.659 c .985 -.026 1.352 .02 1.78 .206 c .997 .424 1.64 1.337 1.67 2.49 c .039 1.464 -.944 2.616 -2.267 2.651 C 7.093 -.13 6.288 -.785 5.716 -2.15 L 4.785 -4.378 c -1.262 -3.008 -2.815 -4.235 -5.32 -4.168 c -3.404 .089 -5.591 2.597 -5.494 6.283 c .096 3.659 2.292 5.769 5.95 5.672 C -.022 3.408 .005 3.407 .09 3.405 Z" fill="#018202"/></g><g transform="translate(269.0732 315.8433)"><path d="M 0 0 L .126 .949 C .281 2.121 .264 2.634 .02 3.149 C -.334 3.906 -1.071 4.344 -2.299 4.507 C -3.387 4.651 -4.332 4.378 -4.78 3.785 C -5.157 3.295 -5.3 2.86 -5.455 1.688 L -5.581 .739 Z m -8.494 2.971 c .222 1.674 .599 2.59 1.338 3.457 c 1.205 1.374 3.133 1.999 5.282 1.714 C .665 7.805 2.558 6.447 3.163 4.578 C 3.462 3.63 3.524 2.6 3.344 1.232 L 3.125 -.415 L 9.878 -1.31 L 9.409 -4.853 L -9.204 -2.387 Z" fill="#018202"/></g><g transform="translate(271.978 328.603)"><path d="M 0 0 C 3.985 -1.005 6.629 -.307 7.187 1.904 C 7.751 4.143 5.659 6.093 1.482 7.146 C -2.531 8.157 -5.182 7.432 -5.746 5.193 C -6.31 2.955 -4.204 1.06 0 0 M 2.404 10.688 C 8.328 9.194 11.373 5.495 10.278 1.154 C 9.177 -3.214 4.865 -5.001 -1.004 -3.521 c -5.896 1.486 -8.914 5.179 -7.82 9.519 c 1.095 4.341 5.413 6.155 11.228 4.69" fill="#018202"/></g><g transform="translate(275.5498 345.4053)"><path d="M 0 0 L .453 1.183 C .905 2.367 .979 2.64 .95 3.193 C .874 4.097 .229 4.855 -.796 5.248 C -1.637 5.569 -2.379 5.522 -2.922 5.126 C -3.512 4.688 -3.768 4.334 -4.311 2.915 L -4.733 1.81 Z m -7.111 4.498 c .824 2.156 1.397 3.023 2.426 3.744 c 1.361 .957 3.33 1.138 5.091 .465 C 2.352 7.962 3.45 6.578 3.616 4.646 C 4.915 6.229 6.088 6.383 8.892 5.28 C 9.234 5.149 9.471 5.059 9.708 4.968 C 11.206 4.395 11.857 4.207 12.852 4.127 L 11.524 .656 C 10.928 .673 10.524 .798 9.84 1.06 C 9.656 1.13 8.972 1.392 8.298 1.679 C 8.009 1.79 7.756 1.917 7.546 1.997 C 5.285 2.862 4.273 2.345 3.348 -.075 l -.403 -1.051 l 6.89 -2.635 l -1.277 -3.34 l -17.539 6.708 z" fill="#018202"/></g><g transform="translate(280.043 367.4985)"><path d="m 0 0 l -1.887 -3.714 l 13.905 -7.065 l -1.62 -3.188 l -13.905 7.065 l -1.874 -3.69 l -2.837 1.441 l 5.382 10.592 z" fill="#018202"/></g><g transform="translate(298.1582 367.0264)"><path d="m 0 0 l -1.702 -2.653 l -18.523 5.893 l 2.006 3.128 l 9.213 -3.1 c .55 -.185 1.281 -.454 1.548 -.559 l .959 -.38 C -6.403 2.268 -6.293 2.23 -6.136 2.163 C -6.621 2.607 -7.494 3.435 -7.892 3.857 l -.509 .561 l -6.582 6.997 l 1.915 2.985 z" fill="#018202"/></g><g transform="translate(296.0767 390.2095)"><path d="m 0 0 l -4.599 -5.767 l 3.169 -2.527 l 4.055 5.084 l 2.465 -1.966 l -4.055 -5.084 l 4.028 -3.212 l 4.599 5.766 l 2.531 -2.019 l -6.828 -8.561 l -14.68 11.708 l 6.828 8.561 z" fill="#018202"/></g><g transform="translate(304.4561 391.7139)"><path d="M 0 0 L .891 .901 C 1.782 1.801 1.96 2.021 2.156 2.54 C 2.45 3.397 2.167 4.352 1.386 5.124 C .746 5.758 .048 6.013 -.608 5.87 C -1.324 5.707 -1.702 5.486 -2.771 4.405 L -3.603 3.564 Z m -4.695 6.983 c 1.623 1.641 2.496 2.203 3.729 2.448 C .665 9.759 2.54 9.131 3.88 7.805 C 5.361 6.339 5.809 4.63 5.181 2.795 C 7.008 3.72 8.144 3.388 10.266 1.249 c .26 -.257 .44 -.436 .62 -.614 c 1.141 -1.129 1.661 -1.564 2.539 -2.037 l -2.614 -2.641 c -.539 .255 -.858 .532 -1.379 1.047 c -.14 .139 -.661 .654 -1.161 1.188 c -.22 .218 -.4 .436 -.561 .595 C 5.99 .49 4.855 .424 3.033 -1.417 L 2.241 -2.217 L 7.485 -7.406 L 4.97 -9.947 L -8.379 3.261 Z" fill="#018202"/></g><g transform="translate(317.7139 410.3091)"><path d="m 0 0 l -5.718 -4.659 l 2.561 -3.142 l 5.041 4.107 l 1.991 -2.444 l -5.041 -4.108 l 3.254 -3.993 l 5.718 4.658 l 2.045 -2.509 l -8.49 -6.917 l -11.859 14.556 l 8.489 6.917 z" fill="#018202"/></g><g transform="translate(332.1885 401.3228)"><path d="m 0 0 l -2.94 -2.035 l -10.685 15.439 l 2.939 2.034 z" fill="#018202"/></g><g transform="translate(344.9541 408.9609)"><path d="m 0 0 l -2.835 -1.62 l -8.251 5.531 c -.091 .046 -.472 .315 -1.128 .782 c -.642 .444 -.88 .633 -1.159 .894 c .632 -.935 .866 -1.288 1.564 -2.51 l 4.231 -7.406 l -3.104 -1.774 l -9.315 16.304 l 2.811 1.606 l 8.303 -5.567 C -7.612 5.377 -7.231 5.109 -6.557 4.554 C -7.186 5.427 -7.518 5.95 -8.216 7.172 l -4.203 7.358 l 3.104 1.773 z" fill="#018202"/></g><g transform="translate(465.4023 403.166)"><path d="M 0 0 L -2.959 1.629 L 1.032 8.88 C 1.548 9.817 1.95 10.431 2.764 11.559 C 2.105 10.829 1.827 10.499 .645 9.286 l -6.071 -6.299 l -2.54 1.399 l 2.159 8.709 l .364 1.535 c .002 .063 .105 .425 .291 .997 c .03 .112 .062 .288 .121 .512 c -.547 -1.403 -.752 -1.835 -1.405 -3.019 l -4.045 -7.349 l -2.96 1.629 l 9.056 16.45 l 3.848 -2.119 l -2.588 -10.594 l -.103 -.362 l -.161 -.586 C -3.505 9.804 -3.58 9.491 -3.832 8.859 c .478 .636 .955 1.209 1.401 1.67 l .238 .256 l 7.426 7.769 l 3.824 -2.104 z" fill="#018202"/></g><g transform="translate(478.5273 407.1294)"><path d="M 0 0 C .337 .799 1.057 2.364 1.537 3.267 C .674 2.364 -.055 1.744 -1.116 .811 l -2.995 -2.592 l 2.596 -1.885 z m -1.295 -12.559 l -3.028 2.2 l 1.548 3.712 l -3.782 2.746 l -3.073 -2.603 l -3.007 2.183 L 2.406 7.958 L 5.709 5.56 Z" fill="#018202"/></g><g transform="translate(496.1543 398.4531)"><path d="m 0 0 l -3.103 2.781 l -10.41 -11.614 l -2.663 2.386 l 10.41 11.614 l -3.081 2.763 l 2.123 2.369 l 8.847 -7.93 z" fill="#018202"/></g><g transform="translate(505.3066 388.6035)"><path d="m 0 0 l -2.819 3.069 l -11.489 -10.55 l -2.419 2.633 l 11.489 10.551 l -2.799 3.048 l 2.344 2.152 l 8.036 -8.751 z" fill="#018202"/></g><g transform="translate(513.623 377.6523)"><path d="m 0 0 l -4.418 5.905 l -3.246 -2.428 l 3.895 -5.207 l -2.524 -1.888 l -3.895 5.206 l -4.125 -3.086 l 4.418 -5.905 l -2.592 -1.939 l -6.56 8.768 l 15.034 11.247 l 6.56 -8.768 z" fill="#018202"/></g><g transform="translate(512.9707 369.1563)"><path d="m 0 0 l .645 -1.09 c .646 -1.089 .814 -1.317 1.266 -1.639 c .755 -.501 1.749 -.467 2.694 .092 c .775 .46 1.199 1.071 1.226 1.741 c .023 .734 -.095 1.155 -.87 2.462 L 4.358 2.583 Z M 7.941 2.776 C 9.118 .791 9.441 -.196 9.367 -1.451 C 9.271 -3.111 8.19 -4.766 6.568 -5.727 C 4.775 -6.79 3.009 -6.79 1.393 -5.719 C 1.826 -7.72 1.217 -8.735 -1.389 -10.247 c -.314 -.186 -.533 -.316 -.75 -.444 c -1.381 -.819 -1.933 -1.211 -2.613 -1.942 l -1.894 3.196 c .384 .458 .732 .697 1.362 1.07 c .17 .1 .8 .474 1.443 .823 c .267 .157 .523 .277 .716 .392 c 2.084 1.234 2.307 2.348 .986 4.576 l -.574 .969 l -6.345 -3.761 l -1.823 3.076 l 16.152 9.573 z" fill="#018202"/></g><g transform="translate(524.2168 353.4155)"><path d="M 0 0 C .076 .035 .102 .047 .153 .07 C 1.59 .721 2.131 2.049 1.502 3.434 C .921 4.715 -.281 5.252 -1.408 4.74 C -2.383 4.298 -2.779 3.469 -2.697 1.992 l .152 -2.311 c .12 -1.832 -.023 -2.948 -.502 -3.938 c -.504 -1.002 -1.392 -1.838 -2.571 -2.372 c -1.384 -.629 -2.913 -.735 -4.269 -.268 c -1.631 .528 -2.845 1.708 -3.707 3.605 c -1.745 3.846 -.587 6.814 3.345 8.505 L -8.736 1.88 c -.898 -.407 -1.207 -.61 -1.511 -.964 c -.712 -.817 -.892 -1.919 -.415 -2.97 c .605 -1.334 1.994 -1.94 3.199 -1.394 c 1.025 .466 1.463 1.406 1.381 2.884 L -6.218 1.848 C -6.397 5.105 -5.537 6.887 -3.254 7.922 C -.152 9.33 2.911 8.03 4.436 4.671 C 5.947 1.338 4.895 -1.521 1.561 -3.032 C 1.51 -3.056 1.484 -3.067 1.407 -3.102 Z" fill="#018202"/></g><g transform="translate(525.9482 343.3706)"><path d="m 0 0 l .561 -1.713 c .585 -1.793 1.446 -2.341 2.918 -1.859 c .857 .28 1.384 .838 1.469 1.487 c .073 .498 .022 .837 -.293 1.8 L 4.121 1.348 Z m -7.68 -2.512 l .587 -1.793 c .647 -1.98 1.686 -2.618 3.371 -2.067 c .91 .298 1.555 .953 1.649 1.754 c .064 .525 -.022 1.059 -.319 1.97 l -.55 1.685 z M 8.021 -.339 C 8.606 -2.132 8.59 -3.441 7.942 -4.63 C 7.349 -5.713 6.355 -6.482 5.018 -6.92 C 3.091 -7.55 1.535 -7.14 .404 -5.674 C .303 -7.899 -.765 -9.255 -2.985 -9.981 c -1.553 -.508 -3.022 -.456 -4.211 .192 c -1.251 .658 -2.02 1.739 -2.676 3.747 l -1.943 5.94 l 17.848 5.837 z" fill="#018202"/></g><g transform="translate(526.9219 320.251)"><path d="m 0 0 c -1.985 -.409 -3.128 -.443 -4.251 -.157 c -1.853 .48 -3.26 2.145 -3.737 4.461 c -.517 2.509 .083 4.617 1.628 5.769 c 1.001 .724 2.008 1.133 3.967 1.537 L 9.657 14.095 L 10.38 10.592 L -1.699 8.102 C -2.525 7.932 -3.176 7.74 -3.65 7.527 C -4.652 7.091 -5.122 6.16 -4.889 5.029 C -4.662 3.926 -3.862 3.257 -2.77 3.253 c .52 -.008 1.194 .073 2.021 .244 l 12.078 2.49 l .722 -3.502 z" fill="#018202"/></g><g transform="translate(531.6816 314.2373)"><path d="m 0 0 l .116 -1.262 c .115 -1.261 .169 -1.539 .44 -2.023 c .466 -.777 1.379 -1.173 2.472 -1.073 c .897 .082 1.541 .452 1.855 1.046 c .336 .652 .409 1.083 .27 2.597 L 5.046 .462 Z M 8.364 -.901 C 8.575 -3.2 8.443 -4.229 7.838 -5.331 C 7.039 -6.79 5.353 -7.82 3.474 -7.992 c -2.075 -.19 -3.67 .568 -4.67 2.229 c -.468 -1.993 -1.453 -2.649 -4.455 -2.896 c -.365 -.033 -.617 -.056 -.869 -.08 c -1.597 -.146 -2.265 -.264 -3.193 -.632 l -.34 3.701 c .543 .248 .961 .314 1.69 .38 c .197 .019 .925 .085 1.656 .124 c .309 .029 .592 .026 .816 .047 c 2.411 .221 3.09 1.131 2.854 3.71 l -.103 1.121 l -7.344 -.673 l -.327 3.56 l 18.698 1.714 z" fill="#018202"/></g><g transform="translate(521.6865 290.0859)"><path d="m 0 0 l .067 2.701 c .593 .07 .846 .064 1.467 .105 c -1.319 1.299 -1.879 2.608 -1.835 4.352 c .107 4.279 3.974 6.914 9.911 6.766 c 6.191 -.153 9.892 -3.033 9.78 -7.592 C 19.326 3.799 18.12 1.689 16.064 .586 C 15.095 .075 14.274 -.074 12.58 -.285 l -.198 -.024 l .09 3.603 l .17 .024 c .96 .145 1.3 .221 1.727 .408 c 1.167 .534 1.811 1.475 1.84 2.685 c .059 2.336 -2.385 3.748 -6.661 3.854 C 5.438 10.367 2.956 9.049 2.899 6.742 C 2.852 4.828 4.587 3.293 6.976 3.093 l .08 3.208 l 3.151 -.078 l -.161 -6.473 z" fill="#018202"/></g><g transform="translate(400.0005 387.123)"><path d="m 0 0 c -4.534 0 -8.987 -.347 -13.334 -1.015 l -67.91 -117.624 c 3.266 -8.416 7.804 -16.195 13.375 -23.108 H 67.869 c 5.57 6.913 10.108 14.692 13.375 23.106 L 13.332 -1.014 C 8.986 -.347 4.534 0 0 0" fill="#018202"/></g><g transform="translate(426.3262 351.1826)"><path d="M 0 0 H -11.154 L -26.326 -26.278 L -41.498 0 h -11.153 l -27.888 -48.303 h 11.154 l 22.311 38.643 l 13.304 -23.044 h 14.889 l 13.304 23.044 l 22.31 -38.643 h 11.155 z" fill="#fff"/></g><g transform="translate(455.9404 299.8892)"><path d="M 0 0 H -11.154 L -16.73 -9.661 H -5.576 L -22.31 -38.642 L -44.619 0 h -67.264 l -5.577 -9.661 l 11.155 -19.322 h 44.956 l 5.578 -9.659 h -44.957 l 5.577 -9.66 h 44.957 l 5.577 9.66 l -11.154 19.319 h -44.957 l -5.578 9.662 h 56.11 l 22.311 -38.644 h 11.152 l 22.31 38.644 z" fill="#fff"/></g></g></g><path d="m 330.40449 145.91064 c -11.67405 1.19661 -22.06061 4.18424 -32.55892 9.36541 c -18.94927 9.35191 -33.24127 23.64469 -42.58056 42.58289 c -6.35207 12.88071 -9.11527 24.01734 -9.51921 38.36553 c -.34238 12.16155 .92419 21.08641 4.56854 32.19228 c 10.91135 33.25143 39.29352 57.32983 74.50312 63.20574 c 6.07525 1.01387 22.45199 1.01517 28.51313 .002 c 13.52367 -2.25999 25.92159 -7.01368 36.60471 -14.0352 c 6.42763 -4.2246 10.04384 -7.17391 15.42441 -12.5799 c 13.87545 -13.94099 22.66477 -30.98109 26.053 -50.50976 c 1.13994 -6.57019 1.41627 -20.12085 .5461 -26.77923 c -1.6529 -12.64768 -5.3709 -23.92273 -11.39413 -34.5534 c -14.75641 -26.04421 -40.9392 -43.49634 -70.43177 -46.94628 c -4.38477 -.51291 -15.97365 -.69522 -19.72842 -.31035 z m 22.54079 1.83782 c 26.20302 4.11362 49.22104 19.00021 63.7196 41.20977 c 1.08692 1.66499 1.97621 3.17838 1.97621 3.36312 c 0 .18563 -7.24847 .33587 -16.2045 .33587 h -16.2045 l -3.35012 -2.91476 c -11.14852 -9.69972 -23.98274 -15.14592 -38.6964 -16.42078 c -17.31976 -1.50067 -35.49632 4.61152 -48.84453 16.42486 l -3.27516 2.89855 l -16.27946 .006 c -8.9537 .004 -16.27946 -.13177 -16.27946 -.30025 c 0 -.58981 5.12864 -8.01043 7.94434 -11.49464 c 3.65129 -4.51818 11.2955 -11.89478 15.99356 -15.43364 c 13.60043 -10.24468 29.92681 -16.5571 47.5376 -18.37992 c 3.4108 -.35303 18.25744 .12405 21.96282 .70576 z m -4.93869 32.4054 c 17.87485 2.65416 33.62288 13.39077 42.81178 29.18799 l 1.74855 3.00604 l 1.83519 -3.18419 c 1.00935 -1.75131 1.73035 -3.3641 1.60221 -3.584 c -.12813 -.2199 -1.08405 -1.671 -2.12427 -3.22467 c -1.04022 -1.55366 -1.81511 -2.90103 -1.72199 -2.99416 c .0931 -.0931 3.74017 -.12237 8.10455 -.065 l 7.93524 .10432 l -25.76424 44.6158 c -19.72997 34.16629 -25.56864 44.56229 -24.9291 44.3873 c 1.62848 -.44559 8.57619 -3.99977 9.1674 -4.68968 c .33019 -.38532 7.24506 -12.23106 15.36639 -26.32387 c 8.12134 -14.09281 15.03976 -26.04707 15.37428 -26.56501 l .60822 -.94171 l .26981 1.51968 c .58056 3.26998 .33361 13.46723 -.43478 17.95351 c -3.89982 22.76908 -20.96939 41.43637 -43.2578 47.30675 c -5.54775 1.46118 -9.27794 1.95523 -14.76242 1.95523 h -4.38438 l 1.84018 3.17883 l 1.84018 3.17883 l 4.13869 -.11838 c 3.89934 -.11154 4.11555 -.0781 3.73852 .57797 c -5.20769 9.06222 -7.62031 13.01403 -7.92242 12.97672 c -.20512 -.0253 -11.90489 -20.01988 -25.99947 -44.43233 c -28.7899 -49.8654 -26.06609 -45.97387 -26.44509 -37.78229 l -.20501 4.4311 l 15.60607 26.95989 c 8.58333 14.82794 15.53494 27.03102 15.44799 27.11796 c -.0869 .0869 -1.96012 -.72211 -4.16263 -1.79787 c -17.19864 -8.40036 -29.06265 -23.78981 -32.88822 -42.66114 c -1.07417 -5.29885 -.97523 -17.84018 .18286 -23.17738 c 1.38252 -6.37148 3.88941 -12.82012 7.19912 -18.51874 l 1.39867 -2.40821 h -3.67892 h -3.67892 l -1.76611 3.51654 c -1.26985 2.52842 -1.88361 3.39905 -2.18425 3.0984 c -.22998 -.22998 -2.09764 -3.32959 -4.15035 -6.88802 l -3.73221 -6.46988 l 51.65293 -.19266 l 51.65292 -.19266 l -2.68164 -1.97182 c -1.47491 -1.08449 -3.4619 -2.47162 -4.41555 -3.0825 l -1.73391 -1.11068 l -31.33679 -.19266 l -31.3368 -.19265 l 2.43835 -1.78137 c 7.25495 -5.30022 16.52 -9.1078 25.59544 -10.51878 c 4.7053 -.73154 13.25265 -.73652 18.14173 -.0105 z m -80.66948 27.2137 l 8.0228 13.92267 l -.79693 3.9596 c -4.17208 20.72936 .87489 40.61145 14.39982 56.72675 c 7.76273 9.2495 19.85297 17.15589 31.05416 20.3078 l 2.52045 .70923 l 7.11237 12.32732 c 3.9118 6.78001 7.60813 13.19167 8.21407 14.24812 l 1.1017 1.92083 l -4.95483 -.23941 c -18.06972 -.87312 -35.66653 -7.30514 -50.57978 -18.48803 c -4.70755 -3.53 -12.37687 -10.96641 -16.1774 -15.68609 c -17.41669 -21.62888 -24.15231 -49.7059 -18.50596 -77.14092 c 1.25393 -6.09273 4.35192 -15.03925 7.29347 -21.06247 c 1.46257 -2.99481 2.79737 -5.44128 2.96624 -5.43659 c .16886 .005 3.91728 6.27372 8.32982 13.93119 z m 154.94682 -8.35268 c 2.73152 5.6836 4.63982 10.9162 6.18296 16.95376 c 2.29581 8.98243 2.69585 12.41305 2.69585 23.11876 c 0 10.71662 -.3984 14.12531 -2.70848 23.17397 c -8.24267 32.2867 -33.8875 57.93313 -66.20626 66.2104 c -2.78536 .71337 -6.88488 1.57559 -9.11006 1.91606 c -5.02991 .7696 -13.48594 1.23379 -13.48594 .7403 c 0 -.19732 3.59785 -6.56974 7.99523 -14.16093 l 7.99524 -13.80218 l 4.32468 -1.45517 c 27.06875 -9.10814 45.21361 -34.38787 45.18483 -62.95226 c -.004 -3.72715 -.57487 -9.03313 -1.3746 -12.77082 c -.3174 -1.48346 -.66635 -3.13067 -.77543 -3.66048 c -.15398 -.74789 1.49274 -3.89259 7.36457 -14.06391 c 9.57681 -16.58917 8.63122 -15.14616 9.32281 -14.22704 c .3067 .40761 1.47427 2.6484 2.5946 4.97954 z" fill="#018202"/></g></svg>