<svg xmlns="http://www.w3.org/2000/svg" viewBox="0 0 600 600"><path fill="#2e3192" d="m546.518 121.589-4.651-36.232-35.818 7.185c-42.881 8.601-80.374-.578-104.276-9.796-27.667-10.667-51.56-26.586-75.197-50.105L302.558 8.742 278.54 32.641c-23.64 23.519-47.533 39.441-75.199 50.108-23.901 9.214-61.397 18.394-104.277 9.794L63.247 85.36l-4.654 36.232c-13.342 103.866 1.343 197.195 43.645 277.389 39.346 74.584 101.2 135.564 183.847 181.25l16.474 9.107 16.474-9.107c82.644-45.685 144.5-106.666 183.844-181.25 42.301-80.194 56.984-173.524 43.641-277.392"/><path fill="#fff" d="m529.631 123.761-2.327-18.118-17.91 3.593c-46.892 9.404-87.734-.574-113.747-10.603-29.947-11.546-55.714-28.682-81.079-53.923l-12.01-11.951L290.55 44.71c-25.372 25.241-51.136 42.378-81.084 53.923-26.009 10.028-66.855 20.008-113.748 10.603l-17.909-3.589-2.327 18.115C62.593 224.078 76.664 314.003 117.3 391.035c37.77 71.599 97.329 130.241 177.022 174.293l8.237 4.551 8.237-4.551c79.691-44.052 139.25-102.694 177.019-174.293 40.634-77.034 54.704-166.956 41.816-267.274"/><path fill="#00aeef" d="M298.555 52.756c-26.528 26.392-53.539 44.336-85.007 56.47-39.313 15.157-80.83 19.009-120.065 11.14l-5.967-1.196-.777 6.039c-12.585 97.952 1.076 185.609 40.599 260.53 36.722 69.613 94.75 126.691 172.475 169.655l2.745 1.519 2.744-1.519c77.724-42.964 135.753-100.042 172.474-169.655 39.523-74.924 53.179-162.58 40.599-260.531l-.776-6.039-5.969 1.197c-39.234 7.87-80.752 4.016-120.066-11.141-31.469-12.133-58.478-30.076-85.002-56.468l-4.003-3.981z"/><path fill="#fff" d="M408.396 235.453v227.35c23.751-25.006 43.585-52.495 59.339-82.359 4.027-7.632 7.747-15.418 11.22-23.325V199.501zm0-108.667v.122l.157-.079q-.076-.024-.157-.043M267.275 522.148a498 498 0 0 0 35.283 21.74 499 499 0 0 0 35.28-21.74V271.404l-70.563 35.952zm70.563-428.495c-12.091-8.324-23.753-17.942-35.28-29.038-11.529 11.096-23.19 20.714-35.283 29.038v105.158l70.563-35.953zm-141.123 33.133c-23.304 6.619-47.086 9.539-70.559 8.704v135.225l70.559-35.952zm-59.337 253.657c15.754 29.864 35.587 57.353 59.337 82.359V343.31l-62.153 31.67a309 309 0 0 0 2.816 5.463M425.454 130.94c15.321 3.159 30.823 4.792 46.115 4.768 12.134-.018 24.267-1.117 36.181-3.152 1.5 12.745 2.583 25.449 3.169 37.935-6.429 3.277-370.985 189.028-381.203 194.235-10.435-22.358-18.707-46.03-24.606-70.562 7.857-4.005 316.983-161.511 320.344-163.224"/><path fill="#00aeef" d="M221.611 291.014c-.759 4.955-1.909 8.608-3.417 10.859-1.502 2.251-3.586 4.03-6.367 5.45-3.182 1.621-6.422 2.315-9.628 2.071-3.229-.243-6.094-1.423-8.761-3.615-2.719-2.221-5.121-5.364-7.152-9.346-2.474-4.858-3.881-9.301-4.181-13.205-.291-3.779.326-6.972 1.829-9.494 1.542-2.584 3.665-4.541 6.487-5.977 2.192-1.119 4.399-1.729 6.563-1.822 2.696-.114 5.906.62 8.81 2.015 2.038.975 3.812 2.272 5.425 3.966l.812.847 3.706-1.888-11.306-16.398-1.256.72-1.987 1.134.281 1.151c.044.183.065.388.065.597 0 .746-.273 1.573-.768 1.824-.005 0-.385.13-1.7.115-4.333.027-8.314.958-11.866 2.767-4.52 2.302-8.176 5.594-10.868 9.78-2.687 4.212-4.103 8.971-4.211 14.15-.096 5.161 1.101 10.219 3.553 15.034 3.061 6.005 7.435 10.456 13.007 13.226 7.527 3.766 15.452 3.584 23.544-.541 4.492-2.288 7.919-5.332 10.189-9.057 2.249-3.711 3.504-8.394 3.733-13.926l.058-1.489-4.367-.42zm115.141-45.701c-1.075.466-2.104.432-4.232-.135-.753-.201-2.535-.975-5.976-3.895l-36.466-30.915-.933.477-2.115 1.076 3.184 47.349c.343 4.761-.016 6.958-.377 7.964-.636 1.768-1.017 2.391-1.854 3.035l-1.037.799 1.606 3.146 16.669-8.5-1.602-3.135-1.24.35c-2.797.784-4.525.709-4.996-.214-.203-.397-.563-1.443-.717-3.999l-.521-7.859 16.032-8.167 5.377 4.543c2.315 1.957 3.122 3.007 3.396 3.543q.12.236.118.52c0 1.067-1.158 2.55-2.144 3.119l-1.295.748 1.716 3.357 20.475-10.437-1.712-3.352zm-42.137-17.626 12.715 10.754-11.636 5.93zm122.892-23.368-1.351.564c-2.038.858-2.589 1.087-4.55.308-.037-.015-.926-.413-2.809-4.098 0 0-15.958-31.323-17.276-33.913 1.725-.88 5.112-2.603 5.112-2.603 1.661-.846 3.123-1.264 4.351-1.238 2.096.048 4.124 1.288 5.566 3.397l.779 1.143 4.148-2.108-8.157-11.769-1.225.626-37.151 18.921 4.361 12.968 4.218-2.149-.557-1.346c-.266-.634-.391-1.371-.391-2.13 0-1.601.555-3.299 1.525-4.344.419-.43 1.453-1.232 3.918-2.489l4.159-2.119 17.277 33.914c1.493 2.93 1.624 4.053 1.624 4.352 0 .041-.005.065-.005.077-.301 2.255-.905 2.676-2.953 3.788l-1.351.733 1.744 3.407 20.689-10.56z"/></svg>