<svg height="1000" viewBox="0 0 1000 1000" width="1000" xmlns="http://www.w3.org/2000/svg"><g transform="matrix(4.7062368 0 0 4.7062368 -2382.6053 -1391.5924)"><g><path d="m 651.416 357.286 l .001 -.001 l 1.538 -2.439 c 2.842 -4.735 1.499 -13.425 -4.43 -17.114 c -2.56 -1.593 -5.677 -1.66 -8.34 -.181 c -2.011 1.117 -3.31 2.89 -3.31 4.516 c 0 1.797 .96 2.728 1.765 3.192 c 1.229 .708 2.898 .773 3.97 .153 c 1.725 -.999 .984 -3.567 .952 -3.676 l -.87 -2.925 l 2.669 1.468 c 3.528 1.941 5.442 4.357 5.688 7.181 c .018 .204 .026 .406 .026 .607 c 0 2.846 -1.69 5.356 -3.098 6.959 c 1.172 .716 2.314 1.477 3.439 2.26 z" fill="none"/><path d="m 573.057 348.067 c 0 -.201 .008 -.403 .026 -.607 c .246 -2.824 2.159 -5.241 5.688 -7.182 l 2.668 -1.462 l -.869 2.92 c -.032 .109 -.773 2.677 .952 3.675 c 1.07 .62 2.74 .556 3.969 -.153 c .805 -.464 1.765 -1.395 1.765 -3.192 c 0 -1.626 -1.299 -3.398 -3.31 -4.516 c -2.663 -1.479 -5.78 -1.412 -8.339 .181 c -5.93 3.689 -7.272 12.379 -4.432 17.114 l 1.538 2.438 c .087 .136 .183 .287 .274 .429 c 1.138 -.811 2.298 -1.591 3.487 -2.332 c -1.456 -1.57 -3.417 -4.247 -3.417 -7.313 z" fill="none"/><path d="m 596.869 346.905 c .027 -.006 .054 -.012 .08 -.019 c -.029 -.026 -.055 -.054 -.084 -.081 c .002 .033 .001 .068 .004 .1 z" fill="none"/><path d="m 554.502 416.195 c .08 .264 .208 .48 .383 .65 c .175 .169 .456 .302 .845 .398 c .389 .096 .915 .131 1.579 .105 c .663 -.026 1.171 -.102 1.522 -.227 c .35 -.126 .622 -.292 .813 -.5 c .191 -.208 .316 -.468 .374 -.778 c .045 -.231 .055 -.684 .029 -1.354 l -.029 -.74 l -5.686 .224 l .048 1.229 c .019 .46 .059 .791 .122 .993 z" fill="#0054a6"/><path d="M 659.982 443.395 L 656.704 442.574 L 658.755 445.252 Z" fill="#0054a6"/><path d="m 555.844 406.531 c .255 .038 .48 .012 .676 -.078 c .195 -.091 .351 -.241 .465 -.451 c .115 -.209 .228 -.686 .34 -1.426 l .199 -1.316 l -2.271 -.343 l -.228 1.508 c -.089 .587 -.128 .962 -.117 1.126 c .01 .249 .093 .463 .25 .643 c .155 .179 .384 .291 .686 .337 z" fill="#0054a6"/><path d="m 654.178 447.938 c -.056 -.197 -.18 -.381 -.373 -.552 c -.218 -.19 -.441 -.29 -.672 -.298 c -.23 -.008 -.451 .074 -.662 .243 c -.104 .087 -.375 .382 -.816 .883 l -.851 .965 l 1.637 1.441 l .806 -.915 c .522 -.593 .822 -.986 .899 -1.181 c .077 -.195 .087 -.389 .032 -.586 z" fill="#0054a6"/><path d="m 567.521 444.164 c .167 .125 .353 .188 .558 .185 c .205 -.002 .415 -.073 .63 -.215 c .241 -.159 .396 -.35 .463 -.569 c .068 -.22 .047 -.454 -.06 -.703 c -.058 -.122 -.27 -.462 -.638 -1.021 l -.707 -1.072 l -1.819 1.199 l .671 1.018 c .434 .66 .735 1.052 .902 1.178 z" fill="#0054a6"/><path d="m 559.458 406.773 c .263 .039 .486 .003 .672 -.109 c .185 -.113 .315 -.303 .391 -.569 c .044 -.158 .123 -.621 .24 -1.388 l .142 -.935 l -1.965 -.298 l -.161 1.068 c -.096 .635 -.146 1.03 -.15 1.188 c -.007 .284 .061 .518 .205 .704 c .143 .184 .352 .297 .626 .339 z" fill="#0054a6"/><path d="m 618.146 466.811 c -.137 -.346 -.312 -.611 -.526 -.796 c -.215 -.184 -.477 -.3 -.79 -.348 c -.233 -.038 -.685 -.032 -1.354 .017 l -.738 .054 l .414 5.675 l 1.227 -.09 c .459 -.033 .788 -.084 .987 -.154 c .262 -.089 .474 -.224 .638 -.404 c .163 -.181 .286 -.467 .369 -.858 c .083 -.391 .101 -.919 .053 -1.581 c -.051 -.664 -.143 -1.169 -.28 -1.515 z" fill="#0054a6"/><path d="M 667.6 424.469 L 664.245 424.879 L 667.119 426.643 Z" fill="#0054a6"/><path d="M 625.338 468.033 L 623.572 465.152 L 623.161 468.5 Z" fill="#0054a6"/><path d="M 638.709 463.037 L 636.269 460.698 L 636.721 464.04 Z" fill="#0054a6"/><path d="m 670.534 411.215 c -.077 -.265 -.201 -.483 -.374 -.655 c -.172 -.172 -.452 -.309 -.84 -.41 c -.388 -.102 -.914 -.145 -1.578 -.128 c -.664 .018 -1.172 .086 -1.524 .206 c -.353 .12 -.626 .283 -.82 .488 c -.194 .206 -.322 .463 -.385 .772 c -.049 .232 -.065 .684 -.048 1.355 l .019 .74 l 5.69 -.145 l -.031 -1.23 c -.013 -.458 -.049 -.79 -.109 -.993 z" fill="#0054a6"/><path d="M 607.702 469.306 L 609.924 469.447 L 609.003 466.194 Z" fill="#0054a6"/><path d="m 561.112 439.208 c .63 .169 1.396 .042 2.297 -.381 c .891 -.419 1.468 -.916 1.732 -1.493 c .264 -.577 .251 -1.174 -.037 -1.788 c -.289 -.614 -.744 -1.006 -1.364 -1.174 c -.621 -.168 -1.378 -.042 -2.272 .378 c -.88 .414 -1.457 .92 -1.73 1.52 c -.273 .6 -.27 1.197 .01 1.792 c .28 .594 .734 .976 1.364 1.146 z" fill="#0054a6"/><path d="m 560.434 430.346 c .15 .183 .335 .305 .555 .367 c .22 .063 .451 .056 .693 -.02 c .298 -.092 .519 -.252 .661 -.479 c .143 -.227 .198 -.475 .168 -.745 c -.021 -.199 -.119 -.583 -.294 -1.149 l -.235 -.761 l -2.328 .72 l .267 .861 c .191 .622 .362 1.023 .513 1.206 z" fill="#0054a6"/><path d="M 649.968 455.198 L 647.035 453.52 L 648.281 456.652 Z" fill="#0054a6"/><path d="m 582.164 463.048 c .56 .343 1.15 .412 1.769 .207 c .619 -.205 1.189 -.732 1.708 -1.582 c .514 -.839 .722 -1.572 .625 -2.199 c -.097 -.628 -.436 -1.118 -1.015 -1.473 c -.58 -.354 -1.174 -.431 -1.785 -.229 c -.61 .201 -1.174 .723 -1.69 1.565 c -.507 .83 -.71 1.569 -.607 2.221 c .103 .65 .435 1.147 .995 1.49 z" fill="#0054a6"/><path d="m 544.288 413.298 c 0 37.675 30.54 68.213 68.213 68.213 c 37.675 0 68.213 -30.538 68.213 -68.213 c 0 -20.923 -9.429 -39.636 -24.259 -52.148 c 2.308 -4.065 4.433 -9.197 4.433 -14.352 c 0 -.956 -.072 -1.912 -.231 -2.861 c -.855 -5.13 -3.76 -9.469 -7.97 -11.902 c -4.146 -2.397 -9.183 -2.69 -14.18 -.825 c -.046 .018 -2.438 1.077 -2.438 1.077 c -3.397 1.544 -6.606 3.003 -10.554 2.587 l -1.271 -.134 l -.107 1.273 c -.003 .035 -.005 .082 -.005 .141 c 0 .532 .236 1.993 2.288 3.498 c -.978 1.133 -1.898 2.76 -1.898 4.76 c 0 .572 .099 1.177 .268 1.799 c -1.665 -.303 -3.346 -.56 -5.05 -.74 c -.103 -.258 -.207 -.515 -.303 -.781 c 1.659 -1.45 2.909 -3.35 3.54 -5.52 c .13 -.48 .239 -.98 .31 -1.49 c .09 -.55 .14 -1.12 .14 -1.7 c 0 -.62 -.06 -1.22 -.149 -1.81 c -.08 -.51 -.19 -1 -.33 -1.48 c -.26 -.87 -.62 -1.69 -1.07 -2.47 c 3.271 -2.63 6.101 -6.56 5.84 -9.66 c -.3 -3.6 -6.43 -7.48 -7.13 -7.91 l -.24 -.15 c .02 -.11 .04 -.21 .04 -.32 v -6.15 l -.1 -.17 c -.12 -.22 -3.07 -5.4 -9.03 -4.81 l -.67 .07 c 0 0 0 6.37 0 7.15 c -1.76 .97 -9.42 5.48 -9.42 11 c 0 .09 0 .18 .01 .28 l .04 .85 l .84 -.15 c .5 -.09 2.28 -.42 4.52 -.92 c -.59 2.63 -.35 4.9 0 6.41 c -2.78 1.45 -4.9 4 -5.78 7.07 c -.14 .48 -.24 .98 -.32 1.49 c -.08 .55 -.13 1.11 -.13 1.68 c 0 .54 .05 1.06 .12 1.58 c .07 .51 .17 1.01 .31 1.5 c .6 2.19 1.84 4.11 3.5 5.57 c -.087 .306 -.195 .645 -.326 1.007 c -1.567 .196 -3.121 .436 -4.654 .736 c .201 -.68 .307 -1.339 .307 -1.96 c 0 -2.001 -.92 -3.628 -1.898 -4.762 c 2.053 -1.504 2.289 -2.965 2.289 -3.498 c 0 -.058 -.003 -.105 -.005 -.141 l -.106 -1.273 l -1.271 .134 c -3.949 .416 -7.157 -1.043 -10.554 -2.587 l -2.392 -1.059 c -5.043 -1.884 -10.079 -1.591 -14.225 .806 c -4.21 2.434 -7.115 6.772 -7.97 11.903 c -.158 .95 -.231 1.905 -.231 2.861 c 0 5.37 2.305 10.718 4.721 14.857 c -14.49 12.51 -23.675 30.998 -23.675 51.644 z m 81.79 -67.081 c -1.385 -4.151 2.352 -6.78 2.352 -6.78 c -3.182 -1.66 -3.044 -3.321 -3.044 -3.321 c 5.258 .554 9.271 -1.938 13.56 -3.736 c 10.378 -3.874 18.957 2.629 20.478 11.762 c 1.523 9.132 -5.534 19.648 -9.547 24.214 c -4.013 4.566 -5.397 11.9 -4.567 15.774 c .831 3.875 -2.213 4.428 -2.213 4.428 c .415 3.46 -2.63 4.151 -2.63 4.151 c .691 6.642 -.415 7.61 -.415 7.61 c -10.377 -9.409 10.654 -39.296 13.975 -44.831 c 3.321 -5.535 1.385 -14.944 -4.842 -18.818 c -6.227 -3.875 -13.56 .83 -13.56 5.396 c 0 4.566 4.981 5.95 7.61 4.428 c 2.629 -1.522 1.522 -5.12 1.522 -5.12 c 11.068 6.088 .553 14.529 .553 14.529 c .969 4.843 -3.32 5.12 -3.32 5.12 c 1.938 -2.49 .139 -5.258 .139 -5.258 c -9.272 .138 -9.687 -8.025 -9.687 -8.025 l -3.044 2.629 c -1.66 -.83 -.553 -5.535 -.553 -5.535 c -1.107 -.416 -2.767 1.383 -2.767 1.383 z m 37.39 36.161 l .892 1.517 l -5.925 6.87 l -.906 -1.54 l 4.433 -5.003 l -6.493 1.5 l -.886 -1.507 z m -3.697 -2.623 l 1.355 -.936 l .889 1.288 l -1.355 .935 z m 7.535 13.729 c -.147 -.412 -.413 -.717 -.796 -.915 c -.382 -.198 -.893 -.255 -1.531 -.171 l -.037 -1.683 c .965 -.087 1.758 .061 2.379 .443 c .621 .382 1.08 .985 1.375 1.809 c .367 1.02 .301 1.989 -.197 2.909 c -.497 .92 -1.383 1.608 -2.655 2.065 c -1.346 .484 -2.51 .529 -3.491 .137 c -.982 -.393 -1.666 -1.126 -2.052 -2.202 c -.338 -.939 -.319 -1.807 .055 -2.604 c .221 -.473 .623 -.913 1.207 -1.32 l .938 1.396 c -.387 .241 -.649 .549 -.789 .925 c -.139 .375 -.135 .769 .014 1.181 c .204 .569 .585 .954 1.143 1.153 c .558 .2 1.318 .127 2.282 -.219 c 1.021 -.367 1.688 -.803 1.996 -1.309 c .306 -.504 .36 -1.036 .159 -1.595 z m -2.709 -5.616 l 1.488 -.703 l .668 1.415 l -1.488 .703 z m 4.824 13.04 l 1.43 -.227 l .974 6.129 l -8.484 1.348 l -.948 -5.976 l 1.435 -.228 l .691 4.348 l 1.88 -.298 l -.643 -4.046 l 1.43 -.228 l .643 4.046 l 2.31 -.366 z m .763 27.62 l -.377 1.707 l -7.703 -4.958 l .377 -1.701 l 9.093 -1.337 l -.387 1.75 l -2.059 .275 l -.704 3.185 z m -9.246 19.582 l -.964 1.458 l -5.41 -7.39 l .961 -1.453 l 8.966 2.014 l -.988 1.495 l -2.021 -.482 l -1.799 2.721 z m -4.777 5.787 l -1.089 1.236 l -6.448 -5.678 l 2.292 -2.603 c .576 -.654 1.053 -1.079 1.43 -1.273 c .378 -.194 .793 -.251 1.246 -.168 c .453 .082 .87 .292 1.251 .627 c .483 .427 .765 .913 .842 1.461 c .077 .548 -.08 1.126 -.471 1.736 c .399 -.123 .774 -.185 1.124 -.186 c .35 -.001 .905 .071 1.666 .218 l 1.917 .36 l -1.303 1.479 l -2.19 -.342 c -.78 -.124 -1.288 -.185 -1.521 -.183 c -.233 .002 -.432 .047 -.596 .135 c -.163 .089 -.37 .274 -.62 .559 l -.221 .251 z m -6.555 6.099 l -1.323 1.142 l -3.201 -8.579 l 1.319 -1.139 l 8.082 4.371 l -1.356 1.17 l -1.815 -1.012 l -2.47 2.13 z m -12.409 7.609 l -1.561 .787 l -1.03 -9.099 l 1.556 -.785 l 6.786 6.194 l -1.601 .808 l -1.515 -1.42 l -2.913 1.47 z m -10.142 -5.266 l 1.554 -.549 l 2.354 6.667 l 3.863 -1.364 l .481 1.364 l -5.417 1.913 z m 1.962 8.383 l -1.753 .375 l -1.105 -1.759 l -3.189 .683 l -.251 2.05 l -1.709 .365 l 1.31 -9.064 l 1.704 -.365 z m 12.633 -8.407 l 1.187 -1.02 c .289 .399 .54 .65 .751 .753 c .32 .157 .631 .135 .934 -.067 c .306 -.204 .46 -.44 .464 -.709 c .003 -.268 -.189 -.69 -.575 -1.269 l -3.086 -4.613 l 1.365 -.913 l 3.024 4.52 c .396 .591 .65 1.078 .765 1.463 c .146 .504 .128 .999 -.053 1.483 c -.18 .485 -.556 .919 -1.126 1.301 c -.669 .447 -1.316 .595 -1.941 .442 c -.626 -.153 -1.195 -.61 -1.709 -1.371 z m 21.753 -23.553 l .481 -1.537 c .559 .134 1.018 .118 1.378 -.049 c .361 -.166 .64 -.479 .837 -.94 c .209 -.487 .258 -.901 .146 -1.241 c -.111 -.341 -.313 -.573 -.603 -.698 c -.187 -.079 -.368 -.096 -.544 -.048 c -.175 .048 -.367 .181 -.575 .399 c -.141 .149 -.429 .505 -.864 1.064 c -.56 .721 -1.064 1.18 -1.513 1.374 c -.632 .274 -1.26 .277 -1.885 .01 c -.402 -.172 -.731 -.441 -.989 -.808 c -.258 -.367 -.391 -.793 -.398 -1.279 c -.009 -.485 .11 -1.017 .357 -1.594 c .403 -.941 .924 -1.557 1.562 -1.846 c .639 -.29 1.325 -.291 2.061 -.004 l -.579 1.544 c -.434 -.109 -.784 -.095 -1.054 .042 c -.269 .137 -.495 .419 -.678 .845 c -.189 .44 -.24 .825 -.157 1.155 c .054 .213 .183 .363 .388 .451 c .187 .08 .379 .073 .575 -.02 c .251 -.119 .626 -.508 1.124 -1.166 c .499 -.658 .922 -1.122 1.269 -1.391 c .347 -.27 .733 -.431 1.157 -.485 c .426 -.054 .887 .026 1.387 .239 c .452 .194 .824 .495 1.117 .903 c .293 .408 .442 .871 .447 1.39 c .005 .52 -.132 1.105 -.411 1.756 c -.406 .947 -.949 1.577 -1.628 1.888 c -.679 .31 -1.482 .326 -2.408 .046 z m 3.991 -6.823 l .483 -1.487 l 1.565 .508 l -.482 1.488 z m 4.167 -10.57 l -1.635 -.2 l .189 -1.553 l 1.635 .2 z m -7.989 -6.101 l -.076 -3.011 c -.018 -.679 .024 -1.198 .124 -1.558 c .137 -.481 .39 -.898 .76 -1.25 c .371 -.351 .828 -.622 1.372 -.814 c .545 -.191 1.219 -.298 2.023 -.318 c .707 -.018 1.319 .051 1.835 .205 c .63 .188 1.143 .466 1.54 .835 c .3 .278 .538 .658 .715 1.141 c .13 .36 .203 .845 .218 1.453 l .079 3.101 z m -4.989 -1.97 c 0 25.41 -20.672 46.082 -46.082 46.082 c -25.41 0 -46.082 -20.672 -46.082 -46.082 c 0 -11.529 4.266 -22.074 11.289 -30.164 c -.031 .254 -.061 .511 -.109 .734 c -.115 .537 -.173 1.046 -.173 1.527 c 0 .265 .02 .52 .055 .768 c -5.829 7.505 -9.312 16.918 -9.312 27.135 c 0 24.444 19.887 44.332 44.332 44.332 c 24.444 0 44.332 -19.888 44.332 -44.332 c 0 -10.426 -3.578 -20.299 -10.147 -28.226 c -.019 -.386 -.063 -.784 -.153 -1.204 c -.112 -.523 -.168 -1.151 -.187 -1.832 c 7.901 8.538 12.237 19.565 12.237 31.262 z m -38.572 56.819 c -.158 .639 -.412 1.164 -.761 1.578 c -.264 .313 -.632 .568 -1.106 .768 c -.353 .147 -.834 .243 -1.44 .287 l -3.092 .226 l -.624 -8.567 l 3.002 -.22 c .678 -.049 1.197 -.032 1.561 .052 c .488 .113 .916 .346 1.284 .699 c .368 .352 .661 .797 .879 1.331 c .217 .534 .355 1.203 .414 2.006 c .051 .704 .012 1.319 -.117 1.84 z m -28.463 -3.238 c .232 .625 .676 1.057 1.333 1.293 c .325 .117 .674 .167 1.049 .15 c .375 -.016 .713 -.078 1.016 -.185 l .37 -1.025 l -1.775 -.64 l .491 -1.361 l 3.342 1.204 l -1.161 3.22 c -.444 .213 -1.019 .335 -1.726 .364 c -.707 .03 -1.377 -.069 -2.009 -.297 c -.803 -.29 -1.439 -.72 -1.909 -1.289 c -.469 -.569 -.735 -1.238 -.797 -2.007 c -.063 -.768 .046 -1.539 .325 -2.314 c .303 -.842 .74 -1.529 1.312 -2.063 c .572 -.534 1.242 -.858 2.014 -.975 c .589 -.091 1.25 -.004 1.983 .261 c .953 .344 1.622 .822 2.006 1.436 c .384 .613 .519 1.319 .406 2.117 l -1.649 -.252 c .035 -.436 -.056 -.822 -.271 -1.16 c -.216 -.337 -.547 -.586 -.994 -.747 c -.678 -.244 -1.298 -.212 -1.86 .096 c -.563 .308 -1.004 .906 -1.325 1.796 c -.347 .96 -.404 1.752 -.171 2.378 z m 6.535 .223 l .917 -4.489 l 1.615 .33 l -.931 4.559 c -.148 .724 -.224 1.196 -.228 1.419 c -.001 .358 .107 .668 .325 .93 c .217 .262 .551 .439 1.002 .531 c .458 .094 .824 .065 1.097 -.084 c .273 -.149 .462 -.363 .568 -.641 c .106 -.277 .227 -.749 .363 -1.415 l .951 -4.656 l 1.615 .33 l -.902 4.42 c -.207 1.011 -.396 1.716 -.568 2.115 c -.173 .399 -.405 .719 -.699 .958 c -.293 .238 -.654 .403 -1.081 .494 c -.427 .09 -.958 .07 -1.59 -.06 c -.764 -.155 -1.324 -.366 -1.681 -.633 c -.357 -.267 -.62 -.571 -.788 -.914 c -.169 -.344 -.256 -.685 -.262 -1.026 c -.008 -.503 .085 -1.226 .277 -2.168 z m 10.197 -2.961 l 1.738 .11 l 2.717 8.779 l -1.788 -.113 l -.587 -1.992 l -3.255 -.206 l -.795 1.904 l -1.744 -.11 z m -36.938 -7.733 l -1.175 -1.154 l 6.021 -6.129 l 1.175 1.154 l -.093 .095 l 1.36 1.116 l -2.432 6.227 l 5.576 -3.65 l 1.353 1.108 l -7.707 4.791 l -1.361 -1.116 l 3.164 -8.428 z m -5.98 -12.661 c -.043 -.181 -.168 -.43 -.376 -.745 l -.184 -.279 l -2.993 1.974 l -.907 -1.375 l 7.169 -4.728 l 1.908 2.895 c .48 .728 .765 1.3 .854 1.715 c .088 .414 .033 .829 -.165 1.245 c -.199 .415 -.51 .763 -.933 1.042 c -.538 .354 -1.081 .497 -1.63 .428 c -.549 -.069 -1.065 -.373 -1.551 -.91 c .013 .418 -.025 .795 -.116 1.133 c -.091 .338 -.307 .855 -.647 1.551 l -.851 1.754 l -1.084 -1.646 l .905 -2.022 c .324 -.721 .517 -1.194 .576 -1.42 c .059 -.227 .067 -.431 .025 -.612 z m 2.443 -59.03 c -.195 -.559 -.73 -1.104 -1.605 -1.635 c -.928 -.563 -1.686 -.805 -2.273 -.727 c -.586 .078 -1.034 .371 -1.342 .879 c -.227 .375 -.297 .772 -.21 1.194 c .087 .422 .363 .854 .83 1.298 l -1.284 1.09 c -.675 -.695 -1.059 -1.405 -1.152 -2.128 c -.094 -.723 .087 -1.46 .541 -2.208 c .562 -.927 1.357 -1.486 2.385 -1.679 c 1.028 -.193 2.12 .061 3.275 .762 c 1.222 .741 1.989 1.617 2.302 2.627 c .312 1.01 .172 2.004 -.421 2.982 c -.518 .854 -1.204 1.386 -2.059 1.597 c -.506 .127 -1.102 .091 -1.786 -.106 l .496 -1.608 c .431 .148 .836 .159 1.215 .031 c .379 -.128 .683 -.38 .91 -.754 c .314 -.517 .373 -1.056 .178 -1.615 z m -.957 5.5 l -.668 1.506 l -6.464 -2.869 l -1.663 3.745 l -1.323 -.587 l 2.331 -5.252 z m -9.876 3.747 c .357 -.138 .705 -.195 1.044 -.171 c .502 .037 1.214 .193 2.135 .467 l 4.391 1.306 l -.47 1.58 l -4.459 -1.326 c -.708 -.21 -1.172 -.328 -1.394 -.351 c -.357 -.033 -.675 .048 -.955 .242 c -.28 .193 -.485 .511 -.616 .952 c -.133 .449 -.138 .815 -.013 1.101 c .125 .285 .321 .492 .588 .622 c .267 .13 .726 .291 1.377 .485 l 4.554 1.354 l -.47 1.58 l -4.324 -1.286 c -.988 -.294 -1.674 -.545 -2.056 -.751 c -.383 -.207 -.68 -.467 -.893 -.78 c -.212 -.313 -.345 -.686 -.397 -1.12 c -.052 -.434 .014 -.96 .198 -1.579 c .222 -.747 .482 -1.287 .778 -1.619 c .299 -.333 .625 -.568 .982 -.706 z m 5.591 8.391 l -.488 3.226 c -.096 .639 -.196 1.11 -.3 1.416 c -.104 .305 -.263 .568 -.478 .789 c -.215 .221 -.483 .392 -.803 .512 c -.32 .12 -.664 .153 -1.031 .098 c -.398 -.061 -.748 -.218 -1.049 -.472 c -.302 -.254 -.509 -.567 -.623 -.941 c -.225 .47 -.538 .809 -.942 1.018 c -.403 .209 -.85 .277 -1.341 .203 c -.386 -.059 -.749 -.201 -1.088 -.427 c -.339 -.226 -.596 -.503 -.769 -.831 c -.173 -.329 -.253 -.713 -.237 -1.154 c .01 -.275 .09 -.934 .239 -1.974 l .415 -2.747 z m -1.157 9.692 l .118 3.01 c .027 .678 -.008 1.197 -.103 1.558 c -.13 .484 -.377 .904 -.742 1.261 c -.365 .355 -.819 .633 -1.36 .833 c -.542 .199 -1.214 .315 -2.019 .347 c -.707 .027 -1.319 -.032 -1.837 -.18 c -.632 -.179 -1.149 -.45 -1.551 -.813 c -.304 -.273 -.547 -.65 -.731 -1.13 c -.135 -.358 -.215 -.842 -.238 -1.45 l -.122 -3.098 z m .332 7.086 l 1.032 5.962 l -1.432 .248 l -.751 -4.339 l -1.877 .324 l .698 4.037 l -1.426 .247 l -.698 -4.037 l -2.305 .398 l .777 4.493 l -1.426 .246 l -1.058 -6.116 z m 1.144 6.424 l .781 2.525 c .296 .957 .448 1.594 .456 1.91 c .016 .484 -.137 .941 -.456 1.37 c -.319 .429 -.805 .744 -1.458 .946 c -.503 .156 -.954 .2 -1.351 .133 c -.397 -.068 -.735 -.205 -1.013 -.412 c -.279 -.207 -.493 -.439 -.642 -.696 c -.194 -.352 -.402 -.884 -.623 -1.596 l -.317 -1.026 l -3.095 .957 l -.487 -1.574 z m -4.645 10.022 c .401 -.979 1.22 -1.76 2.457 -2.341 c .792 -.372 1.509 -.571 2.152 -.599 c .475 -.018 .938 .044 1.389 .188 c .451 .143 .834 .352 1.148 .626 c .421 .363 .773 .847 1.055 1.447 c .511 1.089 .565 2.127 .162 3.114 c -.404 .986 -1.238 1.777 -2.503 2.372 c -1.255 .589 -2.389 .727 -3.402 .41 c -1.014 -.315 -1.775 -1.016 -2.285 -2.101 c -.516 -1.097 -.574 -2.136 -.173 -3.116 z m 13.921 11.267 l -1.578 -1.836 l 1.102 -.947 l 4.227 4.92 l -1.103 .946 l -1.574 -1.833 l -5.413 4.65 l -1.074 -1.25 z m 8.141 11.655 c .456 -.746 .945 -1.308 1.467 -1.685 c .386 -.276 .807 -.478 1.263 -.607 c .455 -.129 .89 -.166 1.304 -.109 c .552 .072 1.111 .281 1.678 .628 c 1.026 .628 1.642 1.465 1.848 2.511 c .206 1.047 -.056 2.166 -.785 3.359 c -.724 1.182 -1.595 1.921 -2.615 2.215 c -1.019 .294 -2.04 .128 -3.063 -.497 c -1.035 -.634 -1.655 -1.47 -1.86 -2.508 c -.205 -1.038 .049 -2.141 .763 -3.307 z m 2.957 -57.241 l .838 .733 l .825 -.748 c 4.676 -4.239 3.695 -11.956 .695 -19.961 c 1.103 -.928 2.25 -1.804 3.446 -2.616 c 0 -1.024 0 -2.02 0 -2.974 c -1.538 .962 -3.013 2.014 -4.417 3.151 c -.232 -.554 -.472 -1.107 -.719 -1.659 c 1.628 -1.291 3.342 -2.477 5.137 -3.542 c 0 -3.03 0 -5.476 0 -6.811 c 0 -6.503 -2.906 -9.271 -2.906 -9.271 h 11.841 l 14.475 6.367 l 12.489 -6.367 h 13.497 c 0 0 -2.904 2.768 -2.904 9.271 c 0 1.296 0 3.642 0 6.551 c 1.692 .981 3.325 2.073 4.894 3.274 c -.25 .549 -.493 1.1 -.73 1.65 c -1.34 -1.046 -2.727 -2.014 -4.164 -2.892 c 0 .948 0 1.939 0 2.96 c 1.093 .724 2.153 1.505 3.182 2.337 c -3.166 8.207 -4.307 16.19 .479 20.53 l .825 .748 l .838 -.733 c .534 -.468 1.072 -1.682 1.072 -4.679 c 0 -.85 -.06 -1.892 -.159 -3.05 c .374 -.193 .754 -.461 1.107 -.793 c .776 -.73 1.411 -1.807 1.47 -3.327 c .49 -.25 1.063 -.661 1.526 -1.312 c 2.088 2.755 3.81 5.733 5.143 8.877 c 2.159 5.096 3.298 10.619 3.298 16.32 c 0 5.771 -1.175 11.272 -3.298 16.279 c -1.961 4.624 -4.738 8.817 -8.139 12.417 c -2.672 2.828 -5.729 5.287 -9.094 7.286 c -2.551 1.516 -5.277 2.765 -8.139 3.716 c -2.905 .966 -5.947 1.628 -9.094 1.933 c -1.34 .13 -2.696 .201 -4.069 .201 c -1.373 0 -2.729 -.071 -4.069 -.201 c -3.234 -.314 -6.357 -1.004 -9.334 -2.014 c -2.863 -.972 -5.59 -2.236 -8.139 -3.773 c -3.371 -2.033 -6.429 -4.531 -9.094 -7.399 c -3.437 -3.7 -6.211 -8.02 -8.139 -12.772 c -1.965 -4.844 -3.058 -10.132 -3.058 -15.673 c 0 -5.541 1.092 -10.829 3.058 -15.673 c 1.3 -3.204 2.983 -6.212 4.997 -8.965 c .347 .335 .712 .584 1.042 .752 c .074 1.919 1.061 3.142 2.1 3.836 c .159 .106 .319 .202 .477 .283 c -.099 1.159 -.159 2.201 -.159 3.05 c .001 3.001 .539 4.215 1.073 4.683 z m -10.543 -43.977 l -1.538 -2.438 c -2.841 -4.735 -1.498 -13.424 4.432 -17.114 c 2.559 -1.593 5.676 -1.66 8.339 -.181 c 2.011 1.117 3.31 2.89 3.31 4.516 c 0 1.797 -.96 2.728 -1.765 3.192 c -1.229 .709 -2.898 .773 -3.969 .153 c -1.725 -.999 -.984 -3.566 -.952 -3.675 l .869 -2.92 l -2.668 1.462 c -3.529 1.941 -5.443 4.357 -5.688 7.182 c -.018 .204 -.026 .406 -.026 .607 c 0 3.066 1.961 5.743 3.417 7.313 c -1.188 .741 -2.349 1.521 -3.487 2.332 c -.091 -.142 -.187 -.293 -.274 -.429 z m 4.774 .821 c .102 .727 .354 1.371 .726 1.945 c -.89 .575 -1.765 1.171 -2.624 1.789 c -.371 -.6 -.73 -1.176 -1.076 -1.725 c .972 -.696 1.963 -1.366 2.974 -2.009 z m 15.811 -7.324 c .627 .542 1.249 1.079 1.249 1.079 l .746 -.373 c .663 -.332 1.069 -.921 1.311 -1.625 c 1.936 -.485 3.902 -.892 5.9 -1.2 c -.455 .758 -.997 1.549 -1.658 2.359 c -3.686 .688 -7.261 1.69 -10.694 2.989 c .863 -.898 1.462 -1.888 1.875 -2.811 c .423 -.139 .843 -.286 1.271 -.418 z m 11.682 -3.66 c .24 -.54 .43 -1.04 .58 -1.5 c 1.82 1.2 3.99 1.9 6.33 1.9 c 2.33 0 4.51 -.7 6.32 -1.9 c .2 .51 .41 1 .62 1.48 c -3.23 .76 -5.76 2.59 -6.79 3.43 c -2.09 -1.95 -4.7 -2.92 -7.06 -3.41 z m 22.484 2.526 c .229 .797 .647 1.476 1.376 1.841 l .745 .373 c 0 0 .773 -.668 1.465 -1.266 c .303 .09 .61 .167 .91 .261 c .35 .863 .861 1.802 1.6 2.685 c -3.454 -1.221 -7.044 -2.15 -10.741 -2.759 c -.528 -.682 -1.053 -1.445 -1.555 -2.279 c 2.1 .283 4.168 .666 6.2 1.144 z m 23.584 -2.186 c -.245 -2.824 -2.159 -5.24 -5.688 -7.181 l -2.669 -1.468 l .87 2.925 c .032 .109 .773 2.677 -.952 3.676 c -1.071 .62 -2.74 .555 -3.97 -.153 c -.805 -.464 -1.765 -1.395 -1.765 -3.192 c 0 -1.626 1.3 -3.398 3.31 -4.516 c 2.663 -1.479 5.78 -1.412 8.34 .181 c 5.929 3.689 7.271 12.379 4.43 17.114 l -1.538 2.439 l -.001 .001 c -1.125 -.783 -2.267 -1.544 -3.439 -2.26 c 1.407 -1.603 3.098 -4.113 3.098 -6.959 c 0 -.201 -.008 -.403 -.026 -.607 z m -1.16 12.226 c -.346 .548 -.705 1.119 -1.08 1.722 c -.865 -.607 -1.745 -1.194 -2.642 -1.758 c .312 -.614 .478 -1.313 .516 -2.08 c 1.092 .671 2.158 1.382 3.206 2.116 z M 599.98 354.07 c 3.82 2.64 13.45 7.64 24.15 .43 c .5 .47 .94 .85 1.3 1.14 c -1.779 .91 -12.449 6.34 -13.01 6.63 c -.58 -.26 -12.65 -5.56 -14.58 -6.41 c .79 -.59 1.5 -1.19 2.14 -1.79 z m 4.33 -5.55 c 2.42 .43 5.17 1.4 7.17 3.51 l .51 .54 l .55 -.5 c .04 -.04 3.04 -2.76 6.99 -3.57 c 1.109 2.03 2.38 3.68 3.54 4.92 c -9.811 6.47 -18.43 2.1 -22.03 -.41 c 1.47 -1.56 2.52 -3.1 3.27 -4.49 z m -21.657 8.898 c .044 -.152 .088 -.311 .138 -.433 c .287 -.01 .555 -.037 .826 -.061 c -.322 .165 -.646 .323 -.964 .494 z M 621.04 328.97 c -.63 -.82 -1.37 -1.56 -2.2 -2.19 c 1.41 -2.06 3.94 -4.82 7.28 -4.88 c -.49 2.3 -2.65 5.08 -5.08 7.07 z m -.86 -14.8 c 1.84 1.2 5.53 4.01 5.99 6.23 c -4.08 .01 -7 3.2 -8.59 5.55 c -1.39 -.79 -2.95 -1.31 -4.62 -1.46 c .5 -2.32 1.75 -6.07 4.86 -8.73 c .479 -.28 .859 -.56 1.109 -.85 c .391 -.26 .811 -.51 1.251 -.74 z m -8.77 10.29 c -1.19 .05 -2.34 .28 -3.42 .67 c -.14 -.72 -.25 -1.6 -.25 -2.6 c 0 -1.07 .14 -2.29 .51 -3.59 c 2.03 -.48 4.25 -1.07 6.16 -1.72 c -1.83 2.58 -2.65 5.38 -3 7.24 z m -8.6 -5.88 c .73 -4.89 8.78 -9.15 8.87 -9.19 l .41 -.21 c 0 0 0 -5.52 0 -6.67 c 4.12 -.05 6.37 3.22 6.8 3.93 c 0 .39 0 5.74 0 5.74 c 0 .38 -.449 1.04 -.85 1.49 c -.45 .3 -.87 .62 -1.271 .96 c -1.649 .88 -4.709 1.81 -7.91 2.61 c -.6 .15 -1.19 .29 -1.79 .43 c -1.489 .34 -2.949 .65 -4.259 .91 z m 4.19 8.63 c .44 -.24 .9 -.45 1.37 -.63 c .89 -.33 1.83 -.54 2.82 -.61 c .23 -.02 .46 -.04 .7 -.04 c .28 0 .55 .02 .81 .05 c 1.47 .11 2.859 .55 4.08 1.23 c .439 .25 .859 .53 1.26 .84 c .68 .53 1.28 1.14 1.81 1.82 c .301 .4 .58 .82 .83 1.26 c .271 .49 .5 1.02 .69 1.56 c -4.63 -.34 -8.37 -3.73 -8.42 -3.77 l -.54 -.5 l -.51 .54 c -2.69 2.85 -6.75 3.62 -9.51 3.8 c .8 -2.37 2.46 -4.34 4.61 -5.55 z m -5.15 8.77 c 0 -.58 .06 -1.14 .15 -1.69 c 2.84 -.13 7.26 -.85 10.46 -3.83 c 1.28 1.05 4.9 3.65 9.309 3.77 c .101 .57 .16 1.15 .16 1.75 c 0 .56 -.05 1.11 -.14 1.65 c -4.36 .16 -7.93 2.73 -9.19 3.77 c -3.26 -3.04 -7.78 -3.72 -10.609 -3.83 c -.09 -.52 -.14 -1.05 -.14 -1.59 z m 4.12 8.09 c -.48 -.35 -.93 -.74 -1.34 -1.17 c -1.02 -1.07 -1.81 -2.37 -2.28 -3.81 c 2.41 .13 5.89 .73 8.56 2.81 c .4 .31 .78 .63 1.13 1 l .41 .44 l .1 .1 l .12 -.11 l .42 -.39 c .021 -.02 .601 -.55 1.58 -1.2 c 1.51 -1.02 3.95 -2.33 6.731 -2.57 c -.5 1.5 -1.351 2.85 -2.45 3.94 c -.38 .38 -.8 .72 -1.231 1.03 c -1.649 1.18 -3.66 1.88 -5.83 1.88 c -2.22 0 -4.26 -.73 -5.92 -1.95 z m -9.101 2.835 c -.003 -.032 -.002 -.067 -.004 -.099 c .029 .027 .056 .054 .084 .081 c -.027 .006 -.053 .012 -.08 .018 z m -32.162 -2.763 c 1.522 -9.132 10.101 -15.636 20.479 -11.762 c 4.289 1.799 8.302 4.29 13.56 3.736 c 0 0 .138 1.661 -3.044 3.321 c 0 0 3.736 2.628 2.353 6.78 c 0 0 -1.661 -1.799 -2.768 -1.384 c 0 0 1.107 4.705 -.553 5.535 l -3.044 -2.629 c 0 0 -.416 8.163 -9.686 8.025 c 0 0 -1.799 2.768 .138 5.258 c 0 0 -4.289 -.276 -3.321 -5.12 c 0 0 -10.516 -8.44 .554 -14.529 c 0 0 -1.107 3.598 1.522 5.12 c 2.629 1.522 7.61 .139 7.61 -4.428 c 0 -4.567 -7.333 -9.271 -13.56 -5.396 c -6.227 3.874 -8.164 13.284 -4.843 18.818 c 3.321 5.535 24.352 35.422 13.975 44.831 c 0 0 -1.106 -.969 -.415 -7.61 c 0 0 -3.045 -.691 -2.629 -4.151 c 0 0 -3.044 -.553 -2.214 -4.428 c .831 -3.874 -.553 -11.207 -4.566 -15.774 c -4.013 -4.565 -11.07 -15.081 -9.548 -24.213 z m 4.779 19.956 c .401 .605 .788 1.165 1.158 1.681 c -13.177 11.621 -21.513 28.61 -21.513 47.52 c 0 34.941 28.427 63.369 63.369 63.369 c 34.941 0 63.369 -28.428 63.369 -63.369 c 0 -19.165 -8.564 -36.357 -22.052 -47.987 c .367 -.523 .749 -1.093 1.14 -1.696 c 14.026 12.004 22.941 29.817 22.941 49.683 c 0 36.061 -29.337 65.398 -65.398 65.398 c -36.061 0 -65.399 -29.337 -65.399 -65.398 c .001 -19.603 8.681 -37.205 22.385 -49.201 z" fill="#0054a6"/><path d="m 566.718 387.086 c -.379 .128 -.784 .118 -1.215 -.031 l -.496 1.608 c .684 .197 1.279 .233 1.786 .106 c .854 -.211 1.54 -.744 2.059 -1.597 c .593 -.978 .733 -1.972 .421 -2.982 c -.312 -1.01 -1.08 -1.886 -2.302 -2.627 c -1.155 -.701 -2.247 -.955 -3.275 -.762 c -1.028 .192 -1.823 .752 -2.385 1.679 c -.454 .749 -.635 1.485 -.541 2.208 c .093 .723 .477 1.433 1.152 2.128 l 1.284 -1.09 c -.466 -.443 -.743 -.876 -.83 -1.298 c -.087 -.422 -.017 -.82 .21 -1.194 c .308 -.508 .755 -.801 1.342 -.879 c .587 -.079 1.344 .164 2.273 .727 c .875 .531 1.41 1.076 1.605 1.635 c .195 .559 .136 1.098 -.178 1.615 c -.228 .374 -.531 .626 -.91 .754 z" fill="#fff"/><path d="M 558.052 392.599 L 559.715 388.854 L 566.179 391.723 L 566.848 390.217 L 559.06 386.76 L 556.729 392.012 Z" fill="#fff"/><path d="m 555.214 396.288 c -.184 .619 -.25 1.146 -.198 1.579 c .052 .434 .185 .808 .397 1.12 c .213 .314 .51 .573 .893 .78 c .382 .206 1.068 .457 2.056 .751 l 4.324 1.286 l .47 -1.58 l -4.554 -1.354 c -.651 -.194 -1.11 -.355 -1.377 -.485 c -.267 -.13 -.463 -.337 -.588 -.622 c -.125 -.285 -.121 -.651 .013 -1.101 c .131 -.44 .336 -.758 .616 -.952 c .28 -.194 .598 -.274 .955 -.242 c .222 .023 .686 .14 1.394 .351 l 4.459 1.326 l .47 -1.58 l -4.391 -1.306 c -.921 -.274 -1.633 -.43 -2.135 -.467 c -.339 -.023 -.688 .034 -1.044 .171 c -.357 .138 -.683 .372 -.98 .704 c -.298 .334 -.558 .874 -.78 1.621 z" fill="#fff"/><path d="m 553.652 403.817 c -.149 1.04 -.229 1.698 -.239 1.974 c -.015 .441 .064 .825 .237 1.154 c .174 .328 .43 .605 .769 .831 c .339 .226 .702 .368 1.088 .427 c .491 .074 .938 .006 1.341 -.203 c .403 -.209 .717 -.548 .942 -1.018 c .113 .374 .321 .688 .623 .941 c .301 .254 .651 .411 1.049 .472 c .367 .056 .711 .022 1.031 -.098 c .32 -.12 .588 -.291 .803 -.512 c .215 -.221 .375 -.484 .478 -.789 c .103 -.306 .204 -.777 .3 -1.416 l .488 -3.226 l -8.495 -1.285 z m 5.124 .725 l .161 -1.068 l 1.965 .298 l -.142 .935 c -.116 .767 -.196 1.23 -.24 1.388 c -.076 .267 -.206 .456 -.391 .569 c -.186 .112 -.409 .148 -.672 .109 c -.274 -.042 -.483 -.155 -.627 -.34 c -.144 -.186 -.212 -.42 -.205 -.704 c .005 -.157 .055 -.552 .151 -1.187 z m -3.752 -.117 l .228 -1.508 l 2.271 .343 l -.199 1.316 c -.112 .74 -.226 1.217 -.34 1.426 c -.115 .21 -.27 .36 -.465 .451 c -.195 .09 -.421 .116 -.676 .078 c -.301 -.046 -.53 -.158 -.687 -.338 c -.157 -.18 -.24 -.394 -.25 -.643 c -.01 -.163 .029 -.538 .118 -1.125 z" fill="#fff"/><path d="m 552.943 415.481 c .023 .608 .104 1.092 .238 1.45 c .183 .479 .427 .857 .731 1.13 c .401 .363 .918 .635 1.551 .813 c .518 .148 1.13 .207 1.837 .18 c .804 -.032 1.477 -.148 2.019 -.347 c .542 -.2 .995 -.478 1.36 -.833 c .365 -.356 .612 -.776 .742 -1.261 c .095 -.36 .13 -.88 .103 -1.558 l -.118 -3.01 l -8.585 .337 z m 7.076 -1.731 l .029 .74 c .026 .671 .017 1.123 -.029 1.354 c -.059 .311 -.183 .57 -.374 .778 c -.191 .208 -.463 .374 -.813 .5 c -.351 .125 -.858 .2 -1.522 .227 c -.664 .025 -1.19 -.01 -1.579 -.105 c -.389 -.097 -.67 -.229 -.845 -.398 c -.175 -.17 -.303 -.387 -.383 -.65 c -.063 -.202 -.103 -.533 -.121 -.993 l -.048 -1.229 z" fill="#fff"/><path d="M 561.338 425.343 L 562.77 425.095 L 561.738 419.133 L 553.271 420.597 L 554.33 426.713 L 555.756 426.467 L 554.979 421.974 L 557.284 421.575 L 557.982 425.612 L 559.408 425.365 L 558.71 421.328 L 560.587 421.004 Z" fill="#fff"/><path d="m 558.26 428.711 l .317 1.026 c .221 .712 .428 1.244 .623 1.596 c .149 .257 .363 .489 .642 .696 c .278 .207 .616 .344 1.013 .412 c .397 .067 .848 .023 1.351 -.133 c .653 -.202 1.139 -.518 1.458 -.946 c .319 -.429 .471 -.886 .456 -1.37 c -.008 -.316 -.16 -.953 -.456 -1.91 l -.781 -2.525 l -8.204 2.537 l .487 1.574 z m 3.721 -1.151 l .235 .761 c .175 .566 .273 .95 .294 1.149 c .03 .271 -.025 .519 -.168 .745 c -.143 .227 -.363 .387 -.661 .479 c -.243 .075 -.474 .082 -.693 .02 c -.219 -.063 -.404 -.185 -.555 -.367 c -.151 -.183 -.322 -.584 -.514 -1.205 l -.267 -.861 z" fill="#fff"/><path d="m 560.694 440.797 c 1.013 .316 2.148 .179 3.402 -.41 c 1.265 -.595 2.1 -1.386 2.503 -2.372 c .404 -.987 .35 -2.025 -.162 -3.114 c -.282 -.601 -.634 -1.084 -1.055 -1.447 c -.315 -.274 -.697 -.483 -1.148 -.626 c -.451 -.143 -.914 -.206 -1.389 -.188 c -.643 .027 -1.36 .227 -2.152 .599 c -1.237 .581 -2.056 1.361 -2.457 2.341 c -.401 .979 -.343 2.019 .173 3.117 c .51 1.084 1.272 1.784 2.285 2.1 z m -.955 -4.527 c .272 -.6 .849 -1.105 1.73 -1.52 c .894 -.42 1.651 -.546 2.272 -.378 c .62 .168 1.075 .56 1.364 1.174 c .289 .614 .301 1.211 .037 1.788 c -.264 .577 -.842 1.074 -1.732 1.493 c -.901 .423 -1.667 .55 -2.297 .381 c -.63 -.17 -1.084 -.552 -1.363 -1.146 c -.28 -.595 -.284 -1.193 -.011 -1.792 z" fill="#fff"/><path d="m 564.761 445.777 l -.905 2.022 l 1.084 1.646 l .851 -1.754 c .341 -.696 .557 -1.213 .647 -1.551 c .091 -.338 .129 -.715 .116 -1.133 c .485 .537 1.002 .841 1.551 .91 c .549 .069 1.092 -.073 1.63 -.428 c .424 -.279 .735 -.627 .933 -1.042 c .198 -.416 .253 -.831 .165 -1.245 c -.089 -.415 -.373 -.986 -.854 -1.715 l -1.908 -2.895 l -7.169 4.728 l .907 1.375 l 2.993 -1.974 l .184 .279 c .208 .315 .333 .564 .376 .745 c .042 .181 .033 .385 -.026 .61 c -.059 .228 -.251 .702 -.575 1.422 z m 3.005 -5.007 l .707 1.072 c .368 .559 .58 .898 .638 1.021 c .108 .249 .128 .483 .06 .703 c -.068 .22 -.222 .41 -.463 .569 c -.215 .142 -.425 .213 -.63 .215 c -.205 .002 -.391 -.06 -.558 -.185 c -.167 -.126 -.468 -.519 -.902 -1.178 l -.671 -1.018 z" fill="#fff"/><path d="M 567.819 452.746 L 573.232 448.096 L 574.807 449.929 L 575.909 448.982 L 571.683 444.063 L 570.581 445.01 L 572.158 446.846 L 566.746 451.496 Z" fill="#fff"/><path d="M 576.188 449.125 L 570.167 455.254 L 571.342 456.408 L 577.223 450.422 L 574.059 458.85 L 575.42 459.966 L 583.126 455.175 L 581.774 454.066 L 576.198 457.717 L 578.63 451.49 L 577.269 450.374 L 577.363 450.279 Z" fill="#fff"/><path d="m 581.395 464.315 c 1.023 .625 2.044 .791 3.063 .497 c 1.02 -.294 1.891 -1.033 2.615 -2.215 c .729 -1.193 .991 -2.313 .785 -3.359 c -.206 -1.046 -.822 -1.883 -1.848 -2.511 c -.567 -.347 -1.126 -.556 -1.678 -.628 c -.414 -.057 -.849 -.02 -1.304 .109 c -.456 .129 -.877 .331 -1.263 .607 c -.522 .377 -1.011 .939 -1.467 1.685 c -.714 1.166 -.968 2.268 -.764 3.307 c .206 1.039 .826 1.875 1.861 2.508 z m .382 -4.978 c .516 -.843 1.079 -1.364 1.69 -1.565 c .61 -.201 1.205 -.125 1.785 .229 c .579 .354 .917 .845 1.015 1.473 c .097 .627 -.111 1.36 -.625 2.199 c -.52 .85 -1.089 1.377 -1.708 1.582 c -.619 .205 -1.209 .136 -1.769 -.207 c -.561 -.343 -.892 -.84 -.994 -1.49 c -.104 -.652 .099 -1.391 .606 -2.221 z" fill="#fff"/><path d="m 593.043 462.706 c .562 -.308 1.183 -.34 1.86 -.096 c .447 .161 .778 .41 .994 .747 c .216 .338 .306 .725 .271 1.16 l 1.649 .252 c .114 -.798 -.021 -1.504 -.406 -2.117 c -.384 -.614 -1.053 -1.093 -2.006 -1.436 c -.733 -.265 -1.395 -.352 -1.983 -.261 c -.772 .116 -1.443 .441 -2.014 .975 c -.571 .534 -1.008 1.221 -1.312 2.063 c -.279 .775 -.388 1.547 -.325 2.314 c .063 .769 .328 1.438 .797 2.007 c .469 .569 1.105 .999 1.909 1.289 c .632 .228 1.302 .327 2.009 .297 c .707 -.029 1.282 -.151 1.726 -.364 l 1.161 -3.22 l -3.342 -1.204 l -.491 1.361 l 1.775 .64 l -.37 1.025 c -.303 .106 -.642 .169 -1.016 .185 c -.375 .017 -.725 -.033 -1.049 -.15 c -.657 -.236 -1.101 -.668 -1.333 -1.293 c -.233 -.626 -.176 -1.418 .17 -2.377 c .322 -.891 .763 -1.489 1.326 -1.797 z" fill="#fff"/><path d="m 598.855 471.21 c .356 .267 .917 .478 1.681 .633 c .633 .13 1.163 .149 1.59 .06 c .427 -.091 .788 -.256 1.081 -.494 c .294 -.239 .526 -.559 .699 -.958 c .172 -.399 .362 -1.104 .568 -2.115 l .902 -4.42 l -1.615 -.33 l -.951 4.656 c -.136 .666 -.257 1.138 -.363 1.415 c -.106 .277 -.295 .491 -.568 .641 c -.273 .149 -.639 .178 -1.097 .084 c -.451 -.092 -.785 -.27 -1.002 -.531 c -.218 -.262 -.326 -.571 -.325 -.93 c .004 -.223 .08 -.695 .228 -1.419 l .931 -4.559 l -1.615 -.33 l -.917 4.489 c -.192 .942 -.285 1.665 -.277 2.168 c .006 .341 .093 .683 .262 1.026 c .169 .343 .431 .647 .788 .914 z" fill="#fff"/><path d="m 607.105 470.719 l 3.255 .206 l .587 1.992 l 1.788 .113 l -2.717 -8.779 l -1.738 -.11 l -3.715 8.372 l 1.744 .11 z m 1.898 -4.525 l .921 3.253 l -2.222 -.142 z" fill="#fff"/><path d="m 618.835 464.94 c -.368 -.354 -.796 -.586 -1.284 -.699 c -.363 -.084 -.883 -.101 -1.561 -.052 l -3.002 .22 l .624 8.567 l 3.092 -.226 c .606 -.044 1.087 -.14 1.44 -.287 c .474 -.199 .842 -.455 1.106 -.768 c .349 -.414 .602 -.939 .761 -1.578 c .129 -.522 .168 -1.136 .117 -1.841 c -.059 -.803 -.197 -1.472 -.414 -2.006 c -.218 -.534 -.511 -.978 -.879 -1.33 z m -.464 4.965 c -.083 .392 -.206 .678 -.369 .858 c -.164 .181 -.376 .315 -.638 .404 c -.199 .07 -.528 .121 -.987 .154 l -1.227 .09 l -.414 -5.675 l .738 -.054 c .67 -.049 1.121 -.055 1.354 -.017 c .313 .048 .575 .164 .79 .348 c .215 .185 .39 .45 .526 .796 c .138 .347 .229 .852 .278 1.514 c .05 .663 .032 1.191 -.051 1.582 z" fill="#fff"/><path d="m 622.319 463.371 l -1.31 9.064 l 1.709 -.365 l .251 -2.05 l 3.189 -.683 l 1.105 1.759 l 1.753 -.375 l -4.993 -7.716 z m .842 5.129 l .411 -3.348 l 1.766 2.881 z" fill="#fff"/><path d="M 634.826 467.093 L 630.963 468.457 L 628.608 461.79 L 627.055 462.339 L 629.891 470.37 L 635.308 468.457 Z" fill="#fff"/><path d="m 641.348 465.511 l 1.601 -.808 l -6.786 -6.194 l -1.556 .785 l 1.03 9.099 l 1.561 -.787 l -.277 -2.045 l 2.913 -1.47 z m -4.627 -1.471 l -.451 -3.342 l 2.44 2.339 z" fill="#fff"/><path d="m 645.3 463.244 c .57 -.382 .946 -.815 1.126 -1.301 c .181 -.484 .198 -.98 .053 -1.483 c -.114 -.385 -.369 -.872 -.765 -1.463 l -3.024 -4.52 l -1.365 .913 l 3.086 4.613 c .387 .578 .578 1.001 .575 1.269 c -.004 .268 -.158 .505 -.464 .709 c -.303 .202 -.613 .225 -.934 .067 c -.211 -.103 -.462 -.354 -.751 -.753 l -1.187 1.02 c .514 .762 1.083 1.219 1.708 1.372 c .625 .152 1.273 .004 1.942 -.443 z" fill="#fff"/><path d="m 653.127 456.961 l 1.356 -1.17 l -8.082 -4.371 l -1.319 1.139 l 3.201 8.579 l 1.323 -1.142 l -.764 -1.917 l 2.47 -2.13 z m -4.846 -.309 l -1.246 -3.133 l 2.933 1.679 z" fill="#fff"/><path d="m 654.31 450.717 c .164 -.088 .362 -.133 .596 -.135 c .233 -.002 .741 .059 1.521 .183 l 2.19 .342 l 1.303 -1.479 l -1.917 -.36 c -.761 -.147 -1.316 -.219 -1.666 -.218 c -.35 .001 -.725 .063 -1.124 .186 c .391 -.61 .548 -1.189 .471 -1.736 c -.077 -.548 -.358 -1.034 -.842 -1.461 c -.381 -.335 -.798 -.545 -1.251 -.627 c -.453 -.083 -.868 -.026 -1.246 .168 c -.377 .194 -.854 .619 -1.43 1.273 l -2.292 2.603 l 6.448 5.678 l 1.089 -1.236 l -2.691 -2.37 l .221 -.251 c .25 -.286 .457 -.471 .62 -.56 z m -1.064 -1.012 l -.806 .915 l -1.637 -1.441 l .851 -.965 c .441 -.501 .713 -.796 .816 -.883 c .211 -.169 .433 -.251 .662 -.243 c .23 .008 .454 .107 .672 .298 c .193 .171 .317 .354 .373 .552 c .056 .197 .045 .393 -.032 .587 c -.077 .194 -.376 .587 -.899 1.18 z" fill="#fff"/><path d="m 663.502 444.234 l .988 -1.495 l -8.966 -2.014 l -.961 1.453 l 5.41 7.39 l .964 -1.458 l -1.255 -1.638 l 1.799 -2.721 z m -4.747 1.018 l -2.051 -2.678 l 3.278 .82 z" fill="#fff"/><path d="m 665.81 438.716 c .679 -.311 1.222 -.94 1.628 -1.888 c .279 -.651 .416 -1.236 .411 -1.756 c -.006 -.519 -.154 -.981 -.447 -1.39 c -.293 -.408 -.665 -.709 -1.117 -.903 c -.5 -.213 -.961 -.293 -1.387 -.239 c -.424 .055 -.81 .216 -1.157 .485 c -.347 .268 -.77 .732 -1.269 1.391 c -.498 .658 -.873 1.047 -1.124 1.166 c -.196 .093 -.389 .1 -.575 .02 c -.205 -.088 -.334 -.238 -.388 -.451 c -.083 -.33 -.031 -.715 .157 -1.155 c .183 -.426 .409 -.708 .678 -.845 c .269 -.137 .62 -.151 1.054 -.042 l .579 -1.544 c -.736 -.287 -1.423 -.286 -2.061 .004 c -.638 .289 -1.158 .905 -1.562 1.846 c -.247 .577 -.366 1.108 -.357 1.594 c .008 .486 .141 .912 .398 1.279 c .258 .366 .587 .636 .989 .808 c .625 .268 1.253 .265 1.885 -.01 c .449 -.194 .953 -.653 1.513 -1.374 c .436 -.56 .724 -.915 .864 -1.064 c .208 -.218 .4 -.351 .575 -.399 c .176 -.048 .357 -.031 .544 .048 c .291 .125 .492 .357 .603 .698 c .111 .34 .063 .754 -.146 1.241 c -.197 .461 -.476 .774 -.837 .94 c -.359 .167 -.819 .183 -1.378 .049 l -.481 1.537 c .927 .28 1.73 .264 2.408 -.046 z" fill="#fff"/><path d="M 667.63599 430.62601 H 669.19999 V 432.27201 H 667.63599 Z" fill="#fff" transform="matrix(.3086 -.9512 .9512 .3086 51.7751 934.1243)"/><path d="m 671.186 423.989 l .387 -1.75 l -9.093 1.337 l -.377 1.701 l 7.703 4.958 l .377 -1.707 l -1.76 -1.079 l .704 -3.185 z m -4.067 2.654 l -2.874 -1.764 l 3.355 -.41 z" fill="#fff"/><path d="M 670.05701 419.66901 H 671.62101 V 421.31601 H 670.05701 Z" fill="#fff" transform="matrix(.1211 -.9926 .9926 .1211 172.2125 1035.481)"/><path d="m 672.083 411.95 c -.015 -.608 -.088 -1.093 -.218 -1.453 c -.177 -.482 -.415 -.862 -.715 -1.141 c -.396 -.369 -.91 -.647 -1.54 -.835 c -.516 -.154 -1.128 -.223 -1.835 -.205 c -.805 .021 -1.479 .127 -2.023 .318 c -.544 .192 -1.001 .464 -1.372 .814 c -.37 .352 -.623 .769 -.76 1.25 c -.1 .359 -.142 .879 -.124 1.558 l .076 3.011 l 8.59 -.217 z m -7.1 1.634 l -.019 -.74 c -.018 -.672 -.001 -1.123 .048 -1.355 c .063 -.31 .19 -.566 .385 -.772 c .194 -.205 .468 -.368 .82 -.488 c .353 -.12 .86 -.188 1.524 -.206 c .664 -.017 1.19 .026 1.578 .128 c .388 .102 .668 .238 .84 .41 c .173 .172 .297 .391 .374 .655 c .06 .203 .096 .535 .107 .994 l .031 1.23 z" fill="#fff"/><path d="M 671.824 406.811 L 670.851 400.682 L 669.421 400.908 L 670.137 405.411 L 667.827 405.777 L 667.185 401.731 L 665.755 401.959 L 666.397 406.005 L 664.518 406.303 L 663.826 401.955 L 662.392 402.183 L 663.34 408.158 Z" fill="#fff"/><path d="m 665.148 396.388 c -.964 .346 -1.725 .419 -2.282 .219 c -.558 -.2 -.939 -.585 -1.143 -1.153 c -.148 -.412 -.152 -.806 -.014 -1.181 c .14 -.375 .402 -.684 .789 -.925 l -.938 -1.396 c -.584 .407 -.986 .847 -1.207 1.32 c -.374 .797 -.393 1.665 -.055 2.604 c .386 1.076 1.07 1.809 2.052 2.202 c .981 .393 2.146 .348 3.491 -.137 c 1.272 -.457 2.158 -1.145 2.655 -2.065 c .498 -.92 .565 -1.89 .197 -2.909 c -.295 -.824 -.754 -1.427 -1.375 -1.809 c -.621 -.382 -1.414 -.53 -2.379 -.443 l .037 1.683 c .639 -.083 1.149 -.026 1.531 .171 c .383 .198 .648 .503 .796 .915 c .201 .559 .147 1.09 -.161 1.595 c -.306 .506 -.972 .942 -1.994 1.309 z" fill="#fff"/><path d="M 664.85199 387.44199 H 666.49799 V 389.00699 H 664.85199 Z" fill="#fff" transform="matrix(.9043 -.4268 .4268 .9043 -102.0211 321.2613)"/><path d="M 655.468 385.721 L 661.961 384.221 L 657.528 389.224 L 658.435 390.765 L 664.359 383.895 L 663.468 382.378 L 654.582 384.214 Z" fill="#fff"/><path d="M 660.06897 379.14899 H 661.71597 V 380.71299 H 660.06897 Z" fill="#fff" transform="matrix(.823 -.568 .568 .823 -98.8381 442.6663)"/><path d="m 578.213 360.049 c -.373 -.574 -.624 -1.219 -.726 -1.945 c -1.011 .644 -2.002 1.313 -2.974 2.01 c .346 .549 .705 1.125 1.076 1.725 c .859 -.619 1.734 -1.215 2.624 -1.79 z" fill="#fff"/><path d="m 622.818 350.782 c 3.697 .608 7.287 1.538 10.741 2.759 c -.738 -.883 -1.249 -1.823 -1.6 -2.685 c -.3 -.094 -.608 -.171 -.91 -.261 c -.691 .597 -1.465 1.266 -1.465 1.266 l -.745 -.373 c -.729 -.365 -1.146 -1.043 -1.376 -1.841 c -2.032 -.478 -4.1 -.861 -6.2 -1.144 c .503 .834 1.027 1.597 1.555 2.279 z" fill="#fff"/><path d="m 648.808 361.407 c .375 -.602 .734 -1.174 1.08 -1.722 c -1.048 -.733 -2.113 -1.444 -3.206 -2.116 c -.038 .767 -.203 1.465 -.516 2.08 c .897 .564 1.776 1.151 2.642 1.758 z" fill="#fff"/><path d="m 612.501 478.696 c 36.062 0 65.398 -29.337 65.398 -65.398 c 0 -19.866 -8.915 -37.679 -22.941 -49.683 c -.391 .604 -.773 1.173 -1.14 1.696 c 13.487 11.63 22.052 28.822 22.052 47.987 c 0 34.941 -28.428 63.369 -63.369 63.369 c -34.942 0 -63.369 -28.428 -63.369 -63.369 c 0 -18.909 8.336 -35.899 21.513 -47.52 c -.37 -.515 -.757 -1.075 -1.158 -1.681 c -13.705 11.996 -22.385 29.599 -22.385 49.2 c 0 36.062 29.338 65.399 65.399 65.399 z" fill="#fff"/><path d="m 590.152 354.011 c 3.433 -1.299 7.008 -2.301 10.694 -2.989 c .661 -.81 1.203 -1.601 1.658 -2.359 c -1.998 .308 -3.965 .714 -5.9 1.2 c -.241 .703 -.647 1.293 -1.311 1.625 l -.746 .373 c 0 0 -.622 -.538 -1.249 -1.079 c -.428 .131 -.848 .279 -1.272 .419 c -.412 .922 -1.011 1.911 -1.874 2.81 z" fill="#fff"/><path d="m 582.79 356.985 c -.049 .122 -.093 .281 -.138 .433 c .318 -.171 .643 -.329 .963 -.494 c -.269 .024 -.538 .051 -.825 .061 z" fill="#fff"/><path d="m 639.716 378.31 c .236 -.551 .48 -1.101 .73 -1.65 c -1.568 -1.201 -3.201 -2.293 -4.894 -3.274 c 0 .652 0 1.328 0 2.032 c 1.436 .878 2.824 1.846 4.164 2.892 z" fill="#fff"/><path d="m 646.533 383.868 c .09 .42 .134 .818 .153 1.204 c 6.568 7.927 10.147 17.8 10.147 28.226 c 0 24.444 -19.888 44.332 -44.332 44.332 c -24.445 0 -44.332 -19.888 -44.332 -44.332 c 0 -10.217 3.483 -19.63 9.312 -27.135 c -.035 -.248 -.055 -.503 -.055 -.768 c 0 -.481 .058 -.99 .173 -1.527 c .048 -.223 .078 -.48 .109 -.734 c -7.023 8.09 -11.289 18.635 -11.289 30.164 c 0 25.41 20.672 46.082 46.082 46.082 c 25.41 0 46.082 -20.672 46.082 -46.082 c 0 -11.697 -4.336 -22.724 -12.236 -31.261 c .018 .68 .074 1.309 .186 1.831 z" fill="#fff"/><path d="m 583.923 377.188 c .247 .552 .487 1.105 .719 1.659 c 1.404 -1.137 2.88 -2.189 4.417 -3.151 c 0 -.711 0 -1.389 0 -2.049 c -1.794 1.064 -3.508 2.25 -5.136 3.541 z" fill="#fff"/><path d="m 581.865 393.248 v 48.495 c 2.665 2.868 5.723 5.366 9.094 7.399 V 410 c -1.465 -2.397 -1.899 -4.008 -1.899 -4.008 c 0 0 0 -15.548 0 -27.324 c -1.195 .812 -2.343 1.688 -3.446 2.616 c 3 8.005 3.98 15.722 -.695 19.961 l -.825 .748 l -.838 -.733 c -.534 -.468 -1.072 -1.682 -1.072 -4.679 c 0 -.85 .06 -1.892 .159 -3.05 c -.159 -.082 -.319 -.177 -.478 -.283 z" fill="#fff"/><path d="m 573.727 397.625 c -1.965 4.844 -3.058 10.132 -3.058 15.673 c 0 5.541 1.092 10.829 3.058 15.673 z" fill="#fff"/><path d="m 625.664 418.657 c -2.421 1.864 -5.415 3.721 -9.094 5.41 v 30.861 c 3.146 -.305 6.188 -.967 9.094 -1.933 z" fill="#fff"/><path d="m 608.432 424.249 c -3.783 -1.701 -6.854 -3.583 -9.334 -5.474 v 34.14 c 2.978 1.01 6.101 1.7 9.334 2.014 z" fill="#fff"/><path d="m 651.035 429.577 c 2.123 -5.007 3.298 -10.508 3.298 -16.279 c 0 -5.701 -1.139 -11.225 -3.298 -16.32 z" fill="#fff"/><path d="m 635.552 405.992 c 0 0 -.401 1.5 -1.749 3.763 v 39.525 c 3.364 -1.999 6.422 -4.458 9.094 -7.286 v -49.256 c -.353 .332 -.733 .6 -1.107 .793 c .1 1.159 .159 2.201 .159 3.05 c 0 2.997 -.538 4.211 -1.072 4.679 l -.838 .733 l -.825 -.748 c -4.786 -4.34 -3.646 -12.323 -.479 -20.53 c -1.028 -.831 -2.089 -1.613 -3.182 -2.337 c -.001 11.81 -.001 27.614 -.001 27.614 z" fill="#fff"/><path d="m 616.57 424.067 c -1.292 .593 -2.658 1.168 -4.126 1.712 h -.277 c -1.319 -.488 -2.559 -1.002 -3.735 -1.53 v 30.68 c 1.339 .13 2.696 .201 4.069 .201 c 1.373 0 2.729 -.071 4.069 -.201 z" fill="#ed1c24"/><path d="m 633.803 409.755 c -1.429 2.399 -3.925 5.657 -8.139 8.902 v 34.339 c 2.861 -.951 5.588 -2.2 8.139 -3.716 z" fill="#ed1c24"/><path d="m 642.896 441.994 c 3.4 -3.6 6.178 -7.793 8.139 -12.417 v -32.6 c -1.332 -3.144 -3.055 -6.122 -5.143 -8.877 c -.464 .651 -1.036 1.062 -1.526 1.312 c -.059 1.52 -.693 2.596 -1.47 3.327 z" fill="#ed1c24"/><path d="m 581.865 393.248 c -1.039 -.694 -2.026 -1.917 -2.1 -3.836 c -.33 -.168 -.695 -.417 -1.042 -.752 c -2.014 2.753 -3.697 5.761 -4.997 8.965 v 31.346 c 1.928 4.752 4.702 9.071 8.139 12.772 z" fill="#ed1c24"/><path d="m 599.098 418.775 c -4.166 -3.176 -6.67 -6.371 -8.139 -8.775 v 39.142 c 2.548 1.537 5.276 2.802 8.139 3.773 z" fill="#ed1c24"/><path d="M 527.768 394.624 L 529.916 398.758 L 526.648 402.078 L 531.244 401.313 L 533.393 405.446 L 534.084 400.84 L 538.68 400.073 L 534.512 397.992 L 535.204 393.384 L 531.936 396.705 Z" fill="#0054a6"/><path d="M 531.42 429.256 L 534.663 432.6 L 534.005 427.989 L 538.188 425.938 L 533.599 425.139 L 532.94 420.524 L 530.762 424.644 L 526.172 423.845 L 529.415 427.189 L 527.236 431.306 Z" fill="#0054a6"/><path d="M 546.093 457.205 L 543.829 453.136 L 547 449.723 L 542.429 450.619 L 540.163 446.547 L 539.604 451.172 L 535.031 452.069 L 539.256 454.03 L 538.695 458.654 L 541.868 455.243 Z" fill="#0054a6"/><path d="M 560.927 476.485 L 565.577 476.765 L 561.98 473.807 L 563.681 469.469 L 559.755 471.978 L 556.156 469.018 L 557.329 473.526 L 553.403 476.036 L 558.052 476.314 L 559.224 480.821 Z" fill="#0054a6"/><path d="M 587.217 494.997 L 586.63 490.377 L 590.843 488.389 L 586.268 487.521 L 585.677 482.898 L 583.438 486.984 L 578.859 486.115 L 582.053 489.508 L 579.814 493.595 L 584.025 491.605 Z" fill="#0054a6"/><path d="M 689.81 393.384 L 690.503 397.992 L 686.334 400.073 L 690.93 400.84 L 691.622 405.446 L 693.771 401.313 L 698.366 402.078 L 695.099 398.758 L 697.247 394.624 L 693.078 396.705 Z" fill="#0054a6"/><path d="M 693.595 429.256 L 697.778 431.306 L 695.599 427.189 L 698.843 423.845 L 694.252 424.644 L 692.073 420.524 L 691.415 425.139 L 686.825 425.938 L 691.009 427.989 L 690.351 432.6 Z" fill="#0054a6"/><path d="M 686.319 458.654 L 685.758 454.03 L 689.983 452.069 L 685.411 451.172 L 684.851 446.547 L 682.585 450.619 L 678.014 449.723 L 681.185 453.136 L 678.921 457.205 L 683.146 455.243 Z" fill="#0054a6"/><path d="M 666.962 476.314 L 671.611 476.036 L 667.685 473.526 L 668.858 469.018 L 665.259 471.978 L 661.333 469.469 L 663.034 473.807 L 659.438 476.765 L 664.087 476.485 L 665.79 480.821 Z" fill="#0054a6"/><path d="M 645.2 493.595 L 642.962 489.508 L 646.155 486.115 L 641.577 486.984 L 639.337 482.898 L 638.747 487.521 L 634.171 488.389 L 638.384 490.377 L 637.797 494.997 L 640.989 491.605 Z" fill="#0054a6"/><path d="M 618.819 502.863 L 616.405 495.436 L 622.724 490.845 L 614.914 490.845 L 612.501 483.417 L 610.087 490.845 L 602.277 490.845 L 608.596 495.436 L 606.182 502.863 L 612.501 498.273 Z" fill="#ed1c24"/><path d="m 589.06 405.992 c 0 0 .434 1.61 1.899 4.008 c 1.469 2.404 3.973 5.6 8.139 8.775 c 2.48 1.891 5.552 3.772 9.334 5.474 c 1.176 .528 2.417 1.042 3.735 1.53 h .277 c 1.468 -.544 2.834 -1.119 4.126 -1.712 c 3.679 -1.69 6.673 -3.546 9.094 -5.41 c 4.214 -3.245 6.71 -6.503 8.139 -8.902 c 1.348 -2.263 1.749 -3.763 1.749 -3.763 c 0 0 0 -15.805 0 -27.614 c 0 -1.022 0 -2.012 0 -2.96 c 0 -.704 0 -1.38 0 -2.032 c 0 -2.909 0 -5.255 0 -6.551 c 0 -6.503 2.904 -9.271 2.904 -9.271 h -13.497 l -12.489 6.367 l -14.475 -6.367 h -11.841 c 0 0 2.906 2.768 2.906 9.271 c 0 1.335 0 3.781 0 6.811 c 0 .66 0 1.338 0 2.049 c 0 .954 0 1.95 0 2.974 c 0 11.775 0 27.323 0 27.323 z m 1.26 -17.126 l 1.39 -2.268 l -1.357 -2.186 h 1.424 l .402 .747 c .117 .228 .226 .446 .335 .665 h .017 c .109 -.246 .209 -.464 .318 -.692 l .36 -.72 h 1.382 l -1.349 2.122 l 1.365 2.332 h -1.44 l -.411 -.801 c -.117 -.219 -.226 -.446 -.318 -.674 h -.025 c -.101 .237 -.21 .456 -.31 .674 l -.385 .801 z m 3.848 20.089 l -.411 -.801 c -.117 -.219 -.226 -.447 -.318 -.675 h -.025 c -.101 .237 -.21 .456 -.31 .675 l -.385 .801 h -1.398 l 1.39 -2.268 l -1.357 -2.185 h 1.424 l .402 .747 c .117 .228 .226 .446 .335 .665 h .017 c .109 -.246 .209 -.465 .318 -.692 l .36 -.72 h 1.382 l -1.349 2.121 l 1.365 2.332 z m 18.958 13.394 l -.411 -.801 c -.117 -.219 -.226 -.447 -.317 -.675 h -.025 c -.102 .237 -.211 .456 -.311 .675 l -.385 .801 h -1.398 l 1.39 -2.267 l -1.357 -2.186 h 1.424 l .402 .747 c .117 .228 .226 .446 .334 .665 h .018 c .108 -.246 .209 -.465 .318 -.692 l .359 -.72 h 1.383 l -1.35 2.121 l 1.365 2.332 z m 18.477 -13.394 l -.411 -.801 c -.117 -.219 -.226 -.447 -.317 -.675 h -.025 c -.102 .237 -.211 .456 -.311 .675 l -.385 .801 h -1.398 l 1.39 -2.268 l -1.356 -2.185 h 1.424 l .402 .747 c .117 .228 .226 .446 .334 .665 h .018 c .108 -.246 .209 -.465 .318 -.692 l .359 -.72 h 1.383 l -1.35 2.121 l 1.365 2.332 z m 1 -20.089 l -.411 -.801 c -.117 -.219 -.226 -.446 -.317 -.674 h -.025 c -.102 .237 -.211 .456 -.311 .674 l -.385 .801 h -1.398 l 1.39 -2.268 l -1.356 -2.186 h 1.424 l .402 .747 c .117 .228 .226 .446 .334 .665 h .018 c .108 -.246 .209 -.464 .318 -.692 l .359 -.72 h 1.383 l -1.35 2.122 l 1.365 2.332 z m -2.814 -29.255 h 1.424 l .402 .747 c .117 .228 .226 .446 .334 .665 h .018 c .108 -.246 .209 -.464 .318 -.692 l .359 -.72 h 1.383 l -1.35 2.122 l 1.365 2.332 h -1.44 l -.411 -.801 c -.117 -.219 -.226 -.446 -.317 -.674 h -.025 c -.102 .237 -.211 .456 -.311 .674 l -.385 .801 h -1.398 l 1.39 -2.268 z m -39.436 0 h 1.424 l .402 .747 c .117 .228 .226 .446 .335 .665 h .017 c .109 -.246 .209 -.464 .318 -.692 l .36 -.72 h 1.382 l -1.349 2.122 l 1.365 2.332 h -1.44 l -.411 -.801 c -.117 -.219 -.226 -.446 -.318 -.674 h -.025 c -.101 .237 -.21 .456 -.31 .674 l -.385 .801 h -1.398 l 1.39 -2.268 z m 6.293 4.556 h 31.657 v 19.375 c 0 0 0 11.792 0 19.375 c 0 7.529 -15.604 13.495 -15.823 13.579 v .004 h -.001 l -.004 -.002 c -.001 0 -.006 .002 -.006 .002 v -.004 c -.221 -.084 -15.823 -6.05 -15.823 -13.579 c 0 -7.583 0 -19.375 0 -19.375 z" fill="#f3c42a"/><path d="m 596.646 383.542 c 0 0 0 11.792 0 19.375 c 0 7.529 15.602 13.495 15.823 13.579 v .004 c 0 0 .005 -.002 .006 -.002 l .004 .002 h .001 v -.004 c .22 -.084 15.823 -6.05 15.823 -13.579 c 0 -7.583 0 -19.375 0 -19.375 v -19.375 h -31.657 z m 11.314 19.946 c -.745 .418 -.932 0 -1.768 -.751 c -.84 -.752 -2.141 -.587 -2.701 -.334 c -.56 .25 -1.789 .834 -2.255 1.336 c -.466 .501 0 .852 .466 1.268 c .466 .419 .838 .67 1.49 .752 c .651 .085 .299 .92 .299 .92 c 0 0 -2.068 -.252 -2.534 -.586 c -.465 -.334 -1.024 -1.42 -1.209 -2.105 c -.186 -.685 0 -1.168 0 -1.669 c 0 -.502 0 -2.673 -.466 -2.925 c -.466 -.249 -.838 -1.522 -.653 -2.857 c .186 -1.336 .466 -3.175 .466 -4.26 c 0 -1.086 -.372 -.686 -1.023 -2.022 c -.653 -1.337 0 -1.838 .744 -1.086 c .747 .751 .747 1.754 .653 3.358 c -.094 1.605 -.094 3.508 -.094 4.345 c 0 1.438 .931 1.77 1.303 1.605 c .373 -.167 1.677 -.854 1.677 -1.355 c 0 -.501 -.186 -1.253 -.186 -1.253 c 0 0 -.559 -.751 -.651 -1.253 c -.093 -.502 -.374 -1.003 -.559 -1.503 c -.187 -.502 -.187 -.919 .093 -1.522 c .279 -.602 .373 -1.837 .373 -1.837 c 0 0 1.524 -1.555 2.254 -1.336 c 1.954 .585 3.35 .836 3.91 1.253 c .558 .418 -.288 1.118 -.373 1.086 c -1.956 -.751 -1.768 .167 -1.768 .585 c 0 .417 0 .936 .652 .585 c .651 -.352 1.117 -.251 .836 .268 c -.278 .518 -.465 .919 -.278 1.253 c .186 .333 1.303 .752 1.768 .584 c .465 -.167 2.533 -2.273 2.533 -2.273 l .095 1.103 l -1.697 1.254 c 0 0 -1.115 .669 -1.023 1.336 c .093 .668 .746 .335 .746 .335 l 1.879 -.919 l -.185 .667 c 0 0 -2.812 1.755 -3.184 1.84 c -.373 .082 -.931 -.586 -.931 -.586 c 0 0 -1.21 1.771 -1.77 2.272 c -.56 .503 -.745 .668 -.745 1.003 c 0 .333 1.025 .918 1.676 1.421 c .652 .501 1.583 .75 1.583 .75 c 0 0 2.142 -1.001 2.607 -1.335 c .467 -.336 .393 -.836 .299 -1.253 c -.093 -.419 .56 -.252 .56 .166 c 0 .417 -.094 2.005 -.094 2.005 c 0 0 -2.07 1.253 -2.815 1.67 z m 4.642 6.284 h -.057 c -2.666 0 -3.862 -1.736 -3.862 -1.736 c 1.517 -1.03 2.593 -3.546 2.933 -4.421 v -17.987 c -5.713 -.263 -10.24 -3.739 -10.24 -8 c 0 -4.432 4.894 -8.025 10.931 -8.025 c 6.038 0 10.931 3.593 10.931 8.025 c 0 4.128 -4.246 7.524 -9.706 7.972 v 18.018 c .34 .875 1.416 3.389 2.932 4.419 c -.001 -.002 -1.196 1.735 -3.862 1.735 z m 14.401 -19.517 c -.651 1.336 -1.023 .936 -1.023 2.022 c 0 1.085 .279 2.924 .466 4.26 c .186 1.336 -.187 2.608 -.652 2.857 c -.467 .252 -.467 2.423 -.467 2.925 c 0 .501 .185 .984 0 1.669 c -.186 .685 -.744 1.771 -1.209 2.105 c -.467 .334 -2.534 .586 -2.534 .586 c 0 0 -.353 -.835 .3 -.92 c .651 -.082 1.023 -.333 1.489 -.752 c .466 -.416 .932 -.768 .466 -1.268 c -.466 -.502 -1.695 -1.086 -2.255 -1.336 c -.56 -.253 -1.86 -.418 -2.7 .334 c -.836 .751 -1.023 1.169 -1.769 .751 c -.745 -.417 -2.812 -1.671 -2.812 -1.671 c 0 0 -.095 -1.588 -.095 -2.005 c 0 -.418 .653 -.585 .56 -.166 c -.094 .417 -.168 .917 .299 1.253 c .466 .334 2.607 1.335 2.607 1.335 c 0 0 .931 -.249 1.582 -.75 c .652 -.503 1.677 -1.088 1.677 -1.421 c 0 -.335 -.185 -.5 -.745 -1.003 c -.56 -.501 -1.769 -2.272 -1.769 -2.272 c 0 0 -.559 .668 -.932 .586 c -.372 -.085 -3.184 -1.84 -3.184 -1.84 l -.185 -.667 l 1.879 .919 c 0 0 .654 .334 .746 -.335 c .093 -.668 -1.023 -1.336 -1.023 -1.336 l -1.697 -1.254 l .095 -1.103 c 0 0 2.067 2.106 2.533 2.273 c .464 .167 1.582 -.251 1.768 -.584 c .186 -.334 0 -.735 -.278 -1.253 c -.28 -.52 .186 -.62 .837 -.268 c .651 .352 .651 -.167 .651 -.585 c 0 -.418 .187 -1.336 -1.768 -.585 c -.086 .032 -.931 -.668 -.373 -1.086 c .561 -.417 1.957 -.668 3.91 -1.253 c .731 -.219 2.254 1.336 2.254 1.336 c 0 0 .094 1.235 .373 1.837 c .28 .603 .28 1.02 .094 1.522 c -.186 .5 -.467 1.001 -.56 1.503 c -.093 .501 -.651 1.253 -.651 1.253 c 0 0 -.187 .752 -.187 1.253 c 0 .501 1.304 1.188 1.677 1.355 c .373 .165 1.303 -.167 1.303 -1.605 c 0 -.836 0 -2.74 -.094 -4.345 c -.094 -1.604 -.094 -2.607 .653 -3.358 c .743 -.751 1.396 -.25 .743 1.087 z" fill="#0054a6"/><path d="m 608.86 317.24 c 3.2 -.8 6.26 -1.73 7.91 -2.61 c .4 -.34 .82 -.66 1.271 -.96 c .4 -.45 .85 -1.11 .85 -1.49 c 0 0 0 -5.35 0 -5.74 c -.43 -.71 -2.68 -3.98 -6.8 -3.93 c 0 1.15 0 6.67 0 6.67 l -.41 .21 c -.09 .04 -8.14 4.3 -8.87 9.19 c 1.31 -.26 2.77 -.57 4.26 -.91 c .599 -.14 1.189 -.28 1.789 -.43 z m 4.691 -13.087 c 3.598 .415 4.013 2.906 4.013 2.906 c -2.353 .415 -4.013 1.522 -4.013 1.522 z m 4.29 3.874 v 4.013 c 0 0 -1.106 3.183 -13.422 5.258 c 0 0 .969 -4.843 13.422 -9.271 z" fill="#fff"/><path d="m 612.42 362.27 c .561 -.29 11.231 -5.72 13.01 -6.63 c -.359 -.29 -.8 -.67 -1.3 -1.14 c -10.7 7.21 -20.33 2.21 -24.15 -.43 c -.64 .6 -1.35 1.2 -2.14 1.79 c 1.93 .85 14 6.15 14.58 6.41 z" fill="#b3b3b3"/><path d="m 623.07 353.42 c -1.16 -1.24 -2.431 -2.89 -3.54 -4.92 c -3.95 .81 -6.95 3.53 -6.99 3.57 l -.55 .5 l -.51 -.54 c -2 -2.11 -4.75 -3.08 -7.17 -3.51 c -.75 1.39 -1.8 2.93 -3.27 4.49 c 3.6 2.51 12.22 6.88 22.03 .41 z" fill="#b3b3b3"/><path d="m 612.04 350.53 c 1.03 -.84 3.56 -2.67 6.79 -3.43 c -.21 -.48 -.42 -.97 -.62 -1.48 c -1.81 1.2 -3.99 1.9 -6.32 1.9 c -2.34 0 -4.51 -.7 -6.33 -1.9 c -.15 .46 -.34 .96 -.58 1.5 c 2.36 .49 4.97 1.46 7.06 3.41 z" fill="#b3b3b3"/><path d="m 617.72 344.14 c .431 -.31 .851 -.65 1.231 -1.03 c 1.1 -1.09 1.95 -2.44 2.45 -3.94 c -2.78 .24 -5.221 1.55 -6.731 2.57 c -.979 .65 -1.559 1.18 -1.58 1.2 l -.42 .39 l -.12 .11 l -.1 -.1 l -.41 -.44 c -.35 -.37 -.73 -.69 -1.13 -1 c -2.67 -2.08 -6.15 -2.68 -8.56 -2.81 c .47 1.44 1.26 2.74 2.28 3.81 c .41 .43 .86 .82 1.34 1.17 c 1.66 1.22 3.7 1.95 5.92 1.95 c 2.17 0 4.18 -.7 5.83 -1.88 z" fill="#b3b3b3"/><path d="m 621.79 337.63 c .09 -.54 .14 -1.09 .14 -1.65 c 0 -.6 -.06 -1.18 -.16 -1.75 c -4.409 -.12 -8.029 -2.72 -9.309 -3.77 c -3.2 2.98 -7.62 3.7 -10.46 3.83 c -.09 .55 -.15 1.11 -.15 1.69 c 0 .54 .05 1.07 .14 1.59 c 2.83 .11 7.35 .79 10.609 3.83 c 1.26 -1.04 4.83 -3.61 9.19 -3.77 z" fill="#b3b3b3"/><path d="m 612.41 328.42 l .54 .5 c .05 .04 3.79 3.43 8.42 3.77 c -.19 -.54 -.42 -1.07 -.69 -1.56 c -.25 -.44 -.529 -.86 -.83 -1.26 c -.529 -.68 -1.13 -1.29 -1.81 -1.82 c -.4 -.31 -.82 -.59 -1.26 -.84 c -1.221 -.68 -2.61 -1.12 -4.08 -1.23 c -.26 -.03 -.53 -.05 -.81 -.05 c -.24 0 -.47 .02 -.7 .04 c -.99 .07 -1.93 .28 -2.82 .61 c -.47 .18 -.93 .39 -1.37 .63 c -2.15 1.21 -3.81 3.18 -4.61 5.55 c 2.76 -.18 6.82 -.95 9.51 -3.8 z" fill="#b3b3b3"/><path d="m 618.84 326.78 c .83 .63 1.57 1.37 2.2 2.19 c 2.43 -1.99 4.59 -4.77 5.08 -7.07 c -3.34 .06 -5.87 2.82 -7.28 4.88 z" fill="#b3b3b3"/><path d="m 612.96 324.49 c 1.67 .15 3.23 .67 4.62 1.46 c 1.59 -2.35 4.51 -5.54 8.59 -5.55 c -.46 -2.22 -4.15 -5.03 -5.99 -6.23 c -.44 .23 -.859 .48 -1.25 .74 c -.25 .29 -.63 .57 -1.109 .85 c -3.111 2.66 -4.361 6.41 -4.861 8.73 z" fill="#b3b3b3"/><path d="m 607.74 322.53 c 0 1 .11 1.88 .25 2.6 c 1.08 -.39 2.23 -.62 3.42 -.67 c .35 -1.86 1.17 -4.66 3 -7.24 c -1.91 .65 -4.13 1.24 -6.16 1.72 c -.37 1.3 -.51 2.52 -.51 3.59 z" fill="#b3b3b3"/><path d="m 617.841 312.04 v -4.013 c -12.453 4.428 -13.422 9.271 -13.422 9.271 c 12.315 -2.075 13.422 -5.258 13.422 -5.258 z" fill="#ed1c24"/><path d="m 613.551 304.153 v 4.428 c 0 0 1.66 -1.107 4.013 -1.522 c -.001 0 -.416 -2.491 -4.013 -2.906 z" fill="#ed1c24"/><path d="m 574.255 368.356 c 4.013 4.566 5.396 11.9 4.566 15.774 c -.831 3.875 2.214 4.428 2.214 4.428 c -.416 3.46 2.629 4.151 2.629 4.151 c -.691 6.642 .415 7.61 .415 7.61 c 10.377 -9.409 -10.654 -39.296 -13.975 -44.831 c -3.321 -5.535 -1.384 -14.944 4.843 -18.818 c 6.227 -3.875 13.56 .83 13.56 5.396 c 0 4.566 -4.981 5.95 -7.61 4.428 c -2.629 -1.522 -1.522 -5.12 -1.522 -5.12 c -11.069 6.088 -.554 14.529 -.554 14.529 c -.969 4.843 3.321 5.12 3.321 5.12 c -1.938 -2.49 -.138 -5.258 -.138 -5.258 c 9.271 .138 9.686 -8.025 9.686 -8.025 l 3.044 2.629 c 1.661 -.83 .553 -5.535 .553 -5.535 c 1.107 -.415 2.768 1.384 2.768 1.384 c 1.384 -4.151 -2.353 -6.78 -2.353 -6.78 c 3.182 -1.66 3.044 -3.321 3.044 -3.321 c -5.258 .554 -9.271 -1.938 -13.56 -3.736 c -10.377 -3.874 -18.956 2.629 -20.479 11.762 c -1.522 9.131 5.535 19.647 9.548 24.213 z" fill="#f3c42a"/><path d="m 629.398 350.369 l 3.044 -2.629 c 0 0 .415 8.163 9.687 8.025 c 0 0 1.799 2.768 -.139 5.258 c 0 0 4.289 -.276 3.32 -5.12 c 0 0 10.516 -8.44 -.553 -14.529 c 0 0 1.106 3.598 -1.522 5.12 c -2.629 1.522 -7.61 .139 -7.61 -4.428 c 0 -4.567 7.334 -9.271 13.56 -5.396 c 6.227 3.874 8.163 13.284 4.842 18.818 c -3.32 5.535 -24.352 35.422 -13.975 44.831 c 0 0 1.107 -.969 .415 -7.61 c 0 0 3.045 -.691 2.63 -4.151 c 0 0 3.044 -.553 2.213 -4.428 c -.83 -3.874 .554 -11.207 4.567 -15.774 c 4.013 -4.566 11.069 -15.082 9.547 -24.214 c -1.521 -9.132 -10.101 -15.636 -20.478 -11.762 c -4.289 1.799 -8.302 4.29 -13.56 3.736 c 0 0 -.138 1.661 3.044 3.321 c 0 0 -3.736 2.628 -2.352 6.78 c 0 0 1.66 -1.799 2.768 -1.384 c 0 0 -1.108 4.706 .552 5.536 z" fill="#f3c42a"/><path d="m 610.866 399.813 c 0 -.418 -.653 -.585 -.56 -.166 c .094 .417 .168 .917 -.299 1.253 c -.465 .334 -2.607 1.335 -2.607 1.335 c 0 0 -.931 -.249 -1.583 -.75 c -.651 -.503 -1.676 -1.088 -1.676 -1.421 c 0 -.335 .185 -.5 .745 -1.003 c .56 -.501 1.77 -2.272 1.77 -2.272 c 0 0 .558 .668 .931 .586 c .372 -.085 3.184 -1.84 3.184 -1.84 l .185 -.667 l -1.879 .919 c 0 0 -.653 .334 -.746 -.335 c -.092 -.668 1.023 -1.336 1.023 -1.336 l 1.697 -1.254 l -.095 -1.103 c 0 0 -2.067 2.106 -2.533 2.273 c -.464 .167 -1.582 -.251 -1.768 -.584 c -.187 -.334 0 -.735 .278 -1.253 c .28 -.52 -.186 -.62 -.836 -.268 c -.652 .352 -.652 -.167 -.652 -.585 c 0 -.418 -.187 -1.336 1.768 -.585 c .086 .032 .931 -.668 .373 -1.086 c -.56 -.417 -1.957 -.668 -3.91 -1.253 c -.73 -.219 -2.254 1.336 -2.254 1.336 c 0 0 -.094 1.235 -.373 1.837 c -.28 .603 -.28 1.02 -.093 1.522 c .186 .5 .466 1.001 .559 1.503 c .093 .501 .651 1.253 .651 1.253 c 0 0 .186 .752 .186 1.253 c 0 .501 -1.304 1.188 -1.677 1.355 c -.372 .165 -1.303 -.167 -1.303 -1.605 c 0 -.836 0 -2.74 .094 -4.345 c .094 -1.604 .094 -2.607 -.653 -3.358 c -.744 -.752 -1.397 -.251 -.744 1.086 c .651 1.336 1.023 .936 1.023 2.022 c 0 1.085 -.279 2.924 -.466 4.26 c -.185 1.336 .186 2.608 .653 2.857 c .466 .252 .466 2.423 .466 2.925 c 0 .501 -.186 .984 0 1.669 c .186 .685 .744 1.771 1.209 2.105 c .466 .334 2.534 .586 2.534 .586 c 0 0 .352 -.835 -.299 -.92 c -.652 -.082 -1.024 -.333 -1.49 -.752 c -.466 -.416 -.932 -.768 -.466 -1.268 c .466 -.502 1.695 -1.086 2.255 -1.336 c .56 -.253 1.861 -.418 2.701 .334 c .836 .751 1.023 1.169 1.768 .751 c .745 -.417 2.812 -1.671 2.812 -1.671 c 0 0 .097 -1.587 .097 -2.004 z" fill="#f3c42a"/><path d="m 626.259 389.169 c -.747 .751 -.747 1.754 -.653 3.358 c .094 1.605 .094 3.508 .094 4.345 c 0 1.438 -.93 1.77 -1.303 1.605 c -.373 -.167 -1.677 -.854 -1.677 -1.355 c 0 -.501 .187 -1.253 .187 -1.253 c 0 0 .558 -.751 .651 -1.253 c .093 -.502 .374 -1.003 .56 -1.503 c .187 -.502 .187 -.919 -.094 -1.522 c -.279 -.602 -.373 -1.837 -.373 -1.837 c 0 0 -1.523 -1.555 -2.254 -1.336 c -1.953 .585 -3.35 .836 -3.91 1.253 c -.558 .418 .287 1.118 .373 1.086 c 1.955 -.751 1.768 .167 1.768 .585 c 0 .417 0 .936 -.651 .585 c -.651 -.352 -1.117 -.251 -.837 .268 c .278 .518 .465 .919 .278 1.253 c -.186 .333 -1.304 .752 -1.768 .584 c -.466 -.167 -2.533 -2.273 -2.533 -2.273 l -.095 1.103 l 1.697 1.254 c 0 0 1.115 .669 1.023 1.336 c -.092 .668 -.746 .335 -.746 .335 l -1.879 -.919 l .185 .667 c 0 0 2.812 1.755 3.184 1.84 c .373 .082 .932 -.586 .932 -.586 c 0 0 1.21 1.771 1.769 2.272 c .56 .503 .745 .668 .745 1.003 c 0 .333 -1.024 .918 -1.677 1.421 c -.651 .501 -1.582 .75 -1.582 .75 c 0 0 -2.142 -1.001 -2.607 -1.335 c -.467 -.336 -.393 -.836 -.299 -1.253 c .094 -.419 -.56 -.252 -.56 .166 c 0 .417 .095 2.005 .095 2.005 c 0 0 2.066 1.254 2.812 1.671 c .745 .418 .933 0 1.769 -.751 c .84 -.752 2.141 -.587 2.7 -.334 c .56 .25 1.789 .834 2.255 1.336 c .466 .501 0 .852 -.466 1.268 c -.466 .419 -.838 .67 -1.489 .752 c -.652 .085 -.3 .92 -.3 .92 c 0 0 2.067 -.252 2.534 -.586 c .465 -.334 1.023 -1.42 1.209 -2.105 c .185 -.685 0 -1.168 0 -1.669 c 0 -.502 0 -2.673 .467 -2.925 c .466 -.249 .838 -1.522 .652 -2.857 c -.187 -1.336 -.466 -3.175 -.466 -4.26 c 0 -1.086 .372 -.686 1.023 -2.022 c .654 -1.338 .001 -1.839 -.743 -1.087 z" fill="#f3c42a"/><path d="m 613.531 403.616 v -18.018 c -.402 .033 -.811 .054 -1.225 .054 c -.233 0 -.462 -.015 -.691 -.025 v 17.987 c -.339 .875 -1.416 3.391 -2.933 4.421 c 0 0 1.196 1.736 3.862 1.736 h .057 c 2.666 0 3.861 -1.736 3.861 -1.736 c -1.515 -1.03 -2.591 -3.544 -2.931 -4.419 z" fill="#cc8339"/><path d="m 591.719 364.064 l .385 -.801 c .1 -.219 .209 -.437 .31 -.674 h .025 c .092 .228 .201 .456 .318 .674 l .411 .801 h 1.44 l -1.365 -2.332 l 1.349 -2.122 h -1.382 l -.36 .72 c -.109 .228 -.21 .446 -.318 .692 h -.017 c -.109 -.218 -.218 -.437 -.335 -.665 l -.402 -.747 h -1.424 l 1.357 2.186 l -1.39 2.268 z" fill="#ed1c24"/><path d="m 631.154 364.064 l .385 -.801 c .1 -.219 .209 -.437 .311 -.674 h .025 c .092 .228 .2 .456 .317 .674 l .411 .801 h 1.44 l -1.365 -2.332 l 1.35 -2.122 h -1.383 l -.359 .72 c -.109 .228 -.21 .446 -.318 .692 h -.018 c -.108 -.218 -.217 -.437 -.334 -.665 l -.402 -.747 h -1.424 l 1.356 2.186 l -1.39 2.268 z" fill="#ed1c24"/><path d="m 592.104 388.065 c .1 -.219 .209 -.437 .31 -.674 h .025 c .092 .228 .201 .456 .318 .674 l .411 .801 h 1.44 l -1.365 -2.332 l 1.349 -2.122 h -1.382 l -.36 .72 c -.109 .228 -.21 .446 -.318 .692 h -.017 c -.109 -.218 -.218 -.437 -.335 -.665 l -.402 -.747 h -1.424 l 1.357 2.186 l -1.39 2.268 h 1.398 z" fill="#ed1c24"/><path d="m 632.678 386.534 l 1.35 -2.122 h -1.383 l -.359 .72 c -.109 .228 -.21 .446 -.318 .692 h -.018 c -.108 -.218 -.217 -.437 -.334 -.665 l -.402 -.747 h -1.424 l 1.356 2.186 l -1.39 2.268 h 1.398 l .385 -.801 c .1 -.219 .209 -.437 .311 -.674 h .025 c .092 .228 .2 .456 .317 .674 l .411 .801 h 1.44 z" fill="#ed1c24"/><path d="m 595.592 404.502 h -1.382 l -.36 .72 c -.109 .228 -.21 .446 -.318 .692 h -.017 c -.109 -.219 -.218 -.438 -.335 -.665 l -.402 -.747 h -1.424 l 1.357 2.185 l -1.39 2.268 h 1.398 l .385 -.801 c .1 -.219 .209 -.438 .31 -.675 h .025 c .092 .227 .201 .456 .318 .675 l .411 .801 h 1.44 l -1.365 -2.332 z" fill="#ed1c24"/><path d="m 633.027 404.502 h -1.383 l -.359 .72 c -.109 .228 -.21 .446 -.318 .692 h -.018 c -.108 -.219 -.217 -.438 -.334 -.665 l -.402 -.747 h -1.424 l 1.356 2.185 l -1.39 2.268 h 1.398 l .385 -.801 c .1 -.219 .209 -.438 .311 -.675 h .025 c .092 .227 .2 .456 .317 .675 l .411 .801 h 1.44 l -1.365 -2.332 z" fill="#ed1c24"/><path d="m 614.55 417.896 h -1.383 l -.359 .72 c -.109 .228 -.21 .446 -.318 .692 h -.018 c -.108 -.219 -.217 -.438 -.334 -.665 l -.402 -.747 h -1.424 l 1.357 2.186 l -1.39 2.267 h 1.398 l .385 -.801 c .1 -.219 .209 -.438 .311 -.675 h .025 c .092 .228 .2 .456 .317 .675 l .411 .801 h 1.439 l -1.365 -2.332 z" fill="#ed1c24"/><path d="m 613.531 385.599 c 5.46 -.447 9.706 -3.844 9.706 -7.972 c 0 -4.432 -4.893 -8.025 -10.931 -8.025 c -6.037 0 -10.931 3.593 -10.931 8.025 c 0 4.261 4.527 7.737 10.24 8 c .229 .01 .458 .025 .691 .025 c .415 0 .823 -.02 1.225 -.053 z" fill="#0db14b"/></g></g></svg>