<?xml version="1.0" encoding="UTF-8" standalone="no"?>
<svg
   xmlns:dc="http://purl.org/dc/elements/1.1/"
   xmlns:cc="http://creativecommons.org/ns#"
   xmlns:rdf="http://www.w3.org/1999/02/22-rdf-syntax-ns#"
   xmlns:svg="http://www.w3.org/2000/svg"
   xmlns="http://www.w3.org/2000/svg"
   xmlns:sodipodi="http://sodipodi.sourceforge.net/DTD/sodipodi-0.dtd"
   xmlns:inkscape="http://www.inkscape.org/namespaces/inkscape"
   version="1.1"
   id="HQFL"
   x="0px"
   y="0px"
   viewBox="0 0 1000 1000"
   xml:space="preserve"
   sodipodi:docname="Club América.svg"
   width="1000"
   height="1000"
   inkscape:version="1.0.1 (3bc2e813f5, 2020-09-07)"><metadata
   id="metadata45"><rdf:RDF><cc:Work
       rdf:about=""><dc:format>image/svg+xml</dc:format><dc:type
         rdf:resource="http://purl.org/dc/dcmitype/StillImage" /><dc:title /></cc:Work></rdf:RDF></metadata><defs
   id="defs43" /><sodipodi:namedview
   pagecolor="#ffffff"
   bordercolor="#666666"
   borderopacity="1"
   objecttolerance="10"
   gridtolerance="10"
   guidetolerance="10"
   inkscape:pageopacity="0"
   inkscape:pageshadow="2"
   inkscape:window-width="1920"
   inkscape:window-height="1017"
   id="namedview41"
   showgrid="false"
   inkscape:zoom="0.845"
   inkscape:cx="500"
   inkscape:cy="500"
   inkscape:window-x="-8"
   inkscape:window-y="-8"
   inkscape:window-maximized="1"
   inkscape:current-layer="HQFL"
   inkscape:document-rotation="0" />


















<g
   id="g889"
   transform="matrix(1.6734279,0,0,1.6734279,3.8528924,-204.08391)"><path
     style="fill:#fff200"
     d="m 296.485,136.895 c 156.338,0 283.849,127.51 283.849,283.849 0,156.338 -127.511,283.848 -283.849,283.848 -156.338,0 -283.848,-127.51 -283.848,-283.848 0,-156.339 127.509,-283.849 283.848,-283.849 z"
     id="path2" /><ellipse
     transform="matrix(0.7071,-0.7071,0.7071,0.7071,-210.6727,332.8792)"
     style="fill:#2e3192"
     cx="296.48401"
     cy="420.74399"
     rx="273.81201"
     ry="273.81299"
     id="ellipse4" /><path
     style="fill:#fff200"
     d="m 559.663,414.914 h -48.785 c -1.982,-6.412 -4.146,-12.617 -6.479,-18.572 -12.595,-32.138 -30.271,-57.352 -50.787,-70.102 l -4.629,-2.877 -4.63,2.877 c -1.606,0.999 -3.188,2.101 -4.76,3.249 -3.268,-11.475 -7.131,-22.948 -11.636,-34.422 l 57.386,-57.385 c 44.736,46.134 72.814,108.504 74.32,177.232 z"
     id="path6" /><path
     style="fill:#fff200"
     d="m 296.485,157.498 c 70.558,0 134.774,28.009 182.122,73.47 l -57.11,57.11 c -9.201,-3.889 -18.37,-7.323 -27.513,-10.335 l 1.312,-16.791 -3.204,-1.788 c 0.146,3.318 -8.416,-1.128 -8.269,-6.605 -1.64,-0.075 1.725,-4.862 -1.553,-5.011 l -3.059,-5.067 -1.64,-0.073 -6.262,-6.856 0.075,-1.639 c -1.565,-1.714 -6.836,0.343 -6.761,-1.297 -1.642,-0.074 -6.633,1.343 -6.708,2.983 l -1.64,-0.074 -1.638,-0.073 -1.725,5.673 c -0.073,1.64 -0.202,2.499 -0.277,4.139 1.64,0.074 2.084,4.66 3.726,4.734 l -0.075,1.64 c 0.978,1.785 5.174,0.156 7.492,4.769 l 3.206,1.788 c -0.074,1.638 0.378,2.477 1.942,4.191 l 2.133,3.871 1.64,0.074 1.622,2.395 1.64,0.074 c 1.491,3.353 0.933,12.787 -0.78,14.353 l -1.668,1.817 c -1.64,-0.074 -8.793,1.849 -8.941,5.129 1.638,0.074 -0.549,9.761 4.957,4.81 -0.075,1.64 5.93,4.307 5.856,5.947 l 0.256,4.541 c 3.145,6.01 7.076,9.536 12.153,9.436 1.64,-0.739 3.373,2.342 3.393,-7.127 l 0.867,-3.379 c -1.577,-7.323 -2.362,-11.958 4.134,-4.412 l 1.715,-1.565 1.713,-1.565 -0.649,-7.221 c 6.494,2.382 13.001,4.971 19.526,7.826 5.251,12.855 9.678,25.71 13.283,38.566 -15.163,14.015 -28.273,35.029 -38.209,60.386 -12.257,31.273 -19.866,69.352 -20.66,108.877 l -0.061,3.012 -1.559,-1.706 c -3.279,-0.149 -2.146,-4.912 -5.425,-5.061 0.149,-3.279 -1.64,-0.074 -1.491,-3.354 l -3.73,-1.861 -3.645,-2.012 c -1.638,-0.073 -2.165,-3.129 -2.092,-4.768 1.638,0.073 3.354,-1.493 4.992,-1.418 l 0.149,-3.281 -1.64,-0.072 c 0.075,-1.64 -3.204,-6.26 -3.129,-7.899 -3.279,-0.149 -10.245,-7.124 -11.073,-12.553 0.075,-1.641 -3.186,-4.299 -4.826,-4.372 0.149,-3.279 -4.381,-2.521 -4.232,-5.801 -1.64,-0.073 -2.645,-3.075 -2.645,-3.075 l -5.256,-3.852 c -3.279,-0.15 -5.619,1.223 -8.975,2.714 l -7.165,6.466 -8.455,-6.487 0.796,-6.955 c -1.64,-0.075 -2.435,-1.197 -2.359,-2.835 l -2.305,-3.676 -5.361,-3.533 c 0.127,-2.813 3.032,-6.482 6.163,-6.342 l 2.266,-2.528 -2.738,-3.755 -5.29,1.266 -2.929,2.499 -5.306,1.409 -1.565,-1.715 c 0.073,-1.64 -2.12,-4.036 -1.518,-6.316 0.27,-5.964 0.809,-11.511 6.78,-15.293 4.145,-3.491 7.146,-2.158 10.282,0.312 6.558,0.297 -2.213,-3.574 11.22,-1.977 l -1.817,11.078 2.643,3.411 c 1.547,0.949 2.148,0.051 3.795,-1.195 l 2.216,-8.056 c 0.594,-2.444 -0.007,-2.725 0.723,-4.503 0.073,-1.64 4.419,-0.192 4.492,-1.833 l 1.714,-1.565 c 1.64,0.074 3.926,0.076 3.999,-1.563 0.388,-1.21 1.192,-2.231 2.782,-3.059 0.073,-1.639 1.786,-3.205 1.86,-4.845 l 4.992,-1.417 0.075,-1.639 4.993,-1.417 1.714,-1.565 c 0.075,-1.64 3.501,-4.772 5.215,-6.337 l 12.438,4.147 c 1.467,-1.776 10.026,-7.243 5.996,-10.118 0.154,-3.416 -3.992,-0.943 -2.936,-9.758 l 1.715,-1.566 3.278,0.149 9.073,1.883 c -1.152,3.563 -3.446,3.788 -4.229,8.757 1.64,0.074 0.538,6.376 0.538,6.376 l -0.074,1.638 c 2.117,0.424 5.393,3.167 7.51,3.591 0.025,-0.546 1.595,0.453 1.62,-0.093 1.093,0.049 4.892,-2.994 5.984,-2.944 0.221,-4.877 0.64,-9.276 -3.681,-11.252 -0.028,-2.062 5.253,-4.504 5.541,-7.438 0.288,-2.933 -4.417,-6.359 -5.061,-9.09 -1.135,-4.818 -5.4,-8.189 -5.466,-11.67 -0.086,-4.661 2.906,-6.18 3.115,-10.792 l -2.607,-4.522 -3.78,-1.269 -2.886,-2.591 c -1.491,-3.353 -3.308,-8.785 -6.585,-8.933 0.074,-1.64 -4.456,-0.236 -4.381,-1.877 -4.29,-2.974 -7.822,-3.28 -10.595,-0.917 l -1.715,1.565 -0.147,3.281 -2.025,2.244 c -3.575,6.41 -4.169,12.955 -7.671,17.726 l -1.64,-0.075 0.682,10.962 -2.35,2.404 c -3.279,-0.148 -3.211,-11.943 -4.85,-12.017 0.072,-1.64 2.561,-5.578 0.92,-5.653 l -5.583,-2.773 -2.466,-3.729 c -3.278,-0.149 0.762,-13.981 -4.157,-14.203 0.073,-1.639 1.86,-4.844 1.936,-6.482 l 5.142,-4.698 0.073,-1.639 0.074,-1.64 c 3.278,0.148 7.85,-11.365 12.769,-11.142 0.157,-3.459 9.817,-3.714 12.436,-3.596 1.713,-1.566 1.991,-5.39 3.631,-5.317 l 0.511,-14.935 -7.969,4.982 c -1.564,-1.712 -1.657,-3.189 -3.296,-3.263 -3.023,-1.512 -5.93,-6.034 -5.714,-11.829 0.093,-2.446 4.262,-6.443 2.17,-7.887 l -3.841,1.309 c -3.532,1.588 -6.362,5.949 -2.157,11.403 1.452,3.02 -1.81,5.745 -4.974,4.29 l -1.64,-0.074 -1.64,-0.073 c -0.148,3.279 -5.354,-0.54 -6.781,1.915 l -7.486,-2.165 c 0,0 -4.842,-1.285 -8.121,-1.434 l -6.794,0.661 -4.348,-6.442 c -3.279,-0.149 -4.92,-0.215 -4.846,-1.855 l -0.803,-3.987 c 0,0 -4.532,-3.527 -4.457,-5.166 -4.929,-0.971 -3.427,-6.134 -5.196,-7.315 -13.39,0.988 -31.026,-1.283 -36.806,-12.585 l 0.073,-1.64 c -1.64,-0.075 -9.466,-8.643 -11.106,-8.717 l -1.491,-3.352 c -4.025,0.497 -9.235,1.6 -13.141,1.424 -3.428,3.131 -6.979,7.523 -11.898,7.301 -2.007,0.408 -2.335,3.738 -2.423,7.486 l 2.137,0.966 c -0.148,3.278 1.693,5.431 1.545,8.711 l -2.039,1.439 c -1.641,-0.074 -3.721,-0.497 -5.36,-0.57 l -3.096,4.551 -1.639,-0.074 -0.222,4.919 1.639,0.075 3.257,7.237 c -2.681,3.8 -10.379,5.35 -13.98,7.621 -3.215,0.835 -3.986,5.001 -2.57,7.144 2.296,2.095 4.498,4.504 5.476,5.574 l 6.761,7.214 c 0.297,0.736 0.336,1.351 0.174,1.853 -1.548,0.506 -3.096,1.024 -4.643,1.554 -0.547,-0.062 -1.122,-0.161 -1.72,-0.305 -0.366,0.536 -0.808,0.969 -1.283,1.354 -1.915,0.674 -3.829,1.366 -5.742,2.076 -3.521,0.43 -6.913,0.08 -7.36,1.417 l -0.064,1.421 c -1.997,0.79 -3.995,1.595 -5.99,2.424 l -56.51,-56.51 c 47.349,-45.463 111.567,-73.469 182.121,-73.469 z"
     id="path8" /><path
     style="fill:#fff200"
     d="m 285.153,502.398 3.845,10.647 c 1.245,1.769 0.211,7.508 4.628,7.707 -0.074,1.642 -0.078,5.75 1.562,5.823 l -2.244,3.309 -1.691,4.704 c -0.073,1.64 -8.627,13.244 -8.701,14.883 -1.916,2.388 -0.518,7.503 -1.845,10.227 l -1.4,1.914 c -1.64,1.498 -1.945,6.035 -4.903,7.731 -33.653,-2.897 -67.683,-11.647 -102.062,-25.801 -4.282,-9.849 -8.03,-19.732 -11.254,-29.65 13.31,-0.004 26.021,-2.819 37.567,-7.89 11.998,-5.267 22.69,-12.955 31.447,-22.433 l 5.716,-6.185 -5.956,-5.955 -28.876,-28.875 -6.203,6.794 c -4.203,4.603 -9.349,8.341 -15.125,10.897 -5.543,2.453 -11.686,3.817 -18.151,3.817 -4.284,0 -8.427,-0.616 -12.359,-1.743 -4.006,-28.69 -3.71,-57.664 0.918,-86.927 3.656,-0.964 7.49,-1.481 11.441,-1.481 6.589,0 12.831,1.41 18.442,3.942 5.886,2.658 11.094,6.518 15.294,11.256 l 6.189,6.981 34.114,-34.114 -5.779,-6.19 c -8.75,-9.371 -19.393,-16.965 -31.313,-22.16 -11.247,-4.902 -23.59,-7.654 -36.498,-7.777 3.028,-9.458 6.475,-18.944 10.386,-28.461 7.454,-3.241 14.926,-6.192 22.417,-8.861 6.778,-0.761 13.017,-2.755 14.208,-4.708 7.955,-2.437 15.929,-4.544 23.926,-6.32 0.823,1.452 1.718,2.805 3.315,2.878 -0.297,6.558 0.899,16.471 0.602,23.028 7.828,8.57 8.029,14.821 7.436,27.936 -2.745,6.141 -4.889,24.754 -3.397,28.108 l 1.273,0.88 c -0.074,1.641 -2.178,11.573 2.194,13.09 6.331,8.542 4.725,14.43 5.253,17.953 0.466,3.105 1.224,5.125 4.183,9.732 1.824,14.233 3.693,6.194 5.515,5.362 -2.776,-7.856 -0.682,-14.171 -2.173,-17.525 l -1.91,-1.405 0.417,-5.564 2.293,0.103 c -0.038,0.82 1.409,2.133 1.857,3.085 1.346,2.857 2.998,5.574 2.942,6.804 1.42,1.888 -1.897,8.88 1.636,11.124 l -0.056,5.984 -0.072,7.785 c 4.14,8.49 13.191,17.821 21.823,15.588 l 5.706,5.912 c -0.222,4.92 2.738,10.279 4.302,11.994 l 1.567,1.714 c 1.023,0.045 0.582,4.954 6.313,4.873 1.729,-0.026 1.366,2.214 1.98,2.242 l 2.322,5.657 -3.245,3.429 -5.23,2.442 c -3.282,-2.624 -6.516,2.79 -9.794,3.467 -1.614,13.164 -3.607,9.145 -8.62,13.328 -0.223,4.922 2.337,11.543 3.828,14.895 z"
     id="path10" /><path
     style="fill:#fff200"
     d="m 107.63,237.676 55.882,55.882 c -4.38,10.942 -8.19,21.845 -11.467,32.713 -22.31,2.141 -42.387,12.118 -57.417,27.147 C 78.687,369.359 68.42,390.975 67.17,414.914 H 33.307 C 34.813,346.185 62.892,283.813 107.63,237.676 Z"
     id="path12" /><path
     style="fill:#fff200"
     d="m 137.492,414.914 h -20.868 c 0.976,-10.788 5.774,-20.507 13.038,-27.771 3.153,-3.154 6.774,-5.838 10.739,-7.954 -1.646,11.954 -2.626,23.862 -2.909,35.725 z"
     id="path14" /><path
     style="fill:#fff200"
     d="m 139.534,458.308 c -3.626,-2.039 -6.951,-4.556 -9.872,-7.477 -6.466,-6.466 -10.974,-14.879 -12.577,-24.258 h 20.349 c 0.147,10.615 0.856,21.192 2.1,31.735 z"
     id="path16" /><path
     style="fill:#fff200"
     d="m 33.307,426.573 h 34 c 1.653,23.232 11.777,44.182 27.322,59.727 14.821,14.821 34.551,24.733 56.49,27.058 3.331,10.967 7.249,21.895 11.797,32.781 l -56.462,56.463 C 62.397,556.59 34.801,494.702 33.307,426.573 Z"
     id="path18" /><path
     style="fill:#fff200"
     d="m 296.485,683.989 c -71.158,0 -135.863,-28.496 -183.324,-74.645 l 56.496,-56.496 c 32.612,12.997 64.927,21.383 96.922,24.814 -0.428,1.506 -0.753,3.365 -0.721,5.634 l -2.471,3.252 c -0.221,4.917 -1.924,11.34 -2.221,17.899 l 0.684,2.993 1.641,0.073 0.488,3.639 2.775,3.371 c 0.932,1.021 4.086,-0.632 5.931,-2.419 2.699,-2.612 3.749,-4.653 4.061,-5.957 l 0.837,-3.907 1.639,0.074 0.148,-3.28 c 2.845,-0.285 4.633,-8.083 6.904,-9.09 l 1.64,0.073 0.148,-3.28 c 3.279,0.149 -0.163,-4.761 3.118,-4.613 0.056,-1.227 1.061,-2.098 2.541,-2.767 43.67,0.815 86.728,-7.868 129.111,-27 l 56.98,56.982 c -47.46,46.15 -112.167,74.65 -183.327,74.65 z"
     id="path20" /><path
     style="fill:#fff200"
     d="m 486.52,602.598 -58.049,-58.05 c 7.048,-18.144 12.527,-36.291 16.482,-54.438 l 33.435,0.047 c 0.149,1.237 0.275,2.503 0.379,3.799 0.318,3.985 0.397,7.723 0.397,11.436 v 8.778 h 46.075 l -0.181,-8.951 c -0.552,-27.521 -4.417,-54.336 -10.848,-78.645 h 45.452 c -1.492,68.125 -29.089,130.011 -73.142,176.024 z"
     id="path22" /><path
     style="fill:#ed1c24"
     d="m 161.069,334.607 c 24.538,0 46.704,10.46 62.284,27.147 l -21.561,21.561 c -9.878,-11.143 -24.284,-18.183 -40.287,-18.183 -29.663,0 -53.855,24.192 -53.855,53.854 0,29.664 24.191,53.855 53.855,53.855 15.718,0 29.898,-6.794 39.758,-17.596 l 22.39,22.391 c -15.593,16.876 -37.888,27.475 -62.585,27.475 -46.954,0 -85.252,-38.298 -85.252,-85.253 0,-46.955 38.299,-85.251 85.253,-85.251 z"
     id="path24" /><path
     style="fill:#ed1c24"
     d="m 448.983,333.682 c -37.69,23.425 -65.745,94.569 -67.296,171.71 h 28.336 c -0.07,-8.036 0.813,-15.861 2.648,-24.108 l 73.048,0.106 c 1.905,7.895 2.224,15.788 2.224,24.002 h 28.335 c -1.549,-77.141 -29.605,-148.286 -67.295,-171.71 z"
     id="path26" /><path
     style="fill:#fff200"
     d="m 380.627,519.09 -1.565,-1.713 c -1.185,-0.054 -1.83,-2.06 -2.714,-3.207 h 42.531 l -0.076,-8.848 c -0.034,-3.766 0.147,-7.391 0.539,-10.946 0.159,-1.444 0.349,-2.875 0.566,-4.303 l 15.669,0.022 c -4.117,17.815 -9.809,35.631 -17.085,53.446 -34.14,15.832 -68.745,24.445 -103.779,26.414 2.031,-1.964 4.474,-4.139 4.517,-5.101 1.641,0.073 4.597,-0.132 4.672,-1.771 1.638,0.073 3.351,-1.491 3.425,-3.131 l 1.419,-4.619 c 0,-1.983 12.707,-9.005 12.78,-8.661 4.919,0.223 8.947,-0.098 13.866,0.126 0,0 5.14,-4.696 6.779,-4.621 0.148,-3.279 1.64,0.073 1.788,-3.206 1.641,0.075 3.353,-1.491 3.427,-3.131 l 1.716,-1.566 1.713,-1.565 c 1.64,0.074 6.572,-3.813 8.214,-3.739 l 1.714,-1.565 c 0.073,-1.638 -0.189,-6.676 -0.116,-8.315 z"
     id="path28" /><path
     style="fill:#2e3192"
     d="m 302.474,225.312 -2.172,9.018 c 6.402,1.279 6.681,3.785 4.176,6.847 -2.115,3.451 0.223,6.012 7.014,7.682 9.938,4.705 17.23,6.486 18.705,1.837 l -1.503,-10.854 c -1.845,-2.837 -0.952,-6.846 0.333,-11.023 2.84,-4.342 -0.11,-9.129 -8.851,-14.362 -6.291,0.486 -11.413,3.687 -17.702,10.855 z"
     id="path30" /><path
     style="fill:#2e3192"
     d="m 291.617,230.822 11.523,-9.854 2.171,-12.859 c -2.337,-2.504 -5.566,-3.451 -9.686,-2.839 -2.116,5.455 -4.453,8.072 -8.35,12.191 l -3.006,5.678 c 2.004,6.125 4.454,8.685 7.348,7.683 z"
     id="path32" /><path
     style="fill:#2e3192"
     d="m 449.513,393.009 c -8.184,10.539 -14.191,25.822 -21.135,47.402 h 42.27 c -6.945,-21.579 -12.953,-36.863 -21.135,-47.402 z"
     id="path34" /><path
     style="fill:#fff200"
     d="m 458.488,431.632 h -6.14 c 0.06,-1.688 0.123,-3.373 0.154,-5.059 h 4.166 c 0.607,1.645 1.213,3.319 1.82,5.059 z"
     id="path36" /><path
     style="fill:#fff200"
     d="m 443.593,423.278 c -0.027,2.784 -0.093,5.568 -0.196,8.354 h -2.86 c 1.02,-2.921 2.033,-5.7 3.056,-8.354 z"
     id="path38" /></g>
</svg>
