<svg height="1000" viewBox="0 0 1000 1000" width="1000" xmlns="http://www.w3.org/2000/svg"><g transform="matrix(5.4054054 0 0 5.4054054 -1093.9324 -1769.6108)"><path d="m 266.819 371.039 l -6.951 -17.052 l 10.07 5.11 l .297 6.06 l 2.406 -.03 v -1.367 l -.654 -.535 c .594 -.386 1.129 -.832 1.664 -1.336 c .505 .475 1.04 .921 1.634 1.336 l -.654 .535 v 1.367 l 3.357 -.03 v -2.495 l -1.277 -.713 c .951 -.446 1.782 -.892 2.495 -1.396 c .772 .535 1.664 1.04 2.644 1.485 l -1.277 .624 v 2.465 l 5.496 -.059 v -1.248 l -.654 -.535 c .565 -.386 1.129 -.832 1.664 -1.336 c .505 .475 1.039 .921 1.634 1.336 l -.653 .535 v 1.248 l 3.921 -.03 v -3.06 l -3.09 -2.555 c 2.317 -.891 4.248 -2.228 5.971 -3.862 c 1.723 1.634 3.654 2.971 5.971 3.862 l -3.09 2.555 v 3.06 l 3.951 .03 v -1.248 l -.684 -.535 c .625 -.416 1.159 -.861 1.664 -1.336 c .535 .505 1.069 .95 1.664 1.336 l -.654 .535 v 1.248 l 5.496 .059 v -2.465 l -1.277 -.624 c .98 -.445 1.872 -.95 2.645 -1.485 c .713 .505 1.544 .951 2.495 1.396 l -1.277 .713 v 2.495 l 3.327 .03 v -1.367 l -.654 -.535 c .624 -.416 1.159 -.861 1.664 -1.336 c .534 .505 1.069 .95 1.664 1.336 l -.654 .535 v 1.367 l 2.406 .03 l .327 -6.06 l 10.041 -5.11 l -6.951 17.052 z" fill="#f3c716"/><path d="m 294.863 375.347 c -36.48 0 -66.188 29.707 -66.188 66.188 c 0 36.511 29.707 66.218 66.188 66.218 c 36.51 0 66.217 -29.707 66.217 -66.218 c 0 -36.481 -29.707 -66.188 -66.217 -66.188 z"/><path d="m 294.863 377.129 c -35.5 0 -64.405 28.905 -64.405 64.405 c 0 35.53 28.905 64.435 64.405 64.435 c 35.53 0 64.435 -28.905 64.435 -64.435 c 0 -35.5 -28.905 -64.405 -64.435 -64.405 z" fill="#fff"/><path d="m 326.056 430.275 l .06 .089 l -.06 .09 l -1.961 1.752 v 8.586 c .237 .208 .445 .356 .564 .505 c .179 .208 .268 .386 .268 .505 c 0 .208 -.089 .356 -.268 .445 c -.148 .09 -.386 .148 -.683 .148 c -.565 0 -1.159 .03 -1.753 .149 c -.595 .118 -1.159 .267 -1.724 .475 c -.268 .119 -.534 .208 -.773 .327 c -.237 .089 -.445 .208 -.683 .356 v .029 c -.327 .148 -.595 .356 -.892 .595 c -.268 .208 -.505 .445 -.713 .713 l -.029 .06 h -.832 l -.03 -.06 c -.772 -.772 -1.397 -1.337 -1.871 -1.723 c -.476 -.357 -.803 -.535 -1.011 -.535 c -.089 0 -.178 .029 -.296 .089 c -.119 .089 -.238 .179 -.387 .327 c -.119 .119 -.237 .237 -.297 .297 c -.119 .089 -.179 .148 -.238 .148 h -.06 l -.029 -.06 l -.476 -.476 l -.059 -.089 l .089 -.089 l 1.901 -1.724 v -8.703 c -.268 -.209 -.476 -.416 -.595 -.595 c -.148 -.179 -.237 -.386 -.237 -.565 c 0 -.059 0 -.089 .029 -.119 c 0 -.059 .03 -.089 .059 -.118 c .03 -.03 .089 -.06 .148 -.06 c .03 -.03 .06 -.03 .09 -.06 h .06 c .029 0 .059 0 .118 0 c .029 0 .089 -.029 .119 -.029 l .059 -.03 c .595 0 1.189 -.06 1.813 -.208 c .624 -.119 1.308 -.326 1.99 -.564 c .357 -.148 .684 -.297 .98 -.445 c .179 -.06 .327 -.148 .476 -.208 c .327 -.208 .624 -.386 .861 -.564 c .268 -.179 .505 -.387 .684 -.565 l .089 -.029 h .713 l .03 .029 c .297 .357 .594 .684 .861 .951 c .297 .297 .594 .534 .861 .742 c .268 .179 .475 .327 .684 .445 c .178 .089 .356 .119 .475 .119 c .179 0 .387 -.06 .595 -.208 c .237 -.178 .445 -.416 .683 -.742 l .119 -.119 l .089 .119 z"/><path d="m 321.361 441.713 v -8.794 l -2.436 -1.574 l -.564 -.356 l -1.753 .684 v 8.822 l 2.436 1.664 v .029 l .416 .298 c .356 -.208 .713 -.357 1.039 -.476 c .328 -.149 .625 -.237 .862 -.297 z" fill="#fff"/><path d="m 302.527 442.218 l .624 -.624 l .119 -.089 l .089 .148 l .326 .742 l .06 .09 l -.06 .06 l -2.763 2.732 l -.089 .03 h -.594 l -.03 -.03 c -.565 -.564 -.979 -1.129 -1.277 -1.693 c -.268 -.565 -.416 -1.129 -.416 -1.693 v -9.179 l -1.337 -1.456 l -3.505 3.624 v 6.149 l 1.307 1.069 l .713 -.564 l .089 -.06 l .06 .09 l .475 .445 l .06 .089 l -.06 .089 l -3.179 3.09 l -.059 .03 h -.476 l -.03 -.06 c -.475 -.624 -.861 -1.069 -1.218 -1.367 c -.327 -.297 -.564 -.445 -.772 -.445 c -.268 0 -.505 .089 -.713 .268 c -.238 .178 -.445 .476 -.624 .832 l -.089 .148 l -.119 -.119 l -.505 -.624 l -.059 -.089 l .089 -.06 l 2.436 -2.406 v -8.467 l -1.218 -1.634 l -.713 .743 l -.089 .089 l -.089 -.089 l -.505 -.564 l -.06 -.06 l .06 -.09 l 2.941 -2.941 l .089 -.029 h .713 l .03 .029 c .415 .594 .743 1.069 .98 1.426 c .208 .327 .327 .565 .357 .713 c .06 .179 .089 .327 .089 .476 c .03 .089 .03 .148 .06 .237 v .03 c 0 .089 0 .237 0 .416 c 0 .178 0 .386 .03 .683 v 1.04 l 5.288 -5.021 l .059 -.029 h .535 l .029 .06 c .446 .742 .832 1.307 1.188 1.692 c .327 .357 .595 .535 .803 .535 c .089 0 .178 -.03 .237 -.03 c .06 -.029 .118 -.059 .148 -.089 v -.029 c .089 -.06 .148 -.089 .237 -.148 c .06 -.06 .149 -.119 .208 -.179 c .089 -.118 .208 -.208 .297 -.326 c .119 -.09 .238 -.208 .357 -.297 l .118 -.09 l .06 .119 l .356 .565 l .06 .06 l -.089 .089 l -2.377 2.287 v 6.744 c 0 .802 .148 1.426 .357 1.931 c .238 .446 .565 .773 .981 .981 z"/><path d="m 311.054 441.921 l 1.277 -1.01 l .089 -.059 l .089 .089 l .387 .505 l .059 .089 l -.059 .06 l -3.832 3.357 l -.06 .029 h -.416 l -.09 -.029 c -.653 -.684 -1.247 -1.189 -1.723 -1.516 c -.476 -.297 -.861 -.445 -1.129 -.445 c -.237 0 -.445 .029 -.653 .118 c -.237 .09 -.476 .238 -.713 .446 l -.089 .06 l -.09 -.09 l -.326 -.445 l -.06 -.089 l .089 -.059 l 2.674 -2.079 v -10.131 h -1.01 c -.268 0 -.476 .06 -.654 .148 c -.208 .119 -.326 .268 -.445 .476 l -.059 .119 l -.089 -.06 l -.387 -.148 l -.118 -.03 l .029 -.118 l .98 -2.793 l .03 -.089 h 1.723 v -5.793 l .06 -.029 l 2.792 -2.05 l .179 -.148 v 8.021 h 1.366 c .268 0 .505 -.06 .772 -.208 c .237 -.119 .475 -.357 .742 -.653 l .09 -.089 l .089 .118 l .268 .327 l .06 .06 l -.03 .059 l -1.039 2.793 l -.03 .089 h -2.287 v 10.041 z"/><path d="m 287.496 442.069 l .713 -.595 l .089 -.059 l .089 .089 l .357 .564 l .059 .06 l -.089 .089 l -3.089 2.792 l -.089 .03 h -.416 l -.03 -.06 c -.267 -.297 -.505 -.535 -.684 -.772 c -.148 -.119 -.267 -.237 -.356 -.356 c -.149 -.178 -.268 -.327 -.357 -.505 c -.089 -.179 -.148 -.357 -.208 -.535 c -.06 -.178 -.089 -.416 -.119 -.713 c -.029 -.237 -.029 -.475 -.029 -.802 l -2.645 2.05 v .029 l -2.198 1.634 l -.089 .03 h -.565 c -.119 0 -.238 -.06 -.416 -.148 c -.178 -.09 -.356 -.238 -.594 -.387 h -.029 c -.208 -.178 -.417 -.386 -.624 -.624 c -.208 -.237 -.416 -.505 -.594 -.802 c -.208 -.268 -.356 -.594 -.475 -.921 c -.089 -.326 -.119 -.713 -.119 -1.1 c 0 -.505 .089 -1.039 .297 -1.604 c .208 -.505 .505 -1.01 .92 -1.485 c .417 -.535 .951 -1.04 1.575 -1.516 c .535 -.416 1.159 -.802 1.872 -1.158 l -2.317 -2.882 c -.386 -.386 -.654 -.802 -.862 -1.189 c -.178 -.386 -.268 -.772 -.268 -1.129 c 0 -.297 .06 -.534 .149 -.742 c .089 -.237 .208 -.416 .327 -.565 c .148 -.179 .327 -.297 .505 -.356 c .178 -.06 .356 -.089 .594 -.089 c .178 0 .356 .029 .505 .089 c .178 .06 .356 .178 .505 .326 c .208 .179 .356 .357 .445 .565 c .089 .237 .119 .475 .119 .772 c 0 .238 -.03 .476 -.119 .714 c -.089 .207 -.207 .415 -.386 .653 c .207 -.03 .415 -.09 .623 -.149 c .297 -.089 .624 -.237 .921 -.386 h .06 c .03 0 .03 0 .06 0 c 0 0 0 0 .029 -.029 h .03 c .297 -.148 .594 -.327 .891 -.476 c .297 -.178 .594 -.356 .861 -.564 c .298 -.208 .535 -.476 .772 -.713 c .238 -.268 .446 -.505 .624 -.773 l .03 -.029 h .713 l .03 .06 c .119 .326 .268 .594 .446 .861 c .178 .268 .386 .534 .594 .742 c .208 .238 .415 .387 .594 .476 c .179 .089 .327 .148 .476 .148 c .06 0 .119 0 .208 -.03 c .06 -.029 .119 -.059 .208 -.089 c 0 -.029 .029 -.029 .089 -.089 c .148 -.089 .356 -.208 .624 -.416 c .089 -.089 .208 -.178 .267 -.237 c .089 -.089 .149 -.089 .149 -.119 l .237 -.06 l .268 .624 l .03 .06 l -.06 .06 l -2.496 2.198 v 8.14 z"/><path d="m 283.337 439.96 v -7.219 l -1.426 -1.456 c -.238 .179 -.446 .297 -.624 .416 c -.237 .119 -.416 .238 -.624 .356 h -.03 c -.148 .03 -.268 .089 -.356 .148 c -.03 .03 -.06 .03 -.089 .03 v .029 c -.237 .06 -.505 .148 -.802 .208 c -.238 .06 -.475 .089 -.743 .119 l 2.05 2.584 l 1.278 1.575 l .06 .089 l -.06 .06 l -.417 .594 l -.089 .148 l -.119 -.148 l -.832 -1.129 l -.238 -.297 c -.446 .237 -.832 .475 -1.129 .713 c -.356 .268 -.624 .505 -.802 .772 c -.148 .237 -.267 .505 -.356 .802 c -.089 .298 -.148 .624 -.148 .98 c 0 .327 .059 .653 .148 .98 c .119 .297 .268 .595 .475 .891 c .208 .268 .475 .506 .802 .714 c .297 .208 .624 .386 1.01 .505 l .267 -.208 z" fill="#fff"/><path d="m 338.503 435.177 c 0 .179 -.06 .356 -.208 .505 c -.119 .119 -.297 .238 -.535 .327 v 4.604 c .06 .03 .119 .06 .179 .119 c .089 .06 .179 .148 .237 .268 c .089 .089 .148 .207 .179 .297 c .029 .089 .06 .178 .06 .268 c 0 .118 -.09 .208 -.238 .297 h .03 c -.119 .06 -.298 .118 -.535 .178 c -1.039 .09 -1.931 .356 -2.703 .772 c -.802 .416 -1.485 1.01 -2.05 1.753 l -.03 .059 h -.653 l -.059 -.059 c -.06 -.089 -.119 -.149 -.209 -.237 c -.059 -.03 -.118 -.09 -.148 -.119 c -.06 -.029 -.119 -.089 -.178 -.119 c -.208 -.118 -.445 -.268 -.743 -.415 c -.297 -.149 -.564 -.268 -.832 -.356 c -.267 -.06 -.534 -.09 -.772 -.09 c -.237 0 -.445 .03 -.623 .06 c -.208 .06 -.387 .148 -.535 .268 c -.148 .089 -.327 .208 -.534 .386 c -.179 .148 -.387 .327 -.654 .535 l -.089 .089 l -.06 -.089 l -.445 -.445 l -.089 -.06 l .059 -.09 l 4.545 -6.446 h -3.862 c -.178 0 -.326 -.029 -.445 -.148 c -.09 -.119 -.148 -.267 -.148 -.445 c 0 -.119 .029 -.237 .089 -.356 c .059 -.119 .119 -.238 .237 -.327 v -.029 c .119 -.059 .208 -.149 .327 -.208 c .089 -.06 .179 -.089 .297 -.119 v -4.011 c -.06 -.029 -.089 -.06 -.118 -.089 c -.09 -.06 -.179 -.119 -.238 -.208 c -.118 -.089 -.178 -.149 -.237 -.208 c -.089 -.06 -.119 -.089 -.179 -.148 l -.029 -.029 c -.03 -.06 -.059 -.119 -.059 -.179 c -.03 -.06 -.03 -.118 -.03 -.178 c 0 -.149 .09 -.268 .268 -.357 c .179 -.06 .416 -.119 .714 -.148 c .415 -.06 .831 -.119 1.218 -.238 c .386 -.089 .772 -.237 1.129 -.416 c .326 -.148 .624 -.326 .95 -.564 c .357 -.237 .684 -.505 1.069 -.861 c 0 -.029 .06 -.06 .09 -.089 c .059 -.06 .118 -.089 .178 -.119 h .06 h .476 h .089 c .505 .387 .98 .653 1.396 .861 c .415 .179 .773 .268 1.099 .268 c .327 0 .684 -.089 1.069 -.268 c .416 -.208 .832 -.475 1.308 -.861 l .089 -.06 l .06 .09 l .356 .386 l .06 .089 l -.06 .06 l -4.248 6.06 h 3.802 c .268 0 .477 .029 .624 .089 c .15 .089 .238 .208 .238 .416 v .084 z"/><path d="m 335.087 441.802 v -5.109 h -2.645 l -.476 .653 h .03 l -3.119 4.456 c .505 -.386 .98 -.653 1.426 -.861 c .565 -.267 1.1 -.387 1.574 -.387 h .06 c .238 0 .476 .03 .743 .06 c .237 .06 .505 .148 .772 .238 h .029 c .268 .148 .534 .267 .742 .445 c .208 .148 .387 .297 .535 .505 z" fill="#fff"/><path d="m 330.065 435.059 h 2.466 l 3.327 -4.754 v -.029 c -.534 .476 -1.069 .832 -1.574 1.069 c -.564 .237 -1.129 .357 -1.663 .357 c -.149 0 -.268 0 -.416 0 c -.119 0 -.238 -.029 -.356 -.089 c -.06 0 -.119 0 -.179 -.03 c -.089 -.029 -.119 -.059 -.178 -.089 h -.03 c -.148 -.089 -.297 -.237 -.505 -.416 c -.179 -.178 -.356 -.386 -.564 -.623 l -.327 .267 v 4.337 z" fill="#fff"/><path d="m 269.166 427.869 c 1.01 .327 1.842 .713 2.555 1.129 c .772 .445 1.367 .95 1.782 1.456 v .029 c .386 .565 .683 1.218 .862 1.931 c .208 .743 .297 1.574 .297 2.496 c 0 .505 -.059 1.039 -.208 1.544 c -.148 .505 -.386 1.011 -.653 1.516 c -.297 .505 -.624 .95 -.951 1.397 c -.357 .445 -.713 .891 -1.1 1.277 c -.386 .386 -.802 .772 -1.248 1.188 c -.445 .415 -.921 .86 -1.426 1.336 h -.03 c -.149 .119 -.297 .268 -.445 .387 c -.149 .148 -.297 .267 -.446 .386 c -.267 .238 -.476 .446 -.654 .624 c -.178 .178 -.297 .327 -.386 .445 l -.03 .03 h -1.04 l -.06 -.03 c -.624 -.534 -1.336 -1.01 -2.109 -1.485 c -.772 -.445 -1.604 -.861 -2.525 -1.247 c -.386 .683 -.802 1.307 -1.188 1.901 c -.416 .653 -.862 1.218 -1.248 1.782 c -.445 .565 -.861 1.069 -1.277 1.545 c -.415 .475 -.802 .891 -1.188 1.247 c -.178 .179 -.327 .327 -.505 .476 c -.148 .148 -.327 .268 -.475 .387 c -.238 .178 -.475 .357 -.713 .505 c -.238 .148 -.475 .267 -.684 .386 c -.386 .208 -.772 .356 -1.128 .475 c -.357 .089 -.683 .148 -1.04 .148 c -.832 -.06 -1.456 -.327 -1.871 -.861 c -.416 -.476 -.654 -1.218 -.654 -2.14 c 0 -.891 .178 -1.752 .475 -2.584 c .327 -.832 .772 -1.634 1.396 -2.406 c .327 -.416 .713 -.832 1.129 -1.189 c .416 -.386 .861 -.743 1.337 -1.069 c .268 -.148 .535 -.327 .802 -.476 c .268 -.178 .535 -.326 .832 -.476 c .238 -.089 .505 -.208 .743 -.297 c .237 -.118 .505 -.207 .773 -.297 c .535 -.178 1.069 -.326 1.604 -.416 c .564 -.089 1.099 -.148 1.634 -.148 c .297 0 .653 .03 1.07 .089 c .356 .03 .742 .119 1.188 .208 l 1.931 -3.713 c -1.159 -.327 -2.169 -.624 -3.03 -.862 c -1.069 -.326 -1.901 -.594 -2.525 -.831 c -.624 -.237 -1.159 -.535 -1.664 -.861 c -.535 -.357 -1.01 -.772 -1.426 -1.219 h .03 c -.119 -.089 -.208 -.237 -.297 -.356 c -.03 -.029 -.059 -.089 -.059 -.118 c -.297 -.387 -.535 -.832 -.684 -1.308 c -.148 -.475 -.208 -.98 -.208 -1.545 c 0 -.475 .059 -.95 .208 -1.455 c .149 -.476 .386 -.98 .684 -1.485 l .029 -.089 l .119 .06 l .475 .236 l .089 .03 l -.03 .089 c -.06 .208 -.089 .387 -.119 .564 c 0 .148 -.03 .298 -.03 .416 c 0 .416 .089 .772 .208 1.129 c .148 .327 .386 .624 .683 .892 c .268 .297 .624 .565 1.01 .832 c .356 .237 .772 .445 1.247 .623 c .476 .208 .951 .387 1.456 .564 c .505 .179 1.04 .357 1.544 .506 c .535 .148 1.129 .326 1.753 .475 c .624 .179 1.277 .357 1.991 .565 l .772 -1.485 c -.238 -.06 -.594 -.178 -1.129 -.326 c -.149 -.03 -.238 -.06 -.268 -.06 c -.297 -.089 -.535 -.148 -.743 -.208 c -.535 -.148 -1.01 -.297 -1.515 -.445 c -.357 -.09 -.683 -.208 -.98 -.327 c -.327 -.089 -.624 -.208 -.921 -.327 c -.624 -.268 -1.188 -.564 -1.694 -.891 c -.534 -.356 -.98 -.743 -1.366 -1.159 c -.356 -.416 -.653 -.92 -.832 -1.515 c -.207 -.565 -.297 -1.218 -.297 -1.99 c 0 -.595 .089 -1.189 .268 -1.693 c .178 -.535 .445 -1.04 .802 -1.485 h .03 h -.03 h .03 c .327 -.416 .713 -.802 1.129 -1.129 c .446 -.327 .921 -.624 1.426 -.861 h .03 c .505 -.208 1.009 -.357 1.485 -.446 c .475 -.119 .95 -.148 1.426 -.148 c .891 0 1.723 .119 2.525 .356 c .802 .238 1.545 .564 2.228 1.04 c .268 .178 .535 .356 .743 .535 c .208 .178 .416 .357 .594 .535 l 1.99 -1.693 l .089 -.089 l .089 .089 l .386 .564 l .06 .089 l -.089 .06 l -3.832 3.358 l -1.248 1.099 l -.119 .119 l -.06 -.148 c -.267 -.506 -.505 -.951 -.772 -1.337 c -.297 -.446 -.564 -.832 -.862 -1.129 v -.03 c -.237 -.297 -.505 -.564 -.772 -.802 c -.267 -.208 -.535 -.386 -.802 -.505 c -.267 -.119 -.505 -.237 -.773 -.297 c -.297 -.089 -.564 -.119 -.861 -.149 c -.535 0 -1.01 .059 -1.426 .208 c -.417 .119 -.802 .326 -1.1 .594 c -.327 .238 -.565 .534 -.713 .892 c -.148 .357 -.238 .742 -.238 1.189 c .03 .445 .178 .831 .386 1.188 c .208 .356 .535 .684 .951 1.011 c .268 .207 .535 .415 .861 .594 c .327 .179 .654 .356 1.04 .505 c .356 .179 .713 .327 1.069 .446 c .357 .148 .713 .267 1.069 .386 c .297 .089 .624 .178 .951 .268 c .505 .148 1.04 .297 1.575 .415 h .03 c .297 .119 .713 .209 1.04 .327 c .297 .09 .535 .148 .713 .208 h .03 c .03 0 .059 .03 .089 .03 c 0 0 0 0 .03 0 c .386 -.565 .743 -1.07 1.07 -1.545 c .356 -.476 .683 -.921 .98 -1.277 c .267 -.416 .594 -.772 .891 -1.1 c .297 -.327 .594 -.624 .891 -.921 c .327 -.268 .653 -.534 .98 -.773 c .356 -.237 .713 -.476 1.099 -.683 l .119 -.06 l .06 .118 l .237 .505 l .03 .09 l -.089 .06 c -.387 .267 -.743 .505 -1.07 .772 c -.327 .267 -.624 .535 -.92 .832 c -.327 .297 -.594 .564 -.862 .861 c -.267 .298 -.535 .624 -.772 .951 c -.03 .029 -.06 .089 -.089 .148 c -.443 .589 -1.007 1.332 -1.631 2.253 z"/><path d="m 271.958 438.95 c .357 -.505 .624 -.98 .802 -1.456 c .178 -.475 .268 -.921 .268 -1.337 c 0 -.653 -.089 -1.247 -.297 -1.782 c -.238 -.505 -.564 -.98 -.98 -1.396 c -.386 -.326 -.891 -.653 -1.485 -.95 c -.624 -.298 -1.367 -.564 -2.228 -.832 c -.119 -.06 -.267 -.089 -.445 -.119 c -.089 -.029 -.179 -.06 -.268 -.089 l -.713 1.337 c .208 .089 .446 .179 .684 .268 c .267 .089 .564 .208 .832 .297 c .059 .029 .089 .06 .119 .06 c .03 0 .06 .029 .06 .029 h .06 c .327 .119 .624 .238 .921 .356 c .297 .149 .535 .297 .772 .445 c .238 .119 .445 .298 .624 .476 c .208 .208 .416 .445 .564 .654 v .029 c .297 .475 .446 1.099 .446 1.782 c 0 .594 -.148 1.189 -.416 1.753 c -.267 .535 -.653 1.04 -1.218 1.515 l -.06 .09 l -.089 -.09 l -.386 -.357 l -.089 -.089 l .089 -.089 c .178 -.208 .327 -.387 .416 -.595 c .089 -.178 .119 -.386 .119 -.565 c 0 -.208 -.06 -.415 -.178 -.594 c -.119 -.208 -.327 -.356 -.565 -.535 c -.178 -.089 -.357 -.178 -.565 -.267 c -.208 -.09 -.445 -.179 -.713 -.268 c -.178 -.06 -.356 -.148 -.535 -.208 c -.178 -.06 -.356 -.148 -.564 -.208 c -.327 -.119 -.624 -.208 -.892 -.297 c -.445 -.148 -.743 -.268 -.951 -.356 l -1.901 3.653 c .743 .209 1.515 .564 2.347 1.04 c .832 .476 1.723 1.129 2.614 1.931 c .059 .06 .089 .09 .148 .149 c .06 .029 .119 .089 .179 .148 c .772 -.653 1.455 -1.278 2.02 -1.872 c .593 -.591 1.069 -1.156 1.454 -1.661 z" fill="#fff"/><path d="m 257.669 446.109 c .535 -.624 1.04 -1.308 1.515 -2.021 c .476 -.653 .921 -1.366 1.367 -2.109 c -.148 -.059 -.327 -.118 -.535 -.178 c -.238 -.06 -.535 -.119 -.832 -.208 c -1.218 -.208 -2.466 0 -3.624 .535 c -1.159 .564 -2.288 1.485 -3.238 2.732 c -.386 .535 -.98 1.575 -1.278 2.614 c -.148 .505 -.207 1.011 -.148 1.426 c .029 .387 .237 .714 .594 .862 c .179 .089 .416 .148 .743 .148 c .446 0 .772 -.06 1.129 -.179 c .356 -.148 .743 -.356 1.248 -.742 h .029 c .119 -.06 .238 -.148 .357 -.238 c .119 -.089 .237 -.178 .327 -.267 c .386 -.298 .802 -.684 1.188 -1.07 c .386 -.414 .772 -.859 1.158 -1.305 z" fill="#fff"/><path d="m 294.863 351.64 c 1.307 0 2.228 1.248 2.199 3.001 h 4.575 c -.209 -2.465 -1.456 -3.951 -3.18 -5.139 l 1.932 -2.169 c 4.277 3.594 8.02 7.337 10.457 11.497 l 6.209 -2.912 c -1.248 -2.822 -4.427 -5.555 -8.081 -8.228 c 3.595 -.149 8.645 2.525 14.645 6.951 c 1.308 -3.149 2.763 -4.099 6.685 -4.575 c -5.109 -4.367 -13.636 -6.981 -22.459 -6.981 h -10.159 c -.327 -.654 -.862 -1.188 -1.516 -1.515 v -3.595 c .119 -.089 .237 -.208 .327 -.327 h 2.703 v -2.614 h -2.703 c -.09 -.119 -.208 -.238 -.327 -.357 v -2.674 h -2.614 v 2.674 c -.119 .119 -.238 .238 -.357 .357 h -2.644 v 2.614 h 2.644 c .119 .119 .238 .238 .357 .327 v 3.595 c -.683 .327 -1.218 .861 -1.515 1.515 h -10.13 c -8.852 0 -17.349 2.614 -22.458 6.981 c 3.921 .476 5.377 1.426 6.654 4.575 c 6.001 -4.426 11.081 -7.1 14.675 -6.951 c -3.654 2.674 -6.833 5.407 -8.11 8.228 l 6.238 2.912 c 2.436 -4.159 6.179 -7.902 10.457 -11.497 l 1.901 2.169 c -1.693 1.188 -2.941 2.674 -3.179 5.139 h 4.575 c -.029 -1.753 .892 -3.001 2.199 -3.001 z" fill="#f3c716"/><path d="m 294.863 342.758 c .891 0 1.634 .713 1.634 1.634 c 0 .892 -.743 1.634 -1.634 1.634 c -.891 0 -1.634 -.743 -1.634 -1.634 c 0 -.921 .743 -1.634 1.634 -1.634 z" fill="#fff"/><path d="m 284.198 368.722 c -.387 0 -.713 -.327 -.713 -.713 c 0 -.386 .326 -.684 .713 -.684 c .386 0 .683 .297 .683 .684 c 0 .386 -.297 .713 -.683 .713 z" fill="#fff"/><path d="m 273.474 368.811 c -.386 0 -.683 -.297 -.683 -.683 c 0 -.416 .297 -.713 .683 -.713 c .386 0 .713 .297 .713 .713 c -.001 .386 -.327 .683 -.713 .683 z" fill="#fff"/><path d="m 294.863 368.811 c .386 0 .713 -.297 .713 -.683 c 0 -.416 -.327 -.713 -.713 -.713 c -.386 0 -.713 .297 -.713 .713 c 0 .386 .327 .683 .713 .683 z" fill="#fff"/><path d="m 305.558 368.722 c .386 0 .713 -.327 .713 -.713 c 0 -.386 -.327 -.684 -.713 -.684 c -.387 0 -.713 .297 -.713 .684 c 0 .386 .326 .713 .713 .713 z" fill="#fff"/><path d="m 316.281 368.811 c .387 0 .684 -.297 .684 -.683 c 0 -.416 -.297 -.713 -.684 -.713 c -.386 0 -.713 .297 -.713 .713 c 0 .386 .327 .683 .713 .683 z" fill="#fff"/><path d="m 237.201 412.808 c -4.04 8.14 -6.446 17.23 -6.714 26.855 l 9.447 11.11 l 11.942 -20.735 l -.238 -23.41 z" fill="#218b6f"/><path d="m 245.252 482.59 c 5.941 7.159 13.368 13.012 21.835 17.082 l 13.843 -4.189 l -14.081 -19.102 l -21.538 -8.645 z" fill="#218b6f"/><path d="m 318.599 501.454 c 8.675 -3.446 16.398 -8.734 22.756 -15.329 l -.118 -15.121 l -22.014 7.664 l -14.943 18.092 z" fill="#218b6f"/><path d="m 359.209 438.088 c -.505 -9.595 -3.119 -18.626 -7.398 -26.647 l -13.189 -4.931 l -.327 23.379 l 11.14 20.112 z" fill="#218b6f"/><path d="m 294.863 377.129 c -6.208 0 -12.21 .891 -17.913 2.525 l -2.733 10.071 l 22.429 7.338 l 22.696 -5.525 l -4.308 -11.17 c -6.357 -2.11 -13.131 -3.239 -20.171 -3.239 z" fill="#218b6f"/><path d="m 305.735 415.719 v -10.665 h 4.843 c .594 0 1.129 0 1.604 .059 c .445 .06 .861 .148 1.218 .297 c .475 .208 .861 .535 1.129 .95 c .237 .446 .386 .98 .386 1.545 c 0 .654 -.178 1.188 -.534 1.604 c -.208 .207 -.476 .415 -.772 .564 c .386 .119 .742 .327 .98 .624 c .445 .446 .683 1.099 .683 1.901 c 0 .505 -.089 .951 -.268 1.337 c -.148 .386 -.415 .742 -.742 1.01 c -.445 .357 -.98 .535 -1.603 .654 c -.595 .119 -1.278 .119 -2.08 .119 h -4.844 z"/><path d="m 308.736 411.411 v 1.872 h 1.515 c .684 0 1.188 -.059 1.485 -.208 c .268 -.119 .387 -.356 .387 -.743 c 0 -.416 -.119 -.624 -.387 -.742 c -.326 -.149 -.832 -.179 -1.485 -.179 z" fill="#fff"/><path d="m 308.736 407.46 v 1.693 h 1.337 c .594 0 1.04 -.059 1.307 -.208 c .237 -.119 .327 -.327 .327 -.683 c 0 -.356 -.09 -.564 -.327 -.653 c -.267 -.119 -.713 -.149 -1.307 -.149 z" fill="#fff"/><path d="m 293.972 405.054 h 3.09 v 5.971 c 0 .773 .178 1.337 .505 1.723 c .297 .357 .802 .535 1.455 .535 c .713 0 1.248 -.178 1.575 -.535 c .326 -.356 .505 -.951 .505 -1.723 v -5.971 h 3.09 v 6.001 c 0 1.664 -.416 2.882 -1.248 3.684 c -.861 .802 -2.169 1.159 -3.922 1.159 c -.861 0 -1.603 -.09 -2.228 -.268 c -.653 -.208 -1.188 -.505 -1.604 -.862 c -.475 -.445 -.802 -.98 -.981 -1.575 c -.178 -.624 -.237 -1.307 -.237 -2.139 z"/><path d="M 285.743 405.054 L 288.773 405.054 L 288.773 413.045 L 293.526 413.045 L 293.526 415.719 L 285.743 415.719 Z"/><path d="m 284.763 411.708 v .238 c -.03 1.278 -.476 2.288 -1.277 2.941 c -.802 .684 -1.932 1.011 -3.417 1.011 c -1.723 0 -3.09 -.476 -3.98 -1.426 c -.921 -.921 -1.396 -2.317 -1.396 -4.07 c 0 -1.783 .475 -3.149 1.426 -4.1 c .921 -.891 2.288 -1.367 4.07 -1.367 c 1.397 0 2.496 .297 3.238 .921 c .772 .564 1.188 1.515 1.307 2.762 v .238 h -3.03 l -.03 -.208 c -.089 -.416 -.237 -.713 -.505 -.921 c -.268 -.208 -.653 -.327 -1.129 -.327 c -.772 0 -1.337 .238 -1.693 .684 c -.356 .476 -.564 1.218 -.564 2.258 c 0 1.04 .178 1.783 .535 2.288 c .356 .475 .861 .713 1.574 .713 c .564 0 .98 -.119 1.277 -.357 c .297 -.208 .445 -.565 .505 -1.099 l .03 -.179 z"/><path d="M 265.453 454.309 L 268.215 454.309 L 268.215 461.973 L 272.434 461.973 L 272.434 464.558 L 265.453 464.558 Z"/><path d="m 294.358 454.309 h 2.822 v 5.764 c 0 .742 .149 1.276 .416 1.634 c .268 .326 .713 .475 1.277 .475 c .624 0 1.07 -.148 1.367 -.475 c .297 -.358 .445 -.892 .445 -1.634 v -5.764 h 2.792 v 5.764 c 0 1.604 -.355 2.762 -1.099 3.534 c -.773 .772 -1.932 1.129 -3.506 1.129 c -.742 0 -1.426 -.089 -1.99 -.267 c -.594 -.208 -1.069 -.476 -1.426 -.832 c -.445 -.445 -.713 -.921 -.891 -1.516 c -.148 -.565 -.208 -1.247 -.208 -2.049 v -5.763 z"/><path d="M 314.41 464.558 L 311.023 464.558 L 310.964 464.439 L 307.726 458.26 L 307.726 464.558 L 305.201 464.558 L 305.201 454.309 L 308.558 454.309 L 308.617 454.428 L 311.885 460.636 L 311.885 454.309 L 314.41 454.309 Z"/><path d="M 322.283 462.567 L 318.361 462.567 L 317.648 464.558 L 314.797 464.558 L 318.985 454.457 L 319.045 454.309 L 321.985 454.309 L 322.045 454.457 L 325.996 464.558 L 322.996 464.558 Z"/><path d="M 321.421 460.221 L 320.411 457.339 L 319.282 460.221 Z" fill="#fff"/><path d="M 282.237 491.146 L 283.574 487.135 L 280.039 484.551 L 284.376 484.551 L 285.713 480.511 L 286.991 484.551 L 291.238 484.551 L 287.763 487.105 L 288.03 487.848 L 289.129 491.146 L 285.624 488.68 Z" fill="#f3c716"/><path d="M 297.982 491.146 L 299.319 487.135 L 295.784 484.551 L 300.121 484.551 L 301.458 480.511 L 302.735 484.551 L 307.013 484.551 L 303.508 487.105 L 303.775 487.848 L 304.874 491.146 L 301.369 488.68 Z" fill="#f3c716"/><path d="M 280.307 462.567 L 276.385 462.567 L 275.643 464.558 L 272.79 464.558 L 277.009 454.457 L 277.068 454.309 L 280.009 454.309 L 280.069 454.457 L 284.02 464.558 L 281.02 464.558 Z"/><path d="M 279.445 460.221 L 278.405 457.339 L 277.276 460.221 Z" fill="#fff"/><path d="m 290.258 461.795 v -.861 h -1.456 v -2.288 h 4.159 v 5.941 h -2.08 v -.653 c -.921 .476 -1.842 .713 -2.584 .713 c -1.782 0 -2.585 -.357 -3.476 -1.218 c -.921 -.891 -1.367 -2.198 -1.367 -3.921 c 0 -1.693 .445 -3.03 1.337 -3.922 c .861 -.921 2.168 -1.396 3.802 -1.396 c 1.396 0 2.406 .267 3.149 .862 c .743 .563 1.159 1.455 1.218 2.613 v .238 h -2.882 l -.029 -.238 c 0 -.356 -.149 -.683 -.416 -.891 c -.237 -.208 -.624 -.327 -1.099 -.327 c -.713 0 -1.277 .238 -1.664 .743 c -.386 .475 -.594 1.218 -.594 2.168 c 0 1.04 .238 1.783 .653 2.288 c .386 .475 .891 .683 1.693 .683 c .982 0 1.25 -.267 1.636 -.534 z"/></g></svg>