<svg xmlns="http://www.w3.org/2000/svg" width="1000" height="1000" viewBox="0 0 1170.608 1170.608"><path fill="#fff" fill-rule="evenodd" d="M1005.25 108.016c31.1 88.176 98.892 327.153 95.252 539.234-115.887 192.388-313.945 361.747-515.18 469.756C384.084 1008.997 186.01 839.638 70.122 647.25c-3.64-212.084 64.135-451.06 95.234-539.234 266.884-75.53 575.185-75.53 839.894 0"/><path fill="#0b1f41" fill-rule="evenodd" d="M1005.25 108.016c31.1 88.176 98.892 327.153 95.252 539.234-115.887 192.388-313.945 361.747-515.18 469.756C384.084 1008.997 186.01 839.638 70.122 647.25c-3.64-212.084 64.135-451.06 95.234-539.234 266.884-75.53 575.185-75.53 839.894 0M148.828 90.237c288.77-81.304 571.396-81.28 872.93-.023 34.883 94.262 105.199 346.919 100.21 563.053-123.47 214.204-360.977 397.615-536.663 488.076C409.618 1050.882 172.11 867.47 48.64 653.267c-4.989-216.134 65.303-468.768 100.186-563.03"/><g fill="#0b1f41"><path d="m344.205 569.467 20.16 56.216 25.821-14.79V473.076L365.44 487.25v73.875l-20.974-61.86-25.346 14.518v137.82l25.086-14.368ZM940.91 295.446l27.91-15.986V141.65l-27.91 15.985ZM451.904 434.322c-20.386 11.677-34.057 34.07-33.99 47.75v77.097c0 14.05 13.487 27.806 34.676 17.658 33.89-16.23 33.153-33.552 33.086-47.232v-19.202l-27.768 15.903v19.407l-12.208 6.992v-85.14l12.208-6.99v26.992l27.768-15.784v-28.279c-.067-13.68-13.687-20.676-33.772-9.172M201.371 577.829c-20.386 11.676-34.057 34.07-33.99 47.75v77.097c0 14.05 13.487 27.806 34.676 17.658 33.89-16.231 33.153-33.552 33.086-47.232V653.9l-27.768 15.903v19.407l-12.208 6.991v-85.139l12.208-6.991v26.993l27.768-15.784V587c-.067-13.68-13.687-20.675-33.772-9.171M539.61 525.384v-137.81l-27.914 15.985v137.81ZM289.076 668.812V531l-27.915 15.988v137.81ZM914.329 199.238v-26.376l-66.156 37.89v26.373l19.12-10.95v111.47l27.915-15.985V210.188ZM594.74 426.068l20.156 56.169 25.825-14.79V329.675l-24.747 14.175v73.876L595 355.866l-25.347 14.517V508.15l25.087-14.368ZM695.31 368.376l20.157 56.172 25.824-14.79V271.986l-24.747 14.175v73.876l-20.974-61.864-25.346 14.519v137.766l25.086-14.368ZM785.118 247.163l-17.994 147.728 27.326-15.65 1.948-24.494 15.95-9.479 2.717 22.166 26.85-15.377-21.17-125.643zm11.725 82.564 7.493-53.525 5.152 45.73z"/></g><path fill="#263b80" fill-rule="evenodd" d="m876.589 124.783-757.85 434.045c10.8-158.731 53.438-323.648 82.522-412.679 233.12-61.565 472.232-59.42 675.328-21.366m-584.343 87.624v30.742H310.9v25h-18.655v60.686l-31.084 17.9V188.42h61.15v23.986zm121.43 53.763v34.455c0 13.683-14.698 28.207-37.163 28.207-22.803 0-38.175-14.524-38.175-28.207v-86.53c0-13.682 15.372-28.207 38.175-28.207 22.465 0 37.162 14.525 37.162 28.208v11.137l-30.743 17.606-.009-34.51-13.164 7.545v90.579l13.165-7.54.009-15.135z"/><path fill="#f05323" fill-rule="evenodd" d="m218.99 770.29 795.755-455.751c21.9 97.95 40.042 212.365 39.648 319.466C936.8 823.224 755.53 965.956 585.321 1064.262 416.541 965.956 312.346 876.035 218.99 770.29m552.864-120.913a57.3 57.3 0 0 0 21.072-10.823 51.34 51.34 0 0 1-6.065 26.6 72.4 72.4 0 0 0-15.007-15.777m-158.07 12.598 24.175-13.84a48.2 48.2 0 0 1-20.424-11.404l64.683-37.203-7.52-10.37h99.694l6.167 10.453s16.52 3.87 25.948 13.192l-15.298 2.376 7.559 8.53c-5.72 7.102-20.653 16.448-34.898 19.34a146.3 146.3 0 0 0-21.46-12.018l23.924-13.699s-13.86-8.575-46.167-17.623a198.6 198.6 0 0 1 24.906 18.452l-20.797 11.911s36.578 16.771 56.633 52.807l-24.223.542s-28.057 51.903-72.602 81.308v-29.448s-29.142-3.127-45.72-15.875l16.244-9.692a68.75 68.75 0 0 1-35.226-20.27l21.28-12.065s-12.826-1.701-26.878-15.404m137.599-65.707a29.32 29.32 0 0 0 23.567 10.379l-6.557-9.711zM504.886 846.83l2.4 21.175c-14.31 9.455-51.684 30.811-81.515 16.22-22.376-10.944-27.297-42.509-10.509-69.263 19.492-31.063 50.891-31.699 68.214-20.294a53.03 53.03 0 0 1-24.938 33.785l4.608-18.433c-10.56-5.33-24.239-.518-32.048 12.293-10.509 17.23-7.496 37.08 6.713 44.254 23.54 11.883 67.075-19.737 67.075-19.737zm376.364-86.737s15.082-.04 16.21 13.16a17.23 17.23 0 0 0-13.2-1.127 85.2 85.2 0 0 1-38.354 4.259l-32.017 34.244a133 133 0 0 0 2.349 15.541 235 235 0 0 1-54.46-28.52l11.364 20.27s-8.709 22.275-55.513 52.147l-1.882-20.114s-46.792-29.353-75.187-23.559c-26.824 48.933-74.394 42.793-74.394 42.793l-13.16 47.024s44.372 6.014 35.58 41.646l-12.17-7.256a14.46 14.46 0 0 1-6.973 13.848l-9.88-13.648c3.767 11.287-14.618 15.89-14.618 15.89s-.912-12.268-4.663-17.159l-14.26-17.627-13.4-111.101 16.864 7.102a200.55 200.55 0 0 0 55.985-76.094s57.423 29.141 98.314 24.573c8.6-1.222 53.502-32.607 79.595-82.883l20.542-.46a150.7 150.7 0 0 1 20.475 52.528l-14.676-2.754a121 121 0 0 1 8.332 24.242l38-22.042c22.671-13.31 55.085-15.852 59.862-2.37 0 0-10.607-.836-13.168 4.004 0 0 14.43-1.057 15.836 11 0 0-12.218-3.493-17.333 2.443zm-205.758 178.35-9.204-6.758a11.84 11.84 0 0 1-4.019 11.727 43.6 43.6 0 0 0-8.953-10.32c.275 6.863-9.778 12.547-9.778 12.547a23.97 23.97 0 0 0-6.093-11.443L624.76 922.08l-34.924-46.78c38.047-2.192 58.118-39.556 58.118-39.556 49.581 47.146-11.986 57.843-11.986 57.843l3.799 16.778s41.7-3.127 35.725 28.077zm120.212-248.69c6.768 9.119 15.219 29.88 19.964 52.328l18.17-28.462 6.038 13.805a7177 7177 0 0 1 29.188-52.771 19.9 19.9 0 0 0 8.05 2.113v7.877a16.1 16.1 0 0 0-1.293 6.329 19.84 19.84 0 0 0 7.225 6.607 19.85 19.85 0 0 0 7.216-6.607 16 16 0 0 0-1.32-6.33v-7.876c2.31-.37 4.84-1.143 7.622-1.89 3.7-9.172 2.066-22.726 2.066-22.726a28 28 0 0 0 5.292-9.397 25.28 25.28 0 0 0-15.007-6.603v-.778l17.014-10.364v-11.373l-10.729 6.53-.086-140.876-12.213-13.01-12.202 12.276.086 141.672-11.746-7.15v11.931l17.34 9.625-.063.955a24.6 24.6 0 0 0-14.952 3.732 24.6 24.6 0 0 0 3.783 10.67zm-237.15 29.41-50.042 28.233c11.102 7.728 45.382 2.42 70.253-11.105 0 0 54.17 29.46 94.653 29.695-.012-.003-.118-22.353-.126-22.353-74.743-17.765-96.625-70.399-110.9-107.507l-149.318 85.358c19.285 15.651 76.515-12.897 121.87-37.623a186 186 0 0 0 3.484 6.62l-79.05 45.307c19.678 15.23 59.62-6.56 94.123-22.412 1.575 1.952 3.327 3.893 5.052 5.786M768.584 560.07a25.1 25.1 0 0 0-9.153-8.36 25.14 25.14 0 0 0-9.134 8.38 34.5 34.5 0 0 0 1.67 9.522l-10.461.009a53.5 53.5 0 0 0 2.288-14.224 40.94 40.94 0 0 0-14.93-13.63 40.95 40.95 0 0 0-14.9 13.662 53.6 53.6 0 0 0 2.325 14.225l-10.435.006a34.4 34.4 0 0 0 1.65-9.522 25.1 25.1 0 0 0-9.153-8.356 25.1 25.1 0 0 0-9.134 8.376 34.4 34.4 0 0 0 1.674 9.522h-.003l.012 11.683 76.051-.086-.015-11.68a34.4 34.4 0 0 0 1.65-9.526z"/></svg>