<svg xmlns="http://www.w3.org/2000/svg" xml:space="preserve" viewBox="0 0 612 792"><path d="M481.526 282.615v-.02c11.044 0 10.954 1.205 6.874 10.195L320.122 669.402c-1.234 2.761-3.537 9.888-6.833 9.987-3.297-.1-5.6-7.227-6.833-9.987L138.178 292.789c-4.082-8.99-4.17-10.195 6.873-10.195v.02h336.475z" style="fill:#eee935"/><path d="M313.289 669.95c-.852-.024-1.755-1.566-2.22-2.607L142.79 290.73c-1.036-2.319-1.059-3.067 2.26-3.067h336.476c3.32 0 3.296.748 2.26 3.067L315.508 667.343c-.465 1.041-1.368 2.583-2.219 2.607" style="fill:#363b97"/><path d="M306.924 172.896c20.556 0 39.178 8.348 52.666 21.842 13.479 13.486 21.817 32.112 21.817 52.676 0 20.565-8.339 39.19-21.817 52.677-13.488 13.494-32.11 21.841-52.666 21.841s-39.178-8.348-52.665-21.841c-13.48-13.487-21.818-32.112-21.818-52.677s8.339-39.19 21.818-52.676c13.487-13.495 32.109-21.842 52.665-21.842"/><path d="M385.488 269.59a21.3 21.3 0 0 0-2.348-5.687c-1.134-1.902-2.367-3.212-3.862-4.286a15 15 0 0 0-.881-.587c1.377-1.344 2.481-2.902 3.343-4.585 1.682-3.285 2.393-7.026 2.379-10.466-.029-7.601-1.934-12.385-5.624-15.41-1.081-.886-2.291-1.567-3.604-2.115a70.8 70.8 0 0 0-6.384-14.62 19 19 0 0 0-2.046-1.378c-1.916-1.118-4.013-.67-6.416-.43l-.085 2.541a50 50 0 0 1 3.701 5.743 57 57 0 0 1 3.054 6.496 53 53 0 0 0-2.947-.089h-3.49a51 51 0 0 0-1.789-3.566 44 44 0 0 0-3.996-6.028l-18.737-3.448-9.567 13.332a9.2 9.2 0 0 0-2.072-.218l-5.024.002 11.683-16.279-.063-.242c-2.759 1.041-5.369 2.09-8.444 1.98-4.395-.159-3.911 2.544-9.652 2.729-3.419.11-4.925 1.925-7.212 1.921-8.783-.016-10.234.439-13.453-.197-2.112-.418-3.794-1.296-6.449-2.969l9.647 13.065-.868.001c-2.411.001-3.982.611-5.105 1.835l-11.13-15.073-19.543 3.778c-1.521 2.5-2.934 5.05-4.255 7.644-.121.238-.234.476-.354.713-2.563.299-4.948.905-7.188 1.919-.119.054-.233.117-.351.173a131 131 0 0 1 2.626-5.486 118 118 0 0 1 5.265-9.286l-2.027-5.354c-.319.039-.403-.302-.296-.782l-.657-1.736a70.85 70.85 0 0 0-14.199 30.95c-2.206 3.258-3.869 7.078-4.99 11.449-1.201 4.685-1.793 9.956-1.793 15.786 0 5.421.583 11.81 2.22 17.692 1.357 4.878 3.455 9.421 6.568 12.855 2.997 3.307 5.451 5.286 8.415 6.491 2.938 1.193 6.057 1.509 10.443 1.509.33 0 .648-.009.969-.016 8.38 7.685 18.602 13.393 29.932 16.368l-3.052-8.91c-3.03-1.262-6.188-2.851-9.306-4.65a99 99 0 0 1-7.222-4.611c2.118-.832 3.939-1.947 5.518-3.369a91 91 0 0 0 4.638 2.875c2.571 1.483 5.177 2.813 7.708 3.909l5.102-2.951c.402.023.825.039 1.299.039v-.015h8.261v.015c2.388 0 3.765-.48 4.918-2.063.972-1.335 1.01-2.46 1.02-4.271l.125-22.057 1.596.001v21.792l17.682 9.392a141 141 0 0 0 7.821-3.95c.458-.249.913-.508 1.369-.763.082.1.158.199.251.297 1.15 1.224 2.618 1.727 4.909 1.726l3.043-.001a150 150 0 0 1-6.754 3.915 148 148 0 0 1-9.42 4.701l-3.935 9.108c12.162-3.076 23.076-9.289 31.835-17.727l8.687-.002c7.776-.003 13.085-2.076 16.572-6.132 3.394-3.947 4.749-9.489 4.749-16.606q-.003-3.346-.758-6.331m-22.337-25.54c.716.597 1.231 1.515 1.231 2.773h-.015.015v.077c-.009 1.822-.362 3.231-1.028 4.097-.449.583-1.172.913-2.155.913v.015h-.046l-1.922-.004-3.365-.004v-.015c-.068 0-.147-.004-.224-.006l6.833-8.302c.235.13.463.279.676.456m-2.648-.991v.015zm-74.394 13.526-22.062 8.383-.927 11.716c-.219.304-.459.609-.748.936-.602.679-1.24 1.141-1.92 1.426-.703.294-1.518.423-2.433.423-1.237 0-2.142-.15-2.825-.533-.753-.422-1.482-1.217-2.319-2.479-.87-1.313-1.461-3.197-1.854-5.641-.435-2.714-.603-6.116-.603-10.171h-.015l-.001-.525c-.004-4.336-.008-9.397 2.525-12.572.346-.434.73-.871 1.136-1.29l8.949 12.792 21.099-8.017 3.415-8.577v15.619zm41.627-.025-.264.612c-.037-1.936-.43-3.219-2.529-4.323-1.078-.568-2.409-.742-4.617-.743l-12.17-.004v-.015q-.07 0-.299.012v-8.184l16.076.007c1.136.001 2.06-.122 2.848-.373l3.311 7.545-.021.047 5.016 2.131v6.41zm38.291 17.359c-.01 1.997-.418 3.557-1.189 4.538-.563.715-1.459 1.12-2.671 1.12v.014h-.036l-2.128-.003c-7.326-.011-.426-.019-3.688-.019a7.5 7.5 0 0 1-1.271-.102v-9.85c.148-.052.286-.079.388-.079v-.015h5.97v.015h.001c1.046 0 2.248.377 3.186 1.143.826.674 1.424 1.719 1.424 3.158h.015z" style="fill:#fff"/><path d="M274.408 148.024c-4.413-3.342-9.831-7.769-14.461-11.763-3.123-2.694-4.907-5.214-6.701-6.798-2.675-2.361-5.631-5.289-8.196-7.35-2.487-1.999-5.733-3.583-8.287-4.942-1.606-.856-3.089-2.296-4.633-3.064-1.223-.608-3.41-.672-6.616-.682-1.955-.006-4.477-.086-6.846.014-1.943.081-4.218 3.48-6.757 3.683-1.807.146-4.514 1.041-6.352 2.048-4.727 2.59-8.761 4.634-12.457 6.482-7.134 3.566-8.55 8.496-15.136 10.834-3.583 1.272-6.05 4.628-8.101 6.041-2.253 1.552-3.754 1.772-8.186 4.794-.11.075-2.696.756-5.295 2.555-1.612 1.116-1.636 2.379-3.654 3.839-3.044 2.205-6.683 3.635-9.31 5.095-3.718 2.066-6.401 3.998-11.057 6.563-4.411 2.429-9.471 4.47-15.871 6.237-6.406 1.769-15.084 5.71-30.278 8.007-2.793.422-8.188.713-12.241 3.307-1.926 1.233-2.563 4.664-.323 6.584.79.677 1.297 1.081 4.885 1.043 4.281-.045 4.586 1.515 9.762 1.774 5.255.264 8.66 1.624 16.043 1.77 4.247.084 5.662 2.476 11.602 2.335 4.989-.119 10.992.358 15.141-.79 3.844-1.064 7.291-1.852 10.225-3.227 3.116-1.461 7.441-4.146 8.774-4.164.206-.003 1.039.346 1.797.346 4.633 0 8.053-3.42 12.816-6.628 3.178-2.139 7.704-3.451 11.036-5.672 5.373-3.58 9.422-5.594 13.811-9.293 1.815-1.53 4.22-3.162 5.57-4.792 3.156-3.81 6.586-6.737 9.461-9.133 2.959-2.466 1.285-4.795 4.833-4.795 1.199 0 1.339.557 2.457.536 2.44-.047 3.552-1.689 6.849-1.693 5.153-.007 9.819.225 12.794 3.064 1.119 1.068 2.51-.252 2.825 2.371.028.237.082 1.095 1.096 1.989 1.089.961 3.542.168 6.184 2.558 4.073 3.684 10.353 7.473 13.71 7.964 3.384.496 4.191.556 7.716 3.615 1.239 1.076 3.004.607 4.769 2.73 2.007 2.413 4.253 1.15 9.581 1.324 1.468.047 3.892-.33 3.738 1.246-.06.622-.299 2.851-4.794 2.984-3.576.106-5.114.427-8.267 2.694-1.35.97-2.876 2.246-4.139 3.294-2.555 2.122-4.395 3.443-6.327 3.481-.974.019-2.318-.584-3.311-.59-4.462-.031-11.438 5.492-14.491 5.492-3.754 0-3.895 1.292-3.898 1.706-.007.864 1.345 1.084 1.345 2.559 0 1.081-.843 1.61-.857 2.481-.048 2.73 2.48 3.591 5.385 3.591 3.612 0 6.563-.583 10.317-2.027 2.251-.866 3.586-1.476 4.201-1.324.715.176.828 1.489-.098 2.592-.593.706-1.844 1.048-2.891 1.844-1.812 1.378-2.185 4.912.654 1.38.668-.831 2.27-2.266 3.132-2.737 2.731-1.493 4.877-1.112 9.475-.277 6.74 1.224 8.898 4.202 11.815 6.037 7.711 4.847 10.039 6.836 13.575 7.536 3.219.636 4.669.181 13.453.197 2.287.004 3.793-1.811 7.212-1.921 5.741-.185 5.258-2.888 9.652-2.729 5.132.185 8.973-2.863 14.36-3.706 5.079-.795 8.749-3.036 11.386-3.037 8.701-.005 7.29 6.726 10.494 6.627 3.062-.094 5.64-1.027 7.954.323 4.073 2.376 7.044 6.137 9.87 11.423 2.655 4.965 5.35 8.674 7.794 14.029 1.041 2.281 1.829 5.861 2.584 6.989 1.867 2.787 3.25 2.946 3.879.327.761-3.161.166-9.373.166-14.542 0-8.648-1.949-16.249-7.993-27.837-1.206-2.314-.731-4.369-.906-6.995-.145-2.176-1.389-4.814-2.02-6.517-1.989-5.349-8.204-10.586-11.191-13.532-.826-.814-1.693-1.506-1.672-2.724.054-3.082 2.901-4.317 6.401-4.766 3.048-.39 5.261-1.267 7.29-2.079 1.676-.669 4.192-2.15 6.976-3.085 1.903-.64 3.959-.656 5.853-1.439 1.975-.816 3.484-2.395 5.052-3.233 1.219-.652 2.853-.385 3.734-.749 4.642-1.915 3.221-4.614 6.559-4.726 3.316-.111 2.047 1.517 4.16 1.806.859.118 1.407-.344 2.351-.344 1.604 0 2.663 2.66 4.119 3.065 2.147.599 8.407 4.888 14.636 7.569 5.916 2.547 7.944 3.833 12.344 3.833 5.783 0 9.695 2.295 16.176 4.093 4.922 1.366 11.359 3.274 19.382 3.472 14.075.347 6.635-2.919 19.69-2.611 7.22.17 11.509-.072 20.087-5.628 5.89-3.815 8.942-1.817 11.746-3.362 6.052-3.336 9.226-3.809 9.24-9.675.005-1.895.411-4.167-7.395-3.921-11.376.36-25.944.258-37.78-1.393-4.745-.663-8.833-2.135-13.148-2.808-10.506-1.637-19.141-4.496-27.611-7.969-2.771-1.137-6.021-2.025-8.526-3.194-3.664-1.709-5.933-3.69-9.873-5.66-3.308-1.654-7.801-3.772-11.302-5.591-3.053-1.587-5.322-3.498-11.054-3.605-3.529-.067-11.888-.389-16.987-.317-5.667.08-8.723 3.187-12.739 4.216-1.79.459-3.875 2.584-5.927 3.869-3.465 2.168-7.496 5.998-11.461 9.376-5.203 4.434-9.497 8.126-16.484 12.044-4.705 2.638-10.82 7.507-14.046 7.767-2.528.204-4.554 1.606-6.57 1.572-1.954-.033-2.815-1.011-6.445-3.215-3.331-2.023-3.189-5.2-7.879-5.269-5.485-.08-6.831-2.497-12.756-2.497-2.533 0-4.423 1.881-8.359 1.662-3.677-.204-8.014-.067-11.331 5.103-1.347 2.1-3.008 1.21-4.777-.397-1.039-.943-1.38-2.073-2.352-2.895-.918-.771-2.457-1.238-3.559-2.072" style="fill:#324a9f"/><path d="M487.179 169.217c-.257-.386-.235-.825.314-1.19.358-.238.797-.505 1.189-.549.573-.064.995.196.995 1.147 0 .886-.571 1.21-1.196 1.21-.249 0-.507-.061-.728-.161a1.36 1.36 0 0 1-.574-.457m-149.316-9.037c-.863.153-1.942.645-2.733 1.328-.685.59-1.167 1.333-1.16 2.153.005.782.521 1.671 1.529 2.297.78.483 1.867.819 3.246.823 1.479.004 2.815-.017 4.085-.037 3.387-.054 6.317-.1 10.233.366a29 29 0 0 1 3.022.551c.887.207 1.818.468 2.65.777 1.263.469 2.443.881 3.408.965 1.113.098 1.953-.21 2.344-1.258.483-1.302-.172-2.037-1.375-2.484-1.028-.383-2.473-.528-3.875-.67a51 51 0 0 1-1.48-.163c-1.249-.161-2.035-.66-2.375-1.254a1.4 1.4 0 0 1-.184-.783 1.5 1.5 0 0 1 .308-.782c.475-.637 1.474-1.129 2.994-1.164 1.254-.029 2.014.201 2.961.487.908.275 1.981.599 3.789.813 2.313.274 5.703.187 7.234.148.288-.007.501-.014.684-.014.428 0 .791-.234 1.016-.594.128-.208.209-.46.224-.729a1.73 1.73 0 0 0-.156-.818c-.264-.582-.878-1.141-1.999-1.418-1.29-.318-3.06-1.346-4.272-2.563-.46-.462-.835-.945-1.062-1.419-.209-.434-.292-.857-.197-1.24.06-.24.192-.474.412-.693 1.646-1.64 3.031-.509 4.897 1.014.942.769 1.995 1.629 3.259 2.324 2.385 1.311 3.806 1.424 5.713 1.576 1.171.093 2.532.201 4.425.627.337.076.841-.053 1.232-.363v-.001c.236-.188.441-.441.558-.754.117-.315.145-.687.025-1.106-.212-.744-.916-1.658-2.504-2.684l-.503-.324c-1.881-1.206-3.995-2.561-4.169-3.733-.083-.556-.145-1.219.052-1.706.174-.428.597-.743 1.497-.738 1.444.007 2.6.787 4.036 1.756 2.131 1.438 4.846 3.27 10.02 3.805 1.357.141 2.476-.214 3.201-.784a2.6 2.6 0 0 0 .799-1.013c.165-.394.202-.812.094-1.22-.142-.536-.533-1.039-1.217-1.418-2.254-1.252-4.366-2.89-5.535-4.4-.404-.523-.691-1.022-.82-1.473v-.001c-.115-.397-.105-.754.058-1.048q.117-.215.354-.398c.329-.254.966-.695 1.804-.673.869.022 1.981.533 3.28 2.213.927 1.2 2.023 1.885 3.123 2.571.94.586 1.882 1.175 2.68 2.09.962 1.105 1.549 1.197 2.016.79.274-.239.422-.645.585-1.098.285-.794.646-1.797 1.965-1.368.186.061.502.062.798-.041.229-.08.46-.222.634-.446.173-.224.283-.521.267-.905-.019-.443-.212-1.013-.698-1.734a4 4 0 0 1-.542-1.198c-.063-.255-.089-.51-.041-.731a.74.74 0 0 1 .321-.48q.17-.116.445-.186c2.866-.71 3.681 1.058 4.754 3.387.615 1.335 1.308 2.839 2.478 4.23.595.708 1.602 1.228 2.804 1.848 1.417.731 3.117 1.61 4.62 3.059a40 40 0 0 0 2.652 2.371c.778.628 1.446 1.09 2.019 1.413.786.442 1.584.734 2.31.824.657.082 1.265-.001 1.767-.282.514-.289.904-.774 1.109-1.491.162-.568.207-1.286.101-2.172a13 13 0 0 0-.126-.793c-.237-1.338-.562-3.172.89-3.873.892-.431 1.633-.343 2.383.119.827.509 1.699 1.468 2.775 2.691.163.187.342.416.554.687l-.001.001c.732.941 1.833 2.355 3.516 3.691 2.418 1.919 5.487 3.905 8.776 5.756a100 100 0 0 0 10.685 5.199c1.654.681 3.079 1.177 4.373 1.504 1.307.33 2.488.488 3.644.49 2.818.003 3.822-.535 3.823-1.313.001-1.174-2.834-2.663-4.516-3.545l-.193-.102a25.6 25.6 0 0 1-3.32-2.12c-.884-.669-1.629-1.342-1.987-1.876-.221-.331-.348-.642-.37-.919a.85.85 0 0 1 .079-.464q.107-.218.365-.393c.345-.23.878-.392 1.619-.454.998-.085 2.123.292 3.41.986 1.335.719 2.84 1.778 4.555 3.018 1.37.993 3.547 2.067 5.853 2.846 2.005.677 4.12 1.133 5.904 1.118 1.694-.014 2.864-.144 3.374-.495.758-.519.551-1.225-.81-2.226-.517-.38-.834-.728-1.012-1.091-.175-.358-.228-.754-.218-1.23.009-.398.138-.628.427-.757.401-.177 1.072-.233 2.059-.253 3.349-.069 6.935.426 10.574.929 3.641.502 7.335 1.013 10.951.981q.523-.005 1.022-.014c4.742-.087 8.458-.471 10.987-1.025 2.723-.595 4.168-1.459 4.162-2.432h.002v-.006l-.002-.007c-.017-.95-.302-1.51-1.74-1.822-1.194-.259-3.32-.332-7.109-.341-4.352-.01-8.746-.207-13.216-.574a208 208 0 0 1-13.614-1.592c-1.378-.205-2.009-.522-2.769-.902-1.242-.623-2.804-1.405-7.979-2.158-2.676-.389-7.063-1.444-12.047-2.863a237 237 0 0 1-15.263-4.914c-3.206-1.161-4.517-2.112-5.847-3.08-1.346-.978-2.715-1.971-5.96-3.199-.61-.23-1.242-.461-1.874-.69-2.326-.846-4.658-1.693-6.593-2.864-.907-.549-1.703-1.186-2.503-1.826-1.154-.923-2.317-1.854-3.816-2.558-3.609-1.696-6.99-3.215-10.412-4.326-3.44-1.117-6.926-1.822-10.729-1.883-3.206-.051-6.509.615-9.85 1.8-3.324 1.179-6.69 2.875-10.037 4.886-1.045.628-1.967 1.543-2.893 2.463-.665.661-1.334 1.325-2.035 1.865-.753.581-1.572 1.028-2.409 1.486-.963.526-1.948 1.064-2.913 1.838a449 449 0 0 1-8.354 6.546 358 358 0 0 1-8.811 6.52c-3.604 2.582-7.112 5.011-10.645 6.954-3.521 1.936-7.071 3.394-10.783 4.052m-87.301 34.282c-.222-.891.031-2.087.924-3.073a4.4 4.4 0 0 1 1.054-.833c.569-.329 1.234-.565 1.876-.614.685-.051 1.349.105 1.869.576h.001q.258.232.456.57c.766 1.325-.241 2.08-1.257 2.842-.293.22-.587.44-.813.668-1.054 1.063-2.001 1.39-2.726 1.262a1.6 1.6 0 0 1-.906-.492 2 2 0 0 1-.478-.906m81.025-26.85c-.059.827-.469 1.666-1.317 2.502-.365.358-.48.902-.367 1.426.064.296.199.584.403.826.204.243.48.444.823.568.797.288 1.955.164 3.459-.77 1.335-.829 2.905-1.33 4.632-1.622 1.698-.287 3.555-.372 5.491-.371 3.205.001 6.568.061 9.625.414 3.098.358 5.897 1.019 7.934 2.222 2.84 1.678 5.621 4.193 7.772 6.923 2.142 2.716 3.797 5.128 5.393 8.762 1.486 3.382 1.824 6.239 2.024 8.745.189 2.392.369 4.65 1.842 7.204 1.699 2.944 3.19 5.956 4.323 9.24 1.136 3.291 1.913 6.854 2.182 10.893.087 1.305.282 1.626.468 1.934.237.39.465.765.533 2.149.049.995-.087 1.606-.316 1.906-.207.272-.472.356-.767.281-.213-.056-.421-.205-.61-.432-.479-.573-.957-1.8-1.041-3.239-.04-.704-.577-1.374-1.152-2.093-.614-.767-1.27-1.585-1.542-2.649-.19-.746-.48-1.4-.92-2.139-.45-.755-1.065-1.609-1.897-2.735-1.717-2.328-3.737-4.631-5.737-6.709-2.646-2.749-5.25-5.101-7.068-6.598-.657-.541-1.367-1.101-2.087-1.669-1.309-1.033-2.648-2.09-3.67-3.023-.784-.719-1.474-.549-2.3-.344-1.18.292-2.588.642-4.776-.713a9.8 9.8 0 0 0-2.872-1.182c-1.014-.248-2.068-.365-3.147-.409-1.914-.078-2.725.523-3.449 1.06-.643.477-1.23.911-2.313.932-1.185.021-1.797.315-2.493.649-.924.443-1.983.951-4.453 1.086-1.395.077-2.372.247-3.233.621s-1.637.965-2.627 1.88c-1.422 1.315-2.089.808-3.006.11-.508-.386-1.119-.851-2.097-.903-2.545-.135-5.14 1.847-7.517 3.663-.335.256-.666.509-1.028.779-1.024.763-2.024.744-3.483.717l-.425-.007c-1.603-.021-2.414.404-3.269.852-1.017.534-2.089 1.096-4.394 1.101-1.308.003-2.468.037-3.514.068-6.094.18-8.435.248-16.277-6.358-1.024-.863-3.132-2.268-5.605-3.706-2.112-1.229-4.485-2.476-6.667-3.426-1.183-.515-1.853-.49-2.87-.453l-.297.01c-1.025.033-2.127-.283-2.934-.806-.447-.29-.811-.648-1.034-1.051a1.8 1.8 0 0 1-.169-1.427c.137-.462.466-.93 1.041-1.38l.801-.631c2.423-1.909 5.809-4.575 9.332-6.622 1.381-.802 3.177-1.476 5.012-1.923 1.822-.445 3.69-.669 5.234-.577.399.024.789.04 1.184.057 2.552.106 5.363.223 5.415 1.957.02.682 1.364.677 2.756.672.342-.001.685-.002 1.014.006l.265.007c.989.028 1.915.053 2.688-.003 1.103-.082 1.825-.331 1.774-1.033-.032-.435-1.329-1.049-2.98-1.832-2.187-1.035-4.943-2.342-6.576-4.321-.145-.175-.369-.369-.597-.567-.439-.381-.896-.777-1.08-1.268-.313-.834.138-1.713 2.613-2.642a23 23 0 0 1 1.787-.567c1.72-.491 3.161-.902 3.172-2.505.002-.278-.103-.497-.435-.593-.498-.145-1.376-.102-2.832.225-2.377.533-5.973.618-10.834.733l-.643.015c-.524.013-1.082.032-1.654.051-1.961.068-4.094.141-6.185-.02-.458-.035-.62.135-.798.325-.332.351-.699.738-1.788.759-.778.014-1.711-.851-2.551-1.631-.471-.437-.909-.844-1.196-.987-1.726-.864-2.109-1.719-1.283-2.625.634-.695 2.204-1.359 4.608-2.046.538-.154 1.146-1.122 1.346-2.067.071-.337.085-.665.018-.938a.83.83 0 0 0-.381-.541c-.499-.291-1.461-.235-3.107.481l-.183.109c-.818.498-3.422 2.084-7.024 1.96-1.549-.053-3.356-.129-4.451-.562-1.378-.547-1.809-1.501-.014-3.236.747-.722 1.511-1.349 2.174-1.893 1.046-.858 1.818-1.492 1.784-1.798-.02-.188-.354-.431-.797-.65-.57-.281-1.284-.476-1.835-.479-.858-.005-1.852.215-3.039.477-1.801.397-4.036.892-7 .892-2.268 0-3.75-.492-4.52-1.185-.395-.355-.616-.768-.671-1.205-.056-.435.056-.88.325-1.303.517-.813 1.649-1.559 3.307-1.964 2.732-.668 4.748-1.204 5.706-1.909.768-.564.714-1.328-.421-2.566-.954-1.042-2.276-.564-4.385.198-.947.342-2.04.738-3.315 1.081-.385.104-.853.249-1.372.411-2.741.854-6.884 2.145-8.752.385-.453-.427-.97-1.012-.673-2.012.253-.852 1.177-2.005 3.495-3.617 1.367-.95 2.286-1.934 2.754-2.863.449-.891.472-1.729.067-2.428-.33-.568-.775-.814-1.37-.752-.703.073-1.616.525-2.776 1.336a193 193 0 0 1-4.38 2.996c-1.181.777-2.081 1.32-2.719 1.623-.416.197-.761.243-1.023.165a.75.75 0 0 1-.533-.566c-.054-.207-.041-.46.038-.745.205-.735.901-1.819 2.107-2.918l.014-.012c.405-.379.765-1.129.89-1.945.122-.798.012-1.642-.519-2.224l-.016-.018a2 2 0 0 0-.164-.153c-.347-.282-.785-.386-1.245-.322-.49.069-1.008.327-1.477.765q-.198.185-.38.408c-.31.381-.635.81-.955 1.232-1.128 1.49-2.201 2.905-3.332 3.052-1.093.143-1.903.396-2.689.952-.81.573-1.615 1.474-2.682 2.898a5 5 0 0 1-.488.555c-.58.561-1.321.976-2.164 1.071-.842.096-1.773-.126-2.724-.839a6.3 6.3 0 0 1-.768-.683c-1.5-1.551-2.3-1.581-3.518-.402-.594.574-1.283 1.4-2.155 2.448l-.176.21c-.813.976-1.918 2.101-3.086 3.288-1.171 1.191-2.407 2.447-3.468 3.679-2.326 2.703-5.51 5.378-8.342 7.756-1.599 1.343-3.085 2.591-4.223 3.682-1.252 1.2-2.277 2.142-3.177 2.773-.96.675-1.795 1.006-2.617.933-.871-.078-1.4-.608-1.714-1.451-.275-.738-.373-1.727-.398-2.857a2 2 0 0 0-.555-1.359 1.9 1.9 0 0 0-1.017-.546c-.414-.078-.887-.033-1.389.177-.901.377-1.883 1.274-2.783 2.908-.99 1.795-5.238 5.205-8.832 8.09-1.632 1.309-3.127 2.511-4.095 3.379-.962.861-4.333 2.93-8.692 5.321-3.756 2.062-8.26 4.375-12.594 6.374-.459.212-.962.452-1.447.683-2.24 1.066-4.105 1.954-5.995 2.025-1.013.039-1.921-.091-2.504-.397-.364-.19-.619-.45-.729-.783-.11-.334-.067-.713.169-1.134.352-.629 1.183-1.401 2.668-2.315 3.843-2.367 6.497-3.997 8.737-5.321a143 143 0 0 1 6.543-3.651c2.122-1.116 5.462-3.19 8.533-5.311 2.614-1.805 5.028-3.64 6.317-4.938.731-.737 1.165-1.718 1.153-2.472-.004-.261-.064-.484-.188-.642-.113-.144-.294-.241-.552-.267-.749-.077-1.999.376-3.887 1.729-3.328 2.386-6.046 4.071-9.166 6.006-.952.59-1.942 1.203-3.055 1.903l-2.126 1.349c-3.951 2.511-8.591 5.461-12.98 7.549-2.381 1.134-5.267 2.115-8.09 3.076-1.033.352-2.059.7-3.062 1.058l-.901.322c-3.721 1.336-7.141 2.564-11.483 2.564-5.772 0-9.128-.572-10.627-1.331-.667-.338-1.024-.74-1.105-1.175-.088-.469.136-.916.63-1.315.882-.711 2.78-1.343 5.337-1.66 1.495-.185 2.601-.62 3.846-1.11a34 34 0 0 1 2.432-.879l2.136-.659c4.539-1.399 9.956-3.068 14.593-4.855 1.969-.758 3.644-1.518 5.317-2.279 1.345-.61 2.69-1.221 4.193-1.833 2.69-1.096 6.372-3.037 10.595-5.475 4.226-2.44 9.006-5.386 13.882-8.486.819-.52 1.685-.858 2.558-1.199 1.011-.395 2.036-.794 2.975-1.497.837-.626 1.634-1.504 2.413-2.363.871-.961 1.721-1.9 2.621-2.491 1.27-.836 2.414-1.297 3.504-1.736.826-.333 1.622-.654 2.403-1.118 1.658-.982 3.227-2.235 4.532-3.276.719-.573 1.36-1.085 1.896-1.458.896-.624 1.889-1.047 2.868-1.464.872-.372 1.732-.738 2.466-1.23 2.026-1.354 3.683-2.979 5.331-4.596 1.705-1.672 3.401-3.335 5.501-4.711 1.236-.809 3.121-1.674 5.017-2.544 1.195-.549 2.396-1.099 3.459-1.652.793-.412 1.372-.827 1.922-1.221.713-.511 1.38-.989 2.402-1.405a33 33 0 0 1 2.946-1.046 20 20 0 0 1 2.606-.611c2.898-.456 4.116-1.088 5.073-1.585.886-.459 1.567-.813 3.016-.85 7.563-.194 10.68 2.036 16.028 5.862l.986.704c4.725 3.364 10.188 7.923 16.151 12.902 8.648 7.218 18.352 15.319 28.326 21.88 5.623 3.698 7.217 3.674 8.929 3.648 1.183-.018 2.418-.037 4.843.977.95.396 2.504.718 4.284.954a58 58 0 0 0 6.458.461c1.891.027 3.223-.449 3.817-1.125.222-.253.328-.532.305-.815-.023-.3-.19-.622-.514-.944-1.077-1.069-3.691-2.015-8.283-2.168-.189-.006-2.602-.423-4.918-.855-1.614-.302-3.191-.611-3.95-.796-.378-.092-.81-.18-1.259-.271-1.672-.341-3.592-.732-4.328-1.645-.65-.808-.453-1.871 1.381-3.35 1.9-1.531 3.908-2.542 6.135-3.146 2.211-.6 4.636-.795 7.387-.699 4.025.14 5.494 1.249 6.895 2.308.902.681 1.776 1.341 3.38 1.654.548.106 1.098.189 1.639.27 2.26.34 4.365.657 6.401 2.694.79.788 1.5 1.479 2.208 2.166 2.029 1.97 4.044 3.925 5.768 6.033.664.817 1.025 1.685.96 2.598m-7.438 20.758c.949.298 1.773.629 2.799 1.042.604.242 1.275.512 2.007.791 1.266.484 3.2 1.51 4.764 2.559 1.857 1.245 5.13 2.325 3.104-.375-.931-.885-1.623-1.878-2.535-3.133-.897-1.234-1.624-2.6-1.852-4.001-.145-.894-.47-1.882-.949-2.609-.435-.656-.999-1.113-1.692-1.154-1.522-.091-1.946.982-2.401 2.141-.391.995-.813 2.071-2.248 2.086-1.029.011-1.822.201-2.256.483-.236.154-.393.346-.453.566-.069.249-.017.5.168.741.234.303.735.607 1.544.863m42.422 1.562.116-.056c.598-.323.781-1.026.75-1.782a5.8 5.8 0 0 0-.418-1.857 3 3 0 0 0-.142-.296c-1.157-2.137-2.142-3.157-3.453-4.515l-.631-.658c-1.11-1.169-2.21-1.983-3.208-2.373-1.057-.414-2.012-.37-2.775.202-1.419 1.059-.967 1.788-.436 2.645.22.354.459.74.459 1.171 0 1.199.095 1.979.399 2.68.304.7.798 1.276 1.598 2.075.281.281.801.583 1.579.884.68.262 1.565.531 2.674.793.171.04.371.229.59.435.63.595 1.369 1.29 2.898.652" style="fill:#fff"/><path d="M379.889 265.848c-1.695-2.843-3.599-3.852-6.706-5.173-.773-.329-1.035-1.906-.19-2.355 5.343-2.842 7.36-8.98 7.34-14.341-.048-12.677-5.743-15.461-16.564-15.461h-22.025c-2.216 0-2.853.659-2.853 2.671v61.261c0 1.802.29 2.429 2.578 2.428l23.456-.007c13.151-.003 17.52-6.508 17.52-18.952-.003-3.854-.85-7.211-2.556-10.071m-28.646-23.885c0-1.703 2.545-2.69 3.817-2.69l5.442-.001c3.334 0 7.667 2.464 7.667 7.551 0 5.404-2.481 8.912-7.017 8.888-.516-.003-4.753-.007-5.287-.007-1.542 0-4.623-.432-4.623-2.494zm10.873 41.414c-.567-.002-5.214-.007-5.801-.007-1.691 0-5.072-.464-5.072-2.677v-12.07c0-1.828 2.792-2.887 4.189-2.887h5.97c3.658 0 8.412 2.643 8.412 8.103 0 5.799-2.722 9.564-7.698 9.538M278.771 274.311l-7.014-3.116c-1.453-.645-2.214-.635-2.619.694-1.344 4.413-1.928 5.981-3.93 8.241-2.008 2.268-4.398 3.141-7.189 3.141-3.77 0-5.943-1.155-8.307-4.72-2.36-3.56-3.095-9.511-3.095-17.905 0-5.065-.128-11.109 3.341-15.459 1.964-2.461 4.938-5.201 8.721-5.2 3.261.001 7.734 3.079 9.456 7.677.497 1.329 1.656 1.556 2.493 1.308l7.367-2.182c1.95-.577.809-3.646.159-5.115-4.071-9.199-8.926-14.406-20.225-14.406-7.274 0-12.757 2.086-17.211 8.194-4.462 6.119-6.632 14.813-6.632 25.867 0 9.251 1.75 21.341 7.793 28.008 5.177 5.711 8.231 6.737 16.052 6.737 7.649 0 12.454-1.776 15.712-5.646 3.034-3.603 4.563-7.105 6.3-13.957.355-1.404-.542-1.882-1.172-2.161M324.115 228.574l-29.835.01c-2.757.001-2.951 1.126-2.951 3.436v60.112c0 1.874-.067 2.627 2.186 2.627h8.261c2.102 0 2.138-.456 2.15-2.547l.129-22.648c.018-3.083.624-3.183 3.003-3.182l14.157.007c2.118.001 2.482-.961 2.482-2.433l-.003-6.451c-.001-1.319-.257-1.612-3.368-1.613l-12.17-.003c-1.435 0-4.101.433-4.101-1.726v-12.139c0-1.833 1.119-1.896 3.255-1.896l16.623.008c2.56.001 2.698-.704 2.698-2.789v-6.068c.001-1.598-.002-2.705-2.516-2.705" style="fill:#363b97"/><path d="M323.465 330.226h100.094c3.81 0 5.032 2.054 3.982 4.404L319.91 575.414V333.626c0-2.429.198-3.4 3.555-3.4M209.804 358.717v-28.491h-6.786c-3.81 0-5.033 2.054-3.982 4.404zm13.569-28.491v58.848l11.239 25.144v-83.992zm24.809 0v114.347l10.942 24.48V330.226zm24.512 0V499.41l11.14 24.922V330.226zm24.71 0v224.463l9.263 20.722V333.626c0-2.43-.199-3.4-3.555-3.4z" style="fill:#eee935"/><path d="M209.804 330.226v28.491l13.569 30.357v-58.848zm24.808 0v83.992l13.57 30.355V330.226zm24.512 0v138.828l13.57 30.356V330.226zm24.71 0v194.106l13.57 30.357V330.226z" style="fill:#ee3434"/><path d="m418.37 334.744-91.705.004c-1.112 0-2.531-.195-2.531 1.886v216.441l96.393-215.034c1.092-2.437.492-3.297-2.157-3.297" style="fill:#fff"/><path d="M338.204 380.187c1.667 1.301 4.373 2.19 8.097 2.19s6.33-.889 7.997-2.19c4.009-3.131 2.829-7.942 2.829-13.826 0-7.753.969-9.48 8.358-9.48s8.329 1.727 8.329 9.48c0 5.884-1.181 10.695 2.828 13.826 1.667 1.301 4.272 2.19 7.997 2.19s6.43-.889 8.096-2.19c4.01-3.131 2.829-7.942 2.829-13.826 0-7.753.97-9.48 8.359-9.48 3.977 0 6.085.5 7.185 2.17l3.914-8.732v-.235c0-7.754-3.478-10.694-11.114-10.694s-11.115 2.94-11.115 10.694c0 8.756 2.355 14.875-8.104 14.875-10.461 0-8.104-6.119-8.104-14.875 0-7.754-3.478-10.694-11.115-10.694s-11.114 2.94-11.114 10.694c0 8.756 2.355 14.875-8.104 14.875s-8.104-6.119-8.104-14.875c0-7.754-3.478-10.694-11.115-10.694q-1.564-.001-2.898.169v17.453c.839-.092 1.804-.131 2.914-.131 7.39 0 8.328 1.727 8.328 9.48-.001 5.884-1.182 10.695 2.827 13.826m-3.953 43.193c1.667 1.302 4.373 2.191 8.097 2.191s6.33-.889 7.997-2.191c4.009-3.131 2.828-7.942 2.828-13.825 0-7.755.97-9.48 8.359-9.48s8.328 1.726 8.328 9.48c0 5.883-1.18 10.694 2.828 13.825 1.667 1.302 4.273 2.191 7.997 2.191q.308 0 .608-.008l19.263-42.974a40 40 0 0 0-.602-.005c-7.637 0-11.114 2.939-11.114 10.694 0 8.756 2.355 14.876-8.103 14.876-10.461 0-8.104-6.119-8.104-14.876 0-7.754-3.478-10.694-11.115-10.694s-11.115 2.939-11.115 10.694c0 8.756 2.356 14.876-8.104 14.876s-8.104-6.119-8.104-14.876c0-7.388-3.156-10.405-10.06-10.674v17.484c6.439.171 7.289 2.093 7.289 9.468-.001 5.882-1.182 10.693 2.827 13.824m3.757 44.082c1.666 1.302 4.372 2.19 8.096 2.19s6.33-.889 7.997-2.19c4.009-3.131 2.828-7.941 2.828-13.825 0-7.755.97-9.48 8.358-9.48 3.637 0 5.711.418 6.88 1.767l4.207-9.386c-.243-7.141-3.74-9.872-11.102-9.872-7.638 0-11.115 2.94-11.115 10.694 0 8.756 2.357 14.875-8.104 14.875s-8.104-6.119-8.104-14.875c0-7.754-3.478-10.694-11.115-10.694q-1.448-.001-2.7.145v17.456c.792-.077 1.692-.11 2.717-.11 7.389 0 8.327 1.726 8.327 9.48 0 5.884-1.18 10.694 2.83 13.825m-13.874 21.297c6.151.226 6.973 2.205 6.973 9.457 0 5.883-1.18 10.694 2.829 13.825 1.594 1.244 4.138 2.112 7.613 2.186l19.267-42.981c-7.369.1-10.73 3.07-10.73 10.692 0 8.756 2.356 14.875-8.103 14.875-10.461 0-8.104-6.119-8.104-14.875 0-7.274-3.061-10.311-9.744-10.66z" style="fill:#363b97"/><path d="M179.954 321.477c-.486-.01-.888.346-1.382.774l-10.102 8.747c-1.355 1.172-2.145.567-1.521-1.094l6.387-17.031-11.353-7.023c-1.627-1.006-1.178-1.8.61-1.799l12.766.009 3.241-11.442c.201-.707.624-1.79 1.355-1.79s1.155 1.083 1.355 1.79l3.241 11.442 12.766-.009c1.788-.001 2.238.793.611 1.799l-11.354 7.023 6.388 17.031c.623 1.661-.167 2.266-1.521 1.094l-10.103-8.747c-.496-.428-.898-.784-1.384-.774" style="fill:#ee3434"/><path d="M182.548 303.282h5.219v10.48a9.2 9.2 0 0 1-.469 2.942 6.4 6.4 0 0 1-1.465 2.422c-.665.692-1.363 1.175-2.096 1.457q-1.522.584-3.659.585c-.824 0-1.721-.057-2.694-.18q-1.458-.178-2.439-.712-.98-.534-1.796-1.518-.813-.982-1.115-2.025-.484-1.677-.484-2.971v-10.48h5.22v10.729q0 1.442.764 2.247.767.81 2.131.811 1.349 0 2.119-.798c.508-.528.765-1.285.765-2.259v-10.73z" style="fill:#eee935"/><path d="M446.623 321.477c.485-.01.888.346 1.382.774l10.103 8.747c1.354 1.172 2.145.567 1.521-1.094l-6.388-17.031 11.354-7.023c1.627-1.006 1.178-1.8-.611-1.799l-12.765.009-3.241-11.442c-.2-.707-.623-1.79-1.354-1.79s-1.154 1.083-1.355 1.79l-3.241 11.442-12.766-.009c-1.788-.001-2.237.793-.61 1.799l11.353 7.023-6.388 17.031c-.623 1.661.168 2.266 1.523 1.094l10.102-8.747c.493-.428.895-.784 1.381-.774" style="fill:#ee3434"/><path d="M440.137 303.43h14.007v3.753h-8.768v2.795h8.134v3.584h-8.134v3.462h9.023v3.982h-14.262z" style="fill:#eee935"/><path d="M313.289 616.217c-.486-.01-.888.346-1.383.773l-10.103 8.747c-1.354 1.173-2.144.568-1.521-1.094l6.388-17.03-11.354-7.023c-1.627-1.006-1.178-1.8.611-1.799l12.766.01 3.242-11.442c.199-.707.623-1.79 1.354-1.791.731.001 1.154 1.084 1.354 1.791l3.241 11.442 12.766-.01c1.788-.001 2.237.793.61 1.799l-11.353 7.023 6.388 17.03c.624 1.662-.167 2.267-1.521 1.094l-10.103-8.747c-.495-.427-.897-.783-1.382-.773" style="fill:#ee3434"/><path d="M306.117 598.12h9.789q2.448.002 3.753 1.262 1.313 1.258 1.312 3.114 0 1.558-.933 2.676-.626.744-1.823 1.175 1.82.455 2.683 1.563.856 1.111.858 2.786-.002 1.37-.611 2.46a4.6 4.6 0 0 1-1.674 1.727q-.656.394-1.985.574-1.765.24-2.344.241h-9.024V598.12zm5.276 6.897h2.272q1.222-.002 1.705-.438.478-.442.478-1.264.001-.769-.478-1.199-.483-.435-1.67-.434h-2.308v3.335zm0 6.902h2.666q1.353.002 1.902-.495.555-.496.556-1.337.001-.781-.548-1.253c-.366-.314-1.004-.475-1.922-.475h-2.654z" style="fill:#eee935"/></svg>