<?xml version="1.0" encoding="iso-8859-1"?>
<!-- Generator: Adobe Illustrator 24.0.1, SVG Export Plug-In . SVG Version: 6.00 Build 0)  -->
<svg version="1.1" id="Layer_1" xmlns="http://www.w3.org/2000/svg" xmlns:xlink="http://www.w3.org/1999/xlink" x="0px" y="0px"
	 viewBox="0 0 612 792" style="enable-background:new 0 0 612 792;" xml:space="preserve">
<path style="fill:#008752;" d="M459.959,226.872H155.041c-4.689,0-8.494,3.859-8.494,8.63c0,1.044,0.117,2.041,0.51,2.968
	L302.591,675.9c0.611,2.025,2.65,3.489,4.909,3.489c2.259,0,4.298-1.464,4.909-3.489l155.534-437.43
	c0.393-0.927,0.51-1.924,0.51-2.968C468.453,230.731,464.648,226.872,459.959,226.872z"/>
<path style="fill:#FFFFFF;" d="M463.986,236.94L308.374,674.576c-0.038,0.155-0.403,0.576-0.874,0.576s-0.836-0.421-0.874-0.576
	L151.014,236.94c-0.09-0.211-0.226-0.705-0.226-1.438c0-2.489,1.971-4.385,4.253-4.385h304.918c2.282,0,4.253,1.896,4.253,4.385
	C464.212,236.235,464.076,236.729,463.986,236.94z"/>
<path style="fill:#EEB111;" d="M336.708,499.6c-6.678,2.365-10.079,8.4-11.5,14.914c8.092,4.717,13.942,8.99,17.906,14.676
	C345.315,519.115,343.208,508.264,336.708,499.6z"/>
<path style="fill:#EEB111;" d="M323.688,517.284c-7.14,5.111-11.017,11.145-11.57,20.283c6.967,2.171,12.928,5.444,17,13.248
	c1.101-0.823,2.169-1.707,3.199-2.669c4.533-4.22,7.755-9.331,9.644-14.799C338.417,526.972,332.668,522.528,323.688,517.284z"/>
<path style="fill:#EEB111;" d="M310.837,540.482c-7.701,5.36-20.149,2.854-24.869-3.117c-5.77,0.062-10.046-1.707-13.241-4.794
	c1.584,5.004,4.276,9.75,8.079,13.837c11.839,12.713,30.67,15.018,45.08,6.547c0.173-0.201,0.328-0.403,0.469-0.605
	C322.743,545.765,317.547,542.547,310.837,540.482z"/>
<path style="fill:#EEB111;" d="M284.918,533.999c-0.694-13.232,9.101-38.829,29.852-48.229c-11.115-2.226-23.122,0.768-32.071,9.105
	c-8.789,8.191-12.655,19.67-11.434,30.746C274.092,531.268,279,533.58,284.918,533.999z"/>
<path style="fill:#EEB111;" d="M288.195,535.069c3.18,4.32,13.884,7.399,20.742,2.862c0.636-10.021,4.421-17.328,12.987-23.292
	c1.077-6.073,4.603-14.264,12.647-17.615l-0.359-0.41c-4.128-4.423-9.098-7.586-14.435-9.478
	C297.23,494.815,286.716,522.799,288.195,535.069z"/>
<path style="fill:#008752;" d="M292.412,559.544v62.455l15.088,42.434l15.089-42.436v-62.453c-4.673,1.86-9.761,2.895-15.089,2.895
	S297.084,561.404,292.412,559.544z"/>
<polygon style="fill:#008752;" points="171.703,282.521 201.88,367.391 201.88,235.339 171.703,235.339 "/>
<polygon style="fill:#008752;" points="413.119,235.339 413.119,367.394 443.297,282.523 443.297,235.339 "/>
<path style="fill:#008752;" d="M228.672,235.34l0.001,162.773c0,4.523,1.238,8.762,3.385,12.403v41.743l30.177,84.869V422.623
	h22.783l1.154,0.008c2.132,0.015,4.22,0.283,6.24,0.779v60.069c4.672-1.86,9.76-2.895,15.088-2.895s10.416,1.034,15.089,2.895
	v-60.07c2.021-0.495,4.107-0.764,6.239-0.778l1.154-0.008h22.783V537.13l30.178-84.871v-41.742c2.147-3.642,3.385-7.88,3.385-12.403
	V235.34H228.672z"/>
<path style="fill:#FFFFFF;" d="M263.643,302.773c3.708,0,7.346-0.88,10.562-2.45l2.983-1.749c2.462-1.698,4.572-3.86,6.115-6.388
	l1.503-2.983c0.889-2.224,1.379-4.666,1.379-7.268v-43.399h42.629v43.399c0,2.602,0.49,5.044,1.379,7.268l1.503,2.983
	c1.543,2.528,3.653,4.689,6.115,6.388l2.983,1.749c3.217,1.57,6.854,2.45,10.563,2.45h31.773v52.427h-31.773
	c-3.708,0-7.346,0.869-10.563,2.45l-2.983,1.737c-2.352,1.62-4.378,3.669-5.904,6.056l-1.574,2.983
	c-0.966,2.313-1.519,4.865-1.519,7.599l-0.008,43.408c-6.847,0.047-13.141,2.384-18.173,6.286l-3.134,2.438l-3.134-2.438
	c-5.032-3.902-11.326-6.239-18.173-6.286l-0.008-43.408c0-2.734-0.553-5.285-1.518-7.599l-1.574-2.983
	c-1.526-2.387-3.552-4.436-5.904-6.056l-2.983-1.737c-3.217-1.581-6.854-2.45-10.562-2.45h-31.774v-52.427H263.643z"/>
<path style="fill:#FFFFFF;" d="M332.055,238.537l0.008,43.376c0,10.061,8.997,17.612,19.318,17.612h31.75v-60.988H332.055z"/>
<path style="fill:#FFFFFF;" d="M332.063,376.053l-0.008,43.372h29.748c11.786,0,21.328-9.542,21.328-21.313v-39.664h-31.75
	C341.06,358.449,332.063,365.993,332.063,376.053"/>
<path style="fill:#C41230;" d="M381.23,240.438v57.175h-29.85c-9.48,0-17.418-6.898-17.418-15.696l-0.008-41.479H381.23z"/>
<path style="fill:#C41230;" d="M351.381,360.35h29.85v37.748c0,10.734-8.693,19.435-19.42,19.435h-27.855l0.008-41.475
	C333.963,367.259,341.9,360.35,351.381,360.35"/>
<path style="fill:#FFFFFF;" d="M282.945,238.537l-0.008,43.376c0,10.061-8.997,17.612-19.318,17.612h-31.75v-60.988H282.945z"/>
<path style="fill:#FFFFFF;" d="M282.938,376.053l0.008,43.372h-29.748c-11.786,0-21.328-9.542-21.328-21.313v-39.664h31.75
	C273.94,358.449,282.938,365.993,282.938,376.053"/>
<path style="fill:#C41230;" d="M233.77,240.438v57.175h29.85c9.48,0,17.418-6.898,17.418-15.696l0.008-41.479H233.77z"/>
<path style="fill:#C41230;" d="M263.619,360.35h-29.85v37.748c0,10.734,8.693,19.435,19.42,19.435h27.855l-0.008-41.475
	C281.037,367.259,273.1,360.35,263.619,360.35"/>
<path style="fill:#C41230;" d="M288.683,318.769c0.351,0.382,0.709,0.577,1.421,0.577l1.968-0.051
	c-0.008-2.497,0.95-4.409,2.48-5.943c0.265-0.253,0.529-0.487,0.799-0.701l-1.285-0.078l-2.656-0.168
	c-0.779-0.05-1.188-0.479-1.465-0.72l-2.937-2.504c-0.304-0.207-0.503-0.413-0.495-0.725c-0.031-2.824-1.803-5.223-4.261-5.41
	c-0.643-0.016-0.802,0.44-0.814,0.721v6.789c0,0.596,0.186,0.907,0.553,1.339L288.683,318.769z"/>
<path style="fill:#C41230;" d="M297.208,308c-0.125,0-0.253-0.016-0.382-0.031c-0.128-0.008-0.447,0.07-0.39,0.398l0.374,2.22
	c0.07,0.436,0.487,0.487,0.74,0.436c0.472-0.117,1.009-0.238,1.542-0.366c0.787-0.343,1.555-0.67,2.423-1.091
	c4.884-2.356,9.679-5.347,8.654-12.611l-0.047-0.288c-0.159-0.814-0.892-1.11-1.332-1.11c-0.412,0-5.04,0.744-5.04,0.744
	c-1.094,0.183-1.356,1.157-2.353,1.476l-4.357,1.811c-2.135,0.74-1.659,2.048-1.659,2.048l0.296,1.546
	c0.065,0.249,0.351,0.534,0.716,0.424c0.25-0.05,0.448-0.082,0.814-0.082c0.872,0,1.628,0.343,2.068,0.966
	c-2.251-0.335-4.284,1.901-6.119-0.261c-0.167-0.234-0.463,0-0.351,0.207c1.773,4.035,4.18,1.737,6.828,1.674
	C299.435,307.178,298.431,308,297.208,308z M304.756,298.73l-2.107,2.037c-0.335-0.545-0.487-1.021-0.67-1.27
	C302.505,298.925,303.743,298.59,304.756,298.73z"/>
<path style="fill:#C41230;" d="M302.368,359.337c-0.093,0.249-0.222,0.534-0.677,0.534c-3.214,0.097-5.359,0.95-5.687,3.895
	c-0.047,0.487,0.159,1.157,0.974,1.157h7.618c0.923,0,1.577-0.919,1.811-1.437l3.868-7.762c0.265-0.526,0.374-0.787-0.152-1.64
	c-1.955-2.648-0.997-5.242,1.332-6.08c-1.904-2.641-3.096-5.815-3.236-9.188c-0.09-0.027-0.151-0.082-0.219-0.128
	c-0.365-0.074-0.731-0.152-1.105-0.25c-0.168,0.051-0.37,0.121-0.607,0.226c-3.973,1.531-6.221,5.289-6.221,9.043
	c0,2.489,1.181,5.367,3.108,6.964c0.525,0.495,0.814,0.693,0.129,2.193L302.368,359.337z"/>
<path style="fill:#C41230;" d="M331.369,350.546c-4.128-0.631-7.236-3.86-7.236-6.294c0.319-0.779,2.384-4.553,1.495-7.599
	c-0.194-0.647-0.015-1.285,0.305-1.702c3.076-4.035,2.375-10.679-2.805-13.176c-5.164-1.963-4.853-9.332-0.327-11.645
	c0.21-0.128,0.639-0.175,0.903-0.105c0.639,0.097,1.62,0.058,2.719-0.908c0.974-0.861,1.48-2.426,1.504-3.567
	c0.023-1.121-0.109-2.088-0.358-2.598c-0.188-0.381-0.46-0.366-0.811,0.078l-0.678,0.958c-0.226,0.304-0.405,0.327-0.997,0.433
	c-0.631,0.101-1.511,0.206-2.407,1.075c-0.731,0.717-0.989,1.196-1.059,2.049c-0.023,0.522-0.133,0.662-0.311,0.775
	c-5.594,3.248-6.154,12.794,0.872,15.524c3.436,1.659,4.098,5.854,2.384,8.763c-1.285,1.718-4.58,0.113-5.663-0.503
	c-7.436-4.186-7.712-12.003-6.294-13.822c2.469-3.237,3.63-7.346,3.123-11.91c-0.061-0.502-0.49-0.518-0.654-0.063
	c-2.695,7.322-16.443,7.778-14.905,14.493c-3.44-7.178,15.7-8.358,13.908-19.365c-0.358-2.177-1.448-3.887-2.212-4.861
	c-0.257-0.335-0.67-0.183-0.607,0.226c1.137,8.07-4.37,11.38-9.27,13.745c-1.293,0.619-2.337,1.059-3.63,1.616
	c-1.228,0.538-2.185,1.118-3.03,1.963c-1.539,1.546-2.415,3.47-2.107,6.181c0.113,0.693,0.241,1.055-0.261,1.262l-1.301,0.534
	c-0.791,0.257-1.547-0.113-1.947-0.238l-2.154-0.654c-1.013-0.218-1.106-1.094-1.106-1.094c-0.28-2.625-1.826-4.666-4.245-4.849
	c-0.533,0-0.767,0.382-0.767,0.631v7.131c0,0.756,0.143,1.258,1.032,1.799l9.985,5.157c0.526,0.277,1.075,0.285,1.659,0.039
	l1.301-0.569l1.363-0.596c0.604-0.327,1.06-0.066,1.251,0.549c2.009,5.313,6.34,7.587,10.465,8.249
	c0.631,0.109,0.799,0.436,0.807,0.966c0.214,6.944,5.242,13.071,11.754,14.82l3.692,0.946c0.515,0.136,0.6,0.592,0.507,0.942
	l-1.348,4.109c0,0-0.164,0.557-0.67,0.572c-2.524,0.218-4.752,1.064-5.142,3.91c-0.078,0.647,0.491,0.997,0.919,0.997l7.604,0.008
	c1.027,0,1.682-1.332,1.916-2.212l3.591-10.703C332.515,351.033,331.852,350.667,331.369,350.546z"/>
<path style="fill:#C41230;" d="M308.452,273.414c-0.061-0.016-0.1-0.047-0.147-0.086c-0.266-0.05-0.529-0.105-0.783-0.167
	c-0.129,0.031-0.265,0.078-0.432,0.152c-2.816,1.075-4.402,3.739-4.402,6.396c0,1.756,0.838,3.797,2.201,4.923
	c0.366,0.343,0.572,0.487,0.09,1.546l-0.662,1.749c-0.066,0.175-0.152,0.382-0.472,0.382c-2.282,0.062-3.798,0.67-4.023,2.742
	c-0.039,0.347,0.105,0.822,0.689,0.822h5.383c0.646,0,1.118-0.646,1.277-1.013l2.734-5.488c0.183-0.366,0.265-0.557-0.102-1.164
	c-1.383-1.866-0.705-3.7,0.939-4.3C309.395,278.049,308.55,275.802,308.452,273.414z"/>
<path style="fill:#C41230;" d="M290.252,263.533l7.058,3.646c0.378,0.199,0.767,0.206,1.172,0.023l0.919-0.39l0.966-0.432
	c0.429-0.23,0.748-0.039,0.885,0.39c1.422,3.758,4.482,5.363,7.404,5.831c0.435,0.082,0.557,0.312,0.564,0.678
	c0.152,4.915,3.704,9.246,8.3,10.484l2.609,0.67c0.366,0.094,0.429,0.413,0.366,0.67l-0.95,2.902c0,0-0.125,0.389-0.476,0.401
	c-1.783,0.148-3.357,0.748-3.63,2.758c-0.062,0.463,0.351,0.708,0.639,0.708h5.383c0.725,0,1.185-0.931,1.355-1.554l2.539-7.56
	c0.272-0.705-0.202-0.958-0.545-1.047c-2.913-0.436-5.11-2.727-5.11-4.444c0.227-0.557,1.69-3.221,1.06-5.375
	c-0.132-0.463-0.016-0.908,0.211-1.196c2.181-2.855,1.682-7.556-1.979-9.316c-3.646-1.39-3.436-6.605-0.227-8.241
	c0.141-0.085,0.452-0.128,0.631-0.07c0.444,0.07,1.153,0.039,1.925-0.647c0.685-0.607,1.043-1.706,1.066-2.512
	c0.016-0.799-0.085-1.484-0.257-1.842c-0.133-0.273-0.327-0.257-0.568,0.054l-0.491,0.678c-0.155,0.214-0.28,0.242-0.701,0.304
	c-0.435,0.07-1.059,0.144-1.697,0.767c-0.515,0.51-0.701,0.845-0.748,1.441c-0.016,0.366-0.094,0.471-0.219,0.553
	c-3.957,2.286-4.354,9.044,0.616,10.968c2.422,1.18,2.89,4.136,1.682,6.204c-0.896,1.204-3.232,0.07-4.003-0.358
	c-5.251-2.96-5.449-8.487-4.452-9.772c1.749-2.29,2.574-5.191,2.208-8.424c-0.039-0.351-0.343-0.366-0.459-0.039
	c-1.909,5.176-11.622,5.496-10.54,10.244c-2.422-5.075,11.101-5.913,9.823-13.69c-0.241-1.538-1.009-2.742-1.55-3.427
	c-0.184-0.242-0.479-0.136-0.433,0.152c0.798,5.71-3.085,8.046-6.548,9.713c-0.919,0.448-1.659,0.752-2.57,1.149
	c-0.868,0.374-1.546,0.791-2.134,1.379c-1.103,1.102-1.718,2.458-1.492,4.382c0.07,0.487,0.16,0.74-0.19,0.884l-0.92,0.374
	c-0.557,0.183-1.094-0.078-1.37-0.168l-1.523-0.463c-0.713-0.148-0.782-0.764-0.782-0.764c-0.199-1.857-1.294-3.303-2.999-3.431
	c-0.382,0-0.542,0.273-0.542,0.448v5.04C289.527,262.797,289.621,263.152,290.252,263.533z"/>
<path style="fill:#C41230;" d="M302.384,250.299c-0.144,0.76-0.853,1.332-1.713,1.332c-0.098,0-0.188,0-0.273-0.016
	c-0.089-0.008-0.312,0.047-0.28,0.281l0.272,1.569c0.047,0.304,0.343,0.343,0.519,0.304c0.335-0.078,0.709-0.167,1.095-0.253
	c0.557-0.242,1.098-0.471,1.713-0.775c3.455-1.659,6.836-3.775,6.119-8.912l-0.031-0.206c-0.12-0.572-0.631-0.783-0.942-0.783
	c-0.304,0-3.567,0.526-3.567,0.526c-0.771,0.128-0.962,0.814-1.667,1.04l-3.077,1.281c-1.508,0.522-1.165,1.445-1.165,1.445
	l0.199,1.102c0.047,0.175,0.257,0.374,0.51,0.296c0.168-0.035,0.319-0.059,0.577-0.059c0.611,0,1.156,0.249,1.456,0.686
	c-1.585-0.238-3.023,1.34-4.323-0.191c-0.116-0.16-0.327,0-0.245,0.152C298.809,251.974,300.519,250.346,302.384,250.299z
	 M306.006,245.084l-1.483,1.445c-0.249-0.386-0.343-0.729-0.479-0.904C304.417,245.22,305.286,244.979,306.006,245.084z"/>
<path style="fill:#C41230;" d="M294.638,259.249c0.257,0.272,0.502,0.405,1.005,0.405l1.398-0.031
	c-0.008-1.76,0.67-3.116,1.752-4.203c0.184-0.175,0.37-0.343,0.561-0.495l-0.904-0.054l-1.881-0.121
	c-0.549-0.031-0.838-0.335-1.036-0.502l-2.076-1.78c-0.214-0.144-0.351-0.296-0.351-0.51c-0.023-1.994-1.27-3.692-3.007-3.821
	c-0.455-0.016-0.572,0.304-0.572,0.502v4.794c0,0.433,0.125,0.654,0.39,0.958L294.638,259.249z"/>
<path style="fill:#C41230;" d="M300.671,378.063c-0.098,0-0.188-0.008-0.273-0.016c-0.089-0.008-0.312,0.047-0.28,0.281l0.272,1.569
	c0.047,0.304,0.343,0.343,0.519,0.304c0.335-0.082,0.709-0.168,1.095-0.257c0.557-0.246,1.098-0.479,1.713-0.772
	c3.455-1.659,6.836-3.774,6.119-8.919l-0.031-0.199c-0.12-0.576-0.631-0.783-0.942-0.783c-0.304,0-3.567,0.526-3.567,0.526
	c-0.771,0.128-0.962,0.814-1.667,1.04l-3.077,1.281c-1.508,0.518-1.165,1.445-1.165,1.445l0.199,1.095
	c0.047,0.183,0.257,0.381,0.51,0.3c0.168-0.031,0.319-0.055,0.577-0.055c0.611,0,1.156,0.25,1.456,0.686
	c-1.585-0.237-3.023,1.34-4.323-0.191c-0.116-0.16-0.327,0-0.245,0.152c1.25,2.855,2.96,1.219,4.825,1.18
	C302.24,377.491,301.531,378.063,300.671,378.063z M306.006,371.516l-1.483,1.433c-0.249-0.382-0.343-0.717-0.479-0.892
	C304.417,371.648,305.286,371.411,306.006,371.516z"/>
<path style="fill:#C41230;" d="M324.81,408.139c-2.913-0.436-5.11-2.719-5.11-4.44c0.227-0.568,1.69-3.217,1.06-5.375
	c-0.132-0.459-0.016-0.911,0.211-1.191c2.181-2.867,1.682-7.567-1.979-9.32c-3.646-1.39-3.436-6.605-0.227-8.241
	c0.141-0.086,0.452-0.129,0.631-0.07c0.444,0.063,1.153,0.039,1.925-0.646c0.685-0.608,1.043-1.706,1.066-2.52
	c0.016-0.791-0.085-1.477-0.257-1.834c-0.133-0.273-0.327-0.265-0.568,0.054l-0.491,0.678c-0.155,0.214-0.28,0.23-0.701,0.304
	c-0.435,0.07-1.059,0.145-1.697,0.764c-0.515,0.502-0.701,0.849-0.748,1.445c-0.016,0.366-0.094,0.471-0.219,0.549
	c-3.957,2.29-4.354,9.047,0.616,10.968c2.422,1.184,2.89,4.14,1.682,6.204c-0.896,1.207-3.232,0.078-4.003-0.358
	c-5.251-2.96-5.449-8.483-4.452-9.768c1.749-2.29,2.574-5.191,2.208-8.424c-0.039-0.351-0.343-0.366-0.459-0.039
	c-1.909,5.168-11.622,5.496-10.54,10.243c-2.422-5.083,11.101-5.912,9.823-13.69c-0.241-1.539-1.009-2.742-1.55-3.439
	c-0.184-0.23-0.479-0.124-0.433,0.16c0.798,5.713-3.085,8.05-6.548,9.717c-0.919,0.448-1.659,0.748-2.57,1.149
	c-0.868,0.374-1.546,0.779-2.134,1.379c-1.103,1.102-1.718,2.457-1.492,4.37c0.07,0.495,0.16,0.751-0.19,0.895l-0.92,0.374
	c-0.557,0.183-1.094-0.078-1.37-0.167l-1.523-0.463c-0.713-0.152-0.782-0.772-0.782-0.772c-0.199-1.853-1.294-3.295-2.999-3.431
	c-0.382,0-0.542,0.28-0.542,0.448v5.04c0,0.542,0.094,0.892,0.725,1.277l7.058,3.646c0.378,0.203,0.767,0.203,1.172,0.023
	l0.919-0.397l0.966-0.421c0.429-0.233,0.748-0.047,0.885,0.374c1.422,3.771,4.482,5.375,7.404,5.842
	c0.435,0.078,0.557,0.311,0.564,0.678c0.152,4.915,3.704,9.246,8.3,10.478l2.609,0.678c0.366,0.093,0.429,0.404,0.366,0.662
	l-0.95,2.905c0,0-0.125,0.397-0.476,0.405c-1.783,0.155-3.357,0.747-3.63,2.757c-0.062,0.46,0.351,0.709,0.639,0.709l5.383,0.008
	c0.725,0,1.185-0.95,1.355-1.558l2.539-7.571C325.628,408.489,325.153,408.232,324.81,408.139z"/>
<path style="fill:#C41230;" d="M310.742,406.347c-1.347-1.877-2.192-4.112-2.29-6.504c-0.061-0.016-0.1-0.047-0.147-0.078
	c-0.266-0.055-0.529-0.117-0.783-0.179c-0.129,0.038-0.265,0.077-0.432,0.155c-2.816,1.083-4.402,3.731-4.402,6.388
	c0,1.761,0.838,3.801,2.201,4.938c0.366,0.343,0.572,0.483,0.09,1.542l-0.662,1.745c-0.066,0.18-0.152,0.382-0.472,0.382
	c-2.282,0.07-3.798,0.67-4.023,2.75c-0.039,0.343,0.105,0.817,0.689,0.817h5.383c0.646,0,1.118-0.647,1.277-1.013l2.734-5.491
	c0.183-0.366,0.265-0.554-0.102-1.161C308.421,408.777,309.099,406.938,310.742,406.347z"/>
<path style="fill:#C41230;" d="M293.457,378.9c-0.214-0.144-0.351-0.296-0.351-0.51c-0.023-2.002-1.27-3.692-3.007-3.829
	c-0.455-0.008-0.572,0.311-0.572,0.51v4.795c0,0.433,0.125,0.646,0.39,0.958l4.721,4.857c0.257,0.261,0.502,0.405,1.005,0.405
	l1.398-0.031c-0.008-1.768,0.67-3.12,1.752-4.203c0.184-0.183,0.37-0.343,0.561-0.495l-0.904-0.062l-1.881-0.113
	c-0.549-0.031-0.838-0.335-1.036-0.502L293.457,378.9z"/>
<path style="fill:#C41230;" d="M363.766,341.787c-1.354-1.858-2.196-4.105-2.298-6.493c-0.054-0.016-0.101-0.046-0.148-0.086
	c-0.257-0.051-0.522-0.105-0.787-0.167c-0.116,0.031-0.257,0.078-0.421,0.152c-2.819,1.075-4.408,3.739-4.408,6.395
	c0,1.757,0.841,3.797,2.204,4.923c0.374,0.343,0.576,0.487,0.094,1.546l-0.662,1.749c-0.063,0.175-0.156,0.381-0.483,0.381
	c-2.274,0.063-3.785,0.67-4.02,2.742c-0.031,0.347,0.109,0.822,0.686,0.822h5.391c0.654,0,1.114-0.646,1.277-1.013l2.734-5.488
	c0.186-0.366,0.265-0.557-0.102-1.164C361.436,344.221,362.122,342.387,363.766,341.787z"/>
<path style="fill:#C41230;" d="M377.834,343.59c-2.913-0.436-5.11-2.726-5.11-4.444c0.227-0.557,1.683-3.221,1.052-5.375
	c-0.132-0.463-0.008-0.907,0.219-1.195c2.173-2.863,1.682-7.556-1.978-9.316c-3.653-1.391-3.436-6.605-0.234-8.241
	c0.148-0.086,0.452-0.129,0.639-0.07c0.452,0.07,1.146,0.039,1.917-0.647c0.685-0.607,1.051-1.706,1.066-2.512
	c0.016-0.798-0.077-1.484-0.257-1.842c-0.125-0.272-0.327-0.257-0.568,0.055l-0.491,0.678c-0.147,0.214-0.28,0.241-0.693,0.304
	c-0.443,0.07-1.066,0.144-1.705,0.767c-0.515,0.503-0.701,0.845-0.748,1.441c-0.016,0.366-0.094,0.471-0.219,0.553
	c-3.949,2.287-4.346,9.044,0.624,10.968c2.422,1.18,2.89,4.136,1.675,6.204c-0.904,1.203-3.233,0.07-3.996-0.358
	c-5.259-2.96-5.453-8.487-4.456-9.772c1.745-2.29,2.57-5.192,2.204-8.424c-0.039-0.351-0.343-0.366-0.459-0.039
	c-1.901,5.176-11.622,5.496-10.531,10.243c-2.431-5.075,11.1-5.912,9.822-13.69c-0.249-1.539-1.013-2.742-1.55-3.428
	c-0.188-0.241-0.483-0.136-0.436,0.152c0.802,5.71-3.085,8.047-6.543,9.714c-0.92,0.448-1.659,0.751-2.571,1.149
	c-0.872,0.374-1.542,0.791-2.142,1.379c-1.091,1.102-1.706,2.458-1.488,4.374c0.078,0.495,0.164,0.748-0.186,0.892l-0.919,0.374
	c-0.562,0.183-1.091-0.078-1.371-0.168l-1.527-0.464c-0.716-0.148-0.786-0.771-0.786-0.771c-0.195-1.85-1.293-3.295-2.999-3.423
	c-0.374,0-0.546,0.273-0.546,0.448v5.032c0,0.541,0.109,0.896,0.725,1.277l7.065,3.645c0.374,0.199,0.764,0.207,1.176,0.023
	l0.912-0.397l0.966-0.424c0.428-0.23,0.755-0.039,0.888,0.389c1.418,3.759,4.48,5.363,7.4,5.831c0.443,0.082,0.56,0.311,0.568,0.678
	c0.156,4.915,3.7,9.246,8.311,10.485l2.602,0.67c0.358,0.093,0.429,0.413,0.358,0.67l-0.95,2.893c0,0-0.125,0.397-0.468,0.409
	c-1.791,0.148-3.365,0.748-3.638,2.757c-0.063,0.463,0.351,0.709,0.647,0.709h5.375c0.725,0,1.192-0.931,1.355-1.554l2.539-7.56
	C378.645,343.933,378.185,343.68,377.834,343.59z"/>
<path style="fill:#C41230;" d="M347.657,321.129c0.249,0.272,0.506,0.405,1.005,0.405l1.395-0.031
	c-0.008-1.768,0.678-3.116,1.76-4.202c0.18-0.183,0.366-0.343,0.561-0.495l-0.911-0.055l-1.87-0.121
	c-0.561-0.031-0.841-0.335-1.044-0.502l-2.071-1.78c-0.227-0.144-0.358-0.296-0.358-0.51c-0.016-1.994-1.271-3.692-3.007-3.821
	c-0.452-0.016-0.569,0.304-0.577,0.502v4.794c0,0.432,0.141,0.647,0.39,0.958L347.657,321.129z"/>
<path style="fill:#C41230;" d="M355.4,312.179c-0.133,0.759-0.85,1.332-1.706,1.332c-0.094,0-0.188-0.008-0.28-0.016
	c-0.078-0.008-0.312,0.046-0.273,0.28l0.266,1.57c0.054,0.304,0.343,0.343,0.521,0.304c0.335-0.078,0.717-0.168,1.091-0.254
	c0.561-0.241,1.098-0.471,1.714-0.775c3.45-1.659,6.839-3.774,6.122-8.911l-0.031-0.207c-0.116-0.573-0.639-0.783-0.95-0.783
	c-0.296,0-3.56,0.526-3.56,0.526c-0.771,0.129-0.958,0.814-1.659,1.04l-3.093,1.282c-1.503,0.521-1.16,1.445-1.16,1.445l0.202,1.102
	c0.047,0.175,0.249,0.374,0.515,0.296c0.171-0.035,0.311-0.058,0.576-0.058c0.607,0,1.145,0.249,1.456,0.685
	c-1.589-0.238-3.029,1.34-4.323-0.191c-0.124-0.16-0.327,0-0.257,0.152C351.832,313.854,353.538,312.225,355.4,312.179z
	 M359.022,306.964l-1.48,1.445c-0.241-0.386-0.343-0.728-0.482-0.904C357.434,307.1,358.306,306.859,359.022,306.964z"/>
<path style="fill:#C41230;" d="M249.01,312.179c-0.144,0.759-0.853,1.332-1.713,1.332c-0.09,0-0.176-0.008-0.273-0.016
	c-0.089-0.008-0.311,0.046-0.28,0.28l0.272,1.57c0.047,0.304,0.343,0.343,0.519,0.304c0.335-0.078,0.709-0.168,1.095-0.254
	c0.557-0.241,1.098-0.471,1.713-0.775c3.455-1.659,6.836-3.774,6.119-8.911l-0.031-0.207c-0.121-0.573-0.631-0.783-0.942-0.783
	c-0.304,0-3.567,0.526-3.567,0.526c-0.771,0.129-0.962,0.814-1.667,1.04l-3.077,1.282c-1.507,0.521-1.164,1.445-1.164,1.445
	l0.198,1.102c0.047,0.175,0.257,0.374,0.51,0.296c0.168-0.035,0.319-0.058,0.577-0.058c0.611,0,1.156,0.249,1.456,0.685
	c-1.585-0.238-3.022,1.34-4.323-0.191c-0.116-0.16-0.327,0-0.245,0.152C245.435,313.854,247.145,312.225,249.01,312.179z
	 M252.633,306.964l-1.484,1.445c-0.241-0.386-0.343-0.728-0.479-0.904C251.043,307.1,251.912,306.859,252.633,306.964z"/>
<path style="fill:#C41230;" d="M257.368,341.787c-1.348-1.858-2.192-4.105-2.29-6.493c-0.063-0.016-0.102-0.046-0.147-0.086
	c-0.266-0.051-0.53-0.105-0.783-0.167c-0.121,0.031-0.265,0.078-0.433,0.152c-2.815,1.075-4.4,3.739-4.4,6.395
	c0,1.757,0.837,3.797,2.2,4.923c0.366,0.343,0.572,0.487,0.09,1.546l-0.654,1.749c-0.074,0.175-0.16,0.381-0.48,0.381
	c-2.282,0.063-3.797,0.67-4.02,2.742c-0.035,0.347,0.102,0.822,0.686,0.822h5.383c0.646,0,1.118-0.646,1.277-1.013l2.734-5.488
	c0.183-0.366,0.265-0.557-0.102-1.164C255.047,344.221,255.725,342.387,257.368,341.787z"/>
<path style="fill:#C41230;" d="M271.44,343.59c-2.913-0.436-5.114-2.726-5.114-4.444c0.234-0.557,1.69-3.221,1.063-5.375
	c-0.137-0.463-0.02-0.907,0.206-1.195c2.186-2.863,1.683-7.556-1.979-9.316c-3.646-1.391-3.431-6.605-0.222-8.241
	c0.141-0.086,0.444-0.129,0.627-0.07c0.448,0.07,1.149,0.039,1.924-0.647c0.686-0.607,1.044-1.706,1.067-2.512
	c0.016-0.798-0.078-1.484-0.253-1.842c-0.137-0.272-0.327-0.257-0.576,0.055l-0.487,0.678c-0.147,0.214-0.276,0.241-0.701,0.304
	c-0.436,0.07-1.06,0.144-1.698,0.767c-0.518,0.503-0.701,0.845-0.751,1.441c-0.016,0.366-0.086,0.471-0.215,0.553
	c-3.957,2.287-4.354,9.044,0.615,10.968c2.423,1.18,2.895,4.136,1.683,6.204c-0.899,1.203-3.228,0.07-4.004-0.358
	c-5.25-2.96-5.448-8.487-4.451-9.772c1.749-2.29,2.578-5.192,2.208-8.424c-0.039-0.351-0.343-0.366-0.459-0.039
	c-1.909,5.176-11.622,5.496-10.54,10.243c-2.422-5.075,11.097-5.912,9.827-13.69c-0.246-1.539-1.013-2.742-1.555-3.428
	c-0.183-0.241-0.479-0.136-0.432,0.152c0.798,5.71-3.085,8.047-6.548,9.714c-0.919,0.448-1.659,0.751-2.566,1.149
	c-0.872,0.374-1.55,0.791-2.138,1.379c-1.103,1.102-1.718,2.458-1.492,4.374c0.07,0.495,0.16,0.748-0.191,0.892l-0.92,0.374
	c-0.557,0.183-1.094-0.078-1.37-0.168l-1.523-0.464c-0.713-0.148-0.782-0.771-0.782-0.771c-0.199-1.85-1.294-3.295-2.999-3.423
	c-0.382,0-0.542,0.273-0.542,0.448v5.032c0,0.541,0.094,0.896,0.725,1.277l7.058,3.645c0.378,0.199,0.767,0.207,1.172,0.023
	l0.919-0.397l0.967-0.424c0.428-0.23,0.747-0.039,0.884,0.389c1.422,3.759,4.482,5.363,7.404,5.831
	c0.436,0.082,0.557,0.311,0.564,0.678c0.151,4.915,3.7,9.246,8.304,10.485l2.609,0.67c0.366,0.093,0.429,0.413,0.366,0.67
	l-0.958,2.893c0,0-0.121,0.397-0.472,0.409c-1.783,0.148-3.357,0.748-3.626,2.757c-0.066,0.463,0.343,0.709,0.635,0.709h5.379
	c0.725,0,1.188-0.931,1.363-1.554l2.535-7.56C272.254,343.933,271.783,343.68,271.44,343.59z"/>
<path style="fill:#C41230;" d="M241.264,321.129c0.257,0.272,0.51,0.405,1.005,0.405l1.398-0.031
	c-0.008-1.768,0.678-3.116,1.752-4.202c0.184-0.183,0.37-0.343,0.562-0.495l-0.904-0.055l-1.881-0.121
	c-0.549-0.031-0.837-0.335-1.028-0.502l-2.084-1.78c-0.214-0.144-0.351-0.296-0.351-0.51c-0.022-1.994-1.27-3.692-3.006-3.821
	c-0.456-0.016-0.573,0.304-0.573,0.502v4.794c0,0.432,0.125,0.647,0.39,0.958L241.264,321.129z"/>
<path style="fill:#EEB111;" d="M267.027,271.747c0-0.327-0.237-0.588-0.541-0.646c-2.921-0.635-5.951-0.97-9.079-0.97
	c-3.119,0-6.173,0.335-9.094,0.97c-0.301,0.058-0.542,0.319-0.534,0.646c-0.253,4.012-2.088,7.595-4.896,10.13v10.235
	c0,0.366,0.284,0.67,0.662,0.67h9.06l0.016-6.095c0-2.633,2.138-4.76,4.763-4.76h0.031c2.633,0,4.764,2.126,4.764,4.76l0.016,6.095
	h9.059c0.378,0,0.662-0.304,0.662-0.67v-10.235C269.119,279.342,267.272,275.759,267.027,271.747z"/>
<path style="fill:#EEB111;" d="M266.046,268.725c0.055,0.008,0.121,0.023,0.168,0.023c0.365,0,0.67-0.296,0.67-0.662l0.008-8.732
	c0-0.343-0.238-0.624-0.573-0.662c-2.905-0.472-5.881-0.728-8.919-0.736c-3.038,0.008-6.006,0.265-8.911,0.736
	c-0.335,0.039-0.58,0.319-0.58,0.662l0.008,8.732c0,0.366,0.304,0.662,0.662,0.662c0.063,0,0.128-0.016,0.175-0.023
	c1.904-0.366,3.853-0.615,5.831-0.74l0.016-2.466c0-1.53,1.293-2.777,2.823-2.777c1.53,0,2.777,1.247,2.777,2.777v2.466
	C262.194,268.11,264.149,268.359,266.046,268.725z"/>
<path style="fill:#EEB111;" d="M248.153,256.387l0.09-0.008c2.983-0.48,6.053-0.736,9.172-0.736c3.128,0,6.158,0.257,9.142,0.736
	l0.089,0.008c0.304,0,0.55-0.199,0.646-0.464l2.104-5.542v-3.478c0-0.335-0.237-0.616-0.58-0.662
	c-1.293-0.226-2.633-0.417-3.957-0.561c-0.016,0-0.031,0-0.055,0c-0.37,0-0.662,0.296-0.662,0.662v2.563
	c0.008,0.358-0.304,0.646-0.67,0.646h-0.066c-0.853-0.082-1.706-0.144-2.582-0.191c-0.362-0.035-0.623-0.362-0.6-0.729l-0.008-2.664
	c-0.008-0.358-0.311-0.654-0.67-0.662c-0.744-0.023-1.422-0.031-2.162-0.031c-0.744,0-1.387,0.008-2.122,0.031
	c-0.374,0.008-0.678,0.304-0.678,0.662l-0.016,2.664c0.039,0.366-0.23,0.693-0.6,0.729c-0.861,0.047-1.722,0.109-2.567,0.191h-0.07
	c-0.369,0-0.674-0.289-0.674-0.646v-2.563c0-0.366-0.292-0.662-0.658-0.662c-0.018,0-0.042,0-0.058,0
	c-1.316,0.144-2.664,0.335-3.957,0.561c-0.335,0.046-0.581,0.327-0.581,0.662v3.478l2.104,5.542
	C247.604,256.188,247.854,256.387,248.153,256.387z"/>
<path style="fill:#EEB111;" d="M367.217,271.747c0-0.327-0.233-0.588-0.537-0.646c-2.914-0.635-5.959-0.97-9.075-0.97
	s-6.177,0.335-9.091,0.97c-0.312,0.058-0.545,0.319-0.545,0.646c-0.249,4.012-2.088,7.595-4.892,10.13v10.235
	c0,0.366,0.288,0.67,0.662,0.67h9.066l0.016-6.095c0-2.633,2.127-4.76,4.76-4.76h0.023c2.633,0,4.768,2.126,4.768,4.76l0.023,6.095
	h9.059c0.366,0,0.662-0.304,0.662-0.67v-10.235C369.305,279.342,367.474,275.759,367.217,271.747z"/>
<path style="fill:#EEB111;" d="M366.235,268.725c0.063,0.008,0.117,0.023,0.179,0.023c0.366,0,0.662-0.296,0.662-0.662l0.016-8.732
	c0-0.343-0.249-0.624-0.584-0.662c-2.905-0.472-5.881-0.736-8.919-0.736s-6.006,0.265-8.911,0.736
	c-0.335,0.039-0.576,0.319-0.576,0.662l0.008,8.732c0,0.366,0.304,0.662,0.67,0.662c0.054,0,0.116-0.016,0.171-0.023
	c1.9-0.366,3.848-0.615,5.835-0.74l0.007-2.466c0-1.53,1.302-2.777,2.828-2.777c1.534,0,2.781,1.247,2.781,2.777v2.466
	C362.395,268.11,364.335,268.359,366.235,268.725z"/>
<path style="fill:#EEB111;" d="M348.351,256.387l0.086-0.008c2.991-0.48,6.052-0.736,9.176-0.736c3.124,0,6.161,0.257,9.137,0.736
	l0.094,0.008c0.296,0,0.545-0.199,0.639-0.464l2.111-5.542v-3.478c0-0.335-0.249-0.616-0.584-0.662
	c-1.293-0.226-2.641-0.417-3.949-0.561c-0.023,0-0.047,0-0.063,0c-0.366,0-0.662,0.296-0.662,0.662v2.563
	c0,0.358-0.304,0.646-0.67,0.646h-0.063c-0.857-0.082-1.714-0.144-2.586-0.191c-0.358-0.035-0.615-0.362-0.592-0.729l-0.016-2.664
	c0-0.358-0.313-0.654-0.67-0.662c-0.748-0.023-1.418-0.031-2.166-0.031c-0.74,0-1.379,0.008-2.119,0.031
	c-0.365,0.008-0.669,0.304-0.677,0.662l-0.008,2.664c0.03,0.366-0.234,0.693-0.608,0.729c-0.856,0.047-1.721,0.109-2.57,0.191
	h-0.063c-0.366,0-0.678-0.289-0.678-0.646l0.008-2.563c0-0.366-0.296-0.662-0.67-0.662c-0.016,0-0.031,0-0.046,0
	c-1.324,0.144-2.664,0.335-3.958,0.561c-0.342,0.046-0.592,0.327-0.592,0.662v3.478l2.111,5.542
	C347.806,256.188,348.047,256.387,348.351,256.387z"/>
<path style="fill:#EEB111;" d="M367.217,391.664c0.008-0.327-0.233-0.592-0.537-0.654c-2.914-0.631-5.959-0.966-9.075-0.966
	s-6.169,0.335-9.091,0.966c-0.312,0.063-0.545,0.327-0.545,0.654c-0.249,4.004-2.088,7.587-4.892,10.126v10.235
	c0,0.366,0.288,0.662,0.662,0.662h9.066l0.016-6.092c0-2.625,2.127-4.767,4.76-4.767l0.031,0.008l-0.008-0.008
	c2.633,0,4.768,2.142,4.768,4.767l0.023,6.092h9.059c0.374,0,0.662-0.296,0.662-0.662V401.79
	C369.305,399.251,367.474,395.667,367.217,391.664z"/>
<path style="fill:#EEB111;" d="M350.188,365.592h-0.046c-1.324,0.145-2.664,0.335-3.958,0.561c-0.342,0.047-0.592,0.327-0.592,0.662
	v3.47l2.111,5.55c0.102,0.265,0.343,0.463,0.646,0.463l0.094-0.008c2.983-0.479,6.044-0.736,9.168-0.736
	c3.132,0,6.161,0.257,9.137,0.736l0.094,0.008c0.304,0,0.545-0.199,0.639-0.463l2.111-5.55v-3.47c0-0.335-0.249-0.615-0.584-0.662
	c-1.286-0.226-2.625-0.417-3.949-0.561h-0.063c-0.366,0-0.662,0.296-0.662,0.662v2.563c0,0.358-0.304,0.646-0.67,0.646h-0.063
	c-0.857-0.081-1.714-0.144-2.586-0.191c-0.358-0.035-0.615-0.362-0.592-0.728l-0.016-2.664c0-0.358-0.305-0.654-0.662-0.662
	c-0.748-0.023-1.426-0.031-2.166-0.031c-0.748,0-1.387,0.008-2.127,0.031c-0.365,0.008-0.669,0.304-0.677,0.662l-0.008,2.664
	c0.03,0.366-0.234,0.693-0.608,0.728c-0.856,0.047-1.721,0.109-2.57,0.191h-0.063c-0.366,0-0.678-0.288-0.67-0.646v-2.563
	C350.858,365.888,350.563,365.592,350.188,365.592z"/>
<path style="fill:#EEB111;" d="M366.235,388.637c0.063,0.008,0.117,0.023,0.179,0.023c0.366,0,0.662-0.296,0.662-0.67l0.016-8.732
	c0-0.335-0.249-0.615-0.584-0.654c-2.905-0.479-5.881-0.736-8.919-0.736c-3.03,0-6.006,0.257-8.911,0.736
	c-0.327,0.039-0.568,0.319-0.568,0.654v8.732c0,0.374,0.304,0.67,0.67,0.67c0.054,0,0.116-0.016,0.171-0.023
	c1.9-0.366,3.855-0.623,5.835-0.74l0.015-2.465c0-1.531,1.294-2.777,2.82-2.777c1.534,0,2.781,1.247,2.781,2.777v2.465
	C362.395,388.014,364.335,388.271,366.235,388.637z"/>
<path style="fill:#EEB111;" d="M267.027,391.664c0-0.327-0.237-0.592-0.541-0.654c-2.921-0.631-5.951-0.966-9.079-0.966
	c-3.119,0-6.173,0.335-9.094,0.966c-0.301,0.063-0.542,0.327-0.534,0.654c-0.253,4.004-2.088,7.587-4.896,10.126v10.235
	c0,0.366,0.284,0.662,0.662,0.662h9.06l0.016-6.092c0-2.625,2.138-4.767,4.763-4.767l0.039,0.008l-0.008-0.008
	c2.633,0,4.764,2.142,4.764,4.767l0.016,6.092h9.059c0.378,0,0.662-0.296,0.662-0.662V401.79
	C269.119,399.251,267.272,395.667,267.027,391.664z"/>
<path style="fill:#EEB111;" d="M266.046,388.637c0.055,0.008,0.121,0.023,0.168,0.023c0.365,0,0.67-0.296,0.67-0.67l0.008-8.732
	c0-0.335-0.238-0.615-0.573-0.654c-2.905-0.479-5.881-0.736-8.919-0.736c-3.038,0-6.006,0.257-8.911,0.736
	c-0.335,0.039-0.58,0.319-0.58,0.654l0.008,8.732c0,0.374,0.304,0.67,0.662,0.67c0.063,0,0.128-0.016,0.175-0.023
	c1.904-0.366,3.853-0.623,5.831-0.74l0.016-2.465c0-1.531,1.293-2.777,2.823-2.777c1.53,0,2.777,1.247,2.777,2.777v2.465
	C262.194,388.014,264.149,388.271,266.046,388.637z"/>
<path style="fill:#EEB111;" d="M249.999,365.592h-0.058c-1.316,0.145-2.664,0.335-3.957,0.561c-0.335,0.047-0.581,0.327-0.581,0.662
	v3.47l2.104,5.55c0.098,0.265,0.347,0.463,0.646,0.463l0.09-0.008c2.983-0.479,6.053-0.736,9.172-0.736
	c3.128,0,6.158,0.257,9.142,0.736l0.089,0.008c0.304,0,0.55-0.199,0.646-0.463l2.104-5.55v-3.47c0-0.335-0.237-0.615-0.58-0.662
	c-1.293-0.226-2.633-0.417-3.957-0.561h-0.055c-0.37,0-0.662,0.296-0.662,0.662v2.563c0.008,0.358-0.304,0.646-0.67,0.646h-0.066
	c-0.853-0.081-1.706-0.144-2.582-0.191c-0.362-0.035-0.623-0.362-0.6-0.728l-0.008-2.664c-0.008-0.358-0.311-0.654-0.67-0.662
	c-0.744-0.023-1.422-0.031-2.162-0.031c-0.744,0-1.387,0.008-2.122,0.031c-0.374,0.008-0.678,0.304-0.678,0.662l-0.016,2.664
	c0.039,0.366-0.23,0.693-0.6,0.728c-0.861,0.047-1.722,0.109-2.567,0.191h-0.07c-0.369,0-0.674-0.288-0.674-0.646v-2.563
	C250.657,365.888,250.365,365.592,249.999,365.592z"/>
<path style="fill:#EEB111;" d="M208.853,216.742c1.683,2.625,4.771,4.276,8.16,4.276c1.659,0,3.104-0.358,4.467-1.087
	c25.079-15.049,54.566-23.704,86.02-23.704s60.941,8.654,86.02,23.704c1.363,0.728,2.808,1.087,4.467,1.087
	c3.389,0,6.477-1.651,8.16-4.276c-28.167-18.937-62.13-29.974-98.647-29.974S237.02,197.805,208.853,216.742z"/>
<path style="fill:#EEB111;" d="M198.556,200.742l8.525,12.635c28.634-19.279,63.271-30.527,100.419-30.527
	c37.148,0,71.785,11.248,100.419,30.527l8.525-12.635c-31.068-20.923-68.638-33.125-108.944-33.125S229.624,179.819,198.556,200.742
	z"/>
<path style="fill:#EEB111;" d="M433.69,163.146c-0.708,1.071-1.522,2.267-1.979,3.408c-0.997-1.278-2.224-2.435-3.653-3.389
	c-4.751-3.21-10.449-3.354-15.337-1.223c1.109,0.304,2.161,0.768,3.158,1.438c4.721,3.182,5.967,9.597,2.785,14.317
	c-3.194,4.729-9.597,5.975-14.329,2.785c-2.454-1.651-3.969-4.179-4.409-6.894c3.245,0.592,6.493-1.332,7.482-4.561
	c1.066-3.494-0.893-7.186-4.378-8.257c-3.494-1.059-7.189,0.904-8.249,4.39c-0.76,2.481-0.039,5.125,1.69,6.804
	c-2.376,1.355-5.297,1.768-8.129,0.899c-5.456-1.659-8.518-7.435-6.851-12.884c1.667-5.445,7.435-8.51,12.88-6.843
	c1.15,0.343,2.166,0.873,3.097,1.55c-1.41-5.145-5.114-9.476-10.602-11.155c-1.632-0.502-3.311-0.74-4.919-0.708
	c0.588-1.067,1.02-2.458,1.394-3.677c1.628-5.32,0.366-10.831-2.878-14.858c-4.946,1.522-9.079,5.382-10.699,10.703
	c-0.374,1.227-0.802,2.617-0.899,3.829c-1.324-0.915-2.839-1.659-4.482-2.162c-5.488-1.683-10.976-0.16-15.026,3.318
	c1.156-0.039,2.286,0.097,3.436,0.448c5.448,1.667,8.514,7.431,6.854,12.88c-1.667,5.449-7.436,8.51-12.892,6.85
	c-2.793-0.861-4.962-2.788-6.182-5.207c3.253-0.405,5.776-3.198,5.776-6.563c0-3.645-2.952-6.605-6.605-6.605
	c-3.646,0-6.605,2.96-6.605,6.605c0,2.575,1.483,4.826,3.614,5.909c-1.885,2.001-4.557,3.256-7.513,3.256
	c-5.706,0-10.317-4.627-10.317-10.321c0-5.698,4.611-10.314,10.317-10.314c1.195,0,2.329,0.199,3.411,0.573
	c-2.862-4.506-7.953-7.521-13.401-7.498c-1.714,0.008-3.381,0.199-4.911,0.693c0.253-1.188,0.253-2.648,0.253-3.922
	c0-5.562-2.813-10.465-7.093-13.371c-4.28,2.906-7.092,7.809-7.092,13.371c0,1.273,0,2.734,0.253,3.922
	c-1.53-0.495-3.197-0.686-4.911-0.693c-5.449-0.023-10.539,2.991-13.402,7.498c1.083-0.374,2.216-0.573,3.412-0.573
	c5.706,0,10.317,4.615,10.317,10.314c0,5.694-4.611,10.321-10.317,10.321c-2.956,0-5.628-1.254-7.513-3.256
	c2.13-1.083,3.614-3.334,3.614-5.909c0-3.645-2.96-6.605-6.605-6.605c-3.653,0-6.605,2.96-6.605,6.605
	c0,3.365,2.523,6.158,5.776,6.563c-1.219,2.419-3.389,4.346-6.181,5.207c-5.457,1.659-11.225-1.402-12.892-6.85
	c-1.659-5.449,1.406-11.213,6.854-12.88c1.149-0.351,2.279-0.487,3.436-0.448c-4.051-3.478-9.539-5.001-15.026-3.318
	c-1.644,0.502-3.159,1.246-4.483,2.162c-0.097-1.211-0.525-2.602-0.899-3.829c-1.62-5.32-5.753-9.18-10.699-10.703
	c-3.244,4.027-4.506,9.538-2.878,14.858c0.374,1.219,0.806,2.609,1.394,3.677c-1.608-0.031-3.287,0.206-4.919,0.708
	c-5.488,1.679-9.191,6.01-10.602,11.155c0.931-0.678,1.947-1.208,3.096-1.55c5.445-1.667,11.213,1.398,12.88,6.843
	c1.667,5.449-1.395,11.225-6.851,12.884c-2.832,0.869-5.753,0.456-8.128-0.899c1.729-1.679,2.45-4.323,1.69-6.804
	c-1.06-3.486-4.755-5.449-8.249-4.39c-3.486,1.071-5.445,4.764-4.378,8.257c0.989,3.229,4.237,5.153,7.482,4.561
	c-0.44,2.715-1.955,5.242-4.409,6.894c-4.732,3.19-11.135,1.944-14.329-2.785c-3.182-4.72-1.935-11.135,2.785-14.317
	c0.997-0.67,2.049-1.133,3.159-1.438c-4.888-2.13-10.586-1.986-15.337,1.223c-1.43,0.954-2.656,2.111-3.653,3.389
	c-0.456-1.142-1.27-2.337-1.979-3.408c-3.112-4.607-8.191-7.096-13.363-7.112l28.716,41.834
	c31.629-21.289,69.814-33.705,110.837-33.705s79.208,12.416,110.838,33.705l28.716-41.834
	C441.882,156.049,436.803,158.538,433.69,163.146z"/>
<path style="fill:#C41230;" d="M246.967,183.928c0-2.906,2.36-5.266,5.282-5.266c2.909,0,5.281,2.36,5.281,5.266
	c0,2.913-2.372,5.266-5.281,5.266C249.328,189.194,246.967,186.841,246.967,183.928"/>
<polygon style="fill:#008752;" points="206.399,212.368 209.375,202.978 199.549,202.222 "/>
<path style="fill:#C41230;" d="M368.033,183.928c0-2.906-2.36-5.266-5.282-5.266c-2.909,0-5.281,2.36-5.281,5.266
	c0,2.913,2.372,5.266,5.281,5.266C365.673,189.194,368.033,186.841,368.033,183.928"/>
<polygon style="fill:#008752;" points="408.601,212.368 405.625,202.978 415.451,202.222 "/>
<polygon style="fill:#008752;" points="307.5,169.525 299.783,175.652 307.5,181.778 315.218,175.652 "/>
</svg>
