<svg xmlns="http://www.w3.org/2000/svg" width="1000" height="1000" viewBox="0 0 1000 1000"><path fill="#0080c1" d="M1.325 86.577 0 87.251l.113 1.484c6.732 84.107 27.215 217.438 86.577 374.998 50.228 133.304 144.645 325.612 309.227 484.774l1.547 1.493 1.547-1.493c164.577-159.153 258.994-351.47 309.222-484.774 59.362-157.556 79.841-290.891 86.577-374.998l.113-1.484-1.325-.674C684.447 30.744 543.764 0 397.459 0 251.15 0 110.467 30.744 1.325 86.577"/><path fill="#fff" d="M397.46 4.451c145.029 0 284.426 30.346 392.772 85.437-6.827 83.904-27.333 216.117-86.175 372.285-49.897 132.44-143.595 323.3-306.598 481.58-163.007-158.285-256.7-349.14-306.602-481.58C32.02 306.005 11.513 173.792 4.687 89.888 113.032 34.798 252.43 4.451 397.459 4.451"/><path fill="#0080c1" d="M397.46 910.86C260.155 776.009 174.32 614.748 114.922 457.092c-24.252-64.36-42.958-126.287-56.85-184.997 94.023-40.52 211.792-64.7 339.39-64.7 127.595 0 245.364 24.18 339.392 64.7-13.902 58.71-32.603 120.632-56.85 184.997-59.403 157.656-145.243 318.921-282.546 453.768M52.543 247.793c-11.16-51.314-18.615-100.009-22.868-145.514C128.69 55.702 257.248 27.487 397.46 27.487c140.207 0 268.77 28.215 367.783 74.792-4.252 45.51-11.707 94.2-22.872 145.514-96.607-41.221-215.959-65.655-344.91-65.655-128.957 0-248.314 24.434-344.916 65.655"/><path fill="none" stroke="#fff" stroke-miterlimit="1" stroke-width="7.12503225" d="M204.645 452.094h387.8M196.954 462.955h401.811M196.954 502.774h401.173"/><path fill="#fff" d="M317.148 776.977v-61.71h-10.333v-9.776h.462c3.61 0 6.636-.805 9.07-2.429 2.456-1.624 4.026-3.881 4.764-6.758h14.698v80.673zm58.592-46.057v-20.24c0-1.42-.244-2.429-.742-3.04-.475-.597-1.28-.9-2.388-.9-1.154 0-1.99.294-2.502.9-.511.602-.764 1.62-.764 3.04v20.24q-.001 2.125.764 3.049c.507.606 1.348.891 2.502.891 1.108 0 1.913-.294 2.388-.891.503-.624.742-1.633.742-3.05m-6.396 31.744c0 1.384.258 2.397.764 3.003.511.625 1.348.937 2.502.937s1.968-.29 2.434-.891c.47-.616.696-1.629.696-3.05v-17.027a18.8 18.8 0 0 1-4.79 2.257c-1.606.498-3.348.747-5.216.747-4.85 0-8.568-1.195-11.156-3.601-2.588-2.407-3.89-5.881-3.89-10.405v-19.249c0-7.541 1.691-12.897 5.062-16.078 3.37-3.166 9.007-4.754 16.86-4.754 7.808 0 13.404 1.56 16.765 4.718 3.357 3.149 5.026 8.532 5.026 16.114v42.57c0 7.54-1.696 12.906-5.071 16.072-3.37 3.18-8.957 4.769-16.72 4.769-6.894 0-12.269-1.39-16.119-4.126-3.872-2.764-5.804-6.578-5.804-11.464v-10.4h18.657zm57.538-52.694c0-1.375-.262-2.402-.76-3.04-.493-.638-1.28-.955-2.348-.955-1.149 0-1.94.295-2.415.878-.462.58-.692 1.624-.692 3.112v14.717h-18.553v-9.301c0-7.582 1.697-12.957 5.067-16.114 3.37-3.153 8.98-4.719 16.856-4.719 7.328 0 12.83 1.552 16.467 4.628 3.632 3.08 5.428 7.731 5.428 13.97 0 7.292-4.497 16.82-13.499 28.604-1.737 2.33-3.072 4.103-3.958 5.297-3.176 4.312-5.33 7.69-6.483 10.16-1.126 2.462-1.719 4.701-1.719 6.75 0 .19.023.412.068.715.045.276.068.502.068.656h25.659v11.644h-44.085v-13.345c0-3.289.67-6.532 2.05-9.785 1.343-3.248 4.107-7.65 8.283-13.178a471 471 0 0 1 3.999-5.266c7.048-9.224 10.567-15.607 10.567-19.135zm24.95 5.415c0-7.5 1.696-12.861 5.089-16.06q5.117-4.774 16.837-4.772c7.85 0 13.481 1.565 16.856 4.718 3.37 3.153 5.062 8.532 5.062 16.114v42.57c0 7.54-1.692 12.906-5.062 16.072-3.37 3.18-9.002 4.769-16.856 4.769-7.853 0-13.48-1.588-16.86-4.769-3.37-3.166-5.067-8.531-5.067-16.073zm18.66-5.415v52.694c0 1.384.267 2.388.765 3.003.52.62 1.348.937 2.501.937 1.15 0 1.959-.294 2.43-.891.465-.62.7-1.629.7-3.05V709.97c0-1.452-.24-2.46-.7-3.04q-.706-.84-2.43-.841c-1.108 0-1.936.312-2.456.954-.548.633-.81 1.624-.81 2.927"/><path fill="none" stroke="#fff" stroke-miterlimit="1" stroke-width="7.5774152500000005" d="M521.132 311.126H273.787"/><path fill="none" stroke="#343536" stroke-miterlimit="1" stroke-width=".47952598" d="M563.353 467.086c-8.69 0-15.78 7.088-15.78 15.779s7.09 15.774 15.78 15.774 15.774-7.084 15.774-15.774-7.084-15.78-15.774-15.78zM514.631 467.086c-8.686 0-15.775 7.088-15.775 15.779s7.09 15.774 15.775 15.774c8.69 0 15.78-7.084 15.78-15.774s-7.09-15.78-15.78-15.78z"/><path fill="#fff" d="M397.46 465.968c16.674 0 30.318 13.192 30.318 29.31v94.824h-60.637v-94.824c0-15.951 13.517-29.31 30.318-29.31m-147.432 58.045c13.069 0 23.759 10.337 23.759 22.963v43.126h-47.519v-43.126c0-12.499 10.595-22.963 23.76-22.963m294.863 0c-13.065 0-23.76 10.337-23.76 22.963v43.126h47.515v-43.126c0-12.499-10.586-22.963-23.755-22.963m-228.083 0c13.065 0 23.755 10.337 23.755 22.963v43.126H293.05v-43.126c0-12.499 10.59-22.963 23.76-22.963m161.302 0c13.07 0 23.764 10.337 23.764 22.963v43.126h-47.518v-43.126c0-12.499 10.59-22.963 23.754-22.963M231.561 467.086c8.69 0 15.78 7.088 15.78 15.779s-7.09 15.774-15.78 15.774c-8.685 0-15.77-7.084-15.77-15.774s7.085-15.78 15.77-15.78m0 7.89c-4.343 0-7.88 3.541-7.88 7.889 0 4.347 3.537 7.89 7.88 7.89 4.348 0 7.89-3.543 7.89-7.89 0-4.348-3.542-7.89-7.89-7.89M280.288 467.086c8.69 0 15.774 7.088 15.774 15.779s-7.084 15.774-15.774 15.774-15.775-7.084-15.775-15.774 7.084-15.78 15.775-15.78m0 7.89c-4.348 0-7.89 3.541-7.89 7.889 0 4.347 3.542 7.89 7.89 7.89 4.342 0 7.885-3.543 7.885-7.89 0-4.348-3.543-7.89-7.885-7.89M329 467.086c8.695 0 15.78 7.088 15.78 15.779s-7.085 15.774-15.78 15.774c-8.686 0-15.77-7.084-15.77-15.774s7.084-15.78 15.77-15.78m0 7.89c-4.338 0-7.88 3.541-7.88 7.889 0 4.347 3.542 7.89 7.88 7.89 4.348 0 7.89-3.543 7.89-7.89 0-4.348-3.542-7.89-7.89-7.89M563.353 467.086c8.69 0 15.774 7.088 15.774 15.779s-7.084 15.774-15.774 15.774-15.78-7.084-15.78-15.774 7.09-15.78 15.78-15.78m0 7.89c-4.343 0-7.885 3.541-7.885 7.889 0 4.347 3.542 7.89 7.885 7.89s7.885-3.543 7.885-7.89c0-4.348-3.542-7.89-7.885-7.89M397.46 419.151c4.347 0 7.884 3.542 7.884 7.89 0 4.342-3.537 7.89-7.885 7.89s-7.89-3.548-7.89-7.89c0-4.348 3.543-7.89 7.89-7.89"/><path fill="#fff" d="M397.46 401.798c13.901 0 25.247 11.336 25.247 25.243 0 13.901-11.346 25.238-25.248 25.238-13.901 0-25.243-11.337-25.243-25.238 0-13.907 11.342-25.243 25.243-25.243m0 9.468c-8.691 0-15.78 7.084-15.78 15.775 0 8.685 7.089 15.774 15.78 15.774s15.774-7.089 15.774-15.774c0-8.69-7.084-15.775-15.775-15.775M397.46 276.8c8.69 0 15.774 7.088 15.774 15.774 0 8.695-7.084 15.775-15.775 15.775-8.69 0-15.779-7.08-15.779-15.775 0-8.681 7.089-15.774 15.78-15.774m0 7.89c-4.348 0-7.89 3.541-7.89 7.884 0 4.348 3.542 7.89 7.89 7.89s7.884-3.542 7.884-7.89c0-4.343-3.537-7.885-7.885-7.885"/><path fill="none" stroke="#fff" stroke-miterlimit="1" stroke-width="3.11691887" d="m293.719 311.126 103.74-56.58 103.74 56.58"/><path fill="#fff" d="M478.305 331.656c11.282 0 20.51 9.192 20.51 20.434v36.652h-41.017V352.09c0-11.124 9.143-20.434 20.507-20.434m-161.691 0c11.278 0 20.506 9.192 20.506 20.434v36.652h-41.017V352.09c0-11.124 9.143-20.434 20.51-20.434m53.852 0c11.282 0 20.506 9.192 20.506 20.434v36.652H349.96V352.09c0-11.124 9.143-20.434 20.507-20.434m53.987 0c11.282 0 20.507 9.192 20.507 20.434v36.652h-41.014V352.09c0-11.124 9.143-20.434 20.507-20.434"/><path fill="none" stroke="#fff" stroke-miterlimit="1" stroke-width="7.12503225" d="M521.132 399.386H273.787"/><path fill="none" stroke="#fff" stroke-miterlimit="20" stroke-width="7.5774152500000005" d="M597.969 590.102V457.097l-76.837-57.71v-88.26l-123.673-67.46-123.672 67.46v88.26l-76.833 57.71v133.005z"/><path fill="none" stroke="#fff" stroke-miterlimit="1" stroke-width="7.12503225" d="M521.132 388.737H273.787"/><path fill="#fff" d="M508.587 432.523c-4.27-.009-5.17 1.805-5.134 6.266l.004 4.623 3.723.037c1.982.022 3.737.149 4.57-1.679 1.954-4.307 12.702-6.116 21.184-7.871 4.818-1.005 2.565-1.321-.067-1.326zm-9.821-19.389c-4.275-.009-5.18 1.805-5.135 6.27l.005 4.624 3.719.036c1.981.018 3.736.145 4.573-1.683 1.954-4.307 12.699-6.107 21.18-7.871 4.823-1.005 2.57-1.326-.067-1.33zm-34.141 30.287c4.745-2.135 14.924-4.641 14.892-11.734-.032-8.47-16.417-11.744-25.365-12.133 9.473-4.628 25.722-4.108 34.236 2.429 7.076 5.438 7.908 14.603-1.126 19.104-5.777 2.882-14.45 3.945-22.637 2.334m-134.336 0c-4.745-2.135-14.915-4.641-14.892-11.734.032-8.47 16.417-11.744 25.36-12.133-9.463-4.628-25.713-4.108-34.231 2.429-7.08 5.438-7.903 14.603 1.122 19.104 5.786 2.882 14.458 3.945 22.641 2.334m-43.958-10.898c4.27-.009 5.171 1.805 5.13 6.266l-.004 4.623-3.719.037c-1.981.022-3.736.149-4.569-1.679-1.959-4.307-12.703-6.116-21.185-7.871-4.818-1.005-2.57-1.321.063-1.326zm9.822-19.389c4.27-.009 5.175 1.805 5.134 6.27l-.004 4.624-3.719.036c-1.981.018-3.737.145-4.569-1.683-1.959-4.307-12.703-6.107-21.19-7.871-4.818-1.005-2.565-1.326.068-1.33z"/><path fill="none" stroke="#fff" stroke-miterlimit="10" stroke-width="7.5774152500000005" d="M196.954 647.387h401.015"/><path fill="none" stroke="#fff" stroke-miterlimit="1" stroke-width="7.5774152500000005" d="M196.954 590.102c-8.414 2.832-14.83 9.156-19.226 18.973M177.728 609.075l3.442 8.631h432.574l3.447-8.631M617.19 609.075c-4.396-9.817-10.811-16.141-19.221-18.973"/><path fill="#fff" d="m672.861 180.234 16.417 4.71-5.053 17.624-16.417-4.705zm1.203-54.992-.995 3.71-20.448-5.479.557-2.09c1.633-6.111 2.217-10.269 1.705-12.427-.51-2.157-2.08-3.582-4.66-4.275-2.628-.7-4.722-.266-6.247 1.353-1.524 1.61-3.103 5.506-4.74 11.613l-10.64 39.71c-1.616 6.044-2.168 10.16-1.62 12.4.543 2.239 2.126 3.714 4.772 4.42 2.534.678 4.556.244 6.035-1.308 1.48-1.56 2.923-4.913 4.302-10.093l1.448-5.396 20.448 5.478-1.412 5.27c-2.813 10.504-6.772 17.308-11.852 20.38-5.09 3.09-12.599 3.289-22.538.629-10.721-2.873-17.53-7.293-20.375-13.25-2.873-5.94-2.552-15.472.963-28.582l8.288-30.911c3.492-13.043 7.962-21.398 13.445-25.094 5.483-3.7 13.603-4.099 24.37-1.212 9.853 2.637 16.204 6.555 19.068 11.775q4.294 7.812.126 23.38m-99.19 32.938 16.789 3.113-3.334 18.023-16.793-3.113zm-27.82-86.758 43.758 6.93-2.619 16.553-22.19-3.51-3.664 23.108 20.833 3.298-2.552 16.118-20.837-3.302-6.708 42.401-21.566-3.415zm-72.513-7.215 21.85 1.529-6.935 99.162-21.846-1.529zm-59.176-2.42 21.827.57-2.198 82.808 25.102.656-.398 16.562-46.935-1.23zm-247.5 23.935 30.482-5.379 20.729 62.673.407-66.405 30.052-5.297 17.258 97.9L247 172.702l-12.843-72.838.249 75.059-19.231 3.388-24.09-70.852 12.848 72.834-18.805 3.32zm-62.224 16.204 41.958-11.237 4.483 16.725-22.673 6.075 5.546 20.683 21.203-5.682 4.628 17.268-21.208 5.682 6.555 24.465 24.47-6.55 4.519 16.868-43.764 11.726zm296.59-6.518v32.024c0 13.48-2.152 22.755-6.49 27.794-4.344 5.058-12.03 7.596-23.086 7.596-11.097 0-18.815-2.511-23.103-7.523-4.311-4.995-6.47-14.287-6.47-27.863V95.412c0-13.436 2.159-22.66 6.47-27.645 4.288-5.017 12.006-7.523 23.103-7.523 11.102 0 18.82 2.506 23.103 7.523 4.32 4.985 6.474 14.21 6.474 27.64m-21.754-4.506q-.002-9.63-1.692-12.495c-1.127-1.909-3.162-2.873-6.13-2.873-2.913 0-4.949.987-6.098 2.963-1.158 1.982-1.72 6.121-1.72 12.4v41.113c0 6.374.562 10.509 1.693 12.422 1.126 1.91 3.162 2.873 6.12 2.873 2.918 0 4.954-.964 6.108-2.922 1.149-1.955 1.714-6.099 1.714-12.373V90.902zM269.15 68.604l23.619-2.068c11.617-1.013 19.995.34 25.12 4.045 5.117 3.691 8.116 10.418 8.971 20.18l.566 6.443c.81 9.26-.878 16.276-5.049 21.04-4.17 4.763-11.07 7.573-20.683 8.41l-6.876.606 3.375 38.588-20.375 1.787zm21.674 13.001 2.714 31.007 2.796-.245c3.904-.343 6.56-1.502 7.939-3.47 1.375-1.967 1.868-5.337 1.452-10.078l-.516-5.895c-.407-4.696-1.474-7.885-3.17-9.559-1.697-1.678-4.511-2.357-8.415-2.013zM514.631 467.086c8.69 0 15.78 7.088 15.78 15.779s-7.09 15.774-15.78 15.774c-8.686 0-15.77-7.084-15.77-15.774s7.084-15.78 15.77-15.78m-.027 7.89c-4.348 0-7.89 3.541-7.89 7.889 0 4.347 3.542 7.89 7.89 7.89s7.88-3.543 7.88-7.89c.005-4.348-3.533-7.89-7.88-7.89M465.91 467.086c8.694 0 15.778 7.088 15.778 15.779s-7.084 15.774-15.779 15.774c-8.685 0-15.77-7.084-15.77-15.774s7.085-15.78 15.77-15.78m0 8.201c-4.167 0-7.569 3.407-7.569 7.578 0 4.17 3.402 7.573 7.568 7.573 4.18 0 7.578-3.402 7.578-7.573s-3.398-7.578-7.578-7.578"/></svg>