<svg xmlns="http://www.w3.org/2000/svg" width="1000" height="1000" viewBox="0 0 1000 1000"><path fill="#e25645" d="M661.432 619.184c0-182.159-148.638-330.806-330.716-330.806C148.548 288.378 0 437.025 0 619.184 0 801.357 148.552 950 330.716 950c182.078 0 330.716-148.647 330.716-330.816M427.747 155.084c-31.39-31.232-61.66-34.403-97.031-9.174-35.466-25.229-65.631-22.053-97.035 9.174-33.169-19.14-62.107-12.788-84.423 17.467l37.665 91.217 49.404-.533c30.079-8.822 61.845-13.056 94.389-11.73 32.463-1.326 64.31 2.908 94.303 11.73l49.404.533 37.756-91.217c-22.416-30.255-51.26-36.607-84.432-17.467"/><path fill="#ffe52b" d="M533.431 160.463c-2.026-45.785-34.05-80.45-95.094-62.984-16.317-22.32-36.349-31.848-59.28-29.283-6.437.701-13.141 2.38-20.117 5.026 1.597-24.61-5.994-33.521-23.022-34.937v-17.2h10.586v-10.5h-10.586V0h-10.495v10.586h-10.495v10.5h10.495v17.199c-16.937 1.416-24.61 10.328-23.026 34.937-6.967-2.646-13.67-4.325-20.113-5.026-22.93-2.56-42.872 6.967-59.275 29.283a113 113 0 0 0-18.615-3.882c-49.047-6.084-74.72 26.111-76.48 66.961v9.084c1.322 30.346 15.083 64.043 41.638 90.155-.53.791-1.059 1.587-1.502 2.384a21.4 21.4 0 0 0-2.38 9.79c0 3.442.796 6.79 2.38 9.703 1.854 3.528 4.5 6.527 7.586 8.821 3.18 2.556 6.8 4.497 10.676 5.65q6.351 2.117 13.232 2.117c1.593 0 3.266-.09 4.85-.267 2.823-.352 5.736-.968 8.468-1.85 3.796-1.235 7.41-3.09 10.5-5.65a27.04 27.04 0 0 0 7.586-8.821c1.588-2.995 2.38-6.347 2.38-9.704q0-4.233-1.588-8.202c.081.353.267.616.348.883a27.3 27.3 0 0 0 7.496 8.911c3.18 2.47 6.8 4.407 10.586 5.642 4.33 1.32 8.826 2.026 13.323 2.026 4.587 0 8.997-.705 13.318-2.117 1.85-.62 3.705-1.416 5.469-2.293 1.855-.968 3.528-2.032 5.12-3.353 3.086-2.289 5.646-5.378 7.497-8.82q2.381-4.634 2.38-9.79c0-.797 0-1.679-.177-2.56.443 2.293 1.149 4.414 2.203 6.35a27.3 27.3 0 0 0 7.496 8.912c3.266 2.47 6.794 4.411 10.671 5.646 4.325 1.416 8.74 2.031 13.237 2.031 4.415 0 8.998-.615 13.237-2.03 3.872-1.326 7.495-3.177 10.671-5.647 3-2.47 5.641-5.469 7.406-8.911 1.149-2.027 1.854-4.325 2.207-6.614-.095.972-.172 1.94-.172 2.827 0 3.438.787 6.79 2.466 9.79 1.769 3.528 4.32 6.527 7.414 8.911a40 40 0 0 0 5.117 3.348c1.768.882 3.619 1.678 5.56 2.294a44.7 44.7 0 0 0 13.232 2.026c4.591 0 8.997-.705 13.318-2.117 3.881-1.24 7.414-3.085 10.671-5.65 3.09-2.29 5.56-5.379 7.415-8.821q.203-.4.38-.806a21.5 21.5 0 0 0-1.615 8.125c0 3.443.8 6.79 2.375 9.704 1.85 3.528 4.505 6.527 7.59 8.821 3.18 2.556 6.79 4.497 10.677 5.65q6.345 2.118 13.232 2.117c4.5 0 8.998-.705 13.318-2.117 3.795-1.235 7.41-3.09 10.504-5.65a27 27 0 0 0 7.577-8.821c1.593-2.995 2.384-6.347 2.384-9.704 0-3.348-.796-6.704-2.384-9.79-.438-.796-.968-1.592-1.407-2.383 26.465-26.026 40.226-59.719 41.547-90.07v-9.255zm-301.343 84.69c-1.583 3-2.38 6.351-2.38 9.708 0 2.823.53 5.555 1.589 8.025-.086-.18-.263-.443-.349-.705a27 27 0 0 0-7.586-8.822 33.6 33.6 0 0 0-10.5-5.645c-2.732-.883-5.645-1.502-8.468-1.765-1.588-.267-3.262-.353-4.85-.353h-.529l.968-11.033c-26.374-25.492-54.34-106.477 4.415-101.799 2.298.177 4.768.443 7.415.973-9.093 36.167 8.554 72.864 26.993 103.21a28.5 28.5 0 0 0-6.718 8.206m74.72-14.824c-3.085 2.384-5.641 5.473-7.496 8.916-1.588 3-2.47 6.351-2.47 9.699 0 .882.09 1.769.176 2.65a20.7 20.7 0 0 0-2.117-6.35 27.25 27.25 0 0 0-7.496-8.912c-1.592-1.23-3.266-2.384-5.12-3.352-1.765-.883-3.62-1.679-5.47-2.294-.443-.176-.882-.262-1.32-.357l2.03-6.967c-20.117-25.053-45.523-112.742 4.76-113.972 7.237-.181 16.059 1.497 26.73 5.288v108.684l2.647 3.881c-1.674.883-3.266 1.946-4.854 3.086m77.099-6.962 1.945 6.966c-.443.095-.882.181-1.23.358-1.941.615-3.791 1.41-5.56 2.293-1.765.968-3.524 2.027-5.117 3.352-3.094 2.38-5.645 5.384-7.414 8.822-1.145 2.117-1.855 4.32-2.203 6.704.09-.968.176-1.94.176-2.913 0-3.348-.882-6.7-2.474-9.7-1.765-3.442-4.406-6.441-7.406-8.916-1.592-1.144-3.175-2.203-4.854-3.176l2.556-3.79V114.683c10.672-3.791 19.502-5.47 26.731-5.289 50.373 1.23 24.962 88.92 4.85 113.973m77.456 11.196.977 11.033h-.448c-4.591 0-8.998.702-13.232 2.113-3.886 1.235-7.496 3.09-10.676 5.646-3.085 2.293-5.736 5.378-7.59 8.821q-.163.339-.317.679c1.058-2.552 1.646-5.216 1.646-7.998 0-3.353-.882-6.71-2.47-9.618a27.7 27.7 0 0 0-6.709-8.292c18.444-30.255 36.173-67.043 27.08-103.21 68.372-12.174 39.171 74.366 11.739 100.826"/><g fill="#ffe52b"><path d="M617.416 606.753c-6.79 0-12.35 5.555-12.35 12.431 0 6.8 5.56 12.35 12.35 12.35 6.794 0 12.345-5.555 12.345-12.35 0-6.88-5.55-12.431-12.345-12.431M61.306 711.022c2.819-.09 5.732-.444 8.817-1.235 5.474-1.321 10.057-3.615 13.852-6.7 3.791-3.09 6.618-6.971 8.387-11.554 1.321-3.623 1.94-7.5 1.85-11.734-.095-4.244-1.325-11.206-3.705-20.823l-3.266-12.966-25.93 6.433-36.258 9.089 3.261 12.97.706 2.827c2.027 8.106 3.972 13.928 5.822 17.556 1.85 3.61 4.149 6.7 6.967 9.166 3.795 3.27 8.03 5.383 12.884 6.351 2.112.439 4.315.62 6.613.62m-17.38-33.35-.796-2.818 18.176-4.596 16.227-4.053.71 2.908c1.674 6.614 1.498 11.817-.533 15.617-2.027 3.7-5.994 6.351-11.907 7.848-1.592.349-3.09.616-4.497.706-3.881.348-7.147-.357-9.703-2.117-3.443-2.375-6.09-6.876-7.677-13.495M67.567 771.532l12.355-7.4-11.473-19.06 9.26-5.56 10.853 17.91 11.73-7.057-10.757-18 9.527-5.646 11.468 19.06 11.997-7.239-20.199-33.693-54.964 32.987ZM148.729 842.022c3.438-3.352 5.292-6.881 5.469-10.762.267-3.8-1.059-7.5-3.972-10.939 3.619 2.113 6.88 3.085 9.708 2.913 2.823-.095 5.555-1.502 8.202-3.972 2.026-2.03 3.442-4.234 4.238-6.704.702-2.38.702-4.949 0-7.5-.62-2.29-1.764-4.673-3.447-7.053-1.674-2.388-5.026-6.18-10.052-11.39l-10.848-11.283-1.33-1.325-6.523 6.346-39.61 38.2 12.617 12.964c5.026 5.203 8.911 8.822 11.467 10.848 2.556 1.946 5.026 3.267 7.415 4.058 2.732.882 5.379.973 8.111.44.177-.091.353-.091.53-.173 2.646-.71 5.116-2.031 7.323-4.062.263-.253.435-.43.702-.606m-8.56-15.445c-.443.797-1.053 1.593-1.85 2.384-1.764 1.679-3.619 2.299-5.56 1.77-1.94-.53-4.32-2.299-7.237-5.303l-4.23-4.401 10.06-9.622 4.411 4.591c2.118 2.203 3.62 4.149 4.411 5.736.267.616.439 1.145.53 1.674q.258 1.596-.534 3.171m1.77-20.637-1.77-1.846-.62-.62.62-.624 7.854-7.672.792-.706 2.646 2.647c3 3.175 4.678 5.65 5.03 7.414.349 1.764-.352 3.443-2.117 5.121-1.678 1.678-3.442 2.199-5.202 1.678-.357-.095-.71-.185-1.15-.362-1.582-.886-3.623-2.47-6.084-5.03M191.596 826.668l-44.37 38.552 15.083 8.74 8.645-8.297 20.642 11.911.796.534-.796 3.08-2.113 8.474 2.113 1.24 12.97 7.405 12.883-66.604-18.968-10.943zm11.21 8.65c-.62 2.202-1.15 4.057-1.588 5.469-.357 1.416-.706 2.38-.796 3.09l-4.945 21.52-3.881-2.2-11.2-6.441 11.2-10.496 4.944-4.596c1.059-.963 2.027-1.936 3.09-2.99.968-1.059 2.113-2.217 3.176-3.357M284.754 859.574a18.8 18.8 0 0 0-6.17-5.121c-2.556-1.32-7.32-2.995-14.205-4.85l-1.592-.348-16.055-4.325-16.584 61.931 15.792 4.234 6.528-24.256 7.668 28.047 2.646.71 16.499 4.411-10.238-29.468c4.768.177 8.74-.882 11.911-3.266 3.176-2.38 5.38-5.908 6.7-10.762.796-3.167.973-6.175.534-9.084-.525-2.999-1.67-5.56-3.434-7.853m-14.376 14.824c-.706 2.651-2.031 4.32-4.058 5.117-.973.443-2.117.525-3.529.525s-3.09-.263-4.94-.797l-3.09-.791 4.32-16.313 3.357.878c.177.086.263.086.349.086 3.528.972 5.826 2.379 7.057 4.057 1.149 1.688 1.416 4.144.534 7.238M337.773 857.99c-4.673-.09-8.826.616-12.703 2.113-3.795 1.502-7.233 3.8-10.318 6.795q-4.9 4.898-7.41 10.848c-1.679 3.972-2.556 8.387-2.651 13.323-.09 6.089 1.058 11.64 3.528 16.493 2.384 4.94 5.999 9.003 10.672 12.355a30 30 0 0 0 8.12 3.877 32.8 32.8 0 0 0 9.613 1.416 32.6 32.6 0 0 0 8.292-.797c2.733-.62 5.56-1.587 8.383-2.908l.262-19.14c-2.375 2.646-4.845 4.582-7.233 5.817-2.375 1.15-4.936 1.764-7.668 1.67q-7.282-.13-11.911-5.293c-3.095-3.439-4.592-7.673-4.502-12.875.091-5.474 1.674-9.97 4.855-13.323 3.17-3.347 7.233-5.017 12.169-4.94 2.732.095 5.292.706 7.672 2.031 2.298 1.226 4.677 3.262 7.061 5.999l.263-19.145q-4.098-2.124-8.202-3.175c-2.732-.702-5.464-1.054-8.292-1.14M389.028 866.188l21.696-5.026-3.176-13.671-38.285 8.821 14.472 62.456 38.29-8.822-3.272-14.028-21.7 5.03-2.38-10.58 20.38-4.678-3.094-13.413-20.375 4.673ZM480.77 867.866l-19.493 9.527-21.529-44.197-15.702 7.677 28.052 57.606 35.29-17.2ZM540.936 798.973h-.081c-2.922-3.528-6.356-6.27-10.237-8.292-3.977-2.026-8.12-3.266-12.617-3.533-1.15-.081-2.203-.167-3.352-.167-3.348.09-6.619.7-9.88 1.76-4.33 1.32-8.202 3.533-11.735 6.441a33 33 0 0 0-8.387 10.41c-2.113 4.062-3.434 8.296-3.791 12.698-.525 4.596-.09 8.92 1.15 13.15 1.325 4.14 3.437 8.03 6.35 11.563 2.91 3.438 6.352 6.261 10.32 8.202 3.876 2.031 8.115 3.18 12.702 3.524 1.145.09 2.203.09 3.266.09 3.352 0 6.614-.52 9.885-1.583 4.324-1.416 8.201-3.623 11.73-6.528 3.447-2.904 6.265-6.351 8.382-10.409 2.122-3.967 3.443-8.206 3.882-12.793.443-4.501 0-8.822-1.235-12.97-1.326-4.243-3.447-8.034-6.352-11.563m-14.209 36.435c-3.619 3.004-7.668 4.234-12.083 3.7h-.53c-4.672-.696-8.73-3.17-12.259-7.41-3.528-4.148-5.202-8.559-5.03-13.318.095-4.768 2.031-8.73 5.736-11.82 3.529-2.995 7.591-4.144 12.088-3.62h.524c4.773.706 8.912 3.09 12.36 7.239 3.438 4.144 5.111 8.64 5.025 13.404-.18 4.763-2.121 8.645-5.83 11.825M548.609 725.575l27.17 16.231c1.32.878 2.999 1.764 4.85 2.647 1.85.968 3.971 1.94 6.441 3.003-3.09-.357-5.736-.62-8.025-.705-2.29-.09-3.877-.177-4.673-.09l-40.67 3.79-8.735 14.381 54.96 32.988 8.64-14.377-27.079-16.317c-1.416-.787-2.995-1.678-4.85-2.651-1.85-.873-4.057-1.936-6.527-2.995 3.008.353 5.65.53 7.939.706 2.298.095 3.881.172 4.673.095l40.845-3.705 8.645-14.381-54.955-32.997zM634.086 670.968l4.234-16.85-44.636 3.971-22.936 2.031-5.293 21.257 28.229 18.349 28.667 18.615 4.148-16.855-10.314-5.994 5.994-24.166zm-29.106 17.824-11.292-6.8-7.677-4.577a35 35 0 0 0-3.7-2.04c-1.32-.706-2.646-1.493-4.058-2.2h5.65c1.498 0 2.552 0 3.172-.09l6.618-.357 15.53-.792zM31.576 619.184c0 6.8 5.56 12.35 12.35 12.35s12.35-5.555 12.35-12.35c0-6.876-5.56-12.431-12.35-12.431-6.795 0-12.35 5.55-12.35 12.431M92.362 575.874l4.497-15.702-24.08-6.881 28.138-7.238 5.469-18.964-29.64 9.613c.262-4.763-.71-8.73-3.09-11.911-2.293-3.167-5.822-5.47-10.585-6.876-2.027-.534-3.972-.887-5.917-.887-1.055 0-2.199.095-3.262.186-2.909.438-5.555 1.578-7.849 3.257-2.027 1.592-3.795 3.623-5.207 6.175-1.407 2.47-3.085 7.238-5.116 14.024l-5.022 17.556 26.46 7.591zM48.16 546.238l.973-3.356c1.058-3.7 2.47-6.175 4.234-7.324.968-.706 2.298-1.059 3.791-.973 1.063 0 2.208.186 3.443.534 2.65.796 4.324 2.117 5.12 4.148.706 2.027.525 4.845-.447 8.469l-.878 3.09-7.238-2.027zM70.123 499.214c2.742 3.356 6.266 6.175 10.59 8.563 5.289 2.995 10.762 4.497 16.232 4.669 5.469.18 10.766-1.054 15.878-3.705a28 28 0 0 0 7.32-5.293 36.2 36.2 0 0 0 5.74-7.844c1.407-2.475 2.47-5.035 3.167-7.768.71-2.737 1.24-5.645 1.416-8.73l-16.765-9.175c1.153 3.343 1.769 6.347 1.678 9.088a16.1 16.1 0 0 1-2.117 7.496q-3.578 6.486-10.323 8.202c-4.497 1.054-8.912.443-13.409-2.122-4.85-2.642-8.025-6.175-9.522-10.58-1.502-4.33-1.054-8.745 1.407-13.061 1.325-2.375 3.094-4.32 5.383-5.732 2.208-1.502 5.03-2.646 8.559-3.442l-16.711-9.242a40 40 0 0 0-6.664 5.8c-1.945 2.026-3.528 4.324-4.944 6.703-2.203 4.149-3.619 8.206-4.144 12.174a29.7 29.7 0 0 0 1.23 12.354c1.24 4.411 3.267 8.292 6 11.645M78.682 450.52h-.086l.046.018ZM138.93 472.659l9.179-9.794 1.94-2.113c5.732-6.089 9.614-10.938 11.645-14.467 2.026-3.528 3.261-7.147 3.79-10.848.706-4.94.177-9.617-1.673-14.205-1.764-4.591-4.764-8.73-8.912-12.616-4.144-3.877-8.559-6.524-13.142-8.03-3.266-1.05-6.527-1.407-9.88-1.226-1.415.09-2.917.262-4.415.615-3.705.796-7.324 2.38-10.848 4.764-3.528 2.384-8.645 7.143-15.444 14.467L92.086 429l39.791 37.05zm-24.605-46.573 2.027-2.117c4.668-5.03 9.17-7.762 13.408-8.12.706-.086 1.416 0 2.122 0 3.614.358 7.234 2.298 10.938 5.736 4.497 4.235 6.696 8.383 6.614 12.613-.09 4.234-2.47 8.916-7.143 13.851l-2.031 2.208-8.378-7.849zM229.266 357.98l-19.055 8.913-4.673-10.147 20.204-9.35-5.999-12.79-35.552 16.585 27.083 58.13 35.548-16.588-6.084-13.056-20.117 9.446-4.592-9.794 19.059-8.908ZM291.811 352.421c-1.325-1.94-2.822-3.524-4.677-4.763-2.733-1.765-7.758-2.733-15.082-3-.353 0-.62-.086-.883-.086-3.352-.09-5.736-.443-7.143-1.144-1.325-.706-2.121-1.769-2.474-3.357-.349-1.588-.086-3 .972-4.234 1.059-1.235 2.647-2.122 4.674-2.651 2.03-.439 4.152-.439 6.35-.081 2.209.352 4.502 1.144 6.796 2.38l2.556-13.495c-3.267-1.235-6.438-2.027-9.79-2.208-3.266-.172-6.704.09-10.056.882-6.447 1.412-11.206 4.497-14.29 9.26-3.095 4.678-3.977 9.966-2.647 15.97 1.054 4.586 3.17 7.939 6.351 9.97 3.08 2.117 7.935 3.266 14.463 3.438 4.673.176 7.848.706 9.346 1.502 1.506.882 2.556 2.293 3.004 4.41.438 1.85.09 3.615-1.059 5.117-1.235 1.583-2.913 2.646-5.202 3.171-2.47.534-5.117.362-7.854-.434q-4.228-1.322-8.993-4.768l-4.764 14.471c4.054 2.384 8.026 3.877 11.907 4.583 3.877.62 8.03.443 12.44-.53 7.234-1.669 12.522-5.025 15.965-10.056 3.438-5.03 4.41-10.843 2.827-17.466-.529-2.647-1.497-4.94-2.737-6.88M325.776 379.07l-.706-21.09 3.176-.094 2.913-.09c.177 0 .267 0 .353-.087 5.117-.171 8.912-.62 11.287-1.23a18.15 18.15 0 0 0 6.356-3.266 16.96 16.96 0 0 0 5.112-7.41c1.149-2.909 1.678-6.266 1.502-10.061-.09-3.615-.882-6.876-2.208-9.79-1.32-2.822-3.171-5.202-5.641-7.057-2.027-1.673-4.587-2.818-7.496-3.352-1.94-.439-5.03-.615-8.912-.705-1.85 0-3.877.09-6.089.176l-18.258.615 2.294 64.043zm1.764-50.376c1.498 0 2.828 0 3.972.09 2.027.177 3.62.62 4.673 1.326 1.679 1.144 2.56 3.004 2.647 5.646.09 2.827-.706 4.768-2.294 6.003-1.149.796-2.827 1.411-5.026 1.768-1.058.172-2.298.263-3.619.263l-3.352.09-.53-14.996zM371.032 381.265l6.089-10.323 15.082 3.8 8.994 2.198.357 11.916 16.856 4.234-6.003-67.572-20.204-5.03-1.054-.263-36.964 56.806zm21.171-35.634 2.914-4.854a66 66 0 0 0 2.112-3.7c.625-1.326 1.42-2.651 2.122-4.144v5.731c0 1.416 0 2.56.095 3.176l1.14 22.144-8.378-2.117-8.469-2.117zM455.102 376.945a82 82 0 0 0 2.552-4.936c.886-1.855 1.854-4.058 2.917-6.532-.362 3-.533 5.65-.624 7.944-.086 2.293-.086 3.79 0 4.673l4.415 40.754 14.558 8.383 32.024-55.493-14.467-8.374-15.879 27.342a77 77 0 0 0-2.556 4.94c-.882 1.85-1.85 4.053-2.827 6.528.267-3.09.439-5.736.53-8.025.09-2.299.09-3.886.09-4.678l-4.497-40.664-14.648-8.473-32.015 55.574 14.549 8.383zM508.293 457.572l21.352-19.932 40.836-7.41-13.752-14.639-17.914 5.026c-.09 0-.349.09-.706.181-1.94.439-3.524 1.059-4.759 1.85.878-1.32 1.674-2.908 2.29-4.759.176-.176.176-.443.266-.533l6.175-17.557-13.675-14.635-10.224 40.135-21.357 19.937zM564.487 452.813c-4.415.439-8.554 1.764-12.617 3.963-3.967 2.207-7.315 5.116-10.051 8.559-2.737 3.438-4.673 7.419-5.823 11.735a33.3 33.3 0 0 0-1.058 13.227c.53 4.42 1.94 8.74 4.148 12.712a34.3 34.3 0 0 0 8.64 10.228c3.53 2.828 7.415 4.95 11.74 6.266 2.99.882 5.994 1.33 8.993 1.42 1.321 0 2.733-.09 4.063-.18 4.41-.444 8.554-1.851 12.607-4.059 3.977-2.203 7.324-5.116 10.066-8.559 2.732-3.447 4.673-7.32 5.908-11.644 1.149-4.41 1.502-8.817.972-13.322-.524-4.502-1.945-8.727-4.143-12.613a33.9 33.9 0 0 0-8.645-10.318c-3.529-2.828-7.415-4.854-11.74-6.09-2.994-.972-6.084-1.497-9.083-1.497-1.33-.09-2.651-.004-3.977.172m9.966 16.933c4.678 1.063 8.206 3.614 10.5 7.848 2.298 4.149 2.732 8.56 1.149 13.065-1.588 4.497-4.768 8.12-9.437 10.762-2.737 1.493-5.478 2.375-8.21 2.642a16.6 16.6 0 0 1-5.917-.267c-4.669-1.054-8.112-3.7-10.491-7.94-2.384-4.324-2.827-8.735-1.235-13.14 1.592-4.411 4.759-8.03 9.617-10.586 2.647-1.507 5.38-2.384 8.026-2.647 2.026-.258 4.062-.176 5.998.263M560.692 543.41l8.125 38.372 14.634-3.171-4.501-21.18 48.083-10.23-3.619-17.117Z"/></g><path fill="#fff" d="M548.695 619.184c0-120.147-97.918-217.978-217.979-217.978s-218.07 97.831-218.07 217.978c0 120.066 98.009 217.984 218.07 217.984s217.979-97.918 217.979-217.984"/><path fill="#0093d1" d="M410.986 416.464c-25.401-10.051-52.747-15.258-80.27-15.258-9.346 0-18.792.529-28.047 1.85L114.497 590.694c-1.144 9.44-1.85 18.877-1.85 28.49 0 27.528 5.297 54.878 15.525 80.546zM515.44 503.448c-17.38-27.876-41.017-51.431-68.897-68.893L145.897 734.754c17.647 28.228 41.288 51.779 69.254 69.245zM546.845 647.503c1.23-9.608 1.85-18.968 1.85-28.323 0-27.514-5.203-54.779-15.345-80.365L250.346 821.818c25.677 10.138 52.933 15.26 80.37 15.26 9.437 0 18.964-.526 28.405-1.765z"/></svg>