<svg height="1000" viewBox="0 0 1000 999.99998" width="1000" xmlns="http://www.w3.org/2000/svg"><g transform="matrix(4.523788 0 0 4.523788 -1017.3728 -1433.5387)"><path d="m 371.106 453.762 c 0 -40.267 -32.857 -73.126 -73.106 -73.126 c -40.269 0 -73.106 32.859 -73.106 73.126 c 0 40.27 32.838 73.128 73.106 73.128 c 40.249 0 73.106 -32.859 73.106 -73.128 z" fill="#e25645"/><path d="m 319.449 351.171 c -6.939 -6.904 -13.63 -7.605 -21.449 -2.028 c -7.84 -5.577 -14.508 -4.875 -21.45 2.028 c -7.332 -4.231 -13.729 -2.827 -18.662 3.861 l 8.326 20.164 l 10.921 -.118 c 6.649 -1.95 13.671 -2.886 20.865 -2.593 c 7.176 -.293 14.216 .643 20.846 2.593 l 10.921 .118 l 8.346 -20.164 c -4.955 -6.688 -11.331 -8.092 -18.664 -3.861 z" fill="#e25645"/><path d="m 342.811 352.36 c -.448 -10.121 -7.527 -17.784 -21.021 -13.923 c -3.607 -4.934 -8.035 -7.04 -13.104 -6.473 c -1.423 .155 -2.905 .526 -4.447 1.111 c .353 -5.44 -1.325 -7.41 -5.089 -7.723 v -3.802 h 2.34 v -2.321 h -2.34 v -2.34 h -2.32 v 2.34 h -2.32 v 2.321 h 2.32 v 3.802 c -3.744 .313 -5.44 2.283 -5.09 7.723 c -1.54 -.585 -3.022 -.956 -4.446 -1.111 c -5.069 -.566 -9.477 1.54 -13.103 6.473 c -1.443 -.429 -2.828 -.702 -4.115 -.858 c -10.842 -1.345 -16.517 5.772 -16.906 14.802 v 2.008 c .292 6.708 3.334 14.157 9.204 19.929 c -.117 .175 -.234 .351 -.332 .527 c -.351 .682 -.526 1.424 -.526 2.164 c 0 .761 .176 1.501 .526 2.145 c .41 .78 .995 1.443 1.677 1.95 c .703 .565 1.503 .994 2.36 1.249 c .936 .312 1.911 .468 2.925 .468 c .352 0 .722 -.02 1.072 -.059 c .624 -.078 1.268 -.214 1.872 -.409 c .839 -.273 1.638 -.683 2.321 -1.249 c .701 -.526 1.267 -1.19 1.677 -1.95 c .351 -.662 .526 -1.403 .526 -2.145 c 0 -.624 -.117 -1.228 -.351 -1.813 c .018 .078 .059 .136 .077 .195 c .41 .78 .976 1.443 1.657 1.97 c .703 .546 1.503 .974 2.34 1.247 c .957 .292 1.951 .448 2.945 .448 c 1.014 0 1.989 -.156 2.944 -.468 c .409 -.137 .819 -.313 1.209 -.507 c .41 -.214 .78 -.449 1.132 -.741 c .682 -.506 1.248 -1.189 1.657 -1.95 c .351 -.683 .526 -1.404 .526 -2.164 c 0 -.176 0 -.371 -.039 -.566 c .098 .507 .254 .976 .487 1.404 c .41 .78 .976 1.443 1.657 1.97 c .722 .546 1.502 .975 2.359 1.248 c .956 .313 1.932 .449 2.926 .449 c .976 0 1.989 -.136 2.926 -.449 c .856 -.293 1.657 -.702 2.359 -1.248 c .663 -.546 1.247 -1.209 1.637 -1.97 c .254 -.448 .41 -.956 .488 -1.462 c -.021 .215 -.038 .429 -.038 .625 c 0 .76 .174 1.501 .545 2.164 c .391 .78 .955 1.443 1.639 1.97 c .352 .272 .741 .526 1.131 .74 c .391 .195 .8 .371 1.229 .507 c .937 .292 1.931 .448 2.925 .448 c 1.015 0 1.989 -.156 2.944 -.468 c .858 -.274 1.639 -.682 2.359 -1.249 c .683 -.506 1.229 -1.189 1.639 -1.95 c .03 -.059 .058 -.118 .084 -.178 c -.236 .578 -.357 1.187 -.357 1.796 c 0 .761 .177 1.501 .525 2.145 c .409 .78 .996 1.443 1.678 1.95 c .703 .565 1.501 .994 2.36 1.249 c .935 .312 1.91 .468 2.925 .468 c .995 0 1.989 -.156 2.944 -.468 c .839 -.273 1.638 -.683 2.322 -1.249 c .7 -.526 1.266 -1.19 1.675 -1.95 c .352 -.662 .527 -1.403 .527 -2.145 c 0 -.74 -.176 -1.482 -.527 -2.164 c -.097 -.176 -.214 -.352 -.311 -.527 c 5.85 -5.753 8.892 -13.201 9.184 -19.91 v -2.046 z m -66.613 18.721 c -.35 .663 -.526 1.404 -.526 2.146 c 0 .624 .117 1.228 .351 1.774 c -.019 -.04 -.058 -.098 -.077 -.156 c -.41 -.761 -.976 -1.424 -1.677 -1.95 c -.684 -.545 -1.482 -.976 -2.321 -1.248 c -.604 -.195 -1.248 -.332 -1.872 -.39 c -.351 -.059 -.721 -.078 -1.072 -.078 c -.038 0 -.078 0 -.117 0 l .214 -2.439 c -5.83 -5.635 -12.012 -23.537 .976 -22.503 c .508 .039 1.054 .098 1.639 .215 c -2.01 7.995 1.891 16.107 5.967 22.815 c -.607 .508 -1.115 1.132 -1.485 1.814 z m 16.517 -3.277 c -.682 .527 -1.247 1.21 -1.657 1.971 c -.351 .663 -.546 1.404 -.546 2.144 c 0 .195 .02 .391 .039 .586 c -.078 -.488 -.234 -.955 -.468 -1.404 c -.409 -.78 -.976 -1.443 -1.657 -1.97 c -.352 -.272 -.722 -.527 -1.132 -.741 c -.39 -.195 -.8 -.371 -1.209 -.507 c -.098 -.039 -.195 -.058 -.292 -.079 l .449 -1.54 c -4.447 -5.538 -10.063 -24.922 1.052 -25.194 c 1.6 -.04 3.55 .331 5.909 1.169 v 24.025 l .585 .858 c -.37 .195 -.722 .43 -1.073 .682 z m 17.043 -1.539 l .43 1.54 c -.098 .021 -.195 .04 -.272 .079 c -.429 .136 -.838 .312 -1.229 .507 c -.39 .214 -.779 .448 -1.131 .741 c -.684 .526 -1.248 1.19 -1.639 1.95 c -.253 .468 -.41 .955 -.487 1.482 c .02 -.214 .039 -.429 .039 -.644 c 0 -.74 -.195 -1.481 -.547 -2.144 c -.39 -.761 -.974 -1.424 -1.637 -1.971 c -.352 -.253 -.702 -.487 -1.073 -.702 l .565 -.838 V 342.24 c 2.359 -.838 4.311 -1.209 5.909 -1.169 c 11.135 .272 5.518 19.656 1.072 25.194 z m 17.122 2.475 l .216 2.439 c -.041 0 -.06 0 -.099 0 c -1.015 0 -1.989 .155 -2.925 .467 c -.859 .273 -1.657 .683 -2.36 1.248 c -.682 .507 -1.268 1.189 -1.678 1.95 c -.024 .05 -.047 .1 -.07 .15 c .234 -.564 .364 -1.153 .364 -1.768 c 0 -.741 -.195 -1.483 -.546 -2.126 c -.371 -.702 -.877 -1.326 -1.483 -1.833 c 4.077 -6.688 7.996 -14.82 5.986 -22.815 c 15.114 -2.691 8.659 16.439 2.595 22.288 z" fill="#ffe52b"/><g><path d="m 361.376 451.014 c -1.501 0 -2.73 1.228 -2.73 2.748 c 0 1.503 1.229 2.73 2.73 2.73 c 1.502 0 2.729 -1.228 2.729 -2.73 c 0 -1.521 -1.227 -2.748 -2.729 -2.748 z" fill="#ffe52b"/><path d="m 238.446 474.063 c .623 -.02 1.267 -.098 1.949 -.273 c 1.21 -.292 2.223 -.799 3.062 -1.481 c .838 -.683 1.463 -1.541 1.854 -2.554 c .292 -.801 .429 -1.658 .409 -2.594 c -.021 -.938 -.293 -2.477 -.819 -4.603 l -.722 -2.866 l -5.732 1.422 l -8.015 2.009 l .721 2.867 l .156 .625 c .448 1.792 .878 3.079 1.287 3.881 c .409 .798 .917 1.481 1.54 2.026 c .839 .723 1.775 1.19 2.848 1.404 c .467 .097 .954 .137 1.462 .137 z m -3.842 -7.372 l -.176 -.623 l 4.018 -1.016 l 3.587 -.896 l .157 .643 c .37 1.462 .331 2.612 -.118 3.452 c -.448 .818 -1.325 1.404 -2.632 1.735 c -.352 .077 -.683 .136 -.994 .156 c -.858 .077 -1.58 -.079 -2.145 -.468 c -.761 -.525 -1.346 -1.52 -1.697 -2.983 z" fill="#ffe52b"/><path d="M 239.83 487.439 L 242.561 485.803 L 240.025 481.59 L 242.072 480.361 L 244.471 484.32 L 247.064 482.76 L 244.686 478.781 L 246.792 477.533 L 249.327 481.746 L 251.979 480.146 L 247.514 472.698 L 235.364 479.99 Z" fill="#ffe52b"/><path d="m 257.771 503.021 c .76 -.741 1.17 -1.521 1.209 -2.379 c .059 -.84 -.234 -1.658 -.878 -2.418 c .8 .467 1.521 .682 2.146 .644 c .624 -.021 1.228 -.332 1.813 -.878 c .448 -.449 .761 -.936 .937 -1.482 c .155 -.526 .155 -1.094 0 -1.658 c -.137 -.506 -.39 -1.033 -.762 -1.559 c -.37 -.528 -1.111 -1.366 -2.222 -2.518 l -2.398 -2.494 l -.294 -.293 l -1.442 1.403 l -8.756 8.444 l 2.789 2.866 c 1.111 1.15 1.97 1.95 2.535 2.398 c .565 .43 1.111 .722 1.639 .897 c .604 .195 1.189 .215 1.793 .097 c .039 -.02 .078 -.02 .117 -.038 c .585 -.157 1.131 -.449 1.619 -.898 c .058 -.056 .096 -.095 .155 -.134 z m -1.892 -3.414 c -.098 .176 -.233 .352 -.409 .527 c -.39 .371 -.8 .508 -1.229 .391 c -.429 -.117 -.955 -.508 -1.6 -1.172 l -.935 -.973 l 2.224 -2.127 l .975 1.015 c .468 .487 .8 .917 .975 1.268 c .059 .136 .097 .253 .117 .37 c .038 .235 -.001 .469 -.118 .701 z m .391 -4.562 l -.391 -.408 l -.137 -.137 l .137 -.138 l 1.736 -1.696 l .175 -.156 l .585 .585 c .663 .702 1.034 1.249 1.112 1.639 c .077 .39 -.078 .761 -.468 1.132 c -.371 .371 -.761 .486 -1.15 .371 c -.079 -.021 -.157 -.041 -.254 -.08 c -.35 -.196 -.801 -.546 -1.345 -1.112 z" fill="#ffe52b"/><path d="m 267.247 499.627 l -9.808 8.522 l 3.334 1.932 l 1.911 -1.834 l 4.563 2.633 l .176 .118 l -.176 .681 l -.467 1.873 l .467 .274 l 2.867 1.637 l 2.848 -14.723 l -4.193 -2.419 z m 2.478 1.912 c -.137 .487 -.254 .897 -.351 1.209 c -.079 .313 -.156 .526 -.176 .683 l -1.093 4.757 l -.858 -.486 l -2.476 -1.424 l 2.476 -2.32 l 1.093 -1.016 c .234 -.213 .448 -.428 .683 -.661 c .214 -.234 .467 -.49 .702 -.742 z" fill="#ffe52b"/><path d="m 287.84 506.901 c -.35 -.447 -.799 -.838 -1.364 -1.132 c -.565 -.292 -1.618 -.662 -3.14 -1.072 l -.352 -.077 l -3.549 -.956 l -3.666 13.69 l 3.491 .936 l 1.443 -5.362 l 1.695 6.2 l .585 .157 l 3.647 .975 l -2.263 -6.514 c 1.054 .039 1.932 -.195 2.633 -.722 c .702 -.526 1.189 -1.306 1.481 -2.379 c .176 -.7 .215 -1.365 .118 -2.008 c -.116 -.663 -.369 -1.229 -.759 -1.736 z m -3.178 3.277 c -.156 .586 -.449 .955 -.897 1.131 c -.215 .098 -.468 .116 -.78 .116 c -.312 0 -.683 -.058 -1.092 -.176 l -.683 -.175 l .955 -3.606 l .742 .194 c .039 .019 .058 .019 .077 .019 c .78 .215 1.288 .526 1.56 .897 c .254 .373 .313 .916 .118 1.6 z" fill="#ffe52b"/><path d="m 299.56 506.551 c -1.033 -.02 -1.951 .136 -2.808 .467 c -.839 .332 -1.599 .84 -2.281 1.502 c -.722 .722 -1.268 1.521 -1.638 2.398 c -.371 .878 -.565 1.854 -.586 2.945 c -.02 1.346 .234 2.573 .78 3.646 c .527 1.092 1.326 1.99 2.359 2.731 c .547 .37 1.151 .662 1.795 .857 c .643 .195 1.346 .313 2.125 .313 c .624 .019 1.23 -.039 1.833 -.176 c .604 -.137 1.229 -.351 1.853 -.643 l .058 -4.231 c -.525 .585 -1.071 1.013 -1.599 1.286 c -.525 .254 -1.091 .39 -1.695 .369 c -1.073 -.019 -1.951 -.409 -2.633 -1.17 c -.684 -.76 -1.015 -1.696 -.995 -2.846 c .02 -1.21 .37 -2.204 1.073 -2.945 c .701 -.74 1.599 -1.109 2.69 -1.092 c .604 .021 1.17 .156 1.696 .449 c .508 .271 1.034 .721 1.561 1.326 l .058 -4.232 c -.604 -.313 -1.208 -.547 -1.813 -.702 c -.604 -.155 -1.208 -.233 -1.833 -.252 z" fill="#ffe52b"/><path d="M 310.89 508.363 L 315.686 507.252 L 314.984 504.23 L 306.521 506.18 L 309.72 519.986 L 318.184 518.036 L 317.461 514.935 L 312.664 516.047 L 312.138 513.708 L 316.643 512.674 L 315.959 509.709 L 311.455 510.742 Z" fill="#ffe52b"/><path d="M 331.17 508.734 L 326.861 510.84 L 322.102 501.07 L 318.631 502.767 L 324.832 515.501 L 332.633 511.699 Z" fill="#ffe52b"/><path d="m 344.47 493.505 h -.018 c -.646 -.78 -1.405 -1.386 -2.263 -1.833 c -.879 -.448 -1.795 -.722 -2.789 -.781 c -.254 -.018 -.487 -.037 -.741 -.037 c -.74 .02 -1.463 .155 -2.184 .389 c -.957 .292 -1.813 .781 -2.594 1.424 c -.78 .644 -1.403 1.423 -1.854 2.301 c -.467 .898 -.759 1.834 -.838 2.807 c -.116 1.016 -.02 1.972 .254 2.907 c .293 .915 .76 1.775 1.404 2.556 c .643 .76 1.404 1.384 2.281 1.813 c .857 .449 1.794 .703 2.808 .779 c .253 .02 .487 .02 .722 .02 c .741 0 1.462 -.115 2.185 -.35 c .956 -.313 1.813 -.801 2.593 -1.443 c .762 -.642 1.385 -1.404 1.853 -2.301 c .469 -.877 .761 -1.814 .858 -2.828 c .098 -.995 0 -1.95 -.273 -2.867 c -.293 -.938 -.762 -1.776 -1.404 -2.556 z m -3.141 8.054 c -.8 .664 -1.695 .936 -2.671 .818 c -.038 0 -.078 0 -.117 0 c -1.033 -.154 -1.93 -.701 -2.71 -1.638 c -.78 -.917 -1.15 -1.892 -1.112 -2.944 c .021 -1.054 .449 -1.93 1.268 -2.613 c .78 -.662 1.678 -.916 2.672 -.8 c .039 0 .078 0 .116 0 c 1.055 .156 1.97 .683 2.732 1.6 c .76 .916 1.13 1.91 1.111 2.963 c -.04 1.053 -.469 1.911 -1.289 2.614 z" fill="#ffe52b"/><path d="m 346.166 477.28 l 6.006 3.588 c .292 .194 .663 .39 1.072 .585 c .409 .214 .878 .429 1.424 .664 c -.683 -.079 -1.268 -.137 -1.774 -.156 c -.506 -.02 -.857 -.039 -1.033 -.02 l -8.99 .838 l -1.931 3.179 l 12.149 7.292 l 1.91 -3.178 l -5.986 -3.607 c -.313 -.174 -.662 -.371 -1.072 -.586 c -.409 -.193 -.897 -.428 -1.443 -.662 c .665 .078 1.249 .117 1.755 .156 c .508 .021 .858 .038 1.033 .021 l 9.029 -.819 l 1.911 -3.179 l -12.148 -7.294 z" fill="#ffe52b"/><path d="m 365.061 465.209 l .936 -3.725 l -9.867 .878 l -5.07 .449 l -1.17 4.699 l 6.24 4.056 l 6.337 4.115 l .917 -3.726 l -2.28 -1.325 l 1.325 -5.342 z m -6.434 3.94 l -2.496 -1.503 l -1.697 -1.012 c -.253 -.158 -.526 -.314 -.818 -.451 c -.292 -.156 -.585 -.33 -.897 -.486 c .507 0 .916 0 1.249 0 c .331 0 .564 0 .701 -.02 l 1.463 -.079 l 3.433 -.175 z" fill="#ffe52b"/><path d="m 231.874 453.762 c 0 1.503 1.229 2.73 2.73 2.73 c 1.501 0 2.73 -1.228 2.73 -2.73 c 0 -1.52 -1.229 -2.748 -2.73 -2.748 c -1.502 0 -2.73 1.227 -2.73 2.748 z" fill="#ffe52b"/><path d="m 245.311 444.188 l .994 -3.471 l -5.323 -1.521 l 6.22 -1.6 l 1.209 -4.192 l -6.552 2.125 c .058 -1.053 -.157 -1.93 -.683 -2.633 c -.507 -.7 -1.287 -1.209 -2.34 -1.52 c -.448 -.118 -.878 -.196 -1.308 -.196 c -.233 0 -.486 .021 -.721 .041 c -.643 .097 -1.228 .349 -1.735 .72 c -.448 .352 -.839 .801 -1.151 1.365 c -.311 .546 -.682 1.6 -1.131 3.1 l -1.11 3.881 l 5.849 1.678 z m -9.771 -6.551 l .215 -.742 c .234 -.818 .546 -1.365 .936 -1.619 c .214 -.156 .508 -.234 .838 -.215 c .235 0 .488 .041 .761 .118 c .586 .176 .956 .468 1.132 .917 c .156 .448 .116 1.071 -.099 1.872 l -.194 .683 l -1.6 -.448 z" fill="#ffe52b"/><path d="m 240.395 427.242 c .606 .742 1.385 1.365 2.341 1.893 c 1.169 .662 2.379 .994 3.588 1.032 c 1.209 .04 2.38 -.233 3.51 -.819 c .585 -.292 1.132 -.683 1.618 -1.17 c .469 -.488 .898 -1.053 1.269 -1.734 c .311 -.547 .546 -1.113 .7 -1.717 c .157 -.605 .274 -1.248 .313 -1.93 l -3.706 -2.028 c .255 .739 .391 1.403 .371 2.009 c -.02 .584 -.176 1.149 -.468 1.657 c -.527 .956 -1.288 1.56 -2.282 1.813 c -.994 .233 -1.97 .098 -2.964 -.469 c -1.072 -.584 -1.774 -1.365 -2.105 -2.339 c -.332 -.957 -.233 -1.933 .311 -2.887 c .293 -.525 .684 -.955 1.19 -1.267 c .488 -.332 1.112 -.585 1.892 -.761 l -3.694 -2.043 c -.561 .391 -1.046 .817 -1.473 1.282 c -.43 .448 -.78 .956 -1.093 1.482 c -.487 .917 -.8 1.814 -.916 2.691 c -.098 .897 -.02 1.814 .272 2.731 c .274 .975 .722 1.833 1.326 2.574 z" fill="#ffe52b"/><path d="M 242.287 416.478 L 242.268 416.478 L 242.278 416.482 Z" fill="#ffe52b"/><path d="m 255.605 421.372 l 2.029 -2.165 l .429 -.467 c 1.267 -1.346 2.125 -2.418 2.574 -3.198 c .448 -.78 .721 -1.58 .838 -2.398 c .156 -1.092 .039 -2.126 -.37 -3.14 c -.39 -1.015 -1.053 -1.93 -1.97 -2.789 c -.916 -.857 -1.892 -1.442 -2.905 -1.775 c -.722 -.232 -1.443 -.311 -2.184 -.271 c -.313 .02 -.645 .058 -.976 .136 c -.819 .176 -1.619 .526 -2.398 1.053 c -.78 .527 -1.911 1.579 -3.414 3.198 l -2.008 2.165 l 8.796 8.19 z m -5.439 -10.295 l .448 -.468 c 1.032 -1.112 2.027 -1.716 2.964 -1.795 c .156 -.019 .313 0 .469 0 c .799 .079 1.599 .508 2.418 1.268 c .994 .936 1.48 1.853 1.462 2.788 c -.02 .936 -.546 1.971 -1.579 3.062 l -.449 .488 l -1.852 -1.735 z" fill="#ffe52b"/><path d="M 275.574 396.022 L 271.362 397.992 L 270.329 395.749 L 274.795 393.682 L 273.469 390.855 L 265.61 394.521 L 271.597 407.371 L 279.455 403.704 L 278.11 400.818 L 273.663 402.906 L 272.648 400.741 L 276.861 398.772 Z" fill="#ffe52b"/><path d="m 289.4 394.793 c -.293 -.429 -.624 -.779 -1.034 -1.053 c -.604 -.39 -1.715 -.604 -3.334 -.663 c -.078 0 -.137 -.019 -.195 -.019 c -.741 -.02 -1.268 -.098 -1.579 -.253 c -.293 -.156 -.469 -.391 -.547 -.742 c -.077 -.351 -.019 -.663 .215 -.936 c .234 -.273 .585 -.469 1.033 -.586 c .449 -.097 .918 -.097 1.404 -.018 c .488 .078 .995 .253 1.502 .526 l .565 -2.983 c -.722 -.273 -1.423 -.448 -2.164 -.488 c -.722 -.038 -1.482 .02 -2.223 .195 c -1.425 .312 -2.477 .994 -3.159 2.047 c -.684 1.034 -.879 2.203 -.585 3.53 c .233 1.014 .701 1.755 1.404 2.204 c .681 .468 1.754 .722 3.197 .76 c 1.033 .039 1.735 .156 2.066 .332 c .333 .195 .565 .507 .664 .975 c .097 .409 .02 .799 -.234 1.131 c -.273 .35 -.644 .585 -1.15 .701 c -.546 .118 -1.131 .08 -1.736 -.096 c -.623 -.195 -1.286 -.546 -1.988 -1.054 l -1.053 3.199 c .896 .527 1.774 .857 2.632 1.013 c .857 .137 1.775 .098 2.75 -.117 c 1.599 -.369 2.768 -1.111 3.529 -2.223 c .76 -1.112 .975 -2.397 .625 -3.861 c -.117 -.585 -.331 -1.092 -.605 -1.521 z" fill="#ffe52b"/><path d="m 296.908 400.684 l -.156 -4.662 l .702 -.021 l .644 -.02 c .039 0 .059 0 .078 -.019 c 1.131 -.038 1.97 -.137 2.495 -.272 c .546 -.157 1.015 -.41 1.405 -.722 c .507 -.429 .897 -.975 1.13 -1.638 c .254 -.643 .371 -1.385 .332 -2.224 c -.02 -.799 -.195 -1.52 -.488 -2.164 c -.292 -.624 -.701 -1.15 -1.247 -1.56 c -.448 -.37 -1.014 -.623 -1.657 -.741 c -.429 -.097 -1.112 -.136 -1.97 -.156 c -.409 0 -.857 .02 -1.346 .039 l -4.036 .136 l .507 14.157 z m .39 -11.136 c .331 0 .625 0 .878 .02 c .448 .039 .8 .137 1.033 .293 c .371 .253 .566 .664 .585 1.248 c .02 .625 -.156 1.054 -.507 1.327 c -.254 .176 -.625 .312 -1.111 .391 c -.234 .038 -.508 .058 -.8 .058 l -.741 .02 l -.117 -3.315 z" fill="#ffe52b"/><path d="m 306.912 401.169 l 1.346 -2.282 l 3.334 .84 l 1.988 .486 l .079 2.634 l 3.726 .936 l -1.327 -14.937 l -4.466 -1.112 l -.233 -.058 l -8.171 12.557 z m 4.68 -7.877 l .644 -1.073 c .155 -.253 .313 -.526 .467 -.818 c .138 -.293 .314 -.586 .469 -.916 c 0 .527 0 .936 0 1.267 c 0 .313 0 .566 .021 .702 l .252 4.895 l -1.852 -.468 l -1.872 -.468 z" fill="#ffe52b"/><path d="m 325.496 400.214 c .175 -.311 .369 -.681 .564 -1.091 c .196 -.41 .41 -.897 .645 -1.444 c -.08 .663 -.118 1.249 -.138 1.756 c -.019 .507 -.019 .838 0 1.033 l .976 9.009 l 3.218 1.853 l 7.079 -12.267 l -3.198 -1.851 l -3.51 6.044 c -.176 .311 -.371 .682 -.565 1.092 c -.195 .409 -.409 .896 -.625 1.443 c .059 -.683 .097 -1.268 .117 -1.774 c .02 -.508 .02 -.859 .02 -1.034 l -.994 -8.989 l -3.238 -1.873 l -7.077 12.285 l 3.216 1.853 z" fill="#ffe52b"/><path d="m 337.254 418.037 l 4.72 -4.406 l 9.027 -1.638 l -3.04 -3.236 l -3.96 1.111 c -.02 0 -.077 .02 -.156 .04 c -.429 .097 -.779 .234 -1.052 .409 c .194 -.292 .37 -.643 .506 -1.052 c .039 -.039 .039 -.098 .059 -.118 l 1.365 -3.881 l -3.023 -3.235 l -2.26 8.872 l -4.721 4.407 z" fill="#ffe52b"/><path d="m 349.676 416.985 c -.976 .097 -1.891 .39 -2.789 .876 c -.877 .488 -1.617 1.131 -2.222 1.892 c -.605 .76 -1.033 1.64 -1.287 2.594 c -.274 .955 -.352 1.93 -.234 2.924 c .117 .977 .429 1.932 .917 2.81 c .486 .878 1.131 1.638 1.91 2.261 c .78 .625 1.639 1.094 2.595 1.385 c .661 .195 1.325 .294 1.988 .314 c .292 0 .604 -.02 .898 -.04 c .975 -.098 1.891 -.409 2.787 -.897 c .879 -.487 1.619 -1.131 2.225 -1.892 c .604 -.762 1.033 -1.618 1.306 -2.574 c .254 -.975 .332 -1.949 .215 -2.945 c -.116 -.995 -.43 -1.929 -.916 -2.788 c -.489 -.897 -1.132 -1.658 -1.911 -2.281 c -.78 -.625 -1.639 -1.073 -2.595 -1.346 c -.662 -.215 -1.345 -.331 -2.008 -.331 c -.294 -.02 -.586 -.001 -.879 .038 z m 2.203 3.743 c 1.034 .235 1.814 .799 2.321 1.735 c .508 .917 .604 1.892 .254 2.888 c -.351 .994 -1.054 1.795 -2.086 2.379 c -.605 .33 -1.211 .525 -1.815 .584 c -.429 .059 -.878 .039 -1.308 -.059 c -1.032 -.233 -1.793 -.818 -2.319 -1.755 c -.527 -.956 -.625 -1.931 -.273 -2.905 c .352 -.975 1.052 -1.775 2.126 -2.34 c .585 -.333 1.189 -.527 1.774 -.585 c .448 -.057 .898 -.039 1.326 .058 z" fill="#ffe52b"/><path d="M 348.837 437.012 L 350.633 445.494 L 353.868 444.793 L 352.873 440.111 L 363.502 437.85 L 362.702 434.066 Z" fill="#ffe52b"/></g><path d="m 346.185 453.762 c 0 -26.559 -21.645 -48.185 -48.185 -48.185 c -26.54 0 -48.205 21.626 -48.205 48.185 c 0 26.541 21.665 48.186 48.205 48.186 c 26.54 0 48.185 -21.645 48.185 -48.186 z" fill="#fff"/><path d="m 315.744 408.95 c -5.615 -2.222 -11.66 -3.373 -17.744 -3.373 c -2.066 0 -4.154 .117 -6.2 .409 l -41.596 41.478 c -.253 2.087 -.409 4.173 -.409 6.298 c 0 6.085 1.171 12.131 3.432 17.805 z" fill="#0093d1"/><path d="m 338.834 428.178 c -3.842 -6.162 -9.067 -11.369 -15.23 -15.229 l -66.459 66.36 c 3.901 6.24 9.127 11.446 15.309 15.307 z" fill="#0093d1"/><path d="m 345.776 460.022 c .272 -2.124 .409 -4.193 .409 -6.261 c 0 -6.082 -1.15 -12.109 -3.392 -17.765 l -62.559 62.559 c 5.676 2.241 11.701 3.373 17.766 3.373 c 2.086 0 4.192 -.116 6.279 -.39 z" fill="#0093d1"/></g></svg>