<svg xmlns="http://www.w3.org/2000/svg" xml:space="preserve" viewBox="0 0 612 792"><path d="M307.5 679.39c81.299-42.306 186.411-127.208 186.411-263.133 0-28.513-6.528-68.437-19.354-90.022-13.629-22.938-37.004-35.608-64.816-35.608-31.489 0-47.375 8.843-60.306 8.843-28.351 0-41.935-24.544-41.935-24.544s-13.584 24.544-41.936 24.544c-12.931 0-28.816-8.843-60.305-8.843-27.814 0-51.188 12.671-64.817 35.608-12.825 21.585-19.354 61.508-19.354 90.022.001 135.925 105.113 220.827 186.412 263.133" style="fill:#733694"/><path d="M307.5 633.246c62.749-32.652 143.879-98.183 143.879-203.094 0-22.007-5.039-52.821-14.938-69.481-10.52-17.704-28.561-27.484-50.027-27.484-24.304 0-36.565 6.825-46.546 6.825-21.883 0-32.367-18.943-32.367-18.943s-10.484 18.943-32.367 18.943c-9.98 0-22.241-6.825-46.545-6.825-21.468 0-39.509 9.78-50.028 27.484-9.899 16.66-14.938 47.474-14.938 69.481-.001 104.911 81.128 170.442 143.877 203.094" style="fill:#fff"/><path d="M393.318 159.845c-4.642 0-9.116.682-13.319 1.941-7.787-12.011-21.757-20.022-37.703-20.022-14.127 0-26.696 6.293-34.795 16.081-8.101-9.787-20.671-16.081-34.797-16.081-15.945 0-29.916 8.011-37.701 20.022a46.4 46.4 0 0 0-13.32-1.941c-24.435 0-44.242 18.807-44.242 42.005s19.808 42.005 44.242 42.005c15.945 0 29.915-8.011 37.701-20.023a46.4 46.4 0 0 0 13.32 1.941c14.126 0 26.696-6.294 34.797-16.08 8.099 9.786 20.668 16.08 34.795 16.08a46.4 46.4 0 0 0 13.32-1.941c7.786 12.012 21.756 20.023 37.702 20.023 24.434 0 44.241-18.806 44.241-42.005.001-23.199-19.807-42.005-44.241-42.005" style="fill:#dcaf31"/><path d="M221.683 224.965c-13.98 0-25.353-10.369-25.353-23.115s11.373-23.115 25.353-23.115c2.427 0 4.771.319 6.994.902a40 40 0 0 0-.215 4.131c0 12.231 5.51 23.237 14.296 30.914-4.552 6.195-12.299 10.283-21.075 10.283M393.318 224.965c-8.776 0-16.522-4.088-21.075-10.284 8.786-7.677 14.296-18.683 14.296-30.914 0-1.394-.075-2.771-.215-4.131a27.5 27.5 0 0 1 6.994-.902c13.978 0 25.352 10.369 25.352 23.115 0 12.747-11.373 23.116-25.352 23.116M272.704 206.883c-13.98 0-25.353-10.369-25.353-23.115s11.373-23.115 25.353-23.115c13.978 0 25.352 10.37 25.352 23.115 0 12.746-11.373 23.115-25.352 23.115M342.296 206.883c-13.972 0-25.341-10.359-25.352-23.097l.001-.018-.001-.018c.011-12.737 11.38-23.097 25.352-23.097 13.98 0 25.353 10.37 25.353 23.115 0 12.746-11.373 23.115-25.353 23.115" style="fill:#da2128"/><path d="M317.189 126.217v-6.189h-6.638v-6.638h-6.189v6.638h-6.638v6.189h6.638v4.8c-3.941 1.19-6.795 4.644-6.795 8.724 0 5.064 4.393 9.17 9.811 9.17s9.811-4.106 9.811-9.17c0-4.025-2.778-7.436-6.638-8.67v-4.854zM307.5 237.206c-50.475 0-87.757 18.641-87.757 18.641v19.387s37.282-18.641 87.757-18.641 87.757 18.641 87.757 18.641v-19.387s-37.282-18.641-87.757-18.641M384.626 439.026v-18.89h-96.17v30.169c-33.423 8.039-58.081 35.923-58.081 69.094 0 39.451 34.875 71.433 77.896 71.433 21.842 0 41.573-8.254 55.717-21.534l-14.134-12.659c-10.675 9.452-25.376 15.304-41.583 15.304-.311 0-.617-.016-.926-.021v-62.031h43.517v-18.89h-43.517v-24.124c.309-.005.615-.021.926-.021 16.207 0 30.908 5.852 41.583 15.304l14.134-12.659c-14.144-13.28-33.875-21.534-55.717-21.534-.311 0-.616.018-.926.022v-8.961h77.281zm-96.17 129.86c-22.816-7.267-39.191-26.703-39.191-49.486 0-22.784 16.375-42.221 39.191-49.487z" style="fill:#dcaf31"/><path d="M266.33 356.941c-.456 2.383-2.919 4.314-5.501 4.314s-4.308-1.931-3.853-4.314c.456-2.383 2.919-4.315 5.501-4.315s4.308 1.932 3.853 4.315m-14.744 12.673 4.964.455-4.6 22.881c-.922 4.494-2.635 6.532-5.138 6.532-1.061 0-2.026-.095-2.895-.703l-1.933 5.816c.586.175 2.224.603 4.156.603 8.352 0 11.749-4.231 13.6-13.6l1.564-7.919 3.752-18.994-12.736.549zM292.2 386.775l4.314-21.712c-2.426-.917-8.317-1.191-9.365-1.191-4.581 0-10.073 1.137-14.021 5.868-3.947 4.731-4.767 11.323-4.767 15.073 0 1.91.984 4.613 2.048 5.847q1.597 1.85 4.055 1.85c6.563 0 10.353-5.515 12.828-9.677l-2.757 9.127 11.623-.49 1.09-4.099zm-14.48-.181c-1.795 0-2.122-1.935-2.122-4.324 0-7.127 5.672-12.895 10.446-12.895 1.127 0 2.529.287 2.529 1.632 0 5.55-7.018 15.587-10.853 15.587M327.744 370.355c0-2.477-1.322-4.612-4.856-5.606l3.632-3.533-3.672-2.775-4.574 5.717c-.161-.003-.32-.006-.486-.006-8.344 0-15.097 8.395-15.097 18.77 0 5.413 2.122 9.629 9.793 9.629 4.505 0 8.475-.954 10.821-1.671l.17-5.883c-1.816.698-5.433 1.841-9.603 1.841-2.857 0-4.081-1.172-4.081-3.427 0-.92.043-1.803.117-2.649 11.385.189 17.836-3.758 17.836-10.407m-10.364-.98c1.939 0 3.509 1.022 3.509 2.286 0 2.347-3.068 4.524-10.148 4.59 1.292-4.332 3.779-6.876 6.639-6.876M355.163 364.071c3.112 0 7.031 1.228 5.631 8.22l-3.997 19.964h-7.25l3.459-18.589a6.7 6.7 0 0 0 .153-1.369c0-1.047-.4-2.138-1.228-2.138-2.466 0-6.643 3.093-11.111 15.427l-1.325 6.669h-6.756l4.454-22.426-4.908-.698.504-3.764 11.975-.679-2.575 8.931c-.001 0 4.079-9.548 12.974-9.548" style="fill:#733694"/></svg>