<svg xmlns="http://www.w3.org/2000/svg" xml:space="preserve" viewBox="0 0 612 792"><path d="M216.936 266.704c-.648.864-7.56 9.864 1.08 19.296 13.464-6.264 27.792-11.16 42.624-14.544 30.24-6.696 61.632-6.696 91.8.072A208.5 208.5 0 0 1 395.136 286c8.64-9.432 1.728-18.432 1.08-19.296-.648.288-1.368.288-2.088 0-13.608-5.76-27.936-10.152-42.84-13.104a228 228 0 0 0-89.424 0c-14.904 2.952-29.232 7.344-42.84 13.104-.72.288-1.44.288-2.088 0" style="fill:#c0872d"/><path d="M315.432 186.928c16.92-5.112 28.728-.36 36.216 5.616 5.76 11.736 6.984 23.688 7.2 25.776-.288.72-.504 1.44-.72 2.232-5.472-.648-13.392 1.152-13.392 1.152 3.96 5.472 11.592 6.624 11.592 6.624-1.296 6.84-6.84 9.648-12.168 9-5.616-.648-11.016-5.184-10.728-12.672-1.872 6.336-7.416 9-12.672 8.496-5.832-.648-11.448-4.392-11.088-11.736 0-.576 0-1.08.072-1.584 7.272.288 13.824-4.536 13.824-4.536s-2.88-3.168-13.248-3.744c0 0-.216-6.768-2.376-11.016h.36c3.384-4.824 5.616-9.36 7.128-13.608M363.672 205.072c35.496-3.024 50.976 21.024 53.208 24.912-2.016 1.08-4.104 2.88-6.192 5.544 0 0-3.456-3.96-13.392-2.663 0 0 1.512 6.768 9.072 11.376-1.512 5.112-6.408 8.28-11.88 7.92-6.408-.432-11.376-6.408-10.872-12.816-3.096 4.392-8.856 6.12-13.752 4.176-4.608-1.8-7.704-6.408-7.344-11.592.072-.648.144-1.224.288-1.8 10.584 1.872 15.336-1.152 15.336-1.152s-8.064-5.256-12.024-6.12c0 0 1.44-8.856-.792-13.968l-.648.648c-.144-.505-.432-2.161-1.008-4.465M249.48 205.072c-35.496-3.024-50.976 21.024-53.208 24.912 2.016 1.08 4.104 2.88 6.192 5.544 0 0 3.456-3.96 13.392-2.663 0 0-1.512 6.768-9.072 11.376 1.512 5.112 6.408 8.28 11.88 7.92 6.408-.432 11.376-6.408 10.872-12.816 3.096 4.392 8.856 6.12 13.752 4.176 4.608-1.8 7.704-6.408 7.344-11.592-.072-.648-.144-1.224-.288-1.8-10.584 1.872-15.336-1.152-15.336-1.152s8.064-5.256 12.024-6.12c0 0-1.44-8.856.792-13.968l.648.648c.144-.505.432-2.161 1.008-4.465M297.792 186.928c-16.992-5.112-28.8-.36-36.288 5.616-5.76 11.736-6.984 23.688-7.2 25.776.288.72.504 1.44.72 2.232 5.472-.648 13.392 1.152 13.392 1.152-3.96 5.472-11.592 6.624-11.592 6.624 1.296 6.84 6.84 9.648 12.168 9 5.616-.648 11.016-5.184 10.728-12.672 1.872 6.336 7.415 9 12.672 8.496 5.832-.648 11.448-4.392 11.088-11.736 0-.576 0-1.08-.072-1.584-7.273.288-13.824-4.536-13.824-4.536s2.88-3.168 13.248-3.744c0 0 .216-6.768 2.376-11.016h-.36c-3.384-4.824-5.616-9.36-7.056-13.608" style="fill:#ef4634"/><path d="M309.744 112.624h-6.336v9.288h-6.048v6.912h6.048v8.568c-5.112 1.368-8.928 6.12-8.928 11.736 0 3.816 1.8 7.272 4.608 9.504-.504.936-1.08 2.232-1.656 3.744h-.072c-17.208-.648-31.464 8.568-37.944 18.432-68.112-14.256-74.664 47.16-74.952 50.112-4.464 2.88-7.344 7.56-7.344 7.56s11.16-5.976 16.488 3.528c6.192 11.088 10.944 21.456 25.776 16.92 10.44-3.24 13.464-10.872 13.464-10.872 3.312 2.376 7.776 3.168 11.664 2.304 5.76-1.224 10.368-6.48 11.376-11.808 4.896 9.504 21.024 8.64 25.704-2.16 5.976 10.008 21.672 6.696 24.984-3.672 3.312 10.368 19.008 13.68 24.984 3.672 4.68 10.8 20.808 11.664 25.704 2.16 1.008 5.328 5.616 10.584 11.376 11.808 3.888.864 8.352.072 11.664-2.304 0 0 3.024 7.632 13.464 10.872 14.832 4.536 19.584-5.832 25.776-16.92 5.328-9.504 16.488-3.528 16.488-3.528s-2.88-4.68-7.344-7.56c-.288-2.952-6.84-64.368-74.952-50.112-6.48-9.864-20.736-19.08-37.944-18.432h-.072c-.576-1.512-1.152-2.808-1.656-3.744 2.808-2.232 4.608-5.688 4.608-9.504 0-5.616-3.816-10.368-8.928-11.736v-8.568h6.048v-6.912h-6.048zm-13.68 55.296c-1.368 7.848-.576 19.296 8.784 32.616h.36c-2.16 4.248-2.376 11.016-2.376 11.016-10.368.576-13.248 3.744-13.248 3.744s6.552 4.824 13.824 4.536c.072.504.072 1.008.072 1.584.36 7.344-5.256 11.088-11.088 11.736-5.256.504-10.8-2.16-12.672-8.496.288 7.488-5.112 12.024-10.728 12.672-5.328.648-10.872-2.16-12.168-9 0 0 7.632-1.152 11.592-6.624 0 0-7.92-1.8-13.392-1.152-.216-.792-.432-1.512-.72-2.232.36-4.176 4.968-47.808 41.76-50.4m11.88 32.616h.36c9.36-13.32 10.152-24.768 8.856-32.616 36.72 2.592 41.328 46.224 41.688 50.4-.288.72-.504 1.44-.72 2.232-5.472-.648-13.392 1.152-13.392 1.152 3.96 5.472 11.592 6.624 11.592 6.624-1.296 6.84-6.84 9.648-12.168 9-5.616-.648-11.016-5.184-10.728-12.672-1.872 6.336-7.416 9-12.672 8.496-5.832-.648-11.448-4.392-11.088-11.736 0-.576 0-1.08.072-1.584 7.272.288 13.824-4.536 13.824-4.536s-2.88-3.168-13.248-3.744c0 0-.216-6.768-2.376-11.016m-117.648 28.152c.432-3.096 8.712-53.856 66.456-43.272-5.544 10.584-7.92 22.464-8.28 24.12l-.648-.648c-2.232 5.112-.792 13.968-.792 13.968-3.96.864-12.024 6.12-12.024 6.12s4.752 3.024 15.336 1.152c.144.576.216 1.152.288 1.8.36 5.184-2.736 9.792-7.344 11.592-4.896 1.944-10.656.216-13.752-4.176.504 6.408-4.464 12.384-10.872 12.816-5.472.36-10.368-2.808-11.88-7.92 7.56-4.608 9.072-11.376 9.072-11.376-9.936-1.296-13.392 2.663-13.392 2.663-4.32-5.543-8.496-7.127-12.168-6.839m232.56 0c-3.672-.288-7.848 1.296-12.168 6.84 0 0-3.456-3.96-13.392-2.663 0 0 1.512 6.768 9.072 11.376-1.512 5.112-6.408 8.28-11.88 7.92-6.408-.432-11.376-6.408-10.872-12.816-3.096 4.392-8.856 6.12-13.752 4.176-4.608-1.8-7.704-6.408-7.344-11.592.072-.648.144-1.224.288-1.8 10.584 1.872 15.336-1.152 15.336-1.152s-8.064-5.256-12.024-6.12c0 0 1.44-8.856-.792-13.968l-.648.648c-.36-1.656-2.736-13.536-8.28-24.12 57.744-10.585 66.024 40.175 66.456 43.271M306.576 679.552c111.96 0 203.256-91.368 203.256-203.328 0-111.888-91.296-203.256-203.256-203.256S103.32 364.336 103.32 476.224c0 111.96 91.296 203.328 203.256 203.328" style="fill:#c0872d"/><path d="M306.576 674.296c109.08 0 198.072-88.992 198.072-198.072s-88.992-198-198.072-198-198.072 88.92-198.072 198 88.992 198.072 198.072 198.072" style="fill:#fff"/><circle cx="306.576" cy="476.224" r="135.36" style="fill:#c0872d" transform="rotate(-45 306.576 476.224)"/><path d="M306.576 607.912c72.504 0 131.616-59.184 131.616-131.688S379.08 344.608 306.576 344.608 174.96 403.72 174.96 476.224s59.112 131.688 131.616 131.688"/><path d="M204.264 370.672c-.216-3.312 4.032-6.336 9.432-6.696 5.472-.36 10.08 1.944 10.296 5.256.144 2.304-1.8 4.392-4.824 5.616l25.2 214.344c-10.584-6.048-15.336-9.792-15.336-9.792L211.32 375.856c-3.96-.576-6.84-2.592-7.056-5.184" style="fill:#852218"/><path d="M382.824 424.312c20.52-7.776 26.64-22.104 36.648-35.856 0 0-14.832 72.504 25.416 136.296-20.736-6.192-30.744-8.136-47.592 2.088-40.176 24.336-46.512 2.088-46.512 2.088 1.44-6.264 2.808-12.384 3.744-18.792 6.048-41.112-4.032-71.64-8.424-82.512 5.76 3.528 13.104 3.096 19.512 2.016 5.4-1.008 11.376-2.736 17.208-5.328" style="fill:#2a9d50"/><path d="M372.96 386.296c-2.088 10.224-5.904 32.832-1.8 40.104q-3.024.756-5.832 1.296c-6.912 1.224-19.584 1.944-22.32-6.84-1.152-3.6.288-7.92 3.312-11.736 3.096-4.032 7.92-7.848 13.392-10.656 5.4-2.664 10.152-6.912 13.248-12.168" style="fill:#2a9d50"/><path d="M290.736 382.336c28.512-10.512 35.928-17.712 64.8-17.28 6.336.072 14.184 2.232 17.28 8.28 1.44 2.808 1.008 6.552-.72 10.296-2.664 5.688-7.704 10.368-13.32 13.104-5.688 2.952-10.728 6.912-14.04 11.16-3.672 4.824-6.408 11.592-2.016 16.92 2.304 4.824 17.568 39.312 9.36 88.344-5.472-15.552-50.328-12.024-73.08 1.008-37.512 21.384-41.688 12.456-41.688 12.456 6.912-24.408 7.56-47.736 5.256-68.112.432.144.864.288 1.008.288 21.672 6.408 60.768-12.816 60.768-12.816s2.088-13.968-2.088-32.256c-4.968-21.384-10.08-29.376-11.52-31.392" style="fill:#2a9d50"/><path d="M220.68 386.8s29.304 5.76 57.168-.576c4.392-.936 8.64-2.304 12.888-3.888 1.44 2.016 6.552 10.008 11.52 31.392 4.176 18.288 2.088 32.256 2.088 32.256s-39.096 19.224-60.768 12.816c-.144 0-.576-.144-1.008-.288-4.68-42.264-21.888-71.712-21.888-71.712" style="fill:#fff"/><path d="m155.448 485.512-32.112-.864.288-12.24c0-1.8.144-3.528.36-5.256a9.47 9.47 0 0 1 2.088-4.464c.864-.936 1.944-1.656 3.024-2.016 1.08-.432 2.16-.648 3.24-.576q2.916.108 4.536 1.512a8.06 8.06 0 0 1 2.304 2.952c.432 1.008.72 1.872.792 2.376q.324-2.268 1.296-3.456c.648-.72 1.512-1.224 2.52-1.512a38 38 0 0 1 3.744-.576c1.8-.216 3.24-.36 4.176-.432.936-.216 1.584-.288 2.016-.36q1.08-.216 1.512-.432c.288-.144.576-.36.864-.504l-.216 7.632c-.504 0-1.224.144-2.304.216-1.08.144-2.232.288-3.528.432-1.224.144-2.304.288-3.312.432-1.008.072-1.656.216-2.016.36-.936.288-1.44.792-1.656 1.44a6.7 6.7 0 0 0-.288 1.944l-.144 6.048 12.96.288zm-26.856-7.488 8.928.216.144-5.544c.072-.432 0-1.008-.072-1.656a3.77 3.77 0 0 0-.72-1.872q-.216-.432-1.08-1.08c-.648-.432-1.512-.72-2.592-.792-1.08 0-1.944.216-2.52.576s-.936.648-1.152 1.008c-.36.504-.576 1.152-.648 1.872-.144.648-.144 1.584-.216 2.664zM157.536 451.024l-31.032-7.992 5.328-20.808 5.04 1.296-3.6 14.184 7.344 1.872 3.456-13.248 5.04 1.368-3.384 13.176 8.352 2.16 3.816-14.544 5.112 1.296zM141.048 398.968l3.672-7.272 33.696 4.32-3.096 6.12-7.272-1.008-5.616 11.376 5.112 5.256-2.952 5.832zm17.496 9.648 4.104-8.208-14.184-2.16zM183.744 388.672l-24.768-20.376 4.464-5.4 20.52 16.92 8.784-10.656 4.176 3.456zM214.704 356.272l-17.28-27.072 10.368-6.624a36.4 36.4 0 0 1 4.536-2.592c1.584-.72 3.168-1.008 4.824-.792 1.368.216 2.448.648 3.456 1.368a8.5 8.5 0 0 1 2.232 2.304c1.008 1.728 1.44 3.24 1.296 4.68-.144 1.368-.504 2.52-1.152 3.528-.576.935-1.152 1.584-1.512 2.016 1.368-.72 2.592-1.008 3.6-.864.936.144 1.872.504 2.664 1.296a23 23 0 0 1 2.52 2.664c1.224 1.44 2.16 2.52 2.736 3.24.648.72 1.152 1.224 1.44 1.512.504.504.936.792 1.224 1.008l.864.432-6.408 4.032c-.36-.36-.864-.936-1.584-1.728-.648-.864-1.44-1.728-2.232-2.664s-1.512-1.8-2.232-2.592c-.648-.72-1.152-1.224-1.44-1.44-.72-.576-1.44-.72-2.088-.504a4.6 4.6 0 0 0-1.8.792l-5.112 3.312 6.984 10.872zm-8.784-26.424 4.824 7.488 4.68-2.952c.36-.216.792-.504 1.296-.936.504-.504.936-1.008 1.152-1.728.144-.288.288-.792.288-1.512.072-.72-.216-1.584-.792-2.52s-1.224-1.512-1.872-1.8a3.3 3.3 0 0 0-1.512-.36c-.576 0-1.224.144-1.872.432s-1.44.792-2.304 1.368zM242.856 305.296l7.704-2.664 21.096 26.64-6.552 2.304-4.464-5.832-12.024 4.176v7.344l-6.192 2.16zm5.76 19.152 8.64-3.024-8.64-11.448zM303.84 305.008l-6.984.504a15.5 15.5 0 0 0-.504-1.872c-.288-.864-.864-1.656-1.656-2.376s-1.944-1.008-3.456-.936c-1.656.144-3.024.792-4.032 1.944-.936 1.152-1.584 2.664-1.944 4.464s-.504 3.888-.288 6.048c0 .504.144 1.368.288 2.52.216 1.152.504 2.376 1.08 3.6.432 1.296 1.224 2.376 2.232 3.24 1.008.792 2.304 1.152 3.96 1.08 1.512-.072 2.736-.648 3.816-1.728 1.008-1.08 1.512-2.664 1.44-4.752l7.2-.576c.072.936 0 2.16-.216 3.528s-.864 2.736-2.016 4.248c-1.368 1.512-2.808 2.592-4.392 3.24-1.656.576-3.168.936-4.68 1.08q-5.508.324-8.856-1.728c-2.304-1.368-3.96-3.24-5.112-5.616a20.9 20.9 0 0 1-1.872-7.56c-.288-3.456.072-6.408 1.08-9.072a13.87 13.87 0 0 1 4.536-6.264c2.088-1.512 4.608-2.448 7.632-2.736 3.6-.216 6.48.504 8.856 2.232 2.304 1.728 3.6 4.248 3.888 7.488M313.776 325.816l2.52-32.112 6.84.576-2.52 32.04zM330.84 327.472l7.992-31.104 9.648 2.448 5.328 27.504 6.264-24.48 6.264 1.584-8.064 31.104-9.144-2.376-5.4-28.872-6.624 25.776zM405 333.52l-6.192-3.528c.144-.36.36-.792.576-1.368.144-.504.216-1.152.216-1.872-.144-1.224-.576-2.304-1.296-3.096q-1.08-1.188-2.16-1.728c-1.728-.936-3.24-1.368-4.752-1.296-1.44.072-2.736.504-3.96 1.296-1.224.72-2.232 1.656-3.168 2.736s-1.656 2.232-2.304 3.312c-.36.648-.72 1.44-1.152 2.376-.36.936-.648 1.944-.864 3.096-.144 1.08-.144 2.232.144 3.312q.324 1.728 1.512 3.24c.792 1.008 2.016 1.944 3.672 2.88 1.44.792 2.52 1.296 3.24 1.584.72.216 1.296.36 1.656.432l3.312-5.832-5.4-3.096 2.592-4.608 11.376 6.408-7.848 13.968c-1.008-.144-2.448-.504-4.176-1.08-1.872-.576-4.104-1.584-6.912-3.168-3.096-1.8-5.4-3.528-6.912-5.256-1.44-1.728-2.376-3.384-2.88-5.112-.432-1.656-.576-3.168-.432-4.752.216-1.512.504-2.952 1.008-4.32a26 26 0 0 1 1.656-3.456c1.872-3.312 4.104-5.688 6.624-7.272 2.52-1.512 5.184-2.232 8.064-2.16 2.808.072 5.688.864 8.496 2.52 1.872 1.008 3.456 2.304 4.824 3.816 1.368 1.44 2.304 3.168 2.736 5.04.288 1.584.216 2.952-.072 4.104a15.7 15.7 0 0 1-1.224 2.88M446.544 377.152l-4.464-5.4q.54-.432 1.296-1.512c.576-.72.864-1.656 1.008-2.664.144-1.08-.288-2.16-1.224-3.384q-1.62-1.944-3.888-2.16c-1.512-.144-3.096.144-4.824.864-1.656.792-3.384 1.872-5.112 3.312-.432.288-1.008.864-1.872 1.656-.864.864-1.656 1.8-2.376 2.952s-1.224 2.376-1.296 3.672c-.144 1.296.288 2.592 1.368 3.888.864 1.152 2.088 1.872 3.528 2.088 1.512.288 3.096-.216 4.824-1.512l4.608 5.616c-.792.576-1.8 1.152-3.024 1.8-1.296.576-2.808.864-4.68.72a10.8 10.8 0 0 1-5.184-1.728 15.1 15.1 0 0 1-3.528-3.168c-2.304-2.88-3.528-5.616-3.672-8.28-.216-2.664.36-5.112 1.656-7.344s3.024-4.248 5.112-5.976c2.664-2.088 5.328-3.528 7.992-4.248 2.736-.648 5.328-.648 7.776.144s4.68 2.376 6.624 4.68c2.232 2.808 3.312 5.616 3.24 8.496s-1.368 5.4-3.888 7.488M435.384 397.816l28.152-15.264 3.312 6.192-23.328 12.6 6.552 12.096-4.752 2.664zM479.952 416.464l1.728 6.696-18.864 4.896c-1.224.288-2.304.72-3.456 1.224-1.08.504-1.872 1.368-2.376 2.52-.576 1.224-.576 2.88-.072 4.968.072.432.288.936.504 1.656.288.648.72 1.368 1.296 2.088.648.648 1.44 1.224 2.448 1.584.504.216 1.224.288 2.016.288.864-.072 2.016-.288 3.528-.648l18.576-4.824 1.656 6.48-19.368 5.04c-3.024.72-5.688.648-7.776-.288-2.16-.864-3.888-2.304-5.184-4.176s-2.232-3.816-2.736-5.976q-.432-1.62-.648-3.888c-.144-1.512.072-3.096.432-4.68.432-1.584 1.296-3.096 2.52-4.536 1.008-1.008 2.088-1.8 3.24-2.304 1.224-.504 2.592-.936 4.032-1.296zM456.84 462.832l32.04-.864.288 11.952q.108.972 0 2.376c0 .864-.072 1.872-.288 2.808-.216 1.008-.504 1.944-1.008 2.736-.936 1.512-2.016 2.52-3.312 3.025s-2.448.792-3.384.792c-.648 0-1.368-.072-2.304-.288-.936-.144-1.728-.648-2.592-1.44-.144-.144-.504-.504-1.008-1.152-.504-.72-.936-1.512-1.224-2.448h-.072c-.432 2.448-1.44 4.248-2.88 5.328s-3.024 1.656-4.752 1.656c-1.872.072-3.528-.36-4.752-1.296-1.296-.864-2.304-1.944-2.952-3.168-.432-.864-.792-1.8-1.008-2.88-.144-1.08-.288-2.16-.36-3.096s-.144-1.656-.144-2.088zm27.288 5.832-8.136.216.143 4.824c0 .648.072 1.368.216 2.232q.216 1.296 1.08 2.16c.648.648 1.584.936 2.952.936 1.296 0 2.232-.36 2.808-1.008.504-.648.864-1.368.936-2.232.144-.864.144-1.728.144-2.52zm-13.104.36-8.856.216.072 4.68c.072 1.08.144 2.088.288 3.096a4.8 4.8 0 0 0 1.152 2.52c.648.648 1.656.936 3.096.936 1.512-.072 2.52-.432 3.168-1.296q.972-1.08 1.08-2.808c.144-1.152.144-2.304.072-3.384zM164.736 576.448l4.536 5.328c-.504.36-1.008.864-1.656 1.584-.576.72-.936 1.728-1.008 2.808-.072 1.152.504 2.448 1.728 3.96 1.224 1.44 2.448 2.304 3.816 2.592 1.224.288 2.448.072 3.528-.792 1.008-.864 1.368-1.872 1.152-3.024-.216-1.08-.792-2.592-1.8-4.392-1.152-2.376-2.016-4.464-2.52-6.264q-.756-2.808-.216-4.968c.36-1.512 1.224-2.808 2.592-4.032 1.368-1.08 2.88-1.8 4.608-2.088s3.456 0 5.4.792c1.872.864 3.744 2.448 5.688 4.68 1.152 1.296 2.016 2.736 2.736 4.464a8.93 8.93 0 0 1 .576 5.328c-.36 1.368-.864 2.52-1.584 3.384s-1.296 1.44-1.8 1.8l-4.176-5.04c.288-.288.648-.72 1.08-1.368s.72-1.512.72-2.448-.432-2.088-1.44-3.24c-1.08-1.224-2.16-1.944-3.384-2.232-1.152-.216-2.304.144-3.312.936-.72.648-1.152 1.296-1.224 2.088-.072.72.072 1.584.504 2.592.36 1.008.936 2.232 1.656 3.672a34 34 0 0 1 2.16 5.04c.576 1.656.792 3.24.576 4.752-.216 1.584-1.08 3.024-2.664 4.392-1.44 1.224-3.168 1.944-5.04 2.16-1.8.216-3.744-.144-5.76-1.152-2.016-.936-3.96-2.52-5.904-4.752-1.872-2.376-3.096-4.464-3.528-6.264-.504-1.872-.504-3.384-.072-4.752s1.08-2.52 1.872-3.384q1.188-1.404 2.16-2.16M211.536 593.368l6.48 4.824-10.368 32.184-5.472-4.104 2.304-6.912-10.152-7.56-5.976 4.032-5.256-3.888zm-12.672 15.336 7.344 5.544 4.68-13.536zM219.672 637.648l13.032-29.16 9 4.032.72 27.792 10.224-22.896 5.832 2.52-12.96 29.232-8.64-3.816-.504-29.304-10.8 24.264zM267.912 654.64l5.112-26.136-9.288-1.872 1.008-5.184 25.416 4.968-1.08 5.184-9.288-1.8-5.04 26.136zM300.816 626.632l8.064.144 10.584 32.112-6.912-.072-2.16-6.984-12.6-.216-2.52 6.84-6.48-.072zm-1.152 19.872 9.072.144-4.104-13.68zM330.84 657.376l-6.624-31.248 9.72-2.088 16.92 22.104-5.256-24.552 6.192-1.368 6.696 31.248-9.216 2.016-17.64-23.4 5.544 25.92zM373.464 646.072l-13.968-28.656L369 612.88c.576-.288 1.44-.648 2.592-1.152 1.08-.432 2.448-.792 3.96-1.08s3.024-.288 4.608 0q3.672.756 6.264 3.24a19.4 19.4 0 0 1 4.104 5.616c1.44 2.952 2.16 5.688 2.232 8.136s-.432 4.68-1.368 6.552c-1.008 1.944-2.304 3.456-4.032 4.68a9 9 0 0 1-1.728 1.152c-.72.432-1.8 1.008-3.24 1.656zm-5.472-27 9.36 19.224c.432-.144.792-.288 1.296-.504.432-.216.864-.432 1.224-.576 1.296-.648 2.448-1.296 3.456-2.088s1.728-1.872 2.232-3.168c.36-1.224.504-2.448.36-3.744a15.5 15.5 0 0 0-.792-3.384c-.36-1.008-.72-1.728-.936-2.232q-1.512-3.132-3.888-4.968c-1.584-1.224-3.528-1.656-5.688-1.296-.72.072-1.512.36-2.592.72a69 69 0 0 0-4.032 2.016M409.176 627.136l-19.224-25.488 17.136-12.816 3.096 4.104-11.592 8.784 4.536 6.048L414 599.56l3.168 4.176-10.872 8.208 5.184 6.912 12.024-9.072 3.168 4.248zM438.12 603.376l-24.48-20.52 7.848-9.36c1.152-1.44 2.304-2.736 3.528-3.888 1.296-1.08 2.736-1.8 4.392-2.16 1.296-.144 2.52-.072 3.6.288 1.152.36 2.088.864 2.88 1.512 1.44 1.368 2.376 2.664 2.592 4.032q.432 2.052 0 3.672c-.36 1.152-.648 1.944-.864 2.448 1.08-1.08 2.16-1.728 3.096-1.944 1.008-.144 1.944 0 2.952.432s2.088 1.08 3.24 1.8c1.584 1.08 2.736 1.8 3.6 2.304.792.432 1.368.792 1.728 1.008.648.288 1.152.432 1.512.576.288 0 .648.072.864.072l-4.824 5.832c-.432-.216-1.08-.648-2.016-1.224-.864-.576-1.8-1.152-2.88-1.872-1.08-.648-2.016-1.224-2.88-1.728a41 41 0 0 0-1.8-1.008c-.936-.288-1.656-.216-2.232.144-.576.432-1.008.864-1.368 1.368l-3.888 4.608 9.864 8.28zm-16.272-22.464 6.84 5.76 3.528-4.248c.288-.36.648-.792 1.008-1.296.36-.576.504-1.224.576-1.944.072-.288 0-.864-.216-1.584q-.216-1.08-1.512-2.16c-.792-.648-1.584-1.008-2.232-1.08-.72-.144-1.224-.072-1.584.072-.576.144-1.152.504-1.656 1.008-.504.432-1.08 1.08-1.8 1.944zM280.512 422.584l6.12 10.296c3.384-2.016 6.264-4.608 7.776-7.848l3.24 1.512c-1.8 3.888-5.184 7.056-9.144 9.432l3.888 6.552-3.816 1.656-3.672-6.264c-3.456 1.656-7.056 2.808-10.296 3.456-4.248.936-7.992 1.44-11.16 1.512l1.872 8.136-4.536 1.008-1.944-9.288c-3.024-.36-5.472-1.152-7.488-2.304-4.896-2.808-7.2-8.424-7.56-13.824-.36-4.752 1.584-8.784 5.4-11.952.576-.432 1.08-.864 1.656-1.224l-1.224-3.672-4.176-10.008 15.336-1.368 9.36-1.44c7.128-.864 13.176 4.968 14.832 11.52 3.24.504 6.408 1.368 9.288 2.736l-1.584 3.24c-2.232-1.08-4.68-1.8-7.2-2.232.144 5.256-2.232 9.144-4.968 10.368m2.592 12.168-6.336-11.016c-5.76 1.224-11.376 1.728-17.136 2.304l3.024 13.248c3.096 0 6.768-.432 11.16-1.44 2.88-.576 6.192-1.584 9.288-3.096M258.12 439l-.864-4.032-3.312-12.312-1.872-5.616c-.216.144-.36.288-.576.432-2.88 2.376-4.392 5.4-4.104 8.856.288 4.176 1.944 8.784 5.76 11.016 1.368.792 2.952 1.368 4.968 1.656m-3.24-27.72c4.464-1.944 9.504-2.808 14.256-3.168 3.672-.288 7.704-.432 11.664-.144-1.44-3.744-5.184-7.56-9.216-7.416-6.696.936-13.248 1.728-20.016 2.088zm26.712.36c-4.104-.36-8.352-.216-12.168.072-4.392.36-9.216 1.08-13.32 2.952l2.448 7.488c5.904-.432 11.52-1.08 17.352-2.232 4.248-.576 6.192-3.6 5.688-8.28"/><path d="M261.288 556.216q0-4.428.864-8.64c2.52-2.376 14.256-11.736 33.624-4.896 1.872 2.52 9.936 15.192-5.4 24.912-14.4-9.576-22.392-1.008-25.992 5.184-2.016-5.112-3.096-10.656-3.096-16.56m2.592-15.12c6.048-3.672 17.208-7.776 32.472-2.664 14.904-18.432-2.088-24.048-5.112-24.84-12.744 4.608-22.824 14.76-27.36 27.504m34.128-29.376c6.984 3.672 15.624 12.096 1.728 29.304 2.952 4.464 10.224 18.504-6.336 29.592.36 2.376 3.168 15.84 20.52 10.08 3.24-2.448 34.488-27.72 4.176-68.328a46.8 46.8 0 0 0-11.52-1.44c-2.88 0-5.76.288-8.568.792m26.856 3.024c15.912 7.056 27 22.968 27 41.472 0 14.328-6.624 27.072-16.92 35.352-10.944 2.592-16.056-4.608-17.856-8.064 5.544-4.464 33.336-29.664 7.776-68.76m3.096 81.432c-8.568-1.008-12.96-7.56-14.688-10.944-18.576 5.256-22.896-8.496-23.832-13.176-14.328-10.512-20.952 1.296-22.752 5.616 7.632 14.184 22.68 23.904 39.888 23.904a44.9 44.9 0 0 0 21.384-5.4" style="fill:#69130d"/><path d="M262.008 278.44a200 200 0 0 0-42.192 14.544c-1.728.792-3.384 0-4.176-1.656-.864-1.8-.288-4.032 1.584-4.968q20.628-9.72 43.416-14.904c30.24-6.696 61.632-6.696 91.8.072a210.7 210.7 0 0 1 43.488 14.832c1.872.936 2.448 3.168 1.584 4.968-.792 1.656-2.448 2.448-4.176 1.656-13.32-6.336-27.504-11.232-42.264-14.544-29.232-6.552-59.832-6.552-89.064 0"/><path d="M261.864 253.6c-14.904 2.952-29.232 7.344-42.84 13.104-1.728.72-3.6-.432-4.248-2.016-.648-1.728 0-3.888 1.728-4.608a228 228 0 0 1 44.064-13.464 235.6 235.6 0 0 1 92.016 0 228 228 0 0 1 44.064 13.464c1.728.72 2.376 2.88 1.728 4.608-.648 1.584-2.52 2.736-4.248 2.016-13.608-5.76-27.936-10.152-42.84-13.104a228 228 0 0 0-89.424 0"/><path d="M351.288 277.432c14.904 3.312 29.088 8.28 42.48 14.616 1.224.576 2.304 0 2.808-1.152.648-1.296.288-2.952-1.08-3.6-13.68-6.408-28.152-11.448-43.272-14.76-30.024-6.768-61.344-6.768-91.368-.072-15.048 3.384-29.52 8.424-43.2 14.832-1.368.648-1.728 2.304-1.08 3.6.504 1.152 1.584 1.728 2.808 1.152 13.392-6.336 27.576-11.304 42.408-14.616 29.376-6.624 60.12-6.624 89.496 0" style="fill:#c0872d"/><path d="M351.504 252.592c14.904 2.952 29.304 7.416 43.056 13.176 1.152.432 2.448-.432 2.88-1.512s0-2.736-1.224-3.24a231 231 0 0 0-43.848-13.392 236.2 236.2 0 0 0-91.584 0 231 231 0 0 0-43.848 13.392c-1.224.504-1.656 2.16-1.224 3.24s1.728 1.944 2.88 1.512c13.752-5.76 28.152-10.224 43.056-13.176a230.1 230.1 0 0 1 89.856 0" style="fill:#c0872d"/><path d="M297.864 253.456h17.424c3.672 0 6.552 2.088 6.552 4.608 0 2.592-2.88 4.68-6.552 4.68h-17.424c-3.672 0-6.552-2.088-6.552-4.68 0-2.52 2.88-4.608 6.552-4.608" style="fill:#ef4634"/><path d="M253.08 259.504c5.76-1.08 11.448-2.232 17.208-3.384 3.6-.648 6.84.792 7.344 3.312s-2.016 5.112-5.544 5.76c-5.76 1.152-11.52 2.304-17.208 3.384-3.6.72-6.84-.792-7.344-3.24-.504-2.52 2.016-5.112 5.544-5.832" style="fill:#2a9d50"/><path d="M210.312 274.048c5.4-2.16 10.872-4.392 16.272-6.624 3.312-1.368 6.84-.504 7.776 1.8 1.008 2.376-.936 5.4-4.32 6.768-5.4 2.232-10.8 4.464-16.2 6.624-3.384 1.368-6.912.576-7.848-1.8s1.008-5.4 4.32-6.768" style="fill:#ef4634"/><path d="M360.072 259.504c-5.76-1.08-11.448-2.232-17.208-3.384-3.6-.648-6.84.792-7.344 3.312s2.016 5.112 5.544 5.76c5.76 1.152 11.52 2.304 17.208 3.384 3.6.72 6.84-.792 7.344-3.24.504-2.52-2.016-5.112-5.544-5.832" style="fill:#2a9d50"/><path d="M402.84 274.048c-5.4-2.16-10.872-4.392-16.272-6.624-3.312-1.368-6.84-.504-7.776 1.8-1.008 2.376.936 5.4 4.32 6.768 5.4 2.232 10.8 4.464 16.2 6.624 3.384 1.368 6.912.576 7.848-1.8s-1.008-5.4-4.32-6.768" style="fill:#ef4634"/><path d="M301.752 215.584c0-1.368.576-2.52 1.44-3.456.864-.864 2.088-1.368 3.384-1.368s2.52.504 3.384 1.368c.864.936 1.44 2.088 1.44 3.456a4.9 4.9 0 0 1-1.44 3.456c-.864.864-2.088 1.368-3.384 1.368s-2.52-.504-3.384-1.368a4.9 4.9 0 0 1-1.44-3.456"/><path d="M302.76 215.584c0 1.08.432 2.016 1.152 2.736.648.648 1.656 1.08 2.664 1.08s1.944-.432 2.664-1.08c.72-.72 1.152-1.656 1.152-2.736s-.432-2.016-1.152-2.664c-.72-.72-1.656-1.152-2.664-1.152s-2.016.432-2.664 1.152c-.72.648-1.152 1.584-1.152 2.664" style="fill:#ef4634"/><path d="M190.44 245.392c-.36-4.32 4.752-6.768 7.992-3.96 2.016 1.728 2.232 4.824.432 6.84a4.724 4.724 0 0 1-6.768.432 4.63 4.63 0 0 1-1.656-3.312M248.472 221.992c1.728-2.016 4.824-2.232 6.84-.504 2.016 1.8 2.232 4.824.432 6.84-1.728 2.016-4.824 2.232-6.84.504-2.016-1.8-2.232-4.824-.432-6.84"/><path d="M249.624 228.04c1.584 1.368 3.96 1.224 5.4-.36 1.368-1.584 1.152-4.032-.432-5.4s-3.96-1.224-5.328.36c-1.44 1.584-1.224 4.032.36 5.4" style="fill:#2a9d50"/><path d="M191.448 245.32a3.93 3.93 0 0 0 1.296 2.664c1.584 1.368 4.032 1.152 5.4-.432s1.152-3.96-.432-5.4c-2.52-2.16-6.48-.216-6.264 3.168" style="fill:#ef4634"/><path d="M200.664 195.64c2.736 0 4.896-2.232 4.896-4.896s-2.16-4.824-4.896-4.824a4.824 4.824 0 0 0-4.824 4.824c0 2.664 2.16 4.896 4.824 4.896"/><path d="M200.664 194.56c2.16 0 3.816-1.728 3.816-3.816s-1.656-3.816-3.816-3.816c-2.088 0-3.816 1.728-3.816 3.816s1.728 3.816 3.816 3.816" style="fill:#fff"/><path d="M179.136 234.088a4.824 4.824 0 0 0 4.824-4.824c0-2.664-2.16-4.896-4.824-4.896-2.736 0-4.896 2.232-4.896 4.896s2.16 4.824 4.896 4.824"/><path d="M179.136 233.08c2.088 0 3.816-1.728 3.816-3.816s-1.728-3.816-3.816-3.816a3.795 3.795 0 0 0-3.816 3.816 3.795 3.795 0 0 0 3.816 3.816" style="fill:#fff"/><path d="M181.296 224.296a4.824 4.824 0 0 0 4.824-4.824c0-2.664-2.16-4.896-4.824-4.896s-4.824 2.232-4.824 4.896a4.824 4.824 0 0 0 4.824 4.824"/><path d="M181.296 223.288c2.088 0 3.816-1.728 3.816-3.816a3.795 3.795 0 0 0-3.816-3.816 3.795 3.795 0 0 0-3.816 3.816c0 2.088 1.728 3.816 3.816 3.816" style="fill:#fff"/><path d="M185.832 214c2.664 0 4.824-2.232 4.824-4.896a4.824 4.824 0 0 0-4.824-4.824c-2.736 0-4.896 2.16-4.896 4.824s2.16 4.896 4.896 4.896"/><circle cx="185.832" cy="209.104" r="3.816" style="fill:#fff"/><path d="M191.592 203.56a4.824 4.824 0 0 0 4.824-4.824c0-2.663-2.16-4.896-4.824-4.896s-4.896 2.232-4.896 4.896 2.232 4.824 4.896 4.824"/><path d="M191.592 202.552c2.088 0 3.816-1.728 3.816-3.816s-1.728-3.816-3.816-3.816a3.795 3.795 0 0 0-3.816 3.816 3.795 3.795 0 0 0 3.816 3.816" style="fill:#fff"/><path d="M210.456 188.296a4.824 4.824 0 0 0 4.824-4.824c0-2.736-2.16-4.896-4.824-4.896s-4.896 2.16-4.896 4.896c0 2.664 2.232 4.824 4.896 4.824"/><path d="M210.456 187.288c2.088 0 3.816-1.728 3.816-3.816a3.795 3.795 0 0 0-3.816-3.816c-2.16 0-3.816 1.656-3.816 3.816a3.795 3.795 0 0 0 3.816 3.816" style="fill:#fff"/><path d="M221.688 183.184c2.664 0 4.896-2.16 4.896-4.896 0-2.664-2.232-4.824-4.896-4.824a4.824 4.824 0 0 0-4.824 4.824c0 2.736 2.16 4.896 4.824 4.896"/><circle cx="221.688" cy="178.288" r="3.816" style="fill:#fff"/><path d="M233.712 181.528c2.664 0 4.896-2.16 4.896-4.824s-2.232-4.896-4.896-4.896-4.824 2.232-4.824 4.896a4.824 4.824 0 0 0 4.824 4.824"/><circle cx="233.712" cy="176.704" r="3.816" style="fill:#fff"/><path d="M245.808 181.456c2.664 0 4.896-2.16 4.896-4.824s-2.232-4.824-4.896-4.824a4.824 4.824 0 0 0 0 9.648"/><path d="M245.808 180.448c2.088 0 3.816-1.728 3.816-3.816s-1.728-3.816-3.816-3.816-3.816 1.728-3.816 3.816 1.728 3.816 3.816 3.816" style="fill:#fff"/><path d="M256.752 182.392c2.664 0 4.824-2.232 4.824-4.896s-2.16-4.824-4.824-4.824c-2.736 0-4.896 2.16-4.896 4.824s2.16 4.896 4.896 4.896"/><path d="M256.752 181.312c2.088 0 3.816-1.728 3.816-3.816s-1.728-3.816-3.816-3.816c-2.16 0-3.816 1.728-3.816 3.816s1.656 3.816 3.816 3.816" style="fill:#fff"/><path d="M263.88 175.84a4.824 4.824 0 0 0 4.824-4.824c0-2.664-2.16-4.896-4.824-4.896s-4.824 2.232-4.824 4.896a4.824 4.824 0 0 0 4.824 4.824"/><path d="M263.88 174.832c2.088 0 3.816-1.728 3.816-3.816s-1.728-3.816-3.816-3.816-3.816 1.728-3.816 3.816 1.728 3.816 3.816 3.816" style="fill:#fff"/><path d="M248.328 196.504a4.824 4.824 0 0 0 4.824-4.824c0-2.664-2.16-4.896-4.824-4.896s-4.896 2.232-4.896 4.896 2.232 4.824 4.896 4.824"/><circle cx="248.328" cy="191.68" r="3.816" style="fill:#fff"/><path d="M244.152 206.728c2.664 0 4.896-2.16 4.896-4.824s-2.232-4.824-4.896-4.824a4.824 4.824 0 0 0 0 9.648"/><path d="M244.152 205.72a3.795 3.795 0 0 0 3.816-3.816 3.795 3.795 0 0 0-3.816-3.816c-2.088 0-3.816 1.728-3.816 3.816s1.728 3.816 3.816 3.816" style="fill:#fff"/><path d="M273.816 169.576c2.664 0 4.896-2.232 4.896-4.896s-2.232-4.824-4.896-4.824a4.824 4.824 0 0 0-4.824 4.824c0 2.664 2.16 4.896 4.824 4.896"/><path d="M273.816 168.496c2.16 0 3.816-1.656 3.816-3.816a3.795 3.795 0 0 0-3.816-3.816c-2.088 0-3.816 1.728-3.816 3.816a3.795 3.795 0 0 0 3.816 3.816" style="fill:#fff"/><path d="M287.568 164.968a4.824 4.824 0 1 0 0-9.649 4.824 4.824 0 0 0 0 9.649"/><path d="M287.568 163.96c2.088 0 3.816-1.728 3.816-3.816s-1.728-3.816-3.816-3.816-3.816 1.728-3.816 3.816 1.728 3.816 3.816 3.816" style="fill:#fff"/><path d="M306.576 166.48c2.664 0 4.824-2.232 4.824-4.896a4.824 4.824 0 0 0-9.648 0c0 2.664 2.16 4.896 4.824 4.896"/><path d="M306.576 165.4c2.088 0 3.816-1.728 3.816-3.816s-1.728-3.816-3.816-3.816-3.816 1.728-3.816 3.816 1.728 3.816 3.816 3.816" style="fill:#fff"/><path d="M306.576 179.368c2.664 0 4.824-2.232 4.824-4.896a4.824 4.824 0 0 0-9.648 0c0 2.664 2.16 4.896 4.824 4.896"/><path d="M306.576 178.288c2.088 0 3.816-1.728 3.816-3.816s-1.728-3.816-3.816-3.816-3.816 1.728-3.816 3.816 1.728 3.816 3.816 3.816" style="fill:#fff"/><path d="M306.576 192.616a4.824 4.824 0 0 0 4.824-4.824c0-2.664-2.16-4.896-4.824-4.896s-4.824 2.232-4.824 4.896a4.824 4.824 0 0 0 4.824 4.824"/><path d="M306.576 191.608c2.088 0 3.816-1.728 3.816-3.816a3.795 3.795 0 0 0-3.816-3.816 3.795 3.795 0 0 0-3.816 3.816c0 2.088 1.728 3.816 3.816 3.816" style="fill:#fff"/><path d="M422.712 245.392c.36-4.32-4.752-6.768-7.992-3.96-2.016 1.728-2.232 4.824-.504 6.84 1.8 2.016 4.824 2.232 6.84.432a4.63 4.63 0 0 0 1.656-3.312M364.68 221.992c-1.728-2.016-4.824-2.232-6.84-.504-2.016 1.8-2.232 4.824-.432 6.84 1.727 2.016 4.824 2.232 6.84.504 2.016-1.8 2.232-4.824.432-6.84"/><path d="M363.528 228.04c-1.584 1.368-3.96 1.224-5.4-.36-1.368-1.584-1.152-4.032.432-5.4s3.96-1.224 5.328.36c1.44 1.584 1.224 4.032-.36 5.4" style="fill:#2a9d50"/><path d="M421.704 245.32a3.93 3.93 0 0 1-1.296 2.664c-1.584 1.368-4.032 1.152-5.4-.432s-1.152-3.96.432-5.4c2.52-2.16 6.48-.216 6.264 3.168" style="fill:#ef4634"/><path d="M412.488 195.64c2.664 0 4.824-2.232 4.824-4.896a4.824 4.824 0 0 0-4.824-4.824c-2.736 0-4.896 2.16-4.896 4.824s2.16 4.896 4.896 4.896"/><path d="M412.488 194.56c2.088 0 3.816-1.728 3.816-3.816s-1.728-3.816-3.816-3.816c-2.16 0-3.816 1.728-3.816 3.816s1.656 3.816 3.816 3.816" style="fill:#fff"/><path d="M434.016 234.088c2.736 0 4.896-2.16 4.896-4.824s-2.16-4.896-4.896-4.896c-2.664 0-4.824 2.232-4.824 4.896a4.824 4.824 0 0 0 4.824 4.824"/><path d="M434.016 233.08a3.795 3.795 0 0 0 3.816-3.816 3.795 3.795 0 0 0-3.816-3.816c-2.088 0-3.816 1.728-3.816 3.816s1.728 3.816 3.816 3.816" style="fill:#fff"/><path d="M431.856 224.296a4.824 4.824 0 0 0 4.824-4.824c0-2.664-2.16-4.896-4.824-4.896s-4.824 2.232-4.824 4.896a4.824 4.824 0 0 0 4.824 4.824"/><path d="M431.856 223.288c2.088 0 3.816-1.728 3.816-3.816a3.795 3.795 0 0 0-3.816-3.816 3.795 3.795 0 0 0-3.816 3.816c0 2.088 1.728 3.816 3.816 3.816" style="fill:#fff"/><path d="M427.32 214c2.736 0 4.896-2.232 4.896-4.896s-2.16-4.824-4.896-4.824a4.824 4.824 0 0 0-4.824 4.824c0 2.664 2.16 4.896 4.824 4.896"/><circle cx="427.32" cy="209.104" r="3.816" style="fill:#fff"/><path d="M421.56 203.56c2.664 0 4.896-2.16 4.896-4.824s-2.232-4.896-4.896-4.896-4.824 2.232-4.824 4.896a4.824 4.824 0 0 0 4.824 4.824"/><path d="M421.56 202.552a3.795 3.795 0 0 0 3.816-3.816 3.795 3.795 0 0 0-3.816-3.816c-2.088 0-3.816 1.728-3.816 3.816s1.728 3.816 3.816 3.816" style="fill:#fff"/><path d="M402.696 188.296c2.664 0 4.896-2.16 4.896-4.824 0-2.736-2.232-4.896-4.896-4.896s-4.824 2.16-4.824 4.896a4.824 4.824 0 0 0 4.824 4.824"/><path d="M402.696 187.288a3.795 3.795 0 0 0 3.816-3.816c0-2.16-1.656-3.816-3.816-3.816a3.795 3.795 0 0 0-3.816 3.816c0 2.088 1.728 3.816 3.816 3.816" style="fill:#fff"/><path d="M391.464 183.184c2.664 0 4.824-2.16 4.824-4.896a4.824 4.824 0 0 0-4.824-4.824c-2.664 0-4.896 2.16-4.896 4.824 0 2.736 2.232 4.896 4.896 4.896"/><path d="M391.464 182.104a3.795 3.795 0 0 0 3.816-3.816c0-2.088-1.728-3.816-3.816-3.816a3.795 3.795 0 0 0-3.816 3.816c0 2.16 1.656 3.816 3.816 3.816" style="fill:#fff"/><path d="M379.44 181.528a4.824 4.824 0 0 0 4.824-4.824c0-2.664-2.16-4.896-4.824-4.896s-4.896 2.232-4.896 4.896 2.232 4.824 4.896 4.824"/><path d="M379.44 180.52c2.088 0 3.816-1.728 3.816-3.816s-1.728-3.816-3.816-3.816-3.816 1.728-3.816 3.816 1.728 3.816 3.816 3.816" style="fill:#fff"/><path d="M367.344 181.456a4.824 4.824 0 0 0 0-9.648c-2.664 0-4.896 2.16-4.896 4.824s2.232 4.824 4.896 4.824"/><path d="M367.344 180.448c2.088 0 3.816-1.728 3.816-3.816s-1.728-3.816-3.816-3.816-3.816 1.728-3.816 3.816 1.728 3.816 3.816 3.816" style="fill:#fff"/><path d="M356.4 182.392c2.736 0 4.896-2.232 4.896-4.896s-2.16-4.824-4.896-4.824c-2.664 0-4.824 2.16-4.824 4.824s2.16 4.896 4.824 4.896"/><circle cx="356.4" cy="177.496" r="3.816" style="fill:#fff"/><path d="M349.272 175.84a4.824 4.824 0 0 0 4.824-4.824c0-2.664-2.16-4.896-4.824-4.896s-4.824 2.232-4.824 4.896a4.824 4.824 0 0 0 4.824 4.824"/><path d="M349.272 174.832c2.088 0 3.816-1.728 3.816-3.816s-1.728-3.816-3.816-3.816-3.816 1.728-3.816 3.816 1.728 3.816 3.816 3.816" style="fill:#fff"/><path d="M364.824 196.504c2.664 0 4.896-2.16 4.896-4.824s-2.232-4.896-4.896-4.896S360 189.016 360 191.68a4.824 4.824 0 0 0 4.824 4.824"/><path d="M364.824 195.496c2.088 0 3.816-1.728 3.816-3.816s-1.728-3.816-3.816-3.816-3.816 1.727-3.816 3.816 1.728 3.816 3.816 3.816" style="fill:#fff"/><path d="M369 206.728a4.824 4.824 0 0 0 0-9.648c-2.664 0-4.896 2.16-4.896 4.824s2.232 4.824 4.896 4.824"/><path d="M369 205.72c2.088 0 3.816-1.728 3.816-3.816s-1.728-3.816-3.816-3.816a3.795 3.795 0 0 0-3.816 3.816A3.795 3.795 0 0 0 369 205.72" style="fill:#fff"/><path d="M339.336 169.576c2.664 0 4.824-2.232 4.824-4.896a4.824 4.824 0 0 0-4.824-4.824c-2.664 0-4.896 2.16-4.896 4.824s2.232 4.896 4.896 4.896"/><path d="M339.336 168.496a3.795 3.795 0 0 0 3.816-3.816c0-2.088-1.728-3.816-3.816-3.816a3.795 3.795 0 0 0-3.816 3.816c0 2.16 1.656 3.816 3.816 3.816" style="fill:#fff"/><path d="M325.584 164.968a4.824 4.824 0 1 0 0-9.649 4.824 4.824 0 0 0 0 9.649"/><path d="M325.584 163.96c2.088 0 3.816-1.728 3.816-3.816s-1.728-3.816-3.816-3.816-3.816 1.728-3.816 3.816 1.728 3.816 3.816 3.816" style="fill:#fff"/></svg>