<svg xmlns="http://www.w3.org/2000/svg" xml:space="preserve" viewBox="0 0 612 792"><path d="M181.624 278.115v326.95c0 13.391 2.885 24.035 10.193 32.924 15.112 18.38 61.284 41.4 115.683 41.4s100.57-23.021 115.684-41.4c7.308-8.889 10.192-19.533 10.192-32.924v-326.95z" style="fill:#d1ad53"/><path d="M195.888 292.38h223.224v37.725H195.888z" style="fill:#284e96"/><path d="M412.165 628.93c-5.038 6.128-17.499 15.492-37.366 23.4-14.667 5.837-38.248 12.796-67.299 12.796-29.05 0-52.632-6.959-67.299-12.796-19.866-7.907-32.328-17.271-37.366-23.398-4.804-5.845-6.947-13.204-6.947-23.865V344.369h223.224v260.696c0 10.662-2.142 18.021-6.947 23.865" style="fill:#fff"/><path d="M382.574 358.633v132.883c0 12.698-2.693 22.43-8.447 30.068-10.744 14.264-40.101 26.612-66.627 26.612s-55.883-12.349-66.627-26.612c-5.753-7.639-8.447-17.37-8.447-30.068V358.633z" style="fill:#d1ad53"/><path d="M368.31 372.896H246.689v118.619c0 9.607 1.772 16.436 5.577 21.486 7.457 9.899 31.975 20.931 55.234 20.931s47.776-11.031 55.233-20.931c3.805-5.052 5.577-11.879 5.577-21.486z" style="fill:#284e96"/><path d="m318.157 451.551 38.821 2.553v-20.521l-38.82 2.553a13.2 13.2 0 0 0-2.946-2.947l2.549-52.157H297.24l2.55 52.157a13.2 13.2 0 0 0-2.947 2.947l-38.82-2.553v20.521l38.821-2.553a13.2 13.2 0 0 0 3.345 3.237l-2.948 69.385h20.521l-2.947-69.385a13.3 13.3 0 0 0 3.342-3.237" style="fill:#d1ad53"/><path d="M262.13 606.661c.002-25.058 20.314-45.369 45.37-45.37 25.058.001 45.368 20.313 45.37 45.37-.002 25.058-20.313 45.368-45.37 45.369-25.056-.001-45.368-20.311-45.37-45.369" style="fill:#284e96"/><path d="M302.274 635.271c-9.345-5.436-15.086-13.616-17.646-17.909-4.085 3.354-8.036 7.962-11.306 14.324a43 43 0 0 0 4.222 4.933c7.671 7.668 18.254 12.407 29.957 12.408a42.17 42.17 0 0 0 25.665-8.665 55 55 0 0 1-8.424.666c-6.684 0-14.722-1.286-22.468-5.757M291.998 606.553c6.612-2.857 12.404-3.543 15.402-3.699.087-.223.174-.437.262-.674a41 41 0 0 0 2.544-14.152 40 40 0 0 0-.019-1.091c-4.277.015-13.767.754-22.129 5.604-15.138 8.646-19.17 26.174-19.52 28.141l-.031.163-.289 1.686a42 42 0 0 0 1.8 3.877c6.273-10.725 14.622-16.687 21.98-19.855" style="fill:#fff"/><path d="M310.846 608.479a41 41 0 0 0 5.311 5.495 41 41 0 0 0 7.085 4.871 50 50 0 0 0 2.48-5.015c1.881-4.38 3.731-10.419 3.728-16.946.003-8.741-3.212-16.123-6.69-21.541-3.472-5.408-7.186-8.797-7.919-9.436l-.126-.107h.001l-1.307-1.087a43 43 0 0 0-4.257-.378c4.858 8.538 6.505 16.717 6.498 23.692-.014 9.772-3.119 17.154-4.804 20.452M285.337 587.828c9.375-5.392 19.336-6.242 24.328-6.328-.862-5.217-2.866-10.94-6.749-16.955-9.869 1.063-18.717 5.505-25.373 12.157-7.671 7.672-12.409 18.255-12.409 29.959 0 1.818.128 3.606.35 5.365.5-1.294 1.091-2.69 1.802-4.159 3.196-6.61 8.721-14.647 18.051-20.039" style="fill:#fff"/><path d="M312.611 618.104c-4.284-3.681-6.981-7.332-8.358-9.455a41 41 0 0 0-10.094 2.9 41 41 0 0 0-5.081 2.649 50 50 0 0 0 3.102 4.656c2.853 3.818 7.158 8.443 12.814 11.703 6.708 3.873 13.746 5.027 19.747 5.027 7.379.005 13.123-1.766 14.315-2.17l.225-.077 1.583-.583a42 42 0 0 0 2.47-3.501c-14.179-.075-24.298-5.614-30.723-11.149M334.892 596.884c-.035 10.803-4.243 19.86-6.682 24.226 4.341 1.632 9.452 2.703 15.459 2.708.847 0 1.718-.027 2.602-.07a42.2 42.2 0 0 0 3.597-17.086c0-11.704-4.739-22.287-12.408-29.959a42.5 42.5 0 0 0-13.619-9.139 56 56 0 0 1 2.724 3.666c4.125 6.074 8.323 14.877 8.327 25.654" style="fill:#fff"/><path d="M226.474 256.031h162.052v16.517H226.474zM238.308 139.509c7.256 0 14.181 1.77 20.369 4.881 6.191-3.108 13.117-4.881 20.374-4.881 10.619 0 20.525 3.794 28.45 10.035 7.924-6.241 17.831-10.035 28.45-10.035 7.256 0 14.182 1.772 20.373 4.881 6.189-3.11 13.113-4.881 20.368-4.881 25.2 0 46.473 21.283 46.473 46.22 0 17.129-6.508 25.549-12.216 33.501l-22.423 31.233H226.474l-22.422-31.233c-5.709-7.952-12.216-16.372-12.216-33.501 0-24.937 21.273-46.22 46.472-46.22" style="fill:#d1ad53"/><path d="m215.955 221.244 15.073 20.997h152.944l15.073-20.997c7.403-10.313 12.217-17.017 12.217-29.659 0-18.55-15.824-34.382-34.57-34.382-1.454 0-2.888.106-4.3.292 6.248 7.889 10.03 17.733 10.03 28.233 0 3.29-.38 6.513-1.08 9.635h-11.049c.145-1.244.227-2.504.227-3.778 0-18.55-15.824-34.382-34.569-34.382-7.718 0-14.934 2.692-20.76 7.145v31.015h-15.38v-31.015c-5.827-4.453-13.042-7.145-20.76-7.145-18.746 0-34.57 15.832-34.57 34.382 0 1.274.082 2.534.227 3.778h-11.049a44 44 0 0 1-1.081-9.635c0-10.5 3.782-20.345 10.031-28.233a33 33 0 0 0-4.3-.292c-18.745 0-34.569 15.832-34.569 34.382-.001 12.643 4.812 19.347 12.215 29.659" style="fill:#c72127"/><path d="M319.096 140.387a11.84 11.84 0 0 0-8.593-9.144v-6.029h5.818v-6.007h-5.818v-5.817h-6.006v5.817h-5.818v6.007h5.818v6.029a11.83 11.83 0 0 0-8.593 9.144 49.6 49.6 0 0 1 11.596 6.328 49.5 49.5 0 0 1 11.596-6.328M319.073 215.303c-.662 0-1.309.068-1.936.187.559-1.285.873-2.7.873-4.19 0-5.805-4.705-10.511-10.511-10.511-5.804 0-10.509 4.706-10.509 10.511 0 1.49.314 2.905.873 4.19a10.5 10.5 0 0 0-1.937-.187c-5.804 0-10.51 4.706-10.51 10.511s4.706 10.511 10.51 10.511c4.809 0 8.854-3.233 10.104-7.641.479.081.969.133 1.47.133a8.7 8.7 0 0 0 1.471-.134c1.25 4.408 5.295 7.642 10.103 7.642 5.806 0 10.511-4.706 10.511-10.511s-4.706-10.511-10.512-10.511M373.628 215.303c-.663 0-1.309.068-1.937.187.559-1.285.873-2.7.873-4.19 0-5.805-4.706-10.511-10.511-10.511s-10.51 4.706-10.51 10.511c0 1.49.314 2.905.873 4.19a10.5 10.5 0 0 0-1.936-.187c-5.805 0-10.51 4.706-10.51 10.511s4.705 10.511 10.51 10.511c4.809 0 8.854-3.233 10.104-7.641.479.081.968.133 1.47.133s.991-.052 1.471-.134c1.25 4.408 5.295 7.642 10.104 7.642 5.805 0 10.511-4.706 10.511-10.511s-4.707-10.511-10.512-10.511M241.372 215.303c.663 0 1.309.068 1.937.187a10.5 10.5 0 0 1-.873-4.19c0-5.805 4.705-10.511 10.51-10.511s10.51 4.706 10.51 10.511c0 1.49-.314 2.905-.873 4.19a10.5 10.5 0 0 1 1.936-.187c5.805 0 10.51 4.706 10.51 10.511s-4.705 10.511-10.51 10.511c-4.809 0-8.854-3.233-10.104-7.641-.48.081-.968.133-1.47.133a8.7 8.7 0 0 1-1.471-.134c-1.25 4.408-5.295 7.642-10.104 7.642-5.805 0-10.511-4.706-10.511-10.511s4.708-10.511 10.513-10.511" style="fill:#d1ad53"/><path d="M317.001 311.241c.003-8.863 7.184-16.044 16.049-16.047 8.863.003 16.044 7.184 16.047 16.047-.003 8.865-7.184 16.045-16.047 16.048-8.865-.003-16.046-7.183-16.049-16.048m7.133 0a8.93 8.93 0 0 0 8.916 8.915 8.93 8.93 0 0 0 8.914-8.915 8.93 8.93 0 0 0-8.914-8.915 8.93 8.93 0 0 0-8.916 8.915M283.31 314.343c4.177-1.1 7.258-4.887 7.259-9.408a9.74 9.74 0 0 0-9.74-9.741H269.47a3.6 3.6 0 0 0-2.522 1.046 3.58 3.58 0 0 0-1.044 2.522v24.962a3.567 3.567 0 1 0 7.133 0v-9.048h1.203l9.633 11.355a3.56 3.56 0 0 0 5.026.412 3.565 3.565 0 0 0 .413-5.027zm-2.481-12.016a2.61 2.61 0 0 1 2.608 2.607 2.61 2.61 0 0 1-2.608 2.607h-7.793v-5.214z" style="fill:#fff"/></svg>