<svg height="1000" viewBox="0 0 1000 1000" width="1000" xmlns="http://www.w3.org/2000/svg"><g transform="matrix(5.0666666 0 0 -5.0666666 -23.486912 1657.0802)"><g transform="matrix(.29902525 0 0 .29902525 14.925967 94.365985)"><path d="m 502.47461 268.71045 c 66.5332 93.72754 66.979 199.34082 67.44531 299.47705 v 106.64746 h -88.375 v 27.90723 c .33252 19.9331 -2.32568 29.23706 -27.30859 36.47802 c -48.50293 14.0586 -102.09522 22.43824 -158.62891 22.43824 h -.002 c -56.53369 0 -110.12598 -8.37964 -158.62891 -22.43824 c -24.98291 -7.24096 -27.64111 -16.54492 -27.30859 -36.47802 V 674.83496 H 21.29316 V 568.1875 C 21.75903 468.05127 22.20557 362.43799 88.73828 268.71045 C 161.56396 166.11572 295.60889 134.62109 295.60889 134.62109 c 0 0 134.03955 31.49463 206.86572 134.08936 z" fill="#111840"/><path d="m 355.75879 655.0769 c 0 -33.21557 -26.93018 -60.14379 -60.1499 -60.14379 c -33.22022 0 -60.146 26.92822 -60.146 60.14379 c 0 33.22071 26.92578 60.14991 60.146 60.14991 c 33.21972 0 60.1499 -26.9292 60.1499 -60.14991 M 295.60742 553.25098 c 34.77588 0 61.69483 3.28466 99.20215 9.34814 c 18.88916 3.05274 32.80322 6.02783 47.00244 10.19385 c 10.60156 3.11084 11.16065 4.19922 11.16065 15.07959 v 111.21533 c 0 9.88403 -1.41162 11.12988 -10.2583 13.74634 c -12.02881 3.55713 -25.40918 6.70361 -40.71973 9.76269 c -34.8418 6.95996 -70.63672 10.48951 -106.38721 10.48951 h -.002 c -35.75049 0 -71.54541 -3.52955 -106.38721 -10.48951 c -15.31055 -3.05908 -28.69092 -6.20556 -40.71972 -9.76269 c -8.84668 -2.61646 -10.25831 -3.86231 -10.25831 -13.74634 V 587.87256 c 0 -10.88037 .55909 -11.96875 11.16065 -15.07959 c 14.19922 -4.16602 28.11279 -7.14111 47.00244 -10.19385 c 37.50732 -6.06348 64.42627 -9.34814 99.20215 -9.34814 z" fill="#fee813"/><path d="m 476.22949 669.51929 c 0 0 78.9834 0 88.37451 0 c 0 -9.59815 -.001 -101.51099 -.001 -101.51099 C 564.13718 467.75 563.65378 364.08008 498.1406 271.78711 v 0 C 430.86865 177.01855 308.68408 143.4624 295.60889 140.10303 c -13.07471 3.3584 -135.2666 36.91552 -202.53614 131.68408 c -65.51489 92.29492 -65.99658 195.96777 -66.4624 296.22705 c 0 0 -.0012 91.90698 -.0012 101.50513 c 9.39063 0 88.37427 0 88.37427 0 c 0 0 -.0288 36.03613 -.0288 36.38305 c 0 16.10669 2.77734 22.20557 23.50195 28.21265 c 50.88672 14.74927 103.75977 22.22778 157.14893 22.22778 h .002 c 53.38916 0 106.26221 -7.47851 157.14893 -22.22778 c 20.72461 -6.00708 23.50195 -12.10596 23.50195 -28.21265 c 0 -.34423 -.0288 -36.38305 -.0288 -36.38305 M 125.68115 658.88745 c -48.66162 0 -83.02221 0 -88.44043 0 c 0 -23.06372 .0012 -90.82349 .0012 -90.82349 c .45826 -98.60693 .93164 -200.56982 64.50025 -290.12255 c 61.83496 -87.11084 172.4209 -120.9585 193.8667 -126.83838 h -.005 c 21.4458 5.87988 132.03174 39.72754 193.8667 126.83838 c 63.56885 89.55273 64.04248 191.51562 64.50049 290.12255 c 0 0 .00098 67.75977 .00098 90.82349 c -5.41406 0 -39.72363 0 -88.32617 0 l -.0483 .81055 v 41.38403 c 0 7.09497 -.11133 12.18115 -2.76905 15.72534 c -2.75 3.66773 -7.35107 5.38135 -13.03125 7.09571 c -14.8999 4.4956 -30.06982 8.02563 -45.32959 11.07421 c -35.70605 7.13257 -72.15673 10.73389 -108.86035 10.73389 h -.002 c -36.70361 0 -73.1543 -3.60132 -108.86035 -10.73389 c -15.25977 -3.04858 -30.42969 -6.57861 -45.32959 -11.07421 c -5.68018 -1.71436 -10.28125 -3.42798 -13.03125 -7.09571 c -2.65772 -3.54419 -2.76953 -8.63037 -2.76953 -15.72534 V 659.698 l .0664 -.81055 z" fill="#fee813"/><path d="m 86.65771 329.45703 v 316.12256 l .01319 .68359 c -21.25757 0 -34.7334 0 -36.80493 0 c 0 -22.07031 .00049 -78.1416 .00049 -78.1416 c .3767 -80.89892 .76342 -164.104 36.80981 -239.68506 z" fill="#fee813"/><path d="m 504.9585 329.32227 c 35.62841 75.34619 36.01367 158.21728 36.38818 238.79931 c 0 0 .00098 56.07129 .00098 78.1416 c -2.04639 0 -15.22852 0 -36.04883 0 l -.74365 -.02 V 328.46047 l .40332 .86182 z" fill="#fee813"/><path d="m 222.03174 194.01563 v 89.17675 l -.0239 .60303 c -14.15039 10.26172 -28.42968 22.68945 -40.56396 37.33398 v 0 l -.60889 .68653 V 219.4043 l -.0391 -.66211 c -18.29102 12.7041 -36.36279 27.89892 -52.36279 45.91894 l -.57862 .5918 v 159.97021 l -.009 1.14014 c -6.98193 27.26514 -7.20703 46.16895 -7.21289 47.74561 l -.0562 16.0039 h 6.69971 l .57861 .062 v 62.04688 l -.063 .75635 c -11.08545 5.9165 -12.83691 14.29345 -12.83691 27.07861 c 0 .51904 0 33.1875 0 65.1062 l .0566 1.10034 c 3.28565 0 6.66504 0 10.13379 0 l .4707 -.0205 v -61.36524 c 0 -7.09521 .11084 -12.18164 2.76856 -15.72607 c 2.75097 -3.66699 8.49414 -5.78369 14.17529 -7.49756 c 11.62207 -3.50635 23.30566 -6.39453 38.29102 -9.17725 l -.0156 -.75488 v -60.88135 l .0156 -.72754 h 40.44873 l .73242 -.0195 v 54.98535 l .019 .86377 c 17.57324 -2.42236 34.24121 -4.12939 52.32422 -4.88379 l .63623 .0332 v -50.16797 l .0283 -.81104 h 40.61426 l .5542 .0625 v 49.83496 l -.0518 1.02149 c 18.10986 .72998 34.77832 2.41357 52.3208 4.81592 l .70459 .0615 v -54.98486 l -.0376 -.81153 h 40.03369 l 1.20069 -.0195 v 62.40479 l .96045 .16113 c 14.51855 2.72656 25.94677 5.56445 37.31592 8.99463 c 5.68017 1.71387 11.42431 3.83057 14.17431 7.49756 c 2.6582 3.54443 2.76953 8.63086 2.76953 15.72607 v 61.42163 l .71875 -.0359 c 3.10401 0 6.13916 0 9.09522 0 l .84619 -.0393 c 0 -32.25171 0 -65.64234 0 -66.16724 c 0 -12.6665 -1.71729 -21.00684 -12.53174 -26.91357 l -.36816 -.20264 v -62.12842 l .0298 -.69922 h 7.24951 l -.0562 -16.0039 c -.006 -1.57813 -.23242 -20.52832 -7.23877 -47.85059 l .0156 -.78564 V 265.33595 l -.43653 -.51709 c -15.7046 -17.71583 -33.4126 -32.70656 -51.36915 -45.28712 l -1.1748 -.79297 v 102.4126 l -.0415 .66552 c -.1875 -.22949 -.37744 -.45898 -.56689 -.6875 c -12.146 -14.65869 -26.44238 -27.09668 -40.60547 -37.36376 l .0171 -.98731 v -88.81689 l -.27148 -.14258 c -20.03077 -10.38037 -38.50147 -17.84473 -52.65039 -22.89112 l -.0518 .55176 v 81.56348 l -.4668 -.21826 c -8.41504 -3.83448 -13.90723 -5.86963 -14.6665 -6.14698 l -5.46973 -1.99853 l -5.47168 1.99853 c -.76953 .28028 -6.41113 2.3711 -15.03223 6.31495 l -.0898 -.61377 v -81.5083 l -.29883 .14697 c -14.08154 5.03027 -32.39697 12.44433 -52.25488 22.72412 l -.42578 .27393 m 146.22558 68.88427 c -12.47705 0 -22.59179 -11.18066 -22.59179 -24.97363 c 0 -13.79297 10.11474 -24.97363 22.59179 -24.97363 c 12.47706 0 22.59278 11.18066 22.59278 24.97363 c 0 13.79297 -10.11572 24.97363 -22.59278 24.97363 m 10.43213 -24.97363 c 0 -7.86231 -4.6709 -14.23535 -10.43213 -14.23535 c -5.7622 0 -10.43164 6.37304 -10.43164 14.23535 c 0 7.8623 4.66944 14.23584 10.43164 14.23584 c 5.76123 0 10.43213 -6.37354 10.43213 -14.23584 m -76.21435 -1.57813 v -7.22558 h 5.20556 v -36.65625 h 12.62452 v 47.95166 h -6.97657 c 0 0 -3.98828 -4.00635 -10.85351 -4.06983 m -94.02295 21.81592 v -7.22558 h 5.20556 v -36.65674 h 12.625 v 47.95215 h -6.97705 c 0 0 -3.98779 -4.00635 -10.85351 -4.06983 m 52.38281 -60.49365 l 7.19873 -5.75879 c 0 0 7.01758 5.51465 13.84277 11.73926 c 7.53077 6.86621 13.62208 13.28955 12.07227 24.14209 c -1.5498 10.85351 -10.41064 16.39014 -19.10449 16.72217 c -10.17627 .38965 -18.43897 -6.75489 -18.43897 -17.33057 c 0 -11.12988 7.63819 -16.73926 17.28467 -17.29785 c 0 0 -6.65332 -6.56836 -12.85498 -12.21631 m 21.0415 28.51611 c 0 -4.18896 -3.44531 -7.58545 -7.69677 -7.58545 c -4.25 0 -7.69629 3.39649 -7.69629 7.58545 c 0 4.19092 3.44629 7.58692 7.69629 7.58692 c 4.25146 0 7.69677 -3.396 7.69677 -7.58692 z" fill="#fee813"/><path d="m 351.31543 655.0769 c 0 -30.76098 -24.94141 -55.69897 -55.70654 -55.69897 c -30.76563 0 -55.70118 24.93799 -55.70118 55.69897 c 0 30.76587 24.93555 55.70484 55.70118 55.70484 c 30.76513 0 55.70654 -24.93897 55.70654 -55.70484 z" fill="#fee813"/><path d="m 202.38477 569.67334 l -1.46631 7.22949 l -11.99561 2.00342 l -3.61035 -6.38184 l -6.45947 1.07959 l 16.71924 28.07764 l 6.41748 -1.07226 l 7.02148 -32.04297 l -6.62646 1.10693 m -2.54737 12.62695 l -2.28955 11.85059 l -5.93262 -10.47754 z" fill="#111840"/><path d="m 225.76709 596.86182 l 5.90723 -.73828 l 9.76123 -21.70411 l .084 -.0103 l 2.51904 20.16992 l 5.6543 -.70556 l -3.77246 -30.21338 l -6.11914 .76416 l -9.60742 21.21289 l -.084 .0112 l -2.46093 -19.70703 l -5.65479 .70654 l 3.77295 30.21387 z" fill="#111840"/><path d="m 264.17871 592.57129 l 6.11963 -.25537 l -.56445 -13.51074 l 13.01269 12.99023 l 8.24219 -.34375 l -11.92383 -11.37695 l 11.29102 -19.07129 l -7.94532 .33203 l -7.77343 14.625 l -5.22705 -4.88867 l -.3833 -9.17774 l -6.11866 .25537 z" fill="#111840"/><path d="m 324.93945 562.01318 l -2.92578 6.77149 l -12.15137 -.51416 l -2.21533 -6.98926 l -6.54297 -.27686 l 10.56641 30.92286 l 6.50049 .27539 l 13.48193 -29.90528 l -6.71338 -.28418 m -5.09716 11.83008 l -4.68506 11.12305 l -3.64307 -11.47608 z" fill="#111840"/><path d="m 341.70117 593.89014 l 12.82813 1.60791 c 4.51416 .5664 6.0498 .28711 7.01562 .1084 c 3.66602 -.87012 5.53467 -4.1504 5.90479 -7.10303 c .41259 -3.29151 -.86817 -6.40967 -3.66895 -8.00293 c -.99658 -.59717 -2.09326 -1.07764 -3.2583 -1.35205 l .01 -.0845 c 2.71142 -1.11669 4.03125 -2.06591 7.67675 -6.53857 l 4.41114 -5.44629 l -7.29932 -.91504 l -5.21387 6.03223 c -4.35254 4.98291 -4.80713 5.52685 -8.89892 5.01318 l -1.22363 -.15283 l 1.58007 -12.6167 l -6.07617 -.76172 l -3.78711 30.21192 m 7.6792 -12.02295 l 4.51514 .56543 c 1.85644 .23242 4.43017 .55517 5.4375 1.06689 c 2.01953 .98145 1.98877 2.94922 1.87695 3.83594 c -.15283 1.22412 -.72266 2.35156 -1.94678 2.88379 c -1.22461 .53271 -1.98437 .43799 -6.07714 -.0757 l -4.76807 -.59765 l .9624 -7.67871 z" fill="#111840"/><path d="m 406.08496 572.56152 l -3.74023 6.35889 l -11.99414 -2.01074 l -1.33594 -7.20947 l -6.4585 -1.08301 l 6.66651 31.99121 l 6.41797 1.07568 l 17.0708 -28.01172 l -6.62647 -1.11084 m -6.52051 11.11036 l -6.02148 10.45996 l -2.19824 -11.83887 z" fill="#111840"/><path d="m 314.80859 610.93457 c -1.84179 -.80176 -3.74267 -1.49268 -5.6958 -2.06201 l -.43652 -.13037 v 42.14673 c 0 2.4917 -2.74072 3.99267 -4.40186 3.99267 h -3.8623 l -.042 -.66455 v -47.05249 l -.37793 -.0146 c -1.44483 -.12988 -2.90625 -.19677 -4.3833 -.19677 c -.51856 0 -1.03516 .009 -1.55078 .0244 l -.33252 .021 v 96.1394 l .33252 .0439 c .51562 .0164 1.03222 .0247 1.55078 .0247 c 1.49267 0 2.9707 -.0681 4.4292 -.20044 l .33203 -.0344 v -40.86548 v -.58032 h 3.98779 c 3.48779 0 4.31836 2.82422 4.31836 7.30859 v 32.55982 l .29736 -.0676 c 2.20508 -.63599 4.34375 -1.4248 6.40723 -2.35571 l -.0601 -.40137 v -29.32056 c 0 -8.80298 -4.48535 -10.96289 -4.48535 -10.96289 c 0 0 4.48535 -2.906 4.48535 -8.72046 v -38.41479 l -.51221 -.21631 z" fill="#111840"/><path d="m 341.02832 669.83203 h -6.27148 l -.35547 -.0435 c -1.03321 2.71802 -2.34668 5.30054 -3.90137 7.71192 l -.22803 .34643 v -18.85376 l .45703 .0413 h 8.18116 v -6.64502 h -8.14063 l -.49756 .00049 v -19.72632 l .0234 -.3208 c 1.34668 2.04737 2.51758 4.22168 3.48926 6.49952 l .1001 .25781 h 7.14355 l -.11719 -.32031 c -3.27929 -9.1084 -9.22705 -16.94336 -16.90088 -22.56006 l -.3833 -.25049 v 78.24023 l .38526 -.27295 c 8.11425 -5.94091 14.2998 -14.36157 17.4375 -24.14624 l -.42139 .0417 z" fill="#111840"/><path d="m 283.9624 608.37256 c -2.0747 .51562 -4.09717 1.16553 -6.05469 1.94043 l -.29541 .13183 v 63.45557 l .0166 .46851 l -10.84766 -24.95166 l -10.11377 19.92797 l -.20752 -.54907 c -1.51025 -4.2959 -2.33203 -8.91308 -2.33203 -13.71924 c 0 -8.76367 2.73145 -16.90161 7.38965 -23.60669 l -5.52002 -3.73242 c -5.36865 7.76465 -8.51465 17.18506 -8.51465 27.33911 c 0 10.55152 3.39453 20.3086 9.15234 28.24024 l .23829 .3064 l 9.44287 -18.60914 l 15.78125 36.29615 l .31396 .0635 c .60742 .17286 1.21875 .33374 1.83496 .48316 l .0103 -.29761 v -93.23242 l -.29444 .0454 z" fill="#111840"/><path d="m 403.70654 455.55957 c -5.71533 0 -11.65381 0 -17.77002 0 h -.40673 v 18.35498 l -.0234 .25049 h 18.18994 l .43896 -.00049 v -18.60498 h -.42871 m 49.02198 0 v 18.60498 l -.43897 .00049 h -18.19043 l .0244 -.25049 v -18.35498 h .40576 c 6.11718 0 12.05517 0 17.77099 0 h .42823 m -48.57471 -6.3125 h -18.60498 l -.019 -.35205 v -129.98731 v -.604 c 4.16992 4.10986 8.18505 8.44287 11.96093 13 c 36.31006 43.82324 49.54932 89.90772 54.37549 117.51221 l .0874 .43115 h -18.979 l -.0747 -.3457 c -3.6582 -19.08692 -11.58154 -46.84278 -28.73828 -75.86133 l -.0264 1.10351 v 74.66797 l .0186 .43555 z" fill="#111840"/><path d="M 306.79004 266.27637 V 474.146 l .83447 .019 h 57.31104 l -.004 -.4082 v -18.21631 l -.71289 .019 c -12.33105 0 -25.10254 0 -37.98047 0 l -.84277 -.02 v -158.8623 l .58838 .31884 c 12.31201 7.10205 26.15332 16.29297 38.91846 27.52002 l .0293 -.76172 v -23.25732 l -.27441 -.20068 c -21.89356 -16.6709 -44.33106 -27.93311 -57.46436 -33.81446 l -.40234 -.20556 z" fill="#111840"/><path d="m 284.42432 455.59668 h -18.60547 v 18.60498 h 18.60547 v -18.60498 m -39.53614 18.60498 h -18.60547 v -18.60498 h 18.60547 v 18.60498 M 227.25293 299.77051 c 21.72559 -16.42237 43.88477 -27.52539 56.86475 -33.33203 l .30664 -.16162 v 182.17529 v .79492 h -18.60498 l -.00049 -.68359 v -151.8877 l -.30762 .15723 c -6.38672 3.67529 -13.19434 7.91553 -20.05322 12.71338 l -.56983 .36474 v 139.01221 v .32373 h -18.60547 v -.2417 v -148.45215 z" fill="#111840"/><path d="m 205.68408 456.2041 v 17.35938 l -.00049 .60156 H 136.5791 c 0 0 .25879 -74.20508 57.14502 -142.86133 c 3.62158 -4.36963 7.46192 -8.53418 11.44824 -12.49219 l .51172 -.56836 v 121.51612 l .084 .84961 h -30.98194 v -17.60791 h 12.37744 l -.0845 -.76856 v -49.25244 l -.37597 .65186 c -19.01905 32.38183 -26.56397 63.1289 -29.55567 81.92773 c 7.32813 0 25.06641 0 48.62109 0 l -.0845 .64453 z" fill="#111840"/></g></g></svg>