<svg height="1000" viewBox="0 0 1000 1000" width="1000" xmlns="http://www.w3.org/2000/svg"><g transform="matrix(2.0946195 0 0 2.0946195 -127.90723 -127.90723)"><path clip-rule="evenodd" d="M 186.461 186.461 H 412.86299 V 413.883 H 186.461 Z" fill="#fff" fill-rule="evenodd"/><path clip-rule="evenodd" d="m 299.77 75.433 c 123.878 0 224.339 100.461 224.339 224.336 c 0 123.879 -100.461 224.34 -224.339 224.34 c -123.875 0 -224.336 -100.457 -224.336 -224.34 c 0 -123.879 100.461 -224.336 224.336 -224.336 z m 0 83.938 c 77.527 0 140.402 62.871 140.402 140.398 c 0 77.528 -62.875 140.403 -140.402 140.403 c -77.528 0 -140.399 -62.875 -140.399 -140.403 c 0 -77.527 62.875 -140.398 140.399 -140.398 z" fill="#09c" fill-rule="evenodd"/><path clip-rule="evenodd" d="m 327.332 159.676 c 11.277 2.207 22.07 5.738 32.223 10.433 l 12.344 -16.988 l 44.824 32.57 l -12.332 16.969 c 7.676 8.268 14.387 17.445 19.949 27.351 l 19.977 -6.489 l 17.121 52.696 l -19.926 6.476 c .668 5.598 1.02 11.297 1.02 17.074 c 0 5.684 -.34 11.278 -.984 16.785 l 19.98 6.489 l -17.125 52.699 l -19.93 -6.478 c -5.547 9.918 -12.227 19.114 -19.887 27.396 l 12.363 17.016 l -44.824 32.566 l -12.313 -16.939 c -10.145 4.711 -20.93 8.274 -32.199 10.5 v 20.993 h -55.406 v -20.934 c -11.273 -2.207 -22.074 -5.742 -32.227 -10.438 l -12.335 16.984 l -44.825 -32.57 l 12.332 -16.977 c -7.672 -8.27 -14.386 -17.441 -19.945 -27.349 l -19.984 6.493 l -17.121 -52.7 l 19.933 -6.476 c -.668 -5.598 -1.023 -11.285 -1.023 -17.063 c 0 -5.679 .34 -11.289 .984 -16.797 l -19.98 -6.492 l 17.121 -52.695 l 19.929 6.477 c 5.547 -9.922 12.231 -19.106 19.891 -27.391 l -12.363 -17.02 l 44.824 -32.57 l 12.309 16.941 c 10.148 -4.714 20.933 -8.265 32.203 -10.496 V 138.73 h 55.406 v 20.946 z m -27.562 27.925 c 61.941 0 112.171 50.231 112.171 112.168 c 0 61.942 -50.23 112.172 -112.171 112.172 c -61.938 0 -112.168 -50.23 -112.168 -112.172 c 0 -61.937 50.23 -112.168 112.168 -112.168 z" fill-rule="evenodd"/><path clip-rule="evenodd" d="m 326.238 139.879 h -52.941 l .098 21.976 c -11.668 2.219 -22.813 5.883 -33.262 10.797 l -12.926 -17.797 l -42.832 31.117 l 13.016 17.754 c -7.977 8.496 -14.895 17.981 -20.578 28.258 l -20.926 -6.805 l -16.36 50.357 l 20.938 6.699 c -.719 5.742 -1.094 11.598 -1.094 17.535 c 0 5.903 .371 11.719 1.082 17.43 l -20.926 6.797 l 16.364 50.351 l 20.871 -6.882 c 5.668 10.277 12.597 19.77 20.566 28.27 l -12.957 17.823 l 42.836 31.114 l 12.832 -17.825 c 10.445 4.922 21.602 8.59 33.262 10.821 l -.004 21.984 l 52.828 -.117 l .016 -21.853 c 11.668 -2.218 22.813 -5.894 33.266 -10.808 l 12.926 17.801 l 42.832 -31.122 l -13.02 -17.75 c 7.977 -8.496 14.902 -17.987 20.582 -28.261 l 20.926 6.808 l 16.355 -50.355 l -20.93 -6.699 c .715 -5.746 1.094 -11.59 1.094 -17.528 c 0 -5.906 -.383 -11.73 -1.09 -17.441 l 20.93 -6.793 l -16.363 -50.357 l -20.871 6.883 c -5.668 -10.277 -12.594 -19.773 -20.563 -28.273 l 12.949 -17.817 l -42.832 -31.117 l -12.836 17.832 c -10.449 -4.922 -21.594 -8.59 -33.258 -10.816 z m 45.098 8.679 l 50.125 36.418 l -13.438 18.5 c 6.32 7.102 11.961 14.832 16.801 23.082 l 21.719 -7.054 l 19.148 58.922 l -21.719 7.062 c .457 4.699 .707 9.465 .707 14.281 c 0 4.821 -.238 9.582 -.699 14.278 l 21.711 7.054 l -19.148 58.927 l -21.715 -7.056 c -4.844 8.254 -10.473 15.989 -16.801 23.09 l 13.434 18.492 l -50.125 36.415 l -13.418 -18.465 c -8.648 3.797 -17.73 6.781 -27.168 8.84 l -.004 22.817 h -61.953 l -.004 -22.814 c -9.434 -2.058 -18.527 -5.035 -27.176 -8.832 l -13.41 18.454 l -50.125 -36.415 l 13.438 -18.503 c -6.321 -7.105 -11.965 -14.829 -16.805 -23.079 l -21.715 7.056 l -19.148 -58.927 l 21.718 -7.058 c -.457 -4.699 -.703 -9.453 -.703 -14.274 c 0 -4.82 .242 -9.586 .703 -14.289 l -21.718 -7.054 l 19.148 -58.926 l 21.715 7.054 c 4.848 -8.253 10.477 -15.98 16.801 -23.085 l -13.434 -18.493 l 50.125 -36.418 l 13.418 18.461 c 8.652 -3.797 17.738 -6.769 27.172 -8.828 v -22.82 h 61.957 v 22.82 c 9.438 2.055 18.527 5.031 27.176 8.824 z" fill="#f1c329" fill-rule="evenodd"/><path clip-rule="evenodd" d="M 300.164 342.683 L 234.434 390.433 L 259.543 313.168 L 193.813 265.41 L 275.063 265.41 L 300.164 188.137 L 325.273 265.41 L 406.52 265.41 L 340.789 313.168 L 365.898 390.436 Z" fill="#eb3e35" fill-rule="evenodd"/><path clip-rule="evenodd" d="m 299.77 184.703 c 63.539 0 115.07 51.531 115.07 115.066 c 0 63.539 -51.531 115.071 -115.07 115.071 c -63.536 0 -115.067 -51.532 -115.067 -115.071 c 0 -63.539 51.531 -115.066 115.067 -115.066 z m 2.003 4.531 l 24.195 74.477 h 78.336 C 389.559 220.965 349.328 190.082 301.773 189.234 Z m 104.079 79.328 l -63.352 46.028 l 23.859 73.429 c 26.703 -20.187 43.973 -52.198 43.973 -88.246 c 0 -10.84 -1.57 -21.312 -4.48 -31.211 z m -44.2 122.828 l -62.429 -45.354 l -61.891 44.969 c 17.766 12.188 39.27 19.328 62.441 19.328 c 22.926 -.001 44.219 -6.986 61.879 -18.943 z m -129.347 -4.046 l 23.64 -72.754 l -62.449 -45.368 c -2.785 9.7 -4.285 19.954 -4.285 30.551 c 0 35.649 16.891 67.352 43.094 87.571 z M 195.238 263.711 h 77.235 l 24.191 -74.453 c -47.07 1.3 -86.797 32.035 -101.426 74.453 z m 103.985 -67.735 l 23.472 72.243 h 75.961 l -61.453 44.648 l 23.473 72.242 l -61.453 -44.645 l -61.453 44.645 l 23.476 -72.242 l -61.453 -44.648 h 75.961 z" fill="#f1c329" fill-rule="evenodd"/><path clip-rule="evenodd" d="m 299.77 73 c 125.222 0 226.773 101.551 226.773 226.769 c 0 125.223 -101.551 226.774 -226.773 226.774 C 174.551 526.543 73 424.992 73 299.769 C 73 174.551 174.551 73 299.77 73 Z m 0 4.508 c 122.734 0 222.265 99.531 222.265 222.265 c 0 122.731 -99.531 222.262 -222.265 222.262 c -122.731 0 -222.262 -99.531 -222.262 -222.262 c 0 -122.734 99.531 -222.265 222.262 -222.265 z" fill="#f1c329" fill-rule="evenodd"/><path d="m 269.727 295.094 v -2.575 h .746 c 1.054 .016 2.007 -.351 2.855 -1.105 c .848 -.754 1.356 -1.68 1.52 -2.781 h 3.511 v 21.738 h -4.535 v -15.277 z" fill="#f1c329"/><path d="m 284.57 305.246 h 3.973 c .023 .644 .277 1.137 .762 1.476 c .488 .345 1.125 .504 1.91 .485 c 1.055 0 1.832 -.414 2.328 -1.242 c .496 -.828 .77 -2.032 .809 -3.605 v -.277 c -.477 .519 -.997 .898 -1.567 1.148 c -.57 .25 -1.246 .364 -2.035 .345 c -2.109 0 -3.699 -.681 -4.766 -2.035 c -1.066 -1.356 -1.597 -3.149 -1.597 -5.387 c 0 -2.586 .519 -4.59 1.566 -6.008 c 1.043 -1.422 2.77 -2.129 5.172 -2.129 c 2.688 0 4.609 .938 5.758 2.813 c 1.148 1.871 1.726 4.723 1.726 8.551 c 0 3.813 -.586 6.699 -1.754 8.668 c -1.171 1.965 -3.113 2.949 -5.824 2.949 c -1.988 0 -3.52 -.52 -4.593 -1.551 c -1.083 -1.041 -1.704 -2.439 -1.868 -4.201 z m 9.813 -9.125 c 0 -1.328 -.254 -2.379 -.762 -3.156 c -.508 -.774 -1.266 -1.164 -2.281 -1.164 c -1.035 0 -1.789 .378 -2.254 1.132 c -.465 .758 -.688 1.789 -.668 3.09 c 0 1.266 .262 2.285 .777 3.063 c .516 .777 1.25 1.152 2.207 1.133 c .93 0 1.661 -.329 2.188 -.981 c .531 -.648 .793 -1.691 .793 -3.117 z" fill="#f1c329"/><path d="m 314.379 306.582 v 3.789 h -13.754 v -.867 c -.023 -1.598 .293 -2.953 .945 -4.071 c .652 -1.116 1.828 -2.39 3.527 -3.819 c 2.73 -2.34 4.242 -3.781 4.531 -4.332 c .289 -.547 .445 -1.285 .465 -2.219 c 0 -1.078 -.211 -1.883 -.637 -2.422 c -.422 -.539 -1.07 -.816 -1.938 -.839 c -.953 0 -1.652 .304 -2.098 .918 c -.445 .609 -.66 1.492 -.637 2.652 v .777 h -4.222 v -.652 c 0 -2.317 .562 -4.145 1.691 -5.481 c 1.129 -1.336 2.934 -2.003 5.418 -2.003 c 2.277 0 3.969 .597 5.078 1.789 c 1.105 1.187 1.66 2.871 1.66 5.043 c -.02 1.718 -.402 3.148 -1.148 4.289 c -.746 1.136 -1.977 2.347 -3.695 3.632 c -1.344 1.017 -2.25 1.771 -2.719 2.267 c -.465 .496 -.789 1.016 -.977 1.551 h 8.51 z" fill="#f1c329"/><path d="m 330.684 293.758 h -3.977 c -.039 -.621 -.305 -1.098 -.793 -1.426 c -.484 -.332 -1.113 -.508 -1.879 -.531 c -1.012 0 -1.801 .425 -2.359 1.273 c -.559 .852 -.816 2.133 -.777 3.852 c .457 -.497 .969 -.864 1.539 -1.102 c .57 -.238 1.258 -.367 2.066 -.391 c 2.09 0 3.672 .688 4.75 2.051 c 1.078 1.367 1.613 3.156 1.613 5.371 c -.02 2.61 -.555 4.617 -1.598 6.028 c -1.047 1.406 -2.762 2.109 -5.141 2.109 c -2.691 0 -4.605 -.935 -5.746 -2.81 c -1.137 -1.875 -1.707 -4.726 -1.707 -8.554 c 0 -3.789 .582 -6.672 1.738 -8.649 c 1.16 -1.976 3.098 -2.968 5.809 -2.968 c 1.969 0 3.488 .519 4.563 1.554 c 1.082 1.036 1.711 2.435 1.899 4.193 z m -9.813 9.129 c 0 1.348 .246 2.402 .742 3.167 c .496 .767 1.266 1.149 2.297 1.149 c .996 0 1.73 -.371 2.207 -1.117 c .477 -.746 .715 -1.778 .715 -3.106 c 0 -1.284 -.258 -2.301 -.777 -3.058 c -.516 -.754 -1.25 -1.133 -2.207 -1.133 c -.93 0 -1.66 .344 -2.184 1.023 c -.531 .684 -.793 1.707 -.793 3.075 z" fill="#f1c329"/><path clip-rule="evenodd" d="m 457.715 197.144 l 4.563 7.727 l 5.977 -8.742 z m 1.551 12.129 l -6.859 -11.613 l -9.109 .875 c -1.438 .141 -2.727 -.82 -2.848 -2.145 l .008 -.007 c -.137 -1.321 .934 -2.508 2.375 -2.657 l 29.891 -2.879 c .957 -.089 1.977 .251 2.48 1.129 c .52 .907 .414 1.946 -.16 2.789 l -16.953 24.793 c -.816 1.196 -2.379 1.551 -3.477 .801 v .004 c -1.098 -.754 -1.328 -2.34 -.516 -3.531 z" fill="#f1c329" fill-rule="evenodd"/><path clip-rule="evenodd" d="m 503.152 253.992 c .215 1.312 -.68 2.562 -1.992 2.777 l -24.938 4.121 l 3.133 18.969 l 24.984 -4.125 c 1.313 -.219 2.563 .676 2.777 1.988 c .219 1.313 -.676 2.563 -1.988 2.778 l -26.305 4.347 l -6.316 6.11 c -.953 .926 -2.488 .902 -3.414 -.055 c -.926 -.957 -.898 -2.492 .055 -3.418 l 5.664 -5.48 l -3.629 -21.969 c -.02 -.121 -.02 -.246 -.016 -.367 c -.043 -.121 -.078 -.246 -.098 -.375 c -.219 -1.313 .676 -2.563 1.988 -2.778 l 27.313 -4.511 c 1.318 -.219 2.564 .675 2.782 1.988 z" fill="#f1c329" fill-rule="evenodd"/><path clip-rule="evenodd" d="m 307.527 477.957 h -.004 c 1.332 0 2.418 1.086 2.418 2.418 v 27.683 c 0 1.329 -1.086 2.414 -2.418 2.414 h .004 c -1.332 0 -2.418 -1.085 -2.418 -2.414 V 495.59 h -15.734 c -1.727 0 -2.203 -.203 -2.203 -2.328 l -.016 -12.887 c 0 -1.332 1.086 -2.418 2.418 -2.418 h -.004 c 1.332 0 2.418 1.086 2.418 2.418 v 9.656 c 0 .766 -.097 .727 .672 .727 h 12.449 v -10.383 c 0 -1.332 1.086 -2.418 2.418 -2.418 z" fill="#f1c329" fill-rule="evenodd"/><path clip-rule="evenodd" d="m 195.441 445.875 c 1.079 .781 1.321 2.297 .539 3.375 l -16.226 22.426 c -.781 1.082 -2.297 1.324 -3.375 .543 v .003 c -1.078 -.78 -1.32 -2.3 -.539 -3.378 l 7.308 -10.101 l -12.75 -9.224 c -1.398 -1.011 -1.664 -1.452 -.418 -3.175 l 7.543 -10.45 c .782 -1.082 2.297 -1.323 3.375 -.543 h -.003 c 1.078 .782 1.324 2.298 .543 3.375 l -5.665 7.825 c -.445 .617 -.503 .527 .122 .98 l 10.085 7.297 l 6.086 -8.41 c .782 -1.078 2.301 -1.321 3.375 -.543 z" fill="#f1c329" fill-rule="evenodd"/><path clip-rule="evenodd" d="m 393.254 153.695 v .004 c -1.109 -.738 -1.379 -2.293 -.602 -3.465 l 16.156 -24.394 c .777 -1.172 2.316 -1.532 3.426 -.797 h -.004 l .035 .023 l .004 -.008 l 9.078 6.012 c .191 .129 .352 .274 .496 .438 c 4.574 3.703 5.949 9.984 2.922 14.546 c -3.027 4.571 -9.355 5.75 -14.555 2.973 c -.195 -.07 -.383 -.168 -.563 -.289 l -7.098 -4.699 l -5.871 8.863 c -.776 1.172 -2.315 1.527 -3.424 .793 z m 24.211 -19.398 l -5.883 -3.899 l -6.363 9.61 l 6.102 4.043 c 3.609 2.043 7.73 1.769 9.367 -.7 c 1.667 -2.523 .218 -6.535 -3.223 -9.054 z" fill="#f1c329" fill-rule="evenodd"/><path clip-rule="evenodd" d="m 255.727 129.09 c 1.32 -.157 -2.536 -.844 -2.7 -2.227 l -3.441 -28.789 c -.164 -1.371 .82 -2.641 2.219 -2.805 l 16.797 -2.007 c 1.363 -.165 2.601 .781 2.761 2.105 v -.004 c .157 1.324 -.824 2.535 -2.187 2.695 l -14.516 1.739 l 1.078 9.043 l 17.055 -2.039 c 1.492 -.176 2.805 .714 2.977 2.148 l 1.793 15.012 h -.004 v .004 c .164 1.363 -.789 2.613 -2.227 2.785 l -19.527 2.336 v -.004 z m 15.519 -17.239 l -14.933 1.786 l 1.238 10.371 l 14.937 -1.786 z" fill="#f1c329" fill-rule="evenodd"/><path clip-rule="evenodd" d="m 143.754 214.703 v -.004 c -.762 1.094 -2.274 1.359 -3.367 .598 l -22.688 -15.864 c -1.09 -.761 -1.359 -2.273 -.594 -3.363 h -.003 c .765 -1.09 2.277 -1.359 3.367 -.598 l 8.746 6.118 l -2.34 -18.344 c -.168 -1.317 .773 -2.535 2.094 -2.699 c 1.32 -.168 2.531 .769 2.699 2.09 l 1.543 12.093 l 20.406 -.968 c 1.332 -.063 2.465 .968 2.531 2.296 c .063 1.332 -.972 2.465 -2.3 2.532 l -20.024 .949 l .735 5.785 l 8.597 6.012 c 1.09 .761 1.36 2.277 .598 3.367 z" fill="#f1c329" fill-rule="evenodd"/><path clip-rule="evenodd" d="m 420.879 471.199 h .004 c -1.02 .855 -2.551 .719 -3.406 -.301 l -17.793 -21.207 c -.855 -1.02 -.723 -2.548 .297 -3.402 h -.004 c 1.023 -.856 2.551 -.723 3.41 .297 l 6.855 8.176 l 2.504 -18.32 c .18 -1.316 1.402 -2.246 2.719 -2.066 c 1.32 .179 2.25 1.402 2.066 2.722 l -1.648 12.075 l 19.961 4.363 c 1.301 .285 2.129 1.578 1.844 2.875 c -.281 1.301 -1.578 2.129 -2.875 1.848 l -19.586 -4.282 l -.793 5.782 l 6.746 8.035 c .855 1.017 .718 2.55 -.301 3.405 z" fill="#f1c329" fill-rule="evenodd"/><path clip-rule="evenodd" d="m 374.77 494.75 l .012 .004 c -1.063 .813 -2.617 .578 -3.488 -.535 l -3.07 -3.93 l -11.145 3.69 l -.113 4.867 c -.031 1.407 -1.141 2.532 -2.473 2.5 h .004 c -1.332 -.026 -2.391 -1.203 -2.359 -2.608 l .652 -28.699 c .031 -1.426 .59 -2.313 1.699 -2.68 c 1.102 -.367 1.855 -.109 2.871 1.188 l 17.746 22.699 c .863 1.108 .71 2.687 -.336 3.504 z m -9.704 -8.508 l -7.594 -9.728 l -.281 12.336 z" fill="#f1c329" fill-rule="evenodd"/><path clip-rule="evenodd" d="m 240.887 501.457 l .008 .012 c -1.336 .02 -2.45 -1.094 -2.485 -2.508 l -.121 -4.985 l -11.152 -3.675 l -2.989 3.843 c -.863 1.114 -2.425 1.352 -3.476 .535 c -1.051 -.815 -1.203 -2.39 -.34 -3.5 l 17.621 -22.66 c .875 -1.129 1.856 -1.507 2.961 -1.144 c 1.106 .363 1.559 1.019 1.598 2.664 l .734 28.808 c .031 1.403 -1.031 2.579 -2.359 2.61 z m -2.723 -12.613 l -.305 -12.332 l -7.574 9.738 z" fill="#f1c329" fill-rule="evenodd"/><path clip-rule="evenodd" d="m 86.129 268.679 c .187 -1.316 1.418 -2.238 2.734 -2.05 l 4.426 .633 c 2.149 -9.247 8.703 -15.708 15.383 -14.754 c 6.683 .957 11.156 8.992 10.633 18.468 l 4.402 .629 c 1.316 .188 2.238 1.418 2.051 2.735 v -.004 c -.188 1.32 -1.418 2.242 -2.735 2.051 l -4.398 -.629 c -2.152 9.246 -8.695 15.711 -15.379 14.757 c -6.68 -.953 -11.164 -8.992 -10.641 -18.472 L 88.18 271.41 c -1.317 -.184 -2.239 -1.414 -2.051 -2.731 z m 11.941 -.734 l 16.414 2.344 c .286 -6.809 -2.394 -12.41 -6.511 -13 c -4.121 -.586 -8.274 4.039 -9.903 10.656 z m 15.735 7.129 l -16.418 -2.348 c -.297 6.821 2.394 12.442 6.519 13.032 c 4.125 .589 8.274 -4.055 9.899 -10.684 z" fill="#f1c329" fill-rule="evenodd"/><path clip-rule="evenodd" d="m 340.141 93.316 c 8.563 1.071 14.48 10.192 13.211 20.371 c -1.27 10.176 -9.246 17.567 -17.809 16.5 c -8.563 -1.07 -14.477 -10.191 -13.207 -20.367 c 1.269 -10.18 9.242 -17.57 17.805 -16.504 z m -.621 4.84 c 5.891 .734 9.906 7.438 8.969 14.961 c -.941 7.527 -6.477 13.039 -12.367 12.305 c -5.887 -.735 -9.902 -7.438 -8.965 -14.965 c .937 -7.524 6.476 -13.035 12.363 -12.301 z" fill="#f1c329" fill-rule="evenodd"/><path clip-rule="evenodd" d="m 124.012 374.472 c 5.152 0 9.332 4.181 9.332 9.332 c 0 5.153 -4.18 9.333 -9.332 9.333 c -5.153 0 -9.332 -4.18 -9.332 -9.333 c 0 -5.152 4.179 -9.332 9.332 -9.332 z" fill="#f1c329" fill-rule="evenodd"/><path clip-rule="evenodd" d="m 475.656 374.472 c 5.152 0 9.332 4.181 9.332 9.332 c 0 5.153 -4.18 9.333 -9.332 9.333 c -5.152 0 -9.332 -4.18 -9.332 -9.333 c 0 -5.152 4.18 -9.332 9.332 -9.332 z" fill="#f1c329" fill-rule="evenodd"/></g></svg>