<svg xmlns="http://www.w3.org/2000/svg" width="1000" height="1000" viewBox="0 0 750 750"><path fill="#fff" fill-rule="evenodd" d="M18.75.676h712.5v712.5H18.75z"/><path fill-rule="evenodd" d="M375 32.225c178.999 0 324.817 145.818 324.817 324.816 0 178.551-145.818 324.586-324.817 324.586-178.782 0-324.817-146.035-324.817-324.586C50.183 178.043 196.218 32.225 375 32.225"/><path fill="#fff" fill-rule="evenodd" d="M594.644 406.595C571.917 506.613 482.05 581.84 375 581.84c-106.848 0-196.686-75.227-219.413-175.245H65.878C89.804 555.388 219.522 669.903 375 669.903c155.492 0 285.21-114.515 309.122-263.308zM598.297 327.831c1.242 9.573 1.95 19.305 1.95 29.21 0 12.808-1.141 25.37-3.235 37.614h88.799a314 314 0 0 0 2.281-37.614c0-9.847-.476-19.593-1.386-29.21zM153.826 315.876c19.42-104.552 111.309-184.08 221.174-184.08 110.067 0 201.985 79.528 221.406 184.08h88.972C665.09 162.824 533.423 43.95 375 43.95c-158.409 0-290.091 118.875-310.363 271.927zM153.205 394.655c-2.08-12.245-3.22-24.806-3.22-37.614 0-9.905.707-19.637 1.949-29.21h-88.64a315 315 0 0 0-1.372 29.21c0 12.72.78 25.268 2.282 37.614z"/><path fill="#fff" fill-rule="evenodd" d="M375 144.184c117.272 0 212.858 95.585 212.858 212.857 0 117.042-95.586 212.627-212.858 212.627s-212.858-95.585-212.858-212.627c0-117.272 95.586-212.857 212.858-212.857"/><path fill-rule="evenodd" d="M499.463 148.169c29.643-.448 57.524 10.396 84.525 37.613-.664-20.142-6.194-40.487-15.045-60.629 17.254 9.732 28.545 26.337 37.396 46.017 2.657 15.045 3.321 29.44 1.545 45.814-16.82-16.157-32.3-21.903-48.456-24.56-14.165-4.88-26.77-12.403-37.614-24.127-7.306-6.628-11.955-12.837-22.351-20.128"/><path fill-rule="evenodd" d="M611.306 167.863c13.053 7.075 22.135 28.315 28.546 58.853-2.873 15.71-4.418 32.747-4.65 50.883-7.522-12.389-23.665-26.553-47.128-39.823-7.291-5.746-13.052-11.507-17.47-19.247-4.881-7.97-12.173-15.493-22.136-22.568 21.904.665 42.71 10.396 62.838 31.188 3.552-20.792 3.105-40.486 0-59.286M577.014 170.506c-15.262-7.74-29.426-20.576-38.494-40.92-5.978-15.045-13.948-28.546-24.344-39.837 30.986 7.523 58.42 41.382 62.838 80.757M438.286 122.063c16.157-17.269 50.449-8.418 93.376 11.725 3.754 5.977 7.955 11.507 12.388 16.142-13.948-4.418-30.09-7.522-49.12-7.522-11.292-2.643-21.905-5.747-31.867-11.508-7.075-3.985-15.262-7.075-24.777-8.837M446.241 65.189c11.74 7.522 19.045 19.478 28.546 28.993 14.612 15.262 34.076 25.889 51.128 31.419-7.754-36.285-35.419-55.546-79.674-60.412"/><path fill-rule="evenodd" d="M381.642 83.122c13.5-23.897 69.913-16.822 95.802 25.658-18.352 2.209-36.502-1.329-54.651-11.508-11.277-7.74-25.89-14.815-41.151-14.15M138.694 167.863c-13.053 7.075-22.12 28.315-28.546 58.853 2.888 15.71 4.433 32.747 4.866 50.883 7.537-12.389 23.463-26.553 46.912-39.823 7.306-5.746 13.052-11.507 17.702-19.247 4.65-7.97 12.172-15.493 21.904-22.568-21.688.665-42.696 10.396-62.838 31.188-3.538-20.792-3.09-40.486 0-59.286"/><path fill-rule="evenodd" d="M250.436 148.169c-29.657-.448-57.539 10.396-84.525 37.613.664-20.142 6.194-40.487 15.045-60.629-17.254 9.732-28.545 26.337-37.397 46.017-2.656 15.045-3.32 29.44-1.544 45.814 16.82-16.157 32.3-21.903 48.456-24.56 14.165-4.88 26.77-12.403 37.614-24.127 7.306-6.628 11.94-12.837 22.35-20.128"/><path fill-rule="evenodd" d="M173.217 170.506c15.262-7.74 29.21-20.576 38.494-40.92 5.978-15.045 13.717-28.546 24.113-39.837-30.755 7.523-58.405 41.382-62.607 80.757M311.729 122.063c-16.157-17.269-50.45-8.418-93.376 11.725-3.769 5.977-7.754 11.507-12.172 16.142 13.717-4.418 29.874-7.522 48.904-7.522 11.494-2.643 21.904-5.747 31.852-11.508 7.09-3.985 15.493-7.075 24.792-8.837M303.759 65.189c-11.508 7.522-18.814 19.478-28.546 28.993-14.598 15.262-33.86 25.889-51.114 31.419 7.74-36.285 35.405-55.546 79.66-60.412"/><path fill-rule="evenodd" d="M368.373 83.122c-13.5-23.897-69.928-16.822-95.586 25.658 18.136 2.209 36.285-1.329 54.42-11.508 11.292-7.74 25.89-14.815 41.166-14.15M625.919 315.876h37.613c6.194-27.434 2.656-56.196-17.486-86.734-3.754 20.59-6.194 41.165-6.858 60.845-16.59-24.546-44.472-46.45-55.98-43.576a216.6 216.6 0 0 1 16.59 31.852c4.867 13.5 12.404 25.456 26.12 37.613M124.313 315.876c13.5-12.157 21.022-24.113 25.888-37.613a270 270 0 0 1 16.59-31.852c-11.493-2.874-39.374 19.03-55.979 43.576-.664-19.68-2.873-40.255-6.642-60.845-20.344 30.538-23.665 59.3-17.687 86.734z"/><path fill="#ff001e" fill-rule="evenodd" d="M632.113 361.243c4.866-2.21 7.306-5.53 7.306-9.732 0-3.32-1.329-5.977-3.552-8.201-2.426-1.978-5.747-3.09-10.18-3.09-4.418 0-7.955 1.112-10.612 3.538-2.44 2.223-3.538 5.096-3.538 8.417 0 4.419 2.21 7.956 6.859 10.396-5.761 2.426-8.635 6.195-8.635 11.06 0 3.755 1.329 6.642 3.986 8.852 2.425 2.209 6.194 3.09 11.06 3.09h.88c4.65 0 8.187-1.314 10.844-3.538 2.888-2.426 4.202-5.53 4.202-9.068 0-5.313-2.874-9.067-8.62-11.724m-11.291-14.381c1.328-1.112 2.887-1.56 4.866-1.56 2.223 0 3.768.68 5.096 1.776 1.329 1.112 1.762 2.657 1.762 4.433 0 2.874-1.993 5.3-6.194 7.292-.217 0-.433 0-.664-.217-4.65-1.545-6.859-4.201-6.859-7.306 0-1.761.664-3.32 1.993-4.418M631 378.728c-1.328 1.098-3.09 1.762-5.313 1.762h-.434c-2.44 0-4.432-.664-6.194-1.993-1.56-1.111-2.224-2.873-2.224-5.313 0-3.321 2.44-5.963 7.09-7.956.664.217 1.328.433 1.761.88 2.888 1.113 4.65 2.21 5.762 3.322 1.328 1.328 1.992 2.873 1.992 4.418 0 1.993-.895 3.769-2.44 4.88M650.696 352.392l-6.411-1.545c2.209-7.09 6.858-10.627 14.38-10.627 4.203 0 7.524 1.112 9.95 3.09 2.44 2.224 3.768 5.097 3.768 8.634 0 4.65-2.44 7.97-7.306 9.963 5.53 1.329 8.403 4.866 8.403 10.613 0 4.201-1.314 7.306-4.202 9.746-2.656 2.21-6.41 3.307-10.843 3.307-3.985 0-7.292-.881-10.18-2.643-2.642-1.776-4.418-4.88-5.082-9.082l6.41-1.328c1.33 4.866 3.986 7.522 8.419 7.522 1.978 0 3.754-.65 5.299-1.992 1.328-1.329 2.223-3.321 2.223-5.963 0-2.224-.664-3.769-1.992-5.314-1.329-1.328-3.769-1.992-7.523-1.992h-2.873v-5.314h2.873c1.993 0 3.538-.217 4.65-.433 1.097-.448 1.978-1.112 2.642-2.224.895-1.097 1.328-2.425 1.328-4.201 0-1.993-.664-3.755-1.761-4.866-1.112-1.329-2.657-1.993-4.65-1.993-3.768 0-6.194 2.21-7.522 6.642M79.84 341.1h24.114l-.664 6.426H85.587l-.664 12.172c2.224-2.888 5.097-4.216 8.635-4.216 3.768 0 6.858 1.328 9.298 3.985 2.21 2.44 3.538 5.978 3.538 10.627 0 4.866-1.545 8.851-4.202 11.508-2.888 2.657-6.642 3.97-11.291 3.97-3.538 0-6.642-.88-9.284-2.642-2.657-1.992-4.433-4.88-5.097-8.634l6.858-1.545c1.112 4.635 3.538 6.858 7.74 6.858 5.096 0 7.753-3.104 7.753-9.298 0-2.657-.664-4.866-1.992-6.411-1.112-1.545-3.105-2.44-5.53-2.44-3.321 0-5.762 1.559-7.306 4.866l-5.747-1.098zM118.335 352.392l-6.411-1.545c1.993-7.09 6.858-10.627 14.164-10.627 4.419 0 7.74 1.112 10.165 3.09 2.224 2.224 3.552 5.097 3.552 8.634 0 4.65-2.44 7.97-7.306 9.963 5.761 1.329 8.635 4.866 8.635 10.613 0 4.201-1.56 7.306-4.202 9.746-2.888 2.21-6.425 3.307-10.844 3.307-3.985 0-7.522-.881-10.179-2.643-2.873-1.776-4.65-4.88-5.313-9.082l6.641-1.328c1.098 4.866 3.755 7.522 8.187 7.522 2.21 0 3.754-.65 5.3-1.992 1.559-1.329 2.223-3.321 2.223-5.963 0-2.224-.664-3.769-1.993-5.314-1.328-1.328-3.768-1.992-7.306-1.992h-3.104v-5.314h3.104c1.993 0 3.538-.217 4.433-.433 1.097-.448 1.978-1.112 2.873-2.224.665-1.097 1.098-2.425 1.098-4.201 0-1.993-.664-3.755-1.762-4.866-1.112-1.329-2.657-1.993-4.65-1.993-3.753 0-6.193 2.21-7.305 6.642M306.863 172.73h15.03v71.688h-15.03zM338.932 172.73v71.688h13.5v-47.576l9.963 47.576h8.187l11.06-48.457v48.457h13.5V172.73H374.12l-7.075 26.77-7.09-26.77zM402.65 172.73h40.718v12.388h-14.15v59.3h-14.612v-59.3H402.65z"/><path fill-rule="evenodd" d="M644.935 465.015c-1.314-1.992-3.09-3.537-5.516-4.866-3.552-1.992-6.642-2.44-9.746-1.776-.881.231-1.545.664-2.426.881-1.993 1.112-3.538 2.657-5.097 4.866.664-3.321.664-5.963 0-8.187-.88-1.978-2.657-3.754-5.314-5.299-1.978-1.112-3.985-1.545-6.194-1.545-.433 0-1.097 0-1.545.217-1.545.216-2.873.664-4.201 1.545-1.545 1.111-3.105 2.656-4.65 4.432-1.328 1.993-3.537 5.516-6.194 10.613l-6.858 12.605 21.903 11.739 18.15 9.732 5.747 3.09 7.089-12.822c2.642-5.314 4.635-9.299 5.53-11.739.88-2.426 1.314-4.635 1.314-6.627 0-2.44-.65-4.866-1.993-6.859m-31.853 9.068-1.328 2.656-2.657-1.544-6.642-3.538 1.56-2.657c1.761-3.104 3.09-4.88 4.418-5.76.231 0 .448-.217.664-.217 1.112-.448 2.44-.217 3.754.664 1.776.88 2.657 1.992 2.657 3.537s-.65 3.985-2.426 6.859m19.247 7.97-2.425 4.418-2.657-1.545-7.306-3.768 2.426-4.635c1.776-3.104 3.104-4.866 4.649-5.761h.23c1.33-.664 2.874-.433 4.636.664 1.776.88 2.657 2.21 2.657 3.769 0 1.544-.665 3.985-2.21 6.858M555.327 522.323l7.97-11.724 20.792 14.597c3.105 1.993 5.314 3.538 6.873 4.419 1.328.678 2.642 1.111 3.754 1.328 1.329.448 2.873.231 4.202-.433s2.426-1.993 3.537-3.538c1.112-1.56 1.776-3.104 1.993-4.649.217-1.328 0-2.873-.88-3.985-.448-1.112-1.546-1.993-2.658-3.09-1.328-1.112-3.32-2.657-6.41-4.88l-2.888-1.993-17.919-12.605 8.187-11.508 22.568 15.71c4.65 3.32 7.97 5.977 9.732 8.186 1.776 2.21 3.104 4.433 3.552 6.859.88 2.657.664 5.53-.231 8.634-.881 3.321-2.643 6.642-5.083 10.165-2.657 3.769-5.313 6.426-7.97 8.418-2.426 1.993-5.314 3.09-7.956 3.321-2.44.217-5.097-.23-7.754-1.112-2.656-1.097-6.194-3.09-10.843-6.41l-4.418-3.105zM572.596 579.4l-36.733-36.95 10.18-9.962 28.098 28.329 12.388-12.389 8.635 8.635zM527.012 613.49l-30.538-42.277 11.291-8.172 13.934 19.247-.448-28.994 13.284-9.515-.664 31.867 32.516 9.284-14.15 10.41-27.448-9.082 13.5 19.03zM453.995 644.23l-12.389-50.435 13.934-3.32 12.388 50.449zM266.362 576.743c-.88-1.545-2.21-3.09-4.202-4.635-1.776-1.56-5.313-3.768-10.396-6.642l-4.432-2.425-7.74-4.664-1.328 2.223-24.777 42.71 12.605 7.509c5.314 2.873 9.068 4.866 11.508 5.76.216.217.447.217.664.217 2.21.881 4.202 1.329 5.978 1.329 1.097 0 2.209 0 3.09-.217 1.328-.23 2.656-.895 3.768-1.56 1.993-1.097 3.754-3.09 5.083-5.298 1.992-3.321 2.656-6.642 1.992-9.747-.664-2.873-2.426-5.53-5.53-7.508 3.321.65 5.978.881 8.187 0 2.21-.678 3.985-2.44 5.53-4.88 1.112-1.993 1.776-4.202 1.776-6.194 0-1.993-.448-3.985-1.776-5.978m-21.023 26.337c-1.097 1.775-2.426 2.656-3.985 2.656-.88 0-1.978-.23-3.09-.664-1.112-.448-2.44-1.112-3.754-1.761l-4.216-2.44 5.53-9.963 2.44 1.328 1.993 1.328c3.09 1.776 4.865 3.321 5.53 4.65.664 1.328.447 3.09-.448 4.866m8.187-18.583c-1.097 1.545-2.21 2.425-3.754 2.425-.664 0-1.329-.216-2.44-.433-1.098-.447-2.657-1.112-4.419-2.223l-2.44-1.329 5.314-9.067 1.545.88 1.111.68c3.09 1.76 4.866 3.306 5.53 4.634.665 1.112.448 2.657-.447 4.433M398.68 651.32l-5.761-51.561 13.948-1.545 2.656 23.448 13.717-25.224 16.374-1.762-16.374 27.203 23.68 24.344-17.485 1.776-19.464-21.254 2.642 23.015zM359.522 638.036c2.425 1.993 4.865 3.538 6.858 4.433 2.21.88 4.418 1.328 6.41 1.097 1.777-.217 3.322-.88 4.42-2.21 1.11-1.11 1.559-2.425 1.328-3.984-.217-1.762-.881-2.874-1.993-3.754-1.097-.896-3.754-1.56-7.508-1.993-5.314-.664-9.082-1.992-11.291-3.985-2.44-1.993-3.769-4.866-4.419-8.634-.447-4.866.65-9.285 3.538-12.606 2.873-3.537 7.075-5.76 12.388-6.41 2.657-.231 5.53-.231 8.187.216 2.657.433 5.083 1.329 7.74 2.657l-3.322 10.627c-1.761-1.126-3.537-2.007-5.313-2.44-1.762-.679-3.307-.679-5.083-.448-1.761.217-3.09.664-3.985 1.762-.88.895-1.328 2.007-1.097 3.104 0 1.328.664 2.44 1.762 3.104.895.665 2.873 1.112 5.53 1.545h.664c5.978.881 9.963 2.21 11.955 3.754 1.329 1.112 2.657 2.44 3.321 4.217.88 1.761 1.545 3.754 1.762 5.746.664 5.53-.665 10.18-3.754 13.934-3.105 3.768-7.754 5.977-13.717 6.858-3.769.448-7.09.231-10.18-.65-3.104-.895-6.194-2.44-9.082-4.649zM316.595 648.215l7.739-51.33 13.934 1.993-5.964 39.606 17.471 2.44-1.761 12.157zM291.154 583.616l-1.993 2.21-34.523 39.374 13.933 5.313 6.209-7.522 14.381 5.53 5.53 1.992-.895 9.732 13.948 5.314 1.097-55.316zm5.299 15.695c-.217 1.328-.217 2.224-.217 2.671l-.88 18.135-6.195-2.44-7.754-3.09 7.754-9.515 3.538-4.433c.664-.88 1.328-1.761 1.992-2.873.88-.88 1.545-1.993 2.426-2.873-.217 1.776-.433 3.32-.664 4.418M225.644 553.51c-.664-3.089-1.978-5.962-3.97-8.62-2.224-2.887-6.195-6.858-12.403-12.171l-7.956-7.075-2.21 2.426-32.082 36.732 8.186 7.306 1.762 1.545c5.097 4.418 9.299 7.306 12.172 8.851s5.978 2.657 8.851 2.873h1.112c3.537.232 7.075-.216 10.396-1.761 3.754-1.56 7.075-3.985 9.948-7.537 3.105-3.538 5.097-7.075 6.194-11.06 1.112-3.754 1.112-7.523 0-11.508m-17.023 13.054c-3.104 3.552-6.194 5.544-9.515 5.76h-.448c-3.537 0-7.306-1.775-11.508-5.53l-1.761-1.544 13.717-15.94 5.082-5.747 1.776 1.544c4.202 3.769 6.628 7.307 6.859 10.627.433 3.538-.895 7.076-4.202 10.83M165.247 484.493l8.634 11.277-19.911 15.478c-3.104 2.224-5.097 3.769-6.209 5.097-1.328 1.112-2.209 2.21-2.642 3.105-.664 1.314-.895 2.656-.664 4.201.216 1.545.88 2.874 2.209 4.419 1.097 1.545 2.426 2.656 3.754 3.32 1.328.665 2.657.881 4.216.448 1.097-.23 2.426-.895 3.754-1.776 1.329-.88 3.538-2.44 6.411-4.65l2.888-2.208 17.254-13.27 8.635 11.277-21.918 16.821c-4.419 3.321-7.956 5.747-10.613 6.859-2.44 1.097-5.097 1.545-7.523 1.545-2.873-.217-5.53-1.112-8.187-3.09-2.873-1.776-5.53-4.433-8.186-7.97-2.657-3.538-4.65-6.859-5.761-9.963-.881-3.09-1.329-5.963-.665-8.62.448-2.44 1.776-4.65 3.321-6.859 1.776-2.209 4.88-5.097 9.515-8.634l4.202-3.321zM103.29 473.202l47.128-22.135 13.5 28.777-10.396 4.866-7.753-16.374-8.187 3.754 7.306 15.493-9.949 4.65-7.306-15.277-18.582 8.634zM290.706 378.05c5.978 0 12.172.895 17.702 2.44l-4.202 16.807c4.866.895 9.284 2.671 13.053 5.761l10.18-14.381c7.522 4.866 14.38 11.06 19.463 18.583l-13.5 9.515c3.104 3.768 5.313 7.754 6.425 12.62l16.59-4.217c2.44 6.873 3.538 14.381 3.538 22.135 0 38.277-31.188 69.48-69.25 69.48-30.537 0-56.426-19.695-65.725-46.912l15.94-5.313c-1.775-4.419-2.656-9.068-2.208-13.934l-17.486-.895v-2.426c0-9.299 1.776-18.15 5.083-26.105l15.94 6.41c1.545-4.649 3.754-8.85 7.306-12.388l-12.836-11.508c6.627-7.97 14.814-14.38 24.33-19.03l7.306 15.926c4.432-2.426 8.85-3.97 13.716-4.202l-1.328-17.47c3.321-.665 6.425-.896 9.963-.896"/><path fill="#fff" fill-rule="evenodd" d="M290.706 414.566c17.919 0 32.747 14.828 32.747 32.747 0 18.135-14.828 32.747-32.747 32.747-18.15 0-32.978-14.612-32.978-32.747 0-17.919 14.828-32.747 32.978-32.747"/><path fill="#ff001e" fill-rule="evenodd" d="M290.706 418.103c15.926 0 28.979 13.27 28.979 29.21 0 16.157-13.053 29.21-28.98 29.21-16.156 0-29.209-13.053-29.209-29.21 0-15.94 13.053-29.21 29.21-29.21"/><path fill-rule="evenodd" d="M428.323 430.275c23.68 0 43.143 19.247 43.143 42.927 0 23.665-19.464 43.143-43.143 43.143-23.449 0-42.913-19.478-42.913-43.143 0-23.68 19.464-42.927 42.913-42.927"/><path fill="#fff" fill-rule="evenodd" d="M428.323 449.522c13.052 0 23.896 10.627 23.896 23.68s-10.844 23.665-23.896 23.665c-12.822 0-23.666-10.612-23.666-23.665s10.844-23.68 23.666-23.68"/><path fill="#ff001e" fill-rule="evenodd" d="M428.323 452.843c11.29 0 20.575 9.299 20.575 20.359 0 11.291-9.284 20.359-20.575 20.359-11.06 0-20.36-9.068-20.36-20.359 0-11.06 9.3-20.359 20.36-20.359"/><path fill-rule="evenodd" d="M358.857 275.837c-2.44 26.986-31.202 32.3-82.316 10.396-17.47-6.194-33.411-11.955-45.135-12.172-10.627-.216-21.24 9.963-21.904 19.695-.231 24.56 22.784 47.128 59.3 47.345 28.315.447 58.636-15.71 92.698-35.837 51.56-35.621 75.905-34.957 108.421-2.657l50.45 50.45c13.052 11.94 26.105 12.604 39.605-.448 4.202 8.85-.433 18.15-12.605 27.881-3.768 2.44-5.313 5.314-4.433 8.634 1.112 11.941-6.641 22.12-22.35 27.218-15.71 26.77-28.099 33.844-37.614 21.24-2.643 2.656-5.747 4.865-9.515 5.963h-.217c-11.724-15.71-28.546-24.994-49.121-24.994-19.03 0-39.606 16.374-46.248 36.285-2.873 8.187-5.082 12.836-7.522 15.926h-.217c-1.328 1.545-3.09.216-2.873-2.657 1.776-6.627 2.657-13.5 2.657-20.792 0-44.038-35.621-80.092-79.212-80.092-42.927 0-78.114 34.725-79.443 77.435l-1.097-.23c-8.851-7.957-7.09-38.047-2.657-55.302 7.306-23.015 3.321-43.374-11.508-61.74-5.082-5.53-9.067-24.33-7.306-37.397 3.552-19.463 14.165-32.964 37.18-32.733 15.046-.23 33.195 9.732 57.077 17.702 18.598 6.195 34.74 7.075 47.129-.23 13.731-7.523 28.776-5.747 28.776 1.111"/><path fill="#fff" fill-rule="evenodd" d="M514.393 366.109c-10.613 3.32-17.919 9.068-19.247 19.695 6.858-2.874 12.388-4.866 16.157-4.65 5.978 0 9.732-1.112 10.396-7.739.664-4.433-4.202-7.97-7.306-7.306M506.87 395.752c2.657-1.097 5.314-.65 5.978.664.664 1.328-.881 3.321-3.538 4.202-2.656 1.112-5.313.895-5.977-.433-.665-1.545.88-3.538 3.537-4.433"/><path fill="#ff001e" fill-rule="evenodd" d="M450.01 340.437v31.65h14.829v28.762H388.5v-28.762h51.778v-31.65h-6.425v-7.075l11.291-5.762 11.508 5.762v7.075z"/></svg>