<?xml version="1.0" encoding="UTF-8" standalone="no"?>
<svg
   xmlns:dc="http://purl.org/dc/elements/1.1/"
   xmlns:cc="http://creativecommons.org/ns#"
   xmlns:rdf="http://www.w3.org/1999/02/22-rdf-syntax-ns#"
   xmlns:svg="http://www.w3.org/2000/svg"
   xmlns="http://www.w3.org/2000/svg"
   xmlns:sodipodi="http://sodipodi.sourceforge.net/DTD/sodipodi-0.dtd"
   xmlns:inkscape="http://www.inkscape.org/namespaces/inkscape"
   version="1.1"
   id="Layer_1"
   x="0px"
   y="0px"
   viewBox="0 0 1000 1000"
   xml:space="preserve"
   sodipodi:docname="Genoa Cricket and Football Club.svg"
   width="1000"
   height="1000"
   inkscape:version="1.0.1 (3bc2e813f5, 2020-09-07)"><metadata
   id="metadata117"><rdf:RDF><cc:Work
       rdf:about=""><dc:format>image/svg+xml</dc:format><dc:type
         rdf:resource="http://purl.org/dc/dcmitype/StillImage" /><dc:title /></cc:Work></rdf:RDF></metadata><defs
   id="defs115" /><sodipodi:namedview
   pagecolor="#ffffff"
   bordercolor="#666666"
   borderopacity="1"
   objecttolerance="10"
   gridtolerance="10"
   guidetolerance="10"
   inkscape:pageopacity="0"
   inkscape:pageshadow="2"
   inkscape:window-width="1920"
   inkscape:window-height="1017"
   id="namedview113"
   showgrid="false"
   inkscape:zoom="0.54455621"
   inkscape:cx="-35.579495"
   inkscape:cy="491.87595"
   inkscape:window-x="-8"
   inkscape:window-y="-8"
   inkscape:window-maximized="1"
   inkscape:current-layer="Layer_1"
   inkscape:document-rotation="0" />






















































<g
   id="g1004"
   transform="translate(155.00004,25.000051)"><path
     style="clip-rule:evenodd;fill:#93002a;fill-opacity:1;fill-rule:evenodd;stroke-width:4.51267"
     d="M 1.1732628,1.1732444 H 680.17226 V 722.73575 c 0,0 0,169.57263 -169.74862,169.57263 -168.78742,0 -169.75314,56.52571 -169.75314,56.52571 0,0 -0.42419,-56.52571 -169.74862,-56.52571 C 0.75809709,892.30838 1.1732628,722.73575 1.1732628,722.73575 Z"
     id="path2" /><path
     style="clip-rule:evenodd;fill:#0c2a70;fill-opacity:1;fill-rule:evenodd;stroke-width:4.51267"
     d="M 340.44938,1.1732444 H 680.16775 V 722.73575 c 0,0 0,169.57263 -169.74862,169.57263 -168.78291,0 -169.74863,56.52571 -169.74863,56.52571 z"
     id="path4" /><polygon
     style="clip-rule:evenodd;fill:#ffffff;fill-rule:evenodd"
     points="382.217,339.158 231.768,339.158 231.768,292.158 382.232,292 "
     id="polygon6"
     transform="matrix(4.5126707,0,0,4.5126707,-1044.7194,-1316.5266)" /><path
     style="clip-rule:evenodd;fill:#fbdd2a;fill-rule:evenodd;stroke-width:4.51267"
     d="m 232.63717,746.98233 c 1.4621,5.24372 3.05056,10.46488 4.42242,15.79435 -6.66071,2.139 -12.94234,-1.06048 -18.3756,-4.84661 3.07313,-5.46936 7.95133,-9.89177 13.95318,-10.94774"
     id="path8" /><path
     style="fill:none;stroke:#343536;stroke-width:2.81591;stroke-linejoin:round;stroke-miterlimit:2.613"
     d="m 232.63717,746.98233 c 1.4621,5.24372 3.05056,10.46488 4.42242,15.79435 -6.66071,2.139 -12.94234,-1.06048 -18.3756,-4.84661 3.07313,-5.46936 7.95133,-9.89177 13.95318,-10.94774 z"
     id="path10" /><path
     style="clip-rule:evenodd;fill:#fbdd2a;fill-rule:evenodd;stroke-width:4.51267"
     d="m 242.89898,785.88607 c -4.7022,4.53974 -13.70498,6.89987 -19.77903,5.75365 0.48285,-5.62279 4.95491,-13.19956 9.46758,-17.26999 z"
     id="path12" /><path
     style="fill:none;stroke:#343536;stroke-width:2.81591;stroke-linejoin:round;stroke-miterlimit:2.613"
     d="m 242.89898,785.88607 c -4.7022,4.53974 -13.70498,6.89987 -19.77903,5.75365 0.48285,-5.62279 4.95491,-13.19956 9.46758,-17.26999 z"
     id="path14" /><path
     style="clip-rule:evenodd;fill:#fbdd2a;fill-rule:evenodd;stroke-width:4.51267"
     d="m 369.65539,789.31118 -5.48741,16.90447 c -5.90708,-2.16609 -9.49917,-9.27354 -11.97211,-14.28712 4.71122,-2.97836 11.94504,-4.68866 17.45952,-2.61735"
     id="path16" /><path
     style="fill:none;stroke:#343536;stroke-width:2.81591;stroke-linejoin:round;stroke-miterlimit:2.613"
     d="m 369.65539,789.31118 -5.48741,16.90447 c -5.90708,-2.16609 -9.49917,-9.27354 -11.97211,-14.28712 4.71122,-2.97836 11.94504,-4.68866 17.45952,-2.61735 z"
     id="path18" /><path
     style="clip-rule:evenodd;fill:#fbdd2a;fill-rule:evenodd;stroke-width:4.51267"
     d="m 268.56254,799.80314 c -3.93956,5.13993 -11.04702,8.57408 -17.40988,9.1878 -0.57763,-1.09658 -0.66337,-2.79786 -0.69947,-4.25094 0.0451,-4.67964 1.8502,-8.94862 4.72026,-12.7167 z"
     id="path20" /><path
     style="fill:none;stroke:#343536;stroke-width:2.81591;stroke-linejoin:round;stroke-miterlimit:2.613"
     d="m 268.56254,799.80314 c -3.93956,5.13993 -11.04702,8.57408 -17.40988,9.1878 -0.57763,-1.09658 -0.66337,-2.79786 -0.69947,-4.25094 0.0451,-4.67964 1.8502,-8.94862 4.72026,-12.7167 z"
     id="path22" /><path
     style="clip-rule:evenodd;fill:#fbdd2a;fill-rule:evenodd;stroke-width:4.51267"
     d="m 336.09466,786.17036 c 0.99278,7.64447 0.48737,15.1716 -3.88541,21.29981 -3.32133,-4.83758 -9.92788,-7.99194 -11.35388,-13.84487 l 14.13368,-7.48201 z"
     id="path24" /><path
     style="fill:none;stroke:#343536;stroke-width:2.81591;stroke-linejoin:round;stroke-miterlimit:2.613"
     d="m 336.09466,786.17036 c 0.99278,7.64447 0.48737,15.1716 -3.88541,21.29981 -3.32133,-4.83758 -9.92788,-7.99194 -11.35388,-13.84487 l 14.13368,-7.48201 z"
     id="path26" /><path
     style="clip-rule:evenodd;fill:#fbdd2a;fill-rule:evenodd;stroke-width:4.51267"
     d="m 370.56695,847.62391 c -3.58757,5.82586 -9.88275,8.96217 -16.14182,10.12644 -1.74641,-5.54608 -2.26537,-13.24018 0.31588,-18.04166 z"
     id="path28" /><path
     style="fill:none;stroke:#343536;stroke-width:2.81591;stroke-linejoin:round;stroke-miterlimit:2.613"
     d="m 370.56695,847.62391 c -3.58757,5.82586 -9.88275,8.96217 -16.14182,10.12644 -1.74641,-5.54608 -2.26537,-13.24018 0.31588,-18.04166 z"
     id="path30" /><path
     style="clip-rule:evenodd;fill:#fbdd2a;fill-rule:evenodd;stroke-width:4.51267"
     d="m 474.24104,856.90648 c -5.4513,-3.28523 -16.12377,-3.33035 -20.0182,-9.37733 l 3.23558,-2.65797 10.80785,-9.88275 c 3.32132,5.83489 7.36919,14.63911 5.97477,21.91805"
     id="path32" /><path
     style="fill:none;stroke:#343536;stroke-width:2.81591;stroke-linejoin:round;stroke-miterlimit:2.613"
     d="m 474.24104,856.90648 c -5.4513,-3.28523 -16.12377,-3.33035 -20.0182,-9.37733 l 3.23558,-2.65797 10.80785,-9.88275 c 3.32132,5.83489 7.36919,14.63911 5.97477,21.91805 z"
     id="path34" /><path
     style="clip-rule:evenodd;fill:#fbdd2a;fill-rule:evenodd;stroke-width:4.51267"
     d="m 407.76489,863.29642 c -3.26717,5.78073 -11.59756,8.93509 -17.31963,10.65893 -2.08485,-4.5939 -3.05508,-13.65083 -1.26355,-18.31242 z"
     id="path36" /><path
     style="fill:none;stroke:#343536;stroke-width:2.81591;stroke-linejoin:round;stroke-miterlimit:2.613"
     d="m 407.76489,863.29642 c -3.26717,5.78073 -11.59756,8.93509 -17.31963,10.65893 -2.08485,-4.5939 -3.05508,-13.65083 -1.26355,-18.31242 z"
     id="path38" /><path
     style="clip-rule:evenodd;fill:#fbdd2a;fill-rule:evenodd;stroke-width:4.51267"
     d="m 196.83815,524.16019 c -4.01176,3.5966 -12.73024,7.74826 -16.86836,11.3629 -4.5939,-4.47656 -5.81683,-17.24742 -4.63451,-23.28086 6.03344,0.36552 17.63551,6.78705 21.50287,11.91796"
     id="path40" /><path
     style="fill:none;stroke:#343536;stroke-width:2.81591;stroke-linejoin:round;stroke-miterlimit:2.613"
     d="m 196.83815,524.16019 c -4.01176,3.5966 -12.73024,7.74826 -16.86836,11.3629 -4.5939,-4.47656 -5.81683,-17.24742 -4.63451,-23.28086 6.03344,0.36552 17.63551,6.78705 21.50287,11.91796 z"
     id="path42" /><path
     style="clip-rule:evenodd;fill:#fbdd2a;fill-rule:evenodd;stroke-width:4.51267"
     d="m 172.1042,551.46185 c -0.1444,5.33397 0.0993,13.04162 -0.32491,18.52902 -6.43507,-0.15343 -16.18244,-6.04698 -19.60304,-11.13727 4.42693,-4.04786 13.61924,-8.28526 19.92795,-7.39175"
     id="path44" /><path
     style="fill:none;stroke:#343536;stroke-width:2.81591;stroke-linejoin:round;stroke-miterlimit:2.613"
     d="m 172.1042,551.46185 c -0.1444,5.33397 0.0993,13.04162 -0.32491,18.52902 -6.43507,-0.15343 -16.18244,-6.04698 -19.60304,-11.13727 4.42693,-4.04786 13.61924,-8.28526 19.92795,-7.39175 z"
     id="path46" /><path
     style="clip-rule:evenodd;fill:#fbdd2a;fill-rule:evenodd;stroke-width:4.51267"
     d="m 190.57005,602.76189 c -5.72658,3.61465 -17.82956,6.40799 -23.5787,4.22837 1.33124,-5.50095 8.38905,-14.73838 13.83133,-17.17974 2.89263,4.58036 7.00367,8.14989 9.74737,12.95137"
     id="path48" /><path
     style="fill:none;stroke:#343536;stroke-width:2.81591;stroke-linejoin:round;stroke-miterlimit:2.613"
     d="m 190.57005,602.76189 c -5.72658,3.61465 -17.82956,6.40799 -23.5787,4.22837 1.33124,-5.50095 8.38905,-14.73838 13.83133,-17.17974 2.89263,4.58036 7.00367,8.14989 9.74737,12.95137 z"
     id="path50" /><path
     style="clip-rule:evenodd;fill:#fbdd2a;fill-rule:evenodd;stroke-width:4.51267"
     d="m 260.59768,635.76305 -1.65164,2.53612 c -3.33938,-4.92784 -17.19328,-9.35025 -18.3756,-15.40626 l 19.56243,-12.26092 c -0.005,0 3.05959,19.45863 0.46481,25.13106"
     id="path52" /><path
     style="fill:none;stroke:#343536;stroke-width:2.81591;stroke-linejoin:round;stroke-miterlimit:2.613"
     d="m 260.59768,635.76305 -1.65164,2.53612 c -3.33938,-4.92784 -17.19328,-9.35025 -18.3756,-15.40626 l 19.56243,-12.26092 c -0.005,0 3.05959,19.45863 0.46481,25.13106 z"
     id="path54" /><path
     style="clip-rule:evenodd;fill:#fbdd2a;fill-rule:evenodd;stroke-width:4.51267"
     d="m 193.2235,362.34936 -12.71219,12.47302 c -4.91881,-3.85382 -7.11648,-11.68331 -7.19771,-17.80249 5.82586,-0.54152 15.68604,1.30868 19.9099,5.32947"
     id="path56" /><path
     style="fill:none;stroke:#343536;stroke-width:2.81591;stroke-linejoin:round;stroke-miterlimit:2.613"
     d="m 193.2235,362.34936 -12.71219,12.47302 c -4.91881,-3.85382 -7.11648,-11.68331 -7.19771,-17.80249 5.82586,-0.54152 15.68604,1.30868 19.9099,5.32947 z"
     id="path58" /><path
     style="clip-rule:evenodd;fill:#fbdd2a;fill-rule:evenodd;stroke-width:4.51267"
     d="m 170.19534,394.23138 -3.77259,18.16801 c -6.43507,-0.42871 -16.72847,-8.84935 -19.64365,-14.11112 4.6661,-3.47025 17.32414,-5.69048 23.41624,-4.05689"
     id="path60" /><path
     style="fill:none;stroke:#343536;stroke-width:2.81591;stroke-linejoin:round;stroke-miterlimit:2.613"
     d="m 170.19534,394.23138 -3.77259,18.16801 c -6.43507,-0.42871 -16.72847,-8.84935 -19.64365,-14.11112 4.6661,-3.47025 17.32414,-5.69048 23.41624,-4.05689 z"
     id="path62" /><path
     style="clip-rule:evenodd;fill:#fbdd2a;fill-rule:evenodd;stroke-width:4.51267"
     d="m 188.44007,465.3285 c -3.84479,2.91067 -12.87014,5.82586 -17.43245,4.93235 0.36553,-4.70671 3.92152,-16.29525 7.52714,-19.8016 z"
     id="path64" /><path
     style="fill:none;stroke:#343536;stroke-width:2.81591;stroke-linejoin:round;stroke-miterlimit:2.613"
     d="m 188.44007,465.3285 c -3.84479,2.91067 -12.87014,5.82586 -17.43245,4.93235 0.36553,-4.70671 3.92152,-16.29525 7.52714,-19.8016 z"
     id="path66" /><path
     style="clip-rule:evenodd;fill:#fbdd2a;fill-rule:evenodd;stroke-width:4.51267"
     d="m 529.73336,513.74495 c 2.90616,5.16249 5.31592,10.57318 6.98561,16.35843 6.00637,2.6715 12.69414,4.14263 17.39635,9.88275 3.10471,3.47927 5.53704,7.26088 7.63092,11.27265 -0.12184,0.8213 0.43322,0.89802 0.40614,1.64712 l 0.3565,0.41517 c 2.11645,14.91437 0.59568,29.23759 -1.07401,43.05539 l -22.64458,-13.82682 c -13.15444,-8.62372 -22.54079,-21.12382 -20.24384,-37.2521 0.29332,-2.89262 1.15975,-5.61828 2.11644,-8.32137 0.87094,-5.13993 -0.3204,-11.02445 -2.02168,-15.74922 -4.12007,-7.25186 -10.41073,-16.3855 -19.46315,-18.03714 -4.54877,-0.33845 -7.7302,3.89895 -9.47661,7.53616 -4.24642,10.52806 -1.23195,24.26012 1.52529,35.1537 2.81139,10.36561 6.54788,20.23031 10.37914,30.04988 l 12.21129,28.79535 c 6.36738,15.28893 13.07772,30.3432 17.14363,46.81445 3.46122,13.75913 -0.78971,27.16627 -11.9315,35.61851 -14.62105,8.81775 -32.24303,2.97836 -46.33159,-1.94948 -6.51178,-2.49551 -12.91075,-5.46033 -19.21946,-8.57407 -0.88449,8.6914 -2.96483,16.95861 -9.20585,23.96679 -2.96934,3.64173 -6.29518,6.60655 -9.68871,9.41795 -11.75099,7.82948 -25.84857,11.96309 -34.34142,25.25741 1.83666,0.64532 4.17422,0.44224 6.31774,0.54152 12.02175,-0.20307 22.85668,-4.03432 34.93258,-4.3457 9.06596,-0.0767 18.89004,6.34933 22.09855,14.90987 1.45308,3.35291 2.02619,7.72118 1.57944,11.4712 l 0.13989,0.12636 c -0.39712,3.56501 -2.01716,6.77803 -2.71663,10.28438 -1.68322,5.07675 -3.18143,10.44232 -5.89355,15.28892 -0.43321,0.59116 -0.69495,1.25453 -1.12365,1.83666 l 0.13538,0.12184 c -2.2067,3.19046 -3.47927,6.68778 -5.65438,9.90532 -4.65256,7.02622 -12.31508,13.07772 -13.50642,21.17796 0,1.86824 0.23466,3.81321 1.16878,5.31593 9.02986,8.34844 22.45956,3.1724 32.21596,9.4405 1.27257,0.9973 2.27438,2.09839 2.99641,3.35292 l -17.72577,15.86203 c -1.69676,0.11733 -3.32133,-0.0316 -4.72025,-0.86643 -5.05871,-9.49015 -15.89363,-9.70675 -23.20867,-16.54345 -14.06599,4.47206 -11.37644,20.46947 -17.26096,30.6636 -0.46481,0.61372 -0.97925,1.34026 -1.58395,1.80958 l -21.45775,-8.31234 c -2.35562,-2.22023 -0.0812,-4.97296 0.72654,-7.16161 4.50816,-7.91522 11.96309,-13.82682 17.51367,-21.20053 -6.61557,-3.68234 -11.45767,3.31682 -16.9541,5.47387 -4.38632,5.93417 -8.39357,15.0272 -16.56601,15.76728 l -0.85741,-0.18502 -19.35936,-10.17156 c -0.64531,-4.46755 0.47383,-9.0434 4.44949,-11.87284 5.25275,-4.5217 12.66256,-5.36557 17.19779,-10.7898 -4.28252,-2.14351 -9.12913,-5.51899 -11.50731,-9.77444 l 7.36468,-19.0886 c 5.74012,1.43954 10.99287,5.29788 15.51456,9.81055 9.54881,4.41339 22.3287,7.98291 32.36036,1.62005 3.65527,-2.52259 5.21214,-6.80962 7.62642,-10.27535 3.94407,-7.24735 7.7302,-14.58044 7.39627,-23.16354 -0.29333,-3.35743 -1.48016,-6.25456 -3.90347,-8.49736 -2.67601,-1.41247 -5.75816,-2.39623 -8.84483,-1.48016 l -14.49921,4.76087 c -2.5632,1.31319 -5.58217,2.25633 -8.5109,3.12277 l -19.91441,4.83758 c -8.48834,0.9612 -9.02083,1.00181 -17.45501,-1.76897 -11.48926,-3.55147 -16.64725,-6.48922 -20.59132,-13.94415 -6.95854,-12.73476 -11.74648,-27.21592 -11.28168,-43.26297 0.62726,-16.50284 0.85741,-34.41814 16.07865,-45.01389 8.92155,-6.80962 20.33409,-8.89899 29.76106,-14.72485 6.76901,-4.88271 9.90531,-12.60389 8.64628,-20.74926 l -0.16246,1.03792 c 0.6047,5.10834 -1.71481,13.37104 -5.82134,16.72847 -6.41702,4.53523 -14.12466,7.81594 -21.011,11.42157 -9.52624,4.31862 -18.40267,7.82046 -22.50017,18.18155 -4.76087,11.25009 -5.14896,20.4785 -5.35203,33.14105 0.14441,13.07772 2.87908,25.6771 7.98743,36.41274 -5.88453,3.26717 -18.00105,9.65712 -21.7962,16.1328 5.37008,10.82138 20.37019,6.57496 24.23304,18.71856 l 0.94766,3.40255 -17.95592,9.50368 c -1.07401,-0.19404 -2.7437,-0.0496 -2.91067,-1.55687 -1.72384,-4.1697 -5.9477,-8.57858 -10.63636,-9.32317 -9.62102,-1.54334 -18.02812,3.12728 -26.47584,5.79426 -3.11826,4.56231 -5.32044,9.69773 -9.59394,13.61473 l -1.47564,0.83936 c -5.85294,-4.58939 -11.49829,-6.20944 -17.11205,-11.33132 2.51807,-3.74551 6.61106,-6.88182 7.81594,-11.5389 -6.95853,-0.97473 -10.02715,7.97841 -17.17973,6.59302 -1.80507,-0.70398 -2.78883,-2.68956 -4.04787,-4.08848 -1.99009,-2.9197 -4.81502,-6.41702 -8.39808,-7.52714 l -1.0695,-1.13719 3.50183,-2.74371 c 4.43596,-1.3899 9.51271,-1.54784 13.32592,-4.12909 l 1.22744,-1.39893 c -3.11825,-3.56049 -8.18147,-0.15794 -11.90442,-1.73286 -1.17781,-2.77078 -0.83936,-6.31323 -1.83215,-9.1878 -0.76715,-2.87457 -1.96752,-5.54156 -3.1724,-8.18147 1.27257,-1.37637 3.8132,-3.69137 7.92425,-3.99372 33.25387,1.03341 40.20789,12.3196 64.01674,-8.48833 -6.33579,-16.63822 -30.26197,-19.95503 -32.6943,-42.99221 -0.18502,-18.63282 8.21758,-35.88025 23.26282,-48.41193 10.67698,-7.09392 21.43519,-14.03892 34.59865,-16.31331 2.91067,-4.7744 1.40344,-11.575 -0.16697,-16.69688 -2.85201,-8.23111 -30.52371,-35.85768 -37.36492,-42.03553 l 30.49663,-1.76896 c 5.64084,2.89713 11.18691,6.08308 17.70772,6.1282 6.35384,-0.87997 9.97301,-7.49103 13.83585,-12.31056 3.93956,-5.49644 7.41883,-11.89992 12.9288,-16.08767 5.23019,-4.04336 10.15351,-8.63726 16.12378,-11.2185 l 8.17244,14.48116 c 4.8782,25.49659 16.69237,48.75489 40.45158,63.09616 12.73927,6.07405 16.57504,19.26008 21.53447,30.62298 1.59297,6.75998 3.81772,13.41166 3.63721,20.83951 13.45678,7.01721 27.13469,13.43423 42.05809,15.86655 5.49192,0.74008 12.73024,0.82582 16.82324,-3.33937 6.42604,-6.2681 6.0921,-15.62738 3.73198,-23.73665 -3.19498,-11.43962 -7.9062,-22.05342 -12.11653,-32.9425 l -15.44687,-36.32248 c -7.23832,-18.74112 -14.86473,-37.7169 -15.29344,-59.61238 0.0406,-11.28619 3.8448,-23.10939 14.26907,-29.43615 8.14988,-4.9865 18.58769,-2.59028 25.75832,2.91518 6.91341,5.09029 11.79612,11.79612 15.48749,18.27181"
     id="path68" /><path
     style="fill:none;stroke:#343536;stroke-width:2.81591;stroke-linejoin:round;stroke-miterlimit:2.613"
     d="m 529.73336,513.74495 c 2.90616,5.16249 5.31592,10.57318 6.98561,16.35843 6.00637,2.6715 12.69414,4.14263 17.39635,9.88275 3.10471,3.47927 5.53704,7.26088 7.63092,11.27265 -0.12184,0.8213 0.43322,0.89802 0.40614,1.64712 l 0.3565,0.41517 c 2.11645,14.91437 0.59568,29.23759 -1.07401,43.05539 l -22.64458,-13.82682 c -13.15444,-8.62372 -22.54079,-21.12382 -20.24384,-37.2521 0.29332,-2.89262 1.15975,-5.61828 2.11644,-8.32137 0.87094,-5.13993 -0.3204,-11.02445 -2.02168,-15.74922 -4.12007,-7.25186 -10.41073,-16.3855 -19.46315,-18.03714 -4.54877,-0.33845 -7.7302,3.89895 -9.47661,7.53616 -4.24642,10.52806 -1.23195,24.26012 1.52529,35.1537 2.81139,10.36561 6.54788,20.23031 10.37914,30.04988 l 12.21129,28.79535 c 6.36738,15.28893 13.07772,30.3432 17.14363,46.81445 3.46122,13.75913 -0.78971,27.16627 -11.9315,35.61851 -14.62105,8.81775 -32.24303,2.97836 -46.33159,-1.94948 -6.51178,-2.49551 -12.91075,-5.46033 -19.21946,-8.57407 -0.88449,8.6914 -2.96483,16.95861 -9.20585,23.96679 -2.96934,3.64173 -6.29518,6.60655 -9.68871,9.41795 -11.75099,7.82948 -25.84857,11.96309 -34.34142,25.25741 1.83666,0.64532 4.17422,0.44224 6.31774,0.54152 12.02175,-0.20307 22.85668,-4.03432 34.93258,-4.3457 9.06596,-0.0767 18.89004,6.34933 22.09855,14.90987 1.45308,3.35291 2.02619,7.72118 1.57944,11.4712 l 0.13989,0.12636 c -0.39712,3.56501 -2.01716,6.77803 -2.71663,10.28438 -1.68322,5.07675 -3.18143,10.44232 -5.89355,15.28892 -0.43321,0.59116 -0.69495,1.25453 -1.12365,1.83666 l 0.13538,0.12184 c -2.2067,3.19046 -3.47927,6.68778 -5.65438,9.90532 -4.65256,7.02622 -12.31508,13.07772 -13.50642,21.17796 0,1.86824 0.23466,3.81321 1.16878,5.31593 9.02986,8.34844 22.45956,3.1724 32.21596,9.4405 1.27257,0.9973 2.27438,2.09839 2.99641,3.35292 l -17.72577,15.86203 c -1.69676,0.11733 -3.32133,-0.0316 -4.72025,-0.86643 -5.05871,-9.49015 -15.89363,-9.70675 -23.20867,-16.54345 -14.06599,4.47206 -11.37644,20.46947 -17.26096,30.6636 -0.46481,0.61372 -0.97925,1.34026 -1.58395,1.80958 l -21.45775,-8.31234 c -2.35562,-2.22023 -0.0812,-4.97296 0.72654,-7.16161 4.50816,-7.91522 11.96309,-13.82682 17.51367,-21.20053 -6.61557,-3.68234 -11.45767,3.31682 -16.9541,5.47387 -4.38632,5.93417 -8.39357,15.0272 -16.56601,15.76728 l -0.85741,-0.18502 -19.35936,-10.17156 c -0.64531,-4.46755 0.47383,-9.0434 4.44949,-11.87284 5.25275,-4.5217 12.66256,-5.36557 17.19779,-10.7898 -4.28252,-2.14351 -9.12913,-5.51899 -11.50731,-9.77444 l 7.36468,-19.0886 c 5.74012,1.43954 10.99287,5.29788 15.51456,9.81055 9.54881,4.41339 22.3287,7.98291 32.36036,1.62005 3.65527,-2.52259 5.21214,-6.80962 7.62642,-10.27535 3.94407,-7.24735 7.7302,-14.58044 7.39627,-23.16354 -0.29333,-3.35743 -1.48016,-6.25456 -3.90347,-8.49736 -2.67601,-1.41247 -5.75816,-2.39623 -8.84483,-1.48016 l -14.49921,4.76087 c -2.5632,1.31319 -5.58217,2.25633 -8.5109,3.12277 l -19.91441,4.83758 c -8.48834,0.9612 -9.02083,1.00181 -17.45501,-1.76897 -11.48926,-3.55147 -16.64725,-6.48922 -20.59132,-13.94415 -6.95854,-12.73476 -11.74648,-27.21592 -11.28168,-43.26297 0.62726,-16.50284 0.85741,-34.41814 16.07865,-45.01389 8.92155,-6.80962 20.33409,-8.89899 29.76106,-14.72485 6.76901,-4.88271 9.90531,-12.60389 8.64628,-20.74926 l -0.16246,1.03792 c 0.6047,5.10834 -1.71481,13.37104 -5.82134,16.72847 -6.41702,4.53523 -14.12466,7.81594 -21.011,11.42157 -9.52624,4.31862 -18.40267,7.82046 -22.50017,18.18155 -4.76087,11.25009 -5.14896,20.4785 -5.35203,33.14105 0.14441,13.07772 2.87908,25.6771 7.98743,36.41274 -5.88453,3.26717 -18.00105,9.65712 -21.7962,16.1328 5.37008,10.82138 20.37019,6.57496 24.23304,18.71856 l 0.94766,3.40255 -17.95592,9.50368 c -1.07401,-0.19404 -2.7437,-0.0496 -2.91067,-1.55687 -1.72384,-4.1697 -5.9477,-8.57858 -10.63636,-9.32317 -9.62102,-1.54334 -18.02812,3.12728 -26.47584,5.79426 -3.11826,4.56231 -5.32044,9.69773 -9.59394,13.61473 l -1.47564,0.83936 c -5.85294,-4.58939 -11.49829,-6.20944 -17.11205,-11.33132 2.51807,-3.74551 6.61106,-6.88182 7.81594,-11.5389 -6.95853,-0.97473 -10.02715,7.97841 -17.17973,6.59302 -1.80507,-0.70398 -2.78883,-2.68956 -4.04787,-4.08848 -1.99009,-2.9197 -4.81502,-6.41702 -8.39808,-7.52714 l -1.0695,-1.13719 3.50183,-2.74371 c 4.43596,-1.3899 9.51271,-1.54784 13.32592,-4.12909 l 1.22744,-1.39893 c -3.11825,-3.56049 -8.18147,-0.15794 -11.90442,-1.73286 -1.17781,-2.77078 -0.83936,-6.31323 -1.83215,-9.1878 -0.76715,-2.87457 -1.96752,-5.54156 -3.1724,-8.18147 1.27257,-1.37637 3.8132,-3.69137 7.92425,-3.99372 33.25387,1.03341 40.20789,12.3196 64.01674,-8.48833 -6.33579,-16.63822 -30.26197,-19.95503 -32.6943,-42.99221 -0.18502,-18.63282 8.21758,-35.88025 23.26282,-48.41193 10.67698,-7.09392 21.43519,-14.03892 34.59865,-16.31331 2.91067,-4.7744 1.40344,-11.575 -0.16697,-16.69688 -2.85201,-8.23111 -30.52371,-35.85768 -37.36492,-42.03553 l 30.49663,-1.76896 c 5.64084,2.89713 11.18691,6.08308 17.70772,6.1282 6.35384,-0.87997 9.97301,-7.49103 13.83585,-12.31056 3.93956,-5.49644 7.41883,-11.89992 12.9288,-16.08767 5.23019,-4.04336 10.15351,-8.63726 16.12378,-11.2185 l 8.17244,14.48116 c 4.8782,25.49659 16.69237,48.75489 40.45158,63.09616 12.73927,6.07405 16.57504,19.26008 21.53447,30.62298 1.59297,6.75998 3.81772,13.41166 3.63721,20.83951 13.45678,7.01721 27.13469,13.43423 42.05809,15.86655 5.49192,0.74008 12.73024,0.82582 16.82324,-3.33937 6.42604,-6.2681 6.0921,-15.62738 3.73198,-23.73665 -3.19498,-11.43962 -7.9062,-22.05342 -12.11653,-32.9425 l -15.44687,-36.32248 c -7.23832,-18.74112 -14.86473,-37.7169 -15.29344,-59.61238 0.0406,-11.28619 3.8448,-23.10939 14.26907,-29.43615 8.14988,-4.9865 18.58769,-2.59028 25.75832,2.91518 6.91341,5.09029 11.79612,11.79612 15.48749,18.27181 z"
     id="path70" /><path
     style="clip-rule:evenodd;fill:#fbdd2a;fill-rule:evenodd;stroke-width:4.51267"
     d="m 199.29304,364.15442 c 6.57497,8.29429 7.0849,22.24296 19.74745,24.91446 6.23651,9.96849 -1.71933,21.27724 3.47927,31.6248 1.94947,3.05959 5.56412,4.95942 8.43869,7.1255 4.40437,2.78432 18.32145,11.14179 22.93791,13.28531 -8.30783,11.34034 -7.3737,17.77992 -5.13993,32.26108 -7.57226,-9.42697 -28.493,-17.96494 -39.80176,-22.52725 -5.9116,5.55058 -9.74285,14.49469 -17.29255,17.11656 -1.35832,0.34747 -2.69858,0.17599 -3.89444,-0.23466 l -13.44324,-16.43064 c -0.46029,-3.05959 1.47113,-5.71304 3.79515,-7.55872 l 17.68065,-13.41617 c -4.97748,-4.43596 -6.1237,-12.39631 -13.4974,-14.03892 -4.9504,-0.46932 -10.15351,-0.18502 -15.15806,-0.55054 -1.27257,-0.176 -2.58125,-1.09207 -3.29425,-2.22475 l 3.47927,-19.97759 1.54784,-1.48919 c 8.1183,-0.54603 15.00012,2.82042 22.41895,4.4856 0.713,0.0767 1.81861,0.19404 2.3511,-0.39712 0.6408,-0.76715 -0.0767,-1.60651 -0.3926,-2.27889 -3.84931,-5.18506 -9.90531,-9.17426 -13.2853,-14.58044 0.009,-3.23559 1.47564,-5.97478 3.17692,-8.66433 3.80418,-3.39353 6.62911,-9.12913 12.5362,-7.99645 1.27708,0.30686 2.50453,0.68592 3.61013,1.55235"
     id="path72" /><path
     style="fill:none;stroke:#343536;stroke-width:2.81591;stroke-linejoin:round;stroke-miterlimit:2.613"
     d="m 199.29304,364.15442 c 6.57497,8.29429 7.0849,22.24296 19.74745,24.91446 6.23651,9.96849 -1.71933,21.27724 3.47927,31.6248 1.94947,3.05959 5.56412,4.95942 8.43869,7.1255 4.40437,2.78432 18.32145,11.14179 22.93791,13.28531 -8.30783,11.34034 -7.3737,17.77992 -5.13993,32.26108 -7.57226,-9.42697 -28.493,-17.96494 -39.80176,-22.52725 -5.9116,5.55058 -9.74285,14.49469 -17.29255,17.11656 -1.35832,0.34747 -2.69858,0.17599 -3.89444,-0.23466 l -13.44324,-16.43064 c -0.46029,-3.05959 1.47113,-5.71304 3.79515,-7.55872 l 17.68065,-13.41617 c -4.97748,-4.43596 -6.1237,-12.39631 -13.4974,-14.03892 -4.9504,-0.46932 -10.15351,-0.18502 -15.15806,-0.55054 -1.27257,-0.176 -2.58125,-1.09207 -3.29425,-2.22475 l 3.47927,-19.97759 1.54784,-1.48919 c 8.1183,-0.54603 15.00012,2.82042 22.41895,4.4856 0.713,0.0767 1.81861,0.19404 2.3511,-0.39712 0.6408,-0.76715 -0.0767,-1.60651 -0.3926,-2.27889 -3.84931,-5.18506 -9.90531,-9.17426 -13.2853,-14.58044 0.009,-3.23559 1.47564,-5.97478 3.17692,-8.66433 3.80418,-3.39353 6.62911,-9.12913 12.5362,-7.99645 1.27708,0.30686 2.50453,0.68592 3.61013,1.55235 z"
     id="path74" /><path
     style="clip-rule:evenodd;fill:#fbdd2a;fill-rule:evenodd;stroke-width:4.51267"
     d="m 271.36942,534.46262 -2.99641,-8.1905 c -12.73476,-17.23389 -21.10125,-36.76022 -24.33684,-58.95804 -1.26354,-12.23837 1.48919,-28.89012 11.62916,-36.90462 l 5.0587,-3.67783 c -3.10472,-6.69229 0.50542,-12.61743 5.02712,-18.14545 6.63362,-8.64176 17.04435,-16.22756 17.70772,-27.08956 -4.15617,-10.63637 -7.45494,-21.69692 -14.39091,-30.86216 -5.65889,-7.47298 -10.25279,-12.02626 -21.75107,-18.08678 -4.33217,-2.83847 -5.27532,-3.58306 -7.40078,-4.62098 17.0263,-2.139 20.56424,-2.47745 30.00023,1.26355 8.16793,3.2401 25.2168,15.36113 25.2168,15.36113 -12.13457,-12.84306 -27.13468,-21.56154 -44.06171,-21.6924 -8.73202,0.56859 -17.81151,1.16878 -25.84858,3.4206 1.62456,-13.19956 6.22297,-29.99121 20.92525,-34.59413 7.46847,-2.77981 15.39724,-1.15525 21.4758,3.34389 3.88541,-6.49825 9.74737,-11.4306 17.56783,-10.95226 15.37467,1.62456 27.7439,12.73476 44.21064,10.90713 1.31318,2.46843 3.59659,5.26177 6.52081,5.8755 6.07856,0.88899 10.52806,-3.20851 15.00011,-6.34031 9.5443,-8.21757 13.40715,-20.55521 8.92155,-32.38292 -0.82582,-1.9946 -1.82312,-3.87639 -3.01897,-5.67694 9.18328,-1.31319 18.04617,4.42693 22.37382,12.1797 3.09118,6.46665 1.94947,14.5308 0.69044,21.09222 l -2.45941,10.27986 c 0.0541,0.34748 -0.0767,1.06951 0.52798,0.92059 3.31682,-2.26085 5.93416,-5.90709 8.83581,-8.97119 3.82223,2.31951 3.06411,7.70313 2.54064,11.39449 -2.19767,10.2212 -6.63363,19.73391 -13.11383,28.62387 7.09844,9.57138 12.66256,19.95503 16.24111,31.34501 l 0.35198,0.29784 2.25634,5.92514 48.86771,-48.91284 c 4.81051,0.36101 13.87646,5.21665 16.01096,9.63906 2.46843,4.65708 2.15705,11.12825 -0.9251,15.30247 0,0 -51.37676,42.99673 -50.13126,44.63031 l 82.10353,-68.32634 c 7.15258,0.27978 19.409,9.88726 22.27906,16.50735 3.79064,8.20854 2.00362,17.68515 -4.35022,24.04802 l -1.6742,1.50272 0.31589,-0.0316 -86.55303,60.78116 0.74459,-0.32943 93.79135,-65.03209 c 6.43507,1.95398 14.81059,12.74829 15.76727,19.21495 0.97925,7.10746 -2.11644,13.8539 -8.05963,17.86115 l -14.52628,8.10476 0.65433,0.13989 -87.02685,50.11321 94.94208,-53.23147 c 6.06052,3.92151 10.31145,15.80789 9.59845,23.12744 -0.56408,4.91881 -3.16338,9.91885 -7.59483,12.85209 l -95.19027,43.98951 68.25414,-30.72677 c 5.17152,4.51267 5.11737,17.05789 3.11826,23.65542 -1.34929,5.24372 -6.28615,10.05874 -11.23204,11.81868 l -62.28839,27.4957 c -2.57222,0.16246 -2.24731,3.42512 -3.75454,5.04066 -7.18869,11.94504 -21.73303,11.01994 -30.11306,21.15088 -9.2961,3.32133 -16.80067,10.13997 -24.35488,16.82775 -6.77352,7.07136 -10.53257,15.75374 -17.57685,22.56787 -2.53161,1.76897 -5.49644,-0.0451 -8.00999,-0.79423 -3.65075,-1.44406 -7.14356,-3.42963 -10.55965,-5.58669 l -13.64181,7.18869 c -11.77355,3.07313 -24.9325,3.9531 -37.61311,4.78343 l -28.06881,1.6742 -5.62279,0.62275 c 2.94227,7.47749 11.76454,10.93871 17.8431,15.79434 2.69858,2.04876 4.21484,4.9504 3.65076,8.44772 l -0.2843,1.25001 c -4.83759,2.61284 -9.21488,6.06503 -14.56239,7.73021 -1.39442,0.65885 -2.51807,1.85922 -3.67332,3.02349 l -6.58398,3.61014 c -5.40618,-0.84839 -6.54789,-6.61558 -8.23563,-10.75821 -1.80958,-6.59301 -4.25544,-12.82501 -6.46665,-19.16983 -1.06048,-2.26536 -2.77078,-4.3818 -5.0903,-5.82585 -7.73471,8.64627 -17.52721,13.30786 -28.6013,15.47846 -1.26355,0.32491 -2.18865,-1.00633 -2.92873,-1.75543 l -8.81775,-12.96491 c -0.31138,-1.7464 -1.00633,-4.03884 0.15794,-5.56412 3.84028,-5.17152 12.40533,-2.11193 15.2077,-8.48382 -1.94045,-1.44405 -4.31863,-1.71933 -6.64716,-2.13901 -5.72658,-0.85289 -11.80064,-0.50993 -17.14364,-2.56319 -0.80777,-0.37907 -1.70128,-0.97474 -2.22023,-1.74641 l 2.21572,-20.43337 c 4.41339,-3.028 10.51001,-1.62456 15.0317,-0.0902 l 10.98384,4.454 c 0.84839,0.0903 1.93143,-0.0722 2.03071,-1.0695 -0.70849,-4.84661 -6.45312,-7.27894 -10.3972,-8.89899 -3.92602,-1.72835 -8.6914,-2.59478 -11.35388,-6.56593 -0.56408,-1.20489 -0.51895,-2.59479 -0.21661,-3.8448 l 20.42886,-16.62919 c 5.08127,0.49188 6.90439,6.17785 9.88275,9.53076 1.98107,3.18143 3.79065,6.43958 4.57134,10.23925 6.99013,6.77803 12.95588,22.25198 25.52818,17.24743 l 34.84684,-15.37016 z"
     id="path76" /><path
     style="fill:none;stroke:#343536;stroke-width:2.81591;stroke-linejoin:round;stroke-miterlimit:2.613"
     d="m 271.36942,534.46262 -2.99641,-8.1905 c -12.73476,-17.23389 -21.10125,-36.76022 -24.33684,-58.95804 -1.26354,-12.23837 1.48919,-28.89012 11.62916,-36.90462 l 5.0587,-3.67783 c -3.10472,-6.69229 0.50542,-12.61743 5.02712,-18.14545 6.63362,-8.64176 17.04435,-16.22756 17.70772,-27.08956 -4.15617,-10.63637 -7.45494,-21.69692 -14.39091,-30.86216 -5.65889,-7.47298 -10.25279,-12.02626 -21.75107,-18.08678 -4.33217,-2.83847 -5.27532,-3.58306 -7.40078,-4.62098 17.0263,-2.139 20.56424,-2.47745 30.00023,1.26355 8.16793,3.2401 25.2168,15.36113 25.2168,15.36113 -12.13457,-12.84306 -27.13468,-21.56154 -44.06171,-21.6924 -8.73202,0.56859 -17.81151,1.16878 -25.84858,3.4206 1.62456,-13.19956 6.22297,-29.99121 20.92525,-34.59413 7.46847,-2.77981 15.39724,-1.15525 21.4758,3.34389 3.88541,-6.49825 9.74737,-11.4306 17.56783,-10.95226 15.37467,1.62456 27.7439,12.73476 44.21064,10.90713 1.31318,2.46843 3.59659,5.26177 6.52081,5.8755 6.07856,0.88899 10.52806,-3.20851 15.00011,-6.34031 9.5443,-8.21757 13.40715,-20.55521 8.92155,-32.38292 -0.82582,-1.9946 -1.82312,-3.87639 -3.01897,-5.67694 9.18328,-1.31319 18.04617,4.42693 22.37382,12.1797 3.09118,6.46665 1.94947,14.5308 0.69044,21.09222 l -2.45941,10.27986 c 0.0541,0.34748 -0.0767,1.06951 0.52798,0.92059 3.31682,-2.26085 5.93416,-5.90709 8.83581,-8.97119 3.82223,2.31951 3.06411,7.70313 2.54064,11.39449 -2.19767,10.2212 -6.63363,19.73391 -13.11383,28.62387 7.09844,9.57138 12.66256,19.95503 16.24111,31.34501 l 0.35198,0.29784 2.25634,5.92514 48.86771,-48.91284 c 4.81051,0.36101 13.87646,5.21665 16.01096,9.63906 2.46843,4.65708 2.15705,11.12825 -0.9251,15.30247 0,0 -51.37676,42.99673 -50.13126,44.63031 l 82.10353,-68.32634 c 7.15258,0.27978 19.409,9.88726 22.27906,16.50735 3.79064,8.20854 2.00362,17.68515 -4.35022,24.04802 l -1.6742,1.50272 0.31589,-0.0316 -86.55303,60.78116 0.74459,-0.32943 93.79135,-65.03209 c 6.43507,1.95398 14.81059,12.74829 15.76727,19.21495 0.97925,7.10746 -2.11644,13.8539 -8.05963,17.86115 l -14.52628,8.10476 0.65433,0.13989 -87.02685,50.11321 94.94208,-53.23147 c 6.06052,3.92151 10.31145,15.80789 9.59845,23.12744 -0.56408,4.91881 -3.16338,9.91885 -7.59483,12.85209 l -95.19027,43.98951 68.25414,-30.72677 c 5.17152,4.51267 5.11737,17.05789 3.11826,23.65542 -1.34929,5.24372 -6.28615,10.05874 -11.23204,11.81868 l -62.28839,27.4957 c -2.57222,0.16246 -2.24731,3.42512 -3.75454,5.04066 -7.18869,11.94504 -21.73303,11.01994 -30.11306,21.15088 -9.2961,3.32133 -16.80067,10.13997 -24.35488,16.82775 -6.77352,7.07136 -10.53257,15.75374 -17.57685,22.56787 -2.53161,1.76897 -5.49644,-0.0451 -8.00999,-0.79423 -3.65075,-1.44406 -7.14356,-3.42963 -10.55965,-5.58669 l -13.64181,7.18869 c -11.77355,3.07313 -24.9325,3.9531 -37.61311,4.78343 l -28.06881,1.6742 -5.62279,0.62275 c 2.94227,7.47749 11.76454,10.93871 17.8431,15.79434 2.69858,2.04876 4.21484,4.9504 3.65076,8.44772 l -0.2843,1.25001 c -4.83759,2.61284 -9.21488,6.06503 -14.56239,7.73021 -1.39442,0.65885 -2.51807,1.85922 -3.67332,3.02349 l -6.58398,3.61014 c -5.40618,-0.84839 -6.54789,-6.61558 -8.23563,-10.75821 -1.80958,-6.59301 -4.25544,-12.82501 -6.46665,-19.16983 -1.06048,-2.26536 -2.77078,-4.3818 -5.0903,-5.82585 -7.73471,8.64627 -17.52721,13.30786 -28.6013,15.47846 -1.26355,0.32491 -2.18865,-1.00633 -2.92873,-1.75543 l -8.81775,-12.96491 c -0.31138,-1.7464 -1.00633,-4.03884 0.15794,-5.56412 3.84028,-5.17152 12.40533,-2.11193 15.2077,-8.48382 -1.94045,-1.44405 -4.31863,-1.71933 -6.64716,-2.13901 -5.72658,-0.85289 -11.80064,-0.50993 -17.14364,-2.56319 -0.80777,-0.37907 -1.70128,-0.97474 -2.22023,-1.74641 l 2.21572,-20.43337 c 4.41339,-3.028 10.51001,-1.62456 15.0317,-0.0902 l 10.98384,4.454 c 0.84839,0.0903 1.93143,-0.0722 2.03071,-1.0695 -0.70849,-4.84661 -6.45312,-7.27894 -10.3972,-8.89899 -3.92602,-1.72835 -8.6914,-2.59478 -11.35388,-6.56593 -0.56408,-1.20489 -0.51895,-2.59479 -0.21661,-3.8448 l 20.42886,-16.62919 c 5.08127,0.49188 6.90439,6.17785 9.88275,9.53076 1.98107,3.18143 3.79065,6.43958 4.57134,10.23925 6.99013,6.77803 12.95588,22.25198 25.52818,17.24743 l 34.84684,-15.37016 z"
     id="path78" /><polyline
     style="fill:none;stroke:#343536;stroke-width:0.624;stroke-linejoin:round;stroke-miterlimit:2.613"
     points="  317.076,379.304 317.334,378.9 308.25,385.362 "
     id="polyline80"
     transform="matrix(4.5126707,0,0,4.5126707,-1044.7194,-1316.5266)" /><path
     style="fill:none;stroke:#343536;stroke-width:2.81591;stroke-linejoin:round;stroke-miterlimit:2.613"
     d="m 346.31134,422.48521 c -23.96679,-1.14622 -37.2205,7.14355 -48.60146,27.45508 -8.75007,14.34578 -4.7383,27.76195 -5.72207,44.56263 -0.4287,11.61561 1.28611,25.8937 5.47839,36.10136"
     id="path82" /><path
     style="clip-rule:evenodd;fill:#343536;fill-rule:evenodd;stroke-width:4.51267"
     d="m 312.12335,312.10979 c -2.14352,-3.8132 -6.47117,-5.24372 -10.68149,-4.74281 -1.93142,0.48737 -4.12458,1.49369 -4.65256,3.69587 -0.29784,1.31319 0.14891,2.72566 0.78971,3.79967 2.04424,2.75724 5.19409,4.05689 8.42516,4.09751 2.52709,0.0135 4.97747,-0.75362 6.19138,-3.05057 0.57311,-1.15073 0.41066,-2.61735 -0.0722,-3.79967"
     id="path84" /><path
     style="fill:none;stroke:#343536;stroke-width:2.81591;stroke-linejoin:round;stroke-miterlimit:2.613"
     d="m 312.12335,312.10979 c -2.14352,-3.8132 -6.47117,-5.24372 -10.68149,-4.74281 -1.93142,0.48737 -4.12458,1.49369 -4.65256,3.69587 -0.29784,1.31319 0.14891,2.72566 0.78971,3.79967 2.04424,2.75724 5.19409,4.05689 8.42516,4.09751 2.52709,0.0135 4.97747,-0.75362 6.19138,-3.05057 0.57311,-1.15073 0.41066,-2.61735 -0.0722,-3.79967 z"
     id="path86" /><line
     style="fill:none;stroke:#343536;stroke-width:2.81591;stroke-linejoin:round;stroke-miterlimit:2.613"
     x1="321.10812"
     y1="471.29871"
     x2="362.80515"
     y2="429.93109"
     id="line88" /><path
     style="fill:none;stroke:#343536;stroke-width:2.81591;stroke-linejoin:round;stroke-miterlimit:2.613"
     d="m 362.80515,429.93111 c 3.93957,-0.19404 11.11923,4.4856 13.01003,7.97389 2.46844,4.31863 1.94497,9.59845 -1.22744,13.38458"
     id="path90" /><polyline
     style="fill:none;stroke:#343536;stroke-width:0.624;stroke-linejoin:round;stroke-miterlimit:2.613"
     points="  314.516,391.745 314.328,391.945 314.365,391.938 304.504,400.236 304.592,400.19 315.286,391.297 "
     id="polyline92"
     transform="matrix(4.5126707,0,0,4.5126707,-1044.7194,-1316.5266)" /><path
     style="fill:none;stroke:#343536;stroke-width:2.81591;stroke-linejoin:round;stroke-miterlimit:2.613"
     d="m 378.06249,449.26791 c 3.62368,0.76264 8.73653,6.27712 9.56235,9.76993 0.87095,3.84931 -0.49188,7.69862 -3.55598,10.17607"
     id="path94" /><polyline
     style="fill:none;stroke:#343536;stroke-width:0.624;stroke-linejoin:round;stroke-miterlimit:2.613"
     points="  316.617,395.717 314.939,396.854 315.021,396.866 304.986,403.874 315.948,396.402 "
     id="polyline96"
     transform="matrix(4.5126707,0,0,4.5126707,-1044.7194,-1316.5266)" /><path
     style="fill:none;stroke:#343536;stroke-width:2.81591;stroke-linejoin:round;stroke-miterlimit:2.613"
     d="m 381.04988,472.30509 c 3.51086,1.86373 6.41251,8.16793 6.36738,12.2158 -0.0767,2.72114 -1.25903,5.57766 -3.54245,7.40529"
     id="path98" /><polyline
     style="fill:none;stroke:#343536;stroke-width:0.624;stroke-linejoin:round;stroke-miterlimit:2.613"
     points="  316.574,400.75 305.484,407.102 313.445,402.647 "
     id="polyline100"
     transform="matrix(4.5126707,0,0,4.5126707,-1044.7194,-1316.5266)" /><path
     style="fill:none;stroke:#343536;stroke-width:2.81591;stroke-linejoin:round;stroke-miterlimit:2.613"
     d="m 369.75467,500.48672 c 3.05056,2.22926 3.62818,9.10206 2.83847,12.80696 -0.48286,2.93775 -2.96031,5.81683 -5.58218,7.02171"
     id="path102" /><line
     style="fill:none;stroke:#343536;stroke-width:2.81591;stroke-linejoin:round;stroke-miterlimit:2.613"
     x1="367.01099"
     y1="520.31091"
     x2="334.19937"
     y2="538.35706"
     id="line104" /><line
     style="fill:none;stroke:#343536;stroke-width:2.81591;stroke-linejoin:round;stroke-miterlimit:2.613"
     x1="297.39401"
     y1="529.54382"
     x2="271.09869"
     y2="540.41479"
     id="line106" /><polygon
     style="fill:#93002a;fill-opacity:1"
     points="302.574,311.158 302.574,292 311.426,292 311.426,311.158 382.232,311.158 382.232,320 311.426,320 311.426,339.158 302.574,339.158 302.574,320 231.768,320 231.768,311.158 "
     id="polygon108"
     transform="matrix(4.5126707,0,0,4.5126707,-1044.7194,-1316.5266)" /><path
     style="fill:none;stroke:#343536;stroke-width:2.34659;stroke-linecap:round;stroke-linejoin:round;stroke-miterlimit:2.613"
     d="M 680.16775,722.73575 V 1.1732444 H 1.1732628 V 722.73575 c 0,0 -0.41516571,169.57263 169.7486172,169.57263 169.32443,0 169.74862,56.52571 169.74862,56.52571 0,0 0.96572,-56.52571 169.74863,-56.52571 169.74862,0 169.74862,-169.57263 169.74862,-169.57263 z"
     id="path110" /></g>
</svg>
