<?xml version="1.0" encoding="UTF-8" standalone="no"?>
<svg
   xmlns:dc="http://purl.org/dc/elements/1.1/"
   xmlns:cc="http://creativecommons.org/ns#"
   xmlns:rdf="http://www.w3.org/1999/02/22-rdf-syntax-ns#"
   xmlns:svg="http://www.w3.org/2000/svg"
   xmlns="http://www.w3.org/2000/svg"
   xmlns:sodipodi="http://sodipodi.sourceforge.net/DTD/sodipodi-0.dtd"
   xmlns:inkscape="http://www.inkscape.org/namespaces/inkscape"
   version="1.1"
   id="Layer_1"
   x="0px"
   y="0px"
   viewBox="0 0 1000 999.99998"
   xml:space="preserve"
   sodipodi:docname="Amkarperm.svg"
   width="1000"
   height="1000"
   inkscape:version="1.0.1 (3bc2e813f5, 2020-09-07)"><metadata
   id="metadata57"><rdf:RDF><cc:Work
       rdf:about=""><dc:format>image/svg+xml</dc:format><dc:type
         rdf:resource="http://purl.org/dc/dcmitype/StillImage" /><dc:title></dc:title></cc:Work></rdf:RDF></metadata><defs
   id="defs55" /><sodipodi:namedview
   pagecolor="#ffffff"
   bordercolor="#666666"
   borderopacity="1"
   objecttolerance="10"
   gridtolerance="10"
   guidetolerance="10"
   inkscape:pageopacity="0"
   inkscape:pageshadow="2"
   inkscape:window-width="1920"
   inkscape:window-height="1017"
   id="namedview53"
   showgrid="false"
   inkscape:zoom="0.74415493"
   inkscape:cx="211.13931"
   inkscape:cy="442.98614"
   inkscape:window-x="-8"
   inkscape:window-y="-8"
   inkscape:window-maximized="1"
   inkscape:current-layer="Layer_1" />
<g
   id="g935"
   transform="matrix(4.5238095,0,0,4.5238095,-863.98785,-1408.55)"><g
     id="g907"><g
       id="g50">
	<path
   d="m 308.849,401.479 43.823,-51.919 -15.99,-13.375 z m 51.07,-50.177 -57.241,67.817 16.101,51.866 -17.467,-40.977 -2.312,46.029 -2.313,-46.028 -17.467,40.977 16.1,-51.866 -57.24,-67.817 -2.162,-2.56 2.566,-2.147 21.997,-18.402 3.442,-2.879 1.761,4.131 8.037,18.853 -6.457,-20.801 -1.062,-3.424 3.514,-0.802 24.112,-5.499 3.87,-0.883 0.199,3.973 1.104,21.96 1.103,-21.96 0.199,-3.973 3.869,0.883 24.111,5.499 3.515,0.802 -1.063,3.424 -6.457,20.801 8.036,-18.853 1.761,-4.131 3.442,2.879 21.997,18.402 2.565,2.147 z m -56.798,42.689 20.188,-65.027 -16.729,-3.814 z m -8.244,0 -3.458,-68.842 -16.728,3.814 z m -5.726,7.488 -27.835,-65.294 -15.988,13.375 z"
   id="path2" />
	<path
   d="m 299,512.36 7.025,-13.621 v -21.416 -1.242 l 0.848,-0.962 54.779,-62.068 v -47.962 l -60.331,58.783 -2.321,2.262 -2.321,-2.262 -60.331,-58.783 v 47.962 l 54.779,62.068 0.848,0.962 v 1.242 21.416 z m 13.322,-11.302 -10.361,20.093 -2.961,5.739 -2.96,-5.739 -10.365,-20.093 -0.377,-0.734 v -0.791 -20.965 l -54.779,-62.068 -0.848,-0.961 v -1.244 -57.106 -7.901 l 5.66,5.516 63.669,62.033 63.669,-62.035 5.66,-5.516 v 7.901 57.106 1.244 l -0.848,0.961 -54.778,62.068 v 20.965 0.791 z"
   id="path4" />
	<path
   style="fill:#ffffff"
   d="m 299,515.993 8.693,-16.857 v -21.813 -0.621 l 0.426,-0.48 55.202,-62.549 v -52.535 l -63.161,61.541 -1.16,1.131 -1.16,-1.131 -63.161,-61.541 v 52.535 l 55.202,62.549 0.424,0.48 v 0.621 21.813 z m 11.844,-15.698 -10.363,20.093 -1.48,2.869 -1.48,-2.869 -10.364,-20.093 -0.19,-0.366 v -0.397 -21.586 l -55.202,-62.55 -0.424,-0.481 v -0.621 -57.106 -3.95 l 2.83,2.756 64.829,63.167 64.83,-63.168 2.83,-2.756 v 3.95 57.106 0.621 l -0.424,0.481 -55.203,62.55 v 21.586 0.397 z"
   id="path6" />
	<path
   style="fill:#ffffff"
   d="m 302.968,411.028 52.056,-61.674 -18.992,-15.888 -32.749,76.825 z m 55.679,-60.803 -57.83,68.516 6.696,21.572 -7.508,-17.613 -1.005,20.035 -1.007,-20.035 -7.508,17.613 6.697,-21.572 -57.829,-68.516 -1.081,-1.281 1.283,-1.072 21.996,-18.4 1.722,-1.441 0.88,2.066 20.833,48.871 -16.13,-51.96 -0.531,-1.712 1.757,-0.4 24.111,-5.5 1.936,-0.44 0.099,1.986 2.772,55.182 2.771,-55.183 0.101,-1.986 1.935,0.44 24.11,5.5 1.758,0.4 -0.531,1.712 -16.131,51.96 20.834,-48.871 0.88,-2.066 1.722,1.441 21.996,18.4 1.283,1.072 z m -57.859,56.895 24.643,-79.379 -20.42,-4.656 z m -3.578,0 -4.222,-84.035 -20.42,4.656 z m -2.178,3.908 -0.314,-0.736 -32.749,-76.825 -18.993,15.888 z"
   id="path8" />
	<polygon
   style="clip-rule:evenodd;fill:#df4a4c;fill-rule:evenodd"
   points="299,409.429 294.559,321.02 270.447,326.518 296.25,409.641 262.621,330.749 240.624,349.149 299,418.313 357.376,349.149 335.379,330.749 301.75,409.641 327.553,326.518 303.441,321.02 "
   id="polygon10" />
	<polygon
   style="clip-rule:evenodd;fill-rule:evenodd"
   points="233.01,357.188 233.01,414.294 288.636,477.323 288.636,499.532 299,519.624 309.364,499.532 309.364,477.323 364.99,414.294 364.99,357.188 299,421.484 "
   id="polygon12" />
	<path
   style="clip-rule:evenodd;fill:#ffffff;fill-rule:evenodd"
   d="m 243.585,421.696 -7.826,-8.459 v -33.842 l 7.615,-7.402 13.219,13.113 v 51.818 l -8.142,-9.094 0.042,-9.215 -5.119,-4.957 z m 4.94,-9.843 0.136,-28.649 -2.327,-2.116 -3.172,2.326 0.211,23.69 z"
   id="path14" />
	<polygon
   style="clip-rule:evenodd;fill:#ffffff;fill-rule:evenodd"
   points="279.85,463.04 279.688,437.616 272.561,454.692 267.866,424.907 267.824,449.266 260.929,441.368 260.929,390.606 268.434,398.743 272.915,424.299 280.209,411.514 288.636,420.651 288.636,473.106 "
   id="polygon16" />
	<polygon
   style="clip-rule:evenodd;fill:#ffffff;fill-rule:evenodd"
   points="310.42,448.981 318.247,464.633 310.879,472.24 305.381,460.622 305.313,497.905 299.002,511.399 292.442,497.85 292.442,424.868 298.96,432.827 305.082,426.317 305.201,446.732 308.906,422.089 318.035,411.159 "
   id="polygon18" />
	<path
   style="clip-rule:evenodd;fill:#ffffff;fill-rule:evenodd"
   d="m 340.031,439.463 -5.09,5.675 -0.017,-7.791 -6.165,5.666 -0.025,9.042 -8.371,9.331 v -40.958 l 5.73,-16.913 13.938,-15.447 z m -11.256,-1.991 6.139,-5.834 -0.06,-31.292 -4.116,4.255 -1.889,6.777 z"
   id="path20" />
	<path
   style="clip-rule:evenodd;fill:#ffffff;fill-rule:evenodd"
   d="m 343.84,434.599 7.537,-8.338 0.017,-9.344 10.847,-11.506 v -31.092 l -4.569,-4.986 -13.831,13.658 v 51.608 z m 7.562,-22.484 0.052,-29.809 4.667,-4.821 0.02,29.657 z"
   id="path22" />
	<path
   style="fill:#ffffff"
   d="m 299.105,348.169 c -6.239,0 -11.904,2.547 -16.009,6.651 -4.105,4.106 -6.651,9.77 -6.651,16.009 0,6.238 2.545,11.904 6.651,16.01 4.105,4.105 9.77,6.65 16.009,6.65 6.238,0 11.903,-2.545 16.009,-6.65 4.105,-4.105 6.65,-9.772 6.65,-16.01 0,-6.238 -2.545,-11.902 -6.65,-16.009 -4.105,-4.104 -9.77,-6.651 -16.009,-6.651 z m -19.407,3.253 c 4.975,-4.976 11.842,-8.06 19.408,-8.06 7.566,0 14.434,3.084 19.407,8.06 4.976,4.974 8.06,11.841 8.06,19.407 0,7.564 -3.085,14.434 -8.06,19.408 -4.974,4.975 -11.841,8.059 -19.407,8.059 -7.566,0 -14.433,-3.084 -19.408,-8.059 -4.975,-4.975 -8.059,-11.844 -8.059,-19.408 0,-7.566 3.084,-14.433 8.059,-19.407 z"
   id="path24" />
	<path
   style="clip-rule:evenodd;fill:#ffffff;fill-rule:evenodd"
   d="m 299.105,345.767 c -13.805,0 -25.065,11.258 -25.065,25.063 0,13.806 11.259,25.064 25.065,25.064 13.804,0 25.063,-11.259 25.063,-25.064 10e-4,-13.806 -11.259,-25.063 -25.063,-25.063 z"
   id="path26" />
	<path
   d="m 299.105,346.6 c -6.671,0 -12.729,2.721 -17.118,7.111 -4.389,4.389 -7.11,10.445 -7.11,17.117 0,6.672 2.722,12.729 7.11,17.118 4.389,4.39 10.447,7.111 17.118,7.111 6.671,0 12.729,-2.722 17.118,-7.111 4.39,-4.389 7.11,-10.446 7.11,-17.118 0,-6.672 -2.721,-12.729 -7.11,-17.117 -4.389,-4.39 -10.447,-7.111 -17.118,-7.111 z m -18.298,5.93 c 4.69,-4.691 11.166,-7.599 18.298,-7.599 7.132,0 13.607,2.907 18.299,7.599 4.691,4.692 7.6,11.166 7.6,18.299 0,7.133 -2.908,13.607 -7.6,18.299 -4.692,4.692 -11.167,7.6 -18.299,7.6 -7.133,0 -13.608,-2.908 -18.298,-7.6 -4.691,-4.691 -7.601,-11.166 -7.601,-18.299 0,-7.133 2.91,-13.606 7.601,-18.299 z"
   id="path28" />
	<polygon
   style="clip-rule:evenodd;fill-rule:evenodd"
   points="290.414,373.515 293.734,361.946 304.477,361.946 307.796,373.515 299.104,380.665 "
   id="polygon30" />
	<path
   style="clip-rule:evenodd;fill-rule:evenodd"
   d="m 306.931,347.034 c -5.183,-2.008 -10.364,-2.044 -15.545,-0.105 0.67,1.691 1.339,3.385 2.009,5.076 3.489,-0.035 6.979,-0.07 10.469,-0.104 1.023,-1.623 2.044,-3.245 3.067,-4.867 z"
   id="path32" />
	<path
   style="clip-rule:evenodd;fill-rule:evenodd"
   d="m 324.025,372.028 c 0.648,-5.52 -0.617,-10.547 -3.793,-15.076 -1.471,1.072 -2.939,2.145 -4.411,3.216 0.909,3.371 1.819,6.741 2.728,10.11 1.825,0.582 3.65,1.167 5.476,1.75 z"
   id="path34" />
	<path
   style="clip-rule:evenodd;fill-rule:evenodd"
   d="m 273.885,371.329 c -0.161,-5.555 1.54,-10.45 5.099,-14.686 1.372,1.197 2.742,2.395 4.113,3.591 -1.2,3.278 -2.401,6.556 -3.602,9.832 -1.869,0.421 -3.74,0.843 -5.61,1.263 z"
   id="path36" />
	<path
   style="clip-rule:evenodd;fill-rule:evenodd"
   d="m 305.955,394.766 c 5.428,-1.198 9.761,-4.043 12.996,-8.528 -1.495,-1.037 -2.989,-2.074 -4.484,-3.111 -2.886,1.964 -5.772,3.928 -8.656,5.893 0.047,1.915 0.095,3.833 0.144,5.746 z"
   id="path38" />
	<path
   style="clip-rule:evenodd;fill-rule:evenodd"
   d="m 292.264,394.874 c -5.427,-1.201 -9.759,-4.045 -12.996,-8.531 1.495,-1.037 2.99,-2.073 4.486,-3.109 2.885,1.963 5.77,3.926 8.654,5.891 -0.048,1.915 -0.097,3.831 -0.144,5.749 z"
   id="path40" />
	<polygon
   points="295.337,348.517 295.517,348.284 295.807,348.281 302.061,348.232 302.406,348.229 302.583,348.53 304.352,351.548 309.08,357.099 316.023,359.603 316.023,359.604 319.73,360.872 320.041,360.979 320.121,361.296 321.566,367.183 321.638,367.474 321.447,367.706 319.035,370.63 315.247,375.995 315.068,383.12 315.188,386.362 315.2,386.696 314.916,386.884 309.374,390.571 309.133,390.731 308.857,390.642 305.657,389.599 299.211,387.946 292.579,389.699 292.579,389.699 289.642,390.585 289.387,390.661 289.156,390.52 283.749,387.19 283.489,387.03 283.462,386.732 283.152,383.283 283.155,383.283 282.343,375.994 279.015,370.429 275.608,366.686 276.494,365.878 279.939,369.661 279.977,369.704 280.009,369.759 283.439,375.492 283.507,375.604 283.521,375.733 284.349,383.165 284.354,383.181 284.637,386.331 289.554,389.358 292.237,388.548 292.256,388.544 299.059,386.747 299.211,386.706 299.358,386.744 305.959,388.436 305.996,388.446 308.951,389.41 313.973,386.072 313.865,383.147 313.865,383.112 314.051,375.786 314.056,375.604 314.16,375.456 318.058,369.933 318.087,369.898 320.33,367.178 319.034,361.901 315.629,360.737 315.619,360.733 308.526,358.177 308.378,358.122 308.273,357.999 303.41,352.29 303.377,352.25 303.348,352.202 301.726,349.436 296.105,349.481 293.875,352.362 293.876,352.364 289.541,358.181 289.44,358.315 289.284,358.378 283.321,360.791 283.321,360.791 277.243,363.447 276.764,362.349 282.857,359.686 282.872,359.679 288.678,357.329 292.913,351.646 292.92,351.64 "
   id="polygon42" />
	<polygon
   points="307.985,372.944 314.84,375.229 314.463,376.37 307.623,374.089 302.72,372.59 302.564,372.542 302.451,372.419 293.304,362.366 288.662,358.271 289.455,357.374 294.131,361.499 294.164,361.526 294.178,361.542 303.225,371.487 307.971,372.938 "
   id="polygon44" />
	<polygon
   points="304.904,362.366 304.889,362.383 294.128,372.54 294.049,372.614 293.952,372.655 290.649,374.066 290.61,374.083 290.588,374.089 283.099,376.374 282.751,375.225 290.219,372.946 293.383,371.595 304.059,361.517 308.301,357.19 309.156,358.031 "
   id="polygon46" />
	<polygon
   points="299.706,380.665 299.811,387.317 298.61,387.337 298.503,380.674 298.503,380.665 298.504,370.829 299.706,370.829 299.706,380.655 "
   id="polygon48" />
</g></g></g>
</svg>
