<svg height="1000" viewBox="0 0 1000 1000" width="1000" xmlns="http://www.w3.org/2000/svg"><g transform="matrix(2.4082031 0 0 2.4082031 -20.310785 -14.899553)"><g><g><path d="m 40.252 128.245 h 186.142 v 0 c -22.02 -13.752 -34.425 -33.436 -27.863 -44.761 c 4.135 -7.101 14.831 -9.257 27.863 -6.831 V 40.611 H 40.252 v 36.042 c 13.031 -2.426 23.728 -.181 27.862 6.831 c 6.561 11.326 -5.842 31.01 -27.862 44.761 z"/><path d="M 218.215 125.548 C 196.552 110.09 189.991 92.652 196.374 82.136 c 3.955 -6.651 12.673 -11.056 27.143 -8.45 V 43.308 H 43.127 v 30.559 c 12.494 -2.067 23.549 1.079 27.593 8.988 c 6.022 10.606 -2.787 29.571 -22.65 42.694 h 170.145 z" fill="#fff"/><g><g><g><g><path d="m 256.953 240.236 c .179 17.886 -3.146 35.772 -10.067 53.659 c -7.91 20.313 -21.032 39.906 -39.368 58.513 c -18.334 18.694 -43.052 34.694 -74.15 48.264 C 70.811 370.743 32.343 335.059 17.961 293.624 C 11.579 275.38 8.434 257.582 8.434 240.236 v 0 v -107.227 h 248.52 v 107.227 z"/><path d="m 253.988 240.865 c .179 17.526 -3.057 34.963 -9.798 52.401 c -7.729 19.862 -20.493 38.918 -38.468 57.163 c -17.886 18.156 -42.065 33.885 -72.354 47.098 C 72.339 368.316 34.769 333.443 20.658 292.908 C 14.456 275.11 11.31 257.763 11.31 240.866 v 0 v -104.622 h 242.678 z" fill="#fff"/></g><path d="m 253.988 240.865 c .179 17.526 -3.057 34.963 -9.798 52.401 c -7.729 19.862 -20.493 38.918 -38.468 57.163 c -17.886 18.156 -41.974 33.885 -72.354 47.098 l 120.62 -221.465 z" fill="#2e3192"/><path d="m 133.368 397.526 v 0 C 72.339 368.315 34.769 333.442 20.658 292.907 C 14.456 275.109 11.31 257.762 11.4 240.865 h -.09 v -67.23 z" fill="#ee3124"/><path d="m 253.988 246.706 c -.54 15.549 -3.776 31.011 -9.798 46.56 c -7.729 19.862 -20.493 38.918 -38.468 57.163 c -17.886 18.156 -42.065 33.885 -72.354 47.098 z" fill="#ee3124"/><path d="m 133.368 397.526 v 0 C 72.339 368.315 34.769 333.442 20.658 292.907 C 14.995 276.637 11.849 260.638 11.4 245 Z" fill="#2e3192"/></g><g><path d="m 189.004 365.17 l -.18 .179 c -15.37 11.954 -33.794 22.65 -55.455 32.086 C 112.427 387.37 94.27 376.673 78.812 365.349 l -.45 -.36 l 27.324 -14.47 l 27.683 -14.74 l 28.043 14.74 l 27.503 14.651 z" fill="#fff"/><path d="M 150.895 365.17 L 133.368 335.869 L 115.932 365.17 L 133.368 397.435 Z" fill="#2e3192"/><path d="M 133.368 335.779 L 161.411 350.52 L 188.913 365.17 L 189.004 365.17 L 188.913 365.26 L 78.63 365.26 L 78.361 364.989 L 105.685 350.52 Z" fill="#2e3192"/><path d="M 150.895 365.26 L 150.895 365.17 L 133.368 335.869 L 115.932 365.17 L 115.932 365.26 Z" fill="#fff"/></g></g><path d="M 105.685 185.229 L 133.368 329.487 L 161.051 185.229 L 188.734 40.971 L 133.368 40.971 L 77.911 40.971 Z" fill="#ee3124"/><path d="M 77.911 40.971 L 105.685 185.229 L 133.368 329.487 L 133.368 40.971 Z" fill="#2e3192"/></g><path d="M 8.434 125.009 H 257.04299 V 164.826001 H 8.434 Z"/><path d="M 11.31 127.706 H 253.98799 V 162.219 H 11.31 Z" fill="#fff200"/></g><path d="M 240.954 38.185 C 219.473 19.04 179.386 6.187 133.727 6.187 C 86.989 6.187 46.183 19.669 25.061 39.533 V 88.158 C 46.093 68.205 86.988 54.723 133.727 54.723 c 45.658 0 85.745 12.942 107.227 32.088 z"/><path d="M 237.989 39.262 C 217.135 23.264 178.128 9.152 133.728 9.152 C 88.247 9.152 48.431 23.713 27.939 40.43 V 81.865 C 48.432 65.237 88.247 51.306 133.728 51.306 c 44.4 0 83.408 13.752 104.261 29.84 z" fill="#2e3192"/><path d="M 197.452 131.391 L 197.452 131.479 L 207.158 131.479 L 207.158 158.625 L 200.329 158.625 L 200.329 137.413 L 199.519 137.413 L 195.835 142.626 L 192.238 148.198 L 192.149 158.714 L 185.049 158.714 L 185.049 146.221 L 191.071 137.682 L 191.339 137.413 L 187.655 137.413 L 187.655 131.391 Z"/><path d="M 156.915 137.413 L 149.276 137.413 L 149.276 158.625 L 142.445 158.625 L 142.445 137.413 L 134.896 137.413 L 134.716 131.479 L 156.827 131.479 Z"/><path d="m 122.493 137.144 c -1.619 0 -2.877 .629 -3.776 1.797 c -.898 1.079 -1.527 2.516 -1.527 4.135 c 0 2.427 .09 5.033 1.797 7.01 c 1.977 2.246 5.393 2.067 8.449 2.067 l 5.034 -1.439 l 1.169 6.651 c -10.426 2.966 -16.539 .45 -19.505 -2.786 c -2.874 -3.056 -3.594 -7.46 -3.594 -12.314 c 0 -3.686 .988 -6.471 2.787 -8.359 c 1.797 -1.797 4.224 -2.697 7.46 -2.697 l 3.145 .091 v -.091 l .9 .091 l 1.977 .089 v .181 l 3.145 .358 v 11.505 h -5.842 v -6.291 h -1.619 z"/><path d="M 83.933 131.391 L 90.764 131.391 L 90.764 139.3 L 99.303 131.391 L 106.133 131.391 L 106.133 158.625 L 99.303 158.625 L 99.303 140.829 L 90.764 148.287 L 90.764 158.625 L 83.933 158.625 Z"/><path d="m 31.802 158.625 v -27.146 h 6.742 v 11.865 c 3.056 -3.774 6.022 -7.729 6.831 -11.865 h 7.73 c -1.708 4.855 -4.224 8.091 -7.73 11.865 c 3.776 4.764 6.56 9.348 8.537 15.281 c -2.606 0 -5.123 0 -7.639 0 c -1.707 -5.124 -4.045 -9.978 -7.729 -14.381 v 14.381 z"/><path d="m 58.496 158.625 h 6.833 v -5.933 c 2.246 -.988 4.044 -2.067 5.841 -3.325 c 2.246 -1.438 4.044 -3.057 5.303 -4.764 c 1.438 -1.887 2.157 -3.325 2.966 -5.213 c .538 -2.066 1.977 -7.818 -2.157 -7.999 l -8.629 .089 H 58.496 Z"/><path d="m 65.507 136.874 c 1.977 0 4.135 0 6.113 0 c 1.168 0 1.797 .269 1.617 1.257 c -.179 .989 -1.438 3.055 -3.146 4.584 c -1.438 1.167 -3.146 2.427 -4.674 2.876 z" fill="#fff200"/><path d="m 169.23 131.391 h .809 v .089 h 9.797 v 27.146 h -6.831 v -5.664 h -3.775 v -6.021 h 3.775 v -9.528 h -.81 l -2.965 4.135 z m -11.505 14.83 l 6.023 -8.539 l .179 -.27 h -3.596 v -6.022 h 8.899 v 10.157 l -.72 1.079 l -3.146 4.314 h 3.865 v 6.021 h -4.764 v 5.753 h -7.011 z"/><path d="M 223.877 131.391 L 223.877 131.391 L 233.583 131.391 L 233.583 158.625 L 226.753 158.625 L 226.753 137.323 L 225.944 137.323 L 222.26 142.626 L 218.215 148.198 L 218.215 158.714 L 211.474 158.714 L 211.474 146.221 L 217.495 137.682 L 217.674 137.413 L 214.08 137.413 L 214.08 131.391 Z"/><path d="m 21.466 148.918 c 1.98 0 3.596 -1.619 3.596 -3.596 c 0 -1.978 -1.617 -3.685 -3.596 -3.685 c -2.066 0 -3.684 1.707 -3.684 3.685 c -.001 1.977 1.618 3.596 3.684 3.596 z"/><path d="m 243.83 148.918 c 1.978 0 3.595 -1.619 3.595 -3.596 c 0 -1.978 -1.618 -3.685 -3.595 -3.685 c -1.978 0 -3.595 1.707 -3.595 3.685 c 0 1.977 1.617 3.596 3.595 3.596 z"/><path d="m 58.586 173.544 c 1.439 .269 2.876 .72 4.135 1.349 c 2.247 1.168 4.044 2.786 5.303 4.943 c 1.348 2.157 1.977 4.583 1.977 7.37 c 0 2.786 -.629 5.213 -1.888 7.37 c -1.348 2.159 -3.145 3.865 -5.392 5.034 c -1.348 .719 -2.696 1.167 -4.135 1.438 v -7.46 c .45 -.27 .899 -.629 1.348 -1.079 c 1.349 -1.349 1.978 -3.146 1.978 -5.303 c 0 -2.158 -.629 -3.955 -1.978 -5.393 c -.449 -.45 -.898 -.809 -1.348 -1.079 z M 47.173 169.95 h 8.088 v 3.235 c 1.169 0 2.247 .09 3.325 .359 v 7.19 c -.988 -.72 -2.156 -.989 -3.325 -.989 v 14.831 c 1.169 0 2.337 -.269 3.325 -.988 v 7.46 c -1.078 .268 -2.156 .358 -3.325 .358 v 1.709 h -8.088 v -1.709 c -1.169 0 -2.247 -.09 -3.326 -.358 v -7.46 c .988 .628 2.157 .988 3.326 .988 v -14.831 c -1.08 0 -2.069 .27 -3.147 .898 c -.091 .091 -.091 .091 -.179 .181 v -7.281 c 1.079 -.269 2.157 -.359 3.326 -.359 z m -3.326 31.099 c -1.438 -.271 -2.787 -.72 -4.135 -1.438 c -2.247 -1.169 -4.044 -2.876 -5.303 -5.034 c -1.348 -2.156 -1.977 -4.584 -1.977 -7.37 c 0 -2.787 .629 -5.213 1.977 -7.37 c 1.259 -2.158 3.056 -3.775 5.303 -4.943 c 1.258 -.629 2.697 -1.08 4.135 -1.349 v 7.281 c -.99 .629 -1.709 1.438 -2.338 2.516 c -.629 1.169 -.988 2.428 -.988 3.866 c 0 2.156 .72 3.865 2.068 5.303 c .359 .45 .808 .809 1.258 1.079 z" fill="#2e3192"/><path d="m 211.113 191.34 v 11.326 h -8.629 v -28.673 h 8.629 v 9.258 c 4.496 .36 9.079 -1.797 10.247 -9.258 h 9.168 c -2.158 8.899 -3.865 11.056 -8.899 13.124 c 5.034 2.786 7.911 7.011 9.889 15.549 h -8.72 c -1.528 -7.73 -7.101 -12.045 -11.685 -11.326 z" fill="#ee3124"/><path d="m 134.087 334.341 c 38.019 0 69.117 -31.101 69.117 -69.208 c 0 -38.11 -31.099 -69.209 -69.117 -69.209 c -38.109 0 -69.207 31.099 -69.207 69.209 c -.001 38.107 31.098 69.208 69.207 69.208 z"/><g><g><ellipse cx="133.72701" cy="265.133" fill="#fff200" rx="66.600998" ry="66.692001" stroke="#000" stroke-width="1.2584" transform="matrix(1 -.0012 .0012 1 -.3299 .1666)"/><g><path d="M 89.865 233.406 L 90.764 251.829 L 80.069 265.852" fill="none" stroke="#000" stroke-width="1.2584"/></g><g><path d="M 110.178 257.49399 L 90.764 251.82899" fill="none" stroke="#000" stroke-width="1.2584"/></g><g><path d="M 150.264 213.812 L 133.816 219.383 L 133.816 239.786" fill="none" stroke="#000" stroke-width="1.2584"/></g><g><path d="M 117.099 213.54201 L 133.81599 219.383" fill="none" stroke="#000" stroke-width="1.2584"/></g><g><path d="M 177.588 233.406 L 177.679 251.201 L 157.725 257.223" fill="none" stroke="#000" stroke-width="1.2584"/></g><g><path d="M 187.924 265.04401 L 177.679 251.201" fill="none" stroke="#000" stroke-width="1.2584"/></g><g><path d="M 148.467 284.906 L 160.331 300.995 L 150.354 316.994" fill="none" stroke="#000" stroke-width="1.2584"/></g><g><path d="M 177.588 296.41101 L 160.241 300.995" fill="none" stroke="#000" stroke-width="1.2584"/></g><g><path d="M 119.257 284.906 L 107.213 302.522 L 89.865 297.22" fill="none" stroke="#000" stroke-width="1.2584"/></g><g><path d="M 117.459 316.99399 L 107.213 302.522" fill="none" stroke="#000" stroke-width="1.2584"/></g><path d="M 119.257 284.906 L 148.467 284.906 L 157.725 257.223 L 133.816 239.786 L 110.178 257.494 Z" fill="none" stroke="#000" stroke-width="1.2584"/><path d="m 200.329 264.862 c 0 6.563 -.81 13.303 -3.147 20.404 c -2.336 7.1 -5.482 13.482 -9.616 18.964 l -9.977 -7.82 l 10.336 -31.367 z" fill="none" stroke="#000" stroke-width="1.2584"/><path d="m 153.95 201.678 c 6.472 1.887 12.853 5.032 18.785 9.346 c 5.933 4.225 10.696 9.439 14.831 14.832 l -9.977 7.55 l -27.324 -19.594 z" fill="none" stroke="#000" stroke-width="1.2584"/><path d="m 79.978 225.945 l 9.887 7.46 l 27.233 -19.864 l -3.505 -11.775 c -6.471 1.798 -12.764 4.764 -18.784 9.257 c -6.022 4.405 -10.876 9.349 -14.831 14.922 z" fill="none" stroke="#000" stroke-width="1.2584"/><path d="m 80.338 304.859 c -4.134 -5.481 -7.55 -11.684 -9.798 -18.696 c -2.336 -7.101 -3.505 -13.84 -3.415 -20.583 l 12.943 .271 l 9.797 31.369 z" fill="none" stroke="#000" stroke-width="1.2584"/><path d="m 154.669 328.408 c -6.292 2.068 -13.302 3.417 -20.672 3.417 c -7.459 0 -14.111 -1.08 -20.403 -3.057 l 3.865 -11.773 h 32.895 z" fill="none" stroke="#000" stroke-width="1.2584"/></g><path d="m 133.547 331.644 c 3.056 0 6.201 -.18 9.257 -.628 c -2.247 -.449 -4.045 -1.528 -5.212 -3.058 c -4.943 -6.561 2.516 -20.763 16.717 -32.175 c -.629 -.811 -1.258 -1.529 -1.887 -2.338 c -5.303 3.505 -11.684 5.572 -18.425 5.572 c -3.685 0 -7.28 -.539 -10.606 -1.618 c -3.056 -.897 -5.123 -1.976 -7.73 -3.685 l -1.797 2.607 c 15.368 11.235 22.918 25.436 17.974 32.268 c -.988 1.347 -2.335 2.247 -3.954 2.785 c 1.889 .18 3.776 .27 5.663 .27 z m -21.57 -40.267 c -7.821 -6.291 -12.854 -15.819 -12.854 -26.603 c 0 -2.787 .27 -5.213 .989 -7.82 c -.989 -.27 -1.978 -.54 -2.966 -.808 c -5.573 17.435 -16.089 29.209 -24.088 26.872 c -1.798 -.539 -3.326 -1.887 -4.584 -3.684 c 1.438 6.381 3.776 12.494 6.921 18.065 c -1.349 -3.864 -1.168 -7.28 .629 -9.707 c 4.674 -6.471 19.684 -3.774 34.244 5.932 l .629 -.809 c .091 -.269 .27 -.539 .539 -.718 z m -10.606 -38.468 c 4.494 -12.404 15.19 -21.034 28.941 -21.84 c 0 -.989 0 -1.977 0 -2.967 c -18.335 .271 -32.536 -6.022 -32.807 -14.381 c -.089 -2.247 .9 -4.493 2.877 -6.472 c -4.674 2.607 -8.897 5.843 -12.764 9.528 c 1.709 -.629 3.416 -.72 4.945 -.27 c 7.909 2.337 10.517 17.706 5.752 35.413 z m 56.085 40.447 c 14.74 -10.518 30.289 -13.843 35.323 -7.281 c 1.258 1.708 1.708 3.865 1.528 6.291 c 2.245 -5.033 3.954 -10.426 4.852 -16.087 c -1.168 2.067 -2.696 3.505 -4.673 4.133 c -7.73 2.606 -17.977 -7.1 -24.178 -23.998 l -3.416 1.08 c .81 2.966 .989 4.403 .989 7.639 c 0 10.425 -4.763 19.684 -12.224 25.975 v 0 c .629 .72 1.258 1.619 1.799 2.248 z m 10.605 -42.874 c -5.214 -17.257 -3.326 -33.076 4.494 -35.684 c 1.439 -.538 3.056 -.538 4.675 0 c -3.955 -3.505 -8.451 -6.56 -13.124 -8.987 c 1.528 1.617 2.426 3.505 2.517 5.482 c .268 8.27 -11.505 15.461 -29.751 16.54 v 3.235 c 2.697 .358 2.876 .358 5.393 .988 c 10.246 2.607 18.605 10.067 22.74 19.593 c 1.08 -.359 2.067 -.807 3.056 -1.167 z"/></g><g><path d="m 192.958 27.309 l 1.169 .359 c 2.426 .719 4.135 1.618 5.212 2.697 c 1.08 1.079 1.709 2.516 1.709 4.315 c 0 1.347 -.36 2.426 -.989 3.146 c -.54 .629 -1.348 1.168 -2.518 1.617 c 1.618 1.797 2.788 3.236 3.507 4.405 c .897 1.438 1.348 2.875 1.348 4.223 c 0 2.067 -.54 3.326 -1.617 3.686 c -.989 .359 -2.697 .179 -5.303 -.63 l -2.517 -.719 v -5.033 l 1.169 .359 c 1.167 .27 1.797 .181 1.797 -.449 c 0 -.628 -.538 -1.618 -1.527 -3.147 c -.451 -.539 -.899 -1.167 -1.439 -1.887 v -3.954 c .09 -.091 .18 -.18 .269 -.27 c 1.08 -.719 1.618 -1.438 1.618 -1.976 c 0 -.27 -.18 -.63 -.538 -.99 c -.27 -.269 -.81 -.539 -1.349 -.719 v -5.033 z m -8.628 20.673 v -11.685 v 0 v -6.381 v -5.035 l 8.628 2.428 v 5.033 c -.09 0 -.179 0 -.27 -.09 l -2.785 -.72 v 4.764 v 0 v 8.179 l 3.055 .899 v 5.033 z m 8.628 -11.685 c -.809 .45 -1.619 .899 -2.338 1.168 c .81 .99 1.618 1.978 2.338 2.787 z" fill="#fff"/><path d="m 163.207 21.287 l 1.259 .18 c 2.516 .359 4.313 .988 5.392 1.978 c 1.169 .898 1.708 2.246 1.708 4.044 c 0 1.348 -.359 2.517 -.988 3.325 c -.539 .719 -1.348 1.348 -2.606 1.978 c 1.708 1.528 2.876 2.786 3.594 3.865 c .989 1.349 1.439 2.698 1.439 4.046 c 0 2.066 -.54 3.415 -1.708 3.955 c -.989 .448 -2.787 .538 -5.483 .089 l -2.606 -.36 v -5.032 l 1.259 .178 c 1.258 .18 1.888 -.09 1.888 -.719 c 0 -.539 -.54 -1.529 -1.618 -2.876 c -.45 -.538 -.988 -1.079 -1.528 -1.707 v -3.955 c .091 -.091 .269 -.179 .359 -.269 c 1.08 -.989 1.709 -1.708 1.709 -2.248 c 0 -.269 -.179 -.629 -.629 -.899 c -.269 -.179 -.81 -.449 -1.439 -.629 V 21.287 Z M 154.4 43.218 v -10.066 v 0 v -8.09 v -5.033 l 8.808 1.258 v 4.942 c -.089 0 -.18 0 -.27 0 l -2.875 -.358 v .808 h .09 v 12.224 l 3.055 .451 v 5.032 z m 8.807 -12.943 c -.809 .628 -1.618 1.169 -2.426 1.528 c .898 .899 1.707 1.708 2.426 2.428 z" fill="#fff"/><path d="m 105.235 20.926 l 6.471 -.897 c -1.258 3.954 -3.415 7.82 -6.471 11.055 c 3.146 3.686 5.662 7.191 7.19 11.954 l -6.471 .898 c -.899 -3.775 -2.966 -6.74 -5.213 -9.256 l -3.056 .628 v 9.977 l -5.753 1.078 V 23.175 l 5.753 -.989 v 7.46 l 3.234 -.539 c 2.249 -2.787 3.777 -5.393 4.316 -8.181 z" fill="#fff"/><path d="M 55.441 32.792 L 55.441 50.857 L 59.934 48.521 L 60.026 56.34 L 54.813 58.586 L 54.813 56.251 L 38.544 64.34 L 38.544 40.611 L 44.117 38.094 L 44.026 56.43 L 50.318 53.464 L 50.318 35.399 Z" fill="#fff"/><path d="m 83.035 42.768 v 5.842 c -1.527 .898 -3.504 1.708 -5.395 1.978 c -3.323 .629 -7.368 .18 -9.796 -1.888 c -1.167 -.988 -1.977 -2.246 -2.607 -3.774 c -.539 -1.529 -.897 -3.326 -.897 -5.394 c 0 -3.146 .808 -5.662 2.337 -7.73 c 1.437 -1.886 3.505 -3.325 6.111 -4.045 c 2.787 -.809 5.303 -1.348 8.091 -1.797 v 10.695 h -5.303 v -4.404 l -1.438 .36 c -1.258 .359 -2.337 1.078 -3.057 2.246 c -.718 1.169 -1.168 2.427 -1.168 3.866 c 0 2.067 .721 3.776 2.158 5.034 c 1.529 1.527 3.594 1.887 6.113 1.258 c 1.704 -.538 3.413 -1.348 4.851 -2.247 z" fill="#fff"/><path d="m 220.012 43.936 c -1.168 -.628 -2.067 -.719 -2.787 -.089 c -.629 .538 -.987 1.528 -.987 2.965 c 0 2.068 .629 4.314 1.887 6.651 c 1.439 2.697 3.326 4.674 5.572 5.932 c 1.079 .63 2.606 .899 3.775 .989 l .808 .09 v 5.034 c -1.797 -.091 -3.414 -.539 -5.032 -1.258 c -3.685 -1.978 -6.652 -5.124 -8.898 -8.988 c -2.067 -3.865 -3.146 -7.82 -3.146 -11.865 c 0 -3.146 .719 -5.212 2.068 -6.021 c 1.258 -.809 3.146 -.54 5.482 .809 l 3.416 1.977 v 0 l 4.314 2.427 v 8.989 l -4.314 -2.607 v -3.866 z" fill="#fff"/></g><path d="M 141.726 98.944 L 125.638 98.944 L 91.753 98.944 L 95.258 106.584 L 125.638 106.584 L 141.726 106.584 L 172.105 106.584 L 175.611 98.944 Z" fill="#fff200" stroke="#000" stroke-width="1.8875"/><path d="M 138.041 91.304 L 121.952 91.304 L 88.158 91.304 L 91.753 98.944 L 121.952 98.944 L 138.041 98.944 L 175.611 98.944 L 179.117 91.304 Z" fill="#fff200" stroke="#000" stroke-width="1.8875"/><path d="M 134.716 83.664 L 118.538 83.664 L 84.652 83.664 L 88.158 91.304 L 118.538 91.304 L 134.716 91.304 L 179.117 91.304 L 182.623 83.664 Z" fill="#fff200" stroke="#000" stroke-width="1.8875"/><path d="m 133.547 107.481 c 16.268 0 29.571 -13.301 29.571 -29.66 c 0 -16.358 -13.303 -29.661 -29.571 -29.661 c -16.357 0 -29.66 13.303 -29.66 29.661 c 0 16.36 13.303 29.66 29.66 29.66 z"/><path d="m 133.547 105.235 c 15.01 0 27.323 -12.313 27.323 -27.414 c 0 -15.1 -12.313 -27.504 -27.323 -27.504 c -15.1 0 -27.414 12.404 -27.414 27.504 c 0 15.101 12.315 27.414 27.414 27.414 z" fill="#fff200"/><path d="m 133.547 97.416 c 10.697 0 19.504 -8.808 19.504 -19.594 c 0 -10.876 -8.807 -19.684 -19.504 -19.684 c -10.875 0 -19.683 8.809 -19.683 19.684 c 0 10.786 8.808 19.594 19.683 19.594 z" fill="#fff"/><path d="M 140.648 80.069 L 140.648 80.069 L 140.648 80.069 L 144.963 93.461 L 133.638 85.191 L 133.638 85.191 L 133.638 85.191 L 122.222 93.461 L 126.626 80.069 L 126.626 80.069 L 126.626 80.069 L 115.212 71.8 L 129.323 71.8 L 129.323 71.8 L 129.323 71.8 L 133.638 58.318 L 137.951 71.8 L 152.063 71.8 Z" fill="#ee3124"/><path d="m 146.221 115.301 c -6.023 0 -11.057 -1.168 -12.494 -2.605 c -1.438 1.437 -6.56 2.605 -12.583 2.605 c -7.19 0 -11.146 -1.078 -11.146 -3.504 c 0 -2.427 3.955 -3.416 11.146 -3.416 c 6.023 0 11.055 1.079 12.583 2.607 c 1.437 -1.529 6.38 -2.607 12.494 -2.607 c 7.1 0 11.055 .989 11.055 3.416 c 0 2.427 -3.955 3.504 -11.055 3.504 z" fill="#fff200" stroke="#000" stroke-width="1.8875"/><path d="m 133.727 116.021 c 2.337 0 4.313 -1.888 4.313 -4.224 c 0 -2.248 -1.976 -4.135 -4.313 -4.135 c -2.427 0 -4.405 1.887 -4.405 4.135 c .001 2.336 1.978 4.224 4.405 4.224 z" stroke="#000" stroke-width="1.8875"/><path d="m 133.727 115.122 c 1.888 0 3.414 -1.527 3.414 -3.325 c 0 -1.799 -1.527 -3.235 -3.414 -3.235 c -1.889 0 -3.416 1.436 -3.416 3.235 c .001 1.797 1.527 3.325 3.416 3.325 z" fill="#fff200"/></g></g></svg>