<?xml version="1.0" encoding="UTF-8" standalone="no"?>
<svg
   xmlns:dc="http://purl.org/dc/elements/1.1/"
   xmlns:cc="http://creativecommons.org/ns#"
   xmlns:rdf="http://www.w3.org/1999/02/22-rdf-syntax-ns#"
   xmlns:svg="http://www.w3.org/2000/svg"
   xmlns="http://www.w3.org/2000/svg"
   xmlns:sodipodi="http://sodipodi.sourceforge.net/DTD/sodipodi-0.dtd"
   xmlns:inkscape="http://www.inkscape.org/namespaces/inkscape"
   version="1.1"
   id="Layer_1"
   x="0px"
   y="0px"
   viewBox="0 0 1000 1000"
   xml:space="preserve"
   sodipodi:docname="Cska Soccer .svg"
   width="1000"
   height="1000"
   inkscape:version="1.0.1 (3bc2e813f5, 2020-09-07)"><metadata
   id="metadata111"><rdf:RDF><cc:Work
       rdf:about=""><dc:format>image/svg+xml</dc:format><dc:type
         rdf:resource="http://purl.org/dc/dcmitype/StillImage" /><dc:title></dc:title></cc:Work></rdf:RDF></metadata><defs
   id="defs109" /><sodipodi:namedview
   pagecolor="#ffffff"
   bordercolor="#666666"
   borderopacity="1"
   objecttolerance="10"
   gridtolerance="10"
   guidetolerance="10"
   inkscape:pageopacity="0"
   inkscape:pageshadow="2"
   inkscape:window-width="1920"
   inkscape:window-height="1017"
   id="namedview107"
   showgrid="false"
   inkscape:zoom="1.2565321"
   inkscape:cx="421"
   inkscape:cy="297.5"
   inkscape:window-x="-8"
   inkscape:window-y="-8"
   inkscape:window-maximized="1"
   inkscape:current-layer="Layer_1" />
<g
   id="g988"
   transform="matrix(2.5289999,0,0,2.5289999,-152.64329,-96.027534)"><g
     id="g104">
	<path
   style="fill:#edd42f;stroke:#000000;stroke-width:2.1504"
   d="m 297.283,168.462 c -12.317,-9.578 -24.339,-23.263 -32.744,-36.655 -8.114,-12.803 -13.392,-25.51 -16.715,-36.555 -45.745,0 -91.587,0 -137.431,0 -1.368,4.789 -2.932,9.09 -4.593,13.292 -3.03,7.428 -6.451,14.566 -11.926,23.263 -8.308,13.198 -19.06,25.904 -32.353,36.754 v 0 l 12.806,76.241 13.879,76.047 2.64,15.246 34.308,26.294 54.248,41.54 54.25,-41.54 33.915,-26.098 h 0.197 v 0 -0.097 l 2.835,-15.345 z"
   id="path2" />
	<path
   style="fill:#ffffff;stroke:#000000;stroke-width:0.5864"
   d="m 265.614,204.042 c -101.949,0.88 -56.889,0.391 -174.964,0.098 l -0.488,0.293 10.262,59.918 10.264,59.917 1.955,11.927 25.414,20.721 40.173,32.746 40.074,-32.746 25.121,-20.429 h 0.099 v -0.098 h 0.098 l 2.052,-12.121 20.429,-119.835 z"
   id="path4" />
	<path
   style="fill:#ffffff;stroke:#000000;stroke-width:2.1504"
   d="m 272.651,176.185 c -9.776,-8.114 -19.452,-19.158 -26.098,-30.399 -6.45,-10.752 -10.557,-21.406 -13.098,-30.691 -36.165,0 -72.332,0 -108.595,0 -1.074,4.105 -2.248,7.721 -3.616,11.241 -2.345,6.256 -5.083,12.217 -9.384,19.45 -6.548,11.047 -15.345,21.407 -25.902,30.498 l -0.488,0.391 10.947,64.022 10.948,63.729 2.052,12.806 27.172,22.089 42.813,34.896 42.813,-34.896 26.782,-21.797 h 0.099 v -0.097 0 l 2.247,-13.001 21.894,-127.752 z"
   id="path6" />
	<path
   style="fill:#007fb6;stroke:#174a9f;stroke-width:0.5864"
   d="m 266.883,174.229 c -9.186,-7.526 -18.082,-18.18 -24.337,-28.541 -6.059,-9.971 -9.97,-19.842 -12.415,-28.346 -34.015,0 -68.127,0 -102.24,0 -1.075,3.714 -2.15,7.037 -3.421,10.36 -2.249,5.768 -4.791,11.241 -8.896,17.985 -6.158,10.262 -14.173,20.136 -24.044,28.541 l -0.294,0.197 88.069,32.645 87.871,-32.645 z"
   id="path8" />
	<polygon
   style="fill:#d23736;stroke:#ed1c24;stroke-width:0.5864"
   points="111.372,304.524 113.327,316.546 138.936,337.463 179.401,370.403 219.771,337.463 245.088,316.839 245.282,316.839 245.282,316.743 245.282,316.743 247.335,304.524 268.057,183.712 267.275,183.712 179.207,211.275 91.53,183.809 90.65,183.809 101.01,244.313 "
   id="polygon10" />
	<g
   id="g20">
		<polygon
   style="fill:#f6d926;stroke:#000000;stroke-width:2.3459"
   points="178.523,156.538 132.192,183.712 143.725,131.123 103.455,95.448 157.116,90.168 178.523,40.905 200.124,90.268 253.59,95.448 213.32,131.32 224.853,183.712 "
   id="polygon12" />
		<g
   id="g18">
			<polygon
   style="fill:#d13f3b;stroke:#d13f3b;stroke-width:0.2933"
   points="179.793,94.665 240.494,99.749 192.599,140.898 140.501,172.47 155.064,110.988 178.717,54.786 203.057,113.14 216.839,172.47 162.98,139.628 116.844,99.749 "
   id="polygon14" />
			<polygon
   style="fill:#d13f3b;stroke:#d13f3b;stroke-width:0.2933"
   points="178.62,94.373 161.222,96.034 154.379,111.967 150.568,128.974 163.566,140.508 178.62,149.306 193.574,140.508 206.477,128.974 202.86,111.967 195.92,96.034 "
   id="polygon16" />
		</g>
	</g>
	<path
   style="fill:#edd42f;stroke:#000000;stroke-width:2.2481"
   d="m 263.756,232.681 c -2.054,1.076 -4.888,6.745 0,10.753 11.631,0.097 19.061,0 23.458,-1.174 2.151,-0.293 4.398,-1.074 5.963,-3.42 2.932,-4.303 -1.564,-7.43 -2.834,-11.046 6.939,-4.398 5.766,-10.85 1.27,-15.737 8.992,-8.015 1.173,-12.804 -2.443,-16.323 2.833,-6.452 -3.032,-11.828 -8.017,-11.046 -5.57,-0.097 -5.375,4.497 -7.134,6.354 -1.955,2.052 -3.811,-0.391 -7.427,5.278 -1.957,5.278 2.052,8.601 2.736,9.286 -5.768,-0.978 -10.167,10.557 -3.42,12.902 -6.746,2.15 -7.527,11.827 -2.152,14.173 z"
   id="path22" />
	<path
   style="stroke:#000000;stroke-width:0.2933"
   d="m 285.359,221.831 c 3.616,-6.255 6.548,-3.812 9.871,-4.007 -3.323,-1.857 -8.992,-1.857 -11.828,1.271 -1.269,-2.736 -1.368,-13.194 1.76,-16.615 0.098,0 4.008,-3.128 4.008,-3.52 0.097,-0.488 -5.376,3.52 -6.159,4.398 -0.878,1.075 -1.858,-5.278 -2.932,-7.232 -3.714,-6.745 -3.714,-6.452 -1.075,-0.294 1.37,3.129 1.37,5.865 0.684,5.377 -8.895,-7.917 -1.172,-3.029 1.173,4.985 0.976,1.956 0.782,11.046 -1.467,15.738 -2.637,-0.783 -5.375,-4.107 -7.134,-6.355 5.376,8.504 4.497,12.608 9.189,13.196 1.172,0.194 1.661,-3.325 3.91,-6.942 z"
   id="path24" />
	<g
   id="g30">
		<path
   style="fill:#edd42f;stroke:#000000;stroke-width:2.2481"
   d="m 256.327,282.628 c -2.638,0.393 -5.57,3.422 -7.527,8.016 -2.443,5.962 -2.052,12.218 0.782,13.879 0.782,0.49 1.369,-0.293 2.15,-0.39 -1.759,4.691 -1.66,13.098 0.293,20.721 3.422,10.459 8.992,17.302 13.49,14.858 2.151,-1.466 2.64,-2.933 2.736,-5.865 2.249,-0.195 5.474,-1.954 7.625,-3.811 4.105,-4.3 4.203,-7.428 2.249,-11.143 -0.588,-0.782 -2.542,-3.323 -3.129,-3.714 4.105,0.684 9.286,-2.736 10.947,-8.699 1.759,-6.159 -0.878,-12.609 -4.886,-14.37 2.54,0 4.592,-0.487 7.428,-2.736 4.202,-4.203 4.79,-10.557 2.15,-14.76 -1.564,-1.956 -5.474,-4.007 -7.918,-3.811 7.527,-6.059 9.875,-10.948 3.42,-18.669 0,0 -1.368,-1.369 -1.759,-1.075 3.617,-2.542 5.768,-5.964 4.106,-11.534 -1.075,-3.323 -3.52,-4.398 -6.842,-3.519 -0.49,-4.888 -3.421,-9.089 -7.234,-8.993 -4.104,0.097 -8.405,4.789 -7.818,10.85 0.291,1.76 0.781,2.54 1.368,3.421 -4.3,1.172 -7.429,2.835 -8.7,8.795 -1.27,5.084 -2.052,10.363 0.88,12.514 -1.954,0.879 -2.443,1.563 -4.691,4.495 -3.519,5.084 -3.422,12.023 -0.977,14.565 0.488,0.488 1.173,0.781 1.857,0.975 z"
   id="path26" />
		<path
   style="stroke:#000000;stroke-width:0.2933"
   d="m 256.914,327.689 c 2.736,-2.932 4.399,-7.039 7.429,-10.946 5.572,-7.723 5.865,-14.27 17.691,-14.761 -0.782,-1.661 -8.992,-0.585 -12.706,2.833 0.587,-9.969 3.42,-18.374 16.422,-21.991 -5.28,0.097 -11.731,2.346 -11.731,2.54 -0.878,-4.104 0.197,-7.622 2.443,-11.238 1.955,-4.497 5.375,-8.7 8.603,-11.829 -3.031,1.369 -7.136,5.865 -9.775,8.994 -1.271,-2.639 -2.833,-12.999 1.271,-15.932 0,0 6.256,-8.114 6.256,-8.896 0,-1.075 -7.332,9.58 -8.407,9.091 -1.269,-0.488 -2.542,-4.105 -1.758,-6.744 2.249,-7.526 5.278,-9.872 5.181,-10.067 -0.196,-0.392 -3.031,3.812 -6.159,9.286 -1.564,2.834 0.488,8.308 -0.293,8.114 -4.398,-0.979 -6.256,-8.016 -5.473,-4.107 0.487,2.346 4.691,5.277 6.059,7.917 -0.489,4.692 1.369,9.383 -0.783,14.075 -2.443,-0.782 -5.276,-3.908 -6.94,-6.157 2.542,4.691 6.158,8.602 6.158,15.051 -0.293,4.203 -1.467,7.626 -2.835,10.949 -2.637,-3.226 -4.788,-6.843 -6.841,-10.459 1.955,4.788 4.204,9.48 6.06,14.369 -0.293,5.767 -1.468,11.044 -5.179,14.856 -0.881,0.49 -0.978,0.781 -1.761,1.271 0.197,-9.773 -3.908,-14.857 -4.203,-19.158 -0.978,2.542 1.955,8.699 1.174,13.489 0.684,6.06 -0.194,10.948 -2.639,17.3 0.78,0.88 1.27,2.248 2.736,2.15 z"
   id="path28" />
	</g>
	<g
   id="g36">
		<path
   style="fill:#edd42f;stroke:#000000;stroke-width:2.2481"
   d="m 218.403,356.23 c -2.835,-1.173 -7.429,-0.585 -11.632,1.956 -5.376,3.225 -6.843,7.33 -6.843,11.437 0.099,2.932 2.641,5.962 3.616,6.353 -3.616,2.542 -8.699,3.911 -11.044,10.949 -1.955,10.262 0.099,19.059 5.865,19.743 2.835,0.196 4.203,-0.685 5.766,-2.932 2.248,1.173 6.355,1.76 9.482,1.564 6.354,-0.978 7.917,-3.421 7.917,-7.525 -0.098,-0.979 -0.784,-4.107 -1.271,-4.79 3.813,3.03 12.706,4.592 17.399,0.879 4.888,-3.911 5.669,-9.873 2.445,-13.586 2.541,1.465 6.45,2.151 9.773,1.663 6.353,-0.88 10.654,-5.573 9.58,-10.362 -0.588,-2.445 -1.075,-4.497 -3.617,-5.768 0.099,-0.097 0.488,0 1.368,-0.194 5.768,-1.271 8.504,-3.91 8.602,-8.7 -0.49,-3.421 -1.075,-4.398 -2.052,-6.94 0,0 -0.684,-1.953 -1.174,-1.855 4.985,0.097 8.896,-1.37 10.069,-6.842 0.684,-3.129 -1.174,-5.474 -4.985,-6.841 2.443,-4.4 1.565,-9.385 -2.736,-13.099 -7.234,-5.181 -15.151,-5.378 -17.499,2.736 -0.39,2.346 0.98,4.105 1.664,5.179 -3.422,-0.781 -7.624,0.881 -10.949,3.422 -4.007,3.227 -5.375,7.918 -3.714,11.338 -2.345,-0.488 -5.375,-0.293 -8.405,0.684 -6.159,1.956 -10.167,6.255 -8.992,9.677 0.291,0.78 0.683,1.367 1.367,1.854 z"
   id="path32" />
		<path
   style="stroke:#000000;stroke-width:0.2933"
   d="m 200.221,398.261 c 4.4,-0.783 8.212,-3.325 12.804,-5.571 9.58,-4.301 13.002,-10.263 25.414,-4.79 0,-1.956 -8.895,-5.083 -14.367,-3.714 5.473,-8.895 12.415,-15.248 27.565,-12.022 -5.475,-2.542 -12.218,-3.226 -12.317,-3.032 1.074,-4.201 2.932,-7.427 7.037,-9.578 4.203,-3.225 9.285,-4.008 13.488,-7.525 -3.908,2.249 -9.188,2.736 -13.389,4.3 0.097,-3.031 3.517,-13.001 9.186,-13.685 0,0 8.504,-1.661 8.896,-2.543 0.488,-0.975 -10.949,2.642 -11.243,1.369 -0.196,-0.782 1.564,-2.54 3.226,-3.908 6.744,-5.182 4.203,-9.97 3.91,-10.361 -0.293,-0.293 1.369,6.157 -4.594,9.773 -3.03,1.858 -5.278,4.105 -5.963,3.52 -4.007,-3.129 -2.444,-10.557 -3.519,-6.549 -0.684,2.346 2.151,7.233 2.249,10.263 -2.737,4.104 -3.714,9.089 -8.212,12.315 -2.149,-1.955 -2.932,-5.962 -3.517,-8.895 0.194,5.572 0.294,10.654 -1.468,16.715 -2.444,3.714 -4.788,6.548 -7.82,8.895 -1.172,-4.203 -1.661,-8.7 -1.953,-12.999 -0.293,5.375 -0.293,10.751 -0.88,16.226 -3.03,5.179 -8.405,8.112 -14.174,9.773 -1.074,0 -2.053,0 -3.128,0 0.196,-3.91 1.663,-8.015 3.422,-12.021 -2.249,1.857 -3.422,3.518 -4.595,5.571 -2.151,5.864 -2.248,11.241 -7.82,15.933 -0.681,1.172 0.003,2.54 1.762,2.54 z"
   id="path34" />
	</g>
	<g
   id="g48">
		<g
   id="g44">
			<path
   style="fill:#ffffff"
   d="m 180.673,289.275 v 12.707 h -6.159 v -28.053 h 6.159 v 10.654 h 1.172 c 0.685,-0.098 1.27,-0.293 1.662,-0.684 0.488,-0.294 0.782,-0.685 0.977,-1.075 0.196,-0.39 0.588,-1.172 1.174,-2.346 0.977,-1.858 1.758,-3.422 2.541,-4.398 0.685,-1.076 1.368,-1.76 2.052,-2.248 0.684,-0.393 1.467,-0.587 2.348,-0.587 1.074,0 1.856,0.099 2.637,0.391 v 4.594 c -0.098,0 -0.098,0 -0.194,0 -0.099,-0.098 -0.099,-0.098 -0.197,-0.098 -0.487,0 -0.878,0.098 -1.172,0.295 -0.391,0.194 -0.686,0.487 -1.074,1.074 -0.49,0.587 -1.077,1.564 -1.761,2.933 -0.684,1.271 -1.271,2.248 -1.857,2.836 -0.488,0.585 -1.271,1.074 -2.444,1.562 0.783,0.293 1.37,0.587 1.858,0.979 0.489,0.389 0.979,0.78 1.271,1.17 0.391,0.49 0.685,1.077 0.976,1.761 0.293,0.586 0.685,1.271 0.977,1.955 0.39,0.781 0.684,1.467 0.98,2.052 0.388,0.587 0.684,1.075 0.975,1.465 0.197,0.393 0.587,0.686 1.077,0.978 0.391,0.196 0.878,0.296 1.465,0.296 v 4.691 c -0.684,0.389 -1.465,0.487 -2.248,0.487 -0.88,0 -1.759,-0.194 -2.443,-0.487 -0.684,-0.391 -1.467,-1.077 -2.248,-2.054 -0.684,-1.075 -1.467,-2.542 -2.346,-4.301 -0.782,-1.66 -1.369,-2.932 -1.759,-3.811 -0.49,-0.88 -0.783,-1.466 -1.076,-1.858 -0.39,-0.391 -0.685,-0.585 -0.979,-0.685 -0.292,-0.097 -0.683,-0.196 -1.172,-0.196 h -1.172 z"
   id="path38" />
			<path
   style="fill:#ffffff"
   d="m 174.71,253.6 -3.03,3.712 c -1.173,-0.879 -2.052,-1.563 -2.835,-1.856 -0.782,-0.391 -1.759,-0.587 -2.932,-0.587 -1.369,0 -2.542,0.393 -3.617,1.074 -1.074,0.588 -1.955,1.664 -2.54,3.129 -0.586,1.369 -0.881,3.225 -0.881,5.375 0,2.445 0.391,4.4 1.173,5.768 0.88,1.369 1.76,2.346 2.835,2.835 1.075,0.488 2.15,0.685 3.031,0.685 2.444,0 4.496,-1.077 6.254,-3.325 l 3.813,3.029 c -1.173,1.467 -2.443,2.641 -3.617,3.521 -1.271,0.879 -2.443,1.368 -3.714,1.759 -1.173,0.291 -2.443,0.487 -3.812,0.487 -1.858,0 -3.616,-0.391 -5.278,-1.076 -1.564,-0.78 -3.03,-1.76 -4.203,-3.029 -1.173,-1.271 -2.052,-2.836 -2.736,-4.692 -0.587,-1.759 -0.88,-3.714 -0.88,-5.866 0,-2.54 0.39,-4.69 1.172,-6.644 0.782,-1.858 1.858,-3.422 3.226,-4.594 1.369,-1.271 2.834,-2.149 4.399,-2.738 1.661,-0.585 3.226,-0.879 4.789,-0.879 1.173,0 2.346,0.195 3.519,0.489 1.172,0.293 2.346,0.781 3.322,1.368 0.978,0.588 1.858,1.271 2.542,2.055 z"
   id="path40" />
			<polygon
   style="fill:#ffffff"
   points="156.139,244.508 156.139,255.749 150.665,255.749 150.665,249.103 130.335,249.103 130.335,221.05 136.394,221.05 136.394,244.508 146.657,244.508 146.657,221.05 152.815,221.05 152.815,244.508 "
   id="polygon42" />
		</g>
		<path
   style="fill:#ffffff"
   d="m 206.575,294.749 h 3.421 c 1.857,0 3.422,0.685 4.791,1.956 1.368,1.27 1.956,2.932 1.956,4.887 v 23.946 h -6.746 v -13.683 h -3.421 v -3.52 h 3.421 v -6.744 c 0,-0.88 -0.293,-1.662 -0.978,-2.542 -0.683,-0.487 -1.465,-0.879 -2.443,-0.978 v -3.322 z m -3.323,30.789 h -6.942 v -23.946 c 0,-1.761 0.684,-3.42 2.055,-4.887 1.465,-1.271 3.127,-1.956 4.887,-1.956 h 3.323 v 3.323 c 0,0 0,0 -0.098,0 -0.782,0 -1.466,0.391 -2.249,0.978 -0.685,0.684 -0.976,1.564 -0.976,2.542 v 6.744 h 3.323 v 3.52 h -3.323 z"
   id="path46" />
	</g>
	<g
   id="g58">
		<path
   style="fill:#edd42f;stroke:#000000;stroke-width:2.2481"
   d="m 63.867,219.388 c -0.976,-4.984 -0.292,-13.588 0.88,-18.277 1.758,-6.94 -2.053,-11.438 -1.563,-11.339 0.683,0.098 17.69,11.924 22.187,23.752 4.399,11.925 8.601,17.105 -0.977,25.61 -9.481,8.307 -19.158,-12.708 -20.527,-19.746 z"
   id="path50" />
		<path
   style="stroke:#000000;stroke-width:0.2933"
   d="m 77.063,233.854 c -1.955,-5.962 -4.497,-11.534 -4.692,-17.104 -0.098,-6.158 -1.27,-11.729 -3.226,-16.714 3.617,4.886 5.768,12.12 6.94,19.548 -1.172,5.18 0.88,12.022 0.978,14.27 z"
   id="path52" />
		<path
   style="fill:#edd42f;stroke:#000000;stroke-width:2.2481"
   d="m 75.695,224.471 c -0.88,-12.219 13.685,-31.278 14.076,-30.791 0.487,0.489 -0.88,3.714 1.466,10.655 0.879,2.54 3.128,5.864 3.91,9.286 2.933,13.001 -1.564,37.241 -6.451,37.337 -4.889,0.1 -12.218,-14.269 -13.001,-26.487 z"
   id="path54" />
		<path
   style="stroke:#000000;stroke-width:0.2933"
   d="m 85.665,250.374 c -4.887,-10.948 -2.052,-33.136 0.196,-42.617 -0.196,9.384 -1.76,26.685 6.354,36.752 -2.543,8.894 -5.866,4.984 -6.55,5.865 z"
   id="path56" />
	</g>
	<g
   id="g68">
		<path
   style="fill:#edd42f;stroke:#000000;stroke-width:2.2481"
   d="m 64.943,264.937 c -1.956,-13.78 7.526,-31.279 8.405,-31.084 0.88,0.196 8.7,13.391 14.857,27.174 6.158,13.782 7.624,26.195 -1.173,30.008 -8.697,3.91 -20.134,-12.315 -22.089,-26.098 z"
   id="path60" />
		<path
   style="stroke:#000000;stroke-width:0.2933"
   d="m 79.312,286.05 c -3.128,-6.647 -3.518,-11.631 -4.497,-18.083 -0.781,-7.134 -1.271,-13.586 -0.879,-19.548 0.978,6.548 0.293,14.173 5.571,22.285 0.391,6.257 1.466,12.804 -0.195,15.346 z"
   id="path62" />
		<path
   style="fill:#edd42f;stroke:#000000;stroke-width:2.2481"
   d="m 79.41,274.419 c -1.564,-14.272 12.511,-37.046 13.39,-36.46 0.88,0.49 5.964,7.721 10.067,22.775 4.007,15.053 -0.097,43.79 -6.254,44.181 -6.061,0.391 -15.739,-16.225 -17.203,-30.496 z"
   id="path64" />
		<path
   style="stroke:#000000;stroke-width:0.2933"
   d="m 95.635,302.276 c -7.233,-12.219 -5.67,-36.264 -3.911,-47.798 0.684,11.046 0.098,26.685 9.286,37.535 -0.976,1.465 -4.789,9.089 -5.375,10.263 z"
   id="path66" />
	</g>
	<g
   id="g78">
		<path
   style="fill:#edd42f;stroke:#000000;stroke-width:2.2481"
   d="m 72.47,324.267 c -4.007,-15.247 5.082,-37.534 6.06,-37.63 0.977,0 10.654,13.193 18.473,27.661 7.918,14.466 11.73,27.858 2.835,34.309 -8.895,6.451 -23.459,-9.187 -27.368,-24.34 z"
   id="path70" />
		<path
   style="stroke:#000000;stroke-width:0.2933"
   d="m 91.53,345.577 c -4.301,-6.744 -6.158,-13.099 -8.015,-20.233 -1.858,-7.917 -3.227,-15.053 -3.617,-21.895 1.955,7.136 4.789,21.895 11.632,29.813 2.248,7.426 2.344,12.023 0,12.315 z"
   id="path72" />
		<path
   style="fill:#edd42f;stroke:#000000;stroke-width:2.2481"
   d="m 89.281,331.6 c -3.518,-15.835 8.504,-45.062 9.483,-44.669 1.074,0.391 7.525,7.33 13.977,23.458 6.451,16.226 5.864,49.652 -0.685,51.609 -6.549,1.955 -19.158,-14.663 -22.775,-30.398 z"
   id="path74" />
		<path
   style="stroke:#000000;stroke-width:0.2933"
   d="m 110.101,351.051 c -6.451,-12.512 -9.677,-37.143 -10.654,-50.242 1.857,12.317 7.038,25.806 12.805,37.437 0.196,2.346 0.879,16.715 -2.151,12.805 z"
   id="path76" />
	</g>
	<g
   id="g92">
		<g
   id="g84">
			<path
   style="fill:#edd42f;stroke:#000000;stroke-width:2.2481"
   d="M 105.214,384.87 C 88.597,373.629 84.296,347.044 85.469,346.163 c 1.075,-0.784 23.067,2.345 41.541,11.24 18.377,8.796 26.88,26.585 23.752,36.361 -3.126,9.873 -29.029,2.346 -45.548,-8.894 z"
   id="path80" />
			<path
   style="stroke:#000000;stroke-width:0.2933"
   d="m 137.274,392.591 c -7.722,-5.083 -15.443,-10.164 -23.166,-15.248 -7.917,-6.353 -13.488,-12.608 -18.571,-19.549 7.527,5.572 15.736,12.219 23.457,15.639 6.063,6.355 12.123,12.708 18.28,19.158 z"
   id="path82" />
		</g>
		<g
   id="g90">
			<path
   style="fill:#edd42f;stroke:#000000;stroke-width:2.2481"
   d="m 127.793,384.675 c -13.977,-14.369 -11.633,-42.912 -9.384,-44.181 2.249,-1.368 20.331,9.676 37.73,22.285 17.399,12.512 22.775,30.692 16.519,37.632 -6.257,7.039 -30.986,-1.368 -44.865,-15.736 z"
   id="path86" />
			<path
   style="stroke:#000000;stroke-width:0.2933"
   d="m 167.184,397.088 c -10.85,-12.315 -26.195,-25.608 -38.901,-35.969 13.977,7.33 27.563,17.104 40.269,27.465 -0.685,2.639 -0.685,5.865 -1.368,8.504 z"
   id="path88" />
		</g>
	</g>
	<path
   style="fill:#d13f3b;stroke:#000000;stroke-width:2.2481"
   d="m 199.146,372.849 c -3.126,6.45 -5.278,12.608 -7.037,19.06 1.956,6.938 3.617,12.413 7.527,19.156 -6.649,-3.127 -13.392,-5.473 -20.137,-6.547 -8.015,1.465 -12.706,3.42 -20.234,6.254 3.617,-6.45 6.257,-11.828 7.723,-18.571 -1.956,-6.94 -4.106,-13.099 -7.331,-19.452 7.038,3.422 12.608,5.964 19.648,6.843 7.623,-1.075 11.924,-2.64 19.841,-6.743 z"
   id="path94" />
	<path
   style="fill:#ffffff;stroke:#000000;stroke-width:2.3459"
   d="m 73.252,179.704 c 2.736,0 4.985,-2.249 4.985,-4.985 0,-2.736 -2.249,-4.985 -4.985,-4.985 -2.737,0 -4.985,2.249 -4.985,4.985 0,2.736 2.247,4.985 4.985,4.985 z"
   id="path96" />
	<path
   style="fill:#ffffff;stroke:#000000;stroke-width:2.3459"
   d="m 105.018,140.313 c 2.738,0 4.985,-2.249 4.985,-4.985 0,-2.737 -2.247,-4.986 -4.985,-4.986 -2.736,0 -4.984,2.249 -4.984,4.986 0,2.736 2.247,4.985 4.984,4.985 z"
   id="path98" />
	<path
   style="fill:#ffffff;stroke:#000000;stroke-width:2.3459"
   d="m 284.869,180.29 c 2.737,0 4.985,-2.247 4.985,-4.985 0,-2.736 -2.247,-4.985 -4.985,-4.985 -2.736,0 -4.984,2.248 -4.984,4.985 0,2.737 2.248,4.985 4.984,4.985 z"
   id="path100" />
	<path
   style="fill:#ffffff;stroke:#000000;stroke-width:2.3459"
   d="m 252.516,139.725 c 2.736,0 4.985,-2.247 4.985,-4.985 0,-2.736 -2.248,-4.985 -4.985,-4.985 -2.736,0 -4.985,2.249 -4.985,4.985 0,2.738 2.248,4.985 4.985,4.985 z"
   id="path102" />
</g></g>
</svg>
