<?xml version="1.0" encoding="iso-8859-1"?>
<!-- Generator: Adobe Illustrator 24.0.1, SVG Export Plug-In . SVG Version: 6.00 Build 0)  -->
<svg version="1.1" id="Layer_1" xmlns="http://www.w3.org/2000/svg" xmlns:xlink="http://www.w3.org/1999/xlink" x="0px" y="0px"
	 viewBox="0 0 660 660" style="enable-background:new 0 0 660 660;" xml:space="preserve">
<path style="fill:#00A751;" d="M71.215,631.005l6.562-155.3c0,0,218.732-229.668,511.833-336.845l-2.188,89.68
	c0,0-50.308,30.621-63.433,30.621c0,0,30.622,2.189,63.433-24.059l2.188,174.984c0,0-61.246,21.875-76.557,37.186l-26.248,4.374
	v50.308c0,0-94.055,54.683-115.929,59.057l-21.872-2.186c0,0-24.062,13.123-30.624,24.06c0,0-8.749,6.562-21.872-6.562
	c0,0-10.938,4.373-17.499-24.061c0,0-26.247,37.185-41.559,4.375c0,0-28.434-6.561,19.686-65.619
	c0,0-102.805,91.867-109.367,107.178l-39.371,2.186c0,0-10.935,17.5-24.059,30.624H71.215z"/>
<path style="fill:#363B97;" d="M484.619,390.4c0,0,11.483,102.027-151.335,108.956c0,0-137.801,10.937-155.299-157.488
	c0,0-10.936-148.737,161.862-177.172v177.172L484.619,390.4z"/>
<path style="fill:#FFFFFF;" d="M362.79,280.404l-24.721,18.129l-50.881-3.392c-6.587,4.441-12.532,9.726-17.864,15.581L263.7,357.59
	l-19.428,31.793c1.876,15.34,7.232,29.585,15.296,41.93l4.132-23.414l32.81,6.562l21.872,34.997l-26.809,12.618
	c14.878,8.948,32.244,14.188,50.87,14.188c54.668,0,98.988-44.319,98.988-98.988C441.43,329.585,407.695,289.791,362.79,280.404z"/>
<path d="M362.79,280.404c-6.568-1.373-13.371-2.114-20.348-2.114c-20.462,0-39.472,6.213-55.254,16.851l50.881,3.392L362.79,280.404
	z"/>
<path d="M269.324,310.722c-16.017,17.587-25.867,40.893-25.867,66.554c0,4.108,0.328,8.133,0.814,12.107L263.7,357.59
	L269.324,310.722z"/>
<path d="M296.509,414.461l-32.81-6.562l-4.132,23.414c8.188,12.531,19.153,23.034,32.005,30.762l26.809-12.618L296.509,414.461z"/>
<polygon points="303.072,394.775 281.198,357.59 322.757,320.407 359.942,344.466 349.005,390.4 "/>
<polygon points="366.504,412.275 351.191,445.083 373.066,460.394 410.249,431.96 403.688,401.337 "/>
<rect x="373.066" y="309.471" style="fill:#363B97;" width="111.553" height="80.93"/>
<path style="fill:#363B97;" d="M423.375,29.853c-21.048,12.678-36.915,68.804-36.915,136.16c0,67.358,15.867,123.484,36.915,136.161
	c21.048-12.677,36.913-68.803,36.913-136.161C460.288,98.658,444.423,42.532,423.375,29.853z"/>
<path style="fill:#FFFFFF;" d="M423.375,137.131c-12.758,7.685-22.373,41.699-22.373,82.522c0,40.823,9.615,74.837,22.373,82.521
	c12.755-7.684,22.371-41.698,22.371-82.521C445.746,178.83,436.13,144.816,423.375,137.131z"/>
</svg>
