<?xml version="1.0" encoding="iso-8859-1"?>
<!-- Generator: Adobe Illustrator 24.0.1, SVG Export Plug-In . SVG Version: 6.00 Build 0)  -->
<svg version="1.1" id="Layer_1" xmlns="http://www.w3.org/2000/svg" xmlns:xlink="http://www.w3.org/1999/xlink" x="0px" y="0px"
	 viewBox="0 0 660 660" style="enable-background:new 0 0 660 660;" xml:space="preserve">
<path d="M45.989,100.474c-3.948,275.238,54.732,547.716,284.317,549.294l0,0l0,0l0,0l0,0
	c229.847-1.579,288.398-274.056,284.582-549.294C562.26,89.289,538.84,66.398,522.79,17.191
	c-59.733,33.417-128.148,44.075-192.483,41.576l0,0l0,0l0,0l0,0c-64.074,2.499-132.489-8.159-192.351-41.576
	C121.902,66.398,98.484,89.289,45.989,100.474z"/>
<path style="fill:#0095DA;" d="M65.33,172.178c5,236.427,66.44,454.96,264.976,456.277l0,0l0,0l0,0l0,0
	c198.797-1.317,260.242-219.85,265.241-456.277H65.33z"/>
<path style="fill:#FAA74A;" d="M65.33,172.178c5,236.427,66.44,454.96,264.976,456.277l0,0l0,0l0,0l0,0l0,0V172.178H65.33z"/>
<rect x="321.886" y="261.117" width="16.972" height="376.678"/>
<path d="M490.554,274.537c-53.152,13.816-90.648,64.336-153.933,84.729l-7.629-4.603l-5.395,2.502
	c-3.159-4.212-6.185-8.948-9.473-13.553c-6.449-8.816-13.684-17.368-24.472-21.315l-4.342,7.5
	c-19.998-13.551-38.551-36.049-60.916-37.234c-0.527,3.288-3.552,6.448-6.841,8.55c-15.262-1.577-27.366-15.524-47.891-13.155
	c1.577,15.524,10.393,21.971,24.075,23.42l1.974,9.076c2.37-2.894,4.738-3.023,7.236-2.366
	c22.498,17.63,44.208,35.918,64.206,58.153c1.184,3.025,3.553,7.235,1.579,10.394l-8.288,1.183l1.052,3.028
	c-5,2.105-9.868,3.156-14.737,7.499c-3.945,3.419-4.997,7.499-4.208,11.315c-5.788,7.237-11.579,20.128-10.92,30.261
	c4.735-5,9.474-7.501,16.314-8.553c12.894,0.79,25.918-3.947,37.892-12.234c3.816,2.761,5.129,6.971,5.129,12.628
	c4.476,30.129-17.497,16.843-35.126,26.183c-10.132,1.448-15.789,4.212-19.868,20.657c9.078-3.159,18.156-6.578,27.366-6.974
	c-0.132,2.894,2.631,6.183,7.105,8.815c0-2.368,0.395-4.737,2.237-6.974c14.078,1.58,27.629,0.527,41.444-3.156
	c1.185-0.264,2.498-0.66,3.683-1.054c17.499,11.841,37.629,11.184,55.917-0.657c6.71-1.842,13.022-1.317,20.129-0.263
	c-1.449-3.289-1.052-6.448,0-9.735l3.159-2.895l-25.393-1.448l36.183-14.998c-12.503-1.186-22.765-3.816-34.208-15.394l1.841-2.502
	l3.815-5.131l13.419-2.368l-3.55-3.815c6.313-3.55,12.762-4.999,19.076-5.524l3.551-3.815l6.582,0.657
	c1.313-3.816,5.129-7.763,10.26-8.553l-3.29-5.264c3.554-3.552,7.37-5.788,12.63-7.629l-3.154-3.29
	c14.606-5.524,21.447-20.13,25.131-33.288l6.445-10.525l9.079-2.499c1.313-8.288,3.816-17.631-6.449-18.553l10.133-10.525
	l7.895-5.525C490.951,288.614,491.079,281.511,490.554,274.537z M326.097,460.969c-4.079-0.921-7.895-1.841-11.973-2.763
	c-4.342-0.92-8.553-1.842-12.893-2.895c-1.319-8.026,2.366-16.71,1.052-24.603c2.893-3.818,6.577-5.527,11.841-1.448
	c1.709,1.315,3.419,3.157,5.262,5.657C317.543,444.787,331.227,453.206,326.097,460.969z"/>
<path style="fill:#FFFFFF;" d="M399.118,338.742c-1.582-3.158-4.211-4.867-9.081-4.21c-9.603,5.92-19.735,11.447-30.129,16.578
	c-10.393,5.133-21.183,9.738-31.97,13.946c-11.842,6.842-7.236,28.551,6.578,35.524c0.657-1.447,2.76,0.526,4.474-2.501
	c5.393-9.998,12.764-17.368,20.919-23.023c6.319-4.472,13.026-8.026,19.869-11.053c32.496-23.156,75.648-38.418,87.098-75.783
	C447.139,308.218,424.509,325.454,399.118,338.742z M359.908,361.371c-14.736,8.159-26.313,16.183-31.708,29.473
	c-9.604-18.155,8.157-27.499,31.708-36.182c10.921-3.948,23.155-7.894,34.341-12.499
	C381.879,349.927,370.17,355.714,359.908,361.371z"/>
<path style="fill:#FFFFFF;" d="M368.461,446.496c3.683-12.366,0.66-24.997-17.892-32.758c15.261,0.919,31.574,1.577,32.362-16.185
	c10.657,2.499,25.92-3.815,27.104-20.788c13.947,2.632,42.761-6.315,31.446-26.708c11.71-6.711,31.574-20.919,17.5-33.024
	c8.154-8.946,23.679-19.735,20.917-30.523l-10.525,2.765l-0.92,0.527l4.34,2.761c0.793,9.603-9.206,13.419-17.367,22.368
	c8.028,11.051-6.842,26.577-18.547,33.419c11.445,20.261-15.002,27.629-28.949,24.997c-1.181,16.839-16.838,23.155-27.496,20.655
	c-9.211,31.182-20.261,1.973-34.077,18.026c-4.868-5-8.286-5.921-10.788-5.79l-1.842,3.288c6.317,3.686,15.789,8.159,10.392,18.682
	C355.04,426.103,361.486,436.891,368.461,446.496z"/>
<path style="fill:#FFFFFF;" d="M287.152,372.029c-19.735-21.051-41.444-41.049-67.495-56.969c-4.737-3.29-9.605-3.42-14.34-1.449
	c5,5.528,11.841,9.343,22.498,12.764C258.471,336.242,279.26,384.395,287.152,372.029z"/>
<path style="fill:#FFFFFF;" d="M237.024,422.551c20,3.419,29.076-11.841,40.918-8.42c0.92-4.079,3.29-9.735,0.658-9.999
	c-5-0.526-5.657-4.605-6.711-8.026c-1.051-3.42-19.734,2.5-27.496,9.868c1.446-0.133,0,2.631,1.315,1.974
	c7.237-3.685,16.052-2.895,19.473,0.657c-8.947,10.131-15.394,6.58-25.656,8.29L237.024,422.551z"/>
<path style="fill:#FFFFFF;" d="M300.836,413.738c-0.659-12.106-9.87-28.816-31.708-37.365
	C283.731,387.816,288.6,415.579,300.836,413.738z"/>
<path style="fill:#FFFFFF;" d="M337.41,425.709l-19.998-2.106c-3.814,3.42-3.553,7.633-0.92,6.054
	c4.473-2.766,13.947-4.737,14.21,0.129c0.657,8.29,2.761,12.37,9.733,15.658c5.002,2.368-1.577,10.526-8.681,12.632
	c-1.712,0.526,2.895,3.684,1.446,5.394C343.198,459.915,353.199,453.601,337.41,425.709z"/>
<path style="fill:#FFFFFF;" d="M294.914,431.366l6.317-7.104c-5.264-1.185-10.002-16.84-18.421-10.92
	C282.417,418.078,293.6,418.473,294.914,431.366z"/>
<path d="M65.33,172.178c0.657,31.971,2.367,63.679,5.262,94.597h519.56c3.026-30.918,4.735-62.626,5.396-94.597H65.33z"/>
<path style="fill:#FFFFFF;" d="M65.33,172.178c0.526,28.157,1.973,55.917,4.34,83.283h521.534
	c2.369-27.366,3.683-55.126,4.343-83.283H65.33z"/>
<g>
	<path style="fill:#EE3124;" d="M314.387,213.886c-2.369-2.106-5.131-3.422-8.552-4.08c3.025-0.527,5.395-1.709,7.368-3.289
		c2.499-2.106,3.685-4.869,3.685-8.156c0-4.211-2.5-7.633-7.368-10.132c-5-2.366-11.184-3.685-18.815-3.685
		c-7.103,0-13.289,1.448-18.419,4.212c-5.922,3.156-8.814,7.499-8.814,12.892h16.315c0.263-1.973,1.711-3.418,4.21-4.605
		c1.974-0.787,4.21-1.315,6.71-1.315h1.447c2.631,0,4.473,0.396,5.395,1.185c0.789,0.527,1.183,1.448,1.183,2.763
		c0,2.501-1.842,4.341-5.394,5.395c-2.238,0.655-5.131,1.052-8.814,1.052v8.551c3.421,0,6.314,0.394,8.814,1.185
		c3.552,1.183,5.394,3.024,5.394,5.526c0,2.233-0.92,3.813-2.631,4.867c-1.185,0.789-3.026,1.186-5.525,1.447
		c-1.71,0-3.55-0.394-5.657-1.052c-2.106-0.526-3.42-1.183-4.211-1.974c-1.445-1.183-2.237-3.024-2.237-5.525h-16.972
		c0,6.184,2.894,10.921,8.552,14.341c5.131,3.158,11.448,4.735,19.077,4.735c9.078,0,15.92-1.182,20.525-3.42
		c5.395-2.631,8.158-7.105,8.158-13.419C317.808,218.356,316.623,215.858,314.387,213.886z"/>
	<polygon style="fill:#EE3124;" points="145.191,217.306 134.27,184.413 109.537,184.413 109.537,237.042 127.824,237.042 
		127.824,208.226 138.087,235.33 152.033,235.461 162.556,208.49 162.556,237.042 180.977,237.042 180.977,184.413 156.244,184.413 
			"/>
	<path style="fill:#EE3124;" d="M222.289,183.097c-9.735,0-17.63,2.501-23.681,7.37c-6.053,4.999-9.078,11.577-9.078,19.866
		c0,8.815,3.025,15.788,9.078,20.789c5.788,4.868,13.683,7.368,23.681,7.368c9.607,0,17.369-2.5,23.419-7.368
		c6.184-5.131,9.342-11.973,9.342-20.657c0-7.5-2.632-13.815-8.026-18.945C241.104,185.863,232.815,183.097,222.289,183.097z
		 M231.368,221.385c-2.237,2.761-5.262,4.208-9.079,4.208c-4.472,0-7.762-1.709-9.735-4.997c-1.71-2.632-2.501-6.055-2.501-10.132
		c0-3.947,0.921-7.105,2.633-9.737c2.104-3.157,5.263-4.734,9.473-4.734h0.13c4.08,0,7.236,1.577,9.474,4.604
		c1.842,2.632,2.895,5.921,2.895,9.868C234.657,214.936,233.473,218.622,231.368,221.385z"/>
	<polygon style="fill:#EE3124;" points="530.946,204.279 553.709,184.413 529.765,184.413 511.737,201.518 511.737,184.413 
		491.212,184.413 491.212,237.042 511.737,237.042 511.737,220.463 515.42,217.174 531.606,237.042 556.206,237.042 	"/>
	<path style="fill:#EE3124;" d="M394.117,184.544h-31.182h-11.314c-0.66,2.239-1.317,4.342-1.974,6.449
		c-1.581,5-3.158,9.603-4.735,13.682c-2.239,5.657-4.345,9.866-6.317,12.631c-1.578,2.105-3.552,3.683-6.053,4.604
		c-1.577,0.66-3.814,1.054-6.971,1.185v25.262h18.154v-10.921l19.21-0.13l25.785-0.262l0.132,10.918h19.341v-25.261h-14.34
		L394.117,184.544z M374.117,222.699h-11.181h-11.182c0.657-0.79,1.18-1.577,1.577-2.103c1.184-1.842,2.366-3.816,3.418-6.055
		c1.317-2.761,2.896-6.71,4.737-11.973c0.396-1.051,0.92-2.368,1.449-4.077c0.396-0.922,0.656-2.105,1.185-3.289h9.996V222.699z"/>
	<path style="fill:#EE3124;" d="M448.583,183.097c-9.736,0-17.627,2.501-23.68,7.37c-6.052,4.999-9.079,11.577-9.079,19.866
		c0,8.815,3.026,15.788,9.079,20.789c5.788,4.868,13.685,7.368,23.68,7.368c9.605,0,17.367-2.5,23.288-7.368
		c6.317-5.131,9.477-11.973,9.477-20.657c0-7.5-2.635-13.815-8.028-18.945C467.4,185.863,459.113,183.097,448.583,183.097z
		 M457.664,221.385c-2.238,2.761-5.265,4.208-9.08,4.208c-4.471,0-7.762-1.709-9.864-4.997c-1.582-2.632-2.371-6.055-2.371-10.132
		c0-3.947,0.922-7.105,2.631-9.737c2.105-3.157,5.266-4.734,9.477-4.734h0.127c4.081,0,7.239,1.577,9.477,4.604
		c1.842,2.632,2.893,5.921,2.893,9.868C460.954,214.936,459.77,218.622,457.664,221.385z"/>
</g>
<path style="fill:#ED1C24;" d="M89.8,224.411c7.368,0,13.422-6.055,13.422-13.421c0-7.368-6.054-13.421-13.422-13.421
	c-7.368,0-13.419,6.053-13.419,13.421C76.381,218.356,82.433,224.411,89.8,224.411z"/>
<path style="fill:#ED1C24;" d="M569.626,224.411c7.369,0,13.419-6.055,13.419-13.421c0-7.368-6.05-13.421-13.419-13.421
	c-7.367,0-13.421,6.053-13.421,13.421C556.206,218.356,562.26,224.411,569.626,224.411z"/>
<g>
	<path style="fill:#FFFFFF;" d="M308.073,136.917c-0.132,1.974-0.265,4.737-0.397,8.29c-0.263,3.553-0.657,6.446-1.052,8.814
		c-0.261,1.448-0.92,2.5-1.973,3.158c-0.393,0.131-0.921,0.263-1.579,0.395l-0.132,6.446c0.264,0.131,0.526,0.131,0.92,0.131
		c0.397,0.132,1.184,0.132,2.238,0.132c1.842,0,3.42-0.263,4.867-0.657c1.841-0.658,3.421-1.712,4.343-3.026
		c0.657-0.79,1.183-2.895,1.446-6.315c0.264-2.366,0.395-5.394,0.526-8.946c0-1.579,0-3.025,0-4.605h8.025v22.893h10.395v-31.577
		h-27.628C308.073,133.365,308.073,134.943,308.073,136.917z"/>
	<polygon style="fill:#FFFFFF;" points="299.651,132.049 287.547,132.049 278.468,142.313 278.468,132.049 268.074,132.049 
		268.074,163.626 278.468,163.626 278.468,153.627 280.31,151.653 288.469,163.626 300.966,163.626 288.205,143.89 	"/>
	<polygon style="fill:#FFFFFF;" points="355.305,142.706 349.907,132.049 338.33,132.049 350.04,152.179 343.331,163.626 
		354.515,163.626 372.014,132.049 360.83,132.049 	"/>
	<path style="fill:#FFFFFF;" d="M402.011,148.102c-2.237-2.238-6.185-3.421-11.577-3.421c-0.132,0-0.264,0-0.264,0h-4.344v-5.262
		h4.608h8.943v-7.37h-8.943h-14.999v31.577h14.999h0.393c4.343,0,7.631-0.658,9.868-2.106c2.499-1.579,3.815-4.078,3.815-7.367
		C404.51,151.653,403.723,149.679,402.011,148.102z M393.588,155.733c-0.656,0.393-1.71,0.525-3.154,0.525c0,0,0,0-0.132,0h-4.476
		v-5.788h3.291c0.392,0,0.919,0,1.316,0c1.182,0.131,2.102,0.394,2.894,0.655c1.182,0.528,1.71,1.317,1.71,2.37
		C395.038,154.547,394.51,155.338,393.588,155.733z"/>
</g>
<g>
	<polygon style="fill:#FFFFFF;" points="224.921,94.289 234.262,94.289 234.262,117.577 244.657,117.577 244.657,94.289 
		253.866,94.289 253.866,86.001 224.921,86.001 	"/>
	<path style="fill:#FFFFFF;" d="M496.873,82.844c0.525,0.263,1.048,0.396,1.444,0.525c0.525,0,1.185,0.132,1.974,0.132
		c0.789,0,1.577-0.132,2.37-0.261c0.657-0.133,1.314-0.265,1.579-0.396c2.364-1.446,3.946-3.159,4.868-5.265
		c0.13-0.262,0.263-0.79,0.393-1.315h-5.525c-0.264,0.658-0.393,1.185-0.657,1.446c-0.527,0.92-1.317,1.448-2.501,1.448
		c-1.314,0-2.234-0.528-2.895-1.448c-0.129-0.261-0.261-0.789-0.523-1.446h-5.657c0.132,0.79,0.392,1.446,0.655,1.974
		C493.186,79.817,494.767,81.397,496.873,82.844z"/>
	<polygon style="fill:#FFFFFF;" points="206.632,96.659 201.239,86.001 189.661,86.001 201.369,106.131 194.661,117.577 
		205.712,117.577 223.342,86.001 212.026,86.001 	"/>
	<path style="fill:#FFFFFF;" d="M175.846,88.501c-0.79,0-1.448-0.132-2.235-0.132l-0.133-2.368h-10.131v2.368
		c-0.922,0.132-1.71,0.263-2.5,0.393c-3.157,0.791-5.658,1.974-7.762,3.818c-2.499,2.237-3.685,5.263-3.685,8.947
		c0,3.683,1.054,6.711,3.291,8.945c1.842,1.974,4.604,3.422,8.156,4.212c0.79,0.131,1.578,0.262,2.5,0.394v2.499h9.999v-2.368
		c0.79,0,1.71-0.131,2.5-0.394c3.289-0.657,5.92-1.841,8.025-3.817c2.501-2.499,3.816-5.524,3.816-9.339
		c0-3.554-1.314-6.709-3.947-9.21C181.634,90.21,178.873,88.896,175.846,88.501z M163.347,106.92
		c-1.054-0.132-1.842-0.393-2.5-0.657c-0.263-0.132-0.526-0.263-0.659-0.396c-1.315-0.922-1.972-2.367-1.972-4.209
		c0-1.844,0.657-3.159,1.842-3.947c0.263-0.131,0.526-0.263,0.789-0.394c0.658-0.265,1.446-0.526,2.5-0.658V106.92z
		 M176.504,105.736c-0.264,0.132-0.397,0.265-0.658,0.396c-0.658,0.396-1.58,0.657-2.5,0.789V96.659
		c0.92,0.261,1.842,0.393,2.5,0.789c0.261,0.132,0.526,0.263,0.789,0.396c1.053,0.789,1.579,1.971,1.579,3.815
		C178.214,103.5,177.688,104.815,176.504,105.736z"/>
	<path style="fill:#FFFFFF;" d="M451.478,98.237h-0.129h-4.476V86.001h-10.26v31.576h14.865h0.528c4.341,0,7.631-0.658,9.868-2.106
		c2.499-1.577,3.683-4.076,3.683-7.367c0-2.629-0.789-4.603-2.369-6.315C460.822,99.42,457.007,98.237,451.478,98.237z
		 M454.373,109.684c-0.789,0.263-1.709,0.394-2.895,0.526c-0.26,0-0.524,0-0.789,0h-3.816v-5.789h3.292c0.525,0,0.922,0,1.313,0
		c1.186,0.133,2.105,0.394,3.026,0.658c1.053,0.525,1.582,1.315,1.582,2.369C456.086,108.499,455.558,109.158,454.373,109.684z"/>
	<rect x="468.716" y="86.133" style="fill:#FFFFFF;" width="10.261" height="31.574"/>
	<polygon style="fill:#FFFFFF;" points="420.034,97.052 410.3,97.052 410.3,86.001 399.907,86.001 399.907,117.577 410.3,117.577 
		410.3,105.736 420.034,105.736 420.034,117.577 430.429,117.577 430.429,86.001 420.034,86.001 	"/>
	<polygon style="fill:#FFFFFF;" points="506.345,86.001 495.556,102.709 495.424,86.001 485.555,86.001 485.555,117.577 
		495.159,117.577 505.949,101.132 506.081,117.577 515.948,117.577 515.948,86.001 	"/>
	<path style="fill:#FFFFFF;" d="M380.828,98.237h-0.13h-4.475V86.001h-10.261v31.576h14.866h0.526c4.34,0,7.631-0.658,9.87-2.106
		c2.497-1.577,3.683-4.076,3.683-7.367c0-2.629-0.789-4.603-2.371-6.315C390.17,99.42,386.354,98.237,380.828,98.237z
		 M383.72,109.684c-0.789,0.263-1.709,0.394-2.892,0.526c-0.262,0-0.526,0-0.791,0h-3.814v-5.789h3.289c0.524,0,0.921,0,1.315,0
		c1.183,0.133,2.104,0.394,3.025,0.658c1.052,0.525,1.581,1.315,1.581,2.369C385.434,108.499,384.905,109.158,383.72,109.684z"/>
	<path style="fill:#FFFFFF;" d="M307.676,85.213c-4.998,0-8.946,1.446-11.971,4.471c-3.028,2.896-4.607,6.842-4.607,11.842
		c0,5.262,1.579,9.471,4.607,12.498c2.895,2.895,6.842,4.341,11.971,4.341c4.737,0,8.684-1.446,11.578-4.341
		c3.292-3.026,4.87-7.236,4.87-12.366c0-4.606-1.448-8.422-4.079-11.448C317.15,86.79,312.939,85.213,307.676,85.213z
		 M312.15,108.103c-1.052,1.713-2.631,2.633-4.475,2.633c-2.235,0-3.946-1.053-4.998-3.026c-0.791-1.579-1.185-3.684-1.185-6.052
		c0-2.369,0.394-4.341,1.316-5.921c1.052-1.973,2.632-2.894,4.737-2.894h0.13c1.974,0,3.685,0.922,4.737,2.763
		c0.922,1.579,1.446,3.553,1.446,6.053C313.859,104.289,313.335,106.527,312.15,108.103z"/>
	<path style="fill:#FFFFFF;" d="M332.413,90.868c0,1.974-0.133,4.737-0.397,8.29c-0.131,3.551-0.526,6.445-0.92,8.814
		c-0.261,1.448-0.922,2.499-1.974,3.158c-0.394,0.131-0.921,0.264-1.577,0.394l-0.132,6.447c0.132,0.132,0.526,0.132,0.92,0.132
		c0.396,0.129,1.185,0.129,2.237,0.129c1.711,0,3.421-0.261,4.866-0.657c1.841-0.658,3.29-1.711,4.344-3.027
		c0.655-0.788,1.052-2.894,1.445-6.313c0.264-2.37,0.396-5.396,0.396-8.948c0-1.579,0.133-3.027,0.133-4.605h8.154v22.892h10.397
		V86.001h-27.763C332.542,87.315,332.542,88.896,332.413,90.868z"/>
	<path style="fill:#FFFFFF;" d="M273.337,98.632c0,0-0.132,0-0.263,0h-4.342v-5.263h4.605h9.079v-7.368h-9.079h-14.867v31.576
		h14.867h0.526c4.344,0,7.633-0.658,9.868-2.106c2.501-1.577,3.684-4.076,3.684-7.367c0-2.499-0.789-4.471-2.366-6.051
		C282.679,99.814,278.862,98.632,273.337,98.632z M276.627,109.684c-0.79,0.394-1.842,0.526-3.29,0.526h-4.605v-5.789h3.29
		c0.527,0,0.921,0,1.315,0c1.185,0.133,2.106,0.394,3.028,0.658c1.051,0.525,1.577,1.315,1.577,2.369
		C277.942,108.499,277.548,109.29,276.627,109.684z"/>
</g>
</svg>
