<?xml version="1.0" encoding="UTF-8" standalone="no"?>
<svg
   xmlns:dc="http://purl.org/dc/elements/1.1/"
   xmlns:cc="http://creativecommons.org/ns#"
   xmlns:rdf="http://www.w3.org/1999/02/22-rdf-syntax-ns#"
   xmlns:svg="http://www.w3.org/2000/svg"
   xmlns="http://www.w3.org/2000/svg"
   xmlns:sodipodi="http://sodipodi.sourceforge.net/DTD/sodipodi-0.dtd"
   xmlns:inkscape="http://www.inkscape.org/namespaces/inkscape"
   version="1.1"
   id="Layer_1"
   x="0px"
   y="0px"
   viewBox="0 0 1000 1000"
   xml:space="preserve"
   sodipodi:docname="Kuban Krasnodar .svg"
   width="1000"
   height="1000"
   inkscape:version="1.0.1 (3bc2e813f5, 2020-09-07)"><metadata
   id="metadata127"><rdf:RDF><cc:Work
       rdf:about=""><dc:format>image/svg+xml</dc:format><dc:type
         rdf:resource="http://purl.org/dc/dcmitype/StillImage" /><dc:title></dc:title></cc:Work></rdf:RDF></metadata><defs
   id="defs125" /><sodipodi:namedview
   pagecolor="#ffffff"
   bordercolor="#666666"
   borderopacity="1"
   objecttolerance="10"
   gridtolerance="10"
   guidetolerance="10"
   inkscape:pageopacity="0"
   inkscape:pageshadow="2"
   inkscape:window-width="1920"
   inkscape:window-height="1017"
   id="namedview123"
   showgrid="false"
   inkscape:zoom="1.2565321"
   inkscape:cx="421"
   inkscape:cy="297.5"
   inkscape:window-x="-8"
   inkscape:window-y="-8"
   inkscape:window-maximized="1"
   inkscape:current-layer="Layer_1" />






































<g
   id="g1012"
   transform="matrix(2.6173972,0,0,2.6173972,-11.969357,-19.012773)"><path
     d="m 186.016,370.22 c 100.032,0 181.583,-81.552 181.583,-181.513 0,-99.892 -81.551,-181.443 -181.583,-181.443 -99.892,0 -181.443,81.55 -181.443,181.442 0,99.962 81.551,181.514 181.443,181.514 z"
     id="path2" /><path
     style="fill:#ffffff"
     d="m 186.016,365.6 c 97.441,0 176.893,-79.452 176.893,-176.894 0,-97.372 -79.451,-176.822 -176.893,-176.822 -97.301,0 -176.753,79.45 -176.753,176.822 0,97.442 79.452,176.894 176.753,176.894 z"
     id="path4" /><path
     style="fill:#f2d264"
     d="m 186.016,358.599 c 93.592,0 169.892,-76.3 169.892,-169.892 0,-93.521 -76.3,-169.822 -169.892,-169.822 -93.452,0 -169.754,76.3 -169.754,169.822 0.001,93.591 76.302,169.892 169.754,169.892 z"
     id="path6" /><path
     style="fill:#ffffff"
     d="m 186.016,315.829 c 70.002,0 127.122,-57.121 127.122,-127.123 0,-69.931 -57.12,-127.051 -127.122,-127.051 -69.931,0 -127.052,57.121 -127.052,127.051 0,70.002 57.121,127.123 127.052,127.123 z"
     id="path8" /><path
     d="m 186.016,310.369 c 67.061,0 121.662,-54.671 121.662,-121.662 0,-66.92 -54.601,-121.592 -121.662,-121.592 -66.921,0 -121.593,54.671 -121.593,121.592 0,66.99 54.672,121.662 121.593,121.662 z"
     id="path10" /><path
     style="fill:#ffffff"
     d="m 186.016,307.289 c 65.311,0 118.581,-53.271 118.581,-118.582 0,-65.241 -53.27,-118.512 -118.581,-118.512 -65.241,0 -118.442,53.27 -118.442,118.512 0,65.311 53.201,118.582 118.442,118.582 z"
     id="path12" /><path
     d="m 277.927,236.097 2.311,-0.139 c 5.46,-10.571 8.891,-23.101 9.451,-38.432 5.46,-4.759 10.57,-9.94 14.629,-17.219 -1.33,-18.13 -6.719,-35.141 -15.331,-50.19 -7.14,-4.341 -14.769,-8.192 -22.19,-8.891 -10.29,-10.57 -25.27,-22.54 -40.531,-28.141 -3.151,-8.049 -9.239,-14.421 -15.819,-20.3 -7.841,-1.68 -16.031,-2.59 -24.431,-2.59 -8.33,0 -16.52,0.91 -24.43,2.59 -5.531,5.39 -10.71,11.13 -14.49,17.851 -13.091,6.439 -24.921,14.07 -36.542,24.15 l 0.141,0.141 c -7.631,1.749 -15.331,4.409 -22.961,7.839 -10.29,15.261 -17.151,32.971 -19.391,52.082 3.991,4.41 8.4,9.659 13.651,13.719 3.431,16.941 9.521,33.881 16.659,50.052 l 0.211,-0.071 c -0.14,9.732 0.211,19.391 1.33,29.121 16.941,1.26 32.831,0 48.232,-2.59 -2.941,-5.6 -5.531,-11.412 -7.771,-17.361 6.302,-6.789 11.76,-14 16.872,-21.49 l -1.752,-0.98 c -5.039,7.491 -10.71,14.769 -16.799,21.42 -13.44,0.279 -25.901,-3.431 -38.431,-9.17 -7.421,-15.471 -12.74,-31.78 -16.381,-48.441 6.931,-12.739 14.21,-24.01 24.5,-32.411 9.03,4.551 18.481,8.611 27.721,11.341 v -2.1 c -9.03,-2.939 -18.06,-6.86 -27.091,-11.34 -1.189,-12.251 -1.26,-25.201 2.661,-38.361 l 0.14,0.139 c 11.06,-9.101 23.03,-18.97 35.63,-23.8 13.23,3.01 26.46,10.43 39.69,16.66 v 14.28 h 2.31 v -14.351 c 11.9,-8.889 23.17,-12.81 35.77,-14.21 13.65,4.551 29.961,17.85 40.391,28.001 1.33,12.46 1.61,25.411 -1.05,37.1 -9.1,3.71 -18.69,6.439 -27.72,8.19 v 2.31 c 9.38,-1.82 19.04,-4.48 28.28,-8.33 8.4,10.5 16.311,21.84 22.33,34.37 -0.837,15.191 -3.219,28.143 -9.799,39.552 z"
     id="path14" /><path
     d="m 225.636,242.748 2.591,-0.21 c -3.78,-5.53 -7.561,-11.62 -10.711,-17.711 l -1.75,1.61 c 2.941,5.531 5.95,10.921 9.87,16.311 z"
     id="path16" /><path
     style="fill:#ffffff"
     d="m 346.11,245.548 c -117.603,-44.591 -190.964,65.801 -320.747,-1.891 11.761,34.231 34.161,63.562 63.281,84.003 89.042,23.87 135.943,-41.301 219.384,-20.93 16.73,-17.292 29.821,-38.083 38.082,-61.182 z"
     id="path18" /><path
     style="fill:#8aaf40"
     d="m 309.357,305.329 c 15.891,-16.8 28.351,-36.751 36.402,-58.801 -119.843,-43.26 -186.624,66.01 -319.485,-0.35 11.549,31.99 32.479,59.5 59.36,79.38 92.962,25.131 136.153,-42 223.723,-20.229 z"
     id="path20" /><polygon
     points="218.707,153.006 208.206,153.006 208.206,207.257 218.707,198.086 "
     id="polygon22" /><polygon
     points="156.196,153.427 166.696,153.427 166.696,207.678 156.196,198.508 "
     id="polygon24" /><polygon
     points="231.727,163.506 221.227,163.506 221.227,196.756 231.727,187.657 "
     id="polygon26" /><polygon
     points="143.175,164.486 153.676,164.486 153.676,197.737 143.175,188.566 "
     id="polygon28" /><rect
     x="182.23599"
     y="130.466"
     width="10.43"
     height="63.280998"
     id="rect30" /><rect
     x="182.23599"
     y="185.69701"
     style="fill:#f2d264"
     width="10.43"
     height="58.939999"
     id="rect32" /><rect
     x="195.186"
     y="141.386"
     width="10.5"
     height="52.360001"
     id="rect34" /><rect
     x="195.186"
     y="193.74699"
     style="fill:#f2d264"
     width="10.5"
     height="50.890999"
     id="rect36" /><rect
     x="169.215"
     y="141.386"
     width="10.5"
     height="52.360001"
     id="rect38" /><rect
     x="169.215"
     y="193.74699"
     style="fill:#f2d264"
     width="10.5"
     height="50.890999"
     id="rect40" /><g
     id="g64">
	<path
   style="fill:#8aaf40"
   d="m 120.775,46.534 c -1.33,-0.63 -2.661,-0.771 -3.99,-0.419 -0.28,0.07 -0.63,0.14 -1.049,0.35 -0.98,0.349 -2.311,1.049 -3.921,1.89 l -5.04,2.73 -1.54,0.77 1.54,2.87 8.96,16.871 0.28,0.56 4.059,-2.171 -4.059,-7.7 2.66,-1.399 c 1.889,-0.982 3.219,-1.821 4.13,-2.521 0.63,-0.561 1.119,-1.261 1.609,-2.101 0.42,-0.839 0.631,-1.819 0.631,-2.94 0,-1.049 -0.351,-2.24 -0.98,-3.499 -0.84,-1.61 -1.96,-2.731 -3.29,-3.291 z m -1.26,9.1 c -0.42,0.49 -1.47,1.19 -3.081,2.03 l -0.699,0.42 -1.54,0.77 -3.081,-5.739 2.03,-1.05 c 1.121,-0.631 1.96,-1.05 2.591,-1.26 0.139,-0.071 0.28,-0.141 0.419,-0.141 0.702,-0.281 1.401,-0.281 2.1,0 0.701,0.209 1.261,0.77 1.611,1.47 0.35,0.63 0.42,1.19 0.42,1.819 -0.07,0.632 -0.35,1.192 -0.77,1.681 z"
   id="path42" />
	<path
   style="fill:#8aaf40"
   d="m 101.874,73.905 c -1.68,-0.77 -3.01,-1.259 -4.129,-1.54 -1.051,-0.281 -2.101,-0.21 -3.08,0.209 0.349,-0.84 0.489,-1.61 0.419,-2.239 -0.07,-0.631 -0.279,-1.33 -0.56,-2.101 -0.49,-1.54 -0.84,-2.52 -0.91,-3.08 -0.07,-0.56 0,-1.049 0.14,-1.54 0.211,-0.42 0.701,-0.98 1.4,-1.541 l 0.56,-0.42 -2.171,-2.661 c -0.28,0.211 -0.42,0.351 -0.559,0.42 -1.609,1.33 -2.661,2.59 -3.011,3.64 -0.351,1.121 -0.14,2.871 0.701,5.46 0.629,1.96 0.91,3.22 0.91,3.78 0,0.631 -0.42,1.26 -1.12,1.96 l -6.16,-7.561 -3.64,2.871 14.49,17.849 3.57,-2.869 -6.3,-7.841 c 0.629,-0.489 1.119,-0.769 1.609,-0.769 0.49,0 1.33,0.209 2.521,0.699 0.629,0.351 0.979,0.49 1.119,0.49 0.21,0.141 0.421,0.21 0.489,0.21 l 5.88,2.939 2.731,-2.239 1.469,-1.189 -1.469,-0.701 z"
   id="path44" />
	<polygon
   style="fill:#8aaf40"
   points="51.823,111.216 57.074,101.696 53.714,99.805 46.153,113.456 66.244,124.585 68.554,120.526 "
   id="polygon46" />
	<path
   style="fill:#8aaf40"
   d="m 278.838,65.294 2.52,-3.919 -2.52,-1.68 -10.78,-7 -0.49,0.77 -0.84,1.26 c -2.17,3.36 -4.061,6.02 -5.741,8.051 -1.679,2.03 -3.43,3.569 -5.319,4.69 l -1.61,-1.05 -3.99,6.159 -0.84,1.261 0.84,0.56 2.38,1.541 2.729,-4.201 12.11,7.911 -2.73,4.199 3.01,1.96 0.21,0.139 4.831,-7.42 -1.679,-1.12 z m -11.271,8.821 -0.489,0.77 -7.351,-4.76 c 2.31,-1.61 4.9,-4.48 7.84,-8.681 0.7,-0.98 1.4,-1.959 2.101,-3.079 l 5.739,3.71 z"
   id="path48" />
	<path
   style="fill:#8aaf40"
   d="m 323.358,109.536 c -0.28,-0.911 -1.12,-2.52 -2.66,-4.9 l -3.92,-6.301 -2.1,1.331 -14.771,9.239 -2.59,1.611 2.45,3.919 0.14,-0.069 7.211,-4.481 1.61,2.52 c 1.119,1.82 2.03,3.08 2.799,3.92 0.56,0.561 1.331,1.051 2.17,1.47 0.35,0.141 0.7,0.21 0.98,0.281 0.629,0.14 1.33,0.209 2.029,0.14 1.051,-0.071 2.17,-0.489 3.431,-1.19 1.54,-0.98 2.52,-2.17 3.08,-3.5 0.491,-1.4 0.561,-2.73 0.141,-3.99 z m -4.481,1.749 c -0.21,0.701 -0.629,1.261 -1.329,1.68 -0.63,0.351 -1.19,0.56 -1.82,0.49 -0.35,0 -0.701,-0.07 -1.049,-0.21 -0.209,-0.07 -0.421,-0.21 -0.701,-0.42 -0.49,-0.351 -1.26,-1.33 -2.24,-2.871 l -1.33,-2.17 4.271,-2.659 1.259,-0.771 1.191,1.89 c 0.91,1.4 1.4,2.38 1.609,2.87 0.281,0.701 0.351,1.47 0.139,2.171 z"
   id="path50" />
	<polygon
   style="fill:#8aaf40"
   points="77.235,107.366 79.964,103.865 76.465,101.206 73.734,104.636 "
   id="polygon52" />
	<path
   style="fill:#8aaf40"
   d="m 250.067,54.585 c 1.12,-3.08 1.12,-5.95 0.14,-8.4 -0.07,-0.141 -0.07,-0.21 -0.14,-0.28 -1.12,-2.59 -3.221,-4.48 -6.23,-5.67 -1.539,-0.63 -3.009,-0.979 -4.41,-1.05 -0.14,0 -0.351,0 -0.49,0 -1.19,0.071 -2.379,0.28 -3.57,0.84 -1.189,0.49 -2.239,1.19 -3.15,2.1 -1.258,1.19 -2.309,2.94 -3.149,5.111 -1.399,3.36 -1.54,6.37 -0.42,9.099 1.051,2.66 3.22,4.621 6.37,5.951 1.541,0.63 3.011,0.91 4.411,0.98 1.47,0 2.871,-0.28 4.271,-0.909 2.659,-1.191 4.689,-3.501 6.02,-6.931 0.138,-0.281 0.277,-0.561 0.347,-0.841 z m -4.76,-1.05 c -0.98,2.45 -2.24,4.129 -3.851,4.9 -0.7,0.351 -1.329,0.56 -2.03,0.63 -0.98,0.069 -1.96,-0.071 -2.939,-0.49 -1.751,-0.701 -2.87,-1.89 -3.5,-3.571 -0.63,-1.68 -0.42,-3.78 0.56,-6.16 0.98,-2.449 2.239,-4.06 3.85,-4.83 0.63,-0.351 1.33,-0.56 2.03,-0.629 0.98,-0.07 1.961,0.14 3.009,0.559 1.751,0.702 2.941,1.892 3.502,3.501 0.559,1.609 0.349,3.639 -0.631,6.09 z"
   id="path54" />
	<path
   style="fill:#8aaf40"
   d="m 302.499,80.834 -2.591,-2.799 -0.699,-0.77 -6.511,2.59 -13.86,5.529 -2.521,0.981 2.521,2.73 0.84,0.91 5.109,-2.169 6.23,6.72 -2.45,4.968 3.429,3.711 0.701,-1.54 7.21,-15.261 z m -9.661,9.941 -0.14,-0.07 -4.13,-4.481 4.13,-1.75 4.2,-1.82 z"
   id="path56" />
	<polygon
   style="fill:#8aaf40"
   points="200.995,53.675 202.396,43.734 211.427,44.995 210.025,54.935 214.646,55.564 217.797,32.814 213.246,32.184 211.986,41.144 202.956,39.884 204.216,30.924 199.596,30.293 196.445,53.043 "
   id="polygon58" />
	<path
   style="fill:#8aaf40"
   d="m 143.455,35.825 -4.69,1.329 -2.241,24.501 4.69,-1.33 0.421,-5.531 3.29,-0.98 5.529,-1.54 3.36,4.48 4.83,-1.401 -13.72,-17.71 z m 4.481,13.16 -3.01,0.841 -3.011,0.839 0.631,-9.031 2.38,3.221 z"
   id="path60" />
	<path
   style="fill:#8aaf40"
   d="m 179.086,48.283 c -0.77,0.841 -1.821,1.331 -3.08,1.402 -1.61,0.141 -3.011,-0.351 -4.2,-1.47 -1.121,-1.121 -1.821,-3.151 -2.101,-6.021 -0.21,-2.73 0.141,-4.76 1.05,-6.09 0.979,-1.259 2.311,-2.03 3.991,-2.171 1.26,-0.069 2.31,0.141 3.219,0.771 0.912,0.63 1.61,1.471 1.961,2.66 l 4.41,-1.47 c -0.63,-1.82 -1.541,-3.15 -2.66,-4.06 -1.891,-1.47 -4.2,-2.099 -7.001,-1.89 -3.221,0.281 -5.741,1.609 -7.49,3.85 -1.82,2.31 -2.52,5.321 -2.17,9.171 0.279,3.569 1.54,6.3 3.64,8.26 2.17,1.891 4.761,2.66 7.77,2.451 2.451,-0.211 4.41,-1.05 5.95,-2.38 1.47,-1.331 2.38,-3.29 2.871,-5.88 l -4.55,-0.98 c -0.279,1.679 -0.77,2.939 -1.61,3.847 z"
   id="path62" />
</g><path
     style="fill:#ffffff"
     d="m 107.476,290.208 -0.14,-0.91 -0.28,-0.841 -0.351,-0.839 -0.49,-0.84 -0.49,-0.77 -0.699,-0.911 -1.051,-0.909 -0.979,-0.771 -0.98,-0.77 -1.05,-0.701 -1.12,-0.7 -1.05,-0.629 -1.12,-0.631 -1.119,-0.56 -1.191,-0.559 -1.12,-0.561 -1.19,-0.489 -1.189,-0.491 -1.12,-0.418 -1.19,-0.419 -1.19,-0.421 -1.119,-0.351 -1.191,-0.35 -1.119,-0.279 -1.12,-0.281 -1.121,-0.28 -1.12,-0.28 -1.049,-0.21 -1.051,-0.209 -1.05,-0.14 -0.14,-0.069 -0.84,-0.142 -0.911,-0.139 -0.91,-0.07 -0.91,-0.14 -0.84,-0.071 -0.769,-0.07 -0.701,-0.071 h -0.84 l -0.981,0.071 -0.91,0.28 -0.84,0.279 -0.771,0.49 -0.77,0.561 -0.629,0.559 -0.489,0.701 -0.492,0.77 -0.35,0.84 -0.28,0.839 -0.211,0.841 -0.14,0.911 -0.07,0.908 0.07,0.98 0.07,0.98 0.209,0.98 0.21,0.979 0.351,0.979 0.418,0.98 0.49,0.98 0.561,0.98 0.63,0.979 0.7,0.911 0.77,0.91 0.911,0.91 0.98,0.84 1.049,0.77 1.121,0.771 1.19,0.699 1.329,0.631 1.33,0.629 1.261,0.42 1.26,0.42 v 7.7 l 12.739,3.641 v -8.26 l 0.77,0.209 0.35,0.141 0.911,0.21 0.979,0.071 0.91,0.069 h 0.91 l 0.911,-0.069 0.839,-0.071 0.84,-0.21 0.841,-0.279 0.77,-0.281 0.771,-0.351 0.699,-0.418 0.701,-0.42 0.629,-0.491 0.631,-0.559 0.56,-0.56 0.49,-0.631 0.49,-0.7 0.35,-0.699 0.351,-0.701 0.279,-0.771 0.211,-0.77 0.14,-0.84 v -0.769 -0.841 z m -28.282,-3.99 -0.489,-0.35 -0.42,-0.209 v -0.071 l -0.35,-0.21 -0.281,-0.28 -0.21,-0.21 -0.141,-0.209 -0.068,-0.142 -0.072,-0.139 -0.07,-0.141 v -0.068 l 0.07,-0.071 0.072,-0.07 h 0.068 l 0.071,-0.071 h 0.14 l 0.14,-0.069 h 0.14 0.211 0.21 l 0.07,0.069 h 0.14 l 0.209,0.071 0.281,0.07 0.28,0.139 0.28,0.211 0.071,1.89 z m 14.701,3.43 -0.07,0.21 -0.071,0.139 -0.069,0.141 -0.211,0.14 -0.35,0.14 h -0.07 l -0.77,0.281 v -2.801 h 0.21 l 0.421,0.21 0.139,0.141 0.21,0.14 0.21,0.28 0.211,0.28 0.14,0.281 0.07,0.208 z"
     id="path66" /><g
     id="g70">
	<polygon
   style="fill:#ffffff"
   points="131.976,297.978 131.626,297.559 131.275,297.138 130.855,296.719 130.436,296.368 129.945,296.02 129.525,295.808 129.735,295.529 129.945,295.179 130.226,294.829 130.436,294.478 130.645,294.059 130.855,293.638 131.064,293.288 131.275,292.869 131.485,292.379 131.695,291.957 131.835,291.539 132.045,291.049 132.186,290.628 132.326,290.139 132.465,289.718 132.675,289.229 132.745,288.739 132.884,288.249 133.025,287.828 133.165,287.338 133.235,286.848 133.374,286.428 133.445,285.938 133.515,285.518 133.655,285.028 133.725,284.608 133.796,284.189 133.796,283.699 134.005,282.228 121.265,282.648 121.195,283.838 121.195,284.118 121.195,284.469 121.126,284.818 121.126,285.168 121.126,285.518 121.055,285.938 120.985,286.358 120.985,286.708 120.915,287.128 120.845,287.548 120.775,287.969 120.705,288.319 120.635,288.739 120.495,289.157 120.425,289.508 120.285,289.859 120.215,290.208 120.074,290.559 119.935,290.909 119.795,291.188 119.656,291.468 119.515,291.748 119.375,291.957 119.165,292.169 119.025,292.308 118.955,292.379 118.955,282.509 106.424,282.158 106.424,310.999 107.404,311.279 107.755,311.349 108.105,311.419 108.455,311.489 108.734,311.558 109.085,311.629 109.435,311.699 109.714,311.699 110.064,311.768 110.415,311.838 110.765,311.908 111.045,311.908 111.395,311.98 111.745,312.048 112.095,312.048 112.445,312.119 112.726,312.119 113.075,312.188 113.425,312.188 113.775,312.188 114.125,312.259 114.475,312.259 114.825,312.259 115.104,312.259 115.455,312.259 115.805,312.259 116.154,312.259 116.505,312.259 116.856,312.259 117.205,312.259 117.555,312.259 118.815,312.259 118.955,300.849 119.095,300.92 119.305,301.058 119.515,301.199 119.724,301.409 119.935,301.619 120.074,301.828 120.285,302.108 120.425,302.389 120.564,302.739 120.705,303.088 120.775,303.439 120.915,303.788 120.985,304.209 121.055,304.628 121.126,305.049 121.195,305.469 121.265,305.958 121.265,306.378 121.265,306.798 121.265,307.289 121.265,307.708 121.265,308.129 121.265,308.619 121.265,309.039 121.195,309.459 121.195,309.878 121.126,310.299 121.126,310.649 120.915,312.048 133.866,312.048 133.866,310.579 133.866,310.019 133.935,309.459 133.935,308.899 133.935,308.268 133.935,307.708 133.935,307.149 133.935,306.519 133.935,305.958 133.935,305.398 133.866,304.839 133.866,304.209 133.796,303.648 133.725,303.088 133.655,302.528 133.585,301.969 133.445,301.478 133.306,300.92 133.165,300.43 133.025,299.869 132.816,299.378 132.536,298.888 132.255,298.398 "
   id="polygon68" />
</g><path
     d="m 121.965,311.139 h 10.99 c 0,-6.022 0.841,-12.881 -4.97,-15.051 2.73,-2.52 4.479,-8.609 4.97,-12.88 l -10.78,0.35 c -0.14,3.009 -0.699,10.151 -4.2,10.151 v -10.291 l -10.639,-0.35 v 27.159 c 3.43,0.84 6.86,1.261 10.57,1.121 l 0.069,-11.69 c 4.62,0.28 4.55,7.561 3.99,11.481 z"
     id="path72" /><g
     id="g76">
	<polygon
   style="fill:#ffffff"
   points="148.006,309.318 148.355,309.318 148.706,309.318 149.056,309.318 149.406,309.318 149.756,309.247 150.036,309.247 150.386,309.247 150.735,309.18 151.086,309.18 151.436,309.109 151.786,309.109 152.066,309.039 152.415,309.039 152.765,308.968 153.116,308.968 153.465,308.899 153.815,308.829 154.096,308.758 154.445,308.688 154.796,308.688 155.146,308.619 155.495,308.549 155.845,308.478 156.126,308.41 156.476,308.268 156.826,308.198 157.176,308.129 157.526,308.059 157.875,307.989 158.855,307.708 158.926,296.509 158.996,296.509 158.996,296.438 159.346,296.438 159.767,296.509 160.116,296.579 160.396,296.649 160.745,296.719 161.025,296.858 161.305,296.999 161.586,297.208 161.795,297.418 162.076,297.629 162.286,297.839 162.496,298.119 162.706,298.398 162.917,298.679 163.056,298.959 163.265,299.31 163.406,299.659 163.546,300.008 163.686,300.43 163.755,300.778 163.896,301.199 163.966,301.619 164.036,301.969 164.106,302.389 164.106,302.808 164.176,303.229 164.176,303.719 164.176,304.139 164.176,304.558 164.176,304.978 164.106,305.398 163.966,307.009 165.506,306.729 165.785,306.729 166.136,306.659 166.415,306.589 166.767,306.519 167.046,306.449 167.395,306.378 167.676,306.308 168.026,306.308 168.307,306.238 168.655,306.169 168.935,306.099 169.286,306.029 169.566,305.958 169.915,305.889 170.196,305.819 170.545,305.678 170.826,305.608 171.176,305.539 171.455,305.469 171.806,305.398 172.086,305.329 172.437,305.259 172.716,305.189 173.066,305.049 173.346,304.978 173.695,304.909 173.976,304.839 174.325,304.77 174.606,304.628 174.956,304.558 175.936,304.279 175.936,303.018 175.936,302.458 175.936,301.828 175.866,301.268 175.866,300.707 175.796,300.149 175.796,299.589 175.727,299.029 175.655,298.469 175.585,297.908 175.446,297.418 175.376,296.858 175.237,296.368 175.096,295.808 174.886,295.318 174.747,294.829 174.536,294.338 174.325,293.849 174.046,293.358 173.766,292.869 173.486,292.45 173.206,292.028 172.855,291.609 172.505,291.188 172.086,290.838 171.667,290.418 171.245,290.068 170.756,289.788 170.266,289.508 170.056,289.369 170.126,289.299 170.545,288.877 170.896,288.529 171.316,288.108 171.667,287.759 172.015,287.338 172.295,286.918 172.646,286.499 172.926,286.078 173.276,285.659 173.556,285.238 173.766,284.747 174.046,284.329 174.325,283.909 174.536,283.418 174.747,282.928 174.956,282.509 175.166,282.018 175.307,281.528 175.446,281.109 175.655,280.619 175.796,280.128 175.866,279.638 176.006,279.148 176.145,278.658 176.216,278.168 176.286,277.749 176.356,277.259 176.356,276.767 176.496,275.018 165.366,277.398 165.295,278.308 165.295,278.518 165.226,278.799 165.155,279.148 165.016,279.428 164.945,279.779 164.805,280.128 164.666,280.478 164.526,280.897 164.315,281.318 164.106,281.668 163.896,282.088 163.686,282.509 163.475,282.928 163.265,283.349 162.985,283.768 162.706,284.118 162.496,284.538 162.216,284.888 161.936,285.308 161.656,285.659 161.376,286.009 161.097,286.358 160.816,286.639 160.466,286.918 160.185,287.199 159.906,287.478 159.625,287.688 159.346,287.898 159.136,288.039 158.996,288.108 158.996,279.079 146.535,280.829 146.395,309.389 147.726,309.318 "
   id="polygon74" />
</g><g
     id="g82">
	<path
   d="m 168.307,289.579 c 4.479,-3.431 6.859,-8.47 7.21,-13.37 l -9.24,1.959 c -0.141,2.729 -3.991,9.801 -7.35,10.989 v 6.372 c 5.109,-0.14 6.649,5.74 6.089,10.36 3.291,-0.56 6.651,-1.33 10.01,-2.31 0,-6.02 -0.91,-11.831 -6.719,-14 z"
   id="path78" />
	<path
   d="m 158.016,280.198 -10.57,1.47 -0.071,26.742 c 3.501,0 7.001,-0.421 10.571,-1.471 l 0.07,-11.341 h 0.07 v -6.299 h -0.07 z"
   id="path80" />
</g><g
     id="g86">
	<polygon
   style="fill:#ffffff"
   points="190.216,301.828 189.866,302.179 189.517,302.458 189.166,302.668 188.816,302.879 188.465,302.949 188.186,303.018 187.906,302.949 187.696,302.879 187.416,302.668 187.136,302.389 186.436,301.128 177.827,303.369 177.756,304.349 177.756,304.699 177.756,305.049 177.756,305.469 177.756,305.819 177.756,306.169 177.756,306.589 177.827,306.938 177.895,307.289 177.965,307.708 178.036,308.059 178.176,308.41 178.316,308.829 178.456,309.18 178.666,309.528 178.946,309.878 179.226,310.159 179.506,310.438 179.856,310.719 180.276,310.999 180.697,311.208 181.116,311.419 181.606,311.558 182.096,311.699 182.656,311.838 183.286,311.908 183.917,311.908 184.546,311.908 185.247,311.908 186.016,311.838 186.856,311.768 187.696,311.699 188.256,311.629 188.887,311.489 189.446,311.349 190.007,311.139 190.637,310.999 191.197,310.719 191.755,310.508 192.386,310.228 192.946,309.878 193.506,309.598 194.065,309.247 194.626,308.829 195.186,308.41 195.676,307.989 196.165,307.569 196.726,307.149 197.145,306.659 197.636,306.169 198.056,305.608 198.476,305.117 198.898,304.558 199.246,303.999 199.596,303.369 199.947,302.808 200.226,302.179 200.506,301.549 200.717,300.92 200.856,300.289 201.067,299.589 201.136,298.959 201.206,298.258 201.206,297.559 201.206,275.438 190.986,278.518 190.986,281.248 190.986,281.879 190.986,283.909 190.986,284.608 190.986,286.639 190.986,287.269 190.986,287.969 190.986,288.668 190.986,289.299 190.986,289.997 190.986,292.028 190.917,292.658 190.917,293.358 190.917,293.989 190.917,294.688 190.917,295.389 190.917,297.418 190.917,298.049 190.917,298.749 190.917,299.378 190.917,300.079 190.917,300.707 190.917,300.778 190.846,300.988 190.706,301.199 190.496,301.549 "
   id="polygon84" />
</g><path
     d="m 191.826,300.778 c 0.141,1.26 -3.99,5.53 -5.81,1.471 l -7.28,1.819 c -0.209,3.57 -0.349,8.051 8.821,6.651 5.669,-0.56 12.739,-6.44 12.739,-13.161 v -20.86 l -8.329,2.52 c -0.071,7.21 -0.071,14.35 -0.141,21.56 z"
     id="path88" /><g
     id="g92">
	<path
   style="fill:#ffffff"
   d="m 216.956,279.638 0.211,-0.069 0.279,-0.141 0.351,-0.14 0.279,-0.069 h 0.351 0.28 0.21 0.209 l 0.21,0.069 0.209,0.07 0.141,0.07 0.07,0.071 0.139,0.139 0.072,0.071 0.069,0.14 v 0.14 l 0.07,0.211 v 0.14 0.211 l -0.07,0.139 -0.069,0.21 -0.072,0.211 -0.139,0.209 -0.14,0.21 -0.14,0.21 -0.21,0.141 -0.211,0.209 -0.279,0.21 -0.21,0.14 -0.279,0.14 -0.351,0.141 -0.28,0.07 -0.28,0.14 h -0.35 l -0.071,0.071 v 8.54 l 0.56,-0.21 0.631,-0.141 0.629,-0.21 0.701,-0.279 0.629,-0.281 0.7,-0.279 0.631,-0.28 0.699,-0.35 0.631,-0.351 0.629,-0.418 0.63,-0.419 0.63,-0.421 0.631,-0.419 0.56,-0.49 0.561,-0.49 0.559,-0.56 0.49,-0.561 0.489,-0.56 0.49,-0.629 0.42,-0.631 0.35,-0.7 0.35,-0.7 0.28,-0.701 0.28,-0.77 0.14,-0.77 0.14,-0.77 0.141,-0.841 v -0.839 l -0.07,-0.84 -0.071,-0.841 -0.14,-0.699 -0.14,-0.771 -0.21,-0.63 -0.28,-0.63 -0.35,-0.56 -0.351,-0.489 -0.35,-0.421 -0.49,-0.419 -0.419,-0.35 -0.489,-0.351 -0.561,-0.209 -0.489,-0.209 -0.56,-0.142 -0.561,-0.139 -0.56,-0.07 -0.63,-0.071 h -0.56 -0.631 l -0.559,0.071 -0.63,0.07 -0.631,0.139 -0.559,0.142 -0.63,0.139 -0.561,0.211 -0.629,0.209 -0.56,0.211 -0.631,0.21 -0.28,0.14 v 8.465 z m 0,-9.24 v -9.031 l 0.071,-0.068 1.049,-0.28 0.979,-0.28 1.05,-0.28 0.98,-0.21 0.98,-0.211 0.98,-0.14 0.979,-0.14 0.911,-0.14 0.91,-0.14 0.841,-0.07 1.889,-0.28 0.141,7.98 -1.26,0.209 -0.421,0.071 -0.489,0.07 -0.49,0.07 -0.421,0.07 -0.489,0.07 -0.491,0.071 -0.489,0.069 -0.491,0.071 -0.49,0.07 -0.49,0.14 -0.489,0.07 -0.49,0.139 -0.49,0.142 -0.49,0.07 -0.419,0.21 -0.491,0.139 -0.419,0.14 -0.489,0.211 -0.421,0.21 -0.42,0.209 -0.42,0.28 -0.35,0.21 z m -1.889,2.029 v 0.421 0.349 l -0.07,0.422 v 0.489 0.56 0.559 0.56 0.56 0.49 0.56 0.49 0.419 0.351 0.28 0.21 l 0.279,1.47 1.541,-0.91 0.14,-0.071 v -8.47 l -0.279,0.141 -0.561,0.21 -0.63,0.35 0.07,-0.069 0.28,-0.421 0.35,-0.35 0.35,-0.28 0.35,-0.35 h 0.07 v -9.031 l -0.909,0.28 -1.05,0.42 -0.979,0.49 -0.981,0.489 -0.911,0.561 -0.98,0.63 -0.91,0.699 -0.84,0.84 -0.841,0.84 -0.77,0.91 -0.7,1.05 -0.63,1.049 -0.63,1.191 -0.489,1.26 -0.49,1.399 -0.35,1.471 -0.351,1.54 -0.21,1.609 -0.139,1.75 v 1.89 1.961 0 0.069 0.489 l 0.069,0.49 0.07,0.491 0.071,0.49 0.139,0.489 0.141,0.421 0.139,0.418 0.211,0.421 0.209,0.419 0.21,0.351 0.28,0.419 0.209,0.35 0.35,0.351 0.28,0.28 0.351,0.349 0.351,0.281 0.349,0.28 0.421,0.21 0.349,0.21 0.421,0.21 0.489,0.211 0.42,0.141 0.49,0.139 0.42,0.141 0.49,0.071 0.559,0.068 0.492,0.071 0.489,0.071 h 0.56 0.56 l 0.49,-0.071 0.56,-0.071 0.63,-0.068 0.56,-0.071 0.629,-0.141 0.631,-0.139 h 0.07 v -8.54 h -0.21 -0.28 -0.28 l -0.28,-0.071 h -0.21 l -0.21,-0.14 -0.21,-0.07 -0.209,-0.07 -0.141,-0.14 -0.139,-0.071 -0.07,-0.14 -0.14,-0.14 -0.07,-0.211 -0.141,-0.28 -0.069,-0.21 -0.07,-0.279 -0.14,-0.281 -0.069,-0.21 v -0.28 l -0.071,-0.28 -0.07,-0.28 -0.07,-0.28 v -0.28 -0.28 l -0.069,-0.28 v -0.281 -0.349 -0.28 l 0.069,-0.28 v -0.279 -0.281 -0.28 l 0.07,-0.28 v -0.28 l 0.07,-0.28 0.071,-0.279 v -0.281 l 0.069,-0.21 0.069,-0.281 v -0.21 l 0.071,-0.281 0.07,-0.21 0.069,-0.21 0.071,-0.211 v -0.141 l 0.21,-0.489 0.28,-0.421 z"
   id="path90" />
</g><path
     d="m 214.366,291.049 c 5.67,-0.701 15.332,-5.181 15.19,-13.58 -0.069,-8.821 -7.979,-7.7 -13.58,-4.831 -0.07,1.19 -0.139,6.441 -0.07,6.511 2.241,-1.4 4.411,-1.12 4.971,0.35 0.56,1.469 -0.56,3.289 -2.59,4.06 -1.96,0.77 -4.061,0.21 -4.621,-1.189 -1.4,-2.941 -0.77,-6.931 -0.07,-9.172 2.8,-6.02 9.589,-6.089 14.141,-6.86 l -0.07,-6.159 c -8.611,1.189 -23.94,2.241 -22.891,23.521 v 0 0.069 c 0,4.899 3.921,7.979 9.59,7.28 z"
     id="path94" /><g
     id="g98">
	<path
   style="fill:#ffffff"
   d="m 249.858,279.988 -0.07,-6.23 -1.891,0.98 -0.49,0.211 -0.28,0.069 v 9.1 l 0.35,-0.07 0.561,-0.14 0.63,-0.21 0.63,-0.211 v 0 l 11.131,-1.96 0.14,-0.979 0.07,-0.28 v -0.209 l 0.07,-0.281 v -0.28 -0.28 l 0.07,-0.28 v -0.28 -0.28 l 0.07,-0.28 v -0.28 -0.28 -0.279 -0.281 l 0.071,-0.28 v -0.28 -0.28 -0.28 -0.351 -0.28 -0.279 -0.35 -0.351 -0.279 -0.35 l -0.071,-0.351 v -0.351 -0.349 -0.351 -0.35 -0.42 l -0.07,-0.419 -0.07,-0.421 v -0.419 l -0.07,-0.49 v -0.49 l -0.141,-0.421 -0.069,-0.49 -0.141,-0.418 -0.21,-0.42 -0.14,-0.42 -0.21,-0.42 -0.281,-0.419 -0.208,-0.351 -0.281,-0.35 -0.28,-0.349 -0.349,-0.281 -0.351,-0.35 -0.35,-0.28 -0.35,-0.21 -0.421,-0.28 -0.419,-0.209 -0.419,-0.21 -0.421,-0.21 -0.419,-0.14 -0.489,-0.14 -0.49,-0.141 -0.49,-0.07 -0.49,-0.141 h -0.56 l -0.489,-0.069 h -0.561 -0.56 -0.56 l -0.56,0.069 -0.56,0.071 -0.63,0.07 -0.63,0.07 -0.63,0.07 -0.35,0.071 v 8.54 l 0.35,-0.069 h 0.281 0.28 0.28 l 0.28,0.069 0.21,0.07 0.209,0.071 0.211,0.14 0.139,0.07 0.21,0.14 0.069,0.141 0.142,0.139 0.07,0.141 0.069,0.071 v 0.139 0.28 0.28 l 0.07,0.35 v 0.28 0.35 0.28 0.351 l 0.071,0.35 v 0.35 0.281 0.349 l -0.071,0.35 v 0.351 0.35 0.35 0.351 0.28 l -0.07,0.35 v 0.35 0.351 l -0.069,0.279 v 0.35 0.274 z m -2.732,-4.97 -0.209,0.071 -0.42,0.069 -0.35,0.07 -0.28,0.071 -0.28,-0.071 h -0.21 l -0.21,-0.07 -0.209,-0.069 -0.141,-0.14 -0.14,-0.071 -0.07,-0.14 -0.14,-0.14 -0.071,-0.141 -0.07,-0.21 v -0.14 l -0.07,-0.14 v -0.211 l 0.07,-0.139 v -0.211 l 0.07,-0.211 0.14,-0.209 0.141,-0.14 0.14,-0.211 0.141,-0.21 0.209,-0.21 0.281,-0.139 0.21,-0.142 0.28,-0.209 0.28,-0.07 0.279,-0.14 0.349,-0.071 0.28,-0.07 v 0 -8.54 l -0.28,0.069 -0.628,0.071 -0.702,0.209 -0.699,0.14 -0.63,0.21 -0.701,0.209 -0.699,0.21 -0.7,0.28 -0.631,0.28 -0.7,0.35 -0.63,0.35 -0.63,0.351 -0.63,0.419 -0.561,0.49 -0.629,0.49 -0.49,0.49 -0.56,0.63 -0.49,0.56 -0.419,0.7 -0.42,0.702 -0.419,0.699 -0.279,0.771 -0.281,0.84 -0.28,0.91 -0.14,0.91 -0.14,0.911 -0.071,1.049 v 0.84 l 0.071,0.77 0.07,0.77 0.21,0.77 0.211,0.63 0.209,0.701 0.35,0.56 0.352,0.56 0.419,0.49 0.419,0.42 0.491,0.42 0.489,0.35 0.49,0.28 0.56,0.279 0.559,0.211 0.631,0.21 0.56,0.139 0.63,0.071 0.63,0.071 0.629,0.068 h 0.631 0.699 0.631 l 0.629,-0.068 0.629,-0.071 0.701,-0.14 0.631,-0.07 0.628,-0.141 0.28,-0.139 z"
   id="path96" />
</g><path
     d="m 250.558,263.398 c -5.671,0.35 -15.542,2.38 -15.89,12.74 -0.351,8.821 8.399,8.541 14.28,6.51 l -0.07,-7.35 c -3.22,1.749 -4.971,0.77 -5.46,-0.771 -0.49,-1.47 0.77,-3.219 2.8,-3.92 2.03,-0.629 4.129,0 4.62,1.471 0.28,3.079 0.069,7.7 -0.351,10.291 l 9.101,-1.681 c 0.419,-2.8 0.419,-5.46 0.28,-9.59 l -0.071,0.141 c 0,-0.07 0,-0.07 0,-0.141 0.21,-4.9 -3.57,-8.119 -9.239,-7.7 z"
     id="path100" /><g
     id="g104">
	<polygon
   style="fill:#ffffff"
   points="267.498,281.038 268.058,281.038 268.547,280.967 269.107,280.967 269.668,280.967 270.158,280.967 270.718,280.967 271.207,280.967 271.697,280.967 272.187,281.038 272.748,281.038 274.288,281.248 274.288,273.758 277.367,273.758 277.367,281.109 278.908,280.967 279.468,280.897 279.958,280.897 280.517,280.829 281.008,280.829 281.567,280.759 282.057,280.759 282.548,280.759 283.107,280.688 283.599,280.688 284.157,280.759 284.647,280.759 285.138,280.759 285.698,280.829 286.187,280.829 287.728,281.038 287.728,260.037 286.398,259.897 285.837,259.828 285.278,259.828 284.717,259.758 284.157,259.758 283.599,259.758 283.038,259.758 282.548,259.758 281.989,259.828 281.428,259.828 280.868,259.897 280.308,259.968 279.817,259.968 279.256,260.037 278.699,260.108 277.367,260.249 277.367,266.828 274.288,266.828 274.288,260.318 272.888,260.178 272.328,260.108 271.836,260.108 271.277,260.037 270.718,260.037 270.158,260.037 269.598,260.037 269.038,260.037 268.547,260.108 267.987,260.108 267.427,260.178 266.867,260.249 266.307,260.318 265.748,260.388 265.188,260.458 263.857,260.668 263.857,281.457 265.397,281.248 265.957,281.178 266.447,281.178 267.007,281.109 "
   id="polygon102" />
</g><path
     d="m 264.837,280.408 c 2.73,-0.349 5.741,-0.629 8.47,-0.21 v -7.35 h 4.97 v 7.211 c 2.871,-0.281 5.671,-0.422 8.54,-0.072 v -19.111 c -2.87,-0.349 -5.669,-0.07 -8.54,0.211 v 6.651 h -4.97 v -6.582 c -2.8,-0.35 -5.53,-0.208 -8.47,0.281 z"
     id="path106" /><g
     id="g110">
	<polygon
   style="fill:#ffffff"
   points="310.127,283.699 311.108,283.488 311.948,283.208 312.718,282.858 313.488,282.509 314.118,282.088 314.679,281.598 315.169,281.109 315.587,280.549 315.938,279.988 316.218,279.428 316.499,278.869 316.639,278.239 316.778,277.678 316.848,277.048 316.848,276.418 316.848,275.858 316.778,275.228 316.707,274.668 316.639,274.108 316.499,273.547 316.358,272.988 316.218,272.498 316.009,272.009 315.868,271.518 315.658,271.098 315.519,270.679 315.308,270.258 315.169,269.978 315.027,269.627 314.818,269.347 314.608,268.997 314.329,268.719 314.118,268.438 313.838,268.088 313.488,267.808 313.208,267.528 312.859,267.247 312.508,266.968 312.157,266.688 311.808,266.478 311.457,266.198 311.039,265.918 310.618,265.708 310.198,265.497 309.779,265.288 309.289,265.078 308.867,264.868 308.378,264.659 307.888,264.518 307.398,264.378 306.908,264.238 306.418,264.099 305.928,263.958 305.369,263.888 304.878,263.819 304.318,263.748 303.829,263.677 303.268,263.677 301.868,263.677 301.799,264.797 301.799,265.149 301.728,265.568 301.728,265.988 301.728,266.478 301.799,266.968 301.799,267.528 301.799,268.017 301.799,268.508 301.799,268.997 301.868,269.418 301.868,269.768 301.868,270.118 301.868,270.398 301.938,270.607 302.147,271.587 303.968,271.238 304.738,271.238 305.369,271.378 305.928,271.658 306.348,272.009 306.768,272.498 307.118,272.988 307.327,273.619 307.468,274.178 307.468,274.738 307.398,275.298 307.259,275.718 307.047,276.068 306.768,276.278 306.418,276.489 305.858,276.559 305.298,276.559 304.738,276.489 304.248,276.418 303.829,276.278 303.407,276.138 303.058,275.929 302.707,275.718 302.427,275.438 302.218,275.158 302.008,274.878 301.799,274.528 301.658,274.178 301.519,273.828 301.377,273.478 301.377,273.058 301.308,272.707 300.539,252.898 297.668,252.617 295.568,252.479 293.538,252.268 291.508,252.198 289.408,252.057 287.378,251.918 285.348,251.848 283.318,251.777 281.287,251.708 279.189,251.708 277.158,251.708 275.126,251.708 273.097,251.708 271.067,251.777 269.038,251.848 267.007,251.988 264.978,252.057 262.948,252.268 260.918,252.408 258.888,252.617 256.856,252.829 254.758,253.106 252.727,253.387 250.697,253.738 248.667,254.089 246.567,254.438 244.537,254.858 242.507,255.278 240.407,255.768 238.376,256.328 236.277,256.817 233.547,257.658 233.757,264.938 236.626,264.378 238.447,264.028 240.267,263.677 242.018,263.398 243.837,263.047 245.587,262.767 247.336,262.487 249.157,262.207 250.906,261.928 252.657,261.647 254.407,261.438 256.227,261.228 257.978,261.018 259.727,260.807 261.476,260.597 263.228,260.458 264.978,260.318 266.728,260.178 268.478,260.037 270.227,259.968 271.978,259.828 273.728,259.758 275.478,259.758 277.228,259.688 278.977,259.688 280.728,259.688 282.478,259.758 284.228,259.758 285.978,259.828 287.728,259.968 289.478,260.037 290.387,260.108 290.668,271.309 290.668,271.937 290.738,272.638 290.808,273.338 290.877,273.969 291.086,274.599 291.228,275.228 291.438,275.858 291.647,276.418 291.927,276.979 292.277,277.538 292.558,278.028 292.907,278.588 293.328,279.079 293.678,279.499 294.098,279.988 294.587,280.408 295.008,280.759 295.497,281.178 296.057,281.528 296.547,281.879 297.108,282.158 297.668,282.438 298.229,282.718 298.857,282.999 299.488,283.208 300.118,283.349 300.748,283.558 301.377,283.699 302.078,283.838 302.778,283.909 303.407,283.978 304.108,284.048 305.508,284.048 306.838,284.048 308.028,283.978 309.148,283.838 "
   id="polygon108" />
</g><path
     d="m 304.179,283.069 c 14.979,0.84 12.04,-8.751 10.291,-12.39 -1.261,-2.871 -6.302,-6.09 -11.762,-6.09 -0.069,1.189 0.071,5.878 0.141,5.878 5.739,-1.749 7.559,7.001 3.08,7.001 -3.71,0.209 -5.461,-2.241 -5.53,-4.761 l -0.771,-18.969 c -21.98,-1.961 -43.19,-1.82 -65.171,4.62 l 0.211,5.461 c 19.25,-3.851 37.8,-6.161 56.63,-4.551 l 0.279,11.971 c 0,7.069 5.461,11.479 12.602,11.83 z"
     id="path112" /><g
     id="g116">
	<polygon
   style="fill:#ffffff"
   points="177.617,299.448 177.895,299.799 178.176,300.149 178.526,300.43 178.946,300.707 179.296,300.92 179.716,301.128 180.137,301.268 180.626,301.338 181.045,301.409 181.536,301.478 182.026,301.549 182.515,301.549 183.007,301.478 183.496,301.478 183.986,301.409 184.477,301.338 184.966,301.199 185.526,301.058 186.016,300.92 186.576,300.778 187.066,300.639 187.557,300.43 188.115,300.217 188.606,300.008 189.096,299.728 189.585,299.518 190.566,298.959 190.426,291.259 189.096,291.468 188.816,291.468 188.606,291.468 188.395,291.468 188.256,291.468 188.115,291.398 187.975,291.259 187.975,291.188 187.906,279.148 176.846,282.369 176.846,297.138 176.916,297.698 176.986,298.188 177.125,298.609 177.336,299.029 "
   id="polygon114" />
</g><path
     d="m 177.756,297.069 c 0.42,4.83 7,4.13 11.829,1.329 l -0.069,-6.019 c -0.841,0.071 -1.75,0.279 -2.521,-0.84 v -11.131 l -9.24,2.661 v 14 z"
     id="path118" /><path
     d="M 104.328,285.826 C 94.301,276.767 77.355,274.18 71.665,273.941 c -3.225,0.19 -5.455,2.478 -5.897,5.971 -0.739,5.844 3.51,13.372 13.063,16.451 l 0.963,0.31 -0.085,-9.094 -0.408,-0.197 c -3.021,-1.452 -3.229,-2.836 -3.222,-3.227 0.009,-0.476 0.313,-0.879 0.835,-1.104 0.786,-0.339 2.193,-0.23 3.654,0.964 0.002,0.738 0.07,20.606 0.07,20.606 l 10.627,3.002 c 0,0 0,-19.595 0,-20.999 2.162,0.112 3.499,1.392 3.661,2.703 0.012,0.09 0.018,0.18 0.018,0.266 0,1.019 -0.762,1.756 -2.089,1.998 l -0.599,0.109 v 7.999 l 0.505,0.163 c 4.809,1.553 9.934,0.043 12.463,-3.671 2.161,-3.175 1.826,-7.049 -0.896,-10.365 z"
     id="path120" /></g>
</svg>
