<svg height="1000" viewBox="0 0 1000 999.99998" width="1000" xmlns="http://www.w3.org/2000/svg"><g transform="matrix(7.3025251 0 0 7.3025251 -1223.0355 -2605.8487)"><g><path d="m 361.478 402.146 c 10.902 34.22 -7.999 70.798 -42.215 81.702 c -34.221 10.902 -70.8 -7.999 -81.703 -42.215 c -10.904 -34.221 7.998 -70.8 42.216 -81.704 c 34.22 -10.904 70.798 7.999 81.702 42.217 z" fill="#fff"/><path d="m 429.013 381.64 c 5.536 17.729 -48.43 50.362 -120.542 72.887 c -72.114 22.525 -135.061 26.413 -140.599 8.681 c -5.538 -17.729 48.429 -50.364 120.542 -72.886 c 72.111 -22.526 135.058 -26.414 140.599 -8.682 z" fill="#fff"/><path d="m 303.322 409.857 c -.264 .612 -.57 1.322 -1.414 2.738 l -.73 1.225 l -1.046 -.978 c -2.844 -2.657 -6.429 -5.759 -9.704 -8.229 c -.633 -.477 -1.25 -.928 -1.84 -1.342 c -.606 -.425 -1.175 -.808 -1.699 -1.14 l -.026 -.013 l -.002 -.002 l -.693 -.461 l .219 -.806 c .259 -.958 3.27 -7.535 6.971 -13.272 c .71 -1.103 1.461 -2.194 2.238 -3.227 c .776 -1.035 1.562 -1.988 2.341 -2.814 l .004 -.002 l .015 -.016 l .137 -.145 l .178 -.091 c 1.341 -.678 11.728 .872 19.19 2.692 c 1.428 .349 2.763 .706 3.918 1.063 c 1.187 .363 2.182 .719 2.891 1.054 l .01 .006 l .005 .001 l .122 .058 l .09 .075 c 1.147 .904 2.823 5.036 3.759 9.378 c .18 .828 .333 1.661 .454 2.482 c .123 .824 .213 1.645 .265 2.445 v .016 v .004 c .087 1.395 -4.512 2.629 -10.052 4.117 c -5.749 1.546 -12.624 3.392 -15.438 4.819 c -.058 .126 -.109 .243 -.163 .365 z m 41.863 14.278 h .004 l .004 -.005 c .245 -.131 1.223 -.849 2.445 -1.747 c 2.875 -2.117 6.987 -5.142 8.197 -4.916 h .004 l .02 .007 c .16 .03 .368 .104 .59 .218 c .176 .091 .38 .217 .602 .378 c 1.006 .738 2.564 2.427 3.515 5.67 l .005 .022 l .002 .004 l .005 .008 c .204 .773 .29 1.75 .275 2.876 c -.015 1.082 -.121 2.295 -.302 3.595 c -.914 6.605 -3.773 15.822 -6.278 20.607 l -.046 .086 l -.056 .071 c -.123 .165 -.261 .383 -.407 .616 c -.759 1.199 -1.761 2.787 -5.31 4.731 l -.906 .496 l -.595 -.85 l -.002 -.003 l -.003 -.004 c -.155 -.226 -.339 -.459 -.543 -.695 c -.21 -.242 -.443 -.488 -.692 -.733 c -1.311 -1.296 -3.036 -2.54 -4.423 -3.289 l -1.008 -.544 l .532 -1.013 l .007 -.013 c .613 -1.161 1.148 -2.38 1.61 -3.625 c .47 -1.263 .868 -2.559 1.203 -3.86 c 1.728 -6.711 1.79 -13.565 .973 -16.789 l -.221 -.869 z m -80.381 -15.243 l -.001 .002 l -.004 .021 c -.229 .497 -.455 1.017 -.673 1.543 c -.221 .538 -.454 1.128 -.693 1.767 c -1.196 3.181 -2.388 7.063 -3.221 10.636 l -.028 .113 l -.055 .116 v .002 l -.032 .064 c -.179 .327 -.728 .65 -1.539 .956 c -.534 .206 -1.334 .485 -2.301 .81 c -4.822 1.623 -13.469 4.134 -14.002 3.987 l -.629 -.171 l -.179 -.635 l -.004 -.006 h .001 c -.366 -1.269 -.658 -2.582 -.883 -3.921 c -.227 -1.346 -.387 -2.724 -.486 -4.1 c -.508 -7.127 .636 -14.444 2.774 -18.034 l .089 -.151 l .109 -.099 l .018 -.019 c .576 -.541 1.126 -1.048 1.646 -1.517 c .505 -.453 1.044 -.932 1.61 -1.418 c 2.927 -2.527 5.563 -4.318 6.52 -4.06 h -.001 l .035 .009 c .667 .2 2.337 2.229 4.363 4.692 c 2.566 3.119 5.753 6.995 7.178 7.998 l .773 .548 z m -.566 -33.469 l -.007 .005 l -7.35 4.777 l 5.862 -6.519 c 6.001 -6.673 19.108 -11.154 29.051 -12.507 c 1.932 -.262 3.757 -.406 5.4 -.43 c 1.666 -.021 3.145 .085 4.358 .332 l .001 -.004 h .005 l 6.128 1.226 l -6.165 1.05 c -3.882 .66 -7.733 1.999 -10.534 4.092 c -.538 .4 -1.031 .823 -1.467 1.267 c -.44 .439 -.832 .909 -1.174 1.403 h -.001 l -.409 .6 l -.716 -.106 c -4.785 -.721 -11.173 -.143 -16.86 1.856 c -1.107 .391 -2.179 .83 -3.204 1.322 c -1.017 .487 -1.995 1.032 -2.918 1.636 z m 38.822 66.948 l .003 .002 l .014 .014 c .37 .447 .828 .973 1.348 1.541 h .006 c .578 .637 1.238 1.338 1.949 2.077 c 3.768 3.922 9.403 9.382 13.435 12.63 l .597 .479 l -.206 .729 h .003 c -.207 .759 -.598 1.603 -1.122 2.493 c -.497 .848 -1.115 1.734 -1.808 2.631 c -3.496 4.542 -9.052 9.537 -10.051 10.193 l -.212 .139 l -.255 .038 h -.002 v 0 c -1.041 .16 -2.189 .236 -3.42 .243 c -1.193 .01 -2.447 -.051 -3.74 -.169 c -6.585 -.594 -14.204 -2.675 -19.575 -4.729 l -.413 -.158 l -.203 -.393 l -.003 -.007 v -.005 c -.396 -.772 -.762 -1.561 -1.09 -2.364 c -.339 -.827 -.643 -1.66 -.908 -2.504 c -1.377 -4.382 -1.872 -9.317 -1.146 -14.66 l .113 -.827 l .818 -.153 h .005 c .59 -.111 1.376 -.276 2.304 -.484 c .923 -.21 2.021 -.468 3.25 -.773 c 6.151 -1.527 14.899 -4.034 18.87 -6.237 l .824 -.459 z" fill="#007bbd"/><path d="m 267.089 474.595 c 23.981 14.348 47.603 9.108 59.95 2.621 c 18.445 -9.278 28.746 -26.123 32.049 -39.9 c -1.458 .327 -10.229 6.01 -10.876 6.023 c -5.619 16.277 -13.165 22.12 -25.534 29.936 c -16.697 9.64 -37.527 10.959 -55.058 .787 z" fill="#343536"/><path d="m 245.807 458.475 c -.682 3.045 -4.1 3.388 -6.861 3.719 c -25.333 3.05 -44.385 .434 -45.088 -8.768 c -1.037 -8.305 16.498 -22.896 33.022 -27.934 c 0 0 6.021 -2.113 7.37 .89 c -.15 -6.754 .016 -9.147 .257 -11.944 c -9.11 3.949 -66.58 30.264 -63.867 47.458 c 1.72 11.356 42.286 11.447 81.995 5.065 c 0 0 -4.638 -4.405 -6.828 -8.486 z" fill="#343536"/><path d="m 258.515 465.477 c 23.334 -5.158 30.055 -6.831 50.513 -13.134 c 48.08 -14.816 121.129 -49.834 116.478 -69.343 c -4.254 -14.964 -61.274 -7.415 -78.281 -3.42 c -.196 .044 -1.593 .333 -2.97 .618 c -19.639 -20.499 -50.755 -25.052 -72.989 -12.379 l .075 .76 c 27.015 -12.063 56.621 -3.601 72.911 27.657 c .127 -.035 8.211 -.982 10.929 .256 c -1.24 -3.011 -4.251 -8.204 -7.655 -12.545 c 1.152 -.304 2.004 -.53 2.076 -.548 c 20.772 -5.328 50.951 -7.794 56.661 4.288 c 5.401 13.94 -34.272 38.438 -100.097 59.066 c -19.78 6.434 -31.538 9.012 -52.9 13.462 c 1.555 2.087 5.249 5.262 5.249 5.262 z" fill="#343536"/><path d="m 244.894 435.131 l .179 -3.185 l 29.76 -9.555 l -.179 3.116 l -10.496 3.423 l -.64 13.098 l -8.767 2.849 l .639 -13.165 z m -19.38 2.614 c -4.557 1.496 -8.352 2.984 -12.419 5.031 l -.105 3.395 c 3.993 -2.32 7.304 -3.808 10.827 -4.881 c 1.032 -.42 7.179 -2.282 7.343 .35 l .005 .693 l -.76 .212 c -1.589 .5 -3.313 1.072 -4.903 1.573 c -14.291 4.563 -16.818 8.466 -16.936 10.682 c -.116 2.563 3.152 3.848 11.644 1.139 c 7.319 -2.355 9.926 -5.079 10.679 -5.987 l .138 -.071 l -.184 2.426 l 8.629 -2.776 l .528 -10.259 c .116 -2.492 -.885 -5.877 -14.486 -1.527 z m 5.541 7.636 c -.174 3.532 -4.655 5.721 -8.246 6.933 c -3.935 1.214 -5.324 .742 -5.266 -.367 c .114 -2.634 7.157 -4.915 11.989 -6.483 l 1.521 -.496 z m 68.18 -22.152 l -2.181 3.901 l -.343 .068 l -1.756 -2.475 l -5.812 -6.939 l -9.734 3.064 l 12.374 12.907 l -.819 1.185 c -1.229 1.811 -3.227 2.867 -6.198 3.794 c -1.311 .43 -2.346 .647 -3.385 .795 l -.8 3.332 c 1.661 -.226 3.249 -.586 5.043 -1.154 c 9.46 -3.065 11.855 -6.135 13.972 -9.411 l 15.162 -22.785 l -8.978 2.854 z m 38.722 -21.412 c -1.452 .429 -7.525 2.567 -11.157 6.615 h -.069 l .111 -2.77 l -7.732 2.427 l -1.105 22.998 l 8.772 -2.852 l .354 -6.234 l -.094 -2.632 h .143 c 1.736 .743 4.647 .858 9.548 -.642 c 7.319 -2.355 14.618 -7.062 14.907 -13.093 c .29 -6.021 -6.083 -6.239 -13.678 -3.817 z m -3.262 14.158 c -3.52 1.142 -7.331 .903 -7.158 -2.562 c .176 -3.466 4.168 -6.275 7.685 -7.416 c 3.594 -1.141 7.405 -.827 7.229 2.636 c -.176 3.395 -4.166 6.201 -7.756 7.342 z m 46.868 -27.998 l 8.771 -2.783 l -.821 16.215 l -8.768 2.852 l .349 -6.998 l -14.152 4.563 l -.35 7.002 l -8.771 2.778 l .821 -16.211 l 8.766 -2.851 l -.284 6.164 l 14.08 -4.563 z" fill="#343536"/></g></g></svg>