<?xml version="1.0" encoding="UTF-8" standalone="no"?>
<svg
   xmlns:dc="http://purl.org/dc/elements/1.1/"
   xmlns:cc="http://creativecommons.org/ns#"
   xmlns:rdf="http://www.w3.org/1999/02/22-rdf-syntax-ns#"
   xmlns:svg="http://www.w3.org/2000/svg"
   xmlns="http://www.w3.org/2000/svg"
   xmlns:sodipodi="http://sodipodi.sourceforge.net/DTD/sodipodi-0.dtd"
   xmlns:inkscape="http://www.inkscape.org/namespaces/inkscape"
   version="1.1"
   id="Layer_1"
   x="0px"
   y="0px"
   viewBox="0 0 1000 1000"
   xml:space="preserve"
   sodipodi:docname="Tomsk Soccer.svg"
   width="1000"
   height="1000"
   inkscape:version="1.0.1 (3bc2e813f5, 2020-09-07)"><metadata
   id="metadata231"><rdf:RDF><cc:Work
       rdf:about=""><dc:format>image/svg+xml</dc:format><dc:type
         rdf:resource="http://purl.org/dc/dcmitype/StillImage" /><dc:title></dc:title></cc:Work></rdf:RDF></metadata><defs
   id="defs229" /><sodipodi:namedview
   pagecolor="#ffffff"
   bordercolor="#666666"
   borderopacity="1"
   objecttolerance="10"
   gridtolerance="10"
   guidetolerance="10"
   inkscape:pageopacity="0"
   inkscape:pageshadow="2"
   inkscape:window-width="1920"
   inkscape:window-height="1017"
   id="namedview227"
   showgrid="false"
   inkscape:zoom="1.1186869"
   inkscape:cx="306"
   inkscape:cy="396"
   inkscape:window-x="-8"
   inkscape:window-y="-8"
   inkscape:window-maximized="1"
   inkscape:current-layer="Layer_1" />




































<g
   id="g1168"
   transform="matrix(2.2987296,0,0,2.2987296,-118.00247,-93.840895)"><polygon
     style="fill:#d2e288;stroke:#d2e288;stroke-width:0.3318"
     points="100.878,353.312 224.983,406.958 349.863,355.966 348.978,298.006 100.878,298.006 "
     id="polygon2" /><path
     style="fill:#2e3192;stroke:#000000;stroke-width:0.3318"
     d="m 357.385,409.723 c 0.442,0.442 7.189,-5.752 8.627,-23.781 0.664,-6.858 0.442,-14.38 0.331,-22.565 -0.111,-4.978 5.974,2.876 12.942,2.102 3.871,-0.442 8.626,-1.88 11.503,-4.534 3.871,-3.65 6.526,-8.407 7.19,-11.283 1.99,-8.959 0.442,-20.573 -5.641,-29.534 -5.752,-8.626 -17.035,-13.051 -21.348,-13.162 -2.766,-0.111 -7.079,0 -11.504,1.548 -2.543,0.885 -5.53,2.543 -7.853,4.867 -1.659,1.659 -3.097,3.539 -4.646,5.419 -2.987,3.54 -4.978,8.295 -6.969,13.273 -3.208,8.185 -2.434,19.468 -6.305,26.768 -4.866,9.07 -13.163,12.388 -11.835,13.827 z"
     id="path4" /><path
     style="fill:#ffffff"
     d="m 356.832,408.175 c 0.332,0.442 6.083,-6.747 7.632,-24.777 0.552,-6.858 0.441,-14.269 0.221,-22.453 0,-0.775 -0.442,-0.996 0.221,-1.549 1.438,-1.327 6.858,4.315 12.721,3.65 3.871,-0.443 8.628,-1.88 11.614,-4.646 3.872,-3.539 6.416,-8.295 7.08,-11.171 2.101,-8.959 0.441,-20.573 -5.531,-29.643 -3.981,-5.863 -10.065,-9.292 -14.6,-11.724 -2.324,-1.217 -4.204,-1.881 -5.641,-2.323 -1.77,-0.774 -9.956,-3.429 -15.817,-1.106 -3.208,1.217 -4.757,2.654 -6.969,5.419 -0.774,0.996 -1.66,2.213 -2.434,3.54 -0.664,0.995 -1.328,2.102 -1.77,2.985 -0.996,1.882 -2.212,4.205 -3.207,6.748 -0.995,2.654 -1.77,5.862 -2.545,8.518 -2.212,8.406 -1.768,19.467 -5.751,26.767 -4.757,9.07 -13.163,12.278 -11.726,13.717 z"
     id="path6" /><path
     style="fill:#2e3192"
     d="m 351.744,401.759 c 0.332,0.332 5.53,-4.535 6.857,-20.242 0.443,-5.862 0.332,-12.388 0.222,-19.468 -0.111,-4.314 2.102,-14.489 3.761,-18.804 1.88,-5.088 3.871,-10.507 5.972,-13.384 0.111,-0.22 3.098,-4.866 8.296,-8.295 7.19,-4.646 10.729,-4.314 10.619,-4.535 -2.655,-3.65 -6.638,-8.517 -12.942,-11.282 -1.658,-0.775 -3.097,-1.438 -4.534,-1.991 -2.213,-0.774 -3.872,-1.217 -6.526,-1.549 -5.751,-0.774 -8.186,0 -11.613,2.434 -0.996,0.663 -2.434,1.88 -3.761,3.649 -0.885,1.218 -1.548,2.212 -2.433,3.65 -2.102,3.208 -4.093,7.411 -4.978,10.287 -0.774,2.434 -1.659,4.977 -2.323,7.853 -0.332,1.439 -0.553,2.987 -0.884,4.646 -1.659,7.301 -1.881,17.587 -6.085,23.67 -0.331,0.554 -2.433,3.761 -5.198,6.305 -2.766,2.435 -5.753,4.978 -5.753,4.978 z"
     id="path8" /><path
     style="fill:#2e3192"
     d="m 390.567,351.875 c 2.213,-3.983 3.761,-10.177 3.43,-15.818 -0.443,-6.305 -2.987,-11.946 -4.093,-14.158 -0.221,-0.443 -0.885,-2.323 -1.439,-2.544 -0.885,-0.111 -4.977,1.106 -7.742,2.876 -3.761,2.434 -9.181,7.412 -12.057,13.384 -2.323,5.088 -4.977,11.946 -5.31,16.701 -0.11,2.654 3.762,4.093 7.743,6.084 3.984,2.101 14.602,1.99 19.468,-6.525 z"
     id="path10" /><g
     id="g14">
	<path
   style="fill:none;stroke:#2e3192;stroke-width:0.9955"
   d="m 365.349,366.917 c 0.221,-1.549 0.332,-3.096 0,-4.646 -0.222,-1.438 -0.774,-2.876 -1.106,-4.203 l -0.221,-1.549 -0.111,-1.438 c -0.222,-1.327 0.111,-2.543 0.442,-3.87"
   id="path12" />
</g><path
     style="fill:#2e3192;stroke:#000000;stroke-width:0.3318"
     d="m 92.915,408.506 c -0.443,0.443 -7.19,-5.751 -8.628,-23.781 -0.664,-6.859 -0.442,-14.269 -0.331,-22.454 0.109,-4.977 -5.975,2.876 -12.942,2.102 -3.871,-0.443 -8.628,-1.881 -11.615,-4.646 -3.76,-3.539 -6.416,-8.295 -7.079,-11.171 -1.992,-8.96 -0.442,-20.574 5.641,-29.644 5.752,-8.628 17.033,-12.941 21.347,-13.163 2.765,-0.111 7.08,0.111 11.505,1.658 2.543,0.885 5.53,2.435 7.852,4.868 1.66,1.658 3.097,3.539 4.646,5.309 2.986,3.65 4.978,8.407 6.968,13.273 3.208,8.186 2.434,19.579 6.305,26.878 4.867,8.96 13.163,12.278 11.836,13.716 z"
     id="path16" /><path
     style="fill:#ffffff"
     d="m 93.468,407.068 c -0.333,0.443 -6.083,-6.747 -7.632,-24.776 -0.554,-6.858 -0.443,-14.379 -0.222,-22.565 0,-0.774 0.443,-0.995 -0.222,-1.547 -1.437,-1.218 -6.858,4.313 -12.72,3.648 -3.872,-0.442 -8.628,-1.879 -11.615,-4.534 -3.871,-3.651 -6.415,-8.296 -7.078,-11.283 -2.101,-8.849 -0.443,-20.573 5.53,-29.532 3.982,-5.864 10.065,-9.402 14.601,-11.726 2.322,-1.216 4.203,-1.88 5.641,-2.433 1.769,-0.664 9.954,-3.429 15.817,-0.996 3.208,1.218 4.757,2.655 6.969,5.42 0.774,0.884 1.658,2.212 2.433,3.54 0.664,0.996 1.328,1.992 1.77,2.987 0.995,1.88 2.213,4.203 3.207,6.746 0.996,2.656 1.771,5.753 2.546,8.407 2.211,8.406 1.769,19.468 5.75,26.768 4.757,9.071 13.163,12.388 11.725,13.827 z"
     id="path18" /><path
     style="fill:#2e3192"
     d="m 98.556,400.542 c -0.333,0.332 -5.53,-4.535 -6.859,-20.13 -0.442,-5.973 -0.332,-12.39 -0.221,-19.578 0.111,-4.314 -2.101,-14.38 -3.76,-18.804 -1.88,-5.089 -3.871,-10.397 -5.973,-13.384 -0.111,-0.222 -2.987,-4.978 -8.295,-8.186 -7.301,-4.535 -11.062,-4.646 -10.841,-4.866 2.545,-3.651 6.858,-8.186 13.163,-10.951 1.66,-0.774 3.097,-1.438 4.536,-1.992 2.212,-0.884 3.871,-1.328 6.526,-1.658 5.751,-0.664 8.185,0.11 11.614,2.433 0.995,0.663 2.433,1.99 3.76,3.761 0.886,1.105 1.548,2.212 2.434,3.539 2.102,3.208 4.093,7.411 4.979,10.397 0.773,2.322 1.658,4.979 2.322,7.854 0.333,1.437 0.554,2.985 0.885,4.534 1.659,7.301 1.88,17.588 6.083,23.782 0.332,0.553 2.434,3.761 5.199,6.305 2.765,2.433 5.752,4.866 5.752,4.977 z"
     id="path20" /><path
     style="fill:#2e3192"
     d="m 59.731,350.767 c -2.212,-4.093 -3.76,-10.176 -3.429,-15.817 0.443,-6.305 2.102,-12.168 3.208,-14.379 0.331,-0.443 1.106,-2.434 1.548,-2.655 0.995,-0.331 5.641,1.771 8.406,3.319 3.761,2.103 9.292,7.3 12.168,13.273 2.324,4.977 4.978,11.836 5.309,16.592 0.111,2.765 -3.76,4.092 -7.743,6.194 -3.982,1.99 -14.6,1.99 -19.467,-6.527 z"
     id="path22" /><g
     id="g26">
	<path
   style="fill:none;stroke:#2e3192;stroke-width:0.9955"
   d="m 84.95,365.811 c -0.221,-1.548 -0.331,-3.097 0,-4.755 0.222,-1.329 0.774,-2.766 1.107,-4.094 l 0.221,-1.548 0.111,-1.438 c 0.222,-1.328 -0.111,-2.544 -0.442,-3.872"
   id="path24" />
</g><path
     style="fill:#2e3192"
     d="m 223.324,454.078 c 5.974,0.111 11.946,-0.332 17.366,-1.327 6.415,-1.217 12.831,-2.876 18.14,-5.863 7.964,-4.646 15.375,-10.287 22.786,-15.264 6.637,-4.645 12.832,-8.849 18.472,-12.72 5.863,-3.982 10.729,-7.3 14.601,-9.955 4.425,-2.988 7.301,-5.2 8.959,-6.305 2.102,-1.328 3.872,-0.664 4.204,-0.443 4.866,3.982 11.172,6.637 12.609,7.079 0.775,0.332 10.177,2.324 14.822,1.549 2.103,-0.442 3.429,-1.659 2.103,-3.318 l -19.135,-24.666 c -13.938,-17.919 -7.633,-7.964 -18.251,-21.459 -0.332,-0.441 -3.65,-2.544 -8.186,-2.654 -4.534,-0.111 -10.398,2.102 -14.601,4.092 -6.305,2.987 -14.158,9.734 -21.016,14.159 -5.974,3.87 -15.154,11.061 -24.003,15.706 -7.965,4.203 -18.14,9.181 -27.873,8.959 -10.951,-0.331 -12.389,-2.876 -19.136,-5.419 -6.415,-2.434 -15.154,-6.416 -22.343,-11.726 -5.421,-4.092 -12.942,-9.181 -19.247,-13.273 -5.31,-3.54 -9.401,-5.972 -14.823,-9.512 -2.102,-1.328 -6.857,-2.876 -9.512,-2.876 -4.645,-0.221 -8.627,0.996 -10.508,3.318 l -26.768,33.072 c -1.991,2.434 -6.637,8.517 -9.513,12.389 -0.995,1.217 3.319,1.991 7.19,2.433 3.54,0.333 8.185,-0.442 14.158,-2.986 2.323,-0.885 4.424,-2.211 6.083,-3.318 2.213,-1.438 4.093,-2.322 6.083,-0.884 5.862,4.093 13.606,9.292 19.467,13.272 7.08,4.867 14.49,10.066 21.901,15.044 4.867,3.318 9.401,6.636 13.937,9.623 3.097,2.101 6.084,4.202 9.181,5.972 3.429,1.881 7.189,3.319 10.287,4.093 4.756,1.217 8.738,1.992 10.951,2.323 6.416,0.996 10.731,0.885 11.615,0.885 z"
     id="path28" /><path
     style="fill:#ffffff"
     d="m 223.324,452.309 c 5.974,0 11.946,-0.443 17.366,-1.438 6.415,-1.106 12.831,-2.765 18.14,-5.863 7.964,-4.644 15.375,-10.175 22.786,-15.264 6.637,-4.536 12.832,-8.739 18.472,-12.61 5.863,-4.093 10.729,-7.3 14.601,-10.066 4.425,-2.986 7.301,-5.198 8.959,-6.194 2.102,-1.327 3.872,-0.664 4.204,-0.442 4.866,3.871 11.172,6.526 12.609,7.079 1.107,0.332 20.464,4.535 15.928,-1.438 l -19.246,-24.998 c -13.827,-18.14 -6.305,-7.631 -17.145,-21.569 -0.332,-0.333 -3.65,-2.544 -8.186,-2.654 -4.534,-0.111 -10.398,2.211 -14.601,4.093 -6.305,3.097 -14.269,9.623 -21.016,14.157 -5.974,4.094 -15.044,11.283 -23.892,15.928 -3.982,2.102 -9.512,4.867 -13.606,6.416 -4.534,1.881 -10.176,3.872 -13.827,3.872 -3.429,0 -13.826,-3.761 -19.909,-6.416 -6.305,-2.654 -14.712,-7.411 -22.122,-12.277 -5.642,-3.761 -12.942,-9.181 -19.247,-13.273 -5.31,-3.43 -9.401,-5.974 -14.823,-9.402 -2.102,-1.328 -6.857,-2.876 -9.512,-2.987 -4.645,-0.11 -8.627,0.996 -10.508,3.429 l -25.883,33.626 c -1.992,2.545 -6.415,8.186 -9.29,12.057 -0.886,1.217 2.212,1.77 6.083,2.103 3.54,0.332 8.185,-0.332 14.158,-2.876 2.323,-0.996 4.424,-2.324 6.083,-3.429 2.213,-1.438 4.093,-2.213 6.083,-0.885 5.862,4.093 13.606,9.292 19.467,13.273 7.08,4.978 14.49,10.066 21.901,15.153 4.867,3.208 9.401,6.526 13.937,9.624 3.097,2.102 6.084,4.093 9.181,5.972 3.429,1.881 7.189,3.208 10.287,4.093 4.756,1.107 8.738,1.88 10.951,2.323 6.418,0.993 10.733,0.883 11.617,0.883 z"
     id="path30" /><path
     style="fill:#2e3192"
     d="m 224.873,443.239 c 4.425,-0.111 7.743,0 12.058,-0.775 4.645,-0.774 8.628,-2.212 12.721,-3.65 6.636,-2.323 11.946,-5.199 17.586,-8.848 5.088,-3.319 9.624,-6.637 13.827,-9.513 4.313,-2.986 7.963,-5.419 10.95,-7.411 3.207,-2.212 5.42,-3.871 6.636,-4.644 2.765,-1.993 34.068,-27.654 45.904,-12.721 0.222,0.332 -17.145,-22.232 -19.688,-25.551 -4.977,-6.637 -9.734,-8.518 -14.711,-8.407 -8.74,0.221 -24.999,11.504 -30.75,16.148 -3.982,3.208 -10.618,7.523 -15.707,10.841 -4.535,2.876 -11.946,7.633 -18.915,10.398 -6.415,2.433 -12.942,5.972 -20.242,5.751 -8.186,-0.222 -11.171,-2.323 -16.148,-4.204 -4.978,-1.99 -9.181,-3.65 -15.044,-6.858 -4.866,-2.544 -8.959,-5.42 -13.715,-8.738 -3.651,-2.433 -8.85,-5.973 -13.163,-8.517 -6.968,-3.982 -17.366,-14.269 -27.984,-14.822 -9.402,-0.553 -14.379,9.844 -17.255,13.383 -3.982,4.757 -16.26,21.569 -14.822,19.579 11.724,-15.817 42.695,12.499 44.687,13.827 4.314,2.986 10.176,6.858 14.489,9.844 5.31,3.651 10.84,7.522 16.371,11.282 3.65,2.434 6.747,4.756 10.619,6.526 2.433,1.106 4.645,2.212 7.188,2.986 2.876,0.774 5.089,1.549 7.743,2.102 3.429,0.774 6.747,1.106 8.406,1.327 3.208,0.443 4.535,0.886 8.959,0.665 z"
     id="path32" /><path
     style="fill:#00a651"
     d="m 367.671,177.108 c -2.101,-4.645 -3.759,-9.844 -4.755,-13.494 -1.217,-4.425 -1.328,-4.646 -1.88,-7.411 -0.553,-2.544 -1.107,-5.974 -1.549,-8.739 -0.442,-2.765 -0.774,-6.194 -0.996,-8.848 -0.22,-2.435 -0.441,-5.864 -0.441,-7.301 -0.111,-2.212 -0.111,-4.424 0,-6.636 0.222,-5.752 0.332,-7.854 0.885,-11.394 0.442,-3.65 0.885,-6.416 1.659,-9.181 0.774,-2.985 1.328,-5.198 2.212,-7.41 1.77,-4.867 2.987,-7.08 4.093,-8.629 0.111,-0.22 -0.11,-0.111 -0.332,-0.22 -2.323,-1.217 -6.747,-3.539 -9.07,-4.756 -6.305,-3.209 -9.845,-4.977 -14.048,-7.19 -4.535,-2.323 -7.964,-3.982 -10.951,-5.53 -4.755,-2.434 -7.631,-3.982 -8.959,-4.756 -0.111,0 0,0.222 0.11,0.332 0.775,1.66 0.996,3.761 0.885,5.753 -0.221,2.543 -0.995,4.866 -2.322,6.857 -2.323,3.539 -4.647,5.309 -7.522,6.968 -2.655,1.438 -5.641,1.992 -8.185,1.992 -4.204,0 -7.19,-1.439 -9.401,-3.54 -2.765,-2.544 -3.54,-5.31 -3.651,-8.075 0,-2.101 0.442,-4.977 1.88,-7.411 0.996,-1.992 2.324,-3.649 3.429,-4.646 1.882,-1.659 4.647,-4.314 10.066,-5.088 0.221,0 -0.332,-0.221 -0.553,-0.332 -2.101,-1.438 -3.761,-2.434 -6.195,-3.539 -6.083,-2.876 -12.167,-5.31 -18.804,-6.858 -7.632,-1.991 -15.485,-3.872 -23.228,-4.867 -9.07,-1.216 -18.14,-1.991 -26.878,-2.212 -10.951,-0.331 -21.569,0 -31.303,0.997 -10.176,1.106 -19.688,2.543 -27.542,4.535 -9.513,2.434 -17.918,5.088 -23.117,7.742 -4.757,2.323 -9.734,5.309 -8.407,4.646 0.222,-0.222 2.434,0.552 3.429,0.995 1.77,0.885 5.53,3.097 7.301,5.31 1.438,1.881 3.318,5.199 3.76,7.853 0.222,1.881 0.222,5.752 -1.438,8.517 -0.774,1.106 -2.876,3.429 -4.424,4.204 -3.539,1.881 -7.189,1.77 -8.406,1.659 -3.098,-0.442 -5.31,-1.217 -6.194,-1.659 -3.208,-1.327 -5.641,-4.093 -5.862,-4.314 -2.543,-2.654 -2.876,-4.313 -3.097,-4.645 -0.996,-1.77 -1.218,-4.094 -1.329,-4.425 -0.332,-2.543 0.554,-5.752 0.554,-6.083 0.11,-0.11 -0.333,0.11 -0.443,0.221 -4.423,2.434 -8.627,4.425 -12.499,6.416 -4.423,2.323 -9.181,4.756 -12.609,6.526 -3.982,2.101 -8.295,4.204 -10.839,5.53 -3.209,1.659 -6.084,3.096 -6.416,3.207 -0.11,0.111 0.442,0.886 0.663,1.328 2.102,3.983 4.093,8.739 5.31,14.27 1.548,6.415 2.655,13.383 2.655,21.347 0,6.083 -0.111,12.61 -1.107,19.689 -1.216,9.181 -1.658,10.286 -2.433,13.494 -1.549,7.3 -5.752,18.251 -6.416,19.578 -1.328,2.876 -1.55,3.43 -2.987,5.862 -1.77,3.208 -3.318,5.642 -4.867,7.744 -1.88,2.433 -3.65,4.093 -4.534,4.977 -0.221,0.221 0.885,-0.222 1.327,-0.443 0.885,-0.331 1.881,-0.552 2.765,-0.772 2.877,-0.665 5.753,-0.443 8.297,0.332 1.99,0.552 3.318,2.101 4.203,3.318 1.548,2.102 0.885,5.974 -0.111,7.964 -0.885,1.88 -3.539,5.641 -8.407,8.295 -2.987,1.66 -5.309,1.992 -6.747,2.434 -0.663,0.111 -0.442,1.107 -0.442,1.992 -0.332,3.096 -0.332,6.083 -0.332,9.18 0,3.098 0.222,6.195 0.552,9.292 0.553,5.753 1.66,11.614 3.208,17.366 0.664,2.212 1.328,4.424 2.102,6.637 1.547,4.756 3.871,10.065 6.304,14.49 0.886,1.659 1.77,3.318 2.766,4.978 0.442,0.664 0.774,1.216 1.217,1.879 0,0.111 0,0.332 0.111,0.442 2.322,3.429 4.534,6.748 6.968,9.956 51.323,68.688 130.631,104.084 130.631,104.084 43.913,-19.689 80.746,-48.227 107.957,-77.871 5.972,-6.414 11.946,-12.609 17.476,-19.245 2.543,-2.987 4.756,-6.083 6.858,-9.071 3.872,-5.309 7.19,-10.507 9.845,-15.816 2.323,-4.647 4.313,-9.182 5.972,-13.827 1.438,-3.872 2.434,-7.854 3.319,-11.615 0.773,-3.097 1.216,-5.973 1.658,-8.96 0.332,-2.986 0.664,-5.861 0.775,-8.626 0.222,-2.876 0.111,-5.531 0.111,-8.186 0,-2.323 -0.111,-4.535 -0.332,-6.636 0,-0.222 -0.111,-0.775 -0.111,-0.775 -1.107,-0.333 -3.208,-0.886 -5.31,-2.102 -2.212,-1.106 -4.093,-2.765 -5.642,-4.314 -1.99,-1.88 -3.206,-4.535 -3.648,-6.525 -0.443,-1.992 0,-4.205 0.883,-5.531 2.324,-3.318 5.642,-3.76 6.969,-3.871 3.319,-0.222 4.978,0.222 6.748,0.664 0.995,0.331 1.769,0.663 1.439,0.441 -1.771,-1.658 -4.757,-5.419 -6.194,-7.631 -2.436,-3.654 -4.316,-7.526 -6.087,-11.287 z"
     id="path34" /><path
     style="fill:#d2e288;stroke:#d2e288;stroke-width:0.3318"
     d="m 340.572,183.856 c -1.769,-3.649 -3.318,-7.964 -4.093,-10.95 -0.995,-3.54 -1.105,-3.761 -1.548,-5.973 -0.442,-2.103 -0.884,-4.868 -1.217,-7.08 -0.442,-2.213 -0.663,-4.977 -0.885,-7.189 -0.111,-1.99 -0.331,-4.756 -0.331,-5.862 0,-1.88 -0.11,-3.651 0,-5.419 0.221,-4.646 0.221,-6.415 0.664,-9.292 0.442,-2.987 0.885,-5.199 1.438,-7.411 0.442,-2.544 0.995,-4.314 1.548,-6.194 1.217,-3.983 2.875,-9.292 3.208,-10.73 0,-0.222 -2.435,1.438 -3.761,2.323 -2.877,1.881 -8.296,3.54 -10.508,4.093 -7.522,1.991 -13.163,2.876 -21.236,3.318 -5.42,0.332 -5.753,0.11 -10.287,0.221 0,0 -5.53,0.111 -14.601,-0.996 -6.305,-0.773 -8.739,-1.216 -10.84,-1.658 l -6.305,-1.328 c -2.765,-0.774 -4.757,-1.217 -6.194,-1.659 -4.535,-1.438 -4.756,-1.438 -8.628,-2.765 l -4.423,-1.992 -4.204,-2.101 c -6.194,-3.651 -4.756,-2.987 -8.959,-6.416 -2.102,-2.323 -1.882,-2.212 -2.765,-3.54 l -2.323,-4.424 c -2.655,7.743 -11.726,13.716 -19.136,16.813 -1.659,0.553 -6.304,2.434 -9.07,3.429 -2.544,0.775 -7.964,2.323 -14.379,3.651 -7.189,1.549 -17.809,2.434 -19.799,2.544 -1.992,0.111 -6.305,0.332 -11.171,0.332 -5.863,0 -11.615,-0.553 -13.938,-0.774 -4.757,-0.663 -9.07,-1.659 -11.835,-2.323 -2.544,-0.553 -5.752,-1.548 -8.407,-2.765 -3.429,-1.548 -6.084,-3.429 -6.194,-3.318 -0.111,0 1.106,3.54 1.328,4.424 1.106,3.43 2.322,7.08 3.318,11.503 1.216,5.31 2.212,10.841 2.212,17.367 0,4.977 -0.111,10.287 -0.885,16.038 -0.996,7.412 -1.438,8.296 -1.991,10.951 -1.328,5.862 -5.419,14.491 -5.863,15.596 -1.106,2.102 -1.327,2.765 -2.101,4.756 -1.106,2.765 -1.991,5.31 -2.544,7.3 -2.543,8.849 -1.327,4.425 -3.098,14.268 -0.552,2.545 -0.773,4.646 -0.883,6.085 0,0.442 -0.111,0.995 -0.111,1.658 -0.222,2.545 -0.222,4.978 -0.222,7.523 0,2.433 0.111,4.977 0.332,7.522 0.442,4.645 1.438,9.401 2.765,14.047 0.442,1.881 0.994,3.649 1.658,5.42 1.218,3.87 3.097,8.185 5.089,11.835 0.663,1.327 1.437,2.654 2.212,3.982 0.442,0.552 0.664,0.996 0.995,1.548 0,0.111 0.111,0.222 0.111,0.332 1.881,2.765 3.65,5.53 5.641,8.076 41.7,55.858 106.075,84.506 106.075,84.506 35.285,-15.818 65.04,-38.382 86.83,-62.274 0.222,-0.221 0.553,-0.553 0.774,-0.774 2.434,-2.765 4.978,-5.53 7.411,-8.075 2.434,-2.655 4.314,-5.199 6.526,-7.631 2.212,-2.434 4.203,-4.979 5.974,-7.412 2.985,-4.314 5.751,-8.517 7.852,-12.83 1.991,-3.761 3.539,-7.523 4.867,-11.282 1.217,-3.098 2.102,-6.305 2.765,-9.402 0.554,-2.544 0.996,-4.867 1.327,-7.3 0.333,-2.434 0.554,-4.756 0.665,-6.968 0.11,-2.323 0.11,-4.535 0.11,-6.637 -0.11,-1.88 -0.221,-3.65 -0.332,-5.419 0,0 -0.774,-5.089 -0.995,-6.969 -0.885,-5.973 -3.097,-14.932 -3.872,-16.924 -1.107,-2.989 -2.212,-6.419 -3.761,-9.405 z"
     id="path36" /><path
     style="fill:#ffffff;stroke:#ffffff;stroke-width:0.3318"
     d="m 111.719,220.593 224.871,-0.125 c -4.755,-9.18 -7.853,-18.252 -10.396,-27.874 -1.881,-7.411 -2.988,-14.933 -4.093,-22.345 -0.332,-3.87 -0.774,-7.742 -0.885,-11.724 0,-4.203 -0.111,-8.406 0.111,-12.72 0.22,-2.766 0.442,-5.751 0.774,-8.517 l 1.216,-7.08 c -3.539,0.553 -7.079,1.106 -10.729,1.438 -3.76,0.332 -7.522,0.553 -11.172,0.664 -4.976,0 -9.954,-0.11 -14.932,-0.332 -4.535,-0.332 -8.959,-0.664 -13.384,-1.106 -6.083,-0.775 -12.277,-1.77 -18.361,-2.987 -5.751,-1.328 -11.613,-2.765 -17.145,-5.088 -2.765,-1.106 -5.53,-2.545 -8.185,-3.982 -2.434,-1.659 -3.872,-3.54 -5.752,-5.531 -2.213,2.102 -4.204,4.536 -7.521,6.417 -2.765,1.327 -5.31,2.544 -8.075,3.428 -7.3,2.654 -14.933,4.646 -22.675,5.864 -8.849,1.327 -17.588,2.654 -26.547,2.875 -6.858,0.333 -13.716,0.222 -20.573,-0.11 -2.213,-0.222 -4.314,-0.333 -6.526,-0.554 -2.213,-0.22 -4.536,-0.664 -6.747,-0.884 1.105,5.53 1.769,11.062 2.102,16.592 0.11,5.641 0,11.282 -0.222,16.813 -0.442,4.867 -0.885,9.734 -1.77,14.711 -0.884,4.757 -1.88,9.734 -2.986,14.6 -1.438,4.979 -2.766,9.512 -4.646,14.491 -1.77,4.424 -3.431,8.753 -5.752,13.066 z"
     id="path38" /><path
     style="fill:#ffffff;stroke:#ffffff;stroke-width:0.3318"
     d="m 200.207,349.772 c 1.77,1.106 3.54,2.103 5.309,3.097 0.996,0.553 1.991,1.218 3.097,1.771 1.106,0.663 2.323,1.327 3.429,1.879 3.982,2.323 8.075,4.314 12.388,6.305 4.757,-2.101 9.181,-4.203 13.605,-6.526 3.762,-2.101 7.633,-4.093 11.283,-6.305 l 0.111,-129.525 h -49.222 z"
     id="path40" /><g
     id="g146">
	<polygon
   style="fill:#e6e7e8;stroke:#6d6e71;stroke-width:0.3318"
   points="224.21,228.21 221.223,229.096 219.011,229.648 216.024,230.976 225.094,228.763 229.187,228.21 218.9,231.309 223.989,230.313 227.085,230.202 231.841,230.865 225.869,231.528 219.231,233.299 218.9,233.299 217.574,232.635 216.024,231.861 214.145,231.639 212.042,231.75 211.711,231.639 210.716,231.861 214.145,229.759 218.9,228.1 227.748,226.773 "
   id="polygon42" />
	<path
   style="fill:#e6e7e8;stroke:#6d6e71;stroke-width:0.3318"
   d="m 206.954,263.163 c -0.774,-0.332 -3.318,1.328 -6.416,-1.548 -2.987,-2.876 -5.972,-5.309 -7.411,-5.751 -1.438,-0.443 -3.318,-3.761 -9.181,0.221 -5.973,3.982 -7.411,3.76 -7.191,6.083 0,0 -0.441,2.655 -0.994,3.098 -0.443,0.332 -1.217,0.995 -0.443,1.105 0.775,0.111 4.424,0.443 4.535,-0.553 0,-0.994 -0.441,-2.212 0.553,-3.206 0.885,-0.886 0.775,-0.996 0.996,-1.66 0.111,-0.664 2.876,-1.549 2.876,-1.549 0,0 7.743,0.111 9.069,2.435 1.329,2.212 7.079,8.295 7.412,9.07 0.331,0.664 5.088,0.221 5.53,0.442 0.444,0.22 2.434,-7.412 0.665,-8.187 z"
   id="path44" />
	<g
   id="g90">
		<path
   style="fill:#e6e7e8;stroke:#6d6e71;stroke-width:0.3318"
   d="m 253.743,301.767 c 0,0 6.747,-6.415 9.733,-7.853 2.987,-1.439 6.305,-8.296 7.19,-11.615 0.885,-3.208 -1.88,-10.951 0,-12.831 0,0 -1.549,3.982 -1.329,6.084 0,0 -0.332,-9.402 -6.305,-13.827 l -2.211,-4.425 c 0,0 1.217,5.089 3.097,7.412 1.881,2.323 1.991,4.204 1.991,4.204 0,0 -1.88,-2.766 -3.428,-4.646 -1.549,-1.88 -2.102,-4.424 -2.102,-4.424 0,0 1.991,7.19 3.208,8.407 1.107,1.216 -3.761,-0.886 -5.088,-3.098 -1.217,-2.213 -1.66,-7.522 -1.66,-7.522 0,0 -0.11,8.185 1.992,9.956 0,0 -1.438,-1.66 -6.194,-0.664 -4.757,0.884 -5.42,-3.762 -6.194,-6.858 -0.774,-3.209 0.774,-5.199 0.774,-5.199 0,0 -2.654,2.433 -1.548,8.627 0,0 1.991,5.42 5.53,6.415 0,0 -6.858,-0.773 -7.521,-5.972 -0.664,-5.199 0.663,-6.969 0.663,-6.969 0,0 -2.654,4.425 -1.327,9.623 1.216,5.31 7.742,4.204 8.959,5.641 1.327,1.439 5.088,4.867 5.199,9.071 0,4.314 -2.434,9.845 -2.434,9.845 l -0.221,-2.876 c 0,0 -1.438,2.654 -0.996,5.309 0.333,2.434 -2.544,9.734 -4.866,8.075 -0.222,-0.111 0.11,2.323 0,2.433 -0.664,0.333 1.107,0 2.765,-0.773 1.217,-0.666 2.323,-1.55 2.323,-1.55 z"
   id="path46" />
		<g
   id="g88">
			<g
   id="g50">
				<path
   style="fill:none;stroke:#6d6e71;stroke-width:0.3318"
   d="m 256.95,298.448 c 0,0 4.757,-7.631 6.416,-9.401 1.549,-1.879 3.982,-11.503 3.318,-13.605 -0.553,-2.102 -3.207,-4.424 -3.207,-4.424"
   id="path48" />
			</g>
			<g
   id="g54">
				<path
   style="fill:none;stroke:#6d6e71;stroke-width:0.3318"
   d="m 252.637,301.435 c 0,0 2.434,-5.088 2.434,-6.968"
   id="path52" />
			</g>
			<g
   id="g58">
				<path
   style="fill:none;stroke:#6d6e71;stroke-width:0.3318"
   d="m 254.074,300.219 c 0,0 2.103,-6.969 3.429,-9.292 1.328,-2.433 2.987,-11.836 -0.11,-15.817"
   id="path56" />
			</g>
			<g
   id="g62">
				<path
   style="fill:none;stroke:#6d6e71;stroke-width:0.3318"
   d="m 253.41,271.018 c 0,0 5.531,2.654 6.415,5.641 0.886,2.986 1.217,9.18 -1.327,14.932"
   id="path60" />
			</g>
			<g
   id="g66">
				<path
   style="fill:none;stroke:#6d6e71;stroke-width:0.3318"
   d="m 259.715,266.814 c 0,0 2.655,4.314 3.651,5.641 1.106,1.327 1.66,4.203 1.217,5.862"
   id="path64" />
			</g>
			<g
   id="g70">
				<path
   style="fill:none;stroke:#6d6e71;stroke-width:0.3318"
   d="m 264.582,267.92 c 0,0 3.429,5.088 3.54,6.305 0.111,1.217 1.106,4.315 -0.222,7.301"
   id="path68" />
			</g>
			<g
   id="g74">
				<path
   style="fill:none;stroke:#6d6e71;stroke-width:0.3318"
   d="m 270.223,274.667 c 0,0 0.222,5.973 -0.885,8.075"
   id="path72" />
			</g>
			<g
   id="g78">
				<path
   style="fill:none;stroke:#6d6e71;stroke-width:0.3318"
   d="m 266.794,268.252 c 0,0 0.774,3.207 1.549,4.755"
   id="path76" />
			</g>
			<g
   id="g82">
				<path
   style="fill:none;stroke:#6d6e71;stroke-width:0.3318"
   d="m 252.083,269.137 c 0,0 4.314,0.884 5.863,2.434"
   id="path80" />
			</g>
			<g
   id="g86">
				<path
   style="fill:none;stroke:#6d6e71;stroke-width:0.3318"
   d="m 256.398,267.92 c 0,0 5.309,2.323 6.746,6.415 1.328,3.982 -0.111,10.95 -0.995,12.388"
   id="path84" />
			</g>
		</g>
	</g>
	<polygon
   style="fill:#e6e7e8;stroke:#6d6e71;stroke-width:0.3318"
   points="212.484,224.008 213.701,225.224 214.918,227.216 215.36,228.653 215.471,229.759 215.36,230.534 214.918,231.309 214.254,231.639 213.591,231.419 213.259,230.976 213.37,230.091 213.812,228.874 213.923,227.769 213.923,226.994 "
   id="polygon92" />
	<polygon
   style="fill:#e6e7e8;stroke:#6d6e71;stroke-width:0.3318"
   points="228.855,234.515 225.869,233.963 223.768,233.41 220.449,233.189 229.52,235.4 233.28,236.839 222.771,234.847 227.748,236.396 230.625,237.723 234.496,240.489 228.855,238.276 222.218,236.728 221.887,236.617 221.002,235.4 220.006,233.963 218.457,232.857 216.577,232.082 216.246,231.861 215.36,231.528 219.231,231.309 224.21,231.972 232.727,234.847 "
   id="polygon94" />
	<polygon
   style="fill:#e6e7e8;stroke:#6d6e71;stroke-width:0.3318"
   points="234.939,249.116 237.373,250.554 230.515,247.014 237.925,252.767 229.187,248.01 234.496,252.988 227.196,247.789 226.422,245.909 225.869,244.581 225.205,243.144 224.321,241.042 227.196,242.591 230.736,244.802 235.492,247.789 229.187,245.356 "
   id="polygon96" />
	<polygon
   style="fill:#e6e7e8;stroke:#6d6e71;stroke-width:0.3318"
   points="236.377,260.509 232.395,257.412 230.625,255.532 229.298,253.541 233.723,256.637 229.409,252.434 233.832,255.532 237.373,257.855 231.952,253.651 229.52,250.886 234.939,254.536 227.306,247.899 227.748,250.443 227.97,252.324 228.081,254.868 229.52,256.196 231.067,257.412 "
   id="polygon98" />
	<polygon
   style="fill:#e6e7e8;stroke:#6d6e71;stroke-width:0.3318"
   points="234.054,261.395 232.395,260.951 230.625,260.177 232.616,261.504 234.165,262.168 236.377,263.274 231.841,261.726 230.957,261.284 229.74,260.62 228.745,259.624 228.302,258.85 228.081,257.855 227.97,256.637 231.952,259.734 233.059,260.398 234.165,261.062 237.704,262.722 "
   id="polygon100" />
	<polygon
   style="fill:#e6e7e8;stroke:#6d6e71;stroke-width:0.3318"
   points="208.393,225.667 209.166,227.989 210.162,229.87 210.826,230.645 211.821,231.639 212.817,231.309 213.038,230.645 212.153,230.202 211.047,229.317 210.162,228.321 209.056,226.883 "
   id="polygon102" />
	<path
   style="fill:#e6e7e8;stroke:#6d6e71;stroke-width:0.3318"
   d="m 206.069,273.893 c -0.773,0.221 -1.658,3.207 -5.862,2.986 -4.203,-0.221 -7.964,-0.111 -9.402,0.554 -1.327,0.664 -4.977,-0.775 -6.857,6.194 -1.769,6.858 -3.098,7.633 -1.438,9.29 0,0 1.438,2.323 1.327,2.876 -0.111,0.664 -0.221,1.66 0.332,1.217 0.664,-0.442 3.65,-2.654 2.986,-3.429 -0.552,-0.775 -1.658,-1.328 -1.547,-2.765 0,-1.328 -0.111,-1.328 -0.443,-1.881 -0.221,-0.663 1.328,-3.097 1.328,-3.097 0,0 5.862,-4.977 8.295,-4.092 2.545,0.884 10.84,1.659 11.615,1.99 0.663,0.443 3.982,-2.986 4.424,-3.097 0.552,-0.22 -2.987,-7.3 -4.758,-6.746 z"
   id="path104" />
	<path
   style="fill:#969495;stroke:#6d6e71;stroke-width:0.3318"
   d="m 176.094,265.707 c -0.442,0 -0.995,0.221 -1.439,1.439 -0.442,1.107 -0.884,1.991 -0.884,2.986 0,0.553 3.318,0.553 5.199,-0.553 0.885,-0.663 0.553,-1.438 0.553,-2.544 -0.11,-1.107 0.553,-0.443 0.111,-1.328 -0.332,-0.663 -3.54,0 -3.54,0 z"
   id="path106" />
	<path
   style="fill:#969495;stroke:#6d6e71;stroke-width:0.3318"
   d="m 184.5,296.347 c -0.442,0.332 -0.774,0.774 -0.442,1.991 0.332,1.217 0.442,2.212 0.996,2.986 0.332,0.443 3.097,-1.438 3.983,-3.429 0.442,-0.995 -0.333,-1.437 -0.997,-2.322 -0.664,-0.884 0.222,-0.773 -0.553,-1.217 -0.775,-0.332 -2.987,1.991 -2.987,1.991 z"
   id="path108" />
	<path
   style="fill:#969495;stroke:#6d6e71;stroke-width:0.3318"
   d="m 212.042,343.909 c -0.553,0 -1.217,0.111 -1.881,1.217 -0.664,1.106 -1.438,1.769 -1.659,2.765 -0.11,0.664 3.761,1.217 6.085,0.332 1.105,-0.442 0.884,-1.328 0.995,-2.434 0.221,-0.994 0.773,-0.331 0.442,-1.216 -0.221,-0.664 -3.982,-0.664 -3.982,-0.664 z"
   id="path110" />
	<path
   style="fill:#969495;stroke:#6d6e71;stroke-width:0.3318"
   d="m 234.606,351.1 c -0.441,0 -1.216,0.111 -1.88,1.216 -0.664,0.996 -1.328,1.771 -1.549,2.765 -0.11,0.553 3.762,1.107 6.083,0.333 0.996,-0.443 0.665,-1.327 0.885,-2.434 0.111,-1.105 0.775,-0.332 0.443,-1.216 -0.331,-0.775 -3.982,-0.664 -3.982,-0.664 z"
   id="path112" />
	<polygon
   style="fill:#e6e7e8;stroke:#6d6e71;stroke-width:0.3318"
   points="233.943,243.475 237.373,245.798 226.644,241.483 236.819,248.01 224.541,241.262 224.099,240.378 223.435,238.829 222.218,236.95 224.21,237.612 225.647,237.944 229.076,239.272 234.606,242.258 225.426,239.604 "
   id="polygon114" />
	<path
   style="fill:#e6e7e8;stroke:#6d6e71;stroke-width:0.3318"
   d="m 202.751,251.771 c 0,0 1.106,-0.221 0.885,-0.885 -0.222,-0.995 0.442,-1.437 1.438,-1.326 0.552,0.109 1.327,-0.775 2.654,-0.886 0.884,-0.111 3.207,1.217 5.088,-0.663 1.548,-1.548 -1.217,7.854 -5.531,14.932 -2.986,4.756 -1.328,9.623 -0.884,10.508 1.328,2.654 2.322,5.862 2.543,6.748 0.222,0.884 2.987,11.945 12.388,19.025 0,0 0.111,2.212 -1.327,3.097 -1.881,1.217 -3.871,3.54 -4.093,6.083 -0.222,2.434 0.333,8.186 4.204,13.495 0,0 3.54,3.429 3.65,3.982 0,0 -1.771,7.3 -4.093,10.397 0,0 -1.991,2.435 -2.434,2.655 -0.442,0.333 -0.775,1.106 -0.995,1.438 -0.111,0.333 -1.548,2.212 -2.545,2.434 -0.884,0.221 -3.318,1.328 -2.985,1.659 0.331,0.333 3.871,0.664 5.087,0.443 1.328,-0.333 1.66,-0.222 1.881,-0.111 0,0 0.884,-0.111 0.884,-1.439 0.111,-1.327 1.549,-2.987 1.881,-3.65 0.442,-0.774 5.309,-7.632 5.641,-8.185 0.332,-0.664 1.547,-2.876 2.102,-3.54 0.553,-0.664 2.544,-3.539 2.544,-4.314 -0.111,-0.885 -0.443,-0.995 -0.886,-1.438 -0.331,-0.442 -2.213,-2.544 -2.213,-3.54 -0.111,-1.106 0.111,-2.876 1.66,-3.318 0.885,-0.222 0.995,-0.222 0.995,0.222 0,0 0.553,3.982 1.217,6.083 0.775,2.101 2.434,3.429 4.978,4.756 2.102,1.216 5.087,5.31 4.867,6.747 0,0.664 -0.332,2.212 -0.332,2.655 -0.111,0.441 -2.987,10.508 -3.429,11.171 -0.552,0.775 -1.105,1.106 -1.327,1.991 -0.111,0.885 -1.881,1.659 -2.435,1.88 -0.552,0.333 -0.441,0.775 0.111,0.886 0.552,0.221 5.199,0.221 5.419,-0.111 0.222,-0.332 0.333,-0.886 0.554,-1.106 0.221,-0.111 0.994,-0.554 0.994,-1.328 0,-0.664 0.443,-3.43 1.107,-4.757 0.553,-1.217 3.65,-9.07 3.761,-10.397 0.111,-0.553 0,-1.105 0.443,-1.769 0.553,-0.553 0.995,-2.435 0.553,-3.318 -0.443,-0.775 -3.982,-3.208 -4.867,-6.527 0,0 -0.111,-4.203 0.774,-5.753 0.664,-0.995 1.106,-1.991 2.101,-2.986 1.106,-1.328 1.328,-1.548 2.433,-2.544 0.996,-1.105 1.771,-1.769 1.88,-2.433 0.443,-1.992 0.333,-0.664 0.333,-2.765 0,-0.886 -1.106,-5.31 -1.217,-6.195 -0.222,-0.995 -0.443,-6.083 -2.102,-7.742 -1.66,-1.659 -3.318,-4.093 -3.429,-4.424 -0.111,-0.222 -5.089,-6.858 -5.974,-8.186 -0.774,-1.217 -5.088,-8.849 -5.862,-13.273 -0.774,-4.313 -2.876,-7.3 -2.876,-8.849 -0.111,-1.769 -0.222,-8.738 -0.664,-8.96 -0.552,-0.22 -2.101,-7.189 -5.088,-11.06 0,0 -1.216,-2.434 -2.765,-3.651 0,0 -1.99,-1.328 -5.088,-2.433 -0.553,-0.222 -3.097,0 -6.747,1.327 -0.222,0.111 -0.664,0.886 -2.987,1.66 -0.442,0.109 -1.217,0.883 -1.217,2.986 0,0 -3.429,1.327 -5.198,4.646 -1.329,2.322 -3.43,1.659 -3.761,2.433 -0.222,0.553 -0.111,0.996 -0.222,1.991 0,0.554 -0.442,1.217 -0.332,2.212 0.221,1.107 1.77,2.323 2.765,2.434 0.331,0 1.77,-0.995 1.77,-1.326 0.111,-0.554 1.77,-2.213 1.879,-1.771 0.111,0.222 0.665,0.553 0.554,1.107 -0.111,0.221 -0.996,0.332 -1.107,0.664 -0.332,0.663 -3.208,1.547 -1.658,1.99 0.331,0.111 0.995,-0.222 1.658,-0.222 1.446,0.112 2.883,0.665 2.994,0.444 z"
   id="path116" />
	<polygon
   style="fill:none;stroke:#6d6e71;stroke-width:0.3318"
   points="196.888,245.245 197.221,245.356 197.442,245.576 197.442,245.909 197.221,246.573 197.884,246.02 198.106,245.576 198.217,245.023 197.995,244.581 197.552,244.249 197.11,244.249 196.778,244.47 196.446,244.802 196.114,245.245 195.893,245.909 195.893,247.125 196.004,246.351 196.114,245.909 196.224,245.466 196.557,245.245 "
   id="polygon118" />
	<polygon
   style="fill:none;stroke:#6d6e71;stroke-width:0.3318"
   points="206.512,238.719 205.185,239.604 205.626,238.829 205.958,238.276 206.18,237.833 206.069,237.17 206.069,237.06 206.18,236.839 206.954,236.728 207.84,237.06 209.498,237.723 207.618,238.055 "
   id="polygon120" />
	<polygon
   style="fill:none;stroke:#bcbec0;stroke-width:0.1105"
   points="200.649,244.028 200.428,244.249 200.097,244.692 200.207,245.134 200.539,245.466 201.092,246.02 201.977,246.684 202.198,247.125 202.198,248.01 201.755,249.005 200.76,249.78 200.097,250.002 199.101,250.222 198.438,250.443 197.884,250.665 197.663,250.997 197.773,251.328 198.217,251.328 199.653,251.106 202.861,251.439 203.304,249.669 206.401,248.674 207.286,248.452 208.061,248.452 209.719,248.452 207.286,248.121 205.958,247.457 205.295,246.573 204.964,245.466 204.742,244.47 204.853,243.697 204.964,242.812 205.406,241.816 205.737,240.931 206.29,239.382 204.742,240.598 202.64,242.48 201.977,243.033 201.092,243.586 "
   id="polygon122" />
	<polygon
   style="fill:none;stroke:#a7a9ac;stroke-width:0.1105"
   points="215.139,241.152 215.028,242.48 214.918,243.697 214.365,245.134 213.591,245.909 212.817,246.573 211.932,246.903 211.047,247.125 209.387,247.235 208.061,247.125 207.176,246.903 206.512,246.462 206.18,246.02 205.958,245.576 205.516,245.466 205.295,245.687 205.516,246.129 205.737,246.794 206.401,247.346 207.176,247.678 208.171,248.01 209.056,248.121 209.83,248.231 210.716,248.121 211.489,247.899 212.595,247.567 213.591,247.014 214.254,246.351 214.808,245.687 215.249,244.692 215.471,243.364 215.471,242.258 215.36,240.82 215.139,239.715 215.692,239.272 216.024,239.051 216.688,238.94 216.246,238.719 215.692,238.719 215.028,239.051 214.808,239.161 214.918,239.493 "
   id="polygon124" />
	<g
   id="g128">
		<path
   style="fill:none;stroke:#6d6e71;stroke-width:0.3318"
   d="m 230.183,315.261 c -0.222,-1.88 -0.332,-3.982 0,-5.751 0.663,-1.992 1.105,-4.978 0.11,-6.969"
   id="path126" />
	</g>
	<g
   id="g132">
		<line
   style="fill:none;stroke:#6d6e71;stroke-width:0.3318"
   x1="220.67"
   y1="298.66901"
   x2="226.533"
   y2="302.32001"
   id="line130" />
	</g>
	<g
   id="g136">
		<path
   style="fill:none;stroke:#6d6e71;stroke-width:0.3318"
   d="m 209.056,281.968 c 0.774,-0.553 1.438,-1.106 2.102,-1.66 0.663,-0.442 2.654,-1.106 4.092,-1.106"
   id="path134" />
	</g>
	<g
   id="g140">
		<line
   style="fill:none;stroke:#6d6e71;stroke-width:0.3318"
   x1="205.51601"
   y1="274.33499"
   x2="207.065"
   y2="272.233"
   id="line138" />
	</g>
	<g
   id="g144">
		<polyline
   style="fill:none;stroke:#e6e7e8;stroke-width:0.3318"
   points="209.277,281.415 208.061,277.322 206.512,273.45     206.18,273.893   "
   id="polyline142" />
	</g>
</g><path
     style="fill:#fff685"
     d="m 199.653,71.033 v -5.752 c 0.774,0.553 1.218,1.105 1.549,1.327 0.332,0.333 0.443,0.775 0.553,1.217 0.885,-0.331 1.548,-0.995 2.101,-1.769 0.664,-0.774 0.885,-1.548 0.996,-2.323 0,-0.22 0,-0.331 0,-0.553 0,0 -0.111,-0.222 -0.111,-0.442 -0.222,-0.774 -0.885,-1.659 -2.102,-2.876 -0.222,-0.111 -0.885,-0.773 -2.102,-1.879 -0.332,-0.222 -0.664,-0.443 -0.885,-0.775 v -5.862 c 0,0.111 0.111,0.221 0.333,0.331 0.442,0.333 0.775,0.665 0.996,0.776 0.221,0.221 0.884,0.663 1.879,1.326 1.328,0.885 2.213,1.771 2.876,2.544 0.885,1.106 1.328,2.434 1.548,3.871 0.111,1.329 0,2.544 -0.442,3.65 -0.222,0.886 -0.886,1.88 -1.659,2.987 -0.11,0.111 -0.996,1.217 -2.655,3.207 -0.774,0.996 -1.327,1.549 -1.658,1.549 -0.222,0 -0.554,-0.111 -0.885,-0.332 -0.11,-10e-4 -0.221,-0.111 -0.332,-0.222 z m 21.902,-2.655 -3.318,-14.047 c -1.106,1.769 -1.881,3.318 -2.323,4.535 -0.442,1.438 -0.664,2.987 -0.664,4.424 0,0.553 0.111,1.328 0.222,2.323 0.221,1.106 0.221,1.77 0.221,2.212 0,0.222 0,0.442 0,0.553 0,0.221 0.111,0.332 0.111,0.553 0,0.111 0,0.331 -0.111,0.442 0,0.111 0,0.222 0,0.222 -0.11,0.111 -0.221,0.222 -0.331,0.222 -0.111,0.11 -0.333,0.11 -0.553,0.11 -0.221,0 -0.442,0 -0.553,0 -0.221,0 -0.442,0 -0.664,0 -0.221,-0.11 -0.442,-0.11 -0.553,-0.11 -0.111,0 -0.331,0 -0.442,0 -0.222,0.11 -0.332,0.11 -0.553,0.221 -0.111,0 -0.332,0 -0.442,0 -0.331,0 -0.553,-0.111 -0.774,-0.331 -0.11,-0.333 -0.221,-0.774 -0.221,-1.659 0,-1.328 0.111,-2.654 0.442,-3.761 0.333,-0.995 0.885,-2.101 1.548,-3.208 0.332,-0.553 1.106,-1.66 2.103,-3.096 0.994,-1.438 1.658,-2.433 1.99,-3.098 0.553,-0.996 0.775,-1.881 0.775,-2.765 0,-0.222 0,-0.443 0,-0.664 h -2.102 v -1.217 l 7.854,-0.111 0.11,1.106 -1.548,0.111 3.872,16.15 2.654,-16.371 -1.216,0.111 v -1.217 l 7.41,-0.111 v 1.107 l -1.769,0.11 4.093,16.924 1.77,-0.111 v 1.217 l -7.301,0.11 v -1.105 h 1.217 l -3.429,-14.49 -2.322,14.6 h 1.438 v 1.106 l -8.075,0.222 -0.111,-1.217 h 1.545 z m 37.276,-9.291 -7.189,-0.775 0.111,-1.106 1.217,0.11 c 0.111,-1.879 0,-3.207 -0.553,-4.093 -0.443,-0.663 -1.107,-0.994 -1.992,-1.105 -0.884,-0.111 -1.659,0.222 -2.323,0.995 -0.775,0.885 -1.327,2.434 -1.548,4.535 -0.111,1.217 -0.111,2.323 -0.111,3.318 0,0.775 0.222,1.88 0.442,3.54 0.221,1.659 0.221,3.098 0.221,4.092 -0.111,0.223 -0.111,0.443 -0.221,0.664 -0.11,0.222 -0.11,0.443 -0.221,0.443 l -0.111,0.442 c 0.222,0.111 0.332,0.221 0.663,0.221 0.996,0.111 2.102,-0.553 3.208,-1.88 0.995,-1.328 1.659,-2.766 1.881,-4.424 0,-0.333 0,-0.553 0,-0.664 l -1.217,-0.222 0.11,-1.106 7.301,0.773 -0.222,1.107 -1.106,-0.111 c -0.222,2.212 -1.438,4.093 -3.65,5.53 -2.102,1.328 -4.203,1.881 -6.415,1.66 -0.552,0 -0.995,-0.111 -1.216,-0.222 -0.222,0 -0.442,-0.111 -0.775,-0.332 v -0.332 c 0.111,-0.775 0.111,-1.327 0,-1.77 -0.221,-0.773 -0.774,-1.881 -1.548,-3.208 -0.995,-1.548 -1.659,-2.876 -1.88,-3.871 -0.222,-0.774 -0.222,-1.66 -0.111,-2.655 0.222,-2.544 1.328,-4.645 3.097,-5.972 1.77,-1.438 3.761,-1.992 6.194,-1.659 2.543,0.221 4.425,1.217 5.641,2.875 0.774,0.996 1.217,2.323 1.328,3.872 l 1.106,0.111 z m 9.18,3.207 0.995,0.221 0.553,-0.663 0.553,-0.886 0.774,-1.106 c 1.548,-1.99 2.544,-3.207 2.876,-3.539 1.217,-1.106 2.434,-1.548 3.65,-1.327 0.442,0.111 0.885,0.221 1.216,0.442 0.442,0.111 0.775,0.331 1.107,0.552 -0.443,0.775 -0.774,1.218 -0.885,1.328 0,0.111 -0.111,0.443 -0.222,0.886 -0.111,0.442 -0.222,0.664 -0.222,0.885 -0.109,0.221 -0.109,0.331 -0.109,0.441 l -0.553,-0.111 -0.775,-0.552 c -0.22,-0.111 -0.442,-0.222 -0.664,-0.332 -0.221,-0.111 -0.442,-0.111 -0.773,-0.222 -1.106,-0.221 -2.876,1.327 -5.531,4.756 2.323,0.885 3.872,1.991 4.757,3.318 1.327,1.88 1.658,4.203 1.105,7.301 l 1.66,0.222 -0.222,1.216 -7.411,-1.437 0.221,-1.106 1.107,0.11 c 0.442,-2.654 0.553,-4.534 0.221,-5.751 -0.442,-1.659 -1.659,-2.876 -3.65,-3.65 l -1.549,8.518 1.659,0.332 -0.221,1.106 -8.186,-1.548 0.221,-1.107 2.213,0.443 3.207,-16.813 -2.212,-0.443 0.221,-1.105 8.296,1.659 -0.221,1.106 -1.882,-0.331 z m -88.709,10.619 -3.319,-16.703 -1.217,0.222 c -1.106,0.222 -1.769,0.553 -1.99,0.774 -0.442,0.553 -0.664,1.881 -0.775,3.982 0,0.222 0,0.553 0,0.774 -0.111,0.442 -0.331,0.664 -0.664,0.664 -0.332,0.111 -0.553,0 -0.664,-0.222 -0.221,-0.22 -0.331,-0.552 -0.331,-0.773 -0.111,-0.442 -0.222,-0.774 -0.332,-1.217 -0.222,-0.332 -0.442,-0.664 -0.553,-0.996 -0.222,-0.331 -0.443,-0.663 -0.885,-1.216 -0.222,-0.442 -0.442,-0.664 -0.442,-0.886 -0.111,-0.332 0,-0.553 0.111,-0.773 0.221,-0.333 0.442,-0.443 0.885,-0.554 0.443,0 0.995,0 1.659,0 0.553,0 1.217,-0.111 1.992,-0.332 l 0.995,-0.109 8.075,-1.66 0.996,-0.221 c 0.884,-0.111 1.547,-0.332 1.991,-0.443 0.553,-0.221 0.995,-0.441 1.549,-0.663 0.33,-0.11 0.663,0 0.994,0.111 0.222,0.221 0.332,0.442 0.442,0.663 0,0.222 0,0.442 -0.11,0.775 -0.111,0.553 -0.222,1.106 -0.332,1.659 0,0.331 -0.111,0.775 -0.111,1.217 0,0.553 0,0.886 0.111,1.217 0.111,0.442 0.111,0.664 0.111,0.775 -0.111,0.331 -0.333,0.552 -0.664,0.663 -0.331,0 -0.664,-0.222 -0.884,-0.774 -0.111,-0.222 -0.332,-0.664 -0.664,-1.328 -0.664,-1.217 -1.217,-1.99 -1.77,-2.323 -0.443,-0.221 -0.995,-0.331 -1.659,-0.11 l -0.553,0.11 -1.107,0.222 3.319,16.702 2.212,-0.442 0.222,1.105 -8.739,1.771 -0.221,-1.218 z m 20.351,-21.569 v 5.862 c -0.441,-0.333 -0.773,-0.553 -1.105,-0.885 -0.553,-0.553 -0.997,-1.106 -1.328,-1.659 -0.886,0.222 -1.659,0.775 -2.212,1.659 -0.553,0.885 -0.774,1.77 -0.664,2.766 0.111,0.884 0.553,1.769 1.438,2.765 0.773,0.884 1.879,1.879 3.429,3.098 0.11,0.109 0.221,0.22 0.441,0.331 v 5.752 c -0.441,-0.222 -1.105,-0.664 -1.88,-1.217 -1.328,-0.885 -2.101,-1.438 -2.433,-1.659 -0.885,-0.774 -1.549,-1.549 -2.102,-2.323 -0.663,-0.995 -0.996,-2.212 -1.217,-3.541 -0.221,-1.88 0.221,-3.871 1.327,-5.751 0.774,-1.217 1.77,-2.434 3.097,-3.761 0.222,-0.331 0.442,-0.553 0.775,-0.774 0.111,-0.111 0.221,-0.222 0.331,-0.442 0.111,-0.221 0.333,-0.443 0.554,-0.553 0.221,-0.111 0.442,-0.111 0.553,-0.222 0.221,0 0.331,0.111 0.553,0.222 0.112,10e-4 0.223,0.111 0.443,0.332 z"
     id="path148" /><path
     style="fill:#fff685;stroke:#fff685;stroke-width:0.3318"
     d="m 165.143,72.25 c 1.881,0 3.54,-1.549 3.54,-3.54 0,-1.88 -1.659,-3.428 -3.54,-3.428 -1.99,0 -3.54,1.548 -3.54,3.428 0.001,1.991 1.55,3.54 3.54,3.54 z"
     id="path150" /><path
     style="fill:#fff685;stroke:#fff685;stroke-width:0.3318"
     d="m 283.829,70.922 c 1.88,0 3.429,-1.549 3.429,-3.54 0,-1.881 -1.549,-3.429 -3.429,-3.429 -1.991,0 -3.54,1.548 -3.54,3.429 0.001,1.991 1.549,3.54 3.54,3.54 z"
     id="path152" /><path
     style="fill:#ffffff"
     d="m 296.439,394.569 2.101,-1.547 c 0.664,0.773 1.328,1.327 2.103,1.658 0.772,0.332 1.658,0.332 2.654,0.222 0.994,-0.111 1.99,-0.553 2.986,-1.217 0.885,-0.553 1.659,-1.217 2.101,-1.881 0.554,-0.664 0.775,-1.438 0.885,-2.102 0,-0.664 -0.11,-1.217 -0.553,-1.77 -0.332,-0.553 -0.774,-0.995 -1.328,-1.216 -0.663,-0.111 -1.327,-0.111 -2.323,0 -0.553,0.11 -1.769,0.552 -3.651,1.216 -1.879,0.664 -3.207,0.995 -4.092,0.995 -1.106,0.111 -2.102,0 -2.875,-0.331 -0.885,-0.442 -1.548,-0.996 -2.103,-1.879 -0.553,-0.886 -0.773,-1.882 -0.773,-2.987 0,-0.996 0.331,-2.102 0.995,-3.098 0.774,-0.995 1.66,-1.991 2.876,-2.655 1.328,-0.883 2.654,-1.438 3.871,-1.658 1.218,-0.221 2.434,-0.111 3.539,0.442 0.997,0.442 1.881,1.216 2.544,2.212 l -2.101,1.549 c -0.775,-0.996 -1.771,-1.549 -2.765,-1.66 -1.107,-0.222 -2.324,0.221 -3.65,1.106 -1.438,0.884 -2.323,1.77 -2.543,2.655 -0.332,0.995 -0.332,1.769 0.22,2.544 0.331,0.664 0.885,0.996 1.659,1.106 0.664,0.111 2.102,-0.221 4.314,-0.995 2.101,-0.775 3.649,-1.216 4.645,-1.327 1.328,-0.222 2.433,-0.111 3.318,0.33 0.996,0.332 1.771,0.996 2.434,1.991 0.553,0.884 0.885,1.991 0.885,3.208 0,1.105 -0.442,2.212 -1.107,3.318 -0.663,1.105 -1.659,2.102 -2.986,2.876 -1.547,1.105 -2.986,1.658 -4.423,1.88 -1.328,0.222 -2.654,0.111 -3.872,-0.442 -1.216,-0.551 -2.212,-1.436 -2.985,-2.543 z"
     id="path154" /><polygon
     style="fill:#ffffff"
     points="282.611,387.158 284.825,385.61 296.77,402.865 294.448,404.414 "
     id="polygon156" /><polygon
     style="fill:#ffffff"
     points="254.959,415.254 264.693,409.06 266.02,411.162 256.287,417.355 260.158,423.328 270.887,416.47 272.214,418.571 259.052,426.868 247.88,409.28 260.601,401.206 261.928,403.197 251.53,409.834 "
     id="polygon158" /><polygon
     style="fill:#ffffff"
     points="245.226,409.06 252.194,428.858 249.54,429.744 233.832,417.909 239.253,433.394 236.819,434.278 229.851,414.59 232.505,413.705 248.212,425.429 242.793,409.944 "
     id="polygon160" /><polygon
     style="fill:#ffffff"
     points="215.582,422.775 227.085,423.439 226.975,425.873 215.36,425.208 214.918,432.287 227.748,433.062 227.638,435.496 212.042,434.611 213.259,413.705 228.413,414.59 228.192,417.134 215.914,416.359 "
     id="polygon162" /><path
     style="fill:#ffffff"
     d="m 198.217,421.78 0.995,-2.213 7.964,3.872 -3.319,6.969 c -1.659,0.333 -3.318,0.553 -4.867,0.333 -1.548,-0.111 -2.986,-0.443 -4.313,-1.107 -1.881,-0.885 -3.319,-2.102 -4.536,-3.65 -1.105,-1.547 -1.658,-3.208 -1.769,-5.087 0,-1.881 0.442,-3.761 1.327,-5.53 0.885,-1.881 2.103,-3.43 3.54,-4.646 1.548,-1.217 3.207,-1.88 5.088,-1.88 1.77,-0.111 3.65,0.332 5.53,1.216 1.328,0.664 2.434,1.439 3.319,2.434 0.885,0.884 1.438,1.991 1.769,3.096 0.222,0.997 0.222,2.324 -0.111,3.762 l -2.544,-0.442 c 0.222,-1.106 0.222,-2.102 0,-2.766 -0.111,-0.773 -0.553,-1.547 -1.106,-2.211 -0.664,-0.775 -1.438,-1.328 -2.434,-1.77 -1.106,-0.553 -2.212,-0.885 -3.208,-0.885 -0.995,0 -1.881,0.11 -2.655,0.443 -0.774,0.331 -1.438,0.663 -1.991,1.216 -1.106,0.997 -1.88,2.103 -2.543,3.54 -0.885,1.66 -1.217,3.207 -1.217,4.535 0.111,1.438 0.553,2.655 1.328,3.761 0.884,1.107 1.88,1.88 3.097,2.544 1.106,0.443 2.323,0.774 3.54,0.885 1.216,0.111 2.212,0 2.987,-0.222 l 1.659,-3.538 z"
     id="path164" /><polygon
     style="fill:#ffffff"
     points="185.938,399.105 188.261,400.542 177.089,418.24 174.766,416.691 "
     id="polygon166" /><path
     style="fill:#ffffff"
     d="m 178.195,394.459 2.212,1.548 -6.636,10.065 c -1.106,1.66 -2.212,2.988 -3.319,3.762 -1.105,0.773 -2.322,1.106 -3.76,1.106 -1.549,-0.111 -3.097,-0.664 -4.756,-1.77 -1.659,-1.106 -2.765,-2.212 -3.429,-3.429 -0.664,-1.328 -0.885,-2.655 -0.664,-3.982 0.332,-1.328 0.996,-2.987 2.213,-4.757 l 6.748,-10.065 2.211,1.438 -6.636,10.066 c -0.997,1.548 -1.548,2.765 -1.77,3.65 -0.221,0.884 -0.11,1.769 0.331,2.654 0.442,0.775 1.217,1.548 2.213,2.212 1.658,1.106 3.097,1.548 4.313,1.217 1.217,-0.222 2.544,-1.549 3.982,-3.65 z"
     id="path168" /><path
     style="fill:#ffffff"
     d="m 140.92,385.61 2.212,1.328 c -0.443,0.995 -0.775,1.77 -0.775,2.655 -0.111,0.773 0.221,1.658 0.664,2.543 0.553,0.885 1.328,1.659 2.212,2.433 0.885,0.554 1.77,0.996 2.544,1.218 0.885,0.221 1.548,0.221 2.212,0 0.664,-0.222 1.217,-0.554 1.548,-1.107 0.442,-0.442 0.553,-0.995 0.553,-1.658 0,-0.664 -0.222,-1.328 -0.774,-2.102 -0.331,-0.553 -1.106,-1.548 -2.434,-2.987 -1.216,-1.548 -2.102,-2.654 -2.433,-3.54 -0.443,-0.995 -0.664,-1.879 -0.664,-2.875 0.111,-0.885 0.442,-1.769 0.995,-2.544 0.554,-0.774 1.439,-1.437 2.434,-1.77 0.996,-0.442 2.212,-0.442 3.318,-0.11 1.217,0.221 2.434,0.772 3.54,1.658 1.217,0.885 2.212,1.88 2.876,2.986 0.664,1.106 0.995,2.213 0.885,3.429 0,1.106 -0.443,2.212 -1.107,3.207 l -2.212,-1.328 c 0.664,-1.216 0.774,-2.322 0.554,-3.317 -0.221,-0.996 -0.996,-1.992 -2.324,-2.988 -1.327,-0.994 -2.543,-1.438 -3.539,-1.438 -0.886,0.111 -1.66,0.443 -2.213,1.107 -0.442,0.663 -0.553,1.327 -0.442,1.991 0.111,0.775 0.995,1.99 2.544,3.65 1.438,1.769 2.434,3.097 2.876,3.871 0.663,1.105 0.995,2.212 0.884,3.318 0,0.995 -0.331,1.99 -0.995,2.876 -0.664,0.884 -1.549,1.548 -2.654,1.99 -1.106,0.443 -2.324,0.443 -3.54,0.222 -1.328,-0.332 -2.544,-0.885 -3.761,-1.769 -1.548,-1.107 -2.654,-2.213 -3.318,-3.43 -0.775,-1.217 -0.996,-2.434 -0.996,-3.76 0.112,-1.325 0.555,-2.652 1.33,-3.759 z"
     id="path170" /><g
     id="g176">
	<path
   style="fill:#ffffff"
   d="m 275.753,416.028 -11.613,-17.255 7.743,-5.199 c 1.548,-0.996 2.765,-1.659 3.87,-1.88 0.997,-0.222 1.992,-0.111 2.987,0.332 0.996,0.442 1.881,1.217 2.434,2.101 0.885,1.217 1.217,2.543 0.885,3.982 -0.221,1.328 -1.105,2.655 -2.543,4.093 0.774,-0.11 1.438,-0.221 1.991,-0.11 0.995,0.221 2.212,0.553 3.429,0.995 l 6.194,2.766 -2.876,1.88 -4.756,-1.991 c -1.328,-0.664 -2.433,-1.106 -3.318,-1.328 -0.774,-0.221 -1.438,-0.442 -1.88,-0.332 -0.553,0 -0.996,0 -1.328,0.221 -0.331,0.111 -0.773,0.332 -1.327,0.774 l -2.655,1.77 5.089,7.743 z"
   id="path172" />
	<path
   style="fill:#2e3192"
   d="m 271.551,404.856 4.977,-3.319 c 1.107,-0.664 1.77,-1.328 2.212,-1.991 0.442,-0.553 0.664,-1.217 0.664,-1.991 0,-0.664 -0.222,-1.216 -0.553,-1.769 -0.553,-0.885 -1.327,-1.328 -2.212,-1.439 -0.996,-0.111 -2.102,0.221 -3.429,1.106 l -5.419,3.651 z"
   id="path174" />
</g><polygon
     style="fill:#00a651"
     points="259.052,209.96 249.097,209.96 255.292,181.312 238.699,209.96 228.855,209.96 224.762,180.758 218.457,209.96 208.613,209.96 217.905,166.158 232.395,166.158 236.93,196.465 254.295,166.158 268.455,166.158 "
     id="polygon178" /><polygon
     style="fill:#00a651"
     points="181.514,146.58 178.97,158.747 161.493,158.747 150.874,209.075 138.486,209.075 148.994,158.747 131.297,158.747 134.062,146.58 "
     id="polygon180" /><g
     id="g186">
	<path
   style="fill:#00a651"
   d="m 273.874,166.042 h 11.724 l -3.871,18.14 h 13.605 c 4.756,0 8.407,0.885 10.841,2.766 2.322,1.769 3.539,4.534 3.539,8.185 0,4.314 -1.438,7.854 -4.535,10.619 -2.987,2.765 -7.411,4.093 -13.163,4.093 h -27.542 z"
   id="path182" />
	<path
   style="fill:#ffffff"
   d="m 277.856,202.432 h 8.406 c 4.425,0 7.412,-0.442 9.07,-1.438 1.66,-0.994 2.434,-2.544 2.434,-4.534 0,-1.88 -0.773,-3.208 -2.323,-3.982 -1.548,-0.774 -4.424,-1.107 -8.96,-1.107 h -6.305 z"
   id="path184" />
</g><g
     id="g222">
	<path
   style="fill:#ffffff;stroke:#000000;stroke-width:0.6637"
   d="m 197.552,181.865 0.665,-7.08 4.092,-2.323 v 0 c -2.876,-3.761 -6.968,-6.636 -11.614,-8.075 v 0 l 0.554,5.531 -7.079,2.433 -6.526,-2.876 -0.885,-5.088 v 0 c -4.756,1.439 -8.738,4.314 -11.724,8.186 v 0 l 3.872,2.101 0.664,7.19 -4.536,5.751 -4.867,-2.102 v 0 c 0,0.443 -0.111,0.996 -0.111,1.438 0,5.089 1.659,9.845 4.535,13.717 v 0 l 3.097,-4.536 6.858,2.545 3.208,6.415 -2.212,3.982 v 0 c 2.543,0.995 5.309,1.438 8.185,1.438 2.986,0 5.863,-0.554 8.518,-1.549 v 0 l -2.765,-4.203 4.203,-6.858 6.636,-1.992 2.655,4.757 v 0 c 2.765,-3.872 4.313,-8.628 4.313,-13.717 0,-0.552 0,-0.994 0,-1.547 v 0 l -5.198,2.322 z"
   id="path188" />
	<path
   style="stroke:#000000;stroke-width:0.6637"
   d="m 169.568,181.865 -0.664,-7.19 -3.872,-2.101 v 0 c -2.765,3.54 -4.534,8.074 -4.867,12.941 v 0 l 4.867,2.102 z"
   id="path190" />
	<path
   style="stroke:#000000;stroke-width:0.6637"
   d="m 198.217,174.786 -0.665,7.08 4.536,5.861 5.198,-2.322 v 0 c -0.331,-4.867 -2.101,-9.292 -4.977,-12.942 v 0 z"
   id="path192" />
	<path
   style="stroke:#000000;stroke-width:0.6637"
   d="m 193.681,197.904 -4.203,6.858 2.765,4.203 v 0 c 4.313,-1.659 8.074,-4.645 10.729,-8.296 v 0 l -2.655,-4.757 z"
   id="path194" />
	<path
   style="stroke:#000000;stroke-width:0.6637"
   d="m 174.545,198.678 -6.858,-2.545 -3.097,4.536 v 0 c 2.654,3.871 6.525,6.858 10.951,8.406 v 0 l 2.212,-3.982 z"
   id="path196" />
	<path
   style="stroke:#000000;stroke-width:0.6637"
   d="m 184.169,172.352 7.079,-2.433 -0.554,-5.531 v 0 c -2.211,-0.663 -4.535,-1.106 -6.969,-1.106 -2.433,0 -4.756,0.443 -6.969,1.106 v 0 l 0.885,5.088 z"
   id="path198" />
	<polygon
   style="stroke:#000000;stroke-width:0.6637"
   points="184.058,177.551 175.983,184.077 178.859,192.483 187.929,192.483 191.801,184.298 "
   id="polygon200" />
	<polygon
   style="stroke:#000000;stroke-width:0.6637"
   points="167.687,196.133 165.033,187.616 "
   id="polygon202" />
	<polygon
   style="stroke:#000000;stroke-width:0.6637"
   points="168.905,174.675 177.642,169.476 "
   id="polygon204" />
	<polygon
   style="stroke:#000000;stroke-width:0.6637"
   points="198.327,175.892 191.248,169.919 "
   id="polygon206" />
	<polygon
   style="stroke:#000000;stroke-width:0.6637"
   points="200.317,195.912 202.088,187.727 "
   id="polygon208" />
	<polygon
   style="stroke:#000000;stroke-width:0.6637"
   points="177.753,205.093 189.478,204.762 "
   id="polygon210" />
	<polygon
   style="stroke:#000000;stroke-width:0.6637"
   points="193.459,198.567 187.929,191.156 "
   id="polygon212" />
	<polygon
   style="stroke:#000000;stroke-width:0.6637"
   points="197.552,181.865 191.801,184.298 "
   id="polygon214" />
	<polygon
   style="stroke:#000000;stroke-width:0.6637"
   points="184.058,171.688 184.058,177.551 "
   id="polygon216" />
	<polygon
   style="stroke:#000000;stroke-width:0.6637"
   points="169.568,181.865 175.983,184.077 "
   id="polygon218" />
	<polygon
   style="stroke:#000000;stroke-width:0.6637"
   points="174.545,198.678 178.859,192.483 "
   id="polygon220" />
</g><path
     d="m 305.619,158.083 v -1.437 h 1.77 c 0.553,0 0.885,-0.11 1.217,-0.11 0.222,-0.111 0.553,-0.222 0.774,-0.442 0.222,-0.333 0.332,-0.554 0.442,-0.885 0,-0.332 0,-0.553 -0.111,-0.663 -0.11,-0.222 -0.332,-0.333 -0.553,-0.442 -0.221,0 -0.664,-0.111 -1.107,-0.111 h -1.438 l -0.996,2.544 v -4.646 l 0.996,-2.654 h 6.305 l -0.664,1.438 h -4.425 l -0.663,1.879 h 1.438 c 0.885,0 1.549,0.111 1.991,0.222 0.443,0.221 0.664,0.442 0.885,0.885 0.222,0.443 0.222,0.885 0.111,1.438 -0.111,0.885 -0.553,1.549 -1.217,2.102 -0.774,0.552 -1.659,0.884 -2.876,0.884 h -1.879 z m 0,-8.848 z m 0,0 v 0 l -1.217,1.328 v -1.328 z m 0,2.654 v 4.646 0.11 0 1.437 h -1.217 v -3.207 z m -1.217,-2.654 v 1.328 l -5.419,6.083 c -0.553,0.664 -0.996,0.995 -1.438,1.216 -0.332,0.221 -0.664,0.332 -1.106,0.332 -0.222,0 -0.443,0 -0.554,0 v -1.548 c 0.222,0.111 0.332,0.111 0.554,0.111 0.221,0 0.442,-0.111 0.773,-0.221 0.222,0 0.663,-0.442 1.106,-0.997 l -0.885,-6.304 h 2.102 l 0.332,4.535 3.761,-4.535 z m 0,5.641 -1.216,3.207 h 1.216 z m -8.517,-4.203 0.554,-1.438 h -0.554 z m 0,-1.438 v 1.438 l -2.875,7.41 h -1.769 l 2.765,-7.41 h -2.434 l -1.77,4.645 c -0.222,0.553 -0.442,1.106 -0.775,1.549 -0.221,0.442 -0.552,0.773 -0.885,0.995 -0.332,0.221 -0.664,0.221 -1.106,0.332 v -1.659 c 0.442,-0.111 0.774,-0.553 0.996,-1.217 v -0.11 l 2.322,-5.973 z m 0,7.411 c -0.11,0 -0.11,0 -0.11,0 l -0.443,1.437 c 0.111,0 0.333,0 0.553,0.111 z m -8.848,-5.973 c 0.111,-0.111 0.332,-0.111 0.553,-0.111 h 0.221 l 0.664,-1.328 h -0.442 c -0.443,0 -0.664,0 -0.996,0.11 z m 0,-1.328 v 1.329 0 c -0.111,0.11 -0.332,0.221 -0.553,0.553 -0.553,0.884 -1.107,1.438 -1.438,1.769 -0.332,0.222 -0.663,0.442 -0.996,0.553 0.554,0.222 0.886,0.775 0.886,1.548 0,0.111 0,0.111 0.11,0.221 l 0.221,2.765 h -1.77 l -0.332,-2.765 c 0,0 0,-0.221 -0.111,-0.553 -0.111,-0.332 -0.443,-0.553 -0.885,-0.553 l -1.548,3.871 h -1.77 l 3.429,-8.848 h 1.77 l -1.439,3.76 c 0.332,0 0.664,-0.111 0.886,-0.221 0.221,-0.111 0.553,-0.554 1.107,-1.218 0.441,-0.773 0.883,-1.216 1.216,-1.548 0.221,-0.22 0.553,-0.442 0.885,-0.553 0.11,-0.11 0.221,-0.11 0.332,-0.11 z m 0,7.19 c 0,0 -0.111,0.11 -0.222,0.11 -0.11,0 -0.221,-0.11 -0.553,-0.11 l -0.553,1.548 c 0.442,0 0.774,0.111 1.106,0.111 0.111,0 0.222,0 0.222,0 z m -23.119,1.548 v -1.879 l 2.654,-6.969 h 1.66 l -1.992,5.419 5.642,-5.419 h 1.658 l -3.318,8.848 h -1.768 l 2.212,-5.53 -5.752,5.53 z m 0,-6.967 0.664,-1.881 h -0.664 z m 5.088,-4.093 h 0.886 c 0,0.331 0.11,0.553 0.221,0.664 0.11,0.111 0.332,0.221 0.554,0.221 0.442,0 0.885,-0.331 1.327,-0.884 h 0.775 c -0.222,0.553 -0.554,0.995 -0.996,1.217 -0.442,0.331 -0.885,0.441 -1.328,0.441 -0.443,0 -0.885,-0.11 -1.107,-0.441 -0.221,-0.223 -0.332,-0.665 -0.332,-1.218 z m -5.088,2.212 v 1.881 l -2.654,6.967 h -1.77 l 3.318,-8.848 z m 0,6.969 -0.664,1.879 h 0.664 z m -8.516,1.879 v -1.437 c 0.664,-0.11 1.217,-0.221 1.437,-0.442 0.332,-0.333 0.554,-0.665 0.554,-0.996 0.11,-0.222 0.11,-0.553 0,-0.663 -0.111,-0.222 -0.333,-0.333 -0.554,-0.442 -0.22,0 -0.663,-0.111 -1.216,-0.111 h -0.221 v -1.438 h 0.774 c 0.995,0 1.659,0.111 2.101,0.332 0.443,0.111 0.775,0.443 0.886,0.775 0.221,0.443 0.221,0.885 0.111,1.438 -0.111,0.885 -0.553,1.66 -1.328,2.102 -0.664,0.55 -1.548,0.772 -2.544,0.882 z m 0,-6.967 v -1.881 h 0.664 z m 0,-1.881 v 1.881 l -0.553,1.437 h 0.553 v 1.438 h -1.106 l -0.996,2.654 h 1.771 c 0.111,0 0.222,0 0.332,0 v 1.437 c -0.11,0 -0.11,0 -0.221,0 h -3.54 v -2.101 l 2.654,-6.747 h 1.106 z m -3.761,1.991 0.775,-1.991 h -0.775 z m 0,-1.991 v 1.991 l -2.544,6.857 h -1.88 l 1.549,-3.981 h -3.429 l -1.439,3.981 h -1.88 l 3.429,-8.848 h 1.769 l -1.327,3.429 h 3.429 l 1.327,-3.429 z m 0,6.747 -0.774,2.101 h 0.774 z m -13.716,2.101 v -1.437 c 0.553,-0.11 1.106,-0.221 1.438,-0.442 0.222,-0.333 0.443,-0.665 0.554,-0.996 0,-0.222 0,-0.553 -0.111,-0.663 -0.111,-0.222 -0.333,-0.333 -0.553,-0.442 -0.221,0 -0.663,-0.111 -1.107,-0.111 h -0.221 v -1.438 h 0.774 c 0.885,0 1.549,0.111 1.991,0.332 0.442,0.111 0.774,0.443 0.885,0.775 0.222,0.443 0.222,0.885 0.111,1.438 -0.111,0.885 -0.553,1.66 -1.327,2.102 -0.664,0.55 -1.549,0.772 -2.434,0.882 z m 0,-6.967 v -1.881 h 0.553 z m 0,-1.881 v 1.881 l -0.553,1.437 h 0.553 v 1.438 h -1.106 l -0.995,2.654 h 1.769 c 0.111,0 0.222,0 0.332,0 v 1.437 c -0.11,0 -0.11,0 -0.221,0 h -3.539 v -2.101 l 2.654,-6.747 h 1.106 z m -3.76,2.101 0.774,-2.101 h -0.774 z m 0,-2.101 v 2.101 l -2.544,6.747 h -1.88 l 2.876,-7.41 h -2.433 l -1.77,4.645 c -0.221,0.553 -0.553,1.106 -0.775,1.549 -0.221,0.442 -0.552,0.773 -0.883,0.995 -0.333,0.221 -0.775,0.332 -1.329,0.332 -0.11,0 -0.332,0 -0.442,0 v -1.659 c 0.222,0 0.332,0.11 0.442,0.11 0.443,0 0.885,-0.442 1.218,-1.328 v -0.11 l 2.322,-5.973 h 5.198 z m 0,6.747 -0.774,2.101 h 0.774 z m -9.182,-1.328 c 0.332,-0.552 0.553,-1.217 0.664,-1.88 0.11,-1.107 0,-1.991 -0.553,-2.655 0,-0.111 -0.111,-0.111 -0.111,-0.111 z m 0,-4.646 v 4.646 c -0.111,0.331 -0.331,0.553 -0.442,0.884 -0.663,0.775 -1.327,1.438 -2.212,1.993 -0.333,0.22 -0.774,0.331 -1.106,0.441 v -1.548 c 0.11,0 0.221,-0.111 0.442,-0.221 0.553,-0.333 0.995,-0.775 1.328,-1.438 0.442,-0.663 0.663,-1.328 0.774,-1.991 0.111,-0.665 0.111,-1.218 -0.222,-1.548 -0.331,-0.443 -0.774,-0.664 -1.328,-0.664 -0.332,0 -0.664,0.111 -0.995,0.221 v -1.548 c 0.442,-0.111 0.884,-0.111 1.438,-0.111 0.997,0 1.77,0.221 2.323,0.884 z m 0,6.527 c -0.111,0 -0.111,0 -0.111,0 l -0.663,1.548 c 0.331,0 0.552,0 0.773,0.111 v -1.659 z m -3.76,-7.3 v 1.548 c -0.553,0.222 -0.995,0.553 -1.438,1.106 -0.664,0.774 -1.107,1.659 -1.218,2.655 -0.111,0.663 0,1.105 0.222,1.548 0.332,0.331 0.774,0.553 1.438,0.553 0.221,0 0.664,0 0.995,-0.221 v 1.548 c -0.553,0.11 -0.995,0.221 -1.548,0.221 -0.774,0 -1.438,-0.221 -1.881,-0.554 -0.553,-0.331 -0.884,-0.884 -0.995,-1.437 0,-0.111 0,-0.222 -0.111,-0.333 v -1.217 c 0,0 0,0 0,-0.11 0.111,-0.442 0.332,-0.996 0.553,-1.549 0.333,-0.774 0.774,-1.549 1.327,-2.101 0.443,-0.553 1.107,-0.996 1.77,-1.328 0.333,-0.108 0.555,-0.219 0.886,-0.329 z m -4.535,0.11 0.111,-0.11 h -0.111 z m 0,-0.11 v 0.11 l -0.553,1.329 h -4.424 l -0.111,0.442 v -1.881 z m 0,5.419 v 1.217 c 0,-0.442 0,-0.774 0,-1.217 z m -5.088,3.429 v -1.437 c 0.331,-0.11 0.663,-0.11 0.884,-0.11 0.222,-0.111 0.553,-0.222 0.775,-0.442 0.222,-0.333 0.331,-0.554 0.442,-0.885 0,-0.332 0,-0.553 -0.11,-0.663 -0.11,-0.222 -0.331,-0.333 -0.553,-0.442 -0.221,0 -0.664,-0.111 -1.106,-0.111 H 211.6 v -1.438 h 0.884 c 0.886,0 1.549,0.111 1.992,0.222 0.442,0.221 0.663,0.442 0.884,0.885 0.222,0.443 0.222,0.885 0.111,1.438 -0.111,0.885 -0.553,1.549 -1.217,2.102 -0.663,0.549 -1.548,0.771 -2.654,0.881 z m 0,-8.848 v 1.881 l -0.553,1.437 h 0.553 v 1.438 h -1.106 l -0.996,2.654 h 1.771 c 0.111,0 0.221,0 0.331,0 v 1.437 c -0.111,0 -0.111,0 -0.221,0 h -3.208 v -2.875 l 2.323,-5.973 h 1.106 z m -3.429,1.438 h 0.552 l 0.554,-1.438 h -1.106 z m 0,-1.438 v 1.438 h -1.992 l -2.876,7.41 h -1.548 v -0.663 l 2.544,-6.747 h -2.544 l 0.553,-1.438 z m 0,5.973 -1.107,2.875 h 1.107 z m -6.416,-5.752 0.222,-0.221 h -0.222 z m -9.733,1.549 c 0.443,0.552 0.554,1.216 0.443,1.99 -0.111,0.333 -0.222,0.775 -0.443,1.107 z m 9.733,-1.77 h -1.77 l -3.762,4.535 -0.331,-4.535 h -2.102 l 0.886,6.304 c -0.443,0.554 -0.886,0.997 -1.107,0.997 -0.331,0.11 -0.553,0.221 -0.773,0.221 -0.221,0 -0.442,-0.111 -0.664,-0.111 l -0.11,0.111 v 1.327 c 0.221,0.111 0.443,0.111 0.774,0.111 0.442,0 0.773,-0.111 1.106,-0.332 0.442,-0.222 0.884,-0.552 1.438,-1.216 l 6.415,-7.19 z m 0,8.185 v 0.663 h -0.221 z m -12.388,-8.185 h 1.216 l -0.442,0.995 c 0.885,0 1.549,0.333 1.881,0.775 v 0 3.097 c -0.11,0.221 -0.221,0.552 -0.332,0.774 -0.442,0.553 -1.107,1.106 -1.771,1.438 -0.11,0.111 -0.33,0.222 -0.552,0.332 v -1.66 c 0.111,-0.11 0.222,-0.221 0.331,-0.331 0.553,-0.442 0.885,-0.995 0.996,-1.548 0.11,-0.774 -0.221,-1.328 -1.105,-1.328 l -0.222,0.442 z m 2.655,7.521 v 1.327 c -0.11,0 -0.221,0 -0.332,0 z m -3.208,-7.521 h 0.553 v 2.986 l -1.217,3.208 c 0.442,0 0.886,-0.111 1.217,-0.443 v 1.66 c -0.553,0.222 -1.106,0.332 -1.88,0.332 l -0.333,1.106 h -0.552 v -3.097 l 1.327,-3.207 c -0.442,0.111 -0.885,0.222 -1.327,0.553 v -1.658 c 0.552,-0.222 1.216,-0.332 1.88,-0.443 z m -2.212,8.848 h -1.217 l 0.442,-1.106 c -0.995,-0.11 -1.659,-0.442 -1.991,-0.995 -0.221,-0.443 -0.331,-1.106 -0.221,-1.77 0.11,-0.995 0.664,-1.88 1.548,-2.655 0.443,-0.33 0.884,-0.663 1.438,-0.883 v 1.658 c -0.111,0 -0.221,0.111 -0.331,0.221 -0.443,0.442 -0.775,0.996 -0.886,1.659 -0.11,0.333 0,0.664 0.222,0.885 0.221,0.221 0.441,0.332 0.775,0.442 l 0.221,-0.553 z"
     id="path224" /></g>
</svg>
