<svg height="1000" viewBox="0 0 1000 1000" width="1000" xmlns="http://www.w3.org/2000/svg"><g transform="matrix(2.3660504 0 0 2.3660504 -73.719032 -24.069831)"><path d="m 231.854 411.685 c 110.673 0 200.815 -90.142 200.815 -200.818 c 0 -110.431 -90.142 -200.694 -200.815 -200.694 c -110.433 0 -200.696 90.264 -200.696 200.694 c -.001 110.676 90.263 200.818 200.696 200.818 z" fill="#fff"/><path d="m 35.531 169.805 l 91.115 90.995 h 210.292 l 91.359 -91.359 c 2.915 13.485 4.373 27.334 4.373 41.426 c 0 110.676 -90.142 200.818 -200.815 200.818 c -110.433 0 -200.696 -90.142 -200.696 -200.818 c -.002 -13.97 1.457 -27.82 4.372 -41.062 z" fill="#2e3192"/><path d="m 33.709 179.403 l 88.563 88.805 h 220.013 l 87.956 -88.684 c 1.579 10.204 2.429 20.775 2.429 31.342 c 0 21.14 -3.281 41.549 -9.354 60.746 H 40.633 c -6.196 -19.196 -9.476 -39.605 -9.476 -60.746 c 0 -10.566 .85 -21.137 2.552 -31.463 z m 388.027 96.945 c -27.212 78.601 -102.171 135.337 -189.882 135.337 c -87.592 0 -162.427 -56.736 -189.641 -135.337 z" fill="#a9c0b1"/><path d="M 426.474 161.301 C 419.548 134.696 407.52 110.277 391.242 89.017 L 289.559 253.994 h 43.978 z" fill="#ed1c24"/><path d="M 386.14 82.822 C 369.498 62.776 349.086 46.012 325.883 33.741 l -64.995 220.253 h 19.924 z" fill="#ee3124"/><path d="M 319.323 30.339 C 293.932 17.948 265.503 10.779 235.497 10.294 v 243.7 h 17.98 z" fill="#ee3124"/><path d="m 228.087 10.294 c -29.886 .486 -58.314 7.775 -83.826 20.167 l 65.967 223.534 h 17.858 V 10.294 Z" fill="#ee3124"/><path d="M 137.7 33.863 C 114.496 46.254 94.086 63.019 77.443 83.065 l 105.208 170.93 h 19.923 z" fill="#ee3124"/><path d="m 72.463 89.381 c -16.157 21.018 -28.185 45.315 -34.988 71.678 l 93.18 92.936 h 43.248 z" fill="#ee3124"/><path d="m 33.709 179.403 l 88.563 88.805 h 220.013 l 87.956 -88.684 c 1.579 10.204 2.429 20.775 2.429 31.342 c 0 21.868 -3.522 43.005 -10.083 62.687 H 41.241 C 34.681 253.872 31.158 232.735 31.158 210.866 C 31.157 200.3 32.007 189.729 33.709 179.403 Z"/><path d="m 375.329 351.184 c -36.447 37.298 -87.35 60.502 -143.475 60.502 c -56.005 0 -106.787 -23.204 -143.355 -60.502 z" fill="#fff"/><path d="m 361.6 363.94 c -34.987 29.765 -80.303 47.745 -129.746 47.745 c -49.202 0 -94.518 -17.98 -129.627 -47.745 z" fill="#ee3124"/><path d="m 355.89 368.68 c -34.258 26.97 -77.264 43.006 -124.036 43.006 c -46.53 0 -89.658 -16.036 -123.795 -43.006 z" fill="#fff"/><path d="m 340.826 379.492 c -31.465 20.409 -68.883 32.194 -108.972 32.194 c -39.97 0 -77.387 -11.785 -108.731 -32.194 z" fill="#ee3124"/><path d="m 325.882 388.237 c -28.064 14.942 -60.013 23.448 -94.029 23.448 c -33.773 0 -65.846 -8.506 -93.91 -23.448 z" fill="#fff"/><path d="m 310.455 395.65 c -24.176 10.325 -50.783 16.036 -78.601 16.036 c -27.699 0 -54.304 -5.71 -78.481 -16.036 z" fill="#ee3124"/><path d="m 271.335 407.797 c -12.755 2.551 -25.996 3.889 -39.481 3.889 c -13.365 0 -26.606 -1.338 -39.362 -3.889 z" fill="#fff"/><path d="m 42.213 276.348 h 379.523 c .486 -1.579 1.092 -3.157 1.579 -4.735 H 40.633 c .487 1.578 .972 3.157 1.58 4.735 z" fill="#2e3192"/><g><path d="m 118.506 284.732 c 2.309 0 4.131 -1.823 4.131 -4.01 c 0 -2.308 -1.822 -4.13 -4.131 -4.13 c -2.187 0 -4.009 1.823 -4.009 4.13 c 0 2.187 1.822 4.01 4.009 4.01 z" fill="#2e3192"/><path d="m 108.422 284.732 c 2.187 0 4.009 -1.823 4.009 -4.01 c 0 -2.308 -1.822 -4.13 -4.009 -4.13 c -2.186 0 -4.009 1.823 -4.009 4.13 c 0 2.187 1.823 4.01 4.009 4.01 z" fill="#2e3192"/><path d="m 98.582 284.732 c 2.308 0 4.131 -1.823 4.131 -4.01 c 0 -2.308 -1.823 -4.13 -4.131 -4.13 c -2.187 0 -4.01 1.823 -4.01 4.13 c 0 2.187 1.824 4.01 4.01 4.01 z" fill="#2e3192"/><path d="m 88.864 284.732 c 2.187 0 4.008 -1.823 4.008 -4.01 c 0 -2.308 -1.822 -4.13 -4.008 -4.13 c -2.186 0 -4.009 1.823 -4.009 4.13 c -.001 2.187 1.823 4.01 4.009 4.01 z" fill="#2e3192"/><path d="m 78.78 284.732 c 2.187 0 4.01 -1.823 4.01 -4.01 c 0 -2.308 -1.822 -4.13 -4.01 -4.13 c -2.308 0 -4.13 1.823 -4.13 4.13 c -.001 2.187 1.821 4.01 4.13 4.01 z" fill="#2e3192"/><path d="m 68.939 284.732 c 2.309 0 4.131 -1.823 4.131 -4.01 c 0 -2.308 -1.822 -4.13 -4.131 -4.13 c -2.186 0 -4.008 1.823 -4.008 4.13 c -.001 2.187 1.821 4.01 4.008 4.01 z" fill="#2e3192"/><path d="m 59.221 284.732 c 2.188 0 4.01 -1.823 4.01 -4.01 c 0 -2.308 -1.822 -4.13 -4.01 -4.13 c -2.308 0 -4.13 1.823 -4.13 4.13 c 0 2.187 1.822 4.01 4.13 4.01 z" fill="#2e3192"/><path d="m 48.773 284.732 c 2.187 0 4.009 -1.823 4.009 -4.01 c 0 -2.308 -1.822 -4.13 -4.009 -4.13 c -2.308 0 -4.131 1.823 -4.131 4.13 c 0 2.187 1.823 4.01 4.131 4.01 z" fill="#2e3192"/><path d="m 113.525 292.872 c 1.822 0 3.28 -1.578 3.28 -3.402 c 0 -1.943 -1.457 -3.404 -3.28 -3.404 c -1.943 0 -3.401 1.46 -3.401 3.404 c -.001 1.824 1.457 3.402 3.401 3.402 z" fill="#2e3192"/><path d="m 103.32 292.872 c 1.944 0 3.402 -1.578 3.402 -3.402 c 0 -1.943 -1.458 -3.404 -3.402 -3.404 c -1.822 0 -3.28 1.46 -3.28 3.404 c 0 1.824 1.458 3.402 3.28 3.402 z" fill="#2e3192"/><path d="m 93.236 292.872 c 1.823 0 3.401 -1.578 3.401 -3.402 c 0 -1.943 -1.578 -3.404 -3.401 -3.404 c -1.822 0 -3.402 1.46 -3.402 3.404 c 0 1.824 1.581 3.402 3.402 3.402 z" fill="#2e3192"/><path d="m 83.519 292.872 c 1.822 0 3.28 -1.578 3.28 -3.402 c 0 -1.943 -1.458 -3.404 -3.28 -3.404 c -1.945 0 -3.402 1.46 -3.402 3.404 c -.001 1.824 1.457 3.402 3.402 3.402 z" fill="#2e3192"/><path d="m 73.677 292.872 c 1.823 0 3.402 -1.578 3.402 -3.402 c 0 -1.943 -1.579 -3.404 -3.402 -3.404 c -1.822 0 -3.4 1.46 -3.4 3.404 c 0 1.824 1.578 3.402 3.4 3.402 z" fill="#2e3192"/><path d="m 63.958 292.872 c 1.823 0 3.281 -1.578 3.281 -3.402 c 0 -1.943 -1.458 -3.404 -3.281 -3.404 c -1.943 0 -3.4 1.46 -3.4 3.404 c 0 1.824 1.457 3.402 3.4 3.402 z" fill="#2e3192"/><path d="m 53.754 292.872 c 1.944 0 3.401 -1.578 3.401 -3.402 c 0 -1.943 -1.458 -3.404 -3.401 -3.404 c -1.822 0 -3.28 1.46 -3.28 3.404 c 0 1.824 1.458 3.402 3.28 3.402 z" fill="#2e3192"/><path d="m 118.992 302.591 c 1.458 0 2.551 -1.094 2.551 -2.551 c 0 -1.338 -1.093 -2.551 -2.551 -2.551 c -1.337 0 -2.429 1.213 -2.429 2.551 c 0 1.456 1.092 2.551 2.429 2.551 z" fill="#2e3192"/><path d="m 108.302 302.591 c 1.337 0 2.429 -1.094 2.429 -2.551 c 0 -1.338 -1.092 -2.551 -2.429 -2.551 c -1.458 0 -2.552 1.213 -2.552 2.551 c 0 1.456 1.093 2.551 2.552 2.551 z" fill="#2e3192"/><circle cx="98.097" cy="300.04001" fill="#2e3192" r="2.551"/><path d="m 88.013 302.591 c 1.336 0 2.551 -1.094 2.551 -2.551 c 0 -1.338 -1.215 -2.551 -2.551 -2.551 c -1.336 0 -2.552 1.213 -2.552 2.551 c 0 1.456 1.217 2.551 2.552 2.551 z" fill="#2e3192"/><path d="m 77.929 302.591 c 1.338 0 2.551 -1.094 2.551 -2.551 c 0 -1.338 -1.213 -2.551 -2.551 -2.551 c -1.458 0 -2.551 1.213 -2.551 2.551 c 0 1.456 1.093 2.551 2.551 2.551 z" fill="#2e3192"/><path d="m 68.454 302.591 c 1.336 0 2.552 -1.094 2.552 -2.551 c 0 -1.338 -1.216 -2.551 -2.552 -2.551 c -1.337 0 -2.551 1.213 -2.551 2.551 c 0 1.456 1.214 2.551 2.551 2.551 z" fill="#2e3192"/><path d="m 58.369 302.591 c 1.338 0 2.552 -1.094 2.552 -2.551 c 0 -1.338 -1.214 -2.551 -2.552 -2.551 c -1.457 0 -2.55 1.213 -2.55 2.551 c 0 1.456 1.094 2.551 2.55 2.551 z" fill="#2e3192"/><path d="m 113.647 311.703 c .97 0 1.822 -.851 1.822 -1.822 c 0 -1.095 -.852 -1.945 -1.822 -1.945 c -.973 0 -1.822 .85 -1.822 1.945 c 0 .971 .849 1.822 1.822 1.822 z" fill="#2e3192"/><path d="m 102.47 311.703 c 1.092 0 1.943 -.851 1.943 -1.822 c 0 -1.095 -.851 -1.945 -1.943 -1.945 c -.972 0 -1.823 .85 -1.823 1.945 c 0 .971 .851 1.822 1.823 1.822 z" fill="#2e3192"/><path d="m 92.751 311.703 c .972 0 1.822 -.851 1.822 -1.822 c 0 -1.095 -.85 -1.945 -1.822 -1.945 c -1.093 0 -1.821 .85 -1.821 1.945 c 0 .971 .727 1.822 1.821 1.822 z" fill="#2e3192"/><path d="m 83.275 311.703 c 1.094 0 1.822 -.851 1.822 -1.822 c 0 -1.095 -.728 -1.945 -1.822 -1.945 c -.972 0 -1.822 .85 -1.822 1.945 c 0 .971 .851 1.822 1.822 1.822 z" fill="#2e3192"/><path d="m 72.828 311.703 c 1.092 0 1.821 -.851 1.821 -1.822 c 0 -1.095 -.729 -1.945 -1.821 -1.945 c -.973 0 -1.823 .85 -1.823 1.945 c 0 .971 .85 1.822 1.823 1.822 z" fill="#2e3192"/><path d="m 63.108 311.703 c .971 0 1.822 -.851 1.822 -1.822 c 0 -1.095 -.851 -1.945 -1.822 -1.945 c -1.093 0 -1.944 .85 -1.944 1.945 c .001 .971 .851 1.822 1.944 1.822 z" fill="#2e3192"/><path d="m 108.302 321.421 c .607 0 1.093 -.488 1.093 -1.094 c 0 -.729 -.486 -1.216 -1.093 -1.216 c -.73 0 -1.215 .487 -1.215 1.216 c 0 .607 .485 1.094 1.215 1.094 z" fill="#2e3192"/><path d="m 98.097 321.784 c .728 0 1.214 -.484 1.214 -1.091 c 0 -.731 -.486 -1.216 -1.214 -1.216 c -.608 0 -1.094 .484 -1.094 1.216 c -.001 .607 .485 1.091 1.094 1.091 z" fill="#2e3192"/><path d="m 88.013 321.784 c .607 0 1.215 -.484 1.215 -1.091 c 0 -.731 -.608 -1.216 -1.215 -1.216 c -.608 0 -1.215 .484 -1.215 1.216 c 0 .607 .607 1.091 1.215 1.091 z" fill="#2e3192"/><path d="m 77.808 321.784 c .608 0 1.215 -.484 1.215 -1.091 c 0 -.731 -.607 -1.216 -1.215 -1.216 c -.607 0 -1.215 .484 -1.215 1.216 c 0 .607 .608 1.091 1.215 1.091 z" fill="#2e3192"/><path d="m 67.603 321.784 c .608 0 1.215 -.484 1.215 -1.091 c 0 -.731 -.607 -1.216 -1.215 -1.216 c -.607 0 -1.215 .484 -1.215 1.216 c 0 .607 .608 1.091 1.215 1.091 z" fill="#2e3192"/></g><g><path d="m 341.919 285.095 c -2.186 0 -4.009 -1.819 -4.009 -4.13 c 0 -2.185 1.823 -4.007 4.009 -4.007 c 2.308 0 4.13 1.822 4.13 4.007 c 0 2.31 -1.822 4.13 -4.13 4.13 z" fill="#2e3192"/><path d="m 352.123 285.095 c -2.307 0 -4.129 -1.819 -4.129 -4.13 c 0 -2.185 1.822 -4.007 4.129 -4.007 c 2.189 0 4.009 1.822 4.009 4.007 c 0 2.31 -1.821 4.13 -4.009 4.13 z" fill="#2e3192"/><path d="m 361.843 285.095 c -2.187 0 -4.008 -1.819 -4.008 -4.13 c 0 -2.185 1.822 -4.007 4.008 -4.007 c 2.309 0 4.009 1.822 4.009 4.007 c 0 2.31 -1.7 4.13 -4.009 4.13 z" fill="#2e3192"/><path d="m 371.684 285.095 c -2.308 0 -4.13 -1.819 -4.13 -4.13 c 0 -2.185 1.822 -4.007 4.13 -4.007 c 2.186 0 4.009 1.822 4.009 4.007 c 0 2.31 -1.823 4.13 -4.009 4.13 z" fill="#2e3192"/><path d="m 381.766 285.095 c -2.186 0 -4.008 -1.819 -4.008 -4.13 c 0 -2.185 1.822 -4.007 4.008 -4.007 c 2.186 0 4.009 1.822 4.009 4.007 c 0 2.31 -1.822 4.13 -4.009 4.13 z" fill="#2e3192"/><path d="m 391.485 285.095 c -2.187 0 -4.009 -1.819 -4.009 -4.13 c 0 -2.185 1.822 -4.007 4.009 -4.007 c 2.308 0 4.13 1.822 4.13 4.007 c 0 2.31 -1.822 4.13 -4.13 4.13 z" fill="#2e3192"/><path d="m 401.326 285.095 c -2.186 0 -4.009 -1.819 -4.009 -4.13 c 0 -2.185 1.823 -4.007 4.009 -4.007 c 2.186 0 4.008 1.822 4.008 4.007 c 0 2.31 -1.822 4.13 -4.008 4.13 z" fill="#2e3192"/><path d="m 411.773 285.095 c -2.186 0 -4.008 -1.819 -4.008 -4.13 c 0 -2.185 1.822 -4.007 4.008 -4.007 c 2.187 0 4.009 1.822 4.009 4.007 c .001 2.31 -1.822 4.13 -4.009 4.13 z" fill="#2e3192"/><path d="m 347.022 293.113 c -1.824 0 -3.403 -1.457 -3.403 -3.279 c 0 -1.945 1.579 -3.401 3.403 -3.401 c 1.822 0 3.4 1.457 3.4 3.401 c .001 1.822 -1.578 3.279 -3.4 3.279 z" fill="#2e3192"/><path d="m 357.104 293.113 c -1.822 0 -3.279 -1.457 -3.279 -3.279 c 0 -1.945 1.456 -3.401 3.279 -3.401 c 1.944 0 3.403 1.457 3.403 3.401 c 0 1.822 -1.459 3.279 -3.403 3.279 z" fill="#2e3192"/><path d="m 367.309 293.113 c -1.943 0 -3.401 -1.457 -3.401 -3.279 c 0 -1.945 1.458 -3.401 3.401 -3.401 c 1.822 0 3.28 1.457 3.28 3.401 c 0 1.822 -1.458 3.279 -3.28 3.279 z" fill="#2e3192"/><path d="m 377.029 293.113 c -1.822 0 -3.402 -1.457 -3.402 -3.279 c 0 -1.945 1.581 -3.401 3.402 -3.401 c 1.823 0 3.401 1.457 3.401 3.401 c 0 1.822 -1.578 3.279 -3.401 3.279 z" fill="#2e3192"/><path d="m 386.87 293.113 c -1.945 0 -3.402 -1.457 -3.402 -3.279 c 0 -1.945 1.458 -3.401 3.402 -3.401 c 1.822 0 3.279 1.457 3.279 3.401 c -.001 1.822 -1.458 3.279 -3.279 3.279 z" fill="#2e3192"/><path d="m 396.588 293.113 c -1.823 0 -3.401 -1.457 -3.401 -3.279 c 0 -1.945 1.579 -3.401 3.401 -3.401 c 1.822 0 3.4 1.457 3.4 3.401 c .001 1.822 -1.577 3.279 -3.4 3.279 z" fill="#2e3192"/><path d="m 406.671 293.113 c -1.823 0 -3.279 -1.457 -3.279 -3.279 c 0 -1.945 1.456 -3.401 3.279 -3.401 c 1.945 0 3.402 1.457 3.402 3.401 c 0 1.822 -1.457 3.279 -3.402 3.279 z" fill="#2e3192"/><path d="m 341.433 302.953 c -1.337 0 -2.551 -1.213 -2.551 -2.551 c 0 -1.335 1.214 -2.551 2.551 -2.551 c 1.458 0 2.553 1.216 2.553 2.551 c -.001 1.338 -1.096 2.551 -2.553 2.551 z" fill="#2e3192"/><path d="m 352.245 302.953 c -1.335 0 -2.551 -1.213 -2.551 -2.551 c 0 -1.335 1.215 -2.551 2.551 -2.551 c 1.458 0 2.553 1.216 2.553 2.551 c -.001 1.338 -1.095 2.551 -2.553 2.551 z" fill="#2e3192"/><path d="m 362.329 302.953 c -1.337 0 -2.43 -1.213 -2.43 -2.551 c 0 -1.335 1.093 -2.551 2.43 -2.551 c 1.456 0 2.551 1.216 2.551 2.551 c 0 1.338 -1.094 2.551 -2.551 2.551 z" fill="#2e3192"/><path d="m 372.533 302.953 c -1.458 0 -2.551 -1.213 -2.551 -2.551 c 0 -1.335 1.093 -2.551 2.551 -2.551 c 1.337 0 2.429 1.216 2.429 2.551 c 0 1.338 -1.092 2.551 -2.429 2.551 z" fill="#2e3192"/><path d="m 382.617 302.953 c -1.458 0 -2.551 -1.213 -2.551 -2.551 c 0 -1.335 1.093 -2.551 2.551 -2.551 c 1.336 0 2.553 1.216 2.553 2.551 c -.001 1.338 -1.217 2.551 -2.553 2.551 z" fill="#2e3192"/><path d="m 392.093 302.953 c -1.458 0 -2.551 -1.213 -2.551 -2.551 c 0 -1.335 1.093 -2.551 2.551 -2.551 c 1.336 0 2.431 1.216 2.431 2.551 c 0 1.338 -1.095 2.551 -2.431 2.551 z" fill="#2e3192"/><path d="m 402.175 302.953 c -1.457 0 -2.55 -1.213 -2.55 -2.551 c 0 -1.335 1.093 -2.551 2.55 -2.551 c 1.337 0 2.553 1.216 2.553 2.551 c 0 1.338 -1.216 2.551 -2.553 2.551 z" fill="#2e3192"/><path d="m 346.899 312.065 c -1.092 0 -1.943 -.851 -1.943 -1.944 c 0 -.97 .851 -1.823 1.943 -1.823 c .973 0 1.823 .853 1.823 1.823 c .001 1.094 -.85 1.944 -1.823 1.944 z" fill="#2e3192"/><path d="m 357.955 312.065 c -.971 0 -1.822 -.851 -1.822 -1.944 c 0 -.97 .852 -1.823 1.822 -1.823 c 1.094 0 1.944 .853 1.944 1.823 c 0 1.094 -.851 1.944 -1.944 1.944 z" fill="#2e3192"/><path d="m 367.795 312.065 c -1.092 0 -1.943 -.851 -1.943 -1.944 c 0 -.97 .85 -1.823 1.943 -1.823 c .972 0 1.822 .853 1.822 1.823 c 0 1.094 -.85 1.944 -1.822 1.944 z" fill="#2e3192"/><path d="m 377.149 312.065 c -.97 0 -1.821 -.851 -1.821 -1.944 c 0 -.97 .851 -1.823 1.821 -1.823 c 1.094 0 1.945 .853 1.945 1.823 c 0 1.094 -.85 1.944 -1.945 1.944 z" fill="#2e3192"/><path d="m 387.72 312.065 c -1.095 0 -1.945 -.851 -1.945 -1.944 c 0 -.97 .85 -1.823 1.945 -1.823 c .971 0 1.822 .853 1.822 1.823 c 0 1.094 -.851 1.944 -1.822 1.944 z" fill="#2e3192"/><path d="m 397.438 312.065 c -.972 0 -1.823 -.851 -1.823 -1.944 c 0 -.97 .851 -1.823 1.823 -1.823 c .973 0 1.823 .853 1.823 1.823 c 0 1.094 -.85 1.944 -1.823 1.944 z" fill="#2e3192"/><path d="m 352.245 321.784 c -.606 0 -1.214 -.484 -1.214 -1.091 c 0 -.731 .608 -1.216 1.214 -1.216 c .608 0 1.215 .484 1.215 1.216 c 0 .607 -.608 1.091 -1.215 1.091 z" fill="#2e3192"/><path d="m 362.329 322.149 c -.608 0 -1.094 -.484 -1.094 -1.216 c 0 -.606 .486 -1.091 1.094 -1.091 c .729 0 1.214 .485 1.214 1.091 c 0 .732 -.485 1.216 -1.214 1.216 z" fill="#2e3192"/><path d="m 372.533 322.149 c -.729 0 -1.216 -.484 -1.216 -1.216 c 0 -.606 .487 -1.091 1.216 -1.091 c .607 0 1.093 .485 1.093 1.091 c 0 .732 -.486 1.216 -1.093 1.216 z" fill="#2e3192"/><path d="m 382.738 322.149 c -.728 0 -1.215 -.484 -1.215 -1.216 c 0 -.606 .487 -1.091 1.215 -1.091 c .609 0 1.093 .485 1.093 1.091 c 0 .732 -.484 1.216 -1.093 1.216 z" fill="#2e3192"/><path d="m 392.943 322.149 c -.729 0 -1.215 -.484 -1.215 -1.216 c 0 -.606 .486 -1.091 1.215 -1.091 c .607 0 1.094 .485 1.094 1.091 c .001 .732 -.486 1.216 -1.094 1.216 z" fill="#2e3192"/></g><path d="m 179.856 231.763 c 43.128 0 78.115 -34.988 78.115 -78.115 c 0 -43.006 -34.987 -78.238 -78.115 -78.238 c -43.006 0 -78.237 35.232 -78.237 78.238 c .001 43.127 35.232 78.115 78.237 78.115 z" fill="#fff"/><path d="m 280.934 230.428 c 43.127 0 78.237 -34.989 78.237 -78.116 c 0 -43.128 -35.11 -78.238 -78.237 -78.238 c -43.129 0 -78.115 35.11 -78.115 78.238 c -.001 43.127 34.986 78.116 78.115 78.116 z" fill="#fff"/><path d="m 280.934 225.083 c 40.09 0 72.892 -32.682 72.892 -72.771 c 0 -40.092 -32.802 -72.771 -72.892 -72.771 c -40.091 0 -72.65 32.679 -72.65 72.771 c 0 40.09 32.559 72.771 72.65 72.771 z" fill="#a9c0b1" stroke="#2e3192" stroke-width="3.1586"/><path d="m 299.642 106.512 c 9.232 -3.524 16.522 -9.841 13.364 -19.561 l 4.009 2.187 c 1.944 6.682 -1.944 12.392 -8.382 16.522 c 3.888 5.346 7.168 10.691 9.719 16.038 c 7.168 -3.159 14.457 -7.047 20.895 -12.028 l 2.431 3.281 c -6.682 4.86 -14.094 8.99 -21.626 12.392 c 3.645 8.504 5.71 17.008 6.076 25.512 h 27.698 v 4.131 h -27.698 c -.245 8.626 -2.187 17.007 -5.954 25.39 c 7.41 3.281 14.7 7.411 21.139 12.148 l -2.309 3.282 c -6.439 -4.86 -13.485 -8.747 -20.531 -11.906 c -2.673 5.103 -5.953 10.326 -9.962 15.428 c 6.56 4.252 10.448 9.963 8.504 16.524 l -4.009 2.187 c 3.158 -9.477 -4.132 -15.916 -13.364 -19.317 v -3.645 c 2.308 .73 4.495 1.701 6.439 2.795 c 3.888 -5.347 6.803 -10.449 9.233 -15.309 c -5.467 -2.186 -10.691 -3.888 -15.672 -5.102 v -4.13 c 5.588 1.336 11.419 3.28 17.25 5.71 c 3.767 -8.869 5.226 -16.766 5.467 -24.055 h -22.718 v -4.131 h 22.839 c -.243 -8.504 -2.551 -16.279 -6.075 -24.053 c -5.709 2.307 -11.297 4.129 -16.765 5.345 v -4.01 c 4.737 -1.215 9.841 -2.794 15.064 -4.86 c -2.551 -5.103 -5.71 -10.326 -9.11 -15.793 c -1.823 .973 -3.889 1.945 -5.954 2.673 v -3.645 z m -35.108 -.366 c 4.614 2.065 9.96 3.281 15.427 3.523 V 79.177 h 4.009 v 30.493 c 4.737 -.242 10.569 -1.214 15.672 -3.158 v 3.644 c -5.103 1.822 -10.568 2.915 -15.672 3.159 v 17.373 c 4.373 -.244 9.719 -1.093 15.672 -2.551 v 4.01 c -5.587 1.335 -10.935 2.065 -15.672 2.186 v 16.522 h 15.672 v 4.131 H 283.97 v 16.158 c 4.737 .122 10.085 .85 15.672 2.187 v 4.13 c -5.953 -1.58 -11.299 -2.43 -15.672 -2.552 v 17.008 c 5.103 .244 10.569 1.337 15.672 3.159 v 3.645 c -5.103 -1.944 -10.935 -3.037 -15.672 -3.28 v 29.885 h -4.009 v -29.885 c -5.468 .244 -10.813 1.579 -15.427 3.524 v -3.889 c 4.859 -1.942 10.203 -2.915 15.427 -3.159 v -17.128 c -5.346 .242 -10.448 1.214 -15.427 2.793 v -3.888 c 5.101 -1.458 10.324 -2.308 15.427 -2.551 v -16.158 h -15.427 v -4.131 h 15.427 v -16.522 c -5.103 -.243 -10.327 -1.093 -15.427 -2.552 v -4.008 c 4.979 1.701 10.082 2.672 15.427 2.916 v -17.373 c -5.224 -.244 -10.568 -1.337 -15.427 -3.159 z m -9.235 93.91 c -3.645 -4.617 -6.802 -9.355 -9.355 -13.972 c -3.644 2.065 -7.41 4.374 -11.298 6.804 l -1.092 -3.402 c 3.522 -2.551 7.045 -4.858 10.569 -6.925 c -4.496 -9.232 -6.924 -18.344 -7.288 -27.577 h -28.551 v -4.131 h 28.551 c .242 -9.354 2.672 -18.83 7.045 -28.305 c -3.281 -1.944 -6.681 -4.131 -9.962 -6.561 l .973 -3.402 c 3.766 2.309 7.289 4.495 10.689 6.439 c 2.551 -4.86 5.59 -9.596 9.113 -14.456 c -4.982 -4.009 -8.384 -9.476 -8.504 -16.279 l 3.522 -1.701 c -1.094 8.14 5.345 15.43 14.823 19.559 v 4.009 c -2.553 -.972 -4.862 -2.187 -7.048 -3.523 c -3.159 4.982 -5.952 9.719 -8.382 14.336 c 5.224 2.794 10.205 5.223 15.431 6.803 v 4.008 c -5.712 -1.7 -11.543 -4.13 -17.253 -7.167 c -4.008 8.503 -6.559 16.886 -6.804 26.241 h 24.057 v 4.131 H 240.6 c .364 7.653 2.308 16.279 6.681 25.755 c 5.71 -3.036 11.541 -5.466 17.253 -7.046 v 3.888 c -5.226 1.579 -10.328 3.888 -15.431 6.804 c 2.309 4.374 5.103 9.112 8.627 13.971 c 2.064 -1.337 4.372 -2.43 6.804 -3.281 v 3.889 c -9.477 4.13 -15.917 11.297 -14.823 19.438 l -3.522 -1.701 c .242 -6.927 3.764 -12.515 9.11 -16.646 z" fill="#2e3192"/><path d="m 179.856 226.417 c 40.212 0 72.77 -32.679 72.77 -72.77 c 0 -40.09 -32.558 -72.771 -72.77 -72.771 c -40.091 0 -72.77 32.681 -72.77 72.771 c .001 40.092 32.68 72.77 72.77 72.77 z" fill="#2e3192"/><path d="m 227.723 102.138 c -.244 .122 -.608 .244 -.973 .365 c -2.915 .971 -5.345 3.279 -7.046 6.317 l -2.551 -1.823 l -8.261 -5.953 c 2.794 -2.794 4.373 -5.952 4.495 -9.354 c -3.765 -2.065 -7.774 -3.765 -11.904 -5.102 c -6.804 -2.186 -14.093 -3.401 -21.625 -3.401 c 0 0 -.121 0 -.244 0 c -7.289 0 -14.456 1.215 -21.138 3.401 c -.243 0 -.364 .122 -.608 .122 c -4.13 1.457 -8.139 3.158 -11.904 5.223 c 0 .365 0 .851 0 1.215 c .122 2.915 1.336 5.587 3.401 8.018 l -7.532 5.467 l -3.401 2.552 c -1.701 -3.159 -4.009 -5.588 -6.804 -6.803 c -13.607 12.877 -22.231 31.1 -22.231 51.267 c 0 4.374 .485 8.626 1.214 12.877 c .243 0 .486 .122 .852 .243 c 2.915 .851 6.073 .365 9.233 -.971 l 3.765 11.784 c -3.765 .608 -6.803 2.188 -8.867 4.738 c 5.588 12.514 14.82 23.204 26.241 30.493 c 4.98 3.159 10.326 5.711 16.035 7.654 c .244 0 .365 .122 .608 .244 c 3.402 .971 6.804 1.823 10.327 2.429 c .85 -.606 1.458 -1.459 2.065 -2.308 c 1.457 -2.188 2.065 -4.737 2.065 -7.533 h 6.681 h 6.926 c -.365 3.767 .364 7.045 2.43 9.719 c .122 .122 .122 .244 .243 .366 c 4.252 -.608 8.261 -1.459 12.271 -2.794 c 5.587 -1.822 10.812 -4.253 15.671 -7.29 c 11.298 -7.045 20.531 -17.251 26.241 -29.52 c -.244 -.73 -.729 -1.459 -1.214 -2.065 c -1.945 -2.552 -4.861 -4.008 -8.504 -4.738 l 4.129 -12.513 c 3.889 2.065 7.775 2.794 11.298 1.702 c .728 -4.131 1.094 -8.263 1.094 -12.514 c -.004 -20.293 -8.629 -38.637 -22.478 -51.514 z m -44.829 9.111 c 7.046 -.485 13.486 -2.308 18.588 -4.859 c 1.214 -.608 2.307 -1.215 3.279 -1.943 l 12.392 8.99 l .608 .485 c -.244 .852 -.365 1.702 -.608 2.673 c -.607 4.01 -.728 8.505 0 13.364 c .364 1.945 .729 3.888 1.215 5.953 l -1.215 .364 l -8.748 2.795 c -1.7 -3.523 -4.13 -6.682 -6.923 -9.355 c -4.982 -4.616 -11.42 -7.775 -18.588 -8.504 z m -42.521 2.915 l 1.458 -1.093 l 11.541 -8.381 c 1.337 .971 2.794 1.822 4.495 2.55 c .244 .122 .365 .243 .608 .365 c 5.103 2.187 11.299 3.644 18.223 3.767 v 9.84 c -6.924 .607 -13.241 3.523 -18.223 7.775 c -.243 .243 -.364 .365 -.608 .607 c -3.037 2.794 -5.587 6.196 -7.289 9.961 l -8.747 -2.793 l -1.458 -.486 c 1.823 -8.14 1.702 -15.914 0 -22.112 z m 1.458 65.605 c -4.131 -1.46 -8.261 -2.309 -11.906 -2.552 l -4.738 -14.336 c 5.467 -4.373 10.447 -11.663 13.485 -20.652 l 3.158 .972 l 6.682 2.187 c -.608 2.431 -.851 4.861 -.851 7.412 c 0 9.232 3.888 17.493 10.204 23.324 c .122 .121 .365 .244 .487 .486 l -.487 .729 l -5.587 7.653 c -3.522 -2.187 -7.045 -3.888 -10.447 -5.223 z M 201.482 189 c -6.927 5.832 -11.664 12.756 -13.85 19.194 h -8.019 h -7.653 c -1.944 -6.195 -6.681 -12.999 -13.485 -18.709 c -.243 -.12 -.364 -.364 -.608 -.485 c -.242 -.121 -.363 -.243 -.485 -.364 l .485 -.729 l .608 -.972 l 4.982 -6.682 c 4.738 2.794 10.204 4.375 16.156 4.375 c 5.953 0 11.542 -1.702 16.279 -4.496 l 5.59 7.654 l .485 .729 c -.122 .121 -.365 .243 -.485 .485 z m 26.848 -12.27 c -3.402 .243 -7.167 1.094 -11.177 2.673 c -3.401 1.336 -6.804 3.158 -10.205 5.345 l -5.466 -7.532 l -.608 -.729 c .242 -.244 .364 -.365 .608 -.486 c 6.196 -5.83 10.082 -14.092 10.082 -23.203 c 0 -2.674 -.364 -5.346 -.971 -7.897 l 6.56 -2.065 l 3.159 -1.093 c 3.159 8.382 7.775 15.186 13 19.559 z" fill="#fff"/><path d="m 172.932 213.297 h 13.606 c -.365 3.767 .364 7.045 2.43 9.719 c .122 .122 .122 .244 .243 .366 c 24.054 -3.159 44.22 -18.467 54.183 -39.605 c -.244 -.73 -.729 -1.459 -1.214 -2.065 c -1.945 -2.552 -4.861 -4.008 -8.504 -4.738 l 4.129 -12.513 c 3.889 2.065 7.775 2.794 11.298 1.702 c .728 -4.131 1.094 -8.263 1.094 -12.514 c 0 -20.289 -8.626 -38.633 -22.475 -51.51 c -.244 .122 -.608 .244 -.973 .365 c -2.915 .971 -5.345 3.279 -7.046 6.317 l -10.812 -7.776 c 2.794 -2.794 4.373 -5.952 4.495 -9.354 c -9.961 -5.344 -21.381 -8.503 -33.53 -8.503 c -12.271 0 -23.812 3.159 -33.894 8.747 c 0 .365 0 .851 0 1.215 c .122 2.915 1.336 5.587 3.401 8.018 l -10.934 8.019 c -1.701 -3.159 -4.009 -5.588 -6.804 -6.803 c -13.607 12.877 -22.231 31.1 -22.231 51.267 c 0 4.374 .485 8.626 1.214 12.877 c .243 0 .486 .122 .852 .243 c 2.915 .851 6.073 .365 9.233 -.971 l 3.765 11.784 c -3.765 .608 -6.803 2.188 -8.867 4.738 c 9.476 21.382 29.399 37.054 53.211 40.82 c .85 -.606 1.458 -1.459 2.065 -2.308 c 1.457 -2.191 2.065 -4.741 2.065 -7.537 z m 14.7 -5.102 H 171.96 c -2.064 -6.559 -7.167 -13.728 -14.578 -19.559 l 6.075 -8.383 c 4.738 2.794 10.204 4.375 16.156 4.375 c 5.953 0 11.542 -1.702 16.279 -4.496 l 6.075 8.382 c -7.046 5.953 -12.149 13.122 -14.335 19.681 z m 45.679 -46.894 l -4.981 15.429 c -6.439 .364 -14.093 3.16 -21.382 8.019 l -6.074 -8.261 c 6.56 -5.832 10.69 -14.335 10.69 -23.689 c 0 -2.674 -.364 -5.346 -.971 -7.897 l 9.719 -3.159 c 3.159 8.382 7.775 15.185 12.999 19.558 z m -28.55 -56.855 l 12.999 9.475 c -1.579 6.075 -1.458 13.85 .607 21.99 l -9.962 3.159 c -4.737 -9.719 -14.334 -16.645 -25.512 -17.858 v -9.962 c 8.626 -.608 16.4 -3.159 21.868 -6.804 z m -64.388 9.718 l 12.999 -9.475 c 5.589 3.887 13.85 6.438 23.326 6.682 v 9.84 c -11.663 1.093 -21.503 8.261 -26.12 18.344 l -10.205 -3.28 c 1.823 -8.139 1.702 -15.913 0 -22.111 z m -15.185 48.717 c 5.467 -4.373 10.447 -11.663 13.485 -20.652 l 9.84 3.158 c -.608 2.431 -.851 4.861 -.851 7.412 c 0 9.475 4.13 17.98 10.691 23.811 l -6.075 8.382 c -7.654 -4.859 -15.55 -7.411 -22.354 -7.775 z" fill="none" stroke="#2e3192" stroke-width="1.2149"/><path d="m 88.013 351.305 h 287.8 c 3.402 -3.646 6.561 -7.287 9.598 -11.175 H 78.416 c 3.158 3.888 6.316 7.53 9.597 11.175 z" fill="#cce7d3"/><path d="m 127.01 336.485 h 9.719 v 13.241 h -2.794 v -11.057 h -4.131 v 5.712 c 0 1.7 -.121 2.793 -.243 3.4 c -.122 .61 -.365 1.216 -.851 1.582 c -.364 .24 -1.092 .484 -2.065 .484 c -.243 0 -.851 0 -1.701 -.123 v -2.066 h .609 c .606 0 .97 0 1.214 -.24 c .122 -.122 .243 -.487 .243 -1.094 v -2.308 z m 12.634 13.241 v -13.241 h 10.327 v 2.185 h -7.532 v 3.039 h 7.046 v 2.189 h -7.046 v 3.644 h 7.776 v 2.185 h -10.571 z m 13 0 v -13.241 h 2.794 v 5.224 h 5.467 v -5.224 h 2.794 v 13.241 h -2.794 v -5.829 h -5.467 v 5.829 z m 14.092 -13.241 h 2.551 v 8.868 l 5.71 -8.868 h 2.794 v 13.241 h -2.673 v -8.624 l -5.588 8.624 h -2.794 z m 13.849 13.241 v -13.241 h 2.915 v 5.224 h 5.468 v -5.224 h 2.794 v 13.241 h -2.794 v -5.829 H 183.5 v 5.829 z m 22.96 -4.857 l 2.795 .851 c -.486 1.456 -1.215 2.551 -2.186 3.157 c -.971 .728 -2.188 1.094 -3.645 1.094 c -1.822 0 -3.402 -.607 -4.495 -1.822 c -1.216 -1.216 -1.823 -2.795 -1.823 -4.862 c 0 -2.306 .607 -4.006 1.823 -5.223 c 1.092 -1.212 2.673 -1.822 4.617 -1.822 c 1.701 0 3.158 .488 4.252 1.459 c .607 .607 1.092 1.335 1.335 2.429 l -2.794 .606 c -.121 -.606 -.485 -1.212 -.972 -1.578 c -.486 -.366 -1.215 -.607 -1.944 -.607 c -.972 0 -1.822 .363 -2.429 1.091 c -.73 .609 -.974 1.822 -.974 3.404 c 0 1.7 .244 2.913 .974 3.522 c .607 .728 1.335 1.09 2.429 1.09 c .729 0 1.336 -.24 1.944 -.606 c .487 -.483 .852 -1.215 1.093 -2.183 z m 5.225 -8.384 h 2.794 v 5.589 c .609 0 1.093 -.121 1.215 -.365 c .243 -.244 .607 -.973 1.094 -2.066 c .607 -1.457 1.093 -2.429 1.701 -2.673 c .608 -.362 1.579 -.606 2.915 -.606 c 0 0 .122 0 .365 0 v 2.066 l -.365 -.122 c -.607 0 -1.093 .122 -1.336 .244 c -.243 .118 -.485 .363 -.607 .607 c -.121 .365 -.364 .85 -.73 1.7 c -.243 .484 -.365 .851 -.607 1.215 c -.122 .242 -.486 .607 -.972 .851 c .608 .122 1.094 .485 1.458 .973 c .486 .606 .851 1.334 1.336 2.185 l 1.945 3.644 h -3.281 l -1.7 -3.4 c 0 0 0 -.122 -.122 -.244 c 0 -.123 -.122 -.245 -.364 -.607 c -.365 -.728 -.609 -1.093 -.852 -1.215 c -.243 -.242 -.607 -.362 -1.093 -.362 v 5.829 h -2.794 z m 11.42 9.719 v -2.551 h 5.346 v 2.551 z m 6.925 -9.719 h 2.672 v 5.589 c .608 0 .972 -.121 1.216 -.365 c .242 -.244 .606 -.973 1.092 -2.066 c .609 -1.457 1.094 -2.429 1.7 -2.673 c .609 -.362 1.581 -.606 2.794 -.606 c .123 0 .245 0 .486 0 v 2.066 l -.486 -.122 c -.486 0 -.971 .122 -1.214 .244 c -.244 .118 -.485 .363 -.608 .607 c -.242 .365 -.486 .85 -.728 1.7 c -.245 .484 -.364 .851 -.609 1.215 c -.12 .242 -.485 .607 -1.091 .851 c .728 .122 1.214 .485 1.578 .973 c .487 .606 .851 1.334 1.337 2.185 l 1.944 3.644 h -3.281 l -1.7 -3.4 c 0 0 -.123 -.122 -.123 -.244 c -.122 -.123 -.122 -.245 -.364 -.607 c -.364 -.728 -.728 -1.093 -.851 -1.215 c -.243 -.242 -.607 -.362 -1.093 -.362 v 5.829 h -2.672 v -13.243 z m 10.69 0 h 3.158 l 3.281 6.924 l 2.794 -6.924 h 2.914 l -4.737 10.085 c -.486 1.09 -.972 1.941 -1.58 2.551 c -.486 .484 -1.215 .851 -2.064 .851 c -.851 0 -1.458 -.122 -1.945 -.245 v -1.944 c .486 0 .85 0 1.094 0 c .729 0 1.092 -.123 1.458 -.363 c .242 -.122 .485 -.609 .728 -1.46 z m 15.551 3.645 l -2.795 -.606 c .608 -2.188 2.309 -3.282 5.102 -3.282 c 1.58 0 2.793 .366 3.644 1.094 c .851 .607 1.216 1.457 1.216 2.307 c 0 .731 -.121 1.216 -.485 1.822 c -.486 .488 -.973 .851 -1.702 1.337 c .852 .245 1.58 .729 2.066 1.216 c .364 .607 .605 1.213 .605 2.064 c 0 1.216 -.364 2.066 -1.336 2.794 c -.851 .728 -2.187 1.094 -4.008 1.094 c -1.458 0 -2.551 -.245 -3.402 -.729 c -.85 -.365 -1.458 -1.216 -1.944 -2.551 l 2.553 -.853 c .364 .853 .607 1.338 1.092 1.582 c .486 .24 .972 .363 1.581 .363 c .971 0 1.578 -.123 1.942 -.484 c .486 -.365 .609 -.85 .609 -1.338 c 0 -.484 -.123 -.972 -.609 -1.335 c -.486 -.243 -1.215 -.487 -2.064 -.487 h -.728 v -1.941 h .363 c .85 0 1.579 -.244 1.943 -.61 c .486 -.362 .731 -.851 .731 -1.457 c 0 -.487 -.245 -.85 -.609 -1.216 c -.365 -.363 -.851 -.484 -1.578 -.484 c -1.095 0 -1.944 .606 -2.187 1.7 z m 10.204 9.596 v -13.241 h 2.795 v 5.224 h 5.466 v -5.224 h 2.793 v 13.241 h -2.793 v -5.829 h -5.466 v 5.829 z m 13.97 0 v -13.241 h 10.327 v 2.185 h -7.532 v 3.039 h 7.045 v 2.189 h -7.045 v 3.644 h 7.775 v 2.185 h -10.57 z m 13 -13.241 h 2.794 v 11.057 h 5.468 v -11.057 h 2.793 v 11.057 h 1.215 v 5.102 h -2.308 v -2.917 h -9.962 z m 14.215 0 h 2.793 v 5.589 c .609 0 1.094 -.121 1.336 -.365 c .123 -.244 .487 -.973 .973 -2.066 c .608 -1.457 1.214 -2.429 1.7 -2.673 c .608 -.362 1.58 -.606 2.916 -.606 c 0 0 .123 0 .364 0 v 2.066 l -.364 -.122 c -.608 0 -.973 .122 -1.337 .244 c -.243 .118 -.485 .363 -.607 .607 c -.122 .365 -.365 .85 -.729 1.7 c -.122 .484 -.364 .851 -.608 1.215 c -.122 .242 -.485 .607 -.972 .851 c .608 .122 1.094 .485 1.58 .973 c .364 .606 .851 1.334 1.336 2.185 l 1.824 3.644 h -3.281 l -1.7 -3.4 c 0 0 0 -.122 -.122 -.244 c 0 -.123 -.123 -.245 -.364 -.607 c -.364 -.728 -.609 -1.093 -.851 -1.215 c -.244 -.242 -.608 -.362 -1.094 -.362 v 5.829 h -2.793 z m 11.905 0 h 2.551 v 8.868 l 5.709 -8.868 h 2.794 v 13.241 h -2.673 v -8.624 l -5.587 8.624 h -2.794 z m 13.972 0 h 2.551 v 8.868 l 5.709 -8.868 h 2.794 v 13.241 h -2.673 v -8.624 l -5.588 8.624 h -2.793 z m 7.168 -3.279 h 1.336 c -.122 .728 -.366 1.457 -.973 1.941 c -.485 .487 -1.216 .61 -2.066 .61 c -.85 0 -1.456 -.123 -2.064 -.61 c -.485 -.484 -.728 -1.213 -.85 -1.941 h 1.336 c 0 .362 .123 .728 .486 .973 c .243 .24 .608 .24 1.092 .24 c .608 0 .973 0 1.217 -.24 c .241 -.245 .486 -.611 .486 -.973 z" fill="#2e3192"/><path d="m 121.179 331.018 h 51.509 c 4.009 -.122 6.561 -2.429 8.504 -5.59 c 1.58 3.161 4.738 5.346 7.654 5.59 h 65.846 v -15.792 l 15.063 -.123 c 5.102 -.121 11.419 -.727 14.823 -5.951 c .363 .729 1.336 1.7 2.064 1.941 l -16.645 19.925 h 30.13 l 15.428 -17.008 v 17.008 h 23.448 v -66.089 h -42.156 c -4.131 0 -9.961 2.917 -12.269 7.774 c -1.581 -4.735 -7.777 -7.774 -12.028 -7.774 h -42.763 v 4.979 c -1.579 -2.551 -2.915 -4.858 -7.653 -4.979 h -42.398 v 4.979 c -1.823 -3.4 -4.982 -4.858 -8.504 -4.979 h -42.765 l -.122 36.205 h 14.822 L 121.3 322.877 Z" fill="#2e3192"/><path d="m 126.646 324.944 h 41.792 c 14.335 0 12.27 -18.709 4.86 -20.287 c 12.633 -9.722 6.681 -36.083 -8.141 -36.205 h -32.558 v 27.821 h 31.221 c 3.523 0 3.038 3.645 -.363 3.645 h -12.878 l -8.747 9.841 l 23.812 -.122 c 1.822 0 1.7 4.129 -.123 4.129 h -27.698 z" fill="#fff" stroke="#2e3192" stroke-width="1.7008"/><path d="m 193.341 324.944 h 36.812 v -39.24 c -.245 -9.355 -3.281 -17.495 -15.188 -17.614 h -32.436 v 28.184 h 35.474 v 19.074 h -18.587 c -4.617 0 -4.495 -5.104 .365 -5.104 c .729 0 16.401 0 16.279 -.122 l -6.56 -10.204 h -17.737 c -5.346 -.122 -9.354 5.708 -9.233 12.269 c -.122 8.262 3.158 12.757 10.811 12.757 z" fill="#fff" stroke="#2e3192" stroke-width=".3645"/><path d="m 234.04 324.944 h 14.7 v -28.792 l 22.108 .122 v 4.617 l -19.678 -.122 l 6.802 9.475 h 16.765 c 5.224 0 8.019 -4.736 7.654 -11.054 v -21.263 c 0 -6.924 -3.281 -9.837 -12.027 -9.837 H 234.04 Z" fill="#fff" stroke="#2e3192" stroke-width=".3645"/><path d="m 334.508 324.944 h -13.849 v -28.792 h -19.803 c -1.215 0 -1.215 4.617 -.121 4.739 l 18.709 -.122 l -21.262 24.175 H 281.66 l 12.878 -14.822 c -3.401 -.119 -8.26 -5.225 -8.383 -8.503 v -23.691 c .122 -6.195 5.223 -9.837 11.541 -9.837 h 36.811 v 56.853 z" fill="#fff" stroke="#2e3192" stroke-width=".3645"/></g></svg>