<svg enable-background="new 0 0 660 660" viewBox="0 0 660 660" xmlns="http://www.w3.org/2000/svg"><path d="m23.693 23.71h621.439v621.439h-621.439z"/><path d="m16.5 14.7h549.222l-365.496 623.966h-183.726z" fill="#fff"/><path d="m437.802 570.595v-222.256h37.509v222.256zm123.235 0-64.75-112.108.014-.008-.013-.004 64.654-110.136h43.44l-64.7 110.292 64.663 111.964z" fill="#fff"/><path d="m182.247 445.354h99.394l58.999-100.653.004.023.007-.052 132.477 225.924-41.044-.001-63.259-108.148-28.035-47.929-18.314 31.102 20.522 35.098h-41.212l-21.747 37.156-.008.003c-18.723 33.834-53.637 56.908-95.112 56.908-62.462 0-113.404-50.947-113.404-113.413 0-62.465 50.942-113.413 113.404-113.413v35.361c-42.985 0-78.047 35.062-78.047 78.052 0 42.989 35.061 78.053 78.047 78.053 26.813 0 49.275-14.178 62.288-35.318l13.707-23.389h-78.666v-35.364z" fill="#ee3124"/></svg>