<svg id="Layer_1" data-name="Layer 1" xmlns="http://www.w3.org/2000/svg" viewBox="0 0 448.26 566"><defs><style>.cls-1{fill:#ed1c24;}.cls-2{fill:#fff;}</style></defs><title>aa_flamengo-sp [Converted]</title><path d="M81.87,113.5V388.94c0,92.89,78.85,239.79,224.13,290.56,145.28-50.77,224.13-197.67,224.13-290.56V113.5Z" transform="translate(-81.87 -113.5)"/><rect class="cls-1" x="9.72" y="9.72" width="204.69" height="201.99"/><path class="cls-1" d="M91.59,334.93v54a178.14,178.14,0,0,0,1.16,19.8h426.5a178.14,178.14,0,0,0,1.16-19.8v-54H91.59Z" transform="translate(-81.87 -113.5)"/><path class="cls-1" d="M147.45,544.48q4.19,6,8.6,11.88H456q4.41-5.83,8.6-11.88a351.4,351.4,0,0,0,34.28-61.93H113.17A351.4,351.4,0,0,0,147.45,544.48Z" transform="translate(-81.87 -113.5)"/><path class="cls-1" d="M231.68,630.18a312.67,312.67,0,0,0,74.32,39,312.67,312.67,0,0,0,74.32-39H231.68Z" transform="translate(-81.87 -113.5)"/><rect class="cls-1" x="224.13" y="73.81" width="214.41" height="73.81"/><path class="cls-2" d="M171.21,149.91c-5.46-4.2-12.43-6.16-19.76-6.17s-14.3,2-19.76,6.17a23,23,0,0,0-9,18.59v87.14a42.22,42.22,0,0,0,6.93,23.86c4.37,6.38,11.18,11.13,19.29,11.15v-13c-2.79,0-5.85-1.61-8.63-5.55s-4.64-9.82-4.63-16.49V192.41h31.69v20.12h13v-44A23,23,0,0,0,171.21,149.91ZM135.6,179.45V168.5a10,10,0,0,1,4-8.34c2.62-2,6.81-3.46,11.82-3.45s9.2,1.4,11.82,3.45a9.92,9.92,0,0,1,4,8.34v10.95Z" transform="translate(-81.87 -113.5)"/><path class="cls-2" d="M256.18,149.91c-5.46-4.2-12.43-6.16-19.76-6.17s-14.3,2-19.76,6.17a23,23,0,0,0-9,18.59v44h13V192.41h31.68v63.23c0,6.67-1.91,12.6-4.62,16.49s-5.84,5.56-8.63,5.55v13c8.11,0,14.92-4.76,19.28-11.14a42.06,42.06,0,0,0,6.93-23.86V168.5A23,23,0,0,0,256.18,149.91Zm-35.6,29.54V168.5a9.92,9.92,0,0,1,4-8.34c2.62-2,6.81-3.46,11.82-3.45s9.2,1.4,11.82,3.45a9.92,9.92,0,0,1,4,8.34v10.95Z" transform="translate(-81.87 -113.5)"/><polygon class="cls-2" points="110.16 155.23 110.16 133.33 125.75 133.33 125.75 120.37 97.2 120.37 97.2 200.84 110.16 200.84 110.16 168.19 125.75 168.19 125.75 155.23 110.16 155.23"/></svg>