<svg height="1000" viewBox="0 0 1000 1000" width="1000" xmlns="http://www.w3.org/2000/svg"><g transform="matrix(2.1823528 0 0 2.1823528 -109.85964 -389.09168)"><path d="m 96.91 388.98 l 29.838 -29.838 c -.004 -.475 -.018 -.947 -.018 -1.422 c 0 -98.83 80.6 -179.43 179.43 -179.43 c 98.83 0 179.44 80.6 179.44 179.43 c 0 .475 -.015 .947 -.019 1.422 l 29.838 29.838 l 46.57 -26.89 C 559.639 501.02 445.629 613.6 306.159 613.6 C 166.689 613.6 52.69 501.02 50.34 362.09 Z" fill="#fff"/><path d="M 306.17 599.8 C 182.74 599.8 80.4 506.61 65.87 387 l 33.31 19.23 l 28.658 -28.653 c 9.936 89.545 86.213 159.583 178.332 159.583 c 92.121 0 168.39 -70.041 178.323 -159.587 L 513.15 406.23 L 546.46 387 C 531.93 506.61 429.59 599.8 306.17 599.8 Z" fill="#e92226"/><circle cx="306.17001" cy="357.72" fill="#e92226" r="165.63"/><path d="m 263.88 207.49 v 300.46 c 6.91 1.96 14 3.44 21.25 4.43 V 372.34 h 38.92 V 351.09 H 285.13 V 224.52 c 6.86 -1.08 13.88 -1.64 21.04 -1.64 c 7.93 0 15.7 .69 23.26 2.02 v -21.51 c -7.59 -1.15 -15.36 -1.74 -23.26 -1.74 c -14.65 0 -28.83 2.04 -42.29 5.84 z" fill="#fff"/><path d="m 150.09 357.72 c 0 34.45 11.27 66.34 30.29 92.21 l 16.38 -13.56 C 183.47 417.94 174.7 396.05 172.12 372.34 h 57.3 v 96.13 v 25.06 c 6.79 3.85 13.88 7.22 21.25 10.03 V 211.88 c -58.7 22.46 -100.58 79.41 -100.58 145.84 z m 79.33 -110.75 v 104.12 h -57.93 c 2.1 -43.06 24.57 -80.91 57.93 -104.12 z" fill="#fff"/><path d="m 429.02 413.21 c -13.18 29.03 -36.38 52.62 -65.12 66.32 V 235.91 c 25.83 12.31 47.18 32.6 60.81 57.66 l 17.75 -11.74 c -21 -37.51 -57.01 -65.54 -99.81 -75.86 v 303.51 c 46 -11.09 84.17 -42.65 104.27 -84.43 z" fill="#fff"/><path d="m 367.19 541.21 c -2.4 -1.91 -5.04 -2.86 -7.89 -2.9 c -1.86 -.02 -5.67 .66 -11.42 2.09 l -15.17 3.79 l 11.68 46.82 l 9.45 -2.35 l -4.4 -17.66 l 6.16 -1.54 c 4.28 -1.07 7.5 -2.1 9.64 -3.12 c 1.58 -.76 3.02 -1.92 4.35 -3.44 c 1.33 -1.52 2.26 -3.39 2.82 -5.61 c .56 -2.21 .48 -4.77 -.24 -7.65 c -.92 -3.71 -2.59 -6.53 -4.98 -8.43 z m -4.89 14.9 c -.45 1.23 -1.25 2.24 -2.38 3.04 c -1.13 .8 -3.57 1.67 -7.3 2.6 l -5.17 1.29 l -3.31 -13.28 l 4.57 -1.14 c 3.4 -.85 5.7 -1.31 6.88 -1.38 c 1.6 -.1 3.05 .27 4.31 1.12 c 1.28 .87 2.14 2.15 2.56 3.85 c .35 1.38 .29 2.68 -.16 3.9 z" fill="#fff"/><path d="M 419.95 516.54 L 440.18 500.16 L 435.04 493.81 L 407.24 516.32 L 437.61 553.83 L 466.13 530.73 L 461.01 524.41 L 440.06 541.38 L 431.79 531.17 L 450.62 515.92 L 445.51 509.61 L 426.68 524.85 Z" fill="#fff"/><path d="M 485.13 511.27 L 491.4 503.79 L 460.68 478.03 L 469.86 467.08 L 463.6 461.83 L 438.95 491.21 L 445.21 496.46 L 454.41 485.5 Z" fill="#fff"/><path d="m 519.65 447.72 c -1.8 -5.84 -6.1 -10.65 -12.92 -14.43 c -6.87 -3.81 -13.27 -4.91 -19.19 -3.31 c -5.94 1.59 -10.62 5.49 -14.07 11.72 c -1.9 3.44 -3.03 6.77 -3.37 10.02 c -.27 2.44 -.01 4.96 .77 7.56 c .79 2.61 2 4.99 3.61 7.14 c 2.2 2.91 5.46 5.54 9.76 7.93 c 6.72 3.72 13.02 4.8 18.9 3.22 c 5.88 -1.59 10.56 -5.52 14.04 -11.8 c 3.44 -6.19 4.26 -12.21 2.47 -18.05 z m -9.76 14.04 c -1.89 3.4 -4.67 5.53 -8.36 6.37 c -3.69 .83 -7.93 -.07 -12.71 -2.71 c -4.86 -2.7 -7.89 -5.79 -9.11 -9.27 c -1.22 -3.49 -.86 -6.99 1.1 -10.51 c 1.94 -3.5 4.69 -5.67 8.25 -6.47 c 3.56 -.79 7.75 .15 12.59 2.83 c 4.89 2.71 7.95 5.83 9.2 9.36 c 1.24 3.55 .92 7.01 -.96 10.4 z" fill="#fff"/><path d="m 291.55 543.63 c -3.92 -.34 -7.42 -.01 -10.54 1 c -2.32 .75 -4.53 2 -6.59 3.77 c -2.06 1.78 -3.75 3.85 -5.05 6.2 c -1.77 3.19 -2.85 7.25 -3.27 12.15 c -.67 7.64 .9 13.84 4.74 18.58 c 3.84 4.72 9.34 7.4 16.49 8.02 c 7.05 .62 12.89 -1.08 17.49 -5.09 c 4.61 -4.01 7.25 -9.9 7.93 -17.67 c .69 -7.82 -.91 -14.12 -4.78 -18.88 c -3.87 -4.77 -9.34 -7.46 -16.42 -8.08 z m 11.18 25.86 c -.49 5.58 -2.1 9.64 -4.81 12.21 c -2.73 2.59 -6.04 3.69 -9.9 3.36 c -3.87 -.34 -6.94 -2.02 -9.21 -5.05 c -2.27 -3.03 -3.16 -7.27 -2.69 -12.71 c .49 -5.54 2.08 -9.57 4.76 -12.09 c 2.69 -2.54 6.04 -3.63 10.04 -3.28 c 4 .35 7.1 1.98 9.27 4.91 c 2.18 2.92 3.02 7.14 2.54 12.65 z" fill="#fff"/><path d="m 412.16 548.74 c -1.87 -.75 -4.01 -1.24 -6.45 -1.46 c 3.58 -2.34 5.85 -5.05 6.77 -8.07 c .94 -3.04 .63 -6.21 -.9 -9.49 c -1.2 -2.59 -2.9 -4.59 -5.12 -6.01 c -2.2 -1.41 -4.56 -2.01 -7.04 -1.81 c -2.48 .21 -6.06 1.39 -10.74 3.57 l -18.59 8.67 l 20.4 43.74 l 8.83 -4.12 l -8.51 -18.26 l 1.78 -.83 c 2.04 -.95 3.59 -1.48 4.68 -1.59 c 1.09 -.1 2.26 .09 3.51 .59 c 1.25 .49 3.79 1.92 7.65 4.25 l 10.82 6.55 l 10.56 -4.93 l -9.32 -6.04 c -3.71 -2.4 -6.47 -4 -8.33 -4.76 z m -8.77 -10.51 c -.19 1.15 -.73 2.16 -1.61 3.01 c -.89 .85 -3.46 2.26 -7.7 4.23 l -6.53 3.04 l -5.17 -11.09 l 6.88 -3.21 c 3.59 -1.67 5.76 -2.64 6.52 -2.86 c 1.54 -.44 2.92 -.37 4.13 .17 c 1.21 .54 2.16 1.54 2.84 3.01 c .62 1.32 .82 2.55 .64 3.7 z" fill="#fff"/><path d="m 126.22 439.56 c 1.11 -.57 2.24 -.56 3.37 .02 c 1.76 .89 3.28 2.62 4.57 5.14 c 1.24 2.44 1.7 4.52 1.35 6.24 c -.34 1.71 -1.53 3.32 -3.55 4.81 l 4.8 8.49 c 3.89 -2.15 6.31 -5.19 7.3 -9.12 c .97 -3.94 .08 -8.6 -2.67 -14.01 c -1.69 -3.3 -3.62 -5.86 -5.81 -7.69 c -2.19 -1.83 -4.55 -2.88 -7.08 -3.15 c -2.55 -.27 -4.91 .15 -7.1 1.27 c -3.4 1.73 -5.61 4.52 -6.63 8.37 c -.73 2.73 -.49 6.72 .73 11.96 c .94 4.07 1.51 6.71 1.66 7.91 c .24 1.75 .15 3.11 -.27 4.07 c -.4 .96 -1.11 1.7 -2.13 2.22 c -1.58 .81 -3.33 .8 -5.23 -.02 c -1.91 -.8 -3.58 -2.61 -5.01 -5.41 c -1.34 -2.64 -1.74 -5.08 -1.21 -7.3 c .54 -2.24 2.1 -4.33 4.68 -6.28 l -5.13 -8.03 c -4.52 3.01 -7.3 6.62 -8.33 10.81 c -1.03 4.2 -.15 9.01 2.62 14.45 c 1.9 3.73 4.01 6.59 6.34 8.56 c 2.32 1.97 4.9 3.08 7.76 3.36 c 2.84 .28 5.5 -.22 7.96 -1.47 c 2.71 -1.38 4.7 -3.12 5.98 -5.2 c 1.26 -2.1 1.91 -4.42 1.95 -6.99 c .03 -2.56 -.53 -6.21 -1.68 -10.95 c -1.17 -4.73 -1.56 -7.88 -1.2 -9.44 c .29 -1.23 .94 -2.1 1.96 -2.62 z" fill="#fff"/><path d="M 229.96899 557.02502 H 278.230991 V 566.76602 H 229.96899 Z" fill="#fff" transform="matrix(.2423 -.9702 .9702 .2423 -352.6218 672.2646)"/><path d="m 162.08 530.87 c -3.04 0 -5.52 2.48 -5.52 5.52 c 0 3.04 2.48 5.52 5.52 5.52 c 3.05 0 5.52 -2.48 5.52 -5.52 c 0 -3.04 -2.47 -5.52 -5.52 -5.52 z" fill="#fff"/><path d="m 120.76 485.27 c -3.04 0 -5.52 2.48 -5.52 5.52 c 0 3.04 2.48 5.52 5.52 5.52 c 3.04 0 5.52 -2.48 5.52 -5.52 c 0 -3.04 -2.48 -5.52 -5.52 -5.52 z" fill="#fff"/><path d="m 150.93 510.4 c -2.72 2.81 -4.83 4.35 -6.33 4.61 c -1.51 .28 -3.05 -.35 -4.61 -1.86 c -1.55 -1.49 -2.1 -3.23 -1.66 -5.2 c .3 -1.31 1.36 -3 3.2 -5.07 l -7.33 -5.62 c -3.58 3.72 -5.36 7.44 -5.37 11.14 c 0 3.71 1.71 7.21 5.14 10.52 c 2.92 2.81 5.86 4.48 8.83 4.98 c 2.96 .5 5.76 .06 8.39 -1.3 c 1.99 -1.06 4.39 -3.03 7.16 -5.9 l 21.23 -21.98 l -7 -6.75 z" fill="#fff"/><path d="m 245.07 541.84 c -.34 -2.6 -1.39 -4.79 -3.14 -6.57 c -1.75 -1.77 -4.96 -3.75 -9.63 -5.93 l -18.6 -8.67 l -20.39 43.74 l 8.84 4.13 l 8.51 -18.26 l 1.78 .83 c 2.04 .95 3.44 1.8 4.22 2.56 c .79 .77 1.39 1.79 1.81 3.06 c .43 1.28 .98 4.14 1.66 8.6 l 1.95 12.5 l 10.56 4.92 l -1.37 -11.02 c -.52 -4.39 -1.09 -7.53 -1.71 -9.44 c -.62 -1.92 -1.63 -3.87 -3.02 -5.89 c 4.09 1.24 7.62 1.24 10.54 .01 c 2.92 -1.25 5.15 -3.51 6.68 -6.79 c 1.21 -2.59 1.65 -5.17 1.31 -7.78 z m -10.67 4.11 c -.61 1.31 -1.43 2.26 -2.42 2.86 c -1.01 .59 -2.13 .83 -3.34 .7 c -1.23 -.14 -3.96 -1.2 -8.19 -3.18 l -6.53 -3.04 l 5.17 -11.09 l 6.88 3.21 c 3.59 1.67 5.71 2.72 6.38 3.15 c 1.33 .91 2.17 2 2.53 3.27 c .36 1.27 .21 2.64 -.48 4.12 z" fill="#fff"/></g></svg>