<svg enable-background="new 0 0 660 660" viewBox="0 0 660 660" xmlns="http://www.w3.org/2000/svg"><path d="M 332.455 634.641 c -68.946 -42.232 -150.177 -70.888 -207.273 -127.986 c -76.921 -77.568 -76.921 -187.236 -70.026 -299.708 C 58.604 148.124 47.399 88.442 26.5 29.622 c 33.827 17.236 76.274 40.722 116.781 41.582 c 63.13 1.724 126.26 -31.242 189.174 -31.242 c 63.132 0 125.4 32.966 189.394 31.242 c 39.86 -.86 82.951 -24.346 115.917 -41.582 c -20.039 58.82 -31.243 118.502 -27.793 177.325 c 6.03 112.472 6.895 222.141 -70.888 299.708 C 482.85 563.753 400.757 592.409 332.455 634.641 z" fill="#ee3124"/><path d="M 66.36 266.198 h 229.469 v -23.484 H 67.222 C 66.792 250.686 66.36 258.442 66.36 266.198 z" fill="#fff"/><path d="M 66.36 279.127 h 532.407 c .433 64.855 -5.169 129.277 -41.37 184.436 c -51.062 76.918 -148.019 110.532 -224.941 156.424 c -88.771 -53.648 -200.378 -88.125 -243.688 -190.899 C 69.806 380.825 65.93 330.193 66.36 279.127 z" fill="#fff"/><path d="M 597.908 242.714 H 368.009 v 23.484 h 230.758 C 598.337 258.442 598.337 250.686 597.908 242.714 z" fill="#fff"/><path d="M 368.009 56.554 v 113.979 h 228.604 c 1.724 -39.646 11.205 -76.058 19.39 -114.842 c -22.406 10.342 -43.091 19.823 -68.299 24.993 C 490.606 94.905 424.028 65.603 368.009 56.554 z" fill="#fff"/><path d="M 68.085 170.534 h 227.743 V 57.416 c -53.434 8.188 -106.224 28.87 -162.029 26.719 C 103.635 80.685 75.84 68.62 49.125 55.692 c 2.583 12.067 6.893 24.993 8.618 37.922 C 63.774 118.606 66.792 144.678 68.085 170.534 z" fill="#fff"/><path d="M 120.345 332.777 c 6.417 42.017 22.074 102.776 67.105 118.505 c 7.756 3.445 15.513 5.169 25.425 -2.587 v 90.928 c -54.081 -32.539 -100.191 -71.752 -120.659 -140.7 c -10.773 -34.258 -13.358 -70.455 -13.358 -106.438 h 134.017 v 40.292 H 120.345 z" fill="#ee3124"/><path d="M 429.414 552.548 c -8.401 -4.311 -20.036 -6.035 -19.606 -15.945 c 1.724 -35.55 -2.155 -73.04 -25.854 -100.621 c 35.765 -16.805 44.601 -44.815 42.876 -76.487 c -2.371 -48.048 -37.277 -67.441 -91.786 -67.441 H 240.67 c 10.342 9.481 10.342 10.342 10.342 23.056 v 220.202 c 0 8.618 0 13.359 -13.789 18.531 l 64.208 33.823 V 444.171 h 38.353 c 19.82 11.85 28.225 34.043 29.516 58.173 c -1.292 32.538 -11.419 68.302 -24.776 94.804 L 429.414 552.548 z" fill="#ee3124"/><path d="M 557.396 436.415 c 0 0 20.255 -34.906 .866 -46.543 c 28.872 -18.743 42.662 -97.387 -.432 -97.387 H 442.775 v 252.306 C 453.977 543.498 532.259 485.291 557.396 436.415 z" fill="#ee3124"/><path d="M 344.954 403.233 c 38.565 0 42.015 -70.457 6.035 -70.457 h -49.558 v 70.457 H 344.954 z" fill="#fff"/><path d="M 544.688 351.737 c 3.016 -6.895 7.326 -18.961 -5.17 -18.961 h -57.529 v 41.8 h 34.256 C 530.035 374.577 542.101 357.341 544.688 351.737 z" fill="#fff"/><path d="M 520.985 420.903 c .432 -4.741 -7.756 -11.636 -12.499 -11.636 h -26.498 v 60.329 C 497.716 469.596 519.262 433.398 520.985 420.903 z" fill="#fff"/></svg>