<?xml version="1.0" encoding="UTF-8" standalone="no"?>
<svg
   xmlns:dc="http://purl.org/dc/elements/1.1/"
   xmlns:cc="http://creativecommons.org/ns#"
   xmlns:rdf="http://www.w3.org/1999/02/22-rdf-syntax-ns#"
   xmlns:svg="http://www.w3.org/2000/svg"
   xmlns="http://www.w3.org/2000/svg"
   xmlns:sodipodi="http://sodipodi.sourceforge.net/DTD/sodipodi-0.dtd"
   xmlns:inkscape="http://www.inkscape.org/namespaces/inkscape"
   version="1.1"
   id="Layer_1"
   x="0px"
   y="0px"
   viewBox="0 0 1000 1000"
   xml:space="preserve"
   sodipodi:docname="Parana.svg"
   width="1000"
   height="1000"
   inkscape:version="1.0.1 (3bc2e813f5, 2020-09-07)"><metadata
   id="metadata29"><rdf:RDF><cc:Work
       rdf:about=""><dc:format>image/svg+xml</dc:format><dc:type
         rdf:resource="http://purl.org/dc/dcmitype/StillImage" /><dc:title></dc:title></cc:Work></rdf:RDF></metadata><defs
   id="defs27" /><sodipodi:namedview
   pagecolor="#ffffff"
   bordercolor="#666666"
   borderopacity="1"
   objecttolerance="10"
   gridtolerance="10"
   guidetolerance="10"
   inkscape:pageopacity="0"
   inkscape:pageshadow="2"
   inkscape:window-width="1920"
   inkscape:window-height="1017"
   id="namedview25"
   showgrid="false"
   inkscape:zoom="0.863"
   inkscape:cx="500"
   inkscape:cy="500"
   inkscape:window-x="-8"
   inkscape:window-y="-8"
   inkscape:window-maximized="1"
   inkscape:current-layer="Layer_1" />










<g
   id="g865"
   transform="matrix(4.5238095,0,0,4.5238095,221.20976,-45.119047)"><path
     style="fill:#e25645"
     d="m 127.898,15.5 v 51 c -7.25,0 -13.127,5.878 -13.127,13.129 0,7.251 5.877,13.128 13.127,13.128 v 85.745 c 0,14.639 -16.569,31.319 -31.106,31.319 H 78.75 c -4.052,0 -12.848,2.7 -17.102,12.923 L 60.5,225.5 59.353,222.744 C 55.097,212.521 46.304,209.821 42.25,209.821 H 24.209 c -14.537,0 -31.108,-16.681 -31.108,-31.319 V 92.757 C 0.352,92.757 6.23,86.88 6.23,79.629 6.23,72.378 0.352,66.5 -6.899,66.5 v -51 z"
     id="path2" /><path
     style="fill:#ffffff"
     d="m 125.413,17.986 v 46.352 c -7.373,1.19 -13.005,7.582 -13.005,15.291 0,7.71 5.632,14.102 13.005,15.292 v 83.581 c 0,13.203 -15.517,28.832 -28.621,28.832 H 78.75 c -5.965,0 -13.814,4.084 -18.25,12.539 -4.436,-8.455 -12.284,-12.539 -18.25,-12.539 H 24.209 c -13.105,0 -28.621,-15.629 -28.621,-28.832 V 94.921 C 2.961,93.731 8.593,87.339 8.593,79.629 8.593,71.92 2.961,65.528 -4.412,64.338 V 17.986 Z"
     id="path4" /><path
     style="fill:#e25645"
     d="m 115.458,28.149 v 28.059 c -8.375,4.458 -14.079,13.271 -14.079,23.421 0,10.149 5.704,18.963 14.079,23.421 v 73.163 c -0.34,3.109 -1.005,5.774 -1.937,8.06 -1.929,4.724 -5.008,7.809 -8.765,9.788 -4.192,2.211 -9.233,2.734 -14.464,2.922 L 78.75,196.96 c 0,0 -2.316,0.14 -5.105,0.876 -4.274,1.115 -8.525,2.639 -13.145,6.388 -4.618,-3.749 -8.869,-5.272 -13.144,-6.388 C 44.567,197.1 42.25,196.96 42.25,196.96 l -11.542,0.022 c -5.231,-0.188 -10.271,-0.711 -14.464,-2.922 -3.757,-1.979 -6.835,-5.064 -8.764,-9.788 -0.932,-2.285 -1.596,-4.95 -1.937,-8.06 V 103.05 C 13.917,98.592 19.621,89.779 19.621,79.629 19.621,69.479 13.917,60.666 5.543,56.208 V 28.149 Z"
     id="path6" /><path
     style="fill:#1e64ab"
     d="m 88.708,37.066 h 3.938 l -2.486,3.318 h -2.903 z m 5.388,8.503 v 22.398 h -4.353 v -0.829 c -0.208,0.208 -0.833,0.621 -1.243,0.621 -0.208,0.208 -1.042,0.416 -1.453,0.416 -0.832,0 -1.867,-0.416 -2.283,-1.037 -0.416,-0.83 -0.617,-2.281 -0.617,-4.15 v -6.013 c 0,-0.622 0,-1.452 0.201,-1.864 0.416,-0.417 1.041,-1.039 2.075,-1.452 L 89.743,52 v -6.431 -0.622 c -0.208,0 -0.416,-0.208 -0.416,-0.208 -0.619,0 -0.827,0.208 -0.827,0.208 v 1.038 4.771 h -4.354 v -5.187 c 0,-1.451 0.201,-2.486 1.033,-2.903 0.625,-0.621 2.077,-0.83 3.73,-0.83 2.076,0 3.527,0.209 3.943,0.83 1.037,0.417 1.244,1.452 1.244,2.903 m -4.353,9.749 -1.035,0.622 -0.208,0.414 v 0.418 0.204 7.052 0.83 c 0,0 0.208,0.207 0.827,0.207 l 0.208,-0.207 c 0.208,0 0.208,-0.414 0.208,-0.83 z M 82.486,46.815 V 67.968 H 78.131 V 45.569 c 0,-0.414 -0.208,-0.622 -0.208,-0.622 0,0 -0.208,-0.208 -0.416,-0.208 -0.208,0 -0.416,0.208 -0.416,0.208 0,0.208 -0.417,0.622 -0.417,1.038 V 67.967 H 72.528 V 42.045 h 4.146 v 1.038 c 0.417,-0.417 0.833,-0.624 1.249,-1.038 0.208,-0.209 1.035,-0.209 1.452,-0.209 1.036,0 1.868,0.209 2.279,1.039 0.623,0.621 0.832,2.072 0.832,4.354 V 46.815 Z M 70.661,45.569 v 22.398 h -4.146 v -0.829 c -0.414,0.208 -0.83,0.621 -1.246,0.621 -0.416,0.208 -1.037,0.416 -1.449,0.416 -1.243,0 -1.868,-0.416 -2.49,-1.037 -0.208,-0.83 -0.622,-2.281 -0.622,-4.15 v -6.013 c 0,-0.622 0.209,-1.452 0.414,-1.864 0.208,-0.417 1.038,-1.039 1.66,-1.452 L 66.516,52 v -6.431 -0.622 c -0.414,0 -0.623,-0.208 -0.83,-0.208 -0.207,0 -0.416,0.208 -0.416,0.208 0,0.208 -0.207,0.622 -0.207,1.038 v 4.771 h -4.354 v -5.187 c 0,-1.451 0.414,-2.486 1.244,-2.903 0.625,-0.621 1.868,-0.83 3.733,-0.83 1.866,0 3.112,0.209 3.939,0.83 0.833,0.417 1.036,1.452 1.036,2.903 m -4.145,9.749 -1.037,0.622 -0.209,0.413 c 0,0 -0.207,0.208 -0.207,0.418 v 0.204 7.052 c 0,0.416 0.207,0.83 0.207,0.83 0,0 0.209,0.207 0.416,0.207 0.207,0 0.416,-0.207 0.416,-0.207 0.414,0 0.414,-0.414 0.414,-0.83 z m -6.224,-8.503 v 5.598 H 55.729 V 45.57 44.948 c -0.413,0 -0.621,-0.208 -0.621,-0.208 -0.205,0 -0.621,0.208 -0.621,0.208 v 1.038 21.982 H 50.132 V 42.045 h 4.355 v 1.038 c 0.208,-0.417 0.621,-0.624 0.829,-1.038 0.622,-0.209 1.038,-0.209 1.66,-0.209 1.035,0 1.865,0.209 2.281,1.039 0.414,0.621 1.035,2.072 1.035,3.94 m -11.82,-1.246 v 22.398 h -4.354 v -0.829 c -0.208,0.208 -1.038,0.621 -1.246,0.621 -0.413,0.208 -0.83,0.416 -1.452,0.416 -1.243,0 -1.864,-0.416 -2.28,-1.037 -0.622,-0.83 -0.83,-2.281 -0.83,-4.15 v -6.013 c 0,-0.622 0.208,-1.452 0.621,-1.864 0.209,-0.417 0.83,-1.039 1.66,-1.452 L 44.118,52 v -6.431 c 0,-0.414 -0.208,-0.622 -0.208,-0.622 0,0 -0.208,-0.208 -0.416,-0.208 -0.414,0 -0.622,0.208 -0.622,0.208 0,0.208 -0.205,0.622 -0.205,1.038 v 4.771 H 38.31 v -5.187 c 0,-1.451 0.621,-2.486 1.246,-2.903 0.413,-0.621 1.864,-0.83 3.524,-0.83 2.073,0 3.524,0.209 4.149,0.83 0.83,0.417 1.243,1.452 1.243,2.903 m -4.354,9.749 -1.038,0.622 c -0.208,0 -0.208,0.413 -0.208,0.413 0,0 -0.205,0.208 -0.205,0.418 v 0.204 7.052 c 0,0.416 0.205,0.83 0.205,0.83 0,0 0.208,0.207 0.622,0.207 0.208,0 0.416,-0.207 0.416,-0.207 0,0 0.208,-0.414 0.208,-0.83 z"
     id="path8" /><path
     style="fill:#1e64ab"
     d="m 51.375,133.502 c -3.111,0 -5.597,-2.485 -5.597,-5.389 0,-3.114 2.486,-5.396 5.597,-5.396 2.904,0 5.185,2.282 5.185,5.396 0,2.904 -2.281,5.389 -5.185,5.389 M 78.75,110.069 c -7.048,-7.261 -24.471,-9.126 -31.521,-3.319 l -41.686,35.861 -5.806,4.994 h 5.806 20.326 c 10.368,0 13.687,5.599 16.59,12.444 l 17.563,43.806 c 0.159,0.122 0.319,0.242 0.478,0.368 4.619,-3.749 8.87,-5.272 13.145,-6.388 2.789,-0.736 5.105,-0.876 5.105,-0.876 l 11.543,0.022 c 5.23,-0.188 10.271,-0.711 14.464,-2.922 3.757,-1.979 6.836,-5.064 8.765,-9.788 0.932,-2.285 1.597,-4.95 1.937,-8.06 v -10.773 -18.042 z"
     id="path10" /><path
     style="fill:#1e64ab"
     d="m 26.698,41.424 h 5.184 c 2.282,0 3.525,0.204 3.941,0.829 0.622,0.622 1.035,2.281 1.035,4.562 v 6.223 c 0,2.486 -0.413,3.938 -0.83,4.563 -0.621,0.622 -1.864,1.035 -3.733,1.035 h -1.034 v 9.333 h -4.563 z m 4.563,3.523 v 10.164 h 0.205 c 0.208,0 0.829,-0.417 0.829,-0.417 0.209,0 0.209,-0.622 0.209,-1.035 v -7.052 c 0,-0.622 0,-1.452 -0.209,-1.452 0,-0.208 -0.621,-0.208 -0.829,-0.208 z"
     id="path12" /><path
     style="fill:#1e64ab"
     d="m 89.743,102.187 v -9.333 h 2.075 v 7.674 h 3.111 v 1.659 z m -9.54,-9.333 h 2.074 v 9.333 h -2.074 z m -13.687,8.089 1.244,-1.451 c 0,0.621 0.413,1.035 0.622,1.035 0,0 0.624,0.208 1.035,0.208 0.208,0 1.041,-0.208 1.041,-0.208 0.203,0 0.411,-0.414 0.411,-1.035 0,-0.209 -0.411,-0.831 -1.244,-1.038 -0.208,0 -0.417,-0.622 -0.619,-0.622 -0.833,-0.208 -1.454,-0.622 -1.454,-0.829 -0.62,-0.622 -0.829,-1.038 -0.829,-1.66 0,-0.83 0.416,-1.452 0.829,-2.073 0.621,-0.208 1.656,-0.621 2.282,-0.621 0.624,0 1.243,0.205 1.451,0.413 0.417,0 0.826,0.413 1.242,1.038 l -1.242,0.829 c 0,-0.208 -0.416,-0.624 -0.416,-0.624 -0.208,0 -0.411,-0.205 -0.827,-0.205 -0.417,0 -0.625,0.205 -0.625,0.413 -0.209,0.208 -0.411,0.416 -0.411,0.83 0,0.416 0.411,0.83 1.036,1.244 l 0.416,0.416 c 0.827,0.207 1.244,0.621 1.653,0.829 0.416,0.622 0.834,1.244 0.834,1.66 0,0.83 -0.418,1.656 -0.834,2.072 -0.826,0.414 -1.653,0.832 -2.694,0.832 -0.411,0 -1.244,-0.21 -1.657,-0.21 -0.621,-0.207 -1.244,-0.621 -1.244,-1.243 m -14.933,1.244 3.32,-9.333 h 2.281 l 3.733,9.333 h -2.282 l -0.829,-2.073 h -3.527 l -0.622,2.073 z m 5.806,-3.526 -1.243,-2.902 v -0.416 -1.038 c 0,0.416 -0.208,0.624 -0.208,0.624 0,0.414 -0.209,0.83 -0.209,0.83 l -1.034,2.902 z M 41.215,97.003 h 0.413 c 0.622,0 1.452,-0.416 1.66,-0.416 0,0 0.206,-0.622 0.206,-0.828 0,-0.416 -0.206,-0.83 -0.206,-1.038 -0.208,-0.208 -1.038,-0.416 -1.66,-0.416 h -0.413 z m 4.976,5.184 h -2.697 l -2.279,-4.354 v 4.354 h -1.867 v -9.333 h 2.902 c 1.038,0 1.868,0.208 2.49,0.416 0.413,0.621 0.83,1.451 0.83,2.489 0,0.414 -0.208,1.244 -0.417,1.451 -0.413,0.414 -1.035,0.622 -1.451,0.622 z m -19.909,0 v -9.333 h 1.659 c 0.622,0 1.452,0.208 1.866,0.208 0.208,0 0.624,0.208 1.245,0.208 0,0.205 0.414,0.83 0.622,0.83 0.208,0.413 0.208,0.829 0.208,1.243 0,0.622 0,1.038 -0.416,1.244 -0.414,0.416 -1.035,0.829 -1.451,0.829 0.829,0 1.246,0.208 1.659,0.624 0.208,0.621 0.83,1.036 0.83,1.452 0,0.621 -0.209,1.035 -0.622,1.243 0,0.413 -0.416,0.829 -0.83,1.038 -0.208,0 -0.829,0.205 -1.037,0.205 -0.414,0 -1.452,0.208 -2.282,0.208 H 27.32 26.282 Z m 2.073,-5.6 h 0.208 c 0.416,0 1.038,-0.206 1.244,-0.206 0.208,0 0.208,-0.416 0.208,-0.829 0,-0.623 0,-0.831 -0.208,-0.831 -0.206,-0.208 -0.828,-0.416 -1.244,-0.416 h -0.208 z m 0,3.94 h 0.416 1.244 c 0,-0.205 0.208,-0.621 0.208,-1.035 0,-0.416 -0.208,-0.831 -0.208,-0.831 -0.208,-0.207 -0.622,-0.621 -1.244,-0.621 h -0.416 z"
     id="path14" /><path
     style="fill:#ffffff"
     d="m 84.146,83.315 c 0.201,0 1.033,-0.621 1.658,-1.451 1.035,-1.039 1.452,-2.282 1.653,-3.111 0.209,0 0,-0.417 0.209,-0.622 -0.209,0 -0.41,-0.208 -0.41,-0.208 -0.21,0 -0.834,0.413 -1.868,1.452 -0.832,1.242 -1.451,2.073 -1.66,2.694 -0.207,0.416 -0.207,0.625 0,0.829 0.001,0.417 0.21,0.417 0.418,0.417 m -1.66,0.622 c -0.209,0.208 -0.416,1.038 -0.416,1.243 -0.209,0.209 -0.625,0.625 -0.827,1.246 -0.208,0.622 -0.208,1.452 -0.208,1.66 0.208,0.206 0.41,0.413 0.826,0.413 0.832,0 1.867,-0.413 3.111,-1.243 1.45,-0.83 2.694,-2.076 3.938,-3.527 0,-0.206 0.209,-0.413 0.625,-0.83 0.416,-0.413 0.832,-0.829 0.832,-0.829 0,0 0.203,0 0.203,0.208 0.416,0.208 0.416,0.417 0.416,0.621 -0.416,0.417 -0.619,0.83 -1.035,1.246 -0.416,0.83 -1.451,1.452 -2.284,2.281 -1.244,1.035 -2.487,2.073 -3.521,2.487 -1.25,0.624 -2.076,1.037 -3.111,1.037 -1.249,0 -1.66,-0.413 -2.077,-1.037 -0.416,-0.414 -0.416,-1.452 0.209,-2.487 0.416,-1.246 1.244,-2.903 2.278,-4.978 1.041,-1.661 2.492,-3.317 3.943,-4.769 0.416,-0.208 1.034,-0.625 1.242,-0.83 0.416,-0.416 0.827,-0.416 1.036,-0.416 h 0.625 c 0.208,0 0.208,0.416 0.416,0.621 h 0.827 c 0.625,0.209 1.035,0.625 0.832,1.66 -0.624,1.66 -1.659,3.319 -3.11,4.771 -1.659,1.243 -2.909,1.865 -3.735,1.865 h -0.625 c -0.41,0 -0.41,-0.206 -0.619,-0.414 h 0.209 z"
     id="path16" /><path
     style="fill:#ffffff"
     d="m 78.75,78.336 c 0.208,0 0.417,0.209 0.417,0.625 v 0.621 c -0.417,0.621 -0.833,1.866 -1.868,3.112 -1.035,1.242 -2.277,2.902 -3.111,4.146 -0.826,0.621 -1.451,1.452 -1.867,1.659 -0.618,0.209 -1.035,0.209 -1.451,0.209 -0.619,0 -0.827,0 -1.035,-0.209 0,-0.207 0,-0.83 0.208,-1.243 0.208,-1.038 0.827,-1.867 1.451,-3.111 0.827,-0.622 1.659,-1.659 2.694,-2.696 0.834,-0.831 2.076,-1.866 2.903,-2.282 0.624,-0.622 1.451,-0.831 1.659,-0.831 M 59.465,73.773 c 1.657,-2.281 3.734,-5.184 5.598,-8.087 h 0.623 0.207 V 66.1 c -0.207,0.83 -1.451,2.698 -3.732,5.602 -1.868,2.902 -4.562,6.014 -7.052,9.124 l -0.205,0.209 c 1.242,-2.282 3.107,-4.563 4.561,-7.262 m 23.021,-6.221 c 0,-0.205 -0.209,-0.413 -0.416,-0.622 h -0.416 c -0.209,0 -0.827,0.209 -1.243,0.83 -0.208,0.621 -1.244,1.451 -2.077,2.902 -2.902,3.941 -5.389,7.674 -7.257,10.993 -0.306,0.472 -0.587,0.917 -0.849,1.338 -0.133,0.097 -0.265,0.268 -0.395,0.529 l -0.209,0.206 c -1.243,1.451 -2.282,2.489 -2.902,3.319 -0.83,0.621 -1.244,0.83 -1.66,0.83 0,0 -0.209,0 -0.209,-0.209 0.209,0 0.209,-0.413 0.416,-1.038 0.416,-1.864 2.073,-4.562 4.564,-7.67 0.416,-0.416 0.624,-0.83 0.624,-0.83 0.411,-0.208 0,-1.037 0,-1.246 -0.208,-0.205 -0.624,-0.205 -0.833,-0.205 -0.208,0 -0.827,0.205 -1.036,0.414 -0.416,0.207 -0.829,0.829 -0.829,1.242 -2.49,3.319 -4.358,5.809 -5.6,7.261 -1.243,1.451 -2.489,2.072 -2.903,2.072 -0.208,0 -0.416,0 -0.416,-0.208 0,0 0,-0.413 0.208,-1.035 0.208,-0.621 0.622,-1.659 1.659,-3.11 1.039,-1.451 2.074,-3.112 3.524,-4.771 0.209,0 0.621,-0.209 0.621,-0.414 l 0.209,-0.208 V 76.68 c -0.209,-0.208 -0.621,-0.208 -1.035,-0.208 -0.207,0 -0.416,0 -0.625,0.208 -0.203,0 -0.825,0.414 -1.033,0.621 -1.247,1.452 -2.49,3.111 -3.32,4.769 -0.482,0.771 -0.872,1.494 -1.216,2.176 -0.418,0.377 -0.743,0.822 -1.065,1.144 -1.039,0.829 -1.66,1.867 -2.489,2.28 -0.414,0.209 -1.244,0.623 -1.452,0.623 -0.205,0 -0.413,-0.414 -0.413,-0.623 0,-0.208 0,-1.243 0.208,-1.864 0.205,-0.208 0.205,-0.83 0.413,-1.038 0,-0.416 0.413,-0.83 0.622,-1.038 3.732,-3.732 7.051,-7.465 9.745,-10.99 2.699,-3.318 4.15,-5.6 4.562,-6.842 0,-0.418 0,-1.248 -0.413,-1.66 -0.413,-0.623 -1.036,-1.039 -1.45,-1.039 -0.416,0 -1.039,0.208 -1.66,0.416 -0.621,0.414 -1.039,0.83 -1.039,1.035 -0.203,0.209 0,0.416 0,0.416 l -0.203,0.414 c -1.66,2.489 -3.734,5.393 -5.601,8.09 -1.869,2.903 -3.525,5.807 -5.393,8.917 -0.208,0.209 -1.038,0.621 -1.451,0.621 -0.414,0 -0.83,0.209 -0.83,0.209 v 0.829 c 0,0.206 0.416,0.414 0.621,0.414 h 0.209 l 0.208,-0.208 v 0.208 c 0,0.208 -0.208,0.83 -0.417,1.038 0,0.208 -0.205,0.621 -0.205,0.829 -0.416,1.035 -0.416,1.866 0,2.487 0.205,0.624 0.827,1.246 1.657,1.246 0.417,0 1.038,-0.209 1.451,-0.209 0.417,-0.413 0.831,-0.83 1.455,-1.037 0.391,-0.392 0.975,-0.964 1.74,-1.378 -0.025,0.048 -0.048,0.099 -0.083,0.134 0,0.209 0.208,0.417 0.624,0.623 0,0.416 0.205,0.828 0.414,0.828 h 1.037 c 0.414,0 1.036,-0.207 2.073,-0.828 0.383,-0.384 1.479,-1.478 2.627,-2.46 -0.06,0.128 -0.136,0.257 -0.136,0.386 0,0.208 -0.417,0.413 -0.417,0.413 -0.205,1.038 -0.205,1.661 0,2.282 0.417,0.624 0.829,0.829 1.45,0.829 0.621,0 1.037,-0.205 1.453,-0.413 0.519,-0.172 1.035,-0.492 1.672,-1.067 -0.006,0.01 -0.01,0.021 -0.015,0.03 0,0.207 0,0.416 0.417,0.416 0,0 0.413,0.205 1.038,0.412 0.41,0.209 0.827,0.83 1.036,0.83 0.208,0 0.624,0.209 1.035,0.209 0.624,0 1.658,-0.209 2.283,-0.417 0.828,-0.622 1.451,-1.034 2.279,-1.656 1.039,-1.246 2.491,-2.697 3.526,-4.149 1.036,-1.451 1.661,-2.902 1.869,-3.94 0.618,-0.83 0.618,-1.865 0.208,-2.281 0,-0.83 -0.416,-1.035 -1.041,-1.035 -0.827,0 -1.452,0.205 -2.487,0.826 -0.974,0.393 -1.774,0.972 -2.901,1.904 1.381,-2.51 2.764,-4.48 4.145,-6.258 1.453,-2.281 2.285,-3.316 2.904,-3.941 0,0 0.416,-0.205 0.623,-0.413 0.619,-0.208 0.828,-0.417 0.828,-0.417 V 67.76 c 0.002,0 -0.207,-0.208 -0.617,-0.208"
     id="path18" /><path
     style="fill:#ffffff"
     d="m 54.073,64.236 c 1.035,0.207 1.865,0.828 2.281,1.66 0.206,0.62 0.622,1.45 0.206,2.279 -0.206,0.83 -0.622,1.244 -1.036,1.66 -0.416,0.205 -1.037,0.413 -1.451,0.413 -0.208,0 -0.625,0 -0.625,-0.208 -0.205,-0.205 -0.205,-1.035 0,-1.865 0,-0.416 0,-0.829 -0.205,-1.246 -0.208,-0.205 -0.829,-0.205 -1.246,-0.205 -0.83,0 -2.073,0.205 -3.525,1.035 -1.451,1.246 -3.11,2.489 -4.562,4.357 -2.49,1.865 -4.77,4.563 -6.222,7.049 -1.865,2.903 -3.319,5.601 -3.941,7.674 -0.413,1.659 -0.413,2.697 0,3.526 0.208,1.035 1.247,1.452 2.49,1.452 0.829,0 1.868,0 2.694,-0.417 1.038,-0.205 2.284,-1.035 3.528,-1.659 0.621,-0.205 1.451,-0.829 2.489,-1.243 1.035,-0.621 1.451,-1.243 1.865,-1.243 0.208,0 0.416,0.413 0.416,0.413 -0.208,0 0,0.209 0,0.417 -0.208,0.413 -0.416,0.827 -1.038,1.243 -0.413,0.413 -1.66,1.037 -2.281,1.867 -1.451,0.827 -2.903,1.657 -4.149,1.865 -1.451,0.829 -2.695,1.243 -3.524,1.243 -2.49,0 -4.15,-0.83 -5.185,-2.072 -1.037,-1.245 -1.245,-3.319 -0.416,-5.393 0.416,-2.281 2.076,-4.771 4.15,-7.879 2.072,-3.319 4.975,-6.639 8.086,-9.75 1.659,-2.281 3.319,-3.938 4.979,-4.768 1.243,-1.038 2.489,-1.659 3.316,-1.659 0.208,0 0.83,0.413 1.247,0.413 0.621,0.208 1.034,0.83 1.451,1.039 h 0.208 z"
     id="path20" /><path
     style="fill:#ffffff"
     d="m 104.257,157.975 c 0,2.694 -2.069,4.77 -4.764,4.77 -1.741,0 -3.216,-0.864 -4.046,-2.197 -0.832,1.333 -2.309,2.197 -4.045,2.197 -1.811,0 -3.338,-0.939 -4.147,-2.371 -0.583,1.029 -1.532,1.806 -2.698,2.158 v 36.296 h -2.488 v -36.192 c -1.424,-0.298 -2.584,-1.203 -3.215,-2.452 -0.778,1.539 -2.359,2.561 -4.25,2.561 -1.735,0 -3.211,-0.864 -4.045,-2.199 -0.832,1.335 -2.309,2.199 -4.043,2.199 -2.695,0 -4.769,-2.075 -4.769,-4.77 0,-2.695 2.073,-4.77 4.769,-4.77 1.734,0 3.211,0.865 4.043,2.198 0.834,-1.333 2.31,-2.198 4.045,-2.198 1.891,0 3.472,1.021 4.25,2.561 0.779,-1.54 2.361,-2.561 4.252,-2.561 1.813,0 3.34,0.938 4.149,2.371 0.81,-1.433 2.337,-2.371 4.147,-2.371 1.736,0 3.213,0.864 4.045,2.197 0.83,-1.333 2.305,-2.197 4.046,-2.197 2.695,-0.001 4.764,2.074 4.764,4.77"
     id="path22" /></g>
</svg>
