<?xml version="1.0" encoding="iso-8859-1"?>
<!-- Generator: Adobe Illustrator 24.0.1, SVG Export Plug-In . SVG Version: 6.00 Build 0)  -->
<svg version="1.1" id="Layer_1" xmlns="http://www.w3.org/2000/svg" xmlns:xlink="http://www.w3.org/1999/xlink" x="0px" y="0px"
	 viewBox="0 0 600 600" style="enable-background:new 0 0 600 600;" xml:space="preserve">
<g>
	<path d="M290.82,592.896l-7.221-4.304l-7.637-3.887l-7.915-3.75l-8.33-3.333l-8.609-3.191l-8.746-2.919l-18.33-5.414
		c-19.439-5.277-38.879-9.996-58.18-15.134l-19.718-5.693l-9.719-3.193l-9.581-3.333l-9.581-3.748l-9.305-4.028l-9.163-4.304
		l-9.026-4.859l-8.748-5.138l-8.47-5.693l-8.192-6.249l-7.776-6.803l-7.359-7.499l-7.083-8.055l-6.525-8.607l-6.109-9.444
		l-5.553-10.135l-5.002-10.968l-4.026-10.692l-3.333-10.691l-2.499-10.417L7.42,401l-0.973-10.275l-0.416-9.998l0.278-9.996
		l0.972-9.722l1.25-9.719l1.943-9.442l2.223-9.165l2.638-9.164l2.917-9.026l3.191-8.887l3.473-8.749l7.359-16.938
		c7.36-15.969,15.135-31.658,22.494-47.487l6.387-14.581l2.778-7.22l2.499-6.803l2.084-6.806l1.665-6.664l1.25-6.387
		c1.388-11.803,2.222-23.885,1.665-35.825c-0.277-4.304-0.833-8.47-1.527-12.775c-0.695-3.471-1.665-6.803-2.638-10.135
		c-0.972-2.638-1.943-5.278-3.054-7.777c-1.389-2.778-2.778-5.418-4.165-7.915c-1.807-2.775-3.473-5.553-5.416-8.192
		c-3.196-4.304-6.527-8.192-10-12.219l86.646-89.003c6.109,3.608,12.358,7.08,18.606,10.552c6.664,3.47,13.468,6.941,20.411,10.275
		c6.942,3.193,13.884,6.248,20.968,9.303c7.081,2.776,14.024,5.414,21.243,8.054c6.942,2.359,14.024,4.581,21.107,6.663
		c6.941,1.806,13.885,3.612,20.966,4.999c5.139,1.111,10.136,1.943,15.275,2.778c4.999,0.694,9.997,1.248,14.997,1.664
		c4.859,0.28,9.581,0.556,14.44,0.556c4.582,0,9.442-0.276,14.302-0.556c4.999-0.416,9.857-1.11,14.856-1.805
		c5.139-0.835,10.275-1.666,15.413-2.778c7.081-1.527,13.885-3.33,20.829-5.274c7.223-2.083,14.164-4.445,21.245-6.804
		c7.082-2.639,14.162-5.416,21.103-8.333c7.082-2.915,14.027-6.108,20.971-9.302c6.942-3.472,13.743-6.944,20.549-10.414
		c6.111-3.47,12.359-6.942,18.467-10.552l88.312,87.477l-8.192,9.303c-2.083,2.639-4.026,5.277-5.831,8.054
		c-1.667,2.637-3.195,5.275-4.585,8.051c-1.389,2.64-2.498,5.278-3.607,7.917c-0.973,2.64-1.806,5.278-2.638,8.054
		c-1.111,4.441-1.947,8.749-2.499,13.33c-0.556,4.442-0.833,8.888-0.972,13.47c0,7.22,0.416,14.577,0.832,21.8l0.692,6.385
		l1.251,6.39l1.667,6.525l2.083,6.804l2.36,6.943l5.97,14.3c6.942,15.691,14.582,30.967,21.94,46.517l7.635,16.661l3.614,8.611
		l3.332,8.746l3.331,8.887l2.916,9.024l2.641,9.165l2.221,9.165l1.944,9.582l1.25,9.581l0.973,9.86l0.276,9.857l-0.415,10.135
		l-0.974,10.275l-1.667,10.276l-2.497,10.551l-3.193,10.693l-4.167,10.691l-4.997,10.831l-5.556,10.137l-6.109,9.442l-6.526,8.747
		l-6.942,8.052l-7.497,7.362l-7.779,6.802l-8.19,6.25l-8.47,5.833l-8.749,5.137l-8.887,4.86l-9.162,4.304l-9.444,4.027l-9.58,3.747
		l-9.581,3.335l-19.579,6.109c-16.245,4.581-32.629,8.887-48.874,13.051c-9.445,2.5-18.886,5.137-28.326,7.917l-9.028,2.775
		l-8.885,3.055l-8.608,3.196l-8.193,3.468l-8.055,3.75l-7.499,4.026l-7.359,4.306l-9.858,6.942L290.82,592.896z"/>
</g>
<path style="fill:#FFFFFF;" d="M272.354,570.956l-8.749-3.471l-8.886-3.332l-9.026-3.054l-18.746-5.553
	c-19.438-5.278-38.878-9.999-58.179-15.137l-19.3-5.695l-9.581-3.054l-9.304-3.193l-9.165-3.61l-9.024-3.749l-8.749-4.168
	l-8.47-4.581l-8.331-4.999l-7.915-5.277l-7.636-5.832l-7.222-6.387l-6.941-6.803l-6.526-7.499l-5.972-8.054l-5.692-8.747
	l-5.137-9.58l-4.723-10.135l-3.887-10.138l-3.054-9.858l-2.362-9.86l-1.526-9.581l-0.973-9.579l-0.278-9.305l0.278-9.304
	l0.833-9.165l1.251-9.163l1.803-8.887l2.085-8.746l2.498-8.75l2.918-8.747l3.054-8.469l6.803-16.8l7.498-16.386
	c6.249-13.192,12.636-26.245,18.747-39.295c3.332-7.5,6.525-14.858,9.442-22.496l2.637-7.359l2.221-7.222l1.807-7.221l1.388-7.081
	l0.97-9.858c0.696-8.47,1.112-16.8,0.834-25.411c-0.138-3.748-0.415-7.497-0.834-11.248c-0.555-4.027-1.389-7.773-2.221-11.524
	c-0.833-3.054-1.806-5.97-2.776-8.888c-1.25-2.915-2.499-5.83-3.888-8.746c-1.665-3.054-3.332-6.112-5.138-9.027
	c-2.499-3.886-5.276-7.635-8.193-11.384l73.869-75.675c17.357,9.997,35.408,18.744,53.877,26.52
	c7.22,2.916,14.439,5.553,21.798,8.193c5.416,1.804,10.83,3.611,16.385,5.275c7.222,2.082,14.302,4.028,21.661,5.694
	c5.416,1.25,10.691,2.222,16.107,3.193c5.278,0.833,10.415,1.528,15.691,2.084c5.275,0.555,10.275,0.831,15.412,0.972
	c5.139,0.139,9.997,0,15.136-0.141c5.138-0.416,10.415-0.831,15.553-1.387c5.414-0.832,10.69-1.667,15.966-2.638
	c5.418-1.111,10.695-2.36,16.109-3.61c5.416-1.388,10.97-2.915,16.383-4.582c9.164-2.916,18.19-6.111,27.216-9.442l10.831-4.445
	c18.467-7.912,36.517-16.661,53.875-26.658l75.122,74.286c-3.056,3.471-5.696,7.08-8.194,10.83
	c-1.944,3.056-3.613,5.972-5.275,9.026c-1.392,3.055-2.777,5.972-4.027,9.026c-0.973,3.056-1.943,5.971-2.916,9.025
	c-0.972,3.887-1.806,7.915-2.501,11.941c-0.416,3.888-0.833,7.775-1.112,11.666c-0.275,7.774-0.137,15.41,0.279,23.186l0.417,5.693
	l0.694,6.942l1.388,7.223l1.807,7.08l2.219,7.36l2.64,7.22l5.971,14.857c7.081,15.83,14.719,31.243,22.217,46.933l7.358,16.386
	l6.944,16.802l3.054,8.607l2.917,8.61l2.498,8.747l2.084,8.747l1.803,9.027l1.251,9.026l0.834,9.164l0.277,9.302l-0.277,9.443
	l-0.973,9.441l-1.525,9.72l-2.362,9.719l-3.055,9.999l-3.888,9.997l-4.581,10.275l-5.276,9.442l-5.555,8.746l-6.109,8.195
	l-6.526,7.359l-6.942,6.941l-7.222,6.249l-7.636,5.833l-7.915,5.417l-8.192,4.996l-8.608,4.444l-8.749,4.167l-9.026,3.889
	l-9.164,3.608l-9.304,3.333l-19.161,5.969c-16.106,4.582-32.352,8.749-48.596,12.914c-9.583,2.5-19.163,5.138-28.744,7.917
	l-9.305,2.915l-9.024,3.194l-8.888,3.331l-8.747,3.611l-8.47,3.888l-8.056,4.305l-7.775,4.721l-4.166,2.915l-4.163-2.915
	l-7.776-4.582l-8.054-4.165L272.354,570.956z"/>
<polygon points="300.957,278.392 350.528,237.988 350.528,566.514 300.957,591.091 "/>
<polygon points="399.264,199.802 449.391,159.396 448.697,539.853 399.264,554.434 "/>
<path d="M498.545,125.098l49.709-40.547c-44.015,55.682-26.797,110.945-0.695,166.072l-0.553,236.326l-48.461,36.103V125.098z"/>
<polygon points="103.784,427.798 152.938,389.892 152.938,542.076 103.784,522.636 "/>
<polygon points="202.093,351.846 251.108,314.078 251.108,567.485 202.093,553.737 "/>
<polygon points="460.361,122.876 437.729,52.339 446.337,45.536 508.681,84.969 500.768,91.216 482.716,79.278 461.056,96.494 
	467.998,116.905 "/>
<path d="M416.067,157.867l-43.046-54.568l24.716-19.44c2.776-2.362,5.553-3.75,8.61-4.305c3.331-0.417,6.385-0.276,9.439,0.831
	c2.643,1.112,5.278,3.057,7.362,5.693c1.39,1.668,2.502,3.474,3.054,5.696c0.834,1.804,0.834,3.748,0.834,5.553
	c-0.415,2.082-0.834,3.609-1.806,5.553c3.473-1.248,7.36-1.664,10.83-1.109c3.333,0.416,6.111,2.222,8.61,5.416
	c2.64,3.468,4.444,7.08,5.138,11.247c0.417,3.61,0,7.36-1.527,10.83c-1.389,3.191-3.889,6.387-6.944,8.608L416.067,157.867z"/>
<polygon points="363.44,199.246 340.67,128.57 349.278,121.905 411.762,161.338 403.708,167.448 385.935,155.646 363.998,172.863 
	370.938,193.275 "/>
<path d="M291.515,212.576c0,0-0.417-0.416-0.694-0.695c-0.139-0.416-0.417-0.555-0.555-0.833c-3.471-4.444-5.971-9.303-7.637-14.857
	c-1.389-5.555-1.389-11.108,0.277-16.801c1.668-5.695,5.277-10.83,11.109-15.969c2.777-2.499,6.526-4.305,10.69-5.972
	c4.027-1.387,8.334-2.082,12.915-1.387c4.582,0.833,9.304,3.054,13.468,6.804l-7.359,5.693c-3.75-2.918-8.054-4.306-12.082-4.166
	c-3.887,0.275-8.19,2.081-11.523,4.996c-0.694,0.142-1.25,0.834-2.083,1.808c-0.971,0.832-1.666,1.665-2.082,2.081
	c-2.362,2.362-3.888,5.832-4.721,9.581c-0.556,3.334-0.417,7.359,0.833,11.247c1.249,3.888,3.471,7.638,6.526,11.525
	c3.055,4.028,6.249,7.082,9.304,9.165c3.332,2.221,6.386,3.889,9.441,4.442c3.056,0.695,5.692,0.695,8.332,0
	c2.917-0.694,5.415-1.805,7.636-3.609v-0.418l0.139-0.275c4.999-3.889,7.638-8.193,8.473-13.192
	c0.833-4.722-0.28-9.858-3.335-15.136l7.359-5.83c2.777,4.581,4.583,9.024,4.999,14.023c0.418,4.581-0.277,9.582-2.081,14.024
	c-2.083,4.582-5.278,8.608-9.444,12.359c-4.304,3.193-8.609,5.415-12.912,6.525c-4.305,0.973-8.749,1.249-12.497,0
	c-4.027-0.835-8.194-2.638-11.664-5.277C298.597,219.935,294.987,216.603,291.515,212.576z"/>
<polygon points="262.078,190.636 304.846,245.345 297.902,250.761 254.857,196.191 "/>
<path d="M219.866,269.089c0,0-0.278-0.694-0.416-0.833c-0.416-0.417-0.555-0.693-0.833-0.834c-3.472-4.303-5.971-9.441-7.498-14.718
	c-1.527-5.833-1.527-11.247,0.139-16.801c1.666-5.973,5.277-11.107,11.108-16.245c2.776-2.223,6.666-4.027,10.832-5.833
	c4.026-1.527,8.33-1.944,12.913-1.527c4.582,0.832,9.303,3.054,13.468,6.804l-7.22,5.971c-3.888-3.056-7.915-4.582-12.218-4.305
	c-3.889,0.139-8.053,1.945-11.664,4.86c-0.694,0.418-1.249,0.834-1.806,1.806c-1.251,0.832-1.943,1.666-2.359,2.082
	c-2.223,2.638-3.611,5.972-4.722,9.582c-0.555,3.472-0.415,7.359,0.834,11.248c1.249,3.886,3.471,7.636,6.525,11.523
	c3.333,4.167,6.387,7.22,9.442,9.165c3.333,2.359,6.386,3.886,9.442,4.583c3.055,0.555,5.693,0.555,8.61,0
	c2.637-0.833,5.136-1.804,7.359-3.75v-0.416l0.277-0.14c4.862-3.747,7.777-8.191,8.469-13.329c0.696-4.721-0.276-9.859-3.47-15.135
	l7.359-5.692c2.917,4.443,4.584,9.026,5,13.884c0.555,4.721,0,9.581-2.083,14.304c-2.083,4.582-5.137,8.471-9.442,12.078
	c-4.305,3.473-8.332,5.556-12.914,6.528c-4.305,1.111-8.47,1.248-12.357,0.276c-4.166-1.112-8.192-2.916-11.802-5.415
	C227.226,276.171,223.337,272.977,219.866,269.089z"/>
<polygon points="190.568,335.322 168.073,264.784 176.406,257.981 238.889,297.277 230.837,303.664 213.064,291.722 191.401,308.94 
	198.207,329.35 "/>
<path d="M143.358,372.535l-43.044-54.569l25.965-20.412c3.332-2.777,6.387-4.305,9.996-5.416c3.611-0.555,7.083-0.555,10.277,0.417
	c3.47,1.111,6.526,3.056,9.025,6.386c4.721,5.972,5.553,12.082,2.915,18.469c2.223-1.112,4.723-1.112,6.666-0.278
	c2.36,0.834,4.304,2.222,5.972,3.888c1.804,1.808,4.165,4.443,6.524,7.776c2.5,2.64,4.168,4.722,5.833,5.971
	c1.388,1.251,3.055,1.388,4.442,0.835l0.835,1.248l-8.61,6.527c-2.081-1.25-4.721-3.611-7.775-7.359
	c-2.918-3.473-5.277-6.249-6.804-7.637c-1.25-1.668-3.473-2.5-5.832-2.639c-2.361-0.556-5.416,0.832-8.472,3.331l-19.022,14.719
	l18.19,23.189L143.358,372.535z"/>
<polygon points="89.066,326.712 132.11,381.282 125.031,386.836 81.844,332.267 "/>
<path d="M64.905,396.556l18.191,23.189l-7.081,5.556l-43.044-54.71l24.298-19.022c3.194-2.501,6.803-4.028,9.858-4.723
	c3.749-0.553,6.945-0.138,9.998,0.835c3.331,1.387,6.249,3.47,8.47,6.523c2.222,2.64,3.471,5.834,4.304,9.304
	c0.835,3.196,0.558,6.251-0.693,9.999c-0.971,3.47-3.473,6.804-7.08,9.581L64.905,396.556z"/>
<g>
	<path d="M124.613,162.867c0,0-0.418,0.415-0.418,0.693c0,0.277,0,0.694,0,1.109c0,0.834,0.418,1.251,1.251,1.667
		c0.833,0.417,2.499,0.556,4.582,0.556v11.247h-29.16v-11.247h2.499c3.333,0,6.109-1.389,7.776-4.443h0.416l15.552-28.048
		l-14.304-31.381c-0.832-1.804-2.08-3.471-2.914-4.027c-1.25-0.415-2.362-0.832-4.027-0.832c-0.416,0-0.416,0-0.833,0
		c-0.418,0-0.832,0-0.832,0V86.914h32.492v11.247c-1.807,0-3.055,0.417-3.887,0.832c-0.696,0.416-1.113,0.972-1.113,1.804
		c0,0,0,0.419,0,0.835s0.417,0.831,0.417,1.248l6.25,13.192l6.942-13.192c0-0.417,0-0.832,0.415-1.248c0-0.416,0-0.416,0-0.835
		c0-0.832-0.415-1.388-1.25-1.804c-0.693-0.415-1.943-0.832-3.608-0.832V86.914h26.937v11.247c-0.278,0-0.693,0-1.111,0
		c-0.417,0-0.417,0-0.833,0c-1.665,0-2.916,0-4.165,0.832c-0.835,0.416-1.944,1.804-3.196,4.027l-14.439,25.132l15.968,34.297
		c0.832,1.388,2.082,3.054,2.916,3.887c1.251,0.556,2.916,0.973,4.581,0.973c0.278,0,0.695,0,1.111,0c0,0,0.417-0.417,0.833-0.417
		v11.247h-35.406v-11.247c2.639,0,4.721,0,5.555-0.14c1.249-0.417,1.665-1.249,1.665-2.083c0-0.415,0-1.109-0.415-1.803l0,0
		l-7.221-16.664L124.613,162.867L124.613,162.867z M225.004,103.437v-0.416c0-0.14,0-0.14,0-0.558c0-1.247-0.417-2.082-1.25-2.498
		c-0.832-0.416-2.499-0.556-4.859-0.556V88.163h25.687v11.246h-1.666c-1.945,0-3.194,0.14-4.027,0.556
		c-0.417,0.416-1.251,1.667-1.666,3.055l-17.219,76.37H200.15l-16.386-76.928c-0.277-1.247-0.694-2.082-1.526-2.498
		c-0.834-0.556-2.084-0.556-3.334-0.556c0,0-0.417,0-0.831,0c-0.419,0-0.835,0-0.835,0V88.163h34.158v11.246
		c-2.36,0-4.441,0.14-5.275,0.556c-1.39,0.416-1.806,1.251-1.806,2.498c0,0,0,0.417,0,0.558v0.416l9.166,53.874L225.004,103.437z"/>
</g>
<polygon style="fill:#FFFFFF;" points="458.138,88.163 474.941,74.972 448.004,57.199 "/>
<path style="fill:#FFFFFF;" d="M398.57,120.377l14.302-11.248c3.888-3.055,5.97-5.693,6.248-8.608c0.417-2.778-0.416-5-1.664-7.36
	c-2.501-3.056-5.137-4.72-7.778-4.72c-2.636-0.14-6.109,1.111-9.858,3.887l-14.581,11.522L398.57,120.377z"/>
<path style="fill:#FFFFFF;" d="M418.705,146.203l17.355-13.748c2.222-1.803,3.891-3.885,4.863-6.108
	c0.833-2.082,1.111-4.026,0.414-6.387c-0.138-1.806-0.973-3.888-2.22-4.997c-2.499-3.334-5.275-5.138-8.61-5.554
	c-3.194-0.419-7.359,1.387-12.497,5.274l-14.855,11.942L418.705,146.203z"/>
<polygon style="fill:#FFFFFF;" points="361.082,164.395 377.882,151.203 350.944,133.567 "/>
<polygon style="fill:#FFFFFF;" points="188.345,300.332 205.15,287.279 178.073,269.646 "/>
<path style="fill:#FFFFFF;" d="M126.973,337.128l19.162-14.858c2.083-1.665,3.471-3.749,4.305-5.555
	c1.111-2.081,1.248-4.027,0.832-5.97c-0.554-2.222-1.249-3.887-2.499-5.415c-2.221-2.778-4.442-4.305-7.359-4.999
	c-2.777-0.556-5.831,0.276-9.165,2.637l-19.855,15.83L126.973,337.128z"/>
<path style="fill:#FFFFFF;" d="M45.051,371.424l15.134,19.302l14.997-11.663c7.496-5.972,8.607-12.357,3.193-18.884
	c-4.721-5.973-10.83-6.389-18.19-0.558L45.051,371.424z"/>
<g>
	<polygon points="18.056,354.188 14.196,348.942 462.636,4.144 466.496,9.387 	"/>
</g>
<g>
	<polygon points="48.66,474.593 44.771,469.317 546.866,81.913 550.754,87.19 	"/>
</g>
</svg>
