<?xml version="1.0" encoding="iso-8859-1"?>
<!-- Generator: Adobe Illustrator 24.0.1, SVG Export Plug-In . SVG Version: 6.00 Build 0)  -->
<svg version="1.1" id="Layer_1" xmlns="http://www.w3.org/2000/svg" xmlns:xlink="http://www.w3.org/1999/xlink" x="0px" y="0px"
	 viewBox="0 0 612 792" style="enable-background:new 0 0 612 792;" xml:space="preserve">
<path style="fill:#4764AF;" d="M275.282,678.982l-2.522-58.927c-17.223-2.555-33.814-7.045-49.545-13.245l0,0l-31.632,49.742
	l-53.65-30.975l27.283-52.301c-13.407-10.68-25.574-22.849-36.254-36.255l0,0l-52.301,27.283l-30.975-53.653l49.742-31.628
	c-6.201-15.73-10.69-32.322-13.244-49.545l0,0l-58.925-2.522v-61.95l58.925-2.523c2.555-17.223,7.044-33.814,13.244-49.546l0,0
	l-49.742-31.631l30.975-53.65l52.304,27.283c10.678-13.405,22.845-25.572,36.252-36.252l0,0l-27.283-52.304l53.65-30.975
	l31.632,49.742c15.731-6.2,32.323-10.689,49.545-13.244l0,0l2.522-58.925h61.95l2.524,58.925
	c17.225,2.555,33.813,7.044,49.545,13.244l0,0l31.63-49.742l53.652,30.975L447.3,218.688c13.404,10.68,25.573,22.848,36.253,36.252
	l0,0l52.301-27.283l30.978,53.65l-49.744,31.631c6.2,15.732,10.69,32.324,13.242,49.546l0,0l58.93,2.521v59.58v2.373l-58.93,2.522
	c-2.552,17.223-7.041,33.814-13.242,49.545l0,0l49.744,31.632l-30.978,53.649l-52.301-27.283
	c-10.68,13.408-22.847,25.574-36.253,36.255l0,0l27.284,52.301l-53.652,30.975l-31.63-49.742c-15.732,6.2-32.32,10.69-49.545,13.245
	l0,0l-2.522,58.927H275.282L275.282,678.982z"/>
<path style="fill:#EDE937;" d="M223.157,601.452c16.544,6.698,34.08,11.453,52.333,13.989l0,0l2.043,0.283l2.498,58.301h52.455
	l2.498-58.301l2.045-0.283c18.253-2.536,35.788-7.291,52.334-13.989l0,0l1.91-0.776l31.294,49.215l45.43-26.229l-26.991-51.741
	l1.625-1.269c14.273-11.157,27.139-24.027,38.301-38.3l0,0l1.268-1.625l51.738,26.993l26.231-45.432l-49.212-31.292l0.775-1.91
	c6.698-16.548,11.451-34.083,13.987-52.333l0,0l0.285-2.046l58.301-2.497v-52.458L526,367.258l-0.283-2.046
	c-2.536-18.25-7.289-35.788-13.987-52.332l0,0l-0.775-1.913l49.214-31.293l-26.23-45.429l-51.741,26.99l-1.268-1.625
	c-11.162-14.27-24.028-27.142-38.301-38.3l0,0l-1.625-1.27l26.991-51.738l-45.43-26.228l-31.294,49.212l-1.91-0.775
	c-16.546-6.699-34.081-11.454-52.334-13.988l0,0l-2.045-0.286l-2.498-58.301H280.03l-2.498,58.301l-2.043,0.286
	c-18.253,2.534-35.788,7.289-52.333,13.988l0,0l-1.913,0.775l-31.295-49.212l-45.426,26.228l26.988,51.738l-1.622,1.27
	c-14.273,11.158-27.143,24.029-38.301,38.3l0,0l-1.27,1.625l-51.738-26.99l-26.231,45.429l49.212,31.293l-0.773,1.913
	c-6.699,16.547-11.454,34.082-13.988,52.332l0,0l-0.285,2.046l-58.301,2.494v52.458l58.301,2.494l0.285,2.049
	c2.534,18.25,7.289,35.785,13.988,52.33l0,0l0.776,1.913l-49.213,31.292l26.228,45.429l51.738-26.99l1.27,1.625
	c11.158,14.273,24.027,27.143,38.301,38.3l0,0l1.624,1.269l-26.993,51.741l45.432,26.228l31.292-49.213L223.157,601.452
	L223.157,601.452z"/>
<path style="fill:#4764AF;" d="M218.731,334.876c27.201-0.021,48.566,2.305,66.378,5.86c17.832,3.556,31.326,8,42.569,11.157
	c7.583,2.145,14.393,3.883,22.487,5.307c10.753,1.877,24.055,3.262,43.621,3.272c14.574,0.018,30.526-2.607,46.354-7.101
	c15.825-4.47,31.469-10.755,45.428-17.413c2.239-1.065,4.43-2.14,6.575-3.217c-26.32-77.384-99.604-133.058-185.894-133.058
	c-94.86,0-174.006,67.296-192.303,156.755c8.47-3.286,17.331-6.389,26.544-9.18C164.41,340.061,190.756,334.903,218.731,334.876z"/>
<path style="fill:#4764AF;" d="M393.787,457.087c-27.204,0.021-48.569-2.305-66.38-5.86c-17.833-3.559-31.327-8.003-42.57-11.157
	c-7.582-2.147-14.393-3.883-22.484-5.311c-10.756-1.873-24.058-3.261-43.622-3.271c-14.574-0.019-30.529,2.606-46.356,7.1
	c-15.824,4.471-31.468,10.757-45.427,17.417c-2.239,1.064-4.429,2.139-6.574,3.215c26.317,77.386,99.595,133.06,185.876,133.06
	c94.873,0,174.026-67.298,192.322-156.76c-8.47,3.285-17.333,6.39-26.547,9.181C448.106,451.902,421.763,457.06,393.787,457.087z"/>
<path style="fill:#FFFFFF;" d="M492.144,332.743c-2.146,1.077-4.336,2.152-6.575,3.217c-13.959,6.658-29.603,12.943-45.428,17.413
	c-15.827,4.494-31.779,7.119-46.354,7.101c-19.566-0.01-32.868-1.396-43.621-3.272c-8.095-1.424-14.904-3.163-22.487-5.307
	c-11.243-3.157-24.737-7.602-42.569-11.157c-17.813-3.556-39.177-5.881-66.378-5.86c-27.975,0.027-54.322,5.184-78.24,12.384
	c-9.213,2.791-18.074,5.894-26.544,9.18c-2.612,12.772-3.984,25.997-3.984,39.542c0,22.126,3.664,43.395,10.412,63.236
	c2.145-1.076,4.335-2.15,6.574-3.215c13.96-6.66,29.603-12.946,45.427-17.417c15.827-4.493,31.782-7.118,46.356-7.1
	c19.563,0.011,32.865,1.398,43.622,3.271c8.091,1.428,14.901,3.163,22.484,5.311c11.244,3.154,24.737,7.599,42.57,11.157
	c17.811,3.556,39.176,5.881,66.38,5.86c27.976-0.027,54.319-5.185,78.238-12.387c9.214-2.791,18.077-5.896,26.547-9.181
	c2.613-12.771,3.984-25.993,3.984-39.537C502.557,373.856,498.894,352.586,492.144,332.743z"/>
<polygon style="fill:#FFFFFF;" points="330.535,259.551 300.012,256.818 289.217,228.234 278.421,256.818 247.899,259.551 
	271.071,277.574 263.682,306.825 289.217,290.723 314.752,306.825 307.363,277.574 "/>
<polygon style="fill:#FFFFFF;" points="263.487,484.372 232.964,481.639 222.168,453.055 211.373,481.639 180.851,484.372 
	204.023,502.395 196.633,531.644 222.168,515.543 247.704,531.644 240.314,502.395 "/>
<polygon style="fill:#FFFFFF;" points="421.203,510.795 390.681,508.061 379.885,479.478 369.089,508.061 338.567,510.795 
	361.738,528.818 354.349,558.068 379.885,541.966 405.421,558.068 398.03,528.818 "/>
<path style="fill:#4764AF;" d="M133.962,410.283l6.696-2.742c1.182,2.583,2.588,4.325,4.22,5.23c1.632,0.906,3.529,1.052,5.69,0.44
	c2.29-0.648,3.855-1.701,4.697-3.156c0.842-1.456,1.049-2.938,0.621-4.446c-0.274-0.968-0.752-1.723-1.433-2.265
	c-0.682-0.54-1.702-0.89-3.061-1.049c-0.928-0.098-2.994-0.155-6.199-0.173c-4.122-0.02-7.179-0.61-9.17-1.776
	c-2.8-1.641-4.66-4.08-5.578-7.321c-0.591-2.085-0.636-4.179-0.133-6.284c0.502-2.103,1.576-3.901,3.22-5.393
	c1.644-1.492,3.82-2.622,6.526-3.389c4.419-1.253,8.065-1.069,10.938,0.551c2.872,1.62,4.897,4.295,6.076,8.025l-7.007,2.378
	c-0.901-2.018-1.982-3.346-3.244-3.984c-1.262-0.638-2.894-0.673-4.895-0.105c-2.066,0.585-3.544,1.538-4.433,2.855
	c-0.573,0.847-0.71,1.8-0.408,2.862c0.274,0.968,0.861,1.697,1.761,2.186c1.145,0.622,3.581,0.917,7.31,0.886
	c3.727-0.03,6.564,0.227,8.509,0.772c1.945,0.545,3.635,1.565,5.07,3.059c1.436,1.494,2.521,3.535,3.254,6.123
	c0.665,2.347,0.727,4.703,0.187,7.068c-0.541,2.366-1.694,4.338-3.462,5.914c-1.767,1.577-4.18,2.799-7.239,3.666
	c-4.452,1.262-8.21,1.034-11.273-0.683C138.138,417.815,135.725,414.732,133.962,410.283z"/>
<path style="fill:#4764AF;" d="M201.197,409.432l-7.928,1.331l-4.752-9.005l-14.428,2.421l-1.379,10.033l-7.731,1.298l7.016-44.33
	l7.706-1.294L201.197,409.432z M169.734,369.175l-3.151,0.529c-0.09-0.436-0.156-0.778-0.198-1.027
	c-0.337-2.003-0.176-3.615,0.48-4.834c0.656-1.219,1.64-1.939,2.954-2.159c0.575-0.096,1.12-0.114,1.637-0.054
	c0.517,0.061,1.484,0.32,2.902,0.779c1.419,0.458,2.497,0.626,3.236,0.502c0.525-0.088,0.932-0.352,1.221-0.793
	c0.288-0.441,0.407-1.118,0.355-2.032l3.201-0.537c0.415,2.579,0.31,4.491-0.316,5.734c-0.626,1.243-1.581,1.973-2.861,2.188
	c-0.558,0.094-1.119,0.119-1.683,0.076c-0.397-0.051-1.407-0.284-3.029-0.699c-1.622-0.414-2.778-0.564-3.467-0.448
	c-0.525,0.087-0.904,0.343-1.137,0.764C169.645,367.586,169.597,368.256,169.734,369.175z M184.992,395.079l-7.587-14.74
	l-2.261,16.393L184.992,395.079z"/>
<path style="fill:#4764AF;" d="M198.637,388.552c-0.056-4.335,0.455-7.98,1.533-10.936c0.804-2.178,1.916-4.137,3.333-5.878
	c1.417-1.741,2.978-3.038,4.682-3.892c2.266-1.151,4.888-1.746,7.867-1.784c5.392-0.069,9.731,1.821,13.018,5.67
	c3.286,3.848,4.974,9.237,5.062,16.164c0.087,6.87-1.45,12.265-4.613,16.187c-3.163,3.92-7.432,5.915-12.807,5.983
	c-5.442,0.069-9.794-1.806-13.055-5.625C200.396,400.621,198.723,395.326,198.637,388.552z M206.247,388.165
	c0.061,4.818,1.065,8.458,3.011,10.921c1.945,2.463,4.391,3.675,7.337,3.638c2.946-0.038,5.348-1.303,7.205-3.794
	c1.857-2.491,2.755-6.205,2.692-11.139c-0.063-4.877-1.028-8.503-2.897-10.879c-1.87-2.376-4.327-3.545-7.373-3.506
	c-3.045,0.039-5.485,1.285-7.317,3.736C207.07,379.595,206.185,383.269,206.247,388.165z"/>
<path style="fill:#4764AF;" d="M265.953,368.668l7.339,0.613l-2.244,26.846c-0.293,3.51-0.784,6.188-1.473,8.033
	c-0.92,2.41-2.379,4.283-4.378,5.621c-1.999,1.338-4.533,1.879-7.601,1.622c-3.6-0.301-6.271-1.704-8.016-4.209
	c-1.745-2.505-2.436-6.025-2.074-10.559l7.019-0.346c-0.12,2.437,0.043,4.179,0.49,5.227c0.669,1.59,1.816,2.453,3.441,2.588
	c1.642,0.138,2.849-0.31,3.62-1.343c0.771-1.032,1.3-3.266,1.587-6.698L265.953,368.668z"/>
<path style="fill:#4764AF;" d="M276.313,391.091c0.722-4.274,1.878-7.769,3.468-10.484c1.182-1.998,2.626-3.727,4.333-5.186
	c1.706-1.458,3.474-2.456,5.303-2.99c2.435-0.727,5.122-0.843,8.059-0.346c5.317,0.899,9.248,3.536,11.791,7.911
	c2.544,4.375,3.238,9.979,2.085,16.811c-1.145,6.773-3.626,11.807-7.438,15.098c-3.815,3.29-8.372,4.487-13.672,3.592
	c-5.366-0.906-9.312-3.531-11.836-7.874C275.882,403.28,275.185,397.771,276.313,391.091z M283.869,392.073
	c-0.802,4.752-0.468,8.513,1.005,11.284c1.473,2.771,3.662,4.401,6.567,4.893c2.905,0.491,5.494-0.323,7.768-2.441
	c2.273-2.117,3.821-5.609,4.643-10.475c0.813-4.81,0.512-8.551-0.901-11.223c-1.414-2.672-3.622-4.263-6.625-4.77
	c-3.003-0.507-5.626,0.281-7.869,2.365C286.215,383.789,284.685,387.246,283.869,392.073z"/>
<path style="fill:#4764AF;" d="M312.561,404.931l7.232,0.233c0.023,2.839,0.595,5.006,1.714,6.498
	c1.12,1.494,2.792,2.402,5.015,2.726c2.355,0.344,4.214,0.023,5.577-0.962c1.362-0.984,2.157-2.252,2.383-3.804
	c0.146-0.996,0.019-1.88-0.382-2.651c-0.4-0.773-1.189-1.509-2.364-2.208c-0.808-0.471-2.67-1.366-5.588-2.692
	c-3.755-1.702-6.303-3.49-7.645-5.368c-1.885-2.642-2.584-5.628-2.1-8.961c0.314-2.144,1.129-4.075,2.446-5.789
	c1.318-1.714,3.032-2.917,5.143-3.607c2.111-0.689,4.558-0.832,7.341-0.426c4.546,0.663,7.799,2.321,9.758,4.973
	c1.961,2.652,2.716,5.921,2.267,9.807l-7.366-0.693c0.003-2.209-0.442-3.863-1.333-4.961c-0.892-1.098-2.365-1.797-4.425-2.098
	c-2.125-0.31-3.861-0.044-5.213,0.795c-0.868,0.54-1.383,1.354-1.542,2.446c-0.145,0.996,0.093,1.9,0.715,2.714
	c0.791,1.035,2.895,2.299,6.309,3.795c3.415,1.495,5.899,2.888,7.451,4.18c1.554,1.293,2.68,2.914,3.379,4.864
	c0.699,1.951,0.854,4.256,0.467,6.918c-0.353,2.414-1.258,4.59-2.717,6.527c-1.461,1.939-3.319,3.267-5.577,3.984
	c-2.258,0.716-4.96,0.846-8.104,0.387c-4.579-0.667-7.915-2.41-10.011-5.229C313.295,413.512,312.352,409.711,312.561,404.931z"/>
<path style="fill:#4764AF;" d="M346.523,423.502l2.502-42.485l27.091,1.596l-0.423,7.188l-19.714-1.161l-0.556,9.417l18.344,1.08
	l-0.422,7.158l-18.344-1.08l-0.681,11.563l20.411,1.202l-0.421,7.158L346.523,423.502z M358.54,379.135l3.949-8.462l7.85,0.462
	l-7.364,8.261L358.54,379.135z"/>
<path style="fill:#4764AF;" d="M394.213,425.575l-2.484-42.485l27.091-1.585l0.421,7.186l-19.715,1.154l0.552,9.417l18.343-1.072
	l0.419,7.158l-18.344,1.072l0.677,11.564l20.411-1.194l0.419,7.158L394.213,425.575z"/>
<path style="fill:#4764AF;" d="M428.581,422.713l-1.229-8.065l6.937-1.055l1.227,8.064L428.581,422.713z"/>
<path style="fill:#4764AF;" d="M462.098,400.008l7.583,0.911c0.008,4.772-0.971,8.552-2.935,11.337
	c-1.963,2.785-4.854,4.633-8.676,5.543c-4.728,1.124-9.061,0.173-13-2.86c-3.938-3.03-6.682-7.803-8.233-14.317
	c-1.64-6.891-1.384-12.606,0.769-17.147c2.153-4.541,5.723-7.405,10.709-8.592c4.354-1.037,8.25-0.383,11.683,1.963
	c2.04,1.384,3.859,3.637,5.459,6.758l-6.646,3.671c-0.933-2.046-2.215-3.531-3.846-4.456c-1.632-0.925-3.403-1.159-5.313-0.705
	c-2.64,0.629-4.519,2.24-5.638,4.834c-1.119,2.593-1.091,6.358,0.083,11.29c1.246,5.234,2.943,8.768,5.092,10.605
	c2.147,1.836,4.518,2.445,7.108,1.828c1.91-0.454,3.386-1.552,4.426-3.291C461.762,405.639,462.222,403.183,462.098,400.008z"/>
<path style="fill:#4764AF;" d="M478.607,411.465l-2.442-7.783l6.693-2.102l2.443,7.784L478.607,411.465z"/>
</svg>
