<svg height="1000" viewBox="0 0 749.99996 750.00001" width="1000" xmlns="http://www.w3.org/2000/svg" xmlns:xlink="http://www.w3.org/1999/xlink"><defs><clipPath id="a"><path d="m 174.01953 55.195313 h 71.48828 V 126.6875 h -71.48828 z m 0 0"/></clipPath><clipPath id="b"><path d="m 95 424 h 7 v .0625 h -7 z m 0 0"/></clipPath><clipPath id="c"><path d="m 109 424 h 37 v .0625 h -37 z m 0 0"/></clipPath><symbol id="d" overflow="visible"><path d="M .53125 -4.203125 H 1.4375 V -5 H .53125 Z M .578125 0 H 1.40625 V -3.640625 H .578125 Z m 0 0"/></symbol><symbol id="e" overflow="visible"><path d="m 2.203125 .078125 c .65625 0 1.140625 -.265625 1.484375 -.671875 l -.484375 -.4375 c -.296875 .28125 -.578125 .4375 -1 .4375 c -.53125 0 -.953125 -.34375 -1.046875 -.9375 h 2.6875 c 0 -.078125 .015625 -.15625 .015625 -.234375 c 0 -1.046875 -.59375 -1.953125 -1.75 -1.953125 c -1.046875 0 -1.78125 .859375 -1.78125 1.890625 V -1.8125 c 0 1.125 .8125 1.890625 1.875 1.890625 z M 1.15625 -2.078125 c .078125 -.5625 .4375 -.953125 .9375 -.953125 c .5625 0 .875 .40625 .9375 .953125 z m 0 0"/></symbol><symbol id="f" overflow="visible"><path d="m .53125 0 h .828125 v -1.390625 c 0 -.96875 .515625 -1.4375 1.25 -1.4375 H 2.65625 V -3.71875 C 2.015625 -3.75 1.59375 -3.375 1.359375 -2.828125 v -.8125 H .53125 Z m 0 0"/></symbol><symbol id="g" overflow="visible"><path d="m 1.78125 .0625 c .75 0 1.34375 -.375 1.34375 -1.140625 V -1.09375 C 3.125 -1.75 2.53125 -1.984375 2 -2.15625 c -.4375 -.140625 -.828125 -.25 -.828125 -.515625 c 0 -.21875 .1875 -.375 .515625 -.375 c .296875 0 .671875 .125 1.03125 .34375 l .328125 -.59375 c -.390625 -.25 -.890625 -.40625 -1.34375 -.40625 c -.71875 0 -1.296875 .421875 -1.296875 1.109375 v .015625 c 0 .6875 .609375 .90625 1.140625 1.0625 C 1.96875 -1.375 2.359375 -1.28125 2.359375 -1 v .015625 c 0 .234375 -.203125 .390625 -.5625 .390625 C 1.421875 -.59375 1 -.75 .59375 -1.046875 L .234375 -.46875 C .6875 -.125 1.25 .0625 1.78125 .0625 Z m 0 0"/></symbol><symbol id="h" overflow="visible"><path d="m 2.03125 .078125 c .59375 0 .96875 -.3125 1.25 -.6875 V 0 H 4.109375 V -5.046875 H 3.28125 v 1.96875 C 3.015625 -3.421875 2.625 -3.71875 2.03125 -3.71875 c -.875 0 -1.6875 .6875 -1.6875 1.890625 V -1.8125 c 0 1.203125 .828125 1.890625 1.6875 1.890625 z M 2.234375 -.65625 c -.5625 0 -1.046875 -.453125 -1.046875 -1.15625 V -1.828125 C 1.1875 -2.5625 1.65625 -3 2.234375 -3 c .5625 0 1.046875 .46875 1.046875 1.171875 V -1.8125 c 0 .6875 -.484375 1.15625 -1.046875 1.15625 z m 0 0"/></symbol><symbol id="i" overflow="visible"><path d="m .53125 0 h .828125 v -2.0625 c 0 -.5625 .34375 -.90625 .828125 -.90625 c .484375 0 .78125 .328125 .78125 .890625 V 0 h .828125 v -2.328125 c 0 -.84375 -.46875 -1.390625 -1.296875 -1.390625 c -.5625 0 -.90625 .296875 -1.140625 .640625 v -.5625 H .53125 Z m 0 0"/></symbol><symbol id="j" overflow="visible"><path d="m 2.140625 1.125 c .65625 0 1.171875 -.171875 1.5 -.5 c .3125 -.296875 .46875 -.75 .46875 -1.375 V -3.640625 H 3.28125 V -3.09375 C 2.984375 -3.4375 2.609375 -3.71875 2 -3.71875 c -.859375 0 -1.65625 .625 -1.65625 1.703125 V -2 c 0 1.078125 .796875 1.703125 1.65625 1.703125 c .59375 0 .984375 -.265625 1.28125 -.65625 v .28125 C 3.28125 .0625 2.875 .4375 2.125 .4375 c -.5 0 -.90625 -.140625 -1.296875 -.375 l -.3125 .625 c .46875 .28125 1.03125 .4375 1.625 .4375 z M 2.21875 -1 C 1.640625 -1 1.1875 -1.40625 1.1875 -2 v -.015625 c 0 -.609375 .453125 -1 1.03125 -1 c .578125 0 1.0625 .40625 1.0625 1 V -2 c 0 .59375 -.484375 1 -1.0625 1 z m 0 0"/></symbol><symbol id="k" overflow="visible"><path d="m 3.578125 0 v -2.15625 c 0 -.984375 -.515625 -1.546875 -1.59375 -1.546875 c -.59375 0 -.984375 .125 -1.390625 .3125 l .234375 .65625 c .328125 -.125 .625 -.21875 1.03125 -.21875 c .578125 0 .90625 .28125 .90625 .78125 v .0625 c -.28125 -.09375 -.5625 -.15625 -1.015625 -.15625 c -.84375 0 -1.46875 .390625 -1.46875 1.203125 v .015625 c 0 .734375 .609375 1.125 1.296875 1.125 C 2.125 .078125 2.5 -.15625 2.75 -.453125 V 0 Z M 2.78125 -1.3125 c 0 .453125 -.421875 .765625 -.96875 .765625 c -.390625 0 -.703125 -.203125 -.703125 -.546875 v -.015625 c 0 -.34375 .3125 -.5625 .828125 -.5625 c .328125 0 .625 .0625 .84375 .140625 z m 0 0"/></symbol><symbol id="l" overflow="visible"><path d="M .625 0 H 1.46875 V -1.546875 H 2.4375 c 1.0625 0 1.921875 -.578125 1.921875 -1.65625 V -3.21875 c 0 -.96875 -.703125 -1.609375 -1.828125 -1.609375 H .625 Z M 1.46875 -2.328125 V -4.0625 H 2.453125 C 3.09375 -4.0625 3.5 -3.765625 3.5 -3.203125 V -3.1875 c 0 .515625 -.40625 .859375 -1.046875 .859375 z m 0 0"/></symbol></defs><g transform="translate(-160.14657 -227.97669)"><g transform="matrix(9.9661238 0 0 9.9661238 -1417.144 -2025.3173)"><path d="m 230.52939 263.72279 c 0 19.1289 -15.50782 34.63671 -34.63672 34.63671 c -19.13282 0 -34.64063 -15.50781 -34.64063 -34.63671 c 0 -19.13282 15.50781 -34.64063 34.64063 -34.64063 c 19.1289 0 34.63672 15.50781 34.63672 34.64063" fill="#fff"/><g clip-path="url(#a)" transform="translate(-13.872959 172.78138)"><path d="m 209.76562 125.58203 c -19.13281 0 -34.64062 -15.51172 -34.64062 -34.640624 c 0 -19.132812 15.50781 -34.640625 34.64062 -34.640625 c 19.12891 0 34.63672 15.507813 34.63672 34.640625 c 0 19.128904 -15.50781 34.640624 -34.63672 34.640624 m 0 -70.386717 c -19.74218 0 -35.74609 16.003906 -35.74609 35.746093 c 0 19.742184 16.00391 35.746094 35.74609 35.746094 c 19.73829 0 35.74219 -16.00391 35.74219 -35.746094 c 0 -19.742187 -16.0039 -35.746093 -35.74219 -35.746093"/></g><path d="m 227.85751 258.26575 c -2.21875 .61719 -4.50391 1.16797 -6.84766 1.65235 c 1.29297 -3.44531 2.53516 -7.14844 3.67578 -11.1211 c 1.54298 2.97266 2.60938 6.16797 3.17188 9.46875 m 1.49219 7.67188 c 0 0 .0742 -.87891 .0742 -2.21484 c 0 -6.53125 -1.86719 -12.6211 -5.09375 -17.77735 c -2.40625 8.94531 -5.32422 16.60938 -8.28516 23.00781 c 1.82812 -.29687 3.625 -.63281 5.39453 -1.00781 c .71094 -2.48437 1.34375 -5.19531 1.875 -8.16406 c .85938 -.19531 1.71484 -.40234 2.5586 -.61719 c -.16016 2.52735 -.54297 5.28516 -1.17969 8.03516 c 1.58203 -.38672 4.65625 -1.26172 4.65625 -1.26172" fill="#eb1c23"/><path d="m 207.25985 284.76575 c 2.29688 -3.4414 4.96094 -7.90625 7.64063 -13.40625 c 1.97265 -.29687 3.90625 -.63671 5.80078 -1.01562 c -5.38672 16.42969 -14.52344 22.02734 -20.65234 25.53906 c 7.52343 -2.18359 16.42968 -10.74219 21.05859 -19.01953 c 1.24219 -2.22266 2.21484 -4.70312 2.95703 -7.25 c 1.72266 -.40234 3.40625 -.83984 5.04688 -1.3125 c -2.17578 15.92578 -15.53125 28.29297 -31.90235 28.92578 c 1.55078 -1.49609 5.42969 -5.52734 10.05078 -12.46094" fill="#eb1c23"/><path d="m 210.06063 240.70716 v 7.34375 h -7.27734 v -7.34375 h -13.78516 v 7.34375 h -7.27734 v -7.34375 h -8.67187 c 5.85937 -5.82031 13.92968 -9.41406 22.84375 -9.41406 c 8.91015 0 16.98046 3.59375 22.83984 9.41406 z m -14.16796 -10.51953 c -10.14844 0 -19.23829 4.50391 -25.38672 11.625 h 10.10937 v 7.34375 h 9.49219 v -7.34375 h 11.57031 v 7.34375 h 9.48828 v -7.34375 h 10.10938 c -6.14844 -7.12109 -15.23828 -11.625 -25.38281 -11.625" fill="#002e57"/><path d="m 222.18954 242.9181 h -9.91797 v 7.34375 h -11.69922 v -7.34375 h -9.36328 v 7.34375 h -11.69922 v -7.34375 h -9.91797 c -.46093 .58203 -.90234 1.17969 -1.32421 1.78906 c 9.54296 36.49219 27.74609 52.35547 27.74609 52.35547 c 0 0 18.05469 -15.86328 27.50391 -52.35156 c -.42579 -.61328 -.86329 -1.21094 -1.32813 -1.79297" fill="#002e57"/><path d="m 196.99032 281.6056 v -26.94922 h .008 l 1.42969 -1.74219 h -5.07422 l 1.42969 1.74219 h .004 v 26.94922 h -.004 l -1.42969 1.74609 h 5.07422 l -1.42969 -1.74609 z m 0 0" fill="#ffc528"/><path d="m 189.17001 263.44935 h -5.66797 v -6.91406 h -2.12109 v 15.41015 c .70312 .0781 1.41015 .15235 2.12109 .21875 v -6.50781 h 5.66797 v 6.91406 c .70312 .0352 1.41016 .0664 2.11719 .0899 v -16.125 h -2.11719 z m 0 0" fill="#ffc528"/><path d="m 208.31063 256.53529 l -5.70703 8.14453 v -8.14453 h -2.12109 v 16.125 c .71094 -.0234 1.41797 -.0508 2.12109 -.0859 v -4.55078 l 2.35157 -3.27735 l 3.6289 7.38672 c .79297 -.0742 1.57422 -.16015 2.35547 -.25 l -4.57031 -9 l 4.53125 -6.34765 z m 0 0" fill="#ffc528"/><path d="m 167.09579 248.797 c 1.14063 3.97266 2.38281 7.67579 3.67578 11.1211 c -2.34375 -.48438 -4.6289 -1.03516 -6.84765 -1.65235 c .5625 -3.30078 1.6289 -6.49609 3.17187 -9.46875 m -.008 18.40235 c -.63672 -2.75 -1.01953 -5.50781 -1.17969 -8.03516 c .84375 .21485 1.69922 .42188 2.55859 .61719 c .53125 2.96875 1.16407 5.67969 1.87891 8.16406 c 1.76563 .375 3.5625 .71094 5.39063 1.00781 c -2.96094 -6.39843 -5.87891 -14.0625 -8.28125 -23.00781 c -3.23047 5.15625 -5.09766 11.2461 -5.09766 17.77735 c 0 1.33593 .0742 2.21484 .0742 2.21484 c 0 0 3.07422 .875 4.65625 1.26172" fill="#eb1c23"/><path d="m 184.52157 284.76575 c -2.29297 -3.4414 -4.96094 -7.90625 -7.64062 -13.40625 c -1.97266 -.29687 -3.90625 -.63671 -5.80078 -1.01562 c 5.38671 16.42969 14.52343 22.02734 20.65234 25.53906 c -7.52344 -2.18359 -16.42969 -10.74219 -21.05859 -19.01953 c -1.24219 -2.22266 -2.21485 -4.70312 -2.95704 -7.25 c -1.72265 -.40234 -3.40625 -.83984 -5.04687 -1.3125 c 2.17578 15.92578 15.53125 28.29297 31.90234 28.92578 c -1.55078 -1.49609 -5.42968 -5.52734 -10.05078 -12.46094" fill="#eb1c23"/><g clip-path="url(#b)"><g><use height="100%" width="100%" x="94.572098" xlink:href="#l" y="429.4194"/><use height="100%" width="100%" x="99.181297" xlink:href="#f" y="429.4194"/></g></g><g clip-path="url(#c)"><g><use height="100%" width="100%" x="109.4554" xlink:href="#g" y="429.4194"/><use height="100%" width="100%" x="112.9054" xlink:href="#e" y="429.4194"/><use height="100%" width="100%" x="117.073" xlink:href="#d" y="429.4194"/><use height="100%" width="100%" x="119.0464" xlink:href="#i" y="429.4194"/><use height="100%" width="100%" x="123.3244" xlink:href="#h" y="429.4194"/><use height="100%" width="100%" x="127.9474" xlink:href="#j" y="429.4194"/><use height="100%" width="100%" x="132.5704" xlink:href="#k" y="429.4194"/><use height="100%" width="100%" x="136.6207" xlink:href="#i" y="429.4194"/><use height="100%" width="100%" x="140.8987" xlink:href="#j" y="429.4194"/></g></g></g></g></svg>