<?xml version="1.0" encoding="iso-8859-1"?>
<!-- Generator: Adobe Illustrator 24.0.1, SVG Export Plug-In . SVG Version: 6.00 Build 0)  -->
<svg version="1.1" id="Layer_1" xmlns="http://www.w3.org/2000/svg" xmlns:xlink="http://www.w3.org/1999/xlink" x="0px" y="0px"
	 viewBox="0 0 612 792" style="enable-background:new 0 0 612 792;" xml:space="preserve">
<path d="M306.576,679.552c-14.832-13.248-30.096-24.912-47.232-35.208c-14.76-8.856-29.736-16.56-44.712-24.12
	c-46.584-23.544-83.16-50.112-107.28-84.24C65.088,476.368,72,410.776,83.808,343.888c6.768-38.088,17.784-87.048-1.584-123.336
	c-4.536-8.568-10.44-15.048-17.064-21.816l58.968-86.112l5.04,1.584c116.568,35.424,238.248,35.424,354.816,0l5.04-1.584
	l58.968,86.112c-6.624,6.768-12.528,13.248-17.065,21.816c-19.368,36.288-8.352,85.248-1.584,123.336
	c11.808,66.888,18.72,132.48-23.544,192.096c-24.12,34.128-60.696,60.696-107.28,84.24c-14.976,7.56-29.952,15.264-44.712,24.12
	C336.672,654.64,321.408,666.304,306.576,679.552z"/>
<path style="fill:#0095DA;" d="M301.176,256.84H106.992c2.52,29.88-3.888,61.632-8.784,89.568
	c-11.16,62.568-18.648,125.28,20.952,181.152c22.68,31.968,57.456,57.168,102.024,79.704c15.336,7.704,30.672,15.552,45.72,24.624
	c11.592,6.984,23.04,14.76,34.272,23.76v-13.824c-13.104-15.624-19.512-25.56-21.528-36.504c-1.584-8.712-0.36-17.712,2.664-30.456
	c-4.824,7.128-11.664,16.776-20.088,19.368c-12.672,3.96-21.816-8.208-24.552-18.936c-2.88-11.088,0.432-22.032,8.928-31.032
	c2.88,5.616,8.712,18.504,16.992,16.776c2.52-0.504,5.04-2.304,7.56-4.968c2.592-2.808,5.184-6.552,7.488-10.729
	c-3.96,2.304-7.56,3.025-10.656,2.521c-2.592-0.432-4.824-1.585-6.552-3.384l0,0c-1.728-1.728-2.952-3.888-3.744-6.408
	c-2.016-6.337-0.936-14.76,4.176-21.313c-0.288-6.408,2.304-12.096,4.608-17.856c2.304,4.752,4.464,9.864,7.992,13.896
	c10.8,12.096,14.184-20.304,14.184-25.488c-3.168-4.608-5.256-9.792-6.264-15.264c-3.672-2.304-6.192-4.248-8.208-8.28
	c-1.296,5.112-3.816,9.504-6.48,14.04c-5.616,9.792-8.568,20.16-12.168,30.744c-3.456-4.68-6.84-9.144-9.288-14.472
	c-0.216,0.648-0.432,1.224-0.648,1.872c-1.224,3.024-2.952,6.408-5.832,11.304c-1.8,3.096-2.016,2.736,1.008,3.384
	c6.12,1.224,10.296,5.256,9.216,11.88c-0.072,14.832-5.472,20.16-20.376,18.504c2.232-3.24,4.68-6.408,5.184-10.44
	c-1.08,0.288-2.088,0.432-3.168,0.504l0,0l0,0l0,0c-0.72,0-1.512-0.072-2.232-0.216c0.144,4.104-1.008,7.92-3.744,11.016
	c2.016,4.392,7.488,4.896,11.664,5.904c-3.456,3.6-6.336,6.768-11.448,8.208c-6.48,1.872-13.32-0.216-13.824-9.36
	c-2.376-2.232-3.384-5.256-3.528-8.424c-2.088,1.224-3.888,1.584-6.264,1.368c-1.296,3.456-0.792,8.064-0.72,11.736
	c-4.752-2.592-8.496-4.896-10.944-10.152l0,0c-0.792-1.584-1.296-3.312-1.368-5.112l0,0c-0.144-1.872,0.216-3.816,1.296-5.688
	c1.152-2.088,3.168-4.032,6.264-5.688c0.936-2.664,2.52-4.68,4.248-6.048c-0.576-0.504-1.08-1.008-1.584-1.656
	c-3.888,0.864-7.488,4.896-10.44,7.488c0.504-8.784,0.576-23.4,13.824-22.68c1.008,0.072,2.16,0.216,3.384,0.576
	c1.8-0.576,3.672-0.648,5.4-0.504c2.16,0.288,4.104,1.008,5.76,2.088c1.296,0.864,2.448,1.512,3.312,1.512
	c0.432,0.072,0.864-0.288,1.368-1.296c1.8-3.816,3.744-7.632,5.688-11.304c0.864-1.728,1.8-3.456,2.808-5.112
	c-4.536,0.648-8.712-0.216-13.176-1.008c5.688-4.68,10.152-9.144,14.04-15.336l-4.392-0.864c4.536-3.24,7.992-5.904,11.448-10.44
	c2.52-3.312,4.608-6.408,6.696-9.936c2.52-4.32,5.184-8.136,7.92-11.232l0,0c3.312-3.6,6.84-6.264,10.656-7.56
	c-1.8-4.896-3.096-9.72-3.312-14.904c-2.232,1.872-4.752,3.6-7.56,4.68c-7.92,15.624-22.608,38.448-38.52,46.512
	c2.736-10.008,4.464-20.232,6.192-30.384c-2.88,6.696-6.264,12.96-10.008,18.504c-9.504,14.256-20.592,24.48-37.656,27.576
	c1.512-5.976,2.88-11.88,3.96-17.928c-8.136,7.776-16.416,11.736-26.856,14.904c2.664-7.92,5.04-15.84,7.344-23.832
	c-10.872,12.672-21.528,18-37.728,11.808c7.344-7.776,13.752-15.696,19.224-24.984c1.584-2.664,3.024-5.4,4.464-8.136
	c-12.456,10.944-26.28,10.296-41.472,7.92c9-7.776,16.992-15.768,23.832-25.704c5.688-8.424,10.44-17.568,14.04-27.216
	c0.144-0.36,0.288-0.792,0.432-1.224c-11.376,5.112-23.616,0.648-32.4-7.2c7.056-3.744,12.744-7.776,17.928-14.04
	c4.464-5.328,8.352-11.736,11.736-19.008c1.872-4.032,3.672-8.28,5.4-12.456c4.608-11.016,9.144-21.888,16.848-31.752
	c5.832-7.416,12.528-12.888,20.016-14.472c6.696-1.512,13.824,0,21.168,5.688c3.456,2.736,5.904,6.12,7.416,9.792
	c1.728,4.176,2.16,8.856,1.44,13.392c-0.72,4.536-2.664,8.928-5.688,12.816c-2.592,3.384-6.12,6.336-10.44,8.568
	c6.336,9.36,16.632,15.264,28.728,18.936c13.032,3.96,28.224,5.4,42.768,5.976c0.792-2.16,1.584-4.464,2.232-6.624l-3.744-0.504
	c7.056-10.8,10.944-21.169,12.096-33.984c-7.92,2.088-16.704-1.152-22.032-7.128c-3.384,1.296-6.48,2.808-10.224,2.952
	c-13.248,0.432-18.216-10.152-16.416-22.104c3.744,3.168,6.768,5.904,11.736,7.056c1.224,0.288,2.52,0.504,3.6,0.504
	c1.008-12.6,4.968-16.272,10.872-15.912c3.384,0.144,7.2,1.8,11.448,3.744c0.792-3.96,2.304-8.28,5.976-10.368
	c5.976-3.312,11.736,0.072,17.352,2.232c4.32,1.656,8.712,2.232,13.248,2.232V256.84z"/>
<path style="fill:#44A13F;" d="M507.528,245.896c1.8-11.232,5.184-22.104,10.584-32.184c3.168-5.976,6.912-11.52,11.232-16.488
	l-46.296-67.536c-115.992,34.2-236.952,34.2-352.944,0l-46.296,67.536c4.32,4.968,8.064,10.512,11.232,16.488
	c5.4,10.08,8.784,20.952,10.584,32.184H507.528z"/>
<path style="fill:#FFF200;" d="M257.832,387.304c-16.92-1.8-41.616-7.56-59.472-18c-6.984-4.176-13.032-9.072-17.136-14.76
	c-4.248-5.904-6.48-12.6-5.832-20.232c0.36-4.248,2.16-8.928,4.68-13.824C180,320.92,180,321.424,180,321.928
	c0,3.24,2.592,5.76,5.76,5.76c3.168,0,5.76-2.52,5.76-5.76c0-1.368-0.504-2.664-1.368-3.672c1.872-0.864,3.168-2.808,3.168-5.04
	c0-3.096-2.52-5.616-5.616-5.616c-1.8,0-3.456,0.864-4.464,2.304c-1.08-1.656-2.952-2.736-4.968-2.736
	c-3.312,0-5.976,2.736-5.976,5.976c0,4.032,4.176,7.2,7.704,5.976c-4.896,5.976-8.208,13.176-8.64,20.232
	c-0.432,8.28,2.16,16.704,8.208,23.976c8.136,9.792,20.952,16.704,35.568,21.672c13.464,4.68,28.584,7.704,42.984,9.936
	C257.832,392.416,257.688,389.896,257.832,387.304z"/>
<path style="fill:#FFF200;" d="M301.176,357.424v-65.16c-5.112-0.072-10.224-0.72-15.048-2.592c-3.816-1.512-9.216-4.68-13.104-2.52
	c-1.8,1.152-0.288,1.944,2.304,2.016c4.248-0.936,10.872,2.232,11.736,4.68c-2.16-0.072-3.6,0-4.68,0.144
	c-4.896,0.648-3.096,3.816-9.288-0.144c-1.224-0.792-3.744-1.368-3.6,0.504c0.216,2.16,3.096,2.16,5.4,2.808
	c6.336,1.872,11.952,3.456,11.664,12.168c-0.144,4.896-1.872,9.504-5.832,12.384c-0.72,11.016-3.168,21.96-8.496,31.68
	c3.6-1.008,5.976-4.032,8.568-6.624c0.648,3.24,1.944,7.488,4.536,9.72c3.168-3.168,4.608-7.632,6.696-11.592
	C293.4,349.36,296.424,355.48,301.176,357.424z"/>
<path style="fill:#FFF200;" d="M301.176,370.6v-8.784l-0.216,0.72c-3.816-1.008-6.84-3.312-8.928-6.624
	c-1.728,2.736-3.744,5.544-6.336,7.488c-3.168-1.8-5.544-4.536-7.2-7.92c-1.728,1.512-3.888,2.52-6.12,2.952
	c-1.944,7.272-4.968,14.328-8.136,21.096c4.968-2.376,7.92-5.976,11.376-10.008c0.072,2.664,1.08,8.496,1.44,10.728v0.072
	c0.144,1.152,0.432,2.304,0.864,3.384c5.472-4.608,6.984-8.496,9.288-13.896c0.648,4.104,3.024,13.392,5.688,17.208
	C296.136,383.2,299.88,375.64,301.176,370.6z"/>
<path style="fill:#FFF200;" d="M301.176,412.936v-28.44c-2.232,3.312-4.968,6.336-8.208,9.36c-3.672-3.24-6.192-5.832-7.704-10.728
	c-2.304,3.6-5.328,5.4-8.856,7.704c-2.16-3.168-3.6-5.832-4.248-9.792l0,0c0-0.36-0.072-0.72-0.144-1.08
	c-2.448,2.52-5.616,4.536-9.144,4.968c-0.36,3.816-0.216,7.56,0.36,11.232c0.432,3.168,1.224,6.336,2.232,9.504
	c4.392-3.024,6.84-8.136,9.216-12.672c0.144,4.464,3.096,11.592,5.328,14.688c5.04-5.04,5.76-6.12,8.856-12.456
	C290.448,401.776,295.92,407.896,301.176,412.936z"/>
<path style="fill:#FFF200;" d="M301.176,434.392v-14.76c-4.824-4.392-9.576-9.072-12.528-14.904c-2.16,4.032-5.616,6.84-9.072,9.72
	c-2.808-2.88-5.112-5.616-6.48-9.504c-2.304,3.312-5.256,4.176-7.632,6.696c-0.504,4.968,0.144,9.864,1.656,14.544
	c0.72-0.432,1.368-0.936,2.088-1.512l0,0c3.168-2.88,4.968-4.536,7.416-8.064c0,5.184,2.736,11.52,5.832,15.624
	c3.6-4.032,6.408-10.368,8.568-15.264C292.68,423.448,296.064,429.856,301.176,434.392z"/>
<path style="fill:#FFF200;" d="M301.176,481.336v-30.672c-1.872,4.032-4.392,6.984-7.488,10.08c-0.504-0.36-1.368-1.008-1.728-1.224
	c-1.224,3.24-2.664,6.48-5.04,9.144c0.576,7.2,3.888,14.4,8.928,19.728C297.792,486.304,299.664,483.928,301.176,481.336z"/>
<path style="fill:#FFF200;" d="M301.176,634.12V503.008c-2.592,11.16-20.088,59.544-36.576,62.857
	c-8.856,1.871-15.12-6.192-19.008-12.888c-5.472,12.528,9.792,23.544,18.648,21.816c-8.208,5.904-17.064,1.296-22.608-8.568
	c-0.216,9.936,6.552,27.216,19.152,23.328c12.168-3.744,24.624-26.928,31.032-36.504c-1.944,16.416-10.728,33.912-7.344,51.408
	C286.056,613.312,291.168,621.736,301.176,634.12z"/>
<path style="fill:#FFF200;" d="M298.584,492.496c-0.864,0.936-1.8,1.8-2.736,2.664c-0.792-0.792-1.656-1.512-2.448-2.232
	c-0.504,7.344-3.456,24.12-11.52,27.576c-3.96,1.728-9.072-0.432-14.616-9.288c-2.592,11.376,2.52,15.84,10.871,19.944
	c-5.4,1.44-12.024-0.72-14.688-7.632c-2.376,5.112-2.88,13.176,1.44,17.496l0,0c1.08,1.008,2.376,1.728,3.888,2.016
	C286.776,546.064,296.424,505.888,298.584,492.496z"/>
<path style="fill:#FFF200;" d="M238.176,536.488c3.456-0.648,4.752-2.376,5.616-5.328c1.08-3.817-2.232-2.448-3.888-0.72
	C238.968,531.448,238.896,534.904,238.176,536.488z"/>
<path style="fill:#FFF200;" d="M227.448,550.096c-2.016-0.936-3.888-2.448-5.256-4.248c-0.936-1.224-4.392-0.072-5.112,0.864
	C214.272,550.456,223.2,554.128,227.448,550.096z"/>
<path style="fill:#FFF200;" d="M195.624,531.592c-1.008,1.152-1.584,2.52-1.512,4.176v0.072c0.072,2.16,1.296,4.32,2.592,5.976
	c0.216-1.584,0.504-3.096,1.152-4.536C198.432,535.984,197.712,529.144,195.624,531.592z"/>
<path style="fill:#FFF200;" d="M200.736,506.752c-1.224,0.216-2.232,0.72-2.952,1.44l0,0c-1.224,1.152-2.088,2.808-2.664,4.824l0,0
	c0,0.072-0.072,0.216-0.072,0.36c1.152-0.576,2.376-1.08,3.744-1.296C200.232,510.856,200.88,508.912,200.736,506.752z"/>
<path style="fill:#FFF200;" d="M268.56,450.952c-2.592-4.464-3.96-9.216-4.392-14.472c-2.52,1.152-5.04,3.096-7.416,5.76l0,0
	c-2.52,2.736-4.896,6.192-7.2,10.08c4.104-0.072,7.344-2.232,10.872-4.104c-2.88,6.552-5.112,9.504-12.528,9
	c-3.528,2.088-5.976,6.912-8.856,10.008c3.6-0.36,7.992-2.592,10.368-5.184c-4.104,5.904-5.112,10.224-12.744,10.08
	c-2.232,3.816-4.824,7.56-7.776,10.872c7.344-0.792,12.6-5.4,18-9.864c0.36,6.192,0.792,11.664,3.24,17.496
	c1.008,2.52,2.304,4.896,3.816,7.2c2.448-7.848,5.328-15.264,9.504-22.464c3.312-5.688,6.48-11.232,6.768-18.36
	C270.36,454.264,269.928,453.184,268.56,450.952z"/>
<path style="fill:#FFF200;" d="M288.072,455.848c-2.376-2.736-4.104-5.976-5.4-9.288c0,0.072-0.072,0.144-0.144,0.216
	c-1.512,3.24-3.672,6.12-5.904,8.28c0.648,4.032,2.304,8.568,5.544,11.304C285.336,463.696,286.704,459.664,288.072,455.848z"/>
<path style="fill:#FFF200;" d="M279.936,437.056c-2.448-3.024-4.752-6.408-5.976-10.152c-0.504,0.504-1.008,1.008-1.512,1.44l0,0
	c-1.08,1.008-2.232,1.8-3.456,2.448c-0.144,7.344,0.864,13.68,5.184,19.8C277.416,447.064,280.008,441.952,279.936,437.056z"/>
<path style="fill:#FFF200;" d="M299.232,439.144c-3.672-2.808-6.696-6.336-8.712-10.512c-1.368,3.024-3.168,5.688-5.544,7.992
	c1.224,6.264,3.456,13.104,8.208,17.568c1.44-1.728,2.664-3.672,3.6-5.832l0,0C298.008,445.624,298.8,442.6,299.232,439.144z"/>
<path style="fill:#FFF200;" d="M168.408,376.432c-2.304,1.152-4.68,1.944-7.128,2.448c-5.688,16.848-11.232,30.816-22.608,40.752
	c9.504-15.84,12.384-26.136,18.36-43.344c-0.504-9.36,0.648-17.856,2.808-25.92c-4.032,9.432-7.632,19.512-11.304,29.736
	c-1.368,3.816-2.736,7.632-4.248,11.808c-3.744,10.008-8.64,19.512-14.616,28.224c-4.824,7.128-10.368,13.68-16.56,19.584
	c29.808,1.8,39.6-23.328,49.392-48.6C164.448,386.152,166.392,381.184,168.408,376.432z"/>
<path style="fill:#FFF200;" d="M186.552,388.312c-2.52,2.52-5.832,4.68-9.072,6.12c-6.912,16.56-13.464,36-24.912,46.152
	c7.992-15.192,14.328-31.824,20.304-47.88c-0.936-3.744-1.296-7.632-1.08-11.664c-1.584,3.888-3.168,7.848-4.68,11.88
	c-6.768,17.28-14.616,36.864-24.048,52.92c-4.32,7.272-9.216,14.04-14.688,20.232c7.92,1.368,16.2-2.376,24.984-12.528
	C163.872,441.376,174.888,420.28,186.552,388.312z"/>
<path style="fill:#FFF200;" d="M203.112,399.4c-2.448,2.448-5.184,4.464-7.992,6.12c-4.608,14.616-10.296,31.896-21.816,42.48
	c6.984-13.176,13.032-28.512,16.992-43.416c-0.936-2.232-1.656-4.464-2.088-6.696c-6.408,16.416-12.816,29.808-18.648,40.392
	c-5.904,10.585-8.208,22.752-11.808,34.272c10.44-4.536,19.584-13.176,27-24.408C193.608,434.68,199.944,417.616,203.112,399.4z"/>
<path style="fill:#FFF200;" d="M229.104,410.92c-1.656,15.048-3.672,30.384-7.344,45.072c11.088-11.016,20.16-23.904,27.144-37.872
	c-0.36-1.08-0.936-6.408-0.792-6.48c-2.808,3.816-6.048,6.912-9.936,9.288c-1.8,6.768-3.528,12.6-8.136,18.216
	c1.224-6.408,2.808-12.384,3.384-19.44C231.84,417.04,230.328,414.088,229.104,410.92z"/>
<path style="fill:#FFF200;" d="M179.568,476.8c9.36-3.168,18.936-11.736,26.928-23.76c8.28-12.456,14.832-28.512,17.856-46.008
	c-2.52,2.88-5.256,4.968-8.64,6.552c-3.384,14.04-10.08,33.48-20.808,43.344c6.192-12.744,12.384-29.952,15.84-43.848
	c-1.296-2.448-2.664-4.896-3.816-7.416c-3.6,16.848-9.792,32.544-18.072,45.144C181.152,462.472,183.024,461.68,179.568,476.8z"/>
<path style="fill:#FFF200;" d="M180.72,331.576c-0.216,1.08-0.36,2.16-0.432,3.168c-0.576,6.336,1.368,11.952,4.896,16.92
	c3.744,5.112,9.216,9.576,15.696,13.392c16.848,9.936,40.248,15.408,56.592,17.28c1.944-4.032,3.888-8.136,5.616-12.24
	c-14.328-0.72-29.232-2.232-42.264-6.192c-14.112-4.32-26.136-11.448-32.976-23.472l-1.368-2.448l2.592-1.08
	c4.68-1.872,8.424-4.824,11.088-8.208c2.448-3.168,4.032-6.84,4.68-10.584c0.576-3.672,0.216-7.416-1.152-10.8
	c-1.224-2.88-3.168-5.544-5.904-7.704c-6.048-4.68-11.808-5.976-17.064-4.824c-6.264,1.368-12.096,6.12-17.28,12.744
	c-7.2,9.288-11.664,19.872-16.128,30.6c-1.728,4.176-3.456,8.352-5.472,12.672c-3.6,7.704-7.704,14.472-12.456,20.088
	c-3.888,4.68-8.208,8.568-12.96,11.592c7.704,4.68,23.688,6.552,27.432-4.032c6.768-18.72,13.32-37.008,22.752-51.696
	c-16.2,10.512-14.544,34.56-27.864,46.656c9.936-15.912,8.136-45.216,30.96-53.784c-1.584-2.016-2.52-4.68-2.52-7.416
	c0-3.096,1.368-5.832,3.528-7.704c3.6-3.096,8.712-3.312,12.528-0.648c3.96-2.232,8.928-1.656,12.168,1.656l0,0
	c1.872,1.872,3.024,4.392,3.024,7.2c0,2.664-1.008,5.184-2.808,7.056c1.656,6.336-3.096,12.816-9.936,12.816
	C183.96,332.656,182.232,332.296,180.72,331.576z"/>
<path style="fill:#FFF200;" d="M175.104,365.632c-4.968-6.264-7.776-13.32-8.496-20.448c-0.504,1.44-0.936,2.88-1.368,4.32
	c-2.232,7.488-3.6,15.48-3.384,24.192C166.896,372.328,171.36,369.232,175.104,365.632z"/>
<path style="fill:#FFF200;" d="M187.848,377.296c-3.312-2.304-6.336-4.752-9.072-7.488c-1.872,6.264-2.664,12.816-1.584,19.296
	C182.232,386.512,185.76,382.624,187.848,377.296z"/>
<path style="fill:#FFF200;" d="M205.848,386.8c-4.68-1.872-9.072-4.032-13.176-6.408c-0.648,6.768-0.864,13.536,1.296,20.088
	C199.512,396.808,202.968,392.776,205.848,386.8z"/>
<path style="fill:#FFF200;" d="M226.728,393.64c-4.464-1.224-8.928-2.52-13.248-3.96c-1.008-0.36-2.016-0.72-3.024-1.08
	c-3.168,7.776-0.072,13.32,3.6,20.304C220.392,405.808,223.92,399.76,226.728,393.64z"/>
<path style="fill:#FFF200;" d="M249.984,398.536c-5.976-1.08-12.096-2.304-18.072-3.6c-1.44,7.416,1.44,14.544,4.968,20.952
	C243,411.64,246.96,405.232,249.984,398.536z"/>
<path style="fill:#FFF200;" d="M258.912,399.976c-1.296-0.216-2.592-0.36-3.888-0.576c-0.864,2.448-1.44,4.968-1.728,7.704
	c-0.216,2.592-0.216,5.4,0.144,8.28c2.952-1.728,5.544-4.032,7.848-6.408C260.352,406.024,259.488,403,258.912,399.976z"/>
<path style="fill:#ED1C24;" d="M232.488,307.888c1.368,5.184,5.472,7.272,10.728,7.056c6.624,0.072,9.648-4.464,15.624-2.88
	c4.32,1.152,5.4,3.456,10.224,1.656c2.664-1.008,2.664-2.952,0.144-4.032c-7.848-3.384-15.552-0.864-23.112,0.072
	C241.128,310.336,237.024,310.048,232.488,307.888z"/>
<path style="fill:#ED1C24;" d="M265.536,319.048c8.28,2.304,15.84-0.576,16.056-9.792c0.216-4.968-3.672-6.12-8.064-7.344
	c-6.696-1.944-14.04-7.272-20.592-7.56c-2.88-0.144-4.824,2.232-5.616,10.08c4.392-0.648,11.52-1.152,17.352-0.576
	c3.888,0.432,9.864,1.512,11.088,5.976C277.416,315.664,270.648,318.688,265.536,319.048z"/>
<path style="fill:#ED1C24;" d="M243.36,485.8c-0.216-1.008-0.432-2.088-0.648-3.096c-1.728,1.152-3.528,2.16-5.256,2.952
	c-1.872,3.096-3.672,6.264-5.4,9.504c-2.016,3.744-3.816,7.488-5.616,11.16c-1.512,3.096-3.528,4.176-5.904,4.104
	c-2.016-0.072-3.96-1.08-5.832-2.376c-2.736-1.8-6.984-3.168-8.784,0.432c-0.432,0.864-0.864,1.944-1.368,2.952
	c-1.296,2.88-1.224,4.392,3.24,3.96c4.392,0,4.896,0.864,7.056,2.232c-6.264,2.448-16.2,5.04-13.176,11.952
	c0.504,1.152,0.648,2.592,0.72,3.816c0.144,1.224,2.088,1.296,3.888,0.504c2.376-1.08,4.392-3.24,6.048-4.968
	c-0.072,2.448-1.44,12.816,2.088,13.176c0.288,0.072,1.44-0.504,2.664-0.864c1.44-0.432,1.728-0.288,2.376-0.36
	c4.968-0.288,6.624-7.488,5.472-15.192c3.168,0.792,10.296,2.376,14.472,0.144c1.296-0.648,3.024-1.368,4.176-1.944
	c2.304-1.08,1.8-3.528,1.224-4.824c-1.008-2.232-4.176-3.6-6.696-3.888c-2.952-0.288-4.536-0.72-5.328-2.448
	c-0.72-1.656-0.072-3.168,1.512-5.76c3.456-5.832,5.472-9.576,6.696-12.816C242.136,491.344,242.712,488.896,243.36,485.8z"/>
<path style="fill:#ED1C24;" d="M311.976,392.272v45.432c10.296-2.52,17.928-11.736,17.928-22.752c0-6.48-2.592-12.312-6.84-16.56
	C320.04,395.512,316.224,393.28,311.976,392.272z"/>
<path style="fill:#FFF200;" d="M311.976,291.616v13.176c2.304,0.36,4.608,0.36,7.056,0.144c8.64-0.792,19.8,3.96,16.704,18.864
	c-1.079,5.328-3.456,9.144-6.408,12.384c-8.352,9.216-10.512,17.712-15.408,27.144c2.52-9.792,3.888-18.792,11.52-29.664
	c2.232-3.096,4.104-6.192,5.328-11.016c2.232-9.36-5.76-11.808-12.096-11.448c-2.448,0.144-4.608,0.216-6.696,0.144v75.096
	c9.288-13.824,29.664-39.312,37.8-59.616c3.672-7.92,3.312-20.16-0.72-28.656c-3.672-7.632-12.24-10.296-23.616-7.416
	C320.832,291.904,316.368,292.264,311.976,291.616z"/>
<path style="fill:#FFF200;" d="M332.136,402.352c1.8,4.032,2.88,8.136,2.88,12.6c0,4.896-1.296,9.504-3.456,13.536
	c15.624,10.728,44.856,36.288,65.592,46.368c8.208,4.32,20.304,5.688,29.088,0.792c7.848-4.32,10.584-14.544,7.632-28.152
	c-2.52-11.592-1.224-22.536,5.184-32.544c-6.408-10.08-7.704-20.88-5.184-32.544c2.952-13.608,0.216-23.832-7.632-28.152
	c-8.784-4.896-20.52-3.168-28.728,1.224C376.56,365.128,347.832,391.552,332.136,402.352z"/>
<path style="fill:#FFF200;" d="M311.976,443.464v75.168c2.088-0.144,4.248,0,6.696,0.144c6.336,0.36,14.328-2.088,12.096-11.448
	c-1.224-4.896-3.096-7.92-5.328-11.088c-7.632-10.8-9-19.872-11.52-29.664c4.896,9.432,7.056,17.928,15.408,27.216
	c2.952,3.24,5.328,7.056,6.408,12.312c3.096,14.904-8.064,19.656-16.704,18.864c-2.448-0.216-4.752-0.144-7.056,0.216v13.176
	c4.392-0.648,8.856-0.36,13.464,0.792c11.376,2.88,19.944,0.216,23.616-7.344c4.032-8.568,1.152-19.008-2.448-27
	C340.488,485.08,322.2,459.16,311.976,443.464z"/>
<path d="M399.816,459.808c15.336,3.744,20.232-9.576,19.44-19.944c-0.648-8.28-1.944-14.832,4.032-24.912
	c-5.976-10.152-4.68-16.704-4.032-24.84c0.792-10.368-4.104-23.688-19.44-20.016c-8.496,2.088-12.744,8.496-18.936,13.824
	c-6.552,5.688-13.464,10.08-21.024,15.264c8.784-2.52,16.2-5.76,23.76-11.664c6.048-4.752,9.432-9.144,17.424-11.448
	c9.648-2.664,12.168,6.84,11.808,14.4c-0.504,9.576-2.16,15.48,3.744,24.48c-5.904,8.928-4.248,14.832-3.744,24.552
	c0.36,7.488-2.16,17.064-11.808,14.328c-7.992-2.232-11.376-6.624-17.424-11.448c-7.56-5.832-14.976-9.144-23.76-11.736
	c7.56,5.256,14.472,9.648,21.024,15.336C387.072,451.384,391.32,457.72,399.816,459.808z"/>
<path style="fill:#ED1C24;" d="M311.976,655.576c11.232-8.928,22.68-16.704,34.272-23.688c15.048-9.072,30.384-16.92,45.72-24.624
	c44.568-22.536,79.344-47.736,102.024-79.704c39.6-55.872,32.112-118.512,20.952-181.152c-4.896-27.936-11.304-59.688-8.784-89.568
	H311.976v20.376c3.24-0.72,6.336-1.8,9.216-3.096c9.072-4.032,18.576-8.28,34.056,3.24c7.2,5.256,10.512,12.96,11.232,21.312
	c6.048-3.528,11.376-4.608,16.632-4.68c12.96-0.216,20.664,0.648,33.408-5.472c-2.448,8.712-4.536,16.56-5.472,25.704
	c-0.792,7.56-1.584,14.832-5.184,22.104c15.192-5.472,32.256-4.536,41.832,10.512c11.808,18.504,7.488,29.808,3.312,40.68
	c-6.408,16.272-6.408,38.52,0,54.864c4.176,10.872,8.496,22.176-3.312,40.68c-8.568,13.536-23.184,15.696-37.08,12.024
	c3.096,9.432,1.512,16.488-0.144,23.688c-2.304,10.296-1.584,16.92,1.08,26.784c-9.936-4.824-18.72-8.424-29.448-10.872
	c-6.336-1.44-10.728-3.96-15.48-7.92c0.216,10.008-2.88,19.584-11.376,25.848c-15.48,11.448-24.984,7.272-34.056,3.168
	c-2.88-1.296-5.976-2.304-9.216-3.096V655.576z"/>
<path style="fill:#44A13F;" d="M329.832,398.608c17.136-12.816,32.832-28.008,49.392-41.472c6.768-5.544,13.464-13.68,19.296-20.232
	c4.536-4.968,6.264-10.296,7.632-23.184c0.576-5.184,1.08-10.585,2.592-16.272c-6.84,2.304-12.744,2.088-18.576,1.8
	c-24.696-1.368-21.816,8.568-30.456,25.632c-11.016,21.816-29.952,43.128-43.272,63.432C321.912,390.4,326.592,394,329.832,398.608z
	"/>
<path style="fill:#44A13F;" d="M315.576,441.88c12.6,18,25.92,36.432,36.936,54.648c11.664,19.368,12.456,27.432,36.144,34.344
	c4.968,1.44,10.152,2.952,15.552,5.472c-1.152-7.2,0.216-12.96,1.512-18.648c4.968-25.632-9.792-33.192-25.416-44.64
	c-18.072-13.32-33.408-27.648-50.904-41.256C325.944,436.48,321.192,440.008,315.576,441.88z"/>
<path d="M131.76,196.432h20.736c0,0.288,0,0.648,0.072,1.224c0,0.504,0,0.936,0,1.152c0,8.712-1.728,15.552-5.112,20.376
	c-3.456,4.896-8.136,7.344-14.184,7.344c-5.904,0-10.512-2.376-13.968-7.128c-3.456-4.824-5.184-11.304-5.184-19.512
	c0-8.28,1.8-14.832,5.328-19.584c3.6-4.824,8.496-7.2,14.616-7.2c4.176,0,7.704,1.152,10.656,3.456
	c2.88,2.304,5.04,5.616,6.336,9.936l-9.936,4.32c-0.432-2.592-1.296-4.536-2.52-5.832c-1.152-1.296-2.808-1.872-4.752-1.872
	c-3.024,0-5.184,1.296-6.552,4.032c-1.368,2.664-2.088,6.912-2.088,12.744c0,5.544,0.72,9.72,2.232,12.6
	c1.44,2.808,3.6,4.247,6.408,4.247c2.448,0,4.392-0.936,5.76-2.88c1.368-1.944,2.088-4.68,2.088-8.208h-9.936V196.432z"/>
<path d="M162.936,220.84c0,1.584-0.504,2.88-1.584,3.888c-1.008,1.08-2.304,1.584-3.816,1.584c-1.512,0-2.808-0.504-3.816-1.584
	c-1.08-1.008-1.584-2.304-1.584-3.888c0-1.512,0.504-2.808,1.584-3.816c1.008-1.08,2.304-1.584,3.816-1.584
	c1.512,0,2.808,0.504,3.816,1.584C162.432,218.032,162.936,219.328,162.936,220.84z"/>
<polygon points="167.328,225.808 167.328,173.824 178.056,173.824 178.056,196.504 188.928,173.824 200.52,173.824 189,197.512 
	200.88,225.808 189,225.808 178.056,200.464 178.056,225.808 "/>
<polygon points="291.888,236.608 297.792,218.68 307.944,218.68 299.232,236.608 "/>
<polygon points="278.28,236.608 284.04,218.68 294.336,218.68 285.48,236.608 "/>
<path d="M330.048,216.592c8.136,0,8.496-11.52,8.496-16.704s-0.36-16.776-8.496-16.776c-8.136,0-8.496,11.592-8.496,16.776
	S321.912,216.592,330.048,216.592L330.048,216.592z M349.704,200.608c0,11.448-4.752,25.92-19.656,25.92
	c-15.48,0-19.512-14.904-19.512-26.64c0-11.664,4.104-26.784,19.512-26.784C345.744,173.104,349.704,188.872,349.704,200.608z"/>
<path d="M367.56,216.232c10.584,0,13.032-7.992,13.032-16.2c0-8.424-1.944-16.704-13.032-16.704V216.232L367.56,216.232z
	 M356.544,225.88v-52.056h9.576c18,0,25.56,9.864,25.56,26.064c0,5.256-0.792,9.72-2.304,13.247
	c-4.608,10.512-13.464,12.744-24.48,12.744H356.544z"/>
<path d="M409.104,196.36c6.12,0.144,10.008-0.432,9.792-7.344c-0.144-6.192-4.032-7.848-9.72-7.128L409.104,196.36L409.104,196.36z
	 M398.376,225.88v-52.056h12.816c11.448,0,17.352,3.384,17.928,14.472c0.36,5.976-1.44,12.312-5.976,13.896l8.928,23.688h-11.664
	l-7.704-20.376l-3.6,0.072v20.304H398.376z"/>
<path d="M450.216,208.672h7.344c-1.656-7.92-2.808-14.832-3.6-22.896C452.808,193.768,451.512,200.68,450.216,208.672
	L450.216,208.672z M435.312,225.88l13.032-52.056h11.592l12.384,52.056h-11.088l-1.872-9.144h-11.232l-1.656,9.144H435.312z"/>
<path d="M214.2,220.84c0,1.584-0.576,2.88-1.584,3.888c-1.008,1.08-2.304,1.584-3.816,1.584c-1.512,0-2.808-0.504-3.888-1.584
	c-1.008-1.008-1.512-2.304-1.512-3.888c0-1.512,0.504-2.808,1.512-3.816c1.08-1.08,2.376-1.584,3.888-1.584
	c1.512,0,2.736,0.504,3.816,1.584C213.624,218.032,214.2,219.328,214.2,220.84z"/>
<path d="M261.936,220.84c0,1.584-0.576,2.88-1.584,3.888c-1.008,1.08-2.304,1.584-3.816,1.584c-1.512,0-2.808-0.504-3.888-1.584
	c-1.008-1.008-1.512-2.304-1.512-3.888c0-1.512,0.504-2.808,1.512-3.816c1.08-1.08,2.376-1.584,3.888-1.584
	c1.512,0,2.736,0.504,3.816,1.584C261.36,218.032,261.936,219.328,261.936,220.84z"/>
<polygon points="482.904,191.392 488.736,173.464 499.032,173.464 490.176,191.392 "/>
<polygon points="469.224,191.392 474.984,173.464 485.28,173.464 476.496,191.392 "/>
<path d="M225.504,209.824c1.008,5.904,4.32,7.992,8.208,7.488c3.456-0.504,6.48-4.104,6.048-7.632c-0.504-4.464-5.76-5.4-9.36-6.552
	c-5.472-1.8-9.864-3.312-12.456-8.64c-2.16-4.392-2.088-10.008,0.432-14.256c3.024-5.112,8.28-6.84,14.112-6.84
	c9.792,0,15.984,5.184,16.632,14.616h-9.936c-1.008-4.464-4.176-5.832-7.2-5.4c-4.104,0.504-7.992,4.104-4.464,7.92
	c1.08,1.08,2.952,2.016,7.128,3.169c5.832,1.584,11.448,3.528,14.184,9.143c2.88,5.976,1.872,14.184-2.736,19.08
	c-2.88,3.024-7.344,4.536-13.392,4.536c-11.232,0-17.496-5.544-17.784-16.632H225.504z"/>
</svg>
