<?xml version="1.0" encoding="iso-8859-1"?>
<!-- Generator: Adobe Illustrator 24.0.1, SVG Export Plug-In . SVG Version: 6.00 Build 0)  -->
<svg version="1.1" id="Layer_1" xmlns="http://www.w3.org/2000/svg" xmlns:xlink="http://www.w3.org/1999/xlink" x="0px" y="0px"
	 viewBox="0 0 612 792" style="enable-background:new 0 0 612 792;" xml:space="preserve">
<g>
	<path style="fill:#013B82;" d="M305.928,165.472c77.544-4.032,148.176,18,199.512,56.663c52.2,39.313,84.6,95.832,84.6,160.056
		c0,63.792-32.184,123.264-83.952,167.616c-51.12,43.776-121.536,72.936-198.864,76.896c-77.544,4.032-148.176-18-199.512-56.664
		c-52.2-39.312-84.6-95.832-84.6-160.056c0-63.792,32.184-123.264,83.952-167.616C158.184,198.592,228.6,169.432,305.928,165.472z"
		/>
	<path style="fill:#FFFFFF;" d="M306.576,178.288c149.04-7.632,270.576,83.952,270.576,203.904
		c0,119.88-121.536,223.992-270.576,231.696C157.536,621.52,36,529.936,36,409.984C36,290.104,157.536,185.992,306.576,178.288z"/>
	<path style="fill:#013B82;" d="M55.656,455.992h385.56c-14.976,27.72-31.824,49.752-59.4,66.312
		c-22.104,13.176-47.808,20.808-75.24,20.808c-27.432,0-53.136-7.632-75.24-20.808c-2.304-1.44-4.608-2.88-6.768-4.392h-95.256
		c107.568,100.944,259.56,97.776,358.704,12.24c46.656-41.112,78.84-99.432,74.592-162.864c-0.72-10.656-2.448-21.096-5.112-31.104
		L55.656,455.992z"/>
	<path style="fill:#F47920;" d="M125.136,262.024c-46.296,40.824-75.024,94.608-75.024,151.632c0,14.256,1.872,28.584,5.544,42.336
		l0,0l501.84-119.808h-385.56c14.976-27.72,31.824-49.752,59.4-66.312c22.104-13.176,47.808-20.808,75.24-20.808
		c27.432,0,53.136,7.632,75.24,20.808c2.304,1.44,4.608,2.88,6.84,4.392h95.184C374.04,171.304,226.152,173.176,125.136,262.024z"/>
	<path style="fill:#004282;" d="M388.656,274.264c18.648,12.6,34.344,29.448,45.576,49.032h119.304
		c-29.304-82.512-123.336-139.248-235.8-135.504c70.848,7.704,130.32,37.512,166.104,86.472H388.656z"/>
	<path style="fill:#F47920;" d="M224.568,517.912c-18.72-12.6-34.344-29.448-45.648-49.032H59.616
		c29.304,82.512,123.336,139.248,235.8,135.504c-69.336-7.344-129.024-34.992-166.104-86.472H224.568z"/>
	<polygon style="fill:#FFFFFF;" points="445.896,283.264 455.4,283.264 453.024,294.568 458.208,294.568 472.896,283.12 
		487.296,283.12 466.2,298.528 482.4,314.296 468,314.296 456.552,302.416 451.44,302.416 448.92,314.296 439.488,314.296 	"/>
	<path style="fill:#FFFFFF;" d="M483.624,314.296l6.408-31.032h21.24c4.248,0,6.912,0.144,8.136,0.288
		c2.952,0.432,4.824,1.368,5.616,2.952c0.72,1.584,0.72,4.392-0.144,8.424c-0.792,3.816-1.8,6.48-3.024,8.064
		c-0.792,1.008-1.8,1.8-3.024,2.376c-1.224,0.504-2.808,0.936-4.752,1.152c-1.368,0.144-3.888,0.216-7.56,0.216h-11.88l-1.584,7.56
		H483.624L483.624,314.296z M496.224,298.96h11.808c2.16,0,3.528-0.072,4.032-0.072c0.432-0.072,0.864-0.144,1.296-0.36
		c0.576-0.288,0.936-0.648,1.296-1.152c0.288-0.576,0.504-1.368,0.72-2.448c0.288-1.152,0.288-1.944,0.216-2.448
		c-0.144-0.504-0.504-0.864-1.008-1.152c-0.36-0.144-2.016-0.216-4.896-0.288H497.88L496.224,298.96z"/>
	<path style="fill:#FFFFFF;" d="M90.072,492.208h-5.616c0.36-1.512,0.648-2.736,0.936-3.528c0.504-1.44,1.368-2.376,2.52-2.88
		c0.792-0.36,1.8-0.576,3.096-0.72c1.368-0.144,3.312-0.216,5.832-0.216c3.96,0,6.408,0,7.488,0.143
		c1.08,0.072,1.872,0.288,2.448,0.648c0.576,0.432,0.936,1.008,1.08,1.8c0.072,0.72,0,1.872-0.36,3.456
		c-0.216,1.08-0.504,2.016-0.72,2.664c-0.288,0.648-0.576,1.152-1.008,1.584c-0.504,0.648-1.152,1.08-1.872,1.296
		c-1.296,0.432-2.736,0.648-4.392,0.792c-4.032,0.216-6.696,0.36-7.848,0.504c-1.224,0.072-1.944,0.216-2.232,0.432
		c-0.216,0.144-0.432,0.288-0.504,0.504c-0.144,0.144-0.288,0.576-0.432,1.08h17.496l-0.936,4.392H82.224
		c0.144-0.72,0.288-1.44,0.432-2.16c0.432-2.16,0.864-3.744,1.152-4.68c0.648-1.8,1.944-2.952,3.816-3.384
		c0.72-0.144,1.368-0.288,1.944-0.36c0.648-0.072,2.304-0.216,5.112-0.432c2.736-0.144,4.392-0.288,4.896-0.36
		c0.504-0.072,0.936-0.144,1.296-0.216c0.36-0.144,0.648-0.288,0.792-0.504c0.144-0.216,0.288-0.576,0.36-1.08
		c0.144-0.576,0.144-0.936,0.072-1.224c-0.072-0.216-0.288-0.432-0.576-0.504c-0.36-0.144-1.8-0.216-4.32-0.216
		c-2.16,0-3.672,0.072-4.536,0.144c-0.864,0.072-1.368,0.144-1.656,0.36c-0.144,0.144-0.36,0.36-0.432,0.648
		C90.504,490.48,90.288,491.128,90.072,492.208z"/>
	<path style="fill:#FFFFFF;" d="M123.408,484.864c3.672,0,6.192,0.143,7.632,0.36c1.656,0.216,2.736,0.936,3.096,2.16
		c0.216,0.648,0.288,1.368,0.216,2.088c-0.072,0.72-0.432,2.448-0.936,5.184c-0.432,2.088-0.72,3.456-0.864,4.032
		c-0.144,0.576-0.36,1.152-0.576,1.728c-0.576,1.368-1.512,2.448-2.808,3.096c-0.576,0.216-1.224,0.432-1.872,0.576
		c-0.72,0.072-1.728,0.216-2.952,0.216c-1.512,0.072-3.168,0.144-4.968,0.144c-3.6,0-6.192-0.144-7.632-0.36
		c-1.656-0.288-2.664-1.008-3.096-2.232c-0.216-0.576-0.288-1.296-0.216-2.088c0.072-0.72,0.432-2.52,1.008-5.4
		c0.432-1.944,0.72-3.168,0.864-3.744c0.144-0.576,0.288-1.152,0.504-1.728c0.576-1.44,1.512-2.448,2.88-3.096
		c0.504-0.288,1.152-0.432,1.872-0.576c0.648-0.144,1.656-0.216,2.88-0.288C119.952,484.936,121.608,484.864,123.408,484.864
		L123.408,484.864z M122.04,489.832c-2.664,0-4.32,0.144-4.968,0.504c-0.36,0.216-0.72,0.648-1.008,1.296
		c-0.288,0.576-0.504,1.584-0.792,2.952c-0.36,1.512-0.504,2.664-0.432,3.24c0,0.576,0.216,1.008,0.72,1.224
		c0.288,0.144,0.648,0.216,1.08,0.288c0.432,0.072,1.512,0.072,3.384,0.144c2.376-0.072,3.744-0.144,4.104-0.144
		c1.08-0.144,1.872-0.432,2.232-1.008c0.432-0.576,0.792-1.8,1.224-3.672c0.288-1.512,0.432-2.592,0.432-3.168
		c-0.072-0.648-0.288-1.008-0.72-1.224c-0.36-0.144-0.72-0.288-1.152-0.288C125.712,489.904,124.344,489.904,122.04,489.832z"/>
	<path style="fill:#FFFFFF;" d="M149.4,484.864c3.672,0,6.192,0.143,7.632,0.36c1.656,0.216,2.736,0.936,3.096,2.16
		c0.216,0.648,0.288,1.368,0.216,2.088c-0.072,0.72-0.432,2.448-0.936,5.184c-0.432,2.088-0.72,3.456-0.864,4.032
		c-0.144,0.576-0.36,1.152-0.576,1.728c-0.576,1.368-1.512,2.448-2.808,3.096c-0.576,0.216-1.224,0.432-1.872,0.576
		c-0.72,0.072-1.728,0.216-2.952,0.216c-1.512,0.072-3.168,0.144-4.968,0.144c-3.672,0-6.192-0.144-7.632-0.36
		c-1.656-0.288-2.736-1.008-3.096-2.232c-0.216-0.576-0.288-1.296-0.216-2.088c0.072-0.72,0.432-2.52,1.008-5.4
		c0.432-1.944,0.72-3.168,0.864-3.744c0.144-0.576,0.288-1.152,0.504-1.728c0.576-1.44,1.512-2.448,2.808-3.096
		c0.576-0.288,1.224-0.432,1.872-0.576c0.72-0.144,1.728-0.216,2.952-0.288C145.944,484.936,147.6,484.864,149.4,484.864
		L149.4,484.864z M148.032,489.832c-2.664,0-4.32,0.144-4.968,0.504c-0.36,0.216-0.72,0.648-1.008,1.296
		c-0.288,0.576-0.504,1.584-0.792,2.952c-0.36,1.512-0.504,2.664-0.432,3.24c0,0.576,0.216,1.008,0.648,1.224
		c0.36,0.144,0.72,0.216,1.152,0.288c0.36,0.072,1.512,0.072,3.384,0.144c2.376-0.072,3.744-0.144,4.104-0.144
		c1.08-0.144,1.872-0.432,2.232-1.008c0.432-0.576,0.792-1.8,1.224-3.672c0.288-1.512,0.432-2.592,0.432-3.168
		c-0.072-0.648-0.288-1.008-0.72-1.224c-0.36-0.144-0.72-0.288-1.152-0.288C151.704,489.904,150.336,489.904,148.032,489.832z"/>
	<polygon style="fill:#FFFFFF;" points="163.8,485.08 185.688,485.08 184.752,489.544 170.856,504.16 163.512,504.16 
		177.264,489.904 162.792,489.904 	"/>
	<path style="fill:#FFFFFF;" d="M112.104,414.808c7.992,0,29.664-0.072,31.32-0.144c1.584-0.072,2.952-0.36,3.96-0.792
		c1.512-0.576,2.52-2.232,3.024-4.968c0.432-1.944,0.216-3.24-0.648-3.888c-0.864-0.648-2.808-1.008-5.832-1.08
		c-2.304,0-7.2-0.216-14.688-0.576c-7.632-0.432-12.6-0.648-14.976-0.72c-4.536-0.144-7.92-0.576-10.224-1.368
		c-6.912-2.304-6.624-7.632-5.472-13.536l1.872-9c1.728-8.712,5.688-14.112,15.408-15.552c4.32-0.648,12.96-1.008,25.848-1.008
		l34.848,0.864l-3.816,14.328l-52.272,0.72c-1.872,0.576-3.024,2.016-3.528,4.392c-0.432,2.376,0.144,4.248,1.8,4.752l39.672,1.872
		c3.312,0.432,5.832,1.224,7.632,2.448c1.944,1.512,3.168,3.456,3.6,5.904c0.432,2.52,0.216,6.192-0.72,10.872
		c-1.296,6.264-2.952,10.872-5.112,13.896c-1.656,2.232-3.6,3.888-5.976,4.968c-2.304,1.08-5.4,1.8-9.288,2.232
		c-4.176,0.36-11.88,0.576-22.968,0.576c-6.912,0-24.768-0.144-35.352-0.432L112.104,414.808L112.104,414.808z M193.536,362.968
		l69.12,0.216l-3.384,16.848h-27.576l-9.792,48.96h-19.872l9.792-48.96h-22.32L193.536,362.968L193.536,362.968z M313.344,417.832
		l-2.232,12.096h18.504l12.672-66.744h-43.416l-54.432,65.808h21.6l10.08-11.16H313.344L313.344,417.832z M316.152,403.432h-30.168
		l20.592-24.84h14.328L316.152,403.432L316.152,403.432z M347.688,428.992l13.104-65.808h45.72
		c10.728,0.072,17.136,0.216,19.224,0.36c4.68,0.504,8.64,3.744,9.288,8.568c0.36,2.592,0,6.768-1.152,12.456
		c-0.936,4.824-1.944,8.352-2.952,10.584c-2.376,5.256-6.768,7.488-12.384,8.352c5.256,0.36,9.072,2.592,8.856,8.136
		c-0.144,1.8-0.72,5.544-1.872,11.232l-1.224,6.12H405.72l0.648-3.528c0.72-3.672,1.152-6.264,1.224-7.848
		c0.072-2.592-0.504-4.536-3.312-5.04c-1.224-0.216-3.744-0.288-7.704-0.288h-26.64l-3.312,16.704H347.688L347.688,428.992z
		 M373.248,395.872h26.568c8.712-0.144,12.6,1.152,14.472-8.352c0.72-3.6,1.296-7.344-3.384-7.704
		c-0.864-0.072-3.528-0.144-7.92-0.144h-26.496L373.248,395.872L373.248,395.872z M453.888,362.968l69.048,0.216l-3.312,16.848
		h-27.576l-9.792,48.96h-19.872l9.792-48.96h-22.32L453.888,362.968z"/>
	<polygon style="fill:#FFFFFF;" points="245.52,542.536 242.568,548.44 234.72,545.56 222.768,568.96 215.28,566.296 
		227.232,542.824 219.312,539.944 222.336,534.112 	"/>
	<path style="fill:#FFFFFF;" d="M282.96,559.024c-0.216,1.152-0.576,2.52-1.008,3.96l-2.232,6.912
		c-1.512,4.68-3.456,7.848-5.76,9.432c-2.52,1.8-6.12,2.232-10.8,1.296l-4.392-0.864c-3.744-0.72-6.264-1.872-7.704-3.456
		c-1.584-1.8-2.016-4.536-1.296-8.136c0.216-1.152,0.576-2.448,1.008-3.888l2.232-6.912c1.512-4.68,3.456-7.848,5.76-9.432
		c2.52-1.8,6.12-2.232,10.728-1.368l4.392,0.864c3.744,0.72,6.264,1.872,7.704,3.456C283.176,552.76,283.68,555.424,282.96,559.024
		L282.96,559.024z M274.464,558.88c0.288-1.584,0.072-2.736-0.648-3.456c-0.648-0.576-1.8-1.008-3.528-1.368l-1.656-0.288
		c-2.376-0.504-4.176-0.216-5.256,0.792c-0.72,0.72-1.512,2.448-2.376,5.112l-1.8,5.544c-0.504,1.44-0.792,2.52-0.936,3.24
		c-0.288,1.584-0.072,2.664,0.72,3.384c0.576,0.576,1.728,1.008,3.384,1.296l1.656,0.36c2.448,0.432,4.176,0.216,5.256-0.792
		c0.792-0.72,1.584-2.376,2.448-5.112l1.8-5.472C274.032,560.608,274.32,559.528,274.464,558.88z"/>
	<path style="fill:#FFFFFF;" d="M325.152,556.72c0,0.504-0.072,1.224-0.144,2.088l-0.36,2.88c-0.504,4.608-2.952,7.2-7.344,7.704
		l-0.072,0.432c3.744,0.648,5.616,2.736,5.616,6.336c0,0.144-0.072,0.36-0.072,0.648c-0.072,0.288-0.072,0.504-0.072,0.72
		l-0.864,6.912h-8.568l0.72-6.048c0-0.144,0-0.36,0-0.648c0.072-0.36,0.072-0.576,0.072-0.72c0-1.296-0.36-2.16-1.08-2.592
		c-0.576-0.288-1.584-0.504-2.952-0.504h-5.616l-1.296,10.512h-8.424l4.32-34.992h13.536c3.888,0,6.696,0.288,8.352,0.936
		C323.712,551.392,325.152,553.552,325.152,556.72L325.152,556.72z M316.296,559.528c0-1.224-0.432-2.088-1.152-2.52
		c-0.576-0.36-1.584-0.504-2.952-0.504h-5.688l-1.152,10.296h5.616c1.728,0,2.952-0.288,3.6-0.935c0.72-0.576,1.224-1.8,1.44-3.528
		l0.144-1.368c0-0.216,0.072-0.432,0.072-0.72C316.296,559.96,316.296,559.744,316.296,559.528z"/>
	<path style="fill:#FFFFFF;" d="M370.368,541.024l1.152,22.104c0.144,2.952,0.144,5.04,0,6.264
		c-0.504,4.176-2.448,7.128-5.904,8.856c-1.656,0.792-3.744,1.44-6.336,1.944l-4.68,0.792c-2.448,0.432-4.32,0.576-5.688,0.432
		c-2.016-0.144-3.672-0.936-5.04-2.232c-1.368-1.296-2.232-3.168-2.664-5.616c-0.216-1.152-0.36-2.88-0.504-5.04l-1.152-22.032
		l8.568-1.512l1.08,21.312c0.072,1.368,0.216,2.448,0.36,3.24c0.288,1.8,0.936,2.88,1.944,3.384c0.864,0.36,2.232,0.432,4.104,0.072
		l1.8-0.288c2.592-0.504,4.248-1.44,4.968-2.808c0.576-1.08,0.72-3.096,0.576-6.048l-1.08-21.312L370.368,541.024z"/>
	<polygon style="fill:#FFFFFF;" points="415.44,521.728 425.16,558.016 412.2,563.272 393.624,540.376 393.264,540.448 
		400.608,567.952 392.76,571.12 382.968,534.832 396,529.576 414.36,552.256 414.792,552.112 407.52,524.896 	"/>
	<polygon style="fill:#FFFFFF;" points="397.152,525.112 403.632,533.032 405.576,532.528 403.056,522.304 	"/>
	<path style="fill:#013B82;" d="M306.576,314.296l-3.312-29.664c-5.4-3.744-10.944-6.048-22.176-8.64
		c-9.864-2.232-19.008-1.008-32.544,3.672c36.216-25.344,79.848-25.344,116.064,0c-13.536-4.68-22.68-5.904-32.544-3.672
		c-11.232,2.592-16.776,4.896-22.176,8.64L306.576,314.296z"/>
	<path style="fill:#013B82;" d="M258.48,462.256l-14.688,25.992c2.16,6.192,5.256,11.304,12.888,20.016
		c6.624,7.56,14.76,11.952,28.44,16.128c-44.136-0.792-79.56-26.496-93.888-68.256c8.208,11.736,14.832,18.072,24.12,22.104
		c10.656,4.536,16.416,5.904,22.968,6.048L258.48,462.256z"/>
	<path style="fill:#013B82;" d="M354.672,462.256l20.16,22.032c6.552-0.144,12.312-1.512,22.968-6.048
		c9.288-4.032,15.912-10.368,24.12-22.104c-14.328,41.76-49.752,67.464-93.888,68.256c13.68-4.176,21.816-8.568,28.44-16.128
		c7.632-8.712,10.728-13.824,12.888-20.016L354.672,462.256z"/>
	<path style="fill:#013B82;" d="M185.832,336.184c6.768-11.736,16.128-22.32,27.936-31.248c-8.568,11.448-12.6,19.728-13.536,29.808
		c0,0.432-0.072,0.936-0.072,1.44H185.832z"/>
	<path style="fill:#013B82;" d="M412.992,336.184c0-0.504-0.072-1.008-0.072-1.44c-0.936-10.08-4.968-18.36-13.536-29.808
		c11.808,8.928,21.168,19.512,27.936,31.248H412.992z"/>
</g>
</svg>
