<svg enable-background="new 0 0 612 792" viewBox="0 0 612 792" xmlns="http://www.w3.org/2000/svg"><path d="M 306.576 679.552 c -32.616 -35.136 -69.84 -54.72 -108.936 -80.928 c -82.584 -55.44 -95.832 -117 -90.864 -210.6 c 3.168 -61.272 9.504 -105.768 -27.36 -161.712 l 78.192 -113.688 c 97.56 55.152 200.88 54.936 297.936 0 l 78.192 113.688 c -36.864 55.944 -30.528 100.44 -27.36 161.712 c 4.968 93.6 -8.28 155.16 -90.864 210.6 C 376.416 624.832 339.192 644.416 306.576 679.552 z"/><path d="M 306.576 642.544 c 28.224 -25.704 63 -44.064 94.68 -65.304 c 74.592 -50.112 83.736 -103.68 79.344 -187.92 c -3.096 -59.472 -11.592 -107.352 22.176 -162.648 l -26.856 -39.024 L 159.84 528.784 c 12.096 17.064 28.944 32.904 52.056 48.456 C 243.576 598.48 278.424 616.84 306.576 642.544 z" fill="#ed1c24"/><path d="M 475.92 187.648 l -28.368 -41.184 c -86.616 44.424 -195.264 44.424 -281.952 0 l -55.224 80.208 c 33.768 55.296 25.272 103.176 22.176 162.648 c -3.024 58.104 .36 101.664 27.288 139.464 L 475.92 187.648 z" fill="#fff"/></svg>