<svg height="1000" viewBox="0 0 1000 1000" width="1000" xmlns="http://www.w3.org/2000/svg"><g transform="matrix(2.3120768 0 0 2.3120768 -176.84613 -20.991345)"><path d="M 487.318 214.578 C 487.318 101.419 395.035 9.079 281.93 9.079 c -113.158 0 -205.442 92.34 -205.442 205.499 c 0 113.102 92.284 205.387 205.442 205.387 c 113.105 0 205.388 -92.284 205.388 -205.387 z" fill="#fbb040"/><path d="m 470.785 214.578 c 0 -104.096 -84.87 -188.909 -188.854 -188.909 c -104.039 0 -188.908 84.813 -188.908 188.909 c 0 103.982 84.869 188.852 188.908 188.852 c 103.984 .001 188.854 -84.869 188.854 -188.852 z" fill="#0080c6"/><path d="m 423.102 214.578 c 0 -77.839 -63.445 -141.284 -141.172 -141.284 c -77.783 0 -141.227 63.445 -141.227 141.284 c 0 77.726 63.444 141.172 141.227 141.172 c 77.727 0 141.172 -63.445 141.172 -141.172 z" fill="#fbb040"/><g><path d="M 392.396 156.79 C 371.028 115.701 328.347 89.829 281.93 89.829 c -46.417 0 -89.043 25.817 -110.521 66.906 z" fill="#d1584b"/><path d="m 163.829 174.531 c -4.339 12.746 -6.592 26.368 -6.592 40.047 c 0 64.928 49.877 119.036 114.696 124.253 z" fill="#d1584b"/><path d="m 292.039 338.776 c 64.764 -5.328 114.531 -59.38 114.531 -124.198 c 0 -13.624 -2.142 -27.138 -6.537 -40.047 z" fill="#d1584b"/></g><path d="M 381.08 173.27 L 281.93 324.164 L 182.78 173.27 Z" fill="#fff"/><g><path d="M 113.456 226.992 L 98.79 216.334 L 100.657 229.409 L 113.072 237.757 L 102.03 239.35 L 103.624 250.558 L 137.846 245.724 L 136.253 234.518 L 125.377 236.055 L 122.247 233.804 L 134.715 223.586 L 132.847 210.183 Z" fill="#fbb040"/><path d="M 136.197 197.493 L 137.407 187.496 L 127.574 186.287 L 126.366 196.285 Z" fill="#fbb040"/><path d="m 117.082 164.755 c 1.813 .714 3.46 .989 4.944 .824 c 1.428 -.11 2.8 -.605 4.009 -1.429 c 1.153 -.768 2.307 -1.757 3.295 -2.91 c .989 -1.21 2.087 -2.692 3.351 -4.505 c 1.428 -1.978 2.582 -3.406 3.405 -4.229 c .88 -.77 1.759 -.99 2.692 -.66 c 1.319 .66 1.483 2.308 .659 4.944 c -.439 1.153 -1.099 2.088 -2.032 2.856 c -.879 .769 -1.977 1.044 -3.352 .769 l -3.899 10.218 c 2.197 .658 4.339 .714 6.537 .055 c 2.142 -.66 4.064 -1.869 5.768 -3.681 c 1.758 -1.813 3.131 -4.01 4.12 -6.592 c .989 -2.637 1.593 -5.218 1.703 -7.746 c .165 -2.583 -.33 -4.834 -1.428 -6.92 c -1.099 -2.033 -2.966 -3.57 -5.604 -4.559 c -1.867 -.714 -3.57 -.879 -5.164 -.549 c -1.538 .329 -3.076 1.153 -4.504 2.416 c -1.428 1.319 -2.966 3.077 -4.504 5.33 c -.494 .714 -1.044 1.482 -1.593 2.307 c -.549 .824 -1.154 1.594 -1.703 2.197 c -.55 .659 -1.153 1.1 -1.704 1.428 c -.604 .274 -1.153 .331 -1.703 .111 c -1.154 -.55 -1.317 -1.868 -.495 -3.955 c .989 -2.638 2.472 -3.735 4.449 -3.296 l 3.846 -10.052 c -1.977 -.44 -3.79 -.494 -5.437 -.165 c -1.649 .33 -3.132 .989 -4.396 1.921 c -1.262 .933 -2.362 2.087 -3.295 3.461 c -.934 1.373 -1.702 2.911 -2.362 4.615 c -1.099 2.91 -1.648 5.603 -1.593 8.019 c 0 2.417 .55 4.505 1.648 6.152 c 1.046 1.647 2.529 2.911 4.342 3.625 z" fill="#fbb040"/><path d="M 156.083 120.754 L 150.317 128.994 L 158.446 134.708 L 164.213 126.413 Z" fill="#fbb040"/><path d="m 162.565 102.353 c 2.197 2.417 4.669 4.229 7.416 5.328 c 2.801 1.098 5.658 1.374 8.569 .824 c 2.911 -.549 5.712 -2.032 8.349 -4.34 c 3.242 -2.965 4.835 -6.262 4.78 -9.998 l 2.637 2.143 l 5.438 -4.889 l -12.745 -14.173 l -11.589 10.383 l 4.999 5.603 l 3.68 -3.352 c .549 1.044 .659 2.253 .329 3.571 c -.329 1.318 -.987 2.417 -1.922 3.296 c -1.318 1.208 -2.691 1.813 -4.009 1.922 c -1.373 .056 -2.692 -.22 -3.955 -.989 c -1.264 -.714 -2.527 -1.758 -3.737 -3.076 c -2.197 -2.472 -3.46 -4.725 -3.735 -6.812 c -.275 -2.031 .33 -3.789 1.867 -5.163 c 1.153 -1.044 2.363 -1.594 3.68 -1.594 c 1.264 -.055 2.472 .274 3.516 .989 l 8.02 -7.251 c -1.538 -1.209 -3.241 -2.142 -4.998 -2.746 c -1.813 -.549 -3.57 -.77 -5.328 -.66 c -1.813 .164 -3.572 .66 -5.33 1.484 c -1.813 .823 -3.46 1.978 -5.108 3.405 c -2.197 2.033 -3.79 4.229 -4.833 6.482 c -1.044 2.252 -1.538 4.504 -1.538 6.812 c .054 2.251 .548 4.504 1.538 6.646 c .933 2.199 2.252 4.231 4.009 6.155 z" fill="#fbb040"/><path d="m 244.742 71.482 l -22.028 -24.665 l -2.417 -2.747 l -10.656 4.284 l 1.483 36.694 l 10.218 -4.119 l -.495 -4.778 l 1.868 -.771 l 8.57 -3.405 l 3.02 3.736 z m -22.028 -3.847 l -2.582 1.045 l -1.372 -12.744 l 3.954 5.053 l 4.011 5.053 z" fill="#fbb040"/><path d="m 269.022 68.24 l -1.044 -12.086 l 1.648 -.109 c .768 -.054 1.483 -.109 2.142 -.165 c 1.538 -.055 2.747 .056 3.626 .221 c .769 .219 1.373 .658 1.703 1.372 c .385 .715 .604 1.704 .769 2.912 c .165 1.153 .33 2.417 .494 3.68 c .112 1.262 .385 2.363 .77 3.296 l 11.317 -1.043 l -.111 -.991 c -.439 .056 -.769 -.163 -.989 -.657 c -.22 -.495 -.385 -1.374 -.493 -2.638 l -.277 -2.636 c -.164 -2.307 -.548 -3.956 -1.098 -5.108 c -.549 -1.1 -1.208 -1.868 -1.922 -2.253 c -.66 -.386 -1.813 -.824 -3.461 -1.318 c 1.648 -.604 2.966 -1.649 3.846 -3.186 c .934 -1.484 1.317 -3.406 1.099 -5.768 c -.165 -1.923 -.659 -3.57 -1.538 -4.944 c -.77 -1.317 -2.362 -2.362 -4.615 -3.021 c -2.142 -.66 -5.218 -.824 -9.119 -.549 c -.109 .054 -.22 .054 -.383 .054 l -16.646 1.483 l 3.022 34.443 z m 2.746 -26.861 l .33 -.055 c 1.263 -.11 2.363 .11 3.241 .659 c .88 .494 1.373 1.318 1.484 2.473 c .054 .989 -.22 1.868 -.825 2.526 c -.659 .659 -1.977 1.099 -3.955 1.264 h -.275 l -4.45 .383 l -.604 -6.811 z" fill="#fbb040"/><path d="m 334.665 72.58 c 1.538 -1.098 2.691 -2.857 3.405 -5.164 c .55 -1.868 .55 -3.625 0 -5.327 c -.549 -1.704 -1.648 -3.077 -3.351 -4.121 c 1.593 -.384 2.967 -1.154 4.12 -2.198 c 1.098 -1.044 1.923 -2.307 2.362 -3.844 c .166 -.715 .33 -1.429 .33 -2.143 v -.549 c -.164 -4.175 -3.845 -7.251 -11.096 -9.339 l -4.449 -1.262 l -11.701 -3.351 l -9.559 33.233 l 16.426 4.67 c 1.703 .493 3.351 .823 4.834 1.042 c 1.042 .111 2.032 .165 2.966 .165 c 2.252 -.054 4.173 -.659 5.713 -1.812 z m -6.483 -8.954 c -.33 1.154 -1.099 1.813 -2.196 2.033 c -.824 .109 -1.869 0 -3.078 -.332 l -4.997 -1.427 l 1.757 -6.152 l 3.407 .988 c 1.207 .331 2.141 .66 2.911 .99 c .219 .11 .494 .221 .658 .33 c .769 .384 1.318 .879 1.538 1.428 c .221 .549 .221 1.263 0 2.142 z m -2.196 -10.602 c -.055 0 -.055 0 -.055 0 l -4.561 -1.319 l 1.647 -5.547 l 2.968 .823 l 1.207 .331 c 1.594 .494 2.582 .988 2.967 1.537 c .439 .549 .494 1.319 .22 2.253 c -.22 .825 -.769 1.483 -1.538 1.868 c -.769 .383 -1.701 .383 -2.855 .054 z" fill="#fbb040"/><path d="m 359.548 84.609 l 9.392 6.154 l -1.318 4.613 l 2.418 1.594 l 7.029 4.56 l 8.46 -35.761 l -9.667 -6.261 l -5.821 4.394 l -23.402 17.853 l 9.283 6.042 z m 10.493 -9.118 l 4.833 -4.23 l -3.681 12.359 l -1.152 -.714 l -4.835 -3.185 z" fill="#fbb040"/><path d="m 402.944 111.636 l 1.044 1.317 c 1.594 2.033 2.636 3.681 3.076 4.836 c .273 .769 .166 1.483 -.22 2.197 c -.439 .714 -1.1 1.428 -2.032 2.198 c -.879 .768 -1.868 1.592 -2.857 2.415 c -.934 .824 -1.702 1.649 -2.308 2.417 l 7.033 9.009 l .825 -.604 c -.275 -.385 -.275 -.769 0 -1.208 c .329 -.495 .933 -1.1 1.922 -1.869 l 2.142 -1.648 c .933 -.714 1.702 -1.428 2.362 -2.087 c .55 -.549 .989 -1.1 1.264 -1.594 c .657 -1.099 .933 -2.032 .878 -2.856 c -.11 -.824 -.385 -2.032 -.823 -3.681 c 1.373 1.044 2.966 1.594 4.778 1.539 c 1.758 0 3.626 -.77 5.438 -2.198 c 1.538 -1.208 2.637 -2.525 3.295 -3.954 c .66 -1.484 .66 -3.352 0 -5.604 c -.603 -2.253 -2.251 -4.998 -4.778 -8.241 l -10.053 -12.906 l -.22 -.273 l -27.247 21.312 l 6.978 8.899 z m 10.986 -8.569 l .384 -.33 l 3.352 4.284 c .769 .989 1.208 1.977 1.208 3.022 c .056 1.042 -.383 1.922 -1.263 2.581 c -.768 .657 -1.648 .879 -2.582 .657 c -.33 -.053 -.714 -.218 -1.099 -.492 c -.66 -.439 -1.318 -1.153 -2.088 -2.087 l -2.911 -3.735 z" fill="#fbb040"/><path d="M 443.757 161.459 L 436.672 164.59 L 449.911 146.352 L 446.065 136.355 L 413.766 148.77 L 417.666 158.932 L 427.937 154.976 L 435.134 151.79 L 421.949 170.028 L 425.796 180.026 L 458.041 167.611 L 454.139 157.45 Z" fill="#fbb040"/><path d="M 462.929 205.294 L 462.105 193.923 L 427.608 196.341 L 428.431 207.655 Z" fill="#fbb040"/><path d="m 429.915 221.059 l -1.923 10.877 l 4.285 2.143 l -1.923 10.987 l -4.778 .603 l -1.978 11.097 l 20.544 -3.516 l 15.656 -2.691 l 1.978 -11.262 l -17.634 -10.052 z m 20.654 21.862 l -6.427 .714 l -6.372 .771 l 1.209 -6.977 l 5.163 2.417 z" fill="#fbb040"/><path d="m 135.813 283.021 c -4.834 0 -8.788 3.954 -8.788 8.844 c 0 4.833 3.955 8.789 8.788 8.789 c 4.89 0 8.845 -3.956 8.845 -8.789 c 0 -4.89 -3.955 -8.844 -8.845 -8.844 z" fill="#fbb040"/><path d="m 427.992 283.021 c -4.889 0 -8.843 3.954 -8.843 8.844 c 0 4.833 3.954 8.789 8.843 8.789 c 4.835 0 8.791 -3.956 8.791 -8.789 c 0 -4.89 -3.957 -8.844 -8.791 -8.844 z" fill="#fbb040"/><path d="M 151.469 343.006 L 158.994 334.986 L 162.895 334.766 L 159.654 350.642 L 169.321 359.649 L 173.991 334.217 L 191.679 333.338 L 182.285 324.55 L 167.234 326.142 L 175.035 317.793 L 166.96 310.321 L 143.45 335.534 Z" fill="#fbb040"/><path d="m 214.915 347.401 l -6.208 -3.022 l -8.624 -4.175 l -15.106 30.98 l 9.833 4.78 l 5.163 -10.658 l 4.229 2.033 c 1.593 .769 2.526 1.647 2.857 2.582 c .274 .988 .055 2.252 -.714 3.844 l -1.539 3.077 c -.109 .33 -.329 .77 -.493 1.373 c -.166 .604 -.331 1.318 -.55 2.143 l 4.944 2.418 l 5.109 2.472 l .549 -1.153 c -.495 -.275 -.495 -1.1 .109 -2.362 c 0 -.056 0 -.056 0 -.109 l 1.923 -4.395 c .988 -2.087 1.318 -3.899 1.044 -5.328 c -.22 -1.483 -1.153 -2.803 -2.691 -4.01 c 2.031 .11 3.791 -.274 5.219 -1.1 c 1.428 -.878 2.581 -2.252 3.515 -4.119 c .824 -1.703 1.263 -3.296 1.263 -4.779 v -.11 c 0 -1.207 -.329 -2.361 -.933 -3.405 c -1.264 -2.363 -4.286 -4.67 -8.899 -6.977 z m -1.375 12.248 c -.549 1.1 -1.208 1.704 -2.031 1.813 c -.66 .109 -1.594 -.109 -2.802 -.604 c -.274 -.109 -.494 -.219 -.769 -.329 l -4.559 -2.252 l 2.856 -5.768 l 2.471 1.208 l 1.814 .879 c 1.756 .824 2.8 1.648 3.239 2.362 c .387 .715 .276 1.649 -.219 2.691 z" fill="#fbb040"/><path d="m 251.114 360.201 l -1.538 -.276 l -17.964 31.861 l 10.768 1.921 l 2.087 -4.284 l 6.647 1.154 l 4.174 .77 l .495 4.723 l 10.821 1.868 l -5.987 -36.034 z m 0 23.07 l -3.405 -.605 l 3.405 -6.92 l 2.142 -4.23 l 1.318 12.359 z" fill="#fbb040"/><path d="M 284.842 398.651 L 295.718 397.554 L 294.565 386.621 L 296.982 383.49 L 306.814 396.344 L 319.942 394.972 L 303.848 374.757 L 314.779 360.858 L 301.981 362.177 L 293.302 374.591 L 292.093 363.221 L 281.215 364.374 Z" fill="#fbb040"/><path d="m 352.682 351.081 c -2.086 -.824 -4.285 -1.153 -6.591 -1.044 c -2.362 .165 -4.78 .769 -7.362 1.922 c -5.052 2.253 -8.405 5.549 -9.997 9.778 c -.66 1.703 -.99 3.461 -.99 5.329 v .439 c .055 2.636 .715 5.439 1.978 8.349 h .054 c 2.254 5.109 5.495 8.515 9.779 10.162 c 2.088 .825 4.284 1.209 6.537 1.045 c 2.362 -.109 4.833 -.77 7.415 -1.923 c 5.054 -2.196 8.406 -5.493 9.999 -9.777 c .603 -1.704 .934 -3.461 .989 -5.33 v -.328 c -.055 -2.691 -.715 -5.493 -2.033 -8.405 c -2.253 -5.163 -5.548 -8.569 -9.778 -10.217 z m .989 21.973 c -.331 1.867 -1.594 3.241 -3.682 4.175 c -1.427 .604 -2.69 .824 -3.898 .604 c -.605 -.056 -1.154 -.275 -1.704 -.604 c -1.649 -.989 -3.131 -2.912 -4.45 -5.933 c -1.317 -2.966 -1.811 -5.383 -1.427 -7.251 c .384 -1.813 1.646 -3.241 3.735 -4.175 c 1.428 -.604 2.692 -.822 3.846 -.604 c .604 .11 1.208 .33 1.757 .659 c 1.594 .934 3.076 2.911 4.395 5.934 c 1.317 2.964 1.811 5.382 1.428 7.195 z" fill="#fbb040"/><path d="M 369.985 333.998 L 362.075 341.357 L 391.684 360.914 L 399.867 353.333 L 388.497 335.592 L 405.471 348.06 L 413.545 340.535 L 396.021 309.718 L 388.277 316.914 L 400.856 335.646 L 382.62 322.243 L 375.917 328.449 L 387.894 347.73 Z" fill="#fbb040"/><path d="M 342.849 349.708 L 343.398 343.227 L 338.729 345.479 L 338.839 350.971 Z" fill="#fbb040"/><path d="m 247.763 230.012 v -38.945 h -5.712 c -.44 1.977 -1.593 3.461 -3.406 4.504 c -1.812 .989 -4.12 1.484 -6.866 1.484 v 6.097 h 7.855 v 26.86 z" fill="#fbb040"/><path d="m 275.503 192.33 c -1.702 -1.319 -4.009 -2.033 -6.976 -2.142 c -.22 0 -.439 0 -.658 0 c -2.912 .164 -5.163 .822 -6.757 1.976 c -1.538 1.211 -2.637 2.858 -3.241 5.056 c -.549 2.142 -.88 4.943 -.88 8.349 c 0 2.637 .385 4.834 1.209 6.537 c .771 1.703 1.813 2.966 3.021 3.681 c 1.265 .768 2.638 1.153 4.12 1.153 c 1.1 0 2.143 -.22 3.186 -.549 c .056 -.057 .165 -.11 .275 -.11 c 1.044 -.386 1.922 -.934 2.583 -1.482 v 5.878 c -.166 1.208 -.44 2.087 -.77 2.745 c -.274 .66 -.989 .989 -2.088 1.044 h -.055 c -1.813 0 -2.745 -1.264 -2.745 -3.789 h -8.185 c .054 2.636 .549 4.668 1.483 6.151 c .934 1.481 2.196 2.582 3.735 3.131 c 1.538 .604 3.406 .934 5.603 1.044 c .055 0 .109 0 .164 0 c 3.186 -.056 5.603 -.77 7.307 -2.253 c 1.703 -1.538 2.856 -3.296 3.351 -5.328 c .494 -2.086 .769 -4.284 .769 -6.646 v -13.623 c 0 -1.978 -.329 -3.899 -.88 -5.823 c -.603 -1.924 -1.812 -3.572 -3.571 -5 z m -4.064 13.183 c 0 .989 -.11 1.814 -.22 2.473 c -.165 .658 -.439 1.209 -.878 1.593 c -.384 .439 -.988 .659 -1.758 .659 c -.056 0 -.056 0 -.056 0 c -.878 -.055 -1.592 -.329 -2.032 -.879 c -.385 -.549 -.659 -1.264 -.768 -2.251 c -.111 -.936 -.166 -2.309 -.166 -4.176 c 0 -4.064 .935 -6.098 2.911 -6.098 h .055 c .934 0 1.704 .439 2.198 1.265 c .494 .822 .769 2.306 .769 4.394 c 0 .988 -.055 1.978 -.055 3.02 z" fill="#fbb040"/><path d="m 283.468 197.22 c -.659 2.087 -.988 4.559 -.988 7.359 h 8.128 c 0 -1.867 .057 -3.295 .166 -4.284 c .11 -.988 .44 -1.814 .934 -2.473 c .44 -.602 1.263 -.933 2.308 -.988 c .879 0 1.594 .386 2.142 1.153 c .548 .825 .769 1.868 .769 3.186 c 0 1.923 -.604 3.736 -1.757 5.439 c -.496 .659 -1.648 1.977 -3.516 3.955 c -1.814 1.978 -3.407 3.79 -4.67 5.492 c -1.262 1.703 -2.307 3.736 -3.241 6.152 c -.878 2.363 -1.317 4.943 -1.317 7.8 h 23.07 v -7.141 h -13.293 c 0 -.22 .054 -.494 .219 -.768 c .111 -.219 .275 -.55 .549 -.988 c .276 -.385 .439 -.714 .55 -.879 c .549 -.879 1.373 -1.923 2.472 -3.021 c 1.153 -1.099 2.473 -2.472 4.009 -4.009 c 1.538 -1.595 2.747 -3.132 3.681 -4.67 c .879 -1.483 1.428 -3.131 1.593 -4.835 c .055 -.604 .11 -1.428 .11 -2.636 c 0 -2.032 -.33 -3.9 -1.044 -5.494 c -.712 -1.648 -1.921 -2.966 -3.626 -3.9 c -1.701 -.988 -3.953 -1.482 -6.7 -1.482 c -3.022 0 -5.383 .658 -7.086 1.922 c -1.647 1.265 -2.857 2.966 -3.462 5.11 z" fill="#fbb040"/><path d="m 315.713 195.57 c -1.812 .989 -4.121 1.484 -6.812 1.484 v 6.097 h 7.8 v 26.86 h 8.185 v -38.945 h -5.767 c -.439 1.978 -1.538 3.461 -3.406 4.504 z" fill="#fbb040"/></g></g></svg>