<?xml version="1.0" encoding="iso-8859-1"?>
<!-- Generator: Adobe Illustrator 24.0.1, SVG Export Plug-In . SVG Version: 6.00 Build 0)  -->
<svg version="1.1" id="Layer_1" xmlns="http://www.w3.org/2000/svg" xmlns:xlink="http://www.w3.org/1999/xlink" x="0px" y="0px"
	 viewBox="0 0 612 792" style="enable-background:new 0 0 612 792;" xml:space="preserve">
<path style="fill:#00234F;" d="M75.528,112.696c68.832,40.392,153,53.28,231.624,53.28c78.264,0,162.144-12.672,230.472-53.352
	c27.072,118.512,20.304,251.424-26.136,364.392c-37.656,91.656-106.632,173.448-204.912,202.536
	c-98.28-29.088-167.256-110.88-204.912-202.536C55.224,364.048,48.456,231.136,75.528,112.696z"/>
<path style="fill:#FFFFFF;" d="M81.864,127.168c-22.68,105.336-16.488,237.168,28.44,346.248
	c37.08,90.36,100.728,165.168,196.272,196.344c95.544-31.176,159.192-105.984,196.272-196.344
	c44.928-109.08,51.12-240.912,28.512-346.248c-57.528,32.112-140.832,48.168-224.208,48.168S140.04,159.208,81.864,127.168z"/>
<path style="fill:#00234F;" d="M306.576,624.328c-44.496-22.392-84.456-52.272-117.864-89.28
	c-31.824-35.208-57.816-76.824-75.888-124.416c-11.736-30.888-19.8-64.08-23.04-100.08c-3.672-40.464-0.792-80.352,6.12-120.312
	c31.32,15.12,63.576,25.56,97.704,32.256c37.584,7.416,76.248,10.368,113.544,10.368c34.848,0,70.776-2.521,105.84-8.928
	c36.432-6.624,70.92-17.352,104.256-33.624c6.912,39.96,9.792,79.848,6.12,120.24c-3.24,36-11.304,69.192-23.04,100.08
	c-18.072,47.592-44.064,89.208-75.888,124.416C391.032,572.056,351.072,601.936,306.576,624.328z"/>
<path style="fill:#2E3192;" d="M306.576,618.28c23.184-11.808,45.288-25.848,65.952-42.12V235.096
	c-21.96,2.232-43.848,3.168-65.376,3.168c-21.816,0-44.136-1.008-66.528-3.312V576.16
	C261.288,592.432,283.392,606.472,306.576,618.28z"/>
<path style="fill:#FFFFFF;" d="M240.624,234.952c-16.056-1.656-32.184-3.96-48.096-7.128c-31.968-6.264-63.216-15.84-92.448-29.592
	c-6.768,40.248-8.064,77.328-4.896,111.816c3.24,35.496,11.16,68.184,22.752,98.64c17.784,46.872,43.416,87.984,74.808,122.688
	c14.76,16.416,30.816,31.32,47.88,44.784V234.952z"/>
<path style="fill:#ED1C24;" d="M372.528,576.16c17.064-13.464,33.12-28.368,47.88-44.784
	c31.392-34.704,57.024-75.816,74.808-122.688c11.592-30.456,19.512-63.144,22.752-98.568c3.168-34.488,1.872-71.568-4.824-111.744
	c-31.176,14.76-64.872,24.696-99.216,30.888c-13.752,2.52-27.576,4.464-41.4,5.832V576.16z"/>
<path style="fill:#FFFFFF;" d="M389.592,364.264l31.968-3.24c0.72,8.352,2.16,14.76,4.248,19.152
	c3.456,7.128,8.424,10.584,14.832,10.584c4.824,0,8.496-1.8,11.088-5.4c2.592-3.672,3.888-7.848,3.888-12.6
	c0-4.536-1.224-8.64-3.672-12.24c-2.52-3.6-8.208-6.984-17.208-10.152c-14.76-5.328-25.272-12.384-31.536-21.312
	c-6.336-8.856-9.504-20.088-9.504-33.84c0-9,1.584-17.496,4.824-25.56c3.24-7.992,8.136-14.256,14.616-18.864
	c6.552-4.608,15.48-6.84,26.784-6.84c13.896,0,24.48,4.104,31.824,12.456c7.272,8.352,11.592,21.6,12.96,39.744l-31.68,3.024
	c-0.792-7.92-2.592-13.68-5.328-17.208c-2.664-3.6-6.336-5.4-11.088-5.4c-3.96,0-6.912,1.296-8.856,4.032
	c-1.944,2.664-2.952,5.904-2.952,9.72c0,2.808,0.792,5.328,2.448,7.56c1.584,2.304,5.328,4.392,11.232,6.408
	c14.688,5.112,25.2,10.296,31.608,15.552c6.336,5.184,10.944,11.664,13.824,19.44c2.952,7.704,4.392,16.344,4.392,25.92
	c0,11.232-1.944,21.6-5.832,31.032c-3.816,9.504-9.216,16.704-16.128,21.6c-6.912,4.896-15.696,7.344-26.208,7.344
	c-18.504,0-31.32-5.76-38.448-17.208C394.56,396.448,390.528,381.976,389.592,364.264z"/>
<polygon style="fill:#00234F;" points="144.792,244.168 183.816,244.168 183.816,376.36 236.304,376.36 236.304,424.888 
	144.792,424.888 "/>
<polygon style="fill:#FFFFFF;" points="147.528,246.904 181.152,246.904 181.152,379.096 233.568,379.096 233.568,422.152 
	147.528,422.152 "/>
<polygon style="fill:#FFFFFF;" points="260.856,331.216 355.896,331.216 355.896,366.28 294.984,468.808 358.128,468.808 
	358.128,506.536 255.024,506.536 255.024,470.104 315.216,368.656 260.856,368.656 "/>
<path style="fill:#00234F;" d="M270.072,644.488h-5.904v-22.104c-2.232,2.016-4.752,3.456-7.704,4.464v-5.328
	c1.512-0.504,3.24-1.512,5.04-2.88c1.8-1.44,3.096-3.024,3.744-4.896h4.824V644.488z"/>
<path style="fill:#00234F;" d="M282.168,651.04l5.76-0.648c0.144,1.224,0.504,2.016,1.08,2.592c0.648,0.576,1.368,0.864,2.376,0.864
	c1.224,0,2.304-0.576,3.168-1.656c0.864-1.152,1.368-3.456,1.656-6.984c-1.512,1.728-3.384,2.592-5.616,2.592
	c-2.448,0-4.608-0.936-6.336-2.808c-1.8-1.872-2.664-4.248-2.664-7.272c0-3.096,0.936-5.616,2.808-7.488
	c1.872-1.944,4.248-2.88,7.128-2.88c3.168,0,5.76,1.224,7.776,3.6c2.016,2.448,3.024,6.408,3.024,11.88
	c0,5.616-1.08,9.648-3.168,12.168c-2.088,2.448-4.824,3.672-8.208,3.672c-2.448,0-4.392-0.648-5.904-1.872
	C283.536,655.504,282.6,653.56,282.168,651.04L282.168,651.04z M295.632,638.224c0-1.944-0.432-3.384-1.296-4.392
	c-0.864-1.08-1.944-1.584-3.096-1.584c-1.08,0-2.016,0.432-2.736,1.296c-0.72,0.792-1.08,2.232-1.08,4.176
	c0,2.016,0.36,3.456,1.152,4.392c0.792,0.936,1.8,1.368,3.024,1.368c1.152,0,2.088-0.432,2.88-1.368
	C295.272,641.248,295.632,639.952,295.632,638.224z"/>
<path style="fill:#00234F;" d="M329.328,634.984l-5.76,0.648c-0.144-1.152-0.504-2.016-1.08-2.592
	c-0.648-0.576-1.368-0.864-2.304-0.864c-1.296,0-2.376,0.576-3.24,1.656c-0.864,1.152-1.368,3.456-1.656,6.984
	c1.512-1.728,3.384-2.592,5.544-2.592c2.52,0,4.608,0.936,6.408,2.808c1.8,1.872,2.664,4.248,2.664,7.272
	c0,3.096-0.936,5.616-2.808,7.488c-1.872,1.944-4.248,2.88-7.2,2.88c-3.096,0-5.688-1.224-7.704-3.6
	c-2.016-2.448-3.024-6.336-3.024-11.808c0-5.688,1.008-9.72,3.096-12.168c2.16-2.52,4.896-3.744,8.28-3.744
	c2.304,0,4.32,0.648,5.832,1.944C327.96,630.592,328.896,632.536,329.328,634.984L329.328,634.984z M315.792,647.8
	c0,1.944,0.504,3.384,1.368,4.464c0.864,1.008,1.944,1.512,3.024,1.512c1.152,0,2.016-0.432,2.808-1.224
	c0.72-0.864,1.08-2.304,1.08-4.248c0-1.944-0.36-3.456-1.152-4.32c-0.792-0.936-1.8-1.44-3.024-1.44
	c-1.152,0-2.088,0.432-2.88,1.368C316.224,644.776,315.792,646.072,315.792,647.8z"/>
<path style="fill:#00234F;" d="M336.312,619.72v-5.472h20.376v4.32c-1.656,1.584-3.384,3.96-5.112,6.984
	c-1.728,3.096-3.096,6.336-3.96,9.72c-0.936,3.456-1.368,6.552-1.368,9.216h-5.76c0.144-4.176,1.008-8.496,2.664-12.96
	c1.656-4.392,3.96-8.352,6.768-11.808H336.312z"/>
<path style="fill:#00234F;" d="M194.328,196.36l0.576-3.312l11.88,2.304l-2.016,10.368c-2.088,1.08-4.176,1.8-6.264,2.16
	c-2.088,0.36-4.104,0.36-6.192-0.072c-2.736-0.504-5.112-1.584-7.128-3.168c-2.016-1.656-3.384-3.672-4.104-6.12
	c-0.72-2.448-0.792-5.04-0.288-7.776c0.576-2.736,1.656-5.184,3.24-7.344c1.584-2.088,3.528-3.528,5.904-4.248
	c2.376-0.72,4.968-0.864,7.704-0.288c2.088,0.36,3.816,1.079,5.328,2.016c1.512,1.008,2.592,2.16,3.312,3.528
	c0.72,1.296,1.08,2.952,1.224,4.968l-3.528,0.288c-0.144-1.512-0.432-2.736-0.864-3.672c-0.504-0.936-1.224-1.8-2.304-2.52
	c-1.08-0.72-2.304-1.152-3.744-1.44c-1.656-0.36-3.168-0.36-4.536-0.072c-1.296,0.216-2.448,0.72-3.384,1.44
	c-0.936,0.648-1.656,1.512-2.304,2.448c-1.008,1.584-1.8,3.384-2.16,5.4c-0.504,2.52-0.432,4.68,0.072,6.48
	c0.504,1.872,1.512,3.384,3.024,4.464c1.512,1.152,3.168,1.944,4.968,2.304c1.656,0.288,3.24,0.288,4.896-0.072
	c1.656-0.288,2.952-0.72,3.888-1.296l1.008-5.184L194.328,196.36z"/>
<path style="fill:#00234F;" d="M209.304,210.976l4.032-28.224l12.456,1.728c2.52,0.36,4.392,0.936,5.688,1.584
	c1.224,0.72,2.16,1.728,2.736,3.168c0.576,1.368,0.792,2.88,0.576,4.392c-0.288,2.016-1.152,3.6-2.664,4.824
	c-1.512,1.152-3.6,1.728-6.408,1.728c0.936,0.648,1.656,1.224,2.088,1.728c0.936,1.152,1.8,2.592,2.592,4.176l3.816,8.424
	l-4.68-0.648l-2.952-6.408c-0.864-1.872-1.512-3.313-2.16-4.32c-0.576-0.936-1.08-1.656-1.584-2.088
	c-0.504-0.504-1.08-0.792-1.584-1.008c-0.432-0.144-1.152-0.288-2.088-0.432l-4.32-0.648l-1.8,12.528L209.304,210.976
	L209.304,210.976z M215.28,195.712l8.064,1.152c1.656,0.216,3.024,0.288,4.032,0.072c1.008-0.288,1.872-0.72,2.448-1.44
	c0.648-0.72,1.008-1.512,1.08-2.376c0.216-1.368-0.072-2.52-0.936-3.528c-0.864-1.008-2.304-1.656-4.464-1.944l-8.928-1.224
	L215.28,195.712z"/>
<path style="fill:#00234F;" d="M264.096,217.456l1.008-28.512l10.656,0.36c2.16,0.072,3.888,0.432,5.184,1.08
	c1.296,0.576,2.304,1.512,3.024,2.736c0.72,1.224,1.008,2.52,1.008,3.816c-0.072,1.224-0.432,2.376-1.152,3.384
	c-0.648,1.08-1.728,1.872-3.096,2.52c1.728,0.576,3.024,1.441,3.888,2.736c0.936,1.224,1.296,2.664,1.296,4.32
	c-0.072,1.368-0.432,2.592-1.008,3.744c-0.576,1.08-1.296,1.944-2.16,2.52c-0.864,0.648-1.944,1.08-3.168,1.296
	c-1.296,0.288-2.808,0.432-4.608,0.36L264.096,217.456L264.096,217.456z M268.416,201.04l6.192,0.216c1.656,0.072,2.88,0,3.6-0.216
	c0.936-0.216,1.728-0.72,2.232-1.368c0.504-0.648,0.72-1.44,0.792-2.448c0-0.936-0.144-1.8-0.576-2.52
	c-0.432-0.72-1.08-1.224-1.872-1.512c-0.864-0.288-2.304-0.504-4.392-0.576l-5.688-0.216L268.416,201.04L268.416,201.04z
	 M267.984,214.216l7.056,0.216c1.224,0.072,2.088,0.072,2.592,0c0.864-0.144,1.584-0.36,2.232-0.72
	c0.576-0.36,1.08-0.864,1.44-1.512c0.432-0.72,0.648-1.512,0.648-2.448c0.072-1.008-0.144-1.944-0.72-2.736
	c-0.504-0.864-1.224-1.44-2.16-1.8c-0.936-0.288-2.376-0.504-4.176-0.576l-6.552-0.216L267.984,214.216z"/>
<path style="fill:#00234F;" d="M289.656,204.64c0-4.752,1.296-8.424,3.816-11.088c2.52-2.736,5.832-4.032,9.864-4.032
	c2.592,0,4.896,0.648,7.056,1.872c2.088,1.224,3.672,3.024,4.824,5.256c1.08,2.232,1.656,4.824,1.656,7.632
	c0,2.88-0.576,5.472-1.8,7.776c-1.152,2.304-2.808,4.032-4.896,5.184c-2.16,1.152-4.392,1.8-6.912,1.8
	c-2.664,0-5.04-0.648-7.2-2.016c-2.088-1.224-3.672-3.024-4.752-5.256C290.232,209.536,289.656,207.16,289.656,204.64
	L289.656,204.64z M293.544,204.712c0,3.384,0.936,6.12,2.808,8.064c1.8,2.016,4.104,3.024,6.912,3.024
	c2.88,0,5.112-1.008,6.984-3.024c1.8-2.016,2.736-4.824,2.736-8.496c0-2.304-0.432-4.32-1.224-6.048
	c-0.792-1.728-1.872-3.096-3.384-4.032c-1.512-1.008-3.168-1.44-5.04-1.44c-2.664,0-4.968,0.937-6.912,2.736
	C294.48,197.368,293.544,200.392,293.544,204.712z"/>
<path style="fill:#00234F;" d="M320.112,209.32l3.528-0.432c0.216,1.368,0.648,2.52,1.296,3.456
	c0.648,0.864,1.656,1.585,2.952,2.088c1.296,0.504,2.808,0.792,4.392,0.72c1.44-0.072,2.736-0.288,3.816-0.792
	c1.08-0.432,1.872-1.08,2.376-1.8c0.504-0.792,0.792-1.656,0.72-2.52c0-0.864-0.288-1.656-0.864-2.304
	c-0.504-0.648-1.368-1.152-2.592-1.584c-0.792-0.288-2.52-0.648-5.112-1.224c-2.664-0.504-4.536-1.08-5.616-1.585
	c-1.368-0.647-2.376-1.512-3.096-2.52c-0.72-1.08-1.08-2.232-1.152-3.528c0-1.44,0.36-2.808,1.08-4.104
	c0.792-1.224,1.944-2.232,3.528-2.952c1.512-0.72,3.24-1.08,5.184-1.152c2.088-0.072,3.96,0.216,5.616,0.864
	c1.656,0.576,2.88,1.512,3.816,2.808c0.936,1.296,1.44,2.808,1.584,4.464l-3.6,0.432c-0.288-1.8-1.008-3.168-2.16-4.032
	c-1.152-0.864-2.808-1.296-4.968-1.224c-2.304,0.072-3.96,0.576-4.968,1.44c-1.008,0.864-1.512,1.872-1.44,3.096
	c0,1.008,0.432,1.8,1.152,2.448c0.792,0.648,2.664,1.296,5.76,1.872c3.096,0.576,5.256,1.08,6.408,1.584
	c1.656,0.72,2.952,1.656,3.744,2.736c0.864,1.152,1.296,2.52,1.368,4.032c0,1.512-0.36,2.952-1.152,4.32
	c-0.864,1.368-2.088,2.448-3.672,3.312c-1.584,0.792-3.384,1.224-5.472,1.296c-2.52,0.072-4.752-0.216-6.48-0.936
	c-1.8-0.648-3.168-1.728-4.248-3.24C320.832,212.92,320.256,211.192,320.112,209.32z"/>
<path style="fill:#00234F;" d="M346.032,217.24l-0.288-3.456l13.32-19.224c0.936-1.368,1.872-2.592,2.736-3.6l-15.912,1.08
	l-0.216-3.312l20.376-1.44l0.216,3.384L351.72,211.48l-1.656,2.16l18.216-1.296l0.216,3.384L346.032,217.24z"/>
<polygon style="fill:#00234F;" points="378.936,183.688 380.808,178 385.344,177.424 381.816,183.328 "/>
<path style="fill:#00234F;" d="M373.608,200.896c0.432,3.384,1.656,5.976,3.744,7.704c2.088,1.728,4.536,2.448,7.272,2.088
	c2.808-0.288,5.04-1.584,6.624-3.816c1.584-2.16,2.088-5.112,1.656-8.784c-0.288-2.304-0.936-4.248-1.872-5.832
	c-1.008-1.656-2.304-2.808-3.96-3.6c-1.584-0.792-3.312-1.008-5.184-0.792c-2.664,0.288-4.824,1.512-6.48,3.6
	C373.68,193.48,373.104,196.648,373.608,200.896L373.608,200.896z M369.792,201.328c-0.576-4.68,0.216-8.568,2.376-11.52
	c2.232-2.952,5.328-4.68,9.288-5.184c2.592-0.288,5.04,0,7.272,1.008c2.304,1.008,4.104,2.52,5.472,4.608
	c1.368,2.16,2.232,4.608,2.592,7.416c0.36,2.88,0.072,5.544-0.792,7.92c-0.864,2.376-2.304,4.32-4.32,5.76
	c-1.944,1.44-4.176,2.304-6.624,2.592c-2.664,0.288-5.112,0-7.416-1.08c-2.232-1.008-4.032-2.592-5.4-4.68
	C370.872,206.08,370.08,203.776,369.792,201.328z"/>
<path style="fill:#00234F;" d="M408.456,210.184l-12.888-26.496l3.816-0.792l7.776,17.568c0.864,1.8,1.584,3.672,2.304,5.472
	c0.144-3.096,0.216-4.896,0.288-5.4l1.656-19.944l4.464-0.864l6.768,13.392c1.656,3.312,3.024,6.48,4.104,9.504
	c0-1.872,0.072-3.96,0.216-6.408l0.864-18.792l3.744-0.72l-2.232,29.448l-3.6,0.72l-10.008-20.232
	c-0.864-1.656-1.368-2.664-1.512-3.096c-0.072,1.368-0.144,2.52-0.216,3.456l-1.8,22.464L408.456,210.184z"/>
<path style="fill:#00234F;" d="M238.104,214.792l2.52-28.368l20.52,1.8l-0.288,3.312l-16.776-1.44l-0.72,8.712l15.696,1.368
	l-0.288,3.313L243,202.12l-0.792,9.648l17.424,1.512l-0.288,3.384l-5.544-0.504c-0.504,0.936-0.72,1.872-0.792,2.664
	c-0.072,0.864,0.144,1.656,0.576,2.232c0.504,0.576,1.152,0.936,1.944,1.008c1.008,0.072,2.088-0.144,3.312-0.648l-0.216,2.304
	c-0.648,0.288-1.44,0.504-2.232,0.648c-0.792,0.144-1.512,0.216-2.088,0.144c-1.296-0.072-2.232-0.576-2.952-1.368
	c-0.72-0.864-1.008-1.944-0.936-3.24c0.144-1.008,0.432-2.304,1.008-3.96L238.104,214.792z"/>
</svg>
