<?xml version="1.0" encoding="iso-8859-1"?>
<!-- Generator: Adobe Illustrator 24.0.1, SVG Export Plug-In . SVG Version: 6.00 Build 0)  -->
<svg version="1.1" id="Layer_1" xmlns="http://www.w3.org/2000/svg" xmlns:xlink="http://www.w3.org/1999/xlink" x="0px" y="0px"
	 viewBox="0 0 612 792" style="enable-background:new 0 0 612 792;" xml:space="preserve">
<rect x="193.975" y="113.39" style="fill:#0090D6;" width="227.051" height="566"/>
<path d="M459.923,344.065c-15.713-23.275-31.075-45.918-30.989-65.463c0-3.057,0.362-6.04,1.142-8.971
	c2.077-8.033,9.299-18.955,17.814-29.523c8.509-10.596,18.28-20.95,25.445-28.378l1.434-1.486l-24.831-21.738l-1.026,0.288
	c-26.248,7.373-43.683,11.824-58.843,11.813c-11.728-0.008-22.18-2.601-34.729-8.674c-12.536-6.072-27.103-15.659-46.702-29.518
	l-1.135-0.803l-0.001,0l-0.001,0l-1.135,0.803c-19.599,13.859-34.166,23.446-46.702,29.518c-12.549,6.074-23.002,8.666-34.729,8.674
	c-15.16,0.011-32.595-4.44-58.843-11.813l-1.026-0.288l-24.831,21.738l1.434,1.486c7.165,7.428,16.936,17.782,25.445,28.378
	c8.515,10.569,15.736,21.49,17.813,29.523c0.78,2.931,1.142,5.914,1.142,8.971c0.086,19.545-15.276,42.188-30.989,65.463
	c-15.636,23.322-31.597,47.341-31.66,71.121c-0.011,9.848,2.828,19.621,9.559,28.945c8.008,11.101,20.759,17.571,35.694,21.82
	c22.422,6.36,50.058,7.821,75.494,11.626c25.46,3.776,48.529,9.966,61.866,24.968l1.467,1.643l0.001-0.001l0.001,0.001l1.468-1.643
	c13.337-15.002,36.406-21.191,61.866-24.968c25.436-3.805,53.072-5.266,75.494-11.626c14.935-4.249,27.685-10.72,35.693-21.82
	c6.732-9.324,9.57-19.098,9.56-28.945C491.52,391.407,475.559,367.387,459.923,344.065z"/>
<path style="fill:#ED1C24;" d="M170.181,237.641c8.639,10.791,16.108,21.808,18.549,30.985l0,0c0.871,3.273,1.272,6.608,1.272,9.976
	l0,0c-0.086,21.56-16.047,44.349-31.66,67.658l0,0c-15.69,23.263-31.054,46.982-30.989,68.926l0,0
	c0.008,9.104,2.552,17.934,8.817,26.646l0,0c7.219,10.036,19.047,16.207,33.575,20.334l0,0c14.511,4.127,31.603,6.181,48.981,8.212
	l0,0c33.879,4.025,68.985,7.716,88.771,27.978l0,0c14.691-15.095,37.935-20.939,62.754-24.668l0,0
	c25.681-3.824,53.231-5.323,75.002-11.522l0,0c14.529-4.127,26.355-10.298,33.575-20.334l0,0c6.263-8.71,8.805-17.542,8.813-26.646
	l0,0c0.065-21.944-15.299-45.664-30.988-68.926l0,0c-15.612-23.311-31.574-46.099-31.66-67.661l0,0c0-3.366,0.403-6.698,1.274-9.969
	l0,0l0,0c2.442-9.181,9.912-20.198,18.551-30.989l0,0c8.083-10.065,17.215-19.832,24.249-27.157l0,0l-20.121-17.615
	c-25.712,7.198-43.14,11.662-58.88,11.672l0,0c-12.33,0.008-23.538-2.802-36.446-9.067l0,0
	c-12.672-6.144-27.038-15.581-46.12-29.045l0,0c-19.081,13.464-33.45,22.901-46.119,29.045l0,0
	c-12.909,6.265-24.117,9.076-36.447,9.067l0,0c-15.743-0.01-33.169-4.475-58.879-11.673l0,0l-20.121,17.616
	C152.966,217.809,162.098,227.577,170.181,237.641L170.181,237.641z"/>
<path d="M430.9,346.641c-0.042-22.021-29.979-43.323-91.468-43.329c-7.311,0-15.074,0.304-23.283,0.942
	c-0.247-0.026-0.494-0.059-0.739-0.065l-73.649-1.874v-4.133h-5.537v1.588c-1.141-0.071-1.955,0.186-2.491,0.747
	c-1.674-0.233-2.792,0.14-3.281,1.121c-1.302-0.187-2.186,0.211-2.7,1.215c-1.162,0.234-1.953,0.747-2.325,1.589h-3.909
	c-0.676-0.818-1.7-1.332-2.817-1.332c-2.024,0-3.677,1.657-3.677,3.689c0,2.03,1.653,3.665,3.677,3.665
	c0.908,0,1.768-0.327,2.398-0.887h2.838c0.442,0.864,1.069,0.864,1.722,0.748c-0.116,0.489,0.047,0.793,0.535,0.91
	c-1.373,0.21-2.465,1.144-3.235,2.779c-2.651,0.795-4.443,2.569-5.303,5.371c-3.166,1.938-5.143,4.809-6.284,8.36
	c-0.627,4.692,2.864,5.487,8.214,4.529c1.048,2.242,2.909,3.037,5.329,2.872c0.931,1.285,2.746,1.963,5.469,2.031l3.738,2.473
	l0.218,0.301c0.385,0.531,0.774,1.064,1.162,1.598c4.852,6.685,9.941,13.66,15.928,19.914h-4.061
	c-1.281-2.406-2.839-4.647-5.304-5.651c-1.513-0.352-2.607-3.34-4.656-2.639c-1.325,0.397-1.813-2.359-6.722-2.264
	c-2.747-0.095-2.885-1.706-6.213-1.355c-2.257-1.563-4.49-1.353-6.748-0.91c-2.14-0.421-4.003-0.257-5.538,0.537
	c-2.699,0.164-4.282,1.005-5.399,2.172c-3.466,0.117-5.002,1.05-5.676,2.357c-1.559,0.024-2.396,0.749-3.142,1.564
	c-2.884,1.051-3.699,2.079-3.606,3.106c-1.722,0.186-2.398,1.448-2.908,2.872c-2.117,0.28-2.328,1.471-2.257,2.778
	c-0.35,0.049-0.698,0.094-1.046,0.165c-1.397-1.635-2.396-0.865-2.979,2.334c-0.859-0.84-1.813-1.168-2.861-0.98
	c-1.839,4.226,1.302,15.411,7.491,16.18c2.956,3.573,5.887,7.147,8.843,10.719l-1.28,0.747c0.744,1.915,1.699,3.339,2.837,4.224
	l1.048-0.58c0.466,4.854,8.143,5.977,10.703,1.958c-1.395-1.164-3.048-2.286-4.026-3.85c-0.86-1.379,0.466-2.312,1.491-1.518
	c1.21,1.073,2.046,3.012,2.837,4.669c2.837-1.657,3.653-3.199,3.071-4.669l-1.559-3.854c2.071,0.117,4.143,2.428,6.213,5.745
	l5.677-4.601c0.861,1.449,1.234,4.086,1.28,7.542c-2.467,1.657-3.259,4.017-2.328,7.098c-4.955-0.186-8.212,0.631-12.657,0.375
	c-1.767-0.094-3.42-0.375-4.793-1.053c-1.512,2.103-3.327,3.621-5.444,4.508l0.14,13.731c-3.141,4.482-1.28,12.306,4.491,11.859
	c0.721,1.892,1.977,1.542,2.628,3.456c-0.79,4.903,3.281,8.103,10.704,10.183V437.63c-1.933-1.215-3.933-1.845-6.073-1.657
	c-1.49-3.9-2.28-7.238-1.559-9.341c1.698-1.586,3.047-3.595,3.956-6.186c2.675-0.351,4.559-1.239,5.84-2.569
	c4.513,1.518,9.935,1.869,15.868,1.589c-6.654,3.898-8.585,7.681-7.26,11.395c1.072-1.494,3.141-2.593,7.399-2.873l0.187,1.659
	h5.585v-2.126h7.631v-6.469c1.56-0.232,3.095-0.467,4.652-0.675c0.396,0.675,1.118,1.118,1.933,1.118
	c1.256,0,2.256-1.002,2.256-2.264c0-1.238-1-2.241-2.256-2.241c-0.536,0-1.025,0.186-1.421,0.513h-1.931
	c1.208-0.468,2.024-1.121,2.468-1.961c3.094,2.335,6.582,3.759,9.073,3.154l1.441,0.466c7.216,7.401,16.125,8.965,23.967,3.243
	c-5.375-1.891-8.889-4.342-10.866-7.236c5.376,1.025,9.866,1.306,12.425-0.094c0.651,0.232,1.303,0.256,1.954,0.094
	c1.094,4.132,5.049,7.798,10.935,11.16c-2.534,6.842-6.442,9.807-10.562,12.213c-2.63,0.701-4.584,2.193-5.607,4.902
	c-3.839,5.093-8.143,2.546-9.283,8.011c-3.516,0.023-4.539,3.571-5.609,7.074c1.465,1.868,3.653,2.242,6.117,1.891
	c-0.001,0.003-0.002,0.006-0.003,0.009c-0.185,0.254-0.391,0.507-0.575,0.738c0.802,0.623,1.567,1.147,2.313,1.567
	c0.495,0.307,1.006,0.548,1.534,0.725c1.26,0.474,2.482,0.608,3.739,0.373c3.37-0.633,5.294-2.702,7.605-4.626
	c-1.069-5.347,3.397-8.196,8.237-4.528c0.379-0.594,0.762-1.192,1.148-1.795h68.799l-0.257-0.386
	c-17.393-26.512-15.862-45.874-17.813-60.598C405.198,387.555,430.869,367.021,430.9,346.641z M209.792,385.373l-0.489-1.286
	c1.953-0.957,3.023-2.591,2.721-5.183l-0.186-4.11c2.179,1.162,4.222,3.377,5.631,6.538L209.792,385.373z M208.349,424.251
	c-0.628-2.055-0.815-4.648-0.815-7.495c0.093-2.524,3.466-4.252,8.329-5.651C213.583,412.154,210.279,417.338,208.349,424.251z
	 M254.526,323.702c-0.749-0.592-1.499-1.146-2.248-1.633c-0.791-0.512-1.584-0.979-2.396-1.4c0.813-2.896,0.906-5.767-0.071-8.662
	l4.275-0.071l16.525-0.017L254.526,323.702z M290.46,373.597c0.17-0.325,0.338-0.65,0.498-0.975l0.34,0.796L290.46,373.597z
	 M300.421,374.515c-0.118-0.055-0.271-0.083-0.468-0.074v-1.818c-2.92-0.596-5.972-0.316-8.896-0.194
	c2.392-4.897,3.716-9.738,4.011-14.54c0.334-5.474-0.665-10.897-2.927-16.293c-3.303-7.88-7.891-15.024-12.784-21.965l-5.51-7.649
	l33.247-0.088c0.002,0.641,0.004,1.285,0.006,1.928c0.051,0.001,0.101,0.001,0.151,0.003c1.948,9.874,1.255,21.678,0.893,31.897
	c-0.711,2.382-0.768,4.886-0.076,7.469l0.217,19.79c-0.018-0.005-0.035-0.009-0.053-0.014c0.017,0.797,0.029,1.585,0.044,2.378
	C305.957,374.645,303.342,374.362,300.421,374.515z M355.774,385.419c-2.846-17.99-4.657-37.406-6.859-55.922
	c8.671,2.591,16.961,6.088,24.984,10.225c4.662,3.24,11.779,8.419,11.779,15.665C382.184,369.889,364.456,374.417,355.774,385.419z"
	/>
<path style="fill:#0066B3;" d="M270.054,376.803c-1.862,3.316-4.956,6.258-9.307,8.826c-0.117,2.242-0.257,4.482-0.374,6.725
	c0.304,17.324,5.446,29.816,20.314,32.738C273.078,408.98,268.846,392.892,270.054,376.803"/>
<path style="fill:#0066B3;" d="M243.18,392.683c1.07,4.038,2.489,6.816,3.886,8.731c-2.675,6.373-4.212,12.283-4.143,27.063
	c-1.37,0-2.768,0-4.141,0c-0.885-12.796,0.325-23.257,2.955-32.152C242.179,394.478,242.528,393.266,243.18,392.683"/>
<path style="fill:#0066B3;" d="M227.963,398.938c6.165-1.447,15.659-15.643,16.194-23.21c-2.83,2.275-5.843,4.297-8.7,6.214
	c-1.955,1.314-3.86,2.558-5.498,3.888c-3.173,2.578-6.426,5.439-9.745,8.124c-2.887-4.739-5.934-6.946-10.495-3.937
	c-3.095,2.081-6.189,4.157-9.285,6.238c-0.79-0.749-1.279-1.612-1.744-2.501c2.116-1.448,4.258-2.896,6.538-4.341
	c-2.35-5.091-4.724-10.183-7.097-15.271c-1.093,0.467-2.14,1.027-3.094,1.821c-2.584,0.094-4.026-1.144-4.352-3.643
	c5.258-2.311,10.495-3.876,15.751-4.389c2.118-0.444,3.281,0.817,3.467,3.783c-3.77,0.047-6.817,0.583-8.795,1.752l5.702,14.85
	c8.579-4.535,16.972-10.011,25.166-14.24c3.369-1.738,6.432-3.689,9.589-5.803c1.922-1.286,3.127-2.255,3.729-3.401
	c0.861,2.148-3.073,5.395-1.443,7.917c1.162,1.844,2.467,3.082,4.117,3.596c0.047,3.665,1.165,6.117,3.328,8.127
	c-0.209,0.161-0.394,0.302-0.606,0.442c0.047,2.195-0.233,4.39-0.837,6.585c-1.139,2.685-1.676,5.696-2.559,8.499
	c-2.282-3.456-3.583-8.243-3.933-13.799c-3.583,5.906-7.516,14.335-12.378,20.758C226.335,409.33,222.808,401.961,227.963,398.938"
	/>
<path style="fill:#FFFFFF;" d="M328.107,367.159c3.351,12.517-0.465,16.671-9.586,15.528c-3.445,3.807-8.121,3.924-11.961,0.842
	c-2.443-2.64-4.886-5.301-7.351-7.963c6.817-0.631,12.005,1.004,15.542,4.925c1.651,1.729,3.327,1.331,4.978,0
	c1.933-1.423,3.094-3.173,3.77-5.113C326.502,375.542,328.339,372.554,328.107,367.159"/>
<path style="fill:#FFFFFF;" d="M337.345,323.401c-0.234-1.05,0.465-1.286,0.905-0.211c1.467,5.393,0.886,10.578-2.699,15.458
	c-7.42,9.878-4.605,14.594-0.419,21.015c6.378,10.695,4.793,16.277-2.186,18.354c-1.582,0.444-1.535-0.397-0.513-1.003
	c3.886-2.008,8.33-3.455,3.212-14.221c-3.583-8.009-10.937-11.184-0.816-25.054C337.949,333.675,338.507,328.795,337.345,323.401
	 M334.947,330.966c0.303,12.96-7.818,7.94-6.026,27.065c2.49,1.587,4.234,3.734,4.328,7.19c-0.069,0.958-0.907,0.911-1.025-0.21
	c-0.161-4.086-3.676-6.422-8.096-8.383c-7.701-3.409-8.26-11.932,0.58-18.795c10.309-6.867,8.472-7.684,11.03-9.995
	c0.744-0.63,1.442-0.071,0.908,0.513C335.809,329.076,335.25,329.961,334.947,330.966z M323.615,374.585
	c2.978,0.21,7.703-9.55-3.002-14.618c-7.025-4.715-8.561-10.507-4.604-17.373c1.419-2.171,2.86-4.318,4.304-6.467
	c0.768-1.495,1.721-0.725,0.789,0.491c-1.395,2.195-2.79,4.389-4.21,6.584c-7.165,15.015,9.4,14.665,10.633,22.93
	c0.071-0.28,0.14-0.559,0.21-0.817c1.977,2.568,2.886,6.423,2.188,12.19c1.372-2.382-0.955-3.854,2.302-4.74
	c3.702-1.168-0.718-7.005-5.396-9.48c-0.77-0.304-0.536-1.309,0.396-0.911c7.631,3.759,9.307,10.975,5.816,11.394
	c-2.816-0.162-0.304,3.317-3.002,5.254c11.02,0.72,16.583-5.785,10.968-15.677c-3.666-6.456-8.116-11.167-4.056-21.659
	c2.528-7.11,6.987-14.484,0.093-20.83c-1.127,7.972-8.461,8.702-14.258,11.608c-11.353,5.692-17.232,14.145-12.712,23.349
	C316.101,366.015,325.825,369.145,323.615,374.585z"/>
<path style="fill:#FFFFFF;" d="M281.338,376.43c2.374,4.927,5.026,9.225,7.912,12.889c-2.35,0.818-4.84,1.146-7.445,0.959
	C281.641,385.654,281.504,381.029,281.338,376.43"/>
<path style="fill:#FFFFFF;" d="M322.568,389.996c0.327,2.173,0.303,4.482-0.092,6.912c-2.28-1.144-4.19-2.614-5.933-4.272
	C318.637,392.237,320.707,391.654,322.568,389.996"/>
<path style="fill:#FFFFFF;" d="M321.149,401.832c-0.558,1.333-1.139,2.665-1.699,3.995c-5.373-2.193-9.865-5.558-13.728-9.76
	c0.862-0.303,1.744-0.583,2.63-0.865C312.262,398.004,316.473,400.294,321.149,401.832"/>
<path style="fill:#FFFFFF;" d="M303.351,453.157c4.978-7.424,12.493-17.978,20.707-21.9c1.116-6.82-1.047-8.385-4.7-7.59
	c-1.511-2.989-3.094-5.675-5.351-6.375c1.582-2.43,3.023-4.81,4.117-7.006c-7.653,0.304-16.265-5.3-21.823-11.859
	c-3.257,0.607-6.515,1.212-9.796,1.796c4.933,6.165,11.936,9.41,20.614,10.251c-4.443,3.035-8.026,4.132-11.471,3.899
	c0.744,4.881,7.562,10.484,19.01,15.364c-5.188,4.949-5.933,9.527-12.147,14.314c-2.559,0.116-6.306,2.102-8.096,5.603
	c-3.047,0.144-5.073,1.31-6.119,3.503c0.907,0.163,1.814,0.819,2.744,1.986c0.351,0.631-1.116,0.372-1.977-0.655
	c-3.025-1.798-5.259,1.566-7.259,6.352c3.326,3.199,7.538,2.593,12.611-1.797C293.508,452.506,298.627,450.426,303.351,453.157
	 M317.567,423.458c-0.117-0.586,0.395-0.937,0.768-0.095c0.742,1.517,2.185,2.497,3.93,3.244c-0.767,1.472-0.51,2.968,0.212,4.438
	c-1.536-0.096-2.653,0.301-2.933,1.727c-0.115,0.631-1.068,0.469-0.745-0.582c0.582-1.354,1.443-1.962,2.536-1.799
	c-0.465-1.191-0.488-2.104-0.021-3.339C319.289,426.095,317.939,425.093,317.567,423.458z"/>
<path style="fill:#FFFFFF;" d="M313.308,429.971c-4.049,3.736-4.258,6.586-10.796,13.192c-3.768,0.305-6.863,2.452-8.678,5.698
	c-2.954,0-5.003,1.401-6.49,4.343c-2.352,0.07-4.354,2.219-5.957,6.444c-2.979,0.398-4.631-0.208-5.68-1.281
	c1.304-4.648,3.282-7.289,6.771-5.536c0.931,0.306,1.584-0.747,0.653-1.004c-0.536-0.232-1.048-0.304-1.559-0.373
	c0.138-4.556,6.164-2.195,9.796-8.756c0.721-4.087,9.771-2.009,15.262-16.042c0.442,0.326,0.79,0.537,1.278,0.792
	c-0.255,1.659-0.605,2.664-1.114,3.388c-0.768,0.908-0.164,1.377,0.768,0.511c0.602-0.932,0.859-2.075,1.186-3.407
	C310.168,428.711,311.889,429.457,313.308,429.971"/>
<path style="fill:#FFFFFF;" d="M218.702,309.369c-1.419,0-2.56-1.169-2.56-2.569c0-1.426,1.141-2.569,2.56-2.569
	c1.396,0,2.559,1.143,2.559,2.569C221.261,308.2,220.099,309.369,218.702,309.369"/>
<path style="fill:#FFFFFF;" d="M248.974,320.343c1.535-6.307-0.279-11.163-6.096-14.315c-5.771,2.171-9.212,5.756-10.071,9.727
	C237.618,316.144,244.022,317.798,248.974,320.343"/>
<path style="fill:#FFFFFF;" d="M314.982,308.551h-8.771c-0.349,0-0.652-0.304-0.652-0.679c0-0.372,0.304-0.676,0.652-0.676h8.771
	c0.373,0,0.677,0.303,0.677,0.676C315.659,308.246,315.355,308.551,314.982,308.551 M299.605,308.551h-9.099
	c-0.372,0-0.676-0.304-0.676-0.679c0-0.372,0.304-0.676,0.676-0.676h9.099c0.371,0,0.673,0.303,0.673,0.676
	C300.278,308.246,299.977,308.551,299.605,308.551z M285.318,308.551h-5.259c-0.373,0-0.675-0.304-0.675-0.679
	c0-0.372,0.302-0.676,0.675-0.676h5.259c0.371,0,0.675,0.303,0.675,0.676C285.993,308.246,285.689,308.551,285.318,308.551z
	 M274.87,308.551h-11.214c-0.35,0-0.651-0.304-0.651-0.679c0-0.372,0.301-0.676,0.651-0.676h11.214c0.372,0,0.675,0.303,0.675,0.676
	C275.545,308.246,275.242,308.551,274.87,308.551z M253.65,308.551h-4.677c-0.372,0-0.675-0.304-0.675-0.679
	c0-0.372,0.302-0.676,0.675-0.676h4.677c0.372,0,0.674,0.303,0.674,0.676C254.325,308.246,254.022,308.551,253.65,308.551z
	 M322.685,307.966c-1.839-1.494-4.119-2.428-6.842-2.802l-74.224-1.844v2.1l1.374-0.42c2.862,1.565,4.934,3.503,6.307,5.979
	l22.627-0.024l0.76-0.558l0.404,0.556l43.405-0.045C319.056,310.325,321.242,309.437,322.685,307.966z"/>
<path style="fill:#FFFFFF;" d="M240.947,299.023v6.655c-1.28,0.867-2.561,1.411-3.839,2.358v-9.013H240.947"/>
<path style="fill:#FFFFFF;" d="M232.175,316.723c2.814,0.28,5.198,0.382,7.549,1.408c0.092,1.589,0.106,4.244-0.034,5.832
	c0.116,1.937-1.978,4.156-5.003,3.129c-1.954-0.561-1.395-1.473-2.093-2.197c0.721-0.186,1.163-1.354,0.581-2.102
	c2.142,0.189,0.117-2.055,3.419-2.708c0.7-0.14,1.141-0.607,1.352-0.933c-1.258-0.188-2.515-0.164-3.771,0.092
	c-0.557-2.31-1.954-1.563-1.93-0.326c-0.605-1.309-1.328-1.353-2.165-0.186c-0.512,0.747-1.001,1.471-1.513,2.195
	c-3.163-0.911-6.468-1.401-9.865-1.425c0.675-1.937,1.606-3.735,4.514-4.553C225.195,316.092,228.172,316.699,232.175,316.723"/>
<path style="fill:#FFFFFF;" d="M226.823,321.439c-4.328,1.52-8.329,3.737-12.216,6.142c4.632-1.821,9.028-3.455,12.543-4.366
	c-3.141,1.495-5.422,4.552-7.447,8.079c-4.584,0.491-8.982,0.467-7.189-4.202c1.327-3.224,3.327-5.372,5.444-6.912
	C221.354,320.317,224.519,320.622,226.823,321.439"/>
<path style="fill:#FFFFFF;" d="M259.404,369.369c-3.929,4.491-5.306,8.82-4.916,13.016l3.094,1.494l1.909-2.94l-0.303-1.682
	l1.629-0.374l2.278-3.479l-0.418-1.425l1.374-0.373l0.868-1.385c-1.79-0.909-3.521-1.98-5.193-3.213
	C259.612,369.133,259.441,369.326,259.404,369.369"/>
<path style="fill:#FFFFFF;" d="M265.238,374.142l0.372,1.448l-1.442,0.373l-2.28,3.479l0.513,1.845l-1.839,0.256l-1.768,2.687
	l1.349,0.537c3.903-2.292,7.299-5.178,9.644-9.326c0.091-0.16,0.405-0.691,0.591-1.016c-1.45-0.442-2.865-0.981-4.245-1.616
	L265.238,374.142"/>
<path style="fill:#FFFFFF;" d="M256.273,366.179c-0.365-0.326-0.709-0.669-1.066-1c-0.312,0.304-0.845,0.834-1.016,1.044
	c-1.505,1.843-1.246,3.486,0.808,4.929c0.837,0.631,0.163,1.519-1.211,1.775c0.117,0.606-0.324,1.028-1.348,1.309
	c0.07,0.724,0.047,1.4-2.024,1.284c0.069,0.537-0.442,0.817-1.535,0.864c0.208,3.082,1.07,5.697,3.071,7.472
	c0.791-0.631,1.419-1.237,1.722-1.845c-0.787-3.524,0.291-7.562,4.032-12.343c0.219-0.278,0.801-0.964,1.127-1.348
	c-0.292-0.23-0.59-0.452-0.878-0.691C257.383,367.157,256.826,366.67,256.273,366.179"/>
<path style="fill:#FFFFFF;" d="M252.023,362.074l-3.677,0.088h-0.814l-0.117,0.912c-0.442,0.467-0.908,0.911-1.351,1.353
	c0.443,0.958,0.049,2.64-1.163,5.067c-1.652,2.125,0.675,5.091,3.118,6.025c1.07,0.514,1.933-0.117,1.583-0.398
	c-1.257-0.583-2.304-1.563-3.048-2.661c-0.374-0.537,0.162-1.214,0.744-0.445c0.698,0.888,1.79,1.985,2.955,2.779
	c1.046,0.466,2.001-0.349,1.255-0.677c-1.234-0.559-2.465-1.61-3.35-2.708c-0.396-0.491,0.395-1.215,1.095-0.304
	c0.744,0.935,1.652,1.844,2.744,2.428c0.793,0.305,1.186-0.536,0.931-0.84c-0.908-0.349-1.583-1.168-2.235-1.961
	c-0.581-0.912,0.187-1.449,0.956-0.257c0.419,0.699,1,1.262,1.768,1.682c1.047,0.442,1.559-0.47,0.419-0.866
	c-2.169-1.974-2.039-3.475,0.163-6.158c0.065-0.08,0.345-0.39,0.527-0.595C253.675,363.732,252.838,362.911,252.023,362.074"/>
<path style="fill:#0066B3;" d="M330.364,401.739c-7.469-2.848-12.402-6.138-15.613-9.759c3.142-0.14,5.491-1.051,7.609-2.942
	c-0.327-1.89-1.582-3.945-3.467-5.696c-2.863,4.061-9.728,4.248-13.382,0.677c-2.533-2.942-5.442-6.071-7.978-9.013
	c0.372-0.094,1.116-0.281,1.488-0.374c0-0.444,0-0.887,0-1.331c-2.978-0.327-5.141-0.14-6.863-0.094
	c2.908,5.603,7.537,10.928,11.192,14.781c-1.535,0.444-3.072,0.724-4.607,0.677c-4.013-3.799-7.042-8.258-9.617-13.012
	c-0.037-0.068-0.152-0.286-0.274-0.516c-2.342,0.443-4.612,0.698-6.818,0.771c0.095,0.209,0.186,0.409,0.229,0.496
	c3.016,5.964,5.944,10.416,8.964,13.287c-3.42,1.214-6.84,1.657-10.259,1.331c-0.18-4.937-0.358-9.689-0.537-14.632
	c-0.005-0.092-0.015-0.275-0.025-0.462c-2.954-0.023-5.786-0.378-8.499-1.068c-0.259-0.067-0.513-0.149-0.771-0.221
	c0,0.297,0.003,0.66-0.006,0.764c-1.199,14.972,1.697,31.278,10.581,49.477c1.955,0.282,4.584-0.678,7.539-2.171
	c-5.236-2.217-8.843-5.066-10.074-8.825c5.025,1.376,9.445,1.727,12.982,0.582c-6.049-1.938-10.936-5.86-15.241-10.812
	c-0.511-0.794,0.28-1.47,0.933-0.583c8.353,9.621,17.147,13.685,26.732,7.868c-10.143-1.564-15.705-5.907-19.566-11.276
	c3.861-0.678,7.702-1.33,11.564-1.985c8.91,9.503,18.357,13.964,28.525,11.091c-7.283-2.008-14.38-5.51-20.896-13.099
	c1.468-0.538,2.955-1.074,4.422-1.611C316.241,399.942,323.523,402.955,330.364,401.739"/>
<path style="fill:#FFFFFF;" d="M299.021,387.802c0.886-0.094,1.77-0.188,2.653-0.282c-4.329-4.669-7.748-8.92-10.075-13.1
	c-0.698,0.235-1.278,0.258-1.976,0.491C292.275,379.676,295.368,384.042,299.021,387.802"/>
<path style="fill:#FFFFFF;" d="M241.11,318.405c-0.257,2.964,1.093,4.435,0.767,6.655c-0.023,2.102,1.955,3.104,4.839,3.618
	c-3.188,0.165-5.583,1.121-7.19,2.872c0.157,1.253,0.004,2.415-0.457,3.475l14.533-10.647
	C249.871,321.719,245.706,319.742,241.11,318.405"/>
<path style="fill:#FFFFFF;" d="M238.782,331.808c-2.234,1.377-4.467,2.078-6.702,2.101l-1.093,2.522l3.327,2.078l3.463-2.538
	C238.438,334.901,238.782,333.516,238.782,331.808"/>
<path style="fill:#FFFFFF;" d="M231.079,333.746c-0.324,0.77-0.672,1.564-0.999,2.357c-2.094,0.328-3.63-0.232-4.607-1.682
	c0.814-2.123,1.697-4.225,3.187-6.326c0.418-0.631-0.279-0.96-0.838-0.258c-1.629,2.102-2.374,4.227-3.095,6.328
	c-2.421,0.186-3.839-0.63-4.258-2.453c2.257-3.828,4.514-6.49,6.772-7.4c0.767-0.28,0.884-0.678,0.326-1.191
	c0.324-0.116,0.674-0.233,0.999-0.328c-0.604,1.098-0.325,1.611,0.838,1.589c0.373,1.05-0.768,3.175,1.094,3.129
	C229.358,330.826,229.545,332.905,231.079,333.746"/>
<path style="fill:#FFFFFF;" d="M232.755,319.501c0.025,1.028,0.047,2.079,0.071,3.107c-0.722-0.188-0.883,0.279-0.489,1.447
	c-0.302-0.139-0.604-0.281-0.93-0.42c-1.558,0.187-2.652,0.164-1.745-1.448c0.513-0.817,0.837-1.61,1.326-2.428
	C232.012,320.764,232.175,319.572,232.755,319.501"/>
<path style="fill:#FFFFFF;" d="M231.917,326.671c0.304,0.187,0.605,0.187,0.909,0c0.233,0.233,0.489,0.442,0.767,0.583
	c-0.929,0.396-1.676-0.163-2.768,0.07C231.663,327.23,232.151,327.021,231.917,326.671"/>
<path style="fill:#FFFFFF;" d="M231.732,315.835c0.804-3.423,2.478-5.662,4.675-7.215c0-1.565,0-3.105,0-4.67
	c-0.558,0.56-1.138,0.492-1.698,0.327c0.258,1.774,0,2.895-1.443,2.522c0,1.471-0.674,1.751-1.653,1.493
	c-0.117,1.051-0.859,1.448-2.233,1.192c-0.348,0.63-0.953,1.12-1.605,1.611c1.257-0.024,2.559,0.304,3.956,1.121
	c0.744,0.537,0.327,1.774-0.604,1.145c-1.211-0.819-2.629-1.262-4.259-1.354c-1.279,0.186-2.07,1.144-2.77,2.194
	C225.846,315.158,228.567,315.601,231.732,315.835"/>
<path style="fill:#FFFFFF;" d="M236.246,300.563v2.733c-0.512,0.397-1.024,0.444-1.536,0.118l-0.698-2.149
	C234.756,300.657,235.502,300.447,236.246,300.563"/>
<path style="fill:#FFFFFF;" d="M233.966,304.114c0.117,1.611-0.117,2.149-0.699,1.611l-2.071-3.433c0-0.558,0.721-1.167,1.701-1.027
	L233.966,304.114"/>
<path style="fill:#FFFFFF;" d="M232.639,306.145c0.234,1.051-0.674,1.659-1.233,1.191l-2.932-3.712c0-0.911,0.629-1.332,1.909-1.238
	L232.639,306.145"/>
<path style="fill:#FFFFFF;" d="M227.893,303.902l3.025,3.924c0.07,0.771-0.743,1.239-1.489,0.841l-3.188-3.642
	C226.428,304.207,226.985,303.834,227.893,303.902"/>
<path style="fill:#FFFFFF;" d="M225.474,305.398c-0.746,1.05-1.281,2.148-1.583,3.339h-2.024c0.535-0.982,0.628-2.219,0.256-3.456
	L225.474,305.398"/>
<path style="fill:#FFFFFF;" d="M226.078,306.098l1.441,1.495l-1.721,2.054c-0.675,0.211-1.14,0.07-1.372-0.443
	C224.821,308.107,225.38,307.056,226.078,306.098"/>
<path style="fill:#FFFFFF;" d="M227.893,308.246l0.907,0.864c-0.465,0.701-1.139,1.309-1.885,1.869
	c-0.465-0.211-0.674-0.491-0.581-0.841L227.893,308.246"/>
<path style="fill:#FFFFFF;" d="M334.248,334c-1.278,7.987-7.956,6.867-6.234,23.631c-0.932-0.629-1.861-1.049-2.791-1.398
	C324.409,341.334,331.225,341.404,334.248,334"/>
<path style="fill:#FFFFFF;" d="M324.315,355.812c-1.165-15.879,8.096-15.413,10.027-24.635c-3.84,5.066-10.193,6.629-13.636,12.211
	c-2.745,4.834-1.372,8.874,2.304,11.816c-2.629-6.259-1.63-10.86,2.7-14.735c1.813-1.4,3.326-2.895,4.327-4.553
	c0.373-0.887,1.302-0.748,0.792,0.21C327.197,342.758,319.219,343.038,324.315,355.812"/>
<path style="fill:#FFFFFF;" d="M207.626,351.794c1.165-1.027,2.77-1.727,5.026-1.89c4.048,1.82,6.817,7.962,12.285,12.491
	c-0.627,0.118-1.302-0.07-1.837-0.374C219.564,357.562,212.979,356.185,207.626,351.794"/>
<path style="fill:#FFFFFF;" d="M213.7,349.528c0.814-0.396,2.163-0.465,4.047-0.21c5.422,4.576,5.073,8.175,10.355,12.213
	c-0.699,0.397-1.699,0.327-2.816,0.071c-2.117-2.102-2.374-1.869-4.7-4.975C218.004,352.987,215.747,350.767,213.7,349.528"/>
<path style="fill:#FFFFFF;" d="M218.748,349.157c1.886-0.211,3.816,0.116,5.84,1.215c2.931,3.151,3.445,7.122,6.936,11.323
	c-1.095,0.538-2.281-0.303-3.84-1.612C223.798,357.049,221.913,350.792,218.748,349.157"/>
<path style="fill:#FFFFFF;" d="M242.064,356.582c0.463,3.947,2.139,5.767,4.676,6.094
	C246.159,360.318,244.599,358.286,242.064,356.582"/>
<path style="fill:#FFFFFF;" d="M207.488,367.067c2.303,0.302,3.349,1.541,3.209,5.067c0.605,0.303,1.025,0.886,1.235,1.705
	c2.558,0.979,5.351,4.342,6.327,6.84c1.585-0.98,3.189-1.915,4.77-2.802l-3.629-3.222c-0.768-0.655-0.022-1.494,0.77-0.865
	l3.93,3.48c5.282-2.943,10.471-5.533,15.008-8.547c-3.069-1.588-5.397-3.713-7.027-6.119c-1.117,0.328-2.047,0.281-3.326-0.537
	c-0.791,0.654-1.815,0.771-3.095,0.305c0.233,0.84-0.442,1.05-2.001,0.607c0.187,0.304,0.373,0.608,0.56,0.912
	c-1.91,1.027-4.048,1.819-6.911,1.703c-3.606,0.981-7.212,0.585-10.796-0.724c-1.001,0.351-2.071,0.562-3.398,0.42
	c-0.371,0.701-1.303,1.238-2.792,1.588c0.208,0.093,0.418,0.164,0.604,0.257c-0.325,0.444-0.651,0.863-1.139,1.168
	C202.276,367.603,204.811,367.113,207.488,367.067"/>
<path style="fill:#FFFFFF;" d="M202.392,373.839c1.606,4.294,3.234,8.615,4.84,12.934c0.581-0.327,1.163-0.652,1.769-0.981
	c-0.257-0.723-0.49-1.446-0.745-2.193c1.838-0.724,3.071-2.008,2.978-4.506c-0.07-1.424-0.117-2.825-0.187-4.227
	c-0.162-1.471-0.72-2.195-1.698-2.195C206.673,372.693,204.416,373.161,202.392,373.839"/>
<path style="fill:#FFFFFF;" d="M212.629,396.839c1.071-0.982,2.303-1.613,1.442-3.784c-0.395-1.098-0.953-2.264-1.349-3.362
	c-1.42,0.257-2.396,1.004-3.699,1.867c-2.304,1.565-4.608,3.13-6.911,4.696c-0.187,4.411,6.817,5.184,8.679,2.496
	c-1.211-0.817-2.21-1.587-3.282-2.73c-2.699-2.571,1.466-5.184,3.141-2.685C211.398,394.364,212.025,395.669,212.629,396.839"/>
<path style="fill:#FFFFFF;" d="M197.552,375.403l6.353,13.73l-4.351,2.87l-8.841-10.856
	C193.061,378.438,195.342,376.57,197.552,375.403"/>
<path style="fill:#FFFFFF;" d="M191.873,378.438c-0.697,0.792-1.372,1.563-2.07,2.356c-2.814-0.349-4.652-3.407-5.815-5.719
	c-1.443-3.456-1.653-6.375-1.117-8.592c1.046,0.326,2.14,0.583,2.467,1.821c0.349,1.458,0.114,2.829,0.026,4.207
	c-0.094,1.466-0.026,2.935,1.09,4.524c0.769,1.31,1.908,2.15,3.21,2.757c0.21-0.234,0.397-0.468,0.605-0.678
	c-2.399-1.312-4.43-3.226-3.996-6.491c0.227-1.712,0.252-2.928-0.16-4.783c-0.224-1.009,0.046-2.171,0.876-3.646
	c1.815,1.774,3.072,3.898,2.746,6.934c-0.117,3.41,1.209,5.326,3.933,5.698c-0.42,0.326-0.839,0.677-1.257,1.005
	c-1.65-0.864-2.141-1.426-2.607-2.196c-0.464-0.912-1.395-0.304-0.812,0.653C189.78,377.457,190.759,378.111,191.873,378.438"/>
<path style="fill:#FFFFFF;" d="M199.646,367.276c-0.372,0.469-0.814,0.889-1.303,1.238c-3.374,0.841-5.725,1.774-7.677,2.732
	c0.184-1.051-0.025-1.845-0.049-2.756C193.992,367.369,197.273,366.412,199.646,367.276"/>
<path style="fill:#FFFFFF;" d="M190.409,367.745c-0.304-0.935-0.746-1.846-1.513-2.686c3.747-0.724,8.517-0.584,13.333-0.117
	c-0.234,0.56-1.164,1.027-2.815,1.355C196.249,365.875,193.037,366.505,190.409,367.745"/>
<path style="fill:#FFFFFF;" d="M204.881,364.288c-0.488,0.21-1.069,0.234-2.327,0.117c-4.373-0.84-8.631-0.934-12.471-0.259
	c-0.163-1.096,0.165-2.006,2.048-2.451C196.831,361.672,200.95,362.769,204.881,364.288"/>
<path style="fill:#FFFFFF;" d="M216.004,365.197c-2.77,0.327-5.888,0.048-9.518-1.236c-5.119-1.799-10.074-3.27-13.983-2.966
	c0.303-1.168,0.979-2.078,3.025-2.032C206.44,360.388,207.464,363.118,216.004,365.197"/>
<path style="fill:#FFFFFF;" d="M195.248,358.309c-0.208-0.629,0.698-1.377,3.211-2.543c7.935,3.339,13.193,6.071,20.151,6.093
	c1.046-0.14,0.883-1.354-0.211-1.002c-3.91,0.371-10.447-1.707-18.94-5.629c0.489-0.444,1.095-0.818,2.35-0.91
	c8.029,1.706,9.12,6.748,15.589,5.605c0.838-0.188,0.419-0.794-0.255-0.702c-6.493,0.374-7.073-3.993-14.706-5.558
	c0.791-0.886,2.188-1.424,4.282-1.542c6.816,5.441,13.168,6.307,16.193,11.372c-3.42,1.611-6.724,1.028-11.238-0.397
	C206.44,361.017,203.252,358.847,195.248,358.309"/>
<path style="fill:#FFFFFF;" d="M225.613,350.23c1.163-0.141,2.861,1.26,4.723,1.775c2.419,2.686,4.072,5.441,4.956,8.243
	c1.025,4.344,3.212,6.21,7.191,6.049c-0.839,0.629-1.676,1.237-2.49,1.868C230.616,363.235,228.707,353.126,225.613,350.23"/>
<path style="fill:#FFFFFF;" d="M231.524,352.005c0.999-0.702,3.303,0.84,5.514,2.265c1.232,6.094,3.351,10.345,7.398,10.507
	c-0.419,0.327-0.838,0.655-1.256,0.981c-3.862-0.164-6.142-1.915-6.84-5.278C235.477,356.932,233.827,354.153,231.524,352.005"/>
<path style="fill:#FFFFFF;" d="M243.088,377.504c-2.003,7.729-10.241,18.47-14.241,20.103c-0.302,0-0.604,0.116-0.908,0.258
	c-0.116-3.387-0.255-5.675-1.349-7.962c1.071-0.936,1.909-1.727,2.979-2.663c0.838,2.335,1.092,4.435,0.838,6.328
	c-0.165,0.864,0.744,0.818,0.884-0.164c0.233-2.381-0.024-4.716-0.907-6.676C233.227,384.211,238.275,381.642,243.088,377.504"/>
<path style="fill:#FFFFFF;" d="M257.84,420.514c-0.7,0-1.257-0.559-1.257-1.283c0-0.7,0.558-1.261,1.257-1.261
	c0.697,0,1.278,0.561,1.278,1.261C259.118,419.955,258.537,420.514,257.84,420.514"/>
<polyline style="fill:#FFFFFF;" points="254.79,398.448 253.115,399.663 254.14,401.506 255.931,400.362 254.79,398.448 "/>
<path style="fill:#FFFFFF;" d="M253.068,412.132c1.001,1.191,2.071,2.172,3.211,2.872c-0.443,0.771-1.628,1.611-3.328,2.521
	l-1.302,0.07C250.859,415.681,251.463,413.884,253.068,412.132"/>
<path style="fill:#FFFFFF;" d="M267.03,418.017c-2.513-0.842-4.841-2.104-6.703-4.39c0.932,1.26,3.421,2.403,4.84,2.381
	L267.03,418.017"/>
<path style="fill:#FFFFFF;" d="M207.045,432.047c0.116-2.38,0.396-4.083,1.931-6.536c0.373-2.382,2.071-6.607,5.027-11.279
	c1.326-2.357,2.955-3.595,7.516-1.75c7.306,1.704,11.167-0.677,16.612-1.727c-0.325,2.73-0.419,5.347-0.419,7.915
	c-5.35-0.724-10.656,0.304-16.077-2.147c-1.142,1.633-3.12,2.708-6.307,2.942c-2.281,7.588-6.026,3.78-4.048,12.279
	c0.35,1.799,0.977,3.482,1.651,5.28c2.118-0.187,4.096,0.068,5.725,1.329c0,2.849,0,5.721,0,8.57c-2.491-0.7-4.678-1.705-6.54-3.06
	c1.49-0.979,2.373-2.194,2.606-3.645c-0.022-1.235-1.116-1.235-1.116-0.115c-0.14,1.123-0.955,2.15-2.026,3.108
	c-3.442-3.527,0.21-4.391-3.023-7.146c-0.559-0.398-0.931-0.959-1.442-1.917C207.091,433.452,207.069,432.75,207.045,432.047"/>
<path style="fill:#FFFFFF;" d="M237.712,420.467c-0.022,2.15,0.022,4.299,0.164,6.422c-2.56,0.094-5.375,0.747-6.958,2.477
	C230.452,426.305,233.338,423.107,237.712,420.467"/>
<path style="fill:#FFFFFF;" d="M243.901,418.739c-0.185,2.478-0.278,4.95-0.303,7.425h0.955c0.162-3.387,2.304-5.439,6.422-6.117
	l4.537-0.582l0.118-0.726H243.901"/>
<path style="fill:#FFFFFF;" d="M250.091,421.123v5.112h-4.584C245.763,423.502,247.437,421.94,250.091,421.123"/>
<polyline style="fill:#FFFFFF;" points="264.353,374.397 263.818,374.397 263.934,375.051 264.587,374.982 264.353,374.397 "/>
<polyline style="fill:#FFFFFF;" points="260.98,379.792 260.28,379.861 260.328,380.702 261.282,380.633 260.98,379.792 "/>
<path style="fill:#FFFFFF;" d="M253.954,383.2l-2.026,1.986c2.466,1.144,5.096,2.054,7.865,2.709l0.07-2.103L253.954,383.2"/>
<path style="fill:#FFFFFF;" d="M251.509,385.676c0.21,2.057-0.117,4.18-0.768,5.697c1.559-0.864,3.747-0.395,5.003,1.191
	c1.349-0.699,2.63-0.863,3.816-0.466l0.163-3.502C256.419,387.824,253.534,386.914,251.509,385.676"/>
<path style="fill:#FFFFFF;" d="M250.694,392.143c-0.999,2.475-1.627,6.283-2.977,9.199c-1.605,4.694-3.514,9.412-3.77,16.183h0.79
	c2.793-1.984,5.702-6.327,8.795-15.341l-1.536-2.779l2.442-1.844l0.419-4.461C254,391.632,252.069,391.56,250.694,392.143"/>
<path style="fill:#FFFFFF;" d="M255.977,393.358l-0.465,4.366l1.49,2.825l-2.514,1.916c-2.536,7.261-5.515,12.681-8.376,15.06h4.396
	c-0.442-2.475,0.095-4.506,2.024-5.862l-0.953-1.517c4.142-2.918,6.795-7.028,7.912-12.352l0.07-4.553
	C258.931,392.635,257.723,392.683,255.977,393.358"/>
<path style="fill:#FFFFFF;" d="M206.626,416.102c-0.232-3.34,8.515-7.777,14.403-4.81c6.423,1.913,11.936-0.655,17.266-1.8
	c1.488-10.109,3.025-16.718,4.652-17.699c-0.163-0.839-0.232-1.682-0.232-2.521c-3.769,7.286-7.167,13.286-10.122,17.7
	c-1.63,2.381-5.514,2.03-7.563-0.653c-5.814-0.07-10.214,1.26-17.45-0.189c-1.278,1.61-2.955,2.872-4.887,3.852
	c0.093,4.182,0.164,8.385,0.256,12.589c0,0.279,0,0.559,0,0.84c-3.024,4.086-1.164,10.53,3.21,10.391
	c-0.278-3.129,0.046-5.604,1.536-8.102C206.789,423.689,206.44,420.492,206.626,416.102"/>
<path style="fill:#FFFFFF;" d="M237.851,354.107c1.141-0.188,1.862,1.75,3.282,2.195c0.441,3.923,2.163,6.631,5.095,6.957
	c-0.349,0.257-0.699,0.537-1.048,0.819C241.9,364.544,238.898,360.318,237.851,354.107"/>
<path style="fill:#FFFFFF;" d="M260.002,399.359c0.07,5.088,1.512,10.694,4.539,15.48c-2.978-0.793-5.679-3.244-8.191-6.422
	c1.443,4.134,4.398,8.502,8.307,9.528c-4.048-0.467-8.26-3.995-11.657-7.427C256.653,407.787,259.468,404.005,260.002,399.359"/>
<path style="fill:#0066B3;" d="M235.29,339.255l37.142-27.208c6.681,9.187,13.979,18.911,18.629,30.006
	c4.376,10.438,3.869,20.985-2.088,31.857c-0.004,0.007-0.003,0.006-0.011,0.007c-12.132,2.382-22.299-0.348-30.872-7.711
	C248.977,358.382,241.974,348.443,235.29,339.255"/>
<path d="M274.512,360.229l-5.786,4.238l-4.287-5.896l5.785-4.237l-7.058-9.704l-5.785,4.238l-4.288-5.895l5.785-4.238l-4.224-5.808
	c1.958-1.434,3.916-2.868,5.874-4.302l4.224,5.808l5.787-4.24l4.288,5.896l-5.787,4.239l7.058,9.704l5.788-4.239
	c1.428,1.964,2.859,3.929,4.286,5.895l-5.786,4.239l4.226,5.807l-5.875,4.302L274.512,360.229"/>
<polyline style="fill:#FFF200;" points="278.993,364.385 274.769,358.579 268.983,362.816 266.083,358.83 271.869,354.593 
	263.421,342.981 257.637,347.219 254.738,343.232 260.523,338.994 256.298,333.186 260.271,330.278 264.495,336.084 
	270.281,331.846 273.181,335.832 267.395,340.071 275.84,351.682 281.627,347.443 284.527,351.43 278.74,355.667 282.966,361.475 
	278.993,364.385 "/>
<path d="M208.605,399.359c-0.397-1.215-0.979-2.266-2.003-2.966c-1.395-0.98-2.396,0-2.513,0.724
	c-0.278,1.821,1.42,1.984,2.676,1.376C207.301,398.472,207.929,398.751,208.605,399.359"/>
<path d="M200.436,390.954c-1.441-3.106-3.093-2.778-3.652-6.189c-5.677-2.147-0.697-5.16-1-7.73c1.56-0.255,0.978,1.775,1.49,2.476
	c2.025,0.35,2.676,3.013,1.279,4.928C198.319,386.611,200.391,388.011,200.436,390.954"/>
<path d="M188.058,367.159c0.955,1.82,0.398,3.036,0.676,4.041c0.511,1.377-1,1.423-1,0.279c0.069-2.266-0.466-3.035-0.537-3.899
	C187.129,366.692,187.57,366.529,188.058,367.159"/>
<path d="M227.939,414.466c0.908,0.188,0.768,1.145-0.046,1.098c-2.652-0.351-5.443-0.559-8.585-0.418
	c-2.955,2.638-3.816-0.235-7.376,8.381c-0.372,0.889-1.187,0.747-0.836-0.234c1.789-5.767,5.046-9.013,10.004-9.176
	C223.379,414.231,225.659,414.35,227.939,414.466"/>
<path d="M212.885,409.492c-1.304-0.328-2.628-0.628-3.932-0.958c-0.371,2.314-1.862,3.245-4.467,2.99
	c0.025,1.074,0.046,2.124,0.069,3.2c0.046,1.306,1.07,1.119,0.884,0.115c-0.046-0.816-0.07-1.611-0.116-2.404
	c2.489,0.234,3.954-0.725,4.397-2.873c0.722,0.163,1.443,0.35,2.142,0.537C212.979,410.567,213.722,409.772,212.885,409.492"/>
<path style="fill:#FFFFFF;" d="M195.644,380.656c-0.931,0.912-0.813,2.452,0.628,2.919
	C195.575,382.757,195.458,381.754,195.644,380.656"/>
<path style="fill:#FFFFFF;" d="M335.166,551.26c-2.033,0.002-3.953,0.105-5.76,0.113l5.105-19.518l-1.955-1.263
	c-3.864-2.5-7.637-4.265-11.087-5.411c-3.464-1.153-7.095-1.816-10.783-1.816c-4.439-0.006-8.657,0.937-12.625,2.936
	c-3.911,1.946-7.288,4.645-10.042,8.196c-2.373,3.032-4.05,6.42-5.313,9.947l-0.025,0.067l-0.011,0.036
	c-1.153,3.6-1.801,7.461-1.801,11.456c-0.002,4.106,0.648,8.146,2.081,12.055c1.401,3.834,3.358,7.372,6.007,10.417
	c2.459,2.989,5.478,5.327,8.965,6.933c3.439,1.513,7.302,2.297,11.472,2.297c0.006,0,0.012,0,0.018,0
	c4.273,0,8.273-0.788,12.152-2.041l0.086-0.029l0.033-0.013c3.789-1.389,7.501-3.305,11.059-5.975l1.287-0.966v-4.315v-2.357
	c-0.022-6.135,0.383-10.301,0.78-11.69c0.516-1.315,0.946-1.678,1.736-2.056l2.278-0.973l-0.873-6.031H335.166z M305.533,538.554
	c1.087-1.976,2.29-3.32,3.479-4.139c1.199-0.811,2.389-1.185,3.911-1.196c2.506,0.075,3.918,0.776,5.624,3.013
	c1.693,2.326,3.264,6.354,4.143,12.034l0.303,1.929l3.645,1.228c-1.135,0.035-2.23,0.076-3.24,0.075
	c-1.742,0.002-3.623-0.122-5.649-0.124c-1.748,0.002-3.629-0.111-5.645-0.113h-3.221v6.49l2.364,0.654
	c1.461,0.442,1.928,0.946,2.225,1.622l0.033,0.088l0.034,0.072c0.418,0.734,1.034,4.294,0.99,9.592
	c0.013,3.235-0.662,5.508-1.395,6.654c-0.793,1.075-1.298,1.34-2.798,1.42c-1.17-0.019-1.924-0.292-2.79-0.959
	c-0.854-0.674-1.784-1.879-2.643-3.754c-1.814-3.694-2.777-9.259-2.765-16.898C302.13,548.575,303.403,542.585,305.533,538.554z"/>
<path style="fill:#FFFFFF;" d="M458.027,524.896c-1.307,0.005-2.44,0.127-3.535,0.122c-1.178,0-3.059,0-5.533,0
	c-2.584,0-4.476,0-5.643,0c-1.095,0.005-2.228-0.117-3.533-0.122h-3.219v6.506l1.934,0.842c1.927,0.858,3.238,2.236,4.046,4.311
	c0.643,1.639,1.164,6.263,1.288,13.152l-18.564-24.81h-1.609c-0.693,0-1.842,0-3.416,0.122c-1.357,0-2.485,0-3.167,0
	c-1.412,0-3.22,0-5.609-0.119l-0.086-0.003h-0.074c-2.404,0-3.867-0.109-4.82-0.115h-3.221v6.588l2.196,0.738
	c1.666,0.558,2.442,1.265,2.699,1.737c0.284,0.337,0.793,2.485,0.747,5.925v17.651c0.036,9.249-0.556,15.393-1.338,17.379
	c-0.823,2.196-2.035,3.439-3.985,4.203l-2.091,0.781v6.907l3.49-0.293c1.401-0.119,2.721-0.223,4.084-0.221h0.124l0.146-0.013
	c1.212-0.102,2.792-0.109,4.561-0.107c1.765,0,3.204,0.002,4.571,0.109l0.124,0.011h0.124c1.377,0,2.673,0.102,3.943,0.219
	l3.514,0.322v-6.767l-1.877-0.86c-2.085-0.997-3.229-2.269-4.086-4.526c-0.793-2.078-1.481-8.032-1.451-17.144v-7.591l28.467,38.229
	h6.484v-34.286c-0.031-8.993,0.663-15.088,1.454-17.15c0.857-2.342,2.054-3.549,3.991-4.314l2.089-0.783v-6.628H458.027z"/>
<path style="fill:#FFFFFF;" d="M429.82,521.777l3.572-2.032l-0.246-0.886c-0.106-0.385-0.146-0.719-0.146-1.016
	c0-0.205,0.02-0.394,0.054-0.568c0.052-0.21,0.115-0.345,0.374-0.529c0.345-0.09,0.433-0.211,0.634-0.277
	c0.27-0.132,0.228-0.111,0.311-0.119h0.15l3.108-0.835c0.453-0.049,0.744-0.208,0.954-0.311c0.392-0.138,0.685-0.286,0.904-0.397
	c1.774-1.003,2.713-2.583,3.092-4.308l0.011-0.046l0.008-0.053c0.063-0.428,0.097-0.875,0.097-1.342c0-1.459-0.322-3.068-0.997-4.79
	l-0.471-1.195l-3.877,1.935l0.229,0.918c0.168,0.652,0.253,1.146,0.249,1.444c0,0.061-0.003,0.115-0.007,0.163
	c-0.129,0.266-0.258,0.403-0.571,0.653c-0.079,0.022-0.211,0.063-0.384,0.176c-0.017,0.004-0.039,0.009-0.07,0.016
	c-0.096,0.022-0.254,0.06-0.447,0.14l-2.985,0.694l-0.048,0.014c-0.355,0.113-0.708,0.229-1.035,0.38
	c-0.292,0.106-0.515,0.247-0.668,0.35c-0.163,0.111-0.234,0.155-0.234,0.157l-0.031,0.015l-0.046,0.025
	c-1.618,0.917-2.77,2.376-3.037,4.249c-0.068,0.422-0.101,0.867-0.101,1.323c0,1.477,0.354,3.118,1.129,4.865L429.82,521.777z"/>
<path style="fill:#FFFFFF;" d="M208.755,528.819l-0.042-0.027l-0.023-0.013c-4.607-2.765-10.943-3.73-19.564-3.762h-6.239
	c-2.826,0.002-5.355-0.115-7.573-0.117c-2.204-0.125-4.288-0.126-6.386-0.234l-3.383-0.172v6.646l1.901,0.854
	c0.3,0.132,0.458,0.243,0.508,0.286l0.047,0.109l0.049,0.085c0.026,0.091,0.09,0.379,0.126,0.85c0.053,0.58,0.076,1.405,0.076,2.438
	v23.544v3.292c0.023,6.906-0.411,11.604-0.924,13.194l-0.021,0.069l-0.027,0.109c-0.45,1.733-1.108,2.528-2.303,3.37l-1.431,0.955
	v6.338l3.435-0.232c1.757-0.119,3.444-0.225,5.194-0.225h0.08l0.109-0.006c1.876-0.112,3.816-0.114,5.934-0.114
	c2.238,0,4.176,0.002,5.916,0.114l0.107,0.006h0.097c1.752-0.002,3.562,0.105,5.312,0.225l3.435,0.232v-6.34l-1.433-0.955
	c-1.115-0.76-1.927-1.799-2.47-3.551c-0.511-1.564-0.944-6.403-0.921-13.548v-1.724c1.018,0.113,2.073,0.236,3.135,0.241
	c6.923,0.002,12.714-1.521,17.176-4.721c4.6-3.129,7.177-8.055,7.11-13.444C215.844,536.763,213.336,531.688,208.755,528.819z
	 M194.727,542.244c-0.002,3.319-0.724,5.481-1.79,6.839l-0.059,0.076l-0.063,0.09c-0.993,1.353-1.933,1.831-3.812,1.892
	c-0.001,0.016-0.245-0.026-0.663-0.064v-16.794c2.639,0.064,3.987,0.739,4.871,1.643
	C193.985,536.83,194.738,538.851,194.727,542.244z"/>
<path style="fill:#FFFFFF;" d="M269.235,531.89c-2.773-2.914-5.889-4.94-9.15-6.366c-3.516-1.489-7.187-2.163-11.182-2.159
	c-3.888-0.002-7.549,0.67-11.019,2.14c-3.467,1.465-6.526,3.602-9.144,6.216c-3.042,3.038-5.3,6.642-6.745,10.582
	c-1.569,4.042-2.203,8.359-2.201,13c-0.002,4.519,0.628,8.818,2.21,12.905c1.446,4.055,3.697,7.614,6.568,10.614
	c2.538,2.789,5.713,5.032,9.297,6.502c3.495,1.599,7.325,2.381,11.152,2.383c0.004,0,0.008,0,0.012,0
	c4.93,0.001,9.65-1.354,13.872-3.866c4.13-2.394,7.671-5.974,10.389-10.37l0.036-0.06l0.021-0.038
	c1.485-2.598,2.819-5.366,3.621-8.581c0.776-2.971,1.157-6.182,1.159-9.489c0-4.641-0.629-8.958-2.232-12.966
	C274.471,538.565,272.227,535.014,269.235,531.89z M245.795,577.485c-0.858-0.642-1.74-1.754-2.526-3.576
	c-1.57-3.455-2.466-9.754-2.445-18.489c-0.021-8.737,0.875-15.034,2.432-18.468c0.783-1.757,1.66-2.847,2.522-3.486
	c0.871-0.632,1.763-0.941,3.125-0.955c1.363,0.015,2.245,0.323,3.111,0.959c0.856,0.642,1.738,1.751,2.525,3.57
	c1.588,3.512,2.582,9.787,2.563,18.38c0.015,8.595-0.966,14.857-2.563,18.487c-0.772,1.746-1.667,2.88-2.542,3.545
	c-0.888,0.658-1.768,0.974-3.095,0.988C247.539,578.426,246.66,578.119,245.795,577.485z"/>
<path style="fill:#FFFFFF;" d="M399.977,542.43c-1.491-3.926-3.864-7.45-6.823-10.539c-2.728-2.878-5.765-4.946-9.193-6.385
	c-3.381-1.488-7.143-2.143-11.137-2.14c-3.78,0-7.521,0.66-11.017,2.14c-3.47,1.462-6.55,3.605-9.085,6.277
	c-2.983,2.975-5.22,6.556-6.774,10.428l-0.031,0.079l-0.015,0.049c-1.412,3.979-2.186,8.258-2.185,12.962
	c-0.002,4.596,0.772,8.862,2.185,12.843l0.012,0.038l0.022,0.052c1.531,3.956,3.636,7.532,6.552,10.585
	c2.596,2.73,5.683,5.031,9.346,6.521c3.538,1.571,7.297,2.371,11.227,2.366c0.015,0,0.03,0,0.045,0
	c4.898,0.001,9.489-1.358,13.657-3.828v0.002c4.321-2.429,7.764-6.056,10.454-10.408c1.682-2.7,2.884-5.512,3.664-8.606
	c0.917-3.059,1.291-6.286,1.293-9.564C402.173,550.595,401.393,546.315,399.977,542.43z M369.77,577.484
	c-0.855-0.643-1.717-1.729-2.435-3.505l-0.022-0.051l-0.02-0.052c-1.576-3.47-2.569-9.748-2.548-18.458
	c-0.021-8.71,0.972-14.986,2.548-18.466l0.029-0.069c0.715-1.711,1.569-2.775,2.432-3.417c0.873-0.634,1.788-0.944,3.069-0.955
	c1.364,0.013,2.298,0.328,3.194,0.976c0.888,0.654,1.779,1.757,2.559,3.552c1.588,3.514,2.579,9.787,2.56,18.38
	c0.017,8.597-0.966,14.859-2.56,18.489c-0.764,1.721-1.669,2.85-2.575,3.526c-0.916,0.669-1.85,0.992-3.178,1.008
	C371.538,578.427,370.636,578.122,369.77,577.484z"/>
<path d="M335.166,554.479l0.119,0.822c-1.648,0.702-2.826,1.999-3.529,3.999c-0.589,2.004-0.945,6.235-0.945,12.709v2.357v2.707
	c-3.291,2.47-6.701,4.231-10.235,5.528c-3.647,1.178-7.295,1.886-11.181,1.886c-3.766,0-7.181-0.708-10.121-2
	c-3.061-1.415-5.649-3.415-7.886-6.122c-2.354-2.707-4.121-5.88-5.412-9.413c-1.294-3.534-1.886-7.177-1.886-10.948
	c0-3.648,0.591-7.176,1.648-10.473c1.181-3.296,2.71-6.354,4.823-9.057c2.472-3.178,5.415-5.533,8.946-7.296
	c3.529-1.771,7.181-2.593,11.18-2.593c3.302,0,6.593,0.594,9.771,1.652c3.177,1.055,6.711,2.703,10.353,5.059l-3.88,14.828
	l-1.06-0.357c-0.94-6.004-2.589-10.473-4.712-13.418c-2.113-2.935-4.82-4.35-8.235-4.35c-4.236,0-7.651,2.355-10.24,7.058
	c-2.47,4.706-3.764,11.175-3.764,19.183c0,7.89,0.943,13.888,3.059,18.243c2.002,4.355,4.709,6.588,8.357,6.588
	c2.356,0,4.232-0.945,5.534-2.939c1.173-1.886,1.88-4.707,1.88-8.354c0-5.528-0.47-9.182-1.291-10.948
	c-0.708-1.767-2.237-2.944-4.356-3.528v-0.822c1.886,0,3.767,0.114,5.647,0.114c1.886,0,3.767,0.123,5.647,0.123
	c1.886,0,3.891-0.123,5.771-0.123C331.167,554.594,333.166,554.479,335.166,554.479L335.166,554.479z"/>
<path d="M415.542,540.117v17.303c0,9.294,0.589,15.293,1.643,18.243c1.065,2.939,2.944,5.058,5.771,6.354v1.173
	c-1.297-0.119-2.702-0.232-4.236-0.232c-1.534-0.119-3.059-0.119-4.82-0.119c-1.772,0-3.415,0-4.831,0.119
	c-1.525,0-2.944,0.113-4.355,0.232v-1.173c2.831-1.06,4.831-3.178,5.885-6.122c1.064-2.94,1.529-9.063,1.529-18.476v-17.649
	c0-3.652-0.346-6.122-1.178-7.533c-0.816-1.415-2.355-2.475-4.464-3.182v-1.055c0.702,0,2.35,0.114,4.82,0.114
	c2.47,0.123,4.355,0.123,5.771,0.123c0.703,0,1.881,0,3.292,0c1.529-0.123,2.588-0.123,3.291-0.123l23.42,31.304v-5.647
	c0-9.299-0.465-15.417-1.524-18.356c-1.069-2.821-3.064-4.944-5.771-6.122v-1.178c1.059,0,2.236,0.123,3.533,0.123
	c1.168,0,3.059,0,5.643,0c2.475,0,4.355,0,5.533,0c1.297,0,2.475-0.123,3.534-0.123v1.178c-2.821,1.059-4.826,3.178-5.89,6.241
	c-1.055,2.939-1.644,9.057-1.644,18.237v31.067h-1.648L415.542,540.117L415.542,540.117z"/>
<path d="M432.014,519.177l-1.644,0.936c-0.94-2.119-1.178-3.999-0.94-5.528c0.238-1.529,1.06-2.589,2.47-3.415
	c0.232-0.114,0.471-0.352,0.827-0.471c0.232-0.113,0.589-0.237,0.94-0.347l3.059-0.712c0.237-0.119,0.475-0.119,0.707-0.233
	c0.114-0.118,0.352-0.118,0.471-0.232c0.47-0.357,0.821-0.713,1.059-1.302c0.119-0.584,0-1.292-0.237-2.231l1.881-0.94
	c0.831,2.118,1.064,3.999,0.831,5.533c-0.356,1.529-1.059,2.702-2.475,3.523c-0.237,0.119-0.47,0.237-0.821,0.356
	c-0.237,0.119-0.475,0.237-0.708,0.237l-3.059,0.822c-0.356,0-0.589,0.118-0.826,0.237c-0.232,0.113-0.466,0.237-0.589,0.237
	c-0.589,0.347-0.945,0.816-1.06,1.406C431.786,517.643,431.786,518.35,432.014,519.177L432.014,519.177z"/>
<path d="M166.764,583.19v-1.173c1.764-1.178,3.059-2.831,3.647-5.301c0.706-2.35,1.059-7.063,1.059-14.12v-3.291v-23.544
	c0-2.465-0.119-3.999-0.586-4.816c-0.356-0.827-1.061-1.416-2.121-1.891v-1.174c2.237,0.114,4.353,0.114,6.471,0.238
	c2.121,0,4.709,0.118,7.651,0.118h6.239c8.357,0,14.236,1.055,17.884,3.287c3.65,2.356,5.533,6.008,5.533,11.066
	c0,4.474-1.883,8.116-5.766,10.829c-3.766,2.702-8.829,4.117-15.3,4.117c-0.824,0-1.881-0.118-2.94-0.237
	c-1.062,0-2.119-0.232-3.413-0.352v5.291c0,7.295,0.349,12.126,1.057,14.477c0.71,2.356,2,4.123,3.766,5.301v1.173
	c-1.767-0.119-3.647-0.232-5.528-0.232c-1.885-0.119-3.882-0.119-6.12-0.119c-2.118,0-4.12,0-6.124,0.119
	C170.295,582.958,168.528,583.071,166.764,583.19L166.764,583.19z M185.123,553.653c0.824,0.237,1.529,0.47,2.234,0.589
	c0.586,0,1.178,0.119,1.646,0.119c2.707,0,4.947-1.064,6.471-3.297c1.653-2.118,2.472-5.058,2.472-8.819
	c0-3.891-0.819-6.711-2.351-8.483c-1.645-1.757-4.12-2.702-7.533-2.702c-0.354,0-0.706,0-1.173,0c-0.358,0-0.943,0.119-1.767,0.237
	V553.653L185.123,553.653z"/>
<path d="M223.015,555.302c0-4.356,0.587-8.236,2.002-11.889c1.294-3.523,3.294-6.711,5.999-9.413
	c2.356-2.352,5.063-4.237,8.122-5.528c3.059-1.292,6.236-1.886,9.765-1.886c3.653,0,6.828,0.594,9.889,1.886
	c2.94,1.291,5.647,3.054,8.119,5.646c2.708,2.826,4.707,5.999,6.001,9.414c1.413,3.533,2.002,7.414,2.002,11.769
	c0,3.059-0.356,6.003-1.061,8.71c-0.705,2.821-1.883,5.296-3.293,7.766c-2.472,3.999-5.65,7.182-9.295,9.295
	c-3.769,2.237-7.889,3.415-12.24,3.415c-3.415,0-6.827-0.708-9.886-2.123c-3.177-1.292-6.001-3.292-8.238-5.767
	c-2.588-2.707-4.588-5.879-5.882-9.527C223.602,563.418,223.015,559.538,223.015,555.302L223.015,555.302z M248.902,581.661
	c3.885,0,6.712-2.237,8.592-6.474c1.886-4.356,2.826-10.938,2.826-19.768c0-8.829-0.94-15.412-2.826-19.658
	c-1.88-4.346-4.706-6.469-8.592-6.469c-3.88,0-6.706,2.123-8.589,6.354c-1.881,4.242-2.708,10.829-2.708,19.773
	c0,8.943,0.827,15.531,2.708,19.768C242.196,579.543,245.022,581.661,248.902,581.661L248.902,581.661z"/>
<path d="M346.935,555.302c0-4.356,0.707-8.236,1.999-11.889c1.416-3.523,3.415-6.711,6.122-9.413
	c2.233-2.352,4.94-4.237,8.004-5.528c3.053-1.292,6.355-1.886,9.765-1.886c3.647,0,6.943,0.594,9.884,1.886
	c3.059,1.291,5.651,3.054,8.121,5.646c2.708,2.826,4.826,5.999,6.123,9.414c1.286,3.533,1.999,7.414,1.999,11.769
	c0,3.059-0.356,6.003-1.178,8.71c-0.708,2.821-1.762,5.296-3.296,7.766c-2.475,3.999-5.534,7.182-9.295,9.295
	c-3.772,2.237-7.771,3.415-12.126,3.415c-3.529,0-6.825-0.708-9.997-2.123c-3.183-1.292-5.891-3.292-8.246-5.767
	c-2.583-2.707-4.464-5.879-5.88-9.527C347.643,563.418,346.935,559.538,346.935,555.302L346.935,555.302z M372.825,581.661
	c3.885,0,6.825-2.237,8.706-6.474c1.885-4.356,2.825-10.938,2.825-19.768c0-8.829-0.94-15.412-2.825-19.658
	c-1.881-4.346-4.821-6.469-8.706-6.469c-3.767,0-6.712,2.123-8.474,6.354c-1.886,4.242-2.826,10.829-2.826,19.773
	c0,8.943,0.94,15.531,2.826,19.768C366.113,579.543,369.059,581.661,372.825,581.661L372.825,581.661z"/>
<polygon style="fill:#FFFFFF;" points="331.92,609.933 319.735,609.933 319.735,611.554 319.735,647.602 345.872,647.602 
	345.872,635.883 331.92,635.883 "/>
<path style="fill:#FFFFFF;" d="M313.671,615.563c-1.19-1.79-2.742-3.21-4.593-4.181c-1.947-1.002-4.316-1.447-7.099-1.449h-14.903
	v1.621v36.048h14.903c1.799,0,3.736-0.346,5.819-1.013c1.757-0.562,3.337-1.661,4.726-3.188c1.42-1.553,2.505-3.458,3.266-5.66
	c0.799-2.314,1.144-5.306,1.148-9.093c0-2.454-0.25-4.8-0.753-7.029C315.673,619.356,314.838,617.332,313.671,615.563z
	 M299.252,620.969h0.61c2.037,0.021,3.047,0.545,3.679,1.373c0.615,0.759,1.199,3.014,1.172,6.515
	c0.011,2.668-0.239,4.56-0.57,5.438c-0.369,0.998-0.825,1.529-1.187,1.748c-0.292,0.216-1.407,0.517-3.134,0.498h-0.572
	L299.252,620.969z"/>
<path style="fill:#FFFFFF;" d="M366.631,631.626c-0.364,2.023-0.949,3.445-1.6,4.28c-0.566,0.701-1.225,1.053-2.592,1.079
	c-1.326-0.039-2.021-0.403-2.77-1.423c-0.625-0.839-1.199-3.255-1.174-6.934c-0.011-2.945,0.428-4.985,1.015-5.997
	c0.924-1.551,1.77-2.034,3.246-2.083c0.634,0.003,1.126,0.143,1.594,0.422c0.479,0.297,0.903,0.717,1.284,1.335
	c0.161,0.239,0.436,0.909,0.686,1.878l0.413,1.566l11.047-2.922l-0.438-1.581c-1.066-3.837-2.744-6.859-5.166-8.895
	c-2.456-2.063-5.747-3.005-9.634-3.001c-4.992-0.023-9.191,1.706-12.049,5.171c-2.876,3.452-4.198,8.249-4.196,14.179
	c0,4.45,0.753,8.222,2.359,11.278c1.544,2.931,3.467,5.121,5.814,6.407c2.312,1.262,5.158,1.829,8.487,1.831
	c2.767-0.002,5.175-0.473,7.162-1.54c1.933-1.016,3.556-2.556,4.813-4.516c1.275-1.969,2.155-4.343,2.715-7.102l0.277-1.373
	l-10.954-3.943L366.631,631.626z"/>
<polygon style="fill:#FFFFFF;" points="392.31,633.021 406.218,633.021 406.218,622.757 392.31,622.757 392.31,620.519 
	407.303,620.519 407.303,609.933 380.106,609.933 380.106,611.554 380.106,647.602 407.737,647.602 407.737,636.565 392.31,636.565 
	"/>
<polygon style="fill:#FFFFFF;" points="239.704,611.554 239.704,647.602 251.908,647.602 251.908,609.933 239.704,609.933 "/>
<path style="fill:#FFFFFF;" d="M231.119,624.486c-0.721-0.434-1.569-0.848-2.554-1.249l7.398-0.514l-0.171-1.666
	c-0.39-3.81-1.668-6.883-4.033-8.872c-2.344-1.981-5.58-2.836-9.504-2.836c-3.162,0.005-5.777,0.454-7.855,1.53
	c-1.978,1.02-3.547,2.5-4.565,4.363c-0.985,1.803-1.494,3.764-1.49,5.8c-0.015,3.026,0.992,5.736,2.986,7.772
	c1.408,1.459,3.336,2.605,5.772,3.539l-9.953,0.735l0.114,1.612c0.263,3.747,1.45,6.985,3.601,9.528
	c2.382,2.811,6.325,3.956,11.454,3.96c2.981,0,5.573-0.506,7.715-1.632c2.119-1.093,3.817-2.767,4.974-4.899
	c1.153-2.089,1.744-4.416,1.742-6.872c0.002-2.104-0.443-4.079-1.335-5.836C234.499,627.129,233.018,625.631,231.119,624.486z
	 M220.164,620.513c-0.042-0.024-0.069-0.044-0.084-0.054c-0.234-0.26-0.213-0.276-0.226-0.378c0.015-0.375,0.083-0.521,0.308-0.766
	c0.133-0.133,0.411-0.309,1.214-0.315c0.973,0.011,1.466,0.242,1.835,0.589c0.319,0.304,0.689,0.99,0.892,2.15
	c-0.576-0.164-1.179-0.327-1.809-0.491c-0.757-0.184-1.333-0.366-1.714-0.527C220.388,620.641,220.246,620.566,220.164,620.513z
	 M224.819,636.263c-0.015,0.533-0.146,0.881-0.577,1.348c-0.331,0.33-0.796,0.562-1.782,0.574c-1.278-0.041-1.907-0.384-2.594-1.358
	c-0.358-0.536-0.708-1.552-0.867-3.045l-0.088-0.8c0.498,0.156,1.013,0.306,1.546,0.45c2.293,0.562,3.662,1.303,3.814,1.54
	C224.684,635.425,224.807,635.765,224.819,636.263z"/>
<polygon style="fill:#FFFFFF;" points="268.608,633.021 282.514,633.021 282.514,622.757 268.608,622.757 268.608,620.518 
	283.603,620.519 283.603,609.933 256.406,609.933 256.406,611.554 256.406,647.602 284.038,647.602 284.038,636.565 
	268.608,636.565 "/>
<path style="fill:#FFFFFF;" d="M419.859,221.071c-3.245-1.7-8.376-2.422-15.632-2.436h-41.87v4.753l1.036,0.175
	c1.579,0.271,2.384,0.803,2.78,1.439c0.388,0.544,0.821,2.864,0.79,6.455v35.891c0.031,3.598-0.404,5.917-0.796,6.47
	c-0.391,0.626-1.195,1.155-2.774,1.429l-1.036,0.173v4.759h1.242h32.242v-4.845l-1.131-0.1c-2.505-0.208-4.02-0.859-4.582-1.516
	c-0.477-0.39-1.148-3.126-1.091-7.533v-12.879c11.51-2.463,20.235-5.53,26.235-9.316c6.152-3.856,9.523-8.657,9.513-14.211
	C424.827,225.913,423.09,222.771,419.859,221.071z M398.909,238.189c-1.856,1.587-5.178,3.368-9.871,5.218v-12.034
	c-0.029-2.213,0.516-3.31,0.82-3.445c0.422-0.342,1.943-0.717,4.321-0.717c0.075,0,0.151,0,0.229,0.001
	c2.807-0.006,4.753,0.523,5.862,1.341c1.082,0.809,1.623,1.911,1.646,3.819C401.902,234.561,401.006,236.39,398.909,238.189z"/>
<path style="fill:#FFFFFF;" d="M224.298,274.435l-1.145-0.089c-2.119-0.169-3.241-0.791-3.781-1.608
	c-0.572-0.759-1.11-3.396-1.078-7.439V237.54l16.332,30.999l16.696-30.851v27.61c0.035,4.136-0.501,6.81-1.039,7.485
	c-0.548,0.803-1.622,1.391-3.683,1.564l-1.143,0.09v4.855h32.594v-4.759l-1.039-0.173c-1.581-0.271-2.38-0.801-2.774-1.439
	c-0.386-0.519-0.83-2.868-0.799-6.457v-35.893c-0.029-3.585,0.409-5.913,0.803-6.46c0.39-0.63,1.189-1.162,2.768-1.429l1.04-0.173
	v-4.762h-32.129v4.568l0.801,0.302c0.482,0.181,0.766,0.39,0.934,0.582c0.096,0.127,0.158,0.271,0.165,0.584
	c0.002,0,0,0.033-0.033,0.15c-0.092,0.355-0.431,1.111-1.017,2.104l-0.064,0.088l-0.046,0.065l-5.927,10.703l-4.97-10.568
	c-0.357-0.745-0.624-1.376-0.772-1.825c-0.184-0.49-0.225-0.801-0.225-0.803c0.01-0.256,0.05-0.346,0.181-0.507
	c0.148-0.181,0.424-0.386,0.926-0.573l0.801-0.302v-4.568H203.1v4.762l1.039,0.173c1.575,0.265,2.379,0.801,2.771,1.433
	c0.39,0.538,0.826,2.87,0.795,6.455v35.893c0.033,3.592-0.409,5.94-0.795,6.457c-0.392,0.639-1.197,1.171-2.773,1.439l-1.037,0.173
	v4.759h21.198V274.435z"/>
<path style="fill:#FFFFFF;" d="M314.936,272.921c-0.393-0.544-0.832-2.865-0.801-6.457V248.87l1.786-1.207
	c3.619,4.329,6.544,8.771,8.798,13.317c2.422,4.855,3.563,8.662,3.552,11.223c0.002,0.897-0.191,1.403-0.35,1.6
	c-0.123,0.159-0.497,0.411-1.327,0.561l-1.022,0.184v4.747h31.664v-4.717l-0.987-0.207c-2.592-0.498-5.133-3.381-7.13-9.333
	c-0.72-2.148-1.313-3.827-1.777-5.06c-2.363-6.121-4.986-11.413-7.93-15.861c-2.603-3.938-5.402-7.194-8.431-9.763l3.063-2.664
	c3.067-2.718,6.204-4.849,9.401-6.436c3.197-1.602,6.04-2.426,8.518-2.555l1.176-0.063v-4.887h-29.378v4.695l0.962,0.223
	c0.886,0.205,1.44,0.497,1.737,0.776c0.248,0.254,0.35,0.471,0.364,0.947c0.057,0.086-0.342,1.122-1.453,2.444
	c-1.089,1.35-2.789,3.099-5.076,5.206c-1.871,1.71-3.34,3.074-4.442,4.128l-1.719,1.635v-7.23c-0.031-3.583,0.41-5.913,0.805-6.46
	c0.393-0.63,1.199-1.164,2.764-1.429l1.038-0.173v-4.762h-31.288v4.762l1.039,0.173c1.575,0.265,2.377,0.799,2.771,1.435
	c0.39,0.54,0.828,2.868,0.799,6.453v35.893c0.029,3.592-0.409,5.915-0.803,6.466c-0.39,0.63-1.193,1.162-2.767,1.431l-1.039,0.173
	v4.759h1.243h30.045v-4.759l-1.036-0.173C316.138,274.091,315.333,273.56,314.936,272.921z"/>
<rect x="242.944" y="613.175" width="5.722" height="31.184"/>
<polygon points="328.678,613.175 322.976,613.175 322.976,644.361 342.63,644.361 342.63,639.123 328.678,639.123 "/>
<path d="M310.971,617.354c-0.915-1.367-2.034-2.382-3.391-3.098c-1.301-0.677-3.165-1.083-5.601-1.081h-11.663v31.186h11.663
	c1.38,0,2.995-0.269,4.831-0.858c1.121-0.36,2.217-1.08,3.321-2.286c1.083-1.188,1.951-2.681,2.596-4.539
	c0.614-1.742,0.975-4.452,0.969-8.029c0-2.238-0.225-4.338-0.672-6.313C312.586,620.4,311.896,618.763,310.971,617.354z
	 M307.186,635.406c-0.53,1.428-1.318,2.639-2.513,3.384c-1.288,0.78-2.838,0.976-4.851,0.992h-3.812V619.35v-1.621h3.853
	c2.602-0.022,4.899,0.813,6.281,2.683c1.369,1.927,1.784,4.651,1.811,8.445C307.947,631.713,307.75,633.81,307.186,635.406z"/>
<path d="M357,637.4c-1.313-1.988-1.719-4.809-1.744-8.771c0.011-3.232,0.396-5.706,1.426-7.577c1.24-2.336,3.512-3.791,6.075-3.742
	c1.157-0.005,2.289,0.292,3.28,0.894c0.95,0.583,1.753,1.411,2.351,2.393c0.228,0.368,0.416,0.767,0.584,1.21l4.757-1.259
	c-0.922-2.602-2.161-4.479-3.635-5.713c-1.721-1.441-4.153-2.24-7.551-2.244c-4.313,0.023-7.319,1.344-9.559,4.007
	c-2.222,2.653-3.444,6.627-3.446,12.103c0,4.09,0.701,7.336,1.985,9.767c1.346,2.552,2.88,4.191,4.501,5.075
	c1.668,0.914,3.97,1.434,6.935,1.433c2.402,0.002,4.269-0.419,5.639-1.157c1.422-0.752,2.608-1.856,3.613-3.413
	c0.807-1.247,1.461-2.782,1.945-4.629l-4.76-1.715c-0.42,1.502-0.997,2.776-1.795,3.819c-1.181,1.577-3.107,2.376-5.162,2.349
	C360.253,640.266,358.214,639.227,357,637.4z"/>
<polygon points="265.368,629.78 279.271,629.778 279.271,626 265.368,626 265.368,617.277 280.361,617.277 280.361,613.175 
	259.649,613.175 259.649,644.361 280.797,644.361 280.797,639.806 265.368,639.806 "/>
<path d="M229.441,627.258c-1.43-0.875-4.134-1.892-7.934-2.864c-1.698-0.452-2.848-0.773-3.776-1.702
	c-0.67-0.656-1.129-1.621-1.117-2.61c-0.015-1.138,0.454-2.28,1.254-3.054c0.934-0.945,2.227-1.275,3.507-1.269
	c1.547-0.011,3.032,0.462,4.104,1.517c0.757,0.757,1.251,1.713,1.566,2.818l5.271-0.364c-0.48-2.391-1.402-4.023-2.648-5.067
	c-1.532-1.305-3.933-2.072-7.414-2.072c-2.848-0.004-4.983,0.439-6.359,1.166c-1.492,0.779-2.507,1.763-3.217,3.043
	c-0.738,1.358-1.091,2.733-1.094,4.244c0.015,2.367,0.689,4.07,2.079,5.524c1.324,1.403,3.865,2.733,7.622,3.731
	c2.513,0.687,4.183,1.28,5.347,2.454c0.915,0.949,1.439,2.223,1.426,3.51c0.015,1.332-0.539,2.64-1.488,3.602
	c-1.051,1.092-2.554,1.573-4.111,1.561c-2.149,0.04-4.158-1.003-5.304-2.821c-0.538-0.832-0.897-1.801-1.133-2.918l-5.338,0.394
	c0.401,2.459,1.292,4.439,2.662,6.065c1.398,1.706,4.266,2.809,8.972,2.806c2.619,0,4.681-0.455,6.215-1.263
	c1.574-0.824,2.744-1.971,3.632-3.585c0.892-1.628,1.339-3.368,1.344-5.315c-0.003-1.659-0.339-3.092-0.988-4.376
	C231.91,629.199,230.926,628.161,229.441,627.258z"/>
<polygon points="389.068,629.78 402.977,629.78 402.977,626 389.068,626 389.068,617.277 404.06,617.277 404.06,613.175 
	383.347,613.175 383.347,644.359 404.497,644.359 404.497,639.806 389.068,639.806 "/>
<path d="M217.311,274.122c-1.143-1.783-1.471-4.576-1.502-8.824v-32.778l2.34-0.578l16.505,31.324l16.814-31.071l2.333,0.59v32.513
	c-0.035,4.336-0.325,7.126-1.477,8.893c-0.952,1.385-2.489,2.166-4.388,2.491v0.128h27.628v-0.228
	c-1.485-0.41-2.698-1.162-3.437-2.35c-0.918-1.572-1.141-3.982-1.172-7.769v-35.893c0.031-3.779,0.259-6.182,1.172-7.765
	c0.739-1.185,1.95-1.939,3.437-2.349v-0.225h-27.163v0.437c0.43,0.245,0.815,0.547,1.147,0.926c0.511,0.615,0.759,1.412,0.753,2.19
	c-0.05,1.09-0.555,2.033-1.424,3.566l-0.027,0.048l-0.035,0.05l-0.052,0.071l-8.211,14.827l-7.033-14.956
	c-0.378-0.793-0.68-1.494-0.874-2.078c-0.208-0.601-0.351-1.059-0.361-1.614c-0.01-0.778,0.277-1.572,0.782-2.127
	c0.32-0.38,0.703-0.673,1.126-0.908v-0.431h-28.612v0.225c1.485,0.409,2.698,1.163,3.439,2.354c0.914,1.581,1.137,3.982,1.168,7.761
	v35.893c-0.033,3.788-0.25,6.192-1.17,7.767c-0.739,1.192-1.954,1.944-3.437,2.353v0.227h16.234v-0.125
	C219.855,276.354,218.271,275.55,217.311,274.122z"/>
<path d="M312.826,274.227c-0.912-1.577-1.144-3.977-1.175-7.763v-18.912l4.718-3.189l0.722,0.838
	c4.071,4.734,7.352,9.631,9.853,14.674c2.496,5.039,3.8,9.077,3.811,12.326c-0.004,1.207-0.226,2.261-0.878,3.128
	c-0.475,0.584-1.102,0.966-1.819,1.215v0.266h26.698v-0.295c-3.527-1.27-6.063-4.998-7.988-10.69
	c-0.713-2.127-1.299-3.785-1.743-4.966c-2.31-5.983-4.863-11.116-7.682-15.375c-2.817-4.265-5.829-7.625-9.049-10.12l-1.195-0.926
	l5.31-4.618c3.204-2.838,6.522-5.102,9.932-6.793c2.96-1.48,5.727-2.39,8.318-2.707v-0.092h-24.413v0.294
	c0.735,0.259,1.378,0.613,1.919,1.11c0.758,0.705,1.16,1.731,1.146,2.755c-0.057,1.362-0.81,2.474-2.005,4.006
	c-1.218,1.504-2.982,3.312-5.328,5.473c-1.867,1.706-3.327,3.063-4.411,4.096l-3.814,3.633l-2.099-0.899v-10.127
	c0.031-3.779,0.263-6.182,1.179-7.767c0.742-1.185,1.95-1.937,3.429-2.346v-0.228h-26.32v0.227c1.483,0.409,2.695,1.163,3.439,2.355
	c0.91,1.577,1.137,3.979,1.168,7.759v35.893c-0.029,3.786-0.261,6.184-1.172,7.769c-0.741,1.189-1.953,1.941-3.435,2.35v0.228h26.32
	v-0.228C314.781,276.173,313.571,275.42,312.826,274.227z"/>
<path d="M386.555,266.185v-14.896l0.988-0.206c11.836-2.457,20.66-5.554,26.404-9.193c5.765-3.662,8.344-7.635,8.354-12.111
	c-0.042-3.211-1.164-5.151-3.616-6.52c-2.484-1.343-7.392-2.156-14.458-2.142h-39.387v0.224c1.484,0.411,2.696,1.163,3.447,2.358
	c0.901,1.579,1.129,3.976,1.16,7.759v35.891c-0.031,3.789-0.259,6.184-1.168,7.773c-0.744,1.187-1.956,1.938-3.44,2.348v0.228
	l28.519-0.002v-0.122c-2.215-0.321-3.919-0.958-5.078-2.2C386.891,273.649,386.61,270.813,386.555,266.185z M386.555,231.374
	c0.026-2.455,0.373-4.338,1.877-5.477c1.379-0.917,3.268-1.143,5.978-1.168c3.089,0.006,5.537,0.534,7.32,1.817
	c1.809,1.289,2.692,3.41,2.67,5.827c0.014,2.955-1.377,5.608-3.882,7.709c-2.503,2.115-6.569,4.152-12.288,6.294l-1.675,0.626
	V231.374z"/>
</svg>
