<?xml version="1.0" encoding="iso-8859-1"?>
<!-- Generator: Adobe Illustrator 24.0.1, SVG Export Plug-In . SVG Version: 6.00 Build 0)  -->
<svg version="1.1" id="Layer_1" xmlns="http://www.w3.org/2000/svg" xmlns:xlink="http://www.w3.org/1999/xlink" x="0px" y="0px"
	 viewBox="0 0 612 792" style="enable-background:new 0 0 612 792;" xml:space="preserve">
<path d="M487.845,113.7c-21.67,3.927-35.902,9.754-48.46,14.895c-16.426,6.725-30.613,12.533-56.867,12.533
	c-23.542,0-35.854-6.34-62.833-20.229l-12.192-6.252l-1.394,0.724l-10.783,5.528c-26.978,13.889-39.291,20.229-62.833,20.229
	c-26.255,0-40.441-5.808-56.868-12.533c-12.557-5.141-26.789-10.967-48.459-14.895l-1.713-0.31l-38.396,43.424l1.78,2.045
	c28.356,32.575,41.001,60.248,41.001,89.73c0,18.955-9.179,42.684-19.807,70.159c-14.731,38.085-33.066,85.483-33.066,138.585
	c0,43.578,19.662,89.885,50.09,117.974c34.247,31.611,77.207,43.362,111.727,52.804c20.037,5.479,37.342,10.214,48.302,17.534
	c7.559,5.05,13.287,13.365,17.512,25.422l2.915,8.323l2.916-8.323c4.225-12.057,9.952-20.372,17.512-25.422
	c10.96-7.32,28.265-12.055,48.301-17.534c34.52-9.441,77.482-21.192,111.727-52.804c30.43-28.089,50.091-74.395,50.091-117.974
	c0-53.102-18.334-100.5-33.065-138.585c-10.629-27.476-19.808-51.205-19.808-70.159c0-29.481,12.646-57.155,41.001-89.73
	l1.779-2.045l-38.395-43.424L487.845,113.7z"/>
<path style="fill:#FFFFFF;" d="M441.727,134.313c-16.322,6.683-31.738,12.994-59.21,12.994c-25.039,0-38.612-6.988-65.654-20.909
	c0,0-6.026-3.091-9.363-4.801c-2.139,1.097-9.36,4.799-9.36,4.799c-27.044,13.923-40.62,20.912-65.658,20.912
	c-27.471,0-42.888-6.311-59.211-12.994c-11.932-4.885-25.468-10.389-45.53-14.194c-3.705,4.19-27.021,30.559-32.498,36.754
	c28.143,32.891,40.764,61.276,40.764,91.716c0,20.108-9.37,44.334-20.225,72.395c-14.545,37.604-32.647,84.403-32.647,136.35
	c0,41.933,18.881,86.458,48.102,113.432c7.484,6.908,15.431,12.837,23.635,17.996l332.386-468.642
	C467.196,123.924,453.66,129.428,441.727,134.313z"/>
<path style="fill:#009A4E;" d="M478.993,248.589c0-30.439,12.62-58.825,40.763-91.716c-5.478-6.195-28.793-32.564-32.499-36.754
	L154.871,588.761c28.125,17.68,59.309,26.217,85.53,33.389c20.554,5.622,38.306,10.475,50.104,18.355
	c7.045,4.706,12.629,11.751,16.995,21.326c4.365-9.575,9.949-16.62,16.997-21.326c11.797-7.879,29.548-12.733,50.101-18.355
	c33.873-9.265,76.027-20.795,109.166-51.385c29.222-26.974,48.103-71.499,48.103-113.432c0-51.942-18.103-98.742-32.65-136.355
	C488.365,292.925,478.993,268.698,478.993,248.589z"/>
<path style="fill:#983228;" d="M255.675,216.675v-26.05h8.514l5.112,17.769l5.043-17.769h8.54v26.05h-5.279l-0.022-20.506
	l-5.593,20.506h-5.445l-5.571-20.506l-0.021,20.506H255.675z"/>
<path style="fill:#983228;" d="M299.078,216.675v-26.05h5.665v11.581l11.547-11.581h7.657l-10.651,10.143l11.21,15.907h-7.358
	l-7.786-12.243l-4.619,4.372v7.871H299.078z"/>
<path style="fill:#983228;" d="M336.45,208.178l5.536-0.515c0.333,1.712,1.008,2.971,2.026,3.774
	c1.018,0.803,2.389,1.205,4.118,1.205c1.829,0,3.21-0.358,4.138-1.072c0.929-0.715,1.392-1.551,1.392-2.509
	c0-0.614-0.195-1.136-0.585-1.568c-0.388-0.431-1.068-0.807-2.038-1.126c-0.664-0.213-2.175-0.592-4.535-1.137
	c-3.038-0.699-5.17-1.557-6.394-2.575c-1.723-1.432-2.585-3.178-2.585-5.238c0-1.326,0.404-2.566,1.214-3.72
	c0.811-1.154,1.977-2.033,3.502-2.637c1.523-0.604,3.363-0.906,5.518-0.906c3.521,0,6.17,0.717,7.949,2.152
	c1.777,1.435,2.713,3.35,2.803,5.745l-5.665,0.215c-0.241-1.342-0.759-2.307-1.553-2.895c-0.794-0.587-1.984-0.881-3.572-0.881
	c-1.64,0-2.923,0.315-3.85,0.943c-0.598,0.404-0.896,0.944-0.896,1.62c0,0.618,0.279,1.146,0.841,1.585
	c0.713,0.558,2.446,1.14,5.196,1.743c2.75,0.604,4.783,1.229,6.103,1.877c1.318,0.648,2.35,1.533,3.094,2.656
	c0.746,1.123,1.118,2.51,1.118,4.161c0,1.498-0.447,2.899-1.343,4.206c-0.897,1.308-2.162,2.278-3.801,2.914
	c-1.638,0.636-3.678,0.954-6.12,0.954c-3.557,0-6.289-0.764-8.194-2.291C337.96,213.329,336.82,211.103,336.45,208.178z"/>
<path style="fill:#983228;" d="M252.224,256.244l5.536-0.515c0.333,1.713,1.007,2.971,2.025,3.774
	c1.018,0.804,2.39,1.205,4.119,1.205c1.83,0,3.209-0.358,4.137-1.072c0.928-0.715,1.393-1.551,1.393-2.509
	c0-0.614-0.196-1.136-0.585-1.568c-0.389-0.432-1.069-0.807-2.039-1.126c-0.664-0.213-2.175-0.592-4.536-1.137
	c-3.038-0.699-5.169-1.557-6.393-2.575c-1.724-1.433-2.584-3.179-2.584-5.239c0-1.325,0.404-2.565,1.214-3.72
	c0.81-1.154,1.977-2.033,3.502-2.637c1.523-0.604,3.364-0.906,5.519-0.906c3.521,0,6.169,0.718,7.949,2.152
	c1.778,1.435,2.713,3.349,2.803,5.745l-5.664,0.214c-0.242-1.342-0.759-2.307-1.553-2.895c-0.794-0.587-1.985-0.882-3.573-0.882
	c-1.639,0-2.922,0.315-3.849,0.943c-0.598,0.404-0.896,0.944-0.896,1.62c0,0.618,0.279,1.146,0.84,1.585
	c0.713,0.558,2.446,1.14,5.197,1.743c2.75,0.604,4.784,1.229,6.102,1.877c1.318,0.647,2.35,1.532,3.094,2.655
	c0.746,1.123,1.118,2.511,1.118,4.161c0,1.498-0.448,2.899-1.344,4.207c-0.896,1.308-2.162,2.279-3.799,2.914
	c-1.638,0.636-3.679,0.954-6.121,0.954c-3.557,0-6.289-0.764-8.194-2.292C253.733,261.395,252.594,259.169,252.224,256.244z"/>
<path style="fill:#983228;" d="M294.232,264.742l-6.462-18.883h5.25l3.827,12.375l3.518-12.375h5.198l3.387,12.375l3.893-12.375
	h5.313l-6.539,18.883h-5.173l-3.502-12.144l-3.46,12.144H294.232z"/>
<path style="fill:#983228;" d="M331.537,243.326v-4.635h5.407v4.635H331.537z M331.537,264.742v-18.883h5.407v18.883H331.537z"/>
<path style="fill:#983228;" d="M362.347,245.858v3.991h-3.69v7.651c0,1.549,0.035,2.452,0.104,2.708
	c0.07,0.256,0.23,0.468,0.48,0.634c0.249,0.168,0.554,0.25,0.913,0.25c0.499,0,1.224-0.16,2.171-0.479l0.451,3.857
	c-1.253,0.495-2.672,0.743-4.256,0.743c-0.973,0-1.848-0.152-2.627-0.455c-0.78-0.303-1.353-0.694-1.715-1.176
	c-0.365-0.482-0.617-1.132-0.759-1.952c-0.115-0.582-0.171-1.758-0.171-3.529v-8.252h-2.489v-3.991h2.489v-3.733l5.407-2.919v6.652
	H362.347z"/>
<path style="fill:#983228;" d="M261.576,237.001l2.704-5.321h6.008l-5.322,5.321H261.576z"/>
<path style="fill:#FFE73F;" d="M479.165,514.036c-12.065-13.885-30.471-19.386-53.693-16.941l-0.392-0.36
	c23.183-4.149,39.424-14.642,47.13-31.459c-14.104,5.574-37.031,9.729-56.652-0.984c21.072-10.513,33.7-25.156,36.355-43.461
	c-11.963,9.324-32.791,19.768-54.635,15.017c17.255-16.024,25.245-33.63,22.638-51.941c-8.853,12.315-25.895,28.203-48.192,29.8
	c12.041-20.236,14.747-39.381,7.087-56.215c-5.023,14.31-16.898,34.356-37.841,42.169c5.85-22.809,3.055-41.941-9.04-55.935
	c-0.788,15.147-6.536,37.727-24.43,51.123c-0.813-23.533-8.885-41.103-24.431-51.123c3.51,14.755,4.358,38.04-9.037,55.935
	c-7.409-22.351-20.104-36.935-37.845-42.168c7.525,13.168,14.898,35.271,7.087,56.214c-13.406-19.358-29.696-29.774-48.191-29.799
	c10.93,10.515,24.232,29.646,22.638,51.94c-18.318-14.797-36.882-20.203-54.635-15.014c13.45,7.009,31.604,21.617,36.354,43.458
	c-21.743-9.036-41.079-8.992-56.652,0.987c14.879,2.936,36.413,11.839,47.124,31.455c-23.408-2.549-41.947,2.944-54.078,16.906
	L479.165,514.036z"/>
<path style="fill:#983228;" d="M271.09,478.928h-6.78v-25.591c-2.476,2.326-5.394,4.047-8.755,5.162v-6.18
	c1.769-0.578,3.69-1.673,5.766-3.285c2.073-1.612,3.498-3.492,4.271-5.642h5.499V478.928z"/>
<path style="fill:#983228;" d="M281.172,470.727l6.609-0.726c0.158,1.341,0.571,2.333,1.239,2.979c0.668,0.647,1.55,0.97,2.647,0.97
	c1.383,0,2.559-0.649,3.528-1.947c0.97-1.299,1.589-3.986,1.86-8.061c-1.701,1.979-3.825,2.971-6.373,2.971
	c-2.775,0-5.169-1.071-7.181-3.214c-2.012-2.143-3.017-4.93-3.017-8.365c0-3.578,1.065-6.462,3.194-8.654
	c2.13-2.19,4.841-3.285,8.137-3.285c3.583,0,6.526,1.391,8.825,4.17c2.298,2.782,3.449,7.355,3.449,13.723
	c0,6.48-1.199,11.156-3.593,14.024c-2.394,2.87-5.511,4.305-9.349,4.305c-2.764,0-4.997-0.742-6.7-2.228
	C282.746,475.901,281.654,473.682,281.172,470.727z M296.45,455.901c0-2.17-0.499-3.853-1.494-5.049
	c-0.995-1.196-2.146-1.795-3.452-1.795c-1.242,0-2.273,0.49-3.094,1.472c-0.821,0.982-1.229,2.589-1.229,4.822
	c0,2.266,0.445,3.929,1.337,4.989c0.892,1.062,2.008,1.592,3.346,1.592c1.29,0,2.376-0.51,3.26-1.532
	C296.008,459.38,296.45,457.881,296.45,455.901z"/>
<path style="fill:#983228;" d="M308.077,469.593l6.608-0.794c0.207,1.669,0.762,2.943,1.669,3.826
	c0.906,0.883,2.003,1.324,3.291,1.324c1.381,0,2.545-0.53,3.492-1.59c0.946-1.059,1.419-2.487,1.419-4.288
	c0-1.7-0.451-3.049-1.354-4.045c-0.904-0.994-2.004-1.493-3.305-1.493c-0.855,0-1.878,0.168-3.065,0.506l0.742-5.484
	c1.821,0.049,3.211-0.35,4.171-1.197c0.958-0.848,1.439-1.973,1.439-3.378c0-1.195-0.354-2.146-1.06-2.856
	c-0.706-0.711-1.645-1.065-2.814-1.065c-1.155,0-2.143,0.402-2.961,1.203c-0.818,0.804-1.314,1.977-1.491,3.518l-6.266-1.061
	c0.435-2.158,1.089-3.884,1.963-5.173c0.875-1.291,2.098-2.306,3.664-3.045c1.566-0.737,3.321-1.108,5.266-1.108
	c3.323,0,5.989,1.068,7.998,3.203c1.655,1.749,2.482,3.724,2.482,5.923c0,3.125-1.69,5.617-5.072,7.478
	c2.007,0.435,3.61,1.407,4.814,2.919c1.202,1.513,1.803,3.338,1.803,5.477c0,3.105-1.132,5.751-3.393,7.94
	c-2.262,2.189-5.075,3.282-8.444,3.282c-3.191,0-5.836-0.923-7.937-2.772C309.633,474.995,308.415,472.577,308.077,469.593z"/>
<path style="fill:#983228;" d="M335.669,469.93l6.781-0.701c0.192,1.53,0.762,2.743,1.708,3.637
	c0.947,0.895,2.041,1.341,3.278,1.341c1.41,0,2.607-0.583,3.586-1.752c0.979-1.168,1.47-2.927,1.47-5.279
	c0-2.205-0.493-3.86-1.483-4.963c-0.989-1.102-2.274-1.652-3.859-1.652c-1.977,0-3.75,0.858-5.319,2.574l-5.475-0.794l3.52-18.433
	h18.024v6.353h-12.888l-1.141,5.999c1.526-0.737,3.085-1.107,4.678-1.107c3.039,0,5.614,1.102,7.728,3.307
	c2.11,2.205,3.167,5.067,3.167,8.583c0,2.935-0.845,5.555-2.531,7.855c-2.299,3.146-5.491,4.718-9.573,4.718
	c-3.265,0-5.926-0.875-7.982-2.627C337.3,475.237,336.071,472.885,335.669,469.93z"/>
</svg>
