<?xml version="1.0" encoding="iso-8859-1"?>
<!-- Generator: Adobe Illustrator 24.0.1, SVG Export Plug-In . SVG Version: 6.00 Build 0)  -->
<svg version="1.1" id="Layer_1" xmlns="http://www.w3.org/2000/svg" xmlns:xlink="http://www.w3.org/1999/xlink" x="0px" y="0px"
	 viewBox="0 0 612 792" style="enable-background:new 0 0 612 792;" xml:space="preserve">
<path style="fill:#034EA2;" d="M306.576,679.552c-24.408-20.88-51.696-36-80.28-50.256c-5.832-2.952-11.592-5.76-17.28-8.568
	c-74.808-36.72-129.744-63.72-109.656-168.12c10.368-54,6.624-100.656-24.696-147.384c15.912-43.416,14.256-78.912-3.6-121.464
	c48.888-11.016,79.92-26.496,105.192-71.136c21.816,10.368,43.056,17.568,67.032,21.24c34.704,5.256,91.872,5.256,126.576,0
	c23.976-3.672,45.216-10.872,67.032-21.24c25.272,44.64,56.304,60.12,105.192,71.136c-17.856,42.552-19.512,78.048-3.6,121.464
	c-31.32,46.728-35.064,93.384-24.696,147.384c20.088,104.4-34.848,131.4-109.656,168.12c-5.688,2.808-11.448,5.616-17.28,8.568
	C358.272,643.552,330.984,658.672,306.576,679.552z"/>
<path style="fill:#FFFFFF;" d="M518.76,297.52c-10.44-33.696-10.512-68.976,1.296-102.312
	c-37.224-9.936-68.832-28.728-89.712-61.704c-18.936,8.136-38.376,13.32-58.032,16.344c-39.96,6.12-91.512,6.048-131.472,0
	c-19.656-3.024-39.096-8.208-58.032-16.344c-20.88,32.976-52.488,51.768-89.712,61.704c11.808,33.336,11.736,68.616,1.296,102.312
	H518.76z"/>
<path style="fill:#FFFFFF;" d="M233.28,313.72H98.928c24.768,44.784,25.776,92.736,16.272,141.912
	c-17.712,92.304,32.544,116.928,100.872,150.552c5.616,2.736,11.304,5.544,17.208,8.496V313.72z"/>
<path style="fill:#ED1C24;" d="M379.872,614.68c5.904-2.952,11.592-5.76,17.208-8.496c68.328-33.624,118.584-58.248,100.872-150.552
	c-9.504-49.176-8.496-97.128,16.272-141.912H379.872V614.68z"/>
<path style="fill:#ED1C24;" d="M192.528,220.552c0,2.232,0.216,4.464,0.72,6.696c0.432,2.16,1.08,4.32,2.016,6.336
	c0.792,1.872,1.728,3.384,2.736,4.392c1.08,1.008,2.16,1.512,3.312,1.512c0.72,0,1.44-0.216,2.16-0.72
	c0.72-0.432,1.368-1.08,1.944-1.872c1.44-2.232,2.52-4.752,3.312-7.488c0.792-2.808,1.224-5.616,1.224-8.496
	c0-3.168-0.648-5.4-1.944-6.696c-1.296-1.296-3.528-1.872-6.696-1.872c-3.24,0-5.472,0.576-6.768,1.872
	C193.176,215.44,192.528,217.6,192.528,220.552L192.528,220.552z M201.312,201.4c7.416,0,12.816,1.512,16.272,4.464
	c3.528,2.952,5.256,7.632,5.256,13.968c0,4.392-0.72,8.712-2.088,12.888c-1.44,4.176-3.384,7.776-5.832,10.8
	c-1.872,2.376-3.96,4.104-6.192,5.184c-2.232,1.152-4.752,1.728-7.416,1.728c-2.808,0-5.328-0.576-7.56-1.728
	c-2.232-1.152-4.32-2.88-6.192-5.184c-2.52-3.024-4.464-6.624-5.832-10.8c-1.368-4.176-2.088-8.496-2.088-12.888
	c0-6.336,1.728-10.944,5.256-13.968C188.424,202.912,193.824,201.4,201.312,201.4z"/>
<path style="fill:#ED1C24;" d="M231.984,214.576h12.744v34.632h-12.744V214.576L231.984,214.576z M259.848,228.976
	c3.384-2.16,5.904-4.392,7.56-6.912c1.727-2.448,2.52-5.184,2.52-8.064c0-3.816-1.296-6.768-3.96-8.856
	c-2.592-2.088-6.336-3.168-11.088-3.168h-22.248l-2.88,10.656h22.608c1.152,0,2.088,0.216,2.736,0.792
	c0.576,0.504,0.936,1.224,0.936,2.088c0,1.44-0.864,3.096-2.664,4.896c-1.8,1.872-4.536,3.96-8.352,6.408
	c2.664,5.904,5.472,11.304,8.496,16.128c3.024,4.824,6.336,9.216,9.936,13.176l10.08-7.488c-2.448-2.592-4.896-5.544-7.128-8.856
	C264.096,236.536,261.936,232.936,259.848,228.976z"/>
<polygon style="fill:#ED1C24;" points="279.576,201.976 292.32,201.976 292.32,237.688 308.736,237.688 305.568,249.208 
	279.576,249.208 "/>
<polygon style="fill:#ED1C24;" points="379.368,249.208 366.624,249.208 366.624,212.992 353.376,212.992 356.184,201.976 
	389.808,201.976 392.616,212.992 379.368,212.992 "/>
<path style="fill:#ED1C24;" d="M423,201.976h7.632l2.88,10.656h-9.648c-4.68,0-8.352,0.864-11.088,2.592
	c-2.736,1.656-4.752,4.392-6.12,8.208h12.096v-8.856h12.816v34.632h-12.816v-14.904H405.36c0.144,2.592,0.576,5.112,1.44,7.56
	c0.792,2.52,1.944,4.968,3.456,7.344l-10.152,6.624c-2.52-3.888-4.464-7.776-5.76-11.664c-1.224-3.888-1.872-7.848-1.872-11.88
	c0-4.464,0.72-8.712,2.232-12.672c1.512-3.96,3.672-7.272,6.408-10.008c2.592-2.592,5.688-4.464,9.288-5.76
	C414,202.624,418.176,201.976,423,201.976z"/>
<path style="fill:#ED1C24;" d="M347.832,212.488h-19.08v7.344h17.424l-3.168,10.656h-14.256v8.064h20.664l-3.456,10.656h-8.424
	c-0.648,2.952,1.008,4.752,5.112,5.328l-3.24,7.56c-7.992-1.44-12.096-4.896-10.224-12.888h-13.176v-47.232h28.944L347.832,212.488z
	"/>
</svg>
