<?xml version="1.0" encoding="iso-8859-1"?>
<!-- Generator: Adobe Illustrator 24.0.1, SVG Export Plug-In . SVG Version: 6.00 Build 0)  -->
<svg version="1.1" id="Layer_1" xmlns="http://www.w3.org/2000/svg" xmlns:xlink="http://www.w3.org/1999/xlink" x="0px" y="0px"
	 viewBox="0 0 612 792" style="enable-background:new 0 0 612 792;" xml:space="preserve">
<ellipse transform="matrix(0.7071 -0.7071 0.7071 0.7071 -190.2824 332.7935)" cx="306.576" cy="396.088" rx="283.464" ry="283.464"/>
<path style="fill:#00AEEF;" d="M278.784,281.536c7.776,20.88,38.52,36.144,60.984,47.16c2.88,1.44,5.688,2.808,8.208,4.104
	c34.632,17.568,72.216,35.64,99.288,61.128c27.648,25.92,44.064,59.256,35.28,106.56c-6.624,35.424-26.424,62.64-52.704,82.008
	c-30.384,22.392-69.48,34.272-107.064,36.288c-33.84,1.872-66.384-4.608-97.128-18c-31.32-13.536-60.768-34.2-87.984-60.408
	l-32.112,29.952l-3.456,3.168l-3.024-3.6c-4.68-5.544-9.144-11.376-13.464-17.424c-4.248-6.048-8.28-12.168-12.024-18.504
	l-1.728-2.952l2.376-2.448L189.72,412.216l3.312-3.312l3.168,3.456l23.616,25.704l2.736,3.024l-2.736,3.024
	c-9.72,10.512-13.392,23.112-12.6,35.136c0.936,13.464,7.488,26.28,17.424,34.848c1.512,1.296,3.096,2.52,4.68,3.528
	c9.72,6.336,20.88,8.064,31.464,6.048c10.728-2.016,20.88-7.776,28.296-16.416c2.448-2.88,4.536-5.976,6.336-9.288
	c5.112-9.72,7.128-21.024,4.68-31.968c-2.52-10.944-9.576-21.6-22.608-30.096c-1.8-1.152-3.816-2.376-5.976-3.528
	c-11.52-6.048-23.04-11.016-34.344-15.84c-12.528-5.328-24.768-10.584-36.36-17.064c-3.816-2.16-7.416-4.32-10.8-6.696
	c-23.544-16.416-40.68-39.888-48.24-65.808c-7.632-25.992-5.616-54.504,9.144-80.784c1.872-3.312,3.816-6.408,5.976-9.432
	c21.24-30.456,56.016-50.688,94.032-60.408c40.896-10.512,85.608-9,121.464,4.753c11.52,4.392,23.112,9.648,34.704,15.768
	c10.584,5.616,21.096,11.952,31.536,19.152l29.664-31.896l2.88-3.024l3.168,2.592c5.184,4.032,10.224,8.352,15.192,12.96
	c4.968,4.536,9.648,9.216,14.256,14.04l3.024,3.168l-3.168,3.096L386.712,332.584l-3.24,3.168l-3.096-3.24l-22.896-23.616
	l-2.664-2.808l2.304-3.024c1.296-1.728,2.448-3.456,3.456-4.968c7.559-12.312,9.936-25.848,7.92-38.16
	c-1.944-12.24-8.136-23.184-17.64-30.456c-1.224-0.936-2.376-1.728-3.456-2.376c-10.152-6.264-20.52-8.352-30.096-7.344
	c-9.072,1.008-17.424,4.824-24.264,10.512c-6.912,5.688-12.168,13.32-14.904,21.816C275.184,261.16,275.04,271.384,278.784,281.536z
	"/>
<path style="fill:#FFFFFF;" d="M270.432,284.632c-4.464-12.168-4.32-24.336-0.792-35.28c3.312-10.152,9.504-19.224,17.64-25.992
	c8.136-6.768,18.216-11.232,29.088-12.456c11.448-1.224,23.76,1.224,35.712,8.64c1.584,0.936,2.952,1.872,4.176,2.808
	c11.376,8.64,18.792,21.744,21.024,36.144c2.304,14.328-0.432,30.096-9.144,44.28c-0.504,0.864-1.079,1.728-1.656,2.592
	l17.136,17.712L494.28,213.712c-3.456-3.6-7.056-7.128-10.728-10.512c-3.744-3.384-7.56-6.696-11.52-9.936l-29.52,31.608
	l-2.664,2.88l-3.168-2.232c-11.232-7.92-22.464-14.76-33.696-20.736c-11.304-5.976-22.536-11.088-33.84-15.336
	c-34.128-13.104-76.824-14.544-116.064-4.464c-36.072,9.288-68.904,28.296-88.92,56.88c-2.016,2.88-3.816,5.831-5.472,8.64
	c-13.536,24.12-15.336,50.184-8.352,73.944c6.984,23.976,22.896,45.72,44.784,60.984c3.312,2.304,6.696,4.464,10.08,6.336
	c11.16,6.264,23.184,11.376,35.496,16.632c11.52,4.896,23.328,9.936,34.992,16.056c2.232,1.224,4.464,2.52,6.624,3.96
	c15.192,9.936,23.472,22.536,26.424,35.64c2.952,13.104,0.576,26.568-5.472,38.088c-2.016,3.888-4.536,7.56-7.416,10.872
	c-8.784,10.296-20.736,17.064-33.408,19.44c-12.744,2.376-26.208,0.288-37.944-7.344c-1.944-1.296-3.816-2.664-5.616-4.247
	c-11.808-10.08-19.512-25.2-20.592-41.04c-0.864-13.104,2.736-26.784,12.24-38.592l-17.784-19.44L83.016,532.384
	c3.168,5.112,6.408,10.08,9.864,14.904c3.168,4.536,6.552,8.928,10.08,13.248l31.68-29.592l3.168-2.952l3.024,3.024
	c27.288,26.856,56.88,47.952,88.344,61.56c29.448,12.816,60.696,19.08,93.096,17.28c36.072-1.944,73.44-13.248,102.24-34.56
	c24.624-18.072,43.056-43.488,49.248-76.392c8.136-43.776-7.056-74.52-32.616-98.568c-26.064-24.408-63.072-42.264-97.128-59.544
	c-2.592-1.296-5.328-2.664-8.208-4.104C312.048,324.952,279.432,308.896,270.432,284.632z"/>
<path style="fill:#00AEEF;" d="M262.08,287.728c-4.968-13.32-5.328-27.576-0.936-41.112c3.816-11.736,10.944-22.176,20.448-30.096
	c9.576-7.992,21.528-13.104,33.84-14.472c6.84-0.72,13.968-0.288,21.24,1.44c17.28,4.176,32.112,14.688,41.112,30.168
	c12.672,21.672,11.88,48.672-0.144,70.416l6.12,6.336l97.848-96.768c-1.296-1.224-2.664-2.52-4.104-3.888
	c-1.656-1.512-3.24-2.952-4.752-4.248c-10.584,11.376-21.168,22.68-31.68,34.056c-8.568-6.048-16.992-12.096-25.92-17.568h0.072
	c-15.624-9.576-32.112-17.712-49.248-24.264c-16.056-6.12-34.2-9.576-52.992-10.296c-19.08-0.72-38.88,1.368-57.672,6.192
	c-17.712,4.536-34.632,11.592-49.464,21.096c-25.776,16.488-46.512,41.616-50.04,72.792c-1.368,11.736-0.216,23.328,3.024,34.488
	c3.24,10.944,8.568,21.456,15.552,30.96c13.968,19.08,31.104,29.952,51.84,39.456c5.472,2.52,11.664,5.04,17.928,7.776
	c5.976,2.52,12.024,5.04,17.64,7.632c6.12,2.736,12.168,5.616,18.072,8.784c1.08,0.576,2.304,1.296,3.672,2.088
	c1.08,0.648,2.304,1.368,3.672,2.232c8.208,5.4,14.688,11.52,19.512,18.144c5.4,7.271,8.856,15.048,10.728,23.04
	c1.656,7.488,1.872,15.048,0.792,22.392c-2.88,20.304-15.336,38.52-33.048,48.816c-13.248,7.776-29.088,10.8-44.28,7.92
	c-19.584-3.816-35.568-17.208-44.352-34.848c-4.032-8.064-6.552-16.92-7.2-25.992c-0.504-7.776,0.36-15.84,2.808-23.688
	c1.656-5.04,3.888-10.008,6.912-14.76l-6.624-7.2l-98.064,98.856c3.024,4.68,6.264,9.288,9.576,13.752l33.984-31.68
	c16.2,15.984,32.472,31.104,51.264,44.208c14.112,9.792,28.584,18.072,43.488,24.48c14.4,6.264,29.16,10.872,44.208,13.68
	c32.328,6.048,66.672,3.384,97.92-7.128c15.984-5.472,31.176-13.032,44.424-22.752c11.952-8.784,22.248-19.368,30.24-31.752
	c16.704-25.992,23.04-61.776,12.24-91.08c-5.472-14.76-14.904-27.36-26.712-38.448c-28.872-27.144-67.536-44.64-103.104-62.208
	c-12.24-5.976-26.64-13.104-39.384-21.96C278.928,313.216,267.336,301.84,262.08,287.728z"/>
<path style="fill:#FFFFFF;" d="M513.72,221.776c39.744,47.16,63.791,108.072,63.791,174.312
	c0,149.184-121.752,270.936-270.935,270.936c-77.688,0-147.96-33.048-197.496-85.824l3.024-2.808l33.12-30.96
	c7.56,6.912,15.336,13.464,23.256,19.44c20.088,17.424,40.896,32.112,63.72,42.048c30.744,13.32,63.288,19.8,97.128,18
	c37.584-2.016,76.68-13.968,107.064-36.288c26.28-19.44,46.08-46.656,52.704-82.008c7.704-41.328-3.888-72-25.272-96.408
	c-4.896-6.48-10.44-12.6-16.56-18.288c-27.072-25.488-64.656-43.56-99.288-61.128c-2.52-1.296-5.328-2.664-8.208-4.104
	c-16.632-8.136-37.8-18.648-50.832-32.04c-8.496-13.104-8.568-29.304-1.8-42.408c14.76-28.584,52.848-33.408,74.304-13.176
	c3.6,5.616,5.976,12.024,7.056,18.864c2.016,12.312-0.36,25.848-7.92,38.16c-1.008,1.512-2.16,3.24-3.456,4.968l-2.304,3.024
	l2.664,2.808l22.896,23.616l0.72,0.792l9.144,10.08l3.024-2.736l117-115.632L513.72,221.776z"/>
<path style="fill:#FFFFFF;" d="M306.576,125.152c61.776,0,118.872,20.88,164.52,56.016l-2.808,2.952l-29.664,31.896
	c-10.44-7.2-20.952-13.536-31.536-19.152c-11.592-6.12-23.184-11.376-34.704-15.768c-35.856-13.752-80.568-15.264-121.464-4.753
	c-38.016,9.72-72.792,29.952-94.032,60.408c-2.16,3.024-4.104,6.12-5.976,9.432c-14.76,26.28-16.776,54.792-9.144,80.784
	c7.56,25.92,24.696,49.392,48.24,65.808c3.384,2.376,6.984,4.536,10.8,6.696c11.592,6.48,23.832,11.736,36.36,17.064
	c11.304,4.824,22.824,9.792,34.344,15.84c2.16,1.152,4.176,2.376,5.976,3.528c13.032,8.496,20.088,19.152,22.608,30.096
	c2.448,10.944,0.432,22.248-4.68,31.968c-1.8,3.312-3.888,6.408-6.336,9.288c-7.416,8.64-17.568,14.4-28.296,16.416
	c-10.584,2.016-21.744,0.288-31.464-6.048c-10.44-6.768-14.688-18.144-15.552-30.312c-0.792-12.024,2.88-24.552,12.6-35.064
	l2.736-3.024l-6.552-8.136l-2.736-3.024L196.2,412.36l-3.168-3.456l-3.312,3.312L74.232,528.568l-2.376,2.448
	C48.816,491.272,35.64,445.12,35.64,396.088C35.64,246.904,157.392,125.152,306.576,125.152z"/>
<path d="M165.096,317.248h53.28l-6.768,18.072h-38.232c-8.64,0-5.256,4.824-0.288,8.28L198,361.168
	c24.336,15.912,13.032,38.016-13.248,37.152h-66.456l6.768-18H171c8.136,0,10.08-3.528,3.384-8.784l-20.16-14.76
	C137.592,343.888,141.48,317.248,165.096,317.248z"/>
<path d="M297.648,314.296c7.416-3.456,14.976-2.88,17.064,1.368c2.088,4.176-2.232,10.44-9.576,13.896
	c-7.344,3.456-15.048,2.88-17.136-1.368C285.984,324.016,290.304,317.752,297.648,314.296z"/>
<path d="M337.896,357.856l15.192-40.608h-24.912l-7.848,20.952c-2.592,7.056-5.904,16.776-11.88,22.824
	c-9.576,9.576-19.08,13.248-11.088-3.888l6.984-18.72h-44.28l7.92-21.168H240.12l-7.92,21.168h-21.744l-5.76,15.624h21.744
	l-8.712,23.4c-5.328,13.968,1.224,20.52,10.656,21.168c10.944,0.72,22.896-6.624,30.744-13.68
	c6.192,27.216,32.76,6.984,45.576-4.608c-3.672,29.52,21.528,18.504,42.84,2.592c0.144,1.944,0.504,3.744,1.224,5.472
	c4.032,10.368,17.424,13.32,31.824,7.848c15.048-5.688,28.368-18.864,41.832-27.72l-11.16,29.808h24.912l12.24-32.832
	c6.264-6.984,25.2-16.344,17.424,4.392l-10.656,28.44h26.352l-1.584,4.392H116.64l-4.608,12.456h377.784l11.304-30.744h-18.216
	l9.576-25.776c2.52-6.768,2.232-15.912-5.904-18.864c-7.848-2.88-20.376,2.088-31.608,8.28l3.6-9.648h-24.912
	c-7.056,6.912-14.688,13.608-21.816,18.288c-0.792-7.848-3.744-12.888-12.168-15.12c-7.776-2.16-18.288-0.288-28.44,5.76
	c-7.128,4.248-13.896,10.08-20.736,14.832c-3.6,2.52-6.624,5.328-9.72,5.904C334.512,369.304,335.304,362.896,337.896,357.856
	L337.896,357.856z M272.52,354.04c-2.304,4.896-4.536,8.208-10.44,12.816c-7.488,5.904-16.776,11.088-12.6-0.072l4.752-12.744
	H272.52L272.52,354.04z M378.792,358.576c6.264-3.744,12.744-3.024,14.616,1.44c4.176,10.296-18.648,23.904-22.824,13.608
	C368.712,369.16,372.528,362.32,378.792,358.576z"/>
</svg>
