<svg fill-rule="evenodd" height="1000" viewBox="0 0 1000 1000" width="1000" xmlns="http://www.w3.org/2000/svg"><g transform="matrix(1.4512351 0 0 1.4512351 56.000384 -108.22589)"><path d="m459.654 94.8122-7.972 7.5168.001.001c-.502.474-15.887 14.664-42.642 28.612-26.834 13.996-64.969 27.728-111.261 27.723-46.292.005-84.426-13.727-111.26-27.723-26.755-13.948-42.14-28.138-42.642-28.612l.001-.001-7.973-7.5168-114.9792 121.0298h.0004l4.9659 7.33s.0019 0 .0595.087c1.8785 2.657 38.8628 59.937 38.7134 130.408-.0019 18.46-1.3721 32.085-3.3633 43.064-2.9897 16.453-7.417 27.189-11.6162 40.342-4.1963 13.102-7.7285 28.284-7.688 50.592-.0131 36.477 9.0088 66.958 21.8916 91.53 12.877 24.591 29.5205 43.305 44.7499 56.907 27.984 24.872 62.449 36.441 94.912 49.381 16.266 6.441 32.097 13.157 46.626 21.647 14.539 8.498 27.766 18.703 39.183 32.279l8.419 10.018 8.419-10.018c11.418-13.576 24.645-23.781 39.184-32.279 14.528-8.49 30.36-15.206 46.626-21.647 32.463-12.94 66.927-24.509 94.912-49.381 15.229-13.602 31.873-32.316 44.75-56.907 12.883-24.572 21.904-55.053 21.891-91.53.04-22.308-3.492-37.49-7.688-50.592-4.199-13.153-8.626-23.889-11.616-40.342-1.991-10.979-3.362-24.604-3.364-43.064-.149-70.471 36.835-127.751 38.714-130.408.058-.087.06-.087.06-.087l4.966-7.33z" fill="#f9e92c"/><path d="m137.187 125.405c7.691 6.04 20.499 15.174 37.778 24.32 29.2 15.443 71.313 30.937 122.815 30.941 51.504-.004 93.616-15.498 122.815-30.941 17.279-9.146 30.089-18.281 37.78-24.321l38.474 40.5-199.068 234.594-199.0681-234.594z" fill="#e2252a"/><path d="m83.3804 568.991c-11.3701-21.751-19.3662-48.467-19.3809-81.326.0962-26.89 4.9981-38.909 10.7632-56.256 2.8848-8.602 5.936-18.338 8.1841-30.745 2.2588-12.415 3.7221-27.458 3.7202-46.997-.1314-64.308-26.8316-116.343-37.8721-135.218l38.1406-40.148 199.6975 235.335-169.754 200.049c-11.789-11.529-23.8829-26.318-33.4986-44.694z" fill="#28345f"/><path d="m383.907 665.029c-16.568 6.57-33.454 13.668-49.619 23.104-12.855 7.503-25.26 16.522-36.507 27.891-11.249-11.369-23.653-20.388-36.509-27.891-24.255-14.139-50.093-23.084-74.131-32.744-21.289-8.515-41.051-17.552-57.531-30.433l168.17-198.183 168.18 198.193c-22.678 17.743-51.73 28.128-82.053 40.063z" fill="#e2252a"/><path d="m508.894 353.667c0 19.539 1.463 34.582 3.72 46.997 3.387 18.64 8.522 31.14 12.291 43.07 3.772 11.986 6.614 23.741 6.657 43.931-.014 32.859-8.009 59.575-19.379 81.326-9.618 18.375-21.711 33.165-33.499 44.694l-169.755-200.05 199.696-235.335 38.141 40.149c-11.041 18.875-37.742 70.91-37.872 135.218z" fill="#28345f"/><g fill="#f9e92c"><path d="m184.919 372.879v-21.077h-56.364v123.667h21.761v-53.182h33.711v-21.077h-33.711v-28.331z"/><path d="m340.129 650-43.805-66 40.805-57.666h-25.25l-35.501 52.946v-52.946h-20.944v123.666h20.944v-57.419l36.806 57.419z"/><path d="m290.052 205.969-29.689 28.754 10.49 17.418 16.25-16.25v93.744h21.356v-123.666z"/><path d="m379.731 413.636c0-41.447 22.346-63.652 49.961-63.652 15.683 0 22.368 2.966 28.373 6.167v21.999s-8.84-6.373-24.645-6.373c-17.516 0-31.69 18.722-31.69 41.859s14.174 41.858 31.69 41.858c15.805 0 24.645-6.373 24.645-6.373v21.999c-6.005 3.201-12.69 6.167-28.373 6.167-27.615 0-49.961-22.204-49.961-63.651z"/></g></g></svg>