<svg fill-rule="evenodd" height="841.89pt" viewBox="0 0 595.276 841.89" width="595.276pt" xmlns="http://www.w3.org/2000/svg"><g fill="#383666"><path d="m124.035 493.817.202-8.574-21.974 5.205-1.041 44.159 21.975-5.206.21-8.976-12.584 2.983.227-9.642 11.618-2.75.211-8.858-11.62 2.753.19-8.114z"/><path d="m128.486 463.459c7.749-1.052 13.486-8.908 13.632-15.243.147-6.333-5.589-12.769-13.339-11.715-7.748 1.053-13.927 8.763-13.927 16.267 0 7.506 5.884 11.741 13.634 10.691z"/><path d="m277.567 492.632 1.177-44.157-8.418 1.994-.186 6.939c-.061 2.289-.067 5.09 0 8.373.053 3.292.182 7.202.381 11.704l-7.128-25.375-9.848 2.329-1.179 44.158 8.504-2.012.199-7.459c.085-3.229.085-6.534-.012-9.925-.089-3.382-.263-6.862-.514-10.43l7.16 26.196z"/><path d="m186.145 481.529c.047-2.14-.277-3.905-.983-5.303-.704-1.392-1.776-2.393-3.206-2.995-.959-.408-2.114-.581-3.443-.53-1.336.053-3.534.438-6.613 1.167l-10.151 2.406-1.022 44.155 11.223-2.658c3.224-.763 5.6-1.572 7.152-2.435 1.551-.862 2.86-2.019 3.936-3.472 1.129-1.504 2.021-3.204 2.672-5.11.659-1.906 1.005-3.841 1.053-5.806.055-2.388-.353-4.334-1.219-5.834-.873-1.487-2.193-2.529-3.969-3.089 1.554-1.781 2.687-3.488 3.412-5.149.725-1.652 1.112-3.438 1.158-5.347zm-15.094-.217c.09-.042.198-.088.343-.132.144-.042.338-.089.599-.15 1.627-.386 2.871-.262 3.721.363.859.624 1.27 1.704 1.234 3.25-.043 1.782-.512 3.208-1.417 4.269s-2.286 1.806-4.137 2.244l-.599.143zm4.606 26.315c-1.016 1.243-2.512 2.106-4.491 2.572l-.815.192.266-11.469.652-.154c2.122-.505 3.66-.439 4.617.201.954.64 1.415 1.894 1.371 3.771-.045 2.006-.582 3.633-1.6 4.887z"/><path d="m167.211 321.676c-2.834 47.204-8.02 137.315-8.02 137.412 22.912-.88 24.799-29.986 25.039-34.077l1.995-28.922c.273-3.942-.248-14.192 22.031-17.874.064-.01 20.283-3.186 26.131-3.818 20.708-.81 19.461-15.569 19.461-15.708-27.728 1.279-53.534 2.875-61.32 3.566-2.829.249-1.788-3.001-1.781-3.045 1.134-6.282 3.049-22.833 3.98-41.812-.142.14 30.192-5.245 69.175-9.358-.142.142 4.552-5.481 4.693-13.705.139 0-68.899 5.094-115.395 8.782 0 0-1.864 5.661 14.011 18.559z"/><path d="m207.68 500.663c-.065 1.008-.112 1.871-.134 2.576-.034 1.146-.004 2.206.074 3.191.086.97.234 1.887.456 2.749l11.056-2.616c-1.395-.923-2.052-3.858-1.971-8.812.013-1.052.019-1.853.018-2.393 0-.021.003-.07.007-.149 0-5.256-1.433-8.249-4.311-8.969 1.748-1.52 3.052-3.229 3.923-5.147.869-1.91 1.339-4.141 1.417-6.674.064-2.086-.168-3.817-.687-5.194-.528-1.371-1.35-2.436-2.475-3.203-.948-.628-2.212-.933-3.782-.913-1.557.022-4.088.443-7.569 1.266l-10.644 2.518-1.353 44.158 9.35-2.212.546-17.666 1.944-.46c1.675-.396 2.827-.172 3.45.657.614.848.882 2.614.799 5.315-.012.301-.048.963-.114 1.978zm-.441-18.101c-.841 1.054-2.247 1.813-4.209 2.277-.125.031-.312.063-.563.106-.252.038-.459.077-.622.117l.335-10.757c.158-.037.365-.096.618-.175.252-.08.438-.136.564-.165 1.964-.463 3.341-.39 4.134.208.794.601 1.154 1.847 1.096 3.746-.064 2.044-.51 3.589-1.353 4.643z"/><path d="m220.11 506.281 9.546-2.254 1.47-8.744 7.435-1.757.896 8.184 9.465-2.238-7.219-42.093-11.254 2.661zm15.651-39.11 2.048 18.63-5.435 1.285z"/><path d="m139.333 516.864c-.459-.886-.639-3.412-.541-7.598l.666-27.667-9.541 2.258-.575 23.765c-.119 5.048-.061 8.596.173 10.652.246 2.053.703 3.679 1.386 4.857.951 1.684 2.268 2.752 3.937 3.222 1.683.468 3.866.379 6.551-.257 2.926-.694 5.302-1.713 7.141-3.074 1.847-1.359 3.272-3.15 4.278-5.363.61-1.304 1.054-2.769 1.351-4.405.288-1.646.472-4.055.549-7.242l.678-28.187-9.363 2.218-.667 27.665c-.1 4.109-.395 6.73-.892 7.881-.499 1.139-1.372 1.864-2.61 2.154-1.225.289-2.071-.003-2.521-.879z"/><path d="m547.648 315.796c-3.901-7.172-7.414-13.61-10.534-19.462-1.366-2.928-5.024-4.779-11.122-5.268-11.021-.731-14.293.196-17.266.438-4.781.342-8.827 10.485-13.757 21.217 5.609 11.123 10.139 21.003 14.195 33.365 1.026 3.131 8.44 5.912 21.07 6.73 6.198.402 10.342-1.512 12.44-5.999 8.097-12.098 9.805-22.531 4.974-31.021z"/><path d="m564.263 381.083-9.262 2.187-13.846 29.795-.331 8.348 13.37-3.154-.335 8.512 8.693-2.049.333-8.514 3.503-.828.297-7.563-3.503.824zm-8.748 29.368-7.366 1.741 8.062-19.435z"/><path d="m73.6284 347.622-1.7905 130.901c.0019-.214 16.9131-6.638 28.1891-10.491 0-.43 7.252-71.992 11.799-177.405-44.9906 42.894-89.2254 60.031-89.2254 60.031s.3686 9.675.3398 15.951c26.0039-5.735 50.9068-19.203 50.688-18.987z"/><path d="m536.457 392.254c-.932-1.505-2.267-2.506-3.998-3.022-1.744-.51-3.768-.487-6.082.059-2.298.545-4.349 1.484-6.159 2.824-1.804 1.327-3.247 2.974-4.328 4.94-.784 1.413-1.374 3.358-1.758 5.825-.386 2.469-.692 6.459-.9 11.966-.198 5.296-.203 9.137-.019 11.538.187 2.399.595 4.108 1.214 5.117.95 1.571 2.304 2.627 4.067 3.16 1.759.527 3.816.516 6.17-.037 2.857-.676 5.353-1.985 7.489-3.933 2.133-1.94 3.506-4.145 4.122-6.629.412-1.609.735-3.635.969-6.066.246-2.434.453-6.063.636-10.877.168-4.435.139-7.745-.079-9.944-.219-2.189-.676-3.828-1.344-4.921zm-7.608 15.01-.149 3.924-.124 3.238c-.188 5.049-.536 8.292-1.045 9.724-.508 1.439-1.357 2.298-2.57 2.583-1.229.292-2.041-.175-2.429-1.402-.401-1.215-.506-4.354-.312-9.406l.122-3.238.12-3.209c.191-5.099.539-8.37 1.038-9.799.491-1.434 1.35-2.297 2.581-2.587 1.212-.288 2.016.153 2.424 1.329.41 1.172.52 4.126.344 8.843z"/><path d="m94.8447 536.169 1.417-44.153-8.4287 1.992-.2236 6.94c-.0742 2.287-.0923 5.091-.0493 8.37.0395 3.296.1445 7.202.3193 11.705l-6.9898-25.371-9.8579 2.327-1.4218 44.156 8.5136-2.014.2398-7.455c.1055-3.229.1206-6.535.0449-9.924-.0723-3.384-.2256-6.863-.458-10.433l7.0181 26.198z"/><path d="m138.501 550.118c-78.7954 29.065-90.8238 44.759-89.9707 45.755l39.9184 2.269s23.7803-30.291 148.8373-69.541c-108.065 41.87-129.369 62.27-128.784 65.197l38.313 1.733c.54-4.333 59.293-65.011 380.513-144.382l-24.802-.061c-185.858 35.827-298.739 74.944-364.025 99.03z"/><path d="m453.272 442.177c-.073 1.006-.123 1.873-.151 2.575-.044 1.147-.02 2.208.05 3.19.077.971.222 1.888.438 2.748l11.074-2.615c-1.389-.921-2.025-3.857-1.909-8.81.022-1.057.035-1.852.037-2.396.001-.019.004-.068.005-.148.039-5.253-1.368-8.248-4.243-8.967 1.758-1.52 3.079-3.229 3.959-5.144.884-1.917 1.367-4.144 1.465-6.677.078-2.086-.141-3.82-.649-5.193-.516-1.372-1.33-2.442-2.452-3.203-.943-.634-2.207-.936-3.774-.913-1.558.017-4.092.443-7.577 1.266l-10.662 2.517-1.676 44.155 9.369-2.212.669-17.665 1.947-.459c1.684-.397 2.83-.174 3.448.66.608.846.864 2.61.759 5.312-.009.302-.051.963-.127 1.979zm-.311-18.103c-.849 1.055-2.257 1.813-4.225 2.278-.124.03-.315.066-.565.103-.251.042-.455.08-.617.118l.407-10.754c.162-.041.369-.1.619-.175.255-.082.443-.134.568-.166 1.968-.464 3.343-.389 4.129.211.79.598 1.144 1.845 1.073 3.74-.08 2.046-.535 3.591-1.389 4.645z"/><path d="m416.549 415.732-9.574 2.258-.894 23.763c-.187 5.05-.179 8.598.026 10.653.216 2.055.656 3.678 1.322 4.857.926 1.683 2.231 2.754 3.896 3.225 1.673.469 3.858.379 6.551-.259 2.934-.694 5.326-1.714 7.183-3.071 1.868-1.364 3.314-3.153 4.35-5.365.626-1.302 1.09-2.769 1.41-4.405.314-1.647.526-4.055.651-7.245l1.054-28.187-9.393 2.221-1.041 27.665c-.152 4.111-.482 6.732-.998 7.881-.516 1.139-1.396 1.862-2.636 2.155-1.23.289-2.073-.005-2.513-.881-.446-.887-.591-3.41-.434-7.598z"/><path d="m443.022 350.623c-.218-10.125 1.023-19.463 5.268-28.244 1.462-3.9 1.83-6.828 1.1-7.899-6.538-5.739-13.459-12.437-19.195-21.019-.212-.32-.318-1.003-1.713-.737-10.975 2.047-19.897 6.315-28.042 13.046-4.392 3.513-10.147 25.74-10.537 40.024-.159 5.853 10.667 17.467 20.487 25.021 4.372 3.365 9.189.085 13.023-2.047 11.362-6.326 19.784-9.943 19.609-18.145z"/><path d="m447.56 271.602c4.487 4.83 10.095 6 16.826 3.806 3.707-1.073 7.415-1.758 10.68-2.049 6.196-.293 9.76-1.368 10.831-3.362-2.196-.102-4.684-1.174-7.463-3.077-11.951-2.146-22.244-.584-30.874 4.682z"/><path d="m481.803 258.725c-21.03 1.619-31.771 2.741-32.162 3.448-6.94 4.8-11.705 11.001-15.252 18.576-2.095 4.472-2.95 12.849-1.463 14.852 4.244 4.246 9.949 10.146 16.972 17.559 4.635.585 13.66.585 27.366 0 9.367-.779 14.633-2.341 15.802-4.536 7.857-11.218 11.708-19.12 11.559-23.703-4.875-9.026-12.484-17.757-22.822-26.196zm6.785 48.824c-17.079 2.93-29.419 3.907-37.373 3.125-9.024-9.022-14.486-15.217-16.242-18.584-1.316-7.022 3.902-16.39 15.545-28.018 10.206-1.218 20.462-2.144 30.763-2.776 9.159 8.401 15.687 16.075 19.583 23.016 1.119 1.351 1.132 3.556 0 6.613-3.896 8.734-7.94 14.285-12.276 16.624z"/><path d="m304.468 443.515c-1.817-.279-4.632.027-8.456.93l-10.441 2.464-1.595 44.159 10.442-2.468c3.827-.905 6.664-1.932 8.533-3.083 1.866-1.148 3.372-2.725 4.524-4.717.894-1.579 1.548-3.479 1.976-5.696.428-2.225.753-6.279.964-12.172.212-5.89.179-9.862-.095-11.932-.272-2.07-.801-3.683-1.595-4.843-1.023-1.475-2.443-2.364-4.257-2.642zm-3.633 19.749-.072 2.007c-.161 4.472-.333 7.491-.522 9.051-.191 1.557-.464 2.652-.831 3.271-.449.765-1.013 1.385-1.697 1.845-.684.462-1.545.822-2.557 1.061-.368.086-.636.151-.818.194-.169.039-.357.064-.543.068l1.004-27.871c.146-.052.308-.112.486-.164.19-.053.442-.113.775-.191 1.102-.259 2.004-.318 2.702-.183s1.219.479 1.565 1.018c.317.402.519 1.237.598 2.498.069 1.255.042 3.726-.09 7.396z"/><path d="m500.353 253.694c9.087.667 24.929 10.282 36.645 21.632 2.583 2.166 3.898 4.164 2.338 6.43-2.582 4.286-3.872 7.013-3.943 8.182.63.805 2.774-1.511 6.576-7.086.534-1.534 1.339-1.244 2.482 1.095 10.759 13.655 17.147 28.629 19.148 44.871-.089 1.089.005 2.381-1.356 1.455-6.21-1.825-7.939-.001-3.582 1.242 1.976.439 2.487.463 4.386.877 1.923.245 1.828 1.837 1.753 3.872-.334 9.227-1.825 16.857-4.569 25.263-1.467 4.498.819 4.435 2.017 0 10.216-29.293 5.121-56.073-15.074-79.388-2.481-2.651-5.822-7.328-11.781-13.244-8.696-8.628-22.352-16.978-37.525-17.756-1.717.194-1.593 2.257 2.485 2.555z"/><path d="m485.213 413.978 9.012-2.127c.008-.204.031-.489.064-.847.031-.365.053-.621.059-.796.205-4.68-.647-7.965-2.57-9.847-1.913-1.882-4.866-2.361-8.858-1.418-2.544.6-4.77 1.609-6.665 3.014-1.895 1.416-3.441 3.214-4.651 5.418-.831 1.514-1.486 3.653-1.973 6.421-.482 2.76-.828 6.374-1.024 10.827-.269 6.246-.201 10.617.216 13.113.408 2.494 1.225 4.362 2.445 5.616.978 1.008 2.147 1.688 3.513 2.028 1.366.346 2.878.32 4.527-.073 1.459-.339 2.772-.942 3.95-1.79 1.174-.86 2.268-1.992 3.262-3.395l.303 2.651 6.538-1.543 1.054-24.204-12.888 3.042-.334 7.711 3.712-.875c.008.278.002.581-.003.882-.004.299-.012.739-.039 1.315-.108 2.517-.474 4.413-1.109 5.676-.626 1.264-1.587 2.052-2.863 2.351-1.286.306-2.131-.126-2.55-1.294-.422-1.173-.521-4.217-.309-9.122l.136-3.042.188-4.355c.215-4.914.602-8.094 1.156-9.552.56-1.463 1.509-2.342 2.848-2.659 1.124-.265 1.91.092 2.366 1.062.45.967.619 2.73.512 5.263z"/><path d="m508.726 359.111c2.541-3.241-.048-5.488-.658-4.685-9.317 11.655-17.928 18.391-29.781 25.463-1.364 1.756-3.12 2.147-5.12 1.317-12.048-6.538-22.046-13.193-30.145-20.414-1.659-2.169-3.316-1.242-3.513-.366 5.098 12.975 23.769 19.12 33.072 23.56.438 3.365-.391 7.171-.731 11.853 1.317.585 2.537.781 3.948.438.293-5.268.782-9.169 1.905-11.559 12.875-6.682 22.997-15.389 31.023-25.607z"/><path d="m328.936 421.754c11.535-3.741 22.629-10.729 32.131-18.493-.17.15.964-4.172 1.786-14.229-8.219 7.597-18.129 13.721-28.672 17.132-29.339 9.496-52.007-3.698-51.836-33.633.171-29.933 23.69-58.974 54.407-67.648.224-.072 9.722-4.245 28.597 11.909 1.279-6.556 2.521-26.913 2.466-26.901-10.598-3.052-22.046-1.702-35.654 2.71-37.858 12.274-71.15 50.195-71.96 86.209-.807 36.007 30.874 55.22 68.735 42.944z"/><path d="m338.555 442.86.339-8.574-22.058 5.204-1.722 44.159 22.057-5.208.35-8.97-12.634 2.978.376-9.638 11.663-2.754.346-8.855-11.662 2.753.315-8.113z"/><path d="m368.031 471.094 1.576-44.159-8.438 1.993-.247 6.941c-.082 2.289-.111 5.092-.078 8.374.028 3.291.117 7.199.278 11.705l-6.899-25.375-9.867 2.329-1.579 44.156 8.522-2.014.266-7.456c.116-3.229.143-6.537.08-9.926-.058-3.381-.202-6.863-.418-10.43l6.923 26.195z"/><path d="m392.793 464.437c1.558-.867 2.871-2.024 3.952-3.474 1.139-1.504 2.044-3.205 2.704-5.111.671-1.909 1.028-3.84 1.084-5.808.07-2.387-.33-4.333-1.183-5.831-.866-1.487-2.179-2.527-3.953-3.092 1.566-1.779 2.707-3.485 3.441-5.146.733-1.652 1.132-3.438 1.188-5.345.061-2.143-.254-3.906-.953-5.307-.698-1.388-1.763-2.392-3.187-2.999-.959-.403-2.113-.577-3.441-.527-1.336.055-3.536.438-6.62 1.169l-10.161 2.405-1.275 44.157 11.24-2.66c3.227-.763 5.608-1.571 7.164-2.431zm-7.859-34.028c.088-.041.199-.088.343-.129.143-.045.34-.089.602-.151 1.63-.389 2.871-.263 3.718.363.854.625 1.258 1.706 1.213 3.25-.051 1.78-.527 3.205-1.438 4.267-.914 1.062-2.297 1.808-4.151 2.247l-.602.143zm-.864 29.083.33-11.47.654-.156c2.122-.503 3.662-.44 4.614.201s1.405 1.894 1.351 3.772c-.059 2.008-.602 3.634-1.628 4.886-1.024 1.243-2.525 2.106-4.504 2.572z"/><path d="m493.652 249.802c-26.631-5.317-45.945-3.907-59.556 4.827 5.657 8.632 47.461 5.854 59.556-4.827z"/><path d="m383.951 380.765c-2.69-9.459-3.372-17.36-3.851-23.266-.154-1.898 3.477-3.473 9.656-6.584.632-.318-1.336-1.253-3.793-.512-3.926 1.186-5.755 1.087-5.739-1.495.147-20.968 3.371-36.656 9.387-47.307 1.64-2.909 2.033-2.67 3.512 2.124 1.542 5.004 4.593 3.729 3.949 1.389-2.774-10.112-2.462-15.489-.804-17.414 9.539-14 21.835-24.143 37.242-29.413 2.416-.825 2.451-.662.567-2.18-.919-.741-.585-1.386-1.226-1.113-21.364 8.535-35.043 19.682-40.019 33.875-1.32 2.392-3.076 5.463-5.416 9.22-12.927 19.218-15.706 66.68-2.489 87.068.972.578.083-.67-.976-4.392z"/></g></svg>