<svg id="Layer_1" data-name="Layer 1" xmlns="http://www.w3.org/2000/svg" viewBox="0 0 466.23 557.14"><defs><style>.cls-1{fill:#243e80;}.cls-2{fill:#db2b27;}.cls-3{fill:#fff;}</style></defs><title>ahrensburger_tsv [Converted]</title><path class="cls-1" d="M72,98.64V480.75c0,26,15,42.77,28.12,56L538.25,98.64Z" transform="translate(-72.02 -98.64)"/><path class="cls-2" d="M100.14,536.75l1.25,1.26.19.19c47.62,47.63,175.17,108.24,180.47,110.27s15.62,7.32,23.09,7.32,17.78-5.29,23.09-7.32S461.07,585.83,508.7,538.2c13.45-13.45,29.55-30.47,29.55-57.45V98.64Z" transform="translate(-72.02 -98.64)"/><path class="cls-3" d="M80.88,480.75c0,22.36,12.67,36.88,26.78,51l.18.19c45.21,45.21,168.43,104.66,177.37,108.25l4.36,1.81c4.59,2,11.52,4.93,15.57,4.93s11-3,15.56-4.93l4.32-1.79c9-3.61,132.2-63.06,177.41-108.27,14.21-14.21,27-28.82,27-51.19V107.5H80.88Zm10.26-363h428v363c0,18.48-10.84,30.83-23.95,43.94-43.47,43.47-166.22,102.88-174,106l-4.42,1.83c-2.65,1.14-9.41,4-11.69,4.15-2.17-.12-8.93-3-11.48-4.1l-4.46-1.85c-7.86-3.17-130.58-62.57-174-106l-.19-.19c-13-13-23.77-25.29-23.77-43.75Z" transform="translate(-72.02 -98.64)"/><path class="cls-3" d="M259.71,516.49l-7.7,7.22h0c4.67,10.38,8.45,21.19,9.92,33L230.38,544l-7.85,7.36L271.76,569C269.29,548.9,265.28,531.33,259.71,516.49Z" transform="translate(-72.02 -98.64)"/><path class="cls-3" d="M283.25,548.41a5.71,5.71,0,1,1,5.78,5.64A5.71,5.71,0,0,1,283.25,548.41Z" transform="translate(-72.02 -98.64)"/><path class="cls-3" d="M324.58,503.37,268.76,445h0c-4,3.53-5.52,11.59-5.31,23.27l-2,0s-2.2-7-2.26-11.89c-.14-11.52,2.79-15.59,2.79-15.59l9.29-9.51L334,496.85a7.26,7.26,0,0,0,4.91.73l0,2.65A17.16,17.16,0,0,0,327.09,509l-2.53-1.29Z" transform="translate(-72.02 -98.64)"/><path class="cls-3" d="M363.06,412.14a96.6,96.6,0,0,0-13,1.26,47.28,47.28,0,0,0,1.2-9.49c-.16-13.36-6-20.07-20.77-19.89-13.84.16-24.39,10.39-24.24,23,.19,16.2,17,19.59,23.62,19.52,4.84-.07,7.05-1.06,7.05-1.06s-5,9.61-4.93,16.25c.21,17.71,14.73,27.51,29.67,27.33,19.24-.23,29.81-18.49,29.66-31.63C391.17,425.09,378.14,412,363.06,412.14Zm-20.85,4.12a39,39,0,0,1-11.33,2.21c-7.47.09-14.15-2.87-14.24-10.76a13.08,13.08,0,0,1,12.71-13.3c7.06-.08,12.76,2.2,12.92,15.62C342.29,411.42,342.21,416.26,342.21,416.26Zm19,39.49c-8.58.11-15.83-3.82-16-16.55-.08-6.92,3.3-13.6,3.3-13.6a69.09,69.09,0,0,1,10.36-1c12.74-.15,18.47,4.9,18.6,15.42C377.62,449.19,369.81,455.65,361.23,455.75Z" transform="translate(-72.02 -98.64)"/><path class="cls-3" d="M391.49,315.34c-14.09,14.35-28.68,28.31-44,41.52L359,372.41s.11-3.21.08-6a22.93,22.93,0,0,1,1.38-6.57L385,338.39c7.36,37.47,19,63.24,33.09,81.83,7.15-3.54,10.4-7.55,13.24-13.56C407.82,386.58,395.44,354.44,391.49,315.34Z" transform="translate(-72.02 -98.64)"/><path class="cls-3" d="M499.43,339.54c-8.52-9.37-17.16-18.38-25.83-27.25,3-3,6-6.06,8.95-9l-6.89-6.73-8.61,9.05q-5.58-5.67-11.18-11.32L446.78,303q5.84,5.82,11.61,11.76l-18.74,19.72c-5.91-21.46-10.6-37.1-16.17-50.52l-10.28,8.62a383.82,383.82,0,0,1,16,52.72l7.71,6.53c9.25-10.58,18.54-20.67,27.85-30.39,8.65,9.16,17.15,18.66,25.41,28.75Z" transform="translate(-72.02 -98.64)"/><path class="cls-3" d="M246,350.82h21L195.58,169.58,124.15,350.82h21L165,297.5h61.14ZM171.31,280.6l24.27-65.09,24.27,65.09Z" transform="translate(-72.02 -98.64)"/></svg>