<?xml version="1.0" encoding="iso-8859-1"?>
<!-- Generator: Adobe Illustrator 24.0.1, SVG Export Plug-In . SVG Version: 6.00 Build 0)  -->
<svg version="1.1" id="Layer_1" xmlns="http://www.w3.org/2000/svg" xmlns:xlink="http://www.w3.org/1999/xlink" x="0px" y="0px"
	 viewBox="0 0 612 792" style="enable-background:new 0 0 612 792;" xml:space="preserve">
<path d="M307.503,113.39C151.631,113.39,24.5,240.519,24.5,396.387c0,155.879,127.131,283.003,283.003,283.003
	c155.867,0,282.997-127.124,282.997-283.003C590.5,240.519,463.37,113.39,307.503,113.39"/>
<path style="fill:#FFFFFF;" d="M307.503,673.729c-152.758,0-277.343-124.589-277.343-277.343
	c0-152.748,124.585-277.337,277.343-277.337c152.753,0,277.337,124.589,277.337,277.337
	C584.84,549.141,460.256,673.729,307.503,673.729"/>
<path d="M307.5,124.708c-149.638,0-271.682,122.043-271.682,271.682c0,149.638,122.044,271.682,271.682,271.682
	c149.633,0,271.682-122.044,271.682-271.682C579.182,246.751,457.133,124.708,307.5,124.708"/>
<path style="fill:#FFFFFF;" d="M307.5,666.183c-148.597,0-269.793-121.201-269.793-269.796c0-148.598,121.196-269.79,269.793-269.79
	c148.596,0,269.793,121.192,269.793,269.79C577.293,544.981,456.096,666.183,307.5,666.183"/>
<path style="fill:#802027;" d="M307.5,128.479c-147.56,0-267.91,120.354-267.91,267.913C39.59,543.953,159.94,664.3,307.5,664.3
	c147.555,0,267.91-120.347,267.91-267.907C575.41,248.833,455.055,128.479,307.5,128.479"/>
<path style="fill:#FFFFFF;" d="M307.5,647.323c-138.212,0-250.929-112.723-250.929-250.931
	c0-138.207,112.717-250.935,250.929-250.935c138.206,0,250.924,112.727,250.924,250.935
	C558.424,534.601,445.706,647.323,307.5,647.323"/>
<path d="M307.502,147.346c-137.17,0-249.046,111.875-249.046,249.046c0,137.165,111.876,249.042,249.046,249.042
	c137.164,0,249.042-111.877,249.042-249.042C556.544,259.221,444.666,147.346,307.502,147.346z"/>
<path style="fill:#FFFFFF;" d="M422.139,281.753c29.395,29.393,47.616,69.955,47.616,114.639
	c0,89.37-72.896,162.252-162.259,162.252c-44.679,0-85.25-18.225-114.638-47.613c-29.396-29.395-47.612-69.949-47.613-114.64
	c0-89.369,72.883-162.256,162.251-162.257C352.178,234.135,392.745,252.359,422.139,281.753"/>
<path style="fill:#802027;" d="M226.957,299.263c-1.38-1.333-1.709-1.413-2.589-1.625c-0.175-0.042-0.363-0.087-0.559-0.14
	c-1.242-0.323-1.693-1.29-1.589-2.105c0.181-1.414,1.92-2.042,3.416-2.32c-0.086-0.02-0.177-0.042-0.271-0.066
	c-1.247-0.318-1.703-1.287-1.6-2.105c0.181-1.442,1.949-2.08,3.464-2.361c-0.534-0.457-0.719-1.099-0.639-1.66
	c0.335-2.339,4.893-2.407,5.411-2.407c0.102,0,0.203,0.002,0.302,0.005c0.01-0.083,0.026-0.164,0.046-0.241
	c0.424-1.603,2.452-1.603,3.215-1.603c1.329,0,2.736,0.239,3.763,0.639c1.47,0.571,3.098,1.577,3.876,2.863
	c3.877,1.434,7.722,4.908,10.489,9.277l59.155-59.155c-1.781-0.058-3.564-0.099-5.353-0.099
	c-21.567,0.001-42.516,4.248-62.262,12.625c-19.069,8.089-36.209,19.662-50.943,34.397c-14.734,14.734-26.307,31.875-34.395,50.944
	c-8.377,19.747-12.624,40.696-12.624,62.263c0,1.787,0.04,3.57,0.099,5.347l86.166-86.166c-3.187-5.423-4.994-10.707-5.177-15.377
	C227.861,299.99,227.388,299.678,226.957,299.263z"/>
<path style="fill:#802027;" d="M467.628,391.037l-88.667,88.667c2.65,5.025,6.249,9.868,10.883,14.646
	c2.335,2.411,0.581,6.9-0.821,9.17c-1.947,3.165-3.775,7.195-5.712,11.462c-4.706,10.371-10.039,22.126-19.767,27.804
	c-3.166,1.854-10.501,2.515-16.31,2.515c-3.769,0-7.541-0.258-10.966-0.748c-0.47,0.337-1.022,0.613-1.653,0.824
	c-2.603,0.868-2.979,1.229-3.807,2.019c-0.15,0.143-0.31,0.297-0.49,0.462c-0.494,0.455-1.021,0.685-1.567,0.685
	c-0.736,0-1.392-0.421-1.711-1.1c-0.415-0.882-0.172-2.203,0.315-3.46c-2.14,0.786-2.518,1.157-3.281,1.907
	c-0.149,0.147-0.308,0.302-0.483,0.468c-0.496,0.47-1.029,0.708-1.585,0.708c-0.728,0-1.381-0.415-1.703-1.084
	c-0.618-1.285,0.158-3.533,1.058-5.152c-1.391,0.571-1.758,0.933-2.399,1.564c-0.146,0.145-0.304,0.299-0.479,0.465
	c-0.497,0.472-1.031,0.71-1.588,0.71c-0.488,0-0.932-0.199-1.275-0.522l-13.471,13.471c1.778,0.059,3.561,0.098,5.349,0.098
	c21.566,0.002,42.515-4.246,62.262-12.621c19.069-8.09,36.21-19.662,50.945-34.396c14.736-14.734,26.31-31.875,34.399-50.941
	c8.377-19.748,12.625-40.697,12.625-62.264C467.727,394.603,467.686,392.818,467.628,391.037z"/>
<path style="fill:#802027;" d="M223.249,530.023c-0.412-1.526,1.233-3.467,2.688-4.702c-0.104-0.001-0.205-0.001-0.303-0.001
	c-1.896,0-2.33,0.185-3.279,0.594c-0.195,0.084-0.403,0.174-0.628,0.265c-0.362,0.149-0.695,0.222-1.018,0.222
	c-0.883,0-1.628-0.561-1.854-1.396c-0.555-2.054,2.618-4.864,4.039-5.692c0.341-0.197,0.69-0.38,1.044-0.545
	c-0.568-0.106-1.013-0.154-1.375-0.154c-0.429,0-0.774,0.067-1.296,0.168c-0.203,0.04-0.419,0.082-0.653,0.123
	c-0.194,0.034-0.373,0.052-0.545,0.052c-1.021,0-1.837-0.66-1.985-1.605c-0.345-2.198,3.485-4.365,5.143-4.9
	c1.263-0.404,2.556-0.618,3.737-0.618c0.516,0,0.992,0.041,1.424,0.122c3.679-3.93,9.979-7.031,14.567-8.323
	c1.723-0.487,3.632-0.553,5.271-0.553c0.615,0,1.24,0.011,1.901,0.021c0.622,0.011,1.248,0.021,1.874,0.021
	c0.118,0,0.246-0.005,0.366-0.006l5.455-5.455c-2.413-6.241-4.893-14.239-4.913-21.993c-0.021-9.7,5.992-19.64,11.039-26.27
	c6.141-8.066,14.156-15.6,22.049-20.745c-6.593-12.564-8.938-29.358-9.765-40.238c-4.379,0.183-8.774,0.45-13.07,0.716
	l-91.747,91.747c6.431,10.285,14.074,19.924,22.875,28.723c8.761,8.762,18.379,16.395,28.741,22.852l1.235-1.235
	C223.781,530.982,223.397,530.572,223.249,530.023z"/>
<path style="fill:#802027;" d="M377.465,315.709c-2.834,27.449-9.395,54.919-19.509,81.817l85.622-85.622
	c-6.43-10.283-14.071-19.918-22.87-28.717c-0.002-0.002,0,0-0.002-0.002c-8.763-8.762-18.382-16.397-28.745-22.855l-22.012,22.011
	C375.997,294.998,378.463,305.96,377.465,315.709z"/>
<polygon style="fill:#FFFFFF;" points="98.799,486.537 104.554,482.62 104.554,513.479 114.721,513.479 114.721,467.316 
	98.799,478.76 "/>
<path style="fill:#FFFFFF;" d="M511.739,482.069l9.004-8.759l-18.43-2.813l-9.561,7.962v32.514l15.923,3.555l10.657-7.839v-20.085
	l-14.212-2.813l-2.201,2.568v-5.877L511.739,482.069z M509.166,494.259v10.652l-6.246-1.287v-10.591L509.166,494.259z"/>
<path style="fill:#FFFFFF;" d="M479.404,482.069l9.003-8.759l-18.43-2.813l-9.549,7.962v32.514l15.917,3.555l10.652-7.839v-20.085
	l-14.201-2.813l-2.206,2.568v-5.877L479.404,482.069z M476.842,494.259v10.652l-6.251-1.287v-10.591L476.842,494.259z"/>
<path style="fill:#FFFFFF;" d="M124.147,477.724v20.574l13.165,3.371l3.242-3.243v6.547l-10.78-2.936l-7.771,7.956l17.148,4.535
	l11.571-8.759v-32.146l-15.064-3.738L124.147,477.724z M140.555,491.991l-6.239-1.409v-10.836l6.239,1.587V491.991z"/>
<path style="fill:#FFFFFF;" d="M157.598,241.382c1.615,1.699,2.952,3.178,4,4.42l4.931,5.853c1.916,2.278,3.771,4.543,5.555,6.797
	c1.794,2.245,3.477,4.471,5.059,6.663l0.991,0.039c0.379-0.371,0.786-0.741,1.226-1.111c0.469-0.396,0.936-0.789,1.404-1.181
	c0.624-0.527,1.293-1.089,2.011-1.697c0.028-0.022,0.057-0.044,0.084-0.067l0.072-0.058c2.145-2.184,4.78-4.649,7.398-6.958
	c0.43-0.376,1.104-0.925,2.023-1.644c0.914-0.719,2.101-1.61,3.561-2.671l0.044-1.34l-7.398-2.14
	c-0.969,1.12-2.056,2.298-3.253,3.532c-1.054,1.089-3.025,2.716-4.491,4.05c-1.248-1.404-2.468-2.808-3.648-4.209
	c-1.054-1.251-1.989-2.346-2.803-3.282c-0.813-0.941-1.499-1.763-2.05-2.476c0.874-0.68,1.66-1.307,2.379-1.883
	c0.713-0.577,1.398-1.106,2.05-1.602c0.49-0.365,0.981-0.735,1.46-1.114c0.479-0.376,0.896-0.713,1.236-0.998l-1.571-5.955
	l-1.158-0.143c-1.995,2.003-4.117,3.947-6.362,5.836l-1.777,1.499l-7.093-8.423c1.61-1.251,3.114-2.373,4.519-3.368
	c1.404-0.992,2.73-1.889,3.989-2.674l-1.003-7.641l-1.326-0.159c-1.265,1.284-2.328,2.323-3.181,3.114
	c-0.847,0.799-1.493,1.376-1.928,1.747c-2.524,2.128-5.098,4.137-7.722,6.025l-0.15,0.203c-0.352,1.098-0.764,2.253-1.232,3.477
	c-0.463,1.22-0.997,2.479-1.604,3.788C154.06,237.767,155.977,239.683,157.598,241.382z"/>
<path style="fill:#FFFFFF;" d="M123.563,277.665l10.986,8.888l14.932,12.569l0.997-0.064l5.153-7.24l-0.05-0.905
	c-1.332-0.761-2.741-1.691-4.234-2.797c-1.487-1.101-3.109-2.362-4.853-3.772l-4.279-3.468c-0.796-0.638-1.71-1.387-2.758-2.228
	c-1.075-0.875-2.278-1.878-3.621-3.015c-0.346-0.284-0.696-0.565-1.042-0.849c-0.384-0.309-0.769-0.643-1.153-1.011
	c8.057-0.351,15.021-0.404,20.909-0.148c5.878,0.251,10.753,0.839,14.619,1.769l0.758-0.257l3.666-5.693l-0.072-0.685
	c-1.733-1.301-3.867-2.961-6.396-4.98c-2.535-2.025-5.443-4.346-8.735-6.953l-3.087-2.504c-2.507-2.031-4.964-4.044-7.382-6.053
	c-2.412-2.008-4.78-4.005-7.108-5.997l-0.881-0.078c-0.295,0.49-0.557,0.883-0.785,1.17c-0.206,0.251-0.44,0.535-0.696,0.855
	c-0.329,0.41-0.708,0.872-1.12,1.379c-0.379,0.474-0.83,1-1.349,1.577c-0.206,0.256-0.462,0.557-0.779,0.905
	c-0.313,0.354-0.607,0.702-0.886,1.05l0.212,0.805c1.727,1.242,3.587,2.607,5.582,4.089c1.994,1.49,4.117,3.109,6.368,4.877
	c0.975,0.738,1.949,1.507,2.936,2.301c0.947,0.769,1.9,1.54,2.852,2.31c0.824,0.668,1.638,1.312,2.441,1.939
	c0.808,0.63,1.604,1.262,2.395,1.9c-1.176,0.098-2.407,0.156-3.677,0.173c-1.27,0.017-2.591,0.028-3.956,0.022l-8.847-0.153
	c-4.24-0.081-8.028-0.195-11.365-0.354c-3.338-0.156-6.251-0.376-8.741-0.668l-0.658,0.418l-2.484,5.783l0.307,0.794
	L123.563,277.665z"/>
<path style="fill:#FFFFFF;" d="M235.378,199.492l2.367,7.273c0.92,2.828,1.783,5.63,2.597,8.385
	c0.808,2.761,1.532,5.454,2.173,8.073l0.902,0.418c0.496-0.206,1.009-0.396,1.549-0.571c0.579-0.189,1.164-0.376,1.744-0.566
	c0.779-0.25,1.609-0.523,2.507-0.816c0.931-0.301,1.85-0.577,2.758-0.828l0.384-0.769c-0.719-1.828-1.415-3.68-2.095-5.563
	c-0.668-1.883-1.314-3.755-1.922-5.613c-0.501-1.551-0.958-2.916-1.354-4.092c-0.407-1.181-0.73-2.195-0.964-3.064
	c1.059-0.301,2.027-0.585,2.908-0.85c0.875-0.262,1.71-0.502,2.496-0.713c0.596-0.153,1.186-0.312,1.777-0.485
	c0.585-0.164,1.092-0.317,1.52-0.462l0.78-6.103l-1.02-0.571c-2.602,1.1-5.299,2.106-8.09,3.014l-2.212,0.719l-3.404-10.469
	c1.967-0.554,3.783-1.027,5.455-1.42c1.671-0.396,3.242-0.719,4.702-0.983l1.949-7.449l-1.175-0.652
	c-1.655,0.713-3.025,1.279-4.112,1.694c-1.086,0.417-1.899,0.713-2.445,0.891c-3.137,1.02-6.284,1.911-9.421,2.674l-0.218,0.134
	c-0.74,0.882-1.554,1.802-2.445,2.76c-0.892,0.953-1.861,1.922-2.914,2.908c1.254,2.808,2.317,5.301,3.176,7.49
	C234.196,196.074,234.876,197.938,235.378,199.492z"/>
<path style="fill:#FFFFFF;" d="M183.526,221.248c2.262,3.396,4.719,7.218,7.382,11.474c0.758,1.209,1.794,2.989,3.119,5.335
	c1.321,2.351,2.92,5.22,4.803,8.613l0.747,0.042c0.563-0.407,1.075-0.749,1.526-1.028c0.484-0.301,0.88-0.552,1.192-0.747
	c0.791-0.496,1.604-0.98,2.445-1.454c0.83-0.474,1.705-0.947,2.613-1.415l0.295-0.908c-1.761-2.362-3.866-5.493-6.307-9.406
	l-1.916-3.059c1.002,0.292,1.844,0.531,2.546,0.719c0.696,0.194,1.236,0.331,1.632,0.423c4.051,1.17,9.048,3.24,14.992,6.212
	c0.875-1.215,1.8-2.448,2.78-3.686c0.98-1.236,2.061-2.465,3.221-3.674l-0.195-1.242c-4.652-1.518-8.613-2.928-11.878-4.229
	c-3.265-1.301-5.85-2.516-7.75-3.635c0.686-1.438,1.248-2.749,1.683-3.942c0.44-1.181,0.735-2.184,0.897-3.011
	c0.529-2.688,0.039-5.237-1.471-7.661c-2.14-3.423-5.237-5.072-9.288-4.941c-1.693-0.006-3.376,0.278-5.063,0.85
	c-1.688,0.577-3.41,1.409-5.176,2.515c-0.864,0.538-2.056,1.454-3.588,2.744c-1.521,1.29-3.388,2.983-5.588,5.078l-0.095,0.423
	l0.116,0.649C179.152,214.866,181.259,217.855,183.526,221.248z M193.398,208.66c1.053,0.443,2.017,1.047,2.892,1.796
	c0.88,0.752,1.632,1.624,2.262,2.63c1.382,2.211,1.972,4.513,1.777,6.892c-0.15,1.83-0.842,4.111-2.067,6.853l-6.095-9.758
	c-0.585-0.933-1.281-2.134-2.101-3.593c-0.813-1.46-1.755-3.153-2.818-5.089C189.17,207.621,191.22,207.713,193.398,208.66z"/>
<path style="fill:#FFFFFF;" d="M264.565,189.28c0.105,0.889,0.212,2,0.312,3.32c0.1,1.323,0.224,2.88,0.357,4.672
	c0.139,1.791,0.267,3.348,0.39,4.666c0.117,1.323,0.239,2.429,0.346,3.321c0.357,2.869,2.439,5.265,6.245,7.181
	c3.075,1.593,6.239,2.438,9.493,2.535c0.958-0.942,1.977-1.828,3.07-2.661c1.086-0.833,2.194-1.665,3.325-2.504l0.179,3.493
	l0.519,0.735c1.281-0.32,2.68-0.646,4.2-0.975c1.521-0.331,3.064-0.635,4.636-0.908l0.484-0.554
	c-0.195-1.619-0.401-3.164-0.602-4.643c-0.201-1.471-0.373-2.794-0.518-3.97l-0.941-7.652c-0.612-4.978-1.153-9.647-1.627-14.003
	c-0.474-4.359-0.874-8.371-1.197-12.025l-0.78-0.337l-9.009,1.905l-0.268,0.839c0.713,3.81,1.376,7.593,1.979,11.34
	c0.607,3.749,1.131,7.446,1.576,11.084l1.143,11.816c-0.195,0.067-0.435,0.12-0.719,0.153c-7.287,0.897-11.344-1.997-12.162-8.677
	c-0.14-1.134-0.284-2.544-0.424-4.234c-0.15-1.688-0.323-3.688-0.529-6.006c-0.195-2.317-0.373-4.317-0.518-6.008
	c-0.145-1.682-0.29-3.097-0.43-4.226c-0.117-0.975-0.256-1.844-0.406-2.602c-0.156-0.758-0.317-1.46-0.474-2.101l-0.858-0.451
	l-9.042,1.666l-0.272,0.777c0.523,2.607,1.003,5.151,1.432,7.649C263.902,184.389,264.265,186.854,264.565,189.28z"/>
<path style="fill:#FFFFFF;" d="M111.033,293.434c1.576,0.769,3.409,1.711,5.498,2.825l18.687,9.936
	c2.123,1.126,4.936,2.83,8.44,5.106l0.83-0.387l3.811-7.953l-0.284-0.769c-0.808-0.39-1.61-0.777-2.39-1.17
	c-0.78-0.396-1.516-0.73-2.179-1.056c-2.529-1.234-4.501-2.232-5.944-2.95c-1.443-0.724-2.346-1.181-2.702-1.371l-11.019-5.858
	c-1.728-0.917-3.672-2.014-5.839-3.279c-2.167-1.267-4.535-2.699-7.104-4.295l-1.104,0.106l-3.108,8.462l0.362,0.883
	C108.103,292.074,109.456,292.668,111.033,293.434z"/>
<path style="fill:#FFFFFF;" d="M83.099,392.857c3.081-0.056,5.788-0.056,8.134,0.005c2.352,0.064,4.34,0.168,5.962,0.31l7.615,0.668
	c2.97,0.256,5.884,0.551,8.741,0.883c2.853,0.332,5.616,0.719,8.279,1.153l0.735-0.668c0.006-0.535,0.033-1.083,0.078-1.655
	c0.061-0.61,0.111-1.214,0.161-1.825c0.072-0.816,0.15-1.688,0.234-2.618c0-0.042,0-0.075,0.006-0.114l0.011-0.086
	c-0.022-3.064,0.105-6.669,0.334-10.159c0.034-0.565,0.123-1.432,0.268-2.585c0.14-1.159,0.352-2.624,0.635-4.404l-0.907-0.98
	l-6.759,3.708c0.106,1.477,0.173,3.076,0.195,4.792c0.022,1.524-0.229,4.061-0.323,6.042c-1.872-0.108-3.727-0.245-5.56-0.404
	c-1.627-0.145-3.059-0.259-4.302-0.348c-1.236-0.087-2.306-0.19-3.191-0.31c0.133-1.095,0.256-2.1,0.351-3.005
	c0.105-0.914,0.206-1.774,0.323-2.585c0.089-0.605,0.173-1.209,0.251-1.819c0.072-0.61,0.128-1.136,0.167-1.582l-5.315-3.109
	l-0.925,0.719c0,2.825-0.134,5.699-0.39,8.627l-0.195,2.315l-10.976-0.958c0.262-2.025,0.541-3.883,0.83-5.579
	c0.29-1.694,0.597-3.262,0.931-4.705l-6.095-4.713l-1.053,0.833c0.005,1.797-0.012,3.281-0.051,4.442
	c-0.044,1.165-0.089,2.034-0.139,2.602c-0.284,3.287-0.696,6.526-1.221,9.716l0.039,0.251c0.524,1.028,1.053,2.139,1.588,3.332
	C82.09,390.233,82.603,391.506,83.099,392.857z"/>
<path style="fill:#FFFFFF;" d="M106.671,324.777c4.579,1.688,9.788,3.719,15.649,6.086c1.821,0.735,3.627,1.499,5.443,2.298
	c1.811,0.799,3.599,1.621,5.37,2.465l0.797-0.337c0.54-1.448,1.053-2.808,1.538-4.061c0.484-1.256,0.891-2.345,1.225-3.27
	c0.44-1.225,0.814-2.195,1.08-2.924c0.273-0.725,0.44-1.188,0.519-1.371c0.479-1.083,0.997-2.242,1.538-3.473
	c0.546-1.232,1.102-2.454,1.683-3.674l-5.048-6.919l-1.538,0.365c-0.017,1.226-0.111,2.477-0.295,3.741
	c-0.184,1.268-0.48,2.574-0.824,3.925c-0.185,0.722-0.391,1.644-0.686,2.758c-0.296,1.111-0.669,2.451-1.131,4.025
	c-0.418-0.165-0.797-0.318-1.137-0.454c-0.379-0.156-0.764-0.287-1.159-0.401l0.056,0.025c-3.108-1.125-5.02-1.833-5.738-2.123
	c-6.501-2.629-11.944-4.872-16.313-6.727c-4.379-1.852-7.716-3.315-10.017-4.376l-1.075,0.223l-2.246,9.321l0.413,0.766
	C98.136,321.708,102.103,323.081,106.671,324.777z"/>
<path style="fill:#FFFFFF;" d="M479.009,305.448c-3.159,3.268-4.451,7.251-3.889,11.934c0.384,3.331,1.877,7.989,4.49,13.972
	l9.855,2.897l0.97-1.396c-0.959-1.582-1.683-2.814-2.168-3.716c-0.484-0.895-0.802-1.493-0.936-1.791
	c-2.229-4.768-2.853-8.766-1.889-12.008c0.964-3.423,3.816-6.234,8.546-8.443c3.622-1.689,7.672-2.897,12.146-3.633l0.335,0.719
	c2.306,4.95,2.769,9.463,1.381,13.53c1.989,0.602,3.867,1.212,5.645,1.822c1.766,0.616,3.125,1.106,4.061,1.482
	c0.357-1.744,0.607-3.315,0.747-4.699c0.134-1.393,0.156-2.585,0.056-3.571l-0.056,0.022c-0.212-2.287-0.931-4.741-2.15-7.365
	l-1.114-2.385l-17.394-7.479c-1.326,0.44-2.636,0.914-3.922,1.426c-1.293,0.507-2.585,1.067-3.884,1.671
	c-2.507,1.175-4.663,2.334-6.468,3.49C481.565,303.081,480.111,304.256,479.009,305.448z"/>
<path style="fill:#FFFFFF;" d="M315.331,212.938c1.794,0.034,3.688-0.69,5.666-2.164l-0.056,0.058
	c0.078-0.081,0.495-0.457,1.236-1.142c0.747-0.677,1.8-1.677,3.176-3h-0.061c0.908-0.805,1.627-1.482,2.146-2.042
	c0.518-0.565,0.863-0.989,1.03-1.267c0.797-1.05,1.209-2.549,1.242-4.507c0.067-3.753-1.454-6.697-4.557-8.831l-8.179-4.545
	c-2.741-1.97-4.084-4.519-4.028-7.658c0.006-0.284,0.028-0.593,0.078-0.916c0.045-0.326,0.134-0.652,0.256-0.978
	c0.263-0.682,0.558-1.025,0.881-1.02c2.931,0.05,5.833,2.218,8.696,6.515l1.165,0.078l6.128-4.356l0.2-1.159
	c-1.236-1.535-2.88-3.053-4.936-4.552c-1.209-0.958-2.273-1.654-3.204-2.078c-0.93-0.423-1.743-0.643-2.435-0.657
	c-0.735-0.011-1.704,0.206-2.919,0.657c-1.215,0.446-2.725,1.187-4.541,2.215c-2.841,1.498-5.231,2.902-7.17,4.215
	c-0.379,0.936-0.663,1.85-0.836,2.738c-0.183,0.896-0.278,1.752-0.289,2.568c-0.078,4.365,1.471,7.838,4.647,10.421
	c1.175,0.713,2.239,1.337,3.214,1.861c0.97,0.524,1.855,1.022,2.663,1.484c0.446,0.251,0.869,0.496,1.271,0.725
	c0.407,0.234,0.769,0.454,1.092,0.66c2.864,1.763,4.273,4.153,4.218,7.173c-0.011,0.529-0.14,1.178-0.396,1.95
	c-0.257,0.691-0.49,1.034-0.696,1.028c-2.284-0.042-4.29-0.75-6.018-2.123c-1.214-0.958-2.668-2.738-4.373-5.34l-1.164-0.201
	l-6.14,4.725l-0.268,1.278C306.383,210.131,310.807,212.858,315.331,212.938z"/>
<path style="fill:#FFFFFF;" d="M122.593,427.55c0.329,0.017,0.753,0.017,1.287,0c0.529-0.017,1.003-0.017,1.415-0.006l-0.835-14.474
	c0,0-0.045-0.14-0.146-0.418c-0.105-0.279-0.278-0.657-0.513-1.137c-0.624-1.343-1.214-2.429-1.76-3.248
	c-3.733-6.034-8.084-8.875-13.043-8.529c-4.439,0.312-7.821,3.041-10.161,8.19c-2.463-4.201-5.783-6.15-9.979-5.861
	c-3.621,0.257-6.134,2.273-7.544,6.051c-0.952,2.719-1.298,6.056-1.024,10.006c0.083,1.092,0.791,3.053,2.128,5.855
	c0.435,0.914,0.83,1.732,1.187,2.468c0.356,0.725,0.68,1.371,0.964,1.917c0.145,0.323,0.301,0.646,0.463,0.98
	c0.167,0.34,0.306,0.624,0.4,0.869c0.323-0.028,0.774-0.056,1.343-0.095c0.529-0.039,1.075-0.095,1.639-0.179
	c0.289-0.022,0.585-0.05,0.886-0.089c0.301-0.05,0.624-0.084,0.946-0.105c0.329-0.012,0.63-0.051,0.914-0.09
	c0.278-0.039,0.563-0.066,0.853-0.089c0.607-0.078,1.131-0.14,1.576-0.173c0.413-0.027,0.774-0.061,1.104-0.083l23.984-1.672
	c0.529-0.033,1.855-0.066,3.978-0.095L122.593,427.55z M117.668,414.524c-0.033,1.069-0.1,2.256-0.211,3.576
	c-0.284,0.056-0.547,0.095-0.792,0.111c-0.245,0.017-0.468,0.033-0.674,0.051c-0.769,0.095-1.46,0.161-2.066,0.206
	c-0.652,0.044-1.221,0.089-1.705,0.122l-22.765,1.588c-0.334-0.017-0.635-0.017-0.925,0c-0.278,0.022-0.523,0.039-0.729,0.05
	l-2.262,0.162c-0.101-0.317-0.162-0.618-0.179-0.908c-0.128-1.749,0.552-3.477,2.028-5.17c1.471-1.738,3.081-2.669,4.836-2.797
	c1.788-0.123,3.37,0.189,4.746,0.925c1.382,0.746,2.619,1.916,3.717,3.521c0.095,0.112,0.184,0.29,0.278,0.524
	c0.229,0.317,0.445,0.607,0.646,0.88c0.206,0.268,0.351,0.49,0.445,0.641l0.931,0.184c0.396-0.194,0.668-0.456,0.802-0.791
	c0.463-2.774,1.571-5.059,3.326-6.853c1.822-1.972,4.078-3.047,6.764-3.236c0.323-0.022,0.719,0,1.164,0.072
	c0.457,0.066,0.98,0.167,1.561,0.289c0.59,1.427,0.93,2.775,1.014,4.034C117.68,412.523,117.696,413.46,117.668,414.524z"/>
<path style="fill:#FFFFFF;" d="M494.508,335.438c-1.883,0.538-3.783,1.05-5.705,1.535c-1.916,0.49-3.833,0.941-5.749,1.365
	l-0.418,0.758c0.468,1.477,0.897,2.858,1.281,4.148c0.396,1.29,0.741,2.395,1.053,3.326c0.395,1.242,0.719,2.237,0.947,2.978
	c0.234,0.735,0.379,1.204,0.429,1.398c0.296,1.153,0.602,2.379,0.931,3.68c0.334,1.307,0.646,2.619,0.935,3.936l8.251,2.346
	l0.981-1.24c-0.747-0.975-1.438-2.02-2.073-3.125c-0.641-1.111-1.23-2.312-1.766-3.602c-0.317-0.671-0.708-1.538-1.159-2.593
	c-0.451-1.061-0.98-2.351-1.588-3.875c0.43-0.12,0.825-0.234,1.176-0.337c0.39-0.114,0.78-0.245,1.159-0.393l-0.056,0.017
	c3.136-1.033,5.086-1.649,5.833-1.866c6.741-1.933,12.407-3.513,16.992-4.746c4.591-1.232,8.117-2.139,10.585-2.713l0.714-0.847
	l-3.967-8.722l-0.797-0.343c-3.293,1.24-7.266,2.602-11.906,4.081C505.94,332.084,500.58,333.694,494.508,335.438z"/>
<path style="fill:#FFFFFF;" d="M450.701,270.926c-1.582,1.201-3.17,2.362-4.77,3.504l-0.089,0.855
	c1.009,1.181,1.944,2.286,2.808,3.32c0.864,1.033,1.622,1.916,2.263,2.651c0.857,0.983,1.532,1.774,2.039,2.368
	c0.501,0.588,0.824,0.958,0.947,1.12c0.713,0.941,1.471,1.956,2.289,3.028c0.814,1.067,1.61,2.15,2.401,3.254l8.502-1.067
	l0.424-1.518c-1.064-0.604-2.112-1.295-3.132-2.072c-1.02-0.774-2.011-1.666-3.03-2.624c-0.541-0.507-1.254-1.14-2.078-1.933
	c-0.83-0.8-1.822-1.78-2.976-2.944c0.352-0.284,0.663-0.541,0.947-0.769c0.317-0.257,0.624-0.532,0.914-0.822l-0.045,0.039
	c2.485-2.173,4.039-3.501,4.636-3.992c5.448-4.415,10.045-8.083,13.794-11.011c3.744-2.928,6.636-5.134,8.681-6.635l0.322-1.05
	l-7.059-6.485l-0.869-0.006c-2.546,2.429-5.666,5.237-9.365,8.415c-3.693,3.175-8,6.752-12.914,10.73
	C453.821,268.514,452.272,269.729,450.701,270.926z"/>
<path style="fill:#FFFFFF;" d="M343.243,216.379c1.76,0.312,3.738-0.103,5.928-1.251l-0.072,0.053c0.1-0.07,0.563-0.384,1.409-0.936
	c0.847-0.554,2.045-1.382,3.605-2.471l-0.062-0.011c1.025-0.646,1.839-1.204,2.44-1.686c0.602-0.473,1.003-0.83,1.215-1.089
	c0.947-0.906,1.593-2.326,1.938-4.254c0.646-3.694-0.396-6.836-3.125-9.432l-7.371-5.771c-2.395-2.368-3.326-5.101-2.774-8.192
	c0.05-0.281,0.122-0.577,0.217-0.891c0.095-0.312,0.234-0.621,0.407-0.922c0.367-0.641,0.707-0.93,1.03-0.874
	c2.892,0.507,5.41,3.109,7.571,7.794l1.131,0.262l6.741-3.348l0.379-1.114c-0.98-1.705-2.367-3.457-4.161-5.265
	c-1.048-1.137-1.995-1.986-2.842-2.549c-0.857-0.565-1.621-0.908-2.307-1.028c-0.724-0.131-1.716-0.07-2.986,0.189
	c-1.265,0.251-2.874,0.741-4.824,1.476c-3.042,1.034-5.616,2.047-7.738,3.042c-0.529,0.861-0.947,1.722-1.265,2.577
	c-0.312,0.849-0.546,1.682-0.685,2.488c-0.758,4.295,0.228,7.969,2.964,11.017c1.042,0.889,2,1.671,2.881,2.346
	c0.874,0.665,1.677,1.295,2.4,1.88c0.401,0.315,0.774,0.624,1.143,0.914c0.362,0.29,0.69,0.565,0.975,0.821
	c2.552,2.192,3.565,4.775,3.042,7.747c-0.095,0.521-0.328,1.142-0.696,1.861c-0.367,0.644-0.647,0.947-0.847,0.908
	c-2.251-0.396-4.123-1.41-5.616-3.037c-1.042-1.142-2.206-3.126-3.481-5.961l-1.114-0.376l-6.803,3.702l-0.463,1.226
	C334.842,212.206,338.78,215.596,343.243,216.379z"/>
<path style="fill:#FFFFFF;" d="M361.36,217.022l0.022-0.059c-0.156,0.287-0.34,0.68-0.546,1.165
	c-0.212,0.49-0.407,0.913-0.591,1.284l13.472,5.362c0,0,0.145,0.017,0.439,0.038c0.296,0.031,0.714,0.037,1.237,0.02
	c1.487,0,2.713-0.069,3.689-0.223c7.047-0.833,11.46-3.571,13.248-8.215c1.594-4.153,0.546-8.377-3.131-12.672
	c4.847-0.451,8.028-2.641,9.532-6.56c1.298-3.39,0.535-6.521-2.295-9.401c-2.061-2.014-4.936-3.733-8.636-5.145
	c-1.025-0.401-3.098-0.582-6.212-0.555c-1.003,0.006-1.917,0.018-2.73,0.034c-0.813,0.017-1.531,0.033-2.155,0.059
	c-0.346,0-0.708,0-1.081,0.011c-0.373,0.006-0.691,0.006-0.947-0.006c-0.117,0.307-0.278,0.725-0.484,1.254
	c-0.189,0.496-0.368,1.023-0.535,1.568c-0.101,0.265-0.195,0.543-0.29,0.838c-0.089,0.293-0.194,0.588-0.311,0.897
	c-0.117,0.301-0.218,0.593-0.295,0.866c-0.09,0.275-0.179,0.543-0.279,0.811c-0.184,0.588-0.357,1.089-0.518,1.507
	c-0.146,0.382-0.279,0.725-0.391,1.025l-8.618,22.444C362.765,213.866,362.229,215.083,361.36,217.022z M372.347,215.538
	c0.084-0.229,0.168-0.438,0.24-0.627c0.239-0.741,0.468-1.398,0.69-1.966c0.234-0.605,0.441-1.142,0.608-1.599l8.185-21.302
	c0.15-0.29,0.283-0.571,0.384-0.833c0.101-0.268,0.189-0.496,0.268-0.686l0.808-2.117c0.329,0.042,0.636,0.114,0.897,0.218
	c1.644,0.627,2.913,1.969,3.833,4.022c0.952,2.07,1.114,3.925,0.484,5.563c-0.647,1.671-1.594,2.983-2.847,3.919
	c-1.254,0.936-2.842,1.563-4.752,1.878c-0.146,0.033-0.34,0.044-0.607,0.033c-0.374,0.075-0.73,0.143-1.059,0.212
	c-0.335,0.067-0.591,0.114-0.769,0.131l-0.563,0.769c0.006,0.44,0.134,0.794,0.379,1.061c2.323,1.594,3.917,3.56,4.809,5.911
	c1.014,2.482,1.036,4.986,0.077,7.496c-0.122,0.301-0.312,0.644-0.563,1.034c-0.256,0.381-0.563,0.811-0.919,1.284
	c-1.543-0.07-2.908-0.331-4.09-0.789c-0.763-0.292-1.621-0.674-2.573-1.147c-0.953-0.479-2-1.044-3.148-1.699
	C372.18,216.017,372.258,215.766,372.347,215.538z"/>
<path style="fill:#FFFFFF;" d="M430.968,251.561c-1.399,1.401-2.808,2.783-4.229,4.128l0.027,0.869
	c1.159,1.025,2.24,1.989,3.243,2.892c0.997,0.902,1.86,1.671,2.607,2.309c0.985,0.864,1.766,1.546,2.345,2.062
	c0.585,0.513,0.942,0.844,1.098,0.98c0.836,0.833,1.727,1.73,2.685,2.677c0.958,0.944,1.899,1.911,2.83,2.886l8.273-2.237
	l0.206-1.563c-1.142-0.451-2.272-0.986-3.387-1.615c-1.12-0.622-2.24-1.351-3.371-2.179c-0.613-0.412-1.387-0.953-2.323-1.626
	c-0.931-0.674-2.05-1.504-3.354-2.499c0.306-0.332,0.579-0.626,0.83-0.894c0.278-0.298,0.54-0.613,0.791-0.936l-0.045,0.044
	c2.162-2.504,3.51-4.033,4.039-4.604c4.786-5.128,8.825-9.401,12.129-12.816c3.298-3.424,5.855-6.014,7.666-7.783l0.179-1.09
	l-7.89-5.437l-0.863,0.12c-2.184,2.755-4.886,5.967-8.107,9.63c-3.214,3.663-6.98,7.805-11.293,12.426
	C433.72,248.736,432.355,250.157,430.968,251.561z"/>
<path style="fill:#FFFFFF;" d="M387.528,230.098l6.357,3.104l17.365-12.666l10.58,6.613c-0.947,4.747-1.833,8.894-2.657,12.443
	c-0.819,3.549-1.555,6.494-2.195,8.831l8.451,4.131l0.908-0.298c1.532-7.844,2.997-15.042,4.374-21.608
	c1.576-7.462,3.226-14.908,4.853-22.357l-10.067-6.187l-38.208,26.764L387.528,230.098z M424.912,210.902l-2.061,10.683l-6.97-4.426
	L424.912,210.902z"/>
<path style="fill:#FFFFFF;" d="M85.204,358.11c3.192,0.501,6.786,1.192,10.77,2.059c3.989,0.869,8.418,1.905,13.282,3.123
	c1.387,0.34,3.37,0.899,5.95,1.671c2.585,0.769,5.726,1.722,9.443,2.858l0.563-0.49c0.128-0.68,0.251-1.279,0.384-1.8
	c0.134-0.551,0.251-1.003,0.34-1.362c0.224-0.908,0.474-1.825,0.747-2.744c0.272-0.919,0.574-1.866,0.896-2.836l-0.412-0.861
	c-2.913-0.474-6.602-1.268-11.075-2.379l-3.499-0.872c0.919-0.487,1.693-0.902,2.329-1.251c0.635-0.349,1.119-0.622,1.465-0.833
	c3.728-1.97,8.764-3.947,15.104-5.945c-0.217-1.482-0.406-3.005-0.563-4.582c-0.15-1.574-0.234-3.201-0.234-4.883l-1.008-0.752
	c-4.396,2.139-8.224,3.872-11.477,5.203c-3.254,1.335-5.956,2.259-8.101,2.772c-0.507-1.513-1.015-2.847-1.526-4.006
	c-0.508-1.15-0.992-2.081-1.449-2.783c-1.481-2.307-3.61-3.805-6.385-4.496c-3.911-0.975-7.281-0.011-10.111,2.903
	c-1.215,1.164-2.234,2.541-3.048,4.125c-0.813,1.579-1.471,3.384-1.978,5.404c-0.245,0.986-0.468,2.477-0.669,4.465
	c-0.206,1.986-0.373,4.502-0.495,7.538l0.223,0.371L85.204,358.11z M94.336,344.246c1.069-0.404,2.179-0.643,3.326-0.713
	c1.153-0.067,2.307,0.042,3.454,0.326c2.535,0.635,4.558,1.872,6.067,3.719c1.158,1.426,2.25,3.543,3.269,6.362l-11.159-2.777
	c-1.063-0.27-2.401-0.646-4.006-1.131c-1.599-0.479-3.459-1.05-5.565-1.699C90.575,346.444,92.107,345.079,94.336,344.246z"/>
<path style="fill:#FFFFFF;" d="M490.825,386.052c0.278,1.284,0.558,2.693,0.83,4.223c0.278,1.535,0.523,3.087,0.747,4.666
	l0.534,0.507c1.627-0.142,3.182-0.29,4.658-0.44c1.482-0.153,2.813-0.278,3.994-0.381l7.677-0.671
	c4.998-0.434,9.684-0.816,14.051-1.137c4.374-0.32,8.396-0.582,12.063-0.774l0.361-0.772l-1.588-9.07l-0.83-0.298
	c-3.838,0.582-7.638,1.109-11.404,1.582c-3.766,0.474-7.465,0.964-11.137,1.187l-11.845,0.73c-0.06-0.201-0.1-0.44-0.122-0.725
	c-0.646-7.315,2.39-11.262,9.092-11.85c1.137-0.098,2.552-0.195,4.246-0.278c1.688-0.087,3.699-0.195,6.017-0.315
	c2.323-0.119,4.334-0.223,6.028-0.309c1.688-0.084,3.103-0.182,4.239-0.279c0.976-0.086,1.845-0.194,2.613-0.325
	c0.769-0.126,1.471-0.257,2.117-0.393l0.479-0.843l-1.348-9.095l-0.764-0.301c-2.624,0.432-5.192,0.827-7.699,1.17
	c-2.507,0.334-4.986,0.616-7.421,0.833c-0.897,0.072-2,0.142-3.326,0.192c-1.331,0.058-2.886,0.12-4.686,0.2
	c-1.788,0.073-3.353,0.148-4.674,0.223c-1.326,0.072-2.435,0.153-3.326,0.228c-2.881,0.251-5.332,2.265-7.404,5.989
	c-1.677,3.03-2.652,6.15-2.853,9.401c0.898,0.989,1.749,2.037,2.54,3.156c0.803,1.117,1.594,2.253,2.391,3.41l-3.493,0.064
	L490.825,386.052z"/>
<path style="fill:#FFFFFF;" d="M533.267,407.259c-0.25-0.779-0.479-1.459-0.685-2.044c-0.101-0.329-0.212-0.675-0.323-1.031
	c-0.123-0.356-0.212-0.663-0.273-0.908c-0.334-0.022-0.779-0.056-1.348-0.095c-0.524-0.033-1.081-0.056-1.649-0.056
	c-0.284-0.022-0.585-0.033-0.892-0.033c-0.301,0-0.618-0.011-0.947-0.033c-0.323-0.022-0.635-0.033-0.919-0.033
	c-0.284,0-0.568-0.006-0.853-0.028c-0.612,0-1.142-0.017-1.593-0.05c-0.407-0.034-0.77-0.056-1.098-0.078l-23.984-1.677
	c-0.529-0.039-1.844-0.195-3.95-0.463l0.062,0.011c-0.323-0.066-0.747-0.128-1.276-0.189c-0.523-0.057-0.991-0.117-1.398-0.185
	l-1.191,14.446c0,0,0.027,0.146,0.089,0.435c0.066,0.29,0.178,0.691,0.351,1.192c0.43,1.427,0.858,2.574,1.287,3.466
	c2.858,6.496,6.77,9.916,11.733,10.262c4.429,0.313,8.167-1.922,11.198-6.696c1.85,4.501,4.875,6.902,9.065,7.192
	c3.621,0.251,6.396-1.388,8.317-4.941c1.32-2.564,2.123-5.816,2.401-9.762c0.072-1.097-0.356-3.131-1.298-6.1
	C533.796,408.897,533.518,408.033,533.267,407.259z M530.56,413.905c-0.117,1.75-1.031,3.365-2.725,4.836
	c-1.699,1.521-3.426,2.212-5.181,2.095c-1.783-0.128-3.315-0.651-4.574-1.582c-1.265-0.919-2.329-2.251-3.188-3.994
	c-0.077-0.123-0.145-0.313-0.206-0.564c-0.178-0.34-0.356-0.651-0.512-0.952c-0.168-0.301-0.284-0.529-0.357-0.702l-0.896-0.307
	c-0.412,0.14-0.719,0.362-0.902,0.675c-0.842,2.68-2.257,4.785-4.245,6.323c-2.078,1.699-4.463,2.445-7.148,2.262
	c-0.329-0.028-0.707-0.105-1.148-0.234c-0.44-0.134-0.941-0.306-1.505-0.507c-0.378-1.493-0.528-2.875-0.44-4.14
	c0.056-0.814,0.167-1.743,0.346-2.791c0.178-1.053,0.412-2.223,0.707-3.51c0.284-0.022,0.552-0.022,0.797-0.011
	c0.239,0.021,0.468,0.039,0.668,0.05c0.774,0.017,1.472,0.039,2.084,0.084c0.652,0.044,1.221,0.089,1.705,0.122l22.764,1.594
	c0.323,0.06,0.624,0.1,0.914,0.122c0.284,0.017,0.529,0.033,0.729,0.051l2.257,0.155C530.56,413.315,530.587,413.621,530.56,413.905
	z"/>
<path style="fill:#FFFFFF;" d="M397.857,578.161c-1.426-2.875-2.612-5.377-3.56-7.499c-0.953-2.117-1.683-3.839-2.184-5.148
	c-0.263-0.68-0.474-1.27-0.646-1.772c-0.167-0.507-0.296-0.925-0.379-1.253l-1.164-0.719l-7.394,2.841
	c-0.262,6.809-0.546,12.747-0.863,17.817c-0.313,5.069-0.725,9.32-1.232,12.758c-4.803-4.68-8.964-8.83-12.469-12.43
	c-3.504-3.604-6.401-6.68-8.702-9.22c-0.863,0.378-1.671,0.713-2.424,1.002c-0.752,0.29-1.37,0.524-1.85,0.702
	c-0.439,0.173-0.779,0.317-1.03,0.435c-0.256,0.123-0.435,0.201-0.558,0.245c-0.557,0.218-1.32,0.479-2.301,0.78
	c-0.98,0.311-2.039,0.635-3.181,0.986l0.412,1.961c1.209,0.178,2.362,0.69,3.465,1.543c0.78,0.613,1.683,1.415,2.697,2.396
	c0.746,2.535,1.493,5.56,2.245,9.06c0.328,1.56,0.657,3.108,0.997,4.645c0.34,1.538,0.651,3.093,0.936,4.669
	c0.792,3.711,1.415,7.076,1.889,10.096c0.474,3.008,0.78,5.693,0.908,8.062l1.054,0.423l6.919-2.657l0.44-0.991
	c-0.602-1.093-1.126-2.123-1.565-3.098c-0.44-0.97-0.83-1.895-1.17-2.77c-0.574-1.51-1.137-3.17-1.666-4.97
	c-0.529-1.799-1.031-3.727-1.504-5.788l-2.101-9.393l10.278,10.018c2.329,2.256,4.452,4.373,6.374,6.352
	c1.922,1.972,3.621,3.755,5.092,5.337l1.928-0.68c0.017-4.017,0.179-8.73,0.496-14.145c0.317-5.421,0.785-11.527,1.409-18.341
	c2.646,4.735,5.75,11.761,9.321,21.065c0.456,1.192,0.874,2.284,1.259,3.275c0.385,1.003,0.669,1.8,0.858,2.407l0.847,0.435
	l8.101-3.32l1.259-0.479l0.251-1.125c-1.783-3.555-3.627-7.299-5.544-11.221C401.896,586.534,399.914,582.439,397.857,578.161z"/>
<path style="fill:#FFFFFF;" d="M432.605,540.076c-1.604-0.212-2.641-0.279-3.092-0.201c-0.234,0.062-0.529,0.144-0.892,0.257
	c-0.373,0.106-0.808,0.245-1.315,0.4c-3.438,1.32-6.624,2.908-9.55,4.769c-2.93,1.86-5.627,3.967-8.089,6.317
	c-0.552,0.558-0.986,1.003-1.287,1.326c-0.311,0.323-0.568,0.624-0.785,0.914c-0.735,2.039-1.254,4.256-1.555,6.663
	c-0.947,7.588,1.03,14.078,5.928,19.477c4.618,5.182,10.58,8.251,17.895,9.21c1.26,0.167,2.77-0.15,4.524-0.931
	c1.755-0.797,3.744-2.051,5.944-3.755c3.137-2.485,6.022-5.215,8.646-8.179c1.899-2.106,2.947-3.371,3.126-3.806
	c0.367-0.763,0.685-2.268,0.958-4.496c0.853-6.774-0.657-12.935-4.529-18.474C444.578,544.109,439.264,540.945,432.605,540.076z
	 M443.146,573.136c-0.368,2.941-1.025,4.991-1.955,6.14c-1.215,1.515-3.103,2.106-5.666,1.766
	c-6.268-0.819-11.36-3.438-15.282-7.844c-3.928-4.642-5.499-10.129-4.708-16.464c0.396-3.209,1.46-5.671,3.176-7.398
	c1.733-1.81,4.167-2.513,7.299-2.106c6.178,0.814,10.83,3.777,13.944,8.898C442.907,560.867,443.966,566.533,443.146,573.136z"/>
<path style="fill:#FFFFFF;" d="M330.892,579.414l-12.073,1.165l-15.076,46.308l0.976,0.881l7.259-1.404l6.518-21.482l12.987-1.137
	c2.194,4.557,4.066,8.568,5.609,12.045c1.544,3.477,2.78,6.396,3.711,8.752l9.655-1.871l0.567-0.819
	c-3.648-7.505-6.958-14.43-9.933-20.781C337.711,593.844,334.49,586.54,330.892,579.414z M320.245,599.147l3.599-10.897
	l4.997,10.207L320.245,599.147z"/>
<path style="fill:#FFFFFF;" d="M296.405,581.771c-0.334-0.056-0.713-0.122-1.131-0.2c-0.546-0.101-1.153-0.206-1.822-0.317
	c-0.635-0.117-1.343-0.273-2.134-0.446c-0.328-0.072-0.741-0.139-1.22-0.245c-0.474-0.106-0.947-0.2-1.41-0.283l-0.623,0.602
	c-0.263,2.206-0.563,4.602-0.903,7.176c-0.351,2.573-0.779,5.337-1.242,8.278c-0.189,1.26-0.379,2.552-0.607,3.855
	c-0.223,1.248-0.445,2.513-0.668,3.777c-0.195,1.086-0.374,2.162-0.535,3.209c-0.161,1.048-0.34,2.106-0.519,3.153
	c-0.685-1.03-1.359-2.122-2.021-3.275c-0.663-1.159-1.359-2.341-2.022-3.606l-4.341-8.156c-2.072-3.916-3.889-7.438-5.438-10.568
	c-1.543-3.125-2.813-5.894-3.815-8.323l-0.714-0.385l-6.535,0.663l-0.579,0.68l-0.941,7.549l-2.558,14.536l-3.922,20.012
	l0.563,0.874l9.221,1.042l0.802-0.501c0.022-1.605,0.162-3.365,0.413-5.287c0.256-1.922,0.585-4.039,0.991-6.346l0.997-5.66
	c0.189-1.054,0.396-2.268,0.646-3.655c0.251-1.426,0.563-3.03,0.914-4.83c0.089-0.457,0.161-0.925,0.239-1.388
	c0.095-0.501,0.206-1.02,0.346-1.56c4.401,7.182,7.973,13.516,10.725,19.021c2.752,5.504,4.686,10.257,5.788,14.251l0.618,0.568
	l7.06,0.468l0.585-0.418c0.312-2.233,0.746-5.024,1.32-8.362c0.563-3.343,1.164-7.181,1.928-11.499l0.719-4.089
	c0.585-3.32,1.186-6.586,1.794-9.812c0.612-3.226,1.242-6.401,1.871-9.526l-0.361-0.852
	C297.274,581.883,296.784,581.832,296.405,581.771z"/>
<path style="fill:#FFFFFF;" d="M194.752,539.669c-0.98-0.05-1.978-0.134-3.003-0.262c-1.025-0.134-2.117-0.167-3.242-0.368
	l-6.362-1.113l-6.424,9.164l-11.271,14.947l-6.385,7.834l11.003,8.769c7.616,2.062,13.645,2.998,18.073,2.658
	c6.619-0.508,11.828-3.382,15.649-8.452c1.944-2.585,3.153-5.354,3.622-8.313c0.468-2.952,0.122-6.128-0.976-9.526
	C203.577,549.24,200.028,544.132,194.752,539.669z M191.71,571.62c-2.406,3.198-4.991,5.142-7.755,5.839
	c-3.231,0.813-6.29,0.134-9.182-2.045c-0.713-0.535-1.432-1.181-2.145-1.934c-0.714-0.746-1.432-1.638-2.15-2.662
	c0.206-0.268,0.406-0.547,0.612-0.813c0.229-0.307,0.429-0.607,0.602-0.903l-0.033,0.051c1.226-1.85,2.012-2.998,2.346-3.438
	l4.651-6.173c0.591-0.786,1.332-1.733,2.218-2.842c0.898-1.114,1.956-2.418,3.176-3.894c1.248-1.51,2.284-2.779,3.114-3.81
	c0.824-1.03,1.477-1.821,1.944-2.373c1.649,1.989,2.941,3.989,3.878,6c0.936,2.012,1.621,4.006,1.966,5.995
	C195.766,563.375,194.657,567.715,191.71,571.62z"/>
<path style="fill:#FFFFFF;" d="M252.52,574.483l-3.677-4.15c-5.482,4.134-11.349,7.839-17.611,11.115
	c-1.242-3.493-2.29-6.992-3.159-10.497c-0.863-3.51-1.531-7.075-2.017-10.696c-2.2-0.095-4.195-0.2-5.983-0.317
	c-1.788-0.117-3.393-0.262-4.808-0.43l-0.535,0.257l-0.373,0.668c1.448,4.613,2.735,9.004,3.86,13.182
	c1.114,4.19,2.067,8.224,2.858,12.123c-0.089,0.189-0.167,0.391-0.234,0.591c-0.066,0.206-0.145,0.407-0.228,0.601
	c-0.207,0.558-0.413,1.075-0.619,1.544c-0.211,0.462-0.39,0.874-0.546,1.22c-1.042,2.34-2.128,4.686-3.275,7.048
	c-1.143,2.356-2.335,4.663-3.565,6.908l0.322,0.841l8.58,3.822l1.081-0.223l8.914-20.503c2.229-1.437,5.092-3.158,8.602-5.17
	c3.499-2.006,7.594-4.278,12.263-6.808L252.52,574.483z"/>
<path d="M287.308,429.817c1.894,4.066,11.722,16.116,20.858,20.396c-5.126,9.12-8.725,19.811-8.864,29.293
	c-0.134,8.613,5.711,16.368,6.897,24.903c0.352,2.552-0.139,6.151-2.412,7.354c-6.006,3.198-12.502,7.532-19.154,12.513
	c-7.917,5.928-11.711,9.806-27.466,9.934c-5.477,0.045-11.717-0.724-17.171-2.735c-0.479,0.523-1.292,0.897-2.585,0.836
	c-3.588-0.167-3.944,0.233-5.604,0.88c-1.655,0.647,0.435-2.501,2.725-3.788c0.172-0.089,0.34-0.184,0.507-0.268
	c-0.574-0.346-1.131-0.713-1.672-1.092c-0.49,0.39-1.231,0.651-2.295,0.624c-3.594-0.111-3.95,0.289-5.6,0.969
	c-1.644,0.669,0.395-2.512,2.669-3.833c0.602-0.351,1.215-0.635,1.811-0.857c-0.468-0.546-0.896-1.114-1.292-1.705
	c-0.474,0.268-1.126,0.435-1.989,0.401c-3.588-0.106-3.939,0.301-5.588,0.97c-1.649,0.68,0.39-2.508,2.663-3.833
	c1.098-0.636,2.256-1.07,3.253-1.254c-0.095-0.63-0.077-1.265,0.045-1.889c-0.317-0.006-0.663-0.056-1.053-0.144
	c-3.482-0.881-3.917-0.564-5.672-0.257c-1.749,0.313,0.92-2.362,3.427-3.17c2.072-0.663,4.173-0.707,5.192-0.161
	c3.248-4.023,9.794-7.321,14.48-8.642c4.14-1.17,10.078,0.34,14.658-1.187c1.699-0.563,3.537-1.644,2.841-3.287
	c-3.481-8.278-6.29-16.914-6.311-25.126C254.57,459.817,272.254,439.483,287.308,429.817"/>
<path d="M287.553,328.686c-4.273,5.58-8.051,11.836-9.878,19.452c-0.201-0.073-2.469-1.003-2.675-1.078
	c-25.55-9.602-45.517-32.876-44.948-48.286c-0.613,0.07-1.276-0.114-1.917-0.73c-1.978-1.911-2.474-1.808-3.899-2.187
	c-1.427-0.371,2.027-1.526,4.278-1.276c0.791,0.083,1.516,0.262,2.123,0.49c0.089-0.298,0.184-0.588,0.289-0.875
	c-0.4-0.089-0.818-0.301-1.23-0.688c-1.995-1.889-2.485-1.786-3.911-2.145c-1.432-0.365,2.011-1.552,4.268-1.323
	c1.092,0.111,2.072,0.398,2.78,0.774c0.145-0.178,0.295-0.354,0.445-0.524c-0.29-0.133-0.574-0.326-0.853-0.618
	c-1.922-1.961-2.412-1.875-3.827-2.293c-1.421-0.415,2.066-1.471,4.311-1.153c1.633,0.228,2.981,0.838,3.555,1.518
	c0.201-0.098,0.401-0.175,0.613-0.25c-1.142-1.764-1.66-1.85-2.825-2.51c-1.281-0.729,2.352-0.953,4.463-0.131
	c1.777,0.691,3.075,1.792,3.242,2.652c5.12,1.535,10.452,7.321,12.831,13.936c2.474,6.875,6.914,13.424,12.44,18.199
	C272.143,323.892,281.636,326.003,287.553,328.686"/>
<path d="M348.825,267.38c-0.272,0.086-0.674-0.543-0.457-0.735c1.521-1.329,3.182-2.619,5.081-3.31
	c0.73-0.267,1.705,0.086,2.234,0.655c0.406,0.429,0.629,1.741,0.039,1.769C353.461,265.868,351.109,266.673,348.825,267.38
	 M318.15,274.62c-1.031,0.289-1.326-0.267-2.385-0.429c-0.947-0.148-2.809,0.064-3.488-0.616c-2.044-2.047-0.813-4.267-1.102-5.699
	c-0.117-0.61-1.137-0.633-1.466-1.162c-0.15-0.234-0.027-0.771,0.246-0.799c1.442-0.131,2.707,0.301,3.426,1.78
	c0.931,1.922,2.914,3.256,4.523,4.655c0.407,0.354,1.354,0.028,1.472,0.554C319.537,273.64,318.868,274.414,318.15,274.62
	 M388.626,495.529c-11.638-12.001-16.998-24.569-16.986-38.933c0.033-29.119-9.215-41.382-19.472-48.992
	c12.385-29.937,20.357-60.556,23.611-92.069c1.337-13.065-4.173-26.876-10.201-38.052c0.451-2.532,0.896-5.058,1.348-7.593
	c1.538-13.388-12.072-15.134-20.15-7.936c-0.496-4.488,3.348-5.744,6.156-6.081c6.1-0.735-2.597-6.747-6.936-6.321
	c-4.435,0.435-9.583,5.482-12.775,5.825c-4.925,0.538-13.839-0.125-18.418,1.774c-3.861,1.596-6.719,6.599-10.558,8.26
	c-5.137,2.22-11.61,1.164-17.004,2.665c-1.788,0.496-3.37,1.552-4.195,3.212c-0.513,1.028,1.822,1.192,1.855,2.34
	c0.234,8.356,3.131,12.967,13.561,12.983c5.855,0.017,8.607-2.563,15.07-2.078c4.407,0.332,10.034,1.083,10.078,4.908
	c0.123,9.817-24.458,4.449-24.497,9.065c-0.017,1.825,3.159,1.73,3.349,2.081c1.482,2.665,4.212,5.329,7.198,5.66
	c2.902,0.326,5.565-2.253,8.374-2.315c2.128-0.047,4.272,0.719,4.468,2.833c0.323,3.7-19.082,7.48-25.733,13.58
	c-10.318,9.451-17.533,18.878-18.965,36.505c-10.819,4.724-24.53,9.521-37.907,13.332c-0.189,0.056-19.432-10.252-28.363-6.134
	c-0.813-0.25-1.972-0.301-3.226-0.083c-2.233,0.376-5.236,2.44-3.766,2.407c1.337-0.033,1.827-0.223,3.699,0.691
	c-0.101,0.187-0.201,0.376-0.29,0.577c-0.818-0.343-2.346-0.178-3.922,0.49c-2.078,0.883-4.535,3.576-3.104,3.206
	c1.427-0.37,1.811-0.696,4.463,0c0.612,0.159,1.12,0.125,1.537-0.036c-0.038,0.275-0.072,0.543-0.105,0.805
	c-0.857-0.066-2.061,0.195-3.281,0.767c-2.045,0.963-4.391,3.751-2.976,3.326c1.41-0.429,1.777-0.766,4.457-0.173
	c0.791,0.178,1.41,0.036,1.878-0.273c0.062,0.365,0.134,0.719,0.223,1.067c-0.752,0.067-1.654,0.312-2.557,0.73
	c-2.061,0.947-4.43,3.713-3.009,3.304c1.415-0.418,1.782-0.752,4.463-0.137c1.142,0.268,1.933-0.145,2.434-0.76
	c3.231,5.323,10.245,7.532,13.722,7.872c18.613,1.838,36.938-0.485,55.635-1.173c1.214,18.376,5.571,38.706,15.254,49.364
	c6.607,7.275,13.75,11.32,20.631,16.98c3.047,2.507,0.83,9.9,1.175,13.839c2.34,26.809,15.388,35.444,31.873,34.82
	c2.519-0.101,5.398,3.655,4.273,5.905c-1.465,2.903-4.039,4.123-7.108,5.115c-7.878,2.518-20.52,9.343-23.539,16.758
	c-1.137,0.19-2.635,0.908-3.973,1.994c-2.05,1.65-3.576,5.115-2.056,4.195c1.526-0.925,1.816-1.376,5.382-1.811
	c0.028-0.011,0.051-0.011,0.078-0.011c0.101,0.501,0.257,0.991,0.474,1.448c-0.63,0.5-1.275,1.125-1.855,1.844
	c-1.644,2.056-2.4,5.766-1.103,4.534c1.287-1.22,1.471-1.722,4.863-2.919c0.307-0.107,0.568-0.223,0.803-0.352
	c0.501,0.368,1.053,0.714,1.648,1.048c-0.379,0.356-0.752,0.752-1.098,1.186c-1.643,2.056-2.4,5.761-1.108,4.535
	c1.298-1.226,1.482-1.728,4.869-2.925c0.758-0.268,1.282-0.613,1.633-1.003c0.563,0.178,1.153,0.351,1.749,0.513
	c-0.111,0.122-0.223,0.245-0.328,0.379c-1.678,2.027-2.49,5.727-1.176,4.518c1.31-1.203,1.499-1.704,4.908-2.841
	c0.78-0.262,1.314-0.618,1.672-1.009c10.63,1.66,23.265,0.714,26.936-1.438c13.209-7.709,18.185-27.788,24.893-38.691
	C388.732,500.766,390.152,497.105,388.626,495.529"/>
<path style="fill:#EE3124;" d="M311.436,287.665c-8.685-0.649-16.347,7.382-24.932,7.88c-3.761,0.214-7.811-1.593-10.513-4.354
	c-1.526-1.552-2.686-0.195-1.254,1.574c2.897,3.571,7.728,5.672,12.19,5.722c10.352,0.109,17.8-7.114,24.932-6.49
	c2.501,0.223,4.841,0.512,7.086,0.872c1.588-0.621,2.68-1.523,2.908-2.841C318.534,288.67,314.824,287.915,311.436,287.665"/>
</svg>
