<svg height="1000" viewBox="0 0 1000 1000" width="1000" xmlns="http://www.w3.org/2000/svg"><g transform="matrix(4.3981481 0 0 4.3981481 -726.14745 336.45833)"><path d="m168.708-51.074-3.605 2.017.23 4.125c2.316 41.405 12.179 78.019 29.313 108.823 16.079 28.9 39.01 53.504 68.159 73.123l3.695 2.486 3.693-2.486c29.149-19.619 52.08-44.223 68.158-73.123 17.135-30.804 26.997-67.416 29.313-108.823l.231-4.125-3.604-2.017c-29.718-16.634-63.534-25.426-97.791-25.426-34.259 0-68.074 8.792-97.792 25.426" fill="#0081c2"/><path d="m361.993-46.972c-29.017-16.243-62.038-24.827-95.493-24.827-33.457 0-66.479 8.584-95.496 24.827l-1.045.583.067 1.196c2.277 40.689 11.944 76.622 28.73 106.798 15.713 28.248 38.145 52.305 66.675 71.506l1.069.721 1.068-.721c28.529-19.201 50.961-43.258 66.676-71.506 16.786-30.177 26.45-66.109 28.728-106.798l.066-1.196z" fill="#fff"/><path d="m330.896 59.744c-15.219 27.356-36.889 50.711-64.396 69.449-27.509-18.738-49.179-42.094-64.397-69.449-16.337-29.366-25.804-64.337-28.17-103.945 28.192-15.543 60.168-23.768 92.567-23.768 32.398 0 64.373 8.225 92.565 23.768-2.365 39.608-11.833 74.579-28.169 103.945" fill="#0081c2"/><path d="m354.173-41.497c-26.854-14.242-57.067-21.771-87.673-21.771-10.86 0-21.67.954-32.299 2.812.027.482.061.764.061.764s3.644 48.422 22 82.518c18.916 35.141 51.624 61.359 51.624 61.359s.186.16.529.444c6.915-8.541 13.051-17.604 18.374-27.173 15.578-28.003 24.771-61.287 27.384-98.953" fill="#fff"/><path d="m266.561-23.814c-.663-.415-1.448-.702-2.345-.879v-.222c.853-.156 1.639-.529 2.369-1.116.735-.593 1.104-1.391 1.104-2.392 0-1.647-.905-2.782-2.708-3.41-.953-.331-2.151-.497-3.596-.497h-7.493v.619c.702.036 1.186.13 1.455.279.449.25.677.724.677 1.436v11.733c0 .712-.244 1.19-.723 1.447-.286.149-.756.233-1.409.255v.617h7.803c2.059 0 3.71-.414 4.945-1.241 1.241-.835 1.865-1.927 1.865-3.271.001-1.437-.648-2.554-1.944-3.358m-6.665-6.61c0-.439.099-.745.292-.908.2-.177.548-.261 1.053-.261.955 0 1.604.313 1.933.947.337.63.513 1.408.513 2.333 0 1.247-.256 2.114-.774 2.599-.512.492-1.52.735-3.017.735zm3.727 12.762c-.455.628-1.259.937-2.399.937-.562 0-.942-.172-1.136-.522-.118-.199-.187-.503-.192-.935v-6.059c1.314-.026 2.282.137 2.898.485 1.022.568 1.528 1.713 1.528 3.432 0 1.151-.23 2.042-.699 2.662m16.972.347c1.009-1.169 1.515-2.563 1.515-4.178 0-1.642-.517-3.043-1.539-4.195-1.016-1.151-2.332-1.728-3.928-1.728-1.572 0-2.882.565-3.923 1.697-1.034 1.125-1.552 2.537-1.552 4.226 0 1.678.517 3.087 1.552 4.224 1.035 1.127 2.339 1.692 3.923 1.692 1.621 0 2.942-.579 3.952-1.738m-5.6-.617c-.175-.676-.261-1.869-.261-3.561 0-1.677.086-2.861.274-3.566.274-1.047.822-1.577 1.64-1.577.754 0 1.252.411 1.502 1.222.262.808.395 2.112.395 3.921 0 1.812-.126 3.125-.361 3.928-.25.806-.762 1.207-1.541 1.207-.825 0-1.372-.525-1.648-1.574m15.003 2.355c.629 0 1.229-.106 1.789-.317 1.054-.411 1.977-1.166 2.77-2.263l-.451-.412c-.398.438-.729.746-.998.907-.447.286-.989.427-1.627.427-1.021 0-1.832-.511-2.431-1.539-.6-1.027-.899-2.295-.899-3.809 0-1.066.158-2.011.476-2.831.311-.829.841-1.241 1.597-1.241.26 0 .492.079.696.237.201.157.301.449.301.874 0 .157-.006.309-.02.447-.007.136-.007.243-.007.313 0 .66.213 1.119.649 1.371.23.141.499.213.804.213.461 0 .836-.15 1.129-.461.3-.306.449-.673.449-1.093 0-.78-.38-1.418-1.123-1.913-.748-.499-1.621-.749-2.643-.749-1.746 0-3.143.6-4.19 1.786-1.041 1.187-1.565 2.623-1.565 4.312 0 1.603.491 2.96 1.483 4.071.986 1.117 2.258 1.67 3.811 1.67m11.315-.946c-.435-.088-.728-.206-.883-.356-.158-.15-.238-.486-.238-1.016v-6.49c0-.145.219-.405.662-.792.448-.387.883-.58 1.303-.58.561 0 .935.249 1.121.744.113.279.168.692.168 1.245v5.873c0 .53-.079.866-.236 1.016-.154.15-.455.268-.891.356v.579h5.697v-.579c-.435-.095-.747-.227-.936-.394-.186-.168-.274-.529-.274-1.072v-5.825c0-1.305-.299-2.224-.909-2.758-.61-.547-1.377-.819-2.308-.819-.692 0-1.309.165-1.858.499-.547.321-1.065.786-1.565 1.384v-6.822h-4.688v.595c.511.06.854.192 1.028.389.175.188.263.527.263 1.006v12.351c0 .549-.106.922-.319 1.11-.206.181-.529.299-.972.356v.579h5.834v-.579m18.994-1.858v-8.726h-4.832v.589c.61.024 1.009.144 1.209.346.206.195.307.553.307 1.053v6.881c-.325.316-.593.535-.806.673-.366.243-.746.368-1.135.368-.611 0-1.015-.202-1.221-.604-.12-.23-.182-.586-.182-1.078v-8.227h-4.564v.589c.469.107.792.237.954.393.169.156.25.492.25 1.006v6.12c0 1.272.336 2.157 1.01 2.655.679.493 1.409.744 2.189.744.717 0 1.407-.183 2.077-.542.371-.206.851-.556 1.427-1.055v1.597c.859-.268 1.483-.431 1.869-.496.395-.072 1.341-.178 2.844-.321v-.555c-.556-.048-.924-.164-1.115-.357-.188-.196-.281-.549-.281-1.053m20.394 1.565c-.189-.163-.273-.517-.273-1.079v-6.097c0-1.178-.333-2.039-.984-2.58-.651-.547-1.397-.819-2.253-.819-.778 0-1.502.232-2.164.699-.416.288-.853.704-1.315 1.264h-.163c-.268-.591-.554-1.014-.854-1.277-.537-.454-1.289-.686-2.264-.686-.86 0-1.639.266-2.345.792-.374.293-.767.702-1.171 1.232v-1.74h-4.595v.589c.516.065.865.189 1.047.367.181.182.268.532.268 1.032v7.13c0 .574-.13.969-.399 1.186-.168.13-.467.224-.915.281v.579h5.803v-.579c-.442-.088-.733-.206-.892-.356-.148-.15-.218-.486-.218-1.016v-6.49c0-.099.211-.354.637-.758.429-.408.885-.614 1.385-.614.549 0 .902.175 1.077.535.175.354.264.837.264 1.454v5.873c0 .549-.096.907-.274 1.066-.182.148-.486.249-.912.306v.579h5.675v-.579c-.437-.088-.736-.206-.892-.356-.155-.15-.236-.486-.236-1.016v-6.49c0-.151.229-.412.686-.792.467-.387.909-.58 1.327-.58.518 0 .873.175 1.055.522.187.346.279.837.279 1.467v5.873c0 .542-.079.895-.261 1.053-.169.151-.475.256-.917.319v.579h5.756v-.579c-.464-.046-.779-.145-.962-.294m-58.52 29.223v-14.186h-.436l-6.285 2.709v.635c.461-.182.822-.306 1.09-.393.427-.137.736-.206.937-.206.38.002.642.13.779.39.143.26.217.701.217 1.316v9.587c0 .971-.174 1.626-.529 1.972-.361.34-1.172.508-2.432.508v.599h9.334v-.599c-1.196 0-1.945-.156-2.238-.484-.288-.32-.437-.937-.437-1.848" fill="#0081c2"/><path d="m293.027 5.368v-.168c.824-.294 1.472-.617 1.947-.985.846-.655 1.27-1.476 1.27-2.459 0-.956-.417-1.782-1.247-2.478-.829-.706-2.019-1.057-3.578-1.057-1.678 0-3.036.419-4.069 1.264-1.037.846-1.555 1.867-1.555 3.074 0 .434.05.845.155 1.245.112.386.337.81.669 1.274.273.388.697.826 1.277 1.3.573.474.959.73 1.153.78v.229c-.942.305-1.659.669-2.151 1.08-.91.738-1.358 1.745-1.358 3.018 0 1.384.541 2.437 1.626 3.147 1.086.706 2.264 1.057 3.535 1.057 1.715 0 3.117-.444 4.223-1.338 1.102-.89 1.65-2.131 1.65-3.734 0-1.203-.372-2.263-1.122-3.17-.436-.533-1.247-1.226-2.425-2.079m-4.004-4.376c0-.584.188-1.067.563-1.46.374-.388.854-.583 1.446-.583.817 0 1.397.295 1.727.876.331.577.499 1.314.499 2.213 0 .639-.1 1.183-.292 1.629-.112.274-.356.66-.718 1.155-.674-.316-1.278-.72-1.82-1.203-.936-.827-1.405-1.7-1.405-2.627m3.443 13.239c-.424.431-.922.644-1.496.644-1.01 0-1.715-.524-2.114-1.566-.217-.559-.33-1.188-.33-1.886 0-.779.113-1.454.345-2.027.144-.387.448-.936.921-1.656 1.179.758 1.965 1.361 2.364 1.799.636.705.952 1.546.952 2.532-.001 1.008-.212 1.731-.642 2.16m15.137-16.01h-1.98l-1.012 1.298-3.342 4.415-2.586 3.685c-.375.526-.6.848-.674.96-.074.106-.138.227-.207.365v2.834h6.205v3.56h3.596v-3.56h1.555v-2.776h-1.555zm-3.578 10.781h-5.032v-.23l4.862-6.853h.17zm13.899-3.634v-.168c.828-.294 1.473-.617 1.946-.985.847-.655 1.276-1.476 1.276-2.459 0-.956-.416-1.782-1.253-2.478-.829-.706-2.02-1.057-3.572-1.057-1.677 0-3.037.419-4.07 1.264-1.043.846-1.561 1.867-1.561 3.074 0 .434.052.845.156 1.245.111.386.338.81.667 1.274.281.388.704.826 1.279 1.3.572.474.96.73 1.153.78v.229c-.941.305-1.652.669-2.151 1.08-.91.738-1.359 1.745-1.359 3.018 0 1.384.543 2.437 1.627 3.147 1.087.706 2.263 1.057 3.541 1.057 1.709 0 3.112-.444 4.215-1.338 1.104-.89 1.653-2.131 1.653-3.734 0-1.203-.374-2.263-1.116-3.17-.437-.533-1.247-1.226-2.431-2.079m-4.003-4.376c0-.584.193-1.067.563-1.46.373-.388.853-.583 1.443-.583.824 0 1.398.295 1.729.876.33.577.498 1.314.498 2.213 0 .639-.098 1.183-.293 1.629-.111.274-.348.66-.71 1.155-.679-.316-1.284-.72-1.827-1.203-.937-.827-1.403-1.7-1.403-2.627m3.442 13.239c-.418.431-.917.644-1.491.644-1.016 0-1.722-.524-2.119-1.566-.22-.559-.324-1.188-.324-1.886 0-.779.111-1.454.338-2.027.143-.387.452-.936.921-1.656 1.179.758 1.964 1.361 2.364 1.799.641.705.96 1.546.96 2.532 0 1.008-.22 1.731-.649 2.16" fill="#0081c2"/><g fill="#fff"><path d="m238.426 18.206v-3.183h-6.066v-10.796c0-2.65 1.599-4.068 3.033-4.479.76-.216 2.004-.054 2.546.327.674.471.431.971.163 1.459-.271.489-1.248.907-1.356 3.834-.109 2.924 1.733 3.685 4.483 3.74 2.75.052 3.847-2.007 3.957-3.36.108-1.356-.163-6-4.929-7.407-4.767-1.409-8.424-1.409-13.192 1.459-1.245.751-2.169 1.718-2.834 2.75-1.104 1.713-1.756 3.184-1.756 6.233v6.24h-4.051v3.183h4.05v63.76c3.128 4.002 6.422 7.894 9.886 11.669v-75.429z"/><path d="m285.078 86.023c-3.049 9.15-8.563 14.486-19.344 14.486-3.614 0-6.238-1.475-6.238-3.513v-38.7c0-2.575 2.587-3.946 6.639-3.946v-1.465h-25.679v1.465c4.052 0 6.639 1.371 6.639 3.946v38.701c0 2.573-2.587 3.946-6.639 3.946v1.466h43.375l3.074-16.654zm-64.556-119.385v1.437c6.188 0 7.249 2.212 5.755 5.988l-10.519 26.585-11.717-26.461c-1.809-4.085-1.161-6.113 5.73-6.113v-1.437h-24.713v1.437c2.261 0 4.155.724 6.529 6.087l19.134 43.212h1.535l17.088-43.187c1.615-4.084 2.941-6.112 6.428-6.112v-1.437h-15.25"/></g></g></svg>