<svg enable-background="new 0 0 612 792" viewBox="0 0 612 792" xmlns="http://www.w3.org/2000/svg"><path d="m431.784 112.912c14.04 0 25.2 5.472 33.12 14.328 8.208 9.072 12.528 21.6 12.528 35.064v313.92c0 10.152-.864 17.784-3.672 25.272-2.88 7.56-7.272 13.968-14.4 21.744l-138.096 150.48c-7.344 8.064-22.032 8.064-29.376 0l-138.096-150.48c-7.128-7.776-11.52-14.184-14.4-21.744-2.808-7.488-3.672-15.12-3.672-25.272v-313.92c0-13.464 4.32-25.992 12.528-35.064 7.92-8.856 19.08-14.328 33.12-14.328z"/><path d="m431.784 126.304c20.592 0 32.256 16.488 32.256 36v313.92c0 17.352-2.664 24.984-14.544 37.944l-138.024 150.48c-2.448 2.736-7.344 2.736-9.792 0l-138.024-150.48c-11.88-12.96-14.544-20.592-14.544-37.944v-313.92c0-19.512 11.664-36 32.256-36z" fill="#fff"/><path d="m184.896 139.696h-3.528c-13.176 0-18.864 10.584-18.864 22.608v96.624l267.984 256.248 9.216-10.08c9.504-10.368 10.944-14.832 10.944-28.872v-82.368z"/><path d="m374.688 576.016 33.624-36.72v-26.856l-33.624-32.112z"/><path d="m332.208 622.312 33.624-36.72v-113.76l-33.624-32.184zm-169.704-344.88v215.784l33.48 36.504v-220.248zm84.816 308.232 33.624 36.648v-231.624l-33.624-32.184zm203.184-445.968h-33.336v203.688l33.48 31.968zm-169.56 0h-33.624v41.184l33.624 32.184zm84.888 0h-33.624v122.4l33.624 32.184z"/><path d="m340.992 599.632 15.984-17.424v-106.56l-15.984-15.336zm-169.632-301.536v191.664l15.84 17.28v-193.824zm84.816 284.112 15.984 17.424v-205.2l-15.984-15.264zm185.544-433.728h-15.768v191.088l15.84 15.12zm-169.56 0h-15.984v28.656l15.984 15.264zm84.816 0h-15.984v109.872l15.984 15.264z" fill="#fff"/><path d="m289.8 631.96 16.776 18.288 16.776-18.36v-200.664l-33.552-32.184z"/><path d="m204.84 539.368 33.624 36.648v-225.936l-33.624-32.184z"/><path d="m238.464 139.696h-33.624v.576l33.624 32.184z"/><path d="m323.352 139.696h-33.552v81.792l33.552 32.184z"/><path d="m408.312 139.696h-33.624v163.008l33.624 32.184z"/><g fill="#fff"><path d="m326.16 379.24c-3.384 3.096-3.096 8.928.648 13.032 3.672 4.032 9.432 4.824 12.816 1.872 3.384-3.096 3.096-8.928-.576-13.032-3.744-4.104-9.504-4.896-12.888-1.872z"/><path d="m242.136 246.4c-2.736 2.808-6.336.432-8.568-1.728l-2.808-2.664 6.48-6.768 2.808 2.664c2.232 2.16 4.824 5.616 2.088 8.496zm-14.976 19.44c-3.24 3.312-7.704.072-10.224-2.304l-3.528-3.384 7.416-7.776 3.6 3.384c2.52 2.448 5.904 6.768 2.736 10.08zm35.784-2.736c9.936-10.368 2.16-23.184-6.336-31.32l-27.864-26.784-46.368 48.312 27.792 26.712c9.144 8.712 23.544 18.792 34.776 7.056 6.984-7.272 4.752-15.336-.72-22.752 6.264 4.176 13.32 4.464 18.72-1.224z"/><path d="m389.448 423.736c-5.832-5.544-8.136-13.464-2.016-19.8 6.192-6.48 14.616-4.392 20.52 1.296 4.536 4.392 6.984 9.864 7.92 15.984l17.064-17.712c-5.256-10.872-14.616-20.232-25.416-25.488-9.072-4.464-19.872-5.904-29.52-2.376-4.464 1.656-8.424 4.248-11.88 7.848-10.152 10.656-10.728 23.976-5.832 37.224 1.224 3.024 2.88 6.048 4.968 9.072 5.904 8.424 13.968 15.048 23.328 19.44l18.144-17.568c-6.336-1.224-12.528-3.312-17.28-7.92z"/><path d="m324.72 331.504c-4.752 2.376-9.432 4.968-13.608 8.136l-.432-.36c3.455-4.248 5.904-9.216 8.136-14.184l10.584-23.4-22.68-21.744-23.976 69.624 19.44 18.72 68.4-27.072-22.248-21.312z"/><path d="m254.808 323.224c3.744 4.104 9.504 4.896 12.888 1.872 3.384-3.096 3.096-8.928-.648-13.032s-9.504-4.896-12.816-1.872c-3.96 3.528-2.52 9.576.576 13.032z"/><path d="m404.496 455.488c-3.384 3.096-3.096 8.856.576 12.96 3.744 4.104 9.504 4.968 12.888 1.872 3.384-3.024 3.096-8.856-.648-12.96s-9.504-4.968-12.816-1.872z"/></g></svg>