<svg height="1000" viewBox="0 0 1000 1000" width="1000" xmlns="http://www.w3.org/2000/svg"><g transform="matrix(2.0389635 0 0 2.0389635 -5.374708 -7.674659)"><path d="m249.105 469.687c-30.746-2.284-58.825-13.692-87.52-37.813s-58.008-60.953-91.22-114.084c-21.79-34.858-42.878-76.171-67.729-126.587l246.469-93.887 246.469 93.887c-24.851 50.416-45.94 91.729-67.73 126.587-33.212 53.131-62.524 89.963-91.22 114.084-28.694 24.121-56.773 35.529-87.519 37.813z"/><path d="m249.105 3.764c29.885.001 76.759 4.944 121.477 18.958 25.572 8.014 67.217 27.554 75.994 48.484 13.52 32.247-24.076 112.608-38.386 142.145-15.969 32.961-34.559 64.881-54.387 94.064-14.262 20.994-29.774 40.728-46.886 58.571-19.865 20.717-40.339 32.535-57.812 32.322-17.475.224-37.949-11.595-57.813-32.311-17.111-17.845-32.623-37.579-46.886-58.571-19.826-29.183-38.418-61.103-54.386-94.063-14.31-29.539-51.906-109.901-38.386-142.146 8.776-20.931 50.421-40.472 75.994-48.485 44.717-14.014 91.592-18.956 121.477-18.968z" fill="#00a94f"/><path d="m249.105 379.435c-21.466-.42-47.311-25.812-72.401-59.482-16.05-21.54-30.82-42.508-44.304-66.612-13.068-23.363-24.931-46.403-35.588-70.388-10.79-24.285-19.473-47.813-24.264-68.729-4.213-18.403-5.127-28.075-.784-36.712 7.639-15.191 39.873-30.912 74.402-40.963 39.132-11.392 81.665-15.336 102.938-14.89 21.273-.456 63.807 3.487 102.938 14.88 34.529 10.052 66.762 25.773 74.401 40.963 4.343 8.636 3.43 18.309-.784 36.713-4.79 20.916-13.473 44.443-24.263 68.729-10.658 23.984-22.521 47.025-35.589 70.388-13.483 24.105-28.252 45.073-44.303 66.612-25.087 33.669-50.933 59.061-72.399 59.491z" fill="none" stroke="#fff" stroke-miterlimit="1" stroke-width="6.1003"/><path d="m219.05 95.251c-.108 1.259-.209 2.52-.303 3.782-2.384 32.16 15.002 51.296 15.345 90.818.138 16.068-3.857 35.51-11.531 60.565 26.544-13.626 55.206 12.611 83.893-3.437 19.119-10.696 24.759-37.65 24.523-57.509-.354-29.824-11.691-59.761-36.695-77.087-21.408-14.836-49.56-20.545-75.232-17.132zm57.148-36.001c38.281 7.118 61.735 21.619 77.301 46.516 15.337 24.531 17.45 59.941 11.188 92.665-5.782 30.219-20.373 66.638-47.01 86.451-13.952 10.379-31.212 16.201-52.244 14.19-14.553-1.393-25.839-11.179-54.692-11.699-11.29-.203-25.271 1.593-43.19 4.99 7.673-12.276 12.102-28.302 14.213-43.747 2.178-15.926 2.399-32.535-1.186-48.28-4.745-20.836-14.052-33.675-15.064-59.357-.395-10.005.342-20.33 2.193-30.464-19.944 8.211-42.614 21.263-69.905 46.776.221-44.659 40.222-74.675 85.826-89.497 13.92-22.518 35.782-38.229 65.478-37.426-11.025 7.35-17.948 17.064-22.398 28.031 16.309-1.9 33.304-2.16 49.49.851z" fill="#fffffc" stroke="#fff" stroke-miterlimit="1" stroke-width=".0031"/><path d="m345.701 331.197 11.91-17.01 42.732 8.168-.158-.29-32.269-22.596 7.602-10.857 43.61 30.536-11.741 16.769-43.66-8.639 33.27 23.476-7.686 10.978zm-30.67 37.623 27.147-30.152 7.715 6.947-17.193 19.098 8.098 7.292 15.864-17.621 7.716 6.948-15.865 17.62 8.318 7.489 17.195-19.098 7.716 6.947-27.147 30.152zm-42.219 33.567 18.518-12.966c9.085-6.362 16.219-8.446 23.386-6.933 5.977 1.26 11.587 5.107 16.066 12.031l1.08 1.671c3.413 5.278 5.21 10.242 4.76 15.273-.376 4.233-1.161 8.038-4.311 12.094-2.458 3.163-5.705 6.151-9.723 8.965l-19.242 13.473zm36.766 26.573 5.85-4.096c4.139-2.9 6.335-6.624 6.568-11.162.199-3.91-1-7.716-3.591-11.418-2.56-3.657-5.888-5.889-9.978-6.676-4.091-.788-7.922.063-11.504 2.57l-5.97 4.182zm-85.423 14.185 14.79.516c-.068 1.959.39 3.624 1.373 4.985 1.309 1.813 3.413 2.772 6.311 2.872 2.693.095 4.827-.319 6.379-1.251 1.553-.93 2.36-2.173 2.416-3.747.058-1.72-.702-3.145-2.283-4.279-.863-.618-3.54-1.803-8.142-3.158-4.489-1.322-7.688-2.159-9.477-2.909-3.194-1.339-5.602-2.964-7.197-4.893-1.841-2.226-2.695-5.132-2.57-8.71.2-5.694 2.529-9.906 6.99-12.649 4.009-2.467 9.464-3.574 16.372-3.333 7.1.247 12.453 1.823 16.015 4.758 3.348 2.758 4.92 6.536 4.755 11.292l-.053 1.471-14.643-.51c.071-2.017-.501-3.619-1.71-4.814-1.211-1.193-2.967-1.834-5.275-1.915-1.959-.069-3.588.38-4.872 1.34-1.287.958-1.954 2.132-2.002 3.503-.094 2.695 2.752 4.812 8.547 6.341 5.795 1.528 9.194 2.491 10.216 2.86 3.634 1.314 6.271 2.927 7.934 4.847 2.115 2.439 3.118 5.662 2.977 9.682-.2 5.74-2.682 10.074-7.453 13.001-4.321 2.649-9.86 3.855-16.63 3.62-15.599-.545-23.19-6.852-22.768-18.92zm-30.731-63.597 32.403 24.416-6.249 8.292-20.524-15.465-6.558 8.703 18.935 14.269-6.247 8.294-18.936-14.271-6.736 8.939 20.523 15.465-6.248 8.292-32.402-24.417zm-35.355-39.803 15.217 17.505c5.411 6.224 8.272 11.578 8.586 16.05.264 3.671-1.158 6.86-4.271 9.565-3.035 2.639-6.325 3.682-9.874 3.121-3.066-.456-6.072-2.005-9.017-4.65l-.224.193c2.996 3.445 4.145 6.605 3.461 9.48-.445 1.886-2.423 4.789-5.933 8.719-3.511 3.931-6.061 7.268-7.643 10.009l-10.531-12.114c.63-1.071 2.213-2.998 4.737-5.776 3.473-3.861 5.242-5.825 5.318-5.891 1.17-1.347 1.677-2.715 1.512-4.096-.163-1.382-1.568-3.6-4.207-6.635l-2.27-2.612-15.283 13.284-9.757-11.226zm1.923 18.036-9.226 8.02 4.494 5.168c1.642 1.889 3.212 3.061 4.712 3.514 1.907.549 3.776.036 5.589-1.542 1.521-1.322 2.129-2.838 1.833-4.569-.296-1.73-1.381-3.666-3.247-5.813zm-36.305-67.953 12.641 18.74c6.202 9.195 8.034 16.918 6.397 24.057-1.365 5.954-5.309 11.498-12.311 15.854l-1.689 1.05c-5.337 3.321-10.331 5.031-15.354 4.495-4.225-.453-7.891-1.855-11.891-5.076-3.12-2.513-6.051-5.81-8.794-9.878l-13.134-19.473zm-27.21 36.295 3.993 5.922c2.826 4.188 6.512 6.443 11.045 6.76 3.907.263 7.733-.863 11.479-3.391 3.7-2.497 5.991-5.784 6.85-9.861.858-4.075.074-7.921-2.37-11.545l-4.077-6.044z" fill="#fff200"/><g fill="none" stroke="#fff200" stroke-miterlimit="1" stroke-width="4.9017"><path d="m61.566 179.555c15.929 33.605 37.229 75.701 53.104 102.055"/><path d="m50.54 184.391c16.258 33.605 36.305 71.479 54.747 103.313"/><path d="m39.561 188.786c16.257 33.605 37.589 73.381 56.03 105.215"/><path d="m28.742 193.429c16.256 33.605 38.775 74.993 57.217 106.827"/><path d="m18.414 197.294c16.255 33.605 39.735 77.212 58.178 109.046"/><path d="m436.644 179.555c-15.93 33.605-37.229 75.701-53.104 102.055"/><path d="m447.669 184.391c-16.255 33.605-36.303 71.479-54.747 103.313"/><path d="m458.649 188.786c-16.257 33.605-37.588 73.381-56.03 105.215"/><path d="m469.469 193.429c-16.257 33.605-38.776 74.993-57.218 106.827"/><path d="m479.796 197.294c-16.255 33.605-39.736 77.212-58.178 109.046"/></g></g></svg>