<?xml version="1.0" encoding="UTF-8" standalone="no"?>
<svg
   xmlns:dc="http://purl.org/dc/elements/1.1/"
   xmlns:cc="http://creativecommons.org/ns#"
   xmlns:rdf="http://www.w3.org/1999/02/22-rdf-syntax-ns#"
   xmlns:svg="http://www.w3.org/2000/svg"
   xmlns="http://www.w3.org/2000/svg"
   xmlns:sodipodi="http://sodipodi.sourceforge.net/DTD/sodipodi-0.dtd"
   xmlns:inkscape="http://www.inkscape.org/namespaces/inkscape"
   version="1.1"
   id="Layer_1"
   x="0px"
   y="0px"
   viewBox="0 0 1000 1000"
   xml:space="preserve"
   sodipodi:docname="Energie.svg"
   width="1000"
   height="1000"
   inkscape:version="1.0.1 (3bc2e813f5, 2020-09-07)"><metadata
   id="metadata27"><rdf:RDF><cc:Work
       rdf:about=""><dc:format>image/svg+xml</dc:format><dc:type
         rdf:resource="http://purl.org/dc/dcmitype/StillImage" /><dc:title></dc:title></cc:Work></rdf:RDF></metadata><defs
   id="defs25" /><sodipodi:namedview
   pagecolor="#ffffff"
   bordercolor="#666666"
   borderopacity="1"
   objecttolerance="10"
   gridtolerance="10"
   guidetolerance="10"
   inkscape:pageopacity="0"
   inkscape:pageshadow="2"
   inkscape:window-width="1920"
   inkscape:window-height="1017"
   id="namedview23"
   showgrid="false"
   inkscape:zoom="1.9812734"
   inkscape:cx="267"
   inkscape:cy="31"
   inkscape:window-x="-8"
   inkscape:window-y="-8"
   inkscape:window-maximized="1"
   inkscape:current-layer="Layer_1" />









<g
   id="g862"
   transform="matrix(4.3981481,0,0,4.3981481,-749.33888,336.45833)"><path
     style="fill:#ffffff"
     d="m 197.99,-76.5 h 137.02 v 61.031 h 27.614 c 0,104.714 -45.055,135.643 -96.127,154.969 C 215.43,120.174 170.376,89.245 170.376,-15.469 H 197.99 V -76.5"
     id="path2" /><path
     style="fill:#e04145"
     d="m 201.063,-73.424 h 130.87 v 61.027 h 27.614 c 0,98.57 -41.978,129.495 -93.05,148.825 -51.067,-19.33 -93.049,-50.255 -93.049,-148.825 h 27.614 v -61.027"
     id="path4" /><rect
     x="204.14"
     y="-70.337997"
     style="fill:#ffffff"
     width="124.721"
     height="26.503"
     id="rect6" /><path
     style="fill:#ffffff"
     d="M 266.497,133.268 C 212.384,114.755 176.308,77.216 176.308,-9.754 h 24.868 c 1.779,74.146 32.207,95.673 65.32,114.995 33.117,-19.322 63.541,-40.85 65.326,-114.995 h 24.862 c 10e-4,86.97 -36.07,124.509 -90.187,143.022"
     id="path8" /><path
     style="fill:#e04145"
     d="m 231.411,-52.015 h -4.347 v -2.861 h 3.902 v -4.426 h -3.902 v -2.603 h 4.347 v -4.382 h -9.401 v 18.654 h 9.401 z m 7.806,-1.081 c 0,-1.745 -0.221,-3.494 -0.334,-5.239 l 0.035,-0.075 3.792,10.778 h 4.87 v -18.654 h -4.87 v 4.755 c 0,2.155 0.371,4.277 0.559,6.437 l -0.041,0.035 -4.047,-11.226 h -4.795 v 18.654 h 4.83 v -5.465 z m 20.701,1.081 h -4.313 v -2.861 h 3.868 v -4.426 h -3.868 v -2.603 h 4.313 v -4.382 h -9.366 v 18.654 h 9.366 z m 15.427,-8.064 c 0,-4.941 -3.157,-6.207 -7.547,-6.207 h -4.905 v 18.654 h 5.055 v -4.976 c 0,-0.892 -0.035,-1.824 -0.07,-2.751 l 0.07,-0.04 2.791,7.767 h 5.459 l -3.753,-7.767 c 2.007,-0.778 2.9,-2.641 2.9,-4.68 m -5.015,0.034 c 0,1.231 -0.707,2.382 -2.048,2.382 h -0.335 v -4.61 c 1.486,0 2.383,0.664 2.383,2.228 m 15.832,5.574 c 0,1.081 -0.409,2.68 -1.746,2.68 -1.938,0 -1.858,-3.269 -1.938,-4.615 v -0.778 c 0,-1.823 0.149,-4.94 2.122,-4.94 0.888,0 1.411,1.187 1.45,1.93 l 4.866,-1.82 c -1.076,-2.711 -3.34,-4.611 -6.353,-4.611 -5.466,0 -7.252,5.13 -7.252,9.775 0,4.721 1.786,9.556 7.288,9.556 5.873,0 6.765,-5.727 6.765,-10.333 l -0.035,-0.783 h -7.027 v 3.94 h 1.86 z m 12.49,-11.815 h -5.059 v 18.658 h 5.059 z m 12.333,14.271 h -4.312 v -2.861 h 3.867 v -4.426 h -3.867 v -2.603 h 4.312 v -4.382 h -9.365 v 18.654 h 9.365 v -4.382"
     id="path10" /><path
     style="fill:#ffffff"
     d="m 276.329,-17.183 c 0,3.309 1.819,4.949 3.977,4.949 0.595,0 1.082,-0.115 1.596,-0.338 l 0.151,-2.713 c -0.41,0.369 -0.778,0.598 -1.372,0.598 -1.341,0 -1.674,-1.45 -1.674,-2.566 0,-1.081 0.333,-2.602 1.709,-2.602 0.559,0 0.857,0.219 1.227,0.598 v -2.787 c -0.409,-0.193 -0.858,-0.264 -1.339,-0.264 -1.264,0 -4.275,0.743 -4.275,5.125 m 14.312,-0.07 c 0,-2.383 -1.043,-5.055 -3.72,-5.055 -2.676,0 -3.718,2.672 -3.718,5.055 0,2.378 1.042,5.019 3.718,5.019 2.677,0 3.72,-2.641 3.72,-5.019 m -2.677,0 c 0,0.597 -0.04,2.566 -1.043,2.566 -1.002,0 -1.037,-1.969 -1.037,-2.566 0,-0.634 0.035,-2.602 1.037,-2.602 1.003,0 1.043,1.968 1.043,2.602 m 9.065,-2.489 v -2.382 h -5.61 v 2.382 h 1.45 v 7.359 h 2.642 v -7.359 z m 6.172,0 v -2.382 h -5.613 v 2.382 h 1.45 v 7.359 h 2.643 v -7.359 z m 7.657,4.567 c 0,-1.297 -0.707,-2.114 -1.97,-2.193 v -0.035 c 1.111,0 1.819,-0.853 1.819,-1.934 0,-2.114 -1.819,-2.787 -3.379,-2.787 h -3.091 v 9.741 h 3.533 c 2.345,0 3.088,-1.6 3.088,-2.792 m -3.788,-1.186 c 0.627,0 1.115,0.259 1.115,0.931 0,0.629 -0.523,0.928 -1.082,0.928 h -0.22 v -1.859 z m 0.075,-3.683 c 0.518,0 0.927,0.259 0.927,0.857 0,0.632 -0.484,0.853 -1.043,0.853 h -0.145 v -1.71 z m 8.807,4.909 c -0.035,0.26 -0.225,0.448 -0.594,0.448 -0.375,0 -0.523,-0.188 -0.594,-0.488 -0.077,-0.255 -0.077,-0.593 -0.077,-0.857 v -6.092 h -2.64 v 6.356 c 0,1.187 0.261,3.534 3.311,3.534 3.046,0 3.305,-2.347 3.305,-3.534 v -6.356 h -2.642 v 6.137 c 0,0.219 0,0.557 -0.069,0.852 m 9.031,-0.334 c 0,-0.747 -0.189,-1.266 -0.482,-1.714 -0.3,-0.444 -0.743,-0.774 -1.301,-1.187 -0.149,-0.114 -0.336,-0.219 -0.484,-0.369 -0.149,-0.188 -0.259,-0.373 -0.259,-0.558 0,-0.374 0.372,-0.594 0.703,-0.594 0.598,0 1.225,0.554 1.525,1.037 v -2.936 c -0.555,-0.298 -1.227,-0.518 -1.856,-0.518 -2.232,0 -2.976,2.079 -2.976,3.196 0,0.742 0.226,1.267 0.524,1.71 0.329,0.484 0.812,0.857 1.297,1.266 0.185,0.104 0.333,0.219 0.447,0.369 0.149,0.15 0.219,0.299 0.219,0.523 0,0.444 -0.407,0.664 -0.776,0.664 -0.674,0 -1.301,-0.554 -1.675,-1.107 v 3.045 c 0.632,0.26 1.3,0.409 1.97,0.409 1.858,-10e-4 3.124,-1.452 3.124,-3.236"
     id="path12" /><path
     style="fill:#ffe62b"
     d="m 205.63,71.454 c -0.893,0.522 -2.344,-4.892 -5.947,-6.536 -5.93,-2.712 -6.765,-5.098 -10.482,-12.859 -0.22,6.649 3.661,19.865 10.961,20.955 2.18,0.325 5.429,-1.779 6.809,-0.259 2.304,3.459 7.098,10.931 8.879,13.418 0.223,0.334 0.078,0.599 -0.07,0.599 -0.523,0.443 -3.689,-3.99 -6.845,-4.571 -6.307,-1.169 -7.655,-3.274 -12.935,-9.74 1.23,6.356 7.916,18.097 15.167,17.286 2.379,-0.271 4.276,-2.271 5.912,-2.122 8.883,9.665 10.811,10.407 10.443,10.742 -0.933,0.668 -3.926,-3.052 -7.547,-2.972 -6.205,0.142 -6.729,-0.523 -13.005,-5.429 2.413,5.613 9.07,13.335 16.574,11.899 2,-0.392 3.195,-2.647 5.428,-2.496 5.911,5.058 9.292,7.067 13.154,9.625 -0.07,0.299 -0.408,0.338 -0.742,0.192 -1.525,-0.598 -4.549,-2.593 -7.616,-2.086 -6.392,1.059 -8.365,-0.33 -15.539,-4.462 3.307,5.433 13.573,13.925 20.18,10.632 1.906,-0.949 2.717,-3.271 4.984,-3.494 2.338,1.375 4.68,2.638 7.064,3.867 2.416,1.223 4.828,2.379 7.393,3.455 0.522,0.334 0.257,0.368 -0.036,0.368 -1.266,0.079 -4.681,-1.854 -7.507,-0.922 -5.428,1.78 -10.926,0.554 -16.131,-1.231 4.906,4.687 14.602,9.863 22.222,6.619 1.632,-0.693 1.975,-3.234 3.684,-3.937 0.928,0.403 3.828,1.37 5.534,2.073 l -6.65,4.801 1.336,0.852 7.028,-5.164 -0.074,-1.41 c -2.527,-0.822 -5.016,-1.715 -7.433,-2.682 0.11,-1.6 1.331,-2.787 1.631,-4.457 1.296,-7.063 -9.436,-14.425 -15.423,-16.095 5.802,5.651 7.639,7.103 8.403,13.379 0.317,2.589 2.036,4.993 3.529,5.916 0.142,0.083 1.337,1.073 0.668,0.849 -5.094,-1.931 -10.108,-4.682 -14.829,-7.582 0.369,-1.636 1.784,-2.599 2.378,-4.237 2.456,-6.765 -7.063,-15.866 -12.676,-18.503 4.796,6.535 6.462,8.289 6.172,14.636 -0.124,2.733 1.634,5.467 2.936,6.619 0.407,0.407 0.224,0.668 0.039,0.817 -4.462,-2.822 -8.772,-6.057 -12.971,-9.695 0.593,-1.415 2.027,-2.115 2.787,-3.574 3.252,-6.232 -4.496,-16.425 -9.515,-19.773 3.679,6.988 4.527,9.326 3.823,15.127 -0.304,2.56 0.786,5.539 1.974,6.875 0.259,0.299 0.114,0.707 -0.149,0.559 -3.64,-3.231 -7.249,-6.984 -10.743,-10.967 0.854,-1.262 2.316,-1.797 3.271,-3.12 4.141,-5.74 -2.189,-16.798 -6.764,-20.81 2.716,7.47 3.591,9.507 1.709,15.386 -1.019,3.192 0.3,5.162 1.337,7.135 0.228,0.408 -0.035,0.892 -0.185,0.787 -2.339,-3.204 -5.837,-8.295 -9.067,-13.723 0.742,-1.744 2.689,-2.281 3.833,-3.787 4.284,-5.705 -1.266,-17.023 -5.802,-21.186 2.598,7.621 2.75,9.115 0.782,15.048 -1.38,4.142 2.487,8.142 0.559,8.624 -1.898,-3.639 -4.87,-10.333 -7.736,-18.059 0.857,-1.86 2.984,-1.983 4.167,-3.569 3.995,-5.38 0.109,-16.838 -3.35,-21.225 1.526,7.806 1.354,9.556 -1.112,15.203 -1.146,2.625 0.11,5.763 0.22,7.357 0.04,0.374 -0.333,0.63 -0.443,0.823 -2.716,-6.584 -4.53,-13.494 -5.727,-18.847 1.006,-2.269 3.19,-2.163 4.8,-3.568 5.345,-4.691 1.929,-16.504 -1.641,-21.524 0.558,7.137 0.194,9.37 -2.636,15.945 -1.299,3.015 0.592,7.103 -0.594,7.287 l -0.299,0.035 -1.969,-11.934 c 3.938,-10.109 1.709,-13.528 -1.824,-19.285 -4.123,7.99 -4.158,11.225 0.746,19.514 l 1.86,11.594 c -0.115,0.04 -0.225,0.075 -0.339,0.075 -1.301,0.259 -0.896,-5.222 -3.754,-7.766 -3.711,-3.31 -4.237,-5.912 -6.43,-15.058 -1.929,6.32 -1.781,20.103 4.796,22.934 1.714,0.738 4.052,-0.11 5.537,1.04 l 0.483,0.709 c 1.559,7.506 3.42,13.045 5.538,19.176 -0.114,0.039 -0.22,0.115 -0.335,0.149 -1.342,0.373 -1.592,-5.071 -4.943,-7.212 -5.513,-3.517 -6.018,-5.943 -8.659,-14.008 -1.19,6.391 0.687,20.416 7.99,21.893 4.162,0.84 6.506,0.479 6.729,1.037 3.565,9.365 6.281,15.094 7.396,17.361 0.296,0.778 -0.227,0.519 -0.371,0.664"
     id="path14" /><path
     style="fill:#ffe62b"
     d="m 327.37,71.454 c 0.892,0.522 2.338,-4.892 5.946,-6.536 5.925,-2.712 6.766,-5.098 10.479,-12.859 0.227,6.649 -3.657,19.865 -10.962,20.955 -2.181,0.325 -5.429,-1.779 -6.805,-0.259 -2.307,3.459 -7.099,10.931 -8.883,13.418 -0.225,0.334 -0.073,0.599 0.075,0.599 0.52,0.443 3.683,-3.99 6.839,-4.571 6.313,-1.169 7.656,-3.274 12.935,-9.74 -1.224,6.356 -7.916,18.097 -15.167,17.286 -2.374,-0.271 -4.272,-2.271 -5.907,-2.122 -8.886,9.665 -10.817,10.407 -10.442,10.742 0.927,0.668 3.92,-3.052 7.543,-2.972 6.204,0.142 6.727,-0.523 13.008,-5.429 -2.412,5.613 -9.075,13.335 -16.578,11.899 -1.995,-0.392 -3.194,-2.647 -5.43,-2.496 -5.906,5.058 -9.285,7.067 -13.153,9.625 0.074,0.299 0.409,0.338 0.742,0.192 1.527,-0.598 4.549,-2.593 7.622,-2.086 6.392,1.059 8.358,-0.33 15.539,-4.462 -3.311,5.433 -13.579,13.925 -20.184,10.632 -1.902,-0.949 -2.717,-3.271 -4.986,-3.494 -2.338,1.375 -4.676,2.638 -7.058,3.867 -2.418,1.223 -4.835,2.379 -7.397,3.455 -0.519,0.334 -0.259,0.368 0.041,0.368 1.261,0.079 4.676,-1.854 7.506,-0.922 5.423,1.78 10.926,0.554 16.13,-1.231 -4.91,4.687 -14.595,9.863 -22.225,6.619 -1.631,-0.693 -1.971,-3.234 -3.686,-3.937 -0.927,0.403 -3.823,1.37 -5.532,2.073 l 6.649,4.801 -1.336,0.852 -7.023,-5.164 0.07,-1.41 c 2.53,-0.822 5.02,-1.715 7.438,-2.682 -0.114,-1.6 -1.327,-2.787 -1.635,-4.457 -1.298,-7.063 9.437,-14.425 15.422,-16.095 -5.797,5.651 -7.635,7.103 -8.401,13.379 -0.314,2.589 -2.033,4.993 -3.527,5.916 -0.145,0.083 -1.336,1.073 -0.672,0.849 5.093,-1.931 10.113,-4.682 14.829,-7.582 -0.369,-1.636 -1.779,-2.599 -2.373,-4.237 -2.458,-6.765 7.059,-15.866 12.67,-18.503 -4.79,6.535 -6.456,8.289 -6.17,14.636 0.122,2.733 -1.63,5.467 -2.932,6.619 -0.414,0.407 -0.229,0.668 -0.045,0.817 4.463,-2.822 8.774,-6.057 12.98,-9.695 -0.603,-1.415 -2.031,-2.115 -2.791,-3.574 -3.258,-6.232 4.496,-16.425 9.511,-19.773 -3.675,6.988 -4.527,9.326 -3.823,15.127 0.308,2.56 -0.782,5.539 -1.974,6.875 -0.261,0.299 -0.11,0.707 0.148,0.559 3.644,-3.231 7.248,-6.984 10.746,-10.967 -0.856,-1.262 -2.32,-1.797 -3.274,-3.12 -4.14,-5.74 2.192,-16.798 6.765,-20.81 -2.712,7.47 -3.59,9.507 -1.711,15.386 1.025,3.192 -0.298,5.162 -1.334,7.135 -0.226,0.408 0.035,0.892 0.184,0.787 2.339,-3.204 5.837,-8.295 9.066,-13.723 -0.742,-1.744 -2.689,-2.281 -3.823,-3.787 -4.294,-5.705 1.262,-17.023 5.798,-21.186 -2.602,7.621 -2.752,9.115 -0.783,15.048 1.376,4.142 -2.492,8.142 -0.554,8.624 1.895,-3.639 4.866,-10.333 7.728,-18.059 -0.856,-1.86 -2.985,-1.983 -4.163,-3.569 -4,-5.38 -0.109,-16.838 3.35,-21.225 -1.529,7.806 -1.358,9.556 1.111,15.203 1.148,2.625 -0.11,5.763 -0.224,7.357 -0.035,0.374 0.333,0.63 0.448,0.823 2.712,-6.584 4.531,-13.494 5.724,-18.847 -1.004,-2.269 -3.191,-2.163 -4.796,-3.568 -5.349,-4.691 -1.935,-16.504 1.635,-21.524 -0.56,7.137 -0.192,9.37 2.638,15.945 1.295,3.015 -0.594,7.103 0.598,7.287 l 0.294,0.035 1.974,-11.934 c -3.938,-10.109 -1.709,-13.528 1.818,-19.285 4.124,7.99 4.167,11.225 -0.746,19.514 l -1.851,11.594 c 0.105,0.04 0.22,0.075 0.329,0.075 1.303,0.259 0.897,-5.222 3.753,-7.766 3.711,-3.31 4.238,-5.912 6.437,-15.058 1.929,6.32 1.775,20.103 -4.801,22.934 -1.709,0.738 -4.052,-0.11 -5.533,1.04 l -0.483,0.709 c -1.561,7.506 -3.42,13.045 -5.542,19.176 0.113,0.039 0.227,0.115 0.333,0.149 1.341,0.373 1.595,-5.071 4.948,-7.212 5.508,-3.517 6.022,-5.943 8.658,-14.008 1.188,6.391 -0.689,20.416 -7.994,21.893 -4.162,0.84 -6.504,0.479 -6.724,1.037 -3.569,9.365 -6.281,15.094 -7.398,17.361 -0.298,0.778 0.226,0.519 0.374,0.664"
     id="path16" /><path
     style="fill:#ffffff"
     d="m 233.396,-40.728 75.566,107.611 c 2.536,-3.67 4.888,-7.67 7.018,-12.064 l -65.829,-95.546 h -16.755"
     id="path18" /><path
     style="fill:#ffffff"
     d="m 204.14,-34.966 v -5.797 h 12.354 l 83.662,118.436 c -3.138,3.274 -6.443,6.25 -9.884,9.019 L 204.14,-34.966"
     id="path20" /></g>
</svg>
