<?xml version="1.0" encoding="iso-8859-1"?>
<!-- Generator: Adobe Illustrator 24.0.1, SVG Export Plug-In . SVG Version: 6.00 Build 0)  -->
<svg version="1.1" id="Layer_1" xmlns="http://www.w3.org/2000/svg" xmlns:xlink="http://www.w3.org/1999/xlink" x="0px" y="0px"
	 viewBox="0 0 612 792" style="enable-background:new 0 0 612 792;" xml:space="preserve">
<path style="fill:#B7202E;" d="M307.5,113.39c85.557,0.151,194.668,111.05,194.668,283c0,171.949-109.111,282.849-194.668,283
	c-85.556-0.151-194.669-111.051-194.669-283C112.831,224.44,221.944,113.541,307.5,113.39"/>
<path style="fill:#FFFFFF;" d="M307.5,129.376c-18.39,0.038-38.583,6.225-58.401,17.892c-20.986,12.355-41.165,30.667-58.358,52.96
	c-18.867,24.465-33.793,52.893-44.363,84.494c-11.652,34.836-17.56,72.407-17.56,111.668c0,39.261,5.908,76.832,17.56,111.668
	c10.57,31.601,25.496,60.029,44.363,84.493c17.192,22.293,37.372,40.606,58.358,52.961c19.818,11.667,40.011,17.853,58.401,17.892
	c18.39-0.038,38.583-6.225,58.401-17.892c20.986-12.355,41.166-30.668,58.358-52.961c18.867-24.464,33.792-52.893,44.362-84.493
	c11.652-34.836,17.559-72.407,17.559-111.668c0-39.261-5.907-76.832-17.559-111.668c-10.57-31.601-25.495-60.029-44.362-84.494
	c-17.192-22.292-37.372-40.605-58.358-52.96C346.083,135.601,325.89,129.414,307.5,129.376L307.5,129.376z"/>
<path style="fill:#B7202E;" d="M322.822,285.703h86.968c0,0,5.948,0,7.89,0.783c2.995,1.198,8.537,5.578,9.598,6.108
	c1.06,0.533,2.003-0.573,1.99-1.199c-0.019-0.579-6.194-17.968-12.014-29.981c-5.344-11.04-11.07-18.588-11.81-19.605
	c-1.751-2.416-2.774,1.048-5.695,3.061c-2.367,1.624-5.511,2.413-7.952,2.413c-4.364,0-163.049,0.03-170.773,0.006
	c-3.544-0.006-5.319-0.952-8.019-2.595c-2.971-1.813-4.229-5.082-5.979-2.82c-0.703,0.9-7.36,9.588-13.327,21.63
	c-6.663,13.465-11.934,26.366-12.087,27.022c-0.357,1.578,1.424,2.472,2.336,2.133c0.475-0.185,4.666-4.241,7.083-5.486
	c2.435-1.248,8.216-1.387,8.216-1.387l87.614-0.034v252.706c0,0-0.598,8.087-1.948,9.924c-1.714,2.337-5.659,4.63-5.141,5.942
	c0.4,0.999,1.911,0.999,1.911,0.999h45.823c0,0,1.788,0,2.145-0.999c0.395-1.122-3.588-3.328-5.116-5.917
	c-1.522-2.577-1.714-8.734-1.714-8.734V285.703"/>
<path style="fill:#B7202E;" d="M265.127,311.295h-88.958c-8.137,23.395-27.023,93.146-1.775,176.47
	c28.367,93.593,91.331,131.489,130.404,131.797v-36.909c-42.864-0.321-72.389-45.898-85.851-77.998
	c-16.02-38.254-17.58-70.886-17.58-70.886l63.759,0.037V396.01l-65.621,0.061c0,0,0.179-12.501,0.937-22.585
	c0.74-10.084,5.03-25.384,5.03-25.384l59.654-0.055V311.295"/>
<path style="fill:#B7202E;" d="M345.851,311.295h36.06l-0.043,206.649c0,0,30.925-50.069,30.925-111.407
	c0-61.331-16.761-95.242-16.761-95.242h39.493c0,0,29,61.796,6.317,159.889c-23.527,101.754-95.947,139.736-95.947,139.736
	L345.851,311.295"/>
<path style="fill:#B7202E;" d="M327.827,199.392c0,12.559-10.183,22.741-22.745,22.741c-12.562,0-22.745-10.183-22.745-22.741
	c0-12.568,10.183-22.754,22.745-22.754C317.645,176.638,327.827,186.824,327.827,199.392"/>
</svg>
