<?xml version="1.0" encoding="iso-8859-1"?>
<!-- Generator: Adobe Illustrator 24.0.1, SVG Export Plug-In . SVG Version: 6.00 Build 0)  -->
<svg version="1.1" id="Layer_1" xmlns="http://www.w3.org/2000/svg" xmlns:xlink="http://www.w3.org/1999/xlink" x="0px" y="0px"
	 viewBox="0 0 612 792" style="enable-background:new 0 0 612 792;" xml:space="preserve">
<path style="fill:#EE2527;" d="M63.946,476.694c-30.108-30.107-41.711-41.711-41.711-80.218s11.603-50.11,41.711-80.218
	l161.071-161.071c30.107-30.108,41.711-41.711,80.218-41.711c38.507,0,50.11,11.604,80.218,41.711l161.071,161.071
	c30.107,30.108,41.711,41.711,41.711,80.218s-11.604,50.11-41.711,80.218L385.454,637.766c-30.108,30.107-41.711,41.71-80.218,41.71
	c-38.507,0-50.11-11.604-80.218-41.71L63.946,476.694z"/>
<path style="fill:#FFFFFF;" d="M305.235,386.97c-65.982,0.001-119.469,53.488-119.469,119.469
	c0,65.982,53.487,119.469,119.469,119.469c65.982,0,119.468-53.487,119.469-119.468C424.703,440.458,371.217,386.971,305.235,386.97
	z"/>
<path style="fill:#EE2527;" d="M235.626,416.595c3.816,1.458,9.346,3.407,16.181,5.356c13.668,3.896,32.56,7.793,53.419,7.793h0.009
	h0.052l0.003-0.001c31.268-0.007,58.111-8.771,69.554-13.148c1.828-0.699,3.246-1.279,4.239-1.699l0.386-0.163l-0.327-0.261
	c-20.225-16.276-45.924-26.022-73.908-26.023c-27.983,0.001-53.681,9.746-73.907,26.021l-0.325,0.262l0.385,0.163
	C232.38,415.314,233.798,415.895,235.626,416.595z"/>
<path style="fill:#EE2527;" d="M260.774,526.113c0.001-51.632,11.77-89.669,14.175-96.907l0.092-0.278l-0.289-0.047
	c-24.089-3.991-41.64-11.335-45.107-12.853l-0.143-0.063l-0.119,0.102c-2.624,2.206-5.157,4.517-7.581,6.941
	c-21.355,21.354-34.559,50.847-34.559,83.432c0,32.585,13.204,62.076,34.559,83.431c16.481,16.48,37.812,28.1,61.669,32.548
	l0.555,0.104l-0.296-0.481C278.58,613.618,260.774,580.57,260.774,526.113z"/>
<path style="fill:#EE2527;" d="M335.924,598.368c6.017-16.398,12.043-40.693,12.043-72.255v-0.057l-0.001-0.002
	c-0.007-42.85-8.168-76.31-12.243-90.339c-0.897-3.087-1.59-5.215-1.958-6.313l-0.067-0.201l-0.208,0.033
	c-8.736,1.348-18.262,2.237-28.254,2.238c-9.992-0.001-19.519-0.89-28.254-2.238l-0.207-0.032l-0.069,0.2
	c-0.369,1.098-1.061,3.225-1.958,6.314c-1.358,4.678-3.173,11.517-4.986,20.144c-3.628,17.256-7.258,41.666-7.258,70.253
	c0,55.229,18.454,88.222,23.022,95.544c0.325,0.523,0.577,0.911,0.748,1.168l0.06,0.09l0.108,0.018
	c6.121,0.979,12.396,1.496,18.794,1.496c6.397,0,12.672-0.517,18.792-1.496l0.108-0.017l0.061-0.091
	c0.17-0.257,0.424-0.644,0.749-1.168c0.653-1.046,1.589-2.614,2.713-4.699C329.91,612.791,332.915,606.566,335.924,598.368z"/>
<path style="fill:#EE2527;" d="M388.667,423.008c-2.423-2.423-4.957-4.735-7.582-6.942l-0.12-0.101l-0.142,0.063
	c-3.465,1.518-21.017,8.861-45.106,12.853l-0.29,0.048l0.093,0.277c2.404,7.239,14.173,45.276,14.174,96.907
	c0,54.458-17.806,87.505-22.957,95.929l-0.294,0.479l0.552-0.102c23.859-4.448,45.189-16.067,61.671-32.548
	c21.352-21.353,34.557-50.847,34.559-83.431C423.224,473.854,410.019,444.362,388.667,423.008z"/>
<path style="fill:#FFFFFF;" d="M368.061,585.905c0,0,38.79-28.01,38.79-79.464c0-39.947-38.79-68.222-38.79-68.222V585.905z"/>
<path style="fill:#FFFFFF;" d="M242.41,585.905c0,0-38.789-28.01-38.789-79.464c0-39.947,38.789-68.222,38.789-68.222V585.905z"/>
<path style="fill:#FFFFFF;" d="M226.34,382.311c0,9.069-7.352,16.421-16.421,16.421c-9.068,0-16.42-7.352-16.42-16.421
	c0-9.068,7.352-16.42,16.42-16.42C218.988,365.891,226.34,373.243,226.34,382.311z"/>
<path style="fill:#FFFFFF;" d="M407.165,315.283c0,9.069-7.352,16.42-16.421,16.42c-9.068,0-16.421-7.352-16.421-16.42
	c0-9.068,7.352-16.42,16.421-16.42C399.813,298.862,407.165,306.214,407.165,315.283z"/>
<path style="fill:#FFFFFF;" d="M559.695,377.186c0,9.069-7.352,16.421-16.421,16.421c-9.068,0-16.42-7.352-16.42-16.421
	c0-9.068,7.352-16.42,16.42-16.42C552.343,360.766,559.695,368.118,559.695,377.186z"/>
<polygon style="fill:#FFFFFF;" points="172.679,328.576 127.778,351.526 127.778,327.699 166.736,298.61 166.736,270.547 
	100.045,312.807 100.045,460.384 127.778,479.533 127.778,384.042 172.679,356.999 "/>
<polygon style="fill:#FFFFFF;" points="306.538,224.75 335.526,283.076 363.384,219.124 389.143,219.124 332.592,357.982 
	305.058,312.387 275.37,363.312 221.485,224.749 251.468,224.749 279.299,292.254 "/>
<polygon style="fill:#FFFFFF;" points="445.763,440.294 447.365,382.469 493.586,467.317 510.424,446.848 464.533,352.425 
	506.132,308.185 491.462,290.79 449.346,327.663 447.034,245.125 422.867,231.78 422.867,422.56 "/>
</svg>
