<?xml version="1.0" encoding="UTF-8" standalone="no"?>
<svg
   xmlns:dc="http://purl.org/dc/elements/1.1/"
   xmlns:cc="http://creativecommons.org/ns#"
   xmlns:rdf="http://www.w3.org/1999/02/22-rdf-syntax-ns#"
   xmlns:svg="http://www.w3.org/2000/svg"
   xmlns="http://www.w3.org/2000/svg"
   xmlns:xlink="http://www.w3.org/1999/xlink"
   xmlns:sodipodi="http://sodipodi.sourceforge.net/DTD/sodipodi-0.dtd"
   xmlns:inkscape="http://www.inkscape.org/namespaces/inkscape"
   version="1.1"
   id="Layer_1"
   x="0px"
   y="0px"
   viewBox="0 0 1000 1000"
   xml:space="preserve"
   sodipodi:docname="Fcnurnberg.svg"
   width="1000"
   height="1000"
   inkscape:version="1.0.1 (3bc2e813f5, 2020-09-07)"><metadata
   id="metadata31"><rdf:RDF><cc:Work
       rdf:about=""><dc:format>image/svg+xml</dc:format><dc:type
         rdf:resource="http://purl.org/dc/dcmitype/StillImage" /><dc:title></dc:title></cc:Work></rdf:RDF></metadata><defs
   id="defs29" /><sodipodi:namedview
   pagecolor="#ffffff"
   bordercolor="#666666"
   borderopacity="1"
   objecttolerance="10"
   gridtolerance="10"
   guidetolerance="10"
   inkscape:pageopacity="0"
   inkscape:pageshadow="2"
   inkscape:window-width="1920"
   inkscape:window-height="1017"
   id="namedview27"
   showgrid="false"
   inkscape:zoom="1.9812734"
   inkscape:cx="267"
   inkscape:cy="31"
   inkscape:window-x="-8"
   inkscape:window-y="-8"
   inkscape:window-maximized="1"
   inkscape:current-layer="Layer_1" />







<g
   id="g869"
   transform="matrix(4.422007,0,0,4.422007,-698.93343,340.01263)"><g
     id="g10">
	<defs
   id="defs3">
		<rect
   id="SVGID_1_"
   x="157.5"
   y="-77.5"
   width="216"
   height="216" />
	</defs>
	<clipPath
   id="SVGID_2_">
		<use
   xlink:href="#SVGID_1_"
   style="overflow:visible"
   id="use5"
   x="0"
   y="0"
   width="100%"
   height="100%" />
	</clipPath>
	<path
   style="fill:#d04337"
   d="m 365.014,-9.932 c 16.305,38.834 6.694,86.537 -23.221,115.963 -27.861,28.232 -68.688,38.725 -107.241,27.475 -34.99,-9.303 -67.389,-44.135 -74.084,-79.615 -9.072,-44.461 7.775,-87.188 45.357,-112.934 29.591,-21.095 77.11,-24.015 109.077,-5.951 21.707,10.601 41.687,32.885 50.112,55.062"
   clip-path="url(#SVGID_2_)"
   id="path8" />
</g><path
     style="fill:#ffffff"
     d="m 356.373,-7.012 c 15.118,36.348 6.48,81.129 -22.248,108.391 -25.919,25.529 -64.69,34.94 -100.004,23.148 -32.832,-9.844 -61.668,-43.484 -66.095,-77.236 -6.694,-41.969 12.097,-81.131 48.598,-102.44 24.947,-15.361 63.394,-16.984 89.854,-3.787 21.275,9.303 41.579,30.398 49.895,51.924"
     id="path12" /><path
     style="fill:#d04337"
     d="m 353.133,-7.119 c 14.147,31.262 7.776,72.369 -14.148,98.006 -24.515,28.881 -61.018,40.672 -97.736,31.262 -34.019,-7.574 -64.905,-41.865 -69.226,-76.48 -6.478,-40.996 12.96,-79.508 49.138,-99.412 29.376,-16.984 73.33,-13.846 100.006,6.815 14.472,10.167 25.377,24.771 31.966,39.809"
     id="path14" /><path
     style="fill:#ffffff"
     d="m 269.131,5.068 h -11.653 v -37.319 h -14.444 v -8.795 c 8.125,0.163 15.593,-2.633 16.822,-11.426 h 9.275 v 57.54"
     id="path16" /><rect
     x="274.38101"
     y="-7.5900002"
     style="fill:#ffffff"
     width="12.885"
     height="12.658"
     id="rect18" /><polygon
     style="fill:#ffffff"
     points="229.027,40.021 229.027,50.051 204.49,50.051 204.49,74.301 191.606,74.301 191.606,15.607 232.803,15.607 232.803,26.459 204.49,26.459 204.49,40.021 "
     id="polygon20" /><path
     style="fill:#ffffff"
     d="m 274.4,35.338 c -0.821,-5.838 -6.401,-10.277 -12.802,-10.277 -11.571,0 -15.92,9.865 -15.92,20.141 0,9.781 4.349,21.807 15.92,21.807 7.879,0 12.309,-2.18 13.294,-9.904 h 12.473 c -1.313,14.631 -11.406,20.756 -25.767,20.756 -18.136,0 -28.806,-15.727 -28.806,-32.658 0,-17.428 10.67,-30.992 28.806,-30.992 12.882,0 23.714,7.564 25.276,21.129 H 274.4"
     id="path22" /><polygon
     style="fill:#ffffff"
     points="340.716,15.607 340.716,74.301 327.832,74.301 303.459,35.006 303.295,35.006 303.295,74.301 291.23,74.301 291.23,15.607 304.033,15.607 328.486,54.982 328.65,54.982 328.65,15.607 "
     id="polygon24" /></g>
</svg>
