<?xml version="1.0" encoding="iso-8859-1"?>
<!-- Generator: Adobe Illustrator 24.0.1, SVG Export Plug-In . SVG Version: 6.00 Build 0)  -->
<svg version="1.1" id="Layer_1" xmlns="http://www.w3.org/2000/svg" xmlns:xlink="http://www.w3.org/1999/xlink" x="0px" y="0px"
	 viewBox="0 0 612 792" style="enable-background:new 0 0 612 792;" xml:space="preserve">
<path style="fill:#FFFFFF;" d="M144.359,355.96c0-90.101,73.04-163.141,163.139-163.141l0,0c90.101,0,163.141,73.04,163.143,163.141
	l0,0c-0.002,90.1-73.042,163.141-163.143,163.141l0,0C217.399,519.102,144.359,446.06,144.359,355.96L144.359,355.96z"/>
<path d="M226.643,497.682l-0.001,181.708l80.857-40.427l80.857,40.427l-0.001-181.709c-23.835,13.628-51.435,21.421-80.858,21.421
	C278.077,519.102,250.477,511.31,226.643,497.682z"/>
<path d="M388.355,214.239l-0.001-100.85h-161.71l-0.001,100.849c23.834-13.627,51.433-21.419,80.854-21.419
	C336.92,192.819,364.52,200.611,388.355,214.239z"/>
<path d="M194.16,242.62c-29.01,29.009-46.948,69.072-46.948,113.34l0,0c0,44.266,17.938,84.331,46.948,113.339l0,0
	c29.011,29.01,69.073,46.948,113.34,46.948l0,0c44.268,0,84.331-17.938,113.341-46.948l0,0
	c29.011-29.009,46.947-69.073,46.947-113.339l0,0c0-44.268-17.939-84.331-46.947-113.34l0,0
	c-29.01-29.009-69.073-46.948-113.341-46.948l0,0C263.233,195.672,223.171,213.611,194.16,242.62L194.16,242.62z"/>
<path style="fill:#FFFFFF;" d="M388.356,355.961c0,44.655-36.202,80.856-80.858,80.856c-44.654,0-80.854-36.201-80.854-80.856
	c0-44.656,36.2-80.857,80.854-80.857C352.154,275.104,388.356,311.305,388.356,355.961z"/>
<path d="M359.529,312.391c-0.626,0.238-1.251,0.457-1.877,0.673c-0.191-1.053-0.383-2.094-0.574-3.148
	c-34.483,11.653-68.969-6.694-103.452,12.126l-0.314-1.779c2.512-0.985,4.128-2.583,3.866-4.075
	c-0.346-1.958-3.803-2.989-7.722-2.296c-3.917,0.69-6.814,2.838-6.469,4.798c0.262,1.487,2.316,2.435,5.002,2.506l16.554,93.871
	c0.232,1.311,1.372,2.233,2.658,2.233c0.156,0,0.314-0.014,0.473-0.042c1.47-0.26,2.451-1.661,2.191-3.131l-3.687-20.903
	c35.287-11.038,70.577,8.309,105.863-13.936C367.872,357.531,363.699,335.192,359.529,312.391z"/>
<path style="fill:#FFFFFF;" d="M355.146,311.825c0.3-0.092,0.601-0.181,0.9-0.277c0.053,0.293,0.105,0.581,0.159,0.874
	c-11.581,12.697-23.161,22.076-34.742,30.676c-0.278-0.377-0.566-0.745-0.869-1.103
	C332.111,333.479,343.629,324.251,355.146,311.825z"/>
<path style="fill:#FFFFFF;" d="M294.229,348.453c0.037,0.581,0.098,1.17,0.201,1.769c0.116,0.674,0.285,1.335,0.477,1.99
	c-10.31,7.985-20.619,16.896-30.929,28.528l-8.472-48.04C268.414,334.093,281.321,340.51,294.229,348.453z"/>
<path style="fill:#FFFFFF;" d="M265.226,387.819c10.948-12.057,21.895-21.134,32.842-29.367c0.28,0.374,0.57,0.739,0.873,1.094
	c-11.152,8.343-22.303,17.511-33.455,29.747L265.226,387.819z"/>
<path style="fill:#FFFFFF;" d="M305.075,364.503c2.313,1.235,4.827,2.008,7.383,2.156c2.699,0.146,5.108-0.478,7.095-1.672
	c11.997,7.822,23.994,14.949,35.992,18.578c-26.207,8.191-52.414-0.357-78.622,3.81
	C286.308,378.573,295.691,371.395,305.075,364.503z"/>
<path style="fill:#FFFFFF;" d="M323.78,360.479c0.183-0.345,0.347-0.703,0.498-1.07c14.629,9.207,29.258,16.841,43.886,17.786
	c0.058,0.306,0.115,0.616,0.173,0.922c-0.268,0.147-0.537,0.273-0.806,0.416C352.948,377.4,338.364,369.693,323.78,360.479z"/>
<path style="fill:#FFFFFF;" d="M366.835,370.114c-13.857-1.326-27.713-8.507-41.569-17.21c-0.039-0.517-0.101-1.042-0.191-1.573
	c-0.078-0.456-0.185-0.906-0.299-1.354c10.939-8.352,21.878-17.618,32.816-29.931C360.674,336.996,363.754,353.698,366.835,370.114z
	"/>
<path style="fill:#FFFFFF;" d="M295.289,341.98c-13.679-8.453-27.358-15.309-41.037-16.385l-0.247-1.4
	c13.932,1.024,27.864,8.07,41.797,16.719C295.615,341.259,295.445,341.614,295.289,341.98z"/>
<path style="fill:#FFFFFF;" d="M343.59,314.381c-9.518,8.787-19.037,15.96-28.556,22.92c-2.474-1.444-5.203-2.352-7.98-2.504
	c-2.637-0.137-5,0.462-6.959,1.615c-11.948-7.703-23.897-14.549-35.845-17.777C290.696,309.513,317.144,318.193,343.59,314.381z"/>
<path style="fill:#FFFFFF;" d="M296.694,350.239c1.289,7.426,8.145,13.651,15.362,14.07l0,0c7.209,0.372,12.018-5.554,10.753-13.021
	l0,0c-1.281-7.439-8.143-13.74-15.358-14.139l0,0C300.237,336.791,295.438,342.787,296.694,350.239L296.694,350.239z"/>
<path style="fill:#FFFFFF;" d="M251.244,316.2c0.17,0.98-1.276,2.056-3.234,2.399c-1.958,0.346-3.688-0.168-3.86-1.149
	c-0.17-0.977,1.275-2.053,3.233-2.397C249.342,314.708,251.071,315.222,251.244,316.2z"/>
<path d="M317.338,355.925c-0.036-0.217-0.114-0.427-0.23-0.626c-0.251-0.482-0.814-0.872-1.304-0.91
	c-0.017-0.002-0.034-0.007-0.045-0.007c-0.02-0.001-0.039-0.003-0.059-0.003c-0.477-0.018-0.931,0.127-1.49,0.369
	c-0.078,0.034-0.158,0.067-0.236,0.099c-1.101,0.48-2.201,0.958-3.302,1.437c-1.064,0.456-1.821,0.694-2.056,0.695
	c-0.027-0.01-0.102-0.001-0.134-0.004c-0.436-0.054-0.468-0.11-0.596-0.294c-0.045-0.079-0.072-0.157-0.095-0.26
	c-0.03-0.183-0.011-0.443,0.111-0.771c0.179-0.527,0.644-1.294,1.398-2.223c0.209-0.263,0.421-0.528,0.63-0.792
	c0.281-0.351,0.468-0.629,0.566-0.951c0.042-0.19,0.066-0.371,0.03-0.589c-0.027-0.154-0.086-0.322-0.181-0.482
	c-0.223-0.383-0.543-0.603-0.883-0.784c-0.185-0.095-0.368-0.188-0.552-0.281c-0.373-0.189-0.558-0.379-0.691-0.6
	c-0.083-0.141-0.136-0.287-0.161-0.456c-0.114-0.561,0.14-1.467,0.938-2.564c0.702-0.936,1.396-1.532,2.036-1.804
	c0.126-0.065,0.229-0.091,0.304-0.098c0.006,0.031,0.014,0.071,0.022,0.114c0.042,0.253,0.084,0.65,0.117,1.166
	c0.03,0.661,0.078,1.177,0.142,1.553c0.056,0.262,0.081,0.443,0.224,0.71c0.242,0.439,0.704,0.753,1.128,0.848
	c0.128,0.023,0.242,0.046,0.379,0.054c0.287,0.014,0.56-0.036,0.815-0.147c0.398-0.163,0.711-0.468,0.822-0.898
	c0.114-0.415,0.098-0.982,0.047-1.88c-0.047-0.795-0.1-1.394-0.178-1.844c-0.006-0.042-0.012-0.079-0.02-0.111
	c-0.084-0.469-0.228-0.9-0.448-1.284c-0.316-0.544-0.791-1-1.355-1.272c-0.454-0.225-0.941-0.335-1.439-0.364
	c-0.117-0.004-0.231-0.004-0.34,0c-0.636,0.02-1.254,0.168-1.864,0.436c-1.612,0.695-2.928,1.911-3.934,3.61
	c-0.585,0.962-0.944,1.938-1.039,2.934c-0.047,0.432-0.03,0.871,0.039,1.297c0.093,0.532,0.276,1.048,0.555,1.532
	c0.206,0.357,0.468,0.684,0.783,0.982c0.1,0.098,0.206,0.188,0.315,0.277c-0.555,0.724-0.989,1.417-1.32,2.071
	c-0.401,0.816-0.636,1.587-0.666,2.352c-0.02,0.276,0.003,0.573,0.053,0.855c0.075,0.466,0.237,0.923,0.493,1.355
	c0.382,0.68,0.976,1.227,1.663,1.589c0.602,0.319,1.251,0.5,1.934,0.533c0.014,0,0.025,0,0.039,0.001
	c0.098,0.006,0.189,0.01,0.278,0.008c0.519-0.008,1.006-0.092,1.499-0.238c0.484-0.14,1.145-0.4,2.017-0.774
	c1.184-0.514,2.368-1.029,3.552-1.549c0.635-0.279,1.047-0.495,1.32-0.791C317.243,356.845,317.425,356.426,317.338,355.925z"/>
<path style="fill:#FFFFFF;" d="M178.89,353.51l6.984,0.29l0.464-11.216l4.95,0.206l-0.465,11.215l11.535,0.478l-0.23,5.549
	l-28.418-1.178l0.775-18.719l4.95,0.206L178.89,353.51z"/>
<path style="fill:#FFFFFF;" d="M206.979,325.944c-1.664,5.585-6.774,8.895-12.552,7.173l-17.904-5.337l1.585-5.318l17.713,5.279
	c3.137,0.936,5.559-0.343,6.414-3.212c0.855-2.869-0.46-5.302-3.598-6.237l-17.714-5.28l1.574-5.28l17.904,5.337
	C206.18,314.79,208.645,320.357,206.979,325.944z"/>
<path style="fill:#FFFFFF;" d="M217.145,302.692c-2.219,3.7-4.691,6.035-8.561,6.976l-1.234-4.932
	c2.467-0.617,4.233-2.399,5.59-4.659c1.684-2.81,1.526-4.953-0.427-6.125c-0.856-0.514-1.72-0.706-2.507-0.478
	c-0.732,0.212-1.302,0.617-2.15,1.645l-2.179,2.699c-1.561,1.904-3.137,3.056-4.854,3.515c-1.864,0.466-3.789,0.104-5.845-1.129
	c-4.35-2.609-5.468-7.657-2.304-12.934c2.013-3.357,4.294-5.295,7.568-6.173l1.172,4.803c-2.397,0.657-3.712,2.385-4.678,3.993
	c-1.521,2.535-0.855,4.611,0.823,5.617c0.616,0.37,1.391,0.555,2.179,0.329c0.732-0.214,1.582-0.774,2.314-1.686l2.137-2.631
	c1.643-2.042,3.104-3.077,4.679-3.529c2.014-0.562,4.143-0.075,6.303,1.219C219.896,292.047,220.207,297.588,217.145,302.692z"/>
<path style="fill:#FFFFFF;" d="M231.838,283.344c-3.008,3.093-5.951,4.801-9.934,4.827l-0.07-5.084
	c2.541-0.036,4.671-1.364,6.51-3.255c2.284-2.348,2.621-4.472,0.988-6.06c-0.716-0.696-1.512-1.081-2.331-1.042
	c-0.762,0.039-1.408,0.302-2.471,1.108l-2.738,2.129c-1.957,1.497-3.755,2.256-5.535,2.309c-1.921,0.026-3.712-0.768-5.429-2.439
	c-3.639-3.538-3.568-8.709,0.721-13.12c2.73-2.807,5.396-4.172,8.785-4.274l0.04,4.942c-2.484,0.091-4.162,1.471-5.471,2.816
	c-2.061,2.12-1.891,4.293-0.486,5.658c0.516,0.501,1.227,0.859,2.045,0.818c0.763-0.037,1.719-0.39,2.641-1.11l2.684-2.07
	c2.068-1.611,3.726-2.284,5.364-2.364c2.089-0.085,4.051,0.878,5.856,2.633C236.958,273.61,235.988,279.076,231.838,283.344z"/>
<path style="fill:#FFFFFF;" d="M254.016,265.431l-10.117,6.265l-14.969-24.172l9.711-6.013c4.719-2.922,9.107-1.977,11.673,2.166
	c1.66,2.681,0.968,5.506,0.104,6.84c1.88-0.225,4.692,0.146,6.689,3.372C259.903,258.404,258.326,262.761,254.016,265.431z
	 M240.873,245.952l-4.617,2.859l3.449,5.567l4.615-2.859c2.004-1.239,2.431-3.055,1.399-4.718
	C244.69,245.139,242.876,244.712,240.873,245.952z M247.255,255.574l-4.924,3.049l3.681,5.941l4.922-3.049
	c2.14-1.324,2.316-3.313,1.308-4.943C251.231,254.943,249.393,254.251,247.255,255.574z"/>
<path style="fill:#FFFFFF;" d="M283.153,253.468l-3.07-4.319l-9.659,2.95l-0.171,5.313l-5.535,1.69l1.581-30.198l4.162-1.271
	l18.229,24.145L283.153,253.468z M270.963,236.242l-0.415,10.936l6.756-2.064L270.963,236.242z"/>
<path style="fill:#FFFFFF;" d="M293.265,251.491l-1.609-28.387l5.543-0.314l1.331,23.443l12.876-0.73l0.278,4.942L293.265,251.491z"
	/>
<path style="fill:#FFFFFF;" d="M317.243,250.978l4.775-28.015l5.471,0.932l-3.944,23.136l12.713,2.166l-0.835,4.879L317.243,250.978
	z"/>
<path style="fill:#FFFFFF;" d="M347.668,258.774l-3.872-1.513l1.604-29.911l5.359,2.093l-1.426,19.347l12.067-15.189l5.398,2.107
	L347.668,258.774z"/>
<path style="fill:#FFFFFF;" d="M360.314,264.643l16.24-23.335l15.371,10.696l-2.83,4.064l-10.814-7.526l-3.811,5.474l9.21,6.408
	l-2.825,4.064l-9.209-6.41l-3.95,5.67l10.819,7.527l-2.83,4.064L360.314,264.643z"/>
<path style="fill:#FFFFFF;" d="M390.394,291.105l4.925-11.634l-2.624-3.017l-8.563,7.441l-3.644-4.193l21.477-18.655l7.31,8.415
	c3.8,4.373,3.069,9.562-0.523,12.68c-3.015,2.62-6.485,2.404-9.048,0.978l-5.092,12.84L390.394,291.105z M405.297,272.44
	l-3.433-3.951l-5.671,4.927l3.438,3.951c1.593,1.84,3.821,2.023,5.481,0.583C406.768,276.509,406.895,274.28,405.297,272.44z"/>
<path style="fill:#FFFFFF;" d="M397.452,300.854l25.383-12.798l8.429,16.718l-4.418,2.23l-5.933-11.764l-5.956,3.002l5.053,10.017
	l-4.418,2.229l-5.053-10.016l-6.167,3.109l5.933,11.763l-4.423,2.23L397.452,300.854z"/>
<path style="fill:#FFFFFF;" d="M407.647,323.828l27.299-7.964l1.56,5.33l-27.305,7.964L407.647,323.828z"/>
<path style="fill:#FFFFFF;" d="M412.745,353.304l16.496-12.638l-17.404,1.408l-0.445-5.537l28.352-2.292l0.401,4.938l-16.457,12.636
	l17.365-1.404l0.451,5.535l-28.357,2.294L412.745,353.304z"/>
<path style="fill:#FFFFFF;" d="M217.71,455.031l17.695-22.248l14.656,11.655l-3.081,3.874l-10.313-8.203l-4.15,5.22l8.781,6.983
	l-3.081,3.875l-8.781-6.983l-4.3,5.407l10.313,8.2l-3.082,3.878L217.71,455.031z"/>
<path style="fill:#FFFFFF;" d="M259.534,480.615l-0.595-12.611l-3.665-1.585l-4.5,10.41l-5.093-2.203l11.28-26.093l10.225,4.418
	c5.315,2.301,6.897,7.29,5.011,11.649c-1.582,3.666-4.803,4.972-7.726,4.797l0.962,13.767L259.534,480.615z M264.893,457.354
	l-4.802-2.075l-2.978,6.889l4.801,2.076c2.235,0.966,4.32,0.172,5.192-1.845C267.975,460.383,267.128,458.321,264.893,457.354z"/>
<path style="fill:#FFFFFF;" d="M295.959,489.047l-5.508-13.8l-4.229,3.86l-1.145,8.469l-5.499-0.747l3.81-28.168l5.499,0.744
	l-1.657,12.265l11.588-10.919l6.688,0.902l-10.852,9.934l7.713,18.329L295.959,489.047z"/>
<path style="fill:#FFFFFF;" d="M332.685,487.125l-13.655-15.65l2.513,17.271l-5.493,0.799l-4.093-28.137l4.9-0.713l13.65,15.61
	l-2.504-17.232l5.493-0.799l4.092,28.14L332.685,487.125z"/>
<path style="fill:#FFFFFF;" d="M353.551,481.515l-11.526-26.001l17.126-7.594l2.008,4.529l-12.05,5.343l2.702,6.101l10.262-4.552
	l2.009,4.529l-10.263,4.549l2.803,6.318l12.051-5.343l2.005,4.526L353.551,481.515z"/>
<path style="fill:#FFFFFF;" d="M395.586,456.291l-11.46-5.318l-3.104,2.519l7.146,8.813l-4.313,3.496l-17.914-22.096l8.66-7.02
	c4.499-3.646,9.658-2.738,12.652,0.956c2.516,3.103,2.182,6.56,0.672,9.072l12.654,5.526L395.586,456.291z M377.44,440.761
	l-4.064,3.296l4.73,5.836l4.065-3.299c1.894-1.531,2.153-3.749,0.769-5.457C381.558,439.43,379.335,439.227,377.44,440.761z"/>
<path style="fill:#FFFFFF;" d="M283.593,565.985v-16.308l-4.134,3.594v-3.994l4.134-3.591h3.705v20.299H283.593z"/>
<path style="fill:#FFFFFF;" d="M304.44,557.205l-4.304,8.78h-4.02l4.218-8.382c-0.485,0.197-1.025,0.256-1.51,0.256
	c-2.735,0-5.359-2.253-5.359-6.014c0-3.992,2.735-6.329,6.328-6.329c3.594,0,6.329,2.251,6.329,6.273
	C306.123,553.64,305.354,555.35,304.44,557.205z M299.794,548.851c-1.51,0-2.624,1.084-2.624,2.967c0,1.794,1.056,2.964,2.624,2.964
	c1.51,0,2.624-1.083,2.624-2.964C302.418,549.935,301.304,548.851,299.794,548.851z"/>
<path style="fill:#FFFFFF;" d="M309.182,565.985v-3.337l7.583-8.809c0.741-0.883,1.056-1.51,1.056-2.451
	c0-1.51-0.883-2.538-2.454-2.538c-1.226,0-2.479,0.627-2.479,2.594h-3.705c0-3.705,2.708-5.928,6.185-5.928
	c3.594,0,6.162,2.251,6.162,5.899c0,1.967-0.772,3.022-2.168,4.646l-5.674,6.586h7.842v3.337H309.182z"/>
<path style="fill:#FFFFFF;" d="M330.742,566.158c-3.306,0-6.184-2.168-6.184-6.045v-8.552c0-3.878,2.878-6.045,6.184-6.045
	c3.31,0,6.159,2.167,6.159,6.045v8.552C336.901,563.99,334.052,566.158,330.742,566.158z M333.194,551.617
	c0-1.711-0.998-2.767-2.452-2.767s-2.478,1.056-2.478,2.767v8.468c0,1.711,1.024,2.735,2.478,2.735s2.452-1.025,2.452-2.735V551.617
	z"/>
<path style="fill:#FFFFFF;" d="M288.257,593.941c0,1.911,1.17,3.31,3.25,3.31c1.624,0,2.424-0.457,3.365-1.398l2.254,2.195
	c-1.513,1.51-2.967,2.34-5.647,2.34c-3.507,0-6.872-1.6-6.872-7.613c0-4.847,2.624-7.585,6.474-7.585
	c4.134,0,6.471,3.024,6.471,7.101v1.651H288.257z M293.56,589.808c-0.398-0.883-1.225-1.538-2.479-1.538
	c-1.254,0-2.084,0.655-2.479,1.538c-0.229,0.543-0.317,0.941-0.345,1.599h5.645C293.872,590.749,293.788,590.351,293.56,589.808z"/>
<path style="fill:#FFFFFF;" d="M300.839,600.215v-4.218h4.248v4.218H300.839z"/>
<path style="fill:#FFFFFF;" d="M316.778,600.215h-2.964l-6.699-20.299h4.105l4.076,13.228l4.075-13.228h4.134L316.778,600.215z"/>
<path style="fill:#FFFFFF;" d="M325.539,600.215v-4.218h4.251v4.218H325.539z"/>
</svg>
