<?xml version="1.0" encoding="UTF-8" standalone="no"?>
<svg
   xmlns:dc="http://purl.org/dc/elements/1.1/"
   xmlns:cc="http://creativecommons.org/ns#"
   xmlns:rdf="http://www.w3.org/1999/02/22-rdf-syntax-ns#"
   xmlns:svg="http://www.w3.org/2000/svg"
   xmlns="http://www.w3.org/2000/svg"
   xmlns:sodipodi="http://sodipodi.sourceforge.net/DTD/sodipodi-0.dtd"
   xmlns:inkscape="http://www.inkscape.org/namespaces/inkscape"
   version="1.1"
   id="Layer_1"
   x="0px"
   y="0px"
   viewBox="0 0 1000 1000"
   xml:space="preserve"
   sodipodi:docname="Herthaber.svg"
   width="1000"
   height="1000"
   inkscape:version="1.0.1 (3bc2e813f5, 2020-09-07)"><metadata
   id="metadata25"><rdf:RDF><cc:Work
       rdf:about=""><dc:format>image/svg+xml</dc:format><dc:type
         rdf:resource="http://purl.org/dc/dcmitype/StillImage" /><dc:title></dc:title></cc:Work></rdf:RDF></metadata><defs
   id="defs23" /><sodipodi:namedview
   pagecolor="#ffffff"
   bordercolor="#666666"
   borderopacity="1"
   objecttolerance="10"
   gridtolerance="10"
   guidetolerance="10"
   inkscape:pageopacity="0"
   inkscape:pageshadow="2"
   inkscape:window-width="1920"
   inkscape:window-height="1017"
   id="namedview21"
   showgrid="false"
   inkscape:zoom="1.9812734"
   inkscape:cx="267"
   inkscape:cy="31"
   inkscape:window-x="-8"
   inkscape:window-y="-8"
   inkscape:window-maximized="1"
   inkscape:current-layer="Layer_1" />








<g
   id="g859"
   transform="matrix(4.3981074,0,0,4.3981074,-697.10002,336.45961)"><path
     style="fill:#ffffff"
     d="m 158.5,31.5 c 0,59.552 48.448,108.001 108.001,108.001 C 326.053,139.501 374.5,91.052 374.5,31.5 374.5,-28.052 326.053,-76.501 266.501,-76.501 206.948,-76.501 158.5,-28.052 158.5,31.5 m 4.956,0 c 0,-56.817 46.227,-103.043 103.045,-103.043 56.817,0 103.043,46.226 103.043,103.043 0,56.819 -46.225,103.045 -103.043,103.045 -56.818,0 -103.045,-46.226 -103.045,-103.045"
     id="path2" /><path
     style="fill:#ffffff"
     d="m 158.5,31.5 c 0,59.552 48.448,108.001 108.001,108.001 C 326.053,139.501 374.5,91.052 374.5,31.5 374.5,-28.052 326.053,-76.501 266.501,-76.501 206.948,-76.501 158.5,-28.052 158.5,31.5"
     id="path4" /><path
     d="m 163.767,31.5 c 0,56.648 46.087,102.733 102.734,102.733 56.645,0 102.733,-46.085 102.733,-102.733 0,-56.646 -46.088,-102.733 -102.733,-102.733 -56.647,0 -102.734,46.087 -102.734,102.733 m 4.957,0 c 0,-53.915 43.863,-97.775 97.777,-97.775 53.915,0 97.777,43.86 97.777,97.775 0,53.914 -43.862,97.777 -97.777,97.777 -53.914,0 -97.777,-43.863 -97.777,-97.777"
     id="path6" /><path
     style="fill:#005e99"
     d="m 236.937,26.466 2.902,-0.215 2.341,31.764 -2.903,0.214 -1.126,-15.267 -4.355,0.321 1.126,15.265 -2.904,0.214 -2.34,-31.763 2.903,-0.214 1.034,14.033 4.356,-0.319 -1.034,-14.033 m 14.831,18.787 -3.609,0.264 -0.43,-5.851 c -0.13,-1.76 0.525,-2.472 1.625,-2.553 1.1,-0.081 1.853,0.526 1.982,2.288 z m 0.692,9.413 c 0.13,1.76 -0.523,2.472 -1.625,2.553 -1.099,0.081 -1.853,-0.528 -1.981,-2.288 l -0.513,-6.949 6.336,-0.467 -0.613,-8.315 c -0.269,-3.651 -2.54,-4.458 -4.872,-4.287 -2.332,0.174 -4.46,1.303 -4.19,4.956 l 1.124,15.265 c 0.27,3.65 2.54,4.458 4.871,4.286 2.333,-0.174 4.46,-1.303 4.191,-4.955 l -0.249,-3.387 -2.727,0.202 0.248,3.386 m 4.889,-18.299 2.552,-0.188 0.122,1.671 0.088,-0.007 c 0.743,-1.336 1.795,-2.076 3.51,-2.202 l 0.201,2.727 c -2.639,0.192 -3.49,1.273 -3.304,3.783 l 1.325,17.992 -2.728,0.199 -1.766,-23.975 m 17.942,-1.969 2.729,-0.2 0.692,9.416 0.089,-0.008 c 0.452,-1.05 1.531,-2.015 2.94,-2.119 2.155,-0.157 3.291,1.438 3.434,3.375 l 1.52,20.632 -2.729,0.202 -1.442,-19.577 c -0.092,-1.276 -0.646,-2.165 -1.877,-2.074 -1.275,0.096 -1.802,1.372 -1.73,2.339 l 1.443,19.577 -2.728,0.202 -2.341,-31.765 m 21.179,24.493 c 0.117,1.584 -0.522,2.515 -1.71,2.603 -1.451,0.107 -1.783,-0.795 -1.912,-2.512 l -0.4,-5.456 c -0.149,-2.024 2.008,-2.758 3.416,-2.862 z m -0.768,-10.426 c -4.311,0.316 -6.216,2.094 -5.995,5.087 l 0.48,6.51 c 0.178,2.417 1.435,3.875 3.545,3.718 1.629,-0.119 2.377,-0.793 3.056,-1.771 l 0.087,-0.007 0.095,1.276 2.552,-0.188 -1.478,-20.061 c -0.227,-3.079 -1.892,-4.063 -4.532,-3.867 -2.507,0.184 -4.466,1.831 -4.283,4.296 l 0.207,2.814 2.728,-0.2 L 292,43.827 c -0.104,-1.407 0.048,-2.346 1.587,-2.46 1.1,-0.081 1.627,0.455 1.732,1.907 l 0.383,5.191 m 10.844,-2.975 -0.853,-11.571 1.626,-0.118 c 1.497,-0.11 2.486,0.126 2.622,1.974 l 0.526,7.128 c 0.138,1.891 -0.624,2.346 -1.987,2.445 z m -1.597,17.942 5.409,-0.397 c 2.903,-0.212 4.584,-0.824 4.351,-3.991 l -0.732,-9.942 c -0.164,-2.2 -1.486,-2.765 -3.518,-2.704 l -0.006,-0.089 c 2.237,-0.253 3.096,-1.2 2.914,-3.665 l -0.593,-8.049 c -0.235,-3.168 -1.984,-3.527 -4.756,-3.322 l -5.413,0.397 z m 2.721,-2.677 -0.943,-12.8 1.935,-0.146 c 1.364,-0.1 2.317,0.229 2.431,1.77 l 0.643,8.711 c 0.136,1.849 -0.81,2.228 -2.305,2.337 l -1.761,0.128 m 15.496,-24.026 c -0.093,-1.23 -0.467,-2.133 -1.831,-2.03 -1.364,0.1 -1.603,1.048 -1.512,2.279 l 0.245,3.343 c 0.073,1.013 0.326,2.01 0.869,2.811 l 5.203,7.58 c 0.74,1.05 1.236,2.386 1.341,3.791 l 0.372,5.015 c 0.219,2.994 -1.418,4.794 -4.32,5.009 -3.215,0.235 -4.858,-1.101 -5.096,-4.315 l -0.319,-4.354 2.9,-0.214 0.31,4.179 c 0.109,1.496 0.748,2.334 2.025,2.239 1.185,-0.086 1.694,-1.008 1.582,-2.506 l -0.328,-4.443 c -0.081,-1.098 -0.362,-1.919 -1.06,-2.972 l -4.815,-7.123 c -0.891,-1.303 -1.41,-2.326 -1.529,-3.955 l -0.281,-3.827 c -0.232,-3.124 1.281,-4.782 4.229,-5.001 3.258,-0.24 4.689,1.203 4.903,4.106 l 0.299,4.049 -2.904,0.214 -0.283,-3.875 m 13.23,3.753 c -0.1,-1.364 -0.633,-1.988 -1.778,-1.902 -1.143,0.083 -1.579,0.778 -1.479,2.143 l 1.72,23.319 c 0.1,1.361 0.633,1.985 1.776,1.902 1.143,-0.086 1.581,-0.778 1.482,-2.145 l -0.329,-4.445 2.903,-0.21 0.333,4.531 c 0.197,2.684 -1.171,4.508 -4.208,4.732 -3.034,0.225 -4.658,-1.381 -4.854,-4.065 L 330.228,40.85 c -0.194,-2.685 1.173,-4.511 4.209,-4.732 3.036,-0.226 4.66,1.379 4.855,4.065 l 0.31,4.177 -2.906,0.214 -0.3,-4.092"
     id="path8" /><path
     style="fill:#005e99"
     d="m 269.781,35.394 -2.727,0.2 0.588,7.979 -1.365,0.103 0.162,2.198 1.365,-0.1 1.387,18.827 c 0.137,1.85 1.272,2.872 3.561,2.702 l 1.32,-0.098 -0.163,-2.197 -0.571,0.04 c -0.792,0.06 -1.384,-0.164 -1.465,-1.265 l -1.342,-18.213 1.937,-0.143 -0.161,-2.198 -1.938,0.144 -0.588,-7.979 m -62.184,-61.428 -0.092,0.017 0.045,0.081 c 3.417,6.117 11.812,22.775 15.964,45.248 l 0.011,0.069 0.07,-0.017 c 3.867,-0.947 17.741,-3.729 33.869,0.348 8.353,2.112 12.8,3.455 15.738,4.346 4.006,1.21 4.957,1.496 9.272,1.739 0.006,0 0.517,-0.02 0.517,-0.02 10.355,-0.388 34.684,-1.295 36.993,-1.295 2.815,0 9.007,0.409 18.818,3.152 l 0.078,0.021 0.008,-0.081 c 0.166,-2.554 0.247,-5.072 0.247,-7.479 0,-17.992 -4.425,-28.105 -5.782,-30.779 -7.358,-2.963 -13.745,-3.527 -17.563,-3.863 -1.565,-0.138 -2.688,-0.237 -3.503,-0.44 -1.767,-0.376 -17.249,-0.031 -30.921,0.486 -1.52,0.293 -10.127,1.29 -31.273,-7.83 -16.783,-7.242 -35.311,-5.001 -42.496,-3.703"
     id="path10" /><path
     style="fill:#005e99"
     d="m 207.584,-26.099 -0.181,0.033 0.09,0.16 c 3.416,6.115 11.808,22.766 15.955,45.229 l 0.027,0.138 0.133,-0.033 c 3.866,-0.948 17.727,-3.725 33.839,0.348 8.353,2.112 12.797,3.455 15.736,4.344 4.01,1.212 4.963,1.5 9.287,1.743 0.012,0 0.522,-0.02 0.522,-0.02 10.354,-0.39 34.682,-1.295 36.991,-1.295 2.813,0 8.994,0.409 18.802,3.149 l 0.154,0.045 0.012,-0.162 c 0.167,-2.558 0.25,-5.074 0.25,-7.484 0,-18.006 -4.434,-28.134 -5.791,-30.809 l -0.022,-0.045 -0.045,-0.017 c -7.335,-2.937 -13.727,-3.501 -17.546,-3.836 -1.565,-0.141 -2.685,-0.238 -3.494,-0.441 -1.775,-0.378 -17.264,-0.03 -30.94,0.483 -1.526,0.296 -10.116,1.289 -31.245,-7.825 -16.8,-7.246 -35.341,-5.004 -42.534,-3.705"
     id="path12" /><path
     style="fill:#005e99"
     d="m 207.584,-26.099 -0.181,0.033 0.09,0.16 c 3.416,6.115 11.808,22.766 15.955,45.229 l 0.027,0.138 0.133,-0.033 c 3.866,-0.948 17.727,-3.725 33.839,0.348 8.353,2.112 12.797,3.455 15.736,4.344 4.01,1.212 4.963,1.5 9.287,1.743 0.012,0 0.522,-0.02 0.522,-0.02 10.354,-0.39 34.682,-1.295 36.991,-1.295 2.813,0 8.994,0.409 18.802,3.149 l 0.154,0.045 0.012,-0.162 c 0.167,-2.558 0.25,-5.074 0.25,-7.484 0,-18.006 -4.434,-28.134 -5.791,-30.809 l -0.022,-0.045 -0.045,-0.017 c -7.335,-2.937 -13.727,-3.501 -17.546,-3.836 -1.565,-0.141 -2.685,-0.238 -3.494,-0.441 -1.775,-0.378 -17.264,-0.03 -30.94,0.483 -1.526,0.296 -10.116,1.289 -31.245,-7.825 -16.8,-7.246 -35.341,-5.004 -42.534,-3.705"
     id="path14" /><path
     style="fill:#005e99"
     d="m 250.067,-22.271 c -16.685,-7.196 -35.007,-5.044 -42.459,-3.698 3.139,5.622 11.773,22.544 15.971,45.27 4.3,-1.055 17.91,-3.693 33.9,0.348 8.352,2.112 12.8,3.456 15.744,4.347 3.98,1.202 4.955,1.495 9.256,1.738 2.263,-0.086 34.82,-1.314 37.506,-1.314 2.943,0 9.128,0.44 18.837,3.152 0.172,-2.624 0.25,-5.117 0.25,-7.475 0,-18.142 -4.553,-28.339 -5.777,-30.749 -7.251,-2.902 -13.647,-3.486 -17.508,-3.825 -1.562,-0.14 -2.69,-0.239 -3.515,-0.446 -1.765,-0.374 -17.205,-0.029 -30.902,0.488 -1.656,0.32 -10.242,1.249 -31.303,-7.836"
     id="path16" /><path
     d="m 216.578,69.823 c -0.765,0.72 -1.504,1.315 -2.096,1.61 -2.836,1.417 -5.075,5.389 -5.075,10.269 0,1.6 0.24,3.296 0.78,5.031 1.733,5.585 7.526,7.724 10.538,8.471 l 3.664,22.426 3.899,-0.636 -3.376,-20.661 c 2.753,0.97 7.107,2.806 9.94,5.508 1.489,1.422 1.943,3.42 1.943,5.32 0,2.91 -1.062,5.597 -1.091,5.67 l -0.009,0.003 c -0.534,1.346 -0.149,2.783 0.856,3.193 1.006,0.412 2.269,-0.35 2.808,-1.695 0.164,-0.4 3.956,-9.871 -1.78,-15.346 -4.259,-4.065 -10.985,-6.33 -13.384,-7.042 l -3.392,-20.769 c 0.891,-0.954 1.63,-1.838 2.075,-2.388 8.178,-1.132 26.388,-2.604 33.164,1.493 0.603,0.351 14.259,8.135 28.751,2.338 10.348,-4.139 31.9,-1.007 32.115,-0.977 0.113,0.017 10.592,1.605 23.871,9.407 l 2.207,1.285 1.026,-2.167 c 3.905,-8.506 5.263,-16.553 5.263,-23.633 0,-14.104 -5.377,-24.358 -6.803,-26.833 0.273,-3.438 0.407,-6.685 0.407,-9.702 0,-21.88 -6.345,-32.682 -6.651,-33.194 l -0.336,-0.555 -0.596,-0.247 c -8.08,-3.367 -15.112,-3.986 -19.315,-4.357 -1.277,-0.115 -2.379,-0.21 -2.914,-0.344 -2.696,-0.677 -25.295,0.121 -32.157,0.379 l -0.173,0.007 -0.199,0.045 c -0.077,0.017 -7.912,1.551 -29.058,-7.572 -17.66,-7.616 -36.476,-5.484 -44.502,-4.02 -0.01,-0.152 -0.016,-0.306 -0.048,-0.458 -0.357,-1.719 -2.043,-2.826 -3.762,-2.472 l -3.509,0.727 c -1.718,0.354 -2.826,2.043 -2.472,3.76 0.355,1.72 2.043,2.827 3.762,2.473 z m -2.619,15.739 c -1.69,-5.445 0.557,-9.729 2.29,-10.594 0.347,-0.174 0.704,-0.395 1.064,-0.645 l 2.703,16.541 c -2.283,-0.813 -5.152,-2.385 -6.057,-5.302 m 5.976,-19.694 -14.133,-86.497 c 6.498,12.686 21.249,47.092 14.133,86.497 m -12.478,-91.776 c 7.451,-1.348 25.774,-3.501 42.46,3.696 21.061,9.085 29.645,8.158 31.302,7.837 13.697,-0.517 29.138,-0.862 30.904,-0.488 0.822,0.205 1.951,0.305 3.512,0.443 3.862,0.34 10.256,0.926 17.51,3.829 1.224,2.41 5.777,12.604 5.777,30.748 0,2.355 -0.081,4.849 -0.253,7.476 -9.706,-2.715 -15.893,-3.155 -18.837,-3.155 -2.684,0 -35.241,1.229 -37.504,1.314 -4.301,-0.24 -5.275,-0.533 -9.258,-1.738 -2.942,-0.889 -7.39,-2.231 -15.741,-4.344 -15.99,-4.041 -29.6,-1.403 -33.901,-0.348 -4.198,-22.728 -12.831,-39.648 -15.971,-45.27 M 341.182,76.736 c -13.217,-7.423 -23.267,-8.941 -23.703,-9.004 -0.916,-0.136 -22.813,-3.317 -34.153,1.22 -12.669,5.065 -25.145,-1.998 -25.269,-2.069 -7.918,-4.789 -26.273,-3.172 -33.9,-2.241 2.426,-14.8 1.899,-28.869 -0.06,-41.369 3.526,-0.872 16.877,-3.622 32.264,0.267 8.263,2.089 12.66,3.417 15.57,4.298 4.157,1.256 5.413,1.637 10.264,1.905 l 0.093,0.005 0.092,-0.002 c 0.349,-0.015 34.807,-1.317 37.454,-1.317 2.892,0 9.169,0.467 19.328,3.453 1.366,2.493 6.086,12.017 6.086,24.826 -0.002,6.071 -1.088,12.882 -4.066,20.028"
     id="path18" /></g>
</svg>
