<?xml version="1.0" encoding="UTF-8" standalone="no"?>
<svg
   xmlns:dc="http://purl.org/dc/elements/1.1/"
   xmlns:cc="http://creativecommons.org/ns#"
   xmlns:rdf="http://www.w3.org/1999/02/22-rdf-syntax-ns#"
   xmlns:svg="http://www.w3.org/2000/svg"
   xmlns="http://www.w3.org/2000/svg"
   xmlns:sodipodi="http://sodipodi.sourceforge.net/DTD/sodipodi-0.dtd"
   xmlns:inkscape="http://www.inkscape.org/namespaces/inkscape"
   version="1.1"
   id="Layer_1"
   x="0px"
   y="0px"
   viewBox="0 0 1000 1000"
   xml:space="preserve"
   sodipodi:docname="Kickersoffen.svg"
   width="1000"
   height="1000"
   inkscape:version="1.0.1 (3bc2e813f5, 2020-09-07)"><metadata
   id="metadata73"><rdf:RDF><cc:Work
       rdf:about=""><dc:format>image/svg+xml</dc:format><dc:type
         rdf:resource="http://purl.org/dc/dcmitype/StillImage" /><dc:title></dc:title></cc:Work></rdf:RDF></metadata><defs
   id="defs71" /><sodipodi:namedview
   pagecolor="#ffffff"
   bordercolor="#666666"
   borderopacity="1"
   objecttolerance="10"
   gridtolerance="10"
   guidetolerance="10"
   inkscape:pageopacity="0"
   inkscape:pageshadow="2"
   inkscape:window-width="1920"
   inkscape:window-height="1017"
   id="namedview69"
   showgrid="false"
   inkscape:zoom="1.3225"
   inkscape:cx="400"
   inkscape:cy="300"
   inkscape:window-x="-8"
   inkscape:window-y="-8"
   inkscape:window-maximized="1"
   inkscape:current-layer="Layer_1" />
































<g
   id="g931"
   transform="matrix(4.3981481,0,0,4.3981481,-1286.4583,-846.64351)"><path
     style="fill:#db5c4a"
     d="M 508.5,300.494 C 508.5,360.146 460.146,408.5 400.506,408.5 340.854,408.5 292.5,360.147 292.5,300.494 292.5,240.853 340.854,192.5 400.506,192.5 c 59.64,0 107.994,48.353 107.994,107.994"
     id="path2" /><path
     style="fill:#ffffff"
     d="m 500.941,300.494 c 0,55.479 -44.967,100.447 -100.435,100.447 -55.479,0 -100.447,-44.968 -100.447,-100.447 0,-55.468 44.968,-100.435 100.447,-100.435 55.469,0 100.435,44.967 100.435,100.435"
     id="path4" /><path
     style="fill:#db5c4a"
     d="m 429.1,331.331 c -28.105,2.42 -50.551,16.04 -61.518,24.01 0.555,-4.218 0.832,-8.348 0.832,-12.321 0,-5.262 -0.443,-10.291 -1.187,-15.052 6.716,-4.851 28.183,-18.804 54.88,-20.436 30.547,-1.888 48.141,-10.567 62.006,-20.191 3.906,11.111 6.949,19.759 7.447,21.179 -12.242,9.447 -30.414,20.046 -62.46,22.811 m -71.541,-33.356 c 7.537,-4.784 30.115,-17.816 54.046,-19.092 26.685,-1.433 47.221,-7.849 62.65,-19.593 2.82,8.026 5.838,16.607 8.547,24.31 -9.891,7.082 -27.361,18.027 -60.939,20.103 -26.218,1.61 -47.088,14.253 -55.402,20.069 -2.031,-9.991 -5.361,-18.682 -8.902,-25.797 m 2.564,60.773 -36.23,-87.358 c 2.806,0.866 5.437,1.343 7.414,1.599 1.91,1.831 10.812,10.756 18.425,24.831 7.881,14.597 11.834,29.638 11.834,44.9 0,5.317 -0.488,10.667 -1.443,16.028 m -1.887,22.024 c -0.533,-0.511 -0.765,-1.055 -0.765,-1.82 0,-1.1 0.277,-2.043 0.72,-2.83 l 2.442,5.904 c -0.977,-0.299 -1.82,-0.721 -2.397,-1.254 m -3.597,-122.658 0.177,-0.089 0.178,-0.1 c 0.111,-0.078 11.744,-6.982 35.676,-7.948 27.131,-1.088 43.08,-5.583 53.938,-9.38 7.115,-2.508 14.73,-7.703 19.191,-11.033 1,2.853 4.707,13.409 9.113,25.908 -14.885,11.754 -35.055,18.16 -61.518,19.58 -24.809,1.332 -47.52,14.33 -55.602,19.469 -0.043,-0.065 -0.066,-0.144 -0.109,-0.209 -6.528,-12.022 -13.809,-20.37 -17.573,-24.277 8.16,-7.959 16.441,-11.877 16.529,-11.921 m 20.603,132.949 c 0.932,0.909 1.399,2.141 1.399,3.762 0,0.166 -0.112,1.82 -0.223,3.252 l -3.463,-8.38 c 0.844,0.321 1.643,0.765 2.287,1.366 m 91.821,-173.021 -3.818,3.208 c -0.111,0.088 -11.41,9.501 -20.924,12.82 -10.4,3.63 -25.709,7.959 -51.938,9.014 -24.621,0.999 -37.176,7.87 -38.807,8.835 -1.422,0.678 -11.412,5.673 -20.658,15.574 -2.52,-0.378 -5.895,-1.165 -9.047,-2.664 3.041,-2.087 4.695,-4.772 3.908,-6.926 -1.078,-2.964 -6.372,-3.763 -11.822,-1.777 -5.451,1.988 -8.992,5.995 -7.914,8.958 0.766,2.121 3.686,3.119 7.27,2.809 l 42.214,101.813 c -2.109,1.932 -4.195,4.939 -4.195,9.246 0,2.475 0.943,4.662 2.719,6.305 2.519,2.353 6.338,3.241 9.381,3.563 l 6.504,15.662 7.802,-3.229 -0.398,-0.955 5.051,0.355 0.398,-5.672 v -0.111 c 0,-3.33 -1.154,-6.194 -3.33,-8.27 -2.908,-2.754 -6.871,-3.541 -9.346,-3.752 l -6.416,-15.475 1.278,-1.142 c 0.277,-0.256 27.783,-24.843 64.724,-28.018 35.588,-3.064 55.09,-15.406 68.111,-25.809 l 1.91,-1.531 -32.657,-92.831"
     id="path6" /><polygon
     style="fill:#db5c4a"
     points="384.877,342.453 380.947,344.651 373.543,331.486 370.146,333.406 369.813,328.467 375.285,325.403 "
     id="polygon8" /><path
     style="fill:#db5c4a"
     d="m 391.004,339.313 4.641,-2.021 0.621,-4.84 c 0.31,-2.31 0.443,-4.163 0.355,-5.55 -0.09,-1.388 -0.355,-2.62 -0.822,-3.686 -0.877,-1.998 -2.131,-3.342 -3.797,-4.029 -1.643,-0.699 -3.439,-0.622 -5.371,0.222 -1.932,0.844 -3.209,2.109 -3.842,3.819 -0.621,1.709 -0.488,3.562 0.379,5.561 0.721,1.643 1.764,2.809 3.162,3.475 1.389,0.688 2.787,0.71 4.197,0.088 0.321,-0.133 0.621,-0.289 0.877,-0.477 0.287,-0.166 0.532,-0.355 0.754,-0.555 z m -2.465,-10.735 c -0.676,-0.289 -1.199,-0.865 -1.553,-1.721 -0.379,-0.865 -0.445,-1.643 -0.222,-2.331 0.244,-0.699 0.732,-1.21 1.497,-1.532 0.765,-0.344 1.488,-0.365 2.164,-0.066 0.666,0.301 1.189,0.877 1.554,1.733 0.377,0.865 0.444,1.642 0.223,2.318 -0.234,0.689 -0.744,1.211 -1.521,1.543 -0.765,0.333 -1.486,0.356 -2.142,0.056"
     id="path10" /><path
     style="fill:#db5c4a"
     d="m 408.898,314.592 c -1.678,-1.41 -3.553,-1.81 -5.641,-1.199 -2.041,0.611 -3.397,1.943 -4.063,4.041 -0.666,2.088 -0.554,4.662 0.344,7.715 0.9,3.064 2.188,5.295 3.887,6.693 1.676,1.398 3.563,1.809 5.605,1.209 2.064,-0.599 3.418,-1.941 4.084,-4.006 0.666,-2.055 0.555,-4.585 -0.322,-7.594 -0.919,-3.163 -2.229,-5.449 -3.894,-6.859 m -5.795,4.596 c 0.066,-1.055 0.51,-1.688 1.275,-1.92 0.768,-0.223 1.467,0.1 2.1,0.965 0.631,0.855 1.254,2.309 1.842,4.352 0.6,2.054 0.889,3.619 0.811,4.684 -0.066,1.055 -0.488,1.688 -1.254,1.92 -0.768,0.223 -1.467,-0.088 -2.109,-0.932 -0.621,-0.855 -1.244,-2.309 -1.853,-4.385 -0.612,-2.076 -0.89,-3.642 -0.812,-4.684"
     id="path12" /><polygon
     style="fill:#db5c4a"
     points="426.303,328.911 421.84,329.555 419.688,314.613 415.824,315.169 417.289,310.451 423.506,309.553 "
     id="polygon14" /><polygon
     style="fill:#db5c4a"
     points="451.645,312.782 458.537,310.897 459.648,314.969 452.754,316.856 453.621,320.042 460.935,318.044 462.09,322.307 449.236,325.803 444.053,306.788 456.906,303.291 458.049,307.454 450.734,309.452 "
     id="polygon16" /><path
     style="fill:#db5c4a"
     d="m 463.266,319.376 c -0.277,-0.722 -0.287,-1.409 -0.022,-2.064 0.244,-0.666 0.699,-1.122 1.354,-1.367 0.666,-0.255 1.322,-0.221 1.955,0.101 0.643,0.321 1.088,0.833 1.375,1.543 0.268,0.722 0.268,1.409 0,2.087 -0.266,0.666 -0.732,1.133 -1.375,1.377 -0.656,0.244 -1.289,0.211 -1.932,-0.123 -0.633,-0.311 -1.088,-0.844 -1.355,-1.554"
     id="path18" /><path
     style="fill:#db5c4a"
     d="m 475.609,316.557 -15.84,-14.064 4.662,-2.408 8.315,8.147 c 0.09,0.089 0.266,0.311 0.555,0.655 0.311,0.354 0.699,0.82 1.188,1.42 -0.145,-0.6 -0.299,-1.143 -0.41,-1.631 -0.121,-0.488 -0.199,-0.811 -0.244,-1.011 l -1.865,-11.478 4.662,-2.42 2.332,21.047 -3.355,1.743"
     id="path20" /><path
     style="fill:#db5c4a"
     d="m 483.203,309.797 c -0.422,-0.655 -0.578,-1.321 -0.467,-2.021 0.111,-0.7 0.467,-1.232 1.043,-1.62 0.6,-0.4 1.244,-0.5 1.932,-0.334 0.69,0.178 1.244,0.588 1.666,1.221 0.422,0.633 0.576,1.321 0.465,2.022 -0.109,0.721 -0.465,1.265 -1.055,1.653 -0.576,0.378 -1.209,0.488 -1.908,0.3 -0.699,-0.178 -1.254,-0.588 -1.676,-1.221"
     id="path22" /><path
     style="fill:#db5c4a"
     d="m 403.381,258.103 c -0.766,-1.177 -1.721,-2.165 -2.875,-2.976 -1.133,-0.788 -2.365,-1.332 -3.686,-1.598 -1.332,-0.278 -2.642,-0.278 -3.929,0.012 -1.321,0.299 -2.508,0.843 -3.596,1.642 -1.066,0.811 -1.943,1.81 -2.643,3.02 -0.711,1.209 -1.175,2.52 -1.377,3.918 -0.199,1.387 -0.132,2.809 0.178,4.262 0.322,1.443 0.867,2.764 1.643,3.941 0.767,1.188 1.732,2.176 2.908,2.975 1.121,0.799 2.353,1.332 3.664,1.609 1.311,0.289 2.631,0.277 3.951,-0.012 1.289,-0.288 2.465,-0.832 3.553,-1.631 1.066,-0.822 1.977,-1.82 2.676,-3.031 0.699,-1.209 1.164,-2.52 1.365,-3.906 0.199,-1.388 0.133,-2.809 -0.178,-4.273 -0.322,-1.455 -0.889,-2.776 -1.654,-3.952 m -10.623,11.177 c -1.143,-0.921 -1.91,-2.265 -2.287,-3.996 -0.389,-1.732 -0.256,-3.252 0.4,-4.595 0.654,-1.333 1.664,-2.166 3.053,-2.464 1.353,-0.3 2.607,0.022 3.773,0.965 1.166,0.944 1.944,2.265 2.321,3.974 0.377,1.732 0.244,3.252 -0.401,4.596 -0.642,1.332 -1.664,2.143 -3.041,2.453 -1.398,0.31 -2.676,0 -3.818,-0.933"
     id="path24" /><path
     style="fill:#db5c4a"
     d="m 408.031,270.258 c -0.045,-0.8 0.156,-1.499 0.6,-2.076 0.455,-0.578 1.043,-0.889 1.766,-0.933 0.744,-0.044 1.365,0.178 1.898,0.699 0.521,0.522 0.799,1.189 0.865,1.998 0.045,0.8 -0.156,1.499 -0.621,2.087 -0.445,0.588 -1.055,0.91 -1.777,0.955 -0.709,0.044 -1.332,-0.19 -1.863,-0.732 -0.534,-0.523 -0.811,-1.189 -0.868,-1.998"
     id="path26" /><polygon
     style="fill:#db5c4a"
     points="422.639,258.724 430.076,257.77 430.654,262.188 423.205,263.143 424.238,271.234 418.199,272.012 415.535,251.365 429.477,249.578 430.076,254.095 422.174,255.105 "
     id="polygon28" /><path
     style="fill:#db5c4a"
     d="m 433.029,267.516 c -0.166,-0.777 -0.045,-1.51 0.377,-2.153 0.422,-0.666 1.021,-1.065 1.811,-1.243 0.81,-0.178 1.543,-0.057 2.197,0.366 0.654,0.433 1.076,1.032 1.254,1.82 0.166,0.8 0.023,1.521 -0.398,2.176 -0.422,0.677 -1.045,1.087 -1.832,1.265 -0.789,0.156 -1.498,0.033 -2.164,-0.398 -0.657,-0.435 -1.067,-1.034 -1.245,-1.833"
     id="path30" /><path
     style="fill:#db5c4a"
     d="m 453.697,242.551 2.209,5.817 c -1.098,-0.5 -2.119,-0.8 -3.051,-0.866 -0.955,-0.067 -1.865,0.066 -2.775,0.411 -1.688,0.632 -2.842,1.687 -3.486,3.119 -0.645,1.431 -0.645,2.986 -0.012,4.662 0.611,1.565 1.611,2.664 3.076,3.285 1.443,0.633 2.986,0.633 4.639,0 0.889,-0.333 1.678,-0.843 2.332,-1.531 0.643,-0.677 1.209,-1.588 1.697,-2.72 l 2.232,5.838 c -0.789,0.756 -1.6,1.41 -2.443,1.955 -0.832,0.543 -1.721,0.998 -2.664,1.364 -1.176,0.444 -2.297,0.722 -3.385,0.854 -1.076,0.133 -2.143,0.1 -3.164,-0.1 -1.975,-0.366 -3.662,-1.133 -5.06,-2.287 -1.398,-1.176 -2.465,-2.686 -3.176,-4.54 -0.555,-1.499 -0.81,-2.953 -0.744,-4.374 0.078,-1.42 0.445,-2.841 1.145,-4.24 0.654,-1.343 1.531,-2.475 2.619,-3.43 1.109,-0.966 2.432,-1.731 3.996,-2.331 0.932,-0.355 1.91,-0.61 2.887,-0.744 0.997,-0.142 2.04,-0.186 3.128,-0.142"
     id="path32" /><path
     style="fill:#db5c4a"
     d="m 461.689,257.77 c -0.398,-0.7 -0.531,-1.41 -0.377,-2.132 0.133,-0.711 0.533,-1.254 1.154,-1.62 0.645,-0.378 1.31,-0.444 2.01,-0.211 0.699,0.233 1.254,0.699 1.654,1.387 0.422,0.712 0.533,1.421 0.398,2.154 -0.166,0.743 -0.555,1.287 -1.176,1.643 -0.621,0.366 -1.287,0.421 -1.998,0.188 -0.709,-0.244 -1.252,-0.71 -1.665,-1.409"
     id="path34" /><polygon
     style="fill:#db5c4a"
     points="375.486,291.148 374.088,303.458 385.941,309.208 380.215,312.305 370.268,307.043 374.73,315.27 370.168,317.732 360.244,299.385 364.807,296.932 369.303,305.256 370.135,294.034 "
     id="polygon36" /><polygon
     style="fill:#db5c4a"
     points="379.393,289.76 384.277,287.807 392.002,307.188 387.096,309.142 "
     id="polygon38" /><path
     style="fill:#db5c4a"
     d="m 401.371,283.345 1.732,5.972 c -0.934,-0.633 -1.777,-1.032 -2.586,-1.221 -0.789,-0.189 -1.587,-0.167 -2.376,0.055 -1.442,0.422 -2.453,1.299 -3.053,2.631 -0.576,1.311 -0.621,2.842 -0.133,4.552 0.467,1.609 1.311,2.797 2.531,3.585 1.221,0.777 2.532,0.977 3.942,0.566 0.787,-0.233 1.465,-0.633 2.031,-1.221 0.576,-0.589 1.088,-1.41 1.531,-2.453 l 1.732,6.016 c -0.666,0.645 -1.377,1.188 -2.109,1.632 -0.723,0.433 -1.488,0.777 -2.309,1.011 -1,0.288 -1.955,0.433 -2.887,0.41 -0.932,-0.011 -1.82,-0.166 -2.697,-0.5 -1.655,-0.599 -3.075,-1.553 -4.241,-2.875 -1.166,-1.309 -2.031,-2.919 -2.564,-4.828 -0.443,-1.521 -0.621,-2.986 -0.533,-4.373 0.09,-1.377 0.467,-2.72 1.088,-4.008 0.588,-1.232 1.355,-2.242 2.308,-3.041 0.955,-0.81 2.11,-1.398 3.453,-1.787 0.811,-0.233 1.655,-0.367 2.498,-0.377 0.845,-0.025 1.732,0.065 2.642,0.254"
     id="path40" /><polygon
     style="fill:#db5c4a"
     points="423.971,279.582 418,290.438 426.77,300.272 420.287,300.949 413.094,292.291 414.092,301.594 408.92,302.148 406.756,281.391 411.906,280.857 412.895,290.272 417.934,280.215 "
     id="polygon42" /><polygon
     style="fill:#db5c4a"
     points="432.73,287.008 439.467,285.931 440.156,290.349 433.43,291.403 433.984,294.911 441.133,293.79 441.853,298.385 429.256,300.372 426.014,279.76 438.602,277.772 439.313,282.279 432.164,283.4 "
     id="polygon44" /><path
     style="fill:#db5c4a"
     d="m 452.832,295.377 -2.553,-7.736 7.094,6.238 6.082,-1.998 -8.014,-6.193 c 1.342,-0.8 2.209,-1.799 2.652,-3.009 0.443,-1.21 0.4,-2.587 -0.111,-4.118 -0.332,-1.01 -0.82,-1.876 -1.486,-2.586 -0.666,-0.711 -1.443,-1.222 -2.332,-1.533 -0.777,-0.254 -1.643,-0.365 -2.598,-0.277 -0.92,0.09 -2.486,0.488 -4.695,1.222 l -5.639,1.864 6.561,19.803 z m -5.172,-15.662 1.064,-0.355 c 1.178,-0.377 2.088,-0.455 2.73,-0.189 0.633,0.267 1.111,0.888 1.443,1.876 0.277,0.854 0.223,1.564 -0.178,2.153 -0.398,0.565 -1.176,1.055 -2.342,1.433 l -0.988,0.321 -1.729,-5.239"
     id="path46" /><path
     style="fill:#db5c4a"
     d="m 465.475,283.211 c 1.211,0.4 2.311,0.611 3.254,0.611 0.953,0 1.775,-0.211 2.486,-0.622 0.666,-0.378 1.109,-0.866 1.32,-1.477 0.211,-0.599 0.166,-1.177 -0.145,-1.709 -0.355,-0.6 -0.811,-0.966 -1.365,-1.065 -0.566,-0.123 -1.588,0.033 -3.074,0.433 -2.055,0.556 -3.664,0.655 -4.828,0.311 -1.166,-0.344 -2.142,-1.165 -2.908,-2.509 -1.012,-1.721 -1.256,-3.463 -0.723,-5.217 0.512,-1.766 1.699,-3.186 3.541,-4.252 0.988,-0.576 2.01,-0.986 3.053,-1.242 1.043,-0.256 2.131,-0.345 3.242,-0.268 l 0.51,4.43 c -0.844,-0.145 -1.621,-0.178 -2.354,-0.078 -0.732,0.1 -1.398,0.322 -1.965,0.645 -0.6,0.355 -0.998,0.777 -1.209,1.277 -0.201,0.498 -0.178,0.976 0.088,1.42 0.268,0.455 0.633,0.71 1.121,0.799 0.478,0.089 1.266,-0.021 2.342,-0.322 0.066,-0.011 0.156,-0.033 0.268,-0.066 2.309,-0.633 3.984,-0.799 4.994,-0.51 0.69,0.188 1.322,0.532 1.91,1.021 0.576,0.499 1.088,1.11 1.531,1.876 1.109,1.908 1.377,3.818 0.789,5.705 -0.578,1.898 -1.922,3.453 -4.008,4.674 -1.266,0.722 -2.531,1.177 -3.818,1.365 -1.266,0.166 -2.652,0.078 -4.129,-0.277 l 0.077,-4.953"
     id="path48" /><polygon
     style="fill:#db5c4a"
     points="429.91,321.219 429.91,324.537 441.932,316.356 441.932,313.037 "
     id="polygon50" /><path
     style="fill:#db5c4a"
     d="m 366.395,279.893 c -0.477,0.688 -1.432,0.865 -2.143,0.399 l -7.715,-5.206 c -0.699,-0.478 -0.887,-1.432 -0.422,-2.131 l 0.699,-1.022 c 0.467,-0.711 1.422,-0.889 2.131,-0.422 l 7.727,5.206 c 0.699,0.478 0.889,1.432 0.422,2.132 l -0.699,1.044"
     id="path52" /><path
     style="fill:#db5c4a"
     d="m 349.977,277.028 c 0,0 -0.245,4.029 4.972,6.216 0,0 2.522,-1.486 2.799,-4.873 0,0 -1.977,-2.908 -7.771,-1.343"
     id="path54" /><path
     style="fill:#db5c4a"
     d="m 352.441,264.996 c 0,0 -2.263,2.886 -2.507,5.794 0,0 -0.69,1.888 2.175,3.808 0,0 5.338,-5.25 7.858,-12.088 0,0 -1.477,-1.466 -3.686,-0.833 0,0 -2.074,0.633 -3.84,3.319"
     id="path56" /><path
     style="fill:#db5c4a"
     d="m 365.041,286.142 c 0,0 0.254,-4.04 -4.963,-6.216 0,0 -2.531,1.465 -2.818,4.851 0,-10e-4 1.986,2.908 7.781,1.365"
     id="path58" /><path
     style="fill:#db5c4a"
     d="m 369.891,274.498 c -0.465,0.71 -1.42,0.888 -2.12,0.422 l -7.714,-5.207 c -0.711,-0.477 -0.889,-1.432 -0.422,-2.131 l 0.688,-1.032 c 0.478,-0.699 1.432,-0.877 2.131,-0.422 l 7.727,5.218 c 0.711,0.467 0.888,1.432 0.422,2.131 l -0.712,1.021"
     id="path60" /><path
     style="fill:#db5c4a"
     d="m 360.789,259.768 c 0,0 -0.244,4.052 4.973,6.217 0,0 2.52,-1.466 2.797,-4.852 0,0 -1.954,-2.908 -7.77,-1.365"
     id="path62" /><path
     style="fill:#db5c4a"
     d="m 375.863,268.881 c 0,0 0.244,-4.029 -4.972,-6.205 0,0 -2.532,1.465 -2.821,4.852 0,-0.001 1.977,2.917 7.793,1.353"
     id="path64" /><path
     style="fill:#db5c4a"
     d="m 374.453,280.824 c 0,0 2.254,-2.887 2.498,-5.805 0,0 0.688,-1.876 -2.176,-3.797 0,0 -5.328,5.24 -7.847,12.088 0,0 1.465,1.477 3.686,0.844 -10e-4,0 2.064,-0.642 3.839,-3.33"
     id="path66" /></g>
</svg>
