<?xml version="1.0" encoding="iso-8859-1"?>
<!-- Generator: Adobe Illustrator 24.0.1, SVG Export Plug-In . SVG Version: 6.00 Build 0)  -->
<svg version="1.1" id="Layer_1" xmlns="http://www.w3.org/2000/svg" xmlns:xlink="http://www.w3.org/1999/xlink" x="0px" y="0px"
	 viewBox="0 0 600 600" style="enable-background:new 0 0 600 600;" xml:space="preserve">
<g id="Layer_1_4_">
	<g id="Layer_1_5_">
		<g id="Form_copy_3_">
			<path id="Au&#xDF;enring_2_" style="fill:#134B96;" d="M300.5,25.976c151.64,0,274.57,122.908,274.57,274.524
				S452.141,575.024,300.5,575.024c-151.641,0-274.57-122.908-274.57-274.524S148.86,25.976,300.5,25.976z"/>
			<path id="Ring_2_" style="fill:#FEDC3A;" d="M300.5,33.972c147.224,0,266.572,119.329,266.572,266.528
				S447.725,567.028,300.5,567.028c-147.225,0-266.572-119.329-266.572-266.528S153.276,33.972,300.5,33.972z"/>
			<path id="Hintergrund_2_" style="fill:#134B96;" d="M301.736,46.814c139.83,0,253.187,112.793,253.187,251.931
				c0,139.14-113.357,251.934-253.187,251.934c-139.831,0-253.186-112.794-253.186-251.934
				C48.55,159.606,161.905,46.814,301.736,46.814z"/>
		</g>
		<g id="Ball_copy_3_">
			<g id="Gelb_copy_3_">
				<path id="_x0031_6_2_" style="fill:#FEDC3A;" d="M343.428,191.039c0,3.247-3.232,6.028-5.891,5.839
					c-30.643-4.181-47.46-3.877-81.794,3.875C242.258,182.338,327.615,175.981,343.428,191.039z"/>
				<path id="_x0031_5_2_" style="fill:#FEDC3A;" d="M262.153,243.461c-5.73-12.589-6.836-33.977-2.037-36.26
					c18.938-9.004,55.319-9.66,77.594-1.807c2.609,9.315,2.711,26.337-0.961,35.245
					C320.836,248.587,274.344,248.663,262.153,243.461z"/>
				<path id="_x0031_4_4_" style="fill:#FEDC3A;" d="M252.681,206.706c5.974,46.058-30.945,41.014-50.171,39.571
					C182.582,244.78,254.499,173.646,252.681,206.706z"/>
				<path id="_x0031_3_4_" style="fill:#FEDC3A;" d="M356.592,241.339c-8.647-12.652-16.857-25.722-11.338-42.316
					c0.572-2.514,1.143-3.786,6.371-5.059c16.455,4.261,45.633,27.599,54.455,49.859
					C401.084,252.256,363.875,252.457,356.592,241.339z"/>
				<path id="_x0031_2_4_" style="fill:#FEDC3A;" d="M183.44,293.621c-3.519-8.846,7.246-40.926,9.109-37.821
					c2.794-1.863,30.822-7.201,45.601-4.096c6.679,15.131,0.733,36.482-8.817,46.383
					C227.946,298.032,183.615,298.972,183.44,293.621z"/>
				<path id="_x0031_1_4_" style="fill:#FEDC3A;" d="M361.684,254.558c15.297-0.184,35.56-2.439,50.146,0.961
					c5.824,9.26,11.227,31.684,6.662,34.643c-5.49,5.774-50.398,5.717-59.547-1.537c-2.728-8.804-5.053-22.645-0.912-31.227
					c0.912-0.946,1.826-1.894,2.738-2.84C361.076,254.558,361.379,254.558,361.684,254.558z"/>
				<path id="_x0031_0_4_" style="fill:#FEDC3A;" d="M418.492,301.502c7.574,3.52,1.066,30.693-1.807,33.166
					c-7.447,5.649-44.926,4.048-56.478-3.446c-3.105-10.206-4.883-16.051,1.695-28.788
					C371.145,297.157,396.154,297.157,418.492,301.502z"/>
				<path id="_x0039__4_" style="fill:#FEDC3A;" d="M307.939,252.666c10.854-4.32,25.873-4.47,36.256-0.947
					c10.641,10.83,8.676,70.768,5.578,87.06c-8.775,13.025-38.109,6.608-40.904,5.676c-9.004-4.656-9.846-84.841,0-91.788
					C308.559,252.666,308.248,252.666,307.939,252.666z"/>
				<path id="_x0038__4_" style="fill:#FEDC3A;" d="M251.675,253.487c5.278-4.035,21.849-5.991,39.234,0.839
					c9.314,11.177,5.871,85.317-0.337,88.732c-12.73,5.898-35.249,4.536-38.975,0.811
					C242.283,331.45,242.05,262.802,251.675,253.487z"/>
				<path id="_x0037__4_" style="fill:#FEDC3A;" d="M186.406,302.682c38.956-2.773,53.572-1.864,54.503,14.28
					c0.931,3.727,0.641,28.234-8.669,27.297c-8.315-0.004-36.334,1.136-43.422-4.614
					C188.727,348.538,175.188,301.73,186.406,302.682z"/>
				<path id="_x0036__4_" style="fill:#FEDC3A;" d="M400.932,344.454c4.867-0.945,13.363-6.563,14.605-2.837
					c1.242,3.726-21.832,48.423-25.559,38.798c1.555-4.967,4.857-24.16,5.479-31.229c1.52-1.577,3.041-3.154,4.563-4.732
					C400.324,344.454,400.629,344.454,400.932,344.454z"/>
				<path id="_x0035__4_" style="fill:#FEDC3A;" d="M191.808,348.767c6.921,0.296,18.914-2.363,17.894,5.885
					c-1.331,4.059-1.316,7.665-1.572,13.423c-0.284,6.395,2.441,12.858-0.213,8.983
					C204.259,374.757,187.923,348.601,191.808,348.767z"/>
				<path id="_x0034__4_" style="fill:#FEDC3A;" d="M343.428,413.536c8.383,2.483,40.85-16.865,41.035-26.685
					c4.41-21.766,5.262-22.125,2.777-36.717c-12.729-13.351-35.217-0.251-42.357,13.986
					C336.227,391.668,340.27,412.599,343.428,413.536z"/>
				<path id="_x0033__4_" style="fill:#FEDC3A;" d="M218.331,353.4c5.963-0.406,18.573-2.888,22.763-0.18
					c7.11,1.886,21.843,46.956,19.829,57.637c-10.922,5.775-42.47-16.554-42.781-27.421c-2.484-4.346-4.916-20.581-0.765-29.971
					C217.696,353.444,218.014,353.423,218.331,353.4z"/>
				<path id="_x0032__4_" style="fill:#FEDC3A;" d="M262.192,356.758c7.452-5.898,69.899-10.807,73.933,5.647
					c5.279,12.729-1.746,34.933-9.953,34.393c-10.477,2.036-59.563,4.113-63.666-6.714
					C259.156,381.055,258.23,359.895,262.192,356.758z"/>
				<path id="_x0031__6_" style="fill:#FEDC3A;" d="M268.039,416.627c0.839,7.665,59.203,9.889,63.387,0.885
					c2.9-0.093,4.088-5.795,3-8.023c-0.16-4.125-6.611-7.908-9.717-6.977c-3.104,0.931-42.01,3.824-51.634-2.385
					C266.866,400.127,265.349,412.535,268.039,416.627z"/>
			</g>
			<g id="Blau_copy_3_">
				<path id="_x0031_4_3_" style="fill:#134B96;" d="M390.102,243.593c2.52-0.254,2.234-9.314-0.375-10.992
					c-1.861-3.166-6.707-10.803-7.449-10.803c-0.746,0-2.982-0.56-3.541,1.862c-0.557,2.421,3.584,9.898,2.609,11.55
					C377.49,239.293,368.373,245.781,390.102,243.593z"/>
				<path id="_x0031_3_3_" style="fill:#134B96;" d="M403.756,285.106c-3.354,3.538,4.068,1.309,5.506-0.857
					c0.971-1.766,1.94-3.53,2.91-5.295c2.08-7.818-8.5-17.809-8.5-12.094C408.887,272.561,407.109,281.567,403.756,285.106z"/>
				<path id="_x0031_2_3_" style="fill:#134B96;" d="M399.279,303.731c2.607,1.489,3.568,7.277-0.004,6.982
					C394.475,310.316,396.67,302.241,399.279,303.731z"/>
				<path id="_x0031_1_3_" style="fill:#134B96;" d="M416.449,310.39c0.156-2.008-1.955-3.6-4.564-3.786
					c-0.932-0.373-6.545,2.208-4.897,4.732c0.557,1.377,2.605,7.302-1.492,14.194C404.938,328.883,416.449,324.261,416.449,310.39z"
					/>
				<path id="_x0031_0_3_" style="fill:#134B96;" d="M374.461,358.65c-3.103,2.794-1.223,11.695-0.91,13.248
					c0.311,1.552,3.586,2.883,5.76-1.152c2.174-4.038,0.42-8.063,0.627-12.096C378.113,358.65,377.566,355.855,374.461,358.65z"/>
				<path id="_x0039__3_" style="fill:#134B96;" d="M328.908,383.859c-3.02-12.118,2.328-13.272,0.699-19.326
					c-1.631-6.054-7.375-6.287-8.615-3.027c-3.494,6.802,2.982,13.781,0.465,18.861c-4.504,3.318-15.834,3.981-18.397,2.119
					c-1.693-1.233-5.915,0.251-8.148,1.373c-4.269,3.104,1.759,9.811,7.684,6.753C309.814,386.887,329.953,390.069,328.908,383.859z
					"/>
				<path id="_x0038__3_" style="fill:#134B96;" d="M213.974,290.502c2.13,0,7.753-0.931,9.882-0.931
					c7.63-2.012,9.612-30.124,8.215-31.753c-1.397-1.631-4.563-3.493-6.66-0.699c-2.095,2.794,1.136,15.671-2.589,20.329
					C219.096,282.105,206.523,287.626,213.974,290.502z"/>
				<path id="_x0037__3_" style="fill:#134B96;" d="M320.842,234.424c1.629-0.233,3.166-1.021,4.33-7.308
					c1.166-3.26,1.668-14.502-0.66-17.064c-2.328-2.561-6.641,0.031-6.641,0.031s-1.984,17.047-4.313,18.676
					c-2.328,1.631-7.264-0.683-10.291,0.249c-3.027,0.933-1.631,3.087,0,4.95C304.898,235.82,317.117,237.683,320.842,234.424z"/>
				<path id="_x0036__3_" style="fill:#134B96;" d="M334.283,334.309c0.99-0.318,3.236-3.845,6.369-9.492
					c4.424-16.85,5.955-45.034,0.037-62.688c-1.836-2.923-5.533-5.795-10.525-3.32c0.58,3.194,5.736,6.197,6.363,8.871
					c2.563,10.911,0.717,41.167-1.139,45.611C330.363,325.335,316.102,340.155,334.283,334.309z"/>
				<path id="_x0035__3_" style="fill:#134B96;" d="M278.622,260.235c-0.932,0.233-0.593-3.198,1.969-3.431
					c2.561-0.232,7.686,3.333,9.17,7.343c2.329,6.286,0.483,69.03-4.983,69.682c-7.637,4.469-16.733,6.094-16.876,1.893
					c0.214-8.782,10.369-10.199,13.459-16.816c2.372-5.075,4.847-41.974,2.329-52.571
					C283.043,261.309,278.622,260.235,278.622,260.235z"/>
				<path id="_x0034__3_" style="fill:#134B96;" d="M222.031,311.336c1.213-2.589,1.887-2.839,4.563-2.839
					c12.256,13.361,2.562,28.403,0,29.336c-2.562,0.93-18.381,3.159-8.215-5.68c2.004-1.741,11.893-7.008,3.651-19.871
					C222.031,311.967,222.031,311.651,222.031,311.336z"/>
				<path id="_x0033__3_" style="fill:#134B96;" d="M243.704,390.84c-2.096,1.396-3.508,0.533-5.029,0.217
					c-7.692-7.974-8.934-29.443-5.69-31.461c6.386-3.97,7.048,6.768,7.048,16.315C240.032,378.791,247.985,381.068,243.704,390.84z"
					/>
				<path id="_x0032__3_" style="fill:#134B96;" d="M323.371,407.115c2.607,1.491,2.012,6.724-1.402,7.914
					c-5.303,1.849-3.209-4.071-3.209-6.634C318.76,405.835,323.172,407.039,323.371,407.115z"/>
				<path id="_x0031__5_" style="fill:#134B96;" d="M312.893,407.815c2.607,1.489,0.461,6.282-3.031,7.214
					c-2.068,0.553-3.816-4.551-2.885-5.715C307.76,408.333,310.404,406.827,312.893,407.815z"/>
			</g>
		</g>
		<g id="Lokomotive_Leipzig_copy_3_">
			<path id="L_4_" style="fill:#FEDC3A;" d="M84.866,288.674l9.86,1.111l2.714-21.699l48.057,5.417l1.088-8.699l-57.917-6.53
				L84.866,288.674z"/>
			<path style="fill:#FEDC3A;" d="M89.96,300.512c-4.594,3.783-6.691,8.595-6.295,14.434c0.393,5.795,3.14,10.175,8.246,13.146
				c5.775,3.385,13.564,4.667,23.366,3.842c9.696-0.813,17.043-3.259,22.045-7.335c5.001-4.076,7.307-9.001,6.915-14.773
				c-0.27-3.985-1.606-7.281-4.007-9.891c-2.4-2.614-5.918-4.596-10.549-5.949c-4.634-1.355-10.441-1.74-17.419-1.153
				C102.646,293.64,95.212,296.199,89.96,300.512z M128.664,303.043c3.415,1.807,5.238,4.368,5.463,7.682
				c0.225,3.314-1.218,6.13-4.329,8.452c-3.11,2.321-8.06,3.767-14.85,4.338c-6.925,0.582-12.129-0.04-15.613-1.863
				c-3.485-1.825-5.336-4.337-5.553-7.538c-0.216-3.18,1.287-5.985,4.509-8.418c3.223-2.434,8.204-3.931,14.941-4.497
				C120.102,300.621,125.247,301.236,128.664,303.043z"/>
			<path id="K_2_" style="fill:#FEDC3A;" d="M91.726,356.748l16.926-5.638l11.433,3.832l-22.846,20.38l3.305,11.136l29.325-28.121
				l26.316,8.709l-3.426-11.544l-29.938-9.11l24.784-8.255l-2.528-8.518L89.198,348.23L91.726,356.748z"/>
			<path style="fill:#FEDC3A;" d="M112.558,395.847c-2.526,5.502-2.38,10.794,0.435,15.875c2.793,5.04,7.103,7.736,12.933,8.085
				c6.604,0.417,14.13-1.977,22.574-7.186c8.353-5.152,13.913-10.703,16.682-16.657c2.767-5.951,2.76-11.439-0.021-16.462
				c-1.92-3.466-4.507-5.825-7.76-7.084c-3.253-1.259-7.242-1.443-11.967-0.551c-4.726,0.89-10.096,3.189-16.108,6.898
				C121.042,383.876,115.452,389.569,112.558,395.847z M148.336,380.49c3.824,0.071,6.537,1.548,8.134,4.432
				c1.598,2.883,1.49,6.078-0.322,9.587c-1.812,3.51-5.641,7.068-11.49,10.678c-5.967,3.68-10.895,5.491-14.788,5.436
				c-3.895-0.057-6.613-1.477-8.155-4.262c-1.533-2.766-1.368-5.979,0.498-9.64c1.866-3.66,5.702-7.28,11.505-10.861
				C139.637,382.21,144.51,380.42,148.336,380.49z"/>
			<path id="M_2_" style="fill:#FEDC3A;" d="M137.76,445.979l32.305-33.358l-26.223,39.784l5.761,6.087l38.358-26.964l-32.305,33.36
				l5.632,5.951l40.939-42.274l-9.117-9.633l-33.468,23.146l22.482-34.754l-9.058-9.569l-40.938,42.272L137.76,445.979z"/>
			<path style="fill:#FEDC3A;" d="M181.4,475.995c0.127,6.097,2.548,10.768,7.26,14.015c4.675,3.219,9.689,3.638,15.044,1.248
				c6.076-2.687,11.757-8.319,17.04-16.897c5.225-8.484,7.784-16.031,7.679-22.646c-0.107-6.614-2.489-11.525-7.146-14.732
				c-3.213-2.215-6.545-3.131-9.993-2.75c-3.449,0.379-7.09,2.064-10.921,5.051c-3.833,2.987-7.629,7.536-11.391,13.644
				C183.79,461.341,181.265,469.03,181.4,475.995z M206.686,445.662c3.445-1.71,6.506-1.642,9.18,0.199
				c2.674,1.843,3.961,4.753,3.863,8.736c-0.098,3.982-1.975,8.944-5.635,14.887c-3.732,6.059-7.348,9.965-10.847,11.72
				c-3.5,1.754-6.541,1.741-9.123-0.037c-2.566-1.768-3.81-4.721-3.729-8.863c0.081-4.143,1.937-9.163,5.568-15.059
				C199.666,451.232,203.241,447.373,206.686,445.662z"/>
			<path id="T_2_" style="fill:#FEDC3A;" d="M236.222,510.817l15.444-47.972l10.88,3.995l3.139-9.751l-29.244-10.739l-3.139,9.751
				l10.966,4.027l-15.444,47.973L236.222,510.817z"/>
			<path id="I_6_" style="fill:#FEDC3A;" d="M269.447,518.924l11.57-59.7l-7.662-1.734l-11.572,59.701L269.447,518.924z"/>
			<path id="V_2_" style="fill:#FEDC3A;" d="M309.998,520.691l13.953-60.631l-8.457-0.16l-9.551,44.891l-9.887-45.257l-8.455-0.156
				l13.931,61.155L309.998,520.691z"/>
			<path id="E_4_" style="fill:#FEDC3A;" d="M372.74,510.311l-2.52-9.949l-21.154,5.368l-4.055-16.009l19.002-4.824l-2.522-9.95
				l-19,4.824l-3.303-13.037l20.436-5.189l-2.52-9.948l-28.053,7.121l14.916,58.896L372.74,510.311z"/>
			<path id="L_3_" style="fill:#FEDC3A;" d="M441.978,471.191l-5.451-8.579l-16.521,10.905l-26.576-41.809l-6.625,4.373
				l32.031,50.387L441.978,471.191z"/>
			<path id="E_3_" style="fill:#FEDC3A;" d="M471.953,441.686l-7.215-7.082l-15.211,16.109l-11.613-11.396l13.666-14.473
				l-7.215-7.082l-13.666,14.473l-9.453-9.282l14.697-15.564l-7.217-7.081l-20.174,21.366l42.709,41.926L471.953,441.686z"/>
			<path id="I_5_" style="fill:#FEDC3A;" d="M489.094,416.736l-50.32-31.582l-4.156,6.881l50.318,31.581L489.094,416.736z"/>
			<path style="fill:#FEDC3A;" d="M501.676,392.677l-20.578-8.433l1.98-4.945c1.822-4.561,2.568-7.997,2.232-10.306
				c-0.334-2.31-1.59-4.635-3.764-6.974c-2.174-2.339-5.238-4.318-9.191-5.939c-4.352-1.782-8.193-2.519-11.529-2.209
				c-3.336,0.312-5.871,1.398-7.602,3.273c-1.078,1.175-2.521,4.018-4.326,8.536l-4.852,12.124l54.625,22.384L501.676,392.677z
				 M457.752,370.396c1.262-3.158,2.303-5.137,3.117-5.941c0.816-0.804,1.98-1.281,3.498-1.435c1.514-0.152,3.184,0.145,5.008,0.892
				c1.799,0.736,3.189,1.684,4.168,2.834c0.978,1.151,1.506,2.328,1.576,3.529c0.07,1.203-0.455,3.206-1.578,6.012l-1.67,4.179
				l-15.592-6.39L457.752,370.396z"/>
			<path id="Z_2_" style="fill:#FEDC3A;" d="M520.891,326.91l-9.752-1.89l-4.43,22.487l-34.674-29.189l-9.045-1.752l-5.705,28.961
				l9.754,1.89l3.639-18.47l33.34,28.068l10.541,2.043L520.891,326.91z"/>
			<path id="I_4_" style="fill:#FEDC3A;" d="M521.057,304.844l-58.56-4.724l-0.738,8.095l58.557,4.724L521.057,304.844z"/>
			<path id="G_2_" style="fill:#FEDC3A;" d="M499.076,263.444l7.432,0.221c1.488,1.395,2.641,2.964,3.457,4.71
				c0.818,1.747,1.191,3.42,1.121,5.017c-0.148,3.417-1.855,6.08-5.121,7.987c-3.789,2.229-9.223,3.24-16.301,3.031
				c-6.598-0.195-11.461-1.417-14.586-3.67c-3.125-2.253-4.613-5.121-4.461-8.604c0.1-2.246,0.984-4.154,2.66-5.727
				c1.676-1.57,4.039-2.614,7.086-3.132l-1.822-7.996c-5.717,0.658-10.105,2.394-13.166,5.202
				c-3.063,2.812-4.697,6.623-4.906,11.431c-0.174,4.006,0.813,7.476,2.957,10.417c2.147,2.94,5.479,5.379,9.996,7.316
				c4.52,1.935,10.01,2.999,16.477,3.19c6.307,0.185,11.828-0.544,16.57-2.184c4.74-1.645,8.346-3.952,10.814-6.93
				c2.471-2.975,3.793-6.457,3.967-10.441c0.143-3.268-0.611-6.554-2.26-9.852c-1.646-3.299-3.674-5.87-6.08-7.712l-23.399-0.69
				l-0.762,17.488l9.92,0.293L499.076,263.444z"/>
		</g>
		<g id="_x0031_.FC_copy_3_">
			<path id="_x0031__4_" style="fill:#FEDC3A;" d="M156.917,115.087l60.317,71.313l12.576-1.762c0,0,6.7,2.268,5.769,6.926
				c-12.729,4.656-30.62,19.376-38.381,30.863c-4.657-0.933-6.037-6.949-6.037-6.949l4.44-12.385l-38.702-47.847l-0.932,28.358
				c0,0-7.265,0.612-11.829,0.296c-0.931-18.588,5.427-31.926-5.128-53.657c-0.31,0.311,13.388-11.358,20.081-17.034
				C159.09,113.523,156.917,115.087,156.917,115.087z"/>
			<path id="F_2_" style="fill:#FEDC3A;" d="M270.308,166.727c0.931,0,14.682-0.145,14.682-7.829
				c0.233-3.027,0.212-32.353,0.212-74.047c0.341-3.44-4.564-4.732-4.564-4.732s-18.324,0-16.15,0
				c0.084,0,0.304-11.044,0.304-11.044s87.508,0.479,87.198,0.479c-0.311,0-0.156,42.689-0.156,36.673
				c-3.346,0-6.693-0.311-10.039-0.311c-0.268-8.902,1.551-18.857-7.471-24.591c-12.17-3.933-17.381,2.044-17.381,2.044
				s-0.168,32.503-0.168,36.696c1.863,4.891,12.643,2.274,18.164,2.869c13.115,0.088-2.164-9.696,16.895-9.696
				c-0.232-5.738,0.156,41.035-0.076,32.051c-18.752,0.062-3.715-11.236-17.266-11.232c-4.563,0-13.691,0-13.691,0
				s-4.332,0.526-4.564,3.785c-0.232,3.261,0,0,0,0c0,13.827-0.082,13.802,0.15,21.02c0.232,7.218,13.449,6.904,15.777,7.138
				c2.795,1.863,2.418,5.121,0.322,9.777c-16.533-4.191-47.912-3.715-62.116,0.244C267.574,172.294,267.747,169.289,270.308,166.727
				z"/>
			<path id="Punkt_2_" style="fill:#FEDC3A;" d="M248.176,162.56c6.07,0,10.992,4.897,10.992,10.941
				c0,6.041-4.921,10.94-10.992,10.94s-10.992-4.899-10.992-10.94C237.185,167.457,242.106,162.56,248.176,162.56z"/>
			<path id="C_2_" style="fill:#FEDC3A;" d="M392.871,184.462c3.023,22.934,31.861,15.02,32.791,11.916
				c6.52-1.242,10.164,1.421,9.232,5.458c0.311,8.691-69.529,22.441-66.67-35.443c3.887-32.201,45.227-64.807,75.742-48.512
				c4.228,2.257,12.941,11.246,13.83,17.673c1.623,11.756,6.906-1.439,9.689,0.44c2.447,1.654,0.063-0.111,3.478,3.304
				c-5.9,6.831-14.611,16.45-21.754,25.765c-0.309-0.31-5.262-4.361-5.262-4.361s10.701-9.095,6.666-16.858
				C435.092,117.455,388.227,149.247,392.871,184.462z"/>
		</g>
	</g>
</g>
</svg>
