<svg enable-background="new 0 0 612 792" viewBox="0 0 612 792" xmlns="http://www.w3.org/2000/svg"><path d="m423.234 111.5h-378.614c2.525 165.165 9.529 289.526 42.951 380.804 34.426 94.02 128.797 185.196 211.339 185.196 110.135 0 233.023-155.773 244.327-354.374-.001 0-133.076-49.362-120.003-211.626z"/><path d="m418.877 234.544c-12.528-27.086-20.819-59.931-21.147-98.435h-328.098c1.94 105.367 6.543 192.685 19.122 263.353l330.692-163.747c-.186-.395-.385-.772-.569-1.171z" fill="#fff"/><path d="m132.269 528.901c9.787 16.543 21.327 32.533 34.082 47.142 24.098 27.692 52.516 50.396 80.154 63.53 18.427 8.806 36.336 13.336 52.405 13.316 21.647.023 45.471-7.723 69.615-23.453 24.103-15.674 48.192-39.208 69.636-69.026 40.479-56.148 71.385-134.328 79.302-222.242z" fill="#fff"/><path d="m112.869 221.49c0 11.398 8.433 15.836 18.007 15.836 6.268 0 15.841-1.919 15.841-10.678 0-9.237-12.194-10.797-24.161-14.156-12.08-3.359-24.274-8.278-24.274-24.354 0-17.517 15.726-25.914 30.428-25.914 16.981 0 32.594 7.798 32.594 27.593h-17.323c-.57-10.317-7.522-12.957-16.069-12.957-5.699 0-12.308 2.52-12.308 9.718 0 6.598 3.875 7.438 24.274 12.957 5.926 1.56 24.16 5.519 24.16 24.954 0 15.716-11.739 27.474-33.847 27.474-18.007 0-34.873-9.358-34.645-30.474h17.323z"/><path d="m241.422 193.057c-1.14-8.518-8.89-14.996-17.778-14.996-16.069 0-22.109 14.396-22.109 29.393 0 14.277 6.04 28.674 22.109 28.674 10.94 0 17.094-7.919 18.462-19.196h17.322c-1.823 21.355-15.841 35.032-35.784 35.032-25.187 0-40.002-19.796-40.002-44.51 0-25.434 14.815-45.229 40.002-45.229 17.893 0 32.935 11.038 35.101 30.832z"/><path d="m322 249.924h-20.173l-26.439-85.66h18.462l18.121 60.226h.227l18.348-60.226h18.463z"/><path d="m280.017 545.229h-9.128v-30.729h-11.313v-7.241c6.364.135 12.213-2.166 13.178-9.408h7.264v47.378z"/><path d="m298.149 533.044c.578 3.182 2.892 5.888 6.043 5.888 6.621 0 8.356-9.137 8.613-14.416l-.129-.135c-2.506 3.722-5.785 5.279-10.156 5.279-3.857 0-7.778-1.895-10.349-4.874-2.378-2.909-3.472-6.834-3.472-10.558 0-9.679 6.364-17.327 15.749-17.327 13.629 0 17.292 12.522 17.292 24.502 0 11.573-4.886 24.771-17.678 24.771-7.777 0-13.563-4.805-14.591-13.131h8.678zm13.82-19.424c0-4.4-2.7-8.8-7.264-8.8-4.371 0-6.877 4.399-6.877 8.663 0 4.469 2.185 8.936 6.877 8.936 4.886 0 7.264-4.131 7.264-8.799z"/><path d="m326.758 516.057c-.321-10.829 5.529-19.155 16.328-19.155 8.229 0 15.428 5.55 15.428 14.823 0 7.106-3.599 11.032-8.036 14.349-4.434 3.316-9.706 6.024-12.983 10.898h21.277v8.258h-33.042c.063-10.965 6.429-15.636 14.206-21.186 3.986-2.844 9.385-5.755 9.449-11.574 0-4.468-2.828-7.31-6.748-7.31-5.401 0-7.137 5.889-7.137 10.898h-8.742z"/><path d="m381.467 534.264h-19.027v-8.8l19.541-27.614h8.165v28.494h5.978v7.92h-5.978v10.965h-8.679zm0-24.368h-.192l-11.634 16.447h11.826z"/><path d="m267.861 596.715c.257 6.091 3.085 8.866 8.163 8.866 3.664 0 6.621-2.368 7.199-4.534h8.036c-2.571 8.257-8.036 11.777-15.556 11.777-10.478 0-16.97-7.581-16.97-18.41 0-10.491 6.878-18.477 16.97-18.477 11.313 0 16.777 10.017 16.134 20.778zm14.849-6.09c-.836-4.874-2.828-7.447-7.264-7.447-5.786 0-7.457 4.738-7.585 7.447z"/><path d="m337.419 611.876h-11.376l-14.914-48.326h10.414l10.22 33.977h.129l10.35-33.977h10.414z"/><path d="m307.72 606.666c0 2.878-2.259 5.21-5.046 5.21s-5.046-2.332-5.046-5.21c0-2.88 2.259-5.212 5.046-5.212 2.786 0 5.046 2.332 5.046 5.212z"/><path d="m357.802 606.666c0 2.878-2.26 5.21-5.047 5.21-2.786 0-5.045-2.332-5.045-5.21 0-2.88 2.259-5.212 5.045-5.212 2.787 0 5.047 2.332 5.047 5.212z"/><path d="m339.891 358.752-13.39 27.098 15.166 2.292 30.468-61.67-82.678 40.944v-17.674l-14.613 7.237v17.674l-50.435 24.976 13.429-27.171-15.166-2.291-30.506 61.732 82.678-40.938v17.687l14.613-7.236v-17.687z" fill="#fff"/></svg>