<?xml version="1.0" encoding="iso-8859-1"?>
<!-- Generator: Adobe Illustrator 24.0.1, SVG Export Plug-In . SVG Version: 6.00 Build 0)  -->
<svg version="1.1" id="Layer_1" xmlns="http://www.w3.org/2000/svg" xmlns:xlink="http://www.w3.org/1999/xlink" x="0px" y="0px"
	 viewBox="0 0 612 792" style="enable-background:new 0 0 612 792;" xml:space="preserve">
<path d="M423.234,111.5H44.62c2.525,165.165,9.529,289.526,42.951,380.804C121.997,586.324,216.368,677.5,298.91,677.5
	c110.135,0,233.023-155.773,244.327-354.374C543.236,323.126,410.161,273.764,423.234,111.5z"/>
<path style="fill:#FFFFFF;" d="M418.877,234.544c-12.528-27.086-20.819-59.931-21.147-98.435H69.632
	c1.94,105.367,6.543,192.685,19.122,263.353l330.692-163.747C419.26,235.32,419.061,234.943,418.877,234.544z"/>
<path style="fill:#FFFFFF;" d="M132.269,528.901c9.787,16.543,21.327,32.533,34.082,47.142
	c24.098,27.692,52.516,50.396,80.154,63.53c18.427,8.806,36.336,13.336,52.405,13.316c21.647,0.023,45.471-7.723,69.615-23.453
	c24.103-15.674,48.192-39.208,69.636-69.026c40.479-56.148,71.385-134.328,79.302-222.242L132.269,528.901z"/>
<path d="M112.869,221.49c0,11.398,8.433,15.836,18.007,15.836c6.268,0,15.841-1.919,15.841-10.678
	c0-9.237-12.194-10.797-24.161-14.156c-12.08-3.359-24.274-8.278-24.274-24.354c0-17.517,15.726-25.914,30.428-25.914
	c16.981,0,32.594,7.798,32.594,27.593h-17.323c-0.57-10.317-7.522-12.957-16.069-12.957c-5.699,0-12.308,2.52-12.308,9.718
	c0,6.598,3.875,7.438,24.274,12.957c5.926,1.56,24.16,5.519,24.16,24.954c0,15.716-11.739,27.474-33.847,27.474
	c-18.007,0-34.873-9.358-34.645-30.474H112.869z"/>
<path d="M241.422,193.057c-1.14-8.518-8.89-14.996-17.778-14.996c-16.069,0-22.109,14.396-22.109,29.393
	c0,14.277,6.04,28.674,22.109,28.674c10.94,0,17.094-7.919,18.462-19.196h17.322c-1.823,21.355-15.841,35.032-35.784,35.032
	c-25.187,0-40.002-19.796-40.002-44.51c0-25.434,14.815-45.229,40.002-45.229c17.893,0,32.935,11.038,35.101,30.832H241.422z"/>
<path d="M322,249.924h-20.173l-26.439-85.66h18.462l18.121,60.226h0.227l18.348-60.226h18.463L322,249.924z"/>
<path d="M280.017,545.229h-9.128v-30.729h-11.313v-7.241c6.364,0.135,12.213-2.166,13.178-9.408h7.264V545.229z"/>
<path d="M298.149,533.044c0.578,3.182,2.892,5.888,6.043,5.888c6.621,0,8.356-9.137,8.613-14.416l-0.129-0.135
	c-2.506,3.722-5.785,5.279-10.156,5.279c-3.857,0-7.778-1.895-10.349-4.874c-2.378-2.909-3.472-6.834-3.472-10.558
	c0-9.679,6.364-17.327,15.749-17.327c13.629,0,17.292,12.522,17.292,24.502c0,11.573-4.886,24.771-17.678,24.771
	c-7.777,0-13.563-4.805-14.591-13.131H298.149z M311.969,513.62c0-4.4-2.7-8.8-7.264-8.8c-4.371,0-6.877,4.399-6.877,8.663
	c0,4.469,2.185,8.936,6.877,8.936C309.591,522.419,311.969,518.288,311.969,513.62z"/>
<path d="M326.758,516.057c-0.321-10.829,5.529-19.155,16.328-19.155c8.229,0,15.428,5.55,15.428,14.823
	c0,7.106-3.599,11.032-8.036,14.349c-4.434,3.316-9.706,6.024-12.983,10.898h21.277v8.258H325.73
	c0.063-10.965,6.429-15.636,14.206-21.186c3.986-2.844,9.385-5.755,9.449-11.574c0-4.468-2.828-7.31-6.748-7.31
	c-5.401,0-7.137,5.889-7.137,10.898H326.758z"/>
<path d="M381.467,534.264h-19.027v-8.8l19.541-27.614h8.165v28.494h5.978v7.92h-5.978v10.965h-8.679V534.264z M381.467,509.896
	h-0.192l-11.634,16.447h11.826V509.896z"/>
<path d="M267.861,596.715c0.257,6.091,3.085,8.866,8.163,8.866c3.664,0,6.621-2.368,7.199-4.534h8.036
	c-2.571,8.257-8.036,11.777-15.556,11.777c-10.478,0-16.97-7.581-16.97-18.41c0-10.491,6.878-18.477,16.97-18.477
	c11.313,0,16.777,10.017,16.134,20.778H267.861z M282.71,590.625c-0.836-4.874-2.828-7.447-7.264-7.447
	c-5.786,0-7.457,4.738-7.585,7.447H282.71z"/>
<path d="M337.419,611.876h-11.376l-14.914-48.326h10.414l10.22,33.977h0.129l10.35-33.977h10.414L337.419,611.876z"/>
<path d="M307.72,606.666c0,2.878-2.259,5.21-5.046,5.21c-2.787,0-5.046-2.332-5.046-5.21c0-2.88,2.259-5.212,5.046-5.212
	C305.46,601.454,307.72,603.786,307.72,606.666z"/>
<path d="M357.802,606.666c0,2.878-2.26,5.21-5.047,5.21c-2.786,0-5.045-2.332-5.045-5.21c0-2.88,2.259-5.212,5.045-5.212
	C355.542,601.454,357.802,603.786,357.802,606.666z"/>
<polygon style="fill:#FFFFFF;" points="339.891,358.752 326.501,385.85 341.667,388.142 372.135,326.472 289.457,367.416 
	289.457,349.742 274.844,356.979 274.844,374.653 224.409,399.629 237.838,372.458 222.672,370.167 192.166,431.899 
	274.844,390.961 274.844,408.648 289.457,401.412 289.457,383.725 "/>
</svg>
