<?xml version="1.0" encoding="iso-8859-1"?>
<!-- Generator: Adobe Illustrator 24.0.1, SVG Export Plug-In . SVG Version: 6.00 Build 0)  -->
<svg version="1.1" id="Layer_1" xmlns="http://www.w3.org/2000/svg" xmlns:xlink="http://www.w3.org/1999/xlink" x="0px" y="0px"
	 viewBox="0 0 612 792" style="enable-background:new 0 0 612 792;" xml:space="preserve">
<path style="fill:#ED1C24;" d="M27.954,88.759l-0.001,337.717c0,153.285,124.262,277.546,277.547,277.546
	s277.547-124.261,277.547-277.546V88.759H27.954z"/>
<path style="fill:#FFFFFF;" d="M558.845,112.961c0,41.715,0,313.515,0,313.515c0,67.671-26.352,131.291-74.203,179.142
	c-47.85,47.85-111.471,74.202-179.142,74.202s-131.291-26.353-179.142-74.202c-47.851-47.85-74.203-111.471-74.203-179.142
	c0,0,0-271.8,0.001-313.515C94.412,112.961,516.588,112.961,558.845,112.961z"/>
<path style="fill:#ED1C24;" d="M397.168,342.804c0-42.299-31.322-82.857-89.482-82.857h-103.87v230.592l63.922,41.684V423.645
	l65.934,104.65l52.234-42.639l-44.561-67.773C367.51,414.92,397.168,377.949,397.168,342.804z M303.059,379.084h-35.32v-68.113
	h35.32c16.834,0,26.695,16.57,26.695,34.01C329.754,362.506,319.893,379.084,303.059,379.084z"/>
<path style="fill:#ED1C24;" d="M105.881,145.531v120.784h67.848c0-19.101,0-37.273,0-52.936c74.353,0,189.19,0,263.543,0
	c0,80.39,0,226.751,0,226.751c0,72.659-59.112,131.771-131.771,131.771c-71.346,0-129.624-56.996-131.708-127.846h-67.861
	C108.023,552.489,196.566,639.75,305.5,639.75c110.246,0,199.619-89.373,199.619-199.619v-294.6H105.881z"/>
</svg>
