<svg enable-background="new 0 0 612 792" viewBox="0 0 612 792" xmlns="http://www.w3.org/2000/svg"><path d="m24.5 207.632v.663 376.852h566v-377.515z" fill="#004990"/><path d="m312.703 208.959-286.874 104.078v-104.078z" fill="#fff"/><path d="m25.829 360.29 416.868-151.331h146.476v223.53l-416.868 151.33h-146.476z" fill="#fff"/><path d="m302.299 583.819 286.874-104.077v104.077z" fill="#fff"/><path d="m302.299 583.819h129.285l157.589-57.272v-46.805z" fill="#bfc6e0"/><path d="m312.703 208.959h-129.285l-157.589 57.272v46.806z" fill="#bfc6e0"/><path d="m277.185 490.21c6.401-2.393 9.653-9.521 7.261-15.923s-9.522-9.653-15.923-7.26c-6.402 2.392-9.652 9.521-7.261 15.922 2.393 6.402 9.523 9.652 15.923 7.261" fill="#004990"/><path d="m181.867 525.796c6.401-2.393 9.653-9.521 7.261-15.923-2.392-6.403-9.521-9.653-15.923-7.262-6.401 2.393-9.652 9.522-7.261 15.923 2.393 6.404 9.522 9.653 15.923 7.262" fill="#004990"/><g fill="#bfc6e0"><path d="m324.069 375.254c-8.87 19.972-13.264 30.422-21.445 48.213-7.055-3.013-6.488-2.186-12.582-5.611 4.633-10.75 9.614-21.736 14.616-32.609-2.788-1.396-4.381-2.06-7.085-3.42l-21.214 45.881-2.269-1.078c-13.233-5.962-26.452-12.015-39.591-17.861 0 0 8.337-19.726 10.718-24.747-5.706 2.372-28.692 9.978-33.923 12.12l-7.653-14.76c24.368-9.295 37.43-13.733 72.101-26.832l26.519 11.129c3.157 1.279 2.575 1.108 5.223 2.161 5.007 2.359 10.94 4.766 16.585 7.414"/><path d="m252.78 422.605-13.818 29.948c-5.159-2.272-7.817-3.485-17.906-8.176l.683-1.447 13.001-28.593 15.265 6.943z"/><path d="m274.143 432.31-31.739 69.978c-4.862-2.418-11.544-5.372-16.819-7.776l31.938-69.819c10.996 4.962 2.124 1.012 16.62 7.617"/><path d="m261.736 316.717c-8.537 3.189-12.655 13.272-9.198 22.518 3.454 9.247 13.175 14.159 21.71 10.969 8.535-3.191 12.654-13.272 9.199-22.518-3.455-9.247-13.176-14.158-21.711-10.969"/><path d="m228.75 409.66c-8.87 19.971-13.264 30.423-21.445 48.212-7.055-3.011-6.488-2.186-12.583-5.608 4.632-10.752 9.614-21.737 14.616-32.611-2.789-1.395-4.381-2.061-7.085-3.42l-21.214 45.881-2.27-1.079c-13.232-5.961-26.451-12.012-39.591-17.858 0 0 8.338-19.727 10.718-24.747-5.706 2.371-28.691 9.978-33.923 12.12l-7.653-14.76c24.368-9.298 37.429-13.734 72.102-26.833l26.52 11.129c3.157 1.279 2.574 1.108 5.221 2.162 5.009 2.356 10.944 4.764 16.587 7.412"/><path d="m157.462 457.01-13.816 29.948c-5.161-2.272-7.819-3.483-17.909-8.179l.683-1.446 13.001-28.591 15.266 6.944z"/><path d="m178.825 466.716-31.739 69.977c-4.862-2.419-11.545-5.371-16.819-7.776l31.937-69.82c10.996 4.964 2.125 1.013 16.621 7.619"/><path d="m166.417 351.122c-8.537 3.19-12.654 13.272-9.199 22.517 3.454 9.248 13.176 14.159 21.71 10.968 8.537-3.189 12.656-13.271 9.2-22.518-3.453-9.246-13.175-14.156-21.711-10.967"/></g><path d="m123.47 465.225-23.29 8.689c-2.91 1.085-4.898 3.033-3.86 5.813 2.913 7.806 41.202 4.978 49.297 26.679 4.442 11.91 7.323 28.924-22.317 39.982l-24.745 9.231-7.997-21.437 23.949-8.934c5.294-1.977 8.01-4.798 6.726-8.238-3.653-9.791-39.828-5.341-48.121-27.571-7.208-19.318 3.855-31.283 18.277-36.665l24.084-8.986z" fill="#004990"/><path d="m180.163 419.649 36.926 59.785.265-.099-9.8-69.907 24.082-8.984 8.499 77.325c2.051 18.831.187 26.762-12.253 31.403-11.645 4.344-18.777-.229-29.067-15.686l-42.868-64.805z" fill="#004990"/><path d="m325.806 365.305 22.759 61.002c2.517 6.748 7.272 9.798 14.815 6.984s9.138-8.234 6.621-14.982l-22.758-61.002 23.024-8.589 22.067 59.148c7.899 21.172.644 39.707-20.66 47.656-21.303 7.949-38.925-1.306-46.824-22.477l-22.067-59.15z" fill="#004990"/><path d="m415.922 437.199-22.363-59.944c-8.195-21.965.314-39.157 20.162-46.563 18.261-6.813 34.716-1.495 41.233 15.97 4.294 11.514 1.419 19.972-8.638 24.93l.098.266c9.028-1.259 18.584-2.712 22.928 8.931l11.947 32.022-23.289 8.689-10.465-28.053c-2.074-5.557-6.554-5.847-16.609-2.095l-7.8-20.906c8.154-3.194 11.698-6.626 8.982-13.904-1.926-5.161-7.213-5.599-10.919-4.217-5.558 2.073-7.053 6.55-3.597 15.813l22.412 60.076z" fill="#004990"/><path d="m460.875 314.903 23.024-8.589 11.898 31.889c4.316-1.761 6.188-3.213 6.491-7.246l2.915-32.592 26.333-9.825-2.979 32.013c-.421 4.529-1.772 10.611-4.588 14.375 13.673-1.333 21.001 4.978 24.261 13.711l12.834 34.404-24.082 8.984-10.96-29.376c-3.457-9.261-7.542-8.493-22.229-3.013l14.662 39.302-23.024 8.589z" fill="#004990"/></svg>