<?xml version="1.0" encoding="iso-8859-1"?>
<!-- Generator: Adobe Illustrator 24.0.1, SVG Export Plug-In . SVG Version: 6.00 Build 0)  -->
<svg version="1.1" id="Layer_1" xmlns="http://www.w3.org/2000/svg" xmlns:xlink="http://www.w3.org/1999/xlink" x="0px" y="0px"
	 viewBox="0 0 612 792" style="enable-background:new 0 0 612 792;" xml:space="preserve">
<path style="fill:#FFFFFF;" d="M307.497,113.39C151.455,113.39,24.5,240.344,24.5,396.388
	c0,156.051,126.955,283.001,282.997,283.001c156.049,0,283.003-126.95,283.003-283.001C590.5,240.344,463.546,113.39,307.497,113.39
	"/>
<path d="M307.48,120.202c-152.523,0-276.168,123.647-276.168,276.179c0,152.547,123.645,276.196,276.168,276.196
	c152.566,0,276.207-123.649,276.207-276.196C583.688,243.849,460.047,120.202,307.48,120.202z"/>
<path style="fill:#FFFFFF;" d="M307.496,666.165c-148.754,0-269.771-121.019-269.771-269.775
	c0-148.755,121.017-269.775,269.771-269.775c148.753,0,269.779,121.021,269.779,269.775
	C577.275,545.146,456.249,666.165,307.496,666.165"/>
<path d="M307.498,133.375c-145.027,0-263.013,117.985-263.013,263.013c0,145.031,117.985,263.016,263.013,263.016
	s263.017-117.985,263.017-263.016C570.515,251.36,452.525,133.375,307.498,133.375z"/>
<path style="fill:#FFFFFF;" d="M307.498,605.146c-115.11,0-208.754-93.643-208.754-208.751c0-115.11,93.644-208.76,208.754-208.76
	c115.111,0,208.758,93.65,208.758,208.76C516.256,511.503,422.609,605.146,307.498,605.146z"/>
<ellipse transform="matrix(0.7071 -0.7071 0.7071 0.7071 -190.2247 333.5351)" cx="307.5" cy="396.389" rx="201.999" ry="202"/>
<circle style="fill:#FFFFFF;" cx="307.5" cy="396.39" r="193.989"/>
<path d="M433.318,267.685c-1.924,19.168-5.002,36.303-8.646,49.596c-9.932,36.228-27.427,67.404-45.991,92.517L307.5,224.643
	l-71.183,185.155c-18.564-25.113-36.06-56.292-45.99-92.518c-3.645-13.293-6.723-30.428-8.646-49.596
	c-24.206,23.666-41.769,54.095-49.613,88.24c22.868,100.496,77.992,167.537,132.42,204.582L307.5,441.103l43.014,119.401
	c54.427-37.045,109.55-104.085,132.419-204.579C475.088,321.781,457.523,291.35,433.318,267.685z"/>
<path style="fill:#FFFFFF;" d="M242.632,412.225c0,0,54.381-141.453,64.868-168.731c10.487,27.278,69.292,180.239,69.292,180.239
	l7.328-9.914c22.255-30.105,38.094-61.984,47.076-94.75c2.869-10.464,5.28-22.784,7.118-36.159
	c18.26,21.01,31.156,45.981,37.63,73.05c-24.905,107.471-84.31,166.274-122.078,193.893
	c-5.207-14.455-46.366-128.709-46.366-128.709s-41.159,114.254-46.367,128.709c-37.768-27.619-97.173-86.423-122.076-193.896
	c6.473-27.07,19.369-52.039,37.629-73.049c1.837,13.373,4.249,25.691,7.117,36.158c8.983,32.766,24.82,64.646,47.075,94.751
	l7.33,9.914L242.632,412.225z"/>
<path d="M248.945,414.653c0,0,41.465-107.856,58.555-152.309c17.09,44.453,67.401,175.325,67.401,175.325l14.66-19.829
	c22.751-30.778,38.954-63.408,48.158-96.982c1.8-6.564,3.396-13.896,4.817-21.667c12.321,17.069,21.301,36.284,26.418,56.805
	c-23.077,97.768-75.14,154.086-111.846,182.901c-9.016-25.027-49.609-137.712-49.609-137.712s-40.593,112.685-49.609,137.712
	c-36.707-28.814-88.768-85.135-111.846-182.903c5.116-20.52,14.097-39.735,26.417-56.804c1.421,7.77,3.018,15.102,4.817,21.667
	c9.203,33.574,25.406,66.203,48.159,96.983l14.658,19.829L248.945,414.653z"/>
<path style="fill:#FFFFFF;" d="M550.957,321.079l-5.892-18.016l-35.639,11.646l2.388,7.292l13.949-4.558l2.512,7.694
	c1.803,5.509,0.016,6.426-4.854,8.018c-3.67,1.196-5.411,2.097-6.936,3.143l2.697,8.241l0.938-0.309
	c0.075-1.783,1.365-2.204,6.577-3.907c6.652-2.174,7.226-4.117,7.558-7.469c2.342,3.132,6.366,4.017,10.288,2.734
	C547.622,334.582,554.057,330.558,550.957,321.079z M541.37,328.387c-3.526,1.146-5.484-0.296-6.748-4.171l-2.853-8.734l9.533-3.114
	l3.028,9.279C545.76,326.017,543.255,327.771,541.37,328.387z"/>
<polygon style="fill:#FFFFFF;" points="465.129,542.605 485.327,562.848 485.248,562.931 453.507,554.208 447.114,560.589 
	476.126,589.658 481.79,584.001 461.104,563.273 461.184,563.199 493.738,572.075 499.81,566.019 470.797,536.956 "/>
<polygon style="fill:#FFFFFF;" points="444.874,603.88 438.757,595.172 455.135,583.662 450.952,577.719 434.578,589.232 
	429.607,582.168 447.438,569.639 443.26,563.695 418.554,581.06 442.178,614.658 467.675,596.729 463.496,590.785 "/>
<path style="fill:#FFFFFF;" d="M413.154,603.815l-10.089,2.112c-1.724,0.377-4.39,0.897-5.774-1.992
	c-1.606-3.352,1.381-6.117,4.318-7.522c6.759-3.24,9.251,0.381,10.254,1.934l7.43-3.56c-2.233-4.518-8.833-10.484-20.184-5.046
	c-12.013,5.762-10.745,14.098-8.769,18.224c3.91,8.145,10.321,6.72,16.975,5.245l4.42-0.976c4.363-0.948,7.521-1.511,8.9,1.38
	c1.882,3.918-1.772,6.743-5.438,8.499c-6.759,3.245-9.662-0.181-10.703-2.218l-7.425,3.557c2.197,4.591,8.247,11.27,21.764,4.794
	c3.251-1.561,14.127-7.979,8.787-19.121C424.433,602.473,418.799,602.63,413.154,603.815z"/>
<path style="fill:#FFFFFF;" d="M381.369,599.078l-8.43,2.365l7.298,26.05c1.343,4.792-0.2,8.194-5.868,9.78
	c-3.857,1.081-7.731-0.447-9.27-5.954l-7.188-25.671l-8.429,2.369l7.342,26.213c1.223,3.935,2.939,6.899,5.763,8.721
	c4.624,2.923,10.267,2.296,13.905,1.271c9.968-2.792,14.998-9.011,12.08-19.421L381.369,599.078z"/>
<path style="fill:#FFFFFF;" d="M325.41,610.789l-10.243,42.379l8.987-0.95l1.957-8.721l15.07-1.591l3.508,8.143l9.27-0.985
	l-18.702-39.319L325.41,610.789z M327.643,636.203l3.522-16.707l0.113-0.01l6.769,15.615L327.643,636.203z"/>
<polygon style="fill:#FFFFFF;" points="298.626,627.01 282.654,625.862 283.767,610.348 275.212,609.729 272.266,650.693 
	280.824,651.308 282.144,632.938 298.121,634.085 296.797,652.454 305.358,653.073 308.304,612.105 299.743,611.487 "/>
<path style="fill:#FFFFFF;" d="M252.98,603.401c-13.366-3.592-22.098,5.046-24.962,15.88c-3.688,13.935,3.177,23.092,12.746,25.619
	c7.241,1.916,11.234-0.875,13.98-2.754l-0.487,5.198l5.53,1.463l5.662-21.405l-16.591-4.384l-1.772,6.694l9.238,2.44
	c-3.835,7.562-10.11,6.677-11.934,6.194c-5.642-1.494-10.812-5.877-7.943-16.716c2.687-10.176,9.244-12.823,15.161-11.254
	c5.863,1.552,7.364,7.271,6.954,8.817l8.297,2.199C267.867,615.8,265.148,606.618,252.98,603.401z"/>
<path style="fill:#FFFFFF;" d="M218.92,592.502l-18.727-8.965l-17.735,37.043l7.586,3.631l6.939-14.496l7.994,3.824
	c5.732,2.744,5.098,4.849,2.681,9.911c-1.831,3.817-2.435,5.874-2.759,7.873l8.566,4.1l0.468-0.983
	c-1.352-1.403-0.711-2.75,1.88-8.169c3.309-6.909,2.201-8.833-0.196-11.636c4.254,0.517,7.997-2.003,9.947-6.075
	C227.098,605.362,228.774,597.22,218.92,592.502z M217.458,605.629c-1.755,3.662-4.382,4.115-8.406,2.191l-9.079-4.353l4.743-9.903
	l9.647,4.621C218.899,600.361,218.397,603.665,217.458,605.629z"/>
<path style="fill:#FFFFFF;" d="M188.202,575.518l-15.853,21.928c-2.915,4.031-6.538,4.94-11.312,1.488
	c-3.243-2.348-4.46-6.332-1.109-10.958l15.623-21.606l-7.096-5.125l-15.953,22.061c-2.322,3.402-3.568,6.592-3.236,9.937
	c0.586,5.442,4.592,9.468,7.654,11.674c8.387,6.071,16.386,6.137,22.718-2.618l15.657-21.647L188.202,575.518z"/>
<path style="fill:#FFFFFF;" d="M156.948,565.115c3.043-2.947,5.777-9.172-1.22-16.406l-13.878-14.351l-29.52,28.553l12.087,12.499
	c5.848,6.042,8.423,6.653,11.697,6.747c3.036,0.089,6.211-1.068,8.556-3.339c2.919-2.82,4.88-6.55,2.738-11.481
	C149.216,567.973,152.712,569.205,156.948,565.115z M139.358,572.019c-3.001,2.9-5.987,2.446-8.89-0.556l-7.315-7.562l7.893-7.636
	l7.594,7.852C140.791,566.339,141.949,569.511,139.358,572.019z M143.018,558.687l-6.998-7.232l6.459-6.244l6.839,7.074
	c2.698,2.793,3.633,5.233,1.209,7.587C148.181,562.135,145.366,561.117,143.018,558.687z"/>
<path style="fill:#FFFFFF;" d="M94.429,311.616c-6.413-2.063-9.84,1.772-12.6,6.261l-4.941,8.008
	c-0.826,1.378-2.159,3.471-4.942,2.576c-3.232-1.039-3.187-4.754-2.274-7.588c2.097-6.511,6.066-5.893,7.72-5.576l2.305-7.16
	c-4.39-1.356-12.493-0.73-16.015,10.207c-3.726,11.58,2.595,15.972,6.574,17.254c7.85,2.524,10.937-2.623,14.135-7.956l2.127-3.541
	c2.108-3.486,3.719-5.932,6.504-5.037c3.776,1.214,3.359,5.415,2.223,8.942c-2.096,6.513-6.194,6.291-8.197,5.699l-2.306,7.16
	c4.422,1.421,12.646,1.603,16.84-11.423C102.59,326.31,105.165,315.073,94.429,311.616z"/>
<path style="fill:#FFFFFF;" d="M102.331,290.159c4.514-9.014-2.302-14.527-5.338-16.049c-6.585-3.294-12.701-1.456-15.952,5.035
	l-7.669,15.313l33.523,16.79l3.507-7.005l-12.09-6.055L102.331,290.159z M95.77,288.799l-3.247,6.489l-9.856-4.931l2.785-5.559
	c2.174-4.345,4.441-5.484,7.708-3.845C94.653,281.698,98.389,283.571,95.77,288.799z"/>
<path style="fill:#FFFFFF;" d="M105.612,272.434c14.243,10.337,23.647,1.031,26.558-2.981c2.917-4.017,8.851-15.838-5.387-26.177
	c-14.243-10.337-23.645-1.029-26.558,2.983C97.31,250.273,91.374,262.095,105.612,272.434z M105.594,250.155
	c2.483-3.422,8.095-6.704,16.586-0.538c8.497,6.164,7.111,12.517,4.627,15.937c-2.487,3.423-8.099,6.71-16.59,0.542
	C101.725,259.934,103.106,253.579,105.594,250.155z"/>
<path style="fill:#FFFFFF;" d="M150.314,246.006l-10.258-10.488l5.789-5.661c4.145-4.053,5.755-2.851,9.334,0.811
	c2.7,2.761,4.277,3.926,5.891,4.828l6.199-6.057l-0.696-0.709c-1.629,0.717-2.58-0.252-6.416-4.174
	c-4.889-5.001-6.888-4.658-10.041-3.472c1.778-3.492,0.789-7.488-2.093-10.439c-2.263-2.318-8.72-6.304-15.849,0.667l-13.558,13.251
	l26.211,26.813L150.314,246.006z M128.632,223.829l6.983-6.828c3.287-3.213,5.966-1.739,7.354-0.321
	c2.591,2.649,2.157,5.048-0.758,7.894l-6.571,6.422L128.632,223.829z"/>
<polygon style="fill:#FFFFFF;" points="158.635,197.656 176.76,222.639 183.096,218.04 164.977,193.057 174.152,186.404 
	170.261,181.035 145.572,198.942 149.463,204.307 "/>
<polygon style="fill:#FFFFFF;" points="210.029,202 203.938,162.873 196.722,166.649 202.673,195.595 202.581,195.644 
	182.285,174.204 174.833,178.1 203.414,205.461 "/>
<polygon style="fill:#FFFFFF;" points="251.27,185.834 249.122,179.563 229.459,186.284 226.315,177.092 243.612,171.183 
	241.464,164.908 224.171,170.817 221.622,163.355 240.448,156.922 238.302,150.646 212.21,159.563 224.337,195.042 "/>
<path style="fill:#FFFFFF;" d="M275.955,173.563c0.652,3.807,1.29,5.657,2.101,7.322l8.545-1.467l-0.17-0.982
	c-1.75-0.332-1.982-1.67-2.908-7.073c-1.186-6.898-3.028-7.749-6.296-8.563c3.445-1.865,4.901-5.715,4.203-9.781
	c-0.549-3.194-3.596-10.144-13.424-8.45l-18.683,3.209l6.347,36.95l7.561-1.297l-2.482-14.463l7.979-1.371
	C274.44,166.616,275.085,168.518,275.955,173.563z M268.74,161.185l-9.061,1.558l-1.695-9.883l9.624-1.657
	c4.529-0.777,5.9,1.957,6.232,3.913C274.471,158.768,272.753,160.495,268.74,161.185z"/>
<polygon style="fill:#FFFFFF;" points="319.542,178.888 319.451,172.258 298.673,172.523 298.549,162.811 316.826,162.575 
	316.736,155.944 298.464,156.181 298.36,148.298 318.252,148.04 318.169,141.408 290.599,141.764 291.081,179.255 "/>
<rect x="310.815" y="157.43" transform="matrix(0.0926 -0.9957 0.9957 0.0926 138.379 474.5439)" style="fill:#FFFFFF;" width="37.494" height="7.833"/>
<polygon style="fill:#FFFFFF;" points="349.991,155.905 350.093,155.926 359.574,185.233 367.241,186.843 374.942,150.148 
	367.784,148.649 362.422,174.2 362.323,174.181 353.122,145.568 345.043,143.873 337.343,180.568 344.497,182.071 "/>
<path style="fill:#FFFFFF;" d="M412.904,173.474l0.091,0.042c-1.953,7.053-2.907,10.645-7.294,28.908l6.792,3.225l25.6-29.354
	l-7.169-3.402c-13.23,16.554-15.184,19.211-17.272,22.151l-0.099-0.047c1.328-4.746,1.853-6.696,6.709-27.163l-7.5-3.558
	c-12.023,16.084-14.181,19.283-16.474,22.526l-0.09-0.041c1.221-4.16,1.916-6.721,6.372-27.32l-7.549-3.579l-6.494,38.413
	l6.604,3.136C407.044,181.677,408.779,179.491,412.904,173.474z"/>
<path style="fill:#FFFFFF;" d="M425.645,213.765l6.614-4.778l11.268,8.033l-2.526,7.69l6.928,4.938l11.008-38.198l-7.361-5.244
	l-32.644,22.769L425.645,213.765z M450.24,195.64l0.087,0.059l-4.823,14.776l-7.784-5.546L450.24,195.64z"/>
<path style="fill:#FFFFFF;" d="M459.046,242.092c6.721,6.567,14.508,6.22,21.319,1.49l-5.598-5.473
	c-3.884,2.63-7.769,2.267-10.861-0.764c-4.747-4.635-2.42-10.83,2.286-15.645c7.414-7.58,13.124-5.502,15.813-2.878
	c4.627,4.527,2.531,8.394,1.414,10.436l5.598,5.476c3.574-4.252,5.727-12.953-2.305-20.799c-6.905-6.754-16.997-7.269-26.154,2.108
	C451.508,225.3,451.914,235.12,459.046,242.092z"/>
<polygon style="fill:#FFFFFF;" points="478.924,262.736 489.148,255.229 494.342,255.951 487.945,275.029 493.904,283.154 
	502.178,257.005 523.606,260.254 517.61,252.089 496.852,249.576 509.146,240.555 504.509,234.239 474.286,256.423 "/>
<polygon style="fill:#FFFFFF;" points="504.079,288.994 512.715,284.553 521.072,300.807 526.979,297.771 518.613,281.517 
	525.628,277.914 534.725,295.605 540.623,292.573 528.015,268.054 494.673,285.201 507.685,310.507 513.586,307.475 "/>
</svg>
