<?xml version="1.0" encoding="iso-8859-1"?>
<!-- Generator: Adobe Illustrator 24.0.1, SVG Export Plug-In . SVG Version: 6.00 Build 0)  -->
<svg version="1.1" id="Layer_1" xmlns="http://www.w3.org/2000/svg" xmlns:xlink="http://www.w3.org/1999/xlink" x="0px" y="0px"
	 viewBox="0 0 612 792" style="enable-background:new 0 0 612 792;" xml:space="preserve">
<path style="fill:#0D529F;" d="M305.951,647.266c-13.317-18.399-40.415-23.293-72.96-26.647l0,0
	c-32.478-3.407-70.081-5.447-104.014-19.547l0,0c-41.738-17.317-91.01-59.223-91.006-131.992l0,0
	c0.083-58.888,36.496-134.191,36.435-204.545l0,0c0.028-36.734-19.207-72.859-28.843-88.527l0,0
	c-3.206-5.225-5.309-8.143-5.314-8.151l0,0l-0.983-1.366l88.16-83.101l1.303,1.593c0.005,0,0.388,0.475,1.261,1.396l0,0
	c0.871,0.917,2.2,2.245,4.002,3.843l0,0c3.601,3.201,9.087,7.487,16.577,11.784l0,0c14.986,8.586,37.96,17.212,70,17.217l0,0
	c32.483,0.041,64.578-19.389,78.48-29.138l0,0c4.641-3.241,7.226-5.366,7.233-5.371l0,0l1.214-0.996l1.218,0.996
	c0.009,0.003,2.594,2.13,7.233,5.371l0,0c4.639,3.241,11.291,7.57,19.306,11.897l0,0c16.032,8.655,37.524,17.252,59.178,17.241l0,0
	c56.042-0.007,84.446-26.407,90.579-32.844l0,0c0.869-0.921,1.256-1.393,1.258-1.396l0,0l1.302-1.593l88.16,83.101l-0.98,1.366
	c-0.004,0.009-2.109,2.926-5.315,8.151l0,0c-3.208,5.225-7.488,12.718-11.768,21.751l0,0c-8.562,18.063-17.082,42.29-17.074,66.775
	l0,0c-0.063,70.353,36.351,145.657,36.437,204.545l0,0c0,72.769-49.271,114.675-91.009,131.992l0,0
	c-33.933,14.1-71.535,16.14-104.014,19.547l0,0c-32.546,3.354-59.643,8.248-72.96,26.647l0,0l-1.55,2.124L305.951,647.266
	L305.951,647.266z"/>
<path style="fill:#FFFFFF;" d="M78.238,264.535c-0.06,71.546-36.518,147.096-36.432,204.545l0,0
	c0,70.834,47.817,111.431,88.645,128.45l0,0c33.112,13.784,70.324,15.877,102.94,19.275l0,0c31.449,3.33,58.906,7.725,74.109,26.213
	l0,0c15.202-18.488,42.659-22.883,74.108-26.213l0,0c32.615-3.398,69.828-5.49,102.939-19.275l0,0
	c40.829-17.019,88.646-57.616,88.648-128.45l0,0c0.083-57.448-36.375-132.998-36.435-204.545l0,0
	c0.056-45.739,28.322-89.302,33.921-97.531l0,0L487.868,88.94c-6.452,6.826-35.909,34.122-93.437,34.117l0,0
	c-40.896-0.078-79.662-28.794-86.933-34.427l0,0c-7.271,5.633-46.037,34.349-86.93,34.427l0,0
	c-57.529,0.005-86.986-27.29-93.438-34.116l0,0l-82.814,78.063C49.916,175.232,78.182,218.795,78.238,264.535L78.238,264.535z"/>
<path style="fill:#57B547;" d="M72.332,375.302c-2.614,9.968-5.176,19.731-7.512,29.217h485.356
	c-2.337-9.486-4.897-19.25-7.512-29.217c-4.045-15.604-8.173-31.713-11.519-48.127H83.851
	C80.505,343.589,76.377,359.698,72.332,375.302z"/>
<path style="fill:#EF4635;" d="M304.942,106.181c-4.654,3.107-10.504,6.75-17.307,10.426c-17.437,9.336-41.018,19.145-67.066,19.235
	c-35.051,0.023-61.109-9.551-78.266-19.418c-6.069-3.484-11.041-6.986-14.973-10.104l-66.548,62.73
	c3.307,5.499,7.426,12.859,11.567,21.595c9.137,19.397,18.609,45.555,18.674,73.89c-0.022,19.359-2.518,38.63-6.158,57.527h220.077
	V106.181z"/>
<path style="fill:#EF4635;" d="M310.055,623.466c0.845-0.589,1.702-1.156,2.569-1.703c6.434-4.06,13.409-7.021,20.682-9.316
	c14.558-4.566,30.422-6.607,46.974-8.357c33.064-3.375,68.975-5.636,99.36-18.363c18.712-7.762,39.198-21.151,54.599-40.281
	c15.404-19.198,26.108-43.817,26.171-76.367c0.06-17.303-3.743-37.539-8.99-59.444H310.055V623.466z"/>
<path style="fill:#0D529F;" d="M63.579,409.633c-5.249,21.905-9.05,42.142-8.991,59.444c0.063,32.55,10.767,57.169,26.172,76.367
	c15.399,19.13,35.885,32.52,54.601,40.281c19.94,8.313,42.252,12.232,64.594,14.811c22.353,2.615,44.589,3.845,64.84,7.724
	c13.493,2.626,26.289,6.412,37.58,13.503c0.866,0.546,1.722,1.114,2.567,1.702l0.003-213.832H63.579z"/>
<path style="fill:#0D529F;" d="M530.133,322.061c-3.642-18.896-6.137-38.167-6.158-57.527c0.064-28.335,9.538-54.493,18.674-73.89
	c4.142-8.735,8.26-16.096,11.566-21.595l-66.546-62.731c-3.933,3.119-8.905,6.621-14.975,10.105
	c-17.157,9.868-43.215,19.442-78.262,19.418c-26.053-0.09-49.633-9.899-67.065-19.235c-6.805-3.675-12.656-7.32-17.31-10.427
	v215.882H530.133z"/>
<path style="fill:#FFFFFF;" d="M130.442,373.349c1.039,5.56,1.557,12.679,2.298,19.797h0.149c0.148-1.335,0.222-2.669,0.371-4.005
	c0.371-4.744,0.815-9.491,1.557-14.235l4.152-30.326h10.752l-10.307,55.609h-12.456l-4.152-21.947
	c-1.112-5.857-1.483-11.789-2.225-17.72h-0.149c-0.742,5.931-1.112,11.863-2.224,17.72l-3.708,21.947h-12.457l-10.602-55.609h10.751
	l4.672,30.326c0.741,4.744,1.186,9.491,1.557,14.235c0.148,1.336,0.222,2.669,0.297,4.005h0.147
	c0.816-7.119,1.334-14.237,2.374-19.797l5.041-28.768h8.602L130.442,373.349z"/>
<path style="fill:#FFFFFF;" d="M149.276,367.936c0.445-14.162,1.557-24.69,18.166-24.69c16.608,0,17.721,10.528,18.165,24.69v7.934
	c0,14.829-1.111,25.653-18.165,25.653s-18.166-10.824-18.166-25.653V367.936z M155.43,338.649v-8.527h9.417v8.527H155.43z
	 M159.953,381.059c0,4.598,0.371,12.087,7.489,12.087c7.415,0,7.488-7.638,7.488-12.976v-14.978c0-4.745-0.222-13.568-7.488-13.568
	c-7.044,0-7.489,7.192-7.489,11.938v2.076V381.059z M169.89,338.649v-8.527h9.491v8.527H169.89z"/>
<path style="fill:#FFFFFF;" d="M198.657,376.24v23.95h-10.379v-55.609h19.648c8.971,0,15.792,3.114,15.792,13.346
	c0,6.08-1.557,12.456-8.527,13.419v0.15c6.155,0.814,8.009,4.744,8.009,10.083v2.374c0,4.67,0.148,13.865,2.224,15.2v1.038h-11.418
	c-1.038-2.891-1.113-7.935-1.113-11.641v-2.446c-0.073-3.411,0-8.083-3.559-9.121c-2.372-0.667-4.893-0.742-7.415-0.742h-1.408
	H198.657z M198.657,368.085h8.156c3.411-0.224,6.08-2.447,6.08-8.009c0-6.227-2.594-7.266-6.524-7.339h-7.712V368.085z"/>
<path style="fill:#FFFFFF;" d="M248.262,361.486v-0.815c0-4.671-0.667-9.046-6.08-9.046c-3.484,0-5.709,1.408-5.709,5.189
	c0,4.228,2.669,5.858,5.931,7.934c3.411,2.15,9.713,6.302,12.605,9.12c3.558,3.484,4.67,6.822,4.67,11.641
	c0,10.529-6.97,16.015-17.127,16.015c-12.457,0-16.905-6.969-16.905-16.904v-4.079h10.381v4.226c0,4.894,1.705,8.379,6.524,8.379
	c4.375,0,6.451-2.299,6.451-6.525c0-3.262-1.483-5.487-4.152-7.339c-5.412-4.227-12.16-7.268-16.386-12.828
	c-1.705-2.521-2.669-5.561-2.669-8.527c0-9.49,5.338-14.68,16.312-14.68c16.534,0,16.089,12.753,16.164,18.24H248.262z"/>
<path style="fill:#FFFFFF;" d="M261.904,400.189v-55.609h21.65c2.521,0,7.564,1.112,10.752,6.302
	c2.372,3.855,3.04,10.01,3.04,19.204c0,10.972,0,23.651-8.527,28.621c-2.298,1.333-5.116,1.482-7.711,1.482H261.904z
	 M276.809,392.033c9.267,0,9.861-4.894,9.861-20.983c0-13.124-1.335-18.313-7.563-18.313h-6.822v39.296H276.809z"/>
<path style="fill:#FFFFFF;" d="M299.72,367.936c0.444-14.162,1.557-24.69,18.166-24.69c16.608,0,17.721,10.528,18.165,24.69v7.934
	c0,14.829-1.112,25.653-18.165,25.653c-17.054,0-18.166-10.824-18.166-25.653V367.936z M310.396,381.059
	c0,4.598,0.371,12.087,7.489,12.087c7.414,0,7.488-7.638,7.488-12.976v-14.978c0-4.745-0.223-13.568-7.488-13.568
	c-7.045,0-7.489,7.192-7.489,11.938v2.076V381.059z"/>
<path style="fill:#FFFFFF;" d="M349.101,376.24v23.95h-10.38v-55.609h19.648c8.973,0,15.794,3.114,15.794,13.346
	c0,6.08-1.559,12.456-8.527,13.419v0.15c6.154,0.814,8.008,4.744,8.008,10.083v2.374c0,4.67,0.148,13.865,2.224,15.2v1.038h-11.418
	c-1.038-2.891-1.112-7.935-1.112-11.641v-2.446c-0.074-3.411,0-8.083-3.559-9.121c-2.373-0.667-4.893-0.742-7.414-0.742h-1.41
	H349.101z M349.101,368.085h8.156c3.41-0.224,6.08-2.447,6.08-8.009c0-6.227-2.595-7.266-6.524-7.339h-7.712V368.085z"/>
<path style="fill:#FFFFFF;" d="M377.869,400.189v-55.609h29.437v8.156h-19.057v14.087h17.869v8.155h-17.869v25.21H377.869z"/>
<path style="fill:#FFFFFF;" d="M439.647,343.935c-4.448,7.04-7.044,13.961-7.044,30.131c0,10.919,1.557,17.602,7.192,27.506h-6.155
	c-7.933-10.859-10.825-17.184-10.825-29.953c0-10.38,3.188-19.272,10.825-27.684H439.647z"/>
<path style="fill:#FFFFFF;" d="M506.724,343.935c4.448,7.04,7.044,13.961,7.044,30.131c0,10.919-1.558,17.602-7.192,27.506h6.154
	c7.933-10.859,10.825-17.184,10.825-29.953c0-10.38-3.188-19.272-10.825-27.684H506.724z"/>
<path style="fill:#FFFFFF;" d="M439.415,344.581h34.626v8.156h-12.087v47.453h-10.379v-47.453h-12.16V344.581z"/>
<path style="fill:#FFFFFF;" d="M496.746,361.486v-0.815c0-4.671-0.667-9.046-6.08-9.046c-3.484,0-5.709,1.408-5.709,5.189
	c0,4.228,2.669,5.858,5.932,7.934c3.41,2.15,9.714,6.302,12.605,9.12c3.559,3.484,4.67,6.822,4.67,11.641
	c0,10.529-6.969,16.015-17.127,16.015c-12.456,0-16.905-6.969-16.905-16.904v-4.079h10.381v4.226c0,4.894,1.705,8.379,6.524,8.379
	c4.374,0,6.45-2.299,6.45-6.525c0-3.262-1.483-5.487-4.152-7.339c-5.412-4.227-12.159-7.268-16.386-12.828
	c-1.705-2.521-2.669-5.561-2.669-8.527c0-9.49,5.338-14.68,16.313-14.68c16.534,0,16.09,12.753,16.163,18.24H496.746z"/>
<path style="fill:#FFFFFF;" d="M192.23,187.83c0,0-17.472-5.113-17.472-14.488c0-3.533,4.383-6.392,9.802-6.392
	c15.696,0,26.294,8.044,38.238,12.399c-4.623,3.351-12.458,10.325-12.458,19.134c0,24.716,28.978,29.191,28.978,39.205
	c0,5.889-5.337,10.653-11.932,10.653c-7.031,0-10.663-2.335-12.997-10.439c0,0-2.77,2.763-2.77,6.179
	c0,8.715,7.245,15.767,20.881,15.767c12.601,0,22.798-11.079,22.798-21.306c0-23.225-32.386-26.42-32.386-45.383
	c0-5.169,4.367-9.628,6.924-11.799c2.285,0.453,4.649,0.719,7.139,0.719c13.425,0,23.582-12.715,24.29-26.847
	c0,0-4.262,10.014-21.946,10.014c-25.143,0-25.143-15.766-50.711-15.766c-18.537,0-30.894,11.149-30.894,24.929
	c0,9.303,8.767,16.832,19.602,16.832C187.542,191.24,192.23,187.83,192.23,187.83z"/>
<path style="fill:#FFFFFF;" d="M301.163,226.935c18.226,0,32.772-13.825,35.014-25.9c0,0-16.309,13.429-29.978,13.429
	c-9.543,0-17.266-8.153-17.266-23.021c0-21.607,12.013-30.936,26.859-39.09c-29.326-4.009-45.805,18.985-45.805,42.447
	C269.987,214.464,283.931,226.935,301.163,226.935z"/>
<path style="fill:#FFFFFF;" d="M417.867,197.418c12.247,6.392,22.159,17.258,22.159,33.238c0,27.699-18.489,41.122-41.335,41.122
	c-34.09,0-46.662-19.537-46.662-43.679c0-2.906,0.354-5.616,0.961-8.146c6.784,3.872,10.545,9.977,10.545,16.028
	c0,4.16-1.668,7.503-4.3,9.9c1.523,3.875,3.623,7.337,6.372,10.269c0.566,0.603,1.179,1.181,1.808,1.745
	c4.932-4.618,8.904-11.906,8.904-20.635c0-8.104-7.706-21.92-19.703-26.426c7.146-12.548,20.13-18.317,20.13-18.317
	c-13.406,1.186-23.306,7.35-29.453,16.907c-5.047,0.298-10.551,2.292-16.357,6.743c4.679-0.526,8.924-0.332,12.699,0.401
	c-2.482,6.238-3.75,13.443-3.75,21.333c0,6.654,1.529,12.856,4.423,18.417c-10.643,3.398-18.813,9.188-18.813,9.188
	s-19.573-11.875-43.763-11.875c-14.74,0-28.74,5.521-36.838,13.835c-34.025,5.468-61.021-18.333-61.021-38.686
	c0-16.713,11.312-28.808,25.29-32.767c-11.765-13.744-38.704,12.095-38.704,35.845c0,30.009,32.325,53.316,69.398,42.612
	c-1.361,2.794-2.106,5.766-2.106,8.848c0,11.656,9.442,18.472,21.111,18.472c9.236,0,19.132-5.016,24.19-11.215
	c0,0-5.803,2.859-12.974,2.859c-8.387,0-15.175-4.131-15.175-9.237c0-5.057,11.901-11.654,26.609-11.654
	c23.091,0,34.086,17.592,34.086,17.592c4.447-15.182,18.596-24.16,38.715-21.355c10.953,9.447,27.652,15.145,48.427,15.145
	c34.302,0,54.544-21.732,54.544-49.432C457.285,214,441.864,195.208,417.867,197.418z"/>
<path style="fill:#FFFFFF;" d="M339.193,181.598c0,10.547-11.347,15.98-11.347,15.98c15.661,5.273,25.729-7.79,25.729-17.418
	c0-18.537-26.208-30.203-26.208-39.392c0-3.754,3.836-6.79,3.836-6.79c-7.331,2.527-13.264,6.79-13.264,15.181
	C317.939,165.298,339.193,167.695,339.193,181.598z"/>
<path style="fill:#FFFFFF;" d="M396.526,246.04c-6.425,0-11.201-8.229-11.201-18.396c-3.423,1.55-6.194,5.115-6.194,11.437
	c0,12.118,7.992,21.921,17.87,21.921c12.906,0,23.351-12.148,23.351-27.164c0-23.725-26.747-37.307-26.747-54.395
	c0-5.111,2.016-8.512,4.967-12.267c-10.35-3.504-18.727,7.01-18.727,17.577c0,27.164,25.735,34.788,25.735,51.707
	C405.58,241.755,401.53,246.04,396.526,246.04z"/>
<path style="fill:#FFFFFF;" d="M422.669,184.557c0,4.088-5.843,8.763-5.843,8.763c10.514,0,16.504-5.403,16.504-13.728
	c0-18.548-24.244-15.48-24.244-30.377c0-5.408,3.65-9.784,3.65-9.784c-8.637,1.168-15.626,6.597-15.626,14.749
	C397.11,174.188,422.669,174.771,422.669,184.557z"/>
<path style="fill:#0D529F;" d="M477.41,488.538c-0.242-0.31-0.425-0.578-0.527-0.76c0.033-0.039,0.068-0.083,0.109-0.13
	c1.5-1.815,6.629-6.545,6.607-14.735c-0.049-9.577-9.009-16.923-19.709-16.939c-3.686,0.004-6.979,0.532-9.314,1.045
	c0.792-2.147,1.541-5.33,1.537-9.673c-0.005-9.146-7.501-16.498-16.727-16.514c-4.399-0.022-7.281,1.526-9.184,2.987
	c-0.951,0.723-1.69,1.4-2.264,1.814c-0.587,0.429-0.899,0.528-1.123,0.525c-0.008-0.002-0.021,0.013-0.19-0.088
	c-0.654-0.33-2.012-2.407-4.41-4.313c-2.447-1.929-6.169-3.605-11.914-3.591c-5.472,0.012-10.257,3.004-13.65,6.997
	c-3.395,4.012-5.51,9.076-5.525,13.778c0.011,4.054,1.066,7.64,2.102,10.191c-2.244-0.744-5.246-1.447-8.601-1.454
	c-3.748,0.028-7.6,2.189-10.639,5.514c-3.024,3.336-5.23,7.95-5.235,13.13c-0.019,3.64,0.919,5.851,1.852,7.276
	c0.983,1.48,1.374,1.872,1.346,2.524c0.139,0.393-0.92,1.893-2.353,4.301c-1.377,2.438-2.771,5.977-2.761,11.255
	c0.016,8.57,5.873,15.79,13.659,16.728c-10.062,5.494-20.115,13.658-28.311,21.735c-5.25,5.183-9.719,10.329-12.91,14.757
	c-3.172,4.485-5.166,7.996-5.25,10.911c-0.023,1.565,0.8,2.954,1.908,3.786c3.305,2.436,8.813,2.431,13.537,2.498
	c0.02,0,0.038,0,0.057,0c1.322,0,2.556-0.545,3.475-1.374c3.148-2.929,4.726-8.597,10.982-16.846
	c5.798-7.695,15.426-17.52,33.175-28.412c-0.484,1.977-0.915,4.518-0.919,7.321c-0.017,5.203,1.637,9.352,4.86,12.037
	c3.214,2.685,7.71,3.834,13.143,3.837c3.147,0.009,5.48-1.128,7.131-2.157c1.618-1.085,2.806-1.796,2.884-1.68
	c0.838-0.041,2.034,0.616,3.923,1.551c1.879,0.904,4.437,1.869,8.01,1.86c4.633-0.035,8.435-3.181,11.107-6.996
	c2.672-3.861,4.323-8.527,4.342-12.498c-0.021-3.295-0.97-6.658-1.916-9.21c2.777,1.221,6.718,2.481,11.185,2.497
	c12.269-0.064,21.997-10.668,22.051-21.627c0.003-4.02-1.778-7.048-3.411-9.205C478.728,490.11,477.936,489.219,477.41,488.538z"/>
<path style="fill:#57B547;" d="M474.236,513.046c-3.44,3.488-8.156,5.786-13.328,5.783c-3.707,0.003-7.134-1.046-9.62-2.11
	c-1.244-0.53-2.251-1.06-2.936-1.454c-0.69-0.394-1.022-0.63-1.023-0.627c-0.608-0.42-1.421-0.37-1.973,0.12
	c-0.55,0.493-0.694,1.292-0.349,1.945c0.003,0.004,0.855,1.605,1.723,3.959c0.874,2.347,1.721,5.412,1.713,8.076
	c0.018,3.057-1.428,7.342-3.768,10.67c-2.34,3.376-5.463,5.662-8.483,5.627c-3.02-0.008-4.938-0.747-6.633-1.548
	c-1.681-0.77-3.153-1.817-5.3-1.86c-2.05,0.123-3.096,1.323-4.569,2.157c-1.441,0.887-3.055,1.669-5.445,1.678
	c-5.005,0.003-8.712-1.082-11.091-3.09c-2.369-2.001-3.698-4.99-3.713-9.588c-0.004-2.814,0.5-5.402,1.007-7.268
	c0.251-0.935,0.506-1.688,0.69-2.199c0.185-0.515,0.295-0.757,0.295-0.759c0.277-0.632,0.113-1.375-0.402-1.836
	c-0.514-0.458-1.272-0.533-1.867-0.185c-23.288,13.623-34.221,25.972-40.229,34.927c-3.002,4.464-4.78,8.082-6.203,10.418
	c-0.705,1.166-1.321,1.991-1.836,2.436c-0.53,0.439-0.847,0.563-1.423,0.581c-3.044,0.002-6.434-0.117-8.872-0.704
	c-1.216-0.282-2.17-0.694-2.695-1.115c-0.522-0.444-0.659-0.705-0.681-1.271h-0.002c-0.084-1.24,1.573-4.865,4.646-9.044
	c9.146-12.741,30.205-32.53,48.229-39.32c0.802-0.304,1.222-1.188,0.948-2.002c-0.271-0.813-1.139-1.265-1.961-1.026
	c-0.003,0-0.73,0.214-1.989,0.442c-1.259,0.227-3.008,0.452-4.913,0.452c-6.585-0.013-12.134-5.976-12.147-13.633
	c0.01-4.74,1.174-7.568,2.355-9.695c1.123-2.16,2.621-3.432,2.759-5.86c-0.028-2.12-1.234-3.219-1.849-4.242
	c-0.666-1.078-1.326-2.382-1.347-5.559c-0.003-4.244,1.838-8.153,4.408-10.983c2.553-2.843,5.839-4.497,8.268-4.467
	c3.055,0,5.876,0.699,7.919,1.404c1.018,0.353,1.844,0.707,2.405,0.964c0.561,0.264,0.826,0.416,0.829,0.413
	c0.638,0.355,1.44,0.233,1.942-0.3c0.503-0.534,0.578-1.346,0.18-1.962c0,0-0.198-0.303-0.533-0.932
	c-1.014-1.888-3.059-6.416-3.05-11.519c-0.014-3.714,1.801-8.237,4.767-11.71c2.967-3.49,6.973-5.877,11.215-5.868
	c5.897,0.026,8.744,1.801,10.738,3.58c0.996,0.903,1.746,1.839,2.534,2.666c0.762,0.783,1.696,1.711,3.242,1.744
	c1.246-0.002,2.229-0.567,3.01-1.139c2.377-1.744,4.037-4.123,9.561-4.188c7.495,0.003,13.517,5.972,13.529,13.318
	c0,4.074-0.713,6.911-1.387,8.704c-0.341,0.895-0.673,1.529-0.906,1.927c-0.118,0.198-0.213,0.337-0.268,0.421
	c-0.057,0.077-0.059,0.074-0.057,0.077c-0.455,0.552-0.486,1.342-0.077,1.929c0.407,0.584,1.16,0.829,1.835,0.596
	c0.004,0,1.273-0.444,3.429-0.906c2.153-0.461,5.139-0.924,8.405-0.922c4.638-0.002,8.806,1.595,11.776,4.111
	c2.973,2.527,4.733,5.911,4.735,9.631c-0.005,4.175-1.526,7.164-3.108,9.373c-0.793,1.103-1.594,1.988-2.242,2.721
	c-0.327,0.372-0.614,0.696-0.869,1.045c-0.229,0.366-0.549,0.69-0.597,1.564c0.059,1.321,0.702,2.053,1.3,2.882
	c1.902,2.405,4.885,5.346,4.876,9.901C479.77,504.913,477.675,509.561,474.236,513.046z"/>
<path style="fill:#FFFFFF;" d="M276.907,456.184c0,0,3.864-5.045,11.803-6.458c-4.455-5.725-10.467-11.358-19.932-10.355
	c-0.285-8.622,6.347-15.142,6.347-15.142c-17.924,1.559-25.277,14.475-25.277,14.475c-4.232,0-8.067-5.124-18.038-5.124
	c-2.673,15.635,8.128,28.284,8.128,28.284s-5.344,9.961-5.344,22.268c0,16.147,1.893,20.824,0.112,24.388
	c0,0-1.673-1.672-5.235-1.003c-0.778,7.572,20.266,17.147,13.14,26.501c-12.081-15.646-27.197-6.206-31.29-30.592
	c0,0,5.345,4.426,9.938,4.426c1.169-6.014-3.842-10.605-3.257-21.295c2.505,0.835,2.466,4.006,5.513,4.006
	c1.476,0,2.671-1.194,2.671-2.67c0-7.35-7.516-11.776-6.849-19.71c3.634-0.374,4.093-2.423,4.093-2.423
	c0-4.563-5.429-11.469-7.433-15.698c-19.336-5.648-26.576-10.635-33.236-12.645c11.436,0.002,25.494,8.969,32.901,8.969
	c3.342,0,1.838-8.185,9.521-17.036c-7.424-3.416-15.367-0.334-16.368-0.334c-2.231-3.4-2.54-8.518-5.678-10.189
	c-3.955,0.847-5.731,2.393-8.685,5.346c-6.516,0-8.52-2.673-15.868-2.673c0,8.251,2.467,15.023,3.901,15.837
	c-1.913-0.556-3.79-0.858-5.906-0.858c-6.787,3.563-12.277,8.201-12.277,8.201c-0.403,6.228-0.067,8.318,1.274,11.27l4.429-0.133
	c0,0,0.323-0.681,0.602-0.874c8.306,0,13.553-0.135,15.027,1.343c-1.423,1.892-4.776,1.074-6.397,1.522
	c-3.449,0.958-5.121,1.607-8.503,1.607c-8.863,0-16.035-5.229-16.035-11.691c0-4.063,5.678-7.35,5.678-7.35
	s-1.836-2.673-6.848-2.673c-5.445,0-9.854,5.229-9.854,11.693c0,11.023,12.774,15.365,30.232,15.365
	c10.132,0,12.916-2.561,14.252,0.112c-5.234,3.229-9.954,1.446-20.266,1.446c0,0-1.921,1.693-2.783,3.786
	c2.003,12.026,14.03,2.673,17.482,10.132c-0.798,1.786-2.463,3.232-4.789,3.232c-3.451,0-3.487,0.78-7.794,0.78
	c-20.311,0-36.746-19.156-36.746-26.503c0-5.456,3.898-6.57,3.898-12.027c0-4.896-4.855-10.855-10.857-10.855
	c-1.141,0-2.338,0.408-3.471,1.132c-0.699-2.405-3.336-4.194-6.496-4.194c-1.95,0-5.799,1.543-7.298,5.734
	c-0.727,2.029,0.368,4.262-0.05,8.074c3.896-1.226,2.782-3.061,4.621-3.061c1.171,0,2.762,1.988,3.847,3.576
	c0,0.088-0.005,0.175-0.005,0.264c0,1.264-1.021,2.282-2.283,2.282c-2.185,0-1.391-0.723-3.953-0.723
	c-2.73,0-5.057,1.547-6.002,3.732c-7.739-1.066-13.411,4.093-12.371,10.743c10.615-2.141,14.907,0.953,16.328,4.342l0.396,1.985
	c-5.714-0.317-13.037,8.185-7.257,18.504c2.372-0.704,4.342-5.569,8.016-5.569c2.561,0,2.115,2.116,7.015,2.116
	c3.787,0,1.113-3.564,4.231-3.564c2.116,0,2.894,2.784,5.679,3.897c-4.509,4.512-8.909,4.233-8.909,7.573
	c0,2.693,3.813,3.049,8.527,2.333c1.075,3.168,5.318,5.976,11.535,4.9c0,0-1.219,1.518-3.049,2.392
	c6.376,3.045,10.458,0.595,11.534,0.595c1.793,0,3.047,1.853,1.195,4.363c6.819,0.605,13.463-1.861,13.463,0.06
	c0,0.691-1.01,1.252-2.256,1.252c-0.918,0-2.017,0.919-4.51,0.919c-4.009,0-4.333,0.917-9.687,0.917
	c-0.832,0-1.504-0.709-1.504-1.585c0-1.016,0.919-1.837,0.919-1.837c-3.005-1.004-4.426,1.502-8.853,1.502
	c-0.512,2.911,0.407,3.853,2.005,4.344l-0.334,0.919l4.177,4.009c-3.677,2.005-8.977,0.796-20.712,1.084
	c2.004-7.433-0.584-12.861-9.565-11.289l0,0c-11.161-7.442-14.936,1.426-13.568,4.69c3.554-1.502,5.593,0.609,6.431,1.84
	c-1.01,0.408-1.085,1.344-1.085,3.005c0,4.011,2.065,3.027,6.095,5.095c-0.582,1.105-2.57,0.271-3.339,2.226
	c-2.151,0.674-3.391,1.886-2.9,5.487c-1.423,1.4-1.915,3.742-2.751,4.589c-1.354,1.37-2.122,1.957-2.122,3.229
	c0,3.17,2.007,2.518,2.541,5.737c0,0,1.936-2.818,5.305-3.762c0.91,0.86,2.38,1.421,4.05,1.421c2.31,0,4.263-1.747,4.959-4.179
	c0.699-0.218,1.513-0.386,2.388-0.386c0,0,0.248,0.997,0.373,2.425c-4.274,0.902-7.388,3.712-7.388,7.04
	c0,3.496,2.614,5.745,6.244,6.506c0.151,8.238,3.447,11.495,12.797,9.863c-1.338-3.907-1.286-7.312-1.104-9.146
	c1.658-0.479,2.774-1.487,2.774-3.215c0,0,2.45-0.557,2.45-3.116c0-3.565-3.341-3.687-3.341-8.239c0-3.231,3.785-2.118,8.463-2.118
	c11.47,0,11.914-2.539,15.924-5.678c0,0,1.001,3.007,3.674,3.007c3.785,0,10.689-11.022,16.034-11.022
	c3.006,0,6.597-2.647,8.017-7.352c0,0,3.117,3.118,0,4.343L171.3,529.808c0.091,0.851-0.026,1.54-0.561,1.54
	c-0.588,0-1.063-2.007-1.063-2.007c-3.69,1.493-5.346,2.688-7.572,6.012c15.812,21.379,41.999,20.146,49.378,27.01
	c3.698,3.438,5.767,6.569,7.185,9.739c0.679,1.519,1.21,3.049,1.699,4.623c0.742,2.391,0,7.623,2.312,7.623h29.729
	c0.863,0,1.56-0.698,1.56-1.56c0-5.79-4.788-5.012-4.788-16.258c0-7.656,4.702-10.611,9.935-13.696
	c5.421-3.196,13.338-9.239,13.338-15.363c0-3.898-3.146-5.318-6.348-5.011c5.122-6.46,13.695-11.671,13.695-20.49
	c0-2.523-0.444-4.564-0.444-4.564s-0.697,0.333-1.559,0.333c-0.347-1.271-1.448-1.671-1.448-1.671s-5.121,4.85-14.251,7.235
	c0,0,19.2-14.201,7.46-25.942c-3.898,2.276-4.88,7.128-10.913,8.239c-1.538-1.538-1.809-8.488-5.567-10.578
	c-2.616,4.955-1.743,9.648-3.898,11.804c-1.781-15.478,1.004-24.163,11.803-24.163c8.575,0,8.352,11.135,13.697,11.135
	c-0.557-7.461,0.446-10.689,0.446-10.689s1.489,4.969,7.905,7.017C289.823,466.892,276.907,456.184,276.907,456.184z"/>
</svg>
