<?xml version="1.0" encoding="iso-8859-1"?>
<!-- Generator: Adobe Illustrator 24.0.1, SVG Export Plug-In . SVG Version: 6.00 Build 0)  -->
<svg version="1.1" id="Layer_1" xmlns="http://www.w3.org/2000/svg" xmlns:xlink="http://www.w3.org/1999/xlink" x="0px" y="0px"
	 viewBox="0 0 612 792" style="enable-background:new 0 0 612 792;" xml:space="preserve">
<path style="fill:#ED1C24;" d="M306.576,679.552c-15.552-12.456-31.464-24.192-47.664-35.784
	c-31.824-22.824-59.904-42.912-89.496-79.272l-22.896,21.888C120.024,563.2,98.136,538,81.072,507.04
	c-16.992-30.96-27.216-63.72-33.408-98.424c17.64-15.768,32.688-33.12,43.848-54.288c19.224-36.504,23.832-80.352,9.864-119.52
	c-7.848-21.96-20.304-38.664-36.72-54.864l65.16-67.32c49.752,41.256,113.256,56.88,176.76,56.88
	c63.648,0,127.008-15.624,176.76-56.88l65.16,67.32c-16.416,16.2-28.872,32.904-36.72,54.864
	c-13.968,39.168-9.36,83.016,9.864,119.52c11.16,21.168,26.208,38.52,43.848,54.288c-6.192,34.704-16.416,67.464-33.408,98.424
	c-17.064,30.96-38.952,56.16-65.448,79.344l-22.896-21.888c-29.592,36.36-57.672,56.448-89.496,79.272
	C338.04,655.36,322.128,667.096,306.576,679.552z"/>
<path style="fill:#FFFFFF;" d="M306.576,662.272c14.184-11.16,27.288-20.592,39.744-29.52c37.296-26.712,67.536-51.84,96.048-88.344
	l24.624,23.616c20.664-18.936,38.736-41.256,53.208-67.536c13.896-25.2,24.408-54,30.672-86.832
	c-16.704-15.624-30.816-33.264-41.184-52.992c-21.096-40.032-25.992-87.552-10.656-130.392c6.552-18.288,16.632-35.424,30.528-50.4
	l-15.264-15.84L95.4,504.88c14.04,24.408,31.248,45.288,50.76,63.144l24.624-23.616c28.512,36.504,58.752,61.632,96.048,88.344
	C279.288,641.68,292.392,651.112,306.576,662.272z"/>
<polygon points="178.92,333.016 143.568,289.816 127.152,303.28 119.52,293.848 163.512,257.776 171.216,267.208 154.944,280.528 
	190.296,323.728 "/>
<path d="M197.28,290.824l11.232-9.144c2.736,2.52,5.76,3.6,8.928,3.312c3.168-0.288,6.696-2.016,10.584-5.184
	c3.312-2.664,5.328-5.256,6.12-7.776c0.72-2.448,0.216-4.824-1.584-6.984c-2.592-3.24-9.576-1.872-20.952,3.888l-0.36,0.216
	c-0.288,0.144-0.72,0.36-1.368,0.648c-6.048,3.168-10.656,4.968-13.968,5.472c-2.952,0.432-5.76,0-8.424-1.152
	c-2.664-1.152-5.112-3.096-7.344-5.832c-4.176-5.184-5.616-10.584-4.176-16.272c1.44-5.76,5.616-11.376,12.456-17.064
	c6.48-5.256,12.672-7.992,18.72-8.064c6.048-0.072,11.304,2.448,15.84,7.56l-10.944,9c-2.304-2.376-4.896-3.528-7.848-3.313
	c-2.952,0.145-6.12,1.656-9.504,4.464c-3.024,2.448-4.824,4.896-5.544,7.272c-0.72,2.448-0.216,4.68,1.44,6.768
	c2.304,2.736,7.128,2.232,14.544-1.512c2.016-1.008,3.6-1.8,4.68-2.376c4.824-2.304,8.352-3.888,10.44-4.68
	c2.16-0.864,4.104-1.44,5.904-1.8c3.24-0.648,6.192-0.432,8.928,0.576c2.736,1.008,5.256,2.952,7.488,5.688
	c4.464,5.472,6.048,11.304,4.608,17.424c-1.44,6.192-5.616,12.168-12.672,18c-6.984,5.688-13.68,8.568-20.088,8.784
	C207.936,298.888,202.248,296.296,197.28,290.824z"/>
<polygon points="277.344,252.448 215.208,215.44 227.808,205.144 271.728,234.88 251.496,185.704 263.952,175.552 288.216,243.52 
	"/>
<path d="M84.744,450.736l6.624,19.368l11.016-9L84.744,450.736L84.744,450.736z M74.304,447.64l9.36-7.704l42.84,23.184
	l-8.568,6.984l-8.568-4.968l-15.336,12.6l3.312,9.288l-8.568,6.984L74.304,447.64z"/>
<polygon points="131.184,459.304 102.6,424.456 110.808,417.76 139.32,452.608 "/>
<polygon points="148.104,445.408 119.592,410.56 128.088,403.576 163.8,414.376 144.144,390.472 152.208,383.92 180.72,418.696 
	172.296,425.536 136.512,414.88 156.168,438.784 "/>
<path d="M192.024,398.896l6.552-5.256c3.816-3.096,5.832-6.264,6.048-9.36c0.288-3.168-1.152-6.696-4.392-10.584
	c-3.168-3.888-6.336-6.12-9.36-6.624c-3.096-0.576-6.336,0.576-9.648,3.312l-7.56,6.192L192.024,398.896L192.024,398.896z
	 M189.216,411.712l-28.512-34.776l15.48-12.672c6.048-4.968,11.808-7.272,17.136-6.84c5.328,0.432,10.44,3.6,15.192,9.504
	c2.664,3.168,4.392,6.408,5.256,9.72c0.936,3.384,0.936,6.624,0,9.792c-0.648,2.448-1.8,4.68-3.384,6.84
	c-1.656,2.088-4.248,4.536-7.848,7.56L189.216,411.712z"/>
<polygon points="229.536,378.736 201.024,343.888 209.16,337.264 232.416,365.632 251.712,349.792 257.04,356.272 "/>
<polygon points="262.08,352.096 233.496,317.248 241.632,310.624 270.216,345.472 "/>
<polygon points="279,338.2 250.488,303.424 258.984,296.44 294.696,307.168 275.04,283.264 283.104,276.64 311.544,311.488 
	303.192,318.4 267.408,307.744 287.064,331.648 "/>
<path d="M345.168,277.072c-0.072,2.952-0.648,5.616-1.872,7.992c-1.224,2.376-3.096,4.536-5.616,6.624
	c-5.472,4.536-11.376,6.552-17.568,5.976c-6.192-0.576-11.592-3.6-15.984-9.144c-4.536-5.544-6.48-11.376-5.76-17.496
	c0.648-6.12,3.888-11.52,9.504-16.2c4.968-4.104,9.864-6.336,14.688-6.84c4.824-0.432,9.072,0.864,12.672,4.032l-8.352,6.84
	c-1.944-1.44-4.104-1.944-6.408-1.656c-2.376,0.36-4.752,1.512-7.272,3.6c-3.312,2.664-5.04,5.904-5.184,9.576
	c-0.072,3.672,1.368,7.416,4.464,11.16c3.096,3.816,6.48,5.976,10.224,6.48c3.744,0.504,7.344-0.648,10.728-3.456
	c2.592-2.088,4.248-4.536,4.824-7.272c0.648-2.808,0.216-5.472-1.296-8.136l-8.928,7.344l-4.897-5.976l16.416-13.464l15.408,18.864
	l-5.472,4.464L345.168,277.072z"/>
<path d="M387.648,249.136l-18.936-23.112l-8.064,6.552l-3.888-4.752l0.504-0.432c2.952-2.376,4.68-4.608,5.328-6.624
	c0.576-2.016,0.072-4.176-1.44-6.48l5.4-4.392l27.72,33.84L387.648,249.136z"/>
<path d="M403.704,199.096c-1.584-1.944-3.312-3.096-5.256-3.384c-1.872-0.36-3.6,0.144-5.256,1.512
	c-1.584,1.296-2.376,2.808-2.304,4.608c0,1.8,0.792,3.672,2.376,5.616c1.512,1.872,3.168,2.88,4.896,3.168
	c1.728,0.288,3.456-0.216,5.04-1.584c1.656-1.296,2.52-2.88,2.592-4.608C405.864,202.696,405.144,200.896,403.704,199.096
	L403.704,199.096z M411.048,207.808c-0.144,1.44-0.576,2.808-1.368,4.104c-0.72,1.224-1.728,2.376-3.096,3.528
	c-3.312,2.664-6.768,3.816-10.368,3.456c-3.6-0.36-6.84-2.232-9.576-5.616c-2.88-3.528-4.176-7.273-3.816-11.232
	c0.36-3.96,2.304-7.416,5.832-10.296c4.104-3.384,8.424-4.536,12.888-3.384c4.464,1.08,8.928,4.32,13.392,9.792
	c4.752,5.904,7.344,11.304,7.56,16.272c0.288,5.04-1.728,9.288-5.976,12.744c-2.952,2.448-5.976,3.672-9.072,3.6
	c-3.096-0.072-5.832-1.368-8.208-3.96l6.84-5.544c1.08,1.008,2.088,1.44,3.24,1.44c1.152,0,2.304-0.576,3.6-1.584
	c1.656-1.368,2.376-3.168,2.016-5.4C414.648,213.496,413.28,210.904,411.048,207.808z"/>
<path d="M436.032,188.584l-11.88-14.472l2.736,21.96L436.032,188.584L436.032,188.584z M446.112,201.256l-5.976-7.344
	l-14.184,11.664l-4.896-5.976l-3.672-29.808l8.352-6.768l16.56,20.16l3.888-3.168l4.392,5.4l-3.888,3.168l5.976,7.272
	L446.112,201.256z"/>
<path d="M458.208,173.392c1.584,1.944,3.312,3.096,5.184,3.384c1.944,0.36,3.672-0.144,5.328-1.512
	c1.584-1.224,2.304-2.808,2.304-4.608c-0.072-1.8-0.864-3.672-2.448-5.688c-1.512-1.8-3.096-2.88-4.824-3.096
	c-1.8-0.288-3.456,0.288-5.112,1.584c-1.584,1.368-2.448,2.88-2.52,4.608C456.048,169.792,456.768,171.592,458.208,173.392
	L458.208,173.392z M450.864,164.608c0.144-1.44,0.576-2.736,1.296-4.032c0.72-1.296,1.8-2.52,3.096-3.6
	c3.312-2.664,6.768-3.816,10.368-3.456c3.672,0.432,6.84,2.304,9.576,5.688c2.952,3.528,4.248,7.344,3.888,11.304
	c-0.36,3.888-2.304,7.344-5.904,10.224c-4.032,3.384-8.28,4.464-12.744,3.384c-4.464-1.08-8.928-4.392-13.392-9.864
	c-4.824-5.904-7.344-11.304-7.632-16.272c-0.288-4.968,1.656-9.216,5.976-12.672c2.952-2.448,5.976-3.672,9.072-3.6
	c3.096,0.072,5.832,1.368,8.208,3.888l-6.84,5.616c-1.008-1.008-2.088-1.44-3.24-1.44c-1.152,0-2.376,0.504-3.6,1.512
	c-1.656,1.368-2.376,3.168-2.088,5.4C447.192,158.92,448.56,161.584,450.864,164.608z"/>
<path d="M311.544,398.032c-0.576-9.936-0.504-30.528-3.6-38.304c-3.672-9.432,13.824-20.664,19.872-24.624
	c12.384-8.208,40.896-20.448,54.936-9.72c10.872,6.912,22.248,14.472,34.56,18.36c-4.752,4.392-20.232,2.448-26.28,1.44
	c2.376,5.472,4.32,10.512,5.472,16.416c-5.904-2.88-11.376-5.04-17.712-6.552c0.864,6.48,1.296,12.888,1.152,19.512
	c-5.76-5.904-11.592-10.656-18.504-15.12c-0.432,9.144-1.368,17.856-3.96,26.712c-2.88-5.112-6.336-9.216-10.584-13.248
	c-3.168,7.56-5.544,16.056-9.72,23.04c-2.448-7.992-5.832-14.976-10.584-22.032c-2.88,5.904-5.904,11.448-9.648,16.92
	C315.144,393.496,313.272,396.016,311.544,398.032z"/>
<path d="M333.72,402.208c-2.88,8.856-7.2,15.048-13.824,16.848c0.936-8.136,1.296-16.344,0.648-24.48
	c0.216-0.288,0.432-0.576,0.576-0.864c2.16-3.168,4.248-6.408,5.976-9.504c0.864,1.728,1.728,3.6,2.52,5.544
	C331.272,393.856,332.712,398.248,333.72,402.208z"/>
<path d="M339.624,429.856c0.936-9.72-1.728-16.776-2.088-25.848l0.576-0.648c4.464-5.112,6.984-11.88,9.504-18.648
	c0.36-0.864,0.72-1.8,1.008-2.736c0.936,1.152,1.8,2.376,2.592,3.672c5.544,7.92,6.048,13.032,3.528,22.392l-3.888-3.672
	C350.136,417.256,347.616,419.632,339.624,429.856z"/>
<path d="M360.576,447.64c-0.432-5.328-0.072-11.592-2.376-16.344c-2.664-5.328-4.608-10.44-3.312-16.2l2.304,2.088
	c2.16-5.904,3.6-8.712,3.672-15.12C367.848,411.208,378.36,438.208,360.576,447.64z"/>
<path d="M363.24,384.424c-0.72,2.664-1.512,5.184-2.448,7.776c8.136,9.288,12.744,20.52,14.256,32.688
	c0.36-0.432,0.72-0.864,1.08-1.368C387.288,408.4,375.48,394,363.24,384.424z"/>
<path d="M365.976,368.656c-0.36,3.528-0.864,6.984-1.512,10.296c6.48,4.824,12.744,10.584,16.92,17.496
	C382.536,381.904,376.992,377.08,365.976,368.656z"/>
<path d="M384.84,380.968l-0.072,0.576c1.368,5.544,2.304,11.664,1.44,17.28c5.184,3.528,9.576,7.848,13.608,12.672
	C404.352,394.792,400.032,387.016,384.84,380.968z"/>
<path d="M397.728,367.864c-1.008-0.504-1.872-0.936-2.736-1.368c-3.456-1.656-6.912-3.312-10.296-4.536
	c0.432,4.536,0.504,9.072,0.36,13.68c5.76,2.16,12.096,4.968,16.416,9.576c0-0.144,0-0.216-0.072-0.36
	C400.32,379.096,399.096,373.408,397.728,367.864z"/>
<path d="M438.408,367.144c-3.096,10.944-15.696,11.736-24.624,9c2.736,11.088,4.176,21.528,1.224,32.76
	c-8.28-6.552-6.912-15.696-8.64-24.912c-0.864-4.968-1.944-9.792-3.024-14.544C415.368,370.816,426.456,367.936,438.408,367.144z"/>
<path d="M405.864,351.376c4.104,3.6,10.8,5.184,18.216,6.912c-3.6,9.792-12.528,7.2-21.96,5.904c-0.72-4.32-1.584-8.64-3.024-12.816
	C401.256,351.52,403.56,351.448,405.864,351.376z"/>
<path d="M431.136,380.824l17.136,3.384c-3.456,3.816-15.624,13.824-26.28,9.36l-0.216,0.288c-0.072-3.456-0.504-7.128-1.224-10.872
	C424.224,383.128,427.824,382.192,431.136,380.824z"/>
<path d="M432,399.4c7.416,4.032,14.616,6.048,21.672,6.912c-8.856,9.648-15.84,6.984-26.28,2.376
	c-1.944,0.504-5.904,1.8-6.912-0.864c0.648-2.88,1.08-5.904,1.224-8.928c1.656,0.504,3.456,0.792,5.4,0.864
	C428.688,399.76,430.344,399.688,432,399.4z"/>
<path d="M375.48,452.752l-1.08-19.872l0.288-0.288c2.232-2.016,4.032-4.032,5.544-6.048c4.968-6.768,6.84-14.472,4.464-22.536
	c5.616,4.608,6.336,12.744,5.4,20.304C388.656,435.328,384.336,445.624,375.48,452.752z"/>
<path d="M391.392,521.512c-9,2.304-16.2,4.032-24.336-1.224c-5.112-3.384-8.784,1.152-10.584,5.616
	c-4.536,11.376-12.744,18.648-27.072,19.152c-7.056,5.328-14.76,9.432-23.616,11.088c-0.72,11.448,5.184,16.704,11.016,22.104
	c-20.016,3.384-26.496-7.992-28.656-24.048c-3.672-1.08-7.2-2.376-9.864-4.824c-5.256-4.824-1.944-10.44,1.872-15.336
	c3.96-5.04,9.576-8.136,16.2-7.92c5.688,0.216,8.712,0.792,10.656,0.36c3.312-0.864,3.528-4.968,12.024-7.56
	c6.264-1.944,13.248,0,19.224-2.952c12.96-7.56-3.024-12.384-10.656-10.152c-9.144,2.592-15.408,5.4-19.656,4.248
	c-3.6-0.936-4.896-3.888-3.168-8.784c-3.6-0.936-4.176-0.504-7.2,3.888c-5.616,7.992-20.16,16.704-26.712,10.728
	c-2.232-2.088-3.744-7.272-5.04-13.392c-8.928,1.728-15.264,5.76-20.592,10.728c-2.16-7.776-0.144-17.496,6.408-23.688
	c7.056-6.696,14.616-5.184,19.944-3.384c1.512,0.504,6.624-4.104,11.88-7.848c3.6-2.592,7.56-4.68,9.648-4.752
	c9.288-0.144,16.92,2.952,23.832,11.808c17.928-4.824,20.736,6.552,30.744,11.664c4.68,2.376,4.392-4.464,1.08-7.416
	c-5.472-4.752-8.784-11.16-12.096-17.208c-8.712,3.672-15.84,1.152-16.2-12.672c-6.696-4.536-14.184,0.144-22.248,2.304
	c2.088-18.864,11.376-22.608,28.08-21.096c14.688-6.408,23.328,2.16,26.64,14.184c12.888,9.936,16.848,17.784,16.056,24.552
	c-0.36,2.88-4.464,10.008,1.944,8.784c6.048-10.296,6.408-19.512,5.04-29.808c14.976-9.864,20.304-27.936,19.08-44.928
	c2.376,2.808,4.608,5.688,6.84,8.568c1.512-5.112,3.24-10.224,4.176-15.48c5.616,7.488,12.024,12.096,21.312,7.416
	c6.552,3.096,16.056,4.104,23.184,4.392c0.648,0.648-6.192,5.616-11.16,12.168c-4.68,6.048-6.552,14.112-6.84,16.848
	c-0.504,4.824-3.24,9.432-10.08,12.456c-7.776,3.456-7.128,2.16-10.512,10.512c-2.016,4.968-5.544,7.992-8.424,11.952
	c-3.384,4.536-4.104,8.856-4.896,14.4c12.888,0.216,25.056-5.328,37.008-12.456c0.072,3.24-0.072,6.624-2.376,9.432
	c-2.016,2.52-1.512,6.264-2.304,9.432c12.384-7.92,13.752-3.744,19.872-0.864c5.616,2.664,11.736-0.288,16.992,5.904
	c5.76,6.624,1.224,18.144-4.536,24.336c-0.432-1.584-1.944-6.768-4.32-9.648c-2.232-2.736-5.256-3.456-7.056,2.16
	c-1.728,5.688-6.408,8.208-12.744,8.784c-8.928,0.864-15.984-3.384-23.112-6.048C408.384,525.04,397.8,526.12,391.392,521.512z"/>
<path style="fill:#ED1C24;" d="M292.176,557.872c1.008,5.544,2.952,10.152,5.976,13.248c2.52,2.592,6.12,4.104,10.944,4.32
	c-1.152-1.296-2.232-2.664-3.096-4.176c-2.16-3.528-3.672-7.488-3.672-13.176C302.328,555.424,291.312,552.976,292.176,557.872z"/>
<path style="fill:#ED1C24;" d="M268.992,488.896c-2.016-0.576-4.248-1.008-6.48-0.792c-2.736,0.144-5.688,1.152-8.568,3.888
	c-2.664,2.52-4.464,5.832-5.4,9.288c-0.504,1.8-0.72,3.6-0.792,5.4c1.512-1.08,3.096-2.088,4.752-3.024
	c3.672-2.016,7.848-3.528,12.672-4.464C269.568,498.328,271.224,489.544,268.992,488.896z"/>
<path style="fill:#ED1C24;" d="M321.048,443.968c-5.184-0.072-9.36,0.648-12.456,2.664c-2.88,1.944-4.968,5.256-6.192,10.512
	c0.144-0.072,0.216-0.072,0.36-0.144h-0.072c5.184-1.728,10.224-3.456,15.192-2.16C319.68,455.344,325.512,444.04,321.048,443.968z"
	/>
<path style="fill:#ED1C24;" d="M457.488,517.912c3.384,1.08,5.544,4.608,6.84,7.632c2.376-4.104,4.464-10.872,0.936-14.976
	c-2.376-2.736-5.256-3.024-8.136-3.312C450.648,506.824,454.248,516.832,457.488,517.912z"/>
<path style="fill:#ED1C24;" d="M381.024,328.336c-0.072,0-0.072-0.072-0.144-0.072l-0.216-0.144
	c-12.672-9.792-39.744,2.376-50.976,9.792c-5.904,3.888-12.384,8.064-16.704,13.824
	C337.392,355.696,360.792,346.624,381.024,328.336z"/>
</svg>
