<svg enable-background="new 0 0 612 792" viewBox="0 0 612 792" xmlns="http://www.w3.org/2000/svg"><path d="m306.759 112.495-282.99 282.991 282.995 283.009 283.005-283.004z" fill="#ffce34"/><g fill="#263d8a"><path d="m556.14 395.491-120.893 120.893v-241.782z"/><path d="m427.661 267.016h-241.797l120.895-120.897z"/><path d="m178.291 274.589v241.801l-120.898-120.901z"/><path d="m185.874 523.973h241.784l-120.894 120.893z"/></g><path d="m351.101 392.143h-23.737v65.671h-43.491v-65.671h-91.288v-109.662h228.504v47.897h-69.988v-28.299h-89.964v65.116h22.736v-22.951h-12.201v-19.063h68.038v19.063h-12.346v22.951h93.725v24.948l-.02 116.361h-228.499v-50.309h68.567v26.74h89.964z" fill="#d44229"/><path d="m224.214 440.713c2.587-.132 16.57-1.904 16.57-14.388v-29.2h15.28v32.655c0 10.38-6.036 15.842-14.093 20.209-6.026 3.265-12.917 4.064-17.757 4.064-4.844 0-11.666-.798-17.692-4.064-8.053-4.367-14.088-9.829-14.088-20.209v-32.655h15.279v29.2c.001 12.484 13.919 14.256 16.501 14.388" fill="#d44229"/></svg>