<svg height="1000" viewBox="0 0 1000 1000" width="1000" xmlns="http://www.w3.org/2000/svg"><g transform="matrix(2.4689048 0 0 2.4689048 -25.506255 -10.976751)"><path d="m304.707 4.446v237.597c0 81.07-66.12 147.189-147.188 147.189-81.067 0-147.188-66.119-147.188-147.189v-237.597z"/><path d="m236.668 191.333-.035 50.711c0 43.576-35.539 79.113-79.114 79.113-43.574 0-79.113-35.538-79.113-79.113l.078-50.711h-49.803l.05 50.711c0 70.936 57.853 128.79 128.788 128.79s128.789-57.854 128.789-128.79l-.061-50.711zm-54.62-40.786v-26.227l-19.924 26.227zm-.242 29.369v-11.635h-40.956v-19.11l32.433-43.142h28.58v44.059h6.767v18.193h-6.767v11.635zm55.164-23.508c0 2.506.939 4.364 2.796 5.588 1.864 1.229 4.7 1.85 8.523 1.85 3.833 0 6.659-.608 8.515-1.823 1.847-1.21 2.766-3.082 2.766-5.614 0-2.453-.926-4.302-2.788-5.548-1.86-1.246-4.689-1.876-8.493-1.876-3.824 0-6.659.609-8.523 1.824-1.856 1.209-2.796 3.081-2.796 5.599zm-2.124-20.33c2.496-1.431 5.202-2.533 8.122-3.281 2.918-.747 6.017-1.127 9.298-1.127 10.013 0 17.634 2.108 22.873 6.322 5.246 4.218 7.869 10.363 7.869 18.43 0 8.645-2.75 15.136-8.242 19.493-5.485 4.351-13.634 6.532-24.432 6.532-13.123 0-22.693-3.07-28.69-9.221-5.998-6.151-9.007-16.015-9.007-29.618 0-13.183 2.949-23.008 8.846-29.461 5.897-6.454 14.954-9.681 27.171-9.681 10.556 0 18.617 1.942 24.172 5.838 5.553 3.895 8.713 9.786 9.469 17.681h-22.875c-.312-1.705-1.292-2.972-2.928-3.789-1.644-.821-4.015-1.234-7.135-1.234-4.297 0-7.637 1.066-10.002 3.2-2.372 2.14-3.875 5.442-4.509 9.916zm-191.805 43.838v-47.758c-.946.38-1.885.728-2.818 1.048-.928.32-1.951.625-3.059.878-1.115.257-2.053.453-2.818.591-.753.136-1.53.197-2.315.197v-18.547c3.563-.788 6.571-2.023 9.016-3.713 2.454-1.693 4.439-3.882 5.958-6.584h16.162v73.887h-20.126zm48.647-51.956c0 1.901.816 3.28 2.447 4.119 1.63.837 4.39 1.258 8.284 1.258 3.845 0 6.594-.411 8.255-1.232 1.648-.815 2.486-2.203 2.486-4.145 0-1.89-.815-3.244-2.428-4.08-1.621-.841-4.39-1.259-8.313-1.259-3.866 0-6.621.414-8.266 1.233-1.645.821-2.465 2.191-2.465 4.106zm-.69 28.648c0 2.216.855 3.835 2.583 4.773.903.49 2.078.834 3.487 1.076 1.416.242 3.204.354 5.351.354 4.146 0 7.091-.47 8.818-1.404 1.739-.941 2.603-2.546 2.603-4.8 0-2.126-.868-3.719-2.651-4.723-.896-.504-2.079-.834-3.497-1.076-1.416-.242-3.175-.355-5.273-.355-4.118 0-7.055.468-8.799 1.404-1.75.94-2.622 2.534-2.622 4.751zm-15.849-15.937c-2.03-1.235-3.516-2.966-4.477-5.183-.961-2.215-1.448-5.036-1.448-8.447.001-7.726 2.687-13.491 8.081-17.222 2.646-1.831 6.099-3.2 10.324-4.158 4.225-.957 9.148-1.43 14.791-1.43 11.333 0 19.694 1.867 25.075 5.588 5.389 3.727 8.081 9.458 8.081 17.21 0 3.463-.458 6.257-1.378 8.407-.922 2.151-2.429 3.897-4.498 5.235 2.196 1.469 3.831 3.514 4.896 6.137.526 1.297.936 2.729 1.212 4.29.276 1.546.419 3.279.419 5.194 0 8.749-2.712 15.175-8.119 19.269-5.42 4.102-13.976 6.151-25.688 6.151-5.914 0-10.986-.493-15.208-1.483-4.227-.989-7.718-2.523-10.47-4.617-5.425-4.124-8.119-10.572-8.119-19.32 0-3.686.526-6.835 1.592-9.431 1.06-2.582 2.7-4.657 4.934-6.19zm154.569-45.178-30.193-75.776h29.921l14.463 50.723 15.268-50.723h29.625l-31.436 75.776zm-110.98-23.059 32.087-.052c.248 2.059 1.409 3.632 3.468 4.748 2.072 1.114 4.889 1.666 8.463 1.666 3.609 0 6.284-.459 8.048-1.364 1.751-.905 2.64-2.256 2.64-4.066 0-1.614-.782-2.899-2.321-3.87-1.538-.971-3.917-1.679-7.113-2.125l-19.789-2.715c-8.203-1.102-14.369-3.542-18.523-7.332-4.143-3.792-6.214-8.869-6.214-15.216 0-8.447 3.137-14.613 9.41-18.534 6.273-3.909 16.263-5.864 29.98-5.864 14.239 0 24.832 1.941 31.767 5.836 3.599 2.021 6.345 4.5 8.227 7.438 2 3.109 3.005 6.69 3.005 10.756h-30.796c-.309-2.361-1.587-4.145-3.836-5.378-2.248-1.232-5.42-1.849-9.527-1.849-2.924 0-5.243.458-6.948 1.363-1.716.906-2.568 2.125-2.568 3.661 0 1.402.638 2.491 1.94 3.278 1.196.683 3.93 1.377 8.179 2.099l24.134 3.791c7.585 1.194 13.232 3.633 16.948 7.306 3.717 3.673 5.574 8.618 5.574 14.835 0 9.288-3.739 16.107-11.22 20.45-7.468 4.342-19.222 6.507-35.247 6.507-12.829 0-22.653-2.204-29.495-6.612-6.841-4.408-10.273-10.664-10.273-18.757zm-88.173 0 32.087-.052c.248 2.059 1.407 3.632 3.467 4.748 2.072 1.114 4.889 1.666 8.463 1.666 3.61 0 6.284-.459 8.047-1.364 1.752-.905 2.641-2.256 2.641-4.066 0-1.614-.782-2.899-2.321-3.87s-3.916-1.679-7.113-2.125l-19.79-2.715c-8.203-1.102-14.369-3.542-18.524-7.332-4.142-3.792-6.213-8.869-6.213-15.216 0-8.447 3.137-14.613 9.409-18.534 6.273-3.909 16.263-5.864 29.981-5.864 14.238 0 24.831 1.941 31.767 5.836 3.599 2.021 6.344 4.5 8.227 7.438 1.999 3.109 3.006 6.69 3.006 10.756h-30.795c-.308-2.361-1.586-4.145-3.835-5.378-2.249-1.232-5.42-1.849-9.527-1.849-2.924 0-5.244.458-6.948 1.363-1.717.906-2.569 2.125-2.569 3.661 0 1.402.639 2.491 1.941 3.278 1.197.683 3.929 1.377 8.179 2.099l24.133 3.791c7.587 1.194 13.232 3.633 16.949 7.306 3.718 3.673 5.575 8.618 5.575 14.835 0 9.288-3.74 16.107-11.22 20.45-7.469 4.342-19.221 6.507-35.247 6.507-12.83 0-22.654-2.204-29.495-6.612-6.842-4.408-10.275-10.664-10.275-18.757zm75.166 225.243 15.173-52.243 11.874 32.454 24.741-86.556 24.742 86.556 11.874-32.454 15.172 52.243z" fill="#fff"/></g></svg>