<svg height="1000" viewBox="0 0 1000 1000" width="1000" xmlns="http://www.w3.org/2000/svg" xmlns:xlink="http://www.w3.org/1999/xlink"><clipPath id="a"><path d="m373.865 31.502c0 59.295-48.069 107.365-107.366 107.365-59.296 0-107.364-48.07-107.364-107.365 0-59.298 48.068-107.369 107.364-107.369 59.297 0 107.366 48.071 107.366 107.369" height="100%" width="100%"/></clipPath><clipPath id="b"><path d="m374.5 31.502c0 59.648-48.352 108-108.001 108-59.645 0-107.999-48.352-107.999-108 0-59.649 48.354-108.004 107.999-108.004 59.649 0 108.001 48.355 108.001 108.004" height="100%" width="100%"/></clipPath><g transform="matrix(4.3980667 0 0 4.3980667 -697.09357 336.4609)"><g><path clip-path="url(#a)" d="m198.511-44.596c-14.821 15.761-24.032 38.508-24.032 66.169 0 55.391 45.154 97.096 97.313 97.096 55.75 0 97.311-45.297 97.311-97.096 0-21.902-7.844-41.708-20.391-58.176-19.013-22.929-47.435-37.775-79.346-38.614-26.459 1.076-53.651 12.325-70.855 30.621" fill="#fff"/><g fill="#37a24f"><path clip-path="url(#a)" d="m334.294-38.238c-21.768 0-30.82 6.467-30.82 16.92v71.555c0 3.291-3.727 5.955-8.324 5.955-4.598 0-8.324-2.664-8.324-5.955v-70.153c-21.769 0-30.822 6.464-30.822 16.917v53.236c0 3.291-3.727 5.955-8.324 5.955-4.598 0-8.325-2.664-8.325-5.955v-88.475c-21.768 0-30.82 6.467-30.82 16.92v73.926c0 19.049 15.439 34.486 34.484 34.486 11.781 0 22.176-5.91 28.395-14.926 6.224 9.016 16.618 14.926 28.397 14.926 19.045 0 34.483-15.442 34.483-34.486z"/><path clip-path="url(#a)" d="m348.713-36.604c12.547 16.468 20.391 36.274 20.391 58.176 0 51.799-41.561 97.096-97.311 97.096-52.159 0-97.313-41.705-97.313-97.096 0-27.66 9.211-50.407 24.032-66.169 17.204-18.296 44.396-29.545 70.856-30.622-.949-.024-1.901-.037-2.857-.037-58.95 0-106.739 47.789-106.739 106.741 0 58.951 47.789 106.74 106.739 106.74s106.742-47.789 106.742-106.74c0-25.879-9.213-49.611-24.54-68.089"/></g></g><path clip-path="url(#b)" d="m374.5 31.502c0 59.648-48.352 108-108.001 108-59.645 0-107.999-48.352-107.999-108 0-59.649 48.354-108.004 107.999-108.004 59.649 0 108.001 48.355 108.001 108.004z" fill="none" stroke="#fff" stroke-miterlimit="10" stroke-width="2.54"/></g></svg>