<?xml version="1.0" encoding="utf-8"?>
<!-- Generator: Adobe Illustrator 15.0.0, SVG Export Plug-In . SVG Version: 6.00 Build 0)  -->
<!DOCTYPE svg PUBLIC "-//W3C//DTD SVG 1.1//EN" "http://www.w3.org/Graphics/SVG/1.1/DTD/svg11.dtd">
<svg version="1.1" id="Layer_1" xmlns="http://www.w3.org/2000/svg" xmlns:xlink="http://www.w3.org/1999/xlink" x="0px" y="0px"
	 width="500px" height="704.657px" viewBox="0 0 500 704.657" enable-background="new 0 0 500 704.657" xml:space="preserve">
<path d="M248.77,704.117c-38.384-16.885-100.273-57.601-152.871-112.775l0,0C43.363,536.184,0.04,466.505,0,391.578l0,0V44.884
	l1.812-0.807c4.697-2.036,9.759-7.631,13.632-13.352l0,0c3.907-5.703,6.76-11.453,7.806-13.675l0,0
	c0.299-0.635,0.443-0.96,0.443-0.962l0,0l2.178-4.936l3.115,4.406c0,0,0.094,0.133,0.336,0.454l0,0
	c0.244,0.323,0.618,0.805,1.122,1.425l0,0c1.008,1.244,2.543,3.041,4.605,5.206l0,0c4.126,4.331,10.362,10.135,18.737,15.941l0,0
	C70.55,50.191,95.798,61.805,130.072,61.81l0,0c36.817-0.011,62.889-13.256,80.373-27.333l0,0
	c17.467-14.076,26.239-29.033,27.97-32.196l0,0c0.231-0.421,0.324-0.603,0.324-0.603l0,0L239.585,0h20.828l0.848,1.678
	c0.002,0,0.092,0.181,0.323,0.603l0,0c0.231,0.421,0.586,1.052,1.072,1.862l0,0c0.97,1.624,2.457,3.964,4.491,6.784l0,0
	c4.068,5.638,10.328,13.186,19.03,20.725l0,0c17.425,15.079,44.482,30.145,83.751,30.158l0,0
	c64.176,0.026,97.051-40.923,100.75-45.799l0,0c0.242-0.321,0.335-0.454,0.335-0.454l0,0l3.114-4.406l2.178,4.936
	c0.002,0.002,0.145,0.327,0.444,0.962l0,0c0.3,0.635,0.746,1.559,1.323,2.685l0,0c1.151,2.254,2.824,5.328,4.875,8.554l0,0
	c4.061,6.469,9.855,13.467,15.24,15.788l0,0L500,44.883v346.696c-0.042,74.927-43.367,144.606-95.899,199.764l0,0
	c-52.6,55.174-114.488,95.89-152.872,112.775l0,0l-1.23,0.54L248.77,704.117L248.77,704.117z"/>
<path fill="#FFFFFF" d="M493.886,48.732c-6.707-3.786-12.036-10.863-16.096-17.163c-2.042-3.212-3.712-6.244-4.916-8.573
	c-3.939,4.591-11.622,12.596-23.179,20.609c-17.538,12.165-44.083,24.325-79.767,24.319c-40.881,0.015-69.522-15.826-87.754-31.653
	c-14.823-12.85-22.876-25.666-25.449-30.157h-13.45c-2.572,4.491-10.626,17.306-25.448,30.157
	c-18.235,15.827-46.873,31.668-87.754,31.653C94.386,67.93,67.842,55.77,50.304,43.605c-11.558-8.013-19.24-16.018-23.181-20.608
	c-1.204,2.328-2.874,5.361-4.916,8.573C18.149,37.87,12.82,44.948,6.112,48.733v342.845c-0.021,39.748,12.686,78.317,32.743,114.043
	h422.289c20.057-35.727,32.763-74.295,32.742-114.043V48.732z"/>
<path fill="#519FD7" d="M100.323,587.126C151.688,641.059,212.497,681.23,250,697.978c37.502-16.748,98.31-56.919,149.673-110.852
	c23.473-24.623,44.961-52.101,61.471-81.504H38.855C55.363,535.025,76.851,562.503,100.323,587.126z"/>
<path d="M57.835,338.509c-0.356,1.141-0.467,1.882-0.453,3.08c-1.122-0.416-1.807-0.702-2.921-1.063
	c-0.762-0.247-1.263-0.421-2.017-0.614l-4.645,2.462l0.228-3.464c-4.472-1.356-7.145-2.066-11.675-3.079
	c-3.406-0.766-5.453-1.208-8.88-1.747c-0.389-1.279-0.586-2.03-0.999-3.278c-0.44-1.243-0.719-1.982-1.232-3.158
	c0.66-0.24,1.084-0.388,1.749-0.6c5.234-1.882,7.907-3.933,12.914-6.393c3.428-1.663,5.375-2.795,8.886-4.276
	c1.099-0.473,1.819-0.694,2.914-1.195c0.808-0.374,1.324-0.647,2.096-1.071c0.443,1.271,0.622,2.081,1.175,3.335
	c0.701,1.678,1.267,2.651,2.305,4.167c-1.03,0.379-1.694,0.592-2.693,0.994c-0.894,0.358-1.441,0.609-2.271,1.014
	c0.097,1.742,0.09,2.803,0.273,4.559c0.211,1.947,0.389,3.119,0.769,5.069c1.154,0.438,1.847,0.779,3.027,1.213
	c1.095,0.419,1.776,0.679,2.921,1.062C58.571,336.557,58.179,337.286,57.835,338.509z M47.184,329.502
	c-0.167-1.285-0.251-2.025-0.415-3.282c-1.483,0.698-2.336,1.135-3.82,1.834c-1.853,0.839-2.92,1.335-4.777,2.146
	c1.852,0.443,2.954,0.723,4.852,1.104c1.727,0.352,2.734,0.561,4.475,0.826C47.374,331.119,47.31,330.515,47.184,329.502z"/>
<path d="M27.449,313.173c-0.38-1.344-0.724-2.138-1.378-3.367c-0.683-1.312-1.219-2.074-2.201-3.188
	c1.365-0.739,2.184-1.22,3.523-1.958c2.375-1.362,3.767-2.156,6.143-3.49c3.359-1.846,5.352-2.954,8.685-4.772
	c-2.977-0.034-4.767-0.004-7.769,0.127c-2.368,0.094-3.796,0.393-6.193,0.432c-1.073,0.018-1.735,0-2.811-0.037
	c-0.382-1.509-0.536-2.472-1.056-3.951c-0.377-1.124-0.69-1.808-1.204-2.874c2.508-0.013,3.968-0.01,6.448-0.023
	c3.94-0.037,6.251-0.268,10.167-0.083c3.226,0.14,5.123-0.139,8.351,0.111c1.379,0.087,2.208,0.184,3.561,0.354
	c0.838,0.703,1.368,1.107,2.018,2.034c0.761,1.035,1.436,1.905,2.065,3.273c-1.064,0.651-1.691,1.075-2.726,1.781
	c-1.799,1.214-2.749,2.112-4.575,3.298c-3.163,2.064-5.381,2.955-8.603,4.771c1.875,0.08,3.034,0.143,5.045,0.165
	c2.839,0.009,4.552,0.285,7.368,0.625c0.572,1.285,0.916,2.052,1.461,3.365c0.572,1.286,0.916,2.052,1.46,3.365
	c-1.877-0.272-3.009-0.392-4.887-0.581c-4.471-0.451-8.979,0.257-14.636-0.257c-2.042-0.187-3.258-0.36-5.301-0.657L27.449,313.173z
	"/>
<path d="M41.154,277.344c4.317,0.57,8.82-0.559,10.006-5.132c0.202-0.725,0.124-1.207,0.049-1.938l-3.555-0.446
	c-0.03,0.468-0.048,0.827-0.024,1.302c0.003,0.639,0.092,1.04,0.123,1.682c-0.537-0.151-0.855-0.274-1.389-0.453
	c-0.851-0.301-1.339-0.613-2.194-0.887c-0.988-0.319-1.644-0.401-2.7-0.617c0.199-1.142,0.289-1.852,0.378-3.008
	c0.148-1.621-0.087-2.622,0.116-4.235c0.168-1.34,0.435-2.14,0.71-3.439c0.212-1.028,0.397-1.616,0.61-2.646
	c0.947,0.424,1.528,0.665,2.512,1.011c1.063,0.383,1.732,0.579,2.802,0.907l-0.142,1.788c0.835,0.216,1.371,0.366,2.208,0.555
	c1.644,0.401,2.615,0.634,4.258,1.036c2.152,3.881,2.72,8.425,2.362,11.046c-1.16,8.576-8.106,13.009-16.102,12.088
	c-8.979-1.045-15.446-8.386-14.48-16.958c0.437-3.695,2.518-7.434,4.016-8.746c1.866,0.401,3.015,0.546,4.922,0.618
	c0.967,0.039,1.552,0.029,2.502-0.019c-0.965,1.712-4.69,4.827-5.315,8.693C32.114,273.903,36.784,276.739,41.154,277.344z"/>
<path d="M32.673,245.212c0.057-1.644,0.069-2.613,0.072-4.271c3.617,0.777,4.583,1.417,8.617,2.654
	c10.991,3.372,14.163,5.855,15.561,1.753c1.602-4.732-6.504-7.473-12.125-8.865c-2.917-0.725-4.22-0.772-6.825-1.383
	c-1.023-0.228-1.668-0.378-2.651-0.651c-0.144-1.643-0.238-2.642-0.348-4.302c-0.11-1.661-0.197-2.687-0.246-4.36
	c2.877,0.657,4.543,1.149,7.438,1.64c2.756,0.48,14.572,3.767,18.082,11.207c1.81,3.879,3.131,5.506,1.678,10.938
	c-2.335,8.705-9.92,6.252-16.209,4.589c-3.068-0.796-6.311-2.613-10.431-3.845c-1.115-0.31-1.779-0.495-2.868-0.798
	C32.563,247.871,32.582,246.875,32.673,245.212z"/>
<path d="M40.414,215.867c0.539-2.187,0.334-3.542,0.531-5.834c1.292,0.629,1.817,1.548,5.183,2.851
	c1.189,0.441,2.599,1.295,4.259,2.041c1.235,0.548,1.994,0.877,3.275,1.384l14.527,5.748c-0.335,2.119-0.433,3.414-0.516,5.574
	c-0.062,1.279-0.044,2.056-0.003,3.376c-1.702-0.792-2.721-1.284-4.413-2.102c-3.332-1.614-5.178-2.789-8.536-4.265
	c-3.603-1.604-5.886-2.123-9.454-3.741c-2.188-0.983-3.47-1.639-5.582-2.742C40.031,217.286,40.182,216.753,40.414,215.867z"/>
<path d="M48.924,199.376c0.409-1.277,0.824-1.962,1.209-3.252c0.346-1.216,0.516-1.965,0.715-3.196
	c1.098,0.938,1.756,1.585,2.892,2.511c2.552,2.026,4.204,3.031,6.995,4.715c2.864,1.722,4.792,2.25,7.568,4.081
	c1.088,0.715,1.799,1.081,2.9,1.771c0.884-1.838,1.476-2.928,2.274-4.779c0.924-2.159,1.408-3.459,2.1-5.707
	c0.874,1.131,1.321,1.95,2.257,3.021c0.9,1.021,1.498,1.607,2.522,2.506c-0.33,0.822-0.496,1.325-0.838,2.171
	c-1.207,3.067-1.397,4.642-3.137,7.962c-1.802,3.442-2.44,4.261-4.372,8.255c-1.134-1.048-1.829-1.685-2.963-2.733
	c-0.817-0.761-1.304-1.259-2.121-2.021l0.383-1.105c-2.204-1.319-3.476-2.098-5.691-3.393c-3.685-2.113-5.978-3.138-9.549-5.472
	c-1.529-1.003-2.409-1.642-3.9-2.719C48.425,201.01,48.605,200.359,48.924,199.376z"/>
<path d="M62.54,175.526c0.563-1.217,1.059-1.847,1.599-3.08c0.493-1.165,0.752-1.888,1.101-3.084
	c0.975,1.064,1.549,1.789,2.563,2.846c2.285,2.324,3.802,3.523,6.365,5.536c2.631,2.06,4.481,2.82,7.013,4.978
	c0.993,0.843,1.653,1.293,2.662,2.113c1.102-1.716,1.823-2.726,2.842-4.466c1.182-2.028,1.821-3.261,2.783-5.407
	c0.729,1.23,1.073,2.097,1.871,3.275c0.769,1.124,1.29,1.779,2.196,2.797c-0.428,0.775-0.654,1.255-1.098,2.053
	c-1.573,2.896-1.955,4.437-4.088,7.519c-2.21,3.196-2.943,3.93-5.351,7.659c-0.997-1.18-1.609-1.896-2.606-3.076
	c-0.718-0.855-1.141-1.41-1.858-2.265l0.515-1.05c-2.025-1.58-3.193-2.509-5.233-4.065c-3.399-2.549-5.549-3.847-8.808-6.601
	c-1.395-1.184-2.19-1.925-3.538-3.177C61.844,177.086,62.103,176.461,62.54,175.526z"/>
<path d="M96.467,175.818c-1.106,0.454-1.748,0.841-2.66,1.616c-0.396-1.129-0.612-1.839-1.045-2.927
	c-0.297-0.744-0.481-1.242-0.814-1.945l-4.857-2.005l2.812-2.035c-1.808-4.309-2.967-6.819-5.076-10.954
	c-1.583-3.11-2.548-4.968-4.319-7.951c0.736-1.116,1.189-1.747,1.886-2.86c0.677-1.132,1.067-1.818,1.646-2.964
	c0.606,0.356,0.99,0.588,1.578,0.964c4.788,2.83,8.07,3.58,13.159,5.866c3.467,1.577,5.581,2.355,8.961,4.113
	c1.066,0.545,1.694,0.958,2.777,1.481c0.803,0.384,1.343,0.606,2.162,0.93c-0.695,1.153-1.205,1.807-1.817,3.032
	c-0.846,1.61-1.234,2.667-1.738,4.434c-0.949-0.552-1.537-0.928-2.483-1.44c-0.846-0.459-1.388-0.721-2.23-1.103
	c-1.279,1.186-2.099,1.858-3.335,3.119c-1.364,1.405-2.153,2.29-3.412,3.825c0.398,1.168,0.578,1.919,0.997,3.106
	c0.375,1.111,0.611,1.799,1.045,2.926C98.439,175.139,97.628,175.302,96.467,175.818z M96.607,161.873
	c0.883-0.949,1.398-1.486,2.263-2.413c-1.484-0.696-2.365-1.075-3.849-1.771c-1.827-0.891-2.891-1.396-4.699-2.308
	c0.839,1.708,1.327,2.735,2.245,4.439c0.831,1.553,1.312,2.462,2.218,3.972C95.484,163.049,95.907,162.616,96.607,161.873z"/>
<path d="M110.32,121.793c1.224-1.306,1.908-2.136,3.01-3.557l0.836,0.922c0.571-0.57,0.917-0.936,1.464-1.489
	c1.317-1.274,2.129-2.027,3.534-3.229c1.406-1.202,2.229-1.896,3.723-3.026c0.315,1.42,0.512,2.274,0.865,3.7
	c0.398,1.53,0.64,2.488,1.094,4.045c-0.66,0.499-1.038,0.821-1.697,1.32c-1.043,0.859-1.619,1.468-2.701,2.322
	c-0.989,0.748-1.603,1.215-2.625,1.918l3.213,4.929c1.28-1.003,2.054-1.624,3.316-2.65c1.378-1.147,2.163-1.845,3.541-2.992
	c0.445-0.372,0.713-0.61,1.136-0.964c0.309,1.321,0.594,2.107,1.19,3.351c0.45,0.869,0.745,1.441,1.343,2.231
	c-0.612,1.017-2.236,2.524-3.834,3.837c-1.18,0.998-1.943,1.541-3.257,2.362l4.93,8.883l-4.514,5.769
	c-1.054-1.483-1.779-2.351-2.664-3.928c-1.117-2.022-1.971-3.104-3.132-5.094l-3.078-0.779c-0.448-1.458-0.618-2.367-0.763-3.882
	c-0.07-0.777-0.072-1.328-0.06-2.133c-1.944-2.156-3.129-3.402-5.189-5.437c-1.157-1.163-1.888-1.854-3.105-3.005
	C108.269,123.969,109.048,123.171,110.32,121.793z"/>
<path d="M134.126,107.588c1.486-2.03,3.677-4.265,6.68-6.008c8.808-5.082,15.661-0.675,19.681,6.233
	c4.154,7.148,2.192,16.737-4.988,20.72c-8.372,4.618-15.864,1.325-19.885-5.582c-2.813-4.804-2.276-11.071-0.296-14.419
	L134.126,107.588z M152.805,123.379c3.818-2.261,2.505-6.925,0.209-11.482c-1.372-2.737-2.875-4.801-5.235-5.976
	c-2.398-1.184-5.961,1.534-6.65,1.825c-1.194,3.793,0.06,7.449,1.433,10.185C144.561,121.958,148.952,125.69,152.805,123.379z"/>
<path d="M165.283,91.804c1.785-1.773,4.301-3.638,7.541-4.889c9.499-3.64,15.577,1.79,18.465,9.244
	c2.984,7.713-0.458,16.879-8.177,19.689c-8.996,3.249-15.881-1.179-18.77-8.633c-2.025-5.187-0.512-11.295,1.968-14.292
	L165.283,91.804z M181.26,110.333c4.127-1.635,3.56-6.449,2.007-11.311c-0.926-2.919-2.086-5.195-4.234-6.725
	c-2.184-1.546-6.13,0.581-6.858,0.76c-1.773,3.56-1.107,7.368-0.181,10.286C173.338,107.638,177.091,112.013,181.26,110.333z"/>
<path d="M208.654,83.395c0.563,3.204,0.8,5.125,1.256,8.351c0.658,4.986,0.97,7.933,1.386,12.97
	c-1.429,0.836-2.271,1.38-3.655,2.292c-1.24,0.797-1.969,1.345-3.171,2.19c-0.215-2.489-0.361-3.979-0.685-6.445
	c-0.476-3.588-0.859-5.675-1.524-9.224c-0.607-3.139-1.047-4.96-1.707-8.088c-1.645,0.347-2.583,0.573-4.171,1.049
	c-1.568,0.444-2.472,0.832-4.022,1.356c0.18-1.417,0.3-2.316,0.479-3.734c0.143-1.325,0.226-2.132,0.369-3.457
	c2.594-1.448,4.278-2.142,7.167-2.864c3.206-0.817,5.342-0.17,8.581-0.966c2.7-0.683,4.177-1.557,6.814-2.537
	c-0.4,1.436-0.607,2.324-0.802,3.802c-0.238,1.543-0.325,2.462-0.33,4.04L208.654,83.395z"/>
<path d="M222.719,79.359c0.404-1.353,0.652-2.171,0.917-3.542c2.895-1.275,7.135-3.47,12.165-3.815
	c5.331-0.393,12.148,2.785,12.134,6.625c0.007,2.927-1.862,5.07-4.629,6.198c3.549,0.613,5.735,3.501,6.021,6.878
	c0.637,7.302-7.343,12.543-14.035,12.807c-3.499,0.129-5.756,0.229-9.024-1.122c0.041-5.47,0.012-8.699-0.14-14.157
	c-0.08-3.17-0.152-5.042-0.312-8.181c-0.83,0.388-1.334,0.672-2.164,1.06c-0.882,0.419-1.417,0.677-2.329,1.071
	C221.942,81.731,222.269,80.853,222.719,79.359z M234.245,90.417c0.487-0.945,0.806-1.546,1.238-2.487
	c0.435-0.913,0.672-1.482,1.079-2.394c2.267,0.038,3.993-2.593,3.84-4.405c-0.157-1.895-1.827-2.885-3.7-3.226
	c-1.204-0.249-1.968,0.3-3.199,0.468c-0.07,3.014-0.087,4.783-0.047,7.79c0.082,4.827,0.221,7.662,0.605,12.469
	c2.458-0.003,7.707-1.577,7.557-4.577C241.502,91.135,237.01,90.476,234.245,90.417z"/>
<path d="M253.987,101.895c-1.035-0.603-1.731-0.876-2.901-1.128c0.654-1.002,1.085-1.605,1.688-2.611
	c0.41-0.688,0.691-1.136,1.048-1.829l-1.363-5.076l3.325,0.995c2.32-4.056,3.61-6.503,5.607-10.692
	c1.507-3.149,2.394-5.045,3.687-8.266c1.333-0.094,2.109-0.119,3.419-0.242c1.308-0.151,2.091-0.259,3.352-0.496
	c0.086,0.697,0.136,1.143,0.195,1.838c0.664,5.522,2.067,8.584,3.347,14.014c0.856,3.712,1.523,5.863,2.185,9.616
	c0.215,1.176,0.27,1.927,0.513,3.106c0.185,0.871,0.336,1.434,0.577,2.281c-1.34,0.149-2.167,0.142-3.512,0.401
	c-1.793,0.309-2.868,0.643-4.576,1.317c-0.14-1.088-0.2-1.784-0.369-2.847c-0.149-0.951-0.271-1.54-0.481-2.441
	c-1.72-0.294-2.75-0.537-4.503-0.751c-1.946-0.228-3.128-0.316-5.112-0.382c-0.685,1.027-1.172,1.627-1.859,2.681
	c-0.653,0.974-1.059,1.579-1.688,2.61C255.724,103.047,255.102,102.503,253.987,101.895z M265.143,93.524
	c1.289,0.124,2.029,0.206,3.292,0.328c-0.35-1.601-0.585-2.531-0.935-4.132c-0.405-1.993-0.652-3.144-1.027-5.135
	c-0.846,1.706-1.363,2.717-2.159,4.483c-0.726,1.604-1.156,2.539-1.803,4.177C263.525,93.348,264.125,93.421,265.143,93.524z"/>
<path d="M292.076,78.126c1.339,0.054,2.109,0.271,3.454,0.299c1.266,0.01,2.034-0.027,3.272-0.162
	c-0.612,1.308-1.062,2.115-1.65,3.455c-1.273,3-1.803,4.86-2.682,7.997c-0.896,3.219-0.892,5.218-1.918,8.382
	c-0.397,1.24-0.562,2.022-0.934,3.267c2.006,0.362,3.214,0.643,5.212,0.918c2.326,0.317,3.709,0.437,6.06,0.505
	c-0.858,1.143-1.528,1.792-2.311,2.98c-0.744,1.139-1.15,1.871-1.745,3.098c-0.879-0.099-1.409-0.125-2.316-0.23
	c-3.278-0.346-4.846-0.111-8.509-0.903c-3.797-0.821-4.756-1.218-9.122-2.016c0.709-1.372,1.139-2.212,1.847-3.583
	c0.516-0.99,0.868-1.593,1.384-2.583l1.166,0.075c0.687-2.474,1.097-3.909,1.755-6.389c1.057-4.114,1.432-6.597,2.732-10.661
	c0.559-1.741,0.941-2.759,1.582-4.483C290.368,78.079,291.043,78.079,292.076,78.126z"/>
<path d="M318.704,84.917c1.323,0.219,2.061,0.53,3.392,0.722c1.255,0.167,2.021,0.224,3.266,0.242
	c-0.766,1.223-1.311,1.968-2.061,3.226c-1.634,2.82-2.388,4.601-3.647,7.605c-1.287,3.083-1.528,5.068-2.937,8.081
	c-0.548,1.18-0.807,1.937-1.331,3.126c1.949,0.607,3.112,1.034,5.062,1.554c2.267,0.601,3.625,0.889,5.949,1.247
	c-0.992,1.03-1.736,1.59-2.66,2.672c-0.879,1.039-1.372,1.715-2.113,2.86c-0.859-0.207-1.383-0.298-2.269-0.514
	c-3.209-0.747-4.796-0.707-8.334-1.944c-3.664-1.282-4.569-1.794-8.801-3.124c0.872-1.274,1.4-2.055,2.272-3.329
	c0.635-0.919,1.057-1.473,1.692-2.392l1.148,0.218c0.985-2.371,1.569-3.743,2.529-6.123c1.554-3.953,2.235-6.37,4.024-10.242
	c0.77-1.659,1.273-2.622,2.123-4.253C317.016,84.66,317.686,84.744,318.704,84.917z"/>
<path d="M338.497,122.88c-0.668-0.991-1.178-1.54-2.12-2.277c1.025-0.618,1.675-0.973,2.652-1.618
	c0.668-0.441,1.118-0.723,1.74-1.191l0.979-5.164l2.563,2.34c3.853-2.644,6.075-4.288,9.695-7.194
	c2.727-2.182,4.349-3.503,6.912-5.843c1.241,0.496,1.95,0.81,3.182,1.267c1.247,0.434,1.998,0.676,3.238,1.01
	c-0.227,0.666-0.377,1.089-0.625,1.74c-1.799,5.263-1.866,8.63-3.072,14.077c-0.842,3.715-1.174,5.943-2.211,9.61
	c-0.316,1.153-0.592,1.853-0.885,3.021c-0.212,0.863-0.322,1.438-0.473,2.305c-1.271-0.447-2.012-0.813-3.337-1.166
	c-1.747-0.5-2.862-0.666-4.694-0.802c0.348-1.041,0.597-1.692,0.905-2.723c0.279-0.922,0.426-1.506,0.627-2.407
	c-1.418-1.011-2.244-1.679-3.729-2.633c-1.654-1.051-2.681-1.644-4.44-2.565c-1.063,0.627-1.76,0.956-2.837,1.607
	c-1.01,0.593-1.639,0.963-2.654,1.618C339.562,124.674,339.238,123.913,338.497,122.88z M352.182,120.188
	c1.106,0.672,1.737,1.068,2.822,1.726c0.38-1.594,0.572-2.534,0.953-4.128c0.502-1.97,0.78-3.114,1.307-5.071
	c-1.504,1.169-2.41,1.855-3.892,3.099c-1.353,1.128-2.145,1.785-3.441,2.978C350.801,119.326,351.313,119.653,352.182,120.188z"/>
<path d="M380.927,125.008c-1.534,1.292-1.268,3.537-0.596,5.569l1.203,3.612c0.862,2.558,1.45,4.424-0.338,7.01
	c-3.647,5.26-11.307,3.908-16.555,0.201c-2.091-1.484-3.308-3.029-4.187-5.151c0.965-0.997,1.553-1.589,2.412-2.632
	c1.122-1.294,1.761-2.227,2.766-3.505c0.434,1.16,0.551,4.744,2.987,6.731c1.192,0.938,3.297,1.673,3.966,0.519
	c1.058-1.757,0.425-3.067-0.188-4.813l-0.991-2.933c-0.755-2.198-0.671-4.039,0.597-5.983c3.654-5.634,11.173-6.466,16.221-2.634
	c2.305,1.75,3.194,4.225,3.584,6.354c-0.76,0.773-1.204,1.267-1.896,2.089c-1.128,1.394-1.773,2.288-2.719,3.854
	c-0.586-2.417-0.829-6.063-3.227-8.056C383.08,124.497,381.828,124.275,380.927,125.008z"/>
<path d="M399.426,140.716c-1.668,1.113-1.652,3.374-1.21,5.468l0.794,3.723c0.573,2.636,0.951,4.557-1.115,6.928
	c-4.209,4.821-11.669,2.627-16.473-1.639c-1.913-1.707-2.948-3.377-3.588-5.583c1.071-0.884,1.719-1.407,2.69-2.347
	c1.257-1.162,1.997-2.018,3.138-3.177c0.303,1.201,0.021,4.774,2.219,7.02c1.081,1.065,3.093,2.029,3.884,0.957
	c1.246-1.629,0.765-3.001,0.349-4.804l-0.659-3.024c-0.505-2.268-0.219-4.088,1.257-5.879c4.256-5.193,11.82-5.185,16.411-0.815
	c2.096,1.995,2.706,4.553,2.856,6.713c-0.84,0.684-1.337,1.125-2.117,1.865c-1.276,1.26-2.015,2.077-3.128,3.528
	c-0.315-2.468-0.152-6.117-2.313-8.364C401.622,140.447,400.404,140.087,399.426,140.716z"/>
<path d="M418.622,152.215c2.249,1.128,4.816,2.917,7.035,5.59c6.475,7.842,3.266,15.333-2.879,20.444
	c-6.36,5.284-16.143,4.941-21.263-1.478c-5.945-7.491-3.942-15.426,2.203-20.537c4.271-3.572,10.541-4.083,14.17-2.688
	L418.622,152.215z M406.151,173.259c2.863,3.39,7.245,1.32,11.358-1.701c2.472-1.808,4.259-3.632,5.022-6.155
	c0.771-2.563-2.501-5.625-2.903-6.257c-3.939-0.547-7.335,1.297-9.806,3.105C406.183,164.892,403.232,169.843,406.151,173.259z"/>
<path d="M429.33,189.458c-3.988,2.353-6.334,6.298-3.459,11.387c1.582,2.843,2.987,3.87,4.245,5.08
	c-1.435,0.334-2.282,0.579-3.685,1.022c-1.184,0.379-1.895,0.638-3.037,1.088c-1.551-1.164-3.179-3.597-4.767-6.18
	c-3.966-6.397-1.509-15.465,5.155-19.685c7.372-4.701,17.566-2.396,22.123,5.221c1.285,2.123,2.066,3.391,2.701,5.768
	c-1.259,0.743-2.004,1.214-3.154,2.085c-1.28,0.979-2.012,1.635-3.155,2.79c-0.114-2.365-0.276-4.157-1.514-6.308
	C438.659,188.02,433.225,187.162,429.33,189.458z"/>
<path d="M454.439,203.796c1.208,1.901,2.328,2.691,3.848,4.419c-1.347,0.498-2.374,0.242-5.644,1.774
	c-1.142,0.554-2.733,0.982-4.42,1.666c-1.25,0.514-2.015,0.833-3.266,1.409l-14.201,6.523c-1.3-1.708-2.169-2.674-3.672-4.228
	c-0.881-0.93-1.457-1.454-2.438-2.337c1.75-0.682,2.81-1.079,4.571-1.736c3.47-1.292,5.598-1.813,8.985-3.217
	c3.651-1.496,5.605-2.787,9.243-4.245c2.225-0.901,3.584-1.375,5.84-2.138C453.679,202.537,453.959,203.015,454.439,203.796z"/>
<path d="M432.426,225.488c0.153-1.186,0.136-1.936-0.085-3.111c1.178,0.215,1.902,0.379,3.06,0.542
	c0.794,0.111,1.318,0.198,2.093,0.257l4.151-3.224l0.375,3.451c4.638,0.566,7.392,0.805,12.032,1.021
	c3.485,0.168,5.577,0.251,9.048,0.192c0.603,1.192,0.928,1.898,1.548,3.057c0.646,1.149,1.05,1.828,1.759,2.899
	c-0.61,0.35-1.003,0.568-1.62,0.892c-4.834,2.755-7.112,5.236-11.622,8.522c-3.09,2.229-4.813,3.679-8.017,5.742
	c-1.001,0.656-1.672,0.997-2.663,1.679c-0.732,0.507-1.194,0.865-1.881,1.416c-0.657-1.176-0.97-1.942-1.732-3.083
	c-0.98-1.532-1.704-2.394-2.987-3.708c0.949-0.551,1.566-0.875,2.481-1.443c0.818-0.507,1.313-0.848,2.062-1.39
	c-0.396-1.699-0.572-2.745-1.056-4.444c-0.543-1.881-0.921-3.005-1.629-4.861c-1.212-0.232-1.955-0.449-3.193-0.673
	c-1.151-0.224-1.866-0.362-3.06-0.543C432.038,227.537,432.297,226.752,432.426,225.488z M444.469,232.525
	c0.386,1.238,0.597,1.952,0.973,3.163c1.341-0.944,2.107-1.521,3.447-2.464c1.682-1.146,2.647-1.819,4.335-2.938
	c-1.9-0.118-3.035-0.203-4.969-0.252c-1.76-0.048-2.789-0.082-4.551-0.043C444.004,230.966,444.171,231.549,444.469,232.525z"/>
<path d="M464.971,257.905c-3.207,0.547-5.13,0.773-8.36,1.212c-4.988,0.632-7.938,0.93-12.976,1.318
	c-0.83-1.433-1.369-2.278-2.275-3.667c-0.79-1.244-1.332-1.976-2.172-3.182c2.489-0.203,3.982-0.34,6.45-0.65
	c3.589-0.457,5.679-0.831,9.23-1.477c3.143-0.59,4.968-1.021,8.097-1.665c-0.338-1.647-0.559-2.585-1.029-4.177
	c-0.434-1.57-0.818-2.476-1.333-4.03c1.417,0.188,2.315,0.313,3.731,0.499c1.324,0.15,2.13,0.238,3.455,0.387
	c1.435,2.603,2.119,4.29,2.827,7.183c0.8,3.211,0.143,5.343,0.922,8.586c0.668,2.704,1.537,4.186,2.502,6.828
	c-1.436-0.409-2.323-0.62-3.799-0.823c-1.541-0.246-2.459-0.338-4.038-0.351L464.971,257.905z"/>
<path d="M473.903,274.626c0.526,2.19,1.333,3.3,2.212,5.427c-1.437,0.035-2.327-0.54-5.916-0.148
	c-1.258,0.155-2.903,0.046-4.722,0.147c-1.35,0.081-2.175,0.137-3.546,0.276l-15.549,1.578c-0.678-2.037-1.188-3.232-2.106-5.189
	c-0.535-1.165-0.909-1.848-1.552-3c1.877-0.08,3.009-0.112,4.887-0.165c3.704-0.098,5.885,0.096,9.546-0.137
	c3.938-0.233,6.205-0.824,10.118-1.027c2.396-0.132,3.837-0.14,6.221-0.132C473.591,273.189,473.701,273.732,473.903,274.626z"/>
<path d="M472.963,292.638c1.012,2.303,1.843,5.32,1.841,8.792c-0.028,10.168-7.282,13.88-15.273,13.886
	c-8.266,0.003-15.573-6.51-15.41-14.718c0.211-9.559,6.822-14.383,14.812-14.39c5.567-0.019,10.715,3.593,12.617,6.985
	L472.963,292.638z M449.932,300.858c0.035,4.437,4.727,5.644,9.821,5.947c3.056,0.188,5.594-0.073,7.796-1.525
	c2.229-1.479,1.667-5.925,1.763-6.667c-2.681-2.937-6.472-3.688-9.525-3.876C455.299,294.443,449.866,296.365,449.932,300.858z"/>
<path d="M471.841,321.546c0.145,1.389,0.348,2.229,0.784,3.552c0.45,1.409,0.847,2.251,1.628,3.516
	c-1.473,0.496-2.36,0.831-3.806,1.331c-2.573,0.937-4.079,1.483-6.646,2.393c-3.627,1.248-5.779,2-9.371,3.224
	c2.927,0.541,4.696,0.816,7.678,1.197c2.348,0.311,3.807,0.259,6.175,0.628c1.063,0.166,1.71,0.295,2.764,0.515
	c0.122,1.553,0.107,2.526,0.37,4.073c0.18,1.171,0.372,1.898,0.696,3.037c-2.473-0.414-3.91-0.666-6.357-1.075
	c-3.888-0.634-6.204-0.8-10.031-1.647c-3.156-0.687-5.072-0.735-8.21-1.531c-1.343-0.321-2.144-0.558-3.447-0.956
	c-0.707-0.835-1.16-1.324-1.641-2.347c-0.575-1.15-1.093-2.122-1.479-3.577c1.16-0.46,1.848-0.771,2.988-1.291
	c1.98-0.89,3.069-1.613,5.071-2.472c3.467-1.495,5.804-1.995,9.286-3.236c-1.832-0.397-2.963-0.658-4.942-1.022
	c-2.794-0.492-4.436-1.054-7.155-1.868c-0.344-1.365-0.551-2.177-0.866-3.564c-0.344-1.364-0.553-2.178-0.864-3.565
	c1.802,0.588,2.898,0.898,4.716,1.404c4.327,1.205,8.89,1.275,14.377,2.744c1.982,0.531,3.15,0.909,5.112,1.549L471.841,321.546z"/>
<circle cx="257.131" cy="327.344" r="97.934"/>
<path fill="#FFFFFF" d="M350.175,339.735l-12.773-12.774c-0.13-27.256-6.787-39.214-8.81-42.208l2.276-15.484
	c12.603,15.979,20.12,36.14,20.12,58.076C350.988,331.546,350.707,335.681,350.175,339.735z"/>
<path fill="#FFFFFF" d="M289.368,395.222l-28.243-10.052l-2.326-26.047l28.184-19.584l25.699,10.28l-0.479,31.979
	C310.27,383.942,302.05,392.191,289.368,395.222z"/>
<path fill="#FFFFFF" d="M230.675,399.136c-0.589-0.303-1.445-0.752-2.514-1.339c-6.269-3.407-19.627-11.518-26.535-20.537
	l-0.953-30.485l25.588-9.77l28.453,22.182l2.349,26.284L230.675,399.136z"/>
<path fill="#FFFFFF" d="M193.461,288.831c0.601-0.71,1.091-1.232,1.424-1.568c0.059-0.061,0.108-0.108,0.156-0.157l29.583-8.112
	l12.475,21.258l-12.083,32.867l-25.835,9.863l-18.347-20.7c1.092-12.222,4.706-21.068,8.061-26.881
	C190.611,292.429,192.257,290.252,193.461,288.831z"/>
<path fill="#FFFFFF" d="M242.657,250.982c5.374-0.792,9.987-1.109,13.901-1.109c7.613,0,12.611,1.175,15.658,2.295
	c1.524,0.56,2.563,1.106,3.196,1.492c0.31,0.188,0.523,0.338,0.648,0.431l16.292,22.521l-16.326,22.392l-35.495-0.959
	l-12.585-21.439L242.657,250.982z"/>
<path fill="#FFFFFF" d="M325.224,287.054c1.559,2.313,7.959,13.386,8.101,39.922l-19.078,19.079l-25.82-10.329l-9.166-34.243
	l16.427-22.529L325.224,287.054z"/>
<path fill="#FFFFFF" d="M292.156,240.244l-14.589,9.955c-2.552-1.558-8.906-4.414-21.008-4.402c-4.211,0.001-9.128,0.348-14.823,1.2
	l-15.817-8.19c9.765-3.442,20.267-5.321,31.213-5.321C269.516,233.485,281.335,235.888,292.156,240.244z"/>
<path fill="#FFFFFF" d="M186.703,265.307l5.035,19.345c-3.092,3.221-13.031,15.203-14.976,37.401l-13.159,13.16
	c-0.216-2.595-0.332-5.217-0.332-7.868C163.272,303.554,172.12,281.852,186.703,265.307z"/>
<path fill="#FFFFFF" d="M179.025,379.402L198.592,380c9.41,11.952,27.298,21.263,30.649,22.973l10,16.521
	c-18.744-3.617-35.498-12.802-48.479-25.781C186.397,389.347,182.464,384.552,179.025,379.402z"/>
<path fill="#FFFFFF" d="M323.499,393.713c-10.512,10.51-23.502,18.535-38.017,23.129l5.396-17.788
	c13.747-3.499,22.322-12.275,24.423-14.61l19.027-3.713C331.109,385.379,327.486,389.726,323.499,393.713z"/>
<path d="M297.909,123.809c-3.82,0-11.758,4.769-13.164,5.708c-3.667,2.452-6.502,5.37-9.244,8.192
	c-3.283,3.379-6.382,6.57-10.941,9.201c-5.203,3.003-11.359,3.659-19.154,4.488c-12.486,1.329-29.587,3.149-52.67,16.475
	c-6.834,3.946-13.284,8.549-18.653,13.311c-0.293,0.26-0.535,0.575-0.711,0.926c-0.965,1.932-3.516,4.483-6.823,6.826
	c-0.219,0.155-0.416,0.337-0.586,0.543c-6.549,7.87-9.452,15.353-8.464,21.754c-1.547,1.992-3.208,3.505-4.699,4.863
	c-2.998,2.732-6.729,6.132-3.75,11.293c0.983,1.702,2.635,2.639,4.654,2.639c2.644,0,5.723-1.558,10.824-4.14
	c4.346-2.199,9.754-4.936,16.853-7.712c2.424-0.948,5.001-1.471,7.986-2.078c4.559-0.926,9.691-1.968,15.922-4.836
	c1.097,0.437,2.593,1.159,4.153,1.914c6.006,2.902,15.082,7.288,24.622,7.288c6.389,0,12.116-1.973,17.025-5.866
	c1.025-0.813,1.424-2.185,0.995-3.421c-0.286-0.828-0.903-1.475-1.674-1.812c3.257-0.269,7.949-0.456,14.698-0.456
	c2.44,0,4.865,0.02,7.167,0.039l0.386,0.003c2.178,0.019,4.24,0.036,6.094,0.036c2.7,0,4.609-0.039,6.006-0.123
	c3.389-0.201,6.088-0.295,8.491-0.295c6.126,0,10.873,0.62,15.391,2.01c10.89,3.345,21.756,11.755,30.954,19.54
	c1.697,1.437,3.651,2.873,5.541,4.26c4.069,2.988,8.277,6.078,10.102,9.239c0.549,0.952,0.162,4.202-0.121,6.575
	c-0.625,5.244-1.403,11.77,2.662,16.192c0.583,0.637,1.406,0.977,2.255,0.977c0.195,0,0.389-0.019,0.583-0.054
	c1.043-0.193,1.921-0.931,2.31-1.918c0.006-0.015,0.433-1.069,1.616-2.433c4.272,3.153,8.178,3.629,11.514,3.629
	c0.802,0,1.582-0.027,2.334-0.053c0.734-0.025,1.423-0.05,2.108-0.05c3.109,0,6.236,0.383,10.302,5.011
	c0.604,0.688,1.454,1.047,2.315,1.047c0.581,0,1.167-0.164,1.685-0.502c1.283-0.84,1.753-2.496,1.102-3.885
	c-8.036-17.127-16.481-21.836-21.018-24.366c-0.813-0.453-1.818-1.013-2.099-1.296c-0.251-0.525-0.373-2.14-0.482-3.571
	c-0.382-5.021-1.019-13.426-7.94-25.415c-15.473-26.798-39.455-42.412-55.326-52.743c-6.863-4.468-12.792-8.327-14.225-10.811
	c-3.328-5.766,1.609-13.055,4.557-17.409c1.943-2.87,3.227-4.765,2.007-6.882C301.053,125.104,300.071,123.809,297.909,123.809
	L297.909,123.809z"/>
<path fill="#F47929" d="M297.909,126.889c0.395,0,0.675,0.097,0.8,0.313c0.917,1.59-12.536,13.941-6.562,24.293
	c5.464,9.464,47.011,24.514,69.55,63.553c9.562,16.562,6.468,25.601,8.45,29.034c1.877,3.252,12.562,3.198,22.969,25.383
	c-4.682-5.33-8.682-6.058-12.615-6.058c-0.739,0-1.476,0.025-2.215,0.051c-0.739,0.025-1.48,0.051-2.228,0.051
	c-3.596,0-7.328-0.598-11.65-4.679c-3.368,2.733-4.36,5.474-4.36,5.474c-5.326-5.797,0.406-17.811-2.142-22.225
	c-3.092-5.355-11.027-9.826-16.32-14.308c-11.11-9.407-21.544-16.91-32.037-20.133c-5.23-1.609-10.473-2.146-16.297-2.146
	c-2.742,0-5.614,0.119-8.673,0.301c-1.491,0.089-3.493,0.117-5.824,0.117c-1.955,0-4.144-0.02-6.454-0.04
	c-2.311-0.019-4.744-0.039-7.194-0.039c-12.998,0-26.424,0.551-24.099,4.578c1.018,1.765,8.167,1.778,8.167,1.778
	c-4.813,3.816-10.006,5.2-15.112,5.2c-12.441,0-24.358-8.214-28.966-9.439c-10.581,5.146-18.067,4.714-24.839,7.361
	c-14.839,5.802-22.829,11.64-26.555,11.64c-0.897,0-1.548-0.339-1.987-1.099c-2.797-4.845,3.909-6.468,9.069-13.892
	c-1.561-6.068,1.553-13.311,7.542-20.509c3.802-2.693,6.607-5.58,7.798-7.961c5.246-4.653,11.465-9.088,18.149-12.947
	c36.817-21.256,56.978-12.392,71.824-20.963c8.969-5.177,12.814-12.457,20.357-17.5C289.19,130.25,295.575,126.889,297.909,126.889"
	/>
<circle cx="174.393" cy="204.28" r="2.547"/>
<path d="M174.222,197.148c0,0,5.858,0,11.208-5.349C188.869,195.237,178.298,202.751,174.222,197.148z"/>
<path d="M135.449,236.396c-0.98,0-1.936,0.468-2.528,1.319c-10.816,15.522-10.671,25.19-10.593,30.385
	c0.014,0.93,0.032,2.08-0.074,2.465c-0.329,0.481-1.666,1.395-2.851,2.204c-4.158,2.841-11.118,7.596-18.039,19.584
	c-15.472,26.797-17.001,55.374-18.013,74.283c-0.438,8.177-0.816,15.241-2.25,17.724c-1.966,3.404-5.888,4.991-12.342,4.991
	c-1.532,0-2.996-0.088-4.35-0.184l-0.666-0.046c-1.122-0.082-2.091-0.151-2.894-0.151c-0.819,0-2.993,0-4.065,1.853
	c-0.508,0.881-0.616,1.925-0.308,2.942c1.265,4.163,11.853,9.482,11.96,9.534c3.957,1.95,7.901,2.946,11.715,3.909
	c4.567,1.154,8.881,2.243,13.44,4.875c5.201,3.003,8.848,8.008,13.464,14.345c7.394,10.148,17.52,24.048,40.603,37.375
	c6.836,3.947,14.048,7.232,20.854,9.5c0.314,0.104,0.643,0.158,0.973,0.158c0.062,0,0.123-0.002,0.185-0.005
	c0.126-0.008,0.257-0.012,0.391-0.012c2.21,0,5.465,0.915,8.933,2.507c0.243,0.113,0.5,0.192,0.764,0.237
	c2.968,0.512,5.787,0.77,8.376,0.77c6.208,0,11.143-1.45,14.698-4.316c2.498,0.344,4.638,1.025,6.558,1.638
	c2.072,0.659,3.862,1.229,5.64,1.229c2.601,0,4.625-1.221,6.016-3.629c0.806-1.397,1.652-4.218-1.742-7.42
	c-1.609-1.519-3.996-3.077-7.298-5.234c-4.077-2.665-9.152-5.98-15.104-10.739c-2.034-1.625-3.776-3.596-5.793-5.878
	c-3.082-3.485-6.55-7.408-12.149-11.37c-0.171-1.17-0.293-2.826-0.419-4.553c-0.769-10.449-2.199-29.896-19.591-36.779
	c-0.368-0.145-0.751-0.215-1.131-0.215c-0.876,0-1.732,0.375-2.33,1.064c-0.573,0.663-0.824,1.52-0.732,2.354
	c-0.603-0.862-1.273-1.86-2.019-3.017c-3.13-4.854-6.496-10.801-9.467-16.048c-2.463-4.353-4.592-8.112-6.121-10.432
	c-5.225-7.921-8.796-14.286-10.458-21.539c-2.547-11.104-0.699-24.721,1.445-36.577c0.397-2.188,0.663-4.598,0.919-6.928
	c0.553-5.018,1.125-10.207,2.95-13.367c0.55-0.953,3.559-2.242,5.755-3.184c4.854-2.081,10.895-4.67,12.692-10.402
	c0.318-1.011,0.069-2.112-0.62-2.919c-0.589-0.689-1.462-1.075-2.359-1.075c-0.152,0-0.304,0.011-0.457,0.033
	c-0.002,0-0.276,0.04-0.757,0.04c-0.547,0-1.279-0.048-2.158-0.219c0.731-6.488-1.77-10.492-3.83-13.789
	c-2.313-3.701-4.139-6.625-1.905-13.222c0.492-1.453-0.16-3.046-1.529-3.738C136.392,236.503,135.918,236.396,135.449,236.396
	L135.449,236.396z"/>
<path fill="#F47929" d="M135.447,239.476c-5.194,15.337,8.602,15.612,5.143,30.178c2.44,0.934,4.453,1.119,5.666,1.119
	c0.801,0,1.255-0.08,1.255-0.08c-2.356,7.511-15.628,8.554-18.176,12.967c-3.092,5.356-2.996,14.463-4.232,21.288
	c-2.591,14.326-3.873,27.112-1.417,37.813c1.797,7.847,5.616,14.556,10.888,22.547c5.343,8.102,19.288,36.254,24.525,36.254
	c0.506,0,0.93-0.263,1.258-0.83c1.02-1.764-2.544-7.962-2.544-7.962c19.63,7.768,16.614,33.802,18.367,40.292
	c9.747,6.59,13.116,13.29,18.795,17.83c15.442,12.348,25.66,15.533,23.4,19.449c-0.892,1.545-1.983,2.088-3.349,2.088
	c-2.916,0-7.081-2.482-13.216-2.998c-3.136,3.074-7.92,4.449-13.679,4.449c-2.458,0-5.093-0.252-7.854-0.726
	c-3.938-1.81-7.588-2.789-10.219-2.789c-0.197,0-0.389,0.006-0.575,0.017c-6.652-2.216-13.602-5.386-20.287-9.244
	c-36.816-21.257-39.22-43.149-54.066-51.72c-8.968-5.178-17.195-4.869-25.333-8.88c-3.449-1.7-11.212-6.675-10.349-8.173
	c0.136-0.234,0.632-0.315,1.4-0.315c0.834,0,1.988,0.095,3.346,0.19c1.356,0.095,2.917,0.189,4.564,0.189
	c5.441,0,11.838-1.036,15.009-6.529c5.463-9.464-2.275-52.969,20.263-92.007c9.563-16.562,18.938-18.402,20.92-21.834
	C126.827,268.807,121.438,259.581,135.447,239.476"/>
<circle cx="188.357" cy="461.486" r="2.547"/>
<path d="M182.266,465.2c0,0-2.929-5.074-10.236-7.031C173.288,453.472,185.081,458.869,182.266,465.2z"/>
<path d="M394.171,289.898c-3.758,0-5.094,3.269-5.556,5.218c-0.511,2.153-0.667,5-0.884,8.938
	c-0.269,4.863-0.603,10.915-1.748,18.448c-0.392,2.573-1.227,5.067-2.195,7.956c-1.477,4.411-3.14,9.376-3.772,16.207
	c-0.926,0.732-2.3,1.666-3.732,2.64c-8.665,5.891-24.792,16.852-22.057,35.355c0.192,1.295,1.181,2.326,2.466,2.574
	c0.194,0.037,0.389,0.055,0.582,0.055c0.66,0,1.299-0.213,1.823-0.597c-0.446,0.953-0.974,2.033-1.603,3.254
	c-2.638,5.138-6.106,11.027-9.165,16.223c-2.539,4.311-4.731,8.033-5.975,10.519c-4.247,8.484-7.973,14.76-13.425,19.826
	c-8.34,7.757-21.059,12.965-32.398,17.036c-2.094,0.751-4.313,1.725-6.46,2.668c-4.622,2.03-9.401,4.129-13.051,4.129
	c-1.099,0-3.72-1.96-5.634-3.391c-3.79-2.835-8.083-6.047-13.015-6.047c-0.002,0-0.003,0-0.003,0c-0.789,0-1.576,0.086-2.335,0.255
	c-1.036,0.232-1.865,0.997-2.218,1.997c-0.355,1-0.154,2.13,0.506,2.96c0.01,0.012,0.71,0.908,1.298,2.615
	c-5.983,2.61-8.197,6.777-10.022,10.209c-2.049,3.853-3.668,6.897-10.499,8.261c-1.504,0.3-2.557,1.661-2.472,3.193
	c0.086,1.531,1.285,2.765,2.813,2.895c2.454,0.209,4.834,0.315,7.077,0.315c13.934,0,20.569-3.963,24.534-6.333
	c0.799-0.478,1.786-1.067,2.171-1.168c0.579,0.044,2.04,0.746,3.333,1.367c4.54,2.181,12.137,5.831,25.981,5.831
	c30.943,0,56.456-12.964,73.338-21.543c7.302-3.709,13.607-6.914,16.475-6.914c6.658,0.001,10.502,7.919,12.799,12.65
	c1.512,3.119,2.513,5.178,4.957,5.179c1.017-0.001,1.974-0.428,2.7-1.205c0.813-0.87,1.705-2.438,2.139-7.487
	c0.222-2.563,0.275-5.561,0.14-7.637c-0.29-4.404-1.401-8.317-2.473-12.104c-1.284-4.531-2.499-8.811-2.499-14.075
	c0-6.004,2.512-11.665,5.69-18.831c5.094-11.478,12.068-27.197,12.068-53.851c0-7.892-0.763-15.779-2.201-22.809
	c-0.079-0.385-0.231-0.751-0.446-1.079c-1.19-1.801-2.125-5.286-2.5-9.322c-0.024-0.267-0.085-0.528-0.178-0.779
	c-3.542-9.607-8.57-15.862-14.608-18.208c-0.952-2.336-1.432-4.531-1.862-6.501C401.208,294.829,400.13,289.898,394.171,289.898
	L394.171,289.898L394.171,289.898z"/>
<path fill="#F47929" d="M394.171,292.978c5.592,0,3.645,6.62,7.496,14.8c6.035,1.684,10.75,8,13.99,16.788
	c0.432,4.638,1.528,8.51,2.996,10.733c1.406,6.87,2.137,14.473,2.137,22.191c0,42.512-17.756,55.54-17.758,72.682
	c0,10.356,4.382,17.326,4.978,26.38c0.252,3.837-0.175,13.047-1.904,13.048c-1.836-0.001-5.806-17.827-17.757-17.83
	c-10.929,0.001-44.735,28.457-89.813,28.457c-19.125,0-25.405-7.199-29.369-7.2c-3.377,0-7.997,7.504-26.65,7.504
	c-2.089,0-4.357-0.095-6.816-0.303c15.88-3.172,9.221-15.256,23.563-19.544c-0.683-4.283-2.562-6.513-2.562-6.513
	c0.558-0.124,1.114-0.183,1.668-0.183c7.097,0,13.923,9.439,18.65,9.439c6.184-0.001,14.023-4.636,20.552-6.979
	c13.701-4.919,25.417-10.203,33.454-17.679c5.897-5.479,9.798-12.142,14.083-20.704c4.765-9.516,25.235-40.04,17.787-40.04
	c-2.038-0.001-5.623,6.185-5.623,6.185c-3.088-20.885,20.966-31.29,25.71-36.053c0.833-11.736,4.951-18.004,6.043-25.192
	C391.998,303.419,389.648,292.978,394.171,292.978C394.17,292.978,394.17,292.978,394.171,292.978"/>
<circle cx="401.511" cy="323.4" r="2.547"/>
<path d="M407.773,326.819c0,0-2.929,5.073-0.971,12.38C402.105,340.458,400.883,327.546,407.773,326.819z"/>
</svg>
