<svg height="1000" viewBox="0 0 1000 999.99998" width="1000" xmlns="http://www.w3.org/2000/svg"><g transform="matrix(2.2008883 0 0 2.2008883 -224.40034 -455.96719)"><g><g><path d="m 383.061 319.371 c -3.344 1.485 -4.266 3.88 -4.258 4.676 c 0 0 .005 .246 .005 .241 c .021 .932 1.314 7.432 2.619 13.514 c 5.041 1.903 13.851 .096 18.703 -.91 c 1.423 -.294 2.553 -.522 3.384 -.637 c 2.101 -.277 5.186 -1.177 8.662 -2.395 c -7.336 -7.489 -13.9 -13.447 -16.493 -16.04 c -.708 -.708 -1.68 -1.446 -2.84 -2.193 c -4.148 2.351 -7.404 2.689 -9.782 3.744" fill="#ffe52b"/><path d="m 451.093 411.304 c -2.039 -13.94 -4.421 -27.192 -14.282 -46.234 c -2.52 -4.878 -6.086 -9.98 -10.076 -14.972 c -1.216 1.565 -3.695 1.02 -3.699 1.38 c 0 .386 .655 2.478 .315 3.146 c -.927 1.864 -5.353 2.206 -9.755 6.614 c -5.989 5.989 -15.768 7.616 -24.245 6.297 c -8.78 -1.38 -17.107 -6.53 -23.493 -16.247 c -5.102 -7.765 -8.292 -19.366 -8.292 -32.229 c 0 -6.003 3.995 -12.098 6.056 -16.883 c .246 .127 .54 .259 .834 .395 c -.874 -.404 -1.606 -.769 -2.091 -1.067 c -1.239 -.765 -3.656 -1.611 -6.657 -2.491 c -.149 1.098 -.897 3.792 -.976 5.251 c -.246 4.43 -2.259 14.141 -2.83 16.998 c -.516 2.553 -.304 13.465 -.317 13.535 c -.166 .923 -2.531 5.414 -3.462 5.353 c -.703 -.053 -.682 -28.661 -.945 -29.276 c -3.146 6.925 -1.591 31.657 -1.574 34.935 v 5.037 c 0 2.47 0 3.151 -3.149 6.926 c -.801 .967 -.889 4.131 -2.738 5.915 c -2.628 2.523 -2.922 -.843 -4.267 .198 l -.876 .69 c -2.736 2.162 -7.254 8.455 -9.429 7.681 c -.729 -.263 -3.723 -15.029 -4.092 -16.681 c -.84 -3.797 3.92 -18.532 4.153 -25.107 c .206 -5.805 1.895 -23.417 3.488 -38.535 c -8.371 -2.41 -16.563 -3.342 -21.396 -3.342 c -5.098 0 -24.82 .336 -28.217 1.017 c 0 0 -24.139 3.74 -57.449 15.636 c -33.315 11.896 -57.453 41.814 -65.948 56.087 c -8.499 14.282 -25.84 57.11 -11.896 106.403 c 13.935 49.284 31.609 67.306 44.529 81.922 c 12.916 14.611 24.135 20.737 52.352 31.619 c 28.217 10.872 50.651 10.528 79.205 6.455 c 28.557 -4.082 65.61 -25.158 77.169 -34.335 c 11.557 -9.175 29.917 -33.651 34.672 -41.474 c 4.763 -7.814 17.34 -33.312 20.737 -53.367 c 3.4 -20.058 .68 -33.315 -1.359 -47.25" fill="#ffe52b"/><path d="m 496.479 226.372 c -.901 .297 -.976 1.43 -1.508 2.182 c -4.218 3.317 -2.785 11.61 -9.72 11.913 c -2.413 1.204 -4.298 2.56 -6.934 3.162 c -2.941 1.661 -6.559 1.583 -9.501 3.246 c -1.582 -.077 -3.841 -.155 -3.768 1.88 c .374 2.11 -.073 3.617 -.677 5.729 c -.526 2.791 -1.283 5.655 -.983 8.666 c 1.66 .982 4.377 .38 6.257 0 c 7.462 -1.13 15.148 -2.938 23.212 -1.655 c 1.06 1.053 2.87 .378 3.77 1.507 c -.449 0 -1.051 .302 -1.051 .829 c -2.72 -.604 -5.277 .903 -7.914 1.358 c -3.771 .527 -6.935 3.164 -9.346 5.577 c -.305 .979 -.459 1.583 -1.21 2.109 c -3.09 .828 -5.198 2.186 -7.989 3.542 c -2.563 .607 -4.297 2.263 -7.084 2.187 c -1.358 -.147 -2.412 .681 -3.242 1.36 c -.374 .525 -.527 1.057 -.452 1.73 c -.826 -.301 -1.43 -2.865 -3.09 -1.354 c -1.732 1.207 -1.657 3.54 -2.189 5.423 c 1.133 1.963 -.377 3.771 -.225 5.733 c 0 2.336 -.225 4.746 1.205 6.48 c -.753 2.791 .526 6.779 -2.186 8.291 c -.526 .756 -.677 1.811 -.372 2.711 c .904 .831 2.333 .233 3.387 0 c .528 -.374 1.357 -.901 1.205 -1.731 l 3.624 -.831 c .599 1.586 -.834 2.417 -1.436 3.542 c -.448 4.376 .153 9.043 .527 13.421 c .83 1.657 -.527 3.01 -.452 4.597 c -.679 -.228 -1.582 0 -2.111 -.677 c -1.729 2.637 -.223 5.876 -.302 8.816 c -.452 2.566 .079 6.407 -2.563 7.233 c -1.88 .756 -3.919 1.059 -5.049 2.794 c -.906 .075 -1.965 -.527 -2.94 -.755 c -.526 -.453 -.526 -1.204 -1.283 -1.358 c .457 -3.015 -2.487 -4.676 -2.563 -7.387 c -.979 -1.354 -1.128 -3.318 -3.089 -3.612 c -7.233 3.761 -10.327 11.68 -16.734 16.276 c -.377 1.433 .98 4.223 -1.055 4.747 c -4.975 2.184 -8.441 5.73 -12.889 8.973 c -7.309 .378 -14.247 5.045 -21.709 1.732 c -1.732 -.304 -4.143 .148 -5.577 -.985 c -5.049 -1.652 -6.183 -8.134 -11.68 -9.342 c -1.283 -1.354 -.756 -3.543 -1.587 -5.125 c .607 -2.944 -1.508 -4.75 -2.865 -6.556 c -2.411 -5.203 -3.462 -11.004 -4.899 -16.655 c .153 -2.646 -.225 -4.979 -.677 -7.313 c .904 -4.601 .602 -9.729 3.015 -13.724 c -.074 -2.333 1.209 -4.518 1.508 -6.935 c .983 -3.462 2.785 -6.627 3.621 -10.172 c -.905 -1.731 -2.939 -1.885 -4.602 -1.353 c -1.885 1.43 -4.522 1.43 -5.805 3.688 c -1.583 .152 -3.09 1.134 -3.691 2.564 c -.528 6.029 0 12.661 -1.513 18.62 c -.448 2.637 1.134 5.651 -.826 7.69 c -.448 6.556 1.205 13.332 -1.432 19.143 l -.452 -.159 c .903 -9.193 -.753 -18.764 .978 -27.809 c .304 -.905 -.447 -1.581 -1.128 -2.03 c -.906 0 -1.733 .826 -2.111 1.653 c -.979 3.845 -2.715 7.69 -1.964 11.913 c -.602 1.806 .756 3.92 -.672 5.273 c .225 3.015 -.229 6.104 -.531 9.119 c 1.128 4.597 .074 9.048 .98 13.72 c -1.43 3.616 -2.488 7.009 -4.901 10.177 c 0 .976 -.299 1.657 -.975 2.259 c -1.213 -.378 -2.189 .527 -2.715 1.353 c -.15 1.363 -1.89 .308 -2.563 .985 c -2.187 1.432 -4.749 2.786 -5.805 5.277 h -1.507 c -.68 -5.73 -2.259 -11.232 -3.393 -16.809 c -.224 -10.178 -1.208 -20.355 -1.208 -30.832 l -.299 -.22 c -.378 2.03 -.378 4.214 -.527 6.328 c -4.447 .303 -9.123 1.055 -13.721 .985 c -2.865 2.03 -1.203 6.099 -2.408 8.965 c -3.316 9.343 -2.341 20.496 -4.525 30.375 c -.299 3.468 -.453 7.238 -.751 10.556 c 2.183 1.354 5.048 .299 7.537 .448 c 18.167 -2.034 37.91 -1.809 56.232 -1.809 c 1.05 -.299 1.13 -1.583 1.582 -2.408 c -.223 -7.99 .905 -15.381 1.656 -22.918 c 2.568 2.944 5.278 5.73 7.994 8.367 c .299 2.94 .145 6.029 -.377 8.75 c 1.959 2.483 -2.034 7.831 2.785 8.209 c 8.293 -.379 15.455 1.89 23.061 3.015 c .607 .079 1.139 -.603 1.285 -1.05 c -1.508 -4.372 -4.672 -7.994 -7.234 -11.536 v -.602 c 2.488 -.154 4.824 -.682 7.234 -1.05 c 5.805 6.178 9.648 12.885 14.096 19.52 c 1.136 2.26 1.961 4.667 3.543 6.781 c 1.811 4.746 2.259 10.103 4.298 14.77 c 2.184 12.44 5.726 26.455 2.184 38.971 c 1.508 2.487 4.677 2.562 7.313 2.413 c .449 .904 1.508 .904 2.333 1.129 l 1.513 -.448 c 6.407 .299 11.835 3.314 18.315 3.164 c .98 .603 2.185 .603 3.244 0 c 1.652 -.985 3.537 -.304 5.273 -1.13 c 3.392 -1.507 4.522 -5.58 7.839 -6.789 c 5.049 -.976 10.1 .682 13.039 4.372 c .225 .682 .075 1.512 .681 2.035 c .678 3.845 .149 8.217 -1.586 11.382 c -2.563 3.393 -4.447 8.366 -9.418 7.993 c -2.109 .149 -4.227 0 -5.958 -.904 c -.905 .451 -.753 -.757 -1.507 -.682 c -3.995 -1.125 -4.747 -6.329 -8.219 -8.139 c -.224 -.378 -.524 -.826 -.976 -.826 c -11.152 .149 -20.958 -3.394 -31.887 -3.243 l -.825 .83 c -3.319 8.592 -7.312 16.884 -10.71 25.476 c -.825 .979 -1.354 2.03 -1.507 3.238 c -4.444 4.451 -6.328 10.104 -10.398 14.401 c -.527 2.258 -4.144 3.69 -2.636 6.253 c 2.413 2.034 5.8 .527 8.745 1.358 c 8.362 1.353 16.65 3.015 24.644 5.423 c 1.283 -.748 2.488 -.075 3.846 .152 c 1.582 .374 3.314 .753 4.821 1.358 c .526 .83 1.809 .453 2.641 1.055 c 2.94 1.13 6.029 1.508 8.67 3.085 c 1.508 1.89 .3 4.602 .674 7.093 c -2.111 3.763 -8.065 2.487 -11.984 2.184 c -3.314 -1.208 -6.179 -2.491 -9.572 -3.541 c -1.054 -1.209 -3.694 -.532 -3.994 -2.564 c -.681 -.903 -1.886 -.68 -2.787 -1.133 c -3.771 -2.039 -8.515 -.378 -12.211 -2.408 c -3.921 -.535 -7.537 -1.66 -11.457 -2.188 c -4.75 .98 -10.555 -1.657 -14.326 1.811 c -4.746 5.575 -11.377 7.908 -15.375 13.79 c -11.757 10.178 -25.099 17.183 -38.515 24.195 c -2.342 2.716 -9.646 2.413 -7.465 7.839 c .531 3.472 2.719 6.254 3.392 9.651 c 1.66 5.871 4.675 11.152 6.935 16.805 c .527 1.129 2.263 .457 2.038 2.034 c 2.338 4.073 4.522 8.899 7.462 12.361 c .678 1.582 1.354 2.787 2.189 4.299 c -.078 1.731 .299 3.393 0 5.044 c -1.208 .606 -2.039 1.965 -3.023 3.015 c -5.422 -1.502 -7.382 -5.725 -11.223 -9.421 c -.83 -1.802 -1.661 -3.912 -2.492 -5.951 c -.522 -1.352 -1.203 -2.188 -1.508 -3.611 c -.225 -1.134 -.978 -2.188 -1.582 -3.023 c -.452 -3.692 -2.716 -7.234 -3.919 -10.855 c -3.089 -6.78 -5.273 -14.018 -10.477 -19.67 c -9.726 1.135 -19.674 2.338 -30.002 1.662 c -4.97 -1.662 -10.252 -2.417 -15.6 -3.02 c -7.088 -2.034 -14.471 -3.393 -21.182 -6.631 c -5.805 -.607 -10.252 -4.447 -15.454 -6.637 c -1.275 -.671 -2.334 -2.258 -3.92 -1.954 c -1.502 3.467 -.298 7.388 -.298 11.156 c -.449 4.519 1.96 8.218 1.661 12.885 c 1.05 1.354 .672 3.318 1.507 4.746 c 0 3.776 2.636 6.791 1.884 10.557 c -1.586 .299 -2.263 -.905 -3.695 -1.056 c -1.96 -1.203 -4.218 -1.66 -6.333 -2.565 c -1.129 -2.488 -3.771 -2.712 -5.054 -5.046 c 1.811 -2.939 -.448 -6.257 -.672 -9.347 c -1.885 -9.501 -2.79 -19.376 -3.919 -29.171 c -.528 -1.278 -2.039 -.979 -3.094 -.829 c -8.213 3.919 -17.183 5.958 -25.4 9.799 c -.224 1.282 -1.731 .905 -2.566 .825 c -2.787 -.903 -2.18 -4.218 -3.01 -6.556 c .223 -1.503 .602 -2.865 1.353 -4.218 l 1.657 -1.359 c 6.64 -2.483 13.047 -5.423 19.674 -7.989 c 2.109 -.9 0 -2.411 .228 -3.766 c -5.054 -9.122 -12.889 -17.112 -16.51 -26.912 c -1.578 -3.542 -3.617 -6.556 -4.522 -10.401 c -1.88 -2.109 -1.88 -5.198 -3.462 -7.458 c -1.358 -5.58 -3.015 -11.003 -2.716 -17.266 c -1.885 -8.064 -1.96 -16.884 -2.637 -25.475 c -.755 -7.233 .831 -14.018 1.279 -21.028 c -2.566 -2.263 -6.631 -.9 -9.422 -.153 c -5.427 1.89 -11.078 3.393 -17.033 3.92 c -2.188 1.209 -4.825 1.134 -7.237 1.661 v .228 c -.225 -2.492 -1.204 -5.73 .303 -7.84 c .303 -.149 .224 -.527 .224 -.831 c .831 1.956 2.94 -.224 4.378 -.224 c 6.556 -3.392 14.471 -3.695 21.028 -7.089 l 10.477 -3.237 c 1.129 -2.11 1.358 -4.522 2.408 -6.637 c 3.849 -7.84 7.237 -15.978 12.515 -23.061 c 2.259 -3.015 2.861 -7.766 6.781 -9.119 c 4.298 -5.955 10.182 -10.173 15.456 -15.302 c 3.014 -2.865 8.138 -2.94 10.024 -7.088 c 1.731 -4.443 1.96 -9.646 4.447 -13.869 c .681 -3.841 3.616 -7.233 2.865 -11.377 c 1.129 -4.522 2.109 -9.123 2.487 -13.944 c -.831 -1.959 -.98 -5.051 .075 -6.936 c .532 -3.091 2.039 -5.427 4.522 -7.313 c 1.736 .302 3.616 .756 4.597 2.714 c 2.413 7.915 -.224 16.66 -2.408 24.121 c .377 3.919 -2.338 6.483 -1.96 10.327 l -.229 4.447 c 1.059 .756 2.712 .9 3.919 .453 c 11.084 -3.775 22.162 -7.237 33.395 -10.63 c 2.035 -.149 3.99 -.449 5.801 -1.354 c 6.033 -.228 11.456 -2.338 17.793 -1.363 c .9 0 .752 -.976 .976 -1.582 c 2.188 -9.342 3.168 -19.142 5.427 -28.489 c -.904 -.903 -.602 -1.886 -.447 -3.015 c .521 -1.661 1.582 -2.938 2.029 -4.6 c 2.87 -1.052 4.904 1.36 7.994 .532 c -.075 .374 .224 .602 .448 .829 c -.374 1.881 2.566 4.671 -.448 5.729 c -.602 1.58 -1.508 3.162 -1.358 5.126 c -1.354 8.288 -2.715 16.581 -3.467 25.093 c .752 2.188 3.467 .905 5.129 1.661 c 2.179 -.299 6.029 -1.428 7.308 1.055 c .606 0 .831 -.528 .98 -.976 c .904 -9.422 1.357 -18.995 2.71 -28.343 c .155 -2.186 1.363 -4.372 .529 -6.484 c 1.059 -2.861 -.374 -5.729 .68 -8.588 l -.148 -12.062 c -.831 -.679 -.682 -2.412 -.379 -3.392 c 1.885 -1.958 5.049 -1.507 7.313 -3.542 c 3.541 -.756 7.01 -1.661 10.477 -2.564 c 11.682 -3.016 24.877 -3.843 37.687 -2.94 l .299 .528 c -2.258 1.885 -5.497 1.206 -7.761 3.091 c -1.73 .149 -3.015 1.885 -5.049 1.661 c -4.143 2.56 -8.819 3.766 -12.435 7.005 c -.532 .681 -.831 1.283 -.149 1.962 c 1.055 .378 1.433 1.43 1.656 2.412 c .672 3.165 -2.039 5.273 -.831 8.288 c .452 .378 1.209 .905 1.737 .378 l 2.034 .454 h 16.733 c 6.254 -5.354 12.208 -12.59 17.032 -19.3 c 0 -1.654 1.583 -2.784 2.334 -4.216 c 1.816 -4.072 5.959 -5.278 9.198 -8.139 c 2.638 -.154 4.675 2.033 7.616 1.654 c 2.791 1.13 5.427 2.336 7.313 4.9 c 1.129 3.089 3.387 6.179 6.029 8.367 c -1.964 .075 -3.244 2.564 -5.582 2.488 c -3.919 4.447 -10.552 6.332 -12.511 12.285 c -1.66 .756 -1.735 2.714 -2.184 4.221 c -.527 1.059 -1.13 2.259 -1.433 3.542 c -2.79 2.34 -4.372 5.805 -7.088 8.294 c -.379 3.162 -4.444 3.465 -4.444 6.632 c 1.28 .829 2.787 -.378 4.145 -.525 c 3.841 -.91 7.233 -2.642 11.308 -2.868 l .148 -.301 c 3.393 .076 6.482 -1.13 10.024 -.528 c .452 .528 .08 .982 0 1.507 c -5.273 3.997 -11.682 6.108 -16.581 10.701 c -3.015 2.109 -6.406 4.073 -9.875 5.427 c -2.942 .979 -5.201 3.542 -7.988 4.601 c -1.89 1.283 -4.372 1.653 -5.581 3.692 c .155 4.148 -2.715 8.516 -.676 12.889 c -.155 1.283 -.528 3.089 .831 3.766 c 2.485 -1.204 4.744 .681 7.534 0 c 4.3 -.225 9.424 .756 13.04 -1.354 c 2.563 -.154 4.522 -1.731 6.935 -2.258 c 1.357 -.606 2.716 -1.055 4.223 -1.358 c .527 -.681 1.508 -.378 2.19 -.831 c 6.854 -2.487 12.431 -6.481 19.216 -9.122 c 2.413 -1.204 4.971 -2.184 7.088 -3.915 c -.457 -4.298 .976 -9.123 -.681 -13.267 c .149 -9.494 -.378 -19.374 .149 -28.795 c .98 -1.356 .304 -3.388 .756 -4.972 c .826 -1.733 0 -4.069 1.283 -5.582 c .598 -7.081 1.429 -14.016 1.881 -21.177 c -1.587 -3.166 -4.899 -5.502 -3.389 -9.8 c 1.657 -1.129 3.921 -1.507 5.955 -2.259 c 11.905 -3.393 24.494 -5.049 37.31 -6.407 c 4.82 0 8.969 -1.055 13.865 -.676 l .224 .827" fill="#343536"/><path d="m 373.165 230.439 c -.074 .527 -.147 1.055 -.68 1.36 c -.827 .149 -1.653 -.154 -1.507 -1.057 c 0 -.604 0 -1.205 .529 -1.355 c .754 -.077 1.281 .451 1.658 1.052 m 6.486 .829 c .146 .378 -.233 .906 .3 1.06 c .224 .301 .602 .075 .83 .301 c .225 -.226 .378 -.455 .378 -.828 c 0 -.757 -1.208 -1.135 -1.508 -.533 z m 26.232 -5.876 c .299 .302 -.154 .829 .369 .98 c -.449 .226 -1.051 .679 -1.577 .297 c -.532 -.071 -.906 -.598 -1.13 -.976 c -.308 -1.734 1.807 -.755 2.338 -.301 z m -7.467 -16.133 c -1.508 1.206 -.527 3.394 .154 4.752 c 1.13 2.035 2.936 -1.211 3.916 1.356 c .228 .826 1.208 1.885 .681 2.563 c -.531 .68 -.831 1.734 -.304 2.485 c .528 1.507 2.338 1.885 3.846 1.507 c .682 -.828 2.79 -.226 2.259 -2.034 c -.597 -.98 -1.811 -1.13 -2.259 -2.035 c .074 -1.808 -.527 -4.144 1.582 -4.9 c 1.881 -.527 2.338 1.431 4.07 1.207 c 2.187 .301 4.824 -.149 6.631 .98 c 0 1.734 -4.369 2.863 -1.577 4.825 c .372 2.335 .069 5.201 2.258 6.557 c 1.732 1.129 -1.13 2.564 .979 3.243 c 1.812 .674 2.035 -1.513 3.015 -2.341 c 1.736 -2.487 3.389 -4.599 5.507 -6.781 c .378 -1.736 -2.118 -2.641 -2.567 -3.392 c 5.877 -2.94 11.233 2.186 17.412 .828 c -.07 -.15 0 -.15 .074 -.226 c .457 1.507 -.751 2.79 -.524 4.447 c -.606 1.732 -2.565 2.109 -3.919 2.865 c -1.507 1.206 -4.299 2.184 -3.771 4.896 c -2.114 1.359 -.304 4.374 -2.641 5.504 c -.299 1.206 -.379 2.111 -1.205 2.862 c -.905 .305 -2.482 .305 -2.413 -1.054 c -3.089 -.826 -3.237 3.093 -6.556 1.733 c -2.188 -.604 -4.373 -1.507 -6.786 -1.733 c -8.138 -1.507 -17.032 -1.885 -25.473 -.679 c -.682 .455 -1.807 .23 -2.568 .679 c -2.71 1.433 -6.477 1.205 -8.665 3.919 c -.074 1.06 -.98 1.129 -1.807 1.507 c -1.208 .528 -2.565 .905 -3.541 1.885 c -.532 0 -1.135 -.602 -1.587 0 c .224 .527 1.208 0 1.055 .829 c -.224 0 -.304 -.224 -.528 -.152 l -.377 .378 l .074 .152 c -.9 1.656 -4.064 .527 -4.145 3.164 c -1.133 0 -2.108 1.057 -2.865 0 c -.526 -2.713 -3.84 -3.164 -5.049 -5.201 c -1.204 -.15 -.526 -1.806 -.526 -2.562 c .303 -1.654 2.337 -3.015 .831 -4.599 c -2.114 1.056 -3.249 -1.58 -5.204 -1.809 c -.528 -1.808 -1.354 -4.069 -3.468 -4.298 c -.452 -.823 -2.034 -.149 -1.657 -1.502 c -.68 -.301 -.303 -.98 -.377 -1.507 c 1.657 -2.263 4.677 .527 6.631 -1.358 c 1.357 -.149 2.79 .302 4.075 .831 c .073 .373 .223 .828 .676 .978 c 1.508 .076 2.189 -1.13 2.716 -2.336 c .225 -1.36 1.508 -1.661 2.561 -2.413 c 1.881 -1.358 4.069 -2.713 5.956 -4.067 c 1.879 .147 1.277 1.503 2.184 2.784 c -.604 .378 -.449 1.283 -.305 1.811 c .757 .602 -.446 1.129 -.224 1.885 c .603 .905 1.886 1.656 2.939 .976 c .454 -.374 1.43 -.598 2.039 -.297 c .826 .752 1.051 3.165 2.638 2.182 c .523 -.07 1.203 -.449 1.353 -1.13 c -.149 -2.865 -3.69 -4.298 -2.189 -7.536 c .756 -1.13 3.02 -1.13 3.095 -3.015 c -.075 -1.657 .452 -3.465 2.039 -3.92 c .598 -.154 1.274 -.154 1.651 -.828 c .528 -.455 .155 -1.206 0 -1.731 c -.826 -.604 -.826 -1.661 -.521 -2.49 c .447 .149 .677 -.833 1.428 -.679 c 3.468 -.153 7.014 -.075 9.273 2.035 z" fill="#343536"/><path d="M 457.62399 287.04501 L 457.62399 281.694" fill="none" stroke="#343536" stroke-miterlimit="3.864" stroke-width=".0758"/><path d="m 456.911 303.023 c -.078 -3.09 -.531 -6.104 -.152 -9.191 l .224 .073 l -.072 9.118" fill="#343536"/><path d="M 456.26999 305.59 L 456.26999 303.332" fill="none" stroke="#343536" stroke-miterlimit="3.864" stroke-width=".0747"/><path d="m 358.77 332.573 c .904 3.616 2.483 6.934 3.393 10.476 h .304 v .299 c -3.925 .229 -6.711 -2.861 -10.029 -4.369 c -1.508 -3.015 -.755 -7.383 -.149 -10.705 c 2.561 .827 6.252 .677 6.481 4.299" fill="#343536"/><path d="m 217.289 360.534 c -.079 11.989 -2.94 23.067 -3.846 34.897 c -.075 .532 -.452 1.213 -1.055 1.362 c -8.218 -.149 -14.77 3.762 -22.684 4.443 c -.835 -.075 -2.492 .378 -2.114 -1.051 c -.075 -1.06 .905 -1.661 1.204 -2.566 c .83 -3.163 3.243 -5.576 3.616 -8.819 c 3.468 -3.92 4.452 -8.815 8.144 -12.661 c 5.73 -5.054 9.048 -12.665 16.207 -15.605 h .528" fill="#e0404e"/><path d="m 360.804 385.939 c .449 .148 1.059 .447 1.209 .904 c .676 11.603 -1.283 23.063 -.383 34.748 c .383 7.76 .906 15.675 1.059 23.365 l -.676 .522 c -13.569 .831 -27.066 1.886 -40.028 4.373 c -7.841 .149 -14.622 .303 -22.462 -.149 c -.979 -1.587 .075 -3.542 -.452 -5.273 c -1.507 -4.148 -.224 -8.446 -1.209 -12.819 c -.9 -7.984 1.586 -15.297 .532 -23.286 c .831 -1.134 -.532 -2.716 .677 -3.695 c -.527 -5.348 1.582 -10.327 .83 -16.132 l .678 -.678 c 7.765 -.9 15.754 -1.433 23.593 -2.184 c 12.212 .15 24.873 .378 36.632 .304" fill="#fff"/><path d="m 406.783 390.909 c 4.447 2.492 3.921 8.292 6.781 11.834 c 3.094 6.935 2.79 15.302 5.049 22.535 c .905 7.238 1.284 14.854 -.298 21.938 l -.678 .676 l -35.124 -.069 c -3.472 -.378 -7.014 -.682 -10.327 -1.512 c -.379 -2.487 -.379 -5.054 -.528 -7.611 c -.452 -6.407 -1.358 -13.192 -.826 -19.524 c -.532 -3.09 .448 -6.254 .299 -9.497 c .377 -7.537 .149 -15.376 1.731 -22.386 l .682 -.677 c 11.835 -.15 21.485 4.526 33.239 4.293" fill="#e0404e"/><path d="m 287.31 391.889 c .08 9.65 -.751 19.072 -.826 28.494 c -1.209 4.672 .527 9.193 .154 13.939 c -.681 4.602 .075 9.426 -.154 14.027 c -7.238 3.761 -16.207 3.234 -24.196 5.124 c -7.387 1.055 -14.019 3.841 -21.41 4.9 c -1.357 1.129 -3.393 .751 -5.045 1.208 c -4.447 -.536 -8.143 2.333 -12.739 1.503 c -1.885 -6.104 -1.811 -13.039 -2.715 -19.524 c 2.188 -11.228 .83 -22.839 2.715 -34.216 c -.527 -.905 -.527 -2.412 .145 -3.239 c 3.471 -2.869 8.296 -2.491 12.594 -3.247 l 48.16 -10.477 c 1.059 -.601 4.148 -.825 3.317 1.508" fill="#ffe52b"/><path d="m 363.367 456.185 c 3.014 5.277 .908 12.134 2.864 17.789 c .225 6.78 1.508 13.113 2.566 19.521 c .751 4.447 1.502 9.268 .975 13.869 c -2.712 .452 -5.428 -1.429 -8.293 -.523 c -.9 .448 -1.959 1.429 -3.09 .677 c -.531 -.382 -1.128 -.532 -1.805 -.457 c -.756 2.417 -2.567 .075 -3.77 -.148 c -2.493 .825 -5.73 -.149 -7.841 1.506 c -.984 .229 -1.508 -.302 -2.184 -.681 c -2.339 2.189 -4.601 -.149 -7.313 .985 c -9.197 .452 -17.789 .598 -26.763 1.88 c -3.085 -6.253 -3.314 -13.641 -5.272 -20.347 c -1.807 -9.575 -3.771 -19.221 -3.543 -29.474 c 1.055 -1.129 2.716 -.98 3.921 -1.735 c 9.496 -.449 19.599 1.059 28.643 -.826 l 14.924 -1.507 c 4.372 -1.882 10.401 -.831 15.227 -.906 l .754 .377" fill="#e0404e"/><path d="m 412.893 457.015 c 1.73 3.09 -1.283 5.652 -1.587 8.518 c -.826 .606 -.149 1.656 -.677 2.338 c -1.886 3.089 -3.318 6.104 -4.602 9.491 c -3.392 5.357 -6.477 10.029 -9.421 15.307 c -4.146 4.368 -7.537 9.347 -11.606 13.491 c -1.283 .224 -2.04 -.602 -3.168 -.682 c -1.657 -5.875 -3.313 -11.76 -3.766 -18.087 c -1.887 -6.408 -1.811 -13.646 -3.244 -20.202 c -.447 -3.089 -.447 -6.706 0 -9.795 l 1.055 -.527 l 18.848 .677 c .374 -.453 1.056 -.756 1.657 -.83 c 5.278 .754 11.009 -.226 16.511 .301" fill="#ffe52b"/><path d="m 207.489 476.382 c .453 3.09 .229 6.104 .677 8.974 c -.826 8.666 .378 17.485 .532 26.231 c .149 3.084 .448 6.406 .149 9.343 c -1.507 -.221 -2.94 -1.961 -4.07 -3.239 c -5.581 -6.029 -7.764 -13.57 -12.59 -20.127 c .154 -2.184 -2.482 -3.617 -1.507 -5.801 c -2.492 -1.283 -.602 -4.9 -2.716 -5.884 c -.826 -1.429 -1.731 -3.09 -1.353 -4.821 c 5.874 -2.861 12.511 -3.766 18.694 -5.876 c .98 -.079 2.333 -.079 2.184 1.2" fill="#fff"/><path d="m 371.28 517.915 c -1.656 5.8 -8.138 7.909 -12.059 11.685 c -8.442 4.442 -16.584 10.095 -25.251 13.943 c -4.675 1.205 -8.67 4.144 -13.341 5.354 c -2.339 -1.89 -2.034 -5.354 -3.239 -7.919 c -1.965 -1.956 -2.264 -4.594 -2.868 -7.16 c -.906 -2.413 -1.882 -4.821 -2.036 -7.614 c -.522 -.901 -.522 -2.186 -.522 -3.09 l 1.128 -.673 c 16.805 -2.645 34.594 -3.173 51.632 -4.75 c 1.81 .225 3.919 .751 5.352 -.453 c .528 -.079 1.204 .074 1.204 .677" fill="#fff"/><path d="m 300.881 524.472 c 2.408 9.495 6.785 18.47 7.462 28.567 c -6.184 1.961 -10.779 7.761 -18.316 6.259 c -4.975 .149 -9.272 -1.807 -14.172 -1.513 c -3.085 -1.352 -5.876 -3.309 -9.496 -3.467 c -5.726 -3.69 -12.437 -4.971 -18.69 -7.384 c -8.068 -2.565 -16.887 -3.392 -23.37 -10.022 l -.224 -.682 c 1.507 -1.13 3.767 -.825 5.577 -1.507 c 23.211 -4.144 46.054 -9.795 70.249 -11.378 l .98 1.127" fill="#e0404e"/><path d="m 373.144 378.859 l 32.893 3.779 l -12.67 -14.791 c 0 0 -12.195 -1.104 -18.962 -7.08 l -1.577 1.098 l .316 16.994" fill="#fff"/><path clip-rule="evenodd" d="m 199.649 285.735 c .074 .756 .074 1.585 .677 2.189 c .527 3.315 1.283 6.862 3.625 9.198 c .672 2.34 -1.059 3.999 -1.586 5.955 c -1.358 .158 -1.886 1.516 -3.243 1.362 c -1.06 .756 -2.413 .299 -3.85 .457 c -.373 -.686 -1.283 -.905 -2.034 -1.139 c -1.582 2.343 -4.224 2.567 -6.333 3.85 c -1.811 .449 -3.393 1.357 -4.377 2.865 c -.377 .225 -.905 .075 -1.358 .075 c -.149 -.527 -.149 -1.512 -.526 -1.583 c .302 -.602 .905 -.835 1.357 -1.357 c 2.114 -.527 4.377 -1.886 5.427 -3.925 c .303 -1.278 -.523 -2.034 -1.2 -2.862 c -1.586 -.525 -2.715 .903 -4.227 .828 c -.831 .905 -2.642 .453 -3.846 .378 c .075 -.304 0 -.532 -.223 -.679 h -.457 c 2.641 -1.053 4.376 -3.168 5.734 -5.805 c .154 -.609 -.154 -1.212 -.682 -1.36 c -1.507 .378 -2.935 1.36 -4.373 1.737 c -1.059 .22 -1.811 1.657 -2.566 2.035 c -.9 .45 -.523 1.808 -.224 2.411 l .906 1.357 c -.528 4.98 1.581 9.352 .826 14.405 c -.752 1.204 -2.636 .826 -3.92 .527 c -2.262 -1.507 -4.218 -4.447 -6.56 -6.108 c -.827 -.304 -2.035 0 -2.264 .976 c -.299 1.441 1.06 2.268 .905 3.7 c .602 .607 .457 1.732 1.284 2.417 c 0 1.354 .532 2.637 1.357 3.537 l .079 1.358 c -1.059 .155 -2.79 .906 -3.626 .378 c -2.263 -3.542 -3.313 -7.69 -6.258 -11.009 c -1.204 -.905 -2.637 .154 -3.77 .603 c -1.81 .602 -3.471 2.338 -4.899 3.243 c -.378 -.224 -.079 -.979 -.682 -.831 c .225 -2.636 2.567 -3.766 4.298 -5.277 c 1.736 -.831 3.472 -1.811 5.582 -1.208 c 1.582 .755 4.069 2.491 5.959 1.059 c 1.433 -2.641 -1.811 -4.073 -2.412 -5.81 l -.154 -.976 c 1.512 .225 2.944 1.205 4.601 1.354 c .605 .602 1.586 .677 2.342 .378 c 1.129 -.527 1.657 -1.507 2.185 -2.562 c -.751 -.984 -.906 -3.093 -.453 -4.076 c 2.944 1.207 3.168 -2.489 5.427 -2.564 c 2.571 -1.881 4.904 -4.598 8.754 -3.091 c 3.318 2.113 4.975 5.655 6.86 9.052 c 1.358 -.683 1.283 -2.264 1.656 -3.546 c 0 -2.186 1.662 -4.072 .835 -6.335 c -1.133 -.752 -2.72 -.224 -3.85 -.982 l -4.298 -.374 v -.679 h 10.033 c .976 -.833 .449 -1.885 .378 -3.015 c -.682 -.832 -.835 -2.34 -1.213 -3.397 c 1.741 .53 3.925 .904 4.377 2.866 m -.303 9.807 c .905 2.186 .303 4.444 -1.055 6.18 c -.527 .229 -1.055 .905 -1.208 -.075 c -.225 -1.661 -.448 -3.693 .532 -5.054 c -.079 -.602 .149 -1.207 .676 -1.507 c .453 .001 .831 .001 1.055 .456 z m -26.995 14.93 c -.303 .603 -.756 -.074 -1.059 -.153 c -.453 -.677 -.901 -1.283 -.677 -2.189 l .677 -.826 c 1.437 .378 1.283 2.034 1.059 3.168 z" fill="#343536" fill-rule="evenodd"/><path clip-rule="evenodd" d="m 201.231 592.137 c 3.323 .379 1.512 4.149 2.72 5.955 c .374 .453 1.204 .304 1.652 .154 c .756 -1.283 1.512 .225 2.417 .225 c 3.318 .526 6.029 2.868 8.068 5.054 c -3.467 1.577 -7.316 -4.452 -9.426 .829 c .15 2.408 2.264 3.692 3.995 4.597 c .303 -.078 .527 .225 .906 .154 c -3.393 .901 -6.029 -1.208 -9.198 -.831 c -1.134 .378 -2.039 1.056 -2.487 2.184 c 1.204 2.564 3.995 3.772 6.785 4.148 c -.149 .528 .528 1.965 -.681 1.965 v .379 c -1.885 -.08 -3.616 -.682 -5.277 -1.513 c -1.582 -.976 -3.089 -2.109 -2.865 -4.447 c -.826 -.532 -.527 -1.959 -.378 -2.865 c .681 -.457 .378 -1.511 .303 -2.189 c -.831 -1.81 -2.114 0 -3.164 0 c -1.661 1.283 -3.696 2.036 -5.586 2.487 c -2.566 0 -1.731 -3.094 -2.258 -4.749 c .149 -.603 -.457 -1.811 .527 -1.811 c 2.408 -3.242 5.431 -6.636 8.521 -9.726 c 1.208 -1.283 4.143 -1.134 5.426 0 m -.527 2.94 c -.528 3.845 -4.298 5.277 -7.317 6.632 l -1.507 .457 c -.676 -.827 .457 -1.961 .98 -2.567 c 1.283 -1.433 2.715 -2.716 4.601 -3.691 c .453 -.681 1.059 -1.208 1.885 -1.512 c .452 .378 1.437 -.223 1.358 .681 z" fill="#343536" fill-rule="evenodd"/><path clip-rule="evenodd" d="m 265.488 616.113 c 1.283 .756 2.865 1.284 4.442 1.661 c 4.153 .602 9.282 0 11.544 3.622 c 1.129 .83 .603 2.108 .681 3.316 c -.756 1.508 -4.228 2.19 -2.72 4.603 c 1.438 .83 1.284 2.108 2.039 3.242 l -.826 1.886 c -1.437 .527 -2.118 1.88 -3.779 1.88 c -.602 .531 -1.731 .074 -2.03 .981 c -2.413 .08 -4.676 .756 -6.64 1.513 c -1.885 .069 -.906 -3.244 -1.358 -4.606 c -1.129 -2.031 .229 -4.065 .378 -6.104 c .756 -.9 .756 -2.343 1.358 -3.394 c .154 -1.282 .98 -2.865 -.154 -3.998 c -1.204 -.075 -2.408 -.98 -3.616 -.225 c -1.204 2.259 -1.96 4.372 -3.168 6.481 c -.603 1.662 -1.428 2.87 -1.582 4.751 c -.603 .682 .154 2.488 -1.208 2.342 v .379 c -.153 -.453 -.299 -1.133 -.677 -1.357 c -.453 -2.865 -.676 -5.96 1.204 -8.298 c -.07 -1.66 1.815 -2.716 1.213 -4.447 c -1.283 -1.361 -4.531 -1.965 -3.248 -4.755 c 1.885 -.299 4.825 -.756 6.64 .379 l 1.507 .148 m 11.535 15.386 c .079 1.885 -2.641 1.736 -3.919 2.712 c -1.134 0 -3.019 .604 -3.546 -.599 c -.225 -1.587 .228 -3.164 1.511 -3.92 c 2.338 -.302 4.069 .906 5.954 1.807 z m -4.407 -6.824 c 0 0 -2.681 -3.934 1.573 -3.934 c 0 0 1.573 -.786 3.622 .471 c 0 0 1.89 .948 1.099 2.202 c 0 0 .158 1.261 -1.573 2.047 c 0 0 -1.103 -.628 -1.731 -.313 z" fill="#343536" fill-rule="evenodd"/><path clip-rule="evenodd" d="m 305.759 617.999 c .756 .075 .075 .532 .299 .98 c -.149 0 -.224 -.074 -.299 -.149 c -1.735 3.467 -3.921 6.262 -4.452 10.33 c -.079 1.205 1.358 1.061 2.039 1.513 c 3.239 -.154 6.482 -.831 9.801 -.527 l -.677 .527 c -1.886 1.731 -4.905 3.616 -7.616 4.073 c -.984 .976 -2.637 .369 -3.92 .528 c -2.118 -1.435 -2.039 -3.701 -3.322 -5.582 c -2.79 .673 -4.825 4.07 -7.164 4.9 c -.979 .979 -3.015 .979 -4.373 .522 c -1.735 -.597 -2.188 -2.558 -2.715 -4.442 c -.154 -1.815 .224 -3.322 .831 -4.752 c .602 -.227 .755 -.829 1.204 -1.36 c 1.736 -2.713 5.958 -2.787 6.56 -6.408 c .303 .149 .453 -.153 .682 -.227 c 1.885 .377 4.149 1.507 4.751 3.771 c .448 .227 .224 1.134 .681 1.66 c .448 .379 .298 .98 .901 1.357 c 1.129 .225 1.358 -1.133 2.035 -1.66 c 0 -.756 .905 -1.205 .834 -2.035 c .977 -1.358 1.807 -3.919 3.016 -4.224 l .904 1.205 m -12.291 8.068 c -.756 2.417 -2.642 5.129 -5.208 5.958 c -1.204 .305 -1.96 -.452 -2.865 -.978 c .075 -2.865 3.019 -5.054 5.581 -6.259 c 1.134 .15 2.561 -.377 2.492 1.279 z" fill="#343536" fill-rule="evenodd"/><path d="m 234.264 608.423 c 2.035 .682 4.224 1.363 6.263 2.034 c .826 .532 .9 1.513 .676 2.264 c -2.492 .527 -4.825 -.825 -7.093 -.377 c -1.427 .532 -1.05 2.117 -2.03 2.865 c -.607 1.436 .979 1.511 1.507 2.267 c .901 .299 1.657 .826 2.711 .826 c .532 .604 1.885 .905 1.358 1.886 c -3.77 1.358 -9.123 -1.956 -11.157 3.018 l -.835 4.298 c -.145 -.153 -.523 -.078 -.752 -.078 c -.149 -.22 .299 -.3 0 -.454 c -1.512 -1.278 -1.735 -3.694 -1.358 -5.954 c 1.129 -2.263 2.338 -4.525 3.472 -6.789 c .677 -1.657 2.408 -3.696 .98 -5.726 h -.303 c .452 -1.284 2.487 -.91 3.695 -.756 c .683 .602 1.887 .377 2.866 .676" fill="#343536"/><path d="m 246.855 614.084 c .153 .671 .532 1.502 -.145 2.029 c -2.342 1.438 -3.094 4 -4.074 6.259 c -.835 .681 -1.059 1.815 -1.358 2.869 c .224 1.059 0 2.486 1.279 2.865 c 2.791 -.9 4.754 -2.79 6.187 -5.357 c .677 -1.732 1.358 -3.467 2.035 -5.273 c .079 -1.283 .378 -2.565 .984 -3.55 c 1.13 -.221 1.657 .984 2.185 1.511 c .149 1.881 .373 4.148 -.677 5.73 c .299 .985 -.83 .985 -.83 1.886 c -2.264 3.09 -3.621 9.427 -9.127 7.994 c -2.786 -2.488 -4.975 -5.354 -4.299 -9.501 c .831 -3.472 3.393 -5.88 5.656 -8.525 c 1.208 -.071 1.433 .536 2.184 1.063" fill="#343536"/><path clip-rule="evenodd" d="m 147.917 337.168 c .98 .756 1.885 -.303 2.865 -.527 l .905 -.154 c .827 4.148 -1.512 7.163 -4.298 9.654 c -1.89 .831 -.606 3.621 -2.72 4.447 c -1.507 2.189 -2.563 4.527 -3.546 6.939 c -.672 .98 -1.653 1.657 -2.333 2.334 c -.602 -2.861 3.089 -6.178 0 -8.595 c -.075 -.756 -.905 -1.279 -1.438 -1.732 c -1.652 -.298 -2.408 2.035 -3.392 3.089 c -1.354 1.134 -1.806 3.019 -2.712 4.68 v .527 c -.457 -.756 -.302 -2.189 -.149 -3.169 c 1.055 -.681 .149 -2.258 1.354 -2.79 c .153 -2.035 2.715 -4.522 .377 -6.108 c -1.283 -.453 -2.184 .606 -2.865 1.433 c -.453 2.337 -2.79 3.472 -3.09 5.88 l -.83 1.059 c .304 -.527 -.532 -.527 -.532 -.527 c -.071 -2.94 .905 -6.035 2.865 -7.994 c 2.189 -2.039 5.432 -3.846 8.973 -2.338 c 1.74 .149 2.189 -1.582 2.795 -2.865 c .607 -1.96 3.317 -4.451 .83 -6.183 c -1.129 -.378 -1.964 -1.283 -2.869 -1.964 l .681 -.676 c 3.394 .601 6.866 3.313 9.129 5.58 m -1.208 3.543 c 0 2.715 -1.209 5.282 -2.866 7.088 c -1.358 -.225 -1.885 -1.279 -2.566 -2.333 c -.901 -2.79 1.283 -4.754 3.094 -6.258 c .905 .22 2.035 .448 2.338 1.503 z" fill="#343536" fill-rule="evenodd"/><path clip-rule="evenodd" d="m 126.195 356.17 c 2.413 1.512 4.224 2.865 6.486 4.75 c 1.507 1.508 3.696 2.413 4.904 3.845 h -.377 c -1.885 2.642 -3.168 5.731 -6.108 6.641 c -.606 .527 -.681 1.13 -.453 1.885 c 2.034 .752 1.358 3.093 1.129 4.746 c -.83 1.208 0 3.094 -1.208 4.074 c -.602 1.811 -1.358 3.7 -2.189 5.278 l -.523 -.225 c -.303 .225 -.154 .602 -.154 .904 c .154 -1.357 -.676 -2.636 -1.353 -3.625 c .448 -1.955 .448 -4.596 .826 -6.785 c -.449 -.602 -.224 -1.732 -1.283 -1.653 c -1.429 .149 -1.96 1.582 -2.711 2.563 c -.756 1.279 -1.06 2.786 -1.886 4.074 c .378 .752 -.681 .826 -.835 1.204 c -1.279 .229 -.826 -1.88 -.905 -2.939 c .153 -3.019 2.188 -5.204 1.586 -8.451 c -.602 -.522 -1.284 -1.125 -2.109 -1.05 c -1.433 1.209 -1.661 2.637 -2.641 3.92 c -.677 1.428 -1.432 3.015 -1.357 4.899 c -1.056 .835 -1.056 -.826 -1.583 -1.129 c -.457 -1.964 .755 -3.318 .826 -5.124 c .831 -1.964 2.412 -3.924 4.303 -4.75 c .976 -1.133 3.015 .07 3.542 -1.661 c .303 -2.492 -1.956 -4.754 -.527 -7.466 c -.299 -1.209 0 -3.094 1.054 -3.925 c 1.134 -.149 2.491 -.149 3.546 0 m 4.751 8.447 c .83 .527 2.187 1.129 2.566 2.188 c -.079 .756 -.756 1.433 -1.507 1.736 c -2.795 .303 -4.979 -1.964 -6.188 -4.227 c -.374 -.902 -1.129 -2.035 -.453 -3.089 c 2.338 .526 3.543 2.486 5.582 3.392 z" fill="#343536" fill-rule="evenodd"/><path clip-rule="evenodd" d="m 113.676 384.444 c 2.865 1.367 5.655 3.248 8.824 4.307 c 1.283 -.904 1.811 .527 3.015 .527 c .378 2.865 .079 5.81 -1.354 8.069 v .526 c -1.204 1.284 -2.865 2.865 -5.054 2.185 c -1.661 -1.657 -3.696 -2.861 -3.243 -5.577 c -.528 -.834 .154 -2.416 -.905 -3.019 c -1.204 -.378 -1.204 .831 -1.965 1.209 c -1.428 1.661 -4.372 3.242 -5.124 5.431 c -.532 -1.059 .224 -2.416 .831 -3.247 c 1.433 -2.184 5.577 -4.073 4.597 -7.69 c -1.056 -1.586 -3.842 -1.437 -3.921 -2.721 c 1.059 -.145 1.354 -1.274 2.716 -.826 c .149 .826 1.055 .532 1.583 .826 m 9.425 9.739 c -.145 1.126 .378 2.637 -.979 3.015 c -1.204 -.153 -1.283 -1.511 -1.732 -2.342 c -.153 -.826 .071 -1.731 .752 -2.184 c .755 .526 1.437 .676 1.959 1.511 z" fill="#343536" fill-rule="evenodd"/><path clip-rule="evenodd" d="m 116.316 401.948 c .453 .751 1.129 1.283 2.034 1.586 c 1.507 2.408 4.074 3.085 5.81 5.349 c -.756 1.059 -.303 2.79 -.831 3.77 c -4.979 .229 -10.406 -.603 -15.082 .681 c -1.208 -.228 -2.337 .378 -3.467 0 c 1.353 -.984 3.313 -1.965 4.298 -3.695 c .452 -2.712 -.08 -5.735 -1.513 -7.994 c -.075 -1.134 .607 -1.96 1.513 -2.566 c 2.866 -.221 5.055 1.586 7.238 2.869 m 1.209 6.332 c -.905 1.433 -3.168 .756 -4.755 1.134 c -1.05 -.681 -.299 -1.661 -.149 -2.566 c 1.656 -.98 3.542 .377 4.904 1.432 z" fill="#343536" fill-rule="evenodd"/><path clip-rule="evenodd" d="m 119.107 444.175 l 1.507 1.438 c .527 2.486 -.756 4.143 -1.507 6.103 c -.602 1.513 -1.582 2.945 -3.393 3.318 c -3.392 .309 -8.222 .98 -9.882 -2.333 c -1.204 -1.89 -2.035 -4.526 -3.771 -5.959 c -.681 -3.168 2.193 -5.054 4.302 -6.785 c 5.278 -1.513 8.671 2.71 12.744 4.218 m -2.418 6.49 c .08 .673 -.448 1.353 -1.199 1.05 c -2.567 .532 -4.382 -.747 -6.267 -1.427 c -.448 -.532 -.601 -1.135 -.523 -1.81 c -.756 -1.21 -2.492 -2.492 -1.661 -4.074 c 3.999 .829 7.317 3.242 9.65 6.261 z" fill="#343536" fill-rule="evenodd"/><path d="m 114.356 418.915 c 2.109 1.353 4.526 2.418 5.731 4.751 c .979 .602 .452 2.034 .373 2.939 c -.98 1.353 -.528 4.602 -2.936 4.377 c -1.885 -1.814 -1.134 -5.432 -4.074 -6.416 c -2.039 -1.657 -4.372 -3.314 -7.088 -2.408 c -1.736 .677 -1.059 2.566 -1.582 3.771 c 1.428 2.03 1.05 6.56 5.124 5.73 c 1.059 1.055 3.019 .229 3.925 1.209 c 1.506 -.304 2.263 1.208 3.84 .825 c -.145 .682 .611 .453 .91 .682 c -.603 .677 -.677 1.582 -.831 2.412 c -.224 .075 -.528 -.074 -.681 .154 v .295 c -4.373 -1.353 -9.198 -2.488 -14.251 -2.185 c .303 -.304 -.453 -.598 -.677 -.677 c .299 .225 .523 -.299 .453 -.682 c .905 -.825 1.885 -1.428 2.258 -2.561 c -.448 -2.646 -2.861 -3.393 -2.109 -6.565 c .755 -1.055 1.204 -2.259 1.582 -3.468 c 1.129 -1.656 3.094 -2.412 4.899 -3.317 c 1.663 .528 3.702 0 5.134 1.134" fill="#343536"/><path d="m 121.972 458.804 c -.149 4.909 -4.974 6.412 -7.839 9.202 c .976 2.114 3.915 1.209 5.8 1.811 l 4.074 .527 c -.374 0 -.224 .901 0 .681 c -.752 .528 0 2.94 -1.582 3.015 c -2.492 .15 -5.357 .379 -7.466 -.676 c -2.865 -.457 -5.88 -.378 -8.447 -1.508 h -1.661 c -.448 -1.06 1.204 -1.885 1.815 -2.342 c 1.354 -.299 2.865 -.528 3.92 -1.358 c 2.109 .154 2.408 -2.711 4.373 -3.089 c .601 -.528 .979 -1.134 1.059 -1.89 c -2.72 -1.429 -5.734 -2.259 -8.828 -2.712 c -.827 -.603 -1.886 -.603 -3.015 -.603 c .676 -1.361 2.637 -2.337 3.695 -3.62 c 4.149 1.881 9.351 1.881 14.102 2.562" fill="#343536"/><path clip-rule="evenodd" d="m 142.485 526.677 c 1.055 1.055 .831 3.394 .677 5.049 c -1.204 3.701 -6.258 4.003 -6.939 8.376 c -2.562 .523 -5.054 2.413 -6.482 3.915 c -.148 -1.049 -.905 -.671 -.834 -1.88 c .834 -2.715 3.923 -4.223 3.396 -7.467 c -1.512 -4.073 -9.347 1.438 -8.297 -4.979 c 2.641 -4.373 9.048 -2.408 13.579 -3.691 c 1.886 -.377 3.17 .677 4.9 .677 m -7.465 5.804 c 0 .305 .075 .682 -.303 .831 c -.378 .149 -.602 -.149 -.905 -.228 c .302 -.298 .83 -1.652 1.208 -.603 z" fill="#343536" fill-rule="evenodd"/><path clip-rule="evenodd" d="m 162.546 555.712 c .677 .526 .299 1.587 1.129 2.033 c .532 3.095 -.148 6.035 -2.034 8.293 c .154 .308 .374 .757 .826 .682 c 2.945 .527 5.054 -2.865 7.546 -.682 c -.079 .612 .602 1.89 .452 1.513 c -.452 0 -.378 .526 -.531 .68 c -3.841 2.264 -8.825 1.887 -11.839 5.428 c .378 3.318 3.015 4.899 5.581 6.481 c 3.546 -.672 7.093 -1.203 10.332 -2.711 c 1.358 -.224 2.791 -1.507 4.073 -.224 c 1.134 .377 2.338 -.15 3.243 -.457 c 1.732 .531 1.284 2.646 2.189 3.849 c .149 1.662 -2.343 2.867 -2.869 4.597 c -3.996 2.269 -6.183 7.093 -9.954 9.054 l -.528 -.379 c -.227 .08 -.075 .379 -.148 .527 c 0 -1.503 -1.433 -5.053 1.279 -5.276 c .755 -.305 .079 -.911 .079 -1.358 c -2.189 -1.205 -4.228 -5.203 -7.317 -3.015 c -.224 .751 -1.283 .602 -1.885 .447 c .602 -.149 0 -.602 0 -.979 c .602 -2.488 -1.811 -2.862 -3.243 -3.921 c -1.279 -.448 -2.264 -1.656 -2.865 -3.015 l -.303 -6.112 c .905 -.149 .681 -1.205 .681 -1.731 c -2.487 -.602 -5.054 -.98 -7.695 -1.205 c -.224 -.377 -.826 -.68 -1.354 -.532 c -.308 -3.087 -4.073 -4.977 -1.511 -8.142 c .378 -.905 1.204 -1.354 1.736 -2.039 c 3.015 -2.408 6.785 -3.771 11.008 -4.069 c 1.51 .526 2.863 .905 3.922 2.263 m -2.262 3.92 c .298 2.711 -2.94 3.09 -4.755 4.073 c -2.334 .149 -5.353 .677 -6.561 -1.731 c 1.362 -2.188 4.526 -2.342 6.79 -3.393 c 1.735 -.232 2.939 .901 4.526 1.051 z m 16.439 22.547 c -.532 1.433 -1.736 2.939 -3.318 3.244 c -.751 -.599 -1.129 -.906 -1.74 -1.736 c 1.437 -1.129 3.247 -2.413 5.058 -1.508 z" fill="#343536" fill-rule="evenodd"/><path clip-rule="evenodd" d="m 127.404 494.25 c .149 1.661 1.054 3.168 1.354 4.899 c .382 .15 .382 1.06 .527 1.587 c .985 2.939 4.003 4.452 4.377 7.466 c .149 .603 -.453 1.204 .149 1.661 c -3.164 .673 -6.258 -3.625 -10.028 -1.512 c -1.433 2.417 -.602 5.732 -1.661 8.297 c -.07 .602 .378 1.358 1.06 1.358 c 3.392 -2.264 8.142 -2.491 11.46 -4.75 c 2.412 .074 1.96 2.935 2.944 4.447 c .075 .754 -.154 1.89 .673 2.034 c -.827 .377 -.374 1.735 -1.05 2.039 c -.527 1.208 -2.188 1.208 -3.397 1.507 l -3.92 -.836 c -2.715 -.521 -4.601 -4.218 -7.615 -1.879 c -.83 .377 -1.661 -.075 -2.487 -.149 c .448 -.532 .901 -1.363 .672 -2.264 c -.448 -.98 -1.578 -.303 -2.11 -1.13 c -3.77 -1.059 -4.749 -5.659 -7.466 -7.997 c .756 .229 2.87 -.603 3.472 .676 c 1.582 .308 2.413 2.267 3.994 2.87 c .229 .452 1.06 .756 1.737 .682 c .527 -.906 .681 -2.488 .373 -3.696 c .756 -1.134 .229 -2.721 1.134 -3.77 c .457 -1.433 -1.429 -1.283 -1.662 -2.343 c -1.05 -2.188 -1.884 -4.825 -4.069 -6.258 c -.985 -.069 -2.487 -.373 -2.94 .835 c -.602 3.015 1.129 5.354 2.11 7.462 c -.155 .528 .302 .905 .606 .985 c -1.138 .597 -.606 -1.135 -1.507 -.985 c .145 -.527 -.532 -.527 -.682 -.676 c -.527 -1.587 -2.342 -2.492 -2.488 -4.228 c -.457 -.9 -.755 -2.482 -.232 -3.616 c .307 .074 .457 -.149 .681 -.303 c .229 -.752 1.582 -.149 2.039 -1.056 c 2.263 .149 2.791 -3.998 4.974 -1.512 c 1.964 0 4.676 .757 5.581 -1.503 v -.377 c 1.133 .677 2.188 1.354 3.397 2.035 m 8.297 22.926 c .145 .678 .448 1.433 .145 2.186 c -.826 1.133 -2.711 .68 -3.84 .377 c -.532 -.225 -2.264 -.452 -1.213 -1.508 c 1.511 -.676 3.247 -2.866 4.908 -1.055 z m -10.486 -19.309 c .756 1.282 1.433 2.112 1.512 3.55 c .677 .379 .827 1.204 .528 1.881 c -.905 .984 -2.566 .527 -3.775 .453 c -1.358 -1.955 -3.019 -3.845 -2.711 -6.407 c 1.053 -1.059 3.695 -1.059 4.446 .523 z" fill="#343536" fill-rule="evenodd"/><path d="m 155.757 534.975 c 0 1.428 1.133 2.336 1.133 3.768 c .756 1.205 -.079 3.544 1.886 4.07 c .602 .154 2.109 .532 1.357 1.363 c -1.283 .377 -2.114 1.427 -3.696 .825 c -.909 -.905 -2.716 -.825 -2.417 -2.565 c -.673 -.981 -.378 -2.488 -.827 -3.693 c -.378 -1.81 -.755 -3.247 -1.736 -4.904 l .149 -.903 c 1.21 .301 2.648 1.809 4.151 2.039" fill="#343536"/><path d="m 148.897 539.948 l -.154 2.339 c -.676 .681 -1.433 1.89 -2.034 2.715 c -.831 .602 -.677 1.81 -.677 2.865 c .448 1.203 1.357 .078 1.885 -.149 c .98 -.831 1.652 -1.66 2.865 -1.89 c .602 .08 1.811 1.283 2.259 2.039 c -.149 1.363 -1.129 2.188 -2.034 2.945 c -1.582 1.352 -3.696 2.558 -4.975 4.218 c -2.413 .756 -4.755 1.208 -6.561 2.715 c .225 -.373 -.229 -.373 -.378 -.526 h -.303 v -3.244 c 2.413 -2.411 5.357 -5.201 4.9 -9.271 c -.751 -.831 -1.811 -.08 -2.712 -.08 c -1.362 .532 -2.337 1.136 -3.626 1.89 c -1.274 .15 -2.03 .828 -3.015 1.504 l -1.204 -.149 c .075 -.826 -.83 -.602 -.68 -1.507 c 2.417 -4.527 8.599 -3.696 11.539 -8.446 c 1.737 -.002 3.772 .6 4.905 2.032" fill="#343536"/><path d="m 128.182 451.431 c -2.162 -2.079 -.787 -.805 -3.674 -2.575 c -.879 -1.556 -1.191 -.849 -.545 -1.341 c 1.01 -.643 2.364 -1.002 2.821 .088 c 2.193 3.136 2.795 4.09 1.398 3.828" fill="#343536"/><path d="m 256.861 607.589 c -2.799 1.08 -1.063 .369 -3.889 2.24 c -1.784 .142 -1.275 .722 -1.446 -.074 c -.158 -1.187 .092 -2.562 1.274 -2.519 c 3.767 -.659 4.887 -.808 4.061 .353" fill="#343536"/></g></g></g></svg>