<?xml version="1.0" encoding="iso-8859-1"?>
<!-- Generator: Adobe Illustrator 24.0.1, SVG Export Plug-In . SVG Version: 6.00 Build 0)  -->
<svg version="1.1" id="Layer_1" xmlns="http://www.w3.org/2000/svg" xmlns:xlink="http://www.w3.org/1999/xlink" x="0px" y="0px"
	 viewBox="-19 -19.5 595 595" style="enable-background:new -19 -19.5 595 595;" xml:space="preserve">
<g>
	<path style="fill:#FFFFFF;stroke:#C29256;stroke-width:5.3367;stroke-miterlimit:3.8637;" d="M19.168,277.643
		c0-142.753,115.721-258.474,258.474-258.474c142.752,0,258.474,115.721,258.474,258.474c0,142.753-115.722,258.474-258.474,258.474
		C134.889,536.116,19.168,420.396,19.168,277.643L19.168,277.643z"/>
	<path style="fill:#FFFFFF;" d="M23.531,277.643c0-140.344,113.768-254.111,254.112-254.111
		c140.343,0,254.111,113.768,254.111,254.111S417.986,531.754,277.643,531.754S23.531,417.986,23.531,277.643L23.531,277.643z"/>
	<path style="fill:#00A651;" d="M308.523,397.421l-23.668,134.233c-2.396,0.065-4.801,0.1-7.213,0.1
		c-11.689,0-23.193-0.789-34.463-2.317l30.211-171.342l31.633,36.519C306.146,395.908,307.335,396.838,308.523,397.421
		L308.523,397.421z M371.309,41.35L343.141,201.1l-41.977-0.518l30.215-171.358C345.136,32.185,358.478,36.26,371.309,41.35
		L371.309,41.35z"/>
	<path style="fill:#C29256;" d="M116.744,188.001h1.127c3.154,0,4.239,1.001,3.706,4.756c-0.483,3.405-2.192,4.857-4.946,4.857
		h-1.251L116.744,188.001L116.744,188.001z M116.634,201.821c5.784,0,9.933-2.604,10.896-9.388c0.842-5.934-2.379-8.637-8.187-8.637
		h-7.911l-2.559,18.025H116.634L116.634,201.821z"/>
	<polygon style="fill:#C29256;" points="134.524,201.821 137.083,183.795 131.175,183.795 128.617,201.821 	"/>
	<polygon style="fill:#C29256;" points="152.365,201.821 152.963,197.615 144.851,197.615 146.813,183.795 140.905,183.795 
		138.346,201.821 	"/>
	<polygon style="fill:#C29256;" points="170.089,201.821 170.686,197.615 161.548,197.615 161.95,194.786 169.385,194.786 
		169.982,190.58 162.547,190.58 162.913,188.001 171.7,188.001 172.297,183.795 157.602,183.795 155.043,201.821 	"/>
	<polygon style="fill:#C29256;" points="173.87,188.527 179.177,188.527 177.289,201.821 183.198,201.821 185.085,188.527 
		190.392,188.527 191.064,183.795 174.542,183.795 	"/>
	<polygon style="fill:#C29256;" points="191.936,188.527 197.242,188.527 195.355,201.821 201.264,201.821 203.15,188.527 
		208.458,188.527 209.13,183.795 192.607,183.795 	"/>
	<path style="fill:#C29256;" d="M217.947,195.687h-3.73l2.745-6.459L217.947,195.687L217.947,195.687z M211.544,201.821l1.014-2.378
		h5.883l0.363,2.378h5.883l-3.9-18.025h-6.008l-9.018,18.025H211.544L211.544,201.821z"/>
	<polygon style="fill:#C29256;" points="234.771,183.795 229.239,183.795 226.68,201.821 232.338,201.821 233.148,196.113 
		233.506,192.007 238.547,201.821 244.08,201.821 246.638,183.795 240.98,183.795 240.167,189.528 239.809,193.634 	"/>
	<polygon style="fill:#C29256;" points="248.461,188.527 253.768,188.527 251.881,201.821 257.789,201.821 259.676,188.527 
		264.983,188.527 265.655,183.795 249.133,183.795 	"/>
	<polygon style="fill:#C29256;" points="271.674,201.821 274.233,183.795 268.325,183.795 265.766,201.821 	"/>
	<polygon style="fill:#C29256;" points="121.105,155.337 115.574,155.337 113.014,173.362 118.672,173.362 119.482,167.654 
		119.84,163.548 124.88,173.362 130.413,173.362 132.972,155.337 127.314,155.337 126.5,161.069 126.143,165.175 	"/>
	<path style="fill:#C29256;" d="M144.593,167.228h-3.73l2.744-6.459L144.593,167.228L144.593,167.228z M138.19,173.362l1.013-2.378
		h5.883l0.363,2.378h5.883l-3.9-18.025h-6.009l-9.018,18.025H138.19L138.19,173.362z"/>
	<polygon style="fill:#C29256;" points="168.748,173.362 169.344,169.156 160.232,169.156 170.362,159.518 170.957,155.337 
		155.41,155.337 154.812,159.542 163.099,159.542 153.107,169.081 152.5,173.362 	"/>
	<polygon style="fill:#C29256;" points="177.475,173.362 180.034,155.337 174.126,155.337 171.567,173.362 	"/>
	<path style="fill:#C29256;" d="M191.759,159.267c2.614-0.075,3.246,2.528,2.898,4.982c-0.423,2.979-1.737,5.183-4.291,5.183
		c-2.829,0-3.122-2.879-2.794-5.183C187.896,161.971,189.081,159.267,191.759,159.267L191.759,159.267z M192.435,154.861
		c-5.608,0-9.96,3.681-10.764,9.338c-0.871,6.133,2.412,9.638,8.07,9.638c5.333,0,9.954-3.455,10.824-9.588
		C201.241,159.493,198.869,154.861,192.435,154.861L192.435,154.861z"/>
	<polygon style="fill:#C29256;" points="210.058,155.337 204.525,155.337 201.966,173.362 207.624,173.362 208.434,167.654 
		208.792,163.548 213.833,173.362 219.366,173.362 221.924,155.337 216.266,155.337 215.452,161.069 215.095,165.175 	"/>
	<path style="fill:#C29256;" d="M233.544,167.228h-3.73l2.745-6.459L233.544,167.228L233.544,167.228z M227.141,173.362l1.014-2.378
		h5.883l0.364,2.378h5.883l-3.901-18.025h-6.008l-9.017,18.025H227.141L227.141,173.362z"/>
	<polygon style="fill:#C29256;" points="256.472,173.362 257.069,169.156 248.958,169.156 250.92,155.337 245.012,155.337 
		242.453,173.362 	"/>
	<polygon style="fill:#C29256;" points="274.196,173.362 274.793,169.156 265.655,169.156 266.057,166.327 273.492,166.327 
		274.089,162.121 266.654,162.121 267.02,159.542 275.807,159.542 276.404,155.337 261.708,155.337 259.15,173.362 	"/>
	<polygon style="fill:#C29256;" points="131.249,144.903 131.846,140.697 123.735,140.697 125.697,126.878 119.789,126.878 
		117.23,144.903 	"/>
	<polygon style="fill:#C29256;" points="148.973,144.903 149.57,140.697 140.431,140.697 140.833,137.868 148.269,137.868 
		148.866,133.662 141.43,133.662 141.796,131.083 150.583,131.083 151.181,126.878 136.485,126.878 133.926,144.903 	"/>
	<path style="fill:#C29256;" d="M170.674,134.989h-8.086l-0.555,3.905h2.604c-0.478,1.252-2.123,2.078-3.324,2.078
		c-2.979,0-3.45-2.329-3.087-4.882c0.451-3.18,1.852-5.282,4.18-5.282c1.527,0,2.49,0.801,2.706,2.278h5.608
		c-0.098-4.431-3.257-6.684-7.588-6.684c-5.833,0-10,3.956-10.817,9.713c-0.891,6.284,2.816,9.262,7.422,9.262
		c2.829,0,4.605-1.051,5.746-2.203l-0.027,1.778h3.805L170.674,134.989L170.674,134.989z"/>
	<path style="fill:#C29256;" d="M183.396,138.769h-3.73l2.745-6.459L183.396,138.769L183.396,138.769z M176.992,144.903l1.014-2.378
		h5.883l0.363,2.378h5.883l-3.9-18.025h-6.009l-9.018,18.025H176.992L176.992,144.903z"/>
	<path style="fill:#0092D5;" d="M87.208,390.268h2.754c1.377,0,2.293,0.602,2.112,1.877c-0.178,1.253-1.218,1.703-3.045,1.703H86.7
		L87.208,390.268L87.208,390.268z M87.941,397.803c2.754,0,3.044,0.776,2.71,3.129c-0.228,1.604-0.24,2.756-0.147,3.154h5.983
		l0.079-0.551c-0.702,0-0.513-0.8-0.179-3.153c0.516-3.631-0.572-4.081-2.375-4.782c2.185-0.574,3.36-2.328,3.655-4.404
		c0.497-3.505-1.249-5.134-7.258-5.134h-8.512l-2.559,18.024h5.907l0.893-6.283H87.941L87.941,397.803z"/>
	<path style="fill:#0092D5;" d="M109.645,389.992c2.614-0.075,3.246,2.527,2.897,4.98c-0.423,2.98-1.737,5.184-4.291,5.184
		c-2.829,0-3.121-2.879-2.794-5.184C105.78,392.695,106.966,389.992,109.645,389.992L109.645,389.992z M110.32,385.586
		c-5.608,0-9.96,3.681-10.764,9.338c-0.871,6.134,2.413,9.64,8.07,9.64c5.332,0,9.953-3.455,10.824-9.59
		C119.125,390.217,116.754,385.586,110.32,385.586L110.32,385.586z"/>
	<polygon style="fill:#0092D5;" points="124.933,404.086 125.8,397.978 126.073,395.175 126.2,392.521 126.25,392.521 
		127.887,404.086 131.992,404.086 136.914,392.521 136.964,392.521 136.202,395.775 135.729,398.579 134.946,404.086 
		140.254,404.086 142.813,386.063 135.678,386.063 130.903,397.302 129.319,386.063 122.184,386.063 119.625,404.086 	"/>
	<path style="fill:#0092D5;" d="M154.208,397.953h-3.73l2.745-6.459L154.208,397.953L154.208,397.953z M147.805,404.086l1.014-2.378
		h5.883l0.364,2.378h5.883l-3.9-18.023h-6.008l-9.018,18.023H147.805L147.805,404.086z"/>
	<polygon style="fill:#0092D5;" points="149.37,429.644 151.778,412.68 146.218,412.68 143.81,429.644 	"/>
	<polygon style="fill:#0092D5;" points="153.211,417.133 158.206,417.133 156.43,429.644 161.991,429.644 163.767,417.133 
		168.761,417.133 169.394,412.68 153.844,412.68 	"/>
	<path style="fill:#0092D5;" d="M177.221,423.871h-3.51l2.583-6.078L177.221,423.871L177.221,423.871z M171.194,429.644l0.954-2.237
		h5.537l0.342,2.237h5.537l-3.67-16.964h-5.655l-8.486,16.964H171.194L171.194,429.644z"/>
	<polygon style="fill:#0092D5;" points="198.328,429.644 198.889,425.686 191.255,425.686 193.102,412.68 187.542,412.68 
		185.134,429.644 	"/>
	<polygon style="fill:#0092D5;" points="205.937,429.644 208.344,412.68 202.785,412.68 200.376,429.644 	"/>
	<path style="fill:#0092D5;" d="M218.999,423.871h-3.511l2.583-6.078L218.999,423.871L218.999,423.871z M212.973,429.644
		l0.954-2.237h5.537l0.342,2.237h5.537l-3.67-16.964h-5.654l-8.486,16.964H212.973L212.973,429.644z"/>
	<polygon points="375.478,87.391 389.167,87.629 388.555,91.47 380.426,91.328 379.928,94.448 386.869,94.57 386.293,98.179 
		379.352,98.057 378.184,105.36 372.622,105.263 	"/>
	<polygon points="374.615,115.838 380.164,115.935 377.309,133.808 371.759,133.711 	"/>
	<path d="M371.49,155.677l0.594-3.718l8.557,0.149l-1.219,7.62c-1.814,1.085-3.388,1.819-4.716,2.204
		c-1.317,0.376-2.841,0.549-4.567,0.519c-2.127-0.037-3.806-0.428-5.033-1.175c-1.222-0.747-2.088-1.842-2.602-3.285
		c-0.504-1.443-0.607-3.091-0.313-4.945c0.312-1.951,0.985-3.638,2.022-5.063c1.038-1.433,2.395-2.509,4.07-3.229
		c1.306-0.556,2.986-0.816,5.039-0.78c1.98,0.034,3.431,0.24,4.352,0.614c0.93,0.375,1.654,0.946,2.178,1.713
		c0.532,0.759,0.869,1.719,1.012,2.878l-5.493,0.858c-0.112-0.678-0.405-1.201-0.877-1.568c-0.466-0.367-1.105-0.557-1.919-0.572
		c-1.215-0.021-2.252,0.385-3.111,1.217c-0.852,0.825-1.422,2.147-1.713,3.968c-0.311,1.935-0.168,3.323,0.425,4.164
		c0.601,0.842,1.554,1.274,2.857,1.297c0.619,0.011,1.225-0.068,1.816-0.237c0.59-0.169,1.282-0.462,2.075-0.881l0.271-1.682
		L371.49,155.677L371.49,155.677z"/>
	<path d="M370.697,183.295l4.619,1.547c-0.543,1.352-1.238,2.476-2.084,3.375c-0.848,0.898-1.828,1.569-2.944,2.015
		c-1.109,0.445-2.466,0.653-4.071,0.625c-1.947-0.034-3.496-0.342-4.645-0.925c-1.141-0.59-2.043-1.604-2.713-3.042
		c-0.668-1.438-0.826-3.266-0.472-5.485c0.474-2.958,1.621-5.216,3.448-6.774c1.834-1.565,4.193-2.323,7.079-2.273
		c2.257,0.04,3.956,0.526,5.098,1.458c1.15,0.934,1.89,2.348,2.216,4.245l-5.063,1c-0.084-0.547-0.199-0.949-0.347-1.204
		c-0.242-0.428-0.569-0.759-0.98-0.995c-0.412-0.235-0.897-0.358-1.449-0.368c-1.255-0.022-2.297,0.466-3.126,1.461
		c-0.625,0.739-1.064,1.909-1.319,3.511c-0.317,1.983-0.233,3.35,0.25,4.1c0.486,0.742,1.275,1.122,2.367,1.141
		c1.061,0.019,1.904-0.264,2.539-0.848C369.739,185.275,370.271,184.421,370.697,183.295L370.697,183.295z"/>
	<polygon style="fill:#C29256;" points="338.807,401.415 330.603,396.386 321.417,401.415 324.477,391.593 317.665,384.878 
		327.758,383.836 332.734,374.657 335.912,383.836 345.8,384.878 337.672,391.593 	"/>
	<polygon style="fill:#C29256;" points="331.26,437.853 323.06,432.823 313.872,437.853 316.932,428.03 310.12,421.315 
		320.212,420.274 325.189,411.095 328.367,420.274 338.255,421.315 330.127,428.03 	"/>
	<polygon style="fill:#C29256;" points="326.746,471.18 318.545,466.15 309.357,471.18 312.417,461.357 305.605,454.643 
		315.698,453.601 320.676,444.422 323.853,453.601 333.74,454.643 325.613,461.357 	"/>
	<polygon style="fill:#C29256;" points="319.201,506.54 311,501.51 301.813,506.54 304.872,496.717 298.06,490.002 308.152,488.961 
		313.13,479.781 316.309,488.961 326.195,490.002 318.066,496.717 	"/>
	<polygon style="fill:#0092D5;" points="105.896,213.496 78.082,368.313 208.318,368.313 174.037,334.031 132.42,334.031 
		146.434,252.956 	"/>
	<path style="fill:#0092D5;" d="M185.894,329.72l21.347-117.302l74.606,81.076l16.17-85.388l87.332,1.078
		c0,0,75.897,2.158,75.897,83.231c0,44.85-39.248,72.999-70.441,75.533c-14.147,1.147-26.638,0.138-33.059,0.363l-19.857-23.853
		c7.245,3.005,15.191,4.664,23.524,4.664c33.939,0,61.451-27.513,61.451-61.452c0-33.938-27.513-61.451-61.451-61.451
		s-61.452,27.513-61.452,61.451c0,17.952,7.698,34.107,19.973,45.342l-9.191,56.648l-76.764-88.62l-10.568,66.195L185.894,329.72
		L185.894,329.72z"/>
	<path style="fill:#ED1C24;" d="M398.777,374.485L374.411,512.68c-14.226,5.862-29.097,10.472-44.481,13.688l26.598-150.838
		c0.638,0.218,1.178,0.352,1.486,0.341c6.487-0.229,19.108,0.777,33.402-0.384C393.831,375.292,396.291,374.956,398.777,374.485
		L398.777,374.485z M448.948,89.951L427.1,213.859c-10.445-5.876-20.723-8.9-28.361-10.478c-5.271-1.088-9.398-1.507-11.564-1.665
		l24.668-139.899C425.073,70.061,437.491,79.488,448.948,89.951L448.948,89.951z"/>
	<g>
		<g>
			<defs>
				<path id="SVGID_1_" d="M306.951,285.581c0-30.367,24.617-54.984,54.982-54.984c30.368,0,54.984,24.617,54.984,54.984
					c0,30.367-24.616,54.983-54.984,54.983C331.568,340.564,306.951,315.948,306.951,285.581L306.951,285.581z"/>
			</defs>
			<clipPath id="SVGID_2_">
				<use xlink:href="#SVGID_1_"  style="overflow:visible;"/>
			</clipPath>
			<path style="clip-path:url(#SVGID_2_);" d="M454.836,258.408c0-49.13-39.874-89.004-89.004-89.004
				c-49.131,0-89.004,39.874-89.004,89.004c0,49.13,39.874,89.004,89.004,89.004S454.836,307.538,454.836,258.408 M396.525,258.416
				L396.525,258.416c0,16.929-13.738,30.667-30.668,30.667c-16.928,0-30.668-13.739-30.668-30.667
				c0-16.928,13.74-30.668,30.668-30.668C382.787,227.748,396.525,241.487,396.525,258.416"/>
		</g>
		<g>
			<defs>
				<path id="SVGID_3_" d="M306.951,285.581c0-30.367,24.617-54.984,54.982-54.984c30.368,0,54.984,24.617,54.984,54.984
					c0,30.367-24.616,54.983-54.984,54.983C331.568,340.564,306.951,315.948,306.951,285.581L306.951,285.581z"/>
			</defs>
			<clipPath id="SVGID_4_">
				<use xlink:href="#SVGID_3_"  style="overflow:visible;"/>
			</clipPath>
			<path style="clip-path:url(#SVGID_4_);" d="M398.35,258.408c0-17.95-14.566-32.519-32.518-32.519
				c-17.951,0-32.52,14.568-32.52,32.519c0,17.95,14.568,32.518,32.52,32.518C383.783,290.926,398.35,276.357,398.35,258.408
				 M397.346,258.416L397.346,258.416c-0.002,17.38-14.106,31.486-31.486,31.486c-17.381,0-31.486-14.105-31.486-31.486
				c0-17.381,14.105-31.486,31.486-31.486C383.238,226.93,397.344,241.035,397.346,258.416"/>
		</g>
		<g>
			<defs>
				<path id="SVGID_5_" d="M306.951,285.581c0-30.367,24.617-54.984,54.982-54.984c30.368,0,54.984,24.617,54.984,54.984
					c0,30.367-24.616,54.983-54.984,54.983C331.568,340.564,306.951,315.948,306.951,285.581L306.951,285.581z"/>
			</defs>
			<clipPath id="SVGID_6_">
				<use xlink:href="#SVGID_5_"  style="overflow:visible;"/>
			</clipPath>
			<path style="clip-path:url(#SVGID_6_);fill:#1D1D1E;" d="M397.316,258.408c0-17.38-14.104-31.486-31.484-31.486
				c-17.381,0-31.486,14.105-31.486,31.486c0,17.38,14.105,31.486,31.486,31.486C383.212,289.895,397.316,275.788,397.316,258.408
				 M396.313,258.416L396.313,258.416c0,16.811-13.644,30.454-30.453,30.454c-16.811,0-30.455-13.643-30.455-30.454
				c0-16.811,13.645-30.454,30.455-30.454C382.669,227.962,396.313,241.605,396.313,258.416"/>
		</g>
		<g>
			<defs>
				<path id="SVGID_7_" d="M306.951,285.581c0-30.367,24.617-54.984,54.982-54.984c30.368,0,54.984,24.617,54.984,54.984
					c0,30.367-24.616,54.983-54.984,54.983C331.568,340.564,306.951,315.948,306.951,285.581L306.951,285.581z"/>
			</defs>
			<clipPath id="SVGID_8_">
				<use xlink:href="#SVGID_7_"  style="overflow:visible;"/>
			</clipPath>
			<path style="clip-path:url(#SVGID_8_);fill:#303031;" d="M396.285,258.408c0-16.811-13.643-30.454-30.453-30.454
				c-16.811,0-30.454,13.643-30.454,30.454c0,16.81,13.644,30.453,30.454,30.453C382.643,288.861,396.285,275.218,396.285,258.408
				 M395.279,258.416L395.279,258.416c0,16.241-13.182,29.421-29.422,29.421c-16.24,0-29.422-13.181-29.422-29.421
				c0-16.24,13.182-29.421,29.422-29.421C382.1,228.994,395.279,242.175,395.279,258.416"/>
		</g>
		<g>
			<defs>
				<path id="SVGID_9_" d="M306.951,285.581c0-30.367,24.617-54.984,54.982-54.984c30.368,0,54.984,24.617,54.984,54.984
					c0,30.367-24.616,54.983-54.984,54.983C331.568,340.564,306.951,315.948,306.951,285.581L306.951,285.581z"/>
			</defs>
			<clipPath id="SVGID_10_">
				<use xlink:href="#SVGID_9_"  style="overflow:visible;"/>
			</clipPath>
			<path style="clip-path:url(#SVGID_10_);fill:#403F41;" d="M395.253,258.408c0-16.241-13.181-29.421-29.421-29.421
				c-16.24,0-29.422,13.181-29.422,29.421c0,16.24,13.182,29.421,29.422,29.421C382.072,287.829,395.253,274.648,395.253,258.408
				 M394.247,258.416L394.247,258.416c0,15.67-12.718,28.389-28.39,28.389c-15.67,0-28.39-12.719-28.39-28.389
				c0-15.671,12.72-28.389,28.39-28.389C381.529,230.027,394.247,242.745,394.247,258.416"/>
		</g>
		<g>
			<defs>
				<path id="SVGID_11_" d="M306.951,285.581c0-30.367,24.617-54.984,54.982-54.984c30.368,0,54.984,24.617,54.984,54.984
					c0,30.367-24.616,54.983-54.984,54.983C331.568,340.564,306.951,315.948,306.951,285.581L306.951,285.581z"/>
			</defs>
			<clipPath id="SVGID_12_">
				<use xlink:href="#SVGID_11_"  style="overflow:visible;"/>
			</clipPath>
			<path style="clip-path:url(#SVGID_12_);fill:#48484A;" d="M394.221,258.408c0-15.671-12.718-28.389-28.389-28.389
				s-28.389,12.718-28.389,28.389c0,15.67,12.718,28.389,28.389,28.389S394.221,274.078,394.221,258.408 M393.215,258.416
				L393.215,258.416c0,15.101-12.256,27.357-27.355,27.357c-15.103,0-27.356-12.256-27.356-27.357
				c0-15.101,12.255-27.356,27.356-27.356C380.959,231.059,393.215,243.314,393.215,258.416"/>
		</g>
		<g>
			<defs>
				<path id="SVGID_13_" d="M306.951,285.581c0-30.367,24.617-54.984,54.982-54.984c30.368,0,54.984,24.617,54.984,54.984
					c0,30.367-24.616,54.983-54.984,54.983C331.568,340.564,306.951,315.948,306.951,285.581L306.951,285.581z"/>
			</defs>
			<clipPath id="SVGID_14_">
				<use xlink:href="#SVGID_13_"  style="overflow:visible;"/>
			</clipPath>
			<path style="clip-path:url(#SVGID_14_);fill:#4F5052;" d="M393.309,258.527c0-15.101-12.256-27.356-27.355-27.356
				c-15.102,0-27.355,12.256-27.355,27.356c0,15.101,12.254,27.356,27.355,27.356C381.053,285.884,393.309,273.628,393.309,258.527
				 M392.184,258.416L392.184,258.416c0,14.531-11.795,26.324-26.324,26.324c-14.531,0-26.324-11.793-26.324-26.324
				c0-14.531,11.793-26.324,26.324-26.324C380.389,232.091,392.184,243.884,392.184,258.416"/>
		</g>
		<g>
			<defs>
				<path id="SVGID_15_" d="M306.951,285.581c0-30.367,24.617-54.984,54.982-54.984c30.368,0,54.984,24.617,54.984,54.984
					c0,30.367-24.616,54.983-54.984,54.983C331.568,340.564,306.951,315.948,306.951,285.581L306.951,285.581z"/>
			</defs>
			<clipPath id="SVGID_16_">
				<use xlink:href="#SVGID_15_"  style="overflow:visible;"/>
			</clipPath>
			<path style="clip-path:url(#SVGID_16_);fill:#57575A;" d="M392.156,258.408c0-14.531-11.793-26.325-26.324-26.325
				c-14.531,0-26.324,11.793-26.324,26.325c0,14.531,11.793,26.324,26.324,26.324C380.363,284.732,392.156,272.938,392.156,258.408
				 M391.15,258.416L391.15,258.416c0,13.961-11.332,25.292-25.293,25.292c-13.961,0-25.291-11.331-25.291-25.292
				c0-13.961,11.33-25.292,25.291-25.292C379.818,233.124,391.15,244.454,391.15,258.416"/>
		</g>
		<g>
			<defs>
				<path id="SVGID_17_" d="M306.951,285.581c0-30.367,24.617-54.984,54.982-54.984c30.368,0,54.984,24.617,54.984,54.984
					c0,30.367-24.616,54.983-54.984,54.983C331.568,340.564,306.951,315.948,306.951,285.581L306.951,285.581z"/>
			</defs>
			<clipPath id="SVGID_18_">
				<use xlink:href="#SVGID_17_"  style="overflow:visible;"/>
			</clipPath>
			<path style="clip-path:url(#SVGID_18_);fill:#5E5F61;" d="M391.124,258.408c0-13.961-11.331-25.292-25.292-25.292
				c-13.961,0-25.292,11.331-25.292,25.292c0,13.961,11.331,25.292,25.292,25.292C379.793,283.7,391.124,272.369,391.124,258.408
				 M390.118,258.416L390.118,258.416c0,13.391-10.869,24.259-24.261,24.259s-24.26-10.868-24.26-24.259
				c0-13.391,10.868-24.26,24.26-24.26S390.118,245.024,390.118,258.416"/>
		</g>
		<g>
			<defs>
				<path id="SVGID_19_" d="M306.951,285.581c0-30.367,24.617-54.984,54.982-54.984c30.368,0,54.984,24.617,54.984,54.984
					c0,30.367-24.616,54.983-54.984,54.983C331.568,340.564,306.951,315.948,306.951,285.581L306.951,285.581z"/>
			</defs>
			<clipPath id="SVGID_20_">
				<use xlink:href="#SVGID_19_"  style="overflow:visible;"/>
			</clipPath>
			<path style="clip-path:url(#SVGID_20_);fill:#656668;" d="M390.212,258.408c0-13.392-10.869-24.26-24.26-24.26
				c-13.392,0-24.261,10.868-24.261,24.26c0,13.391,10.869,24.259,24.261,24.259C379.343,282.667,390.212,271.799,390.212,258.408
				 M389.085,258.416L389.085,258.416c0.001,12.821-10.405,23.227-23.228,23.227c-12.821,0-23.228-10.406-23.228-23.227
				c0-12.821,10.406-23.228,23.228-23.228C378.68,235.188,389.086,245.594,389.085,258.416"/>
		</g>
		<g>
			<defs>
				<path id="SVGID_21_" d="M306.951,285.581c0-30.367,24.617-54.984,54.982-54.984c30.368,0,54.984,24.617,54.984,54.984
					c0,30.367-24.616,54.983-54.984,54.983C331.568,340.564,306.951,315.948,306.951,285.581L306.951,285.581z"/>
			</defs>
			<clipPath id="SVGID_22_">
				<use xlink:href="#SVGID_21_"  style="overflow:visible;"/>
			</clipPath>
			<path style="clip-path:url(#SVGID_22_);fill:#6B6C6F;" d="M389.06,258.408c0-12.822-10.406-23.228-23.228-23.228
				c-12.822,0-23.229,10.406-23.229,23.228c0,12.821,10.406,23.227,23.229,23.227C378.654,281.635,389.06,271.229,389.06,258.408
				 M388.053,258.416L388.053,258.416c0,12.251-9.943,22.195-22.193,22.195c-12.252,0-22.195-9.943-22.195-22.195
				c0-12.252,9.943-22.195,22.195-22.195C378.109,236.221,388.053,246.164,388.053,258.416"/>
		</g>
		<g>
			<defs>
				<path id="SVGID_23_" d="M306.951,285.581c0-30.367,24.617-54.984,54.982-54.984c30.368,0,54.984,24.617,54.984,54.984
					c0,30.367-24.616,54.983-54.984,54.983C331.568,340.564,306.951,315.948,306.951,285.581L306.951,285.581z"/>
			</defs>
			<clipPath id="SVGID_24_">
				<use xlink:href="#SVGID_23_"  style="overflow:visible;"/>
			</clipPath>
			<path style="clip-path:url(#SVGID_24_);fill:#717376;" d="M388.027,258.408c0-12.252-9.943-22.195-22.195-22.195
				c-12.252,0-22.195,9.943-22.195,22.195c0,12.251,9.943,22.195,22.195,22.195C378.084,280.603,388.027,270.659,388.027,258.408
				 M387.021,258.416L387.021,258.416c-0.002,11.682-9.481,21.163-21.164,21.163c-11.682,0-21.162-9.481-21.162-21.163
				c0-11.682,9.48-21.163,21.162-21.163C377.54,237.253,387.021,246.734,387.021,258.416"/>
		</g>
		<g>
			<defs>
				<path id="SVGID_25_" d="M306.951,285.581c0-30.367,24.617-54.984,54.982-54.984c30.368,0,54.984,24.617,54.984,54.984
					c0,30.367-24.616,54.983-54.984,54.983C331.568,340.564,306.951,315.948,306.951,285.581L306.951,285.581z"/>
			</defs>
			<clipPath id="SVGID_26_">
				<use xlink:href="#SVGID_25_"  style="overflow:visible;"/>
			</clipPath>
			<path style="clip-path:url(#SVGID_26_);fill:#78797C;" d="M386.994,258.408c0-11.682-9.48-21.163-21.162-21.163
				c-11.682,0-21.163,9.48-21.163,21.163c0,11.682,9.482,21.162,21.163,21.162C377.514,279.57,386.994,270.089,386.994,258.408
				 M385.988,258.416L385.988,258.416c0,11.112-9.02,20.13-20.131,20.13c-11.111,0-20.131-9.019-20.131-20.13
				c0-11.111,9.02-20.13,20.131-20.13C376.971,238.285,385.988,247.304,385.988,258.416"/>
		</g>
		<g>
			<defs>
				<path id="SVGID_27_" d="M306.951,285.581c0-30.367,24.617-54.984,54.982-54.984c30.368,0,54.984,24.617,54.984,54.984
					c0,30.367-24.616,54.983-54.984,54.983C331.568,340.564,306.951,315.948,306.951,285.581L306.951,285.581z"/>
			</defs>
			<clipPath id="SVGID_28_">
				<use xlink:href="#SVGID_27_"  style="overflow:visible;"/>
			</clipPath>
			<path style="clip-path:url(#SVGID_28_);fill:#7E8082;" d="M385.962,258.408c0-11.112-9.018-20.13-20.13-20.13
				c-11.111,0-20.131,9.018-20.131,20.13c0,11.112,9.019,20.13,20.131,20.13C376.943,278.538,385.962,269.52,385.962,258.408
				 M384.956,258.416L384.956,258.416c0,10.542-8.556,19.098-19.099,19.098c-10.541,0-19.099-8.556-19.099-19.098
				c0-10.542,8.558-19.098,19.099-19.098C376.4,239.318,384.956,247.874,384.956,258.416"/>
		</g>
		<g>
			<defs>
				<path id="SVGID_29_" d="M306.951,285.581c0-30.367,24.617-54.984,54.982-54.984c30.368,0,54.984,24.617,54.984,54.984
					c0,30.367-24.616,54.983-54.984,54.983C331.568,340.564,306.951,315.948,306.951,285.581L306.951,285.581z"/>
			</defs>
			<clipPath id="SVGID_30_">
				<use xlink:href="#SVGID_29_"  style="overflow:visible;"/>
			</clipPath>
			<path style="clip-path:url(#SVGID_30_);fill:#848688;" d="M384.93,258.408c0-10.542-8.556-19.098-19.098-19.098
				s-19.098,8.556-19.098,19.098c0,10.542,8.556,19.097,19.098,19.097S384.93,268.95,384.93,258.408 M383.924,258.416
				L383.924,258.416c0,9.972-8.094,18.065-18.064,18.065c-9.973,0-18.066-8.093-18.066-18.065c0-9.972,8.094-18.066,18.066-18.066
				C375.83,240.35,383.924,248.443,383.924,258.416"/>
		</g>
		<g>
			<defs>
				<path id="SVGID_31_" d="M306.951,285.581c0-30.367,24.617-54.984,54.982-54.984c30.368,0,54.984,24.617,54.984,54.984
					c0,30.367-24.616,54.983-54.984,54.983C331.568,340.564,306.951,315.948,306.951,285.581L306.951,285.581z"/>
			</defs>
			<clipPath id="SVGID_32_">
				<use xlink:href="#SVGID_31_"  style="overflow:visible;"/>
			</clipPath>
			<path style="clip-path:url(#SVGID_32_);fill:#8A8C8F;" d="M383.896,258.408c0-9.973-8.094-18.066-18.064-18.066
				c-9.973,0-18.064,8.093-18.064,18.066c0,9.972,8.092,18.065,18.064,18.065C375.805,276.473,383.896,268.38,383.896,258.408
				 M382.893,258.416L382.893,258.416c0,9.402-7.632,17.033-17.033,17.033c-9.402,0-17.033-7.631-17.033-17.033
				c0-9.402,7.631-17.033,17.033-17.033C375.261,241.383,382.893,249.013,382.893,258.416"/>
		</g>
		<g>
			<defs>
				<path id="SVGID_33_" d="M306.951,285.581c0-30.367,24.617-54.984,54.982-54.984c30.368,0,54.984,24.617,54.984,54.984
					c0,30.367-24.616,54.983-54.984,54.983C331.568,340.564,306.951,315.948,306.951,285.581L306.951,285.581z"/>
			</defs>
			<clipPath id="SVGID_34_">
				<use xlink:href="#SVGID_33_"  style="overflow:visible;"/>
			</clipPath>
			<path style="clip-path:url(#SVGID_34_);fill:#909295;" d="M382.984,258.527c0-9.402-7.631-17.033-17.032-17.033
				c-9.402,0-17.033,7.631-17.033,17.033c0,9.402,7.631,17.034,17.033,17.034C375.353,275.561,382.984,267.93,382.984,258.527
				 M381.859,258.416L381.859,258.416c0,8.833-7.17,16.001-16.002,16.001c-8.832,0-16-7.168-16-16.001
				c0-8.833,7.168-16.001,16-16.001C374.689,242.415,381.859,249.583,381.859,258.416"/>
		</g>
		<g>
			<defs>
				<path id="SVGID_35_" d="M306.951,285.581c0-30.367,24.617-54.984,54.982-54.984c30.368,0,54.984,24.617,54.984,54.984
					c0,30.367-24.616,54.983-54.984,54.983C331.568,340.564,306.951,315.948,306.951,285.581L306.951,285.581z"/>
			</defs>
			<clipPath id="SVGID_36_">
				<use xlink:href="#SVGID_35_"  style="overflow:visible;"/>
			</clipPath>
			<path style="clip-path:url(#SVGID_36_);fill:#96989B;" d="M381.833,258.408c0-8.833-7.169-16.001-16.001-16.001
				c-8.833,0-16.001,7.169-16.001,16.001s7.168,16.001,16.001,16.001C374.664,274.409,381.833,267.24,381.833,258.408
				 M380.827,258.416L380.827,258.416c0,8.263-6.706,14.969-14.97,14.969c-8.262,0-14.969-6.706-14.969-14.969
				c0-8.263,6.707-14.969,14.969-14.969C374.121,243.447,380.827,250.153,380.827,258.416"/>
		</g>
		<g>
			<defs>
				<path id="SVGID_37_" d="M306.951,285.581c0-30.367,24.617-54.984,54.982-54.984c30.368,0,54.984,24.617,54.984,54.984
					c0,30.367-24.616,54.983-54.984,54.983C331.568,340.564,306.951,315.948,306.951,285.581L306.951,285.581z"/>
			</defs>
			<clipPath id="SVGID_38_">
				<use xlink:href="#SVGID_37_"  style="overflow:visible;"/>
			</clipPath>
			<path style="clip-path:url(#SVGID_38_);fill:#9D9FA1;" d="M380.801,258.408c0-8.263-6.705-14.969-14.969-14.969
				c-8.264,0-14.969,6.706-14.969,14.969c0,8.263,6.705,14.968,14.969,14.968C374.096,273.376,380.801,266.67,380.801,258.408
				 M379.795,258.416L379.795,258.416c0,7.693-6.244,13.937-13.938,13.937c-7.692,0-13.936-6.244-13.936-13.937
				c0-7.693,6.243-13.937,13.936-13.937C373.551,244.479,379.795,250.723,379.795,258.416"/>
		</g>
		<g>
			<defs>
				<path id="SVGID_39_" d="M306.951,285.581c0-30.367,24.617-54.984,54.982-54.984c30.368,0,54.984,24.617,54.984,54.984
					c0,30.367-24.616,54.983-54.984,54.983C331.568,340.564,306.951,315.948,306.951,285.581L306.951,285.581z"/>
			</defs>
			<clipPath id="SVGID_40_">
				<use xlink:href="#SVGID_39_"  style="overflow:visible;"/>
			</clipPath>
			<path style="clip-path:url(#SVGID_40_);fill:#A3A5A8;" d="M379.889,258.408c0-7.693-6.244-13.937-13.937-13.937
				c-7.693,0-13.936,6.244-13.936,13.937c0,7.693,6.242,13.936,13.936,13.936C373.645,272.344,379.889,266.101,379.889,258.408
				 M378.762,258.416L378.762,258.416c0,7.123-5.779,12.904-12.902,12.904c-7.123,0-12.904-5.781-12.904-12.904
				c0-7.123,5.781-12.904,12.904-12.904C372.982,245.512,378.762,251.292,378.762,258.416"/>
		</g>
		<g>
			<defs>
				<path id="SVGID_41_" d="M306.951,285.581c0-30.367,24.617-54.984,54.982-54.984c30.368,0,54.984,24.617,54.984,54.984
					c0,30.367-24.616,54.983-54.984,54.983C331.568,340.564,306.951,315.948,306.951,285.581L306.951,285.581z"/>
			</defs>
			<clipPath id="SVGID_42_">
				<use xlink:href="#SVGID_41_"  style="overflow:visible;"/>
			</clipPath>
			<path style="clip-path:url(#SVGID_42_);fill:#AAACAE;" d="M378.736,258.408c0-7.123-5.781-12.904-12.904-12.904
				c-7.123,0-12.904,5.781-12.904,12.904c0,7.123,5.781,12.904,12.904,12.904C372.955,271.312,378.736,265.531,378.736,258.408
				 M377.728,258.416L377.728,258.416c0,6.553-5.317,11.872-11.871,11.872c-6.553,0-11.871-5.318-11.871-11.872
				c0-6.554,5.318-11.872,11.871-11.872C372.411,246.544,377.728,251.862,377.728,258.416"/>
		</g>
		<g>
			<defs>
				<path id="SVGID_43_" d="M306.951,285.581c0-30.367,24.617-54.984,54.982-54.984c30.368,0,54.984,24.617,54.984,54.984
					c0,30.367-24.616,54.983-54.984,54.983C331.568,340.564,306.951,315.948,306.951,285.581L306.951,285.581z"/>
			</defs>
			<clipPath id="SVGID_44_">
				<use xlink:href="#SVGID_43_"  style="overflow:visible;"/>
			</clipPath>
			<path style="clip-path:url(#SVGID_44_);fill:#B0B2B5;" d="M377.703,258.408c0-6.553-5.318-11.872-11.871-11.872
				c-6.555,0-11.872,5.319-11.872,11.872c0,6.553,5.317,11.872,11.872,11.872C372.385,270.279,377.703,264.961,377.703,258.408
				 M376.697,258.416L376.697,258.416c0,5.983-4.855,10.839-10.84,10.839c-5.983,0-10.84-4.856-10.84-10.839
				c0-5.983,4.856-10.839,10.84-10.839C371.842,247.577,376.697,252.432,376.697,258.416"/>
		</g>
		<g>
			<defs>
				<path id="SVGID_45_" d="M306.951,285.581c0-30.367,24.617-54.984,54.982-54.984c30.368,0,54.984,24.617,54.984,54.984
					c0,30.367-24.616,54.983-54.984,54.983C331.568,340.564,306.951,315.948,306.951,285.581L306.951,285.581z"/>
			</defs>
			<clipPath id="SVGID_46_">
				<use xlink:href="#SVGID_45_"  style="overflow:visible;"/>
			</clipPath>
			<path style="clip-path:url(#SVGID_46_);fill:#B7B9BB;" d="M376.671,258.408c0-5.983-4.855-10.839-10.839-10.839
				c-5.984,0-10.84,4.856-10.84,10.839c0,5.983,4.855,10.839,10.84,10.839C371.816,269.247,376.671,264.391,376.671,258.408
				 M375.665,258.416L375.665,258.416c0,5.414-4.394,9.807-9.808,9.807c-5.414,0-9.808-4.394-9.808-9.807
				c0-5.413,4.394-9.807,9.808-9.807C371.271,248.608,375.665,253.002,375.665,258.416"/>
		</g>
		<g>
			<defs>
				<path id="SVGID_47_" d="M306.951,285.581c0-30.367,24.617-54.984,54.982-54.984c30.368,0,54.984,24.617,54.984,54.984
					c0,30.367-24.616,54.983-54.984,54.983C331.568,340.564,306.951,315.948,306.951,285.581L306.951,285.581z"/>
			</defs>
			<clipPath id="SVGID_48_">
				<use xlink:href="#SVGID_47_"  style="overflow:visible;"/>
			</clipPath>
			<path style="clip-path:url(#SVGID_48_);fill:#BEC0C2;" d="M375.639,258.408c0-5.414-4.394-9.807-9.807-9.807
				c-5.414,0-9.809,4.394-9.809,9.807c0,5.413,4.395,9.807,9.809,9.807C371.245,268.215,375.639,263.821,375.639,258.408
				 M374.633,258.416L374.633,258.416c0,4.844-3.931,8.775-8.773,8.775c-4.844,0-8.775-3.931-8.775-8.775
				c0-4.844,3.932-8.775,8.775-8.775C370.702,249.641,374.633,253.572,374.633,258.416"/>
		</g>
		<g>
			<defs>
				<path id="SVGID_49_" d="M306.951,285.581c0-30.367,24.617-54.984,54.982-54.984c30.368,0,54.984,24.617,54.984,54.984
					c0,30.367-24.616,54.983-54.984,54.983C331.568,340.564,306.951,315.948,306.951,285.581L306.951,285.581z"/>
			</defs>
			<clipPath id="SVGID_50_">
				<use xlink:href="#SVGID_49_"  style="overflow:visible;"/>
			</clipPath>
			<path style="clip-path:url(#SVGID_50_);fill:#C5C7C9;" d="M374.605,258.408c0-4.844-3.931-8.775-8.773-8.775
				c-4.843,0-8.775,3.931-8.775,8.775c0,4.843,3.933,8.774,8.775,8.774C370.675,267.182,374.605,263.251,374.605,258.408
				 M373.602,258.416L373.602,258.416c0,4.274-3.47,7.742-7.742,7.742c-4.274,0-7.743-3.468-7.743-7.742
				c0-4.274,3.469-7.743,7.743-7.743C370.132,250.673,373.602,254.142,373.602,258.416"/>
		</g>
		<g>
			<defs>
				<path id="SVGID_51_" d="M306.951,285.581c0-30.367,24.617-54.984,54.982-54.984c30.368,0,54.984,24.617,54.984,54.984
					c0,30.367-24.616,54.983-54.984,54.983C331.568,340.564,306.951,315.948,306.951,285.581L306.951,285.581z"/>
			</defs>
			<clipPath id="SVGID_52_">
				<use xlink:href="#SVGID_51_"  style="overflow:visible;"/>
			</clipPath>
			<path style="clip-path:url(#SVGID_52_);fill:#CCCDCF;" d="M373.574,258.408c0-4.274-3.469-7.743-7.742-7.743
				c-4.273,0-7.742,3.469-7.742,7.743c0,4.273,3.469,7.742,7.742,7.742C370.105,266.15,373.574,262.681,373.574,258.408
				 M372.568,258.416L372.568,258.416c0,3.704-3.006,6.71-6.711,6.71c-3.703,0-6.709-3.006-6.709-6.71
				c0-3.704,3.006-6.71,6.709-6.71C369.563,251.706,372.568,254.711,372.568,258.416"/>
		</g>
		<g>
			<defs>
				<path id="SVGID_53_" d="M306.951,285.581c0-30.367,24.617-54.984,54.982-54.984c30.368,0,54.984,24.617,54.984,54.984
					c0,30.367-24.616,54.983-54.984,54.983C331.568,340.564,306.951,315.948,306.951,285.581L306.951,285.581z"/>
			</defs>
			<clipPath id="SVGID_54_">
				<use xlink:href="#SVGID_53_"  style="overflow:visible;"/>
			</clipPath>
			<path style="clip-path:url(#SVGID_54_);fill:#D3D4D6;" d="M372.662,258.408c0-3.704-3.006-6.71-6.71-6.71
				c-3.704,0-6.71,3.006-6.71,6.71c0,3.704,3.006,6.71,6.71,6.71C369.656,265.118,372.662,262.111,372.662,258.408 M371.536,258.416
				L371.536,258.416c0,3.134-2.544,5.678-5.679,5.678c-3.135,0-5.678-2.543-5.678-5.678c0-3.135,2.543-5.678,5.678-5.678
				C368.992,252.738,371.536,255.281,371.536,258.416"/>
		</g>
		<g>
			<defs>
				<path id="SVGID_55_" d="M306.951,285.581c0-30.367,24.617-54.984,54.982-54.984c30.368,0,54.984,24.617,54.984,54.984
					c0,30.367-24.616,54.983-54.984,54.983C331.568,340.564,306.951,315.948,306.951,285.581L306.951,285.581z"/>
			</defs>
			<clipPath id="SVGID_56_">
				<use xlink:href="#SVGID_55_"  style="overflow:visible;"/>
			</clipPath>
			<path style="clip-path:url(#SVGID_56_);fill:#D9DBDC;" d="M371.51,258.408c0-3.134-2.544-5.678-5.678-5.678
				c-3.135,0-5.678,2.544-5.678,5.678c0,3.134,2.543,5.678,5.678,5.678C368.966,264.085,371.51,261.542,371.51,258.408
				 M370.504,258.416L370.504,258.416c0,2.564-2.081,4.646-4.646,4.646c-2.564,0-4.646-2.081-4.646-4.646
				c0-2.565,2.081-4.646,4.646-4.646C368.423,253.77,370.504,255.851,370.504,258.416"/>
		</g>
		<g>
			<defs>
				<path id="SVGID_57_" d="M306.951,285.581c0-30.367,24.617-54.984,54.982-54.984c30.368,0,54.984,24.617,54.984,54.984
					c0,30.367-24.616,54.983-54.984,54.983C331.568,340.564,306.951,315.948,306.951,285.581L306.951,285.581z"/>
			</defs>
			<clipPath id="SVGID_58_">
				<use xlink:href="#SVGID_57_"  style="overflow:visible;"/>
			</clipPath>
			<path style="clip-path:url(#SVGID_58_);fill:#E0E1E2;" d="M370.478,258.408c0-2.564-2.082-4.646-4.646-4.646
				c-2.564,0-4.647,2.081-4.647,4.646c0,2.564,2.082,4.645,4.647,4.645C368.396,263.053,370.478,260.972,370.478,258.408
				 M369.473,258.416L369.473,258.416c0,1.995-1.619,3.613-3.613,3.613c-1.996,0-3.613-1.619-3.613-3.613
				c0-1.994,1.617-3.613,3.613-3.613C367.853,254.802,369.473,256.421,369.473,258.416"/>
		</g>
		<g>
			<defs>
				<path id="SVGID_59_" d="M306.951,285.581c0-30.367,24.617-54.984,54.982-54.984c30.368,0,54.984,24.617,54.984,54.984
					c0,30.367-24.616,54.983-54.984,54.983C331.568,340.564,306.951,315.948,306.951,285.581L306.951,285.581z"/>
			</defs>
			<clipPath id="SVGID_60_">
				<use xlink:href="#SVGID_59_"  style="overflow:visible;"/>
			</clipPath>
			<path style="clip-path:url(#SVGID_60_);fill:#E7E8E9;" d="M369.564,258.408c0-1.995-1.619-3.613-3.612-3.613
				c-1.995,0-3.613,1.619-3.613,3.613c0,1.994,1.618,3.613,3.613,3.613C367.945,262.021,369.564,260.402,369.564,258.408
				 M368.438,258.416L368.438,258.416c0,1.424-1.154,2.581-2.58,2.581c-1.424,0-2.58-1.156-2.58-2.581
				c0-1.425,1.156-2.581,2.58-2.581C367.283,255.835,368.438,256.991,368.438,258.416"/>
		</g>
		<g>
			<defs>
				<path id="SVGID_61_" d="M306.951,285.581c0-30.367,24.617-54.984,54.982-54.984c30.368,0,54.984,24.617,54.984,54.984
					c0,30.367-24.616,54.983-54.984,54.983C331.568,340.564,306.951,315.948,306.951,285.581L306.951,285.581z"/>
			</defs>
			<clipPath id="SVGID_62_">
				<use xlink:href="#SVGID_61_"  style="overflow:visible;"/>
			</clipPath>
			<path style="clip-path:url(#SVGID_62_);fill:#EEEFEF;" d="M368.413,258.408c0-1.425-1.156-2.581-2.581-2.581
				c-1.425,0-2.581,1.156-2.581,2.581c0,1.424,1.156,2.581,2.581,2.581C367.257,260.989,368.413,259.832,368.413,258.408
				 M367.406,258.416L367.406,258.416c0,0.855-0.693,1.548-1.549,1.548c-0.854,0-1.549-0.693-1.549-1.548
				c0-0.855,0.693-1.548,1.549-1.548C366.713,256.867,367.406,257.561,367.406,258.416"/>
		</g>
		<g>
			<defs>
				<path id="SVGID_63_" d="M306.951,285.581c0-30.367,24.617-54.984,54.982-54.984c30.368,0,54.984,24.617,54.984,54.984
					c0,30.367-24.616,54.983-54.984,54.983C331.568,340.564,306.951,315.948,306.951,285.581L306.951,285.581z"/>
			</defs>
			<clipPath id="SVGID_64_">
				<use xlink:href="#SVGID_63_"  style="overflow:visible;"/>
			</clipPath>
			<path style="clip-path:url(#SVGID_64_);fill:#F5F5F6;" d="M367.381,258.408c0-0.855-0.693-1.549-1.549-1.549
				c-0.855,0-1.549,0.694-1.549,1.549c0,0.854,0.693,1.548,1.549,1.548C366.688,259.956,367.381,259.262,367.381,258.408
				 M366.374,258.416L366.374,258.416c0,0.285-0.231,0.516-0.517,0.516c-0.284,0-0.517-0.231-0.517-0.516
				c0-0.285,0.232-0.516,0.517-0.516C366.143,257.899,366.374,258.13,366.374,258.416"/>
		</g>
		<g>
			<defs>
				<path id="SVGID_65_" d="M306.951,285.581c0-30.367,24.617-54.984,54.982-54.984c30.368,0,54.984,24.617,54.984,54.984
					c0,30.367-24.616,54.983-54.984,54.983C331.568,340.564,306.951,315.948,306.951,285.581L306.951,285.581z"/>
			</defs>
			<clipPath id="SVGID_66_">
				<use xlink:href="#SVGID_65_"  style="overflow:visible;"/>
			</clipPath>
			<path style="clip-path:url(#SVGID_66_);fill:#FFFFFF;" d="M366.348,258.408c0-0.285-0.229-0.516-0.516-0.516
				c-0.286,0-0.518,0.231-0.518,0.516c0,0.285,0.231,0.516,0.518,0.516C366.118,258.924,366.348,258.692,366.348,258.408"/>
		</g>
		<g>
			<defs>
				<path id="SVGID_67_" d="M306.951,285.581c0-30.367,24.617-54.984,54.982-54.984c30.368,0,54.984,24.617,54.984,54.984
					c0,30.367-24.616,54.983-54.984,54.983C331.568,340.564,306.951,315.948,306.951,285.581L306.951,285.581z"/>
			</defs>
			<clipPath id="SVGID_68_">
				<use xlink:href="#SVGID_67_"  style="overflow:visible;"/>
			</clipPath>
			<polygon style="clip-path:url(#SVGID_68_);fill:#FFFFFF;" points="307.572,277.928 318.023,266.432 339.893,276.36 
				344.518,301.888 328.396,316.44 308.096,299.797 			"/>
		</g>
		<g>
			<defs>
				<path id="SVGID_69_" d="M306.951,285.581c0-30.367,24.617-54.984,54.982-54.984c30.368,0,54.984,24.617,54.984,54.984
					c0,30.367-24.616,54.983-54.984,54.983C331.568,340.564,306.951,315.948,306.951,285.581L306.951,285.581z"/>
			</defs>
			<clipPath id="SVGID_70_">
				<use xlink:href="#SVGID_69_"  style="overflow:visible;"/>
			</clipPath>
			<polygon style="clip-path:url(#SVGID_70_);fill:#FFFFFF;" points="330.486,319.054 345.563,338.311 370.566,337.788 
				383.107,325.247 373.182,304.423 347.652,301.888 			"/>
		</g>
		<g>
			<defs>
				<path id="SVGID_71_" d="M306.951,285.581c0-30.367,24.617-54.984,54.982-54.984c30.368,0,54.984,24.617,54.984,54.984
					c0,30.367-24.616,54.983-54.984,54.983C331.568,340.564,306.951,315.948,306.951,285.581L306.951,285.581z"/>
			</defs>
			<clipPath id="SVGID_72_">
				<use xlink:href="#SVGID_71_"  style="overflow:visible;"/>
			</clipPath>
			<path style="clip-path:url(#SVGID_72_);fill:#FFFFFF;" d="M318.546,264.342l0.511-13.182
				c8.699-10.824,21.414-18.285,35.883-20.122l0.553,0.539l11.419,7.76l-3.136,21.869l-22.836,13.587L318.546,264.342
				L318.546,264.342z"/>
		</g>
		<g>
			<defs>
				<path id="SVGID_73_" d="M306.951,285.581c0-30.367,24.617-54.984,54.982-54.984c30.368,0,54.984,24.617,54.984,54.984
					c0,30.367-24.616,54.983-54.984,54.983C331.568,340.564,306.951,315.948,306.951,285.581L306.951,285.581z"/>
			</defs>
			<clipPath id="SVGID_74_">
				<use xlink:href="#SVGID_73_"  style="overflow:visible;"/>
			</clipPath>
			<path style="clip-path:url(#SVGID_74_);fill:#FFFFFF;" d="M385.121,280.02l-18.734-19.335l5.227-21.792l15.904-1.994
				c10.395,5.473,18.822,14.178,23.947,24.778l-0.294,12.594L385.121,280.02L385.121,280.02z"/>
		</g>
		<g>
			<defs>
				<path id="SVGID_75_" d="M306.951,285.581c0-30.367,24.617-54.984,54.982-54.984c30.368,0,54.984,24.617,54.984,54.984
					c0,30.367-24.616,54.983-54.984,54.983C331.568,340.564,306.951,315.948,306.951,285.581L306.951,285.581z"/>
			</defs>
			<clipPath id="SVGID_76_">
				<use xlink:href="#SVGID_75_"  style="overflow:visible;"/>
			</clipPath>
			<path style="clip-path:url(#SVGID_76_);fill:#FFFFFF;" d="M375.793,303.377l11.418-21.347l23.438-5.147l4.884,21.026
				c-2.132,9.309-6.628,17.717-12.82,24.558l-17.59,0.769L375.793,303.377L375.793,303.377z"/>
		</g>
	</g>
	<path style="fill:none;stroke:#000000;stroke-width:4.0025;stroke-miterlimit:3.8637;" d="M306.951,285.581
		c0-30.367,24.617-54.984,54.982-54.984c30.368,0,54.984,24.617,54.984,54.984c0,30.367-24.616,54.983-54.984,54.983
		C331.568,340.564,306.951,315.948,306.951,285.581L306.951,285.581z"/>
</g>
</svg>
