<?xml version="1.0" encoding="utf-8"?>
<!-- Generator: Adobe Illustrator 15.0.0, SVG Export Plug-In . SVG Version: 6.00 Build 0)  -->
<!DOCTYPE svg PUBLIC "-//W3C//DTD SVG 1.1//EN" "http://www.w3.org/Graphics/SVG/1.1/DTD/svg11.dtd">
<svg version="1.1" id="Calque_1" xmlns="http://www.w3.org/2000/svg" xmlns:xlink="http://www.w3.org/1999/xlink" x="0px" y="0px"
	 width="599.222px" height="500px" viewBox="0 0 599.222 500" enable-background="new 0 0 599.222 500" xml:space="preserve">
<path d="M574.969,0H24.253C10.858,0,0,10.859,0,24.254v451.493C0,489.143,10.858,500,24.253,500h550.716
	c13.395,0,24.253-10.857,24.253-24.253V24.254C599.222,10.859,588.364,0,574.969,0z"/>
<linearGradient id="SVGID_1_" gradientUnits="userSpaceOnUse" x1="299.6108" y1="0" x2="299.6108" y2="500.0005">
	<stop  offset="0.6" style="stop-color:#FFFFFF"/>
	<stop  offset="0.8022" style="stop-color:#A4D4DF"/>
	<stop  offset="0.99" style="stop-color:#43ACC2"/>
</linearGradient>
<path fill="url(#SVGID_1_)" d="M574.969,7.145H24.253c-9.433,0-17.108,7.675-17.108,17.109v415.684h584.932V24.254
	C592.077,14.82,584.402,7.145,574.969,7.145z"/>
<linearGradient id="SVGID_2_" gradientUnits="userSpaceOnUse" x1="299.6108" y1="-4.882813e-004" x2="299.6108" y2="500.0004">
	<stop  offset="0.6" style="stop-color:#FFFFFF"/>
	<stop  offset="0.8022" style="stop-color:#A4D4DF"/>
	<stop  offset="0.99" style="stop-color:#43ACC2"/>
</linearGradient>
<path fill="url(#SVGID_2_)" d="M7.145,475.747c0,9.434,7.675,17.107,17.108,17.107h550.716c9.433,0,17.107-7.674,17.107-17.107
	v-32.105H7.145V475.747z"/>
<path d="M24.883,430.267h5.811v-21.868h-5.811v-5.601h22.343v5.601h-5.93v21.868h11.98v-10.229h7.967v15.83h-36.36V430.267z"/>
<path d="M63.003,431.606h5.153v-16.639h-5.153v-4.262h19.161v4.262h-5.153v16.639h5.153v4.262H63.003V431.606z"/>
<path d="M107.076,423.157h15.909c0.701,10.117-10.606,13.045-18.411,13.045c-12.658,0-18.911-5.893-18.911-12.971
	c0-7.598,7.404-12.934,18.011-12.934c4.353,0,8.205,0.89,10.606,2.482v-2.074h5.753v8.931h-5.753
	c-0.65-1.482-1.901-2.705-3.552-3.558c-1.751-0.927-3.602-1.297-5.804-1.297c-5.803,0-9.756,3.261-9.756,8.042
	c0,6.336,5.153,8.782,10.006,8.782c4.002,0,6.804-1.482,7.855-4.188h-5.954V423.157z"/>
<path d="M126.182,410.706h15.81v4.262h-2.952v12.784c0,2.483,1,4.151,4.402,4.151c2.852,0,4.703-1.075,4.703-3.929v-13.007h-2.802
	v-4.262h13.108v4.262h-4.253v14.082c0,5.854-6.904,7.115-11.707,7.115c-6.654,0-12.308-1.89-12.308-8.042v-13.155h-4.002V410.706z"
	/>
<path d="M161.047,431.606h4.002v-16.639h-4.002v-4.262h29.868v7.967h-6.454v-3.705h-10.556v5.781h8.505v4.262h-8.505v6.596h10.556
	v-3.742h6.454v8.004h-29.868V431.606z"/>
<path d="M206.869,431.606h5.153v-16.639h-5.153v-4.262h17.76c6.154,0,10.407,0.852,13.859,3.409c3.402,2.52,4.853,5.78,4.853,9.228
	c0,6.521-5.453,12.525-16.26,12.525h-20.212V431.606z M224.229,431.606c6.754,0,9.906-3.224,9.906-8.227
	c0-5.411-3.603-8.412-10.207-8.412h-3.052v16.639H224.229z"/>
<path d="M247.036,431.606h4.002v-16.639h-4.002v-4.262h29.868v7.967h-6.454v-3.705h-10.557v5.781h8.505v4.262h-8.505v6.596h10.557
	v-3.742h6.454v8.004h-29.868V431.606z"/>
<path d="M295.352,430.267h5.811v-21.868h-5.811v-5.601h36.42v10.18h-7.787v-4.579h-12.22v7.646h8.806v5.602h-8.806v8.62h6.23v5.602
	h-22.644V430.267z"/>
<path d="M372.645,423.269c0,6.448-6.053,12.934-18.91,12.934c-12.759,0-18.861-6.411-18.861-12.934
	c0-6.708,6.354-12.971,18.861-12.971C366.392,410.298,372.645,416.598,372.645,423.269z M344.379,423.38
	c0,4.854,3.801,8.227,9.355,8.227c4.652,0,9.405-2.594,9.405-8.375c0-5.188-4.103-8.339-9.405-8.339
	C349.282,414.893,344.379,417.302,344.379,423.38z"/>
<path d="M415.365,423.269c0,6.448-6.054,12.934-18.911,12.934c-12.758,0-18.861-6.411-18.861-12.934
	c0-6.708,6.354-12.971,18.861-12.971C409.112,410.298,415.365,416.598,415.365,423.269z M387.098,423.38
	c0,4.854,3.802,8.227,9.355,8.227c4.652,0,9.405-2.594,9.405-8.375c0-5.188-4.103-8.339-9.405-8.339
	C392,414.893,387.098,417.302,387.098,423.38z"/>
<path d="M448.929,420.822h-5.903v-5.854h-5.104v16.639h5.104v4.262h-19.062v-4.262h5.104v-16.639h-5.104v5.854h-5.903v-10.116
	h30.868V420.822z"/>
<path d="M449.525,431.606h4.253v-16.639h-4.253v-4.262h17.661c3.552,0,6.903,0.222,9.205,1.927c1.501,1.111,2.603,2.742,2.603,4.669
	c0,2.483-1.552,4.188-4.804,5.188c4.103,1.149,6.104,3.149,6.104,6.041c0,3.891-3.603,7.337-12.558,7.337h-18.212V431.606z
	 M466.085,420.637c2.701,0,4.052-1.223,4.052-2.927c0-1.667-1.1-2.742-4.452-2.742h-3.052v5.669H466.085z M466.186,431.606
	c4.052,0,5.003-1.482,5.003-3.335c0-2.335-2.202-3.373-4.753-3.373h-3.803v6.708H466.186z"/>
<path d="M515.31,435.868h-16.511v-4.262h4.253l-1.601-4.299h-8.806l-1.851,4.299h4.552v4.262h-15.108v-4.262h4.252l6.654-16.639
	h-4.553v-4.262h22.164v4.262h-4.554l7.104,16.639h4.003V435.868z M497.298,416.005h-0.1l-3.052,7.598h5.903L497.298,416.005z"/>
<path d="M514.155,431.606h4.854v-16.639h-4.854v-4.262h18.662v4.262h-4.954v16.639h10.006v-7.782h6.654v12.044h-30.368V431.606z"/>
<path d="M543.969,431.606h4.853v-16.639h-4.853v-4.262h18.661v4.262h-4.953v16.639h10.006v-7.782h6.654v12.044h-30.368V431.606z"/>
<path d="M44.624,476.521h5.153v-16.64h-5.153v-4.262h17.761c6.154,0,10.406,0.853,13.858,3.41c3.402,2.52,4.853,5.78,4.853,9.228
	c0,6.521-5.454,12.525-16.26,12.525H44.624V476.521z M61.984,476.521c6.753,0,9.906-3.224,9.906-8.227
	c0-5.411-3.602-8.413-10.207-8.413h-3.051v16.64H61.984z"/>
<path d="M84.792,476.521h4.002v-16.64h-4.002v-4.262h29.868v7.968h-6.454v-3.706H97.649v5.782h8.506v4.262h-8.506v6.596h10.557
	v-3.742h6.454v8.004H84.792V476.521z"/>
<path d="M130.362,476.521h4.853v-16.64h-4.853v-4.262h18.662v4.262h-4.954v16.64h10.006v-7.782h6.654v12.044h-30.368V476.521z"/>
<path d="M196.248,480.782h-16.51v-4.262h4.253l-1.602-4.299h-8.806l-1.851,4.299h4.552v4.262h-15.109v-4.262h4.253l6.654-16.64
	h-4.553v-4.262h22.164v4.262h-4.552l7.104,16.64h4.002V480.782z M178.237,460.919h-0.101l-3.052,7.598h5.903L178.237,460.919z"/>
<path d="M212.877,475.181h5.271v-21.869h-5.271v-5.601h20.365l8.926,19.385l9.284-19.385h20.606v5.601h-5.272v21.869h5.332v5.602
	h-20.965v-5.602h5.331v-21.869h-0.958l-12.699,27.471h-4.432l-12.699-27.471h-0.958v21.869h5.332v5.602h-17.191V475.181z"/>
<path d="M308.587,480.782h-16.51v-4.262h4.252l-1.6-4.299h-8.806l-1.851,4.299h4.552v4.262h-15.109v-4.262h4.252l6.654-16.64h-4.552
	v-4.262h22.164v4.262h-4.554l7.104,16.64h4.003V480.782z M290.576,460.919h-0.099l-3.052,7.598h5.904L290.576,460.919z"/>
<path d="M345.105,480.782h-10.356l-7.655-11.043h-3.902v6.781h4.253v4.262h-17.761v-4.262h4.652v-16.64h-4.652v-4.262h21.162
	c6.604,0,10.207,3.224,10.207,7.041c0,2.891-1.901,4.93-5.854,6.264l5.504,7.597h4.403V480.782z M326.743,465.7
	c3.953,0,5.104-1.632,5.104-2.966c0-1.038-0.851-2.854-4.152-2.854h-4.503v5.819H326.743z"/>
<path d="M374.368,465.736h-5.903v-5.855h-5.104v16.64h5.104v4.262h-19.062v-4.262h5.103v-16.64h-5.103v5.855H343.5v-10.117h30.868
	V465.736z"/>
<path d="M375.213,476.521h5.153v-16.64h-5.153v-4.262h19.161v4.262h-5.153v16.64h5.153v4.262h-19.161V476.521z"/>
<path d="M394.771,476.521h4.554v-16.64h-4.554v-4.262h14.209l12.457,15.714h0.101v-11.452h-4.402v-4.262h15.259v4.262h-4.803v20.901
	h-7.604l-14.509-18.492h-0.1v14.23h4.252v4.262h-14.859V476.521z"/>
<path d="M432.689,476.521h5.153v-16.64h-5.153v-4.262h19.161v4.262h-5.153v16.64h5.153v4.262h-19.161V476.521z"/>
<path d="M482.917,487.082c-4.904,0.445-10.006-3.224-14.359-3.224c-1.701,0-3.353,0.481-4.953,1.52l-2.201-2.446
	c1.401-1.223,3.151-1.815,5.754-2.112v-0.074c-8.205-1.445-13.458-6.3-13.458-12.525c0-6.004,5.353-13.008,18.861-13.008
	c12.808,0,18.91,6.448,18.91,13.008c0,7.485-7.555,12.377-16.759,12.785v0.074c4.353,1.111,6.253,2.409,10.306,1.853
	L482.917,487.082z M463.205,468.294c0,4.854,3.801,8.227,9.355,8.227c4.652,0,9.405-2.594,9.405-8.375
	c0-5.188-4.103-8.339-9.405-8.339C468.107,459.807,463.205,462.216,463.205,468.294z"/>
<path d="M491.615,455.619h15.811v4.262h-2.952v12.785c0,2.483,1.001,4.151,4.402,4.151c2.853,0,4.703-1.075,4.703-3.929v-13.008
	h-2.802v-4.262h13.107v4.262h-4.252v14.083c0,5.854-6.904,7.115-11.707,7.115c-6.653,0-12.307-1.891-12.307-8.042v-13.156h-4.004
	V455.619z"/>
<path d="M524.729,476.521h4.004v-16.64h-4.004v-4.262h29.868v7.968h-6.453v-3.706h-10.557v5.782h8.505v4.262h-8.505v6.596h10.557
	v-3.742h6.453v8.004h-29.868V476.521z"/>
<polygon points="199.854,163.813 199.854,242.97 248.324,242.97 248.324,225.186 221.333,225.186 221.333,163.813 "/>
<rect x="258.159" y="163.813" width="52.745" height="18.461"/>
<polygon points="258.159,193.914 258.159,242.97 279.614,242.97 279.614,213.566 310.923,213.566 310.923,193.933 "/>
<path d="M324.402,163.813v79.156h21.473v-59.467h34.992c0,0,7.361-1.229,7.361,6.748s0,52.719,0,52.719h22.088v-57.646
	c0,0-0.652-21.511-21.492-21.511C367.983,163.813,324.402,163.813,324.402,163.813z"/>
<polygon points="357.432,242.97 377.023,242.97 377.023,195.299 357.408,195.299 "/>
<path d="M478.556,118.342c0,0-9.378-1.715-12.809-1.715c-14.913,0-11.717,5.574-11.717,5.574s-11.197-3.733-14.879-4.96
	c-3.682-1.226-1.525,3.682-1.525,3.682s-44.724-13.731-55.768-13.731l31.251,17.072c0,0,15.596,5.862,16.209,7.702
	c0.614,1.841-23.843,10.362-23.843,10.362s-0.068,3.749,6.68,3.749c6.75,0,13.38-4.413,17.062-4.413c1.36,0,3.718,0.184,6.333,0.385
	c0.603,1.208,1.908,2.049,3.433,2.049c1.334,0,2.503-0.643,3.179-1.611c0.409,0.018,0.808,0.033,1.196,0.045
	c0.681,0.944,1.838,1.566,3.152,1.566c1.624,0,2.999-0.954,3.54-2.289c4.307-1.222,10.981-3.999,15.484-8.002
	c5.521-4.908,10.385-13.384,17.748-13.384c7.362,0,20.924,3.547,20.924,3.547C495.506,118.595,478.556,118.342,478.556,118.342z"/>
<path d="M507.503,224.875c45.281,56.94,31.872,107.925-62.25,107.925c-86.021,0-197.118-39.558-287.188-110.613
	S61.92,73.975,175.864,73.975c59.658,0,138.984,20.578,212.617,59.729C297.083,80.243,192.068,46.055,123.42,46.055
	c-92.12,0-86.86,78.173,15.45,165.273c102.309,87.101,257.335,150.147,355.046,150.147
	C575.253,361.476,578.318,299.369,507.503,224.875z"/>
<circle cx="426.629" cy="241.317" r="26.389"/>
<path fill="#FFFFFF" d="M434.523,234.729c0.718,3.466,1.249,6.957,1.598,10.478l0.177-0.333l7.811,4.142l-0.059,0.111
	c2.309-1.641,4.394-3.688,6.253-6.145c0.039-0.551,0.066-1.105,0.067-1.666c-0.005-2.963-0.556-5.795-1.548-8.409
	c-2.56-1.837-5.215-3.205-7.971-4.089l0.168,0.176l-6.267,5.976L434.523,234.729z"/>
<path fill="#FFFFFF" d="M420.652,232.638l-3.839-7.634l0.182-0.091c-0.111-0.002-0.222-0.008-0.333-0.008
	c-2.723,0-5.502,0.446-8.328,1.3c-2.205,2.667-3.837,5.824-4.714,9.284c0.976,2.863,2.279,5.419,3.894,7.642l-0.021-0.118
	l8.532-1.467l0.065,0.381c1.461-3.238,3.087-6.388,4.882-9.451L420.652,232.638z"/>
<path fill="#FFFFFF" d="M442.978,251.228c0-0.027-0.001-0.053-0.002-0.08l-0.108,0.206l-7.81-4.143l0.162-0.306
	c-3.067,1.751-6.219,3.335-9.452,4.749l0.343,0.053l-1.334,8.74l-0.172-0.025c2.214,1.648,4.73,2.975,7.547,3.977
	c3.527-0.845,6.749-2.47,9.468-4.689C442.509,256.832,442.978,254.003,442.978,251.228z"/>
<path fill="#FFFFFF" d="M419.041,223.885l0.137-0.069l3.839,7.634l-0.321,0.161c3.531,0.389,7.03,0.961,10.499,1.723l-0.267-0.279
	l6.265-5.976l0.113,0.119c-0.858-2.748-2.197-5.403-3.999-7.968c-2.688-1.059-5.612-1.648-8.677-1.653
	c-0.429,0-0.854,0.014-1.278,0.038C422.828,219.467,420.73,221.559,419.041,223.885z"/>
<path fill="#FFFFFF" d="M422.288,260.064l-0.128-0.02l1.336-8.739l0.372,0.057c-2.617-2.38-5.101-4.891-7.451-7.534l0.056,0.328
	l-8.532,1.464l-0.033-0.194c-0.886,2.605-1.369,5.398-1.457,8.375c1.908,3.074,4.497,5.679,7.559,7.607
	C416.942,261.35,419.703,260.9,422.288,260.064z"/>
</svg>
