<?xml version="1.0" encoding="UTF-8" standalone="no"?>
<svg
   xmlns:dc="http://purl.org/dc/elements/1.1/"
   xmlns:cc="http://creativecommons.org/ns#"
   xmlns:rdf="http://www.w3.org/1999/02/22-rdf-syntax-ns#"
   xmlns:svg="http://www.w3.org/2000/svg"
   xmlns="http://www.w3.org/2000/svg"
   xmlns:sodipodi="http://sodipodi.sourceforge.net/DTD/sodipodi-0.dtd"
   xmlns:inkscape="http://www.inkscape.org/namespaces/inkscape"
   version="1.1"
   id="Layer_1"
   x="0px"
   y="0px"
   viewBox="0 0 1000 999.99998"
   xml:space="preserve"
   sodipodi:docname="Oceania2.svg"
   width="1000"
   height="1000"
   inkscape:version="1.0.1 (3bc2e813f5, 2020-09-07)"><metadata
   id="metadata57"><rdf:RDF><cc:Work
       rdf:about=""><dc:format>image/svg+xml</dc:format><dc:type
         rdf:resource="http://purl.org/dc/dcmitype/StillImage" /><dc:title></dc:title></cc:Work></rdf:RDF></metadata><defs
   id="defs55" /><sodipodi:namedview
   pagecolor="#ffffff"
   bordercolor="#666666"
   borderopacity="1"
   objecttolerance="10"
   gridtolerance="10"
   guidetolerance="10"
   inkscape:pageopacity="0"
   inkscape:pageshadow="2"
   inkscape:window-width="1920"
   inkscape:window-height="1017"
   id="namedview53"
   showgrid="false"
   inkscape:zoom="1.052394"
   inkscape:cx="297.638"
   inkscape:cy="420.94501"
   inkscape:window-x="-8"
   inkscape:window-y="-8"
   inkscape:window-maximized="1"
   inkscape:current-layer="Layer_1" />











<g
   id="g907"
   transform="matrix(4.1304348,0,0,4.1304348,-760,-1269.6544)"><path
     style="fill:#3b59a1"
     d="m 184,422.389 c 0,63.411 51.59,115.001 115,115.001 63.411,0 115,-51.59 115,-115.001 0,-63.41 -51.589,-114.999 -115,-114.999 -63.41,0 -115,51.589 -115,114.999 z"
     id="path2" /><circle
     transform="matrix(0.7071,-0.7071,0.7071,0.7071,-211.099,335.1396)"
     style="fill:#ffffff"
     cx="299"
     cy="422.38901"
     id="ellipse4"
     r="111.916" /><g
     id="g32">
	<path
   style="fill:#3b59a1"
   d="m 224.102,483.162 c -3.607,3.919 -7.543,12.552 0.585,20.033 8.127,7.481 16.406,2.843 20.015,-1.076 3.607,-3.922 7.545,-12.552 -0.585,-20.03 -8.127,-7.485 -16.404,-2.848 -20.015,1.073 z m 19.991,8.07 c 0.105,2.516 -1.001,5.168 -3.112,7.464 -2.111,2.293 -4.663,3.615 -7.183,3.719 -2.207,0.092 -4.337,-0.747 -6.159,-2.425 -1.823,-1.677 -2.836,-3.732 -2.927,-5.939 -0.106,-2.518 0.999,-5.171 3.111,-7.467 2.111,-2.293 4.663,-3.615 7.183,-3.719 2.207,-0.092 4.338,0.746 6.159,2.426 1.823,1.68 2.837,3.731 2.928,5.941 z"
   id="path6" />
	<polygon
   style="fill:#3b59a1"
   points="254.89,517.346 253.102,521.439 257.877,523.524 259.909,518.863 255.137,516.78 "
   id="polygon8" />
	<path
   style="fill:#3b59a1"
   d="m 282.609,503.705 -2.373,26.59 4.921,0.439 c 0,0 0.954,-10.691 1.053,-11.794 1.12,0.099 13.403,1.2 13.403,1.2 l 0.389,-4.342 c 0,0 -12.284,-1.099 -13.402,-1.198 0.085,-0.959 0.516,-5.771 0.602,-6.73 1.131,0.103 15.228,1.363 15.228,1.363 l 0.391,-4.341 -20.156,-1.801 z"
   id="path10" />
	<polygon
   style="fill:#3b59a1"
   points="318.314,524.675 313.785,525.435 314.631,530.447 319.766,529.582 318.922,524.57 "
   id="polygon12" />
	<path
   style="fill:#3b59a1"
   d="m 358.316,501.81 -4.198,2.36 0.151,0.477 c 1.859,5.858 -1.505,8.494 -3.037,9.357 -2.224,1.249 -4.308,1.612 -6.194,1.086 -2.307,-0.646 -4.396,-2.616 -6.221,-5.856 -1.56,-2.779 -2.039,-5.484 -1.385,-7.823 0.56,-1.993 1.91,-3.642 3.907,-4.764 2.374,-1.335 5.793,-2.273 8.592,0.828 l 0.33,0.367 4.169,-2.349 -0.413,-0.562 c -2.501,-3.396 -7.883,-5.978 -14.811,-2.082 -7.108,3.997 -8.967,11.437 -4.74,18.955 2.313,4.118 5.256,6.701 8.744,7.678 3.086,0.866 6.514,0.366 9.657,-1.402 2.236,-1.254 9.257,-6.091 5.701,-15.596 z"
   id="path14" />
	<polygon
   style="fill:#3b59a1"
   points="377.571,490.571 374.493,493.977 378.265,497.388 381.757,493.517 377.985,490.116 "
   id="polygon16" />
	<path
   style="fill:#3b59a1"
   d="m 226.657,386.91 c 4.883,-9.913 -1.904,-16.541 -6.684,-18.897 -4.78,-2.353 -14.172,-3.689 -19.053,6.222 -4.881,9.912 1.906,16.54 6.687,18.897 4.78,2.352 14.17,3.69 19.05,-6.222 z m -3.906,-1.922 c -2.402,4.869 -7.47,6.286 -12.912,3.605 -5.442,-2.681 -7.41,-7.561 -5.011,-12.434 2.4,-4.872 7.469,-6.289 12.911,-3.608 5.444,2.681 7.411,7.564 5.012,12.437 z"
   id="path18" />
	<path
   style="fill:#3b59a1"
   d="m 250.433,343.109 -3.713,3.064 0.232,0.444 c 2.867,5.436 0.023,8.627 -1.335,9.745 -4.339,3.583 -8.733,2.743 -13.061,-2.499 -2.029,-2.457 -2.98,-5.033 -2.749,-7.449 0.196,-2.064 1.235,-3.925 3.003,-5.383 2.102,-1.735 5.297,-3.267 8.602,-0.708 l 0.39,0.301 3.688,-3.046 -0.505,-0.48 c -3.063,-2.9 -8.814,-4.493 -14.948,0.571 -6.287,5.191 -6.801,12.845 -1.31,19.498 6.804,8.236 14.391,6.909 19.224,2.918 1.977,-1.634 8.029,-7.642 2.851,-16.358 z"
   id="path20" />
	<path
   style="fill:#3b59a1"
   d="m 285.735,337.016 c 0,0 -14.78,4.364 -15.877,4.688 -0.278,-0.943 -1.842,-6.232 -2.12,-7.177 1.088,-0.32 14.41,-4.255 14.41,-4.255 l -1.232,-4.179 c 0,0 -13.323,3.934 -14.41,4.255 -0.272,-0.923 -1.643,-5.558 -1.914,-6.478 1.096,-0.323 15.62,-4.613 15.62,-4.613 l -1.231,-4.178 -0.594,0.174 -19.768,5.837 7.734,26.192 20.614,-6.087 z"
   id="path22" />
	<path
   style="fill:#3b59a1"
   d="m 307.927,314.148 -0.192,0.372 -13.368,25.682 5.13,0.53 c 0,0 3.288,-6.57 3.633,-7.255 0.752,0.077 9.331,0.965 10.095,1.043 0.185,0.756 1.919,7.83 1.919,7.83 l 5.353,0.554 -7.544,-28.237 z m 3.978,15.857 c -1.232,-0.128 -5.455,-0.564 -6.72,-0.695 0.6,-1.186 3.454,-6.823 4.44,-8.77 0.51,2.119 1.977,8.206 2.28,9.465 z"
   id="path24" />
	<path
   style="fill:#3b59a1"
   d="m 341.951,330.72 c 0.261,3.257 1.884,23.612 1.884,23.612 l 4.474,2.476 13.226,-23.893 -4.223,-2.337 c 0,0 -7.993,14.436 -9.55,17.255 -0.239,-3.29 -1.693,-23.479 -1.693,-23.479 l -4.676,-2.591 -0.299,0.539 -12.93,23.354 4.223,2.338 c 0,10e-4 8.018,-14.482 9.564,-17.274 z"
   id="path26" />
	<polygon
   style="fill:#3b59a1"
   points="377.031,346.904 376.579,347.322 356.987,365.451 360.342,369.078 380.389,350.53 "
   id="polygon28" />
	<path
   style="fill:#3b59a1"
   d="m 381.714,389.511 c -0.554,0.547 -5.733,5.67 -5.733,5.67 l 2.277,4.876 20.348,-20.978 -2.136,-4.576 -0.416,0.024 -28.908,1.728 2.186,4.672 c 0,0 7.327,-0.554 8.091,-0.611 0.316,0.682 3.966,8.497 4.291,9.195 z m 0.337,-9.575 c 1.328,-0.095 7.628,-0.539 9.806,-0.693 -1.556,1.526 -6.023,5.91 -6.946,6.816 -0.526,-1.124 -2.32,-4.968 -2.86,-6.123 z"
   id="path30" />
</g><ellipse
     transform="matrix(1,-0.0015,0.0015,1,-0.6373,0.4519)"
     style="fill:#3b59a1"
     cx="299"
     cy="422.38901"
     rx="78.494003"
     ry="78.496002"
     id="ellipse34" /><path
     style="fill:#ffffff"
     d="m 247.905,423.037 c 0.461,-6.506 2.641,-37.686 2.229,-39.341 0,0 -1.234,0.463 -3.394,1.078 -0.615,-2.619 1.697,-4.624 1.697,-4.624 0,0 -3.701,-0.309 -6.938,-0.462 0.925,-3.546 6.783,-5.395 6.783,-5.395 0,0 -1.696,-2.005 -3.547,-3.238 3.393,-2.004 9.25,-0.772 9.25,-0.772 0,0 -0.616,-2.311 -2.158,-4.624 8.017,0.154 11.716,4.316 11.716,4.316 0,0 7.4,1.388 8.634,5.396 -3.084,-0.771 -6.629,-1.078 -6.629,-1.078 0,0 2.365,2.73 2.305,5.889 4.271,3.381 4.016,6.597 4.016,6.597 0,0 5.858,2.775 5.703,8.017 -2.621,-2.158 -6.166,-3.392 -6.166,-3.392 0,0 1.233,4.008 0.308,8.171 -2.773,-2.005 -6.474,-2.93 -6.474,-2.93 0,0 1.233,3.083 -0.154,4.933 -1.542,-1.695 -3.237,-2.313 -3.237,-2.313 0,0 -3.445,8.713 -1.59,23.634 2.265,2.055 3.544,5.176 14.898,5.039 6.991,-0.084 19.931,-1.304 23.227,-1.644 5.959,-0.618 6.498,-6.164 18.498,-8.221 7.191,-1.233 12.332,-8.428 21.374,-10.896 14.23,-3.88 22.123,-2.987 32.359,-8.369 -9.927,-30.067 -38.27,-51.833 -71.615,-51.833 -41.582,0 -75.412,33.83 -75.412,75.413 0,0.831 0.035,1.656 0.063,2.482 2.944,0.038 9.198,0.125 11.221,0.19 6.729,0.221 10.251,-0.919 13.033,-2.023 z"
     id="path36" /><path
     style="fill:#3b59a1"
     d="m 324.383,389.708 c 8.175,0 14.799,-6.626 14.799,-14.799 0,-8.172 -6.624,-14.798 -14.799,-14.798 -8.171,0 -14.8,6.626 -14.8,14.798 0,8.173 6.629,14.799 14.8,14.799 z"
     id="path38" /><path
     style="fill:#ffffff"
     d="m 254.14,382.464 c 0,0 -0.035,0.595 -0.096,1.62 0.991,-0.294 1.979,-0.429 2.929,-0.448 -1.509,-0.684 -2.833,-1.172 -2.833,-1.172 z"
     id="path40" /><path
     style="fill:#ffffff"
     d="m 253.959,385.48 c -0.06,0.988 -0.129,2.174 -0.208,3.526 1.979,-0.823 4.09,-0.841 4.09,-0.841 0,0 -1.713,-1.277 -3.882,-2.685 z"
     id="path42" /><path
     style="fill:#ffffff"
     d="m 323.457,448.903 c 7.607,-3.287 11.688,-6.63 14.183,-7.603 12.131,-4.728 10.074,-6.782 -1.85,-8.017 -5.521,-0.572 -35.966,-0.411 -42.749,-0.616 -6.783,-0.208 -23.022,1.026 -28.572,1.026 -5.55,0 -18.498,-3.084 -24.871,-3.288 -4.891,-0.156 -12.271,0.67 -15.444,1.065 2.608,21.616 14.388,40.436 31.334,52.452 2.748,-2.564 10.504,-9.27 22.958,-15.903 16.637,-8.859 38.856,-16.451 45.011,-19.116 z"
     id="path44" /><path
     style="fill:#ffffff"
     d="m 256.145,392.792 c 0,0 -1.107,-0.518 -2.557,-1.01 -0.064,1.123 -0.133,2.313 -0.203,3.546 1.229,-1.604 2.76,-2.536 2.76,-2.536 z"
     id="path46" /><path
     style="fill:#ffffff"
     d="m 252.242,417.486 c 1.804,-2.049 4.934,-7.229 6.215,-19.3 0,0 -2.861,0.575 -5.331,1.722 -0.342,6.185 -0.687,12.781 -0.884,17.578 z"
     id="path48" /><path
     style="fill:#ffffff"
     d="m 264.16,385.392 c 0,0 -0.257,-2.82 -0.768,-5.533 -2.462,-0.891 -4.474,-1.096 -4.474,-1.096 0,0 1.698,2.17 1.786,5.326 2.061,0.522 3.456,1.303 3.456,1.303 z"
     id="path50" /></g>
</svg>
