<?xml version="1.0" encoding="iso-8859-1"?>
<!-- Generator: Adobe Illustrator 24.0.1, SVG Export Plug-In . SVG Version: 6.00 Build 0)  -->
<svg version="1.1" id="Layer_1" xmlns="http://www.w3.org/2000/svg" xmlns:xlink="http://www.w3.org/1999/xlink" x="0px" y="0px"
	 viewBox="0 0 595.276 595.276" style="enable-background:new 0 0 595.276 595.276;" xml:space="preserve">
<g id="switch2286">
	<g id="g2290">
		<g id="Layer_1_1_">
			<path id="path2293" style="fill:#FFFFFF;" d="M98.009,73.449v307.176c0,53.679,21.293,104.527,59.957,143.185
				c18.606,18.611,40.331,33.245,64.56,43.494c24.995,10.568,51.43,15.929,78.576,15.929c27.177,0,53.619-5.36,78.599-15.929
				c24.21-10.24,45.914-24.872,64.532-43.494c38.313-38.312,59.413-89.163,59.413-143.185V73.449h-8.497H98.009z M486.647,380.625
				c0,49.479-19.332,96.063-54.44,131.165c-35.101,35.098-81.663,54.43-131.105,54.43c-24.854,0-49.061-4.899-71.947-14.585
				c-22.205-9.393-42.106-22.793-59.166-39.845c-35.446-35.458-54.967-82.03-54.967-131.165c0,0,0-274.113,0-290.166
				c15.906,0,355.711,0,371.627,0C486.647,106.508,486.647,380.625,486.647,380.625z"/>
			<g id="g2295">
				<path id="path2297" style="fill:#B9515B;" d="M106.517,81.953v298.672l0,0c0,53.669,22.194,101.911,57.463,137.181
					c35.22,35.213,84.048,56.92,137.127,56.92l0,0l0,0c53.157,0,101.908-21.707,137.119-56.92
					c35.268-35.27,56.931-83.508,56.931-137.181l0,0V81.953H106.517z"/>
				<path id="path2299" style="fill:#FFFFFF;" d="M104.969,283.046h166.86V79.632h58.545v203.411H496.69v58.598H330.374v233.253
					c-9.765,1.611-19.558,2.152-29.272,2.152l0,0l0,0c-9.764,0-19.477-0.538-29.273-2.152V341.641h-166.86V283.046z"/>
			</g>
			<path id="path2301" style="fill:#BAA677;" d="M87.96,0v380.625c0,56.361,22.339,109.735,62.901,150.295
				c19.527,19.531,42.325,34.89,67.754,45.643c26.238,11.092,53.992,16.723,82.488,16.723c28.525,0,56.295-5.631,82.522-16.731
				c25.403-10.744,48.182-26.096,67.723-45.634c40.214-40.208,62.359-93.588,62.359-150.295V0H87.96z M503.65,380.625
				c0,54.025-21.099,104.876-59.413,143.185c-18.614,18.617-40.326,33.251-64.53,43.494c-24.985,10.568-51.428,15.929-78.6,15.929
				c-27.148,0-53.583-5.36-78.578-15.929c-24.229-10.246-45.954-24.88-64.56-43.494c-38.664-38.657-59.957-89.506-59.957-143.185
				V73.449h397.145h8.496v307.176H503.65z"/>
			<g id="g2303">
				<path id="path2305" style="fill:#FFFFFF;" d="M319.96,573.769c-6.21,0.61-12.497,0.956-18.86,0.956
					C307.371,574.725,313.668,574.36,319.96,573.769z"/>
				<path id="path2307" style="fill:#FFFFFF;" d="M330.374,572.573v-0.307c-2.714,0.417-5.402,0.939-8.15,1.252
					C324.938,573.223,327.657,573.021,330.374,572.573z"/>
				<path id="path2309" style="fill:#FFFFFF;" d="M271.829,572.573c2.772,0.456,5.513,0.649,8.277,0.953
					c-2.799-0.304-5.516-0.843-8.277-1.276V572.573z"/>
				<path id="path2311" style="fill:#FFFFFF;" d="M301.102,574.725c-6.364,0-12.672-0.349-18.901-0.956
					C288.511,574.36,294.792,574.725,301.102,574.725z"/>
				<path id="path2313" style="fill:#FFFFFF;stroke:#000000;stroke-width:0.01;" d="M208.906,395.291l-16.76-2.718
					c-4.898-1.107-9.71-2.18-14.607-3.279c-3.281-0.539-8.716-0.539-13.562,1.1c-4.868,1.073-9.252,2.743-11.433,7.642
					c-2.662,5.918,1.106,12.428,7.614,13.56c4.899,0.46,8.665-2.264,9.768-6.561c1.045-3.312,3.792-3.798,7.075-3.312
					c2.687,0.62,4.868,7.609,5.433,13.071c0.481,1.671,0.481,3.768,0.481,5.377c0,6.574-2.716,9.824-5.379,12.517
					c-2.235,2.153-4.948,4.864-4.948,9.194c0,4.903,2.717,7.051,4.948,9.233c0,0,0,0,0.508,0.538
					c1.105,1.048,2.155,2.666,3.257,4.278c1.129,2.232,1.61,4.407,1.61,7.66c0,2.748-1.045,10.843-2.717,15.18
					c-0.513,1.125-1.59,3.279-3.201,3.768c-3.281,0.561-6.031-0.486-7.077-3.768c-1.104-3.279-3.256-5.437-5.947-5.997
					c-8.148-1.622-14.634,5.997-11.432,13.611c1.105,2.095,3.28,4.274,5.436,5.382c4.894,2.143,10.276,2.714,14.608,3.274
					c4.412,0,8.716-1.136,13.046-2.235c2.179-0.508,4.357-1.044,6.51-1.044l16.758-3.285c17.891-3.204,17.891-10.816,17.891-21.091
					v-50.988c0-4.809,0-9.735-2.15-12.985C222.467,399.65,218.214,396.902,208.906,395.291z M215.47,458.72
					c0,4.868,0,8.669-1.61,11.945c-1.108,3.227-3.284,5.918-6.542,6.432l-5.406,1.103c-2.154,0-3.822,0.566-5.974,0.566
					c-3.308,0-3.792-2.178-3.308-4.873c0.619-2.174,1.126-4.359,1.69-6.504c0.539-2.746,0.539-4.9,0.539-7.611
					c-0.539-11.9-4.388-15.711-6.001-16.843c-1.046-0.486-1.616-1.054-0.563-1.615c0,0,0,0,0-0.562
					c1.692-1.03,6.024-4.255,6.563-15.71c0-2.153,0-4.304-0.539-6.487c0-2.659-0.564-4.813-1.076-6.966
					c-0.618-1.692-0.618-3.309-0.618-4.414c0.618-2.147,2.229-2.66,7.691-1.605l6.994,1.097c3.255,1.054,5.432,3.233,6.542,6.516
					c1.61,3.22,1.61,6.985,1.61,11.867v33.665H215.47z"/>
				<path id="path2315" style="fill:#FFFFFF;stroke:#000000;stroke-width:0.01;" d="M392.76,488.477l17.332,3.285
					c2.146,0,4.304,0.533,6.48,1.044c3.766,1.1,8.15,2.235,12.502,2.235c4.82-0.563,10.282-1.136,14.586-3.274
					c2.74-1.108,4.329-3.287,5.462-5.382c3.229-7.614-2.718-15.236-10.898-13.611c-2.66,0.56-5.384,2.718-6.506,5.997
					c-0.536,3.279-3.769,4.329-6.487,3.768c-1.595-0.486-2.662-2.722-3.196-3.768c-2.266-4.337-3.315-12.432-3.315-15.18
					c0-3.253,1.05-5.429,1.619-7.66c1.135-1.612,2.735-3.23,3.846-4.278c0.539-0.538,0.539-0.538,0.539-0.538
					c2.172-2.179,4.352-4.33,4.352-9.233c0-4.33-2.172-7.041-4.352-9.194c-2.696-2.692-6.007-5.942-6.007-12.517
					c0-1.609,0.567-3.766,0.567-5.377c1.055-5.462,2.743-12.455,5.941-13.071c2.722-0.486,5.951,0,6.493,3.312
					c1.601,4.298,5.462,7.021,9.788,6.561c7.042-1.132,10.271-7.638,7.616-13.56c-1.618-4.946-6.514-6.568-10.901-7.642
					c-4.901-1.639-10.274-1.639-13.501-1.1c-4.957,1.1-9.77,2.173-14.635,3.279l-17.332,2.718
					c-8.715,1.611-13.638,4.362-15.714,8.127c-2.173,3.25-2.173,8.174-2.173,12.986v50.987
					C374.869,477.66,374.869,485.272,392.76,488.477z M386.732,425.045c0-4.879,0-8.644,1.133-11.864
					c1.047-3.282,3.204-5.462,7.045-6.516l6.992-1.096c5.462-1.052,7.054-0.539,7.614,1.604c0,1.106-0.561,2.722-0.561,4.415
					c-0.483,2.153-1.054,4.307-1.592,6.966c0,2.183,0,4.336,0,6.486c0.534,11.456,4.868,14.684,6.479,15.711
					c0,0.561,0,0.561,0,0.561c1.106,0.561,0,1.133-0.503,1.615c-1.65,1.133-5.442,4.943-5.977,16.842c0,2.716,0,4.865,0.534,7.613
					c0,2.146,0.574,4.33,1.052,6.503c0.564,2.694,0.564,4.874-2.633,4.874c-2.184,0-3.881-0.566-6.034-0.566l-5.376-1.104
					c-3.845-0.509-5.998-3.203-7.042-6.43c-1.136-3.276-1.136-7.077-1.136-11.945v-33.669H386.732z"/>
				<path id="path2317" style="fill:#FFFFFF;stroke:#000000;stroke-width:0.01;" d="M425.225,142.109
					c2.722-0.565,5.951,0,6.493,3.821c1.601,4.333,5.462,6.506,9.788,5.944c7.042-1.05,10.271-7.048,7.616-13.531
					c-1.618-4.355-6.514-6.513-10.901-7.615c-4.901-1.074-10.274-1.074-13.501-0.506c-4.957,0.506-9.77,2.176-14.635,2.662
					l-17.332,3.279c-8.715,1.615-13.638,4.33-15.714,7.56c-2.173,3.821-2.173,8.715-2.173,13.534v50.414
					c0,10.33,0,18.455,17.887,21.737l17.335,2.659c2.145,0.564,4.305,1.107,6.477,1.67c3.773,0.512,8.155,1.615,12.51,1.615
					c4.817,0,10.279-0.512,14.581-2.721c2.738-1.608,4.331-3.765,5.467-5.941c3.229-7.074-2.722-15.146-10.901-12.996
					c-2.66,0.486-5.381,2.156-6.503,5.922c-0.542,3.309-3.772,3.791-6.493,3.309c-1.593,0-2.656-2.18-3.198-3.309
					c-2.264-4.871-3.311-12.428-3.311-15.146c0-3.282,1.047-5.436,1.622-7.614c1.128-1.612,2.732-3.279,3.843-4.898
					c0.539,0,0.539,0,0.539,0c2.175-2.688,4.354-4.813,4.354-9.146c0-4.95-2.18-7.103-4.354-9.279
					c-2.693-2.666-6.009-5.948-6.009-12.996c0-1.612,0.569-3.279,0.569-4.898C420.338,150.263,422.026,142.673,425.225,142.109z
					 M413.341,183.886c-1.645,1.077-5.439,4.872-5.977,16.816c0,2.151,0,4.82,0.538,7.531c0,2.18,0.57,4.359,1.054,5.945
					c0.561,2.799,0.561,5.436-2.636,5.436c-2.183,0-3.88-0.486-6.031-1.054l-5.379-1.102c-3.841-0.483-5.998-2.715-7.045-5.916
					c-1.133-3.308-1.133-7.641-1.133-11.945v-33.597c0-4.895,0-9.309,1.133-11.945c1.047-3.791,3.204-5.948,7.045-6.512l6.992-1.104
					c5.462-1.08,7.054-0.508,7.614,1.668c0,1.051-0.561,2.157-0.561,4.33c-0.483,1.618-1.054,4.255-1.592,7.054
					c0,2.095,0,4.327,0,5.945c0.534,11.378,4.868,15.139,6.479,16.275C414.953,182.813,413.847,183.322,413.341,183.886z"/>
			</g>
			<path id="path2319" style="fill:#FFFFFF;stroke:#000000;stroke-width:0.01;" d="M209.471,136.161l-16.84-3.279
				c-5.383-0.486-9.717-2.156-15.096-2.663c-3.281-0.564-8.179-0.564-13.561,0.507c-4.387,1.105-9.252,3.259-10.866,7.614
				c-2.716,6.484,1.102,12.48,7.61,13.531c4.334,0.562,8.1-1.612,9.713-5.948c0.539-3.818,3.822-4.382,7.103-3.818
				c2.663,0.564,4.33,8.154,5.379,13.531c0,1.615,0.565,3.285,0.565,4.897c0,7.047-3.281,10.33-5.944,12.996
				c-2.235,2.177-4.386,4.33-4.386,9.28c0,4.329,2.151,6.457,4.386,9.145h0.508c1.105,1.618,2.72,3.285,3.822,4.898
				c1.045,2.18,1.613,4.33,1.613,7.615c0,2.718-1.046,10.278-3.281,15.146c-0.514,1.128-1.591,3.308-2.663,3.308
				c-3.281,0.483-6.564,0-7.103-3.308c-1.076-3.766-3.765-5.436-6.458-5.922c-8.149-2.151-14.095,5.922-10.866,12.996
				c1.102,2.176,2.716,4.333,5.433,5.941c4.329,2.209,9.713,2.721,14.607,2.721c4.386,0,8.717-1.102,12.995-1.615
				c2.153-0.565,4.329-1.106,6.484-1.671l16.839-2.659c17.892-3.278,17.892-11.406,17.892-21.737v-50.414
				c0-4.819,0-9.713-2.156-13.534C223.028,140.49,218.214,137.776,209.471,136.161z M215.47,199.597c0,4.304,0,8.637-1.128,11.945
				c-1.023,3.201-3.202,5.436-7.024,5.916l-5.406,1.102c-2.154,0.568-3.822,1.054-5.435,1.054c-3.846,0-3.846-2.637-3.227-5.436
				c0.51-1.586,1.074-3.765,1.074-5.945c0.539-2.636,0.539-5.383,0.539-7.531c-0.539-11.944-4.386-15.736-6.001-16.816
				c-0.561-0.564-1.614-1.073-0.561-2.183c0,0,0,0,0.561,0c1.129-1.129,5.462-4.894,6.001-16.272c0-1.615,0-3.847,0-5.945
				c-0.539-2.8-1.102-5.436-1.102-7.054c-0.51-2.173-1.127-3.279-1.127-4.33c0.619-2.18,2.229-2.748,7.691-1.667l6.994,1.103
				c3.822,0.565,5.997,2.721,7.024,6.513c1.128,2.636,1.128,7.045,1.128,11.945V199.597z"/>
			<g id="g2321">
				<path id="path2323" style="fill:#FFFFFF;" d="M163.556,9.07l1.725,17.952h-1.725c-2.212-5.37-5.366-9.24-9.468-11.606
					c-4.104-2.366-9.025-3.543-14.768-3.543c-4.811,0-9.162,0.887-13.051,2.662c-3.893,1.772-6.948,4.601-9.173,8.487
					c-2.236,3.886-3.344,8.715-3.344,14.496c0,4.764,1.052,8.898,3.163,12.392c2.108,3.495,5.28,6.173,9.519,8.043
					c4.241,1.863,9.074,2.796,14.507,2.796c4.718,0,8.881-0.734,12.49-2.192c3.614-1.462,7.58-4.359,11.904-8.705l1.67,0.832
					c-3.652,4.666-7.912,8.079-12.787,10.246c-4.871,2.156-10.658,3.243-17.356,3.243c-12.069,0-21.417-3.237-28.042-9.716
					c-4.942-4.816-7.415-10.49-7.415-17.017c0-5.263,1.62-10.091,4.871-14.496c3.245-4.405,7.712-7.814,13.406-10.239
					c5.688-2.421,11.904-3.635,18.647-3.635c5.245,0,10.417,0.927,15.52,2.78c1.496,0.568,2.568,0.855,3.21,0.855
					c0.958,0,1.804-0.248,2.513-0.734c0.931-0.695,1.587-1.661,1.98-2.901H163.556z"/>
				<path id="path2325" style="fill:#FFFFFF;" d="M193.594,38.295v15.398c0,3.315,0.5,5.376,1.508,6.176
					c1.354,1.143,3.415,1.71,6.176,1.71h2.796v1.455h-31.292v-1.455h2.752c3.095,0,5.313-0.728,6.643-2.176
					c0.721-0.803,1.082-2.706,1.082-5.71V19.551c0-3.314-0.484-5.374-1.457-6.18c-1.406-1.139-3.495-1.707-6.268-1.707h-2.752
					v-1.448h26.659c6.508,0,11.641,0.486,15.39,1.458c3.758,0.972,6.922,2.617,9.495,4.926c2.576,2.31,3.863,5.048,3.863,8.212
					c0,4.307-1.96,7.815-5.861,10.513c-3.9,2.695-9.422,4.046-16.541,4.046c-1.748,0-3.64-0.091-5.671-0.268
					C198.083,38.925,195.909,38.661,193.594,38.295z M193.594,36.103c1.878,0.261,3.54,0.454,4.986,0.584
					c1.457,0.13,2.694,0.196,3.723,0.196c3.679,0,6.855-1.048,9.53-3.143c2.672-2.094,4.011-4.816,4.011-8.15
					c0-2.288-0.637-4.419-1.91-6.386c-1.272-1.964-3.081-3.436-5.423-4.411c-2.335-0.976-4.988-1.465-7.966-1.465
					c-1.803,0-4.121,0.245-6.955,0.741v22.034H193.594z"/>
				<path id="path2327" style="fill:#FFFFFF;" d="M286.564,10.216l0.781,11.621h-2.011c-1.149-3.768-2.915-6.163-5.306-7.184
					c-2.382-1.018-6.615-1.53-12.719-1.53h-12.266v20.856h2.92c8.947,0,15.525,0.409,19.737,1.23
					c4.208,0.822,7.626,2.382,10.27,4.698c2.642,2.317,3.969,5.1,3.969,8.347c0,3.928-2.011,7.374-6.03,10.333
					c-4.02,2.966-10.948,4.451-20.78,4.451h-30.895v-1.456c4.493-0.104,7.359-0.623,8.605-1.563
					c1.247-0.934,1.878-3.145,1.878-6.633V19.864c0-2.679-0.262-4.49-0.778-5.426c-0.522-0.939-1.373-1.602-2.56-1.99
					c-1.183-0.392-3.371-0.652-6.569-0.783v-1.448H286.564z M255.045,59.896c3.182,0.359,5.644,0.542,7.415,0.542
					c4.438,0,8.449-1.06,12.038-3.197c3.587-2.138,5.383-5.085,5.383-8.853c0-3.899-1.878-6.793-5.626-8.682
					c-3.752-1.88-8.517-2.826-14.281-2.826c-1.623,0-3.27,0.102-4.928,0.311V59.896z"/>
				<path id="path2329" style="fill:#FFFFFF;" d="M352.372,18.928c0-3.155-0.715-5.158-2.138-5.997
					c-1.432-0.845-4.304-1.263-8.633-1.263v-1.452h31.58v1.452c-4.489,0.104-7.357,0.623-8.609,1.56
					c-1.243,0.936-1.87,3.152-1.87,6.637v33.519c0,3.487,0.627,5.703,1.87,6.633c1.252,0.939,4.12,1.458,8.609,1.563v1.455h-31.58
					v-1.455c4.657-0.105,7.613-0.63,8.871-1.583c1.267-0.946,1.893-3.151,1.893-6.613V23.081l-34.018,31.444
					c0.036,2.251,0.242,3.756,0.613,4.516c0.372,0.767,1.24,1.371,2.607,1.808c1.367,0.434,3.782,0.682,7.26,0.737v1.455h-31.293
					v-1.455c4.494-0.104,7.357-0.624,8.604-1.563c1.246-0.933,1.873-3.145,1.873-6.633V19.864c0-3.484-0.627-5.704-1.873-6.637
					c-1.246-0.937-4.109-1.456-8.604-1.56v-1.452h31.293v1.452c-4.506,0.104-7.381,0.623-8.613,1.56
					c-1.248,0.936-1.867,3.152-1.867,6.637v30.406L352.372,18.928z"/>
				<path id="path2331" style="fill:#FFFFFF;" d="M386.194,11.665v-1.448h31.29v1.452h-2.649c-2.987,0-5.164,0.636-6.537,1.905
					c-0.862,0.829-1.299,2.822-1.299,5.981V45.35c0,3.971-0.602,7.185-1.795,9.648c-1.204,2.466-3.285,4.607-6.225,6.44
					c-2.947,1.831-6.494,2.742-10.658,2.742c-3.379,0-6.039-0.605-7.974-1.815c-1.944-1.203-2.911-2.59-2.911-4.15
					c0-1.276,0.45-2.239,1.345-2.888c1.182-0.809,2.572-1.21,4.153-1.21c1.148,0,2.184,0.274,3.097,0.819
					c0.914,0.544,2.072,1.99,3.472,4.346c0.829,1.396,1.886,2.098,3.186,2.098c0.968,0,1.879-0.427,2.714-1.286
					c0.848-0.852,1.266-2.365,1.266-4.548V19.551c0-2.662-0.228-4.431-0.697-5.286c-0.359-0.646-1.11-1.201-2.259-1.668
					c-1.534-0.623-3.172-0.933-4.888-0.933H386.194z"/>
				<path id="path2333" style="fill:#FFFFFF;" d="M468.865,45.393h-28.58l-4.995,8.301c-1.227,2.048-1.83,3.576-1.83,4.587
					c0,0.805,0.528,1.507,1.582,2.114c1.06,0.61,3.348,1.005,6.869,1.187v1.456h-23.013v-1.456c3.053-0.388,5.028-0.903,5.929-1.526
					c1.823-1.253,3.849-3.801,6.075-7.639L457.008,9.07h1.745l25.483,43.885c2.045,3.521,3.901,5.808,5.566,6.858
					c1.67,1.047,3.996,1.641,6.969,1.768v1.456h-28.823v-1.456c2.903-0.104,4.867-0.456,5.896-1.05
					c1.021-0.598,1.533-1.322,1.533-2.18c0-1.143-0.721-2.943-2.155-5.407L468.865,45.393z M467.193,42.482L454.877,21.16
					l-12.843,21.322H467.193z"/>
			</g>
			<g id="g2335">
				<path id="path2337" style="fill:#FFFFFF;" d="M299.975,224.756c-44.694,0-81.06,36.364-81.06,81.055
					c0,44.698,36.366,81.068,81.06,81.068c44.693,0,81.059-36.37,81.059-81.068C381.033,261.12,344.668,224.756,299.975,224.756z"/>
			</g>
			<g id="g2339">
				<path id="polygon2341" style="fill:#737A7F;" d="M373.019,315.469l-0.006,0.023L373.019,315.469z"/>
				<path id="path2343" style="fill:#BAA677;" d="M245.293,258.327c25.616-30.269,71.077-34.057,101.347-8.447
					c30.269,25.613,34.057,71.08,8.443,101.347c-25.612,30.272-71.076,34.058-101.342,8.44
					C223.477,334.06,219.683,288.593,245.293,258.327L245.293,258.327z"/>
				<path id="path2345" style="fill:#FFFFFF;" d="M262.763,302.94c-0.962-1.313-13.657-18.553-14.442-19.617
					c1.423-3.282,7.785-17.58,13.508-24.905l-0.627,0.195c0.175-0.085,18.194-8.61,27.754-5.269
					c0.504,0.695,12.579,17.309,13.395,18.425c-0.588,1.227-11.057,23.202-12.043,25.271
					C283.979,297.005,268.735,301.051,262.763,302.94L262.763,302.94z"/>
				<path id="path2347" style="fill:#FFFFFF;" d="M261.044,304.839c-0.003,0.059-0.021,0.138-0.021,0.138
					c-2.817,13.27-2.286,27.244-2.191,29.201c-6.822,3.505-12.563,4.702-13.654,4.911c-0.172-0.104-0.873-0.564-1.696-1.109
					c-2.905-2.079-5.579-4.946-7.82-7.766c-4.792-12.21-5.997-25.57-3.565-38.446c5.953-3.103,12.586-5.768,14.502-6.526
					C247.61,286.61,260.63,304.274,261.044,304.839L261.044,304.839z"/>
				<path id="path2349" style="fill:#FFFFFF;" d="M260.68,336.038c9.104,4.479,23.399,9.612,25.569,10.379
					c1.056,1.859,7.818,13.827,10.592,19.88c-1.221,0.51-11.895,4.96-12.399,5.175c-1.587-0.071-3.158-0.215-4.702-0.4
					c-8.696-2.676-16.999-7.091-24.37-13.326c-1.094-0.923-2.072-1.918-3.089-2.896c-2.169-3.736-4.431-8.197-6.728-13.261
					C246.727,341.369,253.081,340.061,260.68,336.038L260.68,336.038z"/>
				<path id="path2351" style="fill:#FFFFFF;" d="M327.489,368.48c-0.08-1.119-0.169-2.355-0.189-2.591
					c4.001-2.819,9.318-7.025,13.814-12.334c2.017-2.392,3.76-5.038,5.215-7.805c0.315-0.257,15.911-12.989,18.075-14.754
					c-2.689,6.591-6.401,12.878-11.24,18.602C345.964,358.111,337.102,364.386,327.489,368.48L327.489,368.48z"/>
				<path id="path2353" style="fill:#FFFFFF;" d="M333.879,248.637c-7.923-5.289-19.336-8.931-23.626-10.18
					c0.313-0.884,0.655-1.87,0.655-1.87s0.013-0.107,0.02-0.268c12.177,1.893,24.008,6.96,34.083,15.486
					c0.163,0.137,0.301,0.29,0.464,0.427l-5.442-2.066C340.032,250.17,334.446,248.78,333.879,248.637L333.879,248.637z"/>
				<path id="path2355" style="fill:#FFFFFF;" d="M307.705,238.163c-8.8,3.021-19.058,11.808-19.5,12.191
					c0,0-0.151,0.13-0.254,0.218c-9.686-2.043-23.848,3.948-27.065,5.413c-0.653-0.59-3.156-2.887-4.977-4.548
					c14.905-12.386,34.027-17.708,52.568-15.499l0,0C308.477,235.938,307.978,237.37,307.705,238.163L307.705,238.163z"/>
				<path id="path2357" style="fill:#FFFFFF;" d="M306.732,321.933c-0.829-1.335-13.741-22.188-14.413-23.268
					c0.544-1.145,11.319-23.743,12.161-25.515c0.854-0.016,26.81-0.532,28.191-0.558l1.014,1.707
					c3.136,5.295,12.487,21.055,13.676,23.058c-0.014,0.023-0.036,0.137-0.036,0.137c-1.876,7.521-9.349,22.948-10.706,25.715
					C327.627,324.576,310.02,322.366,306.732,321.933L306.732,321.933z"/>
				<path id="path2359" style="fill:#FFFFFF;" d="M350.071,297.005c-0.104-0.173-0.884-1.478-2.006-3.364l-12.647-21.346
					c0.008-0.326,0.072-14.561,0.099-20.657l3.805,0.95c0,0,3.628,1.376,5.951,2.261c0.829,0.333,1.671,0.675,2.512,1.021
					l2.956,1.423c11.062,11.755,17.339,26.621,18.579,41.92c-2.146,0.542-5.487,1.391-5.815,1.468
					C361.07,300.297,356.813,299.331,350.071,297.005L350.071,297.005z"/>
				<path id="path2361" style="fill:#FFFFFF;" d="M336.776,354.594c-0.46,0.476-0.908,0.94-1.371,1.39
					c-0.255,0.255-0.515,0.489-0.77,0.732c-0.395,0.365-0.79,0.747-1.182,1.1c-0.349,0.323-0.697,0.609-1.047,0.906
					c-0.304,0.261-0.598,0.529-0.897,0.777c-0.457,0.385-0.91,0.753-1.363,1.115c-0.177,0.138-0.346,0.287-0.517,0.418
					c-0.583,0.456-1.154,0.9-1.71,1.309c-0.025,0.026-0.058,0.049-0.083,0.074c-1.176,0.875-2.285,1.651-3.263,2.317
					c-9.059,1.791-20.087,3.083-24.953,1.621c-2.33-5.469-9.227-17.743-10.977-20.826c1.046-1.228,17.014-20.108,17.84-21.081
					c3.24,0.431,20.712,2.633,30.275,1.26c0.666,1.461,7.593,16.529,8.063,17.55c-1.429,3.1-3.393,6.027-5.633,8.673
					c-0.6,0.715-1.227,1.413-1.865,2.088C337.145,354.222,336.952,354.401,336.776,354.594L336.776,354.594z"/>
				<path id="path2363" style="fill:#FFFFFF;" d="M369.404,301.759c0.371,8.447-0.765,16.96-3.491,25.104
					c-0.111-4.858-0.424-18.585-0.548-24.06L369.404,301.759L369.404,301.759z"/>
			</g>
		</g>
	</g>
</g>
</svg>
