<?xml version="1.0" encoding="iso-8859-1"?>
<!-- Generator: Adobe Illustrator 24.0.1, SVG Export Plug-In . SVG Version: 6.00 Build 0)  -->
<svg version="1.1" id="Layer_1" xmlns="http://www.w3.org/2000/svg" xmlns:xlink="http://www.w3.org/1999/xlink" x="0px" y="0px"
	 viewBox="0 0 595.276 595.276" style="enable-background:new 0 0 595.276 595.276;" xml:space="preserve">
<g id="switch2310">
	<g id="g2314">
		<g id="&#xEB;&#xEE;&#xE9;_1">
			<g id="g2317">
				<g id="g2319">
					<path id="path2321" style="fill:#DFE1E6;" d="M298.005,55.47c-110.629-0.995-166.438-31.893-166.438-31.893l-59.8,91.69
						c0,0,20.673,13.859,38.871,37.879c24.911,32.891,7.234,83.35-21.93,139.529c-26.909,51.83-38.869,122.589,21.93,192.359
						c75.053,86.129,187.788,92.69,187.788,92.69s112.89-6.561,187.949-92.69c60.8-69.771,48.84-140.529,21.93-192.359
						c-29.17-56.18-46.85-106.639-21.93-139.529c18.2-24.02,38.87-37.879,38.87-37.879l-59.8-91.69c0,0-55.81,30.896-166.439,31.893
						h-1H298.005z"/>
					<path id="path2323" d="M522.994,114.277l-55.31-91.198c0,0-88.949,32.89-165.948,32.89c-76.99,0-170.18-32.392-170.18-32.392
						l-59.799,91.69c0,0,49.831,28.159,50.578,64.039c0.748,35.88-24.667,97.919-38.869,129.319
						c-14.202,31.39-8.971,93.43-8.971,93.43l404.397-186.119c0,0-17.189-38.13,5.23-59.8
						C506.553,134.457,522.993,114.277,522.994,114.277L522.994,114.277z"/>
					<g id="g2325">
						<polygon id="polygon2327" style="fill:#DC434A;" points="421.215,538.104 372.125,561.274 372.125,253.307 421.215,232.437 
													"/>
						<polygon id="polygon2329" style="fill:#DC434A;" points="323.045,285.446 323.045,577.725 273.955,577.725 273.955,304.886 
													"/>
						<polygon id="polygon2331" style="fill:#DC434A;" points="224.875,326.565 224.875,557.534 175.786,538.104 175.786,346.745 
													"/>
						<polygon id="polygon2333" style="fill:#DC434A;" points="519.384,313.855 519.384,436.445 470.294,499.984 470.294,232.437 
													"/>
						<polygon id="polygon2335" style="fill:#DC434A;" points="126.703,376.646 126.703,496.995 77.619,443.175 77.619,387.855 
													"/>
					</g>
					<path id="path2337" style="fill:#DFE1E6;" d="M458.964,11.787c-0.54,0.292-54.859,29.281-160.079,30.227h-0.78
						c-105.209-0.951-159.528-29.935-160.068-30.227l-10.917-5.96l-6.833,10.399L53.255,119.006l10.99,7.42
						c0.189,0.13,19.166,13.07,35.655,34.84c17.415,22.98,10.494,60.43-23.144,125.209c-26.741,51.5-44.333,129.289,23.728,207.39
						c77.877,89.379,192.318,97.009,197.148,97.289l0.79,0.04l0.78-0.04c4.84-0.28,119.439-7.91,197.309-97.29
						c68.069-78.1,50.47-155.889,23.73-207.389c-33.629-64.779-40.56-102.219-23.14-125.209c16.49-21.77,35.46-34.71,35.65-34.84
						l10.97-7.399l-7.21-11.11l-66.6-102.109l-10.95,5.98L458.964,11.787z M298.005,68.925h1
						c85.7-0.771,139.51-18.941,161.539-28.235c8.87,13.608,37.25,57.128,46.64,71.518c-8.33,6.91-20.3,17.98-31.529,32.81
						c-10.32,13.61-14.521,29.33-14.521,46.22c0,33.771,16.82,72.189,35.23,107.64c11.079,21.35,20.34,47.96,20.34,77.31
						c0,31.26-10.5,65.619-40.47,100.01c-67.78,77.779-169.699,87.389-177.81,88.029c-8.109-0.641-109.869-10.25-177.648-88.029
						c-29.97-34.39-40.47-68.75-40.47-100.01c0-29.35,9.256-55.96,20.34-77.31c18.4-35.45,35.226-73.859,35.226-107.64
						c0-16.88-4.205-32.609-14.518-46.22c-11.233-14.829-23.202-25.899-31.536-32.81c9.388-14.389,37.77-57.906,46.642-71.516
						c22.026,9.294,75.806,27.463,161.429,28.234h0.051h0.069v-0.001H298.005z"/>
					<polygon id="polygon2339" style="fill:#DFE1E6;" points="56.754,376.766 78.792,425.865 487.424,242.477 465.384,193.377 					
						"/>
				</g>
				<g id="g2341">
					<path id="path2343" d="M159.266,380.835l-2.729-6.05l8.5-29.76l-16.072,7.24l-2.533-5.62l25.226-11.359l2.34,5.199l-8.84,30.93
						l19.609-8.829l2.53,5.619L159.266,380.835L159.266,380.835z"/>
					<path id="path2345" d="M191.706,366.225l-14.96-33.229l14.649-6.6c3.69-1.66,6.5-2.569,8.44-2.72
						c1.939-0.16,3.75,0.3,5.439,1.37c1.69,1.08,2.98,2.6,3.86,4.56c1.13,2.49,1.3,4.891,0.52,7.19c-0.77,2.3-2.56,4.34-5.37,6.109
						c1.87,0.17,3.52,0.55,4.95,1.12c1.42,0.58,3.54,1.79,6.36,3.641l7.12,4.59l-8.23,3.71l-8.31-5.011
						c-2.96-1.76-4.92-2.829-5.89-3.199c-0.961-0.37-1.87-0.511-2.73-0.431c-0.85,0.09-2.08,0.49-3.691,1.221l-1.43,0.64l6.26,13.89
						L191.706,366.225L191.706,366.225z M190.065,343.905l5.15-2.319c3.33-1.5,5.359-2.57,6.06-3.221
						c0.71-0.649,1.15-1.409,1.32-2.279c0.17-0.88,0.03-1.82-0.42-2.82c-0.5-1.12-1.22-1.88-2.14-2.29
						c-0.931-0.41-2-0.45-3.211-0.12c-0.6,0.181-2.31,0.9-5.13,2.17l-5.43,2.45L190.065,343.905z"/>
					<path id="path2347" d="M226.546,350.535l-14.971-33.229l25.65-11.55l2.529,5.63l-18.659,8.4l3.3,7.329l17.38-7.829l2.54,5.619
						l-17.38,7.83l4.06,9.03l19.34-8.71l2.53,5.62L226.546,350.535L226.546,350.535z"/>
					<path id="path2349" d="M258.715,336.046l-14.96-33.23l6.78-3.05l24.29,15.84l-10.03-22.26l6.48-2.92l14.96,33.23l-7,3.15
						l-23.851-15.45l9.81,21.77L258.715,336.046L258.715,336.046z"/>
					<path id="path2351" d="M291.025,281.536l6.989-3.15l9.48,21.05c1.24,2.761,1.94,4.99,2.1,6.69c0.2,2.24-0.319,4.35-1.56,6.32
						c-1.25,1.97-3.32,3.609-6.22,4.909c-3.41,1.53-6.45,1.79-9.12,0.75c-2.67-1.04-4.83-3.35-6.471-6.949l6.381-3.591
						c0.939,1.891,1.84,3.12,2.689,3.69c1.28,0.87,2.68,0.97,4.2,0.28c1.53-0.69,2.41-1.601,2.66-2.74
						c0.25-1.14-0.23-3.06-1.441-5.75L291.025,281.536z"/>
					<path id="path2353" d="M351.555,294.236l-7.52,3.39l-6.41-6.23l-13.811,6.21l0.561,8.87l-7.49,3.38l-1.64-39.229l7.489-3.37
						L351.555,294.236z M332.864,286.776l-10.369-10.09l0.91,14.35L332.864,286.776z"/>
					<path id="path2355" d="M355.215,292.596l-14.97-33.229l6.789-3.06l24.28,15.85l-10.02-22.269l6.47-2.91l14.96,33.22l-6.99,3.16
						l-23.85-15.45l9.8,21.77L355.215,292.596z"/>
					<path id="path2357" d="M389.875,276.986l-14.96-33.23l6.979-3.149l14.96,33.23L389.875,276.986z"/>
					<path id="path2359" d="M403.444,270.876l-14.96-33.23l6.78-3.061l24.29,15.851l-10.03-22.271l6.48-2.909l14.959,33.22
						l-6.999,3.159l-23.85-15.449l9.811,21.769L403.444,270.876L403.444,270.876z"/>
				</g>
				<g id="g2361">
					<path id="path2363" style="fill:#DC434A;" d="M153.296,254.416l21.03-9.359c4.17-1.851,7.34-3.07,9.54-3.65
						c2.189-0.57,4.329-0.68,6.42-0.34c2.09,0.34,4.069,1.16,5.93,2.45c1.87,1.29,3.29,3.029,4.27,5.229
						c1.061,2.38,1.37,4.86,0.931,7.44c-0.431,2.58-1.561,4.87-3.38,6.869c3.59-0.52,6.72-0.069,9.399,1.341
						c2.691,1.409,4.68,3.59,5.99,6.529c1.029,2.311,1.479,4.811,1.34,7.49c-0.14,2.69-0.88,5.11-2.22,7.269
						c-1.351,2.171-3.36,4.03-6.051,5.591c-1.68,0.97-5.899,2.989-12.649,6.039l-17.89,7.971L153.296,254.416L153.296,254.416z
						 M167.645,258.156l5.25,11.78l6.971-3.11c4.149-1.84,6.699-3.05,7.659-3.62c1.73-1.01,2.891-2.26,3.48-3.729
						c0.6-1.471,0.53-3.03-0.2-4.681c-0.7-1.569-1.729-2.649-3.06-3.239c-1.341-0.58-2.94-0.58-4.811,0
						c-1.1,0.35-4.16,1.649-9.18,3.88L167.645,258.156L167.645,258.156z M176.656,278.386l6.039,13.57l9.87-4.39
						c3.84-1.71,6.23-2.9,7.16-3.57c1.47-0.98,2.45-2.23,2.97-3.75c0.52-1.51,0.38-3.17-0.42-4.97c-0.68-1.521-1.64-2.65-2.88-3.37
						c-1.24-0.71-2.7-0.99-4.359-0.83c-1.671,0.16-4.931,1.32-9.78,3.479L176.656,278.386z"/>
					<path id="path2365" style="fill:#DC434A;" d="M276.335,260.586l-11.54,5.141l-9.62-9.521l-21.039,9.37l0.81,13.45l-11.359,5.05
						l-2.29-59.939l11.439-5.09L276.335,260.586L276.335,260.586z M247.875,249.126l-15.67-15.63l1.33,22.021L247.875,249.126z"/>
					<path id="path2367" style="fill:#DC434A;" d="M281.975,258.076l-22.649-50.87l10.28-4.579l36.829,24.479l-15.19-34.12
						l9.82-4.37l22.649,50.87l-10.61,4.73l-36.209-23.959l14.899,33.449L281.975,258.076z"/>
					<path id="path2369" style="fill:#DC434A;" d="M382.364,213.377l-11.539,5.14l-9.631-9.521l-21.04,9.36l0.82,13.45l-11.359,5.06
						l-2.301-59.939l11.45-5.1L382.364,213.377L382.364,213.377z M353.905,201.906l-15.671-15.619l1.32,22.01L353.905,201.906z"/>
					<path id="path2371" style="fill:#DC434A;" d="M394.244,208.076l-18.809-42.249l-15.45,6.88l-3.84-8.62l41.48-18.47l3.84,8.62
						l-15.45,6.88l18.82,42.249L394.244,208.076z"/>
				</g>
				<g id="g2373">
					<path id="path2375" style="fill:#DC434A;" d="M163.855,151.646V95.958h39.8v9.438h-28.119v13.171h24.289v9.439h-24.289v23.64
						H163.855z"/>
					<path id="path2377" style="fill:#DC434A;" d="M213.466,151.646V95.958h11.68v24.669l23.66-24.669h15.72l-21.86,21.709
						l22.981,33.979h-15.13l-15.96-26.1l-9.41,9.29v16.81H213.466L213.466,151.646z"/>
				</g>
				<g id="g2379">
					<path id="path2381" d="M266.385,531.625v7.569h-25.879c0.279-2.87,1.119-5.59,2.529-8.17c1.4-2.569,4.18-5.979,8.32-10.229
						c3.33-3.431,5.37-5.771,6.13-6.981c1.01-1.689,1.52-3.359,1.52-5.01c0-1.83-0.449-3.229-1.35-4.21
						c-0.9-0.979-2.15-1.47-3.74-1.47c-1.58,0-2.83,0.51-3.76,1.54c-0.93,1.02-1.47,2.72-1.61,5.1l-7.289-0.82
						c0.439-4.47,1.819-7.68,4.14-9.619c2.33-1.95,5.23-2.931,8.72-2.931c3.82,0,6.82,1.141,9,3.4c2.18,2.28,3.27,5.1,3.27,8.47
						c0,1.92-0.31,3.75-0.93,5.49c-0.63,1.729-1.62,3.55-2.979,5.45c-0.9,1.26-2.53,3.069-4.891,5.439
						c-2.359,2.36-3.859,3.93-4.479,4.71c-0.63,0.78-1.13,1.53-1.52,2.271H266.385L266.385,531.625z"/>
					<path id="path2383" d="M283.535,496.395c3.74,0,6.66,1.48,8.76,4.42c2.51,3.49,3.76,9.28,3.76,17.37
						c0,8.07-1.26,13.86-3.779,17.39c-2.091,2.91-5,4.37-8.74,4.37c-3.75,0-6.771-1.6-9.07-4.79c-2.3-3.189-3.449-8.88-3.449-17.06
						c0-8.03,1.26-13.81,3.789-17.33C276.896,497.854,279.805,496.395,283.535,496.395L283.535,496.395z M283.535,503.125
						c-0.89,0-1.68,0.319-2.38,0.95c-0.7,0.63-1.24,1.76-1.62,3.399c-0.51,2.12-0.76,5.69-0.76,10.71c0,5.021,0.22,8.47,0.68,10.34
						c0.45,1.88,1.03,3.13,1.72,3.76c0.681,0.62,1.471,0.931,2.36,0.931c0.9,0,1.689-0.32,2.39-0.95c0.69-0.63,1.23-1.76,1.62-3.4
						c0.51-2.1,0.76-5.659,0.76-10.68c0-5.02-0.229-8.47-0.68-10.35c-0.46-1.87-1.03-3.13-1.72-3.761
						C285.215,503.444,284.435,503.125,283.535,503.125L283.535,503.125z"/>
					<path id="path2385" d="M313.205,496.395c3.74,0,6.66,1.48,8.76,4.42c2.51,3.49,3.76,9.28,3.76,17.37
						c0,8.07-1.26,13.86-3.779,17.39c-2.091,2.91-5,4.37-8.74,4.37c-3.75,0-6.77-1.6-9.07-4.79c-2.3-3.189-3.45-8.88-3.45-17.06
						c0-8.03,1.27-13.81,3.79-17.33C306.565,497.854,309.475,496.395,313.205,496.395L313.205,496.395z M313.205,503.125
						c-0.891,0-1.68,0.319-2.38,0.95c-0.7,0.63-1.24,1.76-1.62,3.399c-0.51,2.12-0.76,5.69-0.76,10.71c0,5.021,0.23,8.47,0.68,10.34
						c0.45,1.88,1.03,3.13,1.71,3.76c0.69,0.62,1.479,0.931,2.37,0.931c0.89,0,1.689-0.32,2.39-0.95c0.69-0.63,1.23-1.76,1.62-3.4
						c0.5-2.1,0.76-5.659,0.76-10.68c0-5.02-0.229-8.47-0.68-10.35c-0.46-1.87-1.03-3.13-1.72-3.761
						C314.885,503.444,314.095,503.125,313.205,503.125L313.205,503.125z"/>
					<path id="path2387" d="M355.305,507.015l-7.1,0.87c-0.181-1.62-0.631-2.82-1.37-3.6c-0.74-0.771-1.7-1.16-2.87-1.16
						c-1.57,0-2.891,0.79-3.97,2.35c-1.08,1.57-1.761,4.82-2.04,9.76c1.84-2.41,4.13-3.609,6.859-3.609c3.09,0,5.73,1.3,7.94,3.89
						c2.2,2.59,3.3,5.93,3.3,10.02c0,4.351-1.16,7.841-3.47,10.471c-2.311,2.619-5.271,3.939-8.891,3.939
						c-3.89,0-7.08-1.68-9.58-5.019c-2.5-3.34-3.76-8.83-3.76-16.45c0-7.81,1.3-13.45,3.91-16.9c2.6-3.45,5.98-5.181,10.14-5.181
						c2.92,0,5.33,0.91,7.25,2.73C353.564,500.935,354.785,503.564,355.305,507.015L355.305,507.015z M338.585,524.904
						c0,2.65,0.55,4.7,1.66,6.141c1.109,1.449,2.38,2.17,3.81,2.17c1.37,0,2.51-0.591,3.43-1.771c0.92-1.18,1.37-3.12,1.37-5.819
						c0-2.771-0.49-4.801-1.479-6.08c-0.98-1.29-2.221-1.941-3.69-1.941c-1.43,0-2.64,0.62-3.62,1.85
						C339.074,520.685,338.585,522.494,338.585,524.904L338.585,524.904z"/>
				</g>
				<g id="g2389">
					<path id="path2391" d="M285.285,369.725c32.26-7.22,64.289,12.88,71.399,44.65c7.12,31.85-13.32,63.61-45.58,70.82
						c-32.119,7.189-64.139-12.83-71.269-44.69C232.735,408.725,253.155,376.905,285.285,369.725L285.285,369.725z"/>
					<path id="path2393" style="fill:#FFFFFF;" d="M243.766,408.555l3.81,7.07c-1.23,7.97-1.03,14.681,0.46,23.56l-2.3,12.59
						c-1.68-3.65-3.06-7.58-3.98-11.69C239.335,429.266,240.226,418.415,243.766,408.555z"/>
					<path id="path2395" style="fill:#FFFFFF;" d="M299.555,370.195l-6.72,4.38c-6.2,1.53-11.96,3.11-17.27,5.73l-10.851,0.71
						c6.141-4.4,13.25-7.65,21-9.38C290.365,370.596,295.015,370.136,299.555,370.195L299.555,370.195z"/>
					<path id="path2397" style="fill:#FFFFFF;" d="M351.545,404.885l-2.12-1.109c-3.69-7.811-9.03-13.66-15.58-17.88l-1.6-4.891
						C340.635,386.975,347.354,395.175,351.545,404.885z"/>
					<path id="path2399" style="fill:#FFFFFF;" d="M337.415,469.395l0.439-3.489c5.66-4.931,9.95-11.5,12.83-19.84l2.33-0.521
						C349.944,454.655,344.515,462.835,337.415,469.395L337.415,469.395z"/>
					<path id="path2401" style="fill:#FFFFFF;" d="M267.155,475.825l5.3-0.75c5.97,3.55,14.14,5.68,24.5,6.31l2.67,3.29
						C287.915,485.064,276.695,481.825,267.155,475.825z"/>
					<path id="path2403" style="fill:#FFFFFF;" d="M267.985,401.705c1.04-7.57,3.53-14.09,7.96-19.399
						c5.72-2.721,11.49-4.58,17.43-5.33c6.47,3.22,12.08,7.37,16.63,12.609c-0.9,4.66-2.09,9.311-3.81,13.86
						c-8.221,1.84-16,4.66-23.61,8.229C277.105,408.725,272.335,405.415,267.985,401.705z"/>
					<path id="path2405" style="fill:#FFFFFF;" d="M249.745,415.646c4.97-5.07,10.71-9.011,16.86-11.761
						c4.55,3.66,9.06,6.75,14.149,9.931c-1.189,8.17-1.09,16.64,0.88,25.47l-13.94,10.67c-6.27-1.68-12.26-4.66-17.46-10.54
						C248.695,430.915,248.655,423.005,249.745,415.646z"/>
					<path id="path2407" style="fill:#FFFFFF;" d="M308.825,403.575l4-13.91l9.699-2.6c9.45-2.48,17.851,5.5,24.811,17.97
						c-0.5,6.8-2.12,13.06-4.49,17.899c-6.05,1.21-12.729,1.27-19.76,0.391C318.625,416.565,313.965,410.195,308.825,403.575z"/>
					<path id="path2409" style="fill:#FFFFFF;" d="M269.205,452.205c0.46,6.88,1.89,13.89,4.98,20.97
						c6.529,3.79,14.619,5.57,23.609,5.87c5.01-4.29,9.75-8.8,14.13-13.66c-0.8-6.16-2.37-12.21-4.67-18.01
						c-8.55-0.9-16.47-3.229-24.28-6.3L269.205,452.205L269.205,452.205z"/>
					<path id="path2411" style="fill:#FFFFFF;" d="M309.785,446.515c2.42,6.29,3.989,12.051,5.05,18.37
						c8.87,1.38,16.28,1.101,22.02-0.91c5.42-5.02,9.311-11.069,11.55-18.119c-1.08-7.09-3.17-13.88-6.109-19.921
						c-6.54,0.671-12.82,0.86-18.97,0.07C319.694,432.935,315.274,440.185,309.785,446.515L309.785,446.515z"/>
				</g>
			</g>
		</g>
	</g>
</g>
</svg>
