<?xml version="1.0" encoding="UTF-8" standalone="no"?>
<svg
   xmlns:dc="http://purl.org/dc/elements/1.1/"
   xmlns:cc="http://creativecommons.org/ns#"
   xmlns:rdf="http://www.w3.org/1999/02/22-rdf-syntax-ns#"
   xmlns:svg="http://www.w3.org/2000/svg"
   xmlns="http://www.w3.org/2000/svg"
   xmlns:sodipodi="http://sodipodi.sourceforge.net/DTD/sodipodi-0.dtd"
   xmlns:inkscape="http://www.inkscape.org/namespaces/inkscape"
   version="1.1"
   id="Layer1"
   x="0px"
   y="0px"
   width="1000"
   height="1000"
   viewBox="0 0 1000 1000"
   style="enable-background:new 0 0 592 840;"
   xml:space="preserve"
   sodipodi:docname="Becej.svg"
   inkscape:version="1.0.1 (3bc2e813f5, 2020-09-07)"><metadata
   id="metadata43"><rdf:RDF><cc:Work
       rdf:about=""><dc:format>image/svg+xml</dc:format><dc:type
         rdf:resource="http://purl.org/dc/dcmitype/StillImage" /></cc:Work></rdf:RDF></metadata><defs
   id="defs41" /><sodipodi:namedview
   pagecolor="#ffffff"
   bordercolor="#666666"
   borderopacity="1"
   objecttolerance="10"
   gridtolerance="10"
   guidetolerance="10"
   inkscape:pageopacity="0"
   inkscape:pageshadow="2"
   inkscape:window-width="1920"
   inkscape:window-height="1017"
   id="namedview39"
   showgrid="false"
   inkscape:zoom="0.886"
   inkscape:cx="500"
   inkscape:cy="500"
   inkscape:window-x="-8"
   inkscape:window-y="-8"
   inkscape:window-maximized="1"
   inkscape:current-layer="Layer1" />
<g
   id="g36"
   transform="matrix(3.5078174,0,0,3.5078174,-506.18242,-1298.0011)">
<path
   style="fill:#5776a2"
   d="M 401.192,439.304 C 369.095,433.875 352.09,411.919 349.209,372.18 l -0.156,-2.149 h -2.155 l -119.819,0.026 -0.154,2.149 c -2.866,39.749 -19.859,61.714 -51.952,67.151 l -2.164,0.367 0.249,2.181 c 10.23,89.518 46.348,155.114 113.668,206.431 l 1.405,1.071 1.406,-1.071 C 356.831,596.98 392.92,531.367 403.107,441.848 l 0.248,-2.18 z"
   id="path2" />
<path
   style="fill:#ffffff"
   d="m 333.088,530.604 -2.426,-13.587 -20.447,34.052 c 0.883,5.02 1.926,10.935 2.396,13.61 z"
   id="path4" />
<polygon
   style="fill:#ffffff"
   points="308.76,553.492 288.355,587.481 290.662,601.2 311.153,567.103 "
   id="polygon6" />
<polygon
   style="fill:#ffffff"
   points="292.284,602.102 305.436,597.757 325.883,563.745 312.81,567.943 "
   id="polygon8" />
<path
   style="fill:#ffffff"
   d="m 327.331,561.334 20.545,-34.175 -13.167,4.349 -20.448,34.023 c 2.959,-0.952 9.374,-3.012 13.07,-4.197 z"
   id="path10" />
<path
   style="fill:#ffffff"
   d="m 273.553,573.02 -35.842,-21.502 13.844,-23.074 1.553,0.931 -10.755,17.927 15.093,9.054 5.307,-8.848 c 2.35,-3.915 5.126,-6.417 8.334,-7.489 2.97,-1.026 5.843,-0.707 8.607,0.951 2.636,1.58 4.236,3.923 4.813,7.042 0.619,3.474 -0.239,7.148 -2.558,11.013 z m -14.582,-15.746 16.143,9.682 4.131,-6.885 c 1.642,-2.737 2.121,-5.375 1.444,-7.899 -0.645,-2.448 -2.161,-4.386 -4.558,-5.825 -2.185,-1.311 -4.417,-1.689 -6.697,-1.137 -2.518,0.62 -4.627,2.339 -6.332,5.179 z"
   id="path12" />
<polygon
   style="fill:#ffffff"
   points="304.146,518.563 305.672,519.479 295.236,536.874 259.396,515.374 269.831,497.978 271.385,498.911 264.052,511.13 278.991,520.092 286.323,507.872 287.852,508.788 280.519,521.01 296.813,530.785 "
   id="polygon14" />
<path
   style="fill:#ffffff"
   d="m 275.917,487.834 2.934,-4.889 8.77,5.262 c 2.447,1.469 4.486,2.058 6.105,1.756 1.615,-0.295 3.074,-1.528 4.375,-3.696 0.784,-1.309 1.427,-2.609 1.932,-3.897 0.498,-1.294 0.836,-2.437 1.015,-3.452 l -14.545,-8.727 3.104,-5.173 35.891,21.531 -3.103,5.173 -19.818,-11.889 c -0.205,0.978 -0.552,2.138 -1.072,3.488 -0.516,1.341 -1.039,2.467 -1.571,3.353 -2.582,4.304 -5.239,6.876 -7.954,7.708 -2.308,0.675 -5.03,0.071 -8.161,-1.809 z"
   id="path16" />
<polygon
   style="fill:#ffffff"
   points="344.459,451.368 345.985,452.284 335.55,469.679 299.71,448.177 310.145,430.783 311.697,431.714 304.365,443.935 319.304,452.897 326.637,440.675 328.163,441.591 320.832,453.813 337.126,463.59 "
   id="polygon18" />
<path
   style="fill:#ffffff"
   d="m 320.62,413.323 2.829,-4.717 27.395,16.436 c 3.199,1.919 5.048,3.847 5.531,5.787 0.492,1.946 -0.23,4.52 -2.166,7.747 l -2.726,4.545 -1.526,-0.916 2.695,-4.493 c 0.965,-1.608 1.146,-2.918 0.542,-3.901 -0.608,-0.997 -2.04,-2.17 -4.308,-3.534 z"
   id="path20" />
<polygon
   style="fill:#ffffff"
   points="354.92,520.007 353.089,523.052 333.336,511.201 332.246,514.056 331.099,513.549 333.629,507.237 "
   id="polygon22" />
<path
   style="fill:#ffffff"
   d="m 354.081,499.83 c -0.016,1.448 -0.411,2.813 -1.179,4.095 -1.008,1.685 -2.385,2.832 -4.126,3.443 -1.955,0.644 -3.972,0.344 -6.039,-0.902 -1.98,-1.185 -3.158,-2.827 -3.532,-4.918 -0.368,-2.098 0.061,-4.17 1.296,-6.228 1.35,-2.247 3.111,-3.694 5.291,-4.341 2.014,-0.579 3.852,-0.375 5.5,0.617 1.407,0.844 2.532,1.859 3.376,3.053 0.224,0.341 0.733,1.263 1.526,2.776 l 5.514,11.198 -2.005,3.339 z m -4.706,-4.765 c -1.535,-0.921 -3.014,-1.352 -4.437,-1.285 -1.584,0.013 -2.784,0.699 -3.591,2.04 -0.733,1.218 -0.784,2.512 -0.163,3.882 0.296,0.621 0.71,1.217 1.242,1.783 0.526,0.566 1.153,1.068 1.874,1.499 1.484,0.893 2.951,1.298 4.396,1.22 1.619,-0.102 2.83,-0.81 3.615,-2.129 0.715,-1.182 0.749,-2.471 0.098,-3.857 -0.587,-1.24 -1.596,-2.29 -3.034,-3.153 z"
   id="path24" />
<path
   style="fill:#ffffff"
   d="m 353.595,484.996 -0.638,1.069 c -1.265,-1.08 -2.047,-2.392 -2.348,-3.928 -0.346,-1.743 0.014,-3.486 1.064,-5.234 1.152,-1.922 2.533,-3.175 4.145,-3.767 1.614,-0.598 3.156,-0.453 4.634,0.434 1.423,0.854 2.712,2.272 3.861,4.258 0.266,0.454 0.566,1.044 0.905,1.77 0.336,0.728 0.738,1.649 1.2,2.759 l 3.865,9.273 5.365,-8.942 1.219,0.732 -7.708,12.85 -5.191,-12.315 -1.865,-4.189 c -0.928,-1.707 -1.928,-2.887 -3.003,-3.536 -2.713,-1.624 -4.935,-0.996 -6.658,1.882 -0.762,1.265 -0.966,2.588 -0.612,3.971 0.315,1.076 0.901,2.044 1.765,2.913 z"
   id="path26" />
<path
   style="fill:#ffffff"
   d="m 378.788,457.278 c 3.351,2.013 5.461,4.422 6.319,7.228 0.848,2.563 0.549,5.045 -0.884,7.44 -1.441,2.393 -3.698,3.67 -6.781,3.827 -2.831,0.09 -5.672,-0.717 -8.535,-2.435 -3.403,-2.043 -5.651,-4.538 -6.752,-7.482 -1.042,-2.77 -0.854,-5.34 0.574,-7.716 1.387,-2.317 3.72,-3.488 7,-3.531 3.048,-0.015 6.067,0.874 9.059,2.669 z m -8.093,12.708 c 2.625,1.577 5.053,2.497 7.287,2.761 2.523,0.301 4.249,-0.317 5.176,-1.865 0.948,-1.583 0.747,-3.428 -0.614,-5.537 -0.632,-0.903 -1.401,-1.765 -2.317,-2.598 -0.911,-0.832 -2.041,-1.647 -3.376,-2.449 -2.66,-1.6 -5.213,-2.549 -7.666,-2.867 -2.676,-0.364 -4.479,0.228 -5.411,1.783 -0.909,1.513 -0.612,3.35 0.885,5.494 0.679,0.952 1.524,1.866 2.536,2.758 1.005,0.886 2.177,1.729 3.5,2.52 z"
   id="path28" />
<path
   style="fill:#ffffff"
   d="m 237.517,481.535 c -1.173,-2.621 -3.376,-4.902 -6.618,-6.846 -3.224,-1.935 -6.258,-2.794 -9.105,-2.586 -3.341,0.23 -5.982,1.953 -7.907,5.163 -0.574,0.954 -0.992,1.801 -1.262,2.528 l -0.514,1.306 c -0.067,0.463 -0.145,0.836 -0.246,1.115 l 21.419,12.85 1.734,-1.906 1.709,-2.402 c 1.874,-3.122 2.133,-6.196 0.79,-9.222 z"
   id="path30" />
<path
   style="fill:#ffffff"
   d="m 206.926,489.297 -1.546,2.147 c -1.924,3.21 -2.229,6.359 -0.912,9.427 1.156,2.612 3.359,4.893 6.616,6.847 3.226,1.936 6.248,2.814 9.076,2.637 3.345,-0.236 5.971,-1.937 7.875,-5.109 l 0.619,-1.032 0.423,-0.705 0.29,-0.82 0.393,-0.97 c 0.125,-0.357 0.215,-0.62 0.266,-0.799 0.047,-0.17 0.109,-0.404 0.164,-0.684 l -21.426,-12.854 z"
   id="path32" />
<path
   style="fill:#ffffff"
   d="m 231.334,374.689 c -3.416,39.35 -21.369,62.467 -53.392,68.778 5.608,46.942 18.526,87.154 39.518,122.112 L 331.994,374.666 c -29.09,0.007 -97.474,0.022 -100.66,0.023 z m 8.59,124.357 -3.1,5.169 -4.933,-2.96 -0.451,1.682 -0.619,1.794 c -0.199,0.557 -0.446,1.077 -0.728,1.55 l -0.652,1.083 c -2.264,3.774 -5.504,6.182 -9.711,7.224 -4.209,1.041 -8.119,0.473 -11.746,-1.703 -3.611,-2.166 -5.894,-5.336 -6.844,-9.519 -0.958,-4.188 -0.27,-8.22 2.056,-12.098 0.12,-0.197 0.237,-0.396 0.346,-0.575 0.114,-0.19 0.248,-0.414 0.407,-0.681 0.156,-0.257 0.277,-0.441 0.373,-0.546 0.103,-0.116 0.324,-0.333 0.646,-0.666 0.233,-0.317 0.417,-0.545 0.549,-0.711 0.128,-0.158 0.275,-0.328 0.447,-0.504 l 1.307,-1.098 -4.924,-2.954 3.101,-5.17 4.923,2.955 0.481,-1.734 0.668,-1.727 0.657,-1.559 0.588,-0.981 c 2.275,-3.792 5.506,-6.24 9.68,-7.336 4.169,-1.09 8.024,-0.578 11.553,1.539 3.66,2.198 6.017,5.376 7.072,9.552 1.053,4.176 0.452,8.155 -1.817,11.938 -0.681,1.135 -1.314,2.042 -1.881,2.708 -0.663,0.808 -1.472,1.597 -2.423,2.347 z m 26.186,-43.649 c -1.061,0.579 -2.55,0.773 -4.453,0.614 -2.415,-0.232 -5.452,-1.143 -9.11,-2.728 -3.662,-1.579 -6.386,-2.078 -8.167,-1.51 -1.043,0.288 -2.357,1.324 -3.939,3.086 l 0.306,1.389 18.275,10.964 -3.099,5.17 -34.475,-20.684 3.101,-5.168 14.589,8.754 -5.434,-24.017 1.028,-1.713 4.588,20.272 c 1.903,-1.886 3.675,-3.128 5.34,-3.709 2.5,-0.872 5.602,-0.485 9.315,1.158 3.712,1.642 7.193,2.444 10.453,2.424 2.196,0.005 4.225,-0.53 6.079,-1.629 z m 24.918,-35.437 -9.065,-9.994 -13.366,1.785 6.714,-11.699 -5.867,-12.168 13.214,2.777 9.744,-9.332 1.465,13.427 11.898,6.378 -12.322,5.532 z"
   id="path34" />
</g>
</svg>
