<svg height="1000" viewBox="0 0 1000 999.99998" width="1000" xmlns="http://www.w3.org/2000/svg"><g transform="matrix(3.2489396 0 0 3.2489396 -146.41752 -453.3044)"><path d="m 162.241 166.844 c 63.451 0 115.195 51.752 115.195 115.203 c 0 51.385 -33.914 95.079 -80.514 109.839 l -34.681 37.163 l -34.697 -37.163 C 80.96 377.125 47.03 333.431 47.03 282.047 C 47.029 218.596 98.79 166.844 162.241 166.844" fill="#fff"/><path d="m 162.241 166.844 c 63.451 0 115.195 51.752 115.195 115.203 c 0 51.385 -33.914 95.079 -80.514 109.839 l -34.681 37.163 l -34.697 -37.163 C 80.96 377.125 47.03 333.431 47.03 282.047 C 47.029 218.596 98.79 166.844 162.241 166.844 Z" fill="none" stroke="#000" stroke-width="3.9275"/><path d="m 162.241 175.792 c 58.52 0 106.264 47.727 106.264 106.255 c 0 58.537 -47.744 106.264 -106.264 106.264 c -58.52 0 -106.263 -47.728 -106.263 -106.264 c 0 -58.528 47.743 -106.255 106.263 -106.255 z" fill="none" stroke="#000" stroke-width="3.9275"/><path d="m 166.372 141.633 c 3.184 2.964 5.976 7.299 8.115 12.589 c 2.956 -3.698 6.188 -6.507 9.503 -8.14 c 2.205 2.906 3.935 6.768 5.078 11.331 c 3.511 -3.241 7.707 -5.633 12.295 -6.882 c -.702 3.862 -1.11 8.295 -1.143 13.005 c .343 3.045 .539 6.205 .539 9.446 c 0 19.676 -6.907 36.371 -16.344 41.759 c -6.352 -1.894 -13.079 -2.923 -20.035 -2.923 c -.359 0 -.718 .008 -1.078 .017 c -.343 -.008 -.702 -.017 -1.062 -.017 c -6.955 0 -13.683 1.029 -20.035 2.923 c -9.438 -5.388 -16.344 -22.084 -16.344 -41.759 c 0 -3.241 .196 -6.4 .539 -9.446 c -.032 -4.711 -.44 -9.144 -1.143 -13.005 c 4.588 1.249 8.784 3.641 12.295 6.882 c 1.143 -4.563 2.874 -8.425 5.078 -11.331 c 3.314 1.633 6.547 4.441 9.503 8.14 c 2.204 -5.429 5.062 -9.846 8.377 -12.818 c .784 -.367 1.714 -.571 2.694 -.571 c 1.192 0 2.286 .294 3.168 .8 M 138.646 379.15 h 47.189 v 12.981 H 138.646 V 379.15" fill="#fff"/><path d="m 162.241 216.587 c 36.053 0 65.46 29.407 65.46 65.459 c 0 36.069 -29.407 65.459 -65.46 65.459 c -36.052 0 -65.459 -29.391 -65.459 -65.459 c -.001 -36.052 29.406 -65.459 65.459 -65.459"/><path d="m 162.241 240.41 c 22.941 0 41.637 18.696 41.637 41.637 c 0 22.941 -18.696 41.653 -41.637 41.653 c -22.941 0 -41.637 -18.712 -41.637 -41.653 c 0 -22.941 18.696 -41.637 41.637 -41.637" fill="#fff"/><path d="m 162.241 240.41 c 22.941 0 41.637 18.696 41.637 41.637 c 0 22.941 -18.696 41.653 -41.637 41.653 c -22.941 0 -41.637 -18.712 -41.637 -41.653 c 0 -22.941 18.696 -41.637 41.637 -41.637 z" fill="none" stroke="#000" stroke-width="1.6369"/><path d="M 177.067 286.888 L 186.227 315.046 L 162.257 297.64 L 138.288 315.046 L 147.448 286.88 L 123.478 269.474 L 153.097 269.474 L 162.257 241.3 L 171.417 269.474 L 201.037 269.474 L 177.067 286.888" fill="#cc5431"/><path d="M 118.677 272.217 L 102.088 266.772 L 105.876 255.236 L 107.934 255.913 L 104.929 265.074 L 109.975 266.739 L 112.62 258.681 L 114.514 259.302 L 111.869 267.36 L 119.461 269.85 L 118.677 272.217" fill="#fff"/><path d="m 107.754 251.399 l 1.453 -2.024 l 8.785 6.302 c 1.078 .776 1.992 1.225 2.955 1.298 c 1.47 .237 2.547 -.417 3.527 -1.764 c 1.16 -1.625 1.388 -3.094 .8 -4.547 c -.343 -.653 -1.062 -1.372 -2.139 -2.147 l -8.784 -6.303 l 1.453 -2.025 l 7.968 5.723 c 1.763 1.257 2.922 2.499 3.477 3.715 c 1.029 1.976 .816 4.278 -.931 6.711 c -1.649 2.294 -3.755 3.233 -6.058 3.012 c -1.241 -.269 -2.776 -.971 -4.539 -2.228 l -7.967 -5.723" fill="#fff"/><path d="m 132.344 246.5 l 3.331 -2.482 c .669 -.49 1.11 -1.021 1.404 -1.453 c .702 -.727 .833 -1.657 .882 -2.727 c -.098 -.963 -.327 -1.829 -.882 -2.857 c -.408 -.539 -.571 -1.037 -.963 -1.568 c -2.482 -3.339 -5.404 -4.482 -8.474 -2.204 l -3.331 2.482 z m -.686 2.989 l -10.401 -14.01 l 5.601 -4.164 c 1.992 -1.486 3.968 -1.911 6.123 -1.241 c 1.829 .506 3.413 1.813 4.8 3.682 c 1.094 1.47 1.813 2.996 2.172 4.596 c .653 2.833 -.278 5.185 -2.678 6.973 l -5.617 4.164" fill="#fff"/><path d="m 143.839 230.826 l 4.017 -1.127 c .947 -.269 1.698 -.653 2.106 -1.11 c .816 -.743 .963 -1.477 .637 -2.596 c -.31 -1.118 -.849 -1.829 -1.91 -1.886 c -.522 -.024 -1.372 .041 -2.318 .311 l -4.001 1.127 z m 2.172 7.682 l 4.8 -1.347 c 1.437 -.4 2.27 -1.159 2.678 -2.139 c .18 -.564 .163 -1.249 -.016 -1.894 c -.359 -1.282 -1.062 -1.943 -2.319 -2.106 c -.522 -.024 -1.372 .033 -2.335 .31 l -4.474 1.257 z m -1.715 2.555 l -4.719 -16.81 l 7.201 -2.025 c 1.926 -.539 3.543 -.302 4.67 .596 c .702 .661 1.078 1.42 1.307 2.221 c .31 1.119 .376 1.959 -.082 2.784 c -.179 .572 -.571 1.02 -1.126 1.527 c 1.061 .049 1.78 .188 2.237 .58 c .98 .417 1.731 1.241 2.09 2.523 c .31 1.118 .114 2.212 -.261 3.355 c -.605 1.551 -2.025 2.637 -4.262 3.266 l -7.055 1.983 m 18.81 -10.54 l 5.486 .335 l -2.188 -7.797 z m -5.404 6.834 l 7.69 -17.022 l 2.662 .163 l 5.241 17.806 l -2.645 -.163 l -1.519 -5.249 l -6.809 -.417 l -2.123 5.037 l -2.497 -.155 m 17.291 1.771 l 6.352 -16.263 l 2.172 .849 l -5.633 14.401 l 8.213 3.208 l -.735 1.861 l -10.369 -4.056 m 14.777 .457 l 1.649 1.388 c -.506 .874 -.914 1.616 -.963 2.449 c -.245 1.314 .587 2.661 1.992 3.837 c .751 .645 1.502 1.053 2.122 1.355 c 1.339 .465 2.499 .367 3.364 -.653 c .637 -.759 .816 -1.486 .522 -2.164 c -.065 -.702 -.621 -1.6 -1.535 -2.588 l -1.355 -2.008 c -.931 -1.217 -1.6 -2.212 -1.665 -2.915 c -.457 -1.266 -.196 -2.352 .768 -3.494 c 2.025 -2.417 5.078 -2.678 8.131 -.115 c 2.793 2.351 3.886 5.446 1.437 8.376 l -1.666 -1.388 c .523 -.874 .816 -1.494 .882 -2.09 c -.098 -1.167 -.669 -2.302 -1.943 -3.372 c -2.155 -1.82 -3.902 -1.543 -4.866 -.4 c -.637 .759 -.718 1.355 -.522 2.164 c .278 .449 .947 1.453 1.878 2.669 l 1.486 2.123 c .784 .874 1.225 1.894 1.518 2.58 c .229 1.273 -.017 2.596 -1.078 3.87 c -2.466 2.923 -5.976 1.927 -8.899 -.531 c -1.649 -1.388 -2.596 -2.841 -2.743 -4.482 c -.147 -1.639 .196 -3.084 1.486 -4.611" fill="#fff"/><path d="M 197.575 254.763 L 212.776 246.182 L 213.919 248.207 L 206.539 252.379 L 218.1 255.595 L 219.732 258.485 L 210.05 255.546 L 204.612 267.213 L 203.061 264.461 L 207.78 254.918 L 204.074 253.767 L 198.718 256.787 L 197.575 254.763" fill="#fff"/><path d="m 205.38 269.809 l 16.916 -4.286 l .604 2.416 l -16.916 4.286 l -.604 -2.416 m -75.567 65.288 l 7.462 -15.773 l 2.106 .996 l -3.625 7.658 l 11.283 -4.033 l 3.02 1.42 l -9.601 3.184 l 2.286 12.671 l -2.857 -1.355 l -1.649 -10.515 l -3.69 1.192 l -2.629 5.568 l -2.106 -1.013" fill="#fff"/><path d="m 150.615 343.277 l 2.123 -17.324 l 2.302 .278 l -1.861 15.332 l 8.735 1.078 l -.229 1.992 l -11.07 -1.356 m 13.21 -16.409 l 2.449 -.49 l 2.074 10.613 c .245 1.306 .604 2.253 1.257 2.972 c .898 1.176 2.139 1.453 3.771 1.143 c 1.959 -.392 3.135 -1.307 3.706 -2.776 c .196 -.702 .164 -1.714 -.098 -3.021 l -2.058 -10.613 l 2.449 -.473 l 1.878 9.633 c .408 2.123 .392 3.821 -.033 5.078 c -.588 2.139 -2.335 3.674 -5.274 4.246 c -2.776 .539 -4.948 -.212 -6.466 -1.943 c -.719 -1.045 -1.355 -2.612 -1.78 -4.735 l -1.875 -9.634 m 21.912 1.469 l 3.658 -1.992 c .882 -.458 1.519 -1.012 1.813 -1.535 c .637 -.915 .604 -1.666 .049 -2.678 c -.555 -1.028 -1.241 -1.6 -2.286 -1.404 c -.506 .081 -1.323 .326 -2.188 .816 l -3.658 1.976 z m 3.804 7.021 l 4.392 -2.384 c 1.307 -.719 1.943 -1.633 2.139 -2.678 c .049 -.587 -.114 -1.257 -.441 -1.845 c -.637 -1.16 -1.47 -1.649 -2.727 -1.551 c -.522 .098 -1.323 .359 -2.205 .816 l -4.098 2.221 z m -1.094 2.858 l -8.327 -15.332 l 6.58 -3.576 c 1.747 -.963 3.38 -1.094 4.67 -.457 c .833 .49 1.372 1.143 1.78 1.878 c .555 1.012 .8 1.829 .539 2.743 c -.066 .588 -.343 1.11 -.768 1.731 c 1.029 -.196 1.78 -.212 2.302 .065 c 1.062 .196 1.976 .816 2.596 1.992 c .555 1.028 .604 2.139 .49 3.331 c -.245 1.649 -1.388 3.037 -3.429 4.131 l -6.433 3.494" fill="#fff"/><path d="m 110.726 359.263 c -1.273 2.335 -.588 3.854 1.6 5.046 l 4.229 2.318 l 3.511 -6.417 l -4.213 -2.318 c -2.188 -1.193 -3.837 -.964 -5.127 1.371 z m -4.507 -2.482 c 2.792 -5.094 6.466 -5.552 11.413 -2.841 l 4.523 2.482 l 4.311 -7.87 l 4.523 2.482 l -11.985 21.863 l -9.487 -5.208 c -4.376 -2.385 -5.943 -6.091 -3.298 -10.908"/><path d="m 94.544 347.8 l 9.111 -4.474 l -4.408 -4.506 z m 21.929 -4.882 l -24.117 10.973 l -4.066 -4.164 l 11.708 -23.708 l 3.951 4.033 l -2.531 4.784 l 6.384 6.564 l 4.85 -2.417 l 3.821 3.935"/><path d="m 74.33 320.63 l 2.498 5.437 l 6.188 -2.841 l -2.498 -5.438 c -.474 -1.061 -.979 -1.747 -1.486 -2.057 c -.947 -.849 -1.911 -.963 -3.266 -.327 c -1.355 .621 -2.058 1.486 -2.09 2.596 c -.031 .736 .164 1.569 .654 2.63 z m -4.425 .751 c -1.29 -3.25 -1.388 -5.029 -.425 -6.94 c .637 -1.388 1.715 -2.629 3.527 -3.445 c 2.123 -.979 4.964 -1.175 6.891 1.045 c -.065 -2.531 .947 -3.918 4.131 -5.372 l 1.502 -.702 c 1.061 -.474 1.665 -.751 2.041 -1.11 c .539 -.425 .767 -.719 .865 -1.306 l .604 -.278 l 2.367 5.143 c -.392 .359 -.767 .718 -1.078 .849 c -.538 .424 -1.289 .784 -1.894 1.045 l -2.041 1.126 c -2.874 1.323 -3.282 2.433 -1.976 5.29 l 2.221 4.833 l 8.915 -4.082 l 2.09 4.523 l -22.68 10.401 l -5.06 -11.02"/><path d="m 64.288 306.245 l -3.037 -20.051 l 4.425 -.678 l 1.126 7.389 l 20.214 -3.062 l .8 5.25 l -20.214 3.069 l 1.127 7.413 l -4.441 .67 m -1.877 -35.244 l 24.852 2.09 l -.425 5.135 l -24.852 -2.09 l .425 -5.135 m 25.471 -3.045 l -4.147 -1.241 l -11.708 -17.063 l -3.641 12.099 l -4.294 -1.29 l 5.503 -18.312 l 3.967 1.2 l 11.985 17.316 l 3.788 -12.581 l 4.147 1.241 l -5.6 18.631"/><path d="m 87.18 224.907 l 5.683 8.409 l 3.87 -4.996 z m 7.871 21.047 l -14.206 -22.386 l 3.576 -4.597 l 25.096 8.335 l -3.461 4.466 l -5.094 -1.845 l -5.601 7.217 l 3.053 4.474 l -3.363 4.336"/><path d="m 112.342 224.646 l -13.797 -20.77 l 4.572 -3.037 l 17.961 9.013 l -9.667 -14.532 l 4.017 -2.67 l 13.813 20.761 l -4.294 2.857 l -18.337 -8.972 l 9.748 14.679 l -4.016 2.671 m 125.596 1.82 l -9.65 3.143 l 3.723 5.103 z m -22.402 1.763 l 25.423 -7.479 l 3.429 4.694 l -14.924 21.839 l -3.331 -4.563 l 3.184 -4.384 l -5.405 -7.38 l -5.143 1.698 l -3.233 -4.425"/><path d="m 251.18 255.097 c 2.449 -1.037 2.841 -2.653 1.878 -4.956 l -1.894 -4.433 l -6.728 2.857 l 1.878 4.441 c .98 2.295 2.417 3.128 4.866 2.091 z m 2.008 4.744 c -5.355 2.27 -8.507 .359 -10.728 -4.841 l -2.008 -4.744 l -8.262 3.511 l -2.008 -4.743 l 22.957 -9.748 l 4.212 9.944 c 1.96 4.595 .899 8.473 -4.163 10.621"/><path d="m 261.075 261.49 l 2.09 20.182 l -4.474 .457 l -.768 -7.445 l -20.329 2.098 l -.555 -5.299 l 20.345 -2.09 l -.767 -7.446 l 4.458 -.457 m -25.701 41.538 l 24.737 3.184 l .702 -5.437 l -16.034 -12.132 l 17.308 2.229 l .621 -4.776 l -24.737 -3.192 l -.653 5.11 l 16.165 12.467 l -17.487 -2.253 l -.622 4.8 m 6.156 6.695 l -2.106 4.343 c -.898 -.441 -1.714 -.653 -2.302 -.571 c -1.42 -.131 -2.368 .702 -3.021 2.041 c -.8 1.665 -.327 3.723 1.927 4.816 c 1.339 .637 2.678 .555 3.707 -.424 c .587 -.457 1.241 -1.42 1.959 -2.923 l 3.004 1.437 c -.571 1.567 -1.012 2.482 -.996 3.217 c .016 1.11 .62 2.139 1.812 2.727 c 1.796 .865 3.348 .327 4.229 -1.47 c 1.013 -2.09 .098 -3.641 -2.008 -4.653 l 1.959 -4.049 c 1.045 .506 1.96 1.323 2.711 2.041 c .751 .751 1.208 1.698 1.6 2.809 c .457 1.698 .343 3.494 -.751 5.748 c -2.025 4.18 -5.796 5.878 -9.389 4.147 c -1.339 -.653 -2.172 -1.616 -2.71 -2.808 c -.376 -.719 -.392 -1.47 -.474 -2.058 c -.212 .441 -.735 .751 -1.845 1.127 c -1.486 .767 -3.184 .49 -4.98 -.376 c -3.755 -1.813 -5.813 -5.943 -3.347 -11.038 c 1.519 -3.135 3.576 -4.735 6.254 -4.915 c 1.403 -.245 2.889 .114 4.767 .832"/><path d="m 233.252 343.849 l -5.355 -8.622 l -4.066 4.85 z m -7.07 -21.325 l 13.34 22.908 l -3.739 4.458 l -24.77 -9.274 l 3.641 -4.343 l 5.013 2.041 l 5.878 -7.004 l -2.89 -4.572 l 3.527 -4.214"/><path d="M 204.041 344.813 L 208.531 342.281 L 220.761 364.03 L 216.27 366.545 L 211.617 358.283 L 203.225 363.018 L 207.862 371.28 L 203.372 373.795 L 191.142 352.062 L 195.632 349.531 L 201.102 359.246 L 209.511 354.527 L 204.041 344.813"/><path d="M 229.104 208.717 L 227.814 207.982 L 227.194 207.697 L 226.721 207.558 L 226.345 207.55 L 226.035 207.648 L 225.659 207.885 L 225.235 208.325 L 224.712 208.995 L 215.389 222.327 L 214.964 223.004 L 214.703 223.543 L 214.589 223.959 L 214.589 224.302 L 214.72 224.646 L 214.997 225.062 L 215.471 225.56 L 216.63 226.54 L 215.536 228.115 L 205.902 221.372 L 206.996 219.796 L 208.27 220.522 L 208.89 220.792 L 209.38 220.915 L 209.772 220.915 L 210.099 220.808 L 210.474 220.571 L 210.899 220.147 L 211.389 219.519 L 220.418 206.595 L 220.843 205.925 L 221.071 205.395 L 221.153 204.978 L 221.12 204.635 L 220.94 204.26 L 220.581 203.811 L 220.01 203.28 L 219.177 202.667 L 216.516 200.798 L 215.666 200.243 L 214.981 199.892 L 214.475 199.721 L 214.099 199.704 L 213.772 199.794 L 213.43 200.022 L 213.021 200.447 L 212.532 201.084 L 203.502 214.008 L 203.061 214.685 L 202.8 215.224 L 202.686 215.648 L 202.702 215.983 L 202.816 216.326 L 203.094 216.743 L 203.583 217.241 L 204.743 218.22 L 203.649 219.796 L 193.869 212.962 L 194.962 211.395 L 196.285 212.146 L 196.922 212.424 L 197.412 212.546 L 197.771 212.538 L 198.098 212.432 L 198.456 212.187 L 198.865 211.754 L 199.354 211.109 L 208.678 197.777 L 209.135 197.067 L 209.413 196.504 L 209.527 196.087 L 209.511 195.769 L 209.38 195.442 L 209.102 195.042 L 208.596 194.553 L 207.421 193.564 L 208.629 191.858 L 230.296 207.011 L 229.104 208.717"/><path d="m 229.382 207.174 l -.474 .678 c -2.27 -1.388 -3.2 -1.421 -4.719 .759 l -9.34 13.356 c -1.437 2.041 -1.306 2.939 .914 4.686 l -.392 .547 l -8.572 -5.993 l .392 -.547 c 2.27 1.388 3.282 1.29 4.719 -.751 l 9.046 -12.948 c 1.437 -2.049 1.175 -3.037 -1.388 -4.825 l -2.694 -1.878 c -2.547 -1.788 -3.445 -1.6 -4.866 .441 l -9.062 12.948 c -1.42 2.041 -1.29 2.939 .915 4.686 l -.376 .547 l -8.703 -6.082 l .375 -.547 c 2.4 1.477 3.298 1.289 4.719 -.759 l 9.34 -13.349 c 1.535 -2.18 1.306 -2.947 -.914 -4.694 l .49 -.677 l 20.59 14.402"/><path d="m 166.372 141.633 c 3.184 2.964 5.976 7.299 8.115 12.589 c 2.956 -3.698 6.188 -6.507 9.503 -8.14 c 2.205 2.906 3.935 6.768 5.078 11.331 c 3.511 -3.241 7.707 -5.633 12.295 -6.882 c -.702 3.862 -1.11 8.295 -1.143 13.005 c .343 3.045 .539 6.205 .539 9.446 c 0 19.676 -6.907 36.371 -16.344 41.759 c -6.352 -1.894 -13.079 -2.923 -20.035 -2.923 c -.359 0 -.718 .008 -1.078 .017 c -.343 -.008 -.702 -.017 -1.062 -.017 c -6.955 0 -13.683 1.029 -20.035 2.923 c -9.438 -5.388 -16.344 -22.084 -16.344 -41.759 c 0 -3.241 .196 -6.4 .539 -9.446 c -.032 -4.711 -.44 -9.144 -1.143 -13.005 c 4.588 1.249 8.784 3.641 12.295 6.882 c 1.143 -4.563 2.874 -8.425 5.078 -11.331 c 3.314 1.633 6.547 4.441 9.503 8.14 c 2.204 -5.429 5.062 -9.846 8.377 -12.818 c .784 -.367 1.714 -.571 2.694 -.571 c 1.192 0 2.286 .294 3.168 .8" fill="#fff"/><path d="m 166.372 141.633 c 3.184 2.964 5.976 7.299 8.115 12.589 c 2.956 -3.698 6.188 -6.507 9.503 -8.14 c 2.205 2.906 3.935 6.768 5.078 11.331 c 3.511 -3.241 7.707 -5.633 12.295 -6.882 c -.702 3.862 -1.11 8.295 -1.143 13.005 c .343 3.045 .539 6.205 .539 9.446 c 0 19.676 -6.907 36.371 -16.344 41.759 c -6.352 -1.894 -13.079 -2.923 -20.035 -2.923 c -.359 0 -.718 .008 -1.078 .017 c -.343 -.008 -.702 -.017 -1.062 -.017 c -6.955 0 -13.683 1.029 -20.035 2.923 c -9.438 -5.388 -16.344 -22.084 -16.344 -41.759 c 0 -3.241 .196 -6.4 .539 -9.446 c -.032 -4.711 -.44 -9.144 -1.143 -13.005 c 4.588 1.249 8.784 3.641 12.295 6.882 c 1.143 -4.563 2.874 -8.425 5.078 -11.331 c 3.314 1.633 6.547 4.441 9.503 8.14 c 2.204 -5.429 5.062 -9.846 8.377 -12.818 c .784 -.367 1.714 -.571 2.694 -.571 c 1.192 0 2.286 .294 3.168 .8 z" fill="none" stroke="#000" stroke-width="2.6184"/><path d="m 169.147 414.452 l -4.604 4.931 v -67.141 c 1.551 -.065 3.086 -.164 4.604 -.294 v 62.504 m 9.21 -9.879 l -4.605 4.947 v -58.193 c 1.551 -.261 3.086 -.571 4.605 -.931 v 54.177 m 9.225 -9.862 l -4.621 4.931 v -50.503 c 1.567 -.474 3.102 -1.012 4.621 -1.6 v 47.172 m -27.644 24.672 l -4.604 -4.931 v -62.504 c 1.518 .13 3.053 .229 4.604 .294 v 67.141 m -9.209 -9.862 l -4.604 -4.947 v -54.177 c 1.502 .359 3.053 .669 4.604 .931 v 58.193 m -9.209 -9.879 l -4.621 -4.931 v -47.172 c 1.519 .588 3.054 1.126 4.621 1.6 v 50.503"/><path d="M 183.092 214.987 C 192.007 206.031 198 189.76 198 171.228 c 0 -4.49 -.359 -8.85 -1.012 -12.998 c -3.201 1.184 -6.205 3.201 -8.932 5.903 c 1.045 5.992 1.078 13.005 -.114 20.476 c -1.813 11.209 -6.058 21.267 -11.381 28.272 c -.033 0 -.049 -.008 -.065 -.008 v .408 c 2.236 .465 4.424 1.029 6.596 1.706" fill="#cc5431"/><path d="m 169.491 212.007 c 2.384 .171 4.752 .465 7.07 .873 c 5.323 -7.005 9.568 -17.063 11.381 -28.272 c 2.335 -14.491 .016 -27.292 -5.355 -34.175 c -2.939 1.412 -5.813 3.78 -8.458 6.898 c 2.58 6.833 3.968 15.283 3.69 24.402 c -.377 11.954 -3.561 22.739 -8.328 30.274" fill="#cc5431"/><path d="m 169.491 212.007 c 2.384 .171 4.752 .465 7.07 .873 c 5.323 -7.005 9.568 -17.063 11.381 -28.272 c 2.335 -14.491 .016 -27.292 -5.355 -34.175 c -2.939 1.412 -5.813 3.78 -8.458 6.898 c 2.58 6.833 3.968 15.283 3.69 24.402 c -.377 11.954 -3.561 22.739 -8.328 30.274 z" fill="none" stroke="#fff" stroke-width="1.6369"/><path d="m 163.302 142.58 v 69.256 c .359 -.008 .718 -.017 1.078 -.017 c 1.714 0 3.429 .065 5.111 .188 c 4.768 -7.536 7.952 -18.32 8.327 -30.273 c .571 -18.237 -5.552 -33.774 -14.516 -39.154" fill="#cc5431"/><path d="m 163.302 142.58 v 69.256 c .359 -.008 .718 -.017 1.078 -.017 c 1.714 0 3.429 .065 5.111 .188 c 4.768 -7.536 7.952 -18.32 8.327 -30.273 c .571 -18.237 -5.552 -33.774 -14.516 -39.154 z" fill="none" stroke="#fff" stroke-width="1.6369"/><path d="m 143.055 214.489 c -8.654 -9.046 -14.434 -25.072 -14.434 -43.261 c 0 -4.49 .359 -8.85 1.013 -12.998 c 3.2 1.184 6.205 3.201 8.931 5.903 c -1.045 5.992 -1.094 13.005 .114 20.476 c 1.813 11.209 6.058 21.267 11.381 28.272 c -2.384 .425 -4.719 .955 -7.005 1.608" fill="#cc5431"/><path d="m 157.13 212.007 c -2.384 .171 -4.751 .465 -7.07 .873 c -5.323 -7.005 -9.568 -17.063 -11.381 -28.272 c -2.335 -14.491 -.016 -27.292 5.356 -34.175 c 2.939 1.412 5.813 3.78 8.458 6.898 c -2.58 6.833 -3.984 15.283 -3.69 24.402 c .375 11.954 3.559 22.739 8.327 30.274" fill="#cc5431"/><path d="m 157.13 212.007 c -2.384 .171 -4.751 .465 -7.07 .873 c -5.323 -7.005 -9.568 -17.063 -11.381 -28.272 c -2.335 -14.491 -.016 -27.292 5.356 -34.175 c 2.939 1.412 5.813 3.78 8.458 6.898 c -2.58 6.833 -3.984 15.283 -3.69 24.402 c .375 11.954 3.559 22.739 8.327 30.274 z" fill="none" stroke="#fff" stroke-width="1.6369"/><path d="m 163.302 142.58 v 69.256 c -.343 -.008 -.702 -.017 -1.062 -.017 c -1.714 0 -3.429 .065 -5.111 .188 c -4.768 -7.536 -7.952 -18.32 -8.327 -30.273 c -.571 -18.237 5.552 -33.774 14.5 -39.154" fill="#cc5431"/><path d="m 163.302 142.58 v 69.256 c -.343 -.008 -.702 -.017 -1.062 -.017 c -1.714 0 -3.429 .065 -5.111 .188 c -4.768 -7.536 -7.952 -18.32 -8.327 -30.273 c -.571 -18.237 5.552 -33.774 14.5 -39.154 z" fill="none" stroke="#fff" stroke-width="1.6369"/><ellipse cx="162.241" cy="282.047" fill="none" rx="70.226997" ry="70.227997" stroke="#000" stroke-width="3.9275" transform="matrix(.9057 -.424 .424 .9057 -104.2789 95.3928)"/></g></svg>