<svg enable-background="new 0 0 592 840" height="1000" viewBox="0 0 1000 1000" width="1000" xmlns="http://www.w3.org/2000/svg"><g transform="matrix(3.5078174 0 0 3.5078174 -506.18242 -1298.0011)"><path d="M 401.192 439.304 C 369.095 433.875 352.09 411.919 349.209 372.18 l -.156 -2.149 h -2.155 l -119.819 .026 l -.154 2.149 c -2.866 39.749 -19.859 61.714 -51.952 67.151 l -2.164 .367 l .249 2.181 c 10.23 89.518 46.348 155.114 113.668 206.431 l 1.405 1.071 l 1.406 -1.071 C 356.831 596.98 392.92 531.367 403.107 441.848 l .248 -2.18 z" fill="#5776a2"/><path d="m 333.088 530.604 l -2.426 -13.587 l -20.447 34.052 c .883 5.02 1.926 10.935 2.396 13.61 z" fill="#fff"/><path d="M 308.76 553.492 L 288.355 587.481 L 290.662 601.2 L 311.153 567.103 Z" fill="#fff"/><path d="M 292.284 602.102 L 305.436 597.757 L 325.883 563.745 L 312.81 567.943 Z" fill="#fff"/><path d="m 327.331 561.334 l 20.545 -34.175 l -13.167 4.349 l -20.448 34.023 c 2.959 -.952 9.374 -3.012 13.07 -4.197 z" fill="#fff"/><path d="m 273.553 573.02 l -35.842 -21.502 l 13.844 -23.074 l 1.553 .931 l -10.755 17.927 l 15.093 9.054 l 5.307 -8.848 c 2.35 -3.915 5.126 -6.417 8.334 -7.489 c 2.97 -1.026 5.843 -.707 8.607 .951 c 2.636 1.58 4.236 3.923 4.813 7.042 c .619 3.474 -.239 7.148 -2.558 11.013 z m -14.582 -15.746 l 16.143 9.682 l 4.131 -6.885 c 1.642 -2.737 2.121 -5.375 1.444 -7.899 c -.645 -2.448 -2.161 -4.386 -4.558 -5.825 c -2.185 -1.311 -4.417 -1.689 -6.697 -1.137 c -2.518 .62 -4.627 2.339 -6.332 5.179 z" fill="#fff"/><path d="M 304.146 518.563 L 305.672 519.479 L 295.236 536.874 L 259.396 515.374 L 269.831 497.978 L 271.385 498.911 L 264.052 511.13 L 278.991 520.092 L 286.323 507.872 L 287.852 508.788 L 280.519 521.01 L 296.813 530.785 Z" fill="#fff"/><path d="m 275.917 487.834 l 2.934 -4.889 l 8.77 5.262 c 2.447 1.469 4.486 2.058 6.105 1.756 c 1.615 -.295 3.074 -1.528 4.375 -3.696 c .784 -1.309 1.427 -2.609 1.932 -3.897 c .498 -1.294 .836 -2.437 1.015 -3.452 l -14.545 -8.727 l 3.104 -5.173 l 35.891 21.531 l -3.103 5.173 l -19.818 -11.889 c -.205 .978 -.552 2.138 -1.072 3.488 c -.516 1.341 -1.039 2.467 -1.571 3.353 c -2.582 4.304 -5.239 6.876 -7.954 7.708 c -2.308 .675 -5.03 .071 -8.161 -1.809 z" fill="#fff"/><path d="M 344.459 451.368 L 345.985 452.284 L 335.55 469.679 L 299.71 448.177 L 310.145 430.783 L 311.697 431.714 L 304.365 443.935 L 319.304 452.897 L 326.637 440.675 L 328.163 441.591 L 320.832 453.813 L 337.126 463.59 Z" fill="#fff"/><path d="m 320.62 413.323 l 2.829 -4.717 l 27.395 16.436 c 3.199 1.919 5.048 3.847 5.531 5.787 c .492 1.946 -.23 4.52 -2.166 7.747 l -2.726 4.545 l -1.526 -.916 l 2.695 -4.493 c .965 -1.608 1.146 -2.918 .542 -3.901 c -.608 -.997 -2.04 -2.17 -4.308 -3.534 z" fill="#fff"/><path d="M 354.92 520.007 L 353.089 523.052 L 333.336 511.201 L 332.246 514.056 L 331.099 513.549 L 333.629 507.237 Z" fill="#fff"/><path d="m 354.081 499.83 c -.016 1.448 -.411 2.813 -1.179 4.095 c -1.008 1.685 -2.385 2.832 -4.126 3.443 c -1.955 .644 -3.972 .344 -6.039 -.902 c -1.98 -1.185 -3.158 -2.827 -3.532 -4.918 c -.368 -2.098 .061 -4.17 1.296 -6.228 c 1.35 -2.247 3.111 -3.694 5.291 -4.341 c 2.014 -.579 3.852 -.375 5.5 .617 c 1.407 .844 2.532 1.859 3.376 3.053 c .224 .341 .733 1.263 1.526 2.776 l 5.514 11.198 l -2.005 3.339 z m -4.706 -4.765 c -1.535 -.921 -3.014 -1.352 -4.437 -1.285 c -1.584 .013 -2.784 .699 -3.591 2.04 c -.733 1.218 -.784 2.512 -.163 3.882 c .296 .621 .71 1.217 1.242 1.783 c .526 .566 1.153 1.068 1.874 1.499 c 1.484 .893 2.951 1.298 4.396 1.22 c 1.619 -.102 2.83 -.81 3.615 -2.129 c .715 -1.182 .749 -2.471 .098 -3.857 c -.587 -1.24 -1.596 -2.29 -3.034 -3.153 z" fill="#fff"/><path d="m 353.595 484.996 l -.638 1.069 c -1.265 -1.08 -2.047 -2.392 -2.348 -3.928 c -.346 -1.743 .014 -3.486 1.064 -5.234 c 1.152 -1.922 2.533 -3.175 4.145 -3.767 c 1.614 -.598 3.156 -.453 4.634 .434 c 1.423 .854 2.712 2.272 3.861 4.258 c .266 .454 .566 1.044 .905 1.77 c .336 .728 .738 1.649 1.2 2.759 l 3.865 9.273 l 5.365 -8.942 l 1.219 .732 l -7.708 12.85 l -5.191 -12.315 l -1.865 -4.189 c -.928 -1.707 -1.928 -2.887 -3.003 -3.536 c -2.713 -1.624 -4.935 -.996 -6.658 1.882 c -.762 1.265 -.966 2.588 -.612 3.971 c .315 1.076 .901 2.044 1.765 2.913 z" fill="#fff"/><path d="m 378.788 457.278 c 3.351 2.013 5.461 4.422 6.319 7.228 c .848 2.563 .549 5.045 -.884 7.44 c -1.441 2.393 -3.698 3.67 -6.781 3.827 c -2.831 .09 -5.672 -.717 -8.535 -2.435 c -3.403 -2.043 -5.651 -4.538 -6.752 -7.482 c -1.042 -2.77 -.854 -5.34 .574 -7.716 c 1.387 -2.317 3.72 -3.488 7 -3.531 c 3.048 -.015 6.067 .874 9.059 2.669 z m -8.093 12.708 c 2.625 1.577 5.053 2.497 7.287 2.761 c 2.523 .301 4.249 -.317 5.176 -1.865 c .948 -1.583 .747 -3.428 -.614 -5.537 c -.632 -.903 -1.401 -1.765 -2.317 -2.598 c -.911 -.832 -2.041 -1.647 -3.376 -2.449 c -2.66 -1.6 -5.213 -2.549 -7.666 -2.867 c -2.676 -.364 -4.479 .228 -5.411 1.783 c -.909 1.513 -.612 3.35 .885 5.494 c .679 .952 1.524 1.866 2.536 2.758 c 1.005 .886 2.177 1.729 3.5 2.52 z" fill="#fff"/><path d="m 237.517 481.535 c -1.173 -2.621 -3.376 -4.902 -6.618 -6.846 c -3.224 -1.935 -6.258 -2.794 -9.105 -2.586 c -3.341 .23 -5.982 1.953 -7.907 5.163 c -.574 .954 -.992 1.801 -1.262 2.528 l -.514 1.306 c -.067 .463 -.145 .836 -.246 1.115 l 21.419 12.85 l 1.734 -1.906 l 1.709 -2.402 c 1.874 -3.122 2.133 -6.196 .79 -9.222 z" fill="#fff"/><path d="m 206.926 489.297 l -1.546 2.147 c -1.924 3.21 -2.229 6.359 -.912 9.427 c 1.156 2.612 3.359 4.893 6.616 6.847 c 3.226 1.936 6.248 2.814 9.076 2.637 c 3.345 -.236 5.971 -1.937 7.875 -5.109 l .619 -1.032 l .423 -.705 l .29 -.82 l .393 -.97 c .125 -.357 .215 -.62 .266 -.799 c .047 -.17 .109 -.404 .164 -.684 l -21.426 -12.854 z" fill="#fff"/><path d="m 231.334 374.689 c -3.416 39.35 -21.369 62.467 -53.392 68.778 c 5.608 46.942 18.526 87.154 39.518 122.112 L 331.994 374.666 c -29.09 .007 -97.474 .022 -100.66 .023 z m 8.59 124.357 l -3.1 5.169 l -4.933 -2.96 l -.451 1.682 l -.619 1.794 c -.199 .557 -.446 1.077 -.728 1.55 l -.652 1.083 c -2.264 3.774 -5.504 6.182 -9.711 7.224 c -4.209 1.041 -8.119 .473 -11.746 -1.703 c -3.611 -2.166 -5.894 -5.336 -6.844 -9.519 c -.958 -4.188 -.27 -8.22 2.056 -12.098 c .12 -.197 .237 -.396 .346 -.575 c .114 -.19 .248 -.414 .407 -.681 c .156 -.257 .277 -.441 .373 -.546 c .103 -.116 .324 -.333 .646 -.666 c .233 -.317 .417 -.545 .549 -.711 c .128 -.158 .275 -.328 .447 -.504 l 1.307 -1.098 l -4.924 -2.954 l 3.101 -5.17 l 4.923 2.955 l .481 -1.734 l .668 -1.727 l .657 -1.559 l .588 -.981 c 2.275 -3.792 5.506 -6.24 9.68 -7.336 c 4.169 -1.09 8.024 -.578 11.553 1.539 c 3.66 2.198 6.017 5.376 7.072 9.552 c 1.053 4.176 .452 8.155 -1.817 11.938 c -.681 1.135 -1.314 2.042 -1.881 2.708 c -.663 .808 -1.472 1.597 -2.423 2.347 z m 26.186 -43.649 c -1.061 .579 -2.55 .773 -4.453 .614 c -2.415 -.232 -5.452 -1.143 -9.11 -2.728 c -3.662 -1.579 -6.386 -2.078 -8.167 -1.51 c -1.043 .288 -2.357 1.324 -3.939 3.086 l .306 1.389 l 18.275 10.964 l -3.099 5.17 l -34.475 -20.684 l 3.101 -5.168 l 14.589 8.754 l -5.434 -24.017 l 1.028 -1.713 l 4.588 20.272 c 1.903 -1.886 3.675 -3.128 5.34 -3.709 c 2.5 -.872 5.602 -.485 9.315 1.158 c 3.712 1.642 7.193 2.444 10.453 2.424 c 2.196 .005 4.225 -.53 6.079 -1.629 z m 24.918 -35.437 l -9.065 -9.994 l -13.366 1.785 l 6.714 -11.699 l -5.867 -12.168 l 13.214 2.777 l 9.744 -9.332 l 1.465 13.427 l 11.898 6.378 l -12.322 5.532 z" fill="#fff"/></g></svg>