<svg enable-background="new 0 0 612 792" viewBox="0 0 612 792" xmlns="http://www.w3.org/2000/svg"><path d="M 315.728 69.026 L 167.166 69.026 L 167.166 437.935 Z" fill="#fff"/><path d="M 315.728 69.026 L 167.166 69.026 L 18.603 69.026 L 167.166 437.935 Z" fill="none" stroke="#0d4ba0" stroke-width="3.4976"/><path d="M 18.603 69.026 L 167.166 69.026 L 167.166 437.935 Z" fill="#0d4ba0"/><path d="M 145.182 293.702 c 0 -6.163 3.996 -10.326 9.66 -10.326 c 4.33 0 7.327 1.832 8.992 5.83 c .999 2.165 1.334 4.998 1.334 8.662 c 0 3.497 -.334 6.328 -1.334 8.658 c -1.665 4.498 -4.662 6.664 -9.327 6.664 c -4.33 0 -8.159 -2.666 -8.662 -7.495 h 5.664 c .168 1.665 1.334 2.83 3.333 2.83 c 1.831 0 3.164 -.998 3.996 -2.997 c .334 -1.167 .666 -2.831 .666 -4.997 c -.499 .665 -.999 1.165 -1.664 1.5 c -1.001 .499 -2.332 .831 -3.832 .831 C 149.345 302.861 145.182 299.699 145.182 293.702 L 145.182 293.702 z M 155.173 298.367 c .833 0 1.5 -.335 2.167 -.667 c 1.33 -.833 1.997 -2.332 1.997 -4.331 c 0 -3.332 -1.666 -5.329 -4.331 -5.329 c -.831 0 -1.665 .332 -2.497 .831 c -1 .834 -1.499 2.332 -1.499 4.331 C 151.01 296.534 152.342 298.367 155.173 298.367 z" fill="#fff"/><path d="M 131.19 292.535 h -6.827 v -3.829 c 1.832 -.166 2.998 -.166 3.664 -.333 c 1.165 -.332 2.164 -.833 2.83 -1.497 c .5 -.667 .834 -1.332 1.166 -2.167 c .167 -.499 .167 -.833 .167 -1.166 h 4.663 v 28.814 h -5.663 V 292.535 z" fill="#fff"/><path d="M 122.529 159.795 v -.998 c 1 -.166 1.667 -.501 2.334 -1.499 c .331 -.499 .998 -1.665 1.664 -3.497 l 9.491 -22.65 h 1.169 l 9.16 21.817 c 2.163 4.83 2.663 5.83 4.829 5.83 v .998 H 137.52 v -.998 c 2.666 -.166 3.333 -.334 3.333 -1.667 c 0 -.332 -.169 -.832 -.335 -1.498 c -.167 -.5 -.333 -1 -.667 -1.5 l -.998 -2.499 h -9.328 c -.667 1.667 -.998 2.665 -1.166 3.164 c -.332 1.166 -.499 1.833 -.499 2.332 c 0 .667 .333 1.166 1.167 1.333 c .499 .168 1.165 .334 2.164 .334 v .998 H 122.529 L 122.529 159.795 z M 130.191 149.97 h 7.995 l -3.998 -9.659 h -.333 L 130.191 149.97 z" fill="#fff"/><path d="M 96.715 159.795 v -.998 c 2.831 -.166 3.664 -.833 3.664 -3.831 v -18.487 c 0 -3.165 -.833 -3.498 -3.664 -3.832 v -.998 h 13.491 c 7.161 0 11.157 1.999 11.157 7.66 c 0 2.833 -1.498 5.332 -4.829 6.828 c -2.499 1.001 -4.495 1.001 -9.493 1.001 v 7.827 c 0 2.998 .832 3.665 3.665 3.831 v .998 H 96.715 L 96.715 159.795 z M 107.04 145.806 c 2.499 -.167 4.164 -.334 4.999 -.999 c 1.33 -.833 1.996 -2.665 1.996 -5.331 c 0 -3.831 -.998 -6.328 -4.662 -6.328 c -1.666 0 -2.333 .332 -2.333 1.331 V 145.806 z" fill="#fff"/><path d="M 74.229 160.462 v -10.325 h 1.333 c 1.333 6.162 4.498 8.825 8.493 8.825 c 3.832 0 5.164 -2.331 5.164 -4.495 c 0 -1.334 -.334 -2.332 -1.166 -2.998 c -.665 -.666 -1.665 -1.332 -3.331 -2.166 l -2.831 -1.333 c -2.666 -1.33 -4.497 -2.499 -5.663 -3.829 c -1.165 -1.333 -1.831 -2.998 -1.831 -4.832 c 0 -4.164 3.164 -8.327 9.16 -8.327 c 2.998 0 6.496 1.333 6.83 1.333 c .998 0 1.164 -.499 1.332 -1.499 h 1.333 v 9.16 h -1.166 c -1.168 -4.163 -3.998 -7.66 -7.995 -7.66 c -2.833 0 -4.666 1.665 -4.666 3.831 c 0 1.331 .335 2.332 1.166 2.997 c .834 .667 2.499 1.665 4.996 2.998 l 3.166 1.498 c 1.499 .667 2.498 1.499 3.332 2.333 c 1.665 1.497 2.331 3.497 2.331 5.661 c 0 4.165 -3.165 8.827 -10.492 8.827 c -1.665 0 -3.333 -.334 -4.997 -.998 l -.834 -.334 c -.331 -.167 -.831 -.167 -.998 -.167 c -.833 0 -1.165 .502 -1.333 1.5 H 74.229 z" fill="#fff"/><path d="M 167.166 131.649 v 1.332 c -.501 0 -.834 0 -1.333 0 c -2.165 0 -2.498 .667 -2.498 1.833 v 10.658 c 1.498 -.165 2.666 -.165 3.831 -.5 v 6.163 l -2.833 -4.33 h -.998 v 8.161 c 0 2.831 .667 3.665 3.497 3.831 v .998 h -14.157 v -.998 c 2.833 -.166 3.664 -.833 3.664 -3.831 v -18.487 c 0 -1.498 -.333 -2.666 -.831 -3.165 c -.501 -.332 -1.333 -.499 -2.833 -.667 v -.998 h 13.326 C 166.332 131.649 166.665 131.649 167.166 131.649 z" fill="#fff"/><path d="M 167.166 92.842 L 202.473 118.491 L 188.984 76.854 L 224.459 51.205 L 180.657 51.205 L 167.166 9.403 L 153.676 51.205 L 110.039 51.205 L 145.347 76.854 L 131.856 118.491 Z" fill="#ee3124"/><path d="M 138.518 109.331 L 167.166 88.348 L 195.812 109.331 L 184.82 75.523 L 213.634 54.705 L 178.158 54.705 L 167.166 20.894 L 156.339 54.705 L 120.864 54.705 L 149.51 75.523 Z" fill="#fff"/><path d="M 153.676 74.189 L 145.182 100.005 L 167.166 84.016 L 189.151 100.005 L 180.657 74.189 L 202.807 58.2 L 175.493 58.2 L 167.166 32.218 L 158.837 58.2 L 131.691 58.2 Z" fill="#ee3124"/><g><path d="M 167.166 187.276 c 5.162 0 9.493 13.659 9.493 30.314 c 0 16.82 -4.331 30.312 -9.493 30.312 c -5.163 0 -9.327 -13.492 -9.327 -30.312 C 157.839 200.935 162.003 187.276 167.166 187.276 z" fill="#fff200" stroke="#0d4ba0" stroke-width="3.4976"/><path d="M 254.27 188.442 c -21.485 0 -43.969 0 -65.454 0 c -1.997 8.494 -6.829 13.323 -13.323 14.823 c .666 4.331 1.165 9.161 1.165 14.325 c 0 9.826 -1.498 18.652 -3.832 24.149 c 1.166 5.331 5.998 10.992 11.159 10.992 h 44.303 L 254.27 188.442 z" fill="#fff200" stroke="#0d4ba0" stroke-width="3.4976"/><path d="M 80.061 188.442 c 21.649 0 44.136 0 65.621 0 c 1.832 8.494 6.661 13.323 13.156 14.823 c -.667 4.331 -.998 9.161 -.998 14.325 c 0 9.826 1.497 18.652 3.663 24.149 c -1.165 5.331 -5.831 10.992 -11.16 10.992 H 106.04 L 80.061 188.442 z" fill="#fff200" stroke="#0d4ba0" stroke-width="3.4976"/></g><g><g><path d="M 190.149 304.694 h 5.663 c .499 2.497 1.665 3.83 4.164 3.83 c 2.831 0 4.331 -2.163 4.331 -5.162 c 0 -3 -1.333 -5.331 -4.331 -5.331 c -.667 0 -1.333 .167 -1.832 .335 c -.834 .331 -1.5 .831 -1.999 1.664 l -4.997 -.167 l 1.999 -15.822 h 15.822 v 4.664 h -11.823 l -1.001 6.328 c 1.001 -.5 1.667 -.999 2.166 -1.165 c .667 -.332 1.665 -.332 2.999 -.332 c 4.662 0 8.825 3.163 8.825 9.325 c 0 5.332 -3.498 10.328 -10.159 10.328 C 194.479 313.189 190.647 310.025 190.149 304.694 z" fill="#0d4ba0"/><path d="M 187.818 301.695 v 4.499 h -3.333 v 6.163 h -5.496 v -6.163 h -11.492 v -4.998 l 10.661 -17.486 h 6.328 v 17.985 H 187.818 L 187.818 301.695 z M 171.829 301.695 h 7.161 v -12.324 L 171.829 301.695 z" fill="#0d4ba0"/><path d="M 237.45 159.795 v -.998 c 1.165 -.166 1.999 -.166 2.499 -.501 c .831 -.499 1.165 -1.331 1.165 -2.497 v -20.155 c 0 -1.165 -.335 -1.997 -1.165 -2.497 c -.335 -.167 -1.167 -.334 -2.499 -.502 v -.998 h 14.322 v .998 c -2.83 .334 -3.664 .667 -3.664 3.832 v 8.993 l 8.996 -9.16 c 1.165 -1.166 1.498 -1.498 1.498 -2.164 c 0 -1.166 -.831 -1.333 -3.664 -1.501 v -.998 h 12.325 v .998 c -4.497 .502 -5.663 1.501 -13.659 9.495 l 12.992 15.822 c .499 .667 .833 .667 1.999 .833 v .998 h -14.157 v -.998 c 2.498 -.166 3.333 -.166 3.333 -1 c 0 -.332 -.334 -.832 -1.001 -1.665 l -7.66 -9.492 l -1.001 .998 v 8.162 c 0 1.165 .334 1.997 1.167 2.497 c .5 .166 1.332 .335 2.332 .501 v .998 H 237.45 z" fill="#0d4ba0"/><path d="M 207.638 159.795 v -.998 c .998 -.166 1.665 -.501 2.331 -1.499 c .332 -.499 .999 -1.665 1.832 -3.497 l 9.325 -22.65 h 1.168 l 9.16 21.817 c 2.164 4.83 2.831 5.83 4.83 5.83 v .998 h -13.659 v -.998 c 2.666 -.166 3.332 -.334 3.332 -1.667 c 0 -.332 -.167 -.832 -.335 -1.498 c -.167 -.5 -.332 -1 -.667 -1.5 l -.998 -2.499 h -9.327 c -.667 1.667 -.998 2.665 -1.167 3.164 c -.332 1.166 -.498 1.833 -.498 2.332 c 0 .667 .331 1.166 1.165 1.333 c .499 .168 1.165 .334 2.164 .334 v .998 H 207.638 L 207.638 159.795 z M 215.298 149.97 h 7.995 l -3.998 -9.659 h -.332 L 215.298 149.97 z" fill="#0d4ba0"/><path d="M 183.153 139.976 l .168 -8.327 h 25.149 v 8.327 h -1.167 c -.332 -2.998 -1.499 -4.995 -3.331 -5.995 c -.999 -.667 -2.663 -.832 -4.663 -.999 v 21.985 c 0 2.998 .667 3.831 4.164 3.831 v .998 h -14.988 v -.998 c 3.164 0 3.996 -.833 3.996 -3.831 v -21.985 c -1.997 .167 -3.664 .332 -4.662 .999 c -1.999 1 -3.166 3.164 -3.333 5.995 H 183.153 z" fill="#0d4ba0"/><path d="M 167.166 131.649 v 1.332 c 1.331 .332 2.332 1.166 2.83 2.5 c .5 .831 .667 2.163 .667 3.828 c 0 3.499 -.998 4.997 -3.497 5.663 v 6.163 l 5.661 8.66 h 8.494 v -.998 c -.665 0 -1.166 -.166 -1.665 -.833 l -8.327 -11.827 c 1.333 -.332 2.663 -.998 3.997 -1.831 c 1.666 -1.33 2.497 -3.163 2.497 -5.329 c 0 -3.165 -1.665 -5.33 -4.997 -6.495 C 171.33 131.982 169.498 131.649 167.166 131.649 z" fill="#0d4ba0"/></g><path d="M 189.315 203.6 h 58.792 l -1.33 3.498 h -53.296 c 1.665 4.662 -2.334 8.326 -6.829 5.663 C 183.321 210.594 185.153 203.6 189.315 203.6 z" fill="#0d4ba0"/><path d="M 145.016 203.6 H 86.223 l 1.498 3.498 h 53.131 c -1.668 4.662 2.496 8.326 6.826 5.663 C 151.01 210.594 149.178 203.6 145.016 203.6 z" fill="#0d4ba0"/><path d="M 187.319 219.254 h 54.461 l -1.332 3.664 h -48.966 c 1.664 4.663 -2.331 8.327 -6.662 5.496 C 181.488 226.415 183.153 219.254 187.319 219.254 z" fill="#0d4ba0"/><path d="M 147.015 219.254 H 92.55 l 1.501 3.664 h 48.797 c -1.665 4.663 2.333 8.327 6.829 5.496 C 153.009 226.415 151.177 219.254 147.015 219.254 z" fill="#0d4ba0"/><path d="M 185.486 235.077 h 49.964 l -1.333 3.497 h -44.634 c 1.664 4.665 -2.331 8.329 -6.662 5.664 C 179.488 242.073 181.156 235.077 185.486 235.077 z" fill="#0d4ba0"/><path d="M 149.011 235.077 H 98.88 l 1.5 3.497 h 44.468 c -1.665 4.665 2.331 8.329 6.83 5.664 C 155.006 242.073 153.174 235.077 149.011 235.077 z" fill="#0d4ba0"/></g></svg>