<svg xmlns="http://www.w3.org/2000/svg" width="1000" height="1000" viewBox="0 0 1000 1000"><g fill-rule="evenodd"><path fill="#a49f9c" d="m247.71 100.544 29.038-33.46 8.388-2.836c33.822-11.432 68.9-20.596 103.937-27.426C424.646 29.887 462.023 24.94 498.307 25c73.368.123 146.498 17.111 216.289 38.592l9.022 2.777 29.463 34.36 138.767 69.46-.468 20.658c-1.11 48.964-3.25 97.932-7.18 146.755-4.154 51.608-10.297 103.187-19.652 154.123-9.529 51.885-21.876 105.084-42.41 153.809-10.202 24.212-23.486 47.3-37.755 69.324-12.756 19.687-26.474 38.728-40.386 57.609-59.902 81.298-141.027 142.207-227.408 192.939L500.255 975l-16.427-9.432c-39.018-22.402-76.91-47.094-112.06-75.227-24.445-19.565-48.22-40.014-69.69-62.852-20.228-21.516-38.466-45.082-55.892-68.897-17.86-24.41-35.193-49.53-50.06-75.893-17.509-31.043-29.555-64.837-39.314-99.014-7.043-24.666-12.685-49.707-17.78-74.84-21.107-104.092-27.804-211.802-30.377-317.807l-.503-20.704z"/><path fill="#fff" d="m248.768 101.906 28.957-33.367 7.953-2.688c62.945-21.276 145.933-39.27 212.626-39.159 73.059.123 146.282 17.122 215.794 38.518l8.554 2.633 29.367 34.246 138.114 69.133-.444 19.588c-2.247 99.199-8.869 202.957-26.805 300.61-9.43 51.356-21.995 105.264-42.305 153.458-18.76 44.52-49.334 87.758-77.944 126.586-59.804 81.165-140.685 141.849-226.903 192.484l-15.486 9.096-15.576-8.943c-38.89-22.328-76.81-47.04-111.845-75.08-24.415-19.54-48.07-39.88-69.515-62.69-19.951-21.223-38.564-45.237-55.759-68.738-17.627-24.09-35.285-49.718-49.952-75.725-17.438-30.917-29.442-64.61-39.16-98.648-7.032-24.625-12.663-49.62-17.75-74.71-20.95-103.319-27.79-212.294-30.343-317.513l-.477-19.63z"/><path fill="#119943" d="m141.265 190.247 126.833-63.427 27.483-31.67c45.215-15.282 132.844-37.647 202.671-37.53 68.205.116 138.446 16.127 206.748 37.15l27.599 32.185 126.17 63.154c-2.352 103.778-10.485 209.592-26.304 295.725-8.84 48.131-21.334 101.822-40.386 147.034-17.222 40.867-47.968 84.454-74.343 120.25C660.711 830.51 583.07 888.533 500.07 937.279c-41.285-23.703-77.196-47.816-107.919-72.405-23.345-18.685-45.83-37.949-66.307-59.728-32.153-34.2-78.825-98.61-101.306-138.472-16.009-28.384-27.204-59.88-36.36-91.946-6.898-24.158-12.368-48.645-17.177-72.365-17.197-84.808-26.696-186.884-29.736-312.116"/><path fill="#fff" d="M368.345 774.057c6.405 3.922 8.553 5.888 12.67 6.152 5.928.378 16.106-.698 21.945-.609 5.353-3.363 8.408-5.23 14.72-6.828 3.345-.846 6.887-1.248 10.532-1.597 8.32-.797 16.075-1.28 24.395 1.404 9.695 3.128 19.871 8.89 20.38 19.687.306 6.45-3.054 13.853-7.918 19.952 5.282-.299 10.34-.485 15.175-.222-.4-4.679-1.404-11.611-.567-15.29.83-3.647 3.762-6.871 9.393-7.392-.43-7.296.124-9.569 2.151-11.673 2.007-2.084 4.493-3.443 7.181-4.423 2.69.96 4.995 2.164 7.17 4.423 2.027 2.104 2.582 4.377 2.151 11.673 5.63.52 8.564 3.745 9.393 7.392.838 3.679-.168 10.611-.567 15.29 4.835-.263 9.893-.077 15.175.222-4.864-6.099-8.224-13.502-7.919-19.952.51-10.797 10.686-16.559 20.381-19.687 8.32-2.685 16.075-2.201 24.396-1.404 3.644.35 7.187.75 10.53 1.597 6.313 1.598 9.368 3.465 14.722 6.828 5.838-.09 16.016.987 21.945.609 4.116-.264 6.264-2.23 12.67-6.152-.098 12.746-5.471 21.866-23.182 27.089-2.825 10.437-9.256 16.429-13.607 18.914.227-16.15-1.525-26.35-11.872-31.53-11.917-5.966-32.644-2.19-34.344 13.59-.509 4.721 1.06 9.27 3.856 12.223 2.748 2.904 8.484 3.549 12.253 1.43 4.372-2.459 6.095-8.095 2.778-18.23 10.648 3.018 19.672 10.226 17.67 23.753-1.537 10.39-9.065 20.57-18.926 21.523-10.225.988-14.942-2.734-22.82-7.11-4.726-2.625-11.595-5.682-18.672-7.09-3.327-.661-7.184-.848-10.52-.923l5.244 5.354c4.347-.121 10.897.125 16.923 3.712 6.225 3.705 11.364 11.765 12.944 18.308 1.302 5.388.265 10.848-4.093 15.876-4.031-13.26-14.024-19.463-24.061-19.953-5.614-.274-14.247-.198-14.182 9.167l.032 4.685c.048 6.961 4.83 10.589 10.755 10.847 10.199.445 12.723-3.748 17.672-9.803 3.996 14.7-2.465 30.42-21.512 31.883-1.311 5.316-2.739 9.608-6.495 14.062-1.685 1.998-3.955 4.29-5.893 5.77-2.363-1.825-4.165-3.705-5.893-5.77-3.757-4.454-5.185-8.746-6.496-14.062-19.046-1.463-25.508-17.182-21.511-31.883 4.948 6.055 7.473 10.248 17.671 9.803 5.925-.258 10.707-3.886 10.755-10.847l.033-4.685c.064-9.365-8.569-9.441-14.183-9.167-10.037.49-20.03 6.692-24.06 19.953-4.359-5.028-5.396-10.488-4.094-15.876 1.58-6.543 6.72-14.603 12.944-18.308 6.026-3.587 12.577-3.833 16.923-3.712l5.245-5.354c-3.337.075-7.193.262-10.521.923-7.077 1.408-13.946 4.465-18.672 7.09-7.878 4.376-12.594 8.098-22.82 7.11-9.86-.952-17.389-11.133-18.926-21.523-2.002-13.527 7.022-20.735 17.67-23.752-3.317 10.134-1.594 15.77 2.779 18.228 3.769 2.12 9.504 1.475 12.252-1.429 2.795-2.954 4.365-7.502 3.857-12.223-1.701-15.78-22.427-19.556-34.345-13.59-10.347 5.18-12.099 15.38-11.871 31.53-4.352-2.485-10.783-8.477-13.608-18.914-17.71-5.223-23.084-14.343-23.181-27.09M498.427 229.872a253.4 254.76 0 0 1 253.4 254.76 253.4 254.76 0 1 1-253.4-254.76"/><path fill="#119943" d="M498.427 240.504A242.768 244.128 0 0 1 741.195 484.63a242.768 244.128 0 1 1-242.768-244.127"/><path fill="#fff" d="M284.4 434.902c.253 8.35 3.517 15.227 7.675 23.258 6.066 11.714 16.336 25.128 12.513 35.027-1.406-.934-2.724-3.273-3.176-4.187-6.89 1.57-16.434-.622-17.263-6.142-.37-2.465.385-6.052 4.892-8.93-5.098-1.469-8.965 1.733-10.439 6.114-1.558 4.633-1.353 11.397 5.26 16.329-2.096 1.837-3.649 3.93-4.262 5.426.659 1.26 2.877 3.484 5.056 4.66-6.934 7.12-2.995 16.06-2.46 16.91 2.678 4.244 7.001 6.23 11.026 4.81-3.647-1.719-6.887-5.46-5.492-10.01.619-2.017 2.19-3.623 4.493-4.69 3.073-1.42 7.45-1.887 10.975-1.647.66-2.103 2.065-4.115 2.751-4.581 4.029 9.14-2.418 22.206-6.598 34.746-2.86 8.579-4.672 16.05-3.274 24.72 1.74 10.789 10.61 17.724 20.276 15.906 8.379-1.575 11.211-8.553 11.922-13.572.412-2.918-.289-7.046-1.614-10.127-1.316-3.06-3.357-5.703-4.603-8.84-2.09-5.255-2.557-10.332-1.68-16.255-4.973 3.127-5.93 9.528-4.247 17.702-8.71 1.612-11.118 9.397-6.672 15.164.667-4.344 2.247-6.136 4.829-6.09 3.069.054 5.912 2.2 5.385 7.225-.481 4.575-4.157 6.413-6.93 6.402-7.13-.026-9.756-6.57-9.771-12.806-.031-12.359 7.706-24.327 10.68-36.042 1.395-5.494 2.385-11.91.196-17.862-.517-1.405-2.243-4.756-4.816-7.28 2.131-2.998 2.756-6.025 3.054-7.448 1.189-5.656-.218-13.166-2.448-18.375-4.734-11.056-15.022-22.527-17.755-37.378-.997-5.416.967-12.22 7.514-13.14 2.743-.384 7.455.614 8.631 6.362.765 3.733-1.175 6.6-4.342 6.831-3.12.228-4.593-1.657-5.863-5.536-3.747 5.954.142 14.5 8.997 14.596-.393 8.335 2.79 15.492 8.233 16.558-2.054-4.578-3.692-11.481-1.254-18.584 1.156-3.37 3.106-6.59 3.076-11.002-.028-4.29-1.143-8.135-3.253-11.073-3.992-5.56-11.31-7.49-17.375-5.935l-1.885-4.713 3.001-1.59c1.103 1.457 2.553 2.82 4.41 4.058 5.759 3.845 12.505 2.927 16.672.387 3.499-2.133 5.85-5.175 7.399-8.682 1.059-2.399 1.511-5.018 2.614-7.708 2.235-5.454 6.248-9.755 12.04-13.665-5.521-1.416-11.756 2.343-16.652 9.1-6.057-6.64-14.15-2.152-15.405 5.02 3.196-2.831 6.325-2.146 7.996-.425 1.892 1.95 1.953 5.455-1.126 7.883-2.984 2.352-8.124 3.416-11.083-.524-3.81-5.076-1.156-11.058 3.434-15.276 9.1-8.362 24.743-11.886 35.396-17.596 4.995-2.678 10.399-6.278 13.314-11.91.687-1.327 2.573-4.865 2.7-8.468 4.084-1.027 6.308-2.32 7.557-3.06 4.974-2.94 8.992-8.758 11.331-13.918 4.964-10.953 6.052-26.288 15.169-37.17 3.535-4.22 8.982-6.24 14.189-2.166 1.7 1.33 4.143 5.34 1.129 9.795-2.134 3.154-5.954 4.165-8.26 1.984-2.271-2.148-1.876-4.508.13-8.062-6.924 1.252-11.184 9.89-4.412 16.055-6.416 5.335-9.116 10.78-7.241 17.106 2.859-5.184 6.705-10.473 14.168-13.757 3.26-1.434 6.67-2.444 10.485-6.31 3.014-3.052 4.364-5.757 5.108-9.295.215-1.022.31-2.02.3-2.99 1.79 1.543 3.821 2.61 5.756 3.168 3.937 1.135 7.769.81 11.399-.421 2.484-.842 4.72-2.28 7.446-3.287 5.53-2.042 11.412-1.995 18.209-.372-2.69-5.025-9.676-7.076-17.965-6.113.796-8.952-7.984-11.878-14.116-7.952 4.247.44 5.859 3.207 5.72 5.602-.156 2.712-2.696 5.128-6.568 4.501-3.75-.606-8.01-3.674-7.109-8.518 1.162-6.24 7.364-8.33 13.576-7.801 12.314 1.049 25.488 10.189 36.899 14.175 9.093 3.174 16.062 2.814 23.963-2.417 4.488 3.446 9.742 4.748 15.492 4.68 3.936-.045 8.491-.735 11.666-1.815 11.385-3.87 24.038-13.753 38.218-14.396 5.5-.249 11.25 2.976 11.191 9.421-.02 2.157-1.71 6.809-7.03 7.456-3.78.46-7.094-1.57-7.047-4.743.047-3.126 2.052-4.43 6.026-5.357-5.604-4.253-14.703-1.55-14.52 7.609-8.27-1.119-14.395.574-17.788 6.233 4.494-1.093 10.02-1.928 15.53-.619 2.719.646 4.86 2.256 7.22 3.44 2.363 1.186 4.95 1.948 7.98 2.059 4.286.157 7.63-.97 10.738-2.812a13.4 13.4 0 0 0 2.894-2.309 13.7 13.7 0 0 0 .25 4.061c.744 3.538 2.094 6.243 5.108 9.296 3.814 3.865 7.226 4.875 10.485 6.31 7.463 3.283 11.31 8.573 14.168 13.756 1.875-6.326-.825-11.77-7.24-17.106 6.772-6.165 2.511-14.803-4.412-16.055 2.006 3.554 2.4 5.914.129 8.063-2.306 2.18-6.126 1.17-8.26-1.985-3.014-4.455-.57-8.464 1.13-9.795 5.206-4.073 10.653-2.055 14.188 2.166 9.117 10.882 10.205 26.217 15.169 37.17 2.339 5.16 6.357 10.978 11.33 13.919 1.25.739 3.474 2.032 7.558 3.06.127 3.602 2.013 7.14 2.7 8.468 2.916 5.63 8.319 9.231 13.314 11.91 10.653 5.71 26.296 9.233 35.396 17.595 4.59 4.218 7.245 10.2 3.434 15.276-2.958 3.94-8.1 2.877-11.082.524-3.08-2.428-3.019-5.934-1.127-7.883 1.671-1.72 4.8-2.406 7.997.426-1.256-7.172-9.35-11.661-15.406-5.02-4.896-6.758-11.13-10.517-16.651-9.1 5.791 3.91 9.804 8.21 12.04 13.664 1.102 2.69 1.555 5.31 2.613 7.708 1.549 3.507 3.9 6.55 7.4 8.683 4.166 2.54 10.912 3.457 16.672-.388 1.84-1.227 3.277-2.576 4.376-4.017l3.553 1.88-1.818 4.544c-6.172-1.84-13.839.031-17.961 5.773-2.11 2.938-3.225 6.783-3.253 11.073-.03 4.413 1.92 7.633 3.077 11.002 2.437 7.103.799 14.006-1.255 18.584 5.443-1.066 8.626-8.223 8.233-16.558 8.855-.095 12.744-8.642 8.997-14.595-1.27 3.878-2.743 5.764-5.863 5.536-3.167-.232-5.107-3.099-4.342-6.832 1.176-5.747 5.888-6.746 8.631-6.361 6.547.92 8.51 7.723 7.514 13.14-2.733 14.85-13.02 26.321-17.755 37.377-2.23 5.21-3.637 12.72-2.448 18.376.298 1.422.923 4.449 3.054 7.447-2.573 2.524-4.3 5.876-4.816 7.28-2.19 5.952-1.199 12.369.196 17.863 2.974 11.714 10.711 23.683 10.68 36.041-.015 6.237-2.641 12.78-9.771 12.807-2.773.01-6.449-1.827-6.93-6.403-.527-5.024 2.316-7.17 5.385-7.225 2.583-.046 4.162 1.746 4.83 6.09 4.445-5.766 2.037-13.552-6.673-15.164 1.683-8.174.726-14.575-4.247-17.702.877 5.923.41 11-1.68 16.255-1.246 3.137-3.287 5.78-4.603 8.84-1.325 3.081-2.026 7.209-1.613 10.127.71 5.02 3.542 11.997 11.922 13.573 9.666 1.817 18.535-5.118 20.275-15.906 1.398-8.671-.414-16.142-3.274-24.72-4.18-12.541-10.627-25.607-6.598-34.747.686.466 2.09 2.478 2.75 4.58 3.526-.239 7.903.228 10.976 1.65 2.303 1.065 3.874 2.671 4.493 4.69 1.395 4.548-1.845 8.29-5.492 10.009 4.025 1.42 8.348-.567 11.025-4.812.536-.848 4.475-9.789-2.459-16.91 2.179-1.175 4.397-3.398 5.056-4.658-.613-1.496-2.166-3.59-4.262-5.427 6.613-4.932 6.818-11.696 5.26-16.329-1.474-4.38-5.34-7.582-10.44-6.114 4.508 2.878 5.263 6.466 4.893 8.93-.83 5.52-10.373 7.712-17.263 6.142-.452.914-1.77 3.253-3.176 4.187-3.823-9.899 6.447-23.312 12.513-35.027 4.158-8.03 7.422-14.907 7.675-23.258.218-7.219-2.769-14.402-8.464-17.476q-.255-.136-.516-.263l2.66-6.65-5.312-2.813c1.377-2.68 1.794-5.604 1.57-8.622-.462-6.167-4.357-11.16-9.129-15.203-5.407-4.58-12.028-7.937-17.555-10.4-12.074-5.378-26.069-9.87-30.096-19.011.808-.193 3.24.129 5.237 1.06 2.78-2.762 5.503-5.1 8.624-6.409 2.339-.98 5.023-1.056 6.926-.15 4.295 2.04 4.73 6.811 3.537 10.663 2.72-.913 3.934-3.016 4.395-5.314.793-3.958-.46-7.243-2.883-10.045-2.747-3.177-6.996-5.617-11.472-5.476.603-2.401.314-5.539-.17-6.876a14.5 14.5 0 0 0-6.593-.806c.37-4.407-1.302-8.439-3.827-10.896-2.378-2.312-5.202-4.282-8.615-4.423-3.108-.129-6.008 1.226-7.183 3.707 5.311-.083 7.602 1.205 8.88 2.85 1.82 2.34 1.96 5.541.224 8.944-1.533 3.001-4.617 6.198-7.34 8.085.37.95 1.062 2.923.802 4.592-8.585-3.86-12.275-21.069-16.826-33.45-3.12-8.487-6.604-14.5-12.708-20.203-4.366-4.08-11.911-5.922-17.941-3.942l-1.19-5.41-6.294 1.179c-2.511-5.952-8.535-9.706-14.61-10.462-8.291-1.031-15.695 1.15-24.056 4.59-12.198 5.02-28.671 13.796-37.32 10.081 1.053-1.32 2.974-2.432 3.925-2.804-.45-3.28.107-7.283 1.281-10.44 1.33-3.58 3.786-5.932 6.739-6.173 2.075-.17 4.865 1.08 8.394 5.048 2.485-6.959-5.14-11.675-11.066-11.586-3.523.053-7.763.862-10.903 4.837-1.647-2.248-3.471-3.714-4.908-4.455-1.313.546-3.82 2.6-5.18 4.669-2.924-3.392-6.442-5.008-10.637-5.182-3.951-.164-12.726 1.7-11.303 11.212 2.03-3.484 6.273-6.388 10.825-3.884 1.845 1.015 2.747 2.819 3.607 5.205 1.146 3.183 1.265 6.77 1.11 10.687 2.037.84 3.341 2.415 3.745 3.14-9.457 3.215-20.687-4.057-32.813-9.314-5.55-2.405-12.503-5.012-19.533-5.899-6.205-.782-12.518-.274-17.373 3.558-1.762 1.39-3.249 3.008-4.324 4.904l-7.228-1.083-1.788 6.576c-5.606-1.018-11.992.84-15.87 4.464-6.105 5.704-9.588 11.717-12.709 20.204-4.55 12.38-8.241 29.59-16.826 33.45-.26-1.669.432-3.642.801-4.592-2.721-1.888-5.806-5.084-7.339-8.085-1.737-3.403-1.596-6.604.223-8.944 1.28-1.645 3.57-2.933 8.88-2.85-1.174-2.48-4.074-3.836-7.181-3.707-3.414.14-6.238 2.111-8.615 4.423-2.526 2.457-4.198 6.489-3.827 10.896a14.5 14.5 0 0 0-6.593.806c-.485 1.337-.774 4.474-.17 6.876-4.477-.14-8.726 2.299-11.473 5.476-2.423 2.802-3.676 6.087-2.883 10.044.461 2.299 1.674 4.402 4.395 5.314-1.192-3.851-.758-8.621 3.537-10.663 1.904-.905 4.587-.83 6.927.151 3.12 1.308 5.843 3.646 8.623 6.41 1.997-.933 4.43-1.254 5.237-1.062-4.027 9.141-18.022 13.634-30.096 19.012-5.526 2.462-12.148 5.82-17.555 10.4-4.772 4.042-8.667 9.035-9.128 15.203-.224 3 .186 5.91 1.545 8.578l-4.77 2.525 2.691 6.728q-.544.237-1.065.517c-5.695 3.074-8.682 10.257-8.463 17.476m300.223-147.018a16.4 16.4 0 0 0-4.145 3.191c.292-2.063.212-4.13-.194-6.004l3.584-.756zm-170.627-4.991c-.622 1.88-.883 3.994-.692 6.378-1.453-1.221-3.078-2.163-4.726-2.759l1.262-4.098z"/><g fill="#119943"><path d="M496.774 267.867c-2.255 1.946-3.946 4.74-4.016 7.876-.07 3.167 1.498 5.724 3.945 7.945 2.63-2.128 4.177-4.707 4.227-7.809.053-3.217-1.973-6.247-4.156-8.012m.018 1.3c-1.77 1.752-3.011 4.07-3.068 6.598-.06 2.673 1.206 4.811 3.013 6.621 1.9-1.726 3.183-3.853 3.227-6.523.04-2.49-1.367-4.987-3.172-6.697M653.508 337.326c-2.954-.386-5.894-.058-8.279 1.977-2.41 2.056-3.544 5.472-3.572 8.505 3.338.545 6.293-.018 8.641-2.046 2.434-2.103 3.347-5.632 3.21-8.436m-.957.87c-2.415-.191-4.771.201-6.695 1.842-1.952 1.666-2.987 4.375-3.194 6.93 2.543.263 4.994-.202 7.004-1.938 1.889-1.631 2.813-4.35 2.885-6.834M341.87 336.586c2.953-.386 5.892-.058 8.278 1.977 2.41 2.056 3.543 5.473 3.572 8.505-3.338.545-6.293-.018-8.641-2.046-2.434-2.103-3.347-5.632-3.21-8.436m.956.87c.072 2.485.996 5.203 2.884 6.834 2.01 1.736 4.461 2.2 7.005 1.938-.208-2.555-1.243-5.264-3.195-6.93-1.923-1.64-4.279-2.033-6.694-1.841M302.16 500.325c-2.028-2.182-5.045-3.67-8.18-3.625-3.166.046-5.677 1.953-7.633 4.269 2.222 2.55 4.856 3.866 7.958 3.802 3.216-.065 6.17-2.2 7.854-4.446m-14.51.629c1.804 1.825 3.968 2.906 6.635 2.85 2.491-.05 4.933-1.547 6.573-3.41-1.851-1.696-4.347-2.764-6.863-2.727-2.567.037-4.662 1.478-6.344 3.287M693.46 501.02c2.028-2.182 5.045-3.67 8.18-3.625 3.166.046 5.677 1.952 7.633 4.269-2.222 2.55-4.856 3.866-7.958 3.802-3.216-.065-6.17-2.2-7.854-4.446m14.51.629c-1.683-1.809-3.777-3.25-6.345-3.288-2.517-.036-5.012 1.032-6.863 2.728 1.64 1.863 4.082 3.36 6.573 3.41 2.667.056 4.83-1.025 6.634-2.85"/></g><g fill="#fff"><path d="M498.183 250.924c127.055 0 230.091 103.64 230.091 231.439 0 67.482-28.737 128.22-74.561 170.528l-.714-1.98c45.092-41.931 73.343-101.923 73.343-168.548 0-126.731-102.172-229.506-228.159-229.506S270.026 355.632 270.026 482.363c0 65.472 27.274 124.547 71.009 166.363l-.673 2.02c-44.488-42.205-72.27-102.033-72.27-168.383 0-127.799 103.037-231.44 230.091-231.44"/><path d="M498.183 254.79c124.92 0 226.225 101.909 226.225 227.573 0 65.768-27.761 125.017-72.121 166.568l-.713-1.98c43.63-41.17 70.901-99.677 70.901-164.588 0-124.597-100.44-225.64-224.292-225.64s-224.291 101.043-224.291 225.64c0 63.713 26.273 121.257 68.5 162.291l-.68 2.04c-42.981-41.426-69.753-99.738-69.753-164.331 0-125.664 101.305-227.573 226.224-227.573"/></g><path fill="#fff" d="M334.898 603.789c.562 2.224 1.17 4.84 2.933 6.843 2.214 2.514 9.558 4.276 15.221 5.966-1.13-4.097-3.588-12.704-6.159-15.08-1.97-1.82-4.135-2.157-6.138-2.595-3.206-.7-6.61-2.273-9.044-4.495l1.116-1.196q.163.155.327.3c4.927 4.328 14.187 5.627 18.508-.314 2.183-3.002 1.749-6.356-.579-9.047-1.962-2.27-7.214-3.86-10.72-2.979 2.779 2.316 3.948 4.154 2.74 7.142-1.15 2.848-3.5 4.506-5.867 4.475-1.057-.015-2.076-.394-3.023-1.066.823-.977.769-2.922.441-4.191-.265 1.323-.793 2.311-1.517 3.105l-.08.089c-1.3-1.32-2.14-2.873-2.418-4.758.758.561 1.737.712 2.501.463 1.35-.438 1.503-2.064 1.054-3.234-.41-1.075-1.435-1.758-2.576-1.842-1.65-.12-2.6 1.249-2.808 2.676-.376 2.589 1.084 5.79 2.988 8.077l-1.15 1.26c-1.567-1.662-2.577-3.366-3.869-5.492l-5.673-2.4 2.81 5.865c2.099.858 3.801 2.022 5.422 3.466l-1.176 1.29c-2.343-1.788-5.543-3.096-8.083-2.637-1.42.257-2.756 1.253-2.578 2.898.123 1.138.842 2.138 1.93 2.512 1.003.346 2.31.29 2.903-.703.53-.887.36-2.189-.256-2.946 1.885.212 3.46.99 4.82 2.236-.716.656-1.62 1.072-2.937 1.345 1.175.455 2.922.395 3.903-.321.758.954 1.204 1.997 1.257 3.098.113 2.365-1.463 4.77-4.269 6.018-2.945 1.31-4.823.205-7.232-2.493-.76 3.535 1.01 8.728 3.346 10.612 2.77 2.233 6.137 2.551 9.061.266 5.789-4.523 4.172-13.732-.324-18.507q-.21-.223-.44-.441l1.143-1.226.027.027c2.217 2.547 3.631 4.63 4.465 7.934M635.666 618.545c2.255-11.881-8.015-16.195-14.572-19.093-3.688-1.63-6.053-3.395-6.393-5.725-.173-1.182.081-2.168.767-2.793 1.145-1.042 3.167-1.09 4.004.588.659 1.318.637 3.013.266 4.405 3.368-2.263 3.666-4.996 2.903-6.87-.877-2.155-3.027-3.4-4.952-3.687-4.332-.644-7.808 2.757-8.035 6.919-.084 1.55.26 3.14 1.077 4.476-1.18.34-1.579 1.98-.922 3.888-3.817 1.096-2.406 6.267.93 6.072.378 2.41 1.165 3.18 3.814 3.167.775 4.078 4.325 7.114 9.408 3.244-3.945.227-5.543-2.444-4.369-4.764.91-1.797 3.754-2.186 6.055-1.31 2.932 1.118 5.243 4.75 4.6 8.711-1.165-.137-2.94-.43-4.329-.478-5.46 3.921-11.073 4.435-13.927.976-.66 3.017.47 7.733 6.498 8.745-1.107 1.452-2.533 3.078-3.172 5.288 2.218.625 4.425.42 6.073.041-1.95 5.612 1.274 8.966 3.906 10.15-.789-6.687 2.207-8.301 8.56-12.187.443-1.171.731-2.45 1.094-3.717 3.929 1.156 5.64 5.744 5.06 8.74-.467 2.416-2.298 4.628-4.304 4.454-2.591-.226-4.018-2.992-1.745-6.225-5.041 2.28-5.167 6.619-2.11 9.426-1.408 2.245-.984 4.063.865 5.656-1.925 2.731 1.82 6.284 4.763 3.619.996 1.656 1.858 1.81 3.419 1.173.704 1.399 1.873 2.528 3.235 3.274 3.656 2.002 8.38 1.212 10.116-2.809.771-1.786.845-4.642-.523-6.522-1.19-1.637-3.39-3.29-7.09-1.62 3.73 1.13 4.298 4.827 2.568 5.926-.73.464-2.102.924-3.447-.208-1.8-1.517-2.24-4.271-1.68-8.264.991-7.075 2.729-18.118-8.431-22.496zM358.45 618.545c-2.256-11.881 8.014-16.195 14.57-19.093 3.69-1.63 6.054-3.395 6.394-5.725.173-1.182-.081-2.168-.767-2.793-1.144-1.042-3.167-1.09-4.004.588-.659 1.318-.637 3.013-.266 4.405-3.368-2.263-3.666-4.996-2.903-6.87.877-2.155 3.027-3.4 4.952-3.687 4.332-.644 7.808 2.757 8.035 6.919.083 1.55-.259 3.14-1.077 4.476 1.18.34 1.579 1.98.922 3.888 3.817 1.096 2.406 6.267-.929 6.072-.379 2.41-1.166 3.18-3.815 3.167-.775 4.078-4.324 7.114-9.408 3.244 3.945.227 5.543-2.444 4.369-4.764-.91-1.797-3.754-2.186-6.054-1.31-2.932 1.118-5.244 4.75-4.602 8.711 1.166-.137 2.94-.43 4.33-.478 5.46 3.921 11.073 4.435 13.927.976.66 3.017-.47 7.733-6.498 8.745 1.107 1.452 2.533 3.078 3.172 5.288-2.218.625-4.425.42-6.074.041 1.952 5.612-1.273 8.966-3.905 10.15.789-6.687-2.207-8.301-8.56-12.187-.443-1.171-.731-2.45-1.094-3.717-3.929 1.156-5.64 5.744-5.06 8.74.467 2.416 2.298 4.628 4.304 4.454 2.591-.226 4.018-2.992 1.745-6.225 5.041 2.28 5.167 6.619 2.11 9.426 1.408 2.245.984 4.063-.865 5.656 1.925 2.731-1.819 6.284-4.763 3.619-.996 1.656-1.858 1.81-3.419 1.173-.704 1.399-1.873 2.528-3.235 3.274-3.656 2.002-8.38 1.212-10.116-2.809-.77-1.786-.845-4.642.523-6.522 1.19-1.637 3.39-3.29 7.09-1.62-3.73 1.13-4.298 4.827-2.568 5.926.73.464 2.102.924 3.447-.208 1.8-1.517 2.24-4.271 1.68-8.264-.991-7.075-2.728-18.118 8.431-22.496z"/><path fill="#119943" d="M362.894 621.51c2-.733 4.101-.967 6.085.078 2.004 1.055 3.332 3.26 3.83 5.37-2.243.905-4.393.977-6.35-.068-2.028-1.084-3.22-3.402-3.565-5.38m.805.457c1.654-.513 3.359-.61 4.958.232 1.624.855 2.771 2.582 3.318 4.331-1.733.583-3.515.645-5.19-.25-1.574-.84-2.646-2.591-3.086-4.313"/><path fill="#fff" d="M658.927 603.789c-.562 2.224-1.17 4.84-2.933 6.843-2.214 2.514-9.558 4.276-15.221 5.966 1.13-4.097 3.588-12.704 6.159-15.08 1.97-1.82 4.135-2.157 6.138-2.595 3.206-.7 6.61-2.273 9.044-4.495l-1.116-1.196q-.163.155-.327.3c-4.927 4.328-14.187 5.627-18.508-.314-2.183-3.002-1.749-6.356.579-9.047 1.962-2.27 7.214-3.86 10.72-2.979-2.779 2.316-3.948 4.154-2.74 7.142 1.15 2.848 3.5 4.506 5.867 4.475 1.057-.015 2.076-.394 3.023-1.066-.823-.977-.769-2.922-.441-4.191.265 1.323.793 2.311 1.517 3.105l.08.089c1.3-1.32 2.14-2.873 2.418-4.758-.758.561-1.737.712-2.501.463-1.35-.438-1.503-2.064-1.054-3.234.41-1.075 1.435-1.758 2.576-1.842 1.65-.12 2.6 1.249 2.808 2.676.376 2.589-1.084 5.79-2.988 8.077l1.15 1.26c1.567-1.662 2.577-3.366 3.869-5.492l5.673-2.4-2.81 5.865c-2.099.858-3.801 2.022-5.422 3.466l1.176 1.29c2.343-1.788 5.543-3.096 8.084-2.637 1.419.257 2.755 1.253 2.577 2.898-.123 1.138-.841 2.138-1.93 2.512-1.003.346-2.31.29-2.903-.703-.53-.887-.36-2.189.256-2.946-1.885.212-3.46.99-4.82 2.236.716.656 1.62 1.072 2.937 1.345-1.175.455-2.922.395-3.903-.321-.758.954-1.204 1.997-1.257 3.098-.113 2.365 1.463 4.77 4.269 6.018 2.946 1.31 4.823.205 7.232-2.493.76 3.535-1.01 8.728-3.346 10.612-2.77 2.233-6.136 2.551-9.061.266-5.789-4.523-4.172-13.732.324-18.507q.21-.223.44-.441l-1.143-1.226-.027.027c-2.217 2.547-3.631 4.63-4.465 7.934"/><path fill="#119943" d="M631.22 621.51c-1.999-.733-4.1-.967-6.084.078-2.004 1.055-3.332 3.26-3.829 5.37 2.242.905 4.392.977 6.349-.068 2.028-1.084 3.22-3.402 3.565-5.38m-.804.457c-1.654-.513-3.359-.61-4.958.232-1.624.855-2.772 2.582-3.318 4.331 1.733.583 3.515.645 5.19-.25 1.574-.84 2.646-2.591 3.086-4.313"/><path fill="#fff" d="M497.088 300.364c99.207 0 179.661 80.454 179.661 179.662 0 48.616-19.33 92.72-50.71 125.069l-7.086-2.444c31.514-31.319 51.03-74.696 51.03-122.625 0-73.697-46.138-136.63-111.098-161.504-2.62.295-4.434 1.823-5.34 4.044-1.118 2.746.408 6.097 2.58 6.884 2.446.886 4.172-.596 4.32-2.252.13-1.43-.815-3.165-3.498-2.645.211-1.204 1.754-2.04 3.33-1.584 3.1.898 3.953 4.094 3.21 7.885 4.89 1.22 7.493 5.315 7.037 9.344-1.256-2.002-1.97-2.671-4.764-3.712-2.412-.9-7.695-.96-10.183-1.939-2.64-1.038-3.454-2.509-3.947-4.58l-4.718 4.136-1.916-6.203c-1.592 1.43-3.38 1.807-6.148 1.15-2.6-.615-7.068-3.673-9.562-4.31-2.888-.74-3.644-.477-5.817.45 2.126-4.673 6.372-5.566 11.083-3.779 1.553-3.536 3.89-5.302 6.948-4.272 1.556.524 2.346 2.092 1.832 3.201-1.907-1.958-3.672-1.071-4.382.177-.823 1.444-.25 3.646 2.264 4.315 2.231.592 5.12-1.104 5.767-3.997.593-2.648-.945-5.592-3.742-7.458-12.23-3.38-25-5.457-38.155-6.056-3.174.88-5.147 2.97-5.374 5.69-.247 2.955 2.211 5.696 4.518 5.798 2.6.114 3.804-1.816 3.451-3.44-.305-1.404-1.724-2.777-4.13-1.479-.158-1.212 1.065-2.472 2.705-2.507 3.227-.07 4.996 2.725 5.42 6.564 5.03-.297 8.521 1.83 9.154 6.925-1.797-1.535-2.324-2.07-5.3-2.23-2.572-.136-7.632 1.385-10.298 1.195-2.839-.202-4.054-1.369-5.146-3.208l-3.683 5.346-3.648-5.378c-1.09 1.829-2.306 2.989-5.135 3.19-2.667.19-7.726-1.33-10.298-1.194-2.977.16-3.503.694-5.3 2.23.632-5.096 4.123-7.223 9.153-6.925.425-3.84 2.193-6.634 5.42-6.565 1.64.035 2.863 1.295 2.705 2.507-2.405-1.298-3.825.076-4.13 1.479-.353 1.624.851 3.554 3.451 3.44 2.307-.102 4.766-2.843 4.519-5.798-.22-2.63-2.072-4.67-5.064-5.599a172.4 172.4 0 0 0-39.726 6.75c-2.17 1.85-3.29 4.4-2.77 6.723.648 2.893 3.535 4.589 5.767 3.997 2.515-.669 3.087-2.871 2.264-4.315-.71-1.248-2.475-2.135-4.382-.177-.514-1.109.276-2.677 1.832-3.201 3.058-1.03 5.395.736 6.948 4.272 4.711-1.787 8.957-.894 11.083 3.779-2.173-.927-2.93-1.19-5.817-.45-2.494.637-6.961 3.695-9.562 4.31-2.768.657-4.556.28-6.148-1.15l-1.916 6.203-4.718-4.135c-.493 2.07-1.307 3.54-3.947 4.58-2.488.978-7.77 1.039-10.183 1.938-2.794 1.04-3.508 1.71-4.764 3.712-.456-4.029 2.148-8.124 7.036-9.344-.742-3.79.11-6.987 3.21-7.885 1.577-.457 3.12.38 3.33 1.584-2.682-.52-3.626 1.215-3.497 2.645.148 1.656 1.874 3.138 4.32 2.252 2.172-.787 3.698-4.138 2.58-6.884-.777-1.904-2.22-3.299-4.268-3.844-64.674 25.018-110.554 87.811-110.554 161.304 0 47.567 19.222 90.65 50.317 121.914l-6.111 3.423c-31.535-32.373-50.972-76.586-50.972-125.337 0-99.208 80.454-179.662 179.662-179.662"/><path fill="#fff" d="M376.115 587.76c-27.583-28.85-44.423-67.293-44.423-109.503 0-56.48 30.698-107.007 75.841-134.361l.595-.357c-44.456 30.527-72.153 79.432-72.153 134.718 0 24.727 5.053 48.888 15.45 70.084 7.038 14.344 16.202 27.547 27.096 39.235zM617.414 587.76c27.584-28.85 44.424-67.293 44.424-109.503 0-56.48-30.698-107.007-75.842-134.361l-.594-.357c44.456 30.527 72.152 79.432 72.152 134.718 0 24.727-5.052 48.888-15.45 70.084-7.038 14.344-16.202 27.547-27.095 39.235z"/><g fill="#fff"><path d="m359.079 658.8 13.397 13.081c6.159 6.013 15.18 9.396 25.613 10.022 11.687.702 24.529-1.89 37.497-6.45 11.03-3.88 22.24-9.68 33.767-13.922 12.27-4.516 24.829-7.345 35.384-6.756 13.564.758 23.567 5.005 31.464 10.014 6.126 3.887 11.829 8.655 17.44 13.237 4.307 3.52 8.291 6.7 13.549 8.603 8.852 3.204 18.33 2.436 27.173-.472 19.354-5.885 32.036-16.075 44.143-27.79-24.86 13.152-41.382 17.683-54.301 18.246-4.982.216-9.362-.158-14-2.254-8.367-3.783-17.02-11.576-26.141-17.98-15.552-10.918-26.63-15.699-43.22-15.504-17.451.204-32.826 7.498-48.826 14.413-8.262 3.57-15.714 7.413-25.77 10.38-18.47 5.452-47.828 6.205-67.17-6.868"/><path d="m409.207 699.697 19.274 9.308c30.094-10.51 45.639-23.215 72.499-23.274 8.689-.018 16.448 1.227 24.122 4.658 10.516 4.702 20.874 13.023 33.248 23.347l15.748-5.649c-7.948-5.733-18.947-14.034-31.601-22.207-5.944-3.838-11.648-7.107-17.897-9.516-7.31-2.818-15.267-4.463-23.686-4.477-11.919-.02-25.372 3.027-36.325 7.504-9.649 3.945-21.398 10.2-29.301 13.61-8.687 3.75-17.35 5.541-26.08 6.696"/><path d="m448.507 716.549 22.716 4.724c7.833-4.5 21.529-8.522 31.601-8.504 9.46.018 19.375 2.403 28.642 9.367l16.055-4.11c-17.02-13.545-32.014-17.472-49.591-17.074-17.922.405-37.282 8.789-49.423 15.597"/></g><path fill="#fff" d="M498.259 338.178a110.896 111.343 0 0 1 110.896 111.343 110.896 111.343 0 1 1-110.896-111.343"/><path fill="#119943" d="M498.259 341.802c10.144 0 19.96 1.416 29.262 4.06 2.595 2.712 4.464 5.28 5.292 7.992-12.292.852-21.166 3.664-34.797 10.909-6.81-3.073-11.902-5.952-19.215-8.095-3.729-1.093-10.622-2.072-15.945-2.813.834-2.804 2.736-5.14 6.011-7.95a106.9 106.9 0 0 1 29.392-4.103m88.847 47.35c10.919 16.169 17.576 35.475 18.349 56.289-2.127 3.82-4.023 6.131-5.934 7.541-4.625-11.528-10.04-19.123-21.202-29.904.819-7.427 1.982-13.16 1.761-20.777-.113-3.881-1.31-10.735-2.25-16.025 2.837-.127 5.62.762 9.276 2.876m-4.532 126.96c-12.067 15.384-28.22 27.384-46.812 34.355-3.665-.783-6.701-1.757-8.932-3.025 8.798-7.74 14.834-15.984 21.468-29.588 7.316-1.516 13.127-2.18 20.303-4.745 3.64-1.3 9.746-4.533 14.478-7.056.948 2.578.599 5.794-.505 10.059m-120.998 34.657c-18.737-6.85-35.038-18.796-47.24-34.168-.501-3.955-.573-7.187-.007-9.77 9.963 5.884 19.747 9.43 34.55 11.51 3.703 6.49 6.436 12.297 11.093 18.33 2.351 3.045 7.076 7.502 10.855 11.096-2.28 1.76-5.163 2.596-9.251 3.002zm13.346-5.137c-4.673-3.96-9.505-8.654-11.846-11.98-3.865-5.491-7.693-11.821-10.3-16.843l21.595-29.738c16.626 1.773 35.544 1.303 47.919-.3l21.422 29.886c-6.016 12.02-12.235 20.985-22.768 29.28-16.892 3.694-30.801 2.78-46.022-.305m-4.563-61.57-21.758 29.547c-12.791-1.93-23.53-5.54-33.878-11.935-9.062-15.123-12.64-28.728-14.473-44.235 2.36-6.265 6.368-13.602 8.366-16.378 3.265-4.538 8.412-9.976 12.382-14.006l34.853 11.314c3.01 16.334 7.914 30.816 14.508 45.693m-12.7-50.377-34.908-11.59c-2.204-13.29-2.827-24.088.818-37.019 11.653-13.784 23.68-20.591 37.549-27.072 6.571.41 14.39 1.965 17.541 2.973 5.326 1.704 12.044 4.785 17.104 7.316l.01 37.128c-13.527 7.376-26.556 16.796-38.115 28.264m43.126-28.183.238-37.075c11.785-6.113 21.98-9.697 35.14-10.285 15.6 6.437 26.608 16.313 37.247 28.008 1.6 6.331 2.513 14.083 2.528 17.348.025 5.591-.83 12.933-1.672 18.528l-35.173 11.439c-9.029-9.265-23.226-19.254-38.308-27.963m39.893 32.719 35.085-11.152c9.403 9.267 15.94 17.81 20.561 30.032-1.554 17.548-5.753 30.657-14.53 44.374-5.39 3.327-11.694 6.709-15.521 7.889a141 141 0 0 1-18.227 4.31l-21.974-30.226c5.457-10.968 10.923-26.104 14.606-45.227m-122.176-51.53c-3.172 12.34-2.904 21.59-.165 37.13-5.028 5.528-9.478 9.341-13.776 15.634-2.194 3.212-5.166 9.571-7.483 14.441-2.35-1.507-4.172-4.317-6.002-8.56.782-20.539 7.295-39.605 17.976-55.634 3.664-1.745 6.908-2.903 9.45-3.011"/><g fill="#119943"><path d="M498.01 414.792c19.213 0 34.794 15.581 34.794 34.794 0 19.214-15.581 34.795-34.794 34.795-19.214 0-34.795-15.581-34.795-34.795 0-19.213 15.581-34.794 34.795-34.794m0 1.063c18.626 0 33.73 15.105 33.73 33.731s-15.104 33.732-33.73 33.732c-18.627 0-33.732-15.105-33.732-33.732s15.105-33.731 33.732-33.731"/><path d="M498.01 416.918c18.039 0 32.668 14.63 32.668 32.668 0 18.04-14.63 32.669-32.668 32.669-18.04 0-32.669-14.63-32.669-32.669s14.63-32.668 32.669-32.668m0 1.063c17.451 0 31.605 14.154 31.605 31.605 0 17.452-14.154 31.605-31.605 31.605-17.452 0-31.606-14.153-31.606-31.605s14.154-31.605 31.606-31.605"/></g><g fill="#119943"><path d="M508.081 441.37c2.398-2.586 2.003-6.974-1.177-9.404 1.12-1.005 2.065-4.334-1.04-5.655.705 1.265-.477 3.085-1.777 3.069-1.854-.024-2.655-1.606-2.43-2.944.18-1.078 1.224-2.121 2.775-2.255 2.39-.09 3.828 1.278 4.767 3.464 1.857 4.322 1.873 11.746 4.174 16.732 1.299 2.813 3.292 4.66 6.565 4.773 1.912.067 3.927-.79 5.047-2.116 1.522-1.8 1.576-4.286.426-6.32-1.227-2.17-3.84-2.882-5.708-4.631-1.237-1.159-2.559-3.839-2.938-7.179-3.447 4.752-.24 9.056.86 9.878-1.119 1.074-1.53 4.385 1.578 5.447-1.216-3.56 4.246-4.615 4.128-.582-.053 1.811-1.529 2.82-3.353 2.756-2.245-.079-3.998-2.07-5.109-5.066-1.319-3.557-1.376-11.004-3.751-15.743-1.235-2.462-3.404-4.24-6.063-4.414-1.962-.129-4.214.75-5.377 2.624-1.773 2.856-.668 6.402 1.933 8.245 2.43 1.72 5.814 2.823 6.47 9.32M488.702 441.37c-2.398-2.586-2.003-6.974 1.178-9.404-1.12-1.005-2.065-4.334 1.04-5.655-.705 1.265.477 3.085 1.776 3.069 1.855-.024 2.656-1.606 2.43-2.944-.18-1.078-1.223-2.121-2.774-2.255-2.39-.09-3.829 1.278-4.767 3.464-1.857 4.322-1.873 11.746-4.175 16.732-1.298 2.813-3.291 4.66-6.564 4.773-1.913.067-3.928-.79-5.048-2.116-1.52-1.8-1.575-4.286-.425-6.32 1.226-2.17 3.84-2.882 5.708-4.631 1.236-1.159 2.558-3.839 2.937-7.179 3.447 4.752.24 9.056-.86 9.878 1.12 1.074 1.53 4.385-1.578 5.447 1.216-3.56-4.246-4.615-4.127-.582.053 1.811 1.528 2.82 3.352 2.756 2.245-.079 3.999-2.07 5.11-5.066 1.318-3.557 1.375-11.004 3.75-15.743 1.236-2.462 3.405-4.24 6.064-4.414 1.962-.129 4.213.75 5.376 2.624 1.774 2.856.668 6.402-1.932 8.245-2.43 1.72-5.815 2.823-6.47 9.32M507.947 457.853c2.38 2.567 1.988 6.924-1.17 9.336 1.112.999 2.05 4.304-1.032 5.616.7-1.256-.473-3.064-1.764-3.047-1.841.023-2.636 1.594-2.413 2.922.179 1.07 1.215 2.107 2.755 2.239 2.373.09 3.801-1.268 4.733-3.439 1.844-4.291 1.86-11.663 4.145-16.613 1.29-2.793 3.268-4.627 6.518-4.74 1.899-.065 3.9.785 5.011 2.101 1.51 1.788 1.565 4.256.423 6.276-1.218 2.155-3.813 2.861-5.668 4.598-1.227 1.15-2.54 3.812-2.916 7.128-3.423-4.719-.239-8.992.853-9.808-1.11-1.066-1.518-4.354 1.567-5.408-1.207 3.535 4.216 4.582 4.098.578-.052-1.798-1.517-2.8-3.328-2.737-2.229.079-3.97 2.055-5.073 5.03-1.31 3.532-1.366 10.926-3.725 15.631-1.225 2.445-3.38 4.21-6.02 4.383-1.947.128-4.183-.745-5.338-2.606-1.76-2.835-.663-6.356 1.92-8.185 2.411-1.708 5.772-2.804 6.424-9.255M488.361 457.853c-2.38 2.567-1.988 6.924 1.17 9.336-1.112.999-2.05 4.304 1.032 5.616-.7-1.256.473-3.064 1.764-3.047 1.841.023 2.636 1.594 2.413 2.922-.179 1.07-1.215 2.107-2.755 2.239-2.373.09-3.801-1.268-4.733-3.439-1.844-4.291-1.86-11.663-4.145-16.613-1.29-2.793-3.268-4.627-6.518-4.74-1.899-.065-3.9.785-5.011 2.101-1.51 1.788-1.565 4.256-.423 6.276 1.218 2.155 3.813 2.861 5.668 4.598 1.227 1.15 2.54 3.812 2.916 7.128 3.423-4.719.239-8.992-.853-9.808 1.11-1.066 1.518-4.354-1.567-5.408 1.207 3.535-4.216 4.582-4.099.578.053-1.798 1.518-2.8 3.33-2.737 2.228.079 3.97 2.055 5.072 5.03 1.31 3.532 1.366 10.926 3.725 15.631 1.225 2.445 3.38 4.21 6.02 4.383 1.947.128 4.183-.745 5.338-2.606 1.76-2.835.663-6.356-1.92-8.185-2.411-1.708-5.772-2.804-6.424-9.255"/></g><path fill="#119943" d="M498.366 437.985a11.506 11.506 0 0 1 11.506 11.506 11.506 11.506 0 1 1-11.506-11.506"/><path fill="#fff" d="M491.073 444.7c2.935-1.795 5.11-.387 4.988 1.547-.036.57-.446 1.477-1.43 2.184h-6.578v2.323h6.49c1.047.715 1.481 1.66 1.518 2.247.122 1.934-2.053 3.342-4.988 1.547 0 2.489 1.19 3.801 5.62 3.379l1.687 2.252 1.686-2.252c2.376.422 5.41.705 5.69-3.52-2.256 2.252-5.03.86-4.983-.911.019-.687.03-1.758 1.754-2.742h6.04v-2.323h-6.147c-1.617-.967-1.628-2.007-1.647-2.68-.048-1.771 2.727-3.163 4.984-.91-.282-4.225-3.315-3.943-5.691-3.52l-1.686-2.253-1.686 2.253c-4.431-.423-5.62.89-5.62 3.379"/><path fill="#119943" d="m498.458 446.138 2.472 3.617-2.472 3.617-2.472-3.617zm0 1.28-1.598 2.337 1.598 2.338 1.598-2.338z"/><g fill="#fff"><path d="m478.714 635.6-.02-20.393h2.27c.887 0 1.08.714 1.08 1.395V635.6zm-2.168-20.393h1.6v2.336h-1.6zM485.565 635.6c-1.36 0-1.555-.95-1.555-1.809v-4.672h3.583l-.005 3.76h.01v2.721zm2.555-2.721h4.123l-.006-6.724-6.672-.008c-1.351-.002-1.555-.958-1.555-1.81v-7.735c0-.951.621-1.394 1.33-1.394h9.152c.708 0 1.33.436 1.33 1.394v1.326h-8.22l-.012 5.908h4.644l-.005-5.386h3.594v15.342c0 .86-.196 1.81-1.556 1.81h-6.146zM499.58 635.6c-1.36 0-1.556-.95-1.556-1.809v-4.672h3.583l-.005 3.76h3.654v2.721zm6.188-5.505-.008-5.111-7.736.01v-6.545h3.61l-.008 4.22 6.276-.004c.917 0 1.452.44 1.452 1.395v9.73c0 .856-.2 1.81-1.555 1.81h-2.02v-5.506zm-7.744-12.168v-2.705l11.425-.015-1.45 2.72h-6.364zM512.767 635.6c-1.36 0-1.556-.95-1.556-1.809v-8.573c0-.919.36-1.226.932-1.504-.667-.437-.932-.784-.932-1.922v-5.26c0-.959.622-1.325 1.33-1.325h9.013c.709 0 1.33.367 1.33 1.325v1.395h-8.078l-.005 5.425h4.496l-.005-4.903h3.594v3.343c0 1.138-.264 1.485-.932 1.922.677.278.932.585.932 1.504v8.573c0 .859-.197 1.81-1.556 1.81h-2.015v-5.54h-.005l.007-4.429h-4.518l-.008 7.247h4.002v2.721z"/></g><g fill="#fff"><path d="M261.882 197.69v-48.685c0-.312-.049-.57-.128-.766-.084-.209-.234-.423-.454-.653l-.993-1.036v-1.065h39.137l6.92 11.242h-1.42l-.694-.769c-1.365-1.512-2.256-1.531-2.946-1.531h-27.839v43.264c0 .329.047.631.142.88.09.236.278.453.483.667l.993 1.035v1.065h-14.776v-1.065l.993-1.035a2.1 2.1 0 0 0 .44-.667c.098-.251.142-.54.142-.88m13.725-30.553h17.474l-7.466 10.7h-.626v-.994c0-.354-.142-.638-.383-.822-.238-.183-.597-.298-.993-.298h-8.006zM334.844 153.072c-7.124 0-12.159 2.126-16.268 6.501-2.999 3.193-4.688 7.637-4.688 13.084 0 8.585 3.554 14.157 9.32 17.2 3.697 1.95 8.429 2.861 13.306 2.861h7.248c.355 0 .692-.068.951-.167.272-.103.922-.376 1.241-.679l1.299-1.234h1.463l-6.707 10.748h-5.375c-12.51 0-21.02-3.56-27.015-11.134-3.253-4.11-5.416-9.404-5.416-15.952 0-9.53 3.48-16.813 9.119-21.82 5.637-5.007 13.433-7.738 22.488-7.738h12.43l-6.003 10.41h-.909l.086-.726v-.167c0-.35-.137-.658-.412-.866-.268-.201-.648-.32-1.035-.32zM537.046 198.21v-24.247l-31.321-.054c-.33 0-.631.046-.88.142-.237.091-.542.325-.908.61l-1.404 1.095-.994-.241 5.885-9.655h29.622v-17.138a2 2 0 0 0-.142-.766c-.098-.236-.268-.446-.482-.653l-1.079-1.035v-.582h13.938v.582l-1.121 1.035c-.185.17-.334.374-.398.582a3 3 0 0 0-.099.837v49.488c0 .387.05.714.128.937.082.235.197.452.369.61l1.12 1.036v.582h-13.937v-.582l1.079-1.036c.217-.209.39-.43.482-.667.098-.25.142-.54.142-.88m-46.721 0v-49.488c0-.312-.047-.568-.128-.766a1.9 1.9 0 0 0-.454-.653l-1.079-1.035v-.582h13.895v.582l-1.078 1.035c-.215.207-.384.416-.483.653a2 2 0 0 0-.141.766v49.488c0 .336.042.628.141.88.095.24.268.46.483.667l1.078 1.036v.582h-13.895v-.582l1.079-1.036c.202-.195.345-.427.44-.667.1-.253.142-.54.142-.88M553.631 198.21v-49.488c0-.312-.046-.568-.127-.766a1.9 1.9 0 0 0-.454-.653l-1.079-1.035v-.582h13.895v.582l-1.078 1.035c-.215.207-.384.416-.483.653a2 2 0 0 0-.141.766v49.488c0 .336.042.628.141.88.094.24.267.46.483.667l1.078 1.036v.582h-13.895v-.582l1.079-1.036c.202-.195.344-.427.44-.667.1-.253.141-.54.141-.88m13.126-48.623 21.307 29.384 22.965-30.35v17.532h-.93c-.984-1.273-1.852-.202-2.37.489l-19.447 25.895-18.373-24.411c-.722-.96-1.738-.892-2.02.017h-1.132zm46.644 44.379v-45.727c0-.284-.053-.546-.142-.766-.094-.232-.272-.45-.483-.653l-1.078-1.035v-.582h13.937v.582l-1.12 1.035c-.177.163-.339.378-.398.582a3.1 3.1 0 0 0-.099.837v31.746zM443.932 181.824V148.24c0-.312-.046-.568-.127-.766a1.9 1.9 0 0 0-.455-.653l-1.078-1.035v-.582h13.895v.582l-1.079 1.035c-.215.207-.383.416-.482.653a2 2 0 0 0-.142.766v47.501zm28.029 19.55h14.426l-24.412-28.727 23.233-27.339h-14.427v1.065c1.022.439.97 1.817.23 2.68L455.96 166.6l-.007 12.101 16.238 18.928c.74.862.791 2.24-.23 2.68zM624.618 201.375h-14.91l34.503-45.436 6 7.701-26.36 34.525c-.233.305-.541.774-.541 1.152 0 .947.705.94 1.308.993zm21.676-48.178 5.91-7.784 42.354 55.962h-15.173v-1.065c.855 0 1.514-.33 1.635-.935.072-.363-.078-.901-.403-1.328L666.61 179.74h-20.485c-.843 0-1.424.017-1.703.056a1.15 1.15 0 0 0-.582.27l-1.206 1.007-.895-.34 6.408-8.612h12.676l-5.408-7.05.003-.005zM386.855 201.375h-14.91l34.504-45.436 6 7.701-26.36 34.525c-.234.305-.542.774-.542 1.152 0 .947.705.94 1.308.993zm21.676-48.178 5.91-7.784 42.354 55.962h-15.172v-1.065c.854 0 1.514-.33 1.634-.935.072-.363-.077-.901-.403-1.328l-14.006-18.308h-20.485c-.843 0-1.423.017-1.703.056a1.15 1.15 0 0 0-.582.27l-1.206 1.007-.895-.34 6.408-8.612h12.677l-5.409-7.05.004-.005zM698.507 153.352H671.91a2 2 0 0 0-.795.17c-.238.107-.587.353-.993.71l-1.404 1.235-1.087-.349 6.298-9.74h67.319l-6.873 10.089h-.894v-.909c0-.355-.134-.66-.384-.88-.234-.206-.594-.326-.993-.326h-23.464v44.55c0 .391.03.699.1.922.065.21.194.432.397.625l1.078 1.036v1.065h-13.412v-1.065l1.078-1.036c.218-.21.388-.427.483-.667.1-.252.142-.54.142-.88z"/></g><g fill="#fff"><path d="M554.948 608.953v-3.267l-10.201-10.609c-.368-.382-.922-.474-1.027-.086l-.44.012.002-8.025 11.666 12.416v-13.298a1 1 0 0 0-.066-.354.9.9 0 0 0-.222-.302l-.499-.478v-.269h7.405v.269l-.518.478a.64.64 0 0 0-.184.269c-.03.1-.046.237-.046.387v22.858c0 .176.024.33.06.432a.7.7 0 0 0 .17.282l.518.479v.268h-7.405v-.268l.499-.479a.9.9 0 0 0 .222-.308q.066-.17.066-.406zm-18.763 0v-22.858a1 1 0 0 0-.06-.354.9.9 0 0 0-.21-.302l-.497-.478v-.269h7.384v.269l-.498.478a.9.9 0 0 0-.223.302.9.9 0 0 0-.065.354v22.858q-.001.231.065.406c.044.11.124.213.223.308l.498.479v.269h-7.384v-.27l.498-.478a.9.9 0 0 0 .203-.308q.067-.172.066-.406M573.74 609.068v-10.06l8.225-12.318c.28-.418.393-.729.271-1.065-.104-.287-.352-.379-.564-.55v-.268h7.385v.269l-.642.363c-.298.168-.661.843-.829 1.117l-7.531 12.29v10.222q-.001.232.065.406c.043.11.124.213.223.308l.498.479v.269h-7.868v-.27l.499-.478a.85.85 0 0 0 .203-.308q.066-.172.065-.406M575.943 593.941l-4.577-7.251c-.269-.425-.392-.73-.27-1.065.103-.286.351-.379.563-.55v-.268h-7.868v.269l.642.363c.296.167.657.848.829 1.117l7.584 11.86zM447.19 609.282v-18.686a.8.8 0 0 0-.054-.29.7.7 0 0 0-.182-.248l-.409-.393v-.22h6.076v.22l-.426.393a.53.53 0 0 0-.15.22 1.2 1.2 0 0 0-.038.318v18.686c0 .144.02.27.049.355.03.089.075.171.14.23l.425.394v.22h-6.076v-.22l.409-.393a.7.7 0 0 0 .182-.252.9.9 0 0 0 .055-.334m-2.049-21.048h15.427c2.347 0 5.438.56 5.622 3.795.12 2.096-1.32 4.41-5.294 4.424l-7.238.015-.031 3.153 9.81 8.798c.513.46.578 1.417-.249 1.417l.197.667h9.327l-11.766-10.854c4.435-.287 9.83-2.18 9.837-7.648.007-5.022-4.666-7.313-10.451-7.313l-16.75-.003zM429.138 584.416h6.392l-3.513 5.117h-.238l.04-.354v-.082a.52.52 0 0 0-.204-.423.8.8 0 0 0-.497-.156h-3.49c-1.357 0-2.735.017-4.086.136-7.712.68-10.98 4.528-10.98 9.09 0 5.078 4.049 9.197 13.768 9.197h9.144c2.348 0 5.432-.557 5.623-3.795.123-2.102-1.321-3.926-5.294-3.941l-15.355-.032c-.104 0-.461.043-.467.408l-.006.378-.251.004-.718-4.48 15.616.003c4.594 0 11.253 1.764 11.267 7.755.012 5.026-4.996 7.523-10.79 7.525l-8.535.001c-13.314 0-18.86-5.903-18.86-13.183 0-5.821 3.493-10.858 11.721-12.576 3.206-.67 6.46-.61 9.712-.593zM534.639 584.899h-28.622l4.48 5.6h.238l-.041-.354v-.081c0-.171.073-.32.204-.423a.83.83 0 0 1 .498-.157h12.05l-14.436 15.69 7.074.053zM508.185 606.033h25.162l-4.2 5.392h-.24l.042-.355v-.081a.53.53 0 0 0-.205-.423.86.86 0 0 0-.498-.157h-24.06z"/><path d="M490.355 584.402c13.314.106 18.86 5.903 18.86 13.183s-5.546 13.183-18.86 13.183-18.86-5.903-18.86-13.183 5.546-13.29 18.86-13.183m-.235 4.146c9.719.074 13.768 4.118 13.768 9.196s-4.05 9.197-13.768 9.197c-9.72 0-13.768-4.119-13.768-9.197s4.049-9.27 13.768-9.196"/></g></g></svg>