<svg height="1000" viewBox="0 0 264.58333 264.58335" width="1000" xmlns="http://www.w3.org/2000/svg"><g transform="matrix(3.8000001 0 0 3.8000001 -198.02898 -344.78294)"><g transform="matrix(.21863443 0 0 .21863443 45.609918 84.893993)"><path d="m 158.91066 34.665345 l 6.66 20.628 h 21.572 l -17.46666 12.770666 l 6.67866 20.625333 l -17.444 -12.736 l -17.46666 12.736 l 6.688 -20.625333 l -17.4492 -12.770666 h 21.5732 l 6.65466 -20.628" fill="#9f8c50"/><path d="m 219.04666 34.665345 l 6.656 20.628 h 21.56533 l -17.448 12.770666 l 6.68934 20.625333 l -17.46267 -12.736 l -17.44933 12.736 l 6.67866 -20.625333 l -17.46133 -12.770666 h 21.57867 l 6.65333 -20.628" fill="#9f8c50"/><path d="m 249.77466 241.29467 c -.86267 34.29467 -15.46933 61.1572 -47.70533 71.26653 c -8.41867 2.59587 -17.50667 1.8324 -26.584 -.42906 c 17.85867 -22.7828 30.40533 -58.47867 40.764 -95.90947 c -18.43467 -3.21866 -29.204 -12.15333 -35.016 -23.36 c 3.02667 -2.796 6 -5.73333 8.864 -8.76666 c 6.05867 -6.492 11.63866 -13.464 16.16 -20.60933 c 30.42 11.54133 44.456 40.90399 43.51733 77.80799 z m -74.26 -75.44666 c .02 -2.444 .17467 -4.888 .448 -7.276 c 3.504 -.23333 7.132 -.16533 10.76934 .26267 c 2.85866 .32133 5.624 .792 8.29333 1.35733 c -3.236 5.56933 -7.33067 10.21867 -12.016 14.29733 c -2 1.72934 -4.11467 3.36 -6.32267 4.91067 c -.744 -3.87333 -1.112 -7.82 -1.18133 -11.78933 c -.009 -.584 0 -1.17334 .009 -1.76267 z m 21.50267 -43.112 c 4.436 1.36133 5.34 7.85867 3.82 22.30933 c -6.93333 -1.30266 -14.12533 -1.99733 -21.496 -2.04533 c 4.368 -13.108 11.63467 -22.11733 17.676 -20.264 z m -59.13867 201.31226 c -1.424 .2692 -2.90266 .4172 -4.44133 .4172 c -2.76027 -.71613 -9.33107 -.28027 -9.842 -8.8052 c 1.2552 -4.6 5.876 -5.91626 10.80467 -6.1272 c 3.544 -.13173 9.59333 2.9084 17.108 6.9724 c -3.71734 3.79173 -8.24934 6.56413 -13.62934 7.5428 z m 149.92933 -84.1736 c -1.692 -42.59066 -31.72933 -78.43333 -73.764 -91.54666 c 2.556 -6.50133 4.02667 -13.008 3.996 -19.27867 c -.044 -15.02133 -7.07733 -28.86666 -18.89999 -29.554663 c -21.85867 .06 -32.50267 23.461333 -36.14134 44.637333 c -65.152796 9.54 -91.001328 77.31733 -59.58933 103.77866 c 25.34227 10.99854 44.83867 -2.12653 46.24267 -20.51066 c -15.90267 1.95066 -21.20827 -8.06 -21.1332 -20.87867 c .0989 -21.62133 13.9772 -38.372 32.9652 -44.99066 c .02 2.32533 .124 4.472 .31866 6.40533 c .11334 1.09467 .24267 2.16667 .336 3.25467 c .60134 5.60666 1.14667 10.93066 1.67334 16.06666 c -6.27334 3.41333 -12.95867 6.63867 -19.75867 10.10133 l .19867 20.81467 c 6.50133 -2.76667 13.872 -7.088 21.40133 -12.51467 c .332 3.53734 .68533 7.04667 .984 10.572 c 2.02933 21.88267 1.776 41.628 -2.21067 71.42014 c -.82266 6.0704 -2.77866 12.89173 -5.94 19.00266 c -12.47733 -4.69226 -24.08666 -9.9 -32.92626 -10.07186 c -8.34787 -.43334 -20.26454 3.64893 -21.98227 15.32759 c -2.5364 17.17867 15.03853 26.43227 30.9312 25.18534 c 2.59067 -.2 5.12133 -.61294 7.57467 -1.2052 c 8.31733 -2.03067 15.816 -6.2708 22.64133 -12.25054 c 12.74133 6.6516 27.38133 13.048 40.61333 12.57294 c 49.544 -1.71294 84.088 -43.96667 82.46933 -96.33707" fill="#2350a9" fill-rule="evenodd"/></g></g></svg>