<svg xmlns="http://www.w3.org/2000/svg" width="1000" height="1000" viewBox="0 0 1000 1000"><path fill="#fff" fill-rule="evenodd" d="M393.154 119.976c7.12 4.763 11.861 7.138 16.61 14.25 2.371 9.513 0 16.638-2.374 23.75L207.97 552.133c-2.389 4.745-4.764 7.111-7.139 9.472-11.865 11.875-30.879 11.875-47.476 11.875h-19l-30.87 99.735h35.606c-2.375 14.24 0 28.504 4.75 40.37l4.764 9.5c16.62 26.11 42.726 45.115 73.601 49.865 2.357 16.593 11.888 28.477 23.754 37.977l7.112 4.745c14.245 7.12 28.486 9.491 42.74 11.884 4.75 9.482 11.87 16.611 18.986 23.732l11.875 7.12c9.49 2.366 16.63 4.773 26.11 7.139 2.376 7.129 9.514 14.24 14.25 21.356 4.75 4.755 9.496 9.491 14.255 11.875 7.12 2.366 11.866 4.754 18.986 7.13 4.741 0 9.49 2.383 16.63 2.383h16.624c4.727 7.094 7.102 16.62 11.866 23.723 2.361 7.138 7.12 11.884 11.866 18.995 25.278 26.92 70.995 35.747 94.967 2.375 9.504-14.232 16.629-28.477 23.745-45.097h23.745c7.13-2.384 14.25-4.764 23.745-7.148l9.486-4.754c4.755-4.736 9.518-9.49 14.26-14.232 4.754-4.745 9.49-11.856 9.49-16.61 9.495-2.367 19.018-4.773 26.13-7.14 7.11-4.727 11.86-7.12 16.62-11.874 7.115-4.746 11.856-11.857 14.25-18.977 16.624-2.393 30.865-4.764 45.114-11.884l7.116-4.746c11.861-9.5 19-21.383 23.745-37.976 23.745-4.755 45.111-16.639 61.727-33.25l4.763-7.13c11.866-18.985 19-37.99 14.241-59.355h26.111l-28.49-99.735h-23.75c-9.495 0-16.616-2.384-26.107-4.746-2.37-49.86-7.12-99.708-16.615-147.198-2.38-16.63-7.116-30.888-11.88-45.115-9.5-16.62-21.37-23.75-35.624-28.486h-30.861L625.837 48.75c-9.486 0-21.366-2.362-30.847-4.741l-14.25 7.111c-33.268 16.63-73.61 11.875-109.23 0-16.63-4.736-30.875-14.227-47.49-21.366l-19-4.754-59.347 80.749c16.62 4.736 33.245 7.116 47.48 14.227m33.232 265.955 49.856-97.35 33.245 85.457c-26.11 2.384-49.842 7.139-75.958 11.893z" clip-rule="evenodd"/><path fill="#da363b" fill-rule="evenodd" d="M699.447 545.004c2.357 14.241 2.357 23.732 2.357 28.477-2.357 9.514-14.222 21.388-21.352 23.75-9.495 2.366-18.995 2.366-30.856 2.366 2.366 19.004-2.384 38-4.755 47.517h220.804L851.4 594.87c-11.866 0-21.366-2.375-30.839-4.763-19.004-2.375-30.883-14.24-40.383-28.504L773.044 545h-73.597" clip-rule="evenodd"/><path fill="none" d="M718.447 566.37"/><path fill="#63b048" fill-rule="evenodd" d="M732.692 369.293c-97.36 9.49-201.831 18.995-296.802 35.615-2.366 0-4.746 0-4.746 2.375l-7.13 9.5-64.105 125.85c-2.375 4.746-16.616 30.844-2.375 40.362 4.763 4.736 11.875 4.736 16.625 4.736 0-2.375 4.763-26.125 9.49-35.597 9.51-19.014 23.74-38.009 37.99-47.5 23.755-21.365 59.357-33.24 94.981-33.24 37.986 2.366 80.73 26.125 102.101 56.972 16.611 26.134 33.24 73.615 16.611 118.748h180.461l-19.004-71.249c-2.357-42.745-11.861-154.327-28.486-192.336-2.375-2.352-2.375-4.745-7.125-7.102-7.134-7.134-19-9.49-28.486-7.134" clip-rule="evenodd"/><path fill="none" d="M732.692 369.293"/><path fill="#da363b" fill-rule="evenodd" d="M412.135 48.759c11.88 4.75 35.62 16.615 49.884 21.379 45.101 14.236 97.337 18.986 135.327-4.764 0 0 9.5 2.384 11.857 2.384l97.356 303.933-166.212 16.602-59.351-156.716h-2.37L321.917 537.893c-4.736 16.611-7.125 28.477-7.125 35.588 4.76 9.514 14.255 21.388 23.741 23.75 11.88 2.366 21.38 2.366 33.25 2.366 0 19.004 4.745 38 7.138 47.517H134.355l16.616-52.245c11.884 0 23.745-2.375 33.24-4.763 21.375-2.375 33.25-14.24 45.115-28.504l197.068-396.488c19.004-45.143-11.866-66.486-42.74-75.999z" clip-rule="evenodd"/><path fill="none" d="M416.903 60.611"/><path fill="#293337" fill-rule="evenodd" d="M625.832 673.216c-9.486 14.24-16.629 23.74-21.365 26.107-33.24 35.615-85.467 52.235-135.342 37.99-54.606-14.236-80.721-64.101-80.721-64.101-73.615-2.375-149.591 0-223.193 0-4.754 0-4.754 0-4.754 9.5 0 40.37 42.74 68.846 80.722 68.846 0 45.125 40.365 52.245 73.605 52.245 0 28.495 26.12 37.981 56.99 37.981 0 26.134 23.741 40.37 45.125 40.37h33.227c9.513 28.513 14.245 59.356 56.994 68.856 28.495 0 42.727-42.718 49.857-68.856h35.61c21.38 0 45.111-14.236 45.111-40.37 28.49 0 56.99-9.49 56.99-37.981 33.245 0 73.61-7.12 73.61-52.245 37.996 0 80.731-28.477 80.731-68.847 0-9.5 0-9.5-7.12-9.5-73.61.005-142.462-2.374-216.077.005" clip-rule="evenodd"/><path fill="none" d="M625.832 673.216c-9.486 14.24-16.629 23.74-21.365 26.107-33.24 35.615-85.467 52.235-135.342 37.99-54.606-14.236-80.721-64.101-80.721-64.101-73.615-2.375-149.591 0-223.193 0-4.754 0-4.754 0-4.754 9.5 0 40.37 42.74 68.846 80.722 68.846 0 45.125 40.365 52.245 73.605 52.245 0 28.495 26.12 37.981 56.99 37.981 0 26.134 23.741 40.37 45.125 40.37h33.227c9.513 28.513 14.245 59.356 56.994 68.856 28.495 0 42.727-42.718 49.857-68.856h35.61c21.38 0 45.111-14.236 45.111-40.37 28.49 0 56.99-9.49 56.99-37.981 33.245 0 73.61-7.12 73.61-52.245 37.996 0 80.731-28.477 80.731-68.847 0-9.5 0-9.5-7.12-9.5-73.61.005-142.462-2.374-216.077.005"/><path fill="#293337" fill-rule="evenodd" d="M507.12 480.894c68.852 0 125.824 56.999 125.824 125.841 0 68.874-56.977 125.833-125.824 125.833-68.87 0-125.832-56.963-125.832-125.833 0-68.842 56.967-125.841 125.832-125.841" clip-rule="evenodd"/><path fill="none" d="M507.12 480.894c68.852 0 125.824 56.999 125.824 125.841 0 68.874-56.977 125.833-125.824 125.833-68.87 0-125.832-56.963-125.832-125.833 0-68.842 56.967-125.841 125.832-125.841"/><path fill="#fff" fill-rule="evenodd" d="M775.405 499.898c-4.736 0-18.981 18.977-21.36 18.977 0 0-2.358 0-4.737-2.384-7.13-2.366-21.38-14.25-30.861-11.857-7.143 2.362 0 7.12 2.366 7.12 11.88 9.5 21.366 18.978 33.231 30.88 0 0 2.375 0 2.375-2.366 4.755-9.532 14.246-28.513 23.75-35.634 2.37-2.393.004-7.111-4.764-4.736M692.304 454.76s-7.097 2.384-11.852 4.745c-2.361 2.385 2.375 9.523 4.755 9.523 4.736-2.375 9.486-2.375 11.865-4.764 4.728 0-.004-9.504-4.768-9.504M739.813 450.015c-4.755 0-14.25-2.375-18.996 0-4.754 2.375-2.365 11.875 2.366 11.875 11.875-2.385 23.75 0 28.504 0 9.491 0 16.616 2.374 18.982 0v-7.13c-9.495-4.745-23.736-4.745-30.856-4.745" clip-rule="evenodd"/><path fill="none" d="M739.813 450.015h-2.384"/><path fill="#fff" fill-rule="evenodd" d="m447.755 454.76 218.434-11.866v-18.99z" clip-rule="evenodd"/><path fill="none" d="m447.755 454.76 213.697-30.852"/><path fill="#fff" fill-rule="evenodd" d="M735.058 395.409c9.505 0 18.986 7.138 18.986 16.647 0 11.848-9.486 18.995-18.986 18.995-11.875 0-18.995-7.147-18.995-18.995 0-9.504 7.12-16.647 18.995-16.647M720.813 566.37c7.116 0 11.88 7.111 11.88 11.875 0 7.111-4.764 14.25-11.88 14.25-7.12 0-11.884-7.139-11.884-14.25 0-4.764 4.764-11.875 11.884-11.875M775.405 566.37c7.134 0 11.898 4.727 11.898 11.875 0 7.111-4.764 11.865-11.898 11.865-7.102 0-11.856-4.754-11.856-11.865 0-7.152 4.75-11.875 11.856-11.875M542.74 563.99c9.487 19.005 16.62 23.741 33.232 30.88v18.968c-7.116-2.353-18.99 0-26.12 2.393-23.723 9.49-33.232 30.879-28.5 59.374l-16.598 2.352c-2.379-9.509-9.518-18.995-16.62-23.75-4.763-2.361-7.138-4.736-14.259-7.093v-16.638c7.12 2.375 11.87 2.375 18.987 0 14.258-2.393 35.624-14.24 37.999-45.125 0-2.36-2.375-14.258-2.375-16.62zm-106.85-47.5c-9.505 7.148-14.25 11.875-26.125 28.513 0 0-7.111 9.5-7.111 14.241 2.365 0 7.11-2.366 9.486-2.366 19.009-7.12 33.258-18.986 33.258-45.124-2.388-2.366-4.768 2.37-9.508 4.736m33.24-18.968c-4.754 2.375-9.486 4.718-14.25 7.111 4.768 9.491 11.866 14.241 21.366 19.005v11.865c-26.111 4.764-45.097 26.102-40.352 56.99l-9.504 2.375c-4.75-7.138-7.12-9.513-9.487-14.25-7.138-4.754-11.888-7.138-19-9.522-7.124 23.777-9.495 47.509 0 71.24 0 4.782 4.75 16.63 7.112 19.013 16.625-9.5 26.13-23.75 26.13-45.115 0-4.745 0-9.5-2.38-14.25h9.49c4.76 9.51 7.139 14.25 14.26 19.005 4.745 4.736 9.508 7.093 14.226 7.093l-4.722 16.638c-7.143 0-16.63 2.393-23.768 4.755-11.866 7.12-26.116 18.977-26.116 23.74 2.384 4.746 14.25 16.611 16.63 19.004 14.245 11.857 26.11 21.366 45.11 26.125 14.26 4.736 21.366 4.736 23.746 4.736 4.754-7.13 9.504-21.365 9.504-33.258l21.366-2.366c2.374 7.12 9.495 11.866 11.865 11.866 4.764 4.754 19.01 9.5 23.754 9.5 7.125-4.746 21.38-14.241 26.125-18.996 7.116-9.5 18.973-23.722 23.736-35.615 0-18.986-14.25-30.852-28.486-37.977l2.37-21.366c11.862 0 21.353-2.375 33.232-11.874 0-2.375-2.361-14.26-4.736-16.63-9.505-23.731-26.116-45.115-52.245-59.374-9.5 2.393-21.366 16.648-23.754 28.513v21.375l-16.602 2.366c-2.398-2.366-4.75-7.111-7.13-7.111-4.759-7.13-16.625-14.241-28.486-16.63l-2.388-9.509c4.759 2.366 9.495 2.366 11.875 2.366 23.731-2.366 33.244-11.874 42.73-26.124 2.39-7.093-2.37-7.093-11.865-9.464-23.732-2.37-37.986-2.37-59.356 4.75" clip-rule="evenodd"/><path fill="none" d="M542.74 563.99c9.487 19.005 16.62 23.741 33.232 30.88v18.968c-7.116-2.353-18.99 0-26.12 2.393-23.723 9.49-33.232 30.879-28.5 59.374l-16.598 2.352c-2.379-9.509-9.518-18.995-16.62-23.75-4.763-2.361-7.138-4.736-14.259-7.093v-16.638c7.12 2.375 11.87 2.375 18.987 0 14.258-2.393 35.624-14.24 37.999-45.125 0-2.36-2.375-14.258-2.375-16.62zm-106.85-47.499c-9.505 7.148-14.25 11.875-26.125 28.513 0 0-7.111 9.5-7.111 14.241 2.365 0 7.11-2.366 9.486-2.366 19.009-7.12 33.258-18.986 33.258-45.124-2.388-2.366-4.768 2.37-9.508 4.736m33.24-18.968c-4.754 2.375-9.486 4.718-14.25 7.111 4.768 9.491 11.866 14.241 21.366 19.005v11.865c-26.111 4.764-45.097 26.102-40.352 56.99l-9.504 2.375c-4.75-7.138-7.12-9.513-9.487-14.25-7.138-4.754-11.888-7.138-19-9.522-7.124 23.777-9.495 47.509 0 71.24 0 4.782 4.75 16.63 7.112 19.013 16.625-9.5 26.13-23.75 26.13-45.115 0-4.745 0-9.5-2.38-14.25h9.49c4.76 9.51 7.139 14.25 14.26 19.005 4.745 4.736 9.508 7.093 14.226 7.093l-4.722 16.638c-7.143 0-16.63 2.393-23.768 4.755-11.866 7.12-26.116 18.977-26.116 23.74 2.384 4.746 14.25 16.611 16.63 19.004 14.245 11.857 26.11 21.366 45.11 26.125 14.26 4.736 21.366 4.736 23.746 4.736 4.754-7.13 9.504-21.365 9.504-33.258l21.366-2.366c2.374 7.12 9.495 11.866 11.865 11.866 4.764 4.754 19.01 9.5 23.754 9.5 7.125-4.746 21.38-14.241 26.125-18.996 7.116-9.5 18.973-23.722 23.736-35.615 0-18.986-14.25-30.852-28.486-37.977l2.37-21.366c11.862 0 21.353-2.375 33.232-11.874 0-2.375-2.361-14.26-4.736-16.63-9.505-23.731-26.116-45.115-52.245-59.374-9.5 2.393-21.366 16.648-23.754 28.513v21.375l-16.602 2.366c-2.398-2.366-4.75-7.111-7.13-7.111-4.759-7.13-16.625-14.241-28.486-16.63l-2.388-9.509c4.759 2.366 9.495 2.366 11.875 2.366 23.731-2.366 33.244-11.874 42.73-26.124 2.39-7.093-2.37-7.093-11.865-9.464-23.732-2.37-37.986-2.37-59.356 4.75"/><path fill="#d5dae0" fill-rule="evenodd" d="M528.486 749.192c-2.357 0-14.236 2.366-16.625 2.366 16.625 52.245 28.49 118.74 11.889 170.966 0 2.384 2.375-2.366 4.736-4.745 21.361-45.102 16.63-118.703 0-168.587" clip-rule="evenodd"/><path fill="none" d="M528.486 749.192c-2.357 0-14.236 2.366-16.625 2.366 16.625 52.245 28.49 118.74 11.889 170.966 0 2.384 2.375-2.366 4.736-4.745 21.361-45.102 16.63-118.703 0-168.587"/><path fill="#d5dae0" fill-rule="evenodd" d="M169.948 682.711c0 26.112 30.879 59.357 71.235 59.357h137.735v9.49h-128.24c0 30.88 28.482 42.763 64.11 42.763h94.972l2.37 9.482h-87.855c0 18.986 23.75 28.495 47.5 28.495h66.471v9.49H381.28c0 21.394 16.616 30.889 42.727 30.889h26.11c2.385-16.63 2.385-35.643 9.514-52.254l9.486 4.737c-14.25 49.874 0 87.869 23.732 106.855 14.259 9.5 16.625-40.36 16.625-49.856 0-47.481-16.625-85.476-26.111-132.967-37.982-7.12-73.61-26.11-99.726-66.476-4.718-.005-199.434-2.389-213.688-.005" clip-rule="evenodd"/><path fill="none" d="M169.948 682.711c0 26.112 30.879 59.357 71.235 59.357h137.735v9.49h-128.24c0 30.88 28.482 42.763 64.11 42.763h94.972l2.37 9.482h-87.855c0 18.986 23.75 28.495 47.5 28.495h66.471v9.49H381.28c0 21.394 16.616 30.889 42.727 30.889h26.11c2.385-16.63 2.385-35.643 9.514-52.254l9.486 4.737c-14.25 49.874 0 87.869 23.732 106.855 14.259 9.5 16.625-40.36 16.625-49.856 0-47.481-16.625-85.476-26.111-132.967-37.982-7.12-73.61-26.11-99.726-66.476-4.718-.005-199.434-2.389-213.688-.005"/><path fill="#d5dae0" fill-rule="evenodd" d="M630.578 682.711c-21.375 33.24-47.486 52.227-90.226 64.111 14.254 30.86 23.754 92.596 16.63 125.85h28.503c23.723 0 42.731-9.5 42.731-30.888h-56.985v-9.49h66.467c23.754 0 47.504-9.51 47.504-28.495h-87.856v-9.482h97.342c35.63 0 64.12-11.884 64.12-42.763h-128.23v-9.491h137.72c40.352 0 71.227-33.25 71.227-59.356-14.25.004-197.063.004-208.947.004" clip-rule="evenodd"/><path fill="none" d="M630.578 682.711c-21.375 33.24-47.486 52.227-90.226 64.111 14.254 30.86 23.754 92.596 16.63 125.85h28.503c23.723 0 42.731-9.5 42.731-30.888h-56.985v-9.49h66.467c23.754 0 47.504-9.51 47.504-28.495h-87.856v-9.482h97.342c35.63 0 64.12-11.884 64.12-42.763h-128.23v-9.491h137.72c40.352 0 71.227-33.25 71.227-59.356-14.25.004-197.063.004-208.947.004"/></svg>