<svg xmlns="http://www.w3.org/2000/svg" width="1000" height="1000" viewBox="0 0 1000 1000"><defs><clipPath id="a"><path d="M0 283.46h283.46V0H0Z"/></clipPath></defs><g clip-path="url(#a)" transform="matrix(4.41993 0 0 -4.41993 -125.588 1120.172)"><path fill="#00304f" d="m240.346 168.34-14.551-12.266 5.383 18.407-8.896-2.348c.285 4.279.429 9.554.429 15.782 0 9.15-.314 18.026-.498 22.499l-.027.652-.613.232c-3.577 1.36-9.877 3.45-19.123 5.46.453 1.53.728 3.155.757 4.816l-.002 11.366c-1.091 4.045-4.691 6.843-7.373 7.749l2.063 2.368s-29.453 11.933-84.206-2.135c-.931-.251-1.871-.514-2.812-.782l-2.85.606c-2.962.633-5.831.822-8.526.564-9.573-.911-16.732-7.681-17.404-16.462-.185-2.414.174-4.968 1.12-7.417-11.026-2.204-18.383-4.62-22.36-6.133l-.613-.232-.027-.652c-.186-4.483-.498-13.365-.498-22.49 0-9.654.34-17.035 1.023-21.935l.38-2.958c.386-3.102.903-7.275 1.79-12.301-3.084-2.777-5.926-5.795-8.467-9.07-3.78-5.006-6.695-10.264-8.666-15.624-2.217-5.744-3.234-11.365-3.021-16.711.283-7.191 2.658-13.213 7.056-17.894 4.244-4.522 10.119-7.57 17.465-9.057l2.928-.594 13.908 11.729c13.474-22.772 32.418-42.988 56.525-60.252l.577-.412.577.412c29.384 21.04 51.109 46.46 64.585 75.559a169 169 0 0 1 7.123 18.01l19.403 16.377z"/><path fill="#fff" d="M119.752 115.737c-.85-1.678-2.444-3.639-4.772-5.879-2.918 1.03-5.323 2.775-7.202 5.24-1.88 2.41-2.885 5.25-3.012 8.528-.092 2.297.4 4.34 1.48 6.142q1.62 2.694 4.1 3.344c1.481.395 3.073.117 4.78-.822 1.653-1.018 3.007-2.516 4.067-4.504 1.056-2.039 1.63-4.102 1.715-6.172.087-2.236-.3-4.2-1.157-5.877m94.364 22.408 8.06 27.567-11.537-3.046-5.398-18.5-14.454-12.183 8.058 27.568-11.534-3.048-4.935-16.93-16.885-14.277 8.06 27.567-11.537-3.044-6.068-21.21a13.2 13.2 0 0 0-3.625 3.185 12.7 12.7 0 0 0-2.199 4.297q-.696 2.38-.676 5.091c.015 1.804.332 3.657.943 5.563l-11.705-3.09c-1.07-4.875-.819-8.713.757-11.523q.287-.502.623-.963l-10.211-8.666q.993 3.134.872 6.238c-.078 1.957-.49 3.674-1.239 5.162q-.95 2.186-2.912 3.674c-1.185.847-2.644 1.451-4.386 1.801-1.73.183-3.487.04-5.252-.428-3.645-.96-7.17-2.824-10.572-5.582-3.289-2.783-5.892-5.998-7.824-9.647q-2.471-4.885-2.6-9.496L79.35 100.27c-4.346.711-7.96 1.87-10.848 3.492q-4.415 2.49-6.738 6.584-2.316 4.094-2.549 9.868c-.125 3.216.316 6.62 1.326 10.193 1.072 3.476 2.613 6.676 4.627 9.59q3.019 4.457 7.127 7.631 4.106 3.092 8.553 4.265 3.157.832 5.865.157c1.797-.398 3.39-1.283 4.77-2.665q1.972-1.916 2.88-5.247l-8.525-7.133 1.277-1.666 20.395 17.153-1.109 1.71-2.927-2.34q-2.731 3.543-7.872 4.71c-3.428.667-7.272.435-11.543-.697-4.45-1.175-8.85-3.354-13.213-6.54q-6.536-5.038-11.469-11.397c-3.443-4.562-6.05-9.263-7.818-14.082-1.93-4.986-2.809-9.752-2.629-14.289.224-5.69 2.023-10.324 5.388-13.908 3.364-3.582 8.096-5.994 14.188-7.23l27.546 23.234c.291-2.506 1.105-4.793 2.46-6.856 1.643-2.293 3.964-4.12 6.952-5.476l36.005 30.301c1.574-1.407 3.653-2.39 6.262-2.928a45 45 0 0 1 3.684-.463c1.244-.109 2.47-.209 3.687-.29l-3.73-12.66 4.525 1.196 25.437 21.514-4.67-16.028 4.529 1.198 22.98 19.402-4.178-14.434 4.527 1.198 22.98 19.395 1.067 3.598z"/><path fill="#c2c2c1" d="M197.824 118.026c-6.41-13.035-14.81-25.266-25.094-36.627-1.33 4.066-3.676 8.023-7.195 11.613-20.014 19.106-48.219 4.15-49.495-18.263a185 185 0 0 0-3.136 3.21c.193 1.85 1.125 7.893 5.455 14.776-4.418-5.018-6.432-10.848-7.08-13.059-6.527 7.028-12.322 14.395-17.36 22.086l-.523-.423-4.7-3.965c12.52-21.448 30.118-40.559 52.52-56.969 27.08 19.832 47.157 43.601 59.702 70.687 1.588 3.43 2.99 6.776 4.234 10.018l-6.707-1.772c-.209-.439-.402-.87-.62-1.312"/><path fill="#c2c2c1" d="m214.115 138.146 8.025 27.445c-3.816-.883-7.884-2.596-11.724-3.62l-5.176-17.805-14.455-12.183 7.871 26.924a454 454 0 0 1-11.725-3.7l-4.556-15.633-16.885-14.279 7.311 25.005a471 471 0 0 1-11.95-4.547l-4.906-17.144a13.2 13.2 0 0 0-3.625 3.184 12.7 12.7 0 0 0-2.199 4.297q-.678 2.325-.674 4.967a398 398 0 0 1-11.254-5.026c.205-1.463.615-2.768 1.248-3.9.19-.335.398-.653.623-.962l-10.213-8.666q.995 3.134.873 6.239a13.5 13.5 0 0 1-.567 3.42 294 294 0 0 1-10.464-5.465c.726-1.684 1.146-3.38 1.214-5.082.088-2.237-.298-4.201-1.156-5.877-.849-1.678-2.443-3.64-4.77-5.88-2.919 1.03-5.324 2.776-7.202 5.24a13.9 13.9 0 0 0-1.929 3.349c-3.545-2.317-6.846-4.45-9.797-6.783.322-2.573 1.143-4.848 2.46-6.856q2.468-3.441 6.952-5.476l36.005 30.3c1.575-1.406 3.653-2.39 6.262-2.927a45 45 0 0 1 3.684-.463c1.244-.11 2.47-.21 3.687-.291l-3.73-12.66 4.525 1.197L181.334 136l-4.67-16.027 4.53 1.197 22.98 19.403-4.178-14.434 4.527 1.197 22.981 19.395 1.066 3.599zM153.656 109.231s8.453-2.422 16.977-8.89c-6.68 7.703-16.977 8.89-16.977 8.89"/><path fill="#fff" d="M141.216 53.474c8.817 6.336 16.838 13.08 24.084 20.193.088.993.133 1.909.165 2.557.015.312.103.322.183.02.21-.803.313-1.395.381-1.864.273.274.557.54.83.815-.365 7.256-3.685 13.363-2.764 11.96 2.305-3.517 3.532-7.607 3.731-10.972l.076.078c-.3 9.086-5.19 16.817-14.379 20.236-.29.11-.502.209-.469.235.034.023-.177.125-.474.22-17.666 5.686-34.137-8.853-33.007-25.636 6.592-6.254 13.806-12.21 21.643-17.842"/><path fill="#848486" d="M198.445 119.339c-.209-.44-.402-.871-.62-1.312-5.536-11.26-12.564-21.917-20.997-31.936-7.098 14.756-19.879 17.775-19.879 17.775s13.195-4.51 18.52-19.375c-.286-.332-.559-.67-.85-1-1.582 4.73-6.156 8.98-6.156 8.98s3.912-5.278 4.785-10.5c-.676-.753-1.377-1.493-2.069-2.237-1.15 4.125-3.416 8.175-7.013 11.845-13.102 12.506-31.195 9.6-40.399-2.095-3.957-5.028-5.768-10.905-5.723-16.69.524-.508 1.041-1.018 1.574-1.521-.52 6.834 1.932 13.349 6.26 18.26-.092-.221-.135-.48-.096-.684.354-1.8.467-2.508.621-2.877.163-.387.167-.606.063-.877l-.014-.004-.316-.64a15 15 0 0 1-.652-1.313c-.006-.012-.004-.014-.008-.026l-.336-.677s.394.488.885 1.064c.33.377.755.873 1.211 1.348.54.562.82.455 6.79 1.32.412.057.767.317.96.688 1.697 3.36 2.404 4.748 2.703 5.345.142.284.474.635.761.772l3.034 1.256s-.327-.022-.778-.067c-.029 0-.049.004-.086 0a15 15 0 0 1-1.113-.148 9 9 0 0 1-1.08-.217c-.307-.078-.654.106-.91.297-.322.242-.998.609-2.659 1.562-.2.114-.489.155-.743.12 5.41 2.589 11.846 3.308 18.465 1.177.236-.076.412-.154.46-.195a1.16 1.16 0 0 1-.542-.191c-1.846-1.348-2.532-1.807-2.819-2.145-.203-.242-.476-.477-.793-.441a18 18 0 0 1-2.058.12c-.867.036-1.62.048-1.62.048l4.008-1.164c.3-.1.686-.403.858-.668L153 87.83a1.28 1.28 0 0 1 1.027-.576l5.494-.178c.375-.011.651-.113 1.094-.45q.172-.13.387-.315L161 86.31l2.234-2.094s-.092.268-.514.939a16 16 0 0 1-1.13 1.625l-.043.06-.002-.001c-.034.04-.065.086-.098.125-.197.246-.145.61-.05.916.126.408.161 1.195.34 3.299.003.035-.005.074-.007.109.381-.365.723-.713.977-1.008 4.11-4.787 5.072-10.722 5.236-13.943l-.127-.133a23.1 23.1 0 0 1-3.72 10.95c-.05.078-.087.12-.114.15l-.498.803 1.016-2.297.004.002c1.121-2.993 2.16-6.723 2.357-10.582-.283-.286-.557-.577-.844-.86-.017.125-.052.244-.072.369l.008.008-.469 2.516-.109-2.64c-.02-.294-.04-.606-.07-.942-7.245-7.121-15.268-13.87-24.089-20.207v-5.785c27.08 19.83 47.157 43.6 59.702 70.687q.426.922.836 1.838z"/><path fill="#848486" d="M144.273 63.274c.19-.875.25-1.297 1.18-5.684.064-.302.033.225.033.534-.008 4.453-.008 4.394-.012 5.228-.002.313.2.715.445.902 1.383 1.045 5.56 4.2 6.938 5.243.248.185.687.256.99.183 1.7-.402.264.024 4.543-1.199.3-.088.801-.277.526-.133-3.967 2.092-3.879 2.047-4.666 2.465-.274.147-.57.506-.668.8l-2.977 8.731-.016.04c-.007.02.084.271.207.556l.438 1.02.744 1.76 1.375 3.2-1.998-2.949c-.336-.48-.689-.99-1.045-1.502l-.58-.826c-.178-.254-.576-.465-.887-.465-5.84-.043-8.02-.056-8.852-.062-.312-.004-.734.168-.945.394l-.529.571.004.004-3.355 3.646.307-.506.047-.09 1.61-2.652.744-1.23.002.001.262-.43c.16-.267.213-.722.125-1.019-.496-1.664-1.952-6.689-2.482-8.5-.088-.297-.396-.62-.689-.724-3.59-1.016-5.903-2.059-5.903-2.059l6.286.842c.308.041.765-.072 1.02-.25 1.428-.992 5.76-3.99 7.194-4.975.258-.176.52-.56.584-.865M124.154 74.255q-.007.26-.012.516c.04 2.44-.033 3.414-.033 3.414s-.545-2.246-.748-3.528c-.084-.4-.184-.582-.644-.877-.354-.226-.997-.75-2.622-2.015-.168-.133-.3-.364-.365-.596a197 197 0 0 1 7.897-7.066c.216.873.51 2.064.93 3.746.103.402-.003.832-.274 1.144-3.832 4.407-4.104 4.559-4.13 5.262M91.431 99.683l-2.736-2.31c12.52-21.446 30.12-40.557 52.521-56.967v7.068c-21.148 15.199-37.827 32.709-49.785 52.209"/><path fill="#fcbc00" d="M95.686 194.617c-.767.694-2.548-.02-3.978-1.593-1.431-1.574-1.97-3.416-1.203-4.11.764-.697 2.545.016 3.977 1.59s1.972 3.416 1.204 4.113M68.968 184.645l.002.19zm.004 1.205q.002.045.002.09 0-.045-.002-.09m18.121 25.588c-9.609-1.832-16.465-3.858-20.748-5.355-.176-4.709-.393-12.018-.393-19.498 0-9.26.323-16.271.963-20.88l.377-2.918c.256-2.079.576-4.662 1.037-7.674.85.59 1.705 1.159 2.565 1.685.293.18.59.344.883.516-.692 3.899-1.129 7.192-1.459 9.695l-.395 2.896c-.572 3.875-.887 9.657-.943 17.215.033 5.787.134 13.933.25 17.414 4.674 1.347 10.982 2.869 19.045 4.23-9.713-20.533-10.299-39.307-10.299-39.307s2.47 19.314 12.6 37.467c.01-.008.603 1.061.728 1.285a19.4 19.4 0 0 0-4.21 3.229M98.202 188.307c-1.47.715-3.847-1.156-5.312-4.176-1.468-3.017-1.464-6.042.002-6.754 1.47-.715 3.847 1.155 5.316 4.173 1.465 3.02 1.465 6.044-.006 6.757M144.164 213.486l-2.11 1.17c-7.41-3.614-16.197-8.691-26.463-15.853 0 0 12.756 8.62 28.573 14.683M128.966 235.56c1.383.373 2.64.157 2.81-.477.171-.635-.808-1.457-2.189-1.826-1.383-.373-2.639-.157-2.809.48-.173.636.807 1.455 2.188 1.823m-30.153-23.396a27 27 0 0 1 2.322-.686l.02-.005c-4.93 5.27-6.078 9.614-6.236 12.15-.008.14-.023.282-.029.425l-3.662.637s1.515.684 3.863 1.345c.004.006.004.017.004.017 2.456.681 4.692 1.028 6.735 1.133q.06.005.121.006.513.023 1.006.023c.207.003.41.006.62.007a1 1 0 0 1 .107-.007c1.4-.026 2.834-.17 4.253-.498 1.158-.27 1.988-.563 2.578-.87 6.041-2.43 9.023-7.457 10.164-10.016-1.186.792-2.666 1.181-4.47 1.315.905-2.188 2.396-6.56 1.745-10.422 8.852 5.541 20.03 12.557 38.866 17.243-14.775-2.416-21.94-2.71-21.94-2.71l12.192 4.473c-8.012.8-28.674-2.764-28.674-2.764 32.106 10.936 54.365 9.527 54.365 9.527-5.24-1.146-16.964-5.652-16.964-5.652 22.166 2 33.312 8.802 39.355 5.874-2.426 3.874-10.654 4.861-10.654 4.861l2.027 2.335s-20.055 3.442-48.32-.596c-.036-.419-.714-.858-1.608-1.01-.945-.164-1.767.052-1.874.477a193 193 0 0 1-8.939-1.654c-.095-1.019-1.642-2.19-3.748-2.76-2.312-.62-4.416-.274-4.765.766a177 177 0 0 1-5.139-1.4 13.5 13.5 0 0 0 2.666-3.025 8 8 0 0 0 1.693.673c2.164.582 4.133.246 4.401-.753.265-.993-1.266-2.277-3.43-2.858a8 8 0 0 0-1.04-.204q-.238.36-.493.71c-.092.126-.192.244-.285.365a16 16 0 0 1-.682.814c-.123.133-.244.264-.373.395-.145.148-.287.297-.436.44-1.98 1.88-4.535 3.337-7.489 4.086a17.3 17.3 0 0 1-4.84.521c-15.63-.047-18.438-18.762-3.013-22.728M104.036 201.014c-.301.652-1.637.676-2.98.052-1.34-.624-2.18-1.66-1.877-2.312.302-.652 1.638-.676 2.978-.053 1.342.626 2.184 1.661 1.879 2.313M159.86 181.721s-.013-.007-.02-.009c-1.215-.826-1.89-1.769-2.29-2.598l-.054-.124c-.492-1.096-.487-1.956-.487-1.997l.002-.015c-3.213 6.782-.177 17.567 2.264 24.138l2.477 5.625c-5.424-2.095-9.909-4.735-10.614-5.158-.125-.112-.242-.239-.363-.356 4.02 1.38 6.586 1.978 6.586 1.978l-10.643-6.629a53 53 0 0 1-1.136-1.604c6.627 2.63 11.277 3.717 11.277 3.717l-14.53-9.053c-3.076-5.644-5.01-11.149-4.77-13.629 0 0 .06.02.141.041v-.002l.227.065c1.297.347 5.87 1.335 9.317-.946.13-.086.5-.408.724-.638 1.455-1.479 7.287-6.617 13.871-1.453 18.266 12.105 28.688 10.4 28.688 10.4s1.684 2.781.65 6.568c-2.867 7.662-24.943-3.37-31.318-8.32M101.864 194.694c-.937-1.033-1.293-2.241-.79-2.697s1.67.01 2.61 1.044c.938 1.033 1.29 2.24.789 2.698-.502.455-1.672-.012-2.61-1.045M216.42 187.56v.008zm.057 6.298c0 7.42-.217 7.49-.393 12.225-3.742 1.307-9.44 3.018-17.217 4.651a6 6 0 0 1-.24-.64l-.652-1.91c-.53-1.556-1.584-4.436-2.932-7.165.068-.115 1.445-2.483 1.19-6.587 5.566-8.465.785-16.722.785-16.722s5.85 8.414 1.064 16.999c0 0 .5 2.677-.283 6.15 0 0 2.672 4.78 3.248 6.37l.109.235c4.815-.986 8.819-1.998 12.043-2.928.139-4.285.262-9.567.262-14.895 0-8.8-.318-15.407-.941-19.635l-.063-.467 2.703.714.84.222c.316 4.22.477 9.607.477 16.103q0 1.869-.018 3.714.018 1.724.018 3.567M148.56 211.015c-9.219-4.278-21.317-11.247-37.063-22.48 0 0 19.473 13.555 41.653 20.444a22.6 22.6 0 0 0-4.59 2.036M109.269 202.752c-.963-.449-1.57-1.19-1.352-1.66.219-.47 1.178-.486 2.141-.039.965.45 1.568 1.193 1.35 1.662-.217.47-1.176.484-2.139.037"/><path fill="#fff" d="M118.3 147.167a.7.7 0 0 1-.018.329.38.38 0 0 1-.154.199.6.6 0 0 1-.264.09 1.6 1.6 0 0 1-.35-.001l-.68-2.185q.275.106.521.256.248.145.443.337c.13.127.236.272.328.433q.133.24.174.542m-3.39-1.244a.7.7 0 0 1 .02-.333.4.4 0 0 1 .157-.2.6.6 0 0 1 .268-.09 1.5 1.5 0 0 1 .35 0l.68 2.19a4 4 0 0 1-.523-.256 2.2 2.2 0 0 1-.445-.335 2 2 0 0 1-.332-.434 1.6 1.6 0 0 1-.176-.542m.483-1.62a3 3 0 0 0-.762-.031 1.2 1.2 0 0 0-.55.178.8.8 0 0 0-.305.4q-.09.256-.036.627.077.525.323.984.25.46.636.839.39.382.897.682.507.299 1.101.508l.116.367 1.127.299-.116-.37q.43.064.762.03.334-.035.547-.176a.83.83 0 0 0 .307-.4c.058-.17.074-.379.037-.625a2.9 2.9 0 0 0-.324-.984 3.6 3.6 0 0 0-.64-.84 4.7 4.7 0 0 0-.898-.683 6 6 0 0 0-1.09-.506l-.119-.378-1.128-.3zM120.636 146.146l.04.005.064.012.07.017q.031.006.043.009a.8.8 0 0 1 .203.087.56.56 0 0 1 .176.167l.431.605-.584 2.936 1.246.329.327-1.887 1.672 2.414 1.248.329-3.42-4.858a2.8 2.8 0 0 0-.35-.399 3 3 0 0 0-.81-.552 2.5 2.5 0 0 0-.659-.199 1 1 0 0 0-.189-.016ZM127.966 150.896l-1.36-.36.3.984 3.857 1.02-.305-.988-1.359-.357-1.23-3.946-1.133-.3ZM132.815 150.536l-.363-1.17.8.21a1.3 1.3 0 0 1 .54.31q.112.109.193.248a.8.8 0 0 1 .103.292.36.36 0 0 1-.015.188.24.24 0 0 1-.094.113.3.3 0 0 1-.158.044.7.7 0 0 1-.205-.024Zm1.15 1.206q.359.095.62.071a.8.8 0 0 0 .425-.145.63.63 0 0 0 .225-.329c.039-.137.049-.296.02-.473a1.8 1.8 0 0 0-.147-.514 2.4 2.4 0 0 0-.273-.479 3 3 0 0 0-.38-.428 3.4 3.4 0 0 0-.453-.37 4 4 0 0 0-.503-.288 3 3 0 0 0-.53-.193l-1.962-.518 1.537 4.933 3.314.875-.305-.987-2.181-.575-.25-.802ZM137.886 151.915a1.1 1.1 0 0 1 .02-.486.7.7 0 0 1 .205-.335.7.7 0 0 1 .365-.162q.221-.036.502.038.24.064.478.188.24.12.46.29c.148.11.284.235.417.373.13.139.246.282.346.438q.157.228.258.468.102.247.135.49.04.276-.02.487a.7.7 0 0 1-.205.336.7.7 0 0 1-.369.163 1.2 1.2 0 0 1-.506-.042 2.5 2.5 0 0 1-.705-.316 3.5 3.5 0 0 1-.639-.53 3.2 3.2 0 0 1-.49-.665 2.1 2.1 0 0 1-.252-.735m-1.16-.397q.058.381.226.768.172.39.428.756.26.368.592.704.327.333.703.61.375.274.781.48.404.204.815.313.494.13.885.075.392-.054.655-.26c.17-.137.297-.32.371-.55a1.74 1.74 0 0 0 .051-.79 3 3 0 0 0-.225-.767 4.6 4.6 0 0 0-.433-.757 5.873 5.873 0 0 0-2.078-1.801 4.3 4.3 0 0 0-.812-.31 2.2 2.2 0 0 0-.887-.076 1.3 1.3 0 0 0-.65.262 1.13 1.13 0 0 0-.37.55 1.74 1.74 0 0 0-.052.793M147.902 156.14l-1.98-.522-.565-1.823-.03-.106-.24-.764a2.4 2.4 0 0 0-.326-.665 2.8 2.8 0 0 0-.463-.509 2.8 2.8 0 0 0-1.087-.57 2 2 0 0 0-.439-.072l.487 1.005q.015.004.043.006l.065.012c.023.005.05.008.07.012q.033.01.045.012a.6.6 0 0 1 .293.174q.123.135.193.353l.254.816.877 2.811 4.24 1.12-1.535-4.934-1.129-.297zM152.74 156.032l-.922-.243-.45-1.447.923.244q.155.04.31.146.158.106.285.242c.088.097.16.195.22.306a1 1 0 0 1 .111.323.6.6 0 0 1-.01.22.33.33 0 0 1-.088.153.33.33 0 0 1-.16.074.6.6 0 0 1-.219-.018m.371 1.005q.335.09.594.06a.84.84 0 0 0 .426-.16.7.7 0 0 0 .236-.349c.043-.15.053-.325.021-.528a2.3 2.3 0 0 0-.27-.794 3.4 3.4 0 0 0-.534-.72 3.6 3.6 0 0 0-.72-.573 3 3 0 0 0-.83-.36l-2.11-.557 1.535 4.933 1.136.3-.47-1.51zM156.734 159.368l1.135.299-.625-2 2.13.562.622 2 1.14.3-1.533-4.932-1.14-.3.603 1.947-2.127-.561-.603-1.947-1.137-.301zM166.059 157.301l1.139.3 1.53 4.932-1.134-.3Zm-1.49 1.84-.924-.244-.451-1.447.924.244q.154.041.312.147a1.5 1.5 0 0 1 .502.547.9.9 0 0 1 .11.322.55.55 0 0 1-.006.22.36.36 0 0 1-.088.153.3.3 0 0 1-.162.075.5.5 0 0 1-.217-.018m.369 1.006q.338.089.596.058a.8.8 0 0 0 .423-.159.68.68 0 0 0 .235-.349q.07-.224.025-.528a2.4 2.4 0 0 0-.273-.795 3.4 3.4 0 0 0-.533-.718 3.6 3.6 0 0 0-.721-.574 3 3 0 0 0-.83-.36l-2.108-.557 1.536 4.932 1.136.301-.47-1.51zM174.936 165.695a2.3 2.3 0 0 0-.235-.457 2.35 2.35 0 0 0-.786-.724 2.2 2.2 0 0 0-.533-.215 1.3 1.3 0 0 0-.48-.052.48.48 0 0 0-.304.125.44.44 0 0 0-.132.277c-.017.115-.006.252.03.403l.767.247a.6.6 0 0 1 .024-.13.2.2 0 0 1 .05-.087.2.2 0 0 1 .107-.038.998.998 0 0 1 .369.097q.078.044.145.104a1 1 0 0 1 .12.132q.056.076.117.17zm-3.956-2.568 1.13.298-.92-2.949 3.245 3.563.99.26-1.533-4.93-1.136-.3.92 2.956-3.248-3.57-.982-.26zM180.727 163.428l2.654 2.97 1.325.35-2.395-2.647.936-2.264-1.342-.355-.594 1.579-1.06-1.168-.286-.923-1.134-.3 1.533 4.933 1.134.3ZM189.496 167.103l-1.979-.522-.564-1.823-.03-.105-.243-.765a2.3 2.3 0 0 0-.325-.664 2.77 2.77 0 0 0-1.798-1.133 2 2 0 0 0-.192-.018l.49 1.004a.2.2 0 0 0 .041.006l.067.013.068.013q.035.007.047.008a.64.64 0 0 1 .291.178.9.9 0 0 1 .193.351l.256.816.873 2.811 4.242 1.12-1.533-4.932-1.13-.299zM192.176 164.999q.006 0 .037.007.029.004.065.01c.025.007.046.01.068.018a.75.75 0 0 1 .25.095q.098.058.174.166l.429.606-.582 2.935 1.248.33.327-1.887 1.67 2.413 1.248.33-3.42-4.857a2.7 2.7 0 0 0-.35-.4 3.3 3.3 0 0 0-.394-.32 3 3 0 0 0-.416-.231 3 3 0 0 0-.411-.15 2 2 0 0 0-.246-.05 2 2 0 0 0-.191-.016zM199.059 167.991l-.361-1.17.797.211a1.26 1.26 0 0 1 .54.31q.113.11.194.247a.8.8 0 0 1 .103.293.4.4 0 0 1-.015.188.24.24 0 0 1-.094.113.33.33 0 0 1-.158.046.8.8 0 0 1-.207-.027Zm1.15 1.208q.357.094.62.07a.8.8 0 0 0 .425-.145.63.63 0 0 0 .223-.329q.064-.208.023-.474a2 2 0 0 0-.146-.513 2.964 2.964 0 0 0-.652-.908 4 4 0 0 0-.457-.37 4 4 0 0 0-.504-.288 3 3 0 0 0-.528-.192l-1.961-.519 1.534 4.933 3.316.875-.307-.987-2.18-.575-.247-.8ZM155.393 228.423c-.418.091-.87.154-1.332.202a13 13 0 0 0-.92-1.955q.9.089 1.742.161c.264.492.434 1.03.51 1.592m-3.297.333c-1.961.04-4.023-.125-5.646-.312.015-.218.052-.433.113-.655a4.36 4.36 0 0 1 1.059-1.872c1.42.256 2.87.458 4.269.615.139.81.2 1.551.205 2.224M164.1 207.56q-.031 0-.062-.003s.027-.002.062.003m25.66 6.171c-3.736-4.899-8.972-4.613-8.972-4.613l.027-.009c-5.313.2-10.076.965-16.668-1.54-.02-.007-.031-.006-.047-.009 15.148 1.183 10.86-9.85 10.86-9.85 1.298 1.163 2.439 2.843 3.277 4.271 1.707 3.045 2.629 6.135 2.629 6.135.2-1.693-.082-3.642-.424-5.19l6.51 1.226s.453.084 1.453 1.123a23 23 0 0 0-1.075-1.88l-.26-2.942c2.19 2.355 4.74 9.83 4.74 9.83-3.962-.392-1.65 3.974-2.05 3.448m-.494-16.972a7 7 0 0 1-.135.826c-.006.045-.02.082-.027.126a10 10 0 0 1-.197.75c-.375-1.247-1.084-2.09-1.13-2.146l-.167-.2-.25.034c-2.45.281-4.447.218-5.953-.183v-.002c-.91-.244-1.502-.572-1.893-.865l-1.795-1.89.235 1.474-.01.004c.037.16.058.308.084.46l.064.403c.209 1.54.002 2.661-.254 3.388l-.017-.04c-.14-.453-.31-.89-.496-1.318-.07-.159-.15-.31-.223-.465a14.67 14.67 0 0 0-.732-1.35c-.141-.224-.29-.449-.438-.67-.13-.185-.254-.37-.387-.548-.136-.184-.283-.354-.423-.534a21 21 0 0 0-2.102-2.23 3 3 0 0 0-.164-.154 28.053 28.053 0 0 0-2.641-2.116c3.86 1.887 8.14 3.758 11.858 4.823 2.73.566 5.123.64 6.769-.069l.065.015c.12.23.203.47.263.721l.002.001c.139.552.157 1.148.094 1.74zm5.106 27.656c-1.26-1.765-1.553-5.073-2.18-7.248-1.873-6.528 4.49-2.353 4.519 4.688.006 1.506-2.34 2.56-2.34 2.56m-37.148-10.432-.426.235c3.403 1.254 11.998 3.916 23.823 3.913 0 0-14.706 3.506-27.725-1.746l-2.356 1.31s7.274 3.552 15.973 5.005c3.819.638 8.078.64 12.416-.144 0 0-2.01 1.34-4.756 2.568 8.137 1.486 15.219 1.038 15.117-5.086 0 0-.828-5.472-5.753-6.515-3.358-.709-8.97-.18-14.088-.91-2.39-.34-6.852-2.043-12.225 1.37"/><path fill="#e30613" d="M172.252 193.872c.029.03.053.072.08.11-14.721 3.089-15.187-6.804-13.769-8.822.136-.26.296-.481.472-.686 2.141 1.387 3.914 2.467 6.971 3.944.56.405 6.109 5.272 6.246 5.454"/></g></svg>