<svg xmlns="http://www.w3.org/2000/svg" width="1000" height="1000" viewBox="0 0 1000 1000"><path fill="#fff" stroke="#005387" stroke-linejoin="round" stroke-miterlimit="1" stroke-width="3.7230229200000005" d="M137.6 411.692c36.005-12.252 71.792-75.111 63.803-137.455H798.59c-7.969 62.335 27.813 125.166 63.808 137.417z"/><path fill="#005387" d="M500 973.138C254.141 841.694 143.335 527.282 137.6 411.692l724.8-.036C856.664 527.242 745.856 841.651 500 973.138"/><path fill="#00a1e4" d="M454.7 945.908c-32.928-22.05-63.096-47.396-90.6-74.887V411.692h90.6zM273.51 760.435c-38.715-57.318-68.725-117.11-90.6-172.247V411.692h90.6zM817.09 588.152c-21.875 55.137-51.887 114.94-90.6 172.254V411.692h90.6zM635.901 871.004c-27.504 27.49-57.672 52.84-90.602 74.904V411.692H635.9z"/><path fill="#fff" stroke="#005387" stroke-linejoin="round" stroke-miterlimit="1" stroke-width="3.7230229200000005" d="M798.599 274.237c3.704-28.893 16.799-57.68 43.648-81.265L777.973 70.148c-14.319 6.284-27.09 8.72-38.826 8.528-50.846-.83-82.214-51.046-135.562-51.805-27.72-.395-60.344 10.94-103.587 52.797v194.57z"/><path fill="#005387" d="M695.082 85.617c34.984 0 63.524 28.538 63.524 63.525 0 34.99-28.54 63.527-63.524 63.527l-22.264.019v45.365H654.67v-63.574l40.415.04c24.992 0 45.374-20.385 45.374-45.377 0-24.989-20.382-45.376-45.374-45.376l-40.415.002v-.002h-18.152v154.287h-18.15l-.012-172.472z"/><path fill="#005387" d="M695.082 121.917c14.992 0 27.222 12.229 27.222 27.225 0 13.902-10.51 25.425-23.991 27.031h-43.644l-.01-54.207z"/><path fill="#fff" d="M695.082 142.088c4.998 0 9.078 3.822 9.078 8.506 0 4.686-4.08 8.51-9.078 8.51l-22.072-.05.014-16.966z"/><path fill="#fff" stroke="#005387" stroke-linejoin="round" stroke-miterlimit="1" stroke-width="3.7230229200000005" d="M201.401 274.237c-3.702-28.893-16.799-57.68-43.65-81.265l64.274-122.824c14.318 6.284 27.09 8.72 38.826 8.528 50.846-.83 82.215-51.046 135.563-51.805 27.72-.395 60.345 10.94 103.586 52.797v194.57z"/><path fill="#005387" d="M298.51 330.403c-.457-3.685-1.549-6.473-3.256-8.352-1.72-1.896-4.04-2.839-6.988-2.839-4.67 0-8.255 2.107-10.773 6.322-2.51 4.23-3.77 10.22-3.77 18 0 7.47 1.238 13.221 3.712 17.265q3.725 6.067 10.611 6.069c3.335 0 6.004-1.147 8.02-3.444 2.025-2.293 3.284-5.696 3.797-10.205h19.028c-.662 10.006-3.592 17.424-8.81 22.256-5.208 4.83-13.01 7.245-23.379 7.245-9.995 0-17.778-3.35-23.349-10.062q-8.373-10.05-8.372-28.09c0-13.087 2.883-23.228 8.66-30.404 5.77-7.165 13.98-10.755 24.623-10.755 9.312 0 16.385 2.282 21.22 6.833 2.548 2.32 4.499 5.122 5.832 8.38 1.437 3.48 2.147 7.403 2.147 11.78h-18.954zm24.457 51.025v-76.882h18.075v28.819l18.882-28.82h22.097l-21.435 32.996 24.861 43.887h-22.75l-21.653-39.094v39.094zm107.674-60.83V336.7h10.212q3.643 0 5.372-2.001 1.74-2.024 1.74-6.126c0-2.614-.596-4.587-1.773-5.952q-1.767-2.025-5.337-2.026H430.64zm-18.078 60.83v-76.882h32.993q10.866 0 15.783 5.524c3.287 3.685 4.917 9.567 4.917 17.667 0 8.095-1.717 14.409-5.17 18.915-3.456 4.526-8.252 6.781-14.401 6.781H430.64v27.995zm73.715-37.788q-.002 11.73 3.697 17.612c2.472 3.922 6.158 5.886 11.068 5.886 4.936 0 8.668-1.937 11.207-5.807q3.809-5.82 3.808-17.173c0-8.233-1.28-14.516-3.846-18.866-2.564-4.334-6.334-6.511-11.32-6.511-4.591 0-8.174 2.175-10.75 6.51-2.58 4.353-3.864 10.462-3.864 18.35m13.886 39.082c-10.668 0-18.759-3.403-24.273-10.195-5.524-6.789-8.278-16.732-8.278-29.833 0-12.678 2.919-22.431 8.765-29.262 5.849-6.817 14.22-10.233 25.138-10.233 10.787 0 19.02 3.441 24.694 10.312 5.675 6.889 8.515 16.892 8.515 30.025 0 12.821-2.924 22.546-8.766 29.204s-14.446 9.982-25.795 9.982m55.617-1.294v-59.992h-20.009v-16.89h58.365v16.89h-20.02v59.992zm58.083-37.788q-.001 11.73 3.695 17.612 3.706 5.885 11.068 5.886c4.938 0 8.67-1.937 11.207-5.807 2.537-3.88 3.81-9.605 3.81-17.173 0-8.233-1.28-14.516-3.848-18.866-2.567-4.334-6.334-6.511-11.32-6.511-4.59 0-8.177 2.175-10.75 6.51-2.579 4.353-3.862 10.462-3.862 18.35m13.885 39.082c-10.669 0-18.76-3.403-24.275-10.195-5.525-6.789-8.277-16.732-8.277-29.833q0-19.016 8.762-29.262c5.852-6.817 14.225-10.233 25.145-10.233 10.787 0 19.018 3.441 24.692 10.312 5.677 6.889 8.51 16.892 8.51 30.025 0 12.821-2.92 22.546-8.761 29.204-5.845 6.658-14.447 9.982-25.796 9.982m57.257-62.125v16.104h10.212c2.425 0 4.22-.668 5.372-2.001q1.735-2.024 1.736-6.126c0-2.614-.595-4.587-1.77-5.952q-1.766-2.025-5.336-2.026h-10.214zm-18.078 60.83v-76.881h32.99q10.867 0 15.784 5.524c3.287 3.685 4.916 9.567 4.916 17.667 0 8.095-1.714 14.409-5.167 18.915-3.453 4.526-8.252 6.781-14.401 6.781h-16.045v27.995zm68.866-47.296c4.865 0 8.83 3.966 8.83 8.827 0 4.866-3.965 8.828-8.83 8.828-4.862 0-8.827-3.963-8.827-8.828-.001-4.86 3.965-8.827 8.827-8.827m-339.59 0c4.862 0 8.83 3.966 8.83 8.827 0 4.866-3.968 8.828-8.83 8.828-4.864 0-8.828-3.963-8.828-8.828 0-4.86 3.964-8.827 8.828-8.827M157.753 192.972l42.343-80.915H500v80.915z"/><path fill="#ee3124" stroke="#005387" stroke-miterlimit="1" stroke-width="3.7230229200000005" d="M201.401 274.237c-3.702-28.893-16.799-57.68-43.65-81.265h342.247v81.265z"/><path fill="none" stroke="#000" stroke-miterlimit="1" stroke-width=".9745885200000001" d="m654.439 110.51-.864.577M621.355 88.113v-.288M666.145 149.523h.868M580.897 87.825v.288"/><path fill="#fff" stroke="#000" stroke-miterlimit="1" stroke-width=".9745885200000001" d="M601.416 216.128c36.263 0 65.887-29.617 65.887-65.886 0-36.408-29.622-65.887-65.887-65.887-36.269 0-65.887 29.48-65.887 65.887 0 36.268 29.618 65.886 65.887 65.886z"/><path fill="none" stroke="#000" stroke-miterlimit="1" stroke-width=".9745885200000001" d="m601.187 177.31-.337 17.95M618.32 201.693l-17.46-6.552-16.037 6.176M575.216 113.632l10.121 14.417M556.834 119.172l18.266-5.595 10.297-15.733M574.874 158.43l-17.103 5.574M557.615 182.82l.236-19.032-10.892-14.109M617.218 128.181l11.123-15.753M645.83 118.315l-17.928-5.094-10.692-14.979M644.396 164.045l-17.702-6.065M645.058 182.18l-.75-18.022 10.67-15.177"/><path stroke="#000" stroke-miterlimit="1" stroke-width=".9745885200000001" d="M617.595 127.557h-32.652l-10.399 30.92 26.728 19.505 26.293-19.794zm3.475 85.564c13.592-4.275 25.31-12.853 33.55-24.12l-9.572-7.405-27.162 19.797zm46.218-63.73c-.18-14.45-5.027-27.771-13.088-38.547l-9.152 7.178 9.683 31.209zm-45.881-61.928a65.6 65.6 0 0 0-19.991-3.108 65.7 65.7 0 0 0-20.607 3.306l4.134 11.145h32.652zm-73.32 24.131c-7.893 10.857-12.558 24.204-12.558 38.648v.123l11.847-.264 10.403-31.21zm-.065 77.156c8.084 11.162 19.579 19.714 32.918 24.105l4.003-11.75-27.333-19.425z"/><path stroke="#000" stroke-miterlimit="1" stroke-width=".9745885200000001" d="M617.595 127.557h-32.652l-10.4 30.922 26.73 19.503 26.292-19.794-9.97-30.63"/><path fill="none" stroke="#000" stroke-miterlimit="1" stroke-width=".9745885200000001" d="M621.07 213.12c13.592-4.274 25.31-12.852 33.55-24.12"/><path fill="none" stroke="#000" stroke-miterlimit="1" stroke-width=".9745885200000001" d="m654.62 189-9.572-7.406-27.162 19.797 3.184 11.73M667.288 149.392c-.18-14.45-5.027-27.772-13.088-38.548"/><path fill="none" stroke="#000" stroke-miterlimit="1" stroke-width=".9745885200000001" d="m654.202 110.846-9.154 7.176 9.683 31.209 12.557.16M621.407 87.463a65.6 65.6 0 0 0-19.991-3.108 65.7 65.7 0 0 0-20.607 3.306"/><path fill="none" stroke="#000" stroke-miterlimit="1" stroke-width=".9745885200000001" d="m580.809 87.66 4.134 11.146h32.652l3.812-11.343M548.087 111.594c-7.893 10.857-12.558 24.204-12.558 38.648v.123"/><path fill="none" stroke="#000" stroke-miterlimit="1" stroke-width=".9745885200000001" d="m535.53 150.363 11.846-.264 10.404-31.21-9.693-7.295M548.022 188.75c8.084 11.162 19.579 19.714 32.918 24.105M580.94 212.854l4.003-11.75-27.333-19.426-9.588 7.072"/><path fill="none" stroke="#005387" stroke-linejoin="round" stroke-miterlimit="1" stroke-width="3.7230229200000005" d="M500 973.138C254.141 841.694 143.335 527.282 137.6 411.692l724.8-.036C856.664 527.242 745.856 841.651 500 973.138z"/></svg>