<svg xmlns="http://www.w3.org/2000/svg" width="1000" height="1000" viewBox="0 0 1000 1000"><g transform="translate(-16.122 -165.315)scale(1.67844)"><path fill="#9b7d0d" d="M413.242 346.93c-4.523-22.014-18.581-92.519-19.475-97.91-.182-.72-.302-.676-.361-.811-.231-.282-.339-.362-.577-.587-2.818-2.578-18.399-15.423-21.955-18.352.268-2.348.958-8.476 1.137-10.603.226-2.719.219-6.986.436-11.68.193-4.501 1.054-6.868 1.287-11.831.151-3.345.308-6.607.308-9.869 0-1.351-.026-2.7-.09-4.054-.228-4.64-1.082-10.463-1.074-14.114-.017-4.167-1.314-10.043-1.289-12.689-.019-3.397-1.133-7.484-1.974-11.737-1-4.952-4.697-7.923-5.387-9.179-.94-1.43-2.327-2.096-3.539-2.654-1.185-.515-2.409-.904-2.534-.984-1.544-.71-3.099-.577-4.42-.612-.998.012-1.471.153-1.895.141-.342-.002-.822-.046-1.738-.296a5.8 5.8 0 0 0-1.537-.205 6.85 6.85 0 0 0-3.429.987l-2.684-1.132-2.55-4.313-.047-.066c-.292-.435-6.693-8.668-29.852-10.596a109 109 0 0 0-9.257-.396c-14.722.003-25.56 3.048-31.343 5.472-3.914 1.682-7.328 5.563-9.981 9.013a69 69 0 0 0-3.315 4.778 6.3 6.3 0 0 0-2.389-.902 4 4 0 0 0-.581-.035 6.3 6.3 0 0 0-2.909.812c-.698-.395-1.684-.755-2.966-.789-.033-.004-.07-.002-.099-.002h-.042a6.1 6.1 0 0 0-3.528 1.235 5 5 0 0 0-2.161-.637h.001c-.131-.01-.205-.006-.205-.006-1.946.06-3.202 1.193-4.153 2.083a14 14 0 0 0-1.201 1.363c-1.046.452-2.968 1.664-4.713 4.664-1.247 2.149-2.499 5.897-3.55 9.265-1.032 3.345-1.79 6.21-1.794 6.224-.024.079-2.689 8.979-2.689 24.856 0 5.411.311 11.63 1.138 18.588 2.439 20.528 7.371 28.766 9.932 31.766l-22.095 19.269-10.78 96.835c-46.522 33.188-76.858 87.604-76.859 149.109 0 101.091 81.946 183.039 183.036 183.041 101.092-.002 183.036-81.949 183.038-183.039-.001-61.698-30.525-116.262-77.296-149.421"/><path fill="#dac792" d="m250.85 321.336-16.23-19.839-5.418 25.427-2.58-4.517.678-8.971-.032.155-9.679-16.992 4.878 37.637a182 182 0 0 1 28.92-12.148zM293.08 311.654l-2.427 2.428a184 184 0 0 1 8.688-.583l-.021-.341z"/><path fill="#dac792" d="M409.15 344.118c-5.034-24.655-17.222-85.834-18.686-93.988a36 36 0 0 0-.542-.482 188 188 0 0 0-2.593-2.224c-2.152-1.822-5.023-4.22-7.895-6.603-5.74-4.768-11.46-9.476-11.473-9.484l-.724-.598.107-.929c0-.006.209-1.829.456-4.055l-2.991 4.384 12.61 10.896-7.73-2.035-7.725-5.317-.689 1.38 6.206 4.997-5.468 1.694-5.269-2.903-.86.752 3.01 3.011-9.246-2.473-3.55-5.484.009 1.613 1.551 3.791-1.182.108-2.852-4.437-1.397-6.667-1.83-20.433-3.598 8.506.372 27.196-1.184 2.151 1.291.861-1.291 5.592-2.58-.538s-1.829-1.936-2.474-3.763c-.645-1.829-.859-11.185-.752-14.733s-.107-10.431-.107-10.431-2.366 3.548-1.937 1.72c-.63-10.962.663-20.57 3.871-28.82 1.52-5.468 1.232-12.889-1.721-17.53 0 0-1.236.652-2.294.789-1.044-2.413-2.485-3.765-4.031-4.452.944-.012 2.397-.038 3.959-.1 1.781-.071 2.148-.002 2.189.054.147-.212.853-4.629.81-5.975-1.296-2.23-8.053-8.059-8.053-8.059l3.011 1.396 6.022 3.442 3.979 4.946-.54-3.764-1.287-.43 1.827-.215s-1.292-4.625-1.4-5.376c-.106-.753-1.396-.109-1.396-.109l-1.29.322-1.076-1.828-2.257-3.655-3.119-.753-2.152-2.258.538-2.796.431 1.398.97.537 2.687-.644s.54-1.4.646 0c.107 1.397-1.186 2.15-1.186 2.15l1.4.753s.753-1.291.646-.753.86 1.613.86 1.613 1.396.43 1.934.215c.539-.215 1.507-.861 1.507-.861s-.647 1.399-.108 2.582c.54 1.182 2.367.321 2.367.321l.43-4.624 1.613 4.086.751 10.646 6.563-.213 1.075 4.839.645-4.302s1.719 2.473 2.473 8.603c.753 6.129 1.184 24.519 1.184 24.519l-.215 14.518.967 1.721 1.507-2.151-.86-.645.107-7.205s.214-2.043 1.397-1.721 1.397.108 1.397.108.752.86 3.012 1.505 1.507-1.505 1.507-1.505 2.149 1.505 4.299 1.828c2.153.322 1.185-1.184 3.334-.323.611.245 1.284.153 1.933-.095l.004-.09c.03-.636.071-1.23.118-1.791l-.441.148-.645-1.828-2.365 2.581-.753-1.077 1.075-.86 1.721-1.505 1.647.347c.078-.596.161-1.164.244-1.722l-.492-.776h-2.69l-2.15-.86s-1.076.538-2.26.538-3.226-.753-3.226-.753l-2.903.753-1.077-.86-2.04-3.334 3.761 1.398-.967 1.828 3.013-1.29 3.332.967 2.904-.86 1.183.753 3.861.827c.078-.537.149-1.083.215-1.651l-1.066-.575-.063-.641-.365.426-3.012.323-6.022-1.399-3.979-.322-3.44-3.227 1.397-3.979 2.366 2.797 2.689-.216 4.514-.537 6.346-.538 1.086-.528c.044-1.382.075-2.75.075-4.103 0-1.307-.023-2.602-.086-3.889-.207-4.398-1.071-10.188-1.078-14.28.017-3.575-1.266-9.311-1.289-12.689.017-2.625-1.023-6.71-1.904-11.061-.718-3.653-3.474-5.841-4.933-8.028-.137-.292-1.007-.917-2.002-1.324-1.018-.453-1.946-.707-2.688-1.059-.168-.151-1.624-.286-2.88-.249-.486-.013-.925.126-1.895.139-.702.002-1.535-.112-2.65-.416a2.4 2.4 0 0 0-.625-.084c-.935-.027-1.937.653-2.073.784l-.002.002-.813.724-5.611-2.366-.075-.127-1.957-.055-15.056-5.915-16.992-3.12 12.585 1.184 14.839 4.409 4.84 2.043.952.119-2.162-3.658-.141-.16a11 11 0 0 0-.826-.79c-.799-.689-2.122-1.669-4.158-2.725-4.066-2.114-10.988-4.535-22.202-5.482a106 106 0 0 0-8.967-.38c-14.234-.004-24.679 2.962-30.011 5.203-3.073 1.213-6.707 5.369-9.272 8.858 1.783-.755 14.781-6.182 25.226-8.338-1.918.596-4.258 1.463-7.049 2.73-11.613 5.269-16.13 10.323-16.13 10.323l-6.081 2.186 3.391-.357 4.194-1.505 13.121-6.882s-5.379 4.193-5.915 4.946-1.29.968-2.256 2.043c-.97 1.077.213 2.259.213 2.259l-2.902 1.29-1.507.107-.753 1.613.862 2.797 3.224-.323-3.87 2.043.43 1.506 1.613 3.01s-2.26 1.829-2.26 2.259-.214-1.183-.214-1.183l-1.506-1.937h-1.183l-1.183-.107-.967-1.29-1.721-.538-.216-1.398-1.183.968-1.827 4.623.324-2.795-4.84 9.033s-2.366 10.969-2.903 12.152c-.54 1.184-.646 9.141-.646 9.141l-.646 1.935-.967 2.044.216-2.797.214-3.763 1.29-10.323s.955-7.841 2.113-14.784c.056-.331 8.963-8.767 8.963-8.767l-1.298-4.602-.073.127-1.585-1.977-.014-.017q-.034-.042-.114-.125a5 5 0 0 0-.463-.424c-.393-.321-.911-.594-1.31-.633a1 1 0 0 0-.136-.006c-.606-.05-1.68.621-1.823.774l-.012.008-1.347 1.171-1.111-1.376-.003.004a1.7 1.7 0 0 0-.264-.192c-.267-.154-.696-.344-1.456-.37v.002c-.902-.058-1.914.9-2.063 1.124l-.008.01-1.444 1.942-1.364-2-.01-.006a1.5 1.5 0 0 0-.21-.192 1.34 1.34 0 0 0-.784-.286l-.045-.002-.012-.001c-.189.014-.677.211-1.165.624-.536.428-1.051 1.015-1.351 1.4a6 6 0 0 0-.296.395l-.394.586-.654.13-.087.035a3.3 3.3 0 0 0-.645.366c-.596.418-1.496 1.239-2.46 2.877-.904 1.506-2.234 5.288-3.226 8.533-1.013 3.271-1.754 6.082-1.771 6.146.002.003-.145.476-.383 1.502a67 67 0 0 0-.883 4.599c-.643 4.061-1.294 10.074-1.294 17.819 0 3.531.14 7.43.473 11.659l.114-.05s4.256-1.061 5.646-1.828c.14-.077 1.506 1.295 1.667 1.452.018.017 1.674-.701 1.722-.645.256.295.849.994 1.29 1.13.096.029 2.548-1.095 3.387-1.345.019-.006-1.397 3.764-1.397 3.764l-3.012 1.505-8.971.782c.063.583.125 1.163.196 1.757.285 2.398.604 4.615.948 6.668.943-.184 2.427-.568 2.774-.549.018 0 3.523 1.325 3.55 1.29.055-.079 3.007-1.041 2.956-1.021-.085.031 2.148.918 1.99 1.021-.051.032 3.663.393 3.71.323.058-.088-1.066 1.78-1.022 1.774.065-.009.753.7.969.86.214.162-4.839 3.549-4.839 3.549l-1.183-.915-3.545 1.589c-.056 0-.83-.659-1.241-1.212-.069-.091-2.001.219-2.703.335.239 1.003.483 1.946.731 2.84l12.833.428 1.937-2.581 1.503-3.871s2.367 16.13 6.669 19.573c4.3 3.44 4.3 3.872 4.3 3.872l-1.504 2.58-16.044 23.825-.413.951 3.919.718 1.138-1.834 3.442-5.593.214 6.236 2.931.307 5.458-7.62 4.302 9.895 1.935-1.076v4.946h-3.01l-3.656-7.743-3.228 1.936 3.013 11.614-2.153-2.367-2.796-.43-3.871 2.796-3.656-3.226-2.15 2.151-2.895-1.137 3.325 16.622-.616.27 1.26-.484 7.529-1.936 6.453-2.582-6.882 5.163-12.249 7.27 9.555 19.013 1.402 1.249 5.589 6.706a182.4 182.4 0 0 1 32.723-6.714l4.92-6.014 4.947.86 9.249.43-3.873 1.506s-.306.948-.698 2.187c1.949-.062 3.905-.099 5.869-.099 17.52 0 34.464 2.466 50.508 7.061l1.533-1.623 1.721-4.73 7.313-4.732 3.012-6.023 1.288-49.683 2.152 15.701s.646 13.55.646 14.625c0 1.076-1.507 20.647-1.507 20.647l2.966 15.304-6.554 4.613a182.6 182.6 0 0 1 38.567 19.648"/><path fill="#fff" d="M129.975 496.35c.002 49.03 19.867 93.395 51.997 125.529 32.134 32.131 76.498 51.993 125.528 51.995 49.031-.002 93.395-19.864 125.53-51.995 32.13-32.134 51.994-76.499 51.994-125.529 0-49.032-19.864-93.396-51.994-125.53-32.135-32.13-76.499-51.994-125.53-51.997-49.031.002-93.395 19.867-125.528 51.997-32.131 32.135-51.995 76.498-51.997 125.53"/><ellipse cx="307.501" cy="496.351" fill="#00703c" rx="168.936" ry="168.937" transform="rotate(-45 307.501 496.35)"/><path fill="#9b7d0d" d="M230.009 178.628c-.43-1.021-1.667-1.398-1.667-1.398l-1.183 1.882s-.377 1.13.753 1.343c1.129.216 2.797.323 3.173-.268.376-.592-.647-.537-1.076-1.559M239.957 177.016s-.537.645-1.346.214a13 13 0 0 0-1.557-.699s-.43 1.076-.27 1.936c.014.072.035.142.054.212-.062-.017-.126-.035-.214-.05-.917-.162-.97-.162-1.613-.323-.646-.162-1.613-.484-1.613-.484l-1.237-.538s-.915 2.097-.538 2.85c.376.751 1.13 1.56 3.226.645 2.097-.913 2.097-1.72 2.097-1.72l.025-.013c.276.611.77 1.089 1.267 1.089.644 0 2.527-.269 2.85-1.13.32-.86-.539-2.097-.539-2.097zM229.579 165.346c.216.108 1.56-.053 1.56-.053l1.29-.483 1.99.645 3.012-1.183.053-.915s-2.205.055-2.472-.269c-.271-.321-.646-1.128-.646-1.128l-1.613 2.096-3.281-.215-.752-1.613s-1.344 1.828-.645 2.474c.697.644 1.29.538 1.504.644M239.474 162.067l-1.346.968.216.591 1.397.161s1.29.593 2.473.324 1.506-1.344 1.506-1.344l-2.367.321zM233.719 155.4l.216-.753s-.86 0-2.204.161c-1.346.162-1.346-.483-1.452-.054-.107.43 1.077 1.72 1.077 1.72zM239.151 155.454l1.02-1.668-2.796.323-1.291-.215.054 1.398 1.4.377ZM239.043 147.064l2.311-.213 1.183-.915-2.527.214-2.15-.323s-.269 1.399-.163 1.667c.11.271 1.346-.43 1.346-.43M245.387 146.958c.377.214.163-.054.86-.323.7-.268 1.506-.753 1.72-.914.216-.162.27-.7.27-.7l-3.549.915.269.806c0 .001.053.001.43.216M286.688 122.559c1.965-.406 3.841-.699 5.533-.819 2.288-.163.53-1.065-5.533.819M252.863 175.939c.43.323 2.15-1.505 2.15-1.505l1.936 1.505 3.44-1.29 1.075-1.398 1.398.753 2.473 4.408 1.399 3.873.645.752.377-5.565 4.032 4.705q.87-3.6 5.7-5.055l7.952-.143 7.238 7.583-.564 8.905.753 7.259.16 2.528-.753 3.225s2.206 4.087 6.238 3.226l7.743-3.978-.216-1.452-2.15-.915-.537-1.129-5.646 1.667-3.226-1.883s.739-19.668.611-21.591c-.344-5.171-6.637-8.704-6.637-8.704l-8.387-1.429-8.279 1.883-1.061-6.632c.069-.106.144-.211.217-.316l1.867-1.816 2.834-1.562a17 17 0 0 1 .983-.32c5.913-1.721 14.195-3.334 14.195-3.334l8.71-.215 9.032.108 3.12-.753-4.517-.215H290.5l17.852-.753-1.4-.537-19.678.322-2.257-.215 2.473-.968 12.044-.215 10.861-.43-9.786-.645-16.561.215-1.183-.43-3.98-1.076-.967.969s-2.903.537-3.441.752-1.506.43-1.506.43l-.753-.322.753-1.506.967-1.828-.967-2.151-.86 1.613-1.829.538 1.723 1.505-1.83 1.183-1.397 1.292-.647-2.582-.429-.215-2.043 1.076 2.15 2.796-1.183 2.474-3.01-3.227-.753 1.507-1.183 1.613 1.29 3.227v1.935l.646 1.29s-1.506.753-1.936.753-2.686.538-2.686.538l.751 1.613.752 2.258-.752 1.613-1.614 1.182-.321-1.075s.214-2.258-1.183-2.258h-2.26s-1.183.323-1.289.86c-.108.538-.646 2.689-.646 2.689l-1.827 1.612s-.216-.322-.216-.86c0-.537.109-1.828.323-2.365.216-.539.216-.968.324-2.367.106-1.398-.86-3.871-.86-3.871l-.646 4.839-.753 7.205 3.012-1.828c-.002 0 .642.323 1.074.645M272.005 146.043l-.646-1.182-.968.645-.429 1.613 1.503.215ZM270.605 139.698l-.967 1.183.324 1.184 2.902-1.075-1.183-1.183ZM276.521 138.624c1.505.215 3.01-1.722 3.01-1.722s1.613-1.29 2.043-1.183c.43.108 1.613.108 1.613.108l-.752 2.688-.324 2.474 2.583-.323 2.473-1.183.107-1.29-1.936 1.075-1.504-.107-.539-1.291 1.075-2.689 2.259-1.183.107-1.183-1.936.968-1.613-.108-.967-.967-.86 1.398s-2.042 1.612-2.475 1.72c-.43.108-2.687-.646-2.687-.646l-1.4 2.043c0 .002.217 1.186 1.723 1.401M276.198 143.248h1.613l-1.4-2.258-.967 1.398Z"/><path fill="#9b7d0d" d="M258.129 189.06c1.076-1.398 1.723-2.367 1.723-2.367l-.323-1.72-1.936-1.506s-1.506.108-2.366-.322-1.397-.968-1.721-1.613c-.322-.646-.753-1.937-.753-1.937l-1.72-3.44-1.077 4.086s4.398 10.025 4.516 10.216c.696 1.098 2.584.001 3.657-1.397M248.453 184.435c.322-.752.322-2.366.322-2.366l.432-1.613-1.292-1.827-.214 3.657-.752 3.763c-.002-.001 1.181-.861 1.504-1.614M247.807 190.995l-.323.86v1.183s-.321.753.54.646c.859-.108.967-1.936.967-1.936l-.753-1.505zM250.173 192.716l1.507.43.643-1.722-1.827-.966-.429 1.074ZM256.303 193.684c0-.861-1.937-1.829-1.937-1.829l-.214 1.183.214.753s1.183.969 1.29 1.506c.11.537.647-.753.647-1.613M250.28 197.77l.216 1.182.753.538.968-.538-.647-1.935h-.966ZM250.71 204.006l-.86 1.722-.752.215-.645-3.872.968-1.075c.102-.052.537-1.506.537-1.506l-.214-.753-.43-1.075-.753.645-.753.753-.643 1.937s.106 1.612.321 2.365-.106 2.151-.106 2.151l-.754 1.398 1.829.752.645 1.398v2.581l.539-1.721.751-2.688 1.292-2.797 1.074-.859.54-.753-1.83-.215zM245.764 194.114s0-1.613-.107-2.581c-.106-.968-.86-2.903-.86-2.903l.107 2.365v4.516l.753 6.346v-1.936l.644-2.258-.107-2.043zM265.229 237.022l.753 8.603 7.354 3.024s1.786 4.181 1.893 4.181c.92 0 3.013-9.248 3.013-9.248l11.936 11.829c21.401 4.408 35.938-26.036 35.938-26.036s-9.591 8.723-21.85 8.4-19.169-.299-25.38-13.658c-7.666-16.496-3.87-21.077-6.451-25.81-2.582-4.732-5.378-12.904-5.378-12.904l-1.827 21.938-6.56.752-1.72-8.71-1.936 11.292s5.043 14.431 5.043 22.713c0 .215 2.906 5.329 2.906 5.329l-3.326-26.752 5.377-1.72zM321.258 157.657l-8.174-.322 8.494 1.398 5.699 2.904Z"/><path fill="#9b7d0d" d="m329.859 162.067 2.258 2.581-2.041-3.548-6.669-4.733-12.26-1.29 11.723 2.58ZM315.77 183.252c-1.826 0-6.236 2.473-6.236 2.473l-1.72.217 3.442 1.72-.753-.86 1.504-.646s.431 1.612 2.69 1.72 1.72-1.075 3.227-1.828 1.934-.215 1.934-.215l.647 1.398 3.656-1.076s-.753-1.183-2.043-1.721-4.517-1.182-6.348-1.182M312.545 178.198l1.292-2.259 6.561-2.15c-1.507-.323-7.529-.86-11.506.86-3.982 1.72-4.949 5.376-4.949 5.376l-.106.968 2.58.645s.076 2.134.216 1.936c2.259-3.225 5.912-5.376 5.912-5.376M311.522 219.071s-4.017-1.998-5.409-2.759c-2.557-1.397-4.152-1.324-4.965-1.324-.814 0-1.499.847-2.313.955s-1.86-.751-1.86-.751-1.278-.432-3.951.321-4.999 3.226-4.999 3.226l11.042.216 11.971.215zM290.817 221.213s5.346 2.903 7.554 2.903 11.273-3.011 11.273-3.011c-9.065 1.721-19.176-.753-19.176-.753zM290.07 139.807c.86-.108 2.259-.645 2.259-.645l1.29-1.076-3.12.753-.967-1.075s-.647.645-.43 1.182c.215.537.108.968.968.861M290.177 131.419l-.644.967.108.753h1.935l.537-.753ZM309.965 145.721s-.106.967-.321 1.935-.216 1.721.429 2.043c.646.323 3.978.968 3.978.968l1.077-1.613-.324-2.367s-.538 1.291-2.043 1.291c-1.504 0-1.935-1.075-1.935-1.075l.106-2.796-3.763.645 1.397.323zM318.46 146.043l-3.869-1.075.213 1.183 1.506.645 1.398-.108ZM320.504 146.904l-.647.967 1.721.968 1.399-.322.861-.861ZM329.106 145.291l-1.29-.323-2.151-1.398 1.292 2.473 1.289 1.185h1.938v-1.83l.536-2.15ZM324.16 139.807l-.859 1.398-2.258-.646.321 1.183s1.398 1.291 2.365 1.291.538-1.614.538-1.614zM335.343 137.979l1.72 2.903-2.147 3.441 2.473-.861 3.44 8.604 3.119 2.151.537 1.397 2.257.431s.647-7.744-1.827-15.916.324 5.269 0 9.142c-.322 3.871-1.29 1.935-1.29 1.935l-.859-4.624-.109-5.163-3.44-4.409.86-1.504 4.086-1.184-2.797-.646-15.915-3.118 3.333 2.151zM302.545 143.57l-2.043.645 1.721 1.613 1.719-.86.107-1.183ZM323.944 137.979l1.4-.86-.539-3.012-.537 1.075-.861-.108-2.796-.322 1.936 1.936ZM288.673 144.645l2.581 1.613.213-1.827ZM284.587 144.108l-2.476 1.183.863 1.29 2.687-1.936ZM277.811 151.098l1.507-.645-2.044-.754.967-.644.323-1.184-1.399-.322-1.075 1.398-.216 1.614ZM335.022 150.453l.861-1.506h-1.507l-3.012.43-.321.968 1.506 1.182-.107.969 2.257.538 1.184-1.613ZM350.938 153.571s2.903-.214 2.797-.645c-.107-.43-4.946-5.161-4.946-5.161l.214 4.193zM366.531 150.453l-.644-.969-3.227.323-.86-1.29.106 1.828 1.182.753ZM345.455 160.132l-.754 2.688.538.967.75 2.583.97.321 1.29-3.656-1.507-.108ZM346.422 157.227l-.967 1.506 1.397.43 1.077-1.183ZM352.874 176.799l4.087.646 1.613-2.69 1.073 1.721 2.797 1.075 2.043-1.72.323-3.656s-1.723 2.473-2.474 1.936c-.753-.539-1.829-2.796-1.829-2.796l-2.041 2.043-2.046 1.935-1.827-.86-1.936-2.043zM288.994 276.596l6.023.215 4.732-3.872-7.098 1.076-26.455-9.033 3.872 3.656 2.366 1.29 4.087 2.151 7.096 3.227ZM293.51 284.984l.43 5.592 3.442 5.807 2.151 1.29.647-1.72-4.517-6.237-.86-2.366v-5.162ZM334.591 263.907l-2.364 1.935-2.583 1.076-4.087 1.505-2.15.86-5.59 2.366-4.087 2.795 2.794 1.292 3.013-.645 1.934-2.152 3.226.432 1.506-2.583 4.301-1.075 3.872-3.655 2.366-.646 1.507-3.441ZM335.883 257.454l3.656 1.721.216 3.872.86 1.505 3.44-.216-3.226-2.796-.646-3.225-2.581-2.366-1.506-1.291ZM341.043 256.809l3.227 4.731.645 1.935 5.16.861.434-3.656-4.087-.215-5.163-7.097ZM341.689 250.356l-.214-4.731-2.259-.43-.647 3.011ZM360.939 265.735l2.474.967 1.827-1.612.214-2.688-3.44-1.184 1.29-3.226-.751-3.549-1.614 1.183-7.851-3.548-1.29-5.808-1.829-1.183-1.181-.323h-2.474l.538 2.796 3.548 1.398 1.076 3.548-.538 1.937 2.473.537 3.226 1.721 1.613 6.023 2.258 1.183ZM358.142 264.445l-2.794.43-2.045-5.7-4.087-3.011 3.979 10.108 1.399 1.613 2.581.216 1.292-1.506ZM368.918 258.786l1.399.968-2.58-4.839 2.794.752 1.292-1.183-.645-1.398-1.614 1.29-2.367-2.688-1.827-.43-1.613-.323-.216 1.829.753 3.226 3.011.645ZM308.138 293.372l.427 1.721 4.734-4.732.645-4.086-.214-4.733-1.722 7.745ZM264.413 289.871l4.825-1.379-7.559-8.025-3.87-4.086 2.796 5.593 1.074 4.731ZM263.4 306.061l4.731-3.441 4.517-3.011 2.58 1.506v2.366l2.797-3.442-.43-1.936-4.947-3.657-7.956 8.389-10.11 4.517ZM272.218 316.171c0-1.29.646-6.453.646-6.453l.86-2.796-2.583 2.582-.643 2.58c.001 0 1.72 5.377 1.72 4.087M324.052 307.138l7.528 5.59 10.323 3.227 4.519 1.29 3.87-2.364-2.15 1.074-4.947-2.797-7.526-2.364-5.165-4.088-3.01-5.161-4.087 3.011-6.667 4.516 5.163.86ZM341.689 286.92l-6.02 6.452 3.224-.646 8.175-2.58 13.979 2.15 1.72 1.721 2.151-1.721 3.656-2.15-.214-1.721-3.442.645-1.505-1.075-1.076 2.366-6.669-1.074-4.301-.862-5.806-3.225-1.506-3.872ZM308.138 299.609s-1.293 1.076-3.442 1.722c-2.15.644-6.236-2.152-6.236-2.152s4.301 4.086 7.312 4.302c3.011.214 3.872-1.506 3.872-1.506l.215-5.376-1.076.43zM297.476 260.858l-22.678-2.329 28.178 8.389 23.658-7.959ZM289.361 186.748l.532-.412 1.79-.073-1.511-.503c-1.291-.534-6.309-2.561-7.957-2.561-1.896 0-5.246.645-6.585 1.183-.647.258-1.162.667-1.564 1.022l-.074.116c-.314.327-.483.582-.483.582l2.122.601c.417.248 1.158.773 1.339.905.224.161 1.339 1.56 1.563 1.667.225.106 6.419-.107 6.419-.107s.501-.808-2.512-.646c-3.013.161-4.243-1.183-4.243-1.183l-.389-.561c.609-.446 1.616-1.071 2.176-.783 1.541.793 1.004 1.935 3.349 1.828 2.344-.108 2.789-1.721 2.789-1.721l1.565.646-.783.859z"/><path fill="#dac792" d="m339.109 174.004-.216 6.881 5.808-.43 1.398-3.548-1.078-4.194-1.179-.322-1.401 1.075ZM338.249 185.403l-1.186 20.002 3.227.43 1.722-.322-.969-6.668 1.829-12.044h-1.936Z"/><path fill="#fff" d="M307.501 610.104c-62.825 0-113.754-50.929-113.754-113.754 0-58.161 43.649-106.118 99.974-112.92v27.376h-49.509v170.398h72.458c102.104 0 104.447-163.858 5.959-170.202v-27.397c31.31 4.161 58.597 21.044 76.479 45.294l22.706-17.129c-23.079-31.142-58.584-52.506-99.186-56.801v-4.512l8.482-11.025h-45.872l8.482 11.025v4.367c-72.063 6.933-128.41 67.646-128.41 141.526 0 78.531 63.66 142.191 142.191 142.191 41.916 0 79.597-18.135 105.621-46.988l-20.672-19.545c-20.836 23.377-51.173 38.096-84.949 38.096m9.658-52.454h-46.484V436.086h23.045v96.032l-8.777 11.703h46.463l-8.778-11.703V436.36c64.155 6.166 62.742 120.611-5.469 121.29"/></g></svg>