<svg height="1000" viewBox="0 0 1000 999.99998" width="1000" xmlns="http://www.w3.org/2000/svg"><g transform="matrix(4.5238095 0 0 4.5238095 -849.32761 -1408.55)"><g><path d="m 322.918 333.92 c -3.903 -9.952 -13.596 -17.03 -24.918 -17.03 c -11.318 0 -21.012 7.078 -24.914 17.03 c -42.065 11.049 -73.182 49.392 -73.182 94.877 c 0 54.098 44.006 98.093 98.096 98.093 c 54.093 0 98.096 -43.995 98.096 -98.093 c 0 -45.485 -31.117 -83.828 -73.178 -94.877" fill="#343536"/><path d="m 323.507 335.517 c .823 2.583 1.295 5.315 1.295 8.171 c 0 5.5 -1.706 10.584 -4.569 14.845 c 29.799 9.452 51.46 37.382 51.46 70.264 c 0 40.637 -33.061 73.689 -73.692 73.689 c -40.628 0 -73.689 -33.053 -73.689 -73.689 c 0 -32.882 21.66 -60.813 51.46 -70.264 c -2.863 -4.261 -4.548 -9.346 -4.548 -14.845 c 0 -2.856 .45 -5.588 1.273 -8.171 c -40.983 11.236 -71.198 48.785 -71.198 93.28 c 0 53.32 43.378 96.705 96.701 96.705 c 53.327 0 96.705 -43.385 96.705 -96.705 c 0 -44.495 -30.215 -82.044 -71.198 -93.28" fill="#85bfe5"/><path d="m 298 370.461 c -8.749 0 -16.52 -4.24 -21.401 -10.729 c -29.448 9.132 -50.914 36.644 -50.914 69.065 c 0 39.859 32.45 72.306 72.315 72.306 c 39.869 0 72.319 -32.446 72.319 -72.306 c 0 -32.421 -21.466 -59.933 -50.914 -69.065 c -4.885 6.489 -12.652 10.729 -21.405 10.729" fill="#fff"/><path d="m 347.58 377.036 h -99.841 v 72.553 c 0 27.721 22.54 50.275 50.261 50.275 c 27.725 0 50.265 -22.555 50.265 -50.275 v -72.553 h -.685" fill="#343536"/><path d="m 264.453 412.189 c .097 -.128 .139 -.252 .217 -.38 c -3.08 0 -11.382 0 -15.54 0 c 0 4.368 0 8.799 0 13.021 c 3.708 0 10.672 0 14.341 0 c -2.451 -5.084 -.546 -10.583 .982 -12.641" fill="#f2d765"/><path d="m 266.377 396.521 c .35 -.021 .645 .23 .706 .589 c .194 1.387 1.884 3.36 3.179 4.662 c 0 -.021 0 -.064 0 -.106 c 0 -3.903 -.472 -6.887 -.472 -6.908 c 0 -.043 0 -.085 0 -.103 c 0 -.294 .156 -.546 .411 -.653 c .313 -.124 .649 -.021 .845 .231 c .096 .149 2.079 3.086 3.196 7.014 c .61 -1.323 1.334 -3.15 1.334 -4.556 c 0 -.315 .234 -.61 .551 -.674 c .311 -.064 .645 .085 .783 .379 c .039 .124 1.04 2.289 1.061 5.311 c .273 -.376 .589 -.777 .923 -1.153 c 0 -7.014 0 -15.856 0 -22.115 c -4.709 0 -9.104 0 -13.029 0 c 0 5.188 0 12.138 0 18.375 c .117 -.165 .274 -.293 .512 -.293" fill="#f2d765"/><path d="m 265.865 400.24 c 0 .628 0 1.238 0 1.806 c .117 .124 .234 .231 .352 .358 c -.174 -.777 -.274 -1.494 -.352 -2.164" fill="#f2d765"/><path d="m 274.52 434.406 c -.16 .082 -.355 .082 -.532 .022 c -.156 -.042 -3.669 -1.344 -8.122 -6.258 c 0 9.807 0 38.975 0 58.148 c 3.864 3.381 8.239 6.216 13.029 8.252 c 0 -16.441 0 -49.896 0 -63.65 c -2.418 2.5 -4.258 3.424 -4.375 3.486" fill="#f2d765"/><path d="m 283.364 424.831 c 5.376 0 13.773 0 14.636 0 c 0 -1.199 0 -11.844 0 -13.021 c -.958 0 -11.023 0 -16.144 0 c 1.881 2.479 4.002 7.791 1.508 13.021" fill="#f2d765"/><path d="m 298 378.44 c -.546 0 -8.434 0 -17.732 0 c 0 6.365 0 14.827 0 21.483 c .135 .085 .233 .21 .272 .379 c .021 .167 .688 3.757 -.039 5.815 c -.117 .316 -.155 .589 -.233 .883 c 0 1.029 0 1.87 0 2.455 c .116 .337 .272 .653 .468 .969 c 2.377 0 12.422 0 17.265 0 V 378.44" fill="#d88375"/><path d="m 262.843 401.226 c -.039 -.252 .06 -.504 .256 -.649 c .198 -.149 .472 -.192 .688 -.085 c .233 .085 .472 .231 .685 .376 c 0 -6.759 0 -15.75 0 -22.427 c -8.221 0 -14.831 0 -15.342 0 c 0 .632 0 15.793 0 31.985 c 5.297 0 14.44 0 15.342 0 c 0 -.213 0 -1.366 0 -3.108 c 0 -.022 0 -.064 -.019 -.085 c -.982 -1.849 -1.589 -5.841 -1.61 -6.007" fill="#d88375"/><path d="m 280.268 495.096 c 5.514 2.142 11.474 3.359 17.732 3.359 v -72.258 c -4.002 0 -11.553 0 -15.398 0 c -.787 1.238 -1.571 2.267 -2.334 3.168 c 0 10.963 0 47.608 0 65.731" fill="#d88375"/><path d="m 249.13 426.197 c 0 12.914 0 23.392 0 23.392 c 0 13.965 5.925 26.564 15.342 35.47 c 0 -22.154 0 -54.959 0 -58.528 c -.078 -.103 -.156 -.21 -.213 -.333 c -1.69 -.001 -10.106 -.001 -15.129 -.001" fill="#d88375"/><path d="m 334.474 404.923 l .273 -.085 l -.273 -3.527 c -.117 -.316 -.589 -1.302 -1.334 -1.302 c -1.079 0 -5.219 -1.302 -5.57 -1.87 c .018 -.504 2.725 -1.029 5.805 -1.029 h .276 l .901 -2.456 c .217 -.777 .688 -1.596 .982 -1.596 c .295 0 .745 .819 .962 1.554 l .901 2.498 h .273 c 3.079 0 5.769 .525 5.769 1.114 c -.315 .483 -4.474 1.785 -5.531 1.785 c -.767 0 -1.238 .986 -1.316 1.174 l -.313 3.655 c 0 0 .469 .167 .629 .23 c .057 .316 .39 2.079 .507 2.711 c -.667 0 -3.157 0 -3.825 0 c .117 -.632 .451 -2.395 .512 -2.711 c .176 -.064 .372 -.145 .372 -.145" fill="#fff"/><path d="m 308.538 404.944 l .272 -.107 l -.272 -3.527 c -.117 -.316 -.589 -1.302 -1.355 -1.302 c -1.058 0 -5.198 -1.302 -5.553 -1.87 c .022 -.504 2.707 -1.029 5.79 -1.029 h .273 l .901 -2.456 c .237 -.777 .709 -1.596 .982 -1.596 c .295 0 .745 .819 .962 1.554 l .922 2.498 h .256 c 3.08 0 5.787 .525 5.787 1.114 c -.334 .483 -4.475 1.785 -5.553 1.785 c -.745 0 -1.217 .986 -1.313 1.174 l -.295 3.655 c 0 0 .45 .167 .628 .23 c .057 .316 .391 2.079 .507 2.711 c -.685 0 -3.157 0 -3.824 0 c .117 -.632 .433 -2.395 .489 -2.711 c .179 -.063 .396 -.123 .396 -.123" fill="#fff"/><path d="m 334.474 438.395 l .273 -.103 l -.273 -3.53 c -.117 -.313 -.589 -1.303 -1.334 -1.303 c -1.079 0 -5.219 -1.302 -5.57 -1.844 c .018 -.525 2.725 -1.051 5.805 -1.051 h .276 l .901 -2.459 c .217 -.756 .688 -1.597 .982 -1.597 c .295 0 .745 .841 .962 1.575 l .901 2.48 h .273 c 3.079 0 5.769 .525 5.769 1.132 c -.315 .461 -4.474 1.763 -5.531 1.763 c -.767 0 -1.238 .99 -1.316 1.179 l -.313 3.654 c 0 0 .469 .167 .629 .23 c .057 .315 .39 2.079 .507 2.708 c -.667 0 -3.157 0 -3.825 0 c .117 -.629 .451 -2.371 .512 -2.708 c .176 -.062 .372 -.126 .372 -.126" fill="#fff"/><path d="m 308.538 438.395 l .272 -.103 l -.272 -3.53 c -.117 -.313 -.589 -1.303 -1.355 -1.303 c -1.058 0 -5.198 -1.302 -5.553 -1.844 c .022 -.525 2.707 -1.051 5.79 -1.051 h .273 l .901 -2.459 c .237 -.756 .709 -1.597 .982 -1.597 c .295 0 .745 .841 .962 1.575 l .922 2.48 h .256 c 3.08 0 5.787 .525 5.787 1.132 c -.334 .461 -4.475 1.763 -5.553 1.763 c -.745 0 -1.217 .99 -1.313 1.179 l -.295 3.654 c 0 0 .45 .167 .628 .23 c .057 .315 .391 2.079 .507 2.708 c -.685 0 -3.157 0 -3.824 0 c .117 -.629 .433 -2.371 .489 -2.708 c .179 -.062 .396 -.126 .396 -.126" fill="#fff"/><path d="m 334.474 471.85 l .273 -.107 l -.273 -3.505 c -.117 -.337 -.589 -1.323 -1.334 -1.323 c -1.079 0 -5.219 -1.303 -5.57 -1.849 c .018 -.525 2.725 -1.05 5.805 -1.05 h .276 l .901 -2.455 c .217 -.756 .688 -1.598 .982 -1.598 c .295 0 .745 .842 .962 1.576 l .901 2.477 h .273 c 3.079 0 5.769 .524 5.769 1.135 c -.315 .461 -4.474 1.764 -5.531 1.764 c -.767 0 -1.238 .986 -1.316 1.195 l -.313 3.633 c 0 0 .469 .171 .629 .23 c .057 .316 .39 2.08 .507 2.711 c -.667 0 -3.157 0 -3.825 0 c .117 -.631 .451 -2.373 .512 -2.711 c .176 -.038 .372 -.123 .372 -.123" fill="#fff"/><path d="m 308.538 471.85 l .272 -.107 l -.272 -3.505 c -.117 -.337 -.589 -1.323 -1.355 -1.323 c -1.058 0 -5.198 -1.303 -5.553 -1.849 c .022 -.525 2.707 -1.05 5.79 -1.05 h .273 l .901 -2.455 c .237 -.756 .709 -1.598 .982 -1.598 c .295 0 .745 .842 .962 1.576 l .922 2.477 h .256 c 3.08 0 5.787 .524 5.787 1.135 c -.334 .461 -4.475 1.764 -5.553 1.764 c -.745 0 -1.217 .986 -1.313 1.195 l -.295 3.633 c 0 0 .45 .171 .628 .23 c .057 .316 .391 2.08 .507 2.711 c -.685 0 -3.157 0 -3.824 0 c .117 -.631 .433 -2.373 .489 -2.689 c .179 -.06 .396 -.145 .396 -.145" fill="#fff"/><path d="m 321.389 420.254 l .273 -.107 l -.273 -3.527 c -.1 -.316 -.571 -1.302 -1.334 -1.302 c -1.079 0 -5.219 -1.302 -5.553 -1.87 c .017 -.482 2.764 -1.029 5.787 -1.029 h .276 l .901 -2.459 c .234 -.777 .706 -1.597 .979 -1.597 c .294 0 .745 .82 .961 1.576 l .905 2.48 h .273 c 3.022 0 5.786 .546 5.786 1.11 c -.333 .486 -4.471 1.788 -5.553 1.788 c -.763 0 -1.234 .986 -1.313 1.175 l -.295 3.654 c 0 0 .451 .167 .628 .23 c .039 .316 .373 2.079 .49 2.711 c -.667 0 -3.158 0 -3.825 0 c .117 -.632 .451 -2.374 .511 -2.711 c .176 -.062 .376 -.122 .376 -.122" fill="#fff"/><path d="m 321.389 455.322 l .273 -.085 l -.273 -3.526 c -.1 -.316 -.571 -1.303 -1.334 -1.303 c -1.061 0 -5.219 -1.302 -5.553 -1.869 c .017 -.504 2.707 -1.029 5.787 -1.029 h .276 l .901 -2.455 c .234 -.777 .706 -1.597 .979 -1.597 c .294 0 .745 .819 .961 1.575 l .905 2.477 h .273 c 3.079 0 5.786 .525 5.786 1.114 c -.333 .482 -4.491 1.784 -5.553 1.784 c -.763 0 -1.234 .986 -1.313 1.175 l -.295 3.633 c 0 0 .451 .192 .628 .252 c .039 .315 .373 2.079 .49 2.689 c -.667 0 -3.158 0 -3.825 0 c .117 -.61 .451 -2.374 .511 -2.689 c .176 -.06 .376 -.146 .376 -.146" fill="#fff"/><path d="m 263.844 421.574 c .039 .213 .099 .422 .159 .631 h 18.833 c .195 -.819 .295 -1.639 .295 -2.416 c 0 -.188 -.019 -.354 -.039 -.546 c -2.708 .043 -7.26 .17 -8.572 .568 c -1.356 .443 -5.22 1.617 -10.676 1.763" fill="#d88375"/><path d="m 280.207 411.997 c -1.018 -1.029 -1.529 -2.225 -1.529 -3.633 c 0 -.837 .178 -1.742 .528 -2.728 c .178 -.525 .256 -1.26 .256 -2.016 c 0 -.503 -.039 -1.007 -.078 -1.49 c -1.1 1.447 -1.806 2.856 -1.806 2.874 c -.156 .316 -.529 .465 -.862 .337 c -.277 -.103 -.451 -.355 -.451 -.649 c 0 -.042 0 -.106 .019 -.149 c .216 -.965 .294 -1.888 .294 -2.728 c 0 -.841 -.1 -1.575 -.195 -2.228 c -.667 1.997 -1.667 3.825 -1.728 3.927 c -.156 .252 -.43 .401 -.724 .337 c -.277 -.043 -.511 -.273 -.571 -.546 c -.373 -2.122 -1.136 -4.009 -1.863 -5.46 c .1 1.093 .156 2.331 .156 3.782 c 0 .564 0 1.153 -.039 1.742 c 0 .273 -.156 .525 -.411 .628 c -.234 .107 -.528 .063 -.728 -.125 c -.273 -.23 -1.923 -1.742 -3.215 -3.488 c .174 1.345 .508 2.984 1.157 4.705 c .039 .085 .039 .166 .039 .252 c 0 .252 -.117 .482 -.355 .61 c -.311 .167 -.706 .064 -.9 -.209 c -.451 -.653 -1.59 -2.101 -2.69 -3.087 c .255 1.281 .65 2.959 1.16 3.945 c .628 1.178 .94 2.31 .94 3.36 c 0 1.093 -.352 2.122 -1.04 3.065 c -.039 .043 -.078 .107 -.117 .17 h 15.654 c -.351 -.545 -.667 -.963 -.901 -1.198" fill="#d88375"/><path d="m 266.178 426.467 c 4.084 4.768 7.32 6.258 8.008 6.531 c .647 -.354 3.903 -2.288 7.277 -7.578 c .393 -.61 .667 -1.221 .922 -1.827 h -17.932 c .391 .965 .923 1.951 1.725 2.874" fill="#d88375"/><path d="m 263.709 418.551 c -.039 .358 -.061 .713 -.061 1.093 c 0 .167 .039 .376 .039 .546 c 5.336 -.127 9.103 -1.281 10.438 -1.703 c 1.529 -.461 6.376 -.585 8.828 -.606 c -.117 -.589 -.256 -1.135 -.412 -1.639 c -2.746 .042 -6.809 .167 -8.021 .546 c -1.356 .418 -5.301 1.617 -10.811 1.763" fill="#d88375"/><path d="m 264.709 414.581 c -.295 .717 -.589 1.597 -.806 2.583 c 5.22 -.167 8.906 -1.302 10.222 -1.7 c 1.352 -.418 5.298 -.567 7.888 -.61 c -.039 -.082 -.078 -.188 -.117 -.273 h -17.187" fill="#d88375"/><path d="m 230.236 468.426 c -1.901 -3.275 -5.492 -4.158 -8.927 -2.161 c -3.392 1.951 -4.591 5.521 -2.863 8.505 c .313 .546 .706 1.028 1.157 1.426 c .688 .674 1.078 .862 2.1 1.051 l -1 .84 l 1.295 2.246 l 6.099 -3.526 l -2.668 -4.599 l -2.353 1.342 l .823 1.43 c -.823 .295 -1.823 -.188 -2.373 -1.156 c -.862 -1.469 -.195 -3.066 1.727 -4.18 c 1.884 -1.068 3.47 -.923 4.258 .443 c .489 .841 .411 1.827 -.217 2.52 l 1.863 3.192 c 2.335 -1.913 2.708 -4.561 1.079 -7.373" fill="#343536"/><path d="M 239.519 486.506 L 241.97 484.385 L 234.867 476.238 L 225.195 484.598 L 232.415 492.892 L 234.966 490.685 L 230.275 485.289 L 231.57 484.175 L 235.516 488.691 L 237.79 486.736 L 233.827 482.202 L 234.944 481.258 L 239.519 486.506" fill="#343536"/><path d="M 243.088 485.396 L 240.931 487.872 L 243.677 490.267 L 237.439 497.427 L 240.381 499.988 L 246.639 492.828 L 249.385 495.202 L 251.524 492.723 L 243.088 485.396" fill="#343536"/><path d="m 252.915 503.391 l -2.118 -1.344 l 3.119 -2.476 l -1.001 3.82 m 1.788 -8.713 l -10.811 8.295 l 3.236 2.036 l 1.49 -1.199 l 3.611 2.27 l -.45 1.846 l 3.335 2.078 l 2.842 -13.29 z" fill="#343536"/><path d="M 271.969 506.857 L 273.203 503.789 L 263.67 499.945 L 258.862 511.789 L 262.471 513.24 L 264.159 509.039 L 269.063 511.012 L 270.262 508.096 L 265.354 506.119 L 266.021 504.463 L 271.969 506.857" fill="#343536"/><path d="M 285.032 509.983 L 285.76 506.836 L 275.204 504.398 L 272.319 516.852 L 283.053 519.308 L 283.818 516.012 L 276.833 514.415 L 277.227 512.758 L 283.092 514.102 L 283.759 511.203 L 277.894 509.838 L 278.227 508.412 L 285.032 509.983" fill="#343536"/><path d="m 306.242 515.213 l -3.863 .189 c -.1 1.302 -.767 2.04 -1.963 2.1 c -1.571 .086 -2.65 -1.217 -2.749 -3.274 c -.117 -2.203 .766 -3.633 2.277 -3.719 c 1.178 -.06 2.019 .59 2.257 1.703 l 3.746 -.188 c -.333 -2.856 -3.022 -4.896 -6.237 -4.727 c -3.552 .189 -6.124 3.172 -5.907 6.951 c .195 3.949 3.041 6.574 6.826 6.383 c 3.219 -.167 5.375 -2.268 5.613 -5.418" fill="#343536"/><path d="M 312.225 515.593 L 308.595 516.139 L 309.145 519.812 L 312.774 519.268 L 312.225 515.593" fill="#343536"/><path d="M 324.586 511.875 L 323.819 508.83 L 318.699 510.111 L 318.249 508.369 L 324.469 506.836 L 323.663 503.621 L 313.679 506.098 L 316.776 518.491 L 320.544 517.544 L 319.466 513.155 L 324.586 511.875" fill="#343536"/><path d="M 330.411 510.551 L 326.998 511.875 L 328.353 515.319 L 331.745 514.018 L 330.411 510.551" fill="#343536"/><path d="m 342.95 504.168 c -.905 -1.785 -2.707 -2.353 -5.397 -1.721 l -1.274 .313 c -1.667 .4 -2.04 .379 -2.238 0 c -.195 -.377 .12 -.901 .844 -1.26 c .862 -.44 1.412 -.355 1.945 .23 l 3.374 -1.764 c -1.533 -2.412 -3.552 -2.729 -6.77 -1.113 c -2.863 1.473 -3.886 3.615 -2.747 5.861 c .43 .84 1.136 1.469 1.902 1.742 c .943 .294 1.905 .272 4.197 -.168 l 1 -.191 c 1.277 -.252 1.533 -.23 1.768 .234 c .276 .543 -.117 1.175 -1.019 1.636 c -1.1 .567 -1.788 .423 -2.473 -.503 l -3.452 1.848 l .096 .167 c 1.121 2.228 4.063 2.668 7.082 1.136 c 3.063 -1.555 4.336 -4.158 3.162 -6.447" fill="#343536"/><path d="M 348.853 500.557 L 345.834 502.614 L 347.932 505.658 L 350.954 503.6 L 348.853 500.557" fill="#343536"/><path d="m 354.328 495.283 l -1.49 -3.693 l 3.375 2.037 l -1.885 1.656 m -3.079 -8.377 l -2.906 2.541 l 4.907 12.684 l 2.885 -2.518 l -.728 -1.767 l 3.218 -2.793 l 1.646 .947 l 2.944 -2.582 z" fill="#343536"/><path d="M 364.706 486.088 L 362.294 488.837 L 365.101 491.274 L 367.513 488.521 L 364.706 486.088" fill="#343536"/><path d="m 370.16 479.871 l -.842 1.114 l -5.023 -3.782 l .862 -1.153 c 1.156 -1.511 2.629 -1.618 4.317 -.358 c 1.551 1.177 1.825 2.689 .686 4.179 m 1.61 -7.351 c -3.218 -2.412 -6.515 -2.058 -8.792 .969 l -3.608 4.766 l 10.243 7.684 l 3.647 -4.829 c 2.314 -3.045 1.785 -6.132 -1.49 -8.59 z" fill="#343536"/><path d="M 377.106 467.08 L 375.518 470.359 L 378.852 471.973 L 380.441 468.698 L 377.106 467.08" fill="#343536"/><path d="m 300.434 319.348 l .862 -.819 c -1.078 -.146 -2.175 -.252 -3.296 -.252 c -4.258 0 -8.277 1.071 -11.808 2.941 l 1.49 .794 l 12.752 -2.664" fill="#fff"/><path d="M 305.38 327.938 L 302.456 336.379 L 306.477 343.961 L 314.68 345.724 L 320.271 340.307 L 313.09 326.845 L 305.38 327.938" fill="#fff"/><path d="m 277.088 332.767 l -.943 -1.934 c -2.235 3.761 -3.53 8.15 -3.53 12.854 c 0 2.182 .294 4.283 .823 6.319 l 1.532 -1.49 l 2.118 -15.749" fill="#fff"/><path d="m 321.684 340.012 l 1.55 .82 c -.748 -6.575 -4.006 -12.369 -8.771 -16.466 l -.276 1.575 l 7.497 14.071" fill="#fff"/><path d="M 290.624 346.962 L 291.784 338.71 L 285.799 331.99 L 278.439 333.04 L 276.399 348.286 L 283.269 351.919 L 290.624 346.962" fill="#fff"/><path d="m 309.517 365.675 l -.116 .649 c 5.041 -2.541 9.104 -6.699 11.537 -11.801 l -1.749 .252 l -9.672 10.9" fill="#fff"/><path d="M 292.529 337.45 L 301.141 335.939 L 304.163 327.221 L 300.945 320.65 L 288.289 323.297 L 286.916 331.17 L 292.529 337.45" fill="#fff"/><path d="M 291.33 348.18 L 283.975 353.115 L 282.602 360.885 L 294.881 366.2 L 300.533 360.739 L 299.021 351.94 L 291.33 348.18" fill="#fff"/><path d="M 306.498 345.366 L 300.395 351.688 L 301.885 360.36 L 309.027 364.142 L 317.894 354.122 L 314.463 347.087 L 306.498 345.366" fill="#fff"/><path d="m 281.541 361.935 l -1.001 .128 c 3.984 3.778 9.161 6.297 14.931 6.887 l -.607 -1.26 l -13.323 -5.755" fill="#fff"/><path d="m 344.206 431.696 c 0 1.238 -5.613 2.519 -6.298 2.519 c -.178 0 -.472 .401 -.589 .611 c 0 0 -.199 2.479 -.237 2.941 c .159 .063 .511 .209 .511 .209 l .745 4.009 h -5.648 l .745 -4.03 c 0 0 .351 -.125 .511 -.188 c -.021 -.462 -.199 -2.814 -.199 -2.814 c -.135 -.337 -.45 -.738 -.607 -.738 c -.706 0 -6.298 -1.28 -6.298 -2.519 c 0 -1.679 4.531 -1.87 6.259 -1.888 c .156 -.379 .728 -1.934 .728 -1.934 c .096 -.358 .685 -2.121 1.706 -2.121 c 1.019 0 1.586 1.763 1.686 2.1 c 0 0 .567 1.576 .706 1.955 c 1.727 .018 6.279 .209 6.279 1.888 m -6.28 31.585 c 1.729 0 6.28 .188 6.28 1.869 c 0 1.238 -5.613 2.52 -6.298 2.52 c -.178 0 -.472 .4 -.589 .631 c 0 0 -.199 2.455 -.237 2.938 c .159 .043 .492 .192 .492 .192 l .764 4.009 h -5.648 l .745 -4.03 c 0 0 .351 -.128 .511 -.191 c -.021 -.462 -.199 -2.814 -.199 -2.814 c -.135 -.334 -.45 -.734 -.607 -.734 c -.706 0 -6.298 -1.281 -6.298 -2.52 c 0 -1.682 4.531 -1.869 6.259 -1.869 c .139 -.398 .728 -1.952 .728 -1.952 c .096 -.358 .685 -2.122 1.706 -2.122 c 1.019 0 1.586 1.764 1.686 2.102 c -.001 -.001 .566 1.573 .705 1.971 z m -18.325 -4.346 l .749 -4.034 c 0 0 .372 -.124 .528 -.188 c -.039 -.483 -.217 -2.814 -.217 -2.814 c -.138 -.337 -.429 -.734 -.606 -.734 c -.689 0 -6.298 -1.323 -6.298 -2.54 c 0 -1.683 4.531 -1.849 6.276 -1.87 c .139 -.379 .706 -1.951 .706 -1.951 c .1 -.358 .688 -2.122 1.707 -2.122 c 1.039 0 1.589 1.785 1.689 2.101 c 0 0 .567 1.594 .724 1.973 c 1.728 .021 6.259 .188 6.259 1.87 c 0 1.217 -5.609 2.54 -6.298 2.54 c -.174 0 -.468 .397 -.585 .61 c 0 0 -.199 2.476 -.217 2.938 c .135 .064 .49 .188 .49 .188 l .744 4.034 h -5.651 z m -7.65 8.735 c -.156 0 -.473 .4 -.589 .631 c 0 0 -.178 2.455 -.217 2.938 c .139 .043 .493 .192 .493 .192 l .745 4.009 h -5.652 l .745 -4.03 c 0 0 .373 -.128 .532 -.191 c -.039 -.462 -.216 -2.814 -.216 -2.814 c -.139 -.334 -.434 -.734 -.61 -.734 c -.685 0 -6.298 -1.281 -6.298 -2.52 c 0 -1.682 4.552 -1.869 6.28 -1.869 c .135 -.398 .706 -1.952 .706 -1.952 c .117 -.358 .706 -2.122 1.706 -2.122 c 1.04 0 1.59 1.764 1.686 2.102 c 0 0 .589 1.574 .728 1.973 c 1.728 0 6.276 .188 6.276 1.869 c .001 1.237 -5.609 2.518 -6.315 2.518 z m -5.22 -25.685 l .745 -4.03 c 0 0 .373 -.125 .532 -.188 c -.039 -.462 -.216 -2.814 -.216 -2.814 c -.139 -.337 -.434 -.738 -.61 -.738 c -.685 0 -6.298 -1.28 -6.298 -2.519 c 0 -1.679 4.552 -1.87 6.28 -1.888 c .135 -.379 .706 -1.934 .706 -1.934 c .117 -.358 .706 -2.121 1.706 -2.121 c 1.04 0 1.59 1.763 1.686 2.1 c 0 0 .589 1.576 .728 1.955 c 1.728 .018 6.276 .209 6.276 1.888 c 0 1.238 -5.609 2.519 -6.315 2.519 c -.156 0 -.473 .401 -.589 .611 c 0 0 -.178 2.479 -.217 2.941 c .139 .063 .493 .209 .493 .209 l .745 4.009 z m 0 -33.45 l .745 -4.034 c 0 0 .373 -.125 .532 -.188 c -.039 -.483 -.216 -2.814 -.216 -2.814 c -.139 -.337 -.434 -.734 -.61 -.734 c -.685 0 -6.298 -1.323 -6.298 -2.54 c 0 -1.66 4.552 -1.848 6.28 -1.87 c .135 -.38 .706 -1.955 .706 -1.955 c .117 -.355 .706 -2.097 1.706 -2.097 c 1.04 0 1.59 1.763 1.686 2.079 c 0 0 .589 1.593 .728 1.973 c 1.728 .022 6.276 .21 6.276 1.87 c 0 1.217 -5.627 2.54 -6.315 2.54 c -.156 0 -.473 .398 -.589 .61 c 0 0 -.178 2.477 -.217 2.938 c .139 .064 .493 .188 .493 .188 l .745 4.034 z m 13.302 3.129 c .139 -.379 .706 -1.955 .706 -1.955 c .1 -.333 .688 -2.1 1.707 -2.1 c 1.039 0 1.589 1.767 1.689 2.079 c 0 0 .567 1.597 .724 1.976 c 1.728 .021 6.259 .21 6.259 1.866 c 0 1.263 -5.609 2.544 -6.298 2.544 c -.174 0 -.468 .397 -.585 .607 c 0 0 -.199 2.48 -.217 2.962 c .135 .043 .49 .167 .49 .167 l .744 4.034 h -5.651 l .749 -4.034 c 0 0 .372 -.124 .528 -.188 c -.039 -.483 -.217 -2.814 -.217 -2.814 c -.138 -.337 -.429 -.734 -.606 -.734 c -.689 0 -6.298 -1.281 -6.298 -2.544 c 0 -1.656 4.531 -1.845 6.276 -1.866 z m 13.068 -15.31 c .139 -.38 .728 -1.955 .728 -1.955 c .096 -.355 .685 -2.097 1.706 -2.097 c 1.019 0 1.586 1.763 1.686 2.079 c 0 0 .567 1.593 .706 1.973 c 1.729 .022 6.28 .21 6.28 1.87 c 0 1.217 -5.613 2.54 -6.298 2.54 c -.178 0 -.472 .398 -.589 .61 c 0 0 -.199 2.477 -.237 2.938 c .159 .064 .492 .188 .492 .188 l .764 4.034 h -5.648 l .745 -4.034 c 0 0 .351 -.125 .511 -.188 c -.021 -.483 -.199 -2.814 -.199 -2.814 c -.135 -.337 -.45 -.734 -.607 -.734 c -.688 0 -6.298 -1.323 -6.298 -2.54 c -.001 -1.66 4.53 -1.848 6.258 -1.87 z m 11.123 23.456 c 0 0 .354 -.124 .532 -.188 c -.043 -.461 -.199 -2.814 -.199 -2.814 c -.155 -.337 -.45 -.734 -.627 -.734 c -.686 0 -6.298 -1.281 -6.298 -2.544 c 0 -1.657 4.534 -1.845 6.279 -1.866 c .135 -.379 .706 -1.955 .706 -1.955 c .117 -.333 .706 -2.1 1.707 -2.1 c .217 0 .391 .085 .55 .191 c 0 -7.078 0 -13.819 0 -19.049 h -3.396 l .745 -4.03 c 0 0 .354 -.128 .532 -.189 c -.043 -.464 -.199 -2.814 -.199 -2.814 c -.155 -.337 -.45 -.738 -.627 -.738 c -.686 0 -6.298 -1.281 -6.298 -2.519 c 0 -.022 0 -.022 0 -.022 c -1.98 0 -4.18 0 -6.515 0 c 0 0 0 0 0 .022 c 0 1.238 -5.609 2.519 -6.298 2.519 c -.174 0 -.468 .401 -.585 .61 c 0 0 -.199 2.477 -.217 2.962 c .135 .039 .49 .167 .49 .167 l .744 4.03 h -5.651 l .749 -4.03 c 0 0 .372 -.128 .528 -.189 c -.039 -.464 -.217 -2.814 -.217 -2.814 c -.138 -.337 -.429 -.738 -.606 -.738 c -.689 0 -6.298 -1.281 -6.298 -2.519 c 0 -.022 0 -.022 0 -.022 c -2.335 0 -4.534 0 -6.515 0 c 0 0 0 0 0 .022 c 0 1.238 -5.612 2.519 -6.297 2.519 c -.178 0 -.473 .401 -.59 .61 c 0 0 -.194 2.477 -.233 2.962 c .156 .039 .489 .167 .489 .167 l .767 4.03 H 298 v 19.071 c .178 -.128 .376 -.213 .571 -.213 c 1.018 0 1.59 1.767 1.668 2.079 c 0 0 .589 1.597 .745 1.976 c 1.727 .021 6.258 .21 6.258 1.866 c 0 1.263 -5.612 2.544 -6.297 2.544 c -.156 0 -.473 .397 -.59 .607 c 0 0 -.194 2.48 -.233 2.962 c .156 .043 .489 .167 .489 .167 l .767 4.034 H 298 v 19.046 c .178 -.107 .376 -.21 .571 -.21 c 1.018 0 1.59 1.785 1.668 2.101 c 0 0 .589 1.594 .745 1.973 c 1.727 .021 6.258 .188 6.258 1.87 c 0 1.217 -5.612 2.54 -6.297 2.54 c -.178 0 -.473 .397 -.59 .61 c 0 0 -.194 2.476 -.233 2.938 c .156 .064 .489 .188 .489 .188 l .767 4.034 H 298 v 19.046 c .178 -.104 .376 -.209 .571 -.209 c 1.018 0 1.59 1.763 1.668 2.1 c 0 0 .589 1.597 .745 1.973 c 1.727 0 6.258 .191 6.258 1.87 c 0 1.238 -5.612 2.519 -6.297 2.519 c -.178 0 -.473 .401 -.59 .611 c 0 0 -.194 2.497 -.233 2.959 c .156 .064 .489 .191 .489 .191 l .767 4.009 H 298 v 4.452 c 7.81 0 15.168 -1.869 21.721 -5.145 l .629 -3.338 c 0 0 .372 -.128 .528 -.17 c -.039 -.483 -.217 -2.836 -.217 -2.836 c -.138 -.333 -.429 -.734 -.606 -.734 c -.689 0 -6.298 -1.28 -6.298 -2.519 c 0 -1.679 4.531 -1.87 6.276 -1.87 c .139 -.376 .706 -1.951 .706 -1.951 c .1 -.358 .688 -2.121 1.707 -2.121 c 1.039 0 1.589 1.763 1.689 2.1 c 0 0 .567 1.575 .724 1.973 c 1.728 0 6.259 .191 6.259 1.87 c 0 1.238 -5.609 2.519 -6.298 2.519 c -.174 0 -.468 .401 -.585 .611 c 0 0 -.199 2.497 -.217 2.959 c .135 .064 .49 .191 .49 .191 l .078 .482 c 10.889 -7.1 18.736 -18.354 21.306 -31.542 h -2.413 l .745 -4.034 c 0 0 .354 -.124 .532 -.188 c -.043 -.483 -.199 -2.814 -.199 -2.814 c -.155 -.337 -.45 -.734 -.627 -.734 c -.686 0 -6.298 -1.323 -6.298 -2.54 c 0 -1.683 4.534 -1.849 6.279 -1.87 c .135 -.379 .706 -1.951 .706 -1.951 c .117 -.358 .706 -2.122 1.707 -2.122 c .217 0 .391 .082 .55 .189 c 0 -4.748 0 -11.549 0 -19.024 h -3.396 z" fill="#6fb876"/><path d="m 321.389 381.527 l .273 3.53 l -.273 .103 c 0 0 -.199 .064 -.373 .127 c -.06 .333 -.393 2.079 -.511 2.707 c .667 0 3.158 0 3.825 0 c -.117 -.628 -.451 -2.391 -.49 -2.707 c -.177 -.064 -.628 -.23 -.628 -.23 l .295 -3.654 c .078 -.188 .55 -1.178 1.313 -1.178 c 1.082 0 5.22 -1.302 5.553 -1.763 c 0 -.022 -.018 -.022 -.018 -.022 c -5.081 0 -10.693 0 -15.796 0 c .571 .568 4.456 1.785 5.496 1.785 c .762 0 1.234 .99 1.334 1.302" fill="#fff"/><path d="m 299.944 385.288 c -.156 -.064 -.61 -.23 -.61 -.23 l .295 -3.654 c .081 -.188 .55 -1.178 1.316 -1.178 c 1.078 0 5.219 -1.302 5.531 -1.763 c 0 -.022 0 -.022 0 -.022 c -4.766 0 -8.122 0 -8.477 0 v 9.555 c .943 0 2.044 0 2.455 0 c -.119 -.629 -.453 -2.392 -.51 -2.708" fill="#fff"/><path d="m 299.944 420.378 c -.156 -.064 -.61 -.23 -.61 -.23 l .295 -3.654 c .081 -.189 .55 -1.175 1.316 -1.175 c 1.078 0 5.219 -1.302 5.531 -1.788 c 0 -.564 -2.746 -1.11 -5.766 -1.11 h -.277 l -.9 -2.48 c -.217 -.756 -.667 -1.576 -.962 -1.576 c -.156 0 -.372 .256 -.571 .61 v 14.114 c .943 0 2.044 0 2.455 0 c -.12 -.632 -.454 -2.395 -.511 -2.711" fill="#fff"/><path d="m 299.944 455.468 c -.156 -.06 -.61 -.252 -.61 -.252 l .295 -3.633 c .081 -.189 .55 -1.175 1.316 -1.175 c 1.057 0 5.219 -1.302 5.531 -1.784 c 0 -.589 -2.686 -1.114 -5.766 -1.114 h -.277 l -.9 -2.477 c -.217 -.756 -.667 -1.575 -.962 -1.575 c -.156 0 -.372 .252 -.571 .606 v 14.093 c .943 0 2.044 0 2.455 0 c -.12 -.61 -.454 -2.374 -.511 -2.689" fill="#fff"/><path d="m 323.212 490.31 l .295 -3.634 c .078 -.213 .55 -1.199 1.313 -1.199 c 1.082 0 5.22 -1.302 5.553 -1.763 c 0 -.589 -2.707 -1.136 -5.786 -1.136 h -.273 l -.905 -2.477 c -.216 -.734 -.667 -1.554 -.961 -1.554 c -.273 0 -.745 .819 -.979 1.597 l -.901 2.434 h -.276 c -3.08 0 -5.77 .547 -5.787 1.051 c .334 .546 4.474 1.848 5.553 1.848 c .763 0 1.234 .986 1.334 1.324 l .273 3.526 l -.273 .085 c 0 0 -.199 .086 -.373 .149 c -.06 .272 -.294 1.571 -.433 2.331 c 1.14 -.589 2.235 -1.242 3.317 -1.934 c -.021 -.188 -.061 -.338 -.061 -.419 c -.179 -.062 -.63 -.229 -.63 -.229" fill="#fff"/><path d="m 299.944 490.54 c -.156 -.064 -.61 -.23 -.61 -.23 l .295 -3.634 c .081 -.213 .55 -1.199 1.316 -1.199 c 1.078 0 5.219 -1.302 5.531 -1.763 c 0 -.589 -2.686 -1.136 -5.766 -1.136 h -.277 l -.9 -2.477 c -.217 -.734 -.667 -1.554 -.962 -1.554 c -.156 0 -.372 .252 -.571 .61 v 14.089 c .943 0 2.044 0 2.455 0 c -.12 -.627 -.454 -2.393 -.511 -2.706" fill="#fff"/><path d="m 345.284 381.527 l .256 3.53 l -.276 .103 c 0 0 -.195 .064 -.373 .127 c -.057 .333 -.391 2.079 -.511 2.707 c .433 0 1.551 0 2.494 0 c 0 -5.563 0 -9.26 0 -9.555 c -.354 0 -3.669 0 -8.419 0 c .55 .568 4.435 1.785 5.475 1.785 c .765 .001 1.238 .991 1.354 1.303" fill="#fff"/><path d="m 346.324 408.364 c -.277 0 -.745 .82 -.982 1.597 l -.901 2.459 h -.273 c -3.022 0 -5.77 .546 -5.79 1.029 c .333 .568 4.495 1.87 5.553 1.87 c .766 0 1.238 .986 1.354 1.302 l .256 3.527 l -.276 .107 c 0 0 -.195 .06 -.373 .124 c -.057 .316 -.391 2.079 -.511 2.711 c .433 0 1.551 0 2.494 0 c 0 -4.623 0 -9.431 0 -14.135 c -.179 -.335 -.395 -.591 -.551 -.591" fill="#fff"/><path d="m 346.324 443.458 c -.277 0 -.745 .819 -.982 1.597 l -.901 2.455 h -.273 c -3.083 0 -5.77 .525 -5.79 1.029 c .333 .567 4.495 1.869 5.553 1.869 c .766 0 1.238 .986 1.354 1.303 l .256 3.526 l -.276 .085 c 0 0 -.195 .086 -.373 .146 c -.057 .315 -.391 2.079 -.511 2.689 c .315 0 .982 0 1.689 0 c .512 -2.771 .806 -5.627 .806 -8.568 c 0 0 0 -2.101 0 -5.546 c -.18 -.355 -.396 -.585 -.552 -.585" fill="#fff"/></g></g></svg>