<svg xmlns="http://www.w3.org/2000/svg" width="950" height="720" viewBox="0 0 950 720"><path fill="#fff" d="M898.856 189.127h-5.906v-2.079h14.167v2.079h-5.866V204.5h-2.395ZM909.222 187.048h3.385l5.008 14.735 4.976-14.735h3.345v17.453h-2.256v-10.313c0-.35.026-.95.026-1.789.033-.791.033-1.689.033-2.639l-4.975 14.735h-2.33l-5.041-14.735v.541c0 .416.026 1.082.026 1.947.04.897.04 1.53.04 1.94V204.5h-2.237zM26.94 191.073h848.405v305.99H26.94Z"/><path fill="none" stroke="#fff" stroke-width="2.00596528" d="M26.94 191.073h848.405v305.99H26.94Z"/><path fill="#1b559e" d="M103.846 193.37h-74.96v204.364c16.49-1.848 43.538-5.616 74.96-12.92zM213.89 346.568V193.37h-78.562v183.216c18.47-5.39 37.638-12.022 56.49-20.125 7.464-3.22 14.801-6.54 22.073-9.892M324.483 193.37H245.92V331.45c26.797-12.82 52.73-25.233 78.563-34.61zM434.877 282.648v-89.272h-80.569v94.129c26.44-6.803 53.007-9.39 80.569-4.857M544.921 323.922V193.37h-80.575v102.45c8.103 4.243 15.975 9.02 20.858 13.679 0 .006 17.17 27.285 59.717 14.424M655.698 258.24v-64.87h-80.575v116.517c3.286-2.02 6.671-4.15 10.182-6.612 0 .007 37.07-27.2 70.393-45.035M700.615 243.38s24.883-1.148 47.49 13.56c0 0 5.49 3.16 17.453 5.992v-69.563h-80.575v51.892c6.288-1.947 11.706-2.745 15.632-1.881M832.896 279.138s12.406 14.477 39.427 10.617v-96.386H793.76v73.548c.99.073 1.947.165 2.963.198-.007 0 14.702-3.26 36.173 12.023"/><path fill="#1b559e" d="M861.7 303.632s-21.796-.574-29.833-10.908c0 0-13.138-12.788-35.692-12.24 0 0-10.043-1.089-14.127-1.623 0 0-7.087-1.096-3.544 4.077 0 0 6.533 10.842 6.79 12.221 0 0 1.624 4.078-2.705.541 0 0-39.941-36.945-82.872-37.48 0 0-20.647-3.543-62.495 26.89-40.159 29.185-76.075 52.973-104.33 55.942 0 0-29.891 3.002-45.358-12.214 0 0-16.299-13.593-19.301-14.134 0 0-5.457-2.963-2.171 2.204 0 0 21.465 35.315 63.287 38.305 0 0 40.475-1.914 50.802-5.16 0 0 9.509-.838 29.093-7.338 0 0 16.84-7.879 24.178-3.286 0 0 11.138 9.535 22.553 9.535 0 0 .792 14.926-16.84 28.803 0 0-10.623 5.674-10.332 11.125 0 0-1.38 5.714 4.077 9.766 0 0 5.959 6.79 7.88 10.617 0 0 6.79 15.467 12.47 20.64 0 0 8.704 14.128 25.293 33.963 0 0 10.854 13.844 15.48 7.879 0 0 3.53-6.54-10.874-24.468 0 0-24.184-36.391-20.1-47.813 0 0 1.082-12.22 11.165-14.675 0 0 33.93-13.587 57.85-35.059 0 0 5.14-1.88 5.708-.798 0 0 2.718 7.879-4.62 14.134 0 0-7.08 7.338-11.963 7.047 0 0-9.244-3.536-10.326 1.09 0 0-2.712 4.902 8.96 7.04 0 0 23.92 5.167 56.808-25.517 0 0 42.105-37.513 44.27-37.513 0 0 32.603-.54 36.14-1.082 0 0 10.59-2.712 9.792-6.216.013.02.785-2.732-5.114-4.295M27.646 495.63v-42.587h10.617v19.294h.132l13.428-19.294h11.673L49.62 473.01l18.786 22.62H55.11l-16.846-19.974v19.974ZM143.49 463.225l-6.248 16.549h13.111zm24.917 32.405H156.99l-3.51-8.42h-19.044l-3.187 8.42h-11.264l17.19-42.587h12.313zM225.379 453.043h9.726l22.739 26.025v-26.025h10.624v42.587h-8.928l-23.577-27.305v27.305h-10.584ZM371.115 465.257c-5.424-2.613-10.69-3.926-15.916-3.926-11.547 0-15.632 7.113-15.632 13.428 0 7.555 5.965 12.57 14.768 12.57 2.62 0 3.926-.257 7.047-1.498v-5.008h-6.19v-7.82H372v17.447c-3.187 3.286-11.066 5.741-17.928 5.741-14.86 0-25.418-9.06-25.418-21.821 0-12.98 10.492-21.908 25.675-21.908 6.348 0 12.538 1.439 16.78 3.51v9.285zM452.132 463.225l-6.255 16.549h13.111zm24.917 32.405h-11.416l-3.51-8.42h-19.044l-3.187 8.42h-11.23l17.162-42.587h12.313zM545.172 470.523h5.616c2.93 0 5.8-1.254 5.8-4.877 0-3.187-2.04-4.817-6.058-4.817h-5.364v9.694zm8.433-17.48c8.763 0 13.93 5.873 13.93 12.22 0 4.692-2.422 8.196-7.298 10.466 4.368 2.17 5.675 7.43 11.673 19.908h-11.673c-4.56-9.133-6.25-17.295-11.99-17.295h-3.068v17.295h-10.617V453.05h19.043z"/><path fill="#1b559e" d="M651.429 461.337c-8.13 0-13.494 5.2-13.494 12.986 0 7.82 5.365 13.02 13.494 13.02 8.037 0 13.395-5.2 13.395-13.02 0-7.786-5.358-12.986-13.395-12.986m0 34.86c-15.625 0-24.428-11-24.428-21.874 0-10.3 8.354-21.847 24.428-21.847 16.048 0 24.342 11.613 24.342 21.847-.006 10.94-9.066 21.875-24.342 21.875M757.904 461.337c-8.13 0-13.494 5.2-13.494 12.986 0 7.82 5.364 13.02 13.494 13.02 8.043 0 13.428-5.2 13.428-13.02 0-7.786-5.391-12.986-13.428-12.986m0 34.86c-15.632 0-24.435-11-24.435-21.874 0-10.3 8.387-21.847 24.435-21.847s24.335 11.613 24.335 21.847c0 10.94-9.027 21.875-24.335 21.875M870.376 464.083c-6.19-2.746-9.858-3.795-13.494-3.795-3.794 0-6.249 1.373-6.249 3.504 0 6.414 21.69 4.593 21.69 19.46 0 8.195-6.896 12.946-16.365 12.946-7.43 0-11.131-1.94-15.374-4.144v-9.159c6.13 4.052 9.858 5.49 14.55 5.49 4.045 0 6.248-1.438 6.248-3.933 0-7.02-21.656-4.467-21.656-19.736 0-7.364 6.348-12.247 16.232-12.247 4.758 0 9.06 1.016 14.425 3.32v8.294z"/></svg>