<?xml version="1.0" encoding="iso-8859-1"?>
<!-- Generator: Adobe Illustrator 24.0.1, SVG Export Plug-In . SVG Version: 6.00 Build 0)  -->
<svg version="1.1" id="Layer_1" xmlns="http://www.w3.org/2000/svg" xmlns:xlink="http://www.w3.org/1999/xlink" x="0px" y="0px"
	 viewBox="0 0 612 792" style="enable-background:new 0 0 612 792;" xml:space="preserve">
<path style="fill:#FFFFFF;" d="M306.576,679.552c142.2,0,258.264-116.064,258.264-258.336c0-142.2-116.064-258.192-258.264-258.192
	c-142.2,0-258.264,115.992-258.264,258.192C48.312,563.488,164.376,679.552,306.576,679.552z"/>
<path d="M178.128,312.208c-0.072,0.504-0.144,1.08-0.144,1.656c-0.072,4.968,2.664,9.432,3.096,10.8
	c5.544-10.8,11.952-14.328,19.44-22.464l14.976-18.864c7.992-5.832,18.72,0.288,27.576-1.872c5.832-2.88,9.576-11.376,12.168-17.64
	c0.144-0.36,0.504-1.512,1.008-2.88c2.448-0.72,4.896-1.368,7.344-2.016c1.656,1.08,3.456,1.8,4.392,1.584
	c3.312-0.36,8.64-0.216,11.088-2.232c-0.432,1.296-0.936,2.16-2.016,2.88c5.328-0.072,7.416-1.296,12.024-2.448
	c-0.576,1.656-3.024,3.672-3.168,4.896c5.544-0.936,6.552-2.016,11.016-4.608c2.664-1.512,5.472-2.52,8.28-3.456
	c0.432,1.8-1.512,5.688,1.512,0.576c2.088,2.592,1.512,3.96,1.08,6.264c2.376-2.088,3.96-5.544,6.336-8.28
	c2.952,0.144,5.904,0.432,8.784,0.72c1.008,0.648,2.088,0.936,3.024,0.72c0.072-0.144,0.144-0.216,0.216-0.36
	c83.448,10.728,148.392,82.296,148.392,168.48c0,90.936-74.52,165.024-165.888,165.024c-93.6,0-170.064-76.32-170.064-169.92
	c0-36.648,12.168-70.632,32.688-98.064l-1.584-4.608c-22.968,29.808-36.648,67.176-36.648,107.568
	c0,94.536,77.04,171.576,171.432,171.576c96.696,0,175.608-79.272,175.608-176.472c0-78.624-53.424-145.296-125.856-165.312
	c3.312,0.36,6.48,1.08,9.36,2.808c11.952,3.384,29.952,1.224,39.6,7.056c2.304,1.656,2.448,3.312,4.68,4.032
	c7.92,2.664,14.256-1.656,23.544-3.96c-7.272-4.968-9.216-6.768-17.784-8.208c-3.096-0.504-11.808-5.4-15.336-4.536
	c-2.88,0.72-5.544-0.576-9.216-2.448c-3.816-1.872-8.424-3.456-9.144-6.336c-3.528-2.736,9.504,0.36,12.6,0.072
	c7.632-0.648,17.856,2.016,24.984,5.04c1.296,0.576,4.752-2.304,8.64-1.512c2.376,0.576,3.816,2.88,5.616,4.104
	c1.872,1.224,4.104,1.368,4.32,2.304c6.408,1.368,11.808-0.216,18.216-1.8c-2.304-3.313-19.152-9.072-19.656-10.944
	c-0.216-1.152-0.72-2.232-1.44-3.024c-3.168-0.144-25.56,0.216-26.568-3.672c-2.16-3.096-6.984-4.824-10.872-5.04
	c-2.448-0.144-9.432-5.976-10.368-5.76c0.72-1.08,5.472-3.24,7.056-3.888c1.512-0.576,2.952-3.816,4.536-4.248
	c0,1.224-0.504,4.968-1.44,5.184c3.456-1.8,7.128-5.616,7.92-9.144l0.648,3.456c4.753-3.456,7.848-7.416,14.04-4.896l16.128-6.336
	c5.4,0.36,5.04-3.6,7.272-5.832c1.872-1.872,5.328-1.585,7.559-7.848c1.656-4.896,3.24-9.936-1.368-12.744
	c-2.952-1.8-3.24-1.872-5.184,0.648c-3.672,4.896-3.816,4.104-8.784,4.104c2.376-3.6,0.216-6.48,0.144-8.496
	c-2.088,4.608-4.392,5.256-7.056,4.248c-3.456-0.432-7.056-4.824-11.16-6.912c-3.528-1.8-8.496-3.96-11.592-4.464
	c-2.376-0.432-3.528-2.232-4.68-3.168c-3.312-3.024-1.728-5.976-6.552-10.152c-3.096-2.664-13.536-3.744-14.4-7.416
	c-0.144-0.648-2.592-5.616-0.792-6.048c-3.384-5.256-11.16-27.072-20.088-24.912c0.864,1.512,2.016,3.168,2.448,4.968
	c-2.52,0.648-1.08,3.672-0.504,5.976c-1.584,3.312-0.792,5.472,0,8.712c-3.672-6.12-11.736-11.448-13.536-18.72
	c-0.072,3.888-1.224,7.056-0.216,10.944l-3.024,0.72c0.216,0.72,1.152,5.544,2.304,5.256c-0.72,0.144-4.104,0.288-4.392-0.864
	c0.216,0.648,0.72,4.68,1.584,4.464c-1.368,0.288-2.232-0.432-3.6-0.072c0.288,1.368,1.008,2.376,0.432,2.232
	c-4.104-3.024-10.8-5.4-15.912-6.048c-4.32-0.576-8.856-1.728-13.32-0.648c3.168-0.288,5.112,1.656,7.344,3.744
	c-4.32,0-12.24-1.8-15.912,1.296c1.584,0.216,2.448,0.864,3.6,1.584c-10.944,2.736-27.864,6.192-35.136,14.112
	c0.864,0.216,2.808,0.792,3.168,1.296c-12.528,4.896-23.328,7.56-34.776,15.264c-7.416,4.896-14.544,10.728-23.256,12.816
	l3.96,0.432c-10.872,11.232-31.608,23.472-26.856,42.84c-14.616,16.416-34.704-12.024-16.2-16.56
	c-2.808-1.224-6.336,0.36-8.208,2.016c3.24-6.336,7.272-8.28,14.76-10.8c-6.552,0.288-15.192,2.592-19.584,7.416l0.144-7.056
	c-4.32,3.456-5.256,11.592-2.52,19.152c3.96,10.944,14.616,20.952,28.224,15.48c0.288,1.008,1.512,4.68,2.448,4.464
	c-0.144-1.296,0.216-4.464,1.872-4.824c0.576,2.448,1.728,3.168,3.096,4.896c0.504-0.864,0.72-0.936,1.8-1.152
	c-1.008,4.392,7.272,11.664,8.136,15.048c1.44,5.904-8.064,7.488-12.312,8.496c-0.936,0.864,1.584,1.224,0.864,2.376
	c-3.24,4.824-6.624,12.096-9.792,18.144c-2.16,4.176-4.608,8.568-9.144,9.648c-3.6,1.584-5.4,7.632-5.904,11.304
	c-0.864,6.192,0.792,11.16,4.536,15.84C175.464,315.304,176.76,313.72,178.128,312.208L178.128,312.208z M183.24,300.472
	c0.288-0.36,0.504-0.72,0.792-1.152c3.384-4.968,5.472-7.992,9.792-12.744c2.16-2.304,5.4-5.112,5.976-7.704
	c0.576,2.16-2.808,7.272-4.68,8.64c0.216,0.864-3.384,4.104-4.032,4.68c-0.576,0.576-1.08,1.296-1.44,1.944
	C187.488,296.224,185.328,298.312,183.24,300.472z"/>
<path style="fill:#50B848;" d="M192.384,420.496c4.536,32.76,27.864,49.968,53.568,64.944c11.592,6.696,21.744,15.048,28.152,22.824
	c20.736,25.2-10.8,41.328-36.36,33.984c-15.984-4.536-37.512-19.152-42.48-25.632c4.68,8.784,9.936,16.416,15.696,22.968
	c-40.68-32.976-63.36-86.184-54.864-141.552c6.12-39.672,27.288-73.512,56.736-96.552c-28.8,38.952-39.168,93.816-26.424,130.176
	C186.192,428.848,192.456,423.376,192.384,420.496z"/>
<path d="M437.976,212.344c35.208,21.816,63.72,52.488,83.448,88.2c19.728,35.64,30.672,76.392,30.672,118.224
	c0,136.872-111.24,248.472-247.608,248.472c-134.064,0-243.432-109.368-243.432-243.576c0-35.424,7.992-70.56,22.68-102.6
	c15.048-32.76,37.008-62.28,64.656-86.04l-0.288,4.608c-25.416,21.744-45.648,49.104-59.544,79.416
	c-14.256,30.96-21.96,65.088-21.96,99.72c0,133.2,108.792,241.92,242.064,241.92c130.968,0,237.888-106.488,237.888-237.024
	c0-41.4-10.872-81.72-30.456-117.144c-19.656-35.496-48.024-66.024-83.088-87.768L437.976,212.344z"/>
<path style="fill:#50B848;" d="M420.768,421.936c-4.536-32.688-27.864-49.896-53.568-64.872
	c-11.592-6.696-21.744-14.976-28.152-22.824c-20.736-25.2,10.8-41.328,36.36-33.984c15.984,4.536,37.512,19.152,42.48,25.632
	c-4.68-8.784-9.936-16.416-15.696-22.968c40.68,32.976,63.36,86.184,54.864,141.48c-6.12,39.744-27.288,73.584-56.736,96.624
	c38.304-36.648,44.856-92.376,26.424-130.248C426.96,413.584,420.696,419.056,420.768,421.936z"/>
<path style="fill:#ED1C24;" d="M283.248,573.712c29.16-1.152,56.592-13.104,72.792-29.952c-21.96,9.288-38.88,16.92-62.784,11.952
	c45.936-9.792,56.592-56.736,35.28-78.84c-28.08-29.736-95.4-12.024-122.976-73.944c-27.072-60.552,38.448-142.344,119.016-132.84
	c-28.872-0.792-59.184,19.728-75.24,37.44c19.44-11.592,45.216-27.144,70.56-20.736c-45.936,9.792-56.592,56.736-35.28,78.84
	c25.128,26.712,84.312,18.936,113.976,66.24C446.832,508.84,363.888,584.944,283.248,573.712z"/>
<path style="fill:#FFFFFF;" d="M342.648,195.208c-1.728,2.232-9,5.184-11.808,3.888c2.808-0.72,5.328-5.688,6.192-8.136
	c-3.168,0.792-6.408,2.808-9.792,2.376c4.464-3.672,7.056-7.848,5.544-12.6c-2.808,0.648-6.048,2.88-9.072,3.312
	c5.472-1.368,8.856-11.88,14.04-14.544c-0.72-0.792-3.168,0.072-4.032,0.288c5.616-4.608,14.04-9.216,21.096-9.864
	c5.616-0.36,12.024-1.656,15.336-6.192c-2.232,0.504-4.536-0.504-6.48-1.44c1.08,1.296,5.184-0.648,5.688-1.872
	c-2.808,0.648-6.12-1.224-8.352-2.592c0.216,0.648,2.592,0.864,3.168,0.72c-1.008-4.104-7.128-6.984-9.216-10.656
	c-1.944-3.312-3.456-5.904-4.32-9.576c-0.792,3.456,0.864,5.4,1.656,8.424c-0.576-0.432-1.368-0.936-1.584-1.728
	c-0.144,1.656,0.288,3.672,1.296,4.896c-1.44-0.576-2.592-1.44-3.6-2.592c-0.072,2.52,1.656,4.392,2.232,6.552
	c-1.44-0.216-3.384-0.72-4.536-1.368c0.432,5.472,3.6,7.56,7.2,10.512c1.152,0.216,2.376,0.432,3.24,1.008
	c0.504,0.288,3.096,2.376,3.6,2.232c-1.08-0.576-1.944-1.584-2.232-2.808c0.648,0.648,1.512,1.224,2.448,1.512l3.24,0.864
	c-7.416,4.536-15.696-1.08-22.752-2.592c1.728-0.288,4.68,0.792,5.904,0.504c-1.512-1.944-6.696-4.464-7.272-6.912
	c1.224,0.576,2.808,1.872,3.888,2.16c-0.432-2.016-3.456-2.736-4.032-4.824l-0.576-3.744c0.288,1.008,3.024,3.672,4.248,3.384
	c-1.728-2.736-0.864-4.248-1.512-6.84c0.216,0.792,1.368,2.232,2.304,2.016c-0.936-2.16-0.36-3.96-0.792-5.832
	c0.144,0.648,0.936,2.016,1.584,1.872c-0.216-0.936-0.072-2.232-0.216-3.024c1.224,0.792,1.728,0.288,2.808,0
	c-1.296-1.656-2.16-3.096-2.664-5.112c0.288,1.008,2.304,2.808,3.528,2.52c-0.576-2.448,0.144-5.472-0.36-7.632
	c0.288,1.368,3.096,5.832,4.752,5.4c-0.072-0.36,0.072-0.864-0.072-1.296l4.32,6.984c0.72,1.008,4.176,3.744,5.688,3.456
	c0.576,2.52,8.208,8.784,11.16,8.064c1.512,2.448,6.768,3.96,9.288,5.112c2.016,0.864,7.128,3.312,7.632,5.472
	c3.024,3.816,4.968,8.208,8.856,10.512c0.648,0.792,6.624,2.376,10.584,4.392c3.096,1.584,4.392,3.744,4.896,3.6
	c2.88,0.216,9.936,1.512,10.656,4.392c2.808,4.32,9.72,9.648,15.192,5.04c-1.296,2.664-3.816,3.312-6.696,4.032
	c0.936,1.08,2.808,0.576,4.248,0.288c-1.728,1.008-3.024,1.8-5.112,2.304c7.272,1.944,11.952-3.816,10.224-10.8
	c0.72-1.512,1.44-2.304,1.944,0c2.736-2.232,2.376,6.12,1.8,7.2c-1.728,2.808-4.392,6.912-8.712,7.992
	c-1.872,1.512-1.368,3.6-3.024,4.896c-2.16,1.8-3.888-1.872-5.544-1.512c-2.808,1.152-7.488,1.584-8.208-1.296
	c3.888-7.488-0.936-9.576-0.936-13.68c-2.88,5.616-6.192,7.848-9.648,9.576c-2.736,1.368-5.112,2.592-10.152,3.528
	c-4.176,0.792-7.992,4.104-7.488,10.8c2.376-2.88,4.392-5.184,8.136-6.48c3.312-1.224,6.624-2.736,9.936-4.032
	c3.744-1.512,7.272-3.024,8.136-7.056c-1.296,10.8-3.312,9.504-11.952,11.592c2.448,1.152,7.056,1.368,9.576-0.72
	c2.304,0.288,4.536,3.24,5.76,2.952c-4.32,2.808-9,0.648-13.536,0.648c-2.376,0.144-11.232,1.656-10.224,5.544
	c-0.792-0.864-1.728-1.944-1.224-3.24c-4.68,1.728-5.904,5.472-8.856,7.992c-3.024,2.592-12.96,4.104-15.696,2.448
	c5.832-0.504,9.216-1.512,10.656-6.552c-7.344,3.961-14.976,4.608-22.536,5.112c2.232-1.008,12.24-4.248,10.656-8.064
	c-10.512,4.824-17.64,6.768-27.36,7.92c2.88-0.576,19.368-7.704,18.288-12.024c-6.768,3.744-12.24,5.112-18.648,5.904
	c-1.944,0.288-5.04,1.728-5.328,3.312c0.288-5.112,13.32-11.664,12.816-13.968c-9.792,6.048-11.448,5.256-17.856,4.824
	C337.248,201.76,343.8,198.232,342.648,195.208L342.648,195.208z M403.704,172.6c-5.112,0.144-14.4-0.792-18.072-3.528
	c-3.816-2.88-11.52-4.32-15.768-3.312c1.368,0.072,2.664,1.728,3.744,2.736c1.8,1.8,3.096,3.456,3.528,5.184
	c1.296,5.688,7.632,5.976,11.448,4.752c2.592-0.792,3.168-1.512,4.968-3.168C396.216,174.616,401.76,174.976,403.704,172.6z"/>
<path style="fill:#FFFFFF;" d="M331.704,145.6c-4.176-6.408-16.128-5.832-22.824-4.176c1.008,0,3.384,1.008,3.6,2.016
	c-4.464,1.08-11.232,2.232-13.824,6.552c1.152,0.504,3.96,2.16,4.176,3.168c-3.384,1.08-9.216,3.024-10.08,7.2
	c1.296-0.288,3.384-0.288,4.608,0.432c-1.728,1.512-3.168,4.248-2.592,6.696l4.608,0.432c-8.136,7.776-14.328-3.6-20.52-2.088
	c-3.528-0.432-4.896,2.52-7.632,3.168c-0.36-1.44-0.936-6.048,1.296-6.624c-3.24,0.792-14.472,5.4-13.32,10.152l4.032-0.72
	c-0.72,1.44-1.44,2.952-1.008,4.68c2.232-0.792,4.248,0,6.192-0.432c-1.728,1.44-3.816,4.608-3.24,7.056
	c3.024-0.72,6.768-0.288,9.504-1.008c-2.592,2.232-5.328,6.336-4.392,10.08l-2.448-6.84c-3.456,2.16-0.288-0.144-2.376,2.16
	c-3.096-1.872-3.312-4.968-4.032-7.92c-2.016,0.504-4.176,3.384-5.4,3.672c-1.584-3.024-3.6-5.976,0.864-7.056
	c-9.072,0.36-16.776,5.4-25.704,7.632c4.536,0.432,8.784-0.576,13.464-1.728c-0.72,2.304-1.584,4.032-4.104,4.68
	c0.864,0.288,8.928,0.936,8.424-1.008c-0.864,0.72-3.672,3.24-3.384,4.248c1.944-0.504,4.968,0.072,6.264-0.216
	c-0.504,1.152-2.016,3.672-1.728,4.896l5.4,0.504c-1.8,2.304-1.8,3.384-1.224,5.832c2.808-0.432,5.831,0.144,7.344,2.16
	c-2.16,1.872-3.96,4.104-3.24,7.128c-1.512-1.8-0.864-3.528-1.224-4.968c-1.08,0-2.088,0-3.312,0.288l-0.72-3.024
	c-1.296,0.36-2.664,0.144-4.104,0.504c-0.36-1.512,1.08-2.88,1.008-3.384c-2.16-0.288-2.664-0.144-4.68,0.288
	c-0.36-1.44,0.144-3.672,0-4.392c-2.16-0.072-3.888,0.36-5.832,0.864c-7.92,0.072-10.512,4.392-16.488,5.832
	c2.304-0.288,6.84,1.224,8.136,0.936c-5.904,3.816-23.976,9.504-21.384,20.232c0.432-0.36,5.328-3.96,5.688-2.448
	c-2.448,2.664,0.288,4.392,0.936,6.84l2.16-0.792l1.368,3.6c-2.736-0.576-6.408-3.672-6.984-6.12
	c-1.152,0.792-1.584,1.152-1.512,2.448c0.144,0.504,0.432,2.808,0.144,2.88c-2.736-1.44-5.328-3.744-6.048-6.48
	c-7.344,17.856,10.224,28.656,15.408,32.832c-3.672-4.104-6.84-9.648-7.992-14.328c1.944,2.664,12.96,11.016,13.608,13.752
	c-0.504-0.936-2.88-6.408-1.152-6.84c1.368,2.304,4.32,5.832,4.968,8.28c0,8.712-9.288,7.272-14.76,8.568
	c-3.744,0.936-10.008,5.4-9,9.576c-4.464,7.416-3.24,14.76-10.8,20.304c-4.248,1.008-5.616,8.208-7.632,8.64
	c-5.688,5.904-8.136,5.472-6.192,13.392l8.424-9.72c0.216-1.08,1.944-4.896,1.728-5.688c2.448,5.76,5.328-8.352,9.936-5.544
	c6.048-4.392,4.104-13.392,9.216-17.496c3.888-2.304,6.624-4.032,11.304-3.025c0.072,0.216-0.216,1.08-0.144,1.368
	c3.672-0.936,7.2-0.504,10.728-1.296c5.688-1.44,7.416-7.344,11.736-10.008c0.504,2.016-1.008,4.464-0.72,5.688
	c8.928-10.872,14.904-20.952,11.232-35.856c2.736,3.528,3.384,7.344,4.32,11.304l3.744-8.568
	c5.112,20.88,29.016,11.088,39.024,2.592c-0.216,2.376,0.936,4.752,1.368,6.768c1.008-3.384,2.016-7.848,5.976-8.856
	c0.432,3.024,1.44,4.896,2.88,7.488c0.864-1.8,2.808-5.688,4.536-6.12c1.296,2.016,0.864,3.456,2.304,5.184
	c0.36-1.872,1.8-4.392,2.016-5.76c0.288,1.008,1.224,7.128,3.168,6.624c0.288-2.16,1.656-5.112,2.952-6.264
	c1.728,2.736,5.832,5.472,9.288,4.608c-0.072-0.288,0.792-2.304,1.008-2.376c1.656,3.528,11.52,8.28,15.48,7.272
	c-0.288-1.008,0.144-1.368,0.216-2.16c4.896,4.896,17.424,7.848,23.688,6.336l-0.288-2.304c7.992,6.984,18.144,2.376,25.704,9.504
	c1.512-0.072,1.944-0.72,3.384-1.08c2.16,0,3.6,0.72,5.616,0.216c-1.728,1.44-3.672,1.152-5.688,1.656
	c5.904,3.528,11.88,2.376,19.368,0.504c-1.512-1.944-4.968-5.328-6.912-5.688l-8.784,0.864c-4.032-0.576-7.488-2.88-11.664-3.744
	c-8.208,2.016-22.392-4.536-24.552-13.176c-3.816-5.976-21.744-3.096-23.04-8.352c1.944,0.36,11.232-5.616,10.8-7.344
	c-4.104,1.512-12.24,2.448-14.544-0.432c-3.384,1.08-6.984,1.728-9.432,0.216c0.216-1.368,0.792-3.312,0.432-4.824l-7.776,3.744
	c-0.72-3.025,0.288-4.032,1.44-5.904c-3.024,0.504-4.896,2.52-7.632,3.168c-0.648-2.736-1.152-8.928,2.088-9.72
	c-1.944-0.288-4.248,0.792-5.76,1.152c-0.72-2.952,1.296-11.88,4.536-12.672l-5.184,1.512c0.216-1.368,0.576-5.112,2.088-5.472
	c-2.664-1.224-6.264,0.216-8.64,1.296c-0.504-2.232,3.672-6.696,5.616-7.128c-3.672,0.864-11.088,0.864-13.68-2.448
	c6.192-1.512,9.792-1.872,14.544-5.976c-3.96,1.008-8.712,1.872-9.864-2.808c7.92,3.311,11.16-2.736,16.416-7.2
	c-3.672,0.144-8.352-1.656-11.664,1.008c4.536-7.416,15.12-6.048,19.44-13.176c-2.448,0.864-9.288,1.8-10.152-1.728
	c4.248-1.008,9.936-0.288,13.392-1.152C333.144,154.672,323.568,147.832,331.704,145.6z"/>
<g>
	<path d="M491.616,521.656l7.416-13.536l-18.072-1.44L491.616,521.656L491.616,521.656z M472.392,506.248l1.152-7.776l46.08,5.256
		l-0.432,5.832l-15.696-1.08l-5.04,10.152c0,0.072-0.072,0.216-0.216,0.432c-2.376,4.752-2.52,8.64-0.36,11.592l4.248,6.12
		c1.368,1.944,1.512,3.888,0.576,5.76c-0.432,0.792-0.792,1.152-1.08,1.008c-0.072-0.072-0.288-0.288-0.504-0.648l-17.712-24.624
		c-2.52-3.384-4.032-5.544-4.752-6.336c-2.232-2.88-4.176-4.68-5.688-5.4L472.392,506.248z"/>
	<path d="M522.648,356.848c3.384,3.168,5.688,7.344,6.912,12.384c1.584,6.48,0.432,12.384-3.528,17.856
		c-2.88,4.032-6.768,6.696-11.736,7.92c-6.84,1.584-13.248,0.216-19.368-4.32c-5.112-3.888-8.496-9-10.08-15.408
		c-0.864-3.456-1.08-6.552-0.504-9.216l8.136-1.656c0.216,0,0.432,0,0.648,0.144c0,0.216-0.072,0.36-0.072,0.504l-3.6,6.696
		c-0.072,1.08,0.072,2.376,0.432,3.96c1.152,4.752,3.888,8.208,8.136,10.44c4.176,2.16,8.64,2.664,13.392,1.44
		c4.68-1.152,8.208-3.528,10.656-7.128c2.448-3.672,3.168-7.848,2.016-12.456c-0.864-3.384-2.808-6.696-5.76-9.792
		c-0.432-0.432-0.648-0.72-0.648-0.792c-0.072-0.216,0-0.36,0.288-0.432C518.328,356.92,519.912,356.848,522.648,356.848z"/>
	<path d="M518.112,334.816l2.952,5.472L486,354.616l-2.736,5.256c-0.216,0.288-0.36,0.504-0.432,0.576
		c-0.216,0.072-0.504-0.072-0.72-0.576l-5.328-10.44L518.112,334.816z"/>
	<path d="M478.008,330.856l27.144-14.328c1.08-0.576,2.232-0.864,3.456-0.864c1.44-0.072,2.52,0.36,3.024,1.296
		c0.288,0.504,0,0.936-0.864,1.44c-0.072,0-0.216,0.144-0.432,0.216c-0.144,0.144-0.288,0.216-0.36,0.216l-31.68,18.288
		l-2.016,5.616c-0.144,0.36-0.288,0.576-0.36,0.576c-0.216,0.144-0.504,0-0.72-0.36l-6.768-9.648l19.224-36.792l-29.52,17.208
		l-3.24-3.888c-0.144-0.216-0.288-0.36-0.36-0.504c-0.072-0.144,0.072-0.288,0.36-0.432l37.224-19.584l3.312,2.952
		c0.216,0.144,0.36,0.288,0.432,0.504c0.072,0.072,0.072,0.288-0.072,0.576v0.145L478.008,330.856z"/>
	<path d="M452.376,544.336l-5.976,0.216c-0.36,0-0.576,0-0.648-0.072c-0.216-0.144-0.216-0.432,0.072-0.864l6.408-9.864
		l15.984,13.464l0.936-11.736l4.392,5.472l-1.44,9.576l6.48,5.472c0,0.072,0.072,0.072,0.144,0.216
		c0.504,0.36,0.936,0.72,1.368,1.08c1.224,0.936,2.736,0.216,4.608-2.16l8.064-10.152c0.504-0.648,1.008-0.864,1.368-0.576
		c1.008,0.792,1.368,2.016,0.936,3.744c-0.36,1.296-0.936,2.52-1.872,3.744l-11.232,15.336l-11.088-8.568l-1.008,6.624l-2.808-3.096
		l0.432-6.12L452.376,544.336z"/>
	<path d="M117.288,291.04l32.544,19.296l5.904-0.864c0.36-0.072,0.576-0.072,0.72,0c0.216,0.072,0.216,0.36,0,0.792l-5.04,10.44
		l-22.248-14.472l11.88,32.328l-5.04,2.88c-0.288,0.144-0.504,0.216-0.648,0.144c-0.072-0.072-0.144-0.216-0.216-0.504
		c-0.072-0.072-0.072-0.144-0.072-0.216l-6.84-23.472l-24.696,3.168c-0.072,0-0.648,0.144-1.872,0.36
		c-1.008,0.216-1.584,0.288-1.656,0.216c-0.36-0.216-0.36-0.864-0.144-1.944c0.144-1.008,0.432-1.656,0.648-2.088
		c1.008-1.656,3.312-2.808,6.984-3.528L126,310.12l-2.16-7.344l-9.144-6.048L117.288,291.04z"/>
	<path d="M99.576,329.488l4.68,1.152c0.216,0.072,0.216,0.216,0.144,0.432c0,0.143-0.288,0.432-0.648,0.864
		c-3.024,3.024-5.184,6.552-6.624,10.584c-0.792,2.448-1.152,4.752-1.08,6.912c0.144,3.024,1.296,4.824,3.384,5.544
		c1.656,0.576,3.456-0.216,5.4-2.448c0.504-0.576,1.728-2.376,3.672-5.4c2.448-3.744,4.536-6.336,6.264-7.704
		c2.808-2.088,5.904-2.592,9.216-1.44c4.608,1.584,7.56,4.968,8.856,10.152c1.152,4.464,0.864,9.144-0.792,13.968
		c-1.08,3.24-2.664,6.048-4.68,8.496l-8.064-3.456c-0.504-0.216-0.648-0.504-0.576-0.72c0-0.144,0.144-0.288,0.288-0.36l5.4-3.096
		c1.224-1.512,2.232-3.456,3.024-5.832c0.936-2.52,1.224-4.968,1.008-7.416c-0.216-3.168-1.512-5.184-3.744-5.904
		c-1.872-0.648-3.888,0.072-5.976,2.304c-0.936,1.008-2.304,2.88-4.032,5.616c-2.304,3.6-4.32,6.192-6.048,7.704
		c-2.88,2.376-5.832,3.096-8.928,2.016c-3.888-1.296-6.48-4.392-7.776-9.216c-1.152-4.248-1.08-8.424,0.36-12.456
		C93.672,335.824,96.12,332.368,99.576,329.488z"/>
	<path d="M96.984,398.536l-1.8,15.264l17.28-5.4L96.984,398.536L96.984,398.536z M120.6,405.664l1.8,7.56L77.76,425.68l-1.728-5.616
		l14.904-4.896l0.864-11.232c0-0.144,0-0.288,0-0.504c0.432-5.328-0.864-8.928-3.96-10.872l-6.192-4.032
		c-2.016-1.296-2.952-3.024-2.736-5.184c0.072-0.864,0.288-1.296,0.576-1.296c0.144,0,0.432,0.144,0.792,0.36l25.632,16.128
		c3.528,2.232,5.832,3.672,6.768,4.176c3.168,1.728,5.544,2.736,7.272,2.88L120.6,405.664z"/>
	<path d="M115.56,433.024l4.104-4.32c0.216-0.288,0.432-0.432,0.504-0.432c0.288,0,0.432,0.216,0.576,0.72l2.448,11.448
		l-34.344,2.88c-0.072,0-0.144,0-0.288,0c-0.576,0.072-1.152,0.144-1.728,0.216c-1.512,0.144-2.088,1.728-1.728,4.752l1.44,12.816
		c0.144,0.936-0.072,1.368-0.504,1.44c-1.296,0.144-2.448-0.504-3.312-2.016c-0.72-1.152-1.152-2.448-1.368-3.96l-2.88-18.792
		L115.56,433.024z"/>
	<path d="M103.104,476.656l4.32,14.832l13.752-11.808L103.104,476.656L103.104,476.656z M127.584,473.992l4.68,6.264l-36.216,28.872
		l-3.816-4.464l11.808-10.296l-3.6-10.728c-0.072-0.072-0.072-0.216-0.144-0.432c-1.728-5.04-4.392-7.92-7.992-8.568l-7.272-1.224
		c-2.376-0.432-3.816-1.656-4.536-3.744c-0.288-0.792-0.216-1.296,0.072-1.368c0.144-0.072,0.36-0.072,0.792,0l29.952,4.896
		c4.176,0.648,6.768,1.08,7.848,1.224c3.6,0.36,6.192,0.288,7.848-0.216L127.584,473.992z"/>
	<path d="M121.896,517.552c1.872,3.168,4.176,5.616,6.912,7.2c3.312,1.944,6.48,2.16,9.504,0.576c4.968-2.52,5.544-7.56,1.656-15.12
		l-0.432-0.864L121.896,517.552L121.896,517.552z M109.368,523.312c-0.072,0-0.216,0.072-0.504,0.216
		c-1.368,0.648-2.592,1.008-3.528,1.008c-1.008,0-2.232-0.36-3.456-1.08c-1.152-0.648-1.8-1.224-2.088-1.728
		c-0.144-0.36-0.072-0.648,0.36-0.864l0.216-0.072l34.056-17.64l2.232-5.616c0.072-0.216,0.216-0.36,0.36-0.432
		c0.144-0.072,0.288-0.072,0.432,0.072c0.144,0.072,0.216,0.216,0.288,0.36l5.832,10.584c0.432,0.792,0.936,1.8,1.512,2.88
		c2.088,4.104,3.096,7.92,3.096,11.376c-0.072,4.464-1.944,7.632-5.688,9.504c-4.32,2.232-9,1.656-14.112-1.728
		c-3.672-2.376-7.2-5.976-10.656-10.728L109.368,523.312z"/>
	<path d="M135.936,545.344l9.144,12.384l8.928-15.768L135.936,545.344L135.936,545.344z M158.04,534.4l6.552,4.32L140.4,578.248
		l-5.112-2.88l7.632-13.752l-7.056-8.784c-0.072-0.072-0.216-0.216-0.36-0.432c-3.312-4.176-6.768-5.904-10.368-5.256l-7.272,1.296
		c-2.376,0.432-4.176-0.216-5.544-1.944c-0.504-0.72-0.648-1.152-0.432-1.368c0.144-0.072,0.36-0.144,0.792-0.216l29.808-5.688
		c4.176-0.792,6.768-1.296,7.776-1.512c3.528-0.864,5.976-1.872,7.344-2.88L158.04,534.4z"/>
	<path d="M167.112,553.768l-0.144-6.12c0-0.36,0.072-0.576,0.144-0.648c0.144-0.216,0.432-0.144,0.864,0.144l7.92,5.544
		l-15.048,32.184l28.584-18.288l5.4,3.24l-15.984,29.664l26.352-15.84c1.368-0.792,2.952-1.224,4.608-1.368
		c1.944-0.144,3.456,0.288,4.608,1.224c0.288,0.216,0.36,0.432,0.144,0.72c-0.144,0.144-0.288,0.288-0.36,0.288l-40.392,22.896
		l-3.888-2.304c-0.072-0.072-0.144-0.072-0.216-0.144c-0.072,0-0.144-0.072-0.144-0.072c-0.36-0.288-0.072-1.08,0.72-2.448
		c0.504-0.792,1.008-1.656,1.512-2.52l14.184-26.64l-30.312,19.368l-3.744-2.16c-0.072,0-0.144-0.072-0.216-0.072
		c-0.144-0.072-0.144-0.144-0.216-0.144c0,0,0.648-1.296,1.944-3.888c1.512-2.808,2.448-4.68,2.808-5.544L167.112,553.768z"/>
	<path d="M202.104,603.88l12.24,6.552c0.864,0.432,1.152,0.864,0.864,1.368c-0.504,0.936-1.44,1.512-2.736,1.656
		c-1.224,0.144-2.304,0-3.312-0.504l-10.08-4.896c-0.72-0.288-1.008-0.576-0.936-0.72c0-0.072,0.36-0.36,0.936-0.864L202.104,603.88
		z"/>
	<path d="M216.288,628.432l1.08-4.68c0.072-0.144,0.288-0.216,0.504-0.144c0.144,0.072,0.36,0.288,0.792,0.72
		c3.096,2.952,6.624,5.184,10.656,6.552c2.376,0.792,4.68,1.152,6.912,1.08c2.952-0.144,4.824-1.296,5.544-3.312
		c0.576-1.728-0.216-3.528-2.52-5.472c-0.504-0.504-2.304-1.728-5.4-3.672c-3.744-2.448-6.264-4.536-7.632-6.264
		c-2.16-2.808-2.592-5.832-1.44-9.216c1.584-4.536,4.896-7.488,10.08-8.856c4.536-1.152,9.216-0.864,13.968,0.792
		c3.24,1.08,6.12,2.664,8.568,4.68l-3.528,8.064c-0.216,0.504-0.432,0.72-0.648,0.648c-0.216-0.072-0.288-0.216-0.36-0.36
		l-3.096-5.4c-1.584-1.224-3.528-2.232-5.832-3.024c-2.52-0.864-5.04-1.224-7.416-1.008c-3.168,0.288-5.184,1.512-5.976,3.744
		c-0.648,1.944,0.144,3.888,2.304,5.976c1.08,1.008,2.952,2.376,5.688,4.032c3.6,2.304,6.192,4.32,7.632,6.048
		c2.448,2.88,3.168,5.904,2.088,9c-1.368,3.816-4.392,6.408-9.216,7.704c-4.248,1.152-8.424,1.08-12.456-0.36
		C222.552,634.336,219.168,631.96,216.288,628.432z"/>
	<path d="M302.76,632.392l15.336-0.072l-7.488-16.488L302.76,632.392L302.76,632.392z M306.864,608.128l7.344-2.808l17.784,42.84
		l-5.328,2.448l-6.696-14.256l-11.304,0.576c-0.072,0-0.216,0-0.504,0c-5.256,0.216-8.712,2.016-10.296,5.256l-3.24,6.696
		c-1.008,2.088-2.592,3.24-4.752,3.312c-0.936,0-1.368-0.144-1.368-0.432c0-0.144,0.072-0.432,0.216-0.792l12.96-27.432
		c1.8-3.816,2.952-6.192,3.312-7.2c1.368-3.384,1.944-5.904,1.944-7.632L306.864,608.128z"/>
	<path d="M327.6,612.664l-5.04-3.6c-0.216-0.216-0.36-0.36-0.432-0.504c-0.072-0.216,0.144-0.432,0.648-0.576l9.216-2.952
		l16.704,31.32l2.52-33.768l5.904-2.448l14.04,30.6l3.24-30.456c0.144-1.656,0.72-3.168,1.656-4.608
		c1.008-1.584,2.304-2.52,3.744-2.88c0.36-0.144,0.576,0,0.648,0.288c0.072,0.216,0.072,0.36,0.072,0.504l-6.12,46.008l-4.176,1.728
		c-0.072,0-0.072,0.072-0.216,0.072c-0.072,0.072-0.144,0.072-0.144,0.072c-0.36,0.144-0.864-0.576-1.512-2.016
		c-0.36-0.864-0.72-1.8-1.08-2.736l-12.744-27.36l-2.808,35.856l-3.96,1.728c0,0-0.144,0-0.216,0.072
		c-0.072,0.072-0.144,0.072-0.216,0.072c0,0-0.648-1.296-1.944-3.888c-1.296-2.88-2.232-4.752-2.736-5.544L327.6,612.664z"/>
	<path d="M393.12,613.672l13.824-6.84l-13.968-11.52L393.12,613.672L393.12,613.672z M386.208,589.984l5.4-5.688l34.704,30.744
		l-3.672,4.536l-12.24-9.864l-9.936,5.4c-0.072,0-0.216,0.072-0.432,0.216c-4.68,2.592-7.056,5.688-6.984,9.288v7.416
		c0,2.376-0.936,4.104-2.88,5.112c-0.792,0.432-1.224,0.504-1.368,0.216c-0.072-0.144-0.144-0.432-0.144-0.864l-0.36-30.312
		c-0.072-4.176-0.144-6.84-0.216-7.92c-0.216-3.6-0.72-6.192-1.584-7.704L386.208,589.984z"/>
	<path d="M448.488,597.328l-3.672-3.096c-0.144-0.144-0.144-0.36,0.072-0.504c0.072-0.072,0.36-0.216,0.936-0.432
		c4.104-1.368,7.632-3.528,10.728-6.48c1.8-1.728,3.168-3.672,4.104-5.688c1.224-2.736,1.008-4.824-0.504-6.408
		c-1.224-1.296-3.24-1.368-5.976-0.288c-0.648,0.288-2.592,1.368-5.688,3.168c-3.888,2.232-6.912,3.528-9.072,3.96
		c-3.456,0.648-6.408-0.288-8.856-2.88c-3.384-3.456-4.464-7.776-3.312-13.032c1.008-4.536,3.384-8.568,7.056-12.096
		c2.448-2.376,5.112-4.176,8.064-5.472l5.544,6.768c0.36,0.432,0.432,0.72,0.216,0.936c-0.072,0.072-0.216,0.144-0.432,0.144
		l-6.192,0.288c-1.8,0.864-3.6,2.088-5.328,3.816c-1.944,1.872-3.384,3.96-4.32,6.192c-1.152,2.952-0.936,5.256,0.72,6.984
		c1.368,1.44,3.456,1.656,6.336,0.648c1.368-0.504,3.384-1.584,6.12-3.168c3.744-2.232,6.696-3.6,8.928-4.104
		c3.672-0.864,6.624-0.144,8.928,2.232c2.808,2.952,3.744,6.84,2.736,11.664c-0.936,4.392-2.952,7.992-6.048,11.016
		C456.552,594.448,452.88,596.392,448.488,597.328z"/>
	<path d="M264.744,608.128l-2.88-5.184c-0.144-0.288-0.216-0.504-0.216-0.648c0.072-0.216,0.36-0.36,0.792-0.288l11.736,1.224
		l-4.824,20.52l12.384-5.4l-2.808,6.48l-10.728,3.744l-1.944,8.208c0,0.072,0,0.144-0.072,0.288c-0.144,0.576-0.216,1.08-0.36,1.656
		c-0.288,1.512,1.08,2.52,4.032,3.096l12.672,2.592c0.864,0.216,1.224,0.504,1.152,0.936c-0.216,1.296-1.224,2.16-2.952,2.52
		c-1.224,0.36-2.664,0.36-4.176,0.144l-18.72-3.096l2.52-13.608l-4.608,1.656l1.368-3.96l4.032-1.728L264.744,608.128z"/>
	<path d="M535.176,430.576l-38.016,1.44l-3.672,3.24l38.088,26.208L531.288,466c-0.072,0-0.072,0.072-0.072,0.216
		c0,0.072,0,0.144,0,0.216c-0.072,0.36-0.936,0.504-2.448,0.36c-1.008-0.072-1.944-0.216-2.952-0.288l-30.168-1.08l30.672,18.792
		l-0.288,4.32c0,0.072,0,0.144,0,0.216c0,0.144,0,0.216,0,0.216c-0.072,0.072-1.512,0.072-4.392,0
		c-3.168-0.144-5.256-0.144-6.192-0.072l-29.088,2.016l-5.472,2.88c-0.288,0.144-0.576,0.216-0.648,0.144
		c-0.216-0.072-0.288-0.288-0.216-0.864l1.512-9.504l35.496-0.648l-28.944-17.64l0.504-6.264l33.696,1.368l-25.776-16.776
		c-1.296-0.864-2.376-2.016-3.24-3.528c-0.864-1.368-1.152-2.736-1.08-3.96c-0.144-0.072-0.288-0.288-0.288-0.648l-1.08-32.04
		c-0.072-0.504,0.072-0.792,0.288-0.864c0,0,0.144,0.072,0.36,0.144l3.096,1.368l1.728,20.088l12.6,0.072l-0.504-19.44
		c0-0.432,0.072-0.648,0.288-0.648c0.072,0,0.144,0.072,0.216,0.072c0.072,0.072,0.072,0.072,0.072,0.072l3.096,2.16l2.232,17.784
		l8.784,0.072c0.792,0,1.44,0,1.944,0c1.728-0.072,2.952-0.72,3.6-1.944c0.432-0.936,0.648-2.376,0.576-4.392l-0.504-14.184
		c0-0.792,0.144-1.224,0.576-1.224c0.936,0,1.872,0.648,2.736,2.016c0.72,1.08,1.152,2.232,1.296,3.24
		c0.288,2.232,0.576,5.112,0.792,8.496c4.32,1.8,6.264-0.36,4.752-9.648l3.744-0.864c3.384,6.12-1.224,15.912-8.28,13.752
		C534.744,425.104,535.032,428.776,535.176,430.576z"/>
</g>
</svg>
