<svg xmlns="http://www.w3.org/2000/svg" width="1000" height="1000" viewBox="0 0 1000 1000"><path fill="#e2e3e4" d="M0 455.287v194.71h337.344L487.862 950l150.514-300.004h337.346V455.287H736.066L926.62 75.476H49.1l190.555 379.811Z"/><path fill="#fff" d="M226.267 485.915c-17.3 0-31.37 13.529-31.37 30.153v73.17c0 16.63 14.072 30.154 31.37 30.154H329.27c17.3 0 31.374-13.524 31.374-30.153v-73.171c0-16.624-14.074-30.153-31.374-30.153zm15.428 83.641v-33.814c0-6.415 5.476-11.637 12.2-11.637H301.5c6.724 0 12.197 5.22 12.197 11.637v33.814c0 6.415-5.473 11.636-12.197 11.636h-47.605c-6.724-.002-12.2-5.22-12.2-11.636M754.99 485.892H613.576V619.39h142.99v-41.47H662.08v-6.03h54.638v-38.504H662.08v-6.025h94.485v-41.47z"/><path fill="#17479e" d="M753.419 489.038v35.177h-94.487v12.322h54.636v32.208h-54.636v12.32h94.487v35.177H616.723V489.038z"/><path fill="#fff" d="M598.49 485.915h-50.988s-23.475 60.52-24.224 62.46h-.261l-21.731-62.46H469.92s-21.019 60.418-21.731 62.46h-.26l-24.225-62.46H370.34l56.501 133.475h34.72l24.04-58.646 24.045 58.646h34.72l56.498-133.475z"/><path fill="#17479e" d="M596.117 489.06c-1.776 4.193-53.05 125.33-53.834 127.184h-30.525c-.776-1.886-26.155-63.789-26.155-63.789s-25.376 61.903-26.153 63.789h-30.524c-.786-1.853-52.06-122.99-53.836-127.184h46.463l24.229 62.463h4.646s21.02-60.423 21.731-62.463h26.893c.708 2.04 21.731 62.463 21.731 62.463h4.646s23.47-60.52 24.226-62.463zM198.038 589.237v-73.171c0-14.892 12.663-27.008 28.229-27.008H329.27c15.566 0 28.229 12.116 28.229 27.008v73.17c0 14.893-12.663 27.006-28.229 27.006H226.267c-15.566 0-28.229-12.113-28.229-27.005m55.857-68.275c-8.459 0-15.346 6.632-15.346 14.78v33.814c0 8.15 6.885 14.78 15.346 14.78H301.5c8.458 0 15.343-6.633 15.343-14.78v-33.814c0-8.15-6.882-14.78-15.343-14.78z"/><path fill="#fff" d="M36.319 485.915h-1.57V619.39h46.41v-43.726h73.811c5.918-.112 25.195-2.069 26.057-22.494.277-6.541.414-12.828.414-18.922 0-6.841-.174-13.447-.524-19.926-1.53-28.407-21.372-28.407-37.313-28.407zm96.127 35.629c5.318 0 8.246 0 8.246 8.924 0 8.914-2.93 8.914-8.246 8.914l-51.288.005v-17.843z"/><path fill="#17479e" d="M143.602 489.06c16.124 0 32.804 0 34.171 25.436.658 12.145.69 24.751.11 38.543-.751 17.68-17.751 19.38-22.947 19.482h-76.92v43.723H37.89V489.06zM79.588 518.4h-1.571v24.14l54.431-.005c5.341 0 11.392 0 11.392-12.065 0-12.07-6.051-12.07-11.392-12.07z"/><path fill="#fff" d="M774.97 485.915h-1.575V619.39h46.416v-43.726h12.965c.898.86 45.407 43.726 45.407 43.726h65.122s-41.288-39.682-45.792-44.008c7.744-.896 21.44-4.866 22.16-21.928.28-6.598.419-12.929.419-19.069 0-6.887-.174-13.542-.522-20.06-1.529-28.408-21.372-28.408-37.318-28.408H774.97zm44.843 35.629c2.953.007 48.507.066 48.507.066 5.32 0 8.246 0 8.246 8.924 0 8.915-2.926 8.915-8.24 8.915 0 0-45.567-.053-48.513-.055z"/><path fill="#17479e" d="M882.252 489.06c16.13 0 32.809 0 34.172 25.436.348 6.463.522 13.06.522 19.892 0 6.099-.135 12.385-.414 18.936-.715 16.945-16.09 19.068-22.664 19.197l-3.799.068s40.468 38.896 45.426 43.655h-56.043c-.895-.86-45.407-43.723-45.407-43.723h-17.378v43.723h-40.124V489.06zm-65.585 30.912v22.565l51.653.06c5.34 0 11.391 0 11.391-12.063 0-12.072-6.05-12.072-11.384-12.072l-51.66-.064z"/><path d="M273.814 479.76h428.094L942.625 0H33.095ZM628.767 625.525H346.95l140.912 280.836Z"/><path fill="#17479e" d="M275.431 477.135h424.862L938.377 2.623H37.343Z"/><path fill="#fff" d="m910.346 19.919-220.73 439.92H286.103L65.372 19.92z"/><path fill="#17479e" d="M624.524 628.149H351.198l136.664 272.363Z"/><path fill="#fff" d="M596.49 645.446c-10.564 21.053-95.798 190.93-108.628 216.498-12.83-25.569-98.068-195.445-108.63-216.498z"/><path fill="#ffe600" d="m585.937 651.997-98.075 195.472-98.082-195.472ZM75.932 26.485l823.854-.002-214.145 426.804h-395.56Z"/><g fill="#17479e"><path d="M267.818 209.558V192.64h10.1v-5.79h-27.482v5.79h10.11v16.918ZM275.42 203.52h7.27v6.038h-7.27ZM739.8 104.781h10.093v16.915h7.247v-16.915h10.076V98.99h-27.415ZM215.89 99.026q-2.692-.366-9.856-.364c-4.786 0-8.074.119-9.854.364-2.587.36-4.165 1.62-4.752 3.783-.403 1.47-.6 3.94-.6 7.404 0 3.634.197 6.202.6 7.682.587 2.163 2.165 3.423 4.752 3.783q2.687.363 9.923.362c4.729 0 7.996-.121 9.787-.362 2.587-.357 4.163-1.62 4.752-3.783.399-1.48.603-4.002.603-7.553 0-3.536-.202-6.053-.603-7.533-.589-2.163-2.165-3.423-4.752-3.783m-1.606 14.924c-.14.6-.403 1.063-.797 1.37-.43.348-1.095.566-1.989.67-.9.098-2.7.148-5.414.148-2.898 0-4.845-.069-5.853-.201-1.361-.163-2.177-.83-2.447-1.98q-.208-.93-.209-3.01c0-2.298.126-3.833.387-4.606.257-.772.807-1.264 1.636-1.487.722-.19 2.878-.284 6.45-.284 3.136 0 5.118.055 5.938.177.816.114 1.41.42 1.76.91.286.384.476.964.589 1.725.105.762.162 1.965.162 3.592-.002 1.38-.073 2.367-.213 2.976M247.084 196.63c-.733-.422-1.714-.704-2.951-.858-1.237-.146-3.691-.28-7.36-.385-4.36-.14-6.802-.275-7.335-.419q-.967-.267-.967-1.47 0-1.24.967-1.52.96-.275 5.37-.275c2.445 0 4.04.025 4.795.076q1.125.076 1.577.343.369.218.49.564c.085.236.137.667.156 1.304h6.708c.01-.525.016-.875.016-1.068 0-2.062-.385-3.528-1.164-4.401q-1.162-1.305-4.291-1.74-2.026-.28-7.032-.28c-4.726 0-7.865.111-9.404.338-1.542.227-2.681.75-3.428 1.574-.976 1.056-1.464 2.86-1.464 5.423q-.002 3.43 1.285 4.894c.493.584 1.192 1.008 2.083 1.272q1.335.39 3.833.476c.857.018 2.694.096 5.526.234 2.76.128 4.564.197 5.42.197q1.659.036 2.205.373.537.34.538 1.354c0 .935-.254 1.501-.763 1.712q-.513.223-1.4.263c-.584.028-2.346.044-5.267.055-2.793-.02-4.46-.05-4.987-.09q-.786-.06-1.288-.375-.702-.485-.685-2.163h-6.7v1.061c0 1.64.168 2.853.491 3.648q.493 1.199 1.771 1.926 1.231.685 3.68.951 2.443.267 7.57.268 6.114 0 8.364-.201 2.095-.201 3.256-.763a4.1 4.1 0 0 0 1.807-1.714c.57-1.04.862-2.635.862-4.777 0-1.631-.172-2.88-.518-3.755a4.14 4.14 0 0 0-1.766-2.053M306.888 108.777c-.712-.422-1.67-.704-2.875-.86-1.207-.148-3.6-.279-7.171-.384-4.25-.138-6.633-.273-7.148-.422-.626-.176-.944-.664-.944-1.464 0-.831.318-1.336.944-1.523.623-.184 2.364-.273 5.232-.273q3.567-.001 4.67.073c.733.05 1.244.165 1.542.342q.355.219.476.566c.083.236.133.666.151 1.3h6.535q.016-.78.016-1.064c0-2.062-.378-3.526-1.134-4.402q-1.137-1.305-4.184-1.739-1.972-.283-6.855-.281-6.908 0-9.164.339c-1.501.226-2.617.749-3.336 1.571q-1.429 1.584-1.428 5.426-.001 3.429 1.251 4.893c.48.585 1.162 1.009 2.033 1.272q1.3.391 3.732.479c.84.016 2.628.094 5.386.231 2.688.129 4.447.2 5.286.2q1.616.036 2.149.373c.341.227.522.678.522 1.352 0 .935-.247 1.503-.75 1.714q-.498.222-1.355.263-.86.044-5.142.057c-2.72-.025-4.341-.05-4.86-.091q-.759-.064-1.255-.376-.677-.481-.662-2.163h-6.53v1.06q0 2.459.475 3.65.483 1.201 1.727 1.927c.8.456 1.998.775 3.584.951 1.592.177 4.046.268 7.377.268q5.96 0 8.152-.197 2.045-.204 3.17-.767c.754-.376 1.34-.951 1.762-1.716.56-1.04.841-2.635.841-4.775 0-1.631-.167-2.88-.504-3.755a4.1 4.1 0 0 0-1.716-2.055M716.308 41.506v9.535h16.548V78.89h11.896V51.041h16.526v-9.535ZM220.053 192.189v-5.338h-25.151v22.707h25.286V204.1H201.72v-3.64h10.395v-4.99H201.72v-3.281ZM279.012 116.248H261.02v-3.638h9.854v-4.99h-9.854v-3.283h17.866v-5.339h-24.514v22.71h24.64ZM651.802 41.506v9.535h16.55V78.89h11.892V51.041h16.532v-9.535ZM221.735 72.561h24.574l3.187 6.328h12.856l-19.44-37.383H225.32l-19.706 37.383h12.93zM232.92 50.22h2.26l7.163 14.154h-16.587zM597.606 72.561h24.574l3.19 6.328h12.85l-19.44-37.383h-17.586l-19.71 37.383h12.935zm11.187-22.342h2.257l7.167 14.154h-16.588zM181.792 99.18c-.862-.122-2.798-.184-5.797-.184h-15.164v22.712h6.747v-5.563h8.48q3.94 0 5.386-.163c1.35-.16 2.408-.433 3.191-.838a4.28 4.28 0 0 0 1.815-1.741c.639-1.135.957-3.1.957-5.905 0-2.95-.387-4.996-1.157-6.149q-1.16-1.721-4.458-2.17m-1.34 10.108a1.48 1.48 0 0 1-.713.85 2.3 2.3 0 0 1-.914.268c-.344.034-1.28.055-2.816.069h-8.431v-5.804h8.429q3.081.052 3.533.234.619.248.861.81c.16.379.245.972.245 1.783 0 .807-.068 1.403-.194 1.79M179.031 41.803c-1.45-.194-4.703-.297-9.742-.297h-25.122v37.383h10.99V68.26h14.235c4.413 0 7.43-.09 9.039-.27 3.702-.418 7.18-1.378 8.846-5.057 1.012-2.234 1.175-4.94 1.175-7.43 0-4.86-.653-8.227-1.943-10.124q-1.948-2.83-7.478-3.575m-2.259 16.098a2.44 2.44 0 0 1-1.198 1.402q-.684.359-1.535.44c-.575.055-2.147.112-4.727.112h-14.154v-9.24h14.154c3.448 0 5.428.183 5.937.38.685.27 1.17.72 1.44 1.336.273.625.406 1.6.406 2.935 0 1.326-.105 2-.323 2.635M224.36 104.79h9.86v16.918h7.083V104.79h9.84v-5.792h-26.782ZM712.653 121.671c1.836.243 5.224.36 10.157.36 4.843 0 8.186-.117 10.024-.36q3.961-.537 4.861-3.782.613-2.225.614-7.557c0-3.535-.204-6.053-.614-7.533q-.9-3.243-4.861-3.782-2.758-.361-10.093-.362-7.348-.001-10.085.362c-2.644.36-4.264 1.62-4.869 3.782-.405 1.476-.612 3.941-.612 7.41 0 3.633.207 6.197.612 7.682q.903 3.24 4.866 3.78m1.827-15.336c.268-.773.824-1.27 1.677-1.492.742-.19 2.948-.282 6.603-.282 3.205 0 5.237.055 6.071.177.84.11 1.443.419 1.808.907.288.387.488.967.602 1.727.106.768.165 1.966.165 3.593 0 1.384-.073 2.373-.215 2.98-.14.596-.413 1.06-.816 1.368-.437.346-1.12.566-2.041.67q-1.371.146-5.54.148c-2.967 0-4.96-.068-5.991-.201-1.393-.165-2.23-.827-2.502-1.98-.14-.618-.216-1.624-.216-3.013-.004-2.3.131-3.835.395-4.602M768.817 98.99h7.254v22.706h-7.254ZM714.34 188.972q-.977-.834-3.173-1.18c-1.469-.233-3.641-.353-6.525-.353-3.345 0-5.522.168-6.924.507q-2.104.507-2.928 1.924c-.564.963-.846 2.665-.846 5.089 0 1.998.177 3.491.516 4.484.348.994.935 1.716 1.764 2.142 1.162.598 3.368.896 7.022.896.387 0 1.396-.04 1.746-.046l-7.08 7.968h8.567l7.962-8.745c.687-.754 1.028-2.073 1.056-2.32.332-2.927.46-6.466.316-7.355q-.34-2.064-1.473-3.01m-4.145 7.35a1.32 1.32 0 0 1-.644.687c-.492.246-2.107.37-5.23.37-2.177 0-3.52-.088-4.04-.253q-.55-.168-.756-.634c-.137-.307-.21-.811-.21-1.517 0-1.107.288-1.794.859-2.05.577-.257 2.094-.381 4.564-.381 2.68 0 4.117.112 4.717.318.348.122.596.33.729.63.133.298.197.78.197 1.437.004.619-.062 1.084-.186 1.393M679.006 187.694l-.011 6.145h3.398v16.564h5.927v-22.71ZM704.477 121.696V98.99h-12.443l-6.743 14.741-6.736-14.74h-12.512v22.706h6.805l-.165-17h1.214l8.54 17h5.727l8.548-17h1.127l-.165 17ZM663.365 109.998c.204-.777.305-1.986.305-3.638 0-1.966-.158-3.4-.48-4.314-.322-.92-.913-1.634-1.775-2.159a5.1 5.1 0 0 0-2.243-.77q-1.159-.112-7.029-.125h-16.681v22.707h6.903v-5.774h9.728c1.425 0 2.369.034 2.811.108.447.073.8.245 1.056.506.255.291.422.703.52 1.246.097.539.145 1.435.145 2.702v1.214h6.8v-2.112q0-2.943-.147-3.875a3.2 3.2 0 0 0-.699-1.567c-.632-.72-1.668-1.143-3.118-1.246 1.23-.19 2.145-.534 2.754-1.036.559-.47.946-1.088 1.15-1.867m-6.798-.937c-.126.367-.332.648-.625.834a1.84 1.84 0 0 1-.839.266c-.327.025-1.335.052-3.033.089h-9.707v-5.586h9.69q2.393.02 2.897.048c.339.026.63.087.873.202.341.16.582.428.72.79q.207.559.208 1.664c0 .756-.067 1.322-.184 1.693M633.16 104.325V98.99h-25.093v22.707h25.22v-5.457h-18.415v-3.636h10.355v-4.992h-10.355v-3.286ZM741.842 188.972c-.65-.557-1.716-.948-3.185-1.18q-2.195-.351-6.518-.353c-3.347 0-5.524.168-6.926.507q-2.099.507-2.925 1.924c-.562.963-.848 2.665-.848 5.089q-.001 2.996.52 4.484c.346.994.935 1.716 1.76 2.142 1.163.598 3.367.896 7.02.896.391 0 1.4-.04 1.748-.046l-7.078 7.968h8.564l7.969-8.745c.685-.754 1.024-2.073 1.05-2.32.338-2.927.462-6.466.315-7.355q-.334-2.064-1.466-3.01m-4.151 7.35c-.12.298-.333.534-.642.687-.49.246-2.105.37-5.23.37-2.175 0-3.52-.088-4.033-.253-.369-.112-.628-.323-.758-.634q-.208-.46-.21-1.517c0-1.107.288-1.794.86-2.05.569-.257 2.09-.381 4.555-.381 2.679 0 4.127.112 4.724.318q.523.182.73.63c.134.298.196.78.196 1.437q-.002.929-.192 1.393M600.055 99.17c-.88-.117-2.866-.18-5.934-.18h-15.517v22.706h6.9v-5.56h8.679c2.69 0 4.523-.055 5.51-.163 1.382-.16 2.47-.433 3.27-.836a4.32 4.32 0 0 0 1.855-1.746c.653-1.134.98-3.097.98-5.902 0-2.955-.398-4.997-1.186-6.151q-1.183-1.717-4.557-2.168m-1.372 10.11a1.52 1.52 0 0 1-.733.85 2.5 2.5 0 0 1-.93.269c-.356.03-1.313.055-2.887.066h-8.626v-5.803h8.626c2.103.034 3.308.115 3.62.234.421.162.717.435.88.808.164.383.251.974.251 1.788-.002.804-.073 1.404-.201 1.789M812.112 41.506h-17.586l-19.708 37.383h12.93l3.19-6.328h24.574l3.19 6.328h12.85zm-17.15 22.867 7.164-14.154h2.26l7.16 14.154zM804.442 99.014c-1.833-.24-5.201-.362-10.086-.362q-7.351 0-10.087.362-3.964.54-4.867 3.783c-.41 1.476-.614 3.94-.614 7.41 0 3.633.204 6.197.614 7.682.603 2.162 2.22 3.422 4.867 3.782 1.835.243 5.221.36 10.158.36 4.842 0 8.184-.117 10.017-.36 2.646-.357 4.264-1.62 4.866-3.782q.614-2.225.614-7.557c0-3.535-.203-6.053-.614-7.533-.604-2.165-2.222-3.425-4.868-3.785m-1.64 14.93c-.145.595-.415 1.058-.82 1.367-.44.346-1.121.566-2.04.67-.919.095-2.765.148-5.537.148q-4.455-.001-5.994-.202-2.091-.249-2.502-1.98-.213-.928-.213-3.012c0-2.298.128-3.833.394-4.6q.398-1.16 1.675-1.492 1.119-.284 6.607-.282c3.203 0 5.231.055 6.07.177.838.11 1.445.419 1.807.907.289.387.488.967.605 1.727.103.768.165 1.966.165 3.593 0 1.381-.078 2.369-.218 2.978M769.34 188.972c-.653-.557-1.718-.948-3.187-1.18-1.46-.233-3.636-.353-6.518-.353-3.345 0-5.522.168-6.924.507q-2.104.507-2.93 1.924c-.56.963-.843 2.665-.843 5.089q0 2.996.515 4.484c.346.994.935 1.716 1.76 2.142 1.161.598 3.372.896 7.022.896.387 0 1.4-.04 1.746-.046l-7.077 7.968h8.564l7.968-8.745c.69-.754 1.024-2.073 1.054-2.32.335-2.927.46-6.466.316-7.355q-.338-2.064-1.466-3.01m-4.154 7.35a1.32 1.32 0 0 1-.641.687c-.493.246-2.106.37-5.233.37-2.175 0-3.522-.088-4.035-.253q-.552-.168-.758-.634c-.135-.307-.209-.811-.209-1.517 0-1.107.287-1.794.862-2.05.568-.257 2.09-.381 4.557-.381 2.68 0 4.124.112 4.724.318q.523.182.73.63c.134.298.196.78.196 1.437q-.003.929-.193 1.393M348.437 98.998 336.7 121.71h7.703l1.897-3.847h14.638l1.899 3.847h7.65l-11.575-22.712zm.262 13.891 4.263-8.598h1.347l4.269 8.598zM509 51.83l14.138 27.06h10.104l14.145-27.06.005 27.06h11.162V41.505H540.63l-12.437 23.992-12.436-23.992H497.83v37.383h11.162ZM397.238 108.777c-.717-.422-1.673-.704-2.878-.86-1.21-.148-3.597-.279-7.173-.384-4.25-.138-6.628-.273-7.149-.422-.625-.176-.946-.664-.946-1.464 0-.831.319-1.336.946-1.523q.935-.274 5.233-.273c2.38 0 3.934.023 4.672.073q1.096.076 1.537.342.36.219.477.566c.085.236.133.666.153 1.3h6.54q.015-.78.015-1.064c0-2.062-.376-3.526-1.136-4.402q-1.137-1.305-4.184-1.739-1.973-.283-6.855-.281-6.906 0-9.166.339-2.248.338-3.334 1.571-1.426 1.584-1.427 5.426-.002 3.429 1.248 4.893.724.877 2.035 1.272 1.3.391 3.732.479 1.254.025 5.384.231c2.69.129 4.452.2 5.286.2q1.616.036 2.146.373.524.34.525 1.352c0 .935-.247 1.503-.747 1.714q-.5.222-1.363.263c-.568.03-2.284.048-5.132.057-2.724-.025-4.346-.05-4.86-.091-.506-.042-.93-.168-1.257-.376-.454-.32-.672-1.043-.662-2.163h-6.53v1.06q.001 2.459.476 3.65c.317.8.896 1.444 1.726 1.927q1.2.686 3.583.951 2.383.267 7.375.268 5.962 0 8.152-.197 2.044-.204 3.173-.767a4.06 4.06 0 0 0 1.762-1.716c.556-1.04.84-2.635.84-4.775 0-1.631-.167-2.88-.506-3.755-.327-.868-.907-1.556-1.711-2.055M435.48 72.561h24.577l3.19 6.328h12.85l-19.44-37.383h-17.586l-19.71 37.383h12.935zm11.188-22.342h2.26l7.164 14.154h-16.586zM328.755 121.708V104.79h9.847v-5.792h-26.788v5.792h9.854v16.918ZM330.558 78.89l-9.108-12.13c4.049-.43 6.688-3.95 7.522-7.127.335-1.279.502-3.27.502-5.99 0-3.237-.259-5.599-.79-7.106-.53-1.515-1.494-2.69-2.91-3.554-1.178-.728-2.404-1.148-3.677-1.269-1.272-.121-5.119-.206-11.543-.206H283.53v37.384h10.99V68.298h16.886l7.417 10.591zm-12.734-20.801q-.309.912-1.036 1.376c-.38.243-.845.383-1.372.434q-.808.064-4.97.146h-15.925V50.85h15.898c2.607.018 4.197.048 4.745.084.559.037 1.03.138 1.43.328q.848.41 1.184 1.306c.231.61.341 1.526.341 2.74 0 1.242-.103 2.165-.295 2.782M398.993 59.63c.334-1.278.502-3.269.502-5.988 0-3.238-.26-5.6-.789-7.107-.529-1.515-1.498-2.69-2.91-3.554-1.177-.729-2.405-1.148-3.679-1.27-1.274-.12-5.12-.205-11.538-.205h-27.028v37.383h10.988V68.298h16.886l7.416 10.591h11.74l-9.11-12.129c4.05-.433 6.695-3.95 7.522-7.13m-11.151-1.541c-.204.607-.545 1.067-1.031 1.376-.383.243-.845.383-1.375.434-.538.043-2.192.091-4.97.146H364.54V50.85h15.898c2.612.018 4.2.048 4.747.084.56.037 1.034.138 1.435.328.565.273.953.708 1.175 1.306.234.61.346 1.526.346 2.74.002 1.242-.099 2.165-.298 2.782M534.88 689.14h10.457v9.604H534.88ZM467.091 678.172c-1.054-.67-2.465-1.122-4.248-1.367-1.782-.239-5.313-.443-10.584-.614-6.276-.218-9.788-.431-10.558-.67-.92-.281-1.386-1.056-1.386-2.33 0-1.317.465-2.121 1.386-2.419.926-.293 3.499-.435 7.728-.435 3.515 0 5.808.034 6.892.117q1.622.123 2.275.543.526.346.699.902c.128.37.199 1.057.23 2.07h9.651c.016-.832.023-1.394.023-1.703 0-3.279-.557-5.609-1.673-7-1.12-1.383-3.175-2.306-6.174-2.765-1.948-.295-5.322-.456-10.124-.456-6.791 0-11.305.184-13.523.546-2.215.36-3.858 1.191-4.928 2.502-1.404 1.681-2.107 4.554-2.107 8.628q-.001 5.466 1.846 7.79c.71.93 1.716 1.613 3 2.027 1.28.415 3.117.662 5.512.759 1.234.027 3.88.155 7.945.366 3.973.21 6.566.319 7.801.319q2.39.057 3.176.595c.51.362.772 1.077.772 2.152 0 1.491-.371 2.394-1.102 2.726-.493.238-1.16.376-2.01.415q-1.27.071-7.58.094c-4.017-.037-6.411-.085-7.17-.147-.753-.057-1.374-.261-1.855-.593q-1.007-.775-.98-3.444h-9.64v1.686c0 2.605.239 4.541.704 5.801.472 1.279 1.32 2.296 2.55 3.075 1.182.724 2.946 1.233 5.29 1.508 2.344.281 5.973.426 10.89.426q8.794-.002 12.028-.316c2.01-.216 3.574-.624 4.68-1.222q1.668-.894 2.599-2.726c.827-1.656 1.244-4.195 1.244-7.6 0-2.59-.245-4.582-.743-5.968a6.43 6.43 0 0 0-2.536-3.272M520.911 684.794c-.032 2.261-.341 3.707-.93 4.32q-.675.714-2.57.926c-1.267.14-3.817.209-7.623.209-3.095 0-5.251-.08-6.48-.234-1.218-.165-2.107-.481-2.661-.958q-.896-.747-1.201-2.419-.31-1.689-.312-5.787c0-2.736.115-4.736.34-5.99.238-1.255.648-2.141 1.237-2.675.497-.44 1.335-.733 2.534-.887q1.798-.225 6.463-.224c3.15 0 5.49.08 7.036.256q2.324.246 2.898.804c.27.27.45.603.538 1.008.08.41.156 1.208.204 2.415h9.95c.017-1.042.028-1.647.028-1.8 0-2.974-.305-5.213-.91-6.739-.611-1.528-1.649-2.687-3.136-3.46-1.139-.579-2.658-.98-4.575-1.195-1.911-.209-4.977-.319-9.192-.319-8.422 0-14.015.346-16.792 1.022q-4.169 1.02-5.53 4.463c-.417 1.027-.7 2.459-.841 4.31q-.215 2.784-.216 9.057.001 6.433.216 8.9.266 3.044 1.148 4.787c.59 1.168 1.489 2.096 2.68 2.781 1.338.758 3.334 1.276 5.969 1.54 2.639.26 7.077.391 13.295.391 5.922 0 10.085-.311 12.495-.955 2.408-.635 4.03-1.833 4.855-3.595q1.13-2.357 1.128-6.545c0-.511-.035-1.65-.092-3.412h-9.953zM474.304 689.14h10.456v9.604h-10.456Z"/></g><path d="M487.862 129.175c114.574 0 208.016 93.444 208.016 208.02 0 42.935-13.119 82.896-35.562 116.09H315.404c-22.439-33.194-35.56-73.157-35.56-116.09 0-114.576 93.44-208.02 208.018-208.02"/><path fill="#17479e" d="M487.862 135.677c110.993 0 201.516 90.528 201.516 201.518 0 43.169-13.705 83.236-36.969 116.09h-329.1c-23.267-32.854-36.97-72.923-36.97-116.09 0-110.99 90.529-201.518 201.523-201.518"/><path fill="#fff" d="M295.957 326.356a189 189 0 0 0-.327 10.839c0 43.554 14.626 83.797 39.2 116.09h4.454l1.006-17.99-28.87-89.987zM447.05 400.402l-12.612-38.878-11.744-36.21-62.87-28.578-40.97 51.154 25.583 79.725 65.603 15.35 6.363 10.322H560.12l6.152-9.728 64.991-15.898 25.576-79.71-41.79-50.83-62.027 28.192-11.744 36.211-12.61 38.878h-40.81ZM438.865 151.332c-46.833 12.385-86.723 42.085-112.427 81.778l24.242-6.401 74.768-54.544zM679.765 326.356l-15.472 18.954-28.872 89.976 1.012 17.999h4.454c24.574-32.293 39.199-72.536 39.199-116.09.004-3.638-.117-7.25-.321-10.84M649.284 233.113c-25.708-39.694-65.594-69.393-112.433-81.779l11.263 17.488 80.738 58.9z"/><path fill="#fff" d="m618.313 227.818-66.479-48.503-63.972 27.977-62.453-27.312-67.968 49.588 2.878 60.48 65.432 29.744 29.09-21.172 33.019-24.03 33.015 24.03 29.092 21.172 64.314-29.232Z"/><path d="m551.252 346.646 16.283-35.707 2.834-7.838c2.48-6.839 3.691-13.394 3.707-20.038v-.078c0-7.075-2.302-11.627-6.71-13.762.105-1.34.302-2.766.302-4.005 0-7.37-1.828-13.041-5.462-16.91-3.496-3.722-8.404-5.568-14.594-5.527-2.539-3.16-5.645-6.392-8.823-9.554-4.042-4.014-8.218-8.163-10.615-11.833-5.35-8.198-11.822-15.82-26.11-12.62-8.831-3.352-15.615-3.711-21.077-.868-6.014 3.13-9.213 9.609-11.2 16.081-7.516-3.372-18.38-5.361-26.299-2.144-5.83 2.37-9.62 6.5-10.924 11.171-7.414-1.278-16.152-.325-22.017 4.864-2.903 2.566-5.9 6.915-5.9 13.914 0 .832.26 1.88.346 2.786-3.947 1.578-6.85 4.014-8.614 7.304-1.286 2.396-1.93 5.118-1.93 8.204 0 2.828.704 6.065 1.79 9.531-4.569 4.564-7.153 10.526-7.153 17.206q0 2.026.302 4.113c1.78 12.237 10.588 22.244 19.104 31.922l3.182 3.636 36.84 41.51c-15.739 17.4-63.91 71.746-64.427 72.33l-2.619 2.953H581.34c-11.458-14.65-47.465-60.666-50.115-64.05z"/><path fill="#17479e" d="m387.42 453.287 30.836-34.955a150 150 0 0 1 2.61-3.077c10.344-11.91 21.754-24.242 33.638-37.217l-39.46-44.46c-9.38-10.826-19.454-20.955-21.25-33.279-1.065-7.345 1.279-14.624 7.476-19.39-4.79-12.642-2.426-20.693 8.58-23.197-4.882-20.595 15.346-23.294 26.854-19.025-1.535-5.774 2.89-10.448 8.464-12.718 8.319-3.386 21.969.399 27.465 4.667 4.019-17.699 10.862-24.746 29.173-17.264 11.56-3.074 16.73 1.405 22.634 10.46 5.029 7.697 16.019 16.195 21.172 23.48 14.218-1.108 19.414 8.343 17.057 25.04 4.926.642 6.965 4.019 6.951 10.697-.011 4.571-.6 10.688-3.439 18.533l-2.772 7.666-16.187 35.494-21.197 45.075 49.662 63.463H387.42z"/><path fill="#fff" d="M478.054 237.379c.142 4.586 1.345 8.52 3.59 10.644 2.552 2.401 6.312 3.469 9.948 2.839 4.094-.708 7.845-3.476 6.019-7.135-2.612 1.94-5.478 3.002-7.703 2.99-1.86-.011-4.197-.85-5.524-2.362-1.5-1.711-1.908-4.27-2.43-7.222 1.828-1.271 13.077-1.024 16.454-.201 2.481.605 2.596-.85-.2-1.998-2.787-1.148-11.145-2.6-19.783-2.6-.398-1.199-.362-4.736.09-5.77 3.796-2.4 9.136-.856 13.501-.025 1.65.314 1.881-1.46.685-1.83-2.215-.69-5.595-1.143-8.097-2.154-1.5-.607-2.614-1.152-3.182-2.809-.27-.774 1.288-3.173 1.487-3.977 1.537-1.714 6.912-3.233 9.107-2.417 3.198 1.184 5.994 5.395 6.992 8.591.8 2.599-.657 6.413.197 9.192.956 3.089 2.663 6.473 3.526 9.978.873 3.517.94 6.708-.43 8.945-2.131 3.491-7.073 5.056-12.572 4.967-5.7-.092-9.684-1.602-12.243-4.436-2.532-2.809-3.659-6.926-3.659-12.26 1.402-.201 2.43-1.553 4.227-.95m13.973 30.55c1.464 1.255 5.669 4.281 7.6 8.88 2.057 4.89 1.666 11.196-5.396 9.198-2.382-.676-4.229-.497-6.98-2.465 0-3.487 3.196-8.424 5.833-10.81-.731-.091-1.542-.361-2.154-.25-3.29.613-5.233 4.817-6.658 8.075-3.53-2.067-8.672-5.646-12.903-9.928-4.5-4.554-8.056-9.826-10.604-11.84-3.878-3.07-9.966-9.829-15.027-12.663-1.666-.93-2.591-.509-2.222-.163 4.286 4.003 13.554 14.98 16.422 18.212 4.014 4.534 7.717 8.956 12.565 13.094 4.22 3.608 8.94 6.738 13.32 8.949 2.35 1.191 5.856 3.072 8.812 5.141 5.5 3.84 7.865 10.005 4.926 16.656-3.02 6.826-11.971.743-15.94-2.28 1.964-6.56 5.165-11.187 9.492-13.567-1.413-.41-2.747-.715-3.975-.206-4.392 1.817-7.485 8.818-8.447 12.275-7.581-4.882-20.902-16.03-34.62-25.994-5.053-3.666-10.595-8.59-15.28-12.404-2.456-1.991-5.666-3.996-7.013-4.782-2.154-1.003-3.389.115-1.37 1.334 2.518 1.519 6.238 5.042 8.621 7.601 5.753 6.173 13.314 12.24 18.208 15.97 3.594 2.737 10.988 8.346 14.397 10.726 5.448 3.797 16.892 12.015 21.151 15.88 4.894 4.438 11.987 6.972 10.017 15.877-.687 3.105-2.89 5.336-7.226 5.64-3.9.274-9.423-1.64-11.236-3.988-.847-4.607 2.752-10.525 7.405-15.222-.474-.43-1.02-.811-1.647-.603-5.027 1.682-8.195 7.385-9.357 13.163-.82-1.755-14.271-12.526-15.68-13.582-5.13-3.847-11.412-8.949-16.838-12.28-7.872-4.83-12.307-8.106-18.766-12.255-1.473-.946-4.475-2.869-6.321-4.07-1.735-1.136-5.398-1.246-4.19-.01 1.544 1.578 3.514 3.344 5.817 5.083 4.831 3.652 9.72 7.15 15.838 11.348 1.063.729 2.577 2.642 3.638 3.377 2.387 1.65 5.492 2.727 7.765 4.372 6.763 4.905 14.342 9.542 19.002 13.423 2.562 2.133 9.3 6.287 9.323 11.561.013 2.573-1.171 6.071-3.384 7.022-2.844 1.215-7.096-.627-9.628-1.876-1.688-2.635.058-8.816 3.616-12.872-.38-.268-1.457-.705-1.973-.35-3.986 2.768-5.586 9.506-5.107 11.95-5.267-1.372-11.13-5.203-20.613-11.85-13.662-9.585-25.003-13.331-24.833-13.28 2.397 5.195 13.256 9.853 16.063 13.72.68.94 4.527 6.736 5.26 7.641 2.818 3.474 5.68 5.478 8.535 9.68 1.182 1.74 2.004 3.611 2.08 5.726-2.195 1.457-5.714-.145-9.006-2.743-1.506-1.184-2.974-2.568-4.312-3.901-3.888-3.865-6.495-7.501-9.932-11.712-3.373-4.138-7.419-8.571-11.753-14.017-6.088-7.65-8.395-13.813-9.252-17.053-.887-3.322-1.056-6.358-.451-9.018 1.015-4.429 4.2-7.808 9.874-9.723-2.25-2.211-6.887-10.058-4.05-16.389 1.292-2.88 4.68-4.742 11.732-4.403-2.437-8.582-1.601-14.723 2.163-17.208 4.007-2.644 11.694-3.884 21.28-1.224.037-5.437 2.055-10.136 7.687-12.131 4.103-1.455 10.74-1.425 16.906.552.318.098 6.903 3.443 7.466 4.857-.492 3.714.26 11.045 2.106 14.205 2.635 4.5 15.06 14.356 19.224 17.923m-98.526 185.358c17.192-17.586 35.629-34.318 49.518-50.585 18.152-21.264 27.035-41.185 22.805-55.536 4.848 1.478 12.326-5.838 10.562-10.526 16.235 9.046 29.871-4.834 21.124-20.668 6.046.49 8.928-5.155 9.69-9.812 1.113-6.805-2.038-13.864-4.258-16.017 4.395-3.256 5.004-7.497 4.065-11.137-2.065-8.008-12.526-15.332-12.998-18.581 7.703-.312 13.383-4.525 15.596-10.37 1.94-5.118.075-16.383-6.127-19.426-1-4.795-1.06-7.918-1.06-13.513 9.251-2.962 19.611 4.837 24.029 17.946 6.33 1.783 15.098 11.3 16.028 18.934 1.515 12.402 1.414 22.075.04 34.4l-.65 5.793c1.495.256 3.069-5.838 4.212-13.225.082-.554 1.413-19.369.185-26.68 3-2.595 8.18-.325 10.904 3.508 2.726 6.09.421 23.603-1.178 32.323-.195 1.063.797 1.769 2.041-.577 1.634-3.084 2.894-11.428 3.34-13.777 3.316 1.32 3.367 2.021 3.3 5.774-.435 23.243-10.287 34.453-13.43 41.164-.58 1.237-6.127 14.448-8.66 19.949-.81 1.757-12.732 28.556-26.646 55.82-8.773 17.188-21.36 38.818-29.975 54.817h-92.457zm98.091 0 27.438-49.898c13.273 13.24 23.422 29.411 31.235 49.898z"/></svg>