<svg height="1000" viewBox="0 0 1000 999.99998" width="1000" xmlns="http://www.w3.org/2000/svg" xmlns:xlink="http://www.w3.org/1999/xlink"><defs><clipPath id="a"><use height="100%" width="100%" xlink:href="#d"/></clipPath><clipPath id="b"><use height="100%" width="100%" xlink:href="#e"/></clipPath><clipPath id="c"><use height="100%" width="100%" xlink:href="#f"/></clipPath><path id="d" d="M 262.65201 549.72302 H 602.65201 V 752.86702 H 262.65201 Z"/><path id="e" d="m 400.408 709.637 c .009 -.048 .014 -.086 .018 -.128 c -2.293 1.281 -4.313 2.998 -5.953 5.031 c .341 -.09 .672 -.123 .922 -.138 c .501 -.756 2.066 -2.842 5.013 -4.765"/><path id="f" d="M 394.47299 709.50897 H 400.42599 V 714.53997 H 394.47299 Z"/><path id="g" d="M 394.47299 709.50897 H 400.42599 V 714.53997 H 394.47299 Z"/></defs><g transform="matrix(4.6765092 0 0 4.6765092 -1228.2945 -2570.7848)"><g><path clip-path="url(#a)" d="m 543.227 743.172 c -.298 1.22 -.256 1.697 -.138 2.194 h -5.683 c .359 -.497 .639 -.975 .936 -2.194 l 2.038 -8.412 c .303 -1.225 .255 -1.707 .137 -2.204 h 11.094 l -.218 2.464 c -.464 -.16 -.979 -.34 -2.123 -.34 h -3.986 l -.724 2.998 h 3.481 c 1.125 0 1.73 -.18 2.284 -.336 l -.677 2.804 c -.482 -.16 -1.002 -.34 -2.123 -.34 h -3.484 z" fill="#00539b"/><path clip-path="url(#a)" d="m 563.664 735.019 c -.491 -.198 -.936 -.34 -1.882 -.34 h -3.499 c -.643 0 -1.012 .198 -1.163 .822 l -1.679 6.928 c -.151 .619 .118 .818 .757 .818 h 2.766 c 1.963 0 2.317 -.143 3.06 -.477 l -1.055 2.596 h -7.887 c -2.081 0 -2.998 -.993 -2.332 -3.76 l 1.287 -5.286 c .671 -2.762 2.075 -3.765 4.156 -3.765 h 7.684 z" fill="#00539b"/><path clip-path="url(#a)" d="m 392.86 708.199 c -2.96 -3.178 -7.802 -3.632 -11.778 -3.632 h -43.216 c 0 0 4.705 7.353 4.714 7.362 c 0 .019 0 .019 0 .043 c 0 .222 -.047 .809 -.359 2.118 l -5.461 22.471 c -.624 2.582 -8.266 11.783 -8.266 11.783 h 67.218 c 4.151 2.847 9.159 4.522 14.565 4.522 c 5.244 0 10.237 -1.575 14.531 -4.522 h 19.737 c 0 0 -2.762 -5.735 -3.055 -6.341 c .1 -.128 1.484 -1.769 2.411 -2.865 h 12.598 c .09 .308 .213 .752 .213 .752 c -.223 .265 -7.226 8.454 -7.226 8.454 h 87.324 l -6.474 -7.811 c -.218 -.265 -2.752 -7.727 -2.932 -8.237 c 2.316 -1.03 4.927 -3.201 6.091 -7.981 c 0 -.01 1.531 -6.313 1.531 -6.313 c .308 -1.253 .464 -2.439 .464 -3.532 c 0 -2.231 -.634 -4.171 -1.892 -5.759 c -2.885 -3.675 -8.072 -4.143 -12.262 -4.143 h -43.215 c 0 0 4.705 7.348 4.71 7.362 c 0 .015 0 .033 0 .033 c 0 .293 -1.727 7.755 -3.093 13.382 c -2.322 -8.814 -5.476 -20.777 -5.476 -20.777 h -31.876 c 0 0 4.104 5.76 4.605 6.469 c -1.636 1.977 -6.048 7.301 -11.094 13.392 c -1.338 -12.957 -12.318 -23.095 -25.624 -23.095 c -6.484 -.001 -12.693 2.524 -17.413 6.865" fill="#00539b"/><path clip-path="url(#a)" d="m 511.819 720.729 c -.118 .483 -.218 .606 -.222 .606 c -.038 .019 -.303 .104 -1.324 .104 h -7.036 c .435 -1.793 .874 -3.604 1.177 -4.848 h 7.803 c .26 0 .449 .005 .601 .015 c -.067 .275 -.999 4.123 -.999 4.123 m -62.181 6.379 c 1.815 -2.265 3.489 -4.354 5.225 -6.535 c .695 2.521 1.277 4.663 1.793 6.535 z m -78.075 -6.379 c -.118 .483 -.217 .606 -.217 .606 c -.043 .019 -.303 .104 -1.329 .104 h -7.032 c .431 -1.793 .871 -3.604 1.178 -4.848 h 7.803 c .26 0 .44 .005 .596 .015 c -.068 .284 -.999 4.123 -.999 4.123 m 159.539 -10.062 c -1.593 -2.023 -4.605 -2.927 -9.765 -2.927 h -37.413 l 1.565 2.444 c .298 .464 .525 .918 .525 1.778 c 0 .662 -6.077 25.98 -6.162 26.282 c -.643 -2.459 -8.038 -30.505 -8.038 -30.505 H 448.55 c 0 0 2.118 2.979 2.449 3.442 c -1.205 1.461 -14.946 18.049 -19.435 23.469 c .842 -2.365 1.301 -4.904 1.301 -7.552 c 0 -12.451 -10.134 -22.584 -22.589 -22.584 c -7.49 0 -14.144 3.674 -18.248 9.311 c -.104 -1.239 -.497 -2.279 -1.183 -3.159 c -1.594 -2.023 -4.605 -2.927 -9.764 -2.927 h -37.409 l 1.565 2.444 c .525 .823 .814 1.594 .066 4.653 l -5.457 22.476 c -.742 3.06 -1.471 4.104 -2.421 5.248 l -2.166 2.597 h 24.253 l -.729 -2.104 c -.184 -.534 -.33 -1.045 -.33 -1.815 c 0 -.743 1.782 -8.503 2.373 -10.947 h 2.455 c .539 1.995 4 14.867 4 14.867 h 22.514 l -2.162 -2.597 c -.609 -.737 -3.636 -9.642 -4.619 -12.45 c 1.65 -.213 3.338 -.671 4.705 -1.958 c .553 11.964 10.455 21.53 22.556 21.53 c 5.079 0 9.768 -1.679 13.543 -4.525 h 15.666 l -1.438 -3.036 c 0 -.095 .005 -.345 .075 -.586 c .137 -.454 .421 -.979 .799 -1.419 c .01 -.01 2.45 -2.908 3.495 -4.156 h 16.493 c .35 1.253 .984 3.66 .984 3.93 c 0 .34 -.043 .719 -.128 1.064 c -.085 .364 -3.367 4.204 -3.367 4.204 h 43.371 l -.732 -2.104 c -.185 -.534 -.326 -1.05 -.326 -1.815 c 0 -.743 .132 -1.717 .486 -3.173 c 0 0 1.447 -5.959 1.887 -7.774 h 2.454 c .539 1.995 4.001 14.867 4.001 14.867 h 22.509 l -2.161 -2.597 c -.606 -.732 -3.632 -9.642 -4.62 -12.45 c 2.918 -.373 5.915 -1.522 7.145 -6.544 l 1.527 -6.318 c .246 -1.012 .369 -1.938 .369 -2.78 c .002 -1.52 -.396 -2.773 -1.205 -3.804" fill="#fff"/><path clip-path="url(#a)" d="m 353.357 696.68 l .421 1.248 c .151 -.09 .255 -.236 .321 -.478 l 1.215 -5.007 c .104 -.449 -.09 -.597 -.553 -.597 h -1.537 c -.459 0 -.723 .147 -.836 .597 l -1.216 5.007 c -.104 .449 .09 .592 .554 .592 h .689 l -.435 -1.362 z m -.047 4.086 l -.392 -1.192 h -3.447 c -1.504 0 -2.166 -.719 -1.684 -2.719 l .927 -3.82 c .482 -1.991 1.499 -2.719 3.007 -2.719 h 5.292 c 1.509 0 2.171 .728 1.683 2.719 l -.926 3.82 c -.482 2 -1.5 2.719 -3.003 2.719 h -.449 l .393 1.192 z" fill="#00539b"/><path clip-path="url(#a)" d="m 371.705 698.042 c .982 0 1.078 -.104 1.281 -.927 l 1.248 -5.136 c .25 -1.04 .256 -1.229 .057 -1.664 h 2.228 c -.411 .435 -.501 .624 -.752 1.664 l -1.149 4.729 c -.511 2.114 -1.276 2.865 -3.286 2.865 h -4.687 c -1.807 0 -2.336 -.922 -1.863 -2.865 l 1.164 -4.804 c .213 -.88 .18 -1.229 .1 -1.589 h 4.103 c -.26 .359 -.459 .709 -.671 1.589 l -1.276 5.273 c -.152 .604 .047 .865 .666 .865 z" fill="#00539b"/><path clip-path="url(#a)" d="m 388.009 698.042 c .827 0 1.263 -.133 1.65 -.246 l -.752 1.777 h -8.157 c .261 -.359 .464 -.709 .677 -1.588 l 1.475 -6.081 c .217 -.88 .18 -1.229 .1 -1.589 h 8.015 l -.148 1.777 c -.35 -.113 -.723 -.246 -1.545 -.246 h -2.881 l -.525 2.171 h 2.521 c .809 0 1.244 -.128 1.65 -.246 l -.492 2.028 c -.35 -.113 -.723 -.245 -1.531 -.245 h -2.517 l -.605 2.487 h 3.065 z" fill="#00539b"/><path clip-path="url(#a)" d="m 402.753 698.042 c .823 0 1.263 -.133 1.65 -.246 l -.752 1.777 h -8.157 c .26 -.359 .459 -.709 .672 -1.588 l 1.48 -6.081 c .213 -.88 .18 -1.229 .094 -1.589 h 8.02 l -.147 1.777 c -.35 -.113 -.723 -.246 -1.546 -.246 h -2.88 l -.529 2.171 h 2.52 c .814 0 1.248 -.128 1.649 -.246 l -.486 2.028 c -.35 -.113 -.724 -.245 -1.537 -.245 h -2.516 l -.601 2.487 h 3.066 z" fill="#00539b"/><path clip-path="url(#a)" d="m 413.945 691.904 h -.023 l -1.461 6.005 c -.251 1.04 -.251 1.229 -.053 1.664 h -2.227 c .406 -.435 .496 -.624 .747 -1.664 l 1.438 -5.93 c .255 -1.04 .261 -1.229 .062 -1.664 h 4.961 l 1.929 7.551 h .042 l 1.429 -5.887 c .251 -1.04 .26 -1.229 .061 -1.664 h 2.227 c -.411 .435 -.501 .624 -.752 1.664 l -1.844 7.594 h -4.572 z" fill="#00539b"/><path clip-path="url(#a)" d="m 438.138 692.154 c -.388 -.188 -.677 -.308 -1.362 -.308 h -3.281 c -.549 0 -.695 .076 -.78 .407 l -.123 .521 c -.085 .35 .033 .406 .581 .406 h 2.502 c 1.508 0 2.189 .521 1.863 1.863 l -.544 2.26 c -.359 1.466 -1.078 2.269 -2.767 2.269 h -6.369 l .151 -1.882 c .308 .175 .61 .35 1.306 .35 h 3.414 c .548 0 .68 -.057 .766 -.407 l .156 -.634 c .075 -.335 -.02 -.406 -.572 -.406 h -2.875 c -1.404 0 -1.84 -.464 -1.467 -2.01 l .502 -2.076 c .355 -1.438 1.244 -2.193 2.487 -2.193 h 6.554 z" fill="#00539b"/><path clip-path="url(#a)" d="m 450.479 698.042 c .406 0 1.145 -.057 1.594 -.303 l -.747 1.834 h -7.987 c .26 -.359 .459 -.709 .672 -1.588 l 1.48 -6.081 c .213 -.88 .185 -1.229 .095 -1.589 h 4.114 c -.265 .359 -.469 .709 -.681 1.589 l -1.485 6.138 z" fill="#00539b"/><path clip-path="url(#a)" d="m 464.514 695.555 l -.563 -3.126 l -2.175 3.126 z m -3.83 1.532 l -.936 1.276 c -.122 .17 -.217 .359 -.26 .549 c -.075 .316 -.071 .345 .038 .661 h -2.62 c .729 -.709 .96 -.964 1.471 -1.674 l 5.083 -7.065 l -.283 -.52 h 4.185 l 1.362 7.991 c .085 .473 .265 .922 .496 1.267 h -4.644 c .261 -.345 .303 -.406 .351 -.604 c .052 -.218 .075 -.492 .037 -.695 l -.217 -1.186 z" fill="#00539b"/><path clip-path="url(#a)" d="m 478.795 691.904 h -.029 l -1.461 6.005 c -.25 1.04 -.255 1.229 -.057 1.664 h -2.227 c .411 -.435 .501 -.624 .751 -1.664 l 1.442 -5.93 c .251 -1.04 .251 -1.229 .057 -1.664 h 4.961 l 1.929 7.551 h .048 l 1.428 -5.887 c .251 -1.04 .251 -1.229 .057 -1.664 h 2.228 c -.411 .435 -.501 .624 -.752 1.664 l -1.844 7.594 h -4.578 z" fill="#00539b"/><path clip-path="url(#a)" d="m 496.418 698.042 h 1.835 c .582 0 .7 -.133 .847 -.747 l 1.14 -4.696 c .151 -.619 .099 -.752 -.483 -.752 h -1.835 z m -2.043 -6.138 c .213 -.88 .185 -1.229 .095 -1.589 h 7.192 c 1.967 0 2.478 .756 2.024 2.634 l -.97 3.995 c -.459 1.878 -1.334 2.629 -3.301 2.629 h -7.192 c .265 -.359 .464 -.709 .677 -1.588 z" fill="#00539b"/><path clip-path="url(#a)" d="m 373.109 721.099 c -.407 1.664 -1.06 1.93 -3.093 1.93 h -9.056 l 1.948 -8.025 h 9.056 c 2.028 0 2.559 .27 2.156 1.93 z m 7.731 7.598 c 3.462 -.213 6.545 -.478 7.766 -5.509 l 1.531 -6.317 c 1.395 -5.722 -1.707 -7.542 -9.055 -7.542 h -34.51 c .859 1.338 1.072 2.624 .278 5.887 l -5.456 22.471 c -.795 3.268 -1.632 4.549 -2.743 5.888 h 18.626 c -.459 -1.339 -.672 -2.62 .123 -5.888 l 2.185 -8.989 h 4.918 l 4.001 14.877 h 17.906 c -1.064 -1.282 -1.423 -3.05 -2.203 -5.244 z" fill="#f78e1e"/><path clip-path="url(#a)" d="m 513.365 721.099 c -.406 1.664 -1.059 1.93 -3.092 1.93 h -9.056 l 1.948 -8.025 h 9.051 c 2.033 0 2.563 .27 2.161 1.93 z m -67.028 7.598 l 9.24 -11.557 l 3.158 11.557 z m 78.122 9.633 l -3.366 -9.633 c 3.466 -.213 6.549 -.478 7.773 -5.509 l 1.537 -6.317 c 1.381 -5.722 -1.717 -7.542 -9.065 -7.542 h -34.505 c .856 1.338 1.069 2.624 .274 5.887 l -5.457 22.471 c -.539 2.213 -1.102 3.523 -1.749 4.549 c -.662 -1.021 -1.192 -2.165 -1.523 -3.366 l -7.788 -29.54 h -18.957 l 1.371 1.925 l -21.629 26.111 c -2.147 2.624 -3.168 3.589 -6.298 6.209 h 11.874 c -.564 -1.178 -.605 -1.282 -.317 -2.464 c .171 -.695 .53 -1.391 1.083 -2.033 l 3.967 -4.705 h 18.428 l 1.234 4.388 c .213 .752 .161 1.765 -.033 2.568 c -.185 .747 -.364 .964 -1.461 2.246 h 37.688 c -.464 -1.339 -.677 -2.62 .113 -5.888 l 2.185 -8.989 h 4.923 l 3.995 14.877 h 17.912 c -1.064 -1.283 -1.424 -3.051 -2.209 -5.245" fill="#f78e1e"/><path clip-path="url(#a)" d="m 428.623 735.918 c -1.621 2.743 -5.131 4.767 -6.847 5.627 c -.842 -.388 -2.72 -1.3 -4.327 -2.368 c .389 -1.452 .941 -4.237 .464 -7.155 c .771 -.468 3.282 -2.103 5.495 -4.96 c 2.449 .695 4.313 1.546 5.22 2.01 c .557 1.986 .194 5.37 -.005 6.846 m -9.188 9.694 c .809 -.88 2.071 -2.757 2.572 -3.528 c 1.362 -.676 3.859 -2.08 5.722 -4.038 c -2.004 3.225 -4.879 5.854 -8.294 7.566 m -9.074 2.137 c -5.357 0 -10.229 -2.08 -13.874 -5.457 c -.028 -.425 -.105 -2.075 .426 -3.612 c .79 .066 2.814 .17 4.933 -.18 c 1.012 1.078 3.371 3.073 8.047 4.634 c .096 .733 .242 1.948 .322 3.06 c .771 .652 5.697 .364 7.816 .052 c -2.374 .964 -4.961 1.503 -7.67 1.503 m -14.478 -6.043 c -3.41 -3.433 -5.609 -8.076 -5.897 -13.212 c .71 .86 1.802 1.702 2.36 2.1 c 1.002 4.166 3.357 7.084 4.023 7.85 c -.426 1.219 -.496 2.487 -.486 3.262 m -5.94 -14.375 c 0 -4.417 1.418 -8.512 3.81 -11.85 c .502 -.346 1.141 -.459 1.575 -.487 c .27 .619 .993 2.075 2.142 2.937 c -1.258 3.451 -1.291 6.629 -1.201 8.171 c -2.147 1.456 -3.471 3.191 -3.897 3.792 c -.879 -.671 -2.108 -1.721 -2.426 -2.534 c .001 -.01 -.003 -.019 -.003 -.029 m 10.483 -17.822 c -.004 .042 -.009 .08 -.018 .128 c -2.947 1.924 -4.512 4.01 -5.014 4.766 c -.25 .015 -.581 .048 -.922 .138 c 1.641 -2.034 3.661 -3.751 5.954 -5.032 m .662 -.355 c 2.781 -1.424 5.935 -2.232 9.273 -2.232 c 2.506 0 4.908 .454 7.131 1.286 c -.313 .123 -.728 .317 -1.055 .577 c -3.258 -.586 -7.935 .165 -9.826 .97 c -3.031 -.572 -4.913 -.459 -5.574 -.388 c .014 -.09 .037 -.156 .051 -.213 m -4.213 17.194 c -.1 -1.4 -.142 -4.908 1.286 -8.592 c 2.776 -1.973 5.661 -2.374 6.856 -2.454 c 4.01 2.203 5.665 3.73 6.332 4.521 c -.085 1.078 -.383 4.151 -1.182 7.329 c -3.201 1.863 -6.143 2.903 -7.609 3.357 c -.958 -.459 -3.782 -1.93 -5.683 -4.161 m 12.934 16.143 c -4.607 -1.599 -6.834 -3.613 -7.67 -4.559 c -.203 -3.253 .396 -5.92 .652 -6.885 c 1.513 -.473 4.431 -1.518 7.604 -3.352 c 3.088 1.499 5.91 3.466 6.898 4.185 c .545 2.998 -.084 5.939 -.463 7.32 c -3.168 2.26 -7.027 3.281 -7.027 3.281 l .006 .01 m 11.679 -28.883 c -.081 2.289 -1.48 4.521 -2.066 5.358 c -1.003 -.09 -4.266 -.298 -7.713 .374 c -.766 -.861 -2.454 -2.346 -6.129 -4.394 c -.019 -.78 .063 -2.79 1.197 -4.639 c 1.561 -.652 6.544 -1.612 9.897 -.879 c 2.922 2.081 4.275 3.523 4.814 4.18 m 4.526 1.315 c .596 .615 2.047 2.213 3.002 4.138 c .852 1.92 1.419 3.981 1.646 6.148 c -.365 .695 -1.117 2.066 -2.001 3.22 c -.997 -.491 -2.794 -1.286 -5.126 -1.943 c -.898 -4.085 -2.922 -6.549 -3.58 -7.263 c .625 -.895 1.901 -2.965 2.096 -5.216 c .576 -.03 2.103 .008 3.963 .916 m -15.653 -8.587 c -11.58 0 -20.995 9.419 -20.995 20.995 c 0 11.576 9.415 20.995 20.995 20.995 c 11.576 0 20.995 -9.419 20.995 -20.995 c 0 -11.576 -9.418 -20.995 -20.995 -20.995" fill="#00539b"/><path clip-path="url(#a)" d="m 392.373 729.893 c .426 -.601 1.75 -2.336 3.897 -3.792 c -.09 -1.542 -.057 -4.72 1.201 -8.171 c -1.148 -.861 -1.872 -2.317 -2.142 -2.937 c -.435 .028 -1.073 .142 -1.575 .487 c -2.393 3.338 -3.81 7.433 -3.81 11.85 c 0 .01 .004 .019 .004 .028 c .317 .815 1.546 1.865 2.425 2.535" fill="#fff"/><g clip-path="url(#a)"><use fill="#006696" height="100%" width="100%" xlink:href="#e"/><g clip-path="url(#b)"><g clip-path="url(#c)"><use fill="#a1aeb8" height="100%" width="100%" xlink:href="#g"/></g></g></g><path clip-path="url(#a)" d="m 410.215 746.193 c -.08 -1.111 -.227 -2.326 -.322 -3.06 c -4.676 -1.56 -7.035 -3.556 -8.047 -4.634 c -2.119 .35 -4.143 .246 -4.933 .18 c -.53 1.537 -.454 3.188 -.426 3.612 c 3.645 3.377 8.517 5.457 13.874 5.457 c 2.709 0 5.296 -.539 7.67 -1.504 c -2.119 .314 -7.046 .602 -7.816 -.051" fill="#fff"/><path clip-path="url(#a)" d="m 389.985 728.494 c .288 5.136 2.487 9.779 5.897 13.212 c -.01 -.775 .061 -2.043 .486 -3.263 c -.666 -.766 -3.021 -3.684 -4.023 -7.85 c -.558 -.397 -1.65 -1.239 -2.36 -2.099" fill="#fff"/><path clip-path="url(#a)" d="m 423.535 726.484 c 2.332 .657 4.129 1.452 5.126 1.943 c .884 -1.153 1.636 -2.524 2.001 -3.22 c -.227 -2.166 -.795 -4.228 -1.646 -6.148 c -.955 -1.925 -2.406 -3.523 -3.002 -4.138 c -1.859 -.908 -3.387 -.945 -3.963 -.917 c -.194 2.251 -1.471 4.321 -2.096 5.216 c .658 .715 2.682 3.179 3.58 7.264" fill="#fff"/><path clip-path="url(#a)" d="m 406.611 709.755 c 1.892 -.805 6.568 -1.556 9.826 -.97 c .326 -.26 .742 -.454 1.055 -.577 c -2.223 -.832 -4.625 -1.286 -7.131 -1.286 c -3.338 0 -6.492 .809 -9.273 2.232 c -.014 .057 -.037 .123 -.051 .213 c .661 -.071 2.543 -.184 5.574 .388" fill="#fff"/><path clip-path="url(#a)" d="m 423.408 727.061 c -2.213 2.856 -4.725 4.492 -5.495 4.96 c .478 2.918 -.075 5.703 -.464 7.155 c 1.607 1.068 3.485 1.98 4.327 2.368 c 1.716 -.86 5.226 -2.884 6.847 -5.627 c .199 -1.476 .563 -4.86 .005 -6.847 c -.907 -.463 -2.771 -1.313 -5.22 -2.009" fill="#fff"/><path clip-path="url(#a)" d="m 417.293 731.88 c -.988 -.719 -3.811 -2.686 -6.898 -4.185 c -3.173 1.835 -6.091 2.88 -7.604 3.352 c -.256 .965 -.855 3.632 -.652 6.885 c .836 .945 3.063 2.96 7.67 4.559 l -.006 -.01 c 0 0 3.859 -1.021 7.027 -3.281 c .379 -1.381 1.008 -4.322 .463 -7.32" fill="#fff"/><path clip-path="url(#a)" d="m 411.35 719.822 c -.667 -.79 -2.322 -2.317 -6.332 -4.521 c -1.195 .08 -4.08 .482 -6.856 2.454 c -1.428 3.684 -1.386 7.191 -1.286 8.592 c 1.901 2.232 4.725 3.702 5.684 4.161 c 1.467 -.454 4.408 -1.494 7.609 -3.357 c .798 -3.177 1.096 -6.251 1.181 -7.329" fill="#fff"/><path clip-path="url(#a)" d="m 422.008 742.084 c -.501 .772 -1.764 2.648 -2.572 3.528 c 3.414 -1.712 6.289 -4.341 8.294 -7.567 c -1.863 1.959 -4.36 3.363 -5.722 4.039" fill="#fff"/><path clip-path="url(#a)" d="m 406.777 710.308 c -1.135 1.849 -1.216 3.858 -1.197 4.639 c 3.675 2.048 5.363 3.532 6.129 4.394 c 3.447 -.672 6.71 -.464 7.713 -.374 c .586 -.837 1.985 -3.068 2.066 -5.358 c -.539 -.657 -1.893 -2.1 -4.814 -4.18 c -3.353 -.734 -8.336 .226 -9.897 .879" fill="#fff"/><path clip-path="url(#a)" d="m 416.939 732.093 c -1.098 -.795 -3.68 -2.563 -6.54 -3.972 c -.151 .09 -.298 .175 -.444 .25 c 2.676 1.367 5.041 2.993 6.086 3.745 c .127 .771 .189 1.532 .189 2.266 c 0 1.896 -.354 3.569 -.629 4.606 c -2.311 1.622 -4.983 2.586 -6.166 2.965 c .128 .042 .241 .09 .374 .132 c .586 -.16 3.905 -1.163 6.69 -3.12 c .279 -1.036 .634 -2.715 .634 -4.606 c 0 -.739 -.062 -1.496 -.194 -2.266" fill="#d5d7d8"/><path clip-path="url(#a)" d="m 428.297 729.326 c -.889 -.439 -2.563 -1.196 -4.757 -1.834 c -.071 .094 -.146 .175 -.213 .265 c 1.897 .596 3.353 1.248 4.161 1.654 c .185 .724 .256 1.617 .256 2.54 c 0 1.508 -.176 3.05 -.289 3.91 c -1.428 2.364 -4.35 4.189 -6.033 5.098 c .133 .062 .246 .113 .35 .161 c 1.547 -.795 4.923 -2.743 6.488 -5.344 c .117 -.856 .293 -2.402 .293 -3.906 c 0 -.922 -.076 -1.82 -.256 -2.544" fill="#d5d7d8"/><path clip-path="url(#a)" d="m 404.933 715.689 c -.189 .009 -.416 .042 -.685 .07 c 3.57 2 5.121 3.396 5.755 4.109 c -.1 1.211 -.398 3.996 -1.125 6.956 c -2.705 1.556 -5.211 2.521 -6.758 3.04 c .185 .095 .341 .171 .469 .236 c 1.475 -.463 4.236 -1.466 7.248 -3.196 c .733 -2.96 1.022 -5.74 1.131 -6.961 c -.658 -.726 -2.267 -2.169 -6.035 -4.254" fill="#d5d7d8"/><path clip-path="url(#a)" d="m 420.477 713.06 c -.119 1.996 -1.258 3.925 -1.869 4.823 c -1.125 -.095 -4.137 -.241 -7.376 .364 c -.775 -.837 -2.303 -2.133 -5.267 -3.854 c -.005 .123 -.01 .236 -.01 .336 c 3.386 1.905 5.064 3.315 5.896 4.213 c 3.239 -.605 6.251 -.454 7.382 -.369 c .609 -.898 1.75 -2.837 1.863 -4.837 c -.152 -.179 -.356 -.407 -.619 -.676" fill="#d5d7d8"/><path clip-path="url(#a)" d="m 428.563 727.142 c -.938 -.444 -2.582 -1.153 -4.705 -1.769 c -.772 -3.333 -2.271 -5.579 -3.126 -6.648 c -.104 .161 -.204 .321 -.303 .464 c .771 .889 2.544 3.263 3.414 6.998 c 2.118 .605 3.765 1.319 4.7 1.769 c .738 -1.012 1.376 -2.142 1.727 -2.809 c -.024 -.218 -.053 -.416 -.081 -.624 c -.365 .68 -.951 1.697 -1.626 2.619" fill="#d5d7d8"/><path clip-path="url(#a)" d="m 397.026 718.054 c -.151 -.133 -.293 -.27 -.435 -.416 c -.941 2.752 -1.158 5.296 -1.158 7.017 c 0 .331 .009 .629 .018 .898 c -1.791 1.239 -3.022 2.648 -3.617 3.424 c .146 .123 .303 .246 .469 .378 c .549 -.727 1.769 -2.165 3.58 -3.438 c -.01 -.26 -.02 -.553 -.02 -.88 c 0 -1.697 .213 -4.241 1.163 -6.983" fill="#d5d7d8"/><path clip-path="url(#a)" d="m 401.164 739.337 c 1.059 1.088 3.078 2.715 7.514 4.242 c .143 1.063 .236 2.033 .293 2.808 l .01 .151 l .118 .108 c .567 .478 2.567 .525 4.478 .449 c .299 -.052 .597 -.104 .895 -.17 c -1.925 .09 -3.935 .037 -4.497 -.444 l -.128 -.104 l -.01 -.156 c -.052 -.775 -.155 -1.744 -.288 -2.809 c -4.436 -1.527 -6.776 -3.424 -7.835 -4.516 c -1.85 .279 -3.613 .241 -4.525 .18 c -.02 .07 -.033 .132 -.053 .198 c .968 .03 2.634 .276 4.028 .063" fill="#d5d7d8"/><path clip-path="url(#a)" d="m 395.953 738.533 c -.814 -.96 -2.941 -3.764 -3.934 -7.713 c -.407 -.293 -.988 -.747 -1.552 -1.276 c .024 .218 .052 .435 .085 .644 c .359 .307 .705 .571 .97 .766 c .988 3.948 3.13 6.753 3.938 7.708 c -.175 .548 -.288 1.097 -.354 1.607 c .142 .166 .279 .331 .431 .496 c .047 -.676 .17 -1.452 .416 -2.232" fill="#d5d7d8"/><path clip-path="url(#a)" d="m 415.373 707.958 c -3.243 -.426 -7.499 .269 -9.377 1.025 c -1.064 -.188 -1.985 -.303 -2.761 -.368 c -.265 .104 -.525 .208 -.79 .316 c .979 .01 2.355 .108 4.133 .435 c 1.963 -.79 6.483 -1.514 9.77 -.979 c .047 -.033 .109 -.066 .161 -.099 c -.374 -.122 -.752 -.231 -1.136 -.33" fill="#d5d7d8"/><path clip-path="url(#a)" d="m 397.557 716.635 c 0 0 1.74 -1.145 3.48 -1.65 c 1.744 -.506 3.39 -.87 3.39 -.87 c 0 0 .142 -1.007 .411 -1.925 c .279 -.917 .691 -1.692 .691 -1.692 l -4.445 -.369 l .18 -.274 c 0 0 2.199 .048 3.986 .274 c .779 .105 1.012 .185 1.012 .185 c 0 0 -.87 1.329 -1.281 3.85 c -.086 .496 -.048 .506 -.048 .506 c 0 0 -1.329 .18 -2.752 .501 c -1.419 .321 -2.336 .87 -2.979 1.191 c -.638 .321 -1.527 .955 -1.527 .955 l -.449 -.435 z" fill="#002d56"/><path clip-path="url(#a)" d="m 419.53 719.813 c 0 0 .917 1.324 1.599 2.785 c .681 1.456 1.456 3.868 1.456 3.868 c 0 0 -1.868 2.511 -2.78 3.324 c -.908 .822 -2.138 1.688 -2.138 1.688 c 0 0 -1.82 -1.551 -2.965 -2.188 c -1.14 -.634 -3.868 -1.963 -3.868 -1.963 l .047 -.634 c 0 0 2.682 1.14 3.642 1.688 c .96 .544 3.187 2.232 3.187 2.232 c 0 0 1.642 -1.229 2.459 -2.052 c .823 -.823 1.778 -2.143 1.778 -2.143 c 0 0 -.728 -2.411 -1.323 -3.599 c -.587 -1.182 -1.41 -2.548 -1.41 -2.548 l .232 -.459 h .084 z" fill="#002d56"/><path clip-path="url(#a)" d="m 396.875 738.169 c .146 .033 2.284 .076 2.885 .033 c .601 -.033 1.579 -.223 1.579 -.223 c 0 0 -.08 -.34 .108 -2.326 c .189 -1.986 .455 -4.048 .525 -4.274 c .076 -.232 .118 -.379 .118 -.379 c 0 0 -2.331 -1.05 -3.306 -1.877 c -.979 -.822 -2.321 -2.398 -2.321 -2.398 c 0 0 -1.802 1.428 -2.142 1.835 c -.341 .416 -.53 .681 -.53 .681 l 2.554 -1.957 c 0 0 1.424 1.314 1.877 1.73 c .454 .406 1.277 1.012 1.84 1.352 c .558 .331 1.499 .747 1.499 .747 c 0 0 -.303 2.704 -.449 3.674 c -.151 .974 -.223 2.775 -.223 2.775 c 0 0 -1.054 .313 -1.915 .341 c -1.357 .038 -2.511 -.113 -2.511 -.113 l .412 .379" fill="#002d56"/><path clip-path="url(#a)" d="m 417.317 739.744 c 0 0 1.2 .671 1.991 1.12 c .789 .454 2.099 1.093 2.099 1.093 c 0 0 -.298 .411 -1.2 1.726 c -.898 1.314 -1.5 1.986 -1.5 1.986 l -.563 .227 c 0 0 1.386 -1.995 1.727 -2.516 c .336 -.524 .827 -1.276 .827 -1.276 c 0 0 -.639 -.407 -1.579 -.975 c -.941 -.563 -2.142 -1.196 -2.142 -1.196 z" fill="#002d56"/><path clip-path="url(#a)" d="m 425.526 713.93 c 0 0 -.823 -.482 -1.65 -.652 c -.426 -.09 -1.007 -.198 -1.476 -.288 c -.486 -.44 -1.163 -1.078 -1.268 -1.192 c -.714 -.761 -2.303 -2.047 -3.527 -2.652 l -.388 .133 c 0 0 1.22 .737 2.133 1.523 c .917 .78 1.476 1.258 1.868 1.655 c .393 .388 .917 .95 .917 .95 c 0 0 1.045 .09 2 .393 c .96 .303 1.692 .609 1.692 .609 z" fill="#002d56"/><path clip-path="url(#a)" d="m 602.449 621.03 c -.932 -5.722 -5.221 -9.32 -6.786 -10.592 c -.005 -.01 -.023 -.028 -.023 -.028 c -1.423 -1.778 -3.196 -3.552 -9.362 -6.725 c -1.646 -2.321 -4.19 -4.615 -5.987 -6.086 c -.657 -1.366 -1.333 -2.629 -2.014 -3.769 c 3.764 -2.737 7.442 -11.174 4.279 -19.07 c 0 0 -1.845 7.372 -13.108 5.991 c -4.521 -20.239 -19.959 -30.472 -29.705 -31.029 c -3.306 -.189 -28.268 .075 -59.222 5.797 c -41.669 7.708 -75.21 21.426 -99.694 40.775 L 361.41 612.49 c -9.467 5.154 -17.515 10.347 -24.055 15 c -19.027 13.523 -32.018 27.805 -33.828 29.847 c -8.772 2.261 -22.244 3.382 -40.875 -.208 c 5.835 6.507 10.289 9.874 18.408 14.366 c 8.526 4.71 20.82 8.512 32.099 10.55 c 16.157 2.912 26.627 3.778 41.849 4.015 c 11.779 .18 23.529 -.147 35.29 -.842 c 12.474 -.738 25.459 -2.687 39.205 -4.753 c 35.649 -5.348 72.509 -10.88 104.125 4.317 c -3.396 3.319 -9.448 7.954 -20.484 13.543 c 34.363 -.553 51.395 -12.975 58.342 -18.962 c 8.29 -7.131 13.832 -15.936 14.824 -23.549 l .232 -1.787 c 0 0 -2.171 -4.899 -5.835 -8.209 c -.058 -.823 -.176 -1.731 -.384 -2.69 c .657 -.393 1.263 -.823 1.873 -1.263 c .128 .062 .388 .18 .388 .18 l 1.995 -.534 c 1.168 -.317 7.136 -2.133 11.841 -6.975 c 1.319 -1.277 1.74 -2.79 1.897 -4.341 c 1.593 -1.765 3.248 -4.048 4 -6.725 l .336 -1.201 z" fill="#d5d7d8"/><path clip-path="url(#a)" d="m 591.625 614.453 c -1.045 -1.14 -1.281 -2.464 -9.372 -6.46 c -.392 -1.522 -4.771 -5.419 -6.54 -6.79 c -2.19 -4.842 -4.284 -7.693 -6.237 -9.254 c 4.753 -1.23 10.356 -6.214 9.911 -8.971 c -1.872 2.871 -5.305 4.729 -14.814 2.71 c -2.86 -20.551 -17.808 -29.89 -25.161 -30.306 c -4.464 -.256 -98.152 .378 -155.067 45.357 c 0 0 20.088 -7.013 44.1 -7.207 c -76.949 16.536 -117.89 64.735 -117.89 64.735 c 27.714 -15.656 72.462 -21.104 72.462 -21.104 c 89.381 -7.064 152.489 19.685 160.954 41.674 c .719 1.556 -2.847 7.911 -12.242 12.232 c 32.311 -5.764 47.509 -24.958 48.946 -36.004 c -1.452 -2.752 -3.603 -5.201 -5.623 -6.601 c .085 -2.091 .081 -5.864 -2.411 -8.124 c 3.655 -1.116 6.767 -3.055 8.805 -5.287 c .619 .492 .88 .601 1.65 .955 c 1.319 -.354 5.935 -1.934 9.382 -5.574 c .236 -.223 .26 -2.214 .283 -2.677 c 1.792 -1.75 3.494 -3.741 4.081 -5.826 c -.706 -4.295 -4.867 -7.105 -5.217 -7.478" fill="#002d56"/><path clip-path="url(#a)" d="m 579.184 634.148 c -1.083 1.229 -3.674 3.442 -11.982 4.96 c 3.49 -1.887 7.056 -4.544 5.613 -6.256 c -2.076 .634 -3.201 .529 -4.729 .213 c 1.479 -1.121 .789 -1.906 .07 -2.767 c -.902 -.671 -3.03 -1.787 -6.393 -1.456 c 2.09 -1.476 4.847 -1.613 4.823 -1.665 c 5.136 1.817 9.175 4.223 12.598 6.971" fill="#fff"/><path clip-path="url(#a)" d="m 550.798 647.005 c .97 -.761 2.582 -1.617 3.712 -1.882 c -.227 .97 .321 1.792 1.225 2.388 c 1.106 .748 3.414 .975 4.246 .776 c 1.807 -.747 2.587 -2.45 2.412 -4.058 c 1.343 .676 2.27 1.995 2.492 3.632 c 3.002 -1.319 3.641 -4.535 2.908 -6.743 c 2.813 2.166 3.684 3.915 2.799 7.916 c .085 -.01 -13.169 4.251 -19.794 -2.029" fill="#fff"/><path clip-path="url(#a)" d="m 518.468 664.288 c -24.712 -8.237 -53.623 -5.693 -78.968 -1.556 c -11.184 1.825 -89.259 21.87 -150.429 6.956 c 10.497 6.261 42.147 13.316 100.882 9.846 c 44.817 -2.648 100.663 -21.913 146.385 .236 c -2.559 -5.112 -11.075 -12.21 -17.87 -15.482" fill="#860038"/><path clip-path="url(#a)" d="m 458.712 643.473 c -3.594 .236 -22.055 2.313 -37.441 5.627 c -9.931 2.133 -22.755 5.396 -37.692 8.555 c -42.804 9.051 -60.219 12.923 -103.766 6.682 c 10.082 5.183 33.422 7.296 41.764 7.858 c 69.351 4.71 133.542 -29.199 189.567 -12.587 c -16.267 -9.941 -41.069 -14.996 -52.432 -16.135" fill="#00539b"/><path clip-path="url(#a)" d="m 388.865 640.484 c -16.504 7.443 -58.125 24.522 -100.504 22.632 c 33.002 4.444 50.342 .747 74.307 -4.436 c 26.56 -5.75 64.887 -16.551 80.851 -17.369 c 1.083 -.06 -32.822 -3.584 -54.654 -.827" fill="#f78e1e"/><path clip-path="url(#a)" d="m 508.954 598.768 c -6.242 -4.331 -18.569 -6.175 -22.575 1.622 c 0 0 3.065 -.222 7.575 4.818 c 4.058 4.54 4.389 6.535 14.546 3.85 c -8.337 -1.57 -4.374 -8.02 -15.198 -8.687 c 2.468 -2.52 6.814 -3.008 15.652 -1.603" fill="#f78e1e"/><path clip-path="url(#a)" d="m 513.101 589.448 c -.07 -.024 -.037 -.015 -.005 0 z" fill="#0074b8"/><path clip-path="url(#a)" d="m 513.101 589.448 h -.005 c .038 .009 .066 .024 .005 0" fill="#0074b8"/><path clip-path="url(#a)" d="m 511.403 632.894 c -.865 -1.726 -1.111 -3.702 -.737 -5.438 c -45.055 -8.64 -118.127 .383 -130.204 5.499 c 59.042 -8.402 123.531 2.171 148.135 21.582 c 2.1 -.369 7.835 -1.532 9.693 -1.66 c -16.881 -16.994 -45.471 -22.314 -78.074 -24.99 c 15.736 -.794 39.167 2.28 51.187 5.007" fill="#860038"/><path clip-path="url(#a)" d="m 511.475 629.069 v 0 c .008 .01 .018 .02 0 0" fill="#ec9953"/><path clip-path="url(#a)" d="m 511.475 629.069 v 0 c -.015 -.013 -.01 -.005 0 0" fill="#ec9953"/><path clip-path="url(#a)" d="M 511.475 629.069" fill="#ec9953"/><path clip-path="url(#a)" d="m 474.473 584.61 c -.057 .015 -.118 .019 -.175 .033 c .085 -.014 .137 -.023 .175 -.033" fill="#0074b8"/><path clip-path="url(#a)" d="m 500.537 592.507 v 0 c -3.622 -2.993 -14.649 -7.017 -26.064 -7.896 c 10.843 -1.296 31.432 -.823 47.504 4.095 c -6.138 -4.662 -4.875 -8.507 -3.106 -11.164 c -57.08 -6.672 -117.938 15.742 -117.933 15.742 c .236 -.077 71.317 -13.851 99.599 -.777" fill="#860038"/><path clip-path="url(#a)" d="m 459.194 590.738 c -65.417 9.803 -114.358 41.981 -129.788 54.616 c 33.186 -17.387 108.051 -33.114 181.387 -22.617 c .629 -2.198 2.979 -4.393 6.587 -7.055 c -.468 -1.727 -2.35 -3.452 -5.764 -4.441 c -.619 3.429 -3.319 4.738 -7.808 4.956 c -8.544 -1.712 -32.074 -3.604 -72.75 -.171 c 18.674 -4.066 36.179 -5.759 60.021 -6.033 c -1.815 -1.797 -3.045 -4.029 -10.545 -4.563 c -30.362 -2.624 -57.315 2.832 -84.316 10.001 c 24.66 -12.928 67.417 -20.862 95.302 -22.659 c -.365 -.081 -14.906 -2.936 -32.326 -2.034" fill="#00539b"/><path clip-path="url(#a)" d="m 585.965 620.227 c -2.685 -2.175 -6.781 -4.156 -11.387 -5.31 c -1.712 -.425 -3.348 -.694 -4.88 -.837 c 2.492 -.265 5.627 -.009 9.041 .842 c 2.464 .62 4.785 1.476 6.823 2.478 c .554 -1.163 1.74 -1.957 1.74 -1.957 c -7.4 -5.15 -17.656 -6.166 -23.326 -6.327 c 4.667 -1.324 13.254 -.426 17.633 1.178 c -.771 -1.221 -7.103 -7.538 -8.497 -7.939 c .316 1.064 -3.485 -9.713 -15.264 -16.475 c -.269 -.151 -2.946 -3.131 -6.252 -5.329 c 0 0 -3.953 -1.452 -8.209 -1.642 c 3.973 1.835 7.354 4.445 10.933 8.417 c -11.031 -6.775 -23.511 -8.928 -29.133 -9.103 c -5.188 9.34 16.39 15.203 16.39 15.203 c -8.437 1.191 -18.058 0 -33.347 -2.908 c 12.247 4.038 30.154 16.025 32.651 26.06 c -12.786 -13.165 -31.578 -14.134 -31.478 -14.101 c 8.8 2.549 18.418 6.52 18.101 14.318 c -14.738 5.958 -12.162 12.843 -8.393 18.801 c 0 0 21.444 8.021 25.95 19.809 c .071 .047 -12.015 1.726 -11.944 1.764 c 3.499 1.514 8.956 6.351 10.947 8.493 c 6.364 -.993 9.708 -3.107 13.141 -6.786 c -1.068 2.936 -2.317 7.51 -8.635 11.486 c 1.873 3.509 3.438 6.96 1.925 10.332 c 9.816 -3.75 14.517 -19.27 13.287 -21.473 c 2.7 2.889 3.277 7.055 1.973 12.422 c -.048 .208 9.206 -8.46 9.798 -15.676 c -1.873 -.695 -4.432 -.468 -3.854 -4.823 c -22.083 4.871 -25.156 -6.081 -25.269 -6.053 c .936 -5.82 1.934 -7.329 3.797 -9.41 c -9.921 0 -19.17 -3.258 -19.099 -3.276 c 14.427 1.641 21.137 -.232 24.717 -2.672 c 1.82 -3.036 9.017 -9.051 14.635 -7.523 c -2.359 .477 -4.7 1.707 -4.781 2.852 c 11.383 -3.036 5.921 3.943 17.832 8.058 c 5.013 -1.471 6.843 -4.151 6.753 -4.677 c -.564 -2.769 -1.927 -5.922 -4.319 -8.216" fill="#f78e1e"/><path clip-path="url(#a)" d="m 557.546 591.816 c .028 -.586 .099 -.964 -.289 -2.222 c 2.091 .903 7.334 4.729 9.746 10.327 c 1.872 2.138 3.953 3.684 5.471 6.364 c -6.936 -5.579 -11.159 -4.993 -13.765 -5.201 c -1.286 -5.825 -8.063 -12.096 -12.985 -14.796 c 0 .001 6.388 1.415 11.822 5.528" fill="#002d56"/><path clip-path="url(#a)" d="m 583.96 622.667 c -3.958 -2.384 -13.373 -6.224 -23.662 -5.325 c .534 .048 15.708 1.665 20.768 7.637 c 2.222 1.655 4.393 -1.036 2.894 -2.312" fill="#005072"/><path clip-path="url(#a)" d="m 563.253 689.577 l .142 -.699 h .459 l .113 -.535 l 1.055 -.638 l -.241 1.173 h .558 l -.142 .699 h -.563 l -.303 1.447 c -.062 .255 -.085 .406 -.085 .444 c 0 .066 .018 .123 .071 .161 c .042 .037 .122 .066 .241 .066 c .037 0 .142 -.01 .302 -.029 l -.142 .691 c -.156 .033 -.321 .048 -.491 .048 c -.322 0 -.563 -.062 -.71 -.189 c -.151 -.132 -.222 -.303 -.222 -.529 c 0 -.109 .037 -.35 .118 -.733 l .303 -1.376 h -.463 z" fill="#d5d7d8"/><path clip-path="url(#a)" d="m 565.915 688.878 h .875 l -.08 .421 c .335 -.336 .694 -.507 1.073 -.507 c .255 0 .459 .058 .601 .166 c .132 .108 .227 .26 .265 .444 c .123 -.165 .293 -.313 .516 -.435 c .222 -.118 .449 -.176 .69 -.176 c .27 0 .487 .076 .638 .228 c .156 .147 .227 .345 .227 .596 c 0 .113 -.033 .316 -.095 .606 l -.449 2.1 h -.922 l .444 -2.1 c .057 -.261 .085 -.407 .085 -.444 c 0 -.095 -.028 -.176 -.09 -.232 c -.057 -.061 -.137 -.08 -.255 -.08 c -.232 0 -.444 .118 -.624 .359 c -.138 .18 -.246 .492 -.346 .937 l -.321 1.561 h -.923 l .431 -2.081 c .052 -.241 .081 -.398 .081 -.468 c 0 -.09 -.038 -.166 -.095 -.223 c -.062 -.057 -.151 -.085 -.256 -.085 c -.104 0 -.208 .028 -.316 .085 c -.104 .066 -.204 .147 -.279 .251 c -.08 .108 -.151 .241 -.208 .411 c -.028 .076 -.071 .256 -.133 .529 l -.326 1.58 h -.927 z" fill="#d5d7d8"/><path clip-path="url(#a)" d="m 590.282 617.271 l 2.407 4.469 c .278 .193 .453 .478 .453 .799 c 0 .516 -.449 .95 -1.05 1.05 l -.822 2.464 c 0 0 3.769 -3.537 3.769 -4.171 c 0 -2.156 -4.757 -4.611 -4.757 -4.611" fill="#fff"/><path clip-path="url(#a)" d="m 536.962 563.058 c 0 0 11.344 2.903 16.295 13.873 c .038 .015 .08 .028 .118 .043 c .477 -8.063 -10.408 -16.305 -15.596 -17.567 c -57.159 .313 -111.502 20.068 -124.018 26.868 c 8.525 -3.366 77.743 -24.438 129.471 -12.228 c 1.74 -5.306 -6.195 -10.957 -6.27 -10.989" fill="#f78e1e"/><path clip-path="url(#a)" d="m 563.05 597.118 c -1.91 -.327 -4.033 -2.067 -5.046 -2.871 c 0 0 .818 4.109 2.653 5.022 c 2.043 1.022 4.057 .699 4.057 .699 c -.307 -1.928 -1.664 -2.85 -1.664 -2.85" fill="#fff"/><path clip-path="url(#a)" d="m 560.657 599.269 c 2.043 1.022 4.057 .699 4.057 .699 c -.09 -.529 -.255 -.979 -.449 -1.356 c -.907 .411 -2.038 .576 -3.929 -.356 c -.544 -.269 -1.131 -.794 -1.495 -1.348 c .435 .994 1.031 1.974 1.816 2.361" fill="#d5d7d8"/></g></g></svg>