<svg xmlns="http://www.w3.org/2000/svg" xml:space="preserve" viewBox="0 0 612 792"><path d="M306.576 679.552c-71.352-31.464-135.288-73.944-178.056-140.832-37.728-58.824-55.8-130.968-56.592-219.528l-2.016-206.568c72.864 46.656 150.192 64.296 236.664 64.296 86.4 0 163.8-17.64 236.664-64.296l-2.016 206.568c-.792 88.56-18.864 160.704-56.592 219.528-42.768 66.888-106.704 109.368-178.056 140.832" style="fill:#d2ab67"/><path d="M306.576 656.656c72.936-32.832 125.784-74.952 160.488-129.168 35.496-55.368 52.488-123.84 53.28-208.44l1.584-168.768c-58.32 31.68-136.944 47.52-215.351 47.52s-156.96-15.768-215.352-47.52l1.584 168.768c.792 84.6 17.784 153.072 53.28 208.44 34.703 54.216 87.551 96.336 160.487 129.168" style="fill:#00549a"/><circle cx="306.576" cy="467.224" r="117.36" style="fill:#d2ab67" transform="rotate(-45 306.576 467.224)"/><path d="M314.856 401.92c11.952 1.512 22.896 6.264 31.968 13.32-3.168-7.776-1.656-17.064 4.68-23.328 5.76-5.76 14.04-7.56 21.384-5.328-15.696-12.888-35.136-21.312-56.376-23.4 6.84 3.6 11.52 10.8 11.52 19.008 0 8.928-5.472 16.488-13.176 19.728M358.488 426.904c7.056 9.072 11.808 20.016 13.32 31.968 3.24-7.704 10.872-13.176 19.8-13.176 8.208 0 15.408 4.68 19.008 11.52-2.088-21.24-10.512-40.68-23.4-56.376 2.232 7.344.432 15.624-5.328 21.384-6.336 6.336-15.624 7.848-23.4 4.68M371.808 475.504c-1.512 11.952-6.264 22.896-13.32 31.968 7.776-3.168 17.064-1.656 23.4 4.68 5.76 5.76 7.56 14.04 5.328 21.384 12.888-15.696 21.312-35.136 23.4-56.376-3.6 6.84-10.8 11.52-19.008 11.52-8.928 0-16.56-5.472-19.8-13.176M346.824 519.136c-9.072 7.056-20.016 11.808-31.968 13.32 7.704 3.24 13.176 10.872 13.176 19.8 0 8.208-4.68 15.408-11.52 19.008 21.24-2.088 40.68-10.512 56.376-23.4-7.344 2.232-15.624.432-21.384-5.328-6.336-6.336-7.848-15.624-4.68-23.4M298.296 532.456c-11.952-1.512-22.896-6.264-31.968-13.32 3.168 7.776 1.656 17.064-4.68 23.4-5.76 5.76-14.04 7.56-21.384 5.328 15.696 12.888 35.136 21.311 56.376 23.4-6.84-3.6-11.52-10.8-11.52-19.008 0-8.928 5.472-16.56 13.176-19.8M254.664 507.472c-7.056-9.072-11.808-20.016-13.32-31.968-3.24 7.704-10.872 13.176-19.8 13.176-8.208 0-15.408-4.68-19.008-11.52 2.088 21.24 10.512 40.68 23.4 56.376-2.232-7.344-.432-15.624 5.328-21.384 6.336-6.336 15.624-7.848 23.4-4.68M241.344 458.872c1.512-11.952 6.264-22.896 13.32-31.968-7.776 3.168-17.064 1.656-23.4-4.68-5.76-5.76-7.56-14.04-5.328-21.384-12.888 15.696-21.312 35.136-23.4 56.376 3.6-6.84 10.8-11.52 19.008-11.52 8.928 0 16.56 5.472 19.8 13.176M266.328 415.24c9.072-7.056 20.016-11.808 31.968-13.32-7.704-3.24-13.176-10.8-13.176-19.728 0-8.208 4.68-15.408 11.52-19.008-21.24 2.088-40.68 10.512-56.376 23.4 7.344-2.232 15.624-.432 21.384 5.328 6.336 6.264 7.848 15.552 4.68 23.328M352.872 441.664c4.176 7.56 6.552 16.272 6.552 25.56a52.6 52.6 0 0 1-6.552 25.488H260.28a52.6 52.6 0 0 1-6.552-25.488c0-9.288 2.376-18 6.552-25.56zM342.864 505.6c-9.504 9-22.248 14.472-36.288 14.472s-26.784-5.472-36.288-14.472zM306.576 414.304c14.04 0 26.784 5.472 36.288 14.472h-72.576c9.504-9 22.248-14.472 36.288-14.472" style="fill:#00549a"/><path d="M336.6 507.904c-8.424 6.192-18.792 9.936-30.024 9.936s-21.6-3.744-30.024-9.936z" style="fill:#fd0"/><path d="M351.504 443.968a50.25 50.25 0 0 1 5.688 23.256 50.2 50.2 0 0 1-5.688 23.184h-89.856a50.2 50.2 0 0 1-5.688-23.184 50.25 50.25 0 0 1 5.688-23.256z" style="fill:#fff"/><path d="M306.576 416.536c11.232 0 21.6 3.744 30.024 10.008h-60.048c8.424-6.264 18.792-10.008 30.024-10.008" style="fill:#fd0"/><path d="M163.296 285.784h11.664L174.168 331h-11.664zm27.072 0L174.6 308.032 189.432 331h14.112l-16.56-23.184 16.992-22.032zM220.464 293.992l-.216 12.24H225c2.448 0 4.248-.504 5.544-1.584 1.224-1.008 1.872-2.52 1.872-4.536s-.648-3.528-1.728-4.536c-1.224-1.08-2.88-1.584-5.04-1.584zm-11.592-8.208h17.208c5.832 0 10.224 1.08 13.176 3.168s4.392 5.184 4.392 9.36c0 3.456-.864 6.12-2.52 8.208-1.728 2.016-4.248 3.312-7.632 3.96 1.368.432 2.664 1.224 3.744 2.304 1.008 1.008 2.088 2.52 3.096 4.392L247.68 331h-12.816l-6.48-12.744c-.72-1.44-1.512-2.376-2.304-2.952-.864-.576-2.016-.864-3.528-.864h-2.304L219.96 331h-11.736zM273.384 293.344a70 70 0 0 0-1.08 3.888c-.432 1.44-.648 2.232-.72 2.376l-4.104 12.168H279l-4.032-12.312c-.072-.36-.36-1.368-.792-3.024-.36-1.296-.576-2.304-.792-3.096m-6.912-7.56h14.4L297.576 331h-12.528l-3.6-10.512h-16.56L261.072 331H248.4zM331.92 287.296l-1.656 8.496a43 43 0 0 0-5.472-1.296 33 33 0 0 0-5.256-.432c-1.944 0-3.456.36-4.68 1.008-1.152.72-1.728 1.656-1.728 2.736 0 1.512 1.8 3.096 5.472 4.752 1.296.648 2.304 1.08 3.024 1.44 3.744 1.872 6.408 3.96 8.064 6.192s2.52 4.968 2.52 8.136c0 4.032-1.656 7.272-4.824 9.792-3.24 2.52-7.488 3.744-12.816 3.744-2.16 0-4.392-.144-6.696-.576-2.16-.36-4.464-1.008-6.84-1.8l1.656-8.856c2.592.792 4.68 1.296 6.552 1.656 1.8.36 3.384.576 4.68.576 1.584 0 2.88-.36 3.888-.936 1.008-.648 1.512-1.44 1.512-2.448 0-.576-.144-1.152-.504-1.728q-.432-.864-1.296-1.512-1.296-1.08-4.968-3.024a83 83 0 0 1-3.024-1.584c-2.664-1.44-4.608-3.312-5.976-5.4a13.15 13.15 0 0 1-2.088-7.2c0-4.392 1.584-7.776 4.752-10.224 3.096-2.448 7.56-3.672 13.32-3.672 1.8 0 3.744.216 5.832.576a51 51 0 0 1 6.552 1.584M339.552 285.784h13.608l13.896 27.576c.648 1.368 1.224 2.592 1.8 3.816.504 1.152 1.008 2.232 1.368 3.312a102 102 0 0 1-.144-4.968c-.072-1.728-.072-2.664-.144-2.736l-.576-27h10.656L379.8 331h-13.896l-13.968-27.648c-.576-1.224-1.08-2.448-1.584-3.6s-.936-2.304-1.368-3.456l.072 1.296c.144 4.32.216 6.84.216 7.704l.576 25.704h-10.656zM388.872 285.784h11.664L399.744 331H388.08zM409.968 285.784h11.664L420.84 331h-11.664zm27.072 0-15.768 22.248L436.104 331h14.112l-16.56-23.184 16.992-22.032zM316.944 274.624h10.44l-7.632 9.072h-5.76zM136.152 227.536l-.144 12.24h4.752c2.376 0 4.248-.504 5.472-1.584 1.224-1.008 1.872-2.592 1.872-4.608s-.576-3.456-1.728-4.536c-1.152-1.008-2.808-1.512-5.04-1.512zm-11.52-8.208h17.208c5.832 0 10.224 1.008 13.176 3.096 2.88 2.088 4.32 5.256 4.32 9.432 0 3.384-.792 6.12-2.52 8.136-1.656 2.016-4.248 3.312-7.632 3.96 1.44.504 2.664 1.224 3.744 2.304 1.08 1.008 2.16 2.52 3.168 4.464l7.344 13.824h-12.888l-6.408-12.816c-.792-1.368-1.512-2.376-2.376-2.952-.792-.576-1.944-.792-3.528-.792h-2.232l-.288 16.56h-11.736zM169.416 219.328h11.664l-.792 45.216h-11.664zm27.072 0-15.696 22.176 14.76 23.04h14.184l-16.632-23.184 16.992-22.032zM244.296 220.84l-1.728 8.424c-1.872-.576-3.672-.936-5.472-1.296-1.728-.288-3.528-.36-5.184-.36-1.944 0-3.528.288-4.68 1.008s-1.8 1.584-1.8 2.736c0 1.44 1.872 3.024 5.544 4.752 1.296.576 2.304 1.08 3.024 1.44 3.672 1.872 6.408 3.888 8.064 6.192 1.656 2.232 2.448 4.896 2.448 8.064 0 4.032-1.584 7.344-4.824 9.864-3.168 2.448-7.488 3.744-12.816 3.744-2.16 0-4.392-.216-6.624-.576a52.5 52.5 0 0 1-6.984-1.8l1.728-8.856c2.52.72 4.752 1.296 6.552 1.656s3.384.504 4.752.504c1.512 0 2.808-.288 3.816-.936q1.512-.972 1.512-2.376c0-.648-.144-1.224-.432-1.8a8.7 8.7 0 0 0-1.368-1.512c-.792-.648-2.448-1.656-4.968-2.952-1.296-.72-2.304-1.224-3.024-1.584-2.592-1.512-4.608-3.311-5.976-5.472q-2.16-3.24-2.16-7.128c0-4.392 1.584-7.848 4.752-10.296s7.704-3.6 13.464-3.6c1.8 0 3.672.144 5.76.504s4.248.936 6.624 1.656M333.936 220.84l-1.728 8.424c-1.872-.576-3.672-.936-5.472-1.296-1.8-.288-3.528-.36-5.184-.36-1.944 0-3.528.288-4.68 1.008s-1.8 1.584-1.8 2.736c0 1.44 1.872 3.024 5.544 4.752 1.296.576 2.304 1.08 3.024 1.44 3.672 1.872 6.408 3.888 8.064 6.192 1.656 2.232 2.448 4.896 2.448 8.064 0 4.032-1.584 7.344-4.824 9.864-3.168 2.448-7.488 3.744-12.816 3.744-2.16 0-4.392-.216-6.624-.576a51.5 51.5 0 0 1-6.912-1.8l1.728-8.856c2.448.72 4.68 1.296 6.48 1.656s3.384.504 4.68.504c1.584 0 2.88-.288 3.888-.936q1.512-.972 1.512-2.376c0-.648-.144-1.224-.432-1.8a8.7 8.7 0 0 0-1.368-1.512c-.792-.648-2.448-1.656-4.968-2.952-1.296-.72-2.304-1.224-3.024-1.584-2.592-1.512-4.608-3.311-5.976-5.472-1.368-2.16-2.088-4.536-2.088-7.128 0-4.392 1.584-7.848 4.68-10.296 3.168-2.448 7.632-3.6 13.464-3.6 1.8 0 3.672.144 5.76.504s4.248.936 6.624 1.656M338.4 219.328h38.88l-.144 9.936h-13.608l-.576 35.28h-11.808l.648-35.28h-13.464zM399.24 226.816a88 88 0 0 1-1.08 3.888c-.36 1.44-.576 2.232-.648 2.448l-4.176 12.096h11.52l-3.96-12.24c-.144-.36-.432-1.368-.792-3.096-.36-1.224-.648-2.304-.864-3.096m-6.912-7.488h14.4l16.704 45.216h-12.528l-3.6-10.584h-16.488l-3.888 10.584h-12.672zM428.976 219.328h11.952l-.576 35.352h20.592l-.144 9.864h-32.616zM284.976 228.328h-10.224l9.216 13.248-9.216 13.824h10.224l9.432-14.184zM478.944 228.328h10.224l-9.216 13.248 9.216 13.824h-10.224l-9.432-14.184z" style="fill:#d2ab67"/><path d="M297.432 462.112c-.216-1.224-.576-2.16-1.296-2.88-.648-.72-1.44-1.008-2.376-1.008-1.008 0-1.872.36-2.592 1.152s-1.08 1.656-1.08 2.736c0 .864.288 1.656.864 2.304s1.296.936 2.16.936c.72 0 1.44-.288 2.232-.792.72-.576 1.44-1.368 2.088-2.448m-13.824 19.656 1.512-5.4 1.728.216c.648.072 1.224.072 1.8.072 2.664 0 4.896-.792 6.624-2.52 1.728-1.656 2.664-3.888 2.952-6.768-1.008 1.224-2.088 2.088-3.24 2.736a8.4 8.4 0 0 1-3.744.864c-2.232 0-4.176-.864-5.688-2.664-1.584-1.728-2.376-3.888-2.376-6.408q0-1.728.648-3.456c.432-1.08 1.008-2.088 1.728-2.952a9.5 9.5 0 0 1 3.672-2.592c1.368-.648 2.952-.936 4.608-.936 3.456 0 6.264 1.224 8.424 3.744 2.16 2.448 3.24 5.616 3.24 9.576 0 2.448-.432 4.752-1.152 6.768-.792 2.088-2.016 3.96-3.672 5.76-1.296 1.44-2.952 2.592-4.824 3.384s-3.888 1.152-5.976 1.152c-.864 0-1.8 0-2.808-.144-1.008-.072-2.16-.288-3.456-.432M313.128 452.392h16.848l-.072 5.4H318.6l-1.008 5.472c1.008-.288 1.8-.504 2.52-.576a8.8 8.8 0 0 1 1.872-.216c2.52 0 4.68.864 6.408 2.592 1.656 1.728 2.52 3.888 2.52 6.48 0 1.296-.288 2.592-.792 3.888a12 12 0 0 1-2.376 3.384c-1.224 1.224-2.592 2.16-4.104 2.736-1.584.576-3.312.864-5.328.864-1.152 0-2.376-.144-3.672-.36a33 33 0 0 1-4.248-1.224l1.8-5.832a9.5 9.5 0 0 0 2.592 1.224c.864.288 1.8.432 2.88.432 1.656 0 3.096-.504 4.248-1.44s1.8-2.088 1.8-3.456c0-1.296-.504-2.376-1.44-3.168s-2.16-1.224-3.6-1.224c-1.08 0-2.016.144-2.88.504-.792.36-1.512.792-2.16 1.44l-3.024-2.16zM270.504 452.464l5.4-.072-.216 29.592h-6.912l.288-21.672-5.904 5.112v-7.128zM344.592 452.464l5.4-.072-.216 29.592h-6.912l.288-21.672-5.904 5.112v-7.128z" style="fill:#00549a"/></svg>