<?xml version="1.0" encoding="iso-8859-1"?>
<!-- Generator: Adobe Illustrator 24.0.1, SVG Export Plug-In . SVG Version: 6.00 Build 0)  -->
<svg version="1.1" id="Layer_1" xmlns="http://www.w3.org/2000/svg" xmlns:xlink="http://www.w3.org/1999/xlink" x="0px" y="0px"
	 viewBox="0 0 660 660" style="enable-background:new 0 0 660 660;" xml:space="preserve">
<path style="fill:#2E3192;stroke:#000000;stroke-width:0.0841;" d="M64.834,484.213h215.044
	c27.556-0.665,44.623,16.485,49.286,23.062h2.414c4.83-6.577,21.813-23.727,49.37-23.062h215.042
	c27.889,0,50.618-27.14,50.618-60.441V141.293H330.413l0,0H14.217v282.479C14.217,456.991,37.027,484.213,64.834,484.213z"/>
<path style="fill:#FFF200;" d="M173.479,215.556c11.489,0,20.897-9.408,20.897-20.979c0-11.489-9.408-20.896-20.897-20.896
	c-11.571,0-20.978,9.408-20.978,20.896C152.501,206.148,161.909,215.556,173.479,215.556z"/>
<polygon style="fill:#FFFFFF;" points="246.91,179.924 261.728,179.674 277.797,169.434 268.721,168.102 289.619,154.698 
	267.057,158.777 274.467,149.62 251.406,151.95 238.252,165.521 "/>
<path d="M242.664,188.498h5.328c0.667,0,1.167,0.583,1.167,1.165l1.332,120.385h8.825l3.08-120.217c0-0.751,0.583-1.333,1.25-1.333
	h4.912v-10.157h-25.893V188.498z"/>
<path style="fill:#00A651;" d="M14.217,281.658v46.372h316.196v-55.779c-2.248,3.662-4.829,7.409-8.327,9.657
	c0.5,1.416,1.583,2.414,3.415,3.08c-2.249,2.832-5.912,3.914-10.657,3.914c1.165,2.415,3.496,4.747,6.662,6.078
	c-2.499,2.164-6.079,2.83-10.408,2.665c2.415,3.495,5.912,7.077,9.657,8.574c-5.328,2.748-12.988,4.247-18.648-1.664
	c2.332-0.167,4.162-1,5.495-3.081c-1.583-0.583-4.163-1.997-4.83-4.496c2.165-0.333,3.664-1.332,4.747-3.747
	c-3.164-1.332-6.828-4.663-8.825-8.574c-0.665,3.579-2.497,6.993-6.243,9.323c0.748,1.499,1.915,2.749,3.58,3.415
	c-5.912,4.745-5.995,6.993-16.816-1.5c3.078-1.498,5.577-2.247,6.244-4.995c-3.165-0.416-6.828-2.332-9.491-5.661
	c2.83-0.416,3.996-0.917,6.409-2.997c-3.996-1.333-7.409-3.914-10.49-8.158c-1.332,4.162-4.662,7.327-9.325,8.908
	c2.083,2.33,3.748,2.664,6.246,2.496c-1.165,2.999-3.331,5.995-7.493,6.662c1.998,2.746,4.247,4.579,8.325,4.828
	c-6.909,8.409-10.239,7.242-21.145,1.416c4.247-0.584,7.658-2.499,10.573-5.163c-5.744-1.165-13.737-2.996-17.4-6.828
	c3.413-0.249,5.579-2.414,7.078-4.745c-3.831-1.58-9.243-2.58-11.575-6.827c2.583,0,4.08-0.332,5.746-1.581
	c-5.079-3.163-10.157-8.158-13.237-15.486c-0.501,6.995-2.164,13.321-6.993,18.15c2.331,0.918,4.579,1.25,6.993,0.582
	c-1.999,3.665-3.998,5.497-8.076,7.826c2.747,1.333,5.745,2.499,8.576,2.165c-3.164,3.748-6.911,7.077-14.32,8.326
	c4.081,3.414,10.573,4.579,15.736,4.828c-6.912,4.08-17.402,1.332-21.98-5.328c3.746-0.916,6.245-3.331,7.41-6.41
	c-4.996-0.5-8.493-2.164-11.075-5.661c2.915-0.749,4.498-1.997,5.33-4.33c-4.08-0.915-9.157-2.664-11.656-7.243
	c-2.164,4.664-4.08,7.826-9.157,9.823c1.498,1.999,4.079,3.082,6.244,3.582c-2.416,2.996-5.494,5.244-10.49,6.161
	c2.746,2.664,5.661,3.911,9.907,4.994c-2.915,3.08-8.826,4.329-13.821,4.745c4.412,3.746,9.075,5.577,13.654,6.411
	c-3.914,2.248-9.825,2.414-14.986,1.914c0.582,2.832,2.913,5.079,5.911,6.577c-5.661,1.75-12.654,0.833-17.65-4.661
	c2.999-1.082,7.493-2.499,8.993-5.578c-3.247,0.333-6.246-0.25-9.658-2.082c6.91-1.167,8.992-3.413,12.738-6.994
	c-4.912-0.999-9.823-1.415-14.403-5.326c4.496,0.332,9.491,0.332,12.822-3.832c-4.247-0.832-9.409-1.664-12.655-5.495
	c2.83-0.499,6.161-1.747,7.742-4.245c-4.745-0.832-9.49-1.665-12.903-5.327c2.248,0.082,3.995-0.418,5.327-2.331
	c-4.329-2.581-8.158-6.245-10.989-11.99c-1,5.163-2.332,10.658-7.244,12.655c2.082,2.249,3.663,2.249,5.995,1.831
	c-1.165,2.999-3.831,5.996-8.409,8.326c2.747,1.748,5.661,1.081,8.325,0.583c-1.746,3.413-4.246,6.161-10.157,7.077
	c2.25,2.58,6.079,3.08,10.075,2.914c-4.496,4.162-6.744,6.16-14.07,5.912c2.582,2.746,6.91,4.578,10.74,4.413
	c-3.33,3.246-8.657,3.163-13.902,2.912c2.579,3.081,7.574,6.494,12.153,7.161c-7.077,2.413-17.4,4.994-25.392-1.999
	c3.913-0.666,7.242-1.498,9.325-3.58c-3.747-0.417-7.41-1.999-10.406-4.663c4.246-0.084,8.241-0.333,12.238-2.58
	c-4.246-0.5-8.742-1.249-12.739-4.08c1.999-0.249,4.247-0.916,6.079-2.831c-2.414-0.25-4.913-1.082-7.077-2.996
	c-3.08,4.08-6.326,8.325-9.408,12.32c-4.161,0.667-8.99-0.5-12.904-2.996c-3.579-1.833-5.328-17.567-8.408-20.563
	c-4.413-4.247-7.993,5.91-16.734,6.66c1.83,1.83,4.994,3.079,8.409,2.746c-3.164,3.415-8.076,4.579-12.406,4.663
	c4.164,3.413,8.992,4.829,13.571,4.995c-6.161,2.665-14.07,4.08-21.396,2.665c1,2.829,2.165,6.161,4.329,7.158
	c-3.08,0.667-7.909-1.247-9.658-4.579c-2.996-7.491-5.909-14.902-8.823-22.395c-1.999,3.497-6.826,6.994-11.489,8.244
	c1.664,2.58,5.161,3.329,7.993,3.329c-1.916,3.08-5.413,5.412-9.992,4.829c2.997,3.663,6.411,4.744,9.574,4.744
	c-3.829,2.499-8.408,4.414-13.902,3.581c2.829,2.829,6.909,4.828,10.822,5.495c-6.328,1.249-15.818,3.829-20.396-4.995
	c3.163,0.248,5.244-1.166,7.325-2.416c-3.164-1.83-8.409-4.661-9.241-9.157c2.414,0.5,5.245,0.084,7.326-0.832
	C22.042,289.569,17.547,285.904,14.217,281.658z"/>
<path d="M144.674,388.972h-11.157l-10.905-106.23h12.821v-17.567h-14.653l-4.745-46.206h11.987v-14.319h-14.984l-1-4.079
	l-11.239,0.583l0.916,3.496h-3.913H76.324h-6.079l0.249-4.579l-10.905,0.332l-0.417,4.247h-16.15v14.319h13.819l-4.745,46.206
	H33.781v17.567h16.569l-10.99,106.23H26.87v29.139h9.492l-5.245,50.702c3.913,4.163,8.409,7.658,13.237,10.24l5.996-60.941h0.083
	l25.892,25.891l21.479,21.48l18.732,18.731h26.807l-6.827-66.102h8.158V388.972z M97.803,218.969h5.328l3.08,31.387l-8.407-10.157
	l-17.399-21.23H97.803z M69.83,218.969h0.084l6.411,7.826l21.479,26.143l9.823,11.903v0.333h-9.823H76.324H65.251L69.83,218.969z
	 M63.586,282.742h12.738h20.479l-20.479,39.212l-20.398,39.128L63.586,282.742z M76.324,345.265l21.479-40.628l11.572-21.895
	l10.407,106.23H97.803H76.324H53.263L76.324,345.265z M97.803,448.832l-21.479-21.398l-9.242-9.324h9.242h21.479h24.81l5.995,61.524
	L97.803,448.832z"/>
<path style="fill:none;stroke:#000000;stroke-width:0.0841;" d="M116.536,484.213h26.807l-6.827-66.102h8.158v-29.139h-11.157
	l-10.905-106.23h12.821v-17.567h-14.653l-4.745-46.206h11.987v-14.319h-14.984l-1-4.079l-11.239,0.583l0.916,3.496H70.246
	l0.249-4.579l-10.905,0.332l-0.417,4.247h-16.15v14.319h13.819l-4.745,46.206H33.781v17.567h16.569l-10.99,106.23H26.87v29.139
	h9.492l-5.245,50.702c3.913,4.163,8.409,7.658,13.237,10.24l5.996-60.941h0.083L116.536,484.213L116.536,484.213z M128.607,479.635
	l-61.526-61.524h55.531L128.607,479.635L128.607,479.635z M119.782,388.972h-66.52l56.112-106.23l0,0L119.782,388.972
	L119.782,388.972z M55.926,361.082l7.66-78.34h33.217L55.926,361.082L55.926,361.082z M65.251,265.175l4.579-46.206h0.084
	l37.713,45.873v0.333H65.251L65.251,265.175z M80.404,218.969h22.727l3.08,31.387L80.404,218.969z"/>
<path style="fill:#FFFFFF;" d="M105.877,203.235c4.83,0,8.742-3.913,8.742-8.743c0-4.829-3.912-8.741-8.742-8.741
	c-4.827,0-8.823,3.912-8.823,8.741C97.054,199.322,101.05,203.235,105.877,203.235z"/>
<path style="fill:#FFFFFF;" d="M64.751,203.235c4.829,0,8.741-3.913,8.741-8.743c0-4.829-3.912-8.741-8.741-8.741
	c-4.829,0-8.825,3.912-8.825,8.741C55.926,199.322,59.922,203.235,64.751,203.235z"/>
<path style="fill:#00A651;" d="M229.094,484.213h50.784c6.66-0.167,12.737,0.75,18.066,2.25c7.326-2.915,13.238-8.076,17.816-12.822
	c-8.576-2.997-19.815-5.661-24.892-15.818c8.49-3.329,16.733-7.909,21.23-18.399c-11.241-0.832-20.148-6.244-26.143-14.902
	c8.16-4.245,15.07-9.49,18.066-18.397c-8.825,0.83-17.901-0.418-21.646-9.992c7.16-0.999,14.737-4.328,18.566-13.403
	c-7.493,1.581-14.32-1.915-20.397-8.409c5.993-1.165,11.821-4.08,13.235-11.988c-4.828,1.915-11.322,0.499-14.651-3.748
	c3.996-1.165,7.327-4.578,9.324-7.992c-8.409,0.833-15.901-7.242-18.98-18.646c-5.496,8.906-11.906,16.232-20.648,14.318
	c1.832,3.997,4.247,6.661,8.077,8.576c-2.499,6.326-10.824,7.741-16.567,6.41c1.415,5.995,6.161,10.407,12.654,11.489
	c-4.747,7.742-14.57,10.655-22.562,8.158c1.332,6.161,6.742,11.739,14.237,15.569c-5.245,9.99-16.151,12.571-24.893,10.488
	c4.163,10.408,11.073,15.653,20.147,18.65c-6.327,9.407-12.821,18.148-27.224,15.818c6.412,10.739,16.9,14.986,26.642,15.484
	c-6.327,10.324-16.983,10.739-29.555,7.66C212.359,474.141,221.518,480.384,229.094,484.213z"/>
<path style="stroke:#000000;stroke-width:0.0841;" d="M330.413,507.275h1.165c4.83-6.577,21.813-23.727,49.37-23.062h215.042
	c27.889,0,50.618-27.14,50.618-60.441V141.293H330.413V507.275z"/>
<g>
	<polygon style="fill:#00A651;" points="619.135,170.1 631.623,149.787 615.473,149.787 607.396,165.187 607.396,149.787 
		592.661,149.787 592.661,192.578 607.396,192.578 607.396,176.344 615.055,192.578 631.956,192.578 	"/>
	<path style="fill:#00A651;" d="M581.505,154.616c-1.832-1.167-3.662-2-5.577-2.499c-1.5-0.333-2.998-0.5-4.58-0.583
		c-0.416,0-0.832,0-1.25,0v-4.745h-14.735v4.745c-0.417,0-0.833,0-1.25,0c-1.499,0.083-3.08,0.333-4.579,0.666
		c-1.916,0.416-3.829,1.249-5.661,2.416c-1.749,1.248-3.247,3.078-4.414,5.41c-1.081,2.414-1.665,5.412-1.665,8.992
		c0,4.744,0.916,8.407,2.831,10.989c1.831,2.664,4.079,4.413,6.743,5.245c2.165,0.748,4.414,1.165,6.744,1.332
		c0.416,0,0.832,0,1.25,0v5.994h14.735v-5.994c0.418,0,0.833,0,1.25,0c1.499-0.083,2.997-0.332,4.58-0.665
		c1.915-0.418,3.828-1.249,5.577-2.499c1.831-1.165,3.331-2.995,4.496-5.328c1.081-2.415,1.665-5.412,1.665-9.074
		c0-3.58-0.5-6.66-1.665-8.992C584.836,157.694,583.336,155.864,581.505,154.616z M556.862,174.596h-1
		c-0.665,0-1.248-0.084-1.748-0.334c-0.498-0.249-0.999-0.582-1.414-1.084c-0.916-0.997-1.332-2.329-1.332-4.161
		c0-1.167,0.25-2.332,0.83-3.58c0.335-0.833,1-1.416,1.916-1.749c0.5-0.081,1.083-0.165,1.748-0.165h1V174.596z M572.929,173.098
		c-0.416,0.499-0.915,0.916-1.581,1.165c-0.5,0.25-1.083,0.334-1.832,0.334H568.6v-11.073h0.916c0.749,0,1.332,0.084,1.832,0.333
		c0.667,0.251,1.165,0.667,1.581,1.167c0.833,1.081,1.165,2.413,1.165,3.996C574.095,170.682,573.762,172.014,572.929,173.098z"/>
</g>
<g>
	<polygon style="fill:#FFF200;" points="421.658,244.861 416.83,221.717 402.428,221.717 402.428,264.926 412.333,264.926 
		412.333,239.616 417.663,264.926 425.654,264.926 430.982,239.616 430.982,264.926 440.889,264.926 440.889,221.717 
		426.655,221.717 	"/>
	<path style="fill:#FFF200;" d="M379.281,221.717h-5.244l-13.154,43.209h10.738l1.667-6.162h5.993h5.997l1.581,6.162h11.071
		l-13.07-43.209H379.281z M379.281,249.773h-3.495l3.495-12.322l0.168-0.414l3.413,12.737H379.281z"/>
	<path style="fill:#FFF200;" d="M638.7,229.709c-0.916-2.332-2.164-4.08-3.662-5.329c-1.25-0.998-2.499-1.665-3.831-2.081
		c-1.25-0.333-3.081-0.583-5.494-0.583h-1.333h-15.651v43.209h10.74v-13.154h4.911h2.331c4.162,0,7.493-1.332,9.825-3.996
		c2.413-2.581,3.578-6.246,3.578-10.824C640.114,234.371,639.698,231.956,638.7,229.709z M628.209,240.449
		c-0.749,0.832-1.831,1.248-3.329,1.248h-0.5h-4.911v-9.324h4.911h0.583c1.499,0,2.581,0.332,3.33,1.081
		c0.666,0.667,0.999,1.832,0.999,3.414C629.292,238.367,628.959,239.616,628.209,240.449z"/>
	<path style="fill:#FFF200;" d="M528.473,225.296c-1.665,2.415-2.415,4.912-2.415,7.744v31.885h10.739v-29.888
		c0-0.916,0.167-1.583,0.499-2.081c0.251-0.418,0.667-0.749,1.167-0.833c0.5-0.167,1.165-0.167,1.998-0.167h7.242v32.97h10.74
		v-43.209h-23.062C532.384,221.717,530.138,222.966,528.473,225.296z"/>
	<path style="fill:#FFF200;" d="M597.074,226.879c-1.583-1.916-3.497-3.415-5.746-4.496c-2.247-1.083-4.745-1.583-7.493-1.583
		c-2.747,0-5.161,0.499-7.493,1.583c-2.248,1.081-4.163,2.58-5.661,4.578c-1.581,1.914-2.83,4.328-3.663,7.075
		c-0.916,2.749-1.332,5.828-1.332,9.243c0,6.826,1.664,12.321,4.995,16.483c3.33,4.164,7.744,6.244,13.154,6.244
		c3.58,0,6.744-0.915,9.574-2.831c2.832-1.913,4.913-4.579,6.412-8.076c1.497-3.412,2.247-7.409,2.247-11.821
		c0-3.415-0.416-6.493-1.248-9.243C599.904,231.207,598.738,228.876,597.074,226.879z M589.081,252.021
		c-1.249,2.082-3.08,3.164-5.245,3.164c-2.248,0-3.996-1.082-5.328-3.247c-1.332-2.165-1.997-5.078-1.997-8.658
		c0-3.58,0.665-6.412,1.997-8.576c1.416-2.248,3.163-3.331,5.328-3.331c2.166,0,3.996,1.083,5.245,3.248
		c1.333,2.165,1.997,4.995,1.997,8.658C591.078,246.942,590.414,249.857,589.081,252.021z"/>
	<path style="fill:#FFF200;" d="M479.02,226.879c-1.581-1.916-3.497-3.415-5.746-4.496c-2.246-1.083-4.745-1.583-7.575-1.583
		c-2.664,0-5.161,0.499-7.41,1.583c-2.247,1.081-4.163,2.58-5.744,4.578c-1.581,1.914-2.747,4.328-3.663,7.075
		c-0.833,2.749-1.249,5.828-1.249,9.243c0,6.826,1.665,12.321,4.912,16.483c3.331,4.164,7.744,6.244,13.154,6.244
		c3.58,0,6.828-0.915,9.575-2.831c2.83-1.913,4.994-4.579,6.494-8.076c1.499-3.412,2.247-7.409,2.247-11.821
		c0-3.415-0.416-6.493-1.331-9.243C481.851,231.207,480.601,228.876,479.02,226.879z M471.028,252.021
		c-1.333,2.082-3.081,3.164-5.329,3.164c-2.164,0-3.996-1.082-5.329-3.247c-1.247-2.165-1.914-5.078-1.914-8.658
		c0-3.58,0.666-6.412,1.998-8.576c1.332-2.248,3.081-3.331,5.245-3.331c2.248,0,3.996,1.083,5.329,3.248
		c1.331,2.165,1.913,4.995,1.913,8.658C472.941,246.942,472.359,249.857,471.028,252.021z"/>
	<polygon style="fill:#FFF200;" points="487.594,233.04 497.917,233.04 497.917,264.926 508.659,264.926 508.659,233.04 
		518.731,233.04 518.731,221.717 487.594,221.717 	"/>
</g>
<path style="fill:#FFF200;" d="M385.443,301.224c20.729,0,38.879-11.571,48.204-28.639h-19.15
	c-7.158,7.907-17.564,12.903-29.054,12.903c-21.645,0-39.294-17.648-39.294-39.295c0-21.646,17.65-39.296,39.294-39.296
	c6.66,0,12.904,1.665,18.399,4.662h24.227c-10.074-12.404-25.475-20.397-42.626-20.397c-30.304,0-55.03,24.727-55.03,55.031
	C330.413,276.496,355.139,301.224,385.443,301.224z"/>
<path style="fill:#FFF200;" d="M568.268,394.467l0.417,0.75h-0.417h15.734l8.159-17.069l7.825,17.069h16.234l-16.151-29.472
	l15.152-27.557h-15.735l-7.325,15.484l-7.161-15.484H569.1l14.985,27.557L568.268,394.467L568.268,394.467z M634.62,338.188v57.029
	h-13.404v-57.029H634.62z M552.533,365.745l15.735,28.722l-0.417,0.75h0.417h-15.819l-7.909-17.069l-8.074,17.069h-16.151
	l16.151-29.472l-14.902-27.557h15.901l7.076,15.484l7.326-15.484h15.819L552.533,365.745z"/>
<path style="fill:#FFFFFF;stroke:#FFFFFF;stroke-width:0.4768;" d="M439.058,298.893c48.454,8.741,80.757,55.196,72.099,103.566
	c-8.658,48.37-55.196,80.755-103.65,72.097c-48.371-8.741-80.674-55.28-72.016-103.65
	C344.15,322.619,390.688,290.235,439.058,298.893L439.058,298.893L439.058,298.893L439.058,298.893z"/>
<g>
	<path style="fill:none;stroke:#2E3192;stroke-width:0.2805;" d="M393.436,384.56c-11.74,0.915-25.143,1.249-32.22,2.747"/>
</g>
<g>
	<path style="fill:none;stroke:#000000;stroke-width:0.2805;" d="M450.88,404.041c12.738,8.909,21.979,18.815,26.391,23.145"/>
</g>
<g>
	<path style="fill:none;stroke:#000000;stroke-width:0.2805;" d="M376.452,324.784c-7.494,7.576-23.644,27.807-27.057,38.297"/>
</g>
<g>
	<path style="fill:none;stroke:#000000;stroke-width:0.2805;" d="M407.506,323.202c-0.085,13.154,4.494,25.726,9.073,33.968"/>
</g>
<g>
	<line style="fill:none;stroke:#000000;stroke-width:0.2805;" x1="432.148" y1="308.55" x2="465.116" y2="318.957"/>
</g>
<g>
	<line style="fill:none;stroke:#000000;stroke-width:0.2805;" x1="473.692" y1="351.092" x2="449.216" y2="371.738"/>
</g>
<g>
	<path style="fill:none;stroke:#000000;stroke-width:0.2805;" d="M498.002,365.079c1.331,9.823,7.409,19.981,1.581,44.79"/>
</g>
<g>
	<path style="fill:none;stroke:#000000;stroke-width:0.2805;" d="M428.901,469.06c12.238-3.663,29.223-7.242,43.542-18.564"/>
</g>
<g>
	<line style="fill:none;stroke:#000000;stroke-width:0.2805;" x1="414.581" y1="412.783" x2="403.343" y2="448.915"/>
</g>
<g>
	<path style="fill:none;stroke:#000000;stroke-width:0.2805;" d="M347.812,413.031c2.498,9.909,15.235,31.888,26.975,39.297"/>
</g>
<g>
	<path d="M373.038,460.403c-0.332-4.829-0.749-9.241-1.081-10.157c11.322-0.084,21.895-1,31.719-2.581
		c6.162,7.327,12.571,12.989,28.14,20.564l0,0l0,0l-7.992,7.742l0,0l0,0c-5.329,0-10.824-0.5-16.318-1.416
		C394.768,472.226,383.112,467.314,373.038,460.403L373.038,460.403L373.038,460.403L373.038,460.403L373.038,460.403z
		 M480.684,318.456c9.825,8.325,17.816,18.65,23.313,30.138l0,0l0,0l-5.329,20.731l0,0l0,0
		c-8.741-12.155-17.983-18.233-27.889-15.652c2.081-11.738-4.496-23.643-7.992-35.299l0,0l0,0L480.684,318.456L480.684,318.456
		L480.684,318.456L480.684,318.456z M505.077,422.44c-6.16,14.07-15.734,26.059-27.556,35.049c-3.497-0.667-6.995-1.33-11.906-2.246
		l0,0l0,0l9.409-30.388l0,0l0,0c8.242-4.579,20.396-11.989,26.391-19.897C501.499,406.206,503.246,414.947,505.077,422.44
		L505.077,422.44L505.077,422.44L505.077,422.44L505.077,422.44z M337.406,410.868c-3.496-12.488-4.412-25.976-1.998-39.628
		c5.911-4.08,15.734-11.822,15.983-13.072c1.665,3.415,5.412,24.394,12.905,28.723c-7.827,8.492-13.237,22.645-15.319,29.721
		C343.983,413.866,340.57,412.201,337.406,410.868L337.406,410.868L337.406,410.868L337.406,410.868L337.406,410.868z
		 M377.535,310.215c12.904-7.742,27.806-12.238,43.292-12.655c3.162,4.746,8.576,9.076,15.9,12.405
		c-5.079,1.249-23.311,9.574-28.806,16.567c-6.993-1.249-25.808-2.246-32.885-0.083
		C374.787,322.287,376.202,315.959,377.535,310.215L377.535,310.215L377.535,310.215L377.535,310.215L377.535,310.215z
		 M415.581,354.172l38.297,13.321l-0.915,37.797L413.5,416.363l-21.563-31.553L415.581,354.172L415.581,354.172L415.581,354.172z"/>
	<path style="fill:none;stroke:#000000;stroke-width:0.2805;" d="M373.038,460.403c-0.332-4.829-0.749-9.241-1.081-10.157
		c11.322-0.084,21.895-1,31.719-2.581c6.162,7.327,12.571,12.989,28.14,20.564l0,0l0,0l-7.992,7.742l0,0l0,0
		c-5.329,0-10.824-0.5-16.318-1.416C394.768,472.226,383.112,467.314,373.038,460.403L373.038,460.403L373.038,460.403
		L373.038,460.403L373.038,460.403z M480.684,318.456c9.825,8.325,17.816,18.65,23.313,30.138l0,0l0,0l-5.329,20.731l0,0l0,0
		c-8.741-12.155-17.983-18.233-27.889-15.652c2.081-11.738-4.496-23.643-7.992-35.299l0,0l0,0L480.684,318.456L480.684,318.456
		L480.684,318.456L480.684,318.456z M505.077,422.44c-6.16,14.07-15.734,26.059-27.556,35.049c-3.497-0.667-6.995-1.33-11.906-2.246
		l0,0l0,0l9.409-30.388l0,0l0,0c8.242-4.579,20.396-11.989,26.391-19.897C501.499,406.206,503.246,414.947,505.077,422.44
		L505.077,422.44L505.077,422.44L505.077,422.44L505.077,422.44z M337.406,410.868c-3.496-12.488-4.412-25.976-1.998-39.628
		c5.911-4.08,15.734-11.822,15.983-13.072c1.665,3.415,5.412,24.394,12.905,28.723c-7.827,8.492-13.237,22.645-15.319,29.721
		C343.983,413.866,340.57,412.201,337.406,410.868L337.406,410.868L337.406,410.868L337.406,410.868L337.406,410.868z
		 M377.535,310.215c12.904-7.742,27.806-12.238,43.292-12.655c3.162,4.746,8.576,9.076,15.9,12.405
		c-5.079,1.249-23.311,9.574-28.806,16.567c-6.993-1.249-25.808-2.246-32.885-0.083
		C374.787,322.287,376.202,315.959,377.535,310.215L377.535,310.215L377.535,310.215L377.535,310.215L377.535,310.215z
		 M415.581,354.172l38.297,13.321l-0.915,37.797L413.5,416.363l-21.563-31.553L415.581,354.172L415.581,354.172L415.581,354.172z"/>
</g>
</svg>
