<svg enable-background="new 0 0 612 792" viewBox="0 0 612 792" xmlns="http://www.w3.org/2000/svg"><path d="M 90.132 52.564 L 95.853 70.175 L 114.372 70.175 L 99.39 81.059 L 105.112 98.67 L 90.132 87.786 L 75.151 98.67 L 80.873 81.059 L 65.892 70.175 L 84.409 70.175 Z" fill="#bd9126"/><path d="M 143.973 6.894 L 138.25 24.504 L 119.733 24.504 L 134.714 35.389 L 128.993 53 L 143.973 42.116 L 158.955 53 L 153.23 35.389 L 168.212 24.504 L 149.695 24.504 Z" fill="#bd9126"/><path d="M 273.179 52.564 L 267.456 70.175 L 248.938 70.175 L 263.92 81.059 L 258.199 98.67 L 273.179 87.786 L 288.16 98.67 L 282.438 81.059 L 297.418 70.175 L 278.901 70.175 Z" fill="#bd9126"/><path d="M 219.337 6.894 L 225.06 24.504 L 243.578 24.504 L 228.597 35.389 L 234.318 53 L 219.337 42.116 L 204.356 53 L 210.079 35.389 L 195.098 24.504 L 213.615 24.504 Z" fill="#bd9126"/><path d="M 340.483 125.452 l -.507 -2.896 h -2.941 c -59.21 0 -97.69 -8.848 -119.546 -16.27 c -23.633 -8.026 -33.42 -16.148 -33.516 -16.23 l -2.257 -1.905 l -2.273 1.905 c -.097 .081 -9.884 8.203 -33.517 16.23 c -21.856 7.423 -60.338 16.27 -119.547 16.27 h -2.941 l -.506 2.896 c -.108 .618 -10.619 62.44 3.438 129.816 c 8.288 39.725 23.359 73.627 44.793 100.763 c 26.849 33.994 63.744 57.343 109.657 69.402 l .889 .233 l .888 -.233 c 45.914 -12.059 82.808 -35.409 109.657 -69.402 c 21.433 -27.137 36.505 -61.039 44.792 -100.763 C 351.103 187.892 340.591 126.07 340.483 125.452 z"/><path d="M 45.711 189.053 c -11.045 0 -19.999 8.954 -19.999 20 s 8.954 20 19.999 20 h 271.993 c 11.045 0 20 -8.954 20 -20 s -8.955 -20 -20 -20 H 45.711 z" fill="#fff"/><g><path d="M 41.099 207.964 l -1.817 -1.305 c -.762 -.542 -1.314 -1.061 -1.643 -1.541 c -.308 -.453 -.457 -.92 -.457 -1.432 c 0 -.542 .188 -.972 .578 -1.316 c .405 -.359 .92 -.535 1.572 -.535 c 1.21 0 2.377 .655 3.468 1.947 l .882 1.044 v -4.899 l -.183 -.15 c -1.246 -1.019 -2.633 -1.536 -4.125 -1.536 c -1.577 0 -2.886 .556 -3.887 1.654 c -.99 1.084 -1.492 2.503 -1.492 4.215 c 0 1.148 .265 2.18 .787 3.069 c .51 .87 1.368 1.754 2.549 2.63 c 0 0 1.805 1.292 1.827 1.307 c 1.301 .999 1.962 2.044 1.962 3.112 c 0 .635 -.196 1.144 -.599 1.557 c -.4 .411 -.89 .61 -1.502 .61 c -1.52 0 -2.842 -.896 -4.042 -2.742 l -.919 -1.412 v 5.593 l .163 .148 c 1.432 1.31 3.053 1.975 4.818 1.975 c 1.565 0 2.858 -.569 3.841 -1.69 c .968 -1.103 1.459 -2.544 1.459 -4.283 C 44.338 211.551 43.248 209.524 41.099 207.964 z" fill="#005a8f"/><path d="M 55.801 198.21 c -2.702 0 -4.969 1.058 -6.736 3.146 c -1.748 2.061 -2.633 4.694 -2.633 7.822 c 0 3.053 .879 5.635 2.612 7.672 c 1.752 2.063 3.982 3.109 6.627 3.109 c 2.757 0 5.07 -1.044 6.877 -3.103 c 1.789 -2.04 2.696 -4.642 2.696 -7.735 c 0 -3.092 -.899 -5.706 -2.672 -7.768 C 60.781 199.267 58.503 198.21 55.801 198.21 z M 55.809 216.303 c -1.699 0 -3.077 -.652 -4.216 -1.997 c -1.143 -1.349 -1.723 -3.073 -1.723 -5.124 c 0 -2.119 .578 -3.878 1.716 -5.227 c 1.134 -1.343 2.539 -1.996 4.296 -1.996 c 1.669 0 3.039 .66 4.187 2.018 c 1.154 1.364 1.738 3.076 1.738 5.089 c 0 2.071 -.584 3.82 -1.739 5.199 C 58.919 215.636 57.526 216.303 55.809 216.303 z" fill="#005a8f"/><path d="M 79.901 198.491 v 11.979 c 0 1.533 -.097 2.617 -.289 3.222 c -.184 .579 -.483 1.088 -.892 1.512 c -.794 .801 -1.802 1.193 -3.077 1.193 c -.896 0 -1.678 -.201 -2.318 -.598 c -.649 -.402 -1.119 -.918 -1.438 -1.579 c -.323 -.671 -.487 -1.932 -.487 -3.749 v -11.979 h -3.375 v 11.957 c 0 1.686 .093 2.898 .281 3.708 c .188 .799 .429 1.488 .717 2.048 c .289 .565 .653 1.083 1.079 1.539 c 1.399 1.471 3.267 2.216 5.554 2.216 c 2.259 0 4.113 -.75 5.51 -2.228 c .426 -.446 .792 -.959 1.088 -1.523 c .294 -.562 .54 -1.267 .733 -2.097 c .194 -.836 .289 -2.024 .289 -3.633 v -11.987 h -.501 H 79.901 z" fill="#005a8f"/><path d="M 85.383 198.491 v 3.594 c 0 0 4.855 0 5.687 0 c 0 .944 0 17.655 0 17.655 h 3.376 c 0 0 0 -16.711 0 -17.655 c .834 0 5.781 0 5.781 0 v -3.594 h -.499 H 85.383 z" fill="#005a8f"/><path d="M 114.369 198.491 c 0 0 0 7.86 0 8.749 c -.846 0 -7.468 0 -8.313 0 c 0 -.889 0 -8.749 0 -8.749 h -3.375 v 21.249 h 3.375 c 0 0 0 -7.922 0 -8.811 c .845 0 7.467 0 8.313 0 c 0 .89 0 8.811 0 8.811 h 3.375 v -21.249 h -.501 H 114.369 z" fill="#005a8f"/><path d="M 143.008 198.491 c 0 0 -4.521 6.824 -5.233 7.9 c -.711 -1.076 -5.228 -7.9 -5.228 -7.9 h -3.001 v 21.249 h 3.374 c 0 0 0 -11.918 0 -14.588 c 1.239 1.884 4.372 6.651 4.372 6.651 h .975 c 0 0 3.104 -4.751 4.34 -6.642 c 0 2.68 0 14.579 0 14.579 h 3.374 v -21.249 h -.499 H 143.008 z" fill="#005a8f"/><path d="M 153.138 210.866 c .858 0 6.781 0 6.781 0 v -3.594 c 0 0 -5.923 0 -6.781 0 c 0 -.771 0 -4.417 0 -5.187 c .863 0 7.032 0 7.032 0 v -3.594 h -.5 h -9.906 v 21.249 h 10.624 v -3.594 c 0 0 -6.382 0 -7.249 0 C 153.138 215.374 153.138 211.64 153.138 210.866 z" fill="#005a8f"/><path d="M 166.503 198.491 h -.501 h -2.875 v 21.249 h 10.845 v -3.625 c 0 0 -6.599 0 -7.469 0 C 166.503 215.172 166.503 198.491 166.503 198.491 z" fill="#005a8f"/><path d="M 185.166 208.415 c 1.298 -.966 1.996 -2.346 1.996 -4.167 c 0 -1.108 -.224 -2.104 -.666 -2.958 c -.449 -.87 -1.104 -1.561 -1.951 -2.057 c -.841 -.493 -2 -.742 -3.445 -.742 h -4.345 h -.499 v 21.249 h 6.106 c 1.352 0 2.503 -.283 3.424 -.842 c .916 -.556 1.624 -1.288 2.1 -2.178 c .473 -.886 .713 -1.897 .713 -3.006 c 0 -1.41 -.396 -2.644 -1.178 -3.669 C 186.839 209.283 186.051 208.782 185.166 208.415 z M 183.026 206.432 c -.43 .475 -1.209 .714 -2.319 .714 c 0 0 -.609 0 -1.075 0 c 0 -.766 0 -4.295 0 -5.062 c .569 0 1.539 0 1.539 0 c 1.744 0 2.521 .74 2.521 2.401 C 183.691 205.299 183.474 205.935 183.026 206.432 z M 179.631 210.741 c .598 0 1.713 0 1.713 0 c 1.1 0 1.899 .11 2.375 .329 c .454 .209 .791 .516 1.035 .938 c .252 .439 .375 .91 .375 1.443 c 0 .51 -.121 .995 -.361 1.441 c -.234 .436 -.532 .744 -.908 .944 c -.266 .142 -.898 .31 -2.4 .31 c 0 0 -1.214 0 -1.83 0 C 179.631 215.369 179.631 211.519 179.631 210.741 z" fill="#005a8f"/><path d="M 199.801 198.21 c -2.703 0 -4.969 1.058 -6.737 3.146 c -1.748 2.061 -2.634 4.694 -2.634 7.822 c 0 3.052 .88 5.633 2.613 7.672 c 1.751 2.063 3.981 3.109 6.627 3.109 c 2.757 0 5.07 -1.044 6.876 -3.103 c 1.789 -2.039 2.696 -4.641 2.696 -7.735 c 0 -3.093 -.899 -5.706 -2.671 -7.769 C 204.779 199.267 202.501 198.21 199.801 198.21 z M 199.81 216.303 c -1.701 0 -3.08 -.652 -4.218 -1.997 c -1.144 -1.35 -1.724 -3.074 -1.724 -5.124 c 0 -2.119 .579 -3.878 1.718 -5.227 c 1.134 -1.343 2.539 -1.996 4.296 -1.996 c 1.667 0 3.037 .66 4.187 2.018 c 1.153 1.364 1.736 3.076 1.736 5.089 c 0 2.071 -.583 3.82 -1.738 5.199 C 202.918 215.636 201.525 216.303 199.81 216.303 z" fill="#005a8f"/><path d="M 223.9 198.491 v 11.979 c 0 1.536 -.096 2.62 -.289 3.222 c -.183 .579 -.481 1.087 -.892 1.512 c -.793 .801 -1.801 1.193 -3.077 1.193 c -.896 0 -1.676 -.201 -2.318 -.598 c -.648 -.401 -1.118 -.917 -1.436 -1.579 c -.324 -.669 -.488 -1.93 -.488 -3.749 v -11.979 h -3.374 v 11.957 c 0 1.683 .092 2.896 .28 3.706 c .189 .8 .429 1.488 .716 2.048 c .293 .569 .656 1.087 1.08 1.541 c 1.4 1.47 3.267 2.215 5.555 2.215 c 2.258 0 4.112 -.75 5.508 -2.228 c .425 -.444 .792 -.957 1.087 -1.523 c .295 -.564 .541 -1.269 .734 -2.097 c .194 -.834 .289 -2.023 .289 -3.633 v -11.987 h -.501 H 223.9 z" fill="#005a8f"/><path d="M 242.302 214.971 c -.938 -1.867 -1.645 -3.142 -2.158 -3.898 c -.375 -.554 -.768 -1.001 -1.168 -1.396 c .697 -.451 1.3 -1.006 1.713 -1.749 c .522 -.934 .787 -2.044 .787 -3.301 c 0 -1.854 -.546 -3.356 -1.619 -4.464 c -1.081 -1.11 -2.542 -1.673 -4.345 -1.673 h -4.161 h -.499 v 21.249 h 3.374 c 0 0 0 -7.922 0 -8.811 c .037 0 .122 0 .122 0 c .875 0 1.234 .151 1.371 .242 c .287 .191 .621 .517 .989 .968 c .389 .473 .828 1.119 1.304 1.924 l .767 1.546 l .74 1.479 l .479 .824 c .001 .002 .15 .256 .15 .256 l .855 1.572 h 4.021 l -1.351 -2.21 L 242.302 214.971 z M 234.227 201.959 c .087 0 .21 0 .21 0 c 1.358 0 2.005 .152 2.307 .279 c .402 .167 .706 .454 .934 .87 c .243 .446 .362 .933 .362 1.488 c 0 .565 -.111 1.069 -.327 1.504 c -.208 .418 -.484 .719 -.845 .922 c -.253 .142 -.847 .311 -2.241 .311 c 0 0 -.203 0 -.4 0 C 234.227 206.558 234.227 202.736 234.227 201.959 z" fill="#005a8f"/><path d="M 259.866 198.491 c 0 0 0 12.126 0 14.661 c -1.532 -2.149 -10.454 -14.661 -10.454 -14.661 h -2.671 v 21.249 h 3.219 c 0 0 0 -11.988 0 -14.517 c 1.53 2.145 10.353 14.517 10.353 14.517 h 2.804 v -21.249 h -.501 H 259.866 z" fill="#005a8f"/><path d="M 270.241 210.866 c .858 0 6.781 0 6.781 0 v -3.594 c 0 0 -5.923 0 -6.781 0 c 0 -.771 0 -4.417 0 -5.187 c .863 0 7.032 0 7.032 0 v -3.594 h -.5 h -9.906 v 21.249 h 10.625 v -3.594 c 0 0 -6.384 0 -7.25 0 C 270.241 215.374 270.241 211.64 270.241 210.866 z" fill="#005a8f"/><path d="M 294.491 207.964 l -1.818 -1.305 c -.762 -.543 -1.315 -1.061 -1.642 -1.541 c -.309 -.453 -.459 -.92 -.459 -1.432 c 0 -.542 .188 -.972 .578 -1.316 c .406 -.359 .919 -.535 1.574 -.535 c 1.225 0 2.359 .636 3.467 1.948 l .882 1.042 v -4.898 l -.183 -.15 c -1.246 -1.019 -2.633 -1.536 -4.125 -1.536 c -1.579 0 -2.887 .556 -3.887 1.654 c -.99 1.083 -1.492 2.502 -1.492 4.215 c 0 1.146 .265 2.178 .788 3.069 c .511 .871 1.368 1.755 2.548 2.63 c 0 0 1.805 1.292 1.827 1.307 c 1.302 .999 1.962 2.044 1.962 3.112 c 0 .635 -.196 1.145 -.598 1.557 c -.4 .411 -.892 .61 -1.504 .61 c -1.518 0 -2.84 -.896 -4.041 -2.742 l -.919 -1.41 v 5.591 l .162 .148 c 1.433 1.31 3.054 1.975 4.818 1.975 c 1.564 0 2.858 -.569 3.842 -1.69 c .968 -1.103 1.459 -2.544 1.459 -4.283 C 297.728 211.55 296.64 209.523 294.491 207.964 z" fill="#005a8f"/><path d="M 301.886 215.489 c -.555 0 -1.043 .241 -1.412 .695 c -.348 .425 -.526 .953 -.526 1.563 c 0 .604 .18 1.123 .532 1.541 c .367 .438 .855 .671 1.406 .671 c .55 0 1.04 -.23 1.417 -.666 c .365 -.423 .552 -.943 .552 -1.546 c 0 -.61 -.184 -1.14 -.548 -1.571 C 302.93 215.728 302.439 215.489 301.886 215.489 z" fill="#005a8f"/><path d="M 316.011 216.303 c -1.786 0 -3.211 -.646 -4.355 -1.975 c -1.147 -1.333 -1.729 -3.068 -1.729 -5.161 c 0 -2.072 .592 -3.816 1.759 -5.184 c 1.164 -1.362 2.583 -2.024 4.339 -2.024 c 1.742 0 3.558 .653 5.396 1.941 l .787 .551 v -4.389 l -.269 -.141 c -2.19 -1.136 -4.219 -1.712 -6.031 -1.712 c -2.665 0 -4.935 1.073 -6.747 3.19 c -1.794 2.096 -2.704 4.708 -2.704 7.764 c 0 1.922 .397 3.735 1.18 5.39 c .787 1.666 1.871 2.995 3.223 3.95 c 1.368 .965 3.051 1.455 5.002 1.455 c 2.371 0 4.495 -.606 6.309 -1.802 l .225 -.148 v -4.484 l -.809 .633 C 319.772 215.582 317.897 216.303 316.011 216.303 z" fill="#005a8f"/><path d="M 328.872 216.175 c -.377 -.448 -.868 -.686 -1.419 -.686 c -.556 0 -1.044 .241 -1.412 .695 c -.349 .425 -.525 .953 -.525 1.563 c 0 .604 .179 1.123 .53 1.541 c .368 .438 .855 .671 1.407 .671 c .556 0 1.033 -.224 1.416 -.666 c .366 -.419 .553 -.94 .553 -1.546 C 329.421 217.133 329.235 216.604 328.872 216.175 z" fill="#005a8f"/></g><path d="M 191.124 102.802 c -4.455 -2.363 -7.538 -4.361 -9.416 -5.691 c -1.879 1.331 -4.961 3.329 -9.416 5.691 c 3.068 -.487 6.211 -.741 9.416 -.741 C 184.911 102.061 188.055 102.315 191.124 102.802 z" fill="#fff"/><path d="M 36.793 185.174 c -.025 .01 -.05 .019 -.076 .029 C 36.744 185.193 36.769 185.184 36.793 185.174 z" fill="#fff"/><path d="M 26.046 180.645 c 0 3.855 .057 7.86 .18 11.985 c 2.523 -2.988 5.722 -5.383 9.353 -6.964 h -.001 c -.021 -1.696 -.035 -3.376 -.035 -5.02 c 0 -17.862 1.207 -32.483 2.234 -41.702 c 40.778 -.78 71.921 -5.689 95.091 -11.664 c 3.763 -5.271 8.355 -9.909 13.585 -13.724 c -24.3 8.013 -61.901 15.699 -117.065 15.974 C 28.393 136.438 26.046 155.418 26.046 180.645 z" fill="#fff"/><path d="M 45.711 183.554 c -.467 0 -.931 .013 -1.393 .038 C 44.78 183.568 45.244 183.554 45.711 183.554 z" fill="#fff"/><path d="M 42.192 183.806 c -.185 .026 -.371 .049 -.554 .079 C 41.821 183.855 42.007 183.832 42.192 183.806 z" fill="#fff"/><path d="M 38.06 184.737 c -.055 .018 -.112 .035 -.167 .054 C 37.948 184.772 38.004 184.755 38.06 184.737 z" fill="#fff"/><path d="M 40.751 184.048 c -.133 .026 -.267 .051 -.399 .08 C 40.485 184.099 40.619 184.074 40.751 184.048 z" fill="#fff"/><path d="M 39.379 184.36 c -.093 .023 -.185 .046 -.275 .071 C 39.194 184.406 39.286 184.383 39.379 184.36 z" fill="#fff"/><path d="M 43.731 183.639 c -.258 .02 -.516 .038 -.771 .066 C 43.216 183.677 43.473 183.659 43.731 183.639 z" fill="#fff"/><path d="M 326.705 185.205 c -.03 -.011 -.06 -.023 -.09 -.034 C 326.645 185.182 326.675 185.194 326.705 185.205 z" fill="#fff"/><path d="M 325.527 184.792 c -.059 -.02 -.119 -.038 -.177 -.057 C 325.408 184.754 325.468 184.772 325.527 184.792 z" fill="#fff"/><path d="M 320.456 183.705 c -.255 -.028 -.516 -.046 -.775 -.066 C 319.94 183.659 320.199 183.677 320.456 183.705 z" fill="#fff"/><path d="M 321.779 183.885 c -.186 -.03 -.372 -.053 -.559 -.079 C 321.407 183.832 321.594 183.854 321.779 183.885 z" fill="#fff"/><path d="M 324.315 184.432 c -.094 -.026 -.188 -.049 -.284 -.073 C 324.126 184.383 324.221 184.406 324.315 184.432 z" fill="#fff"/><path d="M 323.066 184.129 c -.136 -.03 -.273 -.056 -.41 -.082 C 322.793 184.073 322.93 184.099 323.066 184.129 z" fill="#fff"/><path d="M 319.098 183.592 c -.462 -.025 -.926 -.038 -1.393 -.038 C 318.172 183.554 318.636 183.568 319.098 183.592 z" fill="#fff"/><path d="M 334.027 129.53 c -55.164 -.275 -92.765 -7.961 -117.065 -15.974 c 5.228 3.815 9.822 8.454 13.584 13.723 c 23.171 5.975 54.313 10.885 95.092 11.665 c 1.026 9.22 2.234 23.84 2.234 41.703 c 0 1.644 -.015 3.322 -.036 5.018 c -.003 -.002 -.005 -.002 -.008 -.003 c 3.634 1.58 6.835 3.977 9.36 6.966 c .122 -4.124 .18 -8.126 .18 -11.981 C 337.369 155.419 335.021 136.439 334.027 129.53 z" fill="#fff"/><path d="M 43.867 234.479 c .116 .008 .23 .017 .346 .025 C 44.097 234.497 43.983 234.488 43.867 234.479 z" fill="#fff"/><path d="M 324.112 233.729 c -.915 6.209 -2.025 12.516 -3.367 18.874 c -12.986 61.499 -42.188 106.242 -87.039 133.704 V 234.552 h -29.999 v 166.63 c -7.046 2.78 -14.368 5.249 -21.999 7.37 c -7.63 -2.121 -14.954 -4.589 -21.999 -7.37 v -166.63 H 129.71 v 151.754 c -44.851 -27.462 -74.055 -72.205 -87.04 -133.704 c -1.342 -6.358 -2.452 -12.665 -3.366 -18.874 c .001 0 .003 .001 .003 .001 c -3.877 -1.009 -7.4 -2.906 -10.334 -5.466 c 1.066 8.413 2.463 17.042 4.29 25.768 c 8.083 38.613 22.705 71.499 43.462 97.747 c 25.707 32.506 61.03 54.913 104.984 66.633 c 43.954 -11.72 79.278 -34.127 104.984 -66.633 c 20.757 -26.248 35.379 -59.134 43.461 -97.747 c 1.827 -8.727 3.225 -17.354 4.289 -25.767 C 331.51 230.824 327.988 232.719 324.112 233.729 z" fill="#fff"/><path d="M 320.878 234.349 c .043 -.004 .086 -.009 .128 -.014 C 320.964 234.34 320.921 234.345 320.878 234.349 z" fill="#fff"/><path d="M 319.202 234.504 c .115 -.008 .232 -.017 .347 -.025 C 319.434 234.488 319.317 234.497 319.202 234.504 z" fill="#fff"/><path d="M 42.407 234.335 c .044 .005 .088 .01 .132 .014 C 42.495 234.345 42.451 234.34 42.407 234.335 z" fill="#fff"/><path d="M 42.539 234.349 c .439 .055 .882 .099 1.328 .13 C 43.421 234.448 42.977 234.405 42.539 234.349 z" fill="#005a8f"/><path d="M 44.213 234.504 c .497 .029 .995 .048 1.498 .048 C 45.208 234.552 44.709 234.533 44.213 234.504 z" fill="#005a8f"/><path d="M 39.307 233.729 c 1.011 .264 2.045 .468 3.1 .605 C 41.353 234.195 40.318 233.994 39.307 233.729 z" fill="#005a8f"/><path d="M 42.669 252.603 c 12.986 61.499 42.19 106.242 87.04 133.704 V 234.552 H 45.711 c -.503 0 -1.001 -.019 -1.498 -.048 c -.116 -.008 -.23 -.017 -.346 -.025 c -.446 -.032 -.889 -.076 -1.328 -.13 c -.044 -.004 -.088 -.009 -.132 -.014 c -1.055 -.138 -2.089 -.341 -3.1 -.605 c 0 0 -.003 -.001 -.004 -.001 C 40.218 239.938 41.327 246.245 42.669 252.603 z" fill="#005a8f"/><path d="M 324.112 233.729 c -1.013 .264 -2.049 .467 -3.106 .606 C 322.064 234.197 323.099 233.993 324.112 233.729 L 324.112 233.729 z" fill="#005a8f"/><path d="M 317.705 234.552 c .503 0 1.001 -.019 1.497 -.048 C 318.706 234.533 318.208 234.552 317.705 234.552 z" fill="#005a8f"/><path d="M 319.549 234.479 c .446 -.032 .89 -.076 1.33 -.13 C 320.439 234.405 319.995 234.448 319.549 234.479 z" fill="#005a8f"/><path d="M 320.745 252.603 c 1.342 -6.358 2.453 -12.665 3.367 -18.874 c -1.013 .264 -2.049 .469 -3.106 .606 c -.042 .005 -.085 .01 -.128 .014 c -.44 .055 -.883 .099 -1.33 .13 c -.115 .008 -.231 .017 -.347 .025 c -.496 .029 -.995 .048 -1.497 .048 h -83.998 v 151.754 C 278.558 358.845 307.759 314.102 320.745 252.603 z" fill="#005a8f"/><path d="M 181.708 408.552 c 7.631 -2.121 14.953 -4.589 21.999 -7.37 v -166.63 h -43.999 v 166.63 C 166.754 403.963 174.078 406.432 181.708 408.552 z" fill="#005a8f"/><path d="M 42.96 183.705 c -.258 .028 -.513 .066 -.768 .101 C 42.447 183.77 42.702 183.733 42.96 183.705 z" fill="#005a8f"/><path d="M 40.353 184.128 c -.328 .07 -.652 .149 -.974 .232 C 39.7 184.277 40.026 184.199 40.353 184.128 z" fill="#005a8f"/><path d="M 39.104 184.431 c -.351 .095 -.698 .197 -1.044 .306 C 38.404 184.628 38.753 184.526 39.104 184.431 z" fill="#005a8f"/><path d="M 41.638 183.885 c -.298 .047 -.592 .105 -.887 .163 C 41.046 183.989 41.34 183.933 41.638 183.885 z" fill="#005a8f"/><path d="M 36.718 185.203 c -.384 .145 -.763 .299 -1.139 .462 C 35.955 185.502 36.334 185.349 36.718 185.203 z" fill="#005a8f"/><path d="M 44.318 183.592 c -.197 .011 -.391 .032 -.587 .047 C 43.927 183.624 44.121 183.604 44.318 183.592 z" fill="#005a8f"/><path d="M 37.893 184.791 c -.37 .119 -.737 .247 -1.099 .383 C 37.156 185.038 37.523 184.91 37.893 184.791 z" fill="#005a8f"/><path d="M 35.542 180.646 c 0 1.644 .014 3.324 .035 5.02 h .001 c .376 -.163 .756 -.316 1.139 -.462 c .026 -.01 .051 -.019 .076 -.029 c .362 -.137 .729 -.264 1.099 -.383 c .055 -.019 .112 -.036 .167 -.054 c .346 -.109 .693 -.212 1.044 -.306 c .091 -.025 .183 -.048 .275 -.071 c .322 -.083 .646 -.163 .974 -.232 c .132 -.029 .266 -.054 .399 -.08 c .295 -.058 .588 -.116 .887 -.163 c .183 -.03 .369 -.053 .554 -.079 c .255 -.035 .51 -.073 .768 -.101 c .255 -.028 .513 -.046 .771 -.066 c .196 -.015 .39 -.036 .587 -.047 c .462 -.025 .926 -.038 1.393 -.038 h 80.002 c -2.575 -6.68 -3.999 -13.924 -3.999 -21.5 c 0 -12.956 4.143 -24.957 11.153 -34.774 c -23.17 5.975 -54.312 10.884 -95.091 11.664 C 36.75 148.163 35.542 162.783 35.542 180.646 z" fill="#005a8f"/><path d="M 327.829 185.662 c -.371 -.162 -.745 -.314 -1.125 -.457 C 327.084 185.349 327.458 185.5 327.829 185.662 z" fill="#005a8f"/><path d="M 322.656 184.047 c -.291 -.058 -.583 -.115 -.877 -.162 C 322.074 183.932 322.366 183.988 322.656 184.047 z" fill="#005a8f"/><path d="M 321.221 183.806 c -.254 -.036 -.509 -.073 -.765 -.101 C 320.712 183.733 320.966 183.77 321.221 183.806 z" fill="#005a8f"/><path d="M 319.681 183.639 c -.194 -.015 -.387 -.036 -.583 -.047 C 319.293 183.604 319.486 183.624 319.681 183.639 z" fill="#005a8f"/><path d="M 326.614 185.171 c -.357 -.134 -.721 -.261 -1.087 -.379 C 325.893 184.91 326.257 185.037 326.614 185.171 z" fill="#005a8f"/><path d="M 324.031 184.359 c -.319 -.083 -.641 -.162 -.965 -.23 C 323.39 184.199 323.711 184.276 324.031 184.359 z" fill="#005a8f"/><path d="M 325.35 184.735 c -.343 -.107 -.687 -.21 -1.035 -.303 C 324.663 184.526 325.007 184.627 325.35 184.735 z" fill="#005a8f"/><path d="M 327.873 180.647 c 0 -17.864 -1.208 -32.483 -2.234 -41.703 c -40.779 -.78 -71.921 -5.69 -95.092 -11.665 c 7.011 9.819 11.153 21.819 11.153 34.775 c 0 7.576 -1.424 14.82 -3.999 21.5 h 80.003 c .468 0 .932 .013 1.393 .038 c .195 .011 .388 .032 .583 .047 c .259 .02 .52 .038 .775 .066 c .256 .028 .511 .065 .765 .101 c .186 .026 .373 .049 .559 .079 c .294 .047 .586 .105 .877 .162 c .137 .026 .274 .052 .41 .082 c .324 .069 .646 .147 .965 .23 c .096 .024 .19 .047 .284 .073 c .348 .094 .692 .196 1.035 .303 c .058 .019 .118 .037 .177 .057 c .366 .118 .73 .246 1.087 .379 c .031 .011 .061 .023 .09 .034 c .379 .144 .753 .295 1.125 .457 c .003 .001 .005 .001 .008 .003 C 327.858 183.969 327.873 182.291 327.873 180.647 z" fill="#005a8f"/><g><path d="M 131.151 150.365 c .768 -3.796 3.367 -12.97 11.704 -24.159 c -.082 -3.223 -.995 -6.066 -1.413 -7.21 c -10.911 10.209 -17.954 24.497 -18.662 40.411 C 124.286 158.242 128.726 154.596 131.151 150.365 z" fill="#fff"/><path d="M 180.987 109.526 c 5.634 -.127 13.634 .328 20.674 3.092 c 5.79 .29 12.471 1.523 15.147 2.054 c -9.817 -7.289 -21.964 -11.61 -35.101 -11.61 c -4.202 0 -8.3 .449 -12.255 1.288 C 176.664 105.509 179.726 107.931 180.987 109.526 z" fill="#fff"/><path d="M 229.948 137.917 c 2.293 3.722 5.439 11.57 5.843 26.82 c 2.66 2.682 3.816 4.546 4.317 5.593 c .382 -2.706 .592 -5.466 .592 -8.275 c 0 -12.258 -3.761 -23.654 -10.186 -33.098 C 229.769 131.809 229.826 135.652 229.948 137.917 z" fill="#fff"/><path d="M 200.492 113.788 c -6.286 -2.307 -13.38 -2.799 -18.654 -2.747 c .002 .009 .004 .015 .004 .015 c -.23 -.015 -.462 -.015 -.697 -.005 c -.017 0 -.032 0 -.047 .001 c -6.521 .325 -14.308 9.946 -16.438 12.742 l 10.029 17.63 c 4.003 -.256 14.753 -.478 22.908 3.604 l 12.286 -11.904 C 207.511 122.81 202.697 116.332 200.492 113.788 z" fill="#fff"/><path d="M 143.996 127.186 c -8.943 12.041 -11.108 21.841 -11.552 24.483 c 1.625 3.84 5.429 11.909 10.087 15.621 c 4.282 -.799 12.538 -2.347 18.489 -3.5 c .808 -2.267 4.436 -11.751 12.042 -22.192 l -9.944 -17.482 C 158.742 122.814 147.61 126.06 143.996 127.186 z" fill="#fff"/><path d="M 211.102 134.03 l -12.337 11.955 c .764 1.954 3.782 10.463 3.609 22.66 c 4.243 1.51 11.789 4.723 18.416 10.29 c 7.006 -3.833 11.922 -11.464 13.502 -14.158 c -.415 -15.375 -3.688 -22.988 -5.819 -26.341 C 222.817 134.315 214.051 134.008 211.102 134.03 z" fill="#fff"/><path d="M 180.482 181.237 c -.831 -.514 -6.651 -4.278 -18.744 -16.058 c -5.751 1.116 -13.883 2.642 -18.4 3.487 c -.897 2.156 -3.969 9.599 -5.831 14.888 h 42.708 L 180.482 181.237 z" fill="#fff"/><path d="M 220.09 180.315 c -6.32 -5.375 -13.686 -8.585 -17.933 -10.136 c -1.395 .942 -10.828 7.208 -20.113 10.613 l -.32 2.762 h 38.366 V 180.315 z" fill="#fff"/></g><g><path d="M 63.678 163.023 c .457 0 5.844 0 5.844 0 v -2.344 c 0 0 -5.386 0 -5.844 0 c 0 -.417 0 -3.457 0 -3.874 c .459 0 6.062 0 6.062 0 v -2.313 h -.25 h -8.375 v 14.812 h 8.812 v -2.312 c 0 0 -5.789 0 -6.25 0 C 63.678 166.573 63.678 163.442 63.678 163.023 z" fill="#fff"/><path d="M 76.729 161.15 l -1.575 -.923 c -.679 -.393 -1.174 -.771 -1.468 -1.122 c -.279 -.333 -.415 -.675 -.415 -1.047 c 0 -.403 .178 -.727 .545 -.99 c .388 -.279 .897 -.419 1.513 -.419 c 1.122 0 2.19 .48 3.176 1.429 l .423 .409 v -3.057 l -.111 -.074 c -1.038 -.697 -2.194 -1.05 -3.438 -1.05 c -1.311 0 -2.396 .376 -3.223 1.119 c -.836 .75 -1.26 1.736 -1.26 2.931 c 0 .803 .224 1.522 .665 2.139 c .429 .602 1.154 1.216 2.151 1.825 c 0 0 1.567 .913 1.578 .919 c 1.17 .728 1.762 1.492 1.762 2.272 c 0 .467 -.18 .846 -.552 1.158 c -.384 .322 -.856 .479 -1.444 .479 c -1.37 0 -2.599 -.672 -3.651 -1.999 l -.446 -.561 v 3.447 l .101 .074 c 1.202 .898 2.555 1.352 4.022 1.352 c 1.291 0 2.359 -.384 3.173 -1.142 c .82 -.763 1.236 -1.765 1.236 -2.98 C 79.49 163.642 78.561 162.232 76.729 161.15 z" fill="#fff"/><path d="M 79.982 154.492 v 2.313 c 0 0 4.456 0 4.907 0 c 0 .481 0 12.499 0 12.499 h 2.563 c 0 0 0 -12.019 0 -12.499 c .45 0 4.999 0 4.999 0 v -2.313 h -.249 H 79.982 z" fill="#fff"/><path d="M 265.643 154.492 L 265.643 169.304 L 268.205 169.304 L 268.205 154.492 L 267.956 154.492 Z" fill="#fff"/><path d="M 277.207 154.273 c -1.265 0 -2.355 .443 -3.237 1.316 c -.88 .875 -1.328 1.954 -1.328 3.21 c 0 1.206 .421 2.252 1.249 3.112 c .827 .862 1.837 1.299 3.001 1.299 c .68 0 1.281 -.155 1.838 -.384 c -.288 .779 -.704 1.551 -1.333 2.302 c -.779 .927 -1.7 1.725 -2.731 2.369 l -.244 .153 l 1.584 1.884 l .184 -.111 c 1.71 -1.029 3.132 -2.466 4.228 -4.266 c 1.102 -1.805 1.662 -3.623 1.662 -5.401 c 0 -1.588 -.456 -2.911 -1.355 -3.931 C 279.816 154.795 278.632 154.273 277.207 154.273 z M 279.455 159.249 c 0 0 -.083 .729 -.105 .919 c -.659 .434 -1.337 .668 -2.019 .668 c -.596 0 -1.094 -.201 -1.522 -.612 c -.427 -.409 -.634 -.882 -.634 -1.445 c 0 -.621 .192 -1.12 .584 -1.529 c .389 -.404 .869 -.6 1.47 -.6 c .655 0 1.178 .232 1.595 .713 C 279.249 157.849 279.455 158.467 279.455 159.249 z" fill="#fff"/><path d="M 287.055 159.93 c 0 0 -.1 .005 -.193 .009 c 0 -.418 0 -2.734 0 -3.134 c .447 0 4.5 0 4.5 0 v -2.313 h -.25 h -6.625 v 8.097 l .355 -.165 c .18 -.084 .596 -.183 1.559 -.183 c .889 0 1.637 .239 2.225 .711 c .58 .466 .862 1.025 .862 1.71 c 0 .664 -.258 1.209 -.789 1.666 c -.542 .467 -1.197 .694 -2.003 .694 c -.929 0 -1.899 -.322 -2.885 -.959 l -.386 -.25 v 2.714 l .137 .07 c 1.127 .573 2.303 .864 3.5 .864 c 1.47 0 2.686 -.449 3.613 -1.333 c .933 -.887 1.407 -2.051 1.407 -3.464 c 0 -1.37 -.481 -2.515 -1.425 -3.402 C 289.716 160.377 288.505 159.93 287.055 159.93 z" fill="#fff"/><path d="M 301.725 155.826 c -.909 -1.031 -2.093 -1.553 -3.518 -1.553 c -1.267 0 -2.356 .443 -3.236 1.316 c -.882 .874 -1.329 1.953 -1.329 3.21 c 0 1.205 .421 2.252 1.249 3.112 c .827 .862 1.836 1.299 3 1.299 c .68 0 1.281 -.155 1.838 -.384 c -.288 .78 -.705 1.553 -1.335 2.302 c -.777 .927 -1.697 1.725 -2.729 2.369 l -.244 .153 l 1.585 1.884 l .183 -.111 c 1.709 -1.029 3.132 -2.465 4.228 -4.266 c 1.103 -1.806 1.662 -3.623 1.662 -5.401 C 303.08 158.17 302.624 156.848 301.725 155.826 z M 300.455 159.249 c 0 0 -.083 .729 -.105 .919 c -.659 .434 -1.336 .668 -2.019 .668 c -.596 0 -1.093 -.201 -1.522 -.612 c -.426 -.409 -.635 -.883 -.635 -1.445 c 0 -.62 .191 -1.12 .585 -1.529 c .388 -.404 .869 -.6 1.471 -.6 c .655 0 1.178 .232 1.595 .713 C 300.243 157.844 300.455 158.479 300.455 159.249 z" fill="#fff"/></g></svg>