<svg xmlns="http://www.w3.org/2000/svg" viewBox="0 0 660 660"><circle cx="325.164" cy="325.181" r="311.642"/><path fill="#fff" d="m471.192 256.082 90.57-94.78 23.278 22.239-13.926 14.57-14.354-13.715-22.33 23.368 13.234 12.644-13.923 14.57-13.234-12.641-26.468 27.698 14.826 14.167-13.923 14.571zM450.178 243.806c-12.681-8.528-3.911-26.698 9.295-45.169l10.239 6.887c-6.991 10.396-12.664 19.273-7.036 23.059 3.457 2.324 8.495-1.508 13.459-8.891 13.171-19.589-6.632-34.657 15.147-67.054 11.452-17.027 24.229-28.126 36.705-19.735 9.964 6.703 8.229 19.978-7.745 42.273l-9.969-6.703c5.472-8.137 10.432-16.834 6.295-19.616-3.322-2.235-8.023.513-13.088 8.046-13.876 20.643 7.95 32.698-15.046 66.903-18.941 28.177-30.462 25.245-38.256 20M396.443 221.516l-1.278-7.846 11.423-13.685c2.352-12.814 9.252-29.018 16.226-45.389 13.587-31.907 26.54-62.309 45.257-54.335 6.465 2.756 9.107 8.223 9.249 15.192l9.537-11.332 1.345 7.677-11.932 14.258c-2.428 12.584-9.118 28.287-16.021 44.491-13.447 31.571-26.54 62.309-45.257 54.334-6.088-2.594-8.801-7.698-9.162-14.563zm25.54-30.562c-2.939 9.403-2.841 14.38.693 15.885 6.39 2.724 12.908-10.29 26.071-41.192 2.204-5.18 4.127-9.69 5.546-13.23l-.151-.064zm38.599-55.595c3.439-10.374 3.486-15.487-.197-17.057-6.391-2.721-12.907 10.29-26.071 41.195-2.347 5.512-4.48 10.523-6.041 14.398l.151.064z"/><path fill="#fff" d="m367.356 208.09 30.243-127.571 12.003 2.847-25.213 106.367 17.968 4.262-5.029 21.202zM338.884 205.21l-12.305-.891 9.443-130.764 22.739 1.645c8.397.606 12.908 12.95 11.301 35.226-1.204 16.664-5.038 28.948-13.239 31.268l-.023.362c2.636.919 10.518 2.947 8.817 26.491-.602 8.331-2.135 32.98-1.388 38.495l-12.061-.872c-1.057-8.087-.091-16.936.527-25.449 1.125-15.576 2.732-28.75-6.722-29.435l-3.18-.23zm5.362-74.257 5.463.395c4.89.353 7.06-10.413 7.662-18.744.903-12.497-1.121-17.377-5.032-17.661l-5.464-.394zM291.176 207.564 278.427 77.09l32.036-3.121 1.962 20.059-19.761 1.925 3.143 32.168 18.215-1.776 1.96 20.059-18.215 1.776 3.725 38.131 20.411-1.989 1.961 20.06zM231.763 224.797l-40.352-124.735 18.896-6.111 36.227 81.984.156-.049-18.111-87.845 18.272-5.91 40.351 124.733-11.429 3.699-31.131-96.229-.154.049 20.32 99.725-11.196 3.621-41.391-92.908-.158.052 31.13 96.226zM202.331 215.453l12.645 20.365-8.332 5.17L194 220.624zM123.473 138.417l13.559 17.058-10.746 8.542 68.029 85.573-9.659 7.678-68.028-85.57-10.746 8.542-13.561-17.059zM168.493 276.025c-10.195 11.381-26.979.184-43.447-15.452l8.232-9.189c9.329 8.361 17.339 15.207 21.862 10.155 2.779-3.104-.322-8.625-6.947-14.563-17.583-15.753-35.233 1.781-64.309-24.272-15.281-13.69-24.509-27.885-14.482-39.082 8.013-8.948 20.918-5.392 40.794 13.514l-8.013 8.946c-7.302-6.544-15.231-12.66-18.554-8.946-2.672 2.98-.601 8.018 6.16 14.076 18.528 16.601 33.475-3.354 64.174 24.15 25.289 22.66 20.796 33.664 14.53 40.663M543.299 352.651a223 223 0 0 1 3.415 38.943c0 41.218-11.27 79.799-30.88 112.855 52.66-37.025 85.468-89.225 85.468-147.067 0-17.351-2.96-34.192-8.515-50.268l-24.884 55.299c-.001.001-13.297-4.657-24.604-9.762M107.027 352.651c-11.308 5.105-24.604 9.763-24.604 9.763l-24.884-55.299c-5.554 16.076-8.512 32.917-8.512 50.268 0 57.842 32.806 110.042 85.462 147.067-19.606-33.057-30.876-71.639-30.876-112.855 0-13.288 1.172-26.301 3.414-38.944"/><ellipse cx="325.164" cy="428.153" fill="#fff" rx="133.543" ry="133.544" transform="rotate(-89.41 325.166 428.153)"/><path d="M274.048 319.967v216.37a118.8 118.8 0 0 0 29.518 9.478V310.492a118.8 118.8 0 0 0-29.518 9.475M392.442 363.194l17.853-19.082c-16.796-17.01-38.654-28.963-63.125-33.513v-.033c-.439-.082-.889-.14-1.329-.218a138 138 0 0 0-5.802-.868 119.517 119.517 0 0 0-6.07-.605q-.151-.015-.306-.029v.008c-2.808-.206-5.637-.341-8.497-.341-2.527 0-5.027.104-7.51.258v238.766c2.483.153 4.983.26 7.51.26 7.52 0 14.868-.728 22.005-2.056V440.226h33.896v-29.514h-33.896v-73.454c17.533 4.23 33.141 13.379 45.271 25.936"/></svg>