<svg xmlns="http://www.w3.org/2000/svg" xmlns:xlink="http://www.w3.org/1999/xlink" viewBox="0 0 600 600"><defs><clipPath id="l"><use xlink:href="#a"/></clipPath><clipPath id="m"><use xlink:href="#b"/></clipPath><clipPath id="o"><use xlink:href="#c"/></clipPath><clipPath id="q"><use xlink:href="#d"/></clipPath><clipPath id="r"><use xlink:href="#e"/></clipPath><clipPath id="D"><use xlink:href="#f"/></clipPath><clipPath id="F"><use xlink:href="#g"/></clipPath><clipPath id="G"><use xlink:href="#h"/></clipPath><clipPath id="I"><use xlink:href="#i"/></clipPath><clipPath id="J"><use xlink:href="#j"/></clipPath><clipPath id="L"><use xlink:href="#k"/></clipPath><path id="a" d="M125.223 23.612h413.239v578.32H125.223Z"/><path id="b" d="M170.29 382.136c6.64 15.102 28.278 22.368 59.744 22.368 11.985 0 23.98-.962 35.66-2.561-4.875.406-9.654.681-14.309.825-.899.021-5.873.021-6.034.021-.882 0-9.731-.369-10.643-.444-38.317-3.093-46.37-21.706-46.37-36.771 0-59.138 104.697-122.842 175.07-151.234 36.131-14.585 69.279-21.49 90.303-24.69-6.198-.557-14.173-.931-24.361-.931-113.181-.001-288.808 125.651-259.06 193.417"/><path id="c" d="M127.922 379.718c0 16.891 13.241 53.206 71.38 53.206-43.241-10.339-51.181-35.202-50.807-50.528 1.977-80.436 150.739-138.183 221.104-166.572 36.13-14.585 69.289-21.49 90.315-24.697-6.21-.551-19.041-5.504-29.245-5.504-113.172 0-302.747 121.537-302.747 194.095"/><path id="d" d="M125.223 23.612h413.239v578.32H125.223Z"/><path id="e" d="m431.512 393.18-9.151 15.988c44.133-27.429 76.598-63.496 95.807-101.198-20.306 24.031-53.188 60.329-86.656 85.21"/><path id="f" d="M417.245 147.356c7.572 1.263 14.886 2.905 21.813 4.88 46.648 13.352 78.907 40.735 84.484 78.38 3.496 23.62-1.582 50.739-3.731 61.306 6.343-13.828 10.97-27.845 13.78-41.749 4.508-30.186-1.49-57.416-13.202-80.586-15.788-31.196-44.569-52.793-83.214-62.451-6.205-1.549-12.904-2.784-19.931-3.68z"/><path id="g" d="M125.223 4.897h413.239v597.035H125.223Z"/><path id="h" d="M248.7 129.757c-42.226 22.779-77.422 63.369-101.845 98.426 33.969-30.748 80.243-55.462 131.697-69.748 30.689-8.524 61.215-12.849 90.714-12.849 11.727 0 23.224.703 34.235 2.094v-43.587a227 227 0 0 0-18.971-.788c-44.857.001-91.83 2.718-135.83 26.452"/><path id="i" d="M125.223 4.897h413.239v597.035H125.223Z"/><path id="j" d="M130.136 405.018c1.833 3.529 4.106 6.851 6.768 9.95-2.299-4.866-3.907-10.071-7.759-14.198q.405 2.165.991 4.248m30.678 27.918c61.288 31.089 185.463 20.385 252.365-17.416 13.107-7.41 22.527-19.253 30.035-31.412-77.577 66.048-232.784 67.105-282.4 48.828"/><path id="k" d="M125.223 4.897h413.239v597.035H125.223Z"/><radialGradient id="n" cx="0" cy="600" r="1" gradientTransform="matrix(89.2286 38.872 38.872 -89.2286 -23166.1 53855.02)" gradientUnits="userSpaceOnUse"><stop offset="0" stop-color="#ffe57c"/><stop offset="1" stop-color="#fbad1d"/></radialGradient><radialGradient id="p" cx="0" cy="600" r="1" gradientTransform="rotate(203.54 -6021.729 29587.966)scale(-98.1322 98.1322)" gradientUnits="userSpaceOnUse"><stop offset="0" stop-color="#ffe57c"/><stop offset="1" stop-color="#fbad1d"/></radialGradient><radialGradient id="C" cx="0" cy="600" r="1" gradientTransform="matrix(58.3347 0 0 -58.3347 454.234 35386.273)" gradientUnits="userSpaceOnUse"><stop offset="0" stop-color="#7dcdf1"/><stop offset="1" stop-color="#09d"/></radialGradient><radialGradient id="E" cx="0" cy="600" r="1" gradientTransform="matrix(109.841 0 0 -115.6102 477.872 69535.477)" gradientUnits="userSpaceOnUse"><stop offset="0" stop-color="#7dcdf1"/><stop offset="1" stop-color="#09d"/></radialGradient><radialGradient id="H" cx="0" cy="600" r="1" gradientTransform="matrix(100.9095 0 0 -100.9095 270.973 60709.492)" gradientUnits="userSpaceOnUse"><stop offset="0" stop-color="#acd36c"/><stop offset="1" stop-color="#00b05a"/></radialGradient><radialGradient id="K" cx="0" cy="600" r="1" gradientTransform="rotate(117.491 31467.907 52160.019)scale(-172.6725 172.6725)" gradientUnits="userSpaceOnUse"><stop offset="0" stop-color="#f5909b"/><stop offset="1" stop-color="#ee333f"/></radialGradient></defs><path fill="#fbad1d" d="M379.075 374.633s-72.876 35.107-146.374 35.107c-73.49 0-79.102-41.36-52.318-79.614 0 0-28.9 26.231-28.961 56.649-.064 30.534 40.922 42.725 40.922 42.725s-69.179-8.241-67.073-45.457c4.345-76.662 193.067-198.088 306.746-198.088 41.492 0 47.749 6.285 47.749 6.285s-51.436 2.53-112.189 27.052c-79.151 31.939-172.561 94.75-172.561 147.517 0 21.839 17.982 30.787 42.696 32.773.788.06 9.509.433 10.296.433.171 0 5.061 0 5.931-.018 9.214-.274 32.184-1.389 66.223-9.279 37.445-8.698 58.913-16.085 58.913-16.085" clip-path="url(#l)"/><g clip-path="url(#m)"><path fill="url(#n)" d="m190.72 74.46 342.232 149.091-128.954 296.006L61.767 370.465Z"/></g><g clip-path="url(#o)"><path fill="url(#p)" d="m180.277 64.187 369.615 161.02-143.49 329.377-369.616-161.02Z"/></g><path fill="#009ada" d="M524.935 172.616c-17.687-33.165-50.156-54.948-90.176-64.453-8.331-1.972-17.009-3.354-25.907-4.257v51.805c9.021 1.311 17.669 3.074 25.907 5.324 134.271 36.651 73.577 149.494 18.954 204.261l-47.409 53.181c110.917-59.893 157.516-172.801 118.631-245.861" clip-path="url(#q)"/><g clip-path="url(#r)"><path fill="url(#C)" d="M422.229 308.003h95.809v101.198h-95.809Z"/></g><g clip-path="url(#D)"><path fill="url(#E)" d="M416.945 103.2h329.523v346.831H416.945Z"/></g><path fill="#00b05a" d="M248.133 139.518c-56.569 30.507-98.887 74.489-121.393 120.654 32.156-40.356 87.461-75.877 154.231-94.422 45.697-12.691 89.958-15.525 127.88-10.039v-51.805c-49.257-5.023-106.488 6.358-160.718 35.612" clip-path="url(#F)"/><g clip-path="url(#G)"><path fill="url(#H)" d="M147.066 103.12h256.647v124.877H147.066Z"/></g><path fill="#001a49" d="M437.211 118.717c-6.47 0-11.472 2.627-14.912 5.347 1.062-2.077 2.197-4.2 3.423-6.281 1.447-.52 5.419-2.188 7.303-5.745l.114-.199.568-9.184c-.578-3.775-7.812-9.738-34.406-14.452-8.549-2.386-28.113-28.2-52.931-28.2-1.085 0-2.41-.142-3.849-.181 3.895-3.844 6.32-9.172 6.32-15.077 0-11.508-9.193-20.833-20.638-21.132-11.441.299-20.639 9.624-20.639 21.132 0 5.905 2.424 11.233 6.321 15.077-1.441.039-2.765.181-3.852.181-24.813 0-44.379 25.814-52.93 28.2-26.594 4.714-33.829 10.676-34.407 14.452l.57 9.184.116.199c1.883 3.557 5.854 5.226 7.298 5.745a116 116 0 0 1 3.422 6.281c-3.437-2.72-8.439-5.347-14.908-5.347-19.761 0-21.548 11.831-21.548 15.633 0 9.997 8.481 13.61 9.442 13.98.149 1.175 1.175 7.939 1.175 7.979.04.45.255 2.669 2.431 3.842l.406.206c1.971 1.014 6.594 3.375 8.362 12.816 1.872 9.992 3.354 20.005 4.576 30.579 1.056 9.175 2.468 15.009 7.531 23.036.079.419 4.229 26.919 4.229 26.919 5.248 29.024 19.024 37.746 29.781 39.935 1.018.772 1.343 1.248 1.379 1.382 0 .153.112 16.279 7.58 19.033 4.499 24.114 12.591 31.955 16.673 34.411-1.405 1.059-3.986 3.505-8 9.346-3.265 4.739-6.13 6.642-9.479 8.857-.493.089-16.052 2.602-16.052 2.602l-.065.006c-.906.224-1.179.709-1.179.709l-10.68 13.345-.192.86.019 10.575c0 .459.317.865.83 1.206.339.847 1.117 1.834 2.59 2.379l.053.025s.679.197 1.248.377c.119.377.331.673.683.892v12.352c-1.312.764-8.245 4.936-8.245 4.936l-2.024 1.698-12.073 20.976c-.506.731-.803 1.367-.879 1.91 0 0-.035.962.012.975.018.1.423 6.936.423 6.936 0 12.175 60.833 22.604 100 22.747 39.165-.143 99.996-10.572 99.996-22.747 0 0 .409-6.836.427-6.936.049-.013.013-.975.013-.975-.074-.543-.374-1.179-.88-1.91l-12.071-20.976-2.024-1.698s-6.932-4.172-8.246-4.936v-12.352c.354-.219.564-.515.684-.892.569-.18 1.252-.377 1.252-.377l.048-.025c1.471-.545 2.25-1.532 2.589-2.379.515-.341.829-.747.829-1.206l.021-10.575-.194-.86-10.679-13.345s-.274-.485-1.181-.709l-.064-.006s-15.559-2.513-16.05-2.602c-3.35-2.215-6.217-4.117-9.479-8.857-4.014-5.841-6.596-8.287-8.001-9.346 4.082-2.456 12.176-10.297 16.675-34.411 7.472-2.754 7.58-18.88 7.58-19.033.037-.134.358-.609 1.379-1.382 10.759-2.189 24.532-10.911 29.783-39.935 0 0 4.148-26.499 4.23-26.919 5.06-8.027 6.474-13.861 7.53-23.036 1.219-10.574 2.702-20.586 4.573-30.579 1.77-9.44 6.393-11.802 8.361-12.816l.411-.206c2.174-1.173 2.388-3.392 2.429-3.842 0-.039 1.025-6.804 1.174-7.979.962-.369 9.44-3.982 9.44-13.98.002-3.802-1.785-15.633-21.545-15.633M268.389 284.294c-16.442-6.106-22.403-39.265-23.238-55.964 0 0-.018-.217-.018-.32l-.107-.32c-.076-.192-6.983-19.107-6.983-40.288 0-19.258-8.294-29.883-10.844-32.696l-.156-.178v-2.75l.303-.182c3.124-2.001 4.714-4.669 4.714-7.916l-.021-.289 1.192-.157 3.416 13.002c.971 3.732 5.187 7.034 7.604 8.669l.255.163v.275c.257 4.386 1.395 9.343 2.32 12.714l.048.181-.091.169a3.7 3.7 0 0 0-.318 1.466l.098.838c.175.816.664 1.574 1.362 2.158l.207.183v.26c.295 17.742 6.816 27.175 8.803 29.671l.137.126v.221c.159 37.228 7.657 59.965 12.089 70.203l.571 1.257zm160.974-129.766-.152.178c-2.556 2.813-10.847 13.438-10.847 32.696 0 21.181-6.909 40.096-6.987 40.288 0 0-.067.218-.105.32 0 .104-.018.32-.018.32-.835 16.699-6.796 49.858-23.238 55.964l-1.341.496.57-1.257c4.432-10.238 11.931-32.976 12.09-70.203v-.221l.135-.126c1.986-2.496 8.511-11.929 8.802-29.671v-.26l.207-.183c.706-.584 1.19-1.343 1.362-2.158l.103-.838c0-.474-.103-.949-.324-1.466l-.091-.169.055-.181c.921-3.371 2.057-8.328 2.319-12.714v-.275l.25-.163c2.419-1.635 6.633-4.937 7.603-8.669l3.417-13.002 1.192.157-.016.289c0 3.246 1.585 5.915 4.709 7.916l.303.182v2.75z" clip-path="url(#I)"/><path fill="#009ada" d="M390.066 397.925s-1.31-4.366-4.048-6.378c-2.738-1.998-4.584-.948-9.183-8.642-4.574-7.695-10.726-20.758-12.707-24.822-1.969-4.063-7.091-7.084-7.091-7.084l-2.973-3.196-.844-1.116-.592-1.746s5.373-2.841 15.927-3.14c1.728.012 5.651-2.318 6.739-5.506 0 0 1.855-4.031 1.886-5.581.005-1.507-1.278-5.626-2.145-8.703-.878-3.043-.641-7.293-1.334-9.264-.713-1.971-2.186-10.625-16.416-26.867 0 0 .621.189.845-.613.231-.806-4.812-4.795-5.915-5.907 0 0 .214-1.303-.398-2.831-.638-1.535-1.166-3.071-2.16-4.517-.998-1.429-2.544-2.54-3.824-3.424-1.272-.891-1.441-1.111-1.441-1.111s-1.264-2.3-2.085-2.641c0 0 1.14-3.147 1.189-5.308.03-2.201-1.632-2.117-1.621-3.747.028-1.639.342-3.143.342-3.143s-.494-1.689-1.153-3.502c4.969-2.891 8.558-7.038 8.558-7.038s3.291-1.618 6.053-1.559c2.762.035 9.219-.49 13.11-1.243 3.933-.739 9.167-2.365 13.337-5.742l4.186-3.376s1.828-2.531-.074-5.294l.529-1.488s1.459-2.274.604-3.676c-.869-1.414-2.38-4.078-2.443-5.232-.069-1.186-.022-4.145-2.449-5.256-2.416-1.127-4.666-6.592-6.587-9.374-1.917-2.798-3.229-5.092-4.077-6.317-.839-1.206-1.919-2.584-2.573-4.042-.654-1.44-1.885-5.926-1.997-8.287-.137-2.337-.228-4.486-1.896-6.131-1.666-1.651-2.536-3.456-2.995-4.549-.455-1.093-.804-1.884-5.099-3.015-5.299-1.394-16.931-8.852-19.331-9.47.042-.379.072-1.22-.267-1.785l-.897-.249a.6.6 0 0 0 .03-.188c.038-.821 1.66-4.072 2-5.426.387-1.364.725-3.316.819-4.593.13-1.282.461-1.222.662-1.776.217-.551.3-2.903.3-2.903l1.537-6.708s.346-2.657.45-3.224c.11-.575.048-2.13.048-2.13s-.009-1.899.075-2.471c.123-.575-1.215-3.426-1.455-4.179-.204-.752-1.156-1.161-1.417-1.693-.268-.518-2.031-.973-2.143-1.583-.123-.615-2.186-2.063-2.623-2.154-.444-.074-3.532-1.483-3.532-1.483s-2.593-1.68-3.751-2.366c-1.131-.69-2.187.066-2.187.066s-3.669-.205-4.213-.316c-.556-.107-.598 1.31-.981 1.594-.394.288-3.753.247-4.262.498-.49.274-.854 1.617-1.609 1.955-.756.333-2.644 1.274-2.962 1.812-.325.532-1.491 1.849-1.925 2.361-.441.52-1.336 3.54-2.023 4.833-.69 1.285-.982 8.708-.982 8.708s-1.272 1.414-2.202 5.979c-.941 4.557 2.145 7.373 2.134 8.554-.007 1.18.219 2.015.219 2.015l-2.116 3.73-3.256.33-.393.128c-.228.131-1.641.942-2.711 2.531h-.061c-.106.187-.217.362-.303.57 0 0-.669.183-3.251 1.888-2.612 1.706-3.619 2.118-4.177 2.439 0 0-3.078 1.158-5.947 2.088-2.652.864-3.688 1.868-6.486 4.209-1.439.533-2.799 1.271-3.884 2.762q-.376.57-.847 1.224a26 26 0 0 0-3.895 4.407c-2.645 3.68-7.92 11.326-7.974 14.709-.014 1.469.097 3.57.218 5.595.161 2.579.366 5.032.339 5.951-.009.995-.557 3.735-.998 6.483.037.029.075.063.128.091 1.967.994 2.958-.815 2.16 5.398-.789 6.208-.961 17.011-.572 19.818.325 2.349-.179 3.692-.217 4.676 0 .259.039.518.045.764.172.892.284 1.612 1.543 2.16 1.4.588 7.037 3.493 8.385 3.762.01.167.016.309.028.444l.082 2.112c-.007 2.621-2.174 7.031-1.7 8.684 0 0-.402 2.083-.43 3.534-.007 1.424.228 3.419.198 4.538 0 1.093-.577 2.512-.147 4.611 0 0-1.182 3.612-.559 6.19.613 2.546 2.179 7.31 4.411 13.329 1.803 4.883 2.65 10.003 5.273 14.747a35 35 0 0 0 1.883 3.117 25 25 0 0 1 1 1.563h.102l2.421 6.556c.727.92 1.236 2.714 1.789 3.516 2.538 3.51 5.292 7.7 7.471 10.777 0 0 .432 1.417 1.071 1.754l.539.237s1.882-2.153 3.28-2.456c1.381-.314.273 0 .273 0s1.428 1.571 3.743 3.694c1.591 1.932 4.632 5.301 8.811 8.172-1.104 4.029-1.423 8.708-2.146 10.17-.956 1.97-5.628 7.878-5.628 10.84 0 2.95-1.342 8.914-.109 10.648 1.219 1.728 4.614 3.944 7.526 3.444 2.904-.483 4.699-6.71 5.69-8.921.965-2.222 6.834-10.109 8.522-11.588.564-.499 1.935-2.039 3.508-3.867.557.415 1.063.811 1.549 1.224.648.667 1.154 1.316 1.42 1.873 0 0-.971 2.474.128 3.913 0 0-.217 1.094 1.389 4.809 1.613 3.749 4.564 10.436 9.757 14.864 5.166 4.45 12.842 8.921 18.954 12.946 6.118 4.009 10.652 8.56 10.626 11.05 0 0-1.776 1.074-.062 3.935 0 0 .34 1.197-.591 1.934-.93.752-2.235 1.932-2.272 3.57l.557.976 17.673.293s1.849-.186 2.887-1.367c1.025-1.198 1.348-3.686 1.348-3.686s.49-1.416.526-3.912c.029-2.514-1.836-6.892-3.218-7.25M323.71 231.777s-4.544-2.321-5.946-2.064c-.566.117-1.48 1.534-.68 2.678l.792 1.174.378.735s-1.917-2.009-2.561-1.88c0 0-1.448-5.807-1.55-7.743 0 0-2.338-19.438 11.431-25.771 5.044-2.314 17.705-.403 25.097 11.481 1.005 1.562 5.616 7.768 5.9 15.59 0 0-1.466-2.837-1.512-3.984-.045-1.133-1.24-3.365-3.06-5.162-1.822-1.78-2.593-4.089-3.622-5.041 0 0-.702-1.02-.752-1.667l-.032-.652s-.257-1.907-1.229-1.725c-.985.199-2.235 1.484-2.155 2.962.07 1.473.322 3.301 1.063 4.726 0 0 .149 1.444.871 2.627.727 1.173.893 1.874.377 2.627-.543.766-2.422 4.258-3.309 4.429-.905.164-4.41.937-6.269 1.373 0 0-3.063-.394-4.58-.84-1.491-.438-3.316-.83-5.165-1.286-1.827-.48-4.848-1.235-5.432-.182-.58 1.051-.377 2.454 1.061 2.911 1.428.462 3.335.917 4.446 1.771 1.101.85 2.686.967 4.164 1.166 1.5.203 2.916.591 2.922.907 0 0-.051.422-2.672.527-2.619.089-6.495.112-7.976.313m16.044 95.688s-1.846-4.332-3.512-6.561c-1.652-2.243-4.892-7.171-4.892-7.171 4.277 2.322 12.893 9.356 12.893 9.356z" clip-path="url(#I)"/><path fill="#ee343f" d="M126.089 394.223c17.911 73.752 200.487 70.23 287.09 21.3 19.99-11.305 31.4-32.916 40.532-50.227-77.956 76.808-298.257 89.886-327.622 28.927" clip-path="url(#I)"/><g clip-path="url(#J)"><path fill="url(#K)" d="M96.822 447.024 335.944-12.5l459.525 239.122-239.122 459.524Z"/></g><path fill="#001a49" d="M511.97 594.935c0 3.867-3.13 6.997-6.976 6.997H162.439c-3.857 0-6.985-3.13-6.985-6.997v-24.243a6.984 6.984 0 0 1 6.985-6.981h342.555c3.846 0 6.976 3.127 6.976 6.981z" clip-path="url(#L)"/><path fill="#001a49" d="M224.546 486.151c2.965 0 5.249 2.654 5.249 5.979-.173 2.66-2.007 4.659-4.547 5.1l5.064 7.473h-5.113l-4.712-7.143h-4.903v7.18h-4.377v-18.587h13.339m-9.02 3.128v5.303h5.592c1.341 0 3.408-.813 3.408-2.639-.04-1.753-1.442-2.664-3.549-2.664zm18.122-3.077.089 12.042c0 4.845 4.483 6.421 8.646 6.421h.585c4.318-.158 8.954-.835 8.954-6.226v-12.258l-4.462 4.447.031 6.875c0 3.641-2.485 3.988-4.798 4.01-1.663 0-4.472-.713-4.472-3.979l-.069-11.332zm21.903 9.197c0 4.675 2.906 9.224 7.533 9.224h12.139v-10.853h-10.701v3.047h6.298v4.676h-6.174c-2.874 0-4.25-3.248-4.25-6.141.04-2.886 1.518-5.929 4.376-5.929h10.23v-3.369h-11.311c-4.792 0-8.14 4.502-8.14 9.345m23.963 9.266v-18.403h11.34c2.632 0 4.868 1.668 5.178 4.294.035.226.035.415.035.623 0 1.901-.991 3.507-2.833 4.336 1.903.698 2.986 2.14 3.083 4.17a4.94 4.94 0 0 1-4.947 4.98zm3.914-7.454v4.333h6.291c1.07 0 1.826-.934 1.875-2.032 0-1.268-.886-2.301-2.024-2.301zm.094-7.49v4.457l5.991-.018c1.083 0 1.857-.985 1.857-2.109 0-1.202-.877-2.33-2.092-2.33zm15.075-3.539 7.919 10.727v7.809h4.296v-7.809l8.014-10.759h-5.381l-4.826 7.44-4.74-7.408zm39.7 11.833v-11.59h-4.691v11.724c0 1.282.133 2.056.632 3.196 1.395 2.962 4.492 3.577 7.848 3.577h6.579v-3.001h-5.835c-1.526 0-2.774-.182-3.714-1.37-.616-.789-.819-1.467-.819-2.536m16.908 5.603c1.412.689 2.392.939 3.963.939h8.877v-3.191h-7.99c-1.25 0-2.073-.564-2.869-1.46-.759-.852-1.074-1.661-1.074-2.825h11.934v-3.261h-11.957c0-1.313.292-2.23 1.145-3.141.903-.958 1.793-1.279 3.11-1.279h7.601v-3.25h-8.236c-1.792 0-2.9.212-4.502 1.015-2.82 1.505-4.243 4.923-4.243 8.303-.002 3.41 1.402 6.745 4.241 8.15m23.838-17.469h4.443l7.88 18.516h-4.57l-1.561-4.212h-7.51l-1.65 4.212h-4.515zm-.076 11.078h4.888l-2.487-6.446zm14.567-1.828c0 4.675 2.897 9.224 7.523 9.224h12.119v-10.853H402.49v3.047h6.282v4.676h-6.153c-2.893 0-4.259-3.248-4.259-6.141.06-2.886 1.535-5.929 4.367-5.929h10.229v-3.369h-11.284c-4.819 0-8.138 4.502-8.138 9.345m23.663-9.197.11 12.042c0 4.845 4.468 6.421 8.625 6.421h.585c4.319-.158 8.963-.835 8.963-6.226v-12.258l-4.454 4.447.02 6.875c0 3.641-2.495 3.988-4.798 4.01-1.66 0-4.473-.713-4.473-3.979l-.054-11.332zm26.085 17.416c1.427.689 2.397.939 3.97.939h8.888v-3.191h-8.012c-1.238 0-2.075-.564-2.858-1.46-.758-.852-1.065-1.661-1.065-2.825h11.935v-3.261h-11.996c0-1.313.308-2.23 1.185-3.141.869-.958 1.792-1.279 3.097-1.279h7.608v-3.25h-8.244c-1.793 0-2.904.212-4.507 1.015-2.81 1.505-4.233 4.923-4.233 8.303-.001 3.41 1.391 6.745 4.232 8.15m-290.825 12.179 12.006 35.12h10.243l7.439-24.797 7.709 24.854h10.554l12.123-35.177h-9.589l-7.483 26.598-8.212-26.598h-9.885L169.75 542l-7.79-26.201zm136.133-.181c5.605 0 10.022 5.03 10.022 11.387-.339 5.075-3.821 8.904-8.67 9.72l9.637 14.254h-9.738l-8.994-13.63h-9.366v13.739h-8.325v-35.47zm-17.204 5.945V531.7h10.658c2.582 0 6.496-1.552 6.496-5.034-.052-3.342-2.722-5.103-6.734-5.103zm43.524 16.678v-22.089h-8.95v22.325c0 2.475.228 3.919 1.188 6.101 2.688 5.659 8.578 6.839 14.972 6.839h12.559v-5.722H323.54c-2.916 0-5.288-.35-7.073-2.619-1.168-1.503-1.557-2.811-1.557-4.835m26.363 12.678.048-35.267h17.625c2.538 0 3.939.344 6.209 1.181 5.915 2.22 8.822 9.631 8.822 16.937 0 7.772-3.31 15.459-9.847 16.817-1.591.299-2.523.333-4.155.333zm8.08-29.022v22.977l10.386.047c4.831 0 6.188-5.956 6.34-10.898 0-5.955-1.783-12.208-7.031-12.208zm60.823 28.339c1.681.548 2.78.791 4.595.791h15.396v-6.256l-14.193-.194c-4.741 0-6.49-5.475-6.785-10.304-.039-.547-.039-.971-.039-1.468 0-4.994 1.69-10.411 6.436-10.411h14.437v-6.685h-13.908c-2.667 0-4.308.338-6.737 1.294-5.814 2.435-8.663 9.505-8.663 16.53-.002 7.418 3.144 14.791 9.461 16.703m26.465-34.526.183 22.962c0 9.245 8.531 12.246 16.477 12.246h1.12c8.226-.284 17.111-1.596 17.111-11.86v-23.407L463 524.194l.043 13.082c0 6.927-4.757 7.599-9.164 7.646-3.141 0-8.523-1.356-8.523-7.597l-.104-21.613zm66.625.195c8.13 0 11.626 6.488 11.626 11.63-.146 6.232-5.627 11.333-12.016 11.333h-14.911v12.218h-8.484v-35.181zm-15.28 5.908v10.95h11.395c3.191 0 5.807-2.47 5.807-5.669-.1-3.195-3.043-5.281-6.094-5.281zm-229.872 3.519c-3.064-8.601-14.355-12.83-26.211-9.518-12.548 3.5-20.968 14.149-18.784 23.785 1.754 7.814 9.947 12.556 19.688 12.178-7.494-.422-13.325-3.912-14.566-9.45-.52-2.316-.182-4.699.855-7.034l14.202.112 2.418-2.439-15.287-.106c.55-.797 1.154-1.6 1.853-2.358l15.857.035 2.423-2.441-15.706-.03a31 31 0 0 1 2.598-1.902l15.073-.014 2.439-2.425H232.04c1.399-.599 2.92-1.158 4.462-1.571 8.819-2.418 17.191-.985 21.612 3.178" clip-path="url(#L)"/><path fill="#fff" d="M169.981 590.233v-15.962h12.041v3.123h-8.557v3.244h7.532v3.13h-7.532v3.349h8.663v3.116zm26.482 0h2.968v-15.962h-3.443v9.831l-7.485-9.831h-3.246v15.962h3.467v-10.148zm14.505.286c2.918 0 5.183-1.148 6.821-2.538v-6.924h-6.947v3.023h3.55v2.284c-.893.631-2.025.954-3.301.954-2.831 0-4.842-2.144-4.842-5.058v-.045c0-2.714 2.03-4.982 4.574-4.982 1.861 0 2.966.589 4.194 1.628l2.206-2.675c-1.68-1.409-3.395-2.19-6.267-2.19-4.844 0-8.376 3.728-8.376 8.265v.042c-.001 4.714 3.416 8.216 8.388 8.216m10.197-.286h11.468v-3.196h-7.953v-12.766h-3.516v15.962m25.997 0h3.68l-6.843-16.079h-3.233l-6.844 16.079h3.58l1.469-3.571h6.737zm-2.712-6.673h-4.236l2.113-5.185zm20.057 6.673h2.984v-15.962h-3.467v9.831l-7.485-9.831h-3.242v15.962h3.483v-10.148zm13.045 0c5.023 0 8.488-3.485 8.488-7.974v-.045c0-4.491-3.465-7.943-8.488-7.943h-6.223v15.962zm4.824-7.931c0 2.821-1.943 4.767-4.824 4.767h-2.712v-9.628h2.712c2.881 0 4.824 1.981 4.824 4.819zm25.513 7.931h3.669l-6.847-16.079h-3.233l-6.842 16.079h3.588l1.462-3.571h6.748zm-2.726-6.673h-4.229l2.118-5.185zm20.055 6.673h2.985v-15.962h-3.452v9.831l-7.495-9.831h-3.225v15.962h3.466v-10.148zm13.055 0c5.016 0 8.497-3.485 8.497-7.974v-.045c0-4.491-3.481-7.943-8.497-7.943h-6.221v15.962zm4.816-7.931c0 2.821-1.94 4.767-4.815 4.767h-2.717v-9.628h2.717c2.876 0 4.815 1.981 4.815 4.819zm31.185 8.041 5.443-16.071h-3.664l-3.312 10.804-3.581-10.847h-3.015l-3.58 10.847-3.299-10.804h-3.77l5.457 16.071h3.047l3.602-10.431 3.61 10.431zm17.872-.11h3.692l-6.85-16.079h-3.247l-6.853 16.079h3.594l1.468-3.571h6.744zm-2.709-6.673h-4.231l2.109-5.185zm8.858 6.673h11.457v-3.196h-7.953v-12.766h-3.504zm14.116 0h12.16v-3.116h-8.678v-3.349h7.533v-3.13h-7.533v-3.244h8.553v-3.123H412.41zm20.967.233c3.446 0 5.854-1.794 5.854-4.95v-.044c0-2.787-1.813-3.945-5.068-4.799-2.742-.71-3.433-1.047-3.433-2.093v-.045c0-.775.696-1.388 2.047-1.388 1.339 0 2.743.587 4.152 1.561l1.823-2.639c-1.614-1.294-3.601-2.027-5.931-2.027-3.252 0-5.586 1.902-5.586 4.817v.04c0 3.167 2.065 4.06 5.287 4.878 2.672.69 3.223 1.139 3.223 2.036v.041c0 .939-.869 1.506-2.297 1.506-1.838 0-3.333-.756-4.771-1.936l-2.077 2.484c1.915 1.711 4.351 2.558 6.777 2.558m17.609-11.127c1.2-1.465 2.048-2.148 3.271-2.148 1.256 0 2.15.729 2.15 2.075 0 1.318-.777 2.192-2.751 3.83l-5.308 4.355v2.781h11.803v-3.036h-6.959l2.591-1.997c2.833-2.193 4.206-3.529 4.206-6.207 0-2.986-2.115-4.95-5.494-4.95-2.858 0-4.384 1.162-5.955 3.307zm18.751 11.18c4.255 0 7.102-3.627 7.102-8.29 0-4.646-2.801-8.233-7.071-8.233-4.261 0-7.122 3.625-7.122 8.282-.001 4.656 2.818 8.241 7.091 8.241m3.511-8.242c0 2.923-1.342 5.055-3.48 5.055-2.123 0-3.491-2.158-3.491-5.103 0-2.943 1.336-5.06 3.461-5.06 2.113 0 3.51 2.187 3.51 5.108m9.835-8.112-4.583 1.369.741 2.867 2.788-.678v12.51h3.456v-16.068zm6.312 3.104h6.258l-3.814 3.837.563 2.249h1.46c2.013 0 3.115.725 3.115 2.053 0 1.202-.934 1.954-2.253 1.954-1.613 0-2.764-.686-3.85-1.916l-2.423 2.306c1.371 1.619 3.355 2.768 6.24 2.768 3.539 0 5.736-2.222 5.736-5.255 0-2.986-2.094-4.117-4.283-4.496l4.032-3.849v-2.647h-10.782v2.996" clip-path="url(#L)"/></svg>